<svg xmlns="http://www.w3.org/2000/svg" xmlns:xlink="http://www.w3.org/1999/xlink" style="background:#f9f9fa" viewBox="0 0 764 360"><defs><rect id="a" width="20" height="20" rx="2"/></defs><g fill="none" fill-rule="evenodd"><g transform="translate(114 118)"><path fill="#0C0C0D" d="M3.43 17v6H2V7.6h3.97c.81 0 1.53.1 2.15.3.62.2 1.15.49 1.58.87.43.38.76.84.98 1.4.22.54.33 1.17.33 1.88 0 .72-.12 1.38-.38 1.99-.25.6-.6 1.12-1.07 1.56-.47.44-1.05.79-1.72 1.04-.67.24-1.43.37-2.29.37H3.43zm0-8.1v6.8h2.04c1.32 0 2.33-.31 3.02-.93a3.32 3.32 0 0 0 1.03-2.6c0-2.18-1.27-3.26-3.8-3.26h-2.3zm11.14 8.85c0 .67.1 1.28.26 1.81.18.54.42 1 .75 1.37.32.37.71.65 1.17.85.46.2.99.3 1.57.3a5.6 5.6 0 0 0 3.5-1.3v1.35a6.4 6.4 0 0 1-5.82.74 4.17 4.17 0 0 1-1.54-1.12c-.42-.5-.75-1.1-.98-1.81a8.03 8.03 0 0 1 .03-4.74c.25-.7.6-1.3 1.05-1.82a4.58 4.58 0 0 1 3.58-1.64c.7 0 1.33.13 1.87.37.55.25 1 .6 1.37 1.06.37.46.65 1.02.85 1.68.19.66.29 1.4.29 2.21v.69h-7.95zm6.53-1.2a4.19 4.19 0 0 0-.82-2.67 2.68 2.68 0 0 0-2.18-.95c-.46 0-.9.09-1.3.25-.4.17-.74.4-1.04.72-.3.3-.55.69-.75 1.13-.2.45-.33.96-.41 1.51h6.5zm9.57-3.14a2.05 2.05 0 0 0-1.25-.36c-.36 0-.68.07-.96.21-.28.14-.53.33-.74.57a3.4 3.4 0 0 0-.54.82 5.73 5.73 0 0 0-.54 2 8.6 8.6 0 0 0-.06.97V23H25.2V12h1.37v2.35h.04c.13-.4.3-.76.49-1.08.2-.32.42-.58.68-.8a2.85 2.85 0 0 1 2.88-.5v1.44zM37.79 8c-.3-.2-.7-.3-1.2-.3-1.28 0-1.92.85-1.92 2.53V12h2.73v1.2h-2.73V23h-1.38v-9.8h-1.92V12h1.92v-1.85c0-.55.07-1.05.21-1.5.14-.44.35-.83.62-1.15.27-.31.61-.56 1.02-.73.41-.17.89-.26 1.43-.26.51 0 .92.07 1.22.2v1.3zm5.86 15.25c-.82 0-1.55-.14-2.2-.41a4.7 4.7 0 0 1-2.71-2.94 6.94 6.94 0 0 1-.37-2.31c0-.92.13-1.74.39-2.46a4.7 4.7 0 0 1 2.83-3c.67-.27 1.42-.4 2.25-.4.8 0 1.51.13 2.15.4.63.26 1.18.63 1.62 1.13.44.5.78 1.1 1.02 1.8.24.71.35 1.52.35 2.42 0 .86-.12 1.64-.37 2.35a5.3 5.3 0 0 1-1.05 1.82c-.46.5-1.02.9-1.68 1.18-.66.28-1.4.42-2.23.42zm.1-10.33c-.6 0-1.14.1-1.63.32-.49.2-.9.5-1.25.9s-.62.89-.8 1.46a6.37 6.37 0 0 0-.28 1.97c0 .68.1 1.3.28 1.85.18.56.45 1.03.79 1.42.34.4.75.7 1.24.9.49.22 1.03.33 1.63.33.62 0 1.16-.1 1.63-.31.48-.2.88-.5 1.2-.9.34-.38.59-.86.75-1.43.17-.56.26-1.2.26-1.93 0-1.48-.33-2.61-1-3.4a3.48 3.48 0 0 0-2.82-1.18zm13.46.48a2.05 2.05 0 0 0-1.24-.36c-.37 0-.7.07-.97.21-.28.14-.52.33-.74.57a3.4 3.4 0 0 0-.53.82 5.73 5.73 0 0 0-.55 2 8.6 8.6 0 0 0-.06.97V23h-1.36V12h1.36v2.35h.04c.13-.4.3-.76.5-1.08.19-.32.42-.58.67-.8a2.85 2.85 0 0 1 2.88-.5v1.44zM73.04 23v-6.47a7.9 7.9 0 0 0-.15-1.67c-.1-.45-.26-.82-.47-1.1-.21-.3-.48-.5-.8-.63-.33-.13-.72-.2-1.17-.2-.4 0-.78.1-1.14.29-.36.19-.67.45-.94.78-.27.34-.48.73-.64 1.18a4.5 4.5 0 0 0-.23 1.46V23h-1.37v-6.6c0-2.31-.89-3.47-2.65-3.47-.41 0-.8.1-1.14.28-.35.18-.66.44-.92.77s-.47.72-.61 1.18c-.15.47-.22.98-.22 1.53V23H59.2V12h1.38v1.78h.04a3.69 3.69 0 0 1 5.4-1.37 3.23 3.23 0 0 1 1.15 1.73c.39-.78.9-1.38 1.51-1.79.62-.4 1.32-.6 2.1-.6 2.41 0 3.62 1.48 3.62 4.46V23h-1.37zm11.02 0v-1.96H84a3.88 3.88 0 0 1-3.57 2.21c-.52 0-1-.07-1.43-.22a2.81 2.81 0 0 1-1.77-1.63 3.3 3.3 0 0 1-.24-1.28c0-1 .3-1.79.92-2.38.62-.59 1.55-.97 2.8-1.15l3.34-.49c0-2.1-.82-3.17-2.46-3.17-1.28 0-2.47.47-3.57 1.41v-1.5c.23-.17.49-.32.78-.45a7.16 7.16 0 0 1 2.9-.65c1.23 0 2.16.35 2.78 1.03.63.7.94 1.72.94 3.08V23h-1.37zm-2.84-5.34c-.5.07-.91.16-1.27.27-.35.1-.64.25-.87.43-.23.19-.4.41-.5.68a2.69 2.69 0 0 0 0 1.81c.1.25.25.47.44.65.2.18.44.33.72.43a3.2 3.2 0 0 0 4.06-2.08c.17-.47.26-.96.26-1.5v-1.09l-2.84.4zM96.16 23v-6.34c0-2.48-.9-3.73-2.7-3.73a3.12 3.12 0 0 0-2.4 1.08c-.29.34-.52.73-.7 1.2-.16.46-.24.96-.24 1.5V23h-1.38V12h1.38v1.91h.04a3.97 3.97 0 0 1 3.68-2.17c1.2 0 2.12.4 2.75 1.17.63.78.95 1.91.95 3.39V23h-1.38zm12-.5c-.81.5-1.8.75-2.96.77-.79 0-1.5-.13-2.13-.41a4.66 4.66 0 0 1-1.61-1.17 5.18 5.18 0 0 1-1.02-1.76 7.09 7.09 0 0 1 .02-4.53 5.19 5.19 0 0 1 2.86-3.19c.7-.31 1.49-.47 2.38-.47.91 0 1.74.18 2.5.53v1.46c-.8-.53-1.67-.8-2.6-.8a3.74 3.74 0 0 0-3.02 1.38c-.36.43-.62.93-.8 1.5a5.9 5.9 0 0 0-.05 3.5c.16.53.4 1 .71 1.42.32.41.72.74 1.21.98a4.58 4.58 0 0 0 4.51-.56v1.36zm3.3-4.75c0 .67.1 1.28.27 1.81.17.54.42 1 .74 1.37.32.37.72.65 1.18.85.46.2.98.3 1.56.3a5.6 5.6 0 0 0 3.51-1.3v1.35a6.4 6.4 0 0 1-5.83.74 4.17 4.17 0 0 1-1.54-1.12c-.42-.5-.74-1.1-.97-1.81a8.03 8.03 0 0 1 .03-4.74c.25-.7.6-1.3 1.04-1.82a4.58 4.58 0 0 1 3.58-1.64c.7 0 1.33.13 1.88.37.54.25 1 .6 1.37 1.06.37.46.65 1.02.84 1.68.2.66.29 1.4.29 2.21v.69h-7.95zm6.53-1.2a4.19 4.19 0 0 0-.81-2.67 2.68 2.68 0 0 0-2.18-.95c-.47 0-.9.09-1.3.25-.4.17-.75.4-1.05.72-.3.3-.55.69-.74 1.13-.2.45-.34.96-.42 1.51h6.5z"/><g transform="translate(1 51)"><path fill="#0C0C0D" d="M37.06 12.75c0 2.95-1.33 4.43-4 4.43-2.54 0-3.81-1.42-3.81-4.26V6.5h1.23v6.34c0 2.15.9 3.23 2.72 3.23 1.75 0 2.63-1.04 2.63-3.12V6.5h1.23v6.25zm2 3.98v-1.29c.66.48 1.38.73 2.17.73 1.05 0 1.58-.36 1.58-1.06 0-.2-.05-.37-.14-.5a1.35 1.35 0 0 0-.36-.38c-.16-.1-.34-.2-.54-.29l-.67-.27a8.63 8.63 0 0 1-.88-.4 2.64 2.64 0 0 1-.63-.45c-.17-.17-.3-.36-.38-.57a2.03 2.03 0 0 1-.13-.76c0-.35.08-.66.24-.93.16-.27.38-.5.65-.68a3 3 0 0 1 .92-.42 4.3 4.3 0 0 1 2.8.2v1.22a3.4 3.4 0 0 0-2.5-.47c-.19.05-.34.13-.47.22a1 1 0 0 0-.3.33.88.88 0 0 0-.1.43c0 .2.03.36.1.49s.17.25.3.35c.15.1.31.2.5.28l.67.27c.34.13.63.26.9.4.26.13.49.28.67.45.19.17.33.36.43.58.1.22.15.48.15.78 0 .37-.08.7-.25.97-.16.27-.38.5-.65.68a3 3 0 0 1-.95.4c-.35.1-.73.14-1.12.14-.77 0-1.44-.15-2-.45zm12.85-3.18h-5.3c.03.84.25 1.48.68 1.93.43.46 1.02.69 1.77.69.85 0 1.63-.28 2.33-.84v1.13c-.66.48-1.53.72-2.61.72-1.06 0-1.9-.34-2.5-1.03-.6-.68-.9-1.64-.9-2.87a4.1 4.1 0 0 1 .99-2.85 3.18 3.18 0 0 1 2.46-1.1c.98 0 1.74.31 2.28.95.54.63.8 1.51.8 2.64v.63zm-1.23-1.02c0-.7-.17-1.23-.5-1.62a1.7 1.7 0 0 0-1.37-.58c-.57 0-1.05.2-1.44.61-.4.4-.64.94-.74 1.6h4.05zm11.07-1.81a1.47 1.47 0 0 0-.9-.25c-.52 0-.95.25-1.3.73a3.35 3.35 0 0 0-.51 1.98V17h-1.2V9.5h1.2v1.55h.03c.17-.53.43-.94.78-1.24.35-.3.75-.44 1.18-.44.31 0 .55.03.72.1v1.25zm7.33 2.83h-5.3c.03.84.25 1.48.68 1.93.43.46 1.02.69 1.77.69.85 0 1.62-.28 2.33-.84v1.13c-.66.48-1.53.72-2.61.72-1.06 0-1.9-.34-2.5-1.03-.6-.68-.9-1.64-.9-2.87a4.1 4.1 0 0 1 .98-2.85A3.18 3.18 0 0 1 66 9.33c.98 0 1.74.31 2.28.95.53.63.8 1.51.8 2.64v.63zm-1.23-1.02c0-.7-.17-1.23-.5-1.62a1.7 1.7 0 0 0-1.37-.58c-.57 0-1.05.2-1.45.61-.4.4-.64.94-.73 1.6h4.05zm8.16 4.13a3.9 3.9 0 0 1-2.05.52 3.4 3.4 0 0 1-2.59-1.05c-.66-.7-.98-1.6-.98-2.7 0-1.24.35-2.23 1.06-2.98a3.72 3.72 0 0 1 2.83-1.13c.66 0 1.24.13 1.74.37v1.23a3.05 3.05 0 0 0-1.78-.59c-.77 0-1.4.28-1.89.83-.49.55-.73 1.27-.73 2.16 0 .88.23 1.58.69 2.08.46.51 1.08.77 1.85.77.66 0 1.27-.22 1.85-.66v1.15zm4.95.52c-1.1 0-2-.35-2.65-1.06a3.9 3.9 0 0 1-1-2.78c0-1.26.35-2.25 1.04-2.95a3.71 3.71 0 0 1 2.79-1.07c1.12 0 1.99.35 2.62 1.04.62.69.94 1.64.94 2.86 0 1.2-.34 2.16-1.02 2.88a3.55 3.55 0 0 1-2.72 1.08zm.09-6.85c-.77 0-1.38.27-1.83.8a3.23 3.23 0 0 0-.68 2.16c0 .9.23 1.6.69 2.1.45.52 1.06.78 1.82.78a2.2 2.2 0 0 0 1.79-.76c.42-.5.63-1.22.63-2.15 0-.93-.21-1.66-.63-2.16a2.19 2.19 0 0 0-1.8-.77zM97.27 17h-1.2v-4.3c0-.84-.13-1.44-.4-1.8-.25-.38-.68-.57-1.28-.57-.52 0-.95.24-1.31.7a2.69 2.69 0 0 0-.54 1.7V17h-1.2v-4.45c0-1.48-.57-2.22-1.7-2.22-.53 0-.97.23-1.31.67a2.74 2.74 0 0 0-.51 1.72V17h-1.2V9.5h1.2v1.19h.03c.53-.91 1.3-1.37 2.33-1.37a2.17 2.17 0 0 1 2.12 1.56 2.68 2.68 0 0 1 2.49-1.56c1.65 0 2.48 1.02 2.48 3.06V17zm12.92 0h-1.2v-4.3c0-.84-.13-1.44-.4-1.8-.25-.38-.68-.57-1.28-.57-.52 0-.95.24-1.31.7a2.69 2.69 0 0 0-.54 1.7V17h-1.2v-4.45c0-1.48-.57-2.22-1.7-2.22-.53 0-.97.23-1.31.67a2.74 2.74 0 0 0-.51 1.72V17h-1.2V9.5h1.2v1.19h.03c.53-.91 1.3-1.37 2.33-1.37a2.17 2.17 0 0 1 2.12 1.56 2.68 2.68 0 0 1 2.49-1.56c1.65 0 2.48 1.02 2.48 3.06V17zm8.3-3.45h-5.3c.02.84.24 1.48.67 1.93.43.46 1.02.69 1.77.69.85 0 1.63-.28 2.33-.84v1.13c-.66.48-1.53.72-2.61.72-1.06 0-1.9-.34-2.5-1.03-.6-.68-.9-1.64-.9-2.87a4.1 4.1 0 0 1 .99-2.85 3.18 3.18 0 0 1 2.46-1.1c.98 0 1.74.31 2.28.95.53.63.8 1.51.8 2.64v.63zm-1.24-1.02c0-.7-.17-1.23-.5-1.62a1.7 1.7 0 0 0-1.37-.58c-.57 0-1.05.2-1.44.61-.4.4-.64.94-.74 1.6h4.05zm9.28 4.47h-1.2v-4.28c0-1.59-.59-2.39-1.75-2.39-.6 0-1.1.23-1.49.68-.4.45-.59 1.02-.59 1.71V17h-1.2V9.5h1.2v1.25h.03a2.7 2.7 0 0 1 2.46-1.43c.82 0 1.45.27 1.88.8.44.53.66 1.3.66 2.3V17zm8.66 0h-1.2v-1.27h-.03a2.77 2.77 0 0 1-2.58 1.45 2.8 2.8 0 0 1-2.26-1.01 4.13 4.13 0 0 1-.84-2.74c0-1.24.3-2.24.93-2.99a3.1 3.1 0 0 1 2.5-1.12c1.03 0 1.78.4 2.25 1.22h.03V5.9h1.2V17zm-1.2-3.4v-1.1c0-.6-.2-1.12-.6-1.54-.4-.42-.91-.63-1.53-.63-.73 0-1.3.27-1.72.81a3.53 3.53 0 0 0-.63 2.23c0 .86.2 1.54.6 2.04.4.5.94.76 1.62.76.67 0 1.22-.25 1.63-.73.42-.48.63-1.1.63-1.83zm9.66-.05h-5.3c.02.84.25 1.48.68 1.93.43.46 1.02.69 1.77.69.85 0 1.62-.28 2.33-.84v1.13c-.66.48-1.53.72-2.62.72-1.05 0-1.89-.34-2.5-1.03-.6-.68-.9-1.64-.9-2.87a4.1 4.1 0 0 1 1-2.85 3.18 3.18 0 0 1 2.46-1.1c.98 0 1.74.31 2.27.95.54.63.8 1.51.8 2.64v.63zm-1.23-1.02c0-.7-.17-1.23-.5-1.62a1.7 1.7 0 0 0-1.38-.58c-.56 0-1.04.2-1.44.61-.4.4-.64.94-.73 1.6h4.05zm9.45 4.47h-1.2v-1.27h-.03a2.77 2.77 0 0 1-2.58 1.45 2.8 2.8 0 0 1-2.26-1.01 4.13 4.13 0 0 1-.85-2.74c0-1.24.32-2.24.94-2.99a3.1 3.1 0 0 1 2.5-1.12c1.03 0 1.78.4 2.25 1.22h.03V5.9h1.2V17zm-1.2-3.4v-1.1c0-.6-.2-1.12-.6-1.54-.4-.42-.91-.63-1.53-.63-.73 0-1.3.27-1.73.81a3.53 3.53 0 0 0-.63 2.23c0 .86.2 1.54.6 2.04.41.5.95.76 1.63.76.67 0 1.21-.25 1.63-.73.42-.48.63-1.1.63-1.83zm8.97 2.32h-.03v4.53h-1.2V9.5h1.2v1.32h.03c.59-1 1.45-1.5 2.6-1.5.96 0 1.71.34 2.25 1.01.55.67.82 1.57.82 2.7 0 1.26-.3 2.26-.92 3.01a3.05 3.05 0 0 1-2.5 1.14 2.5 2.5 0 0 1-2.25-1.26zm-.03-3.03v1.05c0 .62.2 1.14.6 1.58a2 2 0 0 0 1.54.65c.73 0 1.3-.28 1.7-.84.42-.56.63-1.33.63-2.32 0-.84-.2-1.5-.58-1.96-.39-.48-.91-.72-1.57-.72-.7 0-1.26.25-1.68.73-.43.49-.64 1.1-.64 1.83zm13.64.66h-5.3c.03.84.25 1.48.68 1.93.43.46 1.02.69 1.77.69.85 0 1.63-.28 2.33-.84v1.13c-.66.48-1.53.72-2.61.72-1.06 0-1.9-.34-2.5-1.03-.6-.68-.9-1.64-.9-2.87a4.1 4.1 0 0 1 .99-2.85 3.18 3.18 0 0 1 2.46-1.1c.98 0 1.74.31 2.28.95.54.63.8 1.51.8 2.64v.63zm-1.23-1.02c0-.7-.17-1.23-.5-1.62a1.7 1.7 0 0 0-1.37-.58c-.57 0-1.05.2-1.44.61-.4.4-.64.94-.74 1.6h4.05zm6.96-1.81a1.47 1.47 0 0 0-.9-.25c-.52 0-.95.25-1.3.73a3.35 3.35 0 0 0-.5 1.98V17h-1.21V9.5h1.2v1.55h.03c.17-.53.43-.94.78-1.24.36-.3.75-.44 1.18-.44.32 0 .56.03.72.1v1.25zM184 6.95a1.6 1.6 0 0 0-.8-.2c-.84 0-1.26.53-1.26 1.6V9.5h1.76v1.03h-1.76V17h-1.2v-6.47h-1.27V9.5h1.28V8.28c0-.78.23-1.4.68-1.86a2.3 2.3 0 0 1 1.7-.68c.37 0 .66.04.87.13v1.08zm4.12 10.23c-1.1 0-1.99-.35-2.65-1.06a3.9 3.9 0 0 1-1-2.78c0-1.26.35-2.25 1.04-2.95a3.71 3.71 0 0 1 2.8-1.07c1.1 0 1.98.35 2.6 1.04.64.69.95 1.64.95 2.86 0 1.2-.34 2.16-1.01 2.88a3.55 3.55 0 0 1-2.73 1.08zm.1-6.85c-.78 0-1.39.27-1.84.8a3.23 3.23 0 0 0-.67 2.16c0 .9.22 1.6.68 2.1.45.52 1.06.78 1.82.78a2.2 2.2 0 0 0 1.8-.76c.41-.5.62-1.22.62-2.15 0-.93-.2-1.66-.63-2.16a2.19 2.19 0 0 0-1.79-.77zm9.47.39a1.47 1.47 0 0 0-.9-.25c-.52 0-.95.25-1.3.73a3.35 3.35 0 0 0-.51 1.98V17h-1.2V9.5h1.2v1.55h.03c.17-.53.43-.94.78-1.24.35-.3.75-.44 1.18-.44.31 0 .55.03.72.1v1.25zM209.63 17h-1.2v-4.3c0-.84-.13-1.44-.38-1.8-.26-.38-.69-.57-1.3-.57-.5 0-.94.24-1.3.7a2.69 2.69 0 0 0-.54 1.7V17h-1.2v-4.45c0-1.48-.57-2.22-1.7-2.22-.54 0-.97.23-1.31.67a2.74 2.74 0 0 0-.51 1.72V17h-1.2V9.5h1.2v1.19h.02c.54-.91 1.31-1.37 2.33-1.37a2.17 2.17 0 0 1 2.13 1.56 2.68 2.68 0 0 1 2.49-1.56c1.65 0 2.47 1.02 2.47 3.06V17zm7.64 0h-1.2v-1.17h-.03c-.52.9-1.29 1.35-2.3 1.35-.75 0-1.34-.2-1.76-.6-.42-.4-.63-.92-.63-1.57 0-1.4.82-2.22 2.47-2.45l2.25-.31c0-1.28-.51-1.92-1.54-1.92-.9 0-1.72.31-2.45.93v-1.23c.74-.47 1.59-.7 2.55-.7 1.76 0 2.64.93 2.64 2.8V17zm-1.2-3.8l-1.8.26c-.56.07-.98.21-1.27.4-.28.2-.42.56-.42 1.06 0 .37.13.67.39.9.26.23.6.35 1.04.35.6 0 1.1-.21 1.48-.63.39-.42.58-.95.58-1.59v-.74zm9.7 3.8h-1.21v-4.28c0-1.59-.58-2.39-1.74-2.39-.6 0-1.1.23-1.5.68-.39.45-.58 1.02-.58 1.71V17h-1.2V9.5h1.2v1.25h.03a2.7 2.7 0 0 1 2.46-1.43c.82 0 1.44.27 1.88.8.43.53.65 1.3.65 2.3V17zm7.37-.34a3.9 3.9 0 0 1-2.05.52 3.4 3.4 0 0 1-2.6-1.05c-.65-.7-.98-1.6-.98-2.7 0-1.24.36-2.23 1.06-2.98a3.72 3.72 0 0 1 2.84-1.13c.66 0 1.24.13 1.74.37v1.23a3.05 3.05 0 0 0-1.79-.59c-.76 0-1.4.28-1.88.83-.5.55-.74 1.27-.74 2.16 0 .88.23 1.58.7 2.08.46.51 1.07.77 1.85.77.66 0 1.27-.22 1.85-.66v1.15zm7.84-3.11h-5.3c.03.84.25 1.48.68 1.93.43.46 1.02.69 1.77.69.85 0 1.62-.28 2.33-.84v1.13c-.66.48-1.53.72-2.61.72-1.06 0-1.9-.34-2.5-1.03-.6-.68-.91-1.64-.91-2.87a4.1 4.1 0 0 1 1-2.85 3.18 3.18 0 0 1 2.46-1.1c.98 0 1.74.31 2.28.95.53.63.8 1.51.8 2.64v.63zm-1.23-1.02c0-.7-.17-1.23-.5-1.62a1.7 1.7 0 0 0-1.37-.58c-.57 0-1.05.2-1.45.61-.4.4-.64.94-.73 1.6h4.05zm6.7 4.2v-1.29c.66.48 1.38.73 2.16.73 1.06 0 1.58-.36 1.58-1.06 0-.2-.04-.37-.13-.5a1.35 1.35 0 0 0-.37-.38c-.15-.1-.33-.2-.54-.29l-.67-.27a8.63 8.63 0 0 1-.87-.4 2.64 2.64 0 0 1-.63-.45c-.17-.17-.3-.36-.39-.57a2.03 2.03 0 0 1-.12-.76c0-.35.08-.66.24-.93.16-.27.37-.5.64-.68a3 3 0 0 1 .92-.42 4.3 4.3 0 0 1 2.8.2l.01 1.22a3.4 3.4 0 0 0-2.51-.47c-.18.05-.34.13-.47.22a1 1 0 0 0-.3.33.88.88 0 0 0-.1.43c0 .2.03.36.1.49s.18.25.31.35c.14.1.3.2.5.28l.67.27c.33.13.63.26.9.4.26.13.48.28.67.45.18.17.33.36.43.58.1.22.15.48.15.78 0 .37-.09.7-.25.97s-.38.5-.66.68a3 3 0 0 1-.94.4c-.36.1-.73.14-1.12.14-.77 0-1.44-.15-2-.45zm12.85-3.18H254c.02.84.25 1.48.68 1.93.43.46 1.02.69 1.77.69.84 0 1.62-.28 2.33-.84v1.13c-.66.48-1.53.72-2.62.72-1.06 0-1.89-.34-2.5-1.03-.6-.68-.9-1.64-.9-2.87a4.1 4.1 0 0 1 1-2.85 3.18 3.18 0 0 1 2.46-1.1c.98 0 1.74.31 2.27.95.54.63.8 1.51.8 2.64v.63zm-1.23-1.02c0-.7-.17-1.23-.5-1.62a1.7 1.7 0 0 0-1.38-.58c-.56 0-1.04.2-1.44.61-.4.4-.64.94-.73 1.6h4.05zm6.52 4.4c-.28.15-.65.23-1.12.23-1.31 0-1.97-.73-1.97-2.2v-4.43h-1.29V9.5h1.3V7.67l1.2-.39V9.5h1.88v1.03h-1.89v4.22c0 .5.09.86.26 1.08.17.21.46.32.85.32.3 0 .56-.08.78-.25v1.03zm5.09 0c-.29.15-.66.23-1.12.23-1.32 0-1.97-.73-1.97-2.2v-4.43h-1.3V9.5h1.3V7.67l1.2-.39V9.5h1.89v1.03h-1.9v4.22c0 .5.1.86.26 1.08.17.21.46.32.85.32.3 0 .57-.08.79-.25v1.03zm2.22-9.33a.76.76 0 0 1-.78-.78c0-.23.08-.41.23-.56a.75.75 0 0 1 .55-.22.78.78 0 0 1 .79.78c0 .21-.08.4-.23.55a.77.77 0 0 1-.56.23zm.58 9.4h-1.2V9.5h1.2V17zm8.66 0h-1.2v-4.28c0-1.59-.58-2.39-1.74-2.39-.6 0-1.1.23-1.5.68-.39.45-.58 1.02-.58 1.71V17h-1.2V9.5h1.2v1.25h.02a2.7 2.7 0 0 1 2.47-1.43c.82 0 1.44.27 1.88.8.43.53.65 1.3.65 2.3V17zm8.66-.6c0 2.75-1.31 4.13-3.95 4.13-.93 0-1.74-.18-2.43-.53v-1.2a5 5 0 0 0 2.41.7c1.85 0 2.77-.98 2.77-2.94v-.82h-.03a2.8 2.8 0 0 1-2.57 1.44c-.94 0-1.69-.34-2.26-1a4 4 0 0 1-.85-2.69c0-1.27.3-2.29.92-3.04a3.07 3.07 0 0 1 2.52-1.13c1 0 1.76.4 2.24 1.22h.03V9.5h1.2v6.9zm-1.2-2.8v-1.1c0-.6-.2-1.1-.6-1.53-.4-.42-.9-.64-1.5-.64-.75 0-1.33.27-1.75.81-.42.54-.63 1.3-.63 2.27 0 .84.2 1.5.6 2 .4.5.94.76 1.6.76a2.1 2.1 0 0 0 1.65-.72c.42-.48.63-1.1.63-1.84zm3.18 3.13v-1.29c.66.48 1.38.73 2.16.73 1.06 0 1.58-.36 1.58-1.06 0-.2-.04-.37-.13-.5a1.35 1.35 0 0 0-.37-.38c-.15-.1-.33-.2-.54-.29l-.67-.27a8.63 8.63 0 0 1-.87-.4 2.64 2.64 0 0 1-.63-.45c-.17-.17-.3-.36-.39-.57a2.03 2.03 0 0 1-.12-.76c0-.35.08-.66.24-.93.16-.27.37-.5.64-.68a3 3 0 0 1 .92-.42 4.3 4.3 0 0 1 2.8.2l.01 1.22a3.4 3.4 0 0 0-2.51-.47c-.18.05-.34.13-.47.22a1 1 0 0 0-.3.33.88.88 0 0 0-.1.43c0 .2.03.36.1.49s.18.25.31.35c.14.1.3.2.5.28l.67.27c.33.13.63.26.9.4.26.13.48.28.67.45.18.17.32.36.42.58.1.22.15.48.15.78 0 .37-.08.7-.24.97-.16.27-.38.5-.66.68a3 3 0 0 1-.94.4c-.36.1-.73.14-1.12.14-.77 0-1.44-.15-2-.45z"/><path fill="#0A84FF" d="M311.94 17h-5.45V6.5h1.23v9.39h4.22V17zm7.47-3.45h-5.3c.03.84.25 1.48.68 1.93.43.46 1.02.69 1.77.69.85 0 1.63-.28 2.33-.84v1.13c-.66.48-1.53.72-2.61.72-1.06 0-1.9-.34-2.5-1.03-.6-.68-.9-1.64-.9-2.87a4.1 4.1 0 0 1 .98-2.85 3.18 3.18 0 0 1 2.47-1.1c.98 0 1.74.31 2.28.95.53.63.8 1.51.8 2.64v.63zm-1.23-1.02c0-.7-.17-1.23-.5-1.62a1.7 1.7 0 0 0-1.37-.58c-.57 0-1.05.2-1.45.61-.4.4-.63.94-.73 1.6h4.05zM326.6 17h-1.2v-1.17h-.03c-.52.9-1.3 1.35-2.3 1.35-.76 0-1.34-.2-1.76-.6-.43-.4-.64-.92-.64-1.57 0-1.4.83-2.22 2.48-2.45l2.25-.31c0-1.28-.52-1.92-1.55-1.92-.9 0-1.72.31-2.44.93v-1.23c.73-.47 1.58-.7 2.54-.7 1.77 0 2.65.93 2.65 2.8V17zm-1.2-3.8l-1.81.26c-.56.07-.98.21-1.26.4-.29.2-.43.56-.43 1.06 0 .37.13.67.4.9.26.23.6.35 1.04.35.6 0 1.09-.21 1.47-.63.4-.42.59-.95.59-1.59v-.74zm7.37-2.48a1.47 1.47 0 0 0-.9-.25c-.52 0-.95.25-1.3.73a3.35 3.35 0 0 0-.5 1.98V17h-1.2V9.5h1.2v1.55h.02c.17-.53.43-.94.79-1.24.35-.3.74-.44 1.17-.44.32 0 .56.03.72.1v1.25zM340.3 17h-1.2v-4.28c0-1.59-.58-2.39-1.74-2.39-.6 0-1.1.23-1.5.68-.39.45-.58 1.02-.58 1.71V17h-1.2V9.5h1.2v1.25h.03a2.7 2.7 0 0 1 2.46-1.43c.82 0 1.45.27 1.88.8.43.53.65 1.3.65 2.3V17zm17.02 0h-1.2v-4.3c0-.84-.13-1.44-.38-1.8-.26-.38-.69-.57-1.3-.57-.5 0-.94.24-1.3.7a2.69 2.69 0 0 0-.54 1.7V17h-1.2v-4.45c0-1.48-.57-2.22-1.7-2.22-.54 0-.97.23-1.31.67a2.74 2.74 0 0 0-.51 1.72V17h-1.2V9.5h1.2v1.19h.02c.54-.91 1.31-1.37 2.33-1.37a2.17 2.17 0 0 1 2.13 1.56 2.68 2.68 0 0 1 2.49-1.56c1.65 0 2.47 1.02 2.47 3.06V17zm5.4.18c-1.1 0-1.98-.35-2.65-1.06a3.9 3.9 0 0 1-.99-2.78c0-1.26.35-2.25 1.03-2.95a3.71 3.71 0 0 1 2.8-1.07c1.11 0 1.99.35 2.61 1.04.63.69.94 1.64.94 2.86 0 1.2-.33 2.16-1.01 2.88a3.55 3.55 0 0 1-2.72 1.08zm.1-6.85c-.78 0-1.39.27-1.83.8a3.23 3.23 0 0 0-.68 2.16c0 .9.23 1.6.68 2.1.46.52 1.06.78 1.83.78a2.2 2.2 0 0 0 1.79-.76c.41-.5.62-1.22.62-2.15 0-.93-.2-1.66-.62-2.16a2.19 2.19 0 0 0-1.8-.77zm9.47.39a1.47 1.47 0 0 0-.9-.25c-.52 0-.95.25-1.29.73a3.35 3.35 0 0 0-.52 1.98V17h-1.2V9.5h1.2v1.55h.03c.17-.53.44-.94.79-1.24.35-.3.74-.44 1.18-.44.3 0 .55.03.71.1v1.25zm7.34 2.83h-5.3c.02.84.24 1.48.67 1.93.43.46 1.02.69 1.78.69.84 0 1.62-.28 2.33-.84v1.13c-.66.48-1.54.72-2.62.72-1.06 0-1.9-.34-2.5-1.03-.6-.68-.9-1.64-.9-2.87a4.1 4.1 0 0 1 .99-2.85 3.18 3.18 0 0 1 2.46-1.1c.98 0 1.74.31 2.28.95.54.63.8 1.51.8 2.64v.63zm-1.23-1.02c-.01-.7-.18-1.23-.5-1.62a1.7 1.7 0 0 0-1.38-.58c-.57 0-1.05.2-1.44.61-.4.4-.64.94-.74 1.6h4.06z"/><g transform="translate(0 2)"><use fill="#FFFFFF" xlink:href="#a"/><rect width="19" height="19" x=".5" y=".5" stroke="#0C0C0D" stroke-opacity=".3" rx="2"/><g fill="#0A84FF" fill-rule="nonzero" transform="translate(3 3)"><path d="M2.25 6.84a1 1 0 1 0-1.5 1.32l4 4.5a1 1 0 0 0 1.58-.1l7-10.5A1 1 0 1 0 11.67.94l-6.28 9.42-3.14-3.53z"/></g></g></g><path fill="#737373" d="M36.58 91.86h-2.63V100h-1.07v-8.14h-2.62v-.96h6.32v.96zm6.68 8.14h-1.04v-3.75c0-1.35-.5-2.03-1.51-2.03-.5 0-.94.2-1.28.6-.35.38-.52.88-.52 1.5V100h-1.05v-9.62h1.05v4.2h.02a2.36 2.36 0 0 1 2.13-1.23c1.47 0 2.2.88 2.2 2.64V100zm7.19-2.99h-4.6c.02.72.22 1.28.59 1.68.37.39.88.59 1.54.59.73 0 1.4-.24 2.02-.73v.98c-.58.41-1.33.62-2.27.62-.92 0-1.64-.3-2.17-.88a3.62 3.62 0 0 1-.78-2.5c0-1 .28-1.83.86-2.47a2.76 2.76 0 0 1 2.13-.95c.85 0 1.51.27 1.98.82.46.55.7 1.32.7 2.3V97zm-1.07-.88c0-.6-.15-1.07-.44-1.4-.28-.34-.68-.5-1.19-.5-.49 0-.9.17-1.25.52a2.4 2.4 0 0 0-.63 1.38h3.5zm2.25 3.64v-1.12c.56.42 1.19.63 1.87.63.91 0 1.37-.3 1.37-.92a.8.8 0 0 0-.12-.44 1.17 1.17 0 0 0-.31-.32c-.14-.1-.3-.18-.47-.25a30.3 30.3 0 0 0-.59-.23 7.48 7.48 0 0 1-.75-.35 2.3 2.3 0 0 1-.55-.4 1.46 1.46 0 0 1-.33-.49c-.07-.19-.11-.4-.11-.65 0-.3.07-.58.2-.81.15-.24.33-.43.57-.6.23-.15.5-.27.8-.35a3.73 3.73 0 0 1 2.43.17v1.05a2.94 2.94 0 0 0-2.18-.4c-.16.04-.29.1-.4.19a.87.87 0 0 0-.26.29.76.76 0 0 0-.1.37c0 .17.04.3.1.42.06.12.15.22.27.3.12.1.26.18.43.25l.58.23c.28.11.54.23.77.34.23.12.42.25.59.4.16.14.28.31.37.5.08.2.13.42.13.68 0 .32-.07.6-.22.84-.14.24-.33.43-.56.59a2.6 2.6 0 0 1-.82.35c-.31.07-.64.11-.97.11-.67 0-1.25-.13-1.74-.38zM62.76 97h-4.59c.02.72.21 1.28.58 1.68.38.39.89.59 1.54.59.73 0 1.4-.24 2.02-.73v.98c-.57.41-1.33.62-2.27.62-.91 0-1.64-.3-2.16-.88a3.62 3.62 0 0 1-.79-2.5c0-1 .29-1.83.86-2.47a2.76 2.76 0 0 1 2.14-.95c.85 0 1.5.27 1.97.82.47.55.7 1.32.7 2.3V97zm-1.07-.88c0-.6-.15-1.07-.43-1.4-.29-.34-.68-.5-1.2-.5-.48 0-.9.17-1.24.52a2.4 2.4 0 0 0-.64 1.38h3.51zm5.81 3.64v-1.12c.57.42 1.2.63 1.87.63.92 0 1.38-.3 1.38-.92a.8.8 0 0 0-.12-.44 1.17 1.17 0 0 0-.32-.32c-.13-.1-.29-.18-.47-.25a30.3 30.3 0 0 0-.58-.23 7.48 7.48 0 0 1-.76-.35 2.3 2.3 0 0 1-.54-.4 1.46 1.46 0 0 1-.33-.49c-.08-.19-.12-.4-.12-.65 0-.3.07-.58.21-.81.14-.24.33-.43.56-.6.24-.15.5-.27.8-.35a3.73 3.73 0 0 1 2.43.17v1.05a2.94 2.94 0 0 0-2.17-.4c-.16.04-.3.1-.4.19a.87.87 0 0 0-.27.29.76.76 0 0 0-.09.37c0 .17.03.3.1.42.05.12.14.22.26.3.12.1.27.18.43.25l.58.23c.29.11.55.23.78.34.23.12.42.25.58.4.16.14.29.31.37.5.09.2.13.42.13.68 0 .32-.07.6-.21.84-.14.24-.33.43-.57.59a2.6 2.6 0 0 1-.82.35c-.3.07-.63.11-.97.11-.67 0-1.25-.13-1.74-.38zM78.64 97h-4.6c.02.72.22 1.28.59 1.68.37.39.88.59 1.54.59.73 0 1.4-.24 2.02-.73v.98c-.58.41-1.33.62-2.27.62-.92 0-1.64-.3-2.17-.88a3.62 3.62 0 0 1-.78-2.5c0-1 .28-1.83.86-2.47a2.76 2.76 0 0 1 2.13-.95c.85 0 1.51.27 1.98.82.46.55.7 1.32.7 2.3V97zm-1.07-.88c0-.6-.15-1.07-.44-1.4-.28-.34-.68-.5-1.19-.5-.49 0-.9.17-1.25.52a2.4 2.4 0 0 0-.63 1.38h3.5zm5.66 3.8a2 2 0 0 1-.98.21c-1.13 0-1.7-.64-1.7-1.9v-3.85h-1.12v-.89h1.12v-1.59l1.04-.33v1.92h1.64v.89h-1.64v3.66c0 .44.07.75.22.93.15.2.4.28.74.28.26 0 .48-.07.68-.21v.89zm4.4 0a2 2 0 0 1-.97.21c-1.14 0-1.7-.64-1.7-1.9v-3.85h-1.13v-.89h1.12v-1.59l1.04-.33v1.92h1.64v.89h-1.64v3.66c0 .44.08.75.22.93.15.2.4.28.74.28.26 0 .49-.07.68-.21v.89zm1.92-8.08a.66.66 0 0 1-.67-.67c0-.2.07-.36.2-.49s.29-.2.47-.2a.67.67 0 0 1 .69.69c0 .18-.07.34-.2.47-.13.13-.3.2-.49.2zm.51 8.15h-1.04v-6.5h1.04v6.5zm7.5 0h-1.04v-3.7c0-1.39-.5-2.08-1.5-2.08-.53 0-.96.2-1.3.6-.34.38-.51.88-.51 1.47V100h-1.04v-6.5h1.04v1.08h.03c.49-.82 1.2-1.23 2.13-1.23.7 0 1.25.23 1.63.69.38.46.56 1.12.56 1.99V100zm7.51-.52c0 2.39-1.14 3.58-3.42 3.58-.8 0-1.51-.15-2.11-.46v-1.04c.73.4 1.43.61 2.1.61 1.6 0 2.4-.85 2.4-2.55v-.71H104a2.43 2.43 0 0 1-2.24 1.24c-.8 0-1.46-.29-1.95-.86a3.46 3.46 0 0 1-.74-2.33c0-1.1.27-1.98.8-2.63a2.66 2.66 0 0 1 2.18-.98c.87 0 1.52.35 1.95 1.05h.02v-.9h1.04v5.98zm-1.04-2.42v-.96c0-.51-.17-.96-.52-1.32a1.72 1.72 0 0 0-1.3-.56 1.8 1.8 0 0 0-1.52.7 3.13 3.13 0 0 0-.54 1.97c0 .72.17 1.3.52 1.74.35.43.81.65 1.39.65.58 0 1.06-.21 1.42-.63.37-.41.55-.94.55-1.59zm2.76 2.7v-1.11c.56.42 1.19.63 1.87.63.91 0 1.37-.3 1.37-.92a.8.8 0 0 0-.12-.44 1.17 1.17 0 0 0-.31-.32c-.14-.1-.3-.18-.47-.25a30.3 30.3 0 0 0-.58-.23 7.48 7.48 0 0 1-.76-.35 2.3 2.3 0 0 1-.55-.4 1.46 1.46 0 0 1-.33-.49c-.07-.19-.11-.4-.11-.65 0-.3.07-.58.21-.81.14-.24.33-.43.56-.6.23-.15.5-.27.8-.35a3.73 3.73 0 0 1 2.43.17v1.05a2.94 2.94 0 0 0-2.18-.4c-.15.04-.29.1-.4.19a.87.87 0 0 0-.26.29.76.76 0 0 0-.1.37c0 .17.04.3.1.42.06.12.15.22.27.3.12.1.26.18.43.25l.58.23c.29.11.54.23.77.34.23.12.43.25.59.4.16.14.28.31.37.5.08.2.13.42.13.68 0 .32-.07.6-.21.84-.15.24-.34.43-.57.59a2.6 2.6 0 0 1-.82.35c-.31.07-.63.11-.97.11-.67 0-1.25-.13-1.74-.38zm14.12.24h-1.04v-1.02h-.03a2.18 2.18 0 0 1-2 1.17c-.64 0-1.15-.17-1.52-.51-.36-.34-.54-.8-.54-1.37 0-1.21.71-1.92 2.14-2.12l1.95-.27c0-1.1-.45-1.66-1.34-1.66a3.2 3.2 0 0 0-2.12.8v-1.06c.64-.4 1.38-.61 2.21-.61 1.53 0 2.3.8 2.3 2.42V100zm-1.04-3.29l-1.57.22c-.48.07-.84.18-1.09.36-.24.17-.37.47-.37.9a1 1 0 0 0 .34.78c.23.2.53.3.9.3.52 0 .95-.17 1.29-.54.33-.36.5-.82.5-1.37v-.65zm6.4-2.16c-.19-.14-.45-.2-.8-.2-.44 0-.81.2-1.1.62-.3.42-.46 1-.46 1.72V100h-1.04v-6.5h1.04v1.34h.03c.15-.46.37-.81.68-1.07.3-.26.64-.38 1.02-.38.27 0 .48.03.62.08v1.08zm6.35 2.46h-4.6c.02.72.22 1.28.6 1.68.36.39.88.59 1.53.59.73 0 1.4-.24 2.02-.73v.98c-.58.41-1.33.62-2.27.62-.92 0-1.64-.3-2.17-.88a3.62 3.62 0 0 1-.78-2.5c0-1 .28-1.83.86-2.47a2.76 2.76 0 0 1 2.13-.95c.85 0 1.51.27 1.98.82.46.55.7 1.32.7 2.3V97zm-1.07-.88c0-.6-.15-1.07-.44-1.4-.28-.34-.68-.5-1.19-.5-.49 0-.9.17-1.25.52a2.4 2.4 0 0 0-.63 1.38h3.51zm9.22 3.8a2 2 0 0 1-.97.21c-1.14 0-1.71-.64-1.71-1.9v-3.85h-1.12v-.89h1.12v-1.59l1.04-.33v1.92h1.64v.89h-1.64v3.66c0 .44.07.75.22.93.15.2.4.28.74.28.26 0 .49-.07.68-.21v.89zm6.04.07h-1.04v-1.02h-.03a2.18 2.18 0 0 1-2 1.17c-.64 0-1.15-.17-1.52-.51-.36-.34-.55-.8-.55-1.37 0-1.21.72-1.92 2.15-2.12l1.95-.27c0-1.1-.45-1.66-1.34-1.66a3.2 3.2 0 0 0-2.12.8v-1.06c.64-.4 1.37-.61 2.2-.61 1.54 0 2.3.8 2.3 2.42V100zm-1.04-3.29l-1.57.22c-.48.07-.85.18-1.1.36-.24.17-.36.47-.36.9a1 1 0 0 0 .34.78c.23.2.53.3.9.3.52 0 .95-.17 1.28-.54.34-.36.5-.82.5-1.37v-.65zm3.53-4.86a.66.66 0 0 1-.67-.67c0-.2.07-.36.2-.49s.29-.2.47-.2a.67.67 0 0 1 .69.69c0 .18-.07.34-.2.47-.13.13-.3.2-.49.2zm.51 8.15h-1.04v-6.5h1.04v6.5zm3.15 0h-1.04v-9.62h1.04V100zm4.82.15c-.96 0-1.72-.3-2.3-.9a3.37 3.37 0 0 1-.86-2.42c0-1.1.3-1.95.9-2.56.6-.62 1.4-.92 2.42-.92.97 0 1.72.3 2.27.9.54.59.81 1.42.81 2.47a3.5 3.5 0 0 1-.88 2.5c-.58.62-1.37.93-2.36.93zm.08-5.93c-.67 0-1.2.23-1.59.69a2.8 2.8 0 0 0-.58 1.88c0 .77.2 1.38.59 1.82a2 2 0 0 0 1.58.67 1.9 1.9 0 0 0 1.55-.66c.36-.43.55-1.05.55-1.86s-.19-1.44-.55-1.88a1.9 1.9 0 0 0-1.55-.66zm8.21.33c-.18-.14-.44-.2-.78-.2-.45 0-.82.2-1.12.62-.3.42-.44 1-.44 1.72V100h-1.04v-6.5h1.04v1.34h.02c.15-.46.38-.81.68-1.07.3-.26.65-.38 1.02-.38.27 0 .48.03.62.08v1.08zm6.36 2.46h-4.6c.03.72.22 1.28.6 1.68.37.39.88.59 1.53.59.73 0 1.4-.24 2.02-.73v.98c-.57.41-1.33.62-2.27.62-.92 0-1.64-.3-2.16-.88a3.62 3.62 0 0 1-.79-2.5c0-1 .29-1.83.86-2.47a2.76 2.76 0 0 1 2.14-.95c.85 0 1.5.27 1.97.82.47.55.7 1.32.7 2.3V97zm-1.07-.88c0-.6-.15-1.07-.43-1.4-.29-.34-.68-.5-1.2-.5-.48 0-.9.17-1.24.52a2.4 2.4 0 0 0-.64 1.38h3.51zm8.2 3.87h-1.05v-1.1h-.03a2.4 2.4 0 0 1-2.23 1.25c-.82 0-1.47-.29-1.96-.87a3.58 3.58 0 0 1-.73-2.38c0-1.07.27-1.93.81-2.58a2.68 2.68 0 0 1 2.17-.97c.89 0 1.54.35 1.94 1.05h.03v-4.02h1.04V100zm-1.05-2.94v-.96c0-.52-.17-.97-.52-1.33a1.75 1.75 0 0 0-1.32-.55 1.8 1.8 0 0 0-1.5.7c-.36.47-.54 1.11-.54 1.93 0 .75.17 1.34.52 1.78.35.43.82.65 1.4.65s1.06-.21 1.42-.63c.36-.42.54-.95.54-1.59zm9.72 2.88a2 2 0 0 1-.97.2c-1.14 0-1.7-.64-1.7-1.9v-3.85h-1.12v-.89h1.12v-1.59l1.04-.33v1.92h1.63v.89h-1.63v3.66c0 .44.07.75.22.93.15.2.4.28.74.28.26 0 .48-.07.67-.21v.89zm4.11.21c-.96 0-1.73-.3-2.3-.9a3.37 3.37 0 0 1-.86-2.42c0-1.1.3-1.95.9-2.56.6-.62 1.4-.92 2.41-.92.97 0 1.73.3 2.27.9.55.59.82 1.42.82 2.47a3.5 3.5 0 0 1-.88 2.5c-.59.62-1.37.93-2.36.93zm.08-5.93c-.67 0-1.2.23-1.59.69a2.8 2.8 0 0 0-.58 1.88c0 .77.2 1.38.59 1.82a2 2 0 0 0 1.58.67 1.9 1.9 0 0 0 1.55-.66c.36-.43.54-1.05.54-1.86s-.18-1.44-.54-1.88a1.9 1.9 0 0 0-1.55-.66zm13.56-.72l-3 7.54c-.53 1.35-1.28 2.02-2.24 2.02-.27 0-.5-.03-.68-.08v-.94c.22.08.43.12.62.12.52 0 .91-.31 1.18-.94l.52-1.23-2.54-6.49h1.15l1.76 5 .13.5h.04l.13-.49 1.85-5.01h1.08zm3.83 6.65c-.96 0-1.73-.3-2.3-.9a3.37 3.37 0 0 1-.86-2.42c0-1.1.3-1.95.9-2.56.6-.62 1.4-.92 2.41-.92.97 0 1.73.3 2.27.9.55.59.82 1.42.82 2.47a3.5 3.5 0 0 1-.88 2.5c-.59.62-1.37.93-2.36.93zm.08-5.93c-.67 0-1.2.23-1.6.69a2.8 2.8 0 0 0-.57 1.88c0 .77.2 1.38.59 1.82a2 2 0 0 0 1.58.67 1.9 1.9 0 0 0 1.55-.66c.36-.43.54-1.05.54-1.86s-.18-1.44-.54-1.88a1.9 1.9 0 0 0-1.55-.66zm10.08 5.78h-1.04v-1.03h-.03a2.14 2.14 0 0 1-2 1.18c-1.55 0-2.33-.92-2.33-2.77V93.5h1.04v3.72c0 1.37.52 2.06 1.57 2.06.5 0 .93-.2 1.25-.57.33-.37.5-.86.5-1.46V93.5h1.04v6.5zm5.49-5.45c-.18-.14-.45-.2-.79-.2-.44 0-.82.2-1.11.62-.3.42-.45 1-.45 1.72V100h-1.04v-6.5h1.04v1.34h.02c.15-.46.38-.81.68-1.07.3-.26.65-.38 1.02-.38.28 0 .48.03.63.08v1.08zm9.12 5.15c-.5.3-1.1.45-1.78.45-.93 0-1.67-.3-2.24-.9a3.28 3.28 0 0 1-.86-2.35c0-1.07.31-1.93.92-2.58a3.22 3.22 0 0 1 2.46-.97c.57 0 1.08.1 1.51.32v1.06c-.48-.34-1-.5-1.55-.5-.66 0-1.2.23-1.63.7-.43.48-.64 1.1-.64 1.88 0 .77.2 1.37.6 1.8.4.45.94.67 1.6.67.58 0 1.1-.2 1.6-.57v1zm4.29.45c-.96 0-1.73-.3-2.3-.9a3.37 3.37 0 0 1-.86-2.42c0-1.1.3-1.95.9-2.56.59-.62 1.4-.92 2.41-.92.97 0 1.73.3 2.27.9.55.59.82 1.42.82 2.47a3.5 3.5 0 0 1-.88 2.5c-.59.62-1.37.93-2.36.93zm.08-5.93c-.67 0-1.2.23-1.6.69a2.8 2.8 0 0 0-.58 1.88c0 .77.2 1.38.6 1.82a2 2 0 0 0 1.58.67 1.9 1.9 0 0 0 1.55-.66c.36-.43.54-1.05.54-1.86s-.18-1.44-.54-1.88a1.9 1.9 0 0 0-1.55-.66zM253 100h-1.04v-3.73c0-.72-.11-1.24-.33-1.56-.23-.33-.6-.49-1.13-.49-.44 0-.82.2-1.13.61-.3.4-.46.9-.46 1.46V100h-1.05v-3.86c0-1.28-.49-1.92-1.47-1.92-.46 0-.84.2-1.13.58-.3.38-.45.88-.45 1.5v3.7h-1.04v-6.5h1.04v1.03h.03a2.2 2.2 0 0 1 2.01-1.18 1.88 1.88 0 0 1 1.85 1.34c.48-.9 1.2-1.34 2.15-1.34 1.43 0 2.15.88 2.15 2.64V100zm3.03-.94h-.02V103h-1.04V93.5H256v1.14h.02a2.46 2.46 0 0 1 2.25-1.3c.84 0 1.5.3 1.96.88.47.58.7 1.36.7 2.34 0 1.09-.26 1.96-.79 2.61-.53.66-1.25.98-2.17.98-.84 0-1.49-.36-1.95-1.09zm-.02-2.62v.9c0 .54.17 1 .52 1.37.35.38.8.57 1.33.57.63 0 1.13-.24 1.48-.73.36-.48.54-1.15.54-2 0-.73-.17-1.3-.5-1.71a1.66 1.66 0 0 0-1.36-.62c-.6 0-1.1.21-1.46.64-.37.42-.55.94-.55 1.58zm11.86 3.56h-1.05v-1.03h-.02a2.14 2.14 0 0 1-2 1.18c-1.56 0-2.33-.92-2.33-2.77V93.5h1.03v3.72c0 1.37.53 2.06 1.58 2.06.5 0 .92-.2 1.25-.57.33-.37.5-.86.5-1.46V93.5h1.04v6.5zm5.11-.06a2 2 0 0 1-.97.2c-1.14 0-1.7-.64-1.7-1.9v-3.85h-1.12v-.89h1.11v-1.59l1.04-.33v1.92h1.64v.89h-1.64v3.66c0 .44.08.75.23.93.14.2.39.28.73.28.27 0 .5-.07.68-.21v.89zM279.6 97H275c.02.72.22 1.28.6 1.68.36.39.88.59 1.53.59.73 0 1.4-.24 2.02-.73v.98c-.58.41-1.33.62-2.27.62-.92 0-1.64-.3-2.17-.88a3.62 3.62 0 0 1-.78-2.5c0-1 .28-1.83.86-2.47a2.76 2.76 0 0 1 2.13-.95c.85 0 1.51.27 1.98.82.46.55.7 1.32.7 2.3V97zm-1.07-.88c0-.6-.15-1.07-.44-1.4-.28-.34-.68-.5-1.19-.5-.49 0-.9.17-1.25.52a2.4 2.4 0 0 0-.63 1.38h3.51zm6.03-1.58c-.18-.14-.44-.2-.79-.2-.44 0-.81.2-1.11.62-.3.42-.45 1-.45 1.72V100h-1.04v-6.5h1.04v1.34h.03c.14-.46.37-.81.68-1.07.3-.26.64-.38 1.02-.38.27 0 .48.03.62.08v1.08zm2.13-3.65l-.2 2.83h-.72l-.2-2.83h1.12zm1.6 8.87v-1.12c.56.42 1.19.63 1.87.63.91 0 1.37-.3 1.37-.92a.8.8 0 0 0-.12-.44 1.17 1.17 0 0 0-.32-.32c-.13-.1-.28-.18-.46-.25l-.59-.23a7.48 7.48 0 0 1-.75-.35 2.3 2.3 0 0 1-.55-.4 1.46 1.46 0 0 1-.33-.49c-.07-.19-.11-.4-.11-.65 0-.3.07-.58.2-.81.15-.24.33-.43.57-.6.23-.15.5-.27.8-.35a3.73 3.73 0 0 1 2.43.17v1.05a2.94 2.94 0 0 0-2.18-.4c-.16.04-.29.1-.4.19a.87.87 0 0 0-.26.29.76.76 0 0 0-.1.37c0 .17.04.3.1.42.06.12.15.22.27.3.12.1.26.18.43.25l.58.23c.28.11.54.23.77.34.23.12.42.25.58.4.17.14.29.31.38.5.08.2.13.42.13.68 0 .32-.07.6-.22.84-.14.24-.33.43-.56.59a2.6 2.6 0 0 1-.82.35c-.31.07-.64.11-.97.11-.67 0-1.25-.13-1.74-.38zm14.86.23h-1.04v-3.75c0-1.35-.5-2.03-1.5-2.03-.52 0-.94.2-1.3.6-.34.38-.51.88-.51 1.5V100h-1.04v-9.62h1.04v4.2h.02a2.36 2.36 0 0 1 2.14-1.23c1.46 0 2.2.88 2.2 2.64V100zm6.62 0h-1.04v-1.02h-.03a2.18 2.18 0 0 1-2 1.17c-.65 0-1.15-.17-1.52-.51-.37-.34-.55-.8-.55-1.37 0-1.21.72-1.92 2.15-2.12l1.95-.27c0-1.1-.45-1.66-1.34-1.66a3.2 3.2 0 0 0-2.12.8v-1.06c.64-.4 1.37-.61 2.2-.61 1.53 0 2.3.8 2.3 2.42V100zm-1.04-3.29l-1.57.22c-.48.07-.85.18-1.1.36-.24.17-.36.47-.36.9a1 1 0 0 0 .34.78c.22.2.53.3.9.3.52 0 .94-.17 1.28-.54.34-.36.5-.82.5-1.37v-.65zm6.39-2.16c-.18-.14-.45-.2-.79-.2-.44 0-.82.2-1.11.62-.3.42-.45 1-.45 1.72V100h-1.04v-6.5h1.04v1.34h.02c.15-.46.38-.81.68-1.07.3-.26.65-.38 1.03-.38.27 0 .47.03.62.08v1.08zm6.68 5.45h-1.05v-1.1h-.02a2.4 2.4 0 0 1-2.24 1.25c-.81 0-1.46-.29-1.95-.87a3.58 3.58 0 0 1-.74-2.38c0-1.07.27-1.93.82-2.58a2.68 2.68 0 0 1 2.16-.97c.9 0 1.54.35 1.95 1.05h.02v-4.02h1.05V100zm-1.05-2.94v-.96c0-.52-.17-.97-.52-1.33a1.75 1.75 0 0 0-1.32-.55 1.8 1.8 0 0 0-1.5.7c-.36.47-.54 1.11-.54 1.93 0 .75.17 1.34.52 1.78.35.43.82.65 1.4.65.59 0 1.06-.21 1.42-.63.36-.42.54-.95.54-1.59zm11.34-3.56l-1.95 6.5h-1.08l-1.34-4.65a3.03 3.03 0 0 1-.1-.6h-.02c-.02.15-.06.34-.14.58l-1.45 4.67h-1.04L323 93.5h1.1l1.34 4.89c.04.15.07.34.09.58h.05c.01-.18.05-.38.11-.6l1.5-4.87h.95l1.35 4.9c.04.16.07.35.1.58h.04c.01-.16.05-.36.11-.58l1.32-4.9h1.03zm5.86 6.5h-1.04v-1.02h-.03a2.18 2.18 0 0 1-2 1.17c-.64 0-1.15-.17-1.52-.51-.36-.34-.55-.8-.55-1.37 0-1.21.72-1.92 2.15-2.12l1.95-.27c0-1.1-.45-1.66-1.34-1.66a3.2 3.2 0 0 0-2.12.8v-1.06c.64-.4 1.38-.61 2.2-.61 1.54 0 2.3.8 2.3 2.42V100zm-1.04-3.29l-1.57.22c-.48.07-.85.18-1.09.36-.25.17-.37.47-.37.9a1 1 0 0 0 .34.78c.23.2.53.3.9.3.52 0 .95-.17 1.28-.54.34-.36.5-.82.5-1.37v-.65zm6.4-2.16c-.2-.14-.45-.2-.8-.2-.44 0-.81.2-1.11.62-.3.42-.45 1-.45 1.72V100h-1.04v-6.5h1.04v1.34h.03c.15-.46.37-.81.68-1.07.3-.26.64-.38 1.02-.38.27 0 .48.03.62.08v1.08zm6.35 2.46h-4.6c.02.72.22 1.28.59 1.68.37.39.88.59 1.54.59.73 0 1.4-.24 2.01-.73v.98c-.57.41-1.32.62-2.26.62-.92 0-1.64-.3-2.17-.88a3.62 3.62 0 0 1-.78-2.5c0-1 .28-1.83.86-2.47a2.76 2.76 0 0 1 2.13-.95c.85 0 1.51.27 1.98.82.46.55.7 1.32.7 2.3V97zm-1.07-.88c0-.6-.15-1.07-.44-1.4-.28-.34-.68-.5-1.19-.5-.49 0-.9.17-1.25.52a2.4 2.4 0 0 0-.63 1.38h3.5zm10.85 3.87h-1.04v-1.02h-.02a2.18 2.18 0 0 1-2 1.17c-.65 0-1.16-.17-1.52-.51-.37-.34-.55-.8-.55-1.37 0-1.21.71-1.92 2.14-2.12l1.95-.27c0-1.1-.44-1.66-1.34-1.66a3.2 3.2 0 0 0-2.12.8v-1.06c.64-.4 1.38-.61 2.21-.61 1.53 0 2.3.8 2.3 2.42V100zm-1.04-3.29l-1.57.22c-.48.07-.84.18-1.09.36-.24.17-.37.47-.37.9a1 1 0 0 0 .34.78c.23.2.53.3.9.3.52 0 .95-.17 1.29-.54.33-.36.5-.82.5-1.37v-.65zm8.4 3.29h-1.04v-3.7c0-1.39-.5-2.08-1.51-2.08-.52 0-.95.2-1.3.6-.33.38-.5.88-.5 1.47V100h-1.05v-6.5h1.05v1.08h.02c.5-.82 1.2-1.23 2.13-1.23.71 0 1.26.23 1.64.69.37.46.56 1.12.56 1.99V100zm7.51 0h-1.04v-1.1h-.03a2.4 2.4 0 0 1-2.23 1.25c-.82 0-1.47-.29-1.96-.87a3.58 3.58 0 0 1-.73-2.38c0-1.07.27-1.93.81-2.58a2.68 2.68 0 0 1 2.16-.97c.9 0 1.55.35 1.95 1.05h.03v-4.02h1.04V100zm-1.04-2.94v-.96c0-.52-.17-.97-.52-1.33a1.75 1.75 0 0 0-1.32-.55 1.8 1.8 0 0 0-1.5.7c-.36.47-.55 1.11-.55 1.93 0 .75.18 1.34.53 1.78.35.43.82.65 1.4.65s1.05-.21 1.42-.63c.36-.42.54-.95.54-1.59zm9.42 3.1c-.96 0-1.72-.31-2.3-.92a3.37 3.37 0 0 1-.86-2.41c0-1.1.3-1.95.9-2.56.6-.62 1.4-.92 2.42-.92.97 0 1.72.3 2.27.9.54.59.81 1.42.81 2.47a3.5 3.5 0 0 1-.88 2.5c-.58.62-1.37.93-2.36.93zm.08-5.94c-.67 0-1.2.23-1.59.69a2.8 2.8 0 0 0-.58 1.88c0 .77.2 1.38.59 1.82a2 2 0 0 0 1.58.67 1.9 1.9 0 0 0 1.55-.66c.36-.43.55-1.05.55-1.86s-.19-1.44-.55-1.88a1.9 1.9 0 0 0-1.55-.66zm5.9 4.84h-.03V103h-1.04V93.5h1.04v1.14h.02a2.46 2.46 0 0 1 2.25-1.3c.84 0 1.49.3 1.96.88.47.58.7 1.36.7 2.34 0 1.09-.26 1.96-.79 2.61-.53.66-1.25.98-2.17.98-.84 0-1.5-.36-1.95-1.09zm-.03-2.62v.9c0 .54.17 1 .52 1.37.35.38.8.57 1.33.57.63 0 1.12-.24 1.48-.73.36-.48.54-1.15.54-2 0-.73-.17-1.3-.5-1.71a1.66 1.66 0 0 0-1.36-.62c-.6 0-1.1.21-1.46.64-.37.42-.55.94-.55 1.58zm11.82.57h-4.59c.02.72.21 1.28.59 1.68.37.39.88.59 1.53.59.73 0 1.4-.24 2.02-.73v.98c-.57.41-1.33.62-2.26.62-.92 0-1.64-.3-2.17-.88a3.62 3.62 0 0 1-.79-2.5c0-1 .29-1.83.86-2.47a2.76 2.76 0 0 1 2.14-.95c.85 0 1.5.27 1.97.82.47.55.7 1.32.7 2.3V97zm-1.06-.88c0-.6-.15-1.07-.44-1.4-.28-.34-.68-.5-1.19-.5-.49 0-.9.17-1.25.52a2.4 2.4 0 0 0-.63 1.38h3.5zm6.03-1.58c-.19-.14-.45-.2-.8-.2-.44 0-.8.2-1.1.62-.3.42-.45 1-.45 1.72V100h-1.04v-6.5h1.04v1.34h.02c.15-.46.38-.81.68-1.07.3-.26.65-.38 1.02-.38.27 0 .48.03.63.08v1.08zm5.78 5.45h-1.04v-1.02h-.03a2.18 2.18 0 0 1-2 1.17c-.64 0-1.15-.17-1.52-.51-.36-.34-.55-.8-.55-1.37 0-1.21.72-1.92 2.15-2.12l1.95-.27c0-1.1-.45-1.66-1.34-1.66a3.2 3.2 0 0 0-2.12.8v-1.06c.64-.4 1.37-.61 2.2-.61 1.53 0 2.3.8 2.3 2.42V100zm-1.04-3.29l-1.57.22c-.48.07-.85.18-1.1.36-.24.17-.36.47-.36.9a1 1 0 0 0 .34.78c.23.2.53.3.9.3.52 0 .95-.17 1.28-.54.34-.36.5-.82.5-1.37v-.65zm6.02 3.23a2 2 0 0 1-.98.2c-1.13 0-1.7-.64-1.7-1.9v-3.85h-1.12v-.89h1.12v-1.59l1.04-.33v1.92h1.64v.89h-1.64v3.66c0 .44.07.75.22.93.15.2.4.28.74.28.26 0 .48-.07.68-.21v.89zm1.92-8.09a.66.66 0 0 1-.67-.67c0-.2.06-.36.2-.49.12-.13.28-.2.47-.2a.67.67 0 0 1 .68.69c0 .18-.06.34-.2.47-.13.13-.3.2-.48.2zm.5 8.15h-1.03v-6.5h1.04v6.5zm7.5 0h-1.03v-3.7c0-1.39-.5-2.08-1.51-2.08-.52 0-.95.2-1.3.6-.34.38-.5.88-.5 1.47V100h-1.05v-6.5h1.04v1.08h.03c.5-.82 1.2-1.23 2.13-1.23.71 0 1.26.23 1.63.69.38.46.57 1.12.57 1.99V100zm7.52-.52c0 2.39-1.14 3.58-3.43 3.58-.8 0-1.5-.15-2.1-.46v-1.04c.73.4 1.42.61 2.09.61 1.6 0 2.4-.85 2.4-2.55v-.71h-.03a2.43 2.43 0 0 1-2.23 1.24c-.81 0-1.46-.29-1.95-.86a3.46 3.46 0 0 1-.74-2.33c0-1.1.26-1.98.8-2.63a2.66 2.66 0 0 1 2.17-.98c.88 0 1.53.35 1.95 1.05h.03v-.9h1.04v5.98zm-1.04-2.42v-.96c0-.51-.18-.96-.53-1.32a1.72 1.72 0 0 0-1.3-.56 1.8 1.8 0 0 0-1.51.7 3.13 3.13 0 0 0-.55 1.97c0 .72.18 1.3.53 1.74.35.43.8.65 1.38.65.59 0 1.06-.21 1.43-.63.36-.41.55-.94.55-1.59zm6.31 2.7v-1.11c.57.42 1.2.63 1.88.63.91 0 1.37-.3 1.37-.92a.8.8 0 0 0-.12-.44 1.17 1.17 0 0 0-.32-.32c-.13-.1-.29-.18-.47-.25l-.58-.23a7.48 7.48 0 0 1-.76-.35 2.3 2.3 0 0 1-.54-.4 1.46 1.46 0 0 1-.33-.49c-.08-.19-.11-.4-.11-.65 0-.3.07-.58.2-.81.15-.24.33-.43.56-.6.24-.15.5-.27.8-.35a3.73 3.73 0 0 1 2.43.17v1.05a2.94 2.94 0 0 0-2.17-.4c-.16.04-.3.1-.4.19a.87.87 0 0 0-.27.29.76.76 0 0 0-.09.37c0 .17.03.3.1.42.06.12.15.22.26.3.12.1.27.18.44.25l.57.23c.3.11.55.23.78.34.23.12.42.25.58.4.16.14.29.31.37.5.09.2.13.42.13.68 0 .32-.07.6-.2.84-.15.24-.34.43-.58.59a2.6 2.6 0 0 1-.82.35c-.3.07-.63.11-.97.11-.67 0-1.25-.13-1.74-.38zM450 93.5l-3 7.54c-.53 1.35-1.28 2.02-2.24 2.02-.27 0-.5-.03-.68-.08v-.94c.22.08.43.12.62.12.52 0 .91-.31 1.18-.94l.52-1.23-2.54-6.49H445l1.76 5 .14.5h.03l.13-.49 1.85-5.01h1.08zm.72 6.27v-1.12c.57.42 1.2.63 1.87.63.92 0 1.37-.3 1.37-.92a.8.8 0 0 0-.11-.44 1.17 1.17 0 0 0-.32-.32c-.13-.1-.3-.18-.47-.25a30.3 30.3 0 0 0-.58-.23 7.48 7.48 0 0 1-.76-.35 2.3 2.3 0 0 1-.55-.4 1.46 1.46 0 0 1-.33-.49c-.07-.19-.1-.4-.1-.65 0-.3.06-.58.2-.81.14-.24.33-.43.56-.6.23-.15.5-.27.8-.35a3.73 3.73 0 0 1 2.43.17v1.05a2.94 2.94 0 0 0-2.18-.4c-.15.04-.29.1-.4.19a.87.87 0 0 0-.26.29.76.76 0 0 0-.1.37c0 .17.04.3.1.42.06.12.15.22.27.3.12.1.26.18.43.25l.58.23c.29.11.55.23.77.34.23.12.43.25.59.4.16.14.28.31.37.5.09.2.13.42.13.68 0 .32-.07.6-.21.84-.14.24-.33.43-.57.59a2.6 2.6 0 0 1-.82.35c-.3.07-.63.11-.97.11-.67 0-1.25-.13-1.74-.38zm8.92.17a2 2 0 0 1-.97.2c-1.13 0-1.7-.64-1.7-1.9v-3.85h-1.12v-.89h1.12v-1.59l1.04-.33v1.92h1.63v.89H458v3.66c0 .44.07.75.22.93.15.2.4.28.74.28.26 0 .48-.07.67-.21v.89zm6.62-2.93h-4.59c.02.72.21 1.28.58 1.68.38.39.89.59 1.54.59.73 0 1.4-.24 2.02-.73v.98c-.57.41-1.33.62-2.27.62-.92 0-1.64-.3-2.16-.88a3.62 3.62 0 0 1-.79-2.5c0-1 .29-1.83.86-2.47a2.76 2.76 0 0 1 2.14-.95c.85 0 1.5.27 1.97.82.47.55.7 1.32.7 2.3V97zm-1.07-.88c0-.6-.15-1.07-.43-1.4-.29-.34-.68-.5-1.2-.5-.48 0-.9.17-1.24.52a2.4 2.4 0 0 0-.64 1.38h3.51zm11.87 3.87h-1.04v-3.73c0-.72-.1-1.24-.33-1.56-.22-.33-.6-.49-1.12-.49-.45 0-.82.2-1.13.61-.32.4-.47.9-.47 1.46V100h-1.04v-3.86c0-1.28-.5-1.92-1.48-1.92-.46 0-.84.2-1.13.58-.3.38-.45.88-.45 1.5v3.7h-1.04v-6.5h1.04v1.03h.03a2.2 2.2 0 0 1 2.02-1.18 1.88 1.88 0 0 1 1.84 1.34c.48-.9 1.2-1.34 2.16-1.34 1.43 0 2.14.88 2.14 2.64V100zm2.33.14a.67.67 0 0 1-.5-.21.69.69 0 0 1-.2-.5c0-.2.07-.36.2-.5.14-.15.3-.22.5-.22s.37.07.51.21c.14.15.21.31.21.5 0 .2-.07.37-.21.51a.7.7 0 0 1-.5.21z"/></g><g fill="#ED00B5" transform="translate(22 126)"><path d="M4.1 11H3.06V3.63H.48v-.9h6.23l-.11.9H4.1V11zm6.74-9.08c.14.13.2.3.2.51 0 .21-.06.38-.2.51a.74.74 0 0 1-.54.2.7.7 0 0 1-.52-.2.69.69 0 0 1-.2-.5c0-.22.07-.39.2-.52a.7.7 0 0 1 .52-.2c.22 0 .4.07.54.2zm.26 8.28h1.78v.8H8.15v-.8h1.95V5.48H8.2v-.8h2.9v5.52zm7.74.81c-.3.08-.61.12-.92.12a2.2 2.2 0 0 1-1.56-.52c-.37-.35-.56-.8-.56-1.37V5.47h-1.45v-.8h1.45V3.26l1-.12v1.55H19l-.13.79h-2.06v3.75c0 .36.1.63.29.8.19.18.5.27.92.27.43 0 .84-.1 1.21-.3l.4.69c-.22.14-.48.25-.79.33zm4.93-1.57c0 .57.35.85 1.05.85.32 0 .68-.07 1.05-.21l.27.73c-.4.21-.9.32-1.5.32-.57 0-1.03-.15-1.37-.47a1.64 1.64 0 0 1-.5-1.27V2.94h-1.95v-.8h2.95v7.3zm5.58.32c.34.36.77.53 1.29.53.31 0 .6-.04.86-.14.26-.09.54-.23.83-.42l.47.67a3.57 3.57 0 0 1-2.16.73c-.91 0-1.62-.3-2.13-.9-.5-.59-.76-1.39-.76-2.39 0-.63.11-1.2.33-1.7.23-.5.55-.89.96-1.17.42-.28.9-.43 1.46-.43.8 0 1.43.28 1.89.84.46.55.69 1.31.69 2.27 0 .19-.01.37-.03.54H28.8c.03.7.21 1.22.55 1.57zm-.03-3.87c-.3.35-.48.86-.52 1.53h3.3c-.02-.66-.16-1.17-.44-1.52a1.4 1.4 0 0 0-1.15-.53c-.49 0-.89.18-1.19.52zm15.44-3c.38.18.68.43.89.75.2.31.31.66.31 1.04a2 2 0 0 1-1.6 1.92c.51.04.95.23 1.32.58.36.36.54.84.54 1.44a2.37 2.37 0 0 1-1.37 2.19 3.7 3.7 0 0 1-2.9.05 2.78 2.78 0 0 1-1.13-.82l.68-.55c.22.26.5.46.82.6.32.14.66.21 1.01.21.58 0 1.03-.15 1.35-.45.33-.3.49-.7.49-1.23 0-1.04-.57-1.57-1.72-1.57h-.68l.12-.8h.49c.43 0 .8-.12 1.1-.37.3-.24.46-.6.46-1.07 0-.44-.15-.78-.44-1.03a1.7 1.7 0 0 0-1.12-.36c-.34 0-.65.06-.92.18a3.2 3.2 0 0 0-.83.57l-.55-.61a3.3 3.3 0 0 1 3.68-.68zm7.75.8c.46.74.69 1.8.69 3.17a6 6 0 0 1-.69 3.17 2.23 2.23 0 0 1-2.01 1.1c-.88 0-1.55-.36-2.01-1.1a6 6 0 0 1-.69-3.17c0-1.38.23-2.43.69-3.16a2.23 2.23 0 0 1 2.01-1.1c.88 0 1.55.37 2.01 1.1zm-3.65 3.17c0 2.3.54 3.46 1.64 3.46 1.1 0 1.64-1.16 1.64-3.46s-.54-3.44-1.64-3.44c-1.1 0-1.64 1.14-1.64 3.44zm2.2-.55c.16.15.23.33.23.55 0 .22-.07.41-.23.56a.77.77 0 0 1-.56.23.75.75 0 0 1-.56-.23.78.78 0 0 1-.22-.56c0-.22.07-.4.22-.55a.75.75 0 0 1 .56-.23c.22 0 .41.08.56.23z"/><rect width="34" height="1" x="59" y="6"/><g transform="translate(0 30)"><path d="M6.09 10.45c-.6.37-1.33.55-2.2.55H1.64V2.73H3.7c.84 0 1.54.16 2.1.49.55.32.83.86.83 1.6 0 .5-.15.9-.44 1.2-.3.3-.67.5-1.1.6 1.26.22 1.9.9 1.9 2.03 0 .83-.3 1.43-.9 1.8zm-.96-6.56c-.28-.2-.68-.3-1.2-.3H2.7v2.66h1.33c1.01 0 1.52-.46 1.52-1.37 0-.46-.14-.79-.42-.99zm.27 3.57a2.16 2.16 0 0 0-1.3-.35H2.7v3.03h1.36c.5 0 .94-.1 1.29-.32.35-.2.53-.58.53-1.14 0-.58-.16-.99-.48-1.22zm7.42-2.03c.47.58.7 1.39.7 2.4 0 1-.23 1.8-.71 2.4-.48.6-1.15.9-2.01.9-.87 0-1.54-.3-2.02-.88a3.74 3.74 0 0 1-.7-2.4c0-1 .23-1.8.71-2.4.48-.6 1.15-.9 2.02-.9.87 0 1.54.29 2.01.88zm-3.24.55a3.4 3.4 0 0 0-.41 1.86c0 .84.13 1.45.4 1.86.27.4.68.6 1.23.6.55 0 .96-.2 1.23-.6.27-.4.4-1.03.4-1.87a3.4 3.4 0 0 0-.4-1.85c-.27-.4-.67-.6-1.22-.6-.55 0-.96.2-1.23.6zM19.9 2.13V11h-.89l-.1-.83c-.23.32-.5.56-.8.72-.3.16-.63.24-.98.24-.8 0-1.4-.29-1.8-.87-.41-.59-.61-1.4-.61-2.42 0-.63.1-1.2.3-1.7.2-.5.48-.89.85-1.17a2.1 2.1 0 0 1 1.32-.43c.7 0 1.26.26 1.7.76V2.01l1.01.12zm-3.67 3.85a3.31 3.31 0 0 0-.42 1.86c0 .82.13 1.44.39 1.86.26.42.64.63 1.13.63.6 0 1.12-.34 1.56-1.01V6.18a1.87 1.87 0 0 0-.63-.61 1.6 1.6 0 0 0-.8-.21c-.54 0-.94.2-1.23.62zm8.62 5.06c-.25.72-.59 1.3-1.02 1.74-.43.43-1.04.68-1.81.76l-.15-.8c.43-.07.76-.18 1.02-.33.25-.15.45-.33.59-.55.14-.22.28-.5.4-.86h-.34l-2.2-6.32h1.07l1.81 5.55 1.8-5.55h1.04l-2.21 6.36zm13.7-8.14c.38.2.67.47.87.82.2.35.3.74.3 1.18 0 .52-.11 1.01-.35 1.5-.24.47-.61 1-1.13 1.57-.52.57-1.26 1.3-2.21 2.17h3.89l-.12.86h-4.92v-.82a48.03 48.03 0 0 0 2.4-2.42c.53-.58.89-1.08 1.09-1.5a3 3 0 0 0 .3-1.32c0-.46-.13-.83-.4-1.1-.26-.26-.63-.39-1.09-.39-.4 0-.72.07-.98.2a2.7 2.7 0 0 0-.8.68l-.7-.54c.34-.41.7-.71 1.1-.9.41-.2.88-.29 1.43-.29.5 0 .94.1 1.32.3zm7.76.8c.46.73.69 1.78.69 3.16a6 6 0 0 1-.69 3.17 2.23 2.23 0 0 1-2.01 1.1c-.88 0-1.55-.36-2.01-1.1a6 6 0 0 1-.69-3.17c0-1.38.23-2.43.69-3.16a2.23 2.23 0 0 1 2.01-1.1c.88 0 1.55.37 2.01 1.1zm-3.65 3.16c0 2.3.54 3.46 1.64 3.46 1.1 0 1.64-1.16 1.64-3.46s-.54-3.44-1.64-3.44c-1.1 0-1.64 1.14-1.64 3.44zm2.2-.55c.16.15.23.33.23.55 0 .22-.07.41-.23.56a.77.77 0 0 1-.56.23.75.75 0 0 1-.56-.23.78.78 0 0 1-.22-.56c0-.22.07-.4.22-.55a.75.75 0 0 1 .56-.23c.22 0 .41.08.56.23zM127 6.5V6H53v1h73v13h1V6.5z"/></g><g transform="translate(0 79)"><path d="M6.12 2.8c.36.13.72.33 1.08.6l-.6.69a2.63 2.63 0 0 0-1.73-.61 2.3 2.3 0 0 0-1.82.8c-.47.55-.7 1.4-.7 2.58 0 1.17.23 2.02.68 2.57.46.54 1.07.81 1.83.81a2.84 2.84 0 0 0 1.92-.68l.54.67c-.62.6-1.44.9-2.48.9-.68 0-1.29-.16-1.83-.5a3.4 3.4 0 0 1-1.29-1.45 5.24 5.24 0 0 1-.46-2.32c0-.9.15-1.67.47-2.31a3.4 3.4 0 0 1 1.28-1.46 3.92 3.92 0 0 1 3.1-.3zm6.94 7.37c.08.11.2.2.4.25l-.26.72c-.62-.08-1-.38-1.15-.9-.23.3-.5.51-.85.66-.34.16-.72.23-1.13.23-.63 0-1.13-.17-1.5-.53a1.88 1.88 0 0 1-.54-1.41c0-.65.25-1.15.76-1.5.5-.35 1.24-.53 2.19-.53h.94v-.52c0-.44-.13-.77-.39-.96-.25-.2-.63-.3-1.11-.3-.48 0-1.03.11-1.65.33l-.27-.77c.74-.26 1.43-.4 2.07-.4.77 0 1.36.18 1.76.54.4.36.6.86.6 1.5v3.04c0 .25.05.43.13.55zm-1.85-.03c.29-.16.52-.38.7-.66V7.86h-.9c-.68 0-1.16.1-1.46.33-.3.23-.44.55-.44.99 0 .8.4 1.2 1.21 1.2.31 0 .61-.08.9-.24zm9.01-2.3c0 1-.2 1.8-.62 2.4-.42.6-1.02.9-1.81.9-.69 0-1.25-.25-1.68-.73v3.01l-1.01.12V4.68h.86l.09.88c.23-.32.5-.58.83-.75.33-.18.68-.27 1.05-.27 1.53 0 2.3 1.1 2.3 3.3zm-3.41-2.2c-.27.2-.5.44-.7.73V9.5c.17.25.38.44.63.58.25.14.52.21.82.21.53 0 .92-.2 1.18-.6.26-.4.4-1.03.4-1.86 0-.83-.12-1.45-.36-1.86-.23-.4-.6-.61-1.09-.61-.32 0-.61.1-.88.29zm9.23 5.37c-.3.08-.61.12-.92.12a2.2 2.2 0 0 1-1.56-.52c-.37-.35-.56-.8-.56-1.37V5.47h-1.45v-.8H23V3.26l1-.12v1.55h2.2l-.13.79h-2.06v3.75c0 .36.1.63.29.8.19.18.5.27.92.27.43 0 .84-.1 1.21-.3l.4.69c-.22.14-.48.25-.79.33zm5.4-9.09c.14.13.2.3.2.51 0 .21-.06.38-.2.51a.74.74 0 0 1-.54.2.7.7 0 0 1-.52-.2.69.69 0 0 1-.2-.5c0-.22.07-.39.2-.52a.7.7 0 0 1 .52-.2c.22 0 .4.07.54.2zm.26 8.28h1.78v.8h-4.73v-.8h1.95V5.48H28.8v-.8h2.9v5.52zm7.92-4.77c.47.58.7 1.39.7 2.4 0 1-.23 1.8-.71 2.4-.48.6-1.15.9-2.01.9-.87 0-1.54-.3-2.02-.88a3.74 3.74 0 0 1-.7-2.4c0-1 .23-1.8.71-2.4.48-.6 1.15-.9 2.02-.9.87 0 1.54.29 2.01.88zm-3.24.55a3.4 3.4 0 0 0-.41 1.86c0 .84.13 1.45.4 1.86.27.4.68.6 1.23.6.55 0 .96-.2 1.23-.6.27-.4.4-1.03.4-1.87a3.4 3.4 0 0 0-.4-1.85c-.27-.4-.67-.6-1.22-.6-.55 0-.96.2-1.23.6zm5.52-1.3h.86l.09.88a2.66 2.66 0 0 1 2.09-1.02c1.18 0 1.77.63 1.77 1.88V11h-1V7.16c0-.47-.03-.83-.08-1.08a.91.91 0 0 0-.31-.55c-.15-.12-.38-.18-.7-.18-.34 0-.66.1-.97.31-.3.2-.55.46-.74.74V11H41.9V4.68zM58.65 2.9c.38.2.67.47.87.82.2.35.3.74.3 1.18 0 .52-.11 1.01-.35 1.5-.24.47-.61 1-1.13 1.57-.52.57-1.26 1.3-2.21 2.17h3.89l-.12.86h-4.92v-.82a48.03 48.03 0 0 0 2.4-2.42c.53-.58.89-1.08 1.09-1.5a3 3 0 0 0 .3-1.32c0-.46-.13-.83-.4-1.1-.26-.26-.63-.39-1.09-.39-.4 0-.72.07-.98.2a2.7 2.7 0 0 0-.8.68l-.7-.54c.34-.41.7-.71 1.1-.9.41-.2.88-.29 1.43-.29.5 0 .94.1 1.32.3zm7.76.8c.46.73.69 1.78.69 3.16a6 6 0 0 1-.69 3.17 2.23 2.23 0 0 1-2.01 1.1c-.88 0-1.55-.36-2.01-1.1a6 6 0 0 1-.69-3.17c0-1.38.23-2.43.69-3.16a2.23 2.23 0 0 1 2.01-1.1c.88 0 1.55.37 2.01 1.1zm-3.65 3.16c0 2.3.54 3.46 1.64 3.46 1.1 0 1.64-1.16 1.64-3.46s-.54-3.44-1.64-3.44c-1.1 0-1.64 1.14-1.64 3.44zm2.2-.55c.16.15.23.33.23.55 0 .22-.07.41-.23.56a.77.77 0 0 1-.56.23.75.75 0 0 1-.56-.23.78.78 0 0 1-.22-.56c0-.22.07-.4.22-.55a.75.75 0 0 1 .56-.23c.22 0 .41.08.56.23z"/><rect width="54" height="1" x="72" y="7"/></g></g><rect width="356" height="18" x="142" y="172" fill="#FC2DD7" fill-opacity=".25"/><rect width="454" height="16" x="142" y="206" fill="#FC2DD7" fill-opacity=".25"/><rect width="122" height="24" x="114" y="121" fill="#FC2DD7" fill-opacity=".25"/></g></svg>