<svg xmlns="http://www.w3.org/2000/svg" width="360" height="240" viewBox="0 0 360 240">
  <g fill="none" fill-rule="evenodd">
    <path fill="#4A4A4F" d="M44.84 52.14L39.24 52.14 39.24 57.72 44.08 57.72 44.08 58.52 39.24 58.52 39.24 65 38.3 65 38.3 51.32 44.96 51.32 44.84 52.14zM49.26 65L48.34 65 48.34 54.56 49.26 54.56 49.26 65zM49.32 50.32C49.453334 50.453334 49.52 50.619999 49.52 50.82 49.52 51.020001 49.453334 51.186666 49.32 51.32 49.186666 51.453334 49.0133344 51.52 48.8 51.52 48.5866656 51.52 48.413334 51.453334 48.28 51.32 48.146666 51.186666 48.08 51.020001 48.08 50.82 48.08 50.619999 48.146666 50.453334 48.28 50.32 48.413334 50.186666 48.5866656 50.12 48.8 50.12 49.0133344 50.12 49.186666 50.186666 49.32 50.32zM58.56 54.48L58.38 55.34C58.113332 55.2599996 57.8066684 55.22 57.46 55.22 56.726663 55.22 56.1366689 55.4833307 55.69 56.01 55.2433311 56.5366693 54.8733348 57.366661 54.58 58.5L54.58 65 53.66 65 53.66 54.56 54.46 54.56 54.52 56.98C54.8000014 56.0866622 55.1833309 55.4266688 55.67 55 56.1566691 54.5733312 56.7733296 54.36 57.52 54.36 57.9733356 54.36 58.3199988 54.3999996 58.56 54.48zM67.15 64C67.2900007 64.2533346 67.5133318 64.4399994 67.82 64.56L67.6 65.22C67.1466644 65.0999994 66.8033345 64.9033347 66.57 64.63 66.3366655 64.3566653 66.1933336 63.9466694 66.14 63.4 65.3666628 64.6133394 64.2666738 65.22 62.84 65.22 61.8533284 65.22 61.0733362 64.9366695 60.5 64.37 59.9266638 63.8033305 59.64 63.0466714 59.64 62.1 59.64 61.033328 60.0199962 60.2100029 60.78 59.63 61.5400038 59.0499971 62.5733268 58.76 63.88 58.76L66.02 58.76 66.02 57.66C66.02 56.793329 65.8266686 56.160002 65.44 55.76 65.0533314 55.359998 64.4133378 55.16 63.52 55.16 62.6799958 55.16 61.7333386 55.3666646 60.68 55.78L60.42 55.04C61.5800058 54.5866644 62.6399952 54.36 63.6 54.36 64.7466724 54.36 65.5899973 54.6333306 66.13 55.18 66.6700027 55.7266694 66.94 56.533328 66.94 57.6L66.94 62.74C66.94 63.3266696 67.0099993 63.7466654 67.15 64zM66.02 62.46L66.02 59.48 64.02 59.48C62.9266612 59.48 62.0866696 59.6966645 61.5 60.13 60.9133304 60.5633355 60.62 61.213329 60.62 62.08 60.62 62.8266704 60.8266646 63.4066646 61.24 63.82 61.6533354 64.2333354 62.226663 64.44 62.96 64.44 64.3066734 64.44 65.3266632 63.7800066 66.02 62.46zM82.23 51.49C82.8100029 51.7366679 83.3799972 52.1066642 83.94 52.6L83.38 53.22C82.8599974 52.7666644 82.3500025 52.440001 81.85 52.24 81.3499975 52.039999 80.7800032 51.94 80.14 51.94 79.2466622 51.94 78.5300027 52.1633311 77.99 52.61 77.4499973 53.0566689 77.18 53.646663 77.18 54.38 77.18 54.8866692 77.2833323 55.306665 77.49 55.64 77.6966677 55.973335 78.0299977 56.2666654 78.49 56.52 78.9500023 56.7733346 79.5999958 57.0266654 80.44 57.28 81.3600046 57.5600014 82.0999972 57.8599984 82.66 58.18 83.2200028 58.5000016 83.6433319 58.9099975 83.93 59.41 84.2166681 59.9100025 84.36 60.5399962 84.36 61.3 84.36 62.0600038 84.1766685 62.739997 83.81 63.34 83.4433315 63.940003 82.92667 64.4033317 82.26 64.73 81.59333 65.0566683 80.826671 65.22 79.96 65.22 79.0799956 65.22 78.2933368 65.0733348 77.6 64.78 76.9066632 64.4866652 76.2666696 64.0666694 75.68 63.52L76.24 62.9C76.7866694 63.3933358 77.3466638 63.7633321 77.92 64.01 78.4933362 64.2566679 79.1666628 64.38 79.94 64.38 80.9666718 64.38 81.7999968 64.1066694 82.44 63.56 83.0800032 63.0133306 83.4 62.2666714 83.4 61.32 83.4 60.7333304 83.2933344 60.2500019 83.08 59.87 82.8666656 59.4899981 82.5233357 59.1633347 82.05 58.89 81.5766643 58.6166653 80.9133376 58.346668 80.06 58.08 78.659993 57.6533312 77.6700029 57.1666694 77.09 56.62 76.5099971 56.0733306 76.22 55.333338 76.22 54.4 76.22 53.7733302 76.3833317 53.2133358 76.71 52.72 77.0366683 52.2266642 77.4966637 51.8366681 78.09 51.55 78.6833363 51.2633319 79.3599962 51.12 80.12 51.12 80.9466708 51.12 81.6499971 51.2433321 82.23 51.49zM94.25 64C94.3900007 64.2533346 94.6133318 64.4399994 94.92 64.56L94.7 65.22C94.2466644 65.0999994 93.9033345 64.9033347 93.67 64.63 93.4366655 64.3566653 93.2933336 63.9466694 93.24 63.4 92.4666628 64.6133394 91.3666738 65.22 89.94 65.22 88.9533284 65.22 88.1733362 64.9366695 87.6 64.37 87.0266638 63.8033305 86.74 63.0466714 86.74 62.1 86.74 61.033328 87.1199962 60.2100029 87.88 59.63 88.6400038 59.0499971 89.6733268 58.76 90.98 58.76L93.12 58.76 93.12 57.66C93.12 56.793329 92.9266686 56.160002 92.54 55.76 92.1533314 55.359998 91.5133378 55.16 90.62 55.16 89.7799958 55.16 88.8333386 55.3666646 87.78 55.78L87.52 55.04C88.6800058 54.5866644 89.7399952 54.36 90.7 54.36 91.8466724 54.36 92.6899973 54.6333306 93.23 55.18 93.7700027 55.7266694 94.04 56.533328 94.04 57.6L94.04 62.74C94.04 63.3266696 94.1099993 63.7466654 94.25 64zM93.12 62.46L93.12 59.48 91.12 59.48C90.0266612 59.48 89.1866696 59.6966645 88.6 60.13 88.0133304 60.5633355 87.72 61.213329 87.72 62.08 87.72 62.8266704 87.9266646 63.4066646 88.34 63.82 88.7533354 64.2333354 89.326663 64.44 90.06 64.44 91.4066734 64.44 92.4266632 63.7800066 93.12 62.46zM105.06 55.19C105.540002 55.7433361 105.78 56.5333282 105.78 57.56L105.78 65 104.86 65 104.86 57.68C104.86 56.7999956 104.686668 56.1533354 104.34 55.74 103.993332 55.3266646 103.473337 55.12 102.78 55.12 102.07333 55.12 101.446669 55.3133314 100.9 55.7 100.353331 56.0866686 99.8333358 56.646663 99.34 57.38L99.34 65 98.42 65 98.42 54.56 99.22 54.56 99.3 56.44C100.286672 55.0533264 101.493326 54.36 102.92 54.36 103.866671 54.36 104.579998 54.6366639 105.06 55.19zM114.25 54.64C114.763336 54.8266676 115.273331 55.1133314 115.78 55.5L115.32 56.12C114.853331 55.7733316 114.410002 55.5233341 113.99 55.37 113.569998 55.2166659 113.093336 55.14 112.56 55.14 111.826663 55.14 111.233336 55.3099983 110.78 55.65 110.326664 55.9900017 110.1 56.4533304 110.1 57.04 110.1 57.573336 110.293331 57.9866652 110.68 58.28 111.066669 58.5733348 111.753328 58.853332 112.74 59.12 113.940006 59.4400016 114.793331 59.8233311 115.3 60.27 115.806669 60.7166689 116.06 61.373329 116.06 62.24 116.06 63.1466712 115.71667 63.8699973 115.03 64.41 114.34333 64.9500027 113.473339 65.22 112.42 65.22 111.633329 65.22 110.953336 65.1033345 110.38 64.87 109.806664 64.6366655 109.266669 64.3066688 108.76 63.88L109.28 63.28C109.760002 63.6666686 110.239998 63.9533324 110.72 64.14 111.200002 64.3266676 111.759997 64.42 112.4 64.42 113.200004 64.42 113.849998 64.2300019 114.35 63.85 114.850003 63.4699981 115.1 62.9400034 115.1 62.26 115.1 61.8066644 115.020001 61.4400014 114.86 61.16 114.699999 60.8799986 114.420002 60.6433343 114.02 60.45 113.619998 60.2566657 113.040004 60.0533344 112.28 59.84 111.159994 59.5466652 110.360002 59.1866688 109.88 58.76 109.399998 58.3333312 109.16 57.7600036 109.16 57.04 109.16 56.2533294 109.479997 55.6100025 110.12 55.11 110.760003 54.6099975 111.566662 54.36 112.54 54.36 113.16667 54.36 113.736664 54.4533324 114.25 54.64zM131.78 52.14L126.06 52.14 126.06 57.46 131 57.46 131 58.28 126.06 58.28 126.06 64.18 132.02 64.18 132.02 65 125.12 65 125.12 51.32 131.9 51.32 131.78 52.14zM141.64 65L140.54 65 137.36 60 134.2 65 133.14 65 136.82 59.44 133.62 54.56 134.7 54.56 137.4 58.86 140.1 54.56 141.16 54.56 137.94 59.4 141.64 65zM148.64 64.58C147.97333 65.0066688 147.253337 65.22 146.48 65.22 145.719996 65.22 145.123335 64.9933356 144.69 64.54 144.256664 64.0866644 144.04 63.4200044 144.04 62.54L144.04 55.34 142.3 55.34 142.3 54.56 144.04 54.56 144.04 52.02 144.96 51.92 144.96 54.56 147.72 54.56 147.6 55.34 144.96 55.34 144.96 62.48C144.96 63.7600064 145.499995 64.4 146.58 64.4 147.140003 64.4 147.699997 64.2400016 148.26 63.92L148.64 64.58zM155.66 54.48L155.48 55.34C155.213332 55.2599996 154.906668 55.22 154.56 55.22 153.826663 55.22 153.236669 55.4833307 152.79 56.01 152.343331 56.5366693 151.973335 57.366661 151.68 58.5L151.68 65 150.76 65 150.76 54.56 151.56 54.56 151.62 56.98C151.900001 56.0866622 152.283331 55.4266688 152.77 55 153.256669 54.5733312 153.87333 54.36 154.62 54.36 155.073336 54.36 155.419999 54.3999996 155.66 54.48zM164.25 64C164.390001 64.2533346 164.613332 64.4399994 164.92 64.56L164.7 65.22C164.246664 65.0999994 163.903334 64.9033347 163.67 64.63 163.436665 64.3566653 163.293334 63.9466694 163.24 63.4 162.466663 64.6133394 161.366674 65.22 159.94 65.22 158.953328 65.22 158.173336 64.9366695 157.6 64.37 157.026664 63.8033305 156.74 63.0466714 156.74 62.1 156.74 61.033328 157.119996 60.2100029 157.88 59.63 158.640004 59.0499971 159.673327 58.76 160.98 58.76L163.12 58.76 163.12 57.66C163.12 56.793329 162.926669 56.160002 162.54 55.76 162.153331 55.359998 161.513338 55.16 160.62 55.16 159.779996 55.16 158.833339 55.3666646 157.78 55.78L157.52 55.04C158.680006 54.5866644 159.739995 54.36 160.7 54.36 161.846672 54.36 162.689997 54.6333306 163.23 55.18 163.770003 55.7266694 164.04 56.533328 164.04 57.6L164.04 62.74C164.04 63.3266696 164.109999 63.7466654 164.25 64zM163.12 62.46L163.12 59.48 161.12 59.48C160.026661 59.48 159.18667 59.6966645 158.6 60.13 158.01333 60.5633355 157.72 61.213329 157.72 62.08 157.72 62.8266704 157.926665 63.4066646 158.34 63.82 158.753335 64.2333354 159.326663 64.44 160.06 64.44 161.406673 64.44 162.426663 63.7800066 163.12 62.46zM169.46 64.12L175.22 64.12 175.08 65 168.52 65 168.52 51.32 169.46 51.32 169.46 64.12zM178.74 65L177.82 65 177.82 54.56 178.74 54.56 178.74 65zM178.8 50.32C178.933334 50.453334 179 50.619999 179 50.82 179 51.020001 178.933334 51.186666 178.8 51.32 178.666666 51.453334 178.493334 51.52 178.28 51.52 178.066666 51.52 177.893334 51.453334 177.76 51.32 177.626666 51.186666 177.56 51.020001 177.56 50.82 177.56 50.619999 177.626666 50.453334 177.76 50.32 177.893334 50.186666 178.066666 50.12 178.28 50.12 178.493334 50.12 178.666666 50.186666 178.8 50.32zM190.66 54.68C190.059997 54.8666676 189.11334 54.9666666 187.82 54.98 188.993339 55.5400028 189.58 56.5133264 189.58 57.9 189.58 58.9266718 189.24667 59.7499969 188.58 60.37 187.91333 60.9900031 187.013339 61.3 185.88 61.3 185.373331 61.3 184.913335 61.2266674 184.5 61.08 184.219999 61.2266674 184.003334 61.4133322 183.85 61.64 183.696666 61.8666678 183.62 62.1066654 183.62 62.36 183.62 63.1333372 184.206661 63.52 185.38 63.52L187.1 63.52C188.100005 63.52 188.89333 63.7566643 189.48 64.23 190.06667 64.7033357 190.36 65.3266628 190.36 66.1 190.36 67.0466714 189.993337 67.7766641 189.26 68.29 188.526663 68.8033359 187.426674 69.06 185.96 69.06 184.439992 69.06 183.343337 68.8300023 182.67 68.37 181.996663 67.9099977 181.66 67.1600052 181.66 66.12L182.54 66.12C182.553333 66.653336 182.666666 67.0733318 182.88 67.38 183.093334 67.6866682 183.443331 67.9099993 183.93 68.05 184.416669 68.1900007 185.093329 68.26 185.96 68.26 188.266678 68.26 189.42 67.560007 189.42 66.16 189.42 65.5866638 189.203336 65.1400016 188.77 64.82 188.336665 64.4999984 187.733337 64.34 186.96 64.34L185.26 64.34C184.446663 64.34 183.820002 64.1700017 183.38 63.83 182.939998 63.4899983 182.72 63.0600026 182.72 62.54 182.72 61.8599966 183.099996 61.2800024 183.86 60.8 183.259997 60.4933318 182.820001 60.1000024 182.54 59.62 182.259999 59.1399976 182.12 58.5466702 182.12 57.84 182.12 56.7999948 182.459997 55.9600032 183.14 55.32 183.820003 54.6799968 184.726661 54.36 185.86 54.36 187.166673 54.3733334 188.103331 54.3333338 188.67 54.24 189.23667 54.1466662 189.799997 53.9866678 190.36 53.76L190.66 54.68zM183.77 55.84C183.296664 56.3333358 183.06 56.9999958 183.06 57.84 183.06 58.706671 183.313331 59.3799976 183.82 59.86 184.326669 60.3400024 185.006662 60.58 185.86 60.58 186.753338 60.58 187.439998 60.346669 187.92 59.88 188.400002 59.413331 188.64 58.746671 188.64 57.88 188.64 57.013329 188.406669 56.3333358 187.94 55.84 187.473331 55.3466642 186.786671 55.1 185.88 55.1 184.946662 55.1 184.243336 55.3466642 183.77 55.84zM199.71 55.2C200.196669 55.7600028 200.44 56.5466616 200.44 57.56L200.44 65 199.52 65 199.52 57.68C199.52 55.9733248 198.826674 55.12 197.44 55.12 196.73333 55.12 196.106669 55.3166647 195.56 55.71 195.013331 56.1033353 194.493336 56.6599964 194 57.38L194 65 193.08 65 193.08 50.3 194 50.18 194 56.4C194.986672 55.0399932 196.179993 54.36 197.58 54.36 198.513338 54.36 199.223331 54.6399972 199.71 55.2zM209.3 64.58C208.63333 65.0066688 207.913337 65.22 207.14 65.22 206.379996 65.22 205.783335 64.9933356 205.35 64.54 204.916664 64.0866644 204.7 63.4200044 204.7 62.54L204.7 55.34 202.96 55.34 202.96 54.56 204.7 54.56 204.7 52.02 205.62 51.92 205.62 54.56 208.38 54.56 208.26 55.34 205.62 55.34 205.62 62.48C205.62 63.7600064 206.159995 64.4 207.24 64.4 207.800003 64.4 208.359997 64.2400016 208.92 63.92L209.3 64.58zM44.92 83.3L39.42 83.3 39.42 88.64 44.16 88.64 44.16 89.64 39.42 89.64 39.42 96 38.22 96 38.22 82.3 45.06 82.3 44.92 83.3zM49.5 96L48.34 96 48.34 85.54 49.5 85.54 49.5 96zM49.54 81.18C49.7000008 81.3400008 49.78 81.5399988 49.78 81.78 49.78 82.0200012 49.7000008 82.2199992 49.54 82.38 49.3799992 82.5400008 49.166668 82.62 48.9 82.62 48.6466654 82.62 48.4400008 82.5400008 48.28 82.38 48.1199992 82.2199992 48.04 82.0200012 48.04 81.78 48.04 81.5399988 48.1199992 81.3400008 48.28 81.18 48.4400008 81.0199992 48.6466654 80.94 48.9 80.94 49.166668 80.94 49.3799992 81.0199992 49.54 81.18zM58.84 85.44L58.62 86.54C58.3266652 86.4599996 58.0200016 86.42 57.7 86.42 56.9799964 86.42 56.4033355 86.6799974 55.97 87.2 55.5366645 87.7200026 55.1800014 88.5333278 54.9 89.64L54.9 96 53.74 96 53.74 85.54 54.74 85.54 54.84 87.88C55.1200014 87.013329 55.5033309 86.3700021 55.99 85.95 56.4766691 85.5299979 57.0799964 85.32 57.8 85.32 58.2133354 85.32 58.5599986 85.3599996 58.84 85.44zM67.51 94.86C67.6500007 95.1000012 67.8733318 95.2799994 68.18 95.4L67.92 96.22C67.4399976 96.1133328 67.0700013 95.926668 66.81 95.66 66.5499987 95.393332 66.3800004 95.0000026 66.3 94.48 65.5399962 95.6400058 64.4533404 96.22 63.04 96.22 62.039995 96.22 61.2500029 95.9366695 60.67 95.37 60.0899971 94.8033305 59.8 94.0466714 59.8 93.1 59.8 92.0199946 60.1833295 91.1866696 60.95 90.6 61.7166705 90.0133304 62.7799932 89.72 64.14 89.72L66.14 89.72 66.14 88.7C66.14 87.8599958 65.9533352 87.2500019 65.58 86.87 65.2066648 86.4899981 64.586671 86.3 63.72 86.3 62.919996 86.3 61.9733388 86.499998 60.88 86.9L60.58 86.02C61.7533392 85.553331 62.8533282 85.32 63.88 85.32 66.1600114 85.32 67.3 86.4266556 67.3 88.64L67.3 93.68C67.3 94.2266694 67.3699993 94.6199988 67.51 94.86zM66.14 93.4L66.14 90.56 64.32 90.56C63.253328 90.56 62.4400028 90.7666646 61.88 91.18 61.3199972 91.5933354 61.04 92.2133292 61.04 93.04 61.04 93.7600036 61.2333314 94.3133314 61.62 94.7 62.0066686 95.0866686 62.5466632 95.28 63.24 95.28 64.5200064 95.28 65.4866634 94.6533396 66.14 93.4zM82.49 82.45C83.0966697 82.6966679 83.6866638 83.0799974 84.26 83.6L83.56 84.36C83.0399974 83.9199978 82.5333358 83.600001 82.04 83.4 81.5466642 83.199999 80.9866698 83.1 80.36 83.1 79.5066624 83.1 78.8200026 83.3099979 78.3 83.73 77.7799974 84.1500021 77.52 84.7133298 77.52 85.42 77.52 85.9000024 77.6166657 86.2966651 77.81 86.61 78.0033343 86.9233349 78.3266644 87.2033321 78.78 87.45 79.2333356 87.6966679 79.8799958 87.9466654 80.72 88.2 81.6266712 88.4800014 82.3599972 88.7799984 82.92 89.1 83.4800028 89.4200016 83.9133318 89.8333308 84.22 90.34 84.5266682 90.8466692 84.68 91.4866628 84.68 92.26 84.68 93.0333372 84.4933352 93.719997 84.12 94.32 83.7466648 94.920003 83.2166701 95.386665 82.53 95.72 81.8433299 96.053335 81.0466712 96.22 80.14 96.22 78.4333248 96.22 76.9733394 95.6466724 75.76 94.5L76.46 93.74C77.0066694 94.2200024 77.5666638 94.5833321 78.14 94.83 78.7133362 95.0766679 79.3733296 95.2 80.12 95.2 81.1066716 95.2 81.9099969 94.9400026 82.53 94.42 83.1500031 93.8999974 83.46 93.1933378 83.46 92.3 83.46 91.7399972 83.3566677 91.2800018 83.15 90.92 82.9433323 90.5599982 82.6100023 90.2500013 82.15 89.99 81.6899977 89.7299987 81.0400042 89.466668 80.2 89.2 78.799993 88.7733312 77.800003 88.2800028 77.2 87.72 76.599997 87.1599972 76.3 86.4000048 76.3 85.44 76.3 84.7999968 76.4699983 84.2233359 76.81 83.71 77.1500017 83.1966641 77.6233303 82.7966681 78.23 82.51 78.8366697 82.2233319 79.5333294 82.08 80.32 82.08 81.1600042 82.08 81.8833303 82.2033321 82.49 82.45zM94.59 94.86C94.7300007 95.1000012 94.9533318 95.2799994 95.26 95.4L95 96.22C94.5199976 96.1133328 94.1500013 95.926668 93.89 95.66 93.6299987 95.393332 93.4600004 95.0000026 93.38 94.48 92.6199962 95.6400058 91.5333404 96.22 90.12 96.22 89.119995 96.22 88.3300029 95.9366695 87.75 95.37 87.1699971 94.8033305 86.88 94.0466714 86.88 93.1 86.88 92.0199946 87.2633295 91.1866696 88.03 90.6 88.7966705 90.0133304 89.8599932 89.72 91.22 89.72L93.22 89.72 93.22 88.7C93.22 87.8599958 93.0333352 87.2500019 92.66 86.87 92.2866648 86.4899981 91.666671 86.3 90.8 86.3 89.999996 86.3 89.0533388 86.499998 87.96 86.9L87.66 86.02C88.8333392 85.553331 89.9333282 85.32 90.96 85.32 93.2400114 85.32 94.38 86.4266556 94.38 88.64L94.38 93.68C94.38 94.2266694 94.4499993 94.6199988 94.59 94.86zM93.22 93.4L93.22 90.56 91.4 90.56C90.333328 90.56 89.5200028 90.7666646 88.96 91.18 88.3999972 91.5933354 88.12 92.2133292 88.12 93.04 88.12 93.7600036 88.3133314 94.3133314 88.7 94.7 89.0866686 95.0866686 89.6266632 95.28 90.32 95.28 91.6000064 95.28 92.5666634 94.6533396 93.22 93.4zM105.39 86.16C105.890003 86.7200028 106.14 87.5066616 106.14 88.52L106.14 96 104.98 96 104.98 88.68C104.98 87.8399958 104.813335 87.2266686 104.48 86.84 104.146665 86.4533314 103.653337 86.26 103 86.26 102.33333 86.26 101.743336 86.4433315 101.23 86.81 100.716664 87.1766685 100.226669 87.7133298 99.76 88.42L99.76 96 98.6 96 98.6 85.54 99.6 85.54 99.7 87.32C100.646671 85.98666 101.819993 85.32 103.22 85.32 104.166671 85.32 104.889997 85.5999972 105.39 86.16zM114.62 85.61C115.153336 85.8033343 115.673331 86.0933314 116.18 86.48L115.64 87.24C115.159998 86.906665 114.706669 86.6633341 114.28 86.51 113.853331 86.3566659 113.386669 86.28 112.88 86.28 112.186663 86.28 111.626669 86.4399984 111.2 86.76 110.773331 87.0800016 110.56 87.506664 110.56 88.04 110.56 88.5466692 110.743331 88.9399986 111.11 89.22 111.476669 89.5000014 112.139995 89.7666654 113.1 90.02 114.286673 90.3266682 115.143331 90.713331 115.67 91.18 116.196669 91.646669 116.46 92.313329 116.46 93.18 116.46 94.113338 116.100004 94.8533306 115.38 95.4 114.659996 95.9466694 113.760005 96.22 112.68 96.22 111.879996 96.22 111.180003 96.1033345 110.58 95.87 109.979997 95.6366655 109.433336 95.3066688 108.94 94.88L109.58 94.14C110.046669 94.5133352 110.523331 94.7899991 111.01 94.97 111.496669 95.1500009 112.046664 95.24 112.66 95.24 113.433337 95.24 114.056664 95.0633351 114.53 94.71 115.003336 94.3566649 115.24 93.8666698 115.24 93.24 115.24 92.8133312 115.160001 92.466668 115 92.2 114.839999 91.933332 114.566669 91.7033343 114.18 91.51 113.793331 91.3166657 113.22667 91.120001 112.48 90.92 111.373328 90.6266652 110.576669 90.2600022 110.09 89.82 109.603331 89.3799978 109.36 88.793337 109.36 88.06 109.36 87.5399974 109.513332 87.0700021 109.82 86.65 110.126668 86.2299979 110.543331 85.9033345 111.07 85.67 111.596669 85.4366655 112.186663 85.32 112.84 85.32 113.493337 85.32 114.086664 85.4166657 114.62 85.61zM126.44 94.92L132.16 94.92 132 96 125.24 96 125.24 82.3 126.44 82.3 126.44 94.92zM135.84 96L134.68 96 134.68 85.54 135.84 85.54 135.84 96zM135.88 81.18C136.040001 81.3400008 136.12 81.5399988 136.12 81.78 136.12 82.0200012 136.040001 82.2199992 135.88 82.38 135.719999 82.5400008 135.506668 82.62 135.24 82.62 134.986665 82.62 134.780001 82.5400008 134.62 82.38 134.459999 82.2199992 134.38 82.0200012 134.38 81.78 134.38 81.5399988 134.459999 81.3400008 134.62 81.18 134.780001 81.0199992 134.986665 80.94 135.24 80.94 135.506668 80.94 135.719999 81.0199992 135.88 81.18zM147.86 85.76C147.219997 85.9333342 146.25334 86.0333332 144.96 86.06 146.146673 86.6200028 146.74 87.56666 146.74 88.9 146.74 89.9266718 146.400003 90.7566635 145.72 91.39 145.039997 92.0233365 144.120006 92.34 142.96 92.34 142.439997 92.34 141.986669 92.273334 141.6 92.14 141.346665 92.2866674 141.150001 92.4633323 141.01 92.67 140.869999 92.8766677 140.8 93.0999988 140.8 93.34 140.8 94.0600036 141.353328 94.42 142.46 94.42L144.16 94.42C145.186672 94.42 146.00333 94.6699975 146.61 95.17 147.21667 95.6700025 147.52 96.3133294 147.52 97.1 147.52 98.0600048 147.140004 98.7999974 146.38 99.32 145.619996 99.8400026 144.486674 100.1 142.98 100.1 141.419992 100.1 140.303337 99.8633357 139.63 99.39 138.956663 98.9166643 138.62 98.1533386 138.62 97.1L139.7 97.1C139.713333 97.6066692 139.819999 98.0066652 140.02 98.3 140.220001 98.5933348 140.553331 98.806666 141.02 98.94 141.486669 99.073334 142.139996 99.14 142.98 99.14 144.153339 99.14 145.006664 98.9700017 145.54 98.63 146.073336 98.2899983 146.34 97.8000032 146.34 97.16 146.34 96.5999972 146.133335 96.1700015 145.72 95.87 145.306665 95.5699985 144.72667 95.42 143.98 95.42L142.28 95.42C141.453329 95.42 140.816669 95.2466684 140.37 94.9 139.923331 94.5533316 139.7 94.113336 139.7 93.58 139.7 93.2333316 139.799999 92.9066682 140 92.6 140.200001 92.2933318 140.479998 92.0266678 140.84 91.8 140.239997 91.4933318 139.796668 91.1000024 139.51 90.62 139.223332 90.1399976 139.08 89.5533368 139.08 88.86 139.08 87.8066614 139.43333 86.9533366 140.14 86.3 140.84667 85.6466634 141.773328 85.32 142.92 85.32 144.186673 85.3333334 145.109997 85.2866672 145.69 85.18 146.270003 85.0733328 146.87333 84.8933346 147.5 84.64L147.86 85.76zM140.95 86.94C140.503331 87.4200024 140.28 88.059996 140.28 88.86 140.28 89.6866708 140.516664 90.333331 140.99 90.8 141.463336 91.266669 142.106663 91.5 142.92 91.5 143.773338 91.5 144.426664 91.2700023 144.88 90.81 145.333336 90.3499977 145.56 89.7066708 145.56 88.88 145.56 88.0399958 145.336669 87.386669 144.89 86.92 144.443331 86.453331 143.786671 86.22 142.92 86.22 142.053329 86.22 141.396669 86.4599976 140.95 86.94zM156.92 86.17C157.426669 86.7366695 157.68 87.519995 157.68 88.52L157.68 96 156.52 96 156.52 88.68C156.52 87.0666586 155.860007 86.26 154.54 86.26 153.87333 86.26 153.283336 86.4433315 152.77 86.81 152.256664 87.1766685 151.766669 87.7133298 151.3 88.42L151.3 96 150.14 96 150.14 81.28 151.3 81.14 151.3 87.28C152.233338 85.9733268 153.38666 85.32 154.76 85.32 155.693338 85.32 156.413331 85.6033305 156.92 86.17zM166.58 95.56C165.91333 96.0000022 165.180004 96.22 164.38 96.22 163.579996 96.22 162.953336 95.9833357 162.5 95.51 162.046664 95.0366643 161.82 94.3533378 161.82 93.46L161.82 86.48 160.06 86.48 160.06 85.54 161.82 85.54 161.82 83.04 162.98 82.9 162.98 85.54 165.68 85.54 165.54 86.48 162.98 86.48 162.98 93.4C162.98 94.0133364 163.106665 94.4699985 163.36 94.77 163.613335 95.0700015 163.999997 95.22 164.52 95.22 165.066669 95.22 165.599997 95.0600016 166.12 94.74L166.58 95.56zM45.1 114.74L39.9 114.74 39.9 119.44 44.4 119.44 44.4 120.94 39.9 120.94 39.9 127 38 127 38 113.22 45.32 113.22 45.1 114.74zM50.16 127L48.32 127 48.32 116.46 50.16 116.46 50.16 127zM50.16 111.76C50.4000012 112.000001 50.52 112.299998 50.52 112.66 50.52 113.020002 50.4000012 113.316665 50.16 113.55 49.9199988 113.783334 49.6066686 113.9 49.22 113.9 48.8466648 113.9 48.5400012 113.783334 48.3 113.55 48.0599988 113.316665 47.94 113.020002 47.94 112.66 47.94 112.299998 48.0599988 112.000001 48.3 111.76 48.5400012 111.519999 48.8466648 111.4 49.22 111.4 49.6066686 111.4 49.9199988 111.519999 50.16 111.76zM59.58 116.34L59.24 118.14C58.9199984 118.06 58.6133348 118.02 58.32 118.02 57.6666634 118.02 57.140002 118.259998 56.74 118.74 56.339998 119.220002 56.0266678 119.966662 55.8 120.98L55.8 127 53.96 127 53.96 116.46 55.54 116.46 55.72 118.6C56.0000014 117.813329 56.3799976 117.220002 56.86 116.82 57.3400024 116.419998 57.8999968 116.22 58.54 116.22 58.9133352 116.22 59.2599984 116.26 59.58 116.34zM68.6 125.49C68.7466674 125.696668 68.9666652 125.853333 69.26 125.96L68.84 127.24C68.2933306 127.173333 67.853335 127.020001 67.52 126.78 67.186665 126.539999 66.9400008 126.166669 66.78 125.66 66.0733298 126.713339 65.0266736 127.24 63.64 127.24 62.5999948 127.24 61.780003 126.94667 61.18 126.36 60.579997 125.77333 60.28 125.006671 60.28 124.06 60.28 122.939994 60.6833293 122.080003 61.49 121.48 62.2966707 120.879997 63.4399926 120.58 64.92 120.58L66.54 120.58 66.54 119.8C66.54 119.05333 66.3600018 118.520002 66 118.2 65.6399982 117.879998 65.0866704 117.72 64.34 117.72 63.5666628 117.72 62.6200056 117.906665 61.5 118.28L61.04 116.94C62.3466732 116.459998 63.5599944 116.22 64.68 116.22 65.9200062 116.22 66.8466636 116.52333 67.46 117.13 68.0733364 117.73667 68.38 118.599994 68.38 119.72L68.38 124.54C68.38 124.966669 68.4533326 125.283332 68.6 125.49zM66.54 124.22L66.54 121.8 65.16 121.8C63.2133236 121.8 62.24 122.519993 62.24 123.96 62.24 124.58667 62.3933318 125.059998 62.7 125.38 63.0066682 125.700002 63.459997 125.86 64.06 125.86 65.1133386 125.86 65.939997 125.313339 66.54 124.22zM83.32 113.37C83.9733366 113.630001 84.6066636 114.033331 85.22 114.58L84.18 115.74C83.6599974 115.326665 83.1500025 115.023334 82.65 114.83 82.1499975 114.636666 81.6133362 114.54 81.04 114.54 80.3199964 114.54 79.726669 114.706665 79.26 115.04 78.793331 115.373335 78.56 115.859997 78.56 116.5 78.56 116.900002 78.6399992 117.236665 78.8 117.51 78.9600008 117.783335 79.2566645 118.033332 79.69 118.26 80.1233355 118.486668 80.7533292 118.726665 81.58 118.98 82.446671 119.246668 83.1666638 119.533332 83.74 119.84 84.3133362 120.146668 84.7766649 120.569997 85.13 121.11 85.4833351 121.650003 85.66 122.333329 85.66 123.16 85.66 123.960004 85.4633353 124.666664 85.07 125.28 84.6766647 125.893336 84.1100037 126.373332 83.37 126.72 82.6299963 127.066668 81.7533384 127.24 80.74 127.24 78.8333238 127.24 77.2733394 126.646673 76.06 125.46L77.12 124.28C77.6666694 124.746669 78.2266638 125.096666 78.8 125.33 79.3733362 125.563334 80.0133298 125.68 80.72 125.68 81.5733376 125.68 82.2799972 125.470002 82.84 125.05 83.4000028 124.629998 83.68 124.020004 83.68 123.22 83.68 122.766664 83.5933342 122.390001 83.42 122.09 83.2466658 121.789998 82.9500021 121.520001 82.53 121.28 82.1099979 121.039999 81.500004 120.800001 80.7 120.56 79.2866596 120.133331 78.2533366 119.620003 77.6 119.02 76.9466634 118.419997 76.62 117.606672 76.62 116.58 76.62 115.886663 76.8033315 115.266669 77.17 114.72 77.5366685 114.173331 78.0499967 113.746668 78.71 113.44 79.3700033 113.133332 80.1199958 112.98 80.96 112.98 81.8800046 112.98 82.6666634 113.109999 83.32 113.37zM95.68 125.49C95.8266674 125.696668 96.0466652 125.853333 96.34 125.96L95.92 127.24C95.3733306 127.173333 94.933335 127.020001 94.6 126.78 94.266665 126.539999 94.0200008 126.166669 93.86 125.66 93.1533298 126.713339 92.1066736 127.24 90.72 127.24 89.6799948 127.24 88.860003 126.94667 88.26 126.36 87.659997 125.77333 87.36 125.006671 87.36 124.06 87.36 122.939994 87.7633293 122.080003 88.57 121.48 89.3766707 120.879997 90.5199926 120.58 92 120.58L93.62 120.58 93.62 119.8C93.62 119.05333 93.4400018 118.520002 93.08 118.2 92.7199982 117.879998 92.1666704 117.72 91.42 117.72 90.6466628 117.72 89.7000056 117.906665 88.58 118.28L88.12 116.94C89.4266732 116.459998 90.6399944 116.22 91.76 116.22 93.0000062 116.22 93.9266636 116.52333 94.54 117.13 95.1533364 117.73667 95.46 118.599994 95.46 119.72L95.46 124.54C95.46 124.966669 95.5333326 125.283332 95.68 125.49zM93.62 124.22L93.62 121.8 92.24 121.8C90.2933236 121.8 89.32 122.519993 89.32 123.96 89.32 124.58667 89.4733318 125.059998 89.78 125.38 90.0866682 125.700002 90.539997 125.86 91.14 125.86 92.1933386 125.86 93.019997 125.313339 93.62 124.22zM106.45 117.08C106.990003 117.653336 107.26 118.439995 107.26 119.44L107.26 127 105.42 127 105.42 119.7C105.42 118.95333 105.280001 118.426668 105 118.12 104.719999 117.813332 104.306669 117.66 103.76 117.66 103.199997 117.66 102.706669 117.819998 102.28 118.14 101.853331 118.460002 101.453335 118.919997 101.08 119.52L101.08 127 99.24 127 99.24 116.46 100.82 116.46 100.98 118.02C101.353335 117.459997 101.816664 117.020002 102.37 116.7 102.923336 116.379998 103.53333 116.22 104.2 116.22 105.160005 116.22 105.909997 116.506664 106.45 117.08zM115.76 116.52C116.333336 116.720001 116.879997 117.019998 117.4 117.42L116.62 118.58C116.139998 118.273332 115.683335 118.046667 115.25 117.9 114.816665 117.753333 114.360002 117.68 113.88 117.68 113.279997 117.68 112.806668 117.803332 112.46 118.05 112.113332 118.296668 111.94 118.633331 111.94 119.06 111.94 119.486669 112.103332 119.819999 112.43 120.06 112.756668 120.300001 113.346662 120.533332 114.2 120.76 115.373339 121.053335 116.249997 121.453331 116.83 121.96 117.410003 122.466669 117.7 123.159996 117.7 124.04 117.7 125.080005 117.296671 125.873331 116.49 126.42 115.683329 126.966669 114.700006 127.24 113.54 127.24 111.939992 127.24 110.613339 126.780005 109.56 125.86L110.54 124.74C111.433338 125.420003 112.419995 125.76 113.5 125.76 114.193337 125.76 114.743331 125.616668 115.15 125.33 115.556669 125.043332 115.76 124.653336 115.76 124.16 115.76 123.799998 115.686667 123.510001 115.54 123.29 115.393333 123.069999 115.140002 122.876667 114.78 122.71 114.419998 122.543333 113.893337 122.366668 113.2 122.18 112.079994 121.886665 111.270002 121.493336 110.77 121 110.269998 120.506664 110.02 119.880004 110.02 119.12 110.02 118.573331 110.183332 118.076669 110.51 117.63 110.836668 117.183331 111.289997 116.836668 111.87 116.59 112.450003 116.343332 113.099996 116.22 113.82 116.22 114.540004 116.22 115.186664 116.319999 115.76 116.52zM129.74 121.16L127.6 121.16 127.6 127 125.7 127 125.7 113.22 129.32 113.22C131.040009 113.22 132.343329 113.546663 133.23 114.2 134.116671 114.853337 134.56 115.82666 134.56 117.12 134.56 118.080005 134.313336 118.859997 133.82 119.46 133.326664 120.060003 132.580005 120.513332 131.58 120.82L135.3 127 133.04 127 129.74 121.16zM129.52 119.7C130.520005 119.7 131.273331 119.496669 131.78 119.09 132.286669 118.683331 132.54 118.026671 132.54 117.12 132.54 116.266662 132.283336 115.650002 131.77 115.27 131.256664 114.889998 130.433339 114.7 129.3 114.7L127.6 114.7 127.6 119.7 129.52 119.7zM145.42 122.36L138.7 122.36C138.78 123.520006 139.073331 124.373331 139.58 124.92 140.086669 125.466669 140.739996 125.74 141.54 125.74 142.046669 125.74 142.513331 125.666667 142.94 125.52 143.366669 125.373333 143.813331 125.140002 144.28 124.82L145.08 125.92C143.959994 126.800004 142.73334 127.24 141.4 127.24 139.933326 127.24 138.790004 126.760005 137.97 125.8 137.149996 124.839995 136.74 123.520008 136.74 121.84 136.74 120.746661 136.916665 119.776671 137.27 118.93 137.623335 118.083329 138.129997 117.420002 138.79 116.94 139.450003 116.459998 140.226662 116.22 141.12 116.22 142.520007 116.22 143.59333 116.679995 144.34 117.6 145.08667 118.520005 145.46 119.793325 145.46 121.42 145.46 121.726668 145.446667 122.039998 145.42 122.36zM143.64 120.88C143.64 119.839995 143.433335 119.046669 143.02 118.5 142.606665 117.953331 141.986671 117.68 141.16 117.68 139.653326 117.68 138.833334 118.786656 138.7 121L143.64 121 143.64 120.88zM157 116.94C156.599998 117.073334 156.160002 117.16 155.68 117.2 155.199998 117.24 154.613337 117.26 153.92 117.26 155.160006 117.820003 155.78 118.706661 155.78 119.92 155.78 120.973339 155.420004 121.83333 154.7 122.5 153.979996 123.16667 153.000006 123.5 151.76 123.5 151.279998 123.5 150.833335 123.433334 150.42 123.3 150.259999 123.406667 150.133334 123.549999 150.04 123.73 149.946666 123.910001 149.9 124.093332 149.9 124.28 149.9 124.853336 150.359995 125.14 151.28 125.14L152.96 125.14C153.66667 125.14 154.293331 125.266665 154.84 125.52 155.386669 125.773335 155.809998 126.119998 156.11 126.56 156.410001 127.000002 156.56 127.499997 156.56 128.06 156.56 129.086672 156.140004 129.876664 155.3 130.43 154.459996 130.983336 153.233341 131.26 151.62 131.26 150.486661 131.26 149.590003 131.143335 148.93 130.91 148.269997 130.676666 147.800001 130.326669 147.52 129.86 147.239999 129.393331 147.1 128.793337 147.1 128.06L148.76 128.06C148.76 128.486669 148.839999 128.823332 149 129.07 149.160001 129.316668 149.446665 129.503333 149.86 129.63 150.273335 129.756667 150.859996 129.82 151.62 129.82 152.726672 129.82 153.516664 129.683335 153.99 129.41 154.463336 129.136665 154.7 128.726669 154.7 128.18 154.7 127.686664 154.513335 127.313335 154.14 127.06 153.766665 126.806665 153.24667 126.68 152.58 126.68L150.92 126.68C150.026662 126.68 149.350002 126.490002 148.89 126.11 148.429998 125.729998 148.2 125.253336 148.2 124.68 148.2 124.333332 148.299999 124.000002 148.5 123.68 148.700001 123.359998 148.986665 123.073335 149.36 122.82 148.746664 122.499998 148.296668 122.103336 148.01 121.63 147.723332 121.156664 147.58 120.580003 147.58 119.9 147.58 119.19333 147.756665 118.560003 148.11 118 148.463335 117.439997 148.949997 117.003335 149.57 116.69 150.190003 116.376665 150.879996 116.22 151.64 116.22 152.466671 116.233333 153.159997 116.203334 153.72 116.13 154.280003 116.056666 154.743331 115.956667 155.11 115.83 155.476668 115.703333 155.926664 115.520001 156.46 115.28L157 116.94zM150.03 118.19C149.649998 118.623335 149.46 119.19333 149.46 119.9 149.46 120.620004 149.653331 121.196664 150.04 121.63 150.426669 122.063335 150.97333 122.28 151.68 122.28 152.400004 122.28 152.949998 122.070002 153.33 121.65 153.710002 121.229998 153.9 120.640004 153.9 119.88 153.9 118.319992 153.146674 117.54 151.64 117.54 150.946663 117.54 150.410002 117.756664 150.03 118.19zM166.74 127L165.16 127 165.02 125.36C164.619998 126.013337 164.160003 126.489999 163.64 126.79 163.119997 127.090001 162.48667 127.24 161.74 127.24 160.819995 127.24 160.100003 126.960003 159.58 126.4 159.059997 125.839997 158.8 125.046672 158.8 124.02L158.8 116.46 160.64 116.46 160.64 123.82C160.64 124.540004 160.766665 125.049999 161.02 125.35 161.273335 125.650002 161.686664 125.8 162.26 125.8 163.286672 125.8 164.166663 125.193339 164.9 123.98L164.9 116.46 166.74 116.46 166.74 127zM171.03 126.63C170.636665 126.223331 170.44 125.653337 170.44 124.92L170.44 112.22 172.28 112 172.28 124.88C172.28 125.173335 172.33 125.386666 172.43 125.52 172.53 125.653334 172.699999 125.72 172.94 125.72 173.193335 125.72 173.419999 125.68 173.62 125.6L174.1 126.88C173.659998 127.120001 173.173336 127.24 172.64 127.24 171.959997 127.24 171.423335 127.036669 171.03 126.63zM183.72 125.49C183.866667 125.696668 184.086665 125.853333 184.38 125.96L183.96 127.24C183.413331 127.173333 182.973335 127.020001 182.64 126.78 182.306665 126.539999 182.060001 126.166669 181.9 125.66 181.19333 126.713339 180.146674 127.24 178.76 127.24 177.719995 127.24 176.900003 126.94667 176.3 126.36 175.699997 125.77333 175.4 125.006671 175.4 124.06 175.4 122.939994 175.803329 122.080003 176.61 121.48 177.416671 120.879997 178.559993 120.58 180.04 120.58L181.66 120.58 181.66 119.8C181.66 119.05333 181.480002 118.520002 181.12 118.2 180.759998 117.879998 180.20667 117.72 179.46 117.72 178.686663 117.72 177.740006 117.906665 176.62 118.28L176.16 116.94C177.466673 116.459998 178.679994 116.22 179.8 116.22 181.040006 116.22 181.966664 116.52333 182.58 117.13 183.193336 117.73667 183.5 118.599994 183.5 119.72L183.5 124.54C183.5 124.966669 183.573333 125.283332 183.72 125.49zM181.66 124.22L181.66 121.8 180.28 121.8C178.333324 121.8 177.36 122.519993 177.36 123.96 177.36 124.58667 177.513332 125.059998 177.82 125.38 178.126668 125.700002 178.579997 125.86 179.18 125.86 180.233339 125.86 181.059997 125.313339 181.66 124.22zM192.9 116.34L192.56 118.14C192.239998 118.06 191.933335 118.02 191.64 118.02 190.986663 118.02 190.460002 118.259998 190.06 118.74 189.659998 119.220002 189.346668 119.966662 189.12 120.98L189.12 127 187.28 127 187.28 116.46 188.86 116.46 189.04 118.6C189.320001 117.813329 189.699998 117.220002 190.18 116.82 190.660002 116.419998 191.219997 116.22 191.86 116.22 192.233335 116.22 192.579998 116.26 192.9 116.34zM45.16 146.14L40.26 146.14 40.26 150.28 44.52 150.28 44.52 152.24 40.26 152.24 40.26 158 37.62 158 37.62 144.18 45.44 144.18 45.16 146.14zM50.48 158L47.92 158 47.92 147.42 50.48 147.42 50.48 158zM50.35 142.51C50.6500015 142.810001 50.8 143.179998 50.8 143.62 50.8 144.060002 50.6500015 144.426665 50.35 144.72 50.0499985 145.013335 49.6600024 145.16 49.18 145.16 48.713331 145.16 48.3300015 145.013335 48.03 144.72 47.7299985 144.426665 47.58 144.060002 47.58 143.62 47.58 143.179998 47.7299985 142.810001 48.03 142.51 48.3300015 142.209999 48.713331 142.06 49.18 142.06 49.6600024 142.06 50.0499985 142.209999 50.35 142.51zM59.84 147.28L59.4 149.76C59.0799984 149.68 58.7666682 149.64 58.46 149.64 57.8333302 149.64 57.3400018 149.863331 56.98 150.31 56.6199982 150.756669 56.3333344 151.446662 56.12 152.38L56.12 158 53.56 158 53.56 147.42 55.78 147.42 56.02 149.5C56.2733346 148.739996 56.6399976 148.156669 57.12 147.75 57.6000024 147.343331 58.1533302 147.14 58.78 147.14 59.1666686 147.14 59.5199984 147.186666 59.84 147.28zM69.05 156.11C69.1766673 156.303334 69.3799986 156.453333 69.66 156.56L69.12 158.26C68.519997 158.206666 68.0300019 158.063334 67.65 157.83 67.2699981 157.596666 66.980001 157.226669 66.78 156.72 66.4199982 157.253336 65.9700027 157.649999 65.43 157.91 64.8899973 158.170001 64.28667 158.3 63.62 158.3 62.5666614 158.3 61.7333364 158.000003 61.12 157.4 60.5066636 156.799997 60.2 156.013338 60.2 155.04 60.2 153.893328 60.6166625 153.01667 61.45 152.41 62.2833375 151.80333 63.4733256 151.5 65.02 151.5L66.34 151.5 66.34 150.9C66.34 150.219997 66.1833349 149.743335 65.87 149.47 65.5566651 149.196665 65.0533368 149.06 64.36 149.06 63.5866628 149.06 62.6533388 149.246665 61.56 149.62L60.96 147.88C62.2800066 147.373331 63.5599938 147.12 64.8 147.12 67.5066802 147.12 68.86 148.333321 68.86 150.76L68.86 155.2C68.86 155.613335 68.9233327 155.916666 69.05 156.11zM66.34 155.14L66.34 153 65.28 153C63.6266584 153 62.8 153.613327 62.8 154.84 62.8 155.346669 62.9266654 155.739999 63.18 156.02 63.4333346 156.300001 63.8066642 156.44 64.3 156.44 65.166671 156.44 65.8466642 156.006671 66.34 155.14zM83.56 144.3C84.2800036 144.580001 84.9533302 145.006664 85.58 145.58L84.28 147.08C83.7866642 146.666665 83.2900025 146.366668 82.79 146.18 82.2899975 145.993332 81.7533362 145.9 81.18 145.9 80.5399968 145.9 80.0233353 146.043332 79.63 146.33 79.2366647 146.616668 79.04 147.019997 79.04 147.54 79.04 147.886668 79.1166659 148.173332 79.27 148.4 79.4233341 148.626668 79.699998 148.839999 80.1 149.04 80.500002 149.240001 81.0933294 149.459999 81.88 149.7 83.2400068 150.126669 84.2633299 150.656664 84.95 151.29 85.6366701 151.923337 85.98 152.846661 85.98 154.06 85.98 154.886671 85.7700021 155.619997 85.35 156.26 84.9299979 156.900003 84.3266706 157.399998 83.54 157.76 82.7533294 158.120002 81.8200054 158.3 80.74 158.3 79.6866614 158.3 78.7433375 158.130002 77.91 157.79 77.0766625 157.449998 76.360003 156.98667 75.76 156.4L77.14 154.88C77.6600026 155.333336 78.2066638 155.676666 78.78 155.91 79.3533362 156.143335 79.9866632 156.26 80.68 156.26 81.4400038 156.26 82.053331 156.080002 82.52 155.72 82.986669 155.359998 83.22 154.853337 83.22 154.2 83.22 153.799998 83.1400008 153.470001 82.98 153.21 82.8199992 152.949999 82.5466686 152.716668 82.16 152.51 81.7733314 152.303332 81.213337 152.086668 80.48 151.86 79.013326 151.406664 77.9533366 150.860003 77.3 150.22 76.6466634 149.579997 76.32 148.740005 76.32 147.7 76.32 146.939996 76.519998 146.273336 76.92 145.7 77.320002 145.126664 77.8766631 144.680002 78.59 144.36 79.3033369 144.039998 80.1133288 143.88 81.02 143.88 81.9933382 143.88 82.8399964 144.019999 83.56 144.3zM96.17 156.11C96.2966673 156.303334 96.4999986 156.453333 96.78 156.56L96.24 158.26C95.639997 158.206666 95.1500019 158.063334 94.77 157.83 94.3899981 157.596666 94.100001 157.226669 93.9 156.72 93.5399982 157.253336 93.0900027 157.649999 92.55 157.91 92.0099973 158.170001 91.40667 158.3 90.74 158.3 89.6866614 158.3 88.8533364 158.000003 88.24 157.4 87.6266636 156.799997 87.32 156.013338 87.32 155.04 87.32 153.893328 87.7366625 153.01667 88.57 152.41 89.4033375 151.80333 90.5933256 151.5 92.14 151.5L93.46 151.5 93.46 150.9C93.46 150.219997 93.3033349 149.743335 92.99 149.47 92.6766651 149.196665 92.1733368 149.06 91.48 149.06 90.7066628 149.06 89.7733388 149.246665 88.68 149.62L88.08 147.88C89.4000066 147.373331 90.6799938 147.12 91.92 147.12 94.6266802 147.12 95.98 148.333321 95.98 150.76L95.98 155.2C95.98 155.613335 96.0433327 155.916666 96.17 156.11zM93.46 155.14L93.46 153 92.4 153C90.7466584 153 89.92 153.613327 89.92 154.84 89.92 155.346669 90.0466654 155.739999 90.3 156.02 90.5533346 156.300001 90.9266642 156.44 91.42 156.44 92.286671 156.44 92.9666642 156.006671 93.46 155.14zM106.93 147.97C107.456669 148.53667 107.72 149.326662 107.72 150.34L107.72 158 105.16 158 105.16 150.74C105.16 150.11333 105.050001 149.673335 104.83 149.42 104.609999 149.166665 104.286669 149.04 103.86 149.04 103.419998 149.04 103.023335 149.176665 102.67 149.45 102.316665 149.723335 101.973335 150.119997 101.64 150.64L101.64 158 99.08 158 99.08 147.42 101.3 147.42 101.5 148.82C102.380004 147.686661 103.453327 147.12 104.72 147.12 105.666671 147.12 106.403331 147.403331 106.93 147.97zM117.8 148.38L116.8 149.88C115.893329 149.306664 115.006671 149.02 114.14 149.02 113.633331 149.02 113.240001 149.116666 112.96 149.31 112.679999 149.503334 112.54 149.759998 112.54 150.08 112.54 150.320001 112.599999 150.519999 112.72 150.68 112.840001 150.840001 113.056665 150.989999 113.37 151.13 113.683335 151.270001 114.146664 151.426666 114.76 151.6 115.906672 151.906668 116.756664 152.313331 117.31 152.82 117.863336 153.326669 118.14 154.033329 118.14 154.94 118.14 155.993339 117.713338 156.816664 116.86 157.41 116.006662 158.003336 114.946673 158.3 113.68 158.3 112.813329 158.3 112.023337 158.166668 111.31 157.9 110.596663 157.633332 109.980003 157.266669 109.46 156.8L110.74 155.36C111.660005 156.053337 112.619995 156.4 113.62 156.4 114.193336 156.4 114.649998 156.286668 114.99 156.06 115.330002 155.833332 115.5 155.520002 115.5 155.12 115.5 154.813332 115.436667 154.570001 115.31 154.39 115.183333 154.209999 114.956668 154.050001 114.63 153.91 114.303332 153.769999 113.793337 153.600001 113.1 153.4 112.019995 153.106665 111.226669 152.696669 110.72 152.17 110.213331 151.643331 109.96 150.986671 109.96 150.2 109.96 149.61333 110.129998 149.086669 110.47 148.62 110.810002 148.153331 111.289997 147.786668 111.91 147.52 112.530003 147.253332 113.239996 147.12 114.04 147.12 115.466674 147.12 116.719995 147.539996 117.8 148.38zM138.4 158L135.82 158 135.46 152.22C135.339999 150.153323 135.28 148.513339 135.28 147.3L135.28 146.58 132.76 156.5 130.26 156.5 127.58 146.56C127.606667 147.440004 127.62 148.106664 127.62 148.56 127.62 149.773339 127.58 151.019994 127.5 152.3L127.16 158 124.6 158 125.7 144.18 129.1 144.18 131.56 153.86 133.88 144.18 137.32 144.18 138.4 158zM149.62 153.5L142.98 153.5C143.073334 154.526672 143.343331 155.259998 143.79 155.7 144.236669 156.140002 144.83333 156.36 145.58 156.36 146.046669 156.36 146.486665 156.283334 146.9 156.13 147.313335 155.976666 147.753331 155.740002 148.22 155.42L149.28 156.88C148.106661 157.826671 146.800007 158.3 145.36 158.3 143.746659 158.3 142.503338 157.806672 141.63 156.82 140.756662 155.833328 140.32 154.486675 140.32 152.78 140.32 151.699995 140.506665 150.730004 140.88 149.87 141.253335 149.009996 141.79333 148.336669 142.5 147.85 143.20667 147.363331 144.046662 147.12 145.02 147.12 146.500007 147.12 147.646663 147.589995 148.46 148.53 149.273337 149.470005 149.68 150.779992 149.68 152.46 149.68 152.593334 149.66 152.939997 149.62 153.5zM147.14 151.72C147.14 149.866657 146.45334 148.94 145.08 148.94 144.45333 148.94 143.963335 149.169998 143.61 149.63 143.256665 150.090002 143.046667 150.826662 142.98 151.84L147.14 151.84 147.14 151.72zM160.94 143.18L160.94 158 158.68 158 158.5 156.66C158.166665 157.166669 157.746669 157.566665 157.24 157.86 156.733331 158.153335 156.14667 158.3 155.48 158.3 154.18666 158.3 153.193337 157.800005 152.5 156.8 151.806663 155.799995 151.46 154.440009 151.46 152.72 151.46 151.626661 151.633332 150.656671 151.98 149.81 152.326668 148.963329 152.82333 148.303336 153.47 147.83 154.11667 147.356664 154.879996 147.12 155.76 147.12 156.773338 147.12 157.646663 147.499996 158.38 148.26L158.38 142.9 160.94 143.18zM157.4 156.03C157.746668 155.809999 158.073332 155.466669 158.38 155L158.38 150.16C158.086665 149.786665 157.780002 149.506668 157.46 149.32 157.139998 149.133332 156.780002 149.04 156.38 149.04 155.686663 149.04 155.143335 149.34333 154.75 149.95 154.356665 150.55667 154.16 151.473327 154.16 152.7 154.16 154.006673 154.333332 154.943331 154.68 155.51 155.026668 156.07667 155.53333 156.36 156.2 156.36 156.653336 156.36 157.053332 156.250001 157.4 156.03zM166.58 158L164.02 158 164.02 147.42 166.58 147.42 166.58 158zM166.45 142.51C166.750001 142.810001 166.9 143.179998 166.9 143.62 166.9 144.060002 166.750001 144.426665 166.45 144.72 166.149999 145.013335 165.760002 145.16 165.28 145.16 164.813331 145.16 164.430002 145.013335 164.13 144.72 163.829999 144.426665 163.68 144.060002 163.68 143.62 163.68 143.179998 163.829999 142.810001 164.13 142.51 164.430002 142.209999 164.813331 142.06 165.28 142.06 165.760002 142.06 166.149999 142.209999 166.45 142.51zM178.12 158L175.9 158 175.76 156.52C175.373331 157.120003 174.916669 157.566665 174.39 157.86 173.863331 158.153335 173.240004 158.3 172.52 158.3 171.573329 158.3 170.843336 158.010003 170.33 157.43 169.816664 156.849997 169.56 156.046672 169.56 155.02L169.56 147.42 172.12 147.42 172.12 154.7C172.12 155.300003 172.223332 155.726665 172.43 155.98 172.636668 156.233335 172.966664 156.36 173.42 156.36 174.233337 156.36 174.946664 155.860005 175.56 154.86L175.56 147.42 178.12 147.42 178.12 158zM194.46 147.99C194.966669 148.570003 195.22 149.353328 195.22 150.34L195.22 158 192.66 158 192.66 150.74C192.66 149.606661 192.273337 149.04 191.5 149.04 191.086665 149.04 190.730002 149.169999 190.43 149.43 190.129999 149.690001 189.820002 150.093331 189.5 150.64L189.5 158 186.94 158 186.94 150.74C186.94 149.606661 186.553337 149.04 185.78 149.04 185.353331 149.04 184.990002 149.169999 184.69 149.43 184.389999 149.690001 184.080002 150.093331 183.76 150.64L183.76 158 181.2 158 181.2 147.42 183.42 147.42 183.62 148.8C184.420004 147.679994 185.439994 147.12 186.68 147.12 187.293336 147.12 187.823331 147.273332 188.27 147.58 188.716669 147.886668 189.046666 148.326664 189.26 148.9 189.673335 148.31333 190.133331 147.870002 190.64 147.57 191.146669 147.269998 191.739997 147.12 192.42 147.12 193.273338 147.12 193.953331 147.409997 194.46 147.99zM45.22 177.48L40.58 177.48 40.58 181.16 44.62 181.16 44.62 183.5 40.58 183.5 40.58 189 37.3 189 37.3 175.14 45.56 175.14 45.22 177.48zM50.74 189L47.58 189 47.58 178.38 50.74 178.38 50.74 189zM50.49 173.29C50.8433351 173.630002 51.02 174.059997 51.02 174.58 51.02 175.100003 50.8433351 175.529998 50.49 175.87 50.1366649 176.210002 49.6866694 176.38 49.14 176.38 48.5933306 176.38 48.1466684 176.210002 47.8 175.87 47.4533316 175.529998 47.28 175.100003 47.28 174.58 47.28 174.059997 47.4533316 173.630002 47.8 173.29 48.1466684 172.949998 48.5933306 172.78 49.14 172.78 49.6866694 172.78 50.1366649 172.949998 50.49 173.29zM60.04 178.22L59.54 181.28C59.139998 181.186666 58.8200012 181.14 58.58 181.14 57.9666636 181.14 57.493335 181.353331 57.16 181.78 56.826665 182.206669 56.5666676 182.846662 56.38 183.7L56.38 189 53.22 189 53.22 178.38 55.98 178.38 56.24 180.42C56.4800012 179.686663 56.8433309 179.113335 57.33 178.7 57.8166691 178.286665 58.3666636 178.08 58.98 178.08 59.3666686 178.08 59.7199984 178.126666 60.04 178.22zM69.45 186.8C69.5633339 186.986668 69.7466654 187.126666 70 187.22L69.34 189.28C68.6866634 189.226666 68.1566687 189.086668 67.75 188.86 67.3433313 188.633332 67.0200012 188.266669 66.78 187.76 66.0866632 188.813339 65.0200072 189.34 63.58 189.34 62.5266614 189.34 61.6866698 189.033336 61.06 188.42 60.4333302 187.806664 60.12 187.006672 60.12 186.02 60.12 184.859994 60.5466624 183.973336 61.4 183.36 62.2533376 182.746664 63.4866586 182.44 65.1 182.44L66.18 182.44 66.18 181.98C66.18 181.35333 66.046668 180.923335 65.78 180.69 65.513332 180.456665 65.04667 180.34 64.38 180.34 64.0333316 180.34 63.6133358 180.389999 63.12 180.49 62.6266642 180.590001 62.1200026 180.726666 61.6 180.9L60.88 178.82C61.54667 178.566665 62.2299965 178.373334 62.93 178.24 63.6300035 178.106666 64.279997 178.04 64.88 178.04 66.4000076 178.04 67.5133298 178.35333 68.22 178.98 68.9266702 179.60667 69.28 180.54666 69.28 181.8L69.28 185.92C69.28 186.320002 69.3366661 186.613332 69.45 186.8zM65.45 186.82C65.7366681 186.646666 65.979999 186.400002 66.18 186.08L66.18 184.18 65.4 184.18C64.6799964 184.18 64.1433351 184.306665 63.79 184.56 63.4366649 184.813335 63.26 185.206664 63.26 185.74 63.26 186.166669 63.3699989 186.496666 63.59 186.73 63.8100011 186.963335 64.1133314 187.08 64.5 187.08 64.8466684 187.08 65.1633319 186.993334 65.45 186.82zM83.77 175.24C84.5366705 175.533335 85.2333302 175.979997 85.86 176.58L84.34 178.36C83.3933286 177.586663 82.3800054 177.2 81.3 177.2 80.7266638 177.2 80.273335 177.316665 79.94 177.55 79.606665 177.783334 79.44 178.119998 79.44 178.56 79.44 178.866668 79.5133326 179.116666 79.66 179.31 79.8066674 179.503334 80.0666648 179.686666 80.44 179.86 80.8133352 180.033334 81.3733296 180.239999 82.12 180.48 83.5333404 180.933336 84.57333 181.489997 85.24 182.15 85.90667 182.810003 86.24 183.746661 86.24 184.96 86.24 185.826671 86.0200022 186.589997 85.58 187.25 85.1399978 187.910003 84.5066708 188.423331 83.68 188.79 82.8533292 189.156668 81.873339 189.34 80.74 189.34 79.606661 189.34 78.6033377 189.160002 77.73 188.8 76.8566623 188.439998 76.1066698 187.960003 75.48 187.36L77.14 185.54C77.673336 185.993336 78.2233305 186.333332 78.79 186.56 79.3566695 186.786668 79.97333 186.9 80.64 186.9 81.3200034 186.9 81.8566647 186.750001 82.25 186.45 82.6433353 186.149999 82.84 185.733336 82.84 185.2 82.84 184.853332 82.7666674 184.563334 82.62 184.33 82.4733326 184.096666 82.2200018 183.886668 81.86 183.7 81.4999982 183.513332 80.9800034 183.313334 80.3 183.1 78.766659 182.633331 77.6766699 182.060003 77.03 181.38 76.3833301 180.699997 76.06 179.840005 76.06 178.8 76.06 177.999996 76.2733312 177.29667 76.7 176.69 77.1266688 176.08333 77.7199962 175.616668 78.48 175.29 79.2400038 174.963332 80.0999952 174.8 81.06 174.8 82.1000052 174.8 83.0033295 174.946665 83.77 175.24zM96.59 186.8C96.7033339 186.986668 96.8866654 187.126666 97.14 187.22L96.48 189.28C95.8266634 189.226666 95.2966687 189.086668 94.89 188.86 94.4833313 188.633332 94.1600012 188.266669 93.92 187.76 93.2266632 188.813339 92.1600072 189.34 90.72 189.34 89.6666614 189.34 88.8266698 189.033336 88.2 188.42 87.5733302 187.806664 87.26 187.006672 87.26 186.02 87.26 184.859994 87.6866624 183.973336 88.54 183.36 89.3933376 182.746664 90.6266586 182.44 92.24 182.44L93.32 182.44 93.32 181.98C93.32 181.35333 93.186668 180.923335 92.92 180.69 92.653332 180.456665 92.18667 180.34 91.52 180.34 91.1733316 180.34 90.7533358 180.389999 90.26 180.49 89.7666642 180.590001 89.2600026 180.726666 88.74 180.9L88.02 178.82C88.68667 178.566665 89.3699965 178.373334 90.07 178.24 90.7700035 178.106666 91.419997 178.04 92.02 178.04 93.5400076 178.04 94.6533298 178.35333 95.36 178.98 96.0666702 179.60667 96.42 180.54666 96.42 181.8L96.42 185.92C96.42 186.320002 96.4766661 186.613332 96.59 186.8zM92.59 186.82C92.8766681 186.646666 93.119999 186.400002 93.32 186.08L93.32 184.18 92.54 184.18C91.8199964 184.18 91.2833351 184.306665 90.93 184.56 90.5766649 184.813335 90.4 185.206664 90.4 185.74 90.4 186.166669 90.5099989 186.496666 90.73 186.73 90.9500011 186.963335 91.2533314 187.08 91.64 187.08 91.9866684 187.08 92.3033319 186.993334 92.59 186.82zM107.32 178.88C107.840003 179.440003 108.1 180.226662 108.1 181.24L108.1 189 104.94 189 104.94 181.78C104.94 181.246664 104.856668 180.876668 104.69 180.67 104.523332 180.463332 104.273335 180.36 103.94 180.36 103.299997 180.36 102.68667 180.819995 102.1 181.74L102.1 189 98.94 189 98.94 178.38 101.7 178.38 101.92 179.64C102.386669 179.106664 102.883331 178.706668 103.41 178.44 103.936669 178.173332 104.519997 178.04 105.16 178.04 106.080005 178.04 106.799997 178.319997 107.32 178.88zM116.36 178.38C117.02667 178.606668 117.613331 178.926665 118.12 179.34L116.96 181.12C116.093329 180.573331 115.220004 180.3 114.34 180.3 113.926665 180.3 113.610001 180.369999 113.39 180.51 113.169999 180.650001 113.06 180.846665 113.06 181.1 113.06 181.300001 113.11 181.463333 113.21 181.59 113.310001 181.716667 113.513332 181.846666 113.82 181.98 114.126668 182.113334 114.599997 182.273332 115.24 182.46 116.346672 182.780002 117.169997 183.196664 117.71 183.71 118.250003 184.223336 118.52 184.933329 118.52 185.84 118.52 186.560004 118.313335 187.183331 117.9 187.71 117.486665 188.236669 116.920004 188.639999 116.2 188.92 115.479996 189.200001 114.680004 189.34 113.8 189.34 112.906662 189.34 112.076671 189.200001 111.31 188.92 110.54333 188.639999 109.893336 188.253336 109.36 187.76L110.9 186.04C111.793338 186.733337 112.733328 187.08 113.72 187.08 114.200002 187.08 114.576665 186.993334 114.85 186.82 115.123335 186.646666 115.26 186.400002 115.26 186.08 115.26 185.826665 115.206667 185.626667 115.1 185.48 114.993333 185.333333 114.786668 185.196667 114.48 185.07 114.173332 184.943333 113.68667 184.786668 113.02 184.6 111.966661 184.293332 111.180003 183.866669 110.66 183.32 110.139997 182.773331 109.88 182.093337 109.88 181.28 109.88 180.666664 110.056665 180.116669 110.41 179.63 110.763335 179.143331 111.269997 178.756668 111.93 178.47 112.590003 178.183332 113.353329 178.04 114.22 178.04 114.980004 178.04 115.69333 178.153332 116.36 178.38zM134.57 182.68C135.150003 183.186669 135.44 183.946662 135.44 184.96 135.44 186.440007 134.910005 187.48333 133.85 188.09 132.789995 188.69667 131.306676 189 129.4 189L124.94 189 124.94 175.14 128.86 175.14C130.806676 175.14 132.293328 175.416664 133.32 175.97 134.346672 176.523336 134.86 177.42666 134.86 178.68 134.86 179.493337 134.616669 180.149998 134.13 180.65 133.643331 181.150002 133.040004 181.486666 132.32 181.66 133.240005 181.833334 133.989997 182.173331 134.57 182.68zM128.22 177.46L128.22 180.68 129.44 180.68C130.826674 180.68 131.52 180.120006 131.52 179 131.52 178.439997 131.333335 178.043335 130.96 177.81 130.586665 177.576665 129.993337 177.46 129.18 177.46L128.22 177.46zM131.39 186.23C131.836669 185.969999 132.06 185.48667 132.06 184.78 132.06 183.499994 131.260008 182.86 129.66 182.86L128.22 182.86 128.22 186.62 129.42 186.62C130.286671 186.62 130.943331 186.490001 131.39 186.23zM145.64 179.53C146.560005 180.523338 147.02 181.913324 147.02 183.7 147.02 184.833339 146.810002 185.823329 146.39 186.67 145.969998 187.516671 145.370004 188.173331 144.59 188.64 143.809996 189.106669 142.886672 189.34 141.82 189.34 140.206659 189.34 138.936671 188.843338 138.01 187.85 137.083329 186.856662 136.62 185.466676 136.62 183.68 136.62 182.546661 136.829998 181.556671 137.25 180.71 137.670002 179.863329 138.269996 179.206669 139.05 178.74 139.830004 178.273331 140.753328 178.04 141.82 178.04 143.446675 178.04 144.719995 178.536662 145.64 179.53zM140.38 181.17C140.059998 181.710003 139.9 182.546661 139.9 183.68 139.9 184.840006 140.056665 185.686664 140.37 186.22 140.683335 186.753336 141.166663 187.02 141.82 187.02 142.460003 187.02 142.939998 186.750003 143.26 186.21 143.580002 185.669997 143.74 184.833339 143.74 183.7 143.74 182.539994 143.583335 181.693336 143.27 181.16 142.956665 180.626664 142.473337 180.36 141.82 180.36 141.179997 180.36 140.700002 180.629997 140.38 181.17zM149.57 188.55C149.056664 188.023331 148.8 187.273338 148.8 186.3L148.8 174.16 151.96 173.82 151.96 186.18C151.96 186.620002 152.139998 186.84 152.5 186.84 152.686668 186.84 152.859999 186.806667 153.02 186.74L153.64 188.98C153.066664 189.220001 152.42667 189.34 151.72 189.34 150.799995 189.34 150.083336 189.076669 149.57 188.55zM164.16 174.16L164.16 189 161.36 189 161.2 187.76C160.879998 188.240002 160.466669 188.623332 159.96 188.91 159.453331 189.196668 158.860003 189.34 158.18 189.34 156.859993 189.34 155.85667 188.833338 155.17 187.82 154.48333 186.806662 154.14 185.420009 154.14 183.66 154.14 182.566661 154.316665 181.596671 154.67 180.75 155.023335 179.903329 155.53333 179.240002 156.2 178.76 156.86667 178.279998 157.646662 178.04 158.54 178.04 159.006669 178.04 159.449998 178.126666 159.87 178.3 160.290002 178.473334 160.666665 178.719998 161 179.04L161 173.82 164.16 174.16zM161 185.84L161 181.24C160.746665 180.946665 160.490001 180.723334 160.23 180.57 159.969999 180.416666 159.680002 180.34 159.36 180.34 158.759997 180.34 158.286668 180.609997 157.94 181.15 157.593332 181.690003 157.42 182.533328 157.42 183.68 157.42 184.920006 157.569999 185.786664 157.87 186.28 158.170002 186.773336 158.606664 187.02 159.18 187.02 159.88667 187.02 160.493331 186.626671 161 185.84z"/>
  </g>
</svg>
