<svg xmlns="http://www.w3.org/2000/svg" width="266.282" height="29" viewBox="0 0 266.282 29">
  <defs>
    <style>
      .cls-1 {
        fill: #4a4a4a;
        fill-rule: evenodd;
      }
    </style>
  </defs>
  <path id="Helvetica-Neue.svg" class="cls-1" d="M507.451,298.026v12.28h15.04v-12.28h3.8v28.56h-3.8v-13.08h-15.04v13.08h-3.8v-28.56h3.8Zm38.34,13.96a5.833,5.833,0,0,0-1.24-1.86,5.9,5.9,0,0,0-1.84-1.24,5.83,5.83,0,0,0-2.34-.46,5.929,5.929,0,0,0-2.38.46,5.5,5.5,0,0,0-1.82,1.26,6.032,6.032,0,0,0-1.2,1.86,7.057,7.057,0,0,0-.52,2.26h11.88A6.99,6.99,0,0,0,545.791,311.986Zm0.82,13.28a9.385,9.385,0,0,1-5.84,1.76,10.625,10.625,0,0,1-4.3-.8,8.462,8.462,0,0,1-3.06-2.24,9.5,9.5,0,0,1-1.86-3.44,16.529,16.529,0,0,1-.7-4.36,12.447,12.447,0,0,1,.72-4.32,10.326,10.326,0,0,1,2.02-3.4,9.165,9.165,0,0,1,3.08-2.24,9.4,9.4,0,0,1,3.9-.8,8.485,8.485,0,0,1,4.58,1.14,9.07,9.07,0,0,1,2.92,2.9,11.481,11.481,0,0,1,1.52,3.84,16.484,16.484,0,0,1,.34,3.96h-15.48a8.2,8.2,0,0,0,.32,2.58,5.823,5.823,0,0,0,1.16,2.16,5.709,5.709,0,0,0,2.04,1.5,7.03,7.03,0,0,0,2.92.56,5.883,5.883,0,0,0,3.54-1,4.836,4.836,0,0,0,1.82-3.04h3.36A8.269,8.269,0,0,1,546.611,325.266Zm10.439-27.24v28.56h-3.4v-28.56h3.4Zm10.96,28.56-7.68-20.68h3.8l5.8,17.24h0.08l5.64-17.24h3.56l-7.56,20.68h-3.64Zm28.14-14.6a5.833,5.833,0,0,0-1.24-1.86,5.9,5.9,0,0,0-1.84-1.24,5.83,5.83,0,0,0-2.34-.46,5.929,5.929,0,0,0-2.38.46,5.5,5.5,0,0,0-1.82,1.26,6.032,6.032,0,0,0-1.2,1.86,7.057,7.057,0,0,0-.52,2.26h11.88A6.99,6.99,0,0,0,596.15,311.986Zm0.82,13.28a9.385,9.385,0,0,1-5.84,1.76,10.625,10.625,0,0,1-4.3-.8,8.462,8.462,0,0,1-3.06-2.24,9.5,9.5,0,0,1-1.86-3.44,16.529,16.529,0,0,1-.7-4.36,12.447,12.447,0,0,1,.72-4.32,10.326,10.326,0,0,1,2.02-3.4,9.165,9.165,0,0,1,3.08-2.24,9.4,9.4,0,0,1,3.9-.8,8.485,8.485,0,0,1,4.58,1.14,9.07,9.07,0,0,1,2.92,2.9,11.481,11.481,0,0,1,1.52,3.84,16.484,16.484,0,0,1,.34,3.96H584.81a8.2,8.2,0,0,0,.32,2.58,5.823,5.823,0,0,0,1.16,2.16,5.709,5.709,0,0,0,2.04,1.5,7.03,7.03,0,0,0,2.92.56,5.883,5.883,0,0,0,3.54-1,4.836,4.836,0,0,0,1.82-3.04h3.36A8.269,8.269,0,0,1,596.97,325.266Zm15.679-19.36v3h-4.12v12.84a3.7,3.7,0,0,0,.1.96,0.983,0.983,0,0,0,.38.56,1.666,1.666,0,0,0,.78.26,11.327,11.327,0,0,0,1.3.06h1.56v3h-2.6a12.2,12.2,0,0,1-2.26-.18,3.315,3.315,0,0,1-1.52-.66,2.812,2.812,0,0,1-.86-1.36,7.843,7.843,0,0,1-.28-2.32v-13.16h-3.52v-3h3.52v-6.2h3.4v6.2h4.12Zm3.96-3.72v-4.16h3.4v4.16h-3.4Zm3.4,3.72v20.68h-3.4v-20.68h3.4Zm17.639,3.6a5.162,5.162,0,0,0-3.44-1.08,6.341,6.341,0,0,0-3.08.68,5.5,5.5,0,0,0-1.98,1.8,7.559,7.559,0,0,0-1.06,2.58,14.029,14.029,0,0,0-.32,3.02,11.481,11.481,0,0,0,.34,2.8,7.481,7.481,0,0,0,1.06,2.42,5.355,5.355,0,0,0,1.88,1.7,5.624,5.624,0,0,0,2.76.64,5.565,5.565,0,0,0,3.94-1.32,5.967,5.967,0,0,0,1.74-3.72h3.48a9.527,9.527,0,0,1-2.86,5.92,8.984,8.984,0,0,1-6.26,2.08,10.78,10.78,0,0,1-4.18-.76,8.084,8.084,0,0,1-3.04-2.16,9.318,9.318,0,0,1-1.84-3.34,13.911,13.911,0,0,1-.62-4.26,15.18,15.18,0,0,1,.6-4.34,10.032,10.032,0,0,1,1.82-3.52,8.544,8.544,0,0,1,3.06-2.36,10.012,10.012,0,0,1,4.28-.86,12.5,12.5,0,0,1,3.3.42,8.058,8.058,0,0,1,2.72,1.3,7.118,7.118,0,0,1,1.94,2.22,8.2,8.2,0,0,1,.96,3.18h-3.52A5.187,5.187,0,0,0,637.648,309.506Zm27.439,14.36a4.1,4.1,0,0,1-1.04.16,0.825,0.825,0,0,1-.94-0.559,7.934,7.934,0,0,1-.14-1.756V311.093a5.541,5.541,0,0,0-.68-2.913,4.788,4.788,0,0,0-1.8-1.736,7.28,7.28,0,0,0-2.5-.818,19.4,19.4,0,0,0-2.78-.2,14.475,14.475,0,0,0-3.3.36,8.074,8.074,0,0,0-2.74,1.18,6.068,6.068,0,0,0-1.92,2.14,7.353,7.353,0,0,0-.8,3.24h3.4a3.481,3.481,0,0,1,1.56-3.1,7.2,7.2,0,0,1,3.6-.82,11.163,11.163,0,0,1,1.62.12,4.389,4.389,0,0,1,1.48.48,2.883,2.883,0,0,1,1.08,1.04,3.4,3.4,0,0,1,.42,1.8,1.853,1.853,0,0,1-.56,1.46,3.685,3.685,0,0,1-1.52.76,14.693,14.693,0,0,1-2.22.4q-1.26.141-2.66,0.42-1.32.24-2.58,0.6a7.262,7.262,0,0,0-2.24,1.06,5.247,5.247,0,0,0-1.58,1.82,6.076,6.076,0,0,0-.6,2.88,5.988,5.988,0,0,0,.54,2.66,4.794,4.794,0,0,0,1.46,1.78,6.173,6.173,0,0,0,2.18,1,11.26,11.26,0,0,0,6.68-.42,8.129,8.129,0,0,0,3.26-2.42,3.216,3.216,0,0,0,.78,2.42,2.927,2.927,0,0,0,2.1.74,4.814,4.814,0,0,0,2.44-.52v-2.64Zm-5.52-4.5a3.811,3.811,0,0,1-.36,1.533,4.555,4.555,0,0,1-1.12,1.512,6.06,6.06,0,0,1-1.96,1.154,8.093,8.093,0,0,1-2.88.458,7.036,7.036,0,0,1-1.52-.159,3.715,3.715,0,0,1-1.26-.517,2.831,2.831,0,0,1-.88-0.936,2.748,2.748,0,0,1-.34-1.413,3.17,3.17,0,0,1,.58-2.01,3.781,3.781,0,0,1,1.5-1.134,8.5,8.5,0,0,1,2.08-.577q1.161-.18,2.3-0.319t2.18-.358a4.227,4.227,0,0,0,1.68-.7v3.463Zm24.36-21.343,15.04,23.16h0.08v-23.16h3.6v28.56h-4.16l-14.92-22.92h-0.08v22.92h-3.6v-28.56h4.04Zm38.139,13.96a5.789,5.789,0,0,0-5.42-3.56,5.933,5.933,0,0,0-2.38.46,5.506,5.506,0,0,0-1.82,1.26,6.032,6.032,0,0,0-1.2,1.86,7.084,7.084,0,0,0-.52,2.26h11.88A6.94,6.94,0,0,0,722.066,311.986Zm0.82,13.28a9.383,9.383,0,0,1-5.84,1.76,10.628,10.628,0,0,1-4.3-.8,8.479,8.479,0,0,1-3.06-2.24,9.5,9.5,0,0,1-1.86-3.44,16.57,16.57,0,0,1-.7-4.36,12.447,12.447,0,0,1,.72-4.32,10.326,10.326,0,0,1,2.02-3.4,9.175,9.175,0,0,1,3.08-2.24,9.411,9.411,0,0,1,3.9-.8,8.483,8.483,0,0,1,4.58,1.14,9.061,9.061,0,0,1,2.92,2.9,11.481,11.481,0,0,1,1.52,3.84,16.484,16.484,0,0,1,.34,3.96h-15.48a8.2,8.2,0,0,0,.32,2.58,5.838,5.838,0,0,0,1.16,2.16,5.709,5.709,0,0,0,2.04,1.5,7.033,7.033,0,0,0,2.92.56,5.883,5.883,0,0,0,3.54-1,4.832,4.832,0,0,0,1.82-3.04h3.36A8.26,8.26,0,0,1,722.886,325.266Zm20.76,1.32v-3.28h-0.08a6.948,6.948,0,0,1-2.76,2.82,8.268,8.268,0,0,1-3.96.9,9.271,9.271,0,0,1-3.4-.54,5.416,5.416,0,0,1-2.2-1.54,5.783,5.783,0,0,1-1.18-2.38,12.78,12.78,0,0,1-.34-3.06v-13.6h3.4v14a4.105,4.105,0,0,0,1.12,3.04,4.159,4.159,0,0,0,3.08,1.12,6.929,6.929,0,0,0,2.7-.48,5.062,5.062,0,0,0,1.9-1.36,5.872,5.872,0,0,0,1.14-2.06,8.381,8.381,0,0,0,.38-2.58v-11.68h3.4v20.68h-3.2Zm22.14-14.6a5.833,5.833,0,0,0-1.24-1.86,5.9,5.9,0,0,0-1.84-1.24,5.83,5.83,0,0,0-2.34-.46,5.929,5.929,0,0,0-2.38.46,5.5,5.5,0,0,0-1.82,1.26,6.032,6.032,0,0,0-1.2,1.86,7.057,7.057,0,0,0-.52,2.26h11.88A6.99,6.99,0,0,0,765.786,311.986Zm0.82,13.28a9.385,9.385,0,0,1-5.84,1.76,10.625,10.625,0,0,1-4.3-.8,8.462,8.462,0,0,1-3.06-2.24,9.5,9.5,0,0,1-1.86-3.44,16.529,16.529,0,0,1-.7-4.36,12.447,12.447,0,0,1,.72-4.32,10.326,10.326,0,0,1,2.02-3.4,9.165,9.165,0,0,1,3.08-2.24,9.4,9.4,0,0,1,3.9-.8,8.485,8.485,0,0,1,4.58,1.14,9.07,9.07,0,0,1,2.92,2.9,11.481,11.481,0,0,1,1.52,3.84,16.484,16.484,0,0,1,.34,3.96h-15.48a8.2,8.2,0,0,0,.32,2.58,5.823,5.823,0,0,0,1.16,2.16,5.709,5.709,0,0,0,2.04,1.5,7.03,7.03,0,0,0,2.92.56,5.883,5.883,0,0,0,3.54-1,4.836,4.836,0,0,0,1.82-3.04h3.36A8.269,8.269,0,0,1,766.606,325.266Z" transform="translate(-503.656 -298.031)"/>
</svg>
