<svg xmlns="http://www.w3.org/2000/svg" width="271.25" height="31.562" viewBox="0 0 271.25 31.562">
  <defs>
    <style>
      .cls-1 {
        fill: #4a4a4a;
        fill-rule: evenodd;
      }
    </style>
  </defs>
  <path id="Lucida-Grande.svg" class="cls-1" d="M187.371,345.586V342.52H174.363V316.68h-4.1v28.906h17.109Zm21.445,0V324.375h-3.847v13.75q-3.126,4.629-6.641,4.629a2.606,2.606,0,0,1-2.314-1.006,6.188,6.188,0,0,1-.694-3.389V324.375h-3.847v15.234a6.616,6.616,0,0,0,1.64,4.717,5.762,5.762,0,0,0,4.414,1.748q4.375,0,7.442-4.472v3.984h3.847Zm22.442-.645v-3.32a12.449,12.449,0,0,1-5.43,1.348,5.951,5.951,0,0,1-4.805-2.207,8.745,8.745,0,0,1-1.835-5.782,9.134,9.134,0,0,1,1.787-5.908,5.782,5.782,0,0,1,4.736-2.217,19.846,19.846,0,0,1,5.312.957V324.59a25.7,25.7,0,0,0-5.546-.684q-5.02,0-7.823,2.891t-2.8,8.066a11.626,11.626,0,0,0,2.832,8.028,9.134,9.134,0,0,0,7.128,3.183,22.723,22.723,0,0,0,6.446-1.133h0Zm9.609,0.645V324.375H237.02v21.211h3.847Zm0-25.059V316.68H237.02v3.847h3.847Zm25.2,25.059v-30.84H262.2V326.8a8.237,8.237,0,0,0-12.8.332,13.547,13.547,0,0,0-2.491,8.516,12.037,12.037,0,0,0,2.2,7.636,7.247,7.247,0,0,0,6.025,2.793,7.554,7.554,0,0,0,7.07-4.472v3.984h3.867ZM262.2,339.2q-3.066,3.5-6.269,3.5-4.921,0-4.922-7.441,0-8.457,5.527-8.457,2.676,0,5.664,2.637V339.2Zm25.938,6.875a6.611,6.611,0,0,0,2.89-.625l-0.273-2.129a5.124,5.124,0,0,1-.742.078q-2.032,0-2.031-3.3v-9.61q0-3.378-1.69-4.98t-5.244-1.6a19.4,19.4,0,0,0-7.285,1.582v3.184a14.165,14.165,0,0,1,6.582-1.875q3.789,0,3.789,3.691v2.559h-0.918q-5.45,0-8.369,1.865a5.973,5.973,0,0,0-2.92,5.342,5.5,5.5,0,0,0,1.738,4.17,6.1,6.1,0,0,0,4.375,1.65q3.2,0,6.66-3.183,0.743,3.183,3.438,3.183h0Zm-9-3.144a3.276,3.276,0,0,1-2.383-.957,3.154,3.154,0,0,1-.976-2.344,3.593,3.593,0,0,1,1.953-3.154,9.661,9.661,0,0,1,5.117-1.2l1.289,0.039V340.8a8.019,8.019,0,0,1-5,2.129h0Zm50.976-9.825h-4.082v9.415a15.355,15.355,0,0,1-4.433.722,9.776,9.776,0,0,1-7.774-3.174q-2.773-3.173-2.773-8.9,0-5.781,2.588-8.965a8.848,8.848,0,0,1,7.275-3.184,31.217,31.217,0,0,1,9.16,2.032v-3.789a34.608,34.608,0,0,0-9.179-1.309q-6.738,0-10.469,3.994t-3.73,11.182q0,7.325,3.681,11.25t10.576,3.926a33.977,33.977,0,0,0,9.16-1.5v-11.7Zm11.153,12.481V331.6q2.46-4.336,6.113-4.336a5.638,5.638,0,0,1,1.758.332V324a8.244,8.244,0,0,0-1.231-.1q-4.355,0-6.64,4.453v-3.984H337.41v21.211h3.848Zm26.894,0.488a6.618,6.618,0,0,0,2.891-.625l-0.273-2.129a5.135,5.135,0,0,1-.743.078q-2.031,0-2.031-3.3v-9.61q0-3.378-1.689-4.98t-5.245-1.6a19.4,19.4,0,0,0-7.285,1.582v3.184a14.168,14.168,0,0,1,6.582-1.875q3.789,0,3.789,3.691v2.559H363.23q-5.448,0-8.369,1.865a5.975,5.975,0,0,0-2.92,5.342,5.5,5.5,0,0,0,1.739,4.17,6.1,6.1,0,0,0,4.375,1.65q3.2,0,6.66-3.183,0.743,3.183,3.437,3.183h0Zm-9-3.144a3.275,3.275,0,0,1-2.382-.957,3.152,3.152,0,0,1-.977-2.344,3.6,3.6,0,0,1,1.953-3.154,9.663,9.663,0,0,1,5.117-1.2l1.289,0.039V340.8a8.015,8.015,0,0,1-5,2.129h0Zm20.567,2.656V331.855q3.125-4.628,6.66-4.628a2.587,2.587,0,0,1,2.3,1.005,6.156,6.156,0,0,1,.693,3.37v13.984h3.848V330.352a6.589,6.589,0,0,0-1.641-4.7,5.739,5.739,0,0,0-4.394-1.748q-4.414,0-7.461,4.453v-3.984h-3.848v21.211h3.848Zm38.457,0v-30.84h-3.867V326.8a8.238,8.238,0,0,0-12.8.332,13.553,13.553,0,0,0-2.49,8.516,12.037,12.037,0,0,0,2.2,7.636,7.248,7.248,0,0,0,6.025,2.793,7.556,7.556,0,0,0,7.071-4.472v3.984h3.867Zm-3.867-6.387q-3.068,3.5-6.27,3.5-4.921,0-4.922-7.441,0-8.457,5.528-8.457,2.674,0,5.664,2.637V339.2Zm27.109,2.656a17.67,17.67,0,0,1-5.9,1.29q-6.562,0-7.4-7.559h13.379l0.02-1.191q0-5.04-2.1-7.774a7.059,7.059,0,0,0-5.947-2.734,8.339,8.339,0,0,0-6.67,3.086,11.834,11.834,0,0,0-2.607,7.91,11.249,11.249,0,0,0,2.958,8.076,10.074,10.074,0,0,0,7.647,3.115,23.424,23.424,0,0,0,6.621-1.172v-3.047Zm-8.184-15.078q4.414,0,4.415,5.918h-9.356q0.509-5.917,4.941-5.918h0Z" transform="translate(-170.25 -314.75)"/>
</svg>
