<svg xmlns="http://www.w3.org/2000/svg" width="260.531" height="30.688" viewBox="0 0 260.531 30.688">
  <defs>
    <style>
      .cls-1 {
        fill: #4a4a4a;
        fill-rule: evenodd;
      }
    </style>
  </defs>
  <path id="San-Francisco.svg" class="cls-1" d="M172.332,407.223h-3.555a7.846,7.846,0,0,0,1.534,4.218,8.822,8.822,0,0,0,3.662,2.813,13.179,13.179,0,0,0,5.273,1,13.862,13.862,0,0,0,5.576-1.035,8.234,8.234,0,0,0,3.662-2.959,7.857,7.857,0,0,0,1.289-4.483,7.212,7.212,0,0,0-.83-3.574,6.784,6.784,0,0,0-2.617-2.519,18.659,18.659,0,0,0-4.736-1.778l-2.949-.781a11.06,11.06,0,0,1-4.17-1.777,3.324,3.324,0,0,1-1.26-2.7,4.144,4.144,0,0,1,.771-2.48,4.934,4.934,0,0,1,2.188-1.66,8.494,8.494,0,0,1,3.271-.586,7.208,7.208,0,0,1,4.327,1.221,5.056,5.056,0,0,1,2.06,3.388h3.535a7.4,7.4,0,0,0-1.445-4.023,8.759,8.759,0,0,0-3.486-2.774,11.586,11.586,0,0,0-4.873-1,12.673,12.673,0,0,0-5.2,1.006,8.152,8.152,0,0,0-3.506,2.832,7.236,7.236,0,0,0-1.25,4.19,6.685,6.685,0,0,0,1.738,4.824,11.423,11.423,0,0,0,5.566,2.773l3.614,0.938a10.593,10.593,0,0,1,4.277,1.924,3.77,3.77,0,0,1,1.367,2.978,3.976,3.976,0,0,1-.849,2.49,5.607,5.607,0,0,1-2.354,1.729,8.725,8.725,0,0,1-3.379.625,10.07,10.07,0,0,1-3.555-.586,6.131,6.131,0,0,1-2.519-1.68,4.877,4.877,0,0,1-1.172-2.558h0Zm28.711,7.734a7.918,7.918,0,0,0,3.789-.9,6.921,6.921,0,0,0,2.695-2.579h0.313v3.106h3.2V400.172a7.211,7.211,0,0,0-.938-3.76A6.084,6.084,0,0,0,207.371,394a10.178,10.178,0,0,0-4.336-.84,11.083,11.083,0,0,0-4.023.694,7.261,7.261,0,0,0-2.91,1.962,5.425,5.425,0,0,0-1.329,2.95h3.4a3.121,3.121,0,0,1,1.6-1.934,6.5,6.5,0,0,1,3.145-.684,5.34,5.34,0,0,1,3.555,1.036,3.715,3.715,0,0,1,1.211,2.988v1.914l-6.075.371a9.822,9.822,0,0,0-5.683,1.816,5.354,5.354,0,0,0-1.992,4.415,5.94,5.94,0,0,0,.918,3.31,6.044,6.044,0,0,0,2.539,2.188,8.4,8.4,0,0,0,3.652.771h0Zm0.625-2.949a4.919,4.919,0,0,1-3.066-.908,2.961,2.961,0,0,1-1.192-2.491,2.871,2.871,0,0,1,1.113-2.441,6.573,6.573,0,0,1,3.5-1l5.664-.371v1.933a4.82,4.82,0,0,1-.782,2.686,5.414,5.414,0,0,1-2.158,1.894,6.732,6.732,0,0,1-3.076.694h0Zm15.586-18.477v21.055h3.359V402.125a6.9,6.9,0,0,1,.684-3.164,4.837,4.837,0,0,1,1.924-2.061,5.759,5.759,0,0,1,2.92-.712,4.744,4.744,0,0,1,3.74,1.376,6.207,6.207,0,0,1,1.221,4.209v12.813h3.359V400.953a8.071,8.071,0,0,0-1.914-5.771,7.144,7.144,0,0,0-5.449-2.022,7.518,7.518,0,0,0-3.936.947,6.028,6.028,0,0,0-2.392,2.745h-0.313v-3.321h-3.2Zm35.058,21.055h3.516V402.379h12.481v-3.125H255.828v-9.688h13.594V386.4h-17.11v28.184Zm22.461-21.055v21.055h3.36V401.539a4.968,4.968,0,0,1,.713-2.637,4.911,4.911,0,0,1,1.972-1.826,6.076,6.076,0,0,1,2.842-.654q0.488,0,1.211.068a7.233,7.233,0,0,1,.938.127v-3.359a12.717,12.717,0,0,0-1.68-.1,7.5,7.5,0,0,0-2.608.449,6.085,6.085,0,0,0-2.07,1.241,4.091,4.091,0,0,0-1.162,1.806h-0.312v-3.125h-3.2Zm21.094,21.426a7.918,7.918,0,0,0,3.789-.9,6.931,6.931,0,0,0,2.7-2.579h0.312v3.106h3.2V400.172a7.21,7.21,0,0,0-.937-3.76A6.087,6.087,0,0,0,302.2,394a10.178,10.178,0,0,0-4.336-.84,11.083,11.083,0,0,0-4.023.694,7.261,7.261,0,0,0-2.91,1.962,5.423,5.423,0,0,0-1.328,2.95H293a3.119,3.119,0,0,1,1.6-1.934,6.492,6.492,0,0,1,3.144-.684,5.338,5.338,0,0,1,3.555,1.036,3.715,3.715,0,0,1,1.211,2.988v1.914l-6.074.371a9.826,9.826,0,0,0-5.684,1.816,5.354,5.354,0,0,0-1.992,4.415,5.948,5.948,0,0,0,.918,3.31,6.05,6.05,0,0,0,2.539,2.188,8.4,8.4,0,0,0,3.652.771h0Zm0.625-2.949a4.919,4.919,0,0,1-3.066-.908,2.961,2.961,0,0,1-1.192-2.491,2.869,2.869,0,0,1,1.114-2.441,6.566,6.566,0,0,1,3.5-1l5.664-.371v1.933a4.827,4.827,0,0,1-.781,2.686,5.417,5.417,0,0,1-2.159,1.894,6.732,6.732,0,0,1-3.076.694h0Zm15.586-18.477v21.055h3.36V402.125a6.9,6.9,0,0,1,.683-3.164,4.837,4.837,0,0,1,1.924-2.061,5.761,5.761,0,0,1,2.92-.712,4.743,4.743,0,0,1,3.74,1.376,6.2,6.2,0,0,1,1.221,4.209v12.813h3.359V400.953a8.071,8.071,0,0,0-1.914-5.771,7.144,7.144,0,0,0-5.449-2.022,7.518,7.518,0,0,0-3.936.947,6.034,6.034,0,0,0-2.392,2.745h-0.313v-3.321h-3.2Zm37.363,6.446h3.4a7.728,7.728,0,0,0-1.426-3.457,7.918,7.918,0,0,0-3.027-2.452,10.016,10.016,0,0,0-4.375-.908,9.571,9.571,0,0,0-5.1,1.338,8.82,8.82,0,0,0-3.369,3.779,12.95,12.95,0,0,0-1.182,5.7,13.348,13.348,0,0,0,1.182,5.8,8.832,8.832,0,0,0,3.369,3.828,9.552,9.552,0,0,0,5.117,1.348,10.391,10.391,0,0,0,4.346-.859,7.624,7.624,0,0,0,3.018-2.383,7.812,7.812,0,0,0,1.445-3.477h-3.4a4.579,4.579,0,0,1-1.884,2.735,6.2,6.2,0,0,1-3.545.957,5.532,5.532,0,0,1-3.252-.977,6.255,6.255,0,0,1-2.158-2.773,10.7,10.7,0,0,1-.762-4.2,10.407,10.407,0,0,1,.752-4.121,6.1,6.1,0,0,1,2.148-2.714,5.647,5.647,0,0,1,3.272-.957,5.8,5.8,0,0,1,3.584,1.064,4.847,4.847,0,0,1,1.845,2.725h0Zm10.118-10.723a2.245,2.245,0,0,0,1.66-.693,2.341,2.341,0,0,0-3.311-3.311,2.349,2.349,0,0,0,1.651,4h0Zm-1.68,4.277v21.055h3.359V393.531h-3.359Zm9.277,5.762a4.857,4.857,0,0,0,1.377,3.623A9.251,9.251,0,0,0,372.9,405l3.614,0.879q3.339,0.821,3.34,2.969a2.566,2.566,0,0,1-.625,1.7,4.115,4.115,0,0,1-1.729,1.162,7.019,7.019,0,0,1-2.51.42,6.163,6.163,0,0,1-3.242-.771,3.76,3.76,0,0,1-1.7-2.139H366.59a5.488,5.488,0,0,0,1.26,3.037,6.961,6.961,0,0,0,2.89,2,11.321,11.321,0,0,0,4.131.7,10.981,10.981,0,0,0,4.307-.811,7.253,7.253,0,0,0,3.027-2.255,5.294,5.294,0,0,0,1.1-3.3,4.758,4.758,0,0,0-1.436-3.613,9.651,9.651,0,0,0-4.443-2.09l-3.242-.782a7.118,7.118,0,0,1-2.764-1.162,2.2,2.2,0,0,1-.889-1.787,2.5,2.5,0,0,1,.586-1.631,3.846,3.846,0,0,1,1.6-1.113,6.127,6.127,0,0,1,2.265-.4,5.712,5.712,0,0,1,3.076.752,3.4,3.4,0,0,1,1.553,2.041h3.321a5.729,5.729,0,0,0-1.26-2.989,6.784,6.784,0,0,0-2.764-1.962,10.355,10.355,0,0,0-3.906-.694,9.726,9.726,0,0,0-4,.8,6.844,6.844,0,0,0-2.822,2.207,5.177,5.177,0,0,0-1.026,3.125h0Zm35.449,0.684H406a7.728,7.728,0,0,0-1.426-3.457,7.918,7.918,0,0,0-3.027-2.452,10.016,10.016,0,0,0-4.375-.908,9.571,9.571,0,0,0-5.1,1.338,8.82,8.82,0,0,0-3.369,3.779,12.95,12.95,0,0,0-1.182,5.7,13.348,13.348,0,0,0,1.182,5.8,8.832,8.832,0,0,0,3.369,3.828,9.552,9.552,0,0,0,5.117,1.348,10.391,10.391,0,0,0,4.346-.859,7.624,7.624,0,0,0,3.018-2.383A7.812,7.812,0,0,0,406,408.238h-3.4a4.579,4.579,0,0,1-1.884,2.735,6.2,6.2,0,0,1-3.545.957,5.532,5.532,0,0,1-3.252-.977,6.255,6.255,0,0,1-2.158-2.773,10.7,10.7,0,0,1-.762-4.2,10.407,10.407,0,0,1,.752-4.121,6.1,6.1,0,0,1,2.148-2.714,5.647,5.647,0,0,1,3.272-.957,5.8,5.8,0,0,1,3.584,1.064,4.847,4.847,0,0,1,1.845,2.725h0Zm17.012,14.98a9.849,9.849,0,0,0,5.166-1.318,8.6,8.6,0,0,0,3.369-3.77,15.014,15.014,0,0,0,0-11.631,8.547,8.547,0,0,0-3.359-3.769,10.888,10.888,0,0,0-10.352,0,8.547,8.547,0,0,0-3.359,3.769,15.014,15.014,0,0,0,0,11.631,8.6,8.6,0,0,0,3.369,3.77,9.849,9.849,0,0,0,5.166,1.318h0Zm0-3.027a5.521,5.521,0,0,1-4.609-2.061,11.224,11.224,0,0,1,0-11.621,6.187,6.187,0,0,1,9.219,0,11.224,11.224,0,0,1,0,11.621,5.524,5.524,0,0,1-4.61,2.061h0Z" transform="translate(-168.781 -384.562)"/>
</svg>
