<svg xmlns="http://www.w3.org/2000/svg" width="129.594" height="31.657" viewBox="0 0 129.594 31.657">
  <defs>
    <style>
      .cls-1 {
        fill: #4a4a4a;
        fill-rule: evenodd;
      }
    </style>
  </defs>
  <path id="Ubuntu.svg" class="cls-1" d="M516.991,414.346a9.037,9.037,0,0,0,3.28-2.3,9.241,9.241,0,0,0,1.92-3.46,14.528,14.528,0,0,0,.62-4.32v-17.4h-3.88v16.96a11.809,11.809,0,0,1-.48,3.58,6.532,6.532,0,0,1-1.36,2.46,5.387,5.387,0,0,1-2.1,1.42,7.6,7.6,0,0,1-2.7.46,6.414,6.414,0,0,1-4.8-1.88q-1.84-1.88-1.84-6.04v-16.96h-3.88v17.4a14.5,14.5,0,0,0,.62,4.32,9.385,9.385,0,0,0,1.9,3.46,8.8,8.8,0,0,0,3.28,2.3,12.132,12.132,0,0,0,4.72.84A11.986,11.986,0,0,0,516.991,414.346Zm15.98-30.8-3.72.64v29.8q1.28,0.36,3.28.72a26.18,26.18,0,0,0,4.6.36,11.667,11.667,0,0,0,4.32-.76,9.242,9.242,0,0,0,3.28-2.16,9.557,9.557,0,0,0,2.1-3.42,13.134,13.134,0,0,0,.74-4.54,14.82,14.82,0,0,0-.62-4.4,9.88,9.88,0,0,0-1.82-3.44,8.279,8.279,0,0,0-2.94-2.24,9.435,9.435,0,0,0-3.98-.8,9.665,9.665,0,0,0-3.18.48,10.05,10.05,0,0,0-2.06.92v-11.16Zm0,14.64a7.66,7.66,0,0,1,1.96-1.08,7.38,7.38,0,0,1,2.8-.52,5.992,5.992,0,0,1,2.74.58,5.033,5.033,0,0,1,1.86,1.6,6.773,6.773,0,0,1,1.04,2.42,13.47,13.47,0,0,1,.32,3,8.063,8.063,0,0,1-1.8,5.62,6.172,6.172,0,0,1-4.8,1.98,19.06,19.06,0,0,1-2.54-.14,11.917,11.917,0,0,1-1.58-.3v-13.16Zm36.4-4.4h-3.72v17.56a2.951,2.951,0,0,1-.66.14q-0.461.06-1.02,0.12t-1.2.1q-0.64.04-1.24,0.04a4.673,4.673,0,0,1-4.04-1.64q-1.2-1.639-1.2-5.44v-10.88h-3.72v11.68a15.76,15.76,0,0,0,.44,3.86,8.027,8.027,0,0,0,1.44,3.02,6.516,6.516,0,0,0,2.64,1.98,10.312,10.312,0,0,0,4.04.7,29.05,29.05,0,0,0,4.86-.36q2.1-.36,3.38-0.68v-20.2Zm6.4,20.8h3.72v-17.56q0.2-.039.66-0.12t1.04-.14q0.579-.06,1.22-0.1t1.24-.04a7.04,7.04,0,0,1,2.48.38,3.411,3.411,0,0,1,1.6,1.22,5.559,5.559,0,0,1,.86,2.2,17.79,17.79,0,0,1,.26,3.28v10.88h3.72v-11.68a17.567,17.567,0,0,0-.4-3.88,7.592,7.592,0,0,0-1.38-3.02,6.454,6.454,0,0,0-2.62-1.96,10.555,10.555,0,0,0-4.12-.7,29.413,29.413,0,0,0-4.88.36q-2.121.36-3.4,0.68v20.2Zm26.44-27.24-3.72.64v18.56a17.507,17.507,0,0,0,.34,3.66,6.475,6.475,0,0,0,1.18,2.66,5.1,5.1,0,0,0,2.22,1.62,9.7,9.7,0,0,0,3.5.54,11.148,11.148,0,0,0,3.2-.42,13.817,13.817,0,0,0,1.96-.7l-0.72-3.08q-0.4.16-1.42,0.54a7.885,7.885,0,0,1-2.7.38,5.318,5.318,0,0,1-1.68-.24,2.588,2.588,0,0,1-1.2-.82,3.872,3.872,0,0,1-.72-1.6,11.538,11.538,0,0,1-.24-2.58v-9.6h7.88v-3.12h-7.88v-6.44Zm29.159,6.44h-3.72v17.56a2.951,2.951,0,0,1-.66.14q-0.461.06-1.02,0.12t-1.2.1q-0.64.04-1.24,0.04a4.673,4.673,0,0,1-4.04-1.64q-1.2-1.639-1.2-5.44v-10.88h-3.72v11.68a15.712,15.712,0,0,0,.44,3.86,8.027,8.027,0,0,0,1.44,3.02,6.516,6.516,0,0,0,2.64,1.98,10.312,10.312,0,0,0,4.04.7,29.05,29.05,0,0,0,4.86-.36q2.1-.36,3.38-0.68v-20.2Z" transform="translate(-501.781 -383.531)"/>
</svg>
