<svg id="languages_icon.svg" xmlns="http://www.w3.org/2000/svg" width="70" height="70" viewBox="0 0 70 70">
  <defs>
    <style>
      .cls-1 {
        fill: #6a6a6a;
      }

      .cls-1, .cls-2, .cls-3 {
        fill-rule: evenodd;
      }

      .cls-2 {
        fill: none;
        stroke: #acacac;
        stroke-linejoin: round;
        stroke-width: 1px;
      }

      .cls-3 {
        fill: #acacac;
      }
    </style>
  </defs>
  <path class="cls-1" d="M729.935,1032.69l1.7,13.28-14.58-1.87A35.008,35.008,0,1,1,729.935,1032.69Z" transform="translate(-666 -978)"/>
  <path id="Ellipse_2_copy_2" data-name="Ellipse 2 copy 2" class="cls-2" d="M675.239,1022.1a27.344,27.344,0,1,1,50.343,2.81A39.345,39.345,0,0,1,675.239,1022.1Z" transform="translate(-666 -978)"/>
  <path id="Ellipse_2_copy_3" data-name="Ellipse 2 copy 3" class="cls-2" d="M678.965,996.813a27.343,27.343,0,0,1,49.228,19.057A39.367,39.367,0,0,1,678.965,996.813Z" transform="translate(-666 -978)"/>
  <path id="Ellipse_2_copy_7" data-name="Ellipse 2 copy 7" class="cls-2" d="M718.5,1021.75a39.315,39.315,0,0,1-2.645,14.19,27.332,27.332,0,1,1-19.914-49.8A39.373,39.373,0,0,1,718.5,1021.75Z" transform="translate(-666 -978)"/>
  <path id="Ellipse_2_copy_4" data-name="Ellipse 2 copy 4" class="cls-2" d="M701,1040.34a27.233,27.233,0,0,1-16.02-5.21,39.385,39.385,0,0,1,37.895-28.69,38.683,38.683,0,0,1,4.718.29A27.256,27.256,0,0,1,701,1040.34Z" transform="translate(-666 -978)"/>
  <path id="Ellipse_2_copy_5" data-name="Ellipse 2 copy 5" class="cls-2" d="M701,1040.34a27.3,27.3,0,0,1-23.615-13.6,39.387,39.387,0,0,1,38.928-33.427c1.3,0,2.578.066,3.842,0.189A27.33,27.33,0,0,1,701,1040.34Z" transform="translate(-666 -978)"/>
  <path id="Ellipse_3_copy_4" data-name="Ellipse 3 copy 4" class="cls-3" d="M707.016,992.219a2.734,2.734,0,1,1-2.735,2.734A2.734,2.734,0,0,1,707.016,992.219Zm-19.688,12.031a2.735,2.735,0,1,1-2.734,2.73A2.731,2.731,0,0,1,687.328,1004.25Zm10.938,7.66a2.73,2.73,0,1,1-2.735,2.73A2.731,2.731,0,0,1,698.266,1011.91Zm17.5-7.66a2.735,2.735,0,1,1-2.735,2.73A2.731,2.731,0,0,1,715.766,1004.25Zm1.093,10.94a2.735,2.735,0,1,1-2.734,2.73A2.731,2.731,0,0,1,716.859,1015.19Zm0,10.93a2.735,2.735,0,1,1-2.734,2.74A2.739,2.739,0,0,1,716.859,1026.12Zm-29.531,1.1a2.735,2.735,0,1,1-2.734,2.73A2.731,2.731,0,0,1,687.328,1027.22Zm-8.75-6.56a2.73,2.73,0,1,1-2.734,2.73A2.731,2.731,0,0,1,678.578,1020.66Z" transform="translate(-666 -978)"/>
</svg>
