<svg id="voice_icon.svg" xmlns="http://www.w3.org/2000/svg" width="89" height="74" viewBox="0 0 89 74">
  <defs>
    <style>
      .cls-1, .cls-2 {
        fill: #6a6a6a;
        fill-rule: evenodd;
      }

      .cls-2 {
        opacity: 0.5;
      }
    </style>
  </defs>
  <path id="Rounded_Rectangle_3" data-name="Rounded Rectangle 3" class="cls-1" d="M684.5,786.378l19.554-8.077a5.021,5.021,0,0,1,6.534,2.624l4.348,10.181a4.88,4.88,0,0,1-2.668,6.426l-19.555,8.077a5.021,5.021,0,0,1-6.534-2.624L681.828,792.8A4.88,4.88,0,0,1,684.5,786.378Zm2.6,2.919,17.255-7.127a1.255,1.255,0,0,1,1.633.656l4.348,10.181a1.219,1.219,0,0,1-.667,1.606l-17.254,7.127a1.254,1.254,0,0,1-1.633-.656L686.429,790.9A1.22,1.22,0,0,1,687.1,789.3Z" transform="translate(-661 -732)"/>
  <path id="Rounded_Rectangle_2" data-name="Rounded Rectangle 2" class="cls-1" d="M660.991,788.388l1.081-.614a5.036,5.036,0,0,1,6.817,1.8l4.366,7.438a4.863,4.863,0,0,1-1.826,6.7l-1.081.613Z" transform="translate(-661 -732)"/>
  <path id="Rounded_Rectangle_2_copy" data-name="Rounded Rectangle 2 copy" class="cls-1" d="M717.8,757.55a3.778,3.778,0,0,1,5.113,1.347l4.366,7.438a3.646,3.646,0,0,1-1.37,5.028Z" transform="translate(-661 -732)"/>
  <path class="cls-2" d="M669.969,788.957l38.64-44.607,24.329,41.44-58.6,10.605Z" transform="translate(-661 -732)"/>
  <path id="Rectangle_4_copy" data-name="Rectangle 4 copy" class="cls-1" d="M669.969,788.957l44.878-33.981,18.091,30.814-58.6,10.605Z" transform="translate(-661 -732)"/>
  <path id="Shape_1_copy" data-name="Shape 1 copy" class="cls-1" d="M748.676,766.727l-8.728.286a1.436,1.436,0,0,1-1.278-.708,1.39,1.39,0,0,1-.19-0.63,1.345,1.345,0,0,1,1.3-1.433l8.732-.284a1.429,1.429,0,0,1,1.258.677l0.038,0.065a1.42,1.42,0,0,1,.175.6A1.351,1.351,0,0,1,748.676,766.727ZM743.748,752.8l-7.651,4.345a1.421,1.421,0,0,1-1.839-.571,1.364,1.364,0,0,1,.454-1.869l7.58-4.3a1.412,1.412,0,0,1,1.848.512l0.044,0.076A1.368,1.368,0,0,1,743.748,752.8Zm-13.705-5.146a1.37,1.37,0,0,1-1.91.4,1.425,1.425,0,0,1-.461-0.48,1.385,1.385,0,0,1,.015-1.443l4.614-7.294a1.383,1.383,0,0,1,1.916-.395,1.429,1.429,0,0,1,.433.44l0.044,0.075a1.388,1.388,0,0,1-.031,1.408Zm-10.467-4.4-0.057.033a1.376,1.376,0,0,1-.787.154,1.451,1.451,0,0,1-1.087-.7,1.43,1.43,0,0,1-.19-0.821l0.686-8.68a1.337,1.337,0,0,1,.639-1.043l0.074-.042a1.373,1.373,0,0,1,.784-0.15,1.424,1.424,0,0,1,1.273,1.522l-0.686,8.682A1.339,1.339,0,0,1,719.576,743.253Zm20.1,32.076,7.987,3.754a1.434,1.434,0,0,1,.61.543l0.036,0.062a1.389,1.389,0,0,1,.06,1.246,1.334,1.334,0,0,1-.506.58l-0.107.061a1.387,1.387,0,0,1-1.224.013l-7.987-3.757a1.468,1.468,0,0,1-.629-0.572,1.4,1.4,0,0,1-.075-1.277A1.362,1.362,0,0,1,739.672,775.329Z" transform="translate(-661 -732)"/>
</svg>
