<svg xmlns="http://www.w3.org/2000/svg" width="300" height="180" viewBox="0 0 300 180">
  <g fill="none" fill-rule="evenodd">
    <path fill="#0C0C0D" fill-opacity=".4" fill-rule="nonzero" d="M136.5,75 L137.5,75 L137.5,74 L136.5,74 L136.5,75 Z M138.5,75 L139.5,75 L139.5,74 L138.5,74 L138.5,75 Z M140.5,75 L141.5,75 L141.5,74 L140.5,74 L140.5,75 Z M142.5,75 L143.5,75 L143.5,74 L142.5,74 L142.5,75 Z M144.5,75 L145.5,75 L145.5,74 L144.5,74 L144.5,75 Z M146.5,75 L147.5,75 L147.5,74 L146.5,74 L146.5,75 Z M148.5,75 L149.5,75 L149.5,74 L148.5,74 L148.5,75 Z M150.5,75 L151.5,75 L151.5,74 L150.5,74 L150.5,75 Z M152.5,75 L153.5,75 L153.5,74 L152.5,74 L152.5,75 Z M154.5,75 L155.5,75 L155.5,74 L154.5,74 L154.5,75 Z M156.5,75 L157.5,75 L157.5,74 L156.5,74 L156.5,75 Z M158.5,75 L159.5,75 L159.5,74 L158.5,74 L158.5,75 Z M160.5,75 L161.5,75 L161.5,74 L160.5,74 L160.5,75 Z M162.5,75 L163,75 C163.127263,75 163.252019,75.0157367 163.372512,75.0464945 L163.619846,74.0775642 C163.418693,74.0262169 163.210854,74 163,74 L162.5,74 L162.5,75 Z M164.042833,75.4218053 C164.225404,75.5984375 164.360754,75.8182818 164.434899,76.0610731 L165.391296,75.7690026 C165.267396,75.3632867 165.041825,74.9968987 164.738154,74.7031057 L164.042833,75.4218053 Z M164.5,76.9385325 L164.5,77.9385325 L165.5,77.9385325 L165.5,76.9385325 L164.5,76.9385325 Z M164.5,78.9385325 L164.5,79.9385325 L165.5,79.9385325 L165.5,78.9385325 L164.5,78.9385325 Z M164.5,80.9385325 L164.5,81.9385325 L165.5,81.9385325 L165.5,80.9385325 L164.5,80.9385325 Z M164.5,82.9385325 L164.5,83.9385325 L165.5,83.9385325 L165.5,82.9385325 L164.5,82.9385325 Z M164.5,84.9385325 L164.5,85.9385325 L165.5,85.9385325 L165.5,84.9385325 L164.5,84.9385325 Z M164.5,86.9385325 L164.5,87.9385325 L165.5,87.9385325 L165.5,86.9385325 L164.5,86.9385325 Z M164.5,88.9385325 L164.5,89.9385325 L165.5,89.9385325 L165.5,88.9385325 L164.5,88.9385325 Z M164.5,90.9385325 L164.5,91.9385325 L165.5,91.9385325 L165.5,90.9385325 L164.5,90.9385325 Z M164.5,92.9385325 L164.5,93.9385325 L165.5,93.9385325 L165.5,92.9385325 L164.5,92.9385325 Z M164.5,94.9385325 L164.5,95.9385325 L165.5,95.9385325 L165.5,94.9385325 L164.5,94.9385325 Z M164.5,96.9385325 L164.5,97.9385325 L165.5,97.9385325 L165.5,96.9385325 L164.5,96.9385325 Z M164.5,98.9385325 L164.5,99.9385325 L165.5,99.9385325 L165.5,98.9385325 L164.5,98.9385325 Z M164.5,100.938533 L164.5,101.938533 L165.5,101.938533 L165.5,100.938533 L164.5,100.938533 Z M164.5,102.938533 L164.5,103 C164.5,103.2418 164.443109,103.474362 164.335436,103.684014 L165.22498,104.140865 C165.404828,103.790678 165.5,103.401628 165.5,103 L165.5,102.938533 L164.5,102.938533 Z M163.795175,104.272201 C163.581363,104.406219 163.337307,104.484324 163.080845,104.497871 L163.133596,105.496479 C163.560953,105.473904 163.969433,105.343179 164.32627,105.119513 L163.795175,104.272201 Z M162.122935,104.5 L161.122935,104.5 L161.122935,105.5 L162.122935,105.5 L162.122935,104.5 Z M160.122935,104.5 L159.122935,104.5 L159.122935,105.5 L160.122935,105.5 L160.122935,104.5 Z M158.122935,104.5 L157.122935,104.5 L157.122935,105.5 L158.122935,105.5 L158.122935,104.5 Z M156.122935,104.5 L155.122935,104.5 L155.122935,105.5 L156.122935,105.5 L156.122935,104.5 Z M154.122935,104.5 L153.122935,104.5 L153.122935,105.5 L154.122935,105.5 L154.122935,104.5 Z M152.122935,104.5 L151.122935,104.5 L151.122935,105.5 L152.122935,105.5 L152.122935,104.5 Z M150.122935,104.5 L149.122935,104.5 L149.122935,105.5 L150.122935,105.5 L150.122935,104.5 Z M148.122935,104.5 L147.122935,104.5 L147.122935,105.5 L148.122935,105.5 L148.122935,104.5 Z M146.122935,104.5 L145.122935,104.5 L145.122935,105.5 L146.122935,105.5 L146.122935,104.5 Z M144.122935,104.5 L143.122935,104.5 L143.122935,105.5 L144.122935,105.5 L144.122935,104.5 Z M142.122935,104.5 L141.122935,104.5 L141.122935,105.5 L142.122935,105.5 L142.122935,104.5 Z M140.122935,104.5 L139.122935,104.5 L139.122935,105.5 L140.122935,105.5 L140.122935,104.5 Z M138.122935,104.5 L137.122935,104.5 L137.122935,105.5 L138.122935,105.5 L138.122935,104.5 Z M136.217853,104.473598 C135.967696,104.426086 135.735399,104.315434 135.540606,104.153133 L134.900481,104.921404 C135.224926,105.191731 135.613036,105.376603 136.031261,105.456036 L136.217853,104.473598 Z M135.065763,103.441089 C135.022342,103.299677 135,103.151628 135,103 L135,102.684402 L134,102.684402 L134,103 C134,103.251396 134.03727,103.498362 134.109813,103.734617 L135.065763,103.441089 Z M135,101.684402 L135,100.684402 L134,100.684402 L134,101.684402 L135,101.684402 Z M135,99.6844024 L135,98.6844024 L134,98.6844024 L134,99.6844024 L135,99.6844024 Z M135,97.6844024 L135,96.6844024 L134,96.6844024 L134,97.6844024 L135,97.6844024 Z M135,95.6844024 L135,94.6844024 L134,94.6844024 L134,95.6844024 L135,95.6844024 Z M135,93.6844024 L135,92.6844024 L134,92.6844024 L134,93.6844024 L135,93.6844024 Z M135,91.6844024 L135,90.6844024 L134,90.6844024 L134,91.6844024 L135,91.6844024 Z M135,89.6844024 L135,88.6844024 L134,88.6844024 L134,89.6844024 L135,89.6844024 Z M135,87.6844024 L135,86.6844024 L134,86.6844024 L134,87.6844024 L135,87.6844024 Z M135,85.6844024 L135,84.6844024 L134,84.6844024 L134,85.6844024 L135,85.6844024 Z M135,83.6844024 L135,82.6844024 L134,82.6844024 L134,83.6844024 L135,83.6844024 Z M135,81.6844024 L135,80.6844024 L134,80.6844024 L134,81.6844024 L135,81.6844024 Z M135,79.6844024 L135,78.6844024 L134,78.6844024 L134,79.6844024 L135,79.6844024 Z M135,77.6844024 L135,76.6844024 L134,76.6844024 L134,77.6844024 L135,77.6844024 Z M135.124104,75.9013082 C135.225493,75.6687313 135.385154,75.4649794 135.586593,75.310047 L134.976933,74.5173838 C134.642015,74.7749791 134.376525,75.1137854 134.207422,75.5016907 L135.124104,75.9013082 Z M136.30151,75.0129593 C136.362274,75.0049523 136.423834,75.0006281 136.485999,75.0000635 L136.476918,74.0001048 C136.374071,74.0010388 136.271915,74.0082145 136.170868,74.0215297 L136.30151,75.0129593 Z"/>
    <path fill="#0C0C0D" fill-opacity=".8" fill-rule="nonzero" d="M156,83.0002365 C155.447715,83.0002365 155,83.4479518 155,84.0002365 L155,85.1462365 C153.245149,83.3111296 150.629013,82.5794249 148.176748,83.2378473 C145.724484,83.8962698 143.826677,85.8399489 143.227,88.3072365 C143.131056,88.6571058 143.232125,89.0314965 143.491101,89.2855536 C143.750077,89.5396107 144.126337,89.6334817 144.474302,89.5308471 C144.822268,89.4282125 145.087355,89.1451721 145.167,88.7912365 C145.715015,86.5668364 147.70909,85.0026867 150,85.0002365 C151.565221,84.9977855 153.038178,85.7403904 153.967,87.0002365 L152,87.0002365 C151.447715,87.0002365 151,87.4479518 151,88.0002365 C151,88.5525213 151.447715,89.0002365 152,89.0002365 L156,89.0002365 C156.552285,89.0002365 157,88.5525213 157,88.0002365 L157,84.0002365 C157,83.4479518 156.552285,83.0002365 156,83.0002365 Z M156.046,90.4812365 C155.788602,90.4168278 155.516159,90.4573552 155.288654,90.5938958 C155.061149,90.7304365 154.897235,90.9517955 154.833,91.2092365 C154.284985,93.4336366 152.29091,94.9977863 150,95.0002365 C148.434779,95.0026875 146.961822,94.2600827 146.033,93.0002365 L148,93.0002365 C148.552285,93.0002365 149,92.5525213 149,92.0002365 C149,91.4479518 148.552285,91.0002365 148,91.0002365 L144,91.0002365 C143.447715,91.0002365 143,91.4479518 143,92.0002365 L143,96.0002365 C143,96.5525213 143.447715,97.0002365 144,97.0002365 C144.552285,97.0002365 145,96.5525213 145,96.0002365 L145,94.8542365 C146.754851,96.6893434 149.370987,97.4210482 151.823252,96.7626257 C154.275516,96.1042032 156.173323,94.1605242 156.773,91.6932365 C156.906556,91.157852 156.581215,90.6154687 156.046,90.4812365 Z"/>
    <rect width="1" height="5" x="141" y="108" fill="#30E60B" transform="rotate(-180 141.5 110.5)"/>
    <rect width="1" height="5" x="134" y="108" fill="#30E60B" transform="rotate(-180 134.5 110.5)"/>
    <rect width="8" height="1" x="134" y="110" fill="#30E60B" transform="rotate(-180 138 110.5)"/>
    <polygon fill="#30E60B" points="134 117 138 113 142 117 138 121" transform="rotate(-180 138 117)"/>
    <rect width="29" height="22" x="124" y="117" fill="#30E60B" rx="2" transform="rotate(-180 138.5 128)"/>
    <rect width="5" height="1" x="168" y="74" fill="#FF1AD9"/>
    <rect width="5" height="1" x="168" y="105" fill="#FF1AD9"/>
    <rect width="1" height="32" x="170" y="74" fill="#FF1AD9"/>
    <polygon fill="#FF1AD9" points="173 90 177 86 181 90 177 94"/>
    <rect width="35" height="22" x="177" y="79" fill="#FF1AD9" rx="2"/>
    <path fill="#003706" d="M134.272,125.7 C134.272,126.504 133.756,127.068 132.844,127.572 C133.924,128.016 134.62,128.772 134.62,129.78 C134.62,131.136 133.516,132.132 131.776,132.132 C130,132.132 128.98,131.112 128.98,129.804 C128.98,128.796 129.64,128.112 130.648,127.644 C129.76,127.224 129.328,126.684 129.328,125.76 C129.328,124.248 130.708,123.6 131.8,123.6 C133,123.6 134.272,124.236 134.272,125.7 Z M130.312,125.772 C130.312,126.72 131.008,126.948 132.136,127.32 C132.904,126.876 133.288,126.492 133.288,125.748 C133.288,124.92 132.748,124.392 131.8,124.392 C130.864,124.392 130.312,124.896 130.312,125.772 Z M133.552,129.804 C133.552,128.688 132.64,128.388 131.332,127.932 C130.66,128.244 130.048,128.772 130.048,129.804 C130.048,130.74 130.636,131.316 131.776,131.316 C132.928,131.316 133.552,130.668 133.552,129.804 Z M139.432,125.544 C141.112,125.544 141.724,126.852 141.724,128.832 C141.724,130.752 140.932,132.132 139.288,132.132 C138.592,132.132 138.04,131.892 137.608,131.412 L137.608,134.424 L136.6,134.544 L136.6,125.676 L137.464,125.676 L137.548,126.564 C138.004,125.916 138.676,125.544 139.432,125.544 Z M139.192,126.36 C138.496,126.36 137.956,126.864 137.608,127.368 L137.608,130.5 C137.944,130.992 138.46,131.292 139.06,131.292 C140.104,131.292 140.632,130.512 140.632,128.832 C140.632,127.188 140.188,126.36 139.192,126.36 Z M144.424,132 L146.164,129.288 L147.904,132 L149.128,132 L146.8,128.616 L148.852,125.676 L147.688,125.676 L146.212,128.028 L144.748,125.676 L143.548,125.676 L145.6,128.664 L143.272,132 L144.424,132 Z"/>
    <rect width="1" height="5" x="158" y="67" fill="#30E60B"/>
    <rect width="1" height="5" x="165" y="67" fill="#30E60B"/>
    <rect width="8" height="1" x="158" y="69" fill="#30E60B"/>
    <polygon fill="#30E60B" points="158 63 162 59 166 63 162 67"/>
    <rect width="29" height="22" x="147" y="41" fill="#30E60B" rx="2"/>
    <path fill="#003706" d="M156.272,49.7 C156.272,50.504 155.756,51.068 154.844,51.572 C155.924,52.016 156.62,52.772 156.62,53.78 C156.62,55.136 155.516,56.132 153.776,56.132 C152,56.132 150.98,55.112 150.98,53.804 C150.98,52.796 151.64,52.112 152.648,51.644 C151.76,51.224 151.328,50.684 151.328,49.76 C151.328,48.248 152.708,47.6 153.8,47.6 C155,47.6 156.272,48.236 156.272,49.7 Z M152.312,49.772 C152.312,50.72 153.008,50.948 154.136,51.32 C154.904,50.876 155.288,50.492 155.288,49.748 C155.288,48.92 154.748,48.392 153.8,48.392 C152.864,48.392 152.312,48.896 152.312,49.772 Z M155.552,53.804 C155.552,52.688 154.64,52.388 153.332,51.932 C152.66,52.244 152.048,52.772 152.048,53.804 C152.048,54.74 152.636,55.316 153.776,55.316 C154.928,55.316 155.552,54.668 155.552,53.804 Z M161.432,49.544 C163.112,49.544 163.724,50.852 163.724,52.832 C163.724,54.752 162.932,56.132 161.288,56.132 C160.592,56.132 160.04,55.892 159.608,55.412 L159.608,58.424 L158.6,58.544 L158.6,49.676 L159.464,49.676 L159.548,50.564 C160.004,49.916 160.676,49.544 161.432,49.544 Z M161.192,50.36 C160.496,50.36 159.956,50.864 159.608,51.368 L159.608,54.5 C159.944,54.992 160.46,55.292 161.06,55.292 C162.104,55.292 162.632,54.512 162.632,52.832 C162.632,51.188 162.188,50.36 161.192,50.36 Z M166.424,56 L168.164,53.288 L169.904,56 L171.128,56 L168.8,52.616 L170.852,49.676 L169.688,49.676 L168.212,52.028 L166.748,49.676 L165.548,49.676 L167.6,52.664 L165.272,56 L166.424,56 Z"/>
    <path fill="#FFF" d="M183.328,85.6 C182.476,85.6 181.684,85.888 180.976,86.56 L181.528,87.172 C182.08,86.668 182.572,86.416 183.28,86.416 C184.156,86.416 184.84,86.908 184.84,87.808 C184.84,88.804 184.072,89.248 183.28,89.248 L182.788,89.248 L182.668,90.052 L183.352,90.052 C184.336,90.052 185.068,90.436 185.068,91.624 C185.068,92.656 184.384,93.304 183.232,93.304 C182.56,93.304 181.864,93.04 181.396,92.488 L180.724,93.04 C181.348,93.796 182.332,94.132 183.256,94.132 C184.972,94.132 186.124,93.052 186.124,91.624 C186.124,90.34 185.212,89.668 184.252,89.596 C185.116,89.428 185.86,88.672 185.86,87.676 C185.86,86.548 184.888,85.6 183.328,85.6 Z M190.528,85.6 C189.412,85.6 188.656,85.996 188.008,86.788 L188.704,87.328 C189.232,86.716 189.676,86.452 190.48,86.452 C191.404,86.452 191.968,87.016 191.968,87.94 C191.968,89.284 191.296,90.196 188.176,93.184 L188.176,94 L193.096,94 L193.216,93.136 L189.328,93.136 C192.052,90.652 193.024,89.428 193.024,87.904 C193.024,86.596 192.088,85.6 190.528,85.6 Z M198.532,87.544 C200.212,87.544 200.824,88.852 200.824,90.832 C200.824,92.752 200.032,94.132 198.388,94.132 C197.692,94.132 197.14,93.892 196.708,93.412 L196.708,96.424 L195.7,96.544 L195.7,87.676 L196.564,87.676 L196.648,88.564 C197.104,87.916 197.776,87.544 198.532,87.544 Z M198.292,88.36 C197.596,88.36 197.056,88.864 196.708,89.368 L196.708,92.5 C197.044,92.992 197.56,93.292 198.16,93.292 C199.204,93.292 199.732,92.512 199.732,90.832 C199.732,89.188 199.288,88.36 198.292,88.36 Z M203.524,94 L205.264,91.288 L207.004,94 L208.228,94 L205.9,90.616 L207.952,87.676 L206.788,87.676 L205.312,90.028 L203.848,87.676 L202.648,87.676 L204.7,90.664 L202.372,94 L203.524,94 Z"/>
    <rect width="5" height="1" x="127" y="97" fill="#FF1AD9" transform="rotate(-180 129.5 97.5)"/>
    <rect width="5" height="1" x="127" y="82" fill="#FF1AD9" transform="rotate(-180 129.5 82.5)"/>
    <rect width="1" height="16" x="129" y="82" fill="#FF1AD9" transform="rotate(-180 129.5 90)"/>
    <polygon fill="#FF1AD9" points="119 90 123 86 127 90 123 94" transform="rotate(-180 123 90)"/>
    <rect width="37" height="22" x="86" y="79" fill="#FF1AD9" rx="2" transform="rotate(-180 104.5 90)"/>
    <path fill="#FFF" d="M94.588,93.184 L94.588,85.732 L93.7,85.732 L91.24,87.268 L91.684,87.976 L93.568,86.836 L93.568,93.184 L91.54,93.184 L91.54,94 L96.304,94 L96.304,93.184 L94.588,93.184 Z M101.26,88.624 C102.52,88.624 103.6,89.452 103.6,91.216 C103.6,93.052 102.436,94.132 100.996,94.132 C98.992,94.132 98.248,92.56 98.248,90.1 C98.248,87.352 99.388,85.6 101.32,85.6 C101.968,85.6 102.496,85.78 102.964,86.092 L102.568,86.764 C102.184,86.536 101.764,86.416 101.308,86.416 C100.036,86.416 99.304,87.712 99.268,89.728 C99.784,88.948 100.444,88.624 101.26,88.624 Z M100.996,93.316 C102.04,93.316 102.568,92.524 102.568,91.252 C102.568,89.896 101.968,89.44 101.104,89.44 C100.312,89.44 99.688,89.92 99.28,90.616 C99.316,92.476 99.82,93.316 100.996,93.316 Z M108.532,87.544 C110.212,87.544 110.824,88.852 110.824,90.832 C110.824,92.752 110.032,94.132 108.388,94.132 C107.692,94.132 107.14,93.892 106.708,93.412 L106.708,96.424 L105.7,96.544 L105.7,87.676 L106.564,87.676 L106.648,88.564 C107.104,87.916 107.776,87.544 108.532,87.544 Z M108.292,88.36 C107.596,88.36 107.056,88.864 106.708,89.368 L106.708,92.5 C107.044,92.992 107.56,93.292 108.16,93.292 C109.204,93.292 109.732,92.512 109.732,90.832 C109.732,89.188 109.288,88.36 108.292,88.36 Z M113.524,94 L115.264,91.288 L117.004,94 L118.228,94 L115.9,90.616 L117.952,87.676 L116.788,87.676 L115.312,90.028 L113.848,87.676 L112.648,87.676 L114.7,90.664 L112.372,94 L113.524,94 Z"/>
  </g>
</svg>
