<svg xmlns="http://www.w3.org/2000/svg" width="300" height="180" viewBox="0 0 300 180">
  <g fill="none" fill-rule="evenodd">
    <rect width="132" height="32" x="84" y="74" fill="#0060DF" rx="2"/>
    <path fill="#FFF" d="M136.888672,84.840332 L139.967285,84.840332 C142.684082,84.840332 144.290039,86.5351562 144.290039,89.4169922 C144.290039,92.3051758 142.69043,94 139.967285,94 L136.888672,94 L136.888672,84.840332 Z M138.03125,85.8686523 L138.03125,92.9716797 L139.891113,92.9716797 C141.966797,92.9716797 143.12207,91.7021484 143.12207,89.4296875 C143.12207,87.1381836 141.973145,85.8686523 139.891113,85.8686523 L138.03125,85.8686523 Z M148.27002,94.1142578 C146.441895,94.1142578 145.210449,92.800293 145.210449,90.6992188 C145.210449,88.5917969 146.441895,87.2841797 148.27002,87.2841797 C150.091797,87.2841797 151.323242,88.5917969 151.323242,90.6992188 C151.323242,92.800293 150.091797,94.1142578 148.27002,94.1142578 Z M148.27002,93.1430664 C149.437988,93.1430664 150.199707,92.2543945 150.199707,90.6992188 C150.199707,89.144043 149.437988,88.2553711 148.27002,88.2553711 C147.102051,88.2553711 146.333984,89.144043 146.333984,90.6992188 C146.333984,92.2543945 147.102051,93.1430664 148.27002,93.1430664 Z M152.434082,94 L153.538574,94 L153.538574,90.1152344 C153.538574,88.9980469 154.217773,88.2617188 155.258789,88.2617188 C156.274414,88.2617188 156.775879,88.8457031 156.775879,89.9121094 L156.775879,94 L157.880371,94 L157.880371,89.715332 C157.880371,88.2172852 157.04248,87.2841797 155.595215,87.2841797 C154.573242,87.2841797 153.868652,87.7412109 153.500488,88.4521484 L153.475098,88.4521484 L153.475098,87.3984375 L152.434082,87.3984375 L152.434082,94 Z M161.930176,88.2426758 C160.895508,88.2426758 160.171875,89.0361328 160.102051,90.1342773 L163.688477,90.1342773 C163.663086,89.0297852 162.971191,88.2426758 161.930176,88.2426758 Z M163.663086,92.1083984 L164.748535,92.1083984 C164.558105,93.2636719 163.440918,94.1142578 162,94.1142578 C160.108398,94.1142578 158.959473,92.800293 158.959473,90.7246094 C158.959473,88.6743164 160.127441,87.2841797 161.949219,87.2841797 C163.73291,87.2841797 164.831055,88.5791016 164.831055,90.5786133 L164.831055,90.9975586 L160.095703,90.9975586 L160.095703,91.0610352 C160.095703,92.3242188 160.838379,93.1557617 162.025391,93.1557617 C162.863281,93.1557617 163.479004,92.7304688 163.663086,92.1083984 Z"/>
    <rect width="1" height="5" x="91" y="108" fill="#30E60B" transform="rotate(-180 91.5 110.5)"/>
    <rect width="1" height="5" x="84" y="108" fill="#30E60B" transform="rotate(-180 84.5 110.5)"/>
    <rect width="8" height="1" x="84" y="110" fill="#30E60B" transform="rotate(-180 88 110.5)"/>
    <polygon fill="#30E60B" points="84 117 88 113 92 117 88 121" transform="rotate(-180 88 117)"/>
    <rect width="29" height="22" x="74" y="117" fill="#30E60B" rx="2" transform="rotate(-180 88.5 128)"/>
    <rect width="1" height="5" x="215" y="108" fill="#30E60B" transform="rotate(-180 215.5 110.5)"/>
    <rect width="1" height="5" x="208" y="108" fill="#30E60B" transform="rotate(-180 208.5 110.5)"/>
    <rect width="8" height="1" x="208" y="110" fill="#30E60B" transform="rotate(-180 212 110.5)"/>
    <polygon fill="#30E60B" points="208 117 212 113 216 117 212 121" transform="rotate(-180 212 117)"/>
    <rect width="29" height="22" x="198" y="117" fill="#30E60B" rx="2" transform="rotate(-180 212.5 128)"/>
    <rect width="5" height="1" x="218" y="74" fill="#FF1AD9"/>
    <rect width="5" height="1" x="218" y="105" fill="#FF1AD9"/>
    <rect width="1" height="32" x="220" y="74" fill="#FF1AD9"/>
    <polygon fill="#FF1AD9" points="223 90 227 86 231 90 227 94"/>
    <rect width="35" height="22" x="227" y="79" fill="#FF1AD9" rx="2"/>
    <path fill="#003706" d="M83.272 125.7C83.272 126.504 82.756 127.068 81.844 127.572 82.924 128.016 83.62 128.772 83.62 129.78 83.62 131.136 82.516 132.132 80.776 132.132 79 132.132 77.98 131.112 77.98 129.804 77.98 128.796 78.64 128.112 79.648 127.644 78.76 127.224 78.328 126.684 78.328 125.76 78.328 124.248 79.708 123.6 80.8 123.6 82 123.6 83.272 124.236 83.272 125.7zM79.312 125.772C79.312 126.72 80.008 126.948 81.136 127.32 81.904 126.876 82.288 126.492 82.288 125.748 82.288 124.92 81.748 124.392 80.8 124.392 79.864 124.392 79.312 124.896 79.312 125.772zM82.552 129.804C82.552 128.688 81.64 128.388 80.332 127.932 79.66 128.244 79.048 128.772 79.048 129.804 79.048 130.74 79.636 131.316 80.776 131.316 81.928 131.316 82.552 130.668 82.552 129.804zM88.432 125.544C90.112 125.544 90.724 126.852 90.724 128.832 90.724 130.752 89.932 132.132 88.288 132.132 87.592 132.132 87.04 131.892 86.608 131.412L86.608 134.424 85.6 134.544 85.6 125.676 86.464 125.676 86.548 126.564C87.004 125.916 87.676 125.544 88.432 125.544zM88.192 126.36C87.496 126.36 86.956 126.864 86.608 127.368L86.608 130.5C86.944 130.992 87.46 131.292 88.06 131.292 89.104 131.292 89.632 130.512 89.632 128.832 89.632 127.188 89.188 126.36 88.192 126.36zM93.424 132L95.164 129.288 96.904 132 98.128 132 95.8 128.616 97.852 125.676 96.688 125.676 95.212 128.028 93.748 125.676 92.548 125.676 94.6 128.664 92.272 132 93.424 132zM208.272 125.7C208.272 126.504 207.756 127.068 206.844 127.572 207.924 128.016 208.62 128.772 208.62 129.78 208.62 131.136 207.516 132.132 205.776 132.132 204 132.132 202.98 131.112 202.98 129.804 202.98 128.796 203.64 128.112 204.648 127.644 203.76 127.224 203.328 126.684 203.328 125.76 203.328 124.248 204.708 123.6 205.8 123.6 207 123.6 208.272 124.236 208.272 125.7zM204.312 125.772C204.312 126.72 205.008 126.948 206.136 127.32 206.904 126.876 207.288 126.492 207.288 125.748 207.288 124.92 206.748 124.392 205.8 124.392 204.864 124.392 204.312 124.896 204.312 125.772zM207.552 129.804C207.552 128.688 206.64 128.388 205.332 127.932 204.66 128.244 204.048 128.772 204.048 129.804 204.048 130.74 204.636 131.316 205.776 131.316 206.928 131.316 207.552 130.668 207.552 129.804zM213.432 125.544C215.112 125.544 215.724 126.852 215.724 128.832 215.724 130.752 214.932 132.132 213.288 132.132 212.592 132.132 212.04 131.892 211.608 131.412L211.608 134.424 210.6 134.544 210.6 125.676 211.464 125.676 211.548 126.564C212.004 125.916 212.676 125.544 213.432 125.544zM213.192 126.36C212.496 126.36 211.956 126.864 211.608 127.368L211.608 130.5C211.944 130.992 212.46 131.292 213.06 131.292 214.104 131.292 214.632 130.512 214.632 128.832 214.632 127.188 214.188 126.36 213.192 126.36zM218.424 132L220.164 129.288 221.904 132 223.128 132 220.8 128.616 222.852 125.676 221.688 125.676 220.212 128.028 218.748 125.676 217.548 125.676 219.6 128.664 217.272 132 218.424 132z"/>
    <path fill="#FFF" d="M233.328,85.6 C232.476,85.6 231.684,85.888 230.976,86.56 L231.528,87.172 C232.08,86.668 232.572,86.416 233.28,86.416 C234.156,86.416 234.84,86.908 234.84,87.808 C234.84,88.804 234.072,89.248 233.28,89.248 L232.788,89.248 L232.668,90.052 L233.352,90.052 C234.336,90.052 235.068,90.436 235.068,91.624 C235.068,92.656 234.384,93.304 233.232,93.304 C232.56,93.304 231.864,93.04 231.396,92.488 L230.724,93.04 C231.348,93.796 232.332,94.132 233.256,94.132 C234.972,94.132 236.124,93.052 236.124,91.624 C236.124,90.34 235.212,89.668 234.252,89.596 C235.116,89.428 235.86,88.672 235.86,87.676 C235.86,86.548 234.888,85.6 233.328,85.6 Z M240.528,85.6 C239.412,85.6 238.656,85.996 238.008,86.788 L238.704,87.328 C239.232,86.716 239.676,86.452 240.48,86.452 C241.404,86.452 241.968,87.016 241.968,87.94 C241.968,89.284 241.296,90.196 238.176,93.184 L238.176,94 L243.096,94 L243.216,93.136 L239.328,93.136 C242.052,90.652 243.024,89.428 243.024,87.904 C243.024,86.596 242.088,85.6 240.528,85.6 Z M248.532,87.544 C250.212,87.544 250.824,88.852 250.824,90.832 C250.824,92.752 250.032,94.132 248.388,94.132 C247.692,94.132 247.14,93.892 246.708,93.412 L246.708,96.424 L245.7,96.544 L245.7,87.676 L246.564,87.676 L246.648,88.564 C247.104,87.916 247.776,87.544 248.532,87.544 Z M248.292,88.36 C247.596,88.36 247.056,88.864 246.708,89.368 L246.708,92.5 C247.044,92.992 247.56,93.292 248.16,93.292 C249.204,93.292 249.732,92.512 249.732,90.832 C249.732,89.188 249.288,88.36 248.292,88.36 Z M253.524,94 L255.264,91.288 L257.004,94 L258.228,94 L255.9,90.616 L257.952,87.676 L256.788,87.676 L255.312,90.028 L253.848,87.676 L252.648,87.676 L254.7,90.664 L252.372,94 L253.524,94 Z"/>
  </g>
</svg>
