<svg xmlns="http://www.w3.org/2000/svg" xmlns:xlink="http://www.w3.org/1999/xlink" width="300" height="180" style="background:#f9f9fa" viewBox="0 0 300 180">
  <defs>
    <rect id="button-radius-a" width="60" height="60" rx="30"/>
  </defs>
  <g fill="none" fill-rule="evenodd">
    <rect width="132" height="32" x="84" y="74" fill="#0C0C0D" fill-opacity=".1" rx="2"/>
    <g transform="translate(192 38)">
      <mask id="button-radius-b" fill="#fff">
        <use xlink:href="#button-radius-a"/>
      </mask>
      <use fill="#FFF" xlink:href="#button-radius-a"/>
      <rect width="55.5" height="55.5" x="-13.5" y="18" fill="#E0E0E1" mask="url(#button-radius-b)" rx="12"/>
      <rect width="59" height="59" x=".5" y=".5" stroke="#0C0C0D" stroke-opacity=".1" mask="url(#button-radius-b)" rx="29.5"/>
    </g>
    <path fill="#0C0C0D" d="M128.636963,95.1523438 C130.661865,95.1523438 132.020264,94.1430664 132.439209,92.3339844 L131.283936,92.3339844 C130.953857,93.4511719 129.989014,94.0986328 128.643311,94.0986328 C126.834229,94.0986328 125.685303,92.6640625 125.685303,90.4169922 C125.685303,88.1889648 126.846924,86.7416992 128.636963,86.7416992 C129.94458,86.7416992 130.991943,87.5288086 131.283936,88.7285156 L132.439209,88.7285156 C132.147217,86.9003906 130.630127,85.6879883 128.636963,85.6879883 C126.129639,85.6879883 124.510986,87.5415039 124.510986,90.4169922 C124.510986,93.3178711 126.110596,95.1523438 128.636963,95.1523438 Z M133.670654,95 L134.775146,95 L134.775146,91.1533203 C134.775146,90.0107422 135.454346,89.2617188 136.55249,89.2617188 C137.587158,89.2617188 138.114014,89.8901367 138.114014,90.9375 L138.114014,95 L139.218506,95 L139.218506,90.734375 C139.218506,89.2617188 138.342529,88.2841797 136.895264,88.2841797 C135.892334,88.2841797 135.168701,88.7158203 134.800537,89.4521484 L134.775146,89.4521484 L134.775146,85.840332 L133.670654,85.840332 L133.670654,95 Z M143.357178,95.1142578 C141.529053,95.1142578 140.297607,93.800293 140.297607,91.6992188 C140.297607,89.5917969 141.529053,88.2841797 143.357178,88.2841797 C145.178955,88.2841797 146.4104,89.5917969 146.4104,91.6992188 C146.4104,93.800293 145.178955,95.1142578 143.357178,95.1142578 Z M143.357178,94.1430664 C144.525146,94.1430664 145.286865,93.2543945 145.286865,91.6992188 C145.286865,90.144043 144.525146,89.2553711 143.357178,89.2553711 C142.189209,89.2553711 141.421143,90.144043 141.421143,91.6992188 C141.421143,93.2543945 142.189209,94.1430664 143.357178,94.1430664 Z M150.25708,95.1142578 C148.428955,95.1142578 147.19751,93.800293 147.19751,91.6992188 C147.19751,89.5917969 148.428955,88.2841797 150.25708,88.2841797 C152.078857,88.2841797 153.310303,89.5917969 153.310303,91.6992188 C153.310303,93.800293 152.078857,95.1142578 150.25708,95.1142578 Z M150.25708,94.1430664 C151.425049,94.1430664 152.186768,93.2543945 152.186768,91.6992188 C152.186768,90.144043 151.425049,89.2553711 150.25708,89.2553711 C149.089111,89.2553711 148.321045,90.144043 148.321045,91.6992188 C148.321045,93.2543945 149.089111,94.1430664 150.25708,94.1430664 Z M154.306885,90.2202148 C154.306885,91.121582 154.878174,91.7182617 156.039795,92.0166016 L157.201416,92.3149414 C157.944092,92.5117188 158.217041,92.765625 158.217041,93.2353516 C158.217041,93.8320312 157.664795,94.2128906 156.769775,94.2128906 C155.874756,94.2128906 155.354248,93.8447266 155.233643,93.1591797 L154.12915,93.1591797 C154.243408,94.3271484 155.252686,95.1142578 156.699951,95.1142578 C158.242432,95.1142578 159.327881,94.3017578 159.327881,93.152832 C159.327881,92.1816406 158.845459,91.6992188 157.512451,91.362793 L156.490479,91.1152344 C155.741455,90.9248047 155.392334,90.6201172 155.392334,90.1630859 C155.392334,89.5854492 155.925537,89.1855469 156.731689,89.1855469 C157.544189,89.1855469 158.05835,89.5791016 158.134521,90.2138672 L159.188232,90.2138672 C159.137451,89.0966797 158.134521,88.2841797 156.769775,88.2841797 C155.316162,88.2841797 154.306885,89.090332 154.306885,90.2202148 Z M163.117432,89.2426758 C162.082764,89.2426758 161.359131,90.0361328 161.289307,91.1342773 L164.875732,91.1342773 C164.850342,90.0297852 164.158447,89.2426758 163.117432,89.2426758 Z M164.850342,93.1083984 L165.935791,93.1083984 C165.745361,94.2636719 164.628174,95.1142578 163.187256,95.1142578 C161.295654,95.1142578 160.146729,93.800293 160.146729,91.7246094 C160.146729,89.6743164 161.314697,88.2841797 163.136475,88.2841797 C164.920166,88.2841797 166.018311,89.5791016 166.018311,91.5786133 L166.018311,91.9975586 L161.282959,91.9975586 L161.282959,92.0610352 C161.282959,93.3242188 162.025635,94.1557617 163.212646,94.1557617 C164.050537,94.1557617 164.66626,93.7304688 164.850342,93.1083984 Z M168.062256,95.0634766 C168.468506,95.0634766 168.785889,94.7460938 168.785889,94.3398438 C168.785889,93.9335938 168.468506,93.6162109 168.062256,93.6162109 C167.656006,93.6162109 167.338623,93.9335938 167.338623,94.3398438 C167.338623,94.7460938 167.656006,95.0634766 168.062256,95.0634766 Z M171.217041,95.0634766 C171.623291,95.0634766 171.940674,94.7460938 171.940674,94.3398438 C171.940674,93.9335938 171.623291,93.6162109 171.217041,93.6162109 C170.810791,93.6162109 170.493408,93.9335938 170.493408,94.3398438 C170.493408,94.7460938 170.810791,95.0634766 171.217041,95.0634766 Z M174.371826,95.0634766 C174.778076,95.0634766 175.095459,94.7460938 175.095459,94.3398438 C175.095459,93.9335938 174.778076,93.6162109 174.371826,93.6162109 C173.965576,93.6162109 173.648193,93.9335938 173.648193,94.3398438 C173.648193,94.7460938 173.965576,95.0634766 174.371826,95.0634766 Z"/>
  </g>
</svg>
