<svg xmlns="http://www.w3.org/2000/svg" width="360" height="480" viewBox="0 0 360 480">
  <g fill="none" fill-rule="evenodd">
    <rect width="132" height="32" x="114" y="351" fill="#0060DF" opacity=".4" rx="2"/>
    <path fill="#FFF" d="M159.008789,361.840332 L162.087402,361.840332 C164.804199,361.840332 166.410156,363.535156 166.410156,366.416992 C166.410156,369.305176 164.810547,371 162.087402,371 L159.008789,371 L159.008789,361.840332 Z M160.151367,362.868652 L160.151367,369.97168 L162.01123,369.97168 C164.086914,369.97168 165.242188,368.702148 165.242188,366.429688 C165.242188,364.138184 164.093262,362.868652 162.01123,362.868652 L160.151367,362.868652 Z M167.711426,371 L168.815918,371 L168.815918,364.398438 L167.711426,364.398438 L167.711426,371 Z M168.263672,363.287598 C168.644531,363.287598 168.955566,362.976562 168.955566,362.602051 C168.955566,362.221191 168.644531,361.916504 168.263672,361.916504 C167.88916,361.916504 167.578125,362.221191 167.578125,362.602051 C167.578125,362.976562 167.88916,363.287598 168.263672,363.287598 Z M170.193359,366.220215 C170.193359,367.121582 170.764648,367.718262 171.92627,368.016602 L173.087891,368.314941 C173.830566,368.511719 174.103516,368.765625 174.103516,369.235352 C174.103516,369.832031 173.55127,370.212891 172.65625,370.212891 C171.76123,370.212891 171.240723,369.844727 171.120117,369.15918 L170.015625,369.15918 C170.129883,370.327148 171.13916,371.114258 172.586426,371.114258 C174.128906,371.114258 175.214355,370.301758 175.214355,369.152832 C175.214355,368.181641 174.731934,367.699219 173.398926,367.362793 L172.376953,367.115234 C171.62793,366.924805 171.278809,366.620117 171.278809,366.163086 C171.278809,365.585449 171.812012,365.185547 172.618164,365.185547 C173.430664,365.185547 173.944824,365.579102 174.020996,366.213867 L175.074707,366.213867 C175.023926,365.09668 174.020996,364.28418 172.65625,364.28418 C171.202637,364.28418 170.193359,365.090332 170.193359,366.220215 Z M178.53418,370.174805 C179.575195,370.174805 180.375,369.444824 180.375,368.492676 L180.375,367.953125 L178.610352,368.061035 C177.72168,368.118164 177.213867,368.511719 177.213867,369.133789 C177.213867,369.762207 177.740723,370.174805 178.53418,370.174805 Z M178.286621,371.114258 C176.972656,371.114258 176.090332,370.320801 176.090332,369.133789 C176.090332,368.003906 176.959961,367.292969 178.483398,367.204102 L180.375,367.096191 L180.375,366.543945 C180.375,365.737793 179.841797,365.255371 178.927734,365.255371 C178.077148,365.255371 177.543945,365.655273 177.404297,366.302734 L176.337891,366.302734 C176.414062,365.160156 177.391602,364.28418 178.953125,364.28418 C180.501953,364.28418 181.479492,365.12207 181.479492,366.436035 L181.479492,371 L180.432129,371 L180.432129,369.86377 L180.406738,369.86377 C180.013184,370.619141 179.175293,371.114258 178.286621,371.114258 Z M186.164062,371.114258 C185.199219,371.114258 184.443848,370.644531 184.018555,369.882812 L183.993164,369.882812 L183.993164,371 L182.939453,371 L182.939453,361.840332 L184.043945,361.840332 L184.043945,365.50293 L184.069336,365.50293 C184.481934,364.747559 185.25,364.28418 186.183105,364.28418 C187.846191,364.28418 188.969727,365.629883 188.969727,367.699219 C188.969727,369.774902 187.852539,371.114258 186.164062,371.114258 Z M185.948242,365.255371 C184.831055,365.255371 184.037598,366.23291 184.037598,367.699219 C184.037598,369.171875 184.831055,370.143066 185.948242,370.143066 C187.116211,370.143066 187.839844,369.209961 187.839844,367.699219 C187.839844,366.201172 187.116211,365.255371 185.948242,365.255371 Z M190.144043,371 L191.248535,371 L191.248535,361.840332 L190.144043,361.840332 L190.144043,371 Z M195.387207,365.242676 C194.352539,365.242676 193.628906,366.036133 193.559082,367.134277 L197.145508,367.134277 C197.120117,366.029785 196.428223,365.242676 195.387207,365.242676 Z M197.120117,369.108398 L198.205566,369.108398 C198.015137,370.263672 196.897949,371.114258 195.457031,371.114258 C193.56543,371.114258 192.416504,369.800293 192.416504,367.724609 C192.416504,365.674316 193.584473,364.28418 195.40625,364.28418 C197.189941,364.28418 198.288086,365.579102 198.288086,367.578613 L198.288086,367.997559 L193.552734,367.997559 L193.552734,368.061035 C193.552734,369.324219 194.29541,370.155762 195.482422,370.155762 C196.320312,370.155762 196.936035,369.730469 197.120117,369.108398 Z M201.899902,371.114258 C200.217773,371.114258 199.075195,369.768555 199.075195,367.699219 C199.075195,365.629883 200.211426,364.28418 201.874512,364.28418 C202.820312,364.28418 203.582031,364.747559 203.975586,365.471191 L204.000977,365.471191 L204.000977,361.840332 L205.105469,361.840332 L205.105469,371 L204.051758,371 L204.051758,369.882812 L204.032715,369.882812 C203.607422,370.644531 202.852051,371.114258 201.899902,371.114258 Z M202.109375,365.255371 C200.941406,365.255371 200.205078,366.20752 200.205078,367.699219 C200.205078,369.197266 200.941406,370.143066 202.109375,370.143066 C203.245605,370.143066 204.007324,369.178223 204.007324,367.699219 C204.007324,366.226562 203.245605,365.255371 202.109375,365.255371 Z" opacity=".4"/>
    <rect width="132" height="32" x="114" y="98" fill="#0060DF" rx="2"/>
    <rect width="132" height="32" x="114" y="288" fill="#0060DF" rx="2"/>
    <path fill="#FFF" d="M161.89502,108.840332 L164.973633,108.840332 C167.69043,108.840332 169.296387,110.535156 169.296387,113.416992 C169.296387,116.305176 167.696777,118 164.973633,118 L161.89502,118 L161.89502,108.840332 Z M163.037598,109.868652 L163.037598,116.97168 L164.897461,116.97168 C166.973145,116.97168 168.128418,115.702148 168.128418,113.429688 C168.128418,111.138184 166.979492,109.868652 164.897461,109.868652 L163.037598,109.868652 Z M173.1875,112.242676 C172.152832,112.242676 171.429199,113.036133 171.359375,114.134277 L174.945801,114.134277 C174.92041,113.029785 174.228516,112.242676 173.1875,112.242676 Z M174.92041,116.108398 L176.005859,116.108398 C175.81543,117.263672 174.698242,118.114258 173.257324,118.114258 C171.365723,118.114258 170.216797,116.800293 170.216797,114.724609 C170.216797,112.674316 171.384766,111.28418 173.206543,111.28418 C174.990234,111.28418 176.088379,112.579102 176.088379,114.578613 L176.088379,114.997559 L171.353027,114.997559 L171.353027,115.061035 C171.353027,116.324219 172.095703,117.155762 173.282715,117.155762 C174.120605,117.155762 174.736328,116.730469 174.92041,116.108398 Z M177.554688,118 L178.65918,118 L178.65918,112.306152 L180.004883,112.306152 L180.004883,111.398438 L178.652832,111.398438 L178.652832,110.668457 C178.652832,110.014648 178.938477,109.697266 179.535156,109.697266 C179.719238,109.697266 179.90332,109.716309 180.036621,109.735352 L180.036621,108.840332 C179.87793,108.814941 179.611328,108.789551 179.36377,108.789551 C178.14502,108.789551 177.554688,109.392578 177.554688,110.662109 L177.554688,111.398438 L176.634277,111.398438 L176.634277,112.306152 L177.554688,112.306152 L177.554688,118 Z M182.943848,117.174805 C183.984863,117.174805 184.784668,116.444824 184.784668,115.492676 L184.784668,114.953125 L183.02002,115.061035 C182.131348,115.118164 181.623535,115.511719 181.623535,116.133789 C181.623535,116.762207 182.150391,117.174805 182.943848,117.174805 Z M182.696289,118.114258 C181.382324,118.114258 180.5,117.320801 180.5,116.133789 C180.5,115.003906 181.369629,114.292969 182.893066,114.204102 L184.784668,114.096191 L184.784668,113.543945 C184.784668,112.737793 184.251465,112.255371 183.337402,112.255371 C182.486816,112.255371 181.953613,112.655273 181.813965,113.302734 L180.747559,113.302734 C180.82373,112.160156 181.80127,111.28418 183.362793,111.28418 C184.911621,111.28418 185.88916,112.12207 185.88916,113.436035 L185.88916,118 L184.841797,118 L184.841797,116.86377 L184.816406,116.86377 C184.422852,117.619141 183.584961,118.114258 182.696289,118.114258 Z M192.712891,111.398438 L191.608398,111.398438 L191.608398,115.276855 C191.608398,116.400391 190.960938,117.136719 189.888184,117.136719 C188.866211,117.136719 188.364746,116.559082 188.364746,115.486328 L188.364746,111.398438 L187.260254,111.398438 L187.260254,115.683105 C187.260254,117.181152 188.104492,118.114258 189.54541,118.114258 C190.561035,118.114258 191.246582,117.688965 191.640137,116.927246 L191.665527,116.927246 L191.665527,118 L192.712891,118 L192.712891,111.398438 Z M194.198242,118 L195.302734,118 L195.302734,108.840332 L194.198242,108.840332 L194.198242,118 Z M197.149902,109.805176 L197.149902,111.398438 L196.166016,111.398438 L196.166016,112.306152 L197.149902,112.306152 L197.149902,116.286133 C197.149902,117.555664 197.619629,118.050781 198.832031,118.050781 C199.092285,118.050781 199.396973,118.031738 199.530273,118 L199.530273,117.073242 C199.454102,117.085938 199.200195,117.10498 199.073242,117.10498 C198.508301,117.10498 198.254395,116.832031 198.254395,116.229004 L198.254395,112.306152 L199.536621,112.306152 L199.536621,111.398438 L198.254395,111.398438 L198.254395,109.805176 L197.149902,109.805176 Z"/>
    <rect width="132" height="32" x="114" y="225" fill="#002275" rx="2"/>
    <path fill="#FFF" d="M159.98291,235.840332 L163.251953,235.840332 C164.972168,235.840332 166.18457,237.046387 166.18457,238.779297 C166.18457,240.518555 164.959473,241.730957 163.239258,241.730957 L161.125488,241.730957 L161.125488,245 L159.98291,245 L159.98291,235.840332 Z M161.125488,236.855957 L161.125488,240.715332 L162.953613,240.715332 C164.26123,240.715332 165.010254,239.998047 165.010254,238.779297 C165.010254,237.566895 164.267578,236.855957 162.953613,236.855957 L161.125488,236.855957 Z M167.320801,245 L168.425293,245 L168.425293,240.886719 C168.425293,239.953613 168.983887,239.337891 169.84082,239.337891 C170.107422,239.337891 170.342285,239.369629 170.431152,239.401367 L170.431152,238.328613 C170.342285,238.315918 170.177246,238.28418 169.986816,238.28418 C169.212402,238.28418 168.603027,238.747559 168.387207,239.477539 L168.361816,239.477539 L168.361816,238.398438 L167.320801,238.398438 L167.320801,245 Z M173.655762,239.242676 C172.621094,239.242676 171.897461,240.036133 171.827637,241.134277 L175.414062,241.134277 C175.388672,240.029785 174.696777,239.242676 173.655762,239.242676 Z M175.388672,243.108398 L176.474121,243.108398 C176.283691,244.263672 175.166504,245.114258 173.725586,245.114258 C171.833984,245.114258 170.685059,243.800293 170.685059,241.724609 C170.685059,239.674316 171.853027,238.28418 173.674805,238.28418 C175.458496,238.28418 176.556641,239.579102 176.556641,241.578613 L176.556641,241.997559 L171.821289,241.997559 L171.821289,242.061035 C171.821289,243.324219 172.563965,244.155762 173.750977,244.155762 C174.588867,244.155762 175.20459,243.730469 175.388672,243.108398 Z M177.553223,240.220215 C177.553223,241.121582 178.124512,241.718262 179.286133,242.016602 L180.447754,242.314941 C181.19043,242.511719 181.463379,242.765625 181.463379,243.235352 C181.463379,243.832031 180.911133,244.212891 180.016113,244.212891 C179.121094,244.212891 178.600586,243.844727 178.47998,243.15918 L177.375488,243.15918 C177.489746,244.327148 178.499023,245.114258 179.946289,245.114258 C181.48877,245.114258 182.574219,244.301758 182.574219,243.152832 C182.574219,242.181641 182.091797,241.699219 180.758789,241.362793 L179.736816,241.115234 C178.987793,240.924805 178.638672,240.620117 178.638672,240.163086 C178.638672,239.585449 179.171875,239.185547 179.978027,239.185547 C180.790527,239.185547 181.304688,239.579102 181.380859,240.213867 L182.43457,240.213867 C182.383789,239.09668 181.380859,238.28418 180.016113,238.28418 C178.5625,238.28418 177.553223,239.090332 177.553223,240.220215 Z M183.602539,240.220215 C183.602539,241.121582 184.173828,241.718262 185.335449,242.016602 L186.49707,242.314941 C187.239746,242.511719 187.512695,242.765625 187.512695,243.235352 C187.512695,243.832031 186.960449,244.212891 186.06543,244.212891 C185.17041,244.212891 184.649902,243.844727 184.529297,243.15918 L183.424805,243.15918 C183.539062,244.327148 184.54834,245.114258 185.995605,245.114258 C187.538086,245.114258 188.623535,244.301758 188.623535,243.152832 C188.623535,242.181641 188.141113,241.699219 186.808105,241.362793 L185.786133,241.115234 C185.037109,240.924805 184.687988,240.620117 184.687988,240.163086 C184.687988,239.585449 185.221191,239.185547 186.027344,239.185547 C186.839844,239.185547 187.354004,239.579102 187.430176,240.213867 L188.483887,240.213867 C188.433105,239.09668 187.430176,238.28418 186.06543,238.28418 C184.611816,238.28418 183.602539,239.090332 183.602539,240.220215 Z M192.413086,239.242676 C191.378418,239.242676 190.654785,240.036133 190.584961,241.134277 L194.171387,241.134277 C194.145996,240.029785 193.454102,239.242676 192.413086,239.242676 Z M194.145996,243.108398 L195.231445,243.108398 C195.041016,244.263672 193.923828,245.114258 192.48291,245.114258 C190.591309,245.114258 189.442383,243.800293 189.442383,241.724609 C189.442383,239.674316 190.610352,238.28418 192.432129,238.28418 C194.21582,238.28418 195.313965,239.579102 195.313965,241.578613 L195.313965,241.997559 L190.578613,241.997559 L190.578613,242.061035 C190.578613,243.324219 191.321289,244.155762 192.508301,244.155762 C193.346191,244.155762 193.961914,243.730469 194.145996,243.108398 Z M198.925781,245.114258 C197.243652,245.114258 196.101074,243.768555 196.101074,241.699219 C196.101074,239.629883 197.237305,238.28418 198.900391,238.28418 C199.846191,238.28418 200.60791,238.747559 201.001465,239.471191 L201.026855,239.471191 L201.026855,235.840332 L202.131348,235.840332 L202.131348,245 L201.077637,245 L201.077637,243.882812 L201.058594,243.882812 C200.633301,244.644531 199.87793,245.114258 198.925781,245.114258 Z M199.135254,239.255371 C197.967285,239.255371 197.230957,240.20752 197.230957,241.699219 C197.230957,243.197266 197.967285,244.143066 199.135254,244.143066 C200.271484,244.143066 201.033203,243.178223 201.033203,241.699219 C201.033203,240.226562 200.271484,239.255371 199.135254,239.255371 Z"/>
    <rect width="132" height="32" x="114" y="162" fill="#003EAA" rx="2"/>
    <path fill="#FFF" d="M172.425781,182 L172.425781,172.840332 L171.283203,172.840332 L171.283203,176.80127 L166.255859,176.80127 L166.255859,172.840332 L165.113281,172.840332 L165.113281,182 L166.255859,182 L166.255859,177.82959 L171.283203,177.82959 L171.283203,182 L172.425781,182 Z M176.767578,182.114258 C174.939453,182.114258 173.708008,180.800293 173.708008,178.699219 C173.708008,176.591797 174.939453,175.28418 176.767578,175.28418 C178.589355,175.28418 179.820801,176.591797 179.820801,178.699219 C179.820801,180.800293 178.589355,182.114258 176.767578,182.114258 Z M176.767578,181.143066 C177.935547,181.143066 178.697266,180.254395 178.697266,178.699219 C178.697266,177.144043 177.935547,176.255371 176.767578,176.255371 C175.599609,176.255371 174.831543,177.144043 174.831543,178.699219 C174.831543,180.254395 175.599609,181.143066 176.767578,181.143066 Z M186.155762,175.398438 L185.006836,175.398438 L183.178711,180.825684 L183.15332,180.825684 L181.331543,175.398438 L180.169922,175.398438 L182.601074,182 L183.730957,182 L186.155762,175.398438 Z M189.475586,176.242676 C188.440918,176.242676 187.717285,177.036133 187.647461,178.134277 L191.233887,178.134277 C191.208496,177.029785 190.516602,176.242676 189.475586,176.242676 Z M191.208496,180.108398 L192.293945,180.108398 C192.103516,181.263672 190.986328,182.114258 189.54541,182.114258 C187.653809,182.114258 186.504883,180.800293 186.504883,178.724609 C186.504883,176.674316 187.672852,175.28418 189.494629,175.28418 C191.27832,175.28418 192.376465,176.579102 192.376465,178.578613 L192.376465,178.997559 L187.641113,178.997559 L187.641113,179.061035 C187.641113,180.324219 188.383789,181.155762 189.570801,181.155762 C190.408691,181.155762 191.024414,180.730469 191.208496,180.108398 Z M193.487305,182 L194.591797,182 L194.591797,177.886719 C194.591797,176.953613 195.150391,176.337891 196.007324,176.337891 C196.273926,176.337891 196.508789,176.369629 196.597656,176.401367 L196.597656,175.328613 C196.508789,175.315918 196.34375,175.28418 196.15332,175.28418 C195.378906,175.28418 194.769531,175.747559 194.553711,176.477539 L194.52832,176.477539 L194.52832,175.398438 L193.487305,175.398438 L193.487305,182 Z"/>
    <path fill="#0A84FF" fill-rule="nonzero" d="M116,290 L116,318 L244,318 L244,290 L116,290 Z M116,288 L244,288 C245.104569,288 246,288.895431 246,290 L246,318 C246,319.104569 245.104569,320 244,320 L116,320 C114.895431,320 114,319.104569 114,318 L114,290 C114,288.895431 114.895431,288 116,288 Z"/>
    <path fill="#0A84FF" fill-opacity=".3" fill-rule="nonzero" d="M116,288 C114.895431,288 114,288.895431 114,290 L114,318 C114,319.104569 114.895431,320 116,320 L244,320 C245.104569,320 246,319.104569 246,318 L246,290 C246,288.895431 245.104569,288 244,288 L116,288 Z M116,286 L244,286 C246.209139,286 248,287.790861 248,290 L248,318 C248,320.209139 246.209139,322 244,322 L116,322 C113.790861,322 112,320.209139 112,318 L112,290 C112,287.790861 113.790861,286 116,286 Z"/>
    <path fill="#FFF" d="M166.071777,308 L166.071777,304.032715 L170.12793,304.032715 L170.12793,303.01709 L166.071777,303.01709 L166.071777,299.868652 L170.489746,299.868652 L170.489746,298.840332 L164.929199,298.840332 L164.929199,308 L166.071777,308 Z M174.101562,308.114258 C172.273438,308.114258 171.041992,306.800293 171.041992,304.699219 C171.041992,302.591797 172.273438,301.28418 174.101562,301.28418 C175.92334,301.28418 177.154785,302.591797 177.154785,304.699219 C177.154785,306.800293 175.92334,308.114258 174.101562,308.114258 Z M174.101562,307.143066 C175.269531,307.143066 176.03125,306.254395 176.03125,304.699219 C176.03125,303.144043 175.269531,302.255371 174.101562,302.255371 C172.933594,302.255371 172.165527,303.144043 172.165527,304.699219 C172.165527,306.254395 172.933594,307.143066 174.101562,307.143066 Z M183.75,303.562988 C183.610352,302.375977 182.626465,301.28418 180.976074,301.28418 C179.154297,301.28418 177.941895,302.617188 177.941895,304.699219 C177.941895,306.825684 179.160645,308.114258 180.98877,308.114258 C182.486816,308.114258 183.591309,307.1875 183.762695,305.873535 L182.677246,305.873535 C182.486816,306.666992 181.896484,307.143066 180.995117,307.143066 C179.852539,307.143066 179.06543,306.235352 179.06543,304.699219 C179.06543,303.201172 179.839844,302.255371 180.982422,302.255371 C181.953613,302.255371 182.512207,302.845703 182.670898,303.562988 L183.75,303.562988 Z M190.199219,301.398438 L189.094727,301.398438 L189.094727,305.276855 C189.094727,306.400391 188.447266,307.136719 187.374512,307.136719 C186.352539,307.136719 185.851074,306.559082 185.851074,305.486328 L185.851074,301.398438 L184.746582,301.398438 L184.746582,305.683105 C184.746582,307.181152 185.59082,308.114258 187.031738,308.114258 C188.047363,308.114258 188.73291,307.688965 189.126465,306.927246 L189.151855,306.927246 L189.151855,308 L190.199219,308 L190.199219,301.398438 Z M191.513184,303.220215 C191.513184,304.121582 192.084473,304.718262 193.246094,305.016602 L194.407715,305.314941 C195.150391,305.511719 195.42334,305.765625 195.42334,306.235352 C195.42334,306.832031 194.871094,307.212891 193.976074,307.212891 C193.081055,307.212891 192.560547,306.844727 192.439941,306.15918 L191.335449,306.15918 C191.449707,307.327148 192.458984,308.114258 193.90625,308.114258 C195.44873,308.114258 196.53418,307.301758 196.53418,306.152832 C196.53418,305.181641 196.051758,304.699219 194.71875,304.362793 L193.696777,304.115234 C192.947754,303.924805 192.598633,303.620117 192.598633,303.163086 C192.598633,302.585449 193.131836,302.185547 193.937988,302.185547 C194.750488,302.185547 195.264648,302.579102 195.34082,303.213867 L196.394531,303.213867 C196.34375,302.09668 195.34082,301.28418 193.976074,301.28418 C192.522461,301.28418 191.513184,302.090332 191.513184,303.220215 Z"/>
  </g>
</svg>
