<svg xmlns="http://www.w3.org/2000/svg" xmlns:xlink="http://www.w3.org/1999/xlink" width="360" height="480" viewBox="0 0 360 480">
  <defs>
    <rect id="button-puffy-example-b" width="371" height="416" x="-41" y="32" rx="8"/>
    <filter id="button-puffy-example-a" width="114%" height="112.5%" x="-7%" y="-5.3%" filterUnits="objectBoundingBox">
      <feOffset dy="4" in="SourceAlpha" result="shadowOffsetOuter1"/>
      <feGaussianBlur in="shadowOffsetOuter1" result="shadowBlurOuter1" stdDeviation="8"/>
      <feColorMatrix in="shadowBlurOuter1" values="0 0 0 0 0.0470588235   0 0 0 0 0.0470588235   0 0 0 0 0.0509803922  0 0 0 0.1 0"/>
    </filter>
    <linearGradient id="button-puffy-example-c" x1="-26.941%" x2="121.248%" y1="-8.25%" y2="115.481%">
      <stop offset="0%" stop-color="#00C8D7"/>
      <stop offset="100%" stop-color="#008EA4"/>
    </linearGradient>
    <linearGradient id="button-puffy-example-d" x1="-171.323%" x2="377.735%" y1="-258.997%" y2="507.426%">
      <stop offset="0%" stop-color="#E6FCFF"/>
      <stop offset="100%" stop-color="#B5F2FF"/>
    </linearGradient>
    <linearGradient id="button-puffy-example-e" x1="15536%" x2="38879%" y1="1706.328%" y2="17334.32%">
      <stop offset="0%" stop-color="#E6FCFF"/>
      <stop offset="100%" stop-color="#B5F2FF"/>
    </linearGradient>
    <linearGradient id="button-puffy-example-f" x1="11702%" x2="35045%" y1="4024.468%" y2="18732.143%">
      <stop offset="0%" stop-color="#E6FCFF"/>
      <stop offset="100%" stop-color="#B5F2FF"/>
    </linearGradient>
    <linearGradient id="button-puffy-example-g" x1="7058%" x2="30401%" y1="977.652%" y2="2954.842%">
      <stop offset="0%" stop-color="#E6FCFF"/>
      <stop offset="100%" stop-color="#B5F2FF"/>
    </linearGradient>
    <linearGradient id="button-puffy-example-h" x1="9711%" x2="33054%" y1="3050.483%" y2="11488.71%">
      <stop offset="0%" stop-color="#E6FCFF"/>
      <stop offset="100%" stop-color="#B5F2FF"/>
    </linearGradient>
    <linearGradient id="button-puffy-example-i" x1="1343.558%" x2="3284.269%" y1="2451%" y2="25794%">
      <stop offset="0%" stop-color="#E6FCFF"/>
      <stop offset="100%" stop-color="#B5F2FF"/>
    </linearGradient>
    <linearGradient id="button-puffy-example-j" x1="9877.951%" x2="27354.439%" y1="4883%" y2="28226%">
      <stop offset="0%" stop-color="#E6FCFF"/>
      <stop offset="100%" stop-color="#B5F2FF"/>
    </linearGradient>
    <linearGradient id="button-puffy-example-k" x1="16745%" x2="37735%" y1="3200.486%" y2="10703.531%">
      <stop offset="0%" stop-color="#00C8D7"/>
      <stop offset="100%" stop-color="#008EA4"/>
    </linearGradient>
    <linearGradient id="button-puffy-example-l" x1="18629%" x2="39620%" y1="2526.709%" y2="10029.755%">
      <stop offset="0%" stop-color="#00C8D7"/>
      <stop offset="100%" stop-color="#008EA4"/>
    </linearGradient>
    <linearGradient id="button-puffy-example-m" x1="4561.149%" x2="11654.629%" y1="8158%" y2="31637%">
      <stop offset="0%" stop-color="#00C8D7"/>
      <stop offset="100%" stop-color="#008EA4"/>
    </linearGradient>
    <linearGradient id="button-puffy-example-n" x1="5231.583%" x2="12309.794%" y1="5902%" y2="29381%">
      <stop offset="0%" stop-color="#00C8D7"/>
      <stop offset="100%" stop-color="#008EA4"/>
    </linearGradient>
    <linearGradient id="button-puffy-example-o" x1="2847.602%" x2="7074.973%" y1="7551%" y2="31029%">
      <stop offset="0%" stop-color="#00C8D7"/>
      <stop offset="100%" stop-color="#008EA4"/>
    </linearGradient>
    <linearGradient id="button-puffy-example-p" x1="3414.282%" x2="7337.16%" y1="7557%" y2="28548%">
      <stop offset="0%" stop-color="#00C8D7"/>
      <stop offset="100%" stop-color="#008EA4"/>
    </linearGradient>
    <linearGradient id="button-puffy-example-q" x1="5137.285%" x2="11068.918%" y1="7555%" y2="28546%">
      <stop offset="0%" stop-color="#00C8D7"/>
      <stop offset="100%" stop-color="#008EA4"/>
    </linearGradient>
    <linearGradient id="button-puffy-example-r" x1="5408.032%" x2="19404.81%" y1="2404%" y2="30273%">
      <stop offset="0%" stop-color="#00C8D7"/>
      <stop offset="100%" stop-color="#008EA4"/>
    </linearGradient>
    <linearGradient id="button-puffy-example-s" x1="11416%" x2="39284%" y1="882.955%" y2="14900.837%">
      <stop offset="0%" stop-color="#00C8D7"/>
      <stop offset="100%" stop-color="#008EA4"/>
    </linearGradient>
    <linearGradient id="button-puffy-example-t" x1="15143.946%" x2="26863.226%" y1="11077%" y2="24763%">
      <stop offset="0%" stop-color="#E6FCFF"/>
      <stop offset="100%" stop-color="#B5F2FF"/>
    </linearGradient>
    <linearGradient id="button-puffy-example-u" x1="14960%" x2="35413%" y1="1621.268%" y2="5580.508%">
      <stop offset="0%" stop-color="#00C8D7"/>
      <stop offset="100%" stop-color="#008EA4"/>
    </linearGradient>
    <linearGradient id="button-puffy-example-v" x1="3286.542%" x2="10002.748%" y1="6761%" y2="30104%">
      <stop offset="0%" stop-color="#E6FCFF"/>
      <stop offset="100%" stop-color="#B5F2FF"/>
    </linearGradient>
    <linearGradient id="button-puffy-example-w" x1="7360.89%" x2="20190.398%" y1="4708%" y2="28051%">
      <stop offset="0%" stop-color="#E6FCFF"/>
      <stop offset="100%" stop-color="#B5F2FF"/>
    </linearGradient>
    <linearGradient id="button-puffy-example-x" x1="9826%" x2="33168%" y1="404.297%" y2="1414.682%">
      <stop offset="0%" stop-color="#E6FCFF"/>
      <stop offset="100%" stop-color="#B5F2FF"/>
    </linearGradient>
    <linearGradient id="button-puffy-example-y" x1="1959.453%" x2="4691.22%" y1="10444%" y2="31735%">
      <stop offset="0%" stop-color="#00C8D7"/>
      <stop offset="100%" stop-color="#008EA4"/>
    </linearGradient>
    <linearGradient id="button-puffy-example-z" x1="10346.951%" x2="23272.471%" y1="8363%" y2="29655%">
      <stop offset="0%" stop-color="#00C8D7"/>
      <stop offset="100%" stop-color="#008EA4"/>
    </linearGradient>
    <linearGradient id="button-puffy-example-A" x1="842.768%" x2="2169.364%" y1="12601%" y2="33893%">
      <stop offset="0%" stop-color="#00C8D7"/>
      <stop offset="100%" stop-color="#008EA4"/>
    </linearGradient>
    <linearGradient id="button-puffy-example-B" x1="14848.451%" x2="33649.847%" y1="8568%" y2="29860%">
      <stop offset="0%" stop-color="#00C8D7"/>
      <stop offset="100%" stop-color="#008EA4"/>
    </linearGradient>
    <linearGradient id="button-puffy-example-C" x1="255.672%" x2="481.055%" y1="5757%" y2="27049%">
      <stop offset="0%" stop-color="#00C8D7"/>
      <stop offset="100%" stop-color="#008EA4"/>
    </linearGradient>
    <linearGradient id="button-puffy-example-D" x1="16757%" x2="38048%" y1="1868.186%" y2="6385.748%">
      <stop offset="0%" stop-color="#00C8D7"/>
      <stop offset="100%" stop-color="#008EA4"/>
    </linearGradient>
    <linearGradient id="button-puffy-example-E" x1="10685%" x2="31977%" y1="1528.387%" y2="3678.51%">
      <stop offset="0%" stop-color="#00C8D7"/>
      <stop offset="100%" stop-color="#008EA4"/>
    </linearGradient>
  </defs>
  <g fill="none" fill-rule="evenodd">
    <rect width="360" height="480" fill="#0C0C0D" fill-opacity=".5"/>
    <use fill="#000" filter="url(#button-puffy-example-a)" xlink:href="#button-puffy-example-b"/>
    <use fill="#F9F9FA" xlink:href="#button-puffy-example-b"/>
    <g transform="translate(32 90)">
      <rect width="279" height="241"/>
      <g transform="translate(0 4)">
        <path fill="#EAEAEE" fill-rule="nonzero" d="M215.816901 81L134.183099 81C133.529691 81 133 80.5522847 133 80 133 79.4477153 133.529691 79 134.183099 79L215.816901 79C216.470309 79 217 79.4477153 217 80 217 80.5522847 216.470309 81 215.816901 81zM204.422124 75L190.577876 75C190.258724 75 190 74.7761424 190 74.5 190 74.2238576 190.258724 74 190.577876 74L204.422124 74C204.741276 74 205 74.2238576 205 74.5 205 74.7761424 204.741276 75 204.422124 75L204.422124 75zM185.412377 87L171.301027 87C170.976491 87 170.713404 86.7761424 170.713404 86.5 170.713404 86.2238576 170.976491 86 171.301027 86L185.412377 86C185.736912 86 186 86.2238576 186 86.5 186 86.7761424 185.736912 87 185.412377 87zM161.907451 87L158.390107 87C158.065572 87 157.802484 86.7761424 157.802484 86.5 157.802484 86.2238576 158.065572 86 158.390107 86L161.907451 86C162.231986 86 162.495074 86.2238576 162.495074 86.5 162.495074 86.7761424 162.231986 87 161.907451 87zM153.697516 87L152.52227 87C152.197735 87 151.934647 86.7761424 151.934647 86.5 151.934647 86.2238576 152.197735 86 152.52227 86L153.697516 86C154.022052 86 154.285139 86.2238576 154.285139 86.5 154.285139 86.7761424 154.022052 87 153.697516 87zM141.945053 87L127.884071 87C127.559536 87 127.296448 86.7761424 127.296448 86.5 127.296448 86.2238576 127.559536 86 127.884071 86L141.961843 86C142.286378 86 142.549466 86.2238576 142.549466 86.5 142.549466 86.7761424 142.286378 87 141.961843 87L141.945053 87zM118.440128 87L114.922783 87C114.598248 87 114.33516 86.7761424 114.33516 86.5 114.33516 86.2238576 114.598248 86 114.922783 86L118.440128 86C118.764663 86 119.027751 86.2238576 119.027751 86.5 119.027751 86.7761424 118.764663 87 118.440128 87zM110.230193 87L109.054947 87C108.730411 87 108.467323 86.7761424 108.467323 86.5 108.467323 86.2238576 108.730411 86 109.054947 86L110.230193 86C110.554728 86 110.817816 86.2238576 110.817816 86.5 110.817816 86.7761424 110.554728 87 110.230193 87zM98.47773 87L84.4671153 87C84.14258 87 83.8794922 86.7761424 83.8794922 86.5 83.8794922 86.2238576 84.14258 86 84.4671153 86L98.5448869 86C98.8694222 86 99.1325101 86.2238576 99.1325101 86.5 99.1325101 86.7761424 98.8694222 87 98.5448869 87L98.47773 87zM74.9728042 87L71.5561954 87C71.2316601 87 70.9685722 86.7761424 70.9685722 86.5 70.9685722 86.2238576 71.2316601 86 71.5561954 86L75.0735396 86C75.3980749 86 75.6611628 86.2238576 75.6611628 86.5 75.6611628 86.7761424 75.3980749 87 75.0735396 87L74.9728042 87zM66.7628694 87L65.5876231 87C65.2630878 87 65 86.7761424 65 86.5 65 86.2238576 65.2630878 86 65.5876231 86L66.7628694 86C67.0874047 86 67.3504926 86.2238576 67.3504926 86.5 67.3504926 86.7761424 67.0874047 87 66.7628694 87z"/>
        <path fill="#FFF" fill-rule="nonzero" d="M160,50.9884187 L185.015225,50.9884187 C185.015225,50.9884187 177.191671,33.4481034 193.812526,31.1840224 C208.636985,29.1640245 214.487861,44.4402588 214.487861,44.4402588 C214.487861,44.4402588 216.250679,35.6280178 225.064768,37.3197661 C233.878858,39.0115144 240.174636,53 240.174636,53 L262,53"/>
        <path fill="#EAEAEE" fill-rule="nonzero" d="M262.429781,49 L257.717089,49 C257.392903,49 257.130099,48.7348621 257.130099,48.4077979 C257.130099,48.0807337 257.392903,47.8155957 257.717089,47.8155957 L262.41301,47.8155957 C262.737196,47.8155958 263,48.0807337 263,48.4077979 C263,48.734862 262.737196,49 262.41301,49 L262.429781,49 Z M247.184808,49 L245.977286,49 C245.6531,49 245.390296,48.7348621 245.390296,48.4077979 C245.390296,48.0807337 245.6531,47.8155957 245.977286,47.8155957 L247.151266,47.8155957 C247.360977,47.8155957 247.554759,47.9284688 247.659614,48.1116968 C247.76447,48.2949248 247.76447,48.520671 247.659614,48.703899 C247.554759,48.8871269 247.360977,49 247.151266,49 L247.184808,49 Z M241.314907,49 L240.660832,49 C240.437852,48.9968886 240.234729,48.870029 240.132541,48.6700588 C240.006757,48.4162579 239.52878,47.5025746 238.723765,46.2081899 C238.552409,45.9301854 238.636882,45.5646738 238.91244,45.391797 C239.187998,45.2189202 239.550293,45.3041431 239.721648,45.5821477 C240.34218,46.5888913 240.77823,47.3756741 241.013026,47.8155957 L241.314907,47.8155957 C241.639093,47.8155957 241.901897,48.0807337 241.901897,48.4077979 C241.901897,48.7348621 241.639093,49 241.314907,49 L241.314907,49 Z M185.601156,48.2724374 L184.049825,48.2724374 C183.725639,48.2724374 183.462835,48.0072994 183.462835,47.6802352 C183.462835,47.353171 183.725639,47.0880331 184.049825,47.0880331 L184.729056,47.0880331 C184.620044,46.791932 184.485875,46.4281507 184.351706,45.9966892 C184.272736,45.6928358 184.442666,45.3796406 184.738927,45.2830065 C185.035188,45.1863724 185.354692,45.3399244 185.466987,45.6329079 C185.819181,46.7411719 186.121062,47.4348944 186.129447,47.4348944 C186.216205,47.6193893 186.202627,47.8359628 186.093518,48.0079586 C185.98441,48.1799544 185.795166,48.2831039 185.592771,48.2808974 L185.601156,48.2724374 Z M174.69991,48.2724374 L160.58699,48.2724374 C160.262804,48.2724374 160,48.0072994 160,47.6802352 C160,47.353171 160.262804,47.0880331 160.58699,47.0880331 L174.649597,47.0880331 C174.859308,47.0880331 175.05309,47.2009062 175.157945,47.3841342 C175.262801,47.5673621 175.262801,47.7931083 175.157945,47.9763363 C175.05309,48.1595643 174.859308,48.2724374 174.649597,48.2724374 L174.69991,48.2724374 Z M183.924041,41.800514 C183.627545,41.7981996 183.379314,41.5731712 183.345437,41.2759922 C183.295123,40.8783707 183.261581,40.4299891 183.236424,40.0577478 C183.224441,39.8461743 183.325247,39.6442225 183.500871,39.5279656 C183.676495,39.4117087 183.900254,39.3988089 184.087861,39.4941255 C184.275468,39.589442 184.398421,39.7784941 184.410405,39.9900675 C184.410405,40.3792289 184.469104,40.7599303 184.511032,41.1321716 C184.529976,41.2881189 184.48672,41.4452697 184.390784,41.5690313 C184.294848,41.6927929 184.154096,41.7730205 183.999512,41.792054 L183.924041,41.800514 Z M214.522999,40.5907297 C214.298914,40.5914995 214.093945,40.4634873 213.994708,40.2607885 C213.852153,39.9646874 213.676056,39.6178262 213.466417,39.2286648 C213.366055,39.0427824 213.371611,38.8170021 213.480992,38.6363733 C213.590374,38.4557444 213.786962,38.3477087 213.996705,38.3529623 C214.206448,38.3582158 214.397481,38.4759603 214.497843,38.6618427 C214.715867,39.0679242 214.90035,39.4317055 215.05129,39.7362666 C215.137395,39.9194002 215.124681,40.1342409 215.017589,40.3057372 C214.910497,40.4772335 214.723907,40.5815592 214.522999,40.5822697 L214.522999,40.5907297 Z M233.398925,39.0763842 C233.249358,39.0764965 233.105389,39.0190028 232.996418,38.9156436 C230.480746,36.4706948 227.965074,34.9901895 225.449402,34.5164278 C223.940929,34.1832433 222.372847,34.2473393 220.896035,34.7025485 C220.588059,34.8053401 220.255799,34.6367881 220.153912,34.3260771 C220.052025,34.0153661 220.219094,33.680156 220.52707,33.5773644 C222.192673,33.0572809 223.96295,32.9786155 225.667427,33.3489436 C228.359196,33.8650054 231.092893,35.4470311 233.793047,38.0527205 C233.962371,38.2200493 234.015333,38.4736965 233.927306,38.6957188 C233.839278,38.917741 233.627537,39.064567 233.39054,39.0679242 L233.398925,39.0763842 Z M211.361638,35.5739316 C211.185645,35.572806 211.01944,35.4920705 210.908817,35.3539708 C210.193795,34.4494113 209.411686,33.6009665 208.569242,32.8159617 C208.367266,32.6894143 208.260903,32.4524462 208.29987,32.2158229 C208.338836,31.9791996 208.515435,31.7896601 208.74712,31.7358004 C208.978804,31.6819406 209.219811,31.7743993 209.357486,31.9699586 C210.244859,32.7910822 211.069024,33.6791281 211.822845,34.6264082 C211.964594,34.8033476 211.993342,35.0465694 211.896807,35.2521749 C211.800272,35.4577805 211.595523,35.5894167 211.370024,35.5908517 L211.361638,35.5739316 Z M187.362127,31.0647353 C187.115283,31.0628156 186.896005,30.905294 186.813456,30.670589 C186.730906,30.4358841 186.802726,30.1741526 186.993161,30.0156916 C189.124539,28.4269151 191.642777,27.4504368 194.280225,27.1900414 C196.487725,26.8729586 198.733461,26.9531596 200.913213,27.4269222 C201.230452,27.4970074 201.43131,27.8132791 201.361842,28.1333348 C201.292373,28.4533905 200.978885,28.6560316 200.661646,28.5859464 C198.617025,28.1403797 196.51007,28.0658955 194.439551,28.3659856 C192.017922,28.5882467 189.700465,29.4650096 187.731092,30.9039948 C187.630682,30.9997063 187.500031,31.0566247 187.362127,31.0647353 L187.362127,31.0647353 Z"/>
        <path fill="#FFF" fill-rule="nonzero" d="M263.818659 53L263.818659 53 160.181341 53C159.528904 53 159 52.5522847 159 52 159 51.4477153 159.528904 51 160.181341 51L160.181341 51 263.818659 51C264.471096 51 265 51.4477153 265 52 265 52.5522847 264.471096 53 263.818659 53zM52 30.8948903L65.9779488 30.8948903C65.9779488 30.8948903 61.6082581 21.3365166 70.8959597 20.0994535 79.1798135 19.002591 82.4528637 27.3403959 82.4528637 27.3403959 82.4528637 27.3403959 83.4398402 22.5405913 88.3578511 23.4560179 93.2758621 24.3714446 96.7935474 32 96.7935474 32L109 32"/>
        <path fill="#EAEAEE" fill-rule="nonzero" d="M66.5943662,29.9832887 L52.5915493,29.9832887 C52.2648456,29.9832887 52,29.7219586 52,29.3995915 C52,29.0772245 52.2648456,28.8158943 52.5915493,28.8158943 L66.1633803,28.8158943 C66.305887,28.6871771 66.5031153,28.6352359 66.6916719,28.6767658 C66.8802285,28.7182956 67.0363513,28.8480629 67.1098592,29.0243576 L67.1690141,29.1661126 C67.2564458,29.3479579 67.242762,29.5614211 67.1328061,29.7309468 C67.0228501,29.9004725 66.8321367,30.0021406 66.628169,29.9999658 L66.5943662,29.9832887 Z M105.408451,29.8165181 L101.867606,29.8165181 C101.540902,29.8165181 101.276056,29.555188 101.276056,29.2328209 C101.276056,28.9104538 101.540902,28.6491237 101.867606,28.6491237 L105.408451,28.6491237 C105.735154,28.6491237 106,28.9104538 106,29.2328209 C106,29.555188 105.735154,29.8165181 105.408451,29.8165181 L105.408451,29.8165181 Z M83.1830986,26.0558403 L83.0140845,26.0558403 C82.7016326,25.9634321 82.5239517,25.6388993 82.6169014,25.3303881 C82.9126761,24.3547799 84.1549296,21.1611223 87.8140845,21.1611223 C88.2565136,21.1621378 88.6978752,21.2040131 89.1323944,21.2862003 C91.3825645,21.8420282 93.3987238,23.0817552 94.8957746,24.8300762 C95.0467319,24.9790297 95.1056875,25.1961342 95.0504333,25.3996085 C94.9951791,25.6030828 94.8341096,25.7620143 94.6278981,25.8165351 C94.4216866,25.8710559 94.2016615,25.8128829 94.0507042,25.6639294 C92.7209108,24.1024945 90.9307926,22.9890486 88.9295775,22.4786103 C88.5703783,22.4092772 88.205433,22.3729879 87.8394366,22.3702094 C85.0760563,22.3702094 84.0788732,24.6883212 83.7746479,25.705622 C83.674001,25.9354714 83.4359983,26.0763775 83.1830986,26.0558403 L83.1830986,26.0558403 Z M67.1267606,21.0026902 C66.8921648,20.9995651 66.6816116,20.8599317 66.590076,20.6467751 C66.4985404,20.4336184 66.5433237,20.1872278 66.7042254,20.0187435 C67.6236941,19.1206957 68.7754244,18.4890182 70.0338028,18.192605 C70.3398834,18.1323029 70.6407812,18.3170271 70.7212034,18.6146072 C70.8016256,18.9121873 70.6338972,19.2202197 70.3380282,19.3183068 C69.2862411,19.5607471 68.3217988,20.0827075 67.5492958,20.827581 C67.4319415,20.9460111 67.2691212,21.0096685 67.1014085,21.0026902 L67.1267606,21.0026902 Z M75.9830986,19.4267077 C75.9242901,19.4356421 75.8644422,19.4356421 75.8056338,19.4267077 C75.4539302,19.3155815 75.0954718,19.2264601 74.7323944,19.1598747 C74.5775129,19.1315657 74.4404698,19.0434744 74.3516367,18.915124 C74.2628036,18.7867735 74.2295173,18.6287645 74.2591549,18.4761151 C74.3230806,18.1604634 74.6308846,17.953046 74.9521127,18.0091574 C75.3639109,18.0866782 75.7703499,18.1897243 76.1690141,18.317683 C76.438834,18.4116165 76.6018446,18.682635 76.5561542,18.9613352 C76.5104639,19.2400354 76.2691711,19.44652 75.9830986,19.4517233 L75.9830986,19.4267077 Z"/>
        <path fill="#FFF" fill-rule="nonzero" d="M109.818732,33 L109.818732,33 L52.1812685,33 C51.5288719,33 51,32.5522847 51,32 C51,31.4477153 51.5288719,31 52.1812685,31 L52.1812685,31 L109.818732,31 C110.471128,31 111,31.4477153 111,32 C111,32.5522847 110.471128,33 109.818732,33 Z"/>
        <path fill="#F9F9FA" fill-rule="nonzero" d="M20.3119393,178.998379 C17.456998,179.069259 15.0823086,176.806316 15,173.936405 L15,48.6694113 C15,45.5382819 17.5247627,43 20.6392152,43 L154.369176,43 C157.480351,43.0046545 160.000003,45.5415737 160,48.6694113 L160,173.919532 C159.917691,176.789443 157.543002,179.052386 154.688061,178.981506 L20.3119393,178.998379 Z"/>
        <path fill="#EAEAEE" fill-rule="nonzero" d="M155.155874,44.364634 C157.632365,44.364634 159.639957,46.3689728 159.639957,48.84145 L159.639957,173.763128 C159.566664,175.981801 157.706943,177.721758 155.484595,177.65089 L20.5069765,177.65089 C18.2846279,177.721758 16.4249074,175.981801 16.3516146,173.763128 L16.3516146,48.8330349 C16.3516146,46.3605577 18.3592066,44.3562189 20.8356968,44.3562189 L155.155874,44.3562189 L155.155874,44.364634 Z M155.155874,42 L20.8356968,42 C17.062371,42.0046366 14.0046441,45.0574086 14,48.8246198 L14,173.763128 C14.0783062,177.279618 16.9930453,180.069167 20.5154052,179.998694 L155.484595,179.998694 C159.006955,180.069167 161.921694,177.279618 162,173.763128 L162,48.8330349 C161.995356,45.0658236 158.937629,42.0130516 155.164303,42.0084151 L155.155874,42 Z"/>
        <path fill="#EAEAEE" fill-rule="nonzero" d="M133.698135,1.95238543 L133.698135,105.504553 C133.698135,106.548069 133.571567,106.75004 133.546253,106.783702 C133.52094,106.817363 133.309993,106.93518 132.272134,106.93518 L3.12201388,106.93518 C2.08415521,106.93518 1.87320833,106.808948 1.8478947,106.783702 C1.82258108,106.758455 1.69601295,106.548069 1.69601295,105.504553 L1.69601295,1.95238543 L133.698135,1.95238543 L133.698135,1.95238543 Z M134.879437,0.77422181 L0.514710396,0.77422181 L0.514710396,105.504553 C0.514710396,107.650493 0.970355665,108.104928 3.12201388,108.104928 L132.272134,108.104928 C134.423792,108.104928 134.879437,107.650493 134.879437,105.504553 L134.879437,0.77422181 Z" transform="translate(20 65)"/>
        <ellipse cx="3.294" cy="3.435" fill="#EAEAEE" fill-rule="nonzero" rx="2.85" ry="2.855" transform="translate(24 51)"/>
        <ellipse cx="2.961" cy="3.435" fill="#EAEAEE" fill-rule="nonzero" rx="2.85" ry="2.855" transform="translate(35 51)"/>
        <path fill="#EAEAEE" fill-rule="nonzero" d="M70.723096,6.66395904 L3.51601533,6.66395904 C1.71320769,6.66395904 0.251743341,5.27899088 0.251743341,3.57054608 L0.251743341,3.29221843 C0.251743341,1.58377362 1.71320769,0.198805461 3.51601533,0.198805461 L70.723096,0.198805461 C72.5259037,0.198805461 73.987368,1.58377362 73.987368,3.29221843 L73.987368,3.57054608 C73.987368,5.27899088 72.5259037,6.66395904 70.723096,6.66395904 Z" transform="translate(51 51)"/>
        <ellipse cx="2.961" cy="3.435" fill="#EAEAEE" fill-rule="nonzero" rx="2.85" ry="2.855" transform="translate(135 51)"/>
        <ellipse cx="3.429" cy="3.435" fill="#EAEAEE" fill-rule="nonzero" rx="2.85" ry="2.855" transform="translate(144 51)"/>
        <ellipse cx="202" cy="240" fill="#EAEAEE" fill-rule="nonzero" rx="45" ry="7"/>
        <path fill="#FFF" fill-rule="nonzero" d="M285.345611,194.596262 C283.694463,190.518947 279.282723,188.292458 275.023416,189.386923 C274.180788,189.386923 271.754019,189.083466 267.380779,187.304873 C265.594407,186.579948 262.249174,183.233496 258.533184,176.169699 C264.060824,155.096319 264.305186,137.242951 259.249418,122.963629 C258.834785,121.798221 258.321739,120.670236 257.715834,119.591888 L257.353504,118.14204 L259.426369,116.388734 C260.757122,115.266057 261.498698,113.594155 261.437856,111.853783 C261.377015,110.113411 260.520498,108.497418 259.114597,107.47048 C259.146018,104.652242 257.110261,102.235692 254.328469,101.789097 C253.87345,101.713233 243.146794,100.018933 236.237243,100.018933 L235.841208,100.018933 L234.012705,97.077089 C231.03157,92.2847124 225.614055,89.5715136 219.992373,90.0554284 C214.370691,90.5393433 209.496147,94.1384832 207.37723,99.3698728 C200.77025,100.197615 194.29321,101.851448 188.097899,104.292614 L184.55886,102.884913 C177.306987,99.934957 169.006843,103.060539 165.499652,110.062031 C161.992461,117.063523 164.457968,125.585771 171.161073,129.631246 C169.927328,136.46153 169.570538,143.42146 170.099362,150.342164 C170.722907,159.867332 167.782134,164.587769 164.66441,169.594804 C159.987824,177.105357 154.687693,185.610573 164.66441,205.335257 C164.632014,207.386729 164.716413,209.438382 164.917199,211.480254 C166.27383,223.913548 169.829721,230.227133 175.492182,230.227133 C176.497124,230.226118 177.488556,229.995468 178.390823,229.552785 C180.70805,228.414822 181.845598,226.75424 183.682527,219.08353 C194.325633,222.570223 205.28427,225.006676 216.401777,226.35806 C214.556422,234.374374 214.826063,236.329984 216.452335,238.428892 C217.723281,240.063732 219.682234,241.013968 221.752466,240.999845 C226.142558,240.999845 231.105638,236.684017 236.523737,228.1788 C238.279074,225.290786 239.816912,222.275975 241.124487,219.159394 C245.188918,212.06035 248.709942,204.663505 251.657338,197.032345 C254.190654,199.857659 257.303311,202.103154 260.783001,203.615669 C266.285362,205.841018 271.096769,206.98741 275.107679,206.98741 C276.955925,207.031905 278.795447,206.71996 280.525778,206.06861 C285.023274,204.231739 287.181055,199.095706 285.345611,194.596262 Z"/>
        <path d="M277.900056,196.169761 C277.489817,195.186608 276.368499,194.714731 275.380651,195.109535 C274.971092,195.224021 274.545393,195.269518 274.120948,195.244167 C272.6261,195.244167 269.283689,194.907587 263.749395,192.660918 C257.937966,190.304859 252.899155,181.427569 250.413341,176.345214 C250.285181,176.083742 250.258253,175.783964 250.337759,175.503765 C256.023218,154.955572 256.501905,137.756347 251.77382,124.368887 C251.406913,123.370451 250.93983,122.411898 250.379749,121.50796 C250.319565,121.408549 250.274291,121.300814 250.245381,121.188209 L248.834514,115.542084 C248.724493,115.106757 248.871057,114.646623 249.212425,114.35564 L251.992169,111.999582 L245.870013,111.065573 C245.369827,110.987295 244.97581,110.596999 244.891965,110.09676 C244.80812,109.596522 245.053274,109.098673 245.5005,108.860976 L248.641359,107.178077 C244.189054,106.525635 239.702425,106.135094 235.20453,106.008462 C234.275325,105.995119 233.346362,106.048548 232.424785,106.168338 L231.988088,106.227239 C231.527181,106.294861 231.07066,106.079411 230.829162,105.680297 L227.201218,99.8406385 C225.318027,96.8024003 221.674096,95.3544632 218.224531,96.2737004 C214.774966,97.1929376 212.330368,100.263341 212.202357,103.837523 C212.177389,104.443152 211.697818,104.930945 211.093818,104.965065 C203.022808,105.50471 195.102346,107.416862 187.671744,110.619605 C187.384215,110.739745 187.060686,110.739745 186.773156,110.619605 L181.112892,108.297205 C178.429103,107.196932 175.36334,107.614832 173.070448,109.393484 C170.777555,111.172137 169.605877,114.041324 169.996773,116.920249 C170.387669,119.799174 172.281753,122.250461 174.965542,123.350734 L177.367375,124.335229 C177.919973,124.564489 178.212732,125.172884 178.047615,125.748864 C176.183255,132.337413 175.528209,140.129234 176.099275,148.897136 C176.863494,160.610111 173.042396,166.752692 169.666392,172.18004 C165.13986,179.450163 161.570702,185.188847 170.581776,202.354414 C170.675495,202.533208 170.721765,202.73314 170.716145,202.935014 C170.633793,205.180528 170.695506,207.429024 170.900901,209.666609 C171.791091,217.879155 173.663849,221.4469 174.486855,222.145303 C174.873164,221.303854 175.771752,218.678532 177.552132,210.171479 C177.624992,209.82841 177.846638,209.535716 178.156766,209.373026 C178.466895,209.210336 178.833248,209.194575 179.156153,209.330029 C190.501877,214.109462 210.371589,218.518656 222.557114,218.964625 C222.912495,218.978691 223.242421,219.153186 223.454509,219.439249 C223.666596,219.725311 223.738048,220.092192 223.648856,220.437161 C221.381391,229.196649 221.00348,232.065991 220.986684,233 C222.187601,232.671835 225.429236,230.155901 229.720623,223.407477 C231.328415,220.711848 232.732027,217.899118 233.919633,214.992984 L233.986817,214.858352 C237.497189,208.968206 243.224637,197.314133 247.700781,183.775212 C247.847511,183.342458 248.23082,183.033796 248.68418,182.983324 C249.13754,182.932852 249.579122,183.14968 249.817082,183.539607 C253.764151,190.128155 258.038742,194.478448 262.187363,196.161347 C267.990394,198.517405 271.744308,199.01386 273.877405,199.01386 C274.83813,199.053299 275.797803,198.913488 276.707537,198.60155 C277.70274,198.255088 278.234459,197.170806 277.900056,196.169761 L277.900056,196.169761 Z"/>
        <path fill="url(#button-puffy-example-c)" fill-rule="nonzero" d="M282.586961,194.624325 C281.441299,191.794603 278.310401,190.325594 275.403487,191.253858 C274.670824,191.253858 271.815961,191.211727 266.257822,188.96194 C263.074525,187.672736 259.02382,182.633888 255.385766,175.480071 C261.03654,154.557895 261.407083,136.88822 256.463708,122.942912 C256.058939,121.825407 255.551481,120.747863 254.947852,119.724115 L254.046759,116.100863 L257.516386,113.168557 C258.335278,112.47686 258.673658,111.369568 258.381404,110.33793 C258.08915,109.306292 257.220386,108.541359 256.160537,108.382493 L255.436294,108.272953 C256.115435,107.532082 256.332689,106.477705 256.001791,105.528481 C255.670894,104.579258 254.845393,103.888793 253.853067,103.731248 C253.743588,103.731248 242.964167,101.995457 236.218608,101.995457 C235.511208,101.995457 234.837494,101.995457 234.247995,102.054441 L231.519454,97.664407 C228.959243,93.5651024 224.198445,91.393458 219.426544,92.1482105 C214.654642,92.902963 210.79543,96.4380001 209.623755,101.127562 C202.236668,101.858546 194.996187,103.666848 188.132284,106.495031 L183.49208,104.599143 C177.342944,102.107181 170.337675,105.060728 167.825416,111.204491 C165.313158,117.348254 168.240286,124.367857 174.371679,126.903211 L174.573793,126.987473 C173.001562,134.251076 172.505004,141.706476 173.100044,149.11459 C173.790601,159.588317 170.455718,164.930508 167.205048,170.104175 C162.682744,177.367532 158.000433,184.875248 167.651384,203.581342 C167.595173,205.757894 167.671106,207.935854 167.878762,210.103196 C168.535633,216.11948 170.405189,226.21403 175.516993,226.21403 C176.074397,226.214787 176.624591,226.087969 177.125484,225.843278 C178.456069,225.194463 179.340319,224.30129 181.580417,214.156183 C194.016527,218.550958 206.939565,221.419961 220.066319,222.700318 C217.346199,233.654336 217.960963,234.496953 218.794684,235.567077 C219.504171,236.487176 220.60613,237.018163 221.767446,236.999525 C226.1129,236.999525 231.325761,229.82043 234.04588,225.548363 C235.755748,222.721224 237.250561,219.769347 238.517656,216.717738 C243.329589,208.228241 247.400986,199.339419 250.686612,190.15003 C254.240452,194.952946 257.996407,198.180168 261.870261,199.747435 C267.01575,201.828699 271.445419,202.890396 275.058209,202.890396 C276.52697,202.935778 277.990765,202.69835 279.369977,202.191024 C282.332816,200.976334 283.767227,197.602442 282.586961,194.624325 L282.586961,194.624325 Z M277.90465,198.576198 C276.99238,198.888569 276.030033,199.028573 275.06663,198.98908 C272.936011,198.98908 269.171635,198.491936 263.34401,196.132609 C259.183827,194.447376 254.922587,190.065768 250.939254,183.493357 C250.700632,183.102889 250.257819,182.88576 249.803195,182.936302 C249.348571,182.986845 248.964194,183.295935 248.817056,183.72929 C244.294752,197.29542 238.585027,209.007794 235.064873,214.855555 L234.997501,214.990374 C233.806585,217.90054 232.399062,220.717173 230.78679,223.416542 C226.483443,230.157477 223.207509,232.685327 222.02851,233.022374 C222.02851,232.087069 222.432739,229.20532 224.698101,220.442105 C224.787542,220.096657 224.715891,219.729267 224.503212,219.442808 C224.290533,219.156348 223.959688,218.981611 223.603316,218.967525 C211.392253,218.520938 191.458746,214.105626 180.081404,209.319562 C179.937387,209.259039 179.78285,209.227541 179.626647,209.226875 C179.06951,209.226729 178.588319,209.616819 178.472912,210.162179 C176.653885,218.664183 175.744371,221.326852 175.356986,222.169469 C174.514843,221.444819 172.653709,217.897402 171.761038,209.673462 C171.55507,207.432772 171.493186,205.181156 171.575767,202.932527 C171.581403,202.730373 171.535004,202.530163 171.441024,202.351121 C162.404837,185.161738 165.992364,179.415091 170.523089,172.134882 C173.891658,166.700003 177.740248,160.548901 176.973899,148.819674 C176.401242,140.039607 177.049692,132.245402 178.927669,125.639286 C179.093246,125.062506 178.799672,124.453267 178.245534,124.223689 L175.837007,123.237828 C173.145738,122.136029 171.246376,119.681341 170.85439,116.798421 C170.462404,113.915501 171.637348,111.042334 173.936631,109.261213 C176.235913,107.480093 179.31022,107.061614 182.001488,108.163413 L187.677527,110.489035 C187.965858,110.609342 188.290288,110.609342 188.578619,110.489035 C196.029929,107.281849 203.972465,105.367044 212.065967,104.82665 C212.67165,104.792482 213.152558,104.304013 213.177595,103.697543 C213.305963,100.118403 215.757374,97.0437391 219.216552,96.1232265 C222.67573,95.2027139 226.329817,96.6526599 228.218256,99.6951136 L231.856311,105.542874 C232.098482,105.942542 232.556275,106.158291 233.018467,106.090575 L233.456381,106.031592 C234.380526,105.911636 235.312078,105.858133 236.243872,105.871495 C240.754302,105.998302 245.253435,106.389385 249.718148,107.042732 L246.568536,108.727966 C246.120064,108.965993 245.874226,109.464532 245.958305,109.965465 C246.042383,110.466398 246.437498,110.857236 246.939079,110.935622 L253.078296,111.870927 L250.290805,114.230254 C249.948486,114.521641 249.801513,114.982413 249.911841,115.418344 L251.32664,121.072302 C251.355631,121.185063 251.40103,121.292948 251.461383,121.392497 C252.023024,122.297689 252.491409,123.257572 252.859339,124.257394 C257.6006,137.655002 257.120579,154.886516 251.419276,175.463218 C251.339548,175.743806 251.366551,176.044 251.495068,176.305835 C254.021495,181.361536 259.074349,190.276422 264.868288,192.644176 C270.418005,194.893962 273.76131,195.231009 275.268745,195.231009 C275.694373,195.256395 276.121258,195.210835 276.531958,195.09619 C277.52256,194.700838 278.647002,195.17337 279.058385,196.157888 C279.387145,197.143312 278.877156,198.212285 277.90465,198.576198 L277.90465,198.576198 Z"/>
        <path fill="url(#button-puffy-example-d)" fill-rule="nonzero" d="M195.616227,131.999995 C194.401864,131.998682 193.199473,131.757986 192.076739,131.291457 L174.904291,124.214613 C171.774518,122.959675 169.554273,120.107037 169.089689,116.743839 C168.625106,113.380641 169.987752,110.024982 172.658325,107.955701 C175.328898,105.88642 178.895997,105.422288 182.000204,106.740187 L199.172652,113.817031 C203.319396,115.523205 205.687442,119.950503 204.822967,124.380861 C203.958492,128.811219 200.103499,132.004396 195.624695,131.999995 L195.616227,131.999995 Z"/>
        <path fill="url(#button-puffy-example-e)" fill-rule="nonzero" d="M231.78351,130.983098 C228.612712,130.981806 225.666365,129.320975 223.987707,126.58867 L213.296558,109.129269 C210.732223,104.754537 212.086864,99.0998418 216.34337,96.4109194 C220.599876,93.7219969 226.192204,94.9881497 228.921443,99.2587072 L239.612593,116.718108 C241.375915,119.598652 241.464404,123.223454 239.843803,126.189226 C238.223202,129.154997 235.147905,130.996185 231.80847,131 L231.78351,130.983098 Z"/>
        <path fill="url(#button-puffy-example-f)" fill-rule="nonzero" d="M186.703092,110.130439 C184.366784,111.136362 173.229541,121.229404 175.071792,149.496683 C176.880547,177.282134 152.395361,172.649817 171.043962,206.174946 C175.105287,213.478453 223.799322,224.991622 232.658873,219.615428 C235.271519,218.034692 265.844506,161.736821 252.756153,124.340157 C248.426864,112.083113 222.811205,94.5766729 186.703092,110.130439 Z"/>
        <path fill="url(#button-puffy-example-g)" fill-rule="nonzero" d="M171.973272,182 C171.973272,182 169.215298,200.903798 170.220463,210.262617 C171.225628,219.621435 173.709466,224.783171 175.487196,223.903137 C177.264925,223.023104 182,195.462821 182,195.462821 L171.973272,182 Z"/>
        <path fill="url(#button-puffy-example-h)" fill-rule="nonzero" d="M243,198 C243,198 237.117738,216.00699 232.035669,223.871438 C226.953599,231.735886 222.365265,235.203279 221.130926,233.628714 C219.896588,232.054149 227.796354,205.495933 227.796354,205.495933 L243,198 Z"/>
        <path fill="url(#button-puffy-example-i)" fill-rule="nonzero" d="M192,109.478241 C200.248098,105.254253 222.444815,106.695574 232.54264,105.179271 C237.957293,104.346137 252.671026,106.687243 252.671026,106.687243 L246.306286,110.019778 L255,111.327798 L250.232751,115.318508 L252.166555,123 L250.812892,122.233517 L202.047378,108.861722 L192,109.478241 Z"/>
        <path fill="url(#button-puffy-example-j)" fill-rule="nonzero" d="M274.638227,199.993554 C272.175868,199.993554 268.276432,199.399737 262.502914,197.074651 C252.006373,192.834296 244.938645,175.086697 244.165481,173.079428 C243.629114,171.507842 244.437789,169.795526 245.995905,169.203628 C247.554021,168.61173 249.303493,169.352256 249.955807,170.879797 C251.78787,175.647059 258.040413,188.619032 264.83081,191.362299 C272.327139,194.381566 275.562663,193.804476 275.587875,193.787749 C276.626248,193.30568 277.847106,193.432716 278.762824,194.118117 C279.678541,194.803518 280.139879,195.93558 279.962573,197.062144 C279.785266,198.188709 278.998213,199.126172 277.915771,199.500101 C276.86424,199.868572 275.752221,200.035993 274.638227,199.993554 L274.638227,199.993554 Z"/>
        <path fill="#F9F9FA" fill-rule="nonzero" d="M194.575531,121.149712 C185.835761,126.969219 191.230165,197.651447 197.368912,205.284825 C207.405011,217.67122 230.63858,215.076375 233.724681,208.459101 C234.862105,206.02381 261.039597,157.637093 248.703559,124.357579 C245.533824,115.884445 225.085272,100.836025 194.575531,121.149712 Z"/>
        <path fill="url(#button-puffy-example-k)" fill-rule="nonzero" d="M209.762974,136.042228 C210.621118,136.254504 211.155248,137.150899 210.959639,138.050509 L210.156508,141.705747 C209.953618,142.60359 209.096858,143.16243 208.237026,142.957772 L208.237026,142.957772 C207.378882,142.745496 206.844752,141.849101 207.040361,140.949491 L207.843492,137.294253 C208.046382,136.39641 208.903142,135.83757 209.762974,136.042228 Z"/>
        <path fill="url(#button-puffy-example-l)" fill-rule="nonzero" d="M242.762974,137.042228 C243.621118,137.254504 244.155248,138.150899 243.959639,139.050509 L243.156508,142.705747 C242.953618,143.60359 242.096858,144.16243 241.237026,143.957772 L241.237026,143.957772 C240.378882,143.745496 239.844752,142.849101 240.040361,141.949491 L240.843492,138.294253 C241.046382,137.39641 241.903142,136.83757 242.762974,137.042228 Z"/>
        <path fill="url(#button-puffy-example-m)" fill-rule="nonzero" d="M208.735735,151 C208.188035,150.997593 207.642418,150.92823 207.109679,150.793281 C204.844149,150.214905 202.978682,148.516086 202.096004,146.227493 C201.798994,145.368753 202.214188,144.417086 203.023365,144.101884 C203.832542,143.786683 204.729284,144.227306 205.026294,145.086045 C205.531068,146.33685 206.565372,147.259088 207.813359,147.571135 C209.061345,147.883181 210.374815,147.547981 211.35267,146.667893 C211.974754,146.032526 212.964393,146.052646 213.563091,146.712832 C214.161788,147.373019 214.14283,148.423273 213.520746,149.058641 C212.197867,150.295798 210.498912,150.985092 208.735735,151 L208.735735,151 Z"/>
        <path fill="url(#button-puffy-example-n)" fill-rule="nonzero" d="M241.737128,145.999999 C241.189621,146.0003 240.64389,145.933867 240.110638,145.802002 C237.844504,145.222848 235.97854,143.521745 235.095627,141.230073 C234.903444,140.673819 235.005189,140.050894 235.362536,139.595947 C235.719882,139.141 236.278541,138.923149 236.828071,139.024456 C237.377601,139.125763 237.834514,139.530837 238.026698,140.087091 C238.534383,141.339815 239.572178,142.261704 240.822593,142.570725 C242.073008,142.879745 243.387241,142.539124 244.363231,141.653067 C244.98782,141.021815 245.975827,141.048006 246.570005,141.711566 C247.164184,142.375126 247.139531,143.424778 246.514942,144.056029 C245.193909,145.292829 243.497851,145.982912 241.737128,145.999999 Z"/>
        <path fill="url(#button-puffy-example-o)" fill-rule="nonzero" d="M216.598173,162.998674 C215.750784,163.033948 215.035839,162.361009 215.001298,161.495624 C214.966758,160.630238 215.625702,159.900109 216.473092,159.864835 C225.754148,159.064343 234.393119,157.2164 235.327062,155.836829 C236.038127,154.497431 236.467027,153.020964 236.586217,151.502252 C236.619511,150.679211 237.271139,150.023028 238.077452,150.000591 C238.883765,149.978154 239.569415,150.597126 239.646547,151.417093 C239.796645,152.771116 240.288633,155.027822 240.905702,155.777218 C241.491647,156.563735 242.383189,157.0516 243.348963,157.114209 C243.897128,157.073136 244.42511,157.333837 244.734022,157.798107 C245.042935,158.262377 245.085848,158.859684 244.846596,159.365027 C244.607344,159.87037 244.122275,160.206976 243.57411,160.248049 C241.626133,160.249722 239.78388,159.343525 238.570845,157.786963 C238.413428,157.591386 238.271235,157.383533 238.145568,157.165304 L237.962114,157.480392 C235.844066,160.988929 222.426977,162.496238 216.75661,162.990158 L216.598173,162.998674 Z"/>
        <path fill="url(#button-puffy-example-p)" fill-rule="nonzero" d="M233.141061,149.060484 C231.934443,149.810108 238.838022,152.984051 239.811935,153 C241.268495,153 248.284117,150.184921 247.991082,148.023769 C247.835945,146.859458 237.898584,146.117809 233.141061,149.060484 Z"/>
        <path fill="url(#button-puffy-example-q)" fill-rule="nonzero" d="M240.292866,154 L240.292866,154 C239.123346,154 232.703791,151.302101 232.080616,149.294735 C231.840296,148.553034 232.149972,147.751204 232.840378,147.327517 L232.840378,147.327517 C237.313578,144.509175 245.969732,144.621588 248.599018,145.721624 C249.343369,145.973056 249.878855,146.591058 249.99049,147.327517 C250.067283,148.306024 249.676045,149.265752 248.92341,149.945121 C246.934373,151.976575 242.000194,154 240.292866,154 Z M236.024545,149.037792 C237.40062,149.859784 238.869361,150.535713 240.403842,151.053187 C242.555351,150.485257 244.562065,149.51283 246.302661,148.194699 C244.236794,147.817314 239.447738,147.737019 236.067228,149.005674 L236.024545,149.037792 Z"/>
        <path fill="#C8C8CC" fill-rule="nonzero" d="M7.79497175,50.1039462 L0.650903955,50.1968878 L0.150819209,7.04665956 C0.0923950706,3.54547289 2.58883153,0.592957366 5.86607345,0.287273891 C5.98796429,0.275577313 6.10899329,0.317889991 6.20063067,0.404237695 C6.29226806,0.490585399 6.34640591,0.613328231 6.35028249,0.743532423 L7.79497175,50.1039462 Z" transform="translate(270 137)"/>
        <path fill="#E1E1E6" fill-rule="nonzero" d="M38.1446407,0.654732651 C38.2491587,0.569957729 38.3839891,0.532662913 38.5169043,0.55176249 C38.6498195,0.570862066 38.7688751,0.644639645 38.8456142,0.755460751 C40.8336401,3.57995231 40.324585,7.46787076 37.6773251,9.67829162 L4.90681443,37.0847289 L0.108483992,31.2844691 L38.1446407,0.654732651 Z" transform="translate(256 145)"/>
        <path fill="url(#button-puffy-example-r)" fill-rule="nonzero" d="M0.916411455,9.60230375 C0.427476709,12.2738567 1.15664976,15.0218527 2.9104549,17.1171502 C3.75513351,18.1178771 4.81227307,18.9244372 6.00758621,19.4801519 C9.92432066,21.1705524 14.481044,20.4807095 17.7003176,17.7099881 C17.946391,17.5095922 18.1839792,17.2924966 18.413082,17.075401 L29.1978872,8.25798123 C29.6550026,7.88390644 29.9422534,7.34636197 29.9963664,6.76375353 C30.0504795,6.18114509 29.8670158,5.60126515 29.4863871,5.15184471 L26.4486528,1.56141809 C26.0685093,1.11160022 25.5222441,0.828935185 24.9301838,0.775686026 C24.3381235,0.722436868 23.748836,0.902971714 23.2921245,1.27752389 L20.2034785,3.7824727 C20.0761991,3.61547611 19.9489197,3.44012969 19.8131551,3.28148294 C18.9684765,2.28075602 17.9113369,1.4741959 16.7160238,0.918481229 C12.7992893,-0.771919247 8.24256593,-0.0820764176 5.02329242,2.68864505 C2.84956054,4.4284974 1.39046775,6.88478227 0.916411455,9.60230375 L0.916411455,9.60230375 Z M7.88283557,6.05362628 C9.77037065,4.40069904 12.4473239,3.94440338 14.7898627,4.87630034 C15.3990556,5.15856653 15.9378306,5.56902369 16.3681268,6.07867577 C17.8275969,7.79874061 17.7766852,10.3370887 16.461465,12.4495956 C15.8347756,13.2790267 15.1050223,14.027986 14.2892305,14.679 L14.2892305,14.679 L14.2383187,14.7207491 C12.4104836,16.0288832 10.0238396,16.3102026 7.93374732,15.463884 C7.32455441,15.1816178 6.78577941,14.7711606 6.35548315,14.2615085 C5.44783405,13.1473204 5.07910961,11.6990175 5.34573349,10.2953396 C5.64076486,8.62547674 6.54242298,7.11801859 7.88283557,6.05362628 L7.88283557,6.05362628 Z" transform="translate(238 169)"/>
        <path fill="url(#button-puffy-example-s)" fill-rule="nonzero" d="M0.625105932,2.69904184 L0.791800847,16.8092226 C0.791800847,17.1252497 0.791800847,17.449818 0.791800847,17.765845 C0.745798377,21.9815445 3.0177792,25.8653104 6.66779661,27.8103805 C7.9084391,28.4042986 9.26615798,28.6966015 10.6351356,28.6645076 C16.0027119,28.5961775 20.3117754,23.5397447 20.2450975,17.4839831 C20.2846946,13.2607729 17.9987097,9.37511445 14.3357627,7.4394476 L14.3357627,7.4394476 C13.0976562,6.84681672 11.742935,6.55454519 10.3767585,6.58532044 C10.1600551,6.58532044 9.95168644,6.58532044 9.7433178,6.58532044 L9.69330932,2.54529895 C9.68671533,1.94725115 9.44854293,1.37638667 9.0311955,0.958308814 C8.61384807,0.54023096 8.0515185,0.309192445 7.4679322,0.316027051 L2.80047458,0.375815952 C2.21688743,0.382573332 1.65982631,0.626647392 1.25185748,1.05433623 C0.843888645,1.48202507 0.618436585,2.05828856 0.625105932,2.65633548 L0.625105932,2.69904184 Z M12.4437754,11.5563405 C14.5926013,12.7479724 15.9067066,15.0749345 15.8443517,17.577937 C15.8860254,21.190895 13.5272924,24.1547162 10.5851271,24.1974226 C9.88707732,24.2051516 9.19674507,24.0472936 8.56811864,23.7361939 C6.64854651,22.6815772 5.39021274,20.692502 5.23422034,18.4662293 C5.23422034,18.4662293 5.23422034,18.4235229 5.23422034,18.3978991 C5.21135401,17.3407294 5.31775518,16.2847856 5.55094068,15.2547112 C6.31773729,12.8460726 8.20972458,11.1207357 10.4517712,11.0951119 C11.144202,11.0900111 11.8285417,11.2478029 12.4521102,11.5563405 L12.4437754,11.5563405 Z" transform="translate(269 177)"/>
        <path fill="#C8C8CC" fill-rule="nonzero" d="M3.3180226,0.389658703 C4.25536856,0.474064019 5.04955364,1.11606763 5.32996445,2.01607298 C5.61037526,2.91607833 5.32173676,3.89667485 4.59874462,4.50025865 C3.87575247,5.10384245 2.86092411,5.21143408 2.027838,4.77282497 C1.19475188,4.33421587 0.707627358,3.43586538 0.793785311,2.49699659 C0.911209435,1.21741829 2.04051976,0.274623237 3.3180226,0.389658703 L3.3180226,0.389658703 Z" transform="translate(271 164)"/>
        <path fill="url(#button-puffy-example-t)" fill-rule="nonzero" d="M218.482081,162.216627 L217.28786,165.963982 C216.625658,168.06333 217.124182,170.35953 218.595643,171.987628 C220.067104,173.615725 222.287953,174.328373 224.421617,173.857123 C226.555281,173.385873 228.277606,171.80232 228.939809,169.702972 L232,160 L218.482081,162.216627 Z"/>
        <path fill="url(#button-puffy-example-u)" fill-rule="nonzero" d="M223.807147,167.999994 C223.549932,168.001003 223.307757,167.880114 223.155648,167.674779 C223.003539,167.469444 222.959862,167.204455 223.038147,166.961904 L225.423795,159.556866 C225.558929,159.13643 226.01277,158.904046 226.437477,159.037821 C226.862184,159.171596 227.096929,159.620872 226.961795,160.041307 L224.576147,167.446346 C224.469347,167.777262 224.158069,168.001369 223.807147,167.999994 Z"/>
        <path fill="url(#button-puffy-example-v)" fill-rule="nonzero" d="M218.598564,193 C200.198665,193 184.006754,163.732127 183.312576,162.45596 C182.591462,160.970889 183.158071,159.179062 184.600398,158.383397 C186.042724,157.587732 187.853247,158.068203 188.715455,159.475439 C193.081249,167.443085 207.115354,187.886938 219.577104,186.761896 C235.467927,185.334605 242.995158,179.491105 243.112249,179.432334 C244.44508,178.470399 246.294802,178.724182 247.321624,180.009862 C248.348446,181.295543 248.192993,183.163149 246.967864,184.259938 C246.616593,184.545396 238.069003,191.320833 220.129101,192.932833 C219.618922,192.958021 219.108743,193 218.598564,193 Z"/>
        <path fill="url(#button-puffy-example-w)" fill-rule="nonzero" d="M275.769537,193.111803 C275.769537,193.111803 267.148319,196.434372 267.001759,199.29178 C266.855198,202.149189 275.907477,205.579741 279.769782,200.064277 C283.632088,194.548814 277.304114,192.472209 275.769537,193.111803 Z"/>
        <path fill="url(#button-puffy-example-x)" fill-rule="nonzero" d="M189.013607,158 C189.013607,158 189.836427,164.171229 193.959473,167.646208 C198.08252,171.121188 188.593253,176.136881 189.013607,183.848823 C189.43396,191.560766 189.013607,158 189.013607,158 Z"/>
        <path fill="url(#button-puffy-example-y)" fill-rule="nonzero" d="M219.122299,194 L217.987648,194 C203.448873,193.604543 190.713684,175.060151 190.180229,174.269238 C189.988462,174.040256 189.945946,173.722243 190.070898,173.451453 C190.195851,173.180663 190.466097,173.005149 190.765849,173.000111 C191.065601,172.995073 191.341666,173.161405 191.475763,173.427841 C191.602776,173.612948 204.295627,192.098443 218.038453,192.468657 C231.586526,192.805216 244.95678,185.888932 246.78577,184.374417 C247.344628,183.911649 247.768005,181.606221 246.955121,180.495576 C246.142237,179.384932 244.414857,180.167432 243.153193,180.975173 C242.788426,181.207518 242.303172,181.10204 242.069347,180.739582 C241.835522,180.377123 241.941672,179.894939 242.306439,179.662593 C245.871275,177.449719 247.530914,178.669745 248.23372,179.586868 C249.503852,181.32856 249.080475,184.534283 247.801876,185.569201 C246.523276,186.604119 233.627204,194 219.122299,194 Z"/>
        <path fill="url(#button-puffy-example-z)" fill-rule="nonzero" d="M274.456903,204 C272.818578,203.966268 271.216665,203.497588 269.80709,202.639581 C267.848835,201.518733 266.907206,200.235319 267.007202,198.823564 C267.198861,195.905936 271.923672,193.938035 272.465316,193.689908 C272.861105,193.531607 273.306936,193.732718 273.46111,194.139103 C273.615283,194.545487 273.419415,195.003255 273.023627,195.161556 C271.357028,195.837487 268.64047,197.446033 268.540474,198.900569 C268.482143,199.833183 269.607098,200.680236 270.55706,201.227826 C272.856967,202.545464 275.006881,202.742254 276.956803,201.826752 C278.447009,201.12616 279.633631,199.886449 280.290002,198.344422 C280.414997,197.711272 280.789982,195.777595 279.773356,194.639634 C279.00672,193.784025 277.565111,193.424669 275.481862,193.630015 C275.063793,193.660315 274.696566,193.347357 274.648562,192.919859 C274.609947,192.487646 274.919347,192.104895 275.340201,192.06425 C277.931763,191.807567 279.806688,192.320933 280.914977,193.587235 C282.448249,195.298453 281.956602,197.865281 281.798275,198.660998 C281.045259,200.710312 279.527792,202.366941 277.581777,203.264176 C276.604507,203.739405 275.538194,203.990493 274.456903,204 L274.456903,204 Z"/>
        <path fill="url(#button-puffy-example-A)" fill-rule="nonzero" d="M221.748763,222 C221.335233,222 221,221.597092 221,221.100079 C221,220.603066 221.335233,220.200158 221.748763,220.200158 C224.555648,220.057722 227.349665,219.662078 230.107234,219.016566 C230.514022,218.922026 230.907556,219.241725 230.986216,219.730634 C231.064877,220.219543 230.798877,220.692523 230.392089,220.787063 C227.54112,221.457149 224.651487,221.862657 221.748763,222 L221.748763,222 Z"/>
        <path fill="url(#button-puffy-example-B)" fill-rule="nonzero" d="M180.744522,115.992882 C180.67973,116.002373 180.614023,116.002373 180.549231,115.992882 C180.161846,115.882578 179.92737,115.464157 180.02032,115.04904 C180.199336,114.287039 182.461451,109.585147 187.953995,107.065349 C188.199646,106.952433 188.483245,106.987554 188.697964,107.157482 C188.912682,107.327411 189.0259,107.606331 188.994968,107.889176 C188.964036,108.172022 188.793654,108.415821 188.548004,108.528737 C185.486295,109.860267 182.976575,112.318926 181.476861,115.456018 C181.354357,115.773651 181.067066,115.984259 180.744522,115.992882 Z"/>
        <path fill="url(#button-puffy-example-C)" fill-rule="nonzero" d="M228.93788,105 C222.495085,104.929298 216.060973,104.470101 209.665596,103.624553 C209.255894,103.563518 208.963791,103.164214 209.003635,102.719653 C209.056028,102.274674 209.428576,101.956837 209.84156,102.004783 C209.992386,102.004783 224.681219,104.067954 235.163665,103.10876 C235.589417,103.071278 235.962693,103.413619 235.997401,103.8734 C236.032109,104.333181 235.715106,104.736293 235.289354,104.773775 C233.303471,104.918559 231.133244,105 228.93788,105 Z"/>
        <path fill="url(#button-puffy-example-D)" fill-rule="nonzero" d="M250.860592,183.99036 C250.771228,184.003213 250.68024,184.003213 250.590875,183.99036 C250.375005,183.925643 250.195899,183.784548 250.092983,183.598137 C249.990067,183.411725 249.971777,183.195276 250.04214,182.996437 L252.330085,176.544509 C252.476478,176.130447 252.959504,175.904114 253.408954,176.03898 C253.858404,176.173846 254.104081,176.61884 253.957689,177.032902 L251.669744,183.48483 C251.541366,183.792683 251.21854,183.994373 250.860592,183.99036 Z"/>
        <path fill="url(#button-puffy-example-E)" fill-rule="nonzero" d="M178.68901,215.999931 L178.553853,215.999931 C178.18117,215.912014 177.939535,215.489691 178.013226,215.055036 L179.627598,205.649828 C179.675885,205.366949 179.850023,205.135575 180.084416,205.042861 C180.318809,204.950147 180.577847,205.010179 180.763953,205.200344 C180.95006,205.390508 181.03496,205.681915 180.986673,205.964793 L179.372302,215.370001 C179.301231,215.74197 179.016034,216.004895 178.68901,215.999931 Z"/>
        <path fill="#EAEAEE" fill-rule="nonzero" d="M74.0317414 88C70.1671252 88 67.0342348 91.1654141 67.0342348 95.0701502L74.0317414 95.0701502 74.0317414 88zM95.0074804 88L88.0099739 88 88.0099739 95.0701502 95.0074804 95.0701502 95.0074804 88zM109.002493 88L109.002493 95.0701502 116 95.0701502C116.000025 91.1753244 112.882447 88.0140102 109.027664 88L109.002493 88zM84.5112206 88L77.5304946 88 77.5304946 95.0701502 84.5699527 95.0701502 84.5112206 88zM105.48696 88L98.4894531 88 98.4894531 95.0701502 105.545692 95.0701502 105.48696 88zM108.985713 105.675376L115.983219 105.675376 115.983219 98.6052253 108.985713 98.6052253 108.985713 105.675376zM108.985713 126.868871C110.841567 126.868871 112.62141 126.123983 113.933697 124.798072 115.245984 123.472162 115.983219 121.673842 115.983219 119.798721L108.985713 119.798721 108.985713 126.868871zM108.985713 116.263646L115.983219 116.263646 115.983219 109.193496 108.985713 109.193496 108.985713 116.263646zM107.441898 108.633988C105.225985 105.437717 100.866051 104.659883 97.7007653 106.896121L84.2762923 116.899451 77.3878596 112.016469C77.4418328 111.674063 77.4754542 111.328697 77.4885432 110.982227 77.4812854 108.214 76.1851875 105.610596 73.9897899 103.954464L73.9897899 98.6137027 67.0342348 98.6137027 67.0342348 102.326803C63.5260255 103.033262 60.7976847 105.827848 60.1464772 109.381798 59.4952698 112.935748 61.0525856 116.532005 64.0779558 118.460629 67.1033261 120.389253 70.9863418 120.261119 73.880716 118.137151L78.2184989 121.17206 73.3437371 124.647793C69.9510625 122.565204 65.5946864 123.05885 62.7428854 125.849036 59.8910845 128.639222 59.262666 133.022672 61.2136852 136.515768 63.1647043 140.008865 67.2033994 141.73116 71.0414885 140.70682 74.8795776 139.68248 77.5496558 136.169693 77.5388849 132.158768 77.5341834 131.589202 77.4751787 131.021419 77.3626887 130.463288L107.441898 108.633988zM68.7458551 115.415906C66.3372249 115.39255 64.4011775 113.404892 64.4165516 110.971195 64.4319258 108.537497 66.3929274 106.574972 68.8016564 106.582683 71.2103855 106.590394 73.1590397 108.565434 73.1591506 110.999182 73.1499081 113.431847 71.1954952 115.398969 68.7878066 115.398951L68.7458551 115.415906zM68.7458551 136.609402C66.3372249 136.586046 64.4011775 134.598388 64.4165516 132.16469 64.4319258 129.730993 66.3929274 127.768468 68.8016564 127.776179 71.2103855 127.783889 73.1590397 129.75893 73.1591506 132.192677 73.1591506 134.631967 71.2020332 136.609402 68.7878066 136.609402L68.7458551 136.609402zM87.6240203 128.021798L98.1790121 136.134668C101.344298 138.370906 105.704232 137.593072 107.920145 134.396801L93.7992778 123.715279 87.6240203 128.021798zM18.1111299 29L18 29C18.0238136 29 18.0635028 29 18.1111299 29zM280.999976 1.60435501L280.999976 6.40000475C280.999976 7.28365772 280.283634 8 279.399981 8 278.516328 8 277.799986 7.28365772 277.799986 6.40000475L277.799986 3.20001424 274.599995 3.20001424C273.716342 3.20001424 273 2.48367196 273 1.60001898 273 .716366004 273.716342.0000237284299 274.599995.0000237284299L279.395645.0000237284299C279.821848-.00229895508 280.231267.165982354 280.532642.4673578 280.834018.768733246 281.002299 1.1781521 280.999976 1.60435501zM281 15.5523694L281 24.5468569C281 25.4042068 280.328427 26.0992263 279.5 26.0992263 278.671573 26.0992263 278 25.4042068 278 24.5468569L278 15.5523694C278 14.6950195 278.671573 14 279.5 14 280.328427 14 281 14.6950195 281 15.5523694L281 15.5523694zM281 33.5413443L281 42.5274178C281 43.3847678 280.328427 44.0797872 279.5 44.0797872 278.671573 44.0797872 278 43.3847678 278 42.5274178L278 33.5413443C278 32.6839943 278.671573 31.9889749 279.5 31.9889749 280.328427 31.9889749 281 32.6839943 281 33.5413443L281 33.5413443zM281 51.5303191L281 60.5163926C281 61.3737426 280.328427 62.0687621 279.5 62.0687621 278.671573 62.0687621 278 61.3737426 278 60.5163926L278 51.5219052C278 50.6645553 278.671573 49.9695358 279.5 49.9695358 280.328427 49.9695358 281 50.6645553 281 51.5219052L281 51.5303191zM281 69.519294L281 78.5053675C281 79.3627175 280.328427 80.0577369 279.5 80.0577369 278.671573 80.0577369 278 79.3627175 278 78.5053675L278 69.5108801C278 68.6535301 278.671573 67.9585106 279.5 67.9585106 280.328427 67.9585106 281 68.6535301 281 69.5108801L281 69.519294zM281 87.5082689L281 96.4943424C281 97.3516923 280.328427 98.0467118 279.5 98.0467118 278.671573 98.0467118 278 97.3516923 278 96.4943424L278 87.491441C278 86.634091 278.671573 85.9390716 279.5 85.9390716 280.328427 85.9390716 281 86.634091 281 87.491441L281 87.5082689zM281 105.497244L281 114.491731C281 115.349081 280.328427 116.044101 279.5 116.044101 278.671573 116.044101 278 115.349081 278 114.491731L278 105.48883C278 104.63148 278.671573 103.93646 279.5 103.93646 280.328427 103.93646 281 104.63148 281 105.48883L281 105.497244zM281 123.486219L281 132.480706C281 133.338056 280.328427 134.033075 279.5 134.033075 278.671573 134.033075 278 133.338056 278 132.480706L278 123.469391C278 122.612041 278.671573 121.917021 279.5 121.917021 280.328427 121.917021 281 122.612041 281 123.469391L281 123.486219zM281 141.475193L281 150.469681C281 151.327031 280.328427 152.02205 279.5 152.02205 278.671573 152.02205 278 151.327031 278 150.469681L278 141.458366C278 140.601016 278.671573 139.905996 279.5 139.905996 280.328427 139.905996 281 140.601016 281 141.458366L281 141.475193zM281 159.464168L281 168.458656C281 169.316006 280.328427 170.011025 279.5 170.011025 278.671573 170.011025 278 169.316006 278 168.458656L278 159.44734C278 158.58999 278.671573 157.894971 279.5 157.894971 280.328427 157.894971 281 158.58999 281 159.44734L281 159.464168zM281 177.453143L281 186.447631C281 187.304981 280.328427 188 279.5 188 278.671573 188 278 187.304981 278 186.447631L278 177.436315C278 176.578965 278.671573 175.883946 279.5 175.883946 280.328427 175.883946 281 176.578965 281 177.436315L281 177.453143zM280.991328 195.608672L280.991328 200.404336C280.991328 201.285597 280.276925 202 279.395664 202L274.6 202C273.716344 202 273 201.283656 273 200.4 273 199.516344 273.716344 198.8 274.6 198.8L277.8 198.8 277.8 195.6C277.8 194.716344 278.516344 194 279.4 194 280.283656 194 281 194.716344 281 195.6L280.991328 195.608672zM266.999977 200.504065C266.999977 201.330247 266.306825 202 265.451779 202L256.196247 202C255.338877 202 254.643841 201.328427 254.643841 200.5 254.643841 199.671573 255.338877 199 256.196247 199L265.451779 199C265.863849 198.999994 266.258919 199.158717 266.549506 199.44102 266.840093 199.723323 267.002217 200.105912 266.999977 200.504065zM248.488912 200.504065C248.488912 201.330247 247.79576 202 246.940714 202L237.685182 202C236.827812 202 236.132777 201.328427 236.132777 200.5 236.132777 199.671573 236.827812 199 237.685182 199L246.940714 199C247.352784 198.999994 247.747855 199.158717 248.038441 199.44102 248.329028 199.723323 248.491152 200.105912 248.488912 200.504065zM229.977848 200.504065C229.977848 201.330247 229.284696 202 228.42965 202L219.174117 202C218.316747 202 217.621712 201.328427 217.621712 200.5 217.621712 199.671573 218.316747 199 219.174117 199L228.42965 199C228.841719 198.999994 229.23679 199.158717 229.527377 199.44102 229.817963 199.723323 229.980087 200.105912 229.977848 200.504065L229.977848 200.504065zM211.466783 200.504065C211.466783 201.330247 210.773631 202 209.918585 202L200.663052 202C199.805683 202 199.110647 201.328427 199.110647 200.5 199.110647 199.671573 199.805683 199 200.663052 199L209.918585 199C210.330654 198.999994 210.725725 199.158717 211.016312 199.44102 211.306898 199.723323 211.469022 200.105912 211.466783 200.504065L211.466783 200.504065zM192.955718 200.504065C192.955718 201.330247 192.262566 202 191.40752 202L182.151988 202C181.294618 202 180.599583 201.328427 180.599583 200.5 180.599583 199.671573 181.294618 199 182.151988 199L191.40752 199C191.81959 198.999994 192.214661 199.158717 192.505247 199.44102 192.795834 199.723323 192.957958 200.105912 192.955718 200.504065L192.955718 200.504065zM174.444653 200.504065C174.444653 201.330247 173.751502 202 172.896455 202L163.640923 202C162.783553 202 162.088518 201.328427 162.088518 200.5 162.088518 199.671573 162.783553 199 163.640923 199L172.896455 199C173.308525 198.999994 173.703596 199.158717 173.994182 199.44102 174.284769 199.723323 174.446893 200.105912 174.444653 200.504065L174.444653 200.504065zM155.933589 200.504065C155.933589 201.330247 155.240437 202 154.385391 202L145.129858 202C144.272489 202 143.577453 201.328427 143.577453 200.5 143.577453 199.671573 144.272489 199 145.129858 199L154.385391 199C154.796 199.00215 155.188907 199.161823 155.477674 199.443892 155.766441 199.72596 155.927412 200.107317 155.925175 200.504065L155.933589 200.504065zM137.422524 200.504065C137.422524 201.330247 136.729372 202 135.874326 202L126.618794 202C125.761424 202 125.066388 201.328427 125.066388 200.5 125.066388 199.671573 125.761424 199 126.618794 199L135.874326 199C136.284935 199.00215 136.677843 199.161823 136.96661 199.443892 137.255376 199.72596 137.416348 200.107317 137.41411 200.504065L137.422524 200.504065zM118.911459 200.504065C118.911459 201.330247 118.218307 202 117.363261 202L108.107729 202C107.250359 202 106.555324 201.328427 106.555324 200.5 106.555324 199.671573 107.250359 199 108.107729 199L117.363261 199C117.773871 199.00215 118.166778 199.161823 118.455545 199.443892 118.744312 199.72596 118.905283 200.107317 118.903045 200.504065L118.911459 200.504065zM100.400395 200.504065C100.400395 200.900812 100.237281 201.281309 99.9469379 201.561851 99.6565944 201.842393 99.2628041 202 98.8521965 202L89.5966641 202C88.7392944 202 88.0442589 201.328427 88.0442589 200.5 88.0442589 199.671573 88.7392944 199 89.5966641 199L98.8521965 199C99.262806 199.00215 99.6557133 199.161823 99.9444802 199.443892 100.233247 199.72596 100.394218 200.107317 100.39198 200.504065L100.400395 200.504065zM81.8893299 200.504065C81.8893299 201.330247 81.196178 202 80.3411317 202L71.0855994 202C70.2282297 202 69.5331942 201.328427 69.5331942 200.5 69.5331942 199.671573 70.2282297 199 71.0855994 199L80.3411317 199C80.7517413 199.00215 81.1446486 199.161823 81.4334154 199.443892 81.7221823 199.72596 81.8831534 200.107317 81.8809158 200.504065L81.8893299 200.504065zM63.3782651 200.504065C63.3782651 201.330247 62.6851132 202 61.830067 202L52.5745346 202C51.7171649 202 51.0221294 201.328427 51.0221294 200.5 51.0221294 199.671573 51.7171649 199 52.5745346 199L61.830067 199C62.2406766 199.00215 62.6335839 199.161823 62.9223507 199.443892 63.2111175 199.72596 63.3720887 200.107317 63.369851 200.504065L63.3782651 200.504065zM44.8672004 200.504065C44.8672004 200.900812 44.7040872 201.281309 44.4137437 201.561851 44.1234002 201.842393 43.72961 202 43.3190023 202L34.0634699 202C33.2061002 202 32.5110647 201.328427 32.5110647 200.5 32.5110647 199.671573 33.2061002 199 34.0634699 199L43.3190023 199C43.7296119 199.00215 44.1225192 199.161823 44.411286 199.443892 44.7000528 199.72596 44.8610239 200.107317 44.8587863 200.504065L44.8672004 200.504065zM26.3561357 200.504065C26.3561357 201.330247 25.6629838 202 24.8079376 202L15.5524052 202C14.6950355 202 14 201.328427 14 200.5 14 199.671573 14.6950355 199 15.5524052 199L24.8079376 199C25.2185471 199.00215 25.6114544 199.161823 25.9002213 199.443892 26.1889881 199.72596 26.3499592 200.107317 26.3477216 200.504065L26.3561357 200.504065zM8 200.402604C8 201.284822 7.28675666 202 6.40692641 202L1.59307359 202C.713243342 202 1.20154007e-16 201.284822 0 200.402604L0 195.601736C0 194.717122.715181504 194 1.5974026 194 2.47962369 194 3.19480519 194.717122 3.19480519 195.601736L3.19480519 198.831253 6.3982684 198.831253C7.27142192 198.826379 7.98577711 199.527185 8 200.402604L8 200.402604zM3 15.5523694L3 24.5468569C3 25.4042068 2.32842712 26.0992263 1.5 26.0992263.671572875 26.0992263 1.12827543e-16 25.4042068 0 24.5468569L0 15.5523694C-9.02620345e-17 14.6950195.671572875 14 1.5 14 2.32842712 14 3 14.6950195 3 15.5523694zM3 33.5413443L3 42.5358317C3 43.3931817 2.32842712 44.0882012 1.5 44.0882012.671572875 44.0882012 1.12827543e-16 43.3931817 0 42.5358317L0 33.5413443C-9.02620345e-17 32.6839943.671572875 31.9889749 1.5 31.9889749 2.32842712 31.9889749 3 32.6839943 3 33.5413443zM3 51.5303191L3 60.5163926C3 61.3737426 2.32842712 62.0687621 1.5 62.0687621.671572875 62.0687621 1.12827543e-16 61.3737426 0 60.5163926L0 51.5219052C-9.02620345e-17 50.6645553.671572875 49.9695358 1.5 49.9695358 2.32842712 49.9695358 3 50.6645553 3 51.5219052L3 51.5303191zM3 69.519294L3 78.5053675C3 79.3627175 2.32842712 80.0577369 1.5 80.0577369.671572875 80.0577369 1.12827543e-16 79.3627175 0 78.5053675L0 69.5108801C-9.02620345e-17 68.6535301.671572875 67.9585106 1.5 67.9585106 2.32842712 67.9585106 3 68.6535301 3 69.5108801L3 69.519294zM3 87.5082689L3 96.4943424C3 97.3516923 2.32842712 98.0467118 1.5 98.0467118.671572875 98.0467118 1.12827543e-16 97.3516923 0 96.4943424L0 87.491441C-9.02620345e-17 86.634091.671572875 85.9390716 1.5 85.9390716 2.32842712 85.9390716 3 86.634091 3 87.491441L3 87.5082689zM3 105.497244L3 114.491731C3 115.349081 2.32842712 116.044101 1.5 116.044101.671572875 116.044101 1.12827543e-16 115.349081 0 114.491731L0 105.48883C-9.02620345e-17 104.63148.671572875 103.93646 1.5 103.93646 2.32842712 103.93646 3 104.63148 3 105.48883L3 105.497244zM3 123.486219L3 132.480706C3 133.338056 2.32842712 134.033075 1.5 134.033075.671572875 134.033075 1.12827543e-16 133.338056 0 132.480706L0 123.477805C-9.02620345e-17 122.620455.671572875 121.925435 1.5 121.925435 2.32842712 121.925435 3 122.620455 3 123.477805L3 123.486219zM3 141.475193L3 150.469681C3 151.327031 2.32842712 152.02205 1.5 152.02205.671572875 152.02205 1.12827543e-16 151.327031 0 150.469681L0 141.458366C-9.02620345e-17 140.601016.671572875 139.905996 1.5 139.905996 2.32842712 139.905996 3 140.601016 3 141.458366L3 141.475193zM3 159.464168L3 168.458656C3 169.316006 2.32842712 170.011025 1.5 170.011025.671572875 170.011025 1.12827543e-16 169.316006 0 168.458656L0 159.44734C-9.02620345e-17 158.58999.671572875 157.894971 1.5 157.894971 2.32842712 157.894971 3 158.58999 3 159.44734L3 159.464168zM3 177.453143L3 186.447631C3 187.304981 2.32842712 188 1.5 188 .671572875 188 1.12827543e-16 187.304981 0 186.447631L0 177.436315C-9.02620345e-17 176.578965.671572875 175.883946 1.5 175.883946 2.32842712 175.883946 3 176.578965 3 177.436315L3 177.453143zM8 1.59741446C8.00000628 2.02257731 7.83061044 2.43020112 7.52932387 2.73002083 7.2280373 3.02984053 6.81972119 3.19711596 6.39479393 3.19480529L3.20173536 3.19480529 3.20173536 6.39826843C3.20173536 7.28288035 2.48500248 8 1.60086768 8 .716732873 8 1.20414645e-16 7.28288035 0 6.39826843L0 1.59741446C-.0000516913734.721936269.704221393.0095396902 1.5791757.0000236244449L6.39479393.0000236244449C6.81972119-.00228704326 7.2280373.164988387 7.52932387.464808089 7.83061044.764627792 8.00000628 1.17225161 8 1.59741446L8 1.59741446zM266.999977 1.50406504C266.999977 2.33024711 266.306825 3 265.451779 3L256.196247 3C255.338877 3 254.643841 2.32842712 254.643841 1.5 254.643841.671572875 255.338877 0 256.196247 0L265.451779 0C265.863849-.00000588023138 266.258919.158716639 266.549506.441019707 266.840093.723322775 267.002217 1.10591165 266.999977 1.50406504zM248.488912 1.50406504C248.488912 1.90081166 248.325799 2.28130857 248.035456 2.56185079 247.745112 2.84239302 247.351322 3 246.940714 3L237.685182 3C236.827812 3 236.132777 2.32842712 236.132777 1.5 236.132777.671572875 236.827812 0 237.685182 0L246.940714 0C247.352784-.00000588023138 247.747855.158716639 248.038441.441019707 248.329028.723322775 248.491152 1.10591165 248.488912 1.50406504zM229.977848 1.50406504C229.977848 1.90081166 229.814734 2.28130857 229.524391 2.56185079 229.234047 2.84239302 228.840257 3 228.42965 3L219.174117 3C218.316747 3 217.621712 2.32842712 217.621712 1.5 217.621712.671572875 218.316747 0 219.174117 0L228.42965 0C228.841719-.00000588023138 229.23679.158716639 229.527377.441019707 229.817963.723322775 229.980087 1.10591165 229.977848 1.50406504zM211.466783 1.50406504C211.466783 1.90081166 211.30367 2.28130857 211.013326 2.56185079 210.722983 2.84239302 210.329192 3 209.918585 3L200.663052 3C199.805683 3 199.110647 2.32842712 199.110647 1.5 199.110647.671572875 199.805683 0 200.663052 0L209.918585 0C210.330654-.00000588023136 210.725725.158716639 211.016312.441019707 211.306898.723322775 211.469022 1.10591165 211.466783 1.50406504L211.466783 1.50406504zM192.955718 1.50406504C192.955718 1.90081166 192.792605 2.28130857 192.502261 2.56185079 192.211918 2.84239302 191.818128 3 191.40752 3L182.151988 3C181.294618 3 180.599583 2.32842712 180.599583 1.5 180.599583.671572875 181.294618 0 182.151988 0L191.40752 0C191.81959-.00000588023138 192.214661.158716639 192.505247.441019707 192.795834.723322775 192.957958 1.10591165 192.955718 1.50406504L192.955718 1.50406504zM174.444653 1.50406504C174.444653 1.90081166 174.28154 2.28130857 173.991197 2.56185079 173.700853 2.84239302 173.307063 3 172.896455 3L163.640923 3C162.783553 3 162.088518 2.32842712 162.088518 1.5 162.088518.671572875 162.783553 0 163.640923 0L172.896455 0C173.308525-.00000588023138 173.703596.158716639 173.994182.441019707 174.284769.723322775 174.446893 1.10591165 174.444653 1.50406504L174.444653 1.50406504zM155.933589 1.50406504C155.933589 1.90081166 155.770476 2.28130857 155.480132 2.56185079 155.189789 2.84239302 154.795998 3 154.385391 3L145.129858 3C144.272489 3 143.577453 2.32842712 143.577453 1.5 143.577453.671572875 144.272489 0 145.129858 0L154.385391 0C154.796.00215038204 155.188907.161823418 155.477674.443891605 155.766441.725959793 155.927412 1.10731666 155.925175 1.50406504L155.933589 1.50406504zM137.422524 1.50406504C137.422524 1.90081166 137.259411 2.28130857 136.969067 2.56185079 136.678724 2.84239302 136.284934 3 135.874326 3L126.618794 3C125.761424 3 125.066388 2.32842712 125.066388 1.5 125.066388.671572875 125.761424 0 126.618794 0L135.874326 0C136.284935.00215038204 136.677843.161823418 136.96661.443891605 137.255376.725959793 137.416348 1.10731666 137.41411 1.50406504L137.422524 1.50406504zM118.911459 1.50406504C118.911459 1.90081166 118.748346 2.28130857 118.458003 2.56185079 118.167659 2.84239302 117.773869 3 117.363261 3L108.107729 3C107.250359 3 106.555324 2.32842712 106.555324 1.5 106.555324.671572875 107.250359 0 108.107729 0L117.363261 0C117.773871.00215038204 118.166778.161823418 118.455545.443891605 118.744312.725959793 118.905283 1.10731666 118.903045 1.50406504L118.911459 1.50406504zM100.400395 1.50406504C100.400395 1.90081166 100.237281 2.28130857 99.9469379 2.56185079 99.6565944 2.84239302 99.2628041 3 98.8521965 3L89.5966641 3C88.7392944 3 88.0442589 2.32842712 88.0442589 1.5 88.0442589.671572875 88.7392944 0 89.5966641 0L98.8521965 0C99.262806.00215038204 99.6557133.161823418 99.9444802.443891605 100.233247.725959793 100.394218 1.10731666 100.39198 1.50406504L100.400395 1.50406504zM81.8893299 1.50406504C81.8893299 1.90081166 81.7262166 2.28130857 81.4358731 2.56185079 81.1455297 2.84239302 80.7517394 3 80.3411317 3L71.0855994 3C70.2282297 3 69.5331942 2.32842712 69.5331942 1.5 69.5331942.671572875 70.2282297 0 71.0855994 0L80.3411317 0C80.7517413.00215038204 81.1446486.161823418 81.4334154.443891605 81.7221823.725959793 81.8831534 1.10731666 81.8809158 1.50406504L81.8893299 1.50406504zM63.3782651 1.50406504C63.3782651 1.90081166 63.2151519 2.28130857 62.9248084 2.56185079 62.6344649 2.84239302 62.2406747 3 61.830067 3L52.5745346 3C51.7171649 3 51.0221294 2.32842712 51.0221294 1.5 51.0221294.671572875 51.7171649 0 52.5745346 0L61.830067 0C62.2406766.00215038204 62.6335839.161823418 62.9223507.443891605 63.2111175.725959793 63.3720887 1.10731666 63.369851 1.50406504L63.3782651 1.50406504zM44.8672004 1.50406504C44.8672004 1.90081166 44.7040872 2.28130857 44.4137437 2.56185079 44.1234002 2.84239302 43.72961 3 43.3190023 3L34.0634699 3C33.2061002 3 32.5110647 2.32842712 32.5110647 1.5 32.5110647.671572875 33.2061002 0 34.0634699 0L43.3190023 0C43.7296119.00215038204 44.1225192.161823418 44.411286.443891605 44.7000528.725959793 44.8610239 1.10731666 44.8587863 1.50406504L44.8672004 1.50406504zM26.3561357 1.50406504C26.3561357 1.90081166 26.1930224 2.28130857 25.902679 2.56185079 25.6123355 2.84239302 25.2185452 3 24.8079376 3L15.5524052 3C14.6950355 3 14 2.32842712 14 1.5 14 .671572875 14.6950355 0 15.5524052 0L24.8079376 0C25.2185471.00215038204 25.6114544.161823418 25.9002213.443891605 26.1889881.725959793 26.3499592 1.10731666 26.3477216 1.50406504L26.3561357 1.50406504z"/>
      </g>
    </g>
    <rect width="196" height="48" x="118" y="384" fill="#0060DF" rx="4"/>
    <path fill="#FFF" d="M136.239258,401.255371 C139.234863,401.255371 141.109863,403.364746 141.109863,406.719238 C141.109863,410.07373 139.234863,412.175781 136.239258,412.175781 C133.243652,412.175781 131.368652,410.07373 131.368652,406.719238 C131.368652,403.364746 133.243652,401.255371 136.239258,401.255371 Z M136.239258,402.471191 C134.078613,402.471191 132.723633,404.111816 132.723633,406.719238 C132.723633,409.319336 134.078613,410.959961 136.239258,410.959961 C138.399902,410.959961 139.754883,409.319336 139.754883,406.719238 C139.754883,404.111816 138.399902,402.471191 136.239258,402.471191 Z M146.251465,404.250977 C148.192383,404.250977 149.510742,405.803711 149.510742,408.191406 C149.510742,410.579102 148.199707,412.131836 146.280762,412.131836 C145.189453,412.131836 144.310547,411.597168 143.856445,410.762207 L143.827148,410.762207 L143.827148,414.541504 L142.552734,414.541504 L142.552734,404.382812 L143.76123,404.382812 L143.76123,405.671875 L143.790527,405.671875 C144.259277,404.814941 145.145508,404.250977 146.251465,404.250977 Z M146.002441,411.01123 C147.357422,411.01123 148.207031,409.919922 148.207031,408.191406 C148.207031,406.470215 147.357422,405.371582 146.002441,405.371582 C144.69873,405.371582 143.819824,406.499512 143.819824,408.191406 C143.819824,409.890625 144.69873,411.01123 146.002441,411.01123 Z M153.84668,405.356934 C152.652832,405.356934 151.817871,406.272461 151.737305,407.539551 L155.875488,407.539551 C155.846191,406.265137 155.047852,405.356934 153.84668,405.356934 Z M155.846191,409.817383 L157.098633,409.817383 C156.878906,411.150391 155.589844,412.131836 153.927246,412.131836 C151.744629,412.131836 150.418945,410.615723 150.418945,408.220703 C150.418945,405.85498 151.766602,404.250977 153.868652,404.250977 C155.926758,404.250977 157.193848,405.745117 157.193848,408.052246 L157.193848,408.535645 L151.72998,408.535645 L151.72998,408.608887 C151.72998,410.066406 152.586914,411.025879 153.956543,411.025879 C154.92334,411.025879 155.633789,410.535156 155.846191,409.817383 Z M158.475586,412 L159.75,412 L159.75,407.517578 C159.75,406.228516 160.533691,405.378906 161.734863,405.378906 C162.906738,405.378906 163.485352,406.052734 163.485352,407.283203 L163.485352,412 L164.759766,412 L164.759766,407.056152 C164.759766,405.327637 163.792969,404.250977 162.123047,404.250977 C160.943848,404.250977 160.130859,404.77832 159.706055,405.598633 L159.676758,405.598633 L159.676758,404.382812 L158.475586,404.382812 L158.475586,412 Z M169.146973,409.092285 C169.271484,410.959961 170.824219,412.175781 173.06543,412.175781 C175.49707,412.175781 177.020508,410.967285 177.020508,409.033691 C177.020508,407.517578 176.134277,406.675293 173.944336,406.125977 L172.838379,405.833008 C171.402832,405.459473 170.816895,404.983398 170.816895,404.185059 C170.816895,403.152344 171.769043,402.441895 173.138672,402.441895 C174.515625,402.441895 175.431152,403.137695 175.54834,404.272949 L176.866699,404.272949 C176.808105,402.500488 175.284668,401.255371 173.182617,401.255371 C170.985352,401.255371 169.447266,402.48584 169.447266,404.243652 C169.447266,405.679199 170.311523,406.536133 172.259766,407.03418 L173.614746,407.385742 C175.035645,407.751953 175.658203,408.30127 175.658203,409.194824 C175.658203,410.234863 174.618164,410.989258 173.189941,410.989258 C171.681152,410.989258 170.597168,410.234863 170.472656,409.092285 L169.146973,409.092285 Z M184.688965,406.880371 C184.527832,405.510742 183.392578,404.250977 181.488281,404.250977 C179.38623,404.250977 177.987305,405.789062 177.987305,408.191406 C177.987305,410.64502 179.393555,412.131836 181.50293,412.131836 C183.231445,412.131836 184.505859,411.0625 184.703613,409.546387 L183.451172,409.546387 C183.231445,410.461914 182.550293,411.01123 181.510254,411.01123 C180.191895,411.01123 179.283691,409.963867 179.283691,408.191406 C179.283691,406.462891 180.177246,405.371582 181.495605,405.371582 C182.616211,405.371582 183.260742,406.052734 183.443848,406.880371 L184.688965,406.880371 Z M185.875488,412 L187.149902,412 L187.149902,407.253906 C187.149902,406.177246 187.794434,405.466797 188.783203,405.466797 C189.09082,405.466797 189.361816,405.503418 189.464355,405.540039 L189.464355,404.302246 C189.361816,404.287598 189.171387,404.250977 188.95166,404.250977 C188.058105,404.250977 187.35498,404.785645 187.105957,405.62793 L187.07666,405.62793 L187.07666,404.382812 L185.875488,404.382812 L185.875488,412 Z M193.185059,405.356934 C191.991211,405.356934 191.15625,406.272461 191.075684,407.539551 L195.213867,407.539551 C195.18457,406.265137 194.38623,405.356934 193.185059,405.356934 Z M195.18457,409.817383 L196.437012,409.817383 C196.217285,411.150391 194.928223,412.131836 193.265625,412.131836 C191.083008,412.131836 189.757324,410.615723 189.757324,408.220703 C189.757324,405.85498 191.10498,404.250977 193.207031,404.250977 C195.265137,404.250977 196.532227,405.745117 196.532227,408.052246 L196.532227,408.535645 L191.068359,408.535645 L191.068359,408.608887 C191.068359,410.066406 191.925293,411.025879 193.294922,411.025879 C194.261719,411.025879 194.972168,410.535156 195.18457,409.817383 Z M200.868164,405.356934 C199.674316,405.356934 198.839355,406.272461 198.758789,407.539551 L202.896973,407.539551 C202.867676,406.265137 202.069336,405.356934 200.868164,405.356934 Z M202.867676,409.817383 L204.120117,409.817383 C203.900391,411.150391 202.611328,412.131836 200.94873,412.131836 C198.766113,412.131836 197.44043,410.615723 197.44043,408.220703 C197.44043,405.85498 198.788086,404.250977 200.890137,404.250977 C202.948242,404.250977 204.215332,405.745117 204.215332,408.052246 L204.215332,408.535645 L198.751465,408.535645 L198.751465,408.608887 C198.751465,410.066406 199.608398,411.025879 200.978027,411.025879 C201.944824,411.025879 202.655273,410.535156 202.867676,409.817383 Z M205.49707,412 L206.771484,412 L206.771484,407.517578 C206.771484,406.228516 207.555176,405.378906 208.756348,405.378906 C209.928223,405.378906 210.506836,406.052734 210.506836,407.283203 L210.506836,412 L211.78125,412 L211.78125,407.056152 C211.78125,405.327637 210.814453,404.250977 209.144531,404.250977 C207.965332,404.250977 207.152344,404.77832 206.727539,405.598633 L206.698242,405.598633 L206.698242,404.382812 L205.49707,404.382812 L205.49707,412 Z M213.268066,406.484863 C213.268066,407.524902 213.927246,408.213379 215.267578,408.557617 L216.60791,408.901855 C217.464844,409.128906 217.779785,409.421875 217.779785,409.963867 C217.779785,410.652344 217.142578,411.091797 216.109863,411.091797 C215.077148,411.091797 214.476562,410.666992 214.337402,409.875977 L213.062988,409.875977 C213.194824,411.223633 214.359375,412.131836 216.029297,412.131836 C217.809082,412.131836 219.061523,411.194336 219.061523,409.868652 C219.061523,408.748047 218.504883,408.191406 216.966797,407.803223 L215.787598,407.517578 C214.92334,407.297852 214.520508,406.946289 214.520508,406.418945 C214.520508,405.752441 215.135742,405.291016 216.065918,405.291016 C217.003418,405.291016 217.59668,405.745117 217.68457,406.477539 L218.900391,406.477539 C218.841797,405.188477 217.68457,404.250977 216.109863,404.250977 C214.432617,404.250977 213.268066,405.181152 213.268066,406.484863 Z M220.445801,412 L221.720215,412 L221.720215,407.561523 C221.720215,406.243164 222.503906,405.378906 223.770996,405.378906 C224.964844,405.378906 225.572754,406.104004 225.572754,407.3125 L225.572754,412 L226.847168,412 L226.847168,407.078125 C226.847168,405.378906 225.836426,404.250977 224.166504,404.250977 C223.009277,404.250977 222.174316,404.749023 221.749512,405.598633 L221.720215,405.598633 L221.720215,401.431152 L220.445801,401.431152 L220.445801,412 Z M231.622559,412.131836 C229.513184,412.131836 228.092285,410.615723 228.092285,408.191406 C228.092285,405.759766 229.513184,404.250977 231.622559,404.250977 C233.724609,404.250977 235.145508,405.759766 235.145508,408.191406 C235.145508,410.615723 233.724609,412.131836 231.622559,412.131836 Z M231.622559,411.01123 C232.970215,411.01123 233.849121,409.98584 233.849121,408.191406 C233.849121,406.396973 232.970215,405.371582 231.622559,405.371582 C230.274902,405.371582 229.388672,406.396973 229.388672,408.191406 C229.388672,409.98584 230.274902,411.01123 231.622559,411.01123 Z M236.837402,402.544434 L236.837402,404.382812 L235.702148,404.382812 L235.702148,405.430176 L236.837402,405.430176 L236.837402,410.022461 C236.837402,411.487305 237.379395,412.058594 238.77832,412.058594 C239.078613,412.058594 239.430176,412.036621 239.583984,412 L239.583984,410.930664 C239.496094,410.945312 239.203125,410.967285 239.056641,410.967285 C238.404785,410.967285 238.111816,410.652344 238.111816,409.956543 L238.111816,405.430176 L239.591309,405.430176 L239.591309,404.382812 L238.111816,404.382812 L238.111816,402.544434 L236.837402,402.544434 Z M240.814453,406.484863 C240.814453,407.524902 241.473633,408.213379 242.813965,408.557617 L244.154297,408.901855 C245.01123,409.128906 245.326172,409.421875 245.326172,409.963867 C245.326172,410.652344 244.688965,411.091797 243.65625,411.091797 C242.623535,411.091797 242.022949,410.666992 241.883789,409.875977 L240.609375,409.875977 C240.741211,411.223633 241.905762,412.131836 243.575684,412.131836 C245.355469,412.131836 246.60791,411.194336 246.60791,409.868652 C246.60791,408.748047 246.05127,408.191406 244.513184,407.803223 L243.333984,407.517578 C242.469727,407.297852 242.066895,406.946289 242.066895,406.418945 C242.066895,405.752441 242.682129,405.291016 243.612305,405.291016 C244.549805,405.291016 245.143066,405.745117 245.230957,406.477539 L246.446777,406.477539 C246.388184,405.188477 245.230957,404.250977 243.65625,404.250977 C241.979004,404.250977 240.814453,405.181152 240.814453,406.484863 Z M257.066895,403.61377 L254.62793,412 L253.382812,412 L250.504395,401.431152 L251.881348,401.431152 L253.998047,410.059082 L254.056641,410.059082 L256.437012,401.431152 L257.77002,401.431152 L260.150391,410.059082 L260.208984,410.059082 L262.325684,401.431152 L263.702637,401.431152 L260.824219,412 L259.579102,412 L257.140137,403.61377 L257.066895,403.61377 Z M267.108398,405.356934 C265.914551,405.356934 265.07959,406.272461 264.999023,407.539551 L269.137207,407.539551 C269.10791,406.265137 268.30957,405.356934 267.108398,405.356934 Z M269.10791,409.817383 L270.360352,409.817383 C270.140625,411.150391 268.851562,412.131836 267.188965,412.131836 C265.006348,412.131836 263.680664,410.615723 263.680664,408.220703 C263.680664,405.85498 265.02832,404.250977 267.130371,404.250977 C269.188477,404.250977 270.455566,405.745117 270.455566,408.052246 L270.455566,408.535645 L264.991699,408.535645 L264.991699,408.608887 C264.991699,410.066406 265.848633,411.025879 267.218262,411.025879 C268.185059,411.025879 268.895508,410.535156 269.10791,409.817383 Z M275.523926,412.131836 C274.410645,412.131836 273.539062,411.589844 273.04834,410.710938 L273.019043,410.710938 L273.019043,412 L271.803223,412 L271.803223,401.431152 L273.077637,401.431152 L273.077637,405.657227 L273.106934,405.657227 C273.583008,404.785645 274.469238,404.250977 275.545898,404.250977 C277.464844,404.250977 278.76123,405.803711 278.76123,408.191406 C278.76123,410.586426 277.472168,412.131836 275.523926,412.131836 Z M275.274902,405.371582 C273.98584,405.371582 273.070312,406.499512 273.070312,408.191406 C273.070312,409.890625 273.98584,411.01123 275.274902,411.01123 C276.622559,411.01123 277.45752,409.93457 277.45752,408.191406 C277.45752,406.462891 276.622559,405.371582 275.274902,405.371582 Z M279.918457,406.484863 C279.918457,407.524902 280.577637,408.213379 281.917969,408.557617 L283.258301,408.901855 C284.115234,409.128906 284.430176,409.421875 284.430176,409.963867 C284.430176,410.652344 283.792969,411.091797 282.760254,411.091797 C281.727539,411.091797 281.126953,410.666992 280.987793,409.875977 L279.713379,409.875977 C279.845215,411.223633 281.009766,412.131836 282.679688,412.131836 C284.459473,412.131836 285.711914,411.194336 285.711914,409.868652 C285.711914,408.748047 285.155273,408.191406 283.617188,407.803223 L282.437988,407.517578 C281.57373,407.297852 281.170898,406.946289 281.170898,406.418945 C281.170898,405.752441 281.786133,405.291016 282.716309,405.291016 C283.653809,405.291016 284.24707,405.745117 284.334961,406.477539 L285.550781,406.477539 C285.492188,405.188477 284.334961,404.250977 282.760254,404.250977 C281.083008,404.250977 279.918457,405.181152 279.918457,406.484863 Z M287.096191,412 L288.370605,412 L288.370605,404.382812 L287.096191,404.382812 L287.096191,412 Z M287.733398,403.101074 C288.172852,403.101074 288.531738,402.742188 288.531738,402.310059 C288.531738,401.870605 288.172852,401.519043 287.733398,401.519043 C287.30127,401.519043 286.942383,401.870605 286.942383,402.310059 C286.942383,402.742188 287.30127,403.101074 287.733398,403.101074 Z M290.501953,402.544434 L290.501953,404.382812 L289.366699,404.382812 L289.366699,405.430176 L290.501953,405.430176 L290.501953,410.022461 C290.501953,411.487305 291.043945,412.058594 292.442871,412.058594 C292.743164,412.058594 293.094727,412.036621 293.248535,412 L293.248535,410.930664 C293.160645,410.945312 292.867676,410.967285 292.721191,410.967285 C292.069336,410.967285 291.776367,410.652344 291.776367,409.956543 L291.776367,405.430176 L293.255859,405.430176 L293.255859,404.382812 L291.776367,404.382812 L291.776367,402.544434 L290.501953,402.544434 Z M297.445312,405.356934 C296.251465,405.356934 295.416504,406.272461 295.335938,407.539551 L299.474121,407.539551 C299.444824,406.265137 298.646484,405.356934 297.445312,405.356934 Z M299.444824,409.817383 L300.697266,409.817383 C300.477539,411.150391 299.188477,412.131836 297.525879,412.131836 C295.343262,412.131836 294.017578,410.615723 294.017578,408.220703 C294.017578,405.85498 295.365234,404.250977 297.467285,404.250977 C299.525391,404.250977 300.79248,405.745117 300.79248,408.052246 L300.79248,408.535645 L295.328613,408.535645 L295.328613,408.608887 C295.328613,410.066406 296.185547,411.025879 297.555176,411.025879 C298.521973,411.025879 299.232422,410.535156 299.444824,409.817383 Z"/>
    <g fill="#000" fill-rule="nonzero" opacity=".8" transform="translate(303 48)">
      <path d="M6.061,5 L9.531,1.53 C9.81509356,1.23558233 9.81080961,0.767802279 9.52137157,0.478637041 C9.23193354,0.189471803 8.76414965,0.185628948 8.47,0.47 L5,3.939 L1.53,0.47 C1.34302942,0.269346822 1.06144446,0.186750818 0.795711091,0.254614458 C0.529977725,0.322478098 0.322478098,0.529977725 0.254614458,0.795711091 C0.186750818,1.06144446 0.269346822,1.34302942 0.47,1.53 L3.939,5 L0.47,8.47 C0.269346822,8.65697058 0.186750818,8.93855554 0.254614458,9.20428891 C0.322478098,9.47002228 0.529977725,9.6775219 0.795711091,9.74538554 C1.06144446,9.81324918 1.34302942,9.73065318 1.53,9.53 L5,6.061 L8.47,9.531 C8.76441767,9.81509356 9.23219772,9.81080961 9.52136296,9.52137157 C9.8105282,9.23193354 9.81437105,8.76414965 9.53,8.47 L6.061,5 Z"/>
    </g>
  </g>
</svg>
