<svg xmlns="http://www.w3.org/2000/svg" width="300" height="180" style="background:#f9f9fa" viewBox="0 0 300 180">
  <g fill="#0C0C0D" fill-rule="evenodd">
    <rect width="132" height="32" x="84" y="74" fill-opacity=".1" rx="2"/>
    <path fill-opacity=".8" fill-rule="nonzero" d="M14,1.00023652 C13.4477153,1.00023652 13,1.44795177 13,2.00023652 L13,3.14623652 C11.2451486,1.31112962 8.62901259,0.579424873 6.17674822,1.23784734 C3.72448385,1.8962698 1.82667689,3.83994888 1.227,6.30723652 C1.13105647,6.65710583 1.23212494,7.03149649 1.49110116,7.28555359 C1.75007738,7.53961069 2.12633718,7.63348169 2.47430246,7.53084711 C2.82226774,7.42821253 3.0873551,7.14517209 3.167,6.79123652 C3.7150153,4.56683643 5.70908959,3.00268671 8,3.00023652 C9.5652211,2.99778553 11.0381778,3.74039036 11.967,5.00023652 L10,5.00023652 C9.44771525,5.00023652 9,5.44795177 9,6.00023652 C9,6.55252127 9.44771525,7.00023652 10,7.00023652 L14,7.00023652 C14.5522847,7.00023652 15,6.55252127 15,6.00023652 L15,2.00023652 C15,1.44795177 14.5522847,1.00023652 14,1.00023652 Z M14.046,8.48123652 C13.7886025,8.41682778 13.5161594,8.45735517 13.2886541,8.59389582 C13.0611489,8.73043646 12.8972346,8.95179548 12.833,9.20923652 C12.2849847,11.4336366 10.2909104,12.9977863 8,13.0002365 C6.4347789,13.0026875 4.96182223,12.2600827 4.033,11.0002365 L6,11.0002365 C6.55228475,11.0002365 7,10.5525213 7,10.0002365 C7,9.44795177 6.55228475,9.00023652 6,9.00023652 L2,9.00023652 C1.44771525,9.00023652 1,9.44795177 1,10.0002365 L1,14.0002365 C1,14.5525213 1.44771525,15.0002365 2,15.0002365 C2.55228475,15.0002365 3,14.5525213 3,14.0002365 L3,12.8542365 C4.75485137,14.6893434 7.37098741,15.4210482 9.82325178,14.7626257 C12.2755162,14.1042032 14.1733231,12.1605242 14.773,9.69323652 C14.9065558,9.15785201 14.5812153,8.6154687 14.046,8.48123652 Z" transform="translate(192 82)"/>
    <path d="M91.7524414,91.4799805 C91.8603516,93.0986328 93.2060547,94.1523438 95.1484375,94.1523438 C97.2558594,94.1523438 98.5761719,93.1049805 98.5761719,91.4291992 C98.5761719,90.1152344 97.8081055,89.3852539 95.9101562,88.9091797 L94.9516602,88.6552734 C93.7075195,88.331543 93.199707,87.9189453 93.199707,87.2270508 C93.199707,86.3320312 94.0249023,85.7163086 95.2119141,85.7163086 C96.4052734,85.7163086 97.1987305,86.3193359 97.300293,87.3032227 L98.4428711,87.3032227 C98.3920898,85.7670898 97.0717773,84.6879883 95.25,84.6879883 C93.3457031,84.6879883 92.0126953,85.7543945 92.0126953,87.277832 C92.0126953,88.5219727 92.7617188,89.2646484 94.4501953,89.6962891 L95.6245117,90.0009766 C96.855957,90.3183594 97.3955078,90.7944336 97.3955078,91.5688477 C97.3955078,92.4702148 96.4941406,93.1240234 95.2563477,93.1240234 C93.9487305,93.1240234 93.0092773,92.4702148 92.9013672,91.4799805 L91.7524414,91.4799805 Z M100.283691,96.4692383 C101.477051,96.4692383 102.022949,96.0058594 102.587891,94.4633789 L105.184082,87.3984375 L104.022461,87.3984375 L102.194336,92.8955078 L102.175293,92.8955078 L100.347168,87.3984375 L99.1665039,87.3984375 L101.604004,94.0063477 L101.45166,94.4697266 C101.197754,95.237793 100.85498,95.5361328 100.239258,95.5361328 C100.099609,95.5361328 99.9282227,95.5297852 99.8076172,95.5043945 L99.8076172,96.4311523 C99.9282227,96.456543 100.150391,96.4692383 100.283691,96.4692383 Z M106.053711,94 L107.158203,94 L107.158203,90.1152344 C107.158203,88.9980469 107.837402,88.2617188 108.878418,88.2617188 C109.894043,88.2617188 110.395508,88.8457031 110.395508,89.9121094 L110.395508,94 L111.5,94 L111.5,89.715332 C111.5,88.2172852 110.662109,87.2841797 109.214844,87.2841797 C108.192871,87.2841797 107.488281,87.7412109 107.120117,88.4521484 L107.094727,88.4521484 L107.094727,87.3984375 L106.053711,87.3984375 L106.053711,94 Z M118.387207,89.5629883 C118.247559,88.3759766 117.263672,87.2841797 115.613281,87.2841797 C113.791504,87.2841797 112.579102,88.6171875 112.579102,90.6992188 C112.579102,92.8256836 113.797852,94.1142578 115.625977,94.1142578 C117.124023,94.1142578 118.228516,93.1875 118.399902,91.8735352 L117.314453,91.8735352 C117.124023,92.6669922 116.533691,93.1430664 115.632324,93.1430664 C114.489746,93.1430664 113.702637,92.2353516 113.702637,90.6992188 C113.702637,89.2011719 114.477051,88.2553711 115.619629,88.2553711 C116.59082,88.2553711 117.149414,88.8457031 117.308105,89.5629883 L118.387207,89.5629883 Z"/>
  </g>
</svg>
