<svg xmlns="http://www.w3.org/2000/svg" width="300" height="180" style="background:#f9f9fa" viewBox="0 0 300 180">
  <g fill="none" fill-rule="evenodd">
    <path fill="#000" d="M56.7680664,68.6318359 L56.7680664,67.375 C56.9119473,67.5019538 57.0843903,67.6162104 57.2854004,67.7177734 C57.4864105,67.8193364 57.6979969,67.9050289 57.920166,67.9748535 C58.1423351,68.0446781 58.3655588,68.0986326 58.5898438,68.1367188 C58.8141287,68.1748049 59.0214834,68.1938477 59.2119141,68.1938477 C59.8678418,68.1938477 60.3576644,68.0721855 60.6813965,67.8288574 C61.0051286,67.5855294 61.1669922,67.2353538 61.1669922,66.7783203 C61.1669922,66.5328764 61.1130376,66.3191741 61.005127,66.137207 C60.8972163,65.95524 60.7480478,65.7891446 60.5576172,65.638916 C60.3671865,65.4886874 60.141847,65.3448086 59.8815918,65.2072754 C59.6213366,65.0697422 59.3409846,64.9248054 59.0405273,64.7724609 C58.7231429,64.6116528 58.4269219,64.4487313 58.1518555,64.2836914 C57.876789,64.1186515 57.6376963,63.9366872 57.4345703,63.737793 C57.2314443,63.5388987 57.0716965,63.3135592 56.9553223,63.0617676 C56.838948,62.809976 56.7807617,62.5148129 56.7807617,62.1762695 C56.7807617,61.7615539 56.8717439,61.4007991 57.0537109,61.0939941 C57.235678,60.7871892 57.4747707,60.5343434 57.7709961,60.3354492 C58.0672215,60.136555 58.4047019,59.9884445 58.7834473,59.8911133 C59.1621926,59.7937821 59.5483379,59.7451172 59.9418945,59.7451172 C60.8390344,59.7451172 61.4928365,59.8530263 61.9033203,60.0688477 L61.9033203,61.2685547 C61.3658827,60.896157 60.676111,60.7099609 59.8339844,60.7099609 C59.6012358,60.7099609 59.3684907,60.7342934 59.1357422,60.782959 C58.9029936,60.8316246 58.6956389,60.9109695 58.5136719,61.0209961 C58.3317048,61.1310227 58.1835943,61.2727856 58.0693359,61.4462891 C57.9550776,61.6197925 57.8979492,61.831379 57.8979492,62.0810547 C57.8979492,62.3138032 57.9413244,62.5148104 58.0280762,62.684082 C58.1148279,62.8533537 58.2428377,63.0078118 58.4121094,63.1474609 C58.5813811,63.2871101 58.7876778,63.4225254 59.0310059,63.5537109 C59.2743339,63.6848965 59.5546859,63.8287753 59.8720703,63.9853516 C60.1979183,64.1461597 60.5068345,64.3154288 60.7988281,64.4931641 C61.0908218,64.6708993 61.3468413,64.8676747 61.5668945,65.0834961 C61.7869477,65.2993175 61.9615065,65.5384101 62.0905762,65.8007812 C62.2196458,66.0631524 62.2841797,66.3636051 62.2841797,66.7021484 C62.2841797,67.1507184 62.1963713,67.530516 62.020752,67.8415527 C61.8451326,68.1525894 61.6081558,68.4054352 61.3098145,68.6000977 C61.0114731,68.7947601 60.6676452,68.9354651 60.2783203,69.0222168 C59.8889954,69.1089685 59.4785178,69.1523438 59.046875,69.1523438 C58.9029941,69.1523438 58.7252615,69.1407065 58.5136719,69.1174316 C58.3020823,69.0941568 58.0862641,69.060303 57.8662109,69.0158691 C57.6461578,68.9714353 57.4377451,68.9164229 57.2409668,68.8508301 C57.0441885,68.7852373 56.8865566,68.71224 56.7680664,68.6318359 Z M69.3554688,69 L68.3144531,69 L68.3144531,65.2548828 C68.3144531,63.9007094 67.8108774,63.2236328 66.8037109,63.2236328 C66.2958959,63.2236328 65.8684913,63.4193503 65.5214844,63.810791 C65.1744774,64.2022318 65.0009766,64.7047495 65.0009766,65.3183594 L65.0009766,69 L63.9599609,69 L63.9599609,59.3769531 L65.0009766,59.3769531 L65.0009766,63.5791016 L65.0263672,63.5791016 C65.5257186,62.7581339 66.236649,62.3476562 67.1591797,62.3476562 C68.6233797,62.3476562 69.3554688,63.2299716 69.3554688,64.9946289 L69.3554688,69 Z M74.0336914,69.1523438 C73.0730746,69.1523438 72.3060738,68.8487172 71.732666,68.2414551 C71.1592582,67.6341929 70.8725586,66.8291066 70.8725586,65.8261719 C70.8725586,64.7343695 71.1708955,63.8816762 71.7675781,63.2680664 C72.3642608,62.6544566 73.1704051,62.3476562 74.1860352,62.3476562 C75.1551155,62.3476562 75.911537,62.6459931 76.4553223,63.2426758 C76.9991075,63.8393585 77.2709961,64.6666614 77.2709961,65.7246094 C77.2709961,66.7613984 76.9779489,67.5918751 76.3918457,68.2160645 C75.8057425,68.8402538 75.0196989,69.1523438 74.0336914,69.1523438 Z M74.1098633,63.2236328 C73.4412401,63.2236328 72.9122741,63.4510882 72.5229492,63.9060059 C72.1336244,64.3609235 71.9389648,64.9882773 71.9389648,65.7880859 C71.9389648,66.5582721 72.1357402,67.1655251 72.5292969,67.6098633 C72.9228535,68.0542014 73.4497037,68.2763672 74.1098633,68.2763672 C74.7827182,68.2763672 75.300047,68.0584332 75.6618652,67.6225586 C76.0236834,67.186684 76.2045898,66.5667358 76.2045898,65.7626953 C76.2045898,64.9501913 76.0236834,64.3238954 75.6618652,63.8837891 C75.300047,63.4436827 74.7827182,63.2236328 74.1098633,63.2236328 Z M87.1225586,62.5 L85.1738281,69 L84.0947266,69 L82.7553711,64.347168 C82.7045896,64.1694327 82.6707358,63.9684256 82.6538086,63.7441406 L82.628418,63.7441406 C82.6157226,63.8964851 82.5712894,64.0932605 82.4951172,64.3344727 L81.0415039,69 L80.0004883,69 L78.0327148,62.5 L79.1245117,62.5 L80.4702148,67.3876953 C80.5125328,67.535808 80.5421549,67.7304675 80.559082,67.9716797 L80.6098633,67.9716797 C80.6225587,67.7854808 80.6606442,67.5865896 80.7241211,67.375 L82.222168,62.5 L83.1743164,62.5 L84.5200195,67.4003906 C84.5623375,67.5569669 84.5940754,67.7516264 84.6152344,67.984375 L84.6660156,67.984375 C84.6744792,67.8193351 84.7104489,67.6246756 84.7739258,67.4003906 L86.0942383,62.5 L87.1225586,62.5 Z M92.9560547,68.0605469 L92.9306641,68.0605469 L92.9306641,69 L91.8896484,69 L91.8896484,59.3769531 L92.9306641,59.3769531 L92.9306641,63.6425781 L92.9560547,63.6425781 C93.4681015,62.7792926 94.2171175,62.3476562 95.203125,62.3476562 C96.036788,62.3476562 96.6895321,62.6385876 97.161377,63.220459 C97.6332218,63.8023304 97.8691406,64.5820264 97.8691406,65.5595703 C97.8691406,66.6471409 97.6046576,67.517819 97.0756836,68.1716309 C96.5467096,68.8254427 95.823084,69.1523438 94.9047852,69.1523438 C94.0457314,69.1523438 93.3961611,68.7884151 92.9560547,68.0605469 Z M92.9306641,65.4389648 L92.9306641,66.3466797 C92.9306641,66.8841173 93.1052229,67.340086 93.4543457,67.7145996 C93.8034685,68.0891132 94.2467421,68.2763672 94.7841797,68.2763672 C95.4147167,68.2763672 95.908771,68.0351587 96.2663574,67.5527344 C96.6239438,67.0703101 96.8027344,66.3995811 96.8027344,65.5405273 C96.8027344,64.8168909 96.6355811,64.2498393 96.3012695,63.8393555 C95.966958,63.4288716 95.514163,63.2236328 94.9428711,63.2236328 C94.3377248,63.2236328 93.8510761,63.4341613 93.4829102,63.8552246 C93.1147443,64.2762879 92.9306641,64.804196 92.9306641,65.4389648 Z M102.921875,63.5537109 C102.739908,63.4140618 102.477541,63.3442383 102.134766,63.3442383 C101.690427,63.3442383 101.319093,63.5537088 101.020752,63.9726562 C100.722411,64.3916037 100.573242,64.962887 100.573242,65.6865234 L100.573242,69 L99.5322266,69 L99.5322266,62.5 L100.573242,62.5 L100.573242,63.8393555 L100.598633,63.8393555 C100.746746,63.3823219 100.973143,63.0257988 101.277832,62.7697754 C101.582521,62.513752 101.923175,62.3857422 102.299805,62.3857422 C102.570639,62.3857422 102.777994,62.4153643 102.921875,62.4746094 L102.921875,63.5537109 Z M106.768555,69.1523438 C105.807938,69.1523438 105.040937,68.8487172 104.467529,68.2414551 C103.894121,67.6341929 103.607422,66.8291066 103.607422,65.8261719 C103.607422,64.7343695 103.905759,63.8816762 104.502441,63.2680664 C105.099124,62.6544566 105.905268,62.3476562 106.920898,62.3476562 C107.889979,62.3476562 108.6464,62.6459931 109.190186,63.2426758 C109.733971,63.8393585 110.005859,64.6666614 110.005859,65.7246094 C110.005859,66.7613984 109.712812,67.5918751 109.126709,68.2160645 C108.540606,68.8402538 107.754562,69.1523438 106.768555,69.1523438 Z M106.844727,63.2236328 C106.176103,63.2236328 105.647137,63.4510882 105.257812,63.9060059 C104.868488,64.3609235 104.673828,64.9882773 104.673828,65.7880859 C104.673828,66.5582721 104.870604,67.1655251 105.26416,67.6098633 C105.657717,68.0542014 106.184567,68.2763672 106.844727,68.2763672 C107.517581,68.2763672 108.03491,68.0584332 108.396729,67.6225586 C108.758547,67.186684 108.939453,66.5667358 108.939453,65.7626953 C108.939453,64.9501913 108.758547,64.3238954 108.396729,63.8837891 C108.03491,63.4436827 107.517581,63.2236328 106.844727,63.2236328 Z M119.857422,62.5 L117.908691,69 L116.82959,69 L115.490234,64.347168 C115.439453,64.1694327 115.405599,63.9684256 115.388672,63.7441406 L115.363281,63.7441406 C115.350586,63.8964851 115.306153,64.0932605 115.22998,64.3344727 L113.776367,69 L112.735352,69 L110.767578,62.5 L111.859375,62.5 L113.205078,67.3876953 C113.247396,67.535808 113.277018,67.7304675 113.293945,67.9716797 L113.344727,67.9716797 C113.357422,67.7854808 113.395507,67.5865896 113.458984,67.375 L114.957031,62.5 L115.90918,62.5 L117.254883,67.4003906 C117.297201,67.5569669 117.328939,67.7516264 117.350098,67.984375 L117.400879,67.984375 C117.409342,67.8193351 117.445312,67.6246756 117.508789,67.4003906 L118.829102,62.5 L119.857422,62.5 Z M120.669922,68.7651367 L120.669922,67.6479492 C121.236982,68.0668966 121.861162,68.2763672 122.54248,68.2763672 C123.456548,68.2763672 123.913574,67.9716827 123.913574,67.3623047 C123.913574,67.1888012 123.874431,67.0417486 123.796143,66.9211426 C123.717854,66.8005365 123.612061,66.6936854 123.47876,66.6005859 C123.345458,66.5074865 123.188884,66.4239099 123.009033,66.3498535 C122.829182,66.2757972 122.63558,66.1985681 122.428223,66.1181641 C122.140461,66.0039057 121.887615,65.8885911 121.669678,65.7722168 C121.45174,65.6558425 121.269776,65.5246589 121.123779,65.3786621 C120.977782,65.2326653 120.867758,65.0665699 120.793701,64.8803711 C120.719645,64.6941722 120.682617,64.4762382 120.682617,64.2265625 C120.682617,63.9218735 120.752441,63.6521008 120.89209,63.4172363 C121.031739,63.1823719 121.217935,62.9855965 121.450684,62.8269043 C121.683432,62.6682121 121.948973,62.5486658 122.247314,62.4682617 C122.545656,62.3878577 122.853514,62.3476562 123.170898,62.3476562 C123.733727,62.3476562 124.237302,62.444986 124.681641,62.6396484 L124.681641,63.6933594 C124.203448,63.3802068 123.653323,63.2236328 123.03125,63.2236328 C122.836588,63.2236328 122.660971,63.2458494 122.504395,63.2902832 C122.347818,63.334717 122.213461,63.397135 122.101318,63.4775391 C121.989176,63.5579431 121.902425,63.6542149 121.841064,63.7663574 C121.779703,63.8784999 121.749023,64.002278 121.749023,64.1376953 C121.749023,64.306967 121.779703,64.4487299 121.841064,64.5629883 C121.902425,64.6772467 121.99235,64.7788081 122.11084,64.8676758 C122.22933,64.9565434 122.373209,65.0369463 122.54248,65.1088867 C122.711752,65.1808272 122.904296,65.2591142 123.120117,65.34375 C123.407879,65.4537766 123.666014,65.5669753 123.894531,65.6833496 C124.123048,65.7997239 124.317708,65.9309075 124.478516,66.0769043 C124.639324,66.2229011 124.763102,66.3911123 124.849854,66.581543 C124.936605,66.7719736 124.97998,66.9983711 124.97998,67.2607422 C124.97998,67.5823584 124.909099,67.8616525 124.767334,68.0986328 C124.625569,68.3356132 124.436199,68.5323885 124.199219,68.6889648 C123.962238,68.8455411 123.689292,68.9619137 123.380371,69.0380859 C123.07145,69.1142582 122.747723,69.1523438 122.40918,69.1523438 C121.740557,69.1523438 121.16081,69.023276 120.669922,68.7651367 Z M127.112793,60.8496094 C126.926594,60.8496094 126.767904,60.7861334 126.636719,60.6591797 C126.505533,60.5322259 126.439941,60.3714202 126.439941,60.1767578 C126.439941,59.9820954 126.505533,59.8202318 126.636719,59.6911621 C126.767904,59.5620925 126.926594,59.4975586 127.112793,59.4975586 C127.303224,59.4975586 127.465087,59.5620925 127.598389,59.6911621 C127.73169,59.8202318 127.79834,59.9820954 127.79834,60.1767578 C127.79834,60.3629567 127.73169,60.5216465 127.598389,60.652832 C127.465087,60.7840176 127.303224,60.8496094 127.112793,60.8496094 Z M127.620605,69 L126.57959,69 L126.57959,62.5 L127.620605,62.5 L127.620605,69 Z M135.123535,69 L134.08252,69 L134.08252,65.2929688 C134.08252,63.9134046 133.578944,63.2236328 132.571777,63.2236328 C132.051267,63.2236328 131.620689,63.4193503 131.280029,63.810791 C130.93937,64.2022318 130.769043,64.6962861 130.769043,65.2929688 L130.769043,69 L129.728027,69 L129.728027,62.5 L130.769043,62.5 L130.769043,63.5791016 L130.794434,63.5791016 C131.285321,62.7581339 131.996252,62.3476562 132.927246,62.3476562 C133.638187,62.3476562 134.181964,62.5772275 134.558594,63.036377 C134.935223,63.4955264 135.123535,64.1588498 135.123535,65.0263672 L135.123535,69 Z M142.632812,68.4794922 C142.632812,70.8662229 141.490246,72.0595703 139.205078,72.0595703 C138.401038,72.0595703 137.698571,71.9072281 137.097656,71.6025391 L137.097656,70.5615234 C137.829756,70.9677755 138.527991,71.1708984 139.192383,71.1708984 C140.792,71.1708984 141.591797,70.320321 141.591797,68.6191406 L141.591797,67.9082031 L141.566406,67.9082031 C141.071287,68.7376344 140.326502,69.1523438 139.332031,69.1523438 C138.523759,69.1523438 137.873131,68.8635283 137.380127,68.2858887 C136.887123,67.7082491 136.640625,66.9327848 136.640625,65.9594727 C136.640625,64.8549749 136.906166,63.9768913 137.437256,63.3251953 C137.968346,62.6734993 138.695145,62.3476562 139.617676,62.3476562 C140.493657,62.3476562 141.143227,62.6988897 141.566406,63.4013672 L141.591797,63.4013672 L141.591797,62.5 L142.632812,62.5 L142.632812,68.4794922 Z M141.591797,66.0610352 L141.591797,65.1025391 C141.591797,64.5862604 141.417238,64.1440448 141.068115,63.7758789 C140.718992,63.407713 140.284182,63.2236328 139.763672,63.2236328 C139.120439,63.2236328 138.616864,63.4574358 138.25293,63.9250488 C137.888996,64.3926618 137.707031,65.0475218 137.707031,65.8896484 C137.707031,66.6132849 137.88159,67.1919737 138.230713,67.6257324 C138.579836,68.0594911 139.042152,68.2763672 139.617676,68.2763672 C140.201663,68.2763672 140.676675,68.0690125 141.042725,67.6542969 C141.408775,67.2395813 141.591797,66.7084993 141.591797,66.0610352 Z M153.696777,69 L152.655762,69 L152.655762,65.2548828 C152.655762,63.9007094 152.152186,63.2236328 151.14502,63.2236328 C150.637204,63.2236328 150.2098,63.4193503 149.862793,63.810791 C149.515786,64.2022318 149.342285,64.7047495 149.342285,65.3183594 L149.342285,69 L148.30127,69 L148.30127,59.3769531 L149.342285,59.3769531 L149.342285,63.5791016 L149.367676,63.5791016 C149.867027,62.7581339 150.577958,62.3476562 151.500488,62.3476562 C152.964688,62.3476562 153.696777,63.2299716 153.696777,64.9946289 L153.696777,69 Z M156.191406,60.8496094 C156.005207,60.8496094 155.846518,60.7861334 155.715332,60.6591797 C155.584146,60.5322259 155.518555,60.3714202 155.518555,60.1767578 C155.518555,59.9820954 155.584146,59.8202318 155.715332,59.6911621 C155.846518,59.5620925 156.005207,59.4975586 156.191406,59.4975586 C156.381837,59.4975586 156.543701,59.5620925 156.677002,59.6911621 C156.810303,59.8202318 156.876953,59.9820954 156.876953,60.1767578 C156.876953,60.3629567 156.810303,60.5216465 156.677002,60.652832 C156.543701,60.7840176 156.381837,60.8496094 156.191406,60.8496094 Z M156.699219,69 L155.658203,69 L155.658203,62.5 L156.699219,62.5 L156.699219,69 Z M158.413086,68.7651367 L158.413086,67.6479492 C158.980146,68.0668966 159.604326,68.2763672 160.285645,68.2763672 C161.199712,68.2763672 161.656738,67.9716827 161.656738,67.3623047 C161.656738,67.1888012 161.617595,67.0417486 161.539307,66.9211426 C161.461018,66.8005365 161.355225,66.6936854 161.221924,66.6005859 C161.088622,66.5074865 160.932048,66.4239099 160.752197,66.3498535 C160.572346,66.2757972 160.378745,66.1985681 160.171387,66.1181641 C159.883625,66.0039057 159.630779,65.8885911 159.412842,65.7722168 C159.194905,65.6558425 159.01294,65.5246589 158.866943,65.3786621 C158.720947,65.2326653 158.610922,65.0665699 158.536865,64.8803711 C158.462809,64.6941722 158.425781,64.4762382 158.425781,64.2265625 C158.425781,63.9218735 158.495605,63.6521008 158.635254,63.4172363 C158.774903,63.1823719 158.961099,62.9855965 159.193848,62.8269043 C159.426596,62.6682121 159.692137,62.5486658 159.990479,62.4682617 C160.28882,62.3878577 160.596678,62.3476562 160.914062,62.3476562 C161.476891,62.3476562 161.980467,62.444986 162.424805,62.6396484 L162.424805,63.6933594 C161.946612,63.3802068 161.396487,63.2236328 160.774414,63.2236328 C160.579752,63.2236328 160.404135,63.2458494 160.247559,63.2902832 C160.090982,63.334717 159.956625,63.397135 159.844482,63.4775391 C159.73234,63.5579431 159.645589,63.6542149 159.584229,63.7663574 C159.522868,63.8784999 159.492188,64.002278 159.492188,64.1376953 C159.492188,64.306967 159.522868,64.4487299 159.584229,64.5629883 C159.645589,64.6772467 159.735514,64.7788081 159.854004,64.8676758 C159.972494,64.9565434 160.116373,65.0369463 160.285645,65.1088867 C160.454916,65.1808272 160.64746,65.2591142 160.863281,65.34375 C161.151043,65.4537766 161.409179,65.5669753 161.637695,65.6833496 C161.866212,65.7997239 162.060872,65.9309075 162.22168,66.0769043 C162.382488,66.2229011 162.506266,66.3911123 162.593018,66.581543 C162.679769,66.7719736 162.723145,66.9983711 162.723145,67.2607422 C162.723145,67.5823584 162.652263,67.8616525 162.510498,68.0986328 C162.368733,68.3356132 162.179363,68.5323885 161.942383,68.6889648 C161.705402,68.8455411 161.432456,68.9619137 161.123535,69.0380859 C160.814614,69.1142582 160.490887,69.1523438 160.152344,69.1523438 C159.483721,69.1523438 158.903974,69.023276 158.413086,68.7651367 Z M167.337891,68.9365234 C167.092447,69.0719408 166.768719,69.1396484 166.366699,69.1396484 C165.228347,69.1396484 164.65918,68.5048892 164.65918,67.2353516 L164.65918,63.3886719 L163.541992,63.3886719 L163.541992,62.5 L164.65918,62.5 L164.65918,60.9130859 L165.700195,60.5766602 L165.700195,62.5 L167.337891,62.5 L167.337891,63.3886719 L165.700195,63.3886719 L165.700195,67.0512695 C165.700195,67.4871441 165.774251,67.7981762 165.922363,67.984375 C166.070476,68.1705738 166.315916,68.2636719 166.658691,68.2636719 C166.921063,68.2636719 167.14746,68.1917325 167.337891,68.0478516 L167.337891,68.9365234 Z M171.444824,69.1523438 C170.484207,69.1523438 169.717207,68.8487172 169.143799,68.2414551 C168.570391,67.6341929 168.283691,66.8291066 168.283691,65.8261719 C168.283691,64.7343695 168.582028,63.8816762 169.178711,63.2680664 C169.775394,62.6544566 170.581538,62.3476562 171.597168,62.3476562 C172.566248,62.3476562 173.32267,62.6459931 173.866455,63.2426758 C174.41024,63.8393585 174.682129,64.6666614 174.682129,65.7246094 C174.682129,66.7613984 174.389082,67.5918751 173.802979,68.2160645 C173.216875,68.8402538 172.430832,69.1523438 171.444824,69.1523438 Z M171.520996,63.2236328 C170.852373,63.2236328 170.323407,63.4510882 169.934082,63.9060059 C169.544757,64.3609235 169.350098,64.9882773 169.350098,65.7880859 C169.350098,66.5582721 169.546873,67.1655251 169.94043,67.6098633 C170.333986,68.0542014 170.860837,68.2763672 171.520996,68.2763672 C172.193851,68.2763672 172.71118,68.0584332 173.072998,67.6225586 C173.434816,67.186684 173.615723,66.5667358 173.615723,65.7626953 C173.615723,64.9501913 173.434816,64.3238954 173.072998,63.8837891 C172.71118,63.4436827 172.193851,63.2236328 171.520996,63.2236328 Z M179.734863,63.5537109 C179.552896,63.4140618 179.290529,63.3442383 178.947754,63.3442383 C178.503416,63.3442383 178.132082,63.5537088 177.83374,63.9726562 C177.535399,64.3916037 177.38623,64.962887 177.38623,65.6865234 L177.38623,69 L176.345215,69 L176.345215,62.5 L177.38623,62.5 L177.38623,63.8393555 L177.411621,63.8393555 C177.559734,63.3823219 177.786131,63.0257988 178.09082,62.7697754 C178.395509,62.513752 178.736163,62.3857422 179.112793,62.3857422 C179.383628,62.3857422 179.590982,62.4153643 179.734863,62.4746094 L179.734863,63.5537109 Z M186.038086,62.5 L183.04834,70.0410156 C182.515134,71.3867255 181.766118,72.0595703 180.80127,72.0595703 C180.530435,72.0595703 180.304037,72.0320641 180.12207,71.9770508 L180.12207,71.0439453 C180.346355,71.1201176 180.551594,71.1582031 180.737793,71.1582031 C181.262535,71.1582031 181.656086,70.8450552 181.918457,70.21875 L182.438965,68.9873047 L179.899902,62.5 L181.055176,62.5 L182.813477,67.5019531 C182.834636,67.56543 182.879069,67.7304674 182.946777,67.9970703 L182.984863,67.9970703 C183.006022,67.8955073 183.04834,67.7347016 183.111816,67.5146484 L184.958984,62.5 L186.038086,62.5 Z"/>
    <rect width="16" height="16" x="36" y="56" fill="#0060DF" rx="2"/>
    <path fill="#FFF" fill-rule="nonzero" d="M42.52,68.5 C42.2557846,68.4999449 42.0023287,68.3953269 41.815,68.209 L38.295,64.709 C38.0344321,64.4586398 37.9292001,64.0871801 38.0197394,63.7373537 C38.1102786,63.3875273 38.3825034,63.113758 38.731812,63.021241 C39.0811205,62.928724 39.4531696,63.0318527 39.705,63.291 L42.517,66.091 L48.291,60.298 C48.6828367,59.918435 49.3065809,59.9229549 49.6928758,60.3081585 C50.0791707,60.6933622 50.0854551,61.3170911 49.707,61.71 L43.228,68.21 C43.0397717,68.3966949 42.7851111,68.5010051 42.52,68.5 Z"/>
    <path fill="#000" d="M56.7680664,92.6318359 L56.7680664,91.375 C56.9119473,91.5019538 57.0843903,91.6162104 57.2854004,91.7177734 C57.4864105,91.8193364 57.6979969,91.9050289 57.920166,91.9748535 C58.1423351,92.0446781 58.3655588,92.0986326 58.5898438,92.1367188 C58.8141287,92.1748049 59.0214834,92.1938477 59.2119141,92.1938477 C59.8678418,92.1938477 60.3576644,92.0721855 60.6813965,91.8288574 C61.0051286,91.5855294 61.1669922,91.2353538 61.1669922,90.7783203 C61.1669922,90.5328764 61.1130376,90.3191741 61.005127,90.137207 C60.8972163,89.95524 60.7480478,89.7891446 60.5576172,89.638916 C60.3671865,89.4886874 60.141847,89.3448086 59.8815918,89.2072754 C59.6213366,89.0697422 59.3409846,88.9248054 59.0405273,88.7724609 C58.7231429,88.6116528 58.4269219,88.4487313 58.1518555,88.2836914 C57.876789,88.1186515 57.6376963,87.9366872 57.4345703,87.737793 C57.2314443,87.5388987 57.0716965,87.3135592 56.9553223,87.0617676 C56.838948,86.809976 56.7807617,86.5148129 56.7807617,86.1762695 C56.7807617,85.7615539 56.8717439,85.4007991 57.0537109,85.0939941 C57.235678,84.7871892 57.4747707,84.5343434 57.7709961,84.3354492 C58.0672215,84.136555 58.4047019,83.9884445 58.7834473,83.8911133 C59.1621926,83.7937821 59.5483379,83.7451172 59.9418945,83.7451172 C60.8390344,83.7451172 61.4928365,83.8530263 61.9033203,84.0688477 L61.9033203,85.2685547 C61.3658827,84.896157 60.676111,84.7099609 59.8339844,84.7099609 C59.6012358,84.7099609 59.3684907,84.7342934 59.1357422,84.782959 C58.9029936,84.8316246 58.6956389,84.9109695 58.5136719,85.0209961 C58.3317048,85.1310227 58.1835943,85.2727856 58.0693359,85.4462891 C57.9550776,85.6197925 57.8979492,85.831379 57.8979492,86.0810547 C57.8979492,86.3138032 57.9413244,86.5148104 58.0280762,86.684082 C58.1148279,86.8533537 58.2428377,87.0078118 58.4121094,87.1474609 C58.5813811,87.2871101 58.7876778,87.4225254 59.0310059,87.5537109 C59.2743339,87.6848965 59.5546859,87.8287753 59.8720703,87.9853516 C60.1979183,88.1461597 60.5068345,88.3154288 60.7988281,88.4931641 C61.0908218,88.6708993 61.3468413,88.8676747 61.5668945,89.0834961 C61.7869477,89.2993175 61.9615065,89.5384101 62.0905762,89.8007812 C62.2196458,90.0631524 62.2841797,90.3636051 62.2841797,90.7021484 C62.2841797,91.1507184 62.1963713,91.530516 62.020752,91.8415527 C61.8451326,92.1525894 61.6081558,92.4054352 61.3098145,92.6000977 C61.0114731,92.7947601 60.6676452,92.9354651 60.2783203,93.0222168 C59.8889954,93.1089685 59.4785178,93.1523438 59.046875,93.1523438 C58.9029941,93.1523438 58.7252615,93.1407065 58.5136719,93.1174316 C58.3020823,93.0941568 58.0862641,93.060303 57.8662109,93.0158691 C57.6461578,92.9714353 57.4377451,92.9164229 57.2409668,92.8508301 C57.0441885,92.7852373 56.8865566,92.71224 56.7680664,92.6318359 Z M69.3554688,93 L68.3144531,93 L68.3144531,89.2548828 C68.3144531,87.9007094 67.8108774,87.2236328 66.8037109,87.2236328 C66.2958959,87.2236328 65.8684913,87.4193503 65.5214844,87.810791 C65.1744774,88.2022318 65.0009766,88.7047495 65.0009766,89.3183594 L65.0009766,93 L63.9599609,93 L63.9599609,83.3769531 L65.0009766,83.3769531 L65.0009766,87.5791016 L65.0263672,87.5791016 C65.5257186,86.7581339 66.236649,86.3476562 67.1591797,86.3476562 C68.6233797,86.3476562 69.3554688,87.2299716 69.3554688,88.9946289 L69.3554688,93 Z M74.0336914,93.1523438 C73.0730746,93.1523438 72.3060738,92.8487172 71.732666,92.2414551 C71.1592582,91.6341929 70.8725586,90.8291066 70.8725586,89.8261719 C70.8725586,88.7343695 71.1708955,87.8816762 71.7675781,87.2680664 C72.3642608,86.6544566 73.1704051,86.3476562 74.1860352,86.3476562 C75.1551155,86.3476562 75.911537,86.6459931 76.4553223,87.2426758 C76.9991075,87.8393585 77.2709961,88.6666614 77.2709961,89.7246094 C77.2709961,90.7613984 76.9779489,91.5918751 76.3918457,92.2160645 C75.8057425,92.8402538 75.0196989,93.1523438 74.0336914,93.1523438 Z M74.1098633,87.2236328 C73.4412401,87.2236328 72.9122741,87.4510882 72.5229492,87.9060059 C72.1336244,88.3609235 71.9389648,88.9882773 71.9389648,89.7880859 C71.9389648,90.5582721 72.1357402,91.1655251 72.5292969,91.6098633 C72.9228535,92.0542014 73.4497037,92.2763672 74.1098633,92.2763672 C74.7827182,92.2763672 75.300047,92.0584332 75.6618652,91.6225586 C76.0236834,91.186684 76.2045898,90.5667358 76.2045898,89.7626953 C76.2045898,88.9501913 76.0236834,88.3238954 75.6618652,87.8837891 C75.300047,87.4436827 74.7827182,87.2236328 74.1098633,87.2236328 Z M87.1225586,86.5 L85.1738281,93 L84.0947266,93 L82.7553711,88.347168 C82.7045896,88.1694327 82.6707358,87.9684256 82.6538086,87.7441406 L82.628418,87.7441406 C82.6157226,87.8964851 82.5712894,88.0932605 82.4951172,88.3344727 L81.0415039,93 L80.0004883,93 L78.0327148,86.5 L79.1245117,86.5 L80.4702148,91.3876953 C80.5125328,91.535808 80.5421549,91.7304675 80.559082,91.9716797 L80.6098633,91.9716797 C80.6225587,91.7854808 80.6606442,91.5865896 80.7241211,91.375 L82.222168,86.5 L83.1743164,86.5 L84.5200195,91.4003906 C84.5623375,91.5569669 84.5940754,91.7516264 84.6152344,91.984375 L84.6660156,91.984375 C84.6744792,91.8193351 84.7104489,91.6246756 84.7739258,91.4003906 L86.0942383,86.5 L87.1225586,86.5 Z M92.9560547,92.0605469 L92.9306641,92.0605469 L92.9306641,93 L91.8896484,93 L91.8896484,83.3769531 L92.9306641,83.3769531 L92.9306641,87.6425781 L92.9560547,87.6425781 C93.4681015,86.7792926 94.2171175,86.3476562 95.203125,86.3476562 C96.036788,86.3476562 96.6895321,86.6385876 97.161377,87.220459 C97.6332218,87.8023304 97.8691406,88.5820264 97.8691406,89.5595703 C97.8691406,90.6471409 97.6046576,91.517819 97.0756836,92.1716309 C96.5467096,92.8254427 95.823084,93.1523438 94.9047852,93.1523438 C94.0457314,93.1523438 93.3961611,92.7884151 92.9560547,92.0605469 Z M92.9306641,89.4389648 L92.9306641,90.3466797 C92.9306641,90.8841173 93.1052229,91.340086 93.4543457,91.7145996 C93.8034685,92.0891132 94.2467421,92.2763672 94.7841797,92.2763672 C95.4147167,92.2763672 95.908771,92.0351587 96.2663574,91.5527344 C96.6239438,91.0703101 96.8027344,90.3995811 96.8027344,89.5405273 C96.8027344,88.8168909 96.6355811,88.2498393 96.3012695,87.8393555 C95.966958,87.4288716 95.514163,87.2236328 94.9428711,87.2236328 C94.3377248,87.2236328 93.8510761,87.4341613 93.4829102,87.8552246 C93.1147443,88.2762879 92.9306641,88.804196 92.9306641,89.4389648 Z M102.249023,93.1523438 C101.288407,93.1523438 100.521406,92.8487172 99.947998,92.2414551 C99.3745902,91.6341929 99.0878906,90.8291066 99.0878906,89.8261719 C99.0878906,88.7343695 99.3862275,87.8816762 99.9829102,87.2680664 C100.579593,86.6544566 101.385737,86.3476562 102.401367,86.3476562 C103.370448,86.3476562 104.126869,86.6459931 104.670654,87.2426758 C105.21444,87.8393585 105.486328,88.6666614 105.486328,89.7246094 C105.486328,90.7613984 105.193281,91.5918751 104.607178,92.2160645 C104.021075,92.8402538 103.235031,93.1523438 102.249023,93.1523438 Z M102.325195,87.2236328 C101.656572,87.2236328 101.127606,87.4510882 100.738281,87.9060059 C100.348956,88.3609235 100.154297,88.9882773 100.154297,89.7880859 C100.154297,90.5582721 100.351072,91.1655251 100.744629,91.6098633 C101.138186,92.0542014 101.665036,92.2763672 102.325195,92.2763672 C102.99805,92.2763672 103.515379,92.0584332 103.877197,91.6225586 C104.239015,91.186684 104.419922,90.5667358 104.419922,89.7626953 C104.419922,88.9501913 104.239015,88.3238954 103.877197,87.8837891 C103.515379,87.4436827 102.99805,87.2236328 102.325195,87.2236328 Z M109.866211,93.1523438 C108.905594,93.1523438 108.138593,92.8487172 107.565186,92.2414551 C106.991778,91.6341929 106.705078,90.8291066 106.705078,89.8261719 C106.705078,88.7343695 107.003415,87.8816762 107.600098,87.2680664 C108.19678,86.6544566 109.002925,86.3476562 110.018555,86.3476562 C110.987635,86.3476562 111.744057,86.6459931 112.287842,87.2426758 C112.831627,87.8393585 113.103516,88.6666614 113.103516,89.7246094 C113.103516,90.7613984 112.810468,91.5918751 112.224365,92.2160645 C111.638262,92.8402538 110.852218,93.1523438 109.866211,93.1523438 Z M109.942383,87.2236328 C109.27376,87.2236328 108.744794,87.4510882 108.355469,87.9060059 C107.966144,88.3609235 107.771484,88.9882773 107.771484,89.7880859 C107.771484,90.5582721 107.96826,91.1655251 108.361816,91.6098633 C108.755373,92.0542014 109.282223,92.2763672 109.942383,92.2763672 C110.615238,92.2763672 111.132567,92.0584332 111.494385,91.6225586 C111.856203,91.186684 112.037109,90.5667358 112.037109,89.7626953 C112.037109,88.9501913 111.856203,88.3238954 111.494385,87.8837891 C111.132567,87.4436827 110.615238,87.2236328 109.942383,87.2236328 Z M120.162109,93 L118.702148,93 L115.833008,89.8769531 L115.807617,89.8769531 L115.807617,93 L114.766602,93 L114.766602,83.3769531 L115.807617,83.3769531 L115.807617,89.4770508 L115.833008,89.4770508 L118.5625,86.5 L119.927246,86.5 L116.912109,89.6357422 L120.162109,93 Z M130.458008,93 L129.416992,93 L129.416992,89.2675781 C129.416992,88.5481735 129.305909,88.0276709 129.08374,87.7060547 C128.861571,87.3844385 128.488121,87.2236328 127.963379,87.2236328 C127.519041,87.2236328 127.141359,87.4267558 126.830322,87.8330078 C126.519286,88.2392598 126.36377,88.7259086 126.36377,89.2929688 L126.36377,93 L125.322754,93 L125.322754,89.140625 C125.322754,87.8626238 124.829758,87.2236328 123.84375,87.2236328 C123.386716,87.2236328 123.010093,87.4151185 122.713867,87.7980957 C122.417642,88.1810729 122.269531,88.6793589 122.269531,89.2929688 L122.269531,93 L121.228516,93 L121.228516,86.5 L122.269531,86.5 L122.269531,87.5283203 L122.294922,87.5283203 C122.756187,86.741207 123.429032,86.3476562 124.313477,86.3476562 C124.757815,86.3476562 125.145018,86.4714343 125.475098,86.7189941 C125.805177,86.966554 126.031575,87.2913391 126.154297,87.6933594 C126.636721,86.7962195 127.356115,86.3476562 128.3125,86.3476562 C129.742846,86.3476562 130.458008,87.2299716 130.458008,88.9946289 L130.458008,93 Z M137.078613,93 L136.037598,93 L136.037598,91.984375 L136.012207,91.984375 C135.559405,92.7630247 134.892908,93.1523438 134.012695,93.1523438 C133.365231,93.1523438 132.858482,92.9809587 132.492432,92.6381836 C132.126382,92.2954084 131.943359,91.8404976 131.943359,91.2734375 C131.943359,90.0589132 132.658521,89.3522145 134.088867,89.1533203 L136.037598,88.8803711 C136.037598,87.7758734 135.59115,87.2236328 134.698242,87.2236328 C133.915361,87.2236328 133.208662,87.4902317 132.578125,88.0234375 L132.578125,86.9570312 C133.217126,86.5507792 133.953446,86.3476562 134.787109,86.3476562 C136.314786,86.3476562 137.078613,87.1559164 137.078613,88.7724609 L137.078613,93 Z M136.037598,89.7119141 L134.469727,89.9277344 C133.987302,89.995443 133.623374,90.1149894 133.37793,90.286377 C133.132486,90.4577645 133.009766,90.761391 133.009766,91.1972656 C133.009766,91.51465 133.122964,91.7738434 133.349365,91.9748535 C133.575766,92.1758636 133.877277,92.2763672 134.253906,92.2763672 C134.770185,92.2763672 135.196532,92.0954608 135.532959,91.7336426 C135.869386,91.3718244 136.037598,90.9137398 136.037598,90.359375 L136.037598,89.7119141 Z M142.429688,87.5537109 C142.24772,87.4140618 141.985353,87.3442383 141.642578,87.3442383 C141.19824,87.3442383 140.826906,87.5537088 140.528564,87.9726562 C140.230223,88.3916037 140.081055,88.962887 140.081055,89.6865234 L140.081055,93 L139.040039,93 L139.040039,86.5 L140.081055,86.5 L140.081055,87.8393555 L140.106445,87.8393555 C140.254558,87.3823219 140.480956,87.0257988 140.785645,86.7697754 C141.090334,86.513752 141.430988,86.3857422 141.807617,86.3857422 C142.078452,86.3857422 142.285807,86.4153643 142.429688,86.4746094 L142.429688,87.5537109 Z M148.955078,93 L147.495117,93 L144.625977,89.8769531 L144.600586,89.8769531 L144.600586,93 L143.55957,93 L143.55957,83.3769531 L144.600586,83.3769531 L144.600586,89.4770508 L144.625977,89.4770508 L147.355469,86.5 L148.720215,86.5 L145.705078,89.6357422 L148.955078,93 Z M149.62793,92.7651367 L149.62793,91.6479492 C150.19499,92.0668966 150.81917,92.2763672 151.500488,92.2763672 C152.414555,92.2763672 152.871582,91.9716827 152.871582,91.3623047 C152.871582,91.1888012 152.832439,91.0417486 152.75415,90.9211426 C152.675862,90.8005365 152.570069,90.6936854 152.436768,90.6005859 C152.303466,90.5074865 152.146892,90.4239099 151.967041,90.3498535 C151.78719,90.2757972 151.593588,90.1985681 151.38623,90.1181641 C151.098469,90.0039057 150.845623,89.8885911 150.627686,89.7722168 C150.409748,89.6558425 150.227784,89.5246589 150.081787,89.3786621 C149.93579,89.2326653 149.825765,89.0665699 149.751709,88.8803711 C149.677653,88.6941722 149.640625,88.4762382 149.640625,88.2265625 C149.640625,87.9218735 149.710449,87.6521008 149.850098,87.4172363 C149.989747,87.1823719 150.175943,86.9855965 150.408691,86.8269043 C150.64144,86.6682121 150.906981,86.5486658 151.205322,86.4682617 C151.503664,86.3878577 151.811522,86.3476562 152.128906,86.3476562 C152.691735,86.3476562 153.19531,86.444986 153.639648,86.6396484 L153.639648,87.6933594 C153.161456,87.3802068 152.611331,87.2236328 151.989258,87.2236328 C151.794595,87.2236328 151.618979,87.2458494 151.462402,87.2902832 C151.305826,87.334717 151.171469,87.397135 151.059326,87.4775391 C150.947184,87.5579431 150.860433,87.6542149 150.799072,87.7663574 C150.737711,87.8784999 150.707031,88.002278 150.707031,88.1376953 C150.707031,88.306967 150.737711,88.4487299 150.799072,88.5629883 C150.860433,88.6772467 150.950357,88.7788081 151.068848,88.8676758 C151.187338,88.9565434 151.331217,89.0369463 151.500488,89.1088867 C151.66976,89.1808272 151.862304,89.2591142 152.078125,89.34375 C152.365887,89.4537766 152.624022,89.5669753 152.852539,89.6833496 C153.081056,89.7997239 153.275715,89.9309075 153.436523,90.0769043 C153.597332,90.2229011 153.72111,90.3911123 153.807861,90.581543 C153.894613,90.7719736 153.937988,90.9983711 153.937988,91.2607422 C153.937988,91.5823584 153.867107,91.8616525 153.725342,92.0986328 C153.583577,92.3356132 153.394207,92.5323885 153.157227,92.6889648 C152.920246,92.8455411 152.6473,92.9619137 152.338379,93.0380859 C152.029458,93.1142582 151.705731,93.1523438 151.367188,93.1523438 C150.698564,93.1523438 150.118818,93.023276 149.62793,92.7651367 Z"/>
    <rect width="16" height="16" x="36" y="80" fill="#0060DF" rx="2"/>
    <path fill="#FFF" fill-rule="nonzero" d="M42.52,92.5 C42.2557846,92.4999449 42.0023287,92.3953269 41.815,92.209 L38.295,88.709 C38.0344321,88.4586398 37.9292001,88.0871801 38.0197394,87.7373537 C38.1102786,87.3875273 38.3825034,87.113758 38.731812,87.021241 C39.0811205,86.928724 39.4531696,87.0318527 39.705,87.291 L42.517,90.091 L48.291,84.298 C48.6828367,83.918435 49.3065809,83.9229549 49.6928758,84.3081585 C50.0791707,84.6933622 50.0854551,85.3170911 49.707,85.71 L43.228,92.21 C43.0397717,92.3966949 42.7851111,92.5010051 42.52,92.5 Z"/>
    <path fill="#000" d="M56.7680664,116.631836 L56.7680664,115.375 C56.9119473,115.501954 57.0843903,115.61621 57.2854004,115.717773 C57.4864105,115.819336 57.6979969,115.905029 57.920166,115.974854 C58.1423351,116.044678 58.3655588,116.098633 58.5898438,116.136719 C58.8141287,116.174805 59.0214834,116.193848 59.2119141,116.193848 C59.8678418,116.193848 60.3576644,116.072185 60.6813965,115.828857 C61.0051286,115.585529 61.1669922,115.235354 61.1669922,114.77832 C61.1669922,114.532876 61.1130376,114.319174 61.005127,114.137207 C60.8972163,113.95524 60.7480478,113.789145 60.5576172,113.638916 C60.3671865,113.488687 60.141847,113.344809 59.8815918,113.207275 C59.6213366,113.069742 59.3409846,112.924805 59.0405273,112.772461 C58.7231429,112.611653 58.4269219,112.448731 58.1518555,112.283691 C57.876789,112.118652 57.6376963,111.936687 57.4345703,111.737793 C57.2314443,111.538899 57.0716965,111.313559 56.9553223,111.061768 C56.838948,110.809976 56.7807617,110.514813 56.7807617,110.17627 C56.7807617,109.761554 56.8717439,109.400799 57.0537109,109.093994 C57.235678,108.787189 57.4747707,108.534343 57.7709961,108.335449 C58.0672215,108.136555 58.4047019,107.988444 58.7834473,107.891113 C59.1621926,107.793782 59.5483379,107.745117 59.9418945,107.745117 C60.8390344,107.745117 61.4928365,107.853026 61.9033203,108.068848 L61.9033203,109.268555 C61.3658827,108.896157 60.676111,108.709961 59.8339844,108.709961 C59.6012358,108.709961 59.3684907,108.734293 59.1357422,108.782959 C58.9029936,108.831625 58.6956389,108.91097 58.5136719,109.020996 C58.3317048,109.131023 58.1835943,109.272786 58.0693359,109.446289 C57.9550776,109.619793 57.8979492,109.831379 57.8979492,110.081055 C57.8979492,110.313803 57.9413244,110.51481 58.0280762,110.684082 C58.1148279,110.853354 58.2428377,111.007812 58.4121094,111.147461 C58.5813811,111.28711 58.7876778,111.422525 59.0310059,111.553711 C59.2743339,111.684896 59.5546859,111.828775 59.8720703,111.985352 C60.1979183,112.14616 60.5068345,112.315429 60.7988281,112.493164 C61.0908218,112.670899 61.3468413,112.867675 61.5668945,113.083496 C61.7869477,113.299317 61.9615065,113.53841 62.0905762,113.800781 C62.2196458,114.063152 62.2841797,114.363605 62.2841797,114.702148 C62.2841797,115.150718 62.1963713,115.530516 62.020752,115.841553 C61.8451326,116.152589 61.6081558,116.405435 61.3098145,116.600098 C61.0114731,116.79476 60.6676452,116.935465 60.2783203,117.022217 C59.8889954,117.108969 59.4785178,117.152344 59.046875,117.152344 C58.9029941,117.152344 58.7252615,117.140706 58.5136719,117.117432 C58.3020823,117.094157 58.0862641,117.060303 57.8662109,117.015869 C57.6461578,116.971435 57.4377451,116.916423 57.2409668,116.85083 C57.0441885,116.785237 56.8865566,116.71224 56.7680664,116.631836 Z M69.3554688,117 L68.3144531,117 L68.3144531,113.254883 C68.3144531,111.900709 67.8108774,111.223633 66.8037109,111.223633 C66.2958959,111.223633 65.8684913,111.41935 65.5214844,111.810791 C65.1744774,112.202232 65.0009766,112.70475 65.0009766,113.318359 L65.0009766,117 L63.9599609,117 L63.9599609,107.376953 L65.0009766,107.376953 L65.0009766,111.579102 L65.0263672,111.579102 C65.5257186,110.758134 66.236649,110.347656 67.1591797,110.347656 C68.6233797,110.347656 69.3554688,111.229972 69.3554688,112.994629 L69.3554688,117 Z M74.0336914,117.152344 C73.0730746,117.152344 72.3060738,116.848717 71.732666,116.241455 C71.1592582,115.634193 70.8725586,114.829107 70.8725586,113.826172 C70.8725586,112.73437 71.1708955,111.881676 71.7675781,111.268066 C72.3642608,110.654457 73.1704051,110.347656 74.1860352,110.347656 C75.1551155,110.347656 75.911537,110.645993 76.4553223,111.242676 C76.9991075,111.839358 77.2709961,112.666661 77.2709961,113.724609 C77.2709961,114.761398 76.9779489,115.591875 76.3918457,116.216064 C75.8057425,116.840254 75.0196989,117.152344 74.0336914,117.152344 Z M74.1098633,111.223633 C73.4412401,111.223633 72.9122741,111.451088 72.5229492,111.906006 C72.1336244,112.360923 71.9389648,112.988277 71.9389648,113.788086 C71.9389648,114.558272 72.1357402,115.165525 72.5292969,115.609863 C72.9228535,116.054201 73.4497037,116.276367 74.1098633,116.276367 C74.7827182,116.276367 75.300047,116.058433 75.6618652,115.622559 C76.0236834,115.186684 76.2045898,114.566736 76.2045898,113.762695 C76.2045898,112.950191 76.0236834,112.323895 75.6618652,111.883789 C75.300047,111.443683 74.7827182,111.223633 74.1098633,111.223633 Z M87.1225586,110.5 L85.1738281,117 L84.0947266,117 L82.7553711,112.347168 C82.7045896,112.169433 82.6707358,111.968426 82.6538086,111.744141 L82.628418,111.744141 C82.6157226,111.896485 82.5712894,112.093261 82.4951172,112.334473 L81.0415039,117 L80.0004883,117 L78.0327148,110.5 L79.1245117,110.5 L80.4702148,115.387695 C80.5125328,115.535808 80.5421549,115.730468 80.559082,115.97168 L80.6098633,115.97168 C80.6225587,115.785481 80.6606442,115.58659 80.7241211,115.375 L82.222168,110.5 L83.1743164,110.5 L84.5200195,115.400391 C84.5623375,115.556967 84.5940754,115.751626 84.6152344,115.984375 L84.6660156,115.984375 C84.6744792,115.819335 84.7104489,115.624676 84.7739258,115.400391 L86.0942383,110.5 L87.1225586,110.5 Z M94.6064453,117.152344 C93.6458285,117.152344 92.8788277,116.848717 92.3054199,116.241455 C91.7320121,115.634193 91.4453125,114.829107 91.4453125,113.826172 C91.4453125,112.73437 91.7436494,111.881676 92.340332,111.268066 C92.9370147,110.654457 93.743159,110.347656 94.7587891,110.347656 C95.7278694,110.347656 96.4842909,110.645993 97.0280762,111.242676 C97.5718614,111.839358 97.84375,112.666661 97.84375,113.724609 C97.84375,114.761398 97.5507028,115.591875 96.9645996,116.216064 C96.3784964,116.840254 95.5924528,117.152344 94.6064453,117.152344 Z M94.6826172,111.223633 C94.0139941,111.223633 93.485028,111.451088 93.0957031,111.906006 C92.7063783,112.360923 92.5117188,112.988277 92.5117188,113.788086 C92.5117188,114.558272 92.7084941,115.165525 93.1020508,115.609863 C93.4956074,116.054201 94.0224576,116.276367 94.6826172,116.276367 C95.3554721,116.276367 95.8728009,116.058433 96.2346191,115.622559 C96.5964374,115.186684 96.7773438,114.566736 96.7773438,113.762695 C96.7773438,112.950191 96.5964374,112.323895 96.2346191,111.883789 C95.8728009,111.443683 95.3554721,111.223633 94.6826172,111.223633 Z M100.573242,116.060547 L100.547852,116.060547 L100.547852,119.989746 L99.5068359,119.989746 L99.5068359,110.5 L100.547852,110.5 L100.547852,111.642578 L100.573242,111.642578 C101.085289,110.779293 101.834305,110.347656 102.820312,110.347656 C103.658207,110.347656 104.312009,110.638588 104.781738,111.220459 C105.251467,111.80233 105.486328,112.582026 105.486328,113.55957 C105.486328,114.647141 105.221845,115.517819 104.692871,116.171631 C104.163897,116.825443 103.440272,117.152344 102.521973,117.152344 C101.679846,117.152344 101.030276,116.788415 100.573242,116.060547 Z M100.547852,113.438965 L100.547852,114.34668 C100.547852,114.884117 100.72241,115.340086 101.071533,115.7146 C101.420656,116.089113 101.86393,116.276367 102.401367,116.276367 C103.031904,116.276367 103.525958,116.035159 103.883545,115.552734 C104.241131,115.07031 104.419922,114.399581 104.419922,113.540527 C104.419922,112.816891 104.252769,112.249839 103.918457,111.839355 C103.584145,111.428872 103.131351,111.223633 102.560059,111.223633 C101.954912,111.223633 101.468264,111.434161 101.100098,111.855225 C100.731932,112.276288 100.547852,112.804196 100.547852,113.438965 Z M112.373535,114.010254 L107.78418,114.010254 C107.801107,114.73389 107.995766,115.292479 108.368164,115.686035 C108.740562,116.079592 109.252601,116.276367 109.904297,116.276367 C110.636397,116.276367 111.309242,116.035159 111.922852,115.552734 L111.922852,116.530273 C111.35156,116.944989 110.596196,117.152344 109.656738,117.152344 C108.738439,117.152344 108.01693,116.857181 107.492188,116.266846 C106.967445,115.676511 106.705078,114.846034 106.705078,113.775391 C106.705078,112.763992 106.991778,111.939863 107.565186,111.302979 C108.138593,110.666094 108.850582,110.347656 109.701172,110.347656 C110.551762,110.347656 111.209796,110.622719 111.675293,111.172852 C112.14079,111.722985 112.373535,112.486812 112.373535,113.464355 L112.373535,114.010254 Z M111.307129,113.12793 C111.302897,112.527015 111.15796,112.059409 110.872314,111.725098 C110.586668,111.390786 110.189944,111.223633 109.682129,111.223633 C109.191241,111.223633 108.774416,111.39925 108.431641,111.750488 C108.088865,112.101727 107.877279,112.56087 107.796875,113.12793 L111.307129,113.12793 Z M119.343262,117 L118.302246,117 L118.302246,113.292969 C118.302246,111.913405 117.79867,111.223633 116.791504,111.223633 C116.270993,111.223633 115.840415,111.41935 115.499756,111.810791 C115.159097,112.202232 114.98877,112.696286 114.98877,113.292969 L114.98877,117 L113.947754,117 L113.947754,110.5 L114.98877,110.5 L114.98877,111.579102 L115.01416,111.579102 C115.505048,110.758134 116.215978,110.347656 117.146973,110.347656 C117.857914,110.347656 118.401691,110.577228 118.77832,111.036377 C119.15495,111.495526 119.343262,112.15885 119.343262,113.026367 L119.343262,117 Z M127.880859,116.936523 C127.635415,117.071941 127.311688,117.139648 126.909668,117.139648 C125.771316,117.139648 125.202148,116.504889 125.202148,115.235352 L125.202148,111.388672 L124.084961,111.388672 L124.084961,110.5 L125.202148,110.5 L125.202148,108.913086 L126.243164,108.57666 L126.243164,110.5 L127.880859,110.5 L127.880859,111.388672 L126.243164,111.388672 L126.243164,115.05127 C126.243164,115.487144 126.317219,115.798176 126.465332,115.984375 C126.613445,116.170574 126.858885,116.263672 127.20166,116.263672 C127.464031,116.263672 127.690429,116.191732 127.880859,116.047852 L127.880859,116.936523 Z M133.923828,117 L132.882812,117 L132.882812,115.984375 L132.857422,115.984375 C132.40462,116.763025 131.738123,117.152344 130.85791,117.152344 C130.210446,117.152344 129.703696,116.980959 129.337646,116.638184 C128.971596,116.295408 128.788574,115.840498 128.788574,115.273438 C128.788574,114.058913 129.503736,113.352215 130.934082,113.15332 L132.882812,112.880371 C132.882812,111.775873 132.436365,111.223633 131.543457,111.223633 C130.760576,111.223633 130.053877,111.490232 129.42334,112.023438 L129.42334,110.957031 C130.06234,110.550779 130.798661,110.347656 131.632324,110.347656 C133.160001,110.347656 133.923828,111.155916 133.923828,112.772461 L133.923828,117 Z M132.882812,113.711914 L131.314941,113.927734 C130.832517,113.995443 130.468588,114.114989 130.223145,114.286377 C129.977701,114.457765 129.85498,114.761391 129.85498,115.197266 C129.85498,115.51465 129.968179,115.773843 130.19458,115.974854 C130.420981,116.175864 130.722492,116.276367 131.099121,116.276367 C131.6154,116.276367 132.041746,116.095461 132.378174,115.733643 C132.714601,115.371824 132.882812,114.91374 132.882812,114.359375 L132.882812,113.711914 Z M136.95166,116.060547 L136.92627,116.060547 L136.92627,117 L135.885254,117 L135.885254,107.376953 L136.92627,107.376953 L136.92627,111.642578 L136.95166,111.642578 C137.463707,110.779293 138.212723,110.347656 139.19873,110.347656 C140.032393,110.347656 140.685138,110.638588 141.156982,111.220459 C141.628827,111.80233 141.864746,112.582026 141.864746,113.55957 C141.864746,114.647141 141.600263,115.517819 141.071289,116.171631 C140.542315,116.825443 139.818689,117.152344 138.900391,117.152344 C138.041337,117.152344 137.391767,116.788415 136.95166,116.060547 Z M136.92627,113.438965 L136.92627,114.34668 C136.92627,114.884117 137.100828,115.340086 137.449951,115.7146 C137.799074,116.089113 138.242348,116.276367 138.779785,116.276367 C139.410322,116.276367 139.904376,116.035159 140.261963,115.552734 C140.619549,115.07031 140.79834,114.399581 140.79834,113.540527 C140.79834,112.816891 140.631187,112.249839 140.296875,111.839355 C139.962563,111.428872 139.509768,111.223633 138.938477,111.223633 C138.33333,111.223633 137.846682,111.434161 137.478516,111.855225 C137.11035,112.276288 136.92627,112.804196 136.92627,113.438965 Z M143.134277,116.765137 L143.134277,115.647949 C143.701337,116.066897 144.325517,116.276367 145.006836,116.276367 C145.920903,116.276367 146.37793,115.971683 146.37793,115.362305 C146.37793,115.188801 146.338786,115.041749 146.260498,114.921143 C146.18221,114.800537 146.076417,114.693685 145.943115,114.600586 C145.809814,114.507487 145.65324,114.42391 145.473389,114.349854 C145.293538,114.275797 145.099936,114.198568 144.892578,114.118164 C144.604816,114.003906 144.35197,113.888591 144.134033,113.772217 C143.916096,113.655843 143.734132,113.524659 143.588135,113.378662 C143.442138,113.232665 143.332113,113.06657 143.258057,112.880371 C143.184,112.694172 143.146973,112.476238 143.146973,112.226562 C143.146973,111.921873 143.216796,111.652101 143.356445,111.417236 C143.496094,111.182372 143.682291,110.985596 143.915039,110.826904 C144.147788,110.668212 144.413329,110.548666 144.71167,110.468262 C145.010011,110.387858 145.31787,110.347656 145.635254,110.347656 C146.198082,110.347656 146.701658,110.444986 147.145996,110.639648 L147.145996,111.693359 C146.667804,111.380207 146.117679,111.223633 145.495605,111.223633 C145.300943,111.223633 145.125326,111.245849 144.96875,111.290283 C144.812174,111.334717 144.677816,111.397135 144.565674,111.477539 C144.453531,111.557943 144.366781,111.654215 144.30542,111.766357 C144.244059,111.8785 144.213379,112.002278 144.213379,112.137695 C144.213379,112.306967 144.244059,112.44873 144.30542,112.562988 C144.366781,112.677247 144.456705,112.778808 144.575195,112.867676 C144.693685,112.956543 144.837564,113.036946 145.006836,113.108887 C145.176108,113.180827 145.368651,113.259114 145.584473,113.34375 C145.872235,113.453777 146.13037,113.566975 146.358887,113.68335 C146.587403,113.799724 146.782063,113.930907 146.942871,114.076904 C147.103679,114.222901 147.227457,114.391112 147.314209,114.581543 C147.400961,114.771974 147.444336,114.998371 147.444336,115.260742 C147.444336,115.582358 147.373454,115.861652 147.231689,116.098633 C147.089924,116.335613 146.900555,116.532389 146.663574,116.688965 C146.426594,116.845541 146.153647,116.961914 145.844727,117.038086 C145.535806,117.114258 145.212079,117.152344 144.873535,117.152344 C144.204912,117.152344 143.625165,117.023276 143.134277,116.765137 Z"/>
    <rect width="16" height="16" x="36" y="104" fill="#0060DF" rx="2"/>
    <path fill="#FFF" fill-rule="nonzero" d="M42.52,116.5 C42.2557846,116.499945 42.0023287,116.395327 41.815,116.209 L38.295,112.709 C38.0344321,112.45864 37.9292001,112.08718 38.0197394,111.737354 C38.1102786,111.387527 38.3825034,111.113758 38.731812,111.021241 C39.0811205,110.928724 39.4531696,111.031853 39.705,111.291 L42.517,114.091 L48.291,108.298 C48.6828367,107.918435 49.3065809,107.922955 49.6928758,108.308159 C50.0791707,108.693362 50.0854551,109.317091 49.707,109.71 L43.228,116.21 C43.0397717,116.396695 42.7851111,116.501005 42.52,116.5 Z"/>
  </g>
</svg>
