<svg xmlns="http://www.w3.org/2000/svg" xmlns:xlink="http://www.w3.org/1999/xlink" width="300" height="180" style="background:#f9f9fa" viewBox="0 0 300 180">
  <defs>
    <rect id="checkbox-disabled-a" width="14" height="14" x="73" y="91" rx="2"/>
  </defs>
  <g fill="none" fill-rule="evenodd" opacity=".4">
    <path fill="#000" d="M92.7680664,102.631836 L92.7680664,101.375 C92.9119473,101.501954 93.0843903,101.61621 93.2854004,101.717773 C93.4864105,101.819336 93.6979969,101.905029 93.920166,101.974854 C94.1423351,102.044678 94.3655588,102.098633 94.5898438,102.136719 C94.8141287,102.174805 95.0214834,102.193848 95.2119141,102.193848 C95.8678418,102.193848 96.3576644,102.072185 96.6813965,101.828857 C97.0051286,101.585529 97.1669922,101.235354 97.1669922,100.77832 C97.1669922,100.532876 97.1130376,100.319174 97.005127,100.137207 C96.8972163,99.95524 96.7480478,99.7891446 96.5576172,99.638916 C96.3671865,99.4886874 96.141847,99.3448086 95.8815918,99.2072754 C95.6213366,99.0697422 95.3409846,98.9248054 95.0405273,98.7724609 C94.7231429,98.6116528 94.4269219,98.4487313 94.1518555,98.2836914 C93.876789,98.1186515 93.6376963,97.9366872 93.4345703,97.737793 C93.2314443,97.5388987 93.0716965,97.3135592 92.9553223,97.0617676 C92.838948,96.809976 92.7807617,96.5148129 92.7807617,96.1762695 C92.7807617,95.7615539 92.8717439,95.4007991 93.0537109,95.0939941 C93.235678,94.7871892 93.4747707,94.5343434 93.7709961,94.3354492 C94.0672215,94.136555 94.4047019,93.9884445 94.7834473,93.8911133 C95.1621926,93.7937821 95.5483379,93.7451172 95.9418945,93.7451172 C96.8390344,93.7451172 97.4928365,93.8530263 97.9033203,94.0688477 L97.9033203,95.2685547 C97.3658827,94.896157 96.676111,94.7099609 95.8339844,94.7099609 C95.6012358,94.7099609 95.3684907,94.7342934 95.1357422,94.782959 C94.9029936,94.8316246 94.6956389,94.9109695 94.5136719,95.0209961 C94.3317048,95.1310227 94.1835943,95.2727856 94.0693359,95.4462891 C93.9550776,95.6197925 93.8979492,95.831379 93.8979492,96.0810547 C93.8979492,96.3138032 93.9413244,96.5148104 94.0280762,96.684082 C94.1148279,96.8533537 94.2428377,97.0078118 94.4121094,97.1474609 C94.5813811,97.2871101 94.7876778,97.4225254 95.0310059,97.5537109 C95.2743339,97.6848965 95.5546859,97.8287753 95.8720703,97.9853516 C96.1979183,98.1461597 96.5068345,98.3154288 96.7988281,98.4931641 C97.0908218,98.6708993 97.3468413,98.8676747 97.5668945,99.0834961 C97.7869477,99.2993175 97.9615065,99.5384101 98.0905762,99.8007812 C98.2196458,100.063152 98.2841797,100.363605 98.2841797,100.702148 C98.2841797,101.150718 98.1963713,101.530516 98.020752,101.841553 C97.8451326,102.152589 97.6081558,102.405435 97.3098145,102.600098 C97.0114731,102.79476 96.6676452,102.935465 96.2783203,103.022217 C95.8889954,103.108969 95.4785178,103.152344 95.046875,103.152344 C94.9029941,103.152344 94.7252615,103.140706 94.5136719,103.117432 C94.3020823,103.094157 94.0862641,103.060303 93.8662109,103.015869 C93.6461578,102.971435 93.4377451,102.916423 93.2409668,102.85083 C93.0441885,102.785237 92.8865566,102.71224 92.7680664,102.631836 Z M105.355469,103 L104.314453,103 L104.314453,99.2548828 C104.314453,97.9007094 103.810877,97.2236328 102.803711,97.2236328 C102.295896,97.2236328 101.868491,97.4193503 101.521484,97.810791 C101.174477,98.2022318 101.000977,98.7047495 101.000977,99.3183594 L101.000977,103 L99.9599609,103 L99.9599609,93.3769531 L101.000977,93.3769531 L101.000977,97.5791016 L101.026367,97.5791016 C101.525719,96.7581339 102.236649,96.3476562 103.15918,96.3476562 C104.62338,96.3476562 105.355469,97.2299716 105.355469,98.9946289 L105.355469,103 Z M110.033691,103.152344 C109.073075,103.152344 108.306074,102.848717 107.732666,102.241455 C107.159258,101.634193 106.872559,100.829107 106.872559,99.8261719 C106.872559,98.7343695 107.170895,97.8816762 107.767578,97.2680664 C108.364261,96.6544566 109.170405,96.3476562 110.186035,96.3476562 C111.155116,96.3476562 111.911537,96.6459931 112.455322,97.2426758 C112.999108,97.8393585 113.270996,98.6666614 113.270996,99.7246094 C113.270996,100.761398 112.977949,101.591875 112.391846,102.216064 C111.805743,102.840254 111.019699,103.152344 110.033691,103.152344 Z M110.109863,97.2236328 C109.44124,97.2236328 108.912274,97.4510882 108.522949,97.9060059 C108.133624,98.3609235 107.938965,98.9882773 107.938965,99.7880859 C107.938965,100.558272 108.13574,101.165525 108.529297,101.609863 C108.922854,102.054201 109.449704,102.276367 110.109863,102.276367 C110.782718,102.276367 111.300047,102.058433 111.661865,101.622559 C112.023683,101.186684 112.20459,100.566736 112.20459,99.7626953 C112.20459,98.9501913 112.023683,98.3238954 111.661865,97.8837891 C111.300047,97.4436827 110.782718,97.2236328 110.109863,97.2236328 Z M123.122559,96.5 L121.173828,103 L120.094727,103 L118.755371,98.347168 C118.70459,98.1694327 118.670736,97.9684256 118.653809,97.7441406 L118.628418,97.7441406 C118.615723,97.8964851 118.571289,98.0932605 118.495117,98.3344727 L117.041504,103 L116.000488,103 L114.032715,96.5 L115.124512,96.5 L116.470215,101.387695 C116.512533,101.535808 116.542155,101.730468 116.559082,101.97168 L116.609863,101.97168 C116.622559,101.785481 116.660644,101.58659 116.724121,101.375 L118.222168,96.5 L119.174316,96.5 L120.52002,101.400391 C120.562337,101.556967 120.594075,101.751626 120.615234,101.984375 L120.666016,101.984375 C120.674479,101.819335 120.710449,101.624676 120.773926,101.400391 L122.094238,96.5 L123.122559,96.5 Z M128.956055,102.060547 L128.930664,102.060547 L128.930664,103 L127.889648,103 L127.889648,93.3769531 L128.930664,93.3769531 L128.930664,97.6425781 L128.956055,97.6425781 C129.468102,96.7792926 130.217117,96.3476562 131.203125,96.3476562 C132.036788,96.3476562 132.689532,96.6385876 133.161377,97.220459 C133.633222,97.8023304 133.869141,98.5820264 133.869141,99.5595703 C133.869141,100.647141 133.604658,101.517819 133.075684,102.171631 C132.54671,102.825443 131.823084,103.152344 130.904785,103.152344 C130.045731,103.152344 129.396161,102.788415 128.956055,102.060547 Z M128.930664,99.4389648 L128.930664,100.34668 C128.930664,100.884117 129.105223,101.340086 129.454346,101.7146 C129.803469,102.089113 130.246742,102.276367 130.78418,102.276367 C131.414717,102.276367 131.908771,102.035159 132.266357,101.552734 C132.623944,101.07031 132.802734,100.399581 132.802734,99.5405273 C132.802734,98.8168909 132.635581,98.2498393 132.30127,97.8393555 C131.966958,97.4288716 131.514163,97.2236328 130.942871,97.2236328 C130.337725,97.2236328 129.851076,97.4341613 129.48291,97.8552246 C129.114744,98.2762879 128.930664,98.804196 128.930664,99.4389648 Z M138.249023,103.152344 C137.288407,103.152344 136.521406,102.848717 135.947998,102.241455 C135.37459,101.634193 135.087891,100.829107 135.087891,99.8261719 C135.087891,98.7343695 135.386227,97.8816762 135.98291,97.2680664 C136.579593,96.6544566 137.385737,96.3476562 138.401367,96.3476562 C139.370448,96.3476562 140.126869,96.6459931 140.670654,97.2426758 C141.21444,97.8393585 141.486328,98.6666614 141.486328,99.7246094 C141.486328,100.761398 141.193281,101.591875 140.607178,102.216064 C140.021075,102.840254 139.235031,103.152344 138.249023,103.152344 Z M138.325195,97.2236328 C137.656572,97.2236328 137.127606,97.4510882 136.738281,97.9060059 C136.348956,98.3609235 136.154297,98.9882773 136.154297,99.7880859 C136.154297,100.558272 136.351072,101.165525 136.744629,101.609863 C137.138186,102.054201 137.665036,102.276367 138.325195,102.276367 C138.99805,102.276367 139.515379,102.058433 139.877197,101.622559 C140.239015,101.186684 140.419922,100.566736 140.419922,99.7626953 C140.419922,98.9501913 140.239015,98.3238954 139.877197,97.8837891 C139.515379,97.4436827 138.99805,97.2236328 138.325195,97.2236328 Z M145.866211,103.152344 C144.905594,103.152344 144.138593,102.848717 143.565186,102.241455 C142.991778,101.634193 142.705078,100.829107 142.705078,99.8261719 C142.705078,98.7343695 143.003415,97.8816762 143.600098,97.2680664 C144.19678,96.6544566 145.002925,96.3476562 146.018555,96.3476562 C146.987635,96.3476562 147.744057,96.6459931 148.287842,97.2426758 C148.831627,97.8393585 149.103516,98.6666614 149.103516,99.7246094 C149.103516,100.761398 148.810468,101.591875 148.224365,102.216064 C147.638262,102.840254 146.852218,103.152344 145.866211,103.152344 Z M145.942383,97.2236328 C145.27376,97.2236328 144.744794,97.4510882 144.355469,97.9060059 C143.966144,98.3609235 143.771484,98.9882773 143.771484,99.7880859 C143.771484,100.558272 143.96826,101.165525 144.361816,101.609863 C144.755373,102.054201 145.282223,102.276367 145.942383,102.276367 C146.615238,102.276367 147.132567,102.058433 147.494385,101.622559 C147.856203,101.186684 148.037109,100.566736 148.037109,99.7626953 C148.037109,98.9501913 147.856203,98.3238954 147.494385,97.8837891 C147.132567,97.4436827 146.615238,97.2236328 145.942383,97.2236328 Z M156.162109,103 L154.702148,103 L151.833008,99.8769531 L151.807617,99.8769531 L151.807617,103 L150.766602,103 L150.766602,93.3769531 L151.807617,93.3769531 L151.807617,99.4770508 L151.833008,99.4770508 L154.5625,96.5 L155.927246,96.5 L152.912109,99.6357422 L156.162109,103 Z M166.458008,103 L165.416992,103 L165.416992,99.2675781 C165.416992,98.5481735 165.305909,98.0276709 165.08374,97.7060547 C164.861571,97.3844385 164.488121,97.2236328 163.963379,97.2236328 C163.519041,97.2236328 163.141359,97.4267558 162.830322,97.8330078 C162.519286,98.2392598 162.36377,98.7259086 162.36377,99.2929688 L162.36377,103 L161.322754,103 L161.322754,99.140625 C161.322754,97.8626238 160.829758,97.2236328 159.84375,97.2236328 C159.386716,97.2236328 159.010093,97.4151185 158.713867,97.7980957 C158.417642,98.1810729 158.269531,98.6793589 158.269531,99.2929688 L158.269531,103 L157.228516,103 L157.228516,96.5 L158.269531,96.5 L158.269531,97.5283203 L158.294922,97.5283203 C158.756187,96.741207 159.429032,96.3476562 160.313477,96.3476562 C160.757815,96.3476562 161.145018,96.4714343 161.475098,96.7189941 C161.805177,96.966554 162.031575,97.2913391 162.154297,97.6933594 C162.636721,96.7962195 163.356115,96.3476562 164.3125,96.3476562 C165.742846,96.3476562 166.458008,97.2299716 166.458008,98.9946289 L166.458008,103 Z M173.078613,103 L172.037598,103 L172.037598,101.984375 L172.012207,101.984375 C171.559405,102.763025 170.892908,103.152344 170.012695,103.152344 C169.365231,103.152344 168.858482,102.980959 168.492432,102.638184 C168.126382,102.295408 167.943359,101.840498 167.943359,101.273438 C167.943359,100.058913 168.658521,99.3522145 170.088867,99.1533203 L172.037598,98.8803711 C172.037598,97.7758734 171.59115,97.2236328 170.698242,97.2236328 C169.915361,97.2236328 169.208662,97.4902317 168.578125,98.0234375 L168.578125,96.9570312 C169.217126,96.5507792 169.953446,96.3476562 170.787109,96.3476562 C172.314786,96.3476562 173.078613,97.1559164 173.078613,98.7724609 L173.078613,103 Z M172.037598,99.7119141 L170.469727,99.9277344 C169.987302,99.995443 169.623374,100.114989 169.37793,100.286377 C169.132486,100.457765 169.009766,100.761391 169.009766,101.197266 C169.009766,101.51465 169.122964,101.773843 169.349365,101.974854 C169.575766,102.175864 169.877277,102.276367 170.253906,102.276367 C170.770185,102.276367 171.196532,102.095461 171.532959,101.733643 C171.869386,101.371824 172.037598,100.91374 172.037598,100.359375 L172.037598,99.7119141 Z M178.429688,97.5537109 C178.24772,97.4140618 177.985353,97.3442383 177.642578,97.3442383 C177.19824,97.3442383 176.826906,97.5537088 176.528564,97.9726562 C176.230223,98.3916037 176.081055,98.962887 176.081055,99.6865234 L176.081055,103 L175.040039,103 L175.040039,96.5 L176.081055,96.5 L176.081055,97.8393555 L176.106445,97.8393555 C176.254558,97.3823219 176.480956,97.0257988 176.785645,96.7697754 C177.090334,96.513752 177.430988,96.3857422 177.807617,96.3857422 C178.078452,96.3857422 178.285807,96.4153643 178.429688,96.4746094 L178.429688,97.5537109 Z M184.955078,103 L183.495117,103 L180.625977,99.8769531 L180.600586,99.8769531 L180.600586,103 L179.55957,103 L179.55957,93.3769531 L180.600586,93.3769531 L180.600586,99.4770508 L180.625977,99.4770508 L183.355469,96.5 L184.720215,96.5 L181.705078,99.6357422 L184.955078,103 Z M185.62793,102.765137 L185.62793,101.647949 C186.19499,102.066897 186.81917,102.276367 187.500488,102.276367 C188.414555,102.276367 188.871582,101.971683 188.871582,101.362305 C188.871582,101.188801 188.832439,101.041749 188.75415,100.921143 C188.675862,100.800537 188.570069,100.693685 188.436768,100.600586 C188.303466,100.507487 188.146892,100.42391 187.967041,100.349854 C187.78719,100.275797 187.593588,100.198568 187.38623,100.118164 C187.098469,100.003906 186.845623,99.8885911 186.627686,99.7722168 C186.409748,99.6558425 186.227784,99.5246589 186.081787,99.3786621 C185.93579,99.2326653 185.825765,99.0665699 185.751709,98.8803711 C185.677653,98.6941722 185.640625,98.4762382 185.640625,98.2265625 C185.640625,97.9218735 185.710449,97.6521008 185.850098,97.4172363 C185.989747,97.1823719 186.175943,96.9855965 186.408691,96.8269043 C186.64144,96.6682121 186.906981,96.5486658 187.205322,96.4682617 C187.503664,96.3878577 187.811522,96.3476562 188.128906,96.3476562 C188.691735,96.3476562 189.19531,96.444986 189.639648,96.6396484 L189.639648,97.6933594 C189.161456,97.3802068 188.611331,97.2236328 187.989258,97.2236328 C187.794595,97.2236328 187.618979,97.2458494 187.462402,97.2902832 C187.305826,97.334717 187.171469,97.397135 187.059326,97.4775391 C186.947184,97.5579431 186.860433,97.6542149 186.799072,97.7663574 C186.737711,97.8784999 186.707031,98.002278 186.707031,98.1376953 C186.707031,98.306967 186.737711,98.4487299 186.799072,98.5629883 C186.860433,98.6772467 186.950357,98.7788081 187.068848,98.8676758 C187.187338,98.9565434 187.331217,99.0369463 187.500488,99.1088867 C187.66976,99.1808272 187.862304,99.2591142 188.078125,99.34375 C188.365887,99.4537766 188.624022,99.5669753 188.852539,99.6833496 C189.081056,99.7997239 189.275715,99.9309075 189.436523,100.076904 C189.597332,100.222901 189.72111,100.391112 189.807861,100.581543 C189.894613,100.771974 189.937988,100.998371 189.937988,101.260742 C189.937988,101.582358 189.867107,101.861652 189.725342,102.098633 C189.583577,102.335613 189.394207,102.532389 189.157227,102.688965 C188.920246,102.845541 188.6473,102.961914 188.338379,103.038086 C188.029458,103.114258 187.705731,103.152344 187.367188,103.152344 C186.698564,103.152344 186.118818,103.023276 185.62793,102.765137 Z"/>
    <use fill="#0C0C0D" fill-opacity=".1" xlink:href="#checkbox-disabled-a"/>
    <rect width="19" height="19" x="70.5" y="88.5" rx="2"/>
    <rect width="15" height="15" x="72.5" y="90.5" stroke="#0C0C0D" stroke-opacity=".3" rx="2"/>
    <path fill="#000" d="M92.7680664,78.6318359 L92.7680664,77.375 C92.9119473,77.5019538 93.0843903,77.6162104 93.2854004,77.7177734 C93.4864105,77.8193364 93.6979969,77.9050289 93.920166,77.9748535 C94.1423351,78.0446781 94.3655588,78.0986326 94.5898438,78.1367188 C94.8141287,78.1748049 95.0214834,78.1938477 95.2119141,78.1938477 C95.8678418,78.1938477 96.3576644,78.0721855 96.6813965,77.8288574 C97.0051286,77.5855294 97.1669922,77.2353538 97.1669922,76.7783203 C97.1669922,76.5328764 97.1130376,76.3191741 97.005127,76.137207 C96.8972163,75.95524 96.7480478,75.7891446 96.5576172,75.638916 C96.3671865,75.4886874 96.141847,75.3448086 95.8815918,75.2072754 C95.6213366,75.0697422 95.3409846,74.9248054 95.0405273,74.7724609 C94.7231429,74.6116528 94.4269219,74.4487313 94.1518555,74.2836914 C93.876789,74.1186515 93.6376963,73.9366872 93.4345703,73.737793 C93.2314443,73.5388987 93.0716965,73.3135592 92.9553223,73.0617676 C92.838948,72.809976 92.7807617,72.5148129 92.7807617,72.1762695 C92.7807617,71.7615539 92.8717439,71.4007991 93.0537109,71.0939941 C93.235678,70.7871892 93.4747707,70.5343434 93.7709961,70.3354492 C94.0672215,70.136555 94.4047019,69.9884445 94.7834473,69.8911133 C95.1621926,69.7937821 95.5483379,69.7451172 95.9418945,69.7451172 C96.8390344,69.7451172 97.4928365,69.8530263 97.9033203,70.0688477 L97.9033203,71.2685547 C97.3658827,70.896157 96.676111,70.7099609 95.8339844,70.7099609 C95.6012358,70.7099609 95.3684907,70.7342934 95.1357422,70.782959 C94.9029936,70.8316246 94.6956389,70.9109695 94.5136719,71.0209961 C94.3317048,71.1310227 94.1835943,71.2727856 94.0693359,71.4462891 C93.9550776,71.6197925 93.8979492,71.831379 93.8979492,72.0810547 C93.8979492,72.3138032 93.9413244,72.5148104 94.0280762,72.684082 C94.1148279,72.8533537 94.2428377,73.0078118 94.4121094,73.1474609 C94.5813811,73.2871101 94.7876778,73.4225254 95.0310059,73.5537109 C95.2743339,73.6848965 95.5546859,73.8287753 95.8720703,73.9853516 C96.1979183,74.1461597 96.5068345,74.3154288 96.7988281,74.4931641 C97.0908218,74.6708993 97.3468413,74.8676747 97.5668945,75.0834961 C97.7869477,75.2993175 97.9615065,75.5384101 98.0905762,75.8007812 C98.2196458,76.0631524 98.2841797,76.3636051 98.2841797,76.7021484 C98.2841797,77.1507184 98.1963713,77.530516 98.020752,77.8415527 C97.8451326,78.1525894 97.6081558,78.4054352 97.3098145,78.6000977 C97.0114731,78.7947601 96.6676452,78.9354651 96.2783203,79.0222168 C95.8889954,79.1089685 95.4785178,79.1523438 95.046875,79.1523438 C94.9029941,79.1523438 94.7252615,79.1407065 94.5136719,79.1174316 C94.3020823,79.0941568 94.0862641,79.060303 93.8662109,79.0158691 C93.6461578,78.9714353 93.4377451,78.9164229 93.2409668,78.8508301 C93.0441885,78.7852373 92.8865566,78.71224 92.7680664,78.6318359 Z M105.355469,79 L104.314453,79 L104.314453,75.2548828 C104.314453,73.9007094 103.810877,73.2236328 102.803711,73.2236328 C102.295896,73.2236328 101.868491,73.4193503 101.521484,73.810791 C101.174477,74.2022318 101.000977,74.7047495 101.000977,75.3183594 L101.000977,79 L99.9599609,79 L99.9599609,69.3769531 L101.000977,69.3769531 L101.000977,73.5791016 L101.026367,73.5791016 C101.525719,72.7581339 102.236649,72.3476562 103.15918,72.3476562 C104.62338,72.3476562 105.355469,73.2299716 105.355469,74.9946289 L105.355469,79 Z M110.033691,79.1523438 C109.073075,79.1523438 108.306074,78.8487172 107.732666,78.2414551 C107.159258,77.6341929 106.872559,76.8291066 106.872559,75.8261719 C106.872559,74.7343695 107.170895,73.8816762 107.767578,73.2680664 C108.364261,72.6544566 109.170405,72.3476562 110.186035,72.3476562 C111.155116,72.3476562 111.911537,72.6459931 112.455322,73.2426758 C112.999108,73.8393585 113.270996,74.6666614 113.270996,75.7246094 C113.270996,76.7613984 112.977949,77.5918751 112.391846,78.2160645 C111.805743,78.8402538 111.019699,79.1523438 110.033691,79.1523438 Z M110.109863,73.2236328 C109.44124,73.2236328 108.912274,73.4510882 108.522949,73.9060059 C108.133624,74.3609235 107.938965,74.9882773 107.938965,75.7880859 C107.938965,76.5582721 108.13574,77.1655251 108.529297,77.6098633 C108.922854,78.0542014 109.449704,78.2763672 110.109863,78.2763672 C110.782718,78.2763672 111.300047,78.0584332 111.661865,77.6225586 C112.023683,77.186684 112.20459,76.5667358 112.20459,75.7626953 C112.20459,74.9501913 112.023683,74.3238954 111.661865,73.8837891 C111.300047,73.4436827 110.782718,73.2236328 110.109863,73.2236328 Z M123.122559,72.5 L121.173828,79 L120.094727,79 L118.755371,74.347168 C118.70459,74.1694327 118.670736,73.9684256 118.653809,73.7441406 L118.628418,73.7441406 C118.615723,73.8964851 118.571289,74.0932605 118.495117,74.3344727 L117.041504,79 L116.000488,79 L114.032715,72.5 L115.124512,72.5 L116.470215,77.3876953 C116.512533,77.535808 116.542155,77.7304675 116.559082,77.9716797 L116.609863,77.9716797 C116.622559,77.7854808 116.660644,77.5865896 116.724121,77.375 L118.222168,72.5 L119.174316,72.5 L120.52002,77.4003906 C120.562337,77.5569669 120.594075,77.7516264 120.615234,77.984375 L120.666016,77.984375 C120.674479,77.8193351 120.710449,77.6246756 120.773926,77.4003906 L122.094238,72.5 L123.122559,72.5 Z M128.956055,78.0605469 L128.930664,78.0605469 L128.930664,79 L127.889648,79 L127.889648,69.3769531 L128.930664,69.3769531 L128.930664,73.6425781 L128.956055,73.6425781 C129.468102,72.7792926 130.217117,72.3476562 131.203125,72.3476562 C132.036788,72.3476562 132.689532,72.6385876 133.161377,73.220459 C133.633222,73.8023304 133.869141,74.5820264 133.869141,75.5595703 C133.869141,76.6471409 133.604658,77.517819 133.075684,78.1716309 C132.54671,78.8254427 131.823084,79.1523438 130.904785,79.1523438 C130.045731,79.1523438 129.396161,78.7884151 128.956055,78.0605469 Z M128.930664,75.4389648 L128.930664,76.3466797 C128.930664,76.8841173 129.105223,77.340086 129.454346,77.7145996 C129.803469,78.0891132 130.246742,78.2763672 130.78418,78.2763672 C131.414717,78.2763672 131.908771,78.0351587 132.266357,77.5527344 C132.623944,77.0703101 132.802734,76.3995811 132.802734,75.5405273 C132.802734,74.8168909 132.635581,74.2498393 132.30127,73.8393555 C131.966958,73.4288716 131.514163,73.2236328 130.942871,73.2236328 C130.337725,73.2236328 129.851076,73.4341613 129.48291,73.8552246 C129.114744,74.2762879 128.930664,74.804196 128.930664,75.4389648 Z M138.921875,73.5537109 C138.739908,73.4140618 138.477541,73.3442383 138.134766,73.3442383 C137.690427,73.3442383 137.319093,73.5537088 137.020752,73.9726562 C136.722411,74.3916037 136.573242,74.962887 136.573242,75.6865234 L136.573242,79 L135.532227,79 L135.532227,72.5 L136.573242,72.5 L136.573242,73.8393555 L136.598633,73.8393555 C136.746746,73.3823219 136.973143,73.0257988 137.277832,72.7697754 C137.582521,72.513752 137.923175,72.3857422 138.299805,72.3857422 C138.570639,72.3857422 138.777994,72.4153643 138.921875,72.4746094 L138.921875,73.5537109 Z M142.768555,79.1523438 C141.807938,79.1523438 141.040937,78.8487172 140.467529,78.2414551 C139.894121,77.6341929 139.607422,76.8291066 139.607422,75.8261719 C139.607422,74.7343695 139.905759,73.8816762 140.502441,73.2680664 C141.099124,72.6544566 141.905268,72.3476562 142.920898,72.3476562 C143.889979,72.3476562 144.6464,72.6459931 145.190186,73.2426758 C145.733971,73.8393585 146.005859,74.6666614 146.005859,75.7246094 C146.005859,76.7613984 145.712812,77.5918751 145.126709,78.2160645 C144.540606,78.8402538 143.754562,79.1523438 142.768555,79.1523438 Z M142.844727,73.2236328 C142.176103,73.2236328 141.647137,73.4510882 141.257812,73.9060059 C140.868488,74.3609235 140.673828,74.9882773 140.673828,75.7880859 C140.673828,76.5582721 140.870604,77.1655251 141.26416,77.6098633 C141.657717,78.0542014 142.184567,78.2763672 142.844727,78.2763672 C143.517581,78.2763672 144.03491,78.0584332 144.396729,77.6225586 C144.758547,77.186684 144.939453,76.5667358 144.939453,75.7626953 C144.939453,74.9501913 144.758547,74.3238954 144.396729,73.8837891 C144.03491,73.4436827 143.517581,73.2236328 142.844727,73.2236328 Z M155.857422,72.5 L153.908691,79 L152.82959,79 L151.490234,74.347168 C151.439453,74.1694327 151.405599,73.9684256 151.388672,73.7441406 L151.363281,73.7441406 C151.350586,73.8964851 151.306153,74.0932605 151.22998,74.3344727 L149.776367,79 L148.735352,79 L146.767578,72.5 L147.859375,72.5 L149.205078,77.3876953 C149.247396,77.535808 149.277018,77.7304675 149.293945,77.9716797 L149.344727,77.9716797 C149.357422,77.7854808 149.395507,77.5865896 149.458984,77.375 L150.957031,72.5 L151.90918,72.5 L153.254883,77.4003906 C153.297201,77.5569669 153.328939,77.7516264 153.350098,77.984375 L153.400879,77.984375 C153.409342,77.8193351 153.445312,77.6246756 153.508789,77.4003906 L154.829102,72.5 L155.857422,72.5 Z M156.669922,78.7651367 L156.669922,77.6479492 C157.236982,78.0668966 157.861162,78.2763672 158.54248,78.2763672 C159.456548,78.2763672 159.913574,77.9716827 159.913574,77.3623047 C159.913574,77.1888012 159.874431,77.0417486 159.796143,76.9211426 C159.717854,76.8005365 159.612061,76.6936854 159.47876,76.6005859 C159.345458,76.5074865 159.188884,76.4239099 159.009033,76.3498535 C158.829182,76.2757972 158.63558,76.1985681 158.428223,76.1181641 C158.140461,76.0039057 157.887615,75.8885911 157.669678,75.7722168 C157.45174,75.6558425 157.269776,75.5246589 157.123779,75.3786621 C156.977782,75.2326653 156.867758,75.0665699 156.793701,74.8803711 C156.719645,74.6941722 156.682617,74.4762382 156.682617,74.2265625 C156.682617,73.9218735 156.752441,73.6521008 156.89209,73.4172363 C157.031739,73.1823719 157.217935,72.9855965 157.450684,72.8269043 C157.683432,72.6682121 157.948973,72.5486658 158.247314,72.4682617 C158.545656,72.3878577 158.853514,72.3476562 159.170898,72.3476562 C159.733727,72.3476562 160.237302,72.444986 160.681641,72.6396484 L160.681641,73.6933594 C160.203448,73.3802068 159.653323,73.2236328 159.03125,73.2236328 C158.836588,73.2236328 158.660971,73.2458494 158.504395,73.2902832 C158.347818,73.334717 158.213461,73.397135 158.101318,73.4775391 C157.989176,73.5579431 157.902425,73.6542149 157.841064,73.7663574 C157.779703,73.8784999 157.749023,74.002278 157.749023,74.1376953 C157.749023,74.306967 157.779703,74.4487299 157.841064,74.5629883 C157.902425,74.6772467 157.99235,74.7788081 158.11084,74.8676758 C158.22933,74.9565434 158.373209,75.0369463 158.54248,75.1088867 C158.711752,75.1808272 158.904296,75.2591142 159.120117,75.34375 C159.407879,75.4537766 159.666014,75.5669753 159.894531,75.6833496 C160.123048,75.7997239 160.317708,75.9309075 160.478516,76.0769043 C160.639324,76.2229011 160.763102,76.3911123 160.849854,76.581543 C160.936605,76.7719736 160.97998,76.9983711 160.97998,77.2607422 C160.97998,77.5823584 160.909099,77.8616525 160.767334,78.0986328 C160.625569,78.3356132 160.436199,78.5323885 160.199219,78.6889648 C159.962238,78.8455411 159.689292,78.9619137 159.380371,79.0380859 C159.07145,79.1142582 158.747723,79.1523438 158.40918,79.1523438 C157.740557,79.1523438 157.16081,79.023276 156.669922,78.7651367 Z M163.112793,70.8496094 C162.926594,70.8496094 162.767904,70.7861334 162.636719,70.6591797 C162.505533,70.5322259 162.439941,70.3714202 162.439941,70.1767578 C162.439941,69.9820954 162.505533,69.8202318 162.636719,69.6911621 C162.767904,69.5620925 162.926594,69.4975586 163.112793,69.4975586 C163.303224,69.4975586 163.465087,69.5620925 163.598389,69.6911621 C163.73169,69.8202318 163.79834,69.9820954 163.79834,70.1767578 C163.79834,70.3629567 163.73169,70.5216465 163.598389,70.652832 C163.465087,70.7840176 163.303224,70.8496094 163.112793,70.8496094 Z M163.620605,79 L162.57959,79 L162.57959,72.5 L163.620605,72.5 L163.620605,79 Z M171.123535,79 L170.08252,79 L170.08252,75.2929688 C170.08252,73.9134046 169.578944,73.2236328 168.571777,73.2236328 C168.051267,73.2236328 167.620689,73.4193503 167.280029,73.810791 C166.93937,74.2022318 166.769043,74.6962861 166.769043,75.2929688 L166.769043,79 L165.728027,79 L165.728027,72.5 L166.769043,72.5 L166.769043,73.5791016 L166.794434,73.5791016 C167.285321,72.7581339 167.996252,72.3476562 168.927246,72.3476562 C169.638187,72.3476562 170.181964,72.5772275 170.558594,73.036377 C170.935223,73.4955264 171.123535,74.1588498 171.123535,75.0263672 L171.123535,79 Z M178.632812,78.4794922 C178.632812,80.8662229 177.490246,82.0595703 175.205078,82.0595703 C174.401038,82.0595703 173.698571,81.9072281 173.097656,81.6025391 L173.097656,80.5615234 C173.829756,80.9677755 174.527991,81.1708984 175.192383,81.1708984 C176.792,81.1708984 177.591797,80.320321 177.591797,78.6191406 L177.591797,77.9082031 L177.566406,77.9082031 C177.071287,78.7376344 176.326502,79.1523438 175.332031,79.1523438 C174.523759,79.1523438 173.873131,78.8635283 173.380127,78.2858887 C172.887123,77.7082491 172.640625,76.9327848 172.640625,75.9594727 C172.640625,74.8549749 172.906166,73.9768913 173.437256,73.3251953 C173.968346,72.6734993 174.695145,72.3476562 175.617676,72.3476562 C176.493657,72.3476562 177.143227,72.6988897 177.566406,73.4013672 L177.591797,73.4013672 L177.591797,72.5 L178.632812,72.5 L178.632812,78.4794922 Z M177.591797,76.0610352 L177.591797,75.1025391 C177.591797,74.5862604 177.417238,74.1440448 177.068115,73.7758789 C176.718992,73.407713 176.284182,73.2236328 175.763672,73.2236328 C175.120439,73.2236328 174.616864,73.4574358 174.25293,73.9250488 C173.888996,74.3926618 173.707031,75.0475218 173.707031,75.8896484 C173.707031,76.6132849 173.88159,77.1919737 174.230713,77.6257324 C174.579836,78.0594911 175.042152,78.2763672 175.617676,78.2763672 C176.201663,78.2763672 176.676675,78.0690125 177.042725,77.6542969 C177.408775,77.2395813 177.591797,76.7084993 177.591797,76.0610352 Z M189.696777,79 L188.655762,79 L188.655762,75.2548828 C188.655762,73.9007094 188.152186,73.2236328 187.14502,73.2236328 C186.637204,73.2236328 186.2098,73.4193503 185.862793,73.810791 C185.515786,74.2022318 185.342285,74.7047495 185.342285,75.3183594 L185.342285,79 L184.30127,79 L184.30127,69.3769531 L185.342285,69.3769531 L185.342285,73.5791016 L185.367676,73.5791016 C185.867027,72.7581339 186.577958,72.3476562 187.500488,72.3476562 C188.964688,72.3476562 189.696777,73.2299716 189.696777,74.9946289 L189.696777,79 Z M192.191406,70.8496094 C192.005207,70.8496094 191.846518,70.7861334 191.715332,70.6591797 C191.584146,70.5322259 191.518555,70.3714202 191.518555,70.1767578 C191.518555,69.9820954 191.584146,69.8202318 191.715332,69.6911621 C191.846518,69.5620925 192.005207,69.4975586 192.191406,69.4975586 C192.381837,69.4975586 192.543701,69.5620925 192.677002,69.6911621 C192.810303,69.8202318 192.876953,69.9820954 192.876953,70.1767578 C192.876953,70.3629567 192.810303,70.5216465 192.677002,70.652832 C192.543701,70.7840176 192.381837,70.8496094 192.191406,70.8496094 Z M192.699219,79 L191.658203,79 L191.658203,72.5 L192.699219,72.5 L192.699219,79 Z M194.413086,78.7651367 L194.413086,77.6479492 C194.980146,78.0668966 195.604326,78.2763672 196.285645,78.2763672 C197.199712,78.2763672 197.656738,77.9716827 197.656738,77.3623047 C197.656738,77.1888012 197.617595,77.0417486 197.539307,76.9211426 C197.461018,76.8005365 197.355225,76.6936854 197.221924,76.6005859 C197.088622,76.5074865 196.932048,76.4239099 196.752197,76.3498535 C196.572346,76.2757972 196.378745,76.1985681 196.171387,76.1181641 C195.883625,76.0039057 195.630779,75.8885911 195.412842,75.7722168 C195.194905,75.6558425 195.01294,75.5246589 194.866943,75.3786621 C194.720947,75.2326653 194.610922,75.0665699 194.536865,74.8803711 C194.462809,74.6941722 194.425781,74.4762382 194.425781,74.2265625 C194.425781,73.9218735 194.495605,73.6521008 194.635254,73.4172363 C194.774903,73.1823719 194.961099,72.9855965 195.193848,72.8269043 C195.426596,72.6682121 195.692137,72.5486658 195.990479,72.4682617 C196.28882,72.3878577 196.596678,72.3476562 196.914062,72.3476562 C197.476891,72.3476562 197.980467,72.444986 198.424805,72.6396484 L198.424805,73.6933594 C197.946612,73.3802068 197.396487,73.2236328 196.774414,73.2236328 C196.579752,73.2236328 196.404135,73.2458494 196.247559,73.2902832 C196.090982,73.334717 195.956625,73.397135 195.844482,73.4775391 C195.73234,73.5579431 195.645589,73.6542149 195.584229,73.7663574 C195.522868,73.8784999 195.492188,74.002278 195.492188,74.1376953 C195.492188,74.306967 195.522868,74.4487299 195.584229,74.5629883 C195.645589,74.6772467 195.735514,74.7788081 195.854004,74.8676758 C195.972494,74.9565434 196.116373,75.0369463 196.285645,75.1088867 C196.454916,75.1808272 196.64746,75.2591142 196.863281,75.34375 C197.151043,75.4537766 197.409179,75.5669753 197.637695,75.6833496 C197.866212,75.7997239 198.060872,75.9309075 198.22168,76.0769043 C198.382488,76.2229011 198.506266,76.3911123 198.593018,76.581543 C198.679769,76.7719736 198.723145,76.9983711 198.723145,77.2607422 C198.723145,77.5823584 198.652263,77.8616525 198.510498,78.0986328 C198.368733,78.3356132 198.179363,78.5323885 197.942383,78.6889648 C197.705402,78.8455411 197.432456,78.9619137 197.123535,79.0380859 C196.814614,79.1142582 196.490887,79.1523438 196.152344,79.1523438 C195.483721,79.1523438 194.903974,79.023276 194.413086,78.7651367 Z M203.337891,78.9365234 C203.092447,79.0719408 202.768719,79.1396484 202.366699,79.1396484 C201.228347,79.1396484 200.65918,78.5048892 200.65918,77.2353516 L200.65918,73.3886719 L199.541992,73.3886719 L199.541992,72.5 L200.65918,72.5 L200.65918,70.9130859 L201.700195,70.5766602 L201.700195,72.5 L203.337891,72.5 L203.337891,73.3886719 L201.700195,73.3886719 L201.700195,77.0512695 C201.700195,77.4871441 201.774251,77.7981762 201.922363,77.984375 C202.070476,78.1705738 202.315916,78.2636719 202.658691,78.2636719 C202.921063,78.2636719 203.14746,78.1917325 203.337891,78.0478516 L203.337891,78.9365234 Z M207.444824,79.1523438 C206.484207,79.1523438 205.717207,78.8487172 205.143799,78.2414551 C204.570391,77.6341929 204.283691,76.8291066 204.283691,75.8261719 C204.283691,74.7343695 204.582028,73.8816762 205.178711,73.2680664 C205.775394,72.6544566 206.581538,72.3476562 207.597168,72.3476562 C208.566248,72.3476562 209.32267,72.6459931 209.866455,73.2426758 C210.41024,73.8393585 210.682129,74.6666614 210.682129,75.7246094 C210.682129,76.7613984 210.389082,77.5918751 209.802979,78.2160645 C209.216875,78.8402538 208.430832,79.1523438 207.444824,79.1523438 Z M207.520996,73.2236328 C206.852373,73.2236328 206.323407,73.4510882 205.934082,73.9060059 C205.544757,74.3609235 205.350098,74.9882773 205.350098,75.7880859 C205.350098,76.5582721 205.546873,77.1655251 205.94043,77.6098633 C206.333986,78.0542014 206.860837,78.2763672 207.520996,78.2763672 C208.193851,78.2763672 208.71118,78.0584332 209.072998,77.6225586 C209.434816,77.186684 209.615723,76.5667358 209.615723,75.7626953 C209.615723,74.9501913 209.434816,74.3238954 209.072998,73.8837891 C208.71118,73.4436827 208.193851,73.2236328 207.520996,73.2236328 Z M215.734863,73.5537109 C215.552896,73.4140618 215.290529,73.3442383 214.947754,73.3442383 C214.503416,73.3442383 214.132082,73.5537088 213.83374,73.9726562 C213.535399,74.3916037 213.38623,74.962887 213.38623,75.6865234 L213.38623,79 L212.345215,79 L212.345215,72.5 L213.38623,72.5 L213.38623,73.8393555 L213.411621,73.8393555 C213.559734,73.3823219 213.786131,73.0257988 214.09082,72.7697754 C214.395509,72.513752 214.736163,72.3857422 215.112793,72.3857422 C215.383628,72.3857422 215.590982,72.4153643 215.734863,72.4746094 L215.734863,73.5537109 Z M222.038086,72.5 L219.04834,80.0410156 C218.515134,81.3867255 217.766118,82.0595703 216.80127,82.0595703 C216.530435,82.0595703 216.304037,82.0320641 216.12207,81.9770508 L216.12207,81.0439453 C216.346355,81.1201176 216.551594,81.1582031 216.737793,81.1582031 C217.262535,81.1582031 217.656086,80.8450552 217.918457,80.21875 L218.438965,78.9873047 L215.899902,72.5 L217.055176,72.5 L218.813477,77.5019531 C218.834636,77.56543 218.879069,77.7304674 218.946777,77.9970703 L218.984863,77.9970703 C219.006022,77.8955073 219.04834,77.7347016 219.111816,77.5146484 L220.958984,72.5 L222.038086,72.5 Z"/>
    <rect width="16" height="16" x="72" y="66" fill="#0060DF" rx="2"/>
    <path fill="#FFF" fill-rule="nonzero" d="M78.52,78.5 C78.2557846,78.4999449 78.0023287,78.3953269 77.815,78.209 L74.295,74.709 C74.0344321,74.4586398 73.9292001,74.0871801 74.0197394,73.7373537 C74.1102786,73.3875273 74.3825034,73.113758 74.731812,73.021241 C75.0811205,72.928724 75.4531696,73.0318527 75.705,73.291 L78.517,76.091 L84.291,70.298 C84.6828367,69.918435 85.3065809,69.9229549 85.6928758,70.3081585 C86.0791707,70.6933622 86.0854551,71.3170911 85.707,71.71 L79.228,78.21 C79.0397717,78.3966949 78.7851111,78.5010051 78.52,78.5 Z"/>
  </g>
</svg>
