<svg xmlns="http://www.w3.org/2000/svg" xmlns:xlink="http://www.w3.org/1999/xlink" viewBox="0 0 360 183"><defs><rect id="a" width="360" height="183"/><rect id="c" width="1200" height="694"/><rect id="d" width="1200" height="612"/><rect id="f" width="150" height="30"/><rect id="g" width="20" height="20" rx="2"/><rect id="h" width="20" height="20" rx="2"/><rect id="i" width="20" height="20" rx="2"/><rect id="j" width="20" height="20" rx="2"/><rect id="k" width="150" height="30"/><rect id="l" width="20" height="20" rx="2"/><circle id="m" cx="10" cy="10" r="10"/><circle id="n" cx="10" cy="10" r="10"/><circle id="o" cx="10" cy="10" r="10"/><rect id="p" width="20" height="20" rx="2"/><rect id="q" width="184" height="30"/><rect id="r" width="184" height="30"/><rect id="s" width="20" height="20" rx="2"/><rect id="t" width="664" height="30"/><rect id="u" width="664" height="180" rx="2"/><circle id="v" cx="10" cy="10" r="10"/><circle id="w" cx="10" cy="10" r="10"/><rect id="x" width="392" height="30"/><rect id="y" width="150" height="30"/><rect id="z" width="20" height="20" rx="2"/><rect id="A" width="150" height="30"/><rect id="B" width="150" height="30"/><rect id="C" width="150" height="30"/><rect id="D" width="190" height="30"/><rect id="E" width="58" height="30"/><rect id="F" width="20" height="20" rx="2"/><rect id="G" width="20" height="20" rx="2"/><rect id="H" width="20" height="20" rx="2"/><rect id="I" width="528" height="30"/><rect id="J" width="20" height="20" rx="2"/><rect id="K" width="150" height="30"/><rect id="L" width="187" height="30"/><rect id="M" width="187" height="30"/><rect id="N" width="188" height="30"/><rect id="O" width="577" height="30"/><rect id="P" width="210" height="30"/><polygon id="Q" points="0 0 605 0 605 255 0 255"/><rect id="S" width="684" height="540"/><rect id="T" width="58" height="30"/></defs><g fill="none" fill-rule="evenodd"><mask id="b" fill="white"><use xlink:href="#a"/></mask><g mask="url(#b)"><g transform="translate(-743 -85)"><g><use fill="#FFFFFF" xlink:href="#c"/><rect width="1201" height="695" x="-.5" y="-.5" stroke="#0A75D3"/><g transform="translate(0 82)"><mask id="e" fill="white"><use xlink:href="#d"/></mask><use fill="#FAFAFC" xlink:href="#d"/><g mask="url(#e)"><g transform="translate(239 72)"><g transform="translate(28 2416)"><text fill="#0C0C0D" font-family="SegoeUI, Segoe UI" font-size="15"><tspan x="0" y="19">Configure how Firefox connects to the Internet</tspan></text><g transform="translate(514)"><use fill="#FFFFFF" xlink:href="#f"/><rect width="149" height="29" x=".5" y=".5" stroke="#0C0C0D" stroke-opacity=".3"/><text fill="#0C0C0D" font-family="SegoeUI, Segoe UI" font-size="15"><tspan x="43.47" y="20">Settings...</tspan></text></g></g><g transform="translate(0 2354)"><rect width="720" height="62"/><text fill="#0C0C0D" font-family="SegoeUI-Semilight, Segoe UI" font-size="22" font-weight="300"><tspan x="28" y="39">Network Proxy</tspan></text></g><g transform="translate(28 2193)"><text fill="#0C0C0D" font-family="SegoeUI, Segoe UI" font-size="15"><tspan x="28" y="16">Use autoscrolling</tspan></text><g transform="translate(0 2)"><use fill="#FFFFFF" xlink:href="#g"/><rect width="19" height="19" x=".5" y=".5" stroke="#0C0C0D" stroke-opacity=".3" rx="2"/><g fill="#0A84FF" fill-rule="nonzero" transform="translate(2 2)"><path d="M3.25 7.84a1 1 0 1 0-1.5 1.32l4 4.5a1 1 0 0 0 1.58-.1l7-10.5a1 1 0 1 0-1.66-1.11l-6.28 9.42-3.14-3.53z"/></g></g><g transform="translate(0 34)"><text fill="#0C0C0D" font-family="SegoeUI, Segoe UI" font-size="15"><tspan x="28" y="16">Use smooth scrolling</tspan></text><g transform="translate(0 2)"><use fill="#FFFFFF" xlink:href="#h"/><rect width="19" height="19" x=".5" y=".5" stroke="#0C0C0D" stroke-opacity=".3" rx="2"/><g fill="#0A84FF" fill-rule="nonzero" transform="translate(2 2)"><path d="M3.25 7.84a1 1 0 1 0-1.5 1.32l4 4.5a1 1 0 0 0 1.58-.1l7-10.5a1 1 0 1 0-1.66-1.11l-6.28 9.42-3.14-3.53z"/></g></g></g><g transform="translate(0 68)"><text fill="#0C0C0D" font-family="SegoeUI, Segoe UI" font-size="15"><tspan x="28" y="16">Always use the cursor keys to navigate within pages</tspan></text><g transform="translate(0 2)"><use fill="#FFFFFF" xlink:href="#i"/><rect width="19" height="19" x=".5" y=".5" stroke="#0C0C0D" stroke-opacity=".3" rx="2"/></g></g><g transform="translate(0 102)"><text fill="#0C0C0D" font-family="SegoeUI, Segoe UI" font-size="15"><tspan x="28" y="16">Saerch for text when you are typing</tspan></text><g transform="translate(0 2)"><use fill="#FFFFFF" xlink:href="#j"/><rect width="19" height="19" x=".5" y=".5" stroke="#0C0C0D" stroke-opacity=".3" rx="2"/><g fill="#0A84FF" fill-rule="nonzero" transform="translate(2 2)"><path d="M3.25 7.84a1 1 0 1 0-1.5 1.32l4 4.5a1 1 0 0 0 1.58-.1l7-10.5a1 1 0 1 0-1.66-1.11l-6.28 9.42-3.14-3.53z"/></g></g></g></g><g transform="translate(0 2128)"><rect width="720" height="62"/><text fill="#0C0C0D" font-family="SegoeUI-Semilight, Segoe UI" font-size="22" font-weight="300"><tspan x="28" y="39">Browsing</tspan></text></g><g transform="translate(28 2066)"><text fill="#0C0C0D" font-family="SegoeUI, Segoe UI" font-size="15"><tspan x="0" y="21">Tools for editing and debugging HTML, CSS, and JavaScript</tspan></text><g transform="translate(514)"><use fill="#FFFFFF" xlink:href="#k"/><rect width="149" height="29" x=".5" y=".5" stroke="#0C0C0D" stroke-opacity=".3"/><text fill="#0C0C0D" font-family="SegoeUI, Segoe UI" font-size="15"><tspan x="53" y="20">Enable</tspan></text></g><text fill="#0A8DFF" font-family="SegoeUI-SemiBold, Segoe UI" font-size="15" font-weight="500"><tspan x="401" y="20">Learn more</tspan></text></g><g transform="translate(0 2004)"><rect width="720" height="62"/><text fill="#0C0C0D" font-family="SegoeUI-Semilight, Segoe UI" font-size="22" font-weight="300"><tspan x="28" y="39">Developer Tools</tspan></text></g><g transform="translate(28 1914)"><g transform="translate(0 1)"><text fill="#0C0C0D" font-family="SegoeUI, Segoe UI" font-size="15"><tspan x="28" y="16">Use recommended performance settings</tspan></text><g transform="translate(0 2)"><use fill="#FFFFFF" xlink:href="#l"/><rect width="19" height="19" x=".5" y=".5" stroke="#0C0C0D" stroke-opacity=".3" rx="2"/><g fill="#0A84FF" fill-rule="nonzero" transform="translate(2 2)"><path d="M3.25 7.84a1 1 0 1 0-1.5 1.32l4 4.5a1 1 0 0 0 1.58-.1l7-10.5a1 1 0 1 0-1.66-1.11l-6.28 9.42-3.14-3.53z"/></g></g></g><text fill="#0A8DFF" font-family="SegoeUI-SemiBold, Segoe UI" font-size="15" font-weight="500"><tspan x="304" y="16">Learn more</tspan></text><text fill="#737373" font-family="SegoeUI, Segoe UI" font-size="13"><tspan x="28" y="42">These settings are tailored to your computer&apos;s hardware and operating system.</tspan></text></g><g transform="translate(0 1850)"><rect width="720" height="62"/><text fill="#0C0C0D" font-family="SegoeUI-Semilight, Segoe UI" font-size="22" font-weight="300"><tspan x="28" y="39">Performance</tspan></text></g><g transform="translate(28 1523)"><text fill="#0C0C0D" font-family="SegoeUI, Segoe UI" font-size="15"><tspan x="0" y="16">Keep Firefox up to date for the best performance, stability, and security. </tspan></text><text fill="#0C0C0D" font-family="SegoeUI, Segoe UI" font-size="15"><tspan x="0" y="151">Allow Firefox to</tspan></text><g transform="translate(0 168)"><text fill="#0C0C0D" font-family="SegoeUI, Segoe UI" font-size="15"><tspan x="28" y="16">Automatically install updates (recommended) </tspan></text><g transform="translate(0 2)"><use fill="#FFFFFF" xlink:href="#m"/><circle cx="10" cy="10" r="9.5" stroke="#0C0C0D" stroke-opacity=".3"/><circle cx="10" cy="10" r="6" fill="#0A84FF"/></g></g><g transform="translate(0 202)"><text fill="#0C0C0D" font-family="SegoeUI, Segoe UI" font-size="15"><tspan x="28" y="16">Check for updates but let you choose to install them</tspan></text><g transform="translate(0 2)"><use fill="#FFFFFF" xlink:href="#n"/><circle cx="10" cy="10" r="9.5" stroke="#0C0C0D" stroke-opacity=".3"/></g></g><g transform="translate(0 236)"><text fill="#0C0C0D" font-family="SegoeUI, Segoe UI" font-size="15"><tspan x="28" y="16">Never check for updates (not recommended)</tspan></text><g transform="translate(0 2)"><use fill="#FFFFFF" xlink:href="#o"/><circle cx="10" cy="10" r="9.5" stroke="#0C0C0D" stroke-opacity=".3"/></g></g><g transform="translate(0 270)"><text fill="#0C0C0D" font-family="SegoeUI, Segoe UI" font-size="15"><tspan x="28" y="16">Automatically update search engines </tspan></text><g transform="translate(0 2)"><use fill="#FFFFFF" xlink:href="#p"/><rect width="19" height="19" x=".5" y=".5" stroke="#0C0C0D" stroke-opacity=".3" rx="2"/><g fill="#0A84FF" fill-rule="nonzero" transform="translate(2 2)"><path d="M3.25 7.84a1 1 0 1 0-1.5 1.32l4 4.5a1 1 0 0 0 1.58-.1l7-10.5a1 1 0 1 0-1.66-1.11l-6.28 9.42-3.14-3.53z"/></g></g></g><text fill="#0C0C0D" font-family="SegoeUI, Segoe UI" font-size="15"><tspan x="0" y="51">Version: 53.0 (64-bit)</tspan></text><text fill="#0A8DFF" font-family="SegoeUI-SemiBold, Segoe UI" font-size="15" font-weight="500"><tspan x="144" y="50">What’s new</tspan></text><g transform="translate(480 31)"><use fill="#FFFFFF" xlink:href="#q"/><rect width="183" height="29" x=".5" y=".5" stroke="#0C0C0D" stroke-opacity=".3"/><text fill="#0C0C0D" font-family="SegoeUI, Segoe UI" font-size="15"><tspan x="16.6" y="20">Show Update History…</tspan></text></g><g transform="translate(480 69)"><use fill="#FFFFFF" xlink:href="#r"/><rect width="183" height="29" x=".5" y=".5" stroke="#0C0C0D" stroke-opacity=".3"/><text fill="#0C0C0D" font-family="SegoeUI, Segoe UI" font-size="15"><tspan x="31.1" y="20">Check for Updates</tspan></text></g><text fill="#0C0C0D" font-family="SegoeUI-SemiBold, Segoe UI" font-size="15" font-weight="500"><tspan x="28" y="89">Firefox is up to date</tspan></text><g transform="translate(0 74.8)"><path fill="#FFBF49" d="M9.95 0A9.03 9.03 0 0 0 .92 9.03l.01.4a1.07 1.07 0 0 0 .14 2.13h.21A9.04 9.04 0 1 0 9.95 0"/><path fill="#323B59" d="M14.44 5.9c.55 0 1 .44 1 .99V9.1c0 .55-.45.12-1 .12s-.99.42-.99-.12V6.89c0-.55.45-1 1-1"/><path fill="#FFA500" d="M13.54 9.66a.31.31 0 0 1-.14-.59 2.36 2.36 0 0 1 2.08-.03.3.3 0 0 1 .14.41.3.3 0 0 1-.41.15 1.75 1.75 0 0 0-1.53.02.28.28 0 0 1-.14.04"/><path fill="#323B59" d="M5.46 5.9c.55 0 .99.44.99.99V9.1c0 .55-.44.12-.99.12s-.99.42-.99-.12V6.89c0-.55.45-1 .99-1"/><path fill="#FFA500" d="M4.56 9.66a.31.31 0 0 1-.14-.59 2.36 2.36 0 0 1 2.07-.03.3.3 0 0 1 .15.41.3.3 0 0 1-.41.15 1.75 1.75 0 0 0-1.53.02.3.3 0 0 1-.14.04"/><path fill="#323B59" d="M16.06 11.62l-.62-.05c-.06.02-.21.06-.45.1-.3.04-.73.15-1.25.2-.51.04-1.12.14-1.76.17-.65.04-1.33.05-2.03.06-.68-.01-1.37-.02-2.02-.07-.65-.03-1.25-.12-1.76-.17-.52-.04-.95-.15-1.25-.2l-.45-.09a30.35 30.35 0 0 0-.7.07.17.17 0 0 0-.04.23l.1.17a7.67 7.67 0 0 0 1.54 1.75c.5.45 1.01.78 1.53 1.06l.41.19c.78-.55 1.68.2 2.64.2.97 0 1.87-.74 2.64-.2.14-.05.28-.1.42-.18a8.34 8.34 0 0 0 3.06-2.82l.1-.18c.02-.02.03-.04.03-.07a.16.16 0 0 0-.14-.17"/><path fill="#FFFFFF" d="M6.17 11.86c.51.05 1.12.14 1.76.17.65.05 1.33.06 2.02.07.7-.01 1.38-.02 2.03-.06.65-.04 1.25-.13 1.76-.17.52-.05.95-.15 1.25-.2.24-.04.4-.08.45-.1l-.9-.05-1.53-.06c-1.02-.03-2.04-.03-3.06-.05-1.02.02-2.04.02-3.05.05l-1.53.06-.9.05c.05.02.21.06.45.1.3.04.73.15 1.25.2"/><path fill="#FFA500" d="M18.96 9.43v-.4c0-2.42-.94-4.6-2.48-6.22A9.27 9.27 0 0 1 3.72 15.57a9.02 9.02 0 0 0 14.87-4l.22-.01c.6 0 1.08-.48 1.08-1.07 0-.55-.4-1-.93-1.06"/><path fill="#FF7664" d="M12.58 15.05h.01c-.77-.55-1.68-.37-2.64-.25-.96-.12-1.87-.3-2.64.25.87.39 1.73.57 2.6.58H10c.86 0 1.73-.2 2.6-.58h-.02"/></g></g><g transform="translate(0 1458)"><rect width="720" height="62"/><text fill="#0C0C0D" font-family="SegoeUI-Semilight, Segoe UI" font-size="22" font-weight="300"><tspan x="28" y="39">Firefox Updates</tspan></text></g><g transform="translate(28 1366)"><text fill="#0C0C0D" font-family="SegoeUI-SemiBold, Segoe UI" font-size="17" font-weight="500"><tspan x="0" y="18">Digital Rights Management (DRM) Content</tspan></text><g transform="translate(0 33)"><text fill="#0C0C0D" font-family="SegoeUI, Segoe UI" font-size="15"><tspan x="28" y="16">Play DRM-controlled content</tspan></text><g transform="translate(0 2)"><use fill="#FFFFFF" xlink:href="#s"/><rect width="19" height="19" x=".5" y=".5" stroke="#0C0C0D" stroke-opacity=".3" rx="2"/><g fill="#0A84FF" fill-rule="nonzero" transform="translate(2 2)"><path d="M3.25 7.84a1 1 0 1 0-1.5 1.32l4 4.5a1 1 0 0 0 1.58-.1l7-10.5a1 1 0 1 0-1.66-1.11l-6.28 9.42-3.14-3.53z"/></g></g></g><text fill="#0A8DFF" font-family="SegoeUI-SemiBold, Segoe UI" font-size="15" font-weight="500"><tspan x="230" y="48">Learn more</tspan></text></g><g transform="translate(28 1021)"><text fill="#0C0C0D" font-family="SegoeUI, Segoe UI" font-size="15"><tspan x="0" y="50">Choose how Firefox handles the files you download from the web or the applications you use while </tspan> <tspan x="0" y="72">browsing.</tspan></text><text fill="#0C0C0D" font-family="SegoeUI-SemiBold, Segoe UI" font-size="17" font-weight="500"><tspan x="0" y="18">Applications</tspan></text><g transform="translate(0 90)"><use fill="#FFFFFF" xlink:href="#t"/><rect width="663" height="29" x=".5" y=".5" stroke="#0C0C0D" stroke-opacity=".3"/><text fill="#0C0C0D" font-family="SegoeUI, Segoe UI" font-size="15" opacity=".4"><tspan x="11" y="20"> Search file types or applications</tspan></text></g><text fill="#9B9B9B" font-family="firefox-icons" font-size="16"><tspan x="8" y="112">search-win</tspan></text><g transform="translate(0 128)"><use fill="#FFFFFF" xlink:href="#u"/><rect width="663" height="179" x=".5" y=".5" stroke="#0C0C0D" stroke-opacity=".3" rx="2"/><rect width="664" height="28" fill="#0C0C0D" fill-opacity=".1"/><text fill="#0C0C0D" font-family="SegoeUI-SemiBold, Segoe UI" font-size="15" font-weight="500"><tspan x="17.19" y="18.95">Content Type</tspan></text><text fill="#0C0C0D" font-family="SegoeUI-SemiBold, Segoe UI" font-size="15" font-weight="500"><tspan x="505.28" y="18.95">Action</tspan></text><path stroke="#0C0C0D" stroke-linecap="square" stroke-opacity=".3" d="M449.5 6.31v15.6"/><g fill="#0C0C0D" transform="translate(430 13)"><polygon points="4 0 8 4 0 4" transform="matrix(1 0 0 -1 0 4)"/></g><path stroke="#0C0C0D" stroke-linecap="square" stroke-opacity=".3" d="M1.5 27.5h661"/></g></g><g transform="translate(28 892)"><text fill="#0C0C0D" font-family="SegoeUI-SemiBold, Segoe UI" font-size="17" font-weight="500"><tspan x="0" y="18">Downloads</tspan></text><g transform="translate(0 33)"><text fill="#0C0C0D" font-family="SegoeUI, Segoe UI" font-size="15"><tspan x="28" y="16">Save files to</tspan></text><g transform="translate(0 2)"><use fill="#FFFFFF" xlink:href="#v"/><circle cx="10" cy="10" r="9.5" stroke="#0C0C0D" stroke-opacity=".3"/><circle cx="10" cy="10" r="6" fill="#0A84FF"/></g></g><g transform="translate(0 67)"><text fill="#0C0C0D" font-family="SegoeUI, Segoe UI" font-size="15"><tspan x="28" y="16">Always ask you where to save files</tspan></text><g transform="translate(0 2)"><use fill="#FFFFFF" xlink:href="#w"/><circle cx="10" cy="10" r="9.5" stroke="#0C0C0D" stroke-opacity=".3"/></g></g><g transform="translate(115 30)"><use fill="#FFFFFF" xlink:href="#x"/><rect width="391" height="29" x=".5" y=".5" stroke="#0C0C0D" stroke-opacity=".3"/><text fill="#0C0C0D" font-family="SegoeUI, Segoe UI" font-size="15" opacity=".4"><tspan x="11" y="20"> Downloads</tspan></text></g><g transform="translate(124 37)"><polygon fill="#FCB912" points=".667 2 .667 14 15.333 14 15.333 2.666 8.667 2.666 8 2"/><polygon fill="#FAEE5C" points="8.667 3.333 8 4.667 1.333 4.667 1.333 13.333 14.667 13.333 14.667 3.333"/><polygon fill="#80D2EB" points="9.667 14.333 9.667 11 6.333 11 6.333 14.333 3.667 14.333 3.667 8.333 12.333 8.333 12.333 14.333"/><path fill="#00BFE7" d="M3.33 8v6.67h3.34v-3.34h2.66v3.34h3.34V8H3.33zm.67.67h8V14h-2v-3.33H6V14H4V8.67z"/></g><g transform="translate(515 30)"><use fill="#FFFFFF" xlink:href="#y"/><rect width="149" height="29" x=".5" y=".5" stroke="#0C0C0D" stroke-opacity=".3"/><text fill="#0C0C0D" font-family="SegoeUI, Segoe UI" font-size="15"><tspan x="45.34" y="20">Choose...</tspan></text></g></g><g transform="translate(0 826)"><rect width="720" height="62"/><text fill="#0C0C0D" font-family="SegoeUI-Semilight, Segoe UI" font-size="22" font-weight="300"><tspan x="28" y="39">Files and Applications</tspan></text></g><g transform="translate(28 700)"><text fill="#0C0C0D" font-family="SegoeUI-SemiBold, Segoe UI" font-size="17" font-weight="500"><tspan x="0" y="18">Language</tspan></text><g transform="translate(0 68)"><text fill="#0C0C0D" font-family="SegoeUI, Segoe UI" font-size="15"><tspan x="28" y="16">Check your spelling as you type</tspan></text><g transform="translate(0 2)"><use fill="#FFFFFF" xlink:href="#z"/><rect width="19" height="19" x=".5" y=".5" stroke="#0C0C0D" stroke-opacity=".3" rx="2"/><g fill="#0A84FF" fill-rule="nonzero" transform="translate(2 2)"><path d="M3.25 7.84a1 1 0 1 0-1.5 1.32l4 4.5a1 1 0 0 0 1.58-.1l7-10.5a1 1 0 1 0-1.66-1.11l-6.28 9.42-3.14-3.53z"/></g></g></g><text fill="#0C0C0D" font-family="SegoeUI, Segoe UI" font-size="15"><tspan x="0" y="50">Choose your preferred language for displaying pages </tspan></text><g transform="translate(514 31)"><use fill="#FFFFFF" xlink:href="#A"/><rect width="149" height="29" x=".5" y=".5" stroke="#0C0C0D" stroke-opacity=".3"/><text fill="#0C0C0D" font-family="SegoeUI, Segoe UI" font-size="15"><tspan x="45.34" y="20">Choose...</tspan></text></g></g><g transform="translate(28 567)"><text fill="#0C0C0D" font-family="SegoeUI-SemiBold, Segoe UI" font-size="17" font-weight="500"><tspan x="0" y="18">Fonts &amp; Colors</tspan></text><text fill="#0C0C0D" font-family="SegoeUI, Segoe UI" font-size="15"><tspan x="0" y="50">Default font</tspan></text><text fill="#0C0C0D" font-family="SegoeUI, Segoe UI" font-size="15"><tspan x="286" y="50">Size</tspan></text><g transform="translate(514 31)"><use fill="#FFFFFF" xlink:href="#B"/><rect width="149" height="29" x=".5" y=".5" stroke="#0C0C0D" stroke-opacity=".3"/><text fill="#0C0C0D" font-family="SegoeUI, Segoe UI" font-size="15"><tspan x="37.41" y="20">Advanced...</tspan></text></g><g transform="translate(514 68)"><use fill="#FFFFFF" xlink:href="#C"/><rect width="149" height="29" x=".5" y=".5" stroke="#0C0C0D" stroke-opacity=".3"/><text fill="#0C0C0D" font-family="SegoeUI, Segoe UI" font-size="15"><tspan x="49.08" y="20">Colors...</tspan></text></g><g transform="translate(88 31)"><g><use fill="#FFFFFF" xlink:href="#D"/><rect width="189" height="29" x=".5" y=".5" stroke="#0C0C0D" stroke-opacity=".3"/><text fill="#0C0C0D" font-family="SegoeUI, Segoe UI" font-size="15"><tspan x="10" y="19">Helvetica Neue</tspan></text></g><polygon fill="#0C0C0D" points="4 0 8 4 0 4" transform="matrix(1 0 0 -1 174 17)"/></g><g transform="translate(321 31)"><g><use fill="#FFFFFF" xlink:href="#E"/><rect width="57" height="29" x=".5" y=".5" stroke="#0C0C0D" stroke-opacity=".3"/><text fill="#0C0C0D" font-family="SegoeUI, Segoe UI" font-size="15"><tspan x="10" y="19">16</tspan></text></g><polygon fill="#0C0C0D" points="4 0 8 4 0 4" transform="matrix(1 0 0 -1 42 17)"/></g></g><g transform="translate(0 502)"><rect width="720" height="62"/><text fill="#0C0C0D" font-family="SegoeUI-Semilight, Segoe UI" font-size="22" font-weight="300"><tspan x="28" y="39">Language and Appearance</tspan></text></g><g transform="translate(28 341)"><text fill="#0C0C0D" font-family="SegoeUI-SemiBold, Segoe UI" font-size="17" font-weight="500"><tspan x="0" y="18">Tabs</tspan></text><g transform="translate(0 34)"><text fill="#0C0C0D" font-family="SegoeUI, Segoe UI" font-size="15"><tspan x="28" y="16">Ctrl+Tab cycles through tabs in recently used order</tspan></text><g transform="translate(0 2)"><use fill="#FFFFFF" xlink:href="#F"/><rect width="19" height="19" x=".5" y=".5" stroke="#0C0C0D" stroke-opacity=".3" rx="2"/><g fill="#0A84FF" fill-rule="nonzero" transform="translate(2 2)"><path d="M3.25 7.84a1 1 0 1 0-1.5 1.32l4 4.5a1 1 0 0 0 1.58-.1l7-10.5a1 1 0 1 0-1.66-1.11l-6.28 9.42-3.14-3.53z"/></g></g></g><g transform="translate(0 68)"><text fill="#0C0C0D" font-family="SegoeUI, Segoe UI" font-size="15"><tspan x="28" y="16">Open new windows in a new tab instead</tspan></text><g transform="translate(0 2)"><use fill="#FFFFFF" xlink:href="#G"/><rect width="19" height="19" x=".5" y=".5" stroke="#0C0C0D" stroke-opacity=".3" rx="2"/><g fill="#0A84FF" fill-rule="nonzero" transform="translate(2 2)"><path d="M3.25 7.84a1 1 0 1 0-1.5 1.32l4 4.5a1 1 0 0 0 1.58-.1l7-10.5a1 1 0 1 0-1.66-1.11l-6.28 9.42-3.14-3.53z"/></g></g></g><g transform="translate(0 102)"><text fill="#0C0C0D" font-family="SegoeUI, Segoe UI" font-size="15"><tspan x="28" y="16">When you open a link in a new tab, switch to it immediately</tspan></text><g transform="translate(0 2)"><use fill="#FFFFFF" xlink:href="#H"/><rect width="19" height="19" x=".5" y=".5" stroke="#0C0C0D" stroke-opacity=".3" rx="2"/></g></g></g><g transform="translate(28 48)"><g transform="translate(136 128)"><g><use fill="#FFFFFF" xlink:href="#I"/><rect width="527" height="29" x=".5" y=".5" stroke="#0C0C0D" stroke-opacity=".3"/><text fill="#0C0C0D" font-family="SegoeUI, Segoe UI" font-size="15"><tspan x="10" y="19">Show your home page</tspan></text></g><polygon fill="#0C0C0D" points="4 0 8 4 0 4" transform="matrix(1 0 0 -1 512 17)"/></g><text fill="#0C0C0D" font-family="SegoeUI-SemiBold, Segoe UI" font-size="17" font-weight="500"><tspan x="0" y="18">Startup</tspan></text><g transform="translate(0 35)"><text fill="#0C0C0D" font-family="SegoeUI, Segoe UI" font-size="15"><tspan x="28" y="16">Always check if Firefox is your default browser</tspan></text><g transform="translate(0 2)"><use fill="#FFFFFF" xlink:href="#J"/><rect width="19" height="19" x=".5" y=".5" stroke="#0C0C0D" stroke-opacity=".3" rx="2"/></g></g><g transform="translate(514 66)"><use fill="#FFFFFF" xlink:href="#K"/><rect width="149" height="29" x=".5" y=".5" stroke="#0C0C0D" stroke-opacity=".3"/><text fill="#0C0C0D" font-family="SegoeUI, Segoe UI" font-size="15"><tspan x="25.92" y="20">Make Default...</tspan></text></g><g transform="translate(87 228)"><use fill="#FFFFFF" xlink:href="#L"/><rect width="186" height="29" x=".5" y=".5" stroke="#0C0C0D" stroke-opacity=".3"/><text fill="#0C0C0D" font-family="SegoeUI, Segoe UI" font-size="15"><tspan x="32.79" y="20">Use Current Pages</tspan></text></g><g transform="translate(477 228)"><use fill="#FFFFFF" xlink:href="#M"/><rect width="186" height="29" x=".5" y=".5" stroke="#0C0C0D" stroke-opacity=".3"/><text fill="#0C0C0D" font-family="SegoeUI, Segoe UI" font-size="15"><tspan x="33.45" y="20">Restore to Default</tspan></text></g><g transform="translate(282 228)"><use fill="#FFFFFF" xlink:href="#N"/><rect width="187" height="29" x=".5" y=".5" stroke="#0C0C0D" stroke-opacity=".3"/><text fill="#0C0C0D" font-family="SegoeUI, Segoe UI" font-size="15"><tspan x="41.38" y="20">Use Bookmark...</tspan></text></g><text fill="#0C0C0D" font-family="SegoeUI-SemiBold, Segoe UI" font-size="15" font-weight="500"><tspan x="54" y="85">Firefox is not your default browser</tspan></text><g transform="translate(26 71.8)"><path fill="#00D3E7" d="M9.94 0a9.01 9.01 0 0 0-9 9.42 1.07 1.07 0 0 0 .13 2.12h.21A9.01 9.01 0 1 0 9.94 0"/><path fill="#00A1C1" d="M18.93 9.41v-.4c0-2.4-.93-4.6-2.47-6.2A9.26 9.26 0 0 1 3.72 15.54a9 9 0 0 0 14.85-4l.21-.01c.6 0 1.07-.48 1.07-1.07.01-.54-.4-.99-.92-1.06"/><path fill="#323B59" d="M5.47 5.75a.99.99 0 0 0-.99.99v2.22a.99.99 0 1 0 1.98 0V6.74a.99.99 0 0 0-1-.99m8.98 0a.99.99 0 0 0-1 .99v2.22a.99.99 0 1 0 1.98 0V6.74a.99.99 0 0 0-.98-.99m-4.5 5.47a2.27 2.27 0 0 0-2.34 2.13c-.02.23.09.45.27.58.19.14.43.17.64.09 0 0 .47-.17 1.34-.17.91 0 1.55.19 1.56.19a.69.69 0 0 0 .61-.11.67.67 0 0 0 .26-.58 2.27 2.27 0 0 0-2.34-2.13"/><path fill="#00A1C1" d="M4.59 6.22c-.36 0-.72-.11-1.03-.32a.31.31 0 1 1 .35-.53 1.25 1.25 0 0 0 1.8-.47.31.31 0 1 1 .56.28 1.88 1.88 0 0 1-1.68 1.04m10.47 0a1.88 1.88 0 0 1-1.68-1.04.31.31 0 1 1 .56-.28 1.24 1.24 0 0 0 1.8.48.32.32 0 0 1 .35.53c-.3.2-.66.3-1.03.3"/></g><text fill="#0C0C0D" font-family="SegoeUI, Segoe UI" font-size="15"><tspan x="0" y="147">When Firefox starts</tspan></text><text fill="#0C0C0D" font-family="SegoeUI, Segoe UI" font-size="15"><tspan x="1" y="210">Home page</tspan></text><g transform="translate(87 190)"><use fill="#FFFFFF" xlink:href="#O"/><rect width="576" height="29" x=".5" y=".5" stroke="#0C0C0D" stroke-opacity=".3"/><text fill="#0C0C0D" font-family="SegoeUI, Segoe UI" font-size="15" opacity=".4"><tspan x="11" y="20">Firefox Start Page</tspan></text></g></g><g transform="translate(0 -16)"><rect width="720" height="62"/><text fill="#0C0C0D" font-family="SegoeUI-Semilight, Segoe UI" font-size="22" font-weight="300"><tspan x="28" y="39">General</tspan></text></g><path fill="#0C0C0D" d="M28 1850h664v1H28v-1zm0 154h664v1H28v-1zm0 124h664v1H28v-1zm0 226h664v1H28v-1zm0-1852h664v1H28v-1zm0 324h664v1H28v-1zm0 632h664v1H28v-1z" opacity=".15"/></g></g><g mask="url(#e)"><g transform="translate(721 15)"><g><use fill="#FFFFFF" xlink:href="#P"/><rect width="209" height="29" x=".5" y=".5" stroke="#0A84FF"/></g><path fill="#0C0C0D" fill-rule="nonzero" d="M17.3 17.72a1 1 0 1 1 1.41-1.41l4.96 4.95a1 1 0 1 1-1.41 1.41l-4.95-4.95zm-3.26 1.32a6 6 0 1 1 0-12 6 6 0 0 1 0 12zm0-2a4 4 0 1 0 0-8 4 4 0 0 0 0 8z" opacity=".4"/><path fill="#0C0C0D" fill-opacity=".4" d="M39.7 10.61h-4.1v3.63h3.8v1.1h-3.8V20h-1.22V9.5h5.33v1.11zm2.46-.01a.76.76 0 0 1-.78-.78c0-.23.07-.41.23-.56a.75.75 0 0 1 .55-.22.78.78 0 0 1 .79.78c0 .21-.08.4-.23.55a.77.77 0 0 1-.56.23zm.58 9.4h-1.2v-7.5h1.2V20zm8.66 0h-1.2v-4.28c0-1.59-.58-2.39-1.75-2.39-.6 0-1.1.23-1.49.68-.39.45-.59 1.02-.59 1.71V20h-1.2v-7.5h1.2v1.25h.03a2.7 2.7 0 0 1 2.46-1.43c.82 0 1.45.27 1.89.8.43.53.65 1.3.65 2.3V20zm8.66 0h-1.2v-1.27h-.03a2.77 2.77 0 0 1-2.58 1.45A2.8 2.8 0 0 1 54 19.17a4.13 4.13 0 0 1-.84-2.74c0-1.24.31-2.24.94-2.99a3.1 3.1 0 0 1 2.5-1.12c1.02 0 1.77.4 2.24 1.22h.03V8.9h1.2V20zm-1.2-3.4v-1.1c0-.6-.2-1.12-.6-1.54-.4-.42-.9-.63-1.52-.63-.73 0-1.31.27-1.73.81a3.53 3.53 0 0 0-.63 2.23c0 .86.2 1.54.6 2.04.4.5.95.76 1.63.76.66 0 1.2-.25 1.63-.73.41-.48.62-1.1.62-1.83zm8.36-6a.76.76 0 0 1-.78-.78c0-.23.08-.41.23-.56a.75.75 0 0 1 .55-.22.78.78 0 0 1 .79.78c0 .21-.08.4-.23.55a.77.77 0 0 1-.56.23zm.58 9.4h-1.2v-7.5h1.2V20zm8.66 0h-1.2v-4.28c0-1.59-.58-2.39-1.74-2.39-.6 0-1.1.23-1.5.68-.39.45-.58 1.02-.58 1.71V20h-1.2v-7.5h1.2v1.25h.03a2.7 2.7 0 0 1 2.46-1.43c.82 0 1.45.27 1.88.8.43.53.65 1.3.65 2.3V20zm10.77.18c-1.5 0-2.68-.5-3.58-1.48a5.46 5.46 0 0 1-1.34-3.83c0-1.69.45-3.03 1.37-4.04.9-1 2.15-1.5 3.72-1.5a4.5 4.5 0 0 1 3.5 1.46 5.48 5.48 0 0 1 1.34 3.83 5.8 5.8 0 0 1-1.36 4.06 4.7 4.7 0 0 1-3.65 1.5zm.09-9.75c-1.1 0-2 .4-2.7 1.2a4.62 4.62 0 0 0-1.02 3.13c0 1.3.33 2.34 1 3.13a3.28 3.28 0 0 0 2.63 1.18c1.15 0 2.06-.38 2.72-1.13.67-.75 1-1.8 1-3.15 0-1.4-.32-2.46-.97-3.22a3.32 3.32 0 0 0-2.66-1.14zm8.05 8.49h-.03v4.53h-1.2V12.5h1.2v1.32h.03c.6-1 1.46-1.5 2.6-1.5.96 0 1.72.34 2.26 1.01.54.67.81 1.57.81 2.7 0 1.26-.3 2.26-.91 3.01a3.05 3.05 0 0 1-2.5 1.14 2.5 2.5 0 0 1-2.26-1.26zm-.03-3.03v1.05c0 .62.2 1.14.6 1.58a2 2 0 0 0 1.54.65c.73 0 1.3-.28 1.71-.84.42-.56.62-1.33.62-2.32 0-.84-.2-1.5-.58-1.96-.38-.48-.9-.72-1.56-.72-.7 0-1.26.25-1.69.73-.42.49-.64 1.1-.64 1.83zm11.1 4.04c-.28.15-.66.23-1.12.23-1.31 0-1.97-.73-1.97-2.2v-4.43h-1.29V12.5h1.29v-1.83l1.2-.39v2.22h1.89v1.03h-1.89v4.22c0 .5.09.86.26 1.08.17.21.45.32.85.32.3 0 .56-.08.78-.25v1.03zm2.22-9.33a.76.76 0 0 1-.78-.78c0-.23.08-.41.23-.56a.75.75 0 0 1 .55-.22.78.78 0 0 1 .79.78c0 .21-.08.4-.23.55a.77.77 0 0 1-.56.23zm.59 9.4h-1.2v-7.5h1.2V20zm5.56.18c-1.1 0-2-.35-2.65-1.06a3.9 3.9 0 0 1-1-2.78c0-1.26.35-2.25 1.04-2.95a3.71 3.71 0 0 1 2.79-1.07c1.12 0 1.99.35 2.62 1.04.62.69.94 1.64.94 2.86 0 1.2-.34 2.16-1.02 2.88a3.55 3.55 0 0 1-2.72 1.08zm.09-6.85c-.77 0-1.38.27-1.83.8a3.23 3.23 0 0 0-.68 2.16c0 .9.23 1.6.69 2.1.45.52 1.06.78 1.82.78a2.2 2.2 0 0 0 1.79-.76c.42-.5.63-1.22.63-2.15 0-.93-.21-1.66-.63-2.16a2.19 2.19 0 0 0-1.8-.77zM126.7 20h-1.21v-4.28c0-1.59-.58-2.39-1.74-2.39-.6 0-1.1.23-1.5.68-.39.45-.58 1.02-.58 1.71V20h-1.2v-7.5h1.2v1.25h.03a2.7 2.7 0 0 1 2.46-1.43c.82 0 1.44.27 1.88.8.43.53.65 1.3.65 2.3V20zm1.8-.27v-1.29c.65.48 1.37.73 2.16.73 1.06 0 1.58-.36 1.58-1.06 0-.2-.04-.37-.13-.5a1.35 1.35 0 0 0-.37-.38c-.15-.1-.33-.2-.54-.29l-.67-.27a8.63 8.63 0 0 1-.88-.4 2.64 2.64 0 0 1-.63-.45c-.16-.17-.3-.36-.38-.57a2.03 2.03 0 0 1-.12-.76c0-.35.08-.66.24-.93.16-.27.37-.5.64-.68a3 3 0 0 1 .92-.42 4.3 4.3 0 0 1 2.8.2v1.22a3.4 3.4 0 0 0-2.5-.47c-.18.05-.34.13-.47.22a1 1 0 0 0-.3.33.88.88 0 0 0-.1.43c0 .2.03.36.1.49s.18.25.31.35c.14.1.3.2.5.28l.67.27c.33.13.63.26.9.4.25.13.48.28.67.45.18.17.32.36.42.58.1.22.15.48.15.78 0 .37-.08.7-.24.97-.17.27-.38.5-.66.68a3 3 0 0 1-.94.4c-.36.1-.73.14-1.12.14-.77 0-1.44-.15-2.01-.45z"/><text font-family="SegoeUI, Segoe UI" font-size="15"><tspan x="31" y="19" fill="#000000">|</tspan></text></g></g></g></g><rect width="1200" height="610" y="84" fill="#0C0C0D" fill-opacity=".6"/><g transform="translate(258 154)"><g transform="translate(33 36)"><mask id="R" fill="white"><use xlink:href="#Q"/></mask><g mask="url(#R)"><g transform="translate(0 -3)"><g transform="translate(0 30)"><polygon fill="#3CB89C" points="356 -356 364 -356 364 364 356 364" opacity=".5" transform="rotate(90 360 4)"/><text font-family="SegoeUI-Bold, Segoe UI" font-size="6" font-weight="bold"><tspan x="5" y="6" fill="#0C0C0D">8 </tspan> <tspan x="11.76" y="6" fill="#FFFFFF" font-family="SegoeUI-SemiBold, Segoe UI" font-weight="500"> </tspan> <tspan x="15.06" y="6" fill="#666666" font-family="SegoeUI-SemiBold, Segoe UI" font-weight="500">S</tspan></text></g><rect width="720" height="30"/></g></g><g mask="url(#R)"><g transform="translate(0 35)"><g transform="translate(0 30)"><polygon fill="#3CB89C" points="356 -356 364 -356 364 364 356 364" opacity=".5" transform="rotate(90 360 4)"/><text font-family="SegoeUI-Bold, Segoe UI" font-size="6" font-weight="bold"><tspan x="5" y="6" fill="#0C0C0D">8 </tspan> <tspan x="11.76" y="6" fill="#FFFFFF" font-family="SegoeUI-SemiBold, Segoe UI" font-weight="500"> </tspan> <tspan x="15.06" y="6" fill="#666666" font-family="SegoeUI-SemiBold, Segoe UI" font-weight="500">S</tspan></text></g><rect width="720" height="30"/></g></g><g mask="url(#R)"><g transform="translate(0 73)"><g transform="translate(0 30)"><polygon fill="#3CB89C" points="356 -356 364 -356 364 364 356 364" opacity=".5" transform="rotate(90 360 4)"/><text font-family="SegoeUI-Bold, Segoe UI" font-size="6" font-weight="bold"><tspan x="5" y="6" fill="#0C0C0D">8 </tspan> <tspan x="11.76" y="6" fill="#FFFFFF" font-family="SegoeUI-SemiBold, Segoe UI" font-weight="500"> </tspan> <tspan x="15.06" y="6" fill="#666666" font-family="SegoeUI-SemiBold, Segoe UI" font-weight="500">S</tspan></text></g><rect width="720" height="30"/></g></g></g><g transform="translate(33 1)"><rect width="605" height="32" fill="#9DDBCD" fill-opacity=".8"/><text font-family="SegoeUI-Bold, Segoe UI" font-size="6" font-weight="bold"><tspan x="5" y="18" fill="#0C0C0D">32 </tspan> <tspan x="15.21" y="18" fill="#666666" font-family="SegoeUI-SemiBold, Segoe UI" font-weight="500">L</tspan></text></g><use fill="#FAFAFC" xlink:href="#S"/><rect width="685" height="541" x="-.5" y="-.5" stroke="#666666"/><g transform="translate(28 60)"><path fill="#0C0C0D" d="M447 57.54v-1.45c.17.15.36.28.6.4a4.84 4.84 0 0 0 1.5.48c.26.04.5.06.72.06.76 0 1.32-.14 1.7-.42.37-.28.56-.68.56-1.2 0-.3-.07-.54-.2-.75a2.1 2.1 0 0 0-.5-.57 5.12 5.12 0 0 0-.79-.5l-.97-.5-1.02-.57c-.32-.19-.6-.4-.83-.63a2.41 2.41 0 0 1-.75-1.8c0-.48.1-.9.31-1.25s.49-.64.83-.87c.34-.23.73-.4 1.17-.52.43-.1.88-.16 1.33-.16 1.04 0 1.8.12 2.27.37v1.38a4.1 4.1 0 0 0-2.4-.64c-.26 0-.53.03-.8.08-.27.06-.5.15-.72.28-.2.12-.38.29-.5.49-.14.2-.2.44-.2.73 0 .27.04.5.14.7.1.2.25.37.45.53.2.16.43.32.71.47l.97.5c.38.18.73.38 1.07.58.34.2.63.44.89.69.25.24.45.52.6.82.15.3.22.65.22 1.04 0 .52-.1.96-.3 1.32-.2.36-.48.65-.82.87-.34.23-.74.39-1.19.49a6.52 6.52 0 0 1-3.5-.2c-.23-.07-.41-.16-.55-.25zm8.91-8.98a.76.76 0 0 1-.77-.78.75.75 0 0 1 .78-.78.78.78 0 0 1 .78.78c0 .22-.07.4-.23.55a.77.77 0 0 1-.56.23zm.59 9.4h-1.2v-7.5h1.2v7.5zm7.66-7.15l-4.44 6.13h4.4v1.02h-6.16v-.37l4.44-6.1h-4.03v-1.03h5.8v.35zm7.58 3.7h-5.3c.03.84.25 1.48.68 1.94.43.45 1.02.68 1.77.68.85 0 1.62-.28 2.33-.84v1.13c-.66.48-1.53.72-2.61.72-1.06 0-1.9-.34-2.5-1.02-.6-.68-.9-1.64-.9-2.88a4.1 4.1 0 0 1 .98-2.85 3.18 3.18 0 0 1 2.47-1.1c.98 0 1.74.32 2.28.95.53.64.8 1.52.8 2.64v.63zm-1.23-1.01c0-.7-.17-1.24-.5-1.62a1.7 1.7 0 0 0-1.37-.58c-.57 0-1.05.2-1.45.6-.4.41-.64.94-.73 1.6h4.05z"/><g transform="translate(481 38)"><use fill="#FFFFFF" xlink:href="#T"/><rect width="57" height="29" x=".5" y=".5" stroke="#0C0C0D" stroke-opacity=".3"/><path fill="#0C0C0D" d="M17 19.74h-5.94v-1.06h2.37v-8.16l-2.43.73V10.1L14.63 9v9.68H17v1.06zm7.7-10.38v1.13a3.7 3.7 0 0 0-1.72-.41c-.93 0-1.68.41-2.24 1.24a5.88 5.88 0 0 0-.83 3.33h.03c.48-.99 1.28-1.48 2.4-1.48.92 0 1.65.3 2.19.88.54.59.81 1.38.81 2.36 0 1.03-.3 1.87-.93 2.53-.62.65-1.4.97-2.37.97a2.89 2.89 0 0 1-2.48-1.26 6 6 0 0 1-.9-3.53c0-1.85.4-3.31 1.18-4.41a3.65 3.65 0 0 1 3.11-1.65c.74 0 1.32.1 1.75.3zm-2.63 4.83c-.62 0-1.12.2-1.5.63-.39.42-.58.91-.58 1.48 0 .72.19 1.33.57 1.84.39.5.9.76 1.53.76.6 0 1.1-.22 1.46-.66.37-.44.56-1 .56-1.68 0-.74-.18-1.32-.53-1.74a1.86 1.86 0 0 0-1.5-.63z"/><g fill="#0C0C0D" transform="translate(42 13)"><polygon points="4 0 8 4 0 4" transform="matrix(1 0 0 -1 0 4)"/></g></g></g><g><rect width="684" height="30" fill="#E6E6E6"/><path fill="#000000" fill-rule="nonzero" d="M672.06 15l3.47-3.47a.75.75 0 0 0-1.06-1.06L671 13.94l-3.47-3.47a.75.75 0 1 0-1.06 1.06l3.47 3.47-3.47 3.47a.75.75 0 1 0 1.06 1.06l3.47-3.47 3.47 3.47a.75.75 0 0 0 1.06-1.06L672.06 15z"/></g></g></g></g></g></svg>