<svg xmlns="http://www.w3.org/2000/svg" xmlns:xlink="http://www.w3.org/1999/xlink" viewBox="0 0 360 183"><defs><rect id="a" width="1200" height="694"/><rect id="b" width="1200" height="612"/><rect id="d" width="150" height="30"/><rect id="e" width="20" height="20" rx="2"/><rect id="f" width="20" height="20" rx="2"/><rect id="g" width="20" height="20" rx="2"/><rect id="h" width="20" height="20" rx="2"/><rect id="i" width="150" height="30"/><rect id="j" width="20" height="20" rx="2"/><circle id="k" cx="10" cy="10" r="10"/><circle id="l" cx="10" cy="10" r="10"/><circle id="m" cx="10" cy="10" r="10"/><rect id="n" width="20" height="20" rx="2"/><rect id="o" width="184" height="30"/><rect id="p" width="184" height="30"/><rect id="q" width="20" height="20" rx="2"/><rect id="r" width="664" height="30"/><rect id="s" width="664" height="180" rx="2"/><circle id="t" cx="10" cy="10" r="10"/><circle id="u" cx="10" cy="10" r="10"/><rect id="v" width="392" height="30"/><rect id="w" width="150" height="30"/><rect id="x" width="20" height="20" rx="2"/><rect id="y" width="150" height="30"/><rect id="z" width="150" height="30"/><rect id="A" width="150" height="30"/><rect id="B" width="190" height="30"/><rect id="C" width="58" height="30"/><rect id="D" width="20" height="20" rx="2"/><rect id="E" width="20" height="20" rx="2"/><rect id="F" width="20" height="20" rx="2"/><rect id="G" width="528" height="30"/><rect id="H" width="20" height="20" rx="2"/><rect id="I" width="150" height="30"/><rect id="J" width="187" height="30"/><rect id="K" width="187" height="30"/><rect id="L" width="188" height="30"/><rect id="M" width="577" height="30"/><rect id="N" width="210" height="30"/><polygon id="O" points="0 0 605 0 605 255 0 255"/><rect id="Q" width="684" height="540"/><rect id="R" width="58" height="30"/></defs><g fill="none" fill-rule="evenodd"><g transform="translate(-743 -85)"><use fill="#FFFFFF" xlink:href="#a"/><rect width="1201" height="695" x="-.5" y="-.5" stroke="#0A75D3"/><g transform="translate(0 82)"><mask id="c" fill="white"><use xlink:href="#b"/></mask><use fill="#FAFAFC" xlink:href="#b"/><g mask="url(#c)"><g transform="translate(239 72)"><g transform="translate(28 2416)"><text fill="#0C0C0D" font-family="SegoeUI, Segoe UI" font-size="15"><tspan x="0" y="19">Configure how Firefox connects to the Internet</tspan></text><g transform="translate(514)"><use fill="#FFFFFF" xlink:href="#d"/><rect width="149" height="29" x=".5" y=".5" stroke="#0C0C0D" stroke-opacity=".3"/><text fill="#0C0C0D" font-family="SegoeUI, Segoe UI" font-size="15"><tspan x="43.47" y="20">Settings...</tspan></text></g></g><g transform="translate(0 2354)"><rect width="720" height="62"/><text fill="#0C0C0D" font-family="SegoeUI-Semilight, Segoe UI" font-size="22" font-weight="300"><tspan x="28" y="39">Network Proxy</tspan></text></g><g transform="translate(28 2193)"><text fill="#0C0C0D" font-family="SegoeUI, Segoe UI" font-size="15"><tspan x="28" y="16">Use autoscrolling</tspan></text><g transform="translate(0 2)"><use fill="#FFFFFF" xlink:href="#e"/><rect width="19" height="19" x=".5" y=".5" stroke="#0C0C0D" stroke-opacity=".3" rx="2"/><g fill="#0A84FF" fill-rule="nonzero" transform="translate(2 2)"><path d="M3.25 7.84a1 1 0 1 0-1.5 1.32l4 4.5a1 1 0 0 0 1.58-.1l7-10.5a1 1 0 1 0-1.66-1.11l-6.28 9.42-3.14-3.53z"/></g></g><g transform="translate(0 34)"><text fill="#0C0C0D" font-family="SegoeUI, Segoe UI" font-size="15"><tspan x="28" y="16">Use smooth scrolling</tspan></text><g transform="translate(0 2)"><use fill="#FFFFFF" xlink:href="#f"/><rect width="19" height="19" x=".5" y=".5" stroke="#0C0C0D" stroke-opacity=".3" rx="2"/><g fill="#0A84FF" fill-rule="nonzero" transform="translate(2 2)"><path d="M3.25 7.84a1 1 0 1 0-1.5 1.32l4 4.5a1 1 0 0 0 1.58-.1l7-10.5a1 1 0 1 0-1.66-1.11l-6.28 9.42-3.14-3.53z"/></g></g></g><g transform="translate(0 68)"><text fill="#0C0C0D" font-family="SegoeUI, Segoe UI" font-size="15"><tspan x="28" y="16">Always use the cursor keys to navigate within pages</tspan></text><g transform="translate(0 2)"><use fill="#FFFFFF" xlink:href="#g"/><rect width="19" height="19" x=".5" y=".5" stroke="#0C0C0D" stroke-opacity=".3" rx="2"/></g></g><g transform="translate(0 102)"><text fill="#0C0C0D" font-family="SegoeUI, Segoe UI" font-size="15"><tspan x="28" y="16">Saerch for text when you are typing</tspan></text><g transform="translate(0 2)"><use fill="#FFFFFF" xlink:href="#h"/><rect width="19" height="19" x=".5" y=".5" stroke="#0C0C0D" stroke-opacity=".3" rx="2"/><g fill="#0A84FF" fill-rule="nonzero" transform="translate(2 2)"><path d="M3.25 7.84a1 1 0 1 0-1.5 1.32l4 4.5a1 1 0 0 0 1.58-.1l7-10.5a1 1 0 1 0-1.66-1.11l-6.28 9.42-3.14-3.53z"/></g></g></g></g><g transform="translate(0 2128)"><rect width="720" height="62"/><text fill="#0C0C0D" font-family="SegoeUI-Semilight, Segoe UI" font-size="22" font-weight="300"><tspan x="28" y="39">Browsing</tspan></text></g><g transform="translate(28 2066)"><text fill="#0C0C0D" font-family="SegoeUI, Segoe UI" font-size="15"><tspan x="0" y="21">Tools for editing and debugging HTML, CSS, and JavaScript</tspan></text><g transform="translate(514)"><use fill="#FFFFFF" xlink:href="#i"/><rect width="149" height="29" x=".5" y=".5" stroke="#0C0C0D" stroke-opacity=".3"/><text fill="#0C0C0D" font-family="SegoeUI, Segoe UI" font-size="15"><tspan x="53" y="20">Enable</tspan></text></g><text fill="#0A8DFF" font-family="SegoeUI-SemiBold, Segoe UI" font-size="15" font-weight="500"><tspan x="401" y="20">Learn more</tspan></text></g><g transform="translate(0 2004)"><rect width="720" height="62"/><text fill="#0C0C0D" font-family="SegoeUI-Semilight, Segoe UI" font-size="22" font-weight="300"><tspan x="28" y="39">Developer Tools</tspan></text></g><g transform="translate(28 1914)"><g transform="translate(0 1)"><text fill="#0C0C0D" font-family="SegoeUI, Segoe UI" font-size="15"><tspan x="28" y="16">Use recommended performance settings</tspan></text><g transform="translate(0 2)"><use fill="#FFFFFF" xlink:href="#j"/><rect width="19" height="19" x=".5" y=".5" stroke="#0C0C0D" stroke-opacity=".3" rx="2"/><g fill="#0A84FF" fill-rule="nonzero" transform="translate(2 2)"><path d="M3.25 7.84a1 1 0 1 0-1.5 1.32l4 4.5a1 1 0 0 0 1.58-.1l7-10.5a1 1 0 1 0-1.66-1.11l-6.28 9.42-3.14-3.53z"/></g></g></g><text fill="#0A8DFF" font-family="SegoeUI-SemiBold, Segoe UI" font-size="15" font-weight="500"><tspan x="304" y="16">Learn more</tspan></text><text fill="#737373" font-family="SegoeUI, Segoe UI" font-size="13"><tspan x="28" y="42">These settings are tailored to your computer&apos;s hardware and operating system.</tspan></text></g><g transform="translate(0 1850)"><rect width="720" height="62"/><text fill="#0C0C0D" font-family="SegoeUI-Semilight, Segoe UI" font-size="22" font-weight="300"><tspan x="28" y="39">Performance</tspan></text></g><g transform="translate(28 1523)"><text fill="#0C0C0D" font-family="SegoeUI, Segoe UI" font-size="15"><tspan x="0" y="16">Keep Firefox up to date for the best performance, stability, and security. </tspan></text><text fill="#0C0C0D" font-family="SegoeUI, Segoe UI" font-size="15"><tspan x="0" y="151">Allow Firefox to</tspan></text><g transform="translate(0 168)"><text fill="#0C0C0D" font-family="SegoeUI, Segoe UI" font-size="15"><tspan x="28" y="16">Automatically install updates (recommended) </tspan></text><g transform="translate(0 2)"><use fill="#FFFFFF" xlink:href="#k"/><circle cx="10" cy="10" r="9.5" stroke="#0C0C0D" stroke-opacity=".3"/><circle cx="10" cy="10" r="6" fill="#0A84FF"/></g></g><g transform="translate(0 202)"><text fill="#0C0C0D" font-family="SegoeUI, Segoe UI" font-size="15"><tspan x="28" y="16">Check for updates but let you choose to install them</tspan></text><g transform="translate(0 2)"><use fill="#FFFFFF" xlink:href="#l"/><circle cx="10" cy="10" r="9.5" stroke="#0C0C0D" stroke-opacity=".3"/></g></g><g transform="translate(0 236)"><text fill="#0C0C0D" font-family="SegoeUI, Segoe UI" font-size="15"><tspan x="28" y="16">Never check for updates (not recommended)</tspan></text><g transform="translate(0 2)"><use fill="#FFFFFF" xlink:href="#m"/><circle cx="10" cy="10" r="9.5" stroke="#0C0C0D" stroke-opacity=".3"/></g></g><g transform="translate(0 270)"><text fill="#0C0C0D" font-family="SegoeUI, Segoe UI" font-size="15"><tspan x="28" y="16">Automatically update search engines </tspan></text><g transform="translate(0 2)"><use fill="#FFFFFF" xlink:href="#n"/><rect width="19" height="19" x=".5" y=".5" stroke="#0C0C0D" stroke-opacity=".3" rx="2"/><g fill="#0A84FF" fill-rule="nonzero" transform="translate(2 2)"><path d="M3.25 7.84a1 1 0 1 0-1.5 1.32l4 4.5a1 1 0 0 0 1.58-.1l7-10.5a1 1 0 1 0-1.66-1.11l-6.28 9.42-3.14-3.53z"/></g></g></g><text fill="#0C0C0D" font-family="SegoeUI, Segoe UI" font-size="15"><tspan x="0" y="51">Version: 53.0 (64-bit)</tspan></text><text fill="#0A8DFF" font-family="SegoeUI-SemiBold, Segoe UI" font-size="15" font-weight="500"><tspan x="144" y="50">What’s new</tspan></text><g transform="translate(480 31)"><use fill="#FFFFFF" xlink:href="#o"/><rect width="183" height="29" x=".5" y=".5" stroke="#0C0C0D" stroke-opacity=".3"/><text fill="#0C0C0D" font-family="SegoeUI, Segoe UI" font-size="15"><tspan x="16.6" y="20">Show Update History…</tspan></text></g><g transform="translate(480 69)"><use fill="#FFFFFF" xlink:href="#p"/><rect width="183" height="29" x=".5" y=".5" stroke="#0C0C0D" stroke-opacity=".3"/><text fill="#0C0C0D" font-family="SegoeUI, Segoe UI" font-size="15"><tspan x="31.1" y="20">Check for Updates</tspan></text></g><text fill="#0C0C0D" font-family="SegoeUI-SemiBold, Segoe UI" font-size="15" font-weight="500"><tspan x="28" y="89">Firefox is up to date</tspan></text><g transform="translate(0 74.8)"><path fill="#FFBF49" d="M9.95 0A9.03 9.03 0 0 0 .92 9.03l.01.4a1.07 1.07 0 0 0 .14 2.13h.21A9.04 9.04 0 1 0 9.95 0"/><path fill="#323B59" d="M14.44 5.9c.55 0 1 .44 1 .99V9.1c0 .55-.45.12-1 .12s-.99.42-.99-.12V6.89c0-.55.45-1 1-1"/><path fill="#FFA500" d="M13.54 9.66a.31.31 0 0 1-.14-.59 2.36 2.36 0 0 1 2.08-.03.3.3 0 0 1 .14.41.3.3 0 0 1-.41.15 1.75 1.75 0 0 0-1.53.02.28.28 0 0 1-.14.04"/><path fill="#323B59" d="M5.46 5.9c.55 0 .99.44.99.99V9.1c0 .55-.44.12-.99.12s-.99.42-.99-.12V6.89c0-.55.45-1 .99-1"/><path fill="#FFA500" d="M4.56 9.66a.31.31 0 0 1-.14-.59 2.36 2.36 0 0 1 2.07-.03.3.3 0 0 1 .15.41.3.3 0 0 1-.41.15 1.75 1.75 0 0 0-1.53.02.3.3 0 0 1-.14.04"/><path fill="#323B59" d="M16.06 11.62l-.62-.05c-.06.02-.21.06-.45.1-.3.04-.73.15-1.25.2-.51.04-1.12.14-1.76.17-.65.04-1.33.05-2.03.06-.68-.01-1.37-.02-2.02-.07-.65-.03-1.25-.12-1.76-.17-.52-.04-.95-.15-1.25-.2l-.45-.09a30.35 30.35 0 0 0-.7.07.17.17 0 0 0-.04.23l.1.17a7.67 7.67 0 0 0 1.54 1.75c.5.45 1.01.78 1.53 1.06l.41.19c.78-.55 1.68.2 2.64.2.97 0 1.87-.74 2.64-.2.14-.05.28-.1.42-.18a8.34 8.34 0 0 0 3.06-2.82l.1-.18c.02-.02.03-.04.03-.07a.16.16 0 0 0-.14-.17"/><path fill="#FFFFFF" d="M6.17 11.86c.51.05 1.12.14 1.76.17.65.05 1.33.06 2.02.07.7-.01 1.38-.02 2.03-.06.65-.04 1.25-.13 1.76-.17.52-.05.95-.15 1.25-.2.24-.04.4-.08.45-.1l-.9-.05-1.53-.06c-1.02-.03-2.04-.03-3.06-.05-1.02.02-2.04.02-3.05.05l-1.53.06-.9.05c.05.02.21.06.45.1.3.04.73.15 1.25.2"/><path fill="#FFA500" d="M18.96 9.43v-.4c0-2.42-.94-4.6-2.48-6.22A9.27 9.27 0 0 1 3.72 15.57a9.02 9.02 0 0 0 14.87-4l.22-.01c.6 0 1.08-.48 1.08-1.07 0-.55-.4-1-.93-1.06"/><path fill="#FF7664" d="M12.58 15.05h.01c-.77-.55-1.68-.37-2.64-.25-.96-.12-1.87-.3-2.64.25.87.39 1.73.57 2.6.58H10c.86 0 1.73-.2 2.6-.58h-.02"/></g></g><g transform="translate(0 1458)"><rect width="720" height="62"/><text fill="#0C0C0D" font-family="SegoeUI-Semilight, Segoe UI" font-size="22" font-weight="300"><tspan x="28" y="39">Firefox Updates</tspan></text></g><g transform="translate(28 1366)"><text fill="#0C0C0D" font-family="SegoeUI-SemiBold, Segoe UI" font-size="17" font-weight="500"><tspan x="0" y="18">Digital Rights Management (DRM) Content</tspan></text><g transform="translate(0 33)"><text fill="#0C0C0D" font-family="SegoeUI, Segoe UI" font-size="15"><tspan x="28" y="16">Play DRM-controlled content</tspan></text><g transform="translate(0 2)"><use fill="#FFFFFF" xlink:href="#q"/><rect width="19" height="19" x=".5" y=".5" stroke="#0C0C0D" stroke-opacity=".3" rx="2"/><g fill="#0A84FF" fill-rule="nonzero" transform="translate(2 2)"><path d="M3.25 7.84a1 1 0 1 0-1.5 1.32l4 4.5a1 1 0 0 0 1.58-.1l7-10.5a1 1 0 1 0-1.66-1.11l-6.28 9.42-3.14-3.53z"/></g></g></g><text fill="#0A8DFF" font-family="SegoeUI-SemiBold, Segoe UI" font-size="15" font-weight="500"><tspan x="230" y="48">Learn more</tspan></text></g><g transform="translate(28 1021)"><text fill="#0C0C0D" font-family="SegoeUI, Segoe UI" font-size="15"><tspan x="0" y="50">Choose how Firefox handles the files you download from the web or the applications you use while </tspan> <tspan x="0" y="72">browsing.</tspan></text><text fill="#0C0C0D" font-family="SegoeUI-SemiBold, Segoe UI" font-size="17" font-weight="500"><tspan x="0" y="18">Applications</tspan></text><g transform="translate(0 90)"><use fill="#FFFFFF" xlink:href="#r"/><rect width="663" height="29" x=".5" y=".5" stroke="#0C0C0D" stroke-opacity=".3"/><text fill="#0C0C0D" font-family="SegoeUI, Segoe UI" font-size="15" opacity=".4"><tspan x="11" y="20"> Search file types or applications</tspan></text></g><text fill="#9B9B9B" font-family="firefox-icons" font-size="16"><tspan x="8" y="112">search-win</tspan></text><g transform="translate(0 128)"><use fill="#FFFFFF" xlink:href="#s"/><rect width="663" height="179" x=".5" y=".5" stroke="#0C0C0D" stroke-opacity=".3" rx="2"/><rect width="664" height="28" fill="#0C0C0D" fill-opacity=".1"/><text fill="#0C0C0D" font-family="SegoeUI-SemiBold, Segoe UI" font-size="15" font-weight="500"><tspan x="17.19" y="18.95">Content Type</tspan></text><text fill="#0C0C0D" font-family="SegoeUI-SemiBold, Segoe UI" font-size="15" font-weight="500"><tspan x="505.28" y="18.95">Action</tspan></text><path stroke="#0C0C0D" stroke-linecap="square" stroke-opacity=".3" d="M449.5 6.31v15.6"/><g fill="#0C0C0D" transform="translate(430 13)"><polygon points="4 0 8 4 0 4" transform="matrix(1 0 0 -1 0 4)"/></g><path stroke="#0C0C0D" stroke-linecap="square" stroke-opacity=".3" d="M1.5 27.5h661"/></g></g><g transform="translate(28 892)"><text fill="#0C0C0D" font-family="SegoeUI-SemiBold, Segoe UI" font-size="17" font-weight="500"><tspan x="0" y="18">Downloads</tspan></text><g transform="translate(0 33)"><text fill="#0C0C0D" font-family="SegoeUI, Segoe UI" font-size="15"><tspan x="28" y="16">Save files to</tspan></text><g transform="translate(0 2)"><use fill="#FFFFFF" xlink:href="#t"/><circle cx="10" cy="10" r="9.5" stroke="#0C0C0D" stroke-opacity=".3"/><circle cx="10" cy="10" r="6" fill="#0A84FF"/></g></g><g transform="translate(0 67)"><text fill="#0C0C0D" font-family="SegoeUI, Segoe UI" font-size="15"><tspan x="28" y="16">Always ask you where to save files</tspan></text><g transform="translate(0 2)"><use fill="#FFFFFF" xlink:href="#u"/><circle cx="10" cy="10" r="9.5" stroke="#0C0C0D" stroke-opacity=".3"/></g></g><g transform="translate(115 30)"><use fill="#FFFFFF" xlink:href="#v"/><rect width="391" height="29" x=".5" y=".5" stroke="#0C0C0D" stroke-opacity=".3"/><text fill="#0C0C0D" font-family="SegoeUI, Segoe UI" font-size="15" opacity=".4"><tspan x="11" y="20"> Downloads</tspan></text></g><g transform="translate(124 37)"><polygon fill="#FCB912" points=".667 2 .667 14 15.333 14 15.333 2.666 8.667 2.666 8 2"/><polygon fill="#FAEE5C" points="8.667 3.333 8 4.667 1.333 4.667 1.333 13.333 14.667 13.333 14.667 3.333"/><polygon fill="#80D2EB" points="9.667 14.333 9.667 11 6.333 11 6.333 14.333 3.667 14.333 3.667 8.333 12.333 8.333 12.333 14.333"/><path fill="#00BFE7" d="M3.33 8v6.67h3.34v-3.34h2.66v3.34h3.34V8H3.33zm.67.67h8V14h-2v-3.33H6V14H4V8.67z"/></g><g transform="translate(515 30)"><use fill="#FFFFFF" xlink:href="#w"/><rect width="149" height="29" x=".5" y=".5" stroke="#0C0C0D" stroke-opacity=".3"/><text fill="#0C0C0D" font-family="SegoeUI, Segoe UI" font-size="15"><tspan x="45.34" y="20">Choose...</tspan></text></g></g><g transform="translate(0 826)"><rect width="720" height="62"/><text fill="#0C0C0D" font-family="SegoeUI-Semilight, Segoe UI" font-size="22" font-weight="300"><tspan x="28" y="39">Files and Applications</tspan></text></g><g transform="translate(28 700)"><text fill="#0C0C0D" font-family="SegoeUI-SemiBold, Segoe UI" font-size="17" font-weight="500"><tspan x="0" y="18">Language</tspan></text><g transform="translate(0 68)"><text fill="#0C0C0D" font-family="SegoeUI, Segoe UI" font-size="15"><tspan x="28" y="16">Check your spelling as you type</tspan></text><g transform="translate(0 2)"><use fill="#FFFFFF" xlink:href="#x"/><rect width="19" height="19" x=".5" y=".5" stroke="#0C0C0D" stroke-opacity=".3" rx="2"/><g fill="#0A84FF" fill-rule="nonzero" transform="translate(2 2)"><path d="M3.25 7.84a1 1 0 1 0-1.5 1.32l4 4.5a1 1 0 0 0 1.58-.1l7-10.5a1 1 0 1 0-1.66-1.11l-6.28 9.42-3.14-3.53z"/></g></g></g><text fill="#0C0C0D" font-family="SegoeUI, Segoe UI" font-size="15"><tspan x="0" y="50">Choose your preferred language for displaying pages </tspan></text><g transform="translate(514 31)"><use fill="#FFFFFF" xlink:href="#y"/><rect width="149" height="29" x=".5" y=".5" stroke="#0C0C0D" stroke-opacity=".3"/><text fill="#0C0C0D" font-family="SegoeUI, Segoe UI" font-size="15"><tspan x="45.34" y="20">Choose...</tspan></text></g></g><g transform="translate(28 567)"><text fill="#0C0C0D" font-family="SegoeUI-SemiBold, Segoe UI" font-size="17" font-weight="500"><tspan x="0" y="18">Fonts &amp; Colors</tspan></text><text fill="#0C0C0D" font-family="SegoeUI, Segoe UI" font-size="15"><tspan x="0" y="50">Default font</tspan></text><text fill="#0C0C0D" font-family="SegoeUI, Segoe UI" font-size="15"><tspan x="286" y="50">Size</tspan></text><g transform="translate(514 31)"><use fill="#FFFFFF" xlink:href="#z"/><rect width="149" height="29" x=".5" y=".5" stroke="#0C0C0D" stroke-opacity=".3"/><text fill="#0C0C0D" font-family="SegoeUI, Segoe UI" font-size="15"><tspan x="37.41" y="20">Advanced...</tspan></text></g><g transform="translate(514 68)"><use fill="#FFFFFF" xlink:href="#A"/><rect width="149" height="29" x=".5" y=".5" stroke="#0C0C0D" stroke-opacity=".3"/><text fill="#0C0C0D" font-family="SegoeUI, Segoe UI" font-size="15"><tspan x="49.08" y="20">Colors...</tspan></text></g><g transform="translate(88 31)"><g><use fill="#FFFFFF" xlink:href="#B"/><rect width="189" height="29" x=".5" y=".5" stroke="#0C0C0D" stroke-opacity=".3"/><text fill="#0C0C0D" font-family="SegoeUI, Segoe UI" font-size="15"><tspan x="10" y="19">Helvetica Neue</tspan></text></g><polygon fill="#0C0C0D" points="4 0 8 4 0 4" transform="matrix(1 0 0 -1 174 17)"/></g><g transform="translate(321 31)"><g><use fill="#FFFFFF" xlink:href="#C"/><rect width="57" height="29" x=".5" y=".5" stroke="#0C0C0D" stroke-opacity=".3"/><text fill="#0C0C0D" font-family="SegoeUI, Segoe UI" font-size="15"><tspan x="10" y="19">16</tspan></text></g><polygon fill="#0C0C0D" points="4 0 8 4 0 4" transform="matrix(1 0 0 -1 42 17)"/></g></g><g transform="translate(0 502)"><rect width="720" height="62"/><text fill="#0C0C0D" font-family="SegoeUI-Semilight, Segoe UI" font-size="22" font-weight="300"><tspan x="28" y="39">Language and Appearance</tspan></text></g><g transform="translate(28 341)"><text fill="#0C0C0D" font-family="SegoeUI-SemiBold, Segoe UI" font-size="17" font-weight="500"><tspan x="0" y="18">Tabs</tspan></text><g transform="translate(0 34)"><text fill="#0C0C0D" font-family="SegoeUI, Segoe UI" font-size="15"><tspan x="28" y="16">Ctrl+Tab cycles through tabs in recently used order</tspan></text><g transform="translate(0 2)"><use fill="#FFFFFF" xlink:href="#D"/><rect width="19" height="19" x=".5" y=".5" stroke="#0C0C0D" stroke-opacity=".3" rx="2"/><g fill="#0A84FF" fill-rule="nonzero" transform="translate(2 2)"><path d="M3.25 7.84a1 1 0 1 0-1.5 1.32l4 4.5a1 1 0 0 0 1.58-.1l7-10.5a1 1 0 1 0-1.66-1.11l-6.28 9.42-3.14-3.53z"/></g></g></g><g transform="translate(0 68)"><text fill="#0C0C0D" font-family="SegoeUI, Segoe UI" font-size="15"><tspan x="28" y="16">Open new windows in a new tab instead</tspan></text><g transform="translate(0 2)"><use fill="#FFFFFF" xlink:href="#E"/><rect width="19" height="19" x=".5" y=".5" stroke="#0C0C0D" stroke-opacity=".3" rx="2"/><g fill="#0A84FF" fill-rule="nonzero" transform="translate(2 2)"><path d="M3.25 7.84a1 1 0 1 0-1.5 1.32l4 4.5a1 1 0 0 0 1.58-.1l7-10.5a1 1 0 1 0-1.66-1.11l-6.28 9.42-3.14-3.53z"/></g></g></g><g transform="translate(0 102)"><text fill="#0C0C0D" font-family="SegoeUI, Segoe UI" font-size="15"><tspan x="28" y="16">When you open a link in a new tab, switch to it immediately</tspan></text><g transform="translate(0 2)"><use fill="#FFFFFF" xlink:href="#F"/><rect width="19" height="19" x=".5" y=".5" stroke="#0C0C0D" stroke-opacity=".3" rx="2"/></g></g></g><g transform="translate(28 48)"><g transform="translate(136 128)"><g><use fill="#FFFFFF" xlink:href="#G"/><rect width="527" height="29" x=".5" y=".5" stroke="#0C0C0D" stroke-opacity=".3"/><text fill="#0C0C0D" font-family="SegoeUI, Segoe UI" font-size="15"><tspan x="10" y="19">Show your home page</tspan></text></g><polygon fill="#0C0C0D" points="4 0 8 4 0 4" transform="matrix(1 0 0 -1 512 17)"/></g><text fill="#0C0C0D" font-family="SegoeUI-SemiBold, Segoe UI" font-size="17" font-weight="500"><tspan x="0" y="18">Startup</tspan></text><g transform="translate(0 35)"><text fill="#0C0C0D" font-family="SegoeUI, Segoe UI" font-size="15"><tspan x="28" y="16">Always check if Firefox is your default browser</tspan></text><g transform="translate(0 2)"><use fill="#FFFFFF" xlink:href="#H"/><rect width="19" height="19" x=".5" y=".5" stroke="#0C0C0D" stroke-opacity=".3" rx="2"/></g></g><g transform="translate(514 66)"><use fill="#FFFFFF" xlink:href="#I"/><rect width="149" height="29" x=".5" y=".5" stroke="#0C0C0D" stroke-opacity=".3"/><text fill="#0C0C0D" font-family="SegoeUI, Segoe UI" font-size="15"><tspan x="25.92" y="20">Make Default...</tspan></text></g><g transform="translate(87 228)"><use fill="#FFFFFF" xlink:href="#J"/><rect width="186" height="29" x=".5" y=".5" stroke="#0C0C0D" stroke-opacity=".3"/><text fill="#0C0C0D" font-family="SegoeUI, Segoe UI" font-size="15"><tspan x="32.79" y="20">Use Current Pages</tspan></text></g><g transform="translate(477 228)"><use fill="#FFFFFF" xlink:href="#K"/><rect width="186" height="29" x=".5" y=".5" stroke="#0C0C0D" stroke-opacity=".3"/><text fill="#0C0C0D" font-family="SegoeUI, Segoe UI" font-size="15"><tspan x="33.45" y="20">Restore to Default</tspan></text></g><g transform="translate(282 228)"><use fill="#FFFFFF" xlink:href="#L"/><rect width="187" height="29" x=".5" y=".5" stroke="#0C0C0D" stroke-opacity=".3"/><text fill="#0C0C0D" font-family="SegoeUI, Segoe UI" font-size="15"><tspan x="41.38" y="20">Use Bookmark...</tspan></text></g><text fill="#0C0C0D" font-family="SegoeUI-SemiBold, Segoe UI" font-size="15" font-weight="500"><tspan x="54" y="85">Firefox is not your default browser</tspan></text><g transform="translate(26 71.8)"><path fill="#00D3E7" d="M9.94 0a9.01 9.01 0 0 0-9 9.42 1.07 1.07 0 0 0 .13 2.12h.21A9.01 9.01 0 1 0 9.94 0"/><path fill="#00A1C1" d="M18.93 9.41v-.4c0-2.4-.93-4.6-2.47-6.2A9.26 9.26 0 0 1 3.72 15.54a9 9 0 0 0 14.85-4l.21-.01c.6 0 1.07-.48 1.07-1.07.01-.54-.4-.99-.92-1.06"/><path fill="#323B59" d="M5.47 5.75a.99.99 0 0 0-.99.99v2.22a.99.99 0 1 0 1.98 0V6.74a.99.99 0 0 0-1-.99m8.98 0a.99.99 0 0 0-1 .99v2.22a.99.99 0 1 0 1.98 0V6.74a.99.99 0 0 0-.98-.99m-4.5 5.47a2.27 2.27 0 0 0-2.34 2.13c-.02.23.09.45.27.58.19.14.43.17.64.09 0 0 .47-.17 1.34-.17.91 0 1.55.19 1.56.19a.69.69 0 0 0 .61-.11.67.67 0 0 0 .26-.58 2.27 2.27 0 0 0-2.34-2.13"/><path fill="#00A1C1" d="M4.59 6.22c-.36 0-.72-.11-1.03-.32a.31.31 0 1 1 .35-.53 1.25 1.25 0 0 0 1.8-.47.31.31 0 1 1 .56.28 1.88 1.88 0 0 1-1.68 1.04m10.47 0a1.88 1.88 0 0 1-1.68-1.04.31.31 0 1 1 .56-.28 1.24 1.24 0 0 0 1.8.48.32.32 0 0 1 .35.53c-.3.2-.66.3-1.03.3"/></g><text fill="#0C0C0D" font-family="SegoeUI, Segoe UI" font-size="15"><tspan x="0" y="147">When Firefox starts</tspan></text><text fill="#0C0C0D" font-family="SegoeUI, Segoe UI" font-size="15"><tspan x="1" y="210">Home page</tspan></text><g transform="translate(87 190)"><use fill="#FFFFFF" xlink:href="#M"/><rect width="576" height="29" x=".5" y=".5" stroke="#0C0C0D" stroke-opacity=".3"/><text fill="#0C0C0D" font-family="SegoeUI, Segoe UI" font-size="15" opacity=".4"><tspan x="11" y="20">Firefox Start Page</tspan></text></g></g><g transform="translate(0 -16)"><rect width="720" height="62"/><text fill="#0C0C0D" font-family="SegoeUI-Semilight, Segoe UI" font-size="22" font-weight="300"><tspan x="28" y="39">General</tspan></text></g><path fill="#0C0C0D" d="M28 1850h664v1H28v-1zm0 154h664v1H28v-1zm0 124h664v1H28v-1zm0 226h664v1H28v-1zm0-1852h664v1H28v-1zm0 324h664v1H28v-1zm0 632h664v1H28v-1z" opacity=".15"/></g></g><g mask="url(#c)"><g transform="translate(721 15)"><use fill="#FFFFFF" xlink:href="#N"/><rect width="209" height="29" x=".5" y=".5" stroke="#0A84FF"/><path fill="#0C0C0D" fill-rule="nonzero" d="M17.3 17.72a1 1 0 1 1 1.41-1.41l4.96 4.95a1 1 0 1 1-1.41 1.41l-4.95-4.95zm-3.26 1.32a6 6 0 1 1 0-12 6 6 0 0 1 0 12zm0-2a4 4 0 1 0 0-8 4 4 0 0 0 0 8z" opacity=".4"/><text fill="#0C0C0D" fill-opacity=".4" font-family="SegoeUI, Segoe UI" font-size="15"><tspan x="33" y="20">Find in Options</tspan></text><text fill="#000000" font-family="SegoeUI, Segoe UI" font-size="15"><tspan x="31" y="19">|</tspan></text></g></g></g><rect width="1200" height="610" y="84" fill="#0C0C0D" fill-opacity=".6"/><g transform="translate(258 154)"><g transform="translate(33 36)"><mask id="P" fill="white"><use xlink:href="#O"/></mask><g mask="url(#P)"><g transform="translate(0 -3)"><g transform="translate(0 30)"><polygon fill="#3CB89C" points="356 -356 364 -356 364 364 356 364" opacity=".5" transform="rotate(90 360 4)"/><text font-family="SegoeUI-Bold, Segoe UI" font-size="6" font-weight="bold"><tspan x="5" y="6" fill="#0C0C0D">8 </tspan> <tspan x="11.76" y="6" fill="#FFFFFF" font-family="SegoeUI-SemiBold, Segoe UI" font-weight="500"> </tspan> <tspan x="15.06" y="6" fill="#666666" font-family="SegoeUI-SemiBold, Segoe UI" font-weight="500">S</tspan></text></g><rect width="720" height="30"/></g></g><g mask="url(#P)"><g transform="translate(0 35)"><g transform="translate(0 30)"><polygon fill="#3CB89C" points="356 -356 364 -356 364 364 356 364" opacity=".5" transform="rotate(90 360 4)"/><text font-family="SegoeUI-Bold, Segoe UI" font-size="6" font-weight="bold"><tspan x="5" y="6" fill="#0C0C0D">8 </tspan> <tspan x="11.76" y="6" fill="#FFFFFF" font-family="SegoeUI-SemiBold, Segoe UI" font-weight="500"> </tspan> <tspan x="15.06" y="6" fill="#666666" font-family="SegoeUI-SemiBold, Segoe UI" font-weight="500">S</tspan></text></g><rect width="720" height="30"/></g></g><g mask="url(#P)"><g transform="translate(0 73)"><g transform="translate(0 30)"><polygon fill="#3CB89C" points="356 -356 364 -356 364 364 356 364" opacity=".5" transform="rotate(90 360 4)"/><text font-family="SegoeUI-Bold, Segoe UI" font-size="6" font-weight="bold"><tspan x="5" y="6" fill="#0C0C0D">8 </tspan> <tspan x="11.76" y="6" fill="#FFFFFF" font-family="SegoeUI-SemiBold, Segoe UI" font-weight="500"> </tspan> <tspan x="15.06" y="6" fill="#666666" font-family="SegoeUI-SemiBold, Segoe UI" font-weight="500">S</tspan></text></g><rect width="720" height="30"/></g></g></g><g transform="translate(33 1)"><rect width="605" height="32" fill="#9DDBCD" fill-opacity=".8"/><text font-family="SegoeUI-Bold, Segoe UI" font-size="6" font-weight="bold"><tspan x="5" y="18" fill="#0C0C0D">32 </tspan> <tspan x="15.21" y="18" fill="#666666" font-family="SegoeUI-SemiBold, Segoe UI" font-weight="500">L</tspan></text></g><use fill="#FAFAFC" xlink:href="#Q"/><rect width="685" height="541" x="-.5" y="-.5" stroke="#666666"/><g transform="translate(28 60)"><text fill="#0C0C0D" font-family="SegoeUI, Segoe UI" font-size="15"><tspan x="446" y="58">Size</tspan></text><g transform="translate(481 38)"><g><use fill="#FFFFFF" xlink:href="#R"/><rect width="57" height="29" x=".5" y=".5" stroke="#0C0C0D" stroke-opacity=".3"/><text fill="#0C0C0D" font-family="SegoeUI, Segoe UI" font-size="15"><tspan x="10" y="19">16</tspan></text></g><polygon fill="#0C0C0D" points="4 0 8 4 0 4" transform="matrix(1 0 0 -1 42 17)"/></g></g><g><rect width="684" height="30" fill="#E6E6E6"/><path fill="#000000" fill-rule="nonzero" d="M672.06 15l3.47-3.47a.75.75 0 0 0-1.06-1.06L671 13.94l-3.47-3.47a.75.75 0 1 0-1.06 1.06l3.47 3.47-3.47 3.47a.75.75 0 1 0 1.06 1.06l3.47-3.47 3.47 3.47a.75.75 0 0 0 1.06-1.06L672.06 15z"/></g></g></g></g></svg>