<svg xmlns="http://www.w3.org/2000/svg" xmlns:xlink="http://www.w3.org/1999/xlink" viewBox="0 0 360 376"><defs><rect id="a" width="46" height="22" rx="2"/><rect id="c" width="230" height="266" rx="4"/><filter id="d" width="105.7%" height="104.9%" x="-2.8%" y="-2.1%" filterUnits="objectBoundingBox"><feOffset dy="1" in="SourceAlpha" result="shadowOffsetOuter1"/><feGaussianBlur in="shadowOffsetOuter1" result="shadowBlurOuter1" stdDeviation="2"/><feColorMatrix in="shadowBlurOuter1" values="0 0 0 0 0.0470588235 0 0 0 0 0.0470588235 0 0 0 0 0.0509803922 0 0 0 0.103091033 0"/></filter><rect id="f" width="230" height="122"/><rect id="h" width="230" height="144"/><rect id="i" width="46" height="22" rx="2"/><rect id="k" width="46" height="22" rx="2"/><rect id="n" width="323" height="99" x="21" y="235" rx="4"/><filter id="m" width="104%" height="113.1%" x="-2%" y="-5.6%" filterUnits="objectBoundingBox"><feOffset dy="1" in="SourceAlpha" result="shadowOffsetOuter1"/><feGaussianBlur in="shadowOffsetOuter1" result="shadowBlurOuter1" stdDeviation="2"/><feColorMatrix in="shadowBlurOuter1" values="0 0 0 0 0.0470588235 0 0 0 0 0.0470588235 0 0 0 0 0.0509803922 0 0 0 0.103091033 0"/></filter><rect id="o" width="46" height="22" rx="2"/><rect id="q" width="46" height="22" rx="2"/></defs><g fill="none" fill-rule="evenodd"><g transform="translate(68 -73)"><g transform="translate(26 133)"><g fill="#B5007F" transform="translate(21)"><rect width="4" height="1" transform="translate(0 4)"/><rect width="1" height="9"/><rect width="1" height="9" transform="translate(3)"/></g><g transform="translate(0 9)"><rect width="8" height="8" fill="#B5007F" transform="rotate(45 11.086 27.935)"/><g transform="translate(0 4)"><mask id="b" fill="white"><use xlink:href="#a"/></mask><use fill="#ED00B5" xlink:href="#a"/><g fill="#B5007F" mask="url(#b)"><rect width="46" height="22"/></g><text fill="#FFFFFF" font-family="FiraMono-Regular, Fira Mono" font-size="12"><tspan x="8.91" y="15">12px</tspan></text></g></g></g><mask id="e" fill="white"><use xlink:href="#c"/></mask><use fill="black" filter="url(#d)" xlink:href="#c"/><use fill="#FFFFFF" xlink:href="#c"/><g mask="url(#e)"><mask id="g" fill="white"><use xlink:href="#f"/></mask><use fill="#D8D8D8" xlink:href="#f"/><g mask="url(#g)"><use fill="#D7D7DB" xlink:href="#h"/></g></g><rect width="229" height="1" x=".5" y="121.5" stroke="#000000" stroke-opacity=".1" mask="url(#e)"/><rect width="34" height="8" x="16" y="139" fill="#D7D7DB" rx="1"/><rect width="14" height="14" x="16" y="240" fill="#D7D7DB" rx="1"/><rect width="40" height="14" x="34" y="240" fill="#D7D7DB" rx="1"/><rect width="198" height="12" x="16" y="157" fill="#4A4A4F" rx="1"/><rect width="198" height="12" x="16" y="175" fill="#4A4A4F" rx="1"/><rect width="198" height="12" x="16" y="195" fill="#737373" rx="1"/><rect width="113" height="12" x="16" y="213" fill="#737373" rx="1"/></g><path fill="#ED00B5" fill-opacity=".2" d="M84-73v266H72a4 4 0 0 1-4-4V-69a4 4 0 0 1 4-4h12z"/><path fill="#ED00B5" fill-opacity=".2" d="M282-73v266h12a4 4 0 0 0 4-4V-69a4 4 0 0 0-4-4h-12z"/><g transform="translate(53 122)"><rect width="8" height="8" fill="#B5007F" transform="rotate(45 11.086 27.935)"/><g transform="translate(0 4)"><mask id="j" fill="white"><use xlink:href="#i"/></mask><use fill="#ED00B5" xlink:href="#i"/><g fill="#B5007F" mask="url(#j)"><rect width="46" height="22"/></g><path fill="#FFFFFF" d="M15.12 14.18V15h-4.77v-.82h2.03V7.84L10.5 8.98l-.45-.71 2.46-1.54h.9v7.45h1.7zm6.14-4.27c.35.2.63.48.84.87a3 3 0 0 1 .31 1.44c0 .59-.11 1.1-.34 1.55a2.48 2.48 0 0 1-2.26 1.36c-.96 0-1.66-.35-2.1-1.04-.43-.7-.65-1.7-.65-2.99 0-.91.12-1.7.37-2.38.24-.68.6-1.2 1.05-1.57a2.56 2.56 0 0 1 1.65-.55c.6 0 1.15.16 1.65.5l-.4.66c-.39-.23-.81-.34-1.26-.34-.63 0-1.12.3-1.48.88-.36.6-.54 1.4-.56 2.43.26-.39.55-.67.88-.84a2.45 2.45 0 0 1 2.3.02zm-.28 3.86c.27-.36.4-.87.4-1.52 0-1.2-.49-1.81-1.46-1.81-.39 0-.73.1-1.04.32-.3.21-.57.5-.79.86.02.93.16 1.62.44 2.05.27.43.7.65 1.28.65.51 0 .9-.19 1.17-.55zm8.66-1.94c0 1-.21 1.8-.63 2.4-.41.6-1.02.9-1.8.9-.7 0-1.26-.24-1.69-.72v3.01l-1 .12V8.68h.86l.08.88c.23-.32.51-.58.84-.75.32-.18.67-.27 1.05-.27 1.52 0 2.29 1.1 2.29 3.3zm-3.42-2.18c-.26.19-.5.43-.7.72v3.13c.17.25.38.44.63.58.25.14.53.21.82.21.53 0 .93-.2 1.19-.6.26-.4.39-1.03.39-1.86 0-.83-.12-1.45-.35-1.86-.23-.4-.6-.61-1.1-.61-.31 0-.6.1-.88.29zM31.2 15l2.32-3.34-2.05-2.98h1.2l1.47 2.35 1.47-2.35h1.17l-2.06 2.94L37.04 15h-1.22l-1.74-2.71L32.34 15h-1.15z" mask="url(#j)"/></g><rect width="5.61" height="5.61" x="20.27" y="1.16" fill="#B5007F" transform="rotate(-45 23.071 3.964)"/></g><g transform="translate(267 113)"><g fill="#B5007F" transform="translate(15)"><rect width="16" height="1" transform="translate(0 4)"/><rect width="1" height="9"/><rect width="1" height="9" transform="translate(15)"/></g><g transform="translate(0 9)"><rect width="8" height="8" fill="#B5007F" transform="rotate(45 11.086 27.935)"/><g transform="translate(0 4)"><mask id="l" fill="white"><use xlink:href="#k"/></mask><use fill="#ED00B5" xlink:href="#k"/><g fill="#B5007F" mask="url(#l)"><rect width="46" height="22"/></g><path fill="#FFFFFF" d="M15.12 14.18V15h-4.77v-.82h2.03V7.84L10.5 8.98l-.45-.71 2.46-1.54h.9v7.45h1.7zm6.14-4.27c.35.2.63.48.84.87a3 3 0 0 1 .31 1.44c0 .59-.11 1.1-.34 1.55a2.48 2.48 0 0 1-2.26 1.36c-.96 0-1.66-.35-2.1-1.04-.43-.7-.65-1.7-.65-2.99 0-.91.12-1.7.37-2.38.24-.68.6-1.2 1.05-1.57a2.56 2.56 0 0 1 1.65-.55c.6 0 1.15.16 1.65.5l-.4.66c-.39-.23-.81-.34-1.26-.34-.63 0-1.12.3-1.48.88-.36.6-.54 1.4-.56 2.43.26-.39.55-.67.88-.84a2.45 2.45 0 0 1 2.3.02zm-.28 3.86c.27-.36.4-.87.4-1.52 0-1.2-.49-1.81-1.46-1.81-.39 0-.73.1-1.04.32-.3.21-.57.5-.79.86.02.93.16 1.62.44 2.05.27.43.7.65 1.28.65.51 0 .9-.19 1.17-.55zm8.66-1.94c0 1-.21 1.8-.63 2.4-.41.6-1.02.9-1.8.9-.7 0-1.26-.24-1.69-.72v3.01l-1 .12V8.68h.86l.08.88c.23-.32.51-.58.84-.75.32-.18.67-.27 1.05-.27 1.52 0 2.29 1.1 2.29 3.3zm-3.42-2.18c-.26.19-.5.43-.7.72v3.13c.17.25.38.44.63.58.25.14.53.21.82.21.53 0 .93-.2 1.19-.6.26-.4.39-1.03.39-1.86 0-.83-.12-1.45-.35-1.86-.23-.4-.6-.61-1.1-.61-.31 0-.6.1-.88.29zM31.2 15l2.32-3.34-2.05-2.98h1.2l1.47 2.35 1.47-2.35h1.17l-2.06 2.94L37.04 15h-1.22l-1.74-2.71L32.34 15h-1.15z" mask="url(#l)"/></g></g></g><path stroke="#B5007F" stroke-linecap="square" d="M68.5 113.5v8m15-8v8m0-4h-15"/><use fill="black" filter="url(#m)" xlink:href="#n"/><use fill="#FFFFFF" xlink:href="#n"/><rect width="283" height="60" x="41" y="254" fill="#F9F9FA" rx="4"/><g transform="translate(59 269)"><rect width="31" height="10" y="18" fill="#D7D7DB" rx="1"/><rect width="42" height="10" fill="#737373" rx="1"/></g><g transform="translate(144 269)"><rect width="21" height="10" fill="#737373" rx="1"/><rect width="42" height="10" y="18" fill="#D7D7DB" rx="1"/></g><g transform="translate(229 269)"><rect width="77" height="10" y="18" fill="#D7D7DB" rx="1"/><circle cx="5.5" cy="5.5" r="5.5" fill="#737373"/><circle cx="22" cy="5.5" r="5.5" fill="#737373"/><circle cx="38.5" cy="5.5" r="5.5" fill="#737373"/><circle cx="55" cy="5.5" r="5.5" fill="#737373"/><circle cx="71.5" cy="5.5" r="5.5" fill="#D7D7DB"/></g><g transform="translate(309 276)"><g fill="#B5007F" transform="translate(15)"><rect width="20" height="1" transform="translate(0 4)"/><rect width="1" height="9"/><rect width="1" height="9" transform="translate(19)"/></g><g transform="translate(0 9)"><rect width="8" height="8" fill="#B5007F" transform="rotate(45 11.086 27.935)"/><g transform="translate(0 4)"><mask id="p" fill="white"><use xlink:href="#o"/></mask><use fill="#ED00B5" xlink:href="#o"/><g fill="#B5007F" mask="url(#p)"><rect width="46" height="22"/></g><path fill="#FFFFFF" d="M13.47 6.9c.38.2.67.47.87.82.2.35.3.74.3 1.18 0 .52-.12 1.01-.36 1.5-.23.47-.61 1-1.13 1.57-.52.57-1.26 1.3-2.2 2.17h3.88l-.12.86H9.79v-.82a48.03 48.03 0 0 0 2.4-2.42c.53-.58.9-1.08 1.1-1.5a3 3 0 0 0 .3-1.32c0-.46-.14-.83-.4-1.1-.27-.26-.63-.39-1.1-.39-.39 0-.71.07-.97.2a2.7 2.7 0 0 0-.8.68l-.7-.54c.33-.41.7-.71 1.1-.9.4-.2.88-.29 1.42-.29.5 0 .95.1 1.33.3zm8.25.8c.46.73.7 1.78.7 3.16a6 6 0 0 1-.7 3.17 2.23 2.23 0 0 1-2 1.1c-.89 0-1.56-.36-2.02-1.1a6 6 0 0 1-.69-3.17c0-1.38.23-2.43.7-3.16a2.23 2.23 0 0 1 2-1.1c.88 0 1.55.37 2.01 1.1zm-3.65 3.16c0 2.3.55 3.46 1.64 3.46 1.1 0 1.65-1.16 1.65-3.46s-.55-3.44-1.65-3.44c-1.1 0-1.64 1.14-1.64 3.44zm2.2-.55c.16.15.24.33.24.55 0 .22-.08.41-.23.56a.77.77 0 0 1-.57.23.75.75 0 0 1-.55-.23.78.78 0 0 1-.23-.56c0-.22.08-.4.23-.55a.75.75 0 0 1 .55-.23c.23 0 .42.08.57.23zm9.37 1.52c0 1-.21 1.8-.63 2.4-.41.6-1.02.9-1.8.9-.7 0-1.26-.24-1.69-.72v3.01l-1 .12V8.68h.86l.08.88c.23-.32.51-.58.84-.75.32-.18.67-.27 1.05-.27 1.52 0 2.29 1.1 2.29 3.3zm-3.42-2.18c-.26.19-.5.43-.7.72v3.13c.17.25.38.44.63.58.25.14.53.21.82.21.53 0 .93-.2 1.19-.6.26-.4.39-1.03.39-1.86 0-.83-.12-1.45-.35-1.86-.23-.4-.6-.61-1.1-.61-.31 0-.6.1-.88.29zM31.2 15l2.32-3.34-2.05-2.98h1.2l1.47 2.35 1.47-2.35h1.17l-2.06 2.94L37.04 15h-1.22l-1.74-2.71L32.34 15h-1.15z" mask="url(#p)"/></g></g></g><path fill="#ED00B5" fill-opacity=".2" d="M41 235v100H25a4 4 0 0 1-4-4v-92a4 4 0 0 1 4-4h16z"/><g transform="translate(6 276)"><g fill="#B5007F" transform="translate(15)"><rect width="20" height="1" transform="translate(0 4)"/><rect width="1" height="9"/><rect width="1" height="9" transform="translate(19)"/></g><g transform="translate(0 9)"><rect width="8" height="8" fill="#B5007F" transform="rotate(45 11.086 27.935)"/><g transform="translate(0 4)"><mask id="r" fill="white"><use xlink:href="#q"/></mask><use fill="#ED00B5" xlink:href="#q"/><g fill="#B5007F" mask="url(#r)"><rect width="46" height="22"/></g><path fill="#FFFFFF" d="M13.47 6.9c.38.2.67.47.87.82.2.35.3.74.3 1.18 0 .52-.12 1.01-.36 1.5-.23.47-.61 1-1.13 1.57-.52.57-1.26 1.3-2.2 2.17h3.88l-.12.86H9.79v-.82a48.03 48.03 0 0 0 2.4-2.42c.53-.58.9-1.08 1.1-1.5a3 3 0 0 0 .3-1.32c0-.46-.14-.83-.4-1.1-.27-.26-.63-.39-1.1-.39-.39 0-.71.07-.97.2a2.7 2.7 0 0 0-.8.68l-.7-.54c.33-.41.7-.71 1.1-.9.4-.2.88-.29 1.42-.29.5 0 .95.1 1.33.3zm8.25.8c.46.73.7 1.78.7 3.16a6 6 0 0 1-.7 3.17 2.23 2.23 0 0 1-2 1.1c-.89 0-1.56-.36-2.02-1.1a6 6 0 0 1-.69-3.17c0-1.38.23-2.43.7-3.16a2.23 2.23 0 0 1 2-1.1c.88 0 1.55.37 2.01 1.1zm-3.65 3.16c0 2.3.55 3.46 1.64 3.46 1.1 0 1.65-1.16 1.65-3.46s-.55-3.44-1.65-3.44c-1.1 0-1.64 1.14-1.64 3.44zm2.2-.55c.16.15.24.33.24.55 0 .22-.08.41-.23.56a.77.77 0 0 1-.57.23.75.75 0 0 1-.55-.23.78.78 0 0 1-.23-.56c0-.22.08-.4.23-.55a.75.75 0 0 1 .55-.23c.23 0 .42.08.57.23zm9.37 1.52c0 1-.21 1.8-.63 2.4-.41.6-1.02.9-1.8.9-.7 0-1.26-.24-1.69-.72v3.01l-1 .12V8.68h.86l.08.88c.23-.32.51-.58.84-.75.32-.18.67-.27 1.05-.27 1.52 0 2.29 1.1 2.29 3.3zm-3.42-2.18c-.26.19-.5.43-.7.72v3.13c.17.25.38.44.63.58.25.14.53.21.82.21.53 0 .93-.2 1.19-.6.26-.4.39-1.03.39-1.86 0-.83-.12-1.45-.35-1.86-.23-.4-.6-.61-1.1-.61-.31 0-.6.1-.88.29zM31.2 15l2.32-3.34-2.05-2.98h1.2l1.47 2.35 1.47-2.35h1.17l-2.06 2.94L37.04 15h-1.22l-1.74-2.71L32.34 15h-1.15z" mask="url(#r)"/></g></g></g><g fill="#ED00B5" fill-opacity=".2" transform="matrix(0 1 1 0 324 235)"><path d="M0 0h100v16a4 4 0 0 1-4 4H4a4 4 0 0 1-4-4V0z"/></g></g></svg>