<?xml version="1.0" encoding="utf-8"?>
<!-- Generator: Adobe Illustrator 21.1.0, SVG Export Plug-In . SVG Version: 6.00 Build 0)  -->
<svg version="1.1" id="Layer_1" xmlns="http://www.w3.org/2000/svg" xmlns:xlink="http://www.w3.org/1999/xlink" x="0px" y="0px"
	 viewBox="0 0 300 300" style="enable-background:new 0 0 300 300;" xml:space="preserve">
<style type="text/css">
	.st0{filter:url(#Adobe_OpacityMaskFilter);}
	.st1{fill:#FFFFFF;}
	.st2{mask:url(#b);}
	.st3{filter:url(#Adobe_OpacityMaskFilter_1_);}
	.st4{mask:url(#d);fill:#D7D7DB;}
	.st5{filter:url(#Adobe_OpacityMaskFilter_2_);}
	.st6{mask:url(#f);fill:#D7D7DB;}
	.st7{opacity:0.1;fill:none;stroke:#000000;stroke-width:14;enable-background:new    ;}
	.st8{fill:#0C0C0D;fill-opacity:0.8;}
	.st9{fill:none;stroke:#0A84FF;stroke-width:2;}
	.st10{fill:#0A84FF;fill-opacity:0.25;}
	.st11{enable-background:new    ;}
	.st12{fill:#0A84FF;}
</style>
<g>
	<g transform="translate(46 46)">
		<defs>
			<filter id="Adobe_OpacityMaskFilter" filterUnits="userSpaceOnUse" x="0" y="0" width="209" height="209">
				<feColorMatrix  type="matrix" values="1 0 0 0 0  0 1 0 0 0  0 0 1 0 0  0 0 0 1 0"/>
			</filter>
		</defs>
		<mask maskUnits="userSpaceOnUse" x="0" y="0" width="209" height="209" id="b">
			<g class="st0">
				<path id="a" class="st1" d="M0,0h209v209H0V0z"/>
			</g>
		</mask>
		<g class="st2">
			<defs>
				<filter id="Adobe_OpacityMaskFilter_1_" filterUnits="userSpaceOnUse" x="0" y="0" width="209" height="209">
					<feColorMatrix  type="matrix" values="1 0 0 0 0  0 1 0 0 0  0 0 1 0 0  0 0 0 1 0"/>
				</filter>
			</defs>
			<mask maskUnits="userSpaceOnUse" x="0" y="0" width="209" height="209" id="d">
				<g class="st3">
					<path id="c" class="st1" d="M0,0h209v208.8H0V0z"/>
				</g>
			</mask>
			<path class="st4" d="M0,0h209v1H0V0z M0,13h209v1H0V13z M0,26h209v1H0V26z M0,39h209v1H0V39z M0,52h209v1H0V52z M0,65h209v1H0V65
				z M0,78h209v1H0V78z M0,91h209v1H0V91z M0,104h209v1H0V104z M0,117h209v1H0V117z M0,130h209v1H0V130z M0,143h209v1H0V143z M0,156
				h209v1H0V156z M0,169h209v1H0V169z M0,182h209v1H0V182z M0,195h209v1H0V195z M0,208h209v1H0V208z"/>
		</g>
		<defs>
			<filter id="Adobe_OpacityMaskFilter_2_" filterUnits="userSpaceOnUse" x="0" y="0" width="209" height="209">
				<feColorMatrix  type="matrix" values="1 0 0 0 0  0 1 0 0 0  0 0 1 0 0  0 0 0 1 0"/>
			</filter>
		</defs>
		<mask maskUnits="userSpaceOnUse" x="0" y="0" width="209" height="209" id="f">
			<g class="st5">
				<path id="e" class="st1" d="M0,0h209v209H0V0z"/>
			</g>
		</mask>
		<path class="st6" d="M0,0h1v209H0V0z M13,0h1v209h-1V0z M26,0h1v209h-1V0z M39,0h1v209h-1V0z M52,0h1v209h-1V0z M65,0h1v209h-1V0z
			 M78,0h1v209h-1V0z M91,0h1v209h-1V0z M104,0h1v209h-1V0z M117,0h1v209h-1V0z M130,0h1v209h-1V0z M143,0h1v209h-1V0z M156,0h1v209
			h-1V0z M169,0h1v209h-1V0z M182,0h1v209h-1V0z M195,0h1v209h-1V0z M208,0h1v209h-1V0z"/>
		<path class="st7" d="M7,7h195v195H7V7z"/>
	</g>
	<g>
		<path id="g" class="st1" d="M176.8,225.3c14.7-5.6,25.1-19.8,25.1-36.5v-59.5l-51.4-51.4l-51.4,51.4v62.5
			c0,16.1,10.6,29.7,25.1,34.3v-63c0-7.2,5.9-13,13.1-13h26.3c7.3,0,13.1,5.8,13.1,13L176.8,225.3L176.8,225.3z M72.4,156l-3.7,3.7
			c-5.1,5.1-13.3,5.1-18.4,0s-5.1-13.3,0-18.4l91-91c5.1-5.1,13.3-5.1,18.4,0l91,91c5.1,5.1,5.1,13.3,0,18.4
			c-2.5,2.5-5.9,3.8-9.2,3.8s-6.7-1.3-9.2-3.8l-3.7-3.7v57.5c0,22.6-18.4,41-41,41h-67.2c-26.5,0-48-21.5-48-48L72.4,156L72.4,156z
			 M157,202.5c-3.6,0-6.5-2.9-6.5-6.5s2.9-6.5,6.5-6.5s6.5,2.9,6.5,6.5S160.6,202.5,157,202.5"/>
	</g>
	<g>
		<path id="g_1_" class="st8" d="M176.8,225.3c14.7-5.6,25.1-19.8,25.1-36.5v-59.5l-51.4-51.4l-51.4,51.4v62.5
			c0,16.1,10.6,29.7,25.1,34.3v-63c0-7.2,5.9-13,13.1-13h26.3c7.3,0,13.1,5.8,13.1,13L176.8,225.3L176.8,225.3z M72.4,156l-3.7,3.7
			c-5.1,5.1-13.3,5.1-18.4,0s-5.1-13.3,0-18.4l91-91c5.1-5.1,13.3-5.1,18.4,0l91,91c5.1,5.1,5.1,13.3,0,18.4
			c-2.5,2.5-5.9,3.8-9.2,3.8s-6.7-1.3-9.2-3.8l-3.7-3.7v57.5c0,22.6-18.4,41-41,41h-67.2c-26.5,0-48-21.5-48-48L72.4,156L72.4,156z
			 M157,202.5c-3.6,0-6.5-2.9-6.5-6.5s2.9-6.5,6.5-6.5s6.5,2.9,6.5,6.5S160.6,202.5,157,202.5"/>
	</g>
	<path class="st9" d="M190,177.5L190,177.5c21,0,38,17,38,38l0,0c0,21-17,38-38,38l0,0c-21,0-38-17-38-38l0,0
		C152,194.5,169,177.5,190,177.5z"/>
	<path class="st9" d="M137,153L137,153c21,0,38,17,38,38l0,0c0,21-17,38-38,38l0,0c-21,0-38-17-38-38l0,0C99,170,116,153,137,153z"
		/>
	<g>
		<path id="h" class="st10" d="M189,216h40v52h-40V216z"/>
	</g>
	<g>
		<path id="j" class="st10" d="M98,189h40v79H98V189z"/>
	</g>
	<g class="st11">
		<path class="st12" d="M113.4,274.2c0,0.9-0.7,1.6-1.5,1.8c0.9,0.1,1.7,0.7,1.7,1.9c0,1.3-1.1,2.3-2.8,2.3c-1,0-1.9-0.3-2.5-1.1
			l0.8-0.7c0.4,0.5,1,0.7,1.6,0.7c0.9,0,1.5-0.5,1.5-1.4c0-1-0.6-1.3-1.5-1.3h-0.6l0.1-0.9h0.5c0.7,0,1.3-0.4,1.3-1.2
			c0-0.7-0.6-1.1-1.3-1.1c-0.6,0-1.1,0.2-1.6,0.7l-0.6-0.7c0.7-0.6,1.4-0.9,2.3-0.9C112.5,272.3,113.4,273.1,113.4,274.2z"/>
		<path class="st12" d="M120.5,277.1c0,1.8-0.8,3.1-2.2,3.1c-0.6,0-1.1-0.2-1.5-0.6v2.7l-1.2,0.1v-8.2h1.1l0.1,0.7
			c0.4-0.6,1-0.9,1.7-0.9C119.9,274,120.5,275.2,120.5,277.1z M116.8,275.8v2.7c0.3,0.4,0.7,0.6,1.1,0.6c0.8,0,1.3-0.6,1.3-2.1
			c0-1.5-0.4-2.1-1.2-2.1C117.5,275,117.1,275.4,116.8,275.8z"/>
		<path class="st12" d="M121.7,280l2.1-3.1l-1.9-2.8h1.4l1.2,2l1.2-2h1.4l-1.8,2.7l2.1,3.1h-1.4l-1.4-2.4L123,280H121.7z"/>
	</g>
	<g class="st11">
		<path class="st12" d="M204.4,274.2c0,0.9-0.7,1.6-1.5,1.8c0.9,0.1,1.8,0.7,1.8,1.9c0,1.3-1.1,2.3-2.8,2.3c-1,0-1.9-0.3-2.5-1.1
			l0.8-0.7c0.4,0.5,1,0.7,1.6,0.7c0.9,0,1.5-0.5,1.5-1.4c0-1-0.6-1.3-1.5-1.3h-0.6l0.1-0.9h0.5c0.7,0,1.3-0.4,1.3-1.2
			c0-0.7-0.6-1.1-1.3-1.1c-0.6,0-1.1,0.2-1.6,0.7l-0.7-0.7c0.7-0.6,1.4-0.9,2.3-0.9C203.5,272.3,204.4,273.1,204.4,274.2z"/>
		<path class="st12" d="M211.5,277.1c0,1.8-0.8,3.1-2.2,3.1c-0.6,0-1.1-0.2-1.5-0.6v2.7l-1.2,0.1v-8.2h1.1l0.1,0.7
			c0.4-0.6,1-0.9,1.7-0.9C210.9,274,211.5,275.2,211.5,277.1z M207.8,275.8v2.7c0.3,0.4,0.7,0.6,1.1,0.6c0.8,0,1.3-0.6,1.3-2.1
			c0-1.5-0.4-2.1-1.2-2.1C208.5,275,208.1,275.4,207.8,275.8z"/>
		<path class="st12" d="M212.7,280l2.1-3.1l-1.9-2.8h1.4l1.2,2l1.2-2h1.4l-1.8,2.7l2.1,3.1h-1.4l-1.4-2.4L214,280H212.7z"/>
	</g>
</g>
</svg>
