<?xml version="1.0" encoding="utf-8"?>
<!-- Generator: Adobe Illustrator 21.1.0, SVG Export Plug-In . SVG Version: 6.00 Build 0)  -->
<svg version="1.1" id="Layer_1" xmlns="http://www.w3.org/2000/svg" xmlns:xlink="http://www.w3.org/1999/xlink" x="0px" y="0px"
	 viewBox="0 0 300 300" style="enable-background:new 0 0 300 300;" xml:space="preserve">
<style type="text/css">
	.st0{filter:url(#Adobe_OpacityMaskFilter);}
	.st1{fill:#FFFFFF;}
	.st2{mask:url(#b);}
	.st3{filter:url(#Adobe_OpacityMaskFilter_1_);}
	.st4{mask:url(#d);fill:#D7D7DB;}
	.st5{filter:url(#Adobe_OpacityMaskFilter_2_);}
	.st6{mask:url(#f);fill:#D7D7DB;}
	.st7{opacity:0.1;fill:none;stroke:#000000;stroke-width:14;enable-background:new    ;}
	.st8{fill:#0C0C0D;fill-opacity:0.8;}
	.st9{fill:none;stroke:#0A84FF;stroke-width:2;}
	.st10{fill:#0A84FF;fill-opacity:0.25;}
	.st11{enable-background:new    ;}
	.st12{fill:#0A84FF;}
</style>
<g>
	<g transform="translate(46 46)">
		<defs>
			<filter id="Adobe_OpacityMaskFilter" filterUnits="userSpaceOnUse" x="0" y="0" width="209" height="209">
				<feColorMatrix  type="matrix" values="1 0 0 0 0  0 1 0 0 0  0 0 1 0 0  0 0 0 1 0"/>
			</filter>
		</defs>
		<mask maskUnits="userSpaceOnUse" x="0" y="0" width="209" height="209" id="b">
			<g class="st0">
				<path id="a" class="st1" d="M0,0h209v209H0V0z"/>
			</g>
		</mask>
		<g class="st2">
			<defs>
				<filter id="Adobe_OpacityMaskFilter_1_" filterUnits="userSpaceOnUse" x="0" y="0" width="209" height="209">
					<feColorMatrix  type="matrix" values="1 0 0 0 0  0 1 0 0 0  0 0 1 0 0  0 0 0 1 0"/>
				</filter>
			</defs>
			<mask maskUnits="userSpaceOnUse" x="0" y="0" width="209" height="209" id="d">
				<g class="st3">
					<path id="c" class="st1" d="M0,0h209v208.8H0V0z"/>
				</g>
			</mask>
			<path class="st4" d="M0,0h209v1H0V0z M0,13h209v1H0V13z M0,26h209v1H0V26z M0,39h209v1H0V39z M0,52h209v1H0V52z M0,65h209v1H0V65
				z M0,78h209v1H0V78z M0,91h209v1H0V91z M0,104h209v1H0V104z M0,117h209v1H0V117z M0,130h209v1H0V130z M0,143h209v1H0V143z M0,156
				h209v1H0V156z M0,169h209v1H0V169z M0,182h209v1H0V182z M0,195h209v1H0V195z M0,208h209v1H0V208z"/>
		</g>
		<defs>
			<filter id="Adobe_OpacityMaskFilter_2_" filterUnits="userSpaceOnUse" x="0" y="0" width="209" height="209">
				<feColorMatrix  type="matrix" values="1 0 0 0 0  0 1 0 0 0  0 0 1 0 0  0 0 0 1 0"/>
			</filter>
		</defs>
		<mask maskUnits="userSpaceOnUse" x="0" y="0" width="209" height="209" id="f">
			<g class="st5">
				<path id="e" class="st1" d="M0,0h209v209H0V0z"/>
			</g>
		</mask>
		<path class="st6" d="M0,0h1v209H0V0z M13,0h1v209h-1V0z M26,0h1v209h-1V0z M39,0h1v209h-1V0z M52,0h1v209h-1V0z M65,0h1v209h-1V0z
			 M78,0h1v209h-1V0z M91,0h1v209h-1V0z M104,0h1v209h-1V0z M117,0h1v209h-1V0z M130,0h1v209h-1V0z M143,0h1v209h-1V0z M156,0h1v209
			h-1V0z M169,0h1v209h-1V0z M182,0h1v209h-1V0z M195,0h1v209h-1V0z M208,0h1v209h-1V0z"/>
		<path class="st7" d="M7,7h195v195H7V7z"/>
	</g>
	<g>
		<path id="g" class="st1" d="M176.8,227.8h13.1c6.6,0,12-5.4,12-12v-86.5l-51.4-51.4l-51.4,51.4v86.5c0,6.6,5.4,12,12,12h13.1
			v-64.7c0-7.2,5.9-13,13.1-13h26.3c7.3,0,13.1,5.8,13.1,13L176.8,227.8L176.8,227.8z M72.4,156l-3.7,3.7c-5.1,5.1-13.3,5.1-18.4,0
			s-5.1-13.3,0-18.4l91-91c5.1-5.1,13.3-5.1,18.4,0l91,91c5.1,5.1,5.1,13.3,0,18.4c-2.5,2.5-5.9,3.8-9.2,3.8s-6.7-1.3-9.2-3.8
			l-3.7-3.7v86.5c0,6.6-5.4,12-12,12H88.4c-8.8,0-16-7.2-16-16V156z M157,202.5c-3.6,0-6.5-2.9-6.5-6.5s2.9-6.5,6.5-6.5
			s6.5,2.9,6.5,6.5S160.6,202.5,157,202.5"/>
	</g>
	<g>
		<path id="g_1_" class="st8" d="M176.8,227.8h13.1c6.6,0,12-5.4,12-12v-86.5l-51.4-51.4l-51.4,51.4v86.5c0,6.6,5.4,12,12,12h13.1
			v-64.7c0-7.2,5.9-13,13.1-13h26.3c7.3,0,13.1,5.8,13.1,13L176.8,227.8L176.8,227.8z M72.4,156l-3.7,3.7c-5.1,5.1-13.3,5.1-18.4,0
			s-5.1-13.3,0-18.4l91-91c5.1-5.1,13.3-5.1,18.4,0l91,91c5.1,5.1,5.1,13.3,0,18.4c-2.5,2.5-5.9,3.8-9.2,3.8s-6.7-1.3-9.2-3.8
			l-3.7-3.7v86.5c0,6.6-5.4,12-12,12H88.4c-8.8,0-16-7.2-16-16V156z M157,202.5c-3.6,0-6.5-2.9-6.5-6.5s2.9-6.5,6.5-6.5
			s6.5,2.9,6.5,6.5S160.6,202.5,157,202.5"/>
	</g>
	<path class="st9" d="M189.5,204L189.5,204c6.6,0,12,5.4,12,12l0,0c0,6.6-5.4,12-12,12l0,0c-6.6,0-12-5.4-12-12l0,0
		C177.5,209.4,182.9,204,189.5,204z"/>
	<path class="st9" d="M216,230L216,230c6.6,0,12,5.4,12,12l0,0c0,6.6-5.4,12-12,12l0,0c-6.6,0-12-5.4-12-12l0,0
		C204,235.4,209.4,230,216,230z"/>
	<g>
		<path id="h" class="st10" d="M176.5,216H190v52h-13.5V216z"/>
	</g>
	<g>
		<path id="j" class="st10" d="M216,241h13v27h-13V241z"/>
	</g>
	<g class="st11">
		<path class="st12" d="M178.8,279v1h-4.6v-1h1.8v-5.4l-1.7,1l-0.5-0.9l2.3-1.4h1.1v6.6H178.8z"/>
		<path class="st12" d="M185.5,277.1c0,1.8-0.8,3.1-2.2,3.1c-0.6,0-1.1-0.2-1.5-0.6v2.7l-1.2,0.1v-8.2h1.1l0.1,0.7
			c0.4-0.6,1-0.9,1.7-0.9C184.9,274,185.5,275.2,185.5,277.1z M181.8,275.8v2.7c0.3,0.4,0.7,0.6,1.1,0.6c0.8,0,1.3-0.6,1.3-2.1
			c0-1.5-0.4-2.1-1.2-2.1C182.5,275,182.1,275.4,181.8,275.8z"/>
		<path class="st12" d="M186.7,280l2.1-3.1l-1.9-2.8h1.4l1.2,2l1.2-2h1.4l-1.8,2.7l2.1,3.1h-1.4l-1.4-2.4L188,280H186.7z"/>
	</g>
	<g class="st11">
		<path class="st12" d="M218.8,279v1h-4.6v-1h1.8v-5.4l-1.7,1l-0.5-0.9l2.3-1.4h1.1v6.6H218.8z"/>
		<path class="st12" d="M225.5,277.1c0,1.8-0.8,3.1-2.2,3.1c-0.6,0-1.1-0.2-1.5-0.6v2.7l-1.2,0.1v-8.2h1.1l0.1,0.7
			c0.4-0.6,1-0.9,1.7-0.9C224.9,274,225.5,275.2,225.5,277.1z M221.8,275.8v2.7c0.3,0.4,0.7,0.6,1.1,0.6c0.8,0,1.3-0.6,1.3-2.1
			c0-1.5-0.4-2.1-1.2-2.1C222.5,275,222.1,275.4,221.8,275.8z"/>
		<path class="st12" d="M226.7,280l2.1-3.1l-1.9-2.8h1.4l1.2,2l1.2-2h1.4l-1.8,2.7l2.1,3.1h-1.4l-1.4-2.4L228,280H226.7z"/>
	</g>
</g>
</svg>
