<svg xmlns="http://www.w3.org/2000/svg" xmlns:xlink="http://www.w3.org/1999/xlink" style="background:#fff" viewBox="0 0 300 300"><defs><polygon id="a" points="0 0 209 0 209 209 0 209"/><polygon id="c" points="0 0 209 0 209 208.791 0 208.791"/><polygon id="e" points="0 0 209 0 209 209 0 209"/><rect id="g" width="209" height="157" y="26" rx="23.44"/><rect id="h" width="209" height="157" y="26" rx="23.44"/><rect id="i" width="183" height="183" x="13" y="13" rx="23.44"/><rect id="j" width="1" height="9" y="7"/><rect id="k" width="1" height="9" x="208" y="7"/><rect id="l" width="209" height="1" y="11"/><rect id="m" width="32" height="22" x="89" rx="2"/><rect id="n" width="9" height="1" x="11"/><rect id="o" width="9" height="1" x="11" y="208"/><rect id="p" width="1" height="209" x="15"/><rect id="q" width="32" height="22" y="94" rx="2"/></defs><g fill="none" fill-rule="evenodd"><g transform="translate(46 46)"><mask id="b" fill="white"><use xlink:href="#a"/></mask><g mask="url(#b)"><mask id="d" fill="white"><use xlink:href="#c"/></mask><rect width="209" height="1" fill="#D7D7DB" mask="url(#d)"/><rect width="209" height="1" y="13" fill="#D7D7DB" mask="url(#d)"/><rect width="209" height="1" y="26" fill="#D7D7DB" mask="url(#d)"/><rect width="209" height="1" y="39" fill="#D7D7DB" mask="url(#d)"/><rect width="209" height="1" y="52" fill="#D7D7DB" mask="url(#d)"/><rect width="209" height="1" y="65" fill="#D7D7DB" mask="url(#d)"/><rect width="209" height="1" y="78" fill="#D7D7DB" mask="url(#d)"/><rect width="209" height="1" y="91" fill="#D7D7DB" mask="url(#d)"/><rect width="209" height="1" y="104" fill="#D7D7DB" mask="url(#d)"/><rect width="209" height="1" y="117" fill="#D7D7DB" mask="url(#d)"/><rect width="209" height="1" y="130" fill="#D7D7DB" mask="url(#d)"/><rect width="209" height="1" y="143" fill="#D7D7DB" mask="url(#d)"/><rect width="209" height="1" y="156" fill="#D7D7DB" mask="url(#d)"/><rect width="209" height="1" y="169" fill="#D7D7DB" mask="url(#d)"/><rect width="209" height="1" y="182" fill="#D7D7DB" mask="url(#d)"/><rect width="209" height="1" y="195" fill="#D7D7DB" mask="url(#d)"/><rect width="209" height="1" y="208" fill="#D7D7DB" mask="url(#d)"/></g><mask id="f" fill="white"><use xlink:href="#e"/></mask><rect width="1" height="209" fill="#D7D7DB" mask="url(#f)"/><rect width="1" height="209" x="13" fill="#D7D7DB" mask="url(#f)"/><rect width="1" height="209" x="26" fill="#D7D7DB" mask="url(#f)"/><rect width="1" height="209" x="39" fill="#D7D7DB" mask="url(#f)"/><rect width="1" height="209" x="52" fill="#D7D7DB" mask="url(#f)"/><rect width="1" height="209" x="65" fill="#D7D7DB" mask="url(#f)"/><rect width="1" height="209" x="78" fill="#D7D7DB" mask="url(#f)"/><rect width="1" height="209" x="91" fill="#D7D7DB" mask="url(#f)"/><rect width="1" height="209" x="104" fill="#D7D7DB" mask="url(#f)"/><rect width="1" height="209" x="117" fill="#D7D7DB" mask="url(#f)"/><rect width="1" height="209" x="130" fill="#D7D7DB" mask="url(#f)"/><rect width="1" height="209" x="143" fill="#D7D7DB" mask="url(#f)"/><rect width="1" height="209" x="156" fill="#D7D7DB" mask="url(#f)"/><rect width="1" height="209" x="169" fill="#D7D7DB" mask="url(#f)"/><rect width="1" height="209" x="182" fill="#D7D7DB" mask="url(#f)"/><rect width="1" height="209" x="195" fill="#D7D7DB" mask="url(#f)"/><rect width="1" height="209" x="208" fill="#D7D7DB" mask="url(#f)"/><rect width="195" height="195" x="7" y="7" stroke="#000000" stroke-width="14" opacity=".1"/><g><use fill="#0A84FF" fill-opacity=".15" xlink:href="#g"/><rect width="208" height="156" x=".5" y="26.5" stroke="#0A84FF" stroke-opacity=".8" rx="23.44"/></g><g transform="rotate(90 104.5 104.5)"><use fill="#0A84FF" fill-opacity=".15" xlink:href="#h"/><rect width="208" height="156" x=".5" y="26.5" stroke="#0A84FF" stroke-opacity=".8" rx="23.44"/></g><g transform="rotate(90 104.5 104.5)"><use fill="#0A84FF" fill-opacity=".15" xlink:href="#i"/><rect width="182" height="182" x="13.5" y="13.5" stroke="#0A84FF" stroke-opacity=".8" rx="23.44"/></g></g><g transform="translate(46 259)"><use fill="#FFFFFF" xlink:href="#j"/><use fill="#0A84FF" fill-opacity=".8" xlink:href="#j"/><use fill="#FFFFFF" xlink:href="#k"/><use fill="#0A84FF" fill-opacity=".8" xlink:href="#k"/><use fill="#FFFFFF" xlink:href="#l"/><use fill="#0A84FF" fill-opacity=".8" xlink:href="#l"/><g><use fill="#FFFFFF" xlink:href="#m"/><use fill="#0A84FF" fill-opacity=".8" xlink:href="#m"/></g><path fill="#FFFFFF" d="M96.23 15h-1.1V8.15l-1.88 1.14-.48-.78 2.48-1.54h.98V15zm6.13-5c.33.2.6.49.8.87.2.39.3.85.3 1.4a3.2 3.2 0 0 1-.34 1.51 2.43 2.43 0 0 1-2.21 1.36c-.94 0-1.62-.34-2.06-1.03a5.41 5.41 0 0 1-.64-2.88c0-.87.12-1.64.36-2.3.25-.66.6-1.17 1.05-1.53.46-.37 1-.55 1.62-.55.61 0 1.16.17 1.66.5l-.43.73a2.3 2.3 0 0 0-1.24-.35c-.58 0-1.03.27-1.37.83-.33.55-.52 1.29-.55 2.22.5-.7 1.14-1.06 1.93-1.06.41 0 .78.1 1.12.29zm-.39 3.74c.25-.35.38-.83.38-1.43 0-1.14-.44-1.71-1.3-1.71-.35 0-.68.1-.97.29-.3.2-.55.47-.76.81.03.88.16 1.53.42 1.94.25.42.64.63 1.17.63.46 0 .82-.18 1.06-.53zm7.8-4.34c.37.57.56 1.38.56 2.43 0 1-.22 1.8-.65 2.4-.43.61-1.05.91-1.84.91-.7 0-1.25-.24-1.65-.72v3l-1.1.14V8.68h.94l.08.85c.24-.32.52-.57.84-.74a2.2 2.2 0 0 1 1.04-.26c.8 0 1.4.29 1.77.87zm-.63 2.43c0-1.61-.48-2.42-1.43-2.42-.31 0-.6.09-.85.27-.26.19-.48.42-.67.71v3.09a1.62 1.62 0 0 0 1.4.77c1.03 0 1.55-.81 1.55-2.42zm7.45 3.17h-1.33l-1.55-2.68-1.57 2.68h-1.25l2.2-3.34-1.95-2.98h1.3l1.32 2.31 1.33-2.31h1.25l-1.95 2.94 2.2 3.38z"/></g><g transform="translate(259 46)"><use fill="#FFFFFF" xlink:href="#n"/><use fill="#0A84FF" fill-opacity=".8" xlink:href="#n"/><use fill="#FFFFFF" xlink:href="#o"/><use fill="#0A84FF" fill-opacity=".8" xlink:href="#o"/><use fill="#FFFFFF" xlink:href="#p"/><use fill="#0A84FF" fill-opacity=".8" xlink:href="#p"/><g><use fill="#FFFFFF" xlink:href="#q"/><use fill="#0A84FF" fill-opacity=".8" xlink:href="#q"/></g><path fill="#FFFFFF" d="M7.23 109h-1.1v-6.85l-1.88 1.14-.48-.78 2.48-1.54h.98V109zm6.13-5c.33.2.6.49.8.87.2.39.3.85.3 1.4a3.2 3.2 0 0 1-.34 1.51 2.43 2.43 0 0 1-2.21 1.36c-.94 0-1.62-.34-2.06-1.03a5.41 5.41 0 0 1-.64-2.88c0-.87.12-1.64.36-2.3.25-.66.6-1.17 1.05-1.53.46-.37 1-.55 1.62-.55.61 0 1.16.17 1.66.5l-.43.73a2.3 2.3 0 0 0-1.24-.35c-.58 0-1.03.27-1.37.83-.33.55-.52 1.29-.55 2.22.5-.7 1.14-1.06 1.93-1.06.41 0 .78.1 1.12.29zm-.39 3.74c.25-.35.38-.83.38-1.43 0-1.14-.44-1.71-1.3-1.71-.35 0-.68.1-.97.29-.3.2-.55.47-.76.81.03.88.16 1.53.42 1.94.25.42.64.63 1.17.63.46 0 .82-.18 1.06-.53zm7.8-4.34c.37.57.56 1.38.56 2.43 0 1-.22 1.8-.65 2.4-.43.61-1.05.91-1.84.91-.7 0-1.25-.24-1.65-.72v3l-1.1.14v-8.88h.94l.08.85c.24-.32.52-.57.84-.74a2.2 2.2 0 0 1 1.04-.26c.8 0 1.4.29 1.77.87zm-.63 2.43c0-1.61-.48-2.42-1.43-2.42-.31 0-.6.09-.85.27-.26.19-.48.42-.67.71v3.09a1.62 1.62 0 0 0 1.4.77c1.03 0 1.55-.81 1.55-2.42zm7.45 3.17h-1.33l-1.55-2.68-1.57 2.68h-1.25l2.2-3.34-1.95-2.98h1.3l1.32 2.31 1.33-2.31h1.25l-1.95 2.94 2.2 3.38z"/></g></g></svg>