<svg xmlns="http://www.w3.org/2000/svg" xmlns:xlink="http://www.w3.org/1999/xlink" viewBox="0 0 300 300">
  <defs>
    <polygon id="grid-ios-a" points="0 0 10.125 0 10.125 243 0 243"/>
    <polygon id="grid-ios-c" points="0 0 10.125 0 10.125 243 0 243"/>
    <polygon id="grid-ios-e" points="0 0 10.125 0 10.125 243 0 243"/>
    <polygon id="grid-ios-g" points="0 0 10.125 0 10.125 243 0 243"/>
    <polygon id="grid-ios-i" points="0 0 10.125 0 10.125 243 0 243"/>
    <polygon id="grid-ios-k" points="0 0 10.125 0 10.125 243 0 243"/>
    <polygon id="grid-ios-m" points="0 0 10.125 0 10.125 243 0 243"/>
    <polygon id="grid-ios-o" points="0 0 10.125 0 10.125 243 0 243"/>
    <polygon id="grid-ios-q" points="0 0 10.125 0 10.125 243 0 243"/>
    <polygon id="grid-ios-s" points="0 0 10.125 0 10.125 243 0 243"/>
    <polygon id="grid-ios-u" points="0 0 10.125 0 10.125 243 0 243"/>
    <polygon id="grid-ios-w" points="0 0 10.125 0 10.125 243 0 243"/>
    <polygon id="grid-ios-y" points="0 0 10.125 0 10.125 243 0 243"/>
    <polygon id="grid-ios-A" points="0 0 10.125 0 10.125 243 0 243"/>
    <polygon id="grid-ios-C" points="0 0 10.125 0 10.125 243 0 243"/>
    <polygon id="grid-ios-E" points="0 0 10.125 0 10.125 243 0 243"/>
    <polygon id="grid-ios-G" points="0 0 10.125 0 10.125 243 0 243"/>
    <polygon id="grid-ios-I" points="0 0 10.125 0 10.125 243 0 243"/>
    <polygon id="grid-ios-K" points="0 0 10.125 0 10.125 243 0 243"/>
    <polygon id="grid-ios-M" points="0 0 10.125 0 10.125 243 0 243"/>
    <polygon id="grid-ios-O" points="0 0 10.125 0 10.125 243 0 243"/>
    <polygon id="grid-ios-Q" points="0 0 10.125 0 10.125 243 0 243"/>
    <polygon id="grid-ios-S" points="0 0 10.125 0 10.125 243 0 243"/>
    <polygon id="grid-ios-U" points="0 0 10.125 0 10.125 243 0 243"/>
    <polygon id="grid-ios-W" points="0 0 10.125 0 10.125 243 0 243"/>
    <polygon id="grid-ios-Y" points="0 0 10.125 0 10.125 243 0 243"/>
    <polygon id="grid-ios-aa" points="0 0 10.125 0 10.125 243 0 243"/>
    <polygon id="grid-ios-ac" points="0 0 10.125 0 10.125 243 0 243"/>
    <polygon id="grid-ios-ae" points="0 0 10.125 0 10.125 243 0 243"/>
    <polygon id="grid-ios-ag" points="0 0 10.125 0 10.125 243 0 243"/>
    <polygon id="grid-ios-ai" points="0 0 10.125 0 10.125 243 0 243"/>
    <polygon id="grid-ios-ak" points="0 0 10.125 0 10.125 243 0 243"/>
    <polygon id="grid-ios-am" points="0 0 10.125 0 10.125 243 0 243"/>
    <polygon id="grid-ios-ao" points="0 0 10.125 0 10.125 243 0 243"/>
    <polygon id="grid-ios-aq" points="0 0 10.125 0 10.125 243 0 243"/>
    <polygon id="grid-ios-as" points="0 0 10.125 0 10.125 243 0 243"/>
    <polygon id="grid-ios-au" points="0 0 10.125 0 10.125 243 0 243"/>
    <polygon id="grid-ios-aw" points="0 0 10.125 0 10.125 243 0 243"/>
    <polygon id="grid-ios-ay" points="0 0 10.125 0 10.125 243 0 243"/>
    <polygon id="grid-ios-aA" points="0 0 10.125 0 10.125 243 0 243"/>
    <polygon id="grid-ios-aC" points="0 0 10.125 0 10.125 243 0 243"/>
    <polygon id="grid-ios-aE" points="0 0 10.125 0 10.125 243 0 243"/>
    <polygon id="grid-ios-aG" points="0 0 10.125 0 10.125 243 0 243"/>
    <polygon id="grid-ios-aI" points="0 0 10.125 0 10.125 243 0 243"/>
    <polygon id="grid-ios-aK" points="0 0 10.125 0 10.125 243 0 243"/>
    <polygon id="grid-ios-aM" points="0 0 10.125 0 10.125 243 0 243"/>
    <polygon id="grid-ios-aO" points="232.875 0 243 0 243 243 232.875 243"/>
    <polygon id="grid-ios-aQ" points="0 0 10.125 0 10.125 243 0 243"/>
  </defs>
  <g fill="none" fill-rule="evenodd" transform="translate(20)">
    <path fill="#00FEFF" fill-opacity=".8" d="M0,243 L243,243 L243,0 L0,0 L0,243 Z M10.125,232.875 L232.875,232.875 L232.875,10.125 L10.125,10.125 L10.125,232.875 Z"/>
    <path fill="#F0F" fill-opacity=".15" stroke="#FF1AD9" stroke-width=".5" d="M225.647591,222.75 L17.3634545,222.75 C7.80913636,222.75 0,216.242386 0,208.289659 L0,34.7103409 C0,26.7576136 7.80913636,20.25 17.3634545,20.25 L225.647591,20.25 C235.190864,20.25 243,26.7576136 243,34.7103409 L243,208.289659 C243,216.242386 235.190864,222.75 225.647591,222.75"/>
    <path fill="#F0F" fill-opacity=".15" stroke="#FF1AD9" stroke-width=".5" d="M206.742375,243 L36.257625,243 C27.459,243 20.25,235.791 20.25,226.992375 L20.25,16.007625 C20.25,7.198875 27.459,0 36.257625,0 L206.742375,0 C215.541,0 222.75,7.198875 222.75,16.007625 L222.75,226.992375 C222.75,235.791 215.541,243 206.742375,243"/>
    <path fill="#F0F" fill-opacity=".15" stroke="#FF1AD9" stroke-width=".5" d="M215.266612,232.875 L27.7333875,232.875 C18.0549,232.875 10.125,226.26675 10.125,218.201344 L10.125,24.7986563 C10.125,16.7239687 18.0549,10.125 27.7333875,10.125 L215.266612,10.125 C224.9451,10.125 232.875,16.7239687 232.875,24.7986563 L232.875,218.201344 C232.875,226.26675 224.9451,232.875 215.266612,232.875"/>
    <mask id="grid-ios-b" fill="#fff">
      <use xlink:href="#grid-ios-a"/>
    </mask>
    <g mask="url(#grid-ios-b)">
      <mask id="grid-ios-d" fill="#fff">
        <use xlink:href="#grid-ios-c"/>
      </mask>
      <path stroke="#D7D7DB" stroke-width=".25" d="M.125 9.83412729L9.74392518 9.83412729 9.74392518.125.125.125.125 9.83412729zM.125 19.9591273L9.74392518 19.9591273 9.74392518 10.25.125 10.25.125 19.9591273zM.125 30.0841273L9.74392518 30.0841273 9.74392518 20.375.125 20.375.125 30.0841273zM.125 40.2091273L9.74392518 40.2091273 9.74392518 30.5.125 30.5.125 40.2091273zM.125 50.3341273L9.74392518 50.3341273 9.74392518 40.625.125 40.625.125 50.3341273zM.125 60.4591273L9.74392518 60.4591273 9.74392518 50.75.125 50.75.125 60.4591273zM.125 70.5841273L9.74392518 70.5841273 9.74392518 60.875.125 60.875.125 70.5841273zM.125 80.7091273L9.74392518 80.7091273 9.74392518 71 .125 71 .125 80.7091273zM.125 90.8341273L9.74392518 90.8341273 9.74392518 81.125.125 81.125.125 90.8341273zM.125 100.959127L9.74392518 100.959127 9.74392518 91.25.125 91.25.125 100.959127zM.125 111.084127L9.74392518 111.084127 9.74392518 101.375.125 101.375.125 111.084127zM.125 121.209127L9.74392518 121.209127 9.74392518 111.5.125 111.5.125 121.209127zM.125 131.334127L9.74392518 131.334127 9.74392518 121.625.125 121.625.125 131.334127zM.125 141.459127L9.74392518 141.459127 9.74392518 131.75.125 131.75.125 141.459127zM.125 151.584127L9.74392518 151.584127 9.74392518 141.875.125 141.875.125 151.584127zM.125 161.709127L9.74392518 161.709127 9.74392518 152 .125 152 .125 161.709127zM.125 171.834127L9.74392518 171.834127 9.74392518 162.125.125 162.125.125 171.834127zM.125 181.959127L9.74392518 181.959127 9.74392518 172.25.125 172.25.125 181.959127zM.125 192.084127L9.74392518 192.084127 9.74392518 182.375.125 182.375.125 192.084127zM.125 202.209127L9.74392518 202.209127 9.74392518 192.5.125 192.5.125 202.209127zM.125 212.334127L9.74392518 212.334127 9.74392518 202.625.125 202.625.125 212.334127zM.125 222.459127L9.74392518 222.459127 9.74392518 212.75.125 212.75.125 222.459127zM.125 232.584127L9.74392518 232.584127 9.74392518 222.875.125 222.875.125 232.584127zM.125 242.709127L9.74392518 242.709127 9.74392518 233 .125 233 .125 242.709127z" mask="url(#grid-ios-d)"/>
    </g>
    <g transform="translate(10.125)">
      <mask id="grid-ios-f" fill="#fff">
        <use xlink:href="#grid-ios-e"/>
      </mask>
      <g mask="url(#grid-ios-f)">
        <mask id="grid-ios-h" fill="#fff">
          <use xlink:href="#grid-ios-g"/>
        </mask>
        <path stroke="#D7D7DB" stroke-width=".25" d="M.125 9.83412729L9.74392518 9.83412729 9.74392518.125.125.125.125 9.83412729zM.125 19.9591273L9.74392518 19.9591273 9.74392518 10.25.125 10.25.125 19.9591273zM.125 30.0841273L9.74392518 30.0841273 9.74392518 20.375.125 20.375.125 30.0841273zM.125 40.2091273L9.74392518 40.2091273 9.74392518 30.5.125 30.5.125 40.2091273zM.125 50.3341273L9.74392518 50.3341273 9.74392518 40.625.125 40.625.125 50.3341273zM.125 60.4591273L9.74392518 60.4591273 9.74392518 50.75.125 50.75.125 60.4591273zM.125 70.5841273L9.74392518 70.5841273 9.74392518 60.875.125 60.875.125 70.5841273zM.125 80.7091273L9.74392518 80.7091273 9.74392518 71 .125 71 .125 80.7091273zM.125 90.8341273L9.74392518 90.8341273 9.74392518 81.125.125 81.125.125 90.8341273zM.125 100.959127L9.74392518 100.959127 9.74392518 91.25.125 91.25.125 100.959127zM.125 111.084127L9.74392518 111.084127 9.74392518 101.375.125 101.375.125 111.084127zM.125 121.209127L9.74392518 121.209127 9.74392518 111.5.125 111.5.125 121.209127zM.125 131.334127L9.74392518 131.334127 9.74392518 121.625.125 121.625.125 131.334127zM.125 141.459127L9.74392518 141.459127 9.74392518 131.75.125 131.75.125 141.459127zM.125 151.584127L9.74392518 151.584127 9.74392518 141.875.125 141.875.125 151.584127zM.125 161.709127L9.74392518 161.709127 9.74392518 152 .125 152 .125 161.709127zM.125 171.834127L9.74392518 171.834127 9.74392518 162.125.125 162.125.125 171.834127zM.125 181.959127L9.74392518 181.959127 9.74392518 172.25.125 172.25.125 181.959127zM.125 192.084127L9.74392518 192.084127 9.74392518 182.375.125 182.375.125 192.084127zM.125 202.209127L9.74392518 202.209127 9.74392518 192.5.125 192.5.125 202.209127zM.125 212.334127L9.74392518 212.334127 9.74392518 202.625.125 202.625.125 212.334127zM.125 222.459127L9.74392518 222.459127 9.74392518 212.75.125 212.75.125 222.459127zM.125 232.584127L9.74392518 232.584127 9.74392518 222.875.125 222.875.125 232.584127zM.125 242.709127L9.74392518 242.709127 9.74392518 233 .125 233 .125 242.709127z" mask="url(#grid-ios-h)"/>
      </g>
    </g>
    <g transform="translate(20.25)">
      <mask id="grid-ios-j" fill="#fff">
        <use xlink:href="#grid-ios-i"/>
      </mask>
      <g mask="url(#grid-ios-j)">
        <mask id="grid-ios-l" fill="#fff">
          <use xlink:href="#grid-ios-k"/>
        </mask>
        <path stroke="#D7D7DB" stroke-width=".25" d="M.125 9.83412729L9.74392518 9.83412729 9.74392518.125.125.125.125 9.83412729zM.125 19.9591273L9.74392518 19.9591273 9.74392518 10.25.125 10.25.125 19.9591273zM.125 30.0841273L9.74392518 30.0841273 9.74392518 20.375.125 20.375.125 30.0841273zM.125 40.2091273L9.74392518 40.2091273 9.74392518 30.5.125 30.5.125 40.2091273zM.125 50.3341273L9.74392518 50.3341273 9.74392518 40.625.125 40.625.125 50.3341273zM.125 60.4591273L9.74392518 60.4591273 9.74392518 50.75.125 50.75.125 60.4591273zM.125 70.5841273L9.74392518 70.5841273 9.74392518 60.875.125 60.875.125 70.5841273zM.125 80.7091273L9.74392518 80.7091273 9.74392518 71 .125 71 .125 80.7091273zM.125 90.8341273L9.74392518 90.8341273 9.74392518 81.125.125 81.125.125 90.8341273zM.125 100.959127L9.74392518 100.959127 9.74392518 91.25.125 91.25.125 100.959127zM.125 111.084127L9.74392518 111.084127 9.74392518 101.375.125 101.375.125 111.084127zM.125 121.209127L9.74392518 121.209127 9.74392518 111.5.125 111.5.125 121.209127zM.125 131.334127L9.74392518 131.334127 9.74392518 121.625.125 121.625.125 131.334127zM.125 141.459127L9.74392518 141.459127 9.74392518 131.75.125 131.75.125 141.459127zM.125 151.584127L9.74392518 151.584127 9.74392518 141.875.125 141.875.125 151.584127zM.125 161.709127L9.74392518 161.709127 9.74392518 152 .125 152 .125 161.709127zM.125 171.834127L9.74392518 171.834127 9.74392518 162.125.125 162.125.125 171.834127zM.125 181.959127L9.74392518 181.959127 9.74392518 172.25.125 172.25.125 181.959127zM.125 192.084127L9.74392518 192.084127 9.74392518 182.375.125 182.375.125 192.084127zM.125 202.209127L9.74392518 202.209127 9.74392518 192.5.125 192.5.125 202.209127zM.125 212.334127L9.74392518 212.334127 9.74392518 202.625.125 202.625.125 212.334127zM.125 222.459127L9.74392518 222.459127 9.74392518 212.75.125 212.75.125 222.459127zM.125 232.584127L9.74392518 232.584127 9.74392518 222.875.125 222.875.125 232.584127zM.125 242.709127L9.74392518 242.709127 9.74392518 233 .125 233 .125 242.709127z" mask="url(#grid-ios-l)"/>
      </g>
    </g>
    <g transform="translate(30.375)">
      <mask id="grid-ios-n" fill="#fff">
        <use xlink:href="#grid-ios-m"/>
      </mask>
      <g mask="url(#grid-ios-n)">
        <mask id="grid-ios-p" fill="#fff">
          <use xlink:href="#grid-ios-o"/>
        </mask>
        <path stroke="#D7D7DB" stroke-width=".25" d="M.125 9.83412729L9.74392518 9.83412729 9.74392518.125.125.125.125 9.83412729zM.125 19.9591273L9.74392518 19.9591273 9.74392518 10.25.125 10.25.125 19.9591273zM.125 30.0841273L9.74392518 30.0841273 9.74392518 20.375.125 20.375.125 30.0841273zM.125 40.2091273L9.74392518 40.2091273 9.74392518 30.5.125 30.5.125 40.2091273zM.125 50.3341273L9.74392518 50.3341273 9.74392518 40.625.125 40.625.125 50.3341273zM.125 60.4591273L9.74392518 60.4591273 9.74392518 50.75.125 50.75.125 60.4591273zM.125 70.5841273L9.74392518 70.5841273 9.74392518 60.875.125 60.875.125 70.5841273zM.125 80.7091273L9.74392518 80.7091273 9.74392518 71 .125 71 .125 80.7091273zM.125 90.8341273L9.74392518 90.8341273 9.74392518 81.125.125 81.125.125 90.8341273zM.125 100.959127L9.74392518 100.959127 9.74392518 91.25.125 91.25.125 100.959127zM.125 111.084127L9.74392518 111.084127 9.74392518 101.375.125 101.375.125 111.084127zM.125 121.209127L9.74392518 121.209127 9.74392518 111.5.125 111.5.125 121.209127zM.125 131.334127L9.74392518 131.334127 9.74392518 121.625.125 121.625.125 131.334127zM.125 141.459127L9.74392518 141.459127 9.74392518 131.75.125 131.75.125 141.459127zM.125 151.584127L9.74392518 151.584127 9.74392518 141.875.125 141.875.125 151.584127zM.125 161.709127L9.74392518 161.709127 9.74392518 152 .125 152 .125 161.709127zM.125 171.834127L9.74392518 171.834127 9.74392518 162.125.125 162.125.125 171.834127zM.125 181.959127L9.74392518 181.959127 9.74392518 172.25.125 172.25.125 181.959127zM.125 192.084127L9.74392518 192.084127 9.74392518 182.375.125 182.375.125 192.084127zM.125 202.209127L9.74392518 202.209127 9.74392518 192.5.125 192.5.125 202.209127zM.125 212.334127L9.74392518 212.334127 9.74392518 202.625.125 202.625.125 212.334127zM.125 222.459127L9.74392518 222.459127 9.74392518 212.75.125 212.75.125 222.459127zM.125 232.584127L9.74392518 232.584127 9.74392518 222.875.125 222.875.125 232.584127zM.125 242.709127L9.74392518 242.709127 9.74392518 233 .125 233 .125 242.709127z" mask="url(#grid-ios-p)"/>
      </g>
    </g>
    <g transform="translate(40.5)">
      <mask id="grid-ios-r" fill="#fff">
        <use xlink:href="#grid-ios-q"/>
      </mask>
      <g mask="url(#grid-ios-r)">
        <mask id="grid-ios-t" fill="#fff">
          <use xlink:href="#grid-ios-s"/>
        </mask>
        <path stroke="#D7D7DB" stroke-width=".25" d="M.125 9.83412729L9.74392518 9.83412729 9.74392518.125.125.125.125 9.83412729zM.125 19.9591273L9.74392518 19.9591273 9.74392518 10.25.125 10.25.125 19.9591273zM.125 30.0841273L9.74392518 30.0841273 9.74392518 20.375.125 20.375.125 30.0841273zM.125 40.2091273L9.74392518 40.2091273 9.74392518 30.5.125 30.5.125 40.2091273zM.125 50.3341273L9.74392518 50.3341273 9.74392518 40.625.125 40.625.125 50.3341273zM.125 60.4591273L9.74392518 60.4591273 9.74392518 50.75.125 50.75.125 60.4591273zM.125 70.5841273L9.74392518 70.5841273 9.74392518 60.875.125 60.875.125 70.5841273zM.125 80.7091273L9.74392518 80.7091273 9.74392518 71 .125 71 .125 80.7091273zM.125 90.8341273L9.74392518 90.8341273 9.74392518 81.125.125 81.125.125 90.8341273zM.125 100.959127L9.74392518 100.959127 9.74392518 91.25.125 91.25.125 100.959127zM.125 111.084127L9.74392518 111.084127 9.74392518 101.375.125 101.375.125 111.084127zM.125 121.209127L9.74392518 121.209127 9.74392518 111.5.125 111.5.125 121.209127zM.125 131.334127L9.74392518 131.334127 9.74392518 121.625.125 121.625.125 131.334127zM.125 141.459127L9.74392518 141.459127 9.74392518 131.75.125 131.75.125 141.459127zM.125 151.584127L9.74392518 151.584127 9.74392518 141.875.125 141.875.125 151.584127zM.125 161.709127L9.74392518 161.709127 9.74392518 152 .125 152 .125 161.709127zM.125 171.834127L9.74392518 171.834127 9.74392518 162.125.125 162.125.125 171.834127zM.125 181.959127L9.74392518 181.959127 9.74392518 172.25.125 172.25.125 181.959127zM.125 192.084127L9.74392518 192.084127 9.74392518 182.375.125 182.375.125 192.084127zM.125 202.209127L9.74392518 202.209127 9.74392518 192.5.125 192.5.125 202.209127zM.125 212.334127L9.74392518 212.334127 9.74392518 202.625.125 202.625.125 212.334127zM.125 222.459127L9.74392518 222.459127 9.74392518 212.75.125 212.75.125 222.459127zM.125 232.584127L9.74392518 232.584127 9.74392518 222.875.125 222.875.125 232.584127zM.125 242.709127L9.74392518 242.709127 9.74392518 233 .125 233 .125 242.709127z" mask="url(#grid-ios-t)"/>
      </g>
    </g>
    <g transform="translate(50.625)">
      <mask id="grid-ios-v" fill="#fff">
        <use xlink:href="#grid-ios-u"/>
      </mask>
      <g mask="url(#grid-ios-v)">
        <mask id="grid-ios-x" fill="#fff">
          <use xlink:href="#grid-ios-w"/>
        </mask>
        <path stroke="#D7D7DB" stroke-width=".25" d="M.125 9.83412729L9.74392518 9.83412729 9.74392518.125.125.125.125 9.83412729zM.125 19.9591273L9.74392518 19.9591273 9.74392518 10.25.125 10.25.125 19.9591273zM.125 30.0841273L9.74392518 30.0841273 9.74392518 20.375.125 20.375.125 30.0841273zM.125 40.2091273L9.74392518 40.2091273 9.74392518 30.5.125 30.5.125 40.2091273zM.125 50.3341273L9.74392518 50.3341273 9.74392518 40.625.125 40.625.125 50.3341273zM.125 60.4591273L9.74392518 60.4591273 9.74392518 50.75.125 50.75.125 60.4591273zM.125 70.5841273L9.74392518 70.5841273 9.74392518 60.875.125 60.875.125 70.5841273zM.125 80.7091273L9.74392518 80.7091273 9.74392518 71 .125 71 .125 80.7091273zM.125 90.8341273L9.74392518 90.8341273 9.74392518 81.125.125 81.125.125 90.8341273zM.125 100.959127L9.74392518 100.959127 9.74392518 91.25.125 91.25.125 100.959127zM.125 111.084127L9.74392518 111.084127 9.74392518 101.375.125 101.375.125 111.084127zM.125 121.209127L9.74392518 121.209127 9.74392518 111.5.125 111.5.125 121.209127zM.125 131.334127L9.74392518 131.334127 9.74392518 121.625.125 121.625.125 131.334127zM.125 141.459127L9.74392518 141.459127 9.74392518 131.75.125 131.75.125 141.459127zM.125 151.584127L9.74392518 151.584127 9.74392518 141.875.125 141.875.125 151.584127zM.125 161.709127L9.74392518 161.709127 9.74392518 152 .125 152 .125 161.709127zM.125 171.834127L9.74392518 171.834127 9.74392518 162.125.125 162.125.125 171.834127zM.125 181.959127L9.74392518 181.959127 9.74392518 172.25.125 172.25.125 181.959127zM.125 192.084127L9.74392518 192.084127 9.74392518 182.375.125 182.375.125 192.084127zM.125 202.209127L9.74392518 202.209127 9.74392518 192.5.125 192.5.125 202.209127zM.125 212.334127L9.74392518 212.334127 9.74392518 202.625.125 202.625.125 212.334127zM.125 222.459127L9.74392518 222.459127 9.74392518 212.75.125 212.75.125 222.459127zM.125 232.584127L9.74392518 232.584127 9.74392518 222.875.125 222.875.125 232.584127zM.125 242.709127L9.74392518 242.709127 9.74392518 233 .125 233 .125 242.709127z" mask="url(#grid-ios-x)"/>
      </g>
    </g>
    <g transform="translate(60.75)">
      <mask id="grid-ios-z" fill="#fff">
        <use xlink:href="#grid-ios-y"/>
      </mask>
      <g mask="url(#grid-ios-z)">
        <mask id="grid-ios-B" fill="#fff">
          <use xlink:href="#grid-ios-A"/>
        </mask>
        <path stroke="#D7D7DB" stroke-width=".25" d="M.125 9.83412729L9.74392518 9.83412729 9.74392518.125.125.125.125 9.83412729zM.125 19.9591273L9.74392518 19.9591273 9.74392518 10.25.125 10.25.125 19.9591273zM.125 30.0841273L9.74392518 30.0841273 9.74392518 20.375.125 20.375.125 30.0841273zM.125 40.2091273L9.74392518 40.2091273 9.74392518 30.5.125 30.5.125 40.2091273zM.125 50.3341273L9.74392518 50.3341273 9.74392518 40.625.125 40.625.125 50.3341273zM.125 60.4591273L9.74392518 60.4591273 9.74392518 50.75.125 50.75.125 60.4591273zM.125 70.5841273L9.74392518 70.5841273 9.74392518 60.875.125 60.875.125 70.5841273zM.125 80.7091273L9.74392518 80.7091273 9.74392518 71 .125 71 .125 80.7091273zM.125 90.8341273L9.74392518 90.8341273 9.74392518 81.125.125 81.125.125 90.8341273zM.125 100.959127L9.74392518 100.959127 9.74392518 91.25.125 91.25.125 100.959127zM.125 111.084127L9.74392518 111.084127 9.74392518 101.375.125 101.375.125 111.084127zM.125 121.209127L9.74392518 121.209127 9.74392518 111.5.125 111.5.125 121.209127zM.125 131.334127L9.74392518 131.334127 9.74392518 121.625.125 121.625.125 131.334127zM.125 141.459127L9.74392518 141.459127 9.74392518 131.75.125 131.75.125 141.459127zM.125 151.584127L9.74392518 151.584127 9.74392518 141.875.125 141.875.125 151.584127zM.125 161.709127L9.74392518 161.709127 9.74392518 152 .125 152 .125 161.709127zM.125 171.834127L9.74392518 171.834127 9.74392518 162.125.125 162.125.125 171.834127zM.125 181.959127L9.74392518 181.959127 9.74392518 172.25.125 172.25.125 181.959127zM.125 192.084127L9.74392518 192.084127 9.74392518 182.375.125 182.375.125 192.084127zM.125 202.209127L9.74392518 202.209127 9.74392518 192.5.125 192.5.125 202.209127zM.125 212.334127L9.74392518 212.334127 9.74392518 202.625.125 202.625.125 212.334127zM.125 222.459127L9.74392518 222.459127 9.74392518 212.75.125 212.75.125 222.459127zM.125 232.584127L9.74392518 232.584127 9.74392518 222.875.125 222.875.125 232.584127zM.125 242.709127L9.74392518 242.709127 9.74392518 233 .125 233 .125 242.709127z" mask="url(#grid-ios-B)"/>
      </g>
    </g>
    <g transform="translate(70.875)">
      <mask id="grid-ios-D" fill="#fff">
        <use xlink:href="#grid-ios-C"/>
      </mask>
      <g mask="url(#grid-ios-D)">
        <mask id="grid-ios-F" fill="#fff">
          <use xlink:href="#grid-ios-E"/>
        </mask>
        <path stroke="#D7D7DB" stroke-width=".25" d="M.125 9.83412729L9.74392518 9.83412729 9.74392518.125.125.125.125 9.83412729zM.125 19.9591273L9.74392518 19.9591273 9.74392518 10.25.125 10.25.125 19.9591273zM.125 30.0841273L9.74392518 30.0841273 9.74392518 20.375.125 20.375.125 30.0841273zM.125 40.2091273L9.74392518 40.2091273 9.74392518 30.5.125 30.5.125 40.2091273zM.125 50.3341273L9.74392518 50.3341273 9.74392518 40.625.125 40.625.125 50.3341273zM.125 60.4591273L9.74392518 60.4591273 9.74392518 50.75.125 50.75.125 60.4591273zM.125 70.5841273L9.74392518 70.5841273 9.74392518 60.875.125 60.875.125 70.5841273zM.125 80.7091273L9.74392518 80.7091273 9.74392518 71 .125 71 .125 80.7091273zM.125 90.8341273L9.74392518 90.8341273 9.74392518 81.125.125 81.125.125 90.8341273zM.125 100.959127L9.74392518 100.959127 9.74392518 91.25.125 91.25.125 100.959127zM.125 111.084127L9.74392518 111.084127 9.74392518 101.375.125 101.375.125 111.084127zM.125 121.209127L9.74392518 121.209127 9.74392518 111.5.125 111.5.125 121.209127zM.125 131.334127L9.74392518 131.334127 9.74392518 121.625.125 121.625.125 131.334127zM.125 141.459127L9.74392518 141.459127 9.74392518 131.75.125 131.75.125 141.459127zM.125 151.584127L9.74392518 151.584127 9.74392518 141.875.125 141.875.125 151.584127zM.125 161.709127L9.74392518 161.709127 9.74392518 152 .125 152 .125 161.709127zM.125 171.834127L9.74392518 171.834127 9.74392518 162.125.125 162.125.125 171.834127zM.125 181.959127L9.74392518 181.959127 9.74392518 172.25.125 172.25.125 181.959127zM.125 192.084127L9.74392518 192.084127 9.74392518 182.375.125 182.375.125 192.084127zM.125 202.209127L9.74392518 202.209127 9.74392518 192.5.125 192.5.125 202.209127zM.125 212.334127L9.74392518 212.334127 9.74392518 202.625.125 202.625.125 212.334127zM.125 222.459127L9.74392518 222.459127 9.74392518 212.75.125 212.75.125 222.459127zM.125 232.584127L9.74392518 232.584127 9.74392518 222.875.125 222.875.125 232.584127zM.125 242.709127L9.74392518 242.709127 9.74392518 233 .125 233 .125 242.709127z" mask="url(#grid-ios-F)"/>
      </g>
    </g>
    <g transform="translate(81)">
      <mask id="grid-ios-H" fill="#fff">
        <use xlink:href="#grid-ios-G"/>
      </mask>
      <g mask="url(#grid-ios-H)">
        <mask id="grid-ios-J" fill="#fff">
          <use xlink:href="#grid-ios-I"/>
        </mask>
        <path stroke="#D7D7DB" stroke-width=".25" d="M.125 9.83412729L9.74392518 9.83412729 9.74392518.125.125.125.125 9.83412729zM.125 19.9591273L9.74392518 19.9591273 9.74392518 10.25.125 10.25.125 19.9591273zM.125 30.0841273L9.74392518 30.0841273 9.74392518 20.375.125 20.375.125 30.0841273zM.125 40.2091273L9.74392518 40.2091273 9.74392518 30.5.125 30.5.125 40.2091273zM.125 50.3341273L9.74392518 50.3341273 9.74392518 40.625.125 40.625.125 50.3341273zM.125 60.4591273L9.74392518 60.4591273 9.74392518 50.75.125 50.75.125 60.4591273zM.125 70.5841273L9.74392518 70.5841273 9.74392518 60.875.125 60.875.125 70.5841273zM.125 80.7091273L9.74392518 80.7091273 9.74392518 71 .125 71 .125 80.7091273zM.125 90.8341273L9.74392518 90.8341273 9.74392518 81.125.125 81.125.125 90.8341273zM.125 100.959127L9.74392518 100.959127 9.74392518 91.25.125 91.25.125 100.959127zM.125 111.084127L9.74392518 111.084127 9.74392518 101.375.125 101.375.125 111.084127zM.125 121.209127L9.74392518 121.209127 9.74392518 111.5.125 111.5.125 121.209127zM.125 131.334127L9.74392518 131.334127 9.74392518 121.625.125 121.625.125 131.334127zM.125 141.459127L9.74392518 141.459127 9.74392518 131.75.125 131.75.125 141.459127zM.125 151.584127L9.74392518 151.584127 9.74392518 141.875.125 141.875.125 151.584127zM.125 161.709127L9.74392518 161.709127 9.74392518 152 .125 152 .125 161.709127zM.125 171.834127L9.74392518 171.834127 9.74392518 162.125.125 162.125.125 171.834127zM.125 181.959127L9.74392518 181.959127 9.74392518 172.25.125 172.25.125 181.959127zM.125 192.084127L9.74392518 192.084127 9.74392518 182.375.125 182.375.125 192.084127zM.125 202.209127L9.74392518 202.209127 9.74392518 192.5.125 192.5.125 202.209127zM.125 212.334127L9.74392518 212.334127 9.74392518 202.625.125 202.625.125 212.334127zM.125 222.459127L9.74392518 222.459127 9.74392518 212.75.125 212.75.125 222.459127zM.125 232.584127L9.74392518 232.584127 9.74392518 222.875.125 222.875.125 232.584127zM.125 242.709127L9.74392518 242.709127 9.74392518 233 .125 233 .125 242.709127z" mask="url(#grid-ios-J)"/>
      </g>
    </g>
    <g transform="translate(91.125)">
      <mask id="grid-ios-L" fill="#fff">
        <use xlink:href="#grid-ios-K"/>
      </mask>
      <g mask="url(#grid-ios-L)">
        <mask id="grid-ios-N" fill="#fff">
          <use xlink:href="#grid-ios-M"/>
        </mask>
        <path stroke="#D7D7DB" stroke-width=".25" d="M.125 9.83412729L9.74392518 9.83412729 9.74392518.125.125.125.125 9.83412729zM.125 19.9591273L9.74392518 19.9591273 9.74392518 10.25.125 10.25.125 19.9591273zM.125 30.0841273L9.74392518 30.0841273 9.74392518 20.375.125 20.375.125 30.0841273zM.125 40.2091273L9.74392518 40.2091273 9.74392518 30.5.125 30.5.125 40.2091273zM.125 50.3341273L9.74392518 50.3341273 9.74392518 40.625.125 40.625.125 50.3341273zM.125 60.4591273L9.74392518 60.4591273 9.74392518 50.75.125 50.75.125 60.4591273zM.125 70.5841273L9.74392518 70.5841273 9.74392518 60.875.125 60.875.125 70.5841273zM.125 80.7091273L9.74392518 80.7091273 9.74392518 71 .125 71 .125 80.7091273zM.125 90.8341273L9.74392518 90.8341273 9.74392518 81.125.125 81.125.125 90.8341273zM.125 100.959127L9.74392518 100.959127 9.74392518 91.25.125 91.25.125 100.959127zM.125 111.084127L9.74392518 111.084127 9.74392518 101.375.125 101.375.125 111.084127zM.125 121.209127L9.74392518 121.209127 9.74392518 111.5.125 111.5.125 121.209127zM.125 131.334127L9.74392518 131.334127 9.74392518 121.625.125 121.625.125 131.334127zM.125 141.459127L9.74392518 141.459127 9.74392518 131.75.125 131.75.125 141.459127zM.125 151.584127L9.74392518 151.584127 9.74392518 141.875.125 141.875.125 151.584127zM.125 161.709127L9.74392518 161.709127 9.74392518 152 .125 152 .125 161.709127zM.125 171.834127L9.74392518 171.834127 9.74392518 162.125.125 162.125.125 171.834127zM.125 181.959127L9.74392518 181.959127 9.74392518 172.25.125 172.25.125 181.959127zM.125 192.084127L9.74392518 192.084127 9.74392518 182.375.125 182.375.125 192.084127zM.125 202.209127L9.74392518 202.209127 9.74392518 192.5.125 192.5.125 202.209127zM.125 212.334127L9.74392518 212.334127 9.74392518 202.625.125 202.625.125 212.334127zM.125 222.459127L9.74392518 222.459127 9.74392518 212.75.125 212.75.125 222.459127zM.125 232.584127L9.74392518 232.584127 9.74392518 222.875.125 222.875.125 232.584127zM.125 242.709127L9.74392518 242.709127 9.74392518 233 .125 233 .125 242.709127z" mask="url(#grid-ios-N)"/>
        <text fill="#FFF" font-family="FiraSans-Regular, Fira Sans" font-size="13" mask="url(#grid-ios-N)">
          <tspan x="16.875" y="71">D7D7DB</tspan>
        </text>
      </g>
    </g>
    <g transform="translate(101.25)">
      <mask id="grid-ios-P" fill="#fff">
        <use xlink:href="#grid-ios-O"/>
      </mask>
      <g mask="url(#grid-ios-P)">
        <mask id="grid-ios-R" fill="#fff">
          <use xlink:href="#grid-ios-Q"/>
        </mask>
        <path stroke="#D7D7DB" stroke-width=".25" d="M.125 9.83412729L9.74392518 9.83412729 9.74392518.125.125.125.125 9.83412729zM.125 19.9591273L9.74392518 19.9591273 9.74392518 10.25.125 10.25.125 19.9591273zM.125 30.0841273L9.74392518 30.0841273 9.74392518 20.375.125 20.375.125 30.0841273zM.125 40.2091273L9.74392518 40.2091273 9.74392518 30.5.125 30.5.125 40.2091273zM.125 50.3341273L9.74392518 50.3341273 9.74392518 40.625.125 40.625.125 50.3341273zM.125 60.4591273L9.74392518 60.4591273 9.74392518 50.75.125 50.75.125 60.4591273zM.125 70.5841273L9.74392518 70.5841273 9.74392518 60.875.125 60.875.125 70.5841273zM.125 80.7091273L9.74392518 80.7091273 9.74392518 71 .125 71 .125 80.7091273zM.125 90.8341273L9.74392518 90.8341273 9.74392518 81.125.125 81.125.125 90.8341273zM.125 100.959127L9.74392518 100.959127 9.74392518 91.25.125 91.25.125 100.959127zM.125 111.084127L9.74392518 111.084127 9.74392518 101.375.125 101.375.125 111.084127zM.125 121.209127L9.74392518 121.209127 9.74392518 111.5.125 111.5.125 121.209127zM.125 131.334127L9.74392518 131.334127 9.74392518 121.625.125 121.625.125 131.334127zM.125 141.459127L9.74392518 141.459127 9.74392518 131.75.125 131.75.125 141.459127zM.125 151.584127L9.74392518 151.584127 9.74392518 141.875.125 141.875.125 151.584127zM.125 161.709127L9.74392518 161.709127 9.74392518 152 .125 152 .125 161.709127zM.125 171.834127L9.74392518 171.834127 9.74392518 162.125.125 162.125.125 171.834127zM.125 181.959127L9.74392518 181.959127 9.74392518 172.25.125 172.25.125 181.959127zM.125 192.084127L9.74392518 192.084127 9.74392518 182.375.125 182.375.125 192.084127zM.125 202.209127L9.74392518 202.209127 9.74392518 192.5.125 192.5.125 202.209127zM.125 212.334127L9.74392518 212.334127 9.74392518 202.625.125 202.625.125 212.334127zM.125 222.459127L9.74392518 222.459127 9.74392518 212.75.125 212.75.125 222.459127zM.125 232.584127L9.74392518 232.584127 9.74392518 222.875.125 222.875.125 232.584127zM.125 242.709127L9.74392518 242.709127 9.74392518 233 .125 233 .125 242.709127z" mask="url(#grid-ios-R)"/>
      </g>
    </g>
    <g transform="translate(111.375)">
      <mask id="grid-ios-T" fill="#fff">
        <use xlink:href="#grid-ios-S"/>
      </mask>
      <g mask="url(#grid-ios-T)">
        <mask id="grid-ios-V" fill="#fff">
          <use xlink:href="#grid-ios-U"/>
        </mask>
        <path stroke="#D7D7DB" stroke-width=".25" d="M.125 9.83412729L9.74392518 9.83412729 9.74392518.125.125.125.125 9.83412729zM.125 19.9591273L9.74392518 19.9591273 9.74392518 10.25.125 10.25.125 19.9591273zM.125 30.0841273L9.74392518 30.0841273 9.74392518 20.375.125 20.375.125 30.0841273zM.125 40.2091273L9.74392518 40.2091273 9.74392518 30.5.125 30.5.125 40.2091273zM.125 50.3341273L9.74392518 50.3341273 9.74392518 40.625.125 40.625.125 50.3341273zM.125 60.4591273L9.74392518 60.4591273 9.74392518 50.75.125 50.75.125 60.4591273zM.125 70.5841273L9.74392518 70.5841273 9.74392518 60.875.125 60.875.125 70.5841273zM.125 80.7091273L9.74392518 80.7091273 9.74392518 71 .125 71 .125 80.7091273zM.125 90.8341273L9.74392518 90.8341273 9.74392518 81.125.125 81.125.125 90.8341273zM.125 100.959127L9.74392518 100.959127 9.74392518 91.25.125 91.25.125 100.959127zM.125 111.084127L9.74392518 111.084127 9.74392518 101.375.125 101.375.125 111.084127zM.125 121.209127L9.74392518 121.209127 9.74392518 111.5.125 111.5.125 121.209127zM.125 131.334127L9.74392518 131.334127 9.74392518 121.625.125 121.625.125 131.334127zM.125 141.459127L9.74392518 141.459127 9.74392518 131.75.125 131.75.125 141.459127zM.125 151.584127L9.74392518 151.584127 9.74392518 141.875.125 141.875.125 151.584127zM.125 161.709127L9.74392518 161.709127 9.74392518 152 .125 152 .125 161.709127zM.125 171.834127L9.74392518 171.834127 9.74392518 162.125.125 162.125.125 171.834127zM.125 181.959127L9.74392518 181.959127 9.74392518 172.25.125 172.25.125 181.959127zM.125 192.084127L9.74392518 192.084127 9.74392518 182.375.125 182.375.125 192.084127zM.125 202.209127L9.74392518 202.209127 9.74392518 192.5.125 192.5.125 202.209127zM.125 212.334127L9.74392518 212.334127 9.74392518 202.625.125 202.625.125 212.334127zM.125 222.459127L9.74392518 222.459127 9.74392518 212.75.125 212.75.125 222.459127zM.125 232.584127L9.74392518 232.584127 9.74392518 222.875.125 222.875.125 232.584127zM.125 242.709127L9.74392518 242.709127 9.74392518 233 .125 233 .125 242.709127z" mask="url(#grid-ios-V)"/>
      </g>
    </g>
    <g transform="translate(121.5)">
      <mask id="grid-ios-X" fill="#fff">
        <use xlink:href="#grid-ios-W"/>
      </mask>
      <g mask="url(#grid-ios-X)">
        <mask id="grid-ios-Z" fill="#fff">
          <use xlink:href="#grid-ios-Y"/>
        </mask>
        <path stroke="#D7D7DB" stroke-width=".25" d="M.125 9.83412729L9.74392518 9.83412729 9.74392518.125.125.125.125 9.83412729zM.125 19.9591273L9.74392518 19.9591273 9.74392518 10.25.125 10.25.125 19.9591273zM.125 30.0841273L9.74392518 30.0841273 9.74392518 20.375.125 20.375.125 30.0841273zM.125 40.2091273L9.74392518 40.2091273 9.74392518 30.5.125 30.5.125 40.2091273zM.125 50.3341273L9.74392518 50.3341273 9.74392518 40.625.125 40.625.125 50.3341273zM.125 60.4591273L9.74392518 60.4591273 9.74392518 50.75.125 50.75.125 60.4591273zM.125 70.5841273L9.74392518 70.5841273 9.74392518 60.875.125 60.875.125 70.5841273zM.125 80.7091273L9.74392518 80.7091273 9.74392518 71 .125 71 .125 80.7091273zM.125 90.8341273L9.74392518 90.8341273 9.74392518 81.125.125 81.125.125 90.8341273zM.125 100.959127L9.74392518 100.959127 9.74392518 91.25.125 91.25.125 100.959127zM.125 111.084127L9.74392518 111.084127 9.74392518 101.375.125 101.375.125 111.084127zM.125 121.209127L9.74392518 121.209127 9.74392518 111.5.125 111.5.125 121.209127zM.125 131.334127L9.74392518 131.334127 9.74392518 121.625.125 121.625.125 131.334127zM.125 141.459127L9.74392518 141.459127 9.74392518 131.75.125 131.75.125 141.459127zM.125 151.584127L9.74392518 151.584127 9.74392518 141.875.125 141.875.125 151.584127zM.125 161.709127L9.74392518 161.709127 9.74392518 152 .125 152 .125 161.709127zM.125 171.834127L9.74392518 171.834127 9.74392518 162.125.125 162.125.125 171.834127zM.125 181.959127L9.74392518 181.959127 9.74392518 172.25.125 172.25.125 181.959127zM.125 192.084127L9.74392518 192.084127 9.74392518 182.375.125 182.375.125 192.084127zM.125 202.209127L9.74392518 202.209127 9.74392518 192.5.125 192.5.125 202.209127zM.125 212.334127L9.74392518 212.334127 9.74392518 202.625.125 202.625.125 212.334127zM.125 222.459127L9.74392518 222.459127 9.74392518 212.75.125 212.75.125 222.459127zM.125 232.584127L9.74392518 232.584127 9.74392518 222.875.125 222.875.125 232.584127zM.125 242.709127L9.74392518 242.709127 9.74392518 233 .125 233 .125 242.709127z" mask="url(#grid-ios-Z)"/>
      </g>
    </g>
    <g transform="translate(131.625)">
      <mask id="grid-ios-ab" fill="#fff">
        <use xlink:href="#grid-ios-aa"/>
      </mask>
      <g mask="url(#grid-ios-ab)">
        <mask id="grid-ios-ad" fill="#fff">
          <use xlink:href="#grid-ios-ac"/>
        </mask>
        <path stroke="#D7D7DB" stroke-width=".25" d="M.125 9.83412729L9.74392518 9.83412729 9.74392518.125.125.125.125 9.83412729zM.125 19.9591273L9.74392518 19.9591273 9.74392518 10.25.125 10.25.125 19.9591273zM.125 30.0841273L9.74392518 30.0841273 9.74392518 20.375.125 20.375.125 30.0841273zM.125 40.2091273L9.74392518 40.2091273 9.74392518 30.5.125 30.5.125 40.2091273zM.125 50.3341273L9.74392518 50.3341273 9.74392518 40.625.125 40.625.125 50.3341273zM.125 60.4591273L9.74392518 60.4591273 9.74392518 50.75.125 50.75.125 60.4591273zM.125 70.5841273L9.74392518 70.5841273 9.74392518 60.875.125 60.875.125 70.5841273zM.125 80.7091273L9.74392518 80.7091273 9.74392518 71 .125 71 .125 80.7091273zM.125 90.8341273L9.74392518 90.8341273 9.74392518 81.125.125 81.125.125 90.8341273zM.125 100.959127L9.74392518 100.959127 9.74392518 91.25.125 91.25.125 100.959127zM.125 111.084127L9.74392518 111.084127 9.74392518 101.375.125 101.375.125 111.084127zM.125 121.209127L9.74392518 121.209127 9.74392518 111.5.125 111.5.125 121.209127zM.125 131.334127L9.74392518 131.334127 9.74392518 121.625.125 121.625.125 131.334127zM.125 141.459127L9.74392518 141.459127 9.74392518 131.75.125 131.75.125 141.459127zM.125 151.584127L9.74392518 151.584127 9.74392518 141.875.125 141.875.125 151.584127zM.125 161.709127L9.74392518 161.709127 9.74392518 152 .125 152 .125 161.709127zM.125 171.834127L9.74392518 171.834127 9.74392518 162.125.125 162.125.125 171.834127zM.125 181.959127L9.74392518 181.959127 9.74392518 172.25.125 172.25.125 181.959127zM.125 192.084127L9.74392518 192.084127 9.74392518 182.375.125 182.375.125 192.084127zM.125 202.209127L9.74392518 202.209127 9.74392518 192.5.125 192.5.125 202.209127zM.125 212.334127L9.74392518 212.334127 9.74392518 202.625.125 202.625.125 212.334127zM.125 222.459127L9.74392518 222.459127 9.74392518 212.75.125 212.75.125 222.459127zM.125 232.584127L9.74392518 232.584127 9.74392518 222.875.125 222.875.125 232.584127zM.125 242.709127L9.74392518 242.709127 9.74392518 233 .125 233 .125 242.709127z" mask="url(#grid-ios-ad)"/>
      </g>
    </g>
    <g transform="translate(141.75)">
      <mask id="grid-ios-af" fill="#fff">
        <use xlink:href="#grid-ios-ae"/>
      </mask>
      <g mask="url(#grid-ios-af)">
        <mask id="grid-ios-ah" fill="#fff">
          <use xlink:href="#grid-ios-ag"/>
        </mask>
        <path stroke="#D7D7DB" stroke-width=".25" d="M.125 9.83412729L9.74392518 9.83412729 9.74392518.125.125.125.125 9.83412729zM.125 19.9591273L9.74392518 19.9591273 9.74392518 10.25.125 10.25.125 19.9591273zM.125 30.0841273L9.74392518 30.0841273 9.74392518 20.375.125 20.375.125 30.0841273zM.125 40.2091273L9.74392518 40.2091273 9.74392518 30.5.125 30.5.125 40.2091273zM.125 50.3341273L9.74392518 50.3341273 9.74392518 40.625.125 40.625.125 50.3341273zM.125 60.4591273L9.74392518 60.4591273 9.74392518 50.75.125 50.75.125 60.4591273zM.125 70.5841273L9.74392518 70.5841273 9.74392518 60.875.125 60.875.125 70.5841273zM.125 80.7091273L9.74392518 80.7091273 9.74392518 71 .125 71 .125 80.7091273zM.125 90.8341273L9.74392518 90.8341273 9.74392518 81.125.125 81.125.125 90.8341273zM.125 100.959127L9.74392518 100.959127 9.74392518 91.25.125 91.25.125 100.959127zM.125 111.084127L9.74392518 111.084127 9.74392518 101.375.125 101.375.125 111.084127zM.125 121.209127L9.74392518 121.209127 9.74392518 111.5.125 111.5.125 121.209127zM.125 131.334127L9.74392518 131.334127 9.74392518 121.625.125 121.625.125 131.334127zM.125 141.459127L9.74392518 141.459127 9.74392518 131.75.125 131.75.125 141.459127zM.125 151.584127L9.74392518 151.584127 9.74392518 141.875.125 141.875.125 151.584127zM.125 161.709127L9.74392518 161.709127 9.74392518 152 .125 152 .125 161.709127zM.125 171.834127L9.74392518 171.834127 9.74392518 162.125.125 162.125.125 171.834127zM.125 181.959127L9.74392518 181.959127 9.74392518 172.25.125 172.25.125 181.959127zM.125 192.084127L9.74392518 192.084127 9.74392518 182.375.125 182.375.125 192.084127zM.125 202.209127L9.74392518 202.209127 9.74392518 192.5.125 192.5.125 202.209127zM.125 212.334127L9.74392518 212.334127 9.74392518 202.625.125 202.625.125 212.334127zM.125 222.459127L9.74392518 222.459127 9.74392518 212.75.125 212.75.125 222.459127zM.125 232.584127L9.74392518 232.584127 9.74392518 222.875.125 222.875.125 232.584127zM.125 242.709127L9.74392518 242.709127 9.74392518 233 .125 233 .125 242.709127z" mask="url(#grid-ios-ah)"/>
      </g>
    </g>
    <g transform="translate(151.875)">
      <mask id="grid-ios-aj" fill="#fff">
        <use xlink:href="#grid-ios-ai"/>
      </mask>
      <g mask="url(#grid-ios-aj)">
        <mask id="grid-ios-al" fill="#fff">
          <use xlink:href="#grid-ios-ak"/>
        </mask>
        <path stroke="#D7D7DB" stroke-width=".25" d="M.125 9.83412729L9.74392518 9.83412729 9.74392518.125.125.125.125 9.83412729zM.125 19.9591273L9.74392518 19.9591273 9.74392518 10.25.125 10.25.125 19.9591273zM.125 30.0841273L9.74392518 30.0841273 9.74392518 20.375.125 20.375.125 30.0841273zM.125 40.2091273L9.74392518 40.2091273 9.74392518 30.5.125 30.5.125 40.2091273zM.125 50.3341273L9.74392518 50.3341273 9.74392518 40.625.125 40.625.125 50.3341273zM.125 60.4591273L9.74392518 60.4591273 9.74392518 50.75.125 50.75.125 60.4591273zM.125 70.5841273L9.74392518 70.5841273 9.74392518 60.875.125 60.875.125 70.5841273zM.125 80.7091273L9.74392518 80.7091273 9.74392518 71 .125 71 .125 80.7091273zM.125 90.8341273L9.74392518 90.8341273 9.74392518 81.125.125 81.125.125 90.8341273zM.125 100.959127L9.74392518 100.959127 9.74392518 91.25.125 91.25.125 100.959127zM.125 111.084127L9.74392518 111.084127 9.74392518 101.375.125 101.375.125 111.084127zM.125 121.209127L9.74392518 121.209127 9.74392518 111.5.125 111.5.125 121.209127zM.125 131.334127L9.74392518 131.334127 9.74392518 121.625.125 121.625.125 131.334127zM.125 141.459127L9.74392518 141.459127 9.74392518 131.75.125 131.75.125 141.459127zM.125 151.584127L9.74392518 151.584127 9.74392518 141.875.125 141.875.125 151.584127zM.125 161.709127L9.74392518 161.709127 9.74392518 152 .125 152 .125 161.709127zM.125 171.834127L9.74392518 171.834127 9.74392518 162.125.125 162.125.125 171.834127zM.125 181.959127L9.74392518 181.959127 9.74392518 172.25.125 172.25.125 181.959127zM.125 192.084127L9.74392518 192.084127 9.74392518 182.375.125 182.375.125 192.084127zM.125 202.209127L9.74392518 202.209127 9.74392518 192.5.125 192.5.125 202.209127zM.125 212.334127L9.74392518 212.334127 9.74392518 202.625.125 202.625.125 212.334127zM.125 222.459127L9.74392518 222.459127 9.74392518 212.75.125 212.75.125 222.459127zM.125 232.584127L9.74392518 232.584127 9.74392518 222.875.125 222.875.125 232.584127zM.125 242.709127L9.74392518 242.709127 9.74392518 233 .125 233 .125 242.709127z" mask="url(#grid-ios-al)"/>
      </g>
    </g>
    <g transform="translate(162)">
      <mask id="grid-ios-an" fill="#fff">
        <use xlink:href="#grid-ios-am"/>
      </mask>
      <g mask="url(#grid-ios-an)">
        <mask id="grid-ios-ap" fill="#fff">
          <use xlink:href="#grid-ios-ao"/>
        </mask>
        <path stroke="#D7D7DB" stroke-width=".25" d="M.125 9.83412729L9.74392518 9.83412729 9.74392518.125.125.125.125 9.83412729zM.125 19.9591273L9.74392518 19.9591273 9.74392518 10.25.125 10.25.125 19.9591273zM.125 30.0841273L9.74392518 30.0841273 9.74392518 20.375.125 20.375.125 30.0841273zM.125 40.2091273L9.74392518 40.2091273 9.74392518 30.5.125 30.5.125 40.2091273zM.125 50.3341273L9.74392518 50.3341273 9.74392518 40.625.125 40.625.125 50.3341273zM.125 60.4591273L9.74392518 60.4591273 9.74392518 50.75.125 50.75.125 60.4591273zM.125 70.5841273L9.74392518 70.5841273 9.74392518 60.875.125 60.875.125 70.5841273zM.125 80.7091273L9.74392518 80.7091273 9.74392518 71 .125 71 .125 80.7091273zM.125 90.8341273L9.74392518 90.8341273 9.74392518 81.125.125 81.125.125 90.8341273zM.125 100.959127L9.74392518 100.959127 9.74392518 91.25.125 91.25.125 100.959127zM.125 111.084127L9.74392518 111.084127 9.74392518 101.375.125 101.375.125 111.084127zM.125 121.209127L9.74392518 121.209127 9.74392518 111.5.125 111.5.125 121.209127zM.125 131.334127L9.74392518 131.334127 9.74392518 121.625.125 121.625.125 131.334127zM.125 141.459127L9.74392518 141.459127 9.74392518 131.75.125 131.75.125 141.459127zM.125 151.584127L9.74392518 151.584127 9.74392518 141.875.125 141.875.125 151.584127zM.125 161.709127L9.74392518 161.709127 9.74392518 152 .125 152 .125 161.709127zM.125 171.834127L9.74392518 171.834127 9.74392518 162.125.125 162.125.125 171.834127zM.125 181.959127L9.74392518 181.959127 9.74392518 172.25.125 172.25.125 181.959127zM.125 192.084127L9.74392518 192.084127 9.74392518 182.375.125 182.375.125 192.084127zM.125 202.209127L9.74392518 202.209127 9.74392518 192.5.125 192.5.125 202.209127zM.125 212.334127L9.74392518 212.334127 9.74392518 202.625.125 202.625.125 212.334127zM.125 222.459127L9.74392518 222.459127 9.74392518 212.75.125 212.75.125 222.459127zM.125 232.584127L9.74392518 232.584127 9.74392518 222.875.125 222.875.125 232.584127zM.125 242.709127L9.74392518 242.709127 9.74392518 233 .125 233 .125 242.709127z" mask="url(#grid-ios-ap)"/>
      </g>
    </g>
    <g transform="translate(172.125)">
      <mask id="grid-ios-ar" fill="#fff">
        <use xlink:href="#grid-ios-aq"/>
      </mask>
      <g mask="url(#grid-ios-ar)">
        <mask id="grid-ios-at" fill="#fff">
          <use xlink:href="#grid-ios-as"/>
        </mask>
        <path stroke="#D7D7DB" stroke-width=".25" d="M.119995117 9.83412729L9.7389203 9.83412729 9.7389203.125.119995117.125.119995117 9.83412729zM.119995117 19.9591273L9.7389203 19.9591273 9.7389203 10.25.119995117 10.25.119995117 19.9591273zM.119995117 30.0841273L9.7389203 30.0841273 9.7389203 20.375.119995117 20.375.119995117 30.0841273zM.119995117 40.2091273L9.7389203 40.2091273 9.7389203 30.5.119995117 30.5.119995117 40.2091273zM.119995117 50.3341273L9.7389203 50.3341273 9.7389203 40.625.119995117 40.625.119995117 50.3341273zM.119995117 60.4591273L9.7389203 60.4591273 9.7389203 50.75.119995117 50.75.119995117 60.4591273zM.119995117 70.5841273L9.7389203 70.5841273 9.7389203 60.875.119995117 60.875.119995117 70.5841273zM.119995117 80.7091273L9.7389203 80.7091273 9.7389203 71 .119995117 71 .119995117 80.7091273zM.119995117 90.8341273L9.7389203 90.8341273 9.7389203 81.125.119995117 81.125.119995117 90.8341273zM.119995117 100.959127L9.7389203 100.959127 9.7389203 91.25.119995117 91.25.119995117 100.959127zM.119995117 111.084127L9.7389203 111.084127 9.7389203 101.375.119995117 101.375.119995117 111.084127zM.119995117 121.209127L9.7389203 121.209127 9.7389203 111.5.119995117 111.5.119995117 121.209127zM.119995117 131.334127L9.7389203 131.334127 9.7389203 121.625.119995117 121.625.119995117 131.334127zM.119995117 141.459127L9.7389203 141.459127 9.7389203 131.75.119995117 131.75.119995117 141.459127zM.119995117 151.584127L9.7389203 151.584127 9.7389203 141.875.119995117 141.875.119995117 151.584127zM.119995117 161.709127L9.7389203 161.709127 9.7389203 152 .119995117 152 .119995117 161.709127zM.119995117 171.834127L9.7389203 171.834127 9.7389203 162.125.119995117 162.125.119995117 171.834127zM.119995117 181.959127L9.7389203 181.959127 9.7389203 172.25.119995117 172.25.119995117 181.959127zM.119995117 192.084127L9.7389203 192.084127 9.7389203 182.375.119995117 182.375.119995117 192.084127zM.119995117 202.209127L9.7389203 202.209127 9.7389203 192.5.119995117 192.5.119995117 202.209127zM.119995117 212.334127L9.7389203 212.334127 9.7389203 202.625.119995117 202.625.119995117 212.334127zM.119995117 222.459127L9.7389203 222.459127 9.7389203 212.75.119995117 212.75.119995117 222.459127zM.119995117 232.584127L9.7389203 232.584127 9.7389203 222.875.119995117 222.875.119995117 232.584127zM.119995117 242.709127L9.7389203 242.709127 9.7389203 233 .119995117 233 .119995117 242.709127z" mask="url(#grid-ios-at)"/>
      </g>
    </g>
    <g transform="translate(182.25)">
      <mask id="grid-ios-av" fill="#fff">
        <use xlink:href="#grid-ios-au"/>
      </mask>
      <g mask="url(#grid-ios-av)">
        <mask id="grid-ios-ax" fill="#fff">
          <use xlink:href="#grid-ios-aw"/>
        </mask>
        <path stroke="#D7D7DB" stroke-width=".25" d="M.125 9.83412729L9.74392518 9.83412729 9.74392518.125.125.125.125 9.83412729zM.125 19.9591273L9.74392518 19.9591273 9.74392518 10.25.125 10.25.125 19.9591273zM.125 30.0841273L9.74392518 30.0841273 9.74392518 20.375.125 20.375.125 30.0841273zM.125 40.2091273L9.74392518 40.2091273 9.74392518 30.5.125 30.5.125 40.2091273zM.125 50.3341273L9.74392518 50.3341273 9.74392518 40.625.125 40.625.125 50.3341273zM.125 60.4591273L9.74392518 60.4591273 9.74392518 50.75.125 50.75.125 60.4591273zM.125 70.5841273L9.74392518 70.5841273 9.74392518 60.875.125 60.875.125 70.5841273zM.125 80.7091273L9.74392518 80.7091273 9.74392518 71 .125 71 .125 80.7091273zM.125 90.8341273L9.74392518 90.8341273 9.74392518 81.125.125 81.125.125 90.8341273zM.125 100.959127L9.74392518 100.959127 9.74392518 91.25.125 91.25.125 100.959127zM.125 111.084127L9.74392518 111.084127 9.74392518 101.375.125 101.375.125 111.084127zM.125 121.209127L9.74392518 121.209127 9.74392518 111.5.125 111.5.125 121.209127zM.125 131.334127L9.74392518 131.334127 9.74392518 121.625.125 121.625.125 131.334127zM.125 141.459127L9.74392518 141.459127 9.74392518 131.75.125 131.75.125 141.459127zM.125 151.584127L9.74392518 151.584127 9.74392518 141.875.125 141.875.125 151.584127zM.125 161.709127L9.74392518 161.709127 9.74392518 152 .125 152 .125 161.709127zM.125 171.834127L9.74392518 171.834127 9.74392518 162.125.125 162.125.125 171.834127zM.125 181.959127L9.74392518 181.959127 9.74392518 172.25.125 172.25.125 181.959127zM.125 192.084127L9.74392518 192.084127 9.74392518 182.375.125 182.375.125 192.084127zM.125 202.209127L9.74392518 202.209127 9.74392518 192.5.125 192.5.125 202.209127zM.125 212.334127L9.74392518 212.334127 9.74392518 202.625.125 202.625.125 212.334127zM.125 222.459127L9.74392518 222.459127 9.74392518 212.75.125 212.75.125 222.459127zM.125 232.584127L9.74392518 232.584127 9.74392518 222.875.125 222.875.125 232.584127zM.125 242.709127L9.74392518 242.709127 9.74392518 233 .125 233 .125 242.709127z" mask="url(#grid-ios-ax)"/>
      </g>
    </g>
    <g transform="translate(192.375)">
      <mask id="grid-ios-az" fill="#fff">
        <use xlink:href="#grid-ios-ay"/>
      </mask>
      <g mask="url(#grid-ios-az)">
        <mask id="grid-ios-aB" fill="#fff">
          <use xlink:href="#grid-ios-aA"/>
        </mask>
        <path stroke="#D7D7DB" stroke-width=".25" d="M.125 9.83412729L9.74392518 9.83412729 9.74392518.125.125.125.125 9.83412729zM.125 19.9591273L9.74392518 19.9591273 9.74392518 10.25.125 10.25.125 19.9591273zM.125 30.0841273L9.74392518 30.0841273 9.74392518 20.375.125 20.375.125 30.0841273zM.125 40.2091273L9.74392518 40.2091273 9.74392518 30.5.125 30.5.125 40.2091273zM.125 50.3341273L9.74392518 50.3341273 9.74392518 40.625.125 40.625.125 50.3341273zM.125 60.4591273L9.74392518 60.4591273 9.74392518 50.75.125 50.75.125 60.4591273zM.125 70.5841273L9.74392518 70.5841273 9.74392518 60.875.125 60.875.125 70.5841273zM.125 80.7091273L9.74392518 80.7091273 9.74392518 71 .125 71 .125 80.7091273zM.125 90.8341273L9.74392518 90.8341273 9.74392518 81.125.125 81.125.125 90.8341273zM.125 100.959127L9.74392518 100.959127 9.74392518 91.25.125 91.25.125 100.959127zM.125 111.084127L9.74392518 111.084127 9.74392518 101.375.125 101.375.125 111.084127zM.125 121.209127L9.74392518 121.209127 9.74392518 111.5.125 111.5.125 121.209127zM.125 131.334127L9.74392518 131.334127 9.74392518 121.625.125 121.625.125 131.334127zM.125 141.459127L9.74392518 141.459127 9.74392518 131.75.125 131.75.125 141.459127zM.125 151.584127L9.74392518 151.584127 9.74392518 141.875.125 141.875.125 151.584127zM.125 161.709127L9.74392518 161.709127 9.74392518 152 .125 152 .125 161.709127zM.125 171.834127L9.74392518 171.834127 9.74392518 162.125.125 162.125.125 171.834127zM.125 181.959127L9.74392518 181.959127 9.74392518 172.25.125 172.25.125 181.959127zM.125 192.084127L9.74392518 192.084127 9.74392518 182.375.125 182.375.125 192.084127zM.125 202.209127L9.74392518 202.209127 9.74392518 192.5.125 192.5.125 202.209127zM.125 212.334127L9.74392518 212.334127 9.74392518 202.625.125 202.625.125 212.334127zM.125 222.459127L9.74392518 222.459127 9.74392518 212.75.125 212.75.125 222.459127zM.125 232.584127L9.74392518 232.584127 9.74392518 222.875.125 222.875.125 232.584127zM.125 242.709127L9.74392518 242.709127 9.74392518 233 .125 233 .125 242.709127z" mask="url(#grid-ios-aB)"/>
      </g>
    </g>
    <g transform="translate(202.5)">
      <mask id="grid-ios-aD" fill="#fff">
        <use xlink:href="#grid-ios-aC"/>
      </mask>
      <g mask="url(#grid-ios-aD)">
        <mask id="grid-ios-aF" fill="#fff">
          <use xlink:href="#grid-ios-aE"/>
        </mask>
        <path stroke="#D7D7DB" stroke-width=".25" d="M.125 9.83412729L9.74392518 9.83412729 9.74392518.125.125.125.125 9.83412729zM.125 19.9591273L9.74392518 19.9591273 9.74392518 10.25.125 10.25.125 19.9591273zM.125 30.0841273L9.74392518 30.0841273 9.74392518 20.375.125 20.375.125 30.0841273zM.125 40.2091273L9.74392518 40.2091273 9.74392518 30.5.125 30.5.125 40.2091273zM.125 50.3341273L9.74392518 50.3341273 9.74392518 40.625.125 40.625.125 50.3341273zM.125 60.4591273L9.74392518 60.4591273 9.74392518 50.75.125 50.75.125 60.4591273zM.125 70.5841273L9.74392518 70.5841273 9.74392518 60.875.125 60.875.125 70.5841273zM.125 80.7091273L9.74392518 80.7091273 9.74392518 71 .125 71 .125 80.7091273zM.125 90.8341273L9.74392518 90.8341273 9.74392518 81.125.125 81.125.125 90.8341273zM.125 100.959127L9.74392518 100.959127 9.74392518 91.25.125 91.25.125 100.959127zM.125 111.084127L9.74392518 111.084127 9.74392518 101.375.125 101.375.125 111.084127zM.125 121.209127L9.74392518 121.209127 9.74392518 111.5.125 111.5.125 121.209127zM.125 131.334127L9.74392518 131.334127 9.74392518 121.625.125 121.625.125 131.334127zM.125 141.459127L9.74392518 141.459127 9.74392518 131.75.125 131.75.125 141.459127zM.125 151.584127L9.74392518 151.584127 9.74392518 141.875.125 141.875.125 151.584127zM.125 161.709127L9.74392518 161.709127 9.74392518 152 .125 152 .125 161.709127zM.125 171.834127L9.74392518 171.834127 9.74392518 162.125.125 162.125.125 171.834127zM.125 181.959127L9.74392518 181.959127 9.74392518 172.25.125 172.25.125 181.959127zM.125 192.084127L9.74392518 192.084127 9.74392518 182.375.125 182.375.125 192.084127zM.125 202.209127L9.74392518 202.209127 9.74392518 192.5.125 192.5.125 202.209127zM.125 212.334127L9.74392518 212.334127 9.74392518 202.625.125 202.625.125 212.334127zM.125 222.459127L9.74392518 222.459127 9.74392518 212.75.125 212.75.125 222.459127zM.125 232.584127L9.74392518 232.584127 9.74392518 222.875.125 222.875.125 232.584127zM.125 242.709127L9.74392518 242.709127 9.74392518 233 .125 233 .125 242.709127z" mask="url(#grid-ios-aF)"/>
      </g>
    </g>
    <g transform="translate(212.625)">
      <mask id="grid-ios-aH" fill="#fff">
        <use xlink:href="#grid-ios-aG"/>
      </mask>
      <g mask="url(#grid-ios-aH)">
        <mask id="grid-ios-aJ" fill="#fff">
          <use xlink:href="#grid-ios-aI"/>
        </mask>
        <path stroke="#D7D7DB" stroke-width=".25" d="M.125 9.83412729L9.74392518 9.83412729 9.74392518.125.125.125.125 9.83412729zM.125 19.9591273L9.74392518 19.9591273 9.74392518 10.25.125 10.25.125 19.9591273zM.125 30.0841273L9.74392518 30.0841273 9.74392518 20.375.125 20.375.125 30.0841273zM.125 40.2091273L9.74392518 40.2091273 9.74392518 30.5.125 30.5.125 40.2091273zM.125 50.3341273L9.74392518 50.3341273 9.74392518 40.625.125 40.625.125 50.3341273zM.125 60.4591273L9.74392518 60.4591273 9.74392518 50.75.125 50.75.125 60.4591273zM.125 70.5841273L9.74392518 70.5841273 9.74392518 60.875.125 60.875.125 70.5841273zM.125 80.7091273L9.74392518 80.7091273 9.74392518 71 .125 71 .125 80.7091273zM.125 90.8341273L9.74392518 90.8341273 9.74392518 81.125.125 81.125.125 90.8341273zM.125 100.959127L9.74392518 100.959127 9.74392518 91.25.125 91.25.125 100.959127zM.125 111.084127L9.74392518 111.084127 9.74392518 101.375.125 101.375.125 111.084127zM.125 121.209127L9.74392518 121.209127 9.74392518 111.5.125 111.5.125 121.209127zM.125 131.334127L9.74392518 131.334127 9.74392518 121.625.125 121.625.125 131.334127zM.125 141.459127L9.74392518 141.459127 9.74392518 131.75.125 131.75.125 141.459127zM.125 151.584127L9.74392518 151.584127 9.74392518 141.875.125 141.875.125 151.584127zM.125 161.709127L9.74392518 161.709127 9.74392518 152 .125 152 .125 161.709127zM.125 171.834127L9.74392518 171.834127 9.74392518 162.125.125 162.125.125 171.834127zM.125 181.959127L9.74392518 181.959127 9.74392518 172.25.125 172.25.125 181.959127zM.125 192.084127L9.74392518 192.084127 9.74392518 182.375.125 182.375.125 192.084127zM.125 202.209127L9.74392518 202.209127 9.74392518 192.5.125 192.5.125 202.209127zM.125 212.334127L9.74392518 212.334127 9.74392518 202.625.125 202.625.125 212.334127zM.125 222.459127L9.74392518 222.459127 9.74392518 212.75.125 212.75.125 222.459127zM.125 232.584127L9.74392518 232.584127 9.74392518 222.875.125 222.875.125 232.584127zM.125 242.709127L9.74392518 242.709127 9.74392518 233 .125 233 .125 242.709127z" mask="url(#grid-ios-aJ)"/>
      </g>
    </g>
    <g transform="translate(222.75)">
      <mask id="grid-ios-aL" fill="#fff">
        <use xlink:href="#grid-ios-aK"/>
      </mask>
      <g mask="url(#grid-ios-aL)">
        <mask id="grid-ios-aN" fill="#fff">
          <use xlink:href="#grid-ios-aM"/>
        </mask>
        <path stroke="#D7D7DB" stroke-width=".25" d="M.125 9.83412729L9.74392518 9.83412729 9.74392518.125.125.125.125 9.83412729zM.125 19.9591273L9.74392518 19.9591273 9.74392518 10.25.125 10.25.125 19.9591273zM.125 30.0841273L9.74392518 30.0841273 9.74392518 20.375.125 20.375.125 30.0841273zM.125 40.2091273L9.74392518 40.2091273 9.74392518 30.5.125 30.5.125 40.2091273zM.125 50.3341273L9.74392518 50.3341273 9.74392518 40.625.125 40.625.125 50.3341273zM.125 60.4591273L9.74392518 60.4591273 9.74392518 50.75.125 50.75.125 60.4591273zM.125 70.5841273L9.74392518 70.5841273 9.74392518 60.875.125 60.875.125 70.5841273zM.125 80.7091273L9.74392518 80.7091273 9.74392518 71 .125 71 .125 80.7091273zM.125 90.8341273L9.74392518 90.8341273 9.74392518 81.125.125 81.125.125 90.8341273zM.125 100.959127L9.74392518 100.959127 9.74392518 91.25.125 91.25.125 100.959127zM.125 111.084127L9.74392518 111.084127 9.74392518 101.375.125 101.375.125 111.084127zM.125 121.209127L9.74392518 121.209127 9.74392518 111.5.125 111.5.125 121.209127zM.125 131.334127L9.74392518 131.334127 9.74392518 121.625.125 121.625.125 131.334127zM.125 141.459127L9.74392518 141.459127 9.74392518 131.75.125 131.75.125 141.459127zM.125 151.584127L9.74392518 151.584127 9.74392518 141.875.125 141.875.125 151.584127zM.125 161.709127L9.74392518 161.709127 9.74392518 152 .125 152 .125 161.709127zM.125 171.834127L9.74392518 171.834127 9.74392518 162.125.125 162.125.125 171.834127zM.125 181.959127L9.74392518 181.959127 9.74392518 172.25.125 172.25.125 181.959127zM.125 192.084127L9.74392518 192.084127 9.74392518 182.375.125 182.375.125 192.084127zM.125 202.209127L9.74392518 202.209127 9.74392518 192.5.125 192.5.125 202.209127zM.125 212.334127L9.74392518 212.334127 9.74392518 202.625.125 202.625.125 212.334127zM.125 222.459127L9.74392518 222.459127 9.74392518 212.75.125 212.75.125 222.459127zM.125 232.584127L9.74392518 232.584127 9.74392518 222.875.125 222.875.125 232.584127zM.125 242.709127L9.74392518 242.709127 9.74392518 233 .125 233 .125 242.709127z" mask="url(#grid-ios-aN)"/>
      </g>
    </g>
    <mask id="grid-ios-aP" fill="#fff">
      <use xlink:href="#grid-ios-aO"/>
    </mask>
    <g mask="url(#grid-ios-aP)">
      <g transform="translate(232.875)">
        <mask id="grid-ios-aR" fill="#fff">
          <use xlink:href="#grid-ios-aQ"/>
        </mask>
        <path stroke="#D7D7DB" stroke-width=".25" d="M.130004883 9.83412729L9.74893007 9.83412729 9.74893007.125.130004883.125.130004883 9.83412729zM.130004883 19.9591273L9.74893007 19.9591273 9.74893007 10.25.130004883 10.25.130004883 19.9591273zM.130004883 30.0841273L9.74893007 30.0841273 9.74893007 20.375.130004883 20.375.130004883 30.0841273zM.130004883 40.2091273L9.74893007 40.2091273 9.74893007 30.5.130004883 30.5.130004883 40.2091273zM.130004883 50.3341273L9.74893007 50.3341273 9.74893007 40.625.130004883 40.625.130004883 50.3341273zM.130004883 60.4591273L9.74893007 60.4591273 9.74893007 50.75.130004883 50.75.130004883 60.4591273zM.130004883 70.5841273L9.74893007 70.5841273 9.74893007 60.875.130004883 60.875.130004883 70.5841273zM.130004883 80.7091273L9.74893007 80.7091273 9.74893007 71 .130004883 71 .130004883 80.7091273zM.130004883 90.8341273L9.74893007 90.8341273 9.74893007 81.125.130004883 81.125.130004883 90.8341273zM.130004883 100.959127L9.74893007 100.959127 9.74893007 91.25.130004883 91.25.130004883 100.959127zM.130004883 111.084127L9.74893007 111.084127 9.74893007 101.375.130004883 101.375.130004883 111.084127zM.130004883 121.209127L9.74893007 121.209127 9.74893007 111.5.130004883 111.5.130004883 121.209127zM.130004883 131.334127L9.74893007 131.334127 9.74893007 121.625.130004883 121.625.130004883 131.334127zM.130004883 141.459127L9.74893007 141.459127 9.74893007 131.75.130004883 131.75.130004883 141.459127zM.130004883 151.584127L9.74893007 151.584127 9.74893007 141.875.130004883 141.875.130004883 151.584127zM.130004883 161.709127L9.74893007 161.709127 9.74893007 152 .130004883 152 .130004883 161.709127zM.130004883 171.834127L9.74893007 171.834127 9.74893007 162.125.130004883 162.125.130004883 171.834127zM.130004883 181.959127L9.74893007 181.959127 9.74893007 172.25.130004883 172.25.130004883 181.959127zM.130004883 192.084127L9.74893007 192.084127 9.74893007 182.375.130004883 182.375.130004883 192.084127zM.130004883 202.209127L9.74893007 202.209127 9.74893007 192.5.130004883 192.5.130004883 202.209127zM.130004883 212.334127L9.74893007 212.334127 9.74893007 202.625.130004883 202.625.130004883 212.334127zM.130004883 222.459127L9.74893007 222.459127 9.74893007 212.75.130004883 212.75.130004883 222.459127zM.130004883 232.584127L9.74893007 232.584127 9.74893007 222.875.130004883 222.875.130004883 232.584127zM.130004883 242.709127L9.74893007 242.709127 9.74893007 233 .130004883 233 .130004883 242.709127z" mask="url(#grid-ios-aR)"/>
      </g>
    </g>
    <rect width="9" height="1" x="258.076" fill="#0A84FF" fill-rule="nonzero"/>
    <rect width="9" height="1" x="258.076" y="241" fill="#0A84FF" fill-rule="nonzero"/>
    <rect width="1" height="242" x="262.076" fill="#0A84FF" fill-rule="nonzero"/>
    <rect width="32" height="22" x="247.076" y="110" fill="#FFF" fill-opacity=".8" fill-rule="nonzero" rx="2"/>
    <rect width="32" height="22" x="247.076" y="110" fill="#0A84FF" fill-opacity=".8" fill-rule="nonzero" rx="2"/>
    <path fill="#FFF" d="M252.229,116.183 C251.137,116.183 250.292,116.625 249.59,117.496 L250.396,118.12 C250.955,117.457 251.436,117.171 252.164,117.171 C253.009,117.171 253.594,117.704 253.594,118.614 C253.594,120.031 252.84,120.863 249.772,124.061 L249.772,125.01 L254.907,125.01 L255.05,124.009 L251.137,124.009 C253.802,121.344 254.842,120.187 254.842,118.562 C254.842,117.21 253.828,116.183 252.229,116.183 Z M262.226,122.865 L262.226,121.916 L261.095,121.916 L261.095,119.576 L260.055,119.576 L259.951,121.916 L257.481,121.916 L259.834,116.599 L258.833,116.183 L256.22,122.007 L256.22,122.865 L259.938,122.865 L259.938,125.01 L261.095,125.01 L261.095,122.865 L262.226,122.865 Z M266.997,118.003 C268.817,118.003 269.532,119.42 269.532,121.578 C269.532,123.658 268.609,125.166 266.841,125.166 C266.1,125.166 265.489,124.919 265.047,124.386 L265.047,127.636 L263.851,127.779 L263.851,118.159 L264.878,118.159 L264.969,119.082 C265.476,118.38 266.217,118.003 266.997,118.003 Z M266.555,124.191 C267.647,124.191 268.245,123.372 268.245,121.578 C268.245,119.797 267.725,118.952 266.698,118.952 C265.97,118.952 265.411,119.472 265.047,120.018 L265.047,123.359 C265.398,123.892 265.931,124.191 266.555,124.191 Z M276.318,125.01 L273.939,121.344 L276.045,118.159 L274.693,118.159 L273.25,120.668 L271.82,118.159 L270.416,118.159 L272.535,121.396 L270.143,125.01 L271.495,125.01 L273.198,122.111 L274.875,125.01 L276.318,125.01 Z"/>
    <g transform="rotate(90 -6.538 249.038)">
      <rect width="9" height="1" x="6.076" y="241" fill="#0A84FF" fill-rule="nonzero"/>
      <rect width="1" height="242" x="10.076" fill="#0A84FF" fill-rule="nonzero"/>
      <rect width="32" height="22" x="-4.924" y="110" fill="#FFF" fill-opacity=".8" fill-rule="nonzero" rx="2" transform="rotate(-90 11.076 121)"/>
      <rect width="32" height="22" x="-4.924" y="110" fill="#0A84FF" fill-opacity=".8" fill-rule="nonzero" rx="2" transform="rotate(-90 11.076 121)"/>
      <path fill="#FFF" d="M-0.127,115.504 C-1.219,115.504 -2.064,115.946 -2.766,116.817 L-1.96,117.441 C-1.401,116.778 -0.92,116.492 -0.192,116.492 C0.653,116.492 1.238,117.025 1.238,117.935 C1.238,119.352 0.484,120.184 -2.584,123.382 L-2.584,124.331 L2.551,124.331 L2.694,123.33 L-1.219,123.33 C1.446,120.665 2.486,119.508 2.486,117.883 C2.486,116.531 1.472,115.504 -0.127,115.504 Z M9.87,122.186 L9.87,121.237 L8.739,121.237 L8.739,118.897 L7.699,118.897 L7.595,121.237 L5.125,121.237 L7.478,115.92 L6.477,115.504 L3.864,121.328 L3.864,122.186 L7.582,122.186 L7.582,124.331 L8.739,124.331 L8.739,122.186 L9.87,122.186 Z M14.641,117.324 C16.461,117.324 17.176,118.741 17.176,120.899 C17.176,122.979 16.253,124.487 14.485,124.487 C13.744,124.487 13.133,124.24 12.691,123.707 L12.691,126.957 L11.495,127.1 L11.495,117.48 L12.522,117.48 L12.613,118.403 C13.12,117.701 13.861,117.324 14.641,117.324 Z M14.199,123.512 C15.291,123.512 15.889,122.693 15.889,120.899 C15.889,119.118 15.369,118.273 14.342,118.273 C13.614,118.273 13.055,118.793 12.691,119.339 L12.691,122.68 C13.042,123.213 13.575,123.512 14.199,123.512 Z M23.962,124.331 L21.583,120.665 L23.689,117.48 L22.337,117.48 L20.894,119.989 L19.464,117.48 L18.06,117.48 L20.179,120.717 L17.787,124.331 L19.139,124.331 L20.842,121.432 L22.519,124.331 L23.962,124.331 Z" transform="rotate(-90 10.598 121.302)"/>
      <rect width="9" height="1" x="6.076" fill="#0A84FF" fill-rule="nonzero"/>
    </g>
  </g>
</svg>
