<svg xmlns="http://www.w3.org/2000/svg" xmlns:xlink="http://www.w3.org/1999/xlink" width="300" height="300" viewBox="0 0 300 300">
  <defs>
    <polygon id="grid-a" points="0 0 209 0 209 209 0 209"/>
    <polygon id="grid-c" points="0 0 209 0 209 208.791 0 208.791"/>
    <polygon id="grid-e" points="0 0 209 0 209 209 0 209"/>
    <rect id="grid-g" width="209" height="157" x="46" y="72" rx="23.443"/>
    <rect id="grid-h" width="209" height="157" x="46" y="72" rx="23.443"/>
    <rect id="grid-i" width="183" height="183" x="59" y="59" rx="23.443"/>
    <rect id="grid-j" width="1" height="9" x="46" y="266"/>
    <rect id="grid-k" width="1" height="9" x="254" y="266"/>
    <rect id="grid-l" width="209" height="1" x="46" y="270"/>
    <rect id="grid-m" width="32" height="22" x="135" y="259" rx="2"/>
    <rect id="grid-n" width="9" height="1" x="270" y="46"/>
    <rect id="grid-o" width="9" height="1" x="270" y="254"/>
    <rect id="grid-p" width="1" height="209" x="274" y="46"/>
    <rect id="grid-q" width="32" height="22" x="259" y="140" rx="2"/>
  </defs>
  <g fill="none" fill-rule="evenodd">
    <g transform="translate(46 46)">
      <mask id="grid-b" fill="#fff">
        <use xlink:href="#grid-a"/>
      </mask>
      <g mask="url(#grid-b)">
        <mask id="grid-d" fill="#fff">
          <use xlink:href="#grid-c"/>
        </mask>
        <rect width="209" height="1" fill="#D7D7DB" mask="url(#grid-d)"/>
        <rect width="209" height="1" y="13" fill="#D7D7DB" mask="url(#grid-d)"/>
        <rect width="209" height="1" y="26" fill="#D7D7DB" mask="url(#grid-d)"/>
        <rect width="209" height="1" y="39" fill="#D7D7DB" mask="url(#grid-d)"/>
        <rect width="209" height="1" y="52" fill="#D7D7DB" mask="url(#grid-d)"/>
        <rect width="209" height="1" y="65" fill="#D7D7DB" mask="url(#grid-d)"/>
        <rect width="209" height="1" y="78" fill="#D7D7DB" mask="url(#grid-d)"/>
        <rect width="209" height="1" y="91" fill="#D7D7DB" mask="url(#grid-d)"/>
        <rect width="209" height="1" y="104" fill="#D7D7DB" mask="url(#grid-d)"/>
        <rect width="209" height="1" y="117" fill="#D7D7DB" mask="url(#grid-d)"/>
        <rect width="209" height="1" y="130" fill="#D7D7DB" mask="url(#grid-d)"/>
        <rect width="209" height="1" y="143" fill="#D7D7DB" mask="url(#grid-d)"/>
        <rect width="209" height="1" y="156" fill="#D7D7DB" mask="url(#grid-d)"/>
        <rect width="209" height="1" y="169" fill="#D7D7DB" mask="url(#grid-d)"/>
        <rect width="209" height="1" y="182" fill="#D7D7DB" mask="url(#grid-d)"/>
        <rect width="209" height="1" y="195" fill="#D7D7DB" mask="url(#grid-d)"/>
        <rect width="209" height="1" y="208" fill="#D7D7DB" mask="url(#grid-d)"/>
      </g>
    </g>
    <g transform="translate(46 46)">
      <mask id="grid-f" fill="#fff">
        <use xlink:href="#grid-e"/>
      </mask>
      <rect width="1" height="209" fill="#D7D7DB" mask="url(#grid-f)"/>
      <rect width="1" height="209" x="13" fill="#D7D7DB" mask="url(#grid-f)"/>
      <rect width="1" height="209" x="26" fill="#D7D7DB" mask="url(#grid-f)"/>
      <rect width="1" height="209" x="39" fill="#D7D7DB" mask="url(#grid-f)"/>
      <rect width="1" height="209" x="52" fill="#D7D7DB" mask="url(#grid-f)"/>
      <rect width="1" height="209" x="65" fill="#D7D7DB" mask="url(#grid-f)"/>
      <rect width="1" height="209" x="78" fill="#D7D7DB" mask="url(#grid-f)"/>
      <rect width="1" height="209" x="91" fill="#D7D7DB" mask="url(#grid-f)"/>
      <rect width="1" height="209" x="104" fill="#D7D7DB" mask="url(#grid-f)"/>
      <rect width="1" height="209" x="117" fill="#D7D7DB" mask="url(#grid-f)"/>
      <rect width="1" height="209" x="130" fill="#D7D7DB" mask="url(#grid-f)"/>
      <rect width="1" height="209" x="143" fill="#D7D7DB" mask="url(#grid-f)"/>
      <rect width="1" height="209" x="156" fill="#D7D7DB" mask="url(#grid-f)"/>
      <rect width="1" height="209" x="169" fill="#D7D7DB" mask="url(#grid-f)"/>
      <rect width="1" height="209" x="182" fill="#D7D7DB" mask="url(#grid-f)"/>
      <rect width="1" height="209" x="195" fill="#D7D7DB" mask="url(#grid-f)"/>
      <rect width="1" height="209" x="208" fill="#D7D7DB" mask="url(#grid-f)"/>
    </g>
    <rect width="195" height="195" x="53" y="53" stroke="#000" stroke-width="14" opacity=".1"/>
    <use fill="#0A84FF" fill-opacity=".15" xlink:href="#grid-g"/>
    <rect width="208" height="156" x="46.5" y="72.5" stroke="#0A84FF" stroke-opacity=".8" rx="23.443"/>
    <g transform="rotate(90 150.5 150.5)">
      <use fill="#0A84FF" fill-opacity=".15" xlink:href="#grid-h"/>
      <rect width="208" height="156" x="46.5" y="72.5" stroke="#0A84FF" stroke-opacity=".8" rx="23.443"/>
    </g>
    <g transform="rotate(90 150.5 150.5)">
      <use fill="#0A84FF" fill-opacity=".15" xlink:href="#grid-i"/>
      <rect width="182" height="182" x="59.5" y="59.5" stroke="#0A84FF" stroke-opacity=".8" rx="23.443"/>
    </g>
    <use fill="#FFF" xlink:href="#grid-j"/>
    <use fill="#30E60B" fill-opacity=".8" xlink:href="#grid-j"/>
    <use fill="#FFF" xlink:href="#grid-k"/>
    <use fill="#30E60B" fill-opacity=".8" xlink:href="#grid-k"/>
    <use fill="#FFF" xlink:href="#grid-l"/>
    <use fill="#30E60B" fill-opacity=".8" xlink:href="#grid-l"/>
    <use fill="#FFF" xlink:href="#grid-m"/>
    <use fill="#30E60B" fill-opacity=".8" xlink:href="#grid-m"/>
    <use fill="#FFF" xlink:href="#grid-n"/>
    <use fill="#30E60B" fill-opacity=".8" xlink:href="#grid-n"/>
    <g>
      <use fill="#FFF" xlink:href="#grid-o"/>
      <use fill="#30E60B" fill-opacity=".8" xlink:href="#grid-o"/>
    </g>
    <g>
      <use fill="#FFF" xlink:href="#grid-p"/>
      <use fill="#30E60B" fill-opacity=".8" xlink:href="#grid-p"/>
    </g>
    <g>
      <use fill="#FFF" xlink:href="#grid-q"/>
      <use fill="#30E60B" fill-opacity=".8" xlink:href="#grid-q"/>
    </g>
    <text fill="#000" font-family="FiraMono-Medium, Fira Mono" font-size="11" font-weight="400">
      <tspan x="262" y="155">16px</tspan>
    </text>
    <text fill="#000" font-family="FiraMono-Medium, Fira Mono" font-size="11" font-weight="400">
      <tspan x="138" y="274">16px</tspan>
    </text>
  </g>
</svg>
