<svg xmlns="http://www.w3.org/2000/svg" viewBox="0 0 300 300">
  <g fill="none" fill-rule="evenodd" transform="translate(20)">
    <polygon fill="#D7D7DB" fill-opacity=".2" points=".14 243 243.14 243 243.14 0 .14 0"/>
    <path fill="#00FEFF" fill-opacity=".8" d="M20.25,222.75 L222.75,222.75 L222.75,20.25 L20.25,20.25 L20.25,222.75 Z M30.375,212.625 L212.625,212.625 L212.625,30.375 L30.375,30.375 L30.375,212.625 Z"/>
    <path fill="#FF1AD9" fill-opacity=".15" stroke="#FF1AD9" stroke-width=".5" d="M204.337753,212.625 L38.6623777,212.625 C34.1061277,212.625 30.3700027,208.899 30.3700027,204.34275 L30.3700027,38.65725 C30.3700027,34.101 34.1061277,30.375 38.6623777,30.375 L204.337753,30.375 C208.894003,30.375 212.620003,34.101 212.620003,38.65725 L212.620003,204.34275 C212.620003,208.899 208.894003,212.625 204.337753,212.625"/>
    <path fill="#FF1AD9" fill-opacity=".15" stroke="#FF1AD9" stroke-width=".5" d="M214.0425,202.5 L28.967625,202.5 C24.1785,202.5 20.25,198.5715 20.25,193.7925 L20.25,49.217625 C20.25,44.418375 24.1785,40.5 28.967625,40.5 L214.0425,40.5 C218.831625,40.5 222.75,44.418375 222.75,49.217625 L222.75,193.7925 C222.75,198.5715 218.831625,202.5 214.0425,202.5"/>
    <path fill="#FF1AD9" fill-opacity=".15" stroke="#FF1AD9" stroke-width=".5" d="M193.7925,222.75 L49.217625,222.75 C44.4285,222.75 40.5,218.8215 40.5,214.0425 L40.5,28.967625 C40.5,24.168375 44.4285,20.25 49.217625,20.25 L193.7925,20.25 C198.581625,20.25 202.5,24.168375 202.5,28.967625 L202.5,214.0425 C202.5,218.8215 198.581625,222.75 193.7925,222.75"/>
    <g stroke="#D7D7DB" stroke-linecap="square" stroke-width=".5" transform="translate(19 19)">
      <g transform="translate(0 1)">
        <path d="M1.25.5L1.25 202.5M11.25.5L11.25 202.5M21.25.5L21.25 202.5M31.25.5L31.25 202.5M41.25.5L41.25 202.5M51.25.5L51.25 202.5M62.25.5L62.25 202.5M72.25.5L72.25 202.5M82.25.5L82.25 202.5M92.25.5L92.25 202.5M102.25.5L102.25 202.5M112.25.5L112.25 202.5M122.25.5L122.25 202.5M132.25.5L132.25 202.5M143.25.5L143.25 202.5M153.25.5L153.25 202.5M163.25.5L163.25 202.5M173.25.5L173.25 202.5M183.25.5L183.25 202.5M193.25.5L193.25 202.5M203.57983.497113799L203.57983 202.5"/>
      </g>
      <g transform="rotate(90 102 102)">
        <path d="M1.23682162.41901123L1.23682162 202.419011M11.6108104.36L11.6108104 202.36M21.4442944.36L21.4442944 202.36M30.25.36L30.25 202.36M40.25.36L40.25 202.36M50.25.36L50.25 202.36M61.25.36L61.25 202.36M71.25.36L71.25 202.36M81.25.36L81.25 202.36M91.25.36L91.25 202.36M101.25.36L101.25 202.36M111.25.36L111.25 202.36M121.25.36L121.25 202.36M131.25.36L131.25 202.36M142.25.36L142.25 202.36M152.25.36L152.25 202.36M162.25.36L162.25 202.36M172.25.36L172.25 202.36M183.25.717239744L183.25 202.71724M193.542177.717239744L193.542177 202.71724M203.501274.41901123L203.501274 202.419011"/>
      </g>
    </g>
    <g transform="translate(247 20)">
      <rect width="9" height="1" x="11.076" y=".237" fill="#0A84FF" fill-opacity=".8" fill-rule="nonzero"/>
      <rect width="9" height="1" x="11.076" y="202.251" fill="#0A84FF" fill-opacity=".8" fill-rule="nonzero"/>
      <rect width="1" height="202.76" x="15.076" y=".237" fill="#0A84FF" fill-rule="nonzero"/>
      <g transform="translate(0 90)">
        <rect width="32" height="22" x=".076" fill="#FFF" fill-opacity=".8" fill-rule="nonzero" rx="2"/>
        <rect width="32" height="22" x=".076" fill="#0A84FF" fill-opacity=".8" fill-rule="nonzero" rx="2"/>
        <path fill="#FFF" d="M4.904,6.735 C3.812,6.735 2.967,7.177 2.265,8.048 L3.071,8.672 C3.63,8.009 4.111,7.723 4.839,7.723 C5.684,7.723 6.269,8.256 6.269,9.166 C6.269,10.583 5.515,11.415 2.447,14.613 L2.447,15.562 L7.582,15.562 L7.725,14.561 L3.812,14.561 C6.477,11.896 7.517,10.739 7.517,9.114 C7.517,7.762 6.503,6.735 4.904,6.735 Z M12.002,6.735 C13.952,6.735 14.914,8.347 14.914,11.22 C14.914,14.106 13.952,15.718 12.002,15.718 C10.052,15.718 9.09,14.106 9.09,11.22 C9.09,8.334 10.052,6.735 12.002,6.735 Z M12.002,7.684 C10.91,7.684 10.338,8.672 10.338,11.22 C10.338,13.781 10.91,14.769 12.002,14.769 C13.081,14.769 13.666,13.781 13.666,11.22 C13.666,8.672 13.081,7.684 12.002,7.684 Z M20.01,8.555 C21.83,8.555 22.545,9.972 22.545,12.13 C22.545,14.21 21.622,15.718 19.854,15.718 C19.113,15.718 18.502,15.471 18.06,14.938 L18.06,18.188 L16.864,18.331 L16.864,8.711 L17.891,8.711 L17.982,9.634 C18.489,8.932 19.23,8.555 20.01,8.555 Z M19.568,14.743 C20.66,14.743 21.258,13.924 21.258,12.13 C21.258,10.349 20.738,9.504 19.711,9.504 C18.983,9.504 18.424,10.024 18.06,10.57 L18.06,13.911 C18.411,14.444 18.944,14.743 19.568,14.743 Z M29.331,15.562 L26.952,11.896 L29.058,8.711 L27.706,8.711 L26.263,11.22 L24.833,8.711 L23.429,8.711 L25.548,11.948 L23.156,15.562 L24.508,15.562 L26.211,12.663 L27.888,15.562 L29.331,15.562 Z"/>
      </g>
    </g>
    <g transform="rotate(90 -14 237.5)">
      <g transform="translate(5)">
        <rect width="9" height="1" x="6.076" y=".48" fill="#0A84FF" fill-rule="nonzero"/>
        <rect width="9" height="1" x="6.076" y="202.25" fill="#0A84FF" fill-rule="nonzero"/>
        <rect width="1" height="202.76" x="10.076" y=".48" fill="#0A84FF" fill-rule="nonzero"/>
        <g transform="translate(0 87)">
          <rect width="32" height="22" x="-4.924" y="5" fill="#FFF" fill-opacity=".8" fill-rule="nonzero" rx="2" transform="rotate(-90 11.076 16)"/>
          <rect width="32" height="22" x="-4.924" y="5" fill="#0A84FF" fill-opacity=".8" fill-rule="nonzero" rx="2" transform="rotate(-90 11.076 16)"/>
          <path fill="#FFF" d="M-0.296,10.673 C-1.388,10.673 -2.233,11.115 -2.935,11.986 L-2.129,12.61 C-1.57,11.947 -1.089,11.661 -0.361,11.661 C0.484,11.661 1.069,12.194 1.069,13.104 C1.069,14.521 0.315,15.353 -2.753,18.551 L-2.753,19.5 L2.382,19.5 L2.525,18.499 L-1.388,18.499 C1.277,15.834 2.317,14.677 2.317,13.052 C2.317,11.7 1.303,10.673 -0.296,10.673 Z M6.802,10.673 C8.752,10.673 9.714,12.285 9.714,15.158 C9.714,18.044 8.752,19.656 6.802,19.656 C4.852,19.656 3.89,18.044 3.89,15.158 C3.89,12.272 4.852,10.673 6.802,10.673 Z M6.802,11.622 C5.71,11.622 5.138,12.61 5.138,15.158 C5.138,17.719 5.71,18.707 6.802,18.707 C7.881,18.707 8.466,17.719 8.466,15.158 C8.466,12.61 7.881,11.622 6.802,11.622 Z M14.81,12.493 C16.63,12.493 17.345,13.91 17.345,16.068 C17.345,18.148 16.422,19.656 14.654,19.656 C13.913,19.656 13.302,19.409 12.86,18.876 L12.86,22.126 L11.664,22.269 L11.664,12.649 L12.691,12.649 L12.782,13.572 C13.289,12.87 14.03,12.493 14.81,12.493 Z M14.368,18.681 C15.46,18.681 16.058,17.862 16.058,16.068 C16.058,14.287 15.538,13.442 14.511,13.442 C13.783,13.442 13.224,13.962 12.86,14.508 L12.86,17.849 C13.211,18.382 13.744,18.681 14.368,18.681 Z M24.131,19.5 L21.752,15.834 L23.858,12.649 L22.506,12.649 L21.063,15.158 L19.633,12.649 L18.229,12.649 L20.348,15.886 L17.956,19.5 L19.308,19.5 L21.011,16.601 L22.688,19.5 L24.131,19.5 Z" transform="rotate(-90 10.598 16.471)"/>
        </g>
      </g>
    </g>
  </g>
</svg>
