<svg xmlns="http://www.w3.org/2000/svg" xmlns:xlink="http://www.w3.org/1999/xlink" width="400" height="400" viewBox="0 0 400 400">
  <defs>
    <polygon id="grid-a" points="0 0 209 0 209 209 0 209"/>
    <polygon id="grid-c" points="0 0 209 0 209 208.791 0 208.791"/>
    <polygon id="grid-e" points="0 0 209 0 209 208.791 0 208.791"/>
    <polygon id="grid-g" points="0 0 209 0 209 208.791 0 208.791"/>
    <polygon id="grid-i" points="0 0 209 0 209 208.791 0 208.791"/>
    <polygon id="grid-k" points="0 0 209 0 209 208.791 0 208.791"/>
    <polygon id="grid-m" points="0 0 209 0 209 208.791 0 208.791"/>
    <polygon id="grid-o" points="0 0 209 0 209 208.791 0 208.791"/>
    <polygon id="grid-q" points="0 0 209 0 209 208.791 0 208.791"/>
    <polygon id="grid-s" points="0 0 209 0 209 208.791 0 208.791"/>
    <polygon id="grid-u" points="0 0 209 0 209 208.791 0 208.791"/>
    <polygon id="grid-w" points="0 0 209 0 209 208.791 0 208.791"/>
    <polygon id="grid-y" points="0 0 209 0 209 208.791 0 208.791"/>
    <polygon id="grid-A" points="0 0 209 0 209 208.791 0 208.791"/>
    <polygon id="grid-C" points="0 0 209 0 209 208.791 0 208.791"/>
    <polygon id="grid-E" points="0 0 209 0 209 208.791 0 208.791"/>
    <polygon id="grid-G" points="0 0 209 0 209 208.791 0 208.791"/>
    <polygon id="grid-I" points="0 0 209 0 209 208.791 0 208.791"/>
    <polygon id="grid-K" points="0 0 209 0 209 209 0 209"/>
    <polygon id="grid-M" points="0 0 209 0 209 209 0 209"/>
    <polygon id="grid-O" points="0 0 209 0 209 209 0 209"/>
    <polygon id="grid-Q" points="0 0 209 0 209 209 0 209"/>
    <polygon id="grid-S" points="0 0 209 0 209 209 0 209"/>
    <polygon id="grid-U" points="0 0 209 0 209 209 0 209"/>
    <polygon id="grid-W" points="0 0 209 0 209 209 0 209"/>
    <polygon id="grid-Y" points="0 0 209 0 209 209 0 209"/>
    <polygon id="grid-aa" points="0 0 209 0 209 209 0 209"/>
    <polygon id="grid-ac" points="0 0 209 0 209 209 0 209"/>
    <polygon id="grid-ae" points="0 0 209 0 209 209 0 209"/>
    <polygon id="grid-ag" points="0 0 209 0 209 209 0 209"/>
    <polygon id="grid-ai" points="0 0 209 0 209 209 0 209"/>
    <polygon id="grid-ak" points="0 0 209 0 209 209 0 209"/>
    <polygon id="grid-am" points="0 0 209 0 209 209 0 209"/>
    <polygon id="grid-ao" points="0 0 209 0 209 209 0 209"/>
    <polygon id="grid-aq" points="0 0 209 0 209 209 0 209"/>
  </defs>
  <g fill="none" fill-rule="evenodd">
    <g transform="translate(78 83)">
      <mask id="grid-b" fill="#fff">
        <use xlink:href="#grid-a"/>
      </mask>
      <g mask="url(#grid-b)">
        <mask id="grid-d" fill="#fff">
          <use xlink:href="#grid-c"/>
        </mask>
        <rect width="209" height="1" fill="#D7D7DB" fill-rule="nonzero" mask="url(#grid-d)"/>
        <mask id="grid-f" fill="#fff">
          <use xlink:href="#grid-e"/>
        </mask>
        <rect width="209" height="1" y="13" fill="#D7D7DB" fill-rule="nonzero" mask="url(#grid-f)"/>
        <mask id="grid-h" fill="#fff">
          <use xlink:href="#grid-g"/>
        </mask>
        <rect width="209" height="1" y="26" fill="#D7D7DB" fill-rule="nonzero" mask="url(#grid-h)"/>
        <mask id="grid-j" fill="#fff">
          <use xlink:href="#grid-i"/>
        </mask>
        <rect width="209" height="1" y="39" fill="#D7D7DB" fill-rule="nonzero" mask="url(#grid-j)"/>
        <mask id="grid-l" fill="#fff">
          <use xlink:href="#grid-k"/>
        </mask>
        <rect width="209" height="1" y="52" fill="#D7D7DB" fill-rule="nonzero" mask="url(#grid-l)"/>
        <mask id="grid-n" fill="#fff">
          <use xlink:href="#grid-m"/>
        </mask>
        <rect width="209" height="1" y="65" fill="#D7D7DB" fill-rule="nonzero" mask="url(#grid-n)"/>
        <g>
          <mask id="grid-p" fill="#fff">
            <use xlink:href="#grid-o"/>
          </mask>
          <rect width="209" height="1" y="78" fill="#D7D7DB" fill-rule="nonzero" mask="url(#grid-p)"/>
        </g>
        <g>
          <mask id="grid-r" fill="#fff">
            <use xlink:href="#grid-q"/>
          </mask>
          <rect width="209" height="1" y="91" fill="#D7D7DB" fill-rule="nonzero" mask="url(#grid-r)"/>
        </g>
        <g>
          <mask id="grid-t" fill="#fff">
            <use xlink:href="#grid-s"/>
          </mask>
          <rect width="209" height="1" y="104" fill="#D7D7DB" fill-rule="nonzero" mask="url(#grid-t)"/>
        </g>
        <g>
          <mask id="grid-v" fill="#fff">
            <use xlink:href="#grid-u"/>
          </mask>
          <rect width="209" height="1" y="117" fill="#D7D7DB" fill-rule="nonzero" mask="url(#grid-v)"/>
        </g>
        <g>
          <mask id="grid-x" fill="#fff">
            <use xlink:href="#grid-w"/>
          </mask>
          <rect width="209" height="1" y="130" fill="#D7D7DB" fill-rule="nonzero" mask="url(#grid-x)"/>
        </g>
        <g>
          <mask id="grid-z" fill="#fff">
            <use xlink:href="#grid-y"/>
          </mask>
          <rect width="209" height="1" y="143" fill="#D7D7DB" fill-rule="nonzero" mask="url(#grid-z)"/>
        </g>
        <g>
          <mask id="grid-B" fill="#fff">
            <use xlink:href="#grid-A"/>
          </mask>
          <rect width="209" height="1" y="156" fill="#D7D7DB" fill-rule="nonzero" mask="url(#grid-B)"/>
        </g>
        <g>
          <mask id="grid-D" fill="#fff">
            <use xlink:href="#grid-C"/>
          </mask>
          <rect width="209" height="1" y="169" fill="#D7D7DB" fill-rule="nonzero" mask="url(#grid-D)"/>
        </g>
        <g>
          <mask id="grid-F" fill="#fff">
            <use xlink:href="#grid-E"/>
          </mask>
          <rect width="209" height="1" y="182" fill="#D7D7DB" fill-rule="nonzero" mask="url(#grid-F)"/>
        </g>
        <g>
          <mask id="grid-H" fill="#fff">
            <use xlink:href="#grid-G"/>
          </mask>
          <rect width="209" height="1" y="195" fill="#D7D7DB" fill-rule="nonzero" mask="url(#grid-H)"/>
        </g>
        <g>
          <mask id="grid-J" fill="#fff">
            <use xlink:href="#grid-I"/>
          </mask>
          <rect width="209" height="1" y="208" fill="#D7D7DB" fill-rule="nonzero" mask="url(#grid-J)"/>
        </g>
      </g>
    </g>
    <g transform="translate(78 83)">
      <mask id="grid-L" fill="#fff">
        <use xlink:href="#grid-K"/>
      </mask>
      <rect width="1" height="209" fill="#D7D7DB" fill-rule="nonzero" mask="url(#grid-L)"/>
      <mask id="grid-N" fill="#fff">
        <use xlink:href="#grid-M"/>
      </mask>
      <rect width="1" height="209" x="13" fill="#D7D7DB" fill-rule="nonzero" mask="url(#grid-N)"/>
      <mask id="grid-P" fill="#fff">
        <use xlink:href="#grid-O"/>
      </mask>
      <rect width="1" height="209" x="26" fill="#D7D7DB" fill-rule="nonzero" mask="url(#grid-P)"/>
      <mask id="grid-R" fill="#fff">
        <use xlink:href="#grid-Q"/>
      </mask>
      <rect width="1" height="209" x="39" fill="#D7D7DB" fill-rule="nonzero" mask="url(#grid-R)"/>
      <mask id="grid-T" fill="#fff">
        <use xlink:href="#grid-S"/>
      </mask>
      <rect width="1" height="209" x="52" fill="#D7D7DB" fill-rule="nonzero" mask="url(#grid-T)"/>
      <mask id="grid-V" fill="#fff">
        <use xlink:href="#grid-U"/>
      </mask>
      <rect width="1" height="209" x="65" fill="#D7D7DB" fill-rule="nonzero" mask="url(#grid-V)"/>
      <g>
        <mask id="grid-X" fill="#fff">
          <use xlink:href="#grid-W"/>
        </mask>
        <rect width="1" height="209" x="78" fill="#D7D7DB" fill-rule="nonzero" mask="url(#grid-X)"/>
      </g>
      <g>
        <mask id="grid-Z" fill="#fff">
          <use xlink:href="#grid-Y"/>
        </mask>
        <rect width="1" height="209" x="91" fill="#D7D7DB" fill-rule="nonzero" mask="url(#grid-Z)"/>
      </g>
      <g>
        <mask id="grid-ab" fill="#fff">
          <use xlink:href="#grid-aa"/>
        </mask>
        <rect width="1" height="209" x="104" fill="#D7D7DB" fill-rule="nonzero" mask="url(#grid-ab)"/>
      </g>
      <g>
        <mask id="grid-ad" fill="#fff">
          <use xlink:href="#grid-ac"/>
        </mask>
        <rect width="1" height="209" x="117" fill="#D7D7DB" fill-rule="nonzero" mask="url(#grid-ad)"/>
      </g>
      <g>
        <mask id="grid-af" fill="#fff">
          <use xlink:href="#grid-ae"/>
        </mask>
        <rect width="1" height="209" x="130" fill="#D7D7DB" fill-rule="nonzero" mask="url(#grid-af)"/>
      </g>
      <g>
        <mask id="grid-ah" fill="#fff">
          <use xlink:href="#grid-ag"/>
        </mask>
        <rect width="1" height="209" x="143" fill="#D7D7DB" fill-rule="nonzero" mask="url(#grid-ah)"/>
      </g>
      <g>
        <mask id="grid-aj" fill="#fff">
          <use xlink:href="#grid-ai"/>
        </mask>
        <rect width="1" height="209" x="156" fill="#D7D7DB" fill-rule="nonzero" mask="url(#grid-aj)"/>
      </g>
      <g>
        <mask id="grid-al" fill="#fff">
          <use xlink:href="#grid-ak"/>
        </mask>
        <rect width="1" height="209" x="169" fill="#D7D7DB" fill-rule="nonzero" mask="url(#grid-al)"/>
      </g>
      <g>
        <mask id="grid-an" fill="#fff">
          <use xlink:href="#grid-am"/>
        </mask>
        <rect width="1" height="209" x="182" fill="#D7D7DB" fill-rule="nonzero" mask="url(#grid-an)"/>
      </g>
      <g>
        <mask id="grid-ap" fill="#fff">
          <use xlink:href="#grid-ao"/>
        </mask>
        <rect width="1" height="209" x="195" fill="#D7D7DB" fill-rule="nonzero" mask="url(#grid-ap)"/>
      </g>
      <g>
        <mask id="grid-ar" fill="#fff">
          <use xlink:href="#grid-aq"/>
        </mask>
        <rect width="1" height="209" x="208" fill="#D7D7DB" fill-rule="nonzero" mask="url(#grid-ar)"/>
      </g>
    </g>
    <rect width="195" height="195" x="85" y="90" stroke="#000" stroke-width="14" opacity=".1"/>
    <rect width="209" height="157" fill="#0A84FF" fill-opacity=".15" fill-rule="nonzero" rx="23.443" transform="translate(78 109)"/>
    <rect width="208" height="156" x="78.5" y="109.5" stroke="#0A84FF" stroke-opacity=".8" rx="23.443"/>
    <g transform="rotate(90 89 172)">
      <rect width="209" height="157" fill="#0A84FF" fill-opacity=".15" fill-rule="nonzero" rx="23.443"/>
      <rect width="208" height="156" x=".5" y=".5" stroke="#0A84FF" stroke-opacity=".8" rx="23.443"/>
    </g>
    <g transform="rotate(90 89 185)">
      <rect width="183" height="183" fill="#0A84FF" fill-opacity=".15" fill-rule="nonzero" rx="23.443"/>
      <rect width="182" height="182" x=".5" y=".5" stroke="#0A84FF" stroke-opacity=".8" rx="23.443"/>
    </g>
    <rect width="1" height="9" fill="#FFF" fill-rule="nonzero" transform="translate(78 315)"/>
    <rect width="1" height="9" fill="#30E60B" fill-opacity=".8" fill-rule="nonzero" transform="translate(78 315)"/>
    <rect width="1" height="9" fill="#FFF" fill-rule="nonzero" transform="translate(286 315)"/>
    <rect width="1" height="9" fill="#30E60B" fill-opacity=".8" fill-rule="nonzero" transform="translate(286 315)"/>
    <rect width="209" height="1" fill="#FFF" fill-rule="nonzero" transform="translate(78 319)"/>
    <rect width="209" height="1" fill="#30E60B" fill-opacity=".8" fill-rule="nonzero" transform="translate(78 319)"/>
    <rect width="32" height="22" fill="#FFF" fill-rule="nonzero" rx="2" transform="translate(167 308)"/>
    <rect width="32" height="22" fill="#30E60B" fill-opacity=".8" fill-rule="nonzero" rx="2" transform="translate(167 308)"/>
    <rect width="9" height="1" fill="#FFF" fill-rule="nonzero" transform="translate(314 83)"/>
    <rect width="9" height="1" fill="#30E60B" fill-opacity=".8" fill-rule="nonzero" transform="translate(314 83)"/>
    <g fill-rule="nonzero" transform="translate(314 291)">
      <rect width="9" height="1" fill="#FFF"/>
      <rect width="9" height="1" fill="#30E60B" fill-opacity=".8"/>
    </g>
    <g fill-rule="nonzero" transform="translate(318 83)">
      <rect width="1" height="94" fill="#FFF"/>
      <rect width="1" height="94" fill="#30E60B" fill-opacity=".8"/>
    </g>
    <g fill-rule="nonzero" transform="translate(318 199)">
      <rect width="1" height="92" fill="#FFF"/>
      <rect width="1" height="92" fill="#30E60B" fill-opacity=".8"/>
    </g>
    <path fill="#000" d="M173.421,320.776 L173.421,314.154 L172.332,314.154 L170,315.584 L170.528,316.442 L172.2,315.419 L172.2,320.776 L170.352,320.776 L170.352,321.744 L174.939,321.744 L174.939,320.776 L173.421,320.776 Z M179.46,316.75 C180.637,316.75 181.605,317.564 181.605,319.181 C181.605,320.809 180.549,321.887 179.097,321.887 C177.194,321.887 176.457,320.358 176.457,318.213 C176.457,315.683 177.579,314 179.46,314 C180.076,314 180.593,314.176 181.022,314.462 L180.549,315.254 C180.219,315.045 179.845,314.935 179.46,314.935 C178.426,314.935 177.777,315.958 177.722,317.641 C178.195,317.014 178.789,316.75 179.46,316.75 Z M179.108,320.952 C179.944,320.952 180.362,320.259 180.362,319.236 C180.362,318.07 179.9,317.663 179.207,317.663 C178.602,317.663 178.085,318.015 177.733,318.554 C177.755,320.193 178.14,320.952 179.108,320.952 Z M186.126,315.782 C187.655,315.782 188.238,316.981 188.238,318.829 C188.238,320.6 187.468,321.887 185.994,321.887 C185.389,321.887 184.894,321.678 184.52,321.249 L184.52,323.977 L183.288,324.12 L183.288,315.936 L184.355,315.936 L184.432,316.684 C184.872,316.09 185.477,315.782 186.126,315.782 Z M185.785,316.728 C185.235,316.728 184.806,317.113 184.52,317.564 L184.52,320.281 C184.795,320.699 185.191,320.93 185.664,320.93 C186.5,320.93 186.94,320.292 186.94,318.84 C186.94,317.344 186.555,316.728 185.785,316.728 Z M190.746,321.744 L192.165,319.368 L193.595,321.744 L195.036,321.744 L192.946,318.631 L194.761,315.936 L193.408,315.936 L192.22,317.982 L191.032,315.936 L189.613,315.936 L191.472,318.686 L189.382,321.744 L190.746,321.744 Z"/>
    <rect width="32" height="22" fill="#30E60B" fill-opacity=".8" fill-rule="nonzero" rx="2" transform="translate(303 177)"/>
    <path fill="#000" d="M309.421,189.776 L309.421,183.154 L308.332,183.154 L306,184.584 L306.528,185.442 L308.2,184.419 L308.2,189.776 L306.352,189.776 L306.352,190.744 L310.939,190.744 L310.939,189.776 L309.421,189.776 Z M315.46,185.75 C316.637,185.75 317.605,186.564 317.605,188.181 C317.605,189.809 316.549,190.887 315.097,190.887 C313.194,190.887 312.457,189.358 312.457,187.213 C312.457,184.683 313.579,183 315.46,183 C316.076,183 316.593,183.176 317.022,183.462 L316.549,184.254 C316.219,184.045 315.845,183.935 315.46,183.935 C314.426,183.935 313.777,184.958 313.722,186.641 C314.195,186.014 314.789,185.75 315.46,185.75 Z M315.108,189.952 C315.944,189.952 316.362,189.259 316.362,188.236 C316.362,187.07 315.9,186.663 315.207,186.663 C314.602,186.663 314.085,187.015 313.733,187.554 C313.755,189.193 314.14,189.952 315.108,189.952 Z M322.126,184.782 C323.655,184.782 324.238,185.981 324.238,187.829 C324.238,189.6 323.468,190.887 321.994,190.887 C321.389,190.887 320.894,190.678 320.52,190.249 L320.52,192.977 L319.288,193.12 L319.288,184.936 L320.355,184.936 L320.432,185.684 C320.872,185.09 321.477,184.782 322.126,184.782 Z M321.785,185.728 C321.235,185.728 320.806,186.113 320.52,186.564 L320.52,189.281 C320.795,189.699 321.191,189.93 321.664,189.93 C322.5,189.93 322.94,189.292 322.94,187.84 C322.94,186.344 322.555,185.728 321.785,185.728 Z M326.746,190.744 L328.165,188.368 L329.595,190.744 L331.036,190.744 L328.946,187.631 L330.761,184.936 L329.408,184.936 L328.22,186.982 L327.032,184.936 L325.613,184.936 L327.472,187.686 L325.382,190.744 L326.746,190.744 Z"/>
  </g>
</svg>
