<svg xmlns="http://www.w3.org/2000/svg" xmlns:xlink="http://www.w3.org/1999/xlink" width="351" height="352" viewBox="0 0 351 352">
  <defs>
    <polygon id="grid-android-a" points="0 0 260 0 260 260 0 260"/>
    <polygon id="grid-android-c" points="0 0 260 0 260 259.74 0 259.74"/>
    <polygon id="grid-android-e" points="0 0 260 0 260 260 0 260"/>
    <rect id="grid-android-g" width="260" height="195.311" y="32.344" rx="23.443"/>
    <rect id="grid-android-h" width="260" height="195.311" y="32.344" rx="23.443"/>
    <rect id="grid-android-i" width="227.656" height="227.656" x="16.172" y="16.172" rx="23.443"/>
    <rect id="grid-android-j" width="1" height="9" x="45" y="321"/>
    <rect id="grid-android-k" width="1" height="9" x="304" y="321"/>
    <rect id="grid-android-l" width="259" height="1" x="45" y="325"/>
    <rect id="grid-android-m" width="32" height="22" rx="2"/>
    <rect id="grid-android-n" width="9" height="1" x="323" y="305"/>
    <rect id="grid-android-o" width="9" height="1" x="323" y="46"/>
    <rect id="grid-android-p" width="1" height="259" x="327" y="46"/>
    <rect id="grid-android-q" width="32" height="22" rx="2"/>
  </defs>
  <g fill="none" fill-rule="evenodd">
    <g transform="translate(45 46)">
      <mask id="grid-android-b" fill="#fff">
        <use xlink:href="#grid-android-a"/>
      </mask>
      <g mask="url(#grid-android-b)">
        <mask id="grid-android-d" fill="#fff">
          <use xlink:href="#grid-android-c"/>
        </mask>
        <rect width="260" height="1.244" fill="#D7D7DB" mask="url(#grid-android-d)"/>
        <rect width="260" height="1.244" y="16.172" fill="#D7D7DB" mask="url(#grid-android-d)"/>
        <rect width="260" height="1.244" y="32.344" fill="#D7D7DB" mask="url(#grid-android-d)"/>
        <rect width="260" height="1.244" y="48.517" fill="#D7D7DB" mask="url(#grid-android-d)"/>
        <rect width="260" height="1.244" y="64.689" fill="#D7D7DB" mask="url(#grid-android-d)"/>
        <rect width="260" height="1.244" y="80.861" fill="#D7D7DB" mask="url(#grid-android-d)"/>
        <rect width="260" height="1.244" y="97.033" fill="#D7D7DB" mask="url(#grid-android-d)"/>
        <rect width="260" height="1.244" y="113.206" fill="#D7D7DB" mask="url(#grid-android-d)"/>
        <rect width="260" height="1.244" y="129.378" fill="#D7D7DB" mask="url(#grid-android-d)"/>
        <rect width="260" height="1.244" y="145.55" fill="#D7D7DB" mask="url(#grid-android-d)"/>
        <rect width="260" height="1.244" y="161.722" fill="#D7D7DB" mask="url(#grid-android-d)"/>
        <rect width="260" height="1.244" y="177.895" fill="#D7D7DB" mask="url(#grid-android-d)"/>
        <rect width="260" height="1.244" y="194.067" fill="#D7D7DB" mask="url(#grid-android-d)"/>
        <rect width="260" height="1.244" y="210.239" fill="#D7D7DB" mask="url(#grid-android-d)"/>
        <rect width="260" height="1.244" y="226.411" fill="#D7D7DB" mask="url(#grid-android-d)"/>
        <rect width="260" height="1.244" y="242.584" fill="#D7D7DB" mask="url(#grid-android-d)"/>
        <rect width="260" height="1.244" y="258.756" fill="#D7D7DB" mask="url(#grid-android-d)"/>
      </g>
      <mask id="grid-android-f" fill="#fff">
        <use xlink:href="#grid-android-e"/>
      </mask>
      <rect width="1.244" height="260" fill="#D7D7DB" mask="url(#grid-android-f)"/>
      <rect width="1.244" height="260" x="16.172" fill="#D7D7DB" mask="url(#grid-android-f)"/>
      <rect width="1.244" height="260" x="32.344" fill="#D7D7DB" mask="url(#grid-android-f)"/>
      <rect width="1.244" height="260" x="48.517" fill="#D7D7DB" mask="url(#grid-android-f)"/>
      <rect width="1.244" height="260" x="64.689" fill="#D7D7DB" mask="url(#grid-android-f)"/>
      <rect width="1.244" height="260" x="80.861" fill="#D7D7DB" mask="url(#grid-android-f)"/>
      <rect width="1.244" height="260" x="97.033" fill="#D7D7DB" mask="url(#grid-android-f)"/>
      <rect width="1.244" height="260" x="113.206" fill="#D7D7DB" mask="url(#grid-android-f)"/>
      <rect width="1.244" height="260" x="129.378" fill="#D7D7DB" mask="url(#grid-android-f)"/>
      <rect width="1.244" height="260" x="145.55" fill="#D7D7DB" mask="url(#grid-android-f)"/>
      <rect width="1.244" height="260" x="161.722" fill="#D7D7DB" mask="url(#grid-android-f)"/>
      <rect width="1.244" height="260" x="177.895" fill="#D7D7DB" mask="url(#grid-android-f)"/>
      <rect width="1.244" height="260" x="194.067" fill="#D7D7DB" mask="url(#grid-android-f)"/>
      <rect width="1.244" height="260" x="210.239" fill="#D7D7DB" mask="url(#grid-android-f)"/>
      <rect width="1.244" height="260" x="226.411" fill="#D7D7DB" mask="url(#grid-android-f)"/>
      <rect width="1.244" height="260" x="242.584" fill="#D7D7DB" mask="url(#grid-android-f)"/>
      <rect width="1.244" height="260" x="258.756" fill="#D7D7DB" mask="url(#grid-android-f)"/>
      <rect width="246" height="246" x="7" y="7" stroke="#000" stroke-width="14" opacity=".1"/>
      <g>
        <use fill="#0A84FF" fill-opacity=".15" xlink:href="#grid-android-g"/>
        <rect width="259" height="194.311" x=".5" y="32.844" stroke="#0A84FF" stroke-opacity=".8" rx="23.443"/>
      </g>
      <g transform="rotate(90 130 130)">
        <use fill="#0A84FF" fill-opacity=".15" xlink:href="#grid-android-h"/>
        <rect width="259" height="194.311" x=".5" y="32.844" stroke="#0A84FF" stroke-opacity=".8" rx="23.443"/>
      </g>
      <g transform="rotate(90 130 130)">
        <use fill="#0A84FF" fill-opacity=".15" xlink:href="#grid-android-i"/>
        <rect width="226.656" height="226.656" x="16.672" y="16.672" stroke="#0A84FF" stroke-opacity=".8" rx="23.443"/>
      </g>
    </g>
    <use fill="#FFF" xlink:href="#grid-android-j"/>
    <use fill="#30E60B" fill-opacity=".8" xlink:href="#grid-android-j"/>
    <use fill="#FFF" xlink:href="#grid-android-k"/>
    <use fill="#30E60B" fill-opacity=".8" xlink:href="#grid-android-k"/>
    <use fill="#FFF" xlink:href="#grid-android-l"/>
    <use fill="#30E60B" fill-opacity=".8" xlink:href="#grid-android-l"/>
    <g transform="translate(159 314)">
      <use fill="#FFF" xlink:href="#grid-android-m"/>
      <use fill="#30E60B" fill-opacity=".8" xlink:href="#grid-android-m"/>
      <text fill="#000" font-family="FiraMono-Medium, Fira Mono" font-size="11" font-weight="400">
        <tspan x="3" y="15">20px</tspan>
      </text>
    </g>
    <use fill="#FFF" xlink:href="#grid-android-n"/>
    <use fill="#30E60B" fill-opacity=".8" xlink:href="#grid-android-n"/>
    <g>
      <use fill="#FFF" xlink:href="#grid-android-o"/>
      <use fill="#30E60B" fill-opacity=".8" xlink:href="#grid-android-o"/>
    </g>
    <g>
      <use fill="#FFF" xlink:href="#grid-android-p"/>
      <use fill="#30E60B" fill-opacity=".8" xlink:href="#grid-android-p"/>
    </g>
    <g transform="translate(312 165)">
      <use fill="#FFF" xlink:href="#grid-android-q"/>
      <use fill="#30E60B" fill-opacity=".8" xlink:href="#grid-android-q"/>
      <text fill="#000" font-family="FiraMono-Medium, Fira Mono" font-size="11" font-weight="400">
        <tspan x="3" y="15">20px</tspan>
      </text>
    </g>
  </g>
</svg>
