<svg xmlns="http://www.w3.org/2000/svg" xmlns:xlink="http://www.w3.org/1999/xlink" width="404" height="403" viewBox="0 0 404 403">
  <defs>
    <polygon id="grid-ios-a" points="0 0 312 0 312 312 0 312"/>
    <polygon id="grid-ios-c" points="0 0 312 0 312 311.688 0 311.688"/>
    <polygon id="grid-ios-e" points="0 0 312 0 312 312 0 312"/>
    <rect id="grid-ios-g" width="312" height="234.373" y="38.813" rx="23.443"/>
    <rect id="grid-ios-h" width="312" height="234.373" y="38.813" rx="23.443"/>
    <rect id="grid-ios-i" width="273.187" height="273.187" x="19.407" y="19.407" rx="23.443"/>
    <rect id="grid-ios-j" width="1" height="9" x="45" y="369"/>
    <rect id="grid-ios-k" width="1" height="9" x="357" y="369"/>
    <rect id="grid-ios-l" width="312" height="1" x="45" y="373"/>
    <rect id="grid-ios-m" width="32" height="22" rx="2"/>
    <rect id="grid-ios-n" width="9" height="1" x="376" y="357"/>
    <rect id="grid-ios-o" width="9" height="1" x="376" y="46"/>
    <rect id="grid-ios-p" width="1" height="311" x="380" y="46"/>
    <rect id="grid-ios-q" width="32" height="22" rx="2"/>
  </defs>
  <g fill="none" fill-rule="evenodd">
    <g transform="translate(46 46)">
      <mask id="grid-ios-b" fill="#fff">
        <use xlink:href="#grid-ios-a"/>
      </mask>
      <g mask="url(#grid-ios-b)">
        <mask id="grid-ios-d" fill="#fff">
          <use xlink:href="#grid-ios-c"/>
        </mask>
        <rect width="312" height="1.493" fill="#D7D7DB" mask="url(#grid-ios-d)"/>
        <rect width="312" height="1.493" y="19.407" fill="#D7D7DB" mask="url(#grid-ios-d)"/>
        <rect width="312" height="1.493" y="38.813" fill="#D7D7DB" mask="url(#grid-ios-d)"/>
        <rect width="312" height="1.493" y="58.22" fill="#D7D7DB" mask="url(#grid-ios-d)"/>
        <rect width="312" height="1.493" y="77.627" fill="#D7D7DB" mask="url(#grid-ios-d)"/>
        <rect width="312" height="1.493" y="97.033" fill="#D7D7DB" mask="url(#grid-ios-d)"/>
        <rect width="312" height="1.493" y="116.44" fill="#D7D7DB" mask="url(#grid-ios-d)"/>
        <rect width="312" height="1.493" y="135.847" fill="#D7D7DB" mask="url(#grid-ios-d)"/>
        <rect width="312" height="1.493" y="155.254" fill="#D7D7DB" mask="url(#grid-ios-d)"/>
        <rect width="312" height="1.493" y="174.66" fill="#D7D7DB" mask="url(#grid-ios-d)"/>
        <rect width="312" height="1.493" y="194.067" fill="#D7D7DB" mask="url(#grid-ios-d)"/>
        <rect width="312" height="1.493" y="213.474" fill="#D7D7DB" mask="url(#grid-ios-d)"/>
        <rect width="312" height="1.493" y="232.88" fill="#D7D7DB" mask="url(#grid-ios-d)"/>
        <rect width="312" height="1.493" y="252.287" fill="#D7D7DB" mask="url(#grid-ios-d)"/>
        <rect width="312" height="1.493" y="271.694" fill="#D7D7DB" mask="url(#grid-ios-d)"/>
        <rect width="312" height="1.493" y="291.1" fill="#D7D7DB" mask="url(#grid-ios-d)"/>
        <rect width="312" height="1.493" y="310.507" fill="#D7D7DB" mask="url(#grid-ios-d)"/>
      </g>
      <mask id="grid-ios-f" fill="#fff">
        <use xlink:href="#grid-ios-e"/>
      </mask>
      <rect width="1.493" height="312" fill="#D7D7DB" mask="url(#grid-ios-f)"/>
      <rect width="1.493" height="312" x="19.407" fill="#D7D7DB" mask="url(#grid-ios-f)"/>
      <rect width="1.493" height="312" x="38.813" fill="#D7D7DB" mask="url(#grid-ios-f)"/>
      <rect width="1.493" height="312" x="58.22" fill="#D7D7DB" mask="url(#grid-ios-f)"/>
      <rect width="1.493" height="312" x="77.627" fill="#D7D7DB" mask="url(#grid-ios-f)"/>
      <rect width="1.493" height="312" x="97.033" fill="#D7D7DB" mask="url(#grid-ios-f)"/>
      <rect width="1.493" height="312" x="116.44" fill="#D7D7DB" mask="url(#grid-ios-f)"/>
      <rect width="1.493" height="312" x="135.847" fill="#D7D7DB" mask="url(#grid-ios-f)"/>
      <rect width="1.493" height="312" x="155.254" fill="#D7D7DB" mask="url(#grid-ios-f)"/>
      <rect width="1.493" height="312" x="174.66" fill="#D7D7DB" mask="url(#grid-ios-f)"/>
      <rect width="1.493" height="312" x="194.067" fill="#D7D7DB" mask="url(#grid-ios-f)"/>
      <rect width="1.493" height="312" x="213.474" fill="#D7D7DB" mask="url(#grid-ios-f)"/>
      <rect width="1.493" height="312" x="232.88" fill="#D7D7DB" mask="url(#grid-ios-f)"/>
      <rect width="1.493" height="312" x="252.287" fill="#D7D7DB" mask="url(#grid-ios-f)"/>
      <rect width="1.493" height="312" x="271.694" fill="#D7D7DB" mask="url(#grid-ios-f)"/>
      <rect width="1.493" height="312" x="291.1" fill="#D7D7DB" mask="url(#grid-ios-f)"/>
      <rect width="1.493" height="312" x="310.507" fill="#D7D7DB" mask="url(#grid-ios-f)"/>
      <rect width="298" height="298" x="7" y="7" stroke="#000" stroke-width="14" opacity=".1"/>
      <g>
        <use fill="#0A84FF" fill-opacity=".15" xlink:href="#grid-ios-g"/>
        <rect width="311" height="233.373" x=".5" y="39.313" stroke="#0A84FF" stroke-opacity=".8" rx="23.443"/>
      </g>
      <g transform="rotate(90 156 156)">
        <use fill="#0A84FF" fill-opacity=".15" xlink:href="#grid-ios-h"/>
        <rect width="311" height="233.373" x=".5" y="39.313" stroke="#0A84FF" stroke-opacity=".8" rx="23.443"/>
      </g>
      <g transform="rotate(90 156 156)">
        <use fill="#0A84FF" fill-opacity=".15" xlink:href="#grid-ios-i"/>
        <rect width="272.187" height="272.187" x="19.907" y="19.907" stroke="#0A84FF" stroke-opacity=".8" rx="23.443"/>
      </g>
    </g>
    <use fill="#FFF" xlink:href="#grid-ios-j"/>
    <use fill="#30E60B" fill-opacity=".8" xlink:href="#grid-ios-j"/>
    <use fill="#FFF" xlink:href="#grid-ios-k"/>
    <use fill="#30E60B" fill-opacity=".8" xlink:href="#grid-ios-k"/>
    <use fill="#FFF" xlink:href="#grid-ios-l"/>
    <use fill="#30E60B" fill-opacity=".8" xlink:href="#grid-ios-l"/>
    <g transform="translate(186 362)">
      <use fill="#FFF" xlink:href="#grid-ios-m"/>
      <use fill="#30E60B" fill-opacity=".8" xlink:href="#grid-ios-m"/>
      <text fill="#000" font-family="FiraMono-Medium, Fira Mono" font-size="11" font-weight="400">
        <tspan x="3" y="15">24px</tspan>
      </text>
    </g>
    <use fill="#FFF" xlink:href="#grid-ios-n"/>
    <use fill="#30E60B" fill-opacity=".8" xlink:href="#grid-ios-n"/>
    <g>
      <use fill="#FFF" xlink:href="#grid-ios-o"/>
      <use fill="#30E60B" fill-opacity=".8" xlink:href="#grid-ios-o"/>
    </g>
    <g>
      <use fill="#FFF" xlink:href="#grid-ios-p"/>
      <use fill="#30E60B" fill-opacity=".8" xlink:href="#grid-ios-p"/>
    </g>
    <g transform="translate(365 191)">
      <use fill="#FFF" xlink:href="#grid-ios-q"/>
      <use fill="#30E60B" fill-opacity=".8" xlink:href="#grid-ios-q"/>
      <text fill="#000" font-family="FiraMono-Medium, Fira Mono" font-size="11" font-weight="400">
        <tspan x="3" y="15">24px</tspan>
      </text>
    </g>
  </g>
</svg>
