<svg xmlns="http://www.w3.org/2000/svg" xmlns:xlink="http://www.w3.org/1999/xlink" viewBox="0 0 360 360"><defs><polygon id="a" points="0 0 177 0 177 177 0 177"/><polygon id="c" points="0 0 265 0 265 265.201 0 265.201"/><polygon id="e" points="0 0 265 0 265 265.201 0 265.201"/><path id="g" d="M11.5 0A11.5 11.5 0 0 1 23 11.5v132a11.5 11.5 0 1 1-23 0v-132A11.5 11.5 0 0 1 11.5 0zM72 0a6 6 0 0 1 6 6v143a6 6 0 0 1-12 0V6a6 6 0 0 1 6-6z"/><rect id="h" width="23" height="177" x="14" y="39"/><filter id="i" width="104.3%" height="100.6%" x="-2.2%" y="-.3%" filterUnits="objectBoundingBox"><feOffset dx="1" in="SourceAlpha" result="shadowOffsetInner1"/><feComposite in="shadowOffsetInner1" in2="SourceAlpha" k2="-1" k3="1" operator="arithmetic" result="shadowInnerInner1"/><feColorMatrix in="shadowInnerInner1" result="shadowMatrixInner1" values="0 0 0 0 0.929411765 0 0 0 0 0 0 0 0 0 0.709803922 0 0 0 1 0"/><feOffset dx="-1" in="SourceAlpha" result="shadowOffsetInner2"/><feComposite in="shadowOffsetInner2" in2="SourceAlpha" k2="-1" k3="1" operator="arithmetic" result="shadowInnerInner2"/><feColorMatrix in="shadowInnerInner2" result="shadowMatrixInner2" values="0 0 0 0 0.929411765 0 0 0 0 0 0 0 0 0 0.709803922 0 0 0 1 0"/><feMerge><feMergeNode in="shadowMatrixInner1"/><feMergeNode in="shadowMatrixInner2"/></feMerge></filter><rect id="j" width="12" height="177" x="80" y="39"/><filter id="k" width="108.3%" height="100.6%" x="-4.2%" y="-.3%" filterUnits="objectBoundingBox"><feOffset dx="1" in="SourceAlpha" result="shadowOffsetInner1"/><feComposite in="shadowOffsetInner1" in2="SourceAlpha" k2="-1" k3="1" operator="arithmetic" result="shadowInnerInner1"/><feColorMatrix in="shadowInnerInner1" result="shadowMatrixInner1" values="0 0 0 0 0.929411765 0 0 0 0 0 0 0 0 0 0.709803922 0 0 0 1 0"/><feOffset dx="-1" in="SourceAlpha" result="shadowOffsetInner2"/><feComposite in="shadowOffsetInner2" in2="SourceAlpha" k2="-1" k3="1" operator="arithmetic" result="shadowInnerInner2"/><feColorMatrix in="shadowInnerInner2" result="shadowMatrixInner2" values="0 0 0 0 0.929411765 0 0 0 0 0 0 0 0 0 0.709803922 0 0 0 1 0"/><feMerge><feMergeNode in="shadowMatrixInner1"/><feMergeNode in="shadowMatrixInner2"/></feMerge></filter></defs><g fill="none" fill-rule="evenodd"><g transform="translate(92 92)"><mask id="b" fill="white"><use xlink:href="#a"/></mask><g mask="url(#b)"><mask id="d" fill="white"><use xlink:href="#c"/></mask><rect width="338" height="1" x="-1" fill="#D7D7DB" mask="url(#d)"/><rect width="338" height="1" x="-1" y="11" fill="#D7D7DB" mask="url(#d)" opacity=".3"/><rect width="338" height="1" x="-1" y="22" fill="#D7D7DB" mask="url(#d)" opacity=".3"/><rect width="338" height="1" x="-1" y="33" fill="#D7D7DB" mask="url(#d)" opacity=".3"/><rect width="338" height="1" x="-1" y="44" fill="#D7D7DB" mask="url(#d)"/><rect width="338" height="1" x="-1" y="55" fill="#D7D7DB" mask="url(#d)" opacity=".3"/><rect width="338" height="1" x="-1" y="66" fill="#D7D7DB" mask="url(#d)" opacity=".3"/><rect width="338" height="1" x="-1" y="77" fill="#D7D7DB" mask="url(#d)" opacity=".3"/><rect width="338" height="1" x="-1" y="88" fill="#D7D7DB" mask="url(#d)"/><rect width="338" height="1" x="-1" y="99" fill="#D7D7DB" mask="url(#d)" opacity=".3"/><rect width="338" height="1" x="-1" y="110" fill="#D7D7DB" mask="url(#d)" opacity=".3"/><rect width="338" height="1" x="-1" y="121" fill="#D7D7DB" mask="url(#d)" opacity=".3"/><rect width="338" height="1" x="-1" y="132" fill="#D7D7DB" mask="url(#d)"/><rect width="338" height="1" x="-1" y="143" fill="#D7D7DB" mask="url(#d)" opacity=".3"/><rect width="338" height="1" x="-1" y="154" fill="#D7D7DB" mask="url(#d)" opacity=".3"/><rect width="338" height="1" x="-1" y="165" fill="#D7D7DB" mask="url(#d)" opacity=".3"/><rect width="338" height="1" x="-1" y="176" fill="#D7D7DB" mask="url(#d)"/></g><g mask="url(#b)"><g transform="matrix(0 -1 1 0 0 265)"><mask id="f" fill="white"><use xlink:href="#e"/></mask><rect width="338" height="1" x="-73" fill="#D7D7DB" mask="url(#f)"/><rect width="338" height="1" x="-73" y="11" fill="#D7D7DB" mask="url(#f)" opacity=".3"/><rect width="338" height="1" x="-73" y="22" fill="#D7D7DB" mask="url(#f)" opacity=".3"/><rect width="338" height="1" x="-73" y="33" fill="#D7D7DB" mask="url(#f)" opacity=".3"/><rect width="338" height="1" x="-73" y="44" fill="#D7D7DB" mask="url(#f)"/><rect width="338" height="1" x="-73" y="55" fill="#D7D7DB" mask="url(#f)" opacity=".3"/><rect width="338" height="1" x="-73" y="66" fill="#D7D7DB" mask="url(#f)" opacity=".3"/><rect width="338" height="1" x="-73" y="77" fill="#D7D7DB" mask="url(#f)" opacity=".3"/><rect width="338" height="1" x="-73" y="88" fill="#D7D7DB" mask="url(#f)"/><rect width="338" height="1" x="-73" y="99" fill="#D7D7DB" mask="url(#f)" opacity=".3"/><rect width="338" height="1" x="-73" y="110" fill="#D7D7DB" mask="url(#f)" opacity=".3"/><rect width="338" height="1" x="-73" y="121" fill="#D7D7DB" mask="url(#f)" opacity=".3"/><rect width="338" height="1" x="-73" y="132" fill="#D7D7DB" mask="url(#f)"/><rect width="338" height="1" x="-73" y="143" fill="#D7D7DB" mask="url(#f)" opacity=".3"/><rect width="338" height="1" x="-73" y="154" fill="#D7D7DB" mask="url(#f)" opacity=".3"/><rect width="338" height="1" x="-73" y="165" fill="#D7D7DB" mask="url(#f)" opacity=".3"/><rect width="338" height="1" x="-73" y="176" fill="#D7D7DB" mask="url(#f)"/></g></g><rect width="165" height="165" x="6" y="6" stroke="#0C0C0D" stroke-opacity=".1" stroke-width="12"/></g><g transform="translate(136 102)"><use fill="#FFFFFF" xlink:href="#g"/><use fill="#0C0C0D" fill-opacity=".8" xlink:href="#g"/></g><g transform="translate(122 53)"><g transform="translate(6)"><rect width="1" height="9" x="30" y="26" fill="#ED00B5"/><rect width="21" height="1" x="9" y="30" fill="#ED00B5"/><rect width="1" height="9" x="8" y="26" fill="#ED00B5"/><rect width="39" height="22" fill="#ED00B5" fill-rule="nonzero" rx="2"/><path fill="#FFFFFF" d="M12.75 6.9c.38.2.67.47.87.82.2.35.3.74.3 1.18 0 .52-.11 1.01-.35 1.5-.24.47-.61 1-1.13 1.57-.52.57-1.26 1.3-2.21 2.17h3.89L14 15H9.08v-.82a48.03 48.03 0 0 0 2.4-2.42c.53-.58.89-1.08 1.09-1.5a3 3 0 0 0 .3-1.32c0-.46-.13-.83-.4-1.1-.26-.26-.63-.39-1.09-.39-.4 0-.72.07-.98.2a2.7 2.7 0 0 0-.8.68l-.7-.54c.34-.41.7-.71 1.1-.9.41-.2.88-.29 1.43-.29.5 0 .94.1 1.32.3zm8.97 4.93c0 1-.2 1.8-.62 2.4-.42.6-1.02.9-1.81.9-.69 0-1.25-.24-1.68-.72v3.01l-1.01.12V8.68h.86l.09.88c.23-.32.5-.58.83-.75.33-.18.68-.27 1.05-.27 1.53 0 2.3 1.1 2.3 3.3zm-3.41-2.18c-.27.19-.5.43-.7.72v3.13c.17.25.38.44.63.58.25.14.52.21.82.21.53 0 .92-.2 1.18-.6.26-.4.4-1.03.4-1.86 0-.83-.12-1.45-.36-1.86-.23-.4-.6-.61-1.09-.61-.32 0-.61.1-.88.29zM23.27 15l2.33-3.34-2.05-2.98h1.2l1.46 2.35 1.48-2.35h1.16l-2.05 2.94L29.13 15H27.9l-1.74-2.71L24.42 15h-1.15z"/><polygon fill="#ED00B5" points="15 21 19 17 23 21 19 25"/></g><g transform="translate(66)"><rect width="1" height="9" x="25" y="26" fill="#ED00B5"/><rect width="12" height="1" x="14" y="30" fill="#ED00B5"/><rect width="1" height="9" x="14" y="26" fill="#ED00B5"/><rect width="39" height="22" fill="#ED00B5" fill-rule="nonzero" rx="2"/><text fill="#FFFFFF" font-family="FiraMono-Regular, Fira Mono" font-size="12"><tspan x="8.2" y="15">1px</tspan></text><polygon fill="#ED00B5" points="15 21 19 17 23 21 19 25"/></g><use fill="#FC2DD7" fill-opacity=".25" xlink:href="#h"/><use fill="black" filter="url(#i)" xlink:href="#h"/><rect width="1" height="26" x="25" y="200" fill="#EA1CB4"/><rect width="1" height="25" x="86" y="201" fill="#ED00B5"/><use fill="#FC2DD7" fill-opacity=".25" xlink:href="#j"/><use fill="black" filter="url(#k)" xlink:href="#j"/><path stroke="#EA1CB4" stroke-width="1.8" d="M36.06 192.91a723.8 723.8 0 0 1-15.36 0h-5.77c.44 5.7 5.01 10.19 10.57 10.19 5.55 0 10.12-4.48 10.56-10.19z"/><path stroke="#ED00B5" stroke-width="1.8" d="M91.02 198.91c-2.06.02-3.72.02-6.59 0h-.94l-2.51-.01a5.1 5.1 0 0 0 10.04.01z"/><path fill="#ED00B5" d="M67.2 233.53c-.38.39-.86.66-1.47.81l2.46 3.66h-1.25l-2.27-3.54h-1.11V238h-1.04v-8.27h2.12c1.02 0 1.8.2 2.32.59.52.4.78.97.78 1.74 0 .6-.18 1.08-.55 1.47zm-1.02-2.61c-.3-.23-.78-.35-1.42-.35h-1.2v3.07h1.2c.62 0 1.09-.12 1.4-.37.32-.26.48-.66.48-1.21 0-.53-.15-.9-.46-1.14zm7.94 1.5c.47.6.7 1.4.7 2.41 0 1-.23 1.8-.71 2.4-.48.6-1.15.9-2.01.9-.87 0-1.54-.3-2.02-.88a3.74 3.74 0 0 1-.7-2.4c0-1 .23-1.8.71-2.4.48-.6 1.15-.9 2.02-.9.87 0 1.54.29 2.01.88zm-3.24.56a3.4 3.4 0 0 0-.41 1.86c0 .84.13 1.45.4 1.86.27.4.68.6 1.23.6.55 0 .96-.2 1.23-.6.27-.4.4-1.03.4-1.87a3.4 3.4 0 0 0-.4-1.85c-.27-.4-.67-.6-1.22-.6-.55 0-.96.2-1.23.6zm7.03 3.18c0 .41.08.71.26.9.17.19.44.28.8.28.34 0 .67-.1.98-.29.31-.19.56-.43.74-.72v-4.65h1.01V238h-.86l-.09-.85c-.25.31-.55.55-.92.72-.36.18-.73.26-1.1.26-.6 0-1.06-.16-1.37-.48-.3-.32-.46-.78-.46-1.38v-4.6h1v4.5zm6.19-4.48h.86l.09.88a2.66 2.66 0 0 1 2.09-1.02c1.18 0 1.77.63 1.77 1.88V238h-1v-3.84c0-.47-.03-.83-.08-1.08a.91.91 0 0 0-.31-.55c-.15-.12-.38-.18-.7-.18-.34 0-.66.1-.97.31-.3.2-.55.46-.74.74v4.6H84.1v-6.32zm12-2.55V238h-.89l-.1-.83c-.23.32-.5.56-.8.72-.3.16-.63.24-.98.24-.8 0-1.4-.29-1.8-.87-.41-.59-.61-1.4-.61-2.42 0-.63.1-1.2.3-1.7.2-.5.48-.89.85-1.17a2.1 2.1 0 0 1 1.32-.43c.7 0 1.26.26 1.7.76v-3.29l1.01.12zm-3.67 3.85a3.31 3.31 0 0 0-.42 1.86c0 .82.13 1.44.39 1.86.26.42.64.63 1.13.63.6 0 1.12-.34 1.56-1.01v-3.14a1.87 1.87 0 0 0-.63-.61 1.6 1.6 0 0 0-.8-.21c-.54 0-.94.2-1.23.62zm7.42 3.78c.34.36.77.53 1.29.53.31 0 .6-.04.86-.14.26-.09.54-.23.83-.42l.47.67a3.57 3.57 0 0 1-2.16.73c-.91 0-1.62-.3-2.13-.9-.5-.59-.76-1.39-.76-2.39 0-.63.11-1.2.33-1.7.23-.5.55-.89.96-1.17.42-.28.9-.43 1.46-.43.8 0 1.43.28 1.89.84.46.55.69 1.31.69 2.27 0 .19-.01.37-.03.54H99.3c.03.7.21 1.22.55 1.57zm-.03-3.87c-.3.35-.48.86-.52 1.53h3.3c-.02-.66-.16-1.17-.44-1.52a1.4 1.4 0 0 0-1.15-.53c-.49 0-.89.18-1.19.52zm10.68-3.76V238h-.89l-.1-.83c-.23.32-.5.56-.8.72-.3.16-.63.24-.98.24-.8 0-1.4-.29-1.8-.87-.41-.59-.61-1.4-.61-2.42 0-.63.1-1.2.3-1.7.2-.5.48-.89.85-1.17a2.1 2.1 0 0 1 1.32-.43c.7 0 1.26.26 1.7.76v-3.29l1.01.12zm-3.67 3.85a3.31 3.31 0 0 0-.42 1.86c0 .82.13 1.44.39 1.86.26.42.64.63 1.13.63.6 0 1.12-.34 1.56-1.01v-3.14a1.87 1.87 0 0 0-.63-.61 1.6 1.6 0 0 0-.8-.21c-.54 0-.94.2-1.23.62zm-100.64.55c-.37.39-.85.66-1.46.81L7.19 238H5.94l-2.27-3.54H2.56V238H1.52v-8.27h2.12c1.02 0 1.8.2 2.32.59.52.4.78.97.78 1.74 0 .6-.18 1.08-.55 1.47zm-1-2.61c-.31-.23-.79-.35-1.43-.35h-1.2v3.07h1.2c.62 0 1.09-.12 1.4-.37.32-.26.48-.66.48-1.21 0-.53-.15-.9-.46-1.14zm7.93 1.5c.47.6.7 1.4.7 2.41 0 1-.23 1.8-.71 2.4-.48.6-1.15.9-2.01.9-.87 0-1.54-.3-2.02-.88a3.74 3.74 0 0 1-.7-2.4c0-1 .23-1.8.71-2.4.48-.6 1.15-.9 2.02-.9.87 0 1.54.29 2.01.88zm-3.24.56a3.4 3.4 0 0 0-.41 1.86c0 .84.13 1.45.4 1.86.27.4.68.6 1.23.6.55 0 .96-.2 1.23-.6.27-.4.4-1.03.4-1.87a3.4 3.4 0 0 0-.4-1.85c-.27-.4-.67-.6-1.22-.6-.55 0-.96.2-1.23.6zm7.03 3.18c0 .41.08.71.26.9.17.19.44.28.8.28.34 0 .67-.1.98-.29.31-.19.56-.43.74-.72v-4.65h1.01V238h-.86l-.09-.85c-.25.31-.55.55-.92.72-.36.18-.73.26-1.1.26-.6 0-1.06-.16-1.37-.48-.3-.32-.46-.78-.46-1.38v-4.6h1v4.5zm6.19-4.48h.86l.09.88a2.66 2.66 0 0 1 2.09-1.02c1.18 0 1.77.63 1.77 1.88V238h-1v-3.84c0-.47-.03-.83-.08-1.08a.91.91 0 0 0-.31-.55c-.15-.12-.38-.18-.7-.18-.34 0-.66.1-.97.31-.3.2-.55.46-.74.74v4.6H23.1v-6.32zm12-2.55V238h-.89l-.1-.83c-.23.32-.5.56-.8.72-.3.16-.63.24-.98.24-.8 0-1.4-.29-1.8-.87-.41-.59-.61-1.4-.61-2.42 0-.63.1-1.2.3-1.7.2-.5.48-.89.85-1.17a2.1 2.1 0 0 1 1.32-.43c.7 0 1.26.26 1.7.76v-3.29l1.01.12zm-3.67 3.85a3.31 3.31 0 0 0-.42 1.86c0 .82.13 1.44.39 1.86.26.42.64.63 1.13.63.6 0 1.12-.34 1.56-1.01v-3.14a1.87 1.87 0 0 0-.63-.61 1.6 1.6 0 0 0-.8-.21c-.54 0-.94.2-1.23.62zm7.42 3.78c.34.36.77.53 1.29.53.31 0 .6-.04.86-.14.26-.09.54-.23.83-.42l.47.67a3.57 3.57 0 0 1-2.16.73c-.91 0-1.62-.3-2.13-.9-.5-.59-.76-1.39-.76-2.39 0-.63.11-1.2.33-1.7.23-.5.55-.89.96-1.17.42-.28.9-.43 1.46-.43.8 0 1.43.28 1.89.84.46.55.69 1.31.69 2.27 0 .19-.01.37-.03.54H38.3c.03.7.21 1.22.55 1.57zm-.03-3.87c-.3.35-.48.86-.52 1.53h3.3c-.02-.66-.16-1.17-.44-1.52a1.4 1.4 0 0 0-1.15-.53c-.49 0-.89.18-1.19.52zm10.68-3.76V238h-.89l-.1-.83c-.23.32-.5.56-.8.72-.3.16-.63.24-.98.24-.8 0-1.4-.29-1.8-.87-.41-.59-.61-1.4-.61-2.42 0-.63.1-1.2.3-1.7.2-.5.48-.89.85-1.17a2.1 2.1 0 0 1 1.32-.43c.7 0 1.26.26 1.7.76v-3.29l1.01.12zm-3.67 3.85a3.31 3.31 0 0 0-.42 1.86c0 .82.13 1.44.39 1.86.26.42.64.63 1.13.63.6 0 1.12-.34 1.56-1.01v-3.14a1.87 1.87 0 0 0-.63-.61 1.6 1.6 0 0 0-.8-.21c-.54 0-.94.2-1.23.62z"/></g></g></svg>