<svg xmlns="http://www.w3.org/2000/svg" xmlns:xlink="http://www.w3.org/1999/xlink" width="360" height="360" viewBox="0 0 360 360">
  <defs>
    <polygon id="icon-shape-dont-1-a" points="0 0 177 0 177 177 0 177"/>
    <polygon id="icon-shape-dont-1-c" points="0 0 265 0 265 265.201 0 265.201"/>
    <polygon id="icon-shape-dont-1-e" points="0 0 265 0 265 265.201 0 265.201"/>
    <path id="icon-shape-dont-1-g" d="M110.87491,152.136626 C123.381038,147.372386 132.228911,135.291637 132.228911,121.083994 L132.228911,70.463951 L88.5,26.7350397 L44.7710887,70.463951 L44.7710887,123.636265 C44.7710887,137.333453 53.7891132,148.903749 66.1250901,152.817231 L66.1250901,99.2195386 C66.1250901,93.094088 71.1445566,88.1596972 77.2700072,88.1596972 L99.6449171,88.1596972 C105.855443,88.1596972 110.789834,93.094088 110.789834,99.2195386 L110.87491,152.136626 L110.87491,152.136626 Z M22.055876,93.1791637 L18.908075,96.3269647 C14.5692141,100.665826 7.59300649,100.665826 3.25414564,96.3269647 C-1.08471521,91.9881038 -1.08471521,85.0118962 3.25414564,80.6730353 L80.6730353,3.25414564 C85.0118962,-1.08471521 91.9881038,-1.08471521 96.3269647,3.25414564 L173.745854,80.6730353 C178.084715,85.0118962 178.084715,91.9881038 173.745854,96.3269647 C171.618962,98.4538572 168.726388,99.5598414 165.91889,99.5598414 C163.111391,99.5598414 160.218818,98.4538572 158.091925,96.3269647 L154.944124,93.1791637 L154.944124,142.097693 C154.944124,161.324802 139.290195,176.978731 120.063086,176.978731 L62.8922134,176.978731 C40.3471521,176.978731 22.055876,158.687455 22.055876,136.142394 L22.055876,93.1791637 Z M94.0299207,132.739366 C97.092646,132.739366 99.5598414,130.27217 99.5598414,127.209445 C99.5598414,124.14672 97.092646,121.679524 94.0299207,121.679524 C90.9671954,121.679524 88.5,124.14672 88.5,127.209445 C88.5,130.27217 90.9671954,132.739366 94.0299207,132.739366 Z"/>
    <rect id="icon-shape-dont-1-h" width="34" height="39" x="213" y="236"/>
    <filter id="icon-shape-dont-1-i" width="102.9%" height="102.6%" x="-1.5%" y="-1.3%" filterUnits="objectBoundingBox">
      <feOffset dx="1" in="SourceAlpha" result="shadowOffsetInner1"/>
      <feComposite in="shadowOffsetInner1" in2="SourceAlpha" k2="-1" k3="1" operator="arithmetic" result="shadowInnerInner1"/>
      <feColorMatrix in="shadowInnerInner1" result="shadowMatrixInner1" values="0 0 0 0 0.929411765   0 0 0 0 0   0 0 0 0 0.709803922  0 0 0 1 0"/>
      <feOffset dx="-1" in="SourceAlpha" result="shadowOffsetInner2"/>
      <feComposite in="shadowOffsetInner2" in2="SourceAlpha" k2="-1" k3="1" operator="arithmetic" result="shadowInnerInner2"/>
      <feColorMatrix in="shadowInnerInner2" result="shadowMatrixInner2" values="0 0 0 0 0.929411765   0 0 0 0 0   0 0 0 0 0.709803922  0 0 0 1 0"/>
      <feMerge>
        <feMergeNode in="shadowMatrixInner1"/>
        <feMergeNode in="shadowMatrixInner2"/>
      </feMerge>
    </filter>
    <rect id="icon-shape-dont-1-j" width="34" height="61" x="136" y="214"/>
    <filter id="icon-shape-dont-1-k" width="102.9%" height="101.6%" x="-1.5%" y="-.8%" filterUnits="objectBoundingBox">
      <feOffset dx="1" in="SourceAlpha" result="shadowOffsetInner1"/>
      <feComposite in="shadowOffsetInner1" in2="SourceAlpha" k2="-1" k3="1" operator="arithmetic" result="shadowInnerInner1"/>
      <feColorMatrix in="shadowInnerInner1" result="shadowMatrixInner1" values="0 0 0 0 0.929411765   0 0 0 0 0   0 0 0 0 0.709803922  0 0 0 1 0"/>
      <feOffset dx="-1" in="SourceAlpha" result="shadowOffsetInner2"/>
      <feComposite in="shadowOffsetInner2" in2="SourceAlpha" k2="-1" k3="1" operator="arithmetic" result="shadowInnerInner2"/>
      <feColorMatrix in="shadowInnerInner2" result="shadowMatrixInner2" values="0 0 0 0 0.929411765   0 0 0 0 0   0 0 0 0 0.709803922  0 0 0 1 0"/>
      <feMerge>
        <feMergeNode in="shadowMatrixInner1"/>
        <feMergeNode in="shadowMatrixInner2"/>
      </feMerge>
    </filter>
  </defs>
  <g fill="none" fill-rule="evenodd">
    <g transform="translate(92 92)">
      <mask id="icon-shape-dont-1-b" fill="#fff">
        <use xlink:href="#icon-shape-dont-1-a"/>
      </mask>
      <g mask="url(#icon-shape-dont-1-b)">
        <mask id="icon-shape-dont-1-d" fill="#fff">
          <use xlink:href="#icon-shape-dont-1-c"/>
        </mask>
        <rect width="338" height="1" x="-1" fill="#D7D7DB" mask="url(#icon-shape-dont-1-d)"/>
        <rect width="338" height="1" x="-1" y="11" fill="#D7D7DB" mask="url(#icon-shape-dont-1-d)" opacity=".3"/>
        <rect width="338" height="1" x="-1" y="22" fill="#D7D7DB" mask="url(#icon-shape-dont-1-d)" opacity=".3"/>
        <rect width="338" height="1" x="-1" y="33" fill="#D7D7DB" mask="url(#icon-shape-dont-1-d)" opacity=".3"/>
        <rect width="338" height="1" x="-1" y="44" fill="#D7D7DB" mask="url(#icon-shape-dont-1-d)"/>
        <rect width="338" height="1" x="-1" y="55" fill="#D7D7DB" mask="url(#icon-shape-dont-1-d)" opacity=".3"/>
        <rect width="338" height="1" x="-1" y="66" fill="#D7D7DB" mask="url(#icon-shape-dont-1-d)" opacity=".3"/>
        <rect width="338" height="1" x="-1" y="77" fill="#D7D7DB" mask="url(#icon-shape-dont-1-d)" opacity=".3"/>
        <rect width="338" height="1" x="-1" y="88" fill="#D7D7DB" mask="url(#icon-shape-dont-1-d)"/>
        <rect width="338" height="1" x="-1" y="99" fill="#D7D7DB" mask="url(#icon-shape-dont-1-d)" opacity=".3"/>
        <rect width="338" height="1" x="-1" y="110" fill="#D7D7DB" mask="url(#icon-shape-dont-1-d)" opacity=".3"/>
        <rect width="338" height="1" x="-1" y="121" fill="#D7D7DB" mask="url(#icon-shape-dont-1-d)" opacity=".3"/>
        <rect width="338" height="1" x="-1" y="132" fill="#D7D7DB" mask="url(#icon-shape-dont-1-d)"/>
        <rect width="338" height="1" x="-1" y="143" fill="#D7D7DB" mask="url(#icon-shape-dont-1-d)" opacity=".3"/>
        <rect width="338" height="1" x="-1" y="154" fill="#D7D7DB" mask="url(#icon-shape-dont-1-d)" opacity=".3"/>
        <rect width="338" height="1" x="-1" y="165" fill="#D7D7DB" mask="url(#icon-shape-dont-1-d)" opacity=".3"/>
        <rect width="338" height="1" x="-1" y="176" fill="#D7D7DB" mask="url(#icon-shape-dont-1-d)"/>
      </g>
      <g mask="url(#icon-shape-dont-1-b)">
        <g transform="matrix(0 -1 1 0 0 265)">
          <mask id="icon-shape-dont-1-f" fill="#fff">
            <use xlink:href="#icon-shape-dont-1-e"/>
          </mask>
          <rect width="338" height="1" x="-73" fill="#D7D7DB" mask="url(#icon-shape-dont-1-f)"/>
          <rect width="338" height="1" x="-73" y="11" fill="#D7D7DB" mask="url(#icon-shape-dont-1-f)" opacity=".3"/>
          <rect width="338" height="1" x="-73" y="22" fill="#D7D7DB" mask="url(#icon-shape-dont-1-f)" opacity=".3"/>
          <rect width="338" height="1" x="-73" y="33" fill="#D7D7DB" mask="url(#icon-shape-dont-1-f)" opacity=".3"/>
          <rect width="338" height="1" x="-73" y="44" fill="#D7D7DB" mask="url(#icon-shape-dont-1-f)"/>
          <rect width="338" height="1" x="-73" y="55" fill="#D7D7DB" mask="url(#icon-shape-dont-1-f)" opacity=".3"/>
          <rect width="338" height="1" x="-73" y="66" fill="#D7D7DB" mask="url(#icon-shape-dont-1-f)" opacity=".3"/>
          <rect width="338" height="1" x="-73" y="77" fill="#D7D7DB" mask="url(#icon-shape-dont-1-f)" opacity=".3"/>
          <rect width="338" height="1" x="-73" y="88" fill="#D7D7DB" mask="url(#icon-shape-dont-1-f)"/>
          <rect width="338" height="1" x="-73" y="99" fill="#D7D7DB" mask="url(#icon-shape-dont-1-f)" opacity=".3"/>
          <rect width="338" height="1" x="-73" y="110" fill="#D7D7DB" mask="url(#icon-shape-dont-1-f)" opacity=".3"/>
          <rect width="338" height="1" x="-73" y="121" fill="#D7D7DB" mask="url(#icon-shape-dont-1-f)" opacity=".3"/>
          <rect width="338" height="1" x="-73" y="132" fill="#D7D7DB" mask="url(#icon-shape-dont-1-f)"/>
          <rect width="338" height="1" x="-73" y="143" fill="#D7D7DB" mask="url(#icon-shape-dont-1-f)" opacity=".3"/>
          <rect width="338" height="1" x="-73" y="154" fill="#D7D7DB" mask="url(#icon-shape-dont-1-f)" opacity=".3"/>
          <rect width="338" height="1" x="-73" y="165" fill="#D7D7DB" mask="url(#icon-shape-dont-1-f)" opacity=".3"/>
          <rect width="338" height="1" x="-73" y="176" fill="#D7D7DB" mask="url(#icon-shape-dont-1-f)"/>
        </g>
      </g>
      <rect width="165" height="165" x="6" y="6" stroke="#0C0C0D" stroke-opacity=".1" stroke-width="12"/>
    </g>
    <g transform="translate(92 92)">
      <g fill-rule="nonzero">
        <use fill="#FFF" fill-rule="evenodd" xlink:href="#icon-shape-dont-1-g"/>
        <use fill="#0C0C0D" fill-opacity=".8" fill-rule="evenodd" xlink:href="#icon-shape-dont-1-g"/>
      </g>
      <path stroke="#FF1AD9" stroke-width="2" d="M121.558061,111.963756 C103.768504,111.963756 89.3680622,126.364198 89.3680622,144.153755 C89.3680622,161.943311 103.768504,176.343753 121.558061,176.343753 C139.347617,176.343753 153.748059,161.943311 153.748059,144.153755 C153.748059,126.364198 139.347617,111.963756 121.558061,111.963756 Z"/>
      <path stroke="#FF1AD9" stroke-width="2" d="M76.6728934,89.2149522 C58.8833368,89.2149522 44.4828947,103.615394 44.4828947,121.404951 C44.4828947,139.194507 58.8833368,153.594949 76.6728934,153.594949 C94.46245,153.594949 108.862892,139.194507 108.862892,121.404951 C108.862892,103.615394 94.46245,89.2149522 76.6728934,89.2149522 Z"/>
    </g>
    <use fill="#FC2DD7" fill-opacity=".25" xlink:href="#icon-shape-dont-1-h"/>
    <use fill="#000" filter="url(#icon-shape-dont-1-i)" xlink:href="#icon-shape-dont-1-h"/>
    <use fill="#FC2DD7" fill-opacity=".25" xlink:href="#icon-shape-dont-1-j"/>
    <use fill="#000" filter="url(#icon-shape-dont-1-k)" xlink:href="#icon-shape-dont-1-j"/>
    <g transform="translate(211 277)">
      <rect width="1.045" height="9" x="35" fill="#ED00B5"/>
      <rect width="33" height="1" x="3" y="4" fill="#ED00B5"/>
      <rect width="1.045" height="9" x="2" fill="#ED00B5"/>
      <rect width="38" height="22" y="12" fill="#ED00B5" fill-rule="nonzero" rx="2"/>
      <path fill="#FFF" d="M12.9161086,18.882 C13.3001105,19.0700009 13.5961076,19.3219984 13.8041086,19.638 C14.0121096,19.9540016 14.1161086,20.2999981 14.1161086,20.676 C14.1161086,21.1560024 13.9601102,21.5739982 13.6481086,21.93 C13.336107,22.2860018 12.9561108,22.5079996 12.5081086,22.596 C13.0281112,22.6360002 13.4701068,22.8319982 13.8341086,23.184 C14.1981104,23.5360018 14.3801086,24.015997 14.3801086,24.624 C14.3801086,25.0960024 14.2601098,25.5239981 14.0201086,25.908 C13.7801074,26.2920019 13.4421108,26.5919989 13.0061086,26.808 C12.5701064,27.0240011 12.0721114,27.132 11.5121086,27.132 C11.0241062,27.132 10.5541109,27.0400009 10.1021086,26.856 C9.65010634,26.6719991 9.27611008,26.4000018 8.9801086,26.04 L9.6521086,25.488 C9.87610972,25.7520013 10.150107,25.9539993 10.4741086,26.094 C10.7981102,26.2340007 11.1361068,26.304 11.4881086,26.304 C12.0641115,26.304 12.514107,26.1540015 12.8381086,25.854 C13.1621102,25.5539985 13.3241086,25.1440026 13.3241086,24.624 C13.3241086,23.5759948 12.7521143,23.052 11.6081086,23.052 L10.9241086,23.052 L11.0441086,22.248 L11.5361086,22.248 C11.9681108,22.248 12.3361071,22.1260012 12.6401086,21.882 C12.9441101,21.6379988 13.0961086,21.2800024 13.0961086,20.808 C13.0961086,20.3679978 12.9501101,20.0260012 12.6581086,19.782 C12.3661071,19.5379988 11.9921109,19.416 11.5361086,19.416 C11.1921069,19.416 10.8861099,19.4759994 10.6181086,19.596 C10.3501073,19.7160006 10.07211,19.9079987 9.7841086,20.172 L9.2321086,19.56 C9.90411196,18.9199968 10.6881041,18.6 11.5841086,18.6 C12.0881111,18.6 12.5321067,18.6939991 12.9161086,18.882 Z M21.8801086,23.832 C21.8801086,24.832005 21.6721107,25.631997 21.2561086,26.232 C20.8401065,26.832003 20.2361126,27.132 19.4441086,27.132 C18.7561052,27.132 18.1961108,26.8920024 17.7641086,26.412 L17.7641086,29.424 L16.7561086,29.544 L16.7561086,20.676 L17.6201086,20.676 L17.7041086,21.564 C17.9361098,21.2359984 18.214107,20.9840009 18.5381086,20.808 C18.8621102,20.6319991 19.2121067,20.544 19.5881086,20.544 C21.1161162,20.544 21.8801086,21.639989 21.8801086,23.832 Z M18.4661086,21.648 C18.1981073,21.840001 17.9641096,22.0799986 17.7641086,22.368 L17.7641086,25.5 C17.9321094,25.7480012 18.1421073,25.9419993 18.3941086,26.082 C18.6461099,26.2220007 18.9201071,26.292 19.2161086,26.292 C19.7441112,26.292 20.1381073,26.090002 20.3981086,25.686 C20.6581099,25.281998 20.7881086,24.6640042 20.7881086,23.832 C20.7881086,22.9999958 20.6721098,22.380002 20.4401086,21.972 C20.2081074,21.563998 19.8441111,21.36 19.3481086,21.36 C19.028107,21.36 18.7341099,21.455999 18.4661086,21.648 Z M23.4281086,27 L25.7561086,23.664 L23.7041086,20.676 L24.9041086,20.676 L26.3681086,23.028 L27.8441086,20.676 L29.0081086,20.676 L26.9561086,23.616 L29.2841086,27 L28.0601086,27 L26.3201086,24.288 L24.5801086,27 L23.4281086,27 Z"/>
      <polygon fill="#ED00B5" points="16 13 20 9 24 13 20 17"/>
    </g>
    <g transform="translate(134 277)">
      <rect width="1.045" height="9" x="35" fill="#ED00B5"/>
      <rect width="33" height="1" x="3" y="4" fill="#ED00B5"/>
      <rect width="1.045" height="9" x="2" fill="#ED00B5"/>
      <rect width="38" height="22" y="12" fill="#ED00B5" fill-rule="nonzero" rx="2"/>
      <path fill="#FFF" d="M12.9161086,18.882 C13.3001105,19.0700009 13.5961076,19.3219984 13.8041086,19.638 C14.0121096,19.9540016 14.1161086,20.2999981 14.1161086,20.676 C14.1161086,21.1560024 13.9601102,21.5739982 13.6481086,21.93 C13.336107,22.2860018 12.9561108,22.5079996 12.5081086,22.596 C13.0281112,22.6360002 13.4701068,22.8319982 13.8341086,23.184 C14.1981104,23.5360018 14.3801086,24.015997 14.3801086,24.624 C14.3801086,25.0960024 14.2601098,25.5239981 14.0201086,25.908 C13.7801074,26.2920019 13.4421108,26.5919989 13.0061086,26.808 C12.5701064,27.0240011 12.0721114,27.132 11.5121086,27.132 C11.0241062,27.132 10.5541109,27.0400009 10.1021086,26.856 C9.65010634,26.6719991 9.27611008,26.4000018 8.9801086,26.04 L9.6521086,25.488 C9.87610972,25.7520013 10.150107,25.9539993 10.4741086,26.094 C10.7981102,26.2340007 11.1361068,26.304 11.4881086,26.304 C12.0641115,26.304 12.514107,26.1540015 12.8381086,25.854 C13.1621102,25.5539985 13.3241086,25.1440026 13.3241086,24.624 C13.3241086,23.5759948 12.7521143,23.052 11.6081086,23.052 L10.9241086,23.052 L11.0441086,22.248 L11.5361086,22.248 C11.9681108,22.248 12.3361071,22.1260012 12.6401086,21.882 C12.9441101,21.6379988 13.0961086,21.2800024 13.0961086,20.808 C13.0961086,20.3679978 12.9501101,20.0260012 12.6581086,19.782 C12.3661071,19.5379988 11.9921109,19.416 11.5361086,19.416 C11.1921069,19.416 10.8861099,19.4759994 10.6181086,19.596 C10.3501073,19.7160006 10.07211,19.9079987 9.7841086,20.172 L9.2321086,19.56 C9.90411196,18.9199968 10.6881041,18.6 11.5841086,18.6 C12.0881111,18.6 12.5321067,18.6939991 12.9161086,18.882 Z M21.8801086,23.832 C21.8801086,24.832005 21.6721107,25.631997 21.2561086,26.232 C20.8401065,26.832003 20.2361126,27.132 19.4441086,27.132 C18.7561052,27.132 18.1961108,26.8920024 17.7641086,26.412 L17.7641086,29.424 L16.7561086,29.544 L16.7561086,20.676 L17.6201086,20.676 L17.7041086,21.564 C17.9361098,21.2359984 18.214107,20.9840009 18.5381086,20.808 C18.8621102,20.6319991 19.2121067,20.544 19.5881086,20.544 C21.1161162,20.544 21.8801086,21.639989 21.8801086,23.832 Z M18.4661086,21.648 C18.1981073,21.840001 17.9641096,22.0799986 17.7641086,22.368 L17.7641086,25.5 C17.9321094,25.7480012 18.1421073,25.9419993 18.3941086,26.082 C18.6461099,26.2220007 18.9201071,26.292 19.2161086,26.292 C19.7441112,26.292 20.1381073,26.090002 20.3981086,25.686 C20.6581099,25.281998 20.7881086,24.6640042 20.7881086,23.832 C20.7881086,22.9999958 20.6721098,22.380002 20.4401086,21.972 C20.2081074,21.563998 19.8441111,21.36 19.3481086,21.36 C19.028107,21.36 18.7341099,21.455999 18.4661086,21.648 Z M23.4281086,27 L25.7561086,23.664 L23.7041086,20.676 L24.9041086,20.676 L26.3681086,23.028 L27.8441086,20.676 L29.0081086,20.676 L26.9561086,23.616 L29.2841086,27 L28.0601086,27 L26.3201086,24.288 L24.5801086,27 L23.4281086,27 Z"/>
      <polygon fill="#ED00B5" points="16 13 20 9 24 13 20 17"/>
    </g>
  </g>
</svg>
