<svg xmlns="http://www.w3.org/2000/svg" xmlns:xlink="http://www.w3.org/1999/xlink" width="360" height="360" viewBox="0 0 360 360">
  <defs>
    <polygon id="icon-grid-20-a" points="0 0 265 0 265 265 0 265"/>
    <polygon id="icon-grid-20-c" points="0 0 265 0 265 265.201 0 265.201"/>
    <polygon id="icon-grid-20-e" points="0 0 265 0 265 265.201 0 265.201"/>
    <path id="icon-grid-20-g" d="M221,50.4282054 L221,215.11574 C221,230.816204 209.274886,243.543945 194.811224,243.543945 L70.1887755,243.543945 C55.7251142,243.543945 44,230.816204 44,215.11574 L44,50.4282054 C44,34.7277411 55.7251142,22 70.1887755,22 L194.811224,22 C209.274886,22 221,34.7277411 221,50.4282054 Z"/>
    <path id="icon-grid-20-h" d="M232,58.5353982 L232,206.464602 C232,220.567413 218.817527,232 202.556122,232 L62.4438776,232 C46.182473,232 33,220.567413 33,206.464602 L33,58.5353982 C33,44.4325872 46.182473,33 62.4438776,33 L202.556122,33 C218.817527,33 232,44.4325872 232,58.5353982 Z"/>
    <path id="icon-grid-20-i" d="M243,70.1887755 L243,194.811224 C243,209.274886 230.303509,221 214.641593,221 L50.3584071,221 C34.6964913,221 22,209.274886 22,194.811224 L22,70.1887755 C22,55.7251142 34.6964913,44 50.3584071,44 L214.641593,44 C230.303509,44 243,55.7251142 243,70.1887755 Z"/>
  </defs>
  <g fill="none" fill-rule="evenodd">
    <g transform="translate(51 51)">
      <mask id="icon-grid-20-b" fill="#fff">
        <use xlink:href="#icon-grid-20-a"/>
      </mask>
      <g mask="url(#icon-grid-20-b)">
        <mask id="icon-grid-20-d" fill="#fff">
          <use xlink:href="#icon-grid-20-c"/>
        </mask>
        <rect width="338" height="1" x="-1" fill="#D7D7DB" mask="url(#icon-grid-20-d)"/>
        <rect width="338" height="1" x="-1" y="11" fill="#D7D7DB" mask="url(#icon-grid-20-d)" opacity=".3"/>
        <rect width="338" height="1" x="-1" y="22" fill="#D7D7DB" mask="url(#icon-grid-20-d)" opacity=".3"/>
        <rect width="338" height="1" x="-1" y="33" fill="#D7D7DB" mask="url(#icon-grid-20-d)" opacity=".3"/>
        <rect width="338" height="1" x="-1" y="44" fill="#D7D7DB" mask="url(#icon-grid-20-d)"/>
        <rect width="338" height="1" x="-1" y="55" fill="#D7D7DB" mask="url(#icon-grid-20-d)" opacity=".3"/>
        <rect width="338" height="1" x="-1" y="66" fill="#D7D7DB" mask="url(#icon-grid-20-d)" opacity=".3"/>
        <rect width="338" height="1" x="-1" y="77" fill="#D7D7DB" mask="url(#icon-grid-20-d)" opacity=".3"/>
        <rect width="338" height="1" x="-1" y="88" fill="#D7D7DB" mask="url(#icon-grid-20-d)"/>
        <rect width="338" height="1" x="-1" y="99" fill="#D7D7DB" mask="url(#icon-grid-20-d)" opacity=".3"/>
        <rect width="338" height="1" x="-1" y="110" fill="#D7D7DB" mask="url(#icon-grid-20-d)" opacity=".3"/>
        <rect width="338" height="1" x="-1" y="121" fill="#D7D7DB" mask="url(#icon-grid-20-d)" opacity=".3"/>
        <rect width="338" height="1" x="-1" y="132" fill="#D7D7DB" mask="url(#icon-grid-20-d)"/>
        <rect width="338" height="1" x="-1" y="143" fill="#D7D7DB" mask="url(#icon-grid-20-d)" opacity=".3"/>
        <rect width="338" height="1" x="-1" y="154" fill="#D7D7DB" mask="url(#icon-grid-20-d)" opacity=".3"/>
        <rect width="338" height="1" x="-1" y="165" fill="#D7D7DB" mask="url(#icon-grid-20-d)" opacity=".3"/>
        <rect width="338" height="1" x="-1" y="176" fill="#D7D7DB" mask="url(#icon-grid-20-d)"/>
        <rect width="338" height="1" x="-1" y="187" fill="#D7D7DB" mask="url(#icon-grid-20-d)" opacity=".3"/>
        <rect width="338" height="1" x="-1" y="198" fill="#D7D7DB" mask="url(#icon-grid-20-d)" opacity=".3"/>
        <rect width="338" height="1" x="-1" y="209" fill="#D7D7DB" mask="url(#icon-grid-20-d)" opacity=".3"/>
        <rect width="338" height="1" x="-1" y="220" fill="#D7D7DB" mask="url(#icon-grid-20-d)"/>
        <rect width="338" height="1" x="-1" y="231" fill="#D7D7DB" mask="url(#icon-grid-20-d)" opacity=".3"/>
        <rect width="338" height="1" x="-1" y="242" fill="#D7D7DB" mask="url(#icon-grid-20-d)" opacity=".3"/>
        <rect width="338" height="1" x="-1" y="253" fill="#D7D7DB" mask="url(#icon-grid-20-d)" opacity=".3"/>
        <rect width="338" height="1" x="-1" y="264" fill="#D7D7DB" mask="url(#icon-grid-20-d)"/>
      </g>
      <g mask="url(#icon-grid-20-b)">
        <g transform="matrix(0 -1 1 0 0 265)">
          <mask id="icon-grid-20-f" fill="#fff">
            <use xlink:href="#icon-grid-20-e"/>
          </mask>
          <rect width="338" height="1" x="-73" fill="#D7D7DB" mask="url(#icon-grid-20-f)"/>
          <rect width="338" height="1" x="-73" y="11" fill="#D7D7DB" mask="url(#icon-grid-20-f)" opacity=".3"/>
          <rect width="338" height="1" x="-73" y="22" fill="#D7D7DB" mask="url(#icon-grid-20-f)" opacity=".3"/>
          <rect width="338" height="1" x="-73" y="33" fill="#D7D7DB" mask="url(#icon-grid-20-f)" opacity=".3"/>
          <rect width="338" height="1" x="-73" y="44" fill="#D7D7DB" mask="url(#icon-grid-20-f)"/>
          <rect width="338" height="1" x="-73" y="55" fill="#D7D7DB" mask="url(#icon-grid-20-f)" opacity=".3"/>
          <rect width="338" height="1" x="-73" y="66" fill="#D7D7DB" mask="url(#icon-grid-20-f)" opacity=".3"/>
          <rect width="338" height="1" x="-73" y="77" fill="#D7D7DB" mask="url(#icon-grid-20-f)" opacity=".3"/>
          <rect width="338" height="1" x="-73" y="88" fill="#D7D7DB" mask="url(#icon-grid-20-f)"/>
          <rect width="338" height="1" x="-73" y="99" fill="#D7D7DB" mask="url(#icon-grid-20-f)" opacity=".3"/>
          <rect width="338" height="1" x="-73" y="110" fill="#D7D7DB" mask="url(#icon-grid-20-f)" opacity=".3"/>
          <rect width="338" height="1" x="-73" y="121" fill="#D7D7DB" mask="url(#icon-grid-20-f)" opacity=".3"/>
          <rect width="338" height="1" x="-73" y="132" fill="#D7D7DB" mask="url(#icon-grid-20-f)"/>
          <rect width="338" height="1" x="-73" y="143" fill="#D7D7DB" mask="url(#icon-grid-20-f)" opacity=".3"/>
          <rect width="338" height="1" x="-73" y="154" fill="#D7D7DB" mask="url(#icon-grid-20-f)" opacity=".3"/>
          <rect width="338" height="1" x="-73" y="165" fill="#D7D7DB" mask="url(#icon-grid-20-f)" opacity=".3"/>
          <rect width="338" height="1" x="-73" y="176" fill="#D7D7DB" mask="url(#icon-grid-20-f)"/>
          <rect width="338" height="1" x="-73" y="187" fill="#D7D7DB" mask="url(#icon-grid-20-f)" opacity=".3"/>
          <rect width="338" height="1" x="-73" y="198" fill="#D7D7DB" mask="url(#icon-grid-20-f)" opacity=".3"/>
          <rect width="338" height="1" x="-73" y="209" fill="#D7D7DB" mask="url(#icon-grid-20-f)" opacity=".3"/>
          <rect width="338" height="1" x="-73" y="220" fill="#D7D7DB" mask="url(#icon-grid-20-f)"/>
          <rect width="338" height="1" x="-73" y="231" fill="#D7D7DB" mask="url(#icon-grid-20-f)" opacity=".3"/>
          <rect width="338" height="1" x="-73" y="242" fill="#D7D7DB" mask="url(#icon-grid-20-f)" opacity=".3"/>
          <rect width="338" height="1" x="-73" y="253" fill="#D7D7DB" mask="url(#icon-grid-20-f)" opacity=".3"/>
          <rect width="338" height="1" x="-73" y="264" fill="#D7D7DB" mask="url(#icon-grid-20-f)"/>
        </g>
      </g>
      <rect width="209" height="209" x="28" y="28" stroke="#0C0C0D" stroke-opacity=".1" stroke-width="12"/>
      <use fill="#FC2DD7" fill-opacity=".25" xlink:href="#icon-grid-20-g"/>
      <path stroke="#ED00B5" stroke-width=".9" d="M220.55,50.4282054 C220.55,34.9683986 209.017737,22.45 194.811224,22.45 L70.1887755,22.45 C55.9822627,22.45 44.45,34.9683986 44.45,50.4282054 L44.45,215.11574 C44.45,230.575547 55.9822627,243.093945 70.1887755,243.093945 L194.811224,243.093945 C209.017737,243.093945 220.55,230.575547 220.55,215.11574 L220.55,50.4282054 Z"/>
      <use fill="#FC2DD7" fill-opacity=".25" xlink:href="#icon-grid-20-h"/>
      <path stroke="#ED00B5" stroke-width=".9" d="M231.55,58.5353982 C231.55,44.6964867 218.582112,33.45 202.556122,33.45 L62.4438776,33.45 C46.4178877,33.45 33.45,44.6964867 33.45,58.5353982 L33.45,206.464602 C33.45,220.303513 46.4178877,231.55 62.4438776,231.55 L202.556122,231.55 C218.582112,231.55 231.55,220.303513 231.55,206.464602 L231.55,58.5353982 Z"/>
      <g>
        <use fill="#FC2DD7" fill-opacity=".25" xlink:href="#icon-grid-20-i"/>
        <path stroke="#ED00B5" stroke-width=".9" d="M242.55,70.1887755 C242.55,55.9819947 230.062627,44.45 214.641593,44.45 L50.3584071,44.45 C34.9373726,44.45 22.45,55.9819947 22.45,70.1887755 L22.45,194.811224 C22.45,209.018005 34.9373726,220.55 50.3584071,220.55 L214.641593,220.55 C230.062627,220.55 242.55,209.018005 242.55,194.811224 L242.55,70.1887755 Z"/>
      </g>
    </g>
    <rect width="9" height="1" x="324.611" y="73" fill="#ED00B5"/>
    <rect width="1" height="221" x="328.556" y="73" fill="#ED00B5"/>
    <rect width="9" height="1" x="324.556" y="293" fill="#ED00B5"/>
    <rect width="37" height="22" x="311" y="172" fill="#ED00B5" fill-rule="nonzero" rx="2"/>
    <path fill="#FFF" d="M319.654,178.9 C320.034002,179.100001 320.323999,179.373998 320.524,179.722 C320.724001,180.070002 320.824,180.463998 320.824,180.904 C320.824,181.416003 320.706001,181.911998 320.47,182.392 C320.233999,182.872002 319.856003,183.397997 319.336,183.97 C318.815997,184.542003 318.080005,185.263996 317.128,186.136 L321.016,186.136 L320.896,187 L315.976,187 L315.976,186.184 C317.056005,185.151995 317.857997,184.344003 318.382,183.76 C318.906003,183.175997 319.267999,182.676002 319.468,182.26 C319.668001,181.843998 319.768,181.404002 319.768,180.94 C319.768,180.475998 319.636001,180.112001 319.372,179.848 C319.107999,179.583999 318.744002,179.452 318.28,179.452 C317.887998,179.452 317.562001,179.517999 317.302,179.65 C317.041999,179.782001 316.776001,180.007998 316.504,180.328 L315.808,179.788 C316.136002,179.379998 316.501998,179.080001 316.906,178.888 C317.310002,178.695999 317.783997,178.6 318.328,178.6 C318.832003,178.6 319.273998,178.699999 319.654,178.9 Z M327.91,179.698 C328.370002,180.430004 328.6,181.483993 328.6,182.86 C328.6,184.244007 328.370002,185.301996 327.91,186.034 C327.449998,186.766004 326.780004,187.132 325.9,187.132 C325.019996,187.132 324.350002,186.766004 323.89,186.034 C323.429998,185.301996 323.2,184.244007 323.2,182.86 C323.2,181.483993 323.429998,180.430004 323.89,179.698 C324.350002,178.965996 325.019996,178.6 325.9,178.6 C326.780004,178.6 327.449998,178.965996 327.91,179.698 Z M324.256,182.86 C324.256,185.164012 324.803995,186.316 325.9,186.316 C326.996005,186.316 327.544,185.164012 327.544,182.86 C327.544,180.563989 326.996005,179.416 325.9,179.416 C324.803995,179.416 324.256,180.563989 324.256,182.86 Z M326.464,182.308 C326.616001,182.460001 326.692,182.643999 326.692,182.86 C326.692,183.084001 326.616001,183.271999 326.464,183.424 C326.311999,183.576001 326.124001,183.652 325.9,183.652 C325.675999,183.652 325.490001,183.576001 325.342,183.424 C325.193999,183.271999 325.12,183.084001 325.12,182.86 C325.12,182.643999 325.193999,182.460001 325.342,182.308 C325.490001,182.155999 325.675999,182.08 325.9,182.08 C326.124001,182.08 326.311999,182.155999 326.464,182.308 Z M335.824,183.832 C335.824,184.832005 335.616002,185.631997 335.2,186.232 C334.783998,186.832003 334.180004,187.132 333.388,187.132 C332.699997,187.132 332.140002,186.892002 331.708,186.412 L331.708,189.424 L330.7,189.544 L330.7,180.676 L331.564,180.676 L331.648,181.564 C331.880001,181.235998 332.157998,180.984001 332.482,180.808 C332.806002,180.631999 333.155998,180.544 333.532,180.544 C335.060008,180.544 335.824,181.639989 335.824,183.832 Z M332.41,181.648 C332.141999,181.840001 331.908001,182.079999 331.708,182.368 L331.708,185.5 C331.876001,185.748001 332.085999,185.941999 332.338,186.082 C332.590001,186.222001 332.863999,186.292 333.16,186.292 C333.688003,186.292 334.081999,186.090002 334.342,185.686 C334.602001,185.281998 334.732,184.664004 334.732,183.832 C334.732,182.999996 334.616001,182.380002 334.384,181.972 C334.151999,181.563998 333.788002,181.36 333.292,181.36 C332.971998,181.36 332.678001,181.455999 332.41,181.648 Z M337.372,187 L339.7,183.664 L337.648,180.676 L338.848,180.676 L340.312,183.028 L341.788,180.676 L342.952,180.676 L340.9,183.616 L343.228,187 L342.004,187 L340.264,184.288 L338.524,187 L337.372,187 Z"/>
    <rect width="1" height="9" x="293" y="327" fill="#ED00B5"/>
    <rect width="221" height="1" x="73" y="331" fill="#ED00B5"/>
    <rect width="1" height="9" x="73" y="327" fill="#ED00B5"/>
    <rect width="37" height="22" x="166" y="320" fill="#ED00B5" fill-rule="nonzero" rx="2"/>
    <path fill="#FFF" d="M174.654,326.9 C175.034002,327.100001 175.323999,327.373998 175.524,327.722 C175.724001,328.070002 175.824,328.463998 175.824,328.904 C175.824,329.416003 175.706001,329.911998 175.47,330.392 C175.233999,330.872002 174.856003,331.397997 174.336,331.97 C173.815997,332.542003 173.080005,333.263996 172.128,334.136 L176.016,334.136 L175.896,335 L170.976,335 L170.976,334.184 C172.056005,333.151995 172.857997,332.344003 173.382,331.76 C173.906003,331.175997 174.267999,330.676002 174.468,330.26 C174.668001,329.843998 174.768,329.404002 174.768,328.94 C174.768,328.475998 174.636001,328.112001 174.372,327.848 C174.107999,327.583999 173.744002,327.452 173.28,327.452 C172.887998,327.452 172.562001,327.517999 172.302,327.65 C172.041999,327.782001 171.776001,328.007998 171.504,328.328 L170.808,327.788 C171.136002,327.379998 171.501998,327.080001 171.906,326.888 C172.310002,326.695999 172.783997,326.6 173.328,326.6 C173.832003,326.6 174.273998,326.699999 174.654,326.9 Z M182.91,327.698 C183.370002,328.430004 183.6,329.483993 183.6,330.86 C183.6,332.244007 183.370002,333.301996 182.91,334.034 C182.449998,334.766004 181.780004,335.132 180.9,335.132 C180.019996,335.132 179.350002,334.766004 178.89,334.034 C178.429998,333.301996 178.2,332.244007 178.2,330.86 C178.2,329.483993 178.429998,328.430004 178.89,327.698 C179.350002,326.965996 180.019996,326.6 180.9,326.6 C181.780004,326.6 182.449998,326.965996 182.91,327.698 Z M179.256,330.86 C179.256,333.164012 179.803995,334.316 180.9,334.316 C181.996005,334.316 182.544,333.164012 182.544,330.86 C182.544,328.563989 181.996005,327.416 180.9,327.416 C179.803995,327.416 179.256,328.563989 179.256,330.86 Z M181.464,330.308 C181.616001,330.460001 181.692,330.643999 181.692,330.86 C181.692,331.084001 181.616001,331.271999 181.464,331.424 C181.311999,331.576001 181.124001,331.652 180.9,331.652 C180.675999,331.652 180.490001,331.576001 180.342,331.424 C180.193999,331.271999 180.12,331.084001 180.12,330.86 C180.12,330.643999 180.193999,330.460001 180.342,330.308 C180.490001,330.155999 180.675999,330.08 180.9,330.08 C181.124001,330.08 181.311999,330.155999 181.464,330.308 Z M190.824,331.832 C190.824,332.832005 190.616002,333.631997 190.2,334.232 C189.783998,334.832003 189.180004,335.132 188.388,335.132 C187.699997,335.132 187.140002,334.892002 186.708,334.412 L186.708,337.424 L185.7,337.544 L185.7,328.676 L186.564,328.676 L186.648,329.564 C186.880001,329.235998 187.157998,328.984001 187.482,328.808 C187.806002,328.631999 188.155998,328.544 188.532,328.544 C190.060008,328.544 190.824,329.639989 190.824,331.832 Z M187.41,329.648 C187.141999,329.840001 186.908001,330.079999 186.708,330.368 L186.708,333.5 C186.876001,333.748001 187.085999,333.941999 187.338,334.082 C187.590001,334.222001 187.863999,334.292 188.16,334.292 C188.688003,334.292 189.081999,334.090002 189.342,333.686 C189.602001,333.281998 189.732,332.664004 189.732,331.832 C189.732,330.999996 189.616001,330.380002 189.384,329.972 C189.151999,329.563998 188.788002,329.36 188.292,329.36 C187.971998,329.36 187.678001,329.455999 187.41,329.648 Z M192.372,335 L194.7,331.664 L192.648,328.676 L193.848,328.676 L195.312,331.028 L196.788,328.676 L197.952,328.676 L195.9,331.616 L198.228,335 L197.004,335 L195.264,332.288 L193.524,335 L192.372,335 Z"/>
  </g>
</svg>
