<svg xmlns="http://www.w3.org/2000/svg" xmlns:xlink="http://www.w3.org/1999/xlink" viewBox="0 0 360 360"><defs><polygon id="a" points="0 0 177 0 177 177 0 177"/><polygon id="c" points="0 0 265 0 265 265.201 0 265.201"/><polygon id="e" points="0 0 265 0 265 265.201 0 265.201"/><path id="g" d="M110.87 154.26h11.15c5.61 0 10.2-4.6 10.2-10.2v-73.6L88.5 26.74 44.77 70.46v73.6c0 5.6 4.6 10.2 10.21 10.2h11.15V99.22c0-6.13 5.01-11.06 11.14-11.06h22.37c6.22 0 11.15 4.93 11.15 11.06l.08 55.04zM22.06 93.18l-3.15 3.15a11.04 11.04 0 0 1-15.66 0 11.04 11.04 0 0 1 0-15.66L80.67 3.25a11.04 11.04 0 0 1 15.66 0l77.42 77.42a11.04 11.04 0 0 1-7.83 18.89c-2.8 0-5.7-1.1-7.83-3.23l-3.15-3.15v73.59c0 5.61-4.59 10.2-10.2 10.2H35.67a13.65 13.65 0 0 1-13.61-13.6v-70.2zm71.97 39.56a5.52 5.52 0 1 0 0-11.06 5.52 5.52 0 1 0 0 11.06z"/><rect id="h" width="11.5" height="17" x="53.5" y="22"/><filter id="i" width="108.7%" height="105.9%" x="-4.3%" y="-2.9%" filterUnits="objectBoundingBox"><feOffset dx="1" in="SourceAlpha" result="shadowOffsetInner1"/><feComposite in="shadowOffsetInner1" in2="SourceAlpha" k2="-1" k3="1" operator="arithmetic" result="shadowInnerInner1"/><feColorMatrix in="shadowInnerInner1" result="shadowMatrixInner1" values="0 0 0 0 0.929411765 0 0 0 0 0 0 0 0 0 0.709803922 0 0 0 1 0"/><feOffset dx="-1" in="SourceAlpha" result="shadowOffsetInner2"/><feComposite in="shadowOffsetInner2" in2="SourceAlpha" k2="-1" k3="1" operator="arithmetic" result="shadowInnerInner2"/><feColorMatrix in="shadowInnerInner2" result="shadowMatrixInner2" values="0 0 0 0 0.929411765 0 0 0 0 0 0 0 0 0 0.709803922 0 0 0 1 0"/><feMerge><feMergeNode in="shadowMatrixInner1"/><feMergeNode in="shadowMatrixInner2"/></feMerge></filter><rect id="j" width="11.5" height="39" x="20.5"/><filter id="k" width="108.7%" height="102.6%" x="-4.3%" y="-1.3%" filterUnits="objectBoundingBox"><feOffset dx="1" in="SourceAlpha" result="shadowOffsetInner1"/><feComposite in="shadowOffsetInner1" in2="SourceAlpha" k2="-1" k3="1" operator="arithmetic" result="shadowInnerInner1"/><feColorMatrix in="shadowInnerInner1" result="shadowMatrixInner1" values="0 0 0 0 0.929411765 0 0 0 0 0 0 0 0 0 0.709803922 0 0 0 1 0"/><feOffset dx="-1" in="SourceAlpha" result="shadowOffsetInner2"/><feComposite in="shadowOffsetInner2" in2="SourceAlpha" k2="-1" k3="1" operator="arithmetic" result="shadowInnerInner2"/><feColorMatrix in="shadowInnerInner2" result="shadowMatrixInner2" values="0 0 0 0 0.929411765 0 0 0 0 0 0 0 0 0 0.709803922 0 0 0 1 0"/><feMerge><feMergeNode in="shadowMatrixInner1"/><feMergeNode in="shadowMatrixInner2"/></feMerge></filter></defs><g fill="none" fill-rule="evenodd"><g transform="translate(92 92)"><mask id="b" fill="white"><use xlink:href="#a"/></mask><g mask="url(#b)"><mask id="d" fill="white"><use xlink:href="#c"/></mask><rect width="338" height="1" x="-1" fill="#D7D7DB" mask="url(#d)"/><rect width="338" height="1" x="-1" y="11" fill="#D7D7DB" mask="url(#d)" opacity=".3"/><rect width="338" height="1" x="-1" y="22" fill="#D7D7DB" mask="url(#d)" opacity=".3"/><rect width="338" height="1" x="-1" y="33" fill="#D7D7DB" mask="url(#d)" opacity=".3"/><rect width="338" height="1" x="-1" y="44" fill="#D7D7DB" mask="url(#d)"/><rect width="338" height="1" x="-1" y="55" fill="#D7D7DB" mask="url(#d)" opacity=".3"/><rect width="338" height="1" x="-1" y="66" fill="#D7D7DB" mask="url(#d)" opacity=".3"/><rect width="338" height="1" x="-1" y="77" fill="#D7D7DB" mask="url(#d)" opacity=".3"/><rect width="338" height="1" x="-1" y="88" fill="#D7D7DB" mask="url(#d)"/><rect width="338" height="1" x="-1" y="99" fill="#D7D7DB" mask="url(#d)" opacity=".3"/><rect width="338" height="1" x="-1" y="110" fill="#D7D7DB" mask="url(#d)" opacity=".3"/><rect width="338" height="1" x="-1" y="121" fill="#D7D7DB" mask="url(#d)" opacity=".3"/><rect width="338" height="1" x="-1" y="132" fill="#D7D7DB" mask="url(#d)"/><rect width="338" height="1" x="-1" y="143" fill="#D7D7DB" mask="url(#d)" opacity=".3"/><rect width="338" height="1" x="-1" y="154" fill="#D7D7DB" mask="url(#d)" opacity=".3"/><rect width="338" height="1" x="-1" y="165" fill="#D7D7DB" mask="url(#d)" opacity=".3"/><rect width="338" height="1" x="-1" y="176" fill="#D7D7DB" mask="url(#d)"/></g><g mask="url(#b)"><g transform="matrix(0 -1 1 0 0 265)"><mask id="f" fill="white"><use xlink:href="#e"/></mask><rect width="338" height="1" x="-73" fill="#D7D7DB" mask="url(#f)"/><rect width="338" height="1" x="-73" y="11" fill="#D7D7DB" mask="url(#f)" opacity=".3"/><rect width="338" height="1" x="-73" y="22" fill="#D7D7DB" mask="url(#f)" opacity=".3"/><rect width="338" height="1" x="-73" y="33" fill="#D7D7DB" mask="url(#f)" opacity=".3"/><rect width="338" height="1" x="-73" y="44" fill="#D7D7DB" mask="url(#f)"/><rect width="338" height="1" x="-73" y="55" fill="#D7D7DB" mask="url(#f)" opacity=".3"/><rect width="338" height="1" x="-73" y="66" fill="#D7D7DB" mask="url(#f)" opacity=".3"/><rect width="338" height="1" x="-73" y="77" fill="#D7D7DB" mask="url(#f)" opacity=".3"/><rect width="338" height="1" x="-73" y="88" fill="#D7D7DB" mask="url(#f)"/><rect width="338" height="1" x="-73" y="99" fill="#D7D7DB" mask="url(#f)" opacity=".3"/><rect width="338" height="1" x="-73" y="110" fill="#D7D7DB" mask="url(#f)" opacity=".3"/><rect width="338" height="1" x="-73" y="121" fill="#D7D7DB" mask="url(#f)" opacity=".3"/><rect width="338" height="1" x="-73" y="132" fill="#D7D7DB" mask="url(#f)"/><rect width="338" height="1" x="-73" y="143" fill="#D7D7DB" mask="url(#f)" opacity=".3"/><rect width="338" height="1" x="-73" y="154" fill="#D7D7DB" mask="url(#f)" opacity=".3"/><rect width="338" height="1" x="-73" y="165" fill="#D7D7DB" mask="url(#f)" opacity=".3"/><rect width="338" height="1" x="-73" y="176" fill="#D7D7DB" mask="url(#f)"/></g></g><rect width="165" height="165" x="6" y="6" stroke="#0C0C0D" stroke-opacity=".1" stroke-width="12"/></g><g fill-rule="nonzero" transform="translate(92 92)"><use fill="#FFFFFF" fill-rule="evenodd" xlink:href="#g"/><use fill="#0C0C0D" fill-opacity=".8" fill-rule="evenodd" xlink:href="#g"/><path fill="#FF1AD9" d="M121.56 134.5a9.1 9.1 0 0 0-9.06 9.06 9.1 9.1 0 0 0 9.06 9.06 9.1 9.1 0 0 0 9.06-9.06 9.1 9.1 0 0 0-9.06-9.06zm0-2a11.1 11.1 0 0 1 11.06 11.06 11.1 11.1 0 0 1-11.06 11.06 11.1 11.1 0 0 1-11.06-11.06 11.1 11.1 0 0 1 11.06-11.06zm22.5 24.48a9.1 9.1 0 0 0-9.06 9.06 9.1 9.1 0 0 0 9.06 9.06 9.1 9.1 0 0 0 9.06-9.06 9.1 9.1 0 0 0-9.06-9.06zm0-2a11.1 11.1 0 0 1 11.06 11.06 11.1 11.1 0 0 1-11.06 11.06A11.1 11.1 0 0 1 133 166.04a11.1 11.1 0 0 1 11.06-11.06z"/></g><g transform="translate(182 236)"><use fill="#FC2DD7" fill-opacity=".25" xlink:href="#h"/><use fill="black" filter="url(#i)" xlink:href="#h"/><use fill="#FC2DD7" fill-opacity=".25" xlink:href="#j"/><use fill="black" filter="url(#k)" xlink:href="#j"/><g transform="translate(43 41)"><rect width="1.05" height="9" x="21" fill="#ED00B5"/><rect width="11" height="1" x="11" y="4" fill="#ED00B5"/><rect width="1.05" height="9" x="10" fill="#ED00B5"/><rect width="38.67" height="22" y="12" fill="#ED00B5" fill-rule="nonzero" rx="2"/><path fill="#FFFFFF" d="M14.56 26.18V27H9.8v-.82h2.02v-6.34l-1.88 1.14-.44-.71 2.46-1.54h.88v7.45h1.72zm7.32-2.35c0 1-.2 1.8-.62 2.4-.42.6-1.02.9-1.82.9-.68 0-1.24-.24-1.68-.72v3.01l-1 .12v-8.86h.86l.08.88c.24-.32.51-.58.84-.75.32-.18.67-.27 1.05-.27 1.53 0 2.29 1.1 2.29 3.3zm-3.41-2.18c-.27.19-.5.43-.7.72v3.13c.16.25.37.44.62.58.26.14.53.21.83.21.52 0 .92-.2 1.18-.6.26-.4.39-1.03.39-1.86 0-.83-.12-1.45-.35-1.86-.23-.4-.6-.61-1.1-.61-.31 0-.6.1-.87.29zM23.43 27l2.33-3.34-2.06-2.98h1.2l1.47 2.35 1.47-2.35h1.17l-2.05 2.94L29.28 27h-1.22l-1.74-2.71L24.58 27h-1.15z"/><polygon fill="#ED00B5" points="12 13 16 9 20 13 16 17"/></g><g transform="translate(0 41)"><rect width="1.05" height="9" x="31" fill="#ED00B5"/><rect width="11" height="1" x="21" y="4" fill="#ED00B5"/><rect width="1.05" height="9" x="20" fill="#ED00B5"/><rect width="38.67" height="22" y="12" fill="#ED00B5" fill-rule="nonzero" rx="2"/><path fill="#FFFFFF" d="M14.56 26.18V27H9.8v-.82h2.02v-6.34l-1.88 1.14-.44-.71 2.46-1.54h.88v7.45h1.72zm7.32-2.35c0 1-.2 1.8-.62 2.4-.42.6-1.02.9-1.82.9-.68 0-1.24-.24-1.68-.72v3.01l-1 .12v-8.86h.86l.08.88c.24-.32.51-.58.84-.75.32-.18.67-.27 1.05-.27 1.53 0 2.29 1.1 2.29 3.3zm-3.41-2.18c-.27.19-.5.43-.7.72v3.13c.16.25.37.44.62.58.26.14.53.21.83.21.52 0 .92-.2 1.18-.6.26-.4.39-1.03.39-1.86 0-.83-.12-1.45-.35-1.86-.23-.4-.6-.61-1.1-.61-.31 0-.6.1-.87.29zM23.43 27l2.33-3.34-2.06-2.98h1.2l1.47 2.35 1.47-2.35h1.17l-2.05 2.94L29.28 27h-1.22l-1.74-2.71L24.58 27h-1.15z"/><polygon fill="#ED00B5" points="22 13 26 9 30 13 26 17"/></g></g></g></svg>