<svg xmlns="http://www.w3.org/2000/svg" xmlns:xlink="http://www.w3.org/1999/xlink" viewBox="0 0 360 360"><defs><polygon id="a" points="0 0 177 0 177 177 0 177"/><polygon id="c" points="0 0 265 0 265 265.201 0 265.201"/><polygon id="e" points="0 0 265 0 265 265.201 0 265.201"/><path id="g" d="M110.87 152.14a33.17 33.17 0 0 0 21.36-31.06V70.46L88.5 26.74 44.77 70.46v53.18c0 13.7 9.02 25.26 21.36 29.18v-53.6c0-6.13 5.01-11.06 11.14-11.06h22.37c6.22 0 11.15 4.93 11.15 11.06l.08 52.92zM22.06 93.18l-3.15 3.15a11.04 11.04 0 0 1-15.66 0 11.04 11.04 0 0 1 0-15.66L80.67 3.25a11.04 11.04 0 0 1 15.66 0l77.42 77.42a11.04 11.04 0 0 1-7.83 18.89c-2.8 0-5.7-1.1-7.83-3.23l-3.15-3.15v48.92a34.93 34.93 0 0 1-34.88 34.88H62.9a40.85 40.85 0 0 1-40.83-40.84V93.18zm71.97 39.56a5.52 5.52 0 1 0 0-11.06 5.52 5.52 0 1 0 0 11.06z"/><rect id="h" width="34" height="39" x="79" y="22"/><filter id="i" width="102.9%" height="102.6%" x="-1.5%" y="-1.3%" filterUnits="objectBoundingBox"><feOffset dx="1" in="SourceAlpha" result="shadowOffsetInner1"/><feComposite in="shadowOffsetInner1" in2="SourceAlpha" k2="-1" k3="1" operator="arithmetic" result="shadowInnerInner1"/><feColorMatrix in="shadowInnerInner1" result="shadowMatrixInner1" values="0 0 0 0 0.929411765 0 0 0 0 0 0 0 0 0 0.709803922 0 0 0 1 0"/><feOffset dx="-1" in="SourceAlpha" result="shadowOffsetInner2"/><feComposite in="shadowOffsetInner2" in2="SourceAlpha" k2="-1" k3="1" operator="arithmetic" result="shadowInnerInner2"/><feColorMatrix in="shadowInnerInner2" result="shadowMatrixInner2" values="0 0 0 0 0.929411765 0 0 0 0 0 0 0 0 0 0.709803922 0 0 0 1 0"/><feMerge><feMergeNode in="shadowMatrixInner1"/><feMergeNode in="shadowMatrixInner2"/></feMerge></filter><rect id="j" width="34" height="61" x="2"/><filter id="k" width="102.9%" height="101.6%" x="-1.5%" y="-.8%" filterUnits="objectBoundingBox"><feOffset dx="1" in="SourceAlpha" result="shadowOffsetInner1"/><feComposite in="shadowOffsetInner1" in2="SourceAlpha" k2="-1" k3="1" operator="arithmetic" result="shadowInnerInner1"/><feColorMatrix in="shadowInnerInner1" result="shadowMatrixInner1" values="0 0 0 0 0.929411765 0 0 0 0 0 0 0 0 0 0.709803922 0 0 0 1 0"/><feOffset dx="-1" in="SourceAlpha" result="shadowOffsetInner2"/><feComposite in="shadowOffsetInner2" in2="SourceAlpha" k2="-1" k3="1" operator="arithmetic" result="shadowInnerInner2"/><feColorMatrix in="shadowInnerInner2" result="shadowMatrixInner2" values="0 0 0 0 0.929411765 0 0 0 0 0 0 0 0 0 0.709803922 0 0 0 1 0"/><feMerge><feMergeNode in="shadowMatrixInner1"/><feMergeNode in="shadowMatrixInner2"/></feMerge></filter></defs><g fill="none" fill-rule="evenodd"><g transform="translate(92 92)"><mask id="b" fill="white"><use xlink:href="#a"/></mask><g mask="url(#b)"><mask id="d" fill="white"><use xlink:href="#c"/></mask><rect width="338" height="1" x="-1" fill="#D7D7DB" mask="url(#d)"/><rect width="338" height="1" x="-1" y="11" fill="#D7D7DB" mask="url(#d)" opacity=".3"/><rect width="338" height="1" x="-1" y="22" fill="#D7D7DB" mask="url(#d)" opacity=".3"/><rect width="338" height="1" x="-1" y="33" fill="#D7D7DB" mask="url(#d)" opacity=".3"/><rect width="338" height="1" x="-1" y="44" fill="#D7D7DB" mask="url(#d)"/><rect width="338" height="1" x="-1" y="55" fill="#D7D7DB" mask="url(#d)" opacity=".3"/><rect width="338" height="1" x="-1" y="66" fill="#D7D7DB" mask="url(#d)" opacity=".3"/><rect width="338" height="1" x="-1" y="77" fill="#D7D7DB" mask="url(#d)" opacity=".3"/><rect width="338" height="1" x="-1" y="88" fill="#D7D7DB" mask="url(#d)"/><rect width="338" height="1" x="-1" y="99" fill="#D7D7DB" mask="url(#d)" opacity=".3"/><rect width="338" height="1" x="-1" y="110" fill="#D7D7DB" mask="url(#d)" opacity=".3"/><rect width="338" height="1" x="-1" y="121" fill="#D7D7DB" mask="url(#d)" opacity=".3"/><rect width="338" height="1" x="-1" y="132" fill="#D7D7DB" mask="url(#d)"/><rect width="338" height="1" x="-1" y="143" fill="#D7D7DB" mask="url(#d)" opacity=".3"/><rect width="338" height="1" x="-1" y="154" fill="#D7D7DB" mask="url(#d)" opacity=".3"/><rect width="338" height="1" x="-1" y="165" fill="#D7D7DB" mask="url(#d)" opacity=".3"/><rect width="338" height="1" x="-1" y="176" fill="#D7D7DB" mask="url(#d)"/></g><g mask="url(#b)"><g transform="matrix(0 -1 1 0 0 265)"><mask id="f" fill="white"><use xlink:href="#e"/></mask><rect width="338" height="1" x="-73" fill="#D7D7DB" mask="url(#f)"/><rect width="338" height="1" x="-73" y="11" fill="#D7D7DB" mask="url(#f)" opacity=".3"/><rect width="338" height="1" x="-73" y="22" fill="#D7D7DB" mask="url(#f)" opacity=".3"/><rect width="338" height="1" x="-73" y="33" fill="#D7D7DB" mask="url(#f)" opacity=".3"/><rect width="338" height="1" x="-73" y="44" fill="#D7D7DB" mask="url(#f)"/><rect width="338" height="1" x="-73" y="55" fill="#D7D7DB" mask="url(#f)" opacity=".3"/><rect width="338" height="1" x="-73" y="66" fill="#D7D7DB" mask="url(#f)" opacity=".3"/><rect width="338" height="1" x="-73" y="77" fill="#D7D7DB" mask="url(#f)" opacity=".3"/><rect width="338" height="1" x="-73" y="88" fill="#D7D7DB" mask="url(#f)"/><rect width="338" height="1" x="-73" y="99" fill="#D7D7DB" mask="url(#f)" opacity=".3"/><rect width="338" height="1" x="-73" y="110" fill="#D7D7DB" mask="url(#f)" opacity=".3"/><rect width="338" height="1" x="-73" y="121" fill="#D7D7DB" mask="url(#f)" opacity=".3"/><rect width="338" height="1" x="-73" y="132" fill="#D7D7DB" mask="url(#f)"/><rect width="338" height="1" x="-73" y="143" fill="#D7D7DB" mask="url(#f)" opacity=".3"/><rect width="338" height="1" x="-73" y="154" fill="#D7D7DB" mask="url(#f)" opacity=".3"/><rect width="338" height="1" x="-73" y="165" fill="#D7D7DB" mask="url(#f)" opacity=".3"/><rect width="338" height="1" x="-73" y="176" fill="#D7D7DB" mask="url(#f)"/></g></g><rect width="165" height="165" x="6" y="6" stroke="#0C0C0D" stroke-opacity=".1" stroke-width="12"/></g><g transform="translate(92 92)"><g fill-rule="nonzero"><use fill="#FFFFFF" fill-rule="evenodd" xlink:href="#g"/><use fill="#0C0C0D" fill-opacity=".8" fill-rule="evenodd" xlink:href="#g"/></g><path stroke="#FF1AD9" stroke-width="2" d="M121.56 111.96a32.18 32.18 0 0 0-32.2 32.2 32.18 32.18 0 0 0 32.2 32.18 32.18 32.18 0 0 0 32.19-32.19 32.18 32.18 0 0 0-32.2-32.19z"/><path stroke="#FF1AD9" stroke-width="2" d="M76.67 89.21a32.18 32.18 0 0 0-32.19 32.2 32.18 32.18 0 0 0 32.2 32.18 32.18 32.18 0 0 0 32.18-32.19 32.18 32.18 0 0 0-32.19-32.19z"/></g><g transform="translate(134 214)"><use fill="#FC2DD7" fill-opacity=".25" xlink:href="#h"/><use fill="black" filter="url(#i)" xlink:href="#h"/><use fill="#FC2DD7" fill-opacity=".25" xlink:href="#j"/><use fill="black" filter="url(#k)" xlink:href="#j"/><g transform="translate(77 63)"><rect width="1.05" height="9" x="35" fill="#ED00B5"/><rect width="33" height="1" x="3" y="4" fill="#ED00B5"/><rect width="1.05" height="9" x="2" fill="#ED00B5"/><rect width="38" height="22" y="12" fill="#ED00B5" fill-rule="nonzero" rx="2"/><path fill="#FFFFFF" d="M12.92 18.88c.38.19.68.44.88.76.21.31.32.66.32 1.04a2 2 0 0 1-1.6 1.92c.5.04.95.23 1.31.58.37.36.55.84.55 1.44a2.37 2.37 0 0 1-1.37 2.19 3.7 3.7 0 0 1-2.9.05 2.78 2.78 0 0 1-1.13-.82l.67-.55c.23.26.5.46.82.6.33.14.67.21 1.02.21.57 0 1.02-.15 1.35-.45.32-.3.48-.7.48-1.23 0-1.04-.57-1.57-1.71-1.57h-.69l.12-.8h.5c.43 0 .8-.12 1.1-.37.3-.24.46-.6.46-1.07 0-.44-.15-.78-.44-1.03a1.7 1.7 0 0 0-1.12-.36c-.35 0-.65.06-.92.18a3.2 3.2 0 0 0-.84.57l-.55-.61a3.3 3.3 0 0 1 3.69-.68zm8.96 4.95c0 1-.2 1.8-.62 2.4-.42.6-1.02.9-1.82.9-.68 0-1.24-.24-1.68-.72v3.01l-1 .12v-8.86h.86l.08.88c.24-.32.51-.58.84-.75.32-.18.67-.27 1.05-.27 1.53 0 2.29 1.1 2.29 3.3zm-3.41-2.18c-.27.19-.5.43-.7.72v3.13c.16.25.37.44.62.58.26.14.53.21.83.21.52 0 .92-.2 1.18-.6.26-.4.39-1.03.39-1.86 0-.83-.12-1.45-.35-1.86-.23-.4-.6-.61-1.1-.61-.31 0-.6.1-.87.29zM23.43 27l2.33-3.34-2.06-2.98h1.2l1.47 2.35 1.47-2.35h1.17l-2.05 2.94L29.28 27h-1.22l-1.74-2.71L24.58 27h-1.15z"/><polygon fill="#ED00B5" points="16 13 20 9 24 13 20 17"/></g><g transform="translate(0 63)"><rect width="1.05" height="9" x="35" fill="#ED00B5"/><rect width="33" height="1" x="3" y="4" fill="#ED00B5"/><rect width="1.05" height="9" x="2" fill="#ED00B5"/><rect width="38" height="22" y="12" fill="#ED00B5" fill-rule="nonzero" rx="2"/><path fill="#FFFFFF" d="M12.92 18.88c.38.19.68.44.88.76.21.31.32.66.32 1.04a2 2 0 0 1-1.6 1.92c.5.04.95.23 1.31.58.37.36.55.84.55 1.44a2.37 2.37 0 0 1-1.37 2.19 3.7 3.7 0 0 1-2.9.05 2.78 2.78 0 0 1-1.13-.82l.67-.55c.23.26.5.46.82.6.33.14.67.21 1.02.21.57 0 1.02-.15 1.35-.45.32-.3.48-.7.48-1.23 0-1.04-.57-1.57-1.71-1.57h-.69l.12-.8h.5c.43 0 .8-.12 1.1-.37.3-.24.46-.6.46-1.07 0-.44-.15-.78-.44-1.03a1.7 1.7 0 0 0-1.12-.36c-.35 0-.65.06-.92.18a3.2 3.2 0 0 0-.84.57l-.55-.61a3.3 3.3 0 0 1 3.69-.68zm8.96 4.95c0 1-.2 1.8-.62 2.4-.42.6-1.02.9-1.82.9-.68 0-1.24-.24-1.68-.72v3.01l-1 .12v-8.86h.86l.08.88c.24-.32.51-.58.84-.75.32-.18.67-.27 1.05-.27 1.53 0 2.29 1.1 2.29 3.3zm-3.41-2.18c-.27.19-.5.43-.7.72v3.13c.16.25.37.44.62.58.26.14.53.21.83.21.52 0 .92-.2 1.18-.6.26-.4.39-1.03.39-1.86 0-.83-.12-1.45-.35-1.86-.23-.4-.6-.61-1.1-.61-.31 0-.6.1-.87.29zM23.43 27l2.33-3.34-2.06-2.98h1.2l1.47 2.35 1.47-2.35h1.17l-2.05 2.94L29.28 27h-1.22l-1.74-2.71L24.58 27h-1.15z"/><polygon fill="#ED00B5" points="16 13 20 9 24 13 20 17"/></g></g></g></svg>