<svg xmlns="http://www.w3.org/2000/svg" xmlns:xlink="http://www.w3.org/1999/xlink" viewBox="0 0 360 360"><defs><polygon id="a" points="0 0 265 0 265 265 0 265"/><polygon id="c" points="0 0 265 0 265 265.201 0 265.201"/><polygon id="e" points="0 0 265 0 265 265 0 265"/><path id="g" d="M243 34.28v196.99c0 18.78-14.64 34-32.7 34H54.7c-18.06 0-32.7-15.22-32.7-34v-197c0-18.77 14.64-34 32.7-34h155.6c18.06 0 32.7 15.23 32.7 34z"/><path id="h" d="M254 42.18v180.64c0 17.22-16.1 31.18-35.95 31.18H46.95C27.1 254 11 240.04 11 222.82V42.18C11 24.96 27.1 11 46.95 11h171.1C237.9 11 254 24.96 254 42.18z"/><path id="i" d="M265 54.7v155.6c0 18.06-15.22 32.7-34 32.7H34c-18.78 0-34-14.64-34-32.7V54.7C0 36.64 15.22 22 34 22h197c18.78 0 34 14.64 34 32.7z"/></defs><g fill="none" fill-rule="evenodd"><g transform="translate(48 47)"><mask id="b" fill="white"><use xlink:href="#a"/></mask><g mask="url(#b)"><mask id="d" fill="white"><use xlink:href="#c"/></mask><rect width="338" height="1" x="-1" fill="#D7D7DB" mask="url(#d)"/><rect width="338" height="1" x="-1" y="11" fill="#D7D7DB" mask="url(#d)" opacity=".3"/><rect width="338" height="1" x="-1" y="22" fill="#D7D7DB" mask="url(#d)" opacity=".3"/><rect width="338" height="1" x="-1" y="33" fill="#D7D7DB" mask="url(#d)" opacity=".3"/><rect width="338" height="1" x="-1" y="44" fill="#D7D7DB" mask="url(#d)"/><rect width="338" height="1" x="-1" y="55" fill="#D7D7DB" mask="url(#d)" opacity=".3"/><rect width="338" height="1" x="-1" y="66" fill="#D7D7DB" mask="url(#d)" opacity=".3"/><rect width="338" height="1" x="-1" y="77" fill="#D7D7DB" mask="url(#d)" opacity=".3"/><rect width="338" height="1" x="-1" y="88" fill="#D7D7DB" mask="url(#d)"/><rect width="338" height="1" x="-1" y="99" fill="#D7D7DB" mask="url(#d)" opacity=".3"/><rect width="338" height="1" x="-1" y="110" fill="#D7D7DB" mask="url(#d)" opacity=".3"/><rect width="338" height="1" x="-1" y="121" fill="#D7D7DB" mask="url(#d)" opacity=".3"/><rect width="338" height="1" x="-1" y="132" fill="#D7D7DB" mask="url(#d)"/><rect width="338" height="1" x="-1" y="143" fill="#D7D7DB" mask="url(#d)" opacity=".3"/><rect width="338" height="1" x="-1" y="154" fill="#D7D7DB" mask="url(#d)" opacity=".3"/><rect width="338" height="1" x="-1" y="165" fill="#D7D7DB" mask="url(#d)" opacity=".3"/><rect width="338" height="1" x="-1" y="176" fill="#D7D7DB" mask="url(#d)"/><rect width="338" height="1" x="-1" y="187" fill="#D7D7DB" mask="url(#d)" opacity=".3"/><rect width="338" height="1" x="-1" y="198" fill="#D7D7DB" mask="url(#d)" opacity=".3"/><rect width="338" height="1" x="-1" y="209" fill="#D7D7DB" mask="url(#d)" opacity=".3"/><rect width="338" height="1" x="-1" y="220" fill="#D7D7DB" mask="url(#d)"/><rect width="338" height="1" x="-1" y="231" fill="#D7D7DB" mask="url(#d)" opacity=".3"/><rect width="338" height="1" x="-1" y="242" fill="#D7D7DB" mask="url(#d)" opacity=".3"/><rect width="338" height="1" x="-1" y="253" fill="#D7D7DB" mask="url(#d)" opacity=".3"/><rect width="338" height="1" x="-1" y="264" fill="#D7D7DB" mask="url(#d)"/></g><g mask="url(#b)"><g transform="matrix(0 -1 1 0 0 265)"><mask id="f" fill="white"><use xlink:href="#e"/></mask><rect width="338" height="1" x="-73" fill="#D7D7DB" mask="url(#f)"/><rect width="338" height="1" x="-73" y="11" fill="#D7D7DB" mask="url(#f)" opacity=".3"/><rect width="338" height="1" x="-73" y="22" fill="#D7D7DB" mask="url(#f)" opacity=".3"/><rect width="338" height="1" x="-73" y="33" fill="#D7D7DB" mask="url(#f)" opacity=".3"/><rect width="338" height="1" x="-73" y="44" fill="#D7D7DB" mask="url(#f)"/><rect width="338" height="1" x="-73" y="55" fill="#D7D7DB" mask="url(#f)" opacity=".3"/><rect width="338" height="1" x="-73" y="66" fill="#D7D7DB" mask="url(#f)" opacity=".3"/><rect width="338" height="1" x="-73" y="77" fill="#D7D7DB" mask="url(#f)" opacity=".3"/><rect width="338" height="1" x="-73" y="88" fill="#D7D7DB" mask="url(#f)"/><rect width="338" height="1" x="-73" y="99" fill="#D7D7DB" mask="url(#f)" opacity=".3"/><rect width="338" height="1" x="-73" y="110" fill="#D7D7DB" mask="url(#f)" opacity=".3"/><rect width="338" height="1" x="-73" y="121" fill="#D7D7DB" mask="url(#f)" opacity=".3"/><rect width="338" height="1" x="-73" y="132" fill="#D7D7DB" mask="url(#f)"/><rect width="338" height="1" x="-73" y="143" fill="#D7D7DB" mask="url(#f)" opacity=".3"/><rect width="338" height="1" x="-73" y="154" fill="#D7D7DB" mask="url(#f)" opacity=".3"/><rect width="338" height="1" x="-73" y="165" fill="#D7D7DB" mask="url(#f)" opacity=".3"/><rect width="338" height="1" x="-73" y="176" fill="#D7D7DB" mask="url(#f)"/><rect width="338" height="1" x="-73" y="187" fill="#D7D7DB" mask="url(#f)" opacity=".3"/><rect width="338" height="1" x="-73" y="198" fill="#D7D7DB" mask="url(#f)" opacity=".3"/><rect width="338" height="1" x="-73" y="209" fill="#D7D7DB" mask="url(#f)" opacity=".3"/><rect width="338" height="1" x="-73" y="220" fill="#D7D7DB" mask="url(#f)"/><rect width="338" height="1" x="-73" y="231" fill="#D7D7DB" mask="url(#f)" opacity=".3"/><rect width="338" height="1" x="-73" y="242" fill="#D7D7DB" mask="url(#f)" opacity=".3"/><rect width="338" height="1" x="-73" y="253" fill="#D7D7DB" mask="url(#f)" opacity=".3"/><rect width="338" height="1" x="-73" y="264" fill="#D7D7DB" mask="url(#f)"/></g></g><rect width="253" height="253" x="6" y="6" stroke="#0C0C0D" stroke-opacity=".1" stroke-width="12"/><use fill="#FC2DD7" fill-opacity=".2" xlink:href="#g"/><path stroke="#ED00B5" d="M242.5 34.28c0-18.51-14.42-33.5-32.2-33.5H54.7c-17.78 0-32.2 14.99-32.2 33.5v196.99c0 18.5 14.42 33.5 32.2 33.5h155.6c17.78 0 32.2-15 32.2-33.5v-197z"/><use fill="#FC2DD7" fill-opacity=".2" xlink:href="#h"/><path stroke="#ED00B5" d="M253.5 42.18c0-16.93-15.86-30.68-35.45-30.68H46.95c-19.6 0-35.45 13.75-35.45 30.68v180.64c0 16.93 15.86 30.68 35.45 30.68h171.1c19.6 0 35.45-13.75 35.45-30.68V42.18z"/><g><use fill="#FC2DD7" fill-opacity=".2" xlink:href="#i"/><path stroke="#ED00B5" d="M264.5 54.7c0-17.78-15-32.2-33.5-32.2H34C15.5 22.5.5 36.92.5 54.7v155.6c0 17.78 15 32.2 33.5 32.2h197c18.5 0 33.5-14.42 33.5-32.2V54.7z"/></g></g><g transform="translate(48 47)"><g transform="translate(260)"><rect width="1" height="263" x="18" y="1" fill="#ED00B5"/><rect width="9" height="1" x="14" fill="#ED00B5"/><rect width="9" height="1" x="14" y="264" fill="#ED00B5"/><rect width="37" height="22" y="121" fill="#EA1CB4" fill-rule="nonzero" rx="2"/><path fill="#FFFFFF" d="M8.65 127.9c.38.2.67.47.87.82.2.35.3.74.3 1.18 0 .52-.11 1.01-.35 1.5-.24.47-.61 1-1.13 1.57-.52.57-1.26 1.3-2.21 2.17h3.89l-.12.86H4.98v-.82a48.03 48.03 0 0 0 2.4-2.42c.53-.58.89-1.08 1.09-1.5a3 3 0 0 0 .3-1.32c0-.46-.13-.83-.4-1.1-.26-.26-.63-.39-1.09-.39-.4 0-.72.07-.98.2a2.7 2.7 0 0 0-.8.68l-.7-.54c.34-.41.7-.71 1.1-.9.41-.2.88-.29 1.43-.29.5 0 .94.1 1.32.3zm8.99 6.1h-1.07v2h-.97v-2h-3.44v-.75l2.43-5.65.84.36-2.2 5.22h2.38l.08-2.34h.88v2.34h1.07v.82zm7.18-1.17c0 1-.2 1.8-.62 2.4-.42.6-1.02.9-1.81.9-.69 0-1.25-.24-1.68-.72v3.01l-1.01.12v-8.86h.86l.09.88c.23-.32.5-.58.83-.75.33-.18.68-.27 1.05-.27 1.53 0 2.3 1.1 2.3 3.3zm-3.41-2.18c-.27.19-.5.43-.7.72v3.13c.17.25.38.44.63.58.25.14.52.21.82.21.53 0 .92-.2 1.18-.6.26-.4.4-1.03.4-1.86 0-.83-.12-1.45-.36-1.86-.23-.4-.6-.61-1.09-.61-.32 0-.61.1-.88.29zm4.96 5.35l2.33-3.34-2.05-2.98h1.2l1.46 2.35 1.48-2.35h1.16l-2.05 2.94 2.33 3.38H31l-1.74-2.71-1.74 2.71h-1.15z"/></g><g transform="translate(0 269)"><rect width="1" height="9" x="264" y="7" fill="#ED00B5"/><rect width="263" height="1" x="1" y="11" fill="#ED00B5"/><rect width="1" height="9" y="7" fill="#ED00B5"/><rect width="37" height="22" x="115" fill="#ED00B5" fill-rule="nonzero" rx="2"/><path fill="#FFFFFF" d="M123.65 6.9c.38.2.67.47.87.82.2.35.3.74.3 1.18 0 .52-.11 1.01-.35 1.5-.24.47-.61 1-1.13 1.57-.52.57-1.26 1.3-2.21 2.17h3.89l-.12.86h-4.92v-.82a48.03 48.03 0 0 0 2.4-2.42c.53-.58.89-1.08 1.09-1.5a3 3 0 0 0 .3-1.32c0-.46-.13-.83-.4-1.1-.26-.26-.63-.39-1.09-.39-.4 0-.72.07-.98.2a2.7 2.7 0 0 0-.8.68l-.7-.54c.34-.41.7-.71 1.1-.9.41-.2.88-.29 1.43-.29.5 0 .94.1 1.32.3zm8.99 6.1h-1.07v2h-.97v-2h-3.44v-.75l2.43-5.65.84.36-2.2 5.22h2.38l.08-2.34h.88v2.34h1.07V13zm7.18-1.17c0 1-.2 1.8-.62 2.4-.42.6-1.02.9-1.81.9-.69 0-1.25-.24-1.68-.72v3.01l-1.01.12V8.68h.86l.09.88c.23-.32.5-.58.83-.75.33-.18.68-.27 1.05-.27 1.53 0 2.3 1.1 2.3 3.3zm-3.41-2.18c-.27.19-.5.43-.7.72v3.13c.17.25.38.44.63.58.25.14.52.21.82.21.53 0 .92-.2 1.18-.6.26-.4.4-1.03.4-1.86 0-.83-.12-1.45-.36-1.86-.23-.4-.6-.61-1.09-.61-.32 0-.61.1-.88.29zm4.96 5.35l2.33-3.34-2.05-2.98h1.2l1.46 2.35 1.48-2.35h1.16l-2.05 2.94 2.33 3.38H146l-1.74-2.71-1.74 2.71h-1.15z"/></g></g></g></svg>