<svg xmlns="http://www.w3.org/2000/svg" xmlns:xlink="http://www.w3.org/1999/xlink" viewBox="0 0 360 360"><defs><polygon id="a" points="0 0 265 0 265 265 0 265"/><polygon id="c" points="0 0 265 0 265 265.201 0 265.201"/><path id="e" d="M221 50.43v164.69c0 15.7-11.73 28.42-26.19 28.42H70.2c-14.46 0-26.19-12.72-26.19-28.42V50.42C44 34.73 55.73 22 70.19 22H194.8C209.27 22 221 34.73 221 50.43z"/><path id="f" d="M232 58.54v147.92c0 14.1-13.18 25.54-29.44 25.54H62.44C46.18 232 33 220.57 33 206.46V58.54C33 44.44 46.18 33 62.44 33h140.12C218.82 33 232 44.43 232 58.54z"/><path id="g" d="M243 70.19V194.8c0 14.46-12.7 26.19-28.36 26.19H50.36C34.7 221 22 209.27 22 194.81V70.2C22 55.73 34.7 44 50.36 44h164.28C230.3 44 243 55.73 243 70.19z"/></defs><g fill="none" fill-rule="evenodd"><g transform="translate(51 51)"><mask id="b" fill="white"><use xlink:href="#a"/></mask><g mask="url(#b)"><mask id="d" fill="white"><use xlink:href="#c"/></mask><rect width="338" height="1" x="-1" fill="#D7D7DB" mask="url(#d)"/><rect width="338" height="1" x="-1" y="11" fill="#D7D7DB" mask="url(#d)" opacity=".3"/><rect width="338" height="1" x="-1" y="22" fill="#D7D7DB" mask="url(#d)" opacity=".3"/><rect width="338" height="1" x="-1" y="33" fill="#D7D7DB" mask="url(#d)" opacity=".3"/><rect width="338" height="1" x="-1" y="44" fill="#D7D7DB" mask="url(#d)"/><rect width="338" height="1" x="-1" y="55" fill="#D7D7DB" mask="url(#d)" opacity=".3"/><rect width="338" height="1" x="-1" y="66" fill="#D7D7DB" mask="url(#d)" opacity=".3"/><rect width="338" height="1" x="-1" y="77" fill="#D7D7DB" mask="url(#d)" opacity=".3"/><rect width="338" height="1" x="-1" y="88" fill="#D7D7DB" mask="url(#d)"/><rect width="338" height="1" x="-1" y="99" fill="#D7D7DB" mask="url(#d)" opacity=".3"/><rect width="338" height="1" x="-1" y="110" fill="#D7D7DB" mask="url(#d)" opacity=".3"/><rect width="338" height="1" x="-1" y="121" fill="#D7D7DB" mask="url(#d)" opacity=".3"/><rect width="338" height="1" x="-1" y="132" fill="#D7D7DB" mask="url(#d)"/><rect width="338" height="1" x="-1" y="143" fill="#D7D7DB" mask="url(#d)" opacity=".3"/><rect width="338" height="1" x="-1" y="154" fill="#D7D7DB" mask="url(#d)" opacity=".3"/><rect width="338" height="1" x="-1" y="165" fill="#D7D7DB" mask="url(#d)" opacity=".3"/><rect width="338" height="1" x="-1" y="176" fill="#D7D7DB" mask="url(#d)"/><rect width="338" height="1" x="-1" y="187" fill="#D7D7DB" mask="url(#d)" opacity=".3"/><rect width="338" height="1" x="-1" y="198" fill="#D7D7DB" mask="url(#d)" opacity=".3"/><rect width="338" height="1" x="-1" y="209" fill="#D7D7DB" mask="url(#d)" opacity=".3"/><rect width="338" height="1" x="-1" y="220" fill="#D7D7DB" mask="url(#d)"/><rect width="338" height="1" x="-1" y="231" fill="#D7D7DB" mask="url(#d)" opacity=".3"/><rect width="338" height="1" x="-1" y="242" fill="#D7D7DB" mask="url(#d)" opacity=".3"/><rect width="338" height="1" x="-1" y="253" fill="#D7D7DB" mask="url(#d)" opacity=".3"/><rect width="338" height="1" x="-1" y="264" fill="#D7D7DB" mask="url(#d)"/></g><g fill="#D7D7DB" mask="url(#b)"><g transform="matrix(0 -1 1 0 0 265)"><rect width="338" height="1" x="-73"/><rect width="338" height="1" x="-73" y="11" opacity=".3"/><rect width="338" height="1" x="-73" y="22" opacity=".3"/><rect width="338" height="1" x="-73" y="33" opacity=".3"/><rect width="338" height="1" x="-73" y="44"/><rect width="338" height="1" x="-73" y="55" opacity=".3"/><rect width="338" height="1" x="-73" y="66" opacity=".3"/><rect width="338" height="1" x="-73" y="77" opacity=".3"/><rect width="338" height="1" x="-73" y="88"/><rect width="338" height="1" x="-73" y="99" opacity=".3"/><rect width="338" height="1" x="-73" y="110" opacity=".3"/><rect width="338" height="1" x="-73" y="121" opacity=".3"/><rect width="338" height="1" x="-73" y="132"/><rect width="338" height="1" x="-73" y="143" opacity=".3"/><rect width="338" height="1" x="-73" y="154" opacity=".3"/><rect width="338" height="1" x="-73" y="165" opacity=".3"/><rect width="338" height="1" x="-73" y="176"/><rect width="338" height="1" x="-73" y="187" opacity=".3"/><rect width="338" height="1" x="-73" y="198" opacity=".3"/><rect width="338" height="1" x="-73" y="209" opacity=".3"/><rect width="338" height="1" x="-73" y="220"/><rect width="338" height="1" x="-73" y="231" opacity=".3"/><rect width="338" height="1" x="-73" y="242" opacity=".3"/><rect width="338" height="1" x="-73" y="253" opacity=".3"/><rect width="338" height="1" x="-73" y="264"/></g></g><rect width="209" height="209" x="28" y="28" stroke="#0C0C0D" stroke-opacity=".1" stroke-width="12"/><use fill="#FC2DD7" fill-opacity=".2" xlink:href="#e"/><path stroke="#ED00B5" d="M220.5 50.43c0-15.43-11.51-27.93-25.69-27.93H70.2C56 22.5 44.5 35 44.5 50.43v164.69c0 15.43 11.51 27.92 25.69 27.92H194.8c14.18 0 25.69-12.5 25.69-27.92V50.42z"/><use fill="#FC2DD7" fill-opacity=".2" xlink:href="#f"/><path stroke="#ED00B5" d="M231.5 58.54c0-13.81-12.94-25.04-28.94-25.04H62.44c-16 0-28.94 11.23-28.94 25.04v147.92c0 13.81 12.94 25.04 28.94 25.04h140.12c16 0 28.94-11.23 28.94-25.04V58.54z"/><g><use fill="#FC2DD7" fill-opacity=".2" xlink:href="#g"/><path stroke="#ED00B5" d="M242.5 70.19c0-14.18-12.46-25.69-27.86-25.69H50.36c-15.4 0-27.86 11.51-27.86 25.69V194.8c0 14.18 12.46 25.69 27.86 25.69h164.28c15.4 0 27.86-11.51 27.86-25.69V70.2z"/></g></g><g transform="translate(73 73)"><g transform="translate(238)"><rect width="9" height="1" x="13.61" fill="#ED00B5"/><rect width="1" height="221" x="17.56" fill="#ED00B5"/><rect width="9" height="1" x="13.56" y="220" fill="#ED00B5"/><rect width="37" height="22" y="99" fill="#ED00B5" fill-rule="nonzero" rx="2"/><path fill="#FFFFFF" d="M8.65 105.9c.38.2.67.47.87.82.2.35.3.74.3 1.18 0 .52-.11 1.01-.35 1.5-.24.47-.61 1-1.13 1.57-.52.57-1.26 1.3-2.21 2.17h3.89l-.12.86H4.98v-.82a48.03 48.03 0 0 0 2.4-2.42c.53-.58.89-1.08 1.09-1.5a3 3 0 0 0 .3-1.32c0-.46-.13-.83-.4-1.1-.26-.26-.63-.39-1.09-.39-.4 0-.72.07-.98.2a2.7 2.7 0 0 0-.8.68l-.7-.54c.34-.41.7-.71 1.1-.9.41-.2.88-.29 1.43-.29.5 0 .94.1 1.32.3zm8.26.8c.46.73.69 1.78.69 3.16a6 6 0 0 1-.69 3.17 2.23 2.23 0 0 1-2.01 1.1c-.88 0-1.55-.36-2.01-1.1a6 6 0 0 1-.69-3.17c0-1.38.23-2.43.69-3.16a2.23 2.23 0 0 1 2.01-1.1c.88 0 1.55.37 2.01 1.1zm-3.65 3.16c0 2.3.54 3.46 1.64 3.46 1.1 0 1.64-1.16 1.64-3.46s-.54-3.44-1.64-3.44c-1.1 0-1.64 1.14-1.64 3.44zm2.2-.55c.16.15.23.33.23.55 0 .22-.07.41-.23.56a.77.77 0 0 1-.56.23.75.75 0 0 1-.56-.23.78.78 0 0 1-.22-.56c0-.22.07-.4.22-.55a.75.75 0 0 1 .56-.23c.22 0 .41.08.56.23zm9.36 1.52c0 1-.2 1.8-.62 2.4-.42.6-1.02.9-1.81.9-.69 0-1.25-.24-1.68-.72v3.01l-1.01.12v-8.86h.86l.09.88c.23-.32.5-.58.83-.75.33-.18.68-.27 1.05-.27 1.53 0 2.3 1.1 2.3 3.3zm-3.41-2.18c-.27.19-.5.43-.7.72v3.13c.17.25.38.44.63.58.25.14.52.21.82.21.53 0 .92-.2 1.18-.6.26-.4.4-1.03.4-1.86 0-.83-.12-1.45-.36-1.86-.23-.4-.6-.61-1.09-.61-.32 0-.61.1-.88.29zm4.96 5.35l2.33-3.34-2.05-2.98h1.2l1.46 2.35 1.48-2.35h1.16l-2.05 2.94 2.33 3.38H31l-1.74-2.71-1.74 2.71h-1.15z"/></g><g transform="translate(0 247)"><rect width="1" height="9" x="220" y="7" fill="#ED00B5"/><rect width="221" height="1" y="11" fill="#ED00B5"/><rect width="1" height="9" y="7" fill="#ED00B5"/><rect width="37" height="22" x="93" fill="#ED00B5" fill-rule="nonzero" rx="2"/><path fill="#FFFFFF" d="M101.65 6.9c.38.2.67.47.87.82.2.35.3.74.3 1.18 0 .52-.11 1.01-.35 1.5-.24.47-.61 1-1.13 1.57-.52.57-1.26 1.3-2.21 2.17h3.89l-.12.86h-4.92v-.82a48.03 48.03 0 0 0 2.4-2.42c.53-.58.89-1.08 1.09-1.5a3 3 0 0 0 .3-1.32c0-.46-.13-.83-.4-1.1-.26-.26-.63-.39-1.09-.39-.4 0-.72.07-.98.2a2.7 2.7 0 0 0-.8.68l-.7-.54c.34-.41.7-.71 1.1-.9.41-.2.88-.29 1.43-.29.5 0 .94.1 1.32.3zm8.26.8c.46.73.69 1.78.69 3.16a6 6 0 0 1-.69 3.17 2.23 2.23 0 0 1-2.01 1.1c-.88 0-1.55-.36-2.01-1.1a6 6 0 0 1-.69-3.17c0-1.38.23-2.43.69-3.16a2.23 2.23 0 0 1 2.01-1.1c.88 0 1.55.37 2.01 1.1zm-3.65 3.16c0 2.3.54 3.46 1.64 3.46 1.1 0 1.64-1.16 1.64-3.46s-.54-3.44-1.64-3.44c-1.1 0-1.64 1.14-1.64 3.44zm2.2-.55c.16.15.23.33.23.55 0 .22-.07.41-.23.56a.77.77 0 0 1-.56.23.75.75 0 0 1-.56-.23.78.78 0 0 1-.22-.56c0-.22.07-.4.22-.55a.75.75 0 0 1 .56-.23c.22 0 .41.08.56.23zm9.36 1.52c0 1-.2 1.8-.62 2.4-.42.6-1.02.9-1.81.9-.69 0-1.25-.24-1.68-.72v3.01l-1.01.12V8.68h.86l.09.88c.23-.32.5-.58.83-.75.33-.18.68-.27 1.05-.27 1.53 0 2.3 1.1 2.3 3.3zm-3.41-2.18c-.27.19-.5.43-.7.72v3.13c.17.25.38.44.63.58.25.14.52.21.82.21.53 0 .92-.2 1.18-.6.26-.4.4-1.03.4-1.86 0-.83-.12-1.45-.36-1.86-.23-.4-.6-.61-1.09-.61-.32 0-.61.1-.88.29zm4.96 5.35l2.33-3.34-2.05-2.98h1.2l1.46 2.35 1.48-2.35h1.16l-2.05 2.94 2.33 3.38H124l-1.74-2.71-1.74 2.71h-1.15z"/></g></g></g></svg>