<svg xmlns="http://www.w3.org/2000/svg" xmlns:xlink="http://www.w3.org/1999/xlink" width="360" height="360" viewBox="0 0 360 360">
  <defs>
    <polygon id="icon-shape-dont-1-a" points="0 0 177 0 177 177 0 177"/>
    <polygon id="icon-shape-dont-1-c" points="0 0 265 0 265 265.201 0 265.201"/>
    <polygon id="icon-shape-dont-1-e" points="0 0 265 0 265 265.201 0 265.201"/>
    <path id="icon-shape-dont-1-g" d="M110.87491,152.136626 C123.381038,147.372386 132.228911,135.291637 132.228911,121.083994 L132.228911,70.463951 L88.5,26.7350397 L44.7710887,70.463951 L44.7710887,123.636265 C44.7710887,137.333453 53.7891132,148.903749 66.1250901,152.817231 L66.1250901,99.2195386 C66.1250901,93.094088 71.1445566,88.1596972 77.2700072,88.1596972 L99.6449171,88.1596972 C105.855443,88.1596972 110.789834,93.094088 110.789834,99.2195386 L110.87491,152.136626 L110.87491,152.136626 Z M22.055876,93.1791637 L18.908075,96.3269647 C14.5692141,100.665826 7.59300649,100.665826 3.25414564,96.3269647 C-1.08471521,91.9881038 -1.08471521,85.0118962 3.25414564,80.6730353 L80.6730353,3.25414564 C85.0118962,-1.08471521 91.9881038,-1.08471521 96.3269647,3.25414564 L173.745854,80.6730353 C178.084715,85.0118962 178.084715,91.9881038 173.745854,96.3269647 C171.618962,98.4538572 168.726388,99.5598414 165.91889,99.5598414 C163.111391,99.5598414 160.218818,98.4538572 158.091925,96.3269647 L154.944124,93.1791637 L154.944124,142.097693 C154.944124,161.324802 139.290195,176.978731 120.063086,176.978731 L62.8922134,176.978731 C40.3471521,176.978731 22.055876,158.687455 22.055876,136.142394 L22.055876,93.1791637 Z M94.0299207,132.739366 C97.092646,132.739366 99.5598414,130.27217 99.5598414,127.209445 C99.5598414,124.14672 97.092646,121.679524 94.0299207,121.679524 C90.9671954,121.679524 88.5,124.14672 88.5,127.209445 C88.5,130.27217 90.9671954,132.739366 94.0299207,132.739366 Z"/>
    <rect id="icon-shape-dont-1-h" width="34" height="39" x="79" y="22"/>
    <filter id="icon-shape-dont-1-i" width="102.9%" height="102.6%" x="-1.5%" y="-1.3%" filterUnits="objectBoundingBox">
      <feOffset dx="1" in="SourceAlpha" result="shadowOffsetInner1"/>
      <feComposite in="shadowOffsetInner1" in2="SourceAlpha" k2="-1" k3="1" operator="arithmetic" result="shadowInnerInner1"/>
      <feColorMatrix in="shadowInnerInner1" result="shadowMatrixInner1" values="0 0 0 0 0.917647059   0 0 0 0 0.109803922   0 0 0 0 0.705882353  0 0 0 1 0"/>
      <feOffset dx="-1" in="SourceAlpha" result="shadowOffsetInner2"/>
      <feComposite in="shadowOffsetInner2" in2="SourceAlpha" k2="-1" k3="1" operator="arithmetic" result="shadowInnerInner2"/>
      <feColorMatrix in="shadowInnerInner2" result="shadowMatrixInner2" values="0 0 0 0 0.917647059   0 0 0 0 0.109803922   0 0 0 0 0.705882353  0 0 0 1 0"/>
      <feMerge>
        <feMergeNode in="shadowMatrixInner1"/>
        <feMergeNode in="shadowMatrixInner2"/>
      </feMerge>
    </filter>
    <rect id="icon-shape-dont-1-j" width="34" height="61" x="2"/>
    <filter id="icon-shape-dont-1-k" width="102.9%" height="101.6%" x="-1.5%" y="-.8%" filterUnits="objectBoundingBox">
      <feOffset dx="1" in="SourceAlpha" result="shadowOffsetInner1"/>
      <feComposite in="shadowOffsetInner1" in2="SourceAlpha" k2="-1" k3="1" operator="arithmetic" result="shadowInnerInner1"/>
      <feColorMatrix in="shadowInnerInner1" result="shadowMatrixInner1" values="0 0 0 0 0.917647059   0 0 0 0 0.109803922   0 0 0 0 0.705882353  0 0 0 1 0"/>
      <feOffset dx="-1" in="SourceAlpha" result="shadowOffsetInner2"/>
      <feComposite in="shadowOffsetInner2" in2="SourceAlpha" k2="-1" k3="1" operator="arithmetic" result="shadowInnerInner2"/>
      <feColorMatrix in="shadowInnerInner2" result="shadowMatrixInner2" values="0 0 0 0 0.917647059   0 0 0 0 0.109803922   0 0 0 0 0.705882353  0 0 0 1 0"/>
      <feMerge>
        <feMergeNode in="shadowMatrixInner1"/>
        <feMergeNode in="shadowMatrixInner2"/>
      </feMerge>
    </filter>
  </defs>
  <g fill="none" fill-rule="evenodd" transform="translate(91 92)">
    <mask id="icon-shape-dont-1-b" fill="#fff">
      <use xlink:href="#icon-shape-dont-1-a"/>
    </mask>
    <g mask="url(#icon-shape-dont-1-b)">
      <mask id="icon-shape-dont-1-d" fill="#fff">
        <use xlink:href="#icon-shape-dont-1-c"/>
      </mask>
      <rect width="338" height="1" x="-1" fill="#D7D7DB" mask="url(#icon-shape-dont-1-d)"/>
      <rect width="338" height="1" x="-1" y="11" fill="#D7D7DB" mask="url(#icon-shape-dont-1-d)" opacity=".3"/>
      <rect width="338" height="1" x="-1" y="22" fill="#D7D7DB" mask="url(#icon-shape-dont-1-d)" opacity=".3"/>
      <rect width="338" height="1" x="-1" y="33" fill="#D7D7DB" mask="url(#icon-shape-dont-1-d)" opacity=".3"/>
      <rect width="338" height="1" x="-1" y="44" fill="#D7D7DB" mask="url(#icon-shape-dont-1-d)"/>
      <rect width="338" height="1" x="-1" y="55" fill="#D7D7DB" mask="url(#icon-shape-dont-1-d)" opacity=".3"/>
      <rect width="338" height="1" x="-1" y="66" fill="#D7D7DB" mask="url(#icon-shape-dont-1-d)" opacity=".3"/>
      <rect width="338" height="1" x="-1" y="77" fill="#D7D7DB" mask="url(#icon-shape-dont-1-d)" opacity=".3"/>
      <rect width="338" height="1" x="-1" y="88" fill="#D7D7DB" mask="url(#icon-shape-dont-1-d)"/>
      <rect width="338" height="1" x="-1" y="99" fill="#D7D7DB" mask="url(#icon-shape-dont-1-d)" opacity=".3"/>
      <rect width="338" height="1" x="-1" y="110" fill="#D7D7DB" mask="url(#icon-shape-dont-1-d)" opacity=".3"/>
      <rect width="338" height="1" x="-1" y="121" fill="#D7D7DB" mask="url(#icon-shape-dont-1-d)" opacity=".3"/>
      <rect width="338" height="1" x="-1" y="132" fill="#D7D7DB" mask="url(#icon-shape-dont-1-d)"/>
      <rect width="338" height="1" x="-1" y="143" fill="#D7D7DB" mask="url(#icon-shape-dont-1-d)" opacity=".3"/>
      <rect width="338" height="1" x="-1" y="154" fill="#D7D7DB" mask="url(#icon-shape-dont-1-d)" opacity=".3"/>
      <rect width="338" height="1" x="-1" y="165" fill="#D7D7DB" mask="url(#icon-shape-dont-1-d)" opacity=".3"/>
      <rect width="338" height="1" x="-1" y="176" fill="#D7D7DB" mask="url(#icon-shape-dont-1-d)"/>
    </g>
    <g mask="url(#icon-shape-dont-1-b)">
      <g transform="matrix(0 -1 1 0 0 265)">
        <mask id="icon-shape-dont-1-f" fill="#fff">
          <use xlink:href="#icon-shape-dont-1-e"/>
        </mask>
        <rect width="338" height="1" x="-73" fill="#D7D7DB" mask="url(#icon-shape-dont-1-f)"/>
        <rect width="338" height="1" x="-73" y="11" fill="#D7D7DB" mask="url(#icon-shape-dont-1-f)" opacity=".3"/>
        <rect width="338" height="1" x="-73" y="22" fill="#D7D7DB" mask="url(#icon-shape-dont-1-f)" opacity=".3"/>
        <rect width="338" height="1" x="-73" y="33" fill="#D7D7DB" mask="url(#icon-shape-dont-1-f)" opacity=".3"/>
        <rect width="338" height="1" x="-73" y="44" fill="#D7D7DB" mask="url(#icon-shape-dont-1-f)"/>
        <rect width="338" height="1" x="-73" y="55" fill="#D7D7DB" mask="url(#icon-shape-dont-1-f)" opacity=".3"/>
        <rect width="338" height="1" x="-73" y="66" fill="#D7D7DB" mask="url(#icon-shape-dont-1-f)" opacity=".3"/>
        <rect width="338" height="1" x="-73" y="77" fill="#D7D7DB" mask="url(#icon-shape-dont-1-f)" opacity=".3"/>
        <rect width="338" height="1" x="-73" y="88" fill="#D7D7DB" mask="url(#icon-shape-dont-1-f)"/>
        <rect width="338" height="1" x="-73" y="99" fill="#D7D7DB" mask="url(#icon-shape-dont-1-f)" opacity=".3"/>
        <rect width="338" height="1" x="-73" y="110" fill="#D7D7DB" mask="url(#icon-shape-dont-1-f)" opacity=".3"/>
        <rect width="338" height="1" x="-73" y="121" fill="#D7D7DB" mask="url(#icon-shape-dont-1-f)" opacity=".3"/>
        <rect width="338" height="1" x="-73" y="132" fill="#D7D7DB" mask="url(#icon-shape-dont-1-f)"/>
        <rect width="338" height="1" x="-73" y="143" fill="#D7D7DB" mask="url(#icon-shape-dont-1-f)" opacity=".3"/>
        <rect width="338" height="1" x="-73" y="154" fill="#D7D7DB" mask="url(#icon-shape-dont-1-f)" opacity=".3"/>
        <rect width="338" height="1" x="-73" y="165" fill="#D7D7DB" mask="url(#icon-shape-dont-1-f)" opacity=".3"/>
        <rect width="338" height="1" x="-73" y="176" fill="#D7D7DB" mask="url(#icon-shape-dont-1-f)"/>
      </g>
    </g>
    <rect width="165" height="165" x="6" y="6" stroke="#0C0C0D" stroke-opacity=".1" stroke-width="12"/>
    <g>
      <g fill-rule="nonzero">
        <use fill="#FFF" fill-rule="evenodd" xlink:href="#icon-shape-dont-1-g"/>
        <use fill="#0C0C0D" fill-opacity=".8" fill-rule="evenodd" xlink:href="#icon-shape-dont-1-g"/>
      </g>
      <path stroke="#EA1CB4" stroke-width="2" d="M121.558061,111.963756 C103.768504,111.963756 89.3680622,126.364198 89.3680622,144.153755 C89.3680622,161.943311 103.768504,176.343753 121.558061,176.343753 C139.347617,176.343753 153.748059,161.943311 153.748059,144.153755 C153.748059,126.364198 139.347617,111.963756 121.558061,111.963756 Z"/>
      <path stroke="#EA1CB4" stroke-width="2" d="M76.6728934,89.2149522 C58.8833368,89.2149522 44.4828947,103.615394 44.4828947,121.404951 C44.4828947,139.194507 58.8833368,153.594949 76.6728934,153.594949 C94.46245,153.594949 108.862892,139.194507 108.862892,121.404951 C108.862892,103.615394 94.46245,89.2149522 76.6728934,89.2149522 Z"/>
    </g>
    <g transform="translate(42 122)">
      <use fill="#FC2DD7" fill-opacity=".25" xlink:href="#icon-shape-dont-1-h"/>
      <use fill="#000" filter="url(#icon-shape-dont-1-i)" xlink:href="#icon-shape-dont-1-h"/>
      <use fill="#FC2DD7" fill-opacity=".25" xlink:href="#icon-shape-dont-1-j"/>
      <use fill="#000" filter="url(#icon-shape-dont-1-k)" xlink:href="#icon-shape-dont-1-j"/>
      <g transform="translate(77 63)">
        <rect width="1.045" height="9" x="35" fill="#EA1CB4"/>
        <rect width="33" height="1" x="3" y="4" fill="#EA1CB4"/>
        <rect width="1.045" height="9" x="2" fill="#EA1CB4"/>
        <rect width="38" height="22" y="12" fill="#EA1CB4" fill-rule="nonzero" rx="2"/>
        <path fill="#FFF" d="M13.0001086,18.834 C13.4001106,19.0220009 13.7081075,19.2759984 13.9241086,19.596 C14.1401097,19.9160016 14.2481086,20.2679981 14.2481086,20.652 C14.2481086,21.1480025 14.0941101,21.5679983 13.7861086,21.912 C13.4781071,22.2560017 13.084111,22.4839994 12.6041086,22.596 C13.1641114,22.6520003 13.6221068,22.8519983 13.9781086,23.196 C14.3341104,23.5400017 14.5121086,24.0199969 14.5121086,24.636 C14.5121086,25.1080024 14.3881098,25.5359981 14.1401086,25.92 C13.8921074,26.3040019 13.5401109,26.6059989 13.0841086,26.826 C12.6281063,27.0460011 12.1041116,27.156 11.5121086,27.156 C10.9761059,27.156 10.472111,27.058001 10.0001086,26.862 C9.52810624,26.665999 9.13611016,26.3800019 8.8241086,26.004 L9.6521086,25.284 C9.87610972,25.5560014 10.144107,25.7599993 10.4561086,25.896 C10.7681102,26.0320007 11.0961069,26.1 11.4401086,26.1 C11.9601112,26.1 12.3701071,25.9640014 12.6701086,25.692 C12.9701101,25.4199986 13.1201086,25.0520023 13.1201086,24.588 C13.1201086,23.6199952 12.584114,23.136 11.5121086,23.136 L10.8041086,23.136 L10.9601086,22.152 L11.4641086,22.152 C11.8801107,22.152 12.2261072,22.0400011 12.5021086,21.816 C12.77811,21.5919989 12.9161086,21.2680021 12.9161086,20.844 C12.9161086,20.451998 12.7841099,20.1460011 12.5201086,19.926 C12.2561073,19.7059989 11.9121107,19.596 11.4881086,19.596 C11.1521069,19.596 10.84811,19.6559994 10.5761086,19.776 C10.3041072,19.8960006 10.0361099,20.0839987 9.7721086,20.34 L9.0641086,19.572 C9.76811212,18.8919966 10.6121037,18.552 11.5961086,18.552 C12.1321113,18.552 12.6001066,18.6459991 13.0001086,18.834 Z M22.0241086,23.82 C22.0241086,24.820005 21.8121107,25.6259969 21.3881086,26.238 C20.9641065,26.8500031 20.3601125,27.156 19.5761086,27.156 C18.9121053,27.156 18.3761106,26.9240023 17.9681086,26.46 L17.9681086,29.436 L16.6241086,29.592 L16.6241086,20.664 L17.7881086,20.664 L17.8721086,21.48 C18.1121098,21.1599984 18.390107,20.9160008 18.7061086,20.748 C19.0221102,20.5799992 19.3601068,20.496 19.7201086,20.496 C21.2561163,20.496 22.0241086,21.6039889 22.0241086,23.82 Z M18.5801086,21.78 C18.3481074,21.9480008 18.1441095,22.1679986 17.9681086,22.44 L17.9681086,25.404 C18.2801102,25.8760024 18.696106,26.112 19.2161086,26.112 C19.6801109,26.112 20.0281074,25.9280018 20.2601086,25.56 C20.4921098,25.1919982 20.6081086,24.6160039 20.6081086,23.832 C20.6081086,23.023996 20.5041096,22.4380018 20.2961086,22.074 C20.0881076,21.7099982 19.7721107,21.528 19.3481086,21.528 C19.0681072,21.528 18.8121098,21.6119992 18.5801086,21.78 Z M23.2721086,27 L25.5521086,23.664 L23.5241086,20.664 L25.0721086,20.664 L26.3681086,22.896 L27.6641086,20.664 L29.1401086,20.664 L27.1601086,23.604 L29.4401086,27 L27.8681086,27 L26.3081086,24.408 L24.7601086,27 L23.2721086,27 Z"/>
        <polygon fill="#ED00B5" points="16 13 20 9 24 13 20 17"/>
      </g>
      <g transform="translate(0 63)">
        <rect width="1.045" height="9" x="35" fill="#EA1CB4"/>
        <rect width="33" height="1" x="3" y="4" fill="#EA1CB4"/>
        <rect width="1.045" height="9" x="2" fill="#EA1CB4"/>
        <rect width="38" height="22" y="12" fill="#EA1CB4" fill-rule="nonzero" rx="2"/>
        <path fill="#FFF" d="M13.0001086,18.834 C13.4001106,19.0220009 13.7081075,19.2759984 13.9241086,19.596 C14.1401097,19.9160016 14.2481086,20.2679981 14.2481086,20.652 C14.2481086,21.1480025 14.0941101,21.5679983 13.7861086,21.912 C13.4781071,22.2560017 13.084111,22.4839994 12.6041086,22.596 C13.1641114,22.6520003 13.6221068,22.8519983 13.9781086,23.196 C14.3341104,23.5400017 14.5121086,24.0199969 14.5121086,24.636 C14.5121086,25.1080024 14.3881098,25.5359981 14.1401086,25.92 C13.8921074,26.3040019 13.5401109,26.6059989 13.0841086,26.826 C12.6281063,27.0460011 12.1041116,27.156 11.5121086,27.156 C10.9761059,27.156 10.472111,27.058001 10.0001086,26.862 C9.52810624,26.665999 9.13611016,26.3800019 8.8241086,26.004 L9.6521086,25.284 C9.87610972,25.5560014 10.144107,25.7599993 10.4561086,25.896 C10.7681102,26.0320007 11.0961069,26.1 11.4401086,26.1 C11.9601112,26.1 12.3701071,25.9640014 12.6701086,25.692 C12.9701101,25.4199986 13.1201086,25.0520023 13.1201086,24.588 C13.1201086,23.6199952 12.584114,23.136 11.5121086,23.136 L10.8041086,23.136 L10.9601086,22.152 L11.4641086,22.152 C11.8801107,22.152 12.2261072,22.0400011 12.5021086,21.816 C12.77811,21.5919989 12.9161086,21.2680021 12.9161086,20.844 C12.9161086,20.451998 12.7841099,20.1460011 12.5201086,19.926 C12.2561073,19.7059989 11.9121107,19.596 11.4881086,19.596 C11.1521069,19.596 10.84811,19.6559994 10.5761086,19.776 C10.3041072,19.8960006 10.0361099,20.0839987 9.7721086,20.34 L9.0641086,19.572 C9.76811212,18.8919966 10.6121037,18.552 11.5961086,18.552 C12.1321113,18.552 12.6001066,18.6459991 13.0001086,18.834 Z M22.0241086,23.82 C22.0241086,24.820005 21.8121107,25.6259969 21.3881086,26.238 C20.9641065,26.8500031 20.3601125,27.156 19.5761086,27.156 C18.9121053,27.156 18.3761106,26.9240023 17.9681086,26.46 L17.9681086,29.436 L16.6241086,29.592 L16.6241086,20.664 L17.7881086,20.664 L17.8721086,21.48 C18.1121098,21.1599984 18.390107,20.9160008 18.7061086,20.748 C19.0221102,20.5799992 19.3601068,20.496 19.7201086,20.496 C21.2561163,20.496 22.0241086,21.6039889 22.0241086,23.82 Z M18.5801086,21.78 C18.3481074,21.9480008 18.1441095,22.1679986 17.9681086,22.44 L17.9681086,25.404 C18.2801102,25.8760024 18.696106,26.112 19.2161086,26.112 C19.6801109,26.112 20.0281074,25.9280018 20.2601086,25.56 C20.4921098,25.1919982 20.6081086,24.6160039 20.6081086,23.832 C20.6081086,23.023996 20.5041096,22.4380018 20.2961086,22.074 C20.0881076,21.7099982 19.7721107,21.528 19.3481086,21.528 C19.0681072,21.528 18.8121098,21.6119992 18.5801086,21.78 Z M23.2721086,27 L25.5521086,23.664 L23.5241086,20.664 L25.0721086,20.664 L26.3681086,22.896 L27.6641086,20.664 L29.1401086,20.664 L27.1601086,23.604 L29.4401086,27 L27.8681086,27 L26.3081086,24.408 L24.7601086,27 L23.2721086,27 Z"/>
        <polygon fill="#ED00B5" points="16 13 20 9 24 13 20 17"/>
      </g>
    </g>
  </g>
</svg>
