<svg xmlns="http://www.w3.org/2000/svg" xmlns:xlink="http://www.w3.org/1999/xlink" width="360" height="360" viewBox="0 0 360 360">
  <defs>
    <polygon id="icon-grid-24-a" points="0 0 265 0 265 265 0 265"/>
    <polygon id="icon-grid-24-c" points="0 0 265 0 265 265.201 0 265.201"/>
    <polygon id="icon-grid-24-e" points="0 0 265 0 265 265 0 265"/>
    <path id="icon-grid-24-g" d="M243,34.2763974 L243,231.267548 C243,250.047673 228.360168,265.271973 210.30102,265.271973 L54.6989796,265.271973 C36.6398318,265.271973 22,250.047673 22,231.267548 L22,34.2763974 C22,15.4962722 36.6398318,0.271972656 54.6989796,0.271972656 L210.30102,0.271972656 C228.360168,0.271972656 243,15.4962722 243,34.2763974 Z"/>
    <filter id="icon-grid-24-h" width="100.5%" height="100.4%" x="-.2%" y="-.2%" filterUnits="objectBoundingBox">
      <feOffset dx="1" in="SourceAlpha" result="shadowOffsetInner1"/>
      <feComposite in="shadowOffsetInner1" in2="SourceAlpha" k2="-1" k3="1" operator="arithmetic" result="shadowInnerInner1"/>
      <feColorMatrix in="shadowInnerInner1" result="shadowMatrixInner1" values="0 0 0 0 0.917647059   0 0 0 0 0.109803922   0 0 0 0 0.705882353  0 0 0 1 0"/>
      <feOffset dx="-1" in="SourceAlpha" result="shadowOffsetInner2"/>
      <feComposite in="shadowOffsetInner2" in2="SourceAlpha" k2="-1" k3="1" operator="arithmetic" result="shadowInnerInner2"/>
      <feColorMatrix in="shadowInnerInner2" result="shadowMatrixInner2" values="0 0 0 0 0.917647059   0 0 0 0 0.109803922   0 0 0 0 0.705882353  0 0 0 1 0"/>
      <feMerge>
        <feMergeNode in="shadowMatrixInner1"/>
        <feMergeNode in="shadowMatrixInner2"/>
      </feMerge>
    </filter>
    <path id="icon-grid-24-i" d="M254,42.1814159 L254,222.818584 C254,240.039605 237.902809,254 218.045918,254 L46.9540816,254 C27.0971907,254 11,240.039605 11,222.818584 L11,42.1814159 C11,24.9603954 27.0971907,11 46.9540816,11 L218.045918,11 C237.902809,11 254,24.9603954 254,42.1814159 Z"/>
    <filter id="icon-grid-24-j" width="100.4%" height="100.4%" x="-.2%" y="-.2%" filterUnits="objectBoundingBox">
      <feOffset dx="1" in="SourceAlpha" result="shadowOffsetInner1"/>
      <feComposite in="shadowOffsetInner1" in2="SourceAlpha" k2="-1" k3="1" operator="arithmetic" result="shadowInnerInner1"/>
      <feColorMatrix in="shadowInnerInner1" result="shadowMatrixInner1" values="0 0 0 0 0.917647059   0 0 0 0 0.109803922   0 0 0 0 0.705882353  0 0 0 1 0"/>
      <feOffset dx="-1" in="SourceAlpha" result="shadowOffsetInner2"/>
      <feComposite in="shadowOffsetInner2" in2="SourceAlpha" k2="-1" k3="1" operator="arithmetic" result="shadowInnerInner2"/>
      <feColorMatrix in="shadowInnerInner2" result="shadowMatrixInner2" values="0 0 0 0 0.917647059   0 0 0 0 0.109803922   0 0 0 0 0.705882353  0 0 0 1 0"/>
      <feMerge>
        <feMergeNode in="shadowMatrixInner1"/>
        <feMergeNode in="shadowMatrixInner2"/>
      </feMerge>
    </filter>
    <path id="icon-grid-24-k" d="M265,54.6989796 L265,210.30102 C265,228.360168 249.7757,243 230.995575,243 L34.0044248,243 C15.2242995,243 3.33263407e-14,228.360168 0,210.30102 L9.99790221e-14,54.6989796 C3.33263407e-14,36.6398318 15.2242995,22 34.0044248,22 L230.995575,22 C249.7757,22 265,36.6398318 265,54.6989796 Z"/>
    <filter id="icon-grid-24-l" width="100.4%" height="100.5%" x="-.2%" y="-.2%" filterUnits="objectBoundingBox">
      <feOffset dx="1" in="SourceAlpha" result="shadowOffsetInner1"/>
      <feComposite in="shadowOffsetInner1" in2="SourceAlpha" k2="-1" k3="1" operator="arithmetic" result="shadowInnerInner1"/>
      <feColorMatrix in="shadowInnerInner1" result="shadowMatrixInner1" values="0 0 0 0 0.917647059   0 0 0 0 0.109803922   0 0 0 0 0.705882353  0 0 0 1 0"/>
      <feOffset dx="-1" in="SourceAlpha" result="shadowOffsetInner2"/>
      <feComposite in="shadowOffsetInner2" in2="SourceAlpha" k2="-1" k3="1" operator="arithmetic" result="shadowInnerInner2"/>
      <feColorMatrix in="shadowInnerInner2" result="shadowMatrixInner2" values="0 0 0 0 0.917647059   0 0 0 0 0.109803922   0 0 0 0 0.705882353  0 0 0 1 0"/>
      <feMerge>
        <feMergeNode in="shadowMatrixInner1"/>
        <feMergeNode in="shadowMatrixInner2"/>
      </feMerge>
    </filter>
  </defs>
  <g fill="none" fill-rule="evenodd">
    <g transform="translate(51 51)">
      <mask id="icon-grid-24-b" fill="#fff">
        <use xlink:href="#icon-grid-24-a"/>
      </mask>
      <g mask="url(#icon-grid-24-b)">
        <mask id="icon-grid-24-d" fill="#fff">
          <use xlink:href="#icon-grid-24-c"/>
        </mask>
        <rect width="338" height="1" x="-1" fill="#D7D7DB" mask="url(#icon-grid-24-d)"/>
        <rect width="338" height="1" x="-1" y="11" fill="#D7D7DB" mask="url(#icon-grid-24-d)" opacity=".3"/>
        <rect width="338" height="1" x="-1" y="22" fill="#D7D7DB" mask="url(#icon-grid-24-d)" opacity=".3"/>
        <rect width="338" height="1" x="-1" y="33" fill="#D7D7DB" mask="url(#icon-grid-24-d)" opacity=".3"/>
        <rect width="338" height="1" x="-1" y="44" fill="#D7D7DB" mask="url(#icon-grid-24-d)"/>
        <rect width="338" height="1" x="-1" y="55" fill="#D7D7DB" mask="url(#icon-grid-24-d)" opacity=".3"/>
        <rect width="338" height="1" x="-1" y="66" fill="#D7D7DB" mask="url(#icon-grid-24-d)" opacity=".3"/>
        <rect width="338" height="1" x="-1" y="77" fill="#D7D7DB" mask="url(#icon-grid-24-d)" opacity=".3"/>
        <rect width="338" height="1" x="-1" y="88" fill="#D7D7DB" mask="url(#icon-grid-24-d)"/>
        <rect width="338" height="1" x="-1" y="99" fill="#D7D7DB" mask="url(#icon-grid-24-d)" opacity=".3"/>
        <rect width="338" height="1" x="-1" y="110" fill="#D7D7DB" mask="url(#icon-grid-24-d)" opacity=".3"/>
        <rect width="338" height="1" x="-1" y="121" fill="#D7D7DB" mask="url(#icon-grid-24-d)" opacity=".3"/>
        <rect width="338" height="1" x="-1" y="132" fill="#D7D7DB" mask="url(#icon-grid-24-d)"/>
        <rect width="338" height="1" x="-1" y="143" fill="#D7D7DB" mask="url(#icon-grid-24-d)" opacity=".3"/>
        <rect width="338" height="1" x="-1" y="154" fill="#D7D7DB" mask="url(#icon-grid-24-d)" opacity=".3"/>
        <rect width="338" height="1" x="-1" y="165" fill="#D7D7DB" mask="url(#icon-grid-24-d)" opacity=".3"/>
        <rect width="338" height="1" x="-1" y="176" fill="#D7D7DB" mask="url(#icon-grid-24-d)"/>
        <rect width="338" height="1" x="-1" y="187" fill="#D7D7DB" mask="url(#icon-grid-24-d)" opacity=".3"/>
        <rect width="338" height="1" x="-1" y="198" fill="#D7D7DB" mask="url(#icon-grid-24-d)" opacity=".3"/>
        <rect width="338" height="1" x="-1" y="209" fill="#D7D7DB" mask="url(#icon-grid-24-d)" opacity=".3"/>
        <rect width="338" height="1" x="-1" y="220" fill="#D7D7DB" mask="url(#icon-grid-24-d)"/>
        <rect width="338" height="1" x="-1" y="231" fill="#D7D7DB" mask="url(#icon-grid-24-d)" opacity=".3"/>
        <rect width="338" height="1" x="-1" y="242" fill="#D7D7DB" mask="url(#icon-grid-24-d)" opacity=".3"/>
        <rect width="338" height="1" x="-1" y="253" fill="#D7D7DB" mask="url(#icon-grid-24-d)" opacity=".3"/>
        <rect width="338" height="1" x="-1" y="264" fill="#D7D7DB" mask="url(#icon-grid-24-d)"/>
      </g>
      <g mask="url(#icon-grid-24-b)">
        <g transform="matrix(0 -1 1 0 0 265)">
          <mask id="icon-grid-24-f" fill="#fff">
            <use xlink:href="#icon-grid-24-e"/>
          </mask>
          <rect width="338" height="1" x="-73" fill="#D7D7DB" mask="url(#icon-grid-24-f)"/>
          <rect width="338" height="1" x="-73" y="11" fill="#D7D7DB" mask="url(#icon-grid-24-f)" opacity=".3"/>
          <rect width="338" height="1" x="-73" y="22" fill="#D7D7DB" mask="url(#icon-grid-24-f)" opacity=".3"/>
          <rect width="338" height="1" x="-73" y="33" fill="#D7D7DB" mask="url(#icon-grid-24-f)" opacity=".3"/>
          <rect width="338" height="1" x="-73" y="44" fill="#D7D7DB" mask="url(#icon-grid-24-f)"/>
          <rect width="338" height="1" x="-73" y="55" fill="#D7D7DB" mask="url(#icon-grid-24-f)" opacity=".3"/>
          <rect width="338" height="1" x="-73" y="66" fill="#D7D7DB" mask="url(#icon-grid-24-f)" opacity=".3"/>
          <rect width="338" height="1" x="-73" y="77" fill="#D7D7DB" mask="url(#icon-grid-24-f)" opacity=".3"/>
          <rect width="338" height="1" x="-73" y="88" fill="#D7D7DB" mask="url(#icon-grid-24-f)"/>
          <rect width="338" height="1" x="-73" y="99" fill="#D7D7DB" mask="url(#icon-grid-24-f)" opacity=".3"/>
          <rect width="338" height="1" x="-73" y="110" fill="#D7D7DB" mask="url(#icon-grid-24-f)" opacity=".3"/>
          <rect width="338" height="1" x="-73" y="121" fill="#D7D7DB" mask="url(#icon-grid-24-f)" opacity=".3"/>
          <rect width="338" height="1" x="-73" y="132" fill="#D7D7DB" mask="url(#icon-grid-24-f)"/>
          <rect width="338" height="1" x="-73" y="143" fill="#D7D7DB" mask="url(#icon-grid-24-f)" opacity=".3"/>
          <rect width="338" height="1" x="-73" y="154" fill="#D7D7DB" mask="url(#icon-grid-24-f)" opacity=".3"/>
          <rect width="338" height="1" x="-73" y="165" fill="#D7D7DB" mask="url(#icon-grid-24-f)" opacity=".3"/>
          <rect width="338" height="1" x="-73" y="176" fill="#D7D7DB" mask="url(#icon-grid-24-f)"/>
          <rect width="338" height="1" x="-73" y="187" fill="#D7D7DB" mask="url(#icon-grid-24-f)" opacity=".3"/>
          <rect width="338" height="1" x="-73" y="198" fill="#D7D7DB" mask="url(#icon-grid-24-f)" opacity=".3"/>
          <rect width="338" height="1" x="-73" y="209" fill="#D7D7DB" mask="url(#icon-grid-24-f)" opacity=".3"/>
          <rect width="338" height="1" x="-73" y="220" fill="#D7D7DB" mask="url(#icon-grid-24-f)"/>
          <rect width="338" height="1" x="-73" y="231" fill="#D7D7DB" mask="url(#icon-grid-24-f)" opacity=".3"/>
          <rect width="338" height="1" x="-73" y="242" fill="#D7D7DB" mask="url(#icon-grid-24-f)" opacity=".3"/>
          <rect width="338" height="1" x="-73" y="253" fill="#D7D7DB" mask="url(#icon-grid-24-f)" opacity=".3"/>
          <rect width="338" height="1" x="-73" y="264" fill="#D7D7DB" mask="url(#icon-grid-24-f)"/>
        </g>
      </g>
      <rect width="253" height="253" x="6" y="6" stroke="#0C0C0D" stroke-opacity=".1" stroke-width="12"/>
      <use fill="#FC2DD7" fill-opacity=".25" xlink:href="#icon-grid-24-g"/>
      <use fill="#000" filter="url(#icon-grid-24-h)" xlink:href="#icon-grid-24-g"/>
      <use fill="#FC2DD7" fill-opacity=".25" xlink:href="#icon-grid-24-i"/>
      <use fill="#000" filter="url(#icon-grid-24-j)" xlink:href="#icon-grid-24-i"/>
      <g>
        <use fill="#FC2DD7" fill-opacity=".25" xlink:href="#icon-grid-24-k"/>
        <use fill="#000" filter="url(#icon-grid-24-l)" xlink:href="#icon-grid-24-k"/>
      </g>
    </g>
    <g transform="translate(51 51)">
      <g transform="translate(260)">
        <rect width="1" height="263" x="18" y="1" fill="#EA1CB4"/>
        <rect width="9" height="1" x="14" fill="#EA1CB4"/>
        <rect width="9" height="1" x="14" y="264" fill="#EA1CB4"/>
        <rect width="37" height="22" y="121" fill="#EA1CB4" fill-rule="nonzero" rx="2"/>
        <path fill="#FFF" d="M8.774,127.864 C9.17000198,128.072001 9.47199896,128.351998 9.68,128.704 C9.88800104,129.056002 9.992,129.451998 9.992,129.892 C9.992,130.380002 9.88000112,130.853998 9.656,131.314 C9.43199888,131.774002 9.06800252,132.281997 8.564,132.838 C8.05999748,133.394003 7.3480046,134.087996 6.428,134.92 L10.184,134.92 L10.04,136 L4.892,136 L4.892,134.98 C5.9320052,133.979995 6.70799744,133.198003 7.22,132.634 C7.73200256,132.069997 8.09199896,131.588002 8.3,131.188 C8.50800104,130.787998 8.612,130.384002 8.612,129.976 C8.612,129.559998 8.4920012,129.232001 8.252,128.992 C8.0119988,128.751999 7.68400208,128.632 7.268,128.632 C6.9079982,128.632 6.60200126,128.697999 6.35,128.83 C6.09799874,128.962001 5.84400128,129.183998 5.588,129.496 L4.724,128.824 C5.05200164,128.399998 5.42799788,128.082001 5.852,127.87 C6.27600212,127.657999 6.77999708,127.552 7.364,127.552 C7.90800272,127.552 8.37799802,127.655999 8.774,127.864 Z M17.756,134.092 L16.772,134.092 L16.772,136 L15.476,136 L15.476,134.092 L12.044,134.092 L12.044,133.156 L14.42,127.552 L15.548,127.996 L13.448,133.048 L15.488,133.048 L15.62,130.84 L16.772,130.84 L16.772,133.048 L17.756,133.048 L17.756,134.092 Z M24.968,132.82 C24.968,133.820005 24.7560021,134.625997 24.332,135.238 C23.9079979,135.850003 23.3040039,136.156 22.52,136.156 C21.8559967,136.156 21.320002,135.924002 20.912,135.46 L20.912,138.436 L19.568,138.592 L19.568,129.664 L20.732,129.664 L20.816,130.48 C21.0560012,130.159998 21.3339984,129.916001 21.65,129.748 C21.9660016,129.579999 22.3039982,129.496 22.664,129.496 C24.2000077,129.496 24.968,130.603989 24.968,132.82 Z M21.524,130.78 C21.2919988,130.948001 21.0880009,131.167999 20.912,131.44 L20.912,134.404 C21.2240016,134.876002 21.6399974,135.112 22.16,135.112 C22.6240023,135.112 22.9719988,134.928002 23.204,134.56 C23.4360012,134.191998 23.552,133.616004 23.552,132.832 C23.552,132.023996 23.448001,131.438002 23.24,131.074 C23.031999,130.709998 22.7160021,130.528 22.292,130.528 C22.0119986,130.528 21.7560012,130.611999 21.524,130.78 Z M26.216,136 L28.496,132.664 L26.468,129.664 L28.016,129.664 L29.312,131.896 L30.608,129.664 L32.084,129.664 L30.104,132.604 L32.384,136 L30.812,136 L29.252,133.408 L27.704,136 L26.216,136 Z"/>
      </g>
      <g transform="translate(0 269)">
        <rect width="1" height="9" x="264" y="7" fill="#EA1CB4"/>
        <rect width="263" height="1" x="1" y="11" fill="#EA1CB4"/>
        <rect width="1" height="9" y="7" fill="#EA1CB4"/>
        <rect width="37" height="22" x="115" fill="#EA1CB4" fill-rule="nonzero" rx="2"/>
        <path fill="#FFF" d="M123.774,6.864 C124.170002,7.07200104 124.471999,7.35199824 124.68,7.704 C124.888001,8.05600176 124.992,8.4519978 124.992,8.892 C124.992,9.38000244 124.880001,9.8539977 124.656,10.314 C124.431999,10.7740023 124.068003,11.2819972 123.564,11.838 C123.059997,12.3940028 122.348005,13.0879958 121.428,13.92 L125.184,13.92 L125.04,15 L119.892,15 L119.892,13.98 C120.932005,12.979995 121.707997,12.1980028 122.22,11.634 C122.732003,11.0699972 123.091999,10.588002 123.3,10.188 C123.508001,9.787998 123.612,9.38400204 123.612,8.976 C123.612,8.55999792 123.492001,8.2320012 123.252,7.992 C123.011999,7.7519988 122.684002,7.632 122.268,7.632 C121.907998,7.632 121.602001,7.69799934 121.35,7.83 C121.097999,7.96200066 120.844001,8.18399844 120.588,8.496 L119.724,7.824 C120.052002,7.39999788 120.427998,7.08200106 120.852,6.87 C121.276002,6.65799894 121.779997,6.552 122.364,6.552 C122.908003,6.552 123.377998,6.65599896 123.774,6.864 Z M132.756,13.092 L131.772,13.092 L131.772,15 L130.476,15 L130.476,13.092 L127.044,13.092 L127.044,12.156 L129.42,6.552 L130.548,6.996 L128.448,12.048 L130.488,12.048 L130.62,9.84 L131.772,9.84 L131.772,12.048 L132.756,12.048 L132.756,13.092 Z M139.968,11.82 C139.968,12.820005 139.756002,13.6259969 139.332,14.238 C138.907998,14.8500031 138.304004,15.156 137.52,15.156 C136.855997,15.156 136.320002,14.9240023 135.912,14.46 L135.912,17.436 L134.568,17.592 L134.568,8.664 L135.732,8.664 L135.816,9.48 C136.056001,9.1599984 136.333998,8.91600084 136.65,8.748 C136.966002,8.57999916 137.303998,8.496 137.664,8.496 C139.200008,8.496 139.968,9.60398892 139.968,11.82 Z M136.524,9.78 C136.291999,9.94800084 136.088001,10.1679986 135.912,10.44 L135.912,13.404 C136.224002,13.8760024 136.639997,14.112 137.16,14.112 C137.624002,14.112 137.971999,13.9280018 138.204,13.56 C138.436001,13.1919982 138.552,12.6160039 138.552,11.832 C138.552,11.023996 138.448001,10.4380018 138.24,10.074 C138.031999,9.70999818 137.716002,9.528 137.292,9.528 C137.011999,9.528 136.756001,9.61199916 136.524,9.78 Z M141.216,15 L143.496,11.664 L141.468,8.664 L143.016,8.664 L144.312,10.896 L145.608,8.664 L147.084,8.664 L145.104,11.604 L147.384,15 L145.812,15 L144.252,12.408 L142.704,15 L141.216,15 Z"/>
      </g>
    </g>
  </g>
</svg>
