<svg xmlns="http://www.w3.org/2000/svg" xmlns:xlink="http://www.w3.org/1999/xlink" width="360" height="360" viewBox="0 0 360 360">
  <defs>
    <polygon id="icon-shape-stroke-1-a" points="0 0 177 0 177 177 0 177"/>
    <polygon id="icon-shape-stroke-1-c" points="0 0 265 0 265 265.201 0 265.201"/>
    <polygon id="icon-shape-stroke-1-e" points="0 0 265 0 265 265.201 0 265.201"/>
    <rect id="icon-shape-stroke-1-g" width="23" height="155" rx="11.5"/>
    <rect id="icon-shape-stroke-1-h" width="12" height="155" x="66" rx="6"/>
    <rect id="icon-shape-stroke-1-i" width="23" height="177" x="14" y="39"/>
    <filter id="icon-shape-stroke-1-j" width="104.3%" height="100.6%" x="-2.2%" y="-.3%" filterUnits="objectBoundingBox">
      <feOffset dx="1" in="SourceAlpha" result="shadowOffsetInner1"/>
      <feComposite in="shadowOffsetInner1" in2="SourceAlpha" k2="-1" k3="1" operator="arithmetic" result="shadowInnerInner1"/>
      <feColorMatrix in="shadowInnerInner1" result="shadowMatrixInner1" values="0 0 0 0 0.917647059   0 0 0 0 0.109803922   0 0 0 0 0.705882353  0 0 0 1 0"/>
      <feOffset dx="-1" in="SourceAlpha" result="shadowOffsetInner2"/>
      <feComposite in="shadowOffsetInner2" in2="SourceAlpha" k2="-1" k3="1" operator="arithmetic" result="shadowInnerInner2"/>
      <feColorMatrix in="shadowInnerInner2" result="shadowMatrixInner2" values="0 0 0 0 0.917647059   0 0 0 0 0.109803922   0 0 0 0 0.705882353  0 0 0 1 0"/>
      <feMerge>
        <feMergeNode in="shadowMatrixInner1"/>
        <feMergeNode in="shadowMatrixInner2"/>
      </feMerge>
    </filter>
    <rect id="icon-shape-stroke-1-k" width="12" height="177" x="80" y="39"/>
    <filter id="icon-shape-stroke-1-l" width="108.3%" height="100.6%" x="-4.2%" y="-.3%" filterUnits="objectBoundingBox">
      <feOffset dx="1" in="SourceAlpha" result="shadowOffsetInner1"/>
      <feComposite in="shadowOffsetInner1" in2="SourceAlpha" k2="-1" k3="1" operator="arithmetic" result="shadowInnerInner1"/>
      <feColorMatrix in="shadowInnerInner1" result="shadowMatrixInner1" values="0 0 0 0 0.917647059   0 0 0 0 0.109803922   0 0 0 0 0.705882353  0 0 0 1 0"/>
      <feOffset dx="-1" in="SourceAlpha" result="shadowOffsetInner2"/>
      <feComposite in="shadowOffsetInner2" in2="SourceAlpha" k2="-1" k3="1" operator="arithmetic" result="shadowInnerInner2"/>
      <feColorMatrix in="shadowInnerInner2" result="shadowMatrixInner2" values="0 0 0 0 0.917647059   0 0 0 0 0.109803922   0 0 0 0 0.705882353  0 0 0 1 0"/>
      <feMerge>
        <feMergeNode in="shadowMatrixInner1"/>
        <feMergeNode in="shadowMatrixInner2"/>
      </feMerge>
    </filter>
  </defs>
  <g fill="none" fill-rule="evenodd">
    <g transform="translate(92 92)">
      <mask id="icon-shape-stroke-1-b" fill="#fff">
        <use xlink:href="#icon-shape-stroke-1-a"/>
      </mask>
      <g mask="url(#icon-shape-stroke-1-b)">
        <mask id="icon-shape-stroke-1-d" fill="#fff">
          <use xlink:href="#icon-shape-stroke-1-c"/>
        </mask>
        <rect width="338" height="1" x="-1" fill="#D7D7DB" mask="url(#icon-shape-stroke-1-d)"/>
        <rect width="338" height="1" x="-1" y="11" fill="#D7D7DB" mask="url(#icon-shape-stroke-1-d)" opacity=".3"/>
        <rect width="338" height="1" x="-1" y="22" fill="#D7D7DB" mask="url(#icon-shape-stroke-1-d)" opacity=".3"/>
        <rect width="338" height="1" x="-1" y="33" fill="#D7D7DB" mask="url(#icon-shape-stroke-1-d)" opacity=".3"/>
        <rect width="338" height="1" x="-1" y="44" fill="#D7D7DB" mask="url(#icon-shape-stroke-1-d)"/>
        <rect width="338" height="1" x="-1" y="55" fill="#D7D7DB" mask="url(#icon-shape-stroke-1-d)" opacity=".3"/>
        <rect width="338" height="1" x="-1" y="66" fill="#D7D7DB" mask="url(#icon-shape-stroke-1-d)" opacity=".3"/>
        <rect width="338" height="1" x="-1" y="77" fill="#D7D7DB" mask="url(#icon-shape-stroke-1-d)" opacity=".3"/>
        <rect width="338" height="1" x="-1" y="88" fill="#D7D7DB" mask="url(#icon-shape-stroke-1-d)"/>
        <rect width="338" height="1" x="-1" y="99" fill="#D7D7DB" mask="url(#icon-shape-stroke-1-d)" opacity=".3"/>
        <rect width="338" height="1" x="-1" y="110" fill="#D7D7DB" mask="url(#icon-shape-stroke-1-d)" opacity=".3"/>
        <rect width="338" height="1" x="-1" y="121" fill="#D7D7DB" mask="url(#icon-shape-stroke-1-d)" opacity=".3"/>
        <rect width="338" height="1" x="-1" y="132" fill="#D7D7DB" mask="url(#icon-shape-stroke-1-d)"/>
        <rect width="338" height="1" x="-1" y="143" fill="#D7D7DB" mask="url(#icon-shape-stroke-1-d)" opacity=".3"/>
        <rect width="338" height="1" x="-1" y="154" fill="#D7D7DB" mask="url(#icon-shape-stroke-1-d)" opacity=".3"/>
        <rect width="338" height="1" x="-1" y="165" fill="#D7D7DB" mask="url(#icon-shape-stroke-1-d)" opacity=".3"/>
        <rect width="338" height="1" x="-1" y="176" fill="#D7D7DB" mask="url(#icon-shape-stroke-1-d)"/>
      </g>
      <g mask="url(#icon-shape-stroke-1-b)">
        <g transform="matrix(0 -1 1 0 0 265)">
          <mask id="icon-shape-stroke-1-f" fill="#fff">
            <use xlink:href="#icon-shape-stroke-1-e"/>
          </mask>
          <rect width="338" height="1" x="-73" fill="#D7D7DB" mask="url(#icon-shape-stroke-1-f)"/>
          <rect width="338" height="1" x="-73" y="11" fill="#D7D7DB" mask="url(#icon-shape-stroke-1-f)" opacity=".3"/>
          <rect width="338" height="1" x="-73" y="22" fill="#D7D7DB" mask="url(#icon-shape-stroke-1-f)" opacity=".3"/>
          <rect width="338" height="1" x="-73" y="33" fill="#D7D7DB" mask="url(#icon-shape-stroke-1-f)" opacity=".3"/>
          <rect width="338" height="1" x="-73" y="44" fill="#D7D7DB" mask="url(#icon-shape-stroke-1-f)"/>
          <rect width="338" height="1" x="-73" y="55" fill="#D7D7DB" mask="url(#icon-shape-stroke-1-f)" opacity=".3"/>
          <rect width="338" height="1" x="-73" y="66" fill="#D7D7DB" mask="url(#icon-shape-stroke-1-f)" opacity=".3"/>
          <rect width="338" height="1" x="-73" y="77" fill="#D7D7DB" mask="url(#icon-shape-stroke-1-f)" opacity=".3"/>
          <rect width="338" height="1" x="-73" y="88" fill="#D7D7DB" mask="url(#icon-shape-stroke-1-f)"/>
          <rect width="338" height="1" x="-73" y="99" fill="#D7D7DB" mask="url(#icon-shape-stroke-1-f)" opacity=".3"/>
          <rect width="338" height="1" x="-73" y="110" fill="#D7D7DB" mask="url(#icon-shape-stroke-1-f)" opacity=".3"/>
          <rect width="338" height="1" x="-73" y="121" fill="#D7D7DB" mask="url(#icon-shape-stroke-1-f)" opacity=".3"/>
          <rect width="338" height="1" x="-73" y="132" fill="#D7D7DB" mask="url(#icon-shape-stroke-1-f)"/>
          <rect width="338" height="1" x="-73" y="143" fill="#D7D7DB" mask="url(#icon-shape-stroke-1-f)" opacity=".3"/>
          <rect width="338" height="1" x="-73" y="154" fill="#D7D7DB" mask="url(#icon-shape-stroke-1-f)" opacity=".3"/>
          <rect width="338" height="1" x="-73" y="165" fill="#D7D7DB" mask="url(#icon-shape-stroke-1-f)" opacity=".3"/>
          <rect width="338" height="1" x="-73" y="176" fill="#D7D7DB" mask="url(#icon-shape-stroke-1-f)"/>
        </g>
      </g>
      <rect width="165" height="165" x="6" y="6" stroke="#0C0C0D" stroke-opacity=".1" stroke-width="12"/>
    </g>
    <g transform="translate(136 102)">
      <use fill="#FFF" xlink:href="#icon-shape-stroke-1-g"/>
      <use fill="#0C0C0D" fill-opacity=".8" xlink:href="#icon-shape-stroke-1-g"/>
      <g>
        <use fill="#FFF" xlink:href="#icon-shape-stroke-1-h"/>
        <use fill="#0C0C0D" fill-opacity=".8" xlink:href="#icon-shape-stroke-1-h"/>
      </g>
    </g>
    <g transform="translate(122 53)">
      <g transform="translate(6)">
        <rect width="1" height="9" x="30" y="26" fill="#EA1CB4"/>
        <rect width="21" height="1" x="9" y="30" fill="#EA1CB4"/>
        <rect width="1" height="9" x="8" y="26" fill="#EA1CB4"/>
        <rect width="39" height="22" fill="#ED00B5" fill-rule="nonzero" rx="2"/>
        <text fill="#FFF" font-family="FiraMono-Medium, Fira Mono" font-size="12" font-weight="400">
          <tspan x="8.2" y="15">2px</tspan>
        </text>
        <polygon fill="#ED00B5" points="15 21 19 17 23 21 19 25"/>
      </g>
      <g transform="translate(66)">
        <rect width="1" height="9" x="25" y="26" fill="#EA1CB4"/>
        <rect width="12" height="1" x="14" y="30" fill="#EA1CB4"/>
        <rect width="1" height="9" x="14" y="26" fill="#EA1CB4"/>
        <rect width="39" height="22" fill="#EA1CB4" fill-rule="nonzero" rx="2"/>
        <text fill="#FFF" font-family="FiraMono-Medium, Fira Mono" font-size="12" font-weight="400">
          <tspan x="8.2" y="15">1px</tspan>
        </text>
        <polygon fill="#ED00B5" points="15 21 19 17 23 21 19 25"/>
      </g>
      <use fill="#FC2DD7" fill-opacity=".25" xlink:href="#icon-shape-stroke-1-i"/>
      <use fill="#000" filter="url(#icon-shape-stroke-1-j)" xlink:href="#icon-shape-stroke-1-i"/>
      <rect width="1" height="26" x="25" y="200" fill="#EA1CB4"/>
      <rect width="1" height="25" x="86" y="201" fill="#ED00B5"/>
      <use fill="#FC2DD7" fill-opacity=".25" xlink:href="#icon-shape-stroke-1-k"/>
      <use fill="#000" filter="url(#icon-shape-stroke-1-l)" xlink:href="#icon-shape-stroke-1-k"/>
      <path stroke="#EA1CB4" stroke-width="1.8" d="M36.0648239,192.914604 C31.6720493,192.962782 28.420861,192.959994 22.4988033,192.925217 C21.5958911,192.919904 21.1858755,192.917532 20.6969947,192.914871 C18.4083233,192.902414 16.6675466,192.897493 14.9341305,192.901022 C15.3707624,198.616638 19.9422563,203.1 25.5,203.1 C31.0533404,203.1 35.6219932,198.62374 36.0648239,192.914604 Z"/>
      <path stroke="#ED00B5" stroke-width="1.8" d="M91.0189296,198.912191 C88.9644801,198.931105 87.2962679,198.928722 84.4318508,198.912602 C83.9607847,198.909945 83.9607847,198.909945 83.4919455,198.90743 C82.5139319,198.902329 81.7279792,198.899757 80.9788814,198.899966 C81.4033221,201.287236 83.4898429,203.1 86,203.1 C88.5058705,203.1 90.5895503,201.293423 91.0189296,198.912191 Z"/>
      <g fill="#EA1CB4" transform="translate(0 227)">
        <path d="M6.336,6.56 C5.99199828,6.94400192 5.53600284,7.22399912 4.968,7.4 L7.32,11 L5.7,11 L3.612,7.592 L2.712,7.592 L2.712,11 L1.32,11 L1.32,2.72 L3.624,2.72 C5.77601076,2.72 6.852,3.519992 6.852,5.12 C6.852,5.69600288 6.68000172,6.17599808 6.336,6.56 Z M4.986,4.076 C4.70999862,3.85999892 4.28400288,3.752 3.708,3.752 L2.712,3.752 L2.712,6.572 L3.744,6.572 C4.28800272,6.572 4.6999986,6.45600116 4.98,6.224 C5.2600014,5.99199884 5.4,5.62400252 5.4,5.12 C5.4,4.6399976 5.26200138,4.29200108 4.986,4.076 Z M13.224,5.39 C13.7200025,5.98600298 13.968,6.79599488 13.968,7.82 C13.968,8.84400512 13.7160025,9.655997 13.212,10.256 C12.7079975,10.856003 12.0040045,11.156 11.1,11.156 C10.1879954,11.156 9.4820025,10.8620029 8.982,10.274 C8.4819975,9.68599706 8.232,8.8720052 8.232,7.832 C8.232,6.82399496 8.48599746,6.01600304 8.994,5.408 C9.50200254,4.79999696 10.2079955,4.496 11.112,4.496 C12.0240046,4.496 12.7279975,4.79399702 13.224,5.39 Z M10.014,6.104 C9.76999878,6.48000188 9.648,7.05599612 9.648,7.832 C9.648,8.61600392 9.7679988,9.19399814 10.008,9.566 C10.2480012,9.93800186 10.6119976,10.124 11.1,10.124 C11.5880024,10.124 11.9519988,9.93600188 12.192,9.56 C12.4320012,9.18399812 12.552,8.60400392 12.552,7.82 C12.552,7.04399612 12.4320012,6.47000186 12.192,6.098 C11.9519988,5.72599814 11.5920024,5.54 11.112,5.54 C10.6239976,5.54 10.2580012,5.72799812 10.014,6.104 Z M17.112,9.092 C17.112,9.46000184 17.1859993,9.72599918 17.334,9.89 C17.4820007,10.0540008 17.7079985,10.136 18.012,10.136 C18.3000014,10.136 18.5779987,10.0520008 18.846,9.884 C19.1140013,9.71599916 19.3279992,9.50400128 19.488,9.248 L19.488,4.664 L20.832,4.664 L20.832,11 L19.668,11 L19.584,10.184 C19.3599989,10.4960016 19.0680018,10.7359992 18.708,10.904 C18.3479982,11.0720008 17.9760019,11.156 17.592,11.156 C16.983997,11.156 16.5280015,10.9920016 16.224,10.664 C15.9199985,10.3359984 15.768,9.86800304 15.768,9.26 L15.768,4.664 L17.112,4.664 L17.112,9.092 Z M22.968,4.664 L24.132,4.664 L24.228,5.492 C24.4920013,5.1719984 24.8019982,4.92600086 25.158,4.754 C25.5140018,4.58199914 25.887998,4.496 26.28,4.496 C26.8640029,4.496 27.3039985,4.65999836 27.6,4.988 C27.8960015,5.31600164 28.044,5.779997 28.044,6.38 L28.044,11 L26.7,11 L26.7,7.052 C26.7,6.65999804 26.6780002,6.35800106 26.634,6.146 C26.5899998,5.93399894 26.5040006,5.7780005 26.376,5.678 C26.2479994,5.5779995 26.0560013,5.528 25.8,5.528 C25.5119986,5.528 25.2380013,5.61599912 24.978,5.792 C24.7179987,5.96800088 24.4960009,6.18799868 24.312,6.452 L24.312,11 L22.968,11 L22.968,4.664 Z M35.232,2.12 L35.232,11 L34.044,11 L33.948,10.22 C33.739999,10.5240015 33.4840015,10.7559992 33.18,10.916 C32.8759985,11.0760008 32.5400018,11.156 32.172,11.156 C31.379996,11.156 30.784002,10.860003 30.384,10.268 C29.983998,9.67599704 29.784,8.86400516 29.784,7.832 C29.784,7.18399676 29.885999,6.60800252 30.09,6.104 C30.294001,5.59999748 30.5839981,5.20600142 30.96,4.922 C31.3360019,4.63799858 31.7799974,4.496 32.292,4.496 C32.9400032,4.496 33.4719979,4.72799768 33.888,5.192 L33.888,1.964 L35.232,2.12 Z M31.578,6.098 C31.3339988,6.4780019 31.212,7.05599612 31.212,7.832 C31.212,9.36800768 31.6519956,10.136 32.532,10.136 C33.0600026,10.136 33.5119981,9.83200304 33.888,9.224 L33.888,6.236 C33.5599984,5.76399764 33.1440025,5.528 32.64,5.528 C32.1759977,5.528 31.8220012,5.7179981 31.578,6.098 Z M39.018,9.65 C39.3340016,9.95800154 39.7319976,10.112 40.212,10.112 C40.5080015,10.112 40.7899987,10.0660005 41.058,9.974 C41.3260013,9.88199954 41.5999986,9.74400092 41.88,9.56 L42.456,10.376 C42.1599985,10.6240012 41.812002,10.8159993 41.412,10.952 C41.011998,11.0880007 40.5920022,11.156 40.152,11.156 C39.1839952,11.156 38.4320027,10.854003 37.896,10.25 C37.3599973,9.64599698 37.092,8.84000504 37.092,7.832 C37.092,7.19999684 37.2079988,6.63000254 37.44,6.122 C37.6720012,5.61399746 38.0079978,5.21600144 38.448,4.928 C38.8880022,4.63999856 39.3999971,4.496 39.984,4.496 C40.8240042,4.496 41.4899975,4.77799718 41.982,5.342 C42.4740025,5.90600282 42.72,6.67999508 42.72,7.664 C42.72,7.9040012 42.7080001,8.1039992 42.684,8.264 L38.484,8.264 C38.5240002,8.88000308 38.7019984,9.34199846 39.018,9.65 Z M38.94,5.96 C38.6679986,6.27200156 38.5120002,6.73599692 38.472,7.352 L41.412,7.352 C41.3959999,6.751997 41.2680012,6.2920016 41.028,5.972 C40.7879988,5.6519984 40.4440022,5.492 39.996,5.492 C39.5639978,5.492 39.2120014,5.64799844 38.94,5.96 Z M49.632,2.12 L49.632,11 L48.444,11 L48.348,10.22 C48.139999,10.5240015 47.8840015,10.7559992 47.58,10.916 C47.2759985,11.0760008 46.9400018,11.156 46.572,11.156 C45.779996,11.156 45.184002,10.860003 44.784,10.268 C44.383998,9.67599704 44.184,8.86400516 44.184,7.832 C44.184,7.18399676 44.285999,6.60800252 44.49,6.104 C44.694001,5.59999748 44.9839981,5.20600142 45.36,4.922 C45.7360019,4.63799858 46.1799974,4.496 46.692,4.496 C47.3400032,4.496 47.8719979,4.72799768 48.288,5.192 L48.288,1.964 L49.632,2.12 Z M45.978,6.098 C45.7339988,6.4780019 45.612,7.05599612 45.612,7.832 C45.612,9.36800768 46.0519956,10.136 46.932,10.136 C47.4600026,10.136 47.9119981,9.83200304 48.288,9.224 L48.288,6.236 C47.9599984,5.76399764 47.5440025,5.528 47.04,5.528 C46.5759977,5.528 46.2220012,5.7179981 45.978,6.098 Z"/>
      </g>
      <g fill="#EA1CB4" transform="translate(61 227)">
        <path d="M6.336,6.56 C5.99199828,6.94400192 5.53600284,7.22399912 4.968,7.4 L7.32,11 L5.7,11 L3.612,7.592 L2.712,7.592 L2.712,11 L1.32,11 L1.32,2.72 L3.624,2.72 C5.77601076,2.72 6.852,3.519992 6.852,5.12 C6.852,5.69600288 6.68000172,6.17599808 6.336,6.56 Z M4.986,4.076 C4.70999862,3.85999892 4.28400288,3.752 3.708,3.752 L2.712,3.752 L2.712,6.572 L3.744,6.572 C4.28800272,6.572 4.6999986,6.45600116 4.98,6.224 C5.2600014,5.99199884 5.4,5.62400252 5.4,5.12 C5.4,4.6399976 5.26200138,4.29200108 4.986,4.076 Z M13.224,5.39 C13.7200025,5.98600298 13.968,6.79599488 13.968,7.82 C13.968,8.84400512 13.7160025,9.655997 13.212,10.256 C12.7079975,10.856003 12.0040045,11.156 11.1,11.156 C10.1879954,11.156 9.4820025,10.8620029 8.982,10.274 C8.4819975,9.68599706 8.232,8.8720052 8.232,7.832 C8.232,6.82399496 8.48599746,6.01600304 8.994,5.408 C9.50200254,4.79999696 10.2079955,4.496 11.112,4.496 C12.0240046,4.496 12.7279975,4.79399702 13.224,5.39 Z M10.014,6.104 C9.76999878,6.48000188 9.648,7.05599612 9.648,7.832 C9.648,8.61600392 9.7679988,9.19399814 10.008,9.566 C10.2480012,9.93800186 10.6119976,10.124 11.1,10.124 C11.5880024,10.124 11.9519988,9.93600188 12.192,9.56 C12.4320012,9.18399812 12.552,8.60400392 12.552,7.82 C12.552,7.04399612 12.4320012,6.47000186 12.192,6.098 C11.9519988,5.72599814 11.5920024,5.54 11.112,5.54 C10.6239976,5.54 10.2580012,5.72799812 10.014,6.104 Z M17.112,9.092 C17.112,9.46000184 17.1859993,9.72599918 17.334,9.89 C17.4820007,10.0540008 17.7079985,10.136 18.012,10.136 C18.3000014,10.136 18.5779987,10.0520008 18.846,9.884 C19.1140013,9.71599916 19.3279992,9.50400128 19.488,9.248 L19.488,4.664 L20.832,4.664 L20.832,11 L19.668,11 L19.584,10.184 C19.3599989,10.4960016 19.0680018,10.7359992 18.708,10.904 C18.3479982,11.0720008 17.9760019,11.156 17.592,11.156 C16.983997,11.156 16.5280015,10.9920016 16.224,10.664 C15.9199985,10.3359984 15.768,9.86800304 15.768,9.26 L15.768,4.664 L17.112,4.664 L17.112,9.092 Z M22.968,4.664 L24.132,4.664 L24.228,5.492 C24.4920013,5.1719984 24.8019982,4.92600086 25.158,4.754 C25.5140018,4.58199914 25.887998,4.496 26.28,4.496 C26.8640029,4.496 27.3039985,4.65999836 27.6,4.988 C27.8960015,5.31600164 28.044,5.779997 28.044,6.38 L28.044,11 L26.7,11 L26.7,7.052 C26.7,6.65999804 26.6780002,6.35800106 26.634,6.146 C26.5899998,5.93399894 26.5040006,5.7780005 26.376,5.678 C26.2479994,5.5779995 26.0560013,5.528 25.8,5.528 C25.5119986,5.528 25.2380013,5.61599912 24.978,5.792 C24.7179987,5.96800088 24.4960009,6.18799868 24.312,6.452 L24.312,11 L22.968,11 L22.968,4.664 Z M35.232,2.12 L35.232,11 L34.044,11 L33.948,10.22 C33.739999,10.5240015 33.4840015,10.7559992 33.18,10.916 C32.8759985,11.0760008 32.5400018,11.156 32.172,11.156 C31.379996,11.156 30.784002,10.860003 30.384,10.268 C29.983998,9.67599704 29.784,8.86400516 29.784,7.832 C29.784,7.18399676 29.885999,6.60800252 30.09,6.104 C30.294001,5.59999748 30.5839981,5.20600142 30.96,4.922 C31.3360019,4.63799858 31.7799974,4.496 32.292,4.496 C32.9400032,4.496 33.4719979,4.72799768 33.888,5.192 L33.888,1.964 L35.232,2.12 Z M31.578,6.098 C31.3339988,6.4780019 31.212,7.05599612 31.212,7.832 C31.212,9.36800768 31.6519956,10.136 32.532,10.136 C33.0600026,10.136 33.5119981,9.83200304 33.888,9.224 L33.888,6.236 C33.5599984,5.76399764 33.1440025,5.528 32.64,5.528 C32.1759977,5.528 31.8220012,5.7179981 31.578,6.098 Z M39.018,9.65 C39.3340016,9.95800154 39.7319976,10.112 40.212,10.112 C40.5080015,10.112 40.7899987,10.0660005 41.058,9.974 C41.3260013,9.88199954 41.5999986,9.74400092 41.88,9.56 L42.456,10.376 C42.1599985,10.6240012 41.812002,10.8159993 41.412,10.952 C41.011998,11.0880007 40.5920022,11.156 40.152,11.156 C39.1839952,11.156 38.4320027,10.854003 37.896,10.25 C37.3599973,9.64599698 37.092,8.84000504 37.092,7.832 C37.092,7.19999684 37.2079988,6.63000254 37.44,6.122 C37.6720012,5.61399746 38.0079978,5.21600144 38.448,4.928 C38.8880022,4.63999856 39.3999971,4.496 39.984,4.496 C40.8240042,4.496 41.4899975,4.77799718 41.982,5.342 C42.4740025,5.90600282 42.72,6.67999508 42.72,7.664 C42.72,7.9040012 42.7080001,8.1039992 42.684,8.264 L38.484,8.264 C38.5240002,8.88000308 38.7019984,9.34199846 39.018,9.65 Z M38.94,5.96 C38.6679986,6.27200156 38.5120002,6.73599692 38.472,7.352 L41.412,7.352 C41.3959999,6.751997 41.2680012,6.2920016 41.028,5.972 C40.7879988,5.6519984 40.4440022,5.492 39.996,5.492 C39.5639978,5.492 39.2120014,5.64799844 38.94,5.96 Z M49.632,2.12 L49.632,11 L48.444,11 L48.348,10.22 C48.139999,10.5240015 47.8840015,10.7559992 47.58,10.916 C47.2759985,11.0760008 46.9400018,11.156 46.572,11.156 C45.779996,11.156 45.184002,10.860003 44.784,10.268 C44.383998,9.67599704 44.184,8.86400516 44.184,7.832 C44.184,7.18399676 44.285999,6.60800252 44.49,6.104 C44.694001,5.59999748 44.9839981,5.20600142 45.36,4.922 C45.7360019,4.63799858 46.1799974,4.496 46.692,4.496 C47.3400032,4.496 47.8719979,4.72799768 48.288,5.192 L48.288,1.964 L49.632,2.12 Z M45.978,6.098 C45.7339988,6.4780019 45.612,7.05599612 45.612,7.832 C45.612,9.36800768 46.0519956,10.136 46.932,10.136 C47.4600026,10.136 47.9119981,9.83200304 48.288,9.224 L48.288,6.236 C47.9599984,5.76399764 47.5440025,5.528 47.04,5.528 C46.5759977,5.528 46.2220012,5.7179981 45.978,6.098 Z"/>
      </g>
    </g>
  </g>
</svg>
