<svg xmlns="http://www.w3.org/2000/svg" xmlns:xlink="http://www.w3.org/1999/xlink" width="360" height="240" viewBox="0 0 360 240">
  <defs>
    <polygon id="icon-color-dark-bg-a" points="512 0 512 203 846 203 846 0"/>
    <rect id="icon-color-dark-bg-c" width="439" height="31" rx="2"/>
    <filter id="icon-color-dark-bg-b" width="103.4%" height="148.4%" x="-1.7%" y="-21%" filterUnits="objectBoundingBox">
      <feMorphology in="SourceAlpha" operator="dilate" radius="1" result="shadowSpreadOuter1"/>
      <feOffset dy="1" in="shadowSpreadOuter1" result="shadowOffsetOuter1"/>
      <feGaussianBlur in="shadowOffsetOuter1" result="shadowBlurOuter1" stdDeviation="2"/>
      <feComposite in="shadowBlurOuter1" in2="SourceAlpha" operator="out" result="shadowBlurOuter1"/>
      <feColorMatrix in="shadowBlurOuter1" values="0 0 0 0 0.0352941176   0 0 0 0 0.0235294118   0 0 0 0 0.0509803922  0 0 0 0.1 0"/>
    </filter>
    <path id="icon-color-dark-bg-d" d="M44,0 C68.300529,-4.4408921e-15 88,19.699471 88,44 C88,68.300529 68.300529,88 44,88 C19.699471,88 2.88657986e-15,68.300529 0,44 C-3.10862447e-15,19.699471 19.699471,4.4408921e-15 44,0 Z"/>
    <path id="icon-color-dark-bg-e" d="M44,2 C20.8040405,2 2,20.8040405 2,44 C2,67.1959595 20.8040405,86 44,86 C67.1959595,86 86,67.1959595 86,44 C86,20.8040405 67.1959595,2 44,2 Z"/>
    <rect id="icon-color-dark-bg-g" width="9" height="59" x="81" y="14"/>
  </defs>
  <g fill="none" fill-rule="evenodd" transform="translate(-562 40)">
    <g fill-rule="nonzero">
      <use fill="#FFF" fill-rule="evenodd" xlink:href="#icon-color-dark-bg-a"/>
      <path stroke="#000" stroke-opacity=".35" d="M511.5,-0.5 L846.5,-0.5 L846.5,203.5 L511.5,203.5 L511.5,-0.5 Z"/>
    </g>
    <rect width="360" height="1" x="486" y="73" fill="#080517" fill-opacity=".1"/>
    <rect width="846" height="69" fill="#0C0C0D"/>
    <g transform="translate(741 11)">
      <g stroke="#F5F5FA" stroke-linecap="round" transform="translate(80 .5)">
        <path d="M.5.5L9.5 9.5M.5 9.5L9.5.5"/>
      </g>
      <rect width="9" height="9" x="40.5" y="1" stroke="#F5F5FA"/>
      <rect width="10" height="1" y="5.516" fill="#F5F5FA"/>
    </g>
    <g transform="translate(0 32)">
      <rect width="846" height="41" fill="#4A4A4F"/>
      <g transform="translate(703 5)">
        <path fill="#0C0C0D" d="M13,4 L3,4 C2.447,4 2,3.553 2,3 C2,2.447 2.447,2 3,2 L13,2 C13.553,2 14,2.447 14,3 C14,3.553 13.553,4 13,4 Z M13,9 L3,9 C2.447,9 2,8.553 2,8 C2,7.447 2.447,7 3,7 L13,7 C13.553,7 14,7.447 14,8 C14,8.553 13.553,9 13,9 Z M13,14 L3,14 C2.447,14 2,13.553 2,13 C2,12.447 2.447,12 3,12 L13,12 C13.553,12 14,12.447 14,13 C14,13.553 13.553,14 13,14 Z" opacity=".8" transform="translate(115 8)"/>
        <rect width="1" height="32" fill="#3D3D40" fill-opacity=".1" transform="translate(102)"/>
        <path fill="#F9F9FA" fill-opacity=".8" d="M14.707,7.293 L9.707,2.293 C9.316,1.902 8.684,1.902 8.293,2.293 C7.902,2.684 7.902,3.316 8.293,3.707 L12.586,8 L8.293,12.293 C7.902,12.684 7.902,13.316 8.293,13.707 C8.488,13.902 8.744,14 9,14 C9.256,14 9.512,13.902 9.707,13.707 L14.707,8.707 C15.098,8.316 15.098,7.684 14.707,7.293 M8.707,7.293 L3.707,2.293 C3.316,1.902 2.684,1.902 2.293,2.293 C1.902,2.684 1.902,3.316 2.293,3.707 L6.586,8 L2.293,12.293 C1.902,12.684 1.902,13.316 2.293,13.707 C2.488,13.902 2.744,14 3,14 C3.256,14 3.512,13.902 3.707,13.707 L8.707,8.707 C9.098,8.316 9.098,7.684 8.707,7.293" transform="translate(74 8)"/>
        <path fill="#F9F9FA" fill-opacity=".8" d="M3.5,5 L5.5,5 C5.776,5 6,4.776 6,4.5 C6,4.224 5.776,4 5.5,4 L3.5,4 C3.224,4 3,4.224 3,4.5 C3,4.776 3.224,5 3.5,5 L3.5,5 Z M4.5,9 L5.5,9 C5.776,9 6,8.776 6,8.5 C6,8.224 5.776,8 5.5,8 L4.5,8 C4.224,8 4,8.224 4,8.5 C4,8.776 4.224,9 4.5,9 L4.5,9 Z M8,13 L14,13 L14,3 L8,3 L8,13 Z M2,13 L7,13 L7,3 L2,3 L2,13 Z M2,1 C0.896,1 0,1.896 0,3 L0,13 C0,14.104 0.896,15 2,15 L14,15 C15.104,15 16,14.104 16,13 L16,3 C16,1.896 15.104,1 14,1 L2,1 Z M3.5,7 L5.5,7 C5.776,7 6,6.776 6,6.5 C6,6.224 5.776,6 5.5,6 L3.5,6 C3.224,6 3,6.224 3,6.5 C3,6.776 3.224,7 3.5,7 L3.5,7 Z" transform="matrix(-1 0 0 1 58 8)"/>
        <path fill="#F9F9FA" fill-opacity=".8" fill-rule="nonzero" d="M5,3 C4.44771525,3 4,3.44771525 4,4 L4,14 C4,14.5522847 4.44771525,15 5,15 C5.55228475,15 6,14.5522847 6,14 L6,4 C6,3.44771525 5.55228475,3 5,3 Z M8,2 C7.44771525,2 7,2.44771525 7,3 L7,14 C7,14.5522847 7.44771525,15 8,15 C8.55228475,15 9,14.5522847 9,14 L9,3 C9,2.44771525 8.55228475,2 8,2 Z M15.939,13.658 L11.939,2.658 C11.8218265,2.31560782 11.5288098,2.06323735 11.1728313,1.99811149 C10.8168528,1.93298563 10.4534644,2.06526752 10.2226574,2.34399705 C9.99185033,2.62272657 9.92964297,3.00440692 10.06,3.342 L14.06,14.342 C14.1771735,14.6843922 14.4701902,14.9367627 14.8261687,15.0018885 C15.1821472,15.0670144 15.5455356,14.9347325 15.7763426,14.656003 C16.0071497,14.3772734 16.069357,13.9955931 15.939,13.658 L15.939,13.658 Z M2,1 C1.44771525,1 1,1.44771525 1,2 L1,14 C1,14.5522847 1.44771525,15 2,15 C2.55228475,15 3,14.5522847 3,14 L3,2 C3,1.44771525 2.55228475,1 2,1 Z" transform="translate(10 8)"/>
      </g>
      <g transform="translate(201 5)">
        <use fill="#000" filter="url(#icon-color-dark-bg-b)" xlink:href="#icon-color-dark-bg-c"/>
        <use fill="#F9F9FA" fill-opacity=".15" xlink:href="#icon-color-dark-bg-c"/>
        <rect width="440" height="32" x="-.5" y="-.5" stroke="#0C0C0D" stroke-opacity=".2" rx="2"/>
        <path fill="#F9F9FA" fill-opacity=".8" fill-rule="nonzero" d="M8,15 C3.581722,15 5.41083001e-16,11.418278 0,7 L0,3 C-1.3527075e-16,1.8954305 0.8954305,1 2,1 L14,1 C15.1045695,1 16,1.8954305 16,3 L16,7 C16,11.418278 12.418278,15 8,15 Z M11.985,4.968 C11.7094719,4.96881215 11.4467464,5.08441137 11.26,5.287 L7.978,8.57 L4.755,5.336 C4.57095481,5.10669254 4.29400821,4.971704 4,4.968 C3.5973832,4.96805751 3.23406703,5.20956201 3.07816073,5.58076751 C2.92225442,5.951973 3.00416823,6.38047409 3.286,6.668 L3.27,6.679 L6.563,9.985 L6.563,9.985 L7.27,10.692 C7.66049985,11.0823819 8.29350015,11.0823819 8.684,10.692 L9.391,9.985 L9.391,9.985 L12.7,6.679 L12.7,6.679 C12.9898676,6.39237313 13.0767354,5.95848615 12.9195569,5.58235699 C12.7623784,5.20622783 12.3926209,4.96315739 11.985,4.968 Z" opacity=".8" transform="translate(388 7.5)"/>
        <g fill="#F9F9FA" fill-opacity=".8" opacity=".8" transform="translate(360 7.5)">
          <path d="M8,10 C6.8954305,10 6,9.1045695 6,8 C6,6.8954305 6.8954305,6 8,6 C9.1045695,6 10,6.8954305 10,8 C10,9.1045695 9.1045695,10 8,10 Z M14,10 C12.8954305,10 12,9.1045695 12,8 C12,6.8954305 12.8954305,6 14,6 C15.1045695,6 16,6.8954305 16,8 C16,9.1045695 15.1045695,10 14,10 Z M2,10 C0.8954305,10 0,9.1045695 0,8 C0,6.8954305 0.8954305,6 2,6 C3.1045695,6 4,6.8954305 4,8 C4,9.1045695 3.1045695,10 2,10 Z"/>
        </g>
        <g fill="#F9F9FA" fill-opacity=".8" opacity=".8" transform="translate(416 7.5)">
          <path d="M8.01921875,3.55722233 L9.09728613,5.67885493 L9.5528146,6.57541096 L10.5438765,6.74442153 L12.8480206,7.13794612 L11.1704157,8.96506032 L10.5203751,9.67210451 L10.6653841,10.6221639 L11.0349072,13.0338146 L8.94027632,11.9227452 L7.99721738,11.4227139 L7.05715862,11.9272455 L5.02253146,13.0193137 L5.39105449,10.6231639 L5.53806368,9.66760423 L4.88002255,8.95855991 L3.19291711,7.14094631 L5.53756365,6.74692168 L6.55462721,6.57591099 L7.00465534,5.64735296 L8.01771866,3.55872242 L8.01921875,3.55722233 Z M7.99621731,2.84234859e-14 C7.63086871,0.0492424363 7.32486301,0.301019279 7.20616794,0.650040628 L5.20604293,4.77179824 L0.928275567,5.49134321 C-0.0512856551,5.65085318 -0.294800875,6.35439715 0.38624169,7.0544409 L3.41493098,10.3166448 L2.70888686,14.9064317 C2.60188017,15.5959747 2.88489786,16 3.38242895,16 C3.61036928,15.9914642 3.83308109,15.9292762 4.03246958,15.8184887 L8.00471785,13.6873555 L12.023969,15.8184887 C12.2234791,15.92898 12.4461188,15.9911479 12.6740097,16 C13.1705407,16 13.4530584,15.5959747 13.3480518,14.9064317 L12.6445078,10.3166448 L15.6376949,7.05744109 C16.3187375,6.35739734 16.0752223,5.65085318 15.095661,5.49134321 L10.8813976,4.77179824 L8.78676672,0.650040628 C8.66835227,0.301026089 8.36247475,0.0491953311 7.99721738,0 L7.99721738,0 L7.99621731,2.84234859e-14 Z"/>
        </g>
      </g>
    </g>
    <g transform="translate(794 8)">
      <use fill="#737373" xlink:href="#icon-color-dark-bg-d"/>
      <mask id="icon-color-dark-bg-f" fill="#fff">
        <use xlink:href="#icon-color-dark-bg-e"/>
      </mask>
      <use fill="#4A4A4F" xlink:href="#icon-color-dark-bg-e"/>
      <g mask="url(#icon-color-dark-bg-f)">
        <use fill="#FFF" xlink:href="#icon-color-dark-bg-g"/>
        <rect width="8" height="58" x="81.5" y="14.5" stroke="#000" stroke-opacity=".35"/>
      </g>
      <g fill="#F9F9FA" fill-opacity=".8" mask="url(#icon-color-dark-bg-f)">
        <path d="M26,8 L6,8 C4.894,8 4,7.106 4,6 C4,4.894 4.894,4 6,4 L26,4 C27.106,4 28,4.894 28,6 C28,7.106 27.106,8 26,8 Z M26,18 L6,18 C4.894,18 4,17.106 4,16 C4,14.894 4.894,14 6,14 L26,14 C27.106,14 28,14.894 28,16 C28,17.106 27.106,18 26,18 Z M26,28 L6,28 C4.894,28 4,27.106 4,26 C4,24.894 4.894,24 6,24 L26,24 C27.106,24 28,24.894 28,26 C28,27.106 27.106,28 26,28 Z" transform="translate(28 28)"/>
      </g>
    </g>
  </g>
</svg>
