<svg xmlns="http://www.w3.org/2000/svg" xmlns:xlink="http://www.w3.org/1999/xlink" viewBox="0 0 360 360"><defs><polygon id="a" points="0 0 177 0 177 177 0 177"/><polygon id="c" points="0 0 265 0 265 265.201 0 265.201"/><polygon id="e" points="0 0 265 0 265 265.201 0 265.201"/><path id="g" d="M94.03 132.75a5.53 5.53 0 1 1 0-11.07 5.53 5.53 0 0 1 0 11.07m16.83 22.2h10.34c6.12 0 11.06-4.96 11.06-11.07v-73.4L88.5 26.7 44.72 70.49v73.4c0 6.1 4.94 11.06 11.06 11.06h10.36V99.24c0-6.1 5-11.06 11.18-11.06h22.36c6.19 0 11.19 4.95 11.19 11.06V154.94zm44.01-61.87v50.73A33.18 33.18 0 0 1 121.7 177H55.36a33.23 33.23 0 0 1-33.23-33.23V93.08l-3.24 3.24A11.05 11.05 0 1 1 3.24 80.68L80.68 3.24a11.05 11.05 0 0 1 15.64 0l77.44 77.44a11.05 11.05 0 1 1-15.65 15.64l-3.24-3.24z"/><rect id="h" width="34" height="52" x="90"/><filter id="i" width="102.9%" height="101.9%" x="-1.5%" y="-1%" filterUnits="objectBoundingBox"><feOffset dx="1" in="SourceAlpha" result="shadowOffsetInner1"/><feComposite in="shadowOffsetInner1" in2="SourceAlpha" k2="-1" k3="1" operator="arithmetic" result="shadowInnerInner1"/><feColorMatrix in="shadowInnerInner1" result="shadowMatrixInner1" values="0 0 0 0 0.929411765 0 0 0 0 0 0 0 0 0 0.709803922 0 0 0 1 0"/><feOffset dx="-1" in="SourceAlpha" result="shadowOffsetInner2"/><feComposite in="shadowOffsetInner2" in2="SourceAlpha" k2="-1" k3="1" operator="arithmetic" result="shadowInnerInner2"/><feColorMatrix in="shadowInnerInner2" result="shadowMatrixInner2" values="0 0 0 0 0.929411765 0 0 0 0 0 0 0 0 0 0.709803922 0 0 0 1 0"/><feMerge><feMergeNode in="shadowMatrixInner1"/><feMergeNode in="shadowMatrixInner2"/></feMerge></filter><rect id="j" width="11.5" height="52" x="13.5"/><filter id="k" width="108.7%" height="101.9%" x="-4.3%" y="-1%" filterUnits="objectBoundingBox"><feOffset dx="1" in="SourceAlpha" result="shadowOffsetInner1"/><feComposite in="shadowOffsetInner1" in2="SourceAlpha" k2="-1" k3="1" operator="arithmetic" result="shadowInnerInner1"/><feColorMatrix in="shadowInnerInner1" result="shadowMatrixInner1" values="0 0 0 0 0.929411765 0 0 0 0 0 0 0 0 0 0.709803922 0 0 0 1 0"/><feOffset dx="-1" in="SourceAlpha" result="shadowOffsetInner2"/><feComposite in="shadowOffsetInner2" in2="SourceAlpha" k2="-1" k3="1" operator="arithmetic" result="shadowInnerInner2"/><feColorMatrix in="shadowInnerInner2" result="shadowMatrixInner2" values="0 0 0 0 0.929411765 0 0 0 0 0 0 0 0 0 0.709803922 0 0 0 1 0"/><feMerge><feMergeNode in="shadowMatrixInner1"/><feMergeNode in="shadowMatrixInner2"/></feMerge></filter></defs><g fill="none" fill-rule="evenodd"><g transform="translate(92 92)"><mask id="b" fill="white"><use xlink:href="#a"/></mask><g mask="url(#b)"><mask id="d" fill="white"><use xlink:href="#c"/></mask><rect width="338" height="1" x="-1" fill="#D7D7DB" mask="url(#d)"/><rect width="338" height="1" x="-1" y="11" fill="#D7D7DB" mask="url(#d)" opacity=".3"/><rect width="338" height="1" x="-1" y="22" fill="#D7D7DB" mask="url(#d)" opacity=".3"/><rect width="338" height="1" x="-1" y="33" fill="#D7D7DB" mask="url(#d)" opacity=".3"/><rect width="338" height="1" x="-1" y="44" fill="#D7D7DB" mask="url(#d)"/><rect width="338" height="1" x="-1" y="55" fill="#D7D7DB" mask="url(#d)" opacity=".3"/><rect width="338" height="1" x="-1" y="66" fill="#D7D7DB" mask="url(#d)" opacity=".3"/><rect width="338" height="1" x="-1" y="77" fill="#D7D7DB" mask="url(#d)" opacity=".3"/><rect width="338" height="1" x="-1" y="88" fill="#D7D7DB" mask="url(#d)"/><rect width="338" height="1" x="-1" y="99" fill="#D7D7DB" mask="url(#d)" opacity=".3"/><rect width="338" height="1" x="-1" y="110" fill="#D7D7DB" mask="url(#d)" opacity=".3"/><rect width="338" height="1" x="-1" y="121" fill="#D7D7DB" mask="url(#d)" opacity=".3"/><rect width="338" height="1" x="-1" y="132" fill="#D7D7DB" mask="url(#d)"/><rect width="338" height="1" x="-1" y="143" fill="#D7D7DB" mask="url(#d)" opacity=".3"/><rect width="338" height="1" x="-1" y="154" fill="#D7D7DB" mask="url(#d)" opacity=".3"/><rect width="338" height="1" x="-1" y="165" fill="#D7D7DB" mask="url(#d)" opacity=".3"/><rect width="338" height="1" x="-1" y="176" fill="#D7D7DB" mask="url(#d)"/></g><g mask="url(#b)"><g transform="matrix(0 -1 1 0 0 265)"><mask id="f" fill="white"><use xlink:href="#e"/></mask><rect width="338" height="1" x="-73" fill="#D7D7DB" mask="url(#f)"/><rect width="338" height="1" x="-73" y="11" fill="#D7D7DB" mask="url(#f)" opacity=".3"/><rect width="338" height="1" x="-73" y="22" fill="#D7D7DB" mask="url(#f)" opacity=".3"/><rect width="338" height="1" x="-73" y="33" fill="#D7D7DB" mask="url(#f)" opacity=".3"/><rect width="338" height="1" x="-73" y="44" fill="#D7D7DB" mask="url(#f)"/><rect width="338" height="1" x="-73" y="55" fill="#D7D7DB" mask="url(#f)" opacity=".3"/><rect width="338" height="1" x="-73" y="66" fill="#D7D7DB" mask="url(#f)" opacity=".3"/><rect width="338" height="1" x="-73" y="77" fill="#D7D7DB" mask="url(#f)" opacity=".3"/><rect width="338" height="1" x="-73" y="88" fill="#D7D7DB" mask="url(#f)"/><rect width="338" height="1" x="-73" y="99" fill="#D7D7DB" mask="url(#f)" opacity=".3"/><rect width="338" height="1" x="-73" y="110" fill="#D7D7DB" mask="url(#f)" opacity=".3"/><rect width="338" height="1" x="-73" y="121" fill="#D7D7DB" mask="url(#f)" opacity=".3"/><rect width="338" height="1" x="-73" y="132" fill="#D7D7DB" mask="url(#f)"/><rect width="338" height="1" x="-73" y="143" fill="#D7D7DB" mask="url(#f)" opacity=".3"/><rect width="338" height="1" x="-73" y="154" fill="#D7D7DB" mask="url(#f)" opacity=".3"/><rect width="338" height="1" x="-73" y="165" fill="#D7D7DB" mask="url(#f)" opacity=".3"/><rect width="338" height="1" x="-73" y="176" fill="#D7D7DB" mask="url(#f)"/></g></g><rect width="165" height="165" x="6" y="6" stroke="#0C0C0D" stroke-opacity=".1" stroke-width="12"/></g><g transform="translate(92 92)"><use fill="#FFFFFF" xlink:href="#g"/><use fill="#0C0C0D" fill-opacity=".8" xlink:href="#g"/><rect width="64.38" height="64.38" x="89.5" y="111.63" stroke="#FF1AD9" stroke-width="2" rx="32.19"/><rect width="20.13" height="20.13" x="45.67" y="134.18" stroke="#FF1AD9" stroke-width="2" rx="10.06"/></g><g transform="translate(123 231)"><g transform="translate(0 56)"><rect width="1.05" height="9" x="24" fill="#ED00B5"/><rect width="11" height="1" x="14" y="4" fill="#ED00B5"/><rect width="1.05" height="9" x="13" fill="#ED00B5"/><rect width="38.67" height="22" y="12" fill="#ED00B5" fill-rule="nonzero" rx="2"/><text fill="#FFFFFF" font-family="FiraMono-Regular, Fira Mono" font-size="12"><tspan x="8.36" y="27">1px</tspan></text><polygon fill="#ED00B5" points="15 13 19 9 23 13 19 17"/></g><g transform="translate(88 56)"><rect width="1.05" height="9" x="35" fill="#ED00B5"/><rect width="33" height="1" x="3" y="4" fill="#ED00B5"/><rect width="1.05" height="9" x="2" fill="#ED00B5"/><rect width="38" height="22" y="12" fill="#ED00B5" fill-rule="nonzero" rx="2"/><text fill="#FFFFFF" font-family="FiraMono-Regular, Fira Mono" font-size="12"><tspan x="8.36" y="27">3px</tspan></text><polygon fill="#ED00B5" points="16 13 20 9 24 13 20 17"/></g><use fill="#FC2DD7" fill-opacity=".25" xlink:href="#h"/><use fill="black" filter="url(#i)" xlink:href="#h"/><g><use fill="#FC2DD7" fill-opacity=".25" xlink:href="#j"/><use fill="black" filter="url(#k)" xlink:href="#j"/></g></g></g></svg>