<svg xmlns="http://www.w3.org/2000/svg" width="360" height="240" viewBox="0 0 360 240">
  <g fill="#0C0C0D" fill-rule="evenodd">
    <path d="M119.863281,94.7539062 C119.386716,94.4908841 119.015626,94.1250023 118.75,93.65625 L118.625,93.65625 L118.625,95 L117.34375,95 L117.34375,83.234375 L118.6875,83.234375 L118.6875,87.90625 L118.8125,87.90625 C119.041668,87.4531227 119.394529,87.0937513 119.871094,86.828125 C120.347659,86.5624987 120.874997,86.4296875 121.453125,86.4296875 C122.161462,86.4296875 122.781247,86.6093732 123.3125,86.96875 C123.843753,87.3281268 124.255207,87.8359342 124.546875,88.4921875 C124.838543,89.1484408 124.984375,89.9140581 124.984375,90.7890625 C124.984375,91.6588585 124.838543,92.4231738 124.546875,93.0820312 C124.255207,93.7408887 123.842451,94.2499982 123.308594,94.609375 C122.774737,94.9687518 122.156254,95.1484375 121.453125,95.1484375 C120.869789,95.1484375 120.339846,95.0169284 119.863281,94.7539062 Z M119.820312,88.0234375 C119.445311,88.2786471 119.157553,88.6432268 118.957031,89.1171875 C118.756509,89.5911482 118.65625,90.1484343 118.65625,90.7890625 C118.65625,91.4296907 118.756509,91.9869768 118.957031,92.4609375 C119.157553,92.9348982 119.445311,93.2994779 119.820312,93.5546875 C120.195314,93.8098971 120.635414,93.9375 121.140625,93.9375 C121.651044,93.9375 122.089842,93.8125012 122.457031,93.5625 C122.824221,93.3124988 123.105468,92.9505232 123.300781,92.4765625 C123.496095,92.0026018 123.59375,91.4401074 123.59375,90.7890625 C123.59375,90.1380176 123.496095,89.5755232 123.300781,89.1015625 C123.105468,88.6276018 122.824221,88.2656262 122.457031,88.015625 C122.089842,87.7656238 121.651044,87.640625 121.140625,87.640625 C120.635414,87.640625 120.195314,87.7682279 119.820312,88.0234375 Z M128.488281,94.6210938 C127.902341,94.2695295 127.453127,93.7669304 127.140625,93.1132812 C126.828123,92.4596321 126.671875,91.6849003 126.671875,90.7890625 C126.671875,89.8932247 126.828123,89.1171908 127.140625,88.4609375 C127.453127,87.8046842 127.901039,87.3020851 128.484375,86.953125 C129.067711,86.6041649 129.757809,86.4296875 130.554688,86.4296875 C131.351566,86.4296875 132.041664,86.6041649 132.625,86.953125 C133.208336,87.3020851 133.656248,87.8046842 133.96875,88.4609375 C134.281252,89.1171908 134.4375,89.8932247 134.4375,90.7890625 C134.4375,91.6849003 134.281252,92.4596321 133.96875,93.1132812 C133.656248,93.7669304 133.207034,94.2695295 132.621094,94.6210938 C132.035153,94.972658 131.346358,95.1484375 130.554688,95.1484375 C129.763017,95.1484375 129.074222,94.972658 128.488281,94.6210938 Z M132.398438,93.1132812 C132.830731,92.5637993 133.046875,91.7890675 133.046875,90.7890625 C133.046875,89.7890575 132.830731,89.0143257 132.398438,88.4648438 C131.966144,87.9153618 131.351566,87.640625 130.554688,87.640625 C129.757809,87.640625 129.143231,87.9153618 128.710938,88.4648438 C128.278644,89.0143257 128.0625,89.7890575 128.0625,90.7890625 C128.0625,91.7890675 128.278644,92.5637993 128.710938,93.1132812 C129.143231,93.6627632 129.757809,93.9375 130.554688,93.9375 C131.351566,93.9375 131.966144,93.6627632 132.398438,93.1132812 Z M137.941406,94.6210938 C137.355466,94.2695295 136.906252,93.7669304 136.59375,93.1132812 C136.281248,92.4596321 136.125,91.6849003 136.125,90.7890625 C136.125,89.8932247 136.281248,89.1171908 136.59375,88.4609375 C136.906252,87.8046842 137.354164,87.3020851 137.9375,86.953125 C138.520836,86.6041649 139.210934,86.4296875 140.007812,86.4296875 C140.804691,86.4296875 141.494789,86.6041649 142.078125,86.953125 C142.661461,87.3020851 143.109373,87.8046842 143.421875,88.4609375 C143.734377,89.1171908 143.890625,89.8932247 143.890625,90.7890625 C143.890625,91.6849003 143.734377,92.4596321 143.421875,93.1132812 C143.109373,93.7669304 142.660159,94.2695295 142.074219,94.6210938 C141.488278,94.972658 140.799483,95.1484375 140.007812,95.1484375 C139.216142,95.1484375 138.527347,94.972658 137.941406,94.6210938 Z M141.851562,93.1132812 C142.283856,92.5637993 142.5,91.7890675 142.5,90.7890625 C142.5,89.7890575 142.283856,89.0143257 141.851562,88.4648438 C141.419269,87.9153618 140.804691,87.640625 140.007812,87.640625 C139.210934,87.640625 138.596356,87.9153618 138.164062,88.4648438 C137.731769,89.0143257 137.515625,89.7890575 137.515625,90.7890625 C137.515625,91.7890675 137.731769,92.5637993 138.164062,93.1132812 C138.596356,93.6627632 139.210934,93.9375 140.007812,93.9375 C140.804691,93.9375 141.419269,93.6627632 141.851562,93.1132812 Z M152.851562,86.578125 L149.226562,90.1875 L153.09375,95 L151.382812,95 L148.226562,91.0546875 L147.421875,91.8046875 L147.421875,95 L146.078125,95 L146.078125,83.234375 L147.421875,83.234375 L147.421875,90.2578125 L147.546875,90.2578125 L151.203125,86.578125 L152.851562,86.578125 Z M155.96875,86.578125 L155.96875,87.90625 L156.09375,87.90625 C156.286459,87.4374977 156.585935,87.07422 156.992188,86.8164062 C157.39844,86.5585925 157.88281,86.4296875 158.445312,86.4296875 C158.997399,86.4296875 159.472654,86.5624987 159.871094,86.828125 C160.269533,87.0937513 160.570311,87.4531227 160.773438,87.90625 L160.898438,87.90625 C161.127605,87.4531227 161.471352,87.0937513 161.929688,86.828125 C162.388023,86.5624987 162.903643,86.4296875 163.476562,86.4296875 C164.335942,86.4296875 164.997394,86.6679664 165.460938,87.1445312 C165.924481,87.6210961 166.15625,88.2994748 166.15625,89.1796875 L166.15625,95 L164.8125,95 L164.8125,89.4921875 C164.8125,88.8723927 164.665366,88.4088557 164.371094,88.1015625 C164.076821,87.7942693 163.632815,87.640625 163.039062,87.640625 C162.658852,87.640625 162.320314,87.7278637 162.023438,87.9023438 C161.726561,88.0768238 161.496095,88.3124985 161.332031,88.609375 C161.167968,88.9062515 161.085938,89.2317691 161.085938,89.5859375 L161.085938,95 L159.742188,95 L159.742188,89.28125 C159.742188,88.7812475 159.582033,88.382814 159.261719,88.0859375 C158.941405,87.789061 158.515628,87.640625 157.984375,87.640625 C157.624998,87.640625 157.295574,87.7356761 156.996094,87.9257812 C156.696613,88.1158864 156.460938,88.3749984 156.289062,88.703125 C156.117187,89.0312516 156.03125,89.390623 156.03125,89.78125 L156.03125,95 L154.6875,95 L154.6875,86.578125 L155.96875,86.578125 Z M169.492188,94.8398438 C169.059894,94.6341136 168.721355,94.3424498 168.476562,93.9648438 C168.23177,93.5872377 168.109375,93.1458359 168.109375,92.640625 C168.109375,91.8906212 168.374997,91.3020855 168.90625,90.875 C169.437503,90.4479145 170.195308,90.2057295 171.179688,90.1484375 L173.609375,90 L173.609375,89.234375 C173.609375,88.7135391 173.447918,88.3151055 173.125,88.0390625 C172.802082,87.7630195 172.328128,87.625 171.703125,87.625 C171.197914,87.625 170.778648,87.7161449 170.445312,87.8984375 C170.111977,88.0807301 169.898438,88.33854 169.804688,88.671875 L168.445312,88.671875 C168.502604,88.2239561 168.679686,87.8307309 168.976562,87.4921875 C169.273439,87.1536441 169.661456,86.891928 170.140625,86.7070312 C170.619794,86.5221345 171.156247,86.4296875 171.75,86.4296875 C172.427087,86.4296875 173.005206,86.5416655 173.484375,86.765625 C173.963544,86.9895845 174.328124,87.3111958 174.578125,87.7304688 C174.828126,88.1497417 174.953125,88.6510387 174.953125,89.234375 L174.953125,95 L173.671875,95 L173.671875,93.7578125 L173.546875,93.7578125 C173.27604,94.2057314 172.916669,94.549478 172.46875,94.7890625 C172.020831,95.028647 171.515628,95.1484375 170.953125,95.1484375 C170.411456,95.1484375 169.924481,95.0455739 169.492188,94.8398438 Z M172.433594,93.6914062 C172.800783,93.5065095 173.088541,93.2539079 173.296875,92.9335938 C173.505209,92.6132796 173.609375,92.2552103 173.609375,91.859375 L173.609375,91.0859375 L171.34375,91.234375 C170.70833,91.2760419 170.242189,91.408853 169.945312,91.6328125 C169.648436,91.856772 169.5,92.1822895 169.5,92.609375 C169.5,93.0312521 169.658853,93.36328 169.976562,93.6054688 C170.294272,93.8476575 170.703123,93.96875 171.203125,93.96875 C171.656252,93.96875 172.066404,93.876303 172.433594,93.6914062 Z M178.71875,86.578125 L178.71875,87.828125 L178.84375,87.828125 C178.927084,87.5572903 179.08203,87.3164073 179.308594,87.1054688 C179.535157,86.8945302 179.811196,86.7291673 180.136719,86.609375 C180.462241,86.4895827 180.809894,86.4296875 181.179688,86.4296875 C181.434897,86.4296875 181.658853,86.4427082 181.851562,86.46875 L181.851562,87.8125 C181.794271,87.7968749 181.669272,87.779948 181.476562,87.7617188 C181.283853,87.7434895 181.122396,87.734375 180.992188,87.734375 C180.57031,87.734375 180.191408,87.8216137 179.855469,87.9960938 C179.51953,88.1705738 179.256511,88.4140609 179.066406,88.7265625 C178.876301,89.0390641 178.78125,89.390623 178.78125,89.78125 L178.78125,95 L177.4375,95 L177.4375,86.578125 L178.71875,86.578125 Z M190.382812,86.578125 L186.757812,90.1875 L190.625,95 L188.914062,95 L185.757812,91.0546875 L184.953125,91.8046875 L184.953125,95 L183.609375,95 L183.609375,83.234375 L184.953125,83.234375 L184.953125,90.2578125 L185.078125,90.2578125 L188.734375,86.578125 L190.382812,86.578125 Z M191.460938,89.828125 L196.585938,89.828125 L196.585938,91.1015625 L191.460938,91.1015625 L191.460938,89.828125 Z M200.457031,94.6210938 C199.871091,94.2695295 199.421877,93.7669304 199.109375,93.1132812 C198.796873,92.4596321 198.640625,91.6849003 198.640625,90.7890625 C198.640625,89.8932247 198.796873,89.1171908 199.109375,88.4609375 C199.421877,87.8046842 199.869789,87.3020851 200.453125,86.953125 C201.036461,86.6041649 201.726559,86.4296875 202.523438,86.4296875 C203.320316,86.4296875 204.010414,86.6041649 204.59375,86.953125 C205.177086,87.3020851 205.624998,87.8046842 205.9375,88.4609375 C206.250002,89.1171908 206.40625,89.8932247 206.40625,90.7890625 C206.40625,91.6849003 206.250002,92.4596321 205.9375,93.1132812 C205.624998,93.7669304 205.175784,94.2695295 204.589844,94.6210938 C204.003903,94.972658 203.315108,95.1484375 202.523438,95.1484375 C201.731767,95.1484375 201.042972,94.972658 200.457031,94.6210938 Z M204.367188,93.1132812 C204.799481,92.5637993 205.015625,91.7890675 205.015625,90.7890625 C205.015625,89.7890575 204.799481,89.0143257 204.367188,88.4648438 C203.934894,87.9153618 203.320316,87.640625 202.523438,87.640625 C201.726559,87.640625 201.111981,87.9153618 200.679688,88.4648438 C200.247394,89.0143257 200.03125,89.7890575 200.03125,90.7890625 C200.03125,91.7890675 200.247394,92.5637993 200.679688,93.1132812 C201.111981,93.6627632 201.726559,93.9375 202.523438,93.9375 C203.320316,93.9375 203.934894,93.6627632 204.367188,93.1132812 Z M214.046875,95 L214.046875,93.6796875 L213.921875,93.6796875 C213.708332,94.1536482 213.380211,94.5169258 212.9375,94.7695312 C212.494789,95.0221367 211.953128,95.1484375 211.3125,95.1484375 C210.374995,95.1484375 209.661461,94.880211 209.171875,94.34375 C208.682289,93.807289 208.4375,93.0364634 208.4375,92.03125 L208.4375,86.578125 L209.78125,86.578125 L209.78125,91.703125 C209.78125,92.4687538 209.93229,93.0299461 210.234375,93.3867188 C210.53646,93.7434914 211.02083,93.921875 211.6875,93.921875 C212.421879,93.921875 212.988279,93.7148458 213.386719,93.3007812 C213.785158,92.8867167 213.984375,92.3072954 213.984375,91.5625 L213.984375,86.578125 L215.328125,86.578125 L215.328125,95 L214.046875,95 Z M219.765625,86.578125 L221.640625,86.578125 L221.640625,87.703125 L219.765625,87.703125 L219.765625,92.46875 C219.765625,92.9635441 219.864582,93.3229155 220.0625,93.546875 C220.260418,93.7708345 220.578123,93.8828125 221.015625,93.8828125 C221.208334,93.8828125 221.416666,93.8723959 221.640625,93.8515625 L221.640625,94.984375 C221.343749,95.0364586 221.08073,95.0625 220.851562,95.0625 C220.268226,95.0625 219.799481,94.9869799 219.445312,94.8359375 C219.091144,94.6848951 218.832032,94.4453141 218.667969,94.1171875 C218.503905,93.7890609 218.421875,93.3541694 218.421875,92.8125 L218.421875,87.703125 L217.0625,87.703125 L217.0625,86.578125 L218.421875,86.578125 L218.421875,84.3984375 L219.765625,84.3984375 L219.765625,86.578125 Z M225.09375,83.234375 L225.09375,95 L223.75,95 L223.75,83.234375 L225.09375,83.234375 Z M227.746094,84.5898438 C227.561197,84.404947 227.46875,84.1848971 227.46875,83.9296875 C227.46875,83.6692695 227.561197,83.4479176 227.746094,83.265625 C227.930991,83.0833324 228.15104,82.9921875 228.40625,82.9921875 C228.666668,82.9921875 228.88802,83.0833324 229.070312,83.265625 C229.252605,83.4479176 229.34375,83.6692695 229.34375,83.9296875 C229.34375,84.1848971 229.252605,84.404947 229.070312,84.5898438 C228.88802,84.7747405 228.666668,84.8671875 228.40625,84.8671875 C228.15104,84.8671875 227.930991,84.7747405 227.746094,84.5898438 Z M229.078125,86.578125 L229.078125,95 L227.734375,95 L227.734375,86.578125 L229.078125,86.578125 Z M232.921875,86.578125 L232.921875,87.90625 L233.046875,87.90625 C233.265626,87.4270809 233.584633,87.0611992 234.003906,86.8085938 C234.423179,86.5559883 234.947914,86.4296875 235.578125,86.4296875 C236.520838,86.4296875 237.247393,86.6992161 237.757812,87.2382812 C238.268232,87.7773464 238.523438,88.54687 238.523438,89.546875 L238.523438,95 L237.179688,95 L237.179688,89.875 C237.179688,89.1197879 237.016929,88.5585956 236.691406,88.1914062 C236.365884,87.8242169 235.867191,87.640625 235.195312,87.640625 C234.747394,87.640625 234.358075,87.7356761 234.027344,87.9257812 C233.696613,88.1158864 233.440105,88.3906232 233.257812,88.75 C233.07552,89.1093768 232.984375,89.5312476 232.984375,90.015625 L232.984375,95 L231.640625,95 L231.640625,86.578125 L232.921875,86.578125 Z M246.660156,94.53125 C246.037757,94.9427104 245.268234,95.1484375 244.351562,95.1484375 C243.580725,95.1484375 242.908857,94.9713559 242.335938,94.6171875 C241.763018,94.2630191 241.322918,93.7578158 241.015625,93.1015625 C240.708332,92.4453092 240.554688,91.6770877 240.554688,90.796875 C240.554688,89.9218706 240.709634,89.1549512 241.019531,88.4960938 C241.329429,87.8372363 241.77083,87.3281268 242.34375,86.96875 C242.91667,86.6093732 243.585934,86.4296875 244.351562,86.4296875 C245.101566,86.4296875 245.751299,86.6002587 246.300781,86.9414062 C246.850263,87.2825538 247.272134,87.7721322 247.566406,88.4101562 C247.860679,89.0481803 248.007812,89.7994748 248.007812,90.6640625 L248.007812,91.1796875 L241.953125,91.1796875 L241.953125,91.2421875 C241.973958,91.7942736 242.087239,92.2747375 242.292969,92.6835938 C242.498699,93.09245 242.779946,93.407551 243.136719,93.6289062 C243.493491,93.8502615 243.908852,93.9609375 244.382812,93.9609375 C244.924482,93.9609375 245.377602,93.8645843 245.742188,93.671875 C246.106773,93.4791657 246.377603,93.1953144 246.554688,92.8203125 L247.898438,92.8203125 C247.695311,93.5494828 247.282555,94.1197896 246.660156,94.53125 Z M243.148438,87.9257812 C242.799477,88.1315114 242.520834,88.4205711 242.3125,88.7929688 C242.104166,89.1653664 241.984375,89.5989559 241.953125,90.09375 L246.59375,90.09375 C246.583333,89.5989559 246.483074,89.1653664 246.292969,88.7929688 C246.102864,88.4205711 245.839845,88.1315114 245.503906,87.9257812 C245.167967,87.7200511 244.778648,87.6171875 244.335938,87.6171875 C243.893227,87.6171875 243.497398,87.7200511 243.148438,87.9257812 Z M250.71875,94.9414062 C250.562499,94.85026 250.438803,94.7265633 250.347656,94.5703125 C250.25651,94.4140617 250.210938,94.2447926 250.210938,94.0625 C250.210938,93.8802074 250.25651,93.7109383 250.347656,93.5546875 C250.438803,93.3984367 250.562499,93.27474 250.71875,93.1835938 C250.875001,93.0924475 251.04427,93.046875 251.226562,93.046875 C251.408855,93.046875 251.578124,93.0924475 251.734375,93.1835938 C251.890626,93.27474 252.014322,93.3984367 252.105469,93.5546875 C252.196615,93.7109383 252.242188,93.8802074 252.242188,94.0625 C252.242188,94.2447926 252.196615,94.4140617 252.105469,94.5703125 C252.014322,94.7265633 251.890626,94.85026 251.734375,94.9414062 C251.578124,95.0325525 251.408855,95.078125 251.226562,95.078125 C251.04427,95.078125 250.875001,95.0325525 250.71875,94.9414062 Z M255.082031,87.6328125 C255.35547,87.2578106 255.731768,86.9635427 256.210938,86.75 C256.690107,86.5364573 257.223955,86.4296875 257.8125,86.4296875 C258.395836,86.4296875 258.916664,86.5221345 259.375,86.7070312 C259.833336,86.891928 260.201822,87.1536441 260.480469,87.4921875 C260.759116,87.8307309 260.927083,88.2291644 260.984375,88.6875 L259.65625,88.6875 C259.5625,88.3437483 259.35547,88.0716156 259.035156,87.8710938 C258.714842,87.6705719 258.30469,87.5703125 257.804688,87.5703125 C257.471352,87.5703125 257.169272,87.6236974 256.898438,87.7304688 C256.627603,87.8372401 256.414063,87.9856761 256.257812,88.1757812 C256.101562,88.3658864 256.023438,88.5833321 256.023438,88.828125 C256.023438,89.1145848 256.141926,89.3528636 256.378906,89.5429688 C256.615887,89.7330739 256.984373,89.8880202 257.484375,90.0078125 L258.78125,90.3203125 C259.583337,90.5130218 260.175779,90.7916648 260.558594,91.15625 C260.941408,91.5208352 261.132812,92.0026012 261.132812,92.6015625 C261.132812,93.0963566 260.985679,93.5364564 260.691406,93.921875 C260.397134,94.3072936 259.993492,94.6080718 259.480469,94.8242188 C258.967445,95.0403657 258.393232,95.1484375 257.757812,95.1484375 C257.138018,95.1484375 256.587242,95.0546884 256.105469,94.8671875 C255.623696,94.6796866 255.238283,94.4127621 254.949219,94.0664062 C254.660155,93.7200504 254.492188,93.3151065 254.445312,92.8515625 L255.828125,92.8515625 C255.942709,93.2161477 256.169269,93.5013011 256.507812,93.7070312 C256.846356,93.9127614 257.278643,94.015625 257.804688,94.015625 C258.179689,94.015625 258.514321,93.959636 258.808594,93.8476562 C259.102866,93.7356765 259.333332,93.5807302 259.5,93.3828125 C259.666668,93.1848948 259.75,92.9583346 259.75,92.703125 C259.75,92.1302055 259.304692,91.7343761 258.414062,91.515625 L256.96875,91.1640625 C256.171871,90.9713532 255.589846,90.6940122 255.222656,90.3320312 C254.855467,89.9700503 254.671875,89.4869822 254.671875,88.8828125 C254.671875,88.4244769 254.808592,88.0078144 255.082031,87.6328125 Z M266.015625,93.515625 L266.140625,93.515625 L268.445312,86.578125 L269.882812,86.578125 L266.765625,95 L265.390625,95 L262.273438,86.578125 L263.710938,86.578125 L266.015625,93.515625 Z M273.074219,97.9492188 C272.566404,97.7591136 272.16146,97.4908871 271.859375,97.1445312 C271.55729,96.7981754 271.372396,96.3932315 271.304688,95.9296875 L272.726562,95.9296875 C272.79948,96.2786476 273.020831,96.5546865 273.390625,96.7578125 C273.760419,96.9609385 274.242185,97.0625 274.835938,97.0625 C275.59115,97.0625 276.180987,96.8867205 276.605469,96.5351562 C277.02995,96.183592 277.242188,95.6979198 277.242188,95.078125 L277.242188,93.421875 L277.117188,93.421875 C276.851561,93.885419 276.489586,94.2434883 276.03125,94.4960938 C275.572914,94.7486992 275.05469,94.875 274.476562,94.875 C273.757809,94.875 273.132815,94.7005226 272.601562,94.3515625 C272.07031,94.0026024 271.66146,93.5104198 271.375,92.875 C271.08854,92.2395802 270.945312,91.5026084 270.945312,90.6640625 C270.945312,89.8255166 271.089842,89.0872428 271.378906,88.4492188 C271.66797,87.8111947 272.078122,87.3151059 272.609375,86.9609375 C273.140628,86.6067691 273.763017,86.4296875 274.476562,86.4296875 C275.065107,86.4296875 275.60156,86.5638007 276.085938,86.8320312 C276.570315,87.1002618 276.934895,87.4609352 277.179688,87.9140625 L277.304688,87.9140625 L277.304688,86.578125 L278.585938,86.578125 L278.585938,95.1484375 C278.585938,95.7734406 278.433595,96.317706 278.128906,96.78125 C277.824217,97.244794 277.389326,97.6028633 276.824219,97.8554688 C276.259112,98.1080742 275.596358,98.234375 274.835938,98.234375 C274.169267,98.234375 273.582034,98.1393239 273.074219,97.9492188 Z M276.972656,89.0664062 C276.772134,88.6106748 276.483075,88.2591158 276.105469,88.0117188 C275.727863,87.7643217 275.283857,87.640625 274.773438,87.640625 C274.25781,87.640625 273.81771,87.7643217 273.453125,88.0117188 C273.08854,88.2591158 272.811199,88.6093727 272.621094,89.0625 C272.430989,89.5156273 272.335938,90.0494761 272.335938,90.6640625 C272.335938,91.2786489 272.430989,91.8124977 272.621094,92.265625 C272.811199,92.7187523 273.08854,93.0690092 273.453125,93.3164062 C273.81771,93.5638033 274.25781,93.6875 274.773438,93.6875 C275.289065,93.6875 275.734373,93.5638033 276.109375,93.3164062 C276.484377,93.0690092 276.772134,92.7174502 276.972656,92.2617188 C277.173178,91.8059873 277.273438,91.2734405 277.273438,90.6640625 C277.273438,90.0546845 277.173178,89.5221377 276.972656,89.0664062 Z"/>
    <path fill-opacity=".8" fill-rule="nonzero" d="M95.6071529,84.6420563 L94.9345148,83.2912081 L91.8000411,76.9962884 L87.9940335,84.6418082 L86.5085543,84.9072289 L79.7859887,86.1083625 L85.6102793,92.3719657 L85.4129115,93.7850007 L84.4100829,100.964645 L91.7992721,97.1129901 L93.1858596,97.8355764 L99.1904655,100.964742 L97.9882881,92.37198 L98.9604934,91.3267757 L103.815187,86.1075642 L95.6071529,84.6420563 Z M105.785993,83.412 C106.575798,83.55 107.229636,84.112 107.485573,84.878 C107.74151,85.644 107.559555,86.488 107.009691,87.078 L101.157135,93.37 L102.376834,102.088 C102.490806,102.91 102.140892,103.714 101.465059,104.192 C100.787226,104.668 99.9074435,104.724 99.1796231,104.342 L91.7994447,100.496 L84.4172668,104.344 C84.0973458,104.512 83.7474322,104.594 83.4015176,104.594 C82.9576271,104.594 82.5157362,104.46 82.13583,104.192 C81.4579973,103.714 81.1100831,102.91 81.224055,102.088 L82.4417544,93.37 L76.589199,87.076 C76.0393347,86.488 75.8573796,85.644 76.115316,84.878 C76.3712528,84.112 77.0250914,83.55 77.820895,83.412 L85.9808809,81.954 L89.8319304,74.218 C90.2038386,73.466 90.959652,73 91.7994447,73 C92.641237,73 93.3950509,73.466 93.7689586,74.22 L97.6200081,81.954 L105.785993,83.412 Z"/>
    <path d="M119.863281,152.753906 C119.386716,152.490884 119.015626,152.125002 118.75,151.65625 L118.625,151.65625 L118.625,153 L117.34375,153 L117.34375,141.234375 L118.6875,141.234375 L118.6875,145.90625 L118.8125,145.90625 C119.041668,145.453123 119.394529,145.093751 119.871094,144.828125 C120.347659,144.562499 120.874997,144.429688 121.453125,144.429688 C122.161462,144.429688 122.781247,144.609373 123.3125,144.96875 C123.843753,145.328127 124.255207,145.835934 124.546875,146.492188 C124.838543,147.148441 124.984375,147.914058 124.984375,148.789062 C124.984375,149.658859 124.838543,150.423174 124.546875,151.082031 C124.255207,151.740889 123.842451,152.249998 123.308594,152.609375 C122.774737,152.968752 122.156254,153.148438 121.453125,153.148438 C120.869789,153.148438 120.339846,153.016928 119.863281,152.753906 Z M119.820312,146.023438 C119.445311,146.278647 119.157553,146.643227 118.957031,147.117188 C118.756509,147.591148 118.65625,148.148434 118.65625,148.789062 C118.65625,149.429691 118.756509,149.986977 118.957031,150.460938 C119.157553,150.934898 119.445311,151.299478 119.820312,151.554688 C120.195314,151.809897 120.635414,151.9375 121.140625,151.9375 C121.651044,151.9375 122.089842,151.812501 122.457031,151.5625 C122.824221,151.312499 123.105468,150.950523 123.300781,150.476562 C123.496095,150.002602 123.59375,149.440107 123.59375,148.789062 C123.59375,148.138018 123.496095,147.575523 123.300781,147.101562 C123.105468,146.627602 122.824221,146.265626 122.457031,146.015625 C122.089842,145.765624 121.651044,145.640625 121.140625,145.640625 C120.635414,145.640625 120.195314,145.768228 119.820312,146.023438 Z M128.488281,152.621094 C127.902341,152.269529 127.453127,151.76693 127.140625,151.113281 C126.828123,150.459632 126.671875,149.6849 126.671875,148.789062 C126.671875,147.893225 126.828123,147.117191 127.140625,146.460938 C127.453127,145.804684 127.901039,145.302085 128.484375,144.953125 C129.067711,144.604165 129.757809,144.429688 130.554688,144.429688 C131.351566,144.429688 132.041664,144.604165 132.625,144.953125 C133.208336,145.302085 133.656248,145.804684 133.96875,146.460938 C134.281252,147.117191 134.4375,147.893225 134.4375,148.789062 C134.4375,149.6849 134.281252,150.459632 133.96875,151.113281 C133.656248,151.76693 133.207034,152.269529 132.621094,152.621094 C132.035153,152.972658 131.346358,153.148438 130.554688,153.148438 C129.763017,153.148438 129.074222,152.972658 128.488281,152.621094 Z M132.398438,151.113281 C132.830731,150.563799 133.046875,149.789067 133.046875,148.789062 C133.046875,147.789058 132.830731,147.014326 132.398438,146.464844 C131.966144,145.915362 131.351566,145.640625 130.554688,145.640625 C129.757809,145.640625 129.143231,145.915362 128.710938,146.464844 C128.278644,147.014326 128.0625,147.789058 128.0625,148.789062 C128.0625,149.789067 128.278644,150.563799 128.710938,151.113281 C129.143231,151.662763 129.757809,151.9375 130.554688,151.9375 C131.351566,151.9375 131.966144,151.662763 132.398438,151.113281 Z M137.941406,152.621094 C137.355466,152.269529 136.906252,151.76693 136.59375,151.113281 C136.281248,150.459632 136.125,149.6849 136.125,148.789062 C136.125,147.893225 136.281248,147.117191 136.59375,146.460938 C136.906252,145.804684 137.354164,145.302085 137.9375,144.953125 C138.520836,144.604165 139.210934,144.429688 140.007812,144.429688 C140.804691,144.429688 141.494789,144.604165 142.078125,144.953125 C142.661461,145.302085 143.109373,145.804684 143.421875,146.460938 C143.734377,147.117191 143.890625,147.893225 143.890625,148.789062 C143.890625,149.6849 143.734377,150.459632 143.421875,151.113281 C143.109373,151.76693 142.660159,152.269529 142.074219,152.621094 C141.488278,152.972658 140.799483,153.148438 140.007812,153.148438 C139.216142,153.148438 138.527347,152.972658 137.941406,152.621094 Z M141.851562,151.113281 C142.283856,150.563799 142.5,149.789067 142.5,148.789062 C142.5,147.789058 142.283856,147.014326 141.851562,146.464844 C141.419269,145.915362 140.804691,145.640625 140.007812,145.640625 C139.210934,145.640625 138.596356,145.915362 138.164062,146.464844 C137.731769,147.014326 137.515625,147.789058 137.515625,148.789062 C137.515625,149.789067 137.731769,150.563799 138.164062,151.113281 C138.596356,151.662763 139.210934,151.9375 140.007812,151.9375 C140.804691,151.9375 141.419269,151.662763 141.851562,151.113281 Z M152.851562,144.578125 L149.226562,148.1875 L153.09375,153 L151.382812,153 L148.226562,149.054688 L147.421875,149.804688 L147.421875,153 L146.078125,153 L146.078125,141.234375 L147.421875,141.234375 L147.421875,148.257812 L147.546875,148.257812 L151.203125,144.578125 L152.851562,144.578125 Z M155.96875,144.578125 L155.96875,145.90625 L156.09375,145.90625 C156.286459,145.437498 156.585935,145.07422 156.992188,144.816406 C157.39844,144.558592 157.88281,144.429688 158.445312,144.429688 C158.997399,144.429688 159.472654,144.562499 159.871094,144.828125 C160.269533,145.093751 160.570311,145.453123 160.773438,145.90625 L160.898438,145.90625 C161.127605,145.453123 161.471352,145.093751 161.929688,144.828125 C162.388023,144.562499 162.903643,144.429688 163.476562,144.429688 C164.335942,144.429688 164.997394,144.667966 165.460938,145.144531 C165.924481,145.621096 166.15625,146.299475 166.15625,147.179688 L166.15625,153 L164.8125,153 L164.8125,147.492188 C164.8125,146.872393 164.665366,146.408856 164.371094,146.101562 C164.076821,145.794269 163.632815,145.640625 163.039062,145.640625 C162.658852,145.640625 162.320314,145.727864 162.023438,145.902344 C161.726561,146.076824 161.496095,146.312499 161.332031,146.609375 C161.167968,146.906251 161.085938,147.231769 161.085938,147.585938 L161.085938,153 L159.742188,153 L159.742188,147.28125 C159.742188,146.781248 159.582033,146.382814 159.261719,146.085938 C158.941405,145.789061 158.515628,145.640625 157.984375,145.640625 C157.624998,145.640625 157.295574,145.735676 156.996094,145.925781 C156.696613,146.115886 156.460938,146.374998 156.289062,146.703125 C156.117187,147.031252 156.03125,147.390623 156.03125,147.78125 L156.03125,153 L154.6875,153 L154.6875,144.578125 L155.96875,144.578125 Z M169.492188,152.839844 C169.059894,152.634114 168.721355,152.34245 168.476562,151.964844 C168.23177,151.587238 168.109375,151.145836 168.109375,150.640625 C168.109375,149.890621 168.374997,149.302085 168.90625,148.875 C169.437503,148.447915 170.195308,148.205729 171.179688,148.148438 L173.609375,148 L173.609375,147.234375 C173.609375,146.713539 173.447918,146.315106 173.125,146.039062 C172.802082,145.763019 172.328128,145.625 171.703125,145.625 C171.197914,145.625 170.778648,145.716145 170.445312,145.898438 C170.111977,146.08073 169.898438,146.33854 169.804688,146.671875 L168.445312,146.671875 C168.502604,146.223956 168.679686,145.830731 168.976562,145.492188 C169.273439,145.153644 169.661456,144.891928 170.140625,144.707031 C170.619794,144.522134 171.156247,144.429688 171.75,144.429688 C172.427087,144.429688 173.005206,144.541666 173.484375,144.765625 C173.963544,144.989584 174.328124,145.311196 174.578125,145.730469 C174.828126,146.149742 174.953125,146.651039 174.953125,147.234375 L174.953125,153 L173.671875,153 L173.671875,151.757812 L173.546875,151.757812 C173.27604,152.205731 172.916669,152.549478 172.46875,152.789062 C172.020831,153.028647 171.515628,153.148438 170.953125,153.148438 C170.411456,153.148438 169.924481,153.045574 169.492188,152.839844 Z M172.433594,151.691406 C172.800783,151.506509 173.088541,151.253908 173.296875,150.933594 C173.505209,150.61328 173.609375,150.25521 173.609375,149.859375 L173.609375,149.085938 L171.34375,149.234375 C170.70833,149.276042 170.242189,149.408853 169.945312,149.632812 C169.648436,149.856772 169.5,150.18229 169.5,150.609375 C169.5,151.031252 169.658853,151.36328 169.976562,151.605469 C170.294272,151.847657 170.703123,151.96875 171.203125,151.96875 C171.656252,151.96875 172.066404,151.876303 172.433594,151.691406 Z M178.71875,144.578125 L178.71875,145.828125 L178.84375,145.828125 C178.927084,145.55729 179.08203,145.316407 179.308594,145.105469 C179.535157,144.89453 179.811196,144.729167 180.136719,144.609375 C180.462241,144.489583 180.809894,144.429688 181.179688,144.429688 C181.434897,144.429688 181.658853,144.442708 181.851562,144.46875 L181.851562,145.8125 C181.794271,145.796875 181.669272,145.779948 181.476562,145.761719 C181.283853,145.743489 181.122396,145.734375 180.992188,145.734375 C180.57031,145.734375 180.191408,145.821614 179.855469,145.996094 C179.51953,146.170574 179.256511,146.414061 179.066406,146.726562 C178.876301,147.039064 178.78125,147.390623 178.78125,147.78125 L178.78125,153 L177.4375,153 L177.4375,144.578125 L178.71875,144.578125 Z M190.382812,144.578125 L186.757812,148.1875 L190.625,153 L188.914062,153 L185.757812,149.054688 L184.953125,149.804688 L184.953125,153 L183.609375,153 L183.609375,141.234375 L184.953125,141.234375 L184.953125,148.257812 L185.078125,148.257812 L188.734375,144.578125 L190.382812,144.578125 Z M191.460938,147.828125 L196.585938,147.828125 L196.585938,149.101562 L191.460938,149.101562 L191.460938,147.828125 Z M197.914062,145.703125 L197.914062,144.578125 L199.3125,144.578125 L199.3125,143.757812 C199.3125,142.914058 199.524737,142.295575 199.949219,141.902344 C200.3737,141.509113 201.0026,141.3125 201.835938,141.3125 C202.075522,141.3125 202.351561,141.338541 202.664062,141.390625 L202.664062,142.515625 C202.45052,142.46875 202.200522,142.445312 201.914062,142.445312 C201.075517,142.445312 200.65625,142.895829 200.65625,143.796875 L200.65625,144.578125 L202.585938,144.578125 L202.585938,145.703125 L200.65625,145.703125 L200.65625,153 L199.3125,153 L199.3125,145.703125 L197.914062,145.703125 Z M204.582031,142.589844 C204.397134,142.404947 204.304688,142.184897 204.304688,141.929688 C204.304688,141.66927 204.397134,141.447918 204.582031,141.265625 C204.766928,141.083332 204.986978,140.992188 205.242188,140.992188 C205.502605,140.992188 205.723957,141.083332 205.90625,141.265625 C206.088543,141.447918 206.179688,141.66927 206.179688,141.929688 C206.179688,142.184897 206.088543,142.404947 205.90625,142.589844 C205.723957,142.774741 205.502605,142.867188 205.242188,142.867188 C204.986978,142.867188 204.766928,142.774741 204.582031,142.589844 Z M205.914062,144.578125 L205.914062,153 L204.570312,153 L204.570312,144.578125 L205.914062,144.578125 Z M209.898438,141.234375 L209.898438,153 L208.554688,153 L208.554688,141.234375 L209.898438,141.234375 Z M213.929688,141.234375 L213.929688,153 L212.585938,153 L212.585938,141.234375 L213.929688,141.234375 Z M222.222656,152.53125 C221.600257,152.94271 220.830734,153.148438 219.914062,153.148438 C219.143225,153.148438 218.471357,152.971356 217.898438,152.617188 C217.325518,152.263019 216.885418,151.757816 216.578125,151.101562 C216.270832,150.445309 216.117188,149.677088 216.117188,148.796875 C216.117188,147.921871 216.272134,147.154951 216.582031,146.496094 C216.891929,145.837236 217.33333,145.328127 217.90625,144.96875 C218.47917,144.609373 219.148434,144.429688 219.914062,144.429688 C220.664066,144.429688 221.313799,144.600259 221.863281,144.941406 C222.412763,145.282554 222.834634,145.772132 223.128906,146.410156 C223.423179,147.04818 223.570312,147.799475 223.570312,148.664062 L223.570312,149.179688 L217.515625,149.179688 L217.515625,149.242188 C217.536458,149.794274 217.649739,150.274738 217.855469,150.683594 C218.061199,151.09245 218.342446,151.407551 218.699219,151.628906 C219.055991,151.850262 219.471352,151.960938 219.945312,151.960938 C220.486982,151.960938 220.940102,151.864584 221.304688,151.671875 C221.669273,151.479166 221.940103,151.195314 222.117188,150.820312 L223.460938,150.820312 C223.257811,151.549483 222.845055,152.11979 222.222656,152.53125 Z M218.710938,145.925781 C218.361977,146.131511 218.083334,146.420571 217.875,146.792969 C217.666666,147.165366 217.546875,147.598956 217.515625,148.09375 L222.15625,148.09375 C222.145833,147.598956 222.045574,147.165366 221.855469,146.792969 C221.665364,146.420571 221.402345,146.131511 221.066406,145.925781 C220.730467,145.720051 220.341148,145.617188 219.898438,145.617188 C219.455727,145.617188 219.059898,145.720051 218.710938,145.925781 Z M226.925781,152.613281 C226.391924,152.256509 225.98047,151.748701 225.691406,151.089844 C225.402342,150.430986 225.257812,149.664067 225.257812,148.789062 C225.257812,147.919266 225.403644,147.154951 225.695312,146.496094 C225.986981,145.837236 226.399737,145.328127 226.933594,144.96875 C227.467451,144.609373 228.088538,144.429688 228.796875,144.429688 C229.38542,144.429688 229.912758,144.561197 230.378906,144.824219 C230.845054,145.087241 231.197915,145.447914 231.4375,145.90625 L231.554688,145.90625 L231.554688,141.234375 L232.898438,141.234375 L232.898438,153 L231.617188,153 L231.617188,151.65625 L231.492188,151.65625 C231.226561,152.125002 230.856773,152.490884 230.382812,152.753906 C229.908852,153.016928 229.380211,153.148438 228.796875,153.148438 C228.08333,153.148438 227.459638,152.970054 226.925781,152.613281 Z M227.796875,146.019531 C227.427081,146.272137 227.14323,146.634112 226.945312,147.105469 C226.747395,147.576825 226.648438,148.138018 226.648438,148.789062 C226.648438,149.440107 226.746093,150.002602 226.941406,150.476562 C227.13672,150.950523 227.419269,151.312499 227.789062,151.5625 C228.158856,151.812501 228.598956,151.9375 229.109375,151.9375 C229.614586,151.9375 230.053384,151.809897 230.425781,151.554688 C230.798179,151.299478 231.084634,150.9362 231.285156,150.464844 C231.485678,149.993487 231.585938,149.434899 231.585938,148.789062 C231.585938,148.148434 231.485678,147.591148 231.285156,147.117188 C231.084634,146.643227 230.798179,146.278647 230.425781,146.023438 C230.053384,145.768228 229.614586,145.640625 229.109375,145.640625 C228.604164,145.640625 228.166669,145.766926 227.796875,146.019531 Z M236.109375,152.941406 C235.953124,152.85026 235.829428,152.726563 235.738281,152.570312 C235.647135,152.414062 235.601562,152.244793 235.601562,152.0625 C235.601562,151.880207 235.647135,151.710938 235.738281,151.554688 C235.829428,151.398437 235.953124,151.27474 236.109375,151.183594 C236.265626,151.092447 236.434895,151.046875 236.617188,151.046875 C236.79948,151.046875 236.968749,151.092447 237.125,151.183594 C237.281251,151.27474 237.404947,151.398437 237.496094,151.554688 C237.58724,151.710938 237.632812,151.880207 237.632812,152.0625 C237.632812,152.244793 237.58724,152.414062 237.496094,152.570312 C237.404947,152.726563 237.281251,152.85026 237.125,152.941406 C236.968749,153.032553 236.79948,153.078125 236.617188,153.078125 C236.434895,153.078125 236.265626,153.032553 236.109375,152.941406 Z M240.472656,145.632812 C240.746095,145.257811 241.122393,144.963543 241.601562,144.75 C242.080732,144.536457 242.61458,144.429688 243.203125,144.429688 C243.786461,144.429688 244.307289,144.522134 244.765625,144.707031 C245.223961,144.891928 245.592447,145.153644 245.871094,145.492188 C246.149741,145.830731 246.317708,146.229164 246.375,146.6875 L245.046875,146.6875 C244.953125,146.343748 244.746095,146.071616 244.425781,145.871094 C244.105467,145.670572 243.695315,145.570312 243.195312,145.570312 C242.861977,145.570312 242.559897,145.623697 242.289062,145.730469 C242.018228,145.83724 241.804688,145.985676 241.648438,146.175781 C241.492187,146.365886 241.414062,146.583332 241.414062,146.828125 C241.414062,147.114585 241.532551,147.352864 241.769531,147.542969 C242.006512,147.733074 242.374998,147.88802 242.875,148.007812 L244.171875,148.320312 C244.973962,148.513022 245.566404,148.791665 245.949219,149.15625 C246.332033,149.520835 246.523438,150.002601 246.523438,150.601562 C246.523438,151.096357 246.376304,151.536456 246.082031,151.921875 C245.787759,152.307294 245.384117,152.608072 244.871094,152.824219 C244.35807,153.040366 243.783857,153.148438 243.148438,153.148438 C242.528643,153.148438 241.977867,153.054688 241.496094,152.867188 C241.014321,152.679687 240.628908,152.412762 240.339844,152.066406 C240.05078,151.72005 239.882813,151.315106 239.835938,150.851562 L241.21875,150.851562 C241.333334,151.216148 241.559894,151.501301 241.898438,151.707031 C242.236981,151.912761 242.669268,152.015625 243.195312,152.015625 C243.570314,152.015625 243.904946,151.959636 244.199219,151.847656 C244.493491,151.735677 244.723957,151.58073 244.890625,151.382812 C245.057292,151.184895 245.140625,150.958335 245.140625,150.703125 C245.140625,150.130205 244.695317,149.734376 243.804688,149.515625 L242.359375,149.164062 C241.562496,148.971353 240.980471,148.694012 240.613281,148.332031 C240.246092,147.97005 240.0625,147.486982 240.0625,146.882812 C240.0625,146.424477 240.199217,146.007814 240.472656,145.632812 Z M251.40625,151.515625 L251.53125,151.515625 L253.835938,144.578125 L255.273438,144.578125 L252.15625,153 L250.78125,153 L247.664062,144.578125 L249.101562,144.578125 L251.40625,151.515625 Z M258.464844,155.949219 C257.957029,155.759114 257.552085,155.490887 257.25,155.144531 C256.947915,154.798175 256.763021,154.393231 256.695312,153.929688 L258.117188,153.929688 C258.190105,154.278648 258.411456,154.554686 258.78125,154.757812 C259.151044,154.960939 259.63281,155.0625 260.226562,155.0625 C260.981775,155.0625 261.571612,154.886721 261.996094,154.535156 C262.420575,154.183592 262.632812,153.69792 262.632812,153.078125 L262.632812,151.421875 L262.507812,151.421875 C262.242186,151.885419 261.880211,152.243488 261.421875,152.496094 C260.963539,152.748699 260.445315,152.875 259.867188,152.875 C259.148434,152.875 258.52344,152.700523 257.992188,152.351562 C257.460935,152.002602 257.052085,151.51042 256.765625,150.875 C256.479165,150.23958 256.335938,149.502608 256.335938,148.664062 C256.335938,147.825517 256.480467,147.087243 256.769531,146.449219 C257.058595,145.811195 257.468747,145.315106 258,144.960938 C258.531253,144.606769 259.153642,144.429688 259.867188,144.429688 C260.455732,144.429688 260.992185,144.563801 261.476562,144.832031 C261.96094,145.100262 262.32552,145.460935 262.570312,145.914062 L262.695312,145.914062 L262.695312,144.578125 L263.976562,144.578125 L263.976562,153.148438 C263.976562,153.773441 263.82422,154.317706 263.519531,154.78125 C263.214842,155.244794 262.779951,155.602863 262.214844,155.855469 C261.649737,156.108074 260.986983,156.234375 260.226562,156.234375 C259.559892,156.234375 258.972659,156.139324 258.464844,155.949219 Z M262.363281,147.066406 C262.162759,146.610675 261.8737,146.259116 261.496094,146.011719 C261.118488,145.764322 260.674482,145.640625 260.164062,145.640625 C259.648435,145.640625 259.208335,145.764322 258.84375,146.011719 C258.479165,146.259116 258.201824,146.609373 258.011719,147.0625 C257.821614,147.515627 257.726562,148.049476 257.726562,148.664062 C257.726562,149.278649 257.821614,149.812498 258.011719,150.265625 C258.201824,150.718752 258.479165,151.069009 258.84375,151.316406 C259.208335,151.563803 259.648435,151.6875 260.164062,151.6875 C260.67969,151.6875 261.124998,151.563803 261.5,151.316406 C261.875002,151.069009 262.162759,150.71745 262.363281,150.261719 C262.563803,149.805987 262.664062,149.273441 262.664062,148.664062 C262.664062,148.054684 262.563803,147.522138 262.363281,147.066406 Z"/>
    <path fill-opacity=".8" d="M107.485573,142.878 C107.229636,142.112 106.575798,141.55 105.785993,141.412 L97.6200081,139.954 L93.7689586,132.22 C93.3950509,131.466 92.641237,131 91.7994447,131 C90.959652,131 90.2038386,131.466 89.8319304,132.218 L85.9808809,139.954 L77.820895,141.412 C77.0250914,141.55 76.3712528,142.112 76.115316,142.878 C75.8573796,143.644 76.0393347,144.488 76.589199,145.076 L82.4417544,151.37 L81.224055,160.088 C81.1100831,160.91 81.4579973,161.714 82.13583,162.192 C82.5157362,162.46 82.9576271,162.594 83.4015176,162.594 C83.7474322,162.594 84.0973458,162.512 84.4172668,162.344 L91.7994447,158.496 L99.1796231,162.342 C99.9074435,162.724 100.787226,162.668 101.465059,162.192 C102.140892,161.714 102.490806,160.91 102.376834,160.088 L101.157135,151.37 L107.009691,145.078 C107.559555,144.488 107.74151,143.644 107.485573,142.878"/>
  </g>
</svg>
