<svg xmlns="http://www.w3.org/2000/svg" xmlns:xlink="http://www.w3.org/1999/xlink" width="360" height="360" viewBox="0 0 360 360">
  <defs>
    <polygon id="icon-grid-16-a" points="92 92 269 92 269 269 92 269"/>
    <polygon id="icon-grid-16-c" points="0 0 265 0 265 265.201 0 265.201"/>
    <polygon id="icon-grid-16-e" points="0 0 265 0 265 265.201 0 265.201"/>
    <path id="icon-grid-16-g" d="M247,114.712389 L247,246.287611 C247,258.831317 238.189603,269 227.321429,269 L133.678571,269 C122.810397,269 114,258.831317 114,246.287611 L114,114.712389 C114,102.168683 122.810397,92 133.678571,92 L227.321429,92 C238.189603,92 247,102.168683 247,114.712389 Z"/>
    <filter id="icon-grid-16-h" width="100.8%" height="100.6%" x="-.4%" y="-.3%" filterUnits="objectBoundingBox">
      <feOffset dx="1" in="SourceAlpha" result="shadowOffsetInner1"/>
      <feComposite in="shadowOffsetInner1" in2="SourceAlpha" k2="-1" k3="1" operator="arithmetic" result="shadowInnerInner1"/>
      <feColorMatrix in="shadowInnerInner1" result="shadowMatrixInner1" values="0 0 0 0 0.917647059   0 0 0 0 0.109803922   0 0 0 0 0.705882353  0 0 0 1 0"/>
      <feOffset dx="-1" in="SourceAlpha" result="shadowOffsetInner2"/>
      <feComposite in="shadowOffsetInner2" in2="SourceAlpha" k2="-1" k3="1" operator="arithmetic" result="shadowInnerInner2"/>
      <feColorMatrix in="shadowInnerInner2" result="shadowMatrixInner2" values="0 0 0 0 0.917647059   0 0 0 0 0.109803922   0 0 0 0 0.705882353  0 0 0 1 0"/>
      <feMerge>
        <feMergeNode in="shadowMatrixInner1"/>
        <feMergeNode in="shadowMatrixInner2"/>
      </feMerge>
    </filter>
    <path id="icon-grid-16-i" d="M258,122.889381 L258,238.110619 C258,249.095221 247.732245,258 235.066327,258 L125.933673,258 C113.267755,258 103,249.095221 103,238.110619 L103,122.889381 C103,111.904779 113.267755,103 125.933673,103 L235.066327,103 C247.732245,103 258,111.904779 258,122.889381 Z"/>
    <filter id="icon-grid-16-j" width="100.6%" height="100.6%" x="-.3%" y="-.3%" filterUnits="objectBoundingBox">
      <feOffset dx="1" in="SourceAlpha" result="shadowOffsetInner1"/>
      <feComposite in="shadowOffsetInner1" in2="SourceAlpha" k2="-1" k3="1" operator="arithmetic" result="shadowInnerInner1"/>
      <feColorMatrix in="shadowInnerInner1" result="shadowMatrixInner1" values="0 0 0 0 0.917647059   0 0 0 0 0.109803922   0 0 0 0 0.705882353  0 0 0 1 0"/>
      <feOffset dx="-1" in="SourceAlpha" result="shadowOffsetInner2"/>
      <feComposite in="shadowOffsetInner2" in2="SourceAlpha" k2="-1" k3="1" operator="arithmetic" result="shadowInnerInner2"/>
      <feColorMatrix in="shadowInnerInner2" result="shadowMatrixInner2" values="0 0 0 0 0.917647059   0 0 0 0 0.109803922   0 0 0 0 0.705882353  0 0 0 1 0"/>
      <feMerge>
        <feMergeNode in="shadowMatrixInner1"/>
        <feMergeNode in="shadowMatrixInner2"/>
      </feMerge>
    </filter>
    <path id="icon-grid-16-k" d="M269,133.678571 L269,227.321429 C269,238.189603 258.831317,247 246.287611,247 L114.712389,247 C102.168683,247 92,238.189603 92,227.321429 L92,133.678571 C92,122.810397 102.168683,114 114.712389,114 L246.287611,114 C258.831317,114 269,122.810397 269,133.678571 Z"/>
    <filter id="icon-grid-16-l" width="100.6%" height="100.8%" x="-.3%" y="-.4%" filterUnits="objectBoundingBox">
      <feOffset dx="1" in="SourceAlpha" result="shadowOffsetInner1"/>
      <feComposite in="shadowOffsetInner1" in2="SourceAlpha" k2="-1" k3="1" operator="arithmetic" result="shadowInnerInner1"/>
      <feColorMatrix in="shadowInnerInner1" result="shadowMatrixInner1" values="0 0 0 0 0.917647059   0 0 0 0 0.109803922   0 0 0 0 0.705882353  0 0 0 1 0"/>
      <feOffset dx="-1" in="SourceAlpha" result="shadowOffsetInner2"/>
      <feComposite in="shadowOffsetInner2" in2="SourceAlpha" k2="-1" k3="1" operator="arithmetic" result="shadowInnerInner2"/>
      <feColorMatrix in="shadowInnerInner2" result="shadowMatrixInner2" values="0 0 0 0 0.917647059   0 0 0 0 0.109803922   0 0 0 0 0.705882353  0 0 0 1 0"/>
      <feMerge>
        <feMergeNode in="shadowMatrixInner1"/>
        <feMergeNode in="shadowMatrixInner2"/>
      </feMerge>
    </filter>
  </defs>
  <g fill="none" fill-rule="evenodd">
    <rect width="1" height="9" x="92" y="273" fill="#EA1CB4"/>
    <rect width="1" height="9" x="268" y="273" fill="#EA1CB4"/>
    <rect width="177" height="1" x="92" y="277" fill="#EA1CB4"/>
    <rect width="37" height="22" x="162" y="285" fill="#EA1CB4" fill-rule="nonzero" rx="2"/>
    <path fill="#FFF" d="M172.46,298.944 L172.46,300 L167.456,300 L167.456,298.944 L169.472,298.944 L169.472,293.1 L167.648,294.216 L167.072,293.28 L169.616,291.72 L170.804,291.72 L170.804,298.944 L172.46,298.944 Z M178.58,294.852 C178.932002,295.052001 179.211999,295.351998 179.42,295.752 C179.628001,296.152002 179.732,296.635997 179.732,297.204 C179.732,297.788003 179.614001,298.303998 179.378,298.752 C179.141999,299.200002 178.818002,299.545999 178.406,299.79 C177.993998,300.034001 177.524003,300.156 176.996,300.156 C176.003995,300.156 175.276002,299.798004 174.812,299.082 C174.347998,298.365996 174.116,297.388006 174.116,296.148 C174.116,295.227995 174.245999,294.422003 174.506,293.73 C174.766001,293.037997 175.143998,292.502002 175.64,292.122 C176.136002,291.741998 176.719997,291.552 177.392,291.552 C178.024003,291.552 178.591997,291.719998 179.096,292.056 L178.58,292.92 C178.211998,292.687999 177.816002,292.572 177.392,292.572 C176.831997,292.572 176.384002,292.833997 176.048,293.358 C175.711998,293.882003 175.528,294.603995 175.496,295.524 C175.984002,294.875997 176.615996,294.552 177.392,294.552 C177.832002,294.552 178.227998,294.651999 178.58,294.852 Z M178.028,298.632 C178.260001,298.295998 178.376,297.840003 178.376,297.264 C178.376,296.119994 177.956004,295.548 177.116,295.548 C176.795998,295.548 176.498001,295.633999 176.222,295.806 C175.945999,295.978001 175.708001,296.215998 175.508,296.52 C175.524,297.424005 175.647999,298.085998 175.88,298.506 C176.112001,298.926002 176.487997,299.136 177.008,299.136 C177.456002,299.136 177.795999,298.968002 178.028,298.632 Z M186.968,296.82 C186.968,297.820005 186.756002,298.625997 186.332,299.238 C185.907998,299.850003 185.304004,300.156 184.52,300.156 C183.855997,300.156 183.320002,299.924002 182.912,299.46 L182.912,302.436 L181.568,302.592 L181.568,293.664 L182.732,293.664 L182.816,294.48 C183.056001,294.159998 183.333998,293.916001 183.65,293.748 C183.966002,293.579999 184.303998,293.496 184.664,293.496 C186.200008,293.496 186.968,294.603989 186.968,296.82 Z M183.524,294.78 C183.291999,294.948001 183.088001,295.167999 182.912,295.44 L182.912,298.404 C183.224002,298.876002 183.639997,299.112 184.16,299.112 C184.624002,299.112 184.971999,298.928002 185.204,298.56 C185.436001,298.191998 185.552,297.616004 185.552,296.832 C185.552,296.023996 185.448001,295.438002 185.24,295.074 C185.031999,294.709998 184.716002,294.528 184.292,294.528 C184.011999,294.528 183.756001,294.611999 183.524,294.78 Z M188.216,300 L190.496,296.664 L188.468,293.664 L190.016,293.664 L191.312,295.896 L192.608,293.664 L194.084,293.664 L192.104,296.604 L194.384,300 L192.812,300 L191.252,297.408 L189.704,300 L188.216,300 Z"/>
    <polygon fill="#EA1CB4" points="176 285 180 281 184 285 180 289"/>
    <rect width="9" height="1" x="273.611" y="92" fill="#EA1CB4"/>
    <rect width="9" height="1" x="273.556" y="268" fill="#EA1CB4"/>
    <rect width="1" height="177" x="277.556" y="92" fill="#EA1CB4"/>
    <rect width="37" height="22" x="286" y="170" fill="#EA1CB4" fill-rule="nonzero" rx="2"/>
    <path fill="#FFF" d="M296.46,183.944 L296.46,185 L291.456,185 L291.456,183.944 L293.472,183.944 L293.472,178.1 L291.648,179.216 L291.072,178.28 L293.616,176.72 L294.804,176.72 L294.804,183.944 L296.46,183.944 Z M302.58,179.852 C302.932002,180.052001 303.211999,180.351998 303.42,180.752 C303.628001,181.152002 303.732,181.635997 303.732,182.204 C303.732,182.788003 303.614001,183.303998 303.378,183.752 C303.141999,184.200002 302.818002,184.545999 302.406,184.79 C301.993998,185.034001 301.524003,185.156 300.996,185.156 C300.003995,185.156 299.276002,184.798004 298.812,184.082 C298.347998,183.365996 298.116,182.388006 298.116,181.148 C298.116,180.227995 298.245999,179.422003 298.506,178.73 C298.766001,178.037997 299.143998,177.502002 299.64,177.122 C300.136002,176.741998 300.719997,176.552 301.392,176.552 C302.024003,176.552 302.591997,176.719998 303.096,177.056 L302.58,177.92 C302.211998,177.687999 301.816002,177.572 301.392,177.572 C300.831997,177.572 300.384002,177.833997 300.048,178.358 C299.711998,178.882003 299.528,179.603995 299.496,180.524 C299.984002,179.875997 300.615996,179.552 301.392,179.552 C301.832002,179.552 302.227998,179.651999 302.58,179.852 Z M302.028,183.632 C302.260001,183.295998 302.376,182.840003 302.376,182.264 C302.376,181.119994 301.956004,180.548 301.116,180.548 C300.795998,180.548 300.498001,180.633999 300.222,180.806 C299.945999,180.978001 299.708001,181.215998 299.508,181.52 C299.524,182.424005 299.647999,183.085998 299.88,183.506 C300.112001,183.926002 300.487997,184.136 301.008,184.136 C301.456002,184.136 301.795999,183.968002 302.028,183.632 Z M310.968,181.82 C310.968,182.820005 310.756002,183.625997 310.332,184.238 C309.907998,184.850003 309.304004,185.156 308.52,185.156 C307.855997,185.156 307.320002,184.924002 306.912,184.46 L306.912,187.436 L305.568,187.592 L305.568,178.664 L306.732,178.664 L306.816,179.48 C307.056001,179.159998 307.333998,178.916001 307.65,178.748 C307.966002,178.579999 308.303998,178.496 308.664,178.496 C310.200008,178.496 310.968,179.603989 310.968,181.82 Z M307.524,179.78 C307.291999,179.948001 307.088001,180.167999 306.912,180.44 L306.912,183.404 C307.224002,183.876002 307.639997,184.112 308.16,184.112 C308.624002,184.112 308.971999,183.928002 309.204,183.56 C309.436001,183.191998 309.552,182.616004 309.552,181.832 C309.552,181.023996 309.448001,180.438002 309.24,180.074 C309.031999,179.709998 308.716002,179.528 308.292,179.528 C308.011999,179.528 307.756001,179.611999 307.524,179.78 Z M312.216,185 L314.496,181.664 L312.468,178.664 L314.016,178.664 L315.312,180.896 L316.608,178.664 L318.084,178.664 L316.104,181.604 L318.384,185 L316.812,185 L315.252,182.408 L313.704,185 L312.216,185 Z"/>
    <polygon fill="#EA1CB4" points="282 181 286 177 290 181 286 185"/>
    <mask id="icon-grid-16-b" fill="#fff">
      <use xlink:href="#icon-grid-16-a"/>
    </mask>
    <g mask="url(#icon-grid-16-b)">
      <g transform="translate(92 92)">
        <mask id="icon-grid-16-d" fill="#fff">
          <use xlink:href="#icon-grid-16-c"/>
        </mask>
        <rect width="338" height="1" x="-1" fill="#D7D7DB" mask="url(#icon-grid-16-d)"/>
        <rect width="338" height="1" x="-1" y="11" fill="#D7D7DB" mask="url(#icon-grid-16-d)" opacity=".3"/>
        <rect width="338" height="1" x="-1" y="22" fill="#D7D7DB" mask="url(#icon-grid-16-d)" opacity=".3"/>
        <rect width="338" height="1" x="-1" y="33" fill="#D7D7DB" mask="url(#icon-grid-16-d)" opacity=".3"/>
        <rect width="338" height="1" x="-1" y="44" fill="#D7D7DB" mask="url(#icon-grid-16-d)"/>
        <rect width="338" height="1" x="-1" y="55" fill="#D7D7DB" mask="url(#icon-grid-16-d)" opacity=".3"/>
        <rect width="338" height="1" x="-1" y="66" fill="#D7D7DB" mask="url(#icon-grid-16-d)" opacity=".3"/>
        <rect width="338" height="1" x="-1" y="77" fill="#D7D7DB" mask="url(#icon-grid-16-d)" opacity=".3"/>
        <rect width="338" height="1" x="-1" y="88" fill="#D7D7DB" mask="url(#icon-grid-16-d)"/>
        <rect width="338" height="1" x="-1" y="99" fill="#D7D7DB" mask="url(#icon-grid-16-d)" opacity=".3"/>
        <rect width="338" height="1" x="-1" y="110" fill="#D7D7DB" mask="url(#icon-grid-16-d)" opacity=".3"/>
        <rect width="338" height="1" x="-1" y="121" fill="#D7D7DB" mask="url(#icon-grid-16-d)" opacity=".3"/>
        <rect width="338" height="1" x="-1" y="132" fill="#D7D7DB" mask="url(#icon-grid-16-d)"/>
        <rect width="338" height="1" x="-1" y="143" fill="#D7D7DB" mask="url(#icon-grid-16-d)" opacity=".3"/>
        <rect width="338" height="1" x="-1" y="154" fill="#D7D7DB" mask="url(#icon-grid-16-d)" opacity=".3"/>
        <rect width="338" height="1" x="-1" y="165" fill="#D7D7DB" mask="url(#icon-grid-16-d)" opacity=".3"/>
        <rect width="338" height="1" x="-1" y="176" fill="#D7D7DB" mask="url(#icon-grid-16-d)"/>
        <rect width="338" height="1" x="-1" y="187" fill="#D7D7DB" mask="url(#icon-grid-16-d)" opacity=".3"/>
        <rect width="338" height="1" x="-1" y="198" fill="#D7D7DB" mask="url(#icon-grid-16-d)" opacity=".3"/>
        <rect width="338" height="1" x="-1" y="209" fill="#D7D7DB" mask="url(#icon-grid-16-d)" opacity=".3"/>
        <rect width="338" height="1" x="-1" y="220" fill="#D7D7DB" mask="url(#icon-grid-16-d)"/>
        <rect width="338" height="1" x="-1" y="231" fill="#D7D7DB" mask="url(#icon-grid-16-d)" opacity=".3"/>
        <rect width="338" height="1" x="-1" y="242" fill="#D7D7DB" mask="url(#icon-grid-16-d)" opacity=".3"/>
        <rect width="338" height="1" x="-1" y="253" fill="#D7D7DB" mask="url(#icon-grid-16-d)" opacity=".3"/>
        <rect width="338" height="1" x="-1" y="264" fill="#D7D7DB" mask="url(#icon-grid-16-d)"/>
      </g>
    </g>
    <g mask="url(#icon-grid-16-b)">
      <g transform="rotate(-90 224.5 132.5)">
        <mask id="icon-grid-16-f" fill="#fff">
          <use xlink:href="#icon-grid-16-e"/>
        </mask>
        <rect width="338" height="1" x="-73" fill="#D7D7DB" mask="url(#icon-grid-16-f)"/>
        <rect width="338" height="1" x="-73" y="11" fill="#D7D7DB" mask="url(#icon-grid-16-f)" opacity=".3"/>
        <rect width="338" height="1" x="-73" y="22" fill="#D7D7DB" mask="url(#icon-grid-16-f)" opacity=".3"/>
        <rect width="338" height="1" x="-73" y="33" fill="#D7D7DB" mask="url(#icon-grid-16-f)" opacity=".3"/>
        <rect width="338" height="1" x="-73" y="44" fill="#D7D7DB" mask="url(#icon-grid-16-f)"/>
        <rect width="338" height="1" x="-73" y="55" fill="#D7D7DB" mask="url(#icon-grid-16-f)" opacity=".3"/>
        <rect width="338" height="1" x="-73" y="66" fill="#D7D7DB" mask="url(#icon-grid-16-f)" opacity=".3"/>
        <rect width="338" height="1" x="-73" y="77" fill="#D7D7DB" mask="url(#icon-grid-16-f)" opacity=".3"/>
        <rect width="338" height="1" x="-73" y="88" fill="#D7D7DB" mask="url(#icon-grid-16-f)"/>
        <rect width="338" height="1" x="-73" y="99" fill="#D7D7DB" mask="url(#icon-grid-16-f)" opacity=".3"/>
        <rect width="338" height="1" x="-73" y="110" fill="#D7D7DB" mask="url(#icon-grid-16-f)" opacity=".3"/>
        <rect width="338" height="1" x="-73" y="121" fill="#D7D7DB" mask="url(#icon-grid-16-f)" opacity=".3"/>
        <rect width="338" height="1" x="-73" y="132" fill="#D7D7DB" mask="url(#icon-grid-16-f)"/>
        <rect width="338" height="1" x="-73" y="143" fill="#D7D7DB" mask="url(#icon-grid-16-f)" opacity=".3"/>
        <rect width="338" height="1" x="-73" y="154" fill="#D7D7DB" mask="url(#icon-grid-16-f)" opacity=".3"/>
        <rect width="338" height="1" x="-73" y="165" fill="#D7D7DB" mask="url(#icon-grid-16-f)" opacity=".3"/>
        <rect width="338" height="1" x="-73" y="176" fill="#D7D7DB" mask="url(#icon-grid-16-f)"/>
        <rect width="338" height="1" x="-73" y="187" fill="#D7D7DB" mask="url(#icon-grid-16-f)" opacity=".3"/>
        <rect width="338" height="1" x="-73" y="198" fill="#D7D7DB" mask="url(#icon-grid-16-f)" opacity=".3"/>
        <rect width="338" height="1" x="-73" y="209" fill="#D7D7DB" mask="url(#icon-grid-16-f)" opacity=".3"/>
        <rect width="338" height="1" x="-73" y="220" fill="#D7D7DB" mask="url(#icon-grid-16-f)"/>
        <rect width="338" height="1" x="-73" y="231" fill="#D7D7DB" mask="url(#icon-grid-16-f)" opacity=".3"/>
        <rect width="338" height="1" x="-73" y="242" fill="#D7D7DB" mask="url(#icon-grid-16-f)" opacity=".3"/>
        <rect width="338" height="1" x="-73" y="253" fill="#D7D7DB" mask="url(#icon-grid-16-f)" opacity=".3"/>
        <rect width="338" height="1" x="-73" y="264" fill="#D7D7DB" mask="url(#icon-grid-16-f)"/>
      </g>
    </g>
    <rect width="165" height="165" x="98" y="98" stroke="#0C0C0D" stroke-opacity=".1" stroke-width="12"/>
    <use fill="#FC2DD7" fill-opacity=".25" xlink:href="#icon-grid-16-g"/>
    <use fill="#000" filter="url(#icon-grid-16-h)" xlink:href="#icon-grid-16-g"/>
    <use fill="#FC2DD7" fill-opacity=".25" xlink:href="#icon-grid-16-i"/>
    <use fill="#000" filter="url(#icon-grid-16-j)" xlink:href="#icon-grid-16-i"/>
    <g>
      <use fill="#FC2DD7" fill-opacity=".25" xlink:href="#icon-grid-16-k"/>
      <use fill="#000" filter="url(#icon-grid-16-l)" xlink:href="#icon-grid-16-k"/>
    </g>
  </g>
</svg>
