<svg xmlns="http://www.w3.org/2000/svg" width="360" height="240" viewBox="0 0 360 240">
  <g fill="#0C0C0D" fill-rule="evenodd">
    <path d="M153.480469,87.6328125 C153.753908,87.2578106 154.130206,86.9635427 154.609375,86.75 C155.088544,86.5364573 155.622393,86.4296875 156.210938,86.4296875 C156.794274,86.4296875 157.315102,86.5221345 157.773438,86.7070312 C158.231773,86.891928 158.600259,87.1536441 158.878906,87.4921875 C159.157553,87.8307309 159.325521,88.2291644 159.382812,88.6875 L158.054688,88.6875 C157.960937,88.3437483 157.753908,88.0716156 157.433594,87.8710938 C157.11328,87.6705719 156.703127,87.5703125 156.203125,87.5703125 C155.86979,87.5703125 155.56771,87.6236974 155.296875,87.7304688 C155.02604,87.8372401 154.812501,87.9856761 154.65625,88.1757812 C154.499999,88.3658864 154.421875,88.5833321 154.421875,88.828125 C154.421875,89.1145848 154.540363,89.3528636 154.777344,89.5429688 C155.014324,89.7330739 155.38281,89.8880202 155.882812,90.0078125 L157.179688,90.3203125 C157.981775,90.5130218 158.574217,90.7916648 158.957031,91.15625 C159.339846,91.5208352 159.53125,92.0026012 159.53125,92.6015625 C159.53125,93.0963566 159.384116,93.5364564 159.089844,93.921875 C158.795571,94.3072936 158.39193,94.6080718 157.878906,94.8242188 C157.365883,95.0403657 156.79167,95.1484375 156.15625,95.1484375 C155.536455,95.1484375 154.985679,95.0546884 154.503906,94.8671875 C154.022133,94.6796866 153.63672,94.4127621 153.347656,94.0664062 C153.058592,93.7200504 152.890625,93.3151065 152.84375,92.8515625 L154.226562,92.8515625 C154.341146,93.2161477 154.567707,93.5013011 154.90625,93.7070312 C155.244793,93.9127614 155.677081,94.015625 156.203125,94.015625 C156.578127,94.015625 156.912759,93.959636 157.207031,93.8476562 C157.501304,93.7356765 157.73177,93.5807302 157.898438,93.3828125 C158.065105,93.1848948 158.148438,92.9583346 158.148438,92.703125 C158.148438,92.1302055 157.703129,91.7343761 156.8125,91.515625 L155.367188,91.1640625 C154.570309,90.9713532 153.988283,90.6940122 153.621094,90.3320312 C153.253904,89.9700503 153.070312,89.4869822 153.070312,88.8828125 C153.070312,88.4244769 153.20703,88.0078144 153.480469,87.6328125 Z M163.46875,86.578125 L165.34375,86.578125 L165.34375,87.703125 L163.46875,87.703125 L163.46875,92.46875 C163.46875,92.9635441 163.567707,93.3229155 163.765625,93.546875 C163.963543,93.7708345 164.281248,93.8828125 164.71875,93.8828125 C164.911459,93.8828125 165.119791,93.8723959 165.34375,93.8515625 L165.34375,94.984375 C165.046874,95.0364586 164.783855,95.0625 164.554688,95.0625 C163.971351,95.0625 163.502606,94.9869799 163.148438,94.8359375 C162.794269,94.6848951 162.535157,94.4453141 162.371094,94.1171875 C162.20703,93.7890609 162.125,93.3541694 162.125,92.8125 L162.125,87.703125 L160.765625,87.703125 L160.765625,86.578125 L162.125,86.578125 L162.125,84.3984375 L163.46875,84.3984375 L163.46875,86.578125 Z M168.257812,94.8398438 C167.825519,94.6341136 167.48698,94.3424498 167.242188,93.9648438 C166.997395,93.5872377 166.875,93.1458359 166.875,92.640625 C166.875,91.8906212 167.140622,91.3020855 167.671875,90.875 C168.203128,90.4479145 168.960933,90.2057295 169.945312,90.1484375 L172.375,90 L172.375,89.234375 C172.375,88.7135391 172.213543,88.3151055 171.890625,88.0390625 C171.567707,87.7630195 171.093753,87.625 170.46875,87.625 C169.963539,87.625 169.544273,87.7161449 169.210938,87.8984375 C168.877602,88.0807301 168.664063,88.33854 168.570312,88.671875 L167.210938,88.671875 C167.268229,88.2239561 167.445311,87.8307309 167.742188,87.4921875 C168.039064,87.1536441 168.427081,86.891928 168.90625,86.7070312 C169.385419,86.5221345 169.921872,86.4296875 170.515625,86.4296875 C171.192712,86.4296875 171.770831,86.5416655 172.25,86.765625 C172.729169,86.9895845 173.093749,87.3111958 173.34375,87.7304688 C173.593751,88.1497417 173.71875,88.6510387 173.71875,89.234375 L173.71875,95 L172.4375,95 L172.4375,93.7578125 L172.3125,93.7578125 C172.041665,94.2057314 171.682294,94.549478 171.234375,94.7890625 C170.786456,95.028647 170.281253,95.1484375 169.71875,95.1484375 C169.177081,95.1484375 168.690106,95.0455739 168.257812,94.8398438 Z M171.199219,93.6914062 C171.566408,93.5065095 171.854166,93.2539079 172.0625,92.9335938 C172.270834,92.6132796 172.375,92.2552103 172.375,91.859375 L172.375,91.0859375 L170.109375,91.234375 C169.473955,91.2760419 169.007814,91.408853 168.710938,91.6328125 C168.414061,91.856772 168.265625,92.1822895 168.265625,92.609375 C168.265625,93.0312521 168.424478,93.36328 168.742188,93.6054688 C169.059897,93.8476575 169.468748,93.96875 169.96875,93.96875 C170.421877,93.96875 170.832029,93.876303 171.199219,93.6914062 Z M177.484375,86.578125 L177.484375,87.828125 L177.609375,87.828125 C177.692709,87.5572903 177.847655,87.3164073 178.074219,87.1054688 C178.300782,86.8945302 178.576821,86.7291673 178.902344,86.609375 C179.227866,86.4895827 179.575519,86.4296875 179.945312,86.4296875 C180.200522,86.4296875 180.424478,86.4427082 180.617188,86.46875 L180.617188,87.8125 C180.559896,87.7968749 180.434897,87.779948 180.242188,87.7617188 C180.049478,87.7434895 179.888021,87.734375 179.757812,87.734375 C179.335935,87.734375 178.957033,87.8216137 178.621094,87.9960938 C178.285155,88.1705738 178.022136,88.4140609 177.832031,88.7265625 C177.641926,89.0390641 177.546875,89.390623 177.546875,89.78125 L177.546875,95 L176.203125,95 L176.203125,86.578125 L177.484375,86.578125 Z M181.617188,89.828125 L186.742188,89.828125 L186.742188,91.1015625 L181.617188,91.1015625 L181.617188,89.828125 Z M191.78125,85.2890625 L188.914062,87.3671875 L188.914062,85.8828125 L191.914062,83.7265625 L193.3125,83.7265625 L193.3125,95 L191.90625,95 L191.90625,85.2890625 L191.78125,85.2890625 Z M196.890625,94.9414062 C196.734374,94.85026 196.610678,94.7265633 196.519531,94.5703125 C196.428385,94.4140617 196.382812,94.2447926 196.382812,94.0625 C196.382812,93.8802074 196.428385,93.7109383 196.519531,93.5546875 C196.610678,93.3984367 196.734374,93.27474 196.890625,93.1835938 C197.046876,93.0924475 197.216145,93.046875 197.398438,93.046875 C197.58073,93.046875 197.749999,93.0924475 197.90625,93.1835938 C198.062501,93.27474 198.186197,93.3984367 198.277344,93.5546875 C198.36849,93.7109383 198.414062,93.8802074 198.414062,94.0625 C198.414062,94.2447926 198.36849,94.4140617 198.277344,94.5703125 C198.186197,94.7265633 198.062501,94.85026 197.90625,94.9414062 C197.749999,95.0325525 197.58073,95.078125 197.398438,95.078125 C197.216145,95.078125 197.046876,95.0325525 196.890625,94.9414062 Z M201.253906,87.6328125 C201.527345,87.2578106 201.903643,86.9635427 202.382812,86.75 C202.861982,86.5364573 203.39583,86.4296875 203.984375,86.4296875 C204.567711,86.4296875 205.088539,86.5221345 205.546875,86.7070312 C206.005211,86.891928 206.373697,87.1536441 206.652344,87.4921875 C206.930991,87.8307309 207.098958,88.2291644 207.15625,88.6875 L205.828125,88.6875 C205.734375,88.3437483 205.527345,88.0716156 205.207031,87.8710938 C204.886717,87.6705719 204.476565,87.5703125 203.976562,87.5703125 C203.643227,87.5703125 203.341147,87.6236974 203.070312,87.7304688 C202.799478,87.8372401 202.585938,87.9856761 202.429688,88.1757812 C202.273437,88.3658864 202.195312,88.5833321 202.195312,88.828125 C202.195312,89.1145848 202.313801,89.3528636 202.550781,89.5429688 C202.787762,89.7330739 203.156248,89.8880202 203.65625,90.0078125 L204.953125,90.3203125 C205.755212,90.5130218 206.347654,90.7916648 206.730469,91.15625 C207.113283,91.5208352 207.304688,92.0026012 207.304688,92.6015625 C207.304688,93.0963566 207.157554,93.5364564 206.863281,93.921875 C206.569009,94.3072936 206.165367,94.6080718 205.652344,94.8242188 C205.13932,95.0403657 204.565107,95.1484375 203.929688,95.1484375 C203.309893,95.1484375 202.759117,95.0546884 202.277344,94.8671875 C201.795571,94.6796866 201.410158,94.4127621 201.121094,94.0664062 C200.83203,93.7200504 200.664063,93.3151065 200.617188,92.8515625 L202,92.8515625 C202.114584,93.2161477 202.341144,93.5013011 202.679688,93.7070312 C203.018231,93.9127614 203.450518,94.015625 203.976562,94.015625 C204.351564,94.015625 204.686196,93.959636 204.980469,93.8476562 C205.274741,93.7356765 205.505207,93.5807302 205.671875,93.3828125 C205.838543,93.1848948 205.921875,92.9583346 205.921875,92.703125 C205.921875,92.1302055 205.476567,91.7343761 204.585938,91.515625 L203.140625,91.1640625 C202.343746,90.9713532 201.761721,90.6940122 201.394531,90.3320312 C201.027342,89.9700503 200.84375,89.4869822 200.84375,88.8828125 C200.84375,88.4244769 200.980467,88.0078144 201.253906,87.6328125 Z M212.1875,93.515625 L212.3125,93.515625 L214.617188,86.578125 L216.054688,86.578125 L212.9375,95 L211.5625,95 L208.445312,86.578125 L209.882812,86.578125 L212.1875,93.515625 Z M219.246094,97.9492188 C218.738279,97.7591136 218.333335,97.4908871 218.03125,97.1445312 C217.729165,96.7981754 217.544271,96.3932315 217.476562,95.9296875 L218.898438,95.9296875 C218.971355,96.2786476 219.192706,96.5546865 219.5625,96.7578125 C219.932294,96.9609385 220.41406,97.0625 221.007812,97.0625 C221.763025,97.0625 222.352862,96.8867205 222.777344,96.5351562 C223.201825,96.183592 223.414062,95.6979198 223.414062,95.078125 L223.414062,93.421875 L223.289062,93.421875 C223.023436,93.885419 222.661461,94.2434883 222.203125,94.4960938 C221.744789,94.7486992 221.226565,94.875 220.648438,94.875 C219.929684,94.875 219.30469,94.7005226 218.773438,94.3515625 C218.242185,94.0026024 217.833335,93.5104198 217.546875,92.875 C217.260415,92.2395802 217.117188,91.5026084 217.117188,90.6640625 C217.117188,89.8255166 217.261717,89.0872428 217.550781,88.4492188 C217.839845,87.8111947 218.249997,87.3151059 218.78125,86.9609375 C219.312503,86.6067691 219.934892,86.4296875 220.648438,86.4296875 C221.236982,86.4296875 221.773435,86.5638007 222.257812,86.8320312 C222.74219,87.1002618 223.10677,87.4609352 223.351562,87.9140625 L223.476562,87.9140625 L223.476562,86.578125 L224.757812,86.578125 L224.757812,95.1484375 C224.757812,95.7734406 224.60547,96.317706 224.300781,96.78125 C223.996092,97.244794 223.561201,97.6028633 222.996094,97.8554688 C222.430987,98.1080742 221.768233,98.234375 221.007812,98.234375 C220.341142,98.234375 219.753909,98.1393239 219.246094,97.9492188 Z M223.144531,89.0664062 C222.944009,88.6106748 222.65495,88.2591158 222.277344,88.0117188 C221.899738,87.7643217 221.455732,87.640625 220.945312,87.640625 C220.429685,87.640625 219.989585,87.7643217 219.625,88.0117188 C219.260415,88.2591158 218.983074,88.6093727 218.792969,89.0625 C218.602864,89.5156273 218.507812,90.0494761 218.507812,90.6640625 C218.507812,91.2786489 218.602864,91.8124977 218.792969,92.265625 C218.983074,92.7187523 219.260415,93.0690092 219.625,93.3164062 C219.989585,93.5638033 220.429685,93.6875 220.945312,93.6875 C221.46094,93.6875 221.906248,93.5638033 222.28125,93.3164062 C222.656252,93.0690092 222.944009,92.7174502 223.144531,92.2617188 C223.345053,91.8059873 223.445312,91.2734405 223.445312,90.6640625 C223.445312,90.0546845 223.345053,89.5221377 223.144531,89.0664062 Z"/>
    <path fill-opacity=".8" fill-rule="nonzero" d="M131.607153,84.6420563 L130.934515,83.2912081 L127.800041,76.9962884 L123.994034,84.6418082 L122.508554,84.9072289 L115.785989,86.1083625 L121.610279,92.3719657 L121.412912,93.7850007 L120.410083,100.964645 L127.799272,97.1129901 L129.18586,97.8355764 L135.190466,100.964742 L133.988288,92.37198 L134.960493,91.3267757 L139.815187,86.1075642 L131.607153,84.6420563 Z M141.785993,83.412 C142.575798,83.55 143.229636,84.112 143.485573,84.878 C143.74151,85.644 143.559555,86.488 143.009691,87.078 L137.157135,93.37 L138.376834,102.088 C138.490806,102.91 138.140892,103.714 137.465059,104.192 C136.787226,104.668 135.907444,104.724 135.179623,104.342 L127.799445,100.496 L120.417267,104.344 C120.097346,104.512 119.747432,104.594 119.401518,104.594 C118.957627,104.594 118.515736,104.46 118.13583,104.192 C117.457997,103.714 117.110083,102.91 117.224055,102.088 L118.441754,93.37 L112.589199,87.076 C112.039335,86.488 111.85738,85.644 112.115316,84.878 C112.371253,84.112 113.025091,83.55 113.820895,83.412 L121.980881,81.954 L125.83193,74.218 C126.203839,73.466 126.959652,73 127.799445,73 C128.641237,73 129.395051,73.466 129.768959,74.22 L133.620008,81.954 L141.785993,83.412 Z"/>
    <path d="M153.480469,145.632812 C153.753908,145.257811 154.130206,144.963543 154.609375,144.75 C155.088544,144.536457 155.622393,144.429688 156.210938,144.429688 C156.794274,144.429688 157.315102,144.522134 157.773438,144.707031 C158.231773,144.891928 158.600259,145.153644 158.878906,145.492188 C159.157553,145.830731 159.325521,146.229164 159.382812,146.6875 L158.054688,146.6875 C157.960937,146.343748 157.753908,146.071616 157.433594,145.871094 C157.11328,145.670572 156.703127,145.570312 156.203125,145.570312 C155.86979,145.570312 155.56771,145.623697 155.296875,145.730469 C155.02604,145.83724 154.812501,145.985676 154.65625,146.175781 C154.499999,146.365886 154.421875,146.583332 154.421875,146.828125 C154.421875,147.114585 154.540363,147.352864 154.777344,147.542969 C155.014324,147.733074 155.38281,147.88802 155.882812,148.007812 L157.179688,148.320312 C157.981775,148.513022 158.574217,148.791665 158.957031,149.15625 C159.339846,149.520835 159.53125,150.002601 159.53125,150.601562 C159.53125,151.096357 159.384116,151.536456 159.089844,151.921875 C158.795571,152.307294 158.39193,152.608072 157.878906,152.824219 C157.365883,153.040366 156.79167,153.148438 156.15625,153.148438 C155.536455,153.148438 154.985679,153.054688 154.503906,152.867188 C154.022133,152.679687 153.63672,152.412762 153.347656,152.066406 C153.058592,151.72005 152.890625,151.315106 152.84375,150.851562 L154.226562,150.851562 C154.341146,151.216148 154.567707,151.501301 154.90625,151.707031 C155.244793,151.912761 155.677081,152.015625 156.203125,152.015625 C156.578127,152.015625 156.912759,151.959636 157.207031,151.847656 C157.501304,151.735677 157.73177,151.58073 157.898438,151.382812 C158.065105,151.184895 158.148438,150.958335 158.148438,150.703125 C158.148438,150.130205 157.703129,149.734376 156.8125,149.515625 L155.367188,149.164062 C154.570309,148.971353 153.988283,148.694012 153.621094,148.332031 C153.253904,147.97005 153.070312,147.486982 153.070312,146.882812 C153.070312,146.424477 153.20703,146.007814 153.480469,145.632812 Z M163.46875,144.578125 L165.34375,144.578125 L165.34375,145.703125 L163.46875,145.703125 L163.46875,150.46875 C163.46875,150.963544 163.567707,151.322916 163.765625,151.546875 C163.963543,151.770834 164.281248,151.882812 164.71875,151.882812 C164.911459,151.882812 165.119791,151.872396 165.34375,151.851562 L165.34375,152.984375 C165.046874,153.036459 164.783855,153.0625 164.554688,153.0625 C163.971351,153.0625 163.502606,152.98698 163.148438,152.835938 C162.794269,152.684895 162.535157,152.445314 162.371094,152.117188 C162.20703,151.789061 162.125,151.354169 162.125,150.8125 L162.125,145.703125 L160.765625,145.703125 L160.765625,144.578125 L162.125,144.578125 L162.125,142.398438 L163.46875,142.398438 L163.46875,144.578125 Z M168.257812,152.839844 C167.825519,152.634114 167.48698,152.34245 167.242188,151.964844 C166.997395,151.587238 166.875,151.145836 166.875,150.640625 C166.875,149.890621 167.140622,149.302085 167.671875,148.875 C168.203128,148.447915 168.960933,148.205729 169.945312,148.148438 L172.375,148 L172.375,147.234375 C172.375,146.713539 172.213543,146.315106 171.890625,146.039062 C171.567707,145.763019 171.093753,145.625 170.46875,145.625 C169.963539,145.625 169.544273,145.716145 169.210938,145.898438 C168.877602,146.08073 168.664063,146.33854 168.570312,146.671875 L167.210938,146.671875 C167.268229,146.223956 167.445311,145.830731 167.742188,145.492188 C168.039064,145.153644 168.427081,144.891928 168.90625,144.707031 C169.385419,144.522134 169.921872,144.429688 170.515625,144.429688 C171.192712,144.429688 171.770831,144.541666 172.25,144.765625 C172.729169,144.989584 173.093749,145.311196 173.34375,145.730469 C173.593751,146.149742 173.71875,146.651039 173.71875,147.234375 L173.71875,153 L172.4375,153 L172.4375,151.757812 L172.3125,151.757812 C172.041665,152.205731 171.682294,152.549478 171.234375,152.789062 C170.786456,153.028647 170.281253,153.148438 169.71875,153.148438 C169.177081,153.148438 168.690106,153.045574 168.257812,152.839844 Z M171.199219,151.691406 C171.566408,151.506509 171.854166,151.253908 172.0625,150.933594 C172.270834,150.61328 172.375,150.25521 172.375,149.859375 L172.375,149.085938 L170.109375,149.234375 C169.473955,149.276042 169.007814,149.408853 168.710938,149.632812 C168.414061,149.856772 168.265625,150.18229 168.265625,150.609375 C168.265625,151.031252 168.424478,151.36328 168.742188,151.605469 C169.059897,151.847657 169.468748,151.96875 169.96875,151.96875 C170.421877,151.96875 170.832029,151.876303 171.199219,151.691406 Z M177.484375,144.578125 L177.484375,145.828125 L177.609375,145.828125 C177.692709,145.55729 177.847655,145.316407 178.074219,145.105469 C178.300782,144.89453 178.576821,144.729167 178.902344,144.609375 C179.227866,144.489583 179.575519,144.429688 179.945312,144.429688 C180.200522,144.429688 180.424478,144.442708 180.617188,144.46875 L180.617188,145.8125 C180.559896,145.796875 180.434897,145.779948 180.242188,145.761719 C180.049478,145.743489 179.888021,145.734375 179.757812,145.734375 C179.335935,145.734375 178.957033,145.821614 178.621094,145.996094 C178.285155,146.170574 178.022136,146.414061 177.832031,146.726562 C177.641926,147.039064 177.546875,147.390623 177.546875,147.78125 L177.546875,153 L176.203125,153 L176.203125,144.578125 L177.484375,144.578125 Z M181.617188,147.828125 L186.742188,147.828125 L186.742188,149.101562 L181.617188,149.101562 L181.617188,147.828125 Z M189.605469,143.128906 C189.915366,142.605466 190.345049,142.196616 190.894531,141.902344 C191.444013,141.608071 192.062497,141.460938 192.75,141.460938 C193.41667,141.460938 194.022133,141.600259 194.566406,141.878906 C195.11068,142.157553 195.539061,142.537758 195.851562,143.019531 C196.164064,143.501304 196.320312,144.036455 196.320312,144.625 C196.320312,145.026044 196.250001,145.408852 196.109375,145.773438 C195.968749,146.138023 195.729168,146.546873 195.390625,147 C195.052082,147.453127 194.567711,148.018226 193.9375,148.695312 L191.226562,151.609375 L191.226562,151.734375 L196.507812,151.734375 L196.507812,153 L189.210938,153 L189.210938,152.03125 L193.109375,147.773438 C193.604169,147.231768 193.979165,146.791668 194.234375,146.453125 C194.489585,146.114582 194.666666,145.812501 194.765625,145.546875 C194.864584,145.281249 194.914062,144.992189 194.914062,144.679688 C194.914062,144.309894 194.816407,143.972658 194.621094,143.667969 C194.42578,143.36328 194.160158,143.123699 193.824219,142.949219 C193.48828,142.774739 193.11719,142.6875 192.710938,142.6875 C192.273435,142.6875 191.888023,142.779947 191.554688,142.964844 C191.221352,143.149741 190.962241,143.408852 190.777344,143.742188 C190.592447,144.075523 190.5,144.460935 190.5,144.898438 L190.5,144.90625 L189.140625,144.90625 L189.140625,144.898438 C189.140625,144.242184 189.295571,143.652346 189.605469,143.128906 Z M199.25,152.941406 C199.093749,152.85026 198.970053,152.726563 198.878906,152.570312 C198.78776,152.414062 198.742188,152.244793 198.742188,152.0625 C198.742188,151.880207 198.78776,151.710938 198.878906,151.554688 C198.970053,151.398437 199.093749,151.27474 199.25,151.183594 C199.406251,151.092447 199.57552,151.046875 199.757812,151.046875 C199.940105,151.046875 200.109374,151.092447 200.265625,151.183594 C200.421876,151.27474 200.545572,151.398437 200.636719,151.554688 C200.727865,151.710938 200.773438,151.880207 200.773438,152.0625 C200.773438,152.244793 200.727865,152.414062 200.636719,152.570312 C200.545572,152.726563 200.421876,152.85026 200.265625,152.941406 C200.109374,153.032553 199.940105,153.078125 199.757812,153.078125 C199.57552,153.078125 199.406251,153.032553 199.25,152.941406 Z M203.613281,145.632812 C203.88672,145.257811 204.263018,144.963543 204.742188,144.75 C205.221357,144.536457 205.755205,144.429688 206.34375,144.429688 C206.927086,144.429688 207.447914,144.522134 207.90625,144.707031 C208.364586,144.891928 208.733072,145.153644 209.011719,145.492188 C209.290366,145.830731 209.458333,146.229164 209.515625,146.6875 L208.1875,146.6875 C208.09375,146.343748 207.88672,146.071616 207.566406,145.871094 C207.246092,145.670572 206.83594,145.570312 206.335938,145.570312 C206.002602,145.570312 205.700522,145.623697 205.429688,145.730469 C205.158853,145.83724 204.945313,145.985676 204.789062,146.175781 C204.632812,146.365886 204.554688,146.583332 204.554688,146.828125 C204.554688,147.114585 204.673176,147.352864 204.910156,147.542969 C205.147137,147.733074 205.515623,147.88802 206.015625,148.007812 L207.3125,148.320312 C208.114587,148.513022 208.707029,148.791665 209.089844,149.15625 C209.472658,149.520835 209.664062,150.002601 209.664062,150.601562 C209.664062,151.096357 209.516929,151.536456 209.222656,151.921875 C208.928384,152.307294 208.524742,152.608072 208.011719,152.824219 C207.498695,153.040366 206.924482,153.148438 206.289062,153.148438 C205.669268,153.148438 205.118492,153.054688 204.636719,152.867188 C204.154946,152.679687 203.769533,152.412762 203.480469,152.066406 C203.191405,151.72005 203.023438,151.315106 202.976562,150.851562 L204.359375,150.851562 C204.473959,151.216148 204.700519,151.501301 205.039062,151.707031 C205.377606,151.912761 205.809893,152.015625 206.335938,152.015625 C206.710939,152.015625 207.045571,151.959636 207.339844,151.847656 C207.634116,151.735677 207.864582,151.58073 208.03125,151.382812 C208.197918,151.184895 208.28125,150.958335 208.28125,150.703125 C208.28125,150.130205 207.835942,149.734376 206.945312,149.515625 L205.5,149.164062 C204.703121,148.971353 204.121096,148.694012 203.753906,148.332031 C203.386717,147.97005 203.203125,147.486982 203.203125,146.882812 C203.203125,146.424477 203.339842,146.007814 203.613281,145.632812 Z M214.546875,151.515625 L214.671875,151.515625 L216.976562,144.578125 L218.414062,144.578125 L215.296875,153 L213.921875,153 L210.804688,144.578125 L212.242188,144.578125 L214.546875,151.515625 Z M221.605469,155.949219 C221.097654,155.759114 220.69271,155.490887 220.390625,155.144531 C220.08854,154.798175 219.903646,154.393231 219.835938,153.929688 L221.257812,153.929688 C221.33073,154.278648 221.552081,154.554686 221.921875,154.757812 C222.291669,154.960939 222.773435,155.0625 223.367188,155.0625 C224.1224,155.0625 224.712237,154.886721 225.136719,154.535156 C225.5612,154.183592 225.773438,153.69792 225.773438,153.078125 L225.773438,151.421875 L225.648438,151.421875 C225.382811,151.885419 225.020836,152.243488 224.5625,152.496094 C224.104164,152.748699 223.58594,152.875 223.007812,152.875 C222.289059,152.875 221.664065,152.700523 221.132812,152.351562 C220.60156,152.002602 220.19271,151.51042 219.90625,150.875 C219.61979,150.23958 219.476562,149.502608 219.476562,148.664062 C219.476562,147.825517 219.621092,147.087243 219.910156,146.449219 C220.19922,145.811195 220.609372,145.315106 221.140625,144.960938 C221.671878,144.606769 222.294267,144.429688 223.007812,144.429688 C223.596357,144.429688 224.13281,144.563801 224.617188,144.832031 C225.101565,145.100262 225.466145,145.460935 225.710938,145.914062 L225.835938,145.914062 L225.835938,144.578125 L227.117188,144.578125 L227.117188,153.148438 C227.117188,153.773441 226.964845,154.317706 226.660156,154.78125 C226.355467,155.244794 225.920576,155.602863 225.355469,155.855469 C224.790362,156.108074 224.127608,156.234375 223.367188,156.234375 C222.700517,156.234375 222.113284,156.139324 221.605469,155.949219 Z M225.503906,147.066406 C225.303384,146.610675 225.014325,146.259116 224.636719,146.011719 C224.259113,145.764322 223.815107,145.640625 223.304688,145.640625 C222.78906,145.640625 222.34896,145.764322 221.984375,146.011719 C221.61979,146.259116 221.342449,146.609373 221.152344,147.0625 C220.962239,147.515627 220.867188,148.049476 220.867188,148.664062 C220.867188,149.278649 220.962239,149.812498 221.152344,150.265625 C221.342449,150.718752 221.61979,151.069009 221.984375,151.316406 C222.34896,151.563803 222.78906,151.6875 223.304688,151.6875 C223.820315,151.6875 224.265623,151.563803 224.640625,151.316406 C225.015627,151.069009 225.303384,150.71745 225.503906,150.261719 C225.704428,149.805987 225.804688,149.273441 225.804688,148.664062 C225.804688,148.054684 225.704428,147.522138 225.503906,147.066406 Z"/>
    <path fill-opacity=".8" d="M143.485573,142.878 C143.229636,142.112 142.575798,141.55 141.785993,141.412 L133.620008,139.954 L129.768959,132.22 C129.395051,131.466 128.641237,131 127.799445,131 C126.959652,131 126.203839,131.466 125.83193,132.218 L121.980881,139.954 L113.820895,141.412 C113.025091,141.55 112.371253,142.112 112.115316,142.878 C111.85738,143.644 112.039335,144.488 112.589199,145.076 L118.441754,151.37 L117.224055,160.088 C117.110083,160.91 117.457997,161.714 118.13583,162.192 C118.515736,162.46 118.957627,162.594 119.401518,162.594 C119.747432,162.594 120.097346,162.512 120.417267,162.344 L127.799445,158.496 L135.179623,162.342 C135.907444,162.724 136.787226,162.668 137.465059,162.192 C138.140892,161.714 138.490806,160.91 138.376834,160.088 L137.157135,151.37 L143.009691,145.078 C143.559555,144.488 143.74151,143.644 143.485573,142.878"/>
  </g>
</svg>
