<svg xmlns="http://www.w3.org/2000/svg" xmlns:xlink="http://www.w3.org/1999/xlink" width="360" height="240" viewBox="0 0 360 240">
  <defs>
    <path id="icon-naming-do-a" d="M95.6071529,84.6420563 L94.9345148,83.2912081 L91.8000411,76.9962884 L87.9940335,84.6418082 L86.5085543,84.9072289 L79.7859887,86.1083625 L85.6102793,92.3719657 L85.4129115,93.7850007 L84.4100829,100.964645 L91.7992721,97.1129901 L93.1858596,97.8355764 L99.1904655,100.964742 L97.9882881,92.37198 L98.9604934,91.3267757 L103.815187,86.1075642 L95.6071529,84.6420563 Z M105.785993,83.412 C106.575798,83.55 107.229636,84.112 107.485573,84.878 C107.74151,85.644 107.559555,86.488 107.009691,87.078 L101.157135,93.37 L102.376834,102.088 C102.490806,102.91 102.140892,103.714 101.465059,104.192 C100.787226,104.668 99.9074435,104.724 99.1796231,104.342 L91.7994447,100.496 L84.4172668,104.344 C84.0973458,104.512 83.7474322,104.594 83.4015176,104.594 C82.9576271,104.594 82.5157362,104.46 82.13583,104.192 C81.4579973,103.714 81.1100831,102.91 81.224055,102.088 L82.4417544,93.37 L76.589199,87.076 C76.0393347,86.488 75.8573796,85.644 76.115316,84.878 C76.3712528,84.112 77.0250914,83.55 77.820895,83.412 L85.9808809,81.954 L89.8319304,74.218 C90.2038386,73.466 90.959652,73 91.7994447,73 C92.641237,73 93.3950509,73.466 93.7689586,74.22 L97.6200081,81.954 L105.785993,83.412 Z"/>
    <path id="icon-naming-do-b" d="M107.485573,142.878 C107.229636,142.112 106.575798,141.55 105.785993,141.412 L97.6200081,139.954 L93.7689586,132.22 C93.3950509,131.466 92.641237,131 91.7994447,131 C90.959652,131 90.2038386,131.466 89.8319304,132.218 L85.9808809,139.954 L77.820895,141.412 C77.0250914,141.55 76.3712528,142.112 76.115316,142.878 C75.8573796,143.644 76.0393347,144.488 76.589199,145.076 L82.4417544,151.37 L81.224055,160.088 C81.1100831,160.91 81.4579973,161.714 82.13583,162.192 C82.5157362,162.46 82.9576271,162.594 83.4015176,162.594 C83.7474322,162.594 84.0973458,162.512 84.4172668,162.344 L91.7994447,158.496 L99.1796231,162.342 C99.9074435,162.724 100.787226,162.668 101.465059,162.192 C102.140892,161.714 102.490806,160.91 102.376834,160.088 L101.157135,151.37 L107.009691,145.078 C107.559555,144.488 107.74151,143.644 107.485573,142.878"/>
  </defs>
  <g fill="none" fill-rule="evenodd">
    <path fill="#0C0C0D" d="M118.609375,93.84375 L118.578125,93.84375 L118.578125,95 L117.296875,95 L117.296875,83.15625 L118.578125,83.15625 L118.578125,88.40625 L118.609375,88.40625 C119.239586,87.3437447 120.161452,86.8125 121.375,86.8125 C122.401047,86.8125 123.204424,87.1705693 123.785156,87.8867188 C124.365888,88.6028682 124.65625,89.562494 124.65625,90.765625 C124.65625,92.1041734 124.330732,93.1757772 123.679688,93.9804688 C123.028643,94.7851603 122.138026,95.1875 121.007812,95.1875 C119.950516,95.1875 119.151044,94.7395878 118.609375,93.84375 Z M118.578125,90.6171875 L118.578125,91.734375 C118.578125,92.3958366 118.792967,92.9570289 119.222656,93.4179688 C119.652346,93.8789086 120.197913,94.109375 120.859375,94.109375 C121.635421,94.109375 122.243487,93.812503 122.683594,93.21875 C123.1237,92.624997 123.34375,91.7994845 123.34375,90.7421875 C123.34375,89.851558 123.138023,89.1536484 122.726562,88.6484375 C122.315102,88.1432266 121.757816,87.890625 121.054688,87.890625 C120.309892,87.890625 119.71094,88.149737 119.257812,88.6679688 C118.804685,89.1862005 118.578125,89.8359336 118.578125,90.6171875 Z M130.046875,95.1875 C128.864577,95.1875 127.920576,94.8138058 127.214844,94.0664062 C126.509111,93.3190067 126.15625,92.3281312 126.15625,91.09375 C126.15625,89.7499933 126.523434,88.7005246 127.257812,87.9453125 C127.992191,87.1901004 128.984369,86.8125 130.234375,86.8125 C131.427089,86.8125 132.35807,87.1796838 133.027344,87.9140625 C133.696618,88.6484412 134.03125,89.6666602 134.03125,90.96875 C134.03125,92.244798 133.670577,93.2669232 132.949219,94.0351562 C132.227861,94.8033893 131.260423,95.1875 130.046875,95.1875 Z M130.140625,87.890625 C129.317704,87.890625 128.666669,88.1705701 128.1875,88.7304688 C127.708331,89.2903674 127.46875,90.0624951 127.46875,91.046875 C127.46875,91.9947964 127.710935,92.7421848 128.195312,93.2890625 C128.67969,93.8359402 129.328121,94.109375 130.140625,94.109375 C130.968754,94.109375 131.605467,93.8411485 132.050781,93.3046875 C132.496096,92.7682265 132.71875,92.0052133 132.71875,91.015625 C132.71875,90.01562 132.496096,89.2447944 132.050781,88.703125 C131.605467,88.1614556 130.968754,87.890625 130.140625,87.890625 Z M139.421875,95.1875 C138.239577,95.1875 137.295576,94.8138058 136.589844,94.0664062 C135.884111,93.3190067 135.53125,92.3281312 135.53125,91.09375 C135.53125,89.7499933 135.898434,88.7005246 136.632812,87.9453125 C137.367191,87.1901004 138.359369,86.8125 139.609375,86.8125 C140.802089,86.8125 141.73307,87.1796838 142.402344,87.9140625 C143.071618,88.6484412 143.40625,89.6666602 143.40625,90.96875 C143.40625,92.244798 143.045577,93.2669232 142.324219,94.0351562 C141.602861,94.8033893 140.635423,95.1875 139.421875,95.1875 Z M139.515625,87.890625 C138.692704,87.890625 138.041669,88.1705701 137.5625,88.7304688 C137.083331,89.2903674 136.84375,90.0624951 136.84375,91.046875 C136.84375,91.9947964 137.085935,92.7421848 137.570312,93.2890625 C138.05469,93.8359402 138.703121,94.109375 139.515625,94.109375 C140.343754,94.109375 140.980467,93.8411485 141.425781,93.3046875 C141.871096,92.7682265 142.09375,92.0052133 142.09375,91.015625 C142.09375,90.01562 141.871096,89.2447944 141.425781,88.703125 C140.980467,88.1614556 140.343754,87.890625 139.515625,87.890625 Z M152.09375,95 L150.296875,95 L146.765625,91.15625 L146.734375,91.15625 L146.734375,95 L145.453125,95 L145.453125,83.15625 L146.734375,83.15625 L146.734375,90.6640625 L146.765625,90.6640625 L150.125,87 L151.804688,87 L148.09375,90.859375 L152.09375,95 Z M164.765625,95 L163.484375,95 L163.484375,90.40625 C163.484375,89.5208289 163.347658,88.8802103 163.074219,88.484375 C162.80078,88.0885397 162.341149,87.890625 161.695312,87.890625 C161.148435,87.890625 160.683596,88.1406225 160.300781,88.640625 C159.917967,89.1406275 159.726562,89.7395798 159.726562,90.4375 L159.726562,95 L158.445312,95 L158.445312,90.25 C158.445312,88.6770755 157.838548,87.890625 156.625,87.890625 C156.062497,87.890625 155.59896,88.1262997 155.234375,88.5976562 C154.86979,89.0690128 154.6875,89.6822879 154.6875,90.4375 L154.6875,95 L153.40625,95 L153.40625,87 L154.6875,87 L154.6875,88.265625 L154.71875,88.265625 C155.286461,87.2968702 156.114578,86.8125 157.203125,86.8125 C157.750003,86.8125 158.22656,86.9648422 158.632812,87.2695312 C159.039065,87.5742203 159.317708,87.9739559 159.46875,88.46875 C160.062503,87.3645778 160.947911,86.8125 162.125,86.8125 C163.885425,86.8125 164.765625,87.8984266 164.765625,90.0703125 L164.765625,95 Z M172.914062,95 L171.632812,95 L171.632812,93.75 L171.601562,93.75 C171.044268,94.7083381 170.223964,95.1875 169.140625,95.1875 C168.343746,95.1875 167.720054,94.9765646 167.269531,94.5546875 C166.819008,94.1328104 166.59375,93.5729202 166.59375,92.875 C166.59375,91.3802009 167.47395,90.5104179 169.234375,90.265625 L171.632812,89.9296875 C171.632812,88.5703057 171.083339,87.890625 169.984375,87.890625 C169.020829,87.890625 168.151046,88.2187467 167.375,88.875 L167.375,87.5625 C168.161462,87.0624975 169.067703,86.8125 170.09375,86.8125 C171.973968,86.8125 172.914062,87.8072817 172.914062,89.796875 L172.914062,95 Z M171.632812,90.953125 L169.703125,91.21875 C169.109372,91.3020837 168.66146,91.4492177 168.359375,91.6601562 C168.05729,91.8710948 167.90625,92.244789 167.90625,92.78125 C167.90625,93.171877 168.045572,93.4908842 168.324219,93.7382812 C168.602866,93.9856783 168.973956,94.109375 169.4375,94.109375 C170.07292,94.109375 170.597654,93.886721 171.011719,93.4414062 C171.425783,92.9960915 171.632812,92.4322951 171.632812,91.75 L171.632812,90.953125 Z M179.5,88.296875 C179.276041,88.1249991 178.953127,88.0390625 178.53125,88.0390625 C177.984372,88.0390625 177.527346,88.2968724 177.160156,88.8125 C176.792967,89.3281276 176.609375,90.0312455 176.609375,90.921875 L176.609375,95 L175.328125,95 L175.328125,87 L176.609375,87 L176.609375,88.6484375 L176.640625,88.6484375 C176.822918,88.0859347 177.101561,87.647137 177.476562,87.3320312 C177.851564,87.0169255 178.270831,86.859375 178.734375,86.859375 C179.06771,86.859375 179.322916,86.895833 179.5,86.96875 L179.5,88.296875 Z M187.53125,95 L185.734375,95 L182.203125,91.15625 L182.171875,91.15625 L182.171875,95 L180.890625,95 L180.890625,83.15625 L182.171875,83.15625 L182.171875,90.6640625 L182.203125,90.6640625 L185.5625,87 L187.242188,87 L183.53125,90.859375 L187.53125,95 Z M191.851562,91.046875 L187.585938,91.046875 L187.585938,90.0390625 L191.851562,90.0390625 L191.851562,91.046875 Z M197.5,95.1875 C196.317702,95.1875 195.373701,94.8138058 194.667969,94.0664062 C193.962236,93.3190067 193.609375,92.3281312 193.609375,91.09375 C193.609375,89.7499933 193.976559,88.7005246 194.710938,87.9453125 C195.445316,87.1901004 196.437494,86.8125 197.6875,86.8125 C198.880214,86.8125 199.811195,87.1796838 200.480469,87.9140625 C201.149743,88.6484412 201.484375,89.6666602 201.484375,90.96875 C201.484375,92.244798 201.123702,93.2669232 200.402344,94.0351562 C199.680986,94.8033893 198.713548,95.1875 197.5,95.1875 Z M197.59375,87.890625 C196.770829,87.890625 196.119794,88.1705701 195.640625,88.7304688 C195.161456,89.2903674 194.921875,90.0624951 194.921875,91.046875 C194.921875,91.9947964 195.16406,92.7421848 195.648438,93.2890625 C196.132815,93.8359402 196.781246,94.109375 197.59375,94.109375 C198.421879,94.109375 199.058592,93.8411485 199.503906,93.3046875 C199.949221,92.7682265 200.171875,92.0052133 200.171875,91.015625 C200.171875,90.01562 199.949221,89.2447944 199.503906,88.703125 C199.058592,88.1614556 198.421879,87.890625 197.59375,87.890625 Z M210,95 L208.71875,95 L208.71875,93.734375 L208.6875,93.734375 C208.156247,94.7031298 207.333339,95.1875 206.21875,95.1875 C204.31249,95.1875 203.359375,94.0520947 203.359375,91.78125 L203.359375,87 L204.632812,87 L204.632812,91.578125 C204.632812,93.2656334 205.278639,94.109375 206.570312,94.109375 C207.195316,94.109375 207.709633,93.8789086 208.113281,93.4179688 C208.516929,92.9570289 208.71875,92.3541704 208.71875,91.609375 L208.71875,87 L210,87 L210,95 Z M216.296875,94.921875 C215.99479,95.0885425 215.596357,95.171875 215.101562,95.171875 C213.700514,95.171875 213,94.3906328 213,92.828125 L213,88.09375 L211.625,88.09375 L211.625,87 L213,87 L213,85.046875 L214.28125,84.6328125 L214.28125,87 L216.296875,87 L216.296875,88.09375 L214.28125,88.09375 L214.28125,92.6015625 C214.28125,93.1380235 214.372395,93.5208322 214.554688,93.75 C214.73698,93.9791678 215.03906,94.09375 215.460938,94.09375 C215.783856,94.09375 216.062499,94.0052092 216.296875,93.828125 L216.296875,94.921875 Z M219.289062,95 L218.007812,95 L218.007812,83.15625 L219.289062,83.15625 L219.289062,95 Z M222.539062,84.96875 C222.309895,84.96875 222.114584,84.8906258 221.953125,84.734375 C221.791666,84.5781242 221.710938,84.3802095 221.710938,84.140625 C221.710938,83.9010405 221.791666,83.7018237 221.953125,83.5429688 C222.114584,83.3841138 222.309895,83.3046875 222.539062,83.3046875 C222.773439,83.3046875 222.972655,83.3841138 223.136719,83.5429688 C223.300782,83.7018237 223.382812,83.9010405 223.382812,84.140625 C223.382812,84.3697928 223.300782,84.5651034 223.136719,84.7265625 C222.972655,84.8880216 222.773439,84.96875 222.539062,84.96875 Z M223.164062,95 L221.882812,95 L221.882812,87 L223.164062,87 L223.164062,95 Z M232.398438,95 L231.117188,95 L231.117188,90.4375 C231.117188,88.7395748 230.497402,87.890625 229.257812,87.890625 C228.617184,87.890625 228.087242,88.131508 227.667969,88.6132812 C227.248696,89.0950545 227.039062,89.7031213 227.039062,90.4375 L227.039062,95 L225.757812,95 L225.757812,87 L227.039062,87 L227.039062,88.328125 L227.070312,88.328125 C227.674482,87.3177033 228.549473,86.8125 229.695312,86.8125 C230.570317,86.8125 231.239581,87.0950493 231.703125,87.6601562 C232.166669,88.2252632 232.398438,89.0416613 232.398438,90.109375 L232.398438,95 Z M241.242188,91.3203125 L235.59375,91.3203125 C235.614583,92.210942 235.854164,92.8984351 236.3125,93.3828125 C236.770836,93.8671899 237.401038,94.109375 238.203125,94.109375 C239.104171,94.109375 239.932288,93.812503 240.6875,93.21875 L240.6875,94.421875 C239.984371,94.9322942 239.054693,95.1875 237.898438,95.1875 C236.768224,95.1875 235.880212,94.8242224 235.234375,94.0976562 C234.588538,93.3710901 234.265625,92.3489649 234.265625,91.03125 C234.265625,89.7864521 234.618486,88.7721393 235.324219,87.9882812 C236.029951,87.2044232 236.906245,86.8125 237.953125,86.8125 C239.000005,86.8125 239.809893,87.1510383 240.382812,87.828125 C240.955732,88.5052117 241.242188,89.4453065 241.242188,90.6484375 L241.242188,91.3203125 Z M239.929688,90.234375 C239.924479,89.494788 239.746096,88.9192729 239.394531,88.5078125 C239.042967,88.0963521 238.554691,87.890625 237.929688,87.890625 C237.325518,87.890625 236.812502,88.1067687 236.390625,88.5390625 C235.968748,88.9713563 235.708334,89.5364548 235.609375,90.234375 L239.929688,90.234375 Z M243.625,95.171875 C243.385415,95.171875 243.18099,95.0859384 243.011719,94.9140625 C242.842447,94.7421866 242.757812,94.5364595 242.757812,94.296875 C242.757812,94.0572905 242.842447,93.8502613 243.011719,93.6757812 C243.18099,93.5013012 243.385415,93.4140625 243.625,93.4140625 C243.869793,93.4140625 244.078124,93.5013012 244.25,93.6757812 C244.421876,93.8502613 244.507812,94.0572905 244.507812,94.296875 C244.507812,94.5364595 244.421876,94.7421866 244.25,94.9140625 C244.078124,95.0859384 243.869793,95.171875 243.625,95.171875 Z M246.164062,94.7109375 L246.164062,93.3359375 C246.861983,93.8515651 247.630204,94.109375 248.46875,94.109375 C249.593756,94.109375 250.15625,93.7343788 250.15625,92.984375 C250.15625,92.7708323 250.108073,92.5898445 250.011719,92.4414062 C249.915364,92.292968 249.785157,92.1614589 249.621094,92.046875 C249.45703,91.9322911 249.264324,91.8294275 249.042969,91.7382812 C248.821613,91.647135 248.583335,91.5520838 248.328125,91.453125 C247.973957,91.3124993 247.662762,91.1705736 247.394531,91.0273438 C247.126301,90.8841139 246.902345,90.7226571 246.722656,90.5429688 C246.542968,90.3632804 246.407553,90.1588553 246.316406,89.9296875 C246.22526,89.7005197 246.179688,89.4322932 246.179688,89.125 C246.179688,88.7499981 246.265624,88.4179702 246.4375,88.1289062 C246.609376,87.8398423 246.83854,87.5976572 247.125,87.4023438 C247.41146,87.2070303 247.738279,87.0598963 248.105469,86.9609375 C248.472658,86.8619787 248.851561,86.8125 249.242188,86.8125 C249.934899,86.8125 250.554685,86.9322905 251.101562,87.171875 L251.101562,88.46875 C250.513018,88.0833314 249.835941,87.890625 249.070312,87.890625 C248.830728,87.890625 248.614584,87.9179685 248.421875,87.9726562 C248.229166,88.027344 248.063803,88.1041662 247.925781,88.203125 C247.78776,88.3020838 247.68099,88.4205722 247.605469,88.5585938 C247.529948,88.6966153 247.492188,88.8489575 247.492188,89.015625 C247.492188,89.2239594 247.529948,89.3984368 247.605469,89.5390625 C247.68099,89.6796882 247.791666,89.804687 247.9375,89.9140625 C248.083334,90.023438 248.260416,90.1223954 248.46875,90.2109375 C248.677084,90.2994796 248.914061,90.3958328 249.179688,90.5 C249.533856,90.6354173 249.851561,90.7747389 250.132812,90.9179688 C250.414064,91.0611986 250.653645,91.2226554 250.851562,91.4023438 C251.04948,91.5820321 251.201822,91.7890613 251.308594,92.0234375 C251.415365,92.2578137 251.46875,92.5364567 251.46875,92.859375 C251.46875,93.2552103 251.381511,93.5989569 251.207031,93.890625 C251.032551,94.1822931 250.799481,94.4244782 250.507812,94.6171875 C250.216144,94.8098968 249.88021,94.9531245 249.5,95.046875 C249.11979,95.1406255 248.721356,95.1875 248.304688,95.1875 C247.481767,95.1875 246.768232,95.0286474 246.164062,94.7109375 Z M259.726562,87 L256.539062,95 L255.28125,95 L252.25,87 L253.65625,87 L255.6875,92.8125 C255.838542,93.2395855 255.932291,93.6119776 255.96875,93.9296875 L256,93.9296875 C256.052084,93.5286438 256.135416,93.1666683 256.25,92.84375 L258.375,87 L259.726562,87 Z M267.835938,94.359375 C267.835938,97.2968897 266.429702,98.765625 263.617188,98.765625 C262.627599,98.765625 261.763025,98.5781269 261.023438,98.203125 L261.023438,96.921875 C261.924484,97.4218775 262.78385,97.671875 263.601562,97.671875 C265.570322,97.671875 266.554688,96.6250105 266.554688,94.53125 L266.554688,93.65625 L266.523438,93.65625 C265.914059,94.6770884 264.997402,95.1875 263.773438,95.1875 C262.778641,95.1875 261.977868,94.8320348 261.371094,94.1210938 C260.76432,93.4101527 260.460938,92.4557352 260.460938,91.2578125 C260.460938,89.8984307 260.787757,88.8177123 261.441406,88.015625 C262.095055,87.2135377 262.989578,86.8125 264.125,86.8125 C265.20313,86.8125 266.002602,87.2447873 266.523438,88.109375 L266.554688,88.109375 L266.554688,87 L267.835938,87 L267.835938,94.359375 Z M266.554688,91.3828125 L266.554688,90.203125 C266.554688,89.5677052 266.339846,89.0234398 265.910156,88.5703125 C265.480467,88.1171852 264.945316,87.890625 264.304688,87.890625 C263.513017,87.890625 262.893231,88.1783825 262.445312,88.7539062 C261.997394,89.32943 261.773438,90.1354115 261.773438,91.171875 C261.773438,92.0625045 261.988279,92.7747369 262.417969,93.3085938 C262.847658,93.8424506 263.416663,94.109375 264.125,94.109375 C264.843754,94.109375 265.428383,93.8541692 265.878906,93.34375 C266.329429,92.8333308 266.554688,92.1796915 266.554688,91.3828125 Z"/>
    <g fill-rule="nonzero">
      <use fill="#FFF" fill-rule="evenodd" xlink:href="#icon-naming-do-a"/>
      <use fill="#0C0C0D" fill-opacity=".8" fill-rule="evenodd" xlink:href="#icon-naming-do-a"/>
    </g>
    <path fill="#0C0C0D" d="M118.609375,151.84375 L118.578125,151.84375 L118.578125,153 L117.296875,153 L117.296875,141.15625 L118.578125,141.15625 L118.578125,146.40625 L118.609375,146.40625 C119.239586,145.343745 120.161452,144.8125 121.375,144.8125 C122.401047,144.8125 123.204424,145.170569 123.785156,145.886719 C124.365888,146.602868 124.65625,147.562494 124.65625,148.765625 C124.65625,150.104173 124.330732,151.175777 123.679688,151.980469 C123.028643,152.78516 122.138026,153.1875 121.007812,153.1875 C119.950516,153.1875 119.151044,152.739588 118.609375,151.84375 Z M118.578125,148.617188 L118.578125,149.734375 C118.578125,150.395837 118.792967,150.957029 119.222656,151.417969 C119.652346,151.878909 120.197913,152.109375 120.859375,152.109375 C121.635421,152.109375 122.243487,151.812503 122.683594,151.21875 C123.1237,150.624997 123.34375,149.799484 123.34375,148.742188 C123.34375,147.851558 123.138023,147.153648 122.726562,146.648438 C122.315102,146.143227 121.757816,145.890625 121.054688,145.890625 C120.309892,145.890625 119.71094,146.149737 119.257812,146.667969 C118.804685,147.186201 118.578125,147.835934 118.578125,148.617188 Z M130.046875,153.1875 C128.864577,153.1875 127.920576,152.813806 127.214844,152.066406 C126.509111,151.319007 126.15625,150.328131 126.15625,149.09375 C126.15625,147.749993 126.523434,146.700525 127.257812,145.945312 C127.992191,145.1901 128.984369,144.8125 130.234375,144.8125 C131.427089,144.8125 132.35807,145.179684 133.027344,145.914062 C133.696618,146.648441 134.03125,147.66666 134.03125,148.96875 C134.03125,150.244798 133.670577,151.266923 132.949219,152.035156 C132.227861,152.803389 131.260423,153.1875 130.046875,153.1875 Z M130.140625,145.890625 C129.317704,145.890625 128.666669,146.17057 128.1875,146.730469 C127.708331,147.290367 127.46875,148.062495 127.46875,149.046875 C127.46875,149.994796 127.710935,150.742185 128.195312,151.289062 C128.67969,151.83594 129.328121,152.109375 130.140625,152.109375 C130.968754,152.109375 131.605467,151.841149 132.050781,151.304688 C132.496096,150.768226 132.71875,150.005213 132.71875,149.015625 C132.71875,148.01562 132.496096,147.244794 132.050781,146.703125 C131.605467,146.161456 130.968754,145.890625 130.140625,145.890625 Z M139.421875,153.1875 C138.239577,153.1875 137.295576,152.813806 136.589844,152.066406 C135.884111,151.319007 135.53125,150.328131 135.53125,149.09375 C135.53125,147.749993 135.898434,146.700525 136.632812,145.945312 C137.367191,145.1901 138.359369,144.8125 139.609375,144.8125 C140.802089,144.8125 141.73307,145.179684 142.402344,145.914062 C143.071618,146.648441 143.40625,147.66666 143.40625,148.96875 C143.40625,150.244798 143.045577,151.266923 142.324219,152.035156 C141.602861,152.803389 140.635423,153.1875 139.421875,153.1875 Z M139.515625,145.890625 C138.692704,145.890625 138.041669,146.17057 137.5625,146.730469 C137.083331,147.290367 136.84375,148.062495 136.84375,149.046875 C136.84375,149.994796 137.085935,150.742185 137.570312,151.289062 C138.05469,151.83594 138.703121,152.109375 139.515625,152.109375 C140.343754,152.109375 140.980467,151.841149 141.425781,151.304688 C141.871096,150.768226 142.09375,150.005213 142.09375,149.015625 C142.09375,148.01562 141.871096,147.244794 141.425781,146.703125 C140.980467,146.161456 140.343754,145.890625 139.515625,145.890625 Z M152.09375,153 L150.296875,153 L146.765625,149.15625 L146.734375,149.15625 L146.734375,153 L145.453125,153 L145.453125,141.15625 L146.734375,141.15625 L146.734375,148.664062 L146.765625,148.664062 L150.125,145 L151.804688,145 L148.09375,148.859375 L152.09375,153 Z M164.765625,153 L163.484375,153 L163.484375,148.40625 C163.484375,147.520829 163.347658,146.88021 163.074219,146.484375 C162.80078,146.08854 162.341149,145.890625 161.695312,145.890625 C161.148435,145.890625 160.683596,146.140623 160.300781,146.640625 C159.917967,147.140627 159.726562,147.73958 159.726562,148.4375 L159.726562,153 L158.445312,153 L158.445312,148.25 C158.445312,146.677075 157.838548,145.890625 156.625,145.890625 C156.062497,145.890625 155.59896,146.1263 155.234375,146.597656 C154.86979,147.069013 154.6875,147.682288 154.6875,148.4375 L154.6875,153 L153.40625,153 L153.40625,145 L154.6875,145 L154.6875,146.265625 L154.71875,146.265625 C155.286461,145.29687 156.114578,144.8125 157.203125,144.8125 C157.750003,144.8125 158.22656,144.964842 158.632812,145.269531 C159.039065,145.57422 159.317708,145.973956 159.46875,146.46875 C160.062503,145.364578 160.947911,144.8125 162.125,144.8125 C163.885425,144.8125 164.765625,145.898427 164.765625,148.070312 L164.765625,153 Z M172.914062,153 L171.632812,153 L171.632812,151.75 L171.601562,151.75 C171.044268,152.708338 170.223964,153.1875 169.140625,153.1875 C168.343746,153.1875 167.720054,152.976565 167.269531,152.554688 C166.819008,152.13281 166.59375,151.57292 166.59375,150.875 C166.59375,149.380201 167.47395,148.510418 169.234375,148.265625 L171.632812,147.929688 C171.632812,146.570306 171.083339,145.890625 169.984375,145.890625 C169.020829,145.890625 168.151046,146.218747 167.375,146.875 L167.375,145.5625 C168.161462,145.062498 169.067703,144.8125 170.09375,144.8125 C171.973968,144.8125 172.914062,145.807282 172.914062,147.796875 L172.914062,153 Z M171.632812,148.953125 L169.703125,149.21875 C169.109372,149.302084 168.66146,149.449218 168.359375,149.660156 C168.05729,149.871095 167.90625,150.244789 167.90625,150.78125 C167.90625,151.171877 168.045572,151.490884 168.324219,151.738281 C168.602866,151.985678 168.973956,152.109375 169.4375,152.109375 C170.07292,152.109375 170.597654,151.886721 171.011719,151.441406 C171.425783,150.996092 171.632812,150.432295 171.632812,149.75 L171.632812,148.953125 Z M179.5,146.296875 C179.276041,146.124999 178.953127,146.039062 178.53125,146.039062 C177.984372,146.039062 177.527346,146.296872 177.160156,146.8125 C176.792967,147.328128 176.609375,148.031246 176.609375,148.921875 L176.609375,153 L175.328125,153 L175.328125,145 L176.609375,145 L176.609375,146.648438 L176.640625,146.648438 C176.822918,146.085935 177.101561,145.647137 177.476562,145.332031 C177.851564,145.016926 178.270831,144.859375 178.734375,144.859375 C179.06771,144.859375 179.322916,144.895833 179.5,144.96875 L179.5,146.296875 Z M187.53125,153 L185.734375,153 L182.203125,149.15625 L182.171875,149.15625 L182.171875,153 L180.890625,153 L180.890625,141.15625 L182.171875,141.15625 L182.171875,148.664062 L182.203125,148.664062 L185.5625,145 L187.242188,145 L183.53125,148.859375 L187.53125,153 Z M191.851562,149.046875 L187.585938,149.046875 L187.585938,148.039062 L191.851562,148.039062 L191.851562,149.046875 Z M198.109375,142.28125 C197.859374,142.140624 197.575522,142.070312 197.257812,142.070312 C196.361975,142.070312 195.914062,142.635411 195.914062,143.765625 L195.914062,145 L197.789062,145 L197.789062,146.09375 L195.914062,146.09375 L195.914062,153 L194.640625,153 L194.640625,146.09375 L193.273438,146.09375 L193.273438,145 L194.640625,145 L194.640625,143.703125 C194.640625,142.864579 194.88281,142.201825 195.367188,141.714844 C195.851565,141.227862 196.455726,140.984375 197.179688,140.984375 C197.570314,140.984375 197.880207,141.03125 198.109375,141.125 L198.109375,142.28125 Z M199.820312,142.96875 C199.591145,142.96875 199.395834,142.890626 199.234375,142.734375 C199.072916,142.578124 198.992188,142.38021 198.992188,142.140625 C198.992188,141.90104 199.072916,141.701824 199.234375,141.542969 C199.395834,141.384114 199.591145,141.304688 199.820312,141.304688 C200.054689,141.304688 200.253905,141.384114 200.417969,141.542969 C200.582032,141.701824 200.664062,141.90104 200.664062,142.140625 C200.664062,142.369793 200.582032,142.565103 200.417969,142.726562 C200.253905,142.888022 200.054689,142.96875 199.820312,142.96875 Z M200.445312,153 L199.164062,153 L199.164062,145 L200.445312,145 L200.445312,153 Z M204.320312,153 L203.039062,153 L203.039062,141.15625 L204.320312,141.15625 L204.320312,153 Z M208.195312,153 L206.914062,153 L206.914062,141.15625 L208.195312,141.15625 L208.195312,153 Z M217.21875,149.320312 L211.570312,149.320312 C211.591146,150.210942 211.830727,150.898435 212.289062,151.382812 C212.747398,151.86719 213.3776,152.109375 214.179688,152.109375 C215.080734,152.109375 215.90885,151.812503 216.664062,151.21875 L216.664062,152.421875 C215.960934,152.932294 215.031256,153.1875 213.875,153.1875 C212.744786,153.1875 211.856774,152.824222 211.210938,152.097656 C210.565101,151.37109 210.242188,150.348965 210.242188,149.03125 C210.242188,147.786452 210.595049,146.772139 211.300781,145.988281 C212.006514,145.204423 212.882807,144.8125 213.929688,144.8125 C214.976568,144.8125 215.786455,145.151038 216.359375,145.828125 C216.932295,146.505212 217.21875,147.445306 217.21875,148.648438 L217.21875,149.320312 Z M215.90625,148.234375 C215.901042,147.494788 215.722658,146.919273 215.371094,146.507812 C215.019529,146.096352 214.531253,145.890625 213.90625,145.890625 C213.30208,145.890625 212.789065,146.106769 212.367188,146.539062 C211.94531,146.971356 211.684896,147.536455 211.585938,148.234375 L215.90625,148.234375 Z M225.984375,153 L224.703125,153 L224.703125,151.640625 L224.671875,151.640625 C224.078122,152.67188 223.161465,153.1875 221.921875,153.1875 C220.916662,153.1875 220.113284,152.829431 219.511719,152.113281 C218.910153,151.397132 218.609375,150.421881 218.609375,149.1875 C218.609375,147.864577 218.942705,146.804691 219.609375,146.007812 C220.276045,145.210934 221.164057,144.8125 222.273438,144.8125 C223.372401,144.8125 224.171873,145.244787 224.671875,146.109375 L224.703125,146.109375 L224.703125,141.15625 L225.984375,141.15625 L225.984375,153 Z M224.703125,149.382812 L224.703125,148.203125 C224.703125,147.557288 224.489585,147.010419 224.0625,146.5625 C223.635415,146.114581 223.093753,145.890625 222.4375,145.890625 C221.656246,145.890625 221.041669,146.17708 220.59375,146.75 C220.145831,147.32292 219.921875,148.114578 219.921875,149.125 C219.921875,150.04688 220.136717,150.774737 220.566406,151.308594 C220.996096,151.842451 221.572913,152.109375 222.296875,152.109375 C223.01042,152.109375 223.589842,151.851565 224.035156,151.335938 C224.480471,150.82031 224.703125,150.169275 224.703125,149.382812 Z M229.023438,153.171875 C228.783853,153.171875 228.579428,153.085938 228.410156,152.914062 C228.240885,152.742187 228.15625,152.53646 228.15625,152.296875 C228.15625,152.05729 228.240885,151.850261 228.410156,151.675781 C228.579428,151.501301 228.783853,151.414062 229.023438,151.414062 C229.26823,151.414062 229.476562,151.501301 229.648438,151.675781 C229.820313,151.850261 229.90625,152.05729 229.90625,152.296875 C229.90625,152.53646 229.820313,152.742187 229.648438,152.914062 C229.476562,153.085938 229.26823,153.171875 229.023438,153.171875 Z M231.5625,152.710938 L231.5625,151.335938 C232.26042,151.851565 233.028642,152.109375 233.867188,152.109375 C234.992193,152.109375 235.554688,151.734379 235.554688,150.984375 C235.554688,150.770832 235.506511,150.589844 235.410156,150.441406 C235.313802,150.292968 235.183595,150.161459 235.019531,150.046875 C234.855468,149.932291 234.662762,149.829428 234.441406,149.738281 C234.220051,149.647135 233.981772,149.552084 233.726562,149.453125 C233.372394,149.312499 233.061199,149.170574 232.792969,149.027344 C232.524738,148.884114 232.300782,148.722657 232.121094,148.542969 C231.941405,148.36328 231.80599,148.158855 231.714844,147.929688 C231.623697,147.70052 231.578125,147.432293 231.578125,147.125 C231.578125,146.749998 231.664062,146.41797 231.835938,146.128906 C232.007813,145.839842 232.236978,145.597657 232.523438,145.402344 C232.809897,145.20703 233.136717,145.059896 233.503906,144.960938 C233.871096,144.861979 234.249998,144.8125 234.640625,144.8125 C235.333337,144.8125 235.953122,144.93229 236.5,145.171875 L236.5,146.46875 C235.911455,146.083331 235.234379,145.890625 234.46875,145.890625 C234.229165,145.890625 234.013022,145.917968 233.820312,145.972656 C233.627603,146.027344 233.46224,146.104166 233.324219,146.203125 C233.186197,146.302084 233.079427,146.420572 233.003906,146.558594 C232.928385,146.696615 232.890625,146.848958 232.890625,147.015625 C232.890625,147.223959 232.928385,147.398437 233.003906,147.539062 C233.079427,147.679688 233.190103,147.804687 233.335938,147.914062 C233.481772,148.023438 233.658853,148.122395 233.867188,148.210938 C234.075522,148.29948 234.312499,148.395833 234.578125,148.5 C234.932293,148.635417 235.249999,148.774739 235.53125,148.917969 C235.812501,149.061199 236.052082,149.222655 236.25,149.402344 C236.447918,149.582032 236.60026,149.789061 236.707031,150.023438 C236.813803,150.257814 236.867188,150.536457 236.867188,150.859375 C236.867188,151.25521 236.779949,151.598957 236.605469,151.890625 C236.430989,152.182293 236.197918,152.424478 235.90625,152.617188 C235.614582,152.809897 235.278648,152.953125 234.898438,153.046875 C234.518227,153.140625 234.119794,153.1875 233.703125,153.1875 C232.880204,153.1875 232.16667,153.028647 231.5625,152.710938 Z M245.125,145 L241.9375,153 L240.679688,153 L237.648438,145 L239.054688,145 L241.085938,150.8125 C241.23698,151.239585 241.330729,151.611978 241.367188,151.929688 L241.398438,151.929688 C241.450521,151.528644 241.533854,151.166668 241.648438,150.84375 L243.773438,145 L245.125,145 Z M253.234375,152.359375 C253.234375,155.29689 251.828139,156.765625 249.015625,156.765625 C248.026037,156.765625 247.161462,156.578127 246.421875,156.203125 L246.421875,154.921875 C247.322921,155.421877 248.182288,155.671875 249,155.671875 C250.96876,155.671875 251.953125,154.62501 251.953125,152.53125 L251.953125,151.65625 L251.921875,151.65625 C251.312497,152.677088 250.395839,153.1875 249.171875,153.1875 C248.177078,153.1875 247.376305,152.832035 246.769531,152.121094 C246.162757,151.410153 245.859375,150.455735 245.859375,149.257812 C245.859375,147.898431 246.186195,146.817712 246.839844,146.015625 C247.493493,145.213538 248.388015,144.8125 249.523438,144.8125 C250.601568,144.8125 251.401039,145.244787 251.921875,146.109375 L251.953125,146.109375 L251.953125,145 L253.234375,145 L253.234375,152.359375 Z M251.953125,149.382812 L251.953125,148.203125 C251.953125,147.567705 251.738283,147.02344 251.308594,146.570312 C250.878904,146.117185 250.343753,145.890625 249.703125,145.890625 C248.911454,145.890625 248.291669,146.178383 247.84375,146.753906 C247.395831,147.32943 247.171875,148.135411 247.171875,149.171875 C247.171875,150.062504 247.386717,150.774737 247.816406,151.308594 C248.246096,151.842451 248.815101,152.109375 249.523438,152.109375 C250.242191,152.109375 250.826821,151.854169 251.277344,151.34375 C251.727867,150.833331 251.953125,150.179691 251.953125,149.382812 Z"/>
    <use fill="#FFF" xlink:href="#icon-naming-do-b"/>
    <use fill="#0C0C0D" fill-opacity=".8" xlink:href="#icon-naming-do-b"/>
  </g>
</svg>
