<svg xmlns="http://www.w3.org/2000/svg" xmlns:xlink="http://www.w3.org/1999/xlink" width="360" height="360" viewBox="0 0 360 360">
  <defs>
    <polygon id="icon-grid-20-a" points="0 0 265 0 265 265 0 265"/>
    <polygon id="icon-grid-20-c" points="0 0 265 0 265 265.201 0 265.201"/>
    <polygon id="icon-grid-20-e" points="0 0 265 0 265 265.201 0 265.201"/>
    <path id="icon-grid-20-g" d="M221,50.4282054 L221,215.11574 C221,230.816204 209.274886,243.543945 194.811224,243.543945 L70.1887755,243.543945 C55.7251142,243.543945 44,230.816204 44,215.11574 L44,50.4282054 C44,34.7277411 55.7251142,22 70.1887755,22 L194.811224,22 C209.274886,22 221,34.7277411 221,50.4282054 Z"/>
    <filter id="icon-grid-20-h" width="100.6%" height="100.5%" x="-.3%" y="-.2%" filterUnits="objectBoundingBox">
      <feOffset dx="1" in="SourceAlpha" result="shadowOffsetInner1"/>
      <feComposite in="shadowOffsetInner1" in2="SourceAlpha" k2="-1" k3="1" operator="arithmetic" result="shadowInnerInner1"/>
      <feColorMatrix in="shadowInnerInner1" result="shadowMatrixInner1" values="0 0 0 0 0.917647059   0 0 0 0 0.109803922   0 0 0 0 0.705882353  0 0 0 1 0"/>
      <feOffset dx="-1" in="SourceAlpha" result="shadowOffsetInner2"/>
      <feComposite in="shadowOffsetInner2" in2="SourceAlpha" k2="-1" k3="1" operator="arithmetic" result="shadowInnerInner2"/>
      <feColorMatrix in="shadowInnerInner2" result="shadowMatrixInner2" values="0 0 0 0 0.917647059   0 0 0 0 0.109803922   0 0 0 0 0.705882353  0 0 0 1 0"/>
      <feMerge>
        <feMergeNode in="shadowMatrixInner1"/>
        <feMergeNode in="shadowMatrixInner2"/>
      </feMerge>
    </filter>
    <path id="icon-grid-20-i" d="M232,58.5353982 L232,206.464602 C232,220.567413 218.817527,232 202.556122,232 L62.4438776,232 C46.182473,232 33,220.567413 33,206.464602 L33,58.5353982 C33,44.4325872 46.182473,33 62.4438776,33 L202.556122,33 C218.817527,33 232,44.4325872 232,58.5353982 Z"/>
    <filter id="icon-grid-20-j" width="100.5%" height="100.5%" x="-.3%" y="-.3%" filterUnits="objectBoundingBox">
      <feOffset dx="1" in="SourceAlpha" result="shadowOffsetInner1"/>
      <feComposite in="shadowOffsetInner1" in2="SourceAlpha" k2="-1" k3="1" operator="arithmetic" result="shadowInnerInner1"/>
      <feColorMatrix in="shadowInnerInner1" result="shadowMatrixInner1" values="0 0 0 0 0.917647059   0 0 0 0 0.109803922   0 0 0 0 0.705882353  0 0 0 1 0"/>
      <feOffset dx="-1" in="SourceAlpha" result="shadowOffsetInner2"/>
      <feComposite in="shadowOffsetInner2" in2="SourceAlpha" k2="-1" k3="1" operator="arithmetic" result="shadowInnerInner2"/>
      <feColorMatrix in="shadowInnerInner2" result="shadowMatrixInner2" values="0 0 0 0 0.917647059   0 0 0 0 0.109803922   0 0 0 0 0.705882353  0 0 0 1 0"/>
      <feMerge>
        <feMergeNode in="shadowMatrixInner1"/>
        <feMergeNode in="shadowMatrixInner2"/>
      </feMerge>
    </filter>
    <path id="icon-grid-20-k" d="M243,70.1887755 L243,194.811224 C243,209.274886 230.303509,221 214.641593,221 L50.3584071,221 C34.6964913,221 22,209.274886 22,194.811224 L22,70.1887755 C22,55.7251142 34.6964913,44 50.3584071,44 L214.641593,44 C230.303509,44 243,55.7251142 243,70.1887755 Z"/>
    <filter id="icon-grid-20-l" width="100.5%" height="100.6%" x="-.2%" y="-.3%" filterUnits="objectBoundingBox">
      <feOffset dx="1" in="SourceAlpha" result="shadowOffsetInner1"/>
      <feComposite in="shadowOffsetInner1" in2="SourceAlpha" k2="-1" k3="1" operator="arithmetic" result="shadowInnerInner1"/>
      <feColorMatrix in="shadowInnerInner1" result="shadowMatrixInner1" values="0 0 0 0 0.917647059   0 0 0 0 0.109803922   0 0 0 0 0.705882353  0 0 0 1 0"/>
      <feOffset dx="-1" in="SourceAlpha" result="shadowOffsetInner2"/>
      <feComposite in="shadowOffsetInner2" in2="SourceAlpha" k2="-1" k3="1" operator="arithmetic" result="shadowInnerInner2"/>
      <feColorMatrix in="shadowInnerInner2" result="shadowMatrixInner2" values="0 0 0 0 0.917647059   0 0 0 0 0.109803922   0 0 0 0 0.705882353  0 0 0 1 0"/>
      <feMerge>
        <feMergeNode in="shadowMatrixInner1"/>
        <feMergeNode in="shadowMatrixInner2"/>
      </feMerge>
    </filter>
  </defs>
  <g fill="none" fill-rule="evenodd">
    <g transform="translate(51 51)">
      <mask id="icon-grid-20-b" fill="#fff">
        <use xlink:href="#icon-grid-20-a"/>
      </mask>
      <g mask="url(#icon-grid-20-b)">
        <mask id="icon-grid-20-d" fill="#fff">
          <use xlink:href="#icon-grid-20-c"/>
        </mask>
        <rect width="338" height="1" x="-1" fill="#D7D7DB" mask="url(#icon-grid-20-d)"/>
        <rect width="338" height="1" x="-1" y="11" fill="#D7D7DB" mask="url(#icon-grid-20-d)" opacity=".3"/>
        <rect width="338" height="1" x="-1" y="22" fill="#D7D7DB" mask="url(#icon-grid-20-d)" opacity=".3"/>
        <rect width="338" height="1" x="-1" y="33" fill="#D7D7DB" mask="url(#icon-grid-20-d)" opacity=".3"/>
        <rect width="338" height="1" x="-1" y="44" fill="#D7D7DB" mask="url(#icon-grid-20-d)"/>
        <rect width="338" height="1" x="-1" y="55" fill="#D7D7DB" mask="url(#icon-grid-20-d)" opacity=".3"/>
        <rect width="338" height="1" x="-1" y="66" fill="#D7D7DB" mask="url(#icon-grid-20-d)" opacity=".3"/>
        <rect width="338" height="1" x="-1" y="77" fill="#D7D7DB" mask="url(#icon-grid-20-d)" opacity=".3"/>
        <rect width="338" height="1" x="-1" y="88" fill="#D7D7DB" mask="url(#icon-grid-20-d)"/>
        <rect width="338" height="1" x="-1" y="99" fill="#D7D7DB" mask="url(#icon-grid-20-d)" opacity=".3"/>
        <rect width="338" height="1" x="-1" y="110" fill="#D7D7DB" mask="url(#icon-grid-20-d)" opacity=".3"/>
        <rect width="338" height="1" x="-1" y="121" fill="#D7D7DB" mask="url(#icon-grid-20-d)" opacity=".3"/>
        <rect width="338" height="1" x="-1" y="132" fill="#D7D7DB" mask="url(#icon-grid-20-d)"/>
        <rect width="338" height="1" x="-1" y="143" fill="#D7D7DB" mask="url(#icon-grid-20-d)" opacity=".3"/>
        <rect width="338" height="1" x="-1" y="154" fill="#D7D7DB" mask="url(#icon-grid-20-d)" opacity=".3"/>
        <rect width="338" height="1" x="-1" y="165" fill="#D7D7DB" mask="url(#icon-grid-20-d)" opacity=".3"/>
        <rect width="338" height="1" x="-1" y="176" fill="#D7D7DB" mask="url(#icon-grid-20-d)"/>
        <rect width="338" height="1" x="-1" y="187" fill="#D7D7DB" mask="url(#icon-grid-20-d)" opacity=".3"/>
        <rect width="338" height="1" x="-1" y="198" fill="#D7D7DB" mask="url(#icon-grid-20-d)" opacity=".3"/>
        <rect width="338" height="1" x="-1" y="209" fill="#D7D7DB" mask="url(#icon-grid-20-d)" opacity=".3"/>
        <rect width="338" height="1" x="-1" y="220" fill="#D7D7DB" mask="url(#icon-grid-20-d)"/>
        <rect width="338" height="1" x="-1" y="231" fill="#D7D7DB" mask="url(#icon-grid-20-d)" opacity=".3"/>
        <rect width="338" height="1" x="-1" y="242" fill="#D7D7DB" mask="url(#icon-grid-20-d)" opacity=".3"/>
        <rect width="338" height="1" x="-1" y="253" fill="#D7D7DB" mask="url(#icon-grid-20-d)" opacity=".3"/>
        <rect width="338" height="1" x="-1" y="264" fill="#D7D7DB" mask="url(#icon-grid-20-d)"/>
      </g>
      <g mask="url(#icon-grid-20-b)">
        <g transform="matrix(0 -1 1 0 0 265)">
          <mask id="icon-grid-20-f" fill="#fff">
            <use xlink:href="#icon-grid-20-e"/>
          </mask>
          <rect width="338" height="1" x="-73" fill="#D7D7DB" mask="url(#icon-grid-20-f)"/>
          <rect width="338" height="1" x="-73" y="11" fill="#D7D7DB" mask="url(#icon-grid-20-f)" opacity=".3"/>
          <rect width="338" height="1" x="-73" y="22" fill="#D7D7DB" mask="url(#icon-grid-20-f)" opacity=".3"/>
          <rect width="338" height="1" x="-73" y="33" fill="#D7D7DB" mask="url(#icon-grid-20-f)" opacity=".3"/>
          <rect width="338" height="1" x="-73" y="44" fill="#D7D7DB" mask="url(#icon-grid-20-f)"/>
          <rect width="338" height="1" x="-73" y="55" fill="#D7D7DB" mask="url(#icon-grid-20-f)" opacity=".3"/>
          <rect width="338" height="1" x="-73" y="66" fill="#D7D7DB" mask="url(#icon-grid-20-f)" opacity=".3"/>
          <rect width="338" height="1" x="-73" y="77" fill="#D7D7DB" mask="url(#icon-grid-20-f)" opacity=".3"/>
          <rect width="338" height="1" x="-73" y="88" fill="#D7D7DB" mask="url(#icon-grid-20-f)"/>
          <rect width="338" height="1" x="-73" y="99" fill="#D7D7DB" mask="url(#icon-grid-20-f)" opacity=".3"/>
          <rect width="338" height="1" x="-73" y="110" fill="#D7D7DB" mask="url(#icon-grid-20-f)" opacity=".3"/>
          <rect width="338" height="1" x="-73" y="121" fill="#D7D7DB" mask="url(#icon-grid-20-f)" opacity=".3"/>
          <rect width="338" height="1" x="-73" y="132" fill="#D7D7DB" mask="url(#icon-grid-20-f)"/>
          <rect width="338" height="1" x="-73" y="143" fill="#D7D7DB" mask="url(#icon-grid-20-f)" opacity=".3"/>
          <rect width="338" height="1" x="-73" y="154" fill="#D7D7DB" mask="url(#icon-grid-20-f)" opacity=".3"/>
          <rect width="338" height="1" x="-73" y="165" fill="#D7D7DB" mask="url(#icon-grid-20-f)" opacity=".3"/>
          <rect width="338" height="1" x="-73" y="176" fill="#D7D7DB" mask="url(#icon-grid-20-f)"/>
          <rect width="338" height="1" x="-73" y="187" fill="#D7D7DB" mask="url(#icon-grid-20-f)" opacity=".3"/>
          <rect width="338" height="1" x="-73" y="198" fill="#D7D7DB" mask="url(#icon-grid-20-f)" opacity=".3"/>
          <rect width="338" height="1" x="-73" y="209" fill="#D7D7DB" mask="url(#icon-grid-20-f)" opacity=".3"/>
          <rect width="338" height="1" x="-73" y="220" fill="#D7D7DB" mask="url(#icon-grid-20-f)"/>
          <rect width="338" height="1" x="-73" y="231" fill="#D7D7DB" mask="url(#icon-grid-20-f)" opacity=".3"/>
          <rect width="338" height="1" x="-73" y="242" fill="#D7D7DB" mask="url(#icon-grid-20-f)" opacity=".3"/>
          <rect width="338" height="1" x="-73" y="253" fill="#D7D7DB" mask="url(#icon-grid-20-f)" opacity=".3"/>
          <rect width="338" height="1" x="-73" y="264" fill="#D7D7DB" mask="url(#icon-grid-20-f)"/>
        </g>
      </g>
      <rect width="209" height="209" x="28" y="28" stroke="#0C0C0D" stroke-opacity=".1" stroke-width="12"/>
      <use fill="#FC2DD7" fill-opacity=".25" xlink:href="#icon-grid-20-g"/>
      <use fill="#000" filter="url(#icon-grid-20-h)" xlink:href="#icon-grid-20-g"/>
      <use fill="#FC2DD7" fill-opacity=".25" xlink:href="#icon-grid-20-i"/>
      <use fill="#000" filter="url(#icon-grid-20-j)" xlink:href="#icon-grid-20-i"/>
      <g>
        <use fill="#FC2DD7" fill-opacity=".25" xlink:href="#icon-grid-20-k"/>
        <use fill="#000" filter="url(#icon-grid-20-l)" xlink:href="#icon-grid-20-k"/>
      </g>
    </g>
    <g transform="translate(73 73)">
      <g transform="translate(238)">
        <rect width="9" height="1" x="13.611" fill="#EA1CB4"/>
        <rect width="1" height="221" x="17.556" fill="#EA1CB4"/>
        <rect width="9" height="1" x="13.556" y="220" fill="#EA1CB4"/>
        <rect width="37" height="22" y="99" fill="#EA1CB4" fill-rule="nonzero" rx="2"/>
        <path fill="#FFF" d="M8.774,105.864 C9.17000198,106.072001 9.47199896,106.351998 9.68,106.704 C9.88800104,107.056002 9.992,107.451998 9.992,107.892 C9.992,108.380002 9.88000112,108.853998 9.656,109.314 C9.43199888,109.774002 9.06800252,110.281997 8.564,110.838 C8.05999748,111.394003 7.3480046,112.087996 6.428,112.92 L10.184,112.92 L10.04,114 L4.892,114 L4.892,112.98 C5.9320052,111.979995 6.70799744,111.198003 7.22,110.634 C7.73200256,110.069997 8.09199896,109.588002 8.3,109.188 C8.50800104,108.787998 8.612,108.384002 8.612,107.976 C8.612,107.559998 8.4920012,107.232001 8.252,106.992 C8.0119988,106.751999 7.68400208,106.632 7.268,106.632 C6.9079982,106.632 6.60200126,106.697999 6.35,106.83 C6.09799874,106.962001 5.84400128,107.183998 5.588,107.496 L4.724,106.824 C5.05200164,106.399998 5.42799788,106.082001 5.852,105.87 C6.27600212,105.657999 6.77999708,105.552 7.364,105.552 C7.90800272,105.552 8.37799802,105.655999 8.774,105.864 Z M17,106.662 C17.4800024,107.402004 17.72,108.463993 17.72,109.848 C17.72,111.232007 17.4800024,112.295996 17,113.04 C16.5199976,113.784004 15.8200046,114.156 14.9,114.156 C13.9799954,114.156 13.2800024,113.784004 12.8,113.04 C12.3199976,112.295996 12.08,111.232007 12.08,109.848 C12.08,108.463993 12.3199976,107.402004 12.8,106.662 C13.2800024,105.921996 13.9799954,105.552 14.9,105.552 C15.8200046,105.552 16.5199976,105.921996 17,106.662 Z M13.808,107.364 C13.5599988,107.884003 13.436,108.711994 13.436,109.848 C13.436,111.000006 13.5599988,111.835997 13.808,112.356 C14.0560012,112.876003 14.4199976,113.136 14.9,113.136 C15.3800024,113.136 15.7439988,112.876003 15.992,112.356 C16.2400012,111.835997 16.364,111.000006 16.364,109.848 C16.364,108.703994 16.2400012,107.874003 15.992,107.358 C15.7439988,106.841997 15.3800024,106.584 14.9,106.584 C14.4199976,106.584 14.0560012,106.843997 13.808,107.364 Z M15.464,109.308 C15.6160008,109.460001 15.692,109.643999 15.692,109.86 C15.692,110.084001 15.6160008,110.271999 15.464,110.424 C15.3119992,110.576001 15.1240011,110.652 14.9,110.652 C14.6759989,110.652 14.4900007,110.576001 14.342,110.424 C14.1939993,110.271999 14.12,110.084001 14.12,109.86 C14.12,109.643999 14.1939993,109.460001 14.342,109.308 C14.4900007,109.155999 14.6759989,109.08 14.9,109.08 C15.1240011,109.08 15.3119992,109.155999 15.464,109.308 Z M24.968,110.82 C24.968,111.820005 24.7560021,112.625997 24.332,113.238 C23.9079979,113.850003 23.3040039,114.156 22.52,114.156 C21.8559967,114.156 21.320002,113.924002 20.912,113.46 L20.912,116.436 L19.568,116.592 L19.568,107.664 L20.732,107.664 L20.816,108.48 C21.0560012,108.159998 21.3339984,107.916001 21.65,107.748 C21.9660016,107.579999 22.3039982,107.496 22.664,107.496 C24.2000077,107.496 24.968,108.603989 24.968,110.82 Z M21.524,108.78 C21.2919988,108.948001 21.0880009,109.167999 20.912,109.44 L20.912,112.404 C21.2240016,112.876002 21.6399974,113.112 22.16,113.112 C22.6240023,113.112 22.9719988,112.928002 23.204,112.56 C23.4360012,112.191998 23.552,111.616004 23.552,110.832 C23.552,110.023996 23.448001,109.438002 23.24,109.074 C23.031999,108.709998 22.7160021,108.528 22.292,108.528 C22.0119986,108.528 21.7560012,108.611999 21.524,108.78 Z M26.216,114 L28.496,110.664 L26.468,107.664 L28.016,107.664 L29.312,109.896 L30.608,107.664 L32.084,107.664 L30.104,110.604 L32.384,114 L30.812,114 L29.252,111.408 L27.704,114 L26.216,114 Z"/>
      </g>
      <g transform="translate(0 247)">
        <rect width="1" height="9" x="220" y="7" fill="#EA1CB4"/>
        <rect width="221" height="1" y="11" fill="#EA1CB4"/>
        <rect width="1" height="9" y="7" fill="#EA1CB4"/>
        <rect width="37" height="22" x="93" fill="#EA1CB4" fill-rule="nonzero" rx="2"/>
        <path fill="#FFF" d="M101.774,6.864 C102.170002,7.07200104 102.471999,7.35199824 102.68,7.704 C102.888001,8.05600176 102.992,8.4519978 102.992,8.892 C102.992,9.38000244 102.880001,9.8539977 102.656,10.314 C102.431999,10.7740023 102.068003,11.2819972 101.564,11.838 C101.059997,12.3940028 100.348005,13.0879958 99.428,13.92 L103.184,13.92 L103.04,15 L97.892,15 L97.892,13.98 C98.9320052,12.979995 99.7079974,12.1980028 100.22,11.634 C100.732003,11.0699972 101.091999,10.588002 101.3,10.188 C101.508001,9.787998 101.612,9.38400204 101.612,8.976 C101.612,8.55999792 101.492001,8.2320012 101.252,7.992 C101.011999,7.7519988 100.684002,7.632 100.268,7.632 C99.9079982,7.632 99.6020013,7.69799934 99.35,7.83 C99.0979987,7.96200066 98.8440013,8.18399844 98.588,8.496 L97.724,7.824 C98.0520016,7.39999788 98.4279979,7.08200106 98.852,6.87 C99.2760021,6.65799894 99.7799971,6.552 100.364,6.552 C100.908003,6.552 101.377998,6.65599896 101.774,6.864 Z M110,7.662 C110.480002,8.4020037 110.72,9.46399308 110.72,10.848 C110.72,12.2320069 110.480002,13.2959963 110,14.04 C109.519998,14.7840037 108.820005,15.156 107.9,15.156 C106.979995,15.156 106.280002,14.7840037 105.8,14.04 C105.319998,13.2959963 105.08,12.2320069 105.08,10.848 C105.08,9.46399308 105.319998,8.4020037 105.8,7.662 C106.280002,6.9219963 106.979995,6.552 107.9,6.552 C108.820005,6.552 109.519998,6.9219963 110,7.662 Z M106.808,8.364 C106.559999,8.8840026 106.436,9.71199432 106.436,10.848 C106.436,12.0000058 106.559999,12.8359974 106.808,13.356 C107.056001,13.8760026 107.419998,14.136 107.9,14.136 C108.380002,14.136 108.743999,13.8760026 108.992,13.356 C109.240001,12.8359974 109.364,12.0000058 109.364,10.848 C109.364,9.70399428 109.240001,8.87400258 108.992,8.358 C108.743999,7.84199742 108.380002,7.584 107.9,7.584 C107.419998,7.584 107.056001,7.8439974 106.808,8.364 Z M108.464,10.308 C108.616001,10.4600008 108.692,10.6439989 108.692,10.86 C108.692,11.0840011 108.616001,11.2719992 108.464,11.424 C108.311999,11.5760008 108.124001,11.652 107.9,11.652 C107.675999,11.652 107.490001,11.5760008 107.342,11.424 C107.193999,11.2719992 107.12,11.0840011 107.12,10.86 C107.12,10.6439989 107.193999,10.4600008 107.342,10.308 C107.490001,10.1559992 107.675999,10.08 107.9,10.08 C108.124001,10.08 108.311999,10.1559992 108.464,10.308 Z M117.968,11.82 C117.968,12.820005 117.756002,13.6259969 117.332,14.238 C116.907998,14.8500031 116.304004,15.156 115.52,15.156 C114.855997,15.156 114.320002,14.9240023 113.912,14.46 L113.912,17.436 L112.568,17.592 L112.568,8.664 L113.732,8.664 L113.816,9.48 C114.056001,9.1599984 114.333998,8.91600084 114.65,8.748 C114.966002,8.57999916 115.303998,8.496 115.664,8.496 C117.200008,8.496 117.968,9.60398892 117.968,11.82 Z M114.524,9.78 C114.291999,9.94800084 114.088001,10.1679986 113.912,10.44 L113.912,13.404 C114.224002,13.8760024 114.639997,14.112 115.16,14.112 C115.624002,14.112 115.971999,13.9280018 116.204,13.56 C116.436001,13.1919982 116.552,12.6160039 116.552,11.832 C116.552,11.023996 116.448001,10.4380018 116.24,10.074 C116.031999,9.70999818 115.716002,9.528 115.292,9.528 C115.011999,9.528 114.756001,9.61199916 114.524,9.78 Z M119.216,15 L121.496,11.664 L119.468,8.664 L121.016,8.664 L122.312,10.896 L123.608,8.664 L125.084,8.664 L123.104,11.604 L125.384,15 L123.812,15 L122.252,12.408 L120.704,15 L119.216,15 Z"/>
      </g>
    </g>
  </g>
</svg>
