<svg xmlns="http://www.w3.org/2000/svg" xmlns:xlink="http://www.w3.org/1999/xlink" width="360" height="360" viewBox="0 0 360 360">
  <defs>
    <polygon id="icon-grid-24-a" points="0 0 265 0 265 265 0 265"/>
    <polygon id="icon-grid-24-c" points="0 0 265 0 265 265.201 0 265.201"/>
    <polygon id="icon-grid-24-e" points="0 0 265 0 265 265 0 265"/>
    <path id="icon-grid-24-g" d="M243,34.2763974 L243,231.267548 C243,250.047673 228.360168,265.271973 210.30102,265.271973 L54.6989796,265.271973 C36.6398318,265.271973 22,250.047673 22,231.267548 L22,34.2763974 C22,15.4962722 36.6398318,0.271972656 54.6989796,0.271972656 L210.30102,0.271972656 C228.360168,0.271972656 243,15.4962722 243,34.2763974 Z"/>
    <path id="icon-grid-24-h" d="M254,42.1814159 L254,222.818584 C254,240.039605 237.902809,254 218.045918,254 L46.9540816,254 C27.0971907,254 11,240.039605 11,222.818584 L11,42.1814159 C11,24.9603954 27.0971907,11 46.9540816,11 L218.045918,11 C237.902809,11 254,24.9603954 254,42.1814159 Z"/>
    <path id="icon-grid-24-i" d="M265,54.6989796 L265,210.30102 C265,228.360168 249.7757,243 230.995575,243 L34.0044248,243 C15.2242995,243 3.33263407e-14,228.360168 0,210.30102 L9.99790221e-14,54.6989796 C3.33263407e-14,36.6398318 15.2242995,22 34.0044248,22 L230.995575,22 C249.7757,22 265,36.6398318 265,54.6989796 Z"/>
  </defs>
  <g fill="none" fill-rule="evenodd">
    <g transform="translate(48 47)">
      <mask id="icon-grid-24-b" fill="#fff">
        <use xlink:href="#icon-grid-24-a"/>
      </mask>
      <g mask="url(#icon-grid-24-b)">
        <mask id="icon-grid-24-d" fill="#fff">
          <use xlink:href="#icon-grid-24-c"/>
        </mask>
        <rect width="338" height="1" x="-1" fill="#D7D7DB" mask="url(#icon-grid-24-d)"/>
        <rect width="338" height="1" x="-1" y="11" fill="#D7D7DB" mask="url(#icon-grid-24-d)" opacity=".3"/>
        <rect width="338" height="1" x="-1" y="22" fill="#D7D7DB" mask="url(#icon-grid-24-d)" opacity=".3"/>
        <rect width="338" height="1" x="-1" y="33" fill="#D7D7DB" mask="url(#icon-grid-24-d)" opacity=".3"/>
        <rect width="338" height="1" x="-1" y="44" fill="#D7D7DB" mask="url(#icon-grid-24-d)"/>
        <rect width="338" height="1" x="-1" y="55" fill="#D7D7DB" mask="url(#icon-grid-24-d)" opacity=".3"/>
        <rect width="338" height="1" x="-1" y="66" fill="#D7D7DB" mask="url(#icon-grid-24-d)" opacity=".3"/>
        <rect width="338" height="1" x="-1" y="77" fill="#D7D7DB" mask="url(#icon-grid-24-d)" opacity=".3"/>
        <rect width="338" height="1" x="-1" y="88" fill="#D7D7DB" mask="url(#icon-grid-24-d)"/>
        <rect width="338" height="1" x="-1" y="99" fill="#D7D7DB" mask="url(#icon-grid-24-d)" opacity=".3"/>
        <rect width="338" height="1" x="-1" y="110" fill="#D7D7DB" mask="url(#icon-grid-24-d)" opacity=".3"/>
        <rect width="338" height="1" x="-1" y="121" fill="#D7D7DB" mask="url(#icon-grid-24-d)" opacity=".3"/>
        <rect width="338" height="1" x="-1" y="132" fill="#D7D7DB" mask="url(#icon-grid-24-d)"/>
        <rect width="338" height="1" x="-1" y="143" fill="#D7D7DB" mask="url(#icon-grid-24-d)" opacity=".3"/>
        <rect width="338" height="1" x="-1" y="154" fill="#D7D7DB" mask="url(#icon-grid-24-d)" opacity=".3"/>
        <rect width="338" height="1" x="-1" y="165" fill="#D7D7DB" mask="url(#icon-grid-24-d)" opacity=".3"/>
        <rect width="338" height="1" x="-1" y="176" fill="#D7D7DB" mask="url(#icon-grid-24-d)"/>
        <rect width="338" height="1" x="-1" y="187" fill="#D7D7DB" mask="url(#icon-grid-24-d)" opacity=".3"/>
        <rect width="338" height="1" x="-1" y="198" fill="#D7D7DB" mask="url(#icon-grid-24-d)" opacity=".3"/>
        <rect width="338" height="1" x="-1" y="209" fill="#D7D7DB" mask="url(#icon-grid-24-d)" opacity=".3"/>
        <rect width="338" height="1" x="-1" y="220" fill="#D7D7DB" mask="url(#icon-grid-24-d)"/>
        <rect width="338" height="1" x="-1" y="231" fill="#D7D7DB" mask="url(#icon-grid-24-d)" opacity=".3"/>
        <rect width="338" height="1" x="-1" y="242" fill="#D7D7DB" mask="url(#icon-grid-24-d)" opacity=".3"/>
        <rect width="338" height="1" x="-1" y="253" fill="#D7D7DB" mask="url(#icon-grid-24-d)" opacity=".3"/>
        <rect width="338" height="1" x="-1" y="264" fill="#D7D7DB" mask="url(#icon-grid-24-d)"/>
      </g>
      <g mask="url(#icon-grid-24-b)">
        <g transform="matrix(0 -1 1 0 0 265)">
          <mask id="icon-grid-24-f" fill="#fff">
            <use xlink:href="#icon-grid-24-e"/>
          </mask>
          <rect width="338" height="1" x="-73" fill="#D7D7DB" mask="url(#icon-grid-24-f)"/>
          <rect width="338" height="1" x="-73" y="11" fill="#D7D7DB" mask="url(#icon-grid-24-f)" opacity=".3"/>
          <rect width="338" height="1" x="-73" y="22" fill="#D7D7DB" mask="url(#icon-grid-24-f)" opacity=".3"/>
          <rect width="338" height="1" x="-73" y="33" fill="#D7D7DB" mask="url(#icon-grid-24-f)" opacity=".3"/>
          <rect width="338" height="1" x="-73" y="44" fill="#D7D7DB" mask="url(#icon-grid-24-f)"/>
          <rect width="338" height="1" x="-73" y="55" fill="#D7D7DB" mask="url(#icon-grid-24-f)" opacity=".3"/>
          <rect width="338" height="1" x="-73" y="66" fill="#D7D7DB" mask="url(#icon-grid-24-f)" opacity=".3"/>
          <rect width="338" height="1" x="-73" y="77" fill="#D7D7DB" mask="url(#icon-grid-24-f)" opacity=".3"/>
          <rect width="338" height="1" x="-73" y="88" fill="#D7D7DB" mask="url(#icon-grid-24-f)"/>
          <rect width="338" height="1" x="-73" y="99" fill="#D7D7DB" mask="url(#icon-grid-24-f)" opacity=".3"/>
          <rect width="338" height="1" x="-73" y="110" fill="#D7D7DB" mask="url(#icon-grid-24-f)" opacity=".3"/>
          <rect width="338" height="1" x="-73" y="121" fill="#D7D7DB" mask="url(#icon-grid-24-f)" opacity=".3"/>
          <rect width="338" height="1" x="-73" y="132" fill="#D7D7DB" mask="url(#icon-grid-24-f)"/>
          <rect width="338" height="1" x="-73" y="143" fill="#D7D7DB" mask="url(#icon-grid-24-f)" opacity=".3"/>
          <rect width="338" height="1" x="-73" y="154" fill="#D7D7DB" mask="url(#icon-grid-24-f)" opacity=".3"/>
          <rect width="338" height="1" x="-73" y="165" fill="#D7D7DB" mask="url(#icon-grid-24-f)" opacity=".3"/>
          <rect width="338" height="1" x="-73" y="176" fill="#D7D7DB" mask="url(#icon-grid-24-f)"/>
          <rect width="338" height="1" x="-73" y="187" fill="#D7D7DB" mask="url(#icon-grid-24-f)" opacity=".3"/>
          <rect width="338" height="1" x="-73" y="198" fill="#D7D7DB" mask="url(#icon-grid-24-f)" opacity=".3"/>
          <rect width="338" height="1" x="-73" y="209" fill="#D7D7DB" mask="url(#icon-grid-24-f)" opacity=".3"/>
          <rect width="338" height="1" x="-73" y="220" fill="#D7D7DB" mask="url(#icon-grid-24-f)"/>
          <rect width="338" height="1" x="-73" y="231" fill="#D7D7DB" mask="url(#icon-grid-24-f)" opacity=".3"/>
          <rect width="338" height="1" x="-73" y="242" fill="#D7D7DB" mask="url(#icon-grid-24-f)" opacity=".3"/>
          <rect width="338" height="1" x="-73" y="253" fill="#D7D7DB" mask="url(#icon-grid-24-f)" opacity=".3"/>
          <rect width="338" height="1" x="-73" y="264" fill="#D7D7DB" mask="url(#icon-grid-24-f)"/>
        </g>
      </g>
      <rect width="253" height="253" x="6" y="6" stroke="#0C0C0D" stroke-opacity=".1" stroke-width="12"/>
      <use fill="#FC2DD7" fill-opacity=".25" xlink:href="#icon-grid-24-g"/>
      <path stroke="#ED00B5" stroke-width=".9" d="M242.55,34.2763974 C242.55,15.7409444 228.107613,0.721972656 210.30102,0.721972656 L54.6989796,0.721972656 C36.8923866,0.721972656 22.45,15.7409444 22.45,34.2763974 L22.45,231.267548 C22.45,249.803001 36.8923866,264.821973 54.6989796,264.821973 L210.30102,264.821973 C228.107613,264.821973 242.55,249.803001 242.55,231.267548 L242.55,34.2763974 Z"/>
      <use fill="#FC2DD7" fill-opacity=".25" xlink:href="#icon-grid-24-h"/>
      <path stroke="#ED00B5" stroke-width=".9" d="M253.55,42.1814159 C253.55,25.2242949 237.667395,11.45 218.045918,11.45 L46.9540816,11.45 C27.3326054,11.45 11.45,25.2242949 11.45,42.1814159 L11.45,222.818584 C11.45,239.775705 27.3326054,253.55 46.9540816,253.55 L218.045918,253.55 C237.667395,253.55 253.55,239.775705 253.55,222.818584 L253.55,42.1814159 Z"/>
      <g>
        <use fill="#FC2DD7" fill-opacity=".25" xlink:href="#icon-grid-24-i"/>
        <path stroke="#ED00B5" stroke-width=".9" d="M264.55,54.6989796 C264.55,36.8923866 249.531028,22.45 230.995575,22.45 L34.0044248,22.45 C15.4689717,22.45 0.45,36.8923866 0.45,54.6989796 L0.45,210.30102 C0.45,228.107613 15.4689717,242.55 34.0044248,242.55 L230.995575,242.55 C249.531028,242.55 264.55,228.107613 264.55,210.30102 L264.55,54.6989796 Z"/>
      </g>
    </g>
    <g transform="translate(48 47)">
      <rect width="1" height="263" x="278" y="1" fill="#ED00B5"/>
      <rect width="9" height="1" x="274" fill="#ED00B5"/>
      <rect width="9" height="1" x="274" y="264" fill="#ED00B5"/>
      <rect width="37" height="22" x="260" y="121" fill="#EA1CB4" fill-rule="nonzero" rx="2"/>
      <path fill="#FFF" d="M268.654,127.9 C269.034002,128.100001 269.323999,128.373998 269.524,128.722 C269.724001,129.070002 269.824,129.463998 269.824,129.904 C269.824,130.416003 269.706001,130.911998 269.47,131.392 C269.233999,131.872002 268.856003,132.397997 268.336,132.97 C267.815997,133.542003 267.080005,134.263996 266.128,135.136 L270.016,135.136 L269.896,136 L264.976,136 L264.976,135.184 C266.056005,134.151995 266.857997,133.344003 267.382,132.76 C267.906003,132.175997 268.267999,131.676002 268.468,131.26 C268.668001,130.843998 268.768,130.404002 268.768,129.94 C268.768,129.475998 268.636001,129.112001 268.372,128.848 C268.107999,128.583999 267.744002,128.452 267.28,128.452 C266.887998,128.452 266.562001,128.517999 266.302,128.65 C266.041999,128.782001 265.776001,129.007998 265.504,129.328 L264.808,128.788 C265.136002,128.379998 265.501998,128.080001 265.906,127.888 C266.310002,127.695999 266.783997,127.6 267.328,127.6 C267.832003,127.6 268.273998,127.699999 268.654,127.9 Z M277.636,133.996 L276.568,133.996 L276.568,136 L275.596,136 L275.596,133.996 L272.164,133.996 L272.164,133.252 L274.588,127.6 L275.428,127.96 L273.232,133.18 L275.608,133.18 L275.692,130.84 L276.568,130.84 L276.568,133.18 L277.636,133.18 L277.636,133.996 Z M284.824,132.832 C284.824,133.832005 284.616002,134.631997 284.2,135.232 C283.783998,135.832003 283.180004,136.132 282.388,136.132 C281.699997,136.132 281.140002,135.892002 280.708,135.412 L280.708,138.424 L279.7,138.544 L279.7,129.676 L280.564,129.676 L280.648,130.564 C280.880001,130.235998 281.157998,129.984001 281.482,129.808 C281.806002,129.631999 282.155998,129.544 282.532,129.544 C284.060008,129.544 284.824,130.639989 284.824,132.832 Z M281.41,130.648 C281.141999,130.840001 280.908001,131.079999 280.708,131.368 L280.708,134.5 C280.876001,134.748001 281.085999,134.941999 281.338,135.082 C281.590001,135.222001 281.863999,135.292 282.16,135.292 C282.688003,135.292 283.081999,135.090002 283.342,134.686 C283.602001,134.281998 283.732,133.664004 283.732,132.832 C283.732,131.999996 283.616001,131.380002 283.384,130.972 C283.151999,130.563998 282.788002,130.36 282.292,130.36 C281.971998,130.36 281.678001,130.455999 281.41,130.648 Z M286.372,136 L288.7,132.664 L286.648,129.676 L287.848,129.676 L289.312,132.028 L290.788,129.676 L291.952,129.676 L289.9,132.616 L292.228,136 L291.004,136 L289.264,133.288 L287.524,136 L286.372,136 Z"/>
      <rect width="1" height="9" x="264" y="276" fill="#ED00B5"/>
      <rect width="263" height="1" x="1" y="280" fill="#ED00B5"/>
      <rect width="1" height="9" y="276" fill="#ED00B5"/>
      <rect width="37" height="22" x="115" y="269" fill="#ED00B5" fill-rule="nonzero" rx="2"/>
      <path fill="#FFF" d="M123.654,275.9 C124.034002,276.100001 124.323999,276.373998 124.524,276.722 C124.724001,277.070002 124.824,277.463998 124.824,277.904 C124.824,278.416003 124.706001,278.911998 124.47,279.392 C124.233999,279.872002 123.856003,280.397997 123.336,280.97 C122.815997,281.542003 122.080005,282.263996 121.128,283.136 L125.016,283.136 L124.896,284 L119.976,284 L119.976,283.184 C121.056005,282.151995 121.857997,281.344003 122.382,280.76 C122.906003,280.175997 123.267999,279.676002 123.468,279.26 C123.668001,278.843998 123.768,278.404002 123.768,277.94 C123.768,277.475998 123.636001,277.112001 123.372,276.848 C123.107999,276.583999 122.744002,276.452 122.28,276.452 C121.887998,276.452 121.562001,276.517999 121.302,276.65 C121.041999,276.782001 120.776001,277.007998 120.504,277.328 L119.808,276.788 C120.136002,276.379998 120.501998,276.080001 120.906,275.888 C121.310002,275.695999 121.783997,275.6 122.328,275.6 C122.832003,275.6 123.273998,275.699999 123.654,275.9 Z M132.636,281.996 L131.568,281.996 L131.568,284 L130.596,284 L130.596,281.996 L127.164,281.996 L127.164,281.252 L129.588,275.6 L130.428,275.96 L128.232,281.18 L130.608,281.18 L130.692,278.84 L131.568,278.84 L131.568,281.18 L132.636,281.18 L132.636,281.996 Z M139.824,280.832 C139.824,281.832005 139.616002,282.631997 139.2,283.232 C138.783998,283.832003 138.180004,284.132 137.388,284.132 C136.699997,284.132 136.140002,283.892002 135.708,283.412 L135.708,286.424 L134.7,286.544 L134.7,277.676 L135.564,277.676 L135.648,278.564 C135.880001,278.235998 136.157998,277.984001 136.482,277.808 C136.806002,277.631999 137.155998,277.544 137.532,277.544 C139.060008,277.544 139.824,278.639989 139.824,280.832 Z M136.41,278.648 C136.141999,278.840001 135.908001,279.079999 135.708,279.368 L135.708,282.5 C135.876001,282.748001 136.085999,282.941999 136.338,283.082 C136.590001,283.222001 136.863999,283.292 137.16,283.292 C137.688003,283.292 138.081999,283.090002 138.342,282.686 C138.602001,282.281998 138.732,281.664004 138.732,280.832 C138.732,279.999996 138.616001,279.380002 138.384,278.972 C138.151999,278.563998 137.788002,278.36 137.292,278.36 C136.971998,278.36 136.678001,278.455999 136.41,278.648 Z M141.372,284 L143.7,280.664 L141.648,277.676 L142.848,277.676 L144.312,280.028 L145.788,277.676 L146.952,277.676 L144.9,280.616 L147.228,284 L146.004,284 L144.264,281.288 L142.524,284 L141.372,284 Z"/>
    </g>
  </g>
</svg>
