<svg xmlns="http://www.w3.org/2000/svg" xmlns:xlink="http://www.w3.org/1999/xlink" width="360" height="240" viewBox="0 0 360 240">
  <defs>
    <path id="icon-naming-dont-a" d="M131.607153,84.6420563 L130.934515,83.2912081 L127.800041,76.9962884 L123.994034,84.6418082 L122.508554,84.9072289 L115.785989,86.1083625 L121.610279,92.3719657 L121.412912,93.7850007 L120.410083,100.964645 L127.799272,97.1129901 L129.18586,97.8355764 L135.190466,100.964742 L133.988288,92.37198 L134.960493,91.3267757 L139.815187,86.1075642 L131.607153,84.6420563 Z M141.785993,83.412 C142.575798,83.55 143.229636,84.112 143.485573,84.878 C143.74151,85.644 143.559555,86.488 143.009691,87.078 L137.157135,93.37 L138.376834,102.088 C138.490806,102.91 138.140892,103.714 137.465059,104.192 C136.787226,104.668 135.907444,104.724 135.179623,104.342 L127.799445,100.496 L120.417267,104.344 C120.097346,104.512 119.747432,104.594 119.401518,104.594 C118.957627,104.594 118.515736,104.46 118.13583,104.192 C117.457997,103.714 117.110083,102.91 117.224055,102.088 L118.441754,93.37 L112.589199,87.076 C112.039335,86.488 111.85738,85.644 112.115316,84.878 C112.371253,84.112 113.025091,83.55 113.820895,83.412 L121.980881,81.954 L125.83193,74.218 C126.203839,73.466 126.959652,73 127.799445,73 C128.641237,73 129.395051,73.466 129.768959,74.22 L133.620008,81.954 L141.785993,83.412 Z"/>
    <path id="icon-naming-dont-b" d="M143.485573,142.878 C143.229636,142.112 142.575798,141.55 141.785993,141.412 L133.620008,139.954 L129.768959,132.22 C129.395051,131.466 128.641237,131 127.799445,131 C126.959652,131 126.203839,131.466 125.83193,132.218 L121.980881,139.954 L113.820895,141.412 C113.025091,141.55 112.371253,142.112 112.115316,142.878 C111.85738,143.644 112.039335,144.488 112.589199,145.076 L118.441754,151.37 L117.224055,160.088 C117.110083,160.91 117.457997,161.714 118.13583,162.192 C118.515736,162.46 118.957627,162.594 119.401518,162.594 C119.747432,162.594 120.097346,162.512 120.417267,162.344 L127.799445,158.496 L135.179623,162.342 C135.907444,162.724 136.787226,162.668 137.465059,162.192 C138.140892,161.714 138.490806,160.91 138.376834,160.088 L137.157135,151.37 L143.009691,145.078 C143.559555,144.488 143.74151,143.644 143.485573,142.878"/>
  </defs>
  <g fill="none" fill-rule="evenodd">
    <path fill="#0C0C0D" d="M152.8125,94.7109375 L152.8125,93.3359375 C153.51042,93.8515651 154.278642,94.109375 155.117188,94.109375 C156.242193,94.109375 156.804688,93.7343788 156.804688,92.984375 C156.804688,92.7708323 156.756511,92.5898445 156.660156,92.4414062 C156.563802,92.292968 156.433595,92.1614589 156.269531,92.046875 C156.105468,91.9322911 155.912762,91.8294275 155.691406,91.7382812 C155.470051,91.647135 155.231772,91.5520838 154.976562,91.453125 C154.622394,91.3124993 154.311199,91.1705736 154.042969,91.0273438 C153.774738,90.8841139 153.550782,90.7226571 153.371094,90.5429688 C153.191405,90.3632804 153.05599,90.1588553 152.964844,89.9296875 C152.873697,89.7005197 152.828125,89.4322932 152.828125,89.125 C152.828125,88.7499981 152.914062,88.4179702 153.085938,88.1289062 C153.257813,87.8398423 153.486978,87.5976572 153.773438,87.4023438 C154.059897,87.2070303 154.386717,87.0598963 154.753906,86.9609375 C155.121096,86.8619787 155.499998,86.8125 155.890625,86.8125 C156.583337,86.8125 157.203122,86.9322905 157.75,87.171875 L157.75,88.46875 C157.161455,88.0833314 156.484379,87.890625 155.71875,87.890625 C155.479165,87.890625 155.263022,87.9179685 155.070312,87.9726562 C154.877603,88.027344 154.71224,88.1041662 154.574219,88.203125 C154.436197,88.3020838 154.329427,88.4205722 154.253906,88.5585938 C154.178385,88.6966153 154.140625,88.8489575 154.140625,89.015625 C154.140625,89.2239594 154.178385,89.3984368 154.253906,89.5390625 C154.329427,89.6796882 154.440103,89.804687 154.585938,89.9140625 C154.731772,90.023438 154.908853,90.1223954 155.117188,90.2109375 C155.325522,90.2994796 155.562499,90.3958328 155.828125,90.5 C156.182293,90.6354173 156.499999,90.7747389 156.78125,90.9179688 C157.062501,91.0611986 157.302082,91.2226554 157.5,91.4023438 C157.697918,91.5820321 157.85026,91.7890613 157.957031,92.0234375 C158.063803,92.2578137 158.117188,92.5364567 158.117188,92.859375 C158.117188,93.2552103 158.029949,93.5989569 157.855469,93.890625 C157.680989,94.1822931 157.447918,94.4244782 157.15625,94.6171875 C156.864582,94.8098968 156.528648,94.9531245 156.148438,95.046875 C155.768227,95.1406255 155.369794,95.1875 154.953125,95.1875 C154.130204,95.1875 153.41667,95.0286474 152.8125,94.7109375 Z M163.796875,94.921875 C163.49479,95.0885425 163.096357,95.171875 162.601562,95.171875 C161.200514,95.171875 160.5,94.3906328 160.5,92.828125 L160.5,88.09375 L159.125,88.09375 L159.125,87 L160.5,87 L160.5,85.046875 L161.78125,84.6328125 L161.78125,87 L163.796875,87 L163.796875,88.09375 L161.78125,88.09375 L161.78125,92.6015625 C161.78125,93.1380235 161.872395,93.5208322 162.054688,93.75 C162.23698,93.9791678 162.53906,94.09375 162.960938,94.09375 C163.283856,94.09375 163.562499,94.0052092 163.796875,93.828125 L163.796875,94.921875 Z M171.234375,95 L169.953125,95 L169.953125,93.75 L169.921875,93.75 C169.364581,94.7083381 168.544276,95.1875 167.460938,95.1875 C166.664059,95.1875 166.040367,94.9765646 165.589844,94.5546875 C165.139321,94.1328104 164.914062,93.5729202 164.914062,92.875 C164.914062,91.3802009 165.794262,90.5104179 167.554688,90.265625 L169.953125,89.9296875 C169.953125,88.5703057 169.403651,87.890625 168.304688,87.890625 C167.341141,87.890625 166.471358,88.2187467 165.695312,88.875 L165.695312,87.5625 C166.481775,87.0624975 167.388016,86.8125 168.414062,86.8125 C170.29428,86.8125 171.234375,87.8072817 171.234375,89.796875 L171.234375,95 Z M169.953125,90.953125 L168.023438,91.21875 C167.429685,91.3020837 166.981772,91.4492177 166.679688,91.6601562 C166.377603,91.8710948 166.226562,92.244789 166.226562,92.78125 C166.226562,93.171877 166.365884,93.4908842 166.644531,93.7382812 C166.923178,93.9856783 167.294269,94.109375 167.757812,94.109375 C168.393232,94.109375 168.917967,93.886721 169.332031,93.4414062 C169.746096,92.9960915 169.953125,92.4322951 169.953125,91.75 L169.953125,90.953125 Z M177.820312,88.296875 C177.596353,88.1249991 177.27344,88.0390625 176.851562,88.0390625 C176.304685,88.0390625 175.847658,88.2968724 175.480469,88.8125 C175.113279,89.3281276 174.929688,90.0312455 174.929688,90.921875 L174.929688,95 L173.648438,95 L173.648438,87 L174.929688,87 L174.929688,88.6484375 L174.960938,88.6484375 C175.14323,88.0859347 175.421873,87.647137 175.796875,87.3320312 C176.171877,87.0169255 176.591144,86.859375 177.054688,86.859375 C177.388023,86.859375 177.643228,86.895833 177.820312,86.96875 L177.820312,88.296875 Z M182.296875,91.046875 L178.03125,91.046875 L178.03125,90.0390625 L182.296875,90.0390625 L182.296875,91.046875 Z M191.015625,95 L184.679688,95 L184.679688,93.875 L187.210938,93.875 L187.210938,85.171875 L184.617188,85.9453125 L184.617188,84.7265625 L188.492188,83.546875 L188.492188,93.875 L191.015625,93.875 L191.015625,95 Z M193.671875,95.171875 C193.43229,95.171875 193.227865,95.0859384 193.058594,94.9140625 C192.889322,94.7421866 192.804688,94.5364595 192.804688,94.296875 C192.804688,94.0572905 192.889322,93.8502613 193.058594,93.6757812 C193.227865,93.5013012 193.43229,93.4140625 193.671875,93.4140625 C193.916668,93.4140625 194.124999,93.5013012 194.296875,93.6757812 C194.468751,93.8502613 194.554688,94.0572905 194.554688,94.296875 C194.554688,94.5364595 194.468751,94.7421866 194.296875,94.9140625 C194.124999,95.0859384 193.916668,95.171875 193.671875,95.171875 Z M196.210938,94.7109375 L196.210938,93.3359375 C196.908858,93.8515651 197.677079,94.109375 198.515625,94.109375 C199.640631,94.109375 200.203125,93.7343788 200.203125,92.984375 C200.203125,92.7708323 200.154948,92.5898445 200.058594,92.4414062 C199.962239,92.292968 199.832032,92.1614589 199.667969,92.046875 C199.503905,91.9322911 199.311199,91.8294275 199.089844,91.7382812 C198.868488,91.647135 198.63021,91.5520838 198.375,91.453125 C198.020832,91.3124993 197.709637,91.1705736 197.441406,91.0273438 C197.173176,90.8841139 196.94922,90.7226571 196.769531,90.5429688 C196.589843,90.3632804 196.454428,90.1588553 196.363281,89.9296875 C196.272135,89.7005197 196.226562,89.4322932 196.226562,89.125 C196.226562,88.7499981 196.312499,88.4179702 196.484375,88.1289062 C196.656251,87.8398423 196.885415,87.5976572 197.171875,87.4023438 C197.458335,87.2070303 197.785154,87.0598963 198.152344,86.9609375 C198.519533,86.8619787 198.898436,86.8125 199.289062,86.8125 C199.981774,86.8125 200.60156,86.9322905 201.148438,87.171875 L201.148438,88.46875 C200.559893,88.0833314 199.882816,87.890625 199.117188,87.890625 C198.877603,87.890625 198.661459,87.9179685 198.46875,87.9726562 C198.276041,88.027344 198.110678,88.1041662 197.972656,88.203125 C197.834635,88.3020838 197.727865,88.4205722 197.652344,88.5585938 C197.576823,88.6966153 197.539062,88.8489575 197.539062,89.015625 C197.539062,89.2239594 197.576823,89.3984368 197.652344,89.5390625 C197.727865,89.6796882 197.838541,89.804687 197.984375,89.9140625 C198.130209,90.023438 198.307291,90.1223954 198.515625,90.2109375 C198.723959,90.2994796 198.960936,90.3958328 199.226562,90.5 C199.580731,90.6354173 199.898436,90.7747389 200.179688,90.9179688 C200.460939,91.0611986 200.70052,91.2226554 200.898438,91.4023438 C201.096355,91.5820321 201.248697,91.7890613 201.355469,92.0234375 C201.46224,92.2578137 201.515625,92.5364567 201.515625,92.859375 C201.515625,93.2552103 201.428386,93.5989569 201.253906,93.890625 C201.079426,94.1822931 200.846356,94.4244782 200.554688,94.6171875 C200.263019,94.8098968 199.927085,94.9531245 199.546875,95.046875 C199.166665,95.1406255 198.768231,95.1875 198.351562,95.1875 C197.528642,95.1875 196.815107,95.0286474 196.210938,94.7109375 Z M209.773438,87 L206.585938,95 L205.328125,95 L202.296875,87 L203.703125,87 L205.734375,92.8125 C205.885417,93.2395855 205.979166,93.6119776 206.015625,93.9296875 L206.046875,93.9296875 C206.098959,93.5286438 206.182291,93.1666683 206.296875,92.84375 L208.421875,87 L209.773438,87 Z M217.882812,94.359375 C217.882812,97.2968897 216.476577,98.765625 213.664062,98.765625 C212.674474,98.765625 211.8099,98.5781269 211.070312,98.203125 L211.070312,96.921875 C211.971359,97.4218775 212.830725,97.671875 213.648438,97.671875 C215.617197,97.671875 216.601562,96.6250105 216.601562,94.53125 L216.601562,93.65625 L216.570312,93.65625 C215.960934,94.6770884 215.044277,95.1875 213.820312,95.1875 C212.825516,95.1875 212.024743,94.8320348 211.417969,94.1210938 C210.811195,93.4101527 210.507812,92.4557352 210.507812,91.2578125 C210.507812,89.8984307 210.834632,88.8177123 211.488281,88.015625 C212.14193,87.2135377 213.036453,86.8125 214.171875,86.8125 C215.250005,86.8125 216.049477,87.2447873 216.570312,88.109375 L216.601562,88.109375 L216.601562,87 L217.882812,87 L217.882812,94.359375 Z M216.601562,91.3828125 L216.601562,90.203125 C216.601562,89.5677052 216.386721,89.0234398 215.957031,88.5703125 C215.527342,88.1171852 214.992191,87.890625 214.351562,87.890625 C213.559892,87.890625 212.940106,88.1783825 212.492188,88.7539062 C212.044269,89.32943 211.820312,90.1354115 211.820312,91.171875 C211.820312,92.0625045 212.035154,92.7747369 212.464844,93.3085938 C212.894533,93.8424506 213.463538,94.109375 214.171875,94.109375 C214.890629,94.109375 215.475258,93.8541692 215.925781,93.34375 C216.376304,92.8333308 216.601562,92.1796915 216.601562,91.3828125 Z"/>
    <g fill-rule="nonzero">
      <use fill="#FFF" fill-rule="evenodd" xlink:href="#icon-naming-dont-a"/>
      <use fill="#0C0C0D" fill-opacity=".8" fill-rule="evenodd" xlink:href="#icon-naming-dont-a"/>
    </g>
    <path fill="#0C0C0D" d="M152.8125,152.710938 L152.8125,151.335938 C153.51042,151.851565 154.278642,152.109375 155.117188,152.109375 C156.242193,152.109375 156.804688,151.734379 156.804688,150.984375 C156.804688,150.770832 156.756511,150.589844 156.660156,150.441406 C156.563802,150.292968 156.433595,150.161459 156.269531,150.046875 C156.105468,149.932291 155.912762,149.829428 155.691406,149.738281 C155.470051,149.647135 155.231772,149.552084 154.976562,149.453125 C154.622394,149.312499 154.311199,149.170574 154.042969,149.027344 C153.774738,148.884114 153.550782,148.722657 153.371094,148.542969 C153.191405,148.36328 153.05599,148.158855 152.964844,147.929688 C152.873697,147.70052 152.828125,147.432293 152.828125,147.125 C152.828125,146.749998 152.914062,146.41797 153.085938,146.128906 C153.257813,145.839842 153.486978,145.597657 153.773438,145.402344 C154.059897,145.20703 154.386717,145.059896 154.753906,144.960938 C155.121096,144.861979 155.499998,144.8125 155.890625,144.8125 C156.583337,144.8125 157.203122,144.93229 157.75,145.171875 L157.75,146.46875 C157.161455,146.083331 156.484379,145.890625 155.71875,145.890625 C155.479165,145.890625 155.263022,145.917968 155.070312,145.972656 C154.877603,146.027344 154.71224,146.104166 154.574219,146.203125 C154.436197,146.302084 154.329427,146.420572 154.253906,146.558594 C154.178385,146.696615 154.140625,146.848958 154.140625,147.015625 C154.140625,147.223959 154.178385,147.398437 154.253906,147.539062 C154.329427,147.679688 154.440103,147.804687 154.585938,147.914062 C154.731772,148.023438 154.908853,148.122395 155.117188,148.210938 C155.325522,148.29948 155.562499,148.395833 155.828125,148.5 C156.182293,148.635417 156.499999,148.774739 156.78125,148.917969 C157.062501,149.061199 157.302082,149.222655 157.5,149.402344 C157.697918,149.582032 157.85026,149.789061 157.957031,150.023438 C158.063803,150.257814 158.117188,150.536457 158.117188,150.859375 C158.117188,151.25521 158.029949,151.598957 157.855469,151.890625 C157.680989,152.182293 157.447918,152.424478 157.15625,152.617188 C156.864582,152.809897 156.528648,152.953125 156.148438,153.046875 C155.768227,153.140625 155.369794,153.1875 154.953125,153.1875 C154.130204,153.1875 153.41667,153.028647 152.8125,152.710938 Z M163.796875,152.921875 C163.49479,153.088542 163.096357,153.171875 162.601562,153.171875 C161.200514,153.171875 160.5,152.390633 160.5,150.828125 L160.5,146.09375 L159.125,146.09375 L159.125,145 L160.5,145 L160.5,143.046875 L161.78125,142.632812 L161.78125,145 L163.796875,145 L163.796875,146.09375 L161.78125,146.09375 L161.78125,150.601562 C161.78125,151.138024 161.872395,151.520832 162.054688,151.75 C162.23698,151.979168 162.53906,152.09375 162.960938,152.09375 C163.283856,152.09375 163.562499,152.005209 163.796875,151.828125 L163.796875,152.921875 Z M171.234375,153 L169.953125,153 L169.953125,151.75 L169.921875,151.75 C169.364581,152.708338 168.544276,153.1875 167.460938,153.1875 C166.664059,153.1875 166.040367,152.976565 165.589844,152.554688 C165.139321,152.13281 164.914062,151.57292 164.914062,150.875 C164.914062,149.380201 165.794262,148.510418 167.554688,148.265625 L169.953125,147.929688 C169.953125,146.570306 169.403651,145.890625 168.304688,145.890625 C167.341141,145.890625 166.471358,146.218747 165.695312,146.875 L165.695312,145.5625 C166.481775,145.062498 167.388016,144.8125 168.414062,144.8125 C170.29428,144.8125 171.234375,145.807282 171.234375,147.796875 L171.234375,153 Z M169.953125,148.953125 L168.023438,149.21875 C167.429685,149.302084 166.981772,149.449218 166.679688,149.660156 C166.377603,149.871095 166.226562,150.244789 166.226562,150.78125 C166.226562,151.171877 166.365884,151.490884 166.644531,151.738281 C166.923178,151.985678 167.294269,152.109375 167.757812,152.109375 C168.393232,152.109375 168.917967,151.886721 169.332031,151.441406 C169.746096,150.996092 169.953125,150.432295 169.953125,149.75 L169.953125,148.953125 Z M177.820312,146.296875 C177.596353,146.124999 177.27344,146.039062 176.851562,146.039062 C176.304685,146.039062 175.847658,146.296872 175.480469,146.8125 C175.113279,147.328128 174.929688,148.031246 174.929688,148.921875 L174.929688,153 L173.648438,153 L173.648438,145 L174.929688,145 L174.929688,146.648438 L174.960938,146.648438 C175.14323,146.085935 175.421873,145.647137 175.796875,145.332031 C176.171877,145.016926 176.591144,144.859375 177.054688,144.859375 C177.388023,144.859375 177.643228,144.895833 177.820312,144.96875 L177.820312,146.296875 Z M182.296875,149.046875 L178.03125,149.046875 L178.03125,148.039062 L182.296875,148.039062 L182.296875,149.046875 Z M190.804688,153 L184.054688,153 L184.054688,151.859375 L187.320312,148.585938 C188.15365,147.7526 188.748696,147.058597 189.105469,146.503906 C189.462241,145.949216 189.640625,145.356774 189.640625,144.726562 C189.640625,144.080726 189.455731,143.580731 189.085938,143.226562 C188.716144,142.872394 188.190108,142.695312 187.507812,142.695312 C186.507808,142.695312 185.549484,143.122392 184.632812,143.976562 L184.632812,142.632812 C185.507817,141.950517 186.526036,141.609375 187.6875,141.609375 C188.687505,141.609375 189.473955,141.880206 190.046875,142.421875 C190.619795,142.963544 190.90625,143.6901 190.90625,144.601562 C190.90625,145.320316 190.708335,146.022132 190.3125,146.707031 C189.916665,147.391931 189.205734,148.242182 188.179688,149.257812 L185.59375,151.8125 L185.59375,151.84375 L190.804688,151.84375 L190.804688,153 Z M193.671875,153.171875 C193.43229,153.171875 193.227865,153.085938 193.058594,152.914062 C192.889322,152.742187 192.804688,152.53646 192.804688,152.296875 C192.804688,152.05729 192.889322,151.850261 193.058594,151.675781 C193.227865,151.501301 193.43229,151.414062 193.671875,151.414062 C193.916668,151.414062 194.124999,151.501301 194.296875,151.675781 C194.468751,151.850261 194.554688,152.05729 194.554688,152.296875 C194.554688,152.53646 194.468751,152.742187 194.296875,152.914062 C194.124999,153.085938 193.916668,153.171875 193.671875,153.171875 Z M196.210938,152.710938 L196.210938,151.335938 C196.908858,151.851565 197.677079,152.109375 198.515625,152.109375 C199.640631,152.109375 200.203125,151.734379 200.203125,150.984375 C200.203125,150.770832 200.154948,150.589844 200.058594,150.441406 C199.962239,150.292968 199.832032,150.161459 199.667969,150.046875 C199.503905,149.932291 199.311199,149.829428 199.089844,149.738281 C198.868488,149.647135 198.63021,149.552084 198.375,149.453125 C198.020832,149.312499 197.709637,149.170574 197.441406,149.027344 C197.173176,148.884114 196.94922,148.722657 196.769531,148.542969 C196.589843,148.36328 196.454428,148.158855 196.363281,147.929688 C196.272135,147.70052 196.226562,147.432293 196.226562,147.125 C196.226562,146.749998 196.312499,146.41797 196.484375,146.128906 C196.656251,145.839842 196.885415,145.597657 197.171875,145.402344 C197.458335,145.20703 197.785154,145.059896 198.152344,144.960938 C198.519533,144.861979 198.898436,144.8125 199.289062,144.8125 C199.981774,144.8125 200.60156,144.93229 201.148438,145.171875 L201.148438,146.46875 C200.559893,146.083331 199.882816,145.890625 199.117188,145.890625 C198.877603,145.890625 198.661459,145.917968 198.46875,145.972656 C198.276041,146.027344 198.110678,146.104166 197.972656,146.203125 C197.834635,146.302084 197.727865,146.420572 197.652344,146.558594 C197.576823,146.696615 197.539062,146.848958 197.539062,147.015625 C197.539062,147.223959 197.576823,147.398437 197.652344,147.539062 C197.727865,147.679688 197.838541,147.804687 197.984375,147.914062 C198.130209,148.023438 198.307291,148.122395 198.515625,148.210938 C198.723959,148.29948 198.960936,148.395833 199.226562,148.5 C199.580731,148.635417 199.898436,148.774739 200.179688,148.917969 C200.460939,149.061199 200.70052,149.222655 200.898438,149.402344 C201.096355,149.582032 201.248697,149.789061 201.355469,150.023438 C201.46224,150.257814 201.515625,150.536457 201.515625,150.859375 C201.515625,151.25521 201.428386,151.598957 201.253906,151.890625 C201.079426,152.182293 200.846356,152.424478 200.554688,152.617188 C200.263019,152.809897 199.927085,152.953125 199.546875,153.046875 C199.166665,153.140625 198.768231,153.1875 198.351562,153.1875 C197.528642,153.1875 196.815107,153.028647 196.210938,152.710938 Z M209.773438,145 L206.585938,153 L205.328125,153 L202.296875,145 L203.703125,145 L205.734375,150.8125 C205.885417,151.239585 205.979166,151.611978 206.015625,151.929688 L206.046875,151.929688 C206.098959,151.528644 206.182291,151.166668 206.296875,150.84375 L208.421875,145 L209.773438,145 Z M217.882812,152.359375 C217.882812,155.29689 216.476577,156.765625 213.664062,156.765625 C212.674474,156.765625 211.8099,156.578127 211.070312,156.203125 L211.070312,154.921875 C211.971359,155.421877 212.830725,155.671875 213.648438,155.671875 C215.617197,155.671875 216.601562,154.62501 216.601562,152.53125 L216.601562,151.65625 L216.570312,151.65625 C215.960934,152.677088 215.044277,153.1875 213.820312,153.1875 C212.825516,153.1875 212.024743,152.832035 211.417969,152.121094 C210.811195,151.410153 210.507812,150.455735 210.507812,149.257812 C210.507812,147.898431 210.834632,146.817712 211.488281,146.015625 C212.14193,145.213538 213.036453,144.8125 214.171875,144.8125 C215.250005,144.8125 216.049477,145.244787 216.570312,146.109375 L216.601562,146.109375 L216.601562,145 L217.882812,145 L217.882812,152.359375 Z M216.601562,149.382812 L216.601562,148.203125 C216.601562,147.567705 216.386721,147.02344 215.957031,146.570312 C215.527342,146.117185 214.992191,145.890625 214.351562,145.890625 C213.559892,145.890625 212.940106,146.178383 212.492188,146.753906 C212.044269,147.32943 211.820312,148.135411 211.820312,149.171875 C211.820312,150.062504 212.035154,150.774737 212.464844,151.308594 C212.894533,151.842451 213.463538,152.109375 214.171875,152.109375 C214.890629,152.109375 215.475258,151.854169 215.925781,151.34375 C216.376304,150.833331 216.601562,150.179691 216.601562,149.382812 Z"/>
    <use fill="#FFF" xlink:href="#icon-naming-dont-b"/>
    <use fill="#0C0C0D" fill-opacity=".8" xlink:href="#icon-naming-dont-b"/>
  </g>
</svg>
