<svg xmlns="http://www.w3.org/2000/svg" xmlns:xlink="http://www.w3.org/1999/xlink" width="360" height="360" viewBox="0 0 360 360">
  <defs>
    <polygon id="icon-shape-dont-2-a" points="0 0 177 0 177 177 0 177"/>
    <polygon id="icon-shape-dont-2-c" points="0 0 265 0 265 265.201 0 265.201"/>
    <polygon id="icon-shape-dont-2-e" points="0 0 265 0 265 265.201 0 265.201"/>
    <path id="icon-shape-dont-2-g" d="M110.87491,154.263518 L122.019827,154.263518 C127.634823,154.263518 132.228911,149.66943 132.228911,144.054434 L132.228911,70.463951 L88.5,26.7350397 L44.7710887,70.463951 L44.7710887,144.054434 C44.7710887,149.66943 49.3651766,154.263518 54.980173,154.263518 L66.1250901,154.263518 L66.1250901,99.2195386 C66.1250901,93.094088 71.1445566,88.1596972 77.2700072,88.1596972 L99.6449171,88.1596972 C105.855443,88.1596972 110.789834,93.094088 110.789834,99.2195386 L110.87491,154.263518 L110.87491,154.263518 Z M22.055876,93.1791637 L18.908075,96.3269647 C14.5692141,100.665826 7.59300649,100.665826 3.25414564,96.3269647 C-1.08471521,91.9881038 -1.08471521,85.0118962 3.25414564,80.6730353 L80.6730353,3.25414564 C85.0118962,-1.08471521 91.9881038,-1.08471521 96.3269647,3.25414564 L173.745854,80.6730353 C178.084715,85.0118962 178.084715,91.9881038 173.745854,96.3269647 C171.618962,98.4538572 168.726388,99.5598414 165.91889,99.5598414 C163.111391,99.5598414 160.218818,98.4538572 158.091925,96.3269647 L154.944124,93.1791637 L154.944124,166.769647 C154.944124,172.384643 150.350036,176.978731 144.73504,176.978731 L35.6679885,176.978731 C28.1813266,176.978731 22.055876,170.85328 22.055876,163.366619 L22.055876,93.1791637 Z M94.0299207,132.739366 C97.092646,132.739366 99.5598414,130.27217 99.5598414,127.209445 C99.5598414,124.14672 97.092646,121.679524 94.0299207,121.679524 C90.9671954,121.679524 88.5,124.14672 88.5,127.209445 C88.5,130.27217 90.9671954,132.739366 94.0299207,132.739366 Z"/>
    <rect id="icon-shape-dont-2-h" width="11.5" height="17" x="53.5" y="22"/>
    <filter id="icon-shape-dont-2-i" width="108.7%" height="105.9%" x="-4.3%" y="-2.9%" filterUnits="objectBoundingBox">
      <feOffset dx="1" in="SourceAlpha" result="shadowOffsetInner1"/>
      <feComposite in="shadowOffsetInner1" in2="SourceAlpha" k2="-1" k3="1" operator="arithmetic" result="shadowInnerInner1"/>
      <feColorMatrix in="shadowInnerInner1" result="shadowMatrixInner1" values="0 0 0 0 0.917647059   0 0 0 0 0.109803922   0 0 0 0 0.705882353  0 0 0 1 0"/>
      <feOffset dx="-1" in="SourceAlpha" result="shadowOffsetInner2"/>
      <feComposite in="shadowOffsetInner2" in2="SourceAlpha" k2="-1" k3="1" operator="arithmetic" result="shadowInnerInner2"/>
      <feColorMatrix in="shadowInnerInner2" result="shadowMatrixInner2" values="0 0 0 0 0.917647059   0 0 0 0 0.109803922   0 0 0 0 0.705882353  0 0 0 1 0"/>
      <feMerge>
        <feMergeNode in="shadowMatrixInner1"/>
        <feMergeNode in="shadowMatrixInner2"/>
      </feMerge>
    </filter>
    <rect id="icon-shape-dont-2-j" width="11.5" height="39" x="20.5"/>
    <filter id="icon-shape-dont-2-k" width="108.7%" height="102.6%" x="-4.3%" y="-1.3%" filterUnits="objectBoundingBox">
      <feOffset dx="1" in="SourceAlpha" result="shadowOffsetInner1"/>
      <feComposite in="shadowOffsetInner1" in2="SourceAlpha" k2="-1" k3="1" operator="arithmetic" result="shadowInnerInner1"/>
      <feColorMatrix in="shadowInnerInner1" result="shadowMatrixInner1" values="0 0 0 0 0.917647059   0 0 0 0 0.109803922   0 0 0 0 0.705882353  0 0 0 1 0"/>
      <feOffset dx="-1" in="SourceAlpha" result="shadowOffsetInner2"/>
      <feComposite in="shadowOffsetInner2" in2="SourceAlpha" k2="-1" k3="1" operator="arithmetic" result="shadowInnerInner2"/>
      <feColorMatrix in="shadowInnerInner2" result="shadowMatrixInner2" values="0 0 0 0 0.917647059   0 0 0 0 0.109803922   0 0 0 0 0.705882353  0 0 0 1 0"/>
      <feMerge>
        <feMergeNode in="shadowMatrixInner1"/>
        <feMergeNode in="shadowMatrixInner2"/>
      </feMerge>
    </filter>
  </defs>
  <g fill="none" fill-rule="evenodd">
    <g transform="translate(91 92)">
      <mask id="icon-shape-dont-2-b" fill="#fff">
        <use xlink:href="#icon-shape-dont-2-a"/>
      </mask>
      <g mask="url(#icon-shape-dont-2-b)">
        <mask id="icon-shape-dont-2-d" fill="#fff">
          <use xlink:href="#icon-shape-dont-2-c"/>
        </mask>
        <rect width="338" height="1" x="-1" fill="#D7D7DB" mask="url(#icon-shape-dont-2-d)"/>
        <rect width="338" height="1" x="-1" y="11" fill="#D7D7DB" mask="url(#icon-shape-dont-2-d)" opacity=".3"/>
        <rect width="338" height="1" x="-1" y="22" fill="#D7D7DB" mask="url(#icon-shape-dont-2-d)" opacity=".3"/>
        <rect width="338" height="1" x="-1" y="33" fill="#D7D7DB" mask="url(#icon-shape-dont-2-d)" opacity=".3"/>
        <rect width="338" height="1" x="-1" y="44" fill="#D7D7DB" mask="url(#icon-shape-dont-2-d)"/>
        <rect width="338" height="1" x="-1" y="55" fill="#D7D7DB" mask="url(#icon-shape-dont-2-d)" opacity=".3"/>
        <rect width="338" height="1" x="-1" y="66" fill="#D7D7DB" mask="url(#icon-shape-dont-2-d)" opacity=".3"/>
        <rect width="338" height="1" x="-1" y="77" fill="#D7D7DB" mask="url(#icon-shape-dont-2-d)" opacity=".3"/>
        <rect width="338" height="1" x="-1" y="88" fill="#D7D7DB" mask="url(#icon-shape-dont-2-d)"/>
        <rect width="338" height="1" x="-1" y="99" fill="#D7D7DB" mask="url(#icon-shape-dont-2-d)" opacity=".3"/>
        <rect width="338" height="1" x="-1" y="110" fill="#D7D7DB" mask="url(#icon-shape-dont-2-d)" opacity=".3"/>
        <rect width="338" height="1" x="-1" y="121" fill="#D7D7DB" mask="url(#icon-shape-dont-2-d)" opacity=".3"/>
        <rect width="338" height="1" x="-1" y="132" fill="#D7D7DB" mask="url(#icon-shape-dont-2-d)"/>
        <rect width="338" height="1" x="-1" y="143" fill="#D7D7DB" mask="url(#icon-shape-dont-2-d)" opacity=".3"/>
        <rect width="338" height="1" x="-1" y="154" fill="#D7D7DB" mask="url(#icon-shape-dont-2-d)" opacity=".3"/>
        <rect width="338" height="1" x="-1" y="165" fill="#D7D7DB" mask="url(#icon-shape-dont-2-d)" opacity=".3"/>
        <rect width="338" height="1" x="-1" y="176" fill="#D7D7DB" mask="url(#icon-shape-dont-2-d)"/>
      </g>
      <g mask="url(#icon-shape-dont-2-b)">
        <g transform="matrix(0 -1 1 0 0 265)">
          <mask id="icon-shape-dont-2-f" fill="#fff">
            <use xlink:href="#icon-shape-dont-2-e"/>
          </mask>
          <rect width="338" height="1" x="-73" fill="#D7D7DB" mask="url(#icon-shape-dont-2-f)"/>
          <rect width="338" height="1" x="-73" y="11" fill="#D7D7DB" mask="url(#icon-shape-dont-2-f)" opacity=".3"/>
          <rect width="338" height="1" x="-73" y="22" fill="#D7D7DB" mask="url(#icon-shape-dont-2-f)" opacity=".3"/>
          <rect width="338" height="1" x="-73" y="33" fill="#D7D7DB" mask="url(#icon-shape-dont-2-f)" opacity=".3"/>
          <rect width="338" height="1" x="-73" y="44" fill="#D7D7DB" mask="url(#icon-shape-dont-2-f)"/>
          <rect width="338" height="1" x="-73" y="55" fill="#D7D7DB" mask="url(#icon-shape-dont-2-f)" opacity=".3"/>
          <rect width="338" height="1" x="-73" y="66" fill="#D7D7DB" mask="url(#icon-shape-dont-2-f)" opacity=".3"/>
          <rect width="338" height="1" x="-73" y="77" fill="#D7D7DB" mask="url(#icon-shape-dont-2-f)" opacity=".3"/>
          <rect width="338" height="1" x="-73" y="88" fill="#D7D7DB" mask="url(#icon-shape-dont-2-f)"/>
          <rect width="338" height="1" x="-73" y="99" fill="#D7D7DB" mask="url(#icon-shape-dont-2-f)" opacity=".3"/>
          <rect width="338" height="1" x="-73" y="110" fill="#D7D7DB" mask="url(#icon-shape-dont-2-f)" opacity=".3"/>
          <rect width="338" height="1" x="-73" y="121" fill="#D7D7DB" mask="url(#icon-shape-dont-2-f)" opacity=".3"/>
          <rect width="338" height="1" x="-73" y="132" fill="#D7D7DB" mask="url(#icon-shape-dont-2-f)"/>
          <rect width="338" height="1" x="-73" y="143" fill="#D7D7DB" mask="url(#icon-shape-dont-2-f)" opacity=".3"/>
          <rect width="338" height="1" x="-73" y="154" fill="#D7D7DB" mask="url(#icon-shape-dont-2-f)" opacity=".3"/>
          <rect width="338" height="1" x="-73" y="165" fill="#D7D7DB" mask="url(#icon-shape-dont-2-f)" opacity=".3"/>
          <rect width="338" height="1" x="-73" y="176" fill="#D7D7DB" mask="url(#icon-shape-dont-2-f)"/>
        </g>
      </g>
      <rect width="165" height="165" x="6" y="6" stroke="#0C0C0D" stroke-opacity=".1" stroke-width="12"/>
    </g>
    <g transform="translate(91 92)">
      <g fill-rule="nonzero">
        <use fill="#FFF" fill-rule="evenodd" xlink:href="#icon-shape-dont-2-g"/>
        <use fill="#0C0C0D" fill-opacity=".8" fill-rule="evenodd" xlink:href="#icon-shape-dont-2-g"/>
      </g>
      <path stroke="#ED00B5" stroke-width="2" d="M121.56 133.5C116.029285 133.5 111.5 138.029285 111.5 143.56 111.5 149.090716 116.029285 153.620001 121.56 153.620001 127.090716 153.620001 131.620001 149.090716 131.620001 143.56 131.620001 138.029285 127.090716 133.5 121.56 133.5zM144.06 155.980861C138.529234 155.980861 134 160.509061 134 166.038337 134 171.567613 138.529234 176.095812 144.06 176.095812 149.590767 176.095812 154.120001 171.567613 154.120001 166.038337 154.120001 160.509061 149.590767 155.980861 144.06 155.980861z"/>
    </g>
    <g transform="translate(181 236)">
      <use fill="#FC2DD7" fill-opacity=".25" xlink:href="#icon-shape-dont-2-h"/>
      <use fill="#000" filter="url(#icon-shape-dont-2-i)" xlink:href="#icon-shape-dont-2-h"/>
      <use fill="#FC2DD7" fill-opacity=".25" xlink:href="#icon-shape-dont-2-j"/>
      <use fill="#000" filter="url(#icon-shape-dont-2-k)" xlink:href="#icon-shape-dont-2-j"/>
      <g transform="translate(43 41)">
        <rect width="1.045" height="9" x="21" fill="#EA1CB4"/>
        <rect width="11" height="1" x="11" y="4" fill="#EA1CB4"/>
        <rect width="1.045" height="9" x="10" fill="#EA1CB4"/>
        <rect width="38.674" height="22" y="12" fill="#E733C9" fill-rule="nonzero" rx="2"/>
        <path fill="#FFF" d="M14.7161086,25.944 L14.7161086,27 L9.7121086,27 L9.7121086,25.944 L11.7281086,25.944 L11.7281086,20.1 L9.9041086,21.216 L9.3281086,20.28 L11.8721086,18.72 L13.0601086,18.72 L13.0601086,25.944 L14.7161086,25.944 Z M22.0241086,23.82 C22.0241086,24.820005 21.8121107,25.6259969 21.3881086,26.238 C20.9641065,26.8500031 20.3601125,27.156 19.5761086,27.156 C18.9121053,27.156 18.3761106,26.9240023 17.9681086,26.46 L17.9681086,29.436 L16.6241086,29.592 L16.6241086,20.664 L17.7881086,20.664 L17.8721086,21.48 C18.1121098,21.1599984 18.390107,20.9160008 18.7061086,20.748 C19.0221102,20.5799992 19.3601068,20.496 19.7201086,20.496 C21.2561163,20.496 22.0241086,21.6039889 22.0241086,23.82 Z M18.5801086,21.78 C18.3481074,21.9480008 18.1441095,22.1679986 17.9681086,22.44 L17.9681086,25.404 C18.2801102,25.8760024 18.696106,26.112 19.2161086,26.112 C19.6801109,26.112 20.0281074,25.9280018 20.2601086,25.56 C20.4921098,25.1919982 20.6081086,24.6160039 20.6081086,23.832 C20.6081086,23.023996 20.5041096,22.4380018 20.2961086,22.074 C20.0881076,21.7099982 19.7721107,21.528 19.3481086,21.528 C19.0681072,21.528 18.8121098,21.6119992 18.5801086,21.78 Z M23.2721086,27 L25.5521086,23.664 L23.5241086,20.664 L25.0721086,20.664 L26.3681086,22.896 L27.6641086,20.664 L29.1401086,20.664 L27.1601086,23.604 L29.4401086,27 L27.8681086,27 L26.3081086,24.408 L24.7601086,27 L23.2721086,27 Z"/>
        <polygon fill="#ED00B5" points="12 13 16 9 20 13 16 17"/>
      </g>
      <g transform="translate(0 41)">
        <rect width="1.045" height="9" x="31" fill="#EA1CB4"/>
        <rect width="11" height="1" x="21" y="4" fill="#EA1CB4"/>
        <rect width="1.045" height="9" x="20" fill="#EA1CB4"/>
        <rect width="38.674" height="22" y="12" fill="#E733C9" fill-rule="nonzero" rx="2"/>
        <path fill="#FFF" d="M14.7161086,25.944 L14.7161086,27 L9.7121086,27 L9.7121086,25.944 L11.7281086,25.944 L11.7281086,20.1 L9.9041086,21.216 L9.3281086,20.28 L11.8721086,18.72 L13.0601086,18.72 L13.0601086,25.944 L14.7161086,25.944 Z M22.0241086,23.82 C22.0241086,24.820005 21.8121107,25.6259969 21.3881086,26.238 C20.9641065,26.8500031 20.3601125,27.156 19.5761086,27.156 C18.9121053,27.156 18.3761106,26.9240023 17.9681086,26.46 L17.9681086,29.436 L16.6241086,29.592 L16.6241086,20.664 L17.7881086,20.664 L17.8721086,21.48 C18.1121098,21.1599984 18.390107,20.9160008 18.7061086,20.748 C19.0221102,20.5799992 19.3601068,20.496 19.7201086,20.496 C21.2561163,20.496 22.0241086,21.6039889 22.0241086,23.82 Z M18.5801086,21.78 C18.3481074,21.9480008 18.1441095,22.1679986 17.9681086,22.44 L17.9681086,25.404 C18.2801102,25.8760024 18.696106,26.112 19.2161086,26.112 C19.6801109,26.112 20.0281074,25.9280018 20.2601086,25.56 C20.4921098,25.1919982 20.6081086,24.6160039 20.6081086,23.832 C20.6081086,23.023996 20.5041096,22.4380018 20.2961086,22.074 C20.0881076,21.7099982 19.7721107,21.528 19.3481086,21.528 C19.0681072,21.528 18.8121098,21.6119992 18.5801086,21.78 Z M23.2721086,27 L25.5521086,23.664 L23.5241086,20.664 L25.0721086,20.664 L26.3681086,22.896 L27.6641086,20.664 L29.1401086,20.664 L27.1601086,23.604 L29.4401086,27 L27.8681086,27 L26.3081086,24.408 L24.7601086,27 L23.2721086,27 Z"/>
        <polygon fill="#ED00B5" points="22 13 26 9 30 13 26 17"/>
      </g>
    </g>
  </g>
</svg>
