<svg xmlns="http://www.w3.org/2000/svg" xmlns:xlink="http://www.w3.org/1999/xlink" width="360" height="360" viewBox="0 0 360 360">
  <defs>
    <polygon id="icon-shape-stroke-3-a" points="0 0 177 0 177 177 0 177"/>
    <polygon id="icon-shape-stroke-3-c" points="0 0 265 0 265 265.201 0 265.201"/>
    <polygon id="icon-shape-stroke-3-e" points="0 0 265 0 265 265.201 0 265.201"/>
    <path id="icon-shape-stroke-3-g" d="M147.271396,125.135698 C141.141511,125.135698 136.203547,130.073662 136.203547,136.203547 L136.203547,246.796901 C136.203547,252.926786 141.141511,257.86475 147.271396,257.86475 C153.401282,257.86475 158.339245,252.926786 158.339245,246.796901 L158.339245,136.203547 C158.339245,130.073662 153.401282,125.135698 147.271396,125.135698 Z M180.474944,114.067849 C174.345058,114.067849 169.407095,119.005813 169.407095,125.135698 L169.407095,246.796901 C169.407095,252.926786 174.345058,257.86475 180.474944,257.86475 C186.604829,257.86475 191.542793,252.926786 191.542793,246.796901 L191.542793,125.135698 C191.542793,119.005813 186.519692,114.067849 180.474944,114.067849 Z M268.251501,242.965722 L223.980104,121.30452 C222.703045,117.558478 219.467827,114.748947 215.466374,113.982712 C211.550058,113.301613 207.548605,114.748947 204.994486,117.81389 C202.440367,120.878833 201.759269,125.135698 203.206603,128.881739 L247.477999,250.542942 C248.755059,254.288983 251.990276,257.098514 255.991729,257.86475 C259.993182,258.630986 263.909498,257.098514 266.463617,254.033571 C269.017736,250.883491 269.698835,246.711763 268.251501,242.965722 L268.251501,242.965722 Z M114.067849,103 C107.937963,103 103,107.937963 103,114.067849 L103,246.796901 C103,252.926786 107.937963,257.86475 114.067849,257.86475 C120.197735,257.86475 125.135698,252.926786 125.135698,246.796901 L125.135698,114.067849 C125.135698,107.937963 120.197735,103 114.067849,103 Z"/>
    <rect id="icon-shape-stroke-3-h" width="23" height="177" x="8" y="39"/>
    <filter id="icon-shape-stroke-3-i" width="104.3%" height="100.6%" x="-2.2%" y="-.3%" filterUnits="objectBoundingBox">
      <feOffset dx="1" in="SourceAlpha" result="shadowOffsetInner1"/>
      <feComposite in="shadowOffsetInner1" in2="SourceAlpha" k2="-1" k3="1" operator="arithmetic" result="shadowInnerInner1"/>
      <feColorMatrix in="shadowInnerInner1" result="shadowMatrixInner1" values="0 0 0 0 0.929411765   0 0 0 0 0   0 0 0 0 0.709803922  0 0 0 1 0"/>
      <feOffset dx="-1" in="SourceAlpha" result="shadowOffsetInner2"/>
      <feComposite in="shadowOffsetInner2" in2="SourceAlpha" k2="-1" k3="1" operator="arithmetic" result="shadowInnerInner2"/>
      <feColorMatrix in="shadowInnerInner2" result="shadowMatrixInner2" values="0 0 0 0 0.929411765   0 0 0 0 0   0 0 0 0 0.709803922  0 0 0 1 0"/>
      <feMerge>
        <feMergeNode in="shadowMatrixInner1"/>
        <feMergeNode in="shadowMatrixInner2"/>
      </feMerge>
    </filter>
  </defs>
  <g fill="none" fill-rule="evenodd">
    <g transform="translate(92 92)">
      <mask id="icon-shape-stroke-3-b" fill="#fff">
        <use xlink:href="#icon-shape-stroke-3-a"/>
      </mask>
      <g mask="url(#icon-shape-stroke-3-b)">
        <mask id="icon-shape-stroke-3-d" fill="#fff">
          <use xlink:href="#icon-shape-stroke-3-c"/>
        </mask>
        <rect width="338" height="1" x="-1" fill="#D7D7DB" mask="url(#icon-shape-stroke-3-d)"/>
        <rect width="338" height="1" x="-1" y="11" fill="#D7D7DB" mask="url(#icon-shape-stroke-3-d)" opacity=".3"/>
        <rect width="338" height="1" x="-1" y="22" fill="#D7D7DB" mask="url(#icon-shape-stroke-3-d)" opacity=".3"/>
        <rect width="338" height="1" x="-1" y="33" fill="#D7D7DB" mask="url(#icon-shape-stroke-3-d)" opacity=".3"/>
        <rect width="338" height="1" x="-1" y="44" fill="#D7D7DB" mask="url(#icon-shape-stroke-3-d)"/>
        <rect width="338" height="1" x="-1" y="55" fill="#D7D7DB" mask="url(#icon-shape-stroke-3-d)" opacity=".3"/>
        <rect width="338" height="1" x="-1" y="66" fill="#D7D7DB" mask="url(#icon-shape-stroke-3-d)" opacity=".3"/>
        <rect width="338" height="1" x="-1" y="77" fill="#D7D7DB" mask="url(#icon-shape-stroke-3-d)" opacity=".3"/>
        <rect width="338" height="1" x="-1" y="88" fill="#D7D7DB" mask="url(#icon-shape-stroke-3-d)"/>
        <rect width="338" height="1" x="-1" y="99" fill="#D7D7DB" mask="url(#icon-shape-stroke-3-d)" opacity=".3"/>
        <rect width="338" height="1" x="-1" y="110" fill="#D7D7DB" mask="url(#icon-shape-stroke-3-d)" opacity=".3"/>
        <rect width="338" height="1" x="-1" y="121" fill="#D7D7DB" mask="url(#icon-shape-stroke-3-d)" opacity=".3"/>
        <rect width="338" height="1" x="-1" y="132" fill="#D7D7DB" mask="url(#icon-shape-stroke-3-d)"/>
        <rect width="338" height="1" x="-1" y="143" fill="#D7D7DB" mask="url(#icon-shape-stroke-3-d)" opacity=".3"/>
        <rect width="338" height="1" x="-1" y="154" fill="#D7D7DB" mask="url(#icon-shape-stroke-3-d)" opacity=".3"/>
        <rect width="338" height="1" x="-1" y="165" fill="#D7D7DB" mask="url(#icon-shape-stroke-3-d)" opacity=".3"/>
        <rect width="338" height="1" x="-1" y="176" fill="#D7D7DB" mask="url(#icon-shape-stroke-3-d)"/>
        <rect width="338" height="1" x="-1" y="187" fill="#D7D7DB" mask="url(#icon-shape-stroke-3-d)" opacity=".3"/>
        <rect width="338" height="1" x="-1" y="198" fill="#D7D7DB" mask="url(#icon-shape-stroke-3-d)" opacity=".3"/>
        <rect width="338" height="1" x="-1" y="209" fill="#D7D7DB" mask="url(#icon-shape-stroke-3-d)" opacity=".3"/>
        <rect width="338" height="1" x="-1" y="220" fill="#D7D7DB" mask="url(#icon-shape-stroke-3-d)"/>
        <rect width="338" height="1" x="-1" y="231" fill="#D7D7DB" mask="url(#icon-shape-stroke-3-d)" opacity=".3"/>
        <rect width="338" height="1" x="-1" y="242" fill="#D7D7DB" mask="url(#icon-shape-stroke-3-d)" opacity=".3"/>
        <rect width="338" height="1" x="-1" y="253" fill="#D7D7DB" mask="url(#icon-shape-stroke-3-d)" opacity=".3"/>
        <rect width="338" height="1" x="-1" y="264" fill="#D7D7DB" mask="url(#icon-shape-stroke-3-d)"/>
      </g>
      <g mask="url(#icon-shape-stroke-3-b)">
        <g transform="matrix(0 -1 1 0 0 265)">
          <mask id="icon-shape-stroke-3-f" fill="#fff">
            <use xlink:href="#icon-shape-stroke-3-e"/>
          </mask>
          <rect width="338" height="1" x="-73" fill="#D7D7DB" mask="url(#icon-shape-stroke-3-f)"/>
          <rect width="338" height="1" x="-73" y="11" fill="#D7D7DB" mask="url(#icon-shape-stroke-3-f)" opacity=".3"/>
          <rect width="338" height="1" x="-73" y="22" fill="#D7D7DB" mask="url(#icon-shape-stroke-3-f)" opacity=".3"/>
          <rect width="338" height="1" x="-73" y="33" fill="#D7D7DB" mask="url(#icon-shape-stroke-3-f)" opacity=".3"/>
          <rect width="338" height="1" x="-73" y="44" fill="#D7D7DB" mask="url(#icon-shape-stroke-3-f)"/>
          <rect width="338" height="1" x="-73" y="55" fill="#D7D7DB" mask="url(#icon-shape-stroke-3-f)" opacity=".3"/>
          <rect width="338" height="1" x="-73" y="66" fill="#D7D7DB" mask="url(#icon-shape-stroke-3-f)" opacity=".3"/>
          <rect width="338" height="1" x="-73" y="77" fill="#D7D7DB" mask="url(#icon-shape-stroke-3-f)" opacity=".3"/>
          <rect width="338" height="1" x="-73" y="88" fill="#D7D7DB" mask="url(#icon-shape-stroke-3-f)"/>
          <rect width="338" height="1" x="-73" y="99" fill="#D7D7DB" mask="url(#icon-shape-stroke-3-f)" opacity=".3"/>
          <rect width="338" height="1" x="-73" y="110" fill="#D7D7DB" mask="url(#icon-shape-stroke-3-f)" opacity=".3"/>
          <rect width="338" height="1" x="-73" y="121" fill="#D7D7DB" mask="url(#icon-shape-stroke-3-f)" opacity=".3"/>
          <rect width="338" height="1" x="-73" y="132" fill="#D7D7DB" mask="url(#icon-shape-stroke-3-f)"/>
          <rect width="338" height="1" x="-73" y="143" fill="#D7D7DB" mask="url(#icon-shape-stroke-3-f)" opacity=".3"/>
          <rect width="338" height="1" x="-73" y="154" fill="#D7D7DB" mask="url(#icon-shape-stroke-3-f)" opacity=".3"/>
          <rect width="338" height="1" x="-73" y="165" fill="#D7D7DB" mask="url(#icon-shape-stroke-3-f)" opacity=".3"/>
          <rect width="338" height="1" x="-73" y="176" fill="#D7D7DB" mask="url(#icon-shape-stroke-3-f)"/>
          <rect width="338" height="1" x="-73" y="187" fill="#D7D7DB" mask="url(#icon-shape-stroke-3-f)" opacity=".3"/>
          <rect width="338" height="1" x="-73" y="198" fill="#D7D7DB" mask="url(#icon-shape-stroke-3-f)" opacity=".3"/>
          <rect width="338" height="1" x="-73" y="209" fill="#D7D7DB" mask="url(#icon-shape-stroke-3-f)" opacity=".3"/>
          <rect width="338" height="1" x="-73" y="220" fill="#D7D7DB" mask="url(#icon-shape-stroke-3-f)"/>
          <rect width="338" height="1" x="-73" y="231" fill="#D7D7DB" mask="url(#icon-shape-stroke-3-f)" opacity=".3"/>
          <rect width="338" height="1" x="-73" y="242" fill="#D7D7DB" mask="url(#icon-shape-stroke-3-f)" opacity=".3"/>
          <rect width="338" height="1" x="-73" y="253" fill="#D7D7DB" mask="url(#icon-shape-stroke-3-f)" opacity=".3"/>
          <rect width="338" height="1" x="-73" y="264" fill="#D7D7DB" mask="url(#icon-shape-stroke-3-f)"/>
        </g>
      </g>
      <rect width="165" height="165" x="6" y="6" stroke="#0C0C0D" stroke-opacity=".1" stroke-width="12"/>
    </g>
    <g fill-rule="nonzero">
      <use fill="#FFF" fill-rule="evenodd" xlink:href="#icon-shape-stroke-3-g"/>
      <use fill="#0C0C0D" fill-opacity=".8" fill-rule="evenodd" xlink:href="#icon-shape-stroke-3-g"/>
    </g>
    <g transform="translate(128 53)">
      <rect width="1" height="9" x="30" y="26" fill="#ED00B5"/>
      <rect width="21" height="1" x="9" y="30" fill="#ED00B5"/>
      <rect width="1" height="9" x="8" y="26" fill="#ED00B5"/>
      <rect width="39" height="22" fill="#ED00B5" fill-rule="nonzero" rx="2"/>
      <path fill="#FFF" d="M12.754,6.9 C13.1340019,7.100001 13.423999,7.37399826 13.624,7.722 C13.824001,8.07000174 13.924,8.4639978 13.924,8.904 C13.924,9.41600256 13.8060012,9.9119976 13.57,10.392 C13.3339988,10.8720024 12.9560026,11.3979971 12.436,11.97 C11.9159974,12.5420029 11.1800048,13.2639956 10.228,14.136 L14.116,14.136 L13.996,15 L9.076,15 L9.076,14.184 C10.1560054,13.1519948 10.9579974,12.3440029 11.482,11.76 C12.0060026,11.1759971 12.367999,10.6760021 12.568,10.26 C12.768001,9.84399792 12.868,9.40400232 12.868,8.94 C12.868,8.47599768 12.7360013,8.11200132 12.472,7.848 C12.2079987,7.58399868 11.8440023,7.452 11.38,7.452 C10.987998,7.452 10.6620013,7.51799934 10.402,7.65 C10.1419987,7.78200066 9.87600136,8.0079984 9.604,8.328 L8.908,7.788 C9.23600164,7.37999796 9.60199798,7.08000096 10.006,6.888 C10.410002,6.69599904 10.8839973,6.6 11.428,6.6 C11.9320025,6.6 12.3739981,6.699999 12.754,6.9 Z M21.724,11.832 C21.724,12.832005 21.5160021,13.631997 21.1,14.232 C20.6839979,14.832003 20.080004,15.132 19.288,15.132 C18.5999966,15.132 18.0400022,14.8920024 17.608,14.412 L17.608,17.424 L16.6,17.544 L16.6,8.676 L17.464,8.676 L17.548,9.564 C17.7800012,9.23599836 18.0579984,8.98400088 18.382,8.808 C18.7060016,8.63199912 19.0559981,8.544 19.432,8.544 C20.9600076,8.544 21.724,9.63998904 21.724,11.832 Z M18.31,9.648 C18.0419987,9.84000096 17.808001,10.0799986 17.608,10.368 L17.608,13.5 C17.7760008,13.7480012 17.9859987,13.9419993 18.238,14.082 C18.4900013,14.2220007 18.7639985,14.292 19.06,14.292 C19.5880026,14.292 19.9819987,14.090002 20.242,13.686 C20.5020013,13.281998 20.632,12.6640042 20.632,11.832 C20.632,10.9999958 20.5160012,10.380002 20.284,9.972 C20.0519988,9.56399796 19.6880025,9.36 19.192,9.36 C18.8719984,9.36 18.5780013,9.45599904 18.31,9.648 Z M23.272,15 L25.6,11.664 L23.548,8.676 L24.748,8.676 L26.212,11.028 L27.688,8.676 L28.852,8.676 L26.8,11.616 L29.128,15 L27.904,15 L26.164,12.288 L24.424,15 L23.272,15 Z"/>
      <polygon fill="#ED00B5" points="15 21 19 17 23 21 19 25"/>
      <g>
        <use fill="#FC2DD7" fill-opacity=".25" xlink:href="#icon-shape-stroke-3-h"/>
        <use fill="#000" filter="url(#icon-shape-stroke-3-i)" xlink:href="#icon-shape-stroke-3-h"/>
      </g>
    </g>
  </g>
</svg>
