<svg xmlns="http://www.w3.org/2000/svg" width="300" height="96" viewBox="0 0 300 96">
  <g fill="#0C0C0D" fill-rule="evenodd" transform="translate(46 32)">
    <path fill-opacity=".8" d="M31.485573,11.8798 C31.2296362,11.1138 30.5757976,10.5518 29.7859925,10.4138 L21.6200081,8.9558 L17.7689586,1.2218 C17.3950509,0.4678 16.641237,0.0018 15.7994447,0.0018 C14.959652,0.0018 14.2038386,0.4678 13.8319304,1.2198 L9.9808809,8.9558 L1.82089497,10.4138 C1.0250914,10.5518 0.371252779,11.1138 0.11531595,11.8798 C-0.142620385,12.6458 0.0393347043,13.4898 0.589198985,14.0778 L6.44175444,20.3718 L5.22405499,29.0898 C5.11008313,29.9118 5.45799725,30.7158 6.13582995,31.1938 C6.51573618,31.4618 6.95762711,31.5958 7.40151755,31.5958 C7.74743217,31.5958 8.0973458,31.5138 8.41726683,31.3458 L15.7994447,27.4978 L23.1796231,31.3438 C23.9074435,31.7258 24.7872263,31.6698 25.465059,31.1938 C26.1408922,30.7158 26.4908059,29.9118 26.376834,29.0898 L25.157135,20.3718 L31.0096905,14.0798 C31.5595548,13.4898 31.7415099,12.6458 31.485573,11.8798"/>
    <path d="M47.185,15.3287032 C47.7150027,16.0537068 47.98,17.0661967 47.98,18.3662032 C47.98,19.1862073 47.8550013,19.9087001 47.605,20.5337032 C47.3549988,21.1587063 46.9950024,21.6437015 46.525,21.9887032 C46.0549976,22.3337049 45.5050032,22.5062032 44.875,22.5062032 C44.0449958,22.5062032 43.3450029,22.1562067 42.775,21.4562032 L42.64,22.3262032 L41.425,22.3262032 L41.425,11.2412032 L42.805,11.0762032 L42.805,15.4112032 C43.3750029,14.6311993 44.1199954,14.2412032 45.04,14.2412032 C45.9400045,14.2412032 46.6549974,14.6036996 47.185,15.3287032 Z M45.9775,20.6687032 C46.3225017,20.1737007 46.495,19.4062084 46.495,18.3662032 C46.495,17.2961979 46.3350016,16.5237056 46.015,16.0487032 C45.6949984,15.5737008 45.2400029,15.3362032 44.65,15.3362032 C43.9499965,15.3362032 43.3350026,15.7461991 42.805,16.5662032 L42.805,20.3462032 C43.0150011,20.6762049 43.2724985,20.9362023 43.5775,21.1262032 C43.8825015,21.3162042 44.2049983,21.4112032 44.545,21.4112032 C45.155003,21.4112032 45.6324983,21.1637057 45.9775,20.6687032 Z M55.8925,15.3512032 C56.5075031,16.0912069 56.815,17.0961969 56.815,18.3662032 C56.815,19.1862073 56.6750014,19.9087001 56.395,20.5337032 C56.1149986,21.1587063 55.7100026,21.6437015 55.18,21.9887032 C54.6499973,22.3337049 54.0200036,22.5062032 53.29,22.5062032 C52.1799944,22.5062032 51.3150031,22.1362069 50.695,21.3962032 C50.0749969,20.6561995 49.765,19.6512096 49.765,18.3812032 C49.765,17.5611991 49.9049986,16.8387063 50.185,16.2137032 C50.4650014,15.5887001 50.8699973,15.1037049 51.4,14.7587032 C51.9300026,14.4137015 52.5649963,14.2412032 53.305,14.2412032 C54.4150056,14.2412032 55.2774969,14.6111995 55.8925,15.3512032 Z M51.25,18.3812032 C51.25,20.3912133 51.9299932,21.3962032 53.29,21.3962032 C54.6500068,21.3962032 55.33,20.3862133 55.33,18.3662032 C55.33,16.3561932 54.6550067,15.3512032 53.305,15.3512032 C51.9349931,15.3512032 51.25,16.3611931 51.25,18.3812032 Z M64.6525,15.3512032 C65.2675031,16.0912069 65.575,17.0961969 65.575,18.3662032 C65.575,19.1862073 65.4350014,19.9087001 65.155,20.5337032 C64.8749986,21.1587063 64.4700026,21.6437015 63.94,21.9887032 C63.4099974,22.3337049 62.7800037,22.5062032 62.05,22.5062032 C60.9399945,22.5062032 60.0750031,22.1362069 59.455,21.3962032 C58.8349969,20.6561995 58.525,19.6512096 58.525,18.3812032 C58.525,17.5611991 58.6649986,16.8387063 58.945,16.2137032 C59.2250014,15.5887001 59.6299974,15.1037049 60.16,14.7587032 C60.6900027,14.4137015 61.3249963,14.2412032 62.065,14.2412032 C63.1750056,14.2412032 64.0374969,14.6111995 64.6525,15.3512032 Z M60.01,18.3812032 C60.01,20.3912133 60.6899932,21.3962032 62.05,21.3962032 C63.4100068,21.3962032 64.09,20.3862133 64.09,18.3662032 C64.09,16.3561932 63.4150068,15.3512032 62.065,15.3512032 C60.6949932,15.3512032 60.01,16.3611931 60.01,18.3812032 Z M69.235,22.3262032 L67.855,22.3262032 L67.855,11.2412032 L69.235,11.0762032 L69.235,22.3262032 Z M70.87,17.9162032 L74.11,22.3262032 L72.46,22.3262032 L69.325,18.0062032 L72.235,14.4212032 L73.78,14.4212032 L70.87,17.9162032 Z M85.03,14.8937032 C85.4200019,15.3287054 85.615,15.9161995 85.615,16.6562032 L85.615,22.3262032 L84.235,22.3262032 L84.235,16.8512032 C84.235,15.8311981 83.8650037,15.3212032 83.125,15.3212032 C82.7349981,15.3212032 82.4050013,15.4337021 82.135,15.6587032 C81.8649986,15.8837043 81.5750015,16.2362008 81.265,16.7162032 L81.265,22.3262032 L79.885,22.3262032 L79.885,16.8512032 C79.885,15.8311981 79.5150037,15.3212032 78.775,15.3212032 C78.374998,15.3212032 78.0400013,15.4362021 77.77,15.6662032 C77.4999986,15.8962044 77.2150015,16.2462009 76.915,16.7162032 L76.915,22.3262032 L75.535,22.3262032 L75.535,14.4212032 L76.72,14.4212032 L76.84,15.5762032 C77.430003,14.6861988 78.1899954,14.2412032 79.12,14.2412032 C79.6100024,14.2412032 80.0274983,14.366202 80.3725,14.6162032 C80.7175017,14.8662045 80.9649993,15.216201 81.115,15.6662032 C81.4250015,15.2062009 81.7674981,14.8537044 82.1425,14.6087032 C82.5175019,14.363702 82.9599975,14.2412032 83.47,14.2412032 C84.1200032,14.2412032 84.6399981,14.458701 85.03,14.8937032 Z M93.88,21.1937032 C93.9900005,21.348704 94.1549989,21.4662028 94.375,21.5462032 L94.06,22.5062032 C93.6499979,22.456203 93.3200012,22.3412041 93.07,22.1612032 C92.8199987,21.9812023 92.6350006,21.7012051 92.515,21.3212032 C91.9849973,22.1112072 91.2000052,22.5062032 90.16,22.5062032 C89.3799961,22.5062032 88.7650022,22.2862054 88.315,21.8462032 C87.8649977,21.406201 87.64,20.8312068 87.64,20.1212032 C87.64,19.281199 87.942497,18.6362055 88.5475,18.1862032 C89.152503,17.736201 90.0099944,17.5112032 91.12,17.5112032 L92.335,17.5112032 L92.335,16.9262032 C92.335,16.3662004 92.2000013,15.9662044 91.93,15.7262032 C91.6599987,15.486202 91.2450028,15.3662032 90.685,15.3662032 C90.1049971,15.3662032 89.3950042,15.5062018 88.555,15.7862032 L88.21,14.7812032 C89.1900049,14.4212014 90.0999958,14.2412032 90.94,14.2412032 C91.8700046,14.2412032 92.5649977,14.4687009 93.025,14.9237032 C93.4850023,15.3787055 93.715,16.026199 93.715,16.8662032 L93.715,20.4812032 C93.715,20.8012048 93.7699995,21.0387024 93.88,21.1937032 Z M92.335,20.2412032 L92.335,18.4262032 L91.3,18.4262032 C89.8399927,18.4262032 89.11,18.9661978 89.11,20.0462032 C89.11,20.5162056 89.2249988,20.871202 89.455,21.1112032 C89.6850011,21.3512044 90.0249977,21.4712032 90.475,21.4712032 C91.2650039,21.4712032 91.8849977,21.0612073 92.335,20.2412032 Z M100.765,14.3312032 L100.51,15.6812032 C100.269999,15.6212029 100.040001,15.5912032 99.82,15.5912032 C99.3299976,15.5912032 98.9350015,15.7712014 98.635,16.1312032 C98.3349985,16.491205 98.1000009,17.0511994 97.93,17.8112032 L97.93,22.3262032 L96.55,22.3262032 L96.55,14.4212032 L97.735,14.4212032 L97.87,16.0262032 C98.0800011,15.4362003 98.3649982,14.9912047 98.725,14.6912032 C99.0850018,14.3912017 99.5049976,14.2412032 99.985,14.2412032 C100.265001,14.2412032 100.524999,14.2712029 100.765,14.3312032 Z M103.72,22.3262032 L102.34,22.3262032 L102.34,11.2412032 L103.72,11.0762032 L103.72,22.3262032 Z M105.355,17.9162032 L108.595,22.3262032 L106.945,22.3262032 L103.81,18.0062032 L106.72,14.4212032 L108.265,14.4212032 L105.355,17.9162032 Z M111.36,20.7212032 C111.560001,20.9212042 111.66,21.1662018 111.66,21.4562032 C111.66,21.7462047 111.560001,21.9937022 111.36,22.1987032 C111.159999,22.4037042 110.910002,22.5062032 110.61,22.5062032 C110.319999,22.5062032 110.075001,22.4037042 109.875,22.1987032 C109.674999,21.9937022 109.575,21.7462047 109.575,21.4562032 C109.575,21.1662018 109.674999,20.9212042 109.875,20.7212032 C110.075001,20.5212022 110.319999,20.4212032 110.61,20.4212032 C110.910002,20.4212032 111.159999,20.5212022 111.36,20.7212032 Z M117.45,14.4662032 C117.880002,14.616204 118.289998,14.8412017 118.68,15.1412032 L118.095,16.0112032 C117.734998,15.7812021 117.392502,15.6112038 117.0675,15.5012032 C116.742498,15.3912027 116.400002,15.3362032 116.04,15.3362032 C115.589998,15.3362032 115.235001,15.4287023 114.975,15.6137032 C114.714999,15.7987041 114.585,16.0512016 114.585,16.3712032 C114.585,16.6912048 114.707499,16.9412023 114.9525,17.1212032 C115.197501,17.3012041 115.639997,17.4762024 116.28,17.6462032 C117.160004,17.8662043 117.817498,18.1662013 118.2525,18.5462032 C118.687502,18.9262051 118.905,19.4461999 118.905,20.1062032 C118.905,20.8862071 118.602503,21.4812012 117.9975,21.8912032 C117.392497,22.3012053 116.655004,22.5062032 115.785,22.5062032 C114.584994,22.5062032 113.590004,22.1612067 112.8,21.4712032 L113.535,20.6312032 C114.205003,21.1412058 114.944996,21.3962032 115.755,21.3962032 C116.275003,21.3962032 116.687498,21.2887043 116.9925,21.0737032 C117.297502,20.8587021 117.45,20.5662051 117.45,20.1962032 C117.45,19.9262019 117.395001,19.708704 117.285,19.5437032 C117.174999,19.3787024 116.985001,19.2337038 116.715,19.1087032 C116.444999,18.9837026 116.050003,18.8512039 115.53,18.7112032 C114.689996,18.4912021 114.082502,18.1962051 113.7075,17.8262032 C113.332498,17.4562014 113.145,16.9862061 113.145,16.4162032 C113.145,16.0062012 113.267499,15.6337049 113.5125,15.2987032 C113.757501,14.9637015 114.097498,14.7037041 114.5325,14.5187032 C114.967502,14.3337023 115.454997,14.2412032 115.995,14.2412032 C116.535003,14.2412032 117.019998,14.3162025 117.45,14.4662032 Z M123.825,22.3262032 L122.16,22.3262032 L119.43,14.4212032 L120.93,14.4212032 L123,21.0962032 L125.055,14.4212032 L126.51,14.4212032 L123.825,22.3262032 Z M134.46,14.7812032 C134.159998,14.8812037 133.830002,14.9462031 133.47,14.9762032 C133.109998,15.0062034 132.670003,15.0212032 132.15,15.0212032 C133.080005,15.4412053 133.545,16.1061987 133.545,17.0162032 C133.545,17.8062072 133.275003,18.4512007 132.735,18.9512032 C132.194997,19.4512057 131.460005,19.7012032 130.53,19.7012032 C130.169998,19.7012032 129.835002,19.6512037 129.525,19.5512032 C129.404999,19.6312036 129.31,19.7387025 129.24,19.8737032 C129.17,20.0087039 129.135,20.1462025 129.135,20.2862032 C129.135,20.7162054 129.479997,20.9312032 130.17,20.9312032 L131.43,20.9312032 C131.960003,20.9312032 132.429998,21.0262023 132.84,21.2162032 C133.250002,21.4062042 133.567499,21.6662016 133.7925,21.9962032 C134.017501,22.3262049 134.13,22.7012011 134.13,23.1212032 C134.13,23.8912071 133.815003,24.4837011 133.185,24.8987032 C132.554997,25.3137053 131.635006,25.5212032 130.425,25.5212032 C129.574996,25.5212032 128.902502,25.4337041 128.4075,25.2587032 C127.912498,25.0837023 127.560001,24.821205 127.35,24.4712032 C127.139999,24.1212015 127.035,23.671206 127.035,23.1212032 L128.28,23.1212032 C128.28,23.4412048 128.339999,23.6937023 128.46,23.8787032 C128.580001,24.0637041 128.794998,24.2037027 129.105,24.2987032 C129.415002,24.3937037 129.854997,24.4412032 130.425,24.4412032 C131.255004,24.4412032 131.847498,24.3387042 132.2025,24.1337032 C132.557502,23.9287022 132.735,23.6212053 132.735,23.2112032 C132.735,22.8412014 132.595001,22.5612042 132.315,22.3712032 C132.034999,22.1812023 131.645002,22.0862032 131.145,22.0862032 L129.9,22.0862032 C129.229997,22.0862032 128.722502,21.9437046 128.3775,21.6587032 C128.032498,21.3737018 127.86,21.0162054 127.86,20.5862032 C127.86,20.3262019 127.934999,20.0762044 128.085,19.8362032 C128.235001,19.596202 128.449999,19.3812042 128.73,19.1912032 C128.269998,18.951202 127.932501,18.653705 127.7175,18.2987032 C127.502499,17.9437014 127.395,17.5112058 127.395,17.0012032 C127.395,16.4712006 127.527499,15.9962053 127.7925,15.5762032 C128.057501,15.1562011 128.422498,14.8287044 128.8875,14.5937032 C129.352502,14.358702 129.869997,14.2412032 130.44,14.2412032 C131.060003,14.2512033 131.579998,14.2287035 132,14.1737032 C132.420002,14.1187029 132.767499,14.0437037 133.0425,13.9487032 C133.317501,13.8537027 133.654998,13.7162041 134.055,13.5362032 L134.46,14.7812032 Z M129.2325,15.7187032 C128.947499,16.0437048 128.805,16.4712006 128.805,17.0012032 C128.805,17.5412059 128.949999,17.9737016 129.24,18.2987032 C129.530001,18.6237048 129.939997,18.7862032 130.47,18.7862032 C131.010003,18.7862032 131.422499,18.6287048 131.7075,18.3137032 C131.992501,17.9987016 132.135,17.5562061 132.135,16.9862032 C132.135,15.8161974 131.570006,15.2312032 130.44,15.2312032 C129.919997,15.2312032 129.517501,15.3937016 129.2325,15.7187032 Z"/>
  </g>
</svg>
