<svg xmlns="http://www.w3.org/2000/svg" xmlns:xlink="http://www.w3.org/1999/xlink" width="300" height="300" viewBox="0 0 300 300">
  <defs>
    <polygon id="stroke3-a" points="0 0 209 0 209 209 0 209"/>
    <polygon id="stroke3-c" points="0 0 209 0 209 208.791 0 208.791"/>
    <polygon id="stroke3-e" points="0 0 209 0 209 209 0 209"/>
    <path id="stroke3-g" d="M104.5,26.5 C61.483,26.5 26.5,61.483 26.5,104.5 C26.5,147.517 61.483,182.5 104.5,182.5 C147.517,182.5 182.5,147.517 182.5,104.5 C182.5,61.483 147.517,26.5 104.5,26.5 M104.5,208.5 C47.157,208.5 0.5,161.843 0.5,104.5 C0.5,47.157 47.157,0.5 104.5,0.5 C161.843,0.5 208.5,47.157 208.5,104.5 C208.5,161.843 161.843,208.5 104.5,208.5"/>
    <path id="stroke3-h" d="M104.915441,59 C104.915441,55.1807073 101.819293,52.0845588 98,52.0845588 C94.1807073,52.0845588 91.0845588,55.1807073 91.0845588,59 L91.0845588,111 C91.0845588,114.819293 94.1807073,117.915441 98,117.915441 L150,117.915441 C153.819293,117.915441 156.915441,114.819293 156.915441,111 C156.915441,107.180707 153.819293,104.084559 150,104.084559 L104.915441,104.084559 L104.915441,59 Z"/>
    <rect id="stroke3-i" width="27" height="118" x="46" y="32"/>
    <filter id="stroke3-j" width="103.7%" height="100.8%" x="-1.9%" y="-.4%" filterUnits="objectBoundingBox">
      <feOffset dx="1" in="SourceAlpha" result="shadowOffsetInner1"/>
      <feComposite in="shadowOffsetInner1" in2="SourceAlpha" k2="-1" k3="1" operator="arithmetic" result="shadowInnerInner1"/>
      <feColorMatrix in="shadowInnerInner1" result="shadowMatrixInner1" values="0 0 0 0 0.0392156863   0 0 0 0 0.517647059   0 0 0 0 1  0 0 0 1 0"/>
      <feOffset dx="-1" in="SourceAlpha" result="shadowOffsetInner2"/>
      <feComposite in="shadowOffsetInner2" in2="SourceAlpha" k2="-1" k3="1" operator="arithmetic" result="shadowInnerInner2"/>
      <feColorMatrix in="shadowInnerInner2" result="shadowMatrixInner2" values="0 0 0 0 0.0392156863   0 0 0 0 0.517647059   0 0 0 0 1  0 0 0 1 0"/>
      <feMerge>
        <feMergeNode in="shadowMatrixInner1"/>
        <feMergeNode in="shadowMatrixInner2"/>
      </feMerge>
    </filter>
    <rect id="stroke3-k" width="14" height="118" x="137" y="32"/>
    <filter id="stroke3-l" width="107.1%" height="100.8%" x="-3.6%" y="-.4%" filterUnits="objectBoundingBox">
      <feOffset dx="1" in="SourceAlpha" result="shadowOffsetInner1"/>
      <feComposite in="shadowOffsetInner1" in2="SourceAlpha" k2="-1" k3="1" operator="arithmetic" result="shadowInnerInner1"/>
      <feColorMatrix in="shadowInnerInner1" result="shadowMatrixInner1" values="0 0 0 0 0.0392156863   0 0 0 0 0.517647059   0 0 0 0 1  0 0 0 1 0"/>
      <feOffset dx="-1" in="SourceAlpha" result="shadowOffsetInner2"/>
      <feComposite in="shadowOffsetInner2" in2="SourceAlpha" k2="-1" k3="1" operator="arithmetic" result="shadowInnerInner2"/>
      <feColorMatrix in="shadowInnerInner2" result="shadowMatrixInner2" values="0 0 0 0 0.0392156863   0 0 0 0 0.517647059   0 0 0 0 1  0 0 0 1 0"/>
      <feMerge>
        <feMergeNode in="shadowMatrixInner1"/>
        <feMergeNode in="shadowMatrixInner2"/>
      </feMerge>
    </filter>
  </defs>
  <g fill="none" fill-rule="evenodd">
    <g transform="translate(46 46)">
      <mask id="stroke3-b" fill="#fff">
        <use xlink:href="#stroke3-a"/>
      </mask>
      <g mask="url(#stroke3-b)">
        <mask id="stroke3-d" fill="#fff">
          <use xlink:href="#stroke3-c"/>
        </mask>
        <rect width="209" height="1" fill="#D7D7DB" mask="url(#stroke3-d)"/>
        <rect width="209" height="1" y="13" fill="#D7D7DB" mask="url(#stroke3-d)"/>
        <rect width="209" height="1" y="26" fill="#D7D7DB" mask="url(#stroke3-d)"/>
        <rect width="209" height="1" y="39" fill="#D7D7DB" mask="url(#stroke3-d)"/>
        <rect width="209" height="1" y="52" fill="#D7D7DB" mask="url(#stroke3-d)"/>
        <rect width="209" height="1" y="65" fill="#D7D7DB" mask="url(#stroke3-d)"/>
        <rect width="209" height="1" y="78" fill="#D7D7DB" mask="url(#stroke3-d)"/>
        <rect width="209" height="1" y="91" fill="#D7D7DB" mask="url(#stroke3-d)"/>
        <rect width="209" height="1" y="104" fill="#D7D7DB" mask="url(#stroke3-d)"/>
        <rect width="209" height="1" y="117" fill="#D7D7DB" mask="url(#stroke3-d)"/>
        <rect width="209" height="1" y="130" fill="#D7D7DB" mask="url(#stroke3-d)"/>
        <rect width="209" height="1" y="143" fill="#D7D7DB" mask="url(#stroke3-d)"/>
        <rect width="209" height="1" y="156" fill="#D7D7DB" mask="url(#stroke3-d)"/>
        <rect width="209" height="1" y="169" fill="#D7D7DB" mask="url(#stroke3-d)"/>
        <rect width="209" height="1" y="182" fill="#D7D7DB" mask="url(#stroke3-d)"/>
        <rect width="209" height="1" y="195" fill="#D7D7DB" mask="url(#stroke3-d)"/>
        <rect width="209" height="1" y="208" fill="#D7D7DB" mask="url(#stroke3-d)"/>
      </g>
      <g>
        <mask id="stroke3-f" fill="#fff">
          <use xlink:href="#stroke3-e"/>
        </mask>
        <rect width="1" height="209" fill="#D7D7DB" mask="url(#stroke3-f)"/>
        <rect width="1" height="209" x="13" fill="#D7D7DB" mask="url(#stroke3-f)"/>
        <rect width="1" height="209" x="26" fill="#D7D7DB" mask="url(#stroke3-f)"/>
        <rect width="1" height="209" x="39" fill="#D7D7DB" mask="url(#stroke3-f)"/>
        <rect width="1" height="209" x="52" fill="#D7D7DB" mask="url(#stroke3-f)"/>
        <rect width="1" height="209" x="65" fill="#D7D7DB" mask="url(#stroke3-f)"/>
        <rect width="1" height="209" x="78" fill="#D7D7DB" mask="url(#stroke3-f)"/>
        <rect width="1" height="209" x="91" fill="#D7D7DB" mask="url(#stroke3-f)"/>
        <rect width="1" height="209" x="104" fill="#D7D7DB" mask="url(#stroke3-f)"/>
        <rect width="1" height="209" x="117" fill="#D7D7DB" mask="url(#stroke3-f)"/>
        <rect width="1" height="209" x="130" fill="#D7D7DB" mask="url(#stroke3-f)"/>
        <rect width="1" height="209" x="143" fill="#D7D7DB" mask="url(#stroke3-f)"/>
        <rect width="1" height="209" x="156" fill="#D7D7DB" mask="url(#stroke3-f)"/>
        <rect width="1" height="209" x="169" fill="#D7D7DB" mask="url(#stroke3-f)"/>
        <rect width="1" height="209" x="182" fill="#D7D7DB" mask="url(#stroke3-f)"/>
        <rect width="1" height="209" x="195" fill="#D7D7DB" mask="url(#stroke3-f)"/>
        <rect width="1" height="209" x="208" fill="#D7D7DB" mask="url(#stroke3-f)"/>
      </g>
      <rect width="195" height="195" x="7" y="7" stroke="#000" stroke-width="14" opacity=".1"/>
    </g>
    <g transform="translate(46 46)">
      <use fill="#FFF" xlink:href="#stroke3-g"/>
      <use fill="#000" fill-opacity=".8" xlink:href="#stroke3-g"/>
      <g fill-rule="nonzero">
        <use fill="#FFF" fill-rule="evenodd" xlink:href="#stroke3-h"/>
        <use fill="#0C0C0D" fill-opacity=".8" fill-rule="evenodd" xlink:href="#stroke3-h"/>
      </g>
    </g>
    <use fill="#0A84FF" fill-opacity=".25" xlink:href="#stroke3-i"/>
    <use fill="#000" filter="url(#stroke3-j)" xlink:href="#stroke3-i"/>
    <use fill="#0A84FF" fill-opacity=".25" xlink:href="#stroke3-k"/>
    <use fill="#000" filter="url(#stroke3-l)" xlink:href="#stroke3-k"/>
    <text fill="#0A84FF" font-family="FiraMono-Medium, Fira Mono" font-size="11" font-weight="400">
      <tspan x="50" y="26">2px</tspan>
    </text>
    <text fill="#0A84FF" font-family="FiraMono-Medium, Fira Mono" font-size="11" font-weight="400">
      <tspan x="134" y="26">1px</tspan>
    </text>
  </g>
</svg>
