<?xml version="1.0" encoding="utf-8"?>
<!-- Generator: Adobe Illustrator 21.1.0, SVG Export Plug-In . SVG Version: 6.00 Build 0)  -->
<svg version="1.1" xmlns="http://www.w3.org/2000/svg" xmlns:xlink="http://www.w3.org/1999/xlink" x="0px" y="0px"
	 viewBox="0 0 300 300" enable-background="new 0 0 300 300" xml:space="preserve">
<g id="example">
	<path fill="#FFFFFF" enable-background="new    " d="M250.5,49h-12h-1h-12h-1h-12h-1h-12h-1h-12h-1h-12h-1h-12h-1h-12h-1h-12h-1
		h-12h-1h-12h-1h-12h-1h-12h-1h-12h-1h-12h-1h-12h-1v1v12v1v12v1v12v1v12v1v12v1v12v1v12v1v12v1v12v1v12v1v12v1v12v1v12v1v12v1v12v1
		v12v1h1h12h1h12h1h12h1h12h1h12h1h12h1h12h1h12h1h12h1h12h1h12h1h12h1h12h1h12h1h12h1h12h1v-1v-12v-1v-12v-1v-12v-1v-12v-1v-12v-1
		v-12v-1v-12v-1v-12v-1v-12v-1v-12v-1v-12v-1v-12v-1V89v-1V76v-1V63v-1V50v-1H250.5z"/>
	<g transform="translate(0 29)">
		<g>
			<rect x="42.5" y="20" fill="#D7D7DB" width="209" height="1"/>
			<rect x="42.5" y="33" fill="#D7D7DB" width="209" height="1"/>
			<rect x="42.5" y="46" fill="#D7D7DB" width="209" height="1"/>
			<rect x="42.5" y="59" fill="#D7D7DB" width="209" height="1"/>
			<rect x="42.5" y="72" fill="#D7D7DB" width="209" height="1"/>
			<rect x="42.5" y="85" fill="#D7D7DB" width="209" height="1"/>
			<g>
				<rect x="42.5" y="98" fill="#D7D7DB" width="209" height="1"/>
			</g>
			<g>
				<rect x="42.5" y="111" fill="#D7D7DB" width="209" height="1"/>
			</g>
			<g>
				<rect x="42.5" y="124" fill="#D7D7DB" width="209" height="1"/>
			</g>
			<g>
				<rect x="42.5" y="137" fill="#D7D7DB" width="209" height="1"/>
			</g>
			<g>
				<rect x="42.5" y="150" fill="#D7D7DB" width="209" height="1"/>
			</g>
			<g>
				<rect x="42.5" y="163" fill="#D7D7DB" width="209" height="1"/>
			</g>
			<g>
				<rect x="42.5" y="176" fill="#D7D7DB" width="209" height="1"/>
			</g>
			<g>
				<rect x="42.5" y="189" fill="#D7D7DB" width="209" height="1"/>
			</g>
			<g>
				<rect x="42.5" y="202" fill="#D7D7DB" width="209" height="1"/>
			</g>
			<g>
				<rect x="42.5" y="215" fill="#D7D7DB" width="209" height="1"/>
			</g>
			<g>
				<rect x="42.5" y="228" fill="#D7D7DB" width="209" height="1"/>
			</g>
		</g>
		<g>
			<rect x="42.5" y="20" fill="#D7D7DB" width="1" height="209"/>
			<rect x="55.5" y="20" fill="#D7D7DB" width="1" height="209"/>
			<rect x="68.5" y="20" fill="#D7D7DB" width="1" height="209"/>
			<rect x="81.5" y="20" fill="#D7D7DB" width="1" height="209"/>
			<rect x="94.5" y="20" fill="#D7D7DB" width="1" height="209"/>
			<rect x="107.5" y="20" fill="#D7D7DB" width="1" height="209"/>
			<g>
				<rect x="120.5" y="20" fill="#D7D7DB" width="1" height="209"/>
			</g>
			<g>
				<rect x="133.5" y="20" fill="#D7D7DB" width="1" height="209"/>
			</g>
			<g>
				<rect x="146.5" y="20" fill="#D7D7DB" width="1" height="209"/>
			</g>
			<g>
				<rect x="159.5" y="20" fill="#D7D7DB" width="1" height="209"/>
			</g>
			<g>
				<rect x="172.5" y="20" fill="#D7D7DB" width="1" height="209"/>
			</g>
			<g>
				<rect x="185.5" y="20" fill="#D7D7DB" width="1" height="209"/>
			</g>
			<g>
				<rect x="198.5" y="20" fill="#D7D7DB" width="1" height="209"/>
			</g>
			<g>
				<rect x="211.5" y="20" fill="#D7D7DB" width="1" height="209"/>
			</g>
			<g>
				<rect x="224.5" y="20" fill="#D7D7DB" width="1" height="209"/>
			</g>
			<g>
				<rect x="237.5" y="20" fill="#D7D7DB" width="1" height="209"/>
			</g>
			<g>
				<rect x="250.5" y="20" fill="#D7D7DB" width="1" height="209"/>
			</g>
		</g>
		
			<rect x="49.5" y="27" opacity="0.1" fill="none" stroke="#000000" stroke-width="14" enable-background="new    " width="195" height="195"/>
	</g>
	<path fill="#FFFFFF" d="M108,62.5L108,62.5c7.2,0,13,5.8,13,13v156c0,7.2-5.8,13-13,13l0,0c-7.2,0-13-5.8-13-13v-156
		C95,68.3,100.8,62.5,108,62.5z"/>
	<path fill="#0C0C0D" fill-opacity="0.8" d="M108,62.5L108,62.5c7.2,0,13,5.8,13,13v156c0,7.2-5.8,13-13,13l0,0c-7.2,0-13-5.8-13-13
		v-156C95,68.3,100.8,62.5,108,62.5z"/>
	<path fill="#0C0C0D" fill-opacity="0.8" d="M179.5,62.5L179.5,62.5c3.6,0,6.5,2.9,6.5,6.5v169c0,3.6-2.9,6.5-6.5,6.5l0,0
		c-3.6,0-6.5-2.9-6.5-6.5V69C173,65.4,175.9,62.5,179.5,62.5z"/>
	<rect x="94.5" y="35" fill="#0A84FF" fill-opacity="0.25" width="27" height="209"/>
	<rect x="172.5" y="35" fill="#0A84FF" fill-opacity="0.25" width="14" height="209"/>
	<path fill="#0A84FF" fill-opacity="0.8" d="M156.6,275.5h-1.3v3.5h-1.1v-8.3h2.2c1,0,1.8,0.2,2.4,0.6c0.5,0.4,0.8,1,0.8,1.8
		c0,0.6-0.2,1-0.4,1.4c-0.3,0.4-0.7,0.6-1.3,0.8l2.2,3.7h-1.3L156.6,275.5L156.6,275.5z M156.4,274.6c0.6,0,1.1-0.1,1.4-0.4
		c0.3-0.2,0.5-0.6,0.5-1.2c0-0.5-0.2-0.9-0.5-1.1s-0.8-0.4-1.5-0.4h-1v3h1.1V274.6z M165.7,273.4c0.5,0.6,0.7,1.4,0.7,2.4
		c0,0.6-0.1,1.2-0.3,1.7s-0.6,0.9-1,1.2c-0.4,0.3-0.9,0.4-1.5,0.4c-0.9,0-1.6-0.3-2.1-0.9s-0.7-1.4-0.7-2.4c0-0.6,0.1-1.2,0.3-1.7
		c0.2-0.5,0.6-0.9,1-1.2c0.4-0.3,0.9-0.4,1.5-0.4C164.5,272.5,165.2,272.8,165.7,273.4z M161.9,275.8c0,1.6,0.6,2.4,1.6,2.4
		c1.1,0,1.6-0.8,1.6-2.4s-0.5-2.4-1.6-2.4C162.5,273.4,161.9,274.2,161.9,275.8L161.9,275.8z M172.9,279H172l-0.1-1
		c-0.2,0.4-0.5,0.7-0.8,0.9c-0.3,0.2-0.7,0.3-1.1,0.3c-0.6,0-1-0.2-1.3-0.5c-0.3-0.4-0.5-0.9-0.5-1.4v-4.5h1.1v4.4
		c0,0.4,0.1,0.7,0.2,0.9c0.2,0.2,0.4,0.3,0.8,0.3c0.6,0,1.1-0.4,1.6-1.1v-4.5h1.1v6.2H172.9z M179.5,273.1c0.3,0.3,0.5,0.8,0.5,1.4
		v4.5h-1.1v-4.4c0-0.4-0.1-0.8-0.3-0.9c-0.2-0.2-0.4-0.3-0.7-0.3s-0.6,0.1-0.9,0.3c-0.3,0.2-0.5,0.5-0.7,0.8v4.5h-1.1v-6.3h0.9
		l0.1,0.9c0.2-0.3,0.5-0.6,0.8-0.8s0.7-0.3,1.1-0.3C178.8,272.5,179.2,272.7,179.5,273.1L179.5,273.1z M187.1,270.1v8.9h-1l-0.1-0.9
		c-0.2,0.3-0.5,0.6-0.8,0.8s-0.7,0.3-1,0.3c-0.8,0-1.3-0.3-1.8-0.9c-0.5-0.7-0.7-1.6-0.6-2.4c0-0.6,0.1-1.2,0.3-1.7s0.5-0.9,0.9-1.2
		c0.9-0.7,2.3-0.5,3,0.3V270L187.1,270.1L187.1,270.1z M185.3,278c0.2-0.1,0.5-0.4,0.7-0.7v-3.1c-0.2-0.3-0.4-0.5-0.7-0.6
		c-0.2-0.1-0.5-0.2-0.8-0.2c-0.5,0-0.9,0.2-1.1,0.6c-0.3,0.4-0.4,1-0.4,1.8s0.1,1.4,0.4,1.8c0.2,0.4,0.6,0.6,1.1,0.6
		C184.8,278.3,185.1,278.2,185.3,278z M194.2,276.2h-4c0.1,0.7,0.2,1.2,0.5,1.5s0.7,0.5,1.2,0.5c0.3,0,0.6,0,0.8-0.1
		s0.5-0.2,0.8-0.4l0.5,0.7c-0.7,0.5-1.4,0.8-2.2,0.8c-0.9,0-1.6-0.3-2.1-0.9c-0.5-0.7-0.8-1.5-0.7-2.4c0-0.6,0.1-1.2,0.3-1.7
		s0.5-0.9,0.9-1.2s0.9-0.4,1.4-0.4c0.8,0,1.5,0.3,1.9,0.8c0.4,0.6,0.7,1.3,0.7,2.3L194.2,276.2L194.2,276.2z M193.1,275.3
		c0-0.6-0.1-1.1-0.4-1.4c-0.2-0.3-0.6-0.5-1.1-0.5c-0.9,0-1.4,0.7-1.5,2L193.1,275.3L193.1,275.3L193.1,275.3z M200.9,270.1v8.9h-1
		l-0.1-0.9c-0.2,0.3-0.5,0.6-0.8,0.8s-0.7,0.3-1.1,0.3c-0.8,0-1.3-0.3-1.8-0.9c-0.5-0.7-0.7-1.6-0.6-2.4c0-0.6,0.1-1.2,0.3-1.7
		s0.5-0.9,0.9-1.2c0.9-0.7,2.3-0.5,3,0.3V270L200.9,270.1L200.9,270.1z M199.1,278c0.2-0.1,0.5-0.4,0.7-0.7v-3.1
		c-0.2-0.3-0.4-0.5-0.7-0.6c-0.2-0.1-0.5-0.2-0.8-0.2c-0.5,0-0.9,0.2-1.1,0.6c-0.3,0.4-0.4,1-0.4,1.8s0.1,1.4,0.4,1.8
		c0.2,0.4,0.6,0.6,1.1,0.6C198.6,278.3,198.9,278.2,199.1,278L199.1,278z M88.6,275.5h-1.3v3.5h-1.1v-8.3h2.2c1,0,1.8,0.2,2.3,0.6
		c0.5,0.4,0.8,1,0.8,1.8c0,0.6-0.2,1-0.5,1.4s-0.7,0.6-1.3,0.8l2.2,3.7h-1.4L88.6,275.5L88.6,275.5z M88.4,274.6
		c0.6,0,1.1-0.1,1.4-0.4c0.3-0.2,0.5-0.6,0.5-1.2c0-0.5-0.2-0.9-0.5-1.1s-0.8-0.4-1.5-0.4h-1v3h1.1V274.6z M97.7,273.4
		c0.5,0.6,0.7,1.4,0.7,2.4c0,0.6-0.1,1.2-0.3,1.7c-0.2,0.5-0.6,0.9-1,1.2c-0.4,0.3-0.9,0.4-1.5,0.4c-0.9,0-1.6-0.3-2.1-0.9
		s-0.7-1.4-0.7-2.4c0-0.6,0.1-1.2,0.3-1.7c0.2-0.5,0.5-0.9,1-1.2c0.4-0.3,0.9-0.4,1.5-0.4C96.5,272.5,97.2,272.8,97.7,273.4
		L97.7,273.4z M94,275.8c0,1.6,0.5,2.4,1.6,2.4s1.6-0.8,1.6-2.4s-0.5-2.4-1.6-2.4C94.5,273.4,94,274.2,94,275.8L94,275.8z
		 M104.9,279H104l-0.1-1c-0.2,0.4-0.5,0.7-0.8,0.9c-0.3,0.2-0.7,0.3-1.1,0.3c-0.5,0-1-0.2-1.3-0.5c-0.3-0.4-0.5-0.9-0.5-1.4v-4.5
		h1.1v4.4c0,0.4,0.1,0.7,0.2,0.9c0.2,0.2,0.4,0.3,0.8,0.3c0.6,0,1.1-0.4,1.6-1.1v-4.5h1.1L104.9,279L104.9,279z M111.6,273.1
		c0.3,0.3,0.5,0.8,0.5,1.4v4.5H111v-4.4c0-0.4-0.1-0.8-0.3-0.9c-0.2-0.2-0.4-0.3-0.7-0.3c-0.3,0-0.6,0.1-0.9,0.3s-0.5,0.5-0.7,0.8
		v4.5h-1.1v-6.3h0.9l0.1,0.9c0.2-0.3,0.5-0.6,0.8-0.8s0.7-0.3,1.1-0.3C110.8,272.5,111.2,272.7,111.6,273.1L111.6,273.1z
		 M119.2,270.1v8.9h-1l-0.1-0.9c-0.2,0.3-0.5,0.6-0.8,0.8s-0.7,0.3-1,0.3c-0.8,0-1.3-0.3-1.8-0.9c-0.5-0.7-0.7-1.6-0.6-2.4
		c0-0.6,0.1-1.2,0.3-1.7c0.2-0.5,0.5-0.9,0.9-1.2c0.9-0.7,2.3-0.5,3,0.3V270L119.2,270.1L119.2,270.1z M117.3,278
		c0.2-0.1,0.5-0.4,0.7-0.7v-3.1c-0.2-0.3-0.4-0.5-0.7-0.6c-0.2-0.1-0.5-0.2-0.8-0.2c-0.5,0-0.9,0.2-1.1,0.6c-0.3,0.4-0.4,1-0.4,1.8
		s0.1,1.4,0.4,1.8c0.2,0.4,0.6,0.6,1.1,0.6C116.8,278.3,117.1,278.2,117.3,278z M126.2,276.2h-4c0,0.7,0.2,1.2,0.5,1.5
		s0.7,0.5,1.2,0.5c0.3,0,0.6,0,0.8-0.1c0.2-0.1,0.5-0.2,0.8-0.4l0.5,0.7c-0.7,0.5-1.4,0.8-2.2,0.8c-0.9,0-1.6-0.3-2.1-0.9
		c-0.5-0.7-0.8-1.5-0.7-2.4c0-0.6,0.1-1.2,0.3-1.7c0.2-0.5,0.5-0.9,0.9-1.2s0.9-0.4,1.4-0.4c0.8,0,1.5,0.3,1.9,0.8
		c0.4,0.6,0.7,1.3,0.7,2.3L126.2,276.2L126.2,276.2z M125.1,275.3c0-0.6-0.1-1.1-0.4-1.4c-0.2-0.3-0.6-0.5-1.1-0.5
		c-0.9,0-1.4,0.7-1.5,2L125.1,275.3L125.1,275.3L125.1,275.3z M132.9,270.1v8.9h-1l-0.1-0.9c-0.2,0.3-0.5,0.6-0.8,0.8
		s-0.7,0.3-1.1,0.3c-0.8,0-1.3-0.3-1.8-0.9c-0.5-0.7-0.7-1.6-0.6-2.4c0-0.6,0.1-1.2,0.3-1.7c0.2-0.5,0.5-0.9,0.9-1.2
		c0.9-0.7,2.3-0.5,3,0.3V270L132.9,270.1L132.9,270.1z M131.1,278c0.2-0.1,0.5-0.4,0.7-0.7v-3.1c-0.2-0.3-0.4-0.5-0.7-0.6
		c-0.2-0.1-0.5-0.2-0.8-0.2c-0.5,0-0.9,0.2-1.1,0.6c-0.3,0.4-0.4,1-0.4,1.8s0.1,1.4,0.4,1.8c0.2,0.4,0.6,0.6,1.1,0.6
		C130.6,278.3,130.9,278.2,131.1,278L131.1,278z"/>
	<path fill="none" stroke="#0A84FF" stroke-width="2" d="M120,232.5c-5.8,0.1-11.6,0.1-17.4,0c-2.6,0-4.6,0-6.5,0
		c0.5,6.2,5.7,11,12,11C114.2,243.5,119.4,238.7,120,232.5L120,232.5z M184.9,239c-2.7,0-5.4,0-8.1,0h-2.7c0.5,2.6,2.8,4.5,5.4,4.5
		S184.4,241.6,184.9,239L184.9,239z"/>
	<path fill="none" stroke="#0A84FF" stroke-opacity="0.8" d="M179.5,241v25 M108,238v28"/>
	<path fill="#0A84FF" fill-opacity="0.8" d="M102.7,21.1c0.7,0.4,1.1,1.1,1.1,1.9c0,0.5-0.1,1-0.3,1.4c-0.2,0.5-0.6,0.9-1,1.5
		s-1.1,1.2-2.1,2.2h3.6l-0.1,0.9h-4.7v-0.9c0.8-0.8,1.5-1.6,2.3-2.4c0.5-0.5,0.8-1,1-1.3c0.2-0.4,0.3-0.8,0.3-1.2s-0.1-0.8-0.4-1
		c-0.3-0.2-0.6-0.4-1-0.4c-0.3,0-0.6,0.1-0.9,0.2c-0.2,0.1-0.5,0.4-0.8,0.7L99,22.1c0.5-0.8,1.5-1.3,2.4-1.2
		C101.9,20.9,102.3,20.9,102.7,21.1L102.7,21.1z M110.4,23.4c0.4,0.6,0.6,1.4,0.6,2.4s-0.2,1.8-0.7,2.4c-0.4,0.6-1,0.9-1.8,0.9
		c-0.7,0-1.3-0.2-1.7-0.7v3l-1.1,0.1v-8.8h0.9l0.1,0.8c0.2-0.3,0.5-0.6,0.8-0.7c0.3-0.2,0.7-0.3,1-0.3
		C109.5,22.5,110.1,22.8,110.4,23.4L110.4,23.4z M109.8,25.8c0-1.6-0.5-2.4-1.4-2.4c-0.3,0-0.6,0.1-0.8,0.3
		c-0.2,0.2-0.5,0.4-0.7,0.7v3.1c0.3,0.5,0.8,0.8,1.4,0.8C109.3,28.2,109.8,27.4,109.8,25.8z M117.3,29H116l-1.6-2.7l-1.6,2.7h-1.2
		l2.2-3.3l-1.9-3h1.3l1.2,2.3l1.3-2.3h1.2l-1.9,2.9L117.3,29L117.3,29z"/>
	<path fill="#0A84FF" fill-opacity="0.8" d="M172.4,29h-1.1v-6.8l-1.9,1.1l-0.5-0.8l2.5-1.5h1V29z M179.6,23.4
		c0.4,0.6,0.6,1.4,0.6,2.4s-0.2,1.8-0.7,2.4c-0.4,0.6-1,0.9-1.8,0.9c-0.7,0-1.2-0.2-1.6-0.7v3l-1.1,0.1v-8.8h0.9l0.1,0.8
		c0.2-0.3,0.5-0.6,0.8-0.7c0.3-0.2,0.7-0.3,1-0.3C178.6,22.5,179.2,22.8,179.6,23.4L179.6,23.4z M178.9,25.8c0-1.6-0.5-2.4-1.4-2.4
		c-0.3,0-0.6,0.1-0.8,0.3c-0.3,0.2-0.5,0.4-0.7,0.7v3.1c0.3,0.5,0.8,0.8,1.4,0.8C178.4,28.2,178.9,27.4,178.9,25.8L178.9,25.8z
		 M186.4,29h-1.3l-1.6-2.7l-1.6,2.7h-1.2l2.2-3.3l-2-3h1.3l1.3,2.3l1.3-2.3h1.2l-1.9,2.9L186.4,29L186.4,29z"/>
</g>
<g id="Layer_2">
</g>
</svg>
