<?xml version="1.0" encoding="utf-8"?>
<!-- Generator: Adobe Illustrator 21.1.0, SVG Export Plug-In . SVG Version: 6.00 Build 0)  -->
<svg version="1.1" id="Layer_1" xmlns="http://www.w3.org/2000/svg" xmlns:xlink="http://www.w3.org/1999/xlink" x="0px" y="0px"
	 viewBox="0 0 300 300" style="enable-background:new 0 0 300 300;" xml:space="preserve">
<style type="text/css">
	.st0{filter:url(#Adobe_OpacityMaskFilter);}
	.st1{fill:#FFFFFF;}
	.st2{mask:url(#b);}
	.st3{filter:url(#Adobe_OpacityMaskFilter_1_);}
	.st4{mask:url(#d);fill:#D7D7DB;}
	.st5{filter:url(#Adobe_OpacityMaskFilter_2_);}
	.st6{mask:url(#f);fill:#D7D7DB;}
	.st7{opacity:0.1;fill:none;stroke:#000000;stroke-width:14;enable-background:new    ;}
	.st8{fill-opacity:0.8;}
	.st9{fill:#0C0C0D;fill-opacity:0.8;}
	.st10{fill:#0A84FF;fill-opacity:0.25;}
	.st11{enable-background:new    ;}
	.st12{fill:#0A84FF;}
</style>
<g>
	<g transform="translate(46 46)">
		<defs>
			<filter id="Adobe_OpacityMaskFilter" filterUnits="userSpaceOnUse" x="0" y="0" width="209" height="209">
				<feColorMatrix  type="matrix" values="1 0 0 0 0  0 1 0 0 0  0 0 1 0 0  0 0 0 1 0"/>
			</filter>
		</defs>
		<mask maskUnits="userSpaceOnUse" x="0" y="0" width="209" height="209" id="b">
			<g class="st0">
				<path id="a" class="st1" d="M0,0h209v209H0V0z"/>
			</g>
		</mask>
		<g class="st2">
			<defs>
				<filter id="Adobe_OpacityMaskFilter_1_" filterUnits="userSpaceOnUse" x="0" y="0" width="209" height="209">
					<feColorMatrix  type="matrix" values="1 0 0 0 0  0 1 0 0 0  0 0 1 0 0  0 0 0 1 0"/>
				</filter>
			</defs>
			<mask maskUnits="userSpaceOnUse" x="0" y="0" width="209" height="209" id="d">
				<g class="st3">
					<path id="c" class="st1" d="M0,0h209v208.8H0V0z"/>
				</g>
			</mask>
			<path class="st4" d="M0,0h209v1H0V0z M0,13h209v1H0V13z M0,26h209v1H0V26z M0,39h209v1H0V39z M0,52h209v1H0V52z M0,65h209v1H0V65
				z M0,78h209v1H0V78z M0,91h209v1H0V91z M0,104h209v1H0V104z M0,117h209v1H0V117z M0,130h209v1H0V130z M0,143h209v1H0V143z M0,156
				h209v1H0V156z M0,169h209v1H0V169z M0,182h209v1H0V182z M0,195h209v1H0V195z M0,208h209v1H0V208z"/>
		</g>
		<defs>
			<filter id="Adobe_OpacityMaskFilter_2_" filterUnits="userSpaceOnUse" x="0" y="0" width="209" height="209">
				<feColorMatrix  type="matrix" values="1 0 0 0 0  0 1 0 0 0  0 0 1 0 0  0 0 0 1 0"/>
			</filter>
		</defs>
		<mask maskUnits="userSpaceOnUse" x="0" y="0" width="209" height="209" id="f">
			<g class="st5">
				<path id="e" class="st1" d="M0,0h209v209H0V0z"/>
			</g>
		</mask>
		<path class="st6" d="M0,0h1v209H0V0z M13,0h1v209h-1V0z M26,0h1v209h-1V0z M39,0h1v209h-1V0z M52,0h1v209h-1V0z M65,0h1v209h-1V0z
			 M78,0h1v209h-1V0z M91,0h1v209h-1V0z M104,0h1v209h-1V0z M117,0h1v209h-1V0z M130,0h1v209h-1V0z M143,0h1v209h-1V0z M156,0h1v209
			h-1V0z M169,0h1v209h-1V0z M182,0h1v209h-1V0z M195,0h1v209h-1V0z M208,0h1v209h-1V0z"/>
		<path class="st7" d="M7,7h195v195H7V7z"/>
	</g>
	<g transform="translate(46 46)">
		<g>
			<path id="g" class="st1" d="M104.5,26.5c-43,0-78,35-78,78s35,78,78,78s78-35,78-78S147.5,26.5,104.5,26.5 M104.5,208.5
				c-57.3,0-104-46.7-104-104s46.7-104,104-104s104,46.7,104,104S161.8,208.5,104.5,208.5"/>
		</g>
		<g>
			<path id="g_1_" class="st8" d="M104.5,26.5c-43,0-78,35-78,78s35,78,78,78s78-35,78-78S147.5,26.5,104.5,26.5 M104.5,208.5
				c-57.3,0-104-46.7-104-104s46.7-104,104-104s104,46.7,104,104S161.8,208.5,104.5,208.5"/>
		</g>
		<g>
			<path id="h" class="st1" d="M104.9,59c0-3.8-3.1-6.9-6.9-6.9c-3.8,0-6.9,3.1-6.9,6.9v52c0,3.8,3.1,6.9,6.9,6.9h52
				c3.8,0,6.9-3.1,6.9-6.9c0-3.8-3.1-6.9-6.9-6.9h-45.1C104.9,104.1,104.9,59,104.9,59z"/>
		</g>
		<g>
			<path id="h_1_" class="st9" d="M104.9,59c0-3.8-3.1-6.9-6.9-6.9c-3.8,0-6.9,3.1-6.9,6.9v52c0,3.8,3.1,6.9,6.9,6.9h52
				c3.8,0,6.9-3.1,6.9-6.9c0-3.8-3.1-6.9-6.9-6.9h-45.1C104.9,104.1,104.9,59,104.9,59z"/>
		</g>
	</g>
	<g>
		<path id="i" class="st10" d="M46,32h27v118H46V32z"/>
	</g>
	<g>
		<path id="k" class="st10" d="M137,32h14v118h-14V32z"/>
	</g>
	<g class="st11">
		<path class="st12" d="M55.4,20.4c0,1.3-0.8,2.4-3.3,4.6h3.4l-0.1,1h-4.7v-0.9c2.7-2.6,3.4-3.5,3.4-4.6c0-0.8-0.5-1.2-1.2-1.2
			c-0.7,0-1.1,0.2-1.5,0.8l-0.8-0.6c0.6-0.7,1.3-1.2,2.4-1.2C54.5,18.3,55.4,19.2,55.4,20.4z"/>
		<path class="st12" d="M62.5,23.1c0,1.8-0.8,3.1-2.2,3.1c-0.6,0-1.1-0.2-1.5-0.6v2.7l-1.2,0.1v-8.2h1.1l0.1,0.7
			c0.4-0.6,1-0.9,1.7-0.9C61.9,20,62.5,21.2,62.5,23.1z M58.8,21.8v2.7c0.3,0.4,0.7,0.6,1.1,0.6c0.8,0,1.3-0.6,1.3-2.1
			c0-1.5-0.4-2.1-1.2-2.1C59.5,21,59.1,21.4,58.8,21.8z"/>
		<path class="st12" d="M63.7,26l2.1-3.1l-1.9-2.8h1.4l1.2,2l1.2-2h1.4l-1.8,2.7l2.1,3.1h-1.4l-1.4-2.4L65,26H63.7z"/>
	</g>
	<g class="st11">
		<path class="st12" d="M139.8,25v1h-4.6v-1h1.8v-5.4l-1.7,1l-0.5-0.9l2.3-1.4h1.1V25H139.8z"/>
		<path class="st12" d="M146.5,23.1c0,1.8-0.8,3.1-2.2,3.1c-0.6,0-1.1-0.2-1.5-0.6v2.7l-1.2,0.1v-8.2h1.1l0.1,0.7
			c0.4-0.6,1-0.9,1.7-0.9C145.9,20,146.5,21.2,146.5,23.1z M142.8,21.8v2.7c0.3,0.4,0.7,0.6,1.1,0.6c0.8,0,1.3-0.6,1.3-2.1
			c0-1.5-0.4-2.1-1.2-2.1C143.5,21,143.1,21.4,142.8,21.8z"/>
		<path class="st12" d="M147.7,26l2.1-3.1l-1.9-2.8h1.4l1.2,2l1.2-2h1.4l-1.8,2.7l2.1,3.1h-1.4l-1.4-2.4L149,26H147.7z"/>
	</g>
</g>
</svg>
