<svg xmlns="http://www.w3.org/2000/svg" xmlns:xlink="http://www.w3.org/1999/xlink" width="300" height="300" viewBox="0 0 300 300">
  <defs>
    <polygon id="stroke2-a" points="0 0 209 0 209 209 0 209"/>
    <polygon id="stroke2-c" points="0 0 209 0 209 208.791 0 208.791"/>
    <polygon id="stroke2-e" points="0 0 209 0 209 209 0 209"/>
    <path id="stroke2-g" d="M52.478709,26.4756347 C45.3019469,26.4756347 39.4840318,32.2904786 39.4840318,39.4634521 L39.4840318,169.341626 C39.4840318,176.514599 45.3019469,182.329443 52.478709,182.329443 C59.6554711,182.329443 65.4733863,176.514599 65.4733863,169.341626 L65.4733863,39.4634521 C65.4733863,32.2904786 59.6554711,26.4756347 52.478709,26.4756347 Z M91.4627408,13.4878174 C84.2859787,13.4878174 78.4680635,19.3026613 78.4680635,26.4756347 L78.4680635,169.341626 C78.4680635,176.514599 84.2859787,182.329443 91.4627408,182.329443 C98.6395029,182.329443 104.457418,176.514599 104.457418,169.341626 L104.457418,26.4756347 C104.457418,19.3026613 98.6395029,13.4878174 91.4627408,13.4878174 Z M194.627484,164.899792 L142.648774,22.0338012 C141.126142,17.586874 137.318485,14.3091325 132.69266,13.4632897 C128.066834,12.6174469 123.344719,14.3355 120.345456,17.9555882 C117.346193,21.5756764 116.537828,26.532871 118.231776,30.9174683 L170.210485,173.783459 C171.733117,178.230386 175.540775,181.508128 180.1666,182.353971 C184.792425,183.199814 189.51454,181.481761 192.513803,177.861672 C195.513067,174.241584 196.321431,169.28439 194.627484,164.899792 L194.627484,164.899792 Z M13.4946773,0.5 C6.31791518,0.5 0.5,6.3148439 0.5,13.4878174 L0.5,169.341626 C0.5,176.514599 6.31791518,182.329443 13.4946773,182.329443 C20.6714393,182.329443 26.4893545,176.514599 26.4893545,169.341626 L26.4893545,13.4878174 C26.4893545,6.3148439 20.6714393,0.5 13.4946773,0.5 Z"/>
    <rect id="stroke2-h" width="27" height="209" x="98" y="32"/>
    <filter id="stroke2-i" width="103.7%" height="100.5%" x="-1.9%" y="-.2%" filterUnits="objectBoundingBox">
      <feOffset dx="1" in="SourceAlpha" result="shadowOffsetInner1"/>
      <feComposite in="shadowOffsetInner1" in2="SourceAlpha" k2="-1" k3="1" operator="arithmetic" result="shadowInnerInner1"/>
      <feColorMatrix in="shadowInnerInner1" result="shadowMatrixInner1" values="0 0 0 0 0.0392156863   0 0 0 0 0.517647059   0 0 0 0 1  0 0 0 1 0"/>
      <feOffset dx="-1" in="SourceAlpha" result="shadowOffsetInner2"/>
      <feComposite in="shadowOffsetInner2" in2="SourceAlpha" k2="-1" k3="1" operator="arithmetic" result="shadowInnerInner2"/>
      <feColorMatrix in="shadowInnerInner2" result="shadowMatrixInner2" values="0 0 0 0 0.0392156863   0 0 0 0 0.517647059   0 0 0 0 1  0 0 0 1 0"/>
      <feMerge>
        <feMergeNode in="shadowMatrixInner1"/>
        <feMergeNode in="shadowMatrixInner2"/>
      </feMerge>
    </filter>
  </defs>
  <g fill="none" fill-rule="evenodd">
    <g transform="translate(46 46)">
      <mask id="stroke2-b" fill="#fff">
        <use xlink:href="#stroke2-a"/>
      </mask>
      <g mask="url(#stroke2-b)">
        <mask id="stroke2-d" fill="#fff">
          <use xlink:href="#stroke2-c"/>
        </mask>
        <rect width="209" height="1" fill="#D7D7DB" mask="url(#stroke2-d)"/>
        <rect width="209" height="1" y="13" fill="#D7D7DB" mask="url(#stroke2-d)"/>
        <rect width="209" height="1" y="26" fill="#D7D7DB" mask="url(#stroke2-d)"/>
        <rect width="209" height="1" y="39" fill="#D7D7DB" mask="url(#stroke2-d)"/>
        <rect width="209" height="1" y="52" fill="#D7D7DB" mask="url(#stroke2-d)"/>
        <rect width="209" height="1" y="65" fill="#D7D7DB" mask="url(#stroke2-d)"/>
        <rect width="209" height="1" y="78" fill="#D7D7DB" mask="url(#stroke2-d)"/>
        <rect width="209" height="1" y="91" fill="#D7D7DB" mask="url(#stroke2-d)"/>
        <rect width="209" height="1" y="104" fill="#D7D7DB" mask="url(#stroke2-d)"/>
        <rect width="209" height="1" y="117" fill="#D7D7DB" mask="url(#stroke2-d)"/>
        <rect width="209" height="1" y="130" fill="#D7D7DB" mask="url(#stroke2-d)"/>
        <rect width="209" height="1" y="143" fill="#D7D7DB" mask="url(#stroke2-d)"/>
        <rect width="209" height="1" y="156" fill="#D7D7DB" mask="url(#stroke2-d)"/>
        <rect width="209" height="1" y="169" fill="#D7D7DB" mask="url(#stroke2-d)"/>
        <rect width="209" height="1" y="182" fill="#D7D7DB" mask="url(#stroke2-d)"/>
        <rect width="209" height="1" y="195" fill="#D7D7DB" mask="url(#stroke2-d)"/>
        <rect width="209" height="1" y="208" fill="#D7D7DB" mask="url(#stroke2-d)"/>
      </g>
      <g>
        <mask id="stroke2-f" fill="#fff">
          <use xlink:href="#stroke2-e"/>
        </mask>
        <rect width="1" height="209" fill="#D7D7DB" mask="url(#stroke2-f)"/>
        <rect width="1" height="209" x="13" fill="#D7D7DB" mask="url(#stroke2-f)"/>
        <rect width="1" height="209" x="26" fill="#D7D7DB" mask="url(#stroke2-f)"/>
        <rect width="1" height="209" x="39" fill="#D7D7DB" mask="url(#stroke2-f)"/>
        <rect width="1" height="209" x="52" fill="#D7D7DB" mask="url(#stroke2-f)"/>
        <rect width="1" height="209" x="65" fill="#D7D7DB" mask="url(#stroke2-f)"/>
        <rect width="1" height="209" x="78" fill="#D7D7DB" mask="url(#stroke2-f)"/>
        <rect width="1" height="209" x="91" fill="#D7D7DB" mask="url(#stroke2-f)"/>
        <rect width="1" height="209" x="104" fill="#D7D7DB" mask="url(#stroke2-f)"/>
        <rect width="1" height="209" x="117" fill="#D7D7DB" mask="url(#stroke2-f)"/>
        <rect width="1" height="209" x="130" fill="#D7D7DB" mask="url(#stroke2-f)"/>
        <rect width="1" height="209" x="143" fill="#D7D7DB" mask="url(#stroke2-f)"/>
        <rect width="1" height="209" x="156" fill="#D7D7DB" mask="url(#stroke2-f)"/>
        <rect width="1" height="209" x="169" fill="#D7D7DB" mask="url(#stroke2-f)"/>
        <rect width="1" height="209" x="182" fill="#D7D7DB" mask="url(#stroke2-f)"/>
        <rect width="1" height="209" x="195" fill="#D7D7DB" mask="url(#stroke2-f)"/>
        <rect width="1" height="209" x="208" fill="#D7D7DB" mask="url(#stroke2-f)"/>
      </g>
      <rect width="195" height="195" x="7" y="7" stroke="#000" stroke-width="14" opacity=".1"/>
    </g>
    <g fill-rule="nonzero" transform="translate(59 59)">
      <use fill="#FFF" fill-rule="evenodd" xlink:href="#stroke2-g"/>
      <use fill="#000" fill-opacity=".8" fill-rule="evenodd" xlink:href="#stroke2-g"/>
    </g>
    <use fill="#0A84FF" fill-opacity=".25" xlink:href="#stroke2-h"/>
    <use fill="#000" filter="url(#stroke2-i)" xlink:href="#stroke2-h"/>
    <text fill="#0A84FF" font-family="FiraMono-Medium, Fira Mono" font-size="11" font-weight="400">
      <tspan x="102" y="26">2px</tspan>
    </text>
  </g>
</svg>
