<svg xmlns="http://www.w3.org/2000/svg" xmlns:xlink="http://www.w3.org/1999/xlink" width="300" height="300" viewBox="0 0 300 300">
  <defs>
    <polygon id="stroke1-a" points="0 0 209 0 209 209 0 209"/>
    <polygon id="stroke1-c" points="0 0 209 0 209 208.791 0 208.791"/>
    <polygon id="stroke1-e" points="0 0 209 0 209 209 0 209"/>
    <rect id="stroke1-g" width="26" height="182" x="98.5" y="59.5" rx="13"/>
    <rect id="stroke1-h" width="13" height="182" x="176.5" y="59.5" rx="6.5"/>
    <rect id="stroke1-i" width="27" height="209" x="98" y="32"/>
    <filter id="stroke1-j" width="103.7%" height="100.5%" x="-1.9%" y="-.2%" filterUnits="objectBoundingBox">
      <feOffset dx="1" in="SourceAlpha" result="shadowOffsetInner1"/>
      <feComposite in="shadowOffsetInner1" in2="SourceAlpha" k2="-1" k3="1" operator="arithmetic" result="shadowInnerInner1"/>
      <feColorMatrix in="shadowInnerInner1" result="shadowMatrixInner1" values="0 0 0 0 0.0392156863   0 0 0 0 0.517647059   0 0 0 0 1  0 0 0 1 0"/>
      <feOffset dx="-1" in="SourceAlpha" result="shadowOffsetInner2"/>
      <feComposite in="shadowOffsetInner2" in2="SourceAlpha" k2="-1" k3="1" operator="arithmetic" result="shadowInnerInner2"/>
      <feColorMatrix in="shadowInnerInner2" result="shadowMatrixInner2" values="0 0 0 0 0.0392156863   0 0 0 0 0.517647059   0 0 0 0 1  0 0 0 1 0"/>
      <feMerge>
        <feMergeNode in="shadowMatrixInner1"/>
        <feMergeNode in="shadowMatrixInner2"/>
      </feMerge>
    </filter>
    <rect id="stroke1-k" width="14" height="209" x="176" y="32"/>
    <filter id="stroke1-l" width="107.1%" height="100.5%" x="-3.6%" y="-.2%" filterUnits="objectBoundingBox">
      <feOffset dx="1" in="SourceAlpha" result="shadowOffsetInner1"/>
      <feComposite in="shadowOffsetInner1" in2="SourceAlpha" k2="-1" k3="1" operator="arithmetic" result="shadowInnerInner1"/>
      <feColorMatrix in="shadowInnerInner1" result="shadowMatrixInner1" values="0 0 0 0 0.0392156863   0 0 0 0 0.517647059   0 0 0 0 1  0 0 0 1 0"/>
      <feOffset dx="-1" in="SourceAlpha" result="shadowOffsetInner2"/>
      <feComposite in="shadowOffsetInner2" in2="SourceAlpha" k2="-1" k3="1" operator="arithmetic" result="shadowInnerInner2"/>
      <feColorMatrix in="shadowInnerInner2" result="shadowMatrixInner2" values="0 0 0 0 0.0392156863   0 0 0 0 0.517647059   0 0 0 0 1  0 0 0 1 0"/>
      <feMerge>
        <feMergeNode in="shadowMatrixInner1"/>
        <feMergeNode in="shadowMatrixInner2"/>
      </feMerge>
    </filter>
  </defs>
  <g fill="none" fill-rule="evenodd">
    <g transform="translate(46 46)">
      <mask id="stroke1-b" fill="#fff">
        <use xlink:href="#stroke1-a"/>
      </mask>
      <g mask="url(#stroke1-b)">
        <mask id="stroke1-d" fill="#fff">
          <use xlink:href="#stroke1-c"/>
        </mask>
        <rect width="209" height="1" fill="#D7D7DB" mask="url(#stroke1-d)"/>
        <rect width="209" height="1" y="13" fill="#D7D7DB" mask="url(#stroke1-d)"/>
        <rect width="209" height="1" y="26" fill="#D7D7DB" mask="url(#stroke1-d)"/>
        <rect width="209" height="1" y="39" fill="#D7D7DB" mask="url(#stroke1-d)"/>
        <rect width="209" height="1" y="52" fill="#D7D7DB" mask="url(#stroke1-d)"/>
        <rect width="209" height="1" y="65" fill="#D7D7DB" mask="url(#stroke1-d)"/>
        <rect width="209" height="1" y="78" fill="#D7D7DB" mask="url(#stroke1-d)"/>
        <rect width="209" height="1" y="91" fill="#D7D7DB" mask="url(#stroke1-d)"/>
        <rect width="209" height="1" y="104" fill="#D7D7DB" mask="url(#stroke1-d)"/>
        <rect width="209" height="1" y="117" fill="#D7D7DB" mask="url(#stroke1-d)"/>
        <rect width="209" height="1" y="130" fill="#D7D7DB" mask="url(#stroke1-d)"/>
        <rect width="209" height="1" y="143" fill="#D7D7DB" mask="url(#stroke1-d)"/>
        <rect width="209" height="1" y="156" fill="#D7D7DB" mask="url(#stroke1-d)"/>
        <rect width="209" height="1" y="169" fill="#D7D7DB" mask="url(#stroke1-d)"/>
        <rect width="209" height="1" y="182" fill="#D7D7DB" mask="url(#stroke1-d)"/>
        <rect width="209" height="1" y="195" fill="#D7D7DB" mask="url(#stroke1-d)"/>
        <rect width="209" height="1" y="208" fill="#D7D7DB" mask="url(#stroke1-d)"/>
      </g>
      <g>
        <mask id="stroke1-f" fill="#fff">
          <use xlink:href="#stroke1-e"/>
        </mask>
        <rect width="1" height="209" fill="#D7D7DB" mask="url(#stroke1-f)"/>
        <rect width="1" height="209" x="13" fill="#D7D7DB" mask="url(#stroke1-f)"/>
        <rect width="1" height="209" x="26" fill="#D7D7DB" mask="url(#stroke1-f)"/>
        <rect width="1" height="209" x="39" fill="#D7D7DB" mask="url(#stroke1-f)"/>
        <rect width="1" height="209" x="52" fill="#D7D7DB" mask="url(#stroke1-f)"/>
        <rect width="1" height="209" x="65" fill="#D7D7DB" mask="url(#stroke1-f)"/>
        <rect width="1" height="209" x="78" fill="#D7D7DB" mask="url(#stroke1-f)"/>
        <rect width="1" height="209" x="91" fill="#D7D7DB" mask="url(#stroke1-f)"/>
        <rect width="1" height="209" x="104" fill="#D7D7DB" mask="url(#stroke1-f)"/>
        <rect width="1" height="209" x="117" fill="#D7D7DB" mask="url(#stroke1-f)"/>
        <rect width="1" height="209" x="130" fill="#D7D7DB" mask="url(#stroke1-f)"/>
        <rect width="1" height="209" x="143" fill="#D7D7DB" mask="url(#stroke1-f)"/>
        <rect width="1" height="209" x="156" fill="#D7D7DB" mask="url(#stroke1-f)"/>
        <rect width="1" height="209" x="169" fill="#D7D7DB" mask="url(#stroke1-f)"/>
        <rect width="1" height="209" x="182" fill="#D7D7DB" mask="url(#stroke1-f)"/>
        <rect width="1" height="209" x="195" fill="#D7D7DB" mask="url(#stroke1-f)"/>
        <rect width="1" height="209" x="208" fill="#D7D7DB" mask="url(#stroke1-f)"/>
      </g>
      <rect width="195" height="195" x="7" y="7" stroke="#000" stroke-width="14" opacity=".1"/>
    </g>
    <use fill="#FFF" xlink:href="#stroke1-g"/>
    <use fill="#0C0C0D" fill-opacity=".8" xlink:href="#stroke1-g"/>
    <use fill="#FFF" xlink:href="#stroke1-h"/>
    <use fill="#0C0C0D" fill-opacity=".8" xlink:href="#stroke1-h"/>
    <path stroke="#0A84FF" stroke-width="2" d="M123.457962 229.515664C118.484624 229.56804 114.808958 229.565052 108.107688 229.527328 106.948644 229.520803 106.623495 229.519 106.070836 229.516116 103.476896 229.502582 101.505482 229.497256 99.5408346 229.501137 100.047602 235.662051 105.208347 240.504043 111.5 240.504043 117.786707 240.504043 122.944284 235.669661 123.457962 229.515664zM188.407193 236.013487C186.19521 236.033684 184.390215 236.031046 181.301029 236.013656 180.790709 236.010777 180.559043 236.009493 180.282809 236.008051 179.236319 236.002591 178.392829 235.999806 177.590309 235.999956 178.059738 238.561096 180.303205 240.502021 183 240.502021 185.692043 240.502021 187.932355 238.567929 188.407193 236.013487z"/>
    <text fill="#FFF" font-family="FiraSans-Regular, Fira Sans" font-size="12">
      <tspan x="253.37" y="265">R</tspan>
    </text>
    <path stroke="#0A84FF" stroke-opacity=".8" d="M183 238L183 263M111.5 235L111.5 263.011071"/>
    <use fill="#0A84FF" fill-opacity=".25" xlink:href="#stroke1-i"/>
    <use fill="#000" filter="url(#stroke1-j)" xlink:href="#stroke1-i"/>
    <use fill="#0A84FF" fill-opacity=".25" xlink:href="#stroke1-k"/>
    <use fill="#000" filter="url(#stroke1-l)" xlink:href="#stroke1-k"/>
    <text fill="#0A84FF" font-family="FiraMono-Medium, Fira Mono" font-size="11" font-weight="400">
      <tspan x="102" y="26">2px</tspan>
    </text>
    <text fill="#0A84FF" font-family="FiraMono-Medium, Fira Mono" font-size="11" font-weight="400">
      <tspan x="173" y="26">1px</tspan>
    </text>
    <text fill="#0A84FF" font-family="FiraMono-Medium, Fira Mono" font-size="11" font-weight="400">
      <tspan x="90" y="276">Rounded</tspan>
    </text>
    <text fill="#0A84FF" font-family="FiraMono-Medium, Fira Mono" font-size="11" font-weight="400">
      <tspan x="157" y="276">Rounded</tspan>
    </text>
  </g>
</svg>
