<?xml version="1.0" encoding="utf-8"?>
<!-- Generator: Adobe Illustrator 21.1.0, SVG Export Plug-In . SVG Version: 6.00 Build 0)  -->
<svg version="1.1" id="Layer_1" xmlns="http://www.w3.org/2000/svg" xmlns:xlink="http://www.w3.org/1999/xlink" x="0px" y="0px"
	 viewBox="0 0 300 300" style="enable-background:new 0 0 300 300;" xml:space="preserve">
<style type="text/css">
	.st0{filter:url(#Adobe_OpacityMaskFilter);}
	.st1{fill:#FFFFFF;}
	.st2{mask:url(#b);}
	.st3{filter:url(#Adobe_OpacityMaskFilter_1_);}
	.st4{mask:url(#d);fill:#D7D7DB;}
	.st5{filter:url(#Adobe_OpacityMaskFilter_2_);}
	.st6{mask:url(#f);fill:#D7D7DB;}
	.st7{opacity:0.1;fill:none;stroke:#000000;stroke-width:14;enable-background:new    ;}
	.st8{fill:#0C0C0D;fill-opacity:0.8;}
	.st9{fill:none;stroke:#0A84FF;stroke-width:2;}
	.st10{enable-background:new    ;}
	.st11{fill:none;stroke:#0A84FF;stroke-opacity:0.8;}
	.st12{fill:#0A84FF;fill-opacity:0.25;}
	.st13{fill:#0A84FF;}
</style>
<g>
	<g transform="translate(46 46)">
		<defs>
			<filter id="Adobe_OpacityMaskFilter" filterUnits="userSpaceOnUse" x="0" y="0" width="209" height="209">
				<feColorMatrix  type="matrix" values="1 0 0 0 0  0 1 0 0 0  0 0 1 0 0  0 0 0 1 0"/>
			</filter>
		</defs>
		<mask maskUnits="userSpaceOnUse" x="0" y="0" width="209" height="209" id="b">
			<g class="st0">
				<path id="a" class="st1" d="M0,0h209v209H0V0z"/>
			</g>
		</mask>
		<g class="st2">
			<defs>
				<filter id="Adobe_OpacityMaskFilter_1_" filterUnits="userSpaceOnUse" x="0" y="0" width="209" height="209">
					<feColorMatrix  type="matrix" values="1 0 0 0 0  0 1 0 0 0  0 0 1 0 0  0 0 0 1 0"/>
				</filter>
			</defs>
			<mask maskUnits="userSpaceOnUse" x="0" y="0" width="209" height="209" id="d">
				<g class="st3">
					<path id="c" class="st1" d="M0,0h209v208.8H0V0z"/>
				</g>
			</mask>
			<path class="st4" d="M0,0h209v1H0V0z M0,13h209v1H0V13z M0,26h209v1H0V26z M0,39h209v1H0V39z M0,52h209v1H0V52z M0,65h209v1H0V65
				z M0,78h209v1H0V78z M0,91h209v1H0V91z M0,104h209v1H0V104z M0,117h209v1H0V117z M0,130h209v1H0V130z M0,143h209v1H0V143z M0,156
				h209v1H0V156z M0,169h209v1H0V169z M0,182h209v1H0V182z M0,195h209v1H0V195z M0,208h209v1H0V208z"/>
		</g>
		<defs>
			<filter id="Adobe_OpacityMaskFilter_2_" filterUnits="userSpaceOnUse" x="0" y="0" width="209" height="209">
				<feColorMatrix  type="matrix" values="1 0 0 0 0  0 1 0 0 0  0 0 1 0 0  0 0 0 1 0"/>
			</filter>
		</defs>
		<mask maskUnits="userSpaceOnUse" x="0" y="0" width="209" height="209" id="f">
			<g class="st5">
				<path id="e" class="st1" d="M0,0h209v209H0V0z"/>
			</g>
		</mask>
		<path class="st6" d="M0,0h1v209H0V0z M13,0h1v209h-1V0z M26,0h1v209h-1V0z M39,0h1v209h-1V0z M52,0h1v209h-1V0z M65,0h1v209h-1V0z
			 M78,0h1v209h-1V0z M91,0h1v209h-1V0z M104,0h1v209h-1V0z M117,0h1v209h-1V0z M130,0h1v209h-1V0z M143,0h1v209h-1V0z M156,0h1v209
			h-1V0z M169,0h1v209h-1V0z M182,0h1v209h-1V0z M195,0h1v209h-1V0z M208,0h1v209h-1V0z"/>
		<path class="st7" d="M7,7h195v195H7V7z"/>
	</g>
	<g>
		<path id="g" class="st1" d="M111.5,59.5L111.5,59.5c7.2,0,13,5.8,13,13v156c0,7.2-5.8,13-13,13l0,0c-7.2,0-13-5.8-13-13v-156
			C98.5,65.3,104.3,59.5,111.5,59.5z"/>
	</g>
	<g>
		<path id="g_1_" class="st8" d="M111.5,59.5L111.5,59.5c7.2,0,13,5.8,13,13v156c0,7.2-5.8,13-13,13l0,0c-7.2,0-13-5.8-13-13v-156
			C98.5,65.3,104.3,59.5,111.5,59.5z"/>
	</g>
	<g>
		<path id="h" class="st1" d="M183,59.5L183,59.5c3.6,0,6.5,2.9,6.5,6.5v169c0,3.6-2.9,6.5-6.5,6.5l0,0c-3.6,0-6.5-2.9-6.5-6.5V66
			C176.5,62.4,179.4,59.5,183,59.5z"/>
	</g>
	<g>
		<path id="h_1_" class="st8" d="M183,59.5L183,59.5c3.6,0,6.5,2.9,6.5,6.5v169c0,3.6-2.9,6.5-6.5,6.5l0,0c-3.6,0-6.5-2.9-6.5-6.5
			V66C176.5,62.4,179.4,59.5,183,59.5z"/>
	</g>
	<path class="st9" d="M123.5,229.5c-5,0.1-8.6,0-15.4,0c-1.2,0-1.5,0-2,0c-2.6,0-4.6,0-6.5,0c0.5,6.2,5.7,11,12,11
		C117.8,240.5,122.9,235.7,123.5,229.5L123.5,229.5z M188.4,236c-2.2,0-4,0-7.1,0c-0.5,0-0.7,0-1,0c-1,0-1.9,0-2.7,0
		c0.5,2.6,2.7,4.5,5.4,4.5C185.7,240.5,187.9,238.6,188.4,236L188.4,236z"/>
	<g class="st10">
		<path class="st1" d="M257,261.5h-1.3v3.5h-1.1v-8.3h2.2c2.1,0,3.1,0.8,3.1,2.3c0,1.2-0.6,1.9-1.8,2.2l2.2,3.7H259L257,261.5z
			 M256.9,260.6c1.2,0,1.8-0.4,1.8-1.5c0-1-0.6-1.5-1.9-1.5h-1v3H256.9z"/>
	</g>
	<path class="st11" d="M183,238v25 M111.5,235v28"/>
	<g>
		<path id="i" class="st12" d="M98,32h27v209H98V32z"/>
	</g>
	<g>
		<path id="k" class="st12" d="M176,32h14v209h-14V32z"/>
	</g>
	<g class="st10">
		<path class="st13" d="M107.4,20.4c0,1.3-0.8,2.4-3.3,4.6h3.4l-0.1,1h-4.7v-0.9c2.7-2.6,3.4-3.5,3.4-4.6c0-0.8-0.5-1.2-1.2-1.2
			c-0.7,0-1.1,0.2-1.5,0.8l-0.8-0.6c0.6-0.7,1.3-1.2,2.4-1.2C106.5,18.3,107.4,19.2,107.4,20.4z"/>
		<path class="st13" d="M114.5,23.1c0,1.8-0.8,3.1-2.2,3.1c-0.6,0-1.1-0.2-1.5-0.6v2.7l-1.2,0.1v-8.2h1.1l0.1,0.7
			c0.4-0.6,1-0.9,1.7-0.9C113.9,20,114.5,21.2,114.5,23.1z M110.8,21.8v2.7c0.3,0.4,0.7,0.6,1.1,0.6c0.8,0,1.3-0.6,1.3-2.1
			c0-1.5-0.4-2.1-1.2-2.1C111.5,21,111.1,21.4,110.8,21.8z"/>
		<path class="st13" d="M115.7,26l2.1-3.1l-1.9-2.8h1.4l1.2,2l1.2-2h1.4l-1.8,2.7l2.1,3.1h-1.4l-1.4-2.4L117,26H115.7z"/>
	</g>
	<g class="st10">
		<path class="st13" d="M178.8,25v1h-4.6v-1h1.8v-5.4l-1.7,1l-0.5-0.9l2.3-1.4h1.1V25H178.8z"/>
		<path class="st13" d="M185.5,23.1c0,1.8-0.8,3.1-2.2,3.1c-0.6,0-1.1-0.2-1.5-0.6v2.7l-1.2,0.1v-8.2h1.1l0.1,0.7
			c0.4-0.6,1-0.9,1.7-0.9C184.9,20,185.5,21.2,185.5,23.1z M181.8,21.8v2.7c0.3,0.4,0.7,0.6,1.1,0.6c0.8,0,1.3-0.6,1.3-2.1
			c0-1.5-0.4-2.1-1.2-2.1C182.5,21,182.1,21.4,181.8,21.8z"/>
		<path class="st13" d="M186.7,26l2.1-3.1l-1.9-2.8h1.4l1.2,2l1.2-2h1.4l-1.8,2.7l2.1,3.1h-1.4l-1.4-2.4L188,26H186.7z"/>
	</g>
	<g class="st10">
		<path class="st13" d="M94.3,272.7l2.2,3.3H95l-1.9-3.1h-0.8v3.1h-1.3v-7.6H93c1.9,0,3,0.7,3,2.2C96,271.7,95.3,272.4,94.3,272.7z
			 M93.1,269.4h-0.9v2.6h0.9c1,0,1.5-0.4,1.5-1.3C94.7,269.7,94.2,269.4,93.1,269.4z"/>
		<path class="st13" d="M102.5,273.1c0,1.8-0.9,3.1-2.6,3.1c-1.7,0-2.6-1.2-2.6-3c0-1.8,0.9-3.1,2.6-3.1S102.5,271.2,102.5,273.1z
			 M98.6,273.1c0,1.4,0.4,2.1,1.3,2.1s1.3-0.7,1.3-2.1c0-1.4-0.4-2.1-1.3-2.1C99,271,98.6,271.7,98.6,273.1z"/>
		<path class="st13" d="M105.4,274.3c0,0.7,0.3,1,0.8,1c0.5,0,1.1-0.4,1.4-0.8v-4.2h1.2v5.8h-1.1l-0.1-0.7c-0.4,0.6-1.1,0.9-1.8,0.9
			c-1.1,0-1.7-0.6-1.7-1.7v-4.2h1.2V274.3z"/>
		<path class="st13" d="M110.8,270.2h1.1l0.1,0.8c0.5-0.6,1.2-0.9,1.9-0.9c1.1,0,1.6,0.6,1.6,1.7v4.2h-1.2v-3.6c0-1-0.1-1.4-0.8-1.4
			c-0.6,0-1.1,0.4-1.4,0.8v4.2h-1.2V270.2z"/>
		<path class="st13" d="M122,267.9v8.1h-1.1l-0.1-0.7c-0.4,0.5-0.9,0.9-1.6,0.9c-1.5,0-2.2-1.2-2.2-3c0-1.8,0.9-3.1,2.3-3.1
			c0.6,0,1.1,0.2,1.5,0.6v-3L122,267.9z M118.3,273.1c0,1.5,0.4,2.1,1.2,2.1c0.5,0,1-0.4,1.2-0.8v-2.7c-0.3-0.4-0.7-0.6-1.1-0.6
			C118.8,271,118.3,271.6,118.3,273.1z"/>
		<path class="st13" d="M126.6,275.2c0.6,0,1-0.2,1.5-0.5l0.5,0.7c-0.5,0.4-1.3,0.7-2.1,0.7c-1.8,0-2.8-1.2-2.8-3
			c0-1.7,1-3.1,2.7-3.1c1.5,0,2.5,1.1,2.5,2.9c0,0.2,0,0.4,0,0.5H125C125.1,274.7,125.8,275.2,126.6,275.2z M125,272.7h2.7
			c0-1.1-0.5-1.7-1.3-1.7C125.6,271,125.1,271.5,125,272.7z"/>
		<path class="st13" d="M135.2,267.9v8.1h-1.1l-0.1-0.7c-0.4,0.5-0.9,0.9-1.6,0.9c-1.5,0-2.2-1.2-2.2-3c0-1.8,0.9-3.1,2.3-3.1
			c0.6,0,1.1,0.2,1.5,0.6v-3L135.2,267.9z M131.5,273.1c0,1.5,0.4,2.1,1.2,2.1c0.5,0,1-0.4,1.2-0.8v-2.7c-0.3-0.4-0.7-0.6-1.1-0.6
			C132,271,131.5,271.6,131.5,273.1z"/>
	</g>
	<g class="st10">
		<path class="st13" d="M161.3,272.7l2.2,3.3H162l-1.9-3.1h-0.8v3.1h-1.3v-7.6h2.1c1.9,0,3,0.7,3,2.2
			C163,271.7,162.3,272.4,161.3,272.7z M160.1,269.4h-0.9v2.6h0.9c1,0,1.5-0.4,1.5-1.3C161.7,269.7,161.2,269.4,160.1,269.4z"/>
		<path class="st13" d="M169.5,273.1c0,1.8-0.9,3.1-2.6,3.1c-1.7,0-2.6-1.2-2.6-3c0-1.8,0.9-3.1,2.6-3.1
			C168.6,270,169.5,271.2,169.5,273.1z M165.6,273.1c0,1.4,0.4,2.1,1.3,2.1s1.3-0.7,1.3-2.1c0-1.4-0.4-2.1-1.3-2.1
			C166,271,165.6,271.7,165.6,273.1z"/>
		<path class="st13" d="M172.4,274.3c0,0.7,0.3,1,0.8,1c0.5,0,1.1-0.4,1.4-0.8v-4.2h1.2v5.8h-1.1l-0.1-0.7c-0.4,0.6-1.1,0.9-1.8,0.9
			c-1.1,0-1.7-0.6-1.7-1.7v-4.2h1.2V274.3z"/>
		<path class="st13" d="M177.8,270.2h1.1l0.1,0.8c0.5-0.6,1.2-0.9,1.9-0.9c1.1,0,1.6,0.6,1.6,1.7v4.2h-1.2v-3.6c0-1-0.1-1.4-0.8-1.4
			c-0.6,0-1.1,0.4-1.4,0.8v4.2h-1.2V270.2z"/>
		<path class="st13" d="M189,267.9v8.1h-1.1l-0.1-0.7c-0.4,0.5-0.9,0.9-1.6,0.9c-1.5,0-2.2-1.2-2.2-3c0-1.8,0.9-3.1,2.3-3.1
			c0.6,0,1.1,0.2,1.5,0.6v-3L189,267.9z M185.3,273.1c0,1.5,0.4,2.1,1.2,2.1c0.5,0,1-0.4,1.2-0.8v-2.7c-0.3-0.4-0.7-0.6-1.1-0.6
			C185.8,271,185.3,271.6,185.3,273.1z"/>
		<path class="st13" d="M193.6,275.2c0.6,0,1-0.2,1.5-0.5l0.5,0.7c-0.5,0.4-1.3,0.7-2.1,0.7c-1.8,0-2.8-1.2-2.8-3
			c0-1.7,1-3.1,2.7-3.1c1.5,0,2.5,1.1,2.5,2.9c0,0.2,0,0.4,0,0.5H192C192.1,274.7,192.8,275.2,193.6,275.2z M192,272.7h2.7
			c0-1.1-0.5-1.7-1.3-1.7C192.6,271,192.1,271.5,192,272.7z"/>
		<path class="st13" d="M202.2,267.9v8.1h-1.1l-0.1-0.7c-0.4,0.5-0.9,0.9-1.6,0.9c-1.5,0-2.2-1.2-2.2-3c0-1.8,0.9-3.1,2.3-3.1
			c0.6,0,1.1,0.2,1.5,0.6v-3L202.2,267.9z M198.5,273.1c0,1.5,0.4,2.1,1.2,2.1c0.5,0,1-0.4,1.2-0.8v-2.7c-0.3-0.4-0.7-0.6-1.1-0.6
			C199,271,198.5,271.6,198.5,273.1z"/>
	</g>
</g>
</svg>
