<svg xmlns="http://www.w3.org/2000/svg" xmlns:xlink="http://www.w3.org/1999/xlink" style="background:#fff" viewBox="0 0 300 300"><defs><polygon id="a" points="0 0 209 0 209 209 0 209"/><polygon id="c" points="0 0 209 0 209 208.791 0 208.791"/><polygon id="e" points="0 0 209 0 209 209 0 209"/><path id="g" d="M104.5 26.5c-43.02 0-78 34.98-78 78s34.98 78 78 78 78-34.98 78-78-34.98-78-78-78m0 182c-57.34 0-104-46.66-104-104S47.16.5 104.5.5s104 46.66 104 104-46.66 104-104 104"/><path id="h" d="M104.92 59a6.92 6.92 0 1 0-13.84 0v52c0 3.82 3.1 6.92 6.92 6.92h52a6.92 6.92 0 1 0 0-13.84h-45.08V59z"/><rect id="i" width="27" height="118" x="46" y="32"/><filter id="j" width="103.7%" height="100.8%" x="-1.9%" y="-.4%" filterUnits="objectBoundingBox"><feOffset dx="1" in="SourceAlpha" result="shadowOffsetInner1"/><feComposite in="shadowOffsetInner1" in2="SourceAlpha" k2="-1" k3="1" operator="arithmetic" result="shadowInnerInner1"/><feColorMatrix in="shadowInnerInner1" result="shadowMatrixInner1" values="0 0 0 0 0.0392156863 0 0 0 0 0.517647059 0 0 0 0 1 0 0 0 1 0"/><feOffset dx="-1" in="SourceAlpha" result="shadowOffsetInner2"/><feComposite in="shadowOffsetInner2" in2="SourceAlpha" k2="-1" k3="1" operator="arithmetic" result="shadowInnerInner2"/><feColorMatrix in="shadowInnerInner2" result="shadowMatrixInner2" values="0 0 0 0 0.0392156863 0 0 0 0 0.517647059 0 0 0 0 1 0 0 0 1 0"/><feMerge><feMergeNode in="shadowMatrixInner1"/><feMergeNode in="shadowMatrixInner2"/></feMerge></filter><rect id="k" width="14" height="118" x="137" y="32"/><filter id="l" width="107.1%" height="100.8%" x="-3.6%" y="-.4%" filterUnits="objectBoundingBox"><feOffset dx="1" in="SourceAlpha" result="shadowOffsetInner1"/><feComposite in="shadowOffsetInner1" in2="SourceAlpha" k2="-1" k3="1" operator="arithmetic" result="shadowInnerInner1"/><feColorMatrix in="shadowInnerInner1" result="shadowMatrixInner1" values="0 0 0 0 0.0392156863 0 0 0 0 0.517647059 0 0 0 0 1 0 0 0 1 0"/><feOffset dx="-1" in="SourceAlpha" result="shadowOffsetInner2"/><feComposite in="shadowOffsetInner2" in2="SourceAlpha" k2="-1" k3="1" operator="arithmetic" result="shadowInnerInner2"/><feColorMatrix in="shadowInnerInner2" result="shadowMatrixInner2" values="0 0 0 0 0.0392156863 0 0 0 0 0.517647059 0 0 0 0 1 0 0 0 1 0"/><feMerge><feMergeNode in="shadowMatrixInner1"/><feMergeNode in="shadowMatrixInner2"/></feMerge></filter></defs><g fill="none" fill-rule="evenodd"><g transform="translate(46 46)"><mask id="b" fill="white"><use xlink:href="#a"/></mask><g mask="url(#b)"><mask id="d" fill="white"><use xlink:href="#c"/></mask><rect width="209" height="1" fill="#D7D7DB" mask="url(#d)"/><rect width="209" height="1" y="13" fill="#D7D7DB" mask="url(#d)"/><rect width="209" height="1" y="26" fill="#D7D7DB" mask="url(#d)"/><rect width="209" height="1" y="39" fill="#D7D7DB" mask="url(#d)"/><rect width="209" height="1" y="52" fill="#D7D7DB" mask="url(#d)"/><rect width="209" height="1" y="65" fill="#D7D7DB" mask="url(#d)"/><rect width="209" height="1" y="78" fill="#D7D7DB" mask="url(#d)"/><rect width="209" height="1" y="91" fill="#D7D7DB" mask="url(#d)"/><rect width="209" height="1" y="104" fill="#D7D7DB" mask="url(#d)"/><rect width="209" height="1" y="117" fill="#D7D7DB" mask="url(#d)"/><rect width="209" height="1" y="130" fill="#D7D7DB" mask="url(#d)"/><rect width="209" height="1" y="143" fill="#D7D7DB" mask="url(#d)"/><rect width="209" height="1" y="156" fill="#D7D7DB" mask="url(#d)"/><rect width="209" height="1" y="169" fill="#D7D7DB" mask="url(#d)"/><rect width="209" height="1" y="182" fill="#D7D7DB" mask="url(#d)"/><rect width="209" height="1" y="195" fill="#D7D7DB" mask="url(#d)"/><rect width="209" height="1" y="208" fill="#D7D7DB" mask="url(#d)"/></g><g><mask id="f" fill="white"><use xlink:href="#e"/></mask><rect width="1" height="209" fill="#D7D7DB" mask="url(#f)"/><rect width="1" height="209" x="13" fill="#D7D7DB" mask="url(#f)"/><rect width="1" height="209" x="26" fill="#D7D7DB" mask="url(#f)"/><rect width="1" height="209" x="39" fill="#D7D7DB" mask="url(#f)"/><rect width="1" height="209" x="52" fill="#D7D7DB" mask="url(#f)"/><rect width="1" height="209" x="65" fill="#D7D7DB" mask="url(#f)"/><rect width="1" height="209" x="78" fill="#D7D7DB" mask="url(#f)"/><rect width="1" height="209" x="91" fill="#D7D7DB" mask="url(#f)"/><rect width="1" height="209" x="104" fill="#D7D7DB" mask="url(#f)"/><rect width="1" height="209" x="117" fill="#D7D7DB" mask="url(#f)"/><rect width="1" height="209" x="130" fill="#D7D7DB" mask="url(#f)"/><rect width="1" height="209" x="143" fill="#D7D7DB" mask="url(#f)"/><rect width="1" height="209" x="156" fill="#D7D7DB" mask="url(#f)"/><rect width="1" height="209" x="169" fill="#D7D7DB" mask="url(#f)"/><rect width="1" height="209" x="182" fill="#D7D7DB" mask="url(#f)"/><rect width="1" height="209" x="195" fill="#D7D7DB" mask="url(#f)"/><rect width="1" height="209" x="208" fill="#D7D7DB" mask="url(#f)"/></g><rect width="195" height="195" x="7" y="7" stroke="#000000" stroke-width="14" opacity=".1"/></g><g transform="translate(46 46)"><use fill="#FFFFFF" xlink:href="#g"/><use fill="#000000" fill-opacity=".8" xlink:href="#g"/><g fill-rule="nonzero"><use fill="#FFFFFF" fill-rule="evenodd" xlink:href="#h"/><use fill="#0C0C0D" fill-opacity=".8" fill-rule="evenodd" xlink:href="#h"/></g></g><use fill="#0A84FF" fill-opacity=".25" xlink:href="#i"/><use fill="black" filter="url(#j)" xlink:href="#i"/><use fill="#0A84FF" fill-opacity=".25" xlink:href="#k"/><use fill="black" filter="url(#l)" xlink:href="#k"/><path fill="#0A84FF" fill-opacity=".8" d="M54.18 18.14a2.11 2.11 0 0 1 1.14 1.9c0 .5-.1.96-.33 1.41-.22.45-.55.93-1.01 1.45-.46.52-1.15 1.25-2.08 2.18h3.62l-.14.92h-4.74v-.88a72.56 72.56 0 0 0 2.28-2.44c.45-.51.77-.96.96-1.35.2-.38.3-.8.3-1.23 0-.42-.13-.75-.37-.98a1.31 1.31 0 0 0-.96-.36c-.33 0-.61.07-.86.2-.25.14-.5.37-.77.68l-.74-.58a2.96 2.96 0 0 1 2.44-1.21c.47 0 .9.1 1.26.29zm7.76 2.26c.37.57.56 1.38.56 2.43 0 1-.22 1.8-.65 2.4-.43.61-1.04.91-1.83.91-.7 0-1.26-.24-1.66-.72v3l-1.1.14v-8.88h.94l.09.85c.23-.32.51-.57.84-.74a2.2 2.2 0 0 1 1.03-.26c.8 0 1.4.29 1.78.87zm-.63 2.43c0-1.61-.47-2.42-1.43-2.42-.3 0-.6.09-.85.27-.25.19-.48.42-.67.71v3.09a1.62 1.62 0 0 0 1.4.77c1.03 0 1.55-.81 1.55-2.42zM68.76 26h-1.33l-1.55-2.68L64.31 26h-1.25l2.21-3.34-1.95-2.98h1.3l1.31 2.31 1.33-2.31h1.25l-1.94 2.94 2.2 3.38zm68.16 0h-1.1v-6.85l-1.87 1.14-.48-.78 2.48-1.54h.97V26zm7.14-5.6c.38.57.57 1.38.57 2.43 0 1-.22 1.8-.65 2.4-.43.61-1.04.91-1.84.91-.7 0-1.25-.24-1.65-.72v3l-1.1.14v-8.88h.94l.09.85c.23-.32.5-.57.84-.74a2.2 2.2 0 0 1 1.03-.26c.8 0 1.4.29 1.77.87zm-.62 2.43c0-1.61-.48-2.42-1.43-2.42-.31 0-.6.09-.85.27-.26.19-.48.42-.67.71v3.09a1.62 1.62 0 0 0 1.4.77c1.03 0 1.55-.81 1.55-2.42zm7.45 3.17h-1.33l-1.55-2.68-1.57 2.68h-1.25l2.21-3.34-1.96-2.98h1.3l1.32 2.31 1.33-2.31h1.25l-1.94 2.94 2.2 3.38z"/></g></svg>