<svg xmlns="http://www.w3.org/2000/svg" xmlns:xlink="http://www.w3.org/1999/xlink" width="350" height="180" viewBox="0 0 350 180">
  <defs>
    <rect id="action-2-a" width="73" height="24" rx="2"/>
    <rect id="action-2-c" width="73" height="24" rx="2"/>
    <rect id="action-2-e" width="73" height="24" rx="2"/>
    <rect id="action-2-g" width="73" height="24" rx="2"/>
    <rect id="action-2-i" width="73" height="24" rx="2"/>
    <rect id="action-2-k" width="73" height="24" rx="2"/>
    <rect id="action-2-m" width="73" height="24" rx="2"/>
    <rect id="action-2-o" width="73" height="24" rx="2"/>
    <rect id="action-2-q" width="73" height="24" rx="2"/>
    <rect id="action-2-s" width="73" height="24" rx="2"/>
    <rect id="action-2-u" width="73" height="24" rx="2"/>
    <rect id="action-2-w" width="73" height="24" rx="2"/>
  </defs>
  <g fill="none" fill-rule="evenodd" transform="translate(7 32)">
    <g transform="translate(255)">
      <rect width="81" height="32" fill="#FF0039" fill-rule="nonzero" rx="4"/>
      <rect width="73" height="24" fill="#D70022" fill-rule="nonzero" rx="2" transform="translate(4 4)"/>
      <g transform="translate(4 4)">
        <mask id="action-2-b" fill="#fff">
          <use xlink:href="#action-2-a"/>
        </mask>
        <path fill="#FFF" fill-rule="nonzero" d="M13.1057133,16 L13.1057133,10.3899415 L13.2028324,10.3899415 L17.2475589,16 L18.5215335,16 L18.5215335,7.756299 L17.1047366,7.756299 L17.1047366,13.3606446 L17.0076175,13.3606446 L12.962891,7.756299 L11.6832035,7.756299 L11.6832035,16 L13.1057133,16 Z M24.1201662,7.5506349 C26.5138674,7.5506349 28.0106447,9.213086 28.0106447,11.875293 C28.0106447,14.5317871 26.5252931,16.2056641 24.1201662,16.2056641 C21.6979006,16.2056641 20.2125491,14.5375 20.2125491,11.875293 C20.2125491,9.213086 21.7264651,7.5506349 24.1201662,7.5506349 Z M24.1201662,8.8588868 C22.6519534,8.8588868 21.7207522,10.0300294 21.7207522,11.875293 C21.7207522,13.7148438 22.6291018,14.8974121 24.1201662,14.8974121 C25.5883791,14.8974121 26.5024416,13.7148438 26.5024416,11.875293 C26.5024416,10.0300294 25.5826662,8.8588868 24.1201662,8.8588868 Z M31.1698731,8.9788575 L31.1698731,11.7381837 L32.8723145,11.7381837 C33.8092286,11.7381837 34.3462403,11.2354493 34.3462403,10.361377 C34.3462403,9.5044435 33.7749512,8.9788575 32.8380372,8.9788575 L31.1698731,8.9788575 Z M31.1698731,12.9093262 L31.1698731,16 L29.6959474,16 L29.6959474,7.756299 L33.0437012,7.756299 C34.7747071,7.756299 35.8601563,8.7503419 35.8601563,10.3328126 C35.8601563,11.4182618 35.2888672,12.3266114 34.30625,12.6808106 L36.1058106,16 L34.4205078,16 L32.8037598,12.9093262 L31.1698731,12.9093262 Z M46.154785,16 L46.154785,7.756299 L44.4294921,7.756299 L41.9500976,13.7605469 L41.8472655,13.7605469 L39.367871,7.756299 L37.6425781,7.756299 L37.6425781,16 L39.0136718,16 L39.0136718,10.2014161 L39.0936523,10.2014161 L41.3730956,15.6800781 L42.4242675,15.6800781 L44.7037108,10.2014161 L44.7836913,10.2014161 L44.7836913,16 L46.154785,16 Z M53.5072751,16 L52.8103025,13.8919434 L49.7767576,13.8919434 L49.0683592,16 L47.5772947,16 L50.5022947,7.756299 L52.1590329,7.756299 L55.0897458,16 L53.5072751,16 Z M51.2506834,9.3273439 L50.119531,12.7265137 L52.467529,12.7265137 L51.3478025,9.3273439 L51.2506834,9.3273439 Z M61.7624019,14.7088867 L57.9804684,14.7088867 L57.9804684,7.756299 L56.5065426,7.756299 L56.5065426,16 L61.7624019,16 L61.7624019,14.7088867 Z" mask="url(#action-2-b)"/>
      </g>
      <g transform="translate(0 40)">
        <rect width="81" height="32" fill="#FF0039" fill-rule="nonzero" rx="4"/>
        <rect width="73" height="24" fill="#A4000F" fill-rule="nonzero" rx="2" transform="translate(4 4)"/>
        <g transform="translate(4 4)">
          <mask id="action-2-d" fill="#fff">
            <use xlink:href="#action-2-c"/>
          </mask>
          <path fill="#FFF" fill-rule="nonzero" d="M23.868799,16 L23.868799,7.756299 L22.4005862,7.756299 L22.4005862,11.1668946 L18.390137,11.1668946 L18.390137,7.756299 L16.9162113,7.756299 L16.9162113,16 L18.390137,16 L18.390137,12.4408692 L22.4005862,12.4408692 L22.4005862,16 L23.868799,16 Z M29.4617189,7.5506349 C31.85542,7.5506349 33.3521973,9.213086 33.3521973,11.875293 C33.3521973,14.5317871 31.8668458,16.2056641 29.4617189,16.2056641 C27.0394533,16.2056641 25.5541017,14.5375 25.5541017,11.875293 C25.5541017,9.213086 27.0680177,7.5506349 29.4617189,7.5506349 Z M29.4617189,8.8588868 C27.993506,8.8588868 27.0623048,10.0300294 27.0623048,11.875293 C27.0623048,13.7148438 27.9706544,14.8974121 29.4617189,14.8974121 C30.9299317,14.8974121 31.8439942,13.7148438 31.8439942,11.875293 C31.8439942,10.0300294 30.9242188,8.8588868 29.4617189,8.8588868 Z M38.7337402,16 L41.5844726,7.756299 L40.0134277,7.756299 L37.9567871,14.2804199 L37.8596679,14.2804199 L35.7858887,7.756299 L34.1577149,7.756299 L37.0370117,16 L38.7337402,16 Z M48.3428221,14.7260254 L44.4809081,14.7260254 L44.4809081,12.4180176 L48.1314451,12.4180176 L48.1314451,11.2183106 L44.4809081,11.2183106 L44.4809081,9.0302736 L48.3428221,9.0302736 L48.3428221,7.756299 L43.0069823,7.756299 L43.0069823,16 L48.3428221,16 L48.3428221,14.7260254 Z M51.6448728,8.9788575 L51.6448728,11.7381837 L53.3473142,11.7381837 C54.2842282,11.7381837 54.8212399,11.2354493 54.8212399,10.361377 C54.8212399,9.5044435 54.2499509,8.9788575 53.3130368,8.9788575 L51.6448728,8.9788575 Z M51.6448728,12.9093262 L51.6448728,16 L50.170947,16 L50.170947,7.756299 L53.5187009,7.756299 C55.2497067,7.756299 56.3351559,8.7503419 56.3351559,10.3328126 C56.3351559,11.4182618 55.7638669,12.3266114 54.7812497,12.6808106 L56.5808102,16 L54.8955075,16 L53.2787595,12.9093262 L51.6448728,12.9093262 Z" mask="url(#action-2-d)"/>
        </g>
      </g>
      <g transform="translate(0 80)">
        <rect width="81" height="32" fill="#FF0039" fill-rule="nonzero" rx="4"/>
        <rect width="73" height="24" fill="#5A0002" fill-rule="nonzero" rx="2" transform="translate(4 4)"/>
        <g transform="translate(4 4)">
          <mask id="action-2-f" fill="#fff">
            <use xlink:href="#action-2-e"/>
          </mask>
          <path fill="#FFF" fill-rule="nonzero" d="M10.460645,7.756299 L13.7855472,7.756299 C15.4308597,7.756299 16.5562992,8.8817384 16.5562992,10.5441895 C16.5562992,12.1780762 15.3908695,13.2978028 13.7227054,13.2978028 L11.9345707,13.2978028 L11.9345707,16 L10.460645,16 L10.460645,7.756299 Z M11.9345707,8.9902833 L11.9345707,12.0752442 L13.3913578,12.0752442 C14.4425297,12.0752442 15.0595218,11.5268067 15.0595218,10.5441895 C15.0595218,9.5330079 14.4596683,8.9902833 13.3970707,8.9902833 L11.9345707,8.9902833 Z M19.6526858,8.9788575 L19.6526858,11.7381837 L21.3551272,11.7381837 C22.2920412,11.7381837 22.829053,11.2354493 22.829053,10.361377 C22.829053,9.5044435 22.2577639,8.9788575 21.3208499,8.9788575 L19.6526858,8.9788575 Z M19.6526858,12.9093262 L19.6526858,16 L18.1787601,16 L18.1787601,7.756299 L21.5265139,7.756299 C23.2575197,7.756299 24.3429689,8.7503419 24.3429689,10.3328126 C24.3429689,11.4182618 23.7716799,12.3266114 22.7890627,12.6808106 L24.5886232,16 L22.9033205,16 L21.2865725,12.9093262 L19.6526858,12.9093262 Z M31.4612306,14.7260254 L27.5993166,14.7260254 L27.5993166,12.4180176 L31.2498536,12.4180176 L31.2498536,11.2183106 L27.5993166,11.2183106 L27.5993166,9.0302736 L31.4612306,9.0302736 L31.4612306,7.756299 L26.1253908,7.756299 L26.1253908,16 L31.4612306,16 L31.4612306,14.7260254 Z M32.9123047,13.7605469 C32.9865723,15.2573242 34.2376953,16.2056641 36.1286621,16.2056641 C38.1281738,16.2056641 39.367871,15.2059082 39.367871,13.600586 C39.367871,12.3437501 38.6651855,11.6467774 36.9913086,11.2697266 L36.0429688,11.0526368 C35.0203614,10.8184083 34.6033203,10.4927735 34.6033203,9.9386231 C34.6033203,9.2359376 35.2317383,8.7789064 36.1800781,8.7789064 C37.0827148,8.7789064 37.7225586,9.2359376 37.8253906,9.9614747 L39.2364746,9.9614747 C39.1679199,8.5446779 37.9167969,7.5506349 36.185791,7.5506349 C34.3405274,7.5506349 33.1179688,8.5446779 33.1179688,10.0414552 C33.1179688,11.2697266 33.8206543,12.0124024 35.3174317,12.349463 L36.3857422,12.5951172 C37.4426269,12.8407715 37.8939453,13.1892579 37.8939453,13.7833985 C37.8939453,14.4746582 37.1912598,14.9716797 36.2200684,14.9716797 C35.1746094,14.9716797 34.4433594,14.4975098 34.3519532,13.7605469 L32.9123047,13.7605469 Z M40.6475585,13.7605469 C40.7218261,15.2573242 41.9729491,16.2056641 43.8639159,16.2056641 C45.8634276,16.2056641 47.1031248,15.2059082 47.1031248,13.600586 C47.1031248,12.3437501 46.4004393,11.6467774 44.7265624,11.2697266 L43.7782225,11.0526368 C42.7556151,10.8184083 42.3385741,10.4927735 42.3385741,9.9386231 C42.3385741,9.2359376 42.9669921,8.7789064 43.9153319,8.7789064 C44.8179686,8.7789064 45.4578124,9.2359376 45.5606444,9.9614747 L46.9717283,9.9614747 C46.9031737,8.5446779 45.6520506,7.5506349 43.9210448,7.5506349 C42.0757812,7.5506349 40.8532226,8.5446779 40.8532226,10.0414552 C40.8532226,11.2697266 41.5559081,12.0124024 43.0526854,12.349463 L44.120996,12.5951172 C45.1778807,12.8407715 45.6291991,13.1892579 45.6291991,13.7833985 C45.6291991,14.4746582 44.9265135,14.9716797 43.9553221,14.9716797 C42.9098632,14.9716797 42.1786132,14.4975098 42.0872069,13.7605469 L40.6475585,13.7605469 Z M54.0957028,14.7260254 L50.2337888,14.7260254 L50.2337888,12.4180176 L53.8843259,12.4180176 L53.8843259,11.2183106 L50.2337888,11.2183106 L50.2337888,9.0302736 L54.0957028,9.0302736 L54.0957028,7.756299 L48.7598631,7.756299 L48.7598631,16 L54.0957028,16 L54.0957028,14.7260254 Z M55.9238278,7.756299 L59.0145016,7.756299 C61.4653316,7.756299 62.8935543,9.2530763 62.8935543,11.8410157 C62.8935543,14.486084 61.4824703,16 59.0145016,16 L55.9238278,16 L55.9238278,7.756299 Z M57.3977536,9.0302736 L57.3977536,14.7260254 L58.8202633,14.7260254 C60.4598629,14.7260254 61.391064,13.703418 61.391064,11.8638673 C61.391064,10.0643067 60.4370113,9.0302736 58.8202633,9.0302736 L57.3977536,9.0302736 Z" mask="url(#action-2-f)"/>
        </g>
      </g>
    </g>
    <g transform="translate(170)">
      <rect width="81" height="32" fill="#FFE900" fill-rule="nonzero" rx="4"/>
      <rect width="73" height="24" fill="#D7B600" fill-rule="nonzero" rx="2" transform="translate(4 4)"/>
      <g transform="translate(4 4)">
        <mask id="action-2-h" fill="#fff">
          <use xlink:href="#action-2-g"/>
        </mask>
        <path fill="#3E2800" fill-rule="nonzero" d="M13.1057133,16 L13.1057133,10.3899415 L13.2028324,10.3899415 L17.2475589,16 L18.5215335,16 L18.5215335,7.756299 L17.1047366,7.756299 L17.1047366,13.3606446 L17.0076175,13.3606446 L12.962891,7.756299 L11.6832035,7.756299 L11.6832035,16 L13.1057133,16 Z M24.1201662,7.5506349 C26.5138674,7.5506349 28.0106447,9.213086 28.0106447,11.875293 C28.0106447,14.5317871 26.5252931,16.2056641 24.1201662,16.2056641 C21.6979006,16.2056641 20.2125491,14.5375 20.2125491,11.875293 C20.2125491,9.213086 21.7264651,7.5506349 24.1201662,7.5506349 Z M24.1201662,8.8588868 C22.6519534,8.8588868 21.7207522,10.0300294 21.7207522,11.875293 C21.7207522,13.7148438 22.6291018,14.8974121 24.1201662,14.8974121 C25.5883791,14.8974121 26.5024416,13.7148438 26.5024416,11.875293 C26.5024416,10.0300294 25.5826662,8.8588868 24.1201662,8.8588868 Z M31.1698731,8.9788575 L31.1698731,11.7381837 L32.8723145,11.7381837 C33.8092286,11.7381837 34.3462403,11.2354493 34.3462403,10.361377 C34.3462403,9.5044435 33.7749512,8.9788575 32.8380372,8.9788575 L31.1698731,8.9788575 Z M31.1698731,12.9093262 L31.1698731,16 L29.6959474,16 L29.6959474,7.756299 L33.0437012,7.756299 C34.7747071,7.756299 35.8601563,8.7503419 35.8601563,10.3328126 C35.8601563,11.4182618 35.2888672,12.3266114 34.30625,12.6808106 L36.1058106,16 L34.4205078,16 L32.8037598,12.9093262 L31.1698731,12.9093262 Z M46.154785,16 L46.154785,7.756299 L44.4294921,7.756299 L41.9500976,13.7605469 L41.8472655,13.7605469 L39.367871,7.756299 L37.6425781,7.756299 L37.6425781,16 L39.0136718,16 L39.0136718,10.2014161 L39.0936523,10.2014161 L41.3730956,15.6800781 L42.4242675,15.6800781 L44.7037108,10.2014161 L44.7836913,10.2014161 L44.7836913,16 L46.154785,16 Z M53.5072751,16 L52.8103025,13.8919434 L49.7767576,13.8919434 L49.0683592,16 L47.5772947,16 L50.5022947,7.756299 L52.1590329,7.756299 L55.0897458,16 L53.5072751,16 Z M51.2506834,9.3273439 L50.119531,12.7265137 L52.467529,12.7265137 L51.3478025,9.3273439 L51.2506834,9.3273439 Z M61.7624019,14.7088867 L57.9804684,14.7088867 L57.9804684,7.756299 L56.5065426,7.756299 L56.5065426,16 L61.7624019,16 L61.7624019,14.7088867 Z" mask="url(#action-2-h)"/>
      </g>
      <g transform="translate(0 40)">
        <rect width="81" height="32" fill="#FFE900" fill-rule="nonzero" rx="4"/>
        <rect width="73" height="24" fill="#A47F00" fill-rule="nonzero" rx="2" transform="translate(4 4)"/>
        <g transform="translate(4 4)">
          <mask id="action-2-j" fill="#fff">
            <use xlink:href="#action-2-i"/>
          </mask>
          <path fill="#3E2800" fill-rule="nonzero" d="M23.868799,16 L23.868799,7.756299 L22.4005862,7.756299 L22.4005862,11.1668946 L18.390137,11.1668946 L18.390137,7.756299 L16.9162113,7.756299 L16.9162113,16 L18.390137,16 L18.390137,12.4408692 L22.4005862,12.4408692 L22.4005862,16 L23.868799,16 Z M29.4617189,7.5506349 C31.85542,7.5506349 33.3521973,9.213086 33.3521973,11.875293 C33.3521973,14.5317871 31.8668458,16.2056641 29.4617189,16.2056641 C27.0394533,16.2056641 25.5541017,14.5375 25.5541017,11.875293 C25.5541017,9.213086 27.0680177,7.5506349 29.4617189,7.5506349 Z M29.4617189,8.8588868 C27.993506,8.8588868 27.0623048,10.0300294 27.0623048,11.875293 C27.0623048,13.7148438 27.9706544,14.8974121 29.4617189,14.8974121 C30.9299317,14.8974121 31.8439942,13.7148438 31.8439942,11.875293 C31.8439942,10.0300294 30.9242188,8.8588868 29.4617189,8.8588868 Z M38.7337402,16 L41.5844726,7.756299 L40.0134277,7.756299 L37.9567871,14.2804199 L37.8596679,14.2804199 L35.7858887,7.756299 L34.1577149,7.756299 L37.0370117,16 L38.7337402,16 Z M48.3428221,14.7260254 L44.4809081,14.7260254 L44.4809081,12.4180176 L48.1314451,12.4180176 L48.1314451,11.2183106 L44.4809081,11.2183106 L44.4809081,9.0302736 L48.3428221,9.0302736 L48.3428221,7.756299 L43.0069823,7.756299 L43.0069823,16 L48.3428221,16 L48.3428221,14.7260254 Z M51.6448728,8.9788575 L51.6448728,11.7381837 L53.3473142,11.7381837 C54.2842282,11.7381837 54.8212399,11.2354493 54.8212399,10.361377 C54.8212399,9.5044435 54.2499509,8.9788575 53.3130368,8.9788575 L51.6448728,8.9788575 Z M51.6448728,12.9093262 L51.6448728,16 L50.170947,16 L50.170947,7.756299 L53.5187009,7.756299 C55.2497067,7.756299 56.3351559,8.7503419 56.3351559,10.3328126 C56.3351559,11.4182618 55.7638669,12.3266114 54.7812497,12.6808106 L56.5808102,16 L54.8955075,16 L53.2787595,12.9093262 L51.6448728,12.9093262 Z" mask="url(#action-2-j)"/>
        </g>
      </g>
      <g transform="translate(0 80)">
        <rect width="81" height="32" fill="#FFE900" fill-rule="nonzero" rx="4"/>
        <rect width="73" height="24" fill="#715100" fill-rule="nonzero" rx="2" transform="translate(4 4)"/>
        <g transform="translate(4 4)">
          <mask id="action-2-l" fill="#fff">
            <use xlink:href="#action-2-k"/>
          </mask>
          <path fill="#FFF" fill-rule="nonzero" d="M10.460645,7.756299 L13.7855472,7.756299 C15.4308597,7.756299 16.5562992,8.8817384 16.5562992,10.5441895 C16.5562992,12.1780762 15.3908695,13.2978028 13.7227054,13.2978028 L11.9345707,13.2978028 L11.9345707,16 L10.460645,16 L10.460645,7.756299 Z M11.9345707,8.9902833 L11.9345707,12.0752442 L13.3913578,12.0752442 C14.4425297,12.0752442 15.0595218,11.5268067 15.0595218,10.5441895 C15.0595218,9.5330079 14.4596683,8.9902833 13.3970707,8.9902833 L11.9345707,8.9902833 Z M19.6526858,8.9788575 L19.6526858,11.7381837 L21.3551272,11.7381837 C22.2920412,11.7381837 22.829053,11.2354493 22.829053,10.361377 C22.829053,9.5044435 22.2577639,8.9788575 21.3208499,8.9788575 L19.6526858,8.9788575 Z M19.6526858,12.9093262 L19.6526858,16 L18.1787601,16 L18.1787601,7.756299 L21.5265139,7.756299 C23.2575197,7.756299 24.3429689,8.7503419 24.3429689,10.3328126 C24.3429689,11.4182618 23.7716799,12.3266114 22.7890627,12.6808106 L24.5886232,16 L22.9033205,16 L21.2865725,12.9093262 L19.6526858,12.9093262 Z M31.4612306,14.7260254 L27.5993166,14.7260254 L27.5993166,12.4180176 L31.2498536,12.4180176 L31.2498536,11.2183106 L27.5993166,11.2183106 L27.5993166,9.0302736 L31.4612306,9.0302736 L31.4612306,7.756299 L26.1253908,7.756299 L26.1253908,16 L31.4612306,16 L31.4612306,14.7260254 Z M32.9123047,13.7605469 C32.9865723,15.2573242 34.2376953,16.2056641 36.1286621,16.2056641 C38.1281738,16.2056641 39.367871,15.2059082 39.367871,13.600586 C39.367871,12.3437501 38.6651855,11.6467774 36.9913086,11.2697266 L36.0429688,11.0526368 C35.0203614,10.8184083 34.6033203,10.4927735 34.6033203,9.9386231 C34.6033203,9.2359376 35.2317383,8.7789064 36.1800781,8.7789064 C37.0827148,8.7789064 37.7225586,9.2359376 37.8253906,9.9614747 L39.2364746,9.9614747 C39.1679199,8.5446779 37.9167969,7.5506349 36.185791,7.5506349 C34.3405274,7.5506349 33.1179688,8.5446779 33.1179688,10.0414552 C33.1179688,11.2697266 33.8206543,12.0124024 35.3174317,12.349463 L36.3857422,12.5951172 C37.4426269,12.8407715 37.8939453,13.1892579 37.8939453,13.7833985 C37.8939453,14.4746582 37.1912598,14.9716797 36.2200684,14.9716797 C35.1746094,14.9716797 34.4433594,14.4975098 34.3519532,13.7605469 L32.9123047,13.7605469 Z M40.6475585,13.7605469 C40.7218261,15.2573242 41.9729491,16.2056641 43.8639159,16.2056641 C45.8634276,16.2056641 47.1031248,15.2059082 47.1031248,13.600586 C47.1031248,12.3437501 46.4004393,11.6467774 44.7265624,11.2697266 L43.7782225,11.0526368 C42.7556151,10.8184083 42.3385741,10.4927735 42.3385741,9.9386231 C42.3385741,9.2359376 42.9669921,8.7789064 43.9153319,8.7789064 C44.8179686,8.7789064 45.4578124,9.2359376 45.5606444,9.9614747 L46.9717283,9.9614747 C46.9031737,8.5446779 45.6520506,7.5506349 43.9210448,7.5506349 C42.0757812,7.5506349 40.8532226,8.5446779 40.8532226,10.0414552 C40.8532226,11.2697266 41.5559081,12.0124024 43.0526854,12.349463 L44.120996,12.5951172 C45.1778807,12.8407715 45.6291991,13.1892579 45.6291991,13.7833985 C45.6291991,14.4746582 44.9265135,14.9716797 43.9553221,14.9716797 C42.9098632,14.9716797 42.1786132,14.4975098 42.0872069,13.7605469 L40.6475585,13.7605469 Z M54.0957028,14.7260254 L50.2337888,14.7260254 L50.2337888,12.4180176 L53.8843259,12.4180176 L53.8843259,11.2183106 L50.2337888,11.2183106 L50.2337888,9.0302736 L54.0957028,9.0302736 L54.0957028,7.756299 L48.7598631,7.756299 L48.7598631,16 L54.0957028,16 L54.0957028,14.7260254 Z M55.9238278,7.756299 L59.0145016,7.756299 C61.4653316,7.756299 62.8935543,9.2530763 62.8935543,11.8410157 C62.8935543,14.486084 61.4824703,16 59.0145016,16 L55.9238278,16 L55.9238278,7.756299 Z M57.3977536,9.0302736 L57.3977536,14.7260254 L58.8202633,14.7260254 C60.4598629,14.7260254 61.391064,13.703418 61.391064,11.8638673 C61.391064,10.0643067 60.4370113,9.0302736 58.8202633,9.0302736 L57.3977536,9.0302736 Z" mask="url(#action-2-l)"/>
        </g>
      </g>
    </g>
    <g transform="translate(85)">
      <rect width="81" height="32" fill="#30E60B" fill-rule="nonzero" rx="4"/>
      <rect width="73" height="24" fill="#12BC00" fill-rule="nonzero" rx="2" transform="translate(4 4)"/>
      <g transform="translate(4 4)">
        <mask id="action-2-n" fill="#fff">
          <use xlink:href="#action-2-m"/>
        </mask>
        <path fill="#003706" fill-rule="nonzero" d="M13.1057133,16 L13.1057133,10.3899415 L13.2028324,10.3899415 L17.2475589,16 L18.5215335,16 L18.5215335,7.756299 L17.1047366,7.756299 L17.1047366,13.3606446 L17.0076175,13.3606446 L12.962891,7.756299 L11.6832035,7.756299 L11.6832035,16 L13.1057133,16 Z M24.1201662,7.5506349 C26.5138674,7.5506349 28.0106447,9.213086 28.0106447,11.875293 C28.0106447,14.5317871 26.5252931,16.2056641 24.1201662,16.2056641 C21.6979006,16.2056641 20.2125491,14.5375 20.2125491,11.875293 C20.2125491,9.213086 21.7264651,7.5506349 24.1201662,7.5506349 Z M24.1201662,8.8588868 C22.6519534,8.8588868 21.7207522,10.0300294 21.7207522,11.875293 C21.7207522,13.7148438 22.6291018,14.8974121 24.1201662,14.8974121 C25.5883791,14.8974121 26.5024416,13.7148438 26.5024416,11.875293 C26.5024416,10.0300294 25.5826662,8.8588868 24.1201662,8.8588868 Z M31.1698731,8.9788575 L31.1698731,11.7381837 L32.8723145,11.7381837 C33.8092286,11.7381837 34.3462403,11.2354493 34.3462403,10.361377 C34.3462403,9.5044435 33.7749512,8.9788575 32.8380372,8.9788575 L31.1698731,8.9788575 Z M31.1698731,12.9093262 L31.1698731,16 L29.6959474,16 L29.6959474,7.756299 L33.0437012,7.756299 C34.7747071,7.756299 35.8601563,8.7503419 35.8601563,10.3328126 C35.8601563,11.4182618 35.2888672,12.3266114 34.30625,12.6808106 L36.1058106,16 L34.4205078,16 L32.8037598,12.9093262 L31.1698731,12.9093262 Z M46.154785,16 L46.154785,7.756299 L44.4294921,7.756299 L41.9500976,13.7605469 L41.8472655,13.7605469 L39.367871,7.756299 L37.6425781,7.756299 L37.6425781,16 L39.0136718,16 L39.0136718,10.2014161 L39.0936523,10.2014161 L41.3730956,15.6800781 L42.4242675,15.6800781 L44.7037108,10.2014161 L44.7836913,10.2014161 L44.7836913,16 L46.154785,16 Z M53.5072751,16 L52.8103025,13.8919434 L49.7767576,13.8919434 L49.0683592,16 L47.5772947,16 L50.5022947,7.756299 L52.1590329,7.756299 L55.0897458,16 L53.5072751,16 Z M51.2506834,9.3273439 L50.119531,12.7265137 L52.467529,12.7265137 L51.3478025,9.3273439 L51.2506834,9.3273439 Z M61.7624019,14.7088867 L57.9804684,14.7088867 L57.9804684,7.756299 L56.5065426,7.756299 L56.5065426,16 L61.7624019,16 L61.7624019,14.7088867 Z" mask="url(#action-2-n)"/>
      </g>
      <g transform="translate(0 40)">
        <rect width="81" height="32" fill="#30E60B" fill-rule="nonzero" rx="4"/>
        <rect width="73" height="24" fill="#058B00" fill-rule="nonzero" rx="2" transform="translate(4 4)"/>
        <g transform="translate(4 4)">
          <mask id="action-2-p" fill="#fff">
            <use xlink:href="#action-2-o"/>
          </mask>
          <path fill="#FFF" fill-rule="nonzero" d="M23.868799,16 L23.868799,7.756299 L22.4005862,7.756299 L22.4005862,11.1668946 L18.390137,11.1668946 L18.390137,7.756299 L16.9162113,7.756299 L16.9162113,16 L18.390137,16 L18.390137,12.4408692 L22.4005862,12.4408692 L22.4005862,16 L23.868799,16 Z M29.4617189,7.5506349 C31.85542,7.5506349 33.3521973,9.213086 33.3521973,11.875293 C33.3521973,14.5317871 31.8668458,16.2056641 29.4617189,16.2056641 C27.0394533,16.2056641 25.5541017,14.5375 25.5541017,11.875293 C25.5541017,9.213086 27.0680177,7.5506349 29.4617189,7.5506349 Z M29.4617189,8.8588868 C27.993506,8.8588868 27.0623048,10.0300294 27.0623048,11.875293 C27.0623048,13.7148438 27.9706544,14.8974121 29.4617189,14.8974121 C30.9299317,14.8974121 31.8439942,13.7148438 31.8439942,11.875293 C31.8439942,10.0300294 30.9242188,8.8588868 29.4617189,8.8588868 Z M38.7337402,16 L41.5844726,7.756299 L40.0134277,7.756299 L37.9567871,14.2804199 L37.8596679,14.2804199 L35.7858887,7.756299 L34.1577149,7.756299 L37.0370117,16 L38.7337402,16 Z M48.3428221,14.7260254 L44.4809081,14.7260254 L44.4809081,12.4180176 L48.1314451,12.4180176 L48.1314451,11.2183106 L44.4809081,11.2183106 L44.4809081,9.0302736 L48.3428221,9.0302736 L48.3428221,7.756299 L43.0069823,7.756299 L43.0069823,16 L48.3428221,16 L48.3428221,14.7260254 Z M51.6448728,8.9788575 L51.6448728,11.7381837 L53.3473142,11.7381837 C54.2842282,11.7381837 54.8212399,11.2354493 54.8212399,10.361377 C54.8212399,9.5044435 54.2499509,8.9788575 53.3130368,8.9788575 L51.6448728,8.9788575 Z M51.6448728,12.9093262 L51.6448728,16 L50.170947,16 L50.170947,7.756299 L53.5187009,7.756299 C55.2497067,7.756299 56.3351559,8.7503419 56.3351559,10.3328126 C56.3351559,11.4182618 55.7638669,12.3266114 54.7812497,12.6808106 L56.5808102,16 L54.8955075,16 L53.2787595,12.9093262 L51.6448728,12.9093262 Z" mask="url(#action-2-p)"/>
        </g>
      </g>
      <g transform="translate(0 80)">
        <rect width="81" height="32" fill="#30E60B" fill-rule="nonzero" rx="4"/>
        <rect width="73" height="24" fill="#006504" fill-rule="nonzero" rx="2" transform="translate(4 4)"/>
        <g transform="translate(4 4)">
          <mask id="action-2-r" fill="#fff">
            <use xlink:href="#action-2-q"/>
          </mask>
          <path fill="#FFF" fill-rule="nonzero" d="M10.460645,7.756299 L13.7855472,7.756299 C15.4308597,7.756299 16.5562992,8.8817384 16.5562992,10.5441895 C16.5562992,12.1780762 15.3908695,13.2978028 13.7227054,13.2978028 L11.9345707,13.2978028 L11.9345707,16 L10.460645,16 L10.460645,7.756299 Z M11.9345707,8.9902833 L11.9345707,12.0752442 L13.3913578,12.0752442 C14.4425297,12.0752442 15.0595218,11.5268067 15.0595218,10.5441895 C15.0595218,9.5330079 14.4596683,8.9902833 13.3970707,8.9902833 L11.9345707,8.9902833 Z M19.6526858,8.9788575 L19.6526858,11.7381837 L21.3551272,11.7381837 C22.2920412,11.7381837 22.829053,11.2354493 22.829053,10.361377 C22.829053,9.5044435 22.2577639,8.9788575 21.3208499,8.9788575 L19.6526858,8.9788575 Z M19.6526858,12.9093262 L19.6526858,16 L18.1787601,16 L18.1787601,7.756299 L21.5265139,7.756299 C23.2575197,7.756299 24.3429689,8.7503419 24.3429689,10.3328126 C24.3429689,11.4182618 23.7716799,12.3266114 22.7890627,12.6808106 L24.5886232,16 L22.9033205,16 L21.2865725,12.9093262 L19.6526858,12.9093262 Z M31.4612306,14.7260254 L27.5993166,14.7260254 L27.5993166,12.4180176 L31.2498536,12.4180176 L31.2498536,11.2183106 L27.5993166,11.2183106 L27.5993166,9.0302736 L31.4612306,9.0302736 L31.4612306,7.756299 L26.1253908,7.756299 L26.1253908,16 L31.4612306,16 L31.4612306,14.7260254 Z M32.9123047,13.7605469 C32.9865723,15.2573242 34.2376953,16.2056641 36.1286621,16.2056641 C38.1281738,16.2056641 39.367871,15.2059082 39.367871,13.600586 C39.367871,12.3437501 38.6651855,11.6467774 36.9913086,11.2697266 L36.0429688,11.0526368 C35.0203614,10.8184083 34.6033203,10.4927735 34.6033203,9.9386231 C34.6033203,9.2359376 35.2317383,8.7789064 36.1800781,8.7789064 C37.0827148,8.7789064 37.7225586,9.2359376 37.8253906,9.9614747 L39.2364746,9.9614747 C39.1679199,8.5446779 37.9167969,7.5506349 36.185791,7.5506349 C34.3405274,7.5506349 33.1179688,8.5446779 33.1179688,10.0414552 C33.1179688,11.2697266 33.8206543,12.0124024 35.3174317,12.349463 L36.3857422,12.5951172 C37.4426269,12.8407715 37.8939453,13.1892579 37.8939453,13.7833985 C37.8939453,14.4746582 37.1912598,14.9716797 36.2200684,14.9716797 C35.1746094,14.9716797 34.4433594,14.4975098 34.3519532,13.7605469 L32.9123047,13.7605469 Z M40.6475585,13.7605469 C40.7218261,15.2573242 41.9729491,16.2056641 43.8639159,16.2056641 C45.8634276,16.2056641 47.1031248,15.2059082 47.1031248,13.600586 C47.1031248,12.3437501 46.4004393,11.6467774 44.7265624,11.2697266 L43.7782225,11.0526368 C42.7556151,10.8184083 42.3385741,10.4927735 42.3385741,9.9386231 C42.3385741,9.2359376 42.9669921,8.7789064 43.9153319,8.7789064 C44.8179686,8.7789064 45.4578124,9.2359376 45.5606444,9.9614747 L46.9717283,9.9614747 C46.9031737,8.5446779 45.6520506,7.5506349 43.9210448,7.5506349 C42.0757812,7.5506349 40.8532226,8.5446779 40.8532226,10.0414552 C40.8532226,11.2697266 41.5559081,12.0124024 43.0526854,12.349463 L44.120996,12.5951172 C45.1778807,12.8407715 45.6291991,13.1892579 45.6291991,13.7833985 C45.6291991,14.4746582 44.9265135,14.9716797 43.9553221,14.9716797 C42.9098632,14.9716797 42.1786132,14.4975098 42.0872069,13.7605469 L40.6475585,13.7605469 Z M54.0957028,14.7260254 L50.2337888,14.7260254 L50.2337888,12.4180176 L53.8843259,12.4180176 L53.8843259,11.2183106 L50.2337888,11.2183106 L50.2337888,9.0302736 L54.0957028,9.0302736 L54.0957028,7.756299 L48.7598631,7.756299 L48.7598631,16 L54.0957028,16 L54.0957028,14.7260254 Z M55.9238278,7.756299 L59.0145016,7.756299 C61.4653316,7.756299 62.8935543,9.2530763 62.8935543,11.8410157 C62.8935543,14.486084 61.4824703,16 59.0145016,16 L55.9238278,16 L55.9238278,7.756299 Z M57.3977536,9.0302736 L57.3977536,14.7260254 L58.8202633,14.7260254 C60.4598629,14.7260254 61.391064,13.703418 61.391064,11.8638673 C61.391064,10.0643067 60.4370113,9.0302736 58.8202633,9.0302736 L57.3977536,9.0302736 Z" mask="url(#action-2-r)"/>
        </g>
      </g>
    </g>
    <rect width="81" height="32" fill="#00FEFF" fill-rule="nonzero" rx="4"/>
    <rect width="73" height="24" fill="#00C8D7" fill-rule="nonzero" rx="2" transform="translate(4 4)"/>
    <g transform="translate(4 4)">
      <mask id="action-2-t" fill="#fff">
        <use xlink:href="#action-2-s"/>
      </mask>
      <path fill="#002D3E" fill-rule="nonzero" d="M13.1057133,16 L13.1057133,10.3899415 L13.2028324,10.3899415 L17.2475589,16 L18.5215335,16 L18.5215335,7.756299 L17.1047366,7.756299 L17.1047366,13.3606446 L17.0076175,13.3606446 L12.962891,7.756299 L11.6832035,7.756299 L11.6832035,16 L13.1057133,16 Z M24.1201662,7.5506349 C26.5138674,7.5506349 28.0106447,9.213086 28.0106447,11.875293 C28.0106447,14.5317871 26.5252931,16.2056641 24.1201662,16.2056641 C21.6979006,16.2056641 20.2125491,14.5375 20.2125491,11.875293 C20.2125491,9.213086 21.7264651,7.5506349 24.1201662,7.5506349 Z M24.1201662,8.8588868 C22.6519534,8.8588868 21.7207522,10.0300294 21.7207522,11.875293 C21.7207522,13.7148438 22.6291018,14.8974121 24.1201662,14.8974121 C25.5883791,14.8974121 26.5024416,13.7148438 26.5024416,11.875293 C26.5024416,10.0300294 25.5826662,8.8588868 24.1201662,8.8588868 Z M31.1698731,8.9788575 L31.1698731,11.7381837 L32.8723145,11.7381837 C33.8092286,11.7381837 34.3462403,11.2354493 34.3462403,10.361377 C34.3462403,9.5044435 33.7749512,8.9788575 32.8380372,8.9788575 L31.1698731,8.9788575 Z M31.1698731,12.9093262 L31.1698731,16 L29.6959474,16 L29.6959474,7.756299 L33.0437012,7.756299 C34.7747071,7.756299 35.8601563,8.7503419 35.8601563,10.3328126 C35.8601563,11.4182618 35.2888672,12.3266114 34.30625,12.6808106 L36.1058106,16 L34.4205078,16 L32.8037598,12.9093262 L31.1698731,12.9093262 Z M46.154785,16 L46.154785,7.756299 L44.4294921,7.756299 L41.9500976,13.7605469 L41.8472655,13.7605469 L39.367871,7.756299 L37.6425781,7.756299 L37.6425781,16 L39.0136718,16 L39.0136718,10.2014161 L39.0936523,10.2014161 L41.3730956,15.6800781 L42.4242675,15.6800781 L44.7037108,10.2014161 L44.7836913,10.2014161 L44.7836913,16 L46.154785,16 Z M53.5072751,16 L52.8103025,13.8919434 L49.7767576,13.8919434 L49.0683592,16 L47.5772947,16 L50.5022947,7.756299 L52.1590329,7.756299 L55.0897458,16 L53.5072751,16 Z M51.2506834,9.3273439 L50.119531,12.7265137 L52.467529,12.7265137 L51.3478025,9.3273439 L51.2506834,9.3273439 Z M61.7624019,14.7088867 L57.9804684,14.7088867 L57.9804684,7.756299 L56.5065426,7.756299 L56.5065426,16 L61.7624019,16 L61.7624019,14.7088867 Z" mask="url(#action-2-t)"/>
    </g>
    <g transform="translate(0 40)">
      <rect width="81" height="32" fill="#00FEFF" fill-rule="nonzero" rx="4"/>
      <rect width="73" height="24" fill="#008EA4" fill-rule="nonzero" rx="2" transform="translate(4 4)"/>
      <g transform="translate(4 4)">
        <mask id="action-2-v" fill="#fff">
          <use xlink:href="#action-2-u"/>
        </mask>
        <path fill="#FFF" fill-rule="nonzero" d="M23.868799,16 L23.868799,7.756299 L22.4005862,7.756299 L22.4005862,11.1668946 L18.390137,11.1668946 L18.390137,7.756299 L16.9162113,7.756299 L16.9162113,16 L18.390137,16 L18.390137,12.4408692 L22.4005862,12.4408692 L22.4005862,16 L23.868799,16 Z M29.4617189,7.5506349 C31.85542,7.5506349 33.3521973,9.213086 33.3521973,11.875293 C33.3521973,14.5317871 31.8668458,16.2056641 29.4617189,16.2056641 C27.0394533,16.2056641 25.5541017,14.5375 25.5541017,11.875293 C25.5541017,9.213086 27.0680177,7.5506349 29.4617189,7.5506349 Z M29.4617189,8.8588868 C27.993506,8.8588868 27.0623048,10.0300294 27.0623048,11.875293 C27.0623048,13.7148438 27.9706544,14.8974121 29.4617189,14.8974121 C30.9299317,14.8974121 31.8439942,13.7148438 31.8439942,11.875293 C31.8439942,10.0300294 30.9242188,8.8588868 29.4617189,8.8588868 Z M38.7337402,16 L41.5844726,7.756299 L40.0134277,7.756299 L37.9567871,14.2804199 L37.8596679,14.2804199 L35.7858887,7.756299 L34.1577149,7.756299 L37.0370117,16 L38.7337402,16 Z M48.3428221,14.7260254 L44.4809081,14.7260254 L44.4809081,12.4180176 L48.1314451,12.4180176 L48.1314451,11.2183106 L44.4809081,11.2183106 L44.4809081,9.0302736 L48.3428221,9.0302736 L48.3428221,7.756299 L43.0069823,7.756299 L43.0069823,16 L48.3428221,16 L48.3428221,14.7260254 Z M51.6448728,8.9788575 L51.6448728,11.7381837 L53.3473142,11.7381837 C54.2842282,11.7381837 54.8212399,11.2354493 54.8212399,10.361377 C54.8212399,9.5044435 54.2499509,8.9788575 53.3130368,8.9788575 L51.6448728,8.9788575 Z M51.6448728,12.9093262 L51.6448728,16 L50.170947,16 L50.170947,7.756299 L53.5187009,7.756299 C55.2497067,7.756299 56.3351559,8.7503419 56.3351559,10.3328126 C56.3351559,11.4182618 55.7638669,12.3266114 54.7812497,12.6808106 L56.5808102,16 L54.8955075,16 L53.2787595,12.9093262 L51.6448728,12.9093262 Z" mask="url(#action-2-v)"/>
      </g>
    </g>
    <g transform="translate(0 80)">
      <rect width="81" height="32" fill="#00FEFF" fill-rule="nonzero" rx="4"/>
      <rect width="73" height="24" fill="#005A71" fill-rule="nonzero" rx="2" transform="translate(4 4)"/>
      <g transform="translate(4 4)">
        <mask id="action-2-x" fill="#fff">
          <use xlink:href="#action-2-w"/>
        </mask>
        <path fill="#FFF" fill-rule="nonzero" d="M10.460645,7.756299 L13.7855472,7.756299 C15.4308597,7.756299 16.5562992,8.8817384 16.5562992,10.5441895 C16.5562992,12.1780762 15.3908695,13.2978028 13.7227054,13.2978028 L11.9345707,13.2978028 L11.9345707,16 L10.460645,16 L10.460645,7.756299 Z M11.9345707,8.9902833 L11.9345707,12.0752442 L13.3913578,12.0752442 C14.4425297,12.0752442 15.0595218,11.5268067 15.0595218,10.5441895 C15.0595218,9.5330079 14.4596683,8.9902833 13.3970707,8.9902833 L11.9345707,8.9902833 Z M19.6526858,8.9788575 L19.6526858,11.7381837 L21.3551272,11.7381837 C22.2920412,11.7381837 22.829053,11.2354493 22.829053,10.361377 C22.829053,9.5044435 22.2577639,8.9788575 21.3208499,8.9788575 L19.6526858,8.9788575 Z M19.6526858,12.9093262 L19.6526858,16 L18.1787601,16 L18.1787601,7.756299 L21.5265139,7.756299 C23.2575197,7.756299 24.3429689,8.7503419 24.3429689,10.3328126 C24.3429689,11.4182618 23.7716799,12.3266114 22.7890627,12.6808106 L24.5886232,16 L22.9033205,16 L21.2865725,12.9093262 L19.6526858,12.9093262 Z M31.4612306,14.7260254 L27.5993166,14.7260254 L27.5993166,12.4180176 L31.2498536,12.4180176 L31.2498536,11.2183106 L27.5993166,11.2183106 L27.5993166,9.0302736 L31.4612306,9.0302736 L31.4612306,7.756299 L26.1253908,7.756299 L26.1253908,16 L31.4612306,16 L31.4612306,14.7260254 Z M32.9123047,13.7605469 C32.9865723,15.2573242 34.2376953,16.2056641 36.1286621,16.2056641 C38.1281738,16.2056641 39.367871,15.2059082 39.367871,13.600586 C39.367871,12.3437501 38.6651855,11.6467774 36.9913086,11.2697266 L36.0429688,11.0526368 C35.0203614,10.8184083 34.6033203,10.4927735 34.6033203,9.9386231 C34.6033203,9.2359376 35.2317383,8.7789064 36.1800781,8.7789064 C37.0827148,8.7789064 37.7225586,9.2359376 37.8253906,9.9614747 L39.2364746,9.9614747 C39.1679199,8.5446779 37.9167969,7.5506349 36.185791,7.5506349 C34.3405274,7.5506349 33.1179688,8.5446779 33.1179688,10.0414552 C33.1179688,11.2697266 33.8206543,12.0124024 35.3174317,12.349463 L36.3857422,12.5951172 C37.4426269,12.8407715 37.8939453,13.1892579 37.8939453,13.7833985 C37.8939453,14.4746582 37.1912598,14.9716797 36.2200684,14.9716797 C35.1746094,14.9716797 34.4433594,14.4975098 34.3519532,13.7605469 L32.9123047,13.7605469 Z M40.6475585,13.7605469 C40.7218261,15.2573242 41.9729491,16.2056641 43.8639159,16.2056641 C45.8634276,16.2056641 47.1031248,15.2059082 47.1031248,13.600586 C47.1031248,12.3437501 46.4004393,11.6467774 44.7265624,11.2697266 L43.7782225,11.0526368 C42.7556151,10.8184083 42.3385741,10.4927735 42.3385741,9.9386231 C42.3385741,9.2359376 42.9669921,8.7789064 43.9153319,8.7789064 C44.8179686,8.7789064 45.4578124,9.2359376 45.5606444,9.9614747 L46.9717283,9.9614747 C46.9031737,8.5446779 45.6520506,7.5506349 43.9210448,7.5506349 C42.0757812,7.5506349 40.8532226,8.5446779 40.8532226,10.0414552 C40.8532226,11.2697266 41.5559081,12.0124024 43.0526854,12.349463 L44.120996,12.5951172 C45.1778807,12.8407715 45.6291991,13.1892579 45.6291991,13.7833985 C45.6291991,14.4746582 44.9265135,14.9716797 43.9553221,14.9716797 C42.9098632,14.9716797 42.1786132,14.4975098 42.0872069,13.7605469 L40.6475585,13.7605469 Z M54.0957028,14.7260254 L50.2337888,14.7260254 L50.2337888,12.4180176 L53.8843259,12.4180176 L53.8843259,11.2183106 L50.2337888,11.2183106 L50.2337888,9.0302736 L54.0957028,9.0302736 L54.0957028,7.756299 L48.7598631,7.756299 L48.7598631,16 L54.0957028,16 L54.0957028,14.7260254 Z M55.9238278,7.756299 L59.0145016,7.756299 C61.4653316,7.756299 62.8935543,9.2530763 62.8935543,11.8410157 C62.8935543,14.486084 61.4824703,16 59.0145016,16 L55.9238278,16 L55.9238278,7.756299 Z M57.3977536,9.0302736 L57.3977536,14.7260254 L58.8202633,14.7260254 C60.4598629,14.7260254 61.391064,13.703418 61.391064,11.8638673 C61.391064,10.0643067 60.4370113,9.0302736 58.8202633,9.0302736 L57.3977536,9.0302736 Z" mask="url(#action-2-x)"/>
      </g>
    </g>
  </g>
</svg>
