<svg xmlns="http://www.w3.org/2000/svg" xmlns:xlink="http://www.w3.org/1999/xlink" width="350" height="180" style="background:#f9f9fa" viewBox="0 0 350 180">
  <defs>
    <rect id="btn-attention-a" width="73" height="24" x="4" y="4" rx="2"/>
    <rect id="btn-attention-c" width="73" height="24" x="4" y="4" rx="2"/>
    <rect id="btn-attention-e" width="73" height="24" x="4" y="4" rx="2"/>
  </defs>
  <g fill="none" fill-rule="evenodd" transform="translate(134.5 32)">
    <rect width="81" height="32" fill="#00FEFF" rx="4"/>
    <mask id="btn-attention-b" fill="#fff">
      <use xlink:href="#btn-attention-a"/>
    </mask>
    <use fill="#00C8D7" xlink:href="#btn-attention-a"/>
    <path fill="#002D3E" d="M16.8829105,20 L16.8829105,14.3899415 L16.9800297,14.3899415 L21.0247562,20 L22.2987308,20 L22.2987308,11.756299 L20.8819339,11.756299 L20.8819339,17.3606446 L20.7848148,17.3606446 L16.7400883,11.756299 L15.4604008,11.756299 L15.4604008,20 L16.8829105,20 Z M27.8973635,11.5506349 C30.2910646,11.5506349 31.7878419,13.213086 31.7878419,15.875293 C31.7878419,18.5317871 30.3024904,20.2056641 27.8973635,20.2056641 C25.4750979,20.2056641 23.9897464,18.5375 23.9897464,15.875293 C23.9897464,13.213086 25.5036624,11.5506349 27.8973635,11.5506349 Z M27.8973635,12.8588868 C26.4291506,12.8588868 25.4979495,14.0300294 25.4979495,15.875293 C25.4979495,17.7148438 26.4062991,18.8974121 27.8973635,18.8974121 C29.3655764,18.8974121 30.2796388,17.7148438 30.2796388,15.875293 C30.2796388,14.0300294 29.3598635,12.8588868 27.8973635,12.8588868 Z M34.9470704,12.9788575 L34.9470704,15.7381837 L36.6495118,15.7381837 C37.5864258,15.7381837 38.1234375,15.2354493 38.1234375,14.361377 C38.1234375,13.5044435 37.5521485,12.9788575 36.6152344,12.9788575 L34.9470704,12.9788575 Z M34.9470704,16.9093262 L34.9470704,20 L33.4731446,20 L33.4731446,11.756299 L36.8208985,11.756299 C38.5519043,11.756299 39.6373535,12.7503419 39.6373535,14.3328126 C39.6373535,15.4182618 39.0660645,16.3266114 38.0834473,16.6808106 L39.8830078,20 L38.1977051,20 L36.5809571,16.9093262 L34.9470704,16.9093262 Z M49.9319823,20 L49.9319823,11.756299 L48.2066893,11.756299 L45.7272948,17.7605469 L45.6244628,17.7605469 L43.1450683,11.756299 L41.4197754,11.756299 L41.4197754,20 L42.7908691,20 L42.7908691,14.2014161 L42.8708496,14.2014161 L45.1502929,19.6800781 L46.2014648,19.6800781 L48.4809081,14.2014161 L48.5608885,14.2014161 L48.5608885,20 L49.9319823,20 Z M57.2844724,20 L56.5874997,17.8919434 L53.5539549,17.8919434 L52.8455564,20 L51.354492,20 L54.279492,11.756299 L55.9362302,11.756299 L58.8669431,20 L57.2844724,20 Z M55.0278806,13.3273439 L53.8967283,16.7265137 L56.2447263,16.7265137 L55.1249998,13.3273439 L55.0278806,13.3273439 Z M65.5395992,18.7088867 L61.7576657,18.7088867 L61.7576657,11.756299 L60.2837399,11.756299 L60.2837399,20 L65.5395992,20 L65.5395992,18.7088867 Z" mask="url(#btn-attention-b)"/>
    <g transform="translate(0 40)">
      <rect width="81" height="32" fill="#00FEFF" rx="4"/>
      <mask id="btn-attention-d" fill="#fff">
        <use xlink:href="#btn-attention-c"/>
      </mask>
      <use fill="#008EA4" xlink:href="#btn-attention-c"/>
      <path fill="#FFF" d="M27.6202883,20 L27.6202883,11.756299 L26.1520754,11.756299 L26.1520754,15.1668946 L22.1416263,15.1668946 L22.1416263,11.756299 L20.6677005,11.756299 L20.6677005,20 L22.1416263,20 L22.1416263,16.4408692 L26.1520754,16.4408692 L26.1520754,20 L27.6202883,20 Z M33.2132081,11.5506349 C35.6069093,11.5506349 37.1036866,13.213086 37.1036866,15.875293 C37.1036866,18.5317871 35.618335,20.2056641 33.2132081,20.2056641 C30.7909425,20.2056641 29.305591,18.5375 29.305591,15.875293 C29.305591,13.213086 30.819507,11.5506349 33.2132081,11.5506349 Z M33.2132081,12.8588868 C31.7449953,12.8588868 30.8137941,14.0300294 30.8137941,15.875293 C30.8137941,17.7148438 31.7221437,18.8974121 33.2132081,18.8974121 C34.681421,18.8974121 35.5954835,17.7148438 35.5954835,15.875293 C35.5954835,14.0300294 34.6757081,12.8588868 33.2132081,12.8588868 Z M42.4852295,20 L45.3359618,11.756299 L43.7649169,11.756299 L41.7082763,18.2804199 L41.6111572,18.2804199 L39.5373779,11.756299 L37.9092041,11.756299 L40.788501,20 L42.4852295,20 Z M52.0943113,18.7260254 L48.2323973,18.7260254 L48.2323973,16.4180176 L51.8829344,16.4180176 L51.8829344,15.2183106 L48.2323973,15.2183106 L48.2323973,13.0302736 L52.0943113,13.0302736 L52.0943113,11.756299 L46.7584716,11.756299 L46.7584716,20 L52.0943113,20 L52.0943113,18.7260254 Z M55.3963621,12.9788575 L55.3963621,15.7381837 L57.0988034,15.7381837 C58.0357175,15.7381837 58.5727292,15.2354493 58.5727292,14.361377 C58.5727292,13.5044435 58.0014401,12.9788575 57.0645261,12.9788575 L55.3963621,12.9788575 Z M55.3963621,16.9093262 L55.3963621,20 L53.9224363,20 L53.9224363,11.756299 L57.2701902,11.756299 C59.001196,11.756299 60.0866452,12.7503419 60.0866452,14.3328126 C60.0866452,15.4182618 59.5153561,16.3266114 58.532739,16.6808106 L60.3322995,20 L58.6469968,20 L57.0302488,16.9093262 L55.3963621,16.9093262 Z" mask="url(#btn-attention-d)"/>
    </g>
    <g transform="translate(0 80)">
      <rect width="81" height="32" fill="#00FEFF" rx="4"/>
      <mask id="btn-attention-f" fill="#fff">
        <use xlink:href="#btn-attention-e"/>
      </mask>
      <use fill="#005A71" xlink:href="#btn-attention-e"/>
      <path fill="#FFF" d="M14.2835453,11.756299 L17.6084476,11.756299 C19.2537601,11.756299 20.3791995,12.8817384 20.3791995,14.5441895 C20.3791995,16.1780762 19.2137699,17.2978028 17.5456058,17.2978028 L15.7574711,17.2978028 L15.7574711,20 L14.2835453,20 L14.2835453,11.756299 Z M15.7574711,12.9902833 L15.7574711,16.0752442 L17.2142582,16.0752442 C18.26543,16.0752442 18.8824222,15.5268067 18.8824222,14.5441895 C18.8824222,13.5330079 18.2825687,12.9902833 17.2199711,12.9902833 L15.7574711,12.9902833 Z M23.4755862,12.9788575 L23.4755862,15.7381837 L25.1780276,15.7381837 C26.1149416,15.7381837 26.6519534,15.2354493 26.6519534,14.361377 C26.6519534,13.5044435 26.0806643,12.9788575 25.1437503,12.9788575 L23.4755862,12.9788575 Z M23.4755862,16.9093262 L23.4755862,20 L22.0016605,20 L22.0016605,11.756299 L25.3494143,11.756299 C27.0804201,11.756299 28.1658693,12.7503419 28.1658693,14.3328126 C28.1658693,15.4182618 27.5945803,16.3266114 26.6119631,16.6808106 L28.4115236,20 L26.7262209,20 L25.1094729,16.9093262 L23.4755862,16.9093262 Z M35.2841309,18.7260254 L31.4222169,18.7260254 L31.4222169,16.4180176 L35.072754,16.4180176 L35.072754,15.2183106 L31.4222169,15.2183106 L31.4222169,13.0302736 L35.2841309,13.0302736 L35.2841309,11.756299 L29.9482912,11.756299 L29.9482912,20 L35.2841309,20 L35.2841309,18.7260254 Z M36.7352051,17.7605469 C36.8094727,19.2573242 38.0605957,20.2056641 39.9515625,20.2056641 C41.9510742,20.2056641 43.1907714,19.2059082 43.1907714,17.600586 C43.1907714,16.3437501 42.4880859,15.6467774 40.814209,15.2697266 L39.8658692,15.0526368 C38.8432617,14.8184083 38.4262207,14.4927735 38.4262207,13.9386231 C38.4262207,13.2359376 39.0546387,12.7789064 40.0029785,12.7789064 C40.9056152,12.7789064 41.545459,13.2359376 41.648291,13.9614747 L43.059375,13.9614747 C42.9908203,12.5446779 41.7396972,11.5506349 40.0086914,11.5506349 C38.1634278,11.5506349 36.9408692,12.5446779 36.9408692,14.0414552 C36.9408692,15.2697266 37.6435547,16.0124024 39.1403321,16.349463 L40.2086426,16.5951172 C41.2655273,16.8407715 41.7168457,17.1892579 41.7168457,17.7833985 C41.7168457,18.4746582 41.0141601,18.9716797 40.0429688,18.9716797 C38.9975098,18.9716797 38.2662598,18.4975098 38.1748536,17.7605469 L36.7352051,17.7605469 Z M44.4704589,17.7605469 C44.5447265,19.2573242 45.7958495,20.2056641 47.6868163,20.2056641 C49.686328,20.2056641 50.9260252,19.2059082 50.9260252,17.600586 C50.9260252,16.3437501 50.2233397,15.6467774 48.5494628,15.2697266 L47.6011229,15.0526368 C46.5785155,14.8184083 46.1614745,14.4927735 46.1614745,13.9386231 C46.1614745,13.2359376 46.7898925,12.7789064 47.7382323,12.7789064 C48.640869,12.7789064 49.2807127,13.2359376 49.3835448,13.9614747 L50.7946287,13.9614747 C50.7260741,12.5446779 49.474951,11.5506349 47.7439452,11.5506349 C45.8986816,11.5506349 44.676123,12.5446779 44.676123,14.0414552 C44.676123,15.2697266 45.3788085,16.0124024 46.8755858,16.349463 L47.9438964,16.5951172 C49.0007811,16.8407715 49.4520995,17.1892579 49.4520995,17.7833985 C49.4520995,18.4746582 48.7494139,18.9716797 47.7782225,18.9716797 C46.7327636,18.9716797 46.0015136,18.4975098 45.9101073,17.7605469 L44.4704589,17.7605469 Z M57.9186032,18.7260254 L54.0566892,18.7260254 L54.0566892,16.4180176 L57.7072263,16.4180176 L57.7072263,15.2183106 L54.0566892,15.2183106 L54.0566892,13.0302736 L57.9186032,13.0302736 L57.9186032,11.756299 L52.5827635,11.756299 L52.5827635,20 L57.9186032,20 L57.9186032,18.7260254 Z M59.7467282,11.756299 L62.837402,11.756299 C65.288232,11.756299 66.7164547,13.2530763 66.7164547,15.8410157 C66.7164547,18.486084 65.3053707,20 62.837402,20 L59.7467282,20 L59.7467282,11.756299 Z M61.220654,13.0302736 L61.220654,18.7260254 L62.6431637,18.7260254 C64.2827633,18.7260254 65.2139644,17.703418 65.2139644,15.8638673 C65.2139644,14.0643067 64.2599117,13.0302736 62.6431637,13.0302736 L61.220654,13.0302736 Z" mask="url(#btn-attention-f)"/>
    </g>
  </g>
</svg>
