<svg xmlns="http://www.w3.org/2000/svg" xmlns:xlink="http://www.w3.org/1999/xlink" width="350" height="180" viewBox="0 0 350 180">
  <defs>
    <path id="error-a" d="M7.22254109,5.98945674 L11.7593901,1.45260771 C12.0842229,1.11628355 12.0795773,0.581679455 11.7489489,0.251051076 C11.4183205,-0.0795773034 10.8837165,-0.0842228685 10.5473923,0.240609874 L6.01054326,4.77745891 L1.47369422,0.240609874 C1.13737006,-0.0842228685 0.602765966,-0.0795773034 0.272137586,0.251051076 C-0.0584907931,0.581679455 -0.0631363582,1.11628355 0.261696384,1.45260771 L4.79854542,5.98945674 L0.261696384,10.5263058 C0.0388768524,10.7415121 -0.0504852845,11.0602002 0.0279563816,11.359882 C0.106398048,11.6595638 0.340436167,11.893602 0.640118002,11.9720436 C0.939799836,12.0504853 1.25848791,11.9611231 1.47369422,11.7383036 L6.01054326,7.20145458 L10.5473923,11.7383036 C10.8837165,12.0631364 11.4183205,12.0584908 11.7489489,11.7278624 C12.0795773,11.397234 12.0842229,10.8626299 11.7593901,10.5263058 L7.22254109,5.98945674 Z"/>
    <rect id="error-c" width="44" height="24" x=".846" rx="2"/>
  </defs>
  <g fill="none" fill-rule="evenodd" transform="translate(15 73)">
    <rect width="320" height="32" fill="#D70022" rx="3"/>
    <g transform="translate(292 4)">
      <rect width="24" height="24"/>
      <g transform="translate(6 6)">
        <mask id="error-b" fill="#fff">
          <use xlink:href="#error-a"/>
        </mask>
        <use fill="#0C0C0D" fill-opacity=".8" fill-rule="nonzero" xlink:href="#error-a"/>
        <g fill="#FFF" mask="url(#error-b)">
          <rect width="200" height="200" transform="translate(-89 -91)"/>
        </g>
      </g>
    </g>
    <g transform="translate(4 4)">
      <rect width="24" height="24"/>
      <path fill="#FFF" d="M8,1 C11.8659932,1 15,4.13400675 15,8 C15,11.8659932 11.8659932,15 8,15 C4.13400675,15 1,11.8659932 1,8 C1,4.13400675 4.13400675,1 8,1 Z M8,4 C8.55228475,4 9,4.44771525 9,5 C9,5.55228475 8.55228475,6 8,6 C7.44771525,6 7,5.55228475 7,5 C7,4.44771525 7.44771525,4 8,4 Z M8,7 C8.55228475,7 9,7.44771525 9,8 L9,11 C9,11.5522847 8.55228475,12 8,12 C7.44771525,12 7,11.5522847 7,11 L7,8 C7,7.44771525 7.44771525,7 8,7 Z" transform="matrix(1 0 0 -1 4 20)"/>
    </g>
    <path fill="#FFF" d="M38.8427734,19.9716797 L34.3105469,19.9716797 L34.3105469,16.8232422 L38.6079102,16.8232422 L38.6079102,15.8076172 L34.3105469,15.8076172 L34.3105469,12.8686523 L38.8427734,12.8686523 L38.8427734,11.840332 L33.1679688,11.840332 L33.1679688,21 L38.8427734,21 L38.8427734,19.9716797 Z M40.7724609,21 L41.8642578,21 L41.8642578,16.7597656 C41.8642578,15.7949219 42.6196289,15.0966797 43.6606445,15.0966797 C43.8764648,15.0966797 44.2700195,15.1347656 44.3588867,15.1601562 L44.3588867,14.0683594 C44.2192383,14.0493164 43.9907227,14.0366211 43.8129883,14.0366211 C42.9052734,14.0366211 42.1181641,14.5063477 41.9150391,15.1728516 L41.8134766,15.1728516 L41.8134766,14.1572266 L40.7724609,14.1572266 L40.7724609,21 Z M45.8505859,21 L46.9423828,21 L46.9423828,16.7597656 C46.9423828,15.7949219 47.6977539,15.0966797 48.7387695,15.0966797 C48.9545898,15.0966797 49.3481445,15.1347656 49.4370117,15.1601562 L49.4370117,14.0683594 C49.2973633,14.0493164 49.0688477,14.0366211 48.8911133,14.0366211 C47.9833984,14.0366211 47.1962891,14.5063477 46.9931641,15.1728516 L46.8916016,15.1728516 L46.8916016,14.1572266 L45.8505859,14.1572266 L45.8505859,21 Z M53.4233398,21.1206055 C51.4746094,21.1206055 50.2685547,19.7749023 50.2685547,17.5786133 C50.2685547,15.3759766 51.4746094,14.0366211 53.4233398,14.0366211 C55.3720703,14.0366211 56.578125,15.3759766 56.578125,17.5786133 C56.578125,19.7749023 55.3720703,21.1206055 53.4233398,21.1206055 Z M53.4233398,20.1367188 C54.7182617,20.1367188 55.4482422,19.1972656 55.4482422,17.5786133 C55.4482422,15.9536133 54.7182617,15.0205078 53.4233398,15.0205078 C52.128418,15.0205078 51.3984375,15.9536133 51.3984375,17.5786133 C51.3984375,19.1972656 52.128418,20.1367188 53.4233398,20.1367188 Z M58.2919922,21 L59.3837891,21 L59.3837891,16.7597656 C59.3837891,15.7949219 60.1391602,15.0966797 61.1801758,15.0966797 C61.3959961,15.0966797 61.7895508,15.1347656 61.878418,15.1601562 L61.878418,14.0683594 C61.7387695,14.0493164 61.5102539,14.0366211 61.3325195,14.0366211 C60.4248047,14.0366211 59.6376953,14.5063477 59.4345703,15.1728516 L59.3330078,15.1728516 L59.3330078,14.1572266 L58.2919922,14.1572266 L58.2919922,21 Z M66.9755859,21 L68.0673828,21 L68.0673828,11.4404297 L66.9755859,11.4404297 L66.9755859,21 Z M72.9995117,21.1206055 C71.0507812,21.1206055 69.8447266,19.7749023 69.8447266,17.5786133 C69.8447266,15.3759766 71.0507812,14.0366211 72.9995117,14.0366211 C74.9482422,14.0366211 76.1542969,15.3759766 76.1542969,17.5786133 C76.1542969,19.7749023 74.9482422,21.1206055 72.9995117,21.1206055 Z M72.9995117,20.1367188 C74.2944336,20.1367188 75.0244141,19.1972656 75.0244141,17.5786133 C75.0244141,15.9536133 74.2944336,15.0205078 72.9995117,15.0205078 C71.7045898,15.0205078 70.9746094,15.9536133 70.9746094,17.5786133 C70.9746094,19.1972656 71.7045898,20.1367188 72.9995117,20.1367188 Z M79.9755859,20.1621094 C81.0991211,20.1621094 81.9306641,19.4257812 81.9306641,18.4482422 L81.9306641,17.8198242 L80.0898438,17.9404297 C79.0488281,18.0102539 78.5917969,18.3720703 78.5917969,19.0576172 C78.5917969,19.7558594 79.1821289,20.1621094 79.9755859,20.1621094 Z M79.7724609,21.1206055 C78.4458008,21.1206055 77.4619141,20.3334961 77.4619141,19.0830078 C77.4619141,17.8579102 78.3632812,17.1533203 79.956543,17.0581055 L81.9306641,16.9375 L81.9306641,16.3154297 C81.9306641,15.4711914 81.4038086,15.0078125 80.3818359,15.0078125 C79.5629883,15.0078125 78.9916992,15.3188477 78.8393555,15.8583984 L77.7348633,15.8583984 C77.8808594,14.7602539 78.9599609,14.0366211 80.4199219,14.0366211 C82.0893555,14.0366211 83.0224609,14.8935547 83.0224609,16.3154297 L83.0224609,21 L81.9814453,21 L81.9814453,19.9907227 L81.8798828,19.9907227 C81.4355469,20.7207031 80.6865234,21.1206055 79.7724609,21.1206055 Z M87.5737305,21.1206055 C85.8217773,21.1206055 84.6982422,19.7304688 84.6982422,17.5786133 C84.6982422,15.4331055 85.8344727,14.0366211 87.5737305,14.0366211 C88.5258789,14.0366211 89.3320312,14.4873047 89.7192383,15.2363281 L89.8144531,15.2363281 L89.8144531,11.4404297 L90.90625,11.4404297 L90.90625,21 L89.8652344,21 L89.8652344,19.9082031 L89.7636719,19.9082031 C89.3320312,20.6699219 88.5195312,21.1206055 87.5737305,21.1206055 Z M87.8276367,15.0205078 C86.5834961,15.0205078 85.828125,15.9853516 85.828125,17.5786133 C85.828125,19.1782227 86.5771484,20.1367188 87.8276367,20.1367188 C89.0717773,20.1367188 89.8398438,19.1591797 89.8398438,17.5786133 C89.8398438,16.0107422 89.0654297,15.0205078 87.8276367,15.0205078 Z M93.0517578,21 L94.1435547,21 L94.1435547,14.1572266 L93.0517578,14.1572266 L93.0517578,21 Z M93.5976562,12.7670898 C94.0166016,12.7670898 94.359375,12.4243164 94.359375,12.0053711 C94.359375,11.5864258 94.0166016,11.2436523 93.5976562,11.2436523 C93.1787109,11.2436523 92.8359375,11.5864258 92.8359375,12.0053711 C92.8359375,12.4243164 93.1787109,12.7670898 93.5976562,12.7670898 Z M96.2255859,21 L97.3173828,21 L97.3173828,16.9501953 C97.3173828,15.7504883 98.0219727,15.0205078 99.1137695,15.0205078 C100.205566,15.0205078 100.726074,15.6044922 100.726074,16.8359375 L100.726074,21 L101.817871,21 L101.817871,16.5693359 C101.817871,14.9443359 100.960938,14.0366211 99.4248047,14.0366211 C98.3774414,14.0366211 97.7109375,14.480957 97.3681641,15.2363281 L97.2666016,15.2363281 L97.2666016,14.1572266 L96.2255859,14.1572266 L96.2255859,21 Z M106.578613,19.9335938 C107.848145,19.9335938 108.609863,18.96875 108.609863,17.4770508 C108.609863,15.9853516 107.841797,15.0205078 106.578613,15.0205078 C105.309082,15.0205078 104.598145,15.9853516 104.598145,17.4770508 C104.598145,18.96875 105.309082,19.9335938 106.578613,19.9335938 Z M106.629395,23.6279297 C104.979004,23.6279297 103.925293,22.8852539 103.760254,21.7553711 L104.915527,21.7553711 C105.036133,22.3139648 105.645508,22.6757812 106.629395,22.6757812 C107.854492,22.6757812 108.584473,22.0727539 108.584473,21.0634766 L108.584473,19.7177734 L108.48291,19.7177734 C108.05127,20.4731445 107.276855,20.8984375 106.337402,20.8984375 C104.566406,20.8984375 103.468262,19.5273438 103.468262,17.4770508 C103.468262,15.4267578 104.579102,14.0366211 106.337402,14.0366211 C107.295898,14.0366211 108.140137,14.5063477 108.533691,15.2426758 L108.635254,15.2426758 L108.635254,14.1572266 L109.67627,14.1572266 L109.67627,21.1206055 C109.67627,22.6503906 108.495605,23.6279297 106.629395,23.6279297 Z M115.98584,23.4755859 C117.198242,23.4755859 117.744141,23.0058594 118.328125,21.4189453 L121.000488,14.1572266 L119.838867,14.1572266 L117.966309,19.7875977 L117.864746,19.7875977 L115.98584,14.1572266 L114.805176,14.1572266 L117.337891,21.0063477 L117.210938,21.4125977 C116.925293,22.237793 116.58252,22.5361328 115.954102,22.5361328 C115.801758,22.5361328 115.630371,22.5297852 115.49707,22.5043945 L115.49707,23.4375 C115.649414,23.4628906 115.839844,23.4755859 115.98584,23.4755859 Z M125.018555,21.1206055 C123.069824,21.1206055 121.86377,19.7749023 121.86377,17.5786133 C121.86377,15.3759766 123.069824,14.0366211 125.018555,14.0366211 C126.967285,14.0366211 128.17334,15.3759766 128.17334,17.5786133 C128.17334,19.7749023 126.967285,21.1206055 125.018555,21.1206055 Z M125.018555,20.1367188 C126.313477,20.1367188 127.043457,19.1972656 127.043457,17.5786133 C127.043457,15.9536133 126.313477,15.0205078 125.018555,15.0205078 C123.723633,15.0205078 122.993652,15.9536133 122.993652,17.5786133 C122.993652,19.1972656 123.723633,20.1367188 125.018555,20.1367188 Z M135.422363,14.1572266 L134.330566,14.1572266 L134.330566,18.2070312 C134.330566,19.4067383 133.67041,20.1240234 132.464355,20.1240234 C131.372559,20.1240234 130.915527,19.5527344 130.915527,18.3212891 L130.915527,14.1572266 L129.82373,14.1572266 L129.82373,18.5878906 C129.82373,20.206543 130.623535,21.1206055 132.159668,21.1206055 C133.207031,21.1206055 133.937012,20.6889648 134.279785,19.9272461 L134.381348,19.9272461 L134.381348,21 L135.422363,21 L135.422363,14.1572266 Z M137.479004,21 L138.570801,21 L138.570801,16.7597656 C138.570801,15.7949219 139.326172,15.0966797 140.367188,15.0966797 C140.583008,15.0966797 140.976562,15.1347656 141.06543,15.1601562 L141.06543,14.0683594 C140.925781,14.0493164 140.697266,14.0366211 140.519531,14.0366211 C139.611816,14.0366211 138.824707,14.5063477 138.621582,15.1728516 L138.52002,15.1728516 L138.52002,14.1572266 L137.479004,14.1572266 L137.479004,21 Z M148.828613,15.0014648 C147.736816,15.0014648 146.975098,15.8012695 146.892578,17.0136719 L150.663086,17.0136719 C150.637695,15.8012695 149.914062,15.0014648 148.828613,15.0014648 Z M150.631348,19.2290039 L151.723145,19.2290039 C151.393066,20.4033203 150.339355,21.1206055 148.841309,21.1206055 C146.943359,21.1206055 145.756348,19.7495117 145.756348,17.5849609 C145.756348,15.4331055 146.962402,14.0366211 148.841309,14.0366211 C150.688477,14.0366211 151.812012,15.3505859 151.812012,17.4770508 L151.812012,17.8959961 L146.892578,17.8959961 L146.892578,17.9467773 C146.949707,19.2988281 147.705078,20.1557617 148.866699,20.1557617 C149.749023,20.1557617 150.345703,19.8320312 150.631348,19.2290039 Z M155.696777,18.4165039 L157.31543,21 L158.610352,21 L156.255371,17.5341797 L158.578613,14.1572266 L157.34082,14.1572266 L155.734863,16.7026367 L155.633301,16.7026367 L154.008301,14.1572266 L152.707031,14.1572266 L155.074707,17.5786133 L152.732422,21 L153.970215,21 L155.595215,18.4165039 L155.696777,18.4165039 Z M160.559082,12.3862305 L160.559082,14.1572266 L159.45459,14.1572266 L159.45459,15.0712891 L160.559082,15.0712891 L160.559082,19.2226562 C160.559082,20.5302734 161.124023,21.0507812 162.533203,21.0507812 C162.749023,21.0507812 162.958496,21.0253906 163.174316,20.9873047 L163.174316,20.0668945 C162.971191,20.0859375 162.863281,20.0922852 162.666504,20.0922852 C161.955566,20.0922852 161.650879,19.7495117 161.650879,18.9433594 L161.650879,15.0712891 L163.174316,15.0712891 L163.174316,14.1572266 L161.650879,14.1572266 L161.650879,12.3862305 L160.559082,12.3862305 Z M167.458984,15.0014648 C166.367188,15.0014648 165.605469,15.8012695 165.522949,17.0136719 L169.293457,17.0136719 C169.268066,15.8012695 168.544434,15.0014648 167.458984,15.0014648 Z M169.261719,19.2290039 L170.353516,19.2290039 C170.023438,20.4033203 168.969727,21.1206055 167.47168,21.1206055 C165.57373,21.1206055 164.386719,19.7495117 164.386719,17.5849609 C164.386719,15.4331055 165.592773,14.0366211 167.47168,14.0366211 C169.318848,14.0366211 170.442383,15.3505859 170.442383,17.4770508 L170.442383,17.8959961 L165.522949,17.8959961 L165.522949,17.9467773 C165.580078,19.2988281 166.335449,20.1557617 167.49707,20.1557617 C168.379395,20.1557617 168.976074,19.8320312 169.261719,19.2290039 Z M172.15625,21 L173.248047,21 L173.248047,16.9501953 C173.248047,15.7504883 173.952637,15.0205078 175.044434,15.0205078 C176.13623,15.0205078 176.656738,15.6044922 176.656738,16.8359375 L176.656738,21 L177.748535,21 L177.748535,16.5693359 C177.748535,14.9443359 176.891602,14.0366211 175.355469,14.0366211 C174.308105,14.0366211 173.641602,14.480957 173.298828,15.2363281 L173.197266,15.2363281 L173.197266,14.1572266 L172.15625,14.1572266 L172.15625,21 Z M179.583008,16.0297852 C179.583008,17.0200195 180.166992,17.5722656 181.449219,17.8833008 L182.623535,18.1689453 C183.353516,18.3466797 183.708984,18.6640625 183.708984,19.1337891 C183.708984,19.762207 183.048828,20.2001953 182.128418,20.2001953 C181.252441,20.2001953 180.706543,19.8320312 180.522461,19.2543945 L179.398926,19.2543945 C179.519531,20.390625 180.566895,21.1206055 182.090332,21.1206055 C183.645508,21.1206055 184.83252,20.2763672 184.83252,19.0512695 C184.83252,18.0673828 184.210449,17.5087891 182.921875,17.1977539 L181.868164,16.9438477 C181.062012,16.7470703 180.681152,16.4550781 180.681152,15.9853516 C180.681152,15.3759766 181.315918,14.9633789 182.128418,14.9633789 C182.953613,14.9633789 183.486816,15.3251953 183.632812,15.8710938 L184.711914,15.8710938 C184.565918,14.7475586 183.569336,14.0366211 182.134766,14.0366211 C180.681152,14.0366211 179.583008,14.8935547 179.583008,16.0297852 Z M186.571777,21 L187.663574,21 L187.663574,14.1572266 L186.571777,14.1572266 L186.571777,21 Z M187.117676,12.7670898 C187.536621,12.7670898 187.879395,12.4243164 187.879395,12.0053711 C187.879395,11.5864258 187.536621,11.2436523 187.117676,11.2436523 C186.69873,11.2436523 186.355957,11.5864258 186.355957,12.0053711 C186.355957,12.4243164 186.69873,12.7670898 187.117676,12.7670898 Z M192.557617,21.1206055 C190.608887,21.1206055 189.402832,19.7749023 189.402832,17.5786133 C189.402832,15.3759766 190.608887,14.0366211 192.557617,14.0366211 C194.506348,14.0366211 195.712402,15.3759766 195.712402,17.5786133 C195.712402,19.7749023 194.506348,21.1206055 192.557617,21.1206055 Z M192.557617,20.1367188 C193.852539,20.1367188 194.58252,19.1972656 194.58252,17.5786133 C194.58252,15.9536133 193.852539,15.0205078 192.557617,15.0205078 C191.262695,15.0205078 190.532715,15.9536133 190.532715,17.5786133 C190.532715,19.1972656 191.262695,20.1367188 192.557617,20.1367188 Z M197.42627,21 L198.518066,21 L198.518066,16.9501953 C198.518066,15.7504883 199.222656,15.0205078 200.314453,15.0205078 C201.40625,15.0205078 201.926758,15.6044922 201.926758,16.8359375 L201.926758,21 L203.018555,21 L203.018555,16.5693359 C203.018555,14.9443359 202.161621,14.0366211 200.625488,14.0366211 C199.578125,14.0366211 198.911621,14.480957 198.568848,15.2363281 L198.467285,15.2363281 L198.467285,14.1572266 L197.42627,14.1572266 L197.42627,21 Z"/>
    <g transform="translate(211 4)">
      <mask id="error-d" fill="#fff">
        <use xlink:href="#error-c"/>
      </mask>
      <use fill="#A4000F" xlink:href="#error-c"/>
      <path fill="#FFF" d="M11.0668245,9.10888672 L11.0668245,12.0737305 L12.9735627,12.0737305 C13.9672151,12.0737305 14.5311799,11.5419922 14.5311799,10.5913086 C14.5311799,9.66210938 13.9296174,9.10888672 12.930594,9.10888672 L11.0668245,9.10888672 Z M11.0668245,12.9331055 L11.0668245,16 L10.1000276,16 L10.1000276,8.24951172 L13.0595002,8.24951172 C14.5526643,8.24951172 15.5302034,9.16259766 15.5302034,10.559082 C15.5302034,11.6386719 14.9447541,12.4765625 13.9725862,12.7827148 L15.7665315,16 L14.6332307,16 L12.9735627,12.9331055 L11.0668245,12.9331055 Z M19.3168245,10.9243164 C18.3929963,10.9243164 17.7484651,11.6010742 17.6786409,12.6269531 L20.8690706,12.6269531 C20.8475862,11.6010742 20.2352815,10.9243164 19.3168245,10.9243164 Z M20.8422151,14.5014648 L21.7660432,14.5014648 C21.4867463,15.4951172 20.5951448,16.1020508 19.3275666,16.1020508 C17.7216096,16.1020508 16.7172151,14.9418945 16.7172151,13.1103516 C16.7172151,11.2895508 17.7377229,10.1079102 19.3275666,10.1079102 C20.8905549,10.1079102 21.8412385,11.2197266 21.8412385,13.019043 L21.8412385,13.3735352 L17.6786409,13.3735352 L17.6786409,13.4165039 C17.7269807,14.5605469 18.3661409,15.2856445 19.349051,15.2856445 C20.0956331,15.2856445 20.6005159,15.0117188 20.8422151,14.5014648 Z M23.6781526,8.71142578 L23.6781526,10.2099609 L22.7435823,10.2099609 L22.7435823,10.9833984 L23.6781526,10.9833984 L23.6781526,14.4960938 C23.6781526,15.6025391 24.1561799,16.0429688 25.3485627,16.0429688 C25.5311799,16.0429688 25.708426,16.0214844 25.8910432,15.9892578 L25.8910432,15.2104492 C25.7191682,15.2265625 25.6278596,15.2319336 25.4613557,15.2319336 C24.8597932,15.2319336 24.6019807,14.9418945 24.6019807,14.2597656 L24.6019807,10.9833984 L25.8910432,10.9833984 L25.8910432,10.2099609 L24.6019807,10.2099609 L24.6019807,8.71142578 L23.6781526,8.71142578 Z M27.2875276,16 L28.2113557,16 L28.2113557,12.4121094 C28.2113557,11.5957031 28.8505159,11.0048828 29.7313752,11.0048828 C29.9139924,11.0048828 30.2470002,11.0371094 30.3221956,11.0585938 L30.3221956,10.1347656 C30.2040315,10.1186523 30.0106721,10.1079102 29.8602815,10.1079102 C29.0922151,10.1079102 28.4261995,10.5053711 28.2543245,11.0693359 L28.168387,11.0693359 L28.168387,10.2099609 L27.2875276,10.2099609 L27.2875276,16 Z M31.9711213,18.0947266 C32.9970002,18.0947266 33.4589143,17.6972656 33.9530549,16.3544922 L36.2142854,10.2099609 L35.2313752,10.2099609 L33.6469026,14.9741211 L33.5609651,14.9741211 L31.9711213,10.2099609 L30.9720979,10.2099609 L33.1151643,16.0053711 L33.0077424,16.3491211 C32.7660432,17.0473633 32.4760041,17.2998047 31.9442659,17.2998047 C31.8153596,17.2998047 31.6703401,17.2944336 31.5575471,17.2729492 L31.5575471,18.0625 C31.6864534,18.0839844 31.8475862,18.0947266 31.9711213,18.0947266 Z" mask="url(#error-d)"/>
    </g>
  </g>
</svg>
