<svg xmlns="http://www.w3.org/2000/svg" width="350" height="180" viewBox="0 0 350 180">
  <g fill="none" fill-rule="evenodd">
    <g transform="translate(100 73)">
      <g transform="translate(0 .5)">
        <rect width="32" height="32" x=".356" y=".045" fill="#00FEFF" rx="3"/>
        <g transform="translate(4.356 4.045)">
          <rect width="24" height="24"/>
          <path fill="#0C0C0D" fill-opacity=".8" d="M8,1 C11.8659932,1 15,4.13400675 15,8 C15,11.8659932 11.8659932,15 8,15 C4.13400675,15 1,11.8659932 1,8 C1,4.13400675 4.13400675,1 8,1 Z M8,4 C8.55228475,4 9,4.44771525 9,5 C9,5.55228475 8.55228475,6 8,6 C7.44771525,6 7,5.55228475 7,5 C7,4.44771525 7.44771525,4 8,4 Z M8,7 C8.55228475,7 9,7.44771525 9,8 L9,11 C9,11.5522847 8.55228475,12 8,12 C7.44771525,12 7,11.5522847 7,11 L7,8 C7,7.44771525 7.44771525,7 8,7 Z" transform="matrix(1 0 0 -1 4 20)"/>
        </g>
      </g>
      <g transform="translate(80.672 1)">
        <rect width="32" height="32" x=".356" y=".045" fill="#00FEFF" rx="3"/>
        <g transform="translate(4.356 4.045)">
          <rect width="20" height="20" x="2.002" y="2" stroke="#FFF" stroke-opacity=".8" stroke-width="4"/>
          <rect width="20" height="20" x="2.002" y="2" stroke="#00FEFF" stroke-opacity=".2" stroke-width="4"/>
          <path fill="#0C0C0D" fill-opacity=".8" d="M8,1 C11.8659932,1 15,4.13400675 15,8 C15,11.8659932 11.8659932,15 8,15 C4.13400675,15 1,11.8659932 1,8 C1,4.13400675 4.13400675,1 8,1 Z M8,4 C8.55228475,4 9,4.44771525 9,5 C9,5.55228475 8.55228475,6 8,6 C7.44771525,6 7,5.55228475 7,5 C7,4.44771525 7.44771525,4 8,4 Z M8,7 C8.55228475,7 9,7.44771525 9,8 L9,11 C9,11.5522847 8.55228475,12 8,12 C7.44771525,12 7,11.5522847 7,11 L7,8 C7,7.44771525 7.44771525,7 8,7 Z" transform="matrix(1 0 0 -1 4 20)"/>
        </g>
      </g>
      <g fill="#22E800" transform="translate(75 24)">
        <rect width="1" height="5" x="10"/>
        <rect width="1" height="5" x="13"/>
        <rect width="4" height="1" x="10" y="2"/>
        <polygon points="8 9 12 5 16 9 12 13"/>
        <rect width="24" height="23" y="9" rx="2"/>
      </g>
      <g fill="#FF1AD9" transform="translate(106 6)">
        <rect width="5" height="1" y="3"/>
        <rect width="5" height="1" y="18"/>
        <rect width="1" height="16" x="2" y="3"/>
        <polygon points="5 11 9 7 13 11 9 15"/>
        <rect width="35" height="22" x="9" rx="2"/>
      </g>
    </g>
    <path fill="#FFF" d="M221.894,93.112 L219.866,93.112 L219.866,94 L224.69,94 L224.69,93.112 L222.998,93.112 L222.998,85.732 L222.026,85.732 L219.386,87.376 L219.914,88.144 L221.894,86.944 L221.894,93.112 Z M231.266,86.08 L230.786,86.824 C230.426,86.56 230.078,86.464 229.694,86.464 C228.554,86.464 227.57,87.58 227.51,89.668 C228.038,88.972 228.806,88.612 229.514,88.612 C230.702,88.612 231.842,89.464 231.842,91.3 C231.842,93.088 230.654,94.144 229.238,94.144 C227.222,94.144 226.406,92.368 226.406,90.292 C226.406,87.496 227.69,85.588 229.706,85.588 C230.282,85.588 230.774,85.732 231.266,86.08 Z M229.31,89.488 C228.638,89.488 227.942,89.956 227.522,90.604 C227.558,92.26 228.098,93.268 229.238,93.268 C230.222,93.268 230.714,92.524 230.714,91.336 C230.714,89.956 230.078,89.488 229.31,89.488 Z M234.998,96.424 L233.894,96.556 L233.894,87.676 L234.842,87.676 L234.926,88.54 C235.394,87.892 236.066,87.532 236.798,87.532 C238.478,87.532 239.09,88.84 239.09,90.832 C239.09,92.752 238.286,94.144 236.654,94.144 C235.97,94.144 235.406,93.916 234.998,93.424 L234.998,96.424 Z M236.39,93.244 C237.398,93.244 237.914,92.488 237.914,90.832 C237.914,89.188 237.47,88.408 236.522,88.408 C235.85,88.408 235.334,88.888 234.998,89.392 L234.998,92.476 C235.322,92.968 235.814,93.244 236.39,93.244 Z M243.518,91.36 L245.174,94 L246.506,94 L244.19,90.616 L246.218,87.676 L244.97,87.676 L243.566,89.956 L243.518,89.956 L242.126,87.676 L240.83,87.676 L242.87,90.664 L240.554,94 L241.802,94 L243.47,91.36 L243.518,91.36 Z"/>
    <path fill="#003706" d="M183.270002,119.35 L183.270002,118.62 L182.400002,118.62 L182.400002,116.82 L181.600002,116.82 L181.510002,118.62 L179.660002,118.62 L181.480002,114.31 L180.710002,113.99 L178.690002,118.7 L178.690002,119.35 L181.510002,119.35 L181.510002,121 L182.400002,121 L182.400002,119.35 L183.270002,119.35 Z M185.890002,123.02 L184.970002,123.13 L184.970002,115.73 L185.760002,115.73 L185.830002,116.45 C186.220002,115.91 186.780002,115.61 187.390002,115.61 C188.790002,115.61 189.300002,116.7 189.300002,118.36 C189.300002,119.96 188.630002,121.12 187.270002,121.12 C186.700002,121.12 186.230002,120.93 185.890002,120.52 L185.890002,123.02 Z M187.050002,120.37 C187.890002,120.37 188.320002,119.74 188.320002,118.36 C188.320002,116.99 187.950002,116.34 187.160002,116.34 C186.600002,116.34 186.170002,116.74 185.890002,117.16 L185.890002,119.73 C186.160002,120.14 186.570002,120.37 187.050002,120.37 Z M192.990002,118.8 L194.370002,121 L195.480002,121 L193.550002,118.18 L195.240002,115.73 L194.200002,115.73 L193.030002,117.63 L192.990002,117.63 L191.830002,115.73 L190.750002,115.73 L192.450002,118.22 L190.520002,121 L191.560002,121 L192.950002,118.8 L192.990002,118.8 Z"/>
  </g>
</svg>
