<svg xmlns="http://www.w3.org/2000/svg" xmlns:xlink="http://www.w3.org/1999/xlink" width="380" height="180" viewBox="0 0 380 180">
  <defs>
    <rect id="sizes-one-line-a" width="285" height="32" rx="3"/>
    <path id="sizes-one-line-b" d="M7.22254109,5.98945674 L11.7593901,1.45260771 C12.0842229,1.11628355 12.0795773,0.581679455 11.7489489,0.251051076 C11.4183205,-0.0795773034 10.8837165,-0.0842228685 10.5473923,0.240609874 L6.01054326,4.77745891 L1.47369422,0.240609874 C1.13737006,-0.0842228685 0.602765966,-0.0795773034 0.272137586,0.251051076 C-0.0584907931,0.581679455 -0.0631363582,1.11628355 0.261696384,1.45260771 L4.79854542,5.98945674 L0.261696384,10.5263058 C0.0388768524,10.7415121 -0.0504852845,11.0602002 0.0279563816,11.359882 C0.106398048,11.6595638 0.340436167,11.893602 0.640118002,11.9720436 C0.939799836,12.0504853 1.25848791,11.9611231 1.47369422,11.7383036 L6.01054326,7.20145458 L10.5473923,11.7383036 C10.8837165,12.0631364 11.4183205,12.0584908 11.7489489,11.7278624 C12.0795773,11.397234 12.0842229,10.8626299 11.7593901,10.5263058 L7.22254109,5.98945674 Z"/>
    <path id="sizes-one-line-d" d="M7,0 C3.13400675,-6.66133815e-16 4.4408921e-16,3.13400675 0,7 C-4.4408921e-16,10.8659932 3.13400675,14 7,14 C10.8659932,14 14,10.8659932 14,7 C13.9955914,3.13583434 10.8641657,0.00440863597 7,3.77475828e-15 L7,0 Z M7,13 C3.6862915,13 1,10.3137085 1,7 C1,3.6862915 3.6862915,1 7,1 C10.3137085,1 13,3.6862915 13,7 C12.9961426,10.3121094 10.3121094,12.9961426 7,13 Z M7,6 C6.44771525,6 6,6.44771525 6,7 L6,10 C6,10.5522847 6.44771525,11 7,11 C7.55228475,11 8,10.5522847 8,10 L8,7 C8,6.44771525 7.55228475,6 7,6 Z M7,2.812 C6.34388572,2.812 5.812,3.34388572 5.812,4 C5.812,4.65611428 6.34388572,5.188 7,5.188 C7.65611428,5.188 8.188,4.65611428 8.188,4 C8.188,3.68492281 8.06283607,3.38275036 7.84004286,3.15995714 C7.61724964,2.93716393 7.31507719,2.812 7,2.812 L7,2.812 Z"/>
    <rect id="sizes-one-line-f" width="64" height="24" rx="3"/>
  </defs>
  <g fill="none" fill-rule="evenodd">
    <rect width="380" height="180" fill="none"/>
    <g transform="translate(4.5 47)">
      <g transform="translate(8 26)">
        <use fill="#EDEDF0" xlink:href="#sizes-one-line-a"/>
        <rect width="281" height="28" x="2" y="2" stroke="#00FEFF" stroke-opacity=".3" stroke-width="4" rx="3"/>
        <g transform="translate(257 4)">
          <rect width="24" height="24"/>
          <g transform="translate(6 6)">
            <mask id="sizes-one-line-c" fill="#fff">
              <use xlink:href="#sizes-one-line-b"/>
            </mask>
            <use fill="#0C0C0D" fill-opacity=".8" fill-rule="nonzero" xlink:href="#sizes-one-line-b"/>
            <g fill="#0C0C0D" mask="url(#sizes-one-line-c)">
              <rect width="200" height="200" transform="translate(-89 -91)"/>
            </g>
          </g>
        </g>
        <g transform="translate(4 4)">
          <rect width="24" height="24"/>
          <g transform="translate(5 5)">
            <mask id="sizes-one-line-e" fill="#fff">
              <use xlink:href="#sizes-one-line-d"/>
            </mask>
            <use fill="#0C0C0D" fill-opacity=".8" fill-rule="nonzero" xlink:href="#sizes-one-line-d"/>
            <g fill="#0C0C0D" mask="url(#sizes-one-line-e)">
              <rect width="200" height="200" transform="translate(-94.059 -95.048)"/>
            </g>
          </g>
        </g>
        <path fill="#0C0C0D" d="M42.1943359,21 L42.1943359,11.840332 L40.8676758,11.840332 L37.7319336,19.4194336 L37.6303711,19.4194336 L34.4946289,11.840332 L33.1679688,11.840332 L33.1679688,21 L34.234375,21 L34.234375,14.0048828 L34.3105469,14.0048828 L37.1987305,20.9365234 L38.1635742,20.9365234 L41.0517578,14.0048828 L41.1279297,14.0048828 L41.1279297,21 L42.1943359,21 Z M47.1201172,15.0014648 C46.0283203,15.0014648 45.2666016,15.8012695 45.184082,17.0136719 L48.9545898,17.0136719 C48.9291992,15.8012695 48.2055664,15.0014648 47.1201172,15.0014648 Z M48.9228516,19.2290039 L50.0146484,19.2290039 C49.6845703,20.4033203 48.6308594,21.1206055 47.1328125,21.1206055 C45.2348633,21.1206055 44.0478516,19.7495117 44.0478516,17.5849609 C44.0478516,15.4331055 45.2539062,14.0366211 47.1328125,14.0366211 C48.9799805,14.0366211 50.1035156,15.3505859 50.1035156,17.4770508 L50.1035156,17.8959961 L45.184082,17.8959961 L45.184082,17.9467773 C45.2412109,19.2988281 45.996582,20.1557617 47.1582031,20.1557617 C48.0405273,20.1557617 48.637207,19.8320312 48.9228516,19.2290039 Z M51.6586914,16.0297852 C51.6586914,17.0200195 52.2426758,17.5722656 53.5249023,17.8833008 L54.6992188,18.1689453 C55.4291992,18.3466797 55.784668,18.6640625 55.784668,19.1337891 C55.784668,19.762207 55.1245117,20.2001953 54.2041016,20.2001953 C53.328125,20.2001953 52.7822266,19.8320312 52.5981445,19.2543945 L51.4746094,19.2543945 C51.5952148,20.390625 52.6425781,21.1206055 54.1660156,21.1206055 C55.7211914,21.1206055 56.9082031,20.2763672 56.9082031,19.0512695 C56.9082031,18.0673828 56.2861328,17.5087891 54.9975586,17.1977539 L53.9438477,16.9438477 C53.1376953,16.7470703 52.7568359,16.4550781 52.7568359,15.9853516 C52.7568359,15.3759766 53.3916016,14.9633789 54.2041016,14.9633789 C55.0292969,14.9633789 55.5625,15.3251953 55.7084961,15.8710938 L56.7875977,15.8710938 C56.6416016,14.7475586 55.6450195,14.0366211 54.2104492,14.0366211 C52.7568359,14.0366211 51.6586914,14.8935547 51.6586914,16.0297852 Z M58.3364258,16.0297852 C58.3364258,17.0200195 58.9204102,17.5722656 60.2026367,17.8833008 L61.3769531,18.1689453 C62.1069336,18.3466797 62.4624023,18.6640625 62.4624023,19.1337891 C62.4624023,19.762207 61.8022461,20.2001953 60.8818359,20.2001953 C60.0058594,20.2001953 59.4599609,19.8320312 59.2758789,19.2543945 L58.1523438,19.2543945 C58.2729492,20.390625 59.3203125,21.1206055 60.84375,21.1206055 C62.3989258,21.1206055 63.5859375,20.2763672 63.5859375,19.0512695 C63.5859375,18.0673828 62.9638672,17.5087891 61.675293,17.1977539 L60.621582,16.9438477 C59.8154297,16.7470703 59.4345703,16.4550781 59.4345703,15.9853516 C59.4345703,15.3759766 60.0693359,14.9633789 60.8818359,14.9633789 C61.7070312,14.9633789 62.2402344,15.3251953 62.3862305,15.8710938 L63.465332,15.8710938 C63.3193359,14.7475586 62.3227539,14.0366211 60.8881836,14.0366211 C59.4345703,14.0366211 58.3364258,14.8935547 58.3364258,16.0297852 Z M67.4072266,20.1621094 C68.5307617,20.1621094 69.3623047,19.4257812 69.3623047,18.4482422 L69.3623047,17.8198242 L67.5214844,17.9404297 C66.4804688,18.0102539 66.0234375,18.3720703 66.0234375,19.0576172 C66.0234375,19.7558594 66.6137695,20.1621094 67.4072266,20.1621094 Z M67.2041016,21.1206055 C65.8774414,21.1206055 64.8935547,20.3334961 64.8935547,19.0830078 C64.8935547,17.8579102 65.7949219,17.1533203 67.3881836,17.0581055 L69.3623047,16.9375 L69.3623047,16.3154297 C69.3623047,15.4711914 68.8354492,15.0078125 67.8134766,15.0078125 C66.9946289,15.0078125 66.4233398,15.3188477 66.2709961,15.8583984 L65.1665039,15.8583984 C65.3125,14.7602539 66.3916016,14.0366211 67.8515625,14.0366211 C69.5209961,14.0366211 70.4541016,14.8935547 70.4541016,16.3154297 L70.4541016,21 L69.4130859,21 L69.4130859,19.9907227 L69.3115234,19.9907227 C68.8671875,20.7207031 68.1181641,21.1206055 67.2041016,21.1206055 Z M75.2402344,19.9335938 C76.5097656,19.9335938 77.2714844,18.96875 77.2714844,17.4770508 C77.2714844,15.9853516 76.503418,15.0205078 75.2402344,15.0205078 C73.9707031,15.0205078 73.2597656,15.9853516 73.2597656,17.4770508 C73.2597656,18.96875 73.9707031,19.9335938 75.2402344,19.9335938 Z M75.2910156,23.6279297 C73.640625,23.6279297 72.5869141,22.8852539 72.421875,21.7553711 L73.5771484,21.7553711 C73.6977539,22.3139648 74.3071289,22.6757812 75.2910156,22.6757812 C76.5161133,22.6757812 77.2460938,22.0727539 77.2460938,21.0634766 L77.2460938,19.7177734 L77.1445312,19.7177734 C76.7128906,20.4731445 75.9384766,20.8984375 74.9990234,20.8984375 C73.2280273,20.8984375 72.1298828,19.5273438 72.1298828,17.4770508 C72.1298828,15.4267578 73.2407227,14.0366211 74.9990234,14.0366211 C75.9575195,14.0366211 76.8017578,14.5063477 77.1953125,15.2426758 L77.296875,15.2426758 L77.296875,14.1572266 L78.3378906,14.1572266 L78.3378906,21.1206055 C78.3378906,22.6503906 77.1572266,23.6279297 75.2910156,23.6279297 Z M83.1240234,15.0014648 C82.0322266,15.0014648 81.2705078,15.8012695 81.1879883,17.0136719 L84.9584961,17.0136719 C84.9331055,15.8012695 84.2094727,15.0014648 83.1240234,15.0014648 Z M84.9267578,19.2290039 L86.0185547,19.2290039 C85.6884766,20.4033203 84.6347656,21.1206055 83.1367188,21.1206055 C81.2387695,21.1206055 80.0517578,19.7495117 80.0517578,17.5849609 C80.0517578,15.4331055 81.2578125,14.0366211 83.1367188,14.0366211 C84.9838867,14.0366211 86.1074219,15.3505859 86.1074219,17.4770508 L86.1074219,17.8959961 L81.1879883,17.8959961 L81.1879883,17.9467773 C81.2451172,19.2988281 82.0004883,20.1557617 83.1621094,20.1557617 C84.0444336,20.1557617 84.6411133,19.8320312 84.9267578,19.2290039 Z M94.2578125,19.9335938 C95.5273438,19.9335938 96.2890625,18.96875 96.2890625,17.4770508 C96.2890625,15.9853516 95.5209961,15.0205078 94.2578125,15.0205078 C92.9882812,15.0205078 92.2773438,15.9853516 92.2773438,17.4770508 C92.2773438,18.96875 92.9882812,19.9335938 94.2578125,19.9335938 Z M94.3085938,23.6279297 C92.6582031,23.6279297 91.6044922,22.8852539 91.4394531,21.7553711 L92.5947266,21.7553711 C92.715332,22.3139648 93.324707,22.6757812 94.3085938,22.6757812 C95.5336914,22.6757812 96.2636719,22.0727539 96.2636719,21.0634766 L96.2636719,19.7177734 L96.1621094,19.7177734 C95.7304688,20.4731445 94.9560547,20.8984375 94.0166016,20.8984375 C92.2456055,20.8984375 91.1474609,19.5273438 91.1474609,17.4770508 C91.1474609,15.4267578 92.2583008,14.0366211 94.0166016,14.0366211 C94.9750977,14.0366211 95.8193359,14.5063477 96.2128906,15.2426758 L96.3144531,15.2426758 L96.3144531,14.1572266 L97.3554688,14.1572266 L97.3554688,21.1206055 C97.3554688,22.6503906 96.1748047,23.6279297 94.3085938,23.6279297 Z M102.224121,21.1206055 C100.275391,21.1206055 99.0693359,19.7749023 99.0693359,17.5786133 C99.0693359,15.3759766 100.275391,14.0366211 102.224121,14.0366211 C104.172852,14.0366211 105.378906,15.3759766 105.378906,17.5786133 C105.378906,19.7749023 104.172852,21.1206055 102.224121,21.1206055 Z M102.224121,20.1367188 C103.519043,20.1367188 104.249023,19.1972656 104.249023,17.5786133 C104.249023,15.9536133 103.519043,15.0205078 102.224121,15.0205078 C100.929199,15.0205078 100.199219,15.9536133 100.199219,17.5786133 C100.199219,19.1972656 100.929199,20.1367188 102.224121,20.1367188 Z M109.822266,15.0014648 C108.730469,15.0014648 107.96875,15.8012695 107.88623,17.0136719 L111.656738,17.0136719 C111.631348,15.8012695 110.907715,15.0014648 109.822266,15.0014648 Z M111.625,19.2290039 L112.716797,19.2290039 C112.386719,20.4033203 111.333008,21.1206055 109.834961,21.1206055 C107.937012,21.1206055 106.75,19.7495117 106.75,17.5849609 C106.75,15.4331055 107.956055,14.0366211 109.834961,14.0366211 C111.682129,14.0366211 112.805664,15.3505859 112.805664,17.4770508 L112.805664,17.8959961 L107.88623,17.8959961 L107.88623,17.9467773 C107.943359,19.2988281 108.69873,20.1557617 109.860352,20.1557617 C110.742676,20.1557617 111.339355,19.8320312 111.625,19.2290039 Z M114.36084,16.0297852 C114.36084,17.0200195 114.944824,17.5722656 116.227051,17.8833008 L117.401367,18.1689453 C118.131348,18.3466797 118.486816,18.6640625 118.486816,19.1337891 C118.486816,19.762207 117.82666,20.2001953 116.90625,20.2001953 C116.030273,20.2001953 115.484375,19.8320312 115.300293,19.2543945 L114.176758,19.2543945 C114.297363,20.390625 115.344727,21.1206055 116.868164,21.1206055 C118.42334,21.1206055 119.610352,20.2763672 119.610352,19.0512695 C119.610352,18.0673828 118.988281,17.5087891 117.699707,17.1977539 L116.645996,16.9438477 C115.839844,16.7470703 115.458984,16.4550781 115.458984,15.9853516 C115.458984,15.3759766 116.09375,14.9633789 116.90625,14.9633789 C117.731445,14.9633789 118.264648,15.3251953 118.410645,15.8710938 L119.489746,15.8710938 C119.34375,14.7475586 118.347168,14.0366211 116.912598,14.0366211 C115.458984,14.0366211 114.36084,14.8935547 114.36084,16.0297852 Z M125.056641,21 L126.148438,21 L126.148438,16.9501953 C126.148438,15.7949219 126.821289,15.0205078 128.046387,15.0205078 C129.081055,15.0205078 129.626953,15.6235352 129.626953,16.8359375 L129.626953,21 L130.71875,21 L130.71875,16.5693359 C130.71875,14.9633789 129.804688,14.0366211 128.357422,14.0366211 C127.310059,14.0366211 126.592773,14.480957 126.25,15.2363281 L126.148438,15.2363281 L126.148438,11.4404297 L125.056641,11.4404297 L125.056641,21 Z M135.441406,15.0014648 C134.349609,15.0014648 133.587891,15.8012695 133.505371,17.0136719 L137.275879,17.0136719 C137.250488,15.8012695 136.526855,15.0014648 135.441406,15.0014648 Z M137.244141,19.2290039 L138.335938,19.2290039 C138.005859,20.4033203 136.952148,21.1206055 135.454102,21.1206055 C133.556152,21.1206055 132.369141,19.7495117 132.369141,17.5849609 C132.369141,15.4331055 133.575195,14.0366211 135.454102,14.0366211 C137.30127,14.0366211 138.424805,15.3505859 138.424805,17.4770508 L138.424805,17.8959961 L133.505371,17.8959961 L133.505371,17.9467773 C133.5625,19.2988281 134.317871,20.1557617 135.479492,20.1557617 C136.361816,20.1557617 136.958496,19.8320312 137.244141,19.2290039 Z M140.138672,21 L141.230469,21 L141.230469,16.7597656 C141.230469,15.7949219 141.98584,15.0966797 143.026855,15.0966797 C143.242676,15.0966797 143.63623,15.1347656 143.725098,15.1601562 L143.725098,14.0683594 C143.585449,14.0493164 143.356934,14.0366211 143.179199,14.0366211 C142.271484,14.0366211 141.484375,14.5063477 141.28125,15.1728516 L141.179688,15.1728516 L141.179688,14.1572266 L140.138672,14.1572266 L140.138672,21 Z M147.628906,15.0014648 C146.537109,15.0014648 145.775391,15.8012695 145.692871,17.0136719 L149.463379,17.0136719 C149.437988,15.8012695 148.714355,15.0014648 147.628906,15.0014648 Z M149.431641,19.2290039 L150.523438,19.2290039 C150.193359,20.4033203 149.139648,21.1206055 147.641602,21.1206055 C145.743652,21.1206055 144.556641,19.7495117 144.556641,17.5849609 C144.556641,15.4331055 145.762695,14.0366211 147.641602,14.0366211 C149.48877,14.0366211 150.612305,15.3505859 150.612305,17.4770508 L150.612305,17.8959961 L145.692871,17.8959961 L145.692871,17.9467773 C145.75,19.2988281 146.505371,20.1557617 147.666992,20.1557617 C148.549316,20.1557617 149.145996,19.8320312 149.431641,19.2290039 Z"/>
        <g transform="translate(160 4)">
          <mask id="sizes-one-line-g" fill="#fff">
            <use xlink:href="#sizes-one-line-f"/>
          </mask>
          <use fill="#0060DF" xlink:href="#sizes-one-line-f"/>
          <path fill="#FFF" d="M14.6268557,16 L13.9298831,13.8919434 L10.8963382,13.8919434 L10.1879398,16 L8.69687536,16 L11.6218753,7.75629896 L13.2786136,7.75629896 L16.2093264,16 L14.6268557,16 Z M12.370264,9.32734386 L11.2391117,12.7265137 L13.5871097,12.7265137 L12.4673831,9.32734386 L12.370264,9.32734386 Z M20.6825197,16.2056641 C22.5849122,16.2056641 23.9788575,15.0687988 24.1730958,13.3834961 L22.7220216,13.3834961 C22.5220705,14.3089844 21.7279787,14.8916992 20.6825197,14.8916992 C19.2771486,14.8916992 18.4030764,13.7376953 18.4030764,11.875293 C18.4030764,10.0186036 19.2771486,8.86459973 20.6768068,8.86459973 C21.7165529,8.86459973 22.5106447,9.50444347 22.7163087,10.4927735 L24.1673829,10.4927735 C23.9959962,8.77319348 22.5506349,7.5506349 20.6768068,7.5506349 C18.3402346,7.5506349 16.8948733,9.20166027 16.8948733,11.8810059 C16.8948733,14.5489258 18.3459475,16.2056641 20.6825197,16.2056641 Z M29.120459,16 L29.120459,9.03027355 L31.6626953,9.03027355 L31.6626953,7.75629896 L25.1100099,7.75629896 L25.1100099,9.03027355 L27.6465333,9.03027355 L27.6465333,16 L29.120459,16 Z M34.6791015,16 L34.6791015,7.75629896 L33.2051757,7.75629896 L33.2051757,16 L34.6791015,16 Z M40.2720213,7.5506349 C42.6657225,7.5506349 44.1624998,9.21308605 44.1624998,11.875293 C44.1624998,14.5317871 42.6771482,16.2056641 40.2720213,16.2056641 C37.8497557,16.2056641 36.3644042,14.5375 36.3644042,11.875293 C36.3644042,9.21308605 37.8783202,7.5506349 40.2720213,7.5506349 Z M40.2720213,8.85888684 C38.8038085,8.85888684 37.8726073,10.0300294 37.8726073,11.875293 C37.8726073,13.7148438 38.7809569,14.8974121 40.2720213,14.8974121 C41.7402342,14.8974121 42.6542967,13.7148438 42.6542967,11.875293 C42.6542967,10.0300294 41.7345213,8.85888684 40.2720213,8.85888684 Z M47.2703122,16 L47.2703122,10.3899415 L47.3674314,10.3899415 L51.4121579,16 L52.6861325,16 L52.6861325,7.75629896 L51.2693356,7.75629896 L51.2693356,13.3606446 L51.1722165,13.3606446 L47.12749,7.75629896 L45.8478025,7.75629896 L45.8478025,16 L47.2703122,16 Z" mask="url(#sizes-one-line-g)"/>
        </g>
      </g>
      <g transform="translate(8 17)">
        <rect width="1" height="5" fill="#F50"/>
        <rect width="1" height="5" x="284" fill="#FF1AD9"/>
        <rect width="284" height="1" y="2" fill="#FF1AD9"/>
      </g>
      <g fill="#FF1AD9" transform="translate(297 26)">
        <rect width="5" height="1"/>
        <rect width="5" height="1" y="31"/>
        <rect width="1" height="32" x="2"/>
      </g>
      <rect width="34" height="32" x="232" y="26" fill="#00FEFF" fill-opacity=".2"/>
      <rect width="6" height="32" x="161" y="26" fill="#00FEFF" fill-opacity=".2"/>
      <rect width="4" height="32" x="36" y="26" fill="#00FEFF" fill-opacity=".2"/>
      <path fill="#440027" d="M100.93 11L103.13 4.11 102.17 4.11 100.44 9.97 98.71 4.11 97.69 4.11 99.91 11 100.93 11zM107.29 9.77C107.29 10.23 107.46 10.38 107.73 10.48L107.52 11.12C106.99 11.06 106.65 10.85 106.49 10.33 106.12 10.88 105.56 11.12 104.92 11.12 103.87 11.12 103.24 10.47 103.24 9.53 103.24 8.4 104.09 7.79 105.56 7.79L106.37 7.79 106.37 7.4C106.37 6.64 106 6.36 105.27 6.36 104.88 6.36 104.39 6.46 103.85 6.64L103.62 5.97C104.27 5.73 104.85 5.61 105.44 5.61 106.71 5.61 107.29 6.26 107.29 7.36L107.29 9.77zM105.13 10.43C105.67 10.43 106.07 10.16 106.37 9.61L106.37 8.4 105.68 8.4C104.71 8.4 104.22 8.76 104.22 9.48 104.22 10.1 104.53 10.43 105.13 10.43zM111.47 5.61C110.83 5.61 110.34 6.01 110.06 6.8L109.97 5.73 109.18 5.73 109.18 11 110.1 11 110.1 7.99C110.32 6.98 110.7 6.51 111.36 6.51 111.55 6.51 111.66 6.53 111.82 6.57L111.99 5.67C111.83 5.63 111.64 5.61 111.47 5.61zM113.49 3.2C113.11 3.2 112.85 3.47 112.85 3.83 112.85 4.18 113.11 4.45 113.49 4.45 113.88 4.45 114.14 4.18 114.14 3.83 114.14 3.47 113.88 3.2 113.49 3.2zM113.96 11L113.96 5.73 113.04 5.73 113.04 11 113.96 11zM119.84 8.21C119.84 8.39 119.83 8.56 119.82 8.68L116.46 8.68C116.55 9.9 117.12 10.37 117.88 10.37 118.4 10.37 118.79 10.23 119.25 9.91L119.65 10.46C119.13 10.87 118.54 11.12 117.81 11.12 116.34 11.12 115.48 10.09 115.48 8.42 115.48 6.78 116.31 5.61 117.67 5.61 119.09 5.61 119.84 6.6 119.84 8.21zM118.93 8L118.93 7.94C118.93 6.91 118.52 6.34 117.69 6.34 116.99 6.34 116.53 6.83 116.46 8L118.93 8zM122.79 5.61C121.7 5.61 120.89 6.22 120.89 7.05 120.89 7.8 121.34 8.29 122.48 8.59 123.5 8.86 123.76 9.06 123.76 9.61 123.76 10.07 123.32 10.38 122.63 10.38 122.06 10.38 121.57 10.19 121.17 9.85L120.66 10.43C121.12 10.83 121.76 11.12 122.65 11.12 123.72 11.12 124.73 10.62 124.73 9.52 124.73 8.6 124.09 8.16 122.98 7.88 122.13 7.66 121.85 7.46 121.85 7.03 121.85 6.61 122.22 6.34 122.82 6.34 123.31 6.34 123.72 6.49 124.18 6.82L124.58 6.21C124.08 5.83 123.53 5.61 122.79 5.61zM131.09 5.61C132.28 5.61 133.05 6.6 133.05 8.36 133.05 10.01 132.26 11.12 130.98 11.12 130.4 11.12 129.94 10.86 129.58 10.42L129.49 11 128.68 11 128.68 3.61 129.6 3.5 129.6 6.39C129.96 5.9 130.45 5.61 131.09 5.61zM130.76 10.39C131.53 10.39 132.06 9.8 132.06 8.36 132.06 6.86 131.57 6.34 130.83 6.34 130.25 6.34 129.87 6.74 129.6 7.16L129.6 9.68C129.87 10.1 130.29 10.39 130.76 10.39zM138.17 9.77C138.17 10.23 138.34 10.38 138.61 10.48L138.4 11.12C137.87 11.06 137.53 10.85 137.37 10.33 137 10.88 136.44 11.12 135.8 11.12 134.75 11.12 134.12 10.47 134.12 9.53 134.12 8.4 134.97 7.79 136.44 7.79L137.25 7.79 137.25 7.4C137.25 6.64 136.88 6.36 136.15 6.36 135.76 6.36 135.27 6.46 134.73 6.64L134.5 5.97C135.15 5.73 135.73 5.61 136.32 5.61 137.59 5.61 138.17 6.26 138.17 7.36L138.17 9.77zM136.01 10.43C136.55 10.43 136.95 10.16 137.25 9.61L137.25 8.4 136.56 8.4C135.59 8.4 135.1 8.76 135.1 9.48 135.1 10.1 135.41 10.43 136.01 10.43zM141.49 5.61C140.4 5.61 139.59 6.22 139.59 7.05 139.59 7.8 140.04 8.29 141.18 8.59 142.2 8.86 142.46 9.06 142.46 9.61 142.46 10.07 142.02 10.38 141.33 10.38 140.76 10.38 140.27 10.19 139.87 9.85L139.36 10.43C139.82 10.83 140.46 11.12 141.35 11.12 142.42 11.12 143.43 10.62 143.43 9.52 143.43 8.6 142.79 8.16 141.68 7.88 140.83 7.66 140.55 7.46 140.55 7.03 140.55 6.61 140.92 6.34 141.52 6.34 142.01 6.34 142.42 6.49 142.88 6.82L143.28 6.21C142.78 5.83 142.23 5.61 141.49 5.61zM148.71 8.21C148.71 8.39 148.7 8.56 148.69 8.68L145.33 8.68C145.42 9.9 145.99 10.37 146.75 10.37 147.27 10.37 147.66 10.23 148.12 9.91L148.52 10.46C148 10.87 147.41 11.12 146.68 11.12 145.21 11.12 144.35 10.09 144.35 8.42 144.35 6.78 145.18 5.61 146.54 5.61 147.96 5.61 148.71 6.6 148.71 8.21zM147.8 8L147.8 7.94C147.8 6.91 147.39 6.34 146.56 6.34 145.86 6.34 145.4 6.83 145.33 8L147.8 8zM154.31 3.61L154.31 11 153.5 11 153.41 10.27C153.07 10.8 152.54 11.12 151.89 11.12 150.61 11.12 149.9 10.03 149.9 8.39 149.9 6.78 150.68 5.61 151.97 5.61 152.59 5.61 153.04 5.89 153.39 6.26L153.39 3.5 154.31 3.61zM152.09 10.39C152.68 10.39 153.04 10.1 153.39 9.61L153.39 7.03C153.06 6.61 152.69 6.34 152.17 6.34 151.38 6.34 150.89 7 150.89 8.37 150.89 9.76 151.33 10.39 152.09 10.39zM160.84 5.61C162.34 5.61 163.18 6.69 163.18 8.36 163.18 9.99 162.32 11.12 160.83 11.12 159.33 11.12 158.48 10.04 158.48 8.37 158.48 6.74 159.34 5.61 160.84 5.61zM160.84 6.35C159.96 6.35 159.47 6.99 159.47 8.37 159.47 9.74 159.95 10.38 160.83 10.38 161.71 10.38 162.19 9.74 162.19 8.36 162.19 6.99 161.71 6.35 160.84 6.35zM167.18 5.61C166.49 5.61 165.93 5.97 165.57 6.51L165.49 5.73 164.7 5.73 164.7 11 165.62 11 165.62 7.26C165.97 6.7 166.37 6.33 166.96 6.33 167.47 6.33 167.79 6.56 167.79 7.35L167.79 11 168.71 11 168.71 7.22C168.71 6.22 168.15 5.61 167.18 5.61zM175.63 5.61C177.03 5.61 177.58 6.7 177.58 8.36 177.58 9.96 176.87 11.12 175.51 11.12 174.94 11.12 174.47 10.93 174.13 10.52L174.13 13.02 173.21 13.13 173.21 5.73 174 5.73 174.07 6.44C174.46 5.9 175.03 5.61 175.63 5.61zM175.29 10.37C176.13 10.37 176.59 9.74 176.59 8.36 176.59 6.99 176.19 6.34 175.4 6.34 174.84 6.34 174.41 6.74 174.13 7.16L174.13 9.73C174.4 10.14 174.81 10.37 175.29 10.37zM182.7 9.77C182.7 10.23 182.87 10.38 183.14 10.48L182.93 11.12C182.4 11.06 182.06 10.85 181.9 10.33 181.53 10.88 180.97 11.12 180.33 11.12 179.28 11.12 178.65 10.47 178.65 9.53 178.65 8.4 179.5 7.79 180.97 7.79L181.78 7.79 181.78 7.4C181.78 6.64 181.41 6.36 180.68 6.36 180.29 6.36 179.8 6.46 179.26 6.64L179.03 5.97C179.68 5.73 180.26 5.61 180.85 5.61 182.12 5.61 182.7 6.26 182.7 7.36L182.7 9.77zM180.54 10.43C181.08 10.43 181.48 10.16 181.78 9.61L181.78 8.4 181.09 8.4C180.12 8.4 179.63 8.76 179.63 9.48 179.63 10.1 179.94 10.43 180.54 10.43zM186.88 5.61C186.24 5.61 185.75 6.01 185.47 6.8L185.38 5.73 184.59 5.73 184.59 11 185.51 11 185.51 7.99C185.73 6.98 186.11 6.51 186.77 6.51 186.96 6.51 187.07 6.53 187.23 6.57L187.4 5.67C187.24 5.63 187.05 5.61 186.88 5.61zM192.33 8.21C192.33 8.39 192.32 8.56 192.31 8.68L188.95 8.68C189.04 9.9 189.61 10.37 190.37 10.37 190.89 10.37 191.28 10.23 191.74 9.91L192.14 10.46C191.62 10.87 191.03 11.12 190.3 11.12 188.83 11.12 187.97 10.09 187.97 8.42 187.97 6.78 188.8 5.61 190.16 5.61 191.58 5.61 192.33 6.6 192.33 8.21zM191.42 8L191.42 7.94C191.42 6.91 191.01 6.34 190.18 6.34 189.48 6.34 189.02 6.83 188.95 8L191.42 8zM196.33 5.61C195.64 5.61 195.08 5.97 194.72 6.51L194.64 5.73 193.85 5.73 193.85 11 194.77 11 194.77 7.26C195.12 6.7 195.52 6.33 196.11 6.33 196.62 6.33 196.94 6.56 196.94 7.35L196.94 11 197.86 11 197.86 7.22C197.86 6.22 197.3 5.61 196.33 5.61zM202.37 10.76L202.02 10.13C201.76 10.29 201.55 10.36 201.32 10.36 200.86 10.36 200.69 10.11 200.69 9.58L200.69 6.44 201.84 6.44 201.94 5.73 200.69 5.73 200.69 4.43 199.77 4.54 199.77 5.73 198.85 5.73 198.85 6.44 199.77 6.44 199.77 9.62C199.77 10.6 200.3 11.12 201.19 11.12 201.64 11.12 202.02 11 202.37 10.76zM312.628992 40L314.828992 33.11 313.868992 33.11 312.138992 38.97 310.408992 33.11 309.388992 33.11 311.608992 40 312.628992 40zM318.988992 38.77C318.988992 39.23 319.158992 39.38 319.428992 39.48L319.218992 40.12C318.688992 40.06 318.348992 39.85 318.188992 39.33 317.818992 39.88 317.258992 40.12 316.618992 40.12 315.568992 40.12 314.938992 39.47 314.938992 38.53 314.938992 37.4 315.788992 36.79 317.258992 36.79L318.068992 36.79 318.068992 36.4C318.068992 35.64 317.698992 35.36 316.968992 35.36 316.578992 35.36 316.088992 35.46 315.548992 35.64L315.318992 34.97C315.968992 34.73 316.548992 34.61 317.138992 34.61 318.408992 34.61 318.988992 35.26 318.988992 36.36L318.988992 38.77zM316.828992 39.43C317.368992 39.43 317.768992 39.16 318.068992 38.61L318.068992 37.4 317.378992 37.4C316.408992 37.4 315.918992 37.76 315.918992 38.48 315.918992 39.1 316.228992 39.43 316.828992 39.43zM323.168992 34.61C322.528992 34.61 322.038992 35.01 321.758992 35.8L321.668992 34.73 320.878992 34.73 320.878992 40 321.798992 40 321.798992 36.99C322.018992 35.98 322.398992 35.51 323.058992 35.51 323.248992 35.51 323.358992 35.53 323.518992 35.57L323.688992 34.67C323.528992 34.63 323.338992 34.61 323.168992 34.61zM325.188992 32.2C324.808992 32.2 324.548992 32.47 324.548992 32.83 324.548992 33.18 324.808992 33.45 325.188992 33.45 325.578992 33.45 325.838992 33.18 325.838992 32.83 325.838992 32.47 325.578992 32.2 325.188992 32.2zM325.658992 40L325.658992 34.73 324.738992 34.73 324.738992 40 325.658992 40zM331.538992 37.21C331.538992 37.39 331.528992 37.56 331.518992 37.68L328.158992 37.68C328.248992 38.9 328.818992 39.37 329.578992 39.37 330.098992 39.37 330.488992 39.23 330.948992 38.91L331.348992 39.46C330.828992 39.87 330.238992 40.12 329.508992 40.12 328.038992 40.12 327.178992 39.09 327.178992 37.42 327.178992 35.78 328.008992 34.61 329.368992 34.61 330.788992 34.61 331.538992 35.6 331.538992 37.21zM330.628992 37L330.628992 36.94C330.628992 35.91 330.218992 35.34 329.388992 35.34 328.688992 35.34 328.228992 35.83 328.158992 37L330.628992 37zM334.488992 34.61C333.398992 34.61 332.588992 35.22 332.588992 36.05 332.588992 36.8 333.038992 37.29 334.178992 37.59 335.198992 37.86 335.458992 38.06 335.458992 38.61 335.458992 39.07 335.018992 39.38 334.328992 39.38 333.758992 39.38 333.268992 39.19 332.868992 38.85L332.358992 39.43C332.818992 39.83 333.458992 40.12 334.348992 40.12 335.418992 40.12 336.428992 39.62 336.428992 38.52 336.428992 37.6 335.788992 37.16 334.678992 36.88 333.828992 36.66 333.548992 36.46 333.548992 36.03 333.548992 35.61 333.918992 35.34 334.518992 35.34 335.008992 35.34 335.418992 35.49 335.878992 35.82L336.278992 35.21C335.778992 34.83 335.228992 34.61 334.488992 34.61zM342.788992 34.61C343.978992 34.61 344.748992 35.6 344.748992 37.36 344.748992 39.01 343.958992 40.12 342.678992 40.12 342.098992 40.12 341.638992 39.86 341.278992 39.42L341.188992 40 340.378992 40 340.378992 32.61 341.298992 32.5 341.298992 35.39C341.658992 34.9 342.148992 34.61 342.788992 34.61zM342.458992 39.39C343.228992 39.39 343.758992 38.8 343.758992 37.36 343.758992 35.86 343.268992 35.34 342.528992 35.34 341.948992 35.34 341.568992 35.74 341.298992 36.16L341.298992 38.68C341.568992 39.1 341.988992 39.39 342.458992 39.39zM349.868992 38.77C349.868992 39.23 350.038992 39.38 350.308992 39.48L350.098992 40.12C349.568992 40.06 349.228992 39.85 349.068992 39.33 348.698992 39.88 348.138992 40.12 347.498992 40.12 346.448992 40.12 345.818992 39.47 345.818992 38.53 345.818992 37.4 346.668992 36.79 348.138992 36.79L348.948992 36.79 348.948992 36.4C348.948992 35.64 348.578992 35.36 347.848992 35.36 347.458992 35.36 346.968992 35.46 346.428992 35.64L346.198992 34.97C346.848992 34.73 347.428992 34.61 348.018992 34.61 349.288992 34.61 349.868992 35.26 349.868992 36.36L349.868992 38.77zM347.708992 39.43C348.248992 39.43 348.648992 39.16 348.948992 38.61L348.948992 37.4 348.258992 37.4C347.288992 37.4 346.798992 37.76 346.798992 38.48 346.798992 39.1 347.108992 39.43 347.708992 39.43zM353.188992 34.61C352.098992 34.61 351.288992 35.22 351.288992 36.05 351.288992 36.8 351.738992 37.29 352.878992 37.59 353.898992 37.86 354.158992 38.06 354.158992 38.61 354.158992 39.07 353.718992 39.38 353.028992 39.38 352.458992 39.38 351.968992 39.19 351.568992 38.85L351.058992 39.43C351.518992 39.83 352.158992 40.12 353.048992 40.12 354.118992 40.12 355.128992 39.62 355.128992 38.52 355.128992 37.6 354.488992 37.16 353.378992 36.88 352.528992 36.66 352.248992 36.46 352.248992 36.03 352.248992 35.61 352.618992 35.34 353.218992 35.34 353.708992 35.34 354.118992 35.49 354.578992 35.82L354.978992 35.21C354.478992 34.83 353.928992 34.61 353.188992 34.61zM360.408992 37.21C360.408992 37.39 360.398992 37.56 360.388992 37.68L357.028992 37.68C357.118992 38.9 357.688992 39.37 358.448992 39.37 358.968992 39.37 359.358992 39.23 359.818992 38.91L360.218992 39.46C359.698992 39.87 359.108992 40.12 358.378992 40.12 356.908992 40.12 356.048992 39.09 356.048992 37.42 356.048992 35.78 356.878992 34.61 358.238992 34.61 359.658992 34.61 360.408992 35.6 360.408992 37.21zM359.498992 37L359.498992 36.94C359.498992 35.91 359.088992 35.34 358.258992 35.34 357.558992 35.34 357.098992 35.83 357.028992 37L359.498992 37zM366.008992 32.61L366.008992 40 365.198992 40 365.108992 39.27C364.768992 39.8 364.238992 40.12 363.588992 40.12 362.308992 40.12 361.598992 39.03 361.598992 37.39 361.598992 35.78 362.378992 34.61 363.668992 34.61 364.288992 34.61 364.738992 34.89 365.088992 35.26L365.088992 32.5 366.008992 32.61zM363.788992 39.39C364.378992 39.39 364.738992 39.1 365.088992 38.61L365.088992 36.03C364.758992 35.61 364.388992 35.34 363.868992 35.34 363.078992 35.34 362.588992 36 362.588992 37.37 362.588992 38.76 363.028992 39.39 363.788992 39.39zM307.658992 46.61C309.158992 46.61 309.998992 47.69 309.998992 49.36 309.998992 50.99 309.138992 52.12 307.648992 52.12 306.148992 52.12 305.298992 51.04 305.298992 49.37 305.298992 47.74 306.158992 46.61 307.658992 46.61zM307.658992 47.35C306.778992 47.35 306.288992 47.99 306.288992 49.37 306.288992 50.74 306.768992 51.38 307.648992 51.38 308.528992 51.38 309.008992 50.74 309.008992 49.36 309.008992 47.99 308.528992 47.35 307.658992 47.35zM313.998992 46.61C313.308992 46.61 312.748992 46.97 312.388992 47.51L312.308992 46.73 311.518992 46.73 311.518992 52 312.438992 52 312.438992 48.26C312.788992 47.7 313.188992 47.33 313.778992 47.33 314.288992 47.33 314.608992 47.56 314.608992 48.35L314.608992 52 315.528992 52 315.528992 48.22C315.528992 47.22 314.968992 46.61 313.998992 46.61zM322.688992 51.76L322.338992 51.13C322.078992 51.29 321.868992 51.36 321.638992 51.36 321.178992 51.36 321.008992 51.11 321.008992 50.58L321.008992 47.44 322.158992 47.44 322.258992 46.73 321.008992 46.73 321.008992 45.43 320.088992 45.54 320.088992 46.73 319.168992 46.73 319.168992 47.44 320.088992 47.44 320.088992 50.62C320.088992 51.6 320.618992 52.12 321.508992 52.12 321.958992 52.12 322.338992 52 322.688992 51.76zM326.118992 46.61C325.458992 46.61 324.938992 46.94 324.558992 47.46L324.558992 44.52 323.638992 44.62 323.638992 52 324.558992 52 324.558992 48.25C324.908992 47.7 325.318992 47.33 325.888992 47.33 326.388992 47.33 326.728992 47.56 326.728992 48.35L326.728992 52 327.648992 52 327.648992 48.22C327.648992 47.23 327.078992 46.61 326.118992 46.61zM333.478992 49.21C333.478992 49.39 333.468992 49.56 333.458992 49.68L330.098992 49.68C330.188992 50.9 330.758992 51.37 331.518992 51.37 332.038992 51.37 332.428992 51.23 332.888992 50.91L333.288992 51.46C332.768992 51.87 332.178992 52.12 331.448992 52.12 329.978992 52.12 329.118992 51.09 329.118992 49.42 329.118992 47.78 329.948992 46.61 331.308992 46.61 332.728992 46.61 333.478992 47.6 333.478992 49.21zM332.568992 49L332.568992 48.94C332.568992 47.91 332.158992 47.34 331.328992 47.34 330.628992 47.34 330.168992 47.83 330.098992 49L332.568992 49zM339.568992 46.61C338.138992 46.61 337.268992 47.73 337.268992 49.41 337.268992 51.11 338.148992 52.12 339.568992 52.12 340.178992 52.12 340.708992 51.92 341.178992 51.54L340.738992 50.91C340.358992 51.2 340.048992 51.34 339.608992 51.34 338.778992 51.34 338.258992 50.77 338.258992 49.39 338.258992 48.02 338.778992 47.37 339.608992 47.37 340.048992 47.37 340.378992 47.5 340.728992 47.78L341.178992 47.18C340.688992 46.77 340.188992 46.61 339.568992 46.61zM344.308992 46.61C345.808992 46.61 346.648992 47.69 346.648992 49.36 346.648992 50.99 345.788992 52.12 344.298992 52.12 342.798992 52.12 341.948992 51.04 341.948992 49.37 341.948992 47.74 342.808992 46.61 344.308992 46.61zM344.308992 47.35C343.428992 47.35 342.938992 47.99 342.938992 49.37 342.938992 50.74 343.418992 51.38 344.298992 51.38 345.178992 51.38 345.658992 50.74 345.658992 49.36 345.658992 47.99 345.178992 47.35 344.308992 47.35zM350.648992 46.61C349.958992 46.61 349.398992 46.97 349.038992 47.51L348.958992 46.73 348.168992 46.73 348.168992 52 349.088992 52 349.088992 48.26C349.438992 47.7 349.838992 47.33 350.428992 47.33 350.938992 47.33 351.258992 47.56 351.258992 48.35L351.258992 52 352.178992 52 352.178992 48.22C352.178992 47.22 351.618992 46.61 350.648992 46.61zM356.688992 51.76L356.338992 51.13C356.078992 51.29 355.868992 51.36 355.638992 51.36 355.178992 51.36 355.008992 51.11 355.008992 50.58L355.008992 47.44 356.158992 47.44 356.258992 46.73 355.008992 46.73 355.008992 45.43 354.088992 45.54 354.088992 46.73 353.168992 46.73 353.168992 47.44 354.088992 47.44 354.088992 50.62C354.088992 51.6 354.618992 52.12 355.508992 52.12 355.958992 52.12 356.338992 52 356.688992 51.76zM361.518992 49.21C361.518992 49.39 361.508992 49.56 361.498992 49.68L358.138992 49.68C358.228992 50.9 358.798992 51.37 359.558992 51.37 360.078992 51.37 360.468992 51.23 360.928992 50.91L361.328992 51.46C360.808992 51.87 360.218992 52.12 359.488992 52.12 358.018992 52.12 357.158992 51.09 357.158992 49.42 357.158992 47.78 357.988992 46.61 359.348992 46.61 360.768992 46.61 361.518992 47.6 361.518992 49.21zM360.608992 49L360.608992 48.94C360.608992 47.91 360.198992 47.34 359.368992 47.34 358.668992 47.34 358.208992 47.83 358.138992 49L360.608992 49zM365.518992 46.61C364.828992 46.61 364.268992 46.97 363.908992 47.51L363.828992 46.73 363.038992 46.73 363.038992 52 363.958992 52 363.958992 48.26C364.308992 47.7 364.708992 47.33 365.298992 47.33 365.808992 47.33 366.128992 47.56 366.128992 48.35L366.128992 52 367.048992 52 367.048992 48.22C367.048992 47.22 366.488992 46.61 365.518992 46.61zM371.558992 51.76L371.208992 51.13C370.948992 51.29 370.738992 51.36 370.508992 51.36 370.048992 51.36 369.878992 51.11 369.878992 50.58L369.878992 47.44 371.028992 47.44 371.128992 46.73 369.878992 46.73 369.878992 45.43 368.958992 45.54 368.958992 46.73 368.038992 46.73 368.038992 47.44 368.958992 47.44 368.958992 50.62C368.958992 51.6 369.488992 52.12 370.378992 52.12 370.828992 52.12 371.208992 52 371.558992 51.76z"/>
      <g transform="translate(28 26)">
        <rect width="1" height="32" x="8" fill="#00FEFF" fill-opacity=".5"/>
        <rect width="1" height="32" x="11" fill="#00FEFF" fill-opacity=".5"/>
        <rect width="4" height="1" x="8" y="29" fill="#00FEFF" fill-opacity=".5"/>
        <path fill="#00FEFF" fill-opacity=".5" d="M14,36 L10,32 L6,36 L2,36 L2,36 C0.8954305,36 -1.3527075e-16,36.8954305 -5.91645679e-31,38 L-5.91645679e-31,56 C1.3527075e-16,57.1045695 0.8954305,58 2,58 L27,58 C28.1045695,58 29,57.1045695 29,56 L29,38 C29,36.8954305 28.1045695,36 27,36 L14,36 Z"/>
        <text fill="#002D3E" font-family="FiraSans-Regular, Fira Sans" font-size="10">
          <tspan x="6.545" y="51">4px</tspan>
        </text>
      </g>
      <g transform="translate(0 26)">
        <rect width="1" height="32" x="8" fill="#00FEFF" fill-opacity=".5"/>
        <rect width="1" height="32" x="11" fill="#00FEFF" fill-opacity=".5"/>
        <rect width="4" height="1" x="8" y="29" fill="#00FEFF" fill-opacity=".5"/>
        <path fill="#00FEFF" fill-opacity=".5" d="M14,36 L10,32 L6,36 L2,36 L2,36 C0.8954305,36 -1.3527075e-16,36.8954305 -5.91645679e-31,38 L-5.91645679e-31,56 C1.3527075e-16,57.1045695 0.8954305,58 2,58 L27,58 C28.1045695,58 29,57.1045695 29,56 L29,38 C29,36.8954305 28.1045695,36 27,36 L14,36 Z"/>
        <text fill="#002D3E" font-family="FiraSans-Regular, Fira Sans" font-size="10">
          <tspan x="6.545" y="51">4px</tspan>
        </text>
      </g>
      <g transform="translate(281 26)">
        <rect width="1" height="32" x="8" fill="#00FEFF" fill-opacity=".5"/>
        <rect width="1" height="32" x="11" fill="#00FEFF" fill-opacity=".5"/>
        <rect width="4" height="1" x="8" y="29" fill="#00FEFF" fill-opacity=".5"/>
        <path fill="#00FEFF" fill-opacity=".5" d="M14,36 L10,32 L6,36 L2,36 L2,36 C0.8954305,36 -1.91162759e-15,36.8954305 -1.77635684e-15,38 L-1.77635684e-15,56 C-1.64108609e-15,57.1045695 0.8954305,58 2,58 L27,58 C28.1045695,58 29,57.1045695 29,56 L29,38 C29,36.8954305 28.1045695,36 27,36 L14,36 Z"/>
        <text fill="#002D3E" font-family="FiraSans-Regular, Fira Sans" font-size="10">
          <tspan x="6.545" y="51">4px</tspan>
        </text>
      </g>
      <g transform="translate(232 48)">
        <rect width="1" height="5" fill="#00FEFF" fill-opacity=".5"/>
        <rect width="1" height="5" x="33" fill="#00FEFF" fill-opacity=".5"/>
        <rect width="33" height="1" y="2" fill="#00FEFF" fill-opacity=".5"/>
        <text fill="#002D3E" font-family="FiraSans-Regular, Fira Sans" font-size="10">
          <tspan x=".275" y="24">Varies</tspan>
        </text>
      </g>
      <g transform="translate(149 25)">
        <rect width="1" height="32.027" x="11" y=".973" fill="#00FEFF" fill-opacity=".5"/>
        <rect width="1" height="32.027" x="18" y=".973" fill="#00FEFF" fill-opacity=".5"/>
        <rect width="8" height="1" x="44" y="30" fill="#00FEFF" fill-opacity=".5"/>
        <path fill="#00FEFF" fill-opacity=".5" d="M19,37 L15,33 L11,37 L2,37 L2,37 C0.8954305,37 -1.3527075e-16,37.8954305 0,39 L0,57 C1.3527075e-16,58.1045695 0.8954305,59 2,59 L27,59 C28.1045695,59 29,58.1045695 29,57 L29,39 C29,37.8954305 28.1045695,37 27,37 L19,37 Z"/>
        <text fill="#002D3E" font-family="FiraSans-Regular, Fira Sans" font-size="10">
          <tspan x="1.875" y="52">4px*2</tspan>
        </text>
      </g>
    </g>
  </g>
</svg>
