<svg xmlns="http://www.w3.org/2000/svg" xmlns:xlink="http://www.w3.org/1999/xlink" width="380" height="180" viewBox="0 0 380 180">
  <defs>
    <path id="t-warn-a" d="M7.22254109,5.98945674 L11.7593901,1.45260771 C12.0842229,1.11628355 12.0795773,0.581679455 11.7489489,0.251051076 C11.4183205,-0.0795773034 10.8837165,-0.0842228685 10.5473923,0.240609874 L6.01054326,4.77745891 L1.47369422,0.240609874 C1.13737006,-0.0842228685 0.602765966,-0.0795773034 0.272137586,0.251051076 C-0.0584907931,0.581679455 -0.0631363582,1.11628355 0.261696384,1.45260771 L4.79854542,5.98945674 L0.261696384,10.5263058 C0.0388768524,10.7415121 -0.0504852845,11.0602002 0.0279563816,11.359882 C0.106398048,11.6595638 0.340436167,11.893602 0.640118002,11.9720436 C0.939799836,12.0504853 1.25848791,11.9611231 1.47369422,11.7383036 L6.01054326,7.20145458 L10.5473923,11.7383036 C10.8837165,12.0631364 11.4183205,12.0584908 11.7489489,11.7278624 C12.0795773,11.397234 12.0842229,10.8626299 11.7593901,10.5263058 L7.22254109,5.98945674 Z"/>
    <path id="t-warn-c" d="M13.6929417,11.0118641 L8.73994165,1.1058641 C8.40121551,0.428135952 7.70860308,0 6.95094165,0 C6.19328022,0 5.50066779,0.428135952 5.16194165,1.1058641 L0.208941651,11.0158641 C-0.0989581202,11.6354894 -0.0647229393,12.3702439 0.299459428,12.9585541 C0.663641796,13.5468644 1.30603325,13.9051512 1.99794165,13.9058641 L11.9029417,13.9058641 C12.5961777,13.9061872 13.2401412,13.5474994 13.6048048,12.957926 C13.9694684,12.3683526 14.0028183,11.6319873 13.6929417,11.0118641 L13.6929417,11.0118641 Z M5.95094165,3.9058641 C5.95094165,3.35357935 6.3986569,2.9058641 6.95094165,2.9058641 C7.5032264,2.9058641 7.95094165,3.35357935 7.95094165,3.9058641 L7.95094165,7.9058641 C7.95094165,8.45814885 7.5032264,8.9058641 6.95094165,8.9058641 C6.3986569,8.9058641 5.95094165,8.45814885 5.95094165,7.9058641 L5.95094165,3.9058641 Z M6.95094165,12.1558641 C6.26058571,12.1558641 5.70094165,11.59622 5.70094165,10.9058641 C5.70094165,10.2155082 6.26058571,9.6558641 6.95094165,9.6558641 C7.64129759,9.6558641 8.20094165,10.2155082 8.20094165,10.9058641 C8.20094165,11.59622 7.64129759,12.1558641 6.95094165,12.1558641 L6.95094165,12.1558641 Z"/>
    <rect id="t-warn-e" width="64" height="24" x="160" y="4.027" rx="3"/>
  </defs>
  <g fill="none" fill-rule="evenodd">
    <g transform="translate(47.5 73.5)">
      <rect width="285" height="32" y=".027" fill="#FFE900" rx="3"/>
      <g transform="translate(257 4.027)">
        <rect width="24" height="24"/>
        <g transform="translate(6 6)">
          <mask id="t-warn-b" fill="#fff">
            <use xlink:href="#t-warn-a"/>
          </mask>
          <use fill="#0C0C0D" fill-opacity=".8" fill-rule="nonzero" xlink:href="#t-warn-a"/>
          <g fill="#3E2800" mask="url(#t-warn-b)">
            <rect width="200" height="200" transform="translate(-89 -91)"/>
          </g>
        </g>
      </g>
      <g transform="translate(4 4.027)">
        <rect width="24" height="24"/>
        <g transform="translate(5 5)">
          <mask id="t-warn-d" fill="#fff">
            <use xlink:href="#t-warn-c"/>
          </mask>
          <use fill="#0C0C0D" fill-opacity=".8" fill-rule="nonzero" xlink:href="#t-warn-c"/>
          <g fill="#3E2800" mask="url(#t-warn-d)">
            <rect width="200" height="200" transform="translate(-93 -93)"/>
          </g>
        </g>
      </g>
      <path fill="#3E2800" d="M42.1943359,21.0266628 L42.1943359,11.8669949 L40.8676758,11.8669949 L37.7319336,19.4460964 L37.6303711,19.4460964 L34.4946289,11.8669949 L33.1679688,11.8669949 L33.1679688,21.0266628 L34.234375,21.0266628 L34.234375,14.0315456 L34.3105469,14.0315456 L37.1987305,20.9631863 L38.1635742,20.9631863 L41.0517578,14.0315456 L41.1279297,14.0315456 L41.1279297,21.0266628 L42.1943359,21.0266628 Z M47.1201172,15.0281277 C46.0283203,15.0281277 45.2666016,15.8279324 45.184082,17.0403347 L48.9545898,17.0403347 C48.9291992,15.8279324 48.2055664,15.0281277 47.1201172,15.0281277 Z M48.9228516,19.2556667 L50.0146484,19.2556667 C49.6845703,20.4299831 48.6308594,21.1472683 47.1328125,21.1472683 C45.2348633,21.1472683 44.0478516,19.7761745 44.0478516,17.6116238 C44.0478516,15.4597683 45.2539062,14.0632839 47.1328125,14.0632839 C48.9799805,14.0632839 50.1035156,15.3772488 50.1035156,17.5037136 L50.1035156,17.9226589 L45.184082,17.9226589 L45.184082,17.9734402 C45.2412109,19.325491 45.996582,20.1824245 47.1582031,20.1824245 C48.0405273,20.1824245 48.637207,19.8586941 48.9228516,19.2556667 Z M51.6586914,16.056448 C51.6586914,17.0466824 52.2426758,17.5989285 53.5249023,17.9099636 L54.6992188,18.1956081 C55.4291992,18.3733425 55.784668,18.6907253 55.784668,19.1604519 C55.784668,19.7888699 55.1245117,20.2268581 54.2041016,20.2268581 C53.328125,20.2268581 52.7822266,19.8586941 52.5981445,19.2810574 L51.4746094,19.2810574 C51.5952148,20.4172878 52.6425781,21.1472683 54.1660156,21.1472683 C55.7211914,21.1472683 56.9082031,20.30303 56.9082031,19.0779324 C56.9082031,18.0940456 56.2861328,17.5354519 54.9975586,17.2244167 L53.9438477,16.9705105 C53.1376953,16.7737331 52.7568359,16.481741 52.7568359,16.0120144 C52.7568359,15.4026394 53.3916016,14.9900417 54.2041016,14.9900417 C55.0292969,14.9900417 55.5625,15.3518581 55.7084961,15.8977566 L56.7875977,15.8977566 C56.6416016,14.7742214 55.6450195,14.0632839 54.2104492,14.0632839 C52.7568359,14.0632839 51.6586914,14.9202175 51.6586914,16.056448 Z M58.3364258,16.056448 C58.3364258,17.0466824 58.9204102,17.5989285 60.2026367,17.9099636 L61.3769531,18.1956081 C62.1069336,18.3733425 62.4624023,18.6907253 62.4624023,19.1604519 C62.4624023,19.7888699 61.8022461,20.2268581 60.8818359,20.2268581 C60.0058594,20.2268581 59.4599609,19.8586941 59.2758789,19.2810574 L58.1523438,19.2810574 C58.2729492,20.4172878 59.3203125,21.1472683 60.84375,21.1472683 C62.3989258,21.1472683 63.5859375,20.30303 63.5859375,19.0779324 C63.5859375,18.0940456 62.9638672,17.5354519 61.675293,17.2244167 L60.621582,16.9705105 C59.8154297,16.7737331 59.4345703,16.481741 59.4345703,16.0120144 C59.4345703,15.4026394 60.0693359,14.9900417 60.8818359,14.9900417 C61.7070312,14.9900417 62.2402344,15.3518581 62.3862305,15.8977566 L63.465332,15.8977566 C63.3193359,14.7742214 62.3227539,14.0632839 60.8881836,14.0632839 C59.4345703,14.0632839 58.3364258,14.9202175 58.3364258,16.056448 Z M67.4072266,20.1887722 C68.5307617,20.1887722 69.3623047,19.4524441 69.3623047,18.474905 L69.3623047,17.846487 L67.5214844,17.9670925 C66.4804688,18.0369167 66.0234375,18.3987331 66.0234375,19.08428 C66.0234375,19.7825222 66.6137695,20.1887722 67.4072266,20.1887722 Z M67.2041016,21.1472683 C65.8774414,21.1472683 64.8935547,20.3601589 64.8935547,19.1096706 C64.8935547,17.884573 65.7949219,17.1799831 67.3881836,17.0847683 L69.3623047,16.9641628 L69.3623047,16.3420925 C69.3623047,15.4978542 68.8354492,15.0344753 67.8134766,15.0344753 C66.9946289,15.0344753 66.4233398,15.3455105 66.2709961,15.8850613 L65.1665039,15.8850613 C65.3125,14.7869167 66.3916016,14.0632839 67.8515625,14.0632839 C69.5209961,14.0632839 70.4541016,14.9202175 70.4541016,16.3420925 L70.4541016,21.0266628 L69.4130859,21.0266628 L69.4130859,20.0173855 L69.3115234,20.0173855 C68.8671875,20.747366 68.1181641,21.1472683 67.2041016,21.1472683 Z M75.2402344,19.9602566 C76.5097656,19.9602566 77.2714844,18.9954128 77.2714844,17.5037136 C77.2714844,16.0120144 76.503418,15.0471706 75.2402344,15.0471706 C73.9707031,15.0471706 73.2597656,16.0120144 73.2597656,17.5037136 C73.2597656,18.9954128 73.9707031,19.9602566 75.2402344,19.9602566 Z M75.2910156,23.6545925 C73.640625,23.6545925 72.5869141,22.9119167 72.421875,21.7820339 L73.5771484,21.7820339 C73.6977539,22.3406277 74.3071289,22.7024441 75.2910156,22.7024441 C76.5161133,22.7024441 77.2460938,22.0994167 77.2460938,21.0901394 L77.2460938,19.7444363 L77.1445312,19.7444363 C76.7128906,20.4998074 75.9384766,20.9251003 74.9990234,20.9251003 C73.2280273,20.9251003 72.1298828,19.5540066 72.1298828,17.5037136 C72.1298828,15.4534206 73.2407227,14.0632839 74.9990234,14.0632839 C75.9575195,14.0632839 76.8017578,14.5330105 77.1953125,15.2693386 L77.296875,15.2693386 L77.296875,14.1838894 L78.3378906,14.1838894 L78.3378906,21.1472683 C78.3378906,22.6770535 77.1572266,23.6545925 75.2910156,23.6545925 Z M83.1240234,15.0281277 C82.0322266,15.0281277 81.2705078,15.8279324 81.1879883,17.0403347 L84.9584961,17.0403347 C84.9331055,15.8279324 84.2094727,15.0281277 83.1240234,15.0281277 Z M84.9267578,19.2556667 L86.0185547,19.2556667 C85.6884766,20.4299831 84.6347656,21.1472683 83.1367188,21.1472683 C81.2387695,21.1472683 80.0517578,19.7761745 80.0517578,17.6116238 C80.0517578,15.4597683 81.2578125,14.0632839 83.1367188,14.0632839 C84.9838867,14.0632839 86.1074219,15.3772488 86.1074219,17.5037136 L86.1074219,17.9226589 L81.1879883,17.9226589 L81.1879883,17.9734402 C81.2451172,19.325491 82.0004883,20.1824245 83.1621094,20.1824245 C84.0444336,20.1824245 84.6411133,19.8586941 84.9267578,19.2556667 Z M94.2578125,19.9602566 C95.5273438,19.9602566 96.2890625,18.9954128 96.2890625,17.5037136 C96.2890625,16.0120144 95.5209961,15.0471706 94.2578125,15.0471706 C92.9882812,15.0471706 92.2773438,16.0120144 92.2773438,17.5037136 C92.2773438,18.9954128 92.9882812,19.9602566 94.2578125,19.9602566 Z M94.3085938,23.6545925 C92.6582031,23.6545925 91.6044922,22.9119167 91.4394531,21.7820339 L92.5947266,21.7820339 C92.715332,22.3406277 93.324707,22.7024441 94.3085938,22.7024441 C95.5336914,22.7024441 96.2636719,22.0994167 96.2636719,21.0901394 L96.2636719,19.7444363 L96.1621094,19.7444363 C95.7304688,20.4998074 94.9560547,20.9251003 94.0166016,20.9251003 C92.2456055,20.9251003 91.1474609,19.5540066 91.1474609,17.5037136 C91.1474609,15.4534206 92.2583008,14.0632839 94.0166016,14.0632839 C94.9750977,14.0632839 95.8193359,14.5330105 96.2128906,15.2693386 L96.3144531,15.2693386 L96.3144531,14.1838894 L97.3554688,14.1838894 L97.3554688,21.1472683 C97.3554688,22.6770535 96.1748047,23.6545925 94.3085938,23.6545925 Z M102.224121,21.1472683 C100.275391,21.1472683 99.0693359,19.8015652 99.0693359,17.6052761 C99.0693359,15.4026394 100.275391,14.0632839 102.224121,14.0632839 C104.172852,14.0632839 105.378906,15.4026394 105.378906,17.6052761 C105.378906,19.8015652 104.172852,21.1472683 102.224121,21.1472683 Z M102.224121,20.1633816 C103.519043,20.1633816 104.249023,19.2239285 104.249023,17.6052761 C104.249023,15.9802761 103.519043,15.0471706 102.224121,15.0471706 C100.929199,15.0471706 100.199219,15.9802761 100.199219,17.6052761 C100.199219,19.2239285 100.929199,20.1633816 102.224121,20.1633816 Z M109.822266,15.0281277 C108.730469,15.0281277 107.96875,15.8279324 107.88623,17.0403347 L111.656738,17.0403347 C111.631348,15.8279324 110.907715,15.0281277 109.822266,15.0281277 Z M111.625,19.2556667 L112.716797,19.2556667 C112.386719,20.4299831 111.333008,21.1472683 109.834961,21.1472683 C107.937012,21.1472683 106.75,19.7761745 106.75,17.6116238 C106.75,15.4597683 107.956055,14.0632839 109.834961,14.0632839 C111.682129,14.0632839 112.805664,15.3772488 112.805664,17.5037136 L112.805664,17.9226589 L107.88623,17.9226589 L107.88623,17.9734402 C107.943359,19.325491 108.69873,20.1824245 109.860352,20.1824245 C110.742676,20.1824245 111.339355,19.8586941 111.625,19.2556667 Z M114.36084,16.056448 C114.36084,17.0466824 114.944824,17.5989285 116.227051,17.9099636 L117.401367,18.1956081 C118.131348,18.3733425 118.486816,18.6907253 118.486816,19.1604519 C118.486816,19.7888699 117.82666,20.2268581 116.90625,20.2268581 C116.030273,20.2268581 115.484375,19.8586941 115.300293,19.2810574 L114.176758,19.2810574 C114.297363,20.4172878 115.344727,21.1472683 116.868164,21.1472683 C118.42334,21.1472683 119.610352,20.30303 119.610352,19.0779324 C119.610352,18.0940456 118.988281,17.5354519 117.699707,17.2244167 L116.645996,16.9705105 C115.839844,16.7737331 115.458984,16.481741 115.458984,16.0120144 C115.458984,15.4026394 116.09375,14.9900417 116.90625,14.9900417 C117.731445,14.9900417 118.264648,15.3518581 118.410645,15.8977566 L119.489746,15.8977566 C119.34375,14.7742214 118.347168,14.0632839 116.912598,14.0632839 C115.458984,14.0632839 114.36084,14.9202175 114.36084,16.056448 Z M125.056641,21.0266628 L126.148438,21.0266628 L126.148438,16.9768581 C126.148438,15.8215847 126.821289,15.0471706 128.046387,15.0471706 C129.081055,15.0471706 129.626953,15.650198 129.626953,16.8626003 L129.626953,21.0266628 L130.71875,21.0266628 L130.71875,16.5959988 C130.71875,14.9900417 129.804688,14.0632839 128.357422,14.0632839 C127.310059,14.0632839 126.592773,14.5076199 126.25,15.262991 L126.148438,15.262991 L126.148438,11.4670925 L125.056641,11.4670925 L125.056641,21.0266628 Z M135.441406,15.0281277 C134.349609,15.0281277 133.587891,15.8279324 133.505371,17.0403347 L137.275879,17.0403347 C137.250488,15.8279324 136.526855,15.0281277 135.441406,15.0281277 Z M137.244141,19.2556667 L138.335938,19.2556667 C138.005859,20.4299831 136.952148,21.1472683 135.454102,21.1472683 C133.556152,21.1472683 132.369141,19.7761745 132.369141,17.6116238 C132.369141,15.4597683 133.575195,14.0632839 135.454102,14.0632839 C137.30127,14.0632839 138.424805,15.3772488 138.424805,17.5037136 L138.424805,17.9226589 L133.505371,17.9226589 L133.505371,17.9734402 C133.5625,19.325491 134.317871,20.1824245 135.479492,20.1824245 C136.361816,20.1824245 136.958496,19.8586941 137.244141,19.2556667 Z M140.138672,21.0266628 L141.230469,21.0266628 L141.230469,16.7864285 C141.230469,15.8215847 141.98584,15.1233425 143.026855,15.1233425 C143.242676,15.1233425 143.63623,15.1614285 143.725098,15.1868191 L143.725098,14.0950222 C143.585449,14.0759792 143.356934,14.0632839 143.179199,14.0632839 C142.271484,14.0632839 141.484375,14.5330105 141.28125,15.1995144 L141.179688,15.1995144 L141.179688,14.1838894 L140.138672,14.1838894 L140.138672,21.0266628 Z M147.628906,15.0281277 C146.537109,15.0281277 145.775391,15.8279324 145.692871,17.0403347 L149.463379,17.0403347 C149.437988,15.8279324 148.714355,15.0281277 147.628906,15.0281277 Z M149.431641,19.2556667 L150.523438,19.2556667 C150.193359,20.4299831 149.139648,21.1472683 147.641602,21.1472683 C145.743652,21.1472683 144.556641,19.7761745 144.556641,17.6116238 C144.556641,15.4597683 145.762695,14.0632839 147.641602,14.0632839 C149.48877,14.0632839 150.612305,15.3772488 150.612305,17.5037136 L150.612305,17.9226589 L145.692871,17.9226589 L145.692871,17.9734402 C145.75,19.325491 146.505371,20.1824245 147.666992,20.1824245 C148.549316,20.1824245 149.145996,19.8586941 149.431641,19.2556667 Z"/>
      <mask id="t-warn-f" fill="#fff">
        <use xlink:href="#t-warn-e"/>
      </mask>
      <use fill="#D7B600" xlink:href="#t-warn-e"/>
      <path fill="#3E2800" d="M174.626856,20.0266628 L173.929883,17.9186062 L170.896338,17.9186062 L170.18794,20.0266628 L168.696875,20.0266628 L171.621875,11.7829618 L173.278614,11.7829618 L176.209326,20.0266628 L174.626856,20.0266628 Z M172.370264,13.3540067 L171.239112,16.7531766 L173.58711,16.7531766 L172.467383,13.3540067 L172.370264,13.3540067 Z M180.68252,20.2323269 C182.584912,20.2323269 183.978858,19.0954617 184.173096,17.410159 L182.722022,17.410159 C182.52207,18.3356472 181.727979,18.9183621 180.68252,18.9183621 C179.277149,18.9183621 178.403076,17.7643582 178.403076,15.9019559 C178.403076,14.0452664 179.277149,12.8912626 180.676807,12.8912626 C181.716553,12.8912626 182.510645,13.5311063 182.716309,14.5194364 L184.167383,14.5194364 C183.995996,12.7998563 182.550635,11.5772977 180.676807,11.5772977 C178.340235,11.5772977 176.894873,13.2283231 176.894873,15.9076688 C176.894873,18.5755886 178.345947,20.2323269 180.68252,20.2323269 Z M189.120459,20.0266628 L189.120459,13.0569364 L191.662695,13.0569364 L191.662695,11.7829618 L185.11001,11.7829618 L185.11001,13.0569364 L187.646533,13.0569364 L187.646533,20.0266628 L189.120459,20.0266628 Z M194.679102,20.0266628 L194.679102,11.7829618 L193.205176,11.7829618 L193.205176,20.0266628 L194.679102,20.0266628 Z M200.272021,11.5772977 C202.665722,11.5772977 204.1625,13.2397489 204.1625,15.9019559 C204.1625,18.55845 202.677148,20.2323269 200.272021,20.2323269 C197.849756,20.2323269 196.364404,18.5641629 196.364404,15.9019559 C196.364404,13.2397489 197.87832,11.5772977 200.272021,11.5772977 Z M200.272021,12.8855497 C198.803808,12.8855497 197.872607,14.0566922 197.872607,15.9019559 C197.872607,17.7415066 198.780957,18.924075 200.272021,18.924075 C201.740234,18.924075 202.654297,17.7415066 202.654297,15.9019559 C202.654297,14.0566922 201.734521,12.8855497 200.272021,12.8855497 Z M207.270312,20.0266628 L207.270312,14.4166043 L207.367431,14.4166043 L211.412158,20.0266628 L212.686132,20.0266628 L212.686132,11.7829618 L211.269336,11.7829618 L211.269336,17.3873074 L211.172216,17.3873074 L207.12749,11.7829618 L205.847802,11.7829618 L205.847802,20.0266628 L207.270312,20.0266628 Z" mask="url(#t-warn-f)"/>
    </g>
    <g transform="translate(95 49)">
      <path fill="#22E800" d="M31.8048563,60 L27.8340002,56 L23.8631441,60 L2.33400024,60 L2.33400024,60 C1.22943074,60 0.334000243,60.8954305 0.334000243,62 L0.334000243,83 C0.334000243,84.1045695 1.22943074,85 2.33400024,85 L2.33400024,85 L53.3340002,85 C54.4385697,85 55.3340002,84.1045695 55.3340002,83 L55.3340002,62 C55.3340002,60.8954305 54.4385697,60 53.3340002,60 L31.8048563,60 Z"/>
      <path fill="#002D3E" d="M10.2640002,73.05 C10.2640002,72.04 9.61400024,71.78 8.82400024,71.78 L7.70400024,71.78 L7.70400024,74.23 L8.78400024,74.23 C9.45400024,74.23 10.2640002,74.04 10.2640002,73.05 Z M9.99400024,69.91 C9.99400024,69.15 9.49400024,68.86 8.67400024,68.86 L7.70400024,68.86 L7.70400024,71.02 L8.75400024,71.02 C9.55400024,71.02 9.99400024,70.69 9.99400024,69.91 Z M11.2640002,73.03 C11.2640002,74.54 9.94400024,75 8.65400024,75 L6.75400024,75 L6.75400024,68.11 L8.50400024,68.11 C9.73400024,68.11 10.9640002,68.5 10.9640002,69.85 C10.9640002,70.73 10.3440002,71.19 9.76400024,71.32 L9.76400024,71.36 C10.4540002,71.49 11.2640002,71.89 11.2640002,73.03 Z M16.1540002,72.36 C16.1540002,70.99 15.7140002,70.35 14.8440002,70.35 C13.9640002,70.35 13.5140002,70.99 13.5140002,72.37 C13.5140002,73.74 13.9540002,74.38 14.8340002,74.38 C15.7140002,74.38 16.1540002,73.74 16.1540002,72.36 Z M12.5340002,72.37 C12.5340002,70.74 13.3440002,69.61 14.8440002,69.61 C16.3440002,69.61 17.1340002,70.69 17.1340002,72.36 C17.1340002,73.99 16.3240002,75.12 14.8340002,75.12 C13.3340002,75.12 12.5340002,74.04 12.5340002,72.37 Z M20.7940002,70.34 C19.9540002,70.34 19.4740002,71 19.4740002,72.37 C19.4740002,73.73 19.9040002,74.39 20.6940002,74.39 C21.2540002,74.39 21.6640002,74.01 21.9440002,73.58 L21.9440002,70.99 C21.6640002,70.58 21.2640002,70.34 20.7940002,70.34 Z M20.5540002,69.61 C21.1440002,69.61 21.5940002,69.82 21.9440002,70.22 L21.9440002,67.5 L22.8640002,67.61 L22.8640002,75 L22.0540002,75 L21.9740002,74.32 C21.5940002,74.86 21.0740002,75.12 20.4840002,75.12 C19.1140002,75.12 18.4840002,74.01 18.4840002,72.37 C18.4840002,70.78 19.2540002,69.61 20.5540002,69.61 Z M29.2540002,69.73 L28.3040002,69.73 L26.8740002,74.26 L26.8340002,74.26 L25.3940002,69.73 L24.4140002,69.73 L26.2340002,75 L26.5440002,75 C26.2640002,75.8 25.9440002,76.23 24.8640002,76.41 L24.9940002,77.13 C26.4140002,76.99 27.0340002,76.14 27.4140002,75.03 L29.2540002,69.73 Z M34.6040002,72.26 L34.6040002,71.48 L31.0640002,71.48 L31.0640002,72.26 L34.6040002,72.26 Z M38.8040002,74.26 L37.1140002,74.26 L37.1140002,75 L41.1340002,75 L41.1340002,74.26 L39.7240002,74.26 L39.7240002,68.11 L38.9140002,68.11 L36.7140002,69.48 L37.1540002,70.12 L38.8040002,69.12 L38.8040002,74.26 Z M44.8340002,74.39 C45.6740002,74.39 46.1640002,73.57 46.1640002,71.55 C46.1640002,69.54 45.6740002,68.72 44.8340002,68.72 C44.0040002,68.72 43.5040002,69.54 43.5040002,71.55 C43.5040002,73.57 44.0040002,74.39 44.8340002,74.39 Z M44.8340002,75.12 C43.3340002,75.12 42.5540002,73.84 42.5540002,71.55 C42.5540002,69.27 43.3340002,67.99 44.8340002,67.99 C46.3340002,67.99 47.1140002,69.27 47.1140002,71.55 C47.1140002,73.84 46.3340002,75.12 44.8340002,75.12 Z M44.1840002,71.55 C44.1840002,71.19 44.4640002,70.9 44.8340002,70.9 C45.2140002,70.9 45.4940002,71.19 45.4940002,71.55 C45.4940002,71.92 45.2140002,72.21 44.8340002,72.21 C44.4640002,72.21 44.1840002,71.92 44.1840002,71.55 Z"/>
      <path fill="#F5A623" d="M147.5,25 L144.5,28 L141.5,25 L119,25 C117.895431,25 117,24.1045695 117,23 L117,2 L117,2 C117,0.8954305 117.895431,-1.91384796e-17 119,-2.22044605e-16 L119,0 L170,0 L170,-2.22044605e-16 C171.104569,-4.2495073e-16 172,0.8954305 172,2 L172,23 C172,24.1045695 171.104569,25 170,25 L147.5,25 Z"/>
      <path fill="#002D3E" d="M127.93,13.55 C127.93,12.54 127.28,12.28 126.49,12.28 L125.37,12.28 L125.37,14.73 L126.45,14.73 C127.12,14.73 127.93,14.54 127.93,13.55 Z M127.66,10.41 C127.66,9.65 127.16,9.36 126.34,9.36 L125.37,9.36 L125.37,11.52 L126.42,11.52 C127.22,11.52 127.66,11.19 127.66,10.41 Z M128.93,13.53 C128.93,15.04 127.61,15.5 126.32,15.5 L124.42,15.5 L124.42,8.61 L126.17,8.61 C127.4,8.61 128.63,9 128.63,10.35 C128.63,11.23 128.01,11.69 127.43,11.82 L127.43,11.86 C128.12,11.99 128.93,12.39 128.93,13.53 Z M133.82,12.86 C133.82,11.49 133.38,10.85 132.51,10.85 C131.63,10.85 131.18,11.49 131.18,12.87 C131.18,14.24 131.62,14.88 132.5,14.88 C133.38,14.88 133.82,14.24 133.82,12.86 Z M130.2,12.87 C130.2,11.24 131.01,10.11 132.51,10.11 C134.01,10.11 134.8,11.19 134.8,12.86 C134.8,14.49 133.99,15.62 132.5,15.62 C131,15.62 130.2,14.54 130.2,12.87 Z M138.46,10.84 C137.62,10.84 137.14,11.5 137.14,12.87 C137.14,14.23 137.57,14.89 138.36,14.89 C138.92,14.89 139.33,14.51 139.61,14.08 L139.61,11.49 C139.33,11.08 138.93,10.84 138.46,10.84 Z M138.22,10.11 C138.81,10.11 139.26,10.32 139.61,10.72 L139.61,8 L140.53,8.11 L140.53,15.5 L139.72,15.5 L139.64,14.82 C139.26,15.36 138.74,15.62 138.15,15.62 C136.78,15.62 136.15,14.51 136.15,12.87 C136.15,11.28 136.92,10.11 138.22,10.11 Z M146.92,10.23 L145.97,10.23 L144.54,14.76 L144.5,14.76 L143.06,10.23 L142.08,10.23 L143.9,15.5 L144.21,15.5 C143.93,16.3 143.61,16.73 142.53,16.91 L142.66,17.63 C144.08,17.49 144.7,16.64 145.08,15.53 L146.92,10.23 Z M152.27,12.76 L152.27,11.98 L148.73,11.98 L148.73,12.76 L152.27,12.76 Z M156.47,14.76 L154.78,14.76 L154.78,15.5 L158.8,15.5 L158.8,14.76 L157.39,14.76 L157.39,8.61 L156.58,8.61 L154.38,9.98 L154.82,10.62 L156.47,9.62 L156.47,14.76 Z M162.5,14.89 C163.34,14.89 163.83,14.07 163.83,12.05 C163.83,10.04 163.34,9.22 162.5,9.22 C161.67,9.22 161.17,10.04 161.17,12.05 C161.17,14.07 161.67,14.89 162.5,14.89 Z M162.5,15.62 C161,15.62 160.22,14.34 160.22,12.05 C160.22,9.77 161,8.49 162.5,8.49 C164,8.49 164.78,9.77 164.78,12.05 C164.78,14.34 164,15.62 162.5,15.62 Z M161.85,12.05 C161.85,11.69 162.13,11.4 162.5,11.4 C162.88,11.4 163.16,11.69 163.16,12.05 C163.16,12.42 162.88,12.71 162.5,12.71 C162.13,12.71 161.85,12.42 161.85,12.05 Z"/>
    </g>
  </g>
</svg>
