<svg xmlns="http://www.w3.org/2000/svg" xmlns:xlink="http://www.w3.org/1999/xlink" width="350" height="180" viewBox="0 0 350 180">
  <defs>
    <path id="warning-a" d="M13.6929417,11.0118641 L8.73994165,1.1058641 C8.40121551,0.428135952 7.70860308,0 6.95094165,0 C6.19328022,0 5.50066779,0.428135952 5.16194165,1.1058641 L0.208941651,11.0158641 C-0.0989581202,11.6354894 -0.0647229393,12.3702439 0.299459428,12.9585541 C0.663641796,13.5468644 1.30603325,13.9051512 1.99794165,13.9058641 L11.9029417,13.9058641 C12.5961777,13.9061872 13.2401412,13.5474994 13.6048048,12.957926 C13.9694684,12.3683526 14.0028183,11.6319873 13.6929417,11.0118641 L13.6929417,11.0118641 Z M5.95094165,3.9058641 C5.95094165,3.35357935 6.3986569,2.9058641 6.95094165,2.9058641 C7.5032264,2.9058641 7.95094165,3.35357935 7.95094165,3.9058641 L7.95094165,7.9058641 C7.95094165,8.45814885 7.5032264,8.9058641 6.95094165,8.9058641 C6.3986569,8.9058641 5.95094165,8.45814885 5.95094165,7.9058641 L5.95094165,3.9058641 Z M6.95094165,12.1558641 C6.26058571,12.1558641 5.70094165,11.59622 5.70094165,10.9058641 C5.70094165,10.2155082 6.26058571,9.6558641 6.95094165,9.6558641 C7.64129759,9.6558641 8.20094165,10.2155082 8.20094165,10.9058641 C8.20094165,11.59622 7.64129759,12.1558641 6.95094165,12.1558641 L6.95094165,12.1558641 Z"/>
    <rect id="warning-c" width="105" height="24" x="175" y="78" rx="2"/>
  </defs>
  <g fill="none" fill-rule="evenodd">
    <g transform="translate(15 74)">
      <rect width="320" height="32" fill="#FFE900" rx="3"/>
      <g transform="translate(4 4)">
        <rect width="24" height="24"/>
        <g transform="translate(5 5)">
          <mask id="warning-b" fill="#fff">
            <use xlink:href="#warning-a"/>
          </mask>
          <use fill="#0C0C0D" fill-opacity=".8" fill-rule="nonzero" xlink:href="#warning-a"/>
          <g fill="#3E2800" mask="url(#warning-b)">
            <rect width="200" height="200" transform="translate(-93 -93)"/>
          </g>
        </g>
      </g>
      <path fill="#3E2800" d="M38.8427734,19.9716797 L34.3105469,19.9716797 L34.3105469,16.8232422 L38.6079102,16.8232422 L38.6079102,15.8076172 L34.3105469,15.8076172 L34.3105469,12.8686523 L38.8427734,12.8686523 L38.8427734,11.840332 L33.1679688,11.840332 L33.1679688,21 L38.8427734,21 L38.8427734,19.9716797 Z M40.7724609,21 L41.8642578,21 L41.8642578,16.7597656 C41.8642578,15.7949219 42.5561523,15.0205078 43.4511719,15.0205078 C44.3144531,15.0205078 44.8793945,15.5410156 44.8793945,16.3535156 L44.8793945,21 L45.9711914,21 L45.9711914,16.6010742 C45.9711914,15.7314453 46.605957,15.0205078 47.5581055,15.0205078 C48.5229492,15.0205078 48.9990234,15.515625 48.9990234,16.5249023 L48.9990234,21 L50.0908203,21 L50.0908203,16.2709961 C50.0908203,14.8364258 49.3100586,14.0366211 47.9135742,14.0366211 C46.9677734,14.0366211 46.1870117,14.5126953 45.8188477,15.2363281 L45.7172852,15.2363281 C45.3999023,14.5253906 44.7524414,14.0366211 43.8256836,14.0366211 C42.9116211,14.0366211 42.2260742,14.4746094 41.9150391,15.2363281 L41.8134766,15.2363281 L41.8134766,14.1572266 L40.7724609,14.1572266 L40.7724609,21 Z M54.1914062,20.1621094 C55.3149414,20.1621094 56.1464844,19.4257812 56.1464844,18.4482422 L56.1464844,17.8198242 L54.3056641,17.9404297 C53.2646484,18.0102539 52.8076172,18.3720703 52.8076172,19.0576172 C52.8076172,19.7558594 53.3979492,20.1621094 54.1914062,20.1621094 Z M53.9882812,21.1206055 C52.6616211,21.1206055 51.6777344,20.3334961 51.6777344,19.0830078 C51.6777344,17.8579102 52.5791016,17.1533203 54.1723633,17.0581055 L56.1464844,16.9375 L56.1464844,16.3154297 C56.1464844,15.4711914 55.6196289,15.0078125 54.5976562,15.0078125 C53.7788086,15.0078125 53.2075195,15.3188477 53.0551758,15.8583984 L51.9506836,15.8583984 C52.0966797,14.7602539 53.1757812,14.0366211 54.6357422,14.0366211 C56.3051758,14.0366211 57.2382812,14.8935547 57.2382812,16.3154297 L57.2382812,21 L56.1972656,21 L56.1972656,19.9907227 L56.0957031,19.9907227 C55.6513672,20.7207031 54.9023438,21.1206055 53.9882812,21.1206055 Z M59.2822266,21 L60.3740234,21 L60.3740234,14.1572266 L59.2822266,14.1572266 L59.2822266,21 Z M59.828125,12.7670898 C60.2470703,12.7670898 60.5898438,12.4243164 60.5898438,12.0053711 C60.5898438,11.5864258 60.2470703,11.2436523 59.828125,11.2436523 C59.4091797,11.2436523 59.0664062,11.5864258 59.0664062,12.0053711 C59.0664062,12.4243164 59.4091797,12.7670898 59.828125,12.7670898 Z M62.5195312,21 L63.6113281,21 L63.6113281,11.4404297 L62.5195312,11.4404297 L62.5195312,21 Z M69.4257812,21 L70.5175781,21 L70.5175781,14.1572266 L69.4257812,14.1572266 L69.4257812,21 Z M69.9716797,12.7670898 C70.390625,12.7670898 70.7333984,12.4243164 70.7333984,12.0053711 C70.7333984,11.5864258 70.390625,11.2436523 69.9716797,11.2436523 C69.5527344,11.2436523 69.2099609,11.5864258 69.2099609,12.0053711 C69.2099609,12.4243164 69.5527344,12.7670898 69.9716797,12.7670898 Z M72.440918,16.0297852 C72.440918,17.0200195 73.0249023,17.5722656 74.3071289,17.8833008 L75.4814453,18.1689453 C76.2114258,18.3466797 76.5668945,18.6640625 76.5668945,19.1337891 C76.5668945,19.762207 75.9067383,20.2001953 74.9863281,20.2001953 C74.1103516,20.2001953 73.5644531,19.8320312 73.3803711,19.2543945 L72.2568359,19.2543945 C72.3774414,20.390625 73.4248047,21.1206055 74.9482422,21.1206055 C76.503418,21.1206055 77.6904297,20.2763672 77.6904297,19.0512695 C77.6904297,18.0673828 77.0683594,17.5087891 75.7797852,17.1977539 L74.7260742,16.9438477 C73.9199219,16.7470703 73.5390625,16.4550781 73.5390625,15.9853516 C73.5390625,15.3759766 74.1738281,14.9633789 74.9863281,14.9633789 C75.8115234,14.9633789 76.3447266,15.3251953 76.4907227,15.8710938 L77.5698242,15.8710938 C77.4238281,14.7475586 76.4272461,14.0366211 74.9926758,14.0366211 C73.5390625,14.0366211 72.440918,14.8935547 72.440918,16.0297852 Z M83.0732422,21 L84.1650391,21 L84.1650391,16.9501953 C84.1650391,15.7504883 84.8696289,15.0205078 85.9614258,15.0205078 C87.0532227,15.0205078 87.5737305,15.6044922 87.5737305,16.8359375 L87.5737305,21 L88.6655273,21 L88.6655273,16.5693359 C88.6655273,14.9443359 87.8085938,14.0366211 86.2724609,14.0366211 C85.2250977,14.0366211 84.5585938,14.480957 84.2158203,15.2363281 L84.1142578,15.2363281 L84.1142578,14.1572266 L83.0732422,14.1572266 L83.0732422,21 Z M93.4707031,21.1206055 C91.5219727,21.1206055 90.315918,19.7749023 90.315918,17.5786133 C90.315918,15.3759766 91.5219727,14.0366211 93.4707031,14.0366211 C95.4194336,14.0366211 96.6254883,15.3759766 96.6254883,17.5786133 C96.6254883,19.7749023 95.4194336,21.1206055 93.4707031,21.1206055 Z M93.4707031,20.1367188 C94.765625,20.1367188 95.4956055,19.1972656 95.4956055,17.5786133 C95.4956055,15.9536133 94.765625,15.0205078 93.4707031,15.0205078 C92.1757812,15.0205078 91.4458008,15.9536133 91.4458008,17.5786133 C91.4458008,19.1972656 92.1757812,20.1367188 93.4707031,20.1367188 Z M98.7963867,12.3862305 L98.7963867,14.1572266 L97.6918945,14.1572266 L97.6918945,15.0712891 L98.7963867,15.0712891 L98.7963867,19.2226562 C98.7963867,20.5302734 99.3613281,21.0507812 100.770508,21.0507812 C100.986328,21.0507812 101.195801,21.0253906 101.411621,20.9873047 L101.411621,20.0668945 C101.208496,20.0859375 101.100586,20.0922852 100.903809,20.0922852 C100.192871,20.0922852 99.8881836,19.7495117 99.8881836,18.9433594 L99.8881836,15.0712891 L101.411621,15.0712891 L101.411621,14.1572266 L99.8881836,14.1572266 L99.8881836,12.3862305 L98.7963867,12.3862305 Z M112.316895,14.1572266 L111.148926,14.1572266 L109.276367,19.7939453 L109.174805,19.7939453 L107.302246,14.1572266 L106.134277,14.1572266 L108.666992,21 L109.78418,21 L112.316895,14.1572266 Z M116.252441,15.0014648 C115.160645,15.0014648 114.398926,15.8012695 114.316406,17.0136719 L118.086914,17.0136719 C118.061523,15.8012695 117.337891,15.0014648 116.252441,15.0014648 Z M118.055176,19.2290039 L119.146973,19.2290039 C118.816895,20.4033203 117.763184,21.1206055 116.265137,21.1206055 C114.367188,21.1206055 113.180176,19.7495117 113.180176,17.5849609 C113.180176,15.4331055 114.38623,14.0366211 116.265137,14.0366211 C118.112305,14.0366211 119.23584,15.3505859 119.23584,17.4770508 L119.23584,17.8959961 L114.316406,17.8959961 L114.316406,17.9467773 C114.373535,19.2988281 115.128906,20.1557617 116.290527,20.1557617 C117.172852,20.1557617 117.769531,19.8320312 118.055176,19.2290039 Z M120.949707,21 L122.041504,21 L122.041504,16.7597656 C122.041504,15.7949219 122.796875,15.0966797 123.837891,15.0966797 C124.053711,15.0966797 124.447266,15.1347656 124.536133,15.1601562 L124.536133,14.0683594 C124.396484,14.0493164 124.167969,14.0366211 123.990234,14.0366211 C123.08252,14.0366211 122.29541,14.5063477 122.092285,15.1728516 L121.990723,15.1728516 L121.990723,14.1572266 L120.949707,14.1572266 L120.949707,21 Z M126.053223,21 L127.14502,21 L127.14502,14.1572266 L126.053223,14.1572266 L126.053223,21 Z M126.599121,12.7670898 C127.018066,12.7670898 127.36084,12.4243164 127.36084,12.0053711 C127.36084,11.5864258 127.018066,11.2436523 126.599121,11.2436523 C126.180176,11.2436523 125.837402,11.5864258 125.837402,12.0053711 C125.837402,12.4243164 126.180176,12.7670898 126.599121,12.7670898 Z M129.684082,21 L130.775879,21 L130.775879,15.0712891 L132.34375,15.0712891 L132.34375,14.1572266 L130.775879,14.1572266 L130.775879,13.5224609 C130.775879,12.7543945 131.144043,12.4243164 131.797852,12.4243164 C132.013672,12.4243164 132.26123,12.449707 132.407227,12.4814453 L132.407227,11.5673828 C132.140625,11.5229492 131.950195,11.5039062 131.734375,11.5039062 C130.414062,11.5039062 129.684082,12.0878906 129.684082,13.4907227 L129.684082,14.1572266 L128.547852,14.1572266 L128.547852,15.0712891 L129.684082,15.0712891 L129.684082,21 Z M133.956055,21 L135.047852,21 L135.047852,14.1572266 L133.956055,14.1572266 L133.956055,21 Z M134.501953,12.7670898 C134.920898,12.7670898 135.263672,12.4243164 135.263672,12.0053711 C135.263672,11.5864258 134.920898,11.2436523 134.501953,11.2436523 C134.083008,11.2436523 133.740234,11.5864258 133.740234,12.0053711 C133.740234,12.4243164 134.083008,12.7670898 134.501953,12.7670898 Z M139.859375,15.0014648 C138.767578,15.0014648 138.005859,15.8012695 137.92334,17.0136719 L141.693848,17.0136719 C141.668457,15.8012695 140.944824,15.0014648 139.859375,15.0014648 Z M141.662109,19.2290039 L142.753906,19.2290039 C142.423828,20.4033203 141.370117,21.1206055 139.87207,21.1206055 C137.974121,21.1206055 136.787109,19.7495117 136.787109,17.5849609 C136.787109,15.4331055 137.993164,14.0366211 139.87207,14.0366211 C141.719238,14.0366211 142.842773,15.3505859 142.842773,17.4770508 L142.842773,17.8959961 L137.92334,17.8959961 L137.92334,17.9467773 C137.980469,19.2988281 138.73584,20.1557617 139.897461,20.1557617 C140.779785,20.1557617 141.376465,19.8320312 141.662109,19.2290039 Z M147.089355,21.1206055 C145.337402,21.1206055 144.213867,19.7304688 144.213867,17.5786133 C144.213867,15.4331055 145.350098,14.0366211 147.089355,14.0366211 C148.041504,14.0366211 148.847656,14.4873047 149.234863,15.2363281 L149.330078,15.2363281 L149.330078,11.4404297 L150.421875,11.4404297 L150.421875,21 L149.380859,21 L149.380859,19.9082031 L149.279297,19.9082031 C148.847656,20.6699219 148.035156,21.1206055 147.089355,21.1206055 Z M147.343262,15.0205078 C146.099121,15.0205078 145.34375,15.9853516 145.34375,17.5786133 C145.34375,19.1782227 146.092773,20.1367188 147.343262,20.1367188 C148.587402,20.1367188 149.355469,19.1591797 149.355469,17.5786133 C149.355469,16.0107422 148.581055,15.0205078 147.343262,15.0205078 Z"/>
    </g>
    <mask id="warning-d" fill="#fff">
      <use xlink:href="#warning-c"/>
    </mask>
    <use fill="#D7B600" xlink:href="#warning-c"/>
    <path fill="#3E2800" d="M183.617676,91.9750977 C183.719727,93.3125 184.853027,94.1826172 186.496582,94.1826172 C188.269043,94.1826172 189.391602,93.2749023 189.391602,91.8515625 C189.391602,90.7128906 188.74707,90.0898438 187.141113,89.6870117 L186.330078,89.472168 C185.26123,89.1982422 184.836914,88.8491211 184.836914,88.2421875 C184.836914,87.4580078 185.519043,86.9423828 186.550293,86.9423828 C187.51709,86.9423828 188.172363,87.4150391 188.306641,88.2099609 L189.278809,88.2099609 C189.198242,86.9584961 188.081055,86.0668945 186.58252,86.0668945 C184.944336,86.0668945 183.843262,86.9584961 183.843262,88.2744141 C183.843262,89.3754883 184.450195,90.0092773 185.852051,90.3637695 L186.845703,90.621582 C187.914551,90.8901367 188.397949,91.309082 188.397949,91.9697266 C188.397949,92.737793 187.629883,93.3017578 186.587891,93.3017578 C185.486816,93.3017578 184.713379,92.7861328 184.595215,91.9750977 L183.617676,91.9750977 Z M193.188965,88.9243164 C192.265137,88.9243164 191.620605,89.6010742 191.550781,90.6269531 L194.741211,90.6269531 C194.719727,89.6010742 194.107422,88.9243164 193.188965,88.9243164 Z M194.714355,92.5014648 L195.638184,92.5014648 C195.358887,93.4951172 194.467285,94.1020508 193.199707,94.1020508 C191.59375,94.1020508 190.589355,92.9418945 190.589355,91.1103516 C190.589355,89.2895508 191.609863,88.1079102 193.199707,88.1079102 C194.762695,88.1079102 195.713379,89.2197266 195.713379,91.019043 L195.713379,91.3735352 L191.550781,91.3735352 L191.550781,91.4165039 C191.599121,92.5605469 192.238281,93.2856445 193.221191,93.2856445 C193.967773,93.2856445 194.472656,93.0117188 194.714355,92.5014648 Z M197.163574,94 L198.087402,94 L198.087402,90.5732422 C198.087402,89.5581055 198.683594,88.9404297 199.607422,88.9404297 C200.53125,88.9404297 200.97168,89.4345703 200.97168,90.4765625 L200.97168,94 L201.895508,94 L201.895508,90.2509766 C201.895508,88.8759766 201.17041,88.1079102 199.870605,88.1079102 C198.984375,88.1079102 198.42041,88.4838867 198.130371,89.1230469 L198.044434,89.1230469 L198.044434,88.2099609 L197.163574,88.2099609 L197.163574,94 Z M205.725098,94.1020508 C204.242676,94.1020508 203.291992,92.9257812 203.291992,91.1049805 C203.291992,89.2895508 204.253418,88.1079102 205.725098,88.1079102 C206.530762,88.1079102 207.212891,88.4892578 207.540527,89.1230469 L207.621094,89.1230469 L207.621094,85.9111328 L208.544922,85.9111328 L208.544922,94 L207.664062,94 L207.664062,93.0761719 L207.578125,93.0761719 C207.212891,93.7207031 206.525391,94.1020508 205.725098,94.1020508 Z M205.939941,88.9404297 C204.887207,88.9404297 204.248047,89.7568359 204.248047,91.1049805 C204.248047,92.4584961 204.881836,93.2695312 205.939941,93.2695312 C206.992676,93.2695312 207.642578,92.4423828 207.642578,91.1049805 C207.642578,89.7783203 206.987305,88.9404297 205.939941,88.9404297 Z M216.757324,94 L219.614746,86.2495117 L218.599609,86.2495117 L216.322266,92.7485352 L216.236328,92.7485352 L213.958984,86.2495117 L212.943848,86.2495117 L215.80127,94 L216.757324,94 Z M222.62793,88.9243164 C221.704102,88.9243164 221.05957,89.6010742 220.989746,90.6269531 L224.180176,90.6269531 C224.158691,89.6010742 223.546387,88.9243164 222.62793,88.9243164 Z M224.15332,92.5014648 L225.077148,92.5014648 C224.797852,93.4951172 223.90625,94.1020508 222.638672,94.1020508 C221.032715,94.1020508 220.02832,92.9418945 220.02832,91.1103516 C220.02832,89.2895508 221.048828,88.1079102 222.638672,88.1079102 C224.20166,88.1079102 225.152344,89.2197266 225.152344,91.019043 L225.152344,91.3735352 L220.989746,91.3735352 L220.989746,91.4165039 C221.038086,92.5605469 221.677246,93.2856445 222.660156,93.2856445 C223.406738,93.2856445 223.911621,93.0117188 224.15332,92.5014648 Z M226.602539,94 L227.526367,94 L227.526367,90.4121094 C227.526367,89.5957031 228.165527,89.0048828 229.046387,89.0048828 C229.229004,89.0048828 229.562012,89.0371094 229.637207,89.0585938 L229.637207,88.1347656 C229.519043,88.1186523 229.325684,88.1079102 229.175293,88.1079102 C228.407227,88.1079102 227.741211,88.5053711 227.569336,89.0693359 L227.483398,89.0693359 L227.483398,88.2099609 L226.602539,88.2099609 L226.602539,94 Z M230.920898,94 L231.844727,94 L231.844727,88.2099609 L230.920898,88.2099609 L230.920898,94 Z M231.382812,87.0336914 C231.737305,87.0336914 232.027344,86.7436523 232.027344,86.3891602 C232.027344,86.034668 231.737305,85.7446289 231.382812,85.7446289 C231.02832,85.7446289 230.738281,86.034668 230.738281,86.3891602 C230.738281,86.7436523 231.02832,87.0336914 231.382812,87.0336914 Z M233.993164,94 L234.916992,94 L234.916992,88.9833984 L236.243652,88.9833984 L236.243652,88.2099609 L234.916992,88.2099609 L234.916992,87.6728516 C234.916992,87.0229492 235.228516,86.7436523 235.781738,86.7436523 C235.964355,86.7436523 236.173828,86.7651367 236.297363,86.7919922 L236.297363,86.0185547 C236.071777,85.980957 235.910645,85.9648438 235.728027,85.9648438 C234.61084,85.9648438 233.993164,86.4589844 233.993164,87.6459961 L233.993164,88.2099609 L233.031738,88.2099609 L233.031738,88.9833984 L233.993164,88.9833984 L233.993164,94 Z M237.60791,94 L238.531738,94 L238.531738,88.2099609 L237.60791,88.2099609 L237.60791,94 Z M238.069824,87.0336914 C238.424316,87.0336914 238.714355,86.7436523 238.714355,86.3891602 C238.714355,86.034668 238.424316,85.7446289 238.069824,85.7446289 C237.715332,85.7446289 237.425293,86.034668 237.425293,86.3891602 C237.425293,86.7436523 237.715332,87.0336914 238.069824,87.0336914 Z M245.084473,89.9824219 C244.92334,88.9511719 244.063965,88.1079102 242.656738,88.1079102 C241.034668,88.1079102 240.003418,89.2788086 240.003418,91.0834961 C240.003418,92.9257812 241.040039,94.1020508 242.662109,94.1020508 C244.053223,94.1020508 244.917969,93.3178711 245.084473,92.2543945 L244.149902,92.2543945 C243.978027,92.909668 243.435547,93.2695312 242.656738,93.2695312 C241.625488,93.2695312 240.959473,92.4208984 240.959473,91.0834961 C240.959473,89.7729492 241.614746,88.9404297 242.656738,88.9404297 C243.489258,88.9404297 243.999512,89.4077148 244.149902,89.9824219 L245.084473,89.9824219 Z M248.231934,93.2910156 C249.182617,93.2910156 249.88623,92.6679688 249.88623,91.8408203 L249.88623,91.309082 L248.328613,91.4111328 C247.447754,91.4702148 247.061035,91.7763672 247.061035,92.3564453 C247.061035,92.9472656 247.560547,93.2910156 248.231934,93.2910156 Z M248.060059,94.1020508 C246.9375,94.1020508 246.10498,93.4360352 246.10498,92.3779297 C246.10498,91.3413086 246.867676,90.7451172 248.21582,90.6645508 L249.88623,90.5625 L249.88623,90.0361328 C249.88623,89.3217773 249.44043,88.9296875 248.575684,88.9296875 C247.882812,88.9296875 247.399414,89.1928711 247.270508,89.6494141 L246.335938,89.6494141 C246.459473,88.7202148 247.372559,88.1079102 248.60791,88.1079102 C250.020508,88.1079102 250.810059,88.8330078 250.810059,90.0361328 L250.810059,94 L249.929199,94 L249.929199,93.1459961 L249.843262,93.1459961 C249.467285,93.7636719 248.833496,94.1020508 248.060059,94.1020508 Z M252.904785,86.7114258 L252.904785,88.2099609 L251.970215,88.2099609 L251.970215,88.9833984 L252.904785,88.9833984 L252.904785,92.4960938 C252.904785,93.6025391 253.382812,94.0429688 254.575195,94.0429688 C254.757812,94.0429688 254.935059,94.0214844 255.117676,93.9892578 L255.117676,93.2104492 C254.945801,93.2265625 254.854492,93.2319336 254.687988,93.2319336 C254.086426,93.2319336 253.828613,92.9418945 253.828613,92.2597656 L253.828613,88.9833984 L255.117676,88.9833984 L255.117676,88.2099609 L253.828613,88.2099609 L253.828613,86.7114258 L252.904785,86.7114258 Z M256.535645,94 L257.459473,94 L257.459473,88.2099609 L256.535645,88.2099609 L256.535645,94 Z M256.997559,87.0336914 C257.352051,87.0336914 257.64209,86.7436523 257.64209,86.3891602 C257.64209,86.034668 257.352051,85.7446289 256.997559,85.7446289 C256.643066,85.7446289 256.353027,86.034668 256.353027,86.3891602 C256.353027,86.7436523 256.643066,87.0336914 256.997559,87.0336914 Z M261.600586,94.1020508 C259.95166,94.1020508 258.931152,92.9633789 258.931152,91.1049805 C258.931152,89.2412109 259.95166,88.1079102 261.600586,88.1079102 C263.249512,88.1079102 264.27002,89.2412109 264.27002,91.1049805 C264.27002,92.9633789 263.249512,94.1020508 261.600586,94.1020508 Z M261.600586,93.2695312 C262.696289,93.2695312 263.313965,92.4746094 263.313965,91.1049805 C263.313965,89.7299805 262.696289,88.9404297 261.600586,88.9404297 C260.504883,88.9404297 259.887207,89.7299805 259.887207,91.1049805 C259.887207,92.4746094 260.504883,93.2695312 261.600586,93.2695312 Z M265.720215,94 L266.644043,94 L266.644043,90.5732422 C266.644043,89.5581055 267.240234,88.9404297 268.164062,88.9404297 C269.087891,88.9404297 269.52832,89.4345703 269.52832,90.4765625 L269.52832,94 L270.452148,94 L270.452148,90.2509766 C270.452148,88.8759766 269.727051,88.1079102 268.427246,88.1079102 C267.541016,88.1079102 266.977051,88.4838867 266.687012,89.1230469 L266.601074,89.1230469 L266.601074,88.2099609 L265.720215,88.2099609 L265.720215,94 Z" mask="url(#warning-d)"/>
  </g>
</svg>
