<svg xmlns="http://www.w3.org/2000/svg" width="256" height="256" viewBox="0 0 256 256">
  <g fill="none" fill-rule="evenodd">
    <g fill-rule="nonzero" transform="translate(32 32)">
      <path fill="#8000D7" d="M96,0 C42.980664,-3.24649801e-15 6.49299601e-15,42.980664 0,96 C-6.49299601e-15,149.019336 42.980664,192 96,192 C149.019336,192 192,149.019336 192,96 C191.940481,43.005337 148.994663,0.0595186146 96,0 Z M96,168 C56.235498,168 24,135.764502 24,96 C24,56.235498 56.235498,24 96,24 C135.764502,24 168,56.235498 168,96 C167.953711,135.745313 135.745313,167.953711 96,168 Z"/>
      <path fill="#440071" d="M96.006,86.256 C89.378583,86.256 84.006,91.628583 84.006,98.256 L84.006,134.256 C84.006,140.883417 89.378583,146.256 96.006,146.256 C102.633417,146.256 108.006,140.883417 108.006,134.256 L108.006,98.256 C108.006,91.628583 102.633417,86.256 96.006,86.256 Z M96.006,48 C88.1326286,48 81.75,54.3826286 81.75,62.256 C81.75,70.1293714 88.1326286,76.512 96.006,76.512 C103.879371,76.512 110.262,70.1293714 110.262,62.256 C110.262,58.4750737 108.760033,54.8490043 106.086514,52.1754857 C103.412996,49.5019671 99.7869263,48 96.006,48 L96.006,48 Z" transform="rotate(-180 96.006 97.128)"/>
    </g>
    <circle cx="18" cy="190" r="4" fill="#9400FF" fill-opacity=".25"/>
    <circle cx="70" cy="242" r="4" fill="#9400FF" fill-opacity=".25"/>
    <circle cx="172" cy="16" r="4" fill="#9400FF" fill-opacity=".25"/>
    <circle cx="242" cy="103" r="4" fill="#9400FF" fill-opacity=".25"/>
    <circle cx="228" cy="20" r="4" fill="#9400FF" fill-opacity=".25"/>
    <path fill="#9400FF" fill-opacity=".25" d="M219.996498 236C218.431348 235.988365 217.103672 234.84913 216.856415 233.3056 216.53712 230.625575 215.664263 228.040919 214.293082 225.7152 211.964336 224.345802 209.376315 223.47408 206.692801 223.1552 205.149222 222.90598 204.011182 221.580481 204.000082 220.018933 203.988981 218.457385 205.108062 217.115882 206.647943 216.8448 209.34859 216.479796 211.947144 215.57192 214.286674 214.176 215.644733 211.878958 216.517117 209.328373 216.850007 206.6816 217.103272 205.14078 218.43304 204.007483 219.996498 204 221.550125 204.001157 222.879066 205.115261 223.149397 206.6432 223.516589 209.313839 224.425919 211.881479 225.821671 214.1888 228.134198 215.571969 230.701271 216.477329 233.370686 216.8512 234.901911 217.130082 236.010979 218.467603 235.999918 220.02202 235.988857 221.576436 234.860867 222.898081 233.325828 223.1552 230.671573 223.478869 228.113819 224.350688 225.815263 225.7152 224.422821 228.053603 223.516176 230.648113 223.149397 233.344 222.88459 234.877026 221.554191 235.997753 219.996498 236zM44.9982488 32C44.215674 31.9941823 43.5518361 31.4245651 43.4282075 30.6528 43.2685601 29.3127873 42.8321317 28.0204595 42.1465412 26.8576 40.9821679 26.1729008 39.6881576 25.7370398 38.3464005 25.5776 37.574611 25.4529899 37.0055912 24.7902404 37.0000409 24.0094664 36.9944907 23.2286924 37.5540312 22.5579412 38.3239713 22.4224 39.6742949 22.239898 40.9735719 21.78596 42.143337 21.088 42.8223665 19.9394788 43.2585586 18.6641865 43.4250033 17.3408 43.5516359 16.5703898 44.2165199 16.0037417 44.9982488 16 45.7750624 16.0005785 46.439533 16.5576304 46.5746984 17.3216 46.7582944 18.6569194 47.2129593 19.9407397 47.9108355 21.0944 49.0670988 21.7859845 50.3506355 22.2386645 51.6853429 22.4256 52.4509554 22.5650408 53.0054895 23.2338017 52.999959 24.0110099 52.9944285 24.7882181 52.4304333 25.4490403 51.6629138 25.5776 50.3357863 25.7394345 49.0569093 26.1753438 47.9076314 26.8576 47.2114106 28.0268015 46.758088 29.3240565 46.5746984 30.672 46.4422951 31.4385132 45.7770957 31.9988766 44.9982488 32zM33.9982488 57C33.215674 56.9941823 32.5518361 56.4245651 32.4282075 55.6528 32.2685601 54.3127873 31.8321317 53.0204595 31.1465412 51.8576 29.9821679 51.1729008 28.6881576 50.7370398 27.3464005 50.5776 26.574611 50.4529899 26.0055912 49.7902404 26.0000409 49.0094664 25.9944907 48.2286924 26.5540312 47.5579412 27.3239713 47.4224 28.6742949 47.239898 29.9735719 46.78596 31.143337 46.088 31.8223665 44.9394788 32.2585586 43.6641865 32.4250033 42.3408 32.5516359 41.5703898 33.2165199 41.0037417 33.9982488 41 34.7750624 41.0005785 35.439533 41.5576304 35.5746984 42.3216 35.7582944 43.6569194 36.2129593 44.9407397 36.9108355 46.0944 38.0670988 46.7859845 39.3506355 47.2386645 40.6853429 47.4256 41.4509554 47.5650408 42.0054895 48.2338017 41.999959 49.0110099 41.9944285 49.7882181 41.4304333 50.4490403 40.6629138 50.5776 39.3357863 50.7394345 38.0569093 51.1753438 36.9076314 51.8576 36.2114106 53.0268015 35.758088 54.3240565 35.5746984 55.672 35.4422951 56.4385132 34.7770957 56.9988766 33.9982488 57z"/>
  </g>
</svg>
