<svg xmlns="http://www.w3.org/2000/svg" width="256" height="256" viewBox="0 0 256 256">
  <g fill="none" fill-rule="evenodd">
    <g fill-rule="nonzero" transform="translate(44 32)">
      <path fill="#005A71" d="M140.6143,51.528 L92.3698447,3.528 C91.2409597,2.40933777 89.9004888,1.52429714 88.4258604,0.924 C87.4666513,0.598790528 86.469528,0.397150106 85.4588264,0.324 C84.9287335,0.177036586 84.3885698,0.0687491269 83.8426371,0 C83.2967044,0.0687491269 82.7565407,0.177036586 82.2264478,0.324 C81.2157462,0.397150106 80.2186229,0.598790528 79.2594138,0.924 C77.7700732,1.54285551 76.4207238,2.4528258 75.2913073,3.6 L27.0468517,51.6 C22.7951219,56.3586055 23.0189589,63.592599 27.5568434,68.0819821 C32.094728,72.5713652 39.3667144,72.7530789 44.125389,68.496 L71.7815232,40.98 L71.7815232,132 C71.7815232,138.627417 77.1814678,144 83.8426371,144 C90.5038064,144 95.903751,138.627417 95.903751,132 L95.903751,40.98 L123.559885,68.496 C128.292412,73.0436665 135.815,72.9786285 140.467379,68.3498229 C145.119758,63.7210173 145.185127,56.2365466 140.6143,51.528 Z"/>
      <path fill="#00C8D7" d="M156,108 C149.372583,108 144,113.372583 144,120 L144,156 C144,162.627417 138.627417,168 132,168 L36,168 C29.372583,168 24,162.627417 24,156 L24,120 C24,113.372583 18.627417,108 12,108 C5.372583,108 0,113.372583 0,120 L0,156 C0,175.882251 16.117749,192 36,192 L132,192 C151.882251,192 168,175.882251 168,156 L168,120 C168,113.372583 162.627417,108 156,108 Z"/>
    </g>
    <path fill="#00FEFF" fill-opacity=".25" d="M32.9964976 48C31.4313481 47.9883646 30.1036721 46.8491302 29.856415 45.3056 29.5371202 42.6255746 28.6642634 40.040919 27.2930823 37.7152 24.9643357 36.3458016 22.3763153 35.4740797 19.6928009 35.1552 18.149222 34.9059798 17.0111823 33.5804808 17.0000819 32.0189328 16.9889814 30.4573848 18.1080624 29.1158824 19.6479426 28.8448 22.3485899 28.479796 24.9471439 27.57192 27.286674 26.176 28.644733 23.8789576 29.5171173 21.3283731 29.8500067 18.6816 30.1032718 17.1407796 31.4330398 16.0074834 32.9964976 16 34.5501249 16.001157 35.879066 17.1152609 36.1493968 18.6432 36.5165887 21.3138388 37.4259186 23.8814793 38.8216711 26.1888 41.1341975 27.5719689 43.701271 28.477329 46.3706859 28.8512 47.9019109 29.1300817 49.010979 30.4676034 48.999918 32.0220198 48.988857 33.5764362 47.8608666 34.8980807 46.3258275 35.1552 43.6715726 35.478869 41.1138186 36.3506877 38.8152628 37.7152 37.4228213 40.053603 36.5161759 42.6481131 36.1493968 45.344 35.8845902 46.8770264 34.5541915 47.9977532 32.9964976 48zM199.998249 62C199.215674 61.9941823 198.551836 61.4245651 198.428208 60.6528 198.26856 59.3127873 197.832132 58.0204595 197.146541 56.8576 195.982168 56.1729008 194.688158 55.7370398 193.3464 55.5776 192.574611 55.4529899 192.005591 54.7902404 192.000041 54.0094664 191.994491 53.2286924 192.554031 52.5579412 193.323971 52.4224 194.674295 52.239898 195.973572 51.78596 197.143337 51.088 197.822366 49.9394788 198.258559 48.6641865 198.425003 47.3408 198.551636 46.5703898 199.21652 46.0037417 199.998249 46 200.775062 46.0005785 201.439533 46.5576304 201.574698 47.3216 201.758294 48.6569194 202.212959 49.9407397 202.910836 51.0944 204.067099 51.7859845 205.350636 52.2386645 206.685343 52.4256 207.450955 52.5650408 208.005489 53.2338017 207.999959 54.0110099 207.994429 54.7882181 207.430433 55.4490403 206.662914 55.5776 205.335786 55.7394345 204.056909 56.1753438 202.907631 56.8576 202.211411 58.0268015 201.758088 59.3240565 201.574698 60.672 201.442295 61.4385132 200.777096 61.9988766 199.998249 62z"/>
    <circle cx="235" cy="75" r="4" fill="#00FEFF" fill-opacity=".25"/>
    <circle cx="202" cy="20" r="4" fill="#00FEFF" fill-opacity=".25"/>
    <circle cx="217" cy="237" r="4" fill="#00FEFF" fill-opacity=".25"/>
    <circle cx="57" cy="16" r="4" fill="#00FEFF" fill-opacity=".25"/>
    <circle cx="29" cy="124" r="4" fill="#00FEFF" fill-opacity=".25"/>
  </g>
</svg>
