<svg xmlns="http://www.w3.org/2000/svg" xmlns:xlink="http://www.w3.org/1999/xlink" width="300" height="180" style="background:#f9f9fa" viewBox="0 0 300 180">
  <defs>
    <rect id="button-radius-a" width="60" height="60" rx="30"/>
  </defs>
  <g fill="none" fill-rule="evenodd">
    <rect width="132" height="32" x="84" y="74" fill="#0C0C0D" fill-opacity=".1" rx="2"/>
    <path fill="#0C0C0D" d="M128.803711,94.1523438 C130.828613,94.1523438 132.187012,93.1430664 132.605957,91.3339844 L131.450684,91.3339844 C131.120605,92.4511719 130.155762,93.0986328 128.810059,93.0986328 C127.000977,93.0986328 125.852051,91.6640625 125.852051,89.4169922 C125.852051,87.1889648 127.013672,85.7416992 128.803711,85.7416992 C130.111328,85.7416992 131.158691,86.5288086 131.450684,87.7285156 L132.605957,87.7285156 C132.313965,85.9003906 130.796875,84.6879883 128.803711,84.6879883 C126.296387,84.6879883 124.677734,86.5415039 124.677734,89.4169922 C124.677734,92.3178711 126.277344,94.1523438 128.803711,94.1523438 Z M133.837402,94 L134.941895,94 L134.941895,90.1533203 C134.941895,89.0107422 135.621094,88.2617188 136.719238,88.2617188 C137.753906,88.2617188 138.280762,88.8901367 138.280762,89.9375 L138.280762,94 L139.385254,94 L139.385254,89.734375 C139.385254,88.2617188 138.509277,87.2841797 137.062012,87.2841797 C136.059082,87.2841797 135.335449,87.7158203 134.967285,88.4521484 L134.941895,88.4521484 L134.941895,84.840332 L133.837402,84.840332 L133.837402,94 Z M142.965332,93.1748047 C144.006348,93.1748047 144.806152,92.4448242 144.806152,91.4926758 L144.806152,90.953125 L143.041504,91.0610352 C142.152832,91.1181641 141.64502,91.5117188 141.64502,92.1337891 C141.64502,92.762207 142.171875,93.1748047 142.965332,93.1748047 Z M142.717773,94.1142578 C141.403809,94.1142578 140.521484,93.3208008 140.521484,92.1337891 C140.521484,91.0039062 141.391113,90.2929688 142.914551,90.2041016 L144.806152,90.0961914 L144.806152,89.5439453 C144.806152,88.737793 144.272949,88.2553711 143.358887,88.2553711 C142.508301,88.2553711 141.975098,88.6552734 141.835449,89.3027344 L140.769043,89.3027344 C140.845215,88.1601562 141.822754,87.2841797 143.384277,87.2841797 C144.933105,87.2841797 145.910645,88.1220703 145.910645,89.4360352 L145.910645,94 L144.863281,94 L144.863281,92.8637695 L144.837891,92.8637695 C144.444336,93.6191406 143.606445,94.1142578 142.717773,94.1142578 Z M147.313477,94 L148.417969,94 L148.417969,90.1152344 C148.417969,88.9980469 149.097168,88.2617188 150.138184,88.2617188 C151.153809,88.2617188 151.655273,88.8457031 151.655273,89.9121094 L151.655273,94 L152.759766,94 L152.759766,89.715332 C152.759766,88.2172852 151.921875,87.2841797 150.474609,87.2841797 C149.452637,87.2841797 148.748047,87.7412109 148.379883,88.4521484 L148.354492,88.4521484 L148.354492,87.3984375 L147.313477,87.3984375 L147.313477,94 Z M156.847656,93.0795898 C157.996582,93.0795898 158.764648,92.1274414 158.764648,90.6738281 C158.764648,89.2202148 157.996582,88.2553711 156.847656,88.2553711 C155.711426,88.2553711 154.96875,89.1948242 154.96875,90.6738281 C154.96875,92.152832 155.711426,93.0795898 156.847656,93.0795898 Z M156.885742,96.4882812 C155.432129,96.4882812 154.283203,95.6694336 154.099121,94.5458984 L155.235352,94.5458984 C155.451172,95.1489258 156.10498,95.5488281 156.930176,95.5488281 C158.072754,95.5488281 158.764648,94.8886719 158.764648,93.9047852 L158.764648,92.8637695 L158.739258,92.8637695 C158.333008,93.5810547 157.552246,94.0507812 156.625488,94.0507812 C154.943359,94.0507812 153.838867,92.7241211 153.838867,90.6738281 C153.838867,88.6044922 154.943359,87.2841797 156.650879,87.2841797 C157.583984,87.2841797 158.358398,87.7412109 158.796387,88.5092773 L158.81543,88.5092773 L158.81543,87.3984375 L159.869141,87.3984375 L159.869141,93.8666992 C159.869141,95.440918 158.70752,96.4882812 156.885742,96.4882812 Z M163.950684,88.2426758 C162.916016,88.2426758 162.192383,89.0361328 162.122559,90.1342773 L165.708984,90.1342773 C165.683594,89.0297852 164.991699,88.2426758 163.950684,88.2426758 Z M165.683594,92.1083984 L166.769043,92.1083984 C166.578613,93.2636719 165.461426,94.1142578 164.020508,94.1142578 C162.128906,94.1142578 160.97998,92.800293 160.97998,90.7246094 C160.97998,88.6743164 162.147949,87.2841797 163.969727,87.2841797 C165.753418,87.2841797 166.851562,88.5791016 166.851562,90.5786133 L166.851562,90.9975586 L162.116211,90.9975586 L162.116211,91.0610352 C162.116211,92.3242188 162.858887,93.1557617 164.045898,93.1557617 C164.883789,93.1557617 165.499512,92.7304688 165.683594,92.1083984 Z M168.895508,94.0634766 C169.301758,94.0634766 169.619141,93.7460938 169.619141,93.3398438 C169.619141,92.9335938 169.301758,92.6162109 168.895508,92.6162109 C168.489258,92.6162109 168.171875,92.9335938 168.171875,93.3398438 C168.171875,93.7460938 168.489258,94.0634766 168.895508,94.0634766 Z M172.050293,94.0634766 C172.456543,94.0634766 172.773926,93.7460938 172.773926,93.3398438 C172.773926,92.9335938 172.456543,92.6162109 172.050293,92.6162109 C171.644043,92.6162109 171.32666,92.9335938 171.32666,93.3398438 C171.32666,93.7460938 171.644043,94.0634766 172.050293,94.0634766 Z M175.205078,94.0634766 C175.611328,94.0634766 175.928711,93.7460938 175.928711,93.3398438 C175.928711,92.9335938 175.611328,92.6162109 175.205078,92.6162109 C174.798828,92.6162109 174.481445,92.9335938 174.481445,93.3398438 C174.481445,93.7460938 174.798828,94.0634766 175.205078,94.0634766 Z"/>
    <g transform="translate(194 36)">
      <mask id="button-radius-b" fill="#fff">
        <use xlink:href="#button-radius-a"/>
      </mask>
      <use fill="#FFF" xlink:href="#button-radius-a"/>
      <rect width="55.5" height="55.5" x="-13.5" y="18" fill="#E0E0E1" mask="url(#button-radius-b)" rx="12"/>
      <rect width="59" height="59" x=".5" y=".5" stroke="#0C0C0D" stroke-opacity=".1" mask="url(#button-radius-b)" rx="29.5"/>
    </g>
  </g>
</svg>
