<svg xmlns="http://www.w3.org/2000/svg" width="300" height="180" viewBox="0 0 300 180">
  <g fill="none" fill-rule="evenodd">
    <rect width="144" height="48" x="78" y="66" fill="#0060DF" rx="4"/>
    <path fill="#FFF" d="M96.7272949,84.4311523 L95.4089355,84.4311523 L95.4089355,91.2939453 C95.4089355,93.5498047 96.9836426,95.1757812 99.6057129,95.1757812 C102.227783,95.1757812 103.80249,93.5498047 103.80249,91.2939453 L103.80249,84.4311523 L102.484131,84.4311523 L102.484131,91.2060547 C102.484131,92.8027344 101.436768,93.9599609 99.6057129,93.9599609 C97.7746582,93.9599609 96.7272949,92.8027344 96.7272949,91.2060547 L96.7272949,84.4311523 Z M109.354248,87.2509766 C111.295166,87.2509766 112.613525,88.8037109 112.613525,91.1914062 C112.613525,93.5791016 111.30249,95.1318359 109.383545,95.1318359 C108.292236,95.1318359 107.41333,94.597168 106.959229,93.762207 L106.929932,93.762207 L106.929932,97.5415039 L105.655518,97.5415039 L105.655518,87.3828125 L106.864014,87.3828125 L106.864014,88.671875 L106.893311,88.671875 C107.362061,87.8149414 108.248291,87.2509766 109.354248,87.2509766 Z M109.105225,94.0112305 C110.460205,94.0112305 111.309814,92.9199219 111.309814,91.1914062 C111.309814,89.4702148 110.460205,88.371582 109.105225,88.371582 C107.801514,88.371582 106.922607,89.4995117 106.922607,91.1914062 C106.922607,92.890625 107.801514,94.0112305 109.105225,94.0112305 Z M116.781006,95.1318359 C114.840088,95.1318359 113.521729,93.5791016 113.521729,91.1914062 C113.521729,88.8037109 114.832764,87.2509766 116.751709,87.2509766 C117.843018,87.2509766 118.721924,87.7856445 119.176025,88.6206055 L119.205322,88.6206055 L119.205322,84.4311523 L120.479736,84.4311523 L120.479736,95 L119.263916,95 L119.263916,93.7109375 L119.241943,93.7109375 C118.751221,94.5898438 117.879639,95.1318359 116.781006,95.1318359 Z M117.022705,88.371582 C115.675049,88.371582 114.825439,89.4702148 114.825439,91.1914062 C114.825439,92.9199219 115.675049,94.0112305 117.022705,94.0112305 C118.33374,94.0112305 119.212646,92.8979492 119.212646,91.1914062 C119.212646,89.4921875 118.33374,88.371582 117.022705,88.371582 Z M124.713135,94.0478516 C125.914307,94.0478516 126.837158,93.2055664 126.837158,92.1069336 L126.837158,91.484375 L124.801025,91.6088867 C123.775635,91.6748047 123.189697,92.1289062 123.189697,92.8466797 C123.189697,93.5717773 123.797607,94.0478516 124.713135,94.0478516 Z M124.42749,95.1318359 C122.911377,95.1318359 121.893311,94.2163086 121.893311,92.8466797 C121.893311,91.5429688 122.896729,90.7226562 124.654541,90.6201172 L126.837158,90.4956055 L126.837158,89.8583984 C126.837158,88.9282227 126.221924,88.371582 125.167236,88.371582 C124.185791,88.371582 123.570557,88.8330078 123.409424,89.5800781 L122.178955,89.5800781 C122.266846,88.2617188 123.394775,87.2509766 125.196533,87.2509766 C126.983643,87.2509766 128.111572,88.2177734 128.111572,89.7338867 L128.111572,95 L126.903076,95 L126.903076,93.6889648 L126.873779,93.6889648 C126.419678,94.5605469 125.452881,95.1318359 124.42749,95.1318359 Z M130.140381,85.5444336 L130.140381,87.3828125 L129.005127,87.3828125 L129.005127,88.4301758 L130.140381,88.4301758 L130.140381,93.0224609 C130.140381,94.4873047 130.682373,95.0585938 132.081299,95.0585938 C132.381592,95.0585938 132.733154,95.0366211 132.886963,95 L132.886963,93.9306641 C132.799072,93.9453125 132.506104,93.9672852 132.359619,93.9672852 C131.707764,93.9672852 131.414795,93.6523438 131.414795,92.956543 L131.414795,88.4301758 L132.894287,88.4301758 L132.894287,87.3828125 L131.414795,87.3828125 L131.414795,85.5444336 L130.140381,85.5444336 Z M137.08374,88.3569336 C135.889893,88.3569336 135.054932,89.2724609 134.974365,90.5395508 L139.112549,90.5395508 C139.083252,89.2651367 138.284912,88.3569336 137.08374,88.3569336 Z M139.083252,92.8173828 L140.335693,92.8173828 C140.115967,94.1503906 138.826904,95.1318359 137.164307,95.1318359 C134.981689,95.1318359 133.656006,93.6157227 133.656006,91.2207031 C133.656006,88.8549805 135.003662,87.2509766 137.105713,87.2509766 C139.163818,87.2509766 140.430908,88.7451172 140.430908,91.0522461 L140.430908,91.5356445 L134.967041,91.5356445 L134.967041,91.6088867 C134.967041,93.0664062 135.823975,94.0258789 137.193604,94.0258789 C138.1604,94.0258789 138.87085,93.5351562 139.083252,92.8173828 Z M144.788818,95 L146.063232,95 L146.063232,90.2246094 C146.063232,89.1699219 146.795654,88.3789062 147.806396,88.3789062 C148.751221,88.3789062 149.366455,88.9794922 149.366455,89.8950195 L149.366455,95 L150.640869,95 L150.640869,90.1586914 C150.640869,89.1259766 151.351318,88.3789062 152.362061,88.3789062 C153.365479,88.3789062 153.944092,88.9941406 153.944092,90.0341797 L153.944092,95 L155.218506,95 L155.218506,89.7412109 C155.218506,88.2324219 154.244385,87.2509766 152.735596,87.2509766 C151.66626,87.2509766 150.772705,87.7929688 150.3479,88.7011719 L150.318604,88.7011719 C149.989014,87.7783203 149.219971,87.2509766 148.179932,87.2509766 C147.154541,87.2509766 146.378174,87.7929688 146.019287,88.5986328 L145.98999,88.5986328 L145.98999,87.3828125 L144.788818,87.3828125 L144.788818,95 Z M157.467041,97.8491211 C158.843994,97.8491211 159.473877,97.3144531 160.125732,95.534668 L163.121338,87.3828125 L161.781006,87.3828125 L159.671631,93.7255859 L159.649658,93.7255859 L157.540283,87.3828125 L156.177979,87.3828125 L158.990479,95.0073242 L158.814697,95.5419922 C158.521729,96.4282227 158.126221,96.7724609 157.415771,96.7724609 C157.254639,96.7724609 157.056885,96.7651367 156.917725,96.7358398 L156.917725,97.8051758 C157.056885,97.8344727 157.313232,97.8491211 157.467041,97.8491211 Z M167.398682,84.4311523 L171.170654,84.4311523 C173.155518,84.4311523 174.554443,85.8227539 174.554443,87.8222656 C174.554443,89.8291016 173.140869,91.2280273 171.156006,91.2280273 L168.717041,91.2280273 L168.717041,95 L167.398682,95 L167.398682,84.4311523 Z M168.717041,85.6030273 L168.717041,90.0561523 L170.826416,90.0561523 C172.335205,90.0561523 173.199463,89.2285156 173.199463,87.8222656 C173.199463,86.4233398 172.342529,85.6030273 170.826416,85.6030273 L168.717041,85.6030273 Z M175.865479,95 L177.139893,95 L177.139893,90.2539062 C177.139893,89.1772461 177.784424,88.4667969 178.773193,88.4667969 C179.080811,88.4667969 179.351807,88.503418 179.454346,88.5400391 L179.454346,87.3022461 C179.351807,87.2875977 179.161377,87.2509766 178.94165,87.2509766 C178.048096,87.2509766 177.344971,87.7856445 177.095947,88.6279297 L177.06665,88.6279297 L177.06665,87.3828125 L175.865479,87.3828125 L175.865479,95 Z M183.277588,95.1318359 C181.168213,95.1318359 179.747314,93.6157227 179.747314,91.1914062 C179.747314,88.7597656 181.168213,87.2509766 183.277588,87.2509766 C185.379639,87.2509766 186.800537,88.7597656 186.800537,91.1914062 C186.800537,93.6157227 185.379639,95.1318359 183.277588,95.1318359 Z M183.277588,94.0112305 C184.625244,94.0112305 185.50415,92.9858398 185.50415,91.1914062 C185.50415,89.3969727 184.625244,88.371582 183.277588,88.371582 C181.929932,88.371582 181.043701,89.3969727 181.043701,91.1914062 C181.043701,92.9858398 181.929932,94.0112305 183.277588,94.0112305 Z M188.492432,95 L189.766846,95 L189.766846,88.4301758 L191.31958,88.4301758 L191.31958,87.3828125 L189.759521,87.3828125 L189.759521,86.5405273 C189.759521,85.7861328 190.089111,85.4199219 190.777588,85.4199219 C190.98999,85.4199219 191.202393,85.4418945 191.356201,85.4638672 L191.356201,84.4311523 C191.173096,84.4018555 190.865479,84.3725586 190.579834,84.3725586 C189.173584,84.3725586 188.492432,85.0683594 188.492432,86.5332031 L188.492432,87.3828125 L187.43042,87.3828125 L187.43042,88.4301758 L188.492432,88.4301758 L188.492432,95 Z M192.703857,95 L193.978271,95 L193.978271,87.3828125 L192.703857,87.3828125 L192.703857,95 Z M193.341064,86.1010742 C193.780518,86.1010742 194.139404,85.7421875 194.139404,85.3100586 C194.139404,84.8706055 193.780518,84.519043 193.341064,84.519043 C192.908936,84.519043 192.550049,84.8706055 192.550049,85.3100586 C192.550049,85.7421875 192.908936,86.1010742 193.341064,86.1010742 Z M195.765381,95 L197.039795,95 L197.039795,84.4311523 L195.765381,84.4311523 L195.765381,95 Z M201.815186,88.3569336 C200.621338,88.3569336 199.786377,89.2724609 199.705811,90.5395508 L203.843994,90.5395508 C203.814697,89.2651367 203.016357,88.3569336 201.815186,88.3569336 Z M203.814697,92.8173828 L205.067139,92.8173828 C204.847412,94.1503906 203.55835,95.1318359 201.895752,95.1318359 C199.713135,95.1318359 198.387451,93.6157227 198.387451,91.2207031 C198.387451,88.8549805 199.735107,87.2509766 201.837158,87.2509766 C203.895264,87.2509766 205.162354,88.7451172 205.162354,91.0522461 L205.162354,91.5356445 L199.698486,91.5356445 L199.698486,91.6088867 C199.698486,93.0664062 200.55542,94.0258789 201.925049,94.0258789 C202.891846,94.0258789 203.602295,93.5351562 203.814697,92.8173828 Z"/>
    <rect width="5" height="1" x="241" y="66" fill="#FF1AD9"/>
    <rect width="5" height="1" x="241" y="113" fill="#FF1AD9"/>
    <rect width="1" height="48" x="243" y="66" fill="#FF1AD9"/>
    <polygon fill="#FF1AD9" points="240 90 244 86 248 90 244 94"/>
    <rect width="35" height="22" x="226" y="79" fill="#FF1AD9" rx="2"/>
    <path fill="#FFF" d="M234.23,91.108 L234.23,86.944 L234.206,86.944 L231.374,91.108 L234.23,91.108 Z M235.19,91.108 L236.342,91.108 L236.342,92.008 L235.19,92.008 L235.19,94 L234.23,94 L234.23,92.008 L230.498,92.008 L230.498,91.024 L234.374,85.492 L235.19,85.492 L235.19,91.108 Z M238.694,87.7 C238.694,87.9320012 238.734,88.1339991 238.814,88.306 C238.894,88.4780009 239.001999,88.6199994 239.138,88.732 C239.274001,88.8440006 239.433999,88.9279997 239.618,88.984 C239.802001,89.0400003 239.997999,89.068 240.206,89.068 C240.614002,89.068 240.949999,88.9480012 241.214,88.708 C241.478001,88.4679988 241.61,88.1320022 241.61,87.7 C241.61,87.2679978 241.476001,86.9420011 241.208,86.722 C240.939999,86.5019989 240.598002,86.392 240.182,86.392 C239.981999,86.392 239.790001,86.4199997 239.606,86.476 C239.421999,86.5320003 239.264001,86.6159994 239.132,86.728 C238.999999,86.8400006 238.894,86.9759992 238.814,87.136 C238.734,87.2960008 238.694,87.4839989 238.694,87.7 Z M237.614,87.664 C237.614,87.3119982 237.681999,87.0020013 237.818,86.734 C237.954001,86.4659987 238.137999,86.2400009 238.37,86.056 C238.602001,85.8719991 238.867998,85.7320005 239.168,85.636 C239.468001,85.5399995 239.781998,85.492 240.11,85.492 C240.574002,85.492 240.969998,85.5539994 241.298,85.678 C241.626002,85.8020006 241.891999,85.965999 242.096,86.17 C242.300001,86.374001 242.45,86.6059987 242.546,86.866 C242.642,87.1260013 242.69,87.3919986 242.69,87.664 C242.69,88.0480019 242.584001,88.3979984 242.372,88.714 C242.159999,89.0300016 241.874002,89.2679992 241.514,89.428 C242.026003,89.5880008 242.405999,89.8499982 242.654,90.214 C242.902001,90.5780018 243.026,91.0239974 243.026,91.552 C243.026,91.9680021 242.952001,92.3359984 242.804,92.656 C242.655999,92.9760016 242.456001,93.2459989 242.204,93.466 C241.951999,93.6860011 241.654002,93.8519994 241.31,93.964 C240.965998,94.0760006 240.598002,94.132 240.206,94.132 C239.797998,94.132 239.418002,94.0800005 239.066,93.976 C238.713998,93.8719995 238.408001,93.7120011 238.148,93.496 C237.887999,93.2799989 237.684001,93.0100016 237.536,92.686 C237.387999,92.3619984 237.314,91.9840022 237.314,91.552 C237.314,91.0479975 237.441999,90.6100019 237.698,90.238 C237.954001,89.8659981 238.321998,89.5960008 238.802,89.428 C238.441998,89.2839993 238.154001,89.0500016 237.938,88.726 C237.721999,88.4019984 237.614,88.0480019 237.614,87.664 Z M238.394,91.6 C238.394,92.1120026 238.563998,92.5139985 238.904,92.806 C239.244002,93.0980015 239.677997,93.244 240.206,93.244 C240.462001,93.244 240.695999,93.2020004 240.908,93.118 C241.120001,93.0339996 241.303999,92.9180007 241.46,92.77 C241.616001,92.6219993 241.736,92.448001 241.82,92.248 C241.904,92.047999 241.946,91.8280012 241.946,91.588 C241.946,91.3559988 241.9,91.142001 241.808,90.946 C241.716,90.749999 241.590001,90.5800007 241.43,90.436 C241.269999,90.2919993 241.084001,90.1780004 240.872,90.094 C240.659999,90.0099996 240.434001,89.968 240.194,89.968 C239.945999,89.968 239.712001,90.0059996 239.492,90.082 C239.271999,90.1580004 239.080001,90.2679993 238.916,90.412 C238.751999,90.5560007 238.624,90.727999 238.532,90.928 C238.44,91.128001 238.394,91.3519988 238.394,91.6 Z M244.31,87.796 L245.33,87.796 L245.33,88.636 L245.354,88.636 C245.522001,88.2919983 245.785998,88.0420008 246.146,87.886 C246.506002,87.7299992 246.901998,87.652 247.334,87.652 C247.814002,87.652 248.231998,87.7399991 248.588,87.916 C248.944002,88.0920009 249.239999,88.3299985 249.476,88.63 C249.712001,88.9300015 249.889999,89.275998 250.01,89.668 C250.130001,90.060002 250.19,90.4759978 250.19,90.916 C250.19,91.3560022 250.132001,91.771998 250.016,92.164 C249.899999,92.556002 249.724001,92.8979985 249.488,93.19 C249.251999,93.4820015 248.956002,93.7119992 248.6,93.88 C248.243998,94.0480008 247.830002,94.132 247.358,94.132 C247.205999,94.132 247.036001,94.1160002 246.848,94.084 C246.659999,94.0519998 246.474001,94.0000004 246.29,93.928 C246.105999,93.8559996 245.932001,93.7580006 245.768,93.634 C245.603999,93.5099994 245.466001,93.3560009 245.354,93.172 L245.33,93.172 L245.33,96.364 L244.31,96.364 L244.31,87.796 Z M249.11,90.844 C249.11,90.5559986 249.072,90.2740014 248.996,89.998 C248.92,89.7219986 248.804001,89.4760011 248.648,89.26 C248.491999,89.0439989 248.292001,88.8720006 248.048,88.744 C247.803999,88.6159994 247.518002,88.552 247.19,88.552 C246.845998,88.552 246.554001,88.6199993 246.314,88.756 C246.073999,88.8920007 245.878001,89.0699989 245.726,89.29 C245.573999,89.5100011 245.464,89.7599986 245.396,90.04 C245.328,90.3200014 245.294,90.6039986 245.294,90.892 C245.294,91.1960015 245.33,91.4899986 245.402,91.774 C245.474,92.0580014 245.587999,92.3079989 245.744,92.524 C245.900001,92.7400011 246.101999,92.9139993 246.35,93.046 C246.598001,93.1780007 246.897998,93.244 247.25,93.244 C247.602002,93.244 247.895999,93.1760007 248.132,93.04 C248.368001,92.9039993 248.557999,92.7240011 248.702,92.5 C248.846001,92.2759989 248.95,92.0200014 249.014,91.732 C249.078,91.4439986 249.11,91.1480015 249.11,90.844 Z M253.058,90.736 L250.73,94 L251.966,94 L253.694,91.432 L255.422,94 L256.73,94 L254.33,90.652 L256.466,87.796 L255.242,87.796 L253.694,89.968 L252.206,87.796 L250.898,87.796 L253.058,90.736 Z"/>
    <rect width="1" height="5" x="206" y="116" fill="#30E60B"/>
    <rect width="1" height="5" x="221" y="116" fill="#30E60B"/>
    <rect width="16" height="1" x="206" y="118" fill="#30E60B"/>
    <polygon fill="#30E60B" points="210 125 214 121 218 125 214 129"/>
    <rect width="35" height="22" x="196" y="125" fill="#30E60B" rx="2"/>
    <path fill="#003706" d="M204.434,140 L204.434,131.492 L203.654,131.492 C203.598,131.812002 203.494001,132.075999 203.342,132.284 C203.189999,132.492001 203.004001,132.655999 202.784,132.776 C202.563999,132.896001 202.318001,132.978 202.046,133.022 C201.773999,133.066 201.494001,133.088 201.206,133.088 L201.206,133.904 L203.414,133.904 L203.414,140 L204.434,140 Z M211.802,133.664 C211.754,133.279998 211.606001,132.972001 211.358,132.74 C211.109999,132.507999 210.782002,132.392 210.374,132.392 C209.941998,132.392 209.594001,132.497999 209.33,132.71 C209.065999,132.922001 208.860001,133.189998 208.712,133.514 C208.563999,133.838002 208.462,134.187998 208.406,134.564 C208.35,134.940002 208.318,135.291998 208.31,135.62 L208.334,135.644 C208.574001,135.251998 208.871998,134.968001 209.228,134.792 C209.584002,134.615999 209.993998,134.528 210.458,134.528 C210.866002,134.528 211.231998,134.597999 211.556,134.738 C211.880002,134.878001 212.151999,135.071999 212.372,135.32 C212.592001,135.568001 212.761999,135.859998 212.882,136.196 C213.002001,136.532002 213.062,136.895998 213.062,137.288 C213.062,137.600002 213.014,137.923998 212.918,138.26 C212.822,138.596002 212.664001,138.901999 212.444,139.178 C212.223999,139.454001 211.932002,139.681999 211.568,139.862 C211.203998,140.042001 210.754003,140.132 210.218,140.132 C209.585997,140.132 209.078002,140.004001 208.694,139.748 C208.309998,139.491999 208.014001,139.164002 207.806,138.764 C207.597999,138.363998 207.46,137.924002 207.392,137.444 C207.324,136.963998 207.29,136.500002 207.29,136.052 C207.29,135.467997 207.34,134.902003 207.44,134.354 C207.54,133.805997 207.709999,133.320002 207.95,132.896 C208.190001,132.471998 208.509998,132.132001 208.91,131.876 C209.310002,131.619999 209.813997,131.492 210.422,131.492 C211.126004,131.492 211.685998,131.677998 212.102,132.05 C212.518002,132.422002 212.758,132.959996 212.822,133.664 L211.802,133.664 Z M210.266,135.428 C209.977999,135.428 209.726001,135.478 209.51,135.578 C209.293999,135.678 209.110001,135.813999 208.958,135.986 C208.805999,136.158001 208.692,136.361999 208.616,136.598 C208.54,136.834001 208.502,137.083999 208.502,137.348 C208.502,137.612001 208.542,137.859999 208.622,138.092 C208.702,138.324001 208.815999,138.523999 208.964,138.692 C209.112001,138.860001 209.295999,138.994 209.516,139.094 C209.736001,139.194 209.985999,139.244 210.266,139.244 C210.546001,139.244 210.791999,139.194 211.004,139.094 C211.216001,138.994 211.393999,138.856001 211.538,138.68 C211.682001,138.503999 211.792,138.302001 211.868,138.074 C211.944,137.845999 211.982,137.608001 211.982,137.36 C211.982,137.095999 211.948,136.846001 211.88,136.61 C211.812,136.373999 211.706001,136.170001 211.562,135.998 C211.417999,135.825999 211.238001,135.688001 211.022,135.584 C210.805999,135.479999 210.554001,135.428 210.266,135.428 Z M214.31,133.796 L215.33,133.796 L215.33,134.636 L215.354,134.636 C215.522001,134.291998 215.785998,134.042001 216.146,133.886 C216.506002,133.729999 216.901998,133.652 217.334,133.652 C217.814002,133.652 218.231998,133.739999 218.588,133.916 C218.944002,134.092001 219.239999,134.329998 219.476,134.63 C219.712001,134.930002 219.889999,135.275998 220.01,135.668 C220.130001,136.060002 220.19,136.475998 220.19,136.916 C220.19,137.356002 220.132001,137.771998 220.016,138.164 C219.899999,138.556002 219.724001,138.897999 219.488,139.19 C219.251999,139.482001 218.956002,139.711999 218.6,139.88 C218.243998,140.048001 217.830002,140.132 217.358,140.132 C217.205999,140.132 217.036001,140.116 216.848,140.084 C216.659999,140.052 216.474001,140 216.29,139.928 C216.105999,139.856 215.932001,139.758001 215.768,139.634 C215.603999,139.509999 215.466001,139.356001 215.354,139.172 L215.33,139.172 L215.33,142.364 L214.31,142.364 L214.31,133.796 Z M219.11,136.844 C219.11,136.555999 219.072,136.274001 218.996,135.998 C218.92,135.721999 218.804001,135.476001 218.648,135.26 C218.491999,135.043999 218.292001,134.872001 218.048,134.744 C217.803999,134.615999 217.518002,134.552 217.19,134.552 C216.845998,134.552 216.554001,134.619999 216.314,134.756 C216.073999,134.892001 215.878001,135.069999 215.726,135.29 C215.573999,135.510001 215.464,135.759999 215.396,136.04 C215.328,136.320001 215.294,136.603999 215.294,136.892 C215.294,137.196002 215.33,137.489999 215.402,137.774 C215.474,138.058001 215.587999,138.307999 215.744,138.524 C215.900001,138.740001 216.101999,138.913999 216.35,139.046 C216.598001,139.178001 216.897998,139.244 217.25,139.244 C217.602002,139.244 217.895999,139.176001 218.132,139.04 C218.368001,138.903999 218.557999,138.724001 218.702,138.5 C218.846001,138.275999 218.95,138.020001 219.014,137.732 C219.078,137.443999 219.11,137.148002 219.11,136.844 Z M223.058,136.736 L220.73,140 L221.966,140 L223.694,137.432 L225.422,140 L226.73,140 L224.33,136.652 L226.466,133.796 L225.242,133.796 L223.694,135.968 L222.206,133.796 L220.898,133.796 L223.058,136.736 Z"/>
    <rect width="1" height="5" x="78" y="116" fill="#30E60B"/>
    <rect width="1" height="5" x="93" y="116" fill="#30E60B"/>
    <rect width="16" height="1" x="78" y="118" fill="#30E60B"/>
    <polygon fill="#30E60B" points="82 125 86 121 90 125 86 129"/>
    <rect width="35" height="22" x="68" y="125" fill="#30E60B" rx="2"/>
    <path fill="#003706" d="M76.434,140 L76.434,131.492 L75.654,131.492 C75.5979997,131.812002 75.4940008,132.075999 75.342,132.284 C75.1899992,132.492001 75.0040011,132.655999 74.784,132.776 C74.5639989,132.896001 74.3180014,132.978 74.046,133.022 C73.7739986,133.066 73.4940014,133.088 73.206,133.088 L73.206,133.904 L75.414,133.904 L75.414,140 L76.434,140 Z M83.802,133.664 C83.7539998,133.279998 83.6060012,132.972001 83.358,132.74 C83.1099988,132.507999 82.782002,132.392 82.374,132.392 C81.9419978,132.392 81.5940013,132.497999 81.33,132.71 C81.0659987,132.922001 80.8600007,133.189998 80.712,133.514 C80.5639993,133.838002 80.4620003,134.187998 80.406,134.564 C80.3499997,134.940002 80.318,135.291998 80.31,135.62 L80.334,135.644 C80.5740012,135.251998 80.8719982,134.968001 81.228,134.792 C81.5840018,134.615999 81.9939977,134.528 82.458,134.528 C82.866002,134.528 83.2319984,134.597999 83.556,134.738 C83.8800016,134.878001 84.1519989,135.071999 84.372,135.32 C84.5920011,135.568001 84.7619994,135.859998 84.882,136.196 C85.0020006,136.532002 85.062,136.895998 85.062,137.288 C85.062,137.600002 85.0140005,137.923998 84.918,138.26 C84.8219995,138.596002 84.6640011,138.901999 84.444,139.178 C84.2239989,139.454001 83.9320018,139.681999 83.568,139.862 C83.2039982,140.042001 82.7540027,140.132 82.218,140.132 C81.5859968,140.132 81.0780019,140.004001 80.694,139.748 C80.3099981,139.491999 80.014001,139.164002 79.806,138.764 C79.597999,138.363998 79.4600003,137.924002 79.392,137.444 C79.3239997,136.963998 79.29,136.500002 79.29,136.052 C79.29,135.467997 79.3399995,134.902003 79.44,134.354 C79.5400005,133.805997 79.7099988,133.320002 79.95,132.896 C80.1900012,132.471998 80.509998,132.132001 80.91,131.876 C81.310002,131.619999 81.813997,131.492 82.422,131.492 C83.1260035,131.492 83.6859979,131.677998 84.102,132.05 C84.5180021,132.422002 84.7579997,132.959996 84.822,133.664 L83.802,133.664 Z M82.266,135.428 C81.9779986,135.428 81.7260011,135.478 81.51,135.578 C81.2939989,135.678 81.1100008,135.813999 80.958,135.986 C80.8059992,136.158001 80.6920004,136.361999 80.616,136.598 C80.5399996,136.834001 80.502,137.083999 80.502,137.348 C80.502,137.612001 80.5419996,137.859999 80.622,138.092 C80.7020004,138.324001 80.8159993,138.523999 80.964,138.692 C81.1120007,138.860001 81.2959989,138.994 81.516,139.094 C81.7360011,139.194 81.9859986,139.244 82.266,139.244 C82.5460014,139.244 82.7919989,139.194 83.004,139.094 C83.2160011,138.994 83.3939993,138.856001 83.538,138.68 C83.6820007,138.503999 83.7919996,138.302001 83.868,138.074 C83.9440004,137.845999 83.982,137.608001 83.982,137.36 C83.982,137.095999 83.9480003,136.846001 83.88,136.61 C83.8119997,136.373999 83.7060007,136.170001 83.562,135.998 C83.4179993,135.825999 83.2380011,135.688001 83.022,135.584 C82.8059989,135.479999 82.5540014,135.428 82.266,135.428 Z M86.31,133.796 L87.33,133.796 L87.33,134.636 L87.354,134.636 C87.5220008,134.291998 87.7859982,134.042001 88.146,133.886 C88.5060018,133.729999 88.9019978,133.652 89.334,133.652 C89.8140024,133.652 90.2319982,133.739999 90.588,133.916 C90.9440018,134.092001 91.2399988,134.329998 91.476,134.63 C91.7120012,134.930002 91.8899994,135.275998 92.01,135.668 C92.1300006,136.060002 92.19,136.475998 92.19,136.916 C92.19,137.356002 92.1320006,137.771998 92.016,138.164 C91.8999994,138.556002 91.7240012,138.897999 91.488,139.19 C91.2519988,139.482001 90.9560018,139.711999 90.6,139.88 C90.2439982,140.048001 89.8300024,140.132 89.358,140.132 C89.2059992,140.132 89.0360009,140.116 88.848,140.084 C88.6599991,140.052 88.4740009,140 88.29,139.928 C88.1059991,139.856 87.9320008,139.758001 87.768,139.634 C87.6039992,139.509999 87.4660006,139.356001 87.354,139.172 L87.33,139.172 L87.33,142.364 L86.31,142.364 L86.31,133.796 Z M91.11,136.844 C91.11,136.555999 91.0720004,136.274001 90.996,135.998 C90.9199996,135.721999 90.8040008,135.476001 90.648,135.26 C90.4919992,135.043999 90.2920012,134.872001 90.048,134.744 C89.8039988,134.615999 89.5180016,134.552 89.19,134.552 C88.8459983,134.552 88.5540012,134.619999 88.314,134.756 C88.0739988,134.892001 87.8780008,135.069999 87.726,135.29 C87.5739992,135.510001 87.4640003,135.759999 87.396,136.04 C87.3279997,136.320001 87.294,136.603999 87.294,136.892 C87.294,137.196002 87.3299996,137.489999 87.402,137.774 C87.4740004,138.058001 87.5879992,138.307999 87.744,138.524 C87.9000008,138.740001 88.1019988,138.913999 88.35,139.046 C88.5980012,139.178001 88.8979982,139.244 89.25,139.244 C89.6020018,139.244 89.8959988,139.176001 90.132,139.04 C90.3680012,138.903999 90.5579993,138.724001 90.702,138.5 C90.8460007,138.275999 90.9499997,138.020001 91.014,137.732 C91.0780003,137.443999 91.11,137.148002 91.11,136.844 Z M95.058,136.736 L92.73,140 L93.966,140 L95.694,137.432 L97.422,140 L98.73,140 L96.33,136.652 L98.466,133.796 L97.242,133.796 L95.694,135.968 L94.206,133.796 L92.898,133.796 L95.058,136.736 Z"/>
  </g>
</svg>
