<svg xmlns="http://www.w3.org/2000/svg" width="300" height="180" viewBox="0 0 300 180">
  <g fill="none" fill-rule="evenodd">
    <rect width="82" height="24" x="109" y="78" fill="#0060DF" rx="2"/>
    <path fill="#FFF" d="M117.523682,91.8676758 C117.61499,93.2373047 118.753662,94.1289062 120.397217,94.1289062 C122.18042,94.1289062 123.297607,93.2426758 123.297607,91.824707 C123.297607,90.7128906 122.647705,90.0952148 121.041748,89.6923828 L120.230713,89.4775391 C119.177979,89.2036133 118.748291,88.8544922 118.748291,88.269043 C118.748291,87.5117188 119.446533,86.9907227 120.450928,86.9907227 C121.460693,86.9907227 122.13208,87.5009766 122.218018,88.3334961 L123.184814,88.3334961 C123.141846,87.0336914 122.024658,86.1206055 120.483154,86.1206055 C118.871826,86.1206055 117.743896,87.0229492 117.743896,88.3120117 C117.743896,89.3647461 118.377686,89.9931641 119.806396,90.3583984 L120.800049,90.6162109 C121.842041,90.8847656 122.298584,91.2875977 122.298584,91.9428711 C122.298584,92.7055664 121.535889,93.2587891 120.488525,93.2587891 C119.38208,93.2587891 118.587158,92.7055664 118.49585,91.8676758 L117.523682,91.8676758 Z M125.263428,90.8955078 L125.263428,86.2495117 L124.328857,86.2495117 L124.328857,94 L125.263428,94 L125.263428,91.8945312 L125.784424,91.4003906 L127.857666,94 L128.942627,94 L126.445068,90.8256836 L128.867432,88.4140625 L127.734131,88.4140625 L125.263428,90.8955078 Z M129.667725,94 L130.602295,94 L130.602295,88.4140625 L129.667725,88.4140625 L129.667725,94 Z M130.13501,87.4741211 C130.457275,87.4741211 130.720459,87.2109375 130.720459,86.894043 C130.720459,86.5717773 130.457275,86.3139648 130.13501,86.3139648 C129.818115,86.3139648 129.554932,86.5717773 129.554932,86.894043 C129.554932,87.2109375 129.818115,87.4741211 130.13501,87.4741211 Z M134.576904,88.3173828 C136.000244,88.3173828 136.967041,89.4560547 136.967041,91.2070312 C136.967041,92.9580078 136.005615,94.0966797 134.598389,94.0966797 C133.798096,94.0966797 133.153564,93.7045898 132.820557,93.0922852 L132.799072,93.0922852 L132.799072,95.8637695 L131.864502,95.8637695 L131.864502,88.4140625 L132.750732,88.4140625 L132.750732,89.359375 L132.772217,89.359375 C133.115967,88.730957 133.765869,88.3173828 134.576904,88.3173828 Z M134.394287,93.2749023 C135.387939,93.2749023 136.010986,92.4746094 136.010986,91.2070312 C136.010986,89.9448242 135.387939,89.1391602 134.394287,89.1391602 C133.438232,89.1391602 132.793701,89.9663086 132.793701,91.2070312 C132.793701,92.453125 133.438232,93.2749023 134.394287,93.2749023 Z M143.235107,94 L143.235107,87.1196289 L145.678955,87.1196289 L145.678955,86.2495117 L139.824463,86.2495117 L139.824463,87.1196289 L142.268311,87.1196289 L142.268311,94 L143.235107,94 Z M146.602783,94 L147.537354,94 L147.537354,90.7451172 C147.537354,89.7783203 148.112061,89.1445312 149.04126,89.1445312 C149.916748,89.1445312 150.362549,89.6762695 150.362549,90.5625 L150.362549,94 L151.297119,94 L151.297119,90.390625 C151.297119,89.1445312 150.555908,88.3173828 149.331299,88.3173828 C148.482666,88.3173828 147.870361,88.6826172 147.558838,89.3056641 L147.537354,89.3056641 L147.537354,86.2495117 L146.602783,86.2495117 L146.602783,94 Z M152.532471,94 L153.467041,94 L153.467041,88.4140625 L152.532471,88.4140625 L152.532471,94 Z M152.999756,87.4741211 C153.322021,87.4741211 153.585205,87.2109375 153.585205,86.894043 C153.585205,86.5717773 153.322021,86.3139648 152.999756,86.3139648 C152.682861,86.3139648 152.419678,86.5717773 152.419678,86.894043 C152.419678,87.2109375 152.682861,87.4741211 152.999756,87.4741211 Z M154.632568,89.9555664 C154.632568,90.7182617 155.115967,91.2231445 156.098877,91.4755859 L157.081787,91.7280273 C157.710205,91.8945312 157.941162,92.109375 157.941162,92.5068359 C157.941162,93.0117188 157.473877,93.3339844 156.716553,93.3339844 C155.959229,93.3339844 155.518799,93.0224609 155.416748,92.4423828 L154.482178,92.4423828 C154.578857,93.4306641 155.432861,94.0966797 156.657471,94.0966797 C157.962646,94.0966797 158.881104,93.4091797 158.881104,92.4370117 C158.881104,91.6152344 158.4729,91.2070312 157.344971,90.9223633 L156.480225,90.7128906 C155.846436,90.5517578 155.551025,90.2939453 155.551025,89.9072266 C155.551025,89.418457 156.002197,89.0800781 156.684326,89.0800781 C157.371826,89.0800781 157.806885,89.4130859 157.871338,89.9501953 L158.762939,89.9501953 C158.719971,89.0048828 157.871338,88.3173828 156.716553,88.3173828 C155.486572,88.3173828 154.632568,88.9995117 154.632568,89.9555664 Z M161.878174,91.8676758 C161.969482,93.2373047 163.108154,94.1289062 164.751709,94.1289062 C166.534912,94.1289062 167.6521,93.2426758 167.6521,91.824707 C167.6521,90.7128906 167.002197,90.0952148 165.39624,89.6923828 L164.585205,89.4775391 C163.532471,89.2036133 163.102783,88.8544922 163.102783,88.269043 C163.102783,87.5117188 163.801025,86.9907227 164.80542,86.9907227 C165.815186,86.9907227 166.486572,87.5009766 166.57251,88.3334961 L167.539307,88.3334961 C167.496338,87.0336914 166.37915,86.1206055 164.837646,86.1206055 C163.226318,86.1206055 162.098389,87.0229492 162.098389,88.3120117 C162.098389,89.3647461 162.732178,89.9931641 164.160889,90.3583984 L165.154541,90.6162109 C166.196533,90.8847656 166.653076,91.2875977 166.653076,91.9428711 C166.653076,92.7055664 165.890381,93.2587891 164.843018,93.2587891 C163.736572,93.2587891 162.94165,92.7055664 162.850342,91.8676758 L161.878174,91.8676758 Z M168.935791,87.065918 L168.935791,88.4140625 L168.103271,88.4140625 L168.103271,89.1821289 L168.935791,89.1821289 L168.935791,92.5498047 C168.935791,93.6240234 169.333252,94.0429688 170.359131,94.0429688 C170.579346,94.0429688 170.837158,94.0268555 170.949951,94 L170.949951,93.2158203 C170.885498,93.2265625 170.670654,93.2426758 170.563232,93.2426758 C170.085205,93.2426758 169.870361,93.0117188 169.870361,92.5014648 L169.870361,89.1821289 L170.955322,89.1821289 L170.955322,88.4140625 L169.870361,88.4140625 L169.870361,87.065918 L168.935791,87.065918 Z M174.027588,89.128418 C173.1521,89.128418 172.539795,89.7998047 172.480713,90.7290039 L175.515381,90.7290039 C175.493896,89.7944336 174.908447,89.128418 174.027588,89.128418 Z M175.493896,92.3994141 L176.412354,92.3994141 C176.251221,93.3769531 175.305908,94.0966797 174.08667,94.0966797 C172.486084,94.0966797 171.513916,92.9848633 171.513916,91.2285156 C171.513916,89.4936523 172.502197,88.3173828 174.043701,88.3173828 C175.552979,88.3173828 176.482178,89.4130859 176.482178,91.1049805 L176.482178,91.4594727 L172.475342,91.4594727 L172.475342,91.5131836 C172.475342,92.5820312 173.10376,93.2856445 174.108154,93.2856445 C174.817139,93.2856445 175.338135,92.9257812 175.493896,92.3994141 Z M180.134521,88.3173828 C181.557861,88.3173828 182.524658,89.4560547 182.524658,91.2070312 C182.524658,92.9580078 181.563232,94.0966797 180.156006,94.0966797 C179.355713,94.0966797 178.711182,93.7045898 178.378174,93.0922852 L178.356689,93.0922852 L178.356689,95.8637695 L177.422119,95.8637695 L177.422119,88.4140625 L178.30835,88.4140625 L178.30835,89.359375 L178.329834,89.359375 C178.673584,88.730957 179.323486,88.3173828 180.134521,88.3173828 Z M179.951904,93.2749023 C180.945557,93.2749023 181.568604,92.4746094 181.568604,91.2070312 C181.568604,89.9448242 180.945557,89.1391602 179.951904,89.1391602 C178.99585,89.1391602 178.351318,89.9663086 178.351318,91.2070312 C178.351318,92.453125 178.99585,93.2749023 179.951904,93.2749023 Z"/>
    <rect width="1" height="5" x="190" y="104" fill="#30E60B" transform="rotate(-180 190.5 106.5)"/>
    <rect width="1" height="5" x="183" y="104" fill="#30E60B" transform="rotate(-180 183.5 106.5)"/>
    <rect width="8" height="1" x="183" y="106" fill="#30E60B" transform="rotate(-180 187 106.5)"/>
    <polygon fill="#30E60B" points="183 113 187 109 191 113 187 117" transform="rotate(-180 187 113)"/>
    <rect width="29" height="22" x="173" y="113" fill="#30E60B" rx="2" transform="rotate(-180 187.5 124)"/>
    <path fill="#003706" d="M179.358,121.7 C179.358,121.932001 179.398,122.133999 179.478,122.306 C179.558,122.478001 179.665999,122.619999 179.802,122.732 C179.938001,122.844001 180.097999,122.928 180.282,122.984 C180.466001,123.04 180.661999,123.068 180.87,123.068 C181.278002,123.068 181.613999,122.948001 181.878,122.708 C182.142001,122.467999 182.274,122.132002 182.274,121.7 C182.274,121.267998 182.140001,120.942001 181.872,120.722 C181.603999,120.501999 181.262002,120.392 180.846,120.392 C180.645999,120.392 180.454001,120.42 180.27,120.476 C180.085999,120.532 179.928001,120.615999 179.796,120.728 C179.663999,120.840001 179.558,120.975999 179.478,121.136 C179.398,121.296001 179.358,121.483999 179.358,121.7 Z M178.278,121.664 C178.278,121.311998 178.345999,121.002001 178.482,120.734 C178.618001,120.465999 178.801999,120.240001 179.034,120.056 C179.266001,119.871999 179.531998,119.732 179.832,119.636 C180.132002,119.54 180.445998,119.492 180.774,119.492 C181.238002,119.492 181.633998,119.553999 181.962,119.678 C182.290002,119.802001 182.555999,119.965999 182.76,120.17 C182.964001,120.374001 183.114,120.605999 183.21,120.866 C183.306,121.126001 183.354,121.391999 183.354,121.664 C183.354,122.048002 183.248001,122.397998 183.036,122.714 C182.823999,123.030002 182.538002,123.267999 182.178,123.428 C182.690003,123.588001 183.069999,123.849998 183.318,124.214 C183.566001,124.578002 183.69,125.023997 183.69,125.552 C183.69,125.968002 183.616001,126.335998 183.468,126.656 C183.319999,126.976002 183.120001,127.245999 182.868,127.466 C182.615999,127.686001 182.318002,127.851999 181.974,127.964 C181.629998,128.076001 181.262002,128.132 180.87,128.132 C180.461998,128.132 180.082002,128.080001 179.73,127.976 C179.377998,127.871999 179.072001,127.712001 178.812,127.496 C178.551999,127.279999 178.348001,127.010002 178.2,126.686 C178.051999,126.361998 177.978,125.984002 177.978,125.552 C177.978,125.047997 178.105999,124.610002 178.362,124.238 C178.618001,123.865998 178.985998,123.596001 179.466,123.428 C179.105998,123.283999 178.818001,123.050002 178.602,122.726 C178.385999,122.401998 178.278,122.048002 178.278,121.664 Z M179.058,125.6 C179.058,126.112003 179.227998,126.513999 179.568,126.806 C179.908002,127.098001 180.341997,127.244 180.87,127.244 C181.126001,127.244 181.359999,127.202 181.572,127.118 C181.784001,127.034 181.967999,126.918001 182.124,126.77 C182.280001,126.621999 182.4,126.448001 182.484,126.248 C182.568,126.047999 182.61,125.828001 182.61,125.588 C182.61,125.355999 182.564,125.142001 182.472,124.946 C182.38,124.749999 182.254001,124.580001 182.094,124.436 C181.933999,124.291999 181.748001,124.178 181.536,124.094 C181.323999,124.01 181.098001,123.968 180.858,123.968 C180.609999,123.968 180.376001,124.006 180.156,124.082 C179.935999,124.158 179.744001,124.267999 179.58,124.412 C179.415999,124.556001 179.288,124.727999 179.196,124.928 C179.104,125.128001 179.058,125.351999 179.058,125.6 Z M184.974,121.796 L185.994,121.796 L185.994,122.636 L186.018,122.636 C186.186001,122.291998 186.449998,122.042001 186.81,121.886 C187.170002,121.729999 187.565998,121.652 187.998,121.652 C188.478002,121.652 188.895998,121.739999 189.252,121.916 C189.608002,122.092001 189.903999,122.329999 190.14,122.63 C190.376001,122.930002 190.553999,123.275998 190.674,123.668 C190.794001,124.060002 190.854,124.475998 190.854,124.916 C190.854,125.356002 190.796001,125.771998 190.68,126.164 C190.563999,126.556002 190.388001,126.897999 190.152,127.19 C189.915999,127.482001 189.620002,127.711999 189.264,127.88 C188.907998,128.048001 188.494002,128.132 188.022,128.132 C187.869999,128.132 187.700001,128.116 187.512,128.084 C187.323999,128.052 187.138001,128 186.954,127.928 C186.769999,127.856 186.596001,127.758001 186.432,127.634 C186.267999,127.509999 186.130001,127.356001 186.018,127.172 L185.994,127.172 L185.994,130.364 L184.974,130.364 L184.974,121.796 Z M189.774,124.844 C189.774,124.555999 189.736,124.274001 189.66,123.998 C189.584,123.721999 189.468001,123.476001 189.312,123.26 C189.155999,123.043999 188.956001,122.872001 188.712,122.744 C188.467999,122.615999 188.182002,122.552 187.854,122.552 C187.509998,122.552 187.218001,122.619999 186.978,122.756 C186.737999,122.892001 186.542001,123.069999 186.39,123.29 C186.237999,123.510001 186.128,123.759999 186.06,124.04 C185.992,124.320001 185.958,124.603999 185.958,124.892 C185.958,125.196002 185.994,125.489999 186.066,125.774 C186.138,126.058001 186.251999,126.307999 186.408,126.524 C186.564001,126.740001 186.765999,126.913999 187.014,127.046 C187.262001,127.178001 187.561998,127.244 187.914,127.244 C188.266002,127.244 188.559999,127.176001 188.796,127.04 C189.032001,126.903999 189.221999,126.724001 189.366,126.5 C189.510001,126.275999 189.614,126.020001 189.678,125.732 C189.742,125.443999 189.774,125.148002 189.774,124.844 Z M193.722,124.736 L191.394,128 L192.63,128 L194.358,125.432 L196.086,128 L197.394,128 L194.994,124.652 L197.13,121.796 L195.906,121.796 L194.358,123.968 L192.87,121.796 L191.562,121.796 L193.722,124.736 Z"/>
    <rect width="1" height="5" x="116" y="104" fill="#30E60B" transform="rotate(-180 116.5 106.5)"/>
    <rect width="1" height="5" x="109" y="104" fill="#30E60B" transform="rotate(-180 109.5 106.5)"/>
    <rect width="8" height="1" x="109" y="106" fill="#30E60B" transform="rotate(-180 113 106.5)"/>
    <polygon fill="#30E60B" points="109 113 113 109 117 113 113 117" transform="rotate(-180 113 113)"/>
    <rect width="29" height="22" x="99" y="113" fill="#30E60B" rx="2" transform="rotate(-180 113.5 124)"/>
    <path fill="#003706" d="M105.358,121.7 C105.358,121.932001 105.398,122.133999 105.478,122.306 C105.558,122.478001 105.665999,122.619999 105.802,122.732 C105.938001,122.844001 106.097999,122.928 106.282,122.984 C106.466001,123.04 106.661999,123.068 106.87,123.068 C107.278002,123.068 107.613999,122.948001 107.878,122.708 C108.142001,122.467999 108.274,122.132002 108.274,121.7 C108.274,121.267998 108.140001,120.942001 107.872,120.722 C107.603999,120.501999 107.262002,120.392 106.846,120.392 C106.645999,120.392 106.454001,120.42 106.27,120.476 C106.085999,120.532 105.928001,120.615999 105.796,120.728 C105.663999,120.840001 105.558,120.975999 105.478,121.136 C105.398,121.296001 105.358,121.483999 105.358,121.7 Z M104.278,121.664 C104.278,121.311998 104.345999,121.002001 104.482,120.734 C104.618001,120.465999 104.801999,120.240001 105.034,120.056 C105.266001,119.871999 105.531999,119.732 105.832,119.636 C106.132002,119.54 106.445998,119.492 106.774,119.492 C107.238002,119.492 107.633998,119.553999 107.962,119.678 C108.290002,119.802001 108.555999,119.965999 108.76,120.17 C108.964001,120.374001 109.114,120.605999 109.21,120.866 C109.306,121.126001 109.354,121.391999 109.354,121.664 C109.354,122.048002 109.248001,122.397998 109.036,122.714 C108.823999,123.030002 108.538002,123.267999 108.178,123.428 C108.690003,123.588001 109.069999,123.849998 109.318,124.214 C109.566001,124.578002 109.69,125.023997 109.69,125.552 C109.69,125.968002 109.616001,126.335998 109.468,126.656 C109.319999,126.976002 109.120001,127.245999 108.868,127.466 C108.615999,127.686001 108.318002,127.851999 107.974,127.964 C107.629998,128.076001 107.262002,128.132 106.87,128.132 C106.461998,128.132 106.082002,128.080001 105.73,127.976 C105.377998,127.871999 105.072001,127.712001 104.812,127.496 C104.551999,127.279999 104.348001,127.010002 104.2,126.686 C104.051999,126.361998 103.978,125.984002 103.978,125.552 C103.978,125.047997 104.105999,124.610002 104.362,124.238 C104.618001,123.865998 104.985998,123.596001 105.466,123.428 C105.105998,123.283999 104.818001,123.050002 104.602,122.726 C104.385999,122.401998 104.278,122.048002 104.278,121.664 Z M105.058,125.6 C105.058,126.112003 105.227998,126.513999 105.568,126.806 C105.908002,127.098001 106.341997,127.244 106.87,127.244 C107.126001,127.244 107.359999,127.202 107.572,127.118 C107.784001,127.034 107.967999,126.918001 108.124,126.77 C108.280001,126.621999 108.4,126.448001 108.484,126.248 C108.568,126.047999 108.61,125.828001 108.61,125.588 C108.61,125.355999 108.564,125.142001 108.472,124.946 C108.38,124.749999 108.254001,124.580001 108.094,124.436 C107.933999,124.291999 107.748001,124.178 107.536,124.094 C107.323999,124.01 107.098001,123.968 106.858,123.968 C106.609999,123.968 106.376001,124.006 106.156,124.082 C105.935999,124.158 105.744001,124.267999 105.58,124.412 C105.415999,124.556001 105.288,124.727999 105.196,124.928 C105.104,125.128001 105.058,125.351999 105.058,125.6 Z M110.974,121.796 L111.994,121.796 L111.994,122.636 L112.018,122.636 C112.186001,122.291998 112.449998,122.042001 112.81,121.886 C113.170002,121.729999 113.565998,121.652 113.998,121.652 C114.478002,121.652 114.895998,121.739999 115.252,121.916 C115.608002,122.092001 115.903999,122.329999 116.14,122.63 C116.376001,122.930002 116.553999,123.275998 116.674,123.668 C116.794001,124.060002 116.854,124.475998 116.854,124.916 C116.854,125.356002 116.796001,125.771998 116.68,126.164 C116.563999,126.556002 116.388001,126.897999 116.152,127.19 C115.915999,127.482001 115.620002,127.711999 115.264,127.88 C114.907998,128.048001 114.494002,128.132 114.022,128.132 C113.869999,128.132 113.700001,128.116 113.512,128.084 C113.323999,128.052 113.138001,128 112.954,127.928 C112.769999,127.856 112.596001,127.758001 112.432,127.634 C112.267999,127.509999 112.130001,127.356001 112.018,127.172 L111.994,127.172 L111.994,130.364 L110.974,130.364 L110.974,121.796 Z M115.774,124.844 C115.774,124.555999 115.736,124.274001 115.66,123.998 C115.584,123.721999 115.468001,123.476001 115.312,123.26 C115.155999,123.043999 114.956001,122.872001 114.712,122.744 C114.467999,122.615999 114.182002,122.552 113.854,122.552 C113.509998,122.552 113.218001,122.619999 112.978,122.756 C112.737999,122.892001 112.542001,123.069999 112.39,123.29 C112.237999,123.510001 112.128,123.759999 112.06,124.04 C111.992,124.320001 111.958,124.603999 111.958,124.892 C111.958,125.196002 111.994,125.489999 112.066,125.774 C112.138,126.058001 112.251999,126.307999 112.408,126.524 C112.564001,126.740001 112.765999,126.913999 113.014,127.046 C113.262001,127.178001 113.561998,127.244 113.914,127.244 C114.266002,127.244 114.559999,127.176001 114.796,127.04 C115.032001,126.903999 115.221999,126.724001 115.366,126.5 C115.510001,126.275999 115.614,126.020001 115.678,125.732 C115.742,125.443999 115.774,125.148002 115.774,124.844 Z M119.722,124.736 L117.394,128 L118.63,128 L120.358,125.432 L122.086,128 L123.394,128 L120.994,124.652 L123.13,121.796 L121.906,121.796 L120.358,123.968 L118.87,121.796 L117.562,121.796 L119.722,124.736 Z"/>
    <rect width="5" height="1" x="193" y="78" fill="#FF1AD9"/>
    <rect width="5" height="1" x="193" y="101" fill="#FF1AD9"/>
    <rect width="1" height="24" x="195" y="78" fill="#FF1AD9"/>
    <polygon fill="#FF1AD9" points="198 90 202 86 206 90 202 94"/>
    <rect width="35" height="22" x="202" y="79" fill="#FF1AD9" rx="2"/>
    <path fill="#FFF" d="M206.69,88.504 L207.71,88.504 C207.702,88.2479987 207.728,87.9940013 207.788,87.742 C207.848,87.4899987 207.945999,87.264001 208.082,87.064 C208.218001,86.863999 208.391999,86.7020006 208.604,86.578 C208.816001,86.4539994 209.069999,86.392 209.366,86.392 C209.590001,86.392 209.801999,86.4279996 210.002,86.5 C210.202001,86.5720004 210.375999,86.6759993 210.524,86.812 C210.672001,86.9480007 210.79,87.1099991 210.878,87.298 C210.966,87.4860009 211.01,87.6959988 211.01,87.928 C211.01,88.2240015 210.964,88.4839989 210.872,88.708 C210.78,88.9320011 210.644001,89.139999 210.464,89.332 C210.283999,89.524001 210.058001,89.7139991 209.786,89.902 C209.513999,90.0900009 209.198002,90.2959989 208.838,90.52 C208.541999,90.6960009 208.258001,90.883999 207.986,91.084 C207.713999,91.284001 207.470001,91.5159987 207.254,91.78 C207.037999,92.0440013 206.860001,92.3539982 206.72,92.71 C206.579999,93.0660018 206.49,93.4959975 206.45,94 L212.006,94 L212.006,93.1 L207.638,93.1 C207.686,92.8359987 207.787999,92.602001 207.944,92.398 C208.100001,92.193999 208.287999,92.0040009 208.508,91.828 C208.728001,91.6519991 208.969999,91.4860008 209.234,91.33 C209.498001,91.1739992 209.761999,91.0160008 210.026,90.856 C210.290001,90.6879992 210.545999,90.5120009 210.794,90.328 C211.042001,90.1439991 211.261999,89.9380011 211.454,89.71 C211.646001,89.4819989 211.799999,89.2240014 211.916,88.936 C212.032001,88.6479986 212.09,88.3160019 212.09,87.94 C212.09,87.539998 212.020001,87.1880015 211.88,86.884 C211.739999,86.5799985 211.550001,86.326001 211.31,86.122 C211.069999,85.917999 210.788002,85.7620005 210.464,85.654 C210.139998,85.5459995 209.794002,85.492 209.426,85.492 C208.977998,85.492 208.578002,85.5679992 208.226,85.72 C207.873998,85.8720008 207.580001,86.0819987 207.344,86.35 C207.107999,86.6180013 206.934001,86.9359982 206.822,87.304 C206.709999,87.6720018 206.666,88.0719978 206.69,88.504 Z M216.902,91.108 L216.902,86.944 L216.878,86.944 L214.046,91.108 L216.902,91.108 Z M217.862,91.108 L219.014,91.108 L219.014,92.008 L217.862,92.008 L217.862,94 L216.902,94 L216.902,92.008 L213.17,92.008 L213.17,91.024 L217.046,85.492 L217.862,85.492 L217.862,91.108 Z M220.31,87.796 L221.33,87.796 L221.33,88.636 L221.354,88.636 C221.522001,88.2919983 221.785998,88.0420008 222.146,87.886 C222.506002,87.7299992 222.901998,87.652 223.334,87.652 C223.814002,87.652 224.231998,87.7399991 224.588,87.916 C224.944002,88.0920009 225.239999,88.3299985 225.476,88.63 C225.712001,88.9300015 225.889999,89.275998 226.01,89.668 C226.130001,90.060002 226.19,90.4759978 226.19,90.916 C226.19,91.3560022 226.132001,91.771998 226.016,92.164 C225.899999,92.556002 225.724001,92.8979985 225.488,93.19 C225.251999,93.4820015 224.956002,93.7119992 224.6,93.88 C224.243998,94.0480008 223.830002,94.132 223.358,94.132 C223.205999,94.132 223.036001,94.1160002 222.848,94.084 C222.659999,94.0519998 222.474001,94.0000004 222.29,93.928 C222.105999,93.8559996 221.932001,93.7580006 221.768,93.634 C221.603999,93.5099994 221.466001,93.3560009 221.354,93.172 L221.33,93.172 L221.33,96.364 L220.31,96.364 L220.31,87.796 Z M225.11,90.844 C225.11,90.5559986 225.072,90.2740014 224.996,89.998 C224.92,89.7219986 224.804001,89.4760011 224.648,89.26 C224.491999,89.0439989 224.292001,88.8720006 224.048,88.744 C223.803999,88.6159994 223.518002,88.552 223.19,88.552 C222.845998,88.552 222.554001,88.6199993 222.314,88.756 C222.073999,88.8920007 221.878001,89.0699989 221.726,89.29 C221.573999,89.5100011 221.464,89.7599986 221.396,90.04 C221.328,90.3200014 221.294,90.6039986 221.294,90.892 C221.294,91.1960015 221.33,91.4899986 221.402,91.774 C221.474,92.0580014 221.587999,92.3079989 221.744,92.524 C221.900001,92.7400011 222.101999,92.9139993 222.35,93.046 C222.598001,93.1780007 222.897998,93.244 223.25,93.244 C223.602002,93.244 223.895999,93.1760007 224.132,93.04 C224.368001,92.9039993 224.557999,92.7240011 224.702,92.5 C224.846001,92.2759989 224.95,92.0200014 225.014,91.732 C225.078,91.4439986 225.11,91.1480015 225.11,90.844 Z M229.058,90.736 L226.73,94 L227.966,94 L229.694,91.432 L231.422,94 L232.73,94 L230.33,90.652 L232.466,87.796 L231.242,87.796 L229.694,89.968 L228.206,87.796 L226.898,87.796 L229.058,90.736 Z"/>
  </g>
</svg>
