<svg xmlns="http://www.w3.org/2000/svg" width="300" height="180" style="background:#f9f9fa" viewBox="0 0 300 180">
  <path fill="#0C0C0D" fill-opacity=".8" d="M14,1.00023652 C13.4477153,1.00023652 13,1.44795177 13,2.00023652 L13,3.14623652 C11.2451486,1.31112962 8.62901259,0.579424873 6.17674822,1.23784734 C3.72448385,1.8962698 1.82667689,3.83994888 1.227,6.30723652 C1.13105647,6.65710583 1.23212494,7.03149649 1.49110116,7.28555359 C1.75007738,7.53961069 2.12633718,7.63348169 2.47430246,7.53084711 C2.82226774,7.42821253 3.0873551,7.14517209 3.167,6.79123652 C3.7150153,4.56683643 5.70908959,3.00268671 8,3.00023652 C9.5652211,2.99778553 11.0381778,3.74039036 11.967,5.00023652 L10,5.00023652 C9.44771525,5.00023652 9,5.44795177 9,6.00023652 C9,6.55252127 9.44771525,7.00023652 10,7.00023652 L14,7.00023652 C14.5522847,7.00023652 15,6.55252127 15,6.00023652 L15,2.00023652 C15,1.44795177 14.5522847,1.00023652 14,1.00023652 Z M14.046,8.48123652 C13.7886025,8.41682778 13.5161594,8.45735517 13.2886541,8.59389582 C13.0611489,8.73043646 12.8972346,8.95179548 12.833,9.20923652 C12.2849847,11.4336366 10.2909104,12.9977863 8,13.0002365 C6.4347789,13.0026875 4.96182223,12.2600827 4.033,11.0002365 L6,11.0002365 C6.55228475,11.0002365 7,10.5525213 7,10.0002365 C7,9.44795177 6.55228475,9.00023652 6,9.00023652 L2,9.00023652 C1.44771525,9.00023652 1,9.44795177 1,10.0002365 L1,14.0002365 C1,14.5525213 1.44771525,15.0002365 2,15.0002365 C2.55228475,15.0002365 3,14.5525213 3,14.0002365 L3,12.8542365 C4.75485137,14.6893434 7.37098741,15.4210482 9.82325178,14.7626257 C12.2755162,14.1042032 14.1733231,12.1605242 14.773,9.69323652 C14.9065558,9.15785201 14.5812153,8.6154687 14.046,8.48123652 Z" transform="translate(142 82)"/>
</svg>
