<svg xmlns="http://www.w3.org/2000/svg" width="300" height="180" style="background:#f9f9fa" viewBox="0 0 300 180">
  <g fill="none" fill-rule="evenodd">
    <rect width="142" height="48" x="79" y="66" fill="#0A84FF" rx="2"/>
    <path fill="#FFF" d="M95.2148438,84.4311523 L93.5742188,84.4311523 L93.5742188,91.2866211 C93.5742188,93.5644531 95.2001953,95.1757812 97.8515625,95.1757812 C100.50293,95.1757812 102.128906,93.5644531 102.128906,91.2866211 L102.128906,84.4311523 L100.495605,84.4311523 L100.495605,91.1474609 C100.495605,92.65625 99.5361328,93.7182617 97.8515625,93.7182617 C96.1669922,93.7182617 95.2148438,92.65625 95.2148438,91.1474609 L95.2148438,84.4311523 Z M107.900391,87.1704102 C109.855957,87.1704102 111.14502,88.7084961 111.14502,91.1474609 C111.14502,93.5864258 109.863281,95.1318359 107.929688,95.1318359 C106.82373,95.1318359 105.944824,94.5898438 105.505371,93.7329102 L105.46875,93.7329102 L105.46875,97.5488281 L103.886719,97.5488281 L103.886719,87.2949219 L105.41748,87.2949219 L105.41748,88.6206055 L105.446777,88.6206055 C105.900879,87.734375 106.787109,87.1704102 107.900391,87.1704102 Z M107.48291,93.7915039 C108.735352,93.7915039 109.519043,92.7661133 109.519043,91.1474609 C109.519043,89.5361328 108.735352,88.503418 107.48291,88.503418 C106.274414,88.503418 105.461426,89.5581055 105.461426,91.1474609 C105.461426,92.7514648 106.26709,93.7915039 107.48291,93.7915039 Z M115.253906,95.1318359 C113.305664,95.1318359 112.016602,93.5791016 112.016602,91.1474609 C112.016602,88.7158203 113.305664,87.1704102 115.239258,87.1704102 C116.345215,87.1704102 117.224121,87.7270508 117.65625,88.5766602 L117.685547,88.5766602 L117.685547,84.4311523 L119.274902,84.4311523 L119.274902,95 L117.736816,95 L117.736816,93.6889648 L117.70752,93.6889648 C117.253418,94.5678711 116.374512,95.1318359 115.253906,95.1318359 Z M115.671387,88.503418 C114.418945,88.503418 113.635254,89.5288086 113.635254,91.1474609 C113.635254,92.7734375 114.418945,93.7915039 115.671387,93.7915039 C116.887207,93.7915039 117.700195,92.7587891 117.700195,91.1474609 C117.700195,89.5507812 116.887207,88.503418 115.671387,88.503418 Z M123.588867,93.8793945 C124.694824,93.8793945 125.559082,93.1176758 125.559082,92.1142578 L125.559082,91.5063477 L123.662109,91.6235352 C122.717285,91.6894531 122.182617,92.1069336 122.182617,92.7661133 C122.182617,93.4399414 122.739258,93.8793945 123.588867,93.8793945 Z M123.149414,95.1318359 C121.640625,95.1318359 120.585938,94.1943359 120.585938,92.8100586 C120.585938,91.4624023 121.618652,90.6347656 123.449707,90.5322266 L125.559082,90.4077148 L125.559082,89.8144531 C125.559082,88.9575195 124.980469,88.4448242 124.013672,88.4448242 C123.098145,88.4448242 122.526855,88.8842773 122.387695,89.5727539 L120.893555,89.5727539 C120.981445,88.1811523 122.167969,87.1557617 124.072266,87.1557617 C125.939941,87.1557617 127.133789,88.1445312 127.133789,89.6899414 L127.133789,95 L125.617676,95 L125.617676,93.7329102 L125.581055,93.7329102 C125.134277,94.5898438 124.160156,95.1318359 123.149414,95.1318359 Z M129.125977,85.4711914 L129.125977,87.2949219 L128.005371,87.2949219 L128.005371,88.5473633 L129.125977,88.5473633 L129.125977,92.9711914 C129.125977,94.4580078 129.733887,95.0512695 131.293945,95.0512695 C131.645508,95.0512695 131.99707,95.0219727 132.172852,94.9780273 L132.172852,93.7255859 C132.070312,93.7475586 131.813965,93.762207 131.652832,93.762207 C131.008301,93.762207 130.715332,93.4619141 130.715332,92.7954102 L130.715332,88.5473633 L132.180176,88.5473633 L132.180176,87.2949219 L130.715332,87.2949219 L130.715332,85.4711914 L129.125977,85.4711914 Z M136.516113,88.4301758 C135.410156,88.4301758 134.633789,89.2724609 134.553223,90.4370117 L138.405762,90.4370117 C138.369141,89.2578125 137.62207,88.4301758 136.516113,88.4301758 Z M138.398438,92.7368164 L139.899902,92.7368164 C139.680176,94.1430664 138.347168,95.1464844 136.582031,95.1464844 C134.318848,95.1464844 132.949219,93.6157227 132.949219,91.184082 C132.949219,88.7670898 134.34082,87.1557617 136.516113,87.1557617 C138.654785,87.1557617 139.987793,88.6645508 139.987793,91.0009766 L139.987793,91.5429688 L134.545898,91.5429688 L134.545898,91.6381836 C134.545898,92.9785156 135.351562,93.8647461 136.618652,93.8647461 C137.519531,93.8647461 138.186035,93.4106445 138.398438,92.7368164 Z M144.250488,95 L145.83252,95 L145.83252,90.2392578 C145.83252,89.2504883 146.499023,88.5180664 147.436523,88.5180664 C148.330078,88.5180664 148.894043,89.0820312 148.894043,89.9682617 L148.894043,95 L150.446777,95 L150.446777,90.1879883 C150.446777,89.2138672 151.098633,88.5180664 152.036133,88.5180664 C152.973633,88.5180664 153.508301,89.0893555 153.508301,90.0854492 L153.508301,95 L155.097656,95 L155.097656,89.7045898 C155.097656,88.1738281 154.101562,87.1630859 152.578125,87.1630859 C151.479492,87.1630859 150.571289,87.734375 150.175781,88.671875 L150.13916,88.671875 C149.831543,87.7124023 149.055176,87.1630859 147.98584,87.1630859 C146.945801,87.1630859 146.140137,87.734375 145.795898,88.5913086 L145.759277,88.5913086 L145.759277,87.2949219 L144.250488,87.2949219 L144.250488,95 Z M157.382812,97.8710938 C158.986816,97.8710938 159.741211,97.2705078 160.400391,95.402832 L163.293457,87.2949219 L161.623535,87.2949219 L159.667969,93.5644531 L159.645996,93.5644531 L157.69043,87.2949219 L155.976562,87.2949219 L158.759766,95.0073242 C158.759766,95.0146484 158.620605,95.46875 158.620605,95.4833984 C158.378906,96.2744141 157.990723,96.5820312 157.250977,96.5820312 C157.119141,96.5820312 156.855469,96.5820312 156.738281,96.5527344 L156.738281,97.8344727 C156.855469,97.8564453 157.258301,97.8710938 157.382812,97.8710938 Z M167.446289,84.4311523 L171.408691,84.4311523 C173.459473,84.4311523 174.887695,85.8447266 174.887695,87.902832 C174.887695,89.9682617 173.430176,91.3891602 171.357422,91.3891602 L169.086914,91.3891602 L169.086914,95 L167.446289,95 L167.446289,84.4311523 Z M169.086914,85.8154297 L169.086914,90.012207 L170.969238,90.012207 C172.397461,90.012207 173.210449,89.2431641 173.210449,87.9101562 C173.210449,86.5771484 172.397461,85.8154297 170.976562,85.8154297 L169.086914,85.8154297 Z M176.132812,95 L177.714844,95 L177.714844,90.3857422 C177.714844,89.2944336 178.344727,88.6132812 179.362793,88.6132812 C179.67041,88.6132812 179.94873,88.6499023 180.073242,88.7011719 L180.073242,87.2290039 C179.956055,87.2070312 179.758301,87.1704102 179.53125,87.1704102 C178.623047,87.1704102 177.93457,87.7050781 177.678223,88.605957 L177.641602,88.605957 L177.641602,87.2949219 L176.132812,87.2949219 L176.132812,95 Z M184.035645,95.1464844 C181.831055,95.1464844 180.380859,93.6303711 180.380859,91.1474609 C180.380859,88.671875 181.838379,87.1557617 184.035645,87.1557617 C186.23291,87.1557617 187.69043,88.671875 187.69043,91.1474609 C187.69043,93.6303711 186.240234,95.1464844 184.035645,95.1464844 Z M184.035645,93.8427734 C185.280762,93.8427734 186.079102,92.8613281 186.079102,91.1474609 C186.079102,89.440918 185.273438,88.4594727 184.035645,88.4594727 C182.797852,88.4594727 181.992188,89.440918 181.992188,91.1474609 C181.992188,92.8613281 182.797852,93.8427734 184.035645,93.8427734 Z M189.375,95 L190.964355,95 L190.964355,88.5473633 L192.502441,88.5473633 L192.502441,87.3095703 L190.942383,87.3095703 L190.942383,86.5844727 C190.942383,85.9033203 191.264648,85.559082 191.953125,85.559082 C192.165527,85.559082 192.37793,85.5737305 192.531738,85.6030273 L192.531738,84.4311523 C192.32666,84.3945312 191.967773,84.3579102 191.645508,84.3579102 C190.078125,84.3579102 189.375,85.0610352 189.375,86.5551758 L189.375,87.3095703 L188.312988,87.3095703 L188.312988,88.5473633 L189.375,88.5473633 L189.375,95 Z M193.798828,95 L195.380859,95 L195.380859,87.2949219 L193.798828,87.2949219 L193.798828,95 Z M194.589844,86.1669922 C195.102539,86.1669922 195.512695,85.7641602 195.512695,85.2661133 C195.512695,84.7607422 195.102539,84.3579102 194.589844,84.3579102 C194.084473,84.3579102 193.674316,84.7607422 193.674316,85.2661133 C193.674316,85.7641602 194.084473,86.1669922 194.589844,86.1669922 Z M197.058105,95 L198.640137,95 L198.640137,84.4311523 L197.058105,84.4311523 L197.058105,95 Z M203.48877,88.4301758 C202.382812,88.4301758 201.606445,89.2724609 201.525879,90.4370117 L205.378418,90.4370117 C205.341797,89.2578125 204.594727,88.4301758 203.48877,88.4301758 Z M205.371094,92.7368164 L206.872559,92.7368164 C206.652832,94.1430664 205.319824,95.1464844 203.554688,95.1464844 C201.291504,95.1464844 199.921875,93.6157227 199.921875,91.184082 C199.921875,88.7670898 201.313477,87.1557617 203.48877,87.1557617 C205.627441,87.1557617 206.960449,88.6645508 206.960449,91.0009766 L206.960449,91.5429688 L201.518555,91.5429688 L201.518555,91.6381836 C201.518555,92.9785156 202.324219,93.8647461 203.591309,93.8647461 C204.492188,93.8647461 205.158691,93.4106445 205.371094,92.7368164 Z"/>
  </g>
</svg>
