<svg xmlns="http://www.w3.org/2000/svg" width="300" height="360" style="background:#f9f9fa" viewBox="0 0 300 360">
  <g fill="#0C0C0D" fill-rule="evenodd">
    <rect width="132" height="32" x="84" y="101" fill-opacity=".1" rx="2"/>
    <path d="M132,112.050781 L135.078613,112.050781 C137.79541,112.050781 139.401367,113.745605 139.401367,116.627441 C139.401367,119.515625 137.801758,121.210449 135.078613,121.210449 L132,121.210449 L132,112.050781 Z M133.142578,113.079102 L133.142578,120.182129 L135.002441,120.182129 C137.078125,120.182129 138.233398,118.912598 138.233398,116.640137 C138.233398,114.348633 137.084473,113.079102 135.002441,113.079102 L133.142578,113.079102 Z M143.29248,115.453125 C142.257812,115.453125 141.53418,116.246582 141.464355,117.344727 L145.050781,117.344727 C145.025391,116.240234 144.333496,115.453125 143.29248,115.453125 Z M145.025391,119.318848 L146.11084,119.318848 C145.92041,120.474121 144.803223,121.324707 143.362305,121.324707 C141.470703,121.324707 140.321777,120.010742 140.321777,117.935059 C140.321777,115.884766 141.489746,114.494629 143.311523,114.494629 C145.095215,114.494629 146.193359,115.789551 146.193359,117.789062 L146.193359,118.208008 L141.458008,118.208008 L141.458008,118.271484 C141.458008,119.534668 142.200684,120.366211 143.387695,120.366211 C144.225586,120.366211 144.841309,119.940918 145.025391,119.318848 Z M147.659668,121.210449 L148.76416,121.210449 L148.76416,115.516602 L150.109863,115.516602 L150.109863,114.608887 L148.757812,114.608887 L148.757812,113.878906 C148.757812,113.225098 149.043457,112.907715 149.640137,112.907715 C149.824219,112.907715 150.008301,112.926758 150.141602,112.945801 L150.141602,112.050781 C149.98291,112.025391 149.716309,112 149.46875,112 C148.25,112 147.659668,112.603027 147.659668,113.872559 L147.659668,114.608887 L146.739258,114.608887 L146.739258,115.516602 L147.659668,115.516602 L147.659668,121.210449 Z M153.048828,120.385254 C154.089844,120.385254 154.889648,119.655273 154.889648,118.703125 L154.889648,118.163574 L153.125,118.271484 C152.236328,118.328613 151.728516,118.722168 151.728516,119.344238 C151.728516,119.972656 152.255371,120.385254 153.048828,120.385254 Z M152.80127,121.324707 C151.487305,121.324707 150.60498,120.53125 150.60498,119.344238 C150.60498,118.214355 151.474609,117.503418 152.998047,117.414551 L154.889648,117.306641 L154.889648,116.754395 C154.889648,115.948242 154.356445,115.46582 153.442383,115.46582 C152.591797,115.46582 152.058594,115.865723 151.918945,116.513184 L150.852539,116.513184 C150.928711,115.370605 151.90625,114.494629 153.467773,114.494629 C155.016602,114.494629 155.994141,115.33252 155.994141,116.646484 L155.994141,121.210449 L154.946777,121.210449 L154.946777,120.074219 L154.921387,120.074219 C154.527832,120.82959 153.689941,121.324707 152.80127,121.324707 Z M162.817871,114.608887 L161.713379,114.608887 L161.713379,118.487305 C161.713379,119.61084 161.065918,120.347168 159.993164,120.347168 C158.971191,120.347168 158.469727,119.769531 158.469727,118.696777 L158.469727,114.608887 L157.365234,114.608887 L157.365234,118.893555 C157.365234,120.391602 158.209473,121.324707 159.650391,121.324707 C160.666016,121.324707 161.351562,120.899414 161.745117,120.137695 L161.770508,120.137695 L161.770508,121.210449 L162.817871,121.210449 L162.817871,114.608887 Z M164.303223,121.210449 L165.407715,121.210449 L165.407715,112.050781 L164.303223,112.050781 L164.303223,121.210449 Z M167.254883,113.015625 L167.254883,114.608887 L166.270996,114.608887 L166.270996,115.516602 L167.254883,115.516602 L167.254883,119.496582 C167.254883,120.766113 167.724609,121.26123 168.937012,121.26123 C169.197266,121.26123 169.501953,121.242188 169.635254,121.210449 L169.635254,120.283691 C169.559082,120.296387 169.305176,120.31543 169.178223,120.31543 C168.613281,120.31543 168.359375,120.04248 168.359375,119.439453 L168.359375,115.516602 L169.641602,115.516602 L169.641602,114.608887 L168.359375,114.608887 L168.359375,113.015625 L167.254883,113.015625 Z"/>
    <rect width="132" height="32" x="84" y="228" fill-opacity=".3" rx="2"/>
    <path d="M130,239 L133.269043,239 C134.989258,239 136.20166,240.206055 136.20166,241.938965 C136.20166,243.678223 134.976562,244.890625 133.256348,244.890625 L131.142578,244.890625 L131.142578,248.159668 L130,248.159668 L130,239 Z M131.142578,240.015625 L131.142578,243.875 L132.970703,243.875 C134.27832,243.875 135.027344,243.157715 135.027344,241.938965 C135.027344,240.726562 134.284668,240.015625 132.970703,240.015625 L131.142578,240.015625 Z M137.337891,248.159668 L138.442383,248.159668 L138.442383,244.046387 C138.442383,243.113281 139.000977,242.497559 139.85791,242.497559 C140.124512,242.497559 140.359375,242.529297 140.448242,242.561035 L140.448242,241.488281 C140.359375,241.475586 140.194336,241.443848 140.003906,241.443848 C139.229492,241.443848 138.620117,241.907227 138.404297,242.637207 L138.378906,242.637207 L138.378906,241.558105 L137.337891,241.558105 L137.337891,248.159668 Z M143.672852,242.402344 C142.638184,242.402344 141.914551,243.195801 141.844727,244.293945 L145.431152,244.293945 C145.405762,243.189453 144.713867,242.402344 143.672852,242.402344 Z M145.405762,246.268066 L146.491211,246.268066 C146.300781,247.42334 145.183594,248.273926 143.742676,248.273926 C141.851074,248.273926 140.702148,246.959961 140.702148,244.884277 C140.702148,242.833984 141.870117,241.443848 143.691895,241.443848 C145.475586,241.443848 146.57373,242.73877 146.57373,244.738281 L146.57373,245.157227 L141.838379,245.157227 L141.838379,245.220703 C141.838379,246.483887 142.581055,247.31543 143.768066,247.31543 C144.605957,247.31543 145.22168,246.890137 145.405762,246.268066 Z M147.570312,243.379883 C147.570312,244.28125 148.141602,244.87793 149.303223,245.17627 L150.464844,245.474609 C151.20752,245.671387 151.480469,245.925293 151.480469,246.39502 C151.480469,246.991699 150.928223,247.372559 150.033203,247.372559 C149.138184,247.372559 148.617676,247.004395 148.49707,246.318848 L147.392578,246.318848 C147.506836,247.486816 148.516113,248.273926 149.963379,248.273926 C151.505859,248.273926 152.591309,247.461426 152.591309,246.3125 C152.591309,245.341309 152.108887,244.858887 150.775879,244.522461 L149.753906,244.274902 C149.004883,244.084473 148.655762,243.779785 148.655762,243.322754 C148.655762,242.745117 149.188965,242.345215 149.995117,242.345215 C150.807617,242.345215 151.321777,242.73877 151.397949,243.373535 L152.45166,243.373535 C152.400879,242.256348 151.397949,241.443848 150.033203,241.443848 C148.57959,241.443848 147.570312,242.25 147.570312,243.379883 Z M153.619629,243.379883 C153.619629,244.28125 154.190918,244.87793 155.352539,245.17627 L156.51416,245.474609 C157.256836,245.671387 157.529785,245.925293 157.529785,246.39502 C157.529785,246.991699 156.977539,247.372559 156.08252,247.372559 C155.1875,247.372559 154.666992,247.004395 154.546387,246.318848 L153.441895,246.318848 C153.556152,247.486816 154.56543,248.273926 156.012695,248.273926 C157.555176,248.273926 158.640625,247.461426 158.640625,246.3125 C158.640625,245.341309 158.158203,244.858887 156.825195,244.522461 L155.803223,244.274902 C155.054199,244.084473 154.705078,243.779785 154.705078,243.322754 C154.705078,242.745117 155.238281,242.345215 156.044434,242.345215 C156.856934,242.345215 157.371094,242.73877 157.447266,243.373535 L158.500977,243.373535 C158.450195,242.256348 157.447266,241.443848 156.08252,241.443848 C154.628906,241.443848 153.619629,242.25 153.619629,243.379883 Z M162.430176,242.402344 C161.395508,242.402344 160.671875,243.195801 160.602051,244.293945 L164.188477,244.293945 C164.163086,243.189453 163.471191,242.402344 162.430176,242.402344 Z M164.163086,246.268066 L165.248535,246.268066 C165.058105,247.42334 163.940918,248.273926 162.5,248.273926 C160.608398,248.273926 159.459473,246.959961 159.459473,244.884277 C159.459473,242.833984 160.627441,241.443848 162.449219,241.443848 C164.23291,241.443848 165.331055,242.73877 165.331055,244.738281 L165.331055,245.157227 L160.595703,245.157227 L160.595703,245.220703 C160.595703,246.483887 161.338379,247.31543 162.525391,247.31543 C163.363281,247.31543 163.979004,246.890137 164.163086,246.268066 Z M168.942871,248.273926 C167.260742,248.273926 166.118164,246.928223 166.118164,244.858887 C166.118164,242.789551 167.254395,241.443848 168.91748,241.443848 C169.863281,241.443848 170.625,241.907227 171.018555,242.630859 L171.043945,242.630859 L171.043945,239 L172.148438,239 L172.148438,248.159668 L171.094727,248.159668 L171.094727,247.04248 L171.075684,247.04248 C170.650391,247.804199 169.89502,248.273926 168.942871,248.273926 Z M169.152344,242.415039 C167.984375,242.415039 167.248047,243.367188 167.248047,244.858887 C167.248047,246.356934 167.984375,247.302734 169.152344,247.302734 C170.288574,247.302734 171.050293,246.337891 171.050293,244.858887 C171.050293,243.38623 170.288574,242.415039 169.152344,242.415039 Z"/>
    <rect width="132" height="32" x="84" y="165" fill-opacity=".2" rx="2"/>
    <path d="M142.3125,185.159668 L142.3125,176 L141.169922,176 L141.169922,179.960938 L136.142578,179.960938 L136.142578,176 L135,176 L135,185.159668 L136.142578,185.159668 L136.142578,180.989258 L141.169922,180.989258 L141.169922,185.159668 L142.3125,185.159668 Z M146.654297,185.273926 C144.826172,185.273926 143.594727,183.959961 143.594727,181.858887 C143.594727,179.751465 144.826172,178.443848 146.654297,178.443848 C148.476074,178.443848 149.70752,179.751465 149.70752,181.858887 C149.70752,183.959961 148.476074,185.273926 146.654297,185.273926 Z M146.654297,184.302734 C147.822266,184.302734 148.583984,183.414062 148.583984,181.858887 C148.583984,180.303711 147.822266,179.415039 146.654297,179.415039 C145.486328,179.415039 144.718262,180.303711 144.718262,181.858887 C144.718262,183.414062 145.486328,184.302734 146.654297,184.302734 Z M156.04248,178.558105 L154.893555,178.558105 L153.06543,183.985352 L153.040039,183.985352 L151.218262,178.558105 L150.056641,178.558105 L152.487793,185.159668 L153.617676,185.159668 L156.04248,178.558105 Z M159.362305,179.402344 C158.327637,179.402344 157.604004,180.195801 157.53418,181.293945 L161.120605,181.293945 C161.095215,180.189453 160.40332,179.402344 159.362305,179.402344 Z M161.095215,183.268066 L162.180664,183.268066 C161.990234,184.42334 160.873047,185.273926 159.432129,185.273926 C157.540527,185.273926 156.391602,183.959961 156.391602,181.884277 C156.391602,179.833984 157.55957,178.443848 159.381348,178.443848 C161.165039,178.443848 162.263184,179.73877 162.263184,181.738281 L162.263184,182.157227 L157.527832,182.157227 L157.527832,182.220703 C157.527832,183.483887 158.270508,184.31543 159.45752,184.31543 C160.29541,184.31543 160.911133,183.890137 161.095215,183.268066 Z M163.374023,185.159668 L164.478516,185.159668 L164.478516,181.046387 C164.478516,180.113281 165.037109,179.497559 165.894043,179.497559 C166.160645,179.497559 166.395508,179.529297 166.484375,179.561035 L166.484375,178.488281 C166.395508,178.475586 166.230469,178.443848 166.040039,178.443848 C165.265625,178.443848 164.65625,178.907227 164.44043,179.637207 L164.415039,179.637207 L164.415039,178.558105 L163.374023,178.558105 L163.374023,185.159668 Z"/>
  </g>
</svg>
