<svg xmlns="http://www.w3.org/2000/svg" xmlns:xlink="http://www.w3.org/1999/xlink" width="300" height="180" style="background:#f9f9fa" viewBox="0 0 300 180">
  <defs>
    <path id="button-footer-a" d="M5.171875,0.844031525 L436.535156,0.844031525 L436.535156,0.844031525 C438.744295,0.844031525 440.535156,2.63489253 440.535156,4.84403152 L440.535156,212.845785 L440.535156,212.845785 C440.535156,215.054924 438.744295,216.845785 436.535156,216.845785 L5.171875,216.845785 L5.171875,216.845785 C2.962736,216.845785 1.171875,215.054924 1.171875,212.845785 L1.171875,4.84403152 L1.171875,4.84403152 C1.171875,2.63489253 2.962736,0.844031525 5.171875,0.844031525 Z"/>
    <filter id="button-footer-b" width="109.1%" height="118.5%" x="-4.6%" y="-6.9%" filterUnits="objectBoundingBox">
      <feMorphology in="SourceAlpha" operator="dilate" radius="1" result="shadowSpreadOuter1"/>
      <feOffset dy="5" in="shadowSpreadOuter1" result="shadowOffsetOuter1"/>
      <feGaussianBlur in="shadowOffsetOuter1" result="shadowBlurOuter1" stdDeviation="5.5"/>
      <feComposite in="shadowBlurOuter1" in2="SourceAlpha" operator="out" result="shadowBlurOuter1"/>
      <feColorMatrix in="shadowBlurOuter1" values="0 0 0 0 0.0470588235   0 0 0 0 0.0470588235   0 0 0 0 0.0509803922  0 0 0 0.3 0"/>
    </filter>
  </defs>
  <g fill="none" fill-rule="evenodd">
    <g transform="translate(-166 -61)">
      <mask id="button-footer-c" fill="#fff">
        <use xlink:href="#button-footer-a"/>
      </mask>
      <use fill="#000" filter="url(#button-footer-b)" xlink:href="#button-footer-a"/>
      <use fill="#FFF" xlink:href="#button-footer-a"/>
      <path stroke="#0C0C0D" stroke-opacity=".2" d="M5.171875,0.344031525 L436.535156,0.344031525 C439.020438,0.344031525 441.035156,2.35875015 441.035156,4.84403152 L441.035156,212.845785 C441.035156,215.331066 439.020438,217.345785 436.535156,217.345785 L5.171875,217.345785 C2.68659363,217.345785 0.671875,215.331066 0.671875,212.845785 L0.671875,4.84403152 C0.671875,2.35875015 2.68659363,0.344031525 5.171875,0.344031525 Z"/>
      <g fill="#0C0C0D" fill-opacity=".2" mask="url(#button-footer-c)">
        <rect width="440" height="1" y="6" transform="translate(.5 162)"/>
      </g>
    </g>
    <rect width="100" height="32" x="59" y="116" fill="#0C0C0D" fill-opacity=".1" rx="2"/>
    <path fill="#0C0C0D" d="M99.1755371,126.687988 C101.771729,126.687988 103.396729,128.516113 103.396729,131.42334 C103.396729,134.330566 101.771729,136.152344 99.1755371,136.152344 C96.5793457,136.152344 94.9543457,134.330566 94.9543457,131.42334 C94.9543457,128.516113 96.5793457,126.687988 99.1755371,126.687988 Z M99.1755371,127.741699 C97.3029785,127.741699 96.1286621,129.163574 96.1286621,131.42334 C96.1286621,133.676758 97.3029785,135.098633 99.1755371,135.098633 C101.048096,135.098633 102.222412,133.676758 102.222412,131.42334 C102.222412,129.163574 101.048096,127.741699 99.1755371,127.741699 Z M107.852783,129.28418 C109.534912,129.28418 110.67749,130.629883 110.67749,132.699219 C110.67749,134.768555 109.54126,136.114258 107.878174,136.114258 C106.932373,136.114258 106.170654,135.650879 105.7771,134.927246 L105.751709,134.927246 L105.751709,138.202637 L104.647217,138.202637 L104.647217,129.398438 L105.69458,129.398438 L105.69458,130.515625 L105.719971,130.515625 C106.126221,129.772949 106.894287,129.28418 107.852783,129.28418 Z M107.636963,135.143066 C108.811279,135.143066 109.547607,134.197266 109.547607,132.699219 C109.547607,131.20752 108.811279,130.255371 107.636963,130.255371 C106.50708,130.255371 105.745361,131.23291 105.745361,132.699219 C105.745361,134.171875 106.50708,135.143066 107.636963,135.143066 Z M114.435303,130.242676 C113.400635,130.242676 112.677002,131.036133 112.607178,132.134277 L116.193604,132.134277 C116.168213,131.029785 115.476318,130.242676 114.435303,130.242676 Z M116.168213,134.108398 L117.253662,134.108398 C117.063232,135.263672 115.946045,136.114258 114.505127,136.114258 C112.613525,136.114258 111.4646,134.800293 111.4646,132.724609 C111.4646,130.674316 112.632568,129.28418 114.454346,129.28418 C116.238037,129.28418 117.336182,130.579102 117.336182,132.578613 L117.336182,132.997559 L112.60083,132.997559 L112.60083,133.061035 C112.60083,134.324219 113.343506,135.155762 114.530518,135.155762 C115.368408,135.155762 115.984131,134.730469 116.168213,134.108398 Z M118.447021,136 L119.551514,136 L119.551514,132.115234 C119.551514,130.998047 120.230713,130.261719 121.271729,130.261719 C122.287354,130.261719 122.788818,130.845703 122.788818,131.912109 L122.788818,136 L123.893311,136 L123.893311,131.715332 C123.893311,130.217285 123.05542,129.28418 121.608154,129.28418 C120.586182,129.28418 119.881592,129.741211 119.513428,130.452148 L119.488037,130.452148 L119.488037,129.398438 L118.447021,129.398438 L118.447021,136 Z"/>
    <rect width="100" height="32" x="167" y="116" fill="#0060DF" rx="2"/>
    <path fill="#FFF" d="M186.612305,127.855957 L186.612305,131.366211 L188.802246,131.366211 C189.976562,131.366211 190.643066,130.731445 190.643066,129.60791 C190.643066,128.509766 189.932129,127.855957 188.751465,127.855957 L186.612305,127.855957 Z M186.612305,132.375488 L186.612305,136 L185.469727,136 L185.469727,126.840332 L188.903809,126.840332 C190.668457,126.840332 191.82373,127.919434 191.82373,129.569824 C191.82373,130.845703 191.131836,131.835938 189.98291,132.197754 L192.103027,136 L190.763672,136 L188.802246,132.375488 L186.612305,132.375488 Z M195.733887,130.242676 C194.699219,130.242676 193.975586,131.036133 193.905762,132.134277 L197.492188,132.134277 C197.466797,131.029785 196.774902,130.242676 195.733887,130.242676 Z M197.466797,134.108398 L198.552246,134.108398 C198.361816,135.263672 197.244629,136.114258 195.803711,136.114258 C193.912109,136.114258 192.763184,134.800293 192.763184,132.724609 C192.763184,130.674316 193.931152,129.28418 195.75293,129.28418 C197.536621,129.28418 198.634766,130.579102 198.634766,132.578613 L198.634766,132.997559 L193.899414,132.997559 L193.899414,133.061035 C193.899414,134.324219 194.64209,135.155762 195.829102,135.155762 C196.666992,135.155762 197.282715,134.730469 197.466797,134.108398 Z M199.745605,136 L200.850098,136 L200.850098,131.861328 C200.850098,130.947266 201.484863,130.261719 202.36084,130.261719 C203.179688,130.261719 203.712891,130.782227 203.712891,131.575684 L203.712891,136 L204.817383,136 L204.817383,131.804199 C204.817383,130.90918 205.433105,130.261719 206.309082,130.261719 C207.178711,130.261719 207.680176,130.794922 207.680176,131.696289 L207.680176,136 L208.784668,136 L208.784668,131.442383 C208.784668,130.134766 207.94043,129.28418 206.632812,129.28418 C205.706055,129.28418 204.931641,129.753906 204.563477,130.541016 L204.538086,130.541016 C204.252441,129.741211 203.585938,129.28418 202.68457,129.28418 C201.795898,129.28418 201.123047,129.753906 200.812012,130.452148 L200.786621,130.452148 L200.786621,129.398438 L199.745605,129.398438 L199.745605,136 Z M212.92334,136.114258 C211.095215,136.114258 209.86377,134.800293 209.86377,132.699219 C209.86377,130.591797 211.095215,129.28418 212.92334,129.28418 C214.745117,129.28418 215.976562,130.591797 215.976562,132.699219 C215.976562,134.800293 214.745117,136.114258 212.92334,136.114258 Z M212.92334,135.143066 C214.091309,135.143066 214.853027,134.254395 214.853027,132.699219 C214.853027,131.144043 214.091309,130.255371 212.92334,130.255371 C211.755371,130.255371 210.987305,131.144043 210.987305,132.699219 C210.987305,134.254395 211.755371,135.143066 212.92334,135.143066 Z M222.311523,129.398438 L221.162598,129.398438 L219.334473,134.825684 L219.309082,134.825684 L217.487305,129.398438 L216.325684,129.398438 L218.756836,136 L219.886719,136 L222.311523,129.398438 Z M225.631348,130.242676 C224.59668,130.242676 223.873047,131.036133 223.803223,132.134277 L227.389648,132.134277 C227.364258,131.029785 226.672363,130.242676 225.631348,130.242676 Z M227.364258,134.108398 L228.449707,134.108398 C228.259277,135.263672 227.14209,136.114258 225.701172,136.114258 C223.80957,136.114258 222.660645,134.800293 222.660645,132.724609 C222.660645,130.674316 223.828613,129.28418 225.650391,129.28418 C227.434082,129.28418 228.532227,130.579102 228.532227,132.578613 L228.532227,132.997559 L223.796875,132.997559 L223.796875,133.061035 C223.796875,134.324219 224.539551,135.155762 225.726562,135.155762 C226.564453,135.155762 227.180176,134.730469 227.364258,134.108398 Z M233.623047,136 L233.623047,132.032715 L237.679199,132.032715 L237.679199,131.01709 L233.623047,131.01709 L233.623047,127.868652 L238.041016,127.868652 L238.041016,126.840332 L232.480469,126.840332 L232.480469,136 L233.623047,136 Z M239.228027,136 L240.33252,136 L240.33252,129.398438 L239.228027,129.398438 L239.228027,136 Z M239.780273,128.287598 C240.161133,128.287598 240.472168,127.976562 240.472168,127.602051 C240.472168,127.221191 240.161133,126.916504 239.780273,126.916504 C239.405762,126.916504 239.094727,127.221191 239.094727,127.602051 C239.094727,127.976562 239.405762,128.287598 239.780273,128.287598 Z M241.881348,136 L242.98584,136 L242.98584,126.840332 L241.881348,126.840332 L241.881348,136 Z M247.124512,130.242676 C246.089844,130.242676 245.366211,131.036133 245.296387,132.134277 L248.882812,132.134277 C248.857422,131.029785 248.165527,130.242676 247.124512,130.242676 Z M248.857422,134.108398 L249.942871,134.108398 C249.752441,135.263672 248.635254,136.114258 247.194336,136.114258 C245.302734,136.114258 244.153809,134.800293 244.153809,132.724609 C244.153809,130.674316 245.321777,129.28418 247.143555,129.28418 C248.927246,129.28418 250.025391,130.579102 250.025391,132.578613 L250.025391,132.997559 L245.290039,132.997559 L245.290039,133.061035 C245.290039,134.324219 246.032715,135.155762 247.219727,135.155762 C248.057617,135.155762 248.67334,134.730469 248.857422,134.108398 Z"/>
    <path fill="#0C0C0D" d="M-113.651855,20 L-113.651855,11.8686523 L-110.763672,11.8686523 L-110.763672,10.840332 L-117.682617,10.840332 L-117.682617,11.8686523 L-114.794434,11.8686523 L-114.794434,20 L-113.651855,20 Z M-109.671875,20 L-108.567383,20 L-108.567383,16.1533203 C-108.567383,15.0107422 -107.888184,14.2617188 -106.790039,14.2617188 C-105.755371,14.2617188 -105.228516,14.8901367 -105.228516,15.9375 L-105.228516,20 L-104.124023,20 L-104.124023,15.734375 C-104.124023,14.2617188 -105,13.2841797 -106.447266,13.2841797 C-107.450195,13.2841797 -108.173828,13.7158203 -108.541992,14.4521484 L-108.567383,14.4521484 L-108.567383,10.840332 L-109.671875,10.840332 L-109.671875,20 Z M-102.664062,20 L-101.55957,20 L-101.55957,13.3984375 L-102.664062,13.3984375 L-102.664062,20 Z M-102.111816,12.2875977 C-101.730957,12.2875977 -101.419922,11.9765625 -101.419922,11.6020508 C-101.419922,11.2211914 -101.730957,10.9165039 -102.111816,10.9165039 C-102.486328,10.9165039 -102.797363,11.2211914 -102.797363,11.6020508 C-102.797363,11.9765625 -102.486328,12.2875977 -102.111816,12.2875977 Z M-100.182129,15.2202148 C-100.182129,16.121582 -99.6108398,16.7182617 -98.4492188,17.0166016 L-97.2875977,17.3149414 C-96.5449219,17.5117188 -96.2719727,17.765625 -96.2719727,18.2353516 C-96.2719727,18.8320312 -96.8242188,19.2128906 -97.7192383,19.2128906 C-98.6142578,19.2128906 -99.1347656,18.8447266 -99.2553711,18.1591797 L-100.359863,18.1591797 C-100.245605,19.3271484 -99.2363281,20.1142578 -97.7890625,20.1142578 C-96.246582,20.1142578 -95.1611328,19.3017578 -95.1611328,18.152832 C-95.1611328,17.1816406 -95.6435547,16.6992188 -96.9765625,16.362793 L-97.9985352,16.1152344 C-98.7475586,15.9248047 -99.0966797,15.6201172 -99.0966797,15.1630859 C-99.0966797,14.5854492 -98.5634766,14.1855469 -97.7573242,14.1855469 C-96.9448242,14.1855469 -96.4306641,14.5791016 -96.3544922,15.2138672 L-95.3007812,15.2138672 C-95.3515625,14.0966797 -96.3544922,13.2841797 -97.7192383,13.2841797 C-99.1728516,13.2841797 -100.182129,14.090332 -100.182129,15.2202148 Z M-90.9970703,20 L-89.8925781,20 L-89.8925781,14.3061523 L-88.546875,14.3061523 L-88.546875,13.3984375 L-89.8989258,13.3984375 L-89.8989258,12.668457 C-89.8989258,12.0146484 -89.6132812,11.6972656 -89.0166016,11.6972656 C-88.8325195,11.6972656 -88.6484375,11.7163086 -88.5151367,11.7353516 L-88.5151367,10.840332 C-88.6738281,10.8149414 -88.9404297,10.7895508 -89.1879883,10.7895508 C-90.4067383,10.7895508 -90.9970703,11.3925781 -90.9970703,12.6621094 L-90.9970703,13.3984375 L-91.9174805,13.3984375 L-91.9174805,14.3061523 L-90.9970703,14.3061523 L-90.9970703,20 Z M-87.347168,20 L-86.2426758,20 L-86.2426758,13.3984375 L-87.347168,13.3984375 L-87.347168,20 Z M-86.7949219,12.2875977 C-86.4140625,12.2875977 -86.1030273,11.9765625 -86.1030273,11.6020508 C-86.1030273,11.2211914 -86.4140625,10.9165039 -86.7949219,10.9165039 C-87.1694336,10.9165039 -87.4804688,11.2211914 -87.4804688,11.6020508 C-87.4804688,11.9765625 -87.1694336,12.2875977 -86.7949219,12.2875977 Z M-84.6938477,20 L-83.5893555,20 L-83.5893555,10.840332 L-84.6938477,10.840332 L-84.6938477,20 Z M-79.4506836,14.2426758 C-80.4853516,14.2426758 -81.2089844,15.0361328 -81.2788086,16.1342773 L-77.6923828,16.1342773 C-77.7177734,15.0297852 -78.409668,14.2426758 -79.4506836,14.2426758 Z M-77.7177734,18.1083984 L-76.6323242,18.1083984 C-76.8227539,19.2636719 -77.9399414,20.1142578 -79.3808594,20.1142578 C-81.2724609,20.1142578 -82.4213867,18.800293 -82.4213867,16.7246094 C-82.4213867,14.6743164 -81.253418,13.2841797 -79.4316406,13.2841797 C-77.6479492,13.2841797 -76.5498047,14.5791016 -76.5498047,16.5786133 L-76.5498047,16.9975586 L-81.2851562,16.9975586 L-81.2851562,17.0610352 C-81.2851562,18.3242188 -80.5424805,19.1557617 -79.3554688,19.1557617 C-78.5175781,19.1557617 -77.9018555,18.7304688 -77.7177734,18.1083984 Z M-67.2885742,15.5629883 C-67.4282227,14.3759766 -68.4121094,13.2841797 -70.0625,13.2841797 C-71.8842773,13.2841797 -73.0966797,14.6171875 -73.0966797,16.6992188 C-73.0966797,18.8256836 -71.8779297,20.1142578 -70.0498047,20.1142578 C-68.5517578,20.1142578 -67.4472656,19.1875 -67.2758789,17.8735352 L-68.3613281,17.8735352 C-68.5517578,18.6669922 -69.1420898,19.1430664 -70.043457,19.1430664 C-71.1860352,19.1430664 -71.9731445,18.2353516 -71.9731445,16.6992188 C-71.9731445,15.2011719 -71.1987305,14.2553711 -70.0561523,14.2553711 C-69.0849609,14.2553711 -68.5263672,14.8457031 -68.3676758,15.5629883 L-67.2885742,15.5629883 Z M-63.5244141,20.1142578 C-65.3525391,20.1142578 -66.5839844,18.800293 -66.5839844,16.6992188 C-66.5839844,14.5917969 -65.3525391,13.2841797 -63.5244141,13.2841797 C-61.7026367,13.2841797 -60.4711914,14.5917969 -60.4711914,16.6992188 C-60.4711914,18.800293 -61.7026367,20.1142578 -63.5244141,20.1142578 Z M-63.5244141,19.1430664 C-62.3564453,19.1430664 -61.5947266,18.2543945 -61.5947266,16.6992188 C-61.5947266,15.144043 -62.3564453,14.2553711 -63.5244141,14.2553711 C-64.6923828,14.2553711 -65.4604492,15.144043 -65.4604492,16.6992188 C-65.4604492,18.2543945 -64.6923828,19.1430664 -63.5244141,19.1430664 Z M-59.3603516,20 L-58.2558594,20 L-58.2558594,16.1152344 C-58.2558594,14.9980469 -57.5766602,14.2617188 -56.5356445,14.2617188 C-55.5200195,14.2617188 -55.0185547,14.8457031 -55.0185547,15.9121094 L-55.0185547,20 L-53.9140625,20 L-53.9140625,15.715332 C-53.9140625,14.2172852 -54.7519531,13.2841797 -56.1992188,13.2841797 C-57.2211914,13.2841797 -57.9257812,13.7412109 -58.2939453,14.4521484 L-58.3193359,14.4521484 L-58.3193359,13.3984375 L-59.3603516,13.3984375 L-59.3603516,20 Z M-52.1557617,11.8051758 L-52.1557617,13.3984375 L-53.1396484,13.3984375 L-53.1396484,14.3061523 L-52.1557617,14.3061523 L-52.1557617,18.2861328 C-52.1557617,19.5556641 -51.6860352,20.0507812 -50.4736328,20.0507812 C-50.2133789,20.0507812 -49.9086914,20.0317383 -49.7753906,20 L-49.7753906,19.0732422 C-49.8515625,19.0859375 -50.1054688,19.1049805 -50.2324219,19.1049805 C-50.7973633,19.1049805 -51.0512695,18.8320312 -51.0512695,18.2290039 L-51.0512695,14.3061523 L-49.769043,14.3061523 L-49.769043,13.3984375 L-51.0512695,13.3984375 L-51.0512695,11.8051758 L-52.1557617,11.8051758 Z M-46.5444336,19.1748047 C-45.503418,19.1748047 -44.7036133,18.4448242 -44.7036133,17.4926758 L-44.7036133,16.953125 L-46.4682617,17.0610352 C-47.3569336,17.1181641 -47.8647461,17.5117188 -47.8647461,18.1337891 C-47.8647461,18.762207 -47.3378906,19.1748047 -46.5444336,19.1748047 Z M-46.7919922,20.1142578 C-48.105957,20.1142578 -48.9882812,19.3208008 -48.9882812,18.1337891 C-48.9882812,17.0039062 -48.1186523,16.2929688 -46.5952148,16.2041016 L-44.7036133,16.0961914 L-44.7036133,15.5439453 C-44.7036133,14.737793 -45.2368164,14.2553711 -46.1508789,14.2553711 C-47.0014648,14.2553711 -47.534668,14.6552734 -47.6743164,15.3027344 L-48.7407227,15.3027344 C-48.6645508,14.1601562 -47.6870117,13.2841797 -46.1254883,13.2841797 C-44.5766602,13.2841797 -43.5991211,14.1220703 -43.5991211,15.4360352 L-43.5991211,20 L-44.6464844,20 L-44.6464844,18.8637695 L-44.671875,18.8637695 C-45.0654297,19.6191406 -45.9033203,20.1142578 -46.7919922,20.1142578 Z M-42.1391602,20 L-41.034668,20 L-41.034668,13.3984375 L-42.1391602,13.3984375 L-42.1391602,20 Z M-41.5869141,12.2875977 C-41.2060547,12.2875977 -40.8950195,11.9765625 -40.8950195,11.6020508 C-40.8950195,11.2211914 -41.2060547,10.9165039 -41.5869141,10.9165039 C-41.9614258,10.9165039 -42.2724609,11.2211914 -42.2724609,11.6020508 C-42.2724609,11.9765625 -41.9614258,12.2875977 -41.5869141,12.2875977 Z M-39.5429688,20 L-38.4384766,20 L-38.4384766,16.1152344 C-38.4384766,14.9980469 -37.7592773,14.2617188 -36.7182617,14.2617188 C-35.7026367,14.2617188 -35.2011719,14.8457031 -35.2011719,15.9121094 L-35.2011719,20 L-34.0966797,20 L-34.0966797,15.715332 C-34.0966797,14.2172852 -34.9345703,13.2841797 -36.3818359,13.2841797 C-37.4038086,13.2841797 -38.1083984,13.7412109 -38.4765625,14.4521484 L-38.5019531,14.4521484 L-38.5019531,13.3984375 L-39.5429688,13.3984375 L-39.5429688,20 Z M-32.8081055,15.2202148 C-32.8081055,16.121582 -32.2368164,16.7182617 -31.0751953,17.0166016 L-29.9135742,17.3149414 C-29.1708984,17.5117188 -28.8979492,17.765625 -28.8979492,18.2353516 C-28.8979492,18.8320312 -29.4501953,19.2128906 -30.3452148,19.2128906 C-31.2402344,19.2128906 -31.7607422,18.8447266 -31.8813477,18.1591797 L-32.9858398,18.1591797 C-32.871582,19.3271484 -31.8623047,20.1142578 -30.4150391,20.1142578 C-28.8725586,20.1142578 -27.7871094,19.3017578 -27.7871094,18.152832 C-27.7871094,17.1816406 -28.2695312,16.6992188 -29.6025391,16.362793 L-30.6245117,16.1152344 C-31.3735352,15.9248047 -31.7226562,15.6201172 -31.7226562,15.1630859 C-31.7226562,14.5854492 -31.1894531,14.1855469 -30.3833008,14.1855469 C-29.5708008,14.1855469 -29.0566406,14.5791016 -28.9804688,15.2138672 L-27.9267578,15.2138672 C-27.9775391,14.0966797 -28.9804688,13.2841797 -30.3452148,13.2841797 C-31.7988281,13.2841797 -32.8081055,14.090332 -32.8081055,15.2202148 Z M-21.8012695,19.1748047 C-20.7602539,19.1748047 -19.9604492,18.4448242 -19.9604492,17.4926758 L-19.9604492,16.953125 L-21.7250977,17.0610352 C-22.6137695,17.1181641 -23.121582,17.5117188 -23.121582,18.1337891 C-23.121582,18.762207 -22.5947266,19.1748047 -21.8012695,19.1748047 Z M-22.0488281,20.1142578 C-23.362793,20.1142578 -24.2451172,19.3208008 -24.2451172,18.1337891 C-24.2451172,17.0039062 -23.3754883,16.2929688 -21.8520508,16.2041016 L-19.9604492,16.0961914 L-19.9604492,15.5439453 C-19.9604492,14.737793 -20.4936523,14.2553711 -21.4077148,14.2553711 C-22.2583008,14.2553711 -22.7915039,14.6552734 -22.9311523,15.3027344 L-23.9975586,15.3027344 C-23.9213867,14.1601562 -22.9438477,13.2841797 -21.3823242,13.2841797 C-19.8334961,13.2841797 -18.855957,14.1220703 -18.855957,15.4360352 L-18.855957,20 L-19.9033203,20 L-19.9033203,18.8637695 L-19.9287109,18.8637695 C-20.3222656,19.6191406 -21.1601562,20.1142578 -22.0488281,20.1142578 Z M-9.37255859,13.3984375 L-10.5214844,13.3984375 L-12.3496094,18.8256836 L-12.375,18.8256836 L-14.1967773,13.3984375 L-15.3583984,13.3984375 L-12.9272461,20 L-11.7973633,20 L-9.37255859,13.3984375 Z M-8.45214844,20 L-7.34765625,20 L-7.34765625,13.3984375 L-8.45214844,13.3984375 L-8.45214844,20 Z M-7.89990234,12.2875977 C-7.51904297,12.2875977 -7.20800781,11.9765625 -7.20800781,11.6020508 C-7.20800781,11.2211914 -7.51904297,10.9165039 -7.89990234,10.9165039 C-8.27441406,10.9165039 -8.58544922,11.2211914 -8.58544922,11.6020508 C-8.58544922,11.9765625 -8.27441406,12.2875977 -7.89990234,12.2875977 Z M-5.85595703,20 L-4.75146484,20 L-4.75146484,15.8867188 C-4.75146484,14.9536133 -4.19287109,14.3378906 -3.3359375,14.3378906 C-3.06933594,14.3378906 -2.83447266,14.3696289 -2.74560547,14.4013672 L-2.74560547,13.3286133 C-2.83447266,13.315918 -2.99951172,13.2841797 -3.18994141,13.2841797 C-3.96435547,13.2841797 -4.57373047,13.7475586 -4.78955078,14.4775391 L-4.81494141,14.4775391 L-4.81494141,13.3984375 L-5.85595703,13.3984375 L-5.85595703,20 Z M3.5703125,13.3984375 L2.46582031,13.3984375 L2.46582031,17.2768555 C2.46582031,18.4003906 1.81835938,19.1367188 0.745605469,19.1367188 C-0.276367188,19.1367188 -0.777832031,18.559082 -0.777832031,17.4863281 L-0.777832031,13.3984375 L-1.88232422,13.3984375 L-1.88232422,17.6831055 C-1.88232422,19.1811523 -1.03808594,20.1142578 0.402832031,20.1142578 C1.41845703,20.1142578 2.10400391,19.6889648 2.49755859,18.9272461 L2.52294922,18.9272461 L2.52294922,20 L3.5703125,20 L3.5703125,13.3984375 Z M4.88427734,15.2202148 C4.88427734,16.121582 5.45556641,16.7182617 6.6171875,17.0166016 L7.77880859,17.3149414 C8.52148438,17.5117188 8.79443359,17.765625 8.79443359,18.2353516 C8.79443359,18.8320312 8.2421875,19.2128906 7.34716797,19.2128906 C6.45214844,19.2128906 5.93164062,18.8447266 5.81103516,18.1591797 L4.70654297,18.1591797 C4.82080078,19.3271484 5.83007812,20.1142578 7.27734375,20.1142578 C8.81982422,20.1142578 9.90527344,19.3017578 9.90527344,18.152832 C9.90527344,17.1816406 9.42285156,16.6992188 8.08984375,16.362793 L7.06787109,16.1152344 C6.31884766,15.9248047 5.96972656,15.6201172 5.96972656,15.1630859 C5.96972656,14.5854492 6.50292969,14.1855469 7.30908203,14.1855469 C8.12158203,14.1855469 8.63574219,14.5791016 8.71191406,15.2138672 L9.765625,15.2138672 C9.71484375,14.0966797 8.71191406,13.2841797 7.34716797,13.2841797 C5.89355469,13.2841797 4.88427734,14.090332 4.88427734,15.2202148 Z M16.449707,20.1142578 C14.621582,20.1142578 13.3901367,18.800293 13.3901367,16.6992188 C13.3901367,14.5917969 14.621582,13.2841797 16.449707,13.2841797 C18.2714844,13.2841797 19.5029297,14.5917969 19.5029297,16.6992188 C19.5029297,18.800293 18.2714844,20.1142578 16.449707,20.1142578 Z M16.449707,19.1430664 C17.6176758,19.1430664 18.3793945,18.2543945 18.3793945,16.6992188 C18.3793945,15.144043 17.6176758,14.2553711 16.449707,14.2553711 C15.2817383,14.2553711 14.5136719,15.144043 14.5136719,16.6992188 C14.5136719,18.2543945 15.2817383,19.1430664 16.449707,19.1430664 Z M20.6137695,20 L21.7182617,20 L21.7182617,15.8867188 C21.7182617,14.9536133 22.2768555,14.3378906 23.1337891,14.3378906 C23.4003906,14.3378906 23.6352539,14.3696289 23.7241211,14.4013672 L23.7241211,13.3286133 C23.6352539,13.315918 23.4702148,13.2841797 23.2797852,13.2841797 C22.5053711,13.2841797 21.8959961,13.7475586 21.6801758,14.4775391 L21.6547852,14.4775391 L21.6547852,13.3984375 L20.6137695,13.3984375 L20.6137695,20 Z M27.2851562,20 L28.3896484,20 L28.3896484,15.8613281 C28.3896484,14.9472656 29.0244141,14.2617188 29.9003906,14.2617188 C30.7192383,14.2617188 31.2524414,14.7822266 31.2524414,15.5756836 L31.2524414,20 L32.3569336,20 L32.3569336,15.8041992 C32.3569336,14.9091797 32.9726562,14.2617188 33.8486328,14.2617188 C34.7182617,14.2617188 35.2197266,14.7949219 35.2197266,15.6962891 L35.2197266,20 L36.3242188,20 L36.3242188,15.4423828 C36.3242188,14.1347656 35.4799805,13.2841797 34.1723633,13.2841797 C33.2456055,13.2841797 32.4711914,13.7539062 32.1030273,14.5410156 L32.0776367,14.5410156 C31.7919922,13.7412109 31.1254883,13.2841797 30.2241211,13.2841797 C29.3354492,13.2841797 28.6625977,13.7539062 28.3515625,14.4521484 L28.3261719,14.4521484 L28.3261719,13.3984375 L27.2851562,13.3984375 L27.2851562,20 Z M39.9042969,19.1748047 C40.9453125,19.1748047 41.7451172,18.4448242 41.7451172,17.4926758 L41.7451172,16.953125 L39.9804688,17.0610352 C39.0917969,17.1181641 38.5839844,17.5117188 38.5839844,18.1337891 C38.5839844,18.762207 39.1108398,19.1748047 39.9042969,19.1748047 Z M39.6567383,20.1142578 C38.3427734,20.1142578 37.4604492,19.3208008 37.4604492,18.1337891 C37.4604492,17.0039062 38.3300781,16.2929688 39.8535156,16.2041016 L41.7451172,16.0961914 L41.7451172,15.5439453 C41.7451172,14.737793 41.2119141,14.2553711 40.2978516,14.2553711 C39.4472656,14.2553711 38.9140625,14.6552734 38.7744141,15.3027344 L37.7080078,15.3027344 C37.7841797,14.1601562 38.7617188,13.2841797 40.3232422,13.2841797 C41.8720703,13.2841797 42.8496094,14.1220703 42.8496094,15.4360352 L42.8496094,20 L41.8022461,20 L41.8022461,18.8637695 L41.7768555,18.8637695 C41.3833008,19.6191406 40.5454102,20.1142578 39.6567383,20.1142578 Z M44.3095703,20 L45.4140625,20 L45.4140625,10.840332 L44.3095703,10.840332 L44.3095703,20 Z M55.3037109,13.3984375 L54.2119141,13.3984375 L52.8916016,18.7685547 L52.8662109,18.7685547 L51.3681641,13.3984375 L50.3017578,13.3984375 L48.8100586,18.7685547 L48.784668,18.7685547 L47.4643555,13.3984375 L46.3662109,13.3984375 L48.2133789,20 L49.3369141,20 L50.8222656,14.8901367 L50.8476562,14.8901367 L52.3393555,20 L53.4628906,20 L55.3037109,13.3984375 Z M58.2553711,19.1748047 C59.2963867,19.1748047 60.0961914,18.4448242 60.0961914,17.4926758 L60.0961914,16.953125 L58.331543,17.0610352 C57.4428711,17.1181641 56.9350586,17.5117188 56.9350586,18.1337891 C56.9350586,18.762207 57.4619141,19.1748047 58.2553711,19.1748047 Z M58.0078125,20.1142578 C56.6938477,20.1142578 55.8115234,19.3208008 55.8115234,18.1337891 C55.8115234,17.0039062 56.6811523,16.2929688 58.2045898,16.2041016 L60.0961914,16.0961914 L60.0961914,15.5439453 C60.0961914,14.737793 59.5629883,14.2553711 58.6489258,14.2553711 C57.7983398,14.2553711 57.2651367,14.6552734 57.1254883,15.3027344 L56.059082,15.3027344 C56.1352539,14.1601562 57.112793,13.2841797 58.6743164,13.2841797 C60.2231445,13.2841797 61.2006836,14.1220703 61.2006836,15.4360352 L61.2006836,20 L60.1533203,20 L60.1533203,18.8637695 L60.1279297,18.8637695 C59.734375,19.6191406 58.8964844,20.1142578 58.0078125,20.1142578 Z M62.6035156,20 L63.7080078,20 L63.7080078,15.8867188 C63.7080078,14.9536133 64.2666016,14.3378906 65.1235352,14.3378906 C65.3901367,14.3378906 65.625,14.3696289 65.7138672,14.4013672 L65.7138672,13.3286133 C65.625,13.315918 65.4599609,13.2841797 65.2695312,13.2841797 C64.4951172,13.2841797 63.8857422,13.7475586 63.6699219,14.4775391 L63.6445312,14.4775391 L63.6445312,13.3984375 L62.6035156,13.3984375 L62.6035156,20 Z M68.9384766,14.2426758 C67.9038086,14.2426758 67.1801758,15.0361328 67.1103516,16.1342773 L70.6967773,16.1342773 C70.6713867,15.0297852 69.9794922,14.2426758 68.9384766,14.2426758 Z M70.6713867,18.1083984 L71.7568359,18.1083984 C71.5664062,19.2636719 70.4492188,20.1142578 69.0083008,20.1142578 C67.1166992,20.1142578 65.9677734,18.800293 65.9677734,16.7246094 C65.9677734,14.6743164 67.1357422,13.2841797 68.9575195,13.2841797 C70.7412109,13.2841797 71.8393555,14.5791016 71.8393555,16.5786133 L71.8393555,16.9975586 L67.1040039,16.9975586 L67.1040039,17.0610352 C67.1040039,18.3242188 67.8466797,19.1557617 69.0336914,19.1557617 C69.871582,19.1557617 70.4873047,18.7304688 70.6713867,18.1083984 Z M73.8833008,20.0634766 C74.2895508,20.0634766 74.6069336,19.7460938 74.6069336,19.3398438 C74.6069336,18.9335938 74.2895508,18.6162109 73.8833008,18.6162109 C73.4770508,18.6162109 73.159668,18.9335938 73.159668,19.3398438 C73.159668,19.7460938 73.4770508,20.0634766 73.8833008,20.0634766 Z M-113.651855,50 L-113.651855,41.8686523 L-110.763672,41.8686523 L-110.763672,40.840332 L-117.682617,40.840332 L-117.682617,41.8686523 L-114.794434,41.8686523 L-114.794434,50 L-113.651855,50 Z M-109.671875,50 L-108.567383,50 L-108.567383,46.1533203 C-108.567383,45.0107422 -107.888184,44.2617188 -106.790039,44.2617188 C-105.755371,44.2617188 -105.228516,44.8901367 -105.228516,45.9375 L-105.228516,50 L-104.124023,50 L-104.124023,45.734375 C-104.124023,44.2617188 -105,43.2841797 -106.447266,43.2841797 C-107.450195,43.2841797 -108.173828,43.7158203 -108.541992,44.4521484 L-108.567383,44.4521484 L-108.567383,40.840332 L-109.671875,40.840332 L-109.671875,50 Z M-102.664062,50 L-101.55957,50 L-101.55957,43.3984375 L-102.664062,43.3984375 L-102.664062,50 Z M-102.111816,42.2875977 C-101.730957,42.2875977 -101.419922,41.9765625 -101.419922,41.6020508 C-101.419922,41.2211914 -101.730957,40.9165039 -102.111816,40.9165039 C-102.486328,40.9165039 -102.797363,41.2211914 -102.797363,41.6020508 C-102.797363,41.9765625 -102.486328,42.2875977 -102.111816,42.2875977 Z M-100.182129,45.2202148 C-100.182129,46.121582 -99.6108398,46.7182617 -98.4492188,47.0166016 L-97.2875977,47.3149414 C-96.5449219,47.5117188 -96.2719727,47.765625 -96.2719727,48.2353516 C-96.2719727,48.8320312 -96.8242188,49.2128906 -97.7192383,49.2128906 C-98.6142578,49.2128906 -99.1347656,48.8447266 -99.2553711,48.1591797 L-100.359863,48.1591797 C-100.245605,49.3271484 -99.2363281,50.1142578 -97.7890625,50.1142578 C-96.246582,50.1142578 -95.1611328,49.3017578 -95.1611328,48.152832 C-95.1611328,47.1816406 -95.6435547,46.6992188 -96.9765625,46.362793 L-97.9985352,46.1152344 C-98.7475586,45.9248047 -99.0966797,45.6201172 -99.0966797,45.1630859 C-99.0966797,44.5854492 -98.5634766,44.1855469 -97.7573242,44.1855469 C-96.9448242,44.1855469 -96.4306641,44.5791016 -96.3544922,45.2138672 L-95.3007812,45.2138672 C-95.3515625,44.0966797 -96.3544922,43.2841797 -97.7192383,43.2841797 C-99.1728516,43.2841797 -100.182129,44.090332 -100.182129,45.2202148 Z M-90.9970703,50 L-89.8925781,50 L-89.8925781,44.3061523 L-88.546875,44.3061523 L-88.546875,43.3984375 L-89.8989258,43.3984375 L-89.8989258,42.668457 C-89.8989258,42.0146484 -89.6132812,41.6972656 -89.0166016,41.6972656 C-88.8325195,41.6972656 -88.6484375,41.7163086 -88.5151367,41.7353516 L-88.5151367,40.840332 C-88.6738281,40.8149414 -88.9404297,40.7895508 -89.1879883,40.7895508 C-90.4067383,40.7895508 -90.9970703,41.3925781 -90.9970703,42.6621094 L-90.9970703,43.3984375 L-91.9174805,43.3984375 L-91.9174805,44.3061523 L-90.9970703,44.3061523 L-90.9970703,50 Z M-87.347168,50 L-86.2426758,50 L-86.2426758,43.3984375 L-87.347168,43.3984375 L-87.347168,50 Z M-86.7949219,42.2875977 C-86.4140625,42.2875977 -86.1030273,41.9765625 -86.1030273,41.6020508 C-86.1030273,41.2211914 -86.4140625,40.9165039 -86.7949219,40.9165039 C-87.1694336,40.9165039 -87.4804688,41.2211914 -87.4804688,41.6020508 C-87.4804688,41.9765625 -87.1694336,42.2875977 -86.7949219,42.2875977 Z M-84.6938477,50 L-83.5893555,50 L-83.5893555,40.840332 L-84.6938477,40.840332 L-84.6938477,50 Z M-79.4506836,44.2426758 C-80.4853516,44.2426758 -81.2089844,45.0361328 -81.2788086,46.1342773 L-77.6923828,46.1342773 C-77.7177734,45.0297852 -78.409668,44.2426758 -79.4506836,44.2426758 Z M-77.7177734,48.1083984 L-76.6323242,48.1083984 C-76.8227539,49.2636719 -77.9399414,50.1142578 -79.3808594,50.1142578 C-81.2724609,50.1142578 -82.4213867,48.800293 -82.4213867,46.7246094 C-82.4213867,44.6743164 -81.253418,43.2841797 -79.4316406,43.2841797 C-77.6479492,43.2841797 -76.5498047,44.5791016 -76.5498047,46.5786133 L-76.5498047,46.9975586 L-81.2851562,46.9975586 L-81.2851562,47.0610352 C-81.2851562,48.3242188 -80.5424805,49.1557617 -79.3554688,49.1557617 C-78.5175781,49.1557617 -77.9018555,48.7304688 -77.7177734,48.1083984 Z M-67.2885742,45.5629883 C-67.4282227,44.3759766 -68.4121094,43.2841797 -70.0625,43.2841797 C-71.8842773,43.2841797 -73.0966797,44.6171875 -73.0966797,46.6992188 C-73.0966797,48.8256836 -71.8779297,50.1142578 -70.0498047,50.1142578 C-68.5517578,50.1142578 -67.4472656,49.1875 -67.2758789,47.8735352 L-68.3613281,47.8735352 C-68.5517578,48.6669922 -69.1420898,49.1430664 -70.043457,49.1430664 C-71.1860352,49.1430664 -71.9731445,48.2353516 -71.9731445,46.6992188 C-71.9731445,45.2011719 -71.1987305,44.2553711 -70.0561523,44.2553711 C-69.0849609,44.2553711 -68.5263672,44.8457031 -68.3676758,45.5629883 L-67.2885742,45.5629883 Z M-63.5244141,50.1142578 C-65.3525391,50.1142578 -66.5839844,48.800293 -66.5839844,46.6992188 C-66.5839844,44.5917969 -65.3525391,43.2841797 -63.5244141,43.2841797 C-61.7026367,43.2841797 -60.4711914,44.5917969 -60.4711914,46.6992188 C-60.4711914,48.800293 -61.7026367,50.1142578 -63.5244141,50.1142578 Z M-63.5244141,49.1430664 C-62.3564453,49.1430664 -61.5947266,48.2543945 -61.5947266,46.6992188 C-61.5947266,45.144043 -62.3564453,44.2553711 -63.5244141,44.2553711 C-64.6923828,44.2553711 -65.4604492,45.144043 -65.4604492,46.6992188 C-65.4604492,48.2543945 -64.6923828,49.1430664 -63.5244141,49.1430664 Z M-59.3603516,50 L-58.2558594,50 L-58.2558594,46.1152344 C-58.2558594,44.9980469 -57.5766602,44.2617188 -56.5356445,44.2617188 C-55.5200195,44.2617188 -55.0185547,44.8457031 -55.0185547,45.9121094 L-55.0185547,50 L-53.9140625,50 L-53.9140625,45.715332 C-53.9140625,44.2172852 -54.7519531,43.2841797 -56.1992188,43.2841797 C-57.2211914,43.2841797 -57.9257812,43.7412109 -58.2939453,44.4521484 L-58.3193359,44.4521484 L-58.3193359,43.3984375 L-59.3603516,43.3984375 L-59.3603516,50 Z M-52.1557617,41.8051758 L-52.1557617,43.3984375 L-53.1396484,43.3984375 L-53.1396484,44.3061523 L-52.1557617,44.3061523 L-52.1557617,48.2861328 C-52.1557617,49.5556641 -51.6860352,50.0507812 -50.4736328,50.0507812 C-50.2133789,50.0507812 -49.9086914,50.0317383 -49.7753906,50 L-49.7753906,49.0732422 C-49.8515625,49.0859375 -50.1054688,49.1049805 -50.2324219,49.1049805 C-50.7973633,49.1049805 -51.0512695,48.8320312 -51.0512695,48.2290039 L-51.0512695,44.3061523 L-49.769043,44.3061523 L-49.769043,43.3984375 L-51.0512695,43.3984375 L-51.0512695,41.8051758 L-52.1557617,41.8051758 Z M-46.5444336,49.1748047 C-45.503418,49.1748047 -44.7036133,48.4448242 -44.7036133,47.4926758 L-44.7036133,46.953125 L-46.4682617,47.0610352 C-47.3569336,47.1181641 -47.8647461,47.5117188 -47.8647461,48.1337891 C-47.8647461,48.762207 -47.3378906,49.1748047 -46.5444336,49.1748047 Z M-46.7919922,50.1142578 C-48.105957,50.1142578 -48.9882812,49.3208008 -48.9882812,48.1337891 C-48.9882812,47.0039062 -48.1186523,46.2929688 -46.5952148,46.2041016 L-44.7036133,46.0961914 L-44.7036133,45.5439453 C-44.7036133,44.737793 -45.2368164,44.2553711 -46.1508789,44.2553711 C-47.0014648,44.2553711 -47.534668,44.6552734 -47.6743164,45.3027344 L-48.7407227,45.3027344 C-48.6645508,44.1601562 -47.6870117,43.2841797 -46.1254883,43.2841797 C-44.5766602,43.2841797 -43.5991211,44.1220703 -43.5991211,45.4360352 L-43.5991211,50 L-44.6464844,50 L-44.6464844,48.8637695 L-44.671875,48.8637695 C-45.0654297,49.6191406 -45.9033203,50.1142578 -46.7919922,50.1142578 Z M-42.1391602,50 L-41.034668,50 L-41.034668,43.3984375 L-42.1391602,43.3984375 L-42.1391602,50 Z M-41.5869141,42.2875977 C-41.2060547,42.2875977 -40.8950195,41.9765625 -40.8950195,41.6020508 C-40.8950195,41.2211914 -41.2060547,40.9165039 -41.5869141,40.9165039 C-41.9614258,40.9165039 -42.2724609,41.2211914 -42.2724609,41.6020508 C-42.2724609,41.9765625 -41.9614258,42.2875977 -41.5869141,42.2875977 Z M-39.5429688,50 L-38.4384766,50 L-38.4384766,46.1152344 C-38.4384766,44.9980469 -37.7592773,44.2617188 -36.7182617,44.2617188 C-35.7026367,44.2617188 -35.2011719,44.8457031 -35.2011719,45.9121094 L-35.2011719,50 L-34.0966797,50 L-34.0966797,45.715332 C-34.0966797,44.2172852 -34.9345703,43.2841797 -36.3818359,43.2841797 C-37.4038086,43.2841797 -38.1083984,43.7412109 -38.4765625,44.4521484 L-38.5019531,44.4521484 L-38.5019531,43.3984375 L-39.5429688,43.3984375 L-39.5429688,50 Z M-32.8081055,45.2202148 C-32.8081055,46.121582 -32.2368164,46.7182617 -31.0751953,47.0166016 L-29.9135742,47.3149414 C-29.1708984,47.5117188 -28.8979492,47.765625 -28.8979492,48.2353516 C-28.8979492,48.8320312 -29.4501953,49.2128906 -30.3452148,49.2128906 C-31.2402344,49.2128906 -31.7607422,48.8447266 -31.8813477,48.1591797 L-32.9858398,48.1591797 C-32.871582,49.3271484 -31.8623047,50.1142578 -30.4150391,50.1142578 C-28.8725586,50.1142578 -27.7871094,49.3017578 -27.7871094,48.152832 C-27.7871094,47.1816406 -28.2695312,46.6992188 -29.6025391,46.362793 L-30.6245117,46.1152344 C-31.3735352,45.9248047 -31.7226562,45.6201172 -31.7226562,45.1630859 C-31.7226562,44.5854492 -31.1894531,44.1855469 -30.3833008,44.1855469 C-29.5708008,44.1855469 -29.0566406,44.5791016 -28.9804688,45.2138672 L-27.9267578,45.2138672 C-27.9775391,44.0966797 -28.9804688,43.2841797 -30.3452148,43.2841797 C-31.7988281,43.2841797 -32.8081055,44.090332 -32.8081055,45.2202148 Z M-21.8012695,49.1748047 C-20.7602539,49.1748047 -19.9604492,48.4448242 -19.9604492,47.4926758 L-19.9604492,46.953125 L-21.7250977,47.0610352 C-22.6137695,47.1181641 -23.121582,47.5117188 -23.121582,48.1337891 C-23.121582,48.762207 -22.5947266,49.1748047 -21.8012695,49.1748047 Z M-22.0488281,50.1142578 C-23.362793,50.1142578 -24.2451172,49.3208008 -24.2451172,48.1337891 C-24.2451172,47.0039062 -23.3754883,46.2929688 -21.8520508,46.2041016 L-19.9604492,46.0961914 L-19.9604492,45.5439453 C-19.9604492,44.737793 -20.4936523,44.2553711 -21.4077148,44.2553711 C-22.2583008,44.2553711 -22.7915039,44.6552734 -22.9311523,45.3027344 L-23.9975586,45.3027344 C-23.9213867,44.1601562 -22.9438477,43.2841797 -21.3823242,43.2841797 C-19.8334961,43.2841797 -18.855957,44.1220703 -18.855957,45.4360352 L-18.855957,50 L-19.9033203,50 L-19.9033203,48.8637695 L-19.9287109,48.8637695 C-20.3222656,49.6191406 -21.1601562,50.1142578 -22.0488281,50.1142578 Z M-9.37255859,43.3984375 L-10.5214844,43.3984375 L-12.3496094,48.8256836 L-12.375,48.8256836 L-14.1967773,43.3984375 L-15.3583984,43.3984375 L-12.9272461,50 L-11.7973633,50 L-9.37255859,43.3984375 Z M-8.45214844,50 L-7.34765625,50 L-7.34765625,43.3984375 L-8.45214844,43.3984375 L-8.45214844,50 Z M-7.89990234,42.2875977 C-7.51904297,42.2875977 -7.20800781,41.9765625 -7.20800781,41.6020508 C-7.20800781,41.2211914 -7.51904297,40.9165039 -7.89990234,40.9165039 C-8.27441406,40.9165039 -8.58544922,41.2211914 -8.58544922,41.6020508 C-8.58544922,41.9765625 -8.27441406,42.2875977 -7.89990234,42.2875977 Z M-5.85595703,50 L-4.75146484,50 L-4.75146484,45.8867188 C-4.75146484,44.9536133 -4.19287109,44.3378906 -3.3359375,44.3378906 C-3.06933594,44.3378906 -2.83447266,44.3696289 -2.74560547,44.4013672 L-2.74560547,43.3286133 C-2.83447266,43.315918 -2.99951172,43.2841797 -3.18994141,43.2841797 C-3.96435547,43.2841797 -4.57373047,43.7475586 -4.78955078,44.4775391 L-4.81494141,44.4775391 L-4.81494141,43.3984375 L-5.85595703,43.3984375 L-5.85595703,50 Z M3.5703125,43.3984375 L2.46582031,43.3984375 L2.46582031,47.2768555 C2.46582031,48.4003906 1.81835938,49.1367188 0.745605469,49.1367188 C-0.276367188,49.1367188 -0.777832031,48.559082 -0.777832031,47.4863281 L-0.777832031,43.3984375 L-1.88232422,43.3984375 L-1.88232422,47.6831055 C-1.88232422,49.1811523 -1.03808594,50.1142578 0.402832031,50.1142578 C1.41845703,50.1142578 2.10400391,49.6889648 2.49755859,48.9272461 L2.52294922,48.9272461 L2.52294922,50 L3.5703125,50 L3.5703125,43.3984375 Z M4.88427734,45.2202148 C4.88427734,46.121582 5.45556641,46.7182617 6.6171875,47.0166016 L7.77880859,47.3149414 C8.52148438,47.5117188 8.79443359,47.765625 8.79443359,48.2353516 C8.79443359,48.8320312 8.2421875,49.2128906 7.34716797,49.2128906 C6.45214844,49.2128906 5.93164062,48.8447266 5.81103516,48.1591797 L4.70654297,48.1591797 C4.82080078,49.3271484 5.83007812,50.1142578 7.27734375,50.1142578 C8.81982422,50.1142578 9.90527344,49.3017578 9.90527344,48.152832 C9.90527344,47.1816406 9.42285156,46.6992188 8.08984375,46.362793 L7.06787109,46.1152344 C6.31884766,45.9248047 5.96972656,45.6201172 5.96972656,45.1630859 C5.96972656,44.5854492 6.50292969,44.1855469 7.30908203,44.1855469 C8.12158203,44.1855469 8.63574219,44.5791016 8.71191406,45.2138672 L9.765625,45.2138672 C9.71484375,44.0966797 8.71191406,43.2841797 7.34716797,43.2841797 C5.89355469,43.2841797 4.88427734,44.090332 4.88427734,45.2202148 Z M16.449707,50.1142578 C14.621582,50.1142578 13.3901367,48.800293 13.3901367,46.6992188 C13.3901367,44.5917969 14.621582,43.2841797 16.449707,43.2841797 C18.2714844,43.2841797 19.5029297,44.5917969 19.5029297,46.6992188 C19.5029297,48.800293 18.2714844,50.1142578 16.449707,50.1142578 Z M16.449707,49.1430664 C17.6176758,49.1430664 18.3793945,48.2543945 18.3793945,46.6992188 C18.3793945,45.144043 17.6176758,44.2553711 16.449707,44.2553711 C15.2817383,44.2553711 14.5136719,45.144043 14.5136719,46.6992188 C14.5136719,48.2543945 15.2817383,49.1430664 16.449707,49.1430664 Z M20.6137695,50 L21.7182617,50 L21.7182617,45.8867188 C21.7182617,44.9536133 22.2768555,44.3378906 23.1337891,44.3378906 C23.4003906,44.3378906 23.6352539,44.3696289 23.7241211,44.4013672 L23.7241211,43.3286133 C23.6352539,43.315918 23.4702148,43.2841797 23.2797852,43.2841797 C22.5053711,43.2841797 21.8959961,43.7475586 21.6801758,44.4775391 L21.6547852,44.4775391 L21.6547852,43.3984375 L20.6137695,43.3984375 L20.6137695,50 Z M30.0209961,50.1142578 C28.1928711,50.1142578 26.9614258,48.800293 26.9614258,46.6992188 C26.9614258,44.5917969 28.1928711,43.2841797 30.0209961,43.2841797 C31.8427734,43.2841797 33.0742188,44.5917969 33.0742188,46.6992188 C33.0742188,48.800293 31.8427734,50.1142578 30.0209961,50.1142578 Z M30.0209961,49.1430664 C31.1889648,49.1430664 31.9506836,48.2543945 31.9506836,46.6992188 C31.9506836,45.144043 31.1889648,44.2553711 30.0209961,44.2553711 C28.8530273,44.2553711 28.0849609,45.144043 28.0849609,46.6992188 C28.0849609,48.2543945 28.8530273,49.1430664 30.0209961,49.1430664 Z M34.5405273,41.8051758 L34.5405273,43.3984375 L33.5566406,43.3984375 L33.5566406,44.3061523 L34.5405273,44.3061523 L34.5405273,48.2861328 C34.5405273,49.5556641 35.0102539,50.0507812 36.2226562,50.0507812 C36.4829102,50.0507812 36.7875977,50.0317383 36.9208984,50 L36.9208984,49.0732422 C36.8447266,49.0859375 36.5908203,49.1049805 36.4638672,49.1049805 C35.8989258,49.1049805 35.6450195,48.8320312 35.6450195,48.2290039 L35.6450195,44.3061523 L36.9272461,44.3061523 L36.9272461,43.3984375 L35.6450195,43.3984375 L35.6450195,41.8051758 L34.5405273,41.8051758 Z M38.1586914,50 L39.2631836,50 L39.2631836,46.1533203 C39.2631836,45.0107422 39.9423828,44.2617188 41.0405273,44.2617188 C42.0751953,44.2617188 42.6020508,44.8901367 42.6020508,45.9375 L42.6020508,50 L43.706543,50 L43.706543,45.734375 C43.706543,44.2617188 42.8305664,43.2841797 41.3833008,43.2841797 C40.3803711,43.2841797 39.6567383,43.7158203 39.2885742,44.4521484 L39.2631836,44.4521484 L39.2631836,40.840332 L38.1586914,40.840332 L38.1586914,50 Z M47.7563477,44.2426758 C46.7216797,44.2426758 45.9980469,45.0361328 45.9282227,46.1342773 L49.5146484,46.1342773 C49.4892578,45.0297852 48.7973633,44.2426758 47.7563477,44.2426758 Z M49.4892578,48.1083984 L50.574707,48.1083984 C50.3842773,49.2636719 49.2670898,50.1142578 47.8261719,50.1142578 C45.9345703,50.1142578 44.7856445,48.800293 44.7856445,46.7246094 C44.7856445,44.6743164 45.9536133,43.2841797 47.7753906,43.2841797 C49.559082,43.2841797 50.6572266,44.5791016 50.6572266,46.5786133 L50.6572266,46.9975586 L45.921875,46.9975586 L45.921875,47.0610352 C45.921875,48.3242188 46.6645508,49.1557617 47.8515625,49.1557617 C48.6894531,49.1557617 49.3051758,48.7304688 49.4892578,48.1083984 Z M51.7680664,50 L52.8725586,50 L52.8725586,45.8867188 C52.8725586,44.9536133 53.4311523,44.3378906 54.2880859,44.3378906 C54.5546875,44.3378906 54.7895508,44.3696289 54.878418,44.4013672 L54.878418,43.3286133 C54.7895508,43.315918 54.6245117,43.2841797 54.434082,43.2841797 C53.659668,43.2841797 53.050293,43.7475586 52.8344727,44.4775391 L52.809082,44.4775391 L52.809082,43.3984375 L51.7680664,43.3984375 L51.7680664,50 Z M58.4394531,50 L59.5439453,50 L59.5439453,45.8613281 C59.5439453,44.9472656 60.1787109,44.2617188 61.0546875,44.2617188 C61.8735352,44.2617188 62.4067383,44.7822266 62.4067383,45.5756836 L62.4067383,50 L63.5112305,50 L63.5112305,45.8041992 C63.5112305,44.9091797 64.1269531,44.2617188 65.0029297,44.2617188 C65.8725586,44.2617188 66.3740234,44.7949219 66.3740234,45.6962891 L66.3740234,50 L67.4785156,50 L67.4785156,45.4423828 C67.4785156,44.1347656 66.6342773,43.2841797 65.3266602,43.2841797 C64.3999023,43.2841797 63.6254883,43.7539062 63.2573242,44.5410156 L63.2319336,44.5410156 C62.9462891,43.7412109 62.2797852,43.2841797 61.378418,43.2841797 C60.4897461,43.2841797 59.8168945,43.7539062 59.5058594,44.4521484 L59.4804688,44.4521484 L59.4804688,43.3984375 L58.4394531,43.3984375 L58.4394531,50 Z M71.0585938,49.1748047 C72.0996094,49.1748047 72.8994141,48.4448242 72.8994141,47.4926758 L72.8994141,46.953125 L71.1347656,47.0610352 C70.2460938,47.1181641 69.7382812,47.5117188 69.7382812,48.1337891 C69.7382812,48.762207 70.2651367,49.1748047 71.0585938,49.1748047 Z M70.8110352,50.1142578 C69.4970703,50.1142578 68.6147461,49.3208008 68.6147461,48.1337891 C68.6147461,47.0039062 69.484375,46.2929688 71.0078125,46.2041016 L72.8994141,46.0961914 L72.8994141,45.5439453 C72.8994141,44.737793 72.3662109,44.2553711 71.4521484,44.2553711 C70.6015625,44.2553711 70.0683594,44.6552734 69.9287109,45.3027344 L68.8623047,45.3027344 C68.9384766,44.1601562 69.9160156,43.2841797 71.4775391,43.2841797 C73.0263672,43.2841797 74.0039062,44.1220703 74.0039062,45.4360352 L74.0039062,50 L72.956543,50 L72.956543,48.8637695 L72.9311523,48.8637695 C72.5375977,49.6191406 71.699707,50.1142578 70.8110352,50.1142578 Z M75.4638672,50 L76.5683594,50 L76.5683594,40.840332 L75.4638672,40.840332 L75.4638672,50 Z M86.4580078,43.3984375 L85.3662109,43.3984375 L84.0458984,48.7685547 L84.0205078,48.7685547 L82.5224609,43.3984375 L81.4560547,43.3984375 L79.9643555,48.7685547 L79.9389648,48.7685547 L78.6186523,43.3984375 L77.5205078,43.3984375 L79.3676758,50 L80.4912109,50 L81.9765625,44.8901367 L82.0019531,44.8901367 L83.4936523,50 L84.6171875,50 L86.4580078,43.3984375 Z M89.409668,49.1748047 C90.4506836,49.1748047 91.2504883,48.4448242 91.2504883,47.4926758 L91.2504883,46.953125 L89.4858398,47.0610352 C88.597168,47.1181641 88.0893555,47.5117188 88.0893555,48.1337891 C88.0893555,48.762207 88.6162109,49.1748047 89.409668,49.1748047 Z M89.1621094,50.1142578 C87.8481445,50.1142578 86.9658203,49.3208008 86.9658203,48.1337891 C86.9658203,47.0039062 87.8354492,46.2929688 89.3588867,46.2041016 L91.2504883,46.0961914 L91.2504883,45.5439453 C91.2504883,44.737793 90.7172852,44.2553711 89.8032227,44.2553711 C88.9526367,44.2553711 88.4194336,44.6552734 88.2797852,45.3027344 L87.2133789,45.3027344 C87.2895508,44.1601562 88.2670898,43.2841797 89.8286133,43.2841797 C91.3774414,43.2841797 92.3549805,44.1220703 92.3549805,45.4360352 L92.3549805,50 L91.3076172,50 L91.3076172,48.8637695 L91.2822266,48.8637695 C90.8886719,49.6191406 90.0507812,50.1142578 89.1621094,50.1142578 Z M93.7578125,50 L94.8623047,50 L94.8623047,45.8867188 C94.8623047,44.9536133 95.4208984,44.3378906 96.277832,44.3378906 C96.5444336,44.3378906 96.7792969,44.3696289 96.8681641,44.4013672 L96.8681641,43.3286133 C96.7792969,43.315918 96.6142578,43.2841797 96.4238281,43.2841797 C95.6494141,43.2841797 95.0400391,43.7475586 94.8242188,44.4775391 L94.7988281,44.4775391 L94.7988281,43.3984375 L93.7578125,43.3984375 L93.7578125,50 Z M100.092773,44.2426758 C99.0581055,44.2426758 98.3344727,45.0361328 98.2646484,46.1342773 L101.851074,46.1342773 C101.825684,45.0297852 101.133789,44.2426758 100.092773,44.2426758 Z M101.825684,48.1083984 L102.911133,48.1083984 C102.720703,49.2636719 101.603516,50.1142578 100.162598,50.1142578 C98.2709961,50.1142578 97.1220703,48.800293 97.1220703,46.7246094 C97.1220703,44.6743164 98.2900391,43.2841797 100.111816,43.2841797 C101.895508,43.2841797 102.993652,44.5791016 102.993652,46.5786133 L102.993652,46.9975586 L98.2583008,46.9975586 L98.2583008,47.0610352 C98.2583008,48.3242188 99.0009766,49.1557617 100.187988,49.1557617 C101.025879,49.1557617 101.641602,48.7304688 101.825684,48.1083984 Z M107.125977,41.8051758 L107.125977,43.3984375 L106.14209,43.3984375 L106.14209,44.3061523 L107.125977,44.3061523 L107.125977,48.2861328 C107.125977,49.5556641 107.595703,50.0507812 108.808105,50.0507812 C109.068359,50.0507812 109.373047,50.0317383 109.506348,50 L109.506348,49.0732422 C109.430176,49.0859375 109.17627,49.1049805 109.049316,49.1049805 C108.484375,49.1049805 108.230469,48.8320312 108.230469,48.2290039 L108.230469,44.3061523 L109.512695,44.3061523 L109.512695,43.3984375 L108.230469,43.3984375 L108.230469,41.8051758 L107.125977,41.8051758 Z M110.744141,50 L111.848633,50 L111.848633,46.1533203 C111.848633,45.0107422 112.527832,44.2617188 113.625977,44.2617188 C114.660645,44.2617188 115.1875,44.8901367 115.1875,45.9375 L115.1875,50 L116.291992,50 L116.291992,45.734375 C116.291992,44.2617188 115.416016,43.2841797 113.96875,43.2841797 C112.96582,43.2841797 112.242188,43.7158203 111.874023,44.4521484 L111.848633,44.4521484 L111.848633,40.840332 L110.744141,40.840332 L110.744141,50 Z M119.87207,49.1748047 C120.913086,49.1748047 121.712891,48.4448242 121.712891,47.4926758 L121.712891,46.953125 L119.948242,47.0610352 C119.05957,47.1181641 118.551758,47.5117188 118.551758,48.1337891 C118.551758,48.762207 119.078613,49.1748047 119.87207,49.1748047 Z M119.624512,50.1142578 C118.310547,50.1142578 117.428223,49.3208008 117.428223,48.1337891 C117.428223,47.0039062 118.297852,46.2929688 119.821289,46.2041016 L121.712891,46.0961914 L121.712891,45.5439453 C121.712891,44.737793 121.179688,44.2553711 120.265625,44.2553711 C119.415039,44.2553711 118.881836,44.6552734 118.742188,45.3027344 L117.675781,45.3027344 C117.751953,44.1601562 118.729492,43.2841797 120.291016,43.2841797 C121.839844,43.2841797 122.817383,44.1220703 122.817383,45.4360352 L122.817383,50 L121.77002,50 L121.77002,48.8637695 L121.744629,48.8637695 C121.351074,49.6191406 120.513184,50.1142578 119.624512,50.1142578 Z M124.575684,41.8051758 L124.575684,43.3984375 L123.591797,43.3984375 L123.591797,44.3061523 L124.575684,44.3061523 L124.575684,48.2861328 C124.575684,49.5556641 125.04541,50.0507812 126.257812,50.0507812 C126.518066,50.0507812 126.822754,50.0317383 126.956055,50 L126.956055,49.0732422 C126.879883,49.0859375 126.625977,49.1049805 126.499023,49.1049805 C125.934082,49.1049805 125.680176,48.8320312 125.680176,48.2290039 L125.680176,44.3061523 L126.962402,44.3061523 L126.962402,43.3984375 L125.680176,43.3984375 L125.680176,41.8051758 L124.575684,41.8051758 Z M139.200684,43.3984375 L138.108887,43.3984375 L136.788574,48.7685547 L136.763184,48.7685547 L135.265137,43.3984375 L134.19873,43.3984375 L132.707031,48.7685547 L132.681641,48.7685547 L131.361328,43.3984375 L130.263184,43.3984375 L132.110352,50 L133.233887,50 L134.719238,44.8901367 L134.744629,44.8901367 L136.236328,50 L137.359863,50 L139.200684,43.3984375 Z M140.15918,50 L141.263672,50 L141.263672,43.3984375 L140.15918,43.3984375 L140.15918,50 Z M140.711426,42.2875977 C141.092285,42.2875977 141.40332,41.9765625 141.40332,41.6020508 C141.40332,41.2211914 141.092285,40.9165039 140.711426,40.9165039 C140.336914,40.9165039 140.025879,41.2211914 140.025879,41.6020508 C140.025879,41.9765625 140.336914,42.2875977 140.711426,42.2875977 Z M142.8125,50 L143.916992,50 L143.916992,40.840332 L142.8125,40.840332 L142.8125,50 Z M145.46582,50 L146.570312,50 L146.570312,40.840332 L145.46582,40.840332 L145.46582,50 Z M150.785156,50 L151.889648,50 L151.889648,46.1533203 C151.889648,45.0107422 152.568848,44.2617188 153.666992,44.2617188 C154.70166,44.2617188 155.228516,44.8901367 155.228516,45.9375 L155.228516,50 L156.333008,50 L156.333008,45.734375 C156.333008,44.2617188 155.457031,43.2841797 154.009766,43.2841797 C153.006836,43.2841797 152.283203,43.7158203 151.915039,44.4521484 L151.889648,44.4521484 L151.889648,40.840332 L150.785156,40.840332 L150.785156,50 Z M159.913086,49.1748047 C160.954102,49.1748047 161.753906,48.4448242 161.753906,47.4926758 L161.753906,46.953125 L159.989258,47.0610352 C159.100586,47.1181641 158.592773,47.5117188 158.592773,48.1337891 C158.592773,48.762207 159.119629,49.1748047 159.913086,49.1748047 Z M159.665527,50.1142578 C158.351562,50.1142578 157.469238,49.3208008 157.469238,48.1337891 C157.469238,47.0039062 158.338867,46.2929688 159.862305,46.2041016 L161.753906,46.0961914 L161.753906,45.5439453 C161.753906,44.737793 161.220703,44.2553711 160.306641,44.2553711 C159.456055,44.2553711 158.922852,44.6552734 158.783203,45.3027344 L157.716797,45.3027344 C157.792969,44.1601562 158.770508,43.2841797 160.332031,43.2841797 C161.880859,43.2841797 162.858398,44.1220703 162.858398,45.4360352 L162.858398,50 L161.811035,50 L161.811035,48.8637695 L161.785645,48.8637695 C161.39209,49.6191406 160.554199,50.1142578 159.665527,50.1142578 Z M164.26123,50 L165.365723,50 L165.365723,45.8867188 C165.365723,44.9536133 165.924316,44.3378906 166.78125,44.3378906 C167.047852,44.3378906 167.282715,44.3696289 167.371582,44.4013672 L167.371582,43.3286133 C167.282715,43.315918 167.117676,43.2841797 166.927246,43.2841797 C166.152832,43.2841797 165.543457,43.7475586 165.327637,44.4775391 L165.302246,44.4775391 L165.302246,43.3984375 L164.26123,43.3984375 L164.26123,50 Z M168.266602,50 L169.371094,50 L169.371094,45.8613281 C169.371094,44.9472656 170.005859,44.2617188 170.881836,44.2617188 C171.700684,44.2617188 172.233887,44.7822266 172.233887,45.5756836 L172.233887,50 L173.338379,50 L173.338379,45.8041992 C173.338379,44.9091797 173.954102,44.2617188 174.830078,44.2617188 C175.699707,44.2617188 176.201172,44.7949219 176.201172,45.6962891 L176.201172,50 L177.305664,50 L177.305664,45.4423828 C177.305664,44.1347656 176.461426,43.2841797 175.153809,43.2841797 C174.227051,43.2841797 173.452637,43.7539062 173.084473,44.5410156 L173.059082,44.5410156 C172.773438,43.7412109 172.106934,43.2841797 171.205566,43.2841797 C170.316895,43.2841797 169.644043,43.7539062 169.333008,44.4521484 L169.307617,44.4521484 L169.307617,43.3984375 L168.266602,43.3984375 L168.266602,50 Z M181.92041,52.4692383 C183.11377,52.4692383 183.659668,52.0058594 184.224609,50.4633789 L186.820801,43.3984375 L185.65918,43.3984375 L183.831055,48.8955078 L183.812012,48.8955078 L181.983887,43.3984375 L180.803223,43.3984375 L183.240723,50.0063477 L183.088379,50.4697266 C182.834473,51.237793 182.491699,51.5361328 181.875977,51.5361328 C181.736328,51.5361328 181.564941,51.5297852 181.444336,51.5043945 L181.444336,52.4311523 C181.564941,52.456543 181.787109,52.4692383 181.92041,52.4692383 Z M190.23584,50.1142578 C188.407715,50.1142578 187.17627,48.800293 187.17627,46.6992188 C187.17627,44.5917969 188.407715,43.2841797 190.23584,43.2841797 C192.057617,43.2841797 193.289062,44.5917969 193.289062,46.6992188 C193.289062,48.800293 192.057617,50.1142578 190.23584,50.1142578 Z M190.23584,49.1430664 C191.403809,49.1430664 192.165527,48.2543945 192.165527,46.6992188 C192.165527,45.144043 191.403809,44.2553711 190.23584,44.2553711 C189.067871,44.2553711 188.299805,45.144043 188.299805,46.6992188 C188.299805,48.2543945 189.067871,49.1430664 190.23584,49.1430664 Z M199.820801,43.3984375 L198.716309,43.3984375 L198.716309,47.2768555 C198.716309,48.4003906 198.068848,49.1367188 196.996094,49.1367188 C195.974121,49.1367188 195.472656,48.559082 195.472656,47.4863281 L195.472656,43.3984375 L194.368164,43.3984375 L194.368164,47.6831055 C194.368164,49.1811523 195.212402,50.1142578 196.65332,50.1142578 C197.668945,50.1142578 198.354492,49.6889648 198.748047,48.9272461 L198.773438,48.9272461 L198.773438,50 L199.820801,50 L199.820801,43.3984375 Z M201.249023,50 L202.353516,50 L202.353516,45.8867188 C202.353516,44.9536133 202.912109,44.3378906 203.769043,44.3378906 C204.035645,44.3378906 204.270508,44.3696289 204.359375,44.4013672 L204.359375,43.3286133 C204.270508,43.315918 204.105469,43.2841797 203.915039,43.2841797 C203.140625,43.2841797 202.53125,43.7475586 202.31543,44.4775391 L202.290039,44.4775391 L202.290039,43.3984375 L201.249023,43.3984375 L201.249023,50 Z M213.404785,45.5629883 C213.265137,44.3759766 212.28125,43.2841797 210.630859,43.2841797 C208.809082,43.2841797 207.59668,44.6171875 207.59668,46.6992188 C207.59668,48.8256836 208.81543,50.1142578 210.643555,50.1142578 C212.141602,50.1142578 213.246094,49.1875 213.41748,47.8735352 L212.332031,47.8735352 C212.141602,48.6669922 211.55127,49.1430664 210.649902,49.1430664 C209.507324,49.1430664 208.720215,48.2353516 208.720215,46.6992188 C208.720215,45.2011719 209.494629,44.2553711 210.637207,44.2553711 C211.608398,44.2553711 212.166992,44.8457031 212.325684,45.5629883 L213.404785,45.5629883 Z M217.168945,50.1142578 C215.34082,50.1142578 214.109375,48.800293 214.109375,46.6992188 C214.109375,44.5917969 215.34082,43.2841797 217.168945,43.2841797 C218.990723,43.2841797 220.222168,44.5917969 220.222168,46.6992188 C220.222168,48.800293 218.990723,50.1142578 217.168945,50.1142578 Z M217.168945,49.1430664 C218.336914,49.1430664 219.098633,48.2543945 219.098633,46.6992188 C219.098633,45.144043 218.336914,44.2553711 217.168945,44.2553711 C216.000977,44.2553711 215.23291,45.144043 215.23291,46.6992188 C215.23291,48.2543945 216.000977,49.1430664 217.168945,49.1430664 Z M221.333008,50 L222.4375,50 L222.4375,45.8613281 C222.4375,44.9472656 223.072266,44.2617188 223.948242,44.2617188 C224.76709,44.2617188 225.300293,44.7822266 225.300293,45.5756836 L225.300293,50 L226.404785,50 L226.404785,45.8041992 C226.404785,44.9091797 227.020508,44.2617188 227.896484,44.2617188 C228.766113,44.2617188 229.267578,44.7949219 229.267578,45.6962891 L229.267578,50 L230.37207,50 L230.37207,45.4423828 C230.37207,44.1347656 229.527832,43.2841797 228.220215,43.2841797 C227.293457,43.2841797 226.519043,43.7539062 226.150879,44.5410156 L226.125488,44.5410156 C225.839844,43.7412109 225.17334,43.2841797 224.271973,43.2841797 C223.383301,43.2841797 222.710449,43.7539062 222.399414,44.4521484 L222.374023,44.4521484 L222.374023,43.3984375 L221.333008,43.3984375 L221.333008,50 Z M234.980469,43.2841797 C236.662598,43.2841797 237.805176,44.6298828 237.805176,46.6992188 C237.805176,48.7685547 236.668945,50.1142578 235.005859,50.1142578 C234.060059,50.1142578 233.29834,49.6508789 232.904785,48.9272461 L232.879395,48.9272461 L232.879395,52.2026367 L231.774902,52.2026367 L231.774902,43.3984375 L232.822266,43.3984375 L232.822266,44.515625 L232.847656,44.515625 C233.253906,43.7729492 234.021973,43.2841797 234.980469,43.2841797 Z M234.764648,49.1430664 C235.938965,49.1430664 236.675293,48.1972656 236.675293,46.6992188 C236.675293,45.2075195 235.938965,44.2553711 234.764648,44.2553711 C233.634766,44.2553711 232.873047,45.2329102 232.873047,46.6992188 C232.873047,48.171875 233.634766,49.1430664 234.764648,49.1430664 Z M244.336914,43.3984375 L243.232422,43.3984375 L243.232422,47.2768555 C243.232422,48.4003906 242.584961,49.1367188 241.512207,49.1367188 C240.490234,49.1367188 239.98877,48.559082 239.98877,47.4863281 L239.98877,43.3984375 L238.884277,43.3984375 L238.884277,47.6831055 C238.884277,49.1811523 239.728516,50.1142578 241.169434,50.1142578 C242.185059,50.1142578 242.870605,49.6889648 243.26416,48.9272461 L243.289551,48.9272461 L243.289551,50 L244.336914,50 L244.336914,43.3984375 Z M248.412109,44.2426758 C247.377441,44.2426758 246.653809,45.0361328 246.583984,46.1342773 L250.17041,46.1342773 C250.14502,45.0297852 249.453125,44.2426758 248.412109,44.2426758 Z M250.14502,48.1083984 L251.230469,48.1083984 C251.040039,49.2636719 249.922852,50.1142578 248.481934,50.1142578 C246.590332,50.1142578 245.441406,48.800293 245.441406,46.7246094 C245.441406,44.6743164 246.609375,43.2841797 248.431152,43.2841797 C250.214844,43.2841797 251.312988,44.5791016 251.312988,46.5786133 L251.312988,46.9975586 L246.577637,46.9975586 L246.577637,47.0610352 C246.577637,48.3242188 247.320312,49.1557617 248.507324,49.1557617 C249.345215,49.1557617 249.960938,48.7304688 250.14502,48.1083984 Z M252.423828,50 L253.52832,50 L253.52832,45.8867188 C253.52832,44.9536133 254.086914,44.3378906 254.943848,44.3378906 C255.210449,44.3378906 255.445312,44.3696289 255.53418,44.4013672 L255.53418,43.3286133 C255.445312,43.315918 255.280273,43.2841797 255.089844,43.2841797 C254.31543,43.2841797 253.706055,43.7475586 253.490234,44.4775391 L253.464844,44.4775391 L253.464844,43.3984375 L252.423828,43.3984375 L252.423828,50 Z M256.727539,50.0634766 C257.133789,50.0634766 257.451172,49.7460938 257.451172,49.3398438 C257.451172,48.9335938 257.133789,48.6162109 256.727539,48.6162109 C256.321289,48.6162109 256.003906,48.9335938 256.003906,49.3398438 C256.003906,49.7460938 256.321289,50.0634766 256.727539,50.0634766 Z M-113.44873,80 L-114.591309,80 L-114.591309,76.0581055 L-117.841309,70.840332 L-116.540039,70.840332 L-114.039062,74.9536133 L-114.000977,74.9536133 L-111.5,70.840332 L-110.19873,70.840332 L-113.44873,76.0581055 L-113.44873,80 Z M-107.792969,80.1142578 C-109.621094,80.1142578 -110.852539,78.800293 -110.852539,76.6992188 C-110.852539,74.5917969 -109.621094,73.2841797 -107.792969,73.2841797 C-105.971191,73.2841797 -104.739746,74.5917969 -104.739746,76.6992188 C-104.739746,78.800293 -105.971191,80.1142578 -107.792969,80.1142578 Z M-107.792969,79.1430664 C-106.625,79.1430664 -105.863281,78.2543945 -105.863281,76.6992188 C-105.863281,75.144043 -106.625,74.2553711 -107.792969,74.2553711 C-108.960938,74.2553711 -109.729004,75.144043 -109.729004,76.6992188 C-109.729004,78.2543945 -108.960938,79.1430664 -107.792969,79.1430664 Z M-98.2080078,73.3984375 L-99.3125,73.3984375 L-99.3125,77.2768555 C-99.3125,78.4003906 -99.9599609,79.1367188 -101.032715,79.1367188 C-102.054688,79.1367188 -102.556152,78.559082 -102.556152,77.4863281 L-102.556152,73.3984375 L-103.660645,73.3984375 L-103.660645,77.6831055 C-103.660645,79.1811523 -102.816406,80.1142578 -101.375488,80.1142578 C-100.359863,80.1142578 -99.6743164,79.6889648 -99.2807617,78.9272461 L-99.2553711,78.9272461 L-99.2553711,80 L-98.2080078,80 L-98.2080078,73.3984375 Z M-88.6293945,75.5629883 C-88.769043,74.3759766 -89.7529297,73.2841797 -91.4033203,73.2841797 C-93.2250977,73.2841797 -94.4375,74.6171875 -94.4375,76.6992188 C-94.4375,78.8256836 -93.21875,80.1142578 -91.390625,80.1142578 C-89.8925781,80.1142578 -88.7880859,79.1875 -88.6166992,77.8735352 L-89.7021484,77.8735352 C-89.8925781,78.6669922 -90.4829102,79.1430664 -91.3842773,79.1430664 C-92.5268555,79.1430664 -93.3139648,78.2353516 -93.3139648,76.6992188 C-93.3139648,75.2011719 -92.5395508,74.2553711 -91.3969727,74.2553711 C-90.4257812,74.2553711 -89.8671875,74.8457031 -89.7084961,75.5629883 L-88.6293945,75.5629883 Z M-85.4238281,79.1748047 C-84.3828125,79.1748047 -83.5830078,78.4448242 -83.5830078,77.4926758 L-83.5830078,76.953125 L-85.3476562,77.0610352 C-86.2363281,77.1181641 -86.7441406,77.5117188 -86.7441406,78.1337891 C-86.7441406,78.762207 -86.2172852,79.1748047 -85.4238281,79.1748047 Z M-85.6713867,80.1142578 C-86.9853516,80.1142578 -87.8676758,79.3208008 -87.8676758,78.1337891 C-87.8676758,77.0039063 -86.9980469,76.2929688 -85.4746094,76.2041016 L-83.5830078,76.0961914 L-83.5830078,75.5439453 C-83.5830078,74.737793 -84.1162109,74.2553711 -85.0302734,74.2553711 C-85.8808594,74.2553711 -86.4140625,74.6552734 -86.5537109,75.3027344 L-87.6201172,75.3027344 C-87.5439453,74.1601563 -86.5664062,73.2841797 -85.0048828,73.2841797 C-83.4560547,73.2841797 -82.4785156,74.1220703 -82.4785156,75.4360352 L-82.4785156,80 L-83.5258789,80 L-83.5258789,78.8637695 L-83.5512695,78.8637695 C-83.9448242,79.6191406 -84.7827148,80.1142578 -85.6713867,80.1142578 Z M-81.0756836,80 L-79.9711914,80 L-79.9711914,76.1152344 C-79.9711914,74.9980469 -79.2919922,74.2617188 -78.2509766,74.2617188 C-77.2353516,74.2617188 -76.7338867,74.8457031 -76.7338867,75.9121094 L-76.7338867,80 L-75.6293945,80 L-75.6293945,75.715332 C-75.6293945,74.2172852 -76.4672852,73.2841797 -77.9145508,73.2841797 C-78.9365234,73.2841797 -79.6411133,73.7412109 -80.0092773,74.4521484 L-80.034668,74.4521484 L-80.034668,73.3984375 L-81.0756836,73.3984375 L-81.0756836,80 Z M-71.6748047,75.2202148 C-71.6748047,76.121582 -71.1035156,76.7182617 -69.9418945,77.0166016 L-68.7802734,77.3149414 C-68.0375977,77.5117188 -67.7646484,77.765625 -67.7646484,78.2353516 C-67.7646484,78.8320313 -68.3168945,79.2128906 -69.2119141,79.2128906 C-70.1069336,79.2128906 -70.6274414,78.8447266 -70.7480469,78.1591797 L-71.8525391,78.1591797 C-71.7382812,79.3271484 -70.7290039,80.1142578 -69.2817383,80.1142578 C-67.7392578,80.1142578 -66.6538086,79.3017578 -66.6538086,78.152832 C-66.6538086,77.1816406 -67.1362305,76.6992188 -68.4692383,76.362793 L-69.4912109,76.1152344 C-70.2402344,75.9248047 -70.5893555,75.6201172 -70.5893555,75.1630859 C-70.5893555,74.5854492 -70.0561523,74.1855469 -69.25,74.1855469 C-68.4375,74.1855469 -67.9233398,74.5791016 -67.847168,75.2138672 L-66.793457,75.2138672 C-66.8442383,74.0966797 -67.847168,73.2841797 -69.2119141,73.2841797 C-70.6655273,73.2841797 -71.6748047,74.090332 -71.6748047,75.2202148 Z M-62.8642578,74.2426758 C-63.8989258,74.2426758 -64.6225586,75.0361328 -64.6923828,76.1342773 L-61.105957,76.1342773 C-61.1313477,75.0297852 -61.8232422,74.2426758 -62.8642578,74.2426758 Z M-61.1313477,78.1083984 L-60.0458984,78.1083984 C-60.2363281,79.2636719 -61.3535156,80.1142578 -62.7944336,80.1142578 C-64.6860352,80.1142578 -65.8349609,78.800293 -65.8349609,76.7246094 C-65.8349609,74.6743164 -64.6669922,73.2841797 -62.8452148,73.2841797 C-61.0615234,73.2841797 -59.9633789,74.5791016 -59.9633789,76.5786133 L-59.9633789,76.9975586 L-64.6987305,76.9975586 L-64.6987305,77.0610352 C-64.6987305,78.3242188 -63.9560547,79.1557617 -62.769043,79.1557617 C-61.9311523,79.1557617 -61.3154297,78.7304688 -61.1313477,78.1083984 Z M-56.675293,79.1748047 C-55.6342773,79.1748047 -54.8344727,78.4448242 -54.8344727,77.4926758 L-54.8344727,76.953125 L-56.5991211,77.0610352 C-57.487793,77.1181641 -57.9956055,77.5117188 -57.9956055,78.1337891 C-57.9956055,78.762207 -57.46875,79.1748047 -56.675293,79.1748047 Z M-56.9228516,80.1142578 C-58.2368164,80.1142578 -59.1191406,79.3208008 -59.1191406,78.1337891 C-59.1191406,77.0039063 -58.2495117,76.2929688 -56.7260742,76.2041016 L-54.8344727,76.0961914 L-54.8344727,75.5439453 C-54.8344727,74.737793 -55.3676758,74.2553711 -56.2817383,74.2553711 C-57.1323242,74.2553711 -57.6655273,74.6552734 -57.8051758,75.3027344 L-58.871582,75.3027344 C-58.7954102,74.1601563 -57.8178711,73.2841797 -56.2563477,73.2841797 C-54.7075195,73.2841797 -53.7299805,74.1220703 -53.7299805,75.4360352 L-53.7299805,80 L-54.7773438,80 L-54.7773438,78.8637695 L-54.8027344,78.8637695 C-55.1962891,79.6191406 -56.0341797,80.1142578 -56.9228516,80.1142578 Z M-52.3271484,80 L-51.2226562,80 L-51.2226562,75.8867188 C-51.2226562,74.9536133 -50.6640625,74.3378906 -49.8071289,74.3378906 C-49.5405273,74.3378906 -49.3056641,74.3696289 -49.2167969,74.4013672 L-49.2167969,73.3286133 C-49.3056641,73.315918 -49.4707031,73.2841797 -49.6611328,73.2841797 C-50.4355469,73.2841797 -51.0449219,73.7475586 -51.2607422,74.4775391 L-51.2861328,74.4775391 L-51.2861328,73.3984375 L-52.3271484,73.3984375 L-52.3271484,80 Z M-43.1547852,75.5629883 C-43.2944336,74.3759766 -44.2783203,73.2841797 -45.9287109,73.2841797 C-47.7504883,73.2841797 -48.9628906,74.6171875 -48.9628906,76.6992188 C-48.9628906,78.8256836 -47.7441406,80.1142578 -45.9160156,80.1142578 C-44.4179688,80.1142578 -43.3134766,79.1875 -43.1420898,77.8735352 L-44.2275391,77.8735352 C-44.4179688,78.6669922 -45.0083008,79.1430664 -45.909668,79.1430664 C-47.0522461,79.1430664 -47.8393555,78.2353516 -47.8393555,76.6992188 C-47.8393555,75.2011719 -47.0649414,74.2553711 -45.9223633,74.2553711 C-44.9511719,74.2553711 -44.3925781,74.8457031 -44.2338867,75.5629883 L-43.1547852,75.5629883 Z M-42.0693359,80 L-40.9648438,80 L-40.9648438,76.1533203 C-40.9648438,75.0107422 -40.2856445,74.2617188 -39.1875,74.2617188 C-38.152832,74.2617188 -37.6259766,74.8901367 -37.6259766,75.9375 L-37.6259766,80 L-36.5214844,80 L-36.5214844,75.734375 C-36.5214844,74.2617188 -37.3974609,73.2841797 -38.8447266,73.2841797 C-39.8476562,73.2841797 -40.5712891,73.7158203 -40.9394531,74.4521484 L-40.9648438,74.4521484 L-40.9648438,70.840332 L-42.0693359,70.840332 L-42.0693359,80 Z M-32.097168,80 L-30.9926758,80 L-30.9926758,74.3061523 L-29.6469727,74.3061523 L-29.6469727,73.3984375 L-30.9990234,73.3984375 L-30.9990234,72.668457 C-30.9990234,72.0146484 -30.7133789,71.6972656 -30.1166992,71.6972656 C-29.9326172,71.6972656 -29.7485352,71.7163086 -29.6152344,71.7353516 L-29.6152344,70.840332 C-29.7739258,70.8149414 -30.0405273,70.7895508 -30.2880859,70.7895508 C-31.5068359,70.7895508 -32.097168,71.3925781 -32.097168,72.6621094 L-32.097168,73.3984375 L-33.0175781,73.3984375 L-33.0175781,74.3061523 L-32.097168,74.3061523 L-32.097168,80 Z M-26.0859375,80.1142578 C-27.9140625,80.1142578 -29.1455078,78.800293 -29.1455078,76.6992188 C-29.1455078,74.5917969 -27.9140625,73.2841797 -26.0859375,73.2841797 C-24.2641602,73.2841797 -23.0327148,74.5917969 -23.0327148,76.6992188 C-23.0327148,78.800293 -24.2641602,80.1142578 -26.0859375,80.1142578 Z M-26.0859375,79.1430664 C-24.9179688,79.1430664 -24.15625,78.2543945 -24.15625,76.6992188 C-24.15625,75.144043 -24.9179688,74.2553711 -26.0859375,74.2553711 C-27.2539062,74.2553711 -28.0219727,75.144043 -28.0219727,76.6992188 C-28.0219727,78.2543945 -27.2539062,79.1430664 -26.0859375,79.1430664 Z M-21.921875,80 L-20.8173828,80 L-20.8173828,75.8867188 C-20.8173828,74.9536133 -20.2587891,74.3378906 -19.4018555,74.3378906 C-19.1352539,74.3378906 -18.9003906,74.3696289 -18.8115234,74.4013672 L-18.8115234,73.3286133 C-18.9003906,73.315918 -19.0654297,73.2841797 -19.2558594,73.2841797 C-20.0302734,73.2841797 -20.6396484,73.7475586 -20.8554688,74.4775391 L-20.8808594,74.4775391 L-20.8808594,73.3984375 L-21.921875,73.3984375 L-21.921875,80 Z M-13.0732422,79.1748047 C-12.0322266,79.1748047 -11.2324219,78.4448242 -11.2324219,77.4926758 L-11.2324219,76.953125 L-12.9970703,77.0610352 C-13.8857422,77.1181641 -14.3935547,77.5117188 -14.3935547,78.1337891 C-14.3935547,78.762207 -13.8666992,79.1748047 -13.0732422,79.1748047 Z M-13.3208008,80.1142578 C-14.6347656,80.1142578 -15.5170898,79.3208008 -15.5170898,78.1337891 C-15.5170898,77.0039063 -14.6474609,76.2929688 -13.1240234,76.2041016 L-11.2324219,76.0961914 L-11.2324219,75.5439453 C-11.2324219,74.737793 -11.765625,74.2553711 -12.6796875,74.2553711 C-13.5302734,74.2553711 -14.0634766,74.6552734 -14.203125,75.3027344 L-15.2695312,75.3027344 C-15.1933594,74.1601563 -14.2158203,73.2841797 -12.6542969,73.2841797 C-11.1054688,73.2841797 -10.1279297,74.1220703 -10.1279297,75.4360352 L-10.1279297,80 L-11.175293,80 L-11.175293,78.8637695 L-11.2006836,78.8637695 C-11.5942383,79.6191406 -12.4321289,80.1142578 -13.3208008,80.1142578 Z M-8.72509766,80 L-7.62060547,80 L-7.62060547,76.1152344 C-7.62060547,74.9980469 -6.94140625,74.2617188 -5.90039062,74.2617188 C-4.88476562,74.2617188 -4.38330078,74.8457031 -4.38330078,75.9121094 L-4.38330078,80 L-3.27880859,80 L-3.27880859,75.715332 C-3.27880859,74.2172852 -4.11669922,73.2841797 -5.56396484,73.2841797 C-6.5859375,73.2841797 -7.29052734,73.7412109 -7.65869141,74.4521484 L-7.68408203,74.4521484 L-7.68408203,73.3984375 L-8.72509766,73.3984375 L-8.72509766,80 Z M2.96728516,79.1748047 C4.00830078,79.1748047 4.80810547,78.4448242 4.80810547,77.4926758 L4.80810547,76.953125 L3.04345703,77.0610352 C2.15478516,77.1181641 1.64697266,77.5117188 1.64697266,78.1337891 C1.64697266,78.762207 2.17382812,79.1748047 2.96728516,79.1748047 Z M2.71972656,80.1142578 C1.40576172,80.1142578 0.5234375,79.3208008 0.5234375,78.1337891 C0.5234375,77.0039063 1.39306641,76.2929688 2.91650391,76.2041016 L4.80810547,76.0961914 L4.80810547,75.5439453 C4.80810547,74.737793 4.27490234,74.2553711 3.36083984,74.2553711 C2.51025391,74.2553711 1.97705078,74.6552734 1.83740234,75.3027344 L0.770996094,75.3027344 C0.847167969,74.1601563 1.82470703,73.2841797 3.38623047,73.2841797 C4.93505859,73.2841797 5.91259766,74.1220703 5.91259766,75.4360352 L5.91259766,80 L4.86523438,80 L4.86523438,78.8637695 L4.83984375,78.8637695 C4.44628906,79.6191406 3.60839844,80.1142578 2.71972656,80.1142578 Z M7.37255859,80 L8.47705078,80 L8.47705078,70.840332 L7.37255859,70.840332 L7.37255859,80 Z M10.3242188,71.8051758 L10.3242188,73.3984375 L9.34033203,73.3984375 L9.34033203,74.3061523 L10.3242188,74.3061523 L10.3242188,78.2861328 C10.3242188,79.5556641 10.7939453,80.0507812 12.0063477,80.0507812 C12.2666016,80.0507812 12.5712891,80.0317383 12.7045898,80 L12.7045898,79.0732422 C12.628418,79.0859375 12.3745117,79.1049805 12.2475586,79.1049805 C11.6826172,79.1049805 11.4287109,78.8320312 11.4287109,78.2290039 L11.4287109,74.3061523 L12.7109375,74.3061523 L12.7109375,73.3984375 L11.4287109,73.3984375 L11.4287109,71.8051758 L10.3242188,71.8051758 Z M16.3417969,74.2426758 C15.3071289,74.2426758 14.5834961,75.0361328 14.5136719,76.1342773 L18.1000977,76.1342773 C18.074707,75.0297852 17.3828125,74.2426758 16.3417969,74.2426758 Z M18.074707,78.1083984 L19.1601562,78.1083984 C18.9697266,79.2636719 17.8525391,80.1142578 16.4116211,80.1142578 C14.5200195,80.1142578 13.3710938,78.800293 13.3710938,76.7246094 C13.3710938,74.6743164 14.5390625,73.2841797 16.3608398,73.2841797 C18.1445312,73.2841797 19.2426758,74.5791016 19.2426758,76.5786133 L19.2426758,76.9975586 L14.5073242,76.9975586 L14.5073242,77.0610352 C14.5073242,78.3242188 15.25,79.1557617 16.4370117,79.1557617 C17.2749023,79.1557617 17.890625,78.7304688 18.074707,78.1083984 Z M20.3535156,80 L21.4580078,80 L21.4580078,75.8867188 C21.4580078,74.9536133 22.0166016,74.3378906 22.8735352,74.3378906 C23.1401367,74.3378906 23.375,74.3696289 23.4638672,74.4013672 L23.4638672,73.3286133 C23.375,73.315918 23.2099609,73.2841797 23.0195312,73.2841797 C22.2451172,73.2841797 21.6357422,73.7475586 21.4199219,74.4775391 L21.3945312,74.4775391 L21.3945312,73.3984375 L20.3535156,73.3984375 L20.3535156,80 Z M24.3588867,80 L25.4633789,80 L25.4633789,76.1152344 C25.4633789,74.9980469 26.1425781,74.2617188 27.1835938,74.2617188 C28.1992188,74.2617188 28.7006836,74.8457031 28.7006836,75.9121094 L28.7006836,80 L29.8051758,80 L29.8051758,75.715332 C29.8051758,74.2172852 28.9672852,73.2841797 27.5200195,73.2841797 C26.4980469,73.2841797 25.793457,73.7412109 25.425293,74.4521484 L25.3999023,74.4521484 L25.3999023,73.3984375 L24.3588867,73.3984375 L24.3588867,80 Z M33.3852539,79.1748047 C34.4262695,79.1748047 35.2260742,78.4448242 35.2260742,77.4926758 L35.2260742,76.953125 L33.4614258,77.0610352 C32.5727539,77.1181641 32.0649414,77.5117188 32.0649414,78.1337891 C32.0649414,78.762207 32.5917969,79.1748047 33.3852539,79.1748047 Z M33.1376953,80.1142578 C31.8237305,80.1142578 30.9414062,79.3208008 30.9414062,78.1337891 C30.9414062,77.0039063 31.8110352,76.2929688 33.3344727,76.2041016 L35.2260742,76.0961914 L35.2260742,75.5439453 C35.2260742,74.737793 34.6928711,74.2553711 33.7788086,74.2553711 C32.9282227,74.2553711 32.3950195,74.6552734 32.2553711,75.3027344 L31.1889648,75.3027344 C31.2651367,74.1601563 32.2426758,73.2841797 33.8041992,73.2841797 C35.3530273,73.2841797 36.3305664,74.1220703 36.3305664,75.4360352 L36.3305664,80 L35.2832031,80 L35.2832031,78.8637695 L35.2578125,78.8637695 C34.8642578,79.6191406 34.0263672,80.1142578 33.1376953,80.1142578 Z M38.0888672,71.8051758 L38.0888672,73.3984375 L37.1049805,73.3984375 L37.1049805,74.3061523 L38.0888672,74.3061523 L38.0888672,78.2861328 C38.0888672,79.5556641 38.5585938,80.0507812 39.7709961,80.0507812 C40.03125,80.0507812 40.3359375,80.0317383 40.4692383,80 L40.4692383,79.0732422 C40.3930664,79.0859375 40.1391602,79.1049805 40.012207,79.1049805 C39.4472656,79.1049805 39.1933594,78.8320312 39.1933594,78.2290039 L39.1933594,74.3061523 L40.4755859,74.3061523 L40.4755859,73.3984375 L39.1933594,73.3984375 L39.1933594,71.8051758 L38.0888672,71.8051758 Z M44.1064453,74.2426758 C43.0717773,74.2426758 42.3481445,75.0361328 42.2783203,76.1342773 L45.8647461,76.1342773 C45.8393555,75.0297852 45.1474609,74.2426758 44.1064453,74.2426758 Z M45.8393555,78.1083984 L46.9248047,78.1083984 C46.734375,79.2636719 45.6171875,80.1142578 44.1762695,80.1142578 C42.284668,80.1142578 41.1357422,78.800293 41.1357422,76.7246094 C41.1357422,74.6743164 42.3037109,73.2841797 44.1254883,73.2841797 C45.9091797,73.2841797 47.0073242,74.5791016 47.0073242,76.5786133 L47.0073242,76.9975586 L42.2719727,76.9975586 L42.2719727,77.0610352 C42.2719727,78.3242188 43.0146484,79.1557617 44.2016602,79.1557617 C45.0395508,79.1557617 45.6552734,78.7304688 45.8393555,78.1083984 Z M53.2851562,80.1142578 C51.6030273,80.1142578 50.4604492,78.7685547 50.4604492,76.6992188 C50.4604492,74.6298828 51.5966797,73.2841797 53.2597656,73.2841797 C54.2055664,73.2841797 54.9672852,73.7475586 55.3608398,74.4711914 L55.3862305,74.4711914 L55.3862305,70.840332 L56.4907227,70.840332 L56.4907227,80 L55.4370117,80 L55.4370117,78.8828125 L55.4179688,78.8828125 C54.9926758,79.6445312 54.2373047,80.1142578 53.2851562,80.1142578 Z M53.4946289,74.2553711 C52.3266602,74.2553711 51.590332,75.2075195 51.590332,76.6992188 C51.590332,78.1972656 52.3266602,79.1430664 53.4946289,79.1430664 C54.6308594,79.1430664 55.3925781,78.1782227 55.3925781,76.6992188 C55.3925781,75.2265625 54.6308594,74.2553711 53.4946289,74.2553711 Z M60.7182617,80.1142578 C58.8901367,80.1142578 57.6586914,78.800293 57.6586914,76.6992188 C57.6586914,74.5917969 58.8901367,73.2841797 60.7182617,73.2841797 C62.5400391,73.2841797 63.7714844,74.5917969 63.7714844,76.6992188 C63.7714844,78.800293 62.5400391,80.1142578 60.7182617,80.1142578 Z M60.7182617,79.1430664 C61.8862305,79.1430664 62.6479492,78.2543945 62.6479492,76.6992188 C62.6479492,75.144043 61.8862305,74.2553711 60.7182617,74.2553711 C59.550293,74.2553711 58.7822266,75.144043 58.7822266,76.6992188 C58.7822266,78.2543945 59.550293,79.1430664 60.7182617,79.1430664 Z M73.2802734,73.3984375 L72.1884766,73.3984375 L70.8681641,78.7685547 L70.8427734,78.7685547 L69.3447266,73.3984375 L68.2783203,73.3984375 L66.7866211,78.7685547 L66.7612305,78.7685547 L65.440918,73.3984375 L64.3427734,73.3984375 L66.1899414,80 L67.3134766,80 L68.7988281,74.8901367 L68.8242188,74.8901367 L70.315918,80 L71.4394531,80 L73.2802734,73.3984375 Z M74.1816406,80 L75.2861328,80 L75.2861328,76.1152344 C75.2861328,74.9980469 75.965332,74.2617188 77.0063477,74.2617188 C78.0219727,74.2617188 78.5234375,74.8457031 78.5234375,75.9121094 L78.5234375,80 L79.6279297,80 L79.6279297,75.715332 C79.6279297,74.2172852 78.7900391,73.2841797 77.3427734,73.2841797 C76.3208008,73.2841797 75.6162109,73.7412109 75.2480469,74.4521484 L75.2226562,74.4521484 L75.2226562,73.3984375 L74.1816406,73.3984375 L74.1816406,80 Z M81.0878906,80 L82.1923828,80 L82.1923828,70.840332 L81.0878906,70.840332 L81.0878906,80 Z M86.4199219,80.1142578 C84.5917969,80.1142578 83.3603516,78.800293 83.3603516,76.6992188 C83.3603516,74.5917969 84.5917969,73.2841797 86.4199219,73.2841797 C88.2416992,73.2841797 89.4731445,74.5917969 89.4731445,76.6992188 C89.4731445,78.800293 88.2416992,80.1142578 86.4199219,80.1142578 Z M86.4199219,79.1430664 C87.5878906,79.1430664 88.3496094,78.2543945 88.3496094,76.6992188 C88.3496094,75.144043 87.5878906,74.2553711 86.4199219,74.2553711 C85.2519531,74.2553711 84.4838867,75.144043 84.4838867,76.6992188 C84.4838867,78.2543945 85.2519531,79.1430664 86.4199219,79.1430664 Z M92.7612305,79.1748047 C93.8022461,79.1748047 94.6020508,78.4448242 94.6020508,77.4926758 L94.6020508,76.953125 L92.8374023,77.0610352 C91.9487305,77.1181641 91.440918,77.5117188 91.440918,78.1337891 C91.440918,78.762207 91.9677734,79.1748047 92.7612305,79.1748047 Z M92.5136719,80.1142578 C91.199707,80.1142578 90.3173828,79.3208008 90.3173828,78.1337891 C90.3173828,77.0039063 91.1870117,76.2929688 92.7104492,76.2041016 L94.6020508,76.0961914 L94.6020508,75.5439453 C94.6020508,74.737793 94.0688477,74.2553711 93.1547852,74.2553711 C92.3041992,74.2553711 91.7709961,74.6552734 91.6313477,75.3027344 L90.5649414,75.3027344 C90.6411133,74.1601563 91.6186523,73.2841797 93.1801758,73.2841797 C94.7290039,73.2841797 95.706543,74.1220703 95.706543,75.4360352 L95.706543,80 L94.6591797,80 L94.6591797,78.8637695 L94.6337891,78.8637695 C94.2402344,79.6191406 93.4023438,80.1142578 92.5136719,80.1142578 Z M99.6103516,80.1142578 C97.9282227,80.1142578 96.7856445,78.7685547 96.7856445,76.6992188 C96.7856445,74.6298828 97.921875,73.2841797 99.5849609,73.2841797 C100.530762,73.2841797 101.29248,73.7475586 101.686035,74.4711914 L101.711426,74.4711914 L101.711426,70.840332 L102.815918,70.840332 L102.815918,80 L101.762207,80 L101.762207,78.8828125 L101.743164,78.8828125 C101.317871,79.6445312 100.5625,80.1142578 99.6103516,80.1142578 Z M99.8198242,74.2553711 C98.6518555,74.2553711 97.9155273,75.2075195 97.9155273,76.6992188 C97.9155273,78.1972656 98.6518555,79.1430664 99.8198242,79.1430664 C100.956055,79.1430664 101.717773,78.1782227 101.717773,76.6992188 C101.717773,75.2265625 100.956055,74.2553711 99.8198242,74.2553711 Z M106.859375,75.2202148 C106.859375,76.121582 107.430664,76.7182617 108.592285,77.0166016 L109.753906,77.3149414 C110.496582,77.5117188 110.769531,77.765625 110.769531,78.2353516 C110.769531,78.8320313 110.217285,79.2128906 109.322266,79.2128906 C108.427246,79.2128906 107.906738,78.8447266 107.786133,78.1591797 L106.681641,78.1591797 C106.795898,79.3271484 107.805176,80.1142578 109.252441,80.1142578 C110.794922,80.1142578 111.880371,79.3017578 111.880371,78.152832 C111.880371,77.1816406 111.397949,76.6992188 110.064941,76.362793 L109.042969,76.1152344 C108.293945,75.9248047 107.944824,75.6201172 107.944824,75.1630859 C107.944824,74.5854492 108.478027,74.1855469 109.28418,74.1855469 C110.09668,74.1855469 110.61084,74.5791016 110.687012,75.2138672 L111.740723,75.2138672 C111.689941,74.0966797 110.687012,73.2841797 109.322266,73.2841797 C107.868652,73.2841797 106.859375,74.090332 106.859375,75.2202148 Z M115.758789,80.1142578 C113.930664,80.1142578 112.699219,78.800293 112.699219,76.6992188 C112.699219,74.5917969 113.930664,73.2841797 115.758789,73.2841797 C117.580566,73.2841797 118.812012,74.5917969 118.812012,76.6992188 C118.812012,78.800293 117.580566,80.1142578 115.758789,80.1142578 Z M115.758789,79.1430664 C116.926758,79.1430664 117.688477,78.2543945 117.688477,76.6992188 C117.688477,75.144043 116.926758,74.2553711 115.758789,74.2553711 C114.59082,74.2553711 113.822754,75.144043 113.822754,76.6992188 C113.822754,78.2543945 114.59082,79.1430664 115.758789,79.1430664 Z M125.34375,73.3984375 L124.239258,73.3984375 L124.239258,77.2768555 C124.239258,78.4003906 123.591797,79.1367188 122.519043,79.1367188 C121.49707,79.1367188 120.995605,78.559082 120.995605,77.4863281 L120.995605,73.3984375 L119.891113,73.3984375 L119.891113,77.6831055 C119.891113,79.1811523 120.735352,80.1142578 122.17627,80.1142578 C123.191895,80.1142578 123.877441,79.6889648 124.270996,78.9272461 L124.296387,78.9272461 L124.296387,80 L125.34375,80 L125.34375,73.3984375 Z M126.771973,80 L127.876465,80 L127.876465,75.8867188 C127.876465,74.9536133 128.435059,74.3378906 129.291992,74.3378906 C129.558594,74.3378906 129.793457,74.3696289 129.882324,74.4013672 L129.882324,73.3286133 C129.793457,73.315918 129.628418,73.2841797 129.437988,73.2841797 C128.663574,73.2841797 128.054199,73.7475586 127.838379,74.4775391 L127.812988,74.4775391 L127.812988,73.3984375 L126.771973,73.3984375 L126.771973,80 Z M135.944336,75.5629883 C135.804688,74.3759766 134.820801,73.2841797 133.17041,73.2841797 C131.348633,73.2841797 130.13623,74.6171875 130.13623,76.6992188 C130.13623,78.8256836 131.35498,80.1142578 133.183105,80.1142578 C134.681152,80.1142578 135.785645,79.1875 135.957031,77.8735352 L134.871582,77.8735352 C134.681152,78.6669922 134.09082,79.1430664 133.189453,79.1430664 C132.046875,79.1430664 131.259766,78.2353516 131.259766,76.6992188 C131.259766,75.2011719 132.03418,74.2553711 133.176758,74.2553711 C134.147949,74.2553711 134.706543,74.8457031 134.865234,75.5629883 L135.944336,75.5629883 Z M139.619629,74.2426758 C138.584961,74.2426758 137.861328,75.0361328 137.791504,76.1342773 L141.37793,76.1342773 C141.352539,75.0297852 140.660645,74.2426758 139.619629,74.2426758 Z M141.352539,78.1083984 L142.437988,78.1083984 C142.247559,79.2636719 141.130371,80.1142578 139.689453,80.1142578 C137.797852,80.1142578 136.648926,78.800293 136.648926,76.7246094 C136.648926,74.6743164 137.816895,73.2841797 139.638672,73.2841797 C141.422363,73.2841797 142.520508,74.5791016 142.520508,76.5786133 L142.520508,76.9975586 L137.785156,76.9975586 L137.785156,77.0610352 C137.785156,78.3242188 138.527832,79.1557617 139.714844,79.1557617 C140.552734,79.1557617 141.168457,78.7304688 141.352539,78.1083984 Z M149.033203,80.1142578 C147.205078,80.1142578 145.973633,78.800293 145.973633,76.6992188 C145.973633,74.5917969 147.205078,73.2841797 149.033203,73.2841797 C150.85498,73.2841797 152.086426,74.5917969 152.086426,76.6992188 C152.086426,78.800293 150.85498,80.1142578 149.033203,80.1142578 Z M149.033203,79.1430664 C150.201172,79.1430664 150.962891,78.2543945 150.962891,76.6992188 C150.962891,75.144043 150.201172,74.2553711 149.033203,74.2553711 C147.865234,74.2553711 147.097168,75.144043 147.097168,76.6992188 C147.097168,78.2543945 147.865234,79.1430664 149.033203,79.1430664 Z M153.197266,80 L154.301758,80 L154.301758,75.8867188 C154.301758,74.9536133 154.860352,74.3378906 155.717285,74.3378906 C155.983887,74.3378906 156.21875,74.3696289 156.307617,74.4013672 L156.307617,73.3286133 C156.21875,73.315918 156.053711,73.2841797 155.863281,73.2841797 C155.088867,73.2841797 154.479492,73.7475586 154.263672,74.4775391 L154.238281,74.4775391 L154.238281,73.3984375 L153.197266,73.3984375 L153.197266,80 Z M160.224121,71.8051758 L160.224121,73.3984375 L159.240234,73.3984375 L159.240234,74.3061523 L160.224121,74.3061523 L160.224121,78.2861328 C160.224121,79.5556641 160.693848,80.0507812 161.90625,80.0507812 C162.166504,80.0507812 162.471191,80.0317383 162.604492,80 L162.604492,79.0732422 C162.52832,79.0859375 162.274414,79.1049805 162.147461,79.1049805 C161.58252,79.1049805 161.328613,78.8320312 161.328613,78.2290039 L161.328613,74.3061523 L162.61084,74.3061523 L162.61084,73.3984375 L161.328613,73.3984375 L161.328613,71.8051758 L160.224121,71.8051758 Z M163.785156,80 L164.889648,80 L164.889648,75.8867188 C164.889648,74.9536133 165.448242,74.3378906 166.305176,74.3378906 C166.571777,74.3378906 166.806641,74.3696289 166.895508,74.4013672 L166.895508,73.3286133 C166.806641,73.315918 166.641602,73.2841797 166.451172,73.2841797 C165.676758,73.2841797 165.067383,73.7475586 164.851562,74.4775391 L164.826172,74.4775391 L164.826172,73.3984375 L163.785156,73.3984375 L163.785156,80 Z M168.336426,82.4692383 C169.529785,82.4692383 170.075684,82.0058594 170.640625,80.4633789 L173.236816,73.3984375 L172.075195,73.3984375 L170.24707,78.8955078 L170.228027,78.8955078 L168.399902,73.3984375 L167.219238,73.3984375 L169.656738,80.0063477 L169.504395,80.4697266 C169.250488,81.237793 168.907715,81.5361328 168.291992,81.5361328 C168.152344,81.5361328 167.980957,81.5297852 167.860352,81.5043945 L167.860352,82.4311523 C167.980957,82.456543 168.203125,82.4692383 168.336426,82.4692383 Z M178.949707,79.1748047 C179.990723,79.1748047 180.790527,78.4448242 180.790527,77.4926758 L180.790527,76.953125 L179.025879,77.0610352 C178.137207,77.1181641 177.629395,77.5117188 177.629395,78.1337891 C177.629395,78.762207 178.15625,79.1748047 178.949707,79.1748047 Z M178.702148,80.1142578 C177.388184,80.1142578 176.505859,79.3208008 176.505859,78.1337891 C176.505859,77.0039063 177.375488,76.2929688 178.898926,76.2041016 L180.790527,76.0961914 L180.790527,75.5439453 C180.790527,74.737793 180.257324,74.2553711 179.343262,74.2553711 C178.492676,74.2553711 177.959473,74.6552734 177.819824,75.3027344 L176.753418,75.3027344 C176.82959,74.1601563 177.807129,73.2841797 179.368652,73.2841797 C180.91748,73.2841797 181.89502,74.1220703 181.89502,75.4360352 L181.89502,80 L180.847656,80 L180.847656,78.8637695 L180.822266,78.8637695 C180.428711,79.6191406 179.59082,80.1142578 178.702148,80.1142578 Z M185.98291,79.0795898 C187.131836,79.0795898 187.899902,78.1274414 187.899902,76.6738281 C187.899902,75.2202148 187.131836,74.2553711 185.98291,74.2553711 C184.84668,74.2553711 184.104004,75.1948242 184.104004,76.6738281 C184.104004,78.152832 184.84668,79.0795898 185.98291,79.0795898 Z M186.020996,82.4882813 C184.567383,82.4882813 183.418457,81.6694336 183.234375,80.5458984 L184.370605,80.5458984 C184.586426,81.1489258 185.240234,81.5488281 186.06543,81.5488281 C187.208008,81.5488281 187.899902,80.8886719 187.899902,79.9047852 L187.899902,78.8637695 L187.874512,78.8637695 C187.468262,79.5810547 186.6875,80.0507813 185.760742,80.0507813 C184.078613,80.0507813 182.974121,78.7241211 182.974121,76.6738281 C182.974121,74.6044922 184.078613,73.2841797 185.786133,73.2841797 C186.719238,73.2841797 187.493652,73.7412109 187.931641,74.5092773 L187.950684,74.5092773 L187.950684,73.3984375 L189.004395,73.3984375 L189.004395,79.8666992 C189.004395,81.440918 187.842773,82.4882813 186.020996,82.4882813 Z M192.616211,79.1748047 C193.657227,79.1748047 194.457031,78.4448242 194.457031,77.4926758 L194.457031,76.953125 L192.692383,77.0610352 C191.803711,77.1181641 191.295898,77.5117188 191.295898,78.1337891 C191.295898,78.762207 191.822754,79.1748047 192.616211,79.1748047 Z M192.368652,80.1142578 C191.054688,80.1142578 190.172363,79.3208008 190.172363,78.1337891 C190.172363,77.0039063 191.041992,76.2929688 192.56543,76.2041016 L194.457031,76.0961914 L194.457031,75.5439453 C194.457031,74.737793 193.923828,74.2553711 193.009766,74.2553711 C192.15918,74.2553711 191.625977,74.6552734 191.486328,75.3027344 L190.419922,75.3027344 C190.496094,74.1601563 191.473633,73.2841797 193.035156,73.2841797 C194.583984,73.2841797 195.561523,74.1220703 195.561523,75.4360352 L195.561523,80 L194.51416,80 L194.51416,78.8637695 L194.48877,78.8637695 C194.095215,79.6191406 193.257324,80.1142578 192.368652,80.1142578 Z M197.021484,80 L198.125977,80 L198.125977,73.3984375 L197.021484,73.3984375 L197.021484,80 Z M197.57373,72.2875977 C197.95459,72.2875977 198.265625,71.9765625 198.265625,71.6020508 C198.265625,71.2211914 197.95459,70.9165039 197.57373,70.9165039 C197.199219,70.9165039 196.888184,71.2211914 196.888184,71.6020508 C196.888184,71.9765625 197.199219,72.2875977 197.57373,72.2875977 Z M199.617676,80 L200.722168,80 L200.722168,76.1152344 C200.722168,74.9980469 201.401367,74.2617188 202.442383,74.2617188 C203.458008,74.2617188 203.959473,74.8457031 203.959473,75.9121094 L203.959473,80 L205.063965,80 L205.063965,75.715332 C205.063965,74.2172852 204.226074,73.2841797 202.778809,73.2841797 C201.756836,73.2841797 201.052246,73.7412109 200.684082,74.4521484 L200.658691,74.4521484 L200.658691,73.3984375 L199.617676,73.3984375 L199.617676,80 Z M209.189941,80 L210.294434,80 L210.294434,70.840332 L209.189941,70.840332 L209.189941,80 Z M213.963379,79.1748047 C215.004395,79.1748047 215.804199,78.4448242 215.804199,77.4926758 L215.804199,76.953125 L214.039551,77.0610352 C213.150879,77.1181641 212.643066,77.5117188 212.643066,78.1337891 C212.643066,78.762207 213.169922,79.1748047 213.963379,79.1748047 Z M213.71582,80.1142578 C212.401855,80.1142578 211.519531,79.3208008 211.519531,78.1337891 C211.519531,77.0039063 212.38916,76.2929688 213.912598,76.2041016 L215.804199,76.0961914 L215.804199,75.5439453 C215.804199,74.737793 215.270996,74.2553711 214.356934,74.2553711 C213.506348,74.2553711 212.973145,74.6552734 212.833496,75.3027344 L211.76709,75.3027344 C211.843262,74.1601563 212.820801,73.2841797 214.382324,73.2841797 C215.931152,73.2841797 216.908691,74.1220703 216.908691,75.4360352 L216.908691,80 L215.861328,80 L215.861328,78.8637695 L215.835938,78.8637695 C215.442383,79.6191406 214.604492,80.1142578 213.71582,80.1142578 Z M218.666992,71.8051758 L218.666992,73.3984375 L217.683105,73.3984375 L217.683105,74.3061523 L218.666992,74.3061523 L218.666992,78.2861328 C218.666992,79.5556641 219.136719,80.0507812 220.349121,80.0507812 C220.609375,80.0507812 220.914062,80.0317383 221.047363,80 L221.047363,79.0732422 C220.971191,79.0859375 220.717285,79.1049805 220.590332,79.1049805 C220.025391,79.1049805 219.771484,78.8320312 219.771484,78.2290039 L219.771484,74.3061523 L221.053711,74.3061523 L221.053711,73.3984375 L219.771484,73.3984375 L219.771484,71.8051758 L218.666992,71.8051758 Z M224.68457,74.2426758 C223.649902,74.2426758 222.92627,75.0361328 222.856445,76.1342773 L226.442871,76.1342773 C226.41748,75.0297852 225.725586,74.2426758 224.68457,74.2426758 Z M226.41748,78.1083984 L227.50293,78.1083984 C227.3125,79.2636719 226.195312,80.1142578 224.754395,80.1142578 C222.862793,80.1142578 221.713867,78.800293 221.713867,76.7246094 C221.713867,74.6743164 222.881836,73.2841797 224.703613,73.2841797 C226.487305,73.2841797 227.585449,74.5791016 227.585449,76.5786133 L227.585449,76.9975586 L222.850098,76.9975586 L222.850098,77.0610352 C222.850098,78.3242188 223.592773,79.1557617 224.779785,79.1557617 C225.617676,79.1557617 226.233398,78.7304688 226.41748,78.1083984 Z M228.696289,80 L229.800781,80 L229.800781,75.8867188 C229.800781,74.9536133 230.359375,74.3378906 231.216309,74.3378906 C231.48291,74.3378906 231.717773,74.3696289 231.806641,74.4013672 L231.806641,73.3286133 C231.717773,73.315918 231.552734,73.2841797 231.362305,73.2841797 C230.587891,73.2841797 229.978516,73.7475586 229.762695,74.4775391 L229.737305,74.4775391 L229.737305,73.3984375 L228.696289,73.3984375 L228.696289,80 Z M233,80.0634766 C233.40625,80.0634766 233.723633,79.7460938 233.723633,79.3398438 C233.723633,78.9335938 233.40625,78.6162109 233,78.6162109 C232.59375,78.6162109 232.276367,78.9335938 232.276367,79.3398438 C232.276367,79.7460938 232.59375,80.0634766 233,80.0634766 Z"/>
  </g>
</svg>
