<svg xmlns="http://www.w3.org/2000/svg" width="300" height="180" style="background:#f9f9fa" viewBox="0 0 300 180">
  <g fill="#0C0C0D" fill-rule="evenodd">
    <rect width="132" height="32" x="84" y="74" fill-opacity=".1" rx="2"/>
    <path d="M108.303955,86.0336914 L108.303955,89.328125 L110.297119,89.328125 C111.395264,89.328125 112.023682,88.7250977 112.023682,87.6777344 C112.023682,86.6557617 111.357178,86.0336914 110.259033,86.0336914 L108.303955,86.0336914 Z M108.303955,90.4770508 L108.303955,94 L106.88208,94 L106.88208,84.840332 L110.43042,84.840332 C112.315674,84.840332 113.48999,85.9321289 113.48999,87.6396484 C113.48999,88.8774414 112.829834,89.8803711 111.712646,90.2548828 L113.762939,94 L112.125244,94 L110.259033,90.4770508 L108.303955,90.4770508 Z M117.463623,88.3061523 C116.505127,88.3061523 115.832275,89.0361328 115.762451,90.0454102 L119.101318,90.0454102 C119.06958,89.0234375 118.422119,88.3061523 117.463623,88.3061523 Z M119.094971,92.0385742 L120.39624,92.0385742 C120.205811,93.2573242 119.050537,94.1269531 117.520752,94.1269531 C115.559326,94.1269531 114.372314,92.800293 114.372314,90.6928711 C114.372314,88.5981445 115.578369,87.2016602 117.463623,87.2016602 C119.317139,87.2016602 120.472412,88.5092773 120.472412,90.5341797 L120.472412,91.0039062 L115.756104,91.0039062 L115.756104,91.0864258 C115.756104,92.2480469 116.454346,93.0161133 117.55249,93.0161133 C118.333252,93.0161133 118.910889,92.6225586 119.094971,92.0385742 Z M121.411865,89.2138672 C121.411865,90.1469727 122.02124,90.7753906 123.227295,91.0673828 L124.420654,91.359375 C125.118896,91.5371094 125.372803,91.7719727 125.372803,92.1972656 C125.372803,92.7368164 124.86499,93.0795898 124.039795,93.0795898 C123.201904,93.0795898 122.706787,92.7241211 122.598877,92.0830078 L121.240479,92.0830078 C121.348389,93.3081055 122.395752,94.1269531 123.976318,94.1269531 C125.614014,94.1269531 126.750244,93.2890625 126.750244,92.0703125 C126.750244,91.0864258 126.242432,90.5786133 124.896729,90.2548828 L123.773193,89.9946289 C123.081299,89.8232422 122.751221,89.5439453 122.751221,89.1313477 C122.751221,88.6044922 123.246338,88.2426758 123.989014,88.2426758 C124.75708,88.2426758 125.24585,88.6171875 125.309326,89.2202148 L126.5979,89.2202148 C126.553467,88.0332031 125.512451,87.2016602 124.0271,87.2016602 C122.465576,87.2016602 121.411865,88.0205078 121.411865,89.2138672 Z M130.609619,88.3061523 C129.651123,88.3061523 128.978271,89.0361328 128.908447,90.0454102 L132.247314,90.0454102 C132.215576,89.0234375 131.568115,88.3061523 130.609619,88.3061523 Z M132.240967,92.0385742 L133.542236,92.0385742 C133.351807,93.2573242 132.196533,94.1269531 130.666748,94.1269531 C128.705322,94.1269531 127.518311,92.800293 127.518311,90.6928711 C127.518311,88.5981445 128.724365,87.2016602 130.609619,87.2016602 C132.463135,87.2016602 133.618408,88.5092773 133.618408,90.5341797 L133.618408,91.0039062 L128.9021,91.0039062 L128.9021,91.0864258 C128.9021,92.2480469 129.600342,93.0161133 130.698486,93.0161133 C131.479248,93.0161133 132.056885,92.6225586 132.240967,92.0385742 Z M135.078369,85.7416992 L135.078369,87.3222656 L134.107178,87.3222656 L134.107178,88.4077148 L135.078369,88.4077148 L135.078369,92.2416992 C135.078369,93.5302734 135.605225,94.0444336 136.957275,94.0444336 C137.261963,94.0444336 137.56665,94.019043 137.718994,93.980957 L137.718994,92.8955078 C137.630127,92.9145508 137.407959,92.9272461 137.268311,92.9272461 C136.709717,92.9272461 136.455811,92.6669922 136.455811,92.0893555 L136.455811,88.4077148 L137.725342,88.4077148 L137.725342,87.3222656 L136.455811,87.3222656 L136.455811,85.7416992 L135.078369,85.7416992 Z M141.883057,85.7416992 L141.883057,87.3222656 L140.911865,87.3222656 L140.911865,88.4077148 L141.883057,88.4077148 L141.883057,92.2416992 C141.883057,93.5302734 142.409912,94.0444336 143.761963,94.0444336 C144.06665,94.0444336 144.371338,94.019043 144.523682,93.980957 L144.523682,92.8955078 C144.434814,92.9145508 144.212646,92.9272461 144.072998,92.9272461 C143.514404,92.9272461 143.260498,92.6669922 143.260498,92.0893555 L143.260498,88.4077148 L144.530029,88.4077148 L144.530029,87.3222656 L143.260498,87.3222656 L143.260498,85.7416992 L141.883057,85.7416992 Z M148.364014,94.1269531 C146.453369,94.1269531 145.196533,92.8129883 145.196533,90.6611328 C145.196533,88.515625 146.459717,87.2016602 148.364014,87.2016602 C150.268311,87.2016602 151.531494,88.515625 151.531494,90.6611328 C151.531494,92.8129883 150.274658,94.1269531 148.364014,94.1269531 Z M148.364014,92.9970703 C149.443115,92.9970703 150.13501,92.1464844 150.13501,90.6611328 C150.13501,89.1821289 149.436768,88.331543 148.364014,88.331543 C147.29126,88.331543 146.593018,89.1821289 146.593018,90.6611328 C146.593018,92.1464844 147.29126,92.9970703 148.364014,92.9970703 Z M155.390869,84.840332 L158.621826,84.840332 C161.344971,84.840332 162.957275,86.5161133 162.957275,89.4042969 C162.957275,92.2988281 161.351318,94 158.621826,94 L155.390869,94 L155.390869,84.840332 Z M156.812744,86.0654297 L156.812744,92.7685547 L158.488525,92.7685547 C160.430908,92.7685547 161.503662,91.581543 161.503662,89.4169922 C161.503662,87.2587891 160.424561,86.0654297 158.488525,86.0654297 L156.812744,86.0654297 Z M166.937256,88.3061523 C165.97876,88.3061523 165.305908,89.0361328 165.236084,90.0454102 L168.574951,90.0454102 C168.543213,89.0234375 167.895752,88.3061523 166.937256,88.3061523 Z M168.568604,92.0385742 L169.869873,92.0385742 C169.679443,93.2573242 168.52417,94.1269531 166.994385,94.1269531 C165.032959,94.1269531 163.845947,92.800293 163.845947,90.6928711 C163.845947,88.5981445 165.052002,87.2016602 166.937256,87.2016602 C168.790771,87.2016602 169.946045,88.5092773 169.946045,90.5341797 L169.946045,91.0039062 L165.229736,91.0039062 L165.229736,91.0864258 C165.229736,92.2480469 165.927979,93.0161133 167.026123,93.0161133 C167.806885,93.0161133 168.384521,92.6225586 168.568604,92.0385742 Z M171.406006,94 L172.783447,94 L172.783447,88.4077148 L174.116455,88.4077148 L174.116455,87.3349609 L172.764404,87.3349609 L172.764404,86.706543 C172.764404,86.1162109 173.043701,85.8178711 173.640381,85.8178711 C173.824463,85.8178711 174.008545,85.8305664 174.141846,85.855957 L174.141846,84.840332 C173.964111,84.8085938 173.653076,84.7768555 173.373779,84.7768555 C172.015381,84.7768555 171.406006,85.3862305 171.406006,86.6811523 L171.406006,87.3349609 L170.485596,87.3349609 L170.485596,88.4077148 L171.406006,88.4077148 L171.406006,94 Z M177.16333,93.0288086 C178.121826,93.0288086 178.87085,92.3686523 178.87085,91.4990234 L178.87085,90.972168 L177.226807,91.0737305 C176.407959,91.1308594 175.94458,91.4926758 175.94458,92.0639648 C175.94458,92.6479492 176.427002,93.0288086 177.16333,93.0288086 Z M176.782471,94.1142578 C175.474854,94.1142578 174.560791,93.3017578 174.560791,92.1020508 C174.560791,90.934082 175.455811,90.2167969 177.042725,90.1279297 L178.87085,90.0200195 L178.87085,89.5058594 C178.87085,88.7631836 178.369385,88.3188477 177.531494,88.3188477 C176.738037,88.3188477 176.24292,88.699707 176.122314,89.2963867 L174.827393,89.2963867 C174.903564,88.090332 175.931885,87.2016602 177.582275,87.2016602 C179.200928,87.2016602 180.235596,88.0585938 180.235596,89.3979492 L180.235596,94 L178.921631,94 L178.921631,92.9018555 L178.889893,92.9018555 C178.502686,93.6445312 177.658447,94.1142578 176.782471,94.1142578 Z M187.287842,87.3222656 L185.916748,87.3222656 L185.916748,91.2133789 C185.916748,92.2543945 185.320068,92.9399414 184.329834,92.9399414 C183.384033,92.9399414 182.901611,92.394043 182.901611,91.378418 L182.901611,87.3222656 L181.530518,87.3222656 L181.530518,91.6450195 C181.530518,93.1748047 182.419189,94.1206055 183.872803,94.1206055 C184.894775,94.1206055 185.573975,93.6699219 185.942139,92.8701172 L185.973877,92.8701172 L185.973877,94 L187.287842,94 L187.287842,87.3222656 Z M188.690674,94 L190.061768,94 L190.061768,84.840332 L188.690674,84.840332 L188.690674,94 Z M191.87085,85.7416992 L191.87085,87.3222656 L190.899658,87.3222656 L190.899658,88.4077148 L191.87085,88.4077148 L191.87085,92.2416992 C191.87085,93.5302734 192.397705,94.0444336 193.749756,94.0444336 C194.054443,94.0444336 194.359131,94.019043 194.511475,93.980957 L194.511475,92.8955078 C194.422607,92.9145508 194.200439,92.9272461 194.060791,92.9272461 C193.502197,92.9272461 193.248291,92.6669922 193.248291,92.0893555 L193.248291,88.4077148 L194.517822,88.4077148 L194.517822,87.3222656 L193.248291,87.3222656 L193.248291,85.7416992 L191.87085,85.7416992 Z"/>
  </g>
</svg>
