<svg xmlns="http://www.w3.org/2000/svg" width="300" height="180" style="background:#f9f9fa" viewBox="0 0 300 180">
  <g fill="none" fill-rule="evenodd">
    <rect width="132" height="32" x="84" y="74" fill="#0A84FF" rx="2"/>
    <path fill="#FFF" d="M136.820312,85.5449219 L139.662109,85.5449219 C142.169922,85.5449219 143.652344,87.109375 143.652344,89.7695312 C143.652344,92.4355469 142.175781,94 139.662109,94 L136.820312,94 L136.820312,85.5449219 Z M137.875,86.4941406 L137.875,93.0507812 L139.591797,93.0507812 C141.507812,93.0507812 142.574219,91.8789062 142.574219,89.78125 C142.574219,87.6660156 141.513672,86.4941406 139.591797,86.4941406 L137.875,86.4941406 Z M147.326172,94.1054688 C145.638672,94.1054688 144.501953,92.8925781 144.501953,90.953125 C144.501953,89.0078125 145.638672,87.8007812 147.326172,87.8007812 C149.007812,87.8007812 150.144531,89.0078125 150.144531,90.953125 C150.144531,92.8925781 149.007812,94.1054688 147.326172,94.1054688 Z M147.326172,93.2089844 C148.404297,93.2089844 149.107422,92.3886719 149.107422,90.953125 C149.107422,89.5175781 148.404297,88.6972656 147.326172,88.6972656 C146.248047,88.6972656 145.539062,89.5175781 145.539062,90.953125 C145.539062,92.3886719 146.248047,93.2089844 147.326172,93.2089844 Z M151.169922,94 L152.189453,94 L152.189453,90.4140625 C152.189453,89.3828125 152.816406,88.703125 153.777344,88.703125 C154.714844,88.703125 155.177734,89.2421875 155.177734,90.2265625 L155.177734,94 L156.197266,94 L156.197266,90.0449219 C156.197266,88.6621094 155.423828,87.8007812 154.087891,87.8007812 C153.144531,87.8007812 152.494141,88.2226562 152.154297,88.8789062 L152.130859,88.8789062 L152.130859,87.90625 L151.169922,87.90625 L151.169922,94 Z M159.935547,88.6855469 C158.980469,88.6855469 158.3125,89.4179688 158.248047,90.4316406 L161.558594,90.4316406 C161.535156,89.4121094 160.896484,88.6855469 159.935547,88.6855469 Z M161.535156,92.2539062 L162.537109,92.2539062 C162.361328,93.3203125 161.330078,94.1054688 160,94.1054688 C158.253906,94.1054688 157.193359,92.8925781 157.193359,90.9765625 C157.193359,89.0839844 158.271484,87.8007812 159.953125,87.8007812 C161.599609,87.8007812 162.613281,88.9960938 162.613281,90.8417969 L162.613281,91.2285156 L158.242188,91.2285156 L158.242188,91.2871094 C158.242188,92.453125 158.927734,93.2207031 160.023438,93.2207031 C160.796875,93.2207031 161.365234,92.828125 161.535156,92.2539062 Z"/>
  </g>
</svg>
