<svg xmlns="http://www.w3.org/2000/svg" width="300" height="180" style="background:#f9f9fa" viewBox="0 0 300 180">
  <g fill="#0C0C0D" fill-rule="evenodd">
    <rect width="132" height="32" x="84" y="74" fill-opacity=".1" rx="2"/>
    <path d="M130.780273,94.140625 C132.649414,94.140625 133.90332,93.2089844 134.290039,91.5390625 L133.223633,91.5390625 C132.918945,92.5703125 132.02832,93.1679688 130.786133,93.1679688 C129.116211,93.1679688 128.055664,91.84375 128.055664,89.7695312 C128.055664,87.7128906 129.12793,86.3769531 130.780273,86.3769531 C131.987305,86.3769531 132.954102,87.1035156 133.223633,88.2109375 L134.290039,88.2109375 C134.020508,86.5234375 132.620117,85.4042969 130.780273,85.4042969 C128.46582,85.4042969 126.97168,87.1152344 126.97168,89.7695312 C126.97168,92.4472656 128.448242,94.140625 130.780273,94.140625 Z M135.426758,94 L136.446289,94 L136.446289,90.4492188 C136.446289,89.3945312 137.073242,88.703125 138.086914,88.703125 C139.041992,88.703125 139.52832,89.2832031 139.52832,90.25 L139.52832,94 L140.547852,94 L140.547852,90.0625 C140.547852,88.703125 139.739258,87.8007812 138.40332,87.8007812 C137.477539,87.8007812 136.80957,88.1992188 136.469727,88.8789062 L136.446289,88.8789062 L136.446289,85.5449219 L135.426758,85.5449219 L135.426758,94 Z M144.368164,94.1054688 C142.680664,94.1054688 141.543945,92.8925781 141.543945,90.953125 C141.543945,89.0078125 142.680664,87.8007812 144.368164,87.8007812 C146.049805,87.8007812 147.186523,89.0078125 147.186523,90.953125 C147.186523,92.8925781 146.049805,94.1054688 144.368164,94.1054688 Z M144.368164,93.2089844 C145.446289,93.2089844 146.149414,92.3886719 146.149414,90.953125 C146.149414,89.5175781 145.446289,88.6972656 144.368164,88.6972656 C143.290039,88.6972656 142.581055,89.5175781 142.581055,90.953125 C142.581055,92.3886719 143.290039,93.2089844 144.368164,93.2089844 Z M150.737305,94.1054688 C149.049805,94.1054688 147.913086,92.8925781 147.913086,90.953125 C147.913086,89.0078125 149.049805,87.8007812 150.737305,87.8007812 C152.418945,87.8007812 153.555664,89.0078125 153.555664,90.953125 C153.555664,92.8925781 152.418945,94.1054688 150.737305,94.1054688 Z M150.737305,93.2089844 C151.81543,93.2089844 152.518555,92.3886719 152.518555,90.953125 C152.518555,89.5175781 151.81543,88.6972656 150.737305,88.6972656 C149.65918,88.6972656 148.950195,89.5175781 148.950195,90.953125 C148.950195,92.3886719 149.65918,93.2089844 150.737305,93.2089844 Z M154.475586,89.5878906 C154.475586,90.4199219 155.00293,90.9707031 156.075195,91.2460938 L157.147461,91.5214844 C157.833008,91.703125 158.084961,91.9375 158.084961,92.3710938 C158.084961,92.921875 157.575195,93.2734375 156.749023,93.2734375 C155.922852,93.2734375 155.442383,92.9335938 155.331055,92.3007812 L154.311523,92.3007812 C154.416992,93.3789062 155.348633,94.1054688 156.68457,94.1054688 C158.108398,94.1054688 159.110352,93.3554688 159.110352,92.2949219 C159.110352,91.3984375 158.665039,90.953125 157.43457,90.6425781 L156.491211,90.4140625 C155.799805,90.2382812 155.477539,89.9570312 155.477539,89.5351562 C155.477539,89.0019531 155.969727,88.6328125 156.713867,88.6328125 C157.463867,88.6328125 157.938477,88.9960938 158.008789,89.5820312 L158.981445,89.5820312 C158.93457,88.5507812 158.008789,87.8007812 156.749023,87.8007812 C155.407227,87.8007812 154.475586,88.5449219 154.475586,89.5878906 Z M162.608398,88.6855469 C161.65332,88.6855469 160.985352,89.4179688 160.920898,90.4316406 L164.231445,90.4316406 C164.208008,89.4121094 163.569336,88.6855469 162.608398,88.6855469 Z M164.208008,92.2539062 L165.209961,92.2539062 C165.03418,93.3203125 164.00293,94.1054688 162.672852,94.1054688 C160.926758,94.1054688 159.866211,92.8925781 159.866211,90.9765625 C159.866211,89.0839844 160.944336,87.8007812 162.625977,87.8007812 C164.272461,87.8007812 165.286133,88.9960938 165.286133,90.8417969 L165.286133,91.2285156 L160.915039,91.2285156 L160.915039,91.2871094 C160.915039,92.453125 161.600586,93.2207031 162.696289,93.2207031 C163.469727,93.2207031 164.038086,92.828125 164.208008,92.2539062 Z M167.172852,94.0585938 C167.547852,94.0585938 167.84082,93.765625 167.84082,93.390625 C167.84082,93.015625 167.547852,92.7226562 167.172852,92.7226562 C166.797852,92.7226562 166.504883,93.015625 166.504883,93.390625 C166.504883,93.765625 166.797852,94.0585938 167.172852,94.0585938 Z M170.084961,94.0585938 C170.459961,94.0585938 170.75293,93.765625 170.75293,93.390625 C170.75293,93.015625 170.459961,92.7226562 170.084961,92.7226562 C169.709961,92.7226562 169.416992,93.015625 169.416992,93.390625 C169.416992,93.765625 169.709961,94.0585938 170.084961,94.0585938 Z M172.99707,94.0585938 C173.37207,94.0585938 173.665039,93.765625 173.665039,93.390625 C173.665039,93.015625 173.37207,92.7226562 172.99707,92.7226562 C172.62207,92.7226562 172.329102,93.015625 172.329102,93.390625 C172.329102,93.765625 172.62207,94.0585938 172.99707,94.0585938 Z"/>
  </g>
</svg>
