<svg xmlns="http://www.w3.org/2000/svg" width="300" height="180" style="background:#f9f9fa" viewBox="0 0 300 180">
  <g fill="#0C0C0D" fill-rule="evenodd">
    <rect width="132" height="32" x="84" y="74" fill-opacity=".1" rx="2"/>
    <path d="M112.674805,86.4824219 L112.674805,89.7226562 L114.696289,89.7226562 C115.780273,89.7226562 116.395508,89.1367188 116.395508,88.0996094 C116.395508,87.0859375 115.739258,86.4824219 114.649414,86.4824219 L112.674805,86.4824219 Z M112.674805,90.6542969 L112.674805,94 L111.620117,94 L111.620117,85.5449219 L114.790039,85.5449219 C116.418945,85.5449219 117.485352,86.5410156 117.485352,88.0644531 C117.485352,89.2421875 116.84668,90.15625 115.786133,90.4902344 L117.743164,94 L116.506836,94 L114.696289,90.6542969 L112.674805,90.6542969 Z M121.094727,88.6855469 C120.139648,88.6855469 119.47168,89.4179688 119.407227,90.4316406 L122.717773,90.4316406 C122.694336,89.4121094 122.055664,88.6855469 121.094727,88.6855469 Z M122.694336,92.2539062 L123.696289,92.2539062 C123.520508,93.3203125 122.489258,94.1054688 121.15918,94.1054688 C119.413086,94.1054688 118.352539,92.8925781 118.352539,90.9765625 C118.352539,89.0839844 119.430664,87.8007812 121.112305,87.8007812 C122.758789,87.8007812 123.772461,88.9960938 123.772461,90.8417969 L123.772461,91.2285156 L119.401367,91.2285156 L119.401367,91.2871094 C119.401367,92.453125 120.086914,93.2207031 121.182617,93.2207031 C121.956055,93.2207031 122.524414,92.828125 122.694336,92.2539062 Z M124.692383,89.5878906 C124.692383,90.4199219 125.219727,90.9707031 126.291992,91.2460938 L127.364258,91.5214844 C128.049805,91.703125 128.301758,91.9375 128.301758,92.3710938 C128.301758,92.921875 127.791992,93.2734375 126.96582,93.2734375 C126.139648,93.2734375 125.65918,92.9335938 125.547852,92.3007812 L124.52832,92.3007812 C124.633789,93.3789062 125.56543,94.1054688 126.901367,94.1054688 C128.325195,94.1054688 129.327148,93.3554688 129.327148,92.2949219 C129.327148,91.3984375 128.881836,90.953125 127.651367,90.6425781 L126.708008,90.4140625 C126.016602,90.2382812 125.694336,89.9570312 125.694336,89.5351562 C125.694336,89.0019531 126.186523,88.6328125 126.930664,88.6328125 C127.680664,88.6328125 128.155273,88.9960938 128.225586,89.5820312 L129.198242,89.5820312 C129.151367,88.5507812 128.225586,87.8007812 126.96582,87.8007812 C125.624023,87.8007812 124.692383,88.5449219 124.692383,89.5878906 Z M132.825195,88.6855469 C131.870117,88.6855469 131.202148,89.4179688 131.137695,90.4316406 L134.448242,90.4316406 C134.424805,89.4121094 133.786133,88.6855469 132.825195,88.6855469 Z M134.424805,92.2539062 L135.426758,92.2539062 C135.250977,93.3203125 134.219727,94.1054688 132.889648,94.1054688 C131.143555,94.1054688 130.083008,92.8925781 130.083008,90.9765625 C130.083008,89.0839844 131.161133,87.8007812 132.842773,87.8007812 C134.489258,87.8007812 135.50293,88.9960938 135.50293,90.8417969 L135.50293,91.2285156 L131.131836,91.2285156 L131.131836,91.2871094 C131.131836,92.453125 131.817383,93.2207031 132.913086,93.2207031 C133.686523,93.2207031 134.254883,92.828125 134.424805,92.2539062 Z M136.856445,86.4355469 L136.856445,87.90625 L135.948242,87.90625 L135.948242,88.7441406 L136.856445,88.7441406 L136.856445,92.4179688 C136.856445,93.5898438 137.290039,94.046875 138.40918,94.046875 C138.649414,94.046875 138.930664,94.0292969 139.053711,94 L139.053711,93.1445312 C138.983398,93.15625 138.749023,93.1738281 138.631836,93.1738281 C138.110352,93.1738281 137.875977,92.921875 137.875977,92.3652344 L137.875977,88.7441406 L139.05957,88.7441406 L139.05957,87.90625 L137.875977,87.90625 L137.875977,86.4355469 L136.856445,86.4355469 Z M142.932617,86.4355469 L142.932617,87.90625 L142.024414,87.90625 L142.024414,88.7441406 L142.932617,88.7441406 L142.932617,92.4179688 C142.932617,93.5898438 143.366211,94.046875 144.485352,94.046875 C144.725586,94.046875 145.006836,94.0292969 145.129883,94 L145.129883,93.1445312 C145.05957,93.15625 144.825195,93.1738281 144.708008,93.1738281 C144.186523,93.1738281 143.952148,92.921875 143.952148,92.3652344 L143.952148,88.7441406 L145.135742,88.7441406 L145.135742,87.90625 L143.952148,87.90625 L143.952148,86.4355469 L142.932617,86.4355469 Z M148.569336,94.1054688 C146.881836,94.1054688 145.745117,92.8925781 145.745117,90.953125 C145.745117,89.0078125 146.881836,87.8007812 148.569336,87.8007812 C150.250977,87.8007812 151.387695,89.0078125 151.387695,90.953125 C151.387695,92.8925781 150.250977,94.1054688 148.569336,94.1054688 Z M148.569336,93.2089844 C149.647461,93.2089844 150.350586,92.3886719 150.350586,90.953125 C150.350586,89.5175781 149.647461,88.6972656 148.569336,88.6972656 C147.491211,88.6972656 146.782227,89.5175781 146.782227,90.953125 C146.782227,92.3886719 147.491211,93.2089844 148.569336,93.2089844 Z M155.032227,85.5449219 L157.874023,85.5449219 C160.381836,85.5449219 161.864258,87.109375 161.864258,89.7695312 C161.864258,92.4355469 160.387695,94 157.874023,94 L155.032227,94 L155.032227,85.5449219 Z M156.086914,86.4941406 L156.086914,93.0507812 L157.803711,93.0507812 C159.719727,93.0507812 160.786133,91.8789062 160.786133,89.78125 C160.786133,87.6660156 159.725586,86.4941406 157.803711,86.4941406 L156.086914,86.4941406 Z M165.456055,88.6855469 C164.500977,88.6855469 163.833008,89.4179688 163.768555,90.4316406 L167.079102,90.4316406 C167.055664,89.4121094 166.416992,88.6855469 165.456055,88.6855469 Z M167.055664,92.2539062 L168.057617,92.2539062 C167.881836,93.3203125 166.850586,94.1054688 165.520508,94.1054688 C163.774414,94.1054688 162.713867,92.8925781 162.713867,90.9765625 C162.713867,89.0839844 163.791992,87.8007812 165.473633,87.8007812 C167.120117,87.8007812 168.133789,88.9960938 168.133789,90.8417969 L168.133789,91.2285156 L163.762695,91.2285156 L163.762695,91.2871094 C163.762695,92.453125 164.448242,93.2207031 165.543945,93.2207031 C166.317383,93.2207031 166.885742,92.828125 167.055664,92.2539062 Z M169.487305,94 L170.506836,94 L170.506836,88.7441406 L171.749023,88.7441406 L171.749023,87.90625 L170.500977,87.90625 L170.500977,87.2324219 C170.500977,86.6289062 170.764648,86.3359375 171.31543,86.3359375 C171.485352,86.3359375 171.655273,86.3535156 171.77832,86.3710938 L171.77832,85.5449219 C171.631836,85.5214844 171.385742,85.4980469 171.157227,85.4980469 C170.032227,85.4980469 169.487305,86.0546875 169.487305,87.2265625 L169.487305,87.90625 L168.637695,87.90625 L168.637695,88.7441406 L169.487305,88.7441406 L169.487305,94 Z M174.461914,93.2382812 C175.422852,93.2382812 176.161133,92.5644531 176.161133,91.6855469 L176.161133,91.1875 L174.532227,91.2871094 C173.711914,91.3398438 173.243164,91.703125 173.243164,92.2773438 C173.243164,92.8574219 173.729492,93.2382812 174.461914,93.2382812 Z M174.233398,94.1054688 C173.020508,94.1054688 172.206055,93.3730469 172.206055,92.2773438 C172.206055,91.234375 173.008789,90.578125 174.415039,90.4960938 L176.161133,90.3964844 L176.161133,89.8867188 C176.161133,89.1425781 175.668945,88.6972656 174.825195,88.6972656 C174.040039,88.6972656 173.547852,89.0664062 173.418945,89.6640625 L172.43457,89.6640625 C172.504883,88.609375 173.407227,87.8007812 174.848633,87.8007812 C176.27832,87.8007812 177.180664,88.5742188 177.180664,89.7871094 L177.180664,94 L176.213867,94 L176.213867,92.9511719 L176.19043,92.9511719 C175.827148,93.6484375 175.053711,94.1054688 174.233398,94.1054688 Z M183.479492,87.90625 L182.459961,87.90625 L182.459961,91.4863281 C182.459961,92.5234375 181.862305,93.203125 180.87207,93.203125 C179.928711,93.203125 179.46582,92.6699219 179.46582,91.6796875 L179.46582,87.90625 L178.446289,87.90625 L178.446289,91.8613281 C178.446289,93.2441406 179.225586,94.1054688 180.555664,94.1054688 C181.493164,94.1054688 182.125977,93.7128906 182.489258,93.0097656 L182.512695,93.0097656 L182.512695,94 L183.479492,94 L183.479492,87.90625 Z M184.850586,94 L185.870117,94 L185.870117,85.5449219 L184.850586,85.5449219 L184.850586,94 Z M187.575195,86.4355469 L187.575195,87.90625 L186.666992,87.90625 L186.666992,88.7441406 L187.575195,88.7441406 L187.575195,92.4179688 C187.575195,93.5898438 188.008789,94.046875 189.12793,94.046875 C189.368164,94.046875 189.649414,94.0292969 189.772461,94 L189.772461,93.1445312 C189.702148,93.15625 189.467773,93.1738281 189.350586,93.1738281 C188.829102,93.1738281 188.594727,92.921875 188.594727,92.3652344 L188.594727,88.7441406 L189.77832,88.7441406 L189.77832,87.90625 L188.594727,87.90625 L188.594727,86.4355469 L187.575195,86.4355469 Z"/>
  </g>
</svg>
