<svg xmlns="http://www.w3.org/2000/svg" width="300" height="180" style="background:#f9f9fa" viewBox="0 0 300 180">
  <g fill="#0C0C0D" fill-rule="evenodd">
    <rect width="132" height="32" x="84" y="74" fill-opacity=".1" rx="2"/>
    <path d="M93.2578125,94 L93.2578125,87.2524414 L93.3149414,87.2524414 L98.0629883,94 L99.3452148,94 L99.3452148,84.840332 L97.9614258,84.840332 L97.9614258,91.5942383 L97.9106445,91.5942383 L93.1625977,84.840332 L91.8740234,84.840332 L91.8740234,94 L93.2578125,94 Z M103.737793,94.1269531 C101.827148,94.1269531 100.570312,92.8129883 100.570312,90.6611328 C100.570312,88.515625 101.833496,87.2016602 103.737793,87.2016602 C105.64209,87.2016602 106.905273,88.515625 106.905273,90.6611328 C106.905273,92.8129883 105.648438,94.1269531 103.737793,94.1269531 Z M103.737793,92.9970703 C104.816895,92.9970703 105.508789,92.1464844 105.508789,90.6611328 C105.508789,89.1821289 104.810547,88.331543 103.737793,88.331543 C102.665039,88.331543 101.966797,89.1821289 101.966797,90.6611328 C101.966797,92.1464844 102.665039,92.9970703 103.737793,92.9970703 Z M108.365234,85.7416992 L108.365234,87.3222656 L107.394043,87.3222656 L107.394043,88.4077148 L108.365234,88.4077148 L108.365234,92.2416992 C108.365234,93.5302734 108.89209,94.0444336 110.244141,94.0444336 C110.548828,94.0444336 110.853516,94.019043 111.005859,93.980957 L111.005859,92.8955078 C110.916992,92.9145508 110.694824,92.9272461 110.555176,92.9272461 C109.996582,92.9272461 109.742676,92.6669922 109.742676,92.0893555 L109.742676,88.4077148 L111.012207,88.4077148 L111.012207,87.3222656 L109.742676,87.3222656 L109.742676,85.7416992 L108.365234,85.7416992 Z M116.318848,94 L116.318848,87.2524414 L116.375977,87.2524414 L121.124023,94 L122.40625,94 L122.40625,84.840332 L121.022461,84.840332 L121.022461,91.5942383 L120.97168,91.5942383 L116.223633,84.840332 L114.935059,84.840332 L114.935059,94 L116.318848,94 Z M126.798828,94.1269531 C124.888184,94.1269531 123.631348,92.8129883 123.631348,90.6611328 C123.631348,88.515625 124.894531,87.2016602 126.798828,87.2016602 C128.703125,87.2016602 129.966309,88.515625 129.966309,90.6611328 C129.966309,92.8129883 128.709473,94.1269531 126.798828,94.1269531 Z M126.798828,92.9970703 C127.87793,92.9970703 128.569824,92.1464844 128.569824,90.6611328 C128.569824,89.1821289 127.871582,88.331543 126.798828,88.331543 C125.726074,88.331543 125.027832,89.1821289 125.027832,90.6611328 C125.027832,92.1464844 125.726074,92.9970703 126.798828,92.9970703 Z M139.811523,87.3222656 L138.453125,87.3222656 L137.234375,92.578125 L137.202637,92.578125 L135.806152,87.3222656 L134.48584,87.3222656 L133.095703,92.578125 L133.070312,92.578125 L131.851562,87.3222656 L130.480469,87.3222656 L132.314941,94 L133.730469,94 L135.120605,88.9980469 L135.152344,88.9980469 L136.555176,94 L137.983398,94 L139.811523,87.3222656 Z"/>
    <path fill-opacity=".8" fill-rule="nonzero" d="M8,12 C7.73426095,11.9999433 7.4794266,11.8943639 7.29154909,11.7064848 L2.2812881,6.69769219 C1.90153816,6.3046233 1.90696912,5.67982062 2.29349452,5.2934085 C2.68001992,4.90699639 3.30500578,4.90156702 3.69818991,5.28120566 L8,9.58175495 L12.3018101,5.28120566 C12.6949942,4.90156702 13.3199801,4.90699639 13.7065055,5.2934085 C14.0930309,5.67982062 14.0984618,6.3046233 13.7187119,6.69769219 L8.70845091,11.7064848 C8.5205734,11.8943639 8.26573905,11.9999433 8,12 Z" transform="translate(192 82)"/>
    <rect width="1" height="24" x="183" y="78" fill-opacity=".2"/>
  </g>
</svg>
