<svg xmlns="http://www.w3.org/2000/svg" width="300" height="180" style="background:#f9f9fa" viewBox="0 0 300 180">
  <g fill="none" fill-rule="evenodd">
    <rect width="132" height="32" x="84" y="74" fill="#0A84FF" rx="2"/>
    <path fill="#FFF" d="M136.844238,84.840332 L140.075195,84.840332 C142.79834,84.840332 144.410645,86.5161133 144.410645,89.4042969 C144.410645,92.2988281 142.804688,94 140.075195,94 L136.844238,94 L136.844238,84.840332 Z M138.266113,86.0654297 L138.266113,92.7685547 L139.941895,92.7685547 C141.884277,92.7685547 142.957031,91.581543 142.957031,89.4169922 C142.957031,87.2587891 141.87793,86.0654297 139.941895,86.0654297 L138.266113,86.0654297 Z M148.466797,94.1269531 C146.556152,94.1269531 145.299316,92.8129883 145.299316,90.6611328 C145.299316,88.515625 146.5625,87.2016602 148.466797,87.2016602 C150.371094,87.2016602 151.634277,88.515625 151.634277,90.6611328 C151.634277,92.8129883 150.377441,94.1269531 148.466797,94.1269531 Z M148.466797,92.9970703 C149.545898,92.9970703 150.237793,92.1464844 150.237793,90.6611328 C150.237793,89.1821289 149.539551,88.331543 148.466797,88.331543 C147.394043,88.331543 146.695801,89.1821289 146.695801,90.6611328 C146.695801,92.1464844 147.394043,92.9970703 148.466797,92.9970703 Z M152.694336,94 L154.06543,94 L154.06543,90.1088867 C154.06543,89.0742188 154.6875,88.3886719 155.652344,88.3886719 C156.604492,88.3886719 157.074219,88.940918 157.074219,89.9438477 L157.074219,94 L158.45166,94 L158.45166,89.6772461 C158.45166,88.1474609 157.607422,87.2080078 156.134766,87.2080078 C155.106445,87.2080078 154.395508,87.6777344 154.033691,88.4394531 L154.001953,88.4394531 L154.001953,87.3222656 L152.694336,87.3222656 L152.694336,94 Z M162.564941,88.3061523 C161.606445,88.3061523 160.933594,89.0361328 160.86377,90.0454102 L164.202637,90.0454102 C164.170898,89.0234375 163.523438,88.3061523 162.564941,88.3061523 Z M164.196289,92.0385742 L165.497559,92.0385742 C165.307129,93.2573242 164.151855,94.1269531 162.62207,94.1269531 C160.660645,94.1269531 159.473633,92.800293 159.473633,90.6928711 C159.473633,88.5981445 160.679688,87.2016602 162.564941,87.2016602 C164.418457,87.2016602 165.57373,88.5092773 165.57373,90.5341797 L165.57373,91.0039062 L160.857422,91.0039062 L160.857422,91.0864258 C160.857422,92.2480469 161.555664,93.0161133 162.653809,93.0161133 C163.43457,93.0161133 164.012207,92.6225586 164.196289,92.0385742 Z"/>
  </g>
</svg>
