<svg xmlns="http://www.w3.org/2000/svg" width="300" height="180" style="background:#f9f9fa" viewBox="0 0 300 180">
  <g fill="#0C0C0D" fill-rule="evenodd">
    <rect width="132" height="32" x="84" y="74" fill-opacity=".1" rx="2"/>
    <path d="M94.0644531,94 L95.4545898,94 L95.4545898,84.840332 L94.0517578,84.840332 L91.6396484,86.5541992 L91.6396484,87.9506836 L94.0327148,86.2495117 L94.0644531,86.2495117 L94.0644531,94 Z M101.129395,94.1777344 C99.7773438,94.1777344 98.6918945,93.4858398 98.0952148,92.2480469 C97.7207031,91.5180664 97.5302734,90.6166992 97.5302734,89.5439453 C97.5302734,86.4780273 98.9013672,84.6625977 101.192871,84.6625977 C102.811523,84.6625977 104.068359,85.6337891 104.347656,87.09375 L102.925781,87.09375 C102.703613,86.3447266 102.018066,85.855957 101.180176,85.855957 C99.7392578,85.855957 98.9013672,87.1635742 98.8950195,89.4677734 L98.9204102,89.4677734 C99.3203125,88.5791016 100.291504,87.9824219 101.434082,87.9824219 C103.179688,87.9824219 104.474609,89.2709961 104.474609,91.0102539 C104.474609,92.8447266 103.071777,94.1777344 101.129395,94.1777344 Z M101.116699,92.9780273 C102.195801,92.9780273 103.059082,92.1274414 103.059082,91.0546875 C103.059082,89.9438477 102.25293,89.144043 101.129395,89.144043 C100.012207,89.144043 99.1806641,89.9438477 99.1806641,91.0292969 C99.1806641,92.1147461 100.024902,92.9780273 101.116699,92.9780273 Z"/>
    <path fill-opacity=".8" fill-rule="nonzero" d="M8,12 C7.73426095,11.9999433 7.4794266,11.8943639 7.29154909,11.7064848 L2.2812881,6.69769219 C1.90153816,6.3046233 1.90696912,5.67982062 2.29349452,5.2934085 C2.68001992,4.90699639 3.30500578,4.90156702 3.69818991,5.28120566 L8,9.58175495 L12.3018101,5.28120566 C12.6949942,4.90156702 13.3199801,4.90699639 13.7065055,5.2934085 C14.0930309,5.67982062 14.0984618,6.3046233 13.7187119,6.69769219 L8.70845091,11.7064848 C8.5205734,11.8943639 8.26573905,11.9999433 8,12 Z" transform="translate(192 82)"/>
  </g>
</svg>
