<svg xmlns="http://www.w3.org/2000/svg" width="300" height="180" style="background:#f9f9fa" viewBox="0 0 300 180">
  <g fill="#0C0C0D" fill-rule="evenodd">
    <rect width="132" height="32" x="84" y="74" fill-opacity=".1" rx="2"/>
    <path fill-opacity=".8" fill-rule="nonzero" d="M14,1.00023652 C13.4477153,1.00023652 13,1.44795177 13,2.00023652 L13,3.14623652 C11.2451486,1.31112962 8.62901259,0.579424873 6.17674822,1.23784734 C3.72448385,1.8962698 1.82667689,3.83994888 1.227,6.30723652 C1.13105647,6.65710583 1.23212494,7.03149649 1.49110116,7.28555359 C1.75007738,7.53961069 2.12633718,7.63348169 2.47430246,7.53084711 C2.82226774,7.42821253 3.0873551,7.14517209 3.167,6.79123652 C3.7150153,4.56683643 5.70908959,3.00268671 8,3.00023652 C9.5652211,2.99778553 11.0381778,3.74039036 11.967,5.00023652 L10,5.00023652 C9.44771525,5.00023652 9,5.44795177 9,6.00023652 C9,6.55252127 9.44771525,7.00023652 10,7.00023652 L14,7.00023652 C14.5522847,7.00023652 15,6.55252127 15,6.00023652 L15,2.00023652 C15,1.44795177 14.5522847,1.00023652 14,1.00023652 Z M14.046,8.48123652 C13.7886025,8.41682778 13.5161594,8.45735517 13.2886541,8.59389582 C13.0611489,8.73043646 12.8972346,8.95179548 12.833,9.20923652 C12.2849847,11.4336366 10.2909104,12.9977863 8,13.0002365 C6.4347789,13.0026875 4.96182223,12.2600827 4.033,11.0002365 L6,11.0002365 C6.55228475,11.0002365 7,10.5525213 7,10.0002365 C7,9.44795177 6.55228475,9.00023652 6,9.00023652 L2,9.00023652 C1.44771525,9.00023652 1,9.44795177 1,10.0002365 L1,14.0002365 C1,14.5525213 1.44771525,15.0002365 2,15.0002365 C2.55228475,15.0002365 3,14.5525213 3,14.0002365 L3,12.8542365 C4.75485137,14.6893434 7.37098741,15.4210482 9.82325178,14.7626257 C12.2755162,14.1042032 14.1733231,12.1605242 14.773,9.69323652 C14.9065558,9.15785201 14.5812153,8.6154687 14.046,8.48123652 Z" transform="translate(192 82)"/>
    <path d="M92.7714844,91.6738281 C92.8710938,93.1679688 94.1132812,94.140625 95.90625,94.140625 C97.8515625,94.140625 99.0703125,93.1738281 99.0703125,91.6269531 C99.0703125,90.4140625 98.3613281,89.7402344 96.609375,89.3007812 L95.7246094,89.0664062 C94.5761719,88.7675781 94.1074219,88.3867188 94.1074219,87.7480469 C94.1074219,86.921875 94.8691406,86.3535156 95.9648438,86.3535156 C97.0664062,86.3535156 97.7988281,86.9101562 97.8925781,87.8183594 L98.9472656,87.8183594 C98.9003906,86.4003906 97.6816406,85.4042969 96,85.4042969 C94.2421875,85.4042969 93.0117188,86.3886719 93.0117188,87.7949219 C93.0117188,88.9433594 93.703125,89.6289062 95.2617188,90.0273438 L96.3457031,90.3085938 C97.4824219,90.6015625 97.9804688,91.0410156 97.9804688,91.7558594 C97.9804688,92.5878906 97.1484375,93.1914062 96.0058594,93.1914062 C94.7988281,93.1914062 93.9316406,92.5878906 93.8320312,91.6738281 L92.7714844,91.6738281 Z M100.646484,96.2792969 C101.748047,96.2792969 102.251953,95.8515625 102.773438,94.4277344 L105.169922,87.90625 L104.097656,87.90625 L102.410156,92.9804688 L102.392578,92.9804688 L100.705078,87.90625 L99.6152344,87.90625 L101.865234,94.0058594 L101.724609,94.4335938 C101.490234,95.1425781 101.173828,95.4179688 100.605469,95.4179688 C100.476562,95.4179688 100.318359,95.4121094 100.207031,95.3886719 L100.207031,96.2441406 C100.318359,96.2675781 100.523438,96.2792969 100.646484,96.2792969 Z M105.972656,94 L106.992188,94 L106.992188,90.4140625 C106.992188,89.3828125 107.619141,88.703125 108.580078,88.703125 C109.517578,88.703125 109.980469,89.2421875 109.980469,90.2265625 L109.980469,94 L111,94 L111,90.0449219 C111,88.6621094 110.226562,87.8007812 108.890625,87.8007812 C107.947266,87.8007812 107.296875,88.2226562 106.957031,88.8789062 L106.933594,88.8789062 L106.933594,87.90625 L105.972656,87.90625 L105.972656,94 Z M117.357422,89.9042969 C117.228516,88.8085938 116.320312,87.8007812 114.796875,87.8007812 C113.115234,87.8007812 111.996094,89.03125 111.996094,90.953125 C111.996094,92.9160156 113.121094,94.1054688 114.808594,94.1054688 C116.191406,94.1054688 117.210938,93.25 117.369141,92.0371094 L116.367188,92.0371094 C116.191406,92.7695312 115.646484,93.2089844 114.814453,93.2089844 C113.759766,93.2089844 113.033203,92.3710938 113.033203,90.953125 C113.033203,89.5703125 113.748047,88.6972656 114.802734,88.6972656 C115.699219,88.6972656 116.214844,89.2421875 116.361328,89.9042969 L117.357422,89.9042969 Z"/>
  </g>
</svg>
