<svg xmlns="http://www.w3.org/2000/svg" width="300" height="180" style="background:#f9f9fa" viewBox="0 0 300 180">
  <g fill="#0C0C0D" fill-rule="evenodd">
    <rect width="132" height="32" x="84" y="74" fill-opacity=".1" rx="2"/>
    <path d="M93.5878906,94 L93.5878906,86.8334961 L93.6450195,86.8334961 L98.659668,94 L99.7705078,94 L99.7705078,84.840332 L98.640625,84.840332 L98.640625,92.0322266 L98.5834961,92.0322266 L93.5688477,84.840332 L92.4580078,84.840332 L92.4580078,94 L93.5878906,94 Z M104.112305,94.1142578 C102.28418,94.1142578 101.052734,92.800293 101.052734,90.6992188 C101.052734,88.5917969 102.28418,87.2841797 104.112305,87.2841797 C105.934082,87.2841797 107.165527,88.5917969 107.165527,90.6992188 C107.165527,92.800293 105.934082,94.1142578 104.112305,94.1142578 Z M104.112305,93.1430664 C105.280273,93.1430664 106.041992,92.2543945 106.041992,90.6992188 C106.041992,89.144043 105.280273,88.2553711 104.112305,88.2553711 C102.944336,88.2553711 102.17627,89.144043 102.17627,90.6992188 C102.17627,92.2543945 102.944336,93.1430664 104.112305,93.1430664 Z M108.631836,85.8051758 L108.631836,87.3984375 L107.647949,87.3984375 L107.647949,88.3061523 L108.631836,88.3061523 L108.631836,92.2861328 C108.631836,93.5556641 109.101562,94.0507812 110.313965,94.0507812 C110.574219,94.0507812 110.878906,94.0317383 111.012207,94 L111.012207,93.0732422 C110.936035,93.0859375 110.682129,93.1049805 110.555176,93.1049805 C109.990234,93.1049805 109.736328,92.8320312 109.736328,92.2290039 L109.736328,88.3061523 L111.018555,88.3061523 L111.018555,87.3984375 L109.736328,87.3984375 L109.736328,85.8051758 L108.631836,85.8051758 Z M116.160156,94 L116.160156,86.8334961 L116.217285,86.8334961 L121.231934,94 L122.342773,94 L122.342773,84.840332 L121.212891,84.840332 L121.212891,92.0322266 L121.155762,92.0322266 L116.141113,84.840332 L115.030273,84.840332 L115.030273,94 L116.160156,94 Z M126.68457,94.1142578 C124.856445,94.1142578 123.625,92.800293 123.625,90.6992188 C123.625,88.5917969 124.856445,87.2841797 126.68457,87.2841797 C128.506348,87.2841797 129.737793,88.5917969 129.737793,90.6992188 C129.737793,92.800293 128.506348,94.1142578 126.68457,94.1142578 Z M126.68457,93.1430664 C127.852539,93.1430664 128.614258,92.2543945 128.614258,90.6992188 C128.614258,89.144043 127.852539,88.2553711 126.68457,88.2553711 C125.516602,88.2553711 124.748535,89.144043 124.748535,90.6992188 C124.748535,92.2543945 125.516602,93.1430664 126.68457,93.1430664 Z M139.246582,87.3984375 L138.154785,87.3984375 L136.834473,92.7685547 L136.809082,92.7685547 L135.311035,87.3984375 L134.244629,87.3984375 L132.75293,92.7685547 L132.727539,92.7685547 L131.407227,87.3984375 L130.309082,87.3984375 L132.15625,94 L133.279785,94 L134.765137,88.8901367 L134.790527,88.8901367 L136.282227,94 L137.405762,94 L139.246582,87.3984375 Z"/>
    <path fill-opacity=".8" fill-rule="nonzero" d="M8,12 C7.73426095,11.9999433 7.4794266,11.8943639 7.29154909,11.7064848 L2.2812881,6.69769219 C1.90153816,6.3046233 1.90696912,5.67982062 2.29349452,5.2934085 C2.68001992,4.90699639 3.30500578,4.90156702 3.69818991,5.28120566 L8,9.58175495 L12.3018101,5.28120566 C12.6949942,4.90156702 13.3199801,4.90699639 13.7065055,5.2934085 C14.0930309,5.67982062 14.0984618,6.3046233 13.7187119,6.69769219 L8.70845091,11.7064848 C8.5205734,11.8943639 8.26573905,11.9999433 8,12 Z" transform="translate(192 82)"/>
    <rect width="1" height="24" x="183" y="78" fill-opacity=".2"/>
  </g>
</svg>
