<svg xmlns="http://www.w3.org/2000/svg" width="300" height="180" style="background:#f9f9fa" viewBox="0 0 300 180">
  <g fill="#0C0C0D" fill-rule="evenodd">
    <rect width="132" height="32" x="84" y="74" fill-opacity=".1" rx="2"/>
    <path d="M112.404,94 L110.424,90.496 L109.14,90.496 L109.14,94 L108,94 L108,85.732 L110.172,85.732 C112.236,85.732 113.316,86.524 113.316,88.072 C113.316,89.236 112.716,89.932 111.528,90.292 L113.76,94 L112.404,94 Z M109.14,89.62 L110.292,89.62 C111.444,89.62 112.104,89.188 112.104,88.072 C112.104,87.04 111.516,86.62 110.16,86.62 L109.14,86.62 L109.14,89.62 Z M119.856,90.652 C119.856,90.868 119.844,91.072 119.832,91.216 L115.8,91.216 C115.908,92.68 116.592,93.244 117.504,93.244 C118.128,93.244 118.596,93.076 119.148,92.692 L119.628,93.352 C119.004,93.844 118.296,94.144 117.42,94.144 C115.656,94.144 114.624,92.908 114.624,90.904 C114.624,88.936 115.62,87.532 117.252,87.532 C118.956,87.532 119.856,88.72 119.856,90.652 Z M118.764,90.4 L118.764,90.328 C118.764,89.092 118.272,88.408 117.276,88.408 C116.436,88.408 115.884,88.996 115.8,90.4 L118.764,90.4 Z M123.396,87.532 C122.088,87.532 121.116,88.264 121.116,89.272 C121.116,90.16 121.656,90.748 123.024,91.108 C124.248,91.432 124.56,91.672 124.56,92.296 C124.56,92.896 124.032,93.256 123.204,93.256 C122.52,93.256 121.932,93.028 121.428,92.644 L120.84,93.316 C121.392,93.796 122.16,94.144 123.228,94.144 C124.512,94.144 125.724,93.544 125.724,92.224 C125.724,91.12 124.956,90.592 123.624,90.256 C122.604,89.992 122.268,89.752 122.268,89.236 C122.268,88.732 122.712,88.408 123.432,88.408 C124.02,88.408 124.512,88.588 125.076,88.948 L125.544,88.252 C124.944,87.796 124.284,87.532 123.396,87.532 Z M132.06,90.652 C132.06,90.868 132.048,91.072 132.036,91.216 L128.004,91.216 C128.112,92.68 128.796,93.244 129.708,93.244 C130.332,93.244 130.8,93.076 131.352,92.692 L131.832,93.352 C131.208,93.844 130.5,94.144 129.624,94.144 C127.86,94.144 126.828,92.908 126.828,90.904 C126.828,88.936 127.824,87.532 129.456,87.532 C131.16,87.532 132.06,88.72 132.06,90.652 Z M130.968,90.4 L130.968,90.328 C130.968,89.092 130.476,88.408 129.48,88.408 C128.64,88.408 128.088,88.996 128.004,90.4 L130.968,90.4 Z M136.656,92.956 C136.344,93.148 136.092,93.232 135.816,93.232 C135.264,93.232 135.06,92.932 135.06,92.296 L135.06,88.528 L136.44,88.528 L136.56,87.676 L135.06,87.676 L135.06,86.116 L133.956,86.248 L133.956,87.676 L132.852,87.676 L132.852,88.528 L133.956,88.528 L133.956,92.344 C133.956,93.52 134.592,94.144 135.66,94.144 C136.2,94.144 136.656,94 137.076,93.712 L136.656,92.956 Z M144.168,92.956 C143.856,93.148 143.604,93.232 143.328,93.232 C142.776,93.232 142.572,92.932 142.572,92.296 L142.572,88.528 L143.952,88.528 L144.072,87.676 L142.572,87.676 L142.572,86.116 L141.468,86.248 L141.468,87.676 L140.364,87.676 L140.364,88.528 L141.468,88.528 L141.468,92.344 C141.468,93.52 142.104,94.144 143.172,94.144 C143.712,94.144 144.168,94 144.588,93.712 L144.168,92.956 Z M147.984,87.532 C149.784,87.532 150.792,88.828 150.792,90.832 C150.792,92.788 149.76,94.144 147.972,94.144 C146.172,94.144 145.152,92.848 145.152,90.844 C145.152,88.888 146.184,87.532 147.984,87.532 Z M147.984,88.42 C146.928,88.42 146.34,89.188 146.34,90.844 C146.34,92.488 146.916,93.256 147.972,93.256 C149.028,93.256 149.604,92.488 149.604,90.832 C149.604,89.188 149.028,88.42 147.984,88.42 Z M157.584,85.732 C159.696,85.732 161.724,86.392 161.724,89.824 C161.724,93.196 159.624,94 157.836,94 L155.856,94 L155.856,85.732 L157.584,85.732 Z M157.836,86.644 L156.996,86.644 L156.996,93.1 L157.92,93.1 C159.216,93.1 160.512,92.548 160.512,89.824 C160.512,87.028 159.156,86.644 157.836,86.644 Z M168.3,90.652 C168.3,90.868 168.288,91.072 168.276,91.216 L164.244,91.216 C164.352,92.68 165.036,93.244 165.948,93.244 C166.572,93.244 167.04,93.076 167.592,92.692 L168.072,93.352 C167.448,93.844 166.74,94.144 165.864,94.144 C164.1,94.144 163.068,92.908 163.068,90.904 C163.068,88.936 164.064,87.532 165.696,87.532 C167.4,87.532 168.3,88.72 168.3,90.652 Z M167.208,90.4 L167.208,90.328 C167.208,89.092 166.716,88.408 165.72,88.408 C164.88,88.408 164.328,88.996 164.244,90.4 L167.208,90.4 Z M172.272,85.888 C171.576,85.888 171.336,86.188 171.336,86.8 L171.336,87.676 L172.872,87.676 L172.752,88.528 L171.336,88.528 L171.336,94 L170.232,94 L170.232,88.528 L169.104,88.528 L169.104,87.676 L170.232,87.676 L170.232,86.812 C170.232,85.756 170.928,85 172.212,85 C172.812,85 173.22,85.108 173.724,85.324 L173.376,86.128 C172.968,85.948 172.596,85.888 172.272,85.888 Z M178.404,92.524 C178.404,93.076 178.608,93.256 178.932,93.376 L178.68,94.144 C178.044,94.072 177.636,93.82 177.444,93.196 C177,93.856 176.328,94.144 175.56,94.144 C174.3,94.144 173.544,93.364 173.544,92.236 C173.544,90.88 174.564,90.148 176.328,90.148 L177.3,90.148 L177.3,89.68 C177.3,88.768 176.856,88.432 175.98,88.432 C175.512,88.432 174.924,88.552 174.276,88.768 L174,87.964 C174.78,87.676 175.476,87.532 176.184,87.532 C177.708,87.532 178.404,88.312 178.404,89.632 L178.404,92.524 Z M175.812,93.316 C176.46,93.316 176.94,92.992 177.3,92.332 L177.3,90.88 L176.472,90.88 C175.308,90.88 174.72,91.312 174.72,92.176 C174.72,92.92 175.092,93.316 175.812,93.316 Z M185.376,87.676 L184.272,87.676 L184.272,92.188 C183.888,92.824 183.372,93.28 182.688,93.28 C182.004,93.28 181.716,92.956 181.716,92.092 L181.716,87.676 L180.612,87.676 L180.612,92.212 C180.612,93.448 181.272,94.144 182.376,94.144 C183.276,94.144 183.864,93.784 184.344,93.016 L184.428,94 L185.376,94 L185.376,87.676 Z M188.916,94.144 C189.24,94.144 189.552,94.06 189.792,93.928 L189.504,93.16 C189.384,93.208 189.252,93.232 189.096,93.232 C188.808,93.232 188.7,93.064 188.7,92.728 L188.7,85 L187.596,85.132 L187.596,92.752 C187.596,93.652 188.112,94.144 188.916,94.144 Z M193.944,92.956 C193.632,93.148 193.38,93.232 193.104,93.232 C192.552,93.232 192.348,92.932 192.348,92.296 L192.348,88.528 L193.728,88.528 L193.848,87.676 L192.348,87.676 L192.348,86.116 L191.244,86.248 L191.244,87.676 L190.14,87.676 L190.14,88.528 L191.244,88.528 L191.244,92.344 C191.244,93.52 191.88,94.144 192.948,94.144 C193.488,94.144 193.944,94 194.364,93.712 L193.944,92.956 Z"/>
  </g>
</svg>
