<?xml version="1.0" encoding="UTF-8" standalone="no"?>
<svg width="100px" height="24px" viewBox="0 0 100 24" version="1.1" xmlns="http://www.w3.org/2000/svg" xmlns:xlink="http://www.w3.org/1999/xlink" xmlns:sketch="http://www.bohemiancoding.com/sketch/ns">
    <!-- Generator: Sketch 3.4.4 (17249) - http://www.bohemiancoding.com/sketch -->
    <title>button - hover</title>
    <desc>Created with Sketch.</desc>
    <defs></defs>
    <g id="All-Screens" stroke="none" stroke-width="1" fill="none" fill-rule="evenodd" sketch:type="MSPage">
        <g id="button---hover" sketch:type="MSLayerGroup">
            <rect id="Button-Shape" stroke="#B1B1B1" fill="#F0F0F0" sketch:type="MSShapeGroup" x="0" y="0" width="100" height="24"></rect>
            <path d="M32.8486328,16.8642578 C34.9472656,16.8642578 36.1914062,15.8320312 36.1914062,14.0957031 C36.1914062,12.7900391 35.3369141,11.8671875 33.9902344,11.6962891 L33.9902344,11.5869141 C34.9404297,11.4160156 35.6923828,10.4863281 35.6923828,9.4609375 C35.6923828,7.95019531 34.5849609,7 32.7734375,7 L29,7 L29,16.8642578 L32.8486328,16.8642578 Z M30.2304688,8.08691406 L32.5136719,8.08691406 C33.7373047,8.08691406 34.4482422,8.66796875 34.4482422,9.67285156 C34.4482422,10.71875 33.6894531,11.2519531 32.1992188,11.2519531 L30.2304688,11.2519531 L30.2304688,8.08691406 Z M30.2304688,15.7773438 L30.2304688,12.3115234 L32.5478516,12.3115234 C34.1201172,12.3115234 34.9267578,12.8925781 34.9267578,14.0341797 C34.9267578,15.1757812 34.1474609,15.7773438 32.6640625,15.7773438 L30.2304688,15.7773438 Z M43.8613281,9.49511719 L42.6855469,9.49511719 L42.6855469,13.8564453 C42.6855469,15.1484375 41.9746094,15.9208984 40.6757812,15.9208984 C39.5,15.9208984 39.0078125,15.3056641 39.0078125,13.9794922 L39.0078125,9.49511719 L37.8320312,9.49511719 L37.8320312,14.2666016 C37.8320312,16.0097656 38.6933594,16.9941406 40.3476562,16.9941406 C41.4755859,16.9941406 42.2617188,16.5292969 42.6308594,15.7089844 L42.7402344,15.7089844 L42.7402344,16.8642578 L43.8613281,16.8642578 L43.8613281,9.49511719 Z M46.4179688,7.58789062 L46.4179688,9.49511719 L45.2285156,9.49511719 L45.2285156,10.4794922 L46.4179688,10.4794922 L46.4179688,14.9501953 C46.4179688,16.3583984 47.0263672,16.9189453 48.5439453,16.9189453 C48.7763672,16.9189453 49.0019531,16.8916016 49.234375,16.8505859 L49.234375,15.859375 C49.015625,15.8798828 48.8994141,15.8867188 48.6875,15.8867188 C47.921875,15.8867188 47.59375,15.5175781 47.59375,14.6494141 L47.59375,10.4794922 L49.234375,10.4794922 L49.234375,9.49511719 L47.59375,9.49511719 L47.59375,7.58789062 L46.4179688,7.58789062 Z M51.3535156,7.58789062 L51.3535156,9.49511719 L50.1640625,9.49511719 L50.1640625,10.4794922 L51.3535156,10.4794922 L51.3535156,14.9501953 C51.3535156,16.3583984 51.9619141,16.9189453 53.4794922,16.9189453 C53.7119141,16.9189453 53.9375,16.8916016 54.1699219,16.8505859 L54.1699219,15.859375 C53.9511719,15.8798828 53.8349609,15.8867188 53.6230469,15.8867188 C52.8574219,15.8867188 52.5292969,15.5175781 52.5292969,14.6494141 L52.5292969,10.4794922 L54.1699219,10.4794922 L54.1699219,9.49511719 L52.5292969,9.49511719 L52.5292969,7.58789062 L51.3535156,7.58789062 Z M58.7226562,15.9345703 C57.328125,15.9345703 56.5419922,14.9228516 56.5419922,13.1796875 C56.5419922,11.4296875 57.328125,10.4248047 58.7226562,10.4248047 C60.1171875,10.4248047 60.9033203,11.4296875 60.9033203,13.1796875 C60.9033203,14.9228516 60.1171875,15.9345703 58.7226562,15.9345703 L58.7226562,15.9345703 Z M58.7226562,16.9941406 C60.8212891,16.9941406 62.1201172,15.5449219 62.1201172,13.1796875 C62.1201172,10.8076172 60.8212891,9.36523438 58.7226562,9.36523438 C56.6240234,9.36523438 55.3251953,10.8076172 55.3251953,13.1796875 C55.3251953,15.5449219 56.6240234,16.9941406 58.7226562,16.9941406 L58.7226562,16.9941406 Z M63.8154297,16.8642578 L64.9912109,16.8642578 L64.9912109,12.5029297 C64.9912109,11.2109375 65.75,10.4248047 66.9257812,10.4248047 C68.1015625,10.4248047 68.6621094,11.0537109 68.6621094,12.3798828 L68.6621094,16.8642578 L69.8378906,16.8642578 L69.8378906,12.0927734 C69.8378906,10.3427734 68.9150391,9.36523438 67.2607422,9.36523438 C66.1328125,9.36523438 65.4150391,9.84375 65.0458984,10.6572266 L64.9365234,10.6572266 L64.9365234,9.49511719 L63.8154297,9.49511719 L63.8154297,16.8642578 Z" id="Button" fill="#000000" sketch:type="MSShapeGroup"></path>
        </g>
    </g>
</svg>