<svg xmlns="http://www.w3.org/2000/svg" width="300" height="180" style="background:#f9f9fa" viewBox="0 0 300 180">
  <g fill="none" fill-rule="evenodd">
    <rect width="132" height="32" x="84" y="74" fill="#0A84FF" rx="2"/>
    <path fill="#FFF" d="M138.928,85.732 C141.04,85.732 143.068,86.392 143.068,89.824 C143.068,93.196 140.968,94 139.18,94 L137.2,94 L137.2,85.732 L138.928,85.732 Z M139.18,86.644 L138.34,86.644 L138.34,93.1 L139.264,93.1 C140.56,93.1 141.856,92.548 141.856,89.824 C141.856,87.028 140.5,86.644 139.18,86.644 Z M147.244,87.532 C149.044,87.532 150.052,88.828 150.052,90.832 C150.052,92.788 149.02,94.144 147.232,94.144 C145.432,94.144 144.412,92.848 144.412,90.844 C144.412,88.888 145.444,87.532 147.244,87.532 Z M147.244,88.42 C146.188,88.42 145.6,89.188 145.6,90.844 C145.6,92.488 146.176,93.256 147.232,93.256 C148.288,93.256 148.864,92.488 148.864,90.832 C148.864,89.188 148.288,88.42 147.244,88.42 Z M154.852,87.532 C154.024,87.532 153.352,87.964 152.92,88.612 L152.824,87.676 L151.876,87.676 L151.876,94 L152.98,94 L152.98,89.512 C153.4,88.84 153.88,88.396 154.588,88.396 C155.2,88.396 155.584,88.672 155.584,89.62 L155.584,94 L156.688,94 L156.688,89.464 C156.688,88.264 156.016,87.532 154.852,87.532 Z M163.684,90.652 C163.684,90.868 163.672,91.072 163.66,91.216 L159.628,91.216 C159.736,92.68 160.42,93.244 161.332,93.244 C161.956,93.244 162.424,93.076 162.976,92.692 L163.456,93.352 C162.832,93.844 162.124,94.144 161.248,94.144 C159.484,94.144 158.452,92.908 158.452,90.904 C158.452,88.936 159.448,87.532 161.08,87.532 C162.784,87.532 163.684,88.72 163.684,90.652 Z M162.592,90.4 L162.592,90.328 C162.592,89.092 162.1,88.408 161.104,88.408 C160.264,88.408 159.712,88.996 159.628,90.4 L162.592,90.4 Z"/>
  </g>
</svg>
