<svg xmlns="http://www.w3.org/2000/svg" width="300" height="180" style="background:#f9f9fa" viewBox="0 0 300 180">
  <g fill="#0C0C0D" fill-rule="evenodd">
    <rect width="132" height="32" x="84" y="74" fill-opacity=".1" rx="2"/>
    <path d="M95.2734375,94 L95.2734375,87.3847656 L95.3261719,87.3847656 L99.9550781,94 L100.980469,94 L100.980469,85.5449219 L99.9375,85.5449219 L99.9375,92.1835938 L99.8847656,92.1835938 L95.2558594,85.5449219 L94.2304688,85.5449219 L94.2304688,94 L95.2734375,94 Z M104.988281,94.1054688 C103.300781,94.1054688 102.164062,92.8925781 102.164062,90.953125 C102.164062,89.0078125 103.300781,87.8007812 104.988281,87.8007812 C106.669922,87.8007812 107.806641,89.0078125 107.806641,90.953125 C107.806641,92.8925781 106.669922,94.1054688 104.988281,94.1054688 Z M104.988281,93.2089844 C106.066406,93.2089844 106.769531,92.3886719 106.769531,90.953125 C106.769531,89.5175781 106.066406,88.6972656 104.988281,88.6972656 C103.910156,88.6972656 103.201172,89.5175781 103.201172,90.953125 C103.201172,92.3886719 103.910156,93.2089844 104.988281,93.2089844 Z M109.160156,86.4355469 L109.160156,87.90625 L108.251953,87.90625 L108.251953,88.7441406 L109.160156,88.7441406 L109.160156,92.4179688 C109.160156,93.5898438 109.59375,94.046875 110.712891,94.046875 C110.953125,94.046875 111.234375,94.0292969 111.357422,94 L111.357422,93.1445312 C111.287109,93.15625 111.052734,93.1738281 110.935547,93.1738281 C110.414062,93.1738281 110.179688,92.921875 110.179688,92.3652344 L110.179688,88.7441406 L111.363281,88.7441406 L111.363281,87.90625 L110.179688,87.90625 L110.179688,86.4355469 L109.160156,86.4355469 Z M116.109375,94 L116.109375,87.3847656 L116.162109,87.3847656 L120.791016,94 L121.816406,94 L121.816406,85.5449219 L120.773438,85.5449219 L120.773438,92.1835938 L120.720703,92.1835938 L116.091797,85.5449219 L115.066406,85.5449219 L115.066406,94 L116.109375,94 Z M125.824219,94.1054688 C124.136719,94.1054688 123,92.8925781 123,90.953125 C123,89.0078125 124.136719,87.8007812 125.824219,87.8007812 C127.505859,87.8007812 128.642578,89.0078125 128.642578,90.953125 C128.642578,92.8925781 127.505859,94.1054688 125.824219,94.1054688 Z M125.824219,93.2089844 C126.902344,93.2089844 127.605469,92.3886719 127.605469,90.953125 C127.605469,89.5175781 126.902344,88.6972656 125.824219,88.6972656 C124.746094,88.6972656 124.037109,89.5175781 124.037109,90.953125 C124.037109,92.3886719 124.746094,93.2089844 125.824219,93.2089844 Z M137.419922,87.90625 L136.412109,87.90625 L135.193359,92.8632812 L135.169922,92.8632812 L133.787109,87.90625 L132.802734,87.90625 L131.425781,92.8632812 L131.402344,92.8632812 L130.183594,87.90625 L129.169922,87.90625 L130.875,94 L131.912109,94 L133.283203,89.2832031 L133.306641,89.2832031 L134.683594,94 L135.720703,94 L137.419922,87.90625 Z"/>
    <path fill-opacity=".8" fill-rule="nonzero" d="M8,12 C7.73426095,11.9999433 7.4794266,11.8943639 7.29154909,11.7064848 L2.2812881,6.69769219 C1.90153816,6.3046233 1.90696912,5.67982062 2.29349452,5.2934085 C2.68001992,4.90699639 3.30500578,4.90156702 3.69818991,5.28120566 L8,9.58175495 L12.3018101,5.28120566 C12.6949942,4.90156702 13.3199801,4.90699639 13.7065055,5.2934085 C14.0930309,5.67982062 14.0984618,6.3046233 13.7187119,6.69769219 L8.70845091,11.7064848 C8.5205734,11.8943639 8.26573905,11.9999433 8,12 Z" transform="translate(192 82)"/>
    <rect width="1" height="24" x="183" y="78" fill-opacity=".3"/>
  </g>
</svg>
