<svg xmlns="http://www.w3.org/2000/svg" width="300" height="180" style="background:#f9f9fa" viewBox="0 0 300 180">
  <g fill="#0C0C0D" fill-rule="evenodd">
    <rect width="132" height="32" x="84" y="74" fill-opacity=".1" rx="2"/>
    <path d="M94.5898438,94 L95.609375,94 L95.609375,85.5449219 L94.578125,85.5449219 L92.328125,87.1621094 L92.328125,88.2753906 L94.5664062,86.6640625 L94.5898438,86.6640625 L94.5898438,94 Z M100.8125,94.1464844 C99.546875,94.1464844 98.5390625,93.4609375 98.0175781,92.2421875 C97.7363281,91.5917969 97.6015625,90.8300781 97.6015625,89.9160156 C97.6015625,87.0683594 98.8144531,85.3984375 100.882812,85.3984375 C102.318359,85.3984375 103.419922,86.2597656 103.689453,87.5898438 L102.617188,87.5898438 C102.388672,86.8222656 101.708984,86.3300781 100.871094,86.3300781 C99.4589844,86.3300781 98.65625,87.5839844 98.6210938,89.8339844 L98.6386719,89.8339844 C99.0195312,89.0078125 99.9511719,88.4628906 101,88.4628906 C102.611328,88.4628906 103.806641,89.6523438 103.806641,91.2578125 C103.806641,92.9277344 102.546875,94.1464844 100.8125,94.1464844 Z M100.800781,93.2089844 C101.878906,93.2089844 102.734375,92.359375 102.734375,91.2929688 C102.734375,90.1855469 101.9375,89.3886719 100.818359,89.3886719 C99.6992188,89.3886719 98.8730469,90.1855469 98.8730469,91.2636719 C98.8730469,92.3476562 99.7167969,93.2089844 100.800781,93.2089844 Z"/>
    <path fill-opacity=".8" fill-rule="nonzero" d="M8,12 C7.73426095,11.9999433 7.4794266,11.8943639 7.29154909,11.7064848 L2.2812881,6.69769219 C1.90153816,6.3046233 1.90696912,5.67982062 2.29349452,5.2934085 C2.68001992,4.90699639 3.30500578,4.90156702 3.69818991,5.28120566 L8,9.58175495 L12.3018101,5.28120566 C12.6949942,4.90156702 13.3199801,4.90699639 13.7065055,5.2934085 C14.0930309,5.67982062 14.0984618,6.3046233 13.7187119,6.69769219 L8.70845091,11.7064848 C8.5205734,11.8943639 8.26573905,11.9999433 8,12 Z" transform="translate(192 82)"/>
  </g>
</svg>
