<svg xmlns="http://www.w3.org/2000/svg" width="300" height="180" style="background:#f9f9fa" viewBox="0 0 300 180">
  <g fill="none" fill-rule="evenodd">
    <rect width="142" height="48" x="79" y="66" fill="#0060DF" rx="4"/>
    <path fill="#FFF" d="M96.7272949,84.4311523 L95.4089355,84.4311523 L95.4089355,91.2939453 C95.4089355,93.5498047 96.9836426,95.1757812 99.6057129,95.1757812 C102.227783,95.1757812 103.80249,93.5498047 103.80249,91.2939453 L103.80249,84.4311523 L102.484131,84.4311523 L102.484131,91.2060547 C102.484131,92.8027344 101.436768,93.9599609 99.6057129,93.9599609 C97.7746582,93.9599609 96.7272949,92.8027344 96.7272949,91.2060547 L96.7272949,84.4311523 Z M109.354248,87.2509766 C111.295166,87.2509766 112.613525,88.8037109 112.613525,91.1914062 C112.613525,93.5791016 111.30249,95.1318359 109.383545,95.1318359 C108.292236,95.1318359 107.41333,94.597168 106.959229,93.762207 L106.929932,93.762207 L106.929932,97.5415039 L105.655518,97.5415039 L105.655518,87.3828125 L106.864014,87.3828125 L106.864014,88.671875 L106.893311,88.671875 C107.362061,87.8149414 108.248291,87.2509766 109.354248,87.2509766 Z M109.105225,94.0112305 C110.460205,94.0112305 111.309814,92.9199219 111.309814,91.1914062 C111.309814,89.4702148 110.460205,88.371582 109.105225,88.371582 C107.801514,88.371582 106.922607,89.4995117 106.922607,91.1914062 C106.922607,92.890625 107.801514,94.0112305 109.105225,94.0112305 Z M116.781006,95.1318359 C114.840088,95.1318359 113.521729,93.5791016 113.521729,91.1914062 C113.521729,88.8037109 114.832764,87.2509766 116.751709,87.2509766 C117.843018,87.2509766 118.721924,87.7856445 119.176025,88.6206055 L119.205322,88.6206055 L119.205322,84.4311523 L120.479736,84.4311523 L120.479736,95 L119.263916,95 L119.263916,93.7109375 L119.241943,93.7109375 C118.751221,94.5898438 117.879639,95.1318359 116.781006,95.1318359 Z M117.022705,88.371582 C115.675049,88.371582 114.825439,89.4702148 114.825439,91.1914062 C114.825439,92.9199219 115.675049,94.0112305 117.022705,94.0112305 C118.33374,94.0112305 119.212646,92.8979492 119.212646,91.1914062 C119.212646,89.4921875 118.33374,88.371582 117.022705,88.371582 Z M124.713135,94.0478516 C125.914307,94.0478516 126.837158,93.2055664 126.837158,92.1069336 L126.837158,91.484375 L124.801025,91.6088867 C123.775635,91.6748047 123.189697,92.1289062 123.189697,92.8466797 C123.189697,93.5717773 123.797607,94.0478516 124.713135,94.0478516 Z M124.42749,95.1318359 C122.911377,95.1318359 121.893311,94.2163086 121.893311,92.8466797 C121.893311,91.5429688 122.896729,90.7226562 124.654541,90.6201172 L126.837158,90.4956055 L126.837158,89.8583984 C126.837158,88.9282227 126.221924,88.371582 125.167236,88.371582 C124.185791,88.371582 123.570557,88.8330078 123.409424,89.5800781 L122.178955,89.5800781 C122.266846,88.2617188 123.394775,87.2509766 125.196533,87.2509766 C126.983643,87.2509766 128.111572,88.2177734 128.111572,89.7338867 L128.111572,95 L126.903076,95 L126.903076,93.6889648 L126.873779,93.6889648 C126.419678,94.5605469 125.452881,95.1318359 124.42749,95.1318359 Z M130.140381,85.5444336 L130.140381,87.3828125 L129.005127,87.3828125 L129.005127,88.4301758 L130.140381,88.4301758 L130.140381,93.0224609 C130.140381,94.4873047 130.682373,95.0585938 132.081299,95.0585938 C132.381592,95.0585938 132.733154,95.0366211 132.886963,95 L132.886963,93.9306641 C132.799072,93.9453125 132.506104,93.9672852 132.359619,93.9672852 C131.707764,93.9672852 131.414795,93.6523438 131.414795,92.956543 L131.414795,88.4301758 L132.894287,88.4301758 L132.894287,87.3828125 L131.414795,87.3828125 L131.414795,85.5444336 L130.140381,85.5444336 Z M137.08374,88.3569336 C135.889893,88.3569336 135.054932,89.2724609 134.974365,90.5395508 L139.112549,90.5395508 C139.083252,89.2651367 138.284912,88.3569336 137.08374,88.3569336 Z M139.083252,92.8173828 L140.335693,92.8173828 C140.115967,94.1503906 138.826904,95.1318359 137.164307,95.1318359 C134.981689,95.1318359 133.656006,93.6157227 133.656006,91.2207031 C133.656006,88.8549805 135.003662,87.2509766 137.105713,87.2509766 C139.163818,87.2509766 140.430908,88.7451172 140.430908,91.0522461 L140.430908,91.5356445 L134.967041,91.5356445 L134.967041,91.6088867 C134.967041,93.0664062 135.823975,94.0258789 137.193604,94.0258789 C138.1604,94.0258789 138.87085,93.5351562 139.083252,92.8173828 Z M144.788818,95 L146.063232,95 L146.063232,90.2246094 C146.063232,89.1699219 146.795654,88.3789062 147.806396,88.3789062 C148.751221,88.3789062 149.366455,88.9794922 149.366455,89.8950195 L149.366455,95 L150.640869,95 L150.640869,90.1586914 C150.640869,89.1259766 151.351318,88.3789062 152.362061,88.3789062 C153.365479,88.3789062 153.944092,88.9941406 153.944092,90.0341797 L153.944092,95 L155.218506,95 L155.218506,89.7412109 C155.218506,88.2324219 154.244385,87.2509766 152.735596,87.2509766 C151.66626,87.2509766 150.772705,87.7929688 150.3479,88.7011719 L150.318604,88.7011719 C149.989014,87.7783203 149.219971,87.2509766 148.179932,87.2509766 C147.154541,87.2509766 146.378174,87.7929688 146.019287,88.5986328 L145.98999,88.5986328 L145.98999,87.3828125 L144.788818,87.3828125 L144.788818,95 Z M157.467041,97.8491211 C158.843994,97.8491211 159.473877,97.3144531 160.125732,95.534668 L163.121338,87.3828125 L161.781006,87.3828125 L159.671631,93.7255859 L159.649658,93.7255859 L157.540283,87.3828125 L156.177979,87.3828125 L158.990479,95.0073242 L158.814697,95.5419922 C158.521729,96.4282227 158.126221,96.7724609 157.415771,96.7724609 C157.254639,96.7724609 157.056885,96.7651367 156.917725,96.7358398 L156.917725,97.8051758 C157.056885,97.8344727 157.313232,97.8491211 157.467041,97.8491211 Z M167.398682,84.4311523 L171.170654,84.4311523 C173.155518,84.4311523 174.554443,85.8227539 174.554443,87.8222656 C174.554443,89.8291016 173.140869,91.2280273 171.156006,91.2280273 L168.717041,91.2280273 L168.717041,95 L167.398682,95 L167.398682,84.4311523 Z M168.717041,85.6030273 L168.717041,90.0561523 L170.826416,90.0561523 C172.335205,90.0561523 173.199463,89.2285156 173.199463,87.8222656 C173.199463,86.4233398 172.342529,85.6030273 170.826416,85.6030273 L168.717041,85.6030273 Z M175.865479,95 L177.139893,95 L177.139893,90.2539062 C177.139893,89.1772461 177.784424,88.4667969 178.773193,88.4667969 C179.080811,88.4667969 179.351807,88.503418 179.454346,88.5400391 L179.454346,87.3022461 C179.351807,87.2875977 179.161377,87.2509766 178.94165,87.2509766 C178.048096,87.2509766 177.344971,87.7856445 177.095947,88.6279297 L177.06665,88.6279297 L177.06665,87.3828125 L175.865479,87.3828125 L175.865479,95 Z M183.277588,95.1318359 C181.168213,95.1318359 179.747314,93.6157227 179.747314,91.1914062 C179.747314,88.7597656 181.168213,87.2509766 183.277588,87.2509766 C185.379639,87.2509766 186.800537,88.7597656 186.800537,91.1914062 C186.800537,93.6157227 185.379639,95.1318359 183.277588,95.1318359 Z M183.277588,94.0112305 C184.625244,94.0112305 185.50415,92.9858398 185.50415,91.1914062 C185.50415,89.3969727 184.625244,88.371582 183.277588,88.371582 C181.929932,88.371582 181.043701,89.3969727 181.043701,91.1914062 C181.043701,92.9858398 181.929932,94.0112305 183.277588,94.0112305 Z M188.492432,95 L189.766846,95 L189.766846,88.4301758 L191.31958,88.4301758 L191.31958,87.3828125 L189.759521,87.3828125 L189.759521,86.5405273 C189.759521,85.7861328 190.089111,85.4199219 190.777588,85.4199219 C190.98999,85.4199219 191.202393,85.4418945 191.356201,85.4638672 L191.356201,84.4311523 C191.173096,84.4018555 190.865479,84.3725586 190.579834,84.3725586 C189.173584,84.3725586 188.492432,85.0683594 188.492432,86.5332031 L188.492432,87.3828125 L187.43042,87.3828125 L187.43042,88.4301758 L188.492432,88.4301758 L188.492432,95 Z M192.703857,95 L193.978271,95 L193.978271,87.3828125 L192.703857,87.3828125 L192.703857,95 Z M193.341064,86.1010742 C193.780518,86.1010742 194.139404,85.7421875 194.139404,85.3100586 C194.139404,84.8706055 193.780518,84.519043 193.341064,84.519043 C192.908936,84.519043 192.550049,84.8706055 192.550049,85.3100586 C192.550049,85.7421875 192.908936,86.1010742 193.341064,86.1010742 Z M195.765381,95 L197.039795,95 L197.039795,84.4311523 L195.765381,84.4311523 L195.765381,95 Z M201.815186,88.3569336 C200.621338,88.3569336 199.786377,89.2724609 199.705811,90.5395508 L203.843994,90.5395508 C203.814697,89.2651367 203.016357,88.3569336 201.815186,88.3569336 Z M203.814697,92.8173828 L205.067139,92.8173828 C204.847412,94.1503906 203.55835,95.1318359 201.895752,95.1318359 C199.713135,95.1318359 198.387451,93.6157227 198.387451,91.2207031 C198.387451,88.8549805 199.735107,87.2509766 201.837158,87.2509766 C203.895264,87.2509766 205.162354,88.7451172 205.162354,91.0522461 L205.162354,91.5356445 L199.698486,91.5356445 L199.698486,91.6088867 C199.698486,93.0664062 200.55542,94.0258789 201.925049,94.0258789 C202.891846,94.0258789 203.602295,93.5351562 203.814697,92.8173828 Z"/>
  </g>
</svg>
