<svg xmlns="http://www.w3.org/2000/svg" width="300" height="180" style="background:#f9f9fa" viewBox="0 0 300 180">
  <g fill="none" fill-rule="evenodd">
    <rect width="80" height="24" x="110" y="78" fill="#0060DF" rx="2"/>
    <path fill="#FFF" d="M117.523682,91.8676758 C117.61499,93.2373047 118.753662,94.1289062 120.397217,94.1289062 C122.18042,94.1289062 123.297607,93.2426758 123.297607,91.824707 C123.297607,90.7128906 122.647705,90.0952148 121.041748,89.6923828 L120.230713,89.4775391 C119.177979,89.2036133 118.748291,88.8544922 118.748291,88.269043 C118.748291,87.5117188 119.446533,86.9907227 120.450928,86.9907227 C121.460693,86.9907227 122.13208,87.5009766 122.218018,88.3334961 L123.184814,88.3334961 C123.141846,87.0336914 122.024658,86.1206055 120.483154,86.1206055 C118.871826,86.1206055 117.743896,87.0229492 117.743896,88.3120117 C117.743896,89.3647461 118.377686,89.9931641 119.806396,90.3583984 L120.800049,90.6162109 C121.842041,90.8847656 122.298584,91.2875977 122.298584,91.9428711 C122.298584,92.7055664 121.535889,93.2587891 120.488525,93.2587891 C119.38208,93.2587891 118.587158,92.7055664 118.49585,91.8676758 L117.523682,91.8676758 Z M125.263428,90.8955078 L125.263428,86.2495117 L124.328857,86.2495117 L124.328857,94 L125.263428,94 L125.263428,91.8945312 L125.784424,91.4003906 L127.857666,94 L128.942627,94 L126.445068,90.8256836 L128.867432,88.4140625 L127.734131,88.4140625 L125.263428,90.8955078 Z M129.667725,94 L130.602295,94 L130.602295,88.4140625 L129.667725,88.4140625 L129.667725,94 Z M130.13501,87.4741211 C130.457275,87.4741211 130.720459,87.2109375 130.720459,86.894043 C130.720459,86.5717773 130.457275,86.3139648 130.13501,86.3139648 C129.818115,86.3139648 129.554932,86.5717773 129.554932,86.894043 C129.554932,87.2109375 129.818115,87.4741211 130.13501,87.4741211 Z M134.576904,88.3173828 C136.000244,88.3173828 136.967041,89.4560547 136.967041,91.2070312 C136.967041,92.9580078 136.005615,94.0966797 134.598389,94.0966797 C133.798096,94.0966797 133.153564,93.7045898 132.820557,93.0922852 L132.799072,93.0922852 L132.799072,95.8637695 L131.864502,95.8637695 L131.864502,88.4140625 L132.750732,88.4140625 L132.750732,89.359375 L132.772217,89.359375 C133.115967,88.730957 133.765869,88.3173828 134.576904,88.3173828 Z M134.394287,93.2749023 C135.387939,93.2749023 136.010986,92.4746094 136.010986,91.2070312 C136.010986,89.9448242 135.387939,89.1391602 134.394287,89.1391602 C133.438232,89.1391602 132.793701,89.9663086 132.793701,91.2070312 C132.793701,92.453125 133.438232,93.2749023 134.394287,93.2749023 Z M143.235107,94 L143.235107,87.1196289 L145.678955,87.1196289 L145.678955,86.2495117 L139.824463,86.2495117 L139.824463,87.1196289 L142.268311,87.1196289 L142.268311,94 L143.235107,94 Z M146.602783,94 L147.537354,94 L147.537354,90.7451172 C147.537354,89.7783203 148.112061,89.1445312 149.04126,89.1445312 C149.916748,89.1445312 150.362549,89.6762695 150.362549,90.5625 L150.362549,94 L151.297119,94 L151.297119,90.390625 C151.297119,89.1445312 150.555908,88.3173828 149.331299,88.3173828 C148.482666,88.3173828 147.870361,88.6826172 147.558838,89.3056641 L147.537354,89.3056641 L147.537354,86.2495117 L146.602783,86.2495117 L146.602783,94 Z M152.532471,94 L153.467041,94 L153.467041,88.4140625 L152.532471,88.4140625 L152.532471,94 Z M152.999756,87.4741211 C153.322021,87.4741211 153.585205,87.2109375 153.585205,86.894043 C153.585205,86.5717773 153.322021,86.3139648 152.999756,86.3139648 C152.682861,86.3139648 152.419678,86.5717773 152.419678,86.894043 C152.419678,87.2109375 152.682861,87.4741211 152.999756,87.4741211 Z M154.632568,89.9555664 C154.632568,90.7182617 155.115967,91.2231445 156.098877,91.4755859 L157.081787,91.7280273 C157.710205,91.8945312 157.941162,92.109375 157.941162,92.5068359 C157.941162,93.0117188 157.473877,93.3339844 156.716553,93.3339844 C155.959229,93.3339844 155.518799,93.0224609 155.416748,92.4423828 L154.482178,92.4423828 C154.578857,93.4306641 155.432861,94.0966797 156.657471,94.0966797 C157.962646,94.0966797 158.881104,93.4091797 158.881104,92.4370117 C158.881104,91.6152344 158.4729,91.2070312 157.344971,90.9223633 L156.480225,90.7128906 C155.846436,90.5517578 155.551025,90.2939453 155.551025,89.9072266 C155.551025,89.418457 156.002197,89.0800781 156.684326,89.0800781 C157.371826,89.0800781 157.806885,89.4130859 157.871338,89.9501953 L158.762939,89.9501953 C158.719971,89.0048828 157.871338,88.3173828 156.716553,88.3173828 C155.486572,88.3173828 154.632568,88.9995117 154.632568,89.9555664 Z M161.878174,91.8676758 C161.969482,93.2373047 163.108154,94.1289062 164.751709,94.1289062 C166.534912,94.1289062 167.6521,93.2426758 167.6521,91.824707 C167.6521,90.7128906 167.002197,90.0952148 165.39624,89.6923828 L164.585205,89.4775391 C163.532471,89.2036133 163.102783,88.8544922 163.102783,88.269043 C163.102783,87.5117188 163.801025,86.9907227 164.80542,86.9907227 C165.815186,86.9907227 166.486572,87.5009766 166.57251,88.3334961 L167.539307,88.3334961 C167.496338,87.0336914 166.37915,86.1206055 164.837646,86.1206055 C163.226318,86.1206055 162.098389,87.0229492 162.098389,88.3120117 C162.098389,89.3647461 162.732178,89.9931641 164.160889,90.3583984 L165.154541,90.6162109 C166.196533,90.8847656 166.653076,91.2875977 166.653076,91.9428711 C166.653076,92.7055664 165.890381,93.2587891 164.843018,93.2587891 C163.736572,93.2587891 162.94165,92.7055664 162.850342,91.8676758 L161.878174,91.8676758 Z M168.935791,87.065918 L168.935791,88.4140625 L168.103271,88.4140625 L168.103271,89.1821289 L168.935791,89.1821289 L168.935791,92.5498047 C168.935791,93.6240234 169.333252,94.0429688 170.359131,94.0429688 C170.579346,94.0429688 170.837158,94.0268555 170.949951,94 L170.949951,93.2158203 C170.885498,93.2265625 170.670654,93.2426758 170.563232,93.2426758 C170.085205,93.2426758 169.870361,93.0117188 169.870361,92.5014648 L169.870361,89.1821289 L170.955322,89.1821289 L170.955322,88.4140625 L169.870361,88.4140625 L169.870361,87.065918 L168.935791,87.065918 Z M174.027588,89.128418 C173.1521,89.128418 172.539795,89.7998047 172.480713,90.7290039 L175.515381,90.7290039 C175.493896,89.7944336 174.908447,89.128418 174.027588,89.128418 Z M175.493896,92.3994141 L176.412354,92.3994141 C176.251221,93.3769531 175.305908,94.0966797 174.08667,94.0966797 C172.486084,94.0966797 171.513916,92.9848633 171.513916,91.2285156 C171.513916,89.4936523 172.502197,88.3173828 174.043701,88.3173828 C175.552979,88.3173828 176.482178,89.4130859 176.482178,91.1049805 L176.482178,91.4594727 L172.475342,91.4594727 L172.475342,91.5131836 C172.475342,92.5820312 173.10376,93.2856445 174.108154,93.2856445 C174.817139,93.2856445 175.338135,92.9257812 175.493896,92.3994141 Z M180.134521,88.3173828 C181.557861,88.3173828 182.524658,89.4560547 182.524658,91.2070312 C182.524658,92.9580078 181.563232,94.0966797 180.156006,94.0966797 C179.355713,94.0966797 178.711182,93.7045898 178.378174,93.0922852 L178.356689,93.0922852 L178.356689,95.8637695 L177.422119,95.8637695 L177.422119,88.4140625 L178.30835,88.4140625 L178.30835,89.359375 L178.329834,89.359375 C178.673584,88.730957 179.323486,88.3173828 180.134521,88.3173828 Z M179.951904,93.2749023 C180.945557,93.2749023 181.568604,92.4746094 181.568604,91.2070312 C181.568604,89.9448242 180.945557,89.1391602 179.951904,89.1391602 C178.99585,89.1391602 178.351318,89.9663086 178.351318,91.2070312 C178.351318,92.453125 178.99585,93.2749023 179.951904,93.2749023 Z"/>
  </g>
</svg>
