<svg xmlns="http://www.w3.org/2000/svg" xmlns:xlink="http://www.w3.org/1999/xlink" width="300" height="180" style="background:#f9f9fa" viewBox="0 0 300 180">
  <defs>
    <rect id="button-radius-a" width="60" height="60" rx="30"/>
  </defs>
  <g fill="none" fill-rule="evenodd">
    <rect width="132" height="32" x="84" y="74" fill="#0C0C0D" fill-opacity=".1" rx="2"/>
    <g transform="translate(192 38)">
      <mask id="button-radius-b" fill="#fff">
        <use xlink:href="#button-radius-a"/>
      </mask>
      <use fill="#FFF" xlink:href="#button-radius-a"/>
      <rect width="55.5" height="55.5" x="-13.5" y="18" fill="#E0E0E1" mask="url(#button-radius-b)" rx="12"/>
      <rect width="59" height="59" x=".5" y=".5" stroke="#0C0C0D" stroke-opacity=".1" mask="url(#button-radius-b)" rx="29.5"/>
    </g>
    <path fill="#0C0C0D" d="M127.935547,95.1523438 C130.042969,95.1523438 131.477539,94.0415039 131.82666,92.1499023 L130.411133,92.1499023 C130.125488,93.2543945 129.217773,93.9082031 127.941895,93.9082031 C126.259766,93.9082031 125.193359,92.5561523 125.193359,90.4169922 C125.193359,88.296875 126.272461,86.9321289 127.935547,86.9321289 C129.179688,86.9321289 130.157227,87.7001953 130.411133,88.8745117 L131.820312,88.8745117 C131.579102,86.9638672 130.01123,85.6879883 127.935547,85.6879883 C125.377441,85.6879883 123.739746,87.5161133 123.739746,90.4169922 C123.739746,93.3369141 125.364746,95.1523438 127.935547,95.1523438 Z M132.994629,95 L134.365723,95 L134.365723,91.140625 C134.365723,90.0869141 134.987793,89.3886719 136.003418,89.3886719 C136.968262,89.3886719 137.463379,89.9790039 137.463379,90.9628906 L137.463379,95 L138.84082,95 L138.84082,90.6962891 C138.84082,89.1855469 137.964844,88.2080078 136.498535,88.2080078 C135.48291,88.2080078 134.75293,88.6586914 134.384766,89.4394531 L134.353027,89.4394531 L134.353027,85.840332 L132.994629,85.840332 L132.994629,95 Z M143.030273,95.1269531 C141.119629,95.1269531 139.862793,93.8129883 139.862793,91.6611328 C139.862793,89.515625 141.125977,88.2016602 143.030273,88.2016602 C144.93457,88.2016602 146.197754,89.515625 146.197754,91.6611328 C146.197754,93.8129883 144.940918,95.1269531 143.030273,95.1269531 Z M143.030273,93.9970703 C144.109375,93.9970703 144.80127,93.1464844 144.80127,91.6611328 C144.80127,90.1821289 144.103027,89.331543 143.030273,89.331543 C141.95752,89.331543 141.259277,90.1821289 141.259277,91.6611328 C141.259277,93.1464844 141.95752,93.9970703 143.030273,93.9970703 Z M150.126953,95.1269531 C148.216309,95.1269531 146.959473,93.8129883 146.959473,91.6611328 C146.959473,89.515625 148.222656,88.2016602 150.126953,88.2016602 C152.03125,88.2016602 153.294434,89.515625 153.294434,91.6611328 C153.294434,93.8129883 152.037598,95.1269531 150.126953,95.1269531 Z M150.126953,93.9970703 C151.206055,93.9970703 151.897949,93.1464844 151.897949,91.6611328 C151.897949,90.1821289 151.199707,89.331543 150.126953,89.331543 C149.054199,89.331543 148.355957,90.1821289 148.355957,91.6611328 C148.355957,93.1464844 149.054199,93.9970703 150.126953,93.9970703 Z M154.233887,90.2138672 C154.233887,91.1469727 154.843262,91.7753906 156.049316,92.0673828 L157.242676,92.359375 C157.940918,92.5371094 158.194824,92.7719727 158.194824,93.1972656 C158.194824,93.7368164 157.687012,94.0795898 156.861816,94.0795898 C156.023926,94.0795898 155.528809,93.7241211 155.420898,93.0830078 L154.0625,93.0830078 C154.17041,94.3081055 155.217773,95.1269531 156.79834,95.1269531 C158.436035,95.1269531 159.572266,94.2890625 159.572266,93.0703125 C159.572266,92.0864258 159.064453,91.5786133 157.71875,91.2548828 L156.595215,90.9946289 C155.90332,90.8232422 155.573242,90.5439453 155.573242,90.1313477 C155.573242,89.6044922 156.068359,89.2426758 156.811035,89.2426758 C157.579102,89.2426758 158.067871,89.6171875 158.131348,90.2202148 L159.419922,90.2202148 C159.375488,89.0332031 158.334473,88.2016602 156.849121,88.2016602 C155.287598,88.2016602 154.233887,89.0205078 154.233887,90.2138672 Z M163.431641,89.3061523 C162.473145,89.3061523 161.800293,90.0361328 161.730469,91.0454102 L165.069336,91.0454102 C165.037598,90.0234375 164.390137,89.3061523 163.431641,89.3061523 Z M165.062988,93.0385742 L166.364258,93.0385742 C166.173828,94.2573242 165.018555,95.1269531 163.48877,95.1269531 C161.527344,95.1269531 160.340332,93.800293 160.340332,91.6928711 C160.340332,89.5981445 161.546387,88.2016602 163.431641,88.2016602 C165.285156,88.2016602 166.44043,89.5092773 166.44043,91.5341797 L166.44043,92.0039062 L161.724121,92.0039062 L161.724121,92.0864258 C161.724121,93.2480469 162.422363,94.0161133 163.520508,94.0161133 C164.30127,94.0161133 164.878906,93.6225586 165.062988,93.0385742 Z M168.528809,95.0698242 C168.992188,95.0698242 169.360352,94.7016602 169.360352,94.2382812 C169.360352,93.7749023 168.992188,93.4067383 168.528809,93.4067383 C168.06543,93.4067383 167.697266,93.7749023 167.697266,94.2382812 C167.697266,94.7016602 168.06543,95.0698242 168.528809,95.0698242 Z M171.797852,95.0698242 C172.26123,95.0698242 172.629395,94.7016602 172.629395,94.2382812 C172.629395,93.7749023 172.26123,93.4067383 171.797852,93.4067383 C171.334473,93.4067383 170.966309,93.7749023 170.966309,94.2382812 C170.966309,94.7016602 171.334473,95.0698242 171.797852,95.0698242 Z M175.073242,95.0698242 C175.536621,95.0698242 175.898438,94.7016602 175.898438,94.2382812 C175.898438,93.7749023 175.536621,93.4067383 175.073242,93.4067383 C174.603516,93.4067383 174.241699,93.7749023 174.241699,94.2382812 C174.241699,94.7016602 174.603516,95.0698242 175.073242,95.0698242 Z"/>
  </g>
</svg>
