<svg xmlns="http://www.w3.org/2000/svg" width="300" height="180" style="background:#f9f9fa" viewBox="0 0 300 180">
  <g fill="#0C0C0D" fill-rule="evenodd">
    <rect width="132" height="32" x="84" y="74" fill-opacity=".1" rx="2"/>
    <path d="M109.522705,85.855957 L109.522705,89.3662109 L111.712646,89.3662109 C112.886963,89.3662109 113.553467,88.7314453 113.553467,87.6079102 C113.553467,86.5097656 112.842529,85.855957 111.661865,85.855957 L109.522705,85.855957 Z M109.522705,90.3754883 L109.522705,94 L108.380127,94 L108.380127,84.840332 L111.814209,84.840332 C113.578857,84.840332 114.734131,85.9194336 114.734131,87.5698242 C114.734131,88.8457031 114.042236,89.8359375 112.893311,90.1977539 L115.013428,94 L113.674072,94 L111.712646,90.3754883 L109.522705,90.3754883 Z M118.644287,88.2426758 C117.609619,88.2426758 116.885986,89.0361328 116.816162,90.1342773 L120.402588,90.1342773 C120.377197,89.0297852 119.685303,88.2426758 118.644287,88.2426758 Z M120.377197,92.1083984 L121.462646,92.1083984 C121.272217,93.2636719 120.155029,94.1142578 118.714111,94.1142578 C116.82251,94.1142578 115.673584,92.800293 115.673584,90.7246094 C115.673584,88.6743164 116.841553,87.2841797 118.66333,87.2841797 C120.447021,87.2841797 121.545166,88.5791016 121.545166,90.5786133 L121.545166,90.9975586 L116.809814,90.9975586 L116.809814,91.0610352 C116.809814,92.3242188 117.55249,93.1557617 118.739502,93.1557617 C119.577393,93.1557617 120.193115,92.7304688 120.377197,92.1083984 Z M122.541748,89.2202148 C122.541748,90.121582 123.113037,90.7182617 124.274658,91.0166016 L125.436279,91.3149414 C126.178955,91.5117188 126.451904,91.765625 126.451904,92.2353516 C126.451904,92.8320312 125.899658,93.2128906 125.004639,93.2128906 C124.109619,93.2128906 123.589111,92.8447266 123.468506,92.1591797 L122.364014,92.1591797 C122.478271,93.3271484 123.487549,94.1142578 124.934814,94.1142578 C126.477295,94.1142578 127.562744,93.3017578 127.562744,92.152832 C127.562744,91.1816406 127.080322,90.6992188 125.747314,90.362793 L124.725342,90.1152344 C123.976318,89.9248047 123.627197,89.6201172 123.627197,89.1630859 C123.627197,88.5854492 124.1604,88.1855469 124.966553,88.1855469 C125.779053,88.1855469 126.293213,88.5791016 126.369385,89.2138672 L127.423096,89.2138672 C127.372314,88.0966797 126.369385,87.2841797 125.004639,87.2841797 C123.551025,87.2841797 122.541748,88.090332 122.541748,89.2202148 Z M131.352295,88.2426758 C130.317627,88.2426758 129.593994,89.0361328 129.52417,90.1342773 L133.110596,90.1342773 C133.085205,89.0297852 132.393311,88.2426758 131.352295,88.2426758 Z M133.085205,92.1083984 L134.170654,92.1083984 C133.980225,93.2636719 132.863037,94.1142578 131.422119,94.1142578 C129.530518,94.1142578 128.381592,92.800293 128.381592,90.7246094 C128.381592,88.6743164 129.549561,87.2841797 131.371338,87.2841797 C133.155029,87.2841797 134.253174,88.5791016 134.253174,90.5786133 L134.253174,90.9975586 L129.517822,90.9975586 L129.517822,91.0610352 C129.517822,92.3242188 130.260498,93.1557617 131.44751,93.1557617 C132.2854,93.1557617 132.901123,92.7304688 133.085205,92.1083984 Z M135.719482,85.8051758 L135.719482,87.3984375 L134.735596,87.3984375 L134.735596,88.3061523 L135.719482,88.3061523 L135.719482,92.2861328 C135.719482,93.5556641 136.189209,94.0507812 137.401611,94.0507812 C137.661865,94.0507812 137.966553,94.0317383 138.099854,94 L138.099854,93.0732422 C138.023682,93.0859375 137.769775,93.1049805 137.642822,93.1049805 C137.077881,93.1049805 136.823975,92.8320312 136.823975,92.2290039 L136.823975,88.3061523 L138.106201,88.3061523 L138.106201,87.3984375 L136.823975,87.3984375 L136.823975,85.8051758 L135.719482,85.8051758 Z M142.302002,85.8051758 L142.302002,87.3984375 L141.318115,87.3984375 L141.318115,88.3061523 L142.302002,88.3061523 L142.302002,92.2861328 C142.302002,93.5556641 142.771729,94.0507812 143.984131,94.0507812 C144.244385,94.0507812 144.549072,94.0317383 144.682373,94 L144.682373,93.0732422 C144.606201,93.0859375 144.352295,93.1049805 144.225342,93.1049805 C143.6604,93.1049805 143.406494,92.8320312 143.406494,92.2290039 L143.406494,88.3061523 L144.688721,88.3061523 L144.688721,87.3984375 L143.406494,87.3984375 L143.406494,85.8051758 L142.302002,85.8051758 Z M148.408447,94.1142578 C146.580322,94.1142578 145.348877,92.800293 145.348877,90.6992188 C145.348877,88.5917969 146.580322,87.2841797 148.408447,87.2841797 C150.230225,87.2841797 151.46167,88.5917969 151.46167,90.6992188 C151.46167,92.800293 150.230225,94.1142578 148.408447,94.1142578 Z M148.408447,93.1430664 C149.576416,93.1430664 150.338135,92.2543945 150.338135,90.6992188 C150.338135,89.144043 149.576416,88.2553711 148.408447,88.2553711 C147.240479,88.2553711 146.472412,89.144043 146.472412,90.6992188 C146.472412,92.2543945 147.240479,93.1430664 148.408447,93.1430664 Z M155.409912,84.840332 L158.488525,84.840332 C161.205322,84.840332 162.811279,86.5351562 162.811279,89.4169922 C162.811279,92.3051758 161.21167,94 158.488525,94 L155.409912,94 L155.409912,84.840332 Z M156.55249,85.8686523 L156.55249,92.9716797 L158.412354,92.9716797 C160.488037,92.9716797 161.643311,91.7021484 161.643311,89.4296875 C161.643311,87.1381836 160.494385,85.8686523 158.412354,85.8686523 L156.55249,85.8686523 Z M166.702393,88.2426758 C165.667725,88.2426758 164.944092,89.0361328 164.874268,90.1342773 L168.460693,90.1342773 C168.435303,89.0297852 167.743408,88.2426758 166.702393,88.2426758 Z M168.435303,92.1083984 L169.520752,92.1083984 C169.330322,93.2636719 168.213135,94.1142578 166.772217,94.1142578 C164.880615,94.1142578 163.731689,92.800293 163.731689,90.7246094 C163.731689,88.6743164 164.899658,87.2841797 166.721436,87.2841797 C168.505127,87.2841797 169.603271,88.5791016 169.603271,90.5786133 L169.603271,90.9975586 L164.86792,90.9975586 L164.86792,91.0610352 C164.86792,92.3242188 165.610596,93.1557617 166.797607,93.1557617 C167.635498,93.1557617 168.251221,92.7304688 168.435303,92.1083984 Z M171.06958,94 L172.174072,94 L172.174072,88.3061523 L173.519775,88.3061523 L173.519775,87.3984375 L172.167725,87.3984375 L172.167725,86.668457 C172.167725,86.0146484 172.453369,85.6972656 173.050049,85.6972656 C173.234131,85.6972656 173.418213,85.7163086 173.551514,85.7353516 L173.551514,84.840332 C173.392822,84.8149414 173.126221,84.7895508 172.878662,84.7895508 C171.659912,84.7895508 171.06958,85.3925781 171.06958,86.6621094 L171.06958,87.3984375 L170.14917,87.3984375 L170.14917,88.3061523 L171.06958,88.3061523 L171.06958,94 Z M176.45874,93.1748047 C177.499756,93.1748047 178.299561,92.4448242 178.299561,91.4926758 L178.299561,90.953125 L176.534912,91.0610352 C175.64624,91.1181641 175.138428,91.5117188 175.138428,92.1337891 C175.138428,92.762207 175.665283,93.1748047 176.45874,93.1748047 Z M176.211182,94.1142578 C174.897217,94.1142578 174.014893,93.3208008 174.014893,92.1337891 C174.014893,91.0039062 174.884521,90.2929688 176.407959,90.2041016 L178.299561,90.0961914 L178.299561,89.5439453 C178.299561,88.737793 177.766357,88.2553711 176.852295,88.2553711 C176.001709,88.2553711 175.468506,88.6552734 175.328857,89.3027344 L174.262451,89.3027344 C174.338623,88.1601562 175.316162,87.2841797 176.877686,87.2841797 C178.426514,87.2841797 179.404053,88.1220703 179.404053,89.4360352 L179.404053,94 L178.356689,94 L178.356689,92.8637695 L178.331299,92.8637695 C177.937744,93.6191406 177.099854,94.1142578 176.211182,94.1142578 Z M186.227783,87.3984375 L185.123291,87.3984375 L185.123291,91.2768555 C185.123291,92.4003906 184.47583,93.1367188 183.403076,93.1367188 C182.381104,93.1367188 181.879639,92.559082 181.879639,91.4863281 L181.879639,87.3984375 L180.775146,87.3984375 L180.775146,91.6831055 C180.775146,93.1811523 181.619385,94.1142578 183.060303,94.1142578 C184.075928,94.1142578 184.761475,93.6889648 185.155029,92.9272461 L185.18042,92.9272461 L185.18042,94 L186.227783,94 L186.227783,87.3984375 Z M187.713135,94 L188.817627,94 L188.817627,84.840332 L187.713135,84.840332 L187.713135,94 Z M190.664795,85.8051758 L190.664795,87.3984375 L189.680908,87.3984375 L189.680908,88.3061523 L190.664795,88.3061523 L190.664795,92.2861328 C190.664795,93.5556641 191.134521,94.0507812 192.346924,94.0507812 C192.607178,94.0507812 192.911865,94.0317383 193.045166,94 L193.045166,93.0732422 C192.968994,93.0859375 192.715088,93.1049805 192.588135,93.1049805 C192.023193,93.1049805 191.769287,92.8320312 191.769287,92.2290039 L191.769287,88.3061523 L193.051514,88.3061523 L193.051514,87.3984375 L191.769287,87.3984375 L191.769287,85.8051758 L190.664795,85.8051758 Z"/>
  </g>
</svg>
