<svg xmlns="http://www.w3.org/2000/svg" width="300" height="180" style="background:#f9f9fa" viewBox="0 0 300 180">
  <g fill="#0C0C0D" fill-rule="evenodd">
    <rect width="132" height="32" x="84" y="74" fill-opacity=".1" rx="2"/>
    <path d="M94.3056641,94 L95.4101562,94 L95.4101562,84.840332 L94.2929688,84.840332 L91.8554688,86.5922852 L91.8554688,87.7983398 L94.2802734,86.0527344 L94.3056641,86.0527344 L94.3056641,94 Z M101.046875,94.1586914 C99.6757812,94.1586914 98.5839844,93.4160156 98.019043,92.0957031 C97.7143555,91.3911133 97.5683594,90.565918 97.5683594,89.5756836 C97.5683594,86.4907227 98.8823242,84.6816406 101.123047,84.6816406 C102.678223,84.6816406 103.871582,85.6147461 104.163574,87.0556641 L103.001953,87.0556641 C102.754395,86.2241211 102.018066,85.690918 101.110352,85.690918 C99.5805664,85.690918 98.7109375,87.0493164 98.6728516,89.4868164 L98.6918945,89.4868164 C99.1044922,88.5917969 100.11377,88.0014648 101.25,88.0014648 C102.995605,88.0014648 104.290527,89.2900391 104.290527,91.0292969 C104.290527,92.8383789 102.925781,94.1586914 101.046875,94.1586914 Z M101.03418,93.1430664 C102.202148,93.1430664 103.128906,92.2226562 103.128906,91.0673828 C103.128906,89.8676758 102.265625,89.0043945 101.053223,89.0043945 C99.8408203,89.0043945 98.9458008,89.8676758 98.9458008,91.0356445 C98.9458008,92.2099609 99.8598633,93.1430664 101.03418,93.1430664 Z"/>
    <path fill-opacity=".8" fill-rule="nonzero" d="M8,12 C7.73426095,11.9999433 7.4794266,11.8943639 7.29154909,11.7064848 L2.2812881,6.69769219 C1.90153816,6.3046233 1.90696912,5.67982062 2.29349452,5.2934085 C2.68001992,4.90699639 3.30500578,4.90156702 3.69818991,5.28120566 L8,9.58175495 L12.3018101,5.28120566 C12.6949942,4.90156702 13.3199801,4.90699639 13.7065055,5.2934085 C14.0930309,5.67982062 14.0984618,6.3046233 13.7187119,6.69769219 L8.70845091,11.7064848 C8.5205734,11.8943639 8.26573905,11.9999433 8,12 Z" transform="translate(192 82)"/>
  </g>
</svg>
