<svg xmlns="http://www.w3.org/2000/svg" width="300" height="180" viewBox="0 0 300 180">
  <g fill="none" fill-rule="evenodd">
    <rect width="132" height="32" x="84" y="74" fill="#0060DF" rx="2"/>
    <path fill="#FFF" d="M136.888672,84.840332 L139.967285,84.840332 C142.684082,84.840332 144.290039,86.5351562 144.290039,89.4169922 C144.290039,92.3051758 142.69043,94 139.967285,94 L136.888672,94 L136.888672,84.840332 Z M138.03125,85.8686523 L138.03125,92.9716797 L139.891113,92.9716797 C141.966797,92.9716797 143.12207,91.7021484 143.12207,89.4296875 C143.12207,87.1381836 141.973145,85.8686523 139.891113,85.8686523 L138.03125,85.8686523 Z M148.27002,94.1142578 C146.441895,94.1142578 145.210449,92.800293 145.210449,90.6992188 C145.210449,88.5917969 146.441895,87.2841797 148.27002,87.2841797 C150.091797,87.2841797 151.323242,88.5917969 151.323242,90.6992188 C151.323242,92.800293 150.091797,94.1142578 148.27002,94.1142578 Z M148.27002,93.1430664 C149.437988,93.1430664 150.199707,92.2543945 150.199707,90.6992188 C150.199707,89.144043 149.437988,88.2553711 148.27002,88.2553711 C147.102051,88.2553711 146.333984,89.144043 146.333984,90.6992188 C146.333984,92.2543945 147.102051,93.1430664 148.27002,93.1430664 Z M152.434082,94 L153.538574,94 L153.538574,90.1152344 C153.538574,88.9980469 154.217773,88.2617188 155.258789,88.2617188 C156.274414,88.2617188 156.775879,88.8457031 156.775879,89.9121094 L156.775879,94 L157.880371,94 L157.880371,89.715332 C157.880371,88.2172852 157.04248,87.2841797 155.595215,87.2841797 C154.573242,87.2841797 153.868652,87.7412109 153.500488,88.4521484 L153.475098,88.4521484 L153.475098,87.3984375 L152.434082,87.3984375 L152.434082,94 Z M161.930176,88.2426758 C160.895508,88.2426758 160.171875,89.0361328 160.102051,90.1342773 L163.688477,90.1342773 C163.663086,89.0297852 162.971191,88.2426758 161.930176,88.2426758 Z M163.663086,92.1083984 L164.748535,92.1083984 C164.558105,93.2636719 163.440918,94.1142578 162,94.1142578 C160.108398,94.1142578 158.959473,92.800293 158.959473,90.7246094 C158.959473,88.6743164 160.127441,87.2841797 161.949219,87.2841797 C163.73291,87.2841797 164.831055,88.5791016 164.831055,90.5786133 L164.831055,90.9975586 L160.095703,90.9975586 L160.095703,91.0610352 C160.095703,92.3242188 160.838379,93.1557617 162.025391,93.1557617 C162.863281,93.1557617 163.479004,92.7304688 163.663086,92.1083984 Z"/>
    <rect width="1" height="5" x="91" y="108" fill="#30E60B" transform="rotate(-180 91.5 110.5)"/>
    <rect width="1" height="5" x="84" y="108" fill="#30E60B" transform="rotate(-180 84.5 110.5)"/>
    <rect width="8" height="1" x="84" y="110" fill="#30E60B" transform="rotate(-180 88 110.5)"/>
    <polygon fill="#30E60B" points="84 117 88 113 92 117 88 121" transform="rotate(-180 88 117)"/>
    <rect width="29" height="22" x="74" y="117" fill="#30E60B" rx="2" transform="rotate(-180 88.5 128)"/>
    <path fill="#003706" d="M80.358,125.7 C80.358,125.932001 80.3979996,126.133999 80.478,126.306 C80.5580004,126.478001 80.6659993,126.619999 80.802,126.732 C80.9380007,126.844001 81.0979991,126.928 81.282,126.984 C81.4660009,127.04 81.661999,127.068 81.87,127.068 C82.278002,127.068 82.6139987,126.948001 82.878,126.708 C83.1420013,126.467999 83.274,126.132002 83.274,125.7 C83.274,125.267998 83.1400013,124.942001 82.872,124.722 C82.6039987,124.501999 82.2620021,124.392 81.846,124.392 C81.645999,124.392 81.4540009,124.42 81.27,124.476 C81.0859991,124.532 80.9280007,124.615999 80.796,124.728 C80.6639993,124.840001 80.5580004,124.975999 80.478,125.136 C80.3979996,125.296001 80.358,125.483999 80.358,125.7 Z M79.278,125.664 C79.278,125.311998 79.3459993,125.002001 79.482,124.734 C79.6180007,124.465999 79.8019988,124.240001 80.034,124.056 C80.2660012,123.871999 80.5319985,123.732 80.832,123.636 C81.1320015,123.54 81.4459984,123.492 81.774,123.492 C82.2380023,123.492 82.6339984,123.553999 82.962,123.678 C83.2900016,123.802001 83.555999,123.965999 83.76,124.17 C83.964001,124.374001 84.1139995,124.605999 84.21,124.866 C84.3060005,125.126001 84.354,125.391999 84.354,125.664 C84.354,126.048002 84.2480011,126.397998 84.036,126.714 C83.8239989,127.030002 83.5380018,127.267999 83.178,127.428 C83.6900026,127.588001 84.0699988,127.849998 84.318,128.214 C84.5660012,128.578002 84.69,129.023997 84.69,129.552 C84.69,129.968002 84.6160007,130.335998 84.468,130.656 C84.3199993,130.976002 84.1200013,131.245999 83.868,131.466 C83.6159987,131.686001 83.3180017,131.851999 82.974,131.964 C82.6299983,132.076001 82.262002,132.132 81.87,132.132 C81.461998,132.132 81.0820018,132.080001 80.73,131.976 C80.3779982,131.871999 80.0720013,131.712001 79.812,131.496 C79.5519987,131.279999 79.3480007,131.010002 79.2,130.686 C79.0519993,130.361998 78.978,129.984002 78.978,129.552 C78.978,129.047997 79.1059987,128.610002 79.362,128.238 C79.6180013,127.865998 79.9859976,127.596001 80.466,127.428 C80.1059982,127.283999 79.8180011,127.050002 79.602,126.726 C79.3859989,126.401998 79.278,126.048002 79.278,125.664 Z M80.058,129.6 C80.058,130.112003 80.2279983,130.513999 80.568,130.806 C80.9080017,131.098001 81.3419974,131.244 81.87,131.244 C82.1260013,131.244 82.3599989,131.202 82.572,131.118 C82.7840011,131.034 82.9679992,130.918001 83.124,130.77 C83.2800008,130.621999 83.3999996,130.448001 83.484,130.248 C83.5680004,130.047999 83.61,129.828001 83.61,129.588 C83.61,129.355999 83.5640005,129.142001 83.472,128.946 C83.3799995,128.749999 83.2540008,128.580001 83.094,128.436 C82.9339992,128.291999 82.7480011,128.178 82.536,128.094 C82.3239989,128.01 82.0980012,127.968 81.858,127.968 C81.6099988,127.968 81.3760011,128.006 81.156,128.082 C80.9359989,128.158 80.7440008,128.267999 80.58,128.412 C80.4159992,128.556001 80.2880005,128.727999 80.196,128.928 C80.1039995,129.128001 80.058,129.351999 80.058,129.6 Z M85.974,125.796 L86.994,125.796 L86.994,126.636 L87.018,126.636 C87.1860008,126.291998 87.4499982,126.042001 87.81,125.886 C88.1700018,125.729999 88.5659978,125.652 88.998,125.652 C89.4780024,125.652 89.8959982,125.739999 90.252,125.916 C90.6080018,126.092001 90.9039988,126.329999 91.14,126.63 C91.3760012,126.930002 91.5539994,127.275998 91.674,127.668 C91.7940006,128.060002 91.854,128.475998 91.854,128.916 C91.854,129.356002 91.7960006,129.771998 91.68,130.164 C91.5639994,130.556002 91.3880012,130.897999 91.152,131.19 C90.9159988,131.482001 90.6200018,131.711999 90.264,131.88 C89.9079982,132.048001 89.4940024,132.132 89.022,132.132 C88.8699992,132.132 88.7000009,132.116 88.512,132.084 C88.3239991,132.052 88.1380009,132 87.954,131.928 C87.7699991,131.856 87.5960008,131.758001 87.432,131.634 C87.2679992,131.509999 87.1300006,131.356001 87.018,131.172 L86.994,131.172 L86.994,134.364 L85.974,134.364 L85.974,125.796 Z M90.774,128.844 C90.774,128.555999 90.7360004,128.274001 90.66,127.998 C90.5839996,127.721999 90.4680008,127.476001 90.312,127.26 C90.1559992,127.043999 89.9560012,126.872001 89.712,126.744 C89.4679988,126.615999 89.1820016,126.552 88.854,126.552 C88.5099983,126.552 88.2180012,126.619999 87.978,126.756 C87.7379988,126.892001 87.5420008,127.069999 87.39,127.29 C87.2379992,127.510001 87.1280003,127.759999 87.06,128.04 C86.9919997,128.320001 86.958,128.603999 86.958,128.892 C86.958,129.196002 86.9939996,129.489999 87.066,129.774 C87.1380004,130.058001 87.2519992,130.307999 87.408,130.524 C87.5640008,130.740001 87.7659988,130.913999 88.014,131.046 C88.2620012,131.178001 88.5619982,131.244 88.914,131.244 C89.2660018,131.244 89.5599988,131.176001 89.796,131.04 C90.0320012,130.903999 90.2219993,130.724001 90.366,130.5 C90.5100007,130.275999 90.6139997,130.020001 90.678,129.732 C90.7420003,129.443999 90.774,129.148002 90.774,128.844 Z M94.722,128.736 L92.394,132 L93.63,132 L95.358,129.432 L97.086,132 L98.394,132 L95.994,128.652 L98.13,125.796 L96.906,125.796 L95.358,127.968 L93.87,125.796 L92.562,125.796 L94.722,128.736 Z"/>
    <rect width="1" height="5" x="215" y="108" fill="#30E60B" transform="rotate(-180 215.5 110.5)"/>
    <rect width="1" height="5" x="208" y="108" fill="#30E60B" transform="rotate(-180 208.5 110.5)"/>
    <rect width="8" height="1" x="208" y="110" fill="#30E60B" transform="rotate(-180 212 110.5)"/>
    <polygon fill="#30E60B" points="208 117 212 113 216 117 212 121" transform="rotate(-180 212 117)"/>
    <rect width="29" height="22" x="198" y="117" fill="#30E60B" rx="2" transform="rotate(-180 212.5 128)"/>
    <path fill="#003706" d="M204.358,125.7 C204.358,125.932001 204.398,126.133999 204.478,126.306 C204.558,126.478001 204.665999,126.619999 204.802,126.732 C204.938001,126.844001 205.097999,126.928 205.282,126.984 C205.466001,127.04 205.661999,127.068 205.87,127.068 C206.278002,127.068 206.613999,126.948001 206.878,126.708 C207.142001,126.467999 207.274,126.132002 207.274,125.7 C207.274,125.267998 207.140001,124.942001 206.872,124.722 C206.603999,124.501999 206.262002,124.392 205.846,124.392 C205.645999,124.392 205.454001,124.42 205.27,124.476 C205.085999,124.532 204.928001,124.615999 204.796,124.728 C204.663999,124.840001 204.558,124.975999 204.478,125.136 C204.398,125.296001 204.358,125.483999 204.358,125.7 Z M203.278,125.664 C203.278,125.311998 203.345999,125.002001 203.482,124.734 C203.618001,124.465999 203.801999,124.240001 204.034,124.056 C204.266001,123.871999 204.531998,123.732 204.832,123.636 C205.132002,123.54 205.445998,123.492 205.774,123.492 C206.238002,123.492 206.633998,123.553999 206.962,123.678 C207.290002,123.802001 207.555999,123.965999 207.76,124.17 C207.964001,124.374001 208.114,124.605999 208.21,124.866 C208.306,125.126001 208.354,125.391999 208.354,125.664 C208.354,126.048002 208.248001,126.397998 208.036,126.714 C207.823999,127.030002 207.538002,127.267999 207.178,127.428 C207.690003,127.588001 208.069999,127.849998 208.318,128.214 C208.566001,128.578002 208.69,129.023997 208.69,129.552 C208.69,129.968002 208.616001,130.335998 208.468,130.656 C208.319999,130.976002 208.120001,131.245999 207.868,131.466 C207.615999,131.686001 207.318002,131.851999 206.974,131.964 C206.629998,132.076001 206.262002,132.132 205.87,132.132 C205.461998,132.132 205.082002,132.080001 204.73,131.976 C204.377998,131.871999 204.072001,131.712001 203.812,131.496 C203.551999,131.279999 203.348001,131.010002 203.2,130.686 C203.051999,130.361998 202.978,129.984002 202.978,129.552 C202.978,129.047997 203.105999,128.610002 203.362,128.238 C203.618001,127.865998 203.985998,127.596001 204.466,127.428 C204.105998,127.283999 203.818001,127.050002 203.602,126.726 C203.385999,126.401998 203.278,126.048002 203.278,125.664 Z M204.058,129.6 C204.058,130.112003 204.227998,130.513999 204.568,130.806 C204.908002,131.098001 205.341997,131.244 205.87,131.244 C206.126001,131.244 206.359999,131.202 206.572,131.118 C206.784001,131.034 206.967999,130.918001 207.124,130.77 C207.280001,130.621999 207.4,130.448001 207.484,130.248 C207.568,130.047999 207.61,129.828001 207.61,129.588 C207.61,129.355999 207.564,129.142001 207.472,128.946 C207.38,128.749999 207.254001,128.580001 207.094,128.436 C206.933999,128.291999 206.748001,128.178 206.536,128.094 C206.323999,128.01 206.098001,127.968 205.858,127.968 C205.609999,127.968 205.376001,128.006 205.156,128.082 C204.935999,128.158 204.744001,128.267999 204.58,128.412 C204.415999,128.556001 204.288,128.727999 204.196,128.928 C204.104,129.128001 204.058,129.351999 204.058,129.6 Z M209.974,125.796 L210.994,125.796 L210.994,126.636 L211.018,126.636 C211.186001,126.291998 211.449998,126.042001 211.81,125.886 C212.170002,125.729999 212.565998,125.652 212.998,125.652 C213.478002,125.652 213.895998,125.739999 214.252,125.916 C214.608002,126.092001 214.903999,126.329999 215.14,126.63 C215.376001,126.930002 215.553999,127.275998 215.674,127.668 C215.794001,128.060002 215.854,128.475998 215.854,128.916 C215.854,129.356002 215.796001,129.771998 215.68,130.164 C215.563999,130.556002 215.388001,130.897999 215.152,131.19 C214.915999,131.482001 214.620002,131.711999 214.264,131.88 C213.907998,132.048001 213.494002,132.132 213.022,132.132 C212.869999,132.132 212.700001,132.116 212.512,132.084 C212.323999,132.052 212.138001,132 211.954,131.928 C211.769999,131.856 211.596001,131.758001 211.432,131.634 C211.267999,131.509999 211.130001,131.356001 211.018,131.172 L210.994,131.172 L210.994,134.364 L209.974,134.364 L209.974,125.796 Z M214.774,128.844 C214.774,128.555999 214.736,128.274001 214.66,127.998 C214.584,127.721999 214.468001,127.476001 214.312,127.26 C214.155999,127.043999 213.956001,126.872001 213.712,126.744 C213.467999,126.615999 213.182002,126.552 212.854,126.552 C212.509998,126.552 212.218001,126.619999 211.978,126.756 C211.737999,126.892001 211.542001,127.069999 211.39,127.29 C211.237999,127.510001 211.128,127.759999 211.06,128.04 C210.992,128.320001 210.958,128.603999 210.958,128.892 C210.958,129.196002 210.994,129.489999 211.066,129.774 C211.138,130.058001 211.251999,130.307999 211.408,130.524 C211.564001,130.740001 211.765999,130.913999 212.014,131.046 C212.262001,131.178001 212.561998,131.244 212.914,131.244 C213.266002,131.244 213.559999,131.176001 213.796,131.04 C214.032001,130.903999 214.221999,130.724001 214.366,130.5 C214.510001,130.275999 214.614,130.020001 214.678,129.732 C214.742,129.443999 214.774,129.148002 214.774,128.844 Z M218.722,128.736 L216.394,132 L217.63,132 L219.358,129.432 L221.086,132 L222.394,132 L219.994,128.652 L222.13,125.796 L220.906,125.796 L219.358,127.968 L217.87,125.796 L216.562,125.796 L218.722,128.736 Z"/>
    <rect width="5" height="1" x="218" y="74" fill="#FF1AD9"/>
    <rect width="5" height="1" x="218" y="105" fill="#FF1AD9"/>
    <rect width="1" height="32" x="220" y="74" fill="#FF1AD9"/>
    <polygon fill="#FF1AD9" points="223 90 227 86 231 90 227 94"/>
    <rect width="35" height="22" x="227" y="79" fill="#FF1AD9" rx="2"/>
    <path fill="#FFF" d="M233.778,89.14 L233.778,90.004 C233.970001,89.9799999 234.173999,89.968 234.39,89.968 C234.646001,89.968 234.883999,90.0019997 235.104,90.07 C235.324001,90.1380003 235.513999,90.2419993 235.674,90.382 C235.834001,90.5220007 235.962,90.693999 236.058,90.898 C236.154,91.102001 236.202,91.3359987 236.202,91.6 C236.202,91.8560013 236.152,92.085999 236.052,92.29 C235.951999,92.494001 235.818001,92.6659993 235.65,92.806 C235.481999,92.9460007 235.286001,93.0539996 235.062,93.13 C234.837999,93.2060004 234.602001,93.244 234.354,93.244 C233.769997,93.244 233.326002,93.0700017 233.022,92.722 C232.717998,92.3739983 232.558,91.9240028 232.542,91.372 L231.522,91.372 C231.514,91.8120022 231.575999,92.2039983 231.708,92.548 C231.840001,92.8920017 232.029999,93.1819988 232.278,93.418 C232.526001,93.6540012 232.825998,93.8319994 233.178,93.952 C233.530002,94.0720006 233.921998,94.132 234.354,94.132 C234.754002,94.132 235.131998,94.0780005 235.488,93.97 C235.844002,93.8619995 236.153999,93.7000011 236.418,93.484 C236.682001,93.2679989 236.891999,92.9980016 237.048,92.674 C237.204001,92.3499984 237.282,91.9760021 237.282,91.552 C237.282,91.0399974 237.156001,90.5960019 236.904,90.22 C236.651999,89.8439981 236.266003,89.6000006 235.746,89.488 L235.746,89.464 C236.082002,89.3119992 236.361999,89.0880015 236.586,88.792 C236.810001,88.4959985 236.922,88.1560019 236.922,87.772 C236.922,87.379998 236.856001,87.0400014 236.724,86.752 C236.591999,86.4639986 236.410001,86.2280009 236.178,86.044 C235.945999,85.8599991 235.672002,85.7220005 235.356,85.63 C235.039998,85.5379995 234.698002,85.492 234.33,85.492 C233.905998,85.492 233.532002,85.5599993 233.208,85.696 C232.883998,85.8320007 232.614001,86.0199988 232.398,86.26 C232.181999,86.5000012 232.016001,86.7879983 231.9,87.124 C231.783999,87.4600017 231.718,87.831998 231.702,88.24 L232.722,88.24 C232.722,87.9919988 232.754,87.7560011 232.818,87.532 C232.882,87.3079989 232.979999,87.1120008 233.112,86.944 C233.244001,86.7759992 233.411999,86.6420005 233.616,86.542 C233.820001,86.4419995 234.057999,86.392 234.33,86.392 C234.762002,86.392 235.121999,86.5059989 235.41,86.734 C235.698001,86.9620011 235.842,87.3039977 235.842,87.76 C235.842,87.9840011 235.798,88.1839991 235.71,88.36 C235.622,88.5360009 235.504001,88.6819994 235.356,88.798 C235.207999,88.9140006 235.036001,89.0019997 234.84,89.062 C234.643999,89.1220003 234.438001,89.152 234.222,89.152 L233.886,89.152 C233.854,89.152 233.818,89.148 233.778,89.14 Z M238.362,88.504 L239.382,88.504 C239.374,88.2479987 239.4,87.9940013 239.46,87.742 C239.52,87.4899987 239.617999,87.264001 239.754,87.064 C239.890001,86.863999 240.063999,86.7020006 240.276,86.578 C240.488001,86.4539994 240.741999,86.392 241.038,86.392 C241.262001,86.392 241.473999,86.4279996 241.674,86.5 C241.874001,86.5720004 242.047999,86.6759993 242.196,86.812 C242.344001,86.9480007 242.462,87.1099991 242.55,87.298 C242.638,87.4860009 242.682,87.6959988 242.682,87.928 C242.682,88.2240015 242.636,88.4839989 242.544,88.708 C242.452,88.9320011 242.316001,89.139999 242.136,89.332 C241.955999,89.524001 241.730001,89.7139991 241.458,89.902 C241.185999,90.0900009 240.870002,90.2959989 240.51,90.52 C240.213999,90.6960009 239.930001,90.883999 239.658,91.084 C239.385999,91.284001 239.142001,91.5159987 238.926,91.78 C238.709999,92.0440013 238.532001,92.3539982 238.392,92.71 C238.251999,93.0660018 238.162,93.4959975 238.122,94 L243.678,94 L243.678,93.1 L239.31,93.1 C239.358,92.8359987 239.459999,92.602001 239.616,92.398 C239.772001,92.193999 239.959999,92.0040009 240.18,91.828 C240.400001,91.6519991 240.641999,91.4860008 240.906,91.33 C241.170001,91.1739992 241.433999,91.0160008 241.698,90.856 C241.962001,90.6879992 242.217999,90.5120009 242.466,90.328 C242.714001,90.1439991 242.933999,89.9380011 243.126,89.71 C243.318001,89.4819989 243.471999,89.2240014 243.588,88.936 C243.704001,88.6479986 243.762,88.3160019 243.762,87.94 C243.762,87.539998 243.692001,87.1880015 243.552,86.884 C243.411999,86.5799985 243.222001,86.326001 242.982,86.122 C242.741999,85.917999 242.460002,85.7620005 242.136,85.654 C241.811998,85.5459995 241.466002,85.492 241.098,85.492 C240.649998,85.492 240.250002,85.5679992 239.898,85.72 C239.545998,85.8720008 239.252001,86.0819987 239.016,86.35 C238.779999,86.6180013 238.606001,86.9359982 238.494,87.304 C238.381999,87.6720018 238.338,88.0719978 238.362,88.504 Z M245.31,87.796 L246.33,87.796 L246.33,88.636 L246.354,88.636 C246.522001,88.2919983 246.785998,88.0420008 247.146,87.886 C247.506002,87.7299992 247.901998,87.652 248.334,87.652 C248.814002,87.652 249.231998,87.7399991 249.588,87.916 C249.944002,88.0920009 250.239999,88.3299985 250.476,88.63 C250.712001,88.9300015 250.889999,89.275998 251.01,89.668 C251.130001,90.060002 251.19,90.4759978 251.19,90.916 C251.19,91.3560022 251.132001,91.771998 251.016,92.164 C250.899999,92.556002 250.724001,92.8979985 250.488,93.19 C250.251999,93.4820015 249.956002,93.7119992 249.6,93.88 C249.243998,94.0480008 248.830002,94.132 248.358,94.132 C248.205999,94.132 248.036001,94.1160002 247.848,94.084 C247.659999,94.0519998 247.474001,94.0000004 247.29,93.928 C247.105999,93.8559996 246.932001,93.7580006 246.768,93.634 C246.603999,93.5099994 246.466001,93.3560009 246.354,93.172 L246.33,93.172 L246.33,96.364 L245.31,96.364 L245.31,87.796 Z M250.11,90.844 C250.11,90.5559986 250.072,90.2740014 249.996,89.998 C249.92,89.7219986 249.804001,89.4760011 249.648,89.26 C249.491999,89.0439989 249.292001,88.8720006 249.048,88.744 C248.803999,88.6159994 248.518002,88.552 248.19,88.552 C247.845998,88.552 247.554001,88.6199993 247.314,88.756 C247.073999,88.8920007 246.878001,89.0699989 246.726,89.29 C246.573999,89.5100011 246.464,89.7599986 246.396,90.04 C246.328,90.3200014 246.294,90.6039986 246.294,90.892 C246.294,91.1960015 246.33,91.4899986 246.402,91.774 C246.474,92.0580014 246.587999,92.3079989 246.744,92.524 C246.900001,92.7400011 247.101999,92.9139993 247.35,93.046 C247.598001,93.1780007 247.897998,93.244 248.25,93.244 C248.602002,93.244 248.895999,93.1760007 249.132,93.04 C249.368001,92.9039993 249.557999,92.7240011 249.702,92.5 C249.846001,92.2759989 249.95,92.0200014 250.014,91.732 C250.078,91.4439986 250.11,91.1480015 250.11,90.844 Z M254.058,90.736 L251.73,94 L252.966,94 L254.694,91.432 L256.422,94 L257.73,94 L255.33,90.652 L257.466,87.796 L256.242,87.796 L254.694,89.968 L253.206,87.796 L251.898,87.796 L254.058,90.736 Z"/>
  </g>
</svg>
