<svg xmlns="http://www.w3.org/2000/svg" width="300" height="180" style="background:#f9f9fa" viewBox="0 0 300 180">
  <g fill="#0C0C0D" fill-rule="evenodd">
    <rect width="132" height="32" x="132" y="74" fill-opacity=".1" rx="2"/>
    <path d="M172.345947 87.7319336L172.409424 87.7319336 174.523193 95 175.602295 95 178.096924 85.840332 176.903564 85.840332 175.069092 93.3178711 175.018311 93.3178711 172.955322 85.840332 171.800049 85.840332 169.737061 93.3178711 169.686279 93.3178711 167.851807 85.840332 166.658447 85.840332 169.153076 95 170.232178 95 172.345947 87.7319336zM179.156982 95L180.261475 95 180.261475 91.1533203C180.261475 90.0107422 180.940674 89.2617188 182.038818 89.2617188 183.073486 89.2617188 183.600342 89.8901367 183.600342 90.9375L183.600342 95 184.704834 95 184.704834 90.734375C184.704834 89.2617188 183.828857 88.2841797 182.381592 88.2841797 181.378662 88.2841797 180.655029 88.7158203 180.286865 89.4521484L180.261475 89.4521484 180.261475 85.840332 179.156982 85.840332 179.156982 95zM188.284912 94.1748047C189.325928 94.1748047 190.125732 93.4448242 190.125732 92.4926758L190.125732 91.953125 188.361084 92.0610352C187.472412 92.1181641 186.9646 92.5117188 186.9646 93.1337891 186.9646 93.762207 187.491455 94.1748047 188.284912 94.1748047zM188.037354 95.1142578C186.723389 95.1142578 185.841064 94.3208008 185.841064 93.1337891 185.841064 92.0039062 186.710693 91.2929688 188.234131 91.2041016L190.125732 91.0961914 190.125732 90.5439453C190.125732 89.737793 189.592529 89.2553711 188.678467 89.2553711 187.827881 89.2553711 187.294678 89.6552734 187.155029 90.3027344L186.088623 90.3027344C186.164795 89.1601562 187.142334 88.2841797 188.703857 88.2841797 190.252686 88.2841797 191.230225 89.1220703 191.230225 90.4360352L191.230225 95 190.182861 95 190.182861 93.8637695 190.157471 93.8637695C189.763916 94.6191406 188.926025 95.1142578 188.037354 95.1142578zM192.988525 86.8051758L192.988525 88.3984375 192.004639 88.3984375 192.004639 89.3061523 192.988525 89.3061523 192.988525 93.2861328C192.988525 94.5556641 193.458252 95.0507812 194.670654 95.0507812 194.930908 95.0507812 195.235596 95.0317383 195.368896 95L195.368896 94.0732422C195.292725 94.0859375 195.038818 94.1049805 194.911865 94.1049805 194.346924 94.1049805 194.093018 93.8320312 194.093018 93.2290039L194.093018 89.3061523 195.375244 89.3061523 195.375244 88.3984375 194.093018 88.3984375 194.093018 86.8051758 192.988525 86.8051758zM197.374756 89.0712891L198.244385 85.840332 197.070068 85.840332 196.454346 89.0712891 197.374756 89.0712891zM198.707764 90.2202148C198.707764 91.121582 199.279053 91.7182617 200.440674 92.0166016L201.602295 92.3149414C202.344971 92.5117188 202.61792 92.765625 202.61792 93.2353516 202.61792 93.8320312 202.065674 94.2128906 201.170654 94.2128906 200.275635 94.2128906 199.755127 93.8447266 199.634521 93.1591797L198.530029 93.1591797C198.644287 94.3271484 199.653564 95.1142578 201.10083 95.1142578 202.643311 95.1142578 203.72876 94.3017578 203.72876 93.152832 203.72876 92.1816406 203.246338 91.6992188 201.91333 91.362793L200.891357 91.1152344C200.142334 90.9248047 199.793213 90.6201172 199.793213 90.1630859 199.793213 89.5854492 200.326416 89.1855469 201.132568 89.1855469 201.945068 89.1855469 202.459229 89.5791016 202.5354 90.2138672L203.589111 90.2138672C203.53833 89.0966797 202.5354 88.2841797 201.170654 88.2841797 199.717041 88.2841797 198.707764 89.090332 198.707764 90.2202148zM207.537354 95L208.641846 95 208.641846 91.1152344C208.641846 89.9980469 209.321045 89.2617188 210.362061 89.2617188 211.377686 89.2617188 211.87915 89.8457031 211.87915 90.9121094L211.87915 95 212.983643 95 212.983643 90.715332C212.983643 89.2172852 212.145752 88.2841797 210.698486 88.2841797 209.676514 88.2841797 208.971924 88.7412109 208.60376 89.4521484L208.578369 89.4521484 208.578369 88.3984375 207.537354 88.3984375 207.537354 95zM217.033447 89.2426758C215.998779 89.2426758 215.275146 90.0361328 215.205322 91.1342773L218.791748 91.1342773C218.766357 90.0297852 218.074463 89.2426758 217.033447 89.2426758zM218.766357 93.1083984L219.851807 93.1083984C219.661377 94.2636719 218.544189 95.1142578 217.103271 95.1142578 215.21167 95.1142578 214.062744 93.800293 214.062744 91.7246094 214.062744 89.6743164 215.230713 88.2841797 217.05249 88.2841797 218.836182 88.2841797 219.934326 89.5791016 219.934326 91.5786133L219.934326 91.9975586 215.198975 91.9975586 215.198975 92.0610352C215.198975 93.3242188 215.94165 94.1557617 217.128662 94.1557617 217.966553 94.1557617 218.582275 93.7304688 218.766357 93.1083984zM229.443115 88.3984375L228.351318 88.3984375 227.031006 93.7685547 227.005615 93.7685547 225.507568 88.3984375 224.441162 88.3984375 222.949463 93.7685547 222.924072 93.7685547 221.60376 88.3984375 220.505615 88.3984375 222.352783 95 223.476318 95 224.96167 89.8901367 224.987061 89.8901367 226.47876 95 227.602295 95 229.443115 88.3984375zM40.8815918 95L39.751709 95 36.3747559 85.840332 37.5744629 85.840332 40.2976074 93.6098633 40.3356934 93.6098633 43.0588379 85.840332 44.2585449 85.840332 40.8815918 95zM46.8928223 89.2426758C45.8581543 89.2426758 45.1345215 90.0361328 45.0646973 91.1342773L48.651123 91.1342773C48.6257324 90.0297852 47.9338379 89.2426758 46.8928223 89.2426758zM48.6257324 93.1083984L49.7111816 93.1083984C49.520752 94.2636719 48.4035645 95.1142578 46.9626465 95.1142578 45.0710449 95.1142578 43.9221191 93.800293 43.9221191 91.7246094 43.9221191 89.6743164 45.0900879 88.2841797 46.9118652 88.2841797 48.6955566 88.2841797 49.7937012 89.5791016 49.7937012 91.5786133L49.7937012 91.9975586 45.0583496 91.9975586 45.0583496 92.0610352C45.0583496 93.3242188 45.8010254 94.1557617 46.9880371 94.1557617 47.8259277 94.1557617 48.4416504 93.7304688 48.6257324 93.1083984zM50.904541 95L52.0090332 95 52.0090332 90.8867188C52.0090332 89.9536133 52.567627 89.3378906 53.4245605 89.3378906 53.6911621 89.3378906 53.9260254 89.3696289 54.0148926 89.4013672L54.0148926 88.3286133C53.9260254 88.315918 53.7609863 88.2841797 53.5705566 88.2841797 52.7961426 88.2841797 52.1867676 88.7475586 51.9709473 89.4775391L51.9455566 89.4775391 51.9455566 88.3984375 50.904541 88.3984375 50.904541 95zM54.7956543 90.2202148C54.7956543 91.121582 55.3669434 91.7182617 56.5285645 92.0166016L57.6901855 92.3149414C58.4328613 92.5117188 58.7058105 92.765625 58.7058105 93.2353516 58.7058105 93.8320312 58.1535645 94.2128906 57.2585449 94.2128906 56.3635254 94.2128906 55.8430176 93.8447266 55.7224121 93.1591797L54.6179199 93.1591797C54.7321777 94.3271484 55.7414551 95.1142578 57.1887207 95.1142578 58.7312012 95.1142578 59.8166504 94.3017578 59.8166504 93.152832 59.8166504 92.1816406 59.3342285 91.6992188 58.0012207 91.362793L56.979248 91.1152344C56.2302246 90.9248047 55.8811035 90.6201172 55.8811035 90.1630859 55.8811035 89.5854492 56.4143066 89.1855469 57.220459 89.1855469 58.032959 89.1855469 58.5471191 89.5791016 58.623291 90.2138672L59.677002 90.2138672C59.6262207 89.0966797 58.623291 88.2841797 57.2585449 88.2841797 55.8049316 88.2841797 54.7956543 89.090332 54.7956543 90.2202148zM61.0163574 95L62.1208496 95 62.1208496 88.3984375 61.0163574 88.3984375 61.0163574 95zM61.5686035 87.2875977C61.9494629 87.2875977 62.260498 86.9765625 62.260498 86.6020508 62.260498 86.2211914 61.9494629 85.9165039 61.5686035 85.9165039 61.1940918 85.9165039 60.8830566 86.2211914 60.8830566 86.6020508 60.8830566 86.9765625 61.1940918 87.2875977 61.5686035 87.2875977zM66.3483887 95.1142578C64.5202637 95.1142578 63.2888184 93.800293 63.2888184 91.6992188 63.2888184 89.5917969 64.5202637 88.2841797 66.3483887 88.2841797 68.170166 88.2841797 69.4016113 89.5917969 69.4016113 91.6992188 69.4016113 93.800293 68.170166 95.1142578 66.3483887 95.1142578zM66.3483887 94.1430664C67.5163574 94.1430664 68.2780762 93.2543945 68.2780762 91.6992188 68.2780762 90.144043 67.5163574 89.2553711 66.3483887 89.2553711 65.1804199 89.2553711 64.4123535 90.144043 64.4123535 91.6992188 64.4123535 93.2543945 65.1804199 94.1430664 66.3483887 94.1430664zM70.5124512 95L71.6169434 95 71.6169434 91.1152344C71.6169434 89.9980469 72.2961426 89.2617188 73.3371582 89.2617188 74.3527832 89.2617188 74.854248 89.8457031 74.854248 90.9121094L74.854248 95 75.9587402 95 75.9587402 90.715332C75.9587402 89.2172852 75.1208496 88.2841797 73.673584 88.2841797 72.6516113 88.2841797 71.9470215 88.7412109 71.5788574 89.4521484L71.5534668 89.4521484 71.5534668 88.3984375 70.5124512 88.3984375 70.5124512 95zM83.201416 95.1523438C85.1120605 95.1523438 86.4641113 93.8637695 86.4641113 92.0229492 86.4641113 90.2456055 85.1945801 88.9570312 83.4362793 88.9570312 82.5603027 88.9570312 81.798584 89.2871094 81.3859863 89.8393555L81.3605957 89.8393555 81.6398926 86.855957 85.9436035 86.855957 85.9436035 85.840332 80.7004395 85.840332 80.1989746 90.9692383 81.2717285 90.9692383C81.6462402 90.328125 82.3762207 89.940918 83.2331543 89.940918 84.4519043 89.940918 85.3215332 90.8232422 85.3215332 92.0546875 85.3215332 93.2861328 84.458252 94.1494141 83.2141113 94.1494141 82.1159668 94.1494141 81.2844238 93.4765625 81.1828613 92.4990234L80.0593262 92.4990234C80.154541 94.0605469 81.4494629 95.1523438 83.201416 95.1523438zM88.1843262 95L89.3840332 95 93.4592285 86.9003906 93.4592285 85.840332 87.3972168 85.840332 87.3972168 86.855957 92.3293457 86.855957 92.3293457 86.8813477 88.1843262 95zM94.2780762 95.0634766C94.6843262 95.0634766 95.001709 94.7460938 95.001709 94.3398438 95.001709 93.9335938 94.6843262 93.6162109 94.2780762 93.6162109 93.8718262 93.6162109 93.5544434 93.9335938 93.5544434 94.3398438 93.5544434 94.7460938 93.8718262 95.0634766 94.2780762 95.0634766zM99.876709 95.1523438C97.7375488 95.1523438 96.4997559 93.3115234 96.4997559 90.4169922 96.4997559 87.5478516 97.7502441 85.6879883 99.876709 85.6879883 102.003174 85.6879883 103.240967 87.5351562 103.240967 90.4106445 103.240967 93.3051758 102.009521 95.1523438 99.876709 95.1523438zM99.876709 94.1557617C101.304932 94.1557617 102.092041 92.7021484 102.092041 90.4169922 102.092041 88.1635742 101.292236 86.690918 99.876709 86.690918 98.4611816 86.690918 97.6486816 88.1762695 97.6486816 90.4106445 97.6486816 92.6958008 98.4421387 94.1557617 99.876709 94.1557617zM106.706787 94.1748047C107.747803 94.1748047 108.547607 93.4448242 108.547607 92.4926758L108.547607 91.953125 106.782959 92.0610352C105.894287 92.1181641 105.386475 92.5117188 105.386475 93.1337891 105.386475 93.762207 105.91333 94.1748047 106.706787 94.1748047zM106.459229 95.1142578C105.145264 95.1142578 104.262939 94.3208008 104.262939 93.1337891 104.262939 92.0039062 105.132568 91.2929688 106.656006 91.2041016L108.547607 91.0961914 108.547607 90.5439453C108.547607 89.737793 108.014404 89.2553711 107.100342 89.2553711 106.249756 89.2553711 105.716553 89.6552734 105.576904 90.3027344L104.510498 90.3027344C104.58667 89.1601562 105.564209 88.2841797 107.125732 88.2841797 108.674561 88.2841797 109.6521 89.1220703 109.6521 90.4360352L109.6521 95 108.604736 95 108.604736 93.8637695 108.579346 93.8637695C108.185791 94.6191406 107.3479 95.1142578 106.459229 95.1142578zM113.098877 95L114.203369 95 114.203369 85.840332 113.086182 85.840332 110.648682 87.5922852 110.648682 88.7983398 113.073486 87.0527344 113.098877 87.0527344 113.098877 95z"/>
  </g>
</svg>
