<svg xmlns="http://www.w3.org/2000/svg" width="300" height="180" style="background:#f9f9fa" viewBox="0 0 300 180">
  <g fill="none" fill-rule="evenodd">
    <rect width="80" height="24" x="110" y="78" fill="#0060DF" rx="2"/>
    <path fill="#FFF" d="M116.538086,91.8408203 C116.613281,93.2426758 117.773438,94.1289062 119.492188,94.1289062 C121.329102,94.1289062 122.483887,93.2211914 122.483887,91.7709961 C122.483887,90.6376953 121.823242,89.9985352 120.233398,89.6225586 L119.379395,89.4130859 C118.380371,89.1660156 117.972168,88.84375 117.972168,88.2958984 C117.972168,87.6083984 118.611328,87.1357422 119.545898,87.1357422 C120.480469,87.1357422 121.119629,87.6030273 121.189453,88.3764648 L122.360352,88.3764648 C122.322754,87.0390625 121.200195,86.1206055 119.562012,86.1206055 C117.907715,86.1206055 116.742188,87.0390625 116.742188,88.3764648 C116.742188,89.4560547 117.402832,90.1220703 118.826172,90.4658203 L119.830566,90.7075195 C120.834961,90.9545898 121.259277,91.3144531 121.259277,91.9160156 C121.259277,92.6088867 120.555664,93.1137695 119.578125,93.1137695 C118.557617,93.1137695 117.811035,92.6088867 117.725098,91.8408203 L116.538086,91.8408203 Z M124.637695,90.7719727 L124.626953,90.7719727 L124.626953,86.2495117 L123.466797,86.2495117 L123.466797,94 L124.626953,94 L124.626953,91.9697266 L125.110352,91.4916992 L127.027832,94 L128.375977,94 L125.942871,90.7827148 L128.284668,88.3496094 L126.92041,88.3496094 L124.637695,90.7719727 Z M129.009766,94 L130.169922,94 L130.169922,88.3496094 L129.009766,88.3496094 L129.009766,94 Z M129.589844,87.5224609 C129.96582,87.5224609 130.266602,87.2270508 130.266602,86.8618164 C130.266602,86.4912109 129.96582,86.1958008 129.589844,86.1958008 C129.219238,86.1958008 128.918457,86.4912109 128.918457,86.8618164 C128.918457,87.2270508 129.219238,87.5224609 129.589844,87.5224609 Z M134.300293,88.2583008 C135.734375,88.2583008 136.679688,89.3862305 136.679688,91.1748047 C136.679688,92.9633789 135.739746,94.0966797 134.321777,94.0966797 C133.510742,94.0966797 132.866211,93.6992188 132.543945,93.0708008 L132.51709,93.0708008 L132.51709,95.8691406 L131.356934,95.8691406 L131.356934,88.3496094 L132.479492,88.3496094 L132.479492,89.3217773 L132.500977,89.3217773 C132.833984,88.671875 133.483887,88.2583008 134.300293,88.2583008 Z M133.994141,93.1137695 C134.912598,93.1137695 135.487305,92.3618164 135.487305,91.1748047 C135.487305,89.9931641 134.912598,89.2358398 133.994141,89.2358398 C133.10791,89.2358398 132.511719,90.0092773 132.511719,91.1748047 C132.511719,92.3510742 133.102539,93.1137695 133.994141,93.1137695 Z M143.065918,94 L143.065918,87.2861328 L145.43457,87.2861328 L145.43457,86.2495117 L139.48877,86.2495117 L139.48877,87.2861328 L141.862793,87.2861328 L141.862793,94 L143.065918,94 Z M146.31543,94 L147.475586,94 L147.475586,90.734375 C147.475586,89.8427734 148.001953,89.2519531 148.861328,89.2519531 C149.677734,89.2519531 150.09668,89.7514648 150.09668,90.5839844 L150.09668,94 L151.262207,94 L151.262207,90.3583984 C151.262207,89.0800781 150.520996,88.2529297 149.280273,88.2529297 C148.420898,88.2529297 147.803223,88.6342773 147.491699,89.2949219 L147.464844,89.2949219 L147.464844,86.2495117 L146.31543,86.2495117 L146.31543,94 Z M152.416992,94 L153.577148,94 L153.577148,88.3496094 L152.416992,88.3496094 L152.416992,94 Z M152.99707,87.5224609 C153.373047,87.5224609 153.673828,87.2270508 153.673828,86.8618164 C153.673828,86.4912109 153.373047,86.1958008 152.99707,86.1958008 C152.626465,86.1958008 152.325684,86.4912109 152.325684,86.8618164 C152.325684,87.2270508 152.626465,87.5224609 152.99707,87.5224609 Z M154.662109,89.9501953 C154.662109,90.7397461 155.177734,91.2714844 156.198242,91.5185547 L157.208008,91.765625 C157.798828,91.9160156 158.013672,92.1147461 158.013672,92.4746094 C158.013672,92.9311523 157.583984,93.2211914 156.885742,93.2211914 C156.176758,93.2211914 155.757812,92.9204102 155.666504,92.3779297 L154.51709,92.3779297 C154.608398,93.4145508 155.494629,94.1074219 156.832031,94.1074219 C158.217773,94.1074219 159.179199,93.3984375 159.179199,92.3671875 C159.179199,91.534668 158.749512,91.1049805 157.61084,90.8310547 L156.660156,90.6108398 C156.074707,90.4658203 155.79541,90.2294922 155.79541,89.8803711 C155.79541,89.4345703 156.214355,89.128418 156.842773,89.128418 C157.492676,89.128418 157.90625,89.4453125 157.959961,89.9555664 L159.050293,89.9555664 C159.012695,88.9511719 158.131836,88.2475586 156.875,88.2475586 C155.553711,88.2475586 154.662109,88.9404297 154.662109,89.9501953 Z M162.106445,91.8408203 C162.181641,93.2426758 163.341797,94.1289062 165.060547,94.1289062 C166.897461,94.1289062 168.052246,93.2211914 168.052246,91.7709961 C168.052246,90.6376953 167.391602,89.9985352 165.801758,89.6225586 L164.947754,89.4130859 C163.94873,89.1660156 163.540527,88.84375 163.540527,88.2958984 C163.540527,87.6083984 164.179688,87.1357422 165.114258,87.1357422 C166.048828,87.1357422 166.687988,87.6030273 166.757812,88.3764648 L167.928711,88.3764648 C167.891113,87.0390625 166.768555,86.1206055 165.130371,86.1206055 C163.476074,86.1206055 162.310547,87.0390625 162.310547,88.3764648 C162.310547,89.4560547 162.971191,90.1220703 164.394531,90.4658203 L165.398926,90.7075195 C166.40332,90.9545898 166.827637,91.3144531 166.827637,91.9160156 C166.827637,92.6088867 166.124023,93.1137695 165.146484,93.1137695 C164.125977,93.1137695 163.379395,92.6088867 163.293457,91.8408203 L162.106445,91.8408203 Z M169.330566,87.012207 L169.330566,88.3496094 L168.508789,88.3496094 L168.508789,89.2680664 L169.330566,89.2680664 L169.330566,92.512207 C169.330566,93.6025391 169.776367,94.0375977 170.92041,94.0375977 C171.178223,94.0375977 171.436035,94.0161133 171.564941,93.9838867 L171.564941,93.0654297 C171.489746,93.081543 171.301758,93.0922852 171.183594,93.0922852 C170.710938,93.0922852 170.496094,92.8720703 170.496094,92.3833008 L170.496094,89.2680664 L171.570312,89.2680664 L171.570312,88.3496094 L170.496094,88.3496094 L170.496094,87.012207 L169.330566,87.012207 Z M174.75,89.1821289 C173.938965,89.1821289 173.369629,89.7998047 173.310547,90.6538086 L176.135742,90.6538086 C176.108887,89.7890625 175.561035,89.1821289 174.75,89.1821289 Z M176.130371,92.340332 L177.231445,92.340332 C177.070312,93.371582 176.092773,94.1074219 174.79834,94.1074219 C173.138672,94.1074219 172.134277,92.9848633 172.134277,91.2016602 C172.134277,89.4291992 173.154785,88.2475586 174.75,88.2475586 C176.318359,88.2475586 177.295898,89.3540039 177.295898,91.0673828 L177.295898,91.4648438 L173.305176,91.4648438 L173.305176,91.534668 C173.305176,92.5175781 173.895996,93.1674805 174.825195,93.1674805 C175.48584,93.1674805 175.974609,92.8344727 176.130371,92.340332 Z M181.13623,88.2583008 C182.570312,88.2583008 183.515625,89.3862305 183.515625,91.1748047 C183.515625,92.9633789 182.575684,94.0966797 181.157715,94.0966797 C180.34668,94.0966797 179.702148,93.6992188 179.379883,93.0708008 L179.353027,93.0708008 L179.353027,95.8691406 L178.192871,95.8691406 L178.192871,88.3496094 L179.31543,88.3496094 L179.31543,89.3217773 L179.336914,89.3217773 C179.669922,88.671875 180.319824,88.2583008 181.13623,88.2583008 Z M180.830078,93.1137695 C181.748535,93.1137695 182.323242,92.3618164 182.323242,91.1748047 C182.323242,89.9931641 181.748535,89.2358398 180.830078,89.2358398 C179.943848,89.2358398 179.347656,90.0092773 179.347656,91.1748047 C179.347656,92.3510742 179.938477,93.1137695 180.830078,93.1137695 Z"/>
  </g>
</svg>
