<svg xmlns="http://www.w3.org/2000/svg" width="300" height="180" style="background:#f9f9fa" viewBox="0 0 300 180">
  <g fill="#0C0C0D" fill-rule="evenodd">
    <rect width="132" height="32" x="84" y="74" fill-opacity=".1" rx="2"/>
    <path d="M129.136963,94.1523438 C131.161865,94.1523438 132.520264,93.1430664 132.939209,91.3339844 L131.783936,91.3339844 C131.453857,92.4511719 130.489014,93.0986328 129.143311,93.0986328 C127.334229,93.0986328 126.185303,91.6640625 126.185303,89.4169922 C126.185303,87.1889648 127.346924,85.7416992 129.136963,85.7416992 C130.44458,85.7416992 131.491943,86.5288086 131.783936,87.7285156 L132.939209,87.7285156 C132.647217,85.9003906 131.130127,84.6879883 129.136963,84.6879883 C126.629639,84.6879883 125.010986,86.5415039 125.010986,89.4169922 C125.010986,92.3178711 126.610596,94.1523438 129.136963,94.1523438 Z M134.170654,94 L135.275146,94 L135.275146,90.1533203 C135.275146,89.0107422 135.954346,88.2617188 137.05249,88.2617188 C138.087158,88.2617188 138.614014,88.8901367 138.614014,89.9375 L138.614014,94 L139.718506,94 L139.718506,89.734375 C139.718506,88.2617188 138.842529,87.2841797 137.395264,87.2841797 C136.392334,87.2841797 135.668701,87.7158203 135.300537,88.4521484 L135.275146,88.4521484 L135.275146,84.840332 L134.170654,84.840332 L134.170654,94 Z M143.857178,94.1142578 C142.029053,94.1142578 140.797607,92.800293 140.797607,90.6992188 C140.797607,88.5917969 142.029053,87.2841797 143.857178,87.2841797 C145.678955,87.2841797 146.9104,88.5917969 146.9104,90.6992188 C146.9104,92.800293 145.678955,94.1142578 143.857178,94.1142578 Z M143.857178,93.1430664 C145.025146,93.1430664 145.786865,92.2543945 145.786865,90.6992188 C145.786865,89.144043 145.025146,88.2553711 143.857178,88.2553711 C142.689209,88.2553711 141.921143,89.144043 141.921143,90.6992188 C141.921143,92.2543945 142.689209,93.1430664 143.857178,93.1430664 Z M150.75708,94.1142578 C148.928955,94.1142578 147.69751,92.800293 147.69751,90.6992188 C147.69751,88.5917969 148.928955,87.2841797 150.75708,87.2841797 C152.578857,87.2841797 153.810303,88.5917969 153.810303,90.6992188 C153.810303,92.800293 152.578857,94.1142578 150.75708,94.1142578 Z M150.75708,93.1430664 C151.925049,93.1430664 152.686768,92.2543945 152.686768,90.6992188 C152.686768,89.144043 151.925049,88.2553711 150.75708,88.2553711 C149.589111,88.2553711 148.821045,89.144043 148.821045,90.6992188 C148.821045,92.2543945 149.589111,93.1430664 150.75708,93.1430664 Z M154.806885,89.2202148 C154.806885,90.121582 155.378174,90.7182617 156.539795,91.0166016 L157.701416,91.3149414 C158.444092,91.5117188 158.717041,91.765625 158.717041,92.2353516 C158.717041,92.8320312 158.164795,93.2128906 157.269775,93.2128906 C156.374756,93.2128906 155.854248,92.8447266 155.733643,92.1591797 L154.62915,92.1591797 C154.743408,93.3271484 155.752686,94.1142578 157.199951,94.1142578 C158.742432,94.1142578 159.827881,93.3017578 159.827881,92.152832 C159.827881,91.1816406 159.345459,90.6992188 158.012451,90.362793 L156.990479,90.1152344 C156.241455,89.9248047 155.892334,89.6201172 155.892334,89.1630859 C155.892334,88.5854492 156.425537,88.1855469 157.231689,88.1855469 C158.044189,88.1855469 158.55835,88.5791016 158.634521,89.2138672 L159.688232,89.2138672 C159.637451,88.0966797 158.634521,87.2841797 157.269775,87.2841797 C155.816162,87.2841797 154.806885,88.090332 154.806885,89.2202148 Z M163.617432,88.2426758 C162.582764,88.2426758 161.859131,89.0361328 161.789307,90.1342773 L165.375732,90.1342773 C165.350342,89.0297852 164.658447,88.2426758 163.617432,88.2426758 Z M165.350342,92.1083984 L166.435791,92.1083984 C166.245361,93.2636719 165.128174,94.1142578 163.687256,94.1142578 C161.795654,94.1142578 160.646729,92.800293 160.646729,90.7246094 C160.646729,88.6743164 161.814697,87.2841797 163.636475,87.2841797 C165.420166,87.2841797 166.518311,88.5791016 166.518311,90.5786133 L166.518311,90.9975586 L161.782959,90.9975586 L161.782959,91.0610352 C161.782959,92.3242188 162.525635,93.1557617 163.712646,93.1557617 C164.550537,93.1557617 165.16626,92.7304688 165.350342,92.1083984 Z M168.562256,94.0634766 C168.968506,94.0634766 169.285889,93.7460938 169.285889,93.3398438 C169.285889,92.9335938 168.968506,92.6162109 168.562256,92.6162109 C168.156006,92.6162109 167.838623,92.9335938 167.838623,93.3398438 C167.838623,93.7460938 168.156006,94.0634766 168.562256,94.0634766 Z M171.717041,94.0634766 C172.123291,94.0634766 172.440674,93.7460938 172.440674,93.3398438 C172.440674,92.9335938 172.123291,92.6162109 171.717041,92.6162109 C171.310791,92.6162109 170.993408,92.9335938 170.993408,93.3398438 C170.993408,93.7460938 171.310791,94.0634766 171.717041,94.0634766 Z M174.871826,94.0634766 C175.278076,94.0634766 175.595459,93.7460938 175.595459,93.3398438 C175.595459,92.9335938 175.278076,92.6162109 174.871826,92.6162109 C174.465576,92.6162109 174.148193,92.9335938 174.148193,93.3398438 C174.148193,93.7460938 174.465576,94.0634766 174.871826,94.0634766 Z"/>
  </g>
</svg>
