<svg xmlns="http://www.w3.org/2000/svg" width="300" height="180" style="background:#f9f9fa" viewBox="0 0 300 180">
  <g fill="#0C0C0D" fill-rule="evenodd">
    <rect width="132" height="32" x="84" y="74" fill-opacity=".1" rx="2"/>
    <path d="M128.435547,94.1523438 C130.542969,94.1523438 131.977539,93.0415039 132.32666,91.1499023 L130.911133,91.1499023 C130.625488,92.2543945 129.717773,92.9082031 128.441895,92.9082031 C126.759766,92.9082031 125.693359,91.5561523 125.693359,89.4169922 C125.693359,87.296875 126.772461,85.9321289 128.435547,85.9321289 C129.679688,85.9321289 130.657227,86.7001953 130.911133,87.8745117 L132.320312,87.8745117 C132.079102,85.9638672 130.51123,84.6879883 128.435547,84.6879883 C125.877441,84.6879883 124.239746,86.5161133 124.239746,89.4169922 C124.239746,92.3369141 125.864746,94.1523438 128.435547,94.1523438 Z M133.494629,94 L134.865723,94 L134.865723,90.140625 C134.865723,89.0869141 135.487793,88.3886719 136.503418,88.3886719 C137.468262,88.3886719 137.963379,88.9790039 137.963379,89.9628906 L137.963379,94 L139.34082,94 L139.34082,89.6962891 C139.34082,88.1855469 138.464844,87.2080078 136.998535,87.2080078 C135.98291,87.2080078 135.25293,87.6586914 134.884766,88.4394531 L134.853027,88.4394531 L134.853027,84.840332 L133.494629,84.840332 L133.494629,94 Z M143.530273,94.1269531 C141.619629,94.1269531 140.362793,92.8129883 140.362793,90.6611328 C140.362793,88.515625 141.625977,87.2016602 143.530273,87.2016602 C145.43457,87.2016602 146.697754,88.515625 146.697754,90.6611328 C146.697754,92.8129883 145.440918,94.1269531 143.530273,94.1269531 Z M143.530273,92.9970703 C144.609375,92.9970703 145.30127,92.1464844 145.30127,90.6611328 C145.30127,89.1821289 144.603027,88.331543 143.530273,88.331543 C142.45752,88.331543 141.759277,89.1821289 141.759277,90.6611328 C141.759277,92.1464844 142.45752,92.9970703 143.530273,92.9970703 Z M150.626953,94.1269531 C148.716309,94.1269531 147.459473,92.8129883 147.459473,90.6611328 C147.459473,88.515625 148.722656,87.2016602 150.626953,87.2016602 C152.53125,87.2016602 153.794434,88.515625 153.794434,90.6611328 C153.794434,92.8129883 152.537598,94.1269531 150.626953,94.1269531 Z M150.626953,92.9970703 C151.706055,92.9970703 152.397949,92.1464844 152.397949,90.6611328 C152.397949,89.1821289 151.699707,88.331543 150.626953,88.331543 C149.554199,88.331543 148.855957,89.1821289 148.855957,90.6611328 C148.855957,92.1464844 149.554199,92.9970703 150.626953,92.9970703 Z M154.733887,89.2138672 C154.733887,90.1469727 155.343262,90.7753906 156.549316,91.0673828 L157.742676,91.359375 C158.440918,91.5371094 158.694824,91.7719727 158.694824,92.1972656 C158.694824,92.7368164 158.187012,93.0795898 157.361816,93.0795898 C156.523926,93.0795898 156.028809,92.7241211 155.920898,92.0830078 L154.5625,92.0830078 C154.67041,93.3081055 155.717773,94.1269531 157.29834,94.1269531 C158.936035,94.1269531 160.072266,93.2890625 160.072266,92.0703125 C160.072266,91.0864258 159.564453,90.5786133 158.21875,90.2548828 L157.095215,89.9946289 C156.40332,89.8232422 156.073242,89.5439453 156.073242,89.1313477 C156.073242,88.6044922 156.568359,88.2426758 157.311035,88.2426758 C158.079102,88.2426758 158.567871,88.6171875 158.631348,89.2202148 L159.919922,89.2202148 C159.875488,88.0332031 158.834473,87.2016602 157.349121,87.2016602 C155.787598,87.2016602 154.733887,88.0205078 154.733887,89.2138672 Z M163.931641,88.3061523 C162.973145,88.3061523 162.300293,89.0361328 162.230469,90.0454102 L165.569336,90.0454102 C165.537598,89.0234375 164.890137,88.3061523 163.931641,88.3061523 Z M165.562988,92.0385742 L166.864258,92.0385742 C166.673828,93.2573242 165.518555,94.1269531 163.98877,94.1269531 C162.027344,94.1269531 160.840332,92.800293 160.840332,90.6928711 C160.840332,88.5981445 162.046387,87.2016602 163.931641,87.2016602 C165.785156,87.2016602 166.94043,88.5092773 166.94043,90.5341797 L166.94043,91.0039062 L162.224121,91.0039062 L162.224121,91.0864258 C162.224121,92.2480469 162.922363,93.0161133 164.020508,93.0161133 C164.80127,93.0161133 165.378906,92.6225586 165.562988,92.0385742 Z M169.028809,94.0698242 C169.492188,94.0698242 169.860352,93.7016602 169.860352,93.2382812 C169.860352,92.7749023 169.492188,92.4067383 169.028809,92.4067383 C168.56543,92.4067383 168.197266,92.7749023 168.197266,93.2382812 C168.197266,93.7016602 168.56543,94.0698242 169.028809,94.0698242 Z M172.297852,94.0698242 C172.76123,94.0698242 173.129395,93.7016602 173.129395,93.2382812 C173.129395,92.7749023 172.76123,92.4067383 172.297852,92.4067383 C171.834473,92.4067383 171.466309,92.7749023 171.466309,93.2382812 C171.466309,93.7016602 171.834473,94.0698242 172.297852,94.0698242 Z M175.573242,94.0698242 C176.036621,94.0698242 176.398438,93.7016602 176.398438,93.2382812 C176.398438,92.7749023 176.036621,92.4067383 175.573242,92.4067383 C175.103516,92.4067383 174.741699,92.7749023 174.741699,93.2382812 C174.741699,93.7016602 175.103516,94.0698242 175.573242,94.0698242 Z"/>
  </g>
</svg>
