<?xml version="1.0" encoding="UTF-8" standalone="no"?>
<svg width="44px" height="28px" viewBox="0 0 44 28" version="1.1" xmlns="http://www.w3.org/2000/svg" xmlns:xlink="http://www.w3.org/1999/xlink" xmlns:sketch="http://www.bohemiancoding.com/sketch/ns">
    <!-- Generator: Sketch 3.4.4 (17249) - http://www.bohemiancoding.com/sketch -->
    <title>icon button small focused - osx</title>
    <desc>Created with Sketch.</desc>
    <defs>
        <rect id="path-1" x="0" y="0" width="40" height="24" rx="4"></rect>
    </defs>
    <g id="All-Screens" stroke="none" stroke-width="1" fill="none" fill-rule="evenodd" sketch:type="MSPage">
        <g id="icon-button-small-focused---osx" sketch:type="MSLayerGroup" transform="translate(2.000000, 2.000000)">
            <g id="Button-Shape">
                <use stroke-opacity="0.75" stroke="#61B4FF" stroke-width="2" fill="#FBFBFB" fill-rule="evenodd" sketch:type="MSShapeGroup" xlink:href="#path-1"></use>
                <use stroke="#FFFFFF" stroke-width="1" fill="none" xlink:href="#path-1"></use>
            </g>
            <path d="M19.7854349,17.5281429 C18.5759176,17.5281429 17.4988142,17.1951429 16.5524694,16.5291429 C15.6065383,15.8635714 14.9026763,14.9815714 14.4408832,13.8848571 C14.1934349,13.305 14.0506763,12.639 14.0117797,11.8868571 C13.973297,11.1351429 14.029159,10.3992857 14.1785383,9.68014286 C14.3279176,8.961 14.5650211,8.271 14.8894349,7.60971429 C15.2142625,6.948 15.5966073,6.41142857 16.0368832,6 L15.9661245,7.86514286 C16.013297,7.803 16.1585383,7.76871429 16.4022625,7.76185714 C16.6455728,7.75585714 16.7949521,7.79014286 16.8508142,7.86514286 C17.0299866,7.50642857 17.3730211,7.20128571 17.8790901,6.94885714 C18.385159,6.69685714 18.8858487,6.56657143 19.3815728,6.55757143 C19.1506763,6.75685714 18.8957797,7.08514286 18.6156418,7.54328571 C18.3359176,8.001 18.2113659,8.36271429 18.241159,8.62842857 C18.3475039,8.66357143 18.481159,8.69357143 18.641297,8.718 C18.8018487,8.74242857 18.9363314,8.75871429 19.045159,8.76771429 C19.1539866,8.77628571 19.299228,8.78571429 19.481297,8.79428571 C19.6625383,8.80285714 19.7701245,8.80971429 19.8044694,8.814 C19.8686073,8.83628571 19.8888832,8.937 19.865297,9.11614286 C19.8417108,9.29528571 19.7767452,9.46242857 19.6699866,9.61671429 C19.6484694,9.64842857 19.613297,9.68914286 19.5644694,9.73971429 C19.515228,9.79071429 19.3944004,9.86957143 19.2019866,9.97542857 C19.0099866,10.0812857 18.7944004,10.1571429 18.555228,10.2008571 L18.651228,11.4552857 L17.7603314,11.0104286 C17.6837797,11.2011429 17.667228,11.3811429 17.7123314,11.5517143 C17.7570211,11.7218571 17.8339866,11.8692857 17.9428142,11.9931429 C18.0520556,12.117 18.1919176,12.2087143 18.3624004,12.2682857 C18.5337108,12.3282857 18.7062625,12.3428571 18.8817108,12.3115714 C19.0997797,12.2717143 19.3087452,12.1954286 19.5094349,12.0822857 C19.7105383,11.9695714 19.8888832,11.8701429 20.0444694,11.784 C20.2008832,11.6978571 20.3577108,11.6588571 20.5157797,11.6678571 C20.7764694,11.6858571 20.967228,11.7587143 21.089297,11.8868571 C21.2109521,12.0154286 21.2527452,12.159 21.2142625,12.318 C21.2097108,12.3274286 21.2047452,12.3394286 21.1981245,12.3548571 C21.1915039,12.3702857 21.173297,12.3981429 21.1435039,12.4375714 C21.1137108,12.4774286 21.075228,12.5117143 21.0284694,12.5408571 C20.981297,12.5691429 20.9142625,12.5927143 20.8269521,12.6102857 C20.7388142,12.6278571 20.6395039,12.6304286 20.5286073,12.6167143 C20.2720556,13.0371429 19.9637797,13.3367143 19.6025383,13.5162857 C19.241297,13.6954286 18.7944004,13.7605714 18.2601935,13.7117143 C18.5759176,13.9817143 18.9230901,14.1642857 19.3017108,14.2598571 C19.6795039,14.3545714 20.0395039,14.3678571 20.3808832,14.2992857 C20.7230901,14.2307143 21.0528832,14.1158571 21.3710901,13.9542857 C21.689297,13.7927143 21.9628142,13.599 22.1916418,13.3735714 C22.4200556,13.1477143 22.5921935,12.9175714 22.707228,12.6831429 C22.8909521,12.2807143 22.9741245,11.8551429 22.9575728,11.4055714 C22.9401935,10.9568571 22.8599176,10.5398571 22.7167452,10.1545714 C22.5735728,9.76971429 22.4059866,9.49371429 22.2139866,9.32528571 C22.5855728,9.49371429 22.8777108,9.669 23.0920556,9.85242857 C23.3055728,10.0362857 23.4698487,10.2852857 23.585297,10.5994286 C23.6494349,9.84728571 23.5265383,9.08828571 23.2166073,8.32285714 C22.9070901,7.55785714 22.4593659,6.92914286 21.8742625,6.438 C23.0064004,6.77871429 23.8861245,7.39714286 24.5142625,8.29285714 C25.1419866,9.189 25.4647452,10.3341429 25.4817108,11.7278571 C25.4904004,12.2897143 25.4039176,12.8537143 25.2226763,13.4198571 C25.0406073,13.9864286 24.7766073,14.5127143 24.4310901,14.9995714 C24.0847452,15.4864286 23.681297,15.9197143 23.2199176,16.3002857 C22.7581245,16.6808571 22.2297108,16.9804286 21.6342625,17.1994286 C21.0379866,17.4188571 20.4218487,17.5281429 19.7854349,17.5281429" id="Icon---Flat-Firefox" fill="#808080" sketch:type="MSShapeGroup"></path>
        </g>
    </g>
</svg>