<?xml version="1.0" encoding="UTF-8" standalone="no"?>
<svg width="40px" height="40px" viewBox="0 0 40 40" version="1.1" xmlns="http://www.w3.org/2000/svg" xmlns:xlink="http://www.w3.org/1999/xlink" xmlns:sketch="http://www.bohemiancoding.com/sketch/ns">
    <!-- Generator: Sketch 3.4.4 (17249) - http://www.bohemiancoding.com/sketch -->
    <title>icon button large - osx</title>
    <desc>Created with Sketch.</desc>
    <defs></defs>
    <g id="All-Screens" stroke="none" stroke-width="1" fill="none" fill-rule="evenodd" sketch:type="MSPage">
        <g id="icon-button-large---osx" sketch:type="MSLayerGroup">
            <rect id="Button-Shape" stroke="#B1B1B1" fill="#FBFBFB" sketch:type="MSShapeGroup" x="0" y="0" width="40" height="40" rx="4"></rect>
            <path d="M19.7139132,27.3708571 C18.1012235,27.3708571 16.6650856,26.9268571 15.4032925,26.0388571 C14.1420511,25.1514286 13.2035684,23.9754286 12.5878442,22.5131429 C12.2579132,21.74 12.0675684,20.852 12.0157063,19.8491429 C11.9643959,18.8468571 12.0388787,17.8657143 12.2380511,16.9068571 C12.4372235,15.948 12.7533615,15.028 13.1859132,14.1462857 C13.6190166,13.264 14.1288097,12.5485714 14.7158442,12 L14.6214994,14.4868571 C14.6843959,14.404 14.8780511,14.3582857 15.2030166,14.3491429 C15.5274304,14.3411429 15.7266028,14.3868571 15.8010856,14.4868571 C16.0399822,14.0085714 16.4973615,13.6017143 17.1721201,13.2651429 C17.8468787,12.9291429 18.5144649,12.7554286 19.1754304,12.7434286 C18.8675684,13.0091429 18.5277063,13.4468571 18.154189,14.0577143 C17.7812235,14.668 17.6151546,15.1502857 17.6548787,15.5045714 C17.7966718,15.5514286 17.9748787,15.5914286 18.1883959,15.624 C18.4024649,15.6565714 18.5817753,15.6782857 18.7268787,15.6902857 C18.8719822,15.7017143 19.0656373,15.7142857 19.3083959,15.7257143 C19.5500511,15.7371429 19.6934994,15.7462857 19.7392925,15.752 C19.8248097,15.7817143 19.8518442,15.916 19.8203959,16.1548571 C19.7889477,16.3937143 19.702327,16.6165714 19.5599822,16.8222857 C19.5312925,16.8645714 19.4843959,16.9188571 19.4192925,16.9862857 C19.3536373,17.0542857 19.1925339,17.1594286 18.9359822,17.3005714 C18.6799822,17.4417143 18.3925339,17.5428571 18.0736373,17.6011429 L18.2016373,19.2737143 L17.0137753,18.6805714 C16.9117063,18.9348571 16.8896373,19.1748571 16.9497753,19.4022857 C17.0093615,19.6291429 17.1119822,19.8257143 17.2570856,19.9908571 C17.4027408,20.156 17.5892235,20.2782857 17.8165339,20.3577143 C18.0449477,20.4377143 18.2750166,20.4571429 18.5089477,20.4154286 C18.7997063,20.3622857 19.078327,20.2605714 19.3459132,20.1097143 C19.6140511,19.9594286 19.8518442,19.8268571 20.0592925,19.712 C20.2678442,19.5971429 20.4769477,19.5451429 20.6877063,19.5571429 C21.0352925,19.5811429 21.2896373,19.6782857 21.4523959,19.8491429 C21.6146028,20.0205714 21.670327,20.212 21.6190166,20.424 C21.6129477,20.4365714 21.606327,20.4525714 21.5974994,20.4731429 C21.5886718,20.4937143 21.5643959,20.5308571 21.5246718,20.5834286 C21.4849477,20.6365714 21.4336373,20.6822857 21.3712925,20.7211429 C21.3083959,20.7588571 21.2190166,20.7902857 21.1026028,20.8137143 C20.9850856,20.8371429 20.8526718,20.8405714 20.7048097,20.8222857 C20.3627408,21.3828571 19.9517063,21.7822857 19.4700511,22.0217143 C18.9883959,22.2605714 18.3925339,22.3474286 17.680258,22.2822857 C18.1012235,22.6422857 18.5641201,22.8857143 19.0689477,23.0131429 C19.5726718,23.1394286 20.0526718,23.1571429 20.5078442,23.0657143 C20.9641201,22.9742857 21.4038442,22.8211429 21.8281201,22.6057143 C22.2523959,22.3902857 22.6170856,22.132 22.922189,21.8314286 C23.2267408,21.5302857 23.456258,21.2234286 23.6096373,20.9108571 C23.8546028,20.3742857 23.9654994,19.8068571 23.9434304,19.2074286 C23.920258,18.6091429 23.8132235,18.0531429 23.622327,17.5394286 C23.4314304,17.0262857 23.2079822,16.6582857 22.9519822,16.4337143 C23.4474304,16.6582857 23.8369477,16.892 24.1227408,17.1365714 C24.4074304,17.3817143 24.6264649,17.7137143 24.7803959,18.1325714 C24.8659132,17.1297143 24.7020511,16.1177143 24.2888097,15.0971429 C23.8761201,14.0771429 23.2791546,13.2388571 22.4990166,12.584 C24.0085339,13.0382857 25.1814994,13.8628571 26.0190166,15.0571429 C26.8559822,16.252 27.286327,17.7788571 27.3089477,19.6371429 C27.3205339,20.3862857 27.2052235,21.1382857 26.9635684,21.8931429 C26.7208097,22.6485714 26.3688097,23.3502857 25.9081201,23.9994286 C25.446327,24.6485714 24.9083959,25.2262857 24.2932235,25.7337143 C23.6774994,26.2411429 22.9729477,26.6405714 22.1790166,26.9325714 C21.3839822,27.2251429 20.5624649,27.3708571 19.7139132,27.3708571" id="Icon---Flat-Firefox" fill="#808080" sketch:type="MSShapeGroup"></path>
        </g>
    </g>
</svg>