<?xml version="1.0" encoding="UTF-8" standalone="no"?>
<svg width="140px" height="40px" viewBox="0 0 140 40" version="1.1" xmlns="http://www.w3.org/2000/svg" xmlns:xlink="http://www.w3.org/1999/xlink" xmlns:sketch="http://www.bohemiancoding.com/sketch/ns">
    <!-- Generator: Sketch 3.4.4 (17249) - http://www.bohemiancoding.com/sketch -->
    <title>tab selected - osx</title>
    <desc>Created with Sketch.</desc>
    <defs>
        <filter x="-50%" y="-50%" width="200%" height="200%" filterUnits="objectBoundingBox" id="filter-1">
            <feOffset dx="0" dy="-1" in="SourceAlpha" result="shadowOffsetInner1"></feOffset>
            <feGaussianBlur stdDeviation="0" in="shadowOffsetInner1" result="shadowBlurInner1"></feGaussianBlur>
            <feComposite in="shadowBlurInner1" in2="SourceAlpha" operator="arithmetic" k2="-1" k3="1" result="shadowInnerInner1"></feComposite>
            <feColorMatrix values="0 0 0 0 0   0 0 0 0 0   0 0 0 0 0  0 0 0 0.07 0" in="shadowInnerInner1" type="matrix" result="shadowMatrixInner1"></feColorMatrix>
            <feMerge>
                <feMergeNode in="SourceGraphic"></feMergeNode>
                <feMergeNode in="shadowMatrixInner1"></feMergeNode>
            </feMerge>
        </filter>
        <filter x="-50%" y="-50%" width="200%" height="200%" filterUnits="objectBoundingBox" id="filter-2">
            <feOffset dx="0" dy="-1" in="SourceAlpha" result="shadowOffsetInner1"></feOffset>
            <feGaussianBlur stdDeviation="0" in="shadowOffsetInner1" result="shadowBlurInner1"></feGaussianBlur>
            <feComposite in="shadowBlurInner1" in2="SourceAlpha" operator="arithmetic" k2="-1" k3="1" result="shadowInnerInner1"></feComposite>
            <feColorMatrix values="0 0 0 0 0.0235294118   0 0 0 0 0.458823529   0 0 0 0 0.82745098  0 0 0 0.7 0" in="shadowInnerInner1" type="matrix" result="shadowMatrixInner1"></feColorMatrix>
            <feMerge>
                <feMergeNode in="SourceGraphic"></feMergeNode>
                <feMergeNode in="shadowMatrixInner1"></feMergeNode>
            </feMerge>
        </filter>
    </defs>
    <g id="All-Screens" stroke="none" stroke-width="1" fill="none" fill-rule="evenodd" sketch:type="MSPage">
        <g id="tab-selected---osx" sketch:type="MSLayerGroup">
            <g id="Tab-+-Button" sketch:type="MSShapeGroup">
                <rect id="Tab" fill="#FBFBFB" filter="url(#filter-1)" x="0" y="0" width="140" height="40"></rect>
                <path d="M52.8486328,24.8642578 C54.9472656,24.8642578 56.1914062,23.8320312 56.1914062,22.0957031 C56.1914062,20.7900391 55.3369141,19.8671875 53.9902344,19.6962891 L53.9902344,19.5869141 C54.9404297,19.4160156 55.6923828,18.4863281 55.6923828,17.4609375 C55.6923828,15.9501953 54.5849609,15 52.7734375,15 L49,15 L49,24.8642578 L52.8486328,24.8642578 Z M50.2304688,16.0869141 L52.5136719,16.0869141 C53.7373047,16.0869141 54.4482422,16.6679688 54.4482422,17.6728516 C54.4482422,18.71875 53.6894531,19.2519531 52.1992188,19.2519531 L50.2304688,19.2519531 L50.2304688,16.0869141 Z M50.2304688,23.7773438 L50.2304688,20.3115234 L52.5478516,20.3115234 C54.1201172,20.3115234 54.9267578,20.8925781 54.9267578,22.0341797 C54.9267578,23.1757812 54.1474609,23.7773438 52.6640625,23.7773438 L50.2304688,23.7773438 Z M63.8613281,17.4951172 L62.6855469,17.4951172 L62.6855469,21.8564453 C62.6855469,23.1484375 61.9746094,23.9208984 60.6757812,23.9208984 C59.5,23.9208984 59.0078125,23.3056641 59.0078125,21.9794922 L59.0078125,17.4951172 L57.8320312,17.4951172 L57.8320312,22.2666016 C57.8320312,24.0097656 58.6933594,24.9941406 60.3476562,24.9941406 C61.4755859,24.9941406 62.2617188,24.5292969 62.6308594,23.7089844 L62.7402344,23.7089844 L62.7402344,24.8642578 L63.8613281,24.8642578 L63.8613281,17.4951172 Z M66.4179688,15.5878906 L66.4179688,17.4951172 L65.2285156,17.4951172 L65.2285156,18.4794922 L66.4179688,18.4794922 L66.4179688,22.9501953 C66.4179688,24.3583984 67.0263672,24.9189453 68.5439453,24.9189453 C68.7763672,24.9189453 69.0019531,24.8916016 69.234375,24.8505859 L69.234375,23.859375 C69.015625,23.8798828 68.8994141,23.8867188 68.6875,23.8867188 C67.921875,23.8867188 67.59375,23.5175781 67.59375,22.6494141 L67.59375,18.4794922 L69.234375,18.4794922 L69.234375,17.4951172 L67.59375,17.4951172 L67.59375,15.5878906 L66.4179688,15.5878906 Z M71.3535156,15.5878906 L71.3535156,17.4951172 L70.1640625,17.4951172 L70.1640625,18.4794922 L71.3535156,18.4794922 L71.3535156,22.9501953 C71.3535156,24.3583984 71.9619141,24.9189453 73.4794922,24.9189453 C73.7119141,24.9189453 73.9375,24.8916016 74.1699219,24.8505859 L74.1699219,23.859375 C73.9511719,23.8798828 73.8349609,23.8867188 73.6230469,23.8867188 C72.8574219,23.8867188 72.5292969,23.5175781 72.5292969,22.6494141 L72.5292969,18.4794922 L74.1699219,18.4794922 L74.1699219,17.4951172 L72.5292969,17.4951172 L72.5292969,15.5878906 L71.3535156,15.5878906 Z M78.7226562,23.9345703 C77.328125,23.9345703 76.5419922,22.9228516 76.5419922,21.1796875 C76.5419922,19.4296875 77.328125,18.4248047 78.7226562,18.4248047 C80.1171875,18.4248047 80.9033203,19.4296875 80.9033203,21.1796875 C80.9033203,22.9228516 80.1171875,23.9345703 78.7226562,23.9345703 L78.7226562,23.9345703 Z M78.7226562,24.9941406 C80.8212891,24.9941406 82.1201172,23.5449219 82.1201172,21.1796875 C82.1201172,18.8076172 80.8212891,17.3652344 78.7226562,17.3652344 C76.6240234,17.3652344 75.3251953,18.8076172 75.3251953,21.1796875 C75.3251953,23.5449219 76.6240234,24.9941406 78.7226562,24.9941406 L78.7226562,24.9941406 Z M83.8154297,24.8642578 L84.9912109,24.8642578 L84.9912109,20.5029297 C84.9912109,19.2109375 85.75,18.4248047 86.9257812,18.4248047 C88.1015625,18.4248047 88.6621094,19.0537109 88.6621094,20.3798828 L88.6621094,24.8642578 L89.8378906,24.8642578 L89.8378906,20.0927734 C89.8378906,18.3427734 88.9150391,17.3652344 87.2607422,17.3652344 C86.1328125,17.3652344 85.4150391,17.84375 85.0458984,18.6572266 L84.9365234,18.6572266 L84.9365234,17.4951172 L83.8154297,17.4951172 L83.8154297,24.8642578 Z" id="Button" fill="#0996F8"></path>
            </g>
            <rect id="Selected-Bar" fill="#2EA3FF" filter="url(#filter-2)" sketch:type="MSShapeGroup" x="0" y="36" width="140" height="4"></rect>
        </g>
    </g>
</svg>