<svg xmlns="http://www.w3.org/2000/svg" width="300" height="180" style="background:#f9f9fa" viewBox="0 0 300 180">
  <g fill="#0C0C0D" fill-rule="evenodd" transform="translate(44 82)">
    <text font-family="SFProDisplay-Bold, SF Pro Display" font-size="13" font-weight="bold">
      <tspan x="24.235" y="12">RECCOMENDED BY POCKET</tspan>
    </text>
    <path fill-opacity=".8" fill-rule="nonzero" d="M8,15 C3.581722,15 5.41083001e-16,11.418278 0,7 L0,3 C-1.3527075e-16,1.8954305 0.8954305,1 2,1 L14,1 C15.1045695,1 16,1.8954305 16,3 L16,7 C16,11.418278 12.418278,15 8,15 Z M11.985,4.968 C11.7094719,4.96881215 11.4467464,5.08441137 11.26,5.287 L7.978,8.57 L4.755,5.336 C4.57095481,5.10669254 4.29400821,4.971704 4,4.968 C3.5973832,4.96805751 3.23406703,5.20956201 3.07816073,5.58076751 C2.92225442,5.951973 3.00416823,6.38047409 3.286,6.668 L3.27,6.679 L6.563,9.985 L7.27,10.692 C7.66049985,11.0823819 8.29350015,11.0823819 8.684,10.692 L9.391,9.985 L12.7,6.679 C12.9898676,6.39237313 13.0767354,5.95848615 12.9195569,5.58235699 C12.7623784,5.20622783 12.3926209,4.96315739 11.985,4.968 Z"/>
    <path fill-opacity=".8" fill-rule="nonzero" d="M6,9 C5.80069572,8.99995745 5.60956995,8.92077295 5.46866182,8.77986357 L1.71096607,5.02326914 C1.42615362,4.72846748 1.43022684,4.25986546 1.72012089,3.97005638 C2.01001494,3.68024729 2.47875434,3.67617526 2.77364243,3.96090424 L6,7.18631621 L9.22635757,3.96090424 C9.52124566,3.67617526 9.98998506,3.68024729 10.2798791,3.97005638 C10.5697732,4.25986546 10.5738464,4.72846748 10.2890339,5.02326914 L6.53133818,8.77986357 C6.39043005,8.92077295 6.19930428,8.99995745 6,9 Z" transform="translate(201 1)"/>
  </g>
</svg>
