<svg xmlns="http://www.w3.org/2000/svg" width="300" height="432" style="background:#f9f9fa" viewBox="0 0 300 432">
  <g fill="none" fill-rule="evenodd">
    <rect width="132" height="32" x="84" y="74" fill="#0C0C0D" fill-opacity=".1" rx="2"/>
    <rect width="132" height="32" x="84" y="137" fill="#0C0C0D" fill-opacity=".1" rx="2"/>
    <path fill="#0C0C0D" d="M91.4506836,92.4799805 C91.5585938,94.0986328 92.9042969,95.1523438 94.8466797,95.1523438 C96.9541016,95.1523438 98.2744141,94.1049805 98.2744141,92.4291992 C98.2744141,91.1152344 97.5063477,90.3852539 95.6083984,89.9091797 L94.6499023,89.6552734 C93.4057617,89.331543 92.8979492,88.9189453 92.8979492,88.2270508 C92.8979492,87.3320312 93.7231445,86.7163086 94.9101562,86.7163086 C96.1035156,86.7163086 96.8969727,87.3193359 96.9985352,88.3032227 L98.1411133,88.3032227 C98.090332,86.7670898 96.7700195,85.6879883 94.9482422,85.6879883 C93.0439453,85.6879883 91.7109375,86.7543945 91.7109375,88.277832 C91.7109375,89.5219727 92.4599609,90.2646484 94.1484375,90.6962891 L95.3227539,91.0009766 C96.5541992,91.3183594 97.09375,91.7944336 97.09375,92.5688477 C97.09375,93.4702148 96.1923828,94.1240234 94.9545898,94.1240234 C93.6469727,94.1240234 92.7075195,93.4702148 92.5996094,92.4799805 L91.4506836,92.4799805 Z M102.083008,89.2426758 C101.04834,89.2426758 100.324707,90.0361328 100.254883,91.1342773 L103.841309,91.1342773 C103.815918,90.0297852 103.124023,89.2426758 102.083008,89.2426758 Z M103.815918,93.1083984 L104.901367,93.1083984 C104.710938,94.2636719 103.59375,95.1142578 102.152832,95.1142578 C100.26123,95.1142578 99.1123047,93.800293 99.1123047,91.7246094 C99.1123047,89.6743164 100.280273,88.2841797 102.102051,88.2841797 C103.885742,88.2841797 104.983887,89.5791016 104.983887,91.5786133 L104.983887,91.9975586 L100.248535,91.9975586 L100.248535,92.0610352 C100.248535,93.3242188 100.991211,94.1557617 102.178223,94.1557617 C103.016113,94.1557617 103.631836,93.7304688 103.815918,93.1083984 Z M108.271973,94.1748047 C109.312988,94.1748047 110.112793,93.4448242 110.112793,92.4926758 L110.112793,91.953125 L108.348145,92.0610352 C107.459473,92.1181641 106.95166,92.5117188 106.95166,93.1337891 C106.95166,93.762207 107.478516,94.1748047 108.271973,94.1748047 Z M108.024414,95.1142578 C106.710449,95.1142578 105.828125,94.3208008 105.828125,93.1337891 C105.828125,92.0039062 106.697754,91.2929688 108.221191,91.2041016 L110.112793,91.0961914 L110.112793,90.5439453 C110.112793,89.737793 109.57959,89.2553711 108.665527,89.2553711 C107.814941,89.2553711 107.281738,89.6552734 107.14209,90.3027344 L106.075684,90.3027344 C106.151855,89.1601562 107.129395,88.2841797 108.690918,88.2841797 C110.239746,88.2841797 111.217285,89.1220703 111.217285,90.4360352 L111.217285,95 L110.169922,95 L110.169922,93.8637695 L110.144531,93.8637695 C109.750977,94.6191406 108.913086,95.1142578 108.024414,95.1142578 Z M112.620117,95 L113.724609,95 L113.724609,90.8867188 C113.724609,89.9536133 114.283203,89.3378906 115.140137,89.3378906 C115.406738,89.3378906 115.641602,89.3696289 115.730469,89.4013672 L115.730469,88.3286133 C115.641602,88.315918 115.476562,88.2841797 115.286133,88.2841797 C114.511719,88.2841797 113.902344,88.7475586 113.686523,89.4775391 L113.661133,89.4775391 L113.661133,88.3984375 L112.620117,88.3984375 L112.620117,95 Z M121.79248,90.5629883 C121.652832,89.3759766 120.668945,88.2841797 119.018555,88.2841797 C117.196777,88.2841797 115.984375,89.6171875 115.984375,91.6992188 C115.984375,93.8256836 117.203125,95.1142578 119.03125,95.1142578 C120.529297,95.1142578 121.633789,94.1875 121.805176,92.8735352 L120.719727,92.8735352 C120.529297,93.6669922 119.938965,94.1430664 119.037598,94.1430664 C117.89502,94.1430664 117.10791,93.2353516 117.10791,91.6992188 C117.10791,90.2011719 117.882324,89.2553711 119.024902,89.2553711 C119.996094,89.2553711 120.554688,89.8457031 120.713379,90.5629883 L121.79248,90.5629883 Z M122.87793,95 L123.982422,95 L123.982422,91.1533203 C123.982422,90.0107422 124.661621,89.2617188 125.759766,89.2617188 C126.794434,89.2617188 127.321289,89.8901367 127.321289,90.9375 L127.321289,95 L128.425781,95 L128.425781,90.734375 C128.425781,89.2617188 127.549805,88.2841797 126.102539,88.2841797 C125.099609,88.2841797 124.375977,88.7158203 124.007812,89.4521484 L123.982422,89.4521484 L123.982422,85.840332 L122.87793,85.840332 L122.87793,95 Z M138.34082,93.9716797 L133.808594,93.9716797 L133.808594,90.8232422 L138.105957,90.8232422 L138.105957,89.8076172 L133.808594,89.8076172 L133.808594,86.8686523 L138.34082,86.8686523 L138.34082,85.840332 L132.666016,85.840332 L132.666016,95 L138.34082,95 L138.34082,93.9716797 Z M139.673828,95 L140.77832,95 L140.77832,91.1152344 C140.77832,89.9980469 141.45752,89.2617188 142.498535,89.2617188 C143.51416,89.2617188 144.015625,89.8457031 144.015625,90.9121094 L144.015625,95 L145.120117,95 L145.120117,90.715332 C145.120117,89.2172852 144.282227,88.2841797 142.834961,88.2841797 C141.812988,88.2841797 141.108398,88.7412109 140.740234,89.4521484 L140.714844,89.4521484 L140.714844,88.3984375 L139.673828,88.3984375 L139.673828,95 Z M149.208008,94.0795898 C150.356934,94.0795898 151.125,93.1274414 151.125,91.6738281 C151.125,90.2202148 150.356934,89.2553711 149.208008,89.2553711 C148.071777,89.2553711 147.329102,90.1948242 147.329102,91.6738281 C147.329102,93.152832 148.071777,94.0795898 149.208008,94.0795898 Z M149.246094,97.4882812 C147.79248,97.4882812 146.643555,96.6694336 146.459473,95.5458984 L147.595703,95.5458984 C147.811523,96.1489258 148.465332,96.5488281 149.290527,96.5488281 C150.433105,96.5488281 151.125,95.8886719 151.125,94.9047852 L151.125,93.8637695 L151.099609,93.8637695 C150.693359,94.5810547 149.912598,95.0507812 148.98584,95.0507812 C147.303711,95.0507812 146.199219,93.7241211 146.199219,91.6738281 C146.199219,89.6044922 147.303711,88.2841797 149.01123,88.2841797 C149.944336,88.2841797 150.71875,88.7412109 151.156738,89.5092773 L151.175781,89.5092773 L151.175781,88.3984375 L152.229492,88.3984375 L152.229492,94.8666992 C152.229492,96.440918 151.067871,97.4882812 149.246094,97.4882812 Z M153.721191,95 L154.825684,95 L154.825684,88.3984375 L153.721191,88.3984375 L153.721191,95 Z M154.273438,87.2875977 C154.654297,87.2875977 154.965332,86.9765625 154.965332,86.6020508 C154.965332,86.2211914 154.654297,85.9165039 154.273438,85.9165039 C153.898926,85.9165039 153.587891,86.2211914 153.587891,86.6020508 C153.587891,86.9765625 153.898926,87.2875977 154.273438,87.2875977 Z M156.317383,95 L157.421875,95 L157.421875,91.1152344 C157.421875,89.9980469 158.101074,89.2617188 159.14209,89.2617188 C160.157715,89.2617188 160.65918,89.8457031 160.65918,90.9121094 L160.65918,95 L161.763672,95 L161.763672,90.715332 C161.763672,89.2172852 160.925781,88.2841797 159.478516,88.2841797 C158.456543,88.2841797 157.751953,88.7412109 157.383789,89.4521484 L157.358398,89.4521484 L157.358398,88.3984375 L156.317383,88.3984375 L156.317383,95 Z M165.813477,89.2426758 C164.778809,89.2426758 164.055176,90.0361328 163.985352,91.1342773 L167.571777,91.1342773 C167.546387,90.0297852 166.854492,89.2426758 165.813477,89.2426758 Z M167.546387,93.1083984 L168.631836,93.1083984 C168.441406,94.2636719 167.324219,95.1142578 165.883301,95.1142578 C163.991699,95.1142578 162.842773,93.800293 162.842773,91.7246094 C162.842773,89.6743164 164.010742,88.2841797 165.83252,88.2841797 C167.616211,88.2841797 168.714355,89.5791016 168.714355,91.5786133 L168.714355,91.9975586 L163.979004,91.9975586 L163.979004,92.0610352 C163.979004,93.3242188 164.72168,94.1557617 165.908691,94.1557617 C166.746582,94.1557617 167.362305,93.7304688 167.546387,93.1083984 Z"/>
    <path fill="#0C0C0D" fill-opacity=".8" fill-rule="nonzero" d="M8,12 C7.73426095,11.9999433 7.4794266,11.8943639 7.29154909,11.7064848 L2.2812881,6.69769219 C1.90153816,6.3046233 1.90696912,5.67982062 2.29349452,5.2934085 C2.68001992,4.90699639 3.30500578,4.90156702 3.69818991,5.28120566 L8,9.58175495 L12.3018101,5.28120566 C12.6949942,4.90156702 13.3199801,4.90699639 13.7065055,5.2934085 C14.0930309,5.67982062 14.0984618,6.3046233 13.7187119,6.69769219 L8.70845091,11.7064848 C8.5205734,11.8943639 8.26573905,11.9999433 8,12 Z" transform="translate(192 82)"/>
    <path fill="#0060DF" fill-rule="nonzero" d="M86,136 C84.3431458,136 83,137.343146 83,139 L83,167 C83,168.656854 84.3431458,170 86,170 L214,170 C215.656854,170 217,168.656854 217,167 L217,139 C217,137.343146 215.656854,136 214,136 L86,136 Z M86,135 L214,135 C216.209139,135 218,136.790861 218,139 L218,167 C218,169.209139 216.209139,171 214,171 L86,171 C83.790861,171 82,169.209139 82,167 L82,139 C82,136.790861 83.790861,135 86,135 Z"/>
    <rect width="132" height="32" x="84" y="263" fill="#0C0C0D" fill-opacity=".3" rx="2"/>
    <rect width="132" height="32" x="84" y="326" fill="#0C0C0D" fill-opacity=".1" opacity=".4" rx="2"/>
    <rect width="132" height="32" x="84" y="200" fill="#0C0C0D" fill-opacity=".2" rx="2"/>
    <path fill="#0C0C0D" d="M91.4506836,155.47998 C91.5585938,157.098633 92.9042969,158.152344 94.8466797,158.152344 C96.9541016,158.152344 98.2744141,157.10498 98.2744141,155.429199 C98.2744141,154.115234 97.5063477,153.385254 95.6083984,152.90918 L94.6499023,152.655273 C93.4057617,152.331543 92.8979492,151.918945 92.8979492,151.227051 C92.8979492,150.332031 93.7231445,149.716309 94.9101562,149.716309 C96.1035156,149.716309 96.8969727,150.319336 96.9985352,151.303223 L98.1411133,151.303223 C98.090332,149.76709 96.7700195,148.687988 94.9482422,148.687988 C93.0439453,148.687988 91.7109375,149.754395 91.7109375,151.277832 C91.7109375,152.521973 92.4599609,153.264648 94.1484375,153.696289 L95.3227539,154.000977 C96.5541992,154.318359 97.09375,154.794434 97.09375,155.568848 C97.09375,156.470215 96.1923828,157.124023 94.9545898,157.124023 C93.6469727,157.124023 92.7075195,156.470215 92.5996094,155.47998 L91.4506836,155.47998 Z M102.083008,152.242676 C101.04834,152.242676 100.324707,153.036133 100.254883,154.134277 L103.841309,154.134277 C103.815918,153.029785 103.124023,152.242676 102.083008,152.242676 Z M103.815918,156.108398 L104.901367,156.108398 C104.710938,157.263672 103.59375,158.114258 102.152832,158.114258 C100.26123,158.114258 99.1123047,156.800293 99.1123047,154.724609 C99.1123047,152.674316 100.280273,151.28418 102.102051,151.28418 C103.885742,151.28418 104.983887,152.579102 104.983887,154.578613 L104.983887,154.997559 L100.248535,154.997559 L100.248535,155.061035 C100.248535,156.324219 100.991211,157.155762 102.178223,157.155762 C103.016113,157.155762 103.631836,156.730469 103.815918,156.108398 Z M108.271973,157.174805 C109.312988,157.174805 110.112793,156.444824 110.112793,155.492676 L110.112793,154.953125 L108.348145,155.061035 C107.459473,155.118164 106.95166,155.511719 106.95166,156.133789 C106.95166,156.762207 107.478516,157.174805 108.271973,157.174805 Z M108.024414,158.114258 C106.710449,158.114258 105.828125,157.320801 105.828125,156.133789 C105.828125,155.003906 106.697754,154.292969 108.221191,154.204102 L110.112793,154.096191 L110.112793,153.543945 C110.112793,152.737793 109.57959,152.255371 108.665527,152.255371 C107.814941,152.255371 107.281738,152.655273 107.14209,153.302734 L106.075684,153.302734 C106.151855,152.160156 107.129395,151.28418 108.690918,151.28418 C110.239746,151.28418 111.217285,152.12207 111.217285,153.436035 L111.217285,158 L110.169922,158 L110.169922,156.86377 L110.144531,156.86377 C109.750977,157.619141 108.913086,158.114258 108.024414,158.114258 Z M112.620117,158 L113.724609,158 L113.724609,153.886719 C113.724609,152.953613 114.283203,152.337891 115.140137,152.337891 C115.406738,152.337891 115.641602,152.369629 115.730469,152.401367 L115.730469,151.328613 C115.641602,151.315918 115.476562,151.28418 115.286133,151.28418 C114.511719,151.28418 113.902344,151.747559 113.686523,152.477539 L113.661133,152.477539 L113.661133,151.398438 L112.620117,151.398438 L112.620117,158 Z M121.79248,153.562988 C121.652832,152.375977 120.668945,151.28418 119.018555,151.28418 C117.196777,151.28418 115.984375,152.617188 115.984375,154.699219 C115.984375,156.825684 117.203125,158.114258 119.03125,158.114258 C120.529297,158.114258 121.633789,157.1875 121.805176,155.873535 L120.719727,155.873535 C120.529297,156.666992 119.938965,157.143066 119.037598,157.143066 C117.89502,157.143066 117.10791,156.235352 117.10791,154.699219 C117.10791,153.201172 117.882324,152.255371 119.024902,152.255371 C119.996094,152.255371 120.554688,152.845703 120.713379,153.562988 L121.79248,153.562988 Z M122.87793,158 L123.982422,158 L123.982422,154.15332 C123.982422,153.010742 124.661621,152.261719 125.759766,152.261719 C126.794434,152.261719 127.321289,152.890137 127.321289,153.9375 L127.321289,158 L128.425781,158 L128.425781,153.734375 C128.425781,152.261719 127.549805,151.28418 126.102539,151.28418 C125.099609,151.28418 124.375977,151.71582 124.007812,152.452148 L123.982422,152.452148 L123.982422,148.840332 L122.87793,148.840332 L122.87793,158 Z M138.34082,156.97168 L133.808594,156.97168 L133.808594,153.823242 L138.105957,153.823242 L138.105957,152.807617 L133.808594,152.807617 L133.808594,149.868652 L138.34082,149.868652 L138.34082,148.840332 L132.666016,148.840332 L132.666016,158 L138.34082,158 L138.34082,156.97168 Z M139.673828,158 L140.77832,158 L140.77832,154.115234 C140.77832,152.998047 141.45752,152.261719 142.498535,152.261719 C143.51416,152.261719 144.015625,152.845703 144.015625,153.912109 L144.015625,158 L145.120117,158 L145.120117,153.715332 C145.120117,152.217285 144.282227,151.28418 142.834961,151.28418 C141.812988,151.28418 141.108398,151.741211 140.740234,152.452148 L140.714844,152.452148 L140.714844,151.398438 L139.673828,151.398438 L139.673828,158 Z M149.208008,157.07959 C150.356934,157.07959 151.125,156.127441 151.125,154.673828 C151.125,153.220215 150.356934,152.255371 149.208008,152.255371 C148.071777,152.255371 147.329102,153.194824 147.329102,154.673828 C147.329102,156.152832 148.071777,157.07959 149.208008,157.07959 Z M149.246094,160.488281 C147.79248,160.488281 146.643555,159.669434 146.459473,158.545898 L147.595703,158.545898 C147.811523,159.148926 148.465332,159.548828 149.290527,159.548828 C150.433105,159.548828 151.125,158.888672 151.125,157.904785 L151.125,156.86377 L151.099609,156.86377 C150.693359,157.581055 149.912598,158.050781 148.98584,158.050781 C147.303711,158.050781 146.199219,156.724121 146.199219,154.673828 C146.199219,152.604492 147.303711,151.28418 149.01123,151.28418 C149.944336,151.28418 150.71875,151.741211 151.156738,152.509277 L151.175781,152.509277 L151.175781,151.398438 L152.229492,151.398438 L152.229492,157.866699 C152.229492,159.440918 151.067871,160.488281 149.246094,160.488281 Z M153.721191,158 L154.825684,158 L154.825684,151.398438 L153.721191,151.398438 L153.721191,158 Z M154.273438,150.287598 C154.654297,150.287598 154.965332,149.976562 154.965332,149.602051 C154.965332,149.221191 154.654297,148.916504 154.273438,148.916504 C153.898926,148.916504 153.587891,149.221191 153.587891,149.602051 C153.587891,149.976562 153.898926,150.287598 154.273438,150.287598 Z M156.317383,158 L157.421875,158 L157.421875,154.115234 C157.421875,152.998047 158.101074,152.261719 159.14209,152.261719 C160.157715,152.261719 160.65918,152.845703 160.65918,153.912109 L160.65918,158 L161.763672,158 L161.763672,153.715332 C161.763672,152.217285 160.925781,151.28418 159.478516,151.28418 C158.456543,151.28418 157.751953,151.741211 157.383789,152.452148 L157.358398,152.452148 L157.358398,151.398438 L156.317383,151.398438 L156.317383,158 Z M165.813477,152.242676 C164.778809,152.242676 164.055176,153.036133 163.985352,154.134277 L167.571777,154.134277 C167.546387,153.029785 166.854492,152.242676 165.813477,152.242676 Z M167.546387,156.108398 L168.631836,156.108398 C168.441406,157.263672 167.324219,158.114258 165.883301,158.114258 C163.991699,158.114258 162.842773,156.800293 162.842773,154.724609 C162.842773,152.674316 164.010742,151.28418 165.83252,151.28418 C167.616211,151.28418 168.714355,152.579102 168.714355,154.578613 L168.714355,154.997559 L163.979004,154.997559 L163.979004,155.061035 C163.979004,156.324219 164.72168,157.155762 165.908691,157.155762 C166.746582,157.155762 167.362305,156.730469 167.546387,156.108398 Z"/>
    <path fill="#0C0C0D" fill-opacity=".8" fill-rule="nonzero" d="M8,12 C7.73426095,11.9999433 7.4794266,11.8943639 7.29154909,11.7064848 L2.2812881,6.69769219 C1.90153816,6.3046233 1.90696912,5.67982062 2.29349452,5.2934085 C2.68001992,4.90699639 3.30500578,4.90156702 3.69818991,5.28120566 L8,9.58175495 L12.3018101,5.28120566 C12.6949942,4.90156702 13.3199801,4.90699639 13.7065055,5.2934085 C14.0930309,5.67982062 14.0984618,6.3046233 13.7187119,6.69769219 L8.70845091,11.7064848 C8.5205734,11.8943639 8.26573905,11.9999433 8,12 Z" transform="translate(192 145)"/>
    <path fill="#0C0C0D" d="M91.4506836,218.47998 C91.5585938,220.098633 92.9042969,221.152344 94.8466797,221.152344 C96.9541016,221.152344 98.2744141,220.10498 98.2744141,218.429199 C98.2744141,217.115234 97.5063477,216.385254 95.6083984,215.90918 L94.6499023,215.655273 C93.4057617,215.331543 92.8979492,214.918945 92.8979492,214.227051 C92.8979492,213.332031 93.7231445,212.716309 94.9101562,212.716309 C96.1035156,212.716309 96.8969727,213.319336 96.9985352,214.303223 L98.1411133,214.303223 C98.090332,212.76709 96.7700195,211.687988 94.9482422,211.687988 C93.0439453,211.687988 91.7109375,212.754395 91.7109375,214.277832 C91.7109375,215.521973 92.4599609,216.264648 94.1484375,216.696289 L95.3227539,217.000977 C96.5541992,217.318359 97.09375,217.794434 97.09375,218.568848 C97.09375,219.470215 96.1923828,220.124023 94.9545898,220.124023 C93.6469727,220.124023 92.7075195,219.470215 92.5996094,218.47998 L91.4506836,218.47998 Z M102.083008,215.242676 C101.04834,215.242676 100.324707,216.036133 100.254883,217.134277 L103.841309,217.134277 C103.815918,216.029785 103.124023,215.242676 102.083008,215.242676 Z M103.815918,219.108398 L104.901367,219.108398 C104.710938,220.263672 103.59375,221.114258 102.152832,221.114258 C100.26123,221.114258 99.1123047,219.800293 99.1123047,217.724609 C99.1123047,215.674316 100.280273,214.28418 102.102051,214.28418 C103.885742,214.28418 104.983887,215.579102 104.983887,217.578613 L104.983887,217.997559 L100.248535,217.997559 L100.248535,218.061035 C100.248535,219.324219 100.991211,220.155762 102.178223,220.155762 C103.016113,220.155762 103.631836,219.730469 103.815918,219.108398 Z M108.271973,220.174805 C109.312988,220.174805 110.112793,219.444824 110.112793,218.492676 L110.112793,217.953125 L108.348145,218.061035 C107.459473,218.118164 106.95166,218.511719 106.95166,219.133789 C106.95166,219.762207 107.478516,220.174805 108.271973,220.174805 Z M108.024414,221.114258 C106.710449,221.114258 105.828125,220.320801 105.828125,219.133789 C105.828125,218.003906 106.697754,217.292969 108.221191,217.204102 L110.112793,217.096191 L110.112793,216.543945 C110.112793,215.737793 109.57959,215.255371 108.665527,215.255371 C107.814941,215.255371 107.281738,215.655273 107.14209,216.302734 L106.075684,216.302734 C106.151855,215.160156 107.129395,214.28418 108.690918,214.28418 C110.239746,214.28418 111.217285,215.12207 111.217285,216.436035 L111.217285,221 L110.169922,221 L110.169922,219.86377 L110.144531,219.86377 C109.750977,220.619141 108.913086,221.114258 108.024414,221.114258 Z M112.620117,221 L113.724609,221 L113.724609,216.886719 C113.724609,215.953613 114.283203,215.337891 115.140137,215.337891 C115.406738,215.337891 115.641602,215.369629 115.730469,215.401367 L115.730469,214.328613 C115.641602,214.315918 115.476562,214.28418 115.286133,214.28418 C114.511719,214.28418 113.902344,214.747559 113.686523,215.477539 L113.661133,215.477539 L113.661133,214.398438 L112.620117,214.398438 L112.620117,221 Z M121.79248,216.562988 C121.652832,215.375977 120.668945,214.28418 119.018555,214.28418 C117.196777,214.28418 115.984375,215.617188 115.984375,217.699219 C115.984375,219.825684 117.203125,221.114258 119.03125,221.114258 C120.529297,221.114258 121.633789,220.1875 121.805176,218.873535 L120.719727,218.873535 C120.529297,219.666992 119.938965,220.143066 119.037598,220.143066 C117.89502,220.143066 117.10791,219.235352 117.10791,217.699219 C117.10791,216.201172 117.882324,215.255371 119.024902,215.255371 C119.996094,215.255371 120.554688,215.845703 120.713379,216.562988 L121.79248,216.562988 Z M122.87793,221 L123.982422,221 L123.982422,217.15332 C123.982422,216.010742 124.661621,215.261719 125.759766,215.261719 C126.794434,215.261719 127.321289,215.890137 127.321289,216.9375 L127.321289,221 L128.425781,221 L128.425781,216.734375 C128.425781,215.261719 127.549805,214.28418 126.102539,214.28418 C125.099609,214.28418 124.375977,214.71582 124.007812,215.452148 L123.982422,215.452148 L123.982422,211.840332 L122.87793,211.840332 L122.87793,221 Z M138.34082,219.97168 L133.808594,219.97168 L133.808594,216.823242 L138.105957,216.823242 L138.105957,215.807617 L133.808594,215.807617 L133.808594,212.868652 L138.34082,212.868652 L138.34082,211.840332 L132.666016,211.840332 L132.666016,221 L138.34082,221 L138.34082,219.97168 Z M139.673828,221 L140.77832,221 L140.77832,217.115234 C140.77832,215.998047 141.45752,215.261719 142.498535,215.261719 C143.51416,215.261719 144.015625,215.845703 144.015625,216.912109 L144.015625,221 L145.120117,221 L145.120117,216.715332 C145.120117,215.217285 144.282227,214.28418 142.834961,214.28418 C141.812988,214.28418 141.108398,214.741211 140.740234,215.452148 L140.714844,215.452148 L140.714844,214.398438 L139.673828,214.398438 L139.673828,221 Z M149.208008,220.07959 C150.356934,220.07959 151.125,219.127441 151.125,217.673828 C151.125,216.220215 150.356934,215.255371 149.208008,215.255371 C148.071777,215.255371 147.329102,216.194824 147.329102,217.673828 C147.329102,219.152832 148.071777,220.07959 149.208008,220.07959 Z M149.246094,223.488281 C147.79248,223.488281 146.643555,222.669434 146.459473,221.545898 L147.595703,221.545898 C147.811523,222.148926 148.465332,222.548828 149.290527,222.548828 C150.433105,222.548828 151.125,221.888672 151.125,220.904785 L151.125,219.86377 L151.099609,219.86377 C150.693359,220.581055 149.912598,221.050781 148.98584,221.050781 C147.303711,221.050781 146.199219,219.724121 146.199219,217.673828 C146.199219,215.604492 147.303711,214.28418 149.01123,214.28418 C149.944336,214.28418 150.71875,214.741211 151.156738,215.509277 L151.175781,215.509277 L151.175781,214.398438 L152.229492,214.398438 L152.229492,220.866699 C152.229492,222.440918 151.067871,223.488281 149.246094,223.488281 Z M153.721191,221 L154.825684,221 L154.825684,214.398438 L153.721191,214.398438 L153.721191,221 Z M154.273438,213.287598 C154.654297,213.287598 154.965332,212.976562 154.965332,212.602051 C154.965332,212.221191 154.654297,211.916504 154.273438,211.916504 C153.898926,211.916504 153.587891,212.221191 153.587891,212.602051 C153.587891,212.976562 153.898926,213.287598 154.273438,213.287598 Z M156.317383,221 L157.421875,221 L157.421875,217.115234 C157.421875,215.998047 158.101074,215.261719 159.14209,215.261719 C160.157715,215.261719 160.65918,215.845703 160.65918,216.912109 L160.65918,221 L161.763672,221 L161.763672,216.715332 C161.763672,215.217285 160.925781,214.28418 159.478516,214.28418 C158.456543,214.28418 157.751953,214.741211 157.383789,215.452148 L157.358398,215.452148 L157.358398,214.398438 L156.317383,214.398438 L156.317383,221 Z M165.813477,215.242676 C164.778809,215.242676 164.055176,216.036133 163.985352,217.134277 L167.571777,217.134277 C167.546387,216.029785 166.854492,215.242676 165.813477,215.242676 Z M167.546387,219.108398 L168.631836,219.108398 C168.441406,220.263672 167.324219,221.114258 165.883301,221.114258 C163.991699,221.114258 162.842773,219.800293 162.842773,217.724609 C162.842773,215.674316 164.010742,214.28418 165.83252,214.28418 C167.616211,214.28418 168.714355,215.579102 168.714355,217.578613 L168.714355,217.997559 L163.979004,217.997559 L163.979004,218.061035 C163.979004,219.324219 164.72168,220.155762 165.908691,220.155762 C166.746582,220.155762 167.362305,219.730469 167.546387,219.108398 Z"/>
    <path fill="#0C0C0D" fill-opacity=".8" fill-rule="nonzero" d="M8,12 C7.73426095,11.9999433 7.4794266,11.8943639 7.29154909,11.7064848 L2.2812881,6.69769219 C1.90153816,6.3046233 1.90696912,5.67982062 2.29349452,5.2934085 C2.68001992,4.90699639 3.30500578,4.90156702 3.69818991,5.28120566 L8,9.58175495 L12.3018101,5.28120566 C12.6949942,4.90156702 13.3199801,4.90699639 13.7065055,5.2934085 C14.0930309,5.67982062 14.0984618,6.3046233 13.7187119,6.69769219 L8.70845091,11.7064848 C8.5205734,11.8943639 8.26573905,11.9999433 8,12 Z" transform="translate(192 208)"/>
    <path fill="#0C0C0D" d="M91.4506836,281.47998 C91.5585938,283.098633 92.9042969,284.152344 94.8466797,284.152344 C96.9541016,284.152344 98.2744141,283.10498 98.2744141,281.429199 C98.2744141,280.115234 97.5063477,279.385254 95.6083984,278.90918 L94.6499023,278.655273 C93.4057617,278.331543 92.8979492,277.918945 92.8979492,277.227051 C92.8979492,276.332031 93.7231445,275.716309 94.9101562,275.716309 C96.1035156,275.716309 96.8969727,276.319336 96.9985352,277.303223 L98.1411133,277.303223 C98.090332,275.76709 96.7700195,274.687988 94.9482422,274.687988 C93.0439453,274.687988 91.7109375,275.754395 91.7109375,277.277832 C91.7109375,278.521973 92.4599609,279.264648 94.1484375,279.696289 L95.3227539,280.000977 C96.5541992,280.318359 97.09375,280.794434 97.09375,281.568848 C97.09375,282.470215 96.1923828,283.124023 94.9545898,283.124023 C93.6469727,283.124023 92.7075195,282.470215 92.5996094,281.47998 L91.4506836,281.47998 Z M102.083008,278.242676 C101.04834,278.242676 100.324707,279.036133 100.254883,280.134277 L103.841309,280.134277 C103.815918,279.029785 103.124023,278.242676 102.083008,278.242676 Z M103.815918,282.108398 L104.901367,282.108398 C104.710938,283.263672 103.59375,284.114258 102.152832,284.114258 C100.26123,284.114258 99.1123047,282.800293 99.1123047,280.724609 C99.1123047,278.674316 100.280273,277.28418 102.102051,277.28418 C103.885742,277.28418 104.983887,278.579102 104.983887,280.578613 L104.983887,280.997559 L100.248535,280.997559 L100.248535,281.061035 C100.248535,282.324219 100.991211,283.155762 102.178223,283.155762 C103.016113,283.155762 103.631836,282.730469 103.815918,282.108398 Z M108.271973,283.174805 C109.312988,283.174805 110.112793,282.444824 110.112793,281.492676 L110.112793,280.953125 L108.348145,281.061035 C107.459473,281.118164 106.95166,281.511719 106.95166,282.133789 C106.95166,282.762207 107.478516,283.174805 108.271973,283.174805 Z M108.024414,284.114258 C106.710449,284.114258 105.828125,283.320801 105.828125,282.133789 C105.828125,281.003906 106.697754,280.292969 108.221191,280.204102 L110.112793,280.096191 L110.112793,279.543945 C110.112793,278.737793 109.57959,278.255371 108.665527,278.255371 C107.814941,278.255371 107.281738,278.655273 107.14209,279.302734 L106.075684,279.302734 C106.151855,278.160156 107.129395,277.28418 108.690918,277.28418 C110.239746,277.28418 111.217285,278.12207 111.217285,279.436035 L111.217285,284 L110.169922,284 L110.169922,282.86377 L110.144531,282.86377 C109.750977,283.619141 108.913086,284.114258 108.024414,284.114258 Z M112.620117,284 L113.724609,284 L113.724609,279.886719 C113.724609,278.953613 114.283203,278.337891 115.140137,278.337891 C115.406738,278.337891 115.641602,278.369629 115.730469,278.401367 L115.730469,277.328613 C115.641602,277.315918 115.476562,277.28418 115.286133,277.28418 C114.511719,277.28418 113.902344,277.747559 113.686523,278.477539 L113.661133,278.477539 L113.661133,277.398438 L112.620117,277.398438 L112.620117,284 Z M121.79248,279.562988 C121.652832,278.375977 120.668945,277.28418 119.018555,277.28418 C117.196777,277.28418 115.984375,278.617188 115.984375,280.699219 C115.984375,282.825684 117.203125,284.114258 119.03125,284.114258 C120.529297,284.114258 121.633789,283.1875 121.805176,281.873535 L120.719727,281.873535 C120.529297,282.666992 119.938965,283.143066 119.037598,283.143066 C117.89502,283.143066 117.10791,282.235352 117.10791,280.699219 C117.10791,279.201172 117.882324,278.255371 119.024902,278.255371 C119.996094,278.255371 120.554688,278.845703 120.713379,279.562988 L121.79248,279.562988 Z M122.87793,284 L123.982422,284 L123.982422,280.15332 C123.982422,279.010742 124.661621,278.261719 125.759766,278.261719 C126.794434,278.261719 127.321289,278.890137 127.321289,279.9375 L127.321289,284 L128.425781,284 L128.425781,279.734375 C128.425781,278.261719 127.549805,277.28418 126.102539,277.28418 C125.099609,277.28418 124.375977,277.71582 124.007812,278.452148 L123.982422,278.452148 L123.982422,274.840332 L122.87793,274.840332 L122.87793,284 Z M138.34082,282.97168 L133.808594,282.97168 L133.808594,279.823242 L138.105957,279.823242 L138.105957,278.807617 L133.808594,278.807617 L133.808594,275.868652 L138.34082,275.868652 L138.34082,274.840332 L132.666016,274.840332 L132.666016,284 L138.34082,284 L138.34082,282.97168 Z M139.673828,284 L140.77832,284 L140.77832,280.115234 C140.77832,278.998047 141.45752,278.261719 142.498535,278.261719 C143.51416,278.261719 144.015625,278.845703 144.015625,279.912109 L144.015625,284 L145.120117,284 L145.120117,279.715332 C145.120117,278.217285 144.282227,277.28418 142.834961,277.28418 C141.812988,277.28418 141.108398,277.741211 140.740234,278.452148 L140.714844,278.452148 L140.714844,277.398438 L139.673828,277.398438 L139.673828,284 Z M149.208008,283.07959 C150.356934,283.07959 151.125,282.127441 151.125,280.673828 C151.125,279.220215 150.356934,278.255371 149.208008,278.255371 C148.071777,278.255371 147.329102,279.194824 147.329102,280.673828 C147.329102,282.152832 148.071777,283.07959 149.208008,283.07959 Z M149.246094,286.488281 C147.79248,286.488281 146.643555,285.669434 146.459473,284.545898 L147.595703,284.545898 C147.811523,285.148926 148.465332,285.548828 149.290527,285.548828 C150.433105,285.548828 151.125,284.888672 151.125,283.904785 L151.125,282.86377 L151.099609,282.86377 C150.693359,283.581055 149.912598,284.050781 148.98584,284.050781 C147.303711,284.050781 146.199219,282.724121 146.199219,280.673828 C146.199219,278.604492 147.303711,277.28418 149.01123,277.28418 C149.944336,277.28418 150.71875,277.741211 151.156738,278.509277 L151.175781,278.509277 L151.175781,277.398438 L152.229492,277.398438 L152.229492,283.866699 C152.229492,285.440918 151.067871,286.488281 149.246094,286.488281 Z M153.721191,284 L154.825684,284 L154.825684,277.398438 L153.721191,277.398438 L153.721191,284 Z M154.273438,276.287598 C154.654297,276.287598 154.965332,275.976562 154.965332,275.602051 C154.965332,275.221191 154.654297,274.916504 154.273438,274.916504 C153.898926,274.916504 153.587891,275.221191 153.587891,275.602051 C153.587891,275.976562 153.898926,276.287598 154.273438,276.287598 Z M156.317383,284 L157.421875,284 L157.421875,280.115234 C157.421875,278.998047 158.101074,278.261719 159.14209,278.261719 C160.157715,278.261719 160.65918,278.845703 160.65918,279.912109 L160.65918,284 L161.763672,284 L161.763672,279.715332 C161.763672,278.217285 160.925781,277.28418 159.478516,277.28418 C158.456543,277.28418 157.751953,277.741211 157.383789,278.452148 L157.358398,278.452148 L157.358398,277.398438 L156.317383,277.398438 L156.317383,284 Z M165.813477,278.242676 C164.778809,278.242676 164.055176,279.036133 163.985352,280.134277 L167.571777,280.134277 C167.546387,279.029785 166.854492,278.242676 165.813477,278.242676 Z M167.546387,282.108398 L168.631836,282.108398 C168.441406,283.263672 167.324219,284.114258 165.883301,284.114258 C163.991699,284.114258 162.842773,282.800293 162.842773,280.724609 C162.842773,278.674316 164.010742,277.28418 165.83252,277.28418 C167.616211,277.28418 168.714355,278.579102 168.714355,280.578613 L168.714355,280.997559 L163.979004,280.997559 L163.979004,281.061035 C163.979004,282.324219 164.72168,283.155762 165.908691,283.155762 C166.746582,283.155762 167.362305,282.730469 167.546387,282.108398 Z"/>
    <path fill="#0C0C0D" fill-opacity=".8" fill-rule="nonzero" d="M8,12 C7.73426095,11.9999433 7.4794266,11.8943639 7.29154909,11.7064848 L2.2812881,6.69769219 C1.90153816,6.3046233 1.90696912,5.67982062 2.29349452,5.2934085 C2.68001992,4.90699639 3.30500578,4.90156702 3.69818991,5.28120566 L8,9.58175495 L12.3018101,5.28120566 C12.6949942,4.90156702 13.3199801,4.90699639 13.7065055,5.2934085 C14.0930309,5.67982062 14.0984618,6.3046233 13.7187119,6.69769219 L8.70845091,11.7064848 C8.5205734,11.8943639 8.26573905,11.9999433 8,12 Z" transform="translate(192 271)"/>
    <path fill="#0C0C0D" d="M91.4506836,344.47998 C91.5585938,346.098633 92.9042969,347.152344 94.8466797,347.152344 C96.9541016,347.152344 98.2744141,346.10498 98.2744141,344.429199 C98.2744141,343.115234 97.5063477,342.385254 95.6083984,341.90918 L94.6499023,341.655273 C93.4057617,341.331543 92.8979492,340.918945 92.8979492,340.227051 C92.8979492,339.332031 93.7231445,338.716309 94.9101562,338.716309 C96.1035156,338.716309 96.8969727,339.319336 96.9985352,340.303223 L98.1411133,340.303223 C98.090332,338.76709 96.7700195,337.687988 94.9482422,337.687988 C93.0439453,337.687988 91.7109375,338.754395 91.7109375,340.277832 C91.7109375,341.521973 92.4599609,342.264648 94.1484375,342.696289 L95.3227539,343.000977 C96.5541992,343.318359 97.09375,343.794434 97.09375,344.568848 C97.09375,345.470215 96.1923828,346.124023 94.9545898,346.124023 C93.6469727,346.124023 92.7075195,345.470215 92.5996094,344.47998 L91.4506836,344.47998 Z M102.083008,341.242676 C101.04834,341.242676 100.324707,342.036133 100.254883,343.134277 L103.841309,343.134277 C103.815918,342.029785 103.124023,341.242676 102.083008,341.242676 Z M103.815918,345.108398 L104.901367,345.108398 C104.710938,346.263672 103.59375,347.114258 102.152832,347.114258 C100.26123,347.114258 99.1123047,345.800293 99.1123047,343.724609 C99.1123047,341.674316 100.280273,340.28418 102.102051,340.28418 C103.885742,340.28418 104.983887,341.579102 104.983887,343.578613 L104.983887,343.997559 L100.248535,343.997559 L100.248535,344.061035 C100.248535,345.324219 100.991211,346.155762 102.178223,346.155762 C103.016113,346.155762 103.631836,345.730469 103.815918,345.108398 Z M108.271973,346.174805 C109.312988,346.174805 110.112793,345.444824 110.112793,344.492676 L110.112793,343.953125 L108.348145,344.061035 C107.459473,344.118164 106.95166,344.511719 106.95166,345.133789 C106.95166,345.762207 107.478516,346.174805 108.271973,346.174805 Z M108.024414,347.114258 C106.710449,347.114258 105.828125,346.320801 105.828125,345.133789 C105.828125,344.003906 106.697754,343.292969 108.221191,343.204102 L110.112793,343.096191 L110.112793,342.543945 C110.112793,341.737793 109.57959,341.255371 108.665527,341.255371 C107.814941,341.255371 107.281738,341.655273 107.14209,342.302734 L106.075684,342.302734 C106.151855,341.160156 107.129395,340.28418 108.690918,340.28418 C110.239746,340.28418 111.217285,341.12207 111.217285,342.436035 L111.217285,347 L110.169922,347 L110.169922,345.86377 L110.144531,345.86377 C109.750977,346.619141 108.913086,347.114258 108.024414,347.114258 Z M112.620117,347 L113.724609,347 L113.724609,342.886719 C113.724609,341.953613 114.283203,341.337891 115.140137,341.337891 C115.406738,341.337891 115.641602,341.369629 115.730469,341.401367 L115.730469,340.328613 C115.641602,340.315918 115.476562,340.28418 115.286133,340.28418 C114.511719,340.28418 113.902344,340.747559 113.686523,341.477539 L113.661133,341.477539 L113.661133,340.398438 L112.620117,340.398438 L112.620117,347 Z M121.79248,342.562988 C121.652832,341.375977 120.668945,340.28418 119.018555,340.28418 C117.196777,340.28418 115.984375,341.617188 115.984375,343.699219 C115.984375,345.825684 117.203125,347.114258 119.03125,347.114258 C120.529297,347.114258 121.633789,346.1875 121.805176,344.873535 L120.719727,344.873535 C120.529297,345.666992 119.938965,346.143066 119.037598,346.143066 C117.89502,346.143066 117.10791,345.235352 117.10791,343.699219 C117.10791,342.201172 117.882324,341.255371 119.024902,341.255371 C119.996094,341.255371 120.554688,341.845703 120.713379,342.562988 L121.79248,342.562988 Z M122.87793,347 L123.982422,347 L123.982422,343.15332 C123.982422,342.010742 124.661621,341.261719 125.759766,341.261719 C126.794434,341.261719 127.321289,341.890137 127.321289,342.9375 L127.321289,347 L128.425781,347 L128.425781,342.734375 C128.425781,341.261719 127.549805,340.28418 126.102539,340.28418 C125.099609,340.28418 124.375977,340.71582 124.007812,341.452148 L123.982422,341.452148 L123.982422,337.840332 L122.87793,337.840332 L122.87793,347 Z M138.34082,345.97168 L133.808594,345.97168 L133.808594,342.823242 L138.105957,342.823242 L138.105957,341.807617 L133.808594,341.807617 L133.808594,338.868652 L138.34082,338.868652 L138.34082,337.840332 L132.666016,337.840332 L132.666016,347 L138.34082,347 L138.34082,345.97168 Z M139.673828,347 L140.77832,347 L140.77832,343.115234 C140.77832,341.998047 141.45752,341.261719 142.498535,341.261719 C143.51416,341.261719 144.015625,341.845703 144.015625,342.912109 L144.015625,347 L145.120117,347 L145.120117,342.715332 C145.120117,341.217285 144.282227,340.28418 142.834961,340.28418 C141.812988,340.28418 141.108398,340.741211 140.740234,341.452148 L140.714844,341.452148 L140.714844,340.398438 L139.673828,340.398438 L139.673828,347 Z M149.208008,346.07959 C150.356934,346.07959 151.125,345.127441 151.125,343.673828 C151.125,342.220215 150.356934,341.255371 149.208008,341.255371 C148.071777,341.255371 147.329102,342.194824 147.329102,343.673828 C147.329102,345.152832 148.071777,346.07959 149.208008,346.07959 Z M149.246094,349.488281 C147.79248,349.488281 146.643555,348.669434 146.459473,347.545898 L147.595703,347.545898 C147.811523,348.148926 148.465332,348.548828 149.290527,348.548828 C150.433105,348.548828 151.125,347.888672 151.125,346.904785 L151.125,345.86377 L151.099609,345.86377 C150.693359,346.581055 149.912598,347.050781 148.98584,347.050781 C147.303711,347.050781 146.199219,345.724121 146.199219,343.673828 C146.199219,341.604492 147.303711,340.28418 149.01123,340.28418 C149.944336,340.28418 150.71875,340.741211 151.156738,341.509277 L151.175781,341.509277 L151.175781,340.398438 L152.229492,340.398438 L152.229492,346.866699 C152.229492,348.440918 151.067871,349.488281 149.246094,349.488281 Z M153.721191,347 L154.825684,347 L154.825684,340.398438 L153.721191,340.398438 L153.721191,347 Z M154.273438,339.287598 C154.654297,339.287598 154.965332,338.976562 154.965332,338.602051 C154.965332,338.221191 154.654297,337.916504 154.273438,337.916504 C153.898926,337.916504 153.587891,338.221191 153.587891,338.602051 C153.587891,338.976562 153.898926,339.287598 154.273438,339.287598 Z M156.317383,347 L157.421875,347 L157.421875,343.115234 C157.421875,341.998047 158.101074,341.261719 159.14209,341.261719 C160.157715,341.261719 160.65918,341.845703 160.65918,342.912109 L160.65918,347 L161.763672,347 L161.763672,342.715332 C161.763672,341.217285 160.925781,340.28418 159.478516,340.28418 C158.456543,340.28418 157.751953,340.741211 157.383789,341.452148 L157.358398,341.452148 L157.358398,340.398438 L156.317383,340.398438 L156.317383,347 Z M165.813477,341.242676 C164.778809,341.242676 164.055176,342.036133 163.985352,343.134277 L167.571777,343.134277 C167.546387,342.029785 166.854492,341.242676 165.813477,341.242676 Z M167.546387,345.108398 L168.631836,345.108398 C168.441406,346.263672 167.324219,347.114258 165.883301,347.114258 C163.991699,347.114258 162.842773,345.800293 162.842773,343.724609 C162.842773,341.674316 164.010742,340.28418 165.83252,340.28418 C167.616211,340.28418 168.714355,341.579102 168.714355,343.578613 L168.714355,343.997559 L163.979004,343.997559 L163.979004,344.061035 C163.979004,345.324219 164.72168,346.155762 165.908691,346.155762 C166.746582,346.155762 167.362305,345.730469 167.546387,345.108398 Z" opacity=".5"/>
    <path fill="#0C0C0D" fill-opacity=".8" fill-rule="nonzero" d="M8,12 C7.73426095,11.9999433 7.4794266,11.8943639 7.29154909,11.7064848 L2.2812881,6.69769219 C1.90153816,6.3046233 1.90696912,5.67982062 2.29349452,5.2934085 C2.68001992,4.90699639 3.30500578,4.90156702 3.69818991,5.28120566 L8,9.58175495 L12.3018101,5.28120566 C12.6949942,4.90156702 13.3199801,4.90699639 13.7065055,5.2934085 C14.0930309,5.67982062 14.0984618,6.3046233 13.7187119,6.69769219 L8.70845091,11.7064848 C8.5205734,11.8943639 8.26573905,11.9999433 8,12 Z" opacity=".5" transform="translate(192 334)"/>
    <path fill="#FF0039" d="M34,178.665596 L62.2110136,178.665596 C84.3804671,178.665596 97.4363809,191.875108 97.4363809,215.324553 C97.4363809,238.773998 84.3804671,252.546707 62.2110136,252.546707 L34,252.546707 L34,178.665596 Z M49.4622978,191.414311 L49.4622978,239.746792 L60.3678258,239.746792 C74.1917344,239.746792 81.666885,231.350047 81.666885,215.375753 C81.666885,199.913455 73.9869358,191.414311 60.3678258,191.414311 L49.4622978,191.414311 Z M106.089124,252.546707 L121.039425,252.546707 L121.039425,221.87811 C121.039425,214.146961 125.340196,209.641391 132.712948,209.641391 C134.863334,209.641391 136.91132,209.999789 138.140112,210.511785 L138.140112,197.353472 C137.116119,197.046274 135.631328,196.790276 133.89054,196.790276 C127.439383,196.790276 122.780213,200.579051 120.834626,207.542205 L120.527428,207.542205 L120.527428,197.66067 L106.089124,197.66067 L106.089124,252.546707 Z M164.14954,242.613973 C170.651897,242.613973 176.027862,238.364401 176.027862,232.42524 L176.027862,228.431667 L164.456738,229.148462 C158.875975,229.558059 155.701596,232.066843 155.701596,235.958017 C155.701596,240.05399 159.080774,242.613973 164.14954,242.613973 Z M159.234373,253.417102 C148.789642,253.417102 140.853694,246.658746 140.853694,236.777212 C140.853694,226.793278 148.533643,221.007716 162.203953,220.188521 L176.027862,219.369327 L176.027862,215.734151 C176.027862,210.614185 172.443885,207.644604 166.811922,207.644604 C161.231159,207.644604 157.698383,210.409386 156.981587,214.454159 L143.311278,214.454159 C143.874474,203.804629 152.936814,196.483078 167.477518,196.483078 C181.557425,196.483078 190.722164,203.75343 190.722164,214.812557 L190.722164,252.546707 L176.28386,252.546707 L176.28386,244.149963 L175.976662,244.149963 C172.904682,249.986724 166.095127,253.417102 159.234373,253.417102 Z M204.341274,252.546707 L219.291576,252.546707 L219.291576,208.924596 L229.838706,208.924596 L229.838706,197.916668 L218.933178,197.916668 L218.933178,194.281492 C218.933178,190.390318 221.083564,188.239932 225.998731,188.239932 C227.483522,188.239932 228.968312,188.342332 230.043505,188.54713 L230.043505,178.665596 C228.302716,178.307198 225.179537,178 222.414755,178 C209.410041,178 204.341274,183.017567 204.341274,193.769496 L204.341274,197.916668 L196.866124,197.916668 L196.866124,208.924596 L204.341274,208.924596 L204.341274,252.546707 Z M241.665828,185.014354 L241.665828,197.66067 L233.934679,197.66067 L233.934679,208.924596 L241.665828,208.924596 L241.665828,237.750005 C241.665828,248.450735 246.683395,252.751506 259.585709,252.751506 C262.60649,252.751506 265.166473,252.495508 266.702462,252.13711 L266.702462,241.129183 C265.780869,241.282782 264.398478,241.385181 263.067286,241.385181 C258.664116,241.385181 256.616129,239.388394 256.616129,235.190022 L256.616129,208.924596 L266.753662,208.924596 L266.753662,197.66067 L256.616129,197.66067 L256.616129,185.014354 L241.665828,185.014354 Z" transform="rotate(-30 150.377 215.709)"/>
  </g>
</svg>
