<svg xmlns="http://www.w3.org/2000/svg" width="300" height="180" style="background:#f9f9fa" viewBox="0 0 300 180">
  <g fill="#0C0C0D" fill-rule="evenodd">
    <rect width="132" height="32" x="84" y="74" fill-opacity=".1" rx="2"/>
    <path d="M91.4506836,92.4799805 C91.5585938,94.0986328 92.9042969,95.1523438 94.8466797,95.1523438 C96.9541016,95.1523438 98.2744141,94.1049805 98.2744141,92.4291992 C98.2744141,91.1152344 97.5063477,90.3852539 95.6083984,89.9091797 L94.6499023,89.6552734 C93.4057617,89.331543 92.8979492,88.9189453 92.8979492,88.2270508 C92.8979492,87.3320312 93.7231445,86.7163086 94.9101562,86.7163086 C96.1035156,86.7163086 96.8969727,87.3193359 96.9985352,88.3032227 L98.1411133,88.3032227 C98.090332,86.7670898 96.7700195,85.6879883 94.9482422,85.6879883 C93.0439453,85.6879883 91.7109375,86.7543945 91.7109375,88.277832 C91.7109375,89.5219727 92.4599609,90.2646484 94.1484375,90.6962891 L95.3227539,91.0009766 C96.5541992,91.3183594 97.09375,91.7944336 97.09375,92.5688477 C97.09375,93.4702148 96.1923828,94.1240234 94.9545898,94.1240234 C93.6469727,94.1240234 92.7075195,93.4702148 92.5996094,92.4799805 L91.4506836,92.4799805 Z M102.083008,89.2426758 C101.04834,89.2426758 100.324707,90.0361328 100.254883,91.1342773 L103.841309,91.1342773 C103.815918,90.0297852 103.124023,89.2426758 102.083008,89.2426758 Z M103.815918,93.1083984 L104.901367,93.1083984 C104.710938,94.2636719 103.59375,95.1142578 102.152832,95.1142578 C100.26123,95.1142578 99.1123047,93.800293 99.1123047,91.7246094 C99.1123047,89.6743164 100.280273,88.2841797 102.102051,88.2841797 C103.885742,88.2841797 104.983887,89.5791016 104.983887,91.5786133 L104.983887,91.9975586 L100.248535,91.9975586 L100.248535,92.0610352 C100.248535,93.3242188 100.991211,94.1557617 102.178223,94.1557617 C103.016113,94.1557617 103.631836,93.7304688 103.815918,93.1083984 Z M108.271973,94.1748047 C109.312988,94.1748047 110.112793,93.4448242 110.112793,92.4926758 L110.112793,91.953125 L108.348145,92.0610352 C107.459473,92.1181641 106.95166,92.5117188 106.95166,93.1337891 C106.95166,93.762207 107.478516,94.1748047 108.271973,94.1748047 Z M108.024414,95.1142578 C106.710449,95.1142578 105.828125,94.3208008 105.828125,93.1337891 C105.828125,92.0039062 106.697754,91.2929688 108.221191,91.2041016 L110.112793,91.0961914 L110.112793,90.5439453 C110.112793,89.737793 109.57959,89.2553711 108.665527,89.2553711 C107.814941,89.2553711 107.281738,89.6552734 107.14209,90.3027344 L106.075684,90.3027344 C106.151855,89.1601562 107.129395,88.2841797 108.690918,88.2841797 C110.239746,88.2841797 111.217285,89.1220703 111.217285,90.4360352 L111.217285,95 L110.169922,95 L110.169922,93.8637695 L110.144531,93.8637695 C109.750977,94.6191406 108.913086,95.1142578 108.024414,95.1142578 Z M112.620117,95 L113.724609,95 L113.724609,90.8867188 C113.724609,89.9536133 114.283203,89.3378906 115.140137,89.3378906 C115.406738,89.3378906 115.641602,89.3696289 115.730469,89.4013672 L115.730469,88.3286133 C115.641602,88.315918 115.476562,88.2841797 115.286133,88.2841797 C114.511719,88.2841797 113.902344,88.7475586 113.686523,89.4775391 L113.661133,89.4775391 L113.661133,88.3984375 L112.620117,88.3984375 L112.620117,95 Z M121.79248,90.5629883 C121.652832,89.3759766 120.668945,88.2841797 119.018555,88.2841797 C117.196777,88.2841797 115.984375,89.6171875 115.984375,91.6992188 C115.984375,93.8256836 117.203125,95.1142578 119.03125,95.1142578 C120.529297,95.1142578 121.633789,94.1875 121.805176,92.8735352 L120.719727,92.8735352 C120.529297,93.6669922 119.938965,94.1430664 119.037598,94.1430664 C117.89502,94.1430664 117.10791,93.2353516 117.10791,91.6992188 C117.10791,90.2011719 117.882324,89.2553711 119.024902,89.2553711 C119.996094,89.2553711 120.554688,89.8457031 120.713379,90.5629883 L121.79248,90.5629883 Z M122.87793,95 L123.982422,95 L123.982422,91.1533203 C123.982422,90.0107422 124.661621,89.2617188 125.759766,89.2617188 C126.794434,89.2617188 127.321289,89.8901367 127.321289,90.9375 L127.321289,95 L128.425781,95 L128.425781,90.734375 C128.425781,89.2617188 127.549805,88.2841797 126.102539,88.2841797 C125.099609,88.2841797 124.375977,88.7158203 124.007812,89.4521484 L123.982422,89.4521484 L123.982422,85.840332 L122.87793,85.840332 L122.87793,95 Z M138.34082,93.9716797 L133.808594,93.9716797 L133.808594,90.8232422 L138.105957,90.8232422 L138.105957,89.8076172 L133.808594,89.8076172 L133.808594,86.8686523 L138.34082,86.8686523 L138.34082,85.840332 L132.666016,85.840332 L132.666016,95 L138.34082,95 L138.34082,93.9716797 Z M139.673828,95 L140.77832,95 L140.77832,91.1152344 C140.77832,89.9980469 141.45752,89.2617188 142.498535,89.2617188 C143.51416,89.2617188 144.015625,89.8457031 144.015625,90.9121094 L144.015625,95 L145.120117,95 L145.120117,90.715332 C145.120117,89.2172852 144.282227,88.2841797 142.834961,88.2841797 C141.812988,88.2841797 141.108398,88.7412109 140.740234,89.4521484 L140.714844,89.4521484 L140.714844,88.3984375 L139.673828,88.3984375 L139.673828,95 Z M149.208008,94.0795898 C150.356934,94.0795898 151.125,93.1274414 151.125,91.6738281 C151.125,90.2202148 150.356934,89.2553711 149.208008,89.2553711 C148.071777,89.2553711 147.329102,90.1948242 147.329102,91.6738281 C147.329102,93.152832 148.071777,94.0795898 149.208008,94.0795898 Z M149.246094,97.4882812 C147.79248,97.4882812 146.643555,96.6694336 146.459473,95.5458984 L147.595703,95.5458984 C147.811523,96.1489258 148.465332,96.5488281 149.290527,96.5488281 C150.433105,96.5488281 151.125,95.8886719 151.125,94.9047852 L151.125,93.8637695 L151.099609,93.8637695 C150.693359,94.5810547 149.912598,95.0507812 148.98584,95.0507812 C147.303711,95.0507812 146.199219,93.7241211 146.199219,91.6738281 C146.199219,89.6044922 147.303711,88.2841797 149.01123,88.2841797 C149.944336,88.2841797 150.71875,88.7412109 151.156738,89.5092773 L151.175781,89.5092773 L151.175781,88.3984375 L152.229492,88.3984375 L152.229492,94.8666992 C152.229492,96.440918 151.067871,97.4882812 149.246094,97.4882812 Z M153.721191,95 L154.825684,95 L154.825684,88.3984375 L153.721191,88.3984375 L153.721191,95 Z M154.273438,87.2875977 C154.654297,87.2875977 154.965332,86.9765625 154.965332,86.6020508 C154.965332,86.2211914 154.654297,85.9165039 154.273438,85.9165039 C153.898926,85.9165039 153.587891,86.2211914 153.587891,86.6020508 C153.587891,86.9765625 153.898926,87.2875977 154.273438,87.2875977 Z M156.317383,95 L157.421875,95 L157.421875,91.1152344 C157.421875,89.9980469 158.101074,89.2617188 159.14209,89.2617188 C160.157715,89.2617188 160.65918,89.8457031 160.65918,90.9121094 L160.65918,95 L161.763672,95 L161.763672,90.715332 C161.763672,89.2172852 160.925781,88.2841797 159.478516,88.2841797 C158.456543,88.2841797 157.751953,88.7412109 157.383789,89.4521484 L157.358398,89.4521484 L157.358398,88.3984375 L156.317383,88.3984375 L156.317383,95 Z M165.813477,89.2426758 C164.778809,89.2426758 164.055176,90.0361328 163.985352,91.1342773 L167.571777,91.1342773 C167.546387,90.0297852 166.854492,89.2426758 165.813477,89.2426758 Z M167.546387,93.1083984 L168.631836,93.1083984 C168.441406,94.2636719 167.324219,95.1142578 165.883301,95.1142578 C163.991699,95.1142578 162.842773,93.800293 162.842773,91.7246094 C162.842773,89.6743164 164.010742,88.2841797 165.83252,88.2841797 C167.616211,88.2841797 168.714355,89.5791016 168.714355,91.5786133 L168.714355,91.9975586 L163.979004,91.9975586 L163.979004,92.0610352 C163.979004,93.3242188 164.72168,94.1557617 165.908691,94.1557617 C166.746582,94.1557617 167.362305,93.7304688 167.546387,93.1083984 Z"/>
    <path fill-opacity=".8" fill-rule="nonzero" d="M8,12 C7.73426095,11.9999433 7.4794266,11.8943639 7.29154909,11.7064848 L2.2812881,6.69769219 C1.90153816,6.3046233 1.90696912,5.67982062 2.29349452,5.2934085 C2.68001992,4.90699639 3.30500578,4.90156702 3.69818991,5.28120566 L8,9.58175495 L12.3018101,5.28120566 C12.6949942,4.90156702 13.3199801,4.90699639 13.7065055,5.2934085 C14.0930309,5.67982062 14.0984618,6.3046233 13.7187119,6.69769219 L8.70845091,11.7064848 C8.5205734,11.8943639 8.26573905,11.9999433 8,12 Z" transform="translate(192 82)"/>
  </g>
</svg>
