<svg xmlns="http://www.w3.org/2000/svg" xmlns:xlink="http://www.w3.org/1999/xlink" width="300" height="180" style="background:#f9f9fa" viewBox="0 0 300 180">
  <defs>
    <rect id="checkbox-combination-nested-a" width="14" height="14" x="58" y="105" rx="2"/>
  </defs>
  <g fill="none" fill-rule="evenodd">
    <path fill="#000" d="M57.1933594,69 L57.1933594,59.8974609 L59.7832031,59.8974609 C60.5703164,59.8974609 61.1944964,60.0900046 61.6557617,60.4750977 C62.117027,60.8601907 62.3476562,61.3616506 62.3476562,61.9794922 C62.3476562,62.4957708 62.2080092,62.944334 61.9287109,63.3251953 C61.6494127,63.7060566 61.2643254,63.9768872 60.7734375,64.1376953 L60.7734375,64.1630859 C61.3870473,64.2350264 61.8779278,64.4667135 62.2460938,64.8581543 C62.6142597,65.2495951 62.7983398,65.7584604 62.7983398,66.3847656 C62.7983398,67.1634154 62.5190458,67.7939429 61.9604492,68.2763672 C61.4018527,68.7587915 60.6972699,69 59.8466797,69 L57.1933594,69 Z M58.2597656,60.8623047 L58.2597656,63.8012695 L59.3515625,63.8012695 C59.9355498,63.8012695 60.3946923,63.6605646 60.7290039,63.3791504 C61.0633155,63.0977362 61.2304688,62.7010117 61.2304688,62.1889648 C61.2304688,61.3045203 60.6486061,60.8623047 59.4848633,60.8623047 L58.2597656,60.8623047 Z M58.2597656,64.7597656 L58.2597656,68.0351562 L59.7070312,68.0351562 C60.3333365,68.0351562 60.8189273,67.8870458 61.1638184,67.5908203 C61.5087094,67.2945949 61.6811523,66.8883489 61.6811523,66.3720703 C61.6811523,65.2971951 60.9490633,64.7597656 59.4848633,64.7597656 L58.2597656,64.7597656 Z M65.546875,69 L64.5058594,69 L64.5058594,59.3769531 L65.546875,59.3769531 L65.546875,69 Z M70.3710938,69.1523438 C69.410477,69.1523438 68.6434762,68.8487172 68.0700684,68.2414551 C67.4966605,67.6341929 67.2099609,66.8291066 67.2099609,65.8261719 C67.2099609,64.7343695 67.5082978,63.8816762 68.1049805,63.2680664 C68.7016631,62.6544566 69.5078074,62.3476562 70.5234375,62.3476562 C71.4925179,62.3476562 72.2489393,62.6459931 72.7927246,63.2426758 C73.3365099,63.8393585 73.6083984,64.6666614 73.6083984,65.7246094 C73.6083984,66.7613984 73.3153512,67.5918751 72.729248,68.2160645 C72.1431449,68.8402538 71.3571013,69.1523438 70.3710938,69.1523438 Z M70.4472656,63.2236328 C69.7786425,63.2236328 69.2496764,63.4510882 68.8603516,63.9060059 C68.4710267,64.3609235 68.2763672,64.9882773 68.2763672,65.7880859 C68.2763672,66.5582721 68.4731426,67.1655251 68.8666992,67.6098633 C69.2602559,68.0542014 69.7871061,68.2763672 70.4472656,68.2763672 C71.1201206,68.2763672 71.6374494,68.0584332 71.9992676,67.6225586 C72.3610858,67.186684 72.5419922,66.5667358 72.5419922,65.7626953 C72.5419922,64.9501913 72.3610858,64.3238954 71.9992676,63.8837891 C71.6374494,63.4436827 71.1201206,63.2236328 70.4472656,63.2236328 Z M79.7021484,68.7016602 C79.202797,69.0021174 78.610355,69.1523438 77.9248047,69.1523438 C76.9980422,69.1523438 76.2500842,68.8508331 75.6809082,68.2478027 C75.1117322,67.6447724 74.8271484,66.8629605 74.8271484,65.9023438 C74.8271484,64.8317004 75.1339488,63.9716016 75.7475586,63.3220215 C76.3611684,62.6724414 77.1800079,62.3476562 78.2041016,62.3476562 C78.7753935,62.3476562 79.2789692,62.4534495 79.7148438,62.6650391 L79.7148438,63.7314453 C79.2324195,63.392902 78.7161486,63.2236328 78.1660156,63.2236328 C77.5016243,63.2236328 76.9567892,63.4616675 76.5314941,63.9377441 C76.106199,64.4138207 75.8935547,65.0390586 75.8935547,65.8134766 C75.8935547,66.5751991 76.0935039,67.1761046 76.4934082,67.6162109 C76.8933125,68.0563173 77.4296841,68.2763672 78.1025391,68.2763672 C78.6695992,68.2763672 79.202797,68.0880553 79.7021484,67.7114258 L79.7021484,68.7016602 Z M86.671875,69 L85.2119141,69 L82.3427734,65.8769531 L82.3173828,65.8769531 L82.3173828,69 L81.2763672,69 L81.2763672,59.3769531 L82.3173828,59.3769531 L82.3173828,65.4770508 L82.3427734,65.4770508 L85.0722656,62.5 L86.4370117,62.5 L83.421875,65.6357422 L86.671875,69 Z M96.847168,69 L95.8061523,69 L95.8061523,67.8955078 L95.7807617,67.8955078 C95.2983374,68.7334026 94.5535532,69.1523438 93.5463867,69.1523438 C92.7296509,69.1523438 92.0769067,68.8614124 91.5881348,68.279541 C91.0993628,67.6976696 90.8549805,66.9052785 90.8549805,65.9023438 C90.8549805,64.8274686 91.1258111,63.9663118 91.6674805,63.3188477 C92.2091498,62.6713835 92.9306596,62.3476562 93.8320312,62.3476562 C94.7249394,62.3476562 95.3745097,62.6988897 95.7807617,63.4013672 L95.8061523,63.4013672 L95.8061523,59.3769531 L96.847168,59.3769531 L96.847168,69 Z M95.8061523,66.0610352 L95.8061523,65.1025391 C95.8061523,64.5777969 95.6326515,64.1334654 95.2856445,63.7695312 C94.9386376,63.4055971 94.4985378,63.2236328 93.965332,63.2236328 C93.3305632,63.2236328 92.8312193,63.4563779 92.4672852,63.921875 C92.103351,64.3873721 91.9213867,65.0305949 91.9213867,65.8515625 C91.9213867,66.6005897 92.0959455,67.1919737 92.4450684,67.6257324 C92.7941912,68.0594911 93.2628551,68.2763672 93.8510742,68.2763672 C94.4308297,68.2763672 94.9016095,68.0668966 95.2634277,67.6479492 C95.6252459,67.2290018 95.8061523,66.7000357 95.8061523,66.0610352 Z M103.607422,69 L102.566406,69 L102.566406,67.984375 L102.541016,67.984375 C102.088214,68.7630247 101.421717,69.1523438 100.541504,69.1523438 C99.8940397,69.1523438 99.3872902,68.9809587 99.0212402,68.6381836 C98.6551902,68.2954084 98.472168,67.8404976 98.472168,67.2734375 C98.472168,66.0589132 99.1873301,65.3522145 100.617676,65.1533203 L102.566406,64.8803711 C102.566406,63.7758734 102.119959,63.2236328 101.227051,63.2236328 C100.444169,63.2236328 99.7374706,63.4902317 99.1069336,64.0234375 L99.1069336,62.9570312 C99.7459342,62.5507792 100.482255,62.3476562 101.315918,62.3476562 C102.843595,62.3476562 103.607422,63.1559164 103.607422,64.7724609 L103.607422,69 Z M102.566406,65.7119141 L100.998535,65.9277344 C100.516111,65.995443 100.152182,66.1149894 99.9067383,66.286377 C99.6612943,66.4577645 99.5385742,66.761391 99.5385742,67.1972656 C99.5385742,67.51465 99.651773,67.7738434 99.8781738,67.9748535 C100.104575,68.1758636 100.406085,68.2763672 100.782715,68.2763672 C101.298993,68.2763672 101.72534,68.0954608 102.061768,67.7336426 C102.398195,67.3718244 102.566406,66.9137398 102.566406,66.359375 L102.566406,65.7119141 Z M110.964355,69 L109.92334,69 L109.92334,65.2929688 C109.92334,63.9134046 109.419764,63.2236328 108.412598,63.2236328 C107.892087,63.2236328 107.461509,63.4193503 107.12085,63.810791 C106.78019,64.2022318 106.609863,64.6962861 106.609863,65.2929688 L106.609863,69 L105.568848,69 L105.568848,62.5 L106.609863,62.5 L106.609863,63.5791016 L106.635254,63.5791016 C107.126142,62.7581339 107.837072,62.3476562 108.768066,62.3476562 C109.479007,62.3476562 110.022785,62.5772275 110.399414,63.036377 C110.776044,63.4955264 110.964355,64.1588498 110.964355,65.0263672 L110.964355,69 Z M118.473633,68.4794922 C118.473633,70.8662229 117.331066,72.0595703 115.045898,72.0595703 C114.241858,72.0595703 113.539391,71.9072281 112.938477,71.6025391 L112.938477,70.5615234 C113.670577,70.9677755 114.368812,71.1708984 115.033203,71.1708984 C116.63282,71.1708984 117.432617,70.320321 117.432617,68.6191406 L117.432617,67.9082031 L117.407227,67.9082031 C116.912107,68.7376344 116.167323,69.1523438 115.172852,69.1523438 C114.364579,69.1523438 113.713951,68.8635283 113.220947,68.2858887 C112.727943,67.7082491 112.481445,66.9327848 112.481445,65.9594727 C112.481445,64.8549749 112.746986,63.9768913 113.278076,63.3251953 C113.809166,62.6734993 114.535965,62.3476562 115.458496,62.3476562 C116.334477,62.3476562 116.984047,62.6988897 117.407227,63.4013672 L117.432617,63.4013672 L117.432617,62.5 L118.473633,62.5 L118.473633,68.4794922 Z M117.432617,66.0610352 L117.432617,65.1025391 C117.432617,64.5862604 117.258058,64.1440448 116.908936,63.7758789 C116.559813,63.407713 116.125003,63.2236328 115.604492,63.2236328 C114.96126,63.2236328 114.457684,63.4574358 114.09375,63.9250488 C113.729816,64.3926618 113.547852,65.0475218 113.547852,65.8896484 C113.547852,66.6132849 113.72241,67.1919737 114.071533,67.6257324 C114.420656,68.0594911 114.882972,68.2763672 115.458496,68.2763672 C116.042483,68.2763672 116.517495,68.0690125 116.883545,67.6542969 C117.249595,67.2395813 117.432617,66.7084993 117.432617,66.0610352 Z M125.805176,66.0102539 L121.21582,66.0102539 C121.232747,66.7338903 121.427407,67.2924785 121.799805,67.6860352 C122.172202,68.0795918 122.684242,68.2763672 123.335938,68.2763672 C124.068038,68.2763672 124.740882,68.0351587 125.354492,67.5527344 L125.354492,68.5302734 C124.7832,68.9449891 124.027837,69.1523438 123.088379,69.1523438 C122.17008,69.1523438 121.44857,68.8571807 120.923828,68.2668457 C120.399086,67.6765107 120.136719,66.846034 120.136719,65.7753906 C120.136719,64.7639923 120.423418,63.9398632 120.996826,63.3029785 C121.570234,62.6660938 122.282222,62.3476562 123.132812,62.3476562 C123.983403,62.3476562 124.641436,62.6227186 125.106934,63.1728516 C125.572431,63.7229845 125.805176,64.4868115 125.805176,65.4643555 L125.805176,66.0102539 Z M124.73877,65.1279297 C124.734538,64.5270152 124.589601,64.0594092 124.303955,63.7250977 C124.018309,63.3907861 123.621585,63.2236328 123.11377,63.2236328 C122.622882,63.2236328 122.206056,63.3992495 121.863281,63.7504883 C121.520506,64.101727 121.30892,64.5608696 121.228516,65.1279297 L124.73877,65.1279297 Z M130.769043,63.5537109 C130.587076,63.4140618 130.324709,63.3442383 129.981934,63.3442383 C129.537595,63.3442383 129.166261,63.5537088 128.86792,63.9726562 C128.569579,64.3916037 128.42041,64.962887 128.42041,65.6865234 L128.42041,69 L127.379395,69 L127.379395,62.5 L128.42041,62.5 L128.42041,63.8393555 L128.445801,63.8393555 C128.593914,63.3823219 128.820311,63.0257988 129.125,62.7697754 C129.429689,62.513752 129.770343,62.3857422 130.146973,62.3857422 C130.417807,62.3857422 130.625162,62.4153643 130.769043,62.4746094 L130.769043,63.5537109 Z M134.615723,69.1523438 C133.655106,69.1523438 132.888105,68.8487172 132.314697,68.2414551 C131.741289,67.6341929 131.45459,66.8291066 131.45459,65.8261719 C131.45459,64.7343695 131.752927,63.8816762 132.349609,63.2680664 C132.946292,62.6544566 133.752436,62.3476562 134.768066,62.3476562 C135.737147,62.3476562 136.493568,62.6459931 137.037354,63.2426758 C137.581139,63.8393585 137.853027,64.6666614 137.853027,65.7246094 C137.853027,66.7613984 137.55998,67.5918751 136.973877,68.2160645 C136.387774,68.8402538 135.60173,69.1523438 134.615723,69.1523438 Z M134.691895,63.2236328 C134.023271,63.2236328 133.494305,63.4510882 133.10498,63.9060059 C132.715656,64.3609235 132.520996,64.9882773 132.520996,65.7880859 C132.520996,66.5582721 132.717771,67.1655251 133.111328,67.6098633 C133.504885,68.0542014 134.031735,68.2763672 134.691895,68.2763672 C135.364749,68.2763672 135.882078,68.0584332 136.243896,67.6225586 C136.605715,67.186684 136.786621,66.5667358 136.786621,65.7626953 C136.786621,64.9501913 136.605715,64.3238954 136.243896,63.8837891 C135.882078,63.4436827 135.364749,63.2236328 134.691895,63.2236328 Z M144.771973,69 L143.730957,69 L143.730957,67.9716797 L143.705566,67.9716797 C143.273924,68.758793 142.605311,69.1523438 141.699707,69.1523438 C140.150871,69.1523438 139.376465,68.2298269 139.376465,66.3847656 L139.376465,62.5 L140.411133,62.5 L140.411133,66.2197266 C140.411133,67.5908272 140.935867,68.2763672 141.985352,68.2763672 C142.493167,68.2763672 142.91105,68.0891132 143.239014,67.7145996 C143.566978,67.340086 143.730957,66.8502634 143.730957,66.2451172 L143.730957,62.5 L144.771973,62.5 L144.771973,69 Z M146.479492,68.7651367 L146.479492,67.6479492 C147.046552,68.0668966 147.670732,68.2763672 148.352051,68.2763672 C149.266118,68.2763672 149.723145,67.9716827 149.723145,67.3623047 C149.723145,67.1888012 149.684001,67.0417486 149.605713,66.9211426 C149.527425,66.8005365 149.421632,66.6936854 149.28833,66.6005859 C149.155029,66.5074865 148.998455,66.4239099 148.818604,66.3498535 C148.638752,66.2757972 148.445151,66.1985681 148.237793,66.1181641 C147.950031,66.0039057 147.697185,65.8885911 147.479248,65.7722168 C147.261311,65.6558425 147.079346,65.5246589 146.93335,65.3786621 C146.787353,65.2326653 146.677328,65.0665699 146.603271,64.8803711 C146.529215,64.6941722 146.492188,64.4762382 146.492188,64.2265625 C146.492188,63.9218735 146.562011,63.6521008 146.70166,63.4172363 C146.841309,63.1823719 147.027505,62.9855965 147.260254,62.8269043 C147.493002,62.6682121 147.758543,62.5486658 148.056885,62.4682617 C148.355226,62.3878577 148.663084,62.3476562 148.980469,62.3476562 C149.543297,62.3476562 150.046873,62.444986 150.491211,62.6396484 L150.491211,63.6933594 C150.013018,63.3802068 149.462894,63.2236328 148.84082,63.2236328 C148.646158,63.2236328 148.470541,63.2458494 148.313965,63.2902832 C148.157389,63.334717 148.023031,63.397135 147.910889,63.4775391 C147.798746,63.5579431 147.711996,63.6542149 147.650635,63.7663574 C147.589274,63.8784999 147.558594,64.002278 147.558594,64.1376953 C147.558594,64.306967 147.589274,64.4487299 147.650635,64.5629883 C147.711996,64.6772467 147.80192,64.7788081 147.92041,64.8676758 C148.0389,64.9565434 148.182779,65.0369463 148.352051,65.1088867 C148.521322,65.1808272 148.713866,65.2591142 148.929688,65.34375 C149.217449,65.4537766 149.475585,65.5669753 149.704102,65.6833496 C149.932618,65.7997239 150.127278,65.9309075 150.288086,66.0769043 C150.448894,66.2229011 150.572672,66.3911123 150.659424,66.581543 C150.746176,66.7719736 150.789551,66.9983711 150.789551,67.2607422 C150.789551,67.5823584 150.718669,67.8616525 150.576904,68.0986328 C150.435139,68.3356132 150.245769,68.5323885 150.008789,68.6889648 C149.771809,68.8455411 149.498862,68.9619137 149.189941,69.0380859 C148.881021,69.1142582 148.557293,69.1523438 148.21875,69.1523438 C147.550127,69.1523438 146.97038,69.023276 146.479492,68.7651367 Z M160.380859,68.7016602 C159.881508,69.0021174 159.289066,69.1523438 158.603516,69.1523438 C157.676753,69.1523438 156.928795,68.8508331 156.359619,68.2478027 C155.790443,67.6447724 155.505859,66.8629605 155.505859,65.9023438 C155.505859,64.8317004 155.81266,63.9716016 156.42627,63.3220215 C157.039879,62.6724414 157.858719,62.3476562 158.882812,62.3476562 C159.454104,62.3476562 159.95768,62.4534495 160.393555,62.6650391 L160.393555,63.7314453 C159.91113,63.392902 159.39486,63.2236328 158.844727,63.2236328 C158.180335,63.2236328 157.6355,63.4616675 157.210205,63.9377441 C156.78491,64.4138207 156.572266,65.0390586 156.572266,65.8134766 C156.572266,66.5751991 156.772215,67.1761046 157.172119,67.6162109 C157.572023,68.0563173 158.108395,68.2763672 158.78125,68.2763672 C159.34831,68.2763672 159.881508,68.0880553 160.380859,67.7114258 L160.380859,68.7016602 Z M164.671875,69.1523438 C163.711258,69.1523438 162.944257,68.8487172 162.37085,68.2414551 C161.797442,67.6341929 161.510742,66.8291066 161.510742,65.8261719 C161.510742,64.7343695 161.809079,63.8816762 162.405762,63.2680664 C163.002444,62.6544566 163.808589,62.3476562 164.824219,62.3476562 C165.793299,62.3476562 166.549721,62.6459931 167.093506,63.2426758 C167.637291,63.8393585 167.90918,64.6666614 167.90918,65.7246094 C167.90918,66.7613984 167.616132,67.5918751 167.030029,68.2160645 C166.443926,68.8402538 165.657883,69.1523438 164.671875,69.1523438 Z M164.748047,63.2236328 C164.079424,63.2236328 163.550458,63.4510882 163.161133,63.9060059 C162.771808,64.3609235 162.577148,64.9882773 162.577148,65.7880859 C162.577148,66.5582721 162.773924,67.1655251 163.16748,67.6098633 C163.561037,68.0542014 164.087887,68.2763672 164.748047,68.2763672 C165.420902,68.2763672 165.938231,68.0584332 166.300049,67.6225586 C166.661867,67.186684 166.842773,66.5667358 166.842773,65.7626953 C166.842773,64.9501913 166.661867,64.3238954 166.300049,63.8837891 C165.938231,63.4436827 165.420902,63.2236328 164.748047,63.2236328 Z M174.967773,69 L173.926758,69 L173.926758,65.2929688 C173.926758,63.9134046 173.423182,63.2236328 172.416016,63.2236328 C171.895505,63.2236328 171.464927,63.4193503 171.124268,63.810791 C170.783608,64.2022318 170.613281,64.6962861 170.613281,65.2929688 L170.613281,69 L169.572266,69 L169.572266,62.5 L170.613281,62.5 L170.613281,63.5791016 L170.638672,63.5791016 C171.12956,62.7581339 171.84049,62.3476562 172.771484,62.3476562 C173.482425,62.3476562 174.026203,62.5772275 174.402832,63.036377 C174.779462,63.4955264 174.967773,64.1588498 174.967773,65.0263672 L174.967773,69 Z M179.944336,68.9365234 C179.698892,69.0719408 179.375165,69.1396484 178.973145,69.1396484 C177.834792,69.1396484 177.265625,68.5048892 177.265625,67.2353516 L177.265625,63.3886719 L176.148438,63.3886719 L176.148438,62.5 L177.265625,62.5 L177.265625,60.9130859 L178.306641,60.5766602 L178.306641,62.5 L179.944336,62.5 L179.944336,63.3886719 L178.306641,63.3886719 L178.306641,67.0512695 C178.306641,67.4871441 178.380696,67.7981762 178.528809,67.984375 C178.676921,68.1705738 178.922362,68.2636719 179.265137,68.2636719 C179.527508,68.2636719 179.753905,68.1917325 179.944336,68.0478516 L179.944336,68.9365234 Z M186.558594,66.0102539 L181.969238,66.0102539 C181.986165,66.7338903 182.180825,67.2924785 182.553223,67.6860352 C182.92562,68.0795918 183.43766,68.2763672 184.089355,68.2763672 C184.821455,68.2763672 185.4943,68.0351587 186.10791,67.5527344 L186.10791,68.5302734 C185.536618,68.9449891 184.781255,69.1523438 183.841797,69.1523438 C182.923498,69.1523438 182.201988,68.8571807 181.677246,68.2668457 C181.152504,67.6765107 180.890137,66.846034 180.890137,65.7753906 C180.890137,64.7639923 181.176836,63.9398632 181.750244,63.3029785 C182.323652,62.6660938 183.03564,62.3476562 183.88623,62.3476562 C184.736821,62.3476562 185.394854,62.6227186 185.860352,63.1728516 C186.325849,63.7229845 186.558594,64.4868115 186.558594,65.4643555 L186.558594,66.0102539 Z M185.492188,65.1279297 C185.487956,64.5270152 185.343019,64.0594092 185.057373,63.7250977 C184.771727,63.3907861 184.375003,63.2236328 183.867188,63.2236328 C183.3763,63.2236328 182.959474,63.3992495 182.616699,63.7504883 C182.273924,64.101727 182.062338,64.5608696 181.981934,65.1279297 L185.492188,65.1279297 Z M193.52832,69 L192.487305,69 L192.487305,65.2929688 C192.487305,63.9134046 191.983729,63.2236328 190.976562,63.2236328 C190.456052,63.2236328 190.025474,63.4193503 189.684814,63.810791 C189.344155,64.2022318 189.173828,64.6962861 189.173828,65.2929688 L189.173828,69 L188.132812,69 L188.132812,62.5 L189.173828,62.5 L189.173828,63.5791016 L189.199219,63.5791016 C189.690107,62.7581339 190.401037,62.3476562 191.332031,62.3476562 C192.042972,62.3476562 192.586749,62.5772275 192.963379,63.036377 C193.340008,63.4955264 193.52832,64.1588498 193.52832,65.0263672 L193.52832,69 Z M198.504883,68.9365234 C198.259439,69.0719408 197.935712,69.1396484 197.533691,69.1396484 C196.395339,69.1396484 195.826172,68.5048892 195.826172,67.2353516 L195.826172,63.3886719 L194.708984,63.3886719 L194.708984,62.5 L195.826172,62.5 L195.826172,60.9130859 L196.867188,60.5766602 L196.867188,62.5 L198.504883,62.5 L198.504883,63.3886719 L196.867188,63.3886719 L196.867188,67.0512695 C196.867188,67.4871441 196.941243,67.7981762 197.089355,67.984375 C197.237468,68.1705738 197.482908,68.2636719 197.825684,68.2636719 C198.088055,68.2636719 198.314452,68.1917325 198.504883,68.0478516 L198.504883,68.9365234 Z"/>
    <rect width="16" height="16" x="36" y="56" fill="#0060DF" rx="2"/>
    <path fill="#FFF" fill-rule="nonzero" d="M42.52,68.5 C42.2557846,68.4999449 42.0023287,68.3953269 41.815,68.209 L38.295,64.709 C38.0344321,64.4586398 37.9292001,64.0871801 38.0197394,63.7373537 C38.1102786,63.3875273 38.3825034,63.113758 38.731812,63.021241 C39.0811205,62.928724 39.4531696,63.0318527 39.705,63.291 L42.517,66.091 L48.291,60.298 C48.6828367,59.918435 49.3065809,59.9229549 49.6928758,60.3081585 C50.0791707,60.6933622 50.0854551,61.3170911 49.707,61.71 L43.228,68.21 C43.0397717,68.3966949 42.7851111,68.5010051 42.52,68.5 Z"/>
    <path fill="#000" d="M78.1933594,93 L78.1933594,83.8974609 L80.7832031,83.8974609 C81.5703164,83.8974609 82.1944964,84.0900046 82.6557617,84.4750977 C83.117027,84.8601907 83.3476562,85.3616506 83.3476562,85.9794922 C83.3476562,86.4957708 83.2080092,86.944334 82.9287109,87.3251953 C82.6494127,87.7060566 82.2643254,87.9768872 81.7734375,88.1376953 L81.7734375,88.1630859 C82.3870473,88.2350264 82.8779278,88.4667135 83.2460938,88.8581543 C83.6142597,89.2495951 83.7983398,89.7584604 83.7983398,90.3847656 C83.7983398,91.1634154 83.5190458,91.7939429 82.9604492,92.2763672 C82.4018527,92.7587915 81.6972699,93 80.8466797,93 L78.1933594,93 Z M79.2597656,84.8623047 L79.2597656,87.8012695 L80.3515625,87.8012695 C80.9355498,87.8012695 81.3946923,87.6605646 81.7290039,87.3791504 C82.0633155,87.0977362 82.2304688,86.7010117 82.2304688,86.1889648 C82.2304688,85.3045203 81.6486061,84.8623047 80.4848633,84.8623047 L79.2597656,84.8623047 Z M79.2597656,88.7597656 L79.2597656,92.0351562 L80.7070312,92.0351562 C81.3333365,92.0351562 81.8189273,91.8870458 82.1638184,91.5908203 C82.5087094,91.2945949 82.6811523,90.8883489 82.6811523,90.3720703 C82.6811523,89.2971951 81.9490633,88.7597656 80.4848633,88.7597656 L79.2597656,88.7597656 Z M86.546875,93 L85.5058594,93 L85.5058594,83.3769531 L86.546875,83.3769531 L86.546875,93 Z M91.3710938,93.1523438 C90.410477,93.1523438 89.6434762,92.8487172 89.0700684,92.2414551 C88.4966605,91.6341929 88.2099609,90.8291066 88.2099609,89.8261719 C88.2099609,88.7343695 88.5082978,87.8816762 89.1049805,87.2680664 C89.7016631,86.6544566 90.5078074,86.3476562 91.5234375,86.3476562 C92.4925179,86.3476562 93.2489393,86.6459931 93.7927246,87.2426758 C94.3365099,87.8393585 94.6083984,88.6666614 94.6083984,89.7246094 C94.6083984,90.7613984 94.3153512,91.5918751 93.729248,92.2160645 C93.1431449,92.8402538 92.3571013,93.1523438 91.3710938,93.1523438 Z M91.4472656,87.2236328 C90.7786425,87.2236328 90.2496764,87.4510882 89.8603516,87.9060059 C89.4710267,88.3609235 89.2763672,88.9882773 89.2763672,89.7880859 C89.2763672,90.5582721 89.4731426,91.1655251 89.8666992,91.6098633 C90.2602559,92.0542014 90.7871061,92.2763672 91.4472656,92.2763672 C92.1201206,92.2763672 92.6374494,92.0584332 92.9992676,91.6225586 C93.3610858,91.186684 93.5419922,90.5667358 93.5419922,89.7626953 C93.5419922,88.9501913 93.3610858,88.3238954 92.9992676,87.8837891 C92.6374494,87.4436827 92.1201206,87.2236328 91.4472656,87.2236328 Z M100.702148,92.7016602 C100.202797,93.0021174 99.610355,93.1523438 98.9248047,93.1523438 C97.9980422,93.1523438 97.2500842,92.8508331 96.6809082,92.2478027 C96.1117322,91.6447724 95.8271484,90.8629605 95.8271484,89.9023438 C95.8271484,88.8317004 96.1339488,87.9716016 96.7475586,87.3220215 C97.3611684,86.6724414 98.1800079,86.3476562 99.2041016,86.3476562 C99.7753935,86.3476562 100.278969,86.4534495 100.714844,86.6650391 L100.714844,87.7314453 C100.232419,87.392902 99.7161486,87.2236328 99.1660156,87.2236328 C98.5016243,87.2236328 97.9567892,87.4616675 97.5314941,87.9377441 C97.106199,88.4138207 96.8935547,89.0390586 96.8935547,89.8134766 C96.8935547,90.5751991 97.0935039,91.1761046 97.4934082,91.6162109 C97.8933125,92.0563173 98.4296841,92.2763672 99.1025391,92.2763672 C99.6695992,92.2763672 100.202797,92.0880553 100.702148,91.7114258 L100.702148,92.7016602 Z M107.671875,93 L106.211914,93 L103.342773,89.8769531 L103.317383,89.8769531 L103.317383,93 L102.276367,93 L102.276367,83.3769531 L103.317383,83.3769531 L103.317383,89.4770508 L103.342773,89.4770508 L106.072266,86.5 L107.437012,86.5 L104.421875,89.6357422 L107.671875,93 Z M117.847168,93 L116.806152,93 L116.806152,91.8955078 L116.780762,91.8955078 C116.298337,92.7334026 115.553553,93.1523438 114.546387,93.1523438 C113.729651,93.1523438 113.076907,92.8614124 112.588135,92.279541 C112.099363,91.6976696 111.85498,90.9052785 111.85498,89.9023438 C111.85498,88.8274686 112.125811,87.9663118 112.66748,87.3188477 C113.20915,86.6713835 113.93066,86.3476562 114.832031,86.3476562 C115.724939,86.3476562 116.37451,86.6988897 116.780762,87.4013672 L116.806152,87.4013672 L116.806152,83.3769531 L117.847168,83.3769531 L117.847168,93 Z M116.806152,90.0610352 L116.806152,89.1025391 C116.806152,88.5777969 116.632651,88.1334654 116.285645,87.7695312 C115.938638,87.4055971 115.498538,87.2236328 114.965332,87.2236328 C114.330563,87.2236328 113.831219,87.4563779 113.467285,87.921875 C113.103351,88.3873721 112.921387,89.0305949 112.921387,89.8515625 C112.921387,90.6005897 113.095946,91.1919737 113.445068,91.6257324 C113.794191,92.0594911 114.262855,92.2763672 114.851074,92.2763672 C115.43083,92.2763672 115.90161,92.0668966 116.263428,91.6479492 C116.625246,91.2290018 116.806152,90.7000357 116.806152,90.0610352 Z M124.607422,93 L123.566406,93 L123.566406,91.984375 L123.541016,91.984375 C123.088214,92.7630247 122.421717,93.1523438 121.541504,93.1523438 C120.89404,93.1523438 120.38729,92.9809587 120.02124,92.6381836 C119.65519,92.2954084 119.472168,91.8404976 119.472168,91.2734375 C119.472168,90.0589132 120.18733,89.3522145 121.617676,89.1533203 L123.566406,88.8803711 C123.566406,87.7758734 123.119959,87.2236328 122.227051,87.2236328 C121.444169,87.2236328 120.737471,87.4902317 120.106934,88.0234375 L120.106934,86.9570312 C120.745934,86.5507792 121.482255,86.3476562 122.315918,86.3476562 C123.843595,86.3476562 124.607422,87.1559164 124.607422,88.7724609 L124.607422,93 Z M123.566406,89.7119141 L121.998535,89.9277344 C121.516111,89.995443 121.152182,90.1149894 120.906738,90.286377 C120.661294,90.4577645 120.538574,90.761391 120.538574,91.1972656 C120.538574,91.51465 120.651773,91.7738434 120.878174,91.9748535 C121.104575,92.1758636 121.406085,92.2763672 121.782715,92.2763672 C122.298993,92.2763672 122.72534,92.0954608 123.061768,91.7336426 C123.398195,91.3718244 123.566406,90.9137398 123.566406,90.359375 L123.566406,89.7119141 Z M131.964355,93 L130.92334,93 L130.92334,89.2929688 C130.92334,87.9134046 130.419764,87.2236328 129.412598,87.2236328 C128.892087,87.2236328 128.461509,87.4193503 128.12085,87.810791 C127.78019,88.2022318 127.609863,88.6962861 127.609863,89.2929688 L127.609863,93 L126.568848,93 L126.568848,86.5 L127.609863,86.5 L127.609863,87.5791016 L127.635254,87.5791016 C128.126142,86.7581339 128.837072,86.3476562 129.768066,86.3476562 C130.479007,86.3476562 131.022785,86.5772275 131.399414,87.036377 C131.776044,87.4955264 131.964355,88.1588498 131.964355,89.0263672 L131.964355,93 Z M139.473633,92.4794922 C139.473633,94.8662229 138.331066,96.0595703 136.045898,96.0595703 C135.241858,96.0595703 134.539391,95.9072281 133.938477,95.6025391 L133.938477,94.5615234 C134.670577,94.9677755 135.368812,95.1708984 136.033203,95.1708984 C137.63282,95.1708984 138.432617,94.320321 138.432617,92.6191406 L138.432617,91.9082031 L138.407227,91.9082031 C137.912107,92.7376344 137.167323,93.1523438 136.172852,93.1523438 C135.364579,93.1523438 134.713951,92.8635283 134.220947,92.2858887 C133.727943,91.7082491 133.481445,90.9327848 133.481445,89.9594727 C133.481445,88.8549749 133.746986,87.9768913 134.278076,87.3251953 C134.809166,86.6734993 135.535965,86.3476562 136.458496,86.3476562 C137.334477,86.3476562 137.984047,86.6988897 138.407227,87.4013672 L138.432617,87.4013672 L138.432617,86.5 L139.473633,86.5 L139.473633,92.4794922 Z M138.432617,90.0610352 L138.432617,89.1025391 C138.432617,88.5862604 138.258058,88.1440448 137.908936,87.7758789 C137.559813,87.407713 137.125003,87.2236328 136.604492,87.2236328 C135.96126,87.2236328 135.457684,87.4574358 135.09375,87.9250488 C134.729816,88.3926618 134.547852,89.0475218 134.547852,89.8896484 C134.547852,90.6132849 134.72241,91.1919737 135.071533,91.6257324 C135.420656,92.0594911 135.882972,92.2763672 136.458496,92.2763672 C137.042483,92.2763672 137.517495,92.0690125 137.883545,91.6542969 C138.249595,91.2395813 138.432617,90.7084993 138.432617,90.0610352 Z M146.805176,90.0102539 L142.21582,90.0102539 C142.232747,90.7338903 142.427407,91.2924785 142.799805,91.6860352 C143.172202,92.0795918 143.684242,92.2763672 144.335938,92.2763672 C145.068038,92.2763672 145.740882,92.0351587 146.354492,91.5527344 L146.354492,92.5302734 C145.7832,92.9449891 145.027837,93.1523438 144.088379,93.1523438 C143.17008,93.1523438 142.44857,92.8571807 141.923828,92.2668457 C141.399086,91.6765107 141.136719,90.846034 141.136719,89.7753906 C141.136719,88.7639923 141.423418,87.9398632 141.996826,87.3029785 C142.570234,86.6660938 143.282222,86.3476562 144.132812,86.3476562 C144.983403,86.3476562 145.641436,86.6227186 146.106934,87.1728516 C146.572431,87.7229845 146.805176,88.4868115 146.805176,89.4643555 L146.805176,90.0102539 Z M145.73877,89.1279297 C145.734538,88.5270152 145.589601,88.0594092 145.303955,87.7250977 C145.018309,87.3907861 144.621585,87.2236328 144.11377,87.2236328 C143.622882,87.2236328 143.206056,87.3992495 142.863281,87.7504883 C142.520506,88.101727 142.30892,88.5608696 142.228516,89.1279297 L145.73877,89.1279297 Z M151.769043,87.5537109 C151.587076,87.4140618 151.324709,87.3442383 150.981934,87.3442383 C150.537595,87.3442383 150.166261,87.5537088 149.86792,87.9726562 C149.569579,88.3916037 149.42041,88.962887 149.42041,89.6865234 L149.42041,93 L148.379395,93 L148.379395,86.5 L149.42041,86.5 L149.42041,87.8393555 L149.445801,87.8393555 C149.593914,87.3823219 149.820311,87.0257988 150.125,86.7697754 C150.429689,86.513752 150.770343,86.3857422 151.146973,86.3857422 C151.417807,86.3857422 151.625162,86.4153643 151.769043,86.4746094 L151.769043,87.5537109 Z M155.615723,93.1523438 C154.655106,93.1523438 153.888105,92.8487172 153.314697,92.2414551 C152.741289,91.6341929 152.45459,90.8291066 152.45459,89.8261719 C152.45459,88.7343695 152.752927,87.8816762 153.349609,87.2680664 C153.946292,86.6544566 154.752436,86.3476562 155.768066,86.3476562 C156.737147,86.3476562 157.493568,86.6459931 158.037354,87.2426758 C158.581139,87.8393585 158.853027,88.6666614 158.853027,89.7246094 C158.853027,90.7613984 158.55998,91.5918751 157.973877,92.2160645 C157.387774,92.8402538 156.60173,93.1523438 155.615723,93.1523438 Z M155.691895,87.2236328 C155.023271,87.2236328 154.494305,87.4510882 154.10498,87.9060059 C153.715656,88.3609235 153.520996,88.9882773 153.520996,89.7880859 C153.520996,90.5582721 153.717771,91.1655251 154.111328,91.6098633 C154.504885,92.0542014 155.031735,92.2763672 155.691895,92.2763672 C156.364749,92.2763672 156.882078,92.0584332 157.243896,91.6225586 C157.605715,91.186684 157.786621,90.5667358 157.786621,89.7626953 C157.786621,88.9501913 157.605715,88.3238954 157.243896,87.8837891 C156.882078,87.4436827 156.364749,87.2236328 155.691895,87.2236328 Z M165.771973,93 L164.730957,93 L164.730957,91.9716797 L164.705566,91.9716797 C164.273924,92.758793 163.605311,93.1523438 162.699707,93.1523438 C161.150871,93.1523438 160.376465,92.2298269 160.376465,90.3847656 L160.376465,86.5 L161.411133,86.5 L161.411133,90.2197266 C161.411133,91.5908272 161.935867,92.2763672 162.985352,92.2763672 C163.493167,92.2763672 163.91105,92.0891132 164.239014,91.7145996 C164.566978,91.340086 164.730957,90.8502634 164.730957,90.2451172 L164.730957,86.5 L165.771973,86.5 L165.771973,93 Z M167.479492,92.7651367 L167.479492,91.6479492 C168.046552,92.0668966 168.670732,92.2763672 169.352051,92.2763672 C170.266118,92.2763672 170.723145,91.9716827 170.723145,91.3623047 C170.723145,91.1888012 170.684001,91.0417486 170.605713,90.9211426 C170.527425,90.8005365 170.421632,90.6936854 170.28833,90.6005859 C170.155029,90.5074865 169.998455,90.4239099 169.818604,90.3498535 C169.638752,90.2757972 169.445151,90.1985681 169.237793,90.1181641 C168.950031,90.0039057 168.697185,89.8885911 168.479248,89.7722168 C168.261311,89.6558425 168.079346,89.5246589 167.93335,89.3786621 C167.787353,89.2326653 167.677328,89.0665699 167.603271,88.8803711 C167.529215,88.6941722 167.492188,88.4762382 167.492188,88.2265625 C167.492188,87.9218735 167.562011,87.6521008 167.70166,87.4172363 C167.841309,87.1823719 168.027505,86.9855965 168.260254,86.8269043 C168.493002,86.6682121 168.758543,86.5486658 169.056885,86.4682617 C169.355226,86.3878577 169.663084,86.3476562 169.980469,86.3476562 C170.543297,86.3476562 171.046873,86.444986 171.491211,86.6396484 L171.491211,87.6933594 C171.013018,87.3802068 170.462894,87.2236328 169.84082,87.2236328 C169.646158,87.2236328 169.470541,87.2458494 169.313965,87.2902832 C169.157389,87.334717 169.023031,87.397135 168.910889,87.4775391 C168.798746,87.5579431 168.711996,87.6542149 168.650635,87.7663574 C168.589274,87.8784999 168.558594,88.002278 168.558594,88.1376953 C168.558594,88.306967 168.589274,88.4487299 168.650635,88.5629883 C168.711996,88.6772467 168.80192,88.7788081 168.92041,88.8676758 C169.0389,88.9565434 169.182779,89.0369463 169.352051,89.1088867 C169.521322,89.1808272 169.713866,89.2591142 169.929688,89.34375 C170.217449,89.4537766 170.475585,89.5669753 170.704102,89.6833496 C170.932618,89.7997239 171.127278,89.9309075 171.288086,90.0769043 C171.448894,90.2229011 171.572672,90.3911123 171.659424,90.581543 C171.746176,90.7719736 171.789551,90.9983711 171.789551,91.2607422 C171.789551,91.5823584 171.718669,91.8616525 171.576904,92.0986328 C171.435139,92.3356132 171.245769,92.5323885 171.008789,92.6889648 C170.771809,92.8455411 170.498862,92.9619137 170.189941,93.0380859 C169.881021,93.1142582 169.557293,93.1523438 169.21875,93.1523438 C168.550127,93.1523438 167.97038,93.023276 167.479492,92.7651367 Z M182.498047,93 L181.457031,93 L181.457031,91.8955078 L181.431641,91.8955078 C180.949216,92.7334026 180.204432,93.1523438 179.197266,93.1523438 C178.38053,93.1523438 177.727786,92.8614124 177.239014,92.279541 C176.750242,91.6976696 176.505859,90.9052785 176.505859,89.9023438 C176.505859,88.8274686 176.77669,87.9663118 177.318359,87.3188477 C177.860029,86.6713835 178.581538,86.3476562 179.48291,86.3476562 C180.375818,86.3476562 181.025389,86.6988897 181.431641,87.4013672 L181.457031,87.4013672 L181.457031,83.3769531 L182.498047,83.3769531 L182.498047,93 Z M181.457031,90.0610352 L181.457031,89.1025391 C181.457031,88.5777969 181.28353,88.1334654 180.936523,87.7695312 C180.589516,87.4055971 180.149417,87.2236328 179.616211,87.2236328 C178.981442,87.2236328 178.482098,87.4563779 178.118164,87.921875 C177.75423,88.3873721 177.572266,89.0305949 177.572266,89.8515625 C177.572266,90.6005897 177.746824,91.1919737 178.095947,91.6257324 C178.44507,92.0594911 178.913734,92.2763672 179.501953,92.2763672 C180.081709,92.2763672 180.552488,92.0668966 180.914307,91.6479492 C181.276125,91.2290018 181.457031,90.7000357 181.457031,90.0610352 Z M187.322266,93.1523438 C186.361649,93.1523438 185.594648,92.8487172 185.02124,92.2414551 C184.447832,91.6341929 184.161133,90.8291066 184.161133,89.8261719 C184.161133,88.7343695 184.45947,87.8816762 185.056152,87.2680664 C185.652835,86.6544566 186.458979,86.3476562 187.474609,86.3476562 C188.44369,86.3476562 189.200111,86.6459931 189.743896,87.2426758 C190.287682,87.8393585 190.55957,88.6666614 190.55957,89.7246094 C190.55957,90.7613984 190.266523,91.5918751 189.68042,92.2160645 C189.094317,92.8402538 188.308273,93.1523438 187.322266,93.1523438 Z M187.398438,87.2236328 C186.729814,87.2236328 186.200848,87.4510882 185.811523,87.9060059 C185.422199,88.3609235 185.227539,88.9882773 185.227539,89.7880859 C185.227539,90.5582721 185.424314,91.1655251 185.817871,91.6098633 C186.211428,92.0542014 186.738278,92.2763672 187.398438,92.2763672 C188.071292,92.2763672 188.588621,92.0584332 188.950439,91.6225586 C189.312258,91.186684 189.493164,90.5667358 189.493164,89.7626953 C189.493164,88.9501913 189.312258,88.3238954 188.950439,87.8837891 C188.588621,87.4436827 188.071292,87.2236328 187.398438,87.2236328 Z M200.411133,86.5 L198.462402,93 L197.383301,93 L196.043945,88.347168 C195.993164,88.1694327 195.95931,87.9684256 195.942383,87.7441406 L195.916992,87.7441406 C195.904297,87.8964851 195.859864,88.0932605 195.783691,88.3344727 L194.330078,93 L193.289062,93 L191.321289,86.5 L192.413086,86.5 L193.758789,91.3876953 C193.801107,91.535808 193.830729,91.7304675 193.847656,91.9716797 L193.898438,91.9716797 C193.911133,91.7854808 193.949218,91.5865896 194.012695,91.375 L195.510742,86.5 L196.462891,86.5 L197.808594,91.4003906 C197.850912,91.5569669 197.88265,91.7516264 197.903809,91.984375 L197.95459,91.984375 C197.963053,91.8193351 197.999023,91.6246756 198.0625,91.4003906 L199.382812,86.5 L200.411133,86.5 Z M207.012695,93 L205.97168,93 L205.97168,89.2929688 C205.97168,87.9134046 205.468104,87.2236328 204.460938,87.2236328 C203.940427,87.2236328 203.509849,87.4193503 203.169189,87.810791 C202.82853,88.2022318 202.658203,88.6962861 202.658203,89.2929688 L202.658203,93 L201.617188,93 L201.617188,86.5 L202.658203,86.5 L202.658203,87.5791016 L202.683594,87.5791016 C203.174482,86.7581339 203.885412,86.3476562 204.816406,86.3476562 C205.527347,86.3476562 206.071124,86.5772275 206.447754,87.036377 C206.824383,87.4955264 207.012695,88.1588498 207.012695,89.0263672 L207.012695,93 Z M210.015137,93 L208.974121,93 L208.974121,83.3769531 L210.015137,83.3769531 L210.015137,93 Z M214.839355,93.1523438 C213.878739,93.1523438 213.111738,92.8487172 212.53833,92.2414551 C211.964922,91.6341929 211.678223,90.8291066 211.678223,89.8261719 C211.678223,88.7343695 211.97656,87.8816762 212.573242,87.2680664 C213.169925,86.6544566 213.976069,86.3476562 214.991699,86.3476562 C215.96078,86.3476562 216.717201,86.6459931 217.260986,87.2426758 C217.804772,87.8393585 218.07666,88.6666614 218.07666,89.7246094 C218.07666,90.7613984 217.783613,91.5918751 217.19751,92.2160645 C216.611407,92.8402538 215.825363,93.1523438 214.839355,93.1523438 Z M214.915527,87.2236328 C214.246904,87.2236328 213.717938,87.4510882 213.328613,87.9060059 C212.939288,88.3609235 212.744629,88.9882773 212.744629,89.7880859 C212.744629,90.5582721 212.941404,91.1655251 213.334961,91.6098633 C213.728518,92.0542014 214.255368,92.2763672 214.915527,92.2763672 C215.588382,92.2763672 216.105711,92.0584332 216.467529,91.6225586 C216.829348,91.186684 217.010254,90.5667358 217.010254,89.7626953 C217.010254,88.9501913 216.829348,88.3238954 216.467529,87.8837891 C216.105711,87.4436827 215.588382,87.2236328 214.915527,87.2236328 Z M224.392578,93 L223.351562,93 L223.351562,91.984375 L223.326172,91.984375 C222.87337,92.7630247 222.206873,93.1523438 221.32666,93.1523438 C220.679196,93.1523438 220.172446,92.9809587 219.806396,92.6381836 C219.440346,92.2954084 219.257324,91.8404976 219.257324,91.2734375 C219.257324,90.0589132 219.972486,89.3522145 221.402832,89.1533203 L223.351562,88.8803711 C223.351562,87.7758734 222.905115,87.2236328 222.012207,87.2236328 C221.229326,87.2236328 220.522627,87.4902317 219.89209,88.0234375 L219.89209,86.9570312 C220.53109,86.5507792 221.267411,86.3476562 222.101074,86.3476562 C223.628751,86.3476562 224.392578,87.1559164 224.392578,88.7724609 L224.392578,93 Z M223.351562,89.7119141 L221.783691,89.9277344 C221.301267,89.995443 220.937338,90.1149894 220.691895,90.286377 C220.446451,90.4577645 220.32373,90.761391 220.32373,91.1972656 C220.32373,91.51465 220.436929,91.7738434 220.66333,91.9748535 C220.889731,92.1758636 221.191242,92.2763672 221.567871,92.2763672 C222.08415,92.2763672 222.510496,92.0954608 222.846924,91.7336426 C223.183351,91.3718244 223.351562,90.9137398 223.351562,90.359375 L223.351562,89.7119141 Z M231.901855,93 L230.86084,93 L230.86084,91.8955078 L230.835449,91.8955078 C230.353025,92.7334026 229.608241,93.1523438 228.601074,93.1523438 C227.784338,93.1523438 227.131594,92.8614124 226.642822,92.279541 C226.15405,91.6976696 225.909668,90.9052785 225.909668,89.9023438 C225.909668,88.8274686 226.180499,87.9663118 226.722168,87.3188477 C227.263837,86.6713835 227.985347,86.3476562 228.886719,86.3476562 C229.779627,86.3476562 230.429197,86.6988897 230.835449,87.4013672 L230.86084,87.4013672 L230.86084,83.3769531 L231.901855,83.3769531 L231.901855,93 Z M230.86084,90.0610352 L230.86084,89.1025391 C230.86084,88.5777969 230.687339,88.1334654 230.340332,87.7695312 C229.993325,87.4055971 229.553225,87.2236328 229.02002,87.2236328 C228.385251,87.2236328 227.885907,87.4563779 227.521973,87.921875 C227.158039,88.3873721 226.976074,89.0305949 226.976074,89.8515625 C226.976074,90.6005897 227.150633,91.1919737 227.499756,91.6257324 C227.848879,92.0594911 228.317543,92.2763672 228.905762,92.2763672 C229.485517,92.2763672 229.956297,92.0668966 230.318115,91.6479492 C230.679933,91.2290018 230.86084,90.7000357 230.86084,90.0610352 Z M233.615723,92.7651367 L233.615723,91.6479492 C234.182783,92.0668966 234.806963,92.2763672 235.488281,92.2763672 C236.402348,92.2763672 236.859375,91.9716827 236.859375,91.3623047 C236.859375,91.1888012 236.820232,91.0417486 236.741943,90.9211426 C236.663655,90.8005365 236.557862,90.6936854 236.424561,90.6005859 C236.291259,90.5074865 236.134685,90.4239099 235.954834,90.3498535 C235.774983,90.2757972 235.581381,90.1985681 235.374023,90.1181641 C235.086262,90.0039057 234.833416,89.8885911 234.615479,89.7722168 C234.397541,89.6558425 234.215577,89.5246589 234.06958,89.3786621 C233.923583,89.2326653 233.813558,89.0665699 233.739502,88.8803711 C233.665446,88.6941722 233.628418,88.4762382 233.628418,88.2265625 C233.628418,87.9218735 233.698241,87.6521008 233.837891,87.4172363 C233.97754,87.1823719 234.163736,86.9855965 234.396484,86.8269043 C234.629233,86.6682121 234.894774,86.5486658 235.193115,86.4682617 C235.491457,86.3878577 235.799315,86.3476562 236.116699,86.3476562 C236.679528,86.3476562 237.183103,86.444986 237.627441,86.6396484 L237.627441,87.6933594 C237.149249,87.3802068 236.599124,87.2236328 235.977051,87.2236328 C235.782388,87.2236328 235.606772,87.2458494 235.450195,87.2902832 C235.293619,87.334717 235.159262,87.397135 235.047119,87.4775391 C234.934977,87.5579431 234.848226,87.6542149 234.786865,87.7663574 C234.725504,87.8784999 234.694824,88.002278 234.694824,88.1376953 C234.694824,88.306967 234.725504,88.4487299 234.786865,88.5629883 C234.848226,88.6772467 234.93815,88.7788081 235.056641,88.8676758 C235.175131,88.9565434 235.31901,89.0369463 235.488281,89.1088867 C235.657553,89.1808272 235.850097,89.2591142 236.065918,89.34375 C236.35368,89.4537766 236.611815,89.5669753 236.840332,89.6833496 C237.068849,89.7997239 237.263508,89.9309075 237.424316,90.0769043 C237.585125,90.2229011 237.708903,90.3911123 237.795654,90.581543 C237.882406,90.7719736 237.925781,90.9983711 237.925781,91.2607422 C237.925781,91.5823584 237.8549,91.8616525 237.713135,92.0986328 C237.57137,92.3356132 237.382,92.5323885 237.14502,92.6889648 C236.908039,92.8455411 236.635093,92.9619137 236.326172,93.0380859 C236.017251,93.1142582 235.693524,93.1523438 235.35498,93.1523438 C234.686357,93.1523438 234.106611,93.023276 233.615723,92.7651367 Z"/>
    <rect width="16" height="16" x="57" y="80" fill="#0060DF" rx="2"/>
    <path fill="#FFF" fill-rule="nonzero" d="M63.52,92.5 C63.2557846,92.4999449 63.0023287,92.3953269 62.815,92.209 L59.295,88.709 C59.0344321,88.4586398 58.9292001,88.0871801 59.0197394,87.7373537 C59.1102786,87.3875273 59.3825034,87.113758 59.731812,87.021241 C60.0811205,86.928724 60.4531696,87.0318527 60.705,87.291 L63.517,90.091 L69.291,84.298 C69.6828367,83.918435 70.3065809,83.9229549 70.6928758,84.3081585 C71.0791707,84.6933622 71.0854551,85.3170911 70.707,85.71 L64.228,92.21 C64.0397717,92.3966949 63.7851111,92.5010051 63.52,92.5 Z"/>
    <path fill="#000" d="M88.984375,107.897461 L86.4135742,117 L85.1630859,117 L83.2905273,110.347656 C83.2101233,110.064126 83.1614584,109.75521 83.1445312,109.420898 L83.1191406,109.420898 C83.0937499,109.734051 83.0387374,110.038735 82.9541016,110.334961 L81.0688477,117 L79.8310547,117 L77.1650391,107.897461 L78.3393555,107.897461 L80.2753906,114.879883 C80.3557947,115.171876 80.4065754,115.476561 80.4277344,115.793945 L80.4594727,115.793945 C80.4806316,115.56966 80.5462234,115.264976 80.65625,114.879883 L82.668457,107.897461 L83.6904297,107.897461 L85.6201172,114.930664 C85.6878259,115.171876 85.7386066,115.455402 85.7724609,115.78125 L85.7978516,115.78125 C85.8147787,115.561197 85.8719071,115.269208 85.9692383,114.905273 L87.8291016,107.897461 L88.984375,107.897461 Z M94.8496094,117 L93.8085938,117 L93.8085938,115.984375 L93.7832031,115.984375 C93.3304014,116.763025 92.6639041,117.152344 91.7836914,117.152344 C91.1362272,117.152344 90.6294777,116.980959 90.2634277,116.638184 C89.8973777,116.295408 89.7143555,115.840498 89.7143555,115.273438 C89.7143555,114.058913 90.4295176,113.352215 91.8598633,113.15332 L93.8085938,112.880371 C93.8085938,111.775873 93.3621464,111.223633 92.4692383,111.223633 C91.6863568,111.223633 90.9796581,111.490232 90.3491211,112.023438 L90.3491211,110.957031 C90.9881217,110.550779 91.7244424,110.347656 92.5581055,110.347656 C94.0857824,110.347656 94.8496094,111.155916 94.8496094,112.772461 L94.8496094,117 Z M93.8085938,113.711914 L92.2407227,113.927734 C91.7582984,113.995443 91.3943697,114.114989 91.1489258,114.286377 C90.9034818,114.457765 90.7807617,114.761391 90.7807617,115.197266 C90.7807617,115.51465 90.8939605,115.773843 91.1203613,115.974854 C91.3467622,116.175864 91.6482729,116.276367 92.0249023,116.276367 C92.541181,116.276367 92.9675276,116.095461 93.3039551,115.733643 C93.6403825,115.371824 93.8085938,114.91374 93.8085938,114.359375 L93.8085938,113.711914 Z M100.200684,111.553711 C100.018717,111.414062 99.7563494,111.344238 99.4135742,111.344238 C98.9692361,111.344238 98.5979019,111.553709 98.2995605,111.972656 C98.0012192,112.391604 97.8520508,112.962887 97.8520508,113.686523 L97.8520508,117 L96.8110352,117 L96.8110352,110.5 L97.8520508,110.5 L97.8520508,111.839355 L97.8774414,111.839355 C98.0255541,111.382322 98.2519516,111.025799 98.5566406,110.769775 C98.8613296,110.513752 99.2019838,110.385742 99.5786133,110.385742 C99.849448,110.385742 100.056803,110.415364 100.200684,110.474609 L100.200684,111.553711 Z M106.726074,117 L105.685059,117 L105.685059,113.292969 C105.685059,111.913405 105.181483,111.223633 104.174316,111.223633 C103.653806,111.223633 103.223228,111.41935 102.882568,111.810791 C102.541909,112.202232 102.371582,112.696286 102.371582,113.292969 L102.371582,117 L101.330566,117 L101.330566,110.5 L102.371582,110.5 L102.371582,111.579102 L102.396973,111.579102 C102.887861,110.758134 103.598791,110.347656 104.529785,110.347656 C105.240726,110.347656 105.784503,110.577228 106.161133,111.036377 C106.537762,111.495526 106.726074,112.15885 106.726074,113.026367 L106.726074,117 Z M116.901367,117 L115.860352,117 L115.860352,115.984375 L115.834961,115.984375 C115.382159,116.763025 114.715662,117.152344 113.835449,117.152344 C113.187985,117.152344 112.681236,116.980959 112.315186,116.638184 C111.949136,116.295408 111.766113,115.840498 111.766113,115.273438 C111.766113,114.058913 112.481275,113.352215 113.911621,113.15332 L115.860352,112.880371 C115.860352,111.775873 115.413904,111.223633 114.520996,111.223633 C113.738115,111.223633 113.031416,111.490232 112.400879,112.023438 L112.400879,110.957031 C113.039879,110.550779 113.7762,110.347656 114.609863,110.347656 C116.13754,110.347656 116.901367,111.155916 116.901367,112.772461 L116.901367,117 Z M115.860352,113.711914 L114.29248,113.927734 C113.810056,113.995443 113.446128,114.114989 113.200684,114.286377 C112.95524,114.457765 112.83252,114.761391 112.83252,115.197266 C112.83252,115.51465 112.945718,115.773843 113.172119,115.974854 C113.39852,116.175864 113.700031,116.276367 114.07666,116.276367 C114.592939,116.276367 115.019285,116.095461 115.355713,115.733643 C115.69214,115.371824 115.860352,114.91374 115.860352,114.359375 L115.860352,113.711914 Z M119.929199,116.060547 L119.903809,116.060547 L119.903809,117 L118.862793,117 L118.862793,107.376953 L119.903809,107.376953 L119.903809,111.642578 L119.929199,111.642578 C120.441246,110.779293 121.190262,110.347656 122.17627,110.347656 C123.009933,110.347656 123.662677,110.638588 124.134521,111.220459 C124.606366,111.80233 124.842285,112.582026 124.842285,113.55957 C124.842285,114.647141 124.577802,115.517819 124.048828,116.171631 C123.519854,116.825443 122.796229,117.152344 121.87793,117.152344 C121.018876,117.152344 120.369306,116.788415 119.929199,116.060547 Z M119.903809,113.438965 L119.903809,114.34668 C119.903809,114.884117 120.078367,115.340086 120.42749,115.7146 C120.776613,116.089113 121.219887,116.276367 121.757324,116.276367 C122.387861,116.276367 122.881916,116.035159 123.239502,115.552734 C123.597088,115.07031 123.775879,114.399581 123.775879,113.540527 C123.775879,112.816891 123.608726,112.249839 123.274414,111.839355 C122.940102,111.428872 122.487308,111.223633 121.916016,111.223633 C121.310869,111.223633 120.824221,111.434161 120.456055,111.855225 C120.087889,112.276288 119.903809,112.804196 119.903809,113.438965 Z M129.222168,117.152344 C128.261551,117.152344 127.49455,116.848717 126.921143,116.241455 C126.347735,115.634193 126.061035,114.829107 126.061035,113.826172 C126.061035,112.73437 126.359372,111.881676 126.956055,111.268066 C127.552737,110.654457 128.358882,110.347656 129.374512,110.347656 C130.343592,110.347656 131.100014,110.645993 131.643799,111.242676 C132.187584,111.839358 132.459473,112.666661 132.459473,113.724609 C132.459473,114.761398 132.166425,115.591875 131.580322,116.216064 C130.994219,116.840254 130.208176,117.152344 129.222168,117.152344 Z M129.29834,111.223633 C128.629717,111.223633 128.100751,111.451088 127.711426,111.906006 C127.322101,112.360923 127.127441,112.988277 127.127441,113.788086 C127.127441,114.558272 127.324217,115.165525 127.717773,115.609863 C128.11133,116.054201 128.63818,116.276367 129.29834,116.276367 C129.971195,116.276367 130.488524,116.058433 130.850342,115.622559 C131.21216,115.186684 131.393066,114.566736 131.393066,113.762695 C131.393066,112.950191 131.21216,112.323895 130.850342,111.883789 C130.488524,111.443683 129.971195,111.223633 129.29834,111.223633 Z M139.378418,117 L138.337402,117 L138.337402,115.97168 L138.312012,115.97168 C137.880369,116.758793 137.211756,117.152344 136.306152,117.152344 C134.757316,117.152344 133.98291,116.229827 133.98291,114.384766 L133.98291,110.5 L135.017578,110.5 L135.017578,114.219727 C135.017578,115.590827 135.542312,116.276367 136.591797,116.276367 C137.099612,116.276367 137.517495,116.089113 137.845459,115.7146 C138.173423,115.340086 138.337402,114.850263 138.337402,114.245117 L138.337402,110.5 L139.378418,110.5 L139.378418,117 Z M144.494629,116.936523 C144.249185,117.071941 143.925458,117.139648 143.523438,117.139648 C142.385085,117.139648 141.815918,116.504889 141.815918,115.235352 L141.815918,111.388672 L140.69873,111.388672 L140.69873,110.5 L141.815918,110.5 L141.815918,108.913086 L142.856934,108.57666 L142.856934,110.5 L144.494629,110.5 L144.494629,111.388672 L142.856934,111.388672 L142.856934,115.05127 C142.856934,115.487144 142.930989,115.798176 143.079102,115.984375 C143.227214,116.170574 143.472655,116.263672 143.81543,116.263672 C144.077801,116.263672 144.304198,116.191732 144.494629,116.047852 L144.494629,116.936523 Z M154.70166,117 L153.660645,117 L153.660645,115.97168 L153.635254,115.97168 C153.203611,116.758793 152.534998,117.152344 151.629395,117.152344 C150.080559,117.152344 149.306152,116.229827 149.306152,114.384766 L149.306152,110.5 L150.34082,110.5 L150.34082,114.219727 C150.34082,115.590827 150.865555,116.276367 151.915039,116.276367 C152.422854,116.276367 152.840737,116.089113 153.168701,115.7146 C153.496665,115.340086 153.660645,114.850263 153.660645,114.245117 L153.660645,110.5 L154.70166,110.5 L154.70166,117 Z M162.198242,117 L161.157227,117 L161.157227,113.292969 C161.157227,111.913405 160.653651,111.223633 159.646484,111.223633 C159.125974,111.223633 158.695396,111.41935 158.354736,111.810791 C158.014077,112.202232 157.84375,112.696286 157.84375,113.292969 L157.84375,117 L156.802734,117 L156.802734,110.5 L157.84375,110.5 L157.84375,111.579102 L157.869141,111.579102 C158.360028,110.758134 159.070959,110.347656 160.001953,110.347656 C160.712894,110.347656 161.256671,110.577228 161.633301,111.036377 C162.00993,111.495526 162.198242,112.15885 162.198242,113.026367 L162.198242,117 Z M172.348145,110.5 L170.399414,117 L169.320312,117 L167.980957,112.347168 C167.930176,112.169433 167.896322,111.968426 167.879395,111.744141 L167.854004,111.744141 C167.841309,111.896485 167.796875,112.093261 167.720703,112.334473 L166.26709,117 L165.226074,117 L163.258301,110.5 L164.350098,110.5 L165.695801,115.387695 C165.738119,115.535808 165.767741,115.730468 165.784668,115.97168 L165.835449,115.97168 C165.848145,115.785481 165.88623,115.58659 165.949707,115.375 L167.447754,110.5 L168.399902,110.5 L169.745605,115.400391 C169.787923,115.556967 169.819661,115.751626 169.84082,115.984375 L169.891602,115.984375 C169.900065,115.819335 169.936035,115.624676 169.999512,115.400391 L171.319824,110.5 L172.348145,110.5 Z M178.207031,117 L177.166016,117 L177.166016,115.984375 L177.140625,115.984375 C176.687823,116.763025 176.021326,117.152344 175.141113,117.152344 C174.493649,117.152344 173.9869,116.980959 173.62085,116.638184 C173.2548,116.295408 173.071777,115.840498 173.071777,115.273438 C173.071777,114.058913 173.786939,113.352215 175.217285,113.15332 L177.166016,112.880371 C177.166016,111.775873 176.719568,111.223633 175.82666,111.223633 C175.043779,111.223633 174.33708,111.490232 173.706543,112.023438 L173.706543,110.957031 C174.345544,110.550779 175.081864,110.347656 175.915527,110.347656 C177.443204,110.347656 178.207031,111.155916 178.207031,112.772461 L178.207031,117 Z M177.166016,113.711914 L175.598145,113.927734 C175.11572,113.995443 174.751792,114.114989 174.506348,114.286377 C174.260904,114.457765 174.138184,114.761391 174.138184,115.197266 C174.138184,115.51465 174.251382,115.773843 174.477783,115.974854 C174.704184,116.175864 175.005695,116.276367 175.382324,116.276367 C175.898603,116.276367 176.324949,116.095461 176.661377,115.733643 C176.997804,115.371824 177.166016,114.91374 177.166016,114.359375 L177.166016,113.711914 Z M185.563965,117 L184.522949,117 L184.522949,113.292969 C184.522949,111.913405 184.019374,111.223633 183.012207,111.223633 C182.491697,111.223633 182.061118,111.41935 181.720459,111.810791 C181.3798,112.202232 181.209473,112.696286 181.209473,113.292969 L181.209473,117 L180.168457,117 L180.168457,110.5 L181.209473,110.5 L181.209473,111.579102 L181.234863,111.579102 C181.725751,110.758134 182.436682,110.347656 183.367676,110.347656 C184.078617,110.347656 184.622394,110.577228 184.999023,111.036377 C185.375653,111.495526 185.563965,112.15885 185.563965,113.026367 L185.563965,117 Z M190.540527,116.936523 C190.295083,117.071941 189.971356,117.139648 189.569336,117.139648 C188.430984,117.139648 187.861816,116.504889 187.861816,115.235352 L187.861816,111.388672 L186.744629,111.388672 L186.744629,110.5 L187.861816,110.5 L187.861816,108.913086 L188.902832,108.57666 L188.902832,110.5 L190.540527,110.5 L190.540527,111.388672 L188.902832,111.388672 L188.902832,115.05127 C188.902832,115.487144 188.976887,115.798176 189.125,115.984375 C189.273113,116.170574 189.518553,116.263672 189.861328,116.263672 C190.123699,116.263672 190.350097,116.191732 190.540527,116.047852 L190.540527,116.936523 Z M197.154785,114.010254 L192.56543,114.010254 C192.582357,114.73389 192.777016,115.292479 193.149414,115.686035 C193.521812,116.079592 194.033851,116.276367 194.685547,116.276367 C195.417647,116.276367 196.090492,116.035159 196.704102,115.552734 L196.704102,116.530273 C196.13281,116.944989 195.377446,117.152344 194.437988,117.152344 C193.519689,117.152344 192.79818,116.857181 192.273438,116.266846 C191.748695,115.676511 191.486328,114.846034 191.486328,113.775391 C191.486328,112.763992 191.773028,111.939863 192.346436,111.302979 C192.919843,110.666094 193.631832,110.347656 194.482422,110.347656 C195.333012,110.347656 195.991046,110.622719 196.456543,111.172852 C196.92204,111.722985 197.154785,112.486812 197.154785,113.464355 L197.154785,114.010254 Z M196.088379,113.12793 C196.084147,112.527015 195.93921,112.059409 195.653564,111.725098 C195.367918,111.390786 194.971194,111.223633 194.463379,111.223633 C193.972491,111.223633 193.555666,111.39925 193.212891,111.750488 C192.870115,112.101727 192.658529,112.56087 192.578125,113.12793 L196.088379,113.12793 Z M204.276855,117 L203.23584,117 L203.23584,115.895508 L203.210449,115.895508 C202.728025,116.733403 201.983241,117.152344 200.976074,117.152344 C200.159338,117.152344 199.506594,116.861412 199.017822,116.279541 C198.52905,115.69767 198.284668,114.905278 198.284668,113.902344 C198.284668,112.827469 198.555499,111.966312 199.097168,111.318848 C199.638837,110.671383 200.360347,110.347656 201.261719,110.347656 C202.154627,110.347656 202.804197,110.69889 203.210449,111.401367 L203.23584,111.401367 L203.23584,107.376953 L204.276855,107.376953 L204.276855,117 Z M203.23584,114.061035 L203.23584,113.102539 C203.23584,112.577797 203.062339,112.133465 202.715332,111.769531 C202.368325,111.405597 201.928225,111.223633 201.39502,111.223633 C200.760251,111.223633 200.260907,111.456378 199.896973,111.921875 C199.533039,112.387372 199.351074,113.030595 199.351074,113.851562 C199.351074,114.60059 199.525633,115.191974 199.874756,115.625732 C200.223879,116.059491 200.692543,116.276367 201.280762,116.276367 C201.860517,116.276367 202.331297,116.066897 202.693115,115.647949 C203.054933,115.229002 203.23584,114.700036 203.23584,114.061035 Z M209.551758,116.765137 L209.551758,115.647949 C210.118818,116.066897 210.742998,116.276367 211.424316,116.276367 C212.338383,116.276367 212.79541,115.971683 212.79541,115.362305 C212.79541,115.188801 212.756267,115.041749 212.677979,114.921143 C212.59969,114.800537 212.493897,114.693685 212.360596,114.600586 C212.227294,114.507487 212.07072,114.42391 211.890869,114.349854 C211.711018,114.275797 211.517416,114.198568 211.310059,114.118164 C211.022297,114.003906 210.769451,113.888591 210.551514,113.772217 C210.333576,113.655843 210.151612,113.524659 210.005615,113.378662 C209.859618,113.232665 209.749593,113.06657 209.675537,112.880371 C209.601481,112.694172 209.564453,112.476238 209.564453,112.226562 C209.564453,111.921873 209.634277,111.652101 209.773926,111.417236 C209.913575,111.182372 210.099771,110.985596 210.33252,110.826904 C210.565268,110.668212 210.830809,110.548666 211.12915,110.468262 C211.427492,110.387858 211.73535,110.347656 212.052734,110.347656 C212.615563,110.347656 213.119138,110.444986 213.563477,110.639648 L213.563477,111.693359 C213.085284,111.380207 212.535159,111.223633 211.913086,111.223633 C211.718424,111.223633 211.542807,111.245849 211.38623,111.290283 C211.229654,111.334717 211.095297,111.397135 210.983154,111.477539 C210.871012,111.557943 210.784261,111.654215 210.7229,111.766357 C210.661539,111.8785 210.630859,112.002278 210.630859,112.137695 C210.630859,112.306967 210.661539,112.44873 210.7229,112.562988 C210.784261,112.677247 210.874186,112.778808 210.992676,112.867676 C211.111166,112.956543 211.255045,113.036946 211.424316,113.108887 C211.593588,113.180827 211.786132,113.259114 212.001953,113.34375 C212.289715,113.453777 212.54785,113.566975 212.776367,113.68335 C213.004884,113.799724 213.199543,113.930907 213.360352,114.076904 C213.52116,114.222901 213.644938,114.391112 213.731689,114.581543 C213.818441,114.771974 213.861816,114.998371 213.861816,115.260742 C213.861816,115.582358 213.790935,115.861652 213.64917,116.098633 C213.507405,116.335613 213.318035,116.532389 213.081055,116.688965 C212.844074,116.845541 212.571128,116.961914 212.262207,117.038086 C211.953286,117.114258 211.629559,117.152344 211.291016,117.152344 C210.622392,117.152344 210.042646,117.023276 209.551758,116.765137 Z M218.178223,117.152344 C217.217606,117.152344 216.450605,116.848717 215.877197,116.241455 C215.303789,115.634193 215.01709,114.829107 215.01709,113.826172 C215.01709,112.73437 215.315427,111.881676 215.912109,111.268066 C216.508792,110.654457 217.314936,110.347656 218.330566,110.347656 C219.299647,110.347656 220.056068,110.645993 220.599854,111.242676 C221.143639,111.839358 221.415527,112.666661 221.415527,113.724609 C221.415527,114.761398 221.12248,115.591875 220.536377,116.216064 C219.950274,116.840254 219.16423,117.152344 218.178223,117.152344 Z M218.254395,111.223633 C217.585771,111.223633 217.056805,111.451088 216.66748,111.906006 C216.278156,112.360923 216.083496,112.988277 216.083496,113.788086 C216.083496,114.558272 216.280271,115.165525 216.673828,115.609863 C217.067385,116.054201 217.594235,116.276367 218.254395,116.276367 C218.927249,116.276367 219.444578,116.058433 219.806396,115.622559 C220.168215,115.186684 220.349121,114.566736 220.349121,113.762695 C220.349121,112.950191 220.168215,112.323895 219.806396,111.883789 C219.444578,111.443683 218.927249,111.223633 218.254395,111.223633 Z M226.290527,108.291016 C226.087401,108.176757 225.856772,108.119629 225.598633,108.119629 C224.870765,108.119629 224.506836,108.578771 224.506836,109.49707 L224.506836,110.5 L226.030273,110.5 L226.030273,111.388672 L224.506836,111.388672 L224.506836,117 L223.472168,117 L223.472168,111.388672 L222.361328,111.388672 L222.361328,110.5 L223.472168,110.5 L223.472168,109.446289 C223.472168,108.764971 223.668943,108.226483 224.0625,107.830811 C224.456057,107.435138 224.946937,107.237305 225.535156,107.237305 C225.852541,107.237305 226.104328,107.27539 226.290527,107.351562 L226.290527,108.291016 Z M230.162598,116.936523 C229.917154,117.071941 229.593426,117.139648 229.191406,117.139648 C228.053054,117.139648 227.483887,116.504889 227.483887,115.235352 L227.483887,111.388672 L226.366699,111.388672 L226.366699,110.5 L227.483887,110.5 L227.483887,108.913086 L228.524902,108.57666 L228.524902,110.5 L230.162598,110.5 L230.162598,111.388672 L228.524902,111.388672 L228.524902,115.05127 C228.524902,115.487144 228.598958,115.798176 228.74707,115.984375 C228.895183,116.170574 229.140623,116.263672 229.483398,116.263672 C229.74577,116.263672 229.972167,116.191732 230.162598,116.047852 L230.162598,116.936523 Z M239.741211,110.5 L237.79248,117 L236.713379,117 L235.374023,112.347168 C235.323242,112.169433 235.289388,111.968426 235.272461,111.744141 L235.24707,111.744141 C235.234375,111.896485 235.189942,112.093261 235.11377,112.334473 L233.660156,117 L232.619141,117 L230.651367,110.5 L231.743164,110.5 L233.088867,115.387695 C233.131185,115.535808 233.160807,115.730468 233.177734,115.97168 L233.228516,115.97168 C233.241211,115.785481 233.279297,115.58659 233.342773,115.375 L234.84082,110.5 L235.792969,110.5 L237.138672,115.400391 C237.18099,115.556967 237.212728,115.751626 237.233887,115.984375 L237.284668,115.984375 C237.293132,115.819335 237.329101,115.624676 237.392578,115.400391 L238.712891,110.5 L239.741211,110.5 Z M245.600098,117 L244.559082,117 L244.559082,115.984375 L244.533691,115.984375 C244.08089,116.763025 243.414392,117.152344 242.53418,117.152344 C241.886716,117.152344 241.379966,116.980959 241.013916,116.638184 C240.647866,116.295408 240.464844,115.840498 240.464844,115.273438 C240.464844,114.058913 241.180006,113.352215 242.610352,113.15332 L244.559082,112.880371 C244.559082,111.775873 244.112635,111.223633 243.219727,111.223633 C242.436845,111.223633 241.730146,111.490232 241.099609,112.023438 L241.099609,110.957031 C241.73861,110.550779 242.474931,110.347656 243.308594,110.347656 C244.836271,110.347656 245.600098,111.155916 245.600098,112.772461 L245.600098,117 Z M244.559082,113.711914 L242.991211,113.927734 C242.508787,113.995443 242.144858,114.114989 241.899414,114.286377 C241.65397,114.457765 241.53125,114.761391 241.53125,115.197266 C241.53125,115.51465 241.644449,115.773843 241.87085,115.974854 C242.09725,116.175864 242.398761,116.276367 242.775391,116.276367 C243.291669,116.276367 243.718016,116.095461 244.054443,115.733643 C244.390871,115.371824 244.559082,114.91374 244.559082,114.359375 L244.559082,113.711914 Z M250.951172,111.553711 C250.769205,111.414062 250.506838,111.344238 250.164062,111.344238 C249.719724,111.344238 249.34839,111.553709 249.050049,111.972656 C248.751707,112.391604 248.602539,112.962887 248.602539,113.686523 L248.602539,117 L247.561523,117 L247.561523,110.5 L248.602539,110.5 L248.602539,111.839355 L248.62793,111.839355 C248.776042,111.382322 249.00244,111.025799 249.307129,110.769775 C249.611818,110.513752 249.952472,110.385742 250.329102,110.385742 C250.599936,110.385742 250.807291,110.415364 250.951172,110.474609 L250.951172,111.553711 Z M257.305176,114.010254 L252.71582,114.010254 C252.732747,114.73389 252.927407,115.292479 253.299805,115.686035 C253.672202,116.079592 254.184242,116.276367 254.835938,116.276367 C255.568038,116.276367 256.240882,116.035159 256.854492,115.552734 L256.854492,116.530273 C256.2832,116.944989 255.527837,117.152344 254.588379,117.152344 C253.67008,117.152344 252.94857,116.857181 252.423828,116.266846 C251.899086,115.676511 251.636719,114.846034 251.636719,113.775391 C251.636719,112.763992 251.923418,111.939863 252.496826,111.302979 C253.070234,110.666094 253.782222,110.347656 254.632812,110.347656 C255.483403,110.347656 256.141436,110.622719 256.606934,111.172852 C257.072431,111.722985 257.305176,112.486812 257.305176,113.464355 L257.305176,114.010254 Z M256.23877,113.12793 C256.234538,112.527015 256.089601,112.059409 255.803955,111.725098 C255.518309,111.390786 255.121585,111.223633 254.61377,111.223633 C254.122882,111.223633 253.706056,111.39925 253.363281,111.750488 C253.020506,112.101727 252.80892,112.56087 252.728516,113.12793 L256.23877,113.12793 Z"/>
    <use fill="#0C0C0D" fill-opacity=".1" xlink:href="#checkbox-combination-nested-a"/>
    <rect width="19" height="19" x="55.5" y="102.5" rx="2"/>
    <rect width="15" height="15" x="57.5" y="104.5" stroke="#0C0C0D" stroke-opacity=".3" rx="2"/>
  </g>
</svg>
