<?xml version="1.0" encoding="utf-8"?>
<!-- Generator: Adobe Illustrator 22.0.1, SVG Export Plug-In . SVG Version: 6.00 Build 0)  -->
<svg version="1.1"
	 id="svg1384" sodipodi:docbase="/tmp" sodipodi:docname="gimp-original.svg" sodipodi:version="0.32" xmlns:cc="http://web.resource.org/cc/" xmlns:dc="http://purl.org/dc/elements/1.1/" xmlns:rdf="http://www.w3.org/1999/02/22-rdf-syntax-ns#" xmlns:sodipodi="http://inkscape.sourceforge.net/DTD/sodipodi-0.dtd"
	 xmlns="http://www.w3.org/2000/svg" xmlns:xlink="http://www.w3.org/1999/xlink" x="0px" y="0px" viewBox="0 0 360 240"
	 style="enable-background:new 0 0 360 240;" xml:space="preserve">
<style type="text/css">
	.st0{fill:url(#path10318_1_);}
	.st1{fill:url(#path11219_1_);fill-opacity:0.4324;}
	.st2{fill:url(#rect1411_1_);}
	.st3{fill:url(#path2287_1_);}
	.st4{fill:url(#path2290_1_);}
	.st5{fill:url(#path2292_1_);}
	.st6{fill:url(#path2294_1_);}
	.st7{fill:url(#path2296_1_);}
	.st8{fill:url(#rect2298_1_);}
	.st9{fill:url(#path2301_1_);}
	.st10{fill:url(#path3240_1_);}
	.st11{fill:url(#rect9397_1_);}
	.st12{fill:url(#path9400_1_);}
	.st13{fill:url(#path9402_1_);}
</style>
<g>
	<sodipodi:namedview  bordercolor="#666666" borderopacity="1.0" id="base" pagecolor="#ffffff"></sodipodi:namedview>
	<g id="g11249" transform="translate(-130.87 -195.87)">
		
			<radialGradient id="path10318_1_" cx="132.0135" cy="373.5599" r="78.8922" gradientTransform="matrix(2.265100e-03 0.4568 0.9632 -4.786100e-03 -57.2598 278.6994)" gradientUnits="userSpaceOnUse">
			<stop  offset="0" style="stop-color:#000000"/>
			<stop  offset="1" style="stop-color:#FFFFFF;stop-opacity:0"/>
		</radialGradient>
		
			<path id="path10318" sodipodi:cx="409.37231" sodipodi:cy="498.49088" sodipodi:rx="236.76941" sodipodi:ry="131.06879" sodipodi:type="arc" class="st0" d="
			M384.1,330.5c0,24.1-35.3,43.7-78.9,43.7s-78.9-19.6-78.9-43.7c0,0,0,0,0,0c0-24.1,35.3-43.7,78.9-43.7S384.1,306.4,384.1,330.5
			C384.1,330.5,384.1,330.5,384.1,330.5z"/>
		
			<radialGradient id="path11219_1_" cx="-72.3326" cy="359.6097" r="30.2364" gradientTransform="matrix(1.6756 0.338 0.116 -0.5752 427.1674 580.4655)" gradientUnits="userSpaceOnUse">
			<stop  offset="0" style="stop-color:#000000"/>
			<stop  offset="1" style="stop-color:#FFFFFF;stop-opacity:0"/>
		</radialGradient>
		
			<path id="path11219" sodipodi:cx="47.482918" sodipodi:cy="486.26025" sodipodi:rx="145.74088" sodipodi:ry="67.769081" sodipodi:type="arc" class="st1" d="
			M395.1,361.8c-2.7,12.2-26,17.4-52.3,11.7c-26.2-5.7-45.3-20.2-42.6-32.4c2.7-12.2,26-17.4,52.3-11.7
			C378.7,335.1,397.8,349.6,395.1,361.8L395.1,361.8z"/>
		<g id="g8513">
			
				<linearGradient id="rect1411_1_" gradientUnits="userSpaceOnUse" x1="407.9588" y1="302.0115" x2="466.609" y2="274.8188" gradientTransform="matrix(1 0 0 -1 -130.87 585.87)">
				<stop  offset="0" style="stop-color:#858585"/>
				<stop  offset="1" style="stop-color:#424242"/>
			</linearGradient>
			<path id="rect1411" sodipodi:nodetypes="cccccccc" class="st2" d="M257.2,260.4c40.2,55.5,91,32.6,103.1-4.6
				c3.3,39.7-1.6,37.4-16.1,52.1c-1.3,10.3-1.8,10-8.8,25c-20.4,34.5-93.7,9.6-100.2-9.4l7.3-17c12.4-0.4,23.2-1.8,35.9-2.9
				C264.6,288.1,262.1,278.4,257.2,260.4L257.2,260.4z"/>
			
				<radialGradient id="path2287_1_" cx="635.158" cy="-98.4767" r="13.5946" gradientTransform="matrix(0.4742 -0.2412 -0.2102 -0.4138 -79.8269 420.4333)" gradientUnits="userSpaceOnUse">
				<stop  offset="0" style="stop-color:#F8F8F8"/>
				<stop  offset="1" style="stop-color:#000000"/>
			</radialGradient>
			<path id="path2287" sodipodi:nodetypes="cssss" class="st3" d="M258.6,311.9c4.9,8.8,2.7,18.1-6.6,22.2
				c-7.2,3.2-15.6-2.7-19.2-12.1c-3.6-9.4-1.2-19.2,6.1-22.1C246.3,297.1,254.2,304,258.6,311.9z"/>
			
				<radialGradient id="path2290_1_" cx="380.7417" cy="279.2491" r="10.111" gradientTransform="matrix(1.0656 0 0 -1.0984 -136.6925 612.6993)" gradientUnits="userSpaceOnUse">
				<stop  offset="0" style="stop-color:#FEFEFE"/>
				<stop  offset="1" style="stop-color:#E2E2E2"/>
			</radialGradient>
			
				<path id="path2290" sodipodi:cx="273.82681" sodipodi:cy="361.45312" sodipodi:rx="30.342299" sodipodi:ry="31.585835" sodipodi:type="arc" class="st4" d="
				M279.8,306c0,6.1-4.8,11.1-10.8,11.1c-6,0-10.8-5-10.8-11.1l0,0c0-6.1,4.8-11.1,10.8-11.1C275,294.9,279.8,299.9,279.8,306z"/>
			
				<radialGradient id="path2292_1_" cx="275.5723" cy="82.9585" r="10.11" gradientTransform="matrix(0.6926 -0.7042 -0.697 -0.6855 162.0394 562.6566)" gradientUnits="userSpaceOnUse">
				<stop  offset="0" style="stop-color:#FEFEFE"/>
				<stop  offset="1" style="stop-color:#E2E2E2"/>
			</radialGradient>
			
				<path id="path2292" sodipodi:cx="273.82681" sodipodi:cy="361.45312" sodipodi:rx="30.342299" sodipodi:ry="31.585835" sodipodi:type="arc" class="st5" d="
				M307,309.4c0,7.5-6,13.5-13.3,13.5c-7.3,0-13.3-6-13.3-13.5l0,0c0-7.5,6-13.5,13.3-13.5C301,295.9,307,301.9,307,309.4z"/>
			
				<radialGradient id="path2294_1_" cx="401.2764" cy="278.4517" r="4.7465" gradientTransform="matrix(1 0 0 -1.1481 -130.87 627.0624)" gradientUnits="userSpaceOnUse">
				<stop  offset="0" style="stop-color:#F8F8F8"/>
				<stop  offset="1" style="stop-color:#000000"/>
			</radialGradient>
			
				<path id="path2294" sodipodi:cx="281.20441" sodipodi:cy="368.60815" sodipodi:rx="14.244876" sodipodi:ry="16.355227" sodipodi:type="arc" class="st6" d="
				M276.6,308.8c0,3-2.1,5.5-4.7,5.5c-2.6,0-4.7-2.4-4.8-5.4c0,0,0,0,0,0c0-3,2.1-5.5,4.7-5.5S276.6,305.8,276.6,308.8
				C276.6,308.8,276.6,308.8,276.6,308.8z"/>
			
				<radialGradient id="path2296_1_" cx="418.2114" cy="273.2403" r="5.5082" gradientTransform="matrix(1.0319 0 0 -1.1702 -136.4178 630.4681)" gradientUnits="userSpaceOnUse">
				<stop  offset="0" style="stop-color:#F8F8F8"/>
				<stop  offset="1" style="stop-color:#000000"/>
			</radialGradient>
			
				<path id="path2296" sodipodi:cx="357.35294" sodipodi:cy="380.74268" sodipodi:rx="16.53109" sodipodi:ry="18.641443" sodipodi:type="arc" class="st7" d="
				M302.7,312.6c0,3.6-2.5,6.5-5.6,6.5c-3.1,0-5.7-2.8-5.7-6.4c0,0,0-0.1,0-0.1c0-3.6,2.5-6.5,5.6-6.5s5.7,2.8,5.7,6.4
				C302.7,312.5,302.7,312.5,302.7,312.6z"/>
			
				<linearGradient id="rect2298_1_" gradientUnits="userSpaceOnUse" x1="417.5421" y1="249.8741" x2="421.4206" y2="240.9676" gradientTransform="matrix(1 0 0 -1 -130.87 585.87)">
				<stop  offset="0" style="stop-color:#3E3E3E"/>
				<stop  offset="1" style="stop-color:#878787"/>
			</linearGradient>
			<path id="rect2298" sodipodi:nodetypes="ccsc" class="st8" d="M256.5,341.2c28.8-0.9,41.4-1.4,56.8-18.4
				c0.1,14.4-6.6,23.3-14.1,24.5C286,349.5,271.9,347.1,256.5,341.2L256.5,341.2z"/>
			
				<linearGradient id="path2301_1_" gradientUnits="userSpaceOnUse" x1="473.8579" y1="294.6151" x2="466.6374" y2="307.2735" gradientTransform="matrix(1 0 0 -1 -130.87 585.87)">
				<stop  offset="0" style="stop-color:#424242"/>
				<stop  offset="1" style="stop-color:#777777"/>
			</linearGradient>
			<path id="path2301" sodipodi:nodetypes="cczc" class="st9" d="M306.9,293.6c14.2-0.3,36.1-0.7,53.4-37.7
				c-6,37.6-22,41.4-29.4,42.5C323.3,299.6,311.8,296.1,306.9,293.6L306.9,293.6z"/>
			
				<linearGradient id="path3240_1_" gradientUnits="userSpaceOnUse" x1="344.88" y1="127.5659" x2="340.0319" y2="145.2023" gradientTransform="matrix(0.9604 -0.3702 -0.3685 -0.965 -32.3629 576.853)">
				<stop  offset="0" style="stop-color:#808080"/>
				<stop  offset="1" style="stop-color:#000000;stop-opacity:0"/>
			</linearGradient>
			<path id="path3240" sodipodi:nodetypes="csss" class="st10" d="M258.7,311.9c4.9,8.7,2.7,18.1-6.6,22.3
				c-7.2,3.2-15.6-2.7-19.2-12.1C229.2,312.6,254.3,304.1,258.7,311.9z"/>
		</g>
		<g id="g10307" transform="translate(381.27 -64.717)">
			
				<linearGradient id="rect9397_1_" gradientUnits="userSpaceOnUse" x1="-323.4353" y1="252.7036" x2="-304.3058" y2="249.1883" gradientTransform="matrix(1 0 0 -1 250.4 650.587)">
				<stop  offset="0" style="stop-color:#454545"/>
				<stop  offset="1" style="stop-color:#9F9F9F"/>
			</linearGradient>
			<path id="rect9397" sodipodi:nodetypes="ccccc" class="st11" d="M-78.3,396.8l32,1.3l-2.2,8.9l-33.8-7.9
				C-80.6,398.5-79.5,397.7-78.3,396.8z"/>
			
				<linearGradient id="path9400_1_" gradientUnits="userSpaceOnUse" x1="-288.8494" y1="250.8961" x2="-289.4025" y2="244.8019" gradientTransform="matrix(1 0 0 -1 250.4 650.587)">
				<stop  offset="0" style="stop-color:#E0E0E0"/>
				<stop  offset="1" style="stop-color:#828282"/>
			</linearGradient>
			<path id="path9400" sodipodi:nodetypes="ccccc" class="st12" d="M-29.4,400.4l-16.9-2.2l-2.2,8.9l18.5-0.1L-29.4,400.4z"/>
			
				<linearGradient id="path9402_1_" gradientUnits="userSpaceOnUse" x1="-275.3323" y1="246.5251" x2="-259.1587" y2="241.837" gradientTransform="matrix(1 0 0 -1 250.4 650.587)">
				<stop  offset="0" style="stop-color:#000000"/>
				<stop  offset="1" style="stop-color:#828282"/>
			</linearGradient>
			<path id="path9402" sodipodi:nodetypes="czcc" class="st13" d="M-25.3,397.6c-3.6,0.1-5.7,4-5.8,6.9c-0.1,2.8,7.3,13.2,30.1,3.1
				C-9.6,404.6-21.3,397.4-25.3,397.6z"/>
		</g>
	</g>
</g>
</svg>
