<svg xmlns="http://www.w3.org/2000/svg" xmlns:xlink="http://www.w3.org/1999/xlink" width="301" height="180" style="background:#f9f9fa" viewBox="0 0 301 180">
  <defs>
    <rect id="inactive-do-a" width="16" height="16" x="13" y="71" rx="2"/>
    <rect id="inactive-do-b" width="16" height="16" x="37" y="94" rx="2"/>
  </defs>
  <g fill="none" fill-rule="evenodd">
    <use fill="#FFF" xlink:href="#inactive-do-a"/>
    <rect width="15" height="15" x="13.5" y="71.5" stroke="#D7D7DB" rx="2"/>
    <path fill="#0C0C0D" d="M37.8886719,74.840332 L41.1577148,74.840332 C42.8779297,74.840332 44.090332,76.0463867 44.090332,77.7792969 C44.090332,79.5185547 42.8652344,80.730957 41.1450195,80.730957 L39.03125,80.730957 L39.03125,84 L37.8886719,84 L37.8886719,74.840332 Z M39.03125,75.855957 L39.03125,79.715332 L40.859375,79.715332 C42.1669922,79.715332 42.9160156,78.9980469 42.9160156,77.7792969 C42.9160156,76.5668945 42.1733398,75.855957 40.859375,75.855957 L39.03125,75.855957 Z M45.2265625,84 L46.3310547,84 L46.3310547,79.8867188 C46.3310547,78.9536133 46.8896484,78.3378906 47.746582,78.3378906 C48.0131836,78.3378906 48.2480469,78.3696289 48.3369141,78.4013672 L48.3369141,77.3286133 C48.2480469,77.315918 48.0830078,77.2841797 47.8925781,77.2841797 C47.1181641,77.2841797 46.5087891,77.7475586 46.2929688,78.4775391 L46.2675781,78.4775391 L46.2675781,77.3984375 L45.2265625,77.3984375 L45.2265625,84 Z M51.6503906,84.1142578 C49.8222656,84.1142578 48.5908203,82.800293 48.5908203,80.6992188 C48.5908203,78.5917969 49.8222656,77.2841797 51.6503906,77.2841797 C53.472168,77.2841797 54.7036133,78.5917969 54.7036133,80.6992188 C54.7036133,82.800293 53.472168,84.1142578 51.6503906,84.1142578 Z M51.6503906,83.1430664 C52.8183594,83.1430664 53.5800781,82.2543945 53.5800781,80.6992188 C53.5800781,79.144043 52.8183594,78.2553711 51.6503906,78.2553711 C50.4824219,78.2553711 49.7143555,79.144043 49.7143555,80.6992188 C49.7143555,82.2543945 50.4824219,83.1430664 51.6503906,83.1430664 Z M61.0385742,77.3984375 L59.8896484,77.3984375 L58.0615234,82.8256836 L58.0361328,82.8256836 L56.2143555,77.3984375 L55.0527344,77.3984375 L57.4838867,84 L58.6137695,84 L61.0385742,77.3984375 Z M61.9589844,84 L63.0634766,84 L63.0634766,77.3984375 L61.9589844,77.3984375 L61.9589844,84 Z M62.5112305,76.2875977 C62.8920898,76.2875977 63.203125,75.9765625 63.203125,75.6020508 C63.203125,75.2211914 62.8920898,74.9165039 62.5112305,74.9165039 C62.1367188,74.9165039 61.8256836,75.2211914 61.8256836,75.6020508 C61.8256836,75.9765625 62.1367188,76.2875977 62.5112305,76.2875977 Z M67.0561523,84.1142578 C65.3740234,84.1142578 64.2314453,82.7685547 64.2314453,80.6992188 C64.2314453,78.6298828 65.3676758,77.2841797 67.0307617,77.2841797 C67.9765625,77.2841797 68.7382812,77.7475586 69.1318359,78.4711914 L69.1572266,78.4711914 L69.1572266,74.840332 L70.2617188,74.840332 L70.2617188,84 L69.2080078,84 L69.2080078,82.8828125 L69.1889648,82.8828125 C68.7636719,83.6445312 68.0083008,84.1142578 67.0561523,84.1142578 Z M67.265625,78.2553711 C66.0976562,78.2553711 65.3613281,79.2075195 65.3613281,80.6992188 C65.3613281,82.1972656 66.0976562,83.1430664 67.265625,83.1430664 C68.4018555,83.1430664 69.1635742,82.1782227 69.1635742,80.6992188 C69.1635742,79.2265625 68.4018555,78.2553711 67.265625,78.2553711 Z M74.4003906,78.2426758 C73.3657227,78.2426758 72.6420898,79.0361328 72.5722656,80.1342773 L76.1586914,80.1342773 C76.1333008,79.0297852 75.4414062,78.2426758 74.4003906,78.2426758 Z M76.1333008,82.1083984 L77.21875,82.1083984 C77.0283203,83.2636719 75.9111328,84.1142578 74.4702148,84.1142578 C72.5786133,84.1142578 71.4296875,82.800293 71.4296875,80.7246094 C71.4296875,78.6743164 72.5976562,77.2841797 74.4194336,77.2841797 C76.203125,77.2841797 77.3012695,78.5791016 77.3012695,80.5786133 L77.3012695,80.9975586 L72.565918,80.9975586 L72.565918,81.0610352 C72.565918,82.3242188 73.3085938,83.1557617 74.4956055,83.1557617 C75.3334961,83.1557617 75.9492188,82.7304688 76.1333008,82.1083984 Z M80.9638672,79.2202148 C80.9638672,80.121582 81.5351562,80.7182617 82.6967773,81.0166016 L83.8583984,81.3149414 C84.6010742,81.5117188 84.8740234,81.765625 84.8740234,82.2353516 C84.8740234,82.8320312 84.3217773,83.2128906 83.4267578,83.2128906 C82.5317383,83.2128906 82.0112305,82.8447266 81.890625,82.1591797 L80.7861328,82.1591797 C80.9003906,83.3271484 81.909668,84.1142578 83.3569336,84.1142578 C84.8994141,84.1142578 85.9848633,83.3017578 85.9848633,82.152832 C85.9848633,81.1816406 85.5024414,80.6992188 84.1694336,80.362793 L83.1474609,80.1152344 C82.3984375,79.9248047 82.0493164,79.6201172 82.0493164,79.1630859 C82.0493164,78.5854492 82.5825195,78.1855469 83.3886719,78.1855469 C84.2011719,78.1855469 84.715332,78.5791016 84.7915039,79.2138672 L85.8452148,79.2138672 C85.7944336,78.0966797 84.7915039,77.2841797 83.4267578,77.2841797 C81.9731445,77.2841797 80.9638672,78.090332 80.9638672,79.2202148 Z M89.7744141,78.2426758 C88.7397461,78.2426758 88.0161133,79.0361328 87.9462891,80.1342773 L91.5327148,80.1342773 C91.5073242,79.0297852 90.8154297,78.2426758 89.7744141,78.2426758 Z M91.5073242,82.1083984 L92.5927734,82.1083984 C92.4023438,83.2636719 91.2851562,84.1142578 89.8442383,84.1142578 C87.9526367,84.1142578 86.8037109,82.800293 86.8037109,80.7246094 C86.8037109,78.6743164 87.9716797,77.2841797 89.793457,77.2841797 C91.5771484,77.2841797 92.675293,78.5791016 92.675293,80.5786133 L92.675293,80.9975586 L87.9399414,80.9975586 L87.9399414,81.0610352 C87.9399414,82.3242188 88.6826172,83.1557617 89.8696289,83.1557617 C90.7075195,83.1557617 91.3232422,82.7304688 91.5073242,82.1083984 Z M95.9633789,83.1748047 C97.0043945,83.1748047 97.8041992,82.4448242 97.8041992,81.4926758 L97.8041992,80.953125 L96.0395508,81.0610352 C95.1508789,81.1181641 94.6430664,81.5117188 94.6430664,82.1337891 C94.6430664,82.762207 95.1699219,83.1748047 95.9633789,83.1748047 Z M95.7158203,84.1142578 C94.4018555,84.1142578 93.5195312,83.3208008 93.5195312,82.1337891 C93.5195312,81.0039062 94.3891602,80.2929688 95.9125977,80.2041016 L97.8041992,80.0961914 L97.8041992,79.5439453 C97.8041992,78.737793 97.2709961,78.2553711 96.3569336,78.2553711 C95.5063477,78.2553711 94.9731445,78.6552734 94.8334961,79.3027344 L93.7670898,79.3027344 C93.8432617,78.1601562 94.8208008,77.2841797 96.3823242,77.2841797 C97.9311523,77.2841797 98.9086914,78.1220703 98.9086914,79.4360352 L98.9086914,84 L97.8613281,84 L97.8613281,82.8637695 L97.8359375,82.8637695 C97.4423828,83.6191406 96.6044922,84.1142578 95.7158203,84.1142578 Z M100.311523,84 L101.416016,84 L101.416016,79.8867188 C101.416016,78.9536133 101.974609,78.3378906 102.831543,78.3378906 C103.098145,78.3378906 103.333008,78.3696289 103.421875,78.4013672 L103.421875,77.3286133 C103.333008,77.315918 103.167969,77.2841797 102.977539,77.2841797 C102.203125,77.2841797 101.59375,77.7475586 101.37793,78.4775391 L101.352539,78.4775391 L101.352539,77.3984375 L100.311523,77.3984375 L100.311523,84 Z M109.483887,79.5629883 C109.344238,78.3759766 108.360352,77.2841797 106.709961,77.2841797 C104.888184,77.2841797 103.675781,78.6171875 103.675781,80.6992188 C103.675781,82.8256836 104.894531,84.1142578 106.722656,84.1142578 C108.220703,84.1142578 109.325195,83.1875 109.496582,81.8735352 L108.411133,81.8735352 C108.220703,82.6669922 107.630371,83.1430664 106.729004,83.1430664 C105.586426,83.1430664 104.799316,82.2353516 104.799316,80.6992188 C104.799316,79.2011719 105.57373,78.2553711 106.716309,78.2553711 C107.6875,78.2553711 108.246094,78.8457031 108.404785,79.5629883 L109.483887,79.5629883 Z M110.569336,84 L111.673828,84 L111.673828,80.1533203 C111.673828,79.0107422 112.353027,78.2617188 113.451172,78.2617188 C114.48584,78.2617188 115.012695,78.8901367 115.012695,79.9375 L115.012695,84 L116.117188,84 L116.117188,79.734375 C116.117188,78.2617188 115.241211,77.2841797 113.793945,77.2841797 C112.791016,77.2841797 112.067383,77.7158203 111.699219,78.4521484 L111.673828,78.4521484 L111.673828,74.840332 L110.569336,74.840332 L110.569336,84 Z M120.071777,79.2202148 C120.071777,80.121582 120.643066,80.7182617 121.804688,81.0166016 L122.966309,81.3149414 C123.708984,81.5117188 123.981934,81.765625 123.981934,82.2353516 C123.981934,82.8320312 123.429688,83.2128906 122.534668,83.2128906 C121.639648,83.2128906 121.119141,82.8447266 120.998535,82.1591797 L119.894043,82.1591797 C120.008301,83.3271484 121.017578,84.1142578 122.464844,84.1142578 C124.007324,84.1142578 125.092773,83.3017578 125.092773,82.152832 C125.092773,81.1816406 124.610352,80.6992188 123.277344,80.362793 L122.255371,80.1152344 C121.506348,79.9248047 121.157227,79.6201172 121.157227,79.1630859 C121.157227,78.5854492 121.69043,78.1855469 122.496582,78.1855469 C123.309082,78.1855469 123.823242,78.5791016 123.899414,79.2138672 L124.953125,79.2138672 C124.902344,78.0966797 123.899414,77.2841797 122.534668,77.2841797 C121.081055,77.2841797 120.071777,78.090332 120.071777,79.2202148 Z M131.65625,77.3984375 L130.551758,77.3984375 L130.551758,81.2768555 C130.551758,82.4003906 129.904297,83.1367188 128.831543,83.1367188 C127.80957,83.1367188 127.308105,82.559082 127.308105,81.4863281 L127.308105,77.3984375 L126.203613,77.3984375 L126.203613,81.6831055 C126.203613,83.1811523 127.047852,84.1142578 128.48877,84.1142578 C129.504395,84.1142578 130.189941,83.6889648 130.583496,82.9272461 L130.608887,82.9272461 L130.608887,84 L131.65625,84 L131.65625,77.3984375 Z M135.769531,83.0795898 C136.918457,83.0795898 137.686523,82.1274414 137.686523,80.6738281 C137.686523,79.2202148 136.918457,78.2553711 135.769531,78.2553711 C134.633301,78.2553711 133.890625,79.1948242 133.890625,80.6738281 C133.890625,82.152832 134.633301,83.0795898 135.769531,83.0795898 Z M135.807617,86.4882812 C134.354004,86.4882812 133.205078,85.6694336 133.020996,84.5458984 L134.157227,84.5458984 C134.373047,85.1489258 135.026855,85.5488281 135.852051,85.5488281 C136.994629,85.5488281 137.686523,84.8886719 137.686523,83.9047852 L137.686523,82.8637695 L137.661133,82.8637695 C137.254883,83.5810547 136.474121,84.0507812 135.547363,84.0507812 C133.865234,84.0507812 132.760742,82.7241211 132.760742,80.6738281 C132.760742,78.6044922 133.865234,77.2841797 135.572754,77.2841797 C136.505859,77.2841797 137.280273,77.7412109 137.718262,78.5092773 L137.737305,78.5092773 L137.737305,77.3984375 L138.791016,77.3984375 L138.791016,83.8666992 C138.791016,85.440918 137.629395,86.4882812 135.807617,86.4882812 Z M142.910645,83.0795898 C144.05957,83.0795898 144.827637,82.1274414 144.827637,80.6738281 C144.827637,79.2202148 144.05957,78.2553711 142.910645,78.2553711 C141.774414,78.2553711 141.031738,79.1948242 141.031738,80.6738281 C141.031738,82.152832 141.774414,83.0795898 142.910645,83.0795898 Z M142.94873,86.4882812 C141.495117,86.4882812 140.346191,85.6694336 140.162109,84.5458984 L141.29834,84.5458984 C141.51416,85.1489258 142.167969,85.5488281 142.993164,85.5488281 C144.135742,85.5488281 144.827637,84.8886719 144.827637,83.9047852 L144.827637,82.8637695 L144.802246,82.8637695 C144.395996,83.5810547 143.615234,84.0507812 142.688477,84.0507812 C141.006348,84.0507812 139.901855,82.7241211 139.901855,80.6738281 C139.901855,78.6044922 141.006348,77.2841797 142.713867,77.2841797 C143.646973,77.2841797 144.421387,77.7412109 144.859375,78.5092773 L144.878418,78.5092773 L144.878418,77.3984375 L145.932129,77.3984375 L145.932129,83.8666992 C145.932129,85.440918 144.770508,86.4882812 142.94873,86.4882812 Z M150.013672,78.2426758 C148.979004,78.2426758 148.255371,79.0361328 148.185547,80.1342773 L151.771973,80.1342773 C151.746582,79.0297852 151.054688,78.2426758 150.013672,78.2426758 Z M151.746582,82.1083984 L152.832031,82.1083984 C152.641602,83.2636719 151.524414,84.1142578 150.083496,84.1142578 C148.191895,84.1142578 147.042969,82.800293 147.042969,80.7246094 C147.042969,78.6743164 148.210938,77.2841797 150.032715,77.2841797 C151.816406,77.2841797 152.914551,78.5791016 152.914551,80.5786133 L152.914551,80.9975586 L148.179199,80.9975586 L148.179199,81.0610352 C148.179199,82.3242188 148.921875,83.1557617 150.108887,83.1557617 C150.946777,83.1557617 151.5625,82.7304688 151.746582,82.1083984 Z M153.911133,79.2202148 C153.911133,80.121582 154.482422,80.7182617 155.644043,81.0166016 L156.805664,81.3149414 C157.54834,81.5117188 157.821289,81.765625 157.821289,82.2353516 C157.821289,82.8320312 157.269043,83.2128906 156.374023,83.2128906 C155.479004,83.2128906 154.958496,82.8447266 154.837891,82.1591797 L153.733398,82.1591797 C153.847656,83.3271484 154.856934,84.1142578 156.304199,84.1142578 C157.84668,84.1142578 158.932129,83.3017578 158.932129,82.152832 C158.932129,81.1816406 158.449707,80.6992188 157.116699,80.362793 L156.094727,80.1152344 C155.345703,79.9248047 154.996582,79.6201172 154.996582,79.1630859 C154.996582,78.5854492 155.529785,78.1855469 156.335938,78.1855469 C157.148438,78.1855469 157.662598,78.5791016 157.73877,79.2138672 L158.79248,79.2138672 C158.741699,78.0966797 157.73877,77.2841797 156.374023,77.2841797 C154.92041,77.2841797 153.911133,78.090332 153.911133,79.2202148 Z M160.430176,75.8051758 L160.430176,77.3984375 L159.446289,77.3984375 L159.446289,78.3061523 L160.430176,78.3061523 L160.430176,82.2861328 C160.430176,83.5556641 160.899902,84.0507812 162.112305,84.0507812 C162.372559,84.0507812 162.677246,84.0317383 162.810547,84 L162.810547,83.0732422 C162.734375,83.0859375 162.480469,83.1049805 162.353516,83.1049805 C161.788574,83.1049805 161.534668,82.8320312 161.534668,82.2290039 L161.534668,78.3061523 L162.816895,78.3061523 L162.816895,77.3984375 L161.534668,77.3984375 L161.534668,75.8051758 L160.430176,75.8051758 Z M164.04834,84 L165.152832,84 L165.152832,77.3984375 L164.04834,77.3984375 L164.04834,84 Z M164.600586,76.2875977 C164.981445,76.2875977 165.29248,75.9765625 165.29248,75.6020508 C165.29248,75.2211914 164.981445,74.9165039 164.600586,74.9165039 C164.226074,74.9165039 163.915039,75.2211914 163.915039,75.6020508 C163.915039,75.9765625 164.226074,76.2875977 164.600586,76.2875977 Z M169.380371,84.1142578 C167.552246,84.1142578 166.320801,82.800293 166.320801,80.6992188 C166.320801,78.5917969 167.552246,77.2841797 169.380371,77.2841797 C171.202148,77.2841797 172.433594,78.5917969 172.433594,80.6992188 C172.433594,82.800293 171.202148,84.1142578 169.380371,84.1142578 Z M169.380371,83.1430664 C170.54834,83.1430664 171.310059,82.2543945 171.310059,80.6992188 C171.310059,79.144043 170.54834,78.2553711 169.380371,78.2553711 C168.212402,78.2553711 167.444336,79.144043 167.444336,80.6992188 C167.444336,82.2543945 168.212402,83.1430664 169.380371,83.1430664 Z M173.544434,84 L174.648926,84 L174.648926,80.1152344 C174.648926,78.9980469 175.328125,78.2617188 176.369141,78.2617188 C177.384766,78.2617188 177.88623,78.8457031 177.88623,79.9121094 L177.88623,84 L178.990723,84 L178.990723,79.715332 C178.990723,78.2172852 178.152832,77.2841797 176.705566,77.2841797 C175.683594,77.2841797 174.979004,77.7412109 174.61084,78.4521484 L174.585449,78.4521484 L174.585449,77.3984375 L173.544434,77.3984375 L173.544434,84 Z M180.279297,79.2202148 C180.279297,80.121582 180.850586,80.7182617 182.012207,81.0166016 L183.173828,81.3149414 C183.916504,81.5117188 184.189453,81.765625 184.189453,82.2353516 C184.189453,82.8320312 183.637207,83.2128906 182.742188,83.2128906 C181.847168,83.2128906 181.32666,82.8447266 181.206055,82.1591797 L180.101562,82.1591797 C180.21582,83.3271484 181.225098,84.1142578 182.672363,84.1142578 C184.214844,84.1142578 185.300293,83.3017578 185.300293,82.152832 C185.300293,81.1816406 184.817871,80.6992188 183.484863,80.362793 L182.462891,80.1152344 C181.713867,79.9248047 181.364746,79.6201172 181.364746,79.1630859 C181.364746,78.5854492 181.897949,78.1855469 182.704102,78.1855469 C183.516602,78.1855469 184.030762,78.5791016 184.106934,79.2138672 L185.160645,79.2138672 C185.109863,78.0966797 184.106934,77.2841797 182.742188,77.2841797 C181.288574,77.2841797 180.279297,78.090332 180.279297,79.2202148 Z"/>
    <g opacity=".4">
      <use fill="#FFF" xlink:href="#inactive-do-b"/>
      <rect width="15" height="15" x="37.5" y="94.5" stroke="#D7D7DB" rx="2"/>
    </g>
    <path fill="#0C0C0D" d="M61.4506836,104.47998 C61.5585938,106.098633 62.9042969,107.152344 64.8466797,107.152344 C66.9541016,107.152344 68.2744141,106.10498 68.2744141,104.429199 C68.2744141,103.115234 67.5063477,102.385254 65.6083984,101.90918 L64.6499023,101.655273 C63.4057617,101.331543 62.8979492,100.918945 62.8979492,100.227051 C62.8979492,99.3320312 63.7231445,98.7163086 64.9101562,98.7163086 C66.1035156,98.7163086 66.8969727,99.3193359 66.9985352,100.303223 L68.1411133,100.303223 C68.090332,98.7670898 66.7700195,97.6879883 64.9482422,97.6879883 C63.0439453,97.6879883 61.7109375,98.7543945 61.7109375,100.277832 C61.7109375,101.521973 62.4599609,102.264648 64.1484375,102.696289 L65.3227539,103.000977 C66.5541992,103.318359 67.09375,103.794434 67.09375,104.568848 C67.09375,105.470215 66.1923828,106.124023 64.9545898,106.124023 C63.6469727,106.124023 62.7075195,105.470215 62.5996094,104.47998 L61.4506836,104.47998 Z M69.4931641,107 L70.5976562,107 L70.5976562,103.15332 C70.5976562,102.010742 71.2768555,101.261719 72.375,101.261719 C73.409668,101.261719 73.9365234,101.890137 73.9365234,102.9375 L73.9365234,107 L75.0410156,107 L75.0410156,102.734375 C75.0410156,101.261719 74.1650391,100.28418 72.7177734,100.28418 C71.7148438,100.28418 70.9912109,100.71582 70.6230469,101.452148 L70.5976562,101.452148 L70.5976562,97.840332 L69.4931641,97.840332 L69.4931641,107 Z M79.1796875,107.114258 C77.3515625,107.114258 76.1201172,105.800293 76.1201172,103.699219 C76.1201172,101.591797 77.3515625,100.28418 79.1796875,100.28418 C81.0014648,100.28418 82.2329102,101.591797 82.2329102,103.699219 C82.2329102,105.800293 81.0014648,107.114258 79.1796875,107.114258 Z M79.1796875,106.143066 C80.3476562,106.143066 81.109375,105.254395 81.109375,103.699219 C81.109375,102.144043 80.3476562,101.255371 79.1796875,101.255371 C78.0117188,101.255371 77.2436523,102.144043 77.2436523,103.699219 C77.2436523,105.254395 78.0117188,106.143066 79.1796875,106.143066 Z M91.7416992,100.398438 L90.6499023,100.398438 L89.3295898,105.768555 L89.3041992,105.768555 L87.8061523,100.398438 L86.7397461,100.398438 L85.2480469,105.768555 L85.2226562,105.768555 L83.9023438,100.398438 L82.8041992,100.398438 L84.6513672,107 L85.7749023,107 L87.2602539,101.890137 L87.2856445,101.890137 L88.7773438,107 L89.9008789,107 L91.7416992,100.398438 Z M95.1948242,102.220215 C95.1948242,103.121582 95.7661133,103.718262 96.9277344,104.016602 L98.0893555,104.314941 C98.8320312,104.511719 99.1049805,104.765625 99.1049805,105.235352 C99.1049805,105.832031 98.5527344,106.212891 97.6577148,106.212891 C96.7626953,106.212891 96.2421875,105.844727 96.121582,105.15918 L95.0170898,105.15918 C95.1313477,106.327148 96.140625,107.114258 97.5878906,107.114258 C99.1303711,107.114258 100.21582,106.301758 100.21582,105.152832 C100.21582,104.181641 99.7333984,103.699219 98.4003906,103.362793 L97.378418,103.115234 C96.6293945,102.924805 96.2802734,102.620117 96.2802734,102.163086 C96.2802734,101.585449 96.8134766,101.185547 97.6196289,101.185547 C98.4321289,101.185547 98.9462891,101.579102 99.0224609,102.213867 L100.076172,102.213867 C100.025391,101.09668 99.0224609,100.28418 97.6577148,100.28418 C96.2041016,100.28418 95.1948242,101.090332 95.1948242,102.220215 Z M104.005371,101.242676 C102.970703,101.242676 102.24707,102.036133 102.177246,103.134277 L105.763672,103.134277 C105.738281,102.029785 105.046387,101.242676 104.005371,101.242676 Z M105.738281,105.108398 L106.82373,105.108398 C106.633301,106.263672 105.516113,107.114258 104.075195,107.114258 C102.183594,107.114258 101.034668,105.800293 101.034668,103.724609 C101.034668,101.674316 102.202637,100.28418 104.024414,100.28418 C105.808105,100.28418 106.90625,101.579102 106.90625,103.578613 L106.90625,103.997559 L102.170898,103.997559 L102.170898,104.061035 C102.170898,105.324219 102.913574,106.155762 104.100586,106.155762 C104.938477,106.155762 105.554199,105.730469 105.738281,105.108398 Z M110.194336,106.174805 C111.235352,106.174805 112.035156,105.444824 112.035156,104.492676 L112.035156,103.953125 L110.270508,104.061035 C109.381836,104.118164 108.874023,104.511719 108.874023,105.133789 C108.874023,105.762207 109.400879,106.174805 110.194336,106.174805 Z M109.946777,107.114258 C108.632812,107.114258 107.750488,106.320801 107.750488,105.133789 C107.750488,104.003906 108.620117,103.292969 110.143555,103.204102 L112.035156,103.096191 L112.035156,102.543945 C112.035156,101.737793 111.501953,101.255371 110.587891,101.255371 C109.737305,101.255371 109.204102,101.655273 109.064453,102.302734 L107.998047,102.302734 C108.074219,101.160156 109.051758,100.28418 110.613281,100.28418 C112.162109,100.28418 113.139648,101.12207 113.139648,102.436035 L113.139648,107 L112.092285,107 L112.092285,105.86377 L112.066895,105.86377 C111.67334,106.619141 110.835449,107.114258 109.946777,107.114258 Z M114.54248,107 L115.646973,107 L115.646973,102.886719 C115.646973,101.953613 116.205566,101.337891 117.0625,101.337891 C117.329102,101.337891 117.563965,101.369629 117.652832,101.401367 L117.652832,100.328613 C117.563965,100.315918 117.398926,100.28418 117.208496,100.28418 C116.434082,100.28418 115.824707,100.747559 115.608887,101.477539 L115.583496,101.477539 L115.583496,100.398438 L114.54248,100.398438 L114.54248,107 Z M123.714844,102.562988 C123.575195,101.375977 122.591309,100.28418 120.940918,100.28418 C119.119141,100.28418 117.906738,101.617188 117.906738,103.699219 C117.906738,105.825684 119.125488,107.114258 120.953613,107.114258 C122.45166,107.114258 123.556152,106.1875 123.727539,104.873535 L122.64209,104.873535 C122.45166,105.666992 121.861328,106.143066 120.959961,106.143066 C119.817383,106.143066 119.030273,105.235352 119.030273,103.699219 C119.030273,102.201172 119.804688,101.255371 120.947266,101.255371 C121.918457,101.255371 122.477051,101.845703 122.635742,102.562988 L123.714844,102.562988 Z M124.800293,107 L125.904785,107 L125.904785,103.15332 C125.904785,102.010742 126.583984,101.261719 127.682129,101.261719 C128.716797,101.261719 129.243652,101.890137 129.243652,102.9375 L129.243652,107 L130.348145,107 L130.348145,102.734375 C130.348145,101.261719 129.472168,100.28418 128.024902,100.28418 C127.021973,100.28418 126.29834,100.71582 125.930176,101.452148 L125.904785,101.452148 L125.904785,97.840332 L124.800293,97.840332 L124.800293,107 Z M134.302734,102.220215 C134.302734,103.121582 134.874023,103.718262 136.035645,104.016602 L137.197266,104.314941 C137.939941,104.511719 138.212891,104.765625 138.212891,105.235352 C138.212891,105.832031 137.660645,106.212891 136.765625,106.212891 C135.870605,106.212891 135.350098,105.844727 135.229492,105.15918 L134.125,105.15918 C134.239258,106.327148 135.248535,107.114258 136.695801,107.114258 C138.238281,107.114258 139.32373,106.301758 139.32373,105.152832 C139.32373,104.181641 138.841309,103.699219 137.508301,103.362793 L136.486328,103.115234 C135.737305,102.924805 135.388184,102.620117 135.388184,102.163086 C135.388184,101.585449 135.921387,101.185547 136.727539,101.185547 C137.540039,101.185547 138.054199,101.579102 138.130371,102.213867 L139.184082,102.213867 C139.133301,101.09668 138.130371,100.28418 136.765625,100.28418 C135.312012,100.28418 134.302734,101.090332 134.302734,102.220215 Z M145.887207,100.398438 L144.782715,100.398438 L144.782715,104.276855 C144.782715,105.400391 144.135254,106.136719 143.0625,106.136719 C142.040527,106.136719 141.539062,105.559082 141.539062,104.486328 L141.539062,100.398438 L140.43457,100.398438 L140.43457,104.683105 C140.43457,106.181152 141.278809,107.114258 142.719727,107.114258 C143.735352,107.114258 144.420898,106.688965 144.814453,105.927246 L144.839844,105.927246 L144.839844,107 L145.887207,107 L145.887207,100.398438 Z M150.000488,106.07959 C151.149414,106.07959 151.91748,105.127441 151.91748,103.673828 C151.91748,102.220215 151.149414,101.255371 150.000488,101.255371 C148.864258,101.255371 148.121582,102.194824 148.121582,103.673828 C148.121582,105.152832 148.864258,106.07959 150.000488,106.07959 Z M150.038574,109.488281 C148.584961,109.488281 147.436035,108.669434 147.251953,107.545898 L148.388184,107.545898 C148.604004,108.148926 149.257812,108.548828 150.083008,108.548828 C151.225586,108.548828 151.91748,107.888672 151.91748,106.904785 L151.91748,105.86377 L151.89209,105.86377 C151.48584,106.581055 150.705078,107.050781 149.77832,107.050781 C148.096191,107.050781 146.991699,105.724121 146.991699,103.673828 C146.991699,101.604492 148.096191,100.28418 149.803711,100.28418 C150.736816,100.28418 151.51123,100.741211 151.949219,101.509277 L151.968262,101.509277 L151.968262,100.398438 L153.021973,100.398438 L153.021973,106.866699 C153.021973,108.440918 151.860352,109.488281 150.038574,109.488281 Z M157.141602,106.07959 C158.290527,106.07959 159.058594,105.127441 159.058594,103.673828 C159.058594,102.220215 158.290527,101.255371 157.141602,101.255371 C156.005371,101.255371 155.262695,102.194824 155.262695,103.673828 C155.262695,105.152832 156.005371,106.07959 157.141602,106.07959 Z M157.179688,109.488281 C155.726074,109.488281 154.577148,108.669434 154.393066,107.545898 L155.529297,107.545898 C155.745117,108.148926 156.398926,108.548828 157.224121,108.548828 C158.366699,108.548828 159.058594,107.888672 159.058594,106.904785 L159.058594,105.86377 L159.033203,105.86377 C158.626953,106.581055 157.846191,107.050781 156.919434,107.050781 C155.237305,107.050781 154.132812,105.724121 154.132812,103.673828 C154.132812,101.604492 155.237305,100.28418 156.944824,100.28418 C157.87793,100.28418 158.652344,100.741211 159.090332,101.509277 L159.109375,101.509277 L159.109375,100.398438 L160.163086,100.398438 L160.163086,106.866699 C160.163086,108.440918 159.001465,109.488281 157.179688,109.488281 Z M164.244629,101.242676 C163.209961,101.242676 162.486328,102.036133 162.416504,103.134277 L166.00293,103.134277 C165.977539,102.029785 165.285645,101.242676 164.244629,101.242676 Z M165.977539,105.108398 L167.062988,105.108398 C166.872559,106.263672 165.755371,107.114258 164.314453,107.114258 C162.422852,107.114258 161.273926,105.800293 161.273926,103.724609 C161.273926,101.674316 162.441895,100.28418 164.263672,100.28418 C166.047363,100.28418 167.145508,101.579102 167.145508,103.578613 L167.145508,103.997559 L162.410156,103.997559 L162.410156,104.061035 C162.410156,105.324219 163.152832,106.155762 164.339844,106.155762 C165.177734,106.155762 165.793457,105.730469 165.977539,105.108398 Z M168.14209,102.220215 C168.14209,103.121582 168.713379,103.718262 169.875,104.016602 L171.036621,104.314941 C171.779297,104.511719 172.052246,104.765625 172.052246,105.235352 C172.052246,105.832031 171.5,106.212891 170.60498,106.212891 C169.709961,106.212891 169.189453,105.844727 169.068848,105.15918 L167.964355,105.15918 C168.078613,106.327148 169.087891,107.114258 170.535156,107.114258 C172.077637,107.114258 173.163086,106.301758 173.163086,105.152832 C173.163086,104.181641 172.680664,103.699219 171.347656,103.362793 L170.325684,103.115234 C169.57666,102.924805 169.227539,102.620117 169.227539,102.163086 C169.227539,101.585449 169.760742,101.185547 170.566895,101.185547 C171.379395,101.185547 171.893555,101.579102 171.969727,102.213867 L173.023438,102.213867 C172.972656,101.09668 171.969727,100.28418 170.60498,100.28418 C169.151367,100.28418 168.14209,101.090332 168.14209,102.220215 Z M174.661133,98.8051758 L174.661133,100.398438 L173.677246,100.398438 L173.677246,101.306152 L174.661133,101.306152 L174.661133,105.286133 C174.661133,106.555664 175.130859,107.050781 176.343262,107.050781 C176.603516,107.050781 176.908203,107.031738 177.041504,107 L177.041504,106.073242 C176.965332,106.085938 176.711426,106.10498 176.584473,106.10498 C176.019531,106.10498 175.765625,105.832031 175.765625,105.229004 L175.765625,101.306152 L177.047852,101.306152 L177.047852,100.398438 L175.765625,100.398438 L175.765625,98.8051758 L174.661133,98.8051758 Z M178.279297,107 L179.383789,107 L179.383789,100.398438 L178.279297,100.398438 L178.279297,107 Z M178.831543,99.2875977 C179.212402,99.2875977 179.523438,98.9765625 179.523438,98.6020508 C179.523438,98.2211914 179.212402,97.9165039 178.831543,97.9165039 C178.457031,97.9165039 178.145996,98.2211914 178.145996,98.6020508 C178.145996,98.9765625 178.457031,99.2875977 178.831543,99.2875977 Z M183.611328,107.114258 C181.783203,107.114258 180.551758,105.800293 180.551758,103.699219 C180.551758,101.591797 181.783203,100.28418 183.611328,100.28418 C185.433105,100.28418 186.664551,101.591797 186.664551,103.699219 C186.664551,105.800293 185.433105,107.114258 183.611328,107.114258 Z M183.611328,106.143066 C184.779297,106.143066 185.541016,105.254395 185.541016,103.699219 C185.541016,102.144043 184.779297,101.255371 183.611328,101.255371 C182.443359,101.255371 181.675293,102.144043 181.675293,103.699219 C181.675293,105.254395 182.443359,106.143066 183.611328,106.143066 Z M187.775391,107 L188.879883,107 L188.879883,103.115234 C188.879883,101.998047 189.559082,101.261719 190.600098,101.261719 C191.615723,101.261719 192.117188,101.845703 192.117188,102.912109 L192.117188,107 L193.22168,107 L193.22168,102.715332 C193.22168,101.217285 192.383789,100.28418 190.936523,100.28418 C189.914551,100.28418 189.209961,100.741211 188.841797,101.452148 L188.816406,101.452148 L188.816406,100.398438 L187.775391,100.398438 L187.775391,107 Z M194.510254,102.220215 C194.510254,103.121582 195.081543,103.718262 196.243164,104.016602 L197.404785,104.314941 C198.147461,104.511719 198.42041,104.765625 198.42041,105.235352 C198.42041,105.832031 197.868164,106.212891 196.973145,106.212891 C196.078125,106.212891 195.557617,105.844727 195.437012,105.15918 L194.33252,105.15918 C194.446777,106.327148 195.456055,107.114258 196.90332,107.114258 C198.445801,107.114258 199.53125,106.301758 199.53125,105.152832 C199.53125,104.181641 199.048828,103.699219 197.71582,103.362793 L196.693848,103.115234 C195.944824,102.924805 195.595703,102.620117 195.595703,102.163086 C195.595703,101.585449 196.128906,101.185547 196.935059,101.185547 C197.747559,101.185547 198.261719,101.579102 198.337891,102.213867 L199.391602,102.213867 C199.34082,101.09668 198.337891,100.28418 196.973145,100.28418 C195.519531,100.28418 194.510254,101.090332 194.510254,102.220215 Z M203.396973,107 L204.501465,107 L204.501465,100.398438 L203.396973,100.398438 L203.396973,107 Z M203.949219,99.2875977 C204.330078,99.2875977 204.641113,98.9765625 204.641113,98.6020508 C204.641113,98.2211914 204.330078,97.9165039 203.949219,97.9165039 C203.574707,97.9165039 203.263672,98.2211914 203.263672,98.6020508 C203.263672,98.9765625 203.574707,99.2875977 203.949219,99.2875977 Z M205.993164,107 L207.097656,107 L207.097656,103.115234 C207.097656,101.998047 207.776855,101.261719 208.817871,101.261719 C209.833496,101.261719 210.334961,101.845703 210.334961,102.912109 L210.334961,107 L211.439453,107 L211.439453,102.715332 C211.439453,101.217285 210.601562,100.28418 209.154297,100.28418 C208.132324,100.28418 207.427734,100.741211 207.05957,101.452148 L207.03418,101.452148 L207.03418,100.398438 L205.993164,100.398438 L205.993164,107 Z M217.685547,106.174805 C218.726562,106.174805 219.526367,105.444824 219.526367,104.492676 L219.526367,103.953125 L217.761719,104.061035 C216.873047,104.118164 216.365234,104.511719 216.365234,105.133789 C216.365234,105.762207 216.89209,106.174805 217.685547,106.174805 Z M217.437988,107.114258 C216.124023,107.114258 215.241699,106.320801 215.241699,105.133789 C215.241699,104.003906 216.111328,103.292969 217.634766,103.204102 L219.526367,103.096191 L219.526367,102.543945 C219.526367,101.737793 218.993164,101.255371 218.079102,101.255371 C217.228516,101.255371 216.695312,101.655273 216.555664,102.302734 L215.489258,102.302734 C215.56543,101.160156 216.542969,100.28418 218.104492,100.28418 C219.65332,100.28418 220.630859,101.12207 220.630859,102.436035 L220.630859,107 L219.583496,107 L219.583496,105.86377 L219.558105,105.86377 C219.164551,106.619141 218.32666,107.114258 217.437988,107.114258 Z M224.534668,107.114258 C222.852539,107.114258 221.709961,105.768555 221.709961,103.699219 C221.709961,101.629883 222.846191,100.28418 224.509277,100.28418 C225.455078,100.28418 226.216797,100.747559 226.610352,101.471191 L226.635742,101.471191 L226.635742,97.840332 L227.740234,97.840332 L227.740234,107 L226.686523,107 L226.686523,105.882812 L226.66748,105.882812 C226.242187,106.644531 225.486816,107.114258 224.534668,107.114258 Z M224.744141,101.255371 C223.576172,101.255371 222.839844,102.20752 222.839844,103.699219 C222.839844,105.197266 223.576172,106.143066 224.744141,106.143066 C225.880371,106.143066 226.64209,105.178223 226.64209,103.699219 C226.64209,102.226562 225.880371,101.255371 224.744141,101.255371 Z M231.73291,107.114258 C230.050781,107.114258 228.908203,105.768555 228.908203,103.699219 C228.908203,101.629883 230.044434,100.28418 231.70752,100.28418 C232.65332,100.28418 233.415039,100.747559 233.808594,101.471191 L233.833984,101.471191 L233.833984,97.840332 L234.938477,97.840332 L234.938477,107 L233.884766,107 L233.884766,105.882812 L233.865723,105.882812 C233.44043,106.644531 232.685059,107.114258 231.73291,107.114258 Z M231.942383,101.255371 C230.774414,101.255371 230.038086,102.20752 230.038086,103.699219 C230.038086,105.197266 230.774414,106.143066 231.942383,106.143066 C233.078613,106.143066 233.840332,105.178223 233.840332,103.699219 C233.840332,102.226562 233.078613,101.255371 231.942383,101.255371 Z M236.430176,107 L237.534668,107 L237.534668,102.886719 C237.534668,101.953613 238.093262,101.337891 238.950195,101.337891 C239.216797,101.337891 239.45166,101.369629 239.540527,101.401367 L239.540527,100.328613 C239.45166,100.315918 239.286621,100.28418 239.096191,100.28418 C238.321777,100.28418 237.712402,100.747559 237.496582,101.477539 L237.471191,101.477539 L237.471191,100.398438 L236.430176,100.398438 L236.430176,107 Z M242.765137,101.242676 C241.730469,101.242676 241.006836,102.036133 240.937012,103.134277 L244.523437,103.134277 C244.498047,102.029785 243.806152,101.242676 242.765137,101.242676 Z M244.498047,105.108398 L245.583496,105.108398 C245.393066,106.263672 244.275879,107.114258 242.834961,107.114258 C240.943359,107.114258 239.794434,105.800293 239.794434,103.724609 C239.794434,101.674316 240.962402,100.28418 242.78418,100.28418 C244.567871,100.28418 245.666016,101.579102 245.666016,103.578613 L245.666016,103.997559 L240.930664,103.997559 L240.930664,104.061035 C240.930664,105.324219 241.67334,106.155762 242.860352,106.155762 C243.698242,106.155762 244.313965,105.730469 244.498047,105.108398 Z M246.662598,102.220215 C246.662598,103.121582 247.233887,103.718262 248.395508,104.016602 L249.557129,104.314941 C250.299805,104.511719 250.572754,104.765625 250.572754,105.235352 C250.572754,105.832031 250.020508,106.212891 249.125488,106.212891 C248.230469,106.212891 247.709961,105.844727 247.589355,105.15918 L246.484863,105.15918 C246.599121,106.327148 247.608398,107.114258 249.055664,107.114258 C250.598145,107.114258 251.683594,106.301758 251.683594,105.152832 C251.683594,104.181641 251.201172,103.699219 249.868164,103.362793 L248.846191,103.115234 C248.097168,102.924805 247.748047,102.620117 247.748047,102.163086 C247.748047,101.585449 248.28125,101.185547 249.087402,101.185547 C249.899902,101.185547 250.414062,101.579102 250.490234,102.213867 L251.543945,102.213867 C251.493164,101.09668 250.490234,100.28418 249.125488,100.28418 C247.671875,100.28418 246.662598,101.090332 246.662598,102.220215 Z M252.711914,102.220215 C252.711914,103.121582 253.283203,103.718262 254.444824,104.016602 L255.606445,104.314941 C256.349121,104.511719 256.62207,104.765625 256.62207,105.235352 C256.62207,105.832031 256.069824,106.212891 255.174805,106.212891 C254.279785,106.212891 253.759277,105.844727 253.638672,105.15918 L252.53418,105.15918 C252.648437,106.327148 253.657715,107.114258 255.10498,107.114258 C256.647461,107.114258 257.73291,106.301758 257.73291,105.152832 C257.73291,104.181641 257.250488,103.699219 255.91748,103.362793 L254.895508,103.115234 C254.146484,102.924805 253.797363,102.620117 253.797363,102.163086 C253.797363,101.585449 254.330566,101.185547 255.136719,101.185547 C255.949219,101.185547 256.463379,101.579102 256.539551,102.213867 L257.593262,102.213867 C257.54248,101.09668 256.539551,100.28418 255.174805,100.28418 C253.721191,100.28418 252.711914,101.090332 252.711914,102.220215 Z M264.823242,107.114258 C263.858398,107.114258 263.103027,106.644531 262.677734,105.882812 L262.652344,105.882812 L262.652344,107 L261.598633,107 L261.598633,97.840332 L262.703125,97.840332 L262.703125,101.50293 L262.728516,101.50293 C263.141113,100.747559 263.90918,100.28418 264.842285,100.28418 C266.505371,100.28418 267.628906,101.629883 267.628906,103.699219 C267.628906,105.774902 266.511719,107.114258 264.823242,107.114258 Z M264.607422,101.255371 C263.490234,101.255371 262.696777,102.23291 262.696777,103.699219 C262.696777,105.171875 263.490234,106.143066 264.607422,106.143066 C265.775391,106.143066 266.499023,105.209961 266.499023,103.699219 C266.499023,102.201172 265.775391,101.255371 264.607422,101.255371 Z M270.92334,106.174805 C271.964355,106.174805 272.76416,105.444824 272.76416,104.492676 L272.76416,103.953125 L270.999512,104.061035 C270.11084,104.118164 269.603027,104.511719 269.603027,105.133789 C269.603027,105.762207 270.129883,106.174805 270.92334,106.174805 Z M270.675781,107.114258 C269.361816,107.114258 268.479492,106.320801 268.479492,105.133789 C268.479492,104.003906 269.349121,103.292969 270.872559,103.204102 L272.76416,103.096191 L272.76416,102.543945 C272.76416,101.737793 272.230957,101.255371 271.316895,101.255371 C270.466309,101.255371 269.933105,101.655273 269.793457,102.302734 L268.727051,102.302734 C268.803223,101.160156 269.780762,100.28418 271.342285,100.28418 C272.891113,100.28418 273.868652,101.12207 273.868652,102.436035 L273.868652,107 L272.821289,107 L272.821289,105.86377 L272.795898,105.86377 C272.402344,106.619141 271.564453,107.114258 270.675781,107.114258 Z M275.271484,107 L276.375977,107 L276.375977,102.886719 C276.375977,101.953613 276.93457,101.337891 277.791504,101.337891 C278.058105,101.337891 278.292969,101.369629 278.381836,101.401367 L278.381836,100.328613 C278.292969,100.315918 278.12793,100.28418 277.9375,100.28418 C277.163086,100.28418 276.553711,100.747559 276.337891,101.477539 L276.3125,101.477539 L276.3125,100.398438 L275.271484,100.398438 L275.271484,107 Z M281.942871,107 L283.047363,107 L283.047363,102.886719 C283.047363,101.953613 283.605957,101.337891 284.462891,101.337891 C284.729492,101.337891 284.964355,101.369629 285.053223,101.401367 L285.053223,100.328613 C284.964355,100.315918 284.799316,100.28418 284.608887,100.28418 C283.834473,100.28418 283.225098,100.747559 283.009277,101.477539 L282.983887,101.477539 L282.983887,100.398438 L281.942871,100.398438 L281.942871,107 Z M288.277832,101.242676 C287.243164,101.242676 286.519531,102.036133 286.449707,103.134277 L290.036133,103.134277 C290.010742,102.029785 289.318848,101.242676 288.277832,101.242676 Z M290.010742,105.108398 L291.096191,105.108398 C290.905762,106.263672 289.788574,107.114258 288.347656,107.114258 C286.456055,107.114258 285.307129,105.800293 285.307129,103.724609 C285.307129,101.674316 286.475098,100.28418 288.296875,100.28418 C290.080566,100.28418 291.178711,101.579102 291.178711,103.578613 L291.178711,103.997559 L286.443359,103.997559 L286.443359,104.061035 C286.443359,105.324219 287.186035,106.155762 288.373047,106.155762 C289.210938,106.155762 289.82666,105.730469 290.010742,105.108398 Z M292.175293,102.220215 C292.175293,103.121582 292.746582,103.718262 293.908203,104.016602 L295.069824,104.314941 C295.8125,104.511719 296.085449,104.765625 296.085449,105.235352 C296.085449,105.832031 295.533203,106.212891 294.638184,106.212891 C293.743164,106.212891 293.222656,105.844727 293.102051,105.15918 L291.997559,105.15918 C292.111816,106.327148 293.121094,107.114258 294.568359,107.114258 C296.11084,107.114258 297.196289,106.301758 297.196289,105.152832 C297.196289,104.181641 296.713867,103.699219 295.380859,103.362793 L294.358887,103.115234 C293.609863,102.924805 293.260742,102.620117 293.260742,102.163086 C293.260742,101.585449 293.793945,101.185547 294.600098,101.185547 C295.412598,101.185547 295.926758,101.579102 296.00293,102.213867 L297.056641,102.213867 C297.005859,101.09668 296.00293,100.28418 294.638184,100.28418 C293.18457,100.28418 292.175293,101.090332 292.175293,102.220215 Z M303.759766,100.398438 L302.655273,100.398438 L302.655273,104.276855 C302.655273,105.400391 302.007812,106.136719 300.935059,106.136719 C299.913086,106.136719 299.411621,105.559082 299.411621,104.486328 L299.411621,100.398438 L298.307129,100.398438 L298.307129,104.683105 C298.307129,106.181152 299.151367,107.114258 300.592285,107.114258 C301.60791,107.114258 302.293457,106.688965 302.687012,105.927246 L302.712402,105.927246 L302.712402,107 L303.759766,107 L303.759766,100.398438 Z M305.245117,107 L306.349609,107 L306.349609,97.840332 L305.245117,97.840332 L305.245117,107 Z M308.196777,98.8051758 L308.196777,100.398438 L307.212891,100.398438 L307.212891,101.306152 L308.196777,101.306152 L308.196777,105.286133 C308.196777,106.555664 308.666504,107.050781 309.878906,107.050781 C310.13916,107.050781 310.443848,107.031738 310.577148,107 L310.577148,106.073242 C310.500977,106.085938 310.24707,106.10498 310.120117,106.10498 C309.555176,106.10498 309.30127,105.832031 309.30127,105.229004 L309.30127,101.306152 L310.583496,101.306152 L310.583496,100.398438 L309.30127,100.398438 L309.30127,98.8051758 L308.196777,98.8051758 Z M311.643555,102.220215 C311.643555,103.121582 312.214844,103.718262 313.376465,104.016602 L314.538086,104.314941 C315.280762,104.511719 315.553711,104.765625 315.553711,105.235352 C315.553711,105.832031 315.001465,106.212891 314.106445,106.212891 C313.211426,106.212891 312.690918,105.844727 312.570312,105.15918 L311.46582,105.15918 C311.580078,106.327148 312.589355,107.114258 314.036621,107.114258 C315.579102,107.114258 316.664551,106.301758 316.664551,105.152832 C316.664551,104.181641 316.182129,103.699219 314.849121,103.362793 L313.827148,103.115234 C313.078125,102.924805 312.729004,102.620117 312.729004,102.163086 C312.729004,101.585449 313.262207,101.185547 314.068359,101.185547 C314.880859,101.185547 315.39502,101.579102 315.471191,102.213867 L316.524902,102.213867 C316.474121,101.09668 315.471191,100.28418 314.106445,100.28418 C312.652832,100.28418 311.643555,101.090332 311.643555,102.220215 Z" opacity=".4"/>
  </g>
</svg>
