<svg xmlns="http://www.w3.org/2000/svg" style="background:#fff" viewBox="0 0 752 447"><g fill="none" fill-rule="evenodd"><path fill="#0C0C0D" d="M199.53 297h-1.3l-4.7-7.26a3.03 3.03 0 0 1-.28-.57h-.04c.03.2.05.61.05 1.25V297h-1.07v-9.1h1.39l4.55 7.14c.2.3.32.5.37.6h.03c-.04-.25-.07-.7-.07-1.33v-6.41h1.07v9.1zm4.97.15c-.97 0-1.73-.3-2.3-.9a3.37 3.37 0 0 1-.87-2.42c0-1.1.3-1.95.9-2.56.6-.62 1.4-.92 2.42-.92.97 0 1.72.3 2.27.9.54.59.81 1.42.81 2.47a3.5 3.5 0 0 1-.88 2.5c-.58.62-1.37.93-2.35.93zm.07-5.93c-.67 0-1.2.23-1.59.69a2.8 2.8 0 0 0-.58 1.88c0 .77.2 1.38.6 1.82a2 2 0 0 0 1.57.67 1.9 1.9 0 0 0 1.55-.66c.37-.43.55-1.05.55-1.86s-.18-1.44-.55-1.88a1.9 1.9 0 0 0-1.55-.66zm8.22.33c-.19-.14-.45-.2-.8-.2-.44 0-.8.2-1.1.62-.3.42-.45 1-.45 1.72V297h-1.04v-6.5h1.04v1.34h.02c.15-.46.38-.81.68-1.07.3-.26.65-.38 1.02-.38.27 0 .48.03.63.08v1.08zm10.33 5.45h-1.04v-3.73c0-.72-.11-1.24-.34-1.56-.22-.33-.6-.49-1.12-.49-.44 0-.82.2-1.13.61-.31.4-.47.9-.47 1.46V297h-1.04v-3.86c0-1.28-.49-1.92-1.48-1.92-.45 0-.83.2-1.13.58-.3.38-.44.88-.44 1.5v3.7h-1.04v-6.5h1.04v1.03h.03a2.2 2.2 0 0 1 2.01-1.18 1.88 1.88 0 0 1 1.85 1.34c.48-.9 1.2-1.34 2.15-1.34 1.43 0 2.15.88 2.15 2.64V297zm6.62 0h-1.04v-1.02h-.03a2.18 2.18 0 0 1-2 1.17c-.64 0-1.15-.17-1.52-.51-.36-.34-.55-.8-.55-1.37 0-1.21.72-1.92 2.15-2.12l1.95-.27c0-1.1-.45-1.66-1.34-1.66a3.2 3.2 0 0 0-2.12.8v-1.06c.64-.4 1.37-.61 2.2-.61 1.54 0 2.3.8 2.3 2.42V297zm-1.04-3.29l-1.57.22c-.48.07-.85.18-1.1.36-.24.17-.36.47-.36.9a1 1 0 0 0 .34.78c.23.2.53.3.9.3.52 0 .95-.17 1.28-.54.34-.36.5-.82.5-1.37v-.65zm4.04 3.29h-1.04v-9.62h1.04V297zm10.88 0h-5.15v-.91h2.06V289l-2.1.63v-.99l3.14-.96v8.4h2.05v.91zm1.58-.34v-1.12c.62.5 1.32.74 2.1.74a2.3 2.3 0 0 0 1.52-.48c.38-.32.57-.74.57-1.28 0-1.2-.84-1.79-2.53-1.79h-.76v-.88h.72c1.5 0 2.25-.56 2.25-1.67 0-1.04-.57-1.55-1.72-1.55-.63 0-1.24.22-1.8.65v-1.01a3.98 3.98 0 0 1 2.06-.52c.77 0 1.38.2 1.84.6a2 2 0 0 1 .7 1.57c0 1.2-.62 1.96-1.84 2.3v.03c.66.07 1.18.3 1.57.7.38.39.58.88.58 1.47 0 .82-.3 1.48-.88 1.98-.59.5-1.36.75-2.32.75a3.8 3.8 0 0 1-2.06-.49zm8.3-.6h-.03V300h-1.04v-9.49h1.04v1.14h.02a2.46 2.46 0 0 1 2.25-1.3c.84 0 1.5.3 1.96.88.47.58.7 1.36.7 2.34 0 1.09-.26 1.96-.79 2.61-.53.66-1.25.98-2.17.98-.84 0-1.49-.36-1.95-1.09zm-.03-2.62v.9c0 .54.17 1 .52 1.37.35.38.8.57 1.33.57.63 0 1.13-.24 1.48-.73.36-.48.54-1.15.54-2 0-.73-.17-1.3-.5-1.71a1.66 1.66 0 0 0-1.36-.62c-.6 0-1.1.21-1.46.64-.37.42-.55.94-.55 1.58zm11.19-2.94l-2.19 3.29 2.15 3.21h-1.21l-1.28-2.1-.28-.5h-.03l-.3.5-1.3 2.1h-1.2l2.22-3.19-2.12-3.31h1.2l1.27 2.22.27.5h.02l1.63-2.72h1.15zm-72.74-99.97v-2.04c.18.17.4.32.65.45a5.04 5.04 0 0 0 1.65.55c.28.05.54.07.78.07.83 0 1.45-.13 1.86-.41.4-.28.6-.68.6-1.2 0-.29-.06-.53-.2-.74-.13-.2-.32-.4-.57-.57a5.97 5.97 0 0 0-.85-.5l-1.06-.49c-.4-.21-.78-.43-1.13-.65a4.86 4.86 0 0 1-.91-.74 3.07 3.07 0 0 1-.6-.9 2.96 2.96 0 0 1-.23-1.2c0-.55.13-1.04.38-1.45.25-.41.58-.75 1-1.02.4-.27.88-.47 1.4-.6.53-.13 1.07-.2 1.61-.2a6.5 6.5 0 0 1 2.73.43v1.95a4.35 4.35 0 0 0-2.61-.73c-.3 0-.58.03-.88.08-.29.06-.55.15-.78.28-.23.13-.41.29-.56.49-.14.2-.21.44-.21.72 0 .27.05.5.16.69.11.2.28.37.49.53.21.16.47.32.78.47a14.38 14.38 0 0 1 2.24 1.17c.37.24.7.5.97.8.28.28.5.6.67.95.16.35.24.75.24 1.2 0 .6-.12 1.11-.36 1.53-.25.41-.58.75-.99 1.01-.41.26-.88.45-1.42.56a8.03 8.03 0 0 1-4.85-.5zm16.79-3.26h-5.8c.02.79.27 1.4.73 1.82.46.43 1.1.64 1.9.64.91 0 1.74-.27 2.5-.81v1.55a5.7 5.7 0 0 1-3.07.73 3.8 3.8 0 0 1-2.94-1.16 4.63 4.63 0 0 1-1.07-3.26c0-1.32.4-2.4 1.18-3.23a3.84 3.84 0 0 1 2.91-1.25c1.17 0 2.06.37 2.7 1.12.64.75.96 1.79.96 3.11v.74zm-1.86-1.36c0-.69-.17-1.23-.5-1.61a1.64 1.64 0 0 0-1.32-.58c-.56 0-1.02.2-1.4.6-.4.41-.63.94-.72 1.6h3.94zm16.4 5.09h-1.93v-4.63c0-.9-.12-1.54-.37-1.94-.26-.4-.68-.6-1.28-.6-.5 0-.93.26-1.28.76s-.53 1.1-.53 1.81v4.6h-1.93v-4.79c0-1.58-.56-2.37-1.68-2.37-.52 0-.95.23-1.28.71-.34.48-.5 1.1-.5 1.85v4.6h-1.93v-8.5h1.93v1.34h.03a2.94 2.94 0 0 1 2.68-1.54c.59 0 1.1.16 1.54.49.44.32.74.74.9 1.27a3.03 3.03 0 0 1 2.82-1.76c1.87 0 2.8 1.15 2.8 3.46V191zm3.32-10.28c-.32 0-.59-.1-.81-.31-.22-.2-.34-.47-.34-.78 0-.32.12-.58.34-.8.22-.2.5-.3.8-.3.34 0 .61.1.84.3.23.22.34.48.34.8 0 .3-.11.55-.34.77-.23.2-.5.32-.83.32zm.95 10.28h-1.92v-8.5h1.92v8.5zm2.73 0v-11.9h3.78c1.15 0 2.06.25 2.74.75.67.5 1 1.16 1 1.97 0 .67-.19 1.26-.57 1.76-.38.5-.9.85-1.58 1.06v.03c.82.1 1.47.4 1.96.91.49.52.73 1.18.73 2a3 3 0 0 1-1.2 2.47c-.8.63-1.81.95-3.04.95h-3.82zm1.97-10.32v3.39h1.28c.69 0 1.22-.16 1.61-.49.4-.32.59-.78.59-1.37 0-1.02-.68-1.53-2.04-1.53h-1.44zm0 4.97v3.77h1.69c.73 0 1.3-.17 1.7-.5.4-.35.6-.82.6-1.41 0-1.24-.85-1.86-2.56-1.86h-1.43zm11.86 5.55c-1.32 0-2.36-.4-3.15-1.2a4.3 4.3 0 0 1-1.17-3.15c0-1.43.4-2.54 1.22-3.35a4.5 4.5 0 0 1 3.3-1.2c1.33 0 2.37.4 3.1 1.17a4.52 4.52 0 0 1 1.12 3.25c0 1.35-.4 2.44-1.2 3.25a4.3 4.3 0 0 1-3.22 1.23zm.09-7.36a2.2 2.2 0 0 0-1.79.78 3.3 3.3 0 0 0-.65 2.18c0 .9.22 1.6.66 2.1.44.52 1.03.77 1.78.77s1.34-.25 1.74-.75c.41-.5.61-1.22.61-2.15 0-.94-.2-1.66-.6-2.17a2.1 2.1 0 0 0-1.75-.76zm8.22 7.16h-1.93v-12.58h1.93V191zm10.24 0h-1.93v-1.44h-.03a3.07 3.07 0 0 1-2.87 1.64 3.1 3.1 0 0 1-2.5-1.14 4.74 4.74 0 0 1-.95-3.11c0-1.4.35-2.53 1.04-3.38a3.4 3.4 0 0 1 2.78-1.27c1.15 0 1.98.46 2.5 1.38h.03v-5.26h1.93V191zm-1.9-3.88V186c0-.6-.2-1.11-.6-1.53-.39-.42-.89-.63-1.5-.63-.71 0-1.28.26-1.7.8a3.59 3.59 0 0 0-.61 2.23c0 .87.2 1.55.6 2.05.39.5.92.75 1.59.75a2 2 0 0 0 1.6-.72c.41-.49.62-1.1.62-1.83zm16.36 3.88h-7.1v-1.6h2.6V181l-2.66.7v-1.67l4.58-1.15v10.54h2.58V191zm9.61-11.12L282.22 191h-2.03l4.36-10.26h-5.8v-1.64h7.95v.78zm3.95 9.87h-.03v5.16h-1.93V182.5h1.93v1.5h.03a3.16 3.16 0 0 1 2.89-1.7c1.08 0 1.92.38 2.52 1.14.6.76.9 1.77.9 3.05a5.3 5.3 0 0 1-1.01 3.4 3.38 3.38 0 0 1-2.8 1.28 2.79 2.79 0 0 1-2.5-1.42zm-.05-3.36v1.06c0 .62.2 1.14.6 1.57.39.44.9.65 1.5.65.72 0 1.28-.28 1.68-.83.4-.56.61-1.33.61-2.33 0-.84-.19-1.5-.57-1.96-.38-.48-.89-.71-1.54-.71-.68 0-1.23.24-1.65.73a2.7 2.7 0 0 0-.63 1.82zm15.17-3.89l-2.83 4.3 2.8 4.2h-2.23l-1.5-2.63-.33-.62h-.03l-.35.62-1.52 2.63h-2.22l2.89-4.17-2.74-4.33h2.24l1.47 2.76.32.64h.03l1.9-3.4h2.1zM192.04 219v-9.1h3.31c1.02 0 1.8.18 2.35.56.54.37.82.9.82 1.57 0 .5-.17.92-.5 1.29-.33.37-.76.62-1.28.77v.02c.65.08 1.17.32 1.56.72a2 2 0 0 1 .58 1.45c0 .84-.3 1.5-.9 1.99-.6.49-1.4.73-2.44.73h-3.5zm2.05-7.6v2.17h.9c.43 0 .76-.1 1-.31.25-.2.37-.49.37-.85 0-.67-.5-1-1.5-1h-.77zm0 3.69v2.4h1.11c.48 0 .85-.11 1.12-.33.26-.22.4-.52.4-.9 0-.37-.13-.65-.4-.86-.26-.2-.63-.31-1.1-.31h-1.13zm9.19 4.07a3.5 3.5 0 0 1-2.56-.91 3.3 3.3 0 0 1-.93-2.47c0-1.08.32-1.92.97-2.53.64-.6 1.5-.9 2.6-.9 1.08 0 1.93.3 2.54.9.62.6.92 1.41.92 2.41 0 1.08-.31 1.93-.94 2.56-.64.63-1.5.94-2.6.94zm.05-5.28c-.48 0-.84.16-1.1.49-.27.32-.4.78-.4 1.38 0 1.25.5 1.87 1.51 1.87.96 0 1.44-.64 1.44-1.92 0-1.22-.48-1.82-1.45-1.82zm6.8 5.12h-2v-9.62h2V219zm8.05 0h-2v-.9h-.03a2.25 2.25 0 0 1-2.01 1.06c-.82 0-1.47-.29-1.96-.86a3.56 3.56 0 0 1-.75-2.4c0-1.08.28-1.94.82-2.59a2.67 2.67 0 0 1 2.15-.97c.84 0 1.42.3 1.75.9h.02v-3.86h2.01V219zm-1.97-3.16v-.49c0-.42-.12-.77-.37-1.05a1.22 1.22 0 0 0-.95-.42c-.45 0-.8.17-1.04.52-.25.35-.38.83-.38 1.44 0 .57.12 1.01.36 1.32.24.3.58.46 1 .46.41 0 .74-.16 1-.49.25-.32.38-.75.38-1.3zm13.24 3.16h-5.76v-1.59h1.89v-5.67l-1.94.42v-1.62l3.94-.8v7.67h1.87V219zm1.57-.3v-1.74c.61.44 1.32.66 2.13.66.52 0 .92-.1 1.2-.33.29-.22.43-.52.43-.92s-.18-.72-.53-.94a2.75 2.75 0 0 0-1.46-.33h-.82v-1.53h.76c1.18 0 1.78-.4 1.78-1.18 0-.74-.46-1.12-1.37-1.12-.6 0-1.2.2-1.78.6v-1.64a4.9 4.9 0 0 1 2.24-.48c.93 0 1.65.2 2.17.62a2 2 0 0 1 .78 1.63c0 1.2-.6 1.94-1.8 2.24v.03c.63.08 1.14.32 1.52.7.37.39.55.86.55 1.43 0 .85-.3 1.52-.93 2.02-.62.5-1.48.74-2.58.74-.94 0-1.7-.15-2.29-.46zm9.42-.46h-.02V222h-2v-9.49h2v.98h.02c.5-.76 1.2-1.14 2.09-1.14.84 0 1.5.29 1.95.87.46.58.7 1.36.7 2.36a4 4 0 0 1-.81 2.6c-.54.66-1.25.99-2.14.99-.78 0-1.38-.3-1.79-.92zm-.06-2.66v.52c0 .45.12.81.36 1.1.24.28.55.42.93.42.46 0 .81-.17 1.07-.53.25-.35.37-.85.37-1.5 0-1.14-.44-1.71-1.33-1.71-.4 0-.74.15-1 .46-.27.32-.4.73-.4 1.24zm12.11-3.08l-2.15 3.15 2.14 3.35h-2.31l-.94-1.75a6.58 6.58 0 0 1-.28-.6h-.02c-.06.19-.15.38-.26.58l-.95 1.77h-2.3l2.2-3.24-2.07-3.26h2.32l.93 1.82a4 4 0 0 1 .26.61h.03c.07-.2.16-.4.27-.62l.95-1.81h2.18z"/><path fill="#737373" d="M116.91 337.99c-1.56 0-2.86 1.23-2.86 3.56 0 2.32 1.21 3.57 2.88 3.57.93 0 1.6-.38 1.97-.77l-.48-.61c-.39.29-.81.58-1.46.58-1.07 0-1.9-.78-1.9-2.77 0-2.08.87-2.78 1.91-2.78.48 0 .9.16 1.33.51l.52-.61a2.72 2.72 0 0 0-1.91-.68zm6.69 5.78c0 .46.17.61.44.71l-.21.64c-.53-.06-.87-.27-1.03-.79a1.8 1.8 0 0 1-1.57.79c-1.05 0-1.68-.65-1.68-1.59 0-1.13.85-1.74 2.32-1.74h.81v-.39c0-.76-.37-1.04-1.1-1.04-.39 0-.88.1-1.42.28l-.23-.67a5.16 5.16 0 0 1 1.82-.36c1.27 0 1.85.65 1.85 1.75v2.41zm-2.16.66c.54 0 .94-.27 1.24-.82v-1.21h-.69c-.97 0-1.46.36-1.46 1.08 0 .62.31.95.91.95zm6.47-4.82c1.4 0 1.95 1.09 1.95 2.75 0 1.6-.71 2.76-2.07 2.76a1.7 1.7 0 0 1-1.38-.6v2.5l-.92.11v-7.4h.79l.07.71c.39-.54.96-.83 1.56-.83zm-.34 4.76c.84 0 1.3-.63 1.3-2.01 0-1.37-.4-2.02-1.19-2.02-.56 0-.99.4-1.27.82v2.57c.27.41.68.64 1.16.64zm6.52.39l-.35-.63c-.26.16-.47.23-.7.23-.46 0-.63-.25-.63-.78v-3.14h1.15l.1-.71h-1.25v-1.3l-.92.11v1.19h-.92v.71h.92v3.18c0 .98.53 1.5 1.42 1.5a2 2 0 0 0 1.18-.36zm1.4-7.56a.61.61 0 0 0-.64.63c0 .35.26.62.64.62.39 0 .65-.27.65-.62 0-.36-.26-.63-.65-.63zm.47 7.8v-5.27h-.92V345h.92zm3.88-5.39c1.5 0 2.34 1.08 2.34 2.75 0 1.63-.86 2.76-2.35 2.76-1.5 0-2.35-1.08-2.35-2.75 0-1.63.86-2.76 2.36-2.76zm0 .74c-.88 0-1.37.64-1.37 2.02 0 1.37.48 2.01 1.36 2.01.88 0 1.36-.64 1.36-2.02 0-1.37-.48-2.01-1.35-2.01zm6.34-.74c-.69 0-1.25.36-1.61.9l-.08-.78h-.79V345h.92v-3.74c.35-.56.75-.93 1.34-.93.51 0 .83.23.83 1.02V345h.92v-3.78c0-1-.56-1.61-1.53-1.61zm5.09.11l1.53-.33-.28-.83-1.42.63.15-1.58h-.9l.15 1.57-1.42-.61-.27.82 1.52.33-1.03 1.17.72.52.78-1.34.79 1.34.72-.53-1.04-1.16zm48.26 4.28h-1.3l-4.7-7.26a3.03 3.03 0 0 1-.28-.57h-.04c.03.2.05.61.05 1.25V344h-1.07v-9.1h1.39l4.55 7.14c.2.3.32.5.37.6h.03c-.04-.25-.07-.7-.07-1.33v-6.41h1.07v9.1zm4.97.15c-.97 0-1.73-.3-2.3-.9a3.37 3.37 0 0 1-.87-2.42c0-1.1.3-1.95.9-2.56.6-.62 1.4-.92 2.42-.92.97 0 1.72.3 2.27.9.54.59.81 1.42.81 2.47a3.5 3.5 0 0 1-.88 2.5c-.58.62-1.37.93-2.35.93zm.07-5.93c-.67 0-1.2.23-1.59.69a2.8 2.8 0 0 0-.58 1.88c0 .77.2 1.38.6 1.82a2 2 0 0 0 1.57.67 1.9 1.9 0 0 0 1.55-.66c.37-.43.55-1.05.55-1.86s-.18-1.44-.55-1.88a1.9 1.9 0 0 0-1.55-.66zm8.22.33c-.19-.14-.45-.2-.8-.2-.44 0-.8.2-1.1.62-.3.42-.45 1-.45 1.72V344h-1.04v-6.5h1.04v1.34h.02c.15-.46.38-.81.68-1.07.3-.26.65-.38 1.02-.38.27 0 .48.03.63.08v1.08zm10.33 5.45h-1.04v-3.73c0-.72-.11-1.24-.34-1.56-.22-.33-.6-.49-1.12-.49-.44 0-.82.2-1.13.61-.31.4-.47.9-.47 1.46V344h-1.04v-3.86c0-1.28-.49-1.92-1.48-1.92-.45 0-.83.2-1.13.58-.3.38-.44.88-.44 1.5v3.7h-1.04v-6.5h1.04v1.03h.03a2.2 2.2 0 0 1 2.01-1.18 1.88 1.88 0 0 1 1.85 1.34c.48-.9 1.2-1.34 2.15-1.34 1.43 0 2.15.88 2.15 2.64V344zm6.62 0h-1.04v-1.02h-.03a2.18 2.18 0 0 1-2 1.17c-.64 0-1.15-.17-1.52-.51-.36-.34-.55-.8-.55-1.37 0-1.21.72-1.92 2.15-2.12l1.95-.27c0-1.1-.45-1.66-1.34-1.66a3.2 3.2 0 0 0-2.12.8v-1.06c.64-.4 1.37-.61 2.2-.61 1.54 0 2.3.8 2.3 2.42V344zm-1.04-3.29l-1.57.22c-.48.07-.85.18-1.1.36-.24.17-.36.47-.36.9a1 1 0 0 0 .34.78c.23.2.53.3.9.3.52 0 .95-.17 1.28-.54.34-.36.5-.82.5-1.37v-.65zm4.04 3.29h-1.04v-9.62h1.04V344zm10.88 0h-5.15v-.91h2.06V336l-2.1.63v-.99l3.14-.96v8.4h2.05v.91zm1.58-.34v-1.12c.62.5 1.32.74 2.1.74a2.3 2.3 0 0 0 1.52-.48c.38-.32.57-.74.57-1.28 0-1.2-.84-1.79-2.53-1.79h-.76v-.88h.72c1.5 0 2.25-.56 2.25-1.67 0-1.04-.57-1.55-1.72-1.55-.63 0-1.24.22-1.8.65v-1.01a3.98 3.98 0 0 1 2.06-.52c.77 0 1.38.2 1.84.6a2 2 0 0 1 .7 1.57c0 1.2-.62 1.96-1.84 2.3v.03c.66.07 1.18.3 1.57.7.38.39.58.88.58 1.47 0 .82-.3 1.48-.88 1.98-.59.5-1.36.75-2.32.75a3.8 3.8 0 0 1-2.06-.49zm8.3-.6h-.03V347h-1.04v-9.49h1.04v1.14h.02a2.46 2.46 0 0 1 2.25-1.3c.84 0 1.5.3 1.96.88.47.58.7 1.36.7 2.34 0 1.09-.26 1.96-.79 2.61-.53.66-1.25.98-2.17.98-.84 0-1.49-.36-1.95-1.09zm-.03-2.62v.9c0 .54.17 1 .52 1.37.35.38.8.57 1.33.57.63 0 1.13-.24 1.48-.73.36-.48.54-1.15.54-2 0-.73-.17-1.3-.5-1.71a1.66 1.66 0 0 0-1.36-.62c-.6 0-1.1.21-1.46.64-.37.42-.55.94-.55 1.58zm11.19-2.94l-2.19 3.29 2.15 3.21h-1.21l-1.28-2.1-.28-.5h-.03l-.3.5-1.3 2.1h-1.2l2.22-3.19-2.12-3.31h1.2l1.27 2.22.27.5h.02l1.63-2.72h1.15zM198.22 371h-1.1l-3.97-6.14c-.1-.15-.18-.31-.25-.48h-.03c.03.16.04.51.04 1.06V371h-.9v-7.7h1.17l3.86 6.04c.16.25.26.42.3.52h.03c-.04-.23-.05-.6-.05-1.14v-5.42h.9v7.7zm4.2.13c-.81 0-1.46-.26-1.95-.77a2.85 2.85 0 0 1-.73-2.05c0-.92.26-1.64.76-2.16.5-.52 1.19-.78 2.05-.78.82 0 1.46.25 1.92.76a3 3 0 0 1 .69 2.1c0 .88-.25 1.58-.75 2.1-.5.53-1.16.8-2 .8zm.06-5.02c-.56 0-1.01.2-1.34.58-.33.38-.5.92-.5 1.6 0 .64.17 1.16.5 1.53.34.38.78.57 1.34.57.57 0 1.01-.19 1.32-.56.3-.36.46-.89.46-1.57 0-.69-.16-1.22-.46-1.59a1.6 1.6 0 0 0-1.32-.56zm6.95.28a1.08 1.08 0 0 0-.66-.18c-.38 0-.7.18-.95.54-.25.35-.37.83-.37 1.45v2.8h-.88v-5.5h.88v1.13h.02c.12-.38.31-.69.57-.9.26-.22.55-.33.87-.33.23 0 .4.03.52.08v.91zm8.75 4.61h-.88v-3.16c0-.6-.1-1.05-.29-1.32-.18-.27-.5-.4-.94-.4-.38 0-.7.16-.96.5-.27.35-.4.76-.4 1.24V371h-.88v-3.27c0-1.08-.41-1.62-1.25-1.62-.39 0-.7.16-.96.49a2 2 0 0 0-.37 1.26V371h-.88v-5.5h.88v.87h.02c.4-.67.96-1 1.7-1a1.6 1.6 0 0 1 1.57 1.14 1.96 1.96 0 0 1 1.82-1.14c1.21 0 1.82.75 1.82 2.24V371zm5.6 0h-.88v-.86h-.02c-.39.66-.95.99-1.7.99a1.8 1.8 0 0 1-1.28-.44 1.5 1.5 0 0 1-.47-1.15c0-1.03.61-1.63 1.82-1.8l1.65-.23c0-.93-.38-1.4-1.13-1.4a2.7 2.7 0 0 0-1.8.68v-.9a3.4 3.4 0 0 1 1.87-.52c1.3 0 1.94.69 1.94 2.05V371zm-.88-2.78l-1.33.18c-.4.06-.71.16-.92.3-.2.15-.31.4-.31.77 0 .27.1.5.28.66.2.17.45.26.77.26.44 0 .8-.16 1.08-.46.29-.3.43-.7.43-1.16v-.55zm3.42 2.78h-.88v-8.14h.88V371zm9.2 0h-4.35v-.77h1.74v-5.99l-1.78.53v-.83l2.66-.81v7.1h1.74v.77zm5.94 0h-4.36v-.77h1.74v-5.99l-1.78.53v-.83l2.66-.81v7.1h1.74v.77zm2.42-.8h-.02v3.33h-.88v-8.03h.88v.97h.02a2.08 2.08 0 0 1 1.9-1.1c.7 0 1.26.25 1.66.74.4.5.6 1.15.6 1.98a3.4 3.4 0 0 1-.68 2.2c-.44.56-1.06.84-1.83.84-.72 0-1.26-.3-1.65-.92zm-.02-2.21v.76c0 .46.14.85.44 1.16.3.32.67.48 1.13.48.53 0 .95-.2 1.25-.61.3-.41.45-.98.45-1.7 0-.62-.14-1.1-.42-1.45a1.4 1.4 0 0 0-1.15-.52c-.51 0-.92.18-1.24.54-.3.35-.46.8-.46 1.34zm9.47-2.49l-1.85 2.78 1.81 2.72h-1.02l-1.08-1.78-.24-.42h-.02l-.26.42-1.1 1.78h-1.01l1.87-2.7-1.8-2.8h1.03l1.07 1.88.23.43h.02l1.37-2.31h.98zM122.28 97.11c1.76 0 3.45.55 3.45 3.41 0 2.81-1.75 3.48-3.24 3.48h-1.65v-6.89h1.44zm-.49.76v5.38h.77c1.08 0 2.16-.46 2.16-2.73 0-2.33-1.13-2.65-2.23-2.65h-.7zm5.89-1.67a.61.61 0 0 0-.64.63c0 .35.26.62.64.62.39 0 .65-.27.65-.62 0-.36-.26-.63-.65-.63zm.47 7.8v-5.27h-.92V104h.92zm3.33-5.39c-1.09 0-1.9.61-1.9 1.44 0 .75.45 1.24 1.59 1.54 1.02.27 1.28.47 1.28 1.02 0 .46-.44.77-1.13.77a2.2 2.2 0 0 1-1.46-.53l-.51.58c.46.4 1.1.69 1.99.69 1.07 0 2.08-.5 2.08-1.6 0-.92-.64-1.36-1.75-1.64-.85-.22-1.13-.42-1.13-.85 0-.42.37-.69.97-.69.49 0 .9.15 1.36.48l.4-.61a2.8 2.8 0 0 0-1.79-.6zm5.66 0c1.4 0 1.95 1.09 1.95 2.75 0 1.6-.71 2.76-2.07 2.76a1.7 1.7 0 0 1-1.38-.6v2.5l-.92.11v-7.4h.79l.07.71c.39-.54.96-.83 1.56-.83zm-.34 4.76c.84 0 1.3-.63 1.3-2.01 0-1.37-.4-2.02-1.19-2.02-.56 0-.99.4-1.27.82v2.57c.27.41.68.64 1.16.64zm4.73-.43V96.5l-.92.11v6.35c0 .76.38 1.16 1.05 1.16.27 0 .53-.06.78-.18l-.24-.64a.9.9 0 0 1-.34.06c-.24 0-.33-.14-.33-.42zm5.61-.17c0 .46.17.61.44.71l-.21.64c-.53-.06-.87-.27-1.03-.79a1.8 1.8 0 0 1-1.57.79c-1.05 0-1.68-.65-1.68-1.59 0-1.13.85-1.74 2.32-1.74h.81v-.39c0-.76-.37-1.04-1.1-1.04-.39 0-.88.1-1.42.28l-.23-.67a5.16 5.16 0 0 1 1.82-.36c1.27 0 1.85.65 1.85 1.75v2.41zm-2.16.66c.54 0 .94-.27 1.24-.82v-1.21h-.69c-.97 0-1.46.36-1.46 1.08 0 .62.31.95.91.95zm6.16.6l1.76-5.3h-.95l-1.38 4.6-1.41-4.6h-.98l1.77 5.27h.31c-.3.82-.6 1.23-1.67 1.41l.1.72c1.46-.16 2.08-.98 2.45-2.1z"/><path fill="#0C0C0D" d="M193.96 103V79.9h1.6v21.65h9.27V103h-10.87zm15.52-20.66c-.32 0-.6-.12-.85-.35a1.2 1.2 0 0 1-.37-.9c0-.36.12-.65.38-.87.25-.22.53-.33.84-.33.33 0 .63.11.88.33.25.21.38.5.38.87 0 .34-.12.64-.37.88a1.2 1.2 0 0 1-.89.37zm-.72 20.66V86.5h1.48V103h-1.48zm19.96-1.22c0 3.1-.68 5.37-2.03 6.81-1.35 1.44-3.46 2.16-6.32 2.16-1.59 0-3.22-.42-4.91-1.26v-1.54c1.74.96 3.39 1.45 4.95 1.45 4.55 0 6.83-2.4 6.83-7.22v-2.14h-.07a6.42 6.42 0 0 1-5.94 3.36 6.3 6.3 0 0 1-4.97-2.2c-1.29-1.48-1.93-3.53-1.93-6.16 0-2.63.7-4.78 2.08-6.45a6.78 6.78 0 0 1 5.48-2.5c2.43 0 4.19 1.01 5.28 3.02h.07V86.5h1.48v15.28zm-1.48-8.95a5.4 5.4 0 0 0-1.48-3.78 5 5 0 0 0-3.84-1.6c-1.81 0-3.27.68-4.38 2.05-1.1 1.36-1.66 3.17-1.66 5.41 0 2.26.5 4.01 1.52 5.26a4.92 4.92 0 0 0 4.02 1.88c1.77 0 3.19-.58 4.24-1.72a6.02 6.02 0 0 0 1.58-4.23v-3.27zM245.22 103v-9.9c0-1.95-.35-3.38-1.06-4.29-.71-.9-1.82-1.36-3.32-1.36-1.42 0-2.67.55-3.74 1.66-1.07 1.1-1.61 2.7-1.61 4.75V103H234V78.57h1.48v10.9h.06a6.2 6.2 0 0 1 5.68-3.37c1.78 0 3.14.57 4.07 1.72.94 1.15 1.4 2.8 1.4 4.95V103h-1.48zm12.97-.23c-.77.37-1.5.55-2.17.55-2.44 0-3.66-1.46-3.66-4.38V87.85h-2.97V86.5h2.97v-4.29a29.08 29.08 0 0 1 1.48-.5v4.79h4.35v1.35h-4.35v10.9c0 1.13.18 1.96.54 2.47.36.51.97.76 1.83.76.61 0 1.27-.2 1.98-.6v1.4zm11.52-.6v-1.68a9.85 9.85 0 0 0 4.98 1.56c1.86 0 3.32-.48 4.37-1.43a4.79 4.79 0 0 0 1.58-3.73c0-1.7-.6-3-1.81-3.88-1.21-.88-2.93-1.32-5.17-1.32h-1.77v-1.36h1.58c2.06 0 3.63-.43 4.71-1.3a4.51 4.51 0 0 0 1.62-3.72c0-1.39-.4-2.48-1.18-3.27-.78-.78-1.92-1.18-3.43-1.18-1.45 0-2.97.5-4.56 1.52V80.8a10.93 10.93 0 0 1 4.79-1.3c1.82 0 3.27.5 4.34 1.49a5.1 5.1 0 0 1 1.6 3.93c0 3.13-1.5 5.11-4.5 5.96v.07a5.53 5.53 0 0 1 5.32 5.72 6.2 6.2 0 0 1-2.09 4.88 7.9 7.9 0 0 1-5.43 1.85c-1.72 0-3.37-.4-4.95-1.22zm17 0v-1.68a9.85 9.85 0 0 0 4.98 1.56c1.86 0 3.32-.48 4.37-1.43a4.79 4.79 0 0 0 1.58-3.73c0-1.7-.6-3-1.82-3.88-1.2-.88-2.92-1.32-5.16-1.32h-1.77v-1.36h1.58c2.06 0 3.63-.43 4.71-1.3a4.51 4.51 0 0 0 1.62-3.72c0-1.39-.4-2.48-1.18-3.27-.78-.78-1.92-1.18-3.43-1.18-1.45 0-2.97.5-4.56 1.52V80.8a10.93 10.93 0 0 1 4.79-1.3c1.82 0 3.27.5 4.34 1.49a5.1 5.1 0 0 1 1.6 3.93c0 3.13-1.5 5.11-4.5 5.96v.07a5.53 5.53 0 0 1 5.32 5.72 6.2 6.2 0 0 1-2.09 4.88 7.9 7.9 0 0 1-5.43 1.85c-1.72 0-3.37-.4-4.95-1.22zm19.34-2.1h-.07v10.52h-1.48V86.5h1.48v3.4h.07a6.52 6.52 0 0 1 2.54-2.81c1.1-.66 2.3-1 3.63-1 2.1 0 3.73.73 4.9 2.17 1.18 1.45 1.77 3.41 1.77 5.9 0 2.75-.67 4.99-2.02 6.69a6.48 6.48 0 0 1-5.34 2.55 5.82 5.82 0 0 1-5.48-3.33zm-.07-6.14V96c0 1.65.53 3.07 1.57 4.26a5.2 5.2 0 0 0 4.1 1.78c1.7 0 3.06-.72 4.12-2.17 1.05-1.44 1.57-3.34 1.57-5.7 0-2.06-.48-3.7-1.45-4.9a4.7 4.7 0 0 0-3.86-1.83c-1.93 0-3.41.65-4.47 1.93a6.96 6.96 0 0 0-1.58 4.55zm22.11.98l5.38 8.09h-1.88l-4.35-6.96h-.07l-.58.92-.27.43-3.64 5.61h-1.8l5.5-8.06-5.41-8.44h1.74l3.67 5.91c.48.77.76 1.24.86 1.42h.06l.82-1.35 3.84-5.98h1.74l-5.6 8.41z"/><path fill="#737373" d="M129.83 266.36c.8.14 1.59.51 1.59 1.68 0 1.46-1.13 1.96-2.73 1.96h-1.9v-6.89h1.63c1.7 0 2.7.54 2.7 1.74 0 .85-.62 1.37-1.29 1.51zm-2.09-2.5v2.17h1.04c.77 0 1.37-.38 1.37-1.11 0-.85-.61-1.06-1.63-1.06h-.78zm.95 5.38c1 0 1.73-.2 1.73-1.2 0-.97-.72-1.28-1.55-1.28h-1.13v2.48h.95zm6.11-4.63c1.5 0 2.34 1.08 2.34 2.75 0 1.63-.86 2.76-2.35 2.76-1.5 0-2.35-1.08-2.35-2.75 0-1.63.86-2.76 2.36-2.76zm0 .74c-.88 0-1.37.64-1.37 2.02 0 1.37.48 2.01 1.36 2.01.88 0 1.36-.64 1.36-2.02 0-1.37-.48-2.01-1.35-2.01zm7.94-2.74V270h-.81l-.09-.73c-.34.53-.87.85-1.52.85-1.28 0-1.99-1.09-1.99-2.73 0-1.61.78-2.78 2.07-2.78.62 0 1.07.28 1.42.65v-2.76l.92.11zm-2.22 6.78c.59 0 .95-.29 1.3-.78v-2.58c-.33-.42-.7-.69-1.22-.69-.79 0-1.28.66-1.28 2.03 0 1.39.44 2.02 1.2 2.02zm6.23.64l1.76-5.3h-.95l-1.38 4.6-1.41-4.6h-.98l1.77 5.27h.31c-.3.82-.6 1.23-1.67 1.41l.1.72c1.46-.16 2.08-.98 2.45-2.1zm4.52-5.31l1.53-.33-.28-.83-1.42.63.15-1.58h-.9l.15 1.57-1.42-.61-.27.82 1.52.33-1.03 1.17.72.52.78-1.34.79 1.34.72-.53-1.04-1.16z"/><path fill="#0C0C0D" d="M200.84 269h-1.5l-5.41-8.37a3.5 3.5 0 0 1-.34-.66h-.04c.04.22.06.7.06 1.44V269h-1.23v-10.5h1.6l5.25 8.24.43.7h.03c-.05-.3-.08-.82-.08-1.55v-7.4h1.23V269zm5.73.18c-1.1 0-2-.35-2.65-1.06a3.9 3.9 0 0 1-1-2.78c0-1.26.35-2.25 1.04-2.95a3.71 3.71 0 0 1 2.79-1.07c1.12 0 1.99.35 2.62 1.04.62.69.94 1.64.94 2.86 0 1.2-.34 2.16-1.02 2.88a3.55 3.55 0 0 1-2.72 1.08zm.09-6.85c-.77 0-1.38.27-1.83.8a3.23 3.23 0 0 0-.68 2.16c0 .9.23 1.6.69 2.1.45.52 1.06.78 1.82.78a2.2 2.2 0 0 0 1.79-.76c.42-.5.63-1.22.63-2.15 0-.93-.21-1.66-.63-2.16a2.19 2.19 0 0 0-1.8-.77zm9.48.39a1.47 1.47 0 0 0-.91-.25c-.51 0-.94.25-1.29.73a3.35 3.35 0 0 0-.51 1.98V269h-1.2v-7.5h1.2v1.55h.03c.17-.53.43-.94.78-1.24.35-.3.74-.44 1.18-.44.31 0 .55.03.72.1v1.25zm11.92 6.28h-1.2v-4.3c0-.84-.13-1.44-.39-1.8-.25-.38-.68-.57-1.29-.57-.51 0-.95.24-1.3.7a2.69 2.69 0 0 0-.54 1.7V269h-1.2v-4.45c0-1.48-.57-2.22-1.71-2.22-.53 0-.96.23-1.3.67a2.74 2.74 0 0 0-.52 1.72V269h-1.2v-7.5h1.2v1.19h.03c.53-.91 1.31-1.37 2.33-1.37a2.17 2.17 0 0 1 2.12 1.56 2.68 2.68 0 0 1 2.5-1.56c1.65 0 2.47 1.02 2.47 3.06V269zm7.64 0h-1.2v-1.17h-.03c-.52.9-1.3 1.35-2.3 1.35-.75 0-1.34-.2-1.76-.6-.42-.4-.64-.92-.64-1.57 0-1.4.83-2.22 2.48-2.45l2.25-.31c0-1.28-.52-1.92-1.55-1.92-.9 0-1.72.31-2.44.93v-1.23c.73-.47 1.58-.7 2.55-.7 1.76 0 2.64.93 2.64 2.8V269zm-1.2-3.8l-1.81.26c-.56.07-.98.21-1.26.4-.28.2-.43.56-.43 1.06 0 .37.14.67.4.9.26.23.6.35 1.04.35.6 0 1.09-.21 1.48-.63.38-.42.58-.95.58-1.59v-.74zm4.66 3.8h-1.2v-11.1h1.2V269zm12.56 0h-5.94v-1.05h2.37v-8.16l-2.43.72v-1.14l3.63-1.1v9.68h2.37V269zm2.06-.26v-1.27a4 4 0 0 0 2.19.7c.74 0 1.34-.21 1.79-.63.45-.42.68-.98.68-1.67 0-.7-.23-1.23-.7-1.62a3.04 3.04 0 0 0-1.99-.57c-.29 0-.84.02-1.64.08v-5.26h5.08v1.08h-3.95v3.08l.9-.03c1.12 0 1.99.28 2.6.84.62.57.92 1.34.92 2.32a3.2 3.2 0 0 1-.99 2.46c-.66.62-1.57.93-2.72.93-.97 0-1.7-.15-2.17-.44zm9.33-.82h-.03v4.53h-1.2V261.5h1.2v1.32h.03c.59-1 1.45-1.5 2.59-1.5.97 0 1.72.34 2.26 1.01.54.67.82 1.57.82 2.7 0 1.26-.3 2.26-.92 3.01a3.05 3.05 0 0 1-2.5 1.14 2.5 2.5 0 0 1-2.25-1.26zm-.03-3.03v1.05c0 .62.2 1.14.6 1.58a2 2 0 0 0 1.54.65c.72 0 1.3-.28 1.7-.84.42-.56.63-1.33.63-2.32 0-.84-.2-1.5-.58-1.96-.39-.48-.91-.72-1.57-.72-.7 0-1.26.25-1.69.73-.42.49-.63 1.1-.63 1.83zm12.91-3.39l-2.52 3.8 2.48 3.7h-1.4l-1.47-2.43c-.1-.15-.2-.34-.33-.57h-.03l-.35.57-1.5 2.43h-1.38l2.55-3.68-2.44-3.82h1.4l1.45 2.56.31.59h.03l1.87-3.15H276z"/><path fill="#737373" d="M137.94 153.92l.1-.81h-4.92v.81h1.96V160h.95v-6.08h1.91zm1.6-1.72a.61.61 0 0 0-.64.63c0 .35.26.62.64.62.39 0 .65-.27.65-.62 0-.36-.26-.63-.65-.63zm.47 7.8v-5.27h-.92V160h.92zm4.56-.24l-.35-.63c-.26.16-.47.23-.7.23-.46 0-.63-.25-.63-.78v-3.14h1.15l.1-.71h-1.25v-1.3l-.92.11v1.19h-.92v.71h.92v3.18c0 .98.53 1.5 1.42 1.5a2 2 0 0 0 1.18-.36zm1.82-.82v-6.44l-.92.11v6.35c0 .76.38 1.16 1.05 1.16.27 0 .53-.06.78-.18l-.24-.64a.9.9 0 0 1-.34.06c-.24 0-.33-.14-.33-.42zm6.04-1.73l-.02.47h-3.36c.09 1.22.66 1.69 1.42 1.69.52 0 .91-.14 1.37-.46l.4.55c-.52.41-1.11.66-1.84.66-1.47 0-2.33-1.03-2.33-2.7 0-1.64.83-2.81 2.19-2.81 1.42 0 2.17.99 2.17 2.6zm-.91-.21v-.06c0-1.03-.41-1.6-1.24-1.6-.7 0-1.16.49-1.23 1.66h2.47z"/><rect width="226" height="26" x="473" y="351" fill="#EBEBED" rx="4"/><path fill="#0C0C0D" d="M192.4 156.74a5.43 5.43 0 0 0 1.8.91 6.88 6.88 0 0 0 1.93.32c1.17 0 2.05-.23 2.63-.68.58-.45.87-1.1.87-1.94 0-.41-.07-.77-.2-1.07-.14-.3-.36-.59-.64-.86a6.56 6.56 0 0 0-1.09-.78c-.43-.27-.95-.56-1.54-.9-.66-.35-1.23-.69-1.7-1a6.2 6.2 0 0 1-1.15-.98 3.3 3.3 0 0 1-.86-2.4c0-.63.13-1.19.4-1.68.26-.5.62-.92 1.07-1.26.45-.35.98-.62 1.59-.8.6-.19 1.25-.28 1.94-.28a8 8 0 0 1 3.04.5v1.58a6.31 6.31 0 0 0-4.5-.62c-.4.12-.76.28-1.06.5a2.27 2.27 0 0 0-.98 1.91c0 .4.05.74.17 1.03.12.3.3.57.57.82.26.26.6.52 1.03.77.43.26.95.55 1.56.88.65.34 1.21.68 1.7 1 .47.33.87.67 1.19 1.02a3.57 3.57 0 0 1 .95 2.45 4 4 0 0 1-.38 1.78c-.25.52-.6.94-1.05 1.28-.45.33-.99.59-1.61.76a7.7 7.7 0 0 1-3.94.03 9.58 9.58 0 0 1-.99-.27c-.3-.1-.56-.22-.75-.34v-1.68zm12.34-3c0 .68.1 1.29.27 1.82.17.54.42 1 .74 1.37.32.37.71.65 1.18.85.46.2.98.3 1.56.3a5.6 5.6 0 0 0 3.51-1.3v1.35a6.4 6.4 0 0 1-5.83.74 4.17 4.17 0 0 1-1.54-1.12c-.42-.5-.75-1.1-.98-1.81a8.03 8.03 0 0 1 .04-4.74c.25-.7.6-1.3 1.04-1.82a4.58 4.58 0 0 1 3.58-1.64c.7 0 1.33.13 1.88.37.54.25 1 .6 1.37 1.06.36.46.65 1.02.84 1.68.2.66.29 1.4.29 2.21v.69h-7.95zm6.53-1.2a4.19 4.19 0 0 0-.82-2.66 2.68 2.68 0 0 0-2.18-.95c-.46 0-.9.09-1.3.25-.39.17-.74.4-1.04.72-.3.3-.55.69-.74 1.13-.2.45-.34.96-.42 1.51h6.5zm17.94 6.46v-6.47a7.9 7.9 0 0 0-.15-1.67c-.1-.45-.26-.82-.47-1.1-.2-.3-.48-.5-.8-.63-.33-.13-.72-.2-1.17-.2-.4 0-.78.1-1.14.29-.36.19-.67.45-.94.78-.27.34-.48.73-.63 1.18a4.5 4.5 0 0 0-.23 1.46V159h-1.38v-6.6c0-2.31-.88-3.47-2.65-3.47-.4 0-.79.1-1.14.28-.35.18-.66.44-.92.77s-.46.72-.61 1.18c-.15.47-.22.98-.22 1.53V159h-1.38v-11h1.38v1.78h.04a3.69 3.69 0 0 1 5.4-1.37 3.23 3.23 0 0 1 1.16 1.73c.38-.78.89-1.38 1.5-1.79.62-.4 1.32-.6 2.1-.6 2.42 0 3.62 1.48 3.62 4.46V159h-1.37zm5.36-13.78c-.26 0-.5-.1-.69-.28a.94.94 0 0 1-.29-.71c0-.28.1-.51.3-.7.19-.18.42-.27.68-.27.14 0 .27.03.39.07a.93.93 0 0 1 .53.5 1 1 0 0 1 0 .78.92.92 0 0 1-.21.32 1 1 0 0 1-.7.28zm-.68 13.78v-11h1.38v11h-1.38zm5.15 0v-15.4h1.43v14.1h6.19v1.3h-7.62zm10.67-13.78c-.27 0-.5-.1-.7-.28a.94.94 0 0 1-.28-.71.97.97 0 0 1 .98-.97c.13 0 .26.03.38.07a.93.93 0 0 1 .53.5 1 1 0 0 1 0 .78.92.92 0 0 1-.2.32 1 1 0 0 1-.7.28zm-.68 13.78v-11h1.37v11h-1.37zm14-.85c0 2.04-.46 3.56-1.38 4.54-.93.98-2.36 1.48-4.3 1.48-1.2 0-2.34-.27-3.41-.8v-1.4c1.2.66 2.33 1 3.41 1 2.88 0 4.31-1.52 4.31-4.56v-1.32h-.04a4.18 4.18 0 0 1-3.87 2.17c-.68 0-1.3-.13-1.86-.38a4.02 4.02 0 0 1-1.45-1.08 5.08 5.08 0 0 1-.93-1.73 7.34 7.34 0 0 1-.33-2.3c0-.9.11-1.71.35-2.46.24-.74.57-1.37 1.01-1.9a4.5 4.5 0 0 1 3.67-1.67c1.56 0 2.7.63 3.4 1.9h.05V148h1.38v10.15zm-1.37-5.83a3.44 3.44 0 0 0-.93-2.38 3.31 3.31 0 0 0-2.39-1 3.36 3.36 0 0 0-2.73 1.28c-.33.4-.58.9-.75 1.48a6.84 6.84 0 0 0-.27 1.97c0 .68.09 1.28.25 1.83.17.54.4 1 .7 1.38a3.12 3.12 0 0 0 2.51 1.2c.55 0 1.04-.1 1.49-.3.44-.2.82-.47 1.13-.82.32-.34.56-.75.73-1.22.18-.47.26-.98.26-1.52v-1.9zM274 159v-6.47c0-1.23-.22-2.14-.66-2.72-.45-.58-1.14-.88-2.07-.88a3.08 3.08 0 0 0-2.32 1.05c-.3.33-.55.74-.72 1.23a4.7 4.7 0 0 0-.27 1.63V159h-1.38v-16.29h1.38v7.2h.04a4.08 4.08 0 0 1 3.7-2.17c1.22 0 2.14.38 2.76 1.13.61.75.92 1.86.92 3.33v6.8H274zm9.42-.13c-.48.24-1 .36-1.55.36-1.78 0-2.67-1.03-2.67-3.08v-6.95h-1.93V148h1.93v-2.77l1.38-.45V148h2.84v1.2h-2.84v6.74c0 .74.12 1.28.36 1.61.25.33.66.5 1.24.5.43 0 .84-.13 1.24-.4v1.22zm15.01-11.32c0-.49-.07-.92-.22-1.3a2.6 2.6 0 0 0-.62-.94 2.58 2.58 0 0 0-.95-.58 4.28 4.28 0 0 0-3.22.3c-.63.33-1.23.76-1.79 1.3v-1.52a5.83 5.83 0 0 1 4.33-1.45c.13.01.24.04.36.06.53.06 1 .2 1.44.4a3.55 3.55 0 0 1 1.83 2.02 5.66 5.66 0 0 1 0 3.31c-.18.53-.43 1.01-.74 1.45-.32.45-.7.86-1.15 1.25-.45.4-.95.78-1.5 1.18-.62.44-1.15.83-1.59 1.17-.44.34-.8.67-1.1.98a3.14 3.14 0 0 0-.95 1.96l-.06.3-.02.32h7.67V159h-9.12v-.74c0-.69.08-1.28.24-1.79.16-.5.42-.98.76-1.42.34-.44.78-.88 1.32-1.31.54-.44 1.18-.93 1.94-1.48.5-.37.95-.73 1.35-1.07.4-.35.72-.71.99-1.08a4.3 4.3 0 0 0 .8-2.56zm11.6 0c0-.49-.08-.92-.23-1.3a2.6 2.6 0 0 0-.61-.94 2.58 2.58 0 0 0-.96-.58 4.28 4.28 0 0 0-3.22.3c-.63.33-1.23.76-1.79 1.3v-1.52a5.83 5.83 0 0 1 4.33-1.45c.13.01.24.04.36.06.53.06 1 .2 1.44.4a3.55 3.55 0 0 1 1.83 2.02 5.66 5.66 0 0 1 0 3.31c-.18.53-.42 1.01-.74 1.45-.32.45-.7.86-1.15 1.25-.45.4-.95.78-1.5 1.18-.62.44-1.14.83-1.59 1.17-.44.34-.8.67-1.1.98a3.14 3.14 0 0 0-.95 1.96l-.06.3-.02.32h7.67V159h-9.12v-.74c0-.69.08-1.28.24-1.79.16-.5.42-.98.76-1.42.34-.44.79-.88 1.32-1.31.54-.44 1.18-.93 1.94-1.48.5-.37.96-.73 1.35-1.07.4-.35.72-.71.99-1.08a4.3 4.3 0 0 0 .8-2.56zm6.23 9.68v6.83h-1.37V148h1.37v2.1h.05a4.37 4.37 0 0 1 3.95-2.36c.7 0 1.33.13 1.89.38a3.9 3.9 0 0 1 1.4 1.08c.39.47.68 1.03.88 1.7a8.47 8.47 0 0 1-.04 4.73c-.22.75-.55 1.4-.98 1.93a4.49 4.49 0 0 1-3.63 1.7c-1.55 0-2.7-.68-3.47-2.03h-.05zm0-2.8a3.92 3.92 0 0 0 .96 2.57 3.27 3.27 0 0 0 2.5 1.08 3.17 3.17 0 0 0 2.63-1.35c.31-.43.55-.95.72-1.55a7.66 7.66 0 0 0 .02-3.8 3.95 3.95 0 0 0-.68-1.32 2.9 2.9 0 0 0-1.05-.84 3.65 3.65 0 0 0-2.93.03c-.45.21-.84.5-1.17.87-.32.36-.57.79-.74 1.28a4.7 4.7 0 0 0-.26 1.56v1.46zm14.86-.84l3.61 5.41h-1.65l-2.24-3.64a104.93 104.93 0 0 1-.54-.88h-.04l-.16.28-.28.45-2.4 3.79h-1.63l3.72-5.38-3.6-5.62h1.6l2.29 3.86a23.5 23.5 0 0 1 .52.9h.04l.26-.41.24-.43 2.43-3.92h1.55l-3.72 5.59z"/><path fill="#737373" d="M491.66 362.72l1.53-.33-.28-.83-1.42.63.15-1.58h-.9l.15 1.57-1.42-.61-.27.82 1.52.33-1.03 1.17.72.52.78-1.34.79 1.34.72-.53-1.04-1.16zm7.45 3.07v-4.68h-.96v4.61c0 1.07-.47 1.6-1.46 1.6-.98 0-1.45-.53-1.45-1.6v-4.61h-.95v4.68c0 1.37.83 2.33 2.4 2.33 1.55 0 2.42-.96 2.42-2.33zm3.28-3.18c-1.09 0-1.9.61-1.9 1.44 0 .75.45 1.24 1.59 1.54 1.02.27 1.28.47 1.28 1.02 0 .46-.44.77-1.13.77a2.2 2.2 0 0 1-1.46-.53l-.51.58c.46.4 1.1.69 1.99.69 1.07 0 2.08-.5 2.08-1.6 0-.92-.64-1.36-1.75-1.64-.85-.22-1.13-.42-1.13-.85 0-.42.37-.69.97-.69.49 0 .9.15 1.36.48l.4-.61a2.8 2.8 0 0 0-1.79-.6zm7.22 2.6l-.02.47h-3.36c.09 1.22.66 1.69 1.42 1.69.52 0 .91-.14 1.37-.46l.4.55c-.52.41-1.11.66-1.84.66-1.47 0-2.33-1.03-2.33-2.7 0-1.64.83-2.81 2.19-2.81 1.42 0 2.17.99 2.17 2.6zm-.91-.21v-.06c0-1.03-.41-1.6-1.24-1.6-.7 0-1.16.49-1.23 1.66h2.47zm6.83-4.01c-1.27 0-2.17.74-2.17 1.8 0 1.07.7 1.58 2.04 1.99 1.17.36 1.49.66 1.49 1.33 0 .83-.67 1.23-1.48 1.23-.75 0-1.31-.27-1.78-.72l-.55.61c.57.56 1.35.89 2.34.89 1.55 0 2.46-.84 2.46-2.04 0-1.32-.94-1.75-2.04-2.09-1.24-.38-1.51-.66-1.51-1.24 0-.66.55-.98 1.24-.98.57 0 1.05.18 1.55.62l.54-.6a2.9 2.9 0 0 0-2.13-.8zm7.68 4.22l-.02.47h-3.36c.09 1.22.66 1.69 1.42 1.69.52 0 .91-.14 1.37-.46l.4.55c-.52.41-1.11.66-1.84.66-1.47 0-2.33-1.03-2.33-2.7 0-1.64.83-2.81 2.19-2.81 1.42 0 2.17.99 2.17 2.6zm-.91-.21v-.06c0-1.03-.41-1.6-1.24-1.6-.7 0-1.16.49-1.23 1.66h2.47zm7.72-2.39c-.71 0-1.19.38-1.57.95-.2-.6-.68-.95-1.33-.95-.69 0-1.17.36-1.52.89l-.08-.77h-.79V368h.92v-3.74c.35-.56.67-.93 1.24-.93.4 0 .74.23.74 1.02V368h.92v-3.74c.36-.56.67-.93 1.24-.93.4 0 .74.23.74 1.02V368h.92v-3.78c0-.99-.57-1.61-1.43-1.61zm3.73-2.41a.61.61 0 0 0-.64.63c0 .35.26.62.64.62.39 0 .65-.27.65-.62 0-.36-.26-.63-.65-.63zm.47 7.8v-5.27h-.92V368h.92zm4.99-3.64c.8.14 1.59.51 1.59 1.68 0 1.46-1.13 1.96-2.73 1.96h-1.9v-6.89h1.63c1.7 0 2.7.54 2.7 1.74 0 .85-.62 1.37-1.29 1.51zm-2.09-2.5v2.17h1.04c.77 0 1.37-.38 1.37-1.11 0-.85-.61-1.06-1.63-1.06h-.78zm.95 5.38c1 0 1.73-.2 1.73-1.2 0-.97-.72-1.28-1.55-1.28h-1.13v2.48h.95zm6.11-4.63c1.5 0 2.34 1.08 2.34 2.75 0 1.63-.86 2.76-2.35 2.76-1.5 0-2.35-1.08-2.35-2.75 0-1.63.86-2.76 2.36-2.76zm0 .74c-.88 0-1.37.64-1.37 2.02 0 1.37.48 2.01 1.36 2.01.88 0 1.36-.64 1.36-2.02 0-1.37-.48-2.01-1.35-2.01zm4.73 3.59v-6.44l-.92.11v6.35c0 .76.38 1.16 1.05 1.16.27 0 .53-.06.78-.18l-.24-.64a.9.9 0 0 1-.34.06c-.24 0-.33-.14-.33-.42zm6.14-6.33V368h-.81l-.09-.73c-.34.53-.87.85-1.52.85-1.28 0-1.99-1.09-1.99-2.73 0-1.61.78-2.78 2.07-2.78.62 0 1.07.28 1.42.65v-2.76l.92.11zm-2.22 6.78c.59 0 .95-.29 1.3-.78v-2.58c-.33-.42-.7-.69-1.22-.69-.79 0-1.28.66-1.28 2.03 0 1.39.44 2.02 1.2 2.02zm8.56-6.15c-.58 0-.78.25-.78.76v.73h1.28l-.1.71h-1.18V368h-.92v-4.56h-.94v-.71h.94v-.72c0-.88.58-1.51 1.65-1.51.5 0 .84.09 1.26.27l-.29.67c-.34-.15-.65-.2-.92-.2zm3.54 1.37c1.5 0 2.34 1.08 2.34 2.75 0 1.63-.86 2.76-2.35 2.76-1.5 0-2.35-1.08-2.35-2.75 0-1.63.86-2.76 2.36-2.76zm0 .74c-.88 0-1.37.64-1.37 2.02 0 1.37.48 2.01 1.36 2.01.88 0 1.36-.64 1.36-2.02 0-1.37-.48-2.01-1.35-2.01zm6.15-.74c-.64 0-1.13.4-1.41 1.19l-.09-1.07h-.79V368h.92v-3.01c.22-1.01.6-1.48 1.26-1.48.19 0 .3.02.46.06l.17-.9a2.24 2.24 0 0 0-.52-.06zm8.2 2.6l-.02.47h-3.36c.09 1.22.66 1.69 1.42 1.69.52 0 .91-.14 1.37-.46l.4.55c-.52.41-1.11.66-1.84.66-1.47 0-2.33-1.03-2.33-2.7 0-1.64.83-2.81 2.19-2.81 1.42 0 2.17.99 2.17 2.6zm-.91-.21v-.06c0-1.03-.41-1.6-1.24-1.6-.7 0-1.16.49-1.23 1.66h2.47zm7.72-2.39c-.71 0-1.19.38-1.57.95-.2-.6-.68-.95-1.33-.95-.69 0-1.17.36-1.52.89l-.08-.77h-.79V368h.92v-3.74c.35-.56.67-.93 1.24-.93.4 0 .74.23.74 1.02V368h.92v-3.74c.36-.56.67-.93 1.24-.93.4 0 .74.23.74 1.02V368h.92v-3.78c0-.99-.57-1.61-1.43-1.61zm5.7 0c1.4 0 1.95 1.09 1.95 2.75 0 1.6-.71 2.76-2.07 2.76a1.7 1.7 0 0 1-1.38-.6v2.5l-.92.11v-7.4h.79l.07.71c.39-.54.96-.83 1.56-.83zm-.34 4.76c.84 0 1.3-.63 1.3-2.01 0-1.37-.4-2.02-1.19-2.02-.56 0-.99.4-1.27.82v2.57c.27.41.68.64 1.16.64zm6.34-4.76a1.9 1.9 0 0 0-1.56.85v-2.94l-.92.1V368h.92v-3.75c.35-.55.76-.92 1.33-.92.5 0 .84.23.84 1.02V368h.92v-3.78c0-.99-.57-1.61-1.53-1.61zm6.93 4.16c0 .46.17.61.44.71l-.21.64c-.53-.06-.87-.27-1.03-.79a1.8 1.8 0 0 1-1.57.79c-1.05 0-1.68-.65-1.68-1.59 0-1.13.85-1.74 2.32-1.74h.81v-.39c0-.76-.37-1.04-1.1-1.04-.39 0-.88.1-1.42.28l-.23-.67a5.16 5.16 0 0 1 1.82-.36c1.27 0 1.85.65 1.85 1.75v2.41zm-2.16.66c.54 0 .94-.27 1.24-.82v-1.21h-.69c-.97 0-1.46.36-1.46 1.08 0 .62.31.95.91.95zm5.48-4.82c-1.09 0-1.9.61-1.9 1.44 0 .75.45 1.24 1.59 1.54 1.02.27 1.28.47 1.28 1.02 0 .46-.44.77-1.13.77a2.2 2.2 0 0 1-1.46-.53l-.51.58c.46.4 1.1.69 1.99.69 1.07 0 2.08-.5 2.08-1.6 0-.92-.64-1.36-1.75-1.64-.85-.22-1.13-.42-1.13-.85 0-.42.37-.69.97-.69.49 0 .9.15 1.36.48l.4-.61a2.8 2.8 0 0 0-1.79-.6zm3.69-2.41a.61.61 0 0 0-.64.63c0 .35.26.62.64.62.39 0 .65-.27.65-.62 0-.36-.26-.63-.65-.63zm.47 7.8v-5.27h-.92V368h.92zm4.99-4.57v-.7h-3.56v.78h2.51l-2.74 3.8v.69h3.71l.11-.77h-2.78l2.75-3.8zm5.26 1.78l-.02.47h-3.36c.09 1.22.66 1.69 1.42 1.69.52 0 .91-.14 1.37-.46l.4.55c-.52.41-1.11.66-1.84.66-1.47 0-2.33-1.03-2.33-2.7 0-1.64.83-2.81 2.19-2.81 1.42 0 2.17.99 2.17 2.6zm-.91-.21v-.06c0-1.03-.41-1.6-1.24-1.6-.7 0-1.16.49-1.23 1.66h2.47zm6.51-4.39V368h-.81l-.09-.73c-.34.53-.87.85-1.52.85-1.28 0-1.99-1.09-1.99-2.73 0-1.61.78-2.78 2.07-2.78.62 0 1.07.28 1.42.65v-2.76l.92.11zm-2.22 6.78c.59 0 .95-.29 1.3-.78v-2.58c-.33-.42-.7-.69-1.22-.69-.79 0-1.28.66-1.28 2.03 0 1.39.44 2.02 1.2 2.02zm8.56-6.15c-.58 0-.78.25-.78.76v.73h1.28l-.1.71h-1.18V368h-.92v-4.56h-.94v-.71h.94v-.72c0-.88.58-1.51 1.65-1.51.5 0 .84.09 1.26.27l-.29.67c-.34-.15-.65-.2-.92-.2zm3.54 1.37c1.5 0 2.34 1.08 2.34 2.75 0 1.63-.86 2.76-2.35 2.76-1.5 0-2.35-1.08-2.35-2.75 0-1.63.86-2.76 2.36-2.76zm0 .74c-.88 0-1.37.64-1.37 2.02 0 1.37.48 2.01 1.36 2.01.88 0 1.36-.64 1.36-2.02 0-1.37-.48-2.01-1.35-2.01zm6.34-.74c-.69 0-1.25.36-1.61.9l-.08-.78h-.79V368h.92v-3.74c.35-.56.75-.93 1.34-.93.51 0 .83.23.83 1.02V368h.92v-3.78c0-1-.56-1.61-1.53-1.61zm6.04 5.15l-.35-.63c-.26.16-.47.23-.7.23-.46 0-.63-.25-.63-.78v-3.14h1.15l.1-.71h-1.25v-1.3l-.92.11v1.19h-.92v.71h.92v3.18c0 .98.53 1.5 1.42 1.5a2 2 0 0 0 1.18-.36zm5.03-5.15c-1.09 0-1.9.61-1.9 1.44 0 .75.45 1.24 1.59 1.54 1.02.27 1.28.47 1.28 1.02 0 .46-.44.77-1.13.77a2.2 2.2 0 0 1-1.46-.53l-.51.58c.46.4 1.1.69 1.99.69 1.07 0 2.08-.5 2.08-1.6 0-.92-.64-1.36-1.75-1.64-.85-.22-1.13-.42-1.13-.85 0-.42.37-.69.97-.69.49 0 .9.15 1.36.48l.4-.61a2.8 2.8 0 0 0-1.79-.6zm5.9 5.15l-.35-.63c-.26.16-.47.23-.7.23-.46 0-.63-.25-.63-.78v-3.14h1.15l.1-.71h-1.25v-1.3l-.92.11v1.19h-.92v.71h.92v3.18c0 .98.53 1.5 1.42 1.5a2 2 0 0 0 1.18-.36zm3.06.27l1.76-5.3h-.95l-1.38 4.6-1.41-4.6h-.98l1.77 5.27h.31c-.3.82-.6 1.23-1.67 1.41l.1.72c1.46-.16 2.08-.98 2.45-2.1zm3.68-1.09v-6.44l-.92.11v6.35c0 .76.38 1.16 1.05 1.16.27 0 .53-.06.78-.18l-.24-.64a.9.9 0 0 1-.34.06c-.24 0-.33-.14-.33-.42zm6.04-1.73l-.02.47h-3.36c.09 1.22.66 1.69 1.42 1.69.52 0 .91-.14 1.37-.46l.4.55c-.52.41-1.11.66-1.84.66-1.47 0-2.33-1.03-2.33-2.7 0-1.64.83-2.81 2.19-2.81 1.42 0 2.17.99 2.17 2.6zm-.91-.21v-.06c0-1.03-.41-1.6-1.24-1.6-.7 0-1.16.49-1.23 1.66h2.47z"/></g></svg>