<svg xmlns="http://www.w3.org/2000/svg" style="background:#fff" viewBox="0 0 752 447"><g fill="none" fill-rule="evenodd"><path fill="#0C0C0D" d="M193.31 287.86v3.5h2.25c1.18 0 1.84-.63 1.84-1.75 0-1.1-.7-1.75-1.89-1.75h-2.2zm0 4.52V296h-1.14v-9.16h3.5c1.76 0 2.92 1.08 2.92 2.73 0 1.28-.7 2.27-1.85 2.63l2.12 3.8h-1.33l-1.97-3.62h-2.25zm9.75-2.38c-1.1 0-1.85.8-1.94 2.01h3.78c-.03-1.2-.75-2-1.84-2zm1.8 4.23h1.1c-.34 1.17-1.39 1.9-2.89 1.9-1.9 0-3.08-1.38-3.08-3.55 0-2.15 1.2-3.54 3.08-3.54 1.85 0 2.97 1.31 2.97 3.44v.42h-4.92v.05c.06 1.35.82 2.2 1.98 2.2.88 0 1.48-.32 1.76-.92zm5.67.7c1.26 0 2.03-.96 2.03-2.45 0-1.5-.77-2.46-2.03-2.46-1.27 0-1.99.97-1.99 2.46s.72 2.45 1.99 2.45zm.05 3.7c-1.65 0-2.7-.74-2.87-1.87h1.15c.12.55.73.92 1.72.92 1.22 0 1.95-.6 1.95-1.62v-1.34h-.1a2.37 2.37 0 0 1-2.15 1.18c-1.77 0-2.86-1.37-2.86-3.42s1.1-3.44 2.86-3.44c.96 0 1.8.47 2.2 1.2h.1v-1.08h1.04v6.96c0 1.53-1.18 2.5-3.04 2.5zm10.63-9.47h-1.09v4.05c0 1.2-.66 1.91-1.86 1.91-1.1 0-1.55-.57-1.55-1.8v-4.16h-1.1v4.43c0 1.62.8 2.53 2.34 2.53 1.05 0 1.78-.43 2.12-1.2h.1V296h1.04v-6.84zm2.12 6.84h1.1v-9.56h-1.1V296zm5.32-.84c1.13 0 1.96-.73 1.96-1.71v-.63l-1.84.12c-1.04.07-1.5.43-1.5 1.12 0 .7.6 1.1 1.38 1.1zm-.2.96c-1.33 0-2.3-.79-2.3-2.04 0-1.22.9-1.93 2.49-2.02l1.97-.12v-.62c0-.85-.53-1.31-1.55-1.31-.82 0-1.39.3-1.54.85h-1.1c.14-1.1 1.22-1.82 2.68-1.82 1.67 0 2.6.85 2.6 2.28V296h-1.04v-1h-.1a2.36 2.36 0 0 1-2.1 1.12zm5.27-.12h1.1v-4.24c0-.97.75-1.66 1.79-1.66.21 0 .6.03.7.06v-1.1a4.69 4.69 0 0 0-.55-.02c-.9 0-1.7.47-1.9 1.13h-.1v-1.01h-1.04V296zm10.8 0h1.15v-9.16h-1.14l-2.44 1.75v1.2l2.33-1.68h.1V296zm5.75-4.22h1.16c1.3 0 2.1.66 2.1 1.72 0 1-.85 1.72-2.06 1.72-1.18 0-2-.63-2.1-1.6h-1.1c.07 1.56 1.36 2.6 3.22 2.6 1.8 0 3.22-1.18 3.22-2.69 0-1.25-.75-2.11-2-2.27v-.1c1-.24 1.6-1.04 1.6-2.14 0-1.33-1.27-2.4-2.87-2.4-1.74 0-2.88.98-3 2.57h1.12c.1-.98.78-1.57 1.84-1.57 1.05 0 1.76.62 1.76 1.56 0 .95-.74 1.62-1.78 1.62h-1.11v.98zm9.61-2.74c1.75 0 2.88 1.39 2.88 3.54 0 2.14-1.14 3.54-2.88 3.54-.97 0-1.76-.42-2.13-1.15h-.1v3.32h-1.1v-9.13h1.04v1.14h.1a2.47 2.47 0 0 1 2.2-1.26zm-.26 6.1c1.26 0 2.01-.96 2.01-2.56s-.75-2.56-2-2.56c-1.24 0-2.02.98-2.02 2.56 0 1.57.78 2.56 2.01 2.56zm6.96-1.72l1.62 2.58h1.3l-2.36-3.47 2.32-3.37h-1.23l-1.61 2.54h-.1l-1.63-2.54h-1.3l2.37 3.42-2.34 3.42h1.23l1.63-2.58h.1zm-74.65-106.67c.1 2.17 1.93 3.55 4.67 3.55 2.9 0 4.71-1.45 4.71-3.79 0-1.82-1.02-2.84-3.45-3.38l-1.38-.32c-1.49-.34-2.1-.81-2.1-1.62 0-1.02.92-1.68 2.3-1.68 1.3 0 2.24.66 2.39 1.72h2.05c-.1-2.06-1.92-3.5-4.43-3.5-2.69 0-4.46 1.44-4.46 3.61 0 1.79 1.02 2.87 3.2 3.36l1.55.35c1.53.36 2.19.87 2.19 1.73 0 1-1.02 1.73-2.43 1.73-1.52 0-2.59-.7-2.72-1.76h-2.09zm15.38-4.38c-1.23 0-2.1.88-2.18 2.21h4.27c-.04-1.35-.85-2.2-2.09-2.2zm2.1 5.13h1.96c-.39 1.65-1.9 2.68-4.03 2.68-2.68 0-4.29-1.77-4.29-4.69 0-2.92 1.64-4.75 4.27-4.75 2.59 0 4.14 1.71 4.14 4.58v.66h-6.34v.11c.05 1.51.92 2.46 2.27 2.46 1.03 0 1.73-.38 2.03-1.05zm4.12 2.5h2.06v-5.52c0-1.11.75-1.95 1.77-1.95s1.65.6 1.65 1.6V190h2v-5.65c0-1.04.7-1.82 1.77-1.82 1.1 0 1.66.58 1.66 1.75V190h2.05v-6.24c0-1.89-1.1-3.02-2.9-3.02-1.27 0-2.32.65-2.77 1.65h-.14c-.38-1.02-1.25-1.65-2.5-1.65-1.2 0-2.14.61-2.53 1.65h-.14v-1.47h-1.98V190zm15.43 0H231v-9.08h-2.05V190zm1.02-10.56c.76 0 1.27-.48 1.27-1.14 0-.65-.51-1.13-1.27-1.13-.75 0-1.27.48-1.27 1.13 0 .66.52 1.14 1.27 1.14zM238.9 190h-5.13v-11.98h5c2.28 0 3.65 1.15 3.65 2.99a2.6 2.6 0 0 1-2.13 2.57v.14c1.61.15 2.72 1.32 2.72 2.88 0 2.1-1.56 3.4-4.11 3.4zm-2.98-10.28v3.34h2.06c1.52 0 2.33-.59 2.33-1.67 0-1.05-.76-1.67-2.05-1.67h-2.34zm0 8.58h2.49c1.57 0 2.41-.65 2.41-1.87 0-1.2-.86-1.83-2.5-1.83h-2.4v3.7zm13.12 1.88c-2.72 0-4.37-1.77-4.37-4.72 0-2.93 1.67-4.72 4.37-4.72s4.37 1.78 4.37 4.72c0 2.95-1.66 4.72-4.37 4.72zm0-1.72c1.44 0 2.25-1.1 2.25-3s-.82-3-2.25-3c-1.44 0-2.26 1.1-2.26 3s.82 3 2.26 3zm6.52 1.54h2.06v-12.6h-2.06V190zm7.95.15c-2.3 0-3.74-1.81-3.74-4.7 0-2.87 1.45-4.68 3.74-4.68 1.24 0 2.27.6 2.75 1.6h.14v-4.96h2.06V190h-1.99v-1.44h-.14a3.06 3.06 0 0 1-2.82 1.59zm.64-7.63c-1.4 0-2.27 1.11-2.27 2.94 0 1.83.86 2.94 2.27 2.94 1.42 0 2.28-1.11 2.28-2.94 0-1.81-.87-2.94-2.28-2.94zm14.32 7.48h2.15v-11.98h-2.14l-3.13 2.2v2.05l2.98-2.09h.14V190zm6.07 0h2.24l5.12-10.15v-1.83h-8.33v1.8h6.18v.14l-5.2 10.04zm14.5-9.23c2.3 0 3.75 1.78 3.75 4.69 0 2.9-1.43 4.69-3.72 4.69-1.3 0-2.31-.57-2.77-1.53h-.15v4.4h-2.05v-12.1h1.98v1.5h.14a3.08 3.08 0 0 1 2.82-1.65zm-.64 7.63c1.42 0 2.27-1.1 2.27-2.94 0-1.84-.86-2.94-2.27-2.94-1.4 0-2.28 1.13-2.29 2.94.01 1.82.88 2.94 2.29 2.94zm9.52-1.53l1.86 3.13h2.33l-2.96-4.59 2.93-4.5h-2.27l-1.8 3.13h-.13l-1.81-3.12h-2.39l2.97 4.57-2.94 4.51h2.21l1.86-3.13h.14z"/><path fill="#737373" d="M193.31 334.86v3.5h2.25c1.18 0 1.84-.63 1.84-1.75 0-1.1-.7-1.75-1.89-1.75h-2.2zm0 4.52V343h-1.14v-9.16h3.5c1.76 0 2.92 1.08 2.92 2.73 0 1.28-.7 2.27-1.85 2.63l2.12 3.8h-1.33l-1.97-3.62h-2.25zm9.75-2.38c-1.1 0-1.85.8-1.94 2.01h3.78c-.03-1.2-.75-2-1.84-2zm1.8 4.23h1.1c-.34 1.17-1.39 1.9-2.89 1.9-1.9 0-3.08-1.38-3.08-3.55 0-2.15 1.2-3.54 3.08-3.54 1.85 0 2.97 1.31 2.97 3.44v.42h-4.92v.05c.06 1.35.82 2.2 1.98 2.2.88 0 1.48-.32 1.76-.92zm5.67.7c1.26 0 2.03-.96 2.03-2.45 0-1.5-.77-2.46-2.03-2.46-1.27 0-1.99.97-1.99 2.46s.72 2.45 1.99 2.45zm.05 3.7c-1.65 0-2.7-.74-2.87-1.87h1.15c.12.55.73.92 1.72.92 1.22 0 1.95-.6 1.95-1.62v-1.34h-.1a2.37 2.37 0 0 1-2.15 1.18c-1.77 0-2.86-1.37-2.86-3.42s1.1-3.44 2.86-3.44c.96 0 1.8.47 2.2 1.2h.1v-1.08h1.04v6.96c0 1.53-1.18 2.5-3.04 2.5zm10.63-9.47h-1.09v4.05c0 1.2-.66 1.91-1.86 1.91-1.1 0-1.55-.57-1.55-1.8v-4.16h-1.1v4.43c0 1.62.8 2.53 2.34 2.53 1.05 0 1.78-.43 2.12-1.2h.1V343h1.04v-6.84zm2.12 6.84h1.1v-9.56h-1.1V343zm5.32-.84c1.13 0 1.96-.73 1.96-1.71v-.63l-1.84.12c-1.04.07-1.5.43-1.5 1.12 0 .7.6 1.1 1.38 1.1zm-.2.96c-1.33 0-2.3-.79-2.3-2.04 0-1.22.9-1.93 2.49-2.02l1.97-.12v-.62c0-.85-.53-1.31-1.55-1.31-.82 0-1.39.3-1.54.85h-1.1c.14-1.1 1.22-1.82 2.68-1.82 1.67 0 2.6.85 2.6 2.28V343h-1.04v-1h-.1a2.36 2.36 0 0 1-2.1 1.12zm5.27-.12h1.1v-4.24c0-.97.75-1.66 1.79-1.66.21 0 .6.03.7.06v-1.1a4.69 4.69 0 0 0-.55-.02c-.9 0-1.7.47-1.9 1.13h-.1v-1.01h-1.04V343zm10.8 0h1.15v-9.16h-1.14l-2.44 1.75v1.2l2.33-1.68h.1V343zm5.75-4.22h1.16c1.3 0 2.1.66 2.1 1.72 0 1-.85 1.72-2.06 1.72-1.18 0-2-.63-2.1-1.6h-1.1c.07 1.56 1.36 2.6 3.22 2.6 1.8 0 3.22-1.18 3.22-2.69 0-1.25-.75-2.11-2-2.27v-.1c1-.24 1.6-1.04 1.6-2.14 0-1.33-1.27-2.4-2.87-2.4-1.74 0-2.88.98-3 2.57h1.12c.1-.98.78-1.57 1.84-1.57 1.05 0 1.76.62 1.76 1.56 0 .95-.74 1.62-1.78 1.62h-1.11v.98zm9.61-2.74c1.75 0 2.88 1.39 2.88 3.54 0 2.14-1.14 3.54-2.88 3.54-.97 0-1.76-.42-2.13-1.15h-.1v3.32h-1.1v-9.13h1.04v1.14h.1a2.47 2.47 0 0 1 2.2-1.26zm-.26 6.1c1.26 0 2.01-.96 2.01-2.56s-.75-2.56-2-2.56c-1.24 0-2.02.98-2.02 2.56 0 1.57.78 2.56 2.01 2.56zm6.96-1.72l1.62 2.58h1.3l-2.36-3.47 2.32-3.37h-1.23l-1.61 2.54h-.1l-1.63-2.54h-1.3l2.37 3.42-2.34 3.42h1.23l1.63-2.58h.1z"/><path fill="#0C0C0D" d="M196.22 219h-4.1v-9.16h4c1.77 0 2.83.87 2.83 2.29 0 .97-.71 1.81-1.65 1.95v.11c1.2.1 2.1 1 2.1 2.19 0 1.6-1.22 2.62-3.18 2.62zm-2.2-7.7v2.34h1.45c1.03 0 1.6-.43 1.6-1.17 0-.73-.53-1.16-1.44-1.16h-1.6zm0 6.23h1.72c1.1 0 1.7-.46 1.7-1.32 0-.83-.62-1.28-1.75-1.28h-1.66v2.6zm10.02 1.62c-2.15 0-3.44-1.36-3.44-3.65 0-2.27 1.31-3.65 3.44-3.65 2.14 0 3.45 1.37 3.45 3.65 0 2.29-1.3 3.65-3.45 3.65zm0-1.5c.99 0 1.55-.8 1.55-2.15 0-1.35-.57-2.14-1.55-2.14-.98 0-1.54.79-1.54 2.14 0 1.36.55 2.14 1.54 2.14zm5.02 1.35h1.85v-9.67h-1.85V219zm6.27.1c-1.76 0-2.85-1.38-2.85-3.61s1.1-3.6 2.85-3.6c.95 0 1.73.45 2.09 1.23h.1v-3.8h1.85V219h-1.79v-1.1h-.11c-.37.76-1.17 1.2-2.14 1.2zm.63-5.67c-.98 0-1.58.78-1.58 2.07 0 1.3.59 2.07 1.58 2.07.99 0 1.59-.79 1.59-2.07 0-1.27-.6-2.07-1.6-2.07zm10.9 5.57h1.91v-9.16h-1.9l-2.37 1.63v1.79l2.24-1.55h.12V219zm6.69-3.97h1.13c1.03 0 1.66.5 1.66 1.3 0 .77-.67 1.31-1.62 1.31-.99 0-1.64-.49-1.7-1.26h-1.83c.08 1.72 1.46 2.85 3.5 2.85 2.1 0 3.6-1.16 3.6-2.76 0-1.2-.78-2.05-2.04-2.19v-.11a2.06 2.06 0 0 0 1.7-2.1c0-1.44-1.36-2.46-3.24-2.46-2 0-3.29 1.09-3.35 2.82h1.77c.05-.8.64-1.3 1.53-1.3.9 0 1.47.47 1.47 1.21 0 .75-.6 1.26-1.46 1.26h-1.12v1.43zm10.5-3.15c1.77 0 2.86 1.35 2.86 3.62 0 2.26-1.07 3.6-2.82 3.6-1 0-1.78-.43-2.12-1.17h-.11v3.4H240V212h1.79v1.15h.11a2.3 2.3 0 0 1 2.14-1.27zm-.62 5.69c1 0 1.58-.78 1.58-2.07 0-1.29-.6-2.07-1.58-2.07-.98 0-1.6.79-1.6 2.07 0 1.28.62 2.07 1.6 2.07zm7.47-.86l1.3 2.29h2.06l-2.21-3.54 2.2-3.46h-2.03l-1.23 2.3h-.12l-1.24-2.3h-2.12l2.21 3.54-2.2 3.46h1.97l1.3-2.29h.11z"/><path fill="#737373" d="M192.96 363.1v2.97h1.9c1 0 1.56-.53 1.56-1.48 0-.93-.6-1.48-1.6-1.48h-1.86zm0 3.83V370h-.97v-7.75h2.96c1.5 0 2.47.91 2.47 2.3 0 1.09-.59 1.93-1.56 2.23l1.8 3.22h-1.14l-1.66-3.07h-1.9zm8.25-2c-.93 0-1.57.67-1.64 1.7h3.19c-.02-1.03-.64-1.7-1.55-1.7zm1.52 3.57h.92c-.28 1-1.17 1.6-2.43 1.6-1.61 0-2.61-1.16-2.61-2.99 0-1.82 1.02-3 2.6-3 1.57 0 2.52 1.11 2.52 2.9v.36h-4.16v.05c.05 1.14.68 1.87 1.67 1.87.74 0 1.25-.28 1.49-.79zm4.8.6c1.07 0 1.71-.82 1.71-2.08 0-1.26-.65-2.08-1.72-2.08-1.07 0-1.67.82-1.67 2.08 0 1.26.6 2.08 1.67 2.08zm.03 3.12c-1.4 0-2.28-.62-2.42-1.58h.97c.1.47.62.78 1.45.78 1.04 0 1.66-.51 1.66-1.37v-1.13h-.09a2 2 0 0 1-1.81 1c-1.5 0-2.43-1.17-2.43-2.9 0-1.74.94-2.91 2.43-2.91.8 0 1.52.4 1.86 1.02h.08v-.92h.88v5.9c0 1.29-1 2.11-2.58 2.11zm9-8.01h-.92v3.43c0 1.01-.56 1.62-1.58 1.62-.92 0-1.3-.48-1.3-1.53v-3.52h-.93v3.75c0 1.37.68 2.14 1.98 2.14.88 0 1.5-.36 1.79-1h.09v.9h.88v-5.79zm1.8 5.79h.92v-8.09h-.92V370zm4.5-.7c.95 0 1.66-.63 1.66-1.46v-.53l-1.56.1c-.88.06-1.27.37-1.27.95 0 .59.5.93 1.17.93zm-.17.8c-1.12 0-1.96-.66-1.96-1.72 0-1.04.77-1.63 2.12-1.72l1.67-.1v-.52c0-.72-.45-1.11-1.31-1.11-.7 0-1.18.26-1.31.72h-.93c.12-.93 1.03-1.54 2.27-1.54 1.41 0 2.2.72 2.2 1.93V370h-.88v-.85h-.09a2 2 0 0 1-1.78.95zm4.46-.1h.92v-3.59c0-.81.64-1.4 1.52-1.4.18 0 .52.03.6.05v-.93a3.97 3.97 0 0 0-.47-.02c-.77 0-1.43.4-1.6.96h-.1v-.86h-.87V370zm9.14 0h.97v-7.75h-.97l-2.06 1.48v1.02l1.97-1.43h.09V370zm5.13 0h.97v-7.75h-.97l-2.06 1.48v1.02l1.97-1.43h.09V370zm6.1-5.9c1.48 0 2.43 1.18 2.43 3s-.96 3-2.43 3c-.83 0-1.5-.36-1.81-.97h-.09v2.8h-.92v-7.72h.88v.97h.09a2.09 2.09 0 0 1 1.85-1.07zm-.22 5.17c1.06 0 1.7-.81 1.7-2.17 0-1.35-.64-2.16-1.7-2.16-1.04 0-1.7.83-1.7 2.16s.66 2.17 1.7 2.17zm5.89-1.46l1.37 2.19h1.1l-2-2.93 1.97-2.86h-1.05l-1.36 2.15h-.09l-1.37-2.15h-1.1l2 2.9-1.98 2.89h1.05l1.37-2.19h.09z"/><path fill="#0C0C0D" d="M200.76 101V78.92h8.14v-1.17h-17.56v1.17h8.15V101h1.27zm10.5 0h1.24v-9.94c0-3.5 2.27-5.92 5.55-5.92 3.11 0 5.16 1.99 5.16 5.2V101h1.24V90.2c0-3.75-2.45-6.18-6.12-6.18-2.82 0-5.01 1.54-5.79 3.9h-.04V77.75h-1.25V101zm16.96 0h1.24V84.24h-1.24V101zm.63-20.88c.53 0 .98-.44.98-.99a.97.97 0 0 0-.98-.96c-.55 0-1 .42-1 .96 0 .55.45.99 1 .99zm4.48 20.88h1.26v-9.97c0-3.47 2.19-5.89 5.46-5.89 3.1 0 5.16 1.95 5.16 5.2V101h1.25V90.19c0-3.79-2.43-6.17-6.12-6.17-2.85 0-5.01 1.54-5.8 3.9h-.03v-3.68h-1.18V101zm27.3-11.5h2.62c4.32 0 6.91 1.94 6.91 5.2 0 3.17-2.78 5.5-6.54 5.5-3.66 0-6.44-2.18-6.54-5.05h-1.24c.08 3.53 3.34 6.19 7.78 6.19 4.47 0 7.83-2.8 7.83-6.67 0-3.29-2.33-5.53-5.94-5.75v-.07c3.04-.56 4.93-2.67 4.93-5.56 0-3.38-3-5.88-7-5.88-3.94 0-6.88 2.48-7.07 5.95h1.24c.2-2.78 2.63-4.8 5.79-4.8 3.38 0 5.77 2.06 5.77 4.84 0 2.92-2.44 4.97-5.95 4.97h-2.6v1.13zm18.46 0h2.63c4.32 0 6.91 1.94 6.91 5.2 0 3.17-2.79 5.5-6.54 5.5-3.66 0-6.45-2.18-6.54-5.05h-1.24c.08 3.53 3.33 6.19 7.78 6.19 4.46 0 7.83-2.8 7.83-6.67 0-3.29-2.34-5.53-5.95-5.75v-.07c3.05-.56 4.93-2.67 4.93-5.56 0-3.38-3-5.88-6.99-5.88-3.95 0-6.88 2.48-7.07 5.95h1.24c.2-2.78 2.62-4.8 5.78-4.8 3.39 0 5.77 2.06 5.77 4.84 0 2.92-2.43 4.97-5.94 4.97h-2.6v1.13zm21.6-5.48c4.21 0 7.12 3.5 7.12 8.6 0 5.13-2.89 8.6-7.1 8.6a6.37 6.37 0 0 1-6.2-4.62h-.03v9.9h-1.26V84.23h1.18v4.47h.05a6.46 6.46 0 0 1 6.25-4.7zm-.14 16.08c3.55 0 5.98-3.03 5.98-7.46 0-4.45-2.43-7.5-5.98-7.5-3.59 0-6.09 3.08-6.09 7.48 0 4.42 2.5 7.48 6.1 7.48zm15.18-6.62l5.35 7.52h1.45l-6.09-8.54 6.12-8.22h-1.46l-5.33 7.3h-.05l-5.34-7.3h-1.48l6.1 8.25-6.13 8.51h1.45l5.36-7.52h.05zM193.67 258.6v4.05h2.6c1.35 0 2.12-.73 2.12-2.03 0-1.26-.82-2.02-2.18-2.02h-2.54zm0 5.22V268h-1.32v-10.57h4.03c2.04 0 3.37 1.25 3.37 3.15 0 1.47-.8 2.62-2.12 3.03l2.44 4.39h-1.54l-2.26-4.18h-2.6zm11.25-2.74c-1.26 0-2.14.92-2.24 2.32h4.35c-.03-1.4-.86-2.32-2.11-2.32zm2.08 4.88h1.26c-.38 1.35-1.6 2.18-3.33 2.18-2.19 0-3.56-1.58-3.56-4.08 0-2.48 1.4-4.1 3.56-4.1 2.13 0 3.43 1.52 3.43 3.98v.48h-5.68v.06c.07 1.56.94 2.55 2.28 2.55 1.02 0 1.7-.38 2.04-1.07zm6.53.81c1.46 0 2.34-1.11 2.34-2.83 0-1.73-.88-2.84-2.34-2.84-1.47 0-2.29 1.11-2.29 2.84 0 1.72.82 2.83 2.29 2.83zm.06 4.26c-1.9 0-3.12-.85-3.31-2.16h1.33c.14.65.84 1.06 1.98 1.06 1.41 0 2.25-.7 2.25-1.86v-1.55h-.11c-.5.87-1.4 1.36-2.48 1.36-2.04 0-3.31-1.58-3.31-3.94 0-2.37 1.28-3.97 3.31-3.97 1.1 0 2.08.54 2.54 1.39h.11v-1.26h1.2v8.04c0 1.76-1.36 2.9-3.51 2.9zm12.27-10.93h-1.26v4.68c0 1.38-.76 2.2-2.15 2.2-1.26 0-1.79-.65-1.79-2.07v-4.8h-1.26v5.1c0 1.87.93 2.93 2.7 2.93 1.2 0 2.05-.5 2.44-1.38h.12V268h1.2v-7.9zm2.45 7.9h1.26v-11.03h-1.26V268zm6.14-.97c1.3 0 2.25-.85 2.25-1.97v-.73l-2.12.14c-1.2.08-1.73.5-1.73 1.29 0 .8.68 1.27 1.6 1.27zm-.24 1.1c-1.53 0-2.66-.9-2.66-2.34 0-1.42 1.04-2.23 2.88-2.34l2.27-.14v-.72c0-.97-.6-1.5-1.78-1.5-.95 0-1.6.35-1.78.98h-1.28c.17-1.27 1.42-2.1 3.1-2.1 1.93 0 3 .98 3 2.62V268h-1.2v-1.16h-.12a2.73 2.73 0 0 1-2.43 1.3zm6.08-.13h1.26v-4.9c0-1.1.87-1.91 2.07-1.91.25 0 .7.04.81.07V260a5.41 5.41 0 0 0-.63-.03c-1.05 0-1.96.54-2.19 1.3h-.12v-1.17h-1.2v7.9zm12.47 0h1.32v-10.57h-1.31l-2.82 2.02v1.4l2.7-1.95h.1v9.1zm7.95.25c2.2 0 3.7-1.47 3.7-3.61 0-2.08-1.41-3.54-3.42-3.54-.97 0-1.72.3-2.23.9h-.12l.3-3.39h4.86v-1.18h-5.9l-.57 6h1.24a2.42 2.42 0 0 1 2.18-1.2c1.38 0 2.33 1 2.33 2.44 0 1.45-.94 2.42-2.35 2.42-1.25 0-2.16-.76-2.27-1.9h-1.3c.12 1.82 1.55 3.06 3.55 3.06zm9.65-8.28c2.01 0 3.32 1.6 3.32 4.08 0 2.47-1.32 4.09-3.32 4.09-1.13 0-2.04-.5-2.47-1.33h-.12v3.83h-1.26V260.1h1.2v1.32h.12c.5-.9 1.45-1.45 2.53-1.45zm-.3 7.03c1.45 0 2.31-1.1 2.31-2.95 0-1.84-.86-2.95-2.3-2.95-1.43 0-2.33 1.14-2.33 2.95 0 1.81.9 2.95 2.32 2.95zm8.02-1.98l1.87 2.98h1.5l-2.72-4 2.68-3.9h-1.43l-1.85 2.94H278l-1.87-2.94h-1.5l2.73 3.95-2.7 3.95h1.42l1.88-2.98h.11zm-76.4-108.35h-7.77V142.5h-1.46V158h9.23v-1.33zm1.94 1.33h1.43v-11.17h-1.43V158zm.71-13.43c.53 0 .96-.42.96-.94a.95.95 0 0 0-.96-.94.94.94 0 0 0-.94.94c0 .52.43.94.94.94zm7.68 12.22c2.15 0 3.6-1.79 3.6-4.4 0-2.62-1.45-4.42-3.6-4.42-2.1 0-3.51 1.77-3.51 4.42s1.4 4.4 3.51 4.4zm.14 5.35c-2.44 0-4.27-1.35-4.59-3.1h1.48c.36 1.09 1.55 1.87 3.18 1.87 2.1 0 3.39-1.21 3.39-3.04v-2.24h-.03a4.04 4.04 0 0 1-3.83 2.42c-2.81 0-4.71-2.27-4.71-5.67s1.91-5.68 4.75-5.68c1.78 0 3.2.98 3.86 2.44h.04v-2.31h1.35v10.99c0 2.6-1.9 4.32-4.89 4.32zm7.43-4.14h1.43v-6.51c0-2.1 1.3-3.52 3.31-3.52 1.9 0 2.98 1.17 2.98 3.11V158h1.43v-7.17c0-2.49-1.55-4.13-4-4.13-1.78 0-3.07.82-3.68 2.22H221v-6.42h-1.43V158zm12.14-13.96v2.79h-1.66V148h1.66v7.24c0 2 .76 2.8 2.62 2.8.3 0 .9-.02 1.06-.06v-1.2l-.78.03c-1.03 0-1.48-.49-1.48-1.65v-7.16h2.2v-1.18h-2.2v-2.8h-1.42zm10 2.8v.01h1.42v-.01c.02-1.9 1.52-3.3 3.5-3.3 1.9 0 3.41 1.33 3.41 3.03 0 1.35-.56 2.28-2.77 4.6l-5.48 5.8V158h10.1v-1.31h-8.05v-.04l4.32-4.52c2.58-2.67 3.34-3.95 3.34-5.65 0-2.37-2.12-4.23-4.82-4.23-2.84 0-4.94 1.95-4.97 4.59zm12.38 0v.01h1.42v-.01c.02-1.9 1.51-3.3 3.5-3.3 1.9 0 3.4 1.33 3.4 3.03 0 1.35-.55 2.28-2.77 4.6l-5.48 5.8V158h10.11v-1.31h-8.05v-.04l4.31-4.52c2.58-2.67 3.35-3.95 3.35-5.65 0-2.37-2.12-4.23-4.83-4.23-2.83 0-4.94 1.95-4.96 4.59zm17.6-.14c2.82 0 4.75 2.3 4.75 5.71 0 3.42-1.92 5.72-4.72 5.72a4 4 0 0 1-3.8-2.43h-.05v6h-1.42v-14.87h1.35v2.3h.04a4.13 4.13 0 0 1 3.85-2.43zm-.25 10.16c2.13 0 3.55-1.77 3.55-4.45 0-2.66-1.42-4.44-3.55-4.44-2.12 0-3.57 1.81-3.57 4.44 0 2.64 1.45 4.45 3.57 4.45zm10.48-3.45L285 158h1.6l-3.86-5.67 3.9-5.5h-1.6l-3.05 4.48h-.04l-3.06-4.48h-1.6l3.87 5.55-3.92 5.62h1.59l3.08-4.59h.03z"/><rect width="226" height="26" x="473" y="351" fill="#EBEBED" rx="4"/><path fill="#737373" d="M491.66 362.72l1.53-.33-.28-.83-1.42.63.15-1.58h-.9l.15 1.57-1.42-.61-.27.82 1.52.33-1.03 1.17.72.52.78-1.34.79 1.34.72-.53-1.04-1.16zm7.45 3.07v-4.68h-.96v4.61c0 1.07-.47 1.6-1.46 1.6-.98 0-1.45-.53-1.45-1.6v-4.61h-.95v4.68c0 1.37.83 2.33 2.4 2.33 1.55 0 2.42-.96 2.42-2.33zm3.28-3.18c-1.09 0-1.9.61-1.9 1.44 0 .75.45 1.24 1.59 1.54 1.02.27 1.28.47 1.28 1.02 0 .46-.44.77-1.13.77a2.2 2.2 0 0 1-1.46-.53l-.51.58c.46.4 1.1.69 1.99.69 1.07 0 2.08-.5 2.08-1.6 0-.92-.64-1.36-1.75-1.64-.85-.22-1.13-.42-1.13-.85 0-.42.37-.69.97-.69.49 0 .9.15 1.36.48l.4-.61a2.8 2.8 0 0 0-1.79-.6zm7.22 2.6l-.02.47h-3.36c.09 1.22.66 1.69 1.42 1.69.52 0 .91-.14 1.37-.46l.4.55c-.52.41-1.11.66-1.84.66-1.47 0-2.33-1.03-2.33-2.7 0-1.64.83-2.81 2.19-2.81 1.42 0 2.17.99 2.17 2.6zm-.91-.21v-.06c0-1.03-.41-1.6-1.24-1.6-.7 0-1.16.49-1.23 1.66h2.47zm6.83-4.01c-1.27 0-2.17.74-2.17 1.8 0 1.07.7 1.58 2.04 1.99 1.17.36 1.49.66 1.49 1.33 0 .83-.67 1.23-1.48 1.23-.75 0-1.31-.27-1.78-.72l-.55.61c.57.56 1.35.89 2.34.89 1.55 0 2.46-.84 2.46-2.04 0-1.32-.94-1.75-2.04-2.09-1.24-.38-1.51-.66-1.51-1.24 0-.66.55-.98 1.24-.98.57 0 1.05.18 1.55.62l.54-.6a2.9 2.9 0 0 0-2.13-.8zm7.68 4.22l-.02.47h-3.36c.09 1.22.66 1.69 1.42 1.69.52 0 .91-.14 1.37-.46l.4.55c-.52.41-1.11.66-1.84.66-1.47 0-2.33-1.03-2.33-2.7 0-1.64.83-2.81 2.19-2.81 1.42 0 2.17.99 2.17 2.6zm-.91-.21v-.06c0-1.03-.41-1.6-1.24-1.6-.7 0-1.16.49-1.23 1.66h2.47zm7.72-2.39c-.71 0-1.19.38-1.57.95-.2-.6-.68-.95-1.33-.95-.69 0-1.17.36-1.52.89l-.08-.77h-.79V368h.92v-3.74c.35-.56.67-.93 1.24-.93.4 0 .74.23.74 1.02V368h.92v-3.74c.36-.56.67-.93 1.24-.93.4 0 .74.23.74 1.02V368h.92v-3.78c0-.99-.57-1.61-1.43-1.61zm3.73-2.41a.61.61 0 0 0-.64.63c0 .35.26.62.64.62.39 0 .65-.27.65-.62 0-.36-.26-.63-.65-.63zm.47 7.8v-5.27h-.92V368h.92zm4.99-3.64c.8.14 1.59.51 1.59 1.68 0 1.46-1.13 1.96-2.73 1.96h-1.9v-6.89h1.63c1.7 0 2.7.54 2.7 1.74 0 .85-.62 1.37-1.29 1.51zm-2.09-2.5v2.17h1.04c.77 0 1.37-.38 1.37-1.11 0-.85-.61-1.06-1.63-1.06h-.78zm.95 5.38c1 0 1.73-.2 1.73-1.2 0-.97-.72-1.28-1.55-1.28h-1.13v2.48h.95zm6.11-4.63c1.5 0 2.34 1.08 2.34 2.75 0 1.63-.86 2.76-2.35 2.76-1.5 0-2.35-1.08-2.35-2.75 0-1.63.86-2.76 2.36-2.76zm0 .74c-.88 0-1.37.64-1.37 2.02 0 1.37.48 2.01 1.36 2.01.88 0 1.36-.64 1.36-2.02 0-1.37-.48-2.01-1.35-2.01zm4.73 3.59v-6.44l-.92.11v6.35c0 .76.38 1.16 1.05 1.16.27 0 .53-.06.78-.18l-.24-.64a.9.9 0 0 1-.34.06c-.24 0-.33-.14-.33-.42zm6.14-6.33V368h-.81l-.09-.73c-.34.53-.87.85-1.52.85-1.28 0-1.99-1.09-1.99-2.73 0-1.61.78-2.78 2.07-2.78.62 0 1.07.28 1.42.65v-2.76l.92.11zm-2.22 6.78c.59 0 .95-.29 1.3-.78v-2.58c-.33-.42-.7-.69-1.22-.69-.79 0-1.28.66-1.28 2.03 0 1.39.44 2.02 1.2 2.02zm8.56-6.15c-.58 0-.78.25-.78.76v.73h1.28l-.1.71h-1.18V368h-.92v-4.56h-.94v-.71h.94v-.72c0-.88.58-1.51 1.65-1.51.5 0 .84.09 1.26.27l-.29.67c-.34-.15-.65-.2-.92-.2zm3.54 1.37c1.5 0 2.34 1.08 2.34 2.75 0 1.63-.86 2.76-2.35 2.76-1.5 0-2.35-1.08-2.35-2.75 0-1.63.86-2.76 2.36-2.76zm0 .74c-.88 0-1.37.64-1.37 2.02 0 1.37.48 2.01 1.36 2.01.88 0 1.36-.64 1.36-2.02 0-1.37-.48-2.01-1.35-2.01zm6.15-.74c-.64 0-1.13.4-1.41 1.19l-.09-1.07h-.79V368h.92v-3.01c.22-1.01.6-1.48 1.26-1.48.19 0 .3.02.46.06l.17-.9a2.24 2.24 0 0 0-.52-.06zm8.2 2.6l-.02.47h-3.36c.09 1.22.66 1.69 1.42 1.69.52 0 .91-.14 1.37-.46l.4.55c-.52.41-1.11.66-1.84.66-1.47 0-2.33-1.03-2.33-2.7 0-1.64.83-2.81 2.19-2.81 1.42 0 2.17.99 2.17 2.6zm-.91-.21v-.06c0-1.03-.41-1.6-1.24-1.6-.7 0-1.16.49-1.23 1.66h2.47zm7.72-2.39c-.71 0-1.19.38-1.57.95-.2-.6-.68-.95-1.33-.95-.69 0-1.17.36-1.52.89l-.08-.77h-.79V368h.92v-3.74c.35-.56.67-.93 1.24-.93.4 0 .74.23.74 1.02V368h.92v-3.74c.36-.56.67-.93 1.24-.93.4 0 .74.23.74 1.02V368h.92v-3.78c0-.99-.57-1.61-1.43-1.61zm5.7 0c1.4 0 1.95 1.09 1.95 2.75 0 1.6-.71 2.76-2.07 2.76a1.7 1.7 0 0 1-1.38-.6v2.5l-.92.11v-7.4h.79l.07.71c.39-.54.96-.83 1.56-.83zm-.34 4.76c.84 0 1.3-.63 1.3-2.01 0-1.37-.4-2.02-1.19-2.02-.56 0-.99.4-1.27.82v2.57c.27.41.68.64 1.16.64zm6.34-4.76a1.9 1.9 0 0 0-1.56.85v-2.94l-.92.1V368h.92v-3.75c.35-.55.76-.92 1.33-.92.5 0 .84.23.84 1.02V368h.92v-3.78c0-.99-.57-1.61-1.53-1.61zm6.93 4.16c0 .46.17.61.44.71l-.21.64c-.53-.06-.87-.27-1.03-.79a1.8 1.8 0 0 1-1.57.79c-1.05 0-1.68-.65-1.68-1.59 0-1.13.85-1.74 2.32-1.74h.81v-.39c0-.76-.37-1.04-1.1-1.04-.39 0-.88.1-1.42.28l-.23-.67a5.16 5.16 0 0 1 1.82-.36c1.27 0 1.85.65 1.85 1.75v2.41zm-2.16.66c.54 0 .94-.27 1.24-.82v-1.21h-.69c-.97 0-1.46.36-1.46 1.08 0 .62.31.95.91.95zm5.48-4.82c-1.09 0-1.9.61-1.9 1.44 0 .75.45 1.24 1.59 1.54 1.02.27 1.28.47 1.28 1.02 0 .46-.44.77-1.13.77a2.2 2.2 0 0 1-1.46-.53l-.51.58c.46.4 1.1.69 1.99.69 1.07 0 2.08-.5 2.08-1.6 0-.92-.64-1.36-1.75-1.64-.85-.22-1.13-.42-1.13-.85 0-.42.37-.69.97-.69.49 0 .9.15 1.36.48l.4-.61a2.8 2.8 0 0 0-1.79-.6zm3.69-2.41a.61.61 0 0 0-.64.63c0 .35.26.62.64.62.39 0 .65-.27.65-.62 0-.36-.26-.63-.65-.63zm.47 7.8v-5.27h-.92V368h.92zm4.99-4.57v-.7h-3.56v.78h2.51l-2.74 3.8v.69h3.71l.11-.77h-2.78l2.75-3.8zm5.26 1.78l-.02.47h-3.36c.09 1.22.66 1.69 1.42 1.69.52 0 .91-.14 1.37-.46l.4.55c-.52.41-1.11.66-1.84.66-1.47 0-2.33-1.03-2.33-2.7 0-1.64.83-2.81 2.19-2.81 1.42 0 2.17.99 2.17 2.6zm-.91-.21v-.06c0-1.03-.41-1.6-1.24-1.6-.7 0-1.16.49-1.23 1.66h2.47zm6.51-4.39V368h-.81l-.09-.73c-.34.53-.87.85-1.52.85-1.28 0-1.99-1.09-1.99-2.73 0-1.61.78-2.78 2.07-2.78.62 0 1.07.28 1.42.65v-2.76l.92.11zm-2.22 6.78c.59 0 .95-.29 1.3-.78v-2.58c-.33-.42-.7-.69-1.22-.69-.79 0-1.28.66-1.28 2.03 0 1.39.44 2.02 1.2 2.02zm8.56-6.15c-.58 0-.78.25-.78.76v.73h1.28l-.1.71h-1.18V368h-.92v-4.56h-.94v-.71h.94v-.72c0-.88.58-1.51 1.65-1.51.5 0 .84.09 1.26.27l-.29.67c-.34-.15-.65-.2-.92-.2zm3.54 1.37c1.5 0 2.34 1.08 2.34 2.75 0 1.63-.86 2.76-2.35 2.76-1.5 0-2.35-1.08-2.35-2.75 0-1.63.86-2.76 2.36-2.76zm0 .74c-.88 0-1.37.64-1.37 2.02 0 1.37.48 2.01 1.36 2.01.88 0 1.36-.64 1.36-2.02 0-1.37-.48-2.01-1.35-2.01zm6.34-.74c-.69 0-1.25.36-1.61.9l-.08-.78h-.79V368h.92v-3.74c.35-.56.75-.93 1.34-.93.51 0 .83.23.83 1.02V368h.92v-3.78c0-1-.56-1.61-1.53-1.61zm6.04 5.15l-.35-.63c-.26.16-.47.23-.7.23-.46 0-.63-.25-.63-.78v-3.14h1.15l.1-.71h-1.25v-1.3l-.92.11v1.19h-.92v.71h.92v3.18c0 .98.53 1.5 1.42 1.5a2 2 0 0 0 1.18-.36zm5.03-5.15c-1.09 0-1.9.61-1.9 1.44 0 .75.45 1.24 1.59 1.54 1.02.27 1.28.47 1.28 1.02 0 .46-.44.77-1.13.77a2.2 2.2 0 0 1-1.46-.53l-.51.58c.46.4 1.1.69 1.99.69 1.07 0 2.08-.5 2.08-1.6 0-.92-.64-1.36-1.75-1.64-.85-.22-1.13-.42-1.13-.85 0-.42.37-.69.97-.69.49 0 .9.15 1.36.48l.4-.61a2.8 2.8 0 0 0-1.79-.6zm5.9 5.15l-.35-.63c-.26.16-.47.23-.7.23-.46 0-.63-.25-.63-.78v-3.14h1.15l.1-.71h-1.25v-1.3l-.92.11v1.19h-.92v.71h.92v3.18c0 .98.53 1.5 1.42 1.5a2 2 0 0 0 1.18-.36zm3.06.27l1.76-5.3h-.95l-1.38 4.6-1.41-4.6h-.98l1.77 5.27h.31c-.3.82-.6 1.23-1.67 1.41l.1.72c1.46-.16 2.08-.98 2.45-2.1zm3.68-1.09v-6.44l-.92.11v6.35c0 .76.38 1.16 1.05 1.16.27 0 .53-.06.78-.18l-.24-.64a.9.9 0 0 1-.34.06c-.24 0-.33-.14-.33-.42zm6.04-1.73l-.02.47h-3.36c.09 1.22.66 1.69 1.42 1.69.52 0 .91-.14 1.37-.46l.4.55c-.52.41-1.11.66-1.84.66-1.47 0-2.33-1.03-2.33-2.7 0-1.64.83-2.81 2.19-2.81 1.42 0 2.17.99 2.17 2.6zm-.91-.21v-.06c0-1.03-.41-1.6-1.24-1.6-.7 0-1.16.49-1.23 1.66h2.47zm-556.2-27.01c-1.56 0-2.86 1.23-2.86 3.56 0 2.32 1.21 3.57 2.88 3.57.93 0 1.6-.38 1.97-.77l-.48-.61c-.39.29-.81.58-1.46.58-1.07 0-1.9-.78-1.9-2.77 0-2.08.87-2.78 1.91-2.78.48 0 .9.16 1.33.51l.52-.61a2.72 2.72 0 0 0-1.91-.68zm6.69 5.78c0 .46.17.61.44.71l-.21.64c-.53-.06-.87-.27-1.03-.79a1.8 1.8 0 0 1-1.57.79c-1.05 0-1.68-.65-1.68-1.59 0-1.13.85-1.74 2.32-1.74h.81v-.39c0-.76-.37-1.04-1.1-1.04-.39 0-.88.1-1.42.28l-.23-.67a5.16 5.16 0 0 1 1.82-.36c1.27 0 1.85.65 1.85 1.75v2.41zm-2.16.66c.54 0 .94-.27 1.24-.82v-1.21h-.69c-.97 0-1.46.36-1.46 1.08 0 .62.31.95.91.95zm6.47-4.82c1.4 0 1.95 1.09 1.95 2.75 0 1.6-.71 2.76-2.07 2.76a1.7 1.7 0 0 1-1.38-.6v2.5l-.92.11v-7.4h.79l.07.71c.39-.54.96-.83 1.56-.83zm-.34 4.76c.84 0 1.3-.63 1.3-2.01 0-1.37-.4-2.02-1.19-2.02-.56 0-.99.4-1.27.82v2.57c.27.41.68.64 1.16.64zm6.52.39l-.35-.63c-.26.16-.47.23-.7.23-.46 0-.63-.25-.63-.78v-3.14h1.15l.1-.71h-1.25v-1.3l-.92.11v1.19h-.92v.71h.92v3.18c0 .98.53 1.5 1.42 1.5a2 2 0 0 0 1.18-.36zm1.4-7.56a.61.61 0 0 0-.64.63c0 .35.26.62.64.62.39 0 .65-.27.65-.62 0-.36-.26-.63-.65-.63zm.47 7.8v-5.27h-.92V345h.92zm3.88-5.39c1.5 0 2.34 1.08 2.34 2.75 0 1.63-.86 2.76-2.35 2.76-1.5 0-2.35-1.08-2.35-2.75 0-1.63.86-2.76 2.36-2.76zm0 .74c-.88 0-1.37.64-1.37 2.02 0 1.37.48 2.01 1.36 2.01.88 0 1.36-.64 1.36-2.02 0-1.37-.48-2.01-1.35-2.01zm6.34-.74c-.69 0-1.25.36-1.61.9l-.08-.78h-.79V345h.92v-3.74c.35-.56.75-.93 1.34-.93.51 0 .83.23.83 1.02V345h.92v-3.78c0-1-.56-1.61-1.53-1.61zm5.09.11l1.53-.33-.28-.83-1.42.63.15-1.58h-.9l.15 1.57-1.42-.61-.27.82 1.52.33-1.03 1.17.72.52.78-1.34.79 1.34.72-.53-1.04-1.16zM122.28 97.11c1.76 0 3.45.55 3.45 3.41 0 2.81-1.75 3.48-3.24 3.48h-1.65v-6.89h1.44zm-.49.76v5.38h.77c1.08 0 2.16-.46 2.16-2.73 0-2.33-1.13-2.65-2.23-2.65h-.7zm5.89-1.67a.61.61 0 0 0-.64.63c0 .35.26.62.64.62.39 0 .65-.27.65-.62 0-.36-.26-.63-.65-.63zm.47 7.8v-5.27h-.92V104h.92zm3.33-5.39c-1.09 0-1.9.61-1.9 1.44 0 .75.45 1.24 1.59 1.54 1.02.27 1.28.47 1.28 1.02 0 .46-.44.77-1.13.77a2.2 2.2 0 0 1-1.46-.53l-.51.58c.46.4 1.1.69 1.99.69 1.07 0 2.08-.5 2.08-1.6 0-.92-.64-1.36-1.75-1.64-.85-.22-1.13-.42-1.13-.85 0-.42.37-.69.97-.69.49 0 .9.15 1.36.48l.4-.61a2.8 2.8 0 0 0-1.79-.6zm5.66 0c1.4 0 1.95 1.09 1.95 2.75 0 1.6-.71 2.76-2.07 2.76a1.7 1.7 0 0 1-1.38-.6v2.5l-.92.11v-7.4h.79l.07.71c.39-.54.96-.83 1.56-.83zm-.34 4.76c.84 0 1.3-.63 1.3-2.01 0-1.37-.4-2.02-1.19-2.02-.56 0-.99.4-1.27.82v2.57c.27.41.68.64 1.16.64zm4.73-.43V96.5l-.92.11v6.35c0 .76.38 1.16 1.05 1.16.27 0 .53-.06.78-.18l-.24-.64a.9.9 0 0 1-.34.06c-.24 0-.33-.14-.33-.42zm5.61-.17c0 .46.17.61.44.71l-.21.64c-.53-.06-.87-.27-1.03-.79a1.8 1.8 0 0 1-1.57.79c-1.05 0-1.68-.65-1.68-1.59 0-1.13.85-1.74 2.32-1.74h.81v-.39c0-.76-.37-1.04-1.1-1.04-.39 0-.88.1-1.42.28l-.23-.67a5.16 5.16 0 0 1 1.82-.36c1.27 0 1.85.65 1.85 1.75v2.41zm-2.16.66c.54 0 .94-.27 1.24-.82v-1.21h-.69c-.97 0-1.46.36-1.46 1.08 0 .62.31.95.91.95zm6.16.6l1.76-5.3h-.95l-1.38 4.6-1.41-4.6h-.98l1.77 5.27h.31c-.3.82-.6 1.23-1.67 1.41l.1.72c1.46-.16 2.08-.98 2.45-2.1zm-21.31 162.33c.8.14 1.59.51 1.59 1.68 0 1.46-1.13 1.96-2.73 1.96h-1.9v-6.89h1.63c1.7 0 2.7.54 2.7 1.74 0 .85-.62 1.37-1.29 1.51zm-2.09-2.5v2.17h1.04c.77 0 1.37-.38 1.37-1.11 0-.85-.61-1.06-1.63-1.06h-.78zm.95 5.38c1 0 1.73-.2 1.73-1.2 0-.97-.72-1.28-1.55-1.28h-1.13v2.48h.95zm6.11-4.63c1.5 0 2.34 1.08 2.34 2.75 0 1.63-.86 2.76-2.35 2.76-1.5 0-2.35-1.08-2.35-2.75 0-1.63.86-2.76 2.36-2.76zm0 .74c-.88 0-1.37.64-1.37 2.02 0 1.37.48 2.01 1.36 2.01.88 0 1.36-.64 1.36-2.02 0-1.37-.48-2.01-1.35-2.01zm7.94-2.74V270h-.81l-.09-.73c-.34.53-.87.85-1.52.85-1.28 0-1.99-1.09-1.99-2.73 0-1.61.78-2.78 2.07-2.78.62 0 1.07.28 1.42.65v-2.76l.92.11zm-2.22 6.78c.59 0 .95-.29 1.3-.78v-2.58c-.33-.42-.7-.69-1.22-.69-.79 0-1.28.66-1.28 2.03 0 1.39.44 2.02 1.2 2.02zm6.23.64l1.76-5.3h-.95l-1.38 4.6-1.41-4.6h-.98l1.77 5.27h.31c-.3.82-.6 1.23-1.67 1.41l.1.72c1.46-.16 2.08-.98 2.45-2.1zm4.52-5.31l1.53-.33-.28-.83-1.42.63.15-1.58h-.9l.15 1.57-1.42-.61-.27.82 1.52.33-1.03 1.17.72.52.78-1.34.79 1.34.72-.53-1.04-1.16zm-13.33-110.8l.1-.81h-4.92v.81h1.96V160h.95v-6.08h1.91zm1.6-1.72a.61.61 0 0 0-.64.63c0 .35.26.62.64.62.39 0 .65-.27.65-.62 0-.36-.26-.63-.65-.63zm.47 7.8v-5.27h-.92V160h.92zm4.56-.24l-.35-.63c-.26.16-.47.23-.7.23-.46 0-.63-.25-.63-.78v-3.14h1.15l.1-.71h-1.25v-1.3l-.92.11v1.19h-.92v.71h.92v3.18c0 .98.53 1.5 1.42 1.5a2 2 0 0 0 1.18-.36zm1.82-.82v-6.44l-.92.11v6.35c0 .76.38 1.16 1.05 1.16.27 0 .53-.06.78-.18l-.24-.64a.9.9 0 0 1-.34.06c-.24 0-.33-.14-.33-.42zm6.04-1.73l-.02.47h-3.36c.09 1.22.66 1.69 1.42 1.69.52 0 .91-.14 1.37-.46l.4.55c-.52.41-1.11.66-1.84.66-1.47 0-2.33-1.03-2.33-2.7 0-1.64.83-2.81 2.19-2.81 1.42 0 2.17.99 2.17 2.6zm-.91-.21v-.06c0-1.03-.41-1.6-1.24-1.6-.7 0-1.16.49-1.23 1.66h2.47z"/></g></svg>