<?xml version="1.0" encoding="UTF-8" standalone="no"?>
<svg width="200px" height="24px" viewBox="0 0 200 24" version="1.1" xmlns="http://www.w3.org/2000/svg" xmlns:xlink="http://www.w3.org/1999/xlink" xmlns:sketch="http://www.bohemiancoding.com/sketch/ns">
    <!-- Generator: Sketch 3.4.4 (17249) - http://www.bohemiancoding.com/sketch -->
    <title>input - normal</title>
    <desc>Created with Sketch.</desc>
    <defs></defs>
    <g id="All-Screens" stroke="none" stroke-width="1" fill="none" fill-rule="evenodd" sketch:type="MSPage">
        <g id="input---normal" sketch:type="MSLayerGroup">
            <rect id="Button-Shape" stroke="#B1B1B1" fill="#FFFFFF" sketch:type="MSShapeGroup" x="0" y="0" width="200" height="24"></rect>
            <path d="M9.23046875,15.8642578 L9.23046875,6 L8,6 L8,15.8642578 L9.23046875,15.8642578 Z M11.4453125,15.8642578 L12.6210938,15.8642578 L12.6210938,11.5029297 C12.6210938,10.2109375 13.3798828,9.42480469 14.5556641,9.42480469 C15.7314453,9.42480469 16.2919922,10.0537109 16.2919922,11.3798828 L16.2919922,15.8642578 L17.4677734,15.8642578 L17.4677734,11.0927734 C17.4677734,9.34277344 16.5449219,8.36523438 14.890625,8.36523438 C13.7626953,8.36523438 13.0449219,8.84375 12.6757812,9.65722656 L12.5664062,9.65722656 L12.5664062,8.49511719 L11.4453125,8.49511719 L11.4453125,15.8642578 Z M23.0527344,8.36523438 C22.0478516,8.36523438 21.1660156,8.87792969 20.6943359,9.72558594 L20.5849609,9.72558594 L20.5849609,8.49511719 L19.4638672,8.49511719 L19.4638672,18.3251953 L20.6396484,18.3251953 L20.6396484,14.7568359 L20.7490234,14.7568359 C21.1523438,15.5361328 22,15.9941406 23.0527344,15.9941406 C24.9257812,15.9941406 26.1494141,14.4833984 26.1494141,12.1796875 C26.1494141,9.86230469 24.9326172,8.36523438 23.0527344,8.36523438 L23.0527344,8.36523438 Z M22.7724609,14.9345703 C21.4462891,14.9345703 20.6054688,13.8681641 20.6054688,12.1796875 C20.6054688,10.484375 21.4462891,9.42480469 22.7792969,9.42480469 C24.1259766,9.42480469 24.9326172,10.4570312 24.9326172,12.1796875 C24.9326172,13.9023438 24.1259766,14.9345703 22.7724609,14.9345703 L22.7724609,14.9345703 Z M33.8056641,8.49511719 L32.6298828,8.49511719 L32.6298828,12.8564453 C32.6298828,14.1484375 31.9189453,14.9208984 30.6201172,14.9208984 C29.4443359,14.9208984 28.9521484,14.3056641 28.9521484,12.9794922 L28.9521484,8.49511719 L27.7763672,8.49511719 L27.7763672,13.2666016 C27.7763672,15.0097656 28.6376953,15.9941406 30.2919922,15.9941406 C31.4199219,15.9941406 32.2060547,15.5292969 32.5751953,14.7089844 L32.6845703,14.7089844 L32.6845703,15.8642578 L33.8056641,15.8642578 L33.8056641,8.49511719 Z M36.3623047,6.58789062 L36.3623047,8.49511719 L35.1728516,8.49511719 L35.1728516,9.47949219 L36.3623047,9.47949219 L36.3623047,13.9501953 C36.3623047,15.3583984 36.9707031,15.9189453 38.4882812,15.9189453 C38.7207031,15.9189453 38.9462891,15.8916016 39.1787109,15.8505859 L39.1787109,14.859375 C38.9599609,14.8798828 38.84375,14.8867188 38.6318359,14.8867188 C37.8662109,14.8867188 37.5380859,14.5175781 37.5380859,13.6494141 L37.5380859,9.47949219 L39.1787109,9.47949219 L39.1787109,8.49511719 L37.5380859,8.49511719 L37.5380859,6.58789062 L36.3623047,6.58789062 Z" id="Input" fill="#808080" sketch:type="MSShapeGroup"></path>
        </g>
    </g>
</svg>