<?xml version="1.0" encoding="UTF-8" standalone="no"?>
<svg width="204px" height="28px" viewBox="0 0 204 28" version="1.1" xmlns="http://www.w3.org/2000/svg" xmlns:xlink="http://www.w3.org/1999/xlink" xmlns:sketch="http://www.bohemiancoding.com/sketch/ns">
    <!-- Generator: Sketch 3.4.4 (17249) - http://www.bohemiancoding.com/sketch -->
    <title>input - focused</title>
    <desc>Created with Sketch.</desc>
    <defs>
        <rect id="path-1" x="0" y="0" width="200" height="24"></rect>
    </defs>
    <g id="All-Screens" stroke="none" stroke-width="1" fill="none" fill-rule="evenodd" sketch:type="MSPage">
        <g id="input---focused" sketch:type="MSLayerGroup" transform="translate(2.000000, 2.000000)">
            <g id="Button-Shape">
                <use stroke-opacity="0.5" stroke="#61B4FF" stroke-width="2" fill="#FFFFFF" fill-rule="evenodd" sketch:type="MSShapeGroup" xlink:href="#path-1"></use>
                <use stroke="#0996F8" stroke-width="1" fill="none" xlink:href="#path-1"></use>
            </g>
            <path d="M12.5322266,7.12988281 C9.74316406,7.12988281 8,9.11914062 8,12.2910156 C8,15.4492188 9.70214844,17.4589844 12.5322266,17.4589844 C15.3486328,17.4589844 17.0439453,15.4423828 17.0439453,12.2910156 C17.0439453,9.12597656 15.3349609,7.12988281 12.5322266,7.12988281 L12.5322266,7.12988281 Z M12.5322266,8.26464844 C14.5488281,8.26464844 15.7792969,9.82324219 15.7792969,12.2910156 C15.7792969,14.7382812 14.5556641,16.3242188 12.5322266,16.3242188 C10.4814453,16.3242188 9.26464844,14.7382812 9.26464844,12.2910156 C9.26464844,9.82324219 10.5224609,8.26464844 12.5322266,8.26464844 L12.5322266,8.26464844 Z M20.1748047,17.2265625 L20.1748047,9.69335938 L20.2568359,9.69335938 L23.3671875,17.1582031 L24.40625,17.1582031 L27.5166016,9.69335938 L27.5986328,9.69335938 L27.5986328,17.2265625 L28.7470703,17.2265625 L28.7470703,7.36230469 L27.3183594,7.36230469 L23.9414062,15.5244141 L23.8320312,15.5244141 L20.4550781,7.36230469 L19.0263672,7.36230469 L19.0263672,17.2265625 L20.1748047,17.2265625 Z M39.390625,13.4121094 L39.390625,12.2089844 L35.3916016,12.2089844 L35.3916016,13.2890625 L38.1669922,13.2890625 L38.1669922,13.5283203 C38.1669922,15.1962891 36.9707031,16.3242188 35.2070312,16.3242188 C33.2246094,16.3242188 31.9941406,14.7792969 31.9941406,12.2910156 C31.9941406,9.83691406 33.2451172,8.26464844 35.2001953,8.26464844 C36.6630859,8.26464844 37.6542969,8.96875 38.078125,10.3017578 L39.3291016,10.3017578 C38.9736328,8.34667969 37.3876953,7.12988281 35.2001953,7.12988281 C32.5,7.12988281 30.7294922,9.17382812 30.7294922,12.2910156 C30.7294922,15.4492188 32.4726562,17.4589844 35.2001953,17.4589844 C37.7226562,17.4589844 39.390625,15.8457031 39.390625,13.4121094 L39.390625,13.4121094 Z M44.7431641,14.6494141 C44.8730469,16.3515625 46.3154297,17.4589844 48.4072266,17.4589844 C50.6630859,17.4589844 52.0917969,16.3037109 52.0917969,14.4921875 C52.0917969,13.0429688 51.2714844,12.25 49.2275391,11.7373047 L48.1953125,11.4638672 C46.8349609,11.1152344 46.2949219,10.6708984 46.2949219,9.8984375 C46.2949219,8.90039062 47.1630859,8.24414062 48.4755859,8.24414062 C49.7060547,8.24414062 50.5400391,8.84570312 50.7109375,9.85742188 L51.9482422,9.85742188 C51.8457031,8.26464844 50.4238281,7.12988281 48.5166016,7.12988281 C46.4316406,7.12988281 45.0302734,8.26464844 45.0302734,9.93945312 C45.0302734,11.3408203 45.8027344,12.1474609 47.5869141,12.5986328 L48.8515625,12.9267578 C50.2119141,13.2685547 50.8271484,13.8017578 50.8271484,14.6425781 C50.8271484,15.6201172 49.8496094,16.3378906 48.5234375,16.3378906 C47.1220703,16.3378906 46.1376953,15.6816406 45.9873047,14.6494141 L44.7431641,14.6494141 Z M54.3271484,7.95019531 L54.3271484,9.85742188 L53.1376953,9.85742188 L53.1376953,10.8417969 L54.3271484,10.8417969 L54.3271484,15.3125 C54.3271484,16.7207031 54.9355469,17.28125 56.453125,17.28125 C56.6855469,17.28125 56.9111328,17.2539062 57.1435547,17.2128906 L57.1435547,16.2216797 C56.9248047,16.2421875 56.8085938,16.2490234 56.5966797,16.2490234 C55.8310547,16.2490234 55.5029297,15.8798828 55.5029297,15.0117188 L55.5029297,10.8417969 L57.1435547,10.8417969 L57.1435547,9.85742188 L55.5029297,9.85742188 L55.5029297,7.95019531 L54.3271484,7.95019531 Z M64.7314453,9.85742188 L63.5556641,9.85742188 L63.5556641,14.21875 C63.5556641,15.5107422 62.8447266,16.2832031 61.5458984,16.2832031 C60.3701172,16.2832031 59.8779297,15.6679688 59.8779297,14.3417969 L59.8779297,9.85742188 L58.7021484,9.85742188 L58.7021484,14.6289062 C58.7021484,16.3720703 59.5634766,17.3564453 61.2177734,17.3564453 C62.3457031,17.3564453 63.1318359,16.8916016 63.5009766,16.0712891 L63.6103516,16.0712891 L63.6103516,17.2265625 L64.7314453,17.2265625 L64.7314453,9.85742188 Z M67.4931641,17.2265625 L68.6689453,17.2265625 L68.6689453,10.8417969 L70.3574219,10.8417969 L70.3574219,9.85742188 L68.6689453,9.85742188 L68.6689453,9.17382812 C68.6689453,8.34667969 69.0654297,7.99121094 69.7695312,7.99121094 C70.0019531,7.99121094 70.2685547,8.01855469 70.4257812,8.05273438 L70.4257812,7.06835938 C70.1386719,7.02050781 69.9335938,7 69.7011719,7 C68.2792969,7 67.4931641,7.62890625 67.4931641,9.13964844 L67.4931641,9.85742188 L66.2695312,9.85742188 L66.2695312,10.8417969 L67.4931641,10.8417969 L67.4931641,17.2265625 Z M72.4082031,17.2265625 L73.5839844,17.2265625 L73.5839844,10.8417969 L75.2724609,10.8417969 L75.2724609,9.85742188 L73.5839844,9.85742188 L73.5839844,9.17382812 C73.5839844,8.34667969 73.9804688,7.99121094 74.6845703,7.99121094 C74.9169922,7.99121094 75.1835938,8.01855469 75.3408203,8.05273438 L75.3408203,7.06835938 C75.0537109,7.02050781 74.8486328,7 74.6162109,7 C73.1943359,7 72.4082031,7.62890625 72.4082031,9.13964844 L72.4082031,9.85742188 L71.1845703,9.85742188 L71.1845703,10.8417969 L72.4082031,10.8417969 L72.4082031,17.2265625 Z" id="OMG-Stuff" fill="#000000" sketch:type="MSShapeGroup"></path>
        </g>
    </g>
</svg>