<svg xmlns="http://www.w3.org/2000/svg" viewBox="0 0 1857 785.51"><title>tone-1</title><line x1="273.69" y1="98.71" x2="1573.69" y2="98.71" fill="none" stroke="#0c0c0d" stroke-miterlimit="10" stroke-width="2"/><line x1="273.69" y1="278.72" x2="1573.69" y2="278.72" fill="none" stroke="#0c0c0d" stroke-miterlimit="10" stroke-width="2"/><line x1="273.69" y1="458.73" x2="1573.69" y2="458.73" fill="none" stroke="#0c0c0d" stroke-miterlimit="10" stroke-width="2"/><line x1="273.69" y1="638.73" x2="1573.69" y2="638.73" fill="none" stroke="#0c0c0d" stroke-miterlimit="10" stroke-width="2"/><line x1="923.69" y1="30.62" x2="923.69" y2="720.62" fill="none" stroke="#0c0c0d" stroke-miterlimit="10" stroke-width="2"/><rect x="634.23" y="63.4" width="546.93" height="70.63" fill="#00feff"/><rect x="365.07" y="243.41" width="546.93" height="70.63" fill="#00feff"/><rect x="1216" y="423.41" width="356.23" height="70.63" fill="#00feff"/><rect x="554.18" y="603.42" width="543.89" height="70.63" fill="#00feff"/><path d="M1625.39,87.66l-1.78,2a7.31,7.31,0,0,0-5.12-2c-2.28,0-4.09,1.06-4.09,3.23,0,1.91.89,2.84,5,4.09,3.63,1.12,6.73,2.54,6.73,6.9,0,4-3,6.73-8.12,6.73a10.64,10.64,0,0,1-7.72-2.94l1.82-2A8.08,8.08,0,0,0,1618,106c2.67,0,4.88-1.32,4.88-4.06,0-2.21-1.06-3.2-4.92-4.39-4.42-1.35-6.73-3-6.73-6.57s3-5.94,7.16-5.94A9.59,9.59,0,0,1,1625.39,87.66Z" fill="#0c0c0d"/><path d="M1643.64,100.5h-11.09c.3,4,2.18,5.58,4.69,5.58a7.32,7.32,0,0,0,4.52-1.52l1.32,1.82a9.48,9.48,0,0,1-6.07,2.18c-4.85,0-7.69-3.4-7.69-8.91s2.74-9.27,7.23-9.27c4.69,0,7.16,3.27,7.16,8.58C1643.7,99.55,1643.67,100.11,1643.64,100.5Zm-2.94-2.44c0-3.4-1.35-5.28-4.09-5.28-2.31,0-3.83,1.62-4.06,5.48h8.15Z" fill="#0c0c0d"/><path d="M1658,90.57l-.56,3a5.45,5.45,0,0,0-1.52-.2c-2.18,0-3.43,1.55-4.16,4.88v9.93h-3V90.77h2.61l.3,3.53c.92-2.61,2.54-3.93,4.65-3.93A7.39,7.39,0,0,1,1658,90.57Z" fill="#0c0c0d"/><path d="M1665.09,84.5a2.13,2.13,0,1,1-2.15-2.08A2,2,0,0,1,1665.09,84.5Zm-3.63,23.66V90.77h3v17.39Z" fill="#0c0c0d"/><path d="M1685,99.45c0,5.38-2.84,9.11-7.76,9.11s-7.76-3.56-7.76-9.08,2.84-9.11,7.79-9.11S1685,93.94,1685,99.45Zm-12.25,0c0,4.52,1.58,6.63,4.49,6.63s4.49-2.11,4.49-6.67-1.58-6.63-4.46-6.63S1672.77,94.93,1672.77,99.48Z" fill="#0c0c0d"/><path d="M1700.36,108.16l-.23-2.71a5.84,5.84,0,0,1-5.41,3.1c-3,0-4.85-1.91-4.85-5.31V90.77h3v12.15c0,2.38.79,3.27,2.67,3.27s3.3-1.25,4.36-3V90.77h3v17.39Z" fill="#0c0c0d"/><path d="M1719.87,92.35l-1.32,2a7.31,7.31,0,0,0-4.49-1.58c-2,0-3.2.89-3.2,2.28s.92,2.08,3.73,2.81c3.66.92,5.78,2.38,5.78,5.41,0,3.63-3.33,5.28-6.86,5.28a9.65,9.65,0,0,1-6.57-2.28l1.68-1.91a7.26,7.26,0,0,0,4.82,1.75c2.28,0,3.73-1,3.73-2.54,0-1.81-.86-2.48-4.22-3.37-3.76-1-5.25-2.61-5.25-5.08,0-2.74,2.67-4.75,6.27-4.75A9.24,9.24,0,0,1,1719.87,92.35Z" fill="#0c0c0d"/><path d="M1615.88,268.73v7.76h7.43V279h-7.43v10h-3.14V266.22h12.08l-.36,2.51Z" fill="#0c0c0d"/><path d="M1642.38,280.25c0,5.38-2.84,9.11-7.76,9.11s-7.76-3.56-7.76-9.08,2.84-9.11,7.79-9.11S1642.38,274.74,1642.38,280.25Zm-12.24,0c0,4.52,1.58,6.63,4.49,6.63s4.49-2.11,4.49-6.67-1.58-6.63-4.46-6.63S1630.14,275.73,1630.14,280.28Z" fill="#0c0c0d"/><path d="M1656.67,271.37l-.56,3a5.47,5.47,0,0,0-1.52-.2c-2.18,0-3.43,1.55-4.16,4.88V289h-3V271.57H1650l.3,3.53c.92-2.61,2.54-3.93,4.65-3.93A7.38,7.38,0,0,1,1656.67,271.37Z" fill="#0c0c0d"/><path d="M1682.31,276.48V289h-3v-12c0-2.61-1.12-3.37-2.44-3.37-1.88,0-2.9,1.22-4.09,3.07V289h-3v-12c0-2.61-1.12-3.37-2.44-3.37-1.88,0-2.94,1.22-4.09,3.07V289h-3V271.57h2.61l.26,2.54a5.81,5.81,0,0,1,5-2.94,4.38,4.38,0,0,1,4.39,3.14c1.25-1.88,2.84-3.14,5.18-3.14C1680.43,271.17,1682.31,273.22,1682.31,276.48Z" fill="#0c0c0d"/><path d="M1701.59,287.24l-.69,2.11a3.51,3.51,0,0,1-3.4-2.61,5.92,5.92,0,0,1-5.18,2.61c-3.47,0-5.54-2.15-5.54-5.25,0-3.73,2.81-5.74,7.66-5.74h2.67v-1.29c0-2.51-1.22-3.43-3.63-3.43a15.56,15.56,0,0,0-4.69.92l-.76-2.21a17,17,0,0,1,6-1.19c4.19,0,6.11,2.15,6.11,5.78v8C1700.13,286.42,1700.69,286.91,1701.59,287.24Zm-4.49-2.87v-4h-2.28c-3.2,0-4.82,1.19-4.82,3.56,0,2,1,3.14,3,3.14A4.47,4.47,0,0,0,1697.1,284.37Z" fill="#0c0c0d"/><path d="M1710.33,286.85a3,3,0,0,0,1.12-.2l.79,2.11a5.87,5.87,0,0,1-2.57.59c-2.21,0-3.47-1.32-3.47-3.83v-21l3-.36v21.25C1709.24,286.39,1709.54,286.85,1710.33,286.85Z" fill="#0c0c0d"/><path d="M1615.88,460.12v9.64h-3.14V447h6c5.68,0,8.65,2.18,8.65,6.44,0,3.2-1.65,5.12-4.92,6.11l6.14,10.2h-3.73l-5.45-9.64Zm8.15-6.67c0-2.84-1.62-4-5.35-4h-2.81v8.25h3.17C1622.22,457.71,1624,456.53,1624,453.46Z" fill="#0c0c0d"/><path d="M1644.79,462.1H1633.7c.3,4,2.18,5.58,4.69,5.58a7.32,7.32,0,0,0,4.52-1.52l1.32,1.82a9.48,9.48,0,0,1-6.07,2.18c-4.85,0-7.69-3.4-7.69-8.91s2.74-9.27,7.23-9.27c4.69,0,7.16,3.27,7.16,8.58C1644.86,461.15,1644.83,461.71,1644.79,462.1Zm-2.94-2.44c0-3.4-1.35-5.28-4.09-5.28-2.31,0-3.83,1.62-4.06,5.48h8.15Z" fill="#0c0c0d"/><path d="M1660.5,454l-1.32,2a7.32,7.32,0,0,0-4.49-1.58c-2,0-3.2.89-3.2,2.28s.92,2.08,3.73,2.81c3.66.92,5.78,2.38,5.78,5.41,0,3.63-3.33,5.28-6.87,5.28a9.65,9.65,0,0,1-6.57-2.28l1.68-1.91a7.26,7.26,0,0,0,4.82,1.75c2.28,0,3.73-1,3.73-2.54,0-1.81-.86-2.47-4.22-3.37-3.76-1-5.25-2.61-5.25-5.08,0-2.74,2.67-4.75,6.27-4.75A9.23,9.23,0,0,1,1660.5,454Z" fill="#0c0c0d"/><path d="M1679.71,461c0,5.28-2.34,9.11-6.83,9.11a5.61,5.61,0,0,1-4.55-2v8.25l-3,.36V452.37h2.61l.23,2.34a6.32,6.32,0,0,1,5.15-2.74C1677.89,452,1679.71,455.57,1679.71,461Zm-3.27,0c0-4.52-1.32-6.67-3.93-6.67a5.3,5.3,0,0,0-4.19,2.71v8.48a4.48,4.48,0,0,0,3.83,2.11C1674.92,467.68,1676.44,465.6,1676.44,461Z" fill="#0c0c0d"/><path d="M1698,462.1h-11.09c.3,4,2.18,5.58,4.69,5.58a7.32,7.32,0,0,0,4.52-1.52l1.32,1.82a9.48,9.48,0,0,1-6.07,2.18c-4.85,0-7.69-3.4-7.69-8.91s2.74-9.27,7.23-9.27c4.69,0,7.16,3.27,7.16,8.58C1698,461.15,1698,461.71,1698,462.1Zm-2.94-2.44c0-3.4-1.35-5.28-4.09-5.28-2.31,0-3.83,1.62-4.06,5.48H1695Z" fill="#0c0c0d"/><path d="M1714.69,453.85l-1.49,2a5.51,5.51,0,0,0-3.7-1.35c-2.74,0-4.46,2.15-4.46,6.67s1.72,6.44,4.46,6.44a5.67,5.67,0,0,0,3.73-1.42l1.45,2.08a8.21,8.21,0,0,1-5.31,1.91c-4.69,0-7.59-3.33-7.59-8.94s2.87-9.24,7.59-9.24A7.73,7.73,0,0,1,1714.69,453.85Z" fill="#0c0c0d"/><path d="M1723.69,470.16c-2.94,0-4.69-1.72-4.69-5v-10.5h-3v-2.34h3v-3.93l3-.36v4.29h4.13l-.33,2.34H1722v10.36c0,1.75.56,2.57,2.08,2.57a4.25,4.25,0,0,0,2.31-.76l1.15,2.08A6.63,6.63,0,0,1,1723.69,470.16Z" fill="#0c0c0d"/><path d="M1734.05,450v2.41h4.22l-.33,2.34h-3.89v15h-3v-15h-3.1v-2.34h3.1V450c0-2.9,1.91-5,5.45-5a9.6,9.6,0,0,1,4.16.89l-1,2.21a7.44,7.44,0,0,0-3-.66C1734.72,447.45,1734.05,448.27,1734.05,450Z" fill="#0c0c0d"/><path d="M1753.1,469.76l-.23-2.71a5.84,5.84,0,0,1-5.41,3.1c-3,0-4.85-1.91-4.85-5.31V452.37h3v12.15c0,2.38.79,3.27,2.67,3.27s3.3-1.25,4.36-3V452.37h3v17.39Z" fill="#0c0c0d"/><path d="M1765.93,467.65a3,3,0,0,0,1.12-.2l.79,2.11a5.87,5.87,0,0,1-2.57.59c-2.21,0-3.47-1.32-3.47-3.83v-21l3-.36v21.25C1764.84,467.19,1765.14,467.65,1765.93,467.65Z" fill="#0c0c0d"/><path d="M1630,652l-.79-10.26c-.3-3.56-.53-7.39-.56-9.27l-4.92,17h-2.94l-5.18-17c0,2.67-.17,6.21-.43,9.54l-.76,10h-3l1.88-22.74h4.22l4.79,16.54,4.55-16.54h4.26l1.88,22.74Z" fill="#0c0c0d"/><path d="M1652,650.31l-.69,2.11a3.5,3.5,0,0,1-3.4-2.61,5.92,5.92,0,0,1-5.18,2.61c-3.47,0-5.54-2.14-5.54-5.25,0-3.73,2.81-5.74,7.66-5.74h2.67v-1.29c0-2.51-1.22-3.43-3.63-3.43a15.58,15.58,0,0,0-4.69.92l-.76-2.21a17,17,0,0,1,6-1.19c4.19,0,6.11,2.15,6.11,5.78v8C1650.57,649.49,1651.13,650,1652,650.31Zm-4.49-2.87v-4h-2.28c-3.2,0-4.82,1.19-4.82,3.56,0,2,1,3.13,3,3.13A4.47,4.47,0,0,0,1647.53,647.44Z" fill="#0c0c0d"/><path d="M1661.69,652.43c-2.94,0-4.69-1.72-4.69-5V637h-3v-2.34h3v-3.93l3-.36v4.29h4.13l-.33,2.34H1660v10.36c0,1.75.56,2.57,2.08,2.57a4.25,4.25,0,0,0,2.31-.76l1.15,2.08A6.63,6.63,0,0,1,1661.69,652.43Z" fill="#0c0c0d"/><path d="M1673.6,652.43c-2.94,0-4.69-1.72-4.69-5V637h-3v-2.34h3v-3.93l3-.36v4.29h4.13l-.33,2.34H1672v10.36c0,1.75.56,2.57,2.08,2.57a4.25,4.25,0,0,0,2.31-.76l1.15,2.08A6.63,6.63,0,0,1,1673.6,652.43Z" fill="#0c0c0d"/><path d="M1693.37,644.37h-11.09c.3,4,2.18,5.58,4.69,5.58a7.33,7.33,0,0,0,4.52-1.52l1.32,1.82a9.48,9.48,0,0,1-6.07,2.18c-4.85,0-7.69-3.4-7.69-8.91s2.74-9.27,7.23-9.27c4.69,0,7.16,3.27,7.16,8.58C1693.43,643.42,1693.4,644,1693.37,644.37Zm-2.94-2.44c0-3.4-1.35-5.28-4.09-5.28-2.31,0-3.83,1.62-4.06,5.48h8.15Z" fill="#0c0c0d"/><path d="M1707.72,634.44l-.56,3a5.47,5.47,0,0,0-1.52-.2c-2.18,0-3.43,1.55-4.16,4.88V652h-3V634.64h2.61l.3,3.53c.92-2.61,2.54-3.93,4.65-3.93A7.4,7.4,0,0,1,1707.72,634.44Z" fill="#0c0c0d"/><path d="M1734.19,643.32c0,5.38-2.84,9.11-7.76,9.11s-7.76-3.56-7.76-9.08,2.84-9.11,7.79-9.11S1734.19,637.81,1734.19,643.32Zm-12.25,0c0,4.52,1.58,6.63,4.49,6.63s4.49-2.11,4.49-6.67-1.58-6.63-4.46-6.63S1721.94,638.8,1721.94,643.35Z" fill="#0c0c0d"/><path d="M1742.54,632.23v2.41h4.22l-.33,2.34h-3.89V652h-3V637h-3.1v-2.34h3.1v-2.38c0-2.9,1.91-5,5.45-5a9.58,9.58,0,0,1,4.16.89l-1,2.21a7.44,7.44,0,0,0-3-.66C1743.2,629.72,1742.54,630.54,1742.54,632.23Z" fill="#0c0c0d"/><path d="M1762.34,632.23v2.41h4.22l-.33,2.34h-3.89V652h-3V637h-3.1v-2.34h3.1v-2.38c0-2.9,1.91-5,5.45-5a9.58,9.58,0,0,1,4.16.89l-1,2.21a7.44,7.44,0,0,0-3-.66C1763,629.72,1762.34,630.54,1762.34,632.23Z" fill="#0c0c0d"/><path d="M1783.23,650.31l-.69,2.11a3.5,3.5,0,0,1-3.4-2.61,5.92,5.92,0,0,1-5.18,2.61c-3.47,0-5.54-2.14-5.54-5.25,0-3.73,2.81-5.74,7.66-5.74h2.67v-1.29c0-2.51-1.22-3.43-3.63-3.43a15.58,15.58,0,0,0-4.69.92l-.76-2.21a17,17,0,0,1,6-1.19c4.19,0,6.11,2.15,6.11,5.78v8C1781.77,649.49,1782.33,650,1783.23,650.31Zm-4.49-2.87v-4h-2.28c-3.2,0-4.82,1.19-4.82,3.56,0,2,1,3.13,3,3.13A4.47,4.47,0,0,0,1778.74,647.44Z" fill="#0c0c0d"/><path d="M1799.66,636.12l-1.49,2a5.51,5.51,0,0,0-3.7-1.35c-2.74,0-4.46,2.15-4.46,6.67s1.72,6.44,4.46,6.44a5.68,5.68,0,0,0,3.73-1.42l1.45,2.08a8.21,8.21,0,0,1-5.31,1.91c-4.69,0-7.59-3.33-7.59-8.94s2.87-9.24,7.59-9.24A7.73,7.73,0,0,1,1799.66,636.12Z" fill="#0c0c0d"/><path d="M1808.67,652.43c-2.94,0-4.69-1.72-4.69-5V637h-3v-2.34h3v-3.93l3-.36v4.29h4.13l-.33,2.34H1807v10.36c0,1.75.56,2.57,2.08,2.57a4.25,4.25,0,0,0,2.31-.76l1.16,2.08A6.63,6.63,0,0,1,1808.67,652.43Z" fill="#0c0c0d"/><path d="M147,94.83c0,5.21-3.79,7.36-8.81,7.36h-2.87v8.35h-3.14V87.8h6C143.64,87.8,147,90,147,94.83Zm-3.33,0c0-3.4-2.18-4.62-5.54-4.62h-2.81v9.47h2.74C141.43,99.72,143.67,98.73,143.67,94.87Z" fill="#0c0c0d"/><path d="M155.15,108.43a3,3,0,0,0,1.12-.2l.79,2.11a5.87,5.87,0,0,1-2.57.59c-2.21,0-3.47-1.32-3.47-3.83v-21l3-.36V107C154.06,108,154.36,108.43,155.15,108.43Z" fill="#0c0c0d"/><path d="M174,108.83l-.69,2.11a3.5,3.5,0,0,1-3.4-2.61,5.93,5.93,0,0,1-5.18,2.61c-3.46,0-5.54-2.15-5.54-5.25,0-3.73,2.8-5.74,7.66-5.74h2.67V98.66c0-2.51-1.22-3.43-3.63-3.43a15.56,15.56,0,0,0-4.69.92l-.76-2.21a17,17,0,0,1,6-1.19c4.19,0,6.11,2.15,6.11,5.78v8C172.58,108,173.14,108.5,174,108.83ZM169.54,106v-4h-2.28c-3.2,0-4.82,1.19-4.82,3.56,0,2,1,3.14,3,3.14A4.47,4.47,0,0,0,169.54,106Z" fill="#0c0c0d"/><path d="M177.36,117.57,177,115.2c3.53-.59,4.52-1.95,5.51-4.65h-1l-5.84-17.39h3.23l4.65,15.18,4.55-15.18h3.14l-5.81,17.49C184.23,114.34,182.18,117,177.36,117.57Z" fill="#0c0c0d"/><path d="M198.05,90.74v2.41h4.22l-.33,2.34h-3.89v15.05h-3V95.49h-3.1V93.15H195V90.77c0-2.9,1.91-5,5.45-5a9.59,9.59,0,0,1,4.16.89l-1,2.21a7.44,7.44,0,0,0-3-.66C198.71,88.23,198.05,89.06,198.05,90.74Z" fill="#0c0c0d"/><path d="M217.09,110.54l-.23-2.71a5.84,5.84,0,0,1-5.41,3.1c-3,0-4.85-1.91-4.85-5.31V93.15h3v12.15c0,2.38.79,3.27,2.67,3.27s3.3-1.25,4.36-3V93.15h3v17.39Z" fill="#0c0c0d"/><path d="M229.93,108.43a3,3,0,0,0,1.12-.2l.79,2.11a5.88,5.88,0,0,1-2.57.59c-2.21,0-3.47-1.32-3.47-3.83v-21l3-.36V107C228.84,108,229.14,108.43,229.93,108.43Z" fill="#0c0c0d"/><path d="M151.39,270.45l-1.72,2a6.68,6.68,0,0,0-4.39-1.68c-3.43,0-6.3,2.31-6.3,9.18,0,6.57,2.74,9.14,6.27,9.14a7.63,7.63,0,0,0,4.82-1.91l1.58,2a8.88,8.88,0,0,1-6.5,2.54c-5.51,0-9.5-4.13-9.5-11.78s4.29-11.75,9.44-11.75A9,9,0,0,1,151.39,270.45Z" fill="#0c0c0d"/><path d="M168.62,289.63l-.69,2.11a3.51,3.51,0,0,1-3.4-2.61,5.92,5.92,0,0,1-5.18,2.61c-3.47,0-5.54-2.15-5.54-5.25,0-3.73,2.81-5.74,7.66-5.74h2.67v-1.29c0-2.51-1.22-3.43-3.63-3.43a15.56,15.56,0,0,0-4.69.92l-.76-2.21a17,17,0,0,1,6-1.19c4.19,0,6.11,2.15,6.11,5.78v8C167.17,288.8,167.73,289.3,168.62,289.63Zm-4.49-2.87v-4h-2.28c-3.2,0-4.82,1.19-4.82,3.56,0,2,1,3.14,3,3.14A4.47,4.47,0,0,0,164.13,286.75Z" fill="#0c0c0d"/><path d="M184,275.53l-1.32,2a7.31,7.31,0,0,0-4.49-1.58c-2,0-3.2.89-3.2,2.28s.92,2.08,3.73,2.81c3.66.92,5.78,2.38,5.78,5.41,0,3.63-3.33,5.28-6.87,5.28a9.64,9.64,0,0,1-6.57-2.28l1.68-1.91a7.26,7.26,0,0,0,4.82,1.75c2.28,0,3.73-1,3.73-2.54,0-1.81-.86-2.48-4.22-3.37-3.76-1-5.25-2.61-5.25-5.08,0-2.74,2.67-4.75,6.27-4.75A9.24,9.24,0,0,1,184,275.53Z" fill="#0c0c0d"/><path d="M199.14,291.34l-.23-2.71a5.84,5.84,0,0,1-5.41,3.1c-3,0-4.85-1.91-4.85-5.31V273.95h3v12.15c0,2.38.79,3.27,2.67,3.27s3.3-1.25,4.36-3V273.95h3v17.39Z" fill="#0c0c0d"/><path d="M221.19,289.63l-.69,2.11a3.5,3.5,0,0,1-3.4-2.61,5.93,5.93,0,0,1-5.18,2.61c-3.46,0-5.54-2.15-5.54-5.25,0-3.73,2.8-5.74,7.66-5.74h2.67v-1.29c0-2.51-1.22-3.43-3.63-3.43a15.56,15.56,0,0,0-4.69.92l-.76-2.21a17,17,0,0,1,6-1.19c4.19,0,6.11,2.15,6.11,5.78v8C219.73,288.8,220.3,289.3,221.19,289.63Zm-4.49-2.87v-4h-2.28c-3.2,0-4.82,1.19-4.82,3.56,0,2,1,3.14,3,3.14A4.47,4.47,0,0,0,216.7,286.75Z" fill="#0c0c0d"/><path d="M229.93,289.23a3,3,0,0,0,1.12-.2l.79,2.11a5.88,5.88,0,0,1-2.57.59c-2.21,0-3.47-1.32-3.47-3.83V267l3-.36v21.25C228.84,288.77,229.14,289.23,229.93,289.23Z" fill="#0c0c0d"/><path d="M142.81,451.25l-1.72,2a6.68,6.68,0,0,0-4.39-1.68c-3.43,0-6.3,2.31-6.3,9.17,0,6.57,2.74,9.14,6.27,9.14a7.63,7.63,0,0,0,4.82-1.91l1.58,2a8.88,8.88,0,0,1-6.5,2.54c-5.51,0-9.5-4.13-9.5-11.78S131.36,449,136.51,449A9,9,0,0,1,142.81,451.25Z" fill="#0c0c0d"/><path d="M160.1,459.67v12.48h-3v-12c0-2.61-1.12-3.37-2.77-3.37-1.88,0-3.23,1.22-4.39,3v12.38h-3V447.79l3-.33v9.7a6.25,6.25,0,0,1,5.15-2.8C158.22,454.35,160.1,456.4,160.1,459.67Z" fill="#0c0c0d"/><path d="M179.28,464.49H168.19c.3,4,2.18,5.58,4.69,5.58a7.32,7.32,0,0,0,4.52-1.52l1.32,1.82a9.48,9.48,0,0,1-6.07,2.18c-4.85,0-7.69-3.4-7.69-8.91s2.74-9.27,7.23-9.27c4.69,0,7.16,3.27,7.16,8.58C179.34,463.53,179.31,464.09,179.28,464.49ZM176.34,462c0-3.4-1.35-5.28-4.09-5.28-2.31,0-3.83,1.62-4.06,5.48h8.15Z" fill="#0c0c0d"/><path d="M197.43,464.49H186.34c.3,4,2.18,5.58,4.69,5.58a7.32,7.32,0,0,0,4.52-1.52l1.32,1.82a9.48,9.48,0,0,1-6.07,2.18c-4.85,0-7.69-3.4-7.69-8.91s2.74-9.27,7.23-9.27c4.69,0,7.16,3.27,7.16,8.58C197.49,463.53,197.46,464.09,197.43,464.49ZM194.49,462c0-3.4-1.35-5.28-4.09-5.28-2.31,0-3.83,1.62-4.06,5.48h8.15Z" fill="#0c0c0d"/><path d="M202.51,472.14V447.75l3-.36v24.75Zm13.76,0h-3.63l-6.9-9.5,6.4-7.89h3.4l-6.4,7.69Z" fill="#0c0c0d"/><path d="M218.28,479.17,218,476.8c3.53-.59,4.52-1.95,5.51-4.65h-1l-5.84-17.39h3.23l4.65,15.18L229,454.75h3.14l-5.81,17.49C225.15,475.94,223.1,478.64,218.28,479.17Z" fill="#0c0c0d"/><path d="M56.42,634.18v7.43h7.66v2.51H56.42v7.79h9.44v2.51H53.28V631.67H65.59l-.36,2.51Z" fill="#0c0c0d"/><path d="M84,641.94v12.48H81v-12c0-2.61-1.06-3.37-2.74-3.37-1.95,0-3.27,1.22-4.42,3.07v12.34h-3V637h2.61l.26,2.57a6.31,6.31,0,0,1,5.31-3C82.16,636.62,84,638.64,84,641.94Z" fill="#0c0c0d"/><path d="M95,654.81c-2.94,0-4.69-1.72-4.69-5v-10.5h-3V637h3v-3.93l3-.36V637h4.13l-.33,2.34H93.35v10.36c0,1.75.56,2.57,2.08,2.57a4.25,4.25,0,0,0,2.31-.76l1.15,2.08A6.63,6.63,0,0,1,95,654.81Z" fill="#0c0c0d"/><path d="M115.26,641.94v12.48h-3v-12c0-2.61-1.12-3.37-2.77-3.37-1.88,0-3.23,1.22-4.39,3v12.38h-3V630.06l3-.33v9.7a6.25,6.25,0,0,1,5.15-2.81C113.38,636.62,115.26,638.67,115.26,641.94Z" fill="#0c0c0d"/><path d="M131.69,654.41l-.23-2.71a5.84,5.84,0,0,1-5.41,3.1c-3,0-4.85-1.91-4.85-5.31V637h3v12.15c0,2.38.79,3.27,2.67,3.27s3.3-1.25,4.36-3V637h3v17.39Z" fill="#0c0c0d"/><path d="M151.19,638.6l-1.32,2a7.31,7.31,0,0,0-4.49-1.58c-2,0-3.2.89-3.2,2.28s.92,2.08,3.73,2.81c3.66.92,5.78,2.38,5.78,5.41,0,3.63-3.33,5.28-6.87,5.28a9.64,9.64,0,0,1-6.57-2.28l1.68-1.91a7.26,7.26,0,0,0,4.82,1.75c2.28,0,3.73-1,3.73-2.54,0-1.82-.86-2.48-4.22-3.37-3.76-1-5.25-2.61-5.25-5.08,0-2.74,2.67-4.75,6.27-4.75A9.24,9.24,0,0,1,151.19,638.6Z" fill="#0c0c0d"/><path d="M159.61,630.75a2.13,2.13,0,1,1-2.15-2.08A2,2,0,0,1,159.61,630.75ZM156,654.41V637h3v17.39Z" fill="#0c0c0d"/><path d="M178.45,652.7l-.69,2.11a3.5,3.5,0,0,1-3.4-2.61,5.93,5.93,0,0,1-5.18,2.61c-3.46,0-5.54-2.14-5.54-5.25,0-3.73,2.8-5.74,7.66-5.74H174v-1.29c0-2.51-1.22-3.43-3.63-3.43a15.58,15.58,0,0,0-4.69.92l-.76-2.21a17,17,0,0,1,6-1.19c4.19,0,6.11,2.15,6.11,5.78v8C177,651.87,177.56,652.37,178.45,652.7ZM174,649.83v-4h-2.28c-3.2,0-4.82,1.19-4.82,3.56,0,2,1,3.13,3,3.13A4.47,4.47,0,0,0,174,649.83Z" fill="#0c0c0d"/><path d="M193.86,638.6l-1.32,2a7.31,7.31,0,0,0-4.49-1.58c-2,0-3.2.89-3.2,2.28s.92,2.08,3.73,2.81c3.66.92,5.78,2.38,5.78,5.41,0,3.63-3.33,5.28-6.86,5.28a9.65,9.65,0,0,1-6.57-2.28l1.68-1.91a7.26,7.26,0,0,0,4.82,1.75c2.28,0,3.73-1,3.73-2.54,0-1.82-.86-2.48-4.22-3.37-3.76-1-5.25-2.61-5.25-5.08,0-2.74,2.67-4.75,6.27-4.75A9.24,9.24,0,0,1,193.86,638.6Z" fill="#0c0c0d"/><path d="M203.53,654.81c-2.94,0-4.69-1.72-4.69-5v-10.5h-3V637h3v-3.93l3-.36V637H206l-.33,2.34h-3.8v10.36c0,1.75.56,2.57,2.08,2.57a4.25,4.25,0,0,0,2.31-.76l1.16,2.08A6.63,6.63,0,0,1,203.53,654.81Z" fill="#0c0c0d"/><path d="M214.19,630.75a2.13,2.13,0,1,1-2.15-2.08A2,2,0,0,1,214.19,630.75Zm-3.63,23.67V637h3v17.39Z" fill="#0c0c0d"/><path d="M231.52,638.5l-1.49,2a5.51,5.51,0,0,0-3.7-1.35c-2.74,0-4.46,2.15-4.46,6.67s1.72,6.44,4.46,6.44a5.68,5.68,0,0,0,3.73-1.42l1.45,2.08a8.21,8.21,0,0,1-5.31,1.91c-4.69,0-7.59-3.33-7.59-8.94s2.87-9.24,7.59-9.24A7.73,7.73,0,0,1,231.52,638.5Z" fill="#0c0c0d"/></svg>