<svg xmlns="http://www.w3.org/2000/svg" viewBox="0 0 764 360"><g fill="none" fill-rule="evenodd"><path fill="#0C0C0D" d="M99.1 90.77V95h-1.32V83.8h3.08c1.2 0 2.13.29 2.78.87.66.59 1 1.4 1 2.47a3.4 3.4 0 0 1-1.1 2.61 4.2 4.2 0 0 1-2.97 1.02h-1.48zm0-5.79v4.6h1.37c.9 0 1.6-.2 2.07-.62.48-.42.72-1 .72-1.76 0-1.48-.88-2.22-2.63-2.22H99.1zM107.84 95h-1.28V83.16h1.28V95zm8.32 0h-1.28v-1.25h-.03a2.68 2.68 0 0 1-2.46 1.44c-.8 0-1.42-.21-1.87-.64a2.2 2.2 0 0 1-.68-1.67c0-1.5.88-2.37 2.64-2.61l2.4-.34c0-1.36-.55-2.04-1.65-2.04-.96 0-1.83.33-2.6.98v-1.3c.78-.5 1.69-.76 2.71-.76 1.88 0 2.82 1 2.82 2.99V95zm-1.28-4.05l-1.93.27c-.6.08-1.04.23-1.34.44-.3.21-.46.58-.46 1.12 0 .4.14.71.42.96.28.25.65.37 1.12.37.63 0 1.16-.22 1.57-.67.41-.44.62-1 .62-1.69v-.8zM124.95 87l-3.68 9.28c-.65 1.66-1.57 2.49-2.76 2.49-.34 0-.61-.04-.84-.1v-1.15c.28.09.53.14.76.14.65 0 1.13-.39 1.45-1.16l.64-1.52L117.4 87h1.42l2.16 6.16c.03.07.09.28.17.6h.05c.02-.12.07-.32.15-.59l2.28-6.17h1.32zm5.36-2.72a1.7 1.7 0 0 0-.85-.21c-.9 0-1.34.57-1.34 1.7V87h1.87v1.1h-1.87V95h-1.28v-6.9h-1.36V87h1.36v-1.3c0-.84.25-1.5.73-1.99a2.45 2.45 0 0 1 1.81-.73c.4 0 .7.05.93.14v1.16zM137.84 95h-1.29v-1.27h-.03a2.63 2.63 0 0 1-2.47 1.46c-1.9 0-2.85-1.14-2.85-3.4V87h1.27v4.58c0 1.69.64 2.53 1.94 2.53.62 0 1.14-.23 1.54-.7.4-.45.6-1.06.6-1.8V87h1.29v8zm3.86 0h-1.28V83.16h1.28V95zm-35.51 60.53c-.83.44-1.86.66-3.1.66-1.59 0-2.87-.52-3.82-1.54a5.68 5.68 0 0 1-1.44-4.04c0-1.8.54-3.24 1.62-4.34a5.49 5.49 0 0 1 4.1-1.66c1.06 0 1.94.15 2.64.46v1.4a5.35 5.35 0 0 0-2.66-.67c-1.29 0-2.33.43-3.13 1.29-.8.86-1.2 2-1.2 3.44 0 1.37.38 2.45 1.12 3.26a3.81 3.81 0 0 0 2.95 1.22c1.12 0 2.1-.25 2.92-.75v1.27zm7.83.47h-1.28v-1.25h-.03a2.68 2.68 0 0 1-2.46 1.44c-.8 0-1.42-.21-1.87-.64a2.2 2.2 0 0 1-.68-1.68c0-1.49.88-2.36 2.64-2.6l2.4-.34c0-1.36-.55-2.04-1.65-2.04-.96 0-1.83.33-2.6.99v-1.32c.78-.5 1.69-.75 2.71-.75 1.88 0 2.82 1 2.82 2.99v5.2zm-1.28-4.05l-1.93.27c-.6.08-1.04.23-1.34.44-.3.21-.45.58-.45 1.12 0 .4.13.71.41.96.28.25.65.37 1.12.37.63 0 1.16-.22 1.57-.67.42-.44.62-1 .62-1.69v-.8zm3.21 3.76v-1.37c.7.51 1.47.77 2.3.77 1.13 0 1.7-.38 1.7-1.13 0-.2-.05-.39-.15-.54-.1-.15-.23-.28-.39-.4a3 3 0 0 0-.58-.3l-.71-.29a9.2 9.2 0 0 1-.94-.42c-.26-.15-.49-.3-.67-.49a1.8 1.8 0 0 1-.4-.61c-.1-.23-.14-.5-.14-.8 0-.38.08-.71.26-1 .17-.29.4-.53.68-.73.3-.2.62-.34.98-.44a4.59 4.59 0 0 1 3 .21v1.3a3.62 3.62 0 0 0-2.68-.5c-.2.06-.36.13-.5.23-.13.1-.24.22-.32.36a.94.94 0 0 0-.1.46c0 .2.03.38.1.52.08.14.2.26.34.37.14.11.32.21.53.3l.7.29c.36.14.68.27.96.42.28.14.52.3.72.48.2.18.35.39.46.62a2 2 0 0 1 .16.84c0 .4-.09.74-.26 1.03-.18.3-.41.53-.7.73-.3.19-.63.33-1.01.43-.38.1-.78.14-1.2.14-.82 0-1.53-.16-2.14-.48zm13.75.29h-1.29v-1.27h-.03a2.63 2.63 0 0 1-2.47 1.46c-1.9 0-2.86-1.14-2.86-3.4V148h1.28v4.58c0 1.69.64 2.53 1.94 2.53.62 0 1.13-.23 1.54-.7.4-.45.6-1.06.6-1.8V148h1.29v8zm8.3 0h-1.27v-1.25h-.03a2.68 2.68 0 0 1-2.47 1.44c-.8 0-1.42-.21-1.87-.64a2.2 2.2 0 0 1-.67-1.68c0-1.49.88-2.36 2.64-2.6l2.4-.34c0-1.36-.55-2.04-1.65-2.04-.97 0-1.84.33-2.61.99v-1.32c.79-.5 1.7-.75 2.72-.75 1.88 0 2.82 1 2.82 2.99v5.2zm-1.27-4.05l-1.93.27c-.6.08-1.04.23-1.35.44-.3.21-.45.58-.45 1.12 0 .4.14.71.42.96.28.25.65.37 1.11.37.64 0 1.16-.22 1.58-.67.41-.44.62-1 .62-1.69v-.8zm4.97 4.05h-1.28v-11.84h1.28V156zm-41 60.53c-.83.44-1.86.66-3.1.66-1.58 0-2.86-.52-3.82-1.54a5.68 5.68 0 0 1-1.44-4.04c0-1.8.54-3.24 1.62-4.34a5.49 5.49 0 0 1 4.1-1.66c1.07 0 1.95.15 2.64.46v1.4a5.35 5.35 0 0 0-2.65-.67c-1.29 0-2.33.43-3.13 1.29-.8.86-1.2 2-1.2 3.44 0 1.37.37 2.45 1.12 3.26a3.81 3.81 0 0 0 2.94 1.22c1.13 0 2.1-.25 2.92-.75v1.27zm8.75.47h-1.28v-4.6c0-1.68-.62-2.5-1.86-2.5-.62 0-1.15.23-1.58.71a2.7 2.7 0 0 0-.64 1.86V217h-1.28v-11.84h1.28v5.17h.03a2.91 2.91 0 0 1 2.63-1.52c1.8 0 2.7 1.09 2.7 3.26V217zm8.85-3.68h-5.65a3 3 0 0 0 .72 2.06c.46.49 1.09.73 1.89.73.9 0 1.73-.3 2.48-.9v1.21c-.7.51-1.63.77-2.79.77a3.38 3.38 0 0 1-2.66-1.1 4.46 4.46 0 0 1-.97-3.06c0-1.24.35-2.26 1.06-3.04a3.4 3.4 0 0 1 2.63-1.18 3 3 0 0 1 2.43 1.02c.57.68.86 1.62.86 2.82v.67zm-1.32-1.09a2.6 2.6 0 0 0-.53-1.72 1.82 1.82 0 0 0-1.47-.62c-.6 0-1.11.22-1.53.65-.43.43-.69 1-.79 1.7h4.32zm9.68 1.09h-5.64a3 3 0 0 0 .71 2.06c.46.49 1.1.73 1.9.73.9 0 1.72-.3 2.48-.9v1.21c-.7.51-1.63.77-2.79.77a3.38 3.38 0 0 1-2.66-1.1 4.46 4.46 0 0 1-.97-3.06c0-1.24.35-2.26 1.06-3.04a3.4 3.4 0 0 1 2.63-1.18 3 3 0 0 1 2.42 1.02c.58.68.86 1.62.86 2.82v.67zm-1.3-1.09a2.6 2.6 0 0 0-.54-1.72 1.82 1.82 0 0 0-1.47-.62c-.6 0-1.12.22-1.54.65-.42.43-.68 1-.78 1.7h4.32zm9.88 4.77h-1.8l-3.53-3.84h-.03V217h-1.28v-11.84h1.28v7.5h.03l3.36-3.66h1.68l-3.7 3.86 4 4.14zm7.68-8l-3.68 9.28c-.65 1.66-1.58 2.49-2.76 2.49-.34 0-.62-.04-.84-.1v-1.15c.28.09.53.14.76.14.64 0 1.13-.39 1.45-1.16l.64-1.52-3.12-7.98h1.42l2.16 6.16.17.6h.04l.16-.59 2.27-6.17h1.33zm-75.47 69H61.5v-11.2h5.69v1.18h-4.38v3.73h4.05v1.18h-4.05v3.92h4.63V278zm8.62 0h-1.28v-4.56c0-1.7-.62-2.55-1.86-2.55-.64 0-1.17.24-1.59.72a2.68 2.68 0 0 0-.63 1.83V278h-1.28v-8h1.28v1.33h.03a2.89 2.89 0 0 1 2.63-1.52c.87 0 1.54.29 2 .85.47.57.7 1.38.7 2.45V278zm6.13-.08c-.3.17-.7.25-1.2.25-1.4 0-2.1-.78-2.1-2.34v-4.74h-1.38V270h1.38v-1.95l1.28-.42V270h2.02v1.1h-2.02v4.5c0 .54.1.92.27 1.15.19.23.49.34.9.34.33 0 .61-.08.85-.26v1.1zm8.35.08h-1.28v-4.6c0-1.68-.62-2.5-1.86-2.5-.63 0-1.15.23-1.58.71a2.7 2.7 0 0 0-.64 1.86V278H83.9v-11.84h1.28v5.17h.03a2.91 2.91 0 0 1 2.62-1.52c1.8 0 2.7 1.09 2.7 3.26V278zm8.88 0h-1.28v-1.27h-.03a2.63 2.63 0 0 1-2.47 1.46c-1.9 0-2.86-1.14-2.86-3.4V270h1.27v4.58c0 1.69.65 2.53 1.94 2.53.63 0 1.14-.23 1.54-.7.4-.45.6-1.06.6-1.8V270h1.29v8zm2.1-.29v-1.37c.7.51 1.47.77 2.3.77 1.13 0 1.7-.38 1.7-1.13 0-.2-.05-.39-.15-.54-.1-.15-.23-.28-.4-.4a3 3 0 0 0-.57-.3l-.71-.29a9.2 9.2 0 0 1-.94-.42c-.27-.15-.49-.3-.67-.49a1.8 1.8 0 0 1-.4-.61c-.1-.23-.14-.5-.14-.8 0-.38.08-.71.25-1 .18-.29.4-.53.7-.73.28-.2.6-.34.97-.44a4.59 4.59 0 0 1 3 .21v1.3a3.62 3.62 0 0 0-2.68-.5c-.2.06-.36.13-.5.23s-.24.22-.32.36a.94.94 0 0 0-.11.46c0 .2.04.38.11.52.08.14.19.26.33.37.15.11.33.21.54.3l.7.29c.36.14.68.27.96.42.28.14.52.3.72.48.2.18.35.39.46.62a2 2 0 0 1 .16.84c0 .4-.1.74-.27 1.03-.17.3-.4.53-.7.73-.29.19-.62.33-1 .43-.38.1-.78.14-1.2.14-.82 0-1.53-.16-2.14-.48zm7.93-9.74a.81.81 0 0 1-.83-.83.8.8 0 0 1 .25-.6.8.8 0 0 1 .58-.24.83.83 0 0 1 .84.84.8.8 0 0 1-.24.59.82.82 0 0 1-.6.24zm.63 10.03h-1.29v-8h1.29v8zm8.32 0h-1.28v-1.25h-.04a2.68 2.68 0 0 1-2.46 1.44c-.8 0-1.42-.21-1.87-.64a2.2 2.2 0 0 1-.67-1.68c0-1.49.88-2.36 2.64-2.6l2.4-.34c0-1.36-.55-2.04-1.65-2.04-.97 0-1.84.33-2.61.99v-1.32c.78-.5 1.69-.75 2.72-.75 1.88 0 2.82 1 2.82 2.99v5.2zm-1.28-4.05l-1.93.27c-.6.08-1.05.23-1.35.44-.3.21-.45.58-.45 1.12 0 .4.14.71.42.96.28.25.65.37 1.11.37.64 0 1.16-.22 1.57-.67.42-.44.63-1 .63-1.69v-.8zm3.2 3.76v-1.37c.7.51 1.47.77 2.31.77 1.13 0 1.69-.38 1.69-1.13 0-.2-.05-.39-.15-.54-.1-.15-.22-.28-.39-.4a3 3 0 0 0-.58-.3l-.71-.29a9.2 9.2 0 0 1-.93-.42c-.27-.15-.5-.3-.68-.49a1.8 1.8 0 0 1-.4-.61c-.1-.23-.14-.5-.14-.8 0-.38.09-.71.26-1 .17-.29.4-.53.69-.73.28-.2.61-.34.98-.44a4.59 4.59 0 0 1 3 .21v1.3a3.62 3.62 0 0 0-2.69-.5c-.19.06-.35.13-.5.23-.13.1-.24.22-.31.36a.94.94 0 0 0-.12.46c0 .2.04.38.12.52.07.14.18.26.33.37.15.11.32.21.53.3l.71.29c.36.14.67.27.95.42.29.14.53.3.72.48.2.18.35.39.46.62a2 2 0 0 1 .16.84c0 .4-.09.74-.26 1.03-.18.3-.4.53-.7.73-.3.19-.63.33-1 .43-.39.1-.79.14-1.2.14-.83 0-1.54-.16-2.14-.48zm10.99.21c-.3.17-.7.25-1.2.25-1.4 0-2.1-.78-2.1-2.34v-4.74h-1.37V270h1.37v-1.95l1.28-.42V270h2.02v1.1h-2.02v4.5c0 .54.1.92.28 1.15.18.23.48.34.9.34.33 0 .6-.08.84-.26v1.1zm2.37-9.95a.81.81 0 0 1-.83-.83.8.8 0 0 1 .24-.6.8.8 0 0 1 .59-.24.83.83 0 0 1 .84.84.8.8 0 0 1-.24.59.82.82 0 0 1-.6.24zm.62 10.03h-1.28v-8h1.28v8zm8.05-.37c-.62.37-1.34.56-2.19.56a3.62 3.62 0 0 1-2.76-1.12 4.03 4.03 0 0 1-1.05-2.88c0-1.32.38-2.38 1.13-3.18.76-.8 1.77-1.2 3.03-1.2.7 0 1.32.13 1.85.4v1.3a3.26 3.26 0 0 0-1.9-.62c-.82 0-1.49.3-2.01.88a3.34 3.34 0 0 0-.79 2.3c0 .95.25 1.69.74 2.23.5.54 1.15.8 1.98.8.7 0 1.35-.22 1.97-.69v1.22zM608.95 94.55V93a3 3 0 0 0 .63.42 5.16 5.16 0 0 0 1.6.52c.28.04.54.07.77.07.81 0 1.41-.15 1.81-.45.4-.3.6-.73.6-1.3 0-.3-.07-.56-.2-.78a2.24 2.24 0 0 0-.55-.62 5.47 5.47 0 0 0-.83-.53l-1.04-.53c-.39-.2-.75-.4-1.1-.6-.33-.2-.62-.43-.87-.68a2.58 2.58 0 0 1-.8-1.92c0-.5.1-.95.33-1.33.22-.38.52-.69.88-.93a4 4 0 0 1 1.25-.55 5.7 5.7 0 0 1 1.42-.18c1.1 0 1.91.13 2.42.4v1.47a4.38 4.38 0 0 0-2.55-.68c-.29 0-.57.03-.86.09-.29.06-.54.15-.77.29-.22.14-.4.31-.54.52-.14.22-.21.48-.21.78 0 .3.05.54.16.75.1.2.26.4.47.57.2.17.46.34.76.5.3.16.64.34 1.04.53.4.2.78.4 1.14.62.36.22.67.46.94.73.27.27.49.56.65.88.15.33.23.7.23 1.11 0 .55-.1 1.02-.32 1.4-.22.39-.5.7-.87.94s-.8.41-1.27.52a6.95 6.95 0 0 1-3.74-.21 2.4 2.4 0 0 1-.58-.27zm15.28-3.23h-5.65a3 3 0 0 0 .72 2.06c.46.49 1.09.73 1.89.73.9 0 1.73-.3 2.48-.9v1.21c-.7.51-1.63.77-2.79.77a3.38 3.38 0 0 1-2.66-1.1 4.46 4.46 0 0 1-.97-3.06c0-1.24.35-2.26 1.06-3.04a3.4 3.4 0 0 1 2.63-1.18 3 3 0 0 1 2.43 1.02c.57.68.86 1.62.86 2.82v.67zm-1.32-1.09a2.6 2.6 0 0 0-.53-1.72 1.82 1.82 0 0 0-1.47-.62c-.6 0-1.11.22-1.53.65-.43.43-.69 1-.79 1.7h4.32zm7.43-1.93a1.57 1.57 0 0 0-.97-.26c-.55 0-1 .26-1.37.77a3.58 3.58 0 0 0-.55 2.11V95h-1.29v-8h1.29v1.65h.03c.18-.56.46-1 .83-1.32.38-.31.8-.47 1.26-.47.33 0 .59.04.77.1v1.34zm2.04-3.33a.81.81 0 0 1-.83-.83.8.8 0 0 1 .25-.6.8.8 0 0 1 .58-.24.83.83 0 0 1 .85.84.8.8 0 0 1-.25.59.82.82 0 0 1-.6.24zm.63 10.03h-1.28v-8H633v8zm5.94.19a3.71 3.71 0 0 1-2.84-1.12 4.15 4.15 0 0 1-1.06-2.98c0-1.34.37-2.39 1.1-3.14a3.96 3.96 0 0 1 2.98-1.14c1.2 0 2.13.37 2.8 1.1.67.74 1 1.76 1 3.06a4.3 4.3 0 0 1-1.08 3.07 3.8 3.8 0 0 1-2.9 1.15zm.09-7.3c-.82 0-1.47.28-1.95.84a3.45 3.45 0 0 0-.72 2.32c0 .94.24 1.7.72 2.24.49.55 1.14.82 1.95.82.83 0 1.46-.27 1.9-.8.45-.54.68-1.3.68-2.3 0-1-.23-1.77-.67-2.3a2.33 2.33 0 0 0-1.91-.82zm12.4 7.11h-1.28v-1.27h-.03a2.63 2.63 0 0 1-2.47 1.46c-1.9 0-2.86-1.14-2.86-3.4V87h1.28v4.58c0 1.69.64 2.53 1.94 2.53.62 0 1.13-.23 1.54-.7.4-.45.6-1.06.6-1.8V87h1.29v8zm2.1-.29v-1.37c.7.51 1.47.77 2.31.77 1.13 0 1.69-.38 1.69-1.13 0-.2-.05-.39-.15-.54-.1-.15-.22-.28-.39-.4a3 3 0 0 0-.57-.3l-.72-.29a9.2 9.2 0 0 1-.93-.42c-.27-.15-.5-.3-.67-.49a1.8 1.8 0 0 1-.41-.61c-.1-.23-.14-.5-.14-.8 0-.38.09-.71.26-1 .17-.29.4-.53.69-.73.28-.2.61-.34.98-.44a4.59 4.59 0 0 1 3 .21v1.3a3.62 3.62 0 0 0-2.69-.5c-.19.06-.35.13-.5.23-.13.1-.24.22-.31.36a.94.94 0 0 0-.12.46c0 .2.04.38.12.52.07.14.18.26.33.37.15.11.32.21.53.3l.71.29c.36.14.67.27.96.42.28.14.52.3.71.48.2.18.35.39.46.62a2 2 0 0 1 .16.84c0 .4-.09.74-.26 1.03-.17.3-.4.53-.7.73-.3.19-.63.33-1 .43-.39.1-.79.14-1.2.14-.83 0-1.54-.16-2.14-.48zm-38.38 51.27h-4.38v3.88h4.05v1.18h-4.05V156h-1.31v-11.2h5.69v1.18zm5.3 10.2a3.71 3.71 0 0 1-2.84-1.11 4.15 4.15 0 0 1-1.06-2.98c0-1.34.37-2.39 1.1-3.14a3.96 3.96 0 0 1 2.98-1.14c1.2 0 2.12.37 2.8 1.1.66.74 1 1.76 1 3.06a4.3 4.3 0 0 1-1.08 3.07 3.8 3.8 0 0 1-2.9 1.15zm.09-7.29c-.83 0-1.48.28-1.96.84a3.45 3.45 0 0 0-.72 2.32c0 .94.25 1.7.73 2.24.49.55 1.13.82 1.95.82.83 0 1.46-.27 1.9-.8.45-.54.67-1.3.67-2.3 0-1-.22-1.77-.66-2.3a2.33 2.33 0 0 0-1.91-.82zm10.1.4a1.57 1.57 0 0 0-.96-.25c-.55 0-1 .26-1.37.77a3.58 3.58 0 0 0-.55 2.11V156h-1.29v-8h1.29v1.65h.03c.18-.56.46-1 .83-1.32.38-.31.8-.47 1.26-.47.33 0 .59.04.77.1v1.34zm12.73 6.71h-1.29v-4.6c0-.88-.13-1.52-.4-1.92-.28-.4-.74-.59-1.39-.59a1.7 1.7 0 0 0-1.39.75c-.38.5-.57 1.1-.57 1.8V156h-1.29v-4.75c0-1.57-.6-2.36-1.82-2.36-.56 0-1.02.24-1.39.7a2.92 2.92 0 0 0-.54 1.85V156h-1.28v-8h1.28v1.27h.03a2.72 2.72 0 0 1 2.48-1.46 2.32 2.32 0 0 1 2.27 1.66 2.85 2.85 0 0 1 2.65-1.66c1.76 0 2.64 1.09 2.64 3.26V156zm8.14 0h-1.28v-1.25h-.03a2.68 2.68 0 0 1-2.46 1.44c-.8 0-1.42-.21-1.87-.64a2.2 2.2 0 0 1-.68-1.68c0-1.49.88-2.36 2.64-2.6l2.4-.34c0-1.36-.55-2.04-1.65-2.04-.96 0-1.83.33-2.6.99v-1.32c.78-.5 1.69-.75 2.71-.75 1.88 0 2.82 1 2.82 2.99v5.2zm-1.28-4.05l-1.93.27c-.6.08-1.04.23-1.34.44-.3.21-.45.58-.45 1.12 0 .4.13.71.41.96.28.25.65.37 1.12.37.63 0 1.16-.22 1.57-.67.42-.44.62-1 .62-1.69v-.8zm4.98 4.05h-1.28v-11.84h1.28V156zm-37.72 61h-1.56l-1.88-3.14c-.17-.3-.34-.54-.5-.75-.16-.2-.32-.37-.5-.5a1.72 1.72 0 0 0-.54-.29c-.2-.06-.42-.09-.66-.09h-1.08V217h-1.31v-11.2h3.34c.5 0 .94.06 1.36.18.41.12.77.3 1.08.56.3.25.54.56.71.93.17.38.26.81.26 1.31 0 .4-.06.75-.18 1.08a2.8 2.8 0 0 1-1.28 1.52c-.3.18-.65.32-1.03.42v.03a2.36 2.36 0 0 1 .89.66c.12.15.25.31.37.5l.4.64 2.11 3.37zm-6.72-10.02v4.07h1.78c.33 0 .63-.05.91-.15a1.93 1.93 0 0 0 1.2-1.1c.12-.28.17-.58.17-.9 0-.6-.19-1.08-.58-1.41-.39-.34-.95-.5-1.68-.5h-1.8zm14.07 6.34h-5.65a3 3 0 0 0 .72 2.06c.46.49 1.09.73 1.9.73.9 0 1.72-.3 2.48-.9v1.21c-.7.51-1.64.77-2.8.77a3.38 3.38 0 0 1-2.66-1.1 4.46 4.46 0 0 1-.97-3.06c0-1.24.36-2.26 1.06-3.04a3.4 3.4 0 0 1 2.63-1.18 3 3 0 0 1 2.43 1.02c.58.68.86 1.62.86 2.82v.67zm-1.31-1.09a2.6 2.6 0 0 0-.54-1.72 1.82 1.82 0 0 0-1.46-.62c-.6 0-1.12.22-1.54.65-.42.43-.68 1-.78 1.7h4.32zm2.76 4.48v-1.37c.7.51 1.47.77 2.3.77 1.13 0 1.7-.38 1.7-1.13 0-.2-.05-.39-.15-.54-.1-.15-.22-.28-.39-.4a3 3 0 0 0-.58-.3l-.71-.29a9.2 9.2 0 0 1-.93-.42c-.27-.15-.5-.3-.68-.49a1.8 1.8 0 0 1-.4-.61c-.1-.23-.14-.5-.14-.8 0-.38.09-.71.26-1 .17-.29.4-.53.69-.73.28-.2.6-.34.98-.44a4.59 4.59 0 0 1 3 .21v1.3a3.62 3.62 0 0 0-2.69-.5c-.19.06-.36.13-.5.23-.13.1-.24.22-.31.36a.94.94 0 0 0-.12.46c0 .2.04.38.12.52.07.14.18.26.33.37.14.11.32.21.53.3l.71.29c.35.14.67.27.95.42.28.14.52.3.72.48.2.18.35.39.46.62a2 2 0 0 1 .16.84c0 .4-.09.74-.26 1.03-.18.3-.41.53-.7.73-.3.19-.63.33-1 .43-.39.1-.79.14-1.2.14-.83 0-1.54-.16-2.15-.48zm8.6-.87h-.04v4.84h-1.28V209h1.28v1.4h.03a3.03 3.03 0 0 1 2.77-1.59c1.03 0 1.83.36 2.41 1.08.58.71.87 1.67.87 2.88 0 1.33-.33 2.4-.98 3.21-.65.8-1.54 1.2-2.67 1.2a2.68 2.68 0 0 1-2.4-1.34zm-.04-3.22v1.11c0 .67.21 1.23.64 1.69.43.46.98.69 1.64.69.78 0 1.38-.3 1.82-.9.44-.59.66-1.41.66-2.47 0-.89-.2-1.59-.61-2.1-.41-.5-.97-.75-1.67-.75-.75 0-1.35.26-1.8.78a2.85 2.85 0 0 0-.68 1.95zm14.55.7h-5.64a3 3 0 0 0 .71 2.06c.46.49 1.1.73 1.9.73.9 0 1.72-.3 2.48-.9v1.21c-.7.51-1.63.77-2.79.77a3.38 3.38 0 0 1-2.66-1.1 4.46 4.46 0 0 1-.97-3.06c0-1.24.35-2.26 1.06-3.04a3.4 3.4 0 0 1 2.63-1.18 3 3 0 0 1 2.42 1.02c.58.68.86 1.62.86 2.82v.67zm-1.3-1.09a2.6 2.6 0 0 0-.54-1.72 1.82 1.82 0 0 0-1.47-.62c-.6 0-1.12.22-1.54.65-.42.43-.68 1-.78 1.7h4.32zm8.7 4.4c-.62.37-1.35.56-2.2.56a3.62 3.62 0 0 1-2.75-1.12 4.03 4.03 0 0 1-1.06-2.88c0-1.32.38-2.38 1.14-3.18.75-.8 1.76-1.2 3.02-1.2.7 0 1.32.13 1.86.4v1.3a3.26 3.26 0 0 0-1.9-.62c-.82 0-1.5.3-2.02.88a3.34 3.34 0 0 0-.78 2.3c0 .95.24 1.69.74 2.23.49.54 1.15.8 1.98.8.7 0 1.35-.22 1.96-.69v1.22zm5.64.3c-.3.16-.7.24-1.2.24-1.4 0-2.1-.78-2.1-2.34v-4.74h-1.37V209h1.38v-1.95l1.28-.42V209h2.01v1.1h-2.01v4.5c0 .54.09.92.27 1.15.18.23.49.34.9.34.33 0 .6-.08.84-.26v1.1zm5.67-10.65a1.7 1.7 0 0 0-.85-.21c-.9 0-1.35.57-1.35 1.7V209h1.88v1.1h-1.88v6.9h-1.27v-6.9h-1.37V209h1.37v-1.3c0-.84.24-1.5.73-1.99a2.45 2.45 0 0 1 1.8-.73c.4 0 .7.05.94.15v1.15zm7.52 10.72h-1.28v-1.27h-.03a2.63 2.63 0 0 1-2.47 1.46c-1.9 0-2.86-1.14-2.86-3.4V209h1.27v4.58c0 1.69.65 2.53 1.94 2.53.63 0 1.14-.23 1.54-.7.4-.45.6-1.06.6-1.8V209h1.3v8zm3.87 0h-1.28v-11.84h1.28V217zm-57.62 61h-1.3v-7.52c0-.59.03-1.32.1-2.18h-.03c-.12.51-.23.87-.33 1.1l-3.83 8.6h-.64l-3.82-8.55a6.7 6.7 0 0 1-.34-1.15h-.03c.04.45.06 1.18.06 2.2v7.5h-1.26v-11.2h1.73l3.44 7.8a10 10 0 0 1 .52 1.35h.04c.23-.61.4-1.07.54-1.37l3.51-7.78h1.64V278zm8.5 0h-1.28v-1.25h-.03a2.68 2.68 0 0 1-2.46 1.44c-.8 0-1.42-.21-1.87-.64a2.2 2.2 0 0 1-.68-1.68c0-1.49.88-2.36 2.64-2.6l2.4-.34c0-1.36-.55-2.04-1.65-2.04-.96 0-1.83.33-2.6.99v-1.32c.78-.5 1.68-.75 2.71-.75 1.88 0 2.82 1 2.82 2.99v5.2zm-1.28-4.05l-1.93.27c-.6.08-1.04.23-1.34.44-.3.21-.46.58-.46 1.12 0 .4.14.71.42.96.28.25.65.37 1.11.37.64 0 1.16-.22 1.58-.67.41-.44.62-1 .62-1.69v-.8zm7.4 3.97c-.3.17-.7.25-1.19.25-1.4 0-2.1-.78-2.1-2.34v-4.74h-1.38V270h1.38v-1.95l1.28-.42V270h2.02v1.1h-2.02v4.5c0 .54.1.92.27 1.15.19.23.49.34.91.34.32 0 .6-.08.84-.26v1.1zm5.43 0c-.3.17-.7.25-1.2.25-1.4 0-2.1-.78-2.1-2.34v-4.74h-1.37V270h1.37v-1.95l1.28-.42V270h2.02v1.1h-2.02v4.5c0 .54.1.92.28 1.15.18.23.48.34.9.34.32 0 .6-.08.84-.26v1.1zm8.01-3.6h-5.65a3 3 0 0 0 .72 2.06c.46.49 1.1.73 1.9.73.9 0 1.72-.3 2.48-.9v1.21c-.7.51-1.63.77-2.8.77a3.38 3.38 0 0 1-2.65-1.1 4.46 4.46 0 0 1-.97-3.06c0-1.24.35-2.26 1.06-3.04a3.4 3.4 0 0 1 2.62-1.18 3 3 0 0 1 2.43 1.02c.58.68.86 1.62.86 2.82v.67zm-1.3-1.09a2.6 2.6 0 0 0-.54-1.72 1.82 1.82 0 0 0-1.47-.62c-.6 0-1.12.22-1.54.65-.42.43-.68 1-.78 1.7h4.32zm7.41-1.93a1.57 1.57 0 0 0-.97-.26c-.54 0-1 .26-1.37.77a3.58 3.58 0 0 0-.55 2.11V278h-1.28v-8h1.28v1.65h.03c.19-.56.46-1 .84-1.32.37-.31.8-.47 1.26-.47.33 0 .59.04.76.1v1.34zm9.12 6.89a3.71 3.71 0 0 1-2.83-1.12 4.15 4.15 0 0 1-1.06-2.98c0-1.34.37-2.39 1.1-3.14a3.96 3.96 0 0 1 2.98-1.14c1.19 0 2.12.37 2.79 1.1.67.74 1 1.76 1 3.06a4.3 4.3 0 0 1-1.08 3.07 3.8 3.8 0 0 1-2.9 1.15zm.1-7.3c-.83 0-1.48.28-1.96.84a3.45 3.45 0 0 0-.72 2.32c0 .94.24 1.7.73 2.24.48.55 1.13.82 1.94.82.83 0 1.47-.27 1.91-.8.45-.54.67-1.3.67-2.3 0-1-.22-1.77-.67-2.3a2.33 2.33 0 0 0-1.9-.82zm9.6-3.6a1.7 1.7 0 0 0-.86-.22c-.9 0-1.34.57-1.34 1.7V270h1.87v1.1h-1.87v6.9h-1.27v-6.9h-1.37V270h1.37v-1.3c0-.84.24-1.5.72-1.99a2.45 2.45 0 0 1 1.82-.73c.39 0 .7.05.92.14v1.16zm9.39 0a1.7 1.7 0 0 0-.86-.22c-.9 0-1.34.57-1.34 1.7V270h1.88v1.1h-1.88v6.9h-1.27v-6.9h-1.37V270h1.37v-1.3c0-.84.24-1.5.72-1.99a2.45 2.45 0 0 1 1.82-.73c.39 0 .7.05.93.14v1.16zm6.78 10.71h-1.28v-1.25h-.04a2.68 2.68 0 0 1-2.46 1.44c-.8 0-1.42-.21-1.87-.64a2.2 2.2 0 0 1-.67-1.68c0-1.49.88-2.36 2.64-2.6l2.4-.34c0-1.36-.55-2.04-1.65-2.04-.97 0-1.84.33-2.61.99v-1.32c.78-.5 1.7-.75 2.72-.75 1.88 0 2.82 1 2.82 2.99v5.2zm-1.28-4.05l-1.93.27c-.6.08-1.05.23-1.35.44-.3.21-.45.58-.45 1.12 0 .4.14.71.42.96.28.25.65.37 1.11.37.64 0 1.16-.22 1.57-.67.42-.44.63-1 .63-1.69v-.8zm9.14 3.68c-.61.37-1.34.56-2.18.56a3.62 3.62 0 0 1-2.77-1.12 4.03 4.03 0 0 1-1.05-2.88c0-1.32.38-2.38 1.14-3.18.75-.8 1.76-1.2 3.02-1.2.7 0 1.32.13 1.86.4v1.3a3.26 3.26 0 0 0-1.9-.62c-.82 0-1.5.3-2.02.88a3.34 3.34 0 0 0-.78 2.3c0 .95.24 1.69.73 2.23.5.54 1.16.8 1.99.8.7 0 1.35-.22 1.96-.69v1.22zm5.65.3c-.3.16-.7.24-1.2.24-1.4 0-2.1-.78-2.1-2.34v-4.74h-1.37V270h1.38v-1.95l1.28-.42V270h2.01v1.1h-2.01v4.5c0 .54.09.92.27 1.15.18.23.48.34.9.34.33 0 .6-.08.84-.26v1.1z"/><path fill="#D7D7DB" d="M591 90h-30v4h-1v-4h-30v4h-1v-4h-30v4h-1v-4h-29v4h-1v-4h-30v4h-1v-4h-30v4h-1v-4h-30v4h-1v-4h-30v4h-1v-4h-30v4h-1v-4h-30v4h-1v-4h-29v4h-1v-4h-30v4h-1v-4h-30v4h-1v-4h-30v4h-1v-9h1v4h30v-4h1v4h30v-4h1v4h30v-4h1v4h29v-4h1v4h30v-4h1v4h30v-4h1v4h30v-4h1v4h30v-4h1v4h30v-4h1v4h30v-4h1v4h29v-4h1v4h30v-4h1v4h30v-4h1v4h30v-4h1v9h-1v-4zm0 61h-30v4h-1v-4h-30v4h-1v-4h-30v4h-1v-4h-29v4h-1v-4h-30v4h-1v-4h-30v4h-1v-4h-30v4h-1v-4h-30v4h-1v-4h-30v4h-1v-4h-30v4h-1v-4h-29v4h-1v-4h-30v4h-1v-4h-30v4h-1v-4h-30v4h-1v-9h1v4h30v-4h1v4h30v-4h1v4h30v-4h1v4h29v-4h1v4h30v-4h1v4h30v-4h1v4h30v-4h1v4h30v-4h1v4h30v-4h1v4h30v-4h1v4h29v-4h1v4h30v-4h1v4h30v-4h1v4h30v-4h1v9h-1v-4zm0 61h-30v4h-1v-4h-30v4h-1v-4h-30v4h-1v-4h-29v4h-1v-4h-30v4h-1v-4h-30v4h-1v-4h-30v4h-1v-4h-30v4h-1v-4h-30v4h-1v-4h-30v4h-1v-4h-29v4h-1v-4h-30v4h-1v-4h-30v4h-1v-4h-30v4h-1v-9h1v4h30v-4h1v4h30v-4h1v4h30v-4h1v4h29v-4h1v4h30v-4h1v4h30v-4h1v4h30v-4h1v4h30v-4h1v4h30v-4h1v4h30v-4h1v4h29v-4h1v4h30v-4h1v4h30v-4h1v4h30v-4h1v9h-1v-4zm0 61h-30v4h-1v-4h-30v4h-1v-4h-30v4h-1v-4h-29v4h-1v-4h-30v4h-1v-4h-30v4h-1v-4h-30v4h-1v-4h-30v4h-1v-4h-30v4h-1v-4h-30v4h-1v-4h-29v4h-1v-4h-30v4h-1v-4h-30v4h-1v-4h-30v4h-1v-9h1v4h30v-4h1v4h30v-4h1v4h30v-4h1v4h29v-4h1v4h30v-4h1v4h30v-4h1v4h30v-4h1v4h30v-4h1v4h30v-4h1v4h30v-4h1v4h29v-4h1v4h30v-4h1v4h30v-4h1v4h30v-4h1v9h-1v-4z"/><rect width="185" height="24" x="283" y="77" fill="#ED00B5"/><rect width="185" height="24" x="191" y="138" fill="#ED00B5"/><rect width="122" height="23" x="469" y="199" fill="#ED00B5"/><rect width="184" height="24" x="253" y="260" fill="#ED00B5"/></g></svg>