<svg xmlns="http://www.w3.org/2000/svg" style="background:#f9f9fa" viewBox="0 0 764 360"><defs><linearGradient id="a" x1="-359.03%" x2="405.42%" y1="-256.35%" y2="332.06%"><stop offset="0%" stop-color="#CCFBFF"/><stop offset="100%" stop-color="#C9E4FF"/></linearGradient><linearGradient id="b" x1="-4038.21%" x2="4539.46%" y1="-1730.32%" y2="3357.32%"><stop offset="0%" stop-color="#00C8D7"/><stop offset="100%" stop-color="#0A84FF"/></linearGradient><linearGradient id="c" x1="-5237.98%" x2="3340.35%" y1="-1941.91%" y2="3145.96%"><stop offset="0%" stop-color="#00C8D7"/><stop offset="100%" stop-color="#0A84FF"/></linearGradient><linearGradient id="d" x1="-1482.28%" x2="1703.18%" y1="-2251.52%" y2="3937.14%"><stop offset="0%" stop-color="#00C8D7"/><stop offset="100%" stop-color="#0A84FF"/></linearGradient><linearGradient id="e" x1="-1944.74%" x2="1267.76%" y1="-2554.1%" y2="3742.3%"><stop offset="0%" stop-color="#00C8D7"/><stop offset="100%" stop-color="#0A84FF"/></linearGradient><linearGradient id="f" x1="-2344.64%" x2="1663.46%" y1="-1180.74%" y2="1536.97%"><stop offset="0%" stop-color="#00C8D7"/><stop offset="100%" stop-color="#0A84FF"/></linearGradient><linearGradient id="g" x1="-1612.71%" x2="1271.24%" y1="-962.85%" y2="1380.53%"><stop offset="0%" stop-color="#00C8D7"/><stop offset="100%" stop-color="#0A84FF"/></linearGradient><linearGradient id="h" x1="-717.77%" x2="350.28%" y1="-631.42%" y2="605.57%"><stop offset="0%" stop-color="#00C8D7"/><stop offset="100%" stop-color="#0A84FF"/></linearGradient><linearGradient id="i" x1="-678.43%" x2="953.71%" y1="-2415.06%" y2="2904.92%"><stop offset="0%" stop-color="#00C8D7"/><stop offset="100%" stop-color="#0A84FF"/></linearGradient><linearGradient id="j" x1="-685.06%" x2="947.04%" y1="-2512.35%" y2="2807.27%"><stop offset="0%" stop-color="#00C8D7"/><stop offset="100%" stop-color="#0A84FF"/></linearGradient><linearGradient id="k" x1="-734.68%" x2="992.21%" y1="-3187.24%" y2="3287.16%"><stop offset="0%" stop-color="#00C8D7"/><stop offset="100%" stop-color="#0A84FF"/></linearGradient><linearGradient id="l" x1="-1774.58%" x2="947.57%" y1="-622.09%" y2="1235.3%"><stop offset="0%" stop-color="#00C8D7"/><stop offset="100%" stop-color="#0A84FF"/></linearGradient><linearGradient id="m" x1="-398.07%" x2="632.47%" y1="-631.67%" y2="531.29%"><stop offset="0%" stop-color="#00C8D7"/><stop offset="100%" stop-color="#0A84FF"/></linearGradient><linearGradient id="n" x1="-1124.38%" x2="809.33%" y1="-880.97%" y2="1688.91%"><stop offset="0%" stop-color="#00C8D7"/><stop offset="100%" stop-color="#0A84FF"/></linearGradient><linearGradient id="o" x1="-977.49%" x2="1054.15%" y1="-1441.03%" y2="2239.65%"><stop offset="0%" stop-color="#00C8D7"/><stop offset="100%" stop-color="#0A84FF"/></linearGradient><linearGradient id="p" x1="-6391.16%" x2="6272.08%" y1="-1462.89%" y2="2069.37%"><stop offset="0%" stop-color="#00C8D7"/><stop offset="100%" stop-color="#0A84FF"/></linearGradient><linearGradient id="q" x1="-3431.57%" x2="3413.16%" y1="-1172.82%" y2="1682.24%"><stop offset="0%" stop-color="#00C8D7"/><stop offset="100%" stop-color="#0A84FF"/></linearGradient><linearGradient id="r" x1="-123.29%" x2="194.11%" y1="-44.65%" y2="152.94%"><stop offset="0%" stop-color="#00C8D7"/><stop offset="100%" stop-color="#0A84FF"/></linearGradient></defs><g fill="none" fill-rule="evenodd"><path fill="#0C0C0D" d="M277.35 235.23v3.57h-1.11v-9.45h2.6c1 0 1.79.24 2.35.74.55.49.83 1.18.83 2.08 0 .9-.3 1.63-.93 2.2-.61.57-1.45.86-2.5.86h-1.24zm0-4.88v3.88h1.16c.76 0 1.34-.18 1.75-.53.4-.35.6-.84.6-1.48 0-1.25-.74-1.87-2.21-1.87h-1.3zm7.39 8.45h-1.08v-10h1.08v10zm7.61-3.1h-4.77c.02.75.22 1.33.61 1.74.39.4.92.6 1.6.6.76 0 1.45-.24 2.1-.74v1.01c-.6.43-1.39.65-2.36.65-.96 0-1.7-.3-2.25-.92a3.76 3.76 0 0 1-.82-2.59c0-1.05.3-1.9.9-2.57.6-.66 1.33-.99 2.21-.99.89 0 1.57.29 2.05.86.49.57.73 1.36.73 2.38v.57zm-1.1-.92a2.2 2.2 0 0 0-.46-1.46c-.3-.34-.7-.52-1.24-.52-.5 0-.94.18-1.3.55-.35.36-.57.84-.65 1.43h3.64zm7.57 4.02h-1.08v-1.05h-.03a2.26 2.26 0 0 1-2.08 1.2c-.67 0-1.2-.17-1.58-.53a1.85 1.85 0 0 1-.57-1.41c0-1.26.75-2 2.23-2.2l2.03-.29c0-1.15-.47-1.72-1.4-1.72-.8 0-1.54.28-2.2.83v-1.1a4.18 4.18 0 0 1 2.3-.64c1.58 0 2.38.84 2.38 2.52v4.39zm-1.08-3.41l-1.63.22c-.5.07-.88.2-1.14.37-.25.18-.38.5-.38.95 0 .33.12.6.35.8.24.21.55.32.94.32.54 0 .98-.19 1.33-.57.35-.37.53-.85.53-1.42v-.67zm2.7 3.17v-1.16a3.2 3.2 0 0 0 1.95.65c.95 0 1.42-.32 1.42-.95a.82.82 0 0 0-.12-.46c-.08-.12-.19-.24-.33-.33-.14-.1-.3-.19-.49-.26l-.6-.24c-.3-.12-.56-.24-.79-.36a2.38 2.38 0 0 1-.56-.41 1.52 1.52 0 0 1-.35-.52c-.07-.2-.11-.42-.11-.68 0-.31.07-.6.22-.84.14-.24.33-.45.58-.61.24-.17.51-.29.82-.37a3.87 3.87 0 0 1 2.53.18v1.09a3.06 3.06 0 0 0-2.26-.42c-.16.05-.3.11-.42.2a.9.9 0 0 0-.27.3.79.79 0 0 0-.1.38c0 .18.04.32.1.44.06.12.16.23.28.32.12.1.27.17.45.25.17.07.37.16.6.24.3.12.57.23.8.36.24.12.44.25.6.4.18.16.3.33.4.53.09.2.13.43.13.7 0 .34-.07.63-.22.87a1.9 1.9 0 0 1-.6.62 2.7 2.7 0 0 1-.84.36 4.2 4.2 0 0 1-1.01.12c-.7 0-1.3-.14-1.8-.4zm11.57-2.86h-4.77c.02.75.22 1.33.6 1.74.4.4.93.6 1.6.6.76 0 1.46-.24 2.1-.74v1.01c-.6.43-1.38.65-2.35.65-.96 0-1.7-.3-2.25-.92a3.76 3.76 0 0 1-.82-2.59c0-1.05.3-1.9.9-2.57.59-.66 1.33-.99 2.21-.99.88 0 1.57.29 2.05.86.48.57.73 1.36.73 2.38v.57zm-1.11-.92a2.2 2.2 0 0 0-.45-1.46c-.3-.34-.71-.52-1.24-.52-.5 0-.94.18-1.3.55-.35.36-.57.84-.66 1.43h3.65zm11.04 3.71c-.52.31-1.13.47-1.85.47-.96 0-1.73-.31-2.33-.94a3.4 3.4 0 0 1-.88-2.44c0-1.1.32-2 .95-2.68a3.34 3.34 0 0 1 2.55-1c.6 0 1.12.1 1.57.32v1.1a2.75 2.75 0 0 0-1.6-.52c-.7 0-1.26.25-1.7.74-.44.5-.66 1.15-.66 1.95s.2 1.42.62 1.87c.41.46.97.69 1.67.69.59 0 1.14-.2 1.66-.59v1.03zm7.24.31h-1.08v-3.89c0-1.4-.53-2.1-1.57-2.1-.53 0-.97.2-1.33.6-.36.4-.54.93-.54 1.57v3.82h-1.09v-10h1.09v4.37h.02a2.46 2.46 0 0 1 2.22-1.28c1.52 0 2.28.92 2.28 2.75v4.16zm7.46-3.1h-4.77c.02.75.22 1.33.61 1.74.39.4.92.6 1.6.6.76 0 1.45-.24 2.1-.74v1.01c-.6.43-1.39.65-2.36.65-.96 0-1.7-.3-2.25-.92a3.76 3.76 0 0 1-.82-2.59c0-1.05.3-1.9.9-2.57.6-.66 1.33-.99 2.21-.99.89 0 1.57.29 2.05.86.49.57.73 1.36.73 2.38v.57zm-1.1-.92a2.2 2.2 0 0 0-.46-1.46c-.3-.34-.7-.52-1.24-.52-.5 0-.94.18-1.3.55-.35.36-.57.84-.65 1.43h3.64zm7.34 3.71c-.52.31-1.14.47-1.85.47-.96 0-1.74-.31-2.33-.94a3.4 3.4 0 0 1-.89-2.44c0-1.1.32-2 .96-2.68a3.34 3.34 0 0 1 2.55-1c.6 0 1.12.1 1.57.32v1.1a2.75 2.75 0 0 0-1.6-.52c-.7 0-1.27.25-1.7.74-.45.5-.67 1.15-.67 1.95s.2 1.42.62 1.87c.42.46.98.69 1.67.69.6 0 1.15-.2 1.67-.59v1.03zm7.23.31h-1.51l-2.98-3.24h-.03v3.24h-1.08v-10h1.08v6.34h.03l2.83-3.09h1.42l-3.13 3.26 3.37 3.49zm7.94-.07c-.25.14-.6.22-1 .22-1.2 0-1.78-.66-1.78-1.98v-4h-1.16v-.92h1.16v-1.65l1.08-.35v2h1.7v.92h-1.7v3.8c0 .46.08.78.23.98.15.19.4.29.76.29.28 0 .51-.08.71-.23v.92zm7.05.07h-1.08v-3.89c0-1.4-.53-2.1-1.57-2.1-.53 0-.97.2-1.33.6-.37.4-.55.93-.55 1.57v3.82h-1.08v-10h1.08v4.37h.03a2.46 2.46 0 0 1 2.22-1.28c1.52 0 2.28.92 2.28 2.75v4.16zm6.87 0h-1.09v-1.05h-.02a2.26 2.26 0 0 1-2.08 1.2c-.67 0-1.2-.17-1.58-.53a1.85 1.85 0 0 1-.57-1.41c0-1.26.75-2 2.23-2.2l2.02-.29c0-1.15-.46-1.72-1.39-1.72-.81 0-1.54.28-2.2.83v-1.1a4.18 4.18 0 0 1 2.3-.64c1.58 0 2.38.84 2.38 2.52v4.39zm-1.09-3.41l-1.62.22c-.5.07-.88.2-1.14.37-.25.18-.38.5-.38.95 0 .33.12.6.35.8.24.21.55.32.94.32.54 0 .98-.19 1.33-.57.35-.37.52-.85.52-1.42v-.67zm6.25 3.34c-.25.14-.59.22-1 .22-1.19 0-1.78-.66-1.78-1.98v-4h-1.16v-.92h1.16v-1.65l1.08-.35v2h1.7v.92h-1.7v3.8c0 .46.08.78.23.98.16.19.41.29.77.29.27 0 .5-.08.7-.23v.92zm8.28 0c-.26.14-.6.22-1.01.22-1.18 0-1.78-.66-1.78-1.98v-4h-1.16v-.92h1.16v-1.65l1.09-.35v2h1.7v.92h-1.7v3.8c0 .46.07.78.23.98.15.19.4.29.76.29.27 0 .5-.08.7-.23v.92zm7.04.07h-1.08v-3.89c0-1.4-.52-2.1-1.57-2.1-.52 0-.97.2-1.33.6-.36.4-.54.93-.54 1.57v3.82h-1.08v-10h1.08v4.37h.03a2.46 2.46 0 0 1 2.21-1.28c1.52 0 2.28.92 2.28 2.75v4.16zm7.46-3.1h-4.76c.02.75.22 1.33.6 1.74.4.4.92.6 1.6.6.76 0 1.46-.24 2.1-.74v1.01c-.6.43-1.38.65-2.36.65-.95 0-1.7-.3-2.24-.92a3.76 3.76 0 0 1-.82-2.59c0-1.05.3-1.9.9-2.57.59-.66 1.33-.99 2.2-.99.9 0 1.58.29 2.06.86.48.57.72 1.36.72 2.38v.57zm-1.1-.92a2.2 2.2 0 0 0-.45-1.46c-.3-.34-.71-.52-1.24-.52-.51 0-.94.18-1.3.55-.35.36-.57.84-.66 1.43h3.65zm13.5.2c0 2.65-1.2 3.98-3.6 3.98-2.29 0-3.44-1.28-3.44-3.83v-5.78h1.11v5.7c0 1.94.82 2.91 2.45 2.91 1.58 0 2.37-.93 2.37-2.8v-5.81h1.1v5.63zm9.13 3.82h-1.31l-1.59-2.65a5.77 5.77 0 0 0-.42-.63 2.4 2.4 0 0 0-.42-.42c-.14-.11-.3-.2-.46-.25a1.9 1.9 0 0 0-.56-.07h-.9v4.02h-1.11v-9.45h2.82c.41 0 .8.05 1.14.15.35.1.65.26.91.47.26.21.46.48.6.8.15.3.22.67.22 1.1 0 .33-.05.63-.15.9a2.37 2.37 0 0 1-1.08 1.29c-.25.15-.54.27-.86.35v.03a2 2 0 0 1 .74.56 20.46 20.46 0 0 1 .66.96l1.77 2.84zm-5.67-8.45v3.43h1.5c.28 0 .54-.04.78-.13.23-.08.43-.2.6-.36.18-.15.31-.34.4-.57.1-.23.15-.48.15-.76 0-.5-.16-.9-.49-1.19-.33-.28-.8-.42-1.42-.42h-1.52zm11.88 8.45h-4.9v-9.45h1.1v8.45h3.8v1zm5.55-8.46a.68.68 0 0 1-.7-.7c0-.2.07-.37.2-.5.14-.14.31-.2.5-.2a.7.7 0 0 1 .72.7c0 .2-.07.36-.21.5a.7.7 0 0 1-.5.2zm.53 8.46h-1.08v-6.75h1.08v6.75zm1.78-.24v-1.16a3.2 3.2 0 0 0 1.94.65c.95 0 1.43-.32 1.43-.95a.82.82 0 0 0-.12-.46c-.08-.12-.2-.24-.33-.33-.14-.1-.3-.19-.5-.26l-.6-.24c-.3-.12-.56-.24-.78-.36a2.38 2.38 0 0 1-.57-.41 1.52 1.52 0 0 1-.34-.52c-.08-.2-.12-.42-.12-.68 0-.31.08-.6.22-.84.15-.24.34-.45.58-.61.24-.17.52-.29.83-.37a3.87 3.87 0 0 1 2.53.18v1.09a3.06 3.06 0 0 0-2.26-.42c-.17.05-.3.11-.42.2a.9.9 0 0 0-.27.3.79.79 0 0 0-.1.38c0 .18.03.32.1.44.06.12.15.23.28.32.12.1.27.17.44.25l.6.24c.3.12.57.23.8.36.25.12.45.25.62.4.16.16.3.33.38.53.1.2.14.43.14.7 0 .34-.08.63-.22.87a1.9 1.9 0 0 1-.6.62 2.7 2.7 0 0 1-.85.36 4.2 4.2 0 0 1-1 .12c-.7 0-1.3-.14-1.81-.4zm14.44-.07c-.52.31-1.14.47-1.85.47-.96 0-1.74-.31-2.33-.94a3.4 3.4 0 0 1-.89-2.44c0-1.1.32-2 .96-2.68a3.34 3.34 0 0 1 2.55-1c.6 0 1.12.1 1.57.32v1.1a2.75 2.75 0 0 0-1.6-.52c-.7 0-1.26.25-1.7.74-.45.5-.67 1.15-.67 1.95s.2 1.42.62 1.87c.42.46.98.69 1.68.69.58 0 1.14-.2 1.66-.59v1.03zm4.45.47c-1 0-1.8-.32-2.39-.95a3.5 3.5 0 0 1-.89-2.5c0-1.14.3-2.03.93-2.66a3.34 3.34 0 0 1 2.51-.96c1 0 1.8.31 2.36.93.56.62.84 1.48.84 2.58 0 1.08-.3 1.94-.9 2.59a3.2 3.2 0 0 1-2.46.97zm.08-6.16c-.7 0-1.24.24-1.65.71-.4.47-.6 1.12-.6 1.95 0 .8.2 1.43.61 1.9.4.46.96.69 1.64.69.7 0 1.24-.23 1.61-.68.38-.45.57-1.1.57-1.93a3 3 0 0 0-.57-1.95 1.97 1.97 0 0 0-1.6-.69zm8.53.34a1.32 1.32 0 0 0-.82-.21c-.46 0-.84.21-1.15.65a3.02 3.02 0 0 0-.47 1.78v3.44h-1.08v-6.75h1.08v1.4h.03c.15-.48.39-.85.7-1.12.32-.27.67-.4 1.07-.4.28 0 .5.03.64.1v1.11zm4.7 0a1.32 1.32 0 0 0-.82-.21c-.46 0-.85.21-1.16.65a3.02 3.02 0 0 0-.46 1.78v3.44h-1.09v-6.75h1.09v1.4h.02c.16-.48.4-.85.7-1.12.32-.27.68-.4 1.07-.4.28 0 .5.03.64.1v1.11zm6.42 2.56h-4.77c.02.75.22 1.33.6 1.74.4.4.92.6 1.6.6.76 0 1.46-.24 2.1-.74v1.01c-.6.43-1.38.65-2.36.65-.95 0-1.7-.3-2.24-.92a3.76 3.76 0 0 1-.82-2.59c0-1.05.3-1.9.9-2.57.59-.66 1.33-.99 2.21-.99.88 0 1.57.29 2.05.86.48.57.73 1.36.73 2.38v.57zm-1.11-.92a2.2 2.2 0 0 0-.45-1.46c-.3-.34-.71-.52-1.24-.52-.51 0-.94.18-1.3.55-.35.36-.57.84-.66 1.43h3.65zm7.34 3.71c-.52.31-1.13.47-1.84.47-.97 0-1.74-.31-2.34-.94a3.4 3.4 0 0 1-.88-2.44c0-1.1.32-2 .95-2.68a3.34 3.34 0 0 1 2.56-1c.59 0 1.11.1 1.56.32v1.1a2.75 2.75 0 0 0-1.6-.52c-.7 0-1.26.25-1.7.74-.44.5-.66 1.15-.66 1.95s.2 1.42.62 1.87c.41.46.97.69 1.67.69.59 0 1.14-.2 1.66-.59v1.03zm4.77.24c-.26.14-.6.22-1.01.22-1.18 0-1.78-.66-1.78-1.98v-4h-1.16v-.92h1.16v-1.65l1.09-.35v2h1.7v.92h-1.7v3.8c0 .46.07.78.23.98.15.19.4.29.76.29.27 0 .5-.08.7-.23v.92zm9.97.07h-1.08v-1.05h-.03a2.26 2.26 0 0 1-2.07 1.2c-.68 0-1.2-.17-1.58-.53a1.85 1.85 0 0 1-.57-1.41c0-1.26.74-2 2.23-2.2l2.02-.29c0-1.15-.46-1.72-1.4-1.72-.8 0-1.54.28-2.2.83v-1.1a4.18 4.18 0 0 1 2.3-.64c1.59 0 2.38.84 2.38 2.52v4.39zm-1.08-3.41l-1.63.22c-.5.07-.88.2-1.13.37-.26.18-.39.5-.39.95 0 .33.12.6.36.8.23.21.55.32.94.32.53 0 .98-.19 1.32-.57.35-.37.53-.85.53-1.42v-.67zm8.72 3.41h-1.08v-3.85c0-1.43-.52-2.15-1.57-2.15-.54 0-.99.2-1.34.61-.36.4-.53.92-.53 1.54v3.85h-1.08v-6.75h1.08v1.12h.02a2.44 2.44 0 0 1 2.22-1.28c.74 0 1.3.24 1.7.72.38.47.58 1.16.58 2.06v4.13zm7.8 0h-1.08v-1.15h-.03a2.5 2.5 0 0 1-2.32 1.3c-.85 0-1.53-.3-2.03-.9-.51-.6-.76-1.43-.76-2.47 0-1.11.28-2 .84-2.68.56-.67 1.31-1 2.25-1 .92 0 1.6.36 2.02 1.09h.03v-4.18h1.08v9.99zm-1.08-3.05v-1c0-.54-.18-1-.54-1.38a1.81 1.81 0 0 0-1.37-.57c-.66 0-1.18.24-1.56.73a3.18 3.18 0 0 0-.57 2c0 .78.18 1.4.55 1.84.36.45.85.68 1.46.68.6 0 1.09-.22 1.46-.65.38-.44.57-.99.57-1.65zm10.1 2.98c-.26.14-.6.22-1.01.22-1.19 0-1.78-.66-1.78-1.98v-4h-1.16v-.92h1.16v-1.65l1.08-.35v2h1.7v.92h-1.7v3.8c0 .46.08.78.24.98.15.19.4.29.76.29.27 0 .5-.08.7-.23v.92zm4.96-5.59a1.32 1.32 0 0 0-.82-.21c-.46 0-.85.21-1.15.65a3.02 3.02 0 0 0-.47 1.78v3.44H521v-6.75h1.08v1.4h.03c.15-.48.39-.85.7-1.12.32-.27.67-.4 1.06-.4.28 0 .5.03.65.1v1.11zm7.09-1.09l-3.1 7.83c-.56 1.4-1.34 2.1-2.34 2.1-.28 0-.52-.03-.7-.09v-.97a2 2 0 0 0 .63.12c.55 0 .95-.32 1.23-.97l.54-1.28-2.64-6.74h1.2l1.83 5.2.14.5h.03l.14-.5 1.91-5.2h1.13zm9.69 6.75h-1.09v-1.05h-.02a2.26 2.26 0 0 1-2.08 1.2c-.67 0-1.2-.17-1.58-.53a1.85 1.85 0 0 1-.57-1.41c0-1.26.75-2 2.23-2.2l2.02-.29c0-1.15-.46-1.72-1.39-1.72-.81 0-1.54.28-2.2.83v-1.1a4.18 4.18 0 0 1 2.3-.64c1.58 0 2.38.84 2.38 2.52v4.39zm-1.09-3.41l-1.62.22c-.5.07-.88.2-1.14.37-.25.18-.38.5-.38.95 0 .33.12.6.35.8.24.21.55.32.94.32.54 0 .98-.19 1.33-.57.35-.37.52-.85.52-1.42v-.67zm8.88 2.87c0 2.48-1.18 3.72-3.56 3.72-.83 0-1.56-.16-2.18-.48v-1.08a4.5 4.5 0 0 0 2.17.63c1.66 0 2.5-.88 2.5-2.65v-.73h-.03a2.53 2.53 0 0 1-2.32 1.29c-.84 0-1.52-.3-2.03-.9a3.6 3.6 0 0 1-.77-2.42c0-1.14.28-2.06.83-2.73a2.76 2.76 0 0 1 2.26-1.02c.91 0 1.59.37 2.03 1.1h.02v-.94h1.08v6.2zm-1.08-2.51v-1c0-.53-.18-1-.54-1.38a1.79 1.79 0 0 0-1.36-.57c-.66 0-1.19.24-1.56.73a3.25 3.25 0 0 0-.57 2.04c0 .75.18 1.35.54 1.8.36.45.84.68 1.44.68s1.1-.22 1.48-.65c.38-.43.57-.98.57-1.65zm8.1 3.05h-1.08v-1.05h-.02a2.26 2.26 0 0 1-2.08 1.2c-.67 0-1.2-.17-1.58-.53a1.85 1.85 0 0 1-.57-1.41c0-1.26.74-2 2.23-2.2l2.02-.29c0-1.15-.46-1.72-1.39-1.72-.81 0-1.55.28-2.2.83v-1.1a4.18 4.18 0 0 1 2.3-.64c1.58 0 2.37.84 2.37 2.52v4.39zm-1.08-3.41l-1.63.22c-.5.07-.87.2-1.13.37-.25.18-.38.5-.38.95 0 .33.12.6.35.8.24.21.55.32.94.32.54 0 .98-.19 1.33-.57.35-.37.52-.85.52-1.42v-.67zm3.67-5.05a.68.68 0 0 1-.7-.7c0-.2.07-.37.21-.5.14-.14.3-.2.5-.2a.7.7 0 0 1 .7.7.7.7 0 0 1-.71.7zm.53 8.46h-1.08v-6.75h1.08v6.75zm7.8 0h-1.09v-3.85c0-1.43-.52-2.15-1.57-2.15-.54 0-.98.2-1.34.61-.35.4-.53.92-.53 1.54v3.85h-1.08v-6.75h1.08v1.12h.03a2.44 2.44 0 0 1 2.21-1.28c.74 0 1.3.24 1.7.72.39.47.58 1.16.58 2.06v4.13zm2.4.15a.7.7 0 0 1-.51-.22.72.72 0 0 1-.22-.52c0-.2.08-.38.22-.53a.7.7 0 0 1 .52-.22c.2 0 .38.08.52.22.15.15.22.32.22.53 0 .2-.07.37-.22.52a.72.72 0 0 1-.52.22zM292.53 153v-10.92h-13.03V153h-1.57v-22.76h1.57v10.41h13.03v-10.4h1.55V153h-1.55zm26.95 0v-9.78c0-2.04-.32-3.47-.96-4.3-.64-.82-1.65-1.23-3.04-1.23-1.28 0-2.38.55-3.31 1.65a6.19 6.19 0 0 0-1.4 4.14V153h-1.46v-9.89c0-3.61-1.37-5.42-4.12-5.42-1.33 0-2.43.55-3.3 1.65a6.7 6.7 0 0 0-1.32 4.3V153h-1.46v-16.25h1.46v2.7h.06c1.13-2.07 2.79-3.1 4.97-3.1 1.18 0 2.2.34 3.04 1.03a5.03 5.03 0 0 1 1.7 2.69 6.22 6.22 0 0 1 2.18-2.74 5.34 5.34 0 0 1 3.1-.98c3.55 0 5.32 2.2 5.32 6.6V153h-1.46zm26.21 0v-9.78c0-2.04-.32-3.47-.96-4.3-.64-.82-1.65-1.23-3.04-1.23-1.28 0-2.38.55-3.31 1.65a6.19 6.19 0 0 0-1.4 4.14V153h-1.46v-9.89c0-3.61-1.38-5.42-4.13-5.42-1.32 0-2.42.55-3.3 1.65a6.7 6.7 0 0 0-1.32 4.3V153h-1.46v-16.25h1.46v2.7h.07c1.13-2.07 2.79-3.1 4.97-3.1 1.18 0 2.2.34 3.03 1.03a5.03 5.03 0 0 1 1.71 2.69 6.22 6.22 0 0 1 2.18-2.74 5.34 5.34 0 0 1 3.09-.98c3.55 0 5.33 2.2 5.33 6.6V153h-1.46zm6.83.29c-.36 0-.66-.13-.9-.38a1.25 1.25 0 0 1-.37-.91 1.24 1.24 0 0 1 1.27-1.27c.36 0 .67.12.92.36.26.24.38.54.38.91 0 .36-.12.66-.38.91-.25.25-.56.38-.92.38zm20.62-21.6V153h-1.56v-21.31H365v-1.45h14.7v1.45h-6.57zM393.8 153v-9.74c0-1.93-.35-3.34-1.05-4.23-.7-.9-1.79-1.34-3.27-1.34-1.4 0-2.62.54-3.68 1.63-1.06 1.09-1.59 2.65-1.59 4.68v9h-1.46v-24.06h1.46v10.73h.06a6.1 6.1 0 0 1 5.59-3.32c1.76 0 3.1.57 4.01 1.7.93 1.13 1.39 2.76 1.39 4.87V153h-1.46zm15.56 0v-3.25h-.07a6.37 6.37 0 0 1-2.26 2.65 5.8 5.8 0 0 1-3.3 1 5.06 5.06 0 0 1-3.66-1.3 4.37 4.37 0 0 1-1.35-3.29c0-2.83 1.88-4.55 5.64-5.14l5-.75c0-3.49-1.32-5.23-3.94-5.23-1.79 0-3.53.72-5.22 2.15v-1.76c.6-.47 1.42-.88 2.45-1.22 1.03-.34 2-.5 2.91-.5a4.9 4.9 0 0 1 3.88 1.55c.92 1.04 1.38 2.54 1.38 4.52V153h-1.46zm-4.48-8.1c-1.7.25-2.9.64-3.59 1.19-.68.54-1.03 1.43-1.03 2.66 0 .96.32 1.75.96 2.38.64.62 1.53.93 2.68.93 1.56 0 2.86-.58 3.9-1.73a6.47 6.47 0 0 0 1.56-4.49v-1.58l-4.48.65zm16.75 7.88c-.76.36-1.48.54-2.14.54-2.4 0-3.6-1.44-3.6-4.32v-10.92h-2.92v-1.33h2.92v-4.22a28.64 28.64 0 0 1 1.46-.5v4.72h4.28v1.33h-4.28v10.73c0 1.12.17 1.93.53 2.44.35.5.95.75 1.8.75.6 0 1.25-.2 1.95-.59v1.37zm20.84.22v-3.25h-.07a6.37 6.37 0 0 1-2.26 2.65 5.8 5.8 0 0 1-3.3 1 5.06 5.06 0 0 1-3.66-1.3 4.37 4.37 0 0 1-1.35-3.29c0-2.83 1.88-4.55 5.64-5.14l5-.75c0-3.49-1.32-5.23-3.94-5.23-1.79 0-3.53.72-5.22 2.15v-1.76c.6-.47 1.42-.88 2.45-1.22 1.03-.34 2-.5 2.91-.5a4.9 4.9 0 0 1 3.88 1.55c.92 1.04 1.38 2.54 1.38 4.52V153h-1.46zm-4.48-8.1c-1.7.25-2.9.64-3.59 1.19-.68.54-1.03 1.43-1.03 2.66 0 .96.32 1.75.96 2.38.64.62 1.53.93 2.68.93 1.56 0 2.86-.58 3.9-1.73a6.47 6.47 0 0 0 1.56-4.49v-1.58l-4.48.65zm21.86 8.1v-2.95h-.06a5.93 5.93 0 0 1-2.35 2.44c-1.04.6-2.2.9-3.5.9-2 0-3.64-.72-4.9-2.18-1.27-1.46-1.9-3.48-1.9-6.05 0-2.62.69-4.75 2.07-6.37a6.72 6.72 0 0 1 5.37-2.44c2.44 0 4.17 1 5.2 3h.07v-10.4h1.46V153h-1.46zm0-9.89c0-1.5-.48-2.8-1.44-3.84a4.97 4.97 0 0 0-3.86-1.58 5.3 5.3 0 0 0-4.22 1.96c-1.11 1.3-1.67 3.1-1.67 5.38 0 2.25.5 3.98 1.5 5.2a4.77 4.77 0 0 0 3.87 1.83c1.85 0 3.28-.57 4.3-1.72a6.11 6.11 0 0 0 1.52-4.2v-3.03zm17.7 9.89v-2.95h-.06a5.93 5.93 0 0 1-2.35 2.44c-1.04.6-2.2.9-3.5.9-2 0-3.64-.72-4.9-2.18-1.27-1.46-1.9-3.48-1.9-6.05 0-2.62.7-4.75 2.07-6.37a6.72 6.72 0 0 1 5.37-2.44c2.44 0 4.17 1 5.2 3h.07v-10.4h1.46V153h-1.46zm0-9.89c0-1.5-.48-2.8-1.43-3.84a4.97 4.97 0 0 0-3.87-1.58 5.3 5.3 0 0 0-4.22 1.96c-1.11 1.3-1.67 3.1-1.67 5.38 0 2.25.5 3.98 1.5 5.2a4.77 4.77 0 0 0 3.87 1.83c1.85 0 3.28-.57 4.3-1.72a6.11 6.11 0 0 0 1.52-4.2v-3.03zm13.83-4.84a2.86 2.86 0 0 0-1.71-.52c-1.28 0-2.36.66-3.22 1.98-.87 1.33-1.3 3.2-1.3 5.64V153h-1.43v-16.25h1.43v3.6h.06c.37-1.24.96-2.2 1.76-2.89a4.17 4.17 0 0 1 2.8-1.03c.6 0 1.14.1 1.61.29v1.55zm2.26 6.67c0 2.23.52 3.98 1.55 5.24a5.2 5.2 0 0 0 4.25 1.88c1.82 0 3.6-.67 5.33-2.01v1.55a9.5 9.5 0 0 1-5.64 1.8c-2.1 0-3.78-.75-5.07-2.26-1.3-1.5-1.94-3.62-1.94-6.36 0-2.37.67-4.37 2.02-6a6.52 6.52 0 0 1 5.26-2.43c2.02 0 3.57.71 4.65 2.13 1.08 1.42 1.62 3.35 1.62 5.8v.66h-12.03zm10.5-1.33c-.05-1.88-.5-3.33-1.34-4.37a4.2 4.2 0 0 0-3.46-1.55c-1.52 0-2.78.5-3.78 1.53-1 1.02-1.62 2.48-1.85 4.39h10.44zm4.22 8.68v-1.77c.55.48 1.22.86 2 1.13.78.28 1.46.41 2.03.41 2.55 0 3.83-1.04 3.83-3.12a2.4 2.4 0 0 0-.84-1.84c-.56-.51-1.47-1.03-2.73-1.57a9.27 9.27 0 0 1-3.28-2.1 3.89 3.89 0 0 1-.94-2.65c0-1.32.5-2.39 1.51-3.2a5.76 5.76 0 0 1 3.74-1.23c1.4 0 2.59.29 3.58.86v1.65a6.79 6.79 0 0 0-3.74-1.17c-1.07 0-1.93.27-2.59.83a2.7 2.7 0 0 0-.98 2.17c0 .77.2 1.4.62 1.88.41.48 1.32 1.03 2.73 1.65 1.69.77 2.85 1.47 3.49 2.12.63.65.95 1.52.95 2.6 0 1.29-.48 2.35-1.45 3.2-.97.84-2.3 1.26-4 1.26a6.62 6.62 0 0 1-3.93-1.11zm12.12 0v-1.77c.55.48 1.21.86 2 1.13.78.28 1.46.41 2.03.41 2.55 0 3.82-1.04 3.82-3.12a2.4 2.4 0 0 0-.84-1.84c-.56-.51-1.47-1.03-2.73-1.57a9.27 9.27 0 0 1-3.27-2.1 3.89 3.89 0 0 1-.95-2.65c0-1.32.5-2.39 1.52-3.2a5.76 5.76 0 0 1 3.73-1.23c1.4 0 2.6.29 3.59.86v1.65a6.79 6.79 0 0 0-3.74-1.17c-1.07 0-1.94.27-2.6.83a2.7 2.7 0 0 0-.98 2.17c0 .77.21 1.4.62 1.88.42.48 1.33 1.03 2.73 1.65 1.7.77 2.86 1.47 3.5 2.12.63.65.95 1.52.95 2.6 0 1.29-.49 2.35-1.46 3.2-.96.84-2.3 1.26-4 1.26a6.62 6.62 0 0 1-3.92-1.11zm32.9.71v-2.95h-.07a5.93 5.93 0 0 1-2.35 2.44c-1.03.6-2.2.9-3.5.9-2 0-3.64-.72-4.9-2.18-1.26-1.46-1.9-3.48-1.9-6.05 0-2.62.7-4.75 2.07-6.37a6.72 6.72 0 0 1 5.38-2.44c2.43 0 4.16 1 5.2 3h.06v-10.4h1.46V153h-1.46zm0-9.89c0-1.5-.48-2.8-1.44-3.84a4.97 4.97 0 0 0-3.87-1.58 5.3 5.3 0 0 0-4.22 1.96c-1.1 1.3-1.66 3.1-1.66 5.38 0 2.25.5 3.98 1.5 5.2a4.77 4.77 0 0 0 3.86 1.83c1.85 0 3.29-.57 4.3-1.72a6.11 6.11 0 0 0 1.52-4.2v-3.03zm12.68 10.29c-2.37 0-4.24-.78-5.62-2.34-1.38-1.56-2.08-3.6-2.08-6.09 0-2.7.73-4.8 2.17-6.33a7.5 7.5 0 0 1 5.7-2.29c2.32 0 4.15.76 5.5 2.27 1.34 1.52 2.01 3.61 2.01 6.29 0 2.53-.68 4.57-2.05 6.14-1.37 1.56-3.25 2.35-5.63 2.35zm.11-15.71a5.8 5.8 0 0 0-4.58 1.93c-1.13 1.3-1.7 3.09-1.7 5.38 0 2.13.55 3.84 1.66 5.13a5.7 5.7 0 0 0 4.56 1.93c1.96 0 3.46-.63 4.52-1.9 1.06-1.27 1.59-3.03 1.59-5.28 0-2.32-.53-4.1-1.58-5.34-1.05-1.23-2.54-1.85-4.47-1.85zm10.26 14.6v-1.77c.55.48 1.22.86 2 1.13.78.28 1.46.41 2.03.41 2.55 0 3.83-1.04 3.83-3.12a2.4 2.4 0 0 0-.84-1.84c-.56-.51-1.47-1.03-2.73-1.57a9.27 9.27 0 0 1-3.28-2.1 3.89 3.89 0 0 1-.94-2.65c0-1.32.5-2.39 1.51-3.2a5.76 5.76 0 0 1 3.74-1.23c1.4 0 2.59.29 3.58.86v1.65a6.79 6.79 0 0 0-3.74-1.17c-1.07 0-1.93.27-2.59.83a2.7 2.7 0 0 0-.98 2.17c0 .77.2 1.4.62 1.88.41.48 1.32 1.03 2.73 1.65 1.69.77 2.85 1.47 3.49 2.12.63.65.95 1.52.95 2.6 0 1.29-.48 2.35-1.45 3.2-.97.84-2.3 1.26-4 1.26a6.62 6.62 0 0 1-3.93-1.11zm13.3-7.35c0 2.23.52 3.98 1.56 5.24a5.2 5.2 0 0 0 4.24 1.88c1.82 0 3.6-.67 5.33-2.01v1.55a9.5 9.5 0 0 1-5.63 1.8c-2.1 0-3.79-.75-5.08-2.26-1.29-1.5-1.94-3.62-1.94-6.36 0-2.37.68-4.37 2.03-6a6.52 6.52 0 0 1 5.26-2.43c2.02 0 3.57.71 4.65 2.13 1.08 1.42 1.62 3.35 1.62 5.8v.66h-12.03zm10.51-1.33c-.06-1.88-.51-3.33-1.35-4.37a4.2 4.2 0 0 0-3.45-1.55c-1.53 0-2.79.5-3.79 1.53-1 1.02-1.62 2.48-1.85 4.39h10.44zm16.1 9.39v-9.46c0-3.9-1.4-5.85-4.22-5.85a4.9 4.9 0 0 0-3.85 1.72 6.24 6.24 0 0 0-1.51 4.26V153h-1.46v-16.25h1.46v2.95h.06a5.88 5.88 0 0 1 5.56-3.35c1.75 0 3.1.59 4.03 1.76.93 1.17 1.4 2.83 1.4 5V153h-1.47zm6.2-15.63h-1.16l1.98-7.13h1.65l-2.47 7.13zm12.53 15.4c-.76.37-1.48.55-2.14.55-2.4 0-3.6-1.44-3.6-4.32v-10.92h-2.93v-1.33h2.92v-4.22a28.64 28.64 0 0 1 1.46-.5v4.72h4.29v1.33h-4.29v10.73c0 1.12.18 1.93.53 2.44.36.5.96.75 1.8.75.6 0 1.26-.2 1.96-.59v1.37zm11.12.23v-24.06h1.46V153h-1.46zm12.69.4c-2.37 0-4.25-.78-5.63-2.34-1.38-1.56-2.07-3.6-2.07-6.09 0-2.7.72-4.8 2.17-6.33a7.5 7.5 0 0 1 5.7-2.29c2.32 0 4.15.76 5.5 2.27 1.34 1.52 2.01 3.61 2.01 6.29 0 2.53-.69 4.57-2.06 6.14-1.37 1.56-3.24 2.35-5.62 2.35zm.11-15.71a5.8 5.8 0 0 0-4.58 1.93c-1.14 1.3-1.7 3.09-1.7 5.38 0 2.13.55 3.84 1.66 5.13a5.7 5.7 0 0 0 4.56 1.93c1.95 0 3.46-.63 4.52-1.9 1.06-1.27 1.59-3.03 1.59-5.28 0-2.32-.53-4.1-1.58-5.34-1.06-1.23-2.54-1.85-4.47-1.85zm17.62 15.7c-2.37 0-4.24-.77-5.62-2.33s-2.07-3.6-2.07-6.09c0-2.7.72-4.8 2.16-6.33a7.5 7.5 0 0 1 5.7-2.29c2.32 0 4.15.76 5.5 2.27 1.34 1.52 2.01 3.61 2.01 6.29 0 2.53-.68 4.57-2.05 6.14-1.37 1.56-3.25 2.35-5.63 2.35zm.11-15.7a5.8 5.8 0 0 0-4.57 1.93c-1.14 1.3-1.71 3.09-1.71 5.38 0 2.13.56 3.84 1.67 5.13a5.7 5.7 0 0 0 4.55 1.93c1.96 0 3.47-.63 4.52-1.9 1.06-1.27 1.59-3.03 1.59-5.28 0-2.32-.53-4.1-1.58-5.34-1.05-1.23-2.54-1.85-4.47-1.85zm20.4 15.31l-7.77-8.03h-.07V153h-1.46v-24.06h1.46v15.5h.07l7.38-7.69h1.89l-7.72 7.87 8.33 8.38h-2.1zm-411.85 28.27a2.86 2.86 0 0 0-1.72-.52c-1.28 0-2.35.66-3.22 1.98-.87 1.33-1.3 3.2-1.3 5.64V196h-1.43v-16.25h1.43v3.6h.06c.37-1.24.96-2.2 1.77-2.89a4.17 4.17 0 0 1 2.79-1.03c.6 0 1.14.1 1.62.29v1.55zm3.27-5.61c-.31 0-.6-.12-.84-.35a1.18 1.18 0 0 1-.36-.9c0-.34.12-.62.37-.84.25-.22.53-.33.83-.33.33 0 .62.1.87.32.25.21.37.5.37.86 0 .34-.12.63-.36.87a1.2 1.2 0 0 1-.88.37zm-.71 20.34v-16.25h1.46V196h-1.46zm19.16-1.2c0 3.05-.66 5.29-2 6.7-1.33 1.42-3.4 2.13-6.22 2.13-1.56 0-3.18-.41-4.84-1.23v-1.53c1.72.95 3.34 1.43 4.87 1.43 4.49 0 6.73-2.37 6.73-7.1v-2.12h-.06a6.32 6.32 0 0 1-5.86 3.32c-2 0-3.63-.73-4.9-2.18-1.26-1.45-1.89-3.47-1.89-6.06 0-2.6.68-4.7 2.05-6.35a6.67 6.67 0 0 1 5.4-2.46c2.38 0 4.12 1 5.2 2.97h.06v-2.57H307v15.04zm-1.46-8.81a5.3 5.3 0 0 0-1.45-3.73 4.91 4.91 0 0 0-3.78-1.57c-1.8 0-3.23.67-4.32 2.01-1.1 1.35-1.64 3.12-1.64 5.33 0 2.23.5 3.95 1.5 5.18a4.85 4.85 0 0 0 3.96 1.85c1.75 0 3.14-.56 4.18-1.7a5.93 5.93 0 0 0 1.55-4.15v-3.22zM322.74 196v-9.74c0-1.93-.35-3.34-1.05-4.23-.7-.9-1.78-1.34-3.26-1.34-1.4 0-2.63.54-3.69 1.63-1.05 1.09-1.58 2.65-1.58 4.68v9h-1.46v-24.06h1.46v10.73h.06a6.1 6.1 0 0 1 5.59-3.32c1.75 0 3.1.57 4.01 1.7.92 1.13 1.38 2.76 1.38 4.87V196h-1.46zm12.28-.22c-.77.36-1.48.54-2.15.54-2.4 0-3.6-1.44-3.6-4.32v-10.92h-2.92v-1.33h2.92v-4.22a28.64 28.64 0 0 1 1.46-.5v4.72h4.29v1.33h-4.29v10.73c0 1.12.18 1.93.53 2.44.36.5.96.75 1.8.75.6 0 1.26-.2 1.96-.59v1.37zm3.72.5a1.25 1.25 0 0 1-1.27-1.29c0-.36.12-.66.36-.9.25-.24.55-.36.9-.36.37 0 .67.12.93.36.25.24.38.54.38.91 0 .36-.13.66-.38.91-.26.25-.56.38-.92.38z"/><g fill-rule="nonzero" transform="translate(32 80)"><path fill="#EAEAEE" d="M26.27 108.84L89.4 82.1a1 1 0 0 0-.78-1.84L25.5 107a1 1 0 0 0 .78 1.84zm36.78-21.1l15.83-6.7a.5.5 0 0 0-.39-.93l-15.83 6.7a.5.5 0 0 0 .39.93zm-50.7 31.3a.5.5 0 0 1 .27-.66l2.76-1.17a.5.5 0 1 1 .39.92L13 119.3a.5.5 0 0 1-.66-.26zm10.13-4.3a.5.5 0 0 1 .26-.65l11.05-4.68a.5.5 0 1 1 .4.92l-11.06 4.68a.5.5 0 0 1-.65-.26zm19.33-8.18a.5.5 0 0 1 .27-.66l.92-.39a.5.5 0 1 1 .39.92l-.92.4a.5.5 0 0 1-.66-.27zm4.6-1.96a.5.5 0 0 1 .27-.65l2.76-1.17a.5.5 0 1 1 .4.92l-2.77 1.17a.5.5 0 0 1-.65-.27zm10.13-4.29a.5.5 0 0 1 .27-.65l11.05-4.68a.5.5 0 0 1 .39.92l-11.05 4.68a.5.5 0 0 1-.65-.27zm-.3 36.95L161.81 104a1 1 0 1 0-.6-1.9L55.64 135.34a1 1 0 1 0 .6 1.91zM69 128l26.48-8.34a.5.5 0 0 0-.3-.96l-26.48 8.34a.5.5 0 0 0 .3.96zm-31.08 19.09a.5.5 0 0 1 .32-.63l11.45-3.6a.5.5 0 1 1 .3.95l-11.45 3.6a.5.5 0 0 1-.62-.32zm19.07-6.01a.5.5 0 0 1 .33-.63l2.86-.9a.5.5 0 0 1 .3.96l-2.86.9a.5.5 0 0 1-.63-.33zm6.68-2.1a.5.5 0 0 1 .33-.63l.95-.3a.5.5 0 0 1 .3.96l-.95.3a.5.5 0 0 1-.63-.33zm9.54-3a.5.5 0 0 1 .33-.63l11.44-3.6a.5.5 0 1 1 .3.95l-11.44 3.6a.5.5 0 0 1-.63-.33v.01zm19.08-6.01a.5.5 0 0 1 .32-.63l2.86-.9a.5.5 0 0 1 .3.96l-2.86.9a.5.5 0 0 1-.63-.34v.01zm6.67-2.1a.5.5 0 0 1 .33-.63l.95-.3a.5.5 0 1 1 .3.96l-.95.3a.5.5 0 0 1-.63-.34v.01zm9.54-3a.5.5 0 0 1 .33-.63l11.44-3.6a.5.5 0 1 1 .3.95l-11.44 3.6a.5.5 0 0 1-.63-.33v.01zm19.08-6.01a.5.5 0 0 1 .32-.63l2.86-.9a.5.5 0 1 1 .3.96l-2.86.9a.5.5 0 0 1-.63-.34v.01zm6.67-2.1a.5.5 0 0 1 .33-.63l.95-.3a.5.5 0 1 1 .3.96l-.95.3a.5.5 0 0 1-.63-.35v.02zm9.54-3a.5.5 0 0 1 .33-.63l11.44-3.6a.5.5 0 1 1 .3.95l-11.44 3.6a.5.5 0 0 1-.63-.34v.02zm19.08-6.01a.5.5 0 0 1 .32-.63l2.87-.9a.5.5 0 1 1 .3.96l-2.87.9a.5.5 0 0 1-.63-.35v.02zm6.67-2.1a.5.5 0 0 1 .33-.63l.95-.3a.5.5 0 1 1 .3.96l-.95.3a.5.5 0 0 1-.63-.36v.03zm9.54-3a.5.5 0 0 1 .33-.63l11.44-3.6a.5.5 0 0 1 .3.95l-11.44 3.6a.5.5 0 0 1-.63-.35v.03z"/><path fill="#FFFFFF" d="M3.88 52.44l22.49-11.87s-15.34-12-1.48-21.92C37.26 9.8 49.74 20.7 49.74 20.7s-2.58-8.73 6.13-11.4c8.6-2.63 21 6.88 21 6.88L96.45 5.87"/><path fill="#EAEAEE" d="M94.87 1.95L89.08 5a.59.59 0 0 1-.54-1.04L94.32.91a.59.59 0 0 1 .55 1.04zm-15.15 8l-1.04.55a.59.59 0 0 1-.55-1.04l1.04-.55a.59.59 0 0 1 .55 1.04zM25.4 37.8l-1.67.88a.59.59 0 0 1-.55-1.03l.9-.48-.6-.55a.59.59 0 0 1 .82-.85c.7.66 1.17 1.04 1.18 1.05a.59.59 0 0 1-.08.98zm-10 5.28L2.92 49.68a.59.59 0 1 1-.55-1.04l12.48-6.6a.59.59 0 1 1 .55 1.05zm59.16-31.3c-.2.1-.42.09-.6-.03a45.2 45.2 0 0 0-3-1.77.59.59 0 1 1 .56-1.04c1.05.57 2.08 1.18 3.08 1.82a.59.59 0 0 1-.04 1.02zM21.06 33.2a.59.59 0 0 1-.75-.18c-.23-.32-.46-.65-.68-1a.59.59 0 0 1 1-.63c.2.33.42.65.64.95a.59.59 0 0 1-.14.82.67.67 0 0 1-.07.04zm25.9-16.6c-.2.1-.42.09-.6-.03l-.98-.62a.59.59 0 0 1 .61-1c.38.22.71.44 1.02.64a.59.59 0 0 1-.05 1.01zM62.77 6.55a.59.59 0 0 1-.4.06 14.72 14.72 0 0 0-7.56-.01 8.58 8.58 0 0 0-4.7 3.16.59.59 0 0 1-.96-.67 9.75 9.75 0 0 1 5.31-3.62c2.68-.71 5.5-.72 8.17-.01a.59.59 0 0 1 .14 1.1zm-21.03 7.33a.59.59 0 0 1-.48.03 21.94 21.94 0 0 0-3.3-1 .59.59 0 1 1 .25-1.14c1.18.25 2.34.6 3.47 1.04a.59.59 0 0 1 .06 1.07zM18.7 22.17a.59.59 0 0 1-.83-.72 14.42 14.42 0 0 1 5.45-6.56 19.35 19.35 0 0 1 5.3-2.71.59.59 0 1 1 .37 1.12A18.26 18.26 0 0 0 24 15.84c-2.24 1.45-4 3.55-5.03 6.01a.59.59 0 0 1-.28.32z"/><path fill="#FFFFFF" d="M97.63 5.6L4.97 54.5a1.18 1.18 0 1 1-1.1-2.08l92.66-48.9a1.18 1.18 0 1 1 1.1 2.08zm41.15 28.22l13.77 3.41s-1.93-10.7 7.53-9.67c8.43.9 9.58 10.09 9.58 10.09s2.17-4.6 6.8-2.48c4.55 2.1 6.18 10.67 6.18 10.67l11.99 2.97"/><path fill="#EAEAEE" d="M153.34 35.79l-13.75-3.4a.59.59 0 0 1 .28-1.15l13.75 3.4a.59.59 0 0 1-.28 1.15zm42.4 10.31l-.52-.13a.59.59 0 0 1 .28-1.15l.53.13a.59.59 0 0 1-.28 1.15zm-5.1-1.27l-3.44-.85a.59.59 0 0 1 .28-1.14l3.44.85a.59.59 0 0 1-.28 1.14zm-20.17-8.62a.61.61 0 0 1-.44-.5l-.04-.23a.59.59 0 0 1 .4-.66 5.48 5.48 0 0 1 7.26-2.2c1.84.96 3.36 2.42 4.38 4.23a.6.6 0 0 1-1 .62 9.48 9.48 0 0 0-3.87-3.77 5.94 5.94 0 0 0-1.05-.37c-3.3-.82-4.9 2.42-4.96 2.56a.6.6 0 0 1-.68.32zm-14.68-9.06a.6.6 0 0 1-.2-1.06 6.8 6.8 0 0 1 3.63-1.19.6.6 0 0 1 .07 1.18 5.63 5.63 0 0 0-3 .97.59.59 0 0 1-.5.1zm9 .18a9.06 9.06 0 0 0-1.15-.54.59.59 0 0 1-.32-.77.6.6 0 0 1 .77-.32c.4.16.77.34 1.13.54a.59.59 0 0 1-.43 1.09z"/><path fill="#FFFFFF" d="M195.22 50.24l-56.76-14.05a1.18 1.18 0 1 1 .57-2.3l56.75 14.05a1.18 1.18 0 0 1-.56 2.3z"/><ellipse cx="108.54" cy="188.95" fill="#EAEAEE" rx="7.46" ry="43.55" transform="rotate(-86.464 108.536 188.951)"/><path fill="#EAEAEE" d="M65.7 169.2L1.47 150.53a1 1 0 1 0-.56 1.92l64.22 18.69a1 1 0 1 0 .55-1.92zm130.55.4l-64.75-17.2a1 1 0 0 0-.51 1.93l64.75 17.21a1 1 0 0 0 .51-1.93z"/><path fill="#FFFFFF" d="M99.47 183.28l.16-.04a.82.82 0 0 1-.2.04h.04z"/><g fill="#FFFFFF" transform="translate(46 33)"><path d="M86.04 11.78l-.12-.55a12.75 12.75 0 0 0-22.77-4.75l-4.58-.2a5 5 0 0 0-4.02-2.98 5 5 0 0 0-1.41-1.73l-.99 5.02-.26 1.33 1.26-.7 2.34-1.28.86 3.9 8.5.38.5-.8A9.75 9.75 0 0 1 81.8 19.89l-1.12 1.76a166 166 0 0 1 5.9 23.12c.32-.01 11.5 70.84 11.42 75.73.25 3.37.21 6.74-.1 10.1-.43 3.64-1.66 13.2-5.4 14.03-.62.14-1.28.05-1.85-.24-.96-.48-1.87-1.83-3.82-11.38a123 123 0 0 1-15.17 4.29 149.57 149.57 0 0 1-17.45 2.84c2.29 9.57 1.77 10.21 1.13 11.02-.4.5-.96.86-1.59 1-3.74.83-8.63-6.28-10.57-9.44a46.87 46.87 0 0 1-2.77-5.38c-2.74-3.42-5.52-2.72-2.77.88a47.78 47.78 0 0 0 2.8 5.4 38.26 38.26 0 0 0 6.12 7.86c2.26 2.07 4.88 3.53 7.65 2.91a5.81 5.81 0 0 0 3.29-2.06c.93-1.23 1.33-2.43 1.13-4.9-.2-1.8-.5-3.6-.92-5.38 4.45-.56 9.45-1.44 14.4-2.53 3.44-.76 7.92-1.87 12.3-3.28.42 2.06.95 4.09 1.59 6.09.86 2.37 1.73 4.03 3.08 4.71 1.06.65 2.32.89 3.54.66 2.81-.62 4.75-1.74 6.52-6.34 1-3.34 1.62-6.79 1.85-10.27.24-3.79.2-7.59-.13-11.37.03-4.5-.48-7.19-.95-13.44-1.18-16.13-9.59-59.45-11.02-64.88a168.44 168.44 0 0 0-5.14-20.05l.34-.54a12.8 12.8 0 0 0 1.74-4.32c.36-1.54.43-3.14.2-4.71z"/><path d="M41.24 138.66l-6.95-14.6c-1.69-6.99-20.87-79.08-21.81-86.21l-3.45-2.2A9.76 9.76 0 0 1 19.52 19.2l2.09 1.33c4.83-2.64 12.31-6.64 15.25-7.74C40.11 11.56 46.74 6.5 49 4.67l4-3.24c-.11-.08-.2-.16-.32-.23a5 5 0 0 0-5.73.4c-3.23 2.63-8.88 6.74-11.3 7.63-2.72 1.02-8.73 4.17-14.09 7.07l-.6-.38A12.76 12.76 0 1 0 7.28 37.4l2.26 1.44c.6 4.61 14.8 90.94 28.1 99.38l3.6.45zM93.72 86.2s10.4-4.56 15.3-2.66c3.46 1.34 7.08 4.47 9.44 12.13 2.36 7.66 2.34 13.66-1.92 16.23-4.27 2.57-9.32 1.9-10.18-.97-.62-2.07-2.55-9.16-2.55-9.16s-1.25-.94-6.28 1.68l-3.8-17.25z"/><path d="M23.55 92.33S7.28 90.99 3.67 95.78c-2.23 2.96-4.4 7.12-3.15 15.04 1.25 7.92 3.89 13.3 8.85 13.74 4.96.44 9.2-2.38 8.72-5.35-.35-2.13-1.73-9.34-1.73-9.34s.13 1.22 11.44 2.02l-4.25-19.56z"/></g><path fill="url(#a)" d="M158.43 123.5c-3.04-4.41-6.9-5.47-18.93.24l-8.53-43.76a261 261 0 0 0-.7-3.77l-.04-.17-.96-4.33-.11-.5-.36-1.64-.3-1.38-.32-1.42c-.15-.65-.31-1.3-.5-1.94l-.2-.92a182.19 182.19 0 0 0-1.67-5.63c-.06-.3-.18-.58-.27-.87-.3-.96-.6-1.84-.93-2.74l1.63-2.8a7.78 7.78 0 1 0-13.12-8.36l-.45.7c3.06.47 5.84 2.04 7.84 4.41a.5.5 0 0 1-.76.66 11.81 11.81 0 0 0-7.68-4.12l-.08.14-11.19-.5-.05-.23h-.06l-.58-2.6-4.95 2.75.06-.35-.19.1 1.02-5.13c-1.3 1.05-8.6 6.81-12.5 8.28-3.07 1.15-11.5 5.72-16.04 8.2-4.03 2.59-4.29 5.94-4.3 6.08a.5.5 0 0 1-.39.45l-.14.03a.5.5 0 0 1-.47-.52c-.04-.15.27-3.77 4.38-6.61l-2.1-1.35a7.78 7.78 0 1 0-8.37 13.12l3.82 2.44.46.28a141 141 0 0 0 2.1 13.13c.68 3.47 1.45 6.92 2.3 10.36l.17.82s.14 11.74 6.84 36.61c-13.88-.9-19.02.18-20.37 4.05-1.62 4.67.57 13.9 1.12 15.34a4 4 0 0 0 5.16 2.32c2.06-.78 1.92-2.58 1.14-4.65-1.05-2.76-.8-7.07-.75-9.09 2.34-1.09 8.61-.38 16.01.21a437.29 437.29 0 0 0 5.03 15.92c3.14 9.54 6.21 11.17 9.09 14.62.8 1.85 1.72 3.65 2.75 5.38 2.74 4.42 5.31 7.19 7.03 8.18l.35.18.1.04.27.09.13.03.2.04.16-.04.13-.03c.07 0 .14-.02.2-.04l.07-.02a.78.78 0 0 0 .21-.19c.47-.58-.54-5.4-1.79-10.53a17.82 17.82 0 0 1-5.56-1.62.5.5 0 1 1 .44-.9c1.54.72 3.18 1.22 4.87 1.48 2.02-.14 4.23-.37 6.64-.7l.18-.03 2.11-.3 1-.16 1.42-.24 1.45-.25.97-.21 1.84-.36.59-.13 2.11-.47.32-.07a115.07 115.07 0 0 0 17.23-4.88c2.18-1.13 5.3-3.02 5.34-3.05a.5.5 0 0 1 .52.86c-.13.08-2.71 1.62-4.88 2.8 1.05 5.22 2.37 11.07 3.05 11.41.15.07.31.1.47.07l.05-.01.22-.05.09-.02.2-.14.09-.07.2-.2.09-.1.21-.27.08-.1.23-.37.05-.07c.56-1.04 1-2.15 1.32-3.3l-.02-.08.22-.8.03-.14.22-.87-.03-.1c.08-.33.15-.65.21-1 .22-1.06 1.24-3.08.36-4.55.29-3.27.32-6.56.08-9.83l-.02-.07-.03-.66c.57-3.66-.53-19.04-.53-19.04l-.4-2.04c5.39-2.54 8.76-3.32 11.08-3.22.83 1.83 2.67 5.17 2.77 8.13.07 2.2.67 4.47 2.87 4.4a4 4 0 0 0 3.87-4.12c-.04-1.53-.43-9.45-3.24-13.53z"/><g fill="#F9F9FA" transform="translate(66 47)"><path d="M7.69 11.89C5.46 13.17.29 16.3.39 21.05c.1 4.75 2.24 19.15 3.2 20.18.96 1.04 16.5-.36 17.22-1.63.72-1.26-1.21-31.98-1.98-32.71-.76-.73-8.42 3.44-11.14 5z"/><path d="M60.77 83.95c-.25-1.84 4.98-9.81 7.45-13.45a1449.38 1449.38 0 0 0-7.54-34.94c-1.74-10.52-4.47-21.18-8.73-28.9C49.77 2.68 39.81-.3 28.2 1.48l-4.67 36.8s-.43 3.26-2.17 3.55c-1.43.24-13.05 3.56-17.19 4.75l.5 1.86c.26 1.63 4.29 18.05 7.1 28.72 4.16 2.81 11.8 8.19 12.27 10.01.43 1.65-2.66 8.23-4.84 12.55 2.92 7.16 5.79 12.57 7.82 14.16 12.14 9.6 40.83 2.22 43.5-11.96.15-2.62.16-5.25.02-7.87-3.88-3.38-9.55-8.54-9.77-10.11z"/></g><g transform="translate(49 34)"><path fill="url(#b)" d="M28.23 40.13a1.4 1.4 0 0 0 1.06-1.67l-.68-3.07a1.4 1.4 0 1 0-2.73.6l.68 3.07a1.4 1.4 0 0 0 1.67 1.07z"/><path fill="url(#c)" d="M69.96 52.53a1.4 1.4 0 0 0 1.07-1.67l-.68-3.06a1.4 1.4 0 1 0-2.74.6l.68 3.07a1.4 1.4 0 0 0 1.67 1.06z"/><path fill="url(#d)" d="M29.54 46.06a5.7 5.7 0 0 0 3.98-3.34 1 1 0 1 0-1.87-.7 3.72 3.72 0 0 1-2.55 2.1 3.67 3.67 0 0 1-3.2-.83 1 1 0 0 0-1.4 1.43 5.7 5.7 0 0 0 5.04 1.34z"/><path fill="url(#e)" d="M71.28 58.47a5.7 5.7 0 0 0 3.99-3.34 1 1 0 0 0-1.87-.7 3.64 3.64 0 0 1-5.74 1.27 1 1 0 0 0-1.4 1.42 5.7 5.7 0 0 0 5.02 1.35z"/><path fill="url(#f)" d="M60.45 65.75c-.17.14-.34.27-.52.39a4.69 4.69 0 0 1 .27 5.71 1 1 0 0 0 1.6 1.2 6.72 6.72 0 0 0 .44-7.07 5 5 0 0 0 5-2.03 1 1 0 0 0-1.69-1.06 3.06 3.06 0 0 1-2.33 1.18c-.53-.01-1.06-.12-1.55-.31a6.4 6.4 0 0 1-.92 1.81l-.3.18z"/><path fill="url(#g)" d="M59.9 66.1a6.48 6.48 0 0 0 .78-.56c.4-.56.71-1.17.92-1.82.73-1.87 1.06-3.88.97-5.9a2.88 2.88 0 0 0-1.18-2.15 1.75 1.75 0 0 0-1.8-.01c-2.14 1-6.86 6.32-7.34 10.76-.09.67.28 1.33.9 1.6 1.38.6 5.08-.93 6.76-1.91z"/><path fill="url(#h)" d="M109.29 109.2a5.65 5.65 0 0 0 4.37-4.13c.93-3.7-1.4-15.22-7.18-18.87-5.9-3.75-18 3.54-19.94 4.56-.49.26-.79.72-.53 1.21a1 1 0 0 0 1.35.42c14.7-7.75 16.77-5.26 18.1-4.47 4.97 2.92 7.04 13.56 6.26 16.66a3.56 3.56 0 0 1-3.3 2.68.8.8 0 0 1-.85-.79c-1.15-9.77-3.34-12.14-3.59-12.38a1 1 0 0 0-.74-.28c-.36.02-2.96-.34-13.5 4.46a.97.97 0 0 0-.38 1.37c.3.45.88.61 1.37.36 7.87-3.36 10.1-3.93 12.09-4.14.54.87 1.93 3.72 2.76 10.84a2.78 2.78 0 0 0 2.71 2.56c.34.02.67 0 1-.06z"/><path fill="url(#i)" d="M26.9 70.25l-16.29 3.61a1 1 0 1 1-.43-1.95l16.29-3.61a1 1 0 1 1 .43 1.95z"/><path fill="url(#j)" d="M28.11 75.72l-16.28 3.61a1 1 0 1 1-.44-1.95l16.3-3.61a1 1 0 1 1 .42 1.95z"/><path fill="url(#k)" d="M29.22 80.7l-16.29 3.61a.5.5 0 1 1-.21-.98L29 79.73a.5.5 0 0 1 .22.97z"/><path fill="url(#l)" d="M81.12 48.8a1 1 0 0 1-1.06-1.52l8.97-14.07a1 1 0 0 1 1.68 1.07l-8.96 14.07a1 1 0 0 1-.63.44z"/><path fill="url(#m)" d="M9.05 120.45a5.65 5.65 0 0 1-5.63-2.13c-2.28-3.06-4.65-14.65-.62-20.18C5.97 93.78 25.73 95 27.91 95.2a1 1 0 0 1 .9 1.08c-.06.55-.54.94-1.08.9C5.46 96.55 4.4 99.33 4.4 99.33c-3.47 4.61-1.29 15.23.62 17.79a3.56 3.56 0 0 0 4.08 1.21.8.8 0 0 0 .49-1.06c-2.7-9.46-1.6-12.49-1.45-12.8a1 1 0 0 1 .58-.54c.33-.13 7.4-.76 19.96.84a1 1 0 1 1-.25 1.99c-10.34-1.32-16.62-1.68-18.54-1.1-.16 1-.35 4.17 1.62 11.06a2.78 2.78 0 0 1-1.53 3.4c-.3.15-.6.26-.93.33z"/><path fill="url(#n)" d="M58.95 42.17s2.44 4.55 3.47 4.54c1.03 0 1.74-2.27 4.78-3.52 3.27-1.34 5.03.54 6.13-.25 1.09-.79 1.2-5.46.71-6.37-.48-.9-3.7-2.42-8.67-.65-4.97 1.76-6.9 5.34-6.42 6.25z"/><path fill="url(#o)" d="M35.17 57.6a6.48 6.48 0 0 0 .95.15 6.4 6.4 0 0 0 1.93-.63c1.85-.81 3.5-2 4.86-3.49.56-.64.82-1.5.68-2.35A1.75 1.75 0 0 0 42.34 50c-2.23-.8-9.33-.38-12.81 2.42a1.52 1.52 0 0 0-.49 1.76c.54 1.4 4.25 2.92 6.13 3.42z"/><path fill="url(#p)" d="M35.97 56.4s-.18 6.67 2.36 8.44"/><path fill="url(#q)" d="M38.35 65.84a1 1 0 0 1-.6-.18c-2.9-2.02-2.8-8.56-2.78-9.3A.98.98 0 0 1 36 55.4a1 1 0 0 1 .97 1.03c-.06 2.37.4 6.53 1.93 7.6a1 1 0 0 1-.55 1.82z"/><path fill="url(#r)" d="M95.15 119.56c-.66-8.67-1.4-15.79-2.2-22.1-.66.29-1.3.6-1.95.9.93 6.94 1.68 13.96 2.15 21.2l.01.08a61.5 61.5 0 0 1-.07 9.83c-.26 3.16-.15 3.46-.36 4.55l-.21 1 .02.1-.22.87-.03.13-.22.8.02.1a15.56 15.56 0 0 1-1.32 3.29l-.05.07-.22.36-.08.1-.22.28-.09.1-.2.2-.08.07-.21.14-.09.02-.21.04-.05.02a.77.77 0 0 1-.48-.07c-.67-.35-2-6.19-3.04-11.42 2.13-1.14 4.73-2.72 4.88-2.8a.5.5 0 0 0-.52-.86s-3.16 1.91-5.35 3.05l-.16.04a113.63 113.63 0 0 1-16.14 4.7l-1.25.27-2.12.47-.59.13-1.83.36-.98.21-1.45.25-1.42.24-1 .15-2.1.3-.2.05c-2.4.32-4.64.55-6.63.69a17.65 17.65 0 0 1-4.86-1.48.5.5 0 0 0-.45.9c1.75.84 3.63 1.39 5.56 1.62 1.25 5.13 2.26 9.95 1.8 10.53a.77.77 0 0 1-.23.2l-.1.02a.78.78 0 0 1-.17.03l-.13.03-.16.04-.2-.04-.13-.03-.27-.1-.1-.03-.35-.18c-1.73-.98-4.29-3.76-7.03-8.17a46.18 46.18 0 0 1-2.75-5.39c-2.88-3.46-6.6-10.1-9.7-19.64a642.87 642.87 0 0 1-3.25-10.8l-.6-.07-1.95-.15c4.5 15.77 9.37 28.44 13.73 31.64.8 1.85 1.73 3.65 2.77 5.38 1.93 3.11 6.84 10.27 10.58 9.44.62-.13 1.18-.49 1.58-1 .64-.8 1.16-1.46-1.12-11.01 5.86-.6 11.69-1.56 17.44-2.85a123 123 0 0 0 15.17-4.3c1.96 9.56 2.86 10.9 3.82 11.4.57.29 1.23.37 1.86.23 3.73-.83 5.57-8.78 5.4-14.03.3-3.35.34-6.73.1-10.1zM15.97 60.02l-.18-.82-2.3-10.36c-1.05-5.25-1.8-9.84-2.1-13.12l-.45-.28-3.82-2.43a7.78 7.78 0 1 1 8.36-13.12l2.11 1.34c-4.11 2.84-4.36 6.45-4.38 6.62-.01.27.2.5.47.52l.14-.03a.5.5 0 0 0 .4-.46c-.04-.14.24-3.5 4.3-6.07 4.56-2.5 12.97-7.04 16.03-8.2 3.88-1.47 11.18-7.23 12.5-8.28l.2-.17-1.02 5.2-.07.34 4.96-2.74.05-.01.63 2.84 11.19.49.08-.13c3 .34 5.74 1.81 7.68 4.11a.5.5 0 0 0 .76-.65c-2-2.38-4.78-3.94-7.84-4.41l.44-.7a7.78 7.78 0 1 1 13.13 8.36l-1.64 2.56.93 2.73c.06.3.18.58.27.88l.62 2a5 5 0 0 0 .28.96l.76 2.67.2.92c.15.65.32 1.3.5 1.94l.32 1.42.3 1.38.37 1.63.1.51.97 4.33.04.17c2.91 16.88 6.12 32.39 8.55 48.11.65-.31 1.3-.62 1.97-.92-2.15-13.98-4.77-25.19-7.9-44.35-1.46-8.16-3.49-16.2-6.06-24.09l1.11-1.75A9.75 9.75 0 0 0 62.5 8.48l-.51.8-8.5-.37L52.64 5l-2.34 1.29-1.26.68.26-1.32.98-5.02.08-.4-.3.24-4 3.24c-2.33 1.82-8.95 6.86-12.16 8.1-2.94 1.1-10.42 5.1-15.25 7.74l-2.1-1.34A9.76 9.76 0 1 0 6.07 34.67l3.45 2.2c2.96 20.1 7 40.05 12.09 59.73l2.44.16c-7-25.48-8.07-36.74-8.07-36.74z"/></g></g></g></svg>