<?xml version="1.0" encoding="UTF-8"?>
<svg width="300px" height="180px" viewBox="0 0 300 180" version="1.1" xmlns="http://www.w3.org/2000/svg" xmlns:xlink="http://www.w3.org/1999/xlink">
    <defs></defs>
    <g id="Refresh" stroke="none" stroke-width="1" fill="none" fill-rule="evenodd">
        <g id="menu-label-dont">
            <path d="M0.812978754,0 C0.363982986,0 0,0.367291923 0,0.82036947 L9.45189872e-15,179.179631 C9.45189872e-15,179.632708 0.363982986,180 0.812978754,180 L299.187021,180 C299.636017,180 300,179.632708 300,179.179631 L300,0.82036947 C300,0.367291923 299.636017,4.76891254e-15 299.187021,4.76891254e-15 L0.812978754,0 Z" id="Path" fill-opacity="0.5" fill="#D7D7DB"></path>
            <polygon id="Path" fill="#FFFFFF" points="29.8768116 31 29.8768116 193 270.123188 193 270.123188 31 257.208106 31 250.478261 23.8284271 243.748415 31"></polygon>
            <path d="M29.8768116,31 L29.8768116,193 L270.123188,193 L270.123188,31 L257.208106,31 L250.478261,23.8284271 L243.748415,31 L29.8768116,31 Z M250.478261,21 L257.985507,29 L272,29 L272,195 L28,195 L28,29 L242.971014,29 L250.478261,21 Z" id="Panel" fill-opacity="0.8" fill="#0A84FF" fill-rule="nonzero"></path>
            <g id="Content" transform="translate(29.000000, 44.000000)">
                <path d="M222.538462,80.9468085 L222.538462,70.9468085 L230.538462,75.9468085 L222.538462,80.9468085 Z M222.538462,124.946809 L222.538462,114.946809 L230.538462,119.946809 L222.538462,124.946809 Z M222.538462,102.946809 L222.538462,92.9468085 L230.538462,97.9468085 L222.538462,102.946809 Z M222.538462,44.9468085 L222.538462,34.9468085 L230.538462,39.9468085 L222.538462,44.9468085 Z" id="Combined-Shape" fill="#99CCFF"></path>
                <path d="M0,22 L242.380005,22 L242.380005,23 L121.190002,23 L0,23 L0,22 Z M0,57 L242.380005,57 L242.380005,58 L0,58 L0,57 Z" id="Divider" fill="#0A84FF" opacity="0.2"></path>
                <path d="M44,73 L104.346154,73 L104.346154,73 C106.003008,73 107.346154,74.3431458 107.346154,76 L107.346154,76 C107.346154,77.6568542 106.003008,79 104.346154,79 L44,79 C42.3431458,79 41,77.6568542 41,76 C41,74.3431458 42.3431458,73 44,73 L44,73 Z M44,37 L158,37 C159.656854,37 161,38.3431458 161,40 L161,40 C161,41.6568542 159.656854,43 158,43 L44,43 C42.3431458,43 41,41.6568542 41,40 L41,40 L41,40 C41,38.3431458 42.3431458,37 44,37 L44,37 Z M44,95 L120.692308,95 C122.349162,95 123.692308,96.3431458 123.692308,98 C123.692308,99.6568542 122.349162,101 120.692308,101 L44,101 C42.3431458,101 41,99.6568542 41,98 C41,96.3431458 42.3431458,95 44,95 L44,95 Z M44,117 L79.3461538,117 L79.3461538,117 C81.0030081,117 82.3461538,118.343146 82.3461538,120 L82.3461538,120 C82.3461538,121.656854 81.0030081,123 79.3461538,123 L44,123 C42.3431458,123 41,121.656854 41,120 C41,118.343146 42.3431458,117 44,117 L44,117 Z" id="Combined-Shape" fill="#0A84FF" opacity="0.3"></path>
                <path d="M21,0 L21,0 C24.3137085,-6.08718376e-16 27,2.6862915 27,6 L27,6 C27,9.3137085 24.3137085,12 21,12 C17.6862915,12 15,9.3137085 15,6 L15,6 L15,6 C15,2.6862915 17.6862915,6.08718376e-16 21,0 L21,0 Z M21,34 L21,34 C24.3137085,34 27,36.6862915 27,40 C27,43.3137085 24.3137085,46 21,46 C17.6862915,46 15,43.3137085 15,40 C15,36.6862915 17.6862915,34 21,34 L21,34 Z M21,70 L21,70 C24.3137085,70 27,72.6862915 27,76 C27,79.3137085 24.3137085,82 21,82 C17.6862915,82 15,79.3137085 15,76 C15,72.6862915 17.6862915,70 21,70 L21,70 Z M21,92 L21,92 C24.3137085,92 27,94.6862915 27,98 C27,101.313708 24.3137085,104 21,104 C17.6862915,104 15,101.313708 15,98 C15,94.6862915 17.6862915,92 21,92 L21,92 Z M21,114 L21,114 C24.3137085,114 27,116.686292 27,120 C27,123.313708 24.3137085,126 21,126 C17.6862915,126 15,123.313708 15,120 C15,116.686292 17.6862915,114 21,114 L21,114 Z" id="Icons" fill="#0A84FF" opacity="0.3"></path>
            </g>
            <path d="M75.0199985,51.2502032 L71.8879985,51.2502032 L71.2639985,53.3262032 L70.1119985,53.3262032 L72.7639985,45.0582032 L74.2039985,45.0582032 L76.8439985,53.3262032 L75.6439985,53.3262032 L75.0199985,51.2502032 Z M74.7439985,50.3262032 L73.4599985,46.0062032 L72.1639985,50.3262032 L74.7439985,50.3262032 Z M78.3499985,53.1042032 C78.1139973,52.860202 77.9959985,52.5182054 77.9959985,52.0782032 L77.9959985,44.4582032 L79.0999985,44.3262032 L79.0999985,52.0542032 C79.0999985,52.2302041 79.1299982,52.3582028 79.1899985,52.4382032 C79.2499988,52.5182036 79.3519978,52.5582032 79.4959985,52.5582032 C79.6479992,52.5582032 79.7839979,52.5342034 79.9039985,52.4862032 L80.1919985,53.2542032 C79.9279972,53.3982039 79.6360001,53.4702032 79.3159985,53.4702032 C78.9079964,53.4702032 78.5859997,53.3482044 78.3499985,53.1042032 Z M81.8659985,53.1042032 C81.6299973,52.860202 81.5119985,52.5182054 81.5119985,52.0782032 L81.5119985,44.4582032 L82.6159985,44.3262032 L82.6159985,52.0542032 C82.6159985,52.2302041 82.6459982,52.3582028 82.7059985,52.4382032 C82.7659988,52.5182036 82.8679978,52.5582032 83.0119985,52.5582032 C83.1639992,52.5582032 83.2999979,52.5342034 83.4199985,52.4862032 L83.7079985,53.2542032 C83.4439972,53.3982039 83.1520001,53.4702032 82.8319985,53.4702032 C82.4239964,53.4702032 82.1019997,53.3482044 81.8659985,53.1042032 Z M90.7999985,53.3622032 C90.5519972,54.0982069 90.2060007,54.6802011 89.7619985,55.1082032 C89.3179963,55.5362053 88.6840026,55.7942028 87.8599985,55.8822032 L87.7399985,55.0182032 C88.1560006,54.9462028 88.4879972,54.8422039 88.7359985,54.7062032 C88.9839997,54.5702025 89.1819977,54.3962043 89.3299985,54.1842032 C89.4779992,53.9722021 89.6159978,53.686205 89.7439985,53.3262032 L89.3719985,53.3262032 L87.2479985,47.0022032 L88.4239985,47.0022032 L90.1159985,52.5222032 L91.7719985,47.0022032 L92.9119985,47.0022032 L90.7999985,53.3622032 Z M98.4379985,47.7462032 C98.9300009,48.3382062 99.1759985,49.1421981 99.1759985,50.1582032 C99.1759985,50.8142065 99.0639996,51.3922007 98.8399985,51.8922032 C98.6159974,52.3922057 98.2920006,52.7802018 97.8679985,53.0562032 C97.4439964,53.3322046 96.9400014,53.4702032 96.3559985,53.4702032 C95.467994,53.4702032 94.776001,53.1742062 94.2799985,52.5822032 C93.783996,51.9902002 93.5359985,51.1862083 93.5359985,50.1702032 C93.5359985,49.5141999 93.6479974,48.9362057 93.8719985,48.4362032 C94.0959996,47.9362007 94.4199964,47.5482046 94.8439985,47.2722032 C95.2680006,46.9962018 95.7759955,46.8582032 96.3679985,46.8582032 C97.2560029,46.8582032 97.945996,47.1542002 98.4379985,47.7462032 Z M94.7239985,50.1702032 C94.7239985,51.7782112 95.267993,52.5822032 96.3559985,52.5822032 C97.4440039,52.5822032 97.9879985,51.7742113 97.9879985,50.1582032 C97.9879985,48.5501952 97.4480039,47.7462032 96.3679985,47.7462032 C95.271993,47.7462032 94.7239985,48.5541951 94.7239985,50.1702032 Z M105.703998,53.3262032 L104.755998,53.3262032 L104.671998,52.3422032 C104.431997,52.7342052 104.156,53.0202023 103.843998,53.2002032 C103.531997,53.3802041 103.152001,53.4702032 102.703998,53.4702032 C102.151996,53.4702032 101.72,53.3022049 101.407998,52.9662032 C101.095997,52.6302015 100.939998,52.1542063 100.939998,51.5382032 L100.939998,47.0022032 L102.043998,47.0022032 L102.043998,51.4182032 C102.043998,51.8502054 102.119998,52.1562023 102.271998,52.3362032 C102.423999,52.5162041 102.671997,52.6062032 103.015998,52.6062032 C103.632002,52.6062032 104.159996,52.2422068 104.599998,51.5142032 L104.599998,47.0022032 L105.703998,47.0022032 L105.703998,53.3262032 Z M111.355998,46.9302032 L111.151998,48.0102032 C110.959998,47.962203 110.775999,47.9382032 110.599998,47.9382032 C110.207997,47.9382032 109.892,48.0822018 109.651998,48.3702032 C109.411997,48.6582046 109.223999,49.1062002 109.087998,49.7142032 L109.087998,53.3262032 L107.983998,53.3262032 L107.983998,47.0022032 L108.931998,47.0022032 L109.039998,48.2862032 C109.207999,47.8142008 109.435997,47.4582044 109.723998,47.2182032 C110.012,46.978202 110.347997,46.8582032 110.731998,46.8582032 C110.956,46.8582032 111.163998,46.882203 111.355998,46.9302032 Z M120.187998,52.4202032 C120.275999,52.5442038 120.407998,52.6382029 120.583998,52.7022032 L120.331998,53.4702032 C120.003997,53.430203 119.739999,53.3382039 119.539998,53.1942032 C119.339997,53.0502025 119.191999,52.8262047 119.095998,52.5222032 C118.671996,53.1542064 118.044003,53.4702032 117.211998,53.4702032 C116.587995,53.4702032 116.096,53.294205 115.735998,52.9422032 C115.375997,52.5902014 115.195998,52.130206 115.195998,51.5622032 C115.195998,50.8901998 115.437996,50.374205 115.921998,50.0142032 C116.406001,49.6542014 117.091994,49.4742032 117.979998,49.4742032 L118.951998,49.4742032 L118.951998,49.0062032 C118.951998,48.558201 118.844,48.2382042 118.627998,48.0462032 C118.411997,47.8542022 118.080001,47.7582032 117.631998,47.7582032 C117.167996,47.7582032 116.600002,47.8702021 115.927998,48.0942032 L115.651998,47.2902032 C116.436002,47.0022018 117.163995,46.8582032 117.835998,46.8582032 C118.580002,46.8582032 119.135997,47.0402014 119.503998,47.4042032 C119.872,47.768205 120.055998,48.2861998 120.055998,48.9582032 L120.055998,51.8502032 C120.055998,52.1062045 120.099998,52.2962026 120.187998,52.4202032 Z M118.951998,51.6582032 L118.951998,50.2062032 L118.123998,50.2062032 C116.955993,50.2062032 116.371998,50.6381989 116.371998,51.5022032 C116.371998,51.8782051 116.463998,52.1622022 116.647998,52.3542032 C116.831999,52.5462042 117.103997,52.6422032 117.463998,52.6422032 C118.096002,52.6422032 118.591997,52.3142065 118.951998,51.6582032 Z M125.659998,47.0202032 C125.972,47.1282037 126.271997,47.302202 126.559998,47.5422032 L126.031998,48.2382032 C125.807997,48.0782024 125.59,47.9602036 125.377998,47.8842032 C125.165997,47.8082028 124.932,47.7702032 124.675998,47.7702032 C124.163996,47.7702032 123.766,47.9742012 123.481998,48.3822032 C123.197997,48.7902052 123.055998,49.3941992 123.055998,50.1942032 C123.055998,50.9942072 123.195997,51.5842013 123.475998,51.9642032 C123.756,52.3442051 124.155996,52.5342032 124.675998,52.5342032 C124.924,52.5342032 125.151997,52.4962036 125.359998,52.4202032 C125.568,52.3442028 125.799997,52.222204 126.055998,52.0542032 L126.559998,52.7742032 C125.983996,53.2382055 125.340002,53.4702032 124.627998,53.4702032 C123.771994,53.4702032 123.098001,53.1822061 122.605998,52.6062032 C122.113996,52.0302003 121.867998,51.2342083 121.867998,50.2182032 C121.867998,49.5461998 121.979997,48.9582057 122.203998,48.4542032 C122.428,47.9502007 122.745996,47.5582046 123.157998,47.2782032 C123.570001,46.9982018 124.059996,46.8582032 124.627998,46.8582032 C125.004,46.8582032 125.347997,46.9122027 125.659998,47.0202032 Z M131.251998,53.0382032 C130.835996,53.3262046 130.364001,53.4702032 129.835998,53.4702032 C129.299996,53.4702032 128.882,53.3162047 128.581998,53.0082032 C128.281997,52.7002017 128.131998,52.2542061 128.131998,51.6702032 L128.131998,47.8542032 L127.027998,47.8542032 L127.027998,47.0022032 L128.131998,47.0022032 L128.131998,45.5742032 L129.235998,45.4422032 L129.235998,47.0022032 L130.735998,47.0022032 L130.615998,47.8542032 L129.235998,47.8542032 L129.235998,51.6222032 C129.235998,51.9502048 129.293998,52.1882025 129.409998,52.3362032 C129.525999,52.4842039 129.719997,52.5582032 129.991998,52.5582032 C130.256,52.5582032 130.535997,52.4662041 130.831998,52.2822032 L131.251998,53.0382032 Z M133.495998,53.3262032 L132.391998,53.3262032 L132.391998,47.0022032 L133.495998,47.0022032 L133.495998,53.3262032 Z M133.495998,44.1822032 C133.639999,44.3262039 133.711998,44.5062021 133.711998,44.7222032 C133.711998,44.9382043 133.639999,45.1162025 133.495998,45.2562032 C133.351998,45.3962039 133.164,45.4662032 132.931998,45.4662032 C132.707997,45.4662032 132.523999,45.3962039 132.379998,45.2562032 C132.235998,45.1162025 132.163998,44.9382043 132.163998,44.7222032 C132.163998,44.5062021 132.235998,44.3262039 132.379998,44.1822032 C132.523999,44.0382025 132.707997,43.9662032 132.931998,43.9662032 C133.164,43.9662032 133.351998,44.0382025 133.495998,44.1822032 Z M138.271998,53.3262032 L136.939998,53.3262032 L134.755998,47.0022032 L135.955998,47.0022032 L137.611998,52.3422032 L139.255998,47.0022032 L140.419998,47.0022032 L138.271998,53.3262032 Z M142.783998,53.3262032 L141.679998,53.3262032 L141.679998,47.0022032 L142.783998,47.0022032 L142.783998,53.3262032 Z M142.783998,44.1822032 C142.927999,44.3262039 142.999998,44.5062021 142.999998,44.7222032 C142.999998,44.9382043 142.927999,45.1162025 142.783998,45.2562032 C142.639998,45.3962039 142.452,45.4662032 142.219998,45.4662032 C141.995997,45.4662032 141.811999,45.3962039 141.667998,45.2562032 C141.523998,45.1162025 141.451998,44.9382043 141.451998,44.7222032 C141.451998,44.5062021 141.523998,44.3262039 141.667998,44.1822032 C141.811999,44.0382025 141.995997,43.9662032 142.219998,43.9662032 C142.452,43.9662032 142.639998,44.0382025 142.783998,44.1822032 Z M148.255998,53.0382032 C147.839996,53.3262046 147.368001,53.4702032 146.839998,53.4702032 C146.303996,53.4702032 145.886,53.3162047 145.585998,53.0082032 C145.285997,52.7002017 145.135998,52.2542061 145.135998,51.6702032 L145.135998,47.8542032 L144.031998,47.8542032 L144.031998,47.0022032 L145.135998,47.0022032 L145.135998,45.5742032 L146.239998,45.4422032 L146.239998,47.0022032 L147.739998,47.0022032 L147.619998,47.8542032 L146.239998,47.8542032 L146.239998,51.6222032 C146.239998,51.9502048 146.297998,52.1882025 146.413998,52.3362032 C146.529999,52.4842039 146.723997,52.5582032 146.995998,52.5582032 C147.26,52.5582032 147.539997,52.4662041 147.835998,52.2822032 L148.255998,53.0382032 Z M151.927998,53.3622032 C151.679997,54.0982069 151.334001,54.6802011 150.889998,55.1082032 C150.445996,55.5362053 149.812003,55.7942028 148.987998,55.8822032 L148.867998,55.0182032 C149.284001,54.9462028 149.615997,54.8422039 149.863998,54.7062032 C150.112,54.5702025 150.309998,54.3962043 150.457998,54.1842032 C150.605999,53.9722021 150.743998,53.686205 150.871998,53.3262032 L150.499998,53.3262032 L148.375998,47.0022032 L149.551998,47.0022032 L151.243998,52.5222032 L152.899998,47.0022032 L154.039998,47.0022032 L151.927998,53.3622032 Z" id="All-your-activity" fill="#0C0C0D"></path>
        </g>
    </g>
</svg>