<?xml version="1.0" encoding="UTF-8"?>
<svg width="300px" height="180px" viewBox="0 0 300 180" version="1.1" xmlns="http://www.w3.org/2000/svg" xmlns:xlink="http://www.w3.org/1999/xlink">
    <defs>
        <rect id="path-1" x="0" y="0" width="300" height="181" rx="0.802139037"></rect>
    </defs>
    <g id="Refresh" stroke="none" stroke-width="1" fill="none" fill-rule="evenodd">
        <g id="navigation-do">
            <mask id="mask-2" fill="white">
                <use xlink:href="#path-1"></use>
            </mask>
            <use id="Region" fill-opacity="0.5" fill="#D7D7DB" xlink:href="#path-1"></use>
            <polygon id="Path" fill="#FFFFFF" mask="url(#mask-2)" points="30 -5.60619469 30 185.021465 316.538462 185.021465 316.538462 -5.60619469"></polygon>
            <path d="M30,-5.60619469 L30,185.021465 L316.538462,185.021465 L316.538462,-5.60619469 L30,-5.60619469 Z M28,-7.60619469 L318.538462,-7.60619469 L318.538462,187.021465 L28,187.021465 L28,-7.60619469 Z" id="Region" fill-opacity="0.8" fill="#0A84FF" fill-rule="nonzero" mask="url(#mask-2)"></path>
            <path d="M74.4439572,60.6386524 L71.3239572,60.6386524 L71.3239572,63.4586524 L74.0239572,63.4586524 L74.0239572,64.3586524 L71.3239572,64.3586524 L71.3239572,67.9946524 L70.1839572,67.9946524 L70.1839572,59.7266524 L74.5759572,59.7266524 L74.4439572,60.6386524 Z M77.4799572,67.9946524 L76.3759572,67.9946524 L76.3759572,61.6706524 L77.4799572,61.6706524 L77.4799572,67.9946524 Z M77.4799572,58.8506524 C77.6239579,58.9946531 77.6959572,59.1746513 77.6959572,59.3906524 C77.6959572,59.6066535 77.6239579,59.7846517 77.4799572,59.9246524 C77.3359565,60.0646531 77.1479584,60.1346524 76.9159572,60.1346524 C76.6919561,60.1346524 76.5079579,60.0646531 76.3639572,59.9246524 C76.2199565,59.7846517 76.1479572,59.6066535 76.1479572,59.3906524 C76.1479572,59.1746513 76.2199565,58.9946531 76.3639572,58.8506524 C76.5079579,58.7066517 76.6919561,58.6346524 76.9159572,58.6346524 C77.1479584,58.6346524 77.3359565,58.7066517 77.4799572,58.8506524 Z M80.0539572,67.7726524 C79.817956,67.5286512 79.6999572,67.1866546 79.6999572,66.7466524 L79.6999572,59.1266524 L80.8039572,58.9946524 L80.8039572,66.7226524 C80.8039572,66.8986533 80.8339569,67.026652 80.8939572,67.1066524 C80.9539575,67.1866528 81.0559565,67.2266524 81.1999572,67.2266524 C81.351958,67.2266524 81.4879566,67.2026526 81.6079572,67.1546524 L81.8959572,67.9226524 C81.6319559,68.0666531 81.3399588,68.1386524 81.0199572,68.1386524 C80.6119552,68.1386524 80.2899584,68.0166536 80.0539572,67.7726524 Z M87.9079572,65.2106524 L83.8759572,65.2106524 C83.9239575,65.9066559 84.0999557,66.4186508 84.4039572,66.7466524 C84.7079587,67.074654 85.0999548,67.2386524 85.5799572,67.2386524 C85.8839587,67.2386524 86.1639559,67.1946528 86.4199572,67.1066524 C86.6759585,67.018652 86.9439558,66.8786534 87.2239572,66.6866524 L87.7039572,67.3466524 C87.0319539,67.874655 86.2959612,68.1386524 85.4959572,68.1386524 C84.6159528,68.1386524 83.9299597,67.8506553 83.4379572,67.2746524 C82.9459548,66.6986495 82.6999572,65.9066574 82.6999572,64.8986524 C82.6999572,64.2426491 82.8059562,63.6606549 83.0179572,63.1526524 C83.2299583,62.6446499 83.5339552,62.2466538 83.9299572,61.9586524 C84.3259592,61.670651 84.7919545,61.5266524 85.3279572,61.5266524 C86.1679614,61.5266524 86.811955,61.8026496 87.2599572,62.3546524 C87.7079595,62.9066552 87.9319572,63.6706475 87.9319572,64.6466524 C87.9319572,64.8306533 87.9239573,65.0186514 87.9079572,65.2106524 Z M86.8399572,64.3226524 C86.8399572,63.6986493 86.7159585,63.222654 86.4679572,62.8946524 C86.219956,62.5666508 85.8479597,62.4026524 85.3519572,62.4026524 C84.4479527,62.4026524 83.9559576,63.0666458 83.8759572,64.3946524 L86.8399572,64.3946524 L86.8399572,64.3226524 Z M92.6359572,61.7066524 C92.9799589,61.826653 93.3079557,62.0066512 93.6199572,62.2466524 L93.1519572,62.9426524 C92.8639558,62.7586515 92.5899585,62.6226528 92.3299572,62.5346524 C92.0699559,62.446652 91.7959587,62.4026524 91.5079572,62.4026524 C91.1479554,62.4026524 90.8639583,62.4766517 90.6559572,62.6246524 C90.4479562,62.7726531 90.3439572,62.9746511 90.3439572,63.2306524 C90.3439572,63.4866537 90.4419562,63.6866517 90.6379572,63.8306524 C90.8339582,63.9746531 91.1879547,64.1146517 91.6999572,64.2506524 C92.4039607,64.4266533 92.9299555,64.6666509 93.2779572,64.9706524 C93.625959,65.2746539 93.7999572,65.6906498 93.7999572,66.2186524 C93.7999572,66.8426555 93.5579596,67.3186508 93.0739572,67.6466524 C92.5899548,67.974654 91.9999607,68.1386524 91.3039572,68.1386524 C90.3439524,68.1386524 89.5479604,67.8626552 88.9159572,67.3106524 L89.5039572,66.6386524 C90.0399599,67.0466544 90.631954,67.2506524 91.2799572,67.2506524 C91.6959593,67.2506524 92.025956,67.1646533 92.2699572,66.9926524 C92.5139584,66.8206515 92.6359572,66.5866539 92.6359572,66.2906524 C92.6359572,66.0746513 92.5919577,65.9006531 92.5039572,65.7686524 C92.4159568,65.6366517 92.2639583,65.5206529 92.0479572,65.4206524 C91.8319561,65.3206519 91.5159593,65.214653 91.0999572,65.1026524 C90.4279539,64.9266515 89.9419587,64.6906539 89.6419572,64.3946524 C89.3419557,64.0986509 89.1919572,63.7226547 89.1919572,63.2666524 C89.1919572,62.9386508 89.2899562,62.6406537 89.4859572,62.3726524 C89.6819582,62.1046511 89.9539555,61.8966531 90.3019572,61.7486524 C90.649959,61.6006517 91.0399551,61.5266524 91.4719572,61.5266524 C91.9039594,61.5266524 92.2919555,61.5866518 92.6359572,61.7066524 Z M102.169957,59.8166524 C102.501959,59.9726532 102.759956,60.190651 102.943957,60.4706524 C103.127958,60.7506538 103.219957,61.0626507 103.219957,61.4066524 C103.219957,61.8786548 103.069959,62.2846507 102.769957,62.6246524 C102.469956,62.9646541 102.05596,63.2906508 101.527957,63.6026524 L103.639957,65.5946524 C103.959959,64.9466492 104.199956,64.2706559 104.359957,63.5666524 L105.391957,63.8666524 C105.111956,64.794657 104.755959,65.5826492 104.323957,66.2306524 L105.667957,67.4906524 L104.875957,68.1386524 L103.711957,67.0106524 C103.367955,67.3866543 102.979959,67.6686515 102.547957,67.8566524 C102.115955,68.0446533 101.61996,68.1386524 101.059957,68.1386524 C100.531955,68.1386524 100.065959,68.0466533 99.6619572,67.8626524 C99.2579552,67.6786515 98.9419584,67.4166541 98.7139572,67.0766524 C98.4859561,66.7366507 98.3719572,66.3426546 98.3719572,65.8946524 C98.3719572,65.3986499 98.5119558,64.9646543 98.7919572,64.5926524 C99.0719586,64.2206505 99.4879545,63.8586542 100.039957,63.5066524 C99.6399552,63.1226505 99.3459582,62.7786539 99.1579572,62.4746524 C98.9699563,62.1706509 98.8759572,61.8266543 98.8759572,61.4426524 C98.8759572,60.8986497 99.0659553,60.4526541 99.4459572,60.1046524 C99.8259591,59.7566507 100.351954,59.5826524 101.023957,59.5826524 C101.455959,59.5826524 101.837956,59.6606516 102.169957,59.8166524 Z M100.243957,60.6866524 C100.051956,60.8786534 99.9559572,61.1266509 99.9559572,61.4306524 C99.9559572,61.7186538 100.031956,61.9766513 100.183957,62.2046524 C100.335958,62.4326535 100.575956,62.7026508 100.903957,63.0146524 C101.311959,62.7666512 101.619956,62.5206536 101.827957,62.2766524 C102.035958,62.0326512 102.139957,61.7626539 102.139957,61.4666524 C102.139957,61.1306507 102.039958,60.8686533 101.839957,60.6806524 C101.639956,60.4926515 101.371959,60.3986524 101.035957,60.3986524 C100.699956,60.3986524 100.435958,60.4946514 100.243957,60.6866524 Z M99.7879572,64.9166524 C99.5959563,65.1926538 99.4999572,65.5066506 99.4999572,65.8586524 C99.4999572,66.2986546 99.6539557,66.6426512 99.9619572,66.8906524 C100.269959,67.1386536 100.675955,67.2626524 101.179957,67.2626524 C101.555959,67.2626524 101.895956,67.1906531 102.199957,67.0466524 C102.503959,66.9026517 102.795956,66.6866538 103.075957,66.3986524 L100.675957,64.1066524 C100.275955,64.3706537 99.9799582,64.640651 99.7879572,64.9166524 Z M114.715957,65.9186524 L111.583957,65.9186524 L110.959957,67.9946524 L109.807957,67.9946524 L112.459957,59.7266524 L113.899957,59.7266524 L116.539957,67.9946524 L115.339957,67.9946524 L114.715957,65.9186524 Z M114.439957,64.9946524 L113.155957,60.6746524 L111.859957,64.9946524 L114.439957,64.9946524 Z M122.431957,62.3906524 C122.807959,62.9666553 122.995957,63.7786472 122.995957,64.8266524 C122.995957,65.8186574 122.779959,66.6186494 122.347957,67.2266524 C121.915955,67.8346554 121.303961,68.1386524 120.511957,68.1386524 C119.807954,68.1386524 119.255959,67.8986548 118.855957,67.4186524 L118.855957,70.4186524 L117.751957,70.5506524 L117.751957,61.6706524 L118.699957,61.6706524 L118.783957,62.5226524 C119.015958,62.2026508 119.295956,61.9566533 119.623957,61.7846524 C119.951959,61.6126515 120.295955,61.5266524 120.655957,61.5266524 C121.463961,61.5266524 122.055955,61.8146495 122.431957,62.3906524 Z M121.807957,64.8266524 C121.807957,63.2106443 121.331962,62.4026524 120.379957,62.4026524 C120.067956,62.4026524 119.783958,62.4946515 119.527957,62.6786524 C119.271956,62.8626533 119.047958,63.098651 118.855957,63.3866524 L118.855957,66.4706524 C119.015958,66.7186536 119.215956,66.9086517 119.455957,67.0406524 C119.695958,67.1726531 119.959956,67.2386524 120.247957,67.2386524 C121.287962,67.2386524 121.807957,66.4346604 121.807957,64.8266524 Z M129.559957,62.3906524 C129.935959,62.9666553 130.123957,63.7786472 130.123957,64.8266524 C130.123957,65.8186574 129.907959,66.6186494 129.475957,67.2266524 C129.043955,67.8346554 128.431961,68.1386524 127.639957,68.1386524 C126.935954,68.1386524 126.383959,67.8986548 125.983957,67.4186524 L125.983957,70.4186524 L124.879957,70.5506524 L124.879957,61.6706524 L125.827957,61.6706524 L125.911957,62.5226524 C126.143958,62.2026508 126.423956,61.9566533 126.751957,61.7846524 C127.079959,61.6126515 127.423955,61.5266524 127.783957,61.5266524 C128.591961,61.5266524 129.183955,61.8146495 129.559957,62.3906524 Z M128.935957,64.8266524 C128.935957,63.2106443 128.459962,62.4026524 127.507957,62.4026524 C127.195956,62.4026524 126.911958,62.4946515 126.655957,62.6786524 C126.399956,62.8626533 126.175958,63.098651 125.983957,63.3866524 L125.983957,66.4706524 C126.143958,66.7186536 126.343956,66.9086517 126.583957,67.0406524 C126.823958,67.1726531 127.087956,67.2386524 127.375957,67.2386524 C128.415962,67.2386524 128.935957,66.4346604 128.935957,64.8266524 Z M132.301957,67.7726524 C132.065956,67.5286512 131.947957,67.1866546 131.947957,66.7466524 L131.947957,59.1266524 L133.051957,58.9946524 L133.051957,66.7226524 C133.051957,66.8986533 133.081957,67.026652 133.141957,67.1066524 C133.201958,67.1866528 133.303956,67.2266524 133.447957,67.2266524 C133.599958,67.2266524 133.735957,67.2026526 133.855957,67.1546524 L134.143957,67.9226524 C133.879956,68.0666531 133.587959,68.1386524 133.267957,68.1386524 C132.859955,68.1386524 132.537958,68.0166536 132.301957,67.7726524 Z M136.627957,67.9946524 L135.523957,67.9946524 L135.523957,61.6706524 L136.627957,61.6706524 L136.627957,67.9946524 Z M136.627957,58.8506524 C136.771958,58.9946531 136.843957,59.1746513 136.843957,59.3906524 C136.843957,59.6066535 136.771958,59.7846517 136.627957,59.9246524 C136.483956,60.0646531 136.295958,60.1346524 136.063957,60.1346524 C135.839956,60.1346524 135.655958,60.0646531 135.511957,59.9246524 C135.367956,59.7846517 135.295957,59.6066535 135.295957,59.3906524 C135.295957,59.1746513 135.367956,58.9946531 135.511957,58.8506524 C135.655958,58.7066517 135.839956,58.6346524 136.063957,58.6346524 C136.295958,58.6346524 136.483956,58.7066517 136.627957,58.8506524 Z M142.243957,61.6886524 C142.555959,61.7966529 142.855956,61.9706512 143.143957,62.2106524 L142.615957,62.9066524 C142.391956,62.7466516 142.173958,62.6286528 141.961957,62.5526524 C141.749956,62.476652 141.515958,62.4386524 141.259957,62.4386524 C140.747955,62.4386524 140.349959,62.6426504 140.065957,63.0506524 C139.781956,63.4586544 139.639957,64.0626484 139.639957,64.8626524 C139.639957,65.6626564 139.779956,66.2526505 140.059957,66.6326524 C140.339959,67.0126543 140.739955,67.2026524 141.259957,67.2026524 C141.507958,67.2026524 141.735956,67.1646528 141.943957,67.0886524 C142.151958,67.012652 142.383956,66.8906532 142.639957,66.7226524 L143.143957,67.4426524 C142.567954,67.9066547 141.923961,68.1386524 141.211957,68.1386524 C140.355953,68.1386524 139.68196,67.8506553 139.189957,67.2746524 C138.697955,66.6986495 138.451957,65.9026575 138.451957,64.8866524 C138.451957,64.214649 138.563956,63.6266549 138.787957,63.1226524 C139.011958,62.6186499 139.329955,62.2266538 139.741957,61.9466524 C140.153959,61.666651 140.643954,61.5266524 141.211957,61.5266524 C141.587959,61.5266524 141.931956,61.5806519 142.243957,61.6886524 Z M149.035957,67.0886524 C149.123958,67.212653 149.255956,67.3066521 149.431957,67.3706524 L149.179957,68.1386524 C148.851956,68.0986522 148.587958,68.0066531 148.387957,67.8626524 C148.187956,67.7186517 148.039958,67.4946539 147.943957,67.1906524 C147.519955,67.8226556 146.891961,68.1386524 146.059957,68.1386524 C145.435954,68.1386524 144.943959,67.9626542 144.583957,67.6106524 C144.223955,67.2586506 144.043957,66.7986552 144.043957,66.2306524 C144.043957,65.558649 144.285955,65.0426542 144.769957,64.6826524 C145.25396,64.3226506 145.939953,64.1426524 146.827957,64.1426524 L147.799957,64.1426524 L147.799957,63.6746524 C147.799957,63.2266502 147.691958,62.9066534 147.475957,62.7146524 C147.259956,62.5226514 146.927959,62.4266524 146.479957,62.4266524 C146.015955,62.4266524 145.447961,62.5386513 144.775957,62.7626524 L144.499957,61.9586524 C145.283961,61.670651 146.011954,61.5266524 146.683957,61.5266524 C147.427961,61.5266524 147.983955,61.7086506 148.351957,62.0726524 C148.719959,62.4366542 148.903957,62.954649 148.903957,63.6266524 L148.903957,66.5186524 C148.903957,66.7746537 148.947957,66.9646518 149.035957,67.0886524 Z M147.799957,66.3266524 L147.799957,64.8746524 L146.971957,64.8746524 C145.803951,64.8746524 145.219957,65.3066481 145.219957,66.1706524 C145.219957,66.5466543 145.311956,66.8306514 145.495957,67.0226524 C145.679958,67.2146534 145.951955,67.3106524 146.311957,67.3106524 C146.94396,67.3106524 147.439955,66.9826557 147.799957,66.3266524 Z M154.363957,67.7066524 C153.947955,67.9946538 153.47596,68.1386524 152.947957,68.1386524 C152.411955,68.1386524 151.993959,67.9846539 151.693957,67.6766524 C151.393956,67.3686509 151.243957,66.9226553 151.243957,66.3386524 L151.243957,62.5226524 L150.139957,62.5226524 L150.139957,61.6706524 L151.243957,61.6706524 L151.243957,60.2426524 L152.347957,60.1106524 L152.347957,61.6706524 L153.847957,61.6706524 L153.727957,62.5226524 L152.347957,62.5226524 L152.347957,66.2906524 C152.347957,66.618654 152.405957,66.8566517 152.521957,67.0046524 C152.637958,67.1526531 152.831956,67.2266524 153.103957,67.2266524 C153.367959,67.2266524 153.647956,67.1346533 153.943957,66.9506524 L154.363957,67.7066524 Z M156.607957,67.9946524 L155.503957,67.9946524 L155.503957,61.6706524 L156.607957,61.6706524 L156.607957,67.9946524 Z M156.607957,58.8506524 C156.751958,58.9946531 156.823957,59.1746513 156.823957,59.3906524 C156.823957,59.6066535 156.751958,59.7846517 156.607957,59.9246524 C156.463956,60.0646531 156.275958,60.1346524 156.043957,60.1346524 C155.819956,60.1346524 155.635958,60.0646531 155.491957,59.9246524 C155.347956,59.7846517 155.275957,59.6066535 155.275957,59.3906524 C155.275957,59.1746513 155.347956,58.9946531 155.491957,58.8506524 C155.635958,58.7066517 155.819956,58.6346524 156.043957,58.6346524 C156.275958,58.6346524 156.463956,58.7066517 156.607957,58.8506524 Z M163.333957,62.4146524 C163.82596,63.0066554 164.071957,63.8106473 164.071957,64.8266524 C164.071957,65.4826557 163.959958,66.0606499 163.735957,66.5606524 C163.511956,67.0606549 163.187959,67.448651 162.763957,67.7246524 C162.339955,68.0006538 161.83596,68.1386524 161.251957,68.1386524 C160.363953,68.1386524 159.67196,67.8426554 159.175957,67.2506524 C158.679955,66.6586494 158.431957,65.8546575 158.431957,64.8386524 C158.431957,64.1826491 158.543956,63.6046549 158.767957,63.1046524 C158.991958,62.6046499 159.315955,62.2166538 159.739957,61.9406524 C160.163959,61.664651 160.671954,61.5266524 161.263957,61.5266524 C162.151962,61.5266524 162.841955,61.8226494 163.333957,62.4146524 Z M159.619957,64.8386524 C159.619957,66.4466604 160.163952,67.2506524 161.251957,67.2506524 C162.339963,67.2506524 162.883957,66.4426605 162.883957,64.8266524 C162.883957,63.2186444 162.343963,62.4146524 161.263957,62.4146524 C160.167952,62.4146524 159.619957,63.2226443 159.619957,64.8386524 Z M170.221957,62.0426524 C170.545959,62.3866541 170.707957,62.8586494 170.707957,63.4586524 L170.707957,67.9946524 L169.603957,67.9946524 L169.603957,63.6146524 C169.603957,63.1666502 169.519958,62.8506533 169.351957,62.6666524 C169.183956,62.4826515 168.935959,62.3906524 168.607957,62.3906524 C168.271956,62.3906524 167.975958,62.4866514 167.719957,62.6786524 C167.463956,62.8706534 167.223958,63.1466506 166.999957,63.5066524 L166.999957,67.9946524 L165.895957,67.9946524 L165.895957,61.6706524 L166.843957,61.6706524 L166.939957,62.6066524 C167.163958,62.2706507 167.441956,62.0066534 167.773957,61.8146524 C168.105959,61.6226514 168.471955,61.5266524 168.871957,61.5266524 C169.44796,61.5266524 169.897956,61.6986507 170.221957,62.0426524 Z M175.807957,61.7066524 C176.151959,61.826653 176.479956,62.0066512 176.791957,62.2466524 L176.323957,62.9426524 C176.035956,62.7586515 175.761959,62.6226528 175.501957,62.5346524 C175.241956,62.446652 174.967959,62.4026524 174.679957,62.4026524 C174.319955,62.4026524 174.035958,62.4766517 173.827957,62.6246524 C173.619956,62.7726531 173.515957,62.9746511 173.515957,63.2306524 C173.515957,63.4866537 173.613956,63.6866517 173.809957,63.8306524 C174.005958,63.9746531 174.359955,64.1146517 174.871957,64.2506524 C175.575961,64.4266533 176.101955,64.6666509 176.449957,64.9706524 C176.797959,65.2746539 176.971957,65.6906498 176.971957,66.2186524 C176.971957,66.8426555 176.72996,67.3186508 176.245957,67.6466524 C175.761955,67.974654 175.171961,68.1386524 174.475957,68.1386524 C173.515952,68.1386524 172.71996,67.8626552 172.087957,67.3106524 L172.675957,66.6386524 C173.21196,67.0466544 173.803954,67.2506524 174.451957,67.2506524 C174.867959,67.2506524 175.197956,67.1646533 175.441957,66.9926524 C175.685958,66.8206515 175.807957,66.5866539 175.807957,66.2906524 C175.807957,66.0746513 175.763958,65.9006531 175.675957,65.7686524 C175.587957,65.6366517 175.435958,65.5206529 175.219957,65.4206524 C175.003956,65.3206519 174.687959,65.214653 174.271957,65.1026524 C173.599954,64.9266515 173.113959,64.6906539 172.813957,64.3946524 C172.513956,64.0986509 172.363957,63.7226547 172.363957,63.2666524 C172.363957,62.9386508 172.461956,62.6406537 172.657957,62.3726524 C172.853958,62.1046511 173.125955,61.8966531 173.473957,61.7486524 C173.821959,61.6006517 174.211955,61.5266524 174.643957,61.5266524 C175.075959,61.5266524 175.463955,61.5866518 175.807957,61.7066524 Z" id="Label" fill="#202340" mask="url(#mask-2)"></path>
            <path d="M73,87 L133.346154,87 L133.346154,87 C135.003008,87 136.346154,88.3431458 136.346154,90 L136.346154,90 C136.346154,91.6568542 135.003008,93 133.346154,93 L73,93 C71.3431458,93 70,91.6568542 70,90 C70,88.3431458 71.3431458,87 73,87 L73,87 Z M73,35 L168.923077,35 L168.923077,35 C170.579931,35 171.923077,36.3431458 171.923077,38 L171.923077,38 L171.923077,38 C171.923077,39.6568542 170.579931,41 168.923077,41 L73,41 L73,41 C71.3431458,41 70,39.6568542 70,38 L70,38 L70,38 C70,36.3431458 71.3431458,35 73,35 L73,35 Z M73,113 L149.692308,113 L149.692308,113 C151.349162,113 152.692308,114.343146 152.692308,116 L152.692308,116 C152.692308,117.656854 151.349162,119 149.692308,119 L73,119 C71.3431458,119 70,117.656854 70,116 C70,114.343146 71.3431458,113 73,113 L73,113 Z M73,139.12766 L108.346154,139.12766 C110.003008,139.12766 111.346154,140.470805 111.346154,142.12766 C111.346154,143.784514 110.003008,145.12766 108.346154,145.12766 L73,145.12766 C71.3431458,145.12766 70,143.784514 70,142.12766 C70,140.470805 71.3431458,139.12766 73,139.12766 Z" id="Combined-Shape" fill="#0A84FF" opacity="0.3" mask="url(#mask-2)"></path>
            <path d="M49.9923502,32 L49.9923502,32 C53.3018338,32 55.9847004,34.6828666 55.9847004,37.9923502 L55.9847004,38.0076498 L55.9847004,38.0076498 C55.9847004,41.3171334 53.3018338,44 49.9923502,44 C46.6828666,44 44,41.3171334 44,38.0076498 L44,37.9923502 C44,34.6828666 46.6828666,32 49.9923502,32 L49.9923502,32 Z M49.9923502,58 L49.9923502,58 C53.3018338,58 55.9847004,60.6828666 55.9847004,63.9923502 L55.9847004,64.0076498 L55.9847004,64.0076498 C55.9847004,67.3171334 53.3018338,70 49.9923502,70 C46.6828666,70 44,67.3171334 44,64.0076498 L44,63.9923502 L44,63.9923502 C44,60.6828666 46.6828666,58 49.9923502,58 L49.9923502,58 Z M49.9923502,84 L49.9923502,84 C53.3018338,84 55.9847004,86.6828666 55.9847004,89.9923502 L55.9847004,90.0076498 L55.9847004,90.0076498 C55.9847004,93.3171334 53.3018338,96 49.9923502,96 C46.6828666,96 44,93.3171334 44,90.0076498 L44,89.9923502 L44,89.9923502 C44,86.6828666 46.6828666,84 49.9923502,84 L49.9923502,84 Z M49.9923502,110 L49.9923502,110 C53.3018338,110 55.9847004,112.682867 55.9847004,115.99235 L55.9847004,116.00765 L55.9847004,116.00765 C55.9847004,119.317133 53.3018338,122 49.9923502,122 C46.6828666,122 44,119.317133 44,116.00765 L44,115.99235 L44,115.99235 C44,112.682867 46.6828666,110 49.9923502,110 L49.9923502,110 Z M49.9923502,136 L49.9923502,136 C53.3018338,136 55.9847004,138.682867 55.9847004,141.99235 L55.9847004,142.00765 L55.9847004,142.00765 C55.9847004,145.317133 53.3018338,148 49.9923502,148 C46.6828666,148 44,145.317133 44,142.00765 L44,141.99235 L44,141.99235 C44,138.682867 46.6828666,136 49.9923502,136 L49.9923502,136 Z" id="Icons" fill="#0A84FF" opacity="0.3"></path>
        </g>
    </g>
</svg>