<?xml version="1.0" encoding="UTF-8"?>
<svg width="300px" height="180px" viewBox="0 0 300 180" version="1.1" xmlns="http://www.w3.org/2000/svg" xmlns:xlink="http://www.w3.org/1999/xlink">
    <defs>
        <rect id="path-1" x="0" y="0" width="300" height="181" rx="0.802139037"></rect>
        <rect id="path-3" x="0" y="0" width="229.411765" height="29.6327434"></rect>
    </defs>
    <g id="Refresh" stroke="none" stroke-width="1" fill="none" fill-rule="evenodd">
        <g id="page-titles-do">
            <mask id="mask-2" fill="white">
                <use xlink:href="#path-1"></use>
            </mask>
            <use id="Region" fill-opacity="0.5" fill="#D7D7DB" xlink:href="#path-1"></use>
            <polygon id="Path" fill="#FFFFFF" mask="url(#mask-2)" points="30 40.9601273 -3 40.9601273 -3 185.389381 301.812834 185.389381 301.812834 40.9601273 235.772702 40.9601273 235.772702 14 30 14"></polygon>
            <path d="M30,40.9601273 L-3,40.9601273 L-3,185.389381 L301.812834,185.389381 L301.812834,40.9601273 L235.772702,40.9601273 L235.772702,14 L30,14 L30,40.9601273 Z M28,38.9601273 L28,12 L237.772702,12 L237.772702,38.9601273 L303.812834,38.9601273 L303.812834,187.389381 L-5,187.389381 L-5,38.9601273 L28,38.9601273 Z" id="Tab" fill-opacity="0.8" fill="#0A84FF" fill-rule="nonzero" mask="url(#mask-2)"></path>
            <g id="Group" mask="url(#mask-2)">
                <g transform="translate(13.636364, 10.411504)" id="Tab-Bar-Items">
                    <g>
                        <mask id="mask-4" fill="white">
                            <use xlink:href="#path-3"></use>
                        </mask>
                        <g id="Rectangle"></g>
                    </g>
                </g>
            </g>
            <rect id="Combined-Shape" fill-opacity="0.3" fill="#0A84FF" mask="url(#mask-2)" x="265.508021" y="24" width="46" height="6" rx="3"></rect>
            <path d="M112.074182,33.3262032 L110.550182,33.3262032 L107.190182,26.3062032 C107.238182,26.858206 107.276182,27.3682009 107.304182,27.8362032 C107.332182,28.3042055 107.346182,28.8701999 107.346182,29.5342032 L107.346182,33.3262032 L106.278182,33.3262032 L106.278182,25.0582032 L107.766182,25.0582032 L111.162182,32.0902032 C111.138182,31.8822022 111.106182,31.5182058 111.066182,30.9982032 C111.026182,30.4782006 111.006182,30.0022054 111.006182,29.5702032 L111.006182,25.0582032 L112.074182,25.0582032 L112.074182,33.3262032 Z M119.166182,30.5422032 L115.134182,30.5422032 C115.182182,31.2382067 115.35818,31.7502016 115.662182,32.0782032 C115.966183,32.4062048 116.358179,32.5702032 116.838182,32.5702032 C117.142183,32.5702032 117.422181,32.5262036 117.678182,32.4382032 C117.934183,32.3502028 118.20218,32.2102042 118.482182,32.0182032 L118.962182,32.6782032 C118.290178,33.2062058 117.554186,33.4702032 116.754182,33.4702032 C115.874177,33.4702032 115.188184,33.1822061 114.696182,32.6062032 C114.204179,32.0302003 113.958182,31.2382082 113.958182,30.2302032 C113.958182,29.5741999 114.064181,28.9922057 114.276182,28.4842032 C114.488183,27.9762007 114.79218,27.5782046 115.188182,27.2902032 C115.584184,27.0022018 116.050179,26.8582032 116.586182,26.8582032 C117.426186,26.8582032 118.07018,27.1342004 118.518182,27.6862032 C118.966184,28.238206 119.190182,29.0021983 119.190182,29.9782032 C119.190182,30.1622041 119.182182,30.3502022 119.166182,30.5422032 Z M118.098182,29.6542032 C118.098182,29.0302001 117.974183,28.5542048 117.726182,28.2262032 C117.478181,27.8982016 117.106184,27.7342032 116.610182,27.7342032 C115.706177,27.7342032 115.214182,28.3981966 115.134182,29.7262032 L118.098182,29.7262032 L118.098182,29.6542032 Z M126.798182,33.3262032 L125.298182,33.3262032 L124.194182,27.9982032 L123.054182,33.3262032 L121.590182,33.3262032 L120.114182,27.0022032 L121.218182,27.0022032 L122.358182,32.5582032 L123.606182,27.0022032 L124.842182,27.0022032 L126.030182,32.5582032 L127.182182,27.0022032 L128.238182,27.0022032 L126.798182,33.3262032 Z M137.622182,26.0302032 L135.330182,26.0302032 L135.330182,33.3262032 L134.190182,33.3262032 L134.190182,26.0302032 L131.838182,26.0302032 L131.838182,25.0582032 L137.742182,25.0582032 L137.622182,26.0302032 Z M142.434182,32.4202032 C142.522182,32.5442038 142.654181,32.6382029 142.830182,32.7022032 L142.578182,33.4702032 C142.25018,33.430203 141.986183,33.3382039 141.786182,33.1942032 C141.586181,33.0502025 141.438182,32.8262047 141.342182,32.5222032 C140.91818,33.1542064 140.290186,33.4702032 139.458182,33.4702032 C138.834179,33.4702032 138.342184,33.294205 137.982182,32.9422032 C137.62218,32.5902014 137.442182,32.130206 137.442182,31.5622032 C137.442182,30.8901998 137.684179,30.374205 138.168182,30.0142032 C138.652184,29.6542014 139.338177,29.4742032 140.226182,29.4742032 L141.198182,29.4742032 L141.198182,29.0062032 C141.198182,28.558201 141.090183,28.2382042 140.874182,28.0462032 C140.658181,27.8542022 140.326184,27.7582032 139.878182,27.7582032 C139.414179,27.7582032 138.846185,27.8702021 138.174182,28.0942032 L137.898182,27.2902032 C138.682186,27.0022018 139.410178,26.8582032 140.082182,26.8582032 C140.826186,26.8582032 141.38218,27.0402014 141.750182,27.4042032 C142.118184,27.768205 142.302182,28.2861998 142.302182,28.9582032 L142.302182,31.8502032 C142.302182,32.1062045 142.346181,32.2962026 142.434182,32.4202032 Z M141.198182,31.6582032 L141.198182,30.2062032 L140.370182,30.2062032 C139.202176,30.2062032 138.618182,30.6381989 138.618182,31.5022032 C138.618182,31.8782051 138.710181,32.1622022 138.894182,32.3542032 C139.078183,32.5462042 139.35018,32.6422032 139.710182,32.6422032 C140.342185,32.6422032 140.83818,32.3142065 141.198182,31.6582032 Z M149.178182,27.7282032 C149.602184,28.3082061 149.814182,29.118198 149.814182,30.1582032 C149.814182,30.8142065 149.714183,31.3922007 149.514182,31.8922032 C149.314181,32.3922057 149.026184,32.7802018 148.650182,33.0562032 C148.27418,33.3322046 147.834184,33.4702032 147.330182,33.4702032 C146.666178,33.4702032 146.106184,33.190206 145.650182,32.6302032 L145.542182,33.3262032 L144.570182,33.3262032 L144.570182,24.4582032 L145.674182,24.3262032 L145.674182,27.7942032 C146.130184,27.1702001 146.726178,26.8582032 147.462182,26.8582032 C148.182185,26.8582032 148.75418,27.1482003 149.178182,27.7282032 Z M148.212182,32.0002032 C148.488183,31.6042012 148.626182,30.9902074 148.626182,30.1582032 C148.626182,29.3021989 148.498183,28.6842051 148.242182,28.3042032 C147.986181,27.9242013 147.622184,27.7342032 147.150182,27.7342032 C146.590179,27.7342032 146.098184,28.0621999 145.674182,28.7182032 L145.674182,31.7422032 C145.842183,32.0062045 146.048181,32.2142024 146.292182,32.3662032 C146.536183,32.518204 146.79418,32.5942032 147.066182,32.5942032 C147.554184,32.5942032 147.93618,32.3962052 148.212182,32.0002032 Z" id="Label" fill="#202340" mask="url(#mask-2)"></path>
        </g>
    </g>
</svg>