<svg xmlns="http://www.w3.org/2000/svg" xmlns:xlink="http://www.w3.org/1999/xlink" width="200" height="72" style="background:#f9f9fa" viewBox="0 0 200 72">
  <defs>
    <path id="warning-icon-a" d="M17.9719859,14.4530716 L11.4711734,1.45144664 C11.0265954,0.561928437 10.1175415,0 9.12311092,0 C8.12868029,0 7.21962648,0.561928437 6.77504842,1.45144664 L0.274235917,14.4583216 C-0.129882533,15.2715798 -0.0849488579,16.2359451 0.393040499,17.0081023 C0.871029857,17.7802595 1.71416863,18.250511 2.62229842,18.2514466 L15.6226109,18.2514466 C16.5324833,18.2518707 17.3776854,17.781093 17.8563064,17.0072779 C18.3349273,16.2334627 18.378699,15.2669834 17.9719859,14.4530716 L17.9719859,14.4530716 Z M7.81061092,5.12644664 C7.81061092,4.4015729 8.39823718,3.81394664 9.12311092,3.81394664 C9.84798465,3.81394664 10.4356109,4.4015729 10.4356109,5.12644664 L10.4356109,10.3764466 C10.4356109,11.1013204 9.84798465,11.6889466 9.12311092,11.6889466 C8.39823718,11.6889466 7.81061092,11.1013204 7.81061092,10.3764466 L7.81061092,5.12644664 Z M9.12311092,15.9545716 C8.21701875,15.9545716 7.48248592,15.2200388 7.48248592,14.3139466 C7.48248592,13.4078545 8.21701875,12.6733216 9.12311092,12.6733216 C10.0292031,12.6733216 10.7637359,13.4078545 10.7637359,14.3139466 C10.7637359,15.2200388 10.0292031,15.9545716 9.12311092,15.9545716 L9.12311092,15.9545716 Z"/>
    <path id="warning-icon-c" d="M17.9719859,14.4530716 L11.4711734,1.45144664 C11.0265954,0.561928437 10.1175415,0 9.12311092,0 C8.12868029,0 7.21962648,0.561928437 6.77504842,1.45144664 L0.274235917,14.4583216 C-0.129882533,15.2715798 -0.0849488579,16.2359451 0.393040499,17.0081023 C0.871029857,17.7802595 1.71416863,18.250511 2.62229842,18.2514466 L15.6226109,18.2514466 C16.5324833,18.2518707 17.3776854,17.781093 17.8563064,17.0072779 C18.3349273,16.2334627 18.378699,15.2669834 17.9719859,14.4530716 L17.9719859,14.4530716 Z M7.81061092,5.12644664 C7.81061092,4.4015729 8.39823718,3.81394664 9.12311092,3.81394664 C9.84798465,3.81394664 10.4356109,4.4015729 10.4356109,5.12644664 L10.4356109,10.3764466 C10.4356109,11.1013204 9.84798465,11.6889466 9.12311092,11.6889466 C8.39823718,11.6889466 7.81061092,11.1013204 7.81061092,10.3764466 L7.81061092,5.12644664 Z M9.12311092,15.9545716 C8.21701875,15.9545716 7.48248592,15.2200388 7.48248592,14.3139466 C7.48248592,13.4078545 8.21701875,12.6733216 9.12311092,12.6733216 C10.0292031,12.6733216 10.7637359,13.4078545 10.7637359,14.3139466 C10.7637359,15.2200388 10.0292031,15.9545716 9.12311092,15.9545716 L9.12311092,15.9545716 Z"/>
  </defs>
  <g fill="none" fill-rule="evenodd">
    <g transform="translate(99.228)">
      <rect width="100" height="72" x=".772" fill="#FFE900"/>
      <g transform="translate(34.772 20)">
        <rect width="32" height="32"/>
        <g transform="translate(6.646 6.646)">
          <mask id="warning-icon-b" fill="#fff">
            <use xlink:href="#warning-icon-a"/>
          </mask>
          <use fill="#0C0C0D" fill-opacity=".8" fill-rule="nonzero" xlink:href="#warning-icon-a"/>
          <g fill="#3E2800" mask="url(#warning-icon-b)">
            <rect width="263" height="263" transform="translate(-122.063 -122.063)"/>
          </g>
        </g>
      </g>
    </g>
    <g transform="translate(34 20)">
      <rect width="32" height="32"/>
      <g transform="translate(6.646 6.646)">
        <mask id="warning-icon-d" fill="#fff">
          <use xlink:href="#warning-icon-c"/>
        </mask>
        <use fill="#0C0C0D" fill-opacity=".8" fill-rule="nonzero" xlink:href="#warning-icon-c"/>
        <g fill="#D7B600" mask="url(#warning-icon-d)">
          <rect width="263" height="263" transform="translate(-122.063 -122.063)"/>
        </g>
      </g>
      <g>
        <rect width="32" height="32"/>
      </g>
    </g>
  </g>
</svg>
