<svg xmlns="http://www.w3.org/2000/svg" xmlns:xlink="http://www.w3.org/1999/xlink" width="300" height="200" viewBox="0 0 300 200">
  <defs>
    <rect id="button-dont-a" width="300" height="232"/>
  </defs>
  <g fill="none" fill-rule="evenodd">
    <g opacity=".05">
      <mask id="button-dont-b" fill="#fff">
        <use xlink:href="#button-dont-a"/>
      </mask>
      <g fill="#000F40" mask="url(#button-dont-b)">
        <rect width="354" height="354" transform="translate(-27 -61)"/>
      </g>
    </g>
    <rect width="268" height="200" x="32" fill="#FFF"/>
    <rect width="172" height="8" x="64" y="32" fill="#0784FF" opacity=".3" rx="4"/>
    <rect width="140" height="8" x="64" y="48" fill="#0784FF" opacity=".3" rx="4"/>
    <rect width="128" height="8" x="64" y="80" fill="#0784FF" opacity=".3" rx="4"/>
    <rect width="160" height="8" x="64" y="64" fill="#0784FF" opacity=".3" rx="4"/>
    <rect width="88" height="32" x="64" y="112" fill="#0A84FF" rx="2"/>
    <path fill="#FFF" d="M79.488,125.532 C78.636,125.532 78.06,125.988 77.604,126.672 C77.364,125.952 76.788,125.532 76.008,125.532 C75.18,125.532 74.604,125.964 74.184,126.6 L74.088,125.676 L73.14,125.676 L73.14,132 L74.244,132 L74.244,127.512 C74.664,126.84 75.048,126.396 75.732,126.396 C76.212,126.396 76.62,126.672 76.62,127.62 L76.62,132 L77.724,132 L77.724,127.512 C78.156,126.84 78.528,126.396 79.212,126.396 C79.692,126.396 80.1,126.672 80.1,127.62 L80.1,132 L81.204,132 L81.204,127.464 C81.204,126.276 80.52,125.532 79.488,125.532 Z M87.684,130.524 C87.684,131.076 87.888,131.256 88.212,131.376 L87.96,132.144 C87.324,132.072 86.916,131.82 86.724,131.196 C86.28,131.856 85.608,132.144 84.84,132.144 C83.58,132.144 82.824,131.364 82.824,130.236 C82.824,128.88 83.844,128.148 85.608,128.148 L86.58,128.148 L86.58,127.68 C86.58,126.768 86.136,126.432 85.26,126.432 C84.792,126.432 84.204,126.552 83.556,126.768 L83.28,125.964 C84.06,125.676 84.756,125.532 85.464,125.532 C86.988,125.532 87.684,126.312 87.684,127.632 L87.684,130.524 Z M85.092,131.316 C85.74,131.316 86.22,130.992 86.58,130.332 L86.58,128.88 L85.752,128.88 C84.588,128.88 84,129.312 84,130.176 C84,130.92 84.372,131.316 85.092,131.316 Z M91.056,123 L89.952,123.132 L89.952,132 L91.056,132 L91.056,123 Z M94.692,125.676 L93.456,125.676 L91.128,128.544 L93.636,132 L94.956,132 L92.364,128.472 L94.692,125.676 Z M100.872,128.652 C100.872,128.868 100.86,129.072 100.848,129.216 L96.816,129.216 C96.924,130.68 97.608,131.244 98.52,131.244 C99.144,131.244 99.612,131.076 100.164,130.692 L100.644,131.352 C100.02,131.844 99.312,132.144 98.436,132.144 C96.672,132.144 95.64,130.908 95.64,128.904 C95.64,126.936 96.636,125.532 98.268,125.532 C99.972,125.532 100.872,126.72 100.872,128.652 Z M99.78,128.4 L99.78,128.328 C99.78,127.092 99.288,126.408 98.292,126.408 C97.452,126.408 96.9,126.996 96.816,128.4 L99.78,128.4 Z M109.668,123 L110.772,123.132 L110.772,132 L109.8,132 L109.692,131.124 C109.284,131.76 108.648,132.144 107.868,132.144 C106.332,132.144 105.48,130.836 105.48,128.868 C105.48,126.936 106.416,125.532 107.964,125.532 C108.708,125.532 109.248,125.868 109.668,126.312 L109.668,123 Z M108.108,131.268 C108.816,131.268 109.248,130.92 109.668,130.332 L109.668,127.236 C109.272,126.732 108.828,126.408 108.204,126.408 C107.256,126.408 106.668,127.2 106.668,128.844 C106.668,130.512 107.196,131.268 108.108,131.268 Z M117.828,128.652 C117.828,128.868 117.816,129.072 117.804,129.216 L113.772,129.216 C113.88,130.68 114.564,131.244 115.476,131.244 C116.1,131.244 116.568,131.076 117.12,130.692 L117.6,131.352 C116.976,131.844 116.268,132.144 115.392,132.144 C113.628,132.144 112.596,130.908 112.596,128.904 C112.596,126.936 113.592,125.532 115.224,125.532 C116.928,125.532 117.828,126.72 117.828,128.652 Z M116.736,128.4 L116.736,128.328 C116.736,127.092 116.244,126.408 115.248,126.408 C114.408,126.408 113.856,126.996 113.772,128.4 L116.736,128.4 Z M121.8,123.888 C121.104,123.888 120.864,124.188 120.864,124.8 L120.864,125.676 L122.4,125.676 L122.28,126.528 L120.864,126.528 L120.864,132 L119.76,132 L119.76,126.528 L118.632,126.528 L118.632,125.676 L119.76,125.676 L119.76,124.812 C119.76,123.756 120.456,123 121.74,123 C122.34,123 122.748,123.108 123.252,123.324 L122.904,124.128 C122.496,123.948 122.124,123.888 121.8,123.888 Z M127.932,130.524 C127.932,131.076 128.136,131.256 128.46,131.376 L128.208,132.144 C127.572,132.072 127.164,131.82 126.972,131.196 C126.528,131.856 125.856,132.144 125.088,132.144 C123.828,132.144 123.072,131.364 123.072,130.236 C123.072,128.88 124.092,128.148 125.856,128.148 L126.828,128.148 L126.828,127.68 C126.828,126.768 126.384,126.432 125.508,126.432 C125.04,126.432 124.452,126.552 123.804,126.768 L123.528,125.964 C124.308,125.676 125.004,125.532 125.712,125.532 C127.236,125.532 127.932,126.312 127.932,127.632 L127.932,130.524 Z M125.34,131.316 C125.988,131.316 126.468,130.992 126.828,130.332 L126.828,128.88 L126,128.88 C124.836,128.88 124.248,129.312 124.248,130.176 C124.248,130.92 124.62,131.316 125.34,131.316 Z M134.904,125.676 L133.8,125.676 L133.8,130.188 C133.416,130.824 132.9,131.28 132.216,131.28 C131.532,131.28 131.244,130.956 131.244,130.092 L131.244,125.676 L130.14,125.676 L130.14,130.212 C130.14,131.448 130.8,132.144 131.904,132.144 C132.804,132.144 133.392,131.784 133.872,131.016 L133.956,132 L134.904,132 L134.904,125.676 Z M138.444,132.144 C138.768,132.144 139.08,132.06 139.32,131.928 L139.032,131.16 C138.912,131.208 138.78,131.232 138.624,131.232 C138.336,131.232 138.228,131.064 138.228,130.728 L138.228,123 L137.124,123.132 L137.124,130.752 C137.124,131.652 137.64,132.144 138.444,132.144 Z M143.472,130.956 C143.16,131.148 142.908,131.232 142.632,131.232 C142.08,131.232 141.876,130.932 141.876,130.296 L141.876,126.528 L143.256,126.528 L143.376,125.676 L141.876,125.676 L141.876,124.116 L140.772,124.248 L140.772,125.676 L139.668,125.676 L139.668,126.528 L140.772,126.528 L140.772,130.344 C140.772,131.52 141.408,132.144 142.476,132.144 C143.016,132.144 143.472,132 143.892,131.712 L143.472,130.956 Z"/>
    <rect width="2" height="200" x="30" fill="#0784FF"/>
  </g>
</svg>
