<svg xmlns="http://www.w3.org/2000/svg" width="300" height="200" style="background:#f9f9fa" viewBox="0 0 300 200">
  <g fill="none" fill-rule="evenodd">
    <rect width="268" height="200" x="32" fill="#FFF"/>
    <rect width="172" height="8" x="64" y="32" fill="#D7D7DB"/>
    <rect width="140" height="8" x="64" y="48" fill="#D7D7DB"/>
    <rect width="128" height="8" x="64" y="80" fill="#D7D7DB"/>
    <rect width="160" height="8" x="64" y="64" fill="#D7D7DB"/>
    <rect width="100" height="32" x="64" y="104" fill="#0A84FF"/>
    <path fill="#FFF" d="M85.908,115.732 L84.36,115.732 L82.704,121.744 L80.964,115.732 L79.428,115.732 L78.744,124 L79.824,124 L80.1,120.352 C80.196,119.14 80.256,117.856 80.256,116.884 L82.14,123.064 L83.208,123.064 L84.996,116.896 C85.008,117.58 85.092,118.972 85.2,120.268 L85.488,124 L86.592,124 L85.908,115.732 Z M92.952,122.524 C92.952,123.076 93.156,123.256 93.48,123.376 L93.228,124.144 C92.592,124.072 92.184,123.82 91.992,123.196 C91.548,123.856 90.876,124.144 90.108,124.144 C88.848,124.144 88.092,123.364 88.092,122.236 C88.092,120.88 89.112,120.148 90.876,120.148 L91.848,120.148 L91.848,119.68 C91.848,118.768 91.404,118.432 90.528,118.432 C90.06,118.432 89.472,118.552 88.824,118.768 L88.548,117.964 C89.328,117.676 90.024,117.532 90.732,117.532 C92.256,117.532 92.952,118.312 92.952,119.632 L92.952,122.524 Z M90.36,123.316 C91.008,123.316 91.488,122.992 91.848,122.332 L91.848,120.88 L91.02,120.88 C89.856,120.88 89.268,121.312 89.268,122.176 C89.268,122.92 89.64,123.316 90.36,123.316 Z M96.324,115 L95.22,115.132 L95.22,124 L96.324,124 L96.324,115 Z M99.96,117.676 L98.724,117.676 L96.396,120.544 L98.904,124 L100.224,124 L97.632,120.472 L99.96,117.676 Z M106.14,120.652 C106.14,120.868 106.128,121.072 106.116,121.216 L102.084,121.216 C102.192,122.68 102.876,123.244 103.788,123.244 C104.412,123.244 104.88,123.076 105.432,122.692 L105.912,123.352 C105.288,123.844 104.58,124.144 103.704,124.144 C101.94,124.144 100.908,122.908 100.908,120.904 C100.908,118.936 101.904,117.532 103.536,117.532 C105.24,117.532 106.14,118.72 106.14,120.652 Z M105.048,120.4 L105.048,120.328 C105.048,119.092 104.556,118.408 103.56,118.408 C102.72,118.408 102.168,118.996 102.084,120.4 L105.048,120.4 Z M112.932,115.732 C115.044,115.732 117.072,116.392 117.072,119.824 C117.072,123.196 114.972,124 113.184,124 L111.204,124 L111.204,115.732 L112.932,115.732 Z M113.184,116.644 L112.344,116.644 L112.344,123.1 L113.268,123.1 C114.564,123.1 115.86,122.548 115.86,119.824 C115.86,117.028 114.504,116.644 113.184,116.644 Z M123.648,120.652 C123.648,120.868 123.636,121.072 123.624,121.216 L119.592,121.216 C119.7,122.68 120.384,123.244 121.296,123.244 C121.92,123.244 122.388,123.076 122.94,122.692 L123.42,123.352 C122.796,123.844 122.088,124.144 121.212,124.144 C119.448,124.144 118.416,122.908 118.416,120.904 C118.416,118.936 119.412,117.532 121.044,117.532 C122.748,117.532 123.648,118.72 123.648,120.652 Z M122.556,120.4 L122.556,120.328 C122.556,119.092 122.064,118.408 121.068,118.408 C120.228,118.408 119.676,118.996 119.592,120.4 L122.556,120.4 Z M127.62,115.888 C126.924,115.888 126.684,116.188 126.684,116.8 L126.684,117.676 L128.22,117.676 L128.1,118.528 L126.684,118.528 L126.684,124 L125.58,124 L125.58,118.528 L124.452,118.528 L124.452,117.676 L125.58,117.676 L125.58,116.812 C125.58,115.756 126.276,115 127.56,115 C128.16,115 128.568,115.108 129.072,115.324 L128.724,116.128 C128.316,115.948 127.944,115.888 127.62,115.888 Z M133.752,122.524 C133.752,123.076 133.956,123.256 134.28,123.376 L134.028,124.144 C133.392,124.072 132.984,123.82 132.792,123.196 C132.348,123.856 131.676,124.144 130.908,124.144 C129.648,124.144 128.892,123.364 128.892,122.236 C128.892,120.88 129.912,120.148 131.676,120.148 L132.648,120.148 L132.648,119.68 C132.648,118.768 132.204,118.432 131.328,118.432 C130.86,118.432 130.272,118.552 129.624,118.768 L129.348,117.964 C130.128,117.676 130.824,117.532 131.532,117.532 C133.056,117.532 133.752,118.312 133.752,119.632 L133.752,122.524 Z M131.16,123.316 C131.808,123.316 132.288,122.992 132.648,122.332 L132.648,120.88 L131.82,120.88 C130.656,120.88 130.068,121.312 130.068,122.176 C130.068,122.92 130.44,123.316 131.16,123.316 Z M140.724,117.676 L139.62,117.676 L139.62,122.188 C139.236,122.824 138.72,123.28 138.036,123.28 C137.352,123.28 137.064,122.956 137.064,122.092 L137.064,117.676 L135.96,117.676 L135.96,122.212 C135.96,123.448 136.62,124.144 137.724,124.144 C138.624,124.144 139.212,123.784 139.692,123.016 L139.776,124 L140.724,124 L140.724,117.676 Z M144.264,124.144 C144.588,124.144 144.9,124.06 145.14,123.928 L144.852,123.16 C144.732,123.208 144.6,123.232 144.444,123.232 C144.156,123.232 144.048,123.064 144.048,122.728 L144.048,115 L142.944,115.132 L142.944,122.752 C142.944,123.652 143.46,124.144 144.264,124.144 Z M149.292,122.956 C148.98,123.148 148.728,123.232 148.452,123.232 C147.9,123.232 147.696,122.932 147.696,122.296 L147.696,118.528 L149.076,118.528 L149.196,117.676 L147.696,117.676 L147.696,116.116 L146.592,116.248 L146.592,117.676 L145.488,117.676 L145.488,118.528 L146.592,118.528 L146.592,122.344 C146.592,123.52 147.228,124.144 148.296,124.144 C148.836,124.144 149.292,124 149.712,123.712 L149.292,122.956 Z"/>
  </g>
</svg>
