<svg xmlns="http://www.w3.org/2000/svg" width="300" height="200" style="background:#f9f9fa" viewBox="0 0 300 200">
  <g fill="none" fill-rule="evenodd">
    <rect width="268" height="200" x="32" fill="#FFF"/>
    <rect width="172" height="8" x="64" y="32" fill="#D7D7DB"/>
    <rect width="140" height="8" x="64" y="48" fill="#D7D7DB"/>
    <rect width="128" height="8" x="64" y="80" fill="#D7D7DB"/>
    <rect width="160" height="8" x="64" y="64" fill="#D7D7DB"/>
    <rect width="100" height="32" x="64" y="104" fill="#0A84FF"/>
    <path fill="#FFF" d="M85.908,115.732 L84.36,115.732 L82.704,121.744 L80.964,115.732 L79.428,115.732 L78.744,124 L79.824,124 L80.1,120.352 C80.196,119.14 80.256,117.856 80.256,116.884 L82.14,123.064 L83.208,123.064 L84.996,116.896 C85.008,117.58 85.092,118.972 85.2,120.268 L85.488,124 L86.592,124 L85.908,115.732 Z M92.952,122.524 C92.952,123.076 93.156,123.256 93.48,123.376 L93.228,124.144 C92.592,124.072 92.184,123.82 91.992,123.196 C91.548,123.856 90.876,124.144 90.108,124.144 C88.848,124.144 88.092,123.364 88.092,122.236 C88.092,120.88 89.112,120.148 90.876,120.148 L91.848,120.148 L91.848,119.68 C91.848,118.768 91.404,118.432 90.528,118.432 C90.06,118.432 89.472,118.552 88.824,118.768 L88.548,117.964 C89.328,117.676 90.024,117.532 90.732,117.532 C92.256,117.532 92.952,118.312 92.952,119.632 L92.952,122.524 Z M90.36,123.316 C91.008,123.316 91.488,122.992 91.848,122.332 L91.848,120.88 L91.02,120.88 C89.856,120.88 89.268,121.312 89.268,122.176 C89.268,122.92 89.64,123.316 90.36,123.316 Z M96.324,115 L95.22,115.132 L95.22,124 L96.324,124 L96.324,115 Z M99.96,117.676 L98.724,117.676 L96.396,120.544 L98.904,124 L100.224,124 L97.632,120.472 L99.96,117.676 Z M106.14,120.652 C106.14,120.868 106.128,121.072 106.116,121.216 L102.084,121.216 C102.192,122.68 102.876,123.244 103.788,123.244 C104.412,123.244 104.88,123.076 105.432,122.692 L105.912,123.352 C105.288,123.844 104.58,124.144 103.704,124.144 C101.94,124.144 100.908,122.908 100.908,120.904 C100.908,118.936 101.904,117.532 103.536,117.532 C105.24,117.532 106.14,118.72 106.14,120.652 Z M105.048,120.4 L105.048,120.328 C105.048,119.092 104.556,118.408 103.56,118.408 C102.72,118.408 102.168,118.996 102.084,120.4 L105.048,120.4 Z M114.936,115 L116.04,115.132 L116.04,124 L115.068,124 L114.96,123.124 C114.552,123.76 113.916,124.144 113.136,124.144 C111.6,124.144 110.748,122.836 110.748,120.868 C110.748,118.936 111.684,117.532 113.232,117.532 C113.976,117.532 114.516,117.868 114.936,118.312 L114.936,115 Z M113.376,123.268 C114.084,123.268 114.516,122.92 114.936,122.332 L114.936,119.236 C114.54,118.732 114.096,118.408 113.472,118.408 C112.524,118.408 111.936,119.2 111.936,120.844 C111.936,122.512 112.464,123.268 113.376,123.268 Z M123.096,120.652 C123.096,120.868 123.084,121.072 123.072,121.216 L119.04,121.216 C119.148,122.68 119.832,123.244 120.744,123.244 C121.368,123.244 121.836,123.076 122.388,122.692 L122.868,123.352 C122.244,123.844 121.536,124.144 120.66,124.144 C118.896,124.144 117.864,122.908 117.864,120.904 C117.864,118.936 118.86,117.532 120.492,117.532 C122.196,117.532 123.096,118.72 123.096,120.652 Z M122.004,120.4 L122.004,120.328 C122.004,119.092 121.512,118.408 120.516,118.408 C119.676,118.408 119.124,118.996 119.04,120.4 L122.004,120.4 Z M127.068,115.888 C126.372,115.888 126.132,116.188 126.132,116.8 L126.132,117.676 L127.668,117.676 L127.548,118.528 L126.132,118.528 L126.132,124 L125.028,124 L125.028,118.528 L123.9,118.528 L123.9,117.676 L125.028,117.676 L125.028,116.812 C125.028,115.756 125.724,115 127.008,115 C127.608,115 128.016,115.108 128.52,115.324 L128.172,116.128 C127.764,115.948 127.392,115.888 127.068,115.888 Z M133.2,122.524 C133.2,123.076 133.404,123.256 133.728,123.376 L133.476,124.144 C132.84,124.072 132.432,123.82 132.24,123.196 C131.796,123.856 131.124,124.144 130.356,124.144 C129.096,124.144 128.34,123.364 128.34,122.236 C128.34,120.88 129.36,120.148 131.124,120.148 L132.096,120.148 L132.096,119.68 C132.096,118.768 131.652,118.432 130.776,118.432 C130.308,118.432 129.72,118.552 129.072,118.768 L128.796,117.964 C129.576,117.676 130.272,117.532 130.98,117.532 C132.504,117.532 133.2,118.312 133.2,119.632 L133.2,122.524 Z M130.608,123.316 C131.256,123.316 131.736,122.992 132.096,122.332 L132.096,120.88 L131.268,120.88 C130.104,120.88 129.516,121.312 129.516,122.176 C129.516,122.92 129.888,123.316 130.608,123.316 Z M140.172,117.676 L139.068,117.676 L139.068,122.188 C138.684,122.824 138.168,123.28 137.484,123.28 C136.8,123.28 136.512,122.956 136.512,122.092 L136.512,117.676 L135.408,117.676 L135.408,122.212 C135.408,123.448 136.068,124.144 137.172,124.144 C138.072,124.144 138.66,123.784 139.14,123.016 L139.224,124 L140.172,124 L140.172,117.676 Z M143.712,124.144 C144.036,124.144 144.348,124.06 144.588,123.928 L144.3,123.16 C144.18,123.208 144.048,123.232 143.892,123.232 C143.604,123.232 143.496,123.064 143.496,122.728 L143.496,115 L142.392,115.132 L142.392,122.752 C142.392,123.652 142.908,124.144 143.712,124.144 Z M148.74,122.956 C148.428,123.148 148.176,123.232 147.9,123.232 C147.348,123.232 147.144,122.932 147.144,122.296 L147.144,118.528 L148.524,118.528 L148.644,117.676 L147.144,117.676 L147.144,116.116 L146.04,116.248 L146.04,117.676 L144.936,117.676 L144.936,118.528 L146.04,118.528 L146.04,122.344 C146.04,123.52 146.676,124.144 147.744,124.144 C148.284,124.144 148.74,124 149.16,123.712 L148.74,122.956 Z"/>
  </g>
</svg>
