<svg xmlns="http://www.w3.org/2000/svg" xmlns:xlink="http://www.w3.org/1999/xlink" width="300" height="200" viewBox="0 0 300 200">
  <defs>
    <rect id="menu-label-dont-a" width="300" height="232"/>
  </defs>
  <g fill="none" fill-rule="evenodd">
    <g opacity=".05">
      <mask id="menu-label-dont-b" fill="#fff">
        <use xlink:href="#menu-label-dont-a"/>
      </mask>
      <g fill="#000F40" mask="url(#menu-label-dont-b)">
        <rect width="354" height="354" transform="translate(-27 -61)"/>
      </g>
    </g>
    <path fill="#FFF" d="M32,34.003755 C32,32.8971117 32.8872198,32 34.0026084,32 L236,32 L244,24 L252,32 L266.00594,32 C267.107229,32 268,32.9038858 268,34.003755 L268,200 L32,200 L32,34.003755 Z"/>
    <path fill="#2091FF" fill-rule="nonzero" d="M32,34.003755 L32,200 L268,200 L268,34.003755 C268,32.9038858 267.107229,32 266.00594,32 L252,32 L244,24 L236,32 L34.0026084,32 C32.8872198,32 32,32.8971117 32,34.003755 Z M235.171573,30 L244,21.1715729 L252.828427,30 L266.00594,30 C268.212704,30 270,31.8001796 270,34.003755 L270,202 L30,202 L30,34.003755 C30,31.790994 31.7841788,30 34.0026084,30 L235.171573,30 Z"/>
    <rect width="16" height="16" x="40" y="40" fill="#0784FF" opacity=".3" rx="8"/>
    <rect width="236" height="2" x="32" y="65" fill="#0784FF" transform="matrix(1 0 0 -1 0 132)"/>
    <path fill="#000F40" d="M69.604,51 L68.98,48.924 L65.848,48.924 L65.224,51 L64.072,51 L66.724,42.732 L68.164,42.732 L70.804,51 L69.604,51 Z M66.124,48 L68.704,48 L67.42,43.68 L66.124,48 Z M73.216,42.732 L72.076,42.732 L72.076,51 L76.48,51 L76.612,50.004 L73.216,50.004 L73.216,42.732 Z M79.192,42.732 L78.052,42.732 L78.052,51 L82.456,51 L82.588,50.004 L79.192,50.004 L79.192,42.732 Z M92.548,42.732 L91.36,42.732 L89.344,46.824 L87.328,42.732 L86.068,42.732 L88.732,47.832 L88.732,51 L89.884,51 L89.884,47.82 L92.548,42.732 Z M96.76,42.588 C98.836,42.588 100.252,44.088 100.252,46.872 C100.252,49.608 98.836,51.144 96.76,51.144 C94.696,51.144 93.268,49.656 93.268,46.884 C93.268,44.16 94.696,42.588 96.76,42.588 Z M96.76,43.524 C95.38,43.524 94.48,44.496 94.48,46.884 C94.48,49.272 95.416,50.208 96.76,50.208 C98.152,50.208 99.04,49.272 99.04,46.872 C99.04,44.496 98.176,43.524 96.76,43.524 Z M107.776,42.732 L106.624,42.732 L106.624,48.264 C106.624,49.548 106.06,50.184 104.872,50.184 C103.696,50.184 103.132,49.548 103.132,48.264 L103.132,42.732 L101.992,42.732 L101.992,48.348 C101.992,49.992 102.988,51.144 104.872,51.144 C106.732,51.144 107.776,49.992 107.776,48.348 L107.776,42.732 Z M114.46,51 L112.48,47.496 L111.196,47.496 L111.196,51 L110.056,51 L110.056,42.732 L112.228,42.732 C114.292,42.732 115.372,43.524 115.372,45.072 C115.372,46.236 114.772,46.932 113.584,47.292 L115.816,51 L114.46,51 Z M111.196,46.62 L112.348,46.62 C113.5,46.62 114.16,46.188 114.16,45.072 C114.16,44.04 113.572,43.62 112.216,43.62 L111.196,43.62 L111.196,46.62 Z M124.9,51 L124.276,48.924 L121.144,48.924 L120.52,51 L119.368,51 L122.02,42.732 L123.46,42.732 L126.1,51 L124.9,51 Z M121.42,48 L124,48 L122.716,43.68 L121.42,48 Z M130.264,42.588 C128.392,42.588 126.832,44.064 126.832,46.86 C126.832,49.644 128.284,51.144 130.288,51.144 C131.404,51.144 132.208,50.688 132.652,50.22 L132.076,49.488 C131.608,49.836 131.104,50.184 130.324,50.184 C129.04,50.184 128.044,49.248 128.044,46.86 C128.044,44.364 129.088,43.524 130.336,43.524 C130.912,43.524 131.416,43.716 131.932,44.136 L132.556,43.404 C131.896,42.876 131.308,42.588 130.264,42.588 Z M138.976,42.732 L133.072,42.732 L133.072,43.704 L135.424,43.704 L135.424,51 L136.564,51 L136.564,43.704 L138.856,43.704 L138.976,42.732 Z M141.436,42.732 L140.296,42.732 L140.296,51 L141.436,51 L141.436,42.732 Z M149.236,42.732 L148.084,42.732 L146.008,49.764 L143.932,42.732 L142.708,42.732 L145.372,51 L146.596,51 L149.236,42.732 Z M151.648,42.732 L150.508,42.732 L150.508,51 L151.648,51 L151.648,42.732 Z M158.932,42.732 L153.028,42.732 L153.028,43.704 L155.38,43.704 L155.38,51 L156.52,51 L156.52,43.704 L158.812,43.704 L158.932,42.732 Z M165.592,42.732 L164.404,42.732 L162.388,46.824 L160.372,42.732 L159.112,42.732 L161.776,47.832 L161.776,51 L162.928,51 L162.928,47.82 L165.592,42.732 Z"/>
    <g fill="#0784FF" opacity=".3" transform="translate(40 75)">
      <rect width="16" height="16" rx="8"/>
      <rect width="100" height="8" x="24" y="68" rx="4"/>
      <rect width="120" height="8" x="24" y="4" rx="4"/>
      <rect width="16" height="16" y="32" rx="8"/>
      <rect width="80" height="8" x="24" y="36" rx="4"/>
      <rect width="16" height="16" y="64" rx="8"/>
      <rect width="16" height="16" y="96" rx="8"/>
      <rect width="64" height="8" x="24" y="100" rx="4"/>
      <polygon points="208 14 208 2 216 8"/>
      <polygon points="208 110 208 98 216 104"/>
      <polygon points="208 78 208 66 216 72"/>
      <polygon points="208 46 208 34 216 40"/>
    </g>
  </g>
</svg>
