<svg xmlns="http://www.w3.org/2000/svg" xmlns:xlink="http://www.w3.org/1999/xlink" width="300" height="200" viewBox="0 0 300 200">
  <defs>
    <rect id="menu-label-do-a" width="300" height="232"/>
  </defs>
  <g fill="none" fill-rule="evenodd">
    <g opacity=".05" transform="translate(0 -18)">
      <mask id="menu-label-do-b" fill="#fff">
        <use xlink:href="#menu-label-do-a"/>
      </mask>
      <g fill="#000F40" mask="url(#menu-label-do-b)">
        <rect width="354" height="354" transform="translate(-27 -61)"/>
      </g>
    </g>
    <path fill="#FFF" d="M32,34.003755 C32,32.8971117 32.8872198,32 34.0026084,32 L236,32 L244,24 L252,32 L266.00594,32 C267.107229,32 268,32.9038858 268,34.003755 L268,200 L32,200 L32,34.003755 Z"/>
    <path fill="#2091FF" fill-rule="nonzero" d="M32,34.003755 L32,200 L268,200 L268,34.003755 C268,32.9038858 267.107229,32 266.00594,32 L252,32 L244,24 L236,32 L34.0026084,32 C32.8872198,32 32,32.8971117 32,34.003755 Z M235.171573,30 L244,21.1715729 L252.828427,30 L266.00594,30 C268.212704,30 270,31.8001796 270,34.003755 L270,202 L30,202 L30,34.003755 C30,31.790994 31.7841788,30 34.0026084,30 L235.171573,30 Z"/>
    <rect width="16" height="16" x="40" y="40" fill="#0784FF" opacity=".3" rx="8"/>
    <rect width="236" height="2" x="32" y="65" fill="#0784FF" transform="matrix(1 0 0 -1 0 132)"/>
    <path fill="#000F40" d="M69.604,51 L68.98,48.924 L65.848,48.924 L65.224,51 L64.072,51 L66.724,42.732 L68.164,42.732 L70.804,51 L69.604,51 Z M66.124,48 L68.704,48 L67.42,43.68 L66.124,48 Z M73.276,51.144 C73.6,51.144 73.912,51.06 74.152,50.928 L73.864,50.16 C73.744,50.208 73.612,50.232 73.456,50.232 C73.168,50.232 73.06,50.064 73.06,49.728 L73.06,42 L71.956,42.132 L71.956,49.752 C71.956,50.652 72.472,51.144 73.276,51.144 Z M76.792,51.144 C77.116,51.144 77.428,51.06 77.668,50.928 L77.38,50.16 C77.26,50.208 77.128,50.232 76.972,50.232 C76.684,50.232 76.576,50.064 76.576,49.728 L76.576,42 L75.472,42.132 L75.472,49.752 C75.472,50.652 75.988,51.144 76.792,51.144 Z M87.628,42.732 L86.44,42.732 L84.424,46.824 L82.408,42.732 L81.148,42.732 L83.812,47.832 L83.812,51 L84.964,51 L84.964,47.82 L87.628,42.732 Z M91.204,44.532 C93.004,44.532 94.012,45.828 94.012,47.832 C94.012,49.788 92.98,51.144 91.192,51.144 C89.392,51.144 88.372,49.848 88.372,47.844 C88.372,45.888 89.404,44.532 91.204,44.532 Z M91.204,45.42 C90.148,45.42 89.56,46.188 89.56,47.844 C89.56,49.488 90.136,50.256 91.192,50.256 C92.248,50.256 92.824,49.488 92.824,47.832 C92.824,46.188 92.248,45.42 91.204,45.42 Z M100.54,44.676 L99.436,44.676 L99.436,49.188 C99.052,49.824 98.536,50.28 97.852,50.28 C97.168,50.28 96.88,49.956 96.88,49.092 L96.88,44.676 L95.776,44.676 L95.776,49.212 C95.776,50.448 96.436,51.144 97.54,51.144 C98.44,51.144 99.028,50.784 99.508,50.016 L99.592,51 L100.54,51 L100.54,44.676 Z M105.568,44.532 C104.8,44.532 104.212,45.012 103.876,45.96 L103.768,44.676 L102.82,44.676 L102.82,51 L103.924,51 L103.924,47.388 C104.188,46.176 104.644,45.612 105.436,45.612 C105.664,45.612 105.796,45.636 105.988,45.684 L106.192,44.604 C106,44.556 105.772,44.532 105.568,44.532 Z M115.096,51 L114.472,48.924 L111.34,48.924 L110.716,51 L109.564,51 L112.216,42.732 L113.656,42.732 L116.296,51 L115.096,51 Z M111.616,48 L114.196,48 L112.912,43.68 L111.616,48 Z M119.812,44.532 C118.096,44.532 117.052,45.876 117.052,47.892 C117.052,49.932 118.108,51.144 119.812,51.144 C120.544,51.144 121.18,50.904 121.744,50.448 L121.24,49.728 C120.76,50.04 120.388,50.208 119.86,50.208 C118.864,50.208 118.24,49.524 118.24,47.868 C118.24,46.224 118.864,45.444 119.86,45.444 C120.388,45.444 120.784,45.6 121.216,45.912 L121.744,45.216 C121.156,44.724 120.556,44.532 119.812,44.532 Z M126.016,49.956 C125.704,50.148 125.452,50.232 125.176,50.232 C124.624,50.232 124.42,49.932 124.42,49.296 L124.42,45.528 L125.8,45.528 L125.92,44.676 L124.42,44.676 L124.42,43.116 L123.316,43.248 L123.316,44.676 L122.212,44.676 L122.212,45.528 L123.316,45.528 L123.316,49.344 C123.316,50.52 123.952,51.144 125.02,51.144 C125.56,51.144 126.016,51 126.436,50.712 L126.016,49.956 Z M128.116,41.64 C127.66,41.64 127.348,41.964 127.348,42.396 C127.348,42.816 127.66,43.14 128.116,43.14 C128.584,43.14 128.896,42.816 128.896,42.396 C128.896,41.964 128.584,41.64 128.116,41.64 Z M128.68,44.676 L127.576,44.676 L127.576,51 L128.68,51 L128.68,44.676 Z M135.604,44.676 L134.44,44.676 L132.796,50.016 L131.14,44.676 L129.94,44.676 L132.124,51 L133.456,51 L135.604,44.676 Z M137.404,41.64 C136.948,41.64 136.636,41.964 136.636,42.396 C136.636,42.816 136.948,43.14 137.404,43.14 C137.872,43.14 138.184,42.816 138.184,42.396 C138.184,41.964 137.872,41.64 137.404,41.64 Z M137.968,44.676 L136.864,44.676 L136.864,51 L137.968,51 L137.968,44.676 Z M143.02,49.956 C142.708,50.148 142.456,50.232 142.18,50.232 C141.628,50.232 141.424,49.932 141.424,49.296 L141.424,45.528 L142.804,45.528 L142.924,44.676 L141.424,44.676 L141.424,43.116 L140.32,43.248 L140.32,44.676 L139.216,44.676 L139.216,45.528 L140.32,45.528 L140.32,49.344 C140.32,50.52 140.956,51.144 142.024,51.144 C142.564,51.144 143.02,51 143.44,50.712 L143.02,49.956 Z M149.224,44.676 L148.084,44.676 L146.428,50.196 L144.736,44.676 L143.56,44.676 L145.684,51 L146.056,51 C145.696,51.984 145.336,52.476 144.052,52.692 L144.172,53.556 C145.924,53.364 146.668,52.38 147.112,51.036 L149.224,44.676 Z"/>
    <g fill="#0784FF" opacity=".3" transform="translate(40 75)">
      <rect width="16" height="16" rx="8"/>
      <rect width="100" height="8" x="24" y="68" rx="4"/>
      <rect width="120" height="8" x="24" y="4" rx="4"/>
      <rect width="16" height="16" y="32" rx="8"/>
      <rect width="80" height="8" x="24" y="36" rx="4"/>
      <rect width="16" height="16" y="64" rx="8"/>
      <rect width="16" height="16" y="96" rx="8"/>
      <rect width="64" height="8" x="24" y="100" rx="4"/>
      <polygon points="208 14 208 2 216 8"/>
      <polygon points="208 110 208 98 216 104"/>
      <polygon points="208 78 208 66 216 72"/>
      <polygon points="208 46 208 34 216 40"/>
    </g>
  </g>
</svg>
