<svg xmlns="http://www.w3.org/2000/svg" width="300" height="200" style="background:#f9f9fa" viewBox="0 0 300 200">
  <g fill="none" fill-rule="evenodd">
    <polygon fill="#FFF" points="32 32 236 32 244 24 252 32 268 32 268 200 32 200"/>
    <rect width="32" height="32" x="32" y="32"/>
    <rect width="16" height="16" x="40" y="40" fill="#D7D7DB" rx="2"/>
    <path fill="#0C0C0D" d="M69.604,52 L68.98,49.924 L65.848,49.924 L65.224,52 L64.072,52 L66.724,43.732 L68.164,43.732 L70.804,52 L69.604,52 Z M66.124,49 L68.704,49 L67.42,44.68 L66.124,49 Z M73.276,52.144 C73.6,52.144 73.912,52.06 74.152,51.928 L73.864,51.16 C73.744,51.208 73.612,51.232 73.456,51.232 C73.168,51.232 73.06,51.064 73.06,50.728 L73.06,43 L71.956,43.132 L71.956,50.752 C71.956,51.652 72.472,52.144 73.276,52.144 Z M76.792,52.144 C77.116,52.144 77.428,52.06 77.668,51.928 L77.38,51.16 C77.26,51.208 77.128,51.232 76.972,51.232 C76.684,51.232 76.576,51.064 76.576,50.728 L76.576,43 L75.472,43.132 L75.472,50.752 C75.472,51.652 75.988,52.144 76.792,52.144 Z M87.628,43.732 L86.44,43.732 L84.424,47.824 L82.408,43.732 L81.148,43.732 L83.812,48.832 L83.812,52 L84.964,52 L84.964,48.82 L87.628,43.732 Z M91.204,45.532 C93.004,45.532 94.012,46.828 94.012,48.832 C94.012,50.788 92.98,52.144 91.192,52.144 C89.392,52.144 88.372,50.848 88.372,48.844 C88.372,46.888 89.404,45.532 91.204,45.532 Z M91.204,46.42 C90.148,46.42 89.56,47.188 89.56,48.844 C89.56,50.488 90.136,51.256 91.192,51.256 C92.248,51.256 92.824,50.488 92.824,48.832 C92.824,47.188 92.248,46.42 91.204,46.42 Z M100.54,45.676 L99.436,45.676 L99.436,50.188 C99.052,50.824 98.536,51.28 97.852,51.28 C97.168,51.28 96.88,50.956 96.88,50.092 L96.88,45.676 L95.776,45.676 L95.776,50.212 C95.776,51.448 96.436,52.144 97.54,52.144 C98.44,52.144 99.028,51.784 99.508,51.016 L99.592,52 L100.54,52 L100.54,45.676 Z M105.568,45.532 C104.8,45.532 104.212,46.012 103.876,46.96 L103.768,45.676 L102.82,45.676 L102.82,52 L103.924,52 L103.924,48.388 C104.188,47.176 104.644,46.612 105.436,46.612 C105.664,46.612 105.796,46.636 105.988,46.684 L106.192,45.604 C106,45.556 105.772,45.532 105.568,45.532 Z M115.096,52 L114.472,49.924 L111.34,49.924 L110.716,52 L109.564,52 L112.216,43.732 L113.656,43.732 L116.296,52 L115.096,52 Z M111.616,49 L114.196,49 L112.912,44.68 L111.616,49 Z M119.812,45.532 C118.096,45.532 117.052,46.876 117.052,48.892 C117.052,50.932 118.108,52.144 119.812,52.144 C120.544,52.144 121.18,51.904 121.744,51.448 L121.24,50.728 C120.76,51.04 120.388,51.208 119.86,51.208 C118.864,51.208 118.24,50.524 118.24,48.868 C118.24,47.224 118.864,46.444 119.86,46.444 C120.388,46.444 120.784,46.6 121.216,46.912 L121.744,46.216 C121.156,45.724 120.556,45.532 119.812,45.532 Z M126.016,50.956 C125.704,51.148 125.452,51.232 125.176,51.232 C124.624,51.232 124.42,50.932 124.42,50.296 L124.42,46.528 L125.8,46.528 L125.92,45.676 L124.42,45.676 L124.42,44.116 L123.316,44.248 L123.316,45.676 L122.212,45.676 L122.212,46.528 L123.316,46.528 L123.316,50.344 C123.316,51.52 123.952,52.144 125.02,52.144 C125.56,52.144 126.016,52 126.436,51.712 L126.016,50.956 Z M128.116,42.64 C127.66,42.64 127.348,42.964 127.348,43.396 C127.348,43.816 127.66,44.14 128.116,44.14 C128.584,44.14 128.896,43.816 128.896,43.396 C128.896,42.964 128.584,42.64 128.116,42.64 Z M128.68,45.676 L127.576,45.676 L127.576,52 L128.68,52 L128.68,45.676 Z M135.604,45.676 L134.44,45.676 L132.796,51.016 L131.14,45.676 L129.94,45.676 L132.124,52 L133.456,52 L135.604,45.676 Z M137.404,42.64 C136.948,42.64 136.636,42.964 136.636,43.396 C136.636,43.816 136.948,44.14 137.404,44.14 C137.872,44.14 138.184,43.816 138.184,43.396 C138.184,42.964 137.872,42.64 137.404,42.64 Z M137.968,45.676 L136.864,45.676 L136.864,52 L137.968,52 L137.968,45.676 Z M143.02,50.956 C142.708,51.148 142.456,51.232 142.18,51.232 C141.628,51.232 141.424,50.932 141.424,50.296 L141.424,46.528 L142.804,46.528 L142.924,45.676 L141.424,45.676 L141.424,44.116 L140.32,44.248 L140.32,45.676 L139.216,45.676 L139.216,46.528 L140.32,46.528 L140.32,50.344 C140.32,51.52 140.956,52.144 142.024,52.144 C142.564,52.144 143.02,52 143.44,51.712 L143.02,50.956 Z M149.224,45.676 L148.084,45.676 L146.428,51.196 L144.736,45.676 L143.56,45.676 L145.684,52 L146.056,52 C145.696,52.984 145.336,53.476 144.052,53.692 L144.172,54.556 C145.924,54.364 146.668,53.38 147.112,52.036 L149.224,45.676 Z"/>
    <rect width="32" height="32" x="32" y="64"/>
    <rect width="32" height="32" x="236" y="64"/>
    <rect width="16" height="16" x="40" y="72" fill="#D7D7DB" rx="2"/>
    <rect width="120" height="8" x="64" y="76" fill="#D7D7DB"/>
    <rect width="236" height="1" x="32" y="63" fill="#D7D7DB" transform="matrix(1 0 0 -1 0 127)"/>
    <rect width="236" height="1" x="32" y="95" fill="#D7D7DB" transform="matrix(1 0 0 -1 0 191)"/>
    <rect width="32" height="32" x="32" y="96"/>
    <rect width="16" height="16" x="40" y="104" fill="#D7D7DB" rx="2"/>
    <rect width="80" height="8" x="64" y="108" fill="#D7D7DB"/>
    <rect width="32" height="32" x="32" y="128"/>
    <rect width="16" height="16" x="40" y="136" fill="#D7D7DB" rx="2"/>
    <rect width="100" height="8" x="64" y="140" fill="#D7D7DB"/>
    <rect width="32" height="32" x="32" y="160"/>
    <rect width="16" height="16" x="40" y="168" fill="#D7D7DB" rx="2"/>
    <rect width="64" height="8" x="64" y="172" fill="#D7D7DB"/>
    <polygon fill="#D7D7DB" points="248 86 248 74 256 80"/>
    <rect width="32" height="32" x="236" y="160"/>
    <polygon fill="#D7D7DB" points="248 182 248 170 256 176"/>
    <rect width="32" height="32" x="236" y="128"/>
    <polygon fill="#D7D7DB" points="248 150 248 138 256 144"/>
    <rect width="32" height="32" x="236" y="96"/>
    <polygon fill="#D7D7DB" points="248 118 248 106 256 112"/>
  </g>
</svg>
