<?xml version="1.0" encoding="UTF-8"?>
<svg width="300px" height="180px" viewBox="0 0 300 180" version="1.1" xmlns="http://www.w3.org/2000/svg" xmlns:xlink="http://www.w3.org/1999/xlink">
    <!-- Generator: Sketch 44.1 (41455) - http://www.bohemiancoding.com/sketch -->
    <title>Menu - Don't</title>
    <desc>Created with Sketch.</desc>
    <defs></defs>
    <g id="Refresh" stroke="none" stroke-width="1" fill="none" fill-rule="evenodd">
        <g id="Menu---Don't">
            <path d="M0.812978754,0 C0.363982986,0 0,0.367291923 0,0.82036947 L9.45189872e-15,179.179631 C9.45189872e-15,179.632708 0.363982986,180 0.812978754,180 L299.187021,180 C299.636017,180 300,179.632708 300,179.179631 L300,0.82036947 C300,0.367291923 299.636017,4.76891254e-15 299.187021,4.76891254e-15 L0.812978754,0 Z" id="Path" fill="#EAEAEE"></path>
            <path d="M14.802139,31 C14.3591299,31 14,31.3591299 14,31.802139 L14,180.552818 C14,180.995827 14.3591299,181.354957 14.802139,181.354957 L282.42863,181.354957 C282.871639,181.354957 283.230769,180.995827 283.230769,180.552818 L283.230769,31.802139 C283.230769,31.3591299 282.871639,31 282.42863,31 L275.726745,31 C275.013303,30.7584959 274.371365,30.3656083 273.80093,29.8213372 L265.784176,20.3329562 C265.259555,19.8749349 264.652452,19.9285292 264.311059,20.3360347 L256.381857,29.8007515 C255.843941,30.3631094 255.189101,30.762859 254.417337,31 L14.802139,31 Z" id="Path" fill="#FFFFFF"></path>
            <path d="M14.802139,31 C14.3591299,31 14,31.3591299 14,31.802139 L14,180.552818 C14,180.995827 14.3591299,181.354957 14.802139,181.354957 L282.42863,181.354957 C282.871639,181.354957 283.230769,180.995827 283.230769,180.552818 L283.230769,31.802139 C283.230769,31.3591299 282.871639,31 282.42863,31 L275.726745,31 C275.013303,30.7584959 274.371365,30.3656083 273.80093,29.8213372 L265.784176,20.3329562 C265.259555,19.8749349 264.652452,19.9285292 264.311059,20.3360347 L256.381857,29.8007515 C255.843941,30.3631094 255.189101,30.762859 254.417337,31 L14.802139,31 Z M254.077944,29 C254.395484,28.8704567 254.663984,28.6919566 254.897071,28.4587125 L262.777962,19.0516612 C263.828695,17.7974499 265.697222,17.6324985 266.951434,18.6832319 C267.038248,18.7559622 269.805112,22.0081793 275.252026,28.4398831 C275.516855,28.6800768 275.797151,28.864975 276.098594,29 L282.42863,29 C283.976209,29 285.230769,30.2545604 285.230769,31.802139 L285.230769,180.552818 C285.230769,182.100396 283.976209,183.354957 282.42863,183.354957 L14.802139,183.354957 C13.2545604,183.354957 12,182.100396 12,180.552818 L12,31.802139 C12,30.2545604 13.2545604,29 14.802139,29 L254.077944,29 Z" id="Panel" fill-opacity="0.8" fill="#0A84FF" fill-rule="nonzero"></path>
            <g id="Context-Menu" transform="translate(13.384615, 42.598051)">
                <path d="M248.153846,82.3487573 L248.153846,72.3487573 L256.153846,77.3487573 L248.153846,82.3487573 Z M248.153846,126.348757 L248.153846,116.348757 L256.153846,121.348757 L248.153846,126.348757 Z M248.153846,104.348757 L248.153846,94.3487573 L256.153846,99.3487573 L248.153846,104.348757 Z M248.153846,46.3487573 L248.153846,36.3487573 L256.153846,41.3487573 L248.153846,46.3487573 Z" id="Combined-Shape" fill="#99CCFF"></path>
                <path d="M0.615384615,23.4019488 L270.615385,23.4019488 L270.615385,24.4019488 L135.615385,24.4019488 L0.615384615,24.4019488 L0.615384615,23.4019488 Z M0.615384615,58.4019488 L270.615385,58.4019488 L270.615385,59.4019488 L0.615384615,59.4019488 L0.615384615,58.4019488 Z" id="Divider" fill="#0A84FF" opacity="0.2"></path>
                <path d="M43.6153846,74.4019488 L103.961538,74.4019488 L103.961538,74.4019488 C105.618393,74.4019488 106.961538,75.7450945 106.961538,77.4019488 L106.961538,77.4019488 C106.961538,79.058803 105.618393,80.4019488 103.961538,80.4019488 L43.6153846,80.4019488 C41.9585304,80.4019488 40.6153846,79.058803 40.6153846,77.4019488 C40.6153846,75.7450945 41.9585304,74.4019488 43.6153846,74.4019488 L43.6153846,74.4019488 Z M43.6153846,38.4019488 L139.538462,38.4019488 C141.195316,38.4019488 142.538462,39.7450945 142.538462,41.4019488 L142.538462,41.4019488 C142.538462,43.058803 141.195316,44.4019488 139.538462,44.4019488 L43.6153846,44.4019488 C41.9585304,44.4019488 40.6153846,43.058803 40.6153846,41.4019488 L40.6153846,41.4019488 L40.6153846,41.4019488 C40.6153846,39.7450945 41.9585304,38.4019488 43.6153846,38.4019488 L43.6153846,38.4019488 Z M43.6153846,96.4019488 L120.307692,96.4019488 C121.964547,96.4019488 123.307692,97.7450945 123.307692,99.4019488 C123.307692,101.058803 121.964547,102.401949 120.307692,102.401949 L43.6153846,102.401949 C41.9585304,102.401949 40.6153846,101.058803 40.6153846,99.4019488 C40.6153846,97.7450945 41.9585304,96.4019488 43.6153846,96.4019488 L43.6153846,96.4019488 Z M43.6153846,118.401949 L78.9615385,118.401949 L78.9615385,118.401949 C80.6183927,118.401949 81.9615385,119.745095 81.9615385,121.401949 L81.9615385,121.401949 C81.9615385,123.058803 80.6183927,124.401949 78.9615385,124.401949 L43.6153846,124.401949 C41.9585304,124.401949 40.6153846,123.058803 40.6153846,121.401949 C40.6153846,119.745095 41.9585304,118.401949 43.6153846,118.401949 L43.6153846,118.401949 Z" id="Combined-Shape" fill="#0A84FF" opacity="0.3"></path>
                <path d="M45.5953846,7.65215199 L42.4633846,7.65215199 L41.8393846,9.72815199 L40.6873846,9.72815199 L43.3393846,1.46015199 L44.7793846,1.46015199 L47.4193846,9.72815199 L46.2193846,9.72815199 L45.5953846,7.65215199 Z M45.3193846,6.72815199 L44.0353846,2.40815199 L42.7393846,6.72815199 L45.3193846,6.72815199 Z M48.9253846,9.50615199 C48.6893834,9.26215077 48.5713846,8.92015419 48.5713846,8.48015199 L48.5713846,0.860151994 L49.6753846,0.728151994 L49.6753846,8.45615199 C49.6753846,8.63215287 49.7053843,8.76015159 49.7653846,8.84015199 C49.8253849,8.92015239 49.9273839,8.96015199 50.0713846,8.96015199 C50.2233854,8.96015199 50.359384,8.93615223 50.4793846,8.88815199 L50.7673846,9.65615199 C50.5033833,9.80015271 50.2113862,9.87215199 49.8913846,9.87215199 C49.4833826,9.87215199 49.1613858,9.75015321 48.9253846,9.50615199 Z M52.4413846,9.50615199 C52.2053834,9.26215077 52.0873846,8.92015419 52.0873846,8.48015199 L52.0873846,0.860151994 L53.1913846,0.728151994 L53.1913846,8.45615199 C53.1913846,8.63215287 53.2213843,8.76015159 53.2813846,8.84015199 C53.3413849,8.92015239 53.4433839,8.96015199 53.5873846,8.96015199 C53.7393854,8.96015199 53.875384,8.93615223 53.9953846,8.88815199 L54.2833846,9.65615199 C54.0193833,9.80015271 53.7273862,9.87215199 53.4073846,9.87215199 C52.9993826,9.87215199 52.6773858,9.75015321 52.4413846,9.50615199 Z M61.3753846,9.76415199 C61.1273834,10.5001557 60.7813868,11.0821499 60.3373846,11.510152 C59.8933824,11.9381541 59.2593887,12.1961516 58.4353846,12.284152 L58.3153846,11.420152 C58.7313867,11.3481516 59.0633834,11.2441527 59.3113846,11.108152 C59.5593859,10.9721513 59.7573839,10.7981531 59.9053846,10.586152 C60.0533854,10.3741509 60.191384,10.0881538 60.3193846,9.72815199 L59.9473846,9.72815199 L57.8233846,3.40415199 L58.9993846,3.40415199 L60.6913846,8.92415199 L62.3473846,3.40415199 L63.4873846,3.40415199 L61.3753846,9.76415199 Z M69.0133846,4.14815199 C69.5053871,4.74015495 69.7513846,5.54414691 69.7513846,6.56015199 C69.7513846,7.21615527 69.6393857,7.79414949 69.4153846,8.29415199 C69.1913835,8.79415449 68.8673867,9.18215061 68.4433846,9.45815199 C68.0193825,9.73415337 67.5153875,9.87215199 66.9313846,9.87215199 C66.0433802,9.87215199 65.3513871,9.57615495 64.8553846,8.98415199 C64.3593821,8.39214903 64.1113846,7.58815707 64.1113846,6.57215199 C64.1113846,5.91614871 64.2233835,5.33815449 64.4473846,4.83815199 C64.6713857,4.33814949 64.9953825,3.95015337 65.4193846,3.67415199 C65.8433867,3.39815061 66.3513817,3.26015199 66.9433846,3.26015199 C67.8313891,3.26015199 68.5213822,3.55614903 69.0133846,4.14815199 Z M65.2993846,6.57215199 C65.2993846,8.18016003 65.8433792,8.98415199 66.9313846,8.98415199 C68.0193901,8.98415199 68.5633846,8.17616007 68.5633846,6.56015199 C68.5633846,4.95214395 68.02339,4.14815199 66.9433846,4.14815199 C65.8473791,4.14815199 65.2993846,4.95614391 65.2993846,6.57215199 Z M76.2793846,9.72815199 L75.3313846,9.72815199 L75.2473846,8.74415199 C75.0073834,9.13615395 74.7313862,9.42215109 74.4193846,9.60215199 C74.1073831,9.78215289 73.7273869,9.87215199 73.2793846,9.87215199 C72.7273819,9.87215199 72.2953862,9.70415367 71.9833846,9.36815199 C71.6713831,9.03215031 71.5153846,8.55615507 71.5153846,7.94015199 L71.5153846,3.40415199 L72.6193846,3.40415199 L72.6193846,7.82015199 C72.6193846,8.25215415 72.6953839,8.55815109 72.8473846,8.73815199 C72.9993854,8.91815289 73.2473829,9.00815199 73.5913846,9.00815199 C74.2073877,9.00815199 74.7353824,8.64415563 75.1753846,7.91615199 L75.1753846,3.40415199 L76.2793846,3.40415199 L76.2793846,9.72815199 Z M81.9313846,3.33215199 L81.7273846,4.41215199 C81.5353837,4.36415175 81.3513855,4.34015199 81.1753846,4.34015199 C80.7833827,4.34015199 80.4673858,4.48415055 80.2273846,4.77215199 C79.9873834,5.06015343 79.7993853,5.50814895 79.6633846,6.11615199 L79.6633846,9.72815199 L78.5593846,9.72815199 L78.5593846,3.40415199 L79.5073846,3.40415199 L79.6153846,4.68815199 C79.7833855,4.21614963 80.0113832,3.86015319 80.2993846,3.62015199 C80.5873861,3.38015079 80.9233827,3.26015199 81.3073846,3.26015199 C81.5313857,3.26015199 81.7393837,3.28415175 81.9313846,3.33215199 Z M90.7633846,8.82215199 C90.8513851,8.94615261 90.9833837,9.04015167 91.1593846,9.10415199 L90.9073846,9.87215199 C90.579383,9.83215179 90.3153856,9.74015271 90.1153846,9.59615199 C89.9153836,9.45215127 89.7673851,9.22815351 89.6713846,8.92415199 C89.2473825,9.55615515 88.6193888,9.87215199 87.7873846,9.87215199 C87.1633815,9.87215199 86.6713864,9.69615375 86.3113846,9.34415199 C85.9513828,8.99215023 85.7713846,8.53215483 85.7713846,7.96415199 C85.7713846,7.29214863 86.0133822,6.77615379 86.4973846,6.41615199 C86.981387,6.05615019 87.6673802,5.87615199 88.5553846,5.87615199 L89.5273846,5.87615199 L89.5273846,5.40815199 C89.5273846,4.96014975 89.4193857,4.64015295 89.2033846,4.44815199 C88.9873835,4.25615103 88.6553869,4.16015199 88.2073846,4.16015199 C87.7433823,4.16015199 87.175388,4.27215087 86.5033846,4.49615199 L86.2273846,3.69215199 C87.0113885,3.40415055 87.7393813,3.26015199 88.4113846,3.26015199 C89.1553883,3.26015199 89.7113828,3.44215017 90.0793846,3.80615199 C90.4473865,4.17015381 90.6313846,4.68814863 90.6313846,5.36015199 L90.6313846,8.25215199 C90.6313846,8.50815327 90.6753842,8.69815137 90.7633846,8.82215199 Z M89.5273846,8.06015199 L89.5273846,6.60815199 L88.6993846,6.60815199 C87.5313788,6.60815199 86.9473846,7.04014767 86.9473846,7.90415199 C86.9473846,8.28015387 87.0393837,8.56415103 87.2233846,8.75615199 C87.4073855,8.94815295 87.6793828,9.04415199 88.0393846,9.04415199 C88.6713878,9.04415199 89.1673828,8.71615527 89.5273846,8.06015199 Z M96.2353846,3.42215199 C96.5473862,3.53015253 96.8473832,3.70415079 97.1353846,3.94415199 L96.6073846,4.64015199 C96.3833835,4.48015119 96.1653857,4.36215237 95.9533846,4.28615199 C95.7413836,4.21015161 95.5073859,4.17215199 95.2513846,4.17215199 C94.7393821,4.17215199 94.341386,4.37614995 94.0573846,4.78415199 C93.7733832,5.19215403 93.6313846,5.79614799 93.6313846,6.59615199 C93.6313846,7.39615599 93.7713832,7.98615009 94.0513846,8.36615199 C94.331386,8.74615389 94.731382,8.93615199 95.2513846,8.93615199 C95.4993859,8.93615199 95.7273836,8.89815237 95.9353846,8.82215199 C96.1433857,8.74615161 96.3753833,8.62415283 96.6313846,8.45615199 L97.1353846,9.17615199 C96.5593817,9.64015431 95.9153882,9.87215199 95.2033846,9.87215199 C94.3473803,9.87215199 93.6733871,9.58415487 93.1813846,9.00815199 C92.6893822,8.43214911 92.4433846,7.63615707 92.4433846,6.62015199 C92.4433846,5.94814863 92.5553835,5.36015451 92.7793846,4.85615199 C93.0033857,4.35214947 93.3213826,3.96015339 93.7333846,3.68015199 C94.1453867,3.40015059 94.6353818,3.26015199 95.2033846,3.26015199 C95.5793865,3.26015199 95.9233831,3.31415145 96.2353846,3.42215199 Z M101.827385,9.44015199 C101.411383,9.72815343 100.939387,9.87215199 100.411385,9.87215199 C99.8753819,9.87215199 99.4573861,9.71815353 99.1573846,9.41015199 C98.8573831,9.10215045 98.7073846,8.65615491 98.7073846,8.07215199 L98.7073846,4.25615199 L97.6033846,4.25615199 L97.6033846,3.40415199 L98.7073846,3.40415199 L98.7073846,1.97615199 L99.8113846,1.84415199 L99.8113846,3.40415199 L101.311385,3.40415199 L101.191385,4.25615199 L99.8113846,4.25615199 L99.8113846,8.02415199 C99.8113846,8.35215363 99.869384,8.59015125 99.9853846,8.73815199 C100.101385,8.88615273 100.295383,8.96015199 100.567385,8.96015199 C100.831386,8.96015199 101.111383,8.86815291 101.407385,8.68415199 L101.827385,9.44015199 Z M104.071385,9.72815199 L102.967385,9.72815199 L102.967385,3.40415199 L104.071385,3.40415199 L104.071385,9.72815199 Z M104.071385,0.584151994 C104.215385,0.728152714 104.287385,0.908150914 104.287385,1.12415199 C104.287385,1.34015307 104.215385,1.51815129 104.071385,1.65815199 C103.927384,1.79815269 103.739386,1.86815199 103.507385,1.86815199 C103.283383,1.86815199 103.099385,1.79815269 102.955385,1.65815199 C102.811384,1.51815129 102.739385,1.34015307 102.739385,1.12415199 C102.739385,0.908150914 102.811384,0.728152714 102.955385,0.584151994 C103.099385,0.440151274 103.283383,0.368151994 103.507385,0.368151994 C103.739386,0.368151994 103.927384,0.440151274 104.071385,0.584151994 Z M108.847385,9.72815199 L107.515385,9.72815199 L105.331385,3.40415199 L106.531385,3.40415199 L108.187385,8.74415199 L109.831385,3.40415199 L110.995385,3.40415199 L108.847385,9.72815199 Z M113.359385,9.72815199 L112.255385,9.72815199 L112.255385,3.40415199 L113.359385,3.40415199 L113.359385,9.72815199 Z M113.359385,0.584151994 C113.503385,0.728152714 113.575385,0.908150914 113.575385,1.12415199 C113.575385,1.34015307 113.503385,1.51815129 113.359385,1.65815199 C113.215384,1.79815269 113.027386,1.86815199 112.795385,1.86815199 C112.571383,1.86815199 112.387385,1.79815269 112.243385,1.65815199 C112.099384,1.51815129 112.027385,1.34015307 112.027385,1.12415199 C112.027385,0.908150914 112.099384,0.728152714 112.243385,0.584151994 C112.387385,0.440151274 112.571383,0.368151994 112.795385,0.368151994 C113.027386,0.368151994 113.215384,0.440151274 113.359385,0.584151994 Z M118.831385,9.44015199 C118.415383,9.72815343 117.943387,9.87215199 117.415385,9.87215199 C116.879382,9.87215199 116.461386,9.71815353 116.161385,9.41015199 C115.861383,9.10215045 115.711385,8.65615491 115.711385,8.07215199 L115.711385,4.25615199 L114.607385,4.25615199 L114.607385,3.40415199 L115.711385,3.40415199 L115.711385,1.97615199 L116.815385,1.84415199 L116.815385,3.40415199 L118.315385,3.40415199 L118.195385,4.25615199 L116.815385,4.25615199 L116.815385,8.02415199 C116.815385,8.35215363 116.873384,8.59015125 116.989385,8.73815199 C117.105385,8.88615273 117.299383,8.96015199 117.571385,8.96015199 C117.835386,8.96015199 118.115383,8.86815291 118.411385,8.68415199 L118.831385,9.44015199 Z M122.503385,9.76415199 C122.255383,10.5001557 121.909387,11.0821499 121.465385,11.510152 C121.021382,11.9381541 120.387389,12.1961516 119.563385,12.284152 L119.443385,11.420152 C119.859387,11.3481516 120.191383,11.2441527 120.439385,11.108152 C120.687386,10.9721513 120.885384,10.7981531 121.033385,10.586152 C121.181385,10.3741509 121.319384,10.0881538 121.447385,9.72815199 L121.075385,9.72815199 L118.951385,3.40415199 L120.127385,3.40415199 L121.819385,8.92415199 L123.475385,3.40415199 L124.615385,3.40415199 L122.503385,9.76415199 Z" id="Label" fill="#202340"></path>
                <path d="M20.6153846,1.40194879 L20.6153846,1.40194879 C23.9290931,1.40194879 26.6153846,4.08824029 26.6153846,7.40194879 L26.6153846,7.40194879 C26.6153846,10.7156573 23.9290931,13.4019488 20.6153846,13.4019488 C17.3016761,13.4019488 14.6153846,10.7156573 14.6153846,7.40194879 L14.6153846,7.40194879 L14.6153846,7.40194879 C14.6153846,4.08824029 17.3016761,1.40194879 20.6153846,1.40194879 L20.6153846,1.40194879 Z M20.6153846,35.4019488 L20.6153846,35.4019488 C23.9290931,35.4019488 26.6153846,38.0882403 26.6153846,41.4019488 C26.6153846,44.7156573 23.9290931,47.4019488 20.6153846,47.4019488 C17.3016761,47.4019488 14.6153846,44.7156573 14.6153846,41.4019488 C14.6153846,38.0882403 17.3016761,35.4019488 20.6153846,35.4019488 L20.6153846,35.4019488 Z M20.6153846,71.4019488 L20.6153846,71.4019488 C23.9290931,71.4019488 26.6153846,74.0882403 26.6153846,77.4019488 C26.6153846,80.7156573 23.9290931,83.4019488 20.6153846,83.4019488 C17.3016761,83.4019488 14.6153846,80.7156573 14.6153846,77.4019488 C14.6153846,74.0882403 17.3016761,71.4019488 20.6153846,71.4019488 L20.6153846,71.4019488 Z M20.6153846,93.4019488 L20.6153846,93.4019488 C23.9290931,93.4019488 26.6153846,96.0882403 26.6153846,99.4019488 C26.6153846,102.715657 23.9290931,105.401949 20.6153846,105.401949 C17.3016761,105.401949 14.6153846,102.715657 14.6153846,99.4019488 C14.6153846,96.0882403 17.3016761,93.4019488 20.6153846,93.4019488 L20.6153846,93.4019488 Z M20.6153846,115.401949 L20.6153846,115.401949 C23.9290931,115.401949 26.6153846,118.08824 26.6153846,121.401949 C26.6153846,124.715657 23.9290931,127.401949 20.6153846,127.401949 C17.3016761,127.401949 14.6153846,124.715657 14.6153846,121.401949 C14.6153846,118.08824 17.3016761,115.401949 20.6153846,115.401949 L20.6153846,115.401949 Z" id="Icons" fill="#0A84FF" opacity="0.3"></path>
            </g>
        </g>
    </g>
</svg>