<?xml version="1.0" encoding="UTF-8"?>
<svg width="300px" height="180px" viewBox="0 0 300 180" version="1.1" xmlns="http://www.w3.org/2000/svg" xmlns:xlink="http://www.w3.org/1999/xlink">
    <defs></defs>
    <g id="Refresh" stroke="none" stroke-width="1" fill="none" fill-rule="evenodd">
        <g id="menu-label-do">
            <path d="M0.812978754,0 C0.363982986,0 0,0.367291923 0,0.82036947 L9.45189872e-15,179.179631 C9.45189872e-15,179.632708 0.363982986,180 0.812978754,180 L299.187021,180 C299.636017,180 300,179.632708 300,179.179631 L300,0.82036947 C300,0.367291923 299.636017,4.76891254e-15 299.187021,4.76891254e-15 L0.812978754,0 Z" id="Path" fill-opacity="0.5" fill="#D7D7DB"></path>
            <polygon id="Path" fill="#FFFFFF" points="29.8768116 31 29.8768116 193 270.123188 193 270.123188 31 257.208106 31 250.478261 23.8284271 243.748415 31"></polygon>
            <path d="M29.8768116,31 L29.8768116,193 L270.123188,193 L270.123188,31 L257.208106,31 L250.478261,23.8284271 L243.748415,31 L29.8768116,31 Z M250.478261,21 L257.985507,29 L272,29 L272,195 L28,195 L28,29 L242.971014,29 L250.478261,21 Z" id="Panel" fill-opacity="0.8" fill="#0A84FF" fill-rule="nonzero"></path>
            <g id="Content" transform="translate(29.000000, 44.000000)">
                <path d="M222.538462,80.9468085 L222.538462,70.9468085 L230.538462,75.9468085 L222.538462,80.9468085 Z M222.538462,124.946809 L222.538462,114.946809 L230.538462,119.946809 L222.538462,124.946809 Z M222.538462,102.946809 L222.538462,92.9468085 L230.538462,97.9468085 L222.538462,102.946809 Z M222.538462,44.9468085 L222.538462,34.9468085 L230.538462,39.9468085 L222.538462,44.9468085 Z" id="Combined-Shape" fill="#99CCFF"></path>
                <path d="M0,22 L242.380005,22 L242.380005,23 L121.190002,23 L0,23 L0,22 Z M0,57 L242.380005,57 L242.380005,58 L0,58 L0,57 Z" id="Divider" fill="#0A84FF" opacity="0.2"></path>
                <path d="M44,73 L104.346154,73 L104.346154,73 C106.003008,73 107.346154,74.3431458 107.346154,76 L107.346154,76 C107.346154,77.6568542 106.003008,79 104.346154,79 L44,79 C42.3431458,79 41,77.6568542 41,76 C41,74.3431458 42.3431458,73 44,73 L44,73 Z M44,37 L158,37 C159.656854,37 161,38.3431458 161,40 L161,40 C161,41.6568542 159.656854,43 158,43 L44,43 C42.3431458,43 41,41.6568542 41,40 L41,40 L41,40 C41,38.3431458 42.3431458,37 44,37 L44,37 Z M44,95 L120.692308,95 C122.349162,95 123.692308,96.3431458 123.692308,98 C123.692308,99.6568542 122.349162,101 120.692308,101 L44,101 C42.3431458,101 41,99.6568542 41,98 C41,96.3431458 42.3431458,95 44,95 L44,95 Z M44,117 L79.3461538,117 L79.3461538,117 C81.0030081,117 82.3461538,118.343146 82.3461538,120 L82.3461538,120 C82.3461538,121.656854 81.0030081,123 79.3461538,123 L44,123 C42.3431458,123 41,121.656854 41,120 C41,118.343146 42.3431458,117 44,117 L44,117 Z" id="Combined-Shape" fill="#0A84FF" opacity="0.3"></path>
                <path d="M21,0 L21,0 C24.3137085,-6.08718376e-16 27,2.6862915 27,6 L27,6 C27,9.3137085 24.3137085,12 21,12 C17.6862915,12 15,9.3137085 15,6 L15,6 L15,6 C15,2.6862915 17.6862915,6.08718376e-16 21,0 L21,0 Z M21,34 L21,34 C24.3137085,34 27,36.6862915 27,40 C27,43.3137085 24.3137085,46 21,46 C17.6862915,46 15,43.3137085 15,40 C15,36.6862915 17.6862915,34 21,34 L21,34 Z M21,70 L21,70 C24.3137085,70 27,72.6862915 27,76 C27,79.3137085 24.3137085,82 21,82 C17.6862915,82 15,79.3137085 15,76 C15,72.6862915 17.6862915,70 21,70 L21,70 Z M21,92 L21,92 C24.3137085,92 27,94.6862915 27,98 C27,101.313708 24.3137085,104 21,104 C17.6862915,104 15,101.313708 15,98 C15,94.6862915 17.6862915,92 21,92 L21,92 Z M21,114 L21,114 C24.3137085,114 27,116.686292 27,120 C27,123.313708 24.3137085,126 21,126 C17.6862915,126 15,123.313708 15,120 C15,116.686292 17.6862915,114 21,114 L21,114 Z" id="Icons" fill="#0A84FF" opacity="0.3"></path>
            </g>
            <path d="M74.98,51.2502032 L71.848,51.2502032 L71.224,53.3262032 L70.072,53.3262032 L72.724,45.0582032 L74.164,45.0582032 L76.804,53.3262032 L75.604,53.3262032 L74.98,51.2502032 Z M74.704,50.3262032 L73.42,46.0062032 L72.124,50.3262032 L74.704,50.3262032 Z M78.31,53.1042032 C78.0739988,52.860202 77.956,52.5182054 77.956,52.0782032 L77.956,44.4582032 L79.06,44.3262032 L79.06,52.0542032 C79.06,52.2302041 79.0899997,52.3582028 79.15,52.4382032 C79.2100003,52.5182036 79.3119993,52.5582032 79.456,52.5582032 C79.6080008,52.5582032 79.7439994,52.5342034 79.864,52.4862032 L80.152,53.2542032 C79.8879987,53.3982039 79.5960016,53.4702032 79.276,53.4702032 C78.867998,53.4702032 78.5460012,53.3482044 78.31,53.1042032 Z M81.826,53.1042032 C81.5899988,52.860202 81.472,52.5182054 81.472,52.0782032 L81.472,44.4582032 L82.576,44.3262032 L82.576,52.0542032 C82.576,52.2302041 82.6059997,52.3582028 82.666,52.4382032 C82.7260003,52.5182036 82.8279993,52.5582032 82.972,52.5582032 C83.1240008,52.5582032 83.2599994,52.5342034 83.38,52.4862032 L83.668,53.2542032 C83.4039987,53.3982039 83.1120016,53.4702032 82.792,53.4702032 C82.383998,53.4702032 82.0620012,53.3482044 81.826,53.1042032 Z M90.964,50.1462032 L90.964,53.3262032 L89.812,53.3262032 L89.812,50.1582032 L87.148,45.0582032 L88.408,45.0582032 L90.424,49.1502032 L92.44,45.0582032 L93.628,45.0582032 L90.964,50.1462032 Z M98.314,47.7462032 C98.8060025,48.3382062 99.052,49.1421981 99.052,50.1582032 C99.052,50.8142065 98.9400011,51.3922007 98.716,51.8922032 C98.4919989,52.3922057 98.1680021,52.7802018 97.744,53.0562032 C97.3199979,53.3322046 96.8160029,53.4702032 96.232,53.4702032 C95.3439956,53.4702032 94.6520025,53.1742062 94.156,52.5822032 C93.6599975,51.9902002 93.412,51.1862083 93.412,50.1702032 C93.412,49.5141999 93.5239989,48.9362057 93.748,48.4362032 C93.9720011,47.9362007 94.2959979,47.5482046 94.72,47.2722032 C95.1440021,46.9962018 95.651997,46.8582032 96.244,46.8582032 C97.1320044,46.8582032 97.8219975,47.1542002 98.314,47.7462032 Z M94.6,50.1702032 C94.6,51.7782112 95.1439946,52.5822032 96.232,52.5822032 C97.3200054,52.5822032 97.864,51.7742113 97.864,50.1582032 C97.864,48.5501952 97.3240054,47.7462032 96.244,47.7462032 C95.1479945,47.7462032 94.6,48.5541951 94.6,50.1702032 Z M105.58,53.3262032 L104.632,53.3262032 L104.548,52.3422032 C104.307999,52.7342052 104.032002,53.0202023 103.72,53.2002032 C103.407998,53.3802041 103.028002,53.4702032 102.58,53.4702032 C102.027997,53.4702032 101.596002,53.3022049 101.284,52.9662032 C100.971998,52.6302015 100.816,52.1542063 100.816,51.5382032 L100.816,47.0022032 L101.92,47.0022032 L101.92,51.4182032 C101.92,51.8502054 101.995999,52.1562023 102.148,52.3362032 C102.300001,52.5162041 102.547998,52.6062032 102.892,52.6062032 C103.508003,52.6062032 104.035998,52.2422068 104.476,51.5142032 L104.476,47.0022032 L105.58,47.0022032 L105.58,53.3262032 Z M111.232,46.9302032 L111.028,48.0102032 C110.835999,47.962203 110.652001,47.9382032 110.476,47.9382032 C110.083998,47.9382032 109.768001,48.0822018 109.528,48.3702032 C109.287999,48.6582046 109.100001,49.1062002 108.964,49.7142032 L108.964,53.3262032 L107.86,53.3262032 L107.86,47.0022032 L108.808,47.0022032 L108.916,48.2862032 C109.084001,47.8142008 109.311999,47.4582044 109.6,47.2182032 C109.888001,46.978202 110.223998,46.8582032 110.608,46.8582032 C110.832001,46.8582032 111.039999,46.882203 111.232,46.9302032 Z M119.512,51.2502032 L116.38,51.2502032 L115.756,53.3262032 L114.604,53.3262032 L117.256,45.0582032 L118.696,45.0582032 L121.336,53.3262032 L120.136,53.3262032 L119.512,51.2502032 Z M119.236,50.3262032 L117.952,46.0062032 L116.656,50.3262032 L119.236,50.3262032 Z M125.824,47.0202032 C126.136002,47.1282037 126.435999,47.302202 126.724,47.5422032 L126.196,48.2382032 C125.971999,48.0782024 125.754001,47.9602036 125.542,47.8842032 C125.329999,47.8082028 125.096001,47.7702032 124.84,47.7702032 C124.327997,47.7702032 123.930001,47.9742012 123.646,48.3822032 C123.361999,48.7902052 123.22,49.3941992 123.22,50.1942032 C123.22,50.9942072 123.359999,51.5842013 123.64,51.9642032 C123.920001,52.3442051 124.319997,52.5342032 124.84,52.5342032 C125.088001,52.5342032 125.315999,52.4962036 125.524,52.4202032 C125.732001,52.3442028 125.963999,52.222204 126.22,52.0542032 L126.724,52.7742032 C126.147997,53.2382055 125.504004,53.4702032 124.792,53.4702032 C123.935996,53.4702032 123.262002,53.1822061 122.77,52.6062032 C122.277998,52.0302003 122.032,51.2342083 122.032,50.2182032 C122.032,49.5461998 122.143999,48.9582057 122.368,48.4542032 C122.592001,47.9502007 122.909998,47.5582046 123.322,47.2782032 C123.734002,46.9982018 124.223997,46.8582032 124.792,46.8582032 C125.168002,46.8582032 125.511998,46.9122027 125.824,47.0202032 Z M131.416,53.0382032 C130.999998,53.3262046 130.528003,53.4702032 130,53.4702032 C129.463997,53.4702032 129.046001,53.3162047 128.746,53.0082032 C128.445999,52.7002017 128.296,52.2542061 128.296,51.6702032 L128.296,47.8542032 L127.192,47.8542032 L127.192,47.0022032 L128.296,47.0022032 L128.296,45.5742032 L129.4,45.4422032 L129.4,47.0022032 L130.9,47.0022032 L130.78,47.8542032 L129.4,47.8542032 L129.4,51.6222032 C129.4,51.9502048 129.457999,52.1882025 129.574,52.3362032 C129.690001,52.4842039 129.883999,52.5582032 130.156,52.5582032 C130.420001,52.5582032 130.699999,52.4662041 130.996,52.2822032 L131.416,53.0382032 Z M133.66,53.3262032 L132.556,53.3262032 L132.556,47.0022032 L133.66,47.0022032 L133.66,53.3262032 Z M133.66,44.1822032 C133.804001,44.3262039 133.876,44.5062021 133.876,44.7222032 C133.876,44.9382043 133.804001,45.1162025 133.66,45.2562032 C133.515999,45.3962039 133.328001,45.4662032 133.096,45.4662032 C132.871999,45.4662032 132.688001,45.3962039 132.544,45.2562032 C132.399999,45.1162025 132.328,44.9382043 132.328,44.7222032 C132.328,44.5062021 132.399999,44.3262039 132.544,44.1822032 C132.688001,44.0382025 132.871999,43.9662032 133.096,43.9662032 C133.328001,43.9662032 133.515999,44.0382025 133.66,44.1822032 Z M138.436,53.3262032 L137.104,53.3262032 L134.92,47.0022032 L136.12,47.0022032 L137.776,52.3422032 L139.42,47.0022032 L140.584,47.0022032 L138.436,53.3262032 Z M142.948,53.3262032 L141.844,53.3262032 L141.844,47.0022032 L142.948,47.0022032 L142.948,53.3262032 Z M142.948,44.1822032 C143.092001,44.3262039 143.164,44.5062021 143.164,44.7222032 C143.164,44.9382043 143.092001,45.1162025 142.948,45.2562032 C142.803999,45.3962039 142.616001,45.4662032 142.384,45.4662032 C142.159999,45.4662032 141.976001,45.3962039 141.832,45.2562032 C141.687999,45.1162025 141.616,44.9382043 141.616,44.7222032 C141.616,44.5062021 141.687999,44.3262039 141.832,44.1822032 C141.976001,44.0382025 142.159999,43.9662032 142.384,43.9662032 C142.616001,43.9662032 142.803999,44.0382025 142.948,44.1822032 Z M148.42,53.0382032 C148.003998,53.3262046 147.532003,53.4702032 147.004,53.4702032 C146.467997,53.4702032 146.050002,53.3162047 145.75,53.0082032 C145.449998,52.7002017 145.3,52.2542061 145.3,51.6702032 L145.3,47.8542032 L144.196,47.8542032 L144.196,47.0022032 L145.3,47.0022032 L145.3,45.5742032 L146.404,45.4422032 L146.404,47.0022032 L147.904,47.0022032 L147.784,47.8542032 L146.404,47.8542032 L146.404,51.6222032 C146.404,51.9502048 146.461999,52.1882025 146.578,52.3362032 C146.694001,52.4842039 146.887999,52.5582032 147.16,52.5582032 C147.424001,52.5582032 147.703999,52.4662041 148,52.2822032 L148.42,53.0382032 Z M152.092,53.3622032 C151.843999,54.0982069 151.498002,54.6802011 151.054,55.1082032 C150.609998,55.5362053 149.976004,55.7942028 149.152,55.8822032 L149.032,55.0182032 C149.448002,54.9462028 149.779999,54.8422039 150.028,54.7062032 C150.276001,54.5702025 150.473999,54.3962043 150.622,54.1842032 C150.770001,53.9722021 150.907999,53.686205 151.036,53.3262032 L150.664,53.3262032 L148.54,47.0022032 L149.716,47.0022032 L151.408,52.5222032 L153.064,47.0022032 L154.204,47.0022032 L152.092,53.3622032 Z" id="Label" fill="#202340"></path>
        </g>
    </g>
</svg>