<?xml version="1.0" encoding="UTF-8"?>
<svg width="300px" height="180px" viewBox="0 0 300 180" version="1.1" xmlns="http://www.w3.org/2000/svg" xmlns:xlink="http://www.w3.org/1999/xlink">
    <!-- Generator: Sketch 44.1 (41455) - http://www.bohemiancoding.com/sketch -->
    <title>Navigation - Don't</title>
    <desc>Created with Sketch.</desc>
    <defs>
        <rect id="path-1" x="0" y="0" width="300" height="181" rx="0.802139037"></rect>
    </defs>
    <g id="Refresh" stroke="none" stroke-width="1" fill="none" fill-rule="evenodd">
        <g id="Navigation---Don't">
            <mask id="mask-2" fill="white">
                <use xlink:href="#path-1"></use>
            </mask>
            <use id="Region" fill="#EAEAEE" xlink:href="#path-1"></use>
            <polygon id="Path" fill="#FFFFFF" mask="url(#mask-2)" points="30.4812834 -5.60619469 30.4812834 185.021465 317.019745 185.021465 317.019745 -5.60619469"></polygon>
            <path d="M30.4812834,-5.60619469 L30.4812834,185.021465 L317.019745,185.021465 L317.019745,-5.60619469 L30.4812834,-5.60619469 Z M28.4812834,-7.60619469 L319.019745,-7.60619469 L319.019745,187.021465 L28.4812834,187.021465 L28.4812834,-7.60619469 Z" id="Region" fill-opacity="0.8" fill="#0A84FF" fill-rule="nonzero" mask="url(#mask-2)"></path>
            <path d="M74.4439572,60.6386524 L71.3239572,60.6386524 L71.3239572,63.4586524 L74.0239572,63.4586524 L74.0239572,64.3586524 L71.3239572,64.3586524 L71.3239572,67.9946524 L70.1839572,67.9946524 L70.1839572,59.7266524 L74.5759572,59.7266524 L74.4439572,60.6386524 Z M77.2159572,67.9946524 L76.0759572,67.9946524 L76.0759572,59.7266524 L77.2159572,59.7266524 L77.2159572,67.9946524 Z M80.7559572,66.9986524 L84.1519572,66.9986524 L84.0199572,67.9946524 L79.6159572,67.9946524 L79.6159572,59.7266524 L80.7559572,59.7266524 L80.7559572,66.9986524 Z M89.9359572,60.6386524 L86.7319572,60.6386524 L86.7319572,63.3386524 L89.5159572,63.3386524 L89.5159572,64.2506524 L86.7319572,64.2506524 L86.7319572,67.0826524 L90.1639572,67.0826524 L90.1639572,67.9946524 L85.5919572,67.9946524 L85.5919572,59.7266524 L90.0679572,59.7266524 L89.9359572,60.6386524 Z M95.4679572,59.8166524 C95.8599592,59.9726532 96.2399554,60.2146508 96.6079572,60.5426524 L95.9839572,61.2386524 C95.6719557,60.9906512 95.3659587,60.808653 95.0659572,60.6926524 C94.7659557,60.5766518 94.4439589,60.5186524 94.0999572,60.5186524 C93.6679551,60.5186524 93.3119586,60.6186514 93.0319572,60.8186524 C92.7519558,61.0186534 92.6119572,61.3106505 92.6119572,61.6946524 C92.6119572,61.9346536 92.6599567,62.1366516 92.7559572,62.3006524 C92.8519577,62.4646532 93.0299559,62.6146517 93.2899572,62.7506524 C93.5499585,62.8866531 93.9279547,63.0306516 94.4239572,63.1826524 C94.9439598,63.3426532 95.3759555,63.5146515 95.7199572,63.6986524 C96.0639589,63.8826533 96.3419562,64.1366508 96.5539572,64.4606524 C96.7659583,64.784654 96.8719572,65.1946499 96.8719572,65.6906524 C96.8719572,66.1706548 96.7539584,66.5946506 96.5179572,66.9626524 C96.281956,67.3306542 95.9419594,67.6186514 95.4979572,67.8266524 C95.053955,68.0346534 94.5279603,68.1386524 93.9199572,68.1386524 C92.7759515,68.1386524 91.8399609,67.782656 91.1119572,67.0706524 L91.7479572,66.3626524 C92.0759589,66.6426538 92.4119555,66.8526517 92.7559572,66.9926524 C93.0999589,67.1326531 93.4839551,67.2026524 93.9079572,67.2026524 C94.4199598,67.2026524 94.8439555,67.0766537 95.1799572,66.8246524 C95.5159589,66.5726511 95.6839572,66.2066548 95.6839572,65.7266524 C95.6839572,65.454651 95.6319577,65.2286533 95.5279572,65.0486524 C95.4239567,64.8686515 95.2459585,64.7066531 94.9939572,64.5626524 C94.741956,64.4186517 94.3759596,64.2746531 93.8959572,64.1306524 C93.047953,63.8746511 92.4279592,63.5666542 92.0359572,63.2066524 C91.6439553,62.8466506 91.4479572,62.3586555 91.4479572,61.7426524 C91.4479572,61.3266503 91.5579561,60.954654 91.7779572,60.6266524 C91.9979583,60.2986508 92.3059552,60.0426533 92.7019572,59.8586524 C93.0979592,59.6746515 93.5479547,59.5826524 94.0519572,59.5826524 C94.60396,59.5826524 95.0759553,59.6606516 95.4679572,59.8166524 Z M105.301957,59.8166524 C105.633959,59.9726532 105.891956,60.190651 106.075957,60.4706524 C106.259958,60.7506538 106.351957,61.0626507 106.351957,61.4066524 C106.351957,61.8786548 106.201959,62.2846507 105.901957,62.6246524 C105.601956,62.9646541 105.18796,63.2906508 104.659957,63.6026524 L106.771957,65.5946524 C107.091959,64.9466492 107.331956,64.2706559 107.491957,63.5666524 L108.523957,63.8666524 C108.243956,64.794657 107.887959,65.5826492 107.455957,66.2306524 L108.799957,67.4906524 L108.007957,68.1386524 L106.843957,67.0106524 C106.499955,67.3866543 106.111959,67.6686515 105.679957,67.8566524 C105.247955,68.0446533 104.75196,68.1386524 104.191957,68.1386524 C103.663955,68.1386524 103.197959,68.0466533 102.793957,67.8626524 C102.389955,67.6786515 102.073958,67.4166541 101.845957,67.0766524 C101.617956,66.7366507 101.503957,66.3426546 101.503957,65.8946524 C101.503957,65.3986499 101.643956,64.9646543 101.923957,64.5926524 C102.203959,64.2206505 102.619954,63.8586542 103.171957,63.5066524 C102.771955,63.1226505 102.477958,62.7786539 102.289957,62.4746524 C102.101956,62.1706509 102.007957,61.8266543 102.007957,61.4426524 C102.007957,60.8986497 102.197955,60.4526541 102.577957,60.1046524 C102.957959,59.7566507 103.483954,59.5826524 104.155957,59.5826524 C104.587959,59.5826524 104.969956,59.6606516 105.301957,59.8166524 Z M103.375957,60.6866524 C103.183956,60.8786534 103.087957,61.1266509 103.087957,61.4306524 C103.087957,61.7186538 103.163956,61.9766513 103.315957,62.2046524 C103.467958,62.4326535 103.707956,62.7026508 104.035957,63.0146524 C104.443959,62.7666512 104.751956,62.5206536 104.959957,62.2766524 C105.167958,62.0326512 105.271957,61.7626539 105.271957,61.4666524 C105.271957,61.1306507 105.171958,60.8686533 104.971957,60.6806524 C104.771956,60.4926515 104.503959,60.3986524 104.167957,60.3986524 C103.831956,60.3986524 103.567958,60.4946514 103.375957,60.6866524 Z M102.919957,64.9166524 C102.727956,65.1926538 102.631957,65.5066506 102.631957,65.8586524 C102.631957,66.2986546 102.785956,66.6426512 103.093957,66.8906524 C103.401959,67.1386536 103.807955,67.2626524 104.311957,67.2626524 C104.687959,67.2626524 105.027956,67.1906531 105.331957,67.0466524 C105.635959,66.9026517 105.927956,66.6866538 106.207957,66.3986524 L103.807957,64.1066524 C103.407955,64.3706537 103.111958,64.640651 102.919957,64.9166524 Z M117.847957,65.9186524 L114.715957,65.9186524 L114.091957,67.9946524 L112.939957,67.9946524 L115.591957,59.7266524 L117.031957,59.7266524 L119.671957,67.9946524 L118.471957,67.9946524 L117.847957,65.9186524 Z M117.571957,64.9946524 L116.287957,60.6746524 L114.991957,64.9946524 L117.571957,64.9946524 Z M125.491957,60.3686524 C126.05196,60.7966545 126.331957,61.4346482 126.331957,62.2826524 C126.331957,63.1866569 126.03996,63.8586502 125.455957,64.2986524 C124.871954,64.7386546 124.095962,64.9586524 123.127957,64.9586524 L122.083957,64.9586524 L122.083957,67.9946524 L120.943957,67.9946524 L120.943957,59.7266524 L123.115957,59.7266524 C124.139962,59.7266524 124.931954,59.9406503 125.491957,60.3686524 Z M124.597957,63.6746524 C124.945959,63.4186511 125.119957,62.9586557 125.119957,62.2946524 C125.119957,61.7026494 124.945959,61.2746537 124.597957,61.0106524 C124.249955,60.7466511 123.75196,60.6146524 123.103957,60.6146524 L122.083957,60.6146524 L122.083957,64.0586524 L123.079957,64.0586524 C123.743961,64.0586524 124.249955,63.9306537 124.597957,63.6746524 Z M132.463957,60.3686524 C133.02396,60.7966545 133.303957,61.4346482 133.303957,62.2826524 C133.303957,63.1866569 133.01196,63.8586502 132.427957,64.2986524 C131.843954,64.7386546 131.067962,64.9586524 130.099957,64.9586524 L129.055957,64.9586524 L129.055957,67.9946524 L127.915957,67.9946524 L127.915957,59.7266524 L130.087957,59.7266524 C131.111962,59.7266524 131.903954,59.9406503 132.463957,60.3686524 Z M131.569957,63.6746524 C131.917959,63.4186511 132.091957,62.9586557 132.091957,62.2946524 C132.091957,61.7026494 131.917959,61.2746537 131.569957,61.0106524 C131.221955,60.7466511 130.72396,60.6146524 130.075957,60.6146524 L129.055957,60.6146524 L129.055957,64.0586524 L130.051957,64.0586524 C130.715961,64.0586524 131.221955,63.9306537 131.569957,63.6746524 Z M136.027957,66.9986524 L139.423957,66.9986524 L139.291957,67.9946524 L134.887957,67.9946524 L134.887957,59.7266524 L136.027957,59.7266524 L136.027957,66.9986524 Z M142.003957,67.9946524 L140.863957,67.9946524 L140.863957,59.7266524 L142.003957,59.7266524 L142.003957,67.9946524 Z M148.549957,59.7746524 C148.889959,59.902653 149.235955,60.110651 149.587957,60.3986524 L148.963957,61.1306524 C148.459955,60.7226504 147.92796,60.5186524 147.367957,60.5186524 C146.679954,60.5186524 146.125959,60.7826498 145.705957,61.3106524 C145.285955,61.838655 145.075957,62.6866466 145.075957,63.8546524 C145.075957,64.9906581 145.283955,65.8286497 145.699957,66.3686524 C146.115959,66.9086551 146.667954,67.1786524 147.355957,67.1786524 C147.707959,67.1786524 148.011956,67.118653 148.267957,66.9986524 C148.523958,66.8786518 148.803956,66.7066535 149.107957,66.4826524 L149.683957,67.2146524 C149.435956,67.4786537 149.109959,67.6986515 148.705957,67.8746524 C148.301955,68.0506533 147.83996,68.1386524 147.319957,68.1386524 C146.647954,68.1386524 146.04996,67.9726541 145.525957,67.6406524 C145.001955,67.3086507 144.593959,66.8206556 144.301957,66.1766524 C144.009956,65.5326492 143.863957,64.7586569 143.863957,63.8546524 C143.863957,62.9506479 144.015956,62.1766556 144.319957,61.5326524 C144.623959,60.8886492 145.035955,60.402654 145.555957,60.0746524 C146.07596,59.7466508 146.655954,59.5826524 147.295957,59.5826524 C147.79196,59.5826524 148.209956,59.6466518 148.549957,59.7746524 Z M154.903957,65.9186524 L151.771957,65.9186524 L151.147957,67.9946524 L149.995957,67.9946524 L152.647957,59.7266524 L154.087957,59.7266524 L156.727957,67.9946524 L155.527957,67.9946524 L154.903957,65.9186524 Z M154.627957,64.9946524 L153.343957,60.6746524 L152.047957,64.9946524 L154.627957,64.9946524 Z M162.163957,60.6986524 L159.871957,60.6986524 L159.871957,67.9946524 L158.731957,67.9946524 L158.731957,60.6986524 L156.379957,60.6986524 L156.379957,59.7266524 L162.283957,59.7266524 L162.163957,60.6986524 Z M164.743957,67.9946524 L163.603957,67.9946524 L163.603957,59.7266524 L164.743957,59.7266524 L164.743957,67.9946524 Z M171.925957,60.0806524 C172.44996,60.4126541 172.857956,60.8986492 173.149957,61.5386524 C173.441959,62.1786556 173.587957,62.9546478 173.587957,63.8666524 C173.587957,64.7626569 173.441959,65.5306492 173.149957,66.1706524 C172.857956,66.8106556 172.44996,67.2986507 171.925957,67.6346524 C171.401955,67.9706541 170.791961,68.1386524 170.095957,68.1386524 C169.399954,68.1386524 168.78996,67.974654 168.265957,67.6466524 C167.741955,67.3186508 167.333959,66.8346556 167.041957,66.1946524 C166.749956,65.5546492 166.603957,64.7826569 166.603957,63.8786524 C166.603957,62.990648 166.749956,62.2226556 167.041957,61.5746524 C167.333959,60.9266492 167.743955,60.4326541 168.271957,60.0926524 C168.79996,59.7526507 169.407954,59.5826524 170.095957,59.5826524 C170.791961,59.5826524 171.401955,59.7486507 171.925957,60.0806524 Z M168.415957,61.3346524 C168.015955,61.8786551 167.815957,62.7266466 167.815957,63.8786524 C167.815957,65.0226581 168.017955,65.8626497 168.421957,66.3986524 C168.825959,66.9346551 169.383954,67.2026524 170.095957,67.2026524 C171.615965,67.2026524 172.375957,66.0906635 172.375957,63.8666524 C172.375957,61.6346412 171.615965,60.5186524 170.095957,60.5186524 C169.375954,60.5186524 168.815959,60.7906497 168.415957,61.3346524 Z M181.243957,67.9946524 L179.719957,67.9946524 L176.359957,60.9746524 C176.407957,61.5266552 176.445957,62.0366501 176.473957,62.5046524 C176.501957,62.9726547 176.515957,63.5386491 176.515957,64.2026524 L176.515957,67.9946524 L175.447957,67.9946524 L175.447957,59.7266524 L176.935957,59.7266524 L180.331957,66.7586524 C180.307957,66.5506514 180.275957,66.186655 180.235957,65.6666524 C180.195957,65.1466498 180.175957,64.6706546 180.175957,64.2386524 L180.175957,59.7266524 L181.243957,59.7266524 L181.243957,67.9946524 Z M187.099957,59.8166524 C187.491959,59.9726532 187.871955,60.2146508 188.239957,60.5426524 L187.615957,61.2386524 C187.303956,60.9906512 186.997959,60.808653 186.697957,60.6926524 C186.397956,60.5766518 186.075959,60.5186524 185.731957,60.5186524 C185.299955,60.5186524 184.943959,60.6186514 184.663957,60.8186524 C184.383956,61.0186534 184.243957,61.3106505 184.243957,61.6946524 C184.243957,61.9346536 184.291957,62.1366516 184.387957,62.3006524 C184.483958,62.4646532 184.661956,62.6146517 184.921957,62.7506524 C185.181959,62.8866531 185.559955,63.0306516 186.055957,63.1826524 C186.57596,63.3426532 187.007955,63.5146515 187.351957,63.6986524 C187.695959,63.8826533 187.973956,64.1366508 188.185957,64.4606524 C188.397958,64.784654 188.503957,65.1946499 188.503957,65.6906524 C188.503957,66.1706548 188.385958,66.5946506 188.149957,66.9626524 C187.913956,67.3306542 187.573959,67.6186514 187.129957,67.8266524 C186.685955,68.0346534 186.15996,68.1386524 185.551957,68.1386524 C184.407951,68.1386524 183.471961,67.782656 182.743957,67.0706524 L183.379957,66.3626524 C183.707959,66.6426538 184.043955,66.8526517 184.387957,66.9926524 C184.731959,67.1326531 185.115955,67.2026524 185.539957,67.2026524 C186.05196,67.2026524 186.475956,67.0766537 186.811957,66.8246524 C187.147959,66.5726511 187.315957,66.2066548 187.315957,65.7266524 C187.315957,65.454651 187.263958,65.2286533 187.159957,65.0486524 C187.055957,64.8686515 186.877958,64.7066531 186.625957,64.5626524 C186.373956,64.4186517 186.00796,64.2746531 185.527957,64.1306524 C184.679953,63.8746511 184.059959,63.5666542 183.667957,63.2066524 C183.275955,62.8466506 183.079957,62.3586555 183.079957,61.7426524 C183.079957,61.3266503 183.189956,60.954654 183.409957,60.6266524 C183.629958,60.2986508 183.937955,60.0426533 184.333957,59.8586524 C184.729959,59.6746515 185.179955,59.5826524 185.683957,59.5826524 C186.23596,59.5826524 186.707955,59.6606516 187.099957,59.8166524 Z" id="Label" fill="#202340" mask="url(#mask-2)"></path>
            <path d="M71,87 L131.346154,87 L131.346154,87 C133.003008,87 134.346154,88.3431458 134.346154,90 L134.346154,90 C134.346154,91.6568542 133.003008,93 131.346154,93 L71,93 C69.3431458,93 68,91.6568542 68,90 C68,88.3431458 69.3431458,87 71,87 L71,87 Z M71,35 L166.923077,35 L166.923077,35 C168.579931,35 169.923077,36.3431458 169.923077,38 L169.923077,38 C169.923077,39.6568542 168.579931,41 166.923077,41 L71,41 L71,41 C69.3431458,41 68,39.6568542 68,38 L68,38 C68,36.3431458 69.3431458,35 71,35 Z M71,113 L147.692308,113 L147.692308,113 C149.349162,113 150.692308,114.343146 150.692308,116 L150.692308,116 C150.692308,117.656854 149.349162,119 147.692308,119 L71,119 C69.3431458,119 68,117.656854 68,116 C68,114.343146 69.3431458,113 71,113 Z M71,139.12766 L106.346154,139.12766 C108.003008,139.12766 109.346154,140.470805 109.346154,142.12766 L109.346154,142.12766 C109.346154,143.784514 108.003008,145.12766 106.346154,145.12766 L71,145.12766 C69.3431458,145.12766 68,143.784514 68,142.12766 C68,140.470805 69.3431458,139.12766 71,139.12766 Z" id="Combined-Shape" fill="#0A84FF" opacity="0.3" mask="url(#mask-2)"></path>
            <path d="M47.9923502,32 L47.9923502,32 C51.3018338,32 53.9847004,34.6828666 53.9847004,37.9923502 L53.9847004,38.0076498 L53.9847004,38.0076498 C53.9847004,41.3171334 51.3018338,44 47.9923502,44 L47.9923502,44 C44.6828666,44 42,41.3171334 42,38.0076498 L42,37.9923502 L42,37.9923502 C42,34.6828666 44.6828666,32 47.9923502,32 L47.9923502,32 Z M47.9923502,58 L47.9923502,58 C51.3018338,58 53.9847004,60.6828666 53.9847004,63.9923502 L53.9847004,64.0076498 L53.9847004,64.0076498 C53.9847004,67.3171334 51.3018338,70 47.9923502,70 C44.6828666,70 42,67.3171334 42,64.0076498 L42,63.9923502 L42,63.9923502 C42,60.6828666 44.6828666,58 47.9923502,58 L47.9923502,58 Z M47.9923502,84 L47.9923502,84 C51.3018338,84 53.9847004,86.6828666 53.9847004,89.9923502 L53.9847004,90.0076498 L53.9847004,90.0076498 C53.9847004,93.3171334 51.3018338,96 47.9923502,96 C44.6828666,96 42,93.3171334 42,90.0076498 L42,89.9923502 C42,86.6828666 44.6828666,84 47.9923502,84 L47.9923502,84 Z M47.9923502,110 L47.9923502,110 C51.3018338,110 53.9847004,112.682867 53.9847004,115.99235 L53.9847004,116.00765 L53.9847004,116.00765 C53.9847004,119.317133 51.3018338,122 47.9923502,122 C44.6828666,122 42,119.317133 42,116.00765 L42,115.99235 C42,112.682867 44.6828666,110 47.9923502,110 L47.9923502,110 Z M47.9923502,136 L47.9923502,136 C51.3018338,136 53.9847004,138.682867 53.9847004,141.99235 L53.9847004,142.00765 L53.9847004,142.00765 C53.9847004,145.317133 51.3018338,148 47.9923502,148 C44.6828666,148 42,145.317133 42,142.00765 L42,141.99235 C42,138.682867 44.6828666,136 47.9923502,136 L47.9923502,136 Z" id="Icons" fill="#0A84FF" opacity="0.3"></path>
        </g>
    </g>
</svg>