<svg xmlns="http://www.w3.org/2000/svg" width="300" height="200" style="background:#f9f9fa" viewBox="0 0 300 200">
  <g fill="none" fill-rule="evenodd">
    <rect width="268" height="200" x="32" fill="#FFF"/>
    <rect width="32" height="32" x="32" y="20"/>
    <rect width="16" height="16" x="40" y="28" fill="#D7D7DB" rx="2"/>
    <path fill="#0C0C0D" d="M69.592,63.732 L65.2,63.732 L65.2,72 L66.34,72 L66.34,68.364 L69.04,68.364 L69.04,67.464 L66.34,67.464 L66.34,64.644 L69.46,64.644 L69.592,63.732 Z M72.232,63.732 L71.092,63.732 L71.092,72 L72.232,72 L72.232,63.732 Z M75.772,63.732 L74.632,63.732 L74.632,72 L79.036,72 L79.168,71.004 L75.772,71.004 L75.772,63.732 Z M85.084,63.732 L80.608,63.732 L80.608,72 L85.18,72 L85.18,71.088 L81.748,71.088 L81.748,68.256 L84.532,68.256 L84.532,67.344 L81.748,67.344 L81.748,64.644 L84.952,64.644 L85.084,63.732 Z M89.068,63.588 C87.544,63.588 86.464,64.476 86.464,65.748 C86.464,67.032 87.304,67.644 88.912,68.136 C90.316,68.568 90.7,68.928 90.7,69.732 C90.7,70.728 89.896,71.208 88.924,71.208 C88.024,71.208 87.376,70.884 86.764,70.368 L86.128,71.076 C86.812,71.748 87.748,72.144 88.936,72.144 C90.796,72.144 91.888,71.136 91.888,69.696 C91.888,68.112 90.76,67.596 89.44,67.188 C87.952,66.732 87.628,66.396 87.628,65.7 C87.628,64.908 88.288,64.524 89.116,64.524 C89.8,64.524 90.376,64.74 91,65.244 L91.624,64.548 C90.928,63.924 90.208,63.588 89.068,63.588 Z M101.152,72 L100.528,69.924 L97.396,69.924 L96.772,72 L95.62,72 L98.272,63.732 L99.712,63.732 L102.352,72 L101.152,72 Z M97.672,69 L100.252,69 L98.968,64.68 L97.672,69 Z M109.42,63.732 L108.352,63.732 L108.352,68.244 C108.352,69.252 108.484,70.572 108.508,70.764 L105.112,63.732 L103.624,63.732 L103.624,72 L104.692,72 L104.692,68.208 C104.692,66.672 104.596,65.664 104.536,64.98 L107.896,72 L109.42,72 L109.42,63.732 Z M113.548,63.732 C115.66,63.732 117.688,64.392 117.688,67.824 C117.688,71.196 115.588,72 113.8,72 L111.82,72 L111.82,63.732 L113.548,63.732 Z M113.8,64.644 L112.96,64.644 L112.96,71.1 L113.884,71.1 C115.18,71.1 116.476,70.548 116.476,67.824 C116.476,65.028 115.12,64.644 113.8,64.644 Z M127.132,72 L126.508,69.924 L123.376,69.924 L122.752,72 L121.6,72 L124.252,63.732 L125.692,63.732 L128.332,72 L127.132,72 Z M123.652,69 L126.232,69 L124.948,64.68 L123.652,69 Z M131.776,63.732 C133.768,63.732 134.992,64.548 134.992,66.288 C134.992,68.184 133.612,68.964 131.788,68.964 L130.744,68.964 L130.744,72 L129.604,72 L129.604,63.732 L131.776,63.732 Z M131.74,68.064 C132.964,68.064 133.78,67.704 133.78,66.3 C133.78,65.064 132.988,64.62 131.764,64.62 L130.744,64.62 L130.744,68.064 L131.74,68.064 Z M138.748,63.732 C140.74,63.732 141.964,64.548 141.964,66.288 C141.964,68.184 140.584,68.964 138.76,68.964 L137.716,68.964 L137.716,72 L136.576,72 L136.576,63.732 L138.748,63.732 Z M138.712,68.064 C139.936,68.064 140.752,67.704 140.752,66.3 C140.752,65.064 139.96,64.62 138.736,64.62 L137.716,64.62 L137.716,68.064 L138.712,68.064 Z M144.688,63.732 L143.548,63.732 L143.548,72 L147.952,72 L148.084,71.004 L144.688,71.004 L144.688,63.732 Z M150.664,63.732 L149.524,63.732 L149.524,72 L150.664,72 L150.664,63.732 Z M155.956,63.588 C154.084,63.588 152.524,65.064 152.524,67.86 C152.524,70.644 153.976,72.144 155.98,72.144 C157.096,72.144 157.9,71.688 158.344,71.22 L157.768,70.488 C157.3,70.836 156.796,71.184 156.016,71.184 C154.732,71.184 153.736,70.248 153.736,67.86 C153.736,65.364 154.78,64.524 156.028,64.524 C156.604,64.524 157.108,64.716 157.624,65.136 L158.248,64.404 C157.588,63.876 157,63.588 155.956,63.588 Z M164.188,72 L163.564,69.924 L160.432,69.924 L159.808,72 L158.656,72 L161.308,63.732 L162.748,63.732 L165.388,72 L164.188,72 Z M160.708,69 L163.288,69 L162.004,64.68 L160.708,69 Z M171.544,63.732 L165.64,63.732 L165.64,64.704 L167.992,64.704 L167.992,72 L169.132,72 L169.132,64.704 L171.424,64.704 L171.544,63.732 Z M174.004,63.732 L172.864,63.732 L172.864,72 L174.004,72 L174.004,63.732 Z M179.356,63.588 C181.432,63.588 182.848,65.088 182.848,67.872 C182.848,70.608 181.432,72.144 179.356,72.144 C177.292,72.144 175.864,70.656 175.864,67.884 C175.864,65.16 177.292,63.588 179.356,63.588 Z M179.356,64.524 C177.976,64.524 177.076,65.496 177.076,67.884 C177.076,70.272 178.012,71.208 179.356,71.208 C180.748,71.208 181.636,70.272 181.636,67.872 C181.636,65.496 180.772,64.524 179.356,64.524 Z M190.504,63.732 L189.436,63.732 L189.436,68.244 C189.436,69.252 189.568,70.572 189.592,70.764 L186.196,63.732 L184.708,63.732 L184.708,72 L185.776,72 L185.776,68.208 C185.776,66.672 185.68,65.664 185.62,64.98 L188.98,72 L190.504,72 L190.504,63.732 Z M194.944,63.588 C193.42,63.588 192.34,64.476 192.34,65.748 C192.34,67.032 193.18,67.644 194.788,68.136 C196.192,68.568 196.576,68.928 196.576,69.732 C196.576,70.728 195.772,71.208 194.8,71.208 C193.9,71.208 193.252,70.884 192.64,70.368 L192.004,71.076 C192.688,71.748 193.624,72.144 194.812,72.144 C196.672,72.144 197.764,71.136 197.764,69.696 C197.764,68.112 196.636,67.596 195.316,67.188 C193.828,66.732 193.504,66.396 193.504,65.7 C193.504,64.908 194.164,64.524 194.992,64.524 C195.676,64.524 196.252,64.74 196.876,65.244 L197.5,64.548 C196.804,63.924 196.084,63.588 194.944,63.588 Z"/>
    <rect width="32" height="32" x="32" y="52"/>
    <rect width="16" height="16" x="40" y="60" fill="#D7D7DB" rx="2"/>
    <rect width="32" height="32" x="32" y="84"/>
    <rect width="16" height="16" x="40" y="92" fill="#D7D7DB" rx="2"/>
    <rect width="80" height="8" x="64" y="32" fill="#D7D7DB"/>
    <rect width="32" height="32" x="32" y="116"/>
    <rect width="16" height="16" x="40" y="124" fill="#D7D7DB" rx="2"/>
    <rect width="32" height="32" x="32" y="148"/>
    <rect width="16" height="16" x="40" y="156" fill="#D7D7DB" rx="2"/>
    <rect width="100" height="8" x="64" y="160" fill="#D7D7DB"/>
    <rect width="60" height="8" x="64" y="128" fill="#D7D7DB"/>
    <rect width="80" height="8" x="64" y="96" fill="#D7D7DB"/>
  </g>
</svg>
