<?xml version="1.0" encoding="UTF-8"?>
<svg width="300px" height="180px" viewBox="0 0 300 180" version="1.1" xmlns="http://www.w3.org/2000/svg" xmlns:xlink="http://www.w3.org/1999/xlink">
    <defs>
        <rect id="path-1" x="0" y="0" width="300" height="181" rx="0.802139037"></rect>
    </defs>
    <g id="Refresh" stroke="none" stroke-width="1" fill="none" fill-rule="evenodd">
        <g id="navigation-dont">
            <mask id="mask-2" fill="white">
                <use xlink:href="#path-1"></use>
            </mask>
            <use id="Region" fill-opacity="0.5" fill="#D7D7DB" xlink:href="#path-1"></use>
            <polygon id="Path" fill="#FFFFFF" mask="url(#mask-2)" points="30 -5.60619469 30 185.021465 316.538462 185.021465 316.538462 -5.60619469"></polygon>
            <path d="M30,-5.60619469 L30,185.021465 L316.538462,185.021465 L316.538462,-5.60619469 L30,-5.60619469 Z M28,-7.60619469 L318.538462,-7.60619469 L318.538462,187.021465 L28,187.021465 L28,-7.60619469 Z" id="Region" fill-opacity="0.8" fill="#0A84FF" fill-rule="nonzero" mask="url(#mask-2)"></path>
            <path d="M76.4439572,60.6386524 L73.3239572,60.6386524 L73.3239572,63.4586524 L76.0239572,63.4586524 L76.0239572,64.3586524 L73.3239572,64.3586524 L73.3239572,67.9946524 L72.1839572,67.9946524 L72.1839572,59.7266524 L76.5759572,59.7266524 L76.4439572,60.6386524 Z M79.2159572,67.9946524 L78.0759572,67.9946524 L78.0759572,59.7266524 L79.2159572,59.7266524 L79.2159572,67.9946524 Z M82.7559572,66.9986524 L86.1519572,66.9986524 L86.0199572,67.9946524 L81.6159572,67.9946524 L81.6159572,59.7266524 L82.7559572,59.7266524 L82.7559572,66.9986524 Z M91.9359572,60.6386524 L88.7319572,60.6386524 L88.7319572,63.3386524 L91.5159572,63.3386524 L91.5159572,64.2506524 L88.7319572,64.2506524 L88.7319572,67.0826524 L92.1639572,67.0826524 L92.1639572,67.9946524 L87.5919572,67.9946524 L87.5919572,59.7266524 L92.0679572,59.7266524 L91.9359572,60.6386524 Z M97.4679572,59.8166524 C97.8599592,59.9726532 98.2399554,60.2146508 98.6079572,60.5426524 L97.9839572,61.2386524 C97.6719557,60.9906512 97.3659587,60.808653 97.0659572,60.6926524 C96.7659557,60.5766518 96.4439589,60.5186524 96.0999572,60.5186524 C95.6679551,60.5186524 95.3119586,60.6186514 95.0319572,60.8186524 C94.7519558,61.0186534 94.6119572,61.3106505 94.6119572,61.6946524 C94.6119572,61.9346536 94.6599567,62.1366516 94.7559572,62.3006524 C94.8519577,62.4646532 95.0299559,62.6146517 95.2899572,62.7506524 C95.5499585,62.8866531 95.9279547,63.0306516 96.4239572,63.1826524 C96.9439598,63.3426532 97.3759555,63.5146515 97.7199572,63.6986524 C98.0639589,63.8826533 98.3419562,64.1366508 98.5539572,64.4606524 C98.7659583,64.784654 98.8719572,65.1946499 98.8719572,65.6906524 C98.8719572,66.1706548 98.7539584,66.5946506 98.5179572,66.9626524 C98.281956,67.3306542 97.9419594,67.6186514 97.4979572,67.8266524 C97.053955,68.0346534 96.5279603,68.1386524 95.9199572,68.1386524 C94.7759515,68.1386524 93.8399609,67.782656 93.1119572,67.0706524 L93.7479572,66.3626524 C94.0759589,66.6426538 94.4119555,66.8526517 94.7559572,66.9926524 C95.0999589,67.1326531 95.4839551,67.2026524 95.9079572,67.2026524 C96.4199598,67.2026524 96.8439555,67.0766537 97.1799572,66.8246524 C97.5159589,66.5726511 97.6839572,66.2066548 97.6839572,65.7266524 C97.6839572,65.454651 97.6319577,65.2286533 97.5279572,65.0486524 C97.4239567,64.8686515 97.2459585,64.7066531 96.9939572,64.5626524 C96.741956,64.4186517 96.3759596,64.2746531 95.8959572,64.1306524 C95.047953,63.8746511 94.4279592,63.5666542 94.0359572,63.2066524 C93.6439553,62.8466506 93.4479572,62.3586555 93.4479572,61.7426524 C93.4479572,61.3266503 93.5579561,60.954654 93.7779572,60.6266524 C93.9979583,60.2986508 94.3059552,60.0426533 94.7019572,59.8586524 C95.0979592,59.6746515 95.5479547,59.5826524 96.0519572,59.5826524 C96.60396,59.5826524 97.0759553,59.6606516 97.4679572,59.8166524 Z M107.301957,59.8166524 C107.633959,59.9726532 107.891956,60.190651 108.075957,60.4706524 C108.259958,60.7506538 108.351957,61.0626507 108.351957,61.4066524 C108.351957,61.8786548 108.201959,62.2846507 107.901957,62.6246524 C107.601956,62.9646541 107.18796,63.2906508 106.659957,63.6026524 L108.771957,65.5946524 C109.091959,64.9466492 109.331956,64.2706559 109.491957,63.5666524 L110.523957,63.8666524 C110.243956,64.794657 109.887959,65.5826492 109.455957,66.2306524 L110.799957,67.4906524 L110.007957,68.1386524 L108.843957,67.0106524 C108.499955,67.3866543 108.111959,67.6686515 107.679957,67.8566524 C107.247955,68.0446533 106.75196,68.1386524 106.191957,68.1386524 C105.663955,68.1386524 105.197959,68.0466533 104.793957,67.8626524 C104.389955,67.6786515 104.073958,67.4166541 103.845957,67.0766524 C103.617956,66.7366507 103.503957,66.3426546 103.503957,65.8946524 C103.503957,65.3986499 103.643956,64.9646543 103.923957,64.5926524 C104.203959,64.2206505 104.619954,63.8586542 105.171957,63.5066524 C104.771955,63.1226505 104.477958,62.7786539 104.289957,62.4746524 C104.101956,62.1706509 104.007957,61.8266543 104.007957,61.4426524 C104.007957,60.8986497 104.197955,60.4526541 104.577957,60.1046524 C104.957959,59.7566507 105.483954,59.5826524 106.155957,59.5826524 C106.587959,59.5826524 106.969956,59.6606516 107.301957,59.8166524 Z M105.375957,60.6866524 C105.183956,60.8786534 105.087957,61.1266509 105.087957,61.4306524 C105.087957,61.7186538 105.163956,61.9766513 105.315957,62.2046524 C105.467958,62.4326535 105.707956,62.7026508 106.035957,63.0146524 C106.443959,62.7666512 106.751956,62.5206536 106.959957,62.2766524 C107.167958,62.0326512 107.271957,61.7626539 107.271957,61.4666524 C107.271957,61.1306507 107.171958,60.8686533 106.971957,60.6806524 C106.771956,60.4926515 106.503959,60.3986524 106.167957,60.3986524 C105.831956,60.3986524 105.567958,60.4946514 105.375957,60.6866524 Z M104.919957,64.9166524 C104.727956,65.1926538 104.631957,65.5066506 104.631957,65.8586524 C104.631957,66.2986546 104.785956,66.6426512 105.093957,66.8906524 C105.401959,67.1386536 105.807955,67.2626524 106.311957,67.2626524 C106.687959,67.2626524 107.027956,67.1906531 107.331957,67.0466524 C107.635959,66.9026517 107.927956,66.6866538 108.207957,66.3986524 L105.807957,64.1066524 C105.407955,64.3706537 105.111958,64.640651 104.919957,64.9166524 Z M119.847957,65.9186524 L116.715957,65.9186524 L116.091957,67.9946524 L114.939957,67.9946524 L117.591957,59.7266524 L119.031957,59.7266524 L121.671957,67.9946524 L120.471957,67.9946524 L119.847957,65.9186524 Z M119.571957,64.9946524 L118.287957,60.6746524 L116.991957,64.9946524 L119.571957,64.9946524 Z M127.491957,60.3686524 C128.05196,60.7966545 128.331957,61.4346482 128.331957,62.2826524 C128.331957,63.1866569 128.03996,63.8586502 127.455957,64.2986524 C126.871954,64.7386546 126.095962,64.9586524 125.127957,64.9586524 L124.083957,64.9586524 L124.083957,67.9946524 L122.943957,67.9946524 L122.943957,59.7266524 L125.115957,59.7266524 C126.139962,59.7266524 126.931954,59.9406503 127.491957,60.3686524 Z M126.597957,63.6746524 C126.945959,63.4186511 127.119957,62.9586557 127.119957,62.2946524 C127.119957,61.7026494 126.945959,61.2746537 126.597957,61.0106524 C126.249955,60.7466511 125.75196,60.6146524 125.103957,60.6146524 L124.083957,60.6146524 L124.083957,64.0586524 L125.079957,64.0586524 C125.743961,64.0586524 126.249955,63.9306537 126.597957,63.6746524 Z M134.463957,60.3686524 C135.02396,60.7966545 135.303957,61.4346482 135.303957,62.2826524 C135.303957,63.1866569 135.01196,63.8586502 134.427957,64.2986524 C133.843954,64.7386546 133.067962,64.9586524 132.099957,64.9586524 L131.055957,64.9586524 L131.055957,67.9946524 L129.915957,67.9946524 L129.915957,59.7266524 L132.087957,59.7266524 C133.111962,59.7266524 133.903954,59.9406503 134.463957,60.3686524 Z M133.569957,63.6746524 C133.917959,63.4186511 134.091957,62.9586557 134.091957,62.2946524 C134.091957,61.7026494 133.917959,61.2746537 133.569957,61.0106524 C133.221955,60.7466511 132.72396,60.6146524 132.075957,60.6146524 L131.055957,60.6146524 L131.055957,64.0586524 L132.051957,64.0586524 C132.715961,64.0586524 133.221955,63.9306537 133.569957,63.6746524 Z M138.027957,66.9986524 L141.423957,66.9986524 L141.291957,67.9946524 L136.887957,67.9946524 L136.887957,59.7266524 L138.027957,59.7266524 L138.027957,66.9986524 Z M144.003957,67.9946524 L142.863957,67.9946524 L142.863957,59.7266524 L144.003957,59.7266524 L144.003957,67.9946524 Z M150.549957,59.7746524 C150.889959,59.902653 151.235955,60.110651 151.587957,60.3986524 L150.963957,61.1306524 C150.459955,60.7226504 149.92796,60.5186524 149.367957,60.5186524 C148.679954,60.5186524 148.125959,60.7826498 147.705957,61.3106524 C147.285955,61.838655 147.075957,62.6866466 147.075957,63.8546524 C147.075957,64.9906581 147.283955,65.8286497 147.699957,66.3686524 C148.115959,66.9086551 148.667954,67.1786524 149.355957,67.1786524 C149.707959,67.1786524 150.011956,67.118653 150.267957,66.9986524 C150.523958,66.8786518 150.803956,66.7066535 151.107957,66.4826524 L151.683957,67.2146524 C151.435956,67.4786537 151.109959,67.6986515 150.705957,67.8746524 C150.301955,68.0506533 149.83996,68.1386524 149.319957,68.1386524 C148.647954,68.1386524 148.04996,67.9726541 147.525957,67.6406524 C147.001955,67.3086507 146.593959,66.8206556 146.301957,66.1766524 C146.009956,65.5326492 145.863957,64.7586569 145.863957,63.8546524 C145.863957,62.9506479 146.015956,62.1766556 146.319957,61.5326524 C146.623959,60.8886492 147.035955,60.402654 147.555957,60.0746524 C148.07596,59.7466508 148.655954,59.5826524 149.295957,59.5826524 C149.79196,59.5826524 150.209956,59.6466518 150.549957,59.7746524 Z M156.903957,65.9186524 L153.771957,65.9186524 L153.147957,67.9946524 L151.995957,67.9946524 L154.647957,59.7266524 L156.087957,59.7266524 L158.727957,67.9946524 L157.527957,67.9946524 L156.903957,65.9186524 Z M156.627957,64.9946524 L155.343957,60.6746524 L154.047957,64.9946524 L156.627957,64.9946524 Z M164.163957,60.6986524 L161.871957,60.6986524 L161.871957,67.9946524 L160.731957,67.9946524 L160.731957,60.6986524 L158.379957,60.6986524 L158.379957,59.7266524 L164.283957,59.7266524 L164.163957,60.6986524 Z M166.743957,67.9946524 L165.603957,67.9946524 L165.603957,59.7266524 L166.743957,59.7266524 L166.743957,67.9946524 Z M173.925957,60.0806524 C174.44996,60.4126541 174.857956,60.8986492 175.149957,61.5386524 C175.441959,62.1786556 175.587957,62.9546478 175.587957,63.8666524 C175.587957,64.7626569 175.441959,65.5306492 175.149957,66.1706524 C174.857956,66.8106556 174.44996,67.2986507 173.925957,67.6346524 C173.401955,67.9706541 172.791961,68.1386524 172.095957,68.1386524 C171.399954,68.1386524 170.78996,67.974654 170.265957,67.6466524 C169.741955,67.3186508 169.333959,66.8346556 169.041957,66.1946524 C168.749956,65.5546492 168.603957,64.7826569 168.603957,63.8786524 C168.603957,62.990648 168.749956,62.2226556 169.041957,61.5746524 C169.333959,60.9266492 169.743955,60.4326541 170.271957,60.0926524 C170.79996,59.7526507 171.407954,59.5826524 172.095957,59.5826524 C172.791961,59.5826524 173.401955,59.7486507 173.925957,60.0806524 Z M170.415957,61.3346524 C170.015955,61.8786551 169.815957,62.7266466 169.815957,63.8786524 C169.815957,65.0226581 170.017955,65.8626497 170.421957,66.3986524 C170.825959,66.9346551 171.383954,67.2026524 172.095957,67.2026524 C173.615965,67.2026524 174.375957,66.0906635 174.375957,63.8666524 C174.375957,61.6346412 173.615965,60.5186524 172.095957,60.5186524 C171.375954,60.5186524 170.815959,60.7906497 170.415957,61.3346524 Z M183.243957,67.9946524 L181.719957,67.9946524 L178.359957,60.9746524 C178.407957,61.5266552 178.445957,62.0366501 178.473957,62.5046524 C178.501957,62.9726547 178.515957,63.5386491 178.515957,64.2026524 L178.515957,67.9946524 L177.447957,67.9946524 L177.447957,59.7266524 L178.935957,59.7266524 L182.331957,66.7586524 C182.307957,66.5506514 182.275957,66.186655 182.235957,65.6666524 C182.195957,65.1466498 182.175957,64.6706546 182.175957,64.2386524 L182.175957,59.7266524 L183.243957,59.7266524 L183.243957,67.9946524 Z M189.099957,59.8166524 C189.491959,59.9726532 189.871955,60.2146508 190.239957,60.5426524 L189.615957,61.2386524 C189.303956,60.9906512 188.997959,60.808653 188.697957,60.6926524 C188.397956,60.5766518 188.075959,60.5186524 187.731957,60.5186524 C187.299955,60.5186524 186.943959,60.6186514 186.663957,60.8186524 C186.383956,61.0186534 186.243957,61.3106505 186.243957,61.6946524 C186.243957,61.9346536 186.291957,62.1366516 186.387957,62.3006524 C186.483958,62.4646532 186.661956,62.6146517 186.921957,62.7506524 C187.181959,62.8866531 187.559955,63.0306516 188.055957,63.1826524 C188.57596,63.3426532 189.007955,63.5146515 189.351957,63.6986524 C189.695959,63.8826533 189.973956,64.1366508 190.185957,64.4606524 C190.397958,64.784654 190.503957,65.1946499 190.503957,65.6906524 C190.503957,66.1706548 190.385958,66.5946506 190.149957,66.9626524 C189.913956,67.3306542 189.573959,67.6186514 189.129957,67.8266524 C188.685955,68.0346534 188.15996,68.1386524 187.551957,68.1386524 C186.407951,68.1386524 185.471961,67.782656 184.743957,67.0706524 L185.379957,66.3626524 C185.707959,66.6426538 186.043955,66.8526517 186.387957,66.9926524 C186.731959,67.1326531 187.115955,67.2026524 187.539957,67.2026524 C188.05196,67.2026524 188.475956,67.0766537 188.811957,66.8246524 C189.147959,66.5726511 189.315957,66.2066548 189.315957,65.7266524 C189.315957,65.454651 189.263958,65.2286533 189.159957,65.0486524 C189.055957,64.8686515 188.877958,64.7066531 188.625957,64.5626524 C188.373956,64.4186517 188.00796,64.2746531 187.527957,64.1306524 C186.679953,63.8746511 186.059959,63.5666542 185.667957,63.2066524 C185.275955,62.8466506 185.079957,62.3586555 185.079957,61.7426524 C185.079957,61.3266503 185.189956,60.954654 185.409957,60.6266524 C185.629958,60.2986508 185.937955,60.0426533 186.333957,59.8586524 C186.729959,59.6746515 187.179955,59.5826524 187.683957,59.5826524 C188.23596,59.5826524 188.707955,59.6606516 189.099957,59.8166524 Z" id="Label" fill="#202340" mask="url(#mask-2)"></path>
            <path d="M73,87 L133.346154,87 L133.346154,87 C135.003008,87 136.346154,88.3431458 136.346154,90 L136.346154,90 C136.346154,91.6568542 135.003008,93 133.346154,93 L73,93 C71.3431458,93 70,91.6568542 70,90 C70,88.3431458 71.3431458,87 73,87 L73,87 Z M73,35 L168.923077,35 L168.923077,35 C170.579931,35 171.923077,36.3431458 171.923077,38 L171.923077,38 L171.923077,38 C171.923077,39.6568542 170.579931,41 168.923077,41 L73,41 L73,41 C71.3431458,41 70,39.6568542 70,38 L70,38 L70,38 C70,36.3431458 71.3431458,35 73,35 L73,35 Z M73,113 L149.692308,113 L149.692308,113 C151.349162,113 152.692308,114.343146 152.692308,116 L152.692308,116 C152.692308,117.656854 151.349162,119 149.692308,119 L73,119 C71.3431458,119 70,117.656854 70,116 C70,114.343146 71.3431458,113 73,113 L73,113 Z M73,139.12766 L108.346154,139.12766 C110.003008,139.12766 111.346154,140.470805 111.346154,142.12766 C111.346154,143.784514 110.003008,145.12766 108.346154,145.12766 L73,145.12766 C71.3431458,145.12766 70,143.784514 70,142.12766 C70,140.470805 71.3431458,139.12766 73,139.12766 Z" id="Combined-Shape" fill="#0A84FF" opacity="0.3" mask="url(#mask-2)"></path>
            <path d="M49.9923502,32 L49.9923502,32 C53.3018338,32 55.9847004,34.6828666 55.9847004,37.9923502 L55.9847004,38.0076498 L55.9847004,38.0076498 C55.9847004,41.3171334 53.3018338,44 49.9923502,44 C46.6828666,44 44,41.3171334 44,38.0076498 L44,37.9923502 C44,34.6828666 46.6828666,32 49.9923502,32 L49.9923502,32 Z M49.9923502,58 L49.9923502,58 C53.3018338,58 55.9847004,60.6828666 55.9847004,63.9923502 L55.9847004,64.0076498 L55.9847004,64.0076498 C55.9847004,67.3171334 53.3018338,70 49.9923502,70 C46.6828666,70 44,67.3171334 44,64.0076498 L44,63.9923502 L44,63.9923502 C44,60.6828666 46.6828666,58 49.9923502,58 L49.9923502,58 Z M49.9923502,84 L49.9923502,84 C53.3018338,84 55.9847004,86.6828666 55.9847004,89.9923502 L55.9847004,90.0076498 L55.9847004,90.0076498 C55.9847004,93.3171334 53.3018338,96 49.9923502,96 C46.6828666,96 44,93.3171334 44,90.0076498 L44,89.9923502 L44,89.9923502 C44,86.6828666 46.6828666,84 49.9923502,84 L49.9923502,84 Z M49.9923502,110 L49.9923502,110 C53.3018338,110 55.9847004,112.682867 55.9847004,115.99235 L55.9847004,116.00765 L55.9847004,116.00765 C55.9847004,119.317133 53.3018338,122 49.9923502,122 C46.6828666,122 44,119.317133 44,116.00765 L44,115.99235 L44,115.99235 C44,112.682867 46.6828666,110 49.9923502,110 L49.9923502,110 Z M49.9923502,136 L49.9923502,136 C53.3018338,136 55.9847004,138.682867 55.9847004,141.99235 L55.9847004,142.00765 L55.9847004,142.00765 C55.9847004,145.317133 53.3018338,148 49.9923502,148 C46.6828666,148 44,145.317133 44,142.00765 L44,141.99235 L44,141.99235 C44,138.682867 46.6828666,136 49.9923502,136 L49.9923502,136 Z" id="Icons" fill="#0A84FF" opacity="0.3"></path>
        </g>
    </g>
</svg>