<svg xmlns="http://www.w3.org/2000/svg" width="300" height="200" style="background:#f9f9fa" viewBox="0 0 300 200">
  <g fill="none" fill-rule="evenodd">
    <rect width="268" height="48" x="32" y="32" fill="#202340"/>
    <polygon fill="#FFF" points="64 79.785 64 48 208 48 208 80 300 80 300 200 32 200 32 80"/>
    <rect width="64" height="8" x="248" y="60" fill="#D7D7DB"/>
    <path fill="#0C0C0D" d="M120.276,59.732 L119.208,59.732 L119.208,64.244 C119.208,65.252 119.34,66.572 119.364,66.764 L115.968,59.732 L114.48,59.732 L114.48,68 L115.548,68 L115.548,64.208 C115.548,62.672 115.452,61.664 115.392,60.98 L118.752,68 L120.276,68 L120.276,59.732 Z M127.392,64.652 C127.392,64.868 127.38,65.072 127.368,65.216 L123.336,65.216 C123.444,66.68 124.128,67.244 125.04,67.244 C125.664,67.244 126.132,67.076 126.684,66.692 L127.164,67.352 C126.54,67.844 125.832,68.144 124.956,68.144 C123.192,68.144 122.16,66.908 122.16,64.904 C122.16,62.936 123.156,61.532 124.788,61.532 C126.492,61.532 127.392,62.72 127.392,64.652 Z M126.3,64.4 L126.3,64.328 C126.3,63.092 125.808,62.408 124.812,62.408 C123.972,62.408 123.42,62.996 123.336,64.4 L126.3,64.4 Z M136.44,61.676 L135.384,61.676 L134.232,67.232 L133.044,61.676 L131.808,61.676 L130.56,67.232 L129.42,61.676 L128.316,61.676 L129.792,68 L131.256,68 L132.396,62.672 L133.5,68 L135,68 L136.44,61.676 Z M145.944,59.732 L140.04,59.732 L140.04,60.704 L142.392,60.704 L142.392,68 L143.532,68 L143.532,60.704 L145.824,60.704 L145.944,59.732 Z M151.464,66.524 C151.464,67.076 151.668,67.256 151.992,67.376 L151.74,68.144 C151.104,68.072 150.696,67.82 150.504,67.196 C150.06,67.856 149.388,68.144 148.62,68.144 C147.36,68.144 146.604,67.364 146.604,66.236 C146.604,64.88 147.624,64.148 149.388,64.148 L150.36,64.148 L150.36,63.68 C150.36,62.768 149.916,62.432 149.04,62.432 C148.572,62.432 147.984,62.552 147.336,62.768 L147.06,61.964 C147.84,61.676 148.536,61.532 149.244,61.532 C150.768,61.532 151.464,62.312 151.464,63.632 L151.464,66.524 Z M148.872,67.316 C149.52,67.316 150,66.992 150.36,66.332 L150.36,64.88 L149.532,64.88 C148.368,64.88 147.78,65.312 147.78,66.176 C147.78,66.92 148.152,67.316 148.872,67.316 Z M156.624,61.532 C158.052,61.532 158.976,62.72 158.976,64.832 C158.976,66.812 158.028,68.144 156.492,68.144 C155.796,68.144 155.244,67.832 154.812,67.304 L154.704,68 L153.732,68 L153.732,59.132 L154.836,59 L154.836,62.468 C155.268,61.88 155.856,61.532 156.624,61.532 Z M156.228,67.268 C157.152,67.268 157.788,66.56 157.788,64.832 C157.788,63.032 157.2,62.408 156.312,62.408 C155.616,62.408 155.16,62.888 154.836,63.392 L154.836,66.416 C155.16,66.92 155.664,67.268 156.228,67.268 Z"/>
  </g>
</svg>
