<svg xmlns="http://www.w3.org/2000/svg" xmlns:xlink="http://www.w3.org/1999/xlink" width="300" height="200" viewBox="0 0 300 200">
  <defs>
    <rect id="page-titles-do-a" width="300" height="232"/>
  </defs>
  <g fill="none" fill-rule="evenodd">
    <g opacity=".05">
      <mask id="page-titles-do-b" fill="#fff">
        <use xlink:href="#page-titles-do-a"/>
      </mask>
      <g fill="#000F40" mask="url(#page-titles-do-b)">
        <rect width="354" height="354" transform="translate(-27 -61)"/>
      </g>
    </g>
    <path fill="#0784FF" d="M34,30 L300,30 L300,200 L30,200 L30,34 L30,34 C30,31.790861 31.790861,30 34,30 Z"/>
    <path fill="#FFF" d="M32,34.0061411 C32,32.89818 32.8921306,32 34.0031133,32 L300,32 L300,78 L32,78 L32,34.0061411 Z"/>
    <path fill="#0784FF" fill-opacity=".2" d="M32,34.0061411 C32,32.89818 32.8921306,32 34.0031133,32 L300,32 L300,78 L32,78 L32,34.0061411 Z"/>
    <rect width="268" height="2" x="32" y="78" fill="#0784FF"/>
    <path fill="#FFF" d="M64,79.7848621 L64,50.0003263 C64,48.8955766 64.9008006,48 66.0081404,48 L205.99186,48 C207.100925,48 208,48.8892617 208,50.0017433 L208,80 L300,80 L300,200 L32,200 L32,80 L64,79.7848621 Z"/>
    <path fill="#000F40" d="M121.212,59.732 L120.144,59.732 L120.144,64.244 C120.144,65.252 120.276,66.572 120.3,66.764 L116.904,59.732 L115.416,59.732 L115.416,68 L116.484,68 L116.484,64.208 C116.484,62.672 116.388,61.664 116.328,60.98 L119.688,68 L121.212,68 L121.212,59.732 Z M128.328,64.652 C128.328,64.868 128.316,65.072 128.304,65.216 L124.272,65.216 C124.38,66.68 125.064,67.244 125.976,67.244 C126.6,67.244 127.068,67.076 127.62,66.692 L128.1,67.352 C127.476,67.844 126.768,68.144 125.892,68.144 C124.128,68.144 123.096,66.908 123.096,64.904 C123.096,62.936 124.092,61.532 125.724,61.532 C127.428,61.532 128.328,62.72 128.328,64.652 Z M127.236,64.4 L127.236,64.328 C127.236,63.092 126.744,62.408 125.748,62.408 C124.908,62.408 124.356,62.996 124.272,64.4 L127.236,64.4 Z M137.376,61.676 L136.32,61.676 L135.168,67.232 L133.98,61.676 L132.744,61.676 L131.496,67.232 L130.356,61.676 L129.252,61.676 L130.728,68 L132.192,68 L133.332,62.672 L134.436,68 L135.936,68 L137.376,61.676 Z M144.708,66.956 C144.396,67.148 144.144,67.232 143.868,67.232 C143.316,67.232 143.112,66.932 143.112,66.296 L143.112,62.528 L144.492,62.528 L144.612,61.676 L143.112,61.676 L143.112,60.116 L142.008,60.248 L142.008,61.676 L140.904,61.676 L140.904,62.528 L142.008,62.528 L142.008,66.344 C142.008,67.52 142.644,68.144 143.712,68.144 C144.252,68.144 144.708,68 145.128,67.712 L144.708,66.956 Z M150.528,66.524 C150.528,67.076 150.732,67.256 151.056,67.376 L150.804,68.144 C150.168,68.072 149.76,67.82 149.568,67.196 C149.124,67.856 148.452,68.144 147.684,68.144 C146.424,68.144 145.668,67.364 145.668,66.236 C145.668,64.88 146.688,64.148 148.452,64.148 L149.424,64.148 L149.424,63.68 C149.424,62.768 148.98,62.432 148.104,62.432 C147.636,62.432 147.048,62.552 146.4,62.768 L146.124,61.964 C146.904,61.676 147.6,61.532 148.308,61.532 C149.832,61.532 150.528,62.312 150.528,63.632 L150.528,66.524 Z M147.936,67.316 C148.584,67.316 149.064,66.992 149.424,66.332 L149.424,64.88 L148.596,64.88 C147.432,64.88 146.844,65.312 146.844,66.176 C146.844,66.92 147.216,67.316 147.936,67.316 Z M155.688,61.532 C157.116,61.532 158.04,62.72 158.04,64.832 C158.04,66.812 157.092,68.144 155.556,68.144 C154.86,68.144 154.308,67.832 153.876,67.304 L153.768,68 L152.796,68 L152.796,59.132 L153.9,59 L153.9,62.468 C154.332,61.88 154.92,61.532 155.688,61.532 Z M155.292,67.268 C156.216,67.268 156.852,66.56 156.852,64.832 C156.852,63.032 156.264,62.408 155.376,62.408 C154.68,62.408 154.224,62.888 153.9,63.392 L153.9,66.416 C154.224,66.92 154.728,67.268 155.292,67.268 Z"/>
    <rect width="64" height="8" x="248" y="60" fill="#FFF" rx="4"/>
  </g>
</svg>
