<svg xmlns="http://www.w3.org/2000/svg" width="300" height="200" style="background:#f9f9fa" viewBox="0 0 300 200">
  <g fill="none" fill-rule="evenodd">
    <rect width="268" height="48" x="32" y="32" fill="#202340"/>
    <polygon fill="#FFF" points="64 79.785 64 48 208 48 208 80 300 80 300 200 32 200 32 80"/>
    <rect width="64" height="8" x="248" y="60" fill="#D7D7DB"/>
    <path fill="#0C0C0D" d="M118.414,61.532 C117.586,61.532 116.914,61.964 116.482,62.612 L116.386,61.676 L115.438,61.676 L115.438,68 L116.542,68 L116.542,63.512 C116.962,62.84 117.442,62.396 118.15,62.396 C118.762,62.396 119.146,62.672 119.146,63.62 L119.146,68 L120.25,68 L120.25,63.464 C120.25,62.264 119.578,61.532 118.414,61.532 Z M127.246,64.652 C127.246,64.868 127.234,65.072 127.222,65.216 L123.19,65.216 C123.298,66.68 123.982,67.244 124.894,67.244 C125.518,67.244 125.986,67.076 126.538,66.692 L127.018,67.352 C126.394,67.844 125.686,68.144 124.81,68.144 C123.046,68.144 122.014,66.908 122.014,64.904 C122.014,62.936 123.01,61.532 124.642,61.532 C126.346,61.532 127.246,62.72 127.246,64.652 Z M126.154,64.4 L126.154,64.328 C126.154,63.092 125.662,62.408 124.666,62.408 C123.826,62.408 123.274,62.996 123.19,64.4 L126.154,64.4 Z M136.294,61.676 L135.238,61.676 L134.086,67.232 L132.898,61.676 L131.662,61.676 L130.414,67.232 L129.274,61.676 L128.17,61.676 L129.646,68 L131.11,68 L132.25,62.672 L133.354,68 L134.854,68 L136.294,61.676 Z M143.626,66.956 C143.314,67.148 143.062,67.232 142.786,67.232 C142.234,67.232 142.03,66.932 142.03,66.296 L142.03,62.528 L143.41,62.528 L143.53,61.676 L142.03,61.676 L142.03,60.116 L140.926,60.248 L140.926,61.676 L139.822,61.676 L139.822,62.528 L140.926,62.528 L140.926,66.344 C140.926,67.52 141.562,68.144 142.63,68.144 C143.17,68.144 143.626,68 144.046,67.712 L143.626,66.956 Z M149.446,66.524 C149.446,67.076 149.65,67.256 149.974,67.376 L149.722,68.144 C149.086,68.072 148.678,67.82 148.486,67.196 C148.042,67.856 147.37,68.144 146.602,68.144 C145.342,68.144 144.586,67.364 144.586,66.236 C144.586,64.88 145.606,64.148 147.37,64.148 L148.342,64.148 L148.342,63.68 C148.342,62.768 147.898,62.432 147.022,62.432 C146.554,62.432 145.966,62.552 145.318,62.768 L145.042,61.964 C145.822,61.676 146.518,61.532 147.226,61.532 C148.75,61.532 149.446,62.312 149.446,63.632 L149.446,66.524 Z M146.854,67.316 C147.502,67.316 147.982,66.992 148.342,66.332 L148.342,64.88 L147.514,64.88 C146.35,64.88 145.762,65.312 145.762,66.176 C145.762,66.92 146.134,67.316 146.854,67.316 Z M154.606,61.532 C156.034,61.532 156.958,62.72 156.958,64.832 C156.958,66.812 156.01,68.144 154.474,68.144 C153.778,68.144 153.226,67.832 152.794,67.304 L152.686,68 L151.714,68 L151.714,59.132 L152.818,59 L152.818,62.468 C153.25,61.88 153.838,61.532 154.606,61.532 Z M154.21,67.268 C155.134,67.268 155.77,66.56 155.77,64.832 C155.77,63.032 155.182,62.408 154.294,62.408 C153.598,62.408 153.142,62.888 152.818,63.392 L152.818,66.416 C153.142,66.92 153.646,67.268 154.21,67.268 Z"/>
  </g>
</svg>
