<svg xmlns:xlink="http://www.w3.org/1999/xlink" width="300" height="180" viewBox="0 0 300 180">
  <defs>
    <rect id="page-titles-dont-a" width="300" height="181" rx=".802"/>
    <path id="page-titles-dont-c" d="M27.7697498,40.9601273 L-3,40.9601273 L-3,185.389381 L301.812834,185.389381 L301.812834,40.9601273 L233.542452,40.9601273 L233.542452,14 L27.7697498,14 L27.7697498,40.9601273 Z"/>
    <rect id="page-titles-dont-d" width="229.412" height="29.633"/>
  </defs>
  <g fill="none" fill-rule="evenodd">
    <mask id="page-titles-dont-b" fill="#fff">
      <use xlink:href="#page-titles-dont-a"/>
    </mask>
    <use fill="#EAEAEE" xlink:href="#page-titles-dont-a"/>
    <g mask="url(#page-titles-dont-b)">
      <use fill="#FFF" xlink:href="#page-titles-dont-c"/>
      <path stroke="#0A84FF" stroke-opacity=".8" stroke-width="2" d="M26.7697498,39.9601273 L26.7697498,13 L234.542452,13 L234.542452,39.9601273 L302.812834,39.9601273 L302.812834,186.389381 L-4,186.389381 L-4,39.9601273 L26.7697498,39.9601273 Z"/>
    </g>
    <g mask="url(#page-titles-dont-b)">
      <g transform="translate(13.636 10.412)">
        <mask id="page-titles-dont-e" fill="#fff">
          <use xlink:href="#page-titles-dont-d"/>
        </mask>
        <path fill="#202340" d="M97.9458182,16.9626988 C98.2698198,17.3067005 98.4318182,17.7786958 98.4318182,18.3786988 L98.4318182,22.9146988 L97.3278182,22.9146988 L97.3278182,18.5346988 C97.3278182,18.0866965 97.243819,17.7706997 97.0758182,17.5866988 C96.9078173,17.4026979 96.6598198,17.3106988 96.3318182,17.3106988 C95.9958165,17.3106988 95.6998195,17.4066978 95.4438182,17.5986988 C95.1878169,17.7906997 94.9478193,18.066697 94.7238182,18.4266988 L94.7238182,22.9146988 L93.6198182,22.9146988 L93.6198182,16.5906988 L94.5678182,16.5906988 L94.6638182,17.5266988 C94.8878193,17.1906971 95.1658165,16.9266997 95.4978182,16.7346988 C95.8298198,16.5426978 96.1958162,16.4466988 96.5958182,16.4466988 C97.1718211,16.4466988 97.6218166,16.6186971 97.9458182,16.9626988 Z M105.403818,20.1306988 L101.371818,20.1306988 C101.419818,20.8267023 101.595817,21.3386971 101.899818,21.6666988 C102.20382,21.9947004 102.595816,22.1586988 103.075818,22.1586988 C103.37982,22.1586988 103.659817,22.1146992 103.915818,22.0266988 C104.171819,21.9386983 104.439817,21.7986997 104.719818,21.6066988 L105.199818,22.2666988 C104.527815,22.7947014 103.791822,23.0586988 102.991818,23.0586988 C102.111814,23.0586988 101.425821,22.7707017 100.933818,22.1946988 C100.441816,21.6186959 100.195818,20.8267038 100.195818,19.8186988 C100.195818,19.1626955 100.301817,18.5807013 100.513818,18.0726988 C100.725819,17.5646962 101.029816,17.1667002 101.425818,16.8786988 C101.82182,16.5906973 102.287816,16.4466988 102.823818,16.4466988 C103.663822,16.4466988 104.307816,16.722696 104.755818,17.2746988 C105.20382,17.8267015 105.427818,18.5906939 105.427818,19.5666988 C105.427818,19.7506997 105.419818,19.9386978 105.403818,20.1306988 Z M104.335818,19.2426988 C104.335818,18.6186957 104.211819,18.1427004 103.963818,17.8146988 C103.715817,17.4866971 103.343821,17.3226988 102.847818,17.3226988 C101.943814,17.3226988 101.451819,17.9866921 101.371818,19.3146988 L104.335818,19.3146988 L104.335818,19.2426988 Z M113.035818,22.9146988 L111.535818,22.9146988 L110.431818,17.5866988 L109.291818,22.9146988 L107.827818,22.9146988 L106.351818,16.5906988 L107.455818,16.5906988 L108.595818,22.1466988 L109.843818,16.5906988 L111.079818,16.5906988 L112.267818,22.1466988 L113.419818,16.5906988 L114.475818,16.5906988 L113.035818,22.9146988 Z M122.227818,22.6266988 C121.811816,22.9147002 121.339821,23.0586988 120.811818,23.0586988 C120.275816,23.0586988 119.85782,22.9047003 119.557818,22.5966988 C119.257817,22.2886972 119.107818,21.8427017 119.107818,21.2586988 L119.107818,17.4426988 L118.003818,17.4426988 L118.003818,16.5906988 L119.107818,16.5906988 L119.107818,15.1626988 L120.211818,15.0306988 L120.211818,16.5906988 L121.711818,16.5906988 L121.591818,17.4426988 L120.211818,17.4426988 L120.211818,21.2106988 C120.211818,21.5387004 120.269818,21.776698 120.385818,21.9246988 C120.501819,22.0726995 120.695817,22.1466988 120.967818,22.1466988 C121.23182,22.1466988 121.511817,22.0546997 121.807818,21.8706988 L122.227818,22.6266988 Z M127.759818,22.0086988 C127.847819,22.1326994 127.979817,22.2266985 128.155818,22.2906988 L127.903818,23.0586988 C127.575817,23.0186986 127.311819,22.9266995 127.111818,22.7826988 C126.911817,22.6386981 126.763819,22.4147003 126.667818,22.1106988 C126.243816,22.7427019 125.615822,23.0586988 124.783818,23.0586988 C124.159815,23.0586988 123.66782,22.8827005 123.307818,22.5306988 C122.947816,22.178697 122.767818,21.7187016 122.767818,21.1506988 C122.767818,20.4786954 123.009816,19.9627006 123.493818,19.6026988 C123.977821,19.242697 124.663814,19.0626988 125.551818,19.0626988 L126.523818,19.0626988 L126.523818,18.5946988 C126.523818,18.1466965 126.415819,17.8266997 126.199818,17.6346988 C125.983817,17.4426978 125.65182,17.3466988 125.203818,17.3466988 C124.739816,17.3466988 124.171822,17.4586977 123.499818,17.6826988 L123.223818,16.8786988 C124.007822,16.5906973 124.735815,16.4466988 125.407818,16.4466988 C126.151822,16.4466988 126.707816,16.628697 127.075818,16.9926988 C127.44382,17.3567006 127.627818,17.8746954 127.627818,18.5466988 L127.627818,21.4386988 C127.627818,21.6947001 127.671818,21.8846982 127.759818,22.0086988 Z M126.523818,21.2466988 L126.523818,19.7946988 L125.695818,19.7946988 C124.527812,19.7946988 123.943818,20.2266945 123.943818,21.0906988 C123.943818,21.4667007 124.035817,21.7506978 124.219818,21.9426988 C124.403819,22.1346997 124.675816,22.2306988 125.035818,22.2306988 C125.667821,22.2306988 126.163816,21.9027021 126.523818,21.2466988 Z M134.503818,17.3166988 C134.92782,17.8967017 135.139818,18.7066936 135.139818,19.7466988 C135.139818,20.4027021 135.039819,20.9806963 134.839818,21.4806988 C134.639817,21.9807013 134.35182,22.3686974 133.975818,22.6446988 C133.599816,22.9207002 133.159821,23.0586988 132.655818,23.0586988 C131.991815,23.0586988 131.43182,22.7787016 130.975818,22.2186988 L130.867818,22.9146988 L129.895818,22.9146988 L129.895818,14.0466988 L130.999818,13.9146988 L130.999818,17.3826988 C131.45582,16.7586957 132.051815,16.4466988 132.787818,16.4466988 C133.507822,16.4466988 134.079816,16.7366959 134.503818,17.3166988 Z M133.537818,21.5886988 C133.81382,21.1926968 133.951818,20.5787029 133.951818,19.7466988 C133.951818,18.8906945 133.823819,18.2727007 133.567818,17.8926988 C133.311817,17.5126969 132.947821,17.3226988 132.475818,17.3226988 C131.915815,17.3226988 131.42382,17.6506955 130.999818,18.3066988 L130.999818,21.3306988 C131.167819,21.5947001 131.373817,21.802698 131.617818,21.9546988 C131.861819,22.1066995 132.119817,22.1826988 132.391818,22.1826988 C132.879821,22.1826988 133.261817,21.9847008 133.537818,21.5886988 Z" mask="url(#page-titles-dont-e)"/>
      </g>
    </g>
    <rect width="46" height="6" x="265.508" y="24" fill="#0A84FF" fill-opacity=".3" mask="url(#page-titles-dont-b)" rx="3"/>
  </g>
</svg>
