<svg xmlns="http://www.w3.org/2000/svg" xmlns:xlink="http://www.w3.org/1999/xlink" viewBox="0 0 764 360"><defs><rect id="a" width="734" height="508"/></defs><g fill="none" fill-rule="evenodd"><mask id="b" fill="white"><use xlink:href="#a"/></mask><g fill="#D7D7DB" mask="url(#b)" opacity=".2"><g transform="translate(58 -18)"><rect width="679" height="17.8" y="35"/><rect width="679" height="17.8" y=".8"/><rect width="679" height="17.8" y="68"/><rect width="679" height="17.8" y="102"/><rect width="679" height="17.8" y="136"/><rect width="679" height="17.8" y="169"/><rect width="679" height="17.8" y="203"/><rect width="679" height="17.8" y="237"/><rect width="679" height="17.8" y="271"/><rect width="679" height="17.8" y="304"/><rect width="679" height="17.8" y="338"/></g></g><g mask="url(#b)"><g transform="translate(9 13)"><path stroke="#ED00B5" stroke-width="2" d="M49 3c39.85 45.17 66.83 76.53 80.95 94.06 21.18 26.3 94.59 117.34 161.82 152.2 67.24 34.86 127.82 43.12 236.65 50.43C600.97 304.56 667.49 307 728 307"/><path fill="#ED00B5" d="M90.8 6.98h1.4L88.52 18h-1.44L83.4 6.98h1.49l2.94 9.44 2.98-9.44zm8.94 9.9c.1.16.28.28.53.35l-.34.96c-.82-.1-1.33-.5-1.53-1.2-.3.39-.68.68-1.13.88-.45.2-.96.3-1.51.3-.85 0-1.5-.23-2-.7a2.5 2.5 0 0 1-.72-1.89c0-.86.34-1.53 1.01-2a5.1 5.1 0 0 1 2.92-.7h1.25v-.69c0-.6-.17-1.02-.51-1.29-.34-.26-.84-.39-1.49-.39-.64 0-1.37.15-2.2.43l-.36-1.02c1-.35 1.92-.53 2.77-.53 1.02 0 1.8.24 2.34.72.54.48.81 1.15.81 2v4.05c0 .33.05.57.16.73zm-2.45-.03c.37-.22.69-.5.93-.88V13.8h-1.21c-.9 0-1.55.15-1.94.45-.4.3-.6.73-.6 1.3 0 1.07.55 1.6 1.62 1.6.42 0 .82-.1 1.2-.31zm8.47-.93c0 .76.47 1.14 1.4 1.14.43 0 .9-.1 1.4-.3l.35.98c-.53.3-1.2.44-2 .44-.75 0-1.36-.21-1.81-.63a2.19 2.19 0 0 1-.68-1.7v-8.6h-2.6V6.18h3.94v9.74zm6.98-.37c0 .55.12.94.35 1.2.23.24.59.37 1.08.37.45 0 .88-.13 1.3-.38.41-.26.74-.58.99-.96V9.57h1.34V18h-1.15l-.11-1.14a3.4 3.4 0 0 1-1.23.97c-.48.23-.98.35-1.48.35-.8 0-1.4-.22-1.81-.64-.41-.43-.62-1.04-.62-1.84V9.57h1.34v5.98zm9.4.8c.45.47 1.02.7 1.71.7.42 0 .8-.06 1.15-.18.34-.12.71-.31 1.1-.57l.63.9a4.76 4.76 0 0 1-2.88.98c-1.21 0-2.16-.4-2.84-1.2A4.76 4.76 0 0 1 120 13.8c0-.84.15-1.6.45-2.26.3-.67.72-1.2 1.28-1.57.55-.38 1.2-.57 1.93-.57 1.07 0 1.9.37 2.52 1.11.61.75.92 1.76.92 3.04 0 .24 0 .48-.03.72h-5.66c.03.92.27 1.62.72 2.1zm-.05-5.16c-.4.47-.63 1.15-.68 2.04h4.38a3.27 3.27 0 0 0-.58-2.03c-.37-.47-.88-.7-1.53-.7a2 2 0 0 0-1.59.7zm20.51 5.51c.37-.24.56-.57.56-.97 0-.28-.05-.5-.14-.68-.1-.18-.3-.34-.58-.48-.29-.15-.73-.3-1.31-.44a6.34 6.34 0 0 1-2.18-.89c-.47-.35-.7-.86-.7-1.54 0-.7.3-1.27.88-1.68a3.93 3.93 0 0 1 2.32-.63c1.17 0 2.2.31 3.07.93l-.6.93a4.04 4.04 0 0 0-2.43-.77c-1.23 0-1.83.37-1.83 1.1 0 .26.06.47.2.63.13.16.35.3.65.42.3.12.76.27 1.37.44.92.25 1.6.56 2.06.94.45.38.68.93.68 1.65 0 .85-.35 1.48-1.03 1.9-.68.4-1.52.62-2.51.62a4.86 4.86 0 0 1-3.3-1.14l.76-.88a4.18 4.18 0 0 0 2.54.91c.64 0 1.15-.12 1.52-.37zm10.19 1.32c-.41.1-.82.16-1.22.16-.89 0-1.58-.24-2.08-.7a2.38 2.38 0 0 1-.76-1.83v-5.03h-1.93V9.57h1.93v-1.9l1.35-.17v2.07H153l-.18 1.05h-2.75v5.01c0 .48.13.84.38 1.07.26.24.67.36 1.23.36.58 0 1.12-.14 1.62-.4l.53.9c-.3.2-.64.35-1.05.46zm9.48-1.13c.11.15.29.27.53.34l-.33.96c-.82-.1-1.34-.5-1.54-1.2-.3.39-.67.68-1.13.88-.45.2-.95.3-1.5.3-.85 0-1.52-.23-2-.7a2.5 2.5 0 0 1-.73-1.89c0-.86.34-1.53 1.02-2a5.1 5.1 0 0 1 2.92-.7h1.24v-.69c0-.6-.17-1.02-.5-1.29-.35-.26-.84-.39-1.5-.39-.64 0-1.37.15-2.19.43l-.37-1.02c1-.35 1.92-.53 2.77-.53 1.03 0 1.8.24 2.35.72.54.48.8 1.15.8 2v4.05c0 .33.06.57.16.73zm-2.45-.04c.38-.22.69-.5.93-.88V13.8h-1.21c-.9 0-1.54.15-1.94.45-.4.3-.59.73-.59 1.3 0 1.07.54 1.6 1.62 1.6.41 0 .81-.1 1.19-.31zm12.06-7.28l-.2 2.86h-1.08v-1.8h-.08c-1.3 0-2.22.92-2.77 2.78v3.55h1.71V18h-4.38v-1.04h1.33v-6.35h-1.33V9.57h2.34l.25 2c.34-.73.75-1.27 1.23-1.63a2.88 2.88 0 0 1 1.8-.55c.34 0 .73.06 1.18.18zm7.7 8.45c-.4.1-.8.16-1.21.16-.89 0-1.58-.24-2.08-.7a2.38 2.38 0 0 1-.76-1.83v-5.03h-1.93V9.57h1.93v-1.9l1.35-.17v2.07h2.93l-.18 1.05h-2.75v5.01c0 .48.13.84.38 1.07.26.24.67.36 1.23.36.58 0 1.12-.14 1.62-.4l.53.9c-.3.2-.64.35-1.05.46zm7.69-1.32c.37-.24.56-.57.56-.97 0-.28-.05-.5-.15-.68-.1-.18-.29-.34-.57-.48-.3-.15-.73-.3-1.32-.44a6.34 6.34 0 0 1-2.17-.89c-.47-.35-.7-.86-.7-1.54 0-.7.29-1.27.87-1.68a3.93 3.93 0 0 1 2.32-.63c1.18 0 2.2.31 3.08.93l-.61.93a4.04 4.04 0 0 0-2.43-.77c-1.22 0-1.83.37-1.83 1.1 0 .26.07.47.2.63.14.16.35.3.66.42.3.12.76.27 1.37.44.91.25 1.6.56 2.05.94.46.38.68.93.68 1.65 0 .85-.34 1.48-1.02 1.9-.68.4-1.52.62-2.51.62a4.86 4.86 0 0 1-3.3-1.14l.75-.88a4.18 4.18 0 0 0 2.55.91c.64 0 1.14-.12 1.52-.37zm19.67.19c.1.15.28.27.53.34l-.34.96c-.82-.1-1.33-.5-1.53-1.2-.3.39-.68.68-1.13.88-.45.2-.96.3-1.51.3-.85 0-1.5-.23-2-.7a2.5 2.5 0 0 1-.72-1.89c0-.86.34-1.53 1.01-2a5.1 5.1 0 0 1 2.92-.7h1.25v-.69c0-.6-.17-1.02-.51-1.29-.34-.26-.84-.39-1.49-.39-.64 0-1.37.15-2.2.43l-.36-1.02c1-.35 1.92-.53 2.77-.53 1.02 0 1.8.24 2.34.72.54.48.81 1.15.81 2v4.05c0 .33.05.57.16.73zm-2.45-.04c.37-.22.69-.5.93-.88V13.8h-1.21c-.9 0-1.55.15-1.94.45-.4.3-.6.73-.6 1.3 0 1.07.55 1.6 1.62 1.6.42 0 .82-.1 1.2-.31zm10.83 1.17c-.4.1-.82.16-1.22.16-.89 0-1.58-.24-2.08-.7a2.38 2.38 0 0 1-.75-1.83v-5.03h-1.94V9.57h1.94v-1.9l1.34-.17v2.07h2.93l-.18 1.05h-2.75v5.01c0 .48.13.84.38 1.07.26.24.67.36 1.24.36s1.11-.14 1.61-.4l.53.9c-.29.2-.64.35-1.05.46zM91.86 24.46l-.43 1.01a4.45 4.45 0 0 0-1.8-.35c-1.18 0-1.77.46-1.77 1.4v1.7h2.85l-.14 1.08h-2.7V36H86.5v-6.7h-2v-1.08h2v-1.68c0-.75.3-1.36.88-1.83.58-.46 1.31-.7 2.2-.7.8 0 1.56.16 2.28.45zm3.02 9.1c0 .54.11.93.34 1.18.23.25.6.38 1.08.38.45 0 .88-.13 1.3-.38.41-.26.74-.58.99-.96v-6.21h1.34V36h-1.15l-.11-1.14a3.4 3.4 0 0 1-1.22.97c-.49.23-.98.35-1.48.35-.8 0-1.41-.22-1.82-.64-.41-.43-.62-1.04-.62-1.84v-6.13h1.35v5.98zm10.88.36c0 .76.47 1.14 1.4 1.14.43 0 .9-.1 1.4-.3l.35.98c-.53.3-1.2.44-2 .44-.75 0-1.36-.21-1.81-.63a2.19 2.19 0 0 1-.68-1.7v-8.6h-2.6v-1.07h3.94v9.74zm8.94 0c0 .76.46 1.14 1.39 1.14.44 0 .9-.1 1.4-.3l.36.98c-.54.3-1.2.44-2 .44-.76 0-1.36-.21-1.82-.63a2.19 2.19 0 0 1-.68-1.7v-8.6h-2.59v-1.07h3.94v9.74zm18.97.78c.37-.24.56-.57.56-.97 0-.28-.05-.5-.15-.68-.1-.18-.29-.34-.57-.48-.3-.15-.73-.3-1.32-.44a6.34 6.34 0 0 1-2.17-.89c-.47-.35-.7-.86-.7-1.54 0-.7.29-1.27.87-1.68a3.93 3.93 0 0 1 2.32-.63c1.18 0 2.2.31 3.08.93l-.61.93a4.04 4.04 0 0 0-2.43-.77c-1.22 0-1.83.37-1.83 1.1 0 .26.07.47.2.63.14.16.35.3.66.42.3.12.76.27 1.37.44.91.25 1.6.56 2.05.94.46.38.68.93.68 1.65 0 .85-.34 1.48-1.02 1.9-.68.4-1.52.62-2.51.62a4.86 4.86 0 0 1-3.3-1.14l.75-.88a4.18 4.18 0 0 0 2.55.91c.64 0 1.14-.12 1.52-.37zm11.36-2.92c0 1.33-.28 2.4-.83 3.2-.55.8-1.36 1.2-2.42 1.2-.91 0-1.66-.32-2.24-.96v4.01l-1.34.16V27.57h1.15l.11 1.18c.31-.44.68-.77 1.12-1 .43-.24.9-.36 1.4-.36 2.03 0 3.05 1.46 3.05 4.39zm-4.55-2.92c-.36.26-.67.58-.94.96V34c.23.33.5.59.84.78.34.18.7.28 1.1.28.7 0 1.23-.27 1.58-.81.34-.54.52-1.36.52-2.47s-.16-1.94-.47-2.48c-.3-.55-.8-.82-1.45-.82-.43 0-.82.13-1.18.38zm8.45 5.5c.46.46 1.03.7 1.72.7.42 0 .8-.07 1.15-.19.34-.12.71-.31 1.1-.57l.63.9a4.76 4.76 0 0 1-2.88.98c-1.21 0-2.16-.4-2.84-1.2a4.76 4.76 0 0 1-1.01-3.19c0-.84.15-1.6.45-2.26.3-.67.72-1.2 1.28-1.57.55-.38 1.2-.57 1.93-.57 1.07 0 1.9.37 2.52 1.11.61.75.92 1.76.92 3.04 0 .24 0 .48-.03.72h-5.66c.03.92.27 1.62.72 2.1zm-.04-5.17c-.4.47-.63 1.15-.68 2.04h4.38a3.27 3.27 0 0 0-.58-2.03c-.37-.47-.88-.7-1.53-.7a2 2 0 0 0-1.59.7zm8.98 5.16c.45.47 1.02.7 1.72.7.41 0 .8-.06 1.14-.18.35-.12.72-.31 1.11-.57l.63.9a4.76 4.76 0 0 1-2.88.98c-1.22 0-2.17-.4-2.84-1.2a4.76 4.76 0 0 1-1.02-3.19c0-.84.15-1.6.45-2.26.3-.67.72-1.2 1.28-1.57.55-.38 1.2-.57 1.93-.57 1.07 0 1.91.37 2.52 1.11.62.75.92 1.76.92 3.04 0 .24 0 .48-.03.72h-5.66c.03.92.27 1.62.73 2.1zm-.04-5.16c-.4.47-.64 1.15-.7 2.04h4.4a3.27 3.27 0 0 0-.58-2.03c-.38-.47-.89-.7-1.54-.7a2 2 0 0 0-1.58.7zm13.57-5.01V36h-1.18l-.13-1.1c-.31.42-.67.74-1.07.96-.4.2-.85.32-1.32.32a2.74 2.74 0 0 1-2.4-1.17 5.58 5.58 0 0 1-.81-3.22c0-.84.13-1.6.4-2.26a3.6 3.6 0 0 1 1.14-1.57 2.8 2.8 0 0 1 1.75-.57c.93 0 1.69.34 2.28 1.01v-4.38l1.34.16zm-4.89 5.13a4.42 4.42 0 0 0-.57 2.48c0 1.09.18 1.91.52 2.47.35.56.85.84 1.52.84.8 0 1.49-.44 2.08-1.34v-4.2a2.5 2.5 0 0 0-.85-.8 2.14 2.14 0 0 0-1.07-.28c-.7 0-1.25.28-1.63.83z"/><path fill="#737373" d="M4.13 167H3.07v-3.18l-2.8-5.09h1.16l2.2 4.15 2.21-4.15h1.08l-2.8 5.08V167zm4.07-4.19h4.2v.87H8.2v-.87zm11.06 3.36c.08.11.2.2.4.25l-.26.72c-.62-.08-1-.38-1.15-.9-.23.3-.5.51-.85.66-.34.16-.72.23-1.13.23-.63 0-1.13-.17-1.5-.53a1.88 1.88 0 0 1-.54-1.41c0-.65.25-1.15.76-1.5.5-.35 1.24-.53 2.19-.53h.94v-.52c0-.44-.13-.77-.39-.96-.25-.2-.63-.3-1.11-.3-.48 0-1.03.11-1.65.33l-.27-.77c.74-.26 1.43-.4 2.07-.4.77 0 1.36.18 1.76.54.4.36.6.86.6 1.5v3.04c0 .25.05.43.13.55zm-1.85-.03c.29-.16.52-.38.7-.66v-1.62h-.9c-.68 0-1.16.1-1.46.33-.3.23-.44.55-.44.99 0 .8.4 1.2 1.21 1.2.31 0 .61-.08.9-.24zm3.36.86l2.33-3.34-2.05-2.98h1.2l1.46 2.35 1.48-2.35h1.16l-2.05 2.94 2.33 3.38H25.4l-1.74-2.71-1.74 2.71h-1.15zm10.17-9.08c.14.13.2.3.2.51 0 .21-.06.38-.2.51a.74.74 0 0 1-.54.2.7.7 0 0 1-.52-.2.69.69 0 0 1-.2-.5c0-.22.07-.39.2-.52a.7.7 0 0 1 .52-.2c.22 0 .4.07.54.2zm.26 8.28h1.78v.8h-4.73v-.8h1.95v-4.72H28.3v-.8h2.9v5.52zm6.8-.17a.84.84 0 0 0 .42-.73c0-.21-.04-.38-.1-.51a.96.96 0 0 0-.44-.36c-.22-.11-.54-.22-.98-.33a4.76 4.76 0 0 1-1.64-.67c-.35-.26-.52-.65-.52-1.16 0-.53.22-.95.66-1.26a2.95 2.95 0 0 1 1.74-.47c.88 0 1.64.24 2.3.7l-.46.7a3.03 3.03 0 0 0-1.82-.58c-.91 0-1.37.28-1.37.83 0 .19.05.35.15.47.1.12.27.22.5.31.22.1.56.2 1.02.33.69.19 1.2.42 1.54.7.34.29.51.7.51 1.25 0 .63-.25 1.1-.77 1.41-.5.32-1.14.47-1.88.47-1 0-1.82-.28-2.47-.85l.56-.66a3.14 3.14 0 0 0 1.91.68c.48 0 .86-.09 1.14-.27zM379.1 340h-1.04v-7.37h-2.58v-.9h6.23l-.11.9h-2.5V340zm6.74-9.08c.14.13.2.3.2.51 0 .21-.06.38-.2.51a.74.74 0 0 1-.54.2.7.7 0 0 1-.52-.2.69.69 0 0 1-.2-.5c0-.22.07-.39.2-.52a.7.7 0 0 1 .52-.2c.22 0 .4.07.54.2zm.26 8.28h1.78v.8h-4.73v-.8h1.95v-4.72h-1.89v-.8h2.9v5.52zm8.55-5.28c.22.25.34.71.34 1.38v4.7h-.93v-4.54c0-.44-.02-.73-.08-.89-.06-.16-.2-.23-.4-.23-.42 0-.78.25-1.11.75V340h-.94v-4.54c0-.44-.03-.73-.08-.89-.06-.16-.2-.23-.41-.23-.4 0-.78.25-1.1.75V340H389v-6.32h.78l.07.74c.2-.28.4-.5.61-.65.21-.15.47-.23.76-.23.6 0 .97.28 1.14.84.2-.27.4-.48.61-.62.22-.14.48-.22.78-.22.36 0 .66.13.89.38zm3 4.84c.34.36.77.53 1.29.53.31 0 .6-.04.86-.14.26-.09.54-.23.83-.42l.47.67a3.57 3.57 0 0 1-2.16.73c-.91 0-1.62-.3-2.13-.9-.5-.59-.76-1.39-.76-2.39 0-.63.11-1.2.33-1.7.23-.5.55-.89.96-1.17.42-.28.9-.43 1.46-.43.8 0 1.43.28 1.89.84.46.55.69 1.31.69 2.27 0 .19-.01.37-.03.54h-4.25c.03.7.21 1.22.55 1.57zm-.03-3.87c-.3.35-.48.86-.52 1.53h3.3c-.02-.66-.16-1.17-.44-1.52a1.4 1.4 0 0 0-1.15-.53c-.49 0-.89.18-1.19.52z"/><path fill="#ED00B5" d="M274.4 201.78a5.32 5.32 0 0 1-3.54 1.22h-2.53v-11.02h2.35c1.55 0 2.8.39 3.74 1.16.95.78 1.43 2.21 1.43 4.3 0 2.08-.48 3.53-1.44 4.34zm-.53-7.1a2.56 2.56 0 0 0-1.2-1.26 4.11 4.11 0 0 0-1.65-.3h-1.3v8.76h1.31c.95 0 1.74-.33 2.38-.98.63-.66.95-1.81.95-3.47 0-1.2-.16-2.1-.49-2.74zm5.46 6.67c.46.47 1.03.7 1.72.7.42 0 .8-.06 1.15-.18.34-.12.71-.31 1.1-.57l.63.9a4.76 4.76 0 0 1-2.88.98c-1.21 0-2.16-.4-2.84-1.2a4.76 4.76 0 0 1-1.01-3.19c0-.84.15-1.6.45-2.26.3-.67.72-1.2 1.28-1.57.55-.38 1.2-.57 1.93-.57 1.07 0 1.9.37 2.52 1.11.61.75.92 1.76.92 3.04 0 .24 0 .48-.03.72h-5.66c.03.92.27 1.62.72 2.1zm-.04-5.16c-.4.47-.63 1.15-.68 2.04h4.38a3.27 3.27 0 0 0-.58-2.03c-.37-.47-.88-.7-1.53-.7a2 2 0 0 0-1.59.7zm13.2 5.1l.63.88a4.63 4.63 0 0 1-2.83 1 3.7 3.7 0 0 1-2.92-1.17 4.6 4.6 0 0 1-1.05-3.18c0-.84.16-1.6.47-2.27a3.7 3.7 0 0 1 1.37-1.58c.6-.39 1.3-.58 2.13-.58 1.09 0 2.03.33 2.82 1l-.66.87a3.91 3.91 0 0 0-2.18-.73c-.75 0-1.36.28-1.81.84-.45.56-.68 1.38-.68 2.45 0 1.08.23 1.88.68 2.41.45.53 1.06.8 1.83.8.74 0 1.47-.25 2.2-.74zm9.79-6.72l-.2 2.86H301v-1.8h-.08c-1.3 0-2.22.92-2.77 2.78v3.55h1.71V203h-4.38v-1.04h1.33v-6.35h-1.33v-1.04h2.34l.25 2c.34-.73.75-1.27 1.23-1.63a2.88 2.88 0 0 1 1.8-.55c.34 0 .73.06 1.18.18zm3.85 6.78c.46.47 1.03.7 1.72.7.42 0 .8-.06 1.15-.18.34-.12.71-.31 1.1-.57l.63.9a4.76 4.76 0 0 1-2.88.98c-1.21 0-2.16-.4-2.84-1.2a4.76 4.76 0 0 1-1.01-3.19c0-.84.15-1.6.45-2.26.3-.67.72-1.2 1.28-1.57.55-.38 1.2-.57 1.93-.57 1.07 0 1.9.37 2.52 1.11.61.75.92 1.76.92 3.04 0 .24 0 .48-.03.72h-5.66c.03.92.27 1.62.72 2.1zm-.04-5.16c-.4.47-.63 1.15-.68 2.04h4.38a3.27 3.27 0 0 0-.58-2.03c-.37-.47-.88-.7-1.53-.7a2 2 0 0 0-1.59.7zm13.38 5.7c.11.15.29.27.53.34l-.33.96c-.82-.1-1.34-.5-1.54-1.2-.3.39-.67.68-1.13.88-.45.2-.95.3-1.5.3-.85 0-1.52-.23-2-.7a2.5 2.5 0 0 1-.73-1.89c0-.86.34-1.53 1.02-2a5.1 5.1 0 0 1 2.92-.7h1.24v-.69c0-.6-.17-1.02-.5-1.29-.35-.26-.84-.39-1.5-.39-.64 0-1.37.15-2.19.43l-.37-1.02c1-.35 1.92-.53 2.77-.53 1.03 0 1.8.24 2.35.72.54.48.8 1.15.8 2v4.05c0 .33.06.57.16.73zm-2.45-.04c.38-.22.69-.5.93-.88v-2.16h-1.21c-.9 0-1.54.15-1.94.45-.4.3-.59.73-.59 1.3 0 1.07.54 1.6 1.62 1.6.41 0 .81-.1 1.19-.31zm9.58-.15c.37-.24.56-.57.56-.97 0-.28-.05-.5-.14-.68-.1-.18-.3-.34-.58-.48-.29-.15-.73-.3-1.31-.44a6.34 6.34 0 0 1-2.18-.89c-.47-.35-.7-.86-.7-1.54 0-.7.3-1.27.88-1.68a3.93 3.93 0 0 1 2.32-.63c1.17 0 2.2.31 3.07.93l-.6.93a4.04 4.04 0 0 0-2.43-.77c-1.23 0-1.83.37-1.83 1.1 0 .26.06.47.2.63.13.16.35.3.65.42.3.12.76.27 1.37.44.92.25 1.6.56 2.06.94.45.38.68.93.68 1.65 0 .85-.35 1.48-1.03 1.9-.68.4-1.52.62-2.51.62a4.86 4.86 0 0 1-3.3-1.14l.76-.88a4.18 4.18 0 0 0 2.54.91c.64 0 1.15-.12 1.52-.37zm8.45-10.8c.18.17.28.4.28.68 0 .27-.1.5-.28.68a.99.99 0 0 1-.72.26.94.94 0 0 1-.7-.26.92.92 0 0 1-.26-.68c0-.28.1-.5.27-.68.17-.18.4-.27.7-.27.3 0 .53.09.71.27zm.36 11.03h2.36V203h-6.3v-1.07h2.6v-6.29h-2.52v-1.07h3.86v7.36zm4.66-7.36h1.15l.11 1.18a3.54 3.54 0 0 1 2.78-1.36c1.58 0 2.37.83 2.37 2.5V203h-1.34v-5.12c0-.63-.04-1.1-.1-1.44-.07-.33-.21-.58-.41-.74-.2-.16-.52-.24-.93-.24-.46 0-.9.14-1.3.42-.4.28-.73.6-.99 1V203h-1.34v-8.43zm16.2.38c-.33.1-.67.18-1.05.2-.37.03-.84.04-1.42.04.98.45 1.47 1.16 1.47 2.13a2.7 2.7 0 0 1-.85 2.07c-.56.53-1.33.8-2.32.8-.5 0-.92-.06-1.26-.18a1.1 1.1 0 0 0-.43.81c0 .48.37.72 1.12.72h1.52c.55 0 1.06.1 1.51.3.45.2.81.47 1.07.82a2.12 2.12 0 0 1-.66 3.06c-.7.45-1.68.67-2.96.67-1.3 0-2.22-.2-2.75-.6-.54-.41-.8-1.06-.8-1.94h1.21c0 .35.07.63.2.84.14.2.37.36.7.46.34.1.82.15 1.44.15.9 0 1.57-.11 2-.35.44-.23.65-.58.65-1.04a.98.98 0 0 0-.52-.89c-.36-.2-.8-.3-1.36-.3h-1.5c-.7 0-1.23-.16-1.6-.46-.35-.3-.54-.69-.54-1.15 0-.26.08-.53.24-.79.16-.26.4-.49.7-.68a2.56 2.56 0 0 1-1.07-.94 2.62 2.62 0 0 1-.35-1.38 2.75 2.75 0 0 1 1.61-2.55 3.9 3.9 0 0 1 1.75-.38c.96 0 1.7-.05 2.2-.16.5-.1 1.05-.29 1.64-.54l.4 1.26zm-5.73.95c-.33.35-.5.82-.5 1.42a2 2 0 0 0 .5 1.43c.34.36.84.54 1.5.54.6 0 1.05-.18 1.37-.52.31-.35.47-.84.47-1.47 0-1.28-.62-1.92-1.87-1.92-.65 0-1.14.18-1.47.52zm22.53-3.92h1.4L370.79 203h-1.44l-3.68-11.02h1.48l2.95 9.44 2.97-9.44zm8.94 9.9c.1.16.28.28.53.35l-.34.96c-.82-.1-1.33-.5-1.54-1.2-.3.39-.67.68-1.12.88-.46.2-.96.3-1.52.3-.84 0-1.5-.23-1.99-.7a2.5 2.5 0 0 1-.73-1.89c0-.86.34-1.53 1.02-2a5.1 5.1 0 0 1 2.92-.7h1.25v-.69c0-.6-.17-1.02-.51-1.29-.35-.26-.84-.39-1.5-.39-.63 0-1.36.15-2.18.43l-.37-1.02c.99-.35 1.91-.53 2.77-.53 1.02 0 1.8.24 2.34.72.54.48.8 1.15.8 2v4.05c0 .33.06.57.17.73zm-2.46-.03c.38-.22.7-.5.94-.88v-2.16h-1.22c-.9 0-1.54.15-1.93.45-.4.3-.6.73-.6 1.3 0 1.07.54 1.6 1.62 1.6.42 0 .81-.1 1.2-.31zm8.48-.93c0 .76.46 1.14 1.4 1.14.43 0 .9-.1 1.4-.3l.35.98c-.53.3-1.2.44-2 .44-.76 0-1.36-.21-1.81-.63a2.19 2.19 0 0 1-.68-1.7v-8.6h-2.6v-1.07h3.94v9.74zm6.98-.37c0 .55.12.94.34 1.2.23.24.6.37 1.08.37.45 0 .88-.13 1.3-.38.42-.26.75-.58 1-.96v-6.21h1.34V203h-1.16l-.1-1.14a3.4 3.4 0 0 1-1.23.97c-.49.23-.98.35-1.48.35-.8 0-1.4-.22-1.82-.64-.4-.43-.61-1.04-.61-1.84v-6.13H395v5.98zm9.39.8c.45.47 1.03.7 1.72.7.42 0 .8-.06 1.14-.18.35-.12.72-.31 1.12-.57l.62.9a4.76 4.76 0 0 1-2.88.98c-1.22 0-2.16-.4-2.84-1.2a4.76 4.76 0 0 1-1.02-3.19c0-.84.15-1.6.45-2.26.3-.67.73-1.2 1.28-1.57.56-.38 1.2-.57 1.94-.57 1.06 0 1.9.37 2.52 1.11.61.75.92 1.76.92 3.04l-.03.72h-5.67c.03.92.28 1.62.73 2.1zm-.04-5.16c-.4.47-.63 1.15-.69 2.04h4.39a3.27 3.27 0 0 0-.58-2.03c-.37-.47-.89-.7-1.54-.7a2 2 0 0 0-1.58.7zm-129.25 23.44c-.32.49-.78.87-1.39 1.14-.6.27-1.33.4-2.16.4-.8 0-1.53-.11-2.18-.35a4.8 4.8 0 0 1-1.7-1.04l.84-.94c.4.38.86.68 1.35.88.5.2 1.07.3 1.7.3.73 0 1.34-.17 1.83-.52.5-.36.74-.86.74-1.52 0-.38-.07-.69-.21-.93a1.8 1.8 0 0 0-.73-.66c-.35-.19-.83-.38-1.46-.56a7.82 7.82 0 0 1-2.68-1.24 2.37 2.37 0 0 1-.88-1.94c0-.55.15-1.04.45-1.47.3-.44.72-.78 1.27-1.02a5.52 5.52 0 0 1 3.8-.04c.57.21 1.1.53 1.57.94l-.83.9a3.9 3.9 0 0 0-2.64-1 2.8 2.8 0 0 0-1.58.42c-.42.28-.63.69-.63 1.22 0 .32.09.6.26.82.17.22.45.43.85.62.4.2.95.39 1.66.6 1.03.3 1.83.68 2.4 1.16.55.48.83 1.2.83 2.14a3 3 0 0 1-.48 1.7zm9.26-2.85c0 1.33-.28 2.4-.84 3.2-.55.8-1.36 1.2-2.41 1.2-.92 0-1.67-.32-2.24-.96v4.01l-1.35.16v-11.82h1.16l.1 1.18c.32-.44.69-.77 1.12-1 .43-.24.9-.36 1.4-.36 2.04 0 3.06 1.46 3.06 4.39zm-4.56-2.92c-.35.26-.67.58-.93.96V219c.22.33.5.59.84.78.33.18.7.28 1.1.28.7 0 1.22-.27 1.57-.81.35-.54.52-1.36.52-2.47s-.16-1.94-.46-2.48c-.31-.55-.8-.82-1.46-.82-.43 0-.82.13-1.18.38zm8.46 5.5c.45.46 1.02.7 1.72.7.41 0 .8-.07 1.14-.19.35-.12.72-.31 1.11-.57l.63.9a4.76 4.76 0 0 1-2.88.98c-1.22 0-2.17-.4-2.84-1.2a4.76 4.76 0 0 1-1.02-3.19c0-.84.15-1.6.45-2.26.3-.67.72-1.2 1.28-1.57.55-.38 1.2-.57 1.93-.57 1.07 0 1.91.37 2.52 1.11.62.75.92 1.76.92 3.04 0 .24 0 .48-.03.72h-5.66c.03.92.27 1.62.73 2.1zm-.04-5.17c-.4.47-.64 1.15-.7 2.04h4.4a3.27 3.27 0 0 0-.58-2.03c-.38-.47-.89-.7-1.54-.7a2 2 0 0 0-1.58.7zm8.97 5.16c.45.47 1.03.7 1.72.7.42 0 .8-.06 1.14-.18.35-.12.72-.31 1.12-.57l.62.9a4.76 4.76 0 0 1-2.88.98c-1.22 0-2.16-.4-2.84-1.2a4.76 4.76 0 0 1-1.02-3.19c0-.84.15-1.6.45-2.26.3-.67.73-1.2 1.28-1.57.56-.38 1.2-.57 1.94-.57 1.06 0 1.9.37 2.52 1.11.61.75.92 1.76.92 3.04l-.03.72h-5.67c.03.92.28 1.62.73 2.1zm-.04-5.16c-.4.47-.63 1.15-.69 2.04h4.39a3.27 3.27 0 0 0-.58-2.03c-.37-.47-.89-.7-1.54-.7a2 2 0 0 0-1.58.7zm13.57-5.01V221h-1.18l-.13-1.1c-.3.42-.67.74-1.07.96-.4.2-.84.32-1.31.32a2.74 2.74 0 0 1-2.41-1.17 5.58 5.58 0 0 1-.8-3.22c0-.84.12-1.6.4-2.26a3.6 3.6 0 0 1 1.14-1.57 2.8 2.8 0 0 1 1.75-.57c.93 0 1.68.34 2.27 1.01v-4.38l1.34.16zm-4.88 5.13a4.42 4.42 0 0 0-.57 2.48c0 1.09.17 1.91.52 2.47.34.56.85.84 1.5.84.8 0 1.5-.44 2.09-1.34v-4.2a2.5 2.5 0 0 0-.85-.8 2.14 2.14 0 0 0-1.07-.28c-.7 0-1.25.28-1.62.83zm22.75-5.13V221h-1.18l-.13-1.1c-.31.42-.67.74-1.07.96-.4.2-.85.32-1.32.32a2.74 2.74 0 0 1-2.4-1.17 5.58 5.58 0 0 1-.81-3.22c0-.84.13-1.6.4-2.26a3.6 3.6 0 0 1 1.14-1.57 2.8 2.8 0 0 1 1.75-.57c.93 0 1.69.34 2.28 1.01v-4.38l1.34.16zm-4.89 5.13a4.42 4.42 0 0 0-.57 2.48c0 1.09.18 1.91.52 2.47.35.56.85.84 1.52.84.8 0 1.49-.44 2.08-1.34v-4.2a2.5 2.5 0 0 0-.85-.8 2.14 2.14 0 0 0-1.07-.28c-.7 0-1.25.28-1.63.83zm9.22 5.04c.46.47 1.03.7 1.72.7.42 0 .8-.06 1.15-.18.34-.12.71-.31 1.1-.57l.63.9a4.76 4.76 0 0 1-2.88.98c-1.21 0-2.16-.4-2.84-1.2a4.76 4.76 0 0 1-1.01-3.19c0-.84.15-1.6.45-2.26.3-.67.72-1.2 1.28-1.57.55-.38 1.2-.57 1.93-.57 1.07 0 1.9.37 2.52 1.11.61.75.92 1.76.92 3.04 0 .24 0 .48-.03.72h-5.66c.03.92.27 1.62.72 2.1zm-.04-5.16c-.4.47-.63 1.15-.68 2.04h4.38a3.27 3.27 0 0 0-.58-2.03c-.37-.47-.88-.7-1.53-.7a2 2 0 0 0-1.59.7zm13.2 5.1l.63.88a4.63 4.63 0 0 1-2.83 1 3.7 3.7 0 0 1-2.92-1.17 4.6 4.6 0 0 1-1.05-3.18c0-.84.16-1.6.47-2.27a3.7 3.7 0 0 1 1.37-1.58c.6-.39 1.3-.58 2.13-.58 1.09 0 2.03.33 2.82 1l-.66.87a3.91 3.91 0 0 0-2.18-.73c-.75 0-1.36.28-1.81.84-.45.56-.68 1.38-.68 2.45 0 1.08.23 1.88.68 2.41.45.53 1.06.8 1.83.8.74 0 1.47-.25 2.2-.74zm4.71.06c.45.47 1.03.7 1.72.7.42 0 .8-.06 1.14-.18.35-.12.72-.31 1.12-.57l.62.9a4.76 4.76 0 0 1-2.88.98c-1.22 0-2.16-.4-2.84-1.2a4.76 4.76 0 0 1-1.02-3.19c0-.84.15-1.6.45-2.26.3-.67.73-1.2 1.28-1.57.56-.38 1.2-.57 1.94-.57 1.06 0 1.9.37 2.52 1.11.61.75.92 1.76.92 3.04l-.03.72h-5.67c.03.92.28 1.62.73 2.1zm-.04-5.16c-.4.47-.63 1.15-.69 2.04h4.39a3.27 3.27 0 0 0-.58-2.03c-.37-.47-.89-.7-1.54-.7a2 2 0 0 0-1.58.7zm10.47 4.73c0 .76.46 1.14 1.4 1.14.43 0 .9-.1 1.4-.3l.35.98c-.53.3-1.2.44-2 .44-.76 0-1.36-.21-1.81-.63a2.19 2.19 0 0 1-.68-1.7v-8.6h-2.6v-1.07h3.94v9.74zm7.44.43c.45.47 1.02.7 1.72.7.41 0 .8-.06 1.14-.18.35-.12.72-.31 1.11-.57l.63.9a4.76 4.76 0 0 1-2.88.98c-1.22 0-2.17-.4-2.84-1.2a4.76 4.76 0 0 1-1.02-3.19c0-.84.15-1.6.45-2.26.3-.67.72-1.2 1.28-1.57.55-.38 1.2-.57 1.93-.57 1.07 0 1.91.37 2.52 1.11.62.75.92 1.76.92 3.04 0 .24 0 .48-.03.72h-5.66c.03.92.27 1.62.73 2.1zm-.04-5.16c-.4.47-.64 1.15-.7 2.04h4.4a3.27 3.27 0 0 0-.58-2.03c-.38-.47-.89-.7-1.54-.7a2 2 0 0 0-1.58.7zm14.05-1.62l-.2 2.86h-1.08v-1.8h-.08c-1.3 0-2.22.92-2.77 2.78v3.55h1.71V221h-4.38v-1.04h1.33v-6.35h-1.33v-1.04h2.34l.25 2c.34-.73.75-1.27 1.23-1.63a2.88 2.88 0 0 1 1.8-.55c.34 0 .73.06 1.18.18zm8.26 7.32c.1.15.28.27.53.34l-.34.96c-.82-.1-1.33-.5-1.53-1.2-.3.39-.68.68-1.13.88-.45.2-.96.3-1.51.3-.85 0-1.5-.23-2-.7a2.5 2.5 0 0 1-.72-1.89c0-.86.34-1.53 1.01-2a5.1 5.1 0 0 1 2.92-.7h1.25v-.69c0-.6-.17-1.02-.51-1.29-.34-.26-.84-.39-1.49-.39-.64 0-1.37.15-2.2.43l-.36-1.02c1-.35 1.92-.53 2.77-.53 1.02 0 1.8.24 2.34.72.54.48.81 1.15.81 2v4.05c0 .33.05.57.16.73zm-2.45-.04c.37-.22.69-.5.93-.88v-2.16h-1.21c-.9 0-1.55.15-1.94.45-.4.3-.6.73-.6 1.3 0 1.07.55 1.6 1.62 1.6.42 0 .82-.1 1.2-.31zm10.83 1.17c-.4.1-.82.16-1.22.16-.89 0-1.58-.24-2.08-.7a2.38 2.38 0 0 1-.75-1.83v-5.03h-1.94v-1.05h1.94v-1.9l1.34-.17v2.07h2.93l-.18 1.05h-2.75v5.01c0 .48.13.84.38 1.07.26.24.67.36 1.24.36s1.11-.14 1.61-.4l.53.9c-.29.2-.64.35-1.05.46zm7.2-12.12c.18.17.27.4.27.68 0 .27-.09.5-.27.68a.99.99 0 0 1-.72.26.94.94 0 0 1-.7-.26.92.92 0 0 1-.26-.68c0-.28.09-.5.26-.68.18-.18.41-.27.7-.27.3 0 .54.09.72.27zm.35 11.03h2.37V221h-6.3v-1.07h2.59v-6.29h-2.51v-1.07h3.85v7.36zm4.66-7.36h1.16l.1 1.18a3.54 3.54 0 0 1 2.78-1.36c1.59 0 2.38.83 2.38 2.5V221h-1.34v-5.12c0-.63-.04-1.1-.1-1.44-.08-.33-.21-.58-.42-.74-.2-.16-.5-.24-.92-.24-.46 0-.9.14-1.3.42-.4.28-.74.6-1 1V221h-1.34v-8.43zm16.2.38c-.32.1-.67.18-1.04.2-.37.03-.85.04-1.42.04.98.45 1.47 1.16 1.47 2.13a2.7 2.7 0 0 1-.85 2.07c-.56.53-1.34.8-2.32.8-.5 0-.92-.06-1.26-.18a1.1 1.1 0 0 0-.44.81c0 .48.38.72 1.12.72h1.52c.56 0 1.06.1 1.52.3.45.2.8.47 1.07.82a2.12 2.12 0 0 1-.66 3.06c-.7.45-1.69.67-2.97.67-1.3 0-2.21-.2-2.75-.6-.53-.41-.8-1.06-.8-1.94h1.22c0 .35.07.63.2.84.13.2.37.36.7.46.34.1.82.15 1.43.15.91 0 1.58-.11 2.01-.35.43-.23.65-.58.65-1.04a.98.98 0 0 0-.53-.89c-.35-.2-.8-.3-1.36-.3h-1.5c-.7 0-1.22-.16-1.59-.46-.36-.3-.54-.69-.54-1.15 0-.26.08-.53.24-.79.16-.26.39-.49.69-.68a2.56 2.56 0 0 1-1.07-.94 2.62 2.62 0 0 1-.34-1.38 2.75 2.75 0 0 1 1.6-2.55 3.9 3.9 0 0 1 1.76-.38c.96 0 1.7-.05 2.2-.16.5-.1 1.04-.29 1.64-.54l.4 1.26zm-5.73.95c-.33.35-.5.82-.5 1.42a2 2 0 0 0 .51 1.43c.34.36.84.54 1.5.54.6 0 1.05-.18 1.36-.52.32-.35.48-.84.48-1.47 0-1.28-.63-1.92-1.88-1.92-.65 0-1.14.18-1.47.52zm79.4 54.88a5.32 5.32 0 0 1-3.54 1.22h-2.53v-11.02h2.35c1.55 0 2.8.39 3.74 1.16.95.78 1.43 2.21 1.43 4.3 0 2.08-.48 3.53-1.44 4.34zm-.53-7.1a2.56 2.56 0 0 0-1.2-1.26 4.11 4.11 0 0 0-1.65-.3h-1.3v8.76h1.31c.95 0 1.74-.33 2.38-.98.63-.66.95-1.81.95-3.47 0-1.2-.16-2.1-.49-2.74zm5.63 6.67c.45.47 1.03.7 1.72.7.42 0 .8-.06 1.14-.18.35-.12.72-.31 1.12-.57l.62.9a4.76 4.76 0 0 1-2.88.98c-1.22 0-2.16-.4-2.84-1.2a4.76 4.76 0 0 1-1.02-3.19c0-.84.15-1.6.45-2.26.3-.67.73-1.2 1.28-1.57.56-.38 1.2-.57 1.94-.57 1.06 0 1.9.37 2.52 1.11.61.75.92 1.76.92 3.04l-.03.72h-5.67c.03.92.28 1.62.73 2.1zm-.04-5.16c-.4.47-.63 1.15-.69 2.04h4.39a3.27 3.27 0 0 0-.58-2.03c-.37-.47-.89-.7-1.54-.7a2 2 0 0 0-1.58.7zm13.36 5.1l.64.88a4.63 4.63 0 0 1-2.83 1 3.7 3.7 0 0 1-2.93-1.17 4.6 4.6 0 0 1-1.04-3.18c0-.84.15-1.6.47-2.27a3.7 3.7 0 0 1 1.37-1.58c.6-.39 1.3-.58 2.12-.58 1.1 0 2.03.33 2.82 1l-.66.87a3.91 3.91 0 0 0-2.17-.73c-.76 0-1.36.28-1.82.84-.45.56-.68 1.38-.68 2.45 0 1.08.23 1.88.68 2.41.46.53 1.07.8 1.83.8.74 0 1.47-.25 2.2-.74zm9.96-6.72l-.2 2.86h-1.08v-1.8h-.08c-1.3 0-2.22.92-2.77 2.78v3.55h1.71V270h-4.38v-1.04h1.33v-6.35h-1.33v-1.04h2.34l.25 2c.34-.73.75-1.27 1.23-1.63a2.88 2.88 0 0 1 1.8-.55c.34 0 .73.06 1.18.18zm4.02 6.78c.45.47 1.03.7 1.72.7.42 0 .8-.06 1.14-.18.35-.12.72-.31 1.12-.57l.62.9a4.76 4.76 0 0 1-2.88.98c-1.22 0-2.16-.4-2.84-1.2a4.76 4.76 0 0 1-1.02-3.19c0-.84.15-1.6.45-2.26.3-.67.73-1.2 1.28-1.57.56-.38 1.2-.57 1.94-.57 1.06 0 1.9.37 2.52 1.11.61.75.92 1.76.92 3.04l-.03.72h-5.67c.03.92.28 1.62.73 2.1zm-.04-5.16c-.4.47-.63 1.15-.69 2.04h4.39a3.27 3.27 0 0 0-.58-2.03c-.37-.47-.89-.7-1.54-.7a2 2 0 0 0-1.58.7zm13.55 5.7c.1.15.28.27.53.34l-.34.96c-.82-.1-1.33-.5-1.54-1.2-.3.39-.67.68-1.12.88-.46.2-.96.3-1.52.3-.84 0-1.5-.23-1.99-.7a2.5 2.5 0 0 1-.73-1.89c0-.86.34-1.53 1.02-2a5.1 5.1 0 0 1 2.92-.7h1.25v-.69c0-.6-.17-1.02-.51-1.29-.35-.26-.84-.39-1.5-.39-.63 0-1.36.15-2.18.43l-.37-1.02c.99-.35 1.91-.53 2.77-.53 1.02 0 1.8.24 2.34.72.54.48.8 1.15.8 2v4.05c0 .33.06.57.17.73zm-2.46-.04c.38-.22.7-.5.94-.88v-2.16h-1.22c-.9 0-1.54.15-1.93.45-.4.3-.6.73-.6 1.3 0 1.07.54 1.6 1.62 1.6.42 0 .81-.1 1.2-.31zm9.75-.15c.37-.24.56-.57.56-.97 0-.28-.05-.5-.14-.68-.1-.18-.3-.34-.58-.48-.29-.15-.73-.3-1.31-.44a6.34 6.34 0 0 1-2.18-.89c-.47-.35-.7-.86-.7-1.54 0-.7.3-1.27.88-1.68a3.93 3.93 0 0 1 2.32-.63c1.17 0 2.2.31 3.07.93l-.6.93a4.04 4.04 0 0 0-2.43-.77c-1.23 0-1.83.37-1.83 1.1 0 .26.06.47.2.63.13.16.35.3.65.42.3.12.76.27 1.37.44.92.25 1.6.56 2.06.94.45.38.68.93.68 1.65 0 .85-.35 1.48-1.03 1.9-.68.4-1.52.62-2.51.62a4.86 4.86 0 0 1-3.3-1.14l.76-.88a4.18 4.18 0 0 0 2.54.91c.64 0 1.15-.12 1.52-.37zm8.62-10.8c.18.17.27.4.27.68 0 .27-.09.5-.27.68a.99.99 0 0 1-.72.26.94.94 0 0 1-.7-.26.92.92 0 0 1-.26-.68c0-.28.09-.5.26-.68.18-.18.41-.27.7-.27.3 0 .54.09.72.27zm.35 11.03h2.37V270h-6.3v-1.07h2.59v-6.29h-2.51v-1.07h3.85v7.36zm4.83-7.36h1.15l.11 1.18a3.54 3.54 0 0 1 2.78-1.36c1.59 0 2.38.83 2.38 2.5V270h-1.35v-5.12c0-.63-.03-1.1-.1-1.44-.07-.33-.2-.58-.41-.74-.2-.16-.51-.24-.93-.24-.46 0-.89.14-1.3.42-.4.28-.73.6-.99 1V270h-1.34v-8.43zm16.36.38c-.32.1-.66.18-1.04.2-.37.03-.84.04-1.42.04.98.45 1.47 1.16 1.47 2.13a2.7 2.7 0 0 1-.85 2.07c-.56.53-1.33.8-2.32.8-.5 0-.92-.06-1.26-.18a1.1 1.1 0 0 0-.43.81c0 .48.37.72 1.12.72h1.52c.55 0 1.06.1 1.51.3.45.2.81.47 1.07.82a2.12 2.12 0 0 1-.66 3.06c-.7.45-1.68.67-2.96.67-1.3 0-2.22-.2-2.75-.6-.54-.41-.8-1.06-.8-1.94h1.21c0 .35.07.63.2.84.14.2.37.36.7.46.34.1.82.15 1.44.15.9 0 1.57-.11 2-.35.44-.23.65-.58.65-1.04a.98.98 0 0 0-.52-.89c-.36-.2-.8-.3-1.36-.3h-1.5c-.7 0-1.23-.16-1.6-.46-.35-.3-.54-.69-.54-1.15 0-.26.08-.53.24-.79.16-.26.4-.49.7-.68a2.56 2.56 0 0 1-1.07-.94 2.62 2.62 0 0 1-.35-1.38 2.75 2.75 0 0 1 1.61-2.55 3.9 3.9 0 0 1 1.75-.38c.96 0 1.7-.05 2.2-.16.5-.1 1.05-.29 1.64-.54l.4 1.26zm-5.72.95c-.33.35-.5.82-.5 1.42a2 2 0 0 0 .5 1.43c.34.36.84.54 1.5.54.6 0 1.05-.18 1.37-.52.31-.35.47-.84.47-1.47 0-1.28-.62-1.92-1.87-1.92-.65 0-1.14.18-1.47.52zm22.87-3.92h1.39L599.62 270h-1.44l-3.68-11.02h1.49l2.94 9.44 2.98-9.44zm9.1 9.9c.1.16.28.28.53.35l-.34.96c-.82-.1-1.33-.5-1.54-1.2-.3.39-.67.68-1.12.88-.46.2-.96.3-1.52.3-.84 0-1.5-.23-1.99-.7a2.5 2.5 0 0 1-.73-1.89c0-.86.34-1.53 1.02-2a5.1 5.1 0 0 1 2.92-.7h1.25v-.69c0-.6-.17-1.02-.51-1.29-.35-.26-.84-.39-1.5-.39-.63 0-1.36.15-2.18.43l-.37-1.02c.99-.35 1.91-.53 2.77-.53 1.02 0 1.8.24 2.34.72.54.48.8 1.15.8 2v4.05c0 .33.06.57.17.73zm-2.46-.03c.38-.22.7-.5.94-.88v-2.16h-1.22c-.9 0-1.54.15-1.93.45-.4.3-.6.73-.6 1.3 0 1.07.54 1.6 1.62 1.6.42 0 .81-.1 1.2-.31zm8.65-.93c0 .76.46 1.14 1.39 1.14.44 0 .9-.1 1.4-.3l.36.98c-.54.3-1.2.44-2 .44-.76 0-1.36-.21-1.82-.63a2.19 2.19 0 0 1-.68-1.7v-8.6h-2.59v-1.07h3.94v9.74zm7.14-.37c0 .55.12.94.35 1.2.23.24.59.37 1.08.37.45 0 .88-.13 1.3-.38.41-.26.74-.58.99-.96v-6.21h1.34V270h-1.15l-.11-1.14a3.4 3.4 0 0 1-1.23.97c-.48.23-.98.35-1.48.35-.8 0-1.4-.22-1.81-.64-.41-.43-.62-1.04-.62-1.84v-6.13h1.34v5.98zm9.56.8c.45.47 1.03.7 1.72.7.42 0 .8-.06 1.14-.18.35-.12.72-.31 1.12-.57l.62.9a4.76 4.76 0 0 1-2.88.98c-1.22 0-2.16-.4-2.84-1.2a4.76 4.76 0 0 1-1.02-3.19c0-.84.15-1.6.45-2.26.3-.67.73-1.2 1.28-1.57.56-.38 1.2-.57 1.94-.57 1.06 0 1.9.37 2.52 1.11.61.75.92 1.76.92 3.04l-.03.72h-5.67c.03.92.28 1.62.73 2.1zm-.04-5.16c-.4.47-.63 1.15-.69 2.04h4.39a3.27 3.27 0 0 0-.58-2.03c-.37-.47-.89-.7-1.54-.7a2 2 0 0 0-1.58.7zm-131.75 23.44c-.32.49-.78.87-1.39 1.14-.6.27-1.33.4-2.16.4-.8 0-1.53-.11-2.18-.35a4.8 4.8 0 0 1-1.7-1.04l.84-.94c.4.38.86.68 1.35.88.5.2 1.07.3 1.7.3.73 0 1.34-.17 1.83-.52.5-.36.74-.86.74-1.52 0-.38-.07-.69-.21-.93a1.8 1.8 0 0 0-.73-.66c-.35-.19-.83-.38-1.46-.56a7.82 7.82 0 0 1-2.68-1.24 2.37 2.37 0 0 1-.88-1.94c0-.55.15-1.04.45-1.47.3-.44.72-.78 1.27-1.02a5.52 5.52 0 0 1 3.8-.04c.57.21 1.1.53 1.57.94l-.83.9a3.9 3.9 0 0 0-2.64-1 2.8 2.8 0 0 0-1.58.42c-.42.28-.63.69-.63 1.22 0 .32.09.6.26.82.17.22.45.43.85.62.4.2.95.39 1.66.6 1.03.3 1.83.68 2.4 1.16.55.48.83 1.2.83 2.14a3 3 0 0 1-.48 1.7zm9.42-2.85c0 1.33-.28 2.4-.83 3.2-.55.8-1.36 1.2-2.42 1.2-.91 0-1.66-.32-2.24-.96v4.01l-1.34.16v-11.82h1.15l.11 1.18c.31-.44.68-.77 1.12-1 .43-.24.9-.36 1.4-.36 2.03 0 3.05 1.46 3.05 4.39zm-4.55-2.92c-.36.26-.67.58-.94.96V286c.23.33.5.59.84.78.34.18.7.28 1.1.28.7 0 1.23-.27 1.58-.81.34-.54.52-1.36.52-2.47s-.16-1.94-.47-2.48c-.3-.55-.8-.82-1.45-.82-.43 0-.82.13-1.18.38zm8.62 5.5c.45.46 1.03.7 1.72.7.42 0 .8-.07 1.14-.19.35-.12.72-.31 1.12-.57l.62.9a4.76 4.76 0 0 1-2.88.98c-1.22 0-2.16-.4-2.84-1.2a4.76 4.76 0 0 1-1.02-3.19c0-.84.15-1.6.45-2.26.3-.67.73-1.2 1.28-1.57.56-.38 1.2-.57 1.94-.57 1.06 0 1.9.37 2.52 1.11.61.75.92 1.76.92 3.04l-.03.72h-5.67c.03.92.28 1.62.73 2.1zm-.04-5.17c-.4.47-.63 1.15-.69 2.04h4.39a3.27 3.27 0 0 0-.58-2.03c-.37-.47-.89-.7-1.54-.7a2 2 0 0 0-1.58.7zm9.14 5.16c.45.47 1.03.7 1.72.7.42 0 .8-.06 1.14-.18.35-.12.72-.31 1.12-.57l.62.9a4.76 4.76 0 0 1-2.88.98c-1.22 0-2.16-.4-2.84-1.2a4.76 4.76 0 0 1-1.02-3.19c0-.84.15-1.6.45-2.26.3-.67.73-1.2 1.28-1.57.56-.38 1.2-.57 1.94-.57 1.06 0 1.9.37 2.52 1.11.61.75.92 1.76.92 3.04l-.03.72h-5.67c.03.92.28 1.62.73 2.1zm-.04-5.16c-.4.47-.63 1.15-.69 2.04h4.39a3.27 3.27 0 0 0-.58-2.03c-.37-.47-.89-.7-1.54-.7a2 2 0 0 0-1.58.7zm13.74-5.01V288h-1.18l-.13-1.1c-.31.42-.67.74-1.07.96-.4.2-.85.32-1.32.32a2.74 2.74 0 0 1-2.4-1.17 5.58 5.58 0 0 1-.81-3.22c0-.84.13-1.6.4-2.26a3.6 3.6 0 0 1 1.14-1.57 2.8 2.8 0 0 1 1.75-.57c.93 0 1.69.34 2.28 1.01v-4.38l1.34.16zm-4.89 5.13a4.42 4.42 0 0 0-.57 2.48c0 1.09.18 1.91.52 2.47.35.56.85.84 1.52.84.8 0 1.49-.44 2.08-1.34v-4.2a2.5 2.5 0 0 0-.85-.8 2.14 2.14 0 0 0-1.07-.28c-.7 0-1.25.28-1.63.83zm21.09 5.4c.37-.25.56-.58.56-.98 0-.28-.05-.5-.14-.68-.1-.18-.3-.34-.58-.48-.29-.15-.73-.3-1.31-.44a6.34 6.34 0 0 1-2.18-.89c-.47-.35-.7-.86-.7-1.54 0-.7.3-1.27.88-1.68a3.93 3.93 0 0 1 2.32-.63c1.17 0 2.2.31 3.07.93l-.6.93a4.04 4.04 0 0 0-2.43-.77c-1.23 0-1.83.37-1.83 1.1 0 .26.06.47.2.63.13.16.35.3.65.42.3.12.76.27 1.37.44.92.25 1.6.56 2.06.94.45.38.68.93.68 1.65 0 .85-.35 1.48-1.03 1.9-.68.4-1.52.62-2.51.62a4.86 4.86 0 0 1-3.3-1.14l.76-.88a4.18 4.18 0 0 0 2.54.91c.64 0 1.15-.12 1.52-.37zm8-.79c0 .76.46 1.14 1.39 1.14.44 0 .9-.1 1.4-.3l.36.98c-.54.3-1.2.44-2 .44-.76 0-1.36-.21-1.82-.63a2.19 2.19 0 0 1-.68-1.7v-8.6h-2.59v-1.07h3.94v9.74zm11.7-5.35c.62.78.93 1.85.93 3.2 0 1.33-.32 2.4-.95 3.2-.63.8-1.53 1.2-2.68 1.2-1.16 0-2.06-.39-2.69-1.17a4.99 4.99 0 0 1-.94-3.2 5 5 0 0 1 .95-3.2c.63-.8 1.53-1.2 2.7-1.2 1.16 0 2.05.38 2.68 1.17zm-4.33.74a4.52 4.52 0 0 0-.55 2.48c0 1.11.18 1.94.54 2.47.36.54.9.81 1.64.81.74 0 1.28-.27 1.64-.8.36-.54.54-1.37.54-2.5 0-1.1-.18-1.93-.54-2.47-.36-.53-.9-.8-1.62-.8-.74 0-1.29.27-1.65.81zm11.88 6.69l-1.1-6.18-1.19 6.18h-1.85l-1.52-8.43h1.36l1.09 7.6 1.34-6.53h1.58l1.27 6.53 1.09-7.6h1.3l-1.46 8.43h-1.9zm8.05-2.08c0 .76.46 1.14 1.39 1.14.44 0 .9-.1 1.4-.3l.36.98c-.54.3-1.2.44-2 .44-.76 0-1.36-.21-1.82-.63a2.19 2.19 0 0 1-.68-1.7v-8.6h-2.59v-1.07h3.94v9.74zm9.86 2.13a5.92 5.92 0 0 1-1.36 2.32c-.57.57-1.38.92-2.41 1.02l-.2-1.07c.57-.1 1.02-.24 1.36-.44.33-.2.6-.44.79-.74.2-.29.37-.67.53-1.14h-.45l-2.93-8.43h1.43l2.41 7.4 2.39-7.4h1.39l-2.95 8.48zm20.54-11.87V288h-1.18l-.13-1.1c-.31.42-.67.74-1.07.96-.4.2-.85.32-1.32.32a2.74 2.74 0 0 1-2.4-1.17 5.58 5.58 0 0 1-.81-3.22c0-.84.13-1.6.4-2.26a3.6 3.6 0 0 1 1.14-1.57 2.8 2.8 0 0 1 1.75-.57c.93 0 1.69.34 2.28 1.01v-4.38l1.34.16zm-4.89 5.13a4.42 4.42 0 0 0-.57 2.48c0 1.09.18 1.91.52 2.47.35.56.85.84 1.52.84.8 0 1.49-.44 2.08-1.34v-4.2a2.5 2.5 0 0 0-.85-.8 2.14 2.14 0 0 0-1.07-.28c-.7 0-1.25.28-1.63.83zm9.39 5.04c.45.47 1.03.7 1.72.7.42 0 .8-.06 1.14-.18.35-.12.72-.31 1.12-.57l.62.9a4.76 4.76 0 0 1-2.88.98c-1.22 0-2.16-.4-2.84-1.2a4.76 4.76 0 0 1-1.02-3.19c0-.84.15-1.6.45-2.26.3-.67.73-1.2 1.28-1.57.56-.38 1.2-.57 1.94-.57 1.06 0 1.9.37 2.52 1.11.61.75.92 1.76.92 3.04l-.03.72h-5.67c.03.92.28 1.62.73 2.1zm-.04-5.16c-.4.47-.63 1.15-.69 2.04h4.39a3.27 3.27 0 0 0-.58-2.03c-.37-.47-.89-.7-1.54-.7a2 2 0 0 0-1.58.7zm13.36 5.1l.64.88a4.63 4.63 0 0 1-2.83 1A3.7 3.7 0 0 1 633 287a4.6 4.6 0 0 1-1.04-3.18c0-.84.15-1.6.47-2.27a3.7 3.7 0 0 1 1.37-1.58c.6-.39 1.3-.58 2.12-.58 1.1 0 2.03.33 2.82 1l-.66.87a3.91 3.91 0 0 0-2.17-.73c-.76 0-1.36.28-1.82.84-.45.56-.68 1.38-.68 2.45 0 1.08.23 1.88.68 2.41.46.53 1.07.8 1.83.8.74 0 1.47-.25 2.2-.74zm4.88.06c.45.47 1.03.7 1.72.7.42 0 .8-.06 1.14-.18.35-.12.72-.31 1.12-.57l.62.9a4.76 4.76 0 0 1-2.88.98c-1.22 0-2.16-.4-2.84-1.2a4.76 4.76 0 0 1-1.02-3.19c0-.84.15-1.6.45-2.26.3-.67.73-1.2 1.28-1.57.56-.38 1.2-.57 1.94-.57 1.06 0 1.9.37 2.52 1.11.61.75.92 1.76.92 3.04l-.03.72h-5.67c.03.92.28 1.62.73 2.1zm-.04-5.16c-.4.47-.63 1.15-.69 2.04h4.39a3.27 3.27 0 0 0-.58-2.03c-.37-.47-.89-.7-1.54-.7a2 2 0 0 0-1.58.7zm10.64 4.73c0 .76.46 1.14 1.39 1.14.44 0 .9-.1 1.4-.3l.36.98c-.54.3-1.2.44-2 .44-.76 0-1.36-.21-1.82-.63a2.19 2.19 0 0 1-.68-1.7v-8.6h-2.59v-1.07h3.94v9.74zm7.6.43c.45.47 1.03.7 1.72.7.42 0 .8-.06 1.14-.18.35-.12.72-.31 1.12-.57l.62.9a4.76 4.76 0 0 1-2.88.98c-1.22 0-2.16-.4-2.84-1.2a4.76 4.76 0 0 1-1.02-3.19c0-.84.15-1.6.45-2.26.3-.67.73-1.2 1.28-1.57.56-.38 1.2-.57 1.94-.57 1.06 0 1.9.37 2.52 1.11.61.75.92 1.76.92 3.04l-.03.72h-5.67c.03.92.28 1.62.73 2.1zm-.04-5.16c-.4.47-.63 1.15-.69 2.04h4.39a3.27 3.27 0 0 0-.58-2.03c-.37-.47-.89-.7-1.54-.7a2 2 0 0 0-1.58.7zm14.22-1.62l-.2 2.86h-1.08v-1.8h-.08c-1.3 0-2.22.92-2.77 2.78v3.55h1.71V288h-4.38v-1.04h1.33v-6.35h-1.33v-1.04h2.34l.25 2c.34-.73.75-1.27 1.23-1.63a2.88 2.88 0 0 1 1.8-.55c.34 0 .73.06 1.18.18zm8.43 7.32c.1.15.28.27.53.34l-.34.96c-.82-.1-1.33-.5-1.54-1.2-.3.39-.67.68-1.12.88-.46.2-.96.3-1.52.3-.84 0-1.5-.23-1.99-.7a2.5 2.5 0 0 1-.73-1.89c0-.86.34-1.53 1.02-2a5.1 5.1 0 0 1 2.92-.7h1.25v-.69c0-.6-.17-1.02-.51-1.29-.35-.26-.84-.39-1.5-.39-.63 0-1.36.15-2.18.43l-.37-1.02c.99-.35 1.91-.53 2.77-.53 1.02 0 1.8.24 2.34.72.54.48.8 1.15.8 2v4.05c0 .33.06.57.17.73zm-2.46-.04c.38-.22.7-.5.94-.88v-2.16h-1.22c-.9 0-1.54.15-1.93.45-.4.3-.6.73-.6 1.3 0 1.07.54 1.6 1.62 1.6.42 0 .81-.1 1.2-.31zm11 1.17c-.4.1-.81.16-1.22.16-.88 0-1.58-.24-2.08-.7a2.38 2.38 0 0 1-.75-1.83v-5.03h-1.94v-1.05h1.94v-1.9l1.34-.17v2.07h2.93l-.17 1.05h-2.76v5.01c0 .48.13.84.39 1.07.25.24.66.36 1.23.36.58 0 1.11-.14 1.62-.4l.52.9c-.28.2-.63.35-1.04.46zm7.37-12.12c.18.17.27.4.27.68 0 .27-.09.5-.27.68a.99.99 0 0 1-.72.26.94.94 0 0 1-.7-.26.92.92 0 0 1-.26-.68c0-.28.09-.5.26-.68.18-.18.41-.27.7-.27.3 0 .54.09.72.27zm.35 11.03h2.37V288h-6.3v-1.07h2.59v-6.29h-2.51v-1.07h3.85v7.36zm4.83-7.36h1.15l.11 1.18a3.54 3.54 0 0 1 2.78-1.36c1.59 0 2.38.83 2.38 2.5V288h-1.35v-5.12c0-.63-.03-1.1-.1-1.44-.07-.33-.2-.58-.41-.74-.2-.16-.51-.24-.93-.24-.46 0-.89.14-1.3.42-.4.28-.73.6-.99 1V288h-1.34v-8.43zm16.36.38c-.32.1-.66.18-1.04.2-.37.03-.84.04-1.42.04.98.45 1.47 1.16 1.47 2.13a2.7 2.7 0 0 1-.85 2.07c-.56.53-1.33.8-2.32.8-.5 0-.92-.06-1.26-.18a1.1 1.1 0 0 0-.43.81c0 .48.37.72 1.12.72h1.52c.55 0 1.06.1 1.51.3.45.2.81.47 1.07.82a2.12 2.12 0 0 1-.66 3.06c-.7.45-1.68.67-2.96.67-1.3 0-2.22-.2-2.75-.6-.54-.41-.8-1.06-.8-1.94h1.21c0 .35.07.63.2.84.14.2.37.36.7.46.34.1.82.15 1.44.15.9 0 1.57-.11 2-.35.44-.23.65-.58.65-1.04a.98.98 0 0 0-.52-.89c-.36-.2-.8-.3-1.36-.3h-1.5c-.7 0-1.23-.16-1.6-.46-.35-.3-.54-.69-.54-1.15 0-.26.08-.53.24-.79.16-.26.4-.49.7-.68a2.56 2.56 0 0 1-1.07-.94 2.62 2.62 0 0 1-.35-1.38 2.75 2.75 0 0 1 1.61-2.55 3.9 3.9 0 0 1 1.75-.38c.96 0 1.7-.05 2.2-.16.5-.1 1.05-.29 1.64-.54l.4 1.26zm-5.72.95c-.33.35-.5.82-.5 1.42a2 2 0 0 0 .5 1.43c.34.36.84.54 1.5.54.6 0 1.05-.18 1.37-.52.31-.35.47-.84.47-1.47 0-1.28-.62-1.92-1.87-1.92-.65 0-1.14.18-1.47.52z"/><rect width="11" height="11" x="45" fill="#ED00B5" opacity=".2" rx="5.5"/><rect width="11" height="11" x="252" y="223" fill="#ED00B5" opacity=".2" rx="5.5"/><rect width="11" height="11" x="521" y="294" fill="#ED00B5" opacity=".2" rx="5.5"/></g></g></g></svg>