<svg xmlns="http://www.w3.org/2000/svg" xmlns:xlink="http://www.w3.org/1999/xlink" viewBox="0 0 764 508"><defs><rect id="a" width="734" height="508"/></defs><g fill="none" fill-rule="evenodd"><mask id="b" fill="white"><use xlink:href="#a"/></mask><g fill="#D7D7DB" mask="url(#b)" opacity=".2"><g transform="translate(79 76)"><rect width="679" height="17.8" y="35"/><rect width="679" height="17.8" y=".8"/><rect width="679" height="17.8" y="68"/><rect width="679" height="17.8" y="102"/><rect width="679" height="17.8" y="136"/><rect width="679" height="17.8" y="169"/><rect width="679" height="17.8" y="203"/><rect width="679" height="17.8" y="237"/><rect width="679" height="17.8" y="271"/><rect width="679" height="17.8" y="304"/><rect width="679" height="17.8" y="338"/></g></g><g mask="url(#b)"><g transform="translate(28 96)"><path stroke="#ED00B5" stroke-width="2" d="M51 14c39.85 45.17 66.83 76.53 80.95 94.06 21.18 26.3 94.59 117.34 161.82 152.2 67.24 34.86 127.82 43.12 236.65 50.43C602.97 315.56 669.49 318 730 318"/><path fill="#ED00B5" d="M72.86 3.73h1.04L71.14 12h-1.08L67.3 3.73h1.12l2.2 7.08 2.24-7.08zm6.7 7.44c.08.11.2.2.4.25l-.26.72c-.62-.08-1-.38-1.15-.9-.23.3-.5.51-.85.66-.34.16-.72.23-1.13.23-.63 0-1.13-.17-1.5-.53a1.88 1.88 0 0 1-.54-1.41c0-.65.25-1.15.76-1.5.5-.35 1.24-.53 2.19-.53h.94v-.52c0-.44-.13-.77-.39-.96-.25-.2-.63-.3-1.11-.3-.48 0-1.03.11-1.65.33L75 5.94c.74-.26 1.43-.4 2.07-.4.77 0 1.36.18 1.76.54.4.36.6.86.6 1.5v3.04c0 .25.05.43.13.55zm-1.85-.03c.29-.16.52-.38.7-.66V8.86h-.9c-.68 0-1.16.1-1.46.33-.3.23-.44.55-.44.99 0 .8.4 1.2 1.21 1.2.31 0 .61-.08.9-.24zm6.36-.7c0 .57.35.85 1.05.85.32 0 .68-.07 1.05-.21l.27.73c-.4.21-.9.32-1.5.32-.57 0-1.03-.15-1.37-.47a1.64 1.64 0 0 1-.5-1.27V3.94h-1.95v-.8h2.95v7.3zm5.24-.28c0 .41.08.71.26.9.17.19.44.28.8.28.34 0 .67-.1.98-.29.31-.19.56-.43.74-.72V5.68h1.01V12h-.86l-.09-.85c-.25.31-.55.55-.92.72-.36.18-.73.26-1.1.26-.6 0-1.06-.16-1.37-.48-.3-.32-.46-.78-.46-1.38v-4.6h1v4.5zm7.04.6c.34.36.77.53 1.29.53.31 0 .6-.04.86-.14.26-.09.54-.23.83-.42l.47.67a3.57 3.57 0 0 1-2.16.73c-.91 0-1.62-.3-2.13-.9-.5-.59-.76-1.39-.76-2.39 0-.63.11-1.2.33-1.7.23-.5.55-.89.96-1.17.42-.28.9-.43 1.46-.43.8 0 1.43.28 1.89.84.46.55.69 1.31.69 2.27 0 .19-.01.37-.03.54H95.8c.03.7.21 1.22.55 1.57zm-.03-3.87c-.3.35-.48.86-.52 1.53h3.3c-.02-.66-.16-1.17-.44-1.52a1.4 1.4 0 0 0-1.15-.53c-.49 0-.89.18-1.19.52zm15.38 4.14a.84.84 0 0 0 .42-.73c0-.21-.04-.38-.1-.51a.96.96 0 0 0-.44-.36c-.22-.11-.54-.22-.98-.33a4.76 4.76 0 0 1-1.64-.67c-.35-.26-.52-.65-.52-1.16 0-.53.22-.95.66-1.26a2.95 2.95 0 0 1 1.74-.47c.88 0 1.64.24 2.3.7l-.46.7a3.03 3.03 0 0 0-1.82-.58c-.91 0-1.37.28-1.37.83 0 .19.05.35.15.47.1.12.27.22.5.31.22.1.56.2 1.02.33.69.19 1.2.42 1.54.7.34.29.51.7.51 1.25 0 .63-.25 1.1-.77 1.41-.5.32-1.14.47-1.88.47-1 0-1.82-.28-2.47-.85l.56-.66a3.14 3.14 0 0 0 1.91.68c.48 0 .86-.09 1.14-.27zm7.64.98c-.3.08-.61.12-.92.12a2.2 2.2 0 0 1-1.56-.52c-.37-.35-.56-.8-.56-1.37V6.47h-1.45v-.8h1.45V4.26l1-.12v1.55h2.2l-.13.79h-2.06v3.75c0 .36.1.63.29.8.19.18.5.27.92.27.43 0 .84-.1 1.21-.3l.4.69c-.22.14-.48.25-.79.33zm7.12-.84c.08.11.2.2.4.25l-.26.72c-.62-.08-1-.38-1.15-.9-.23.3-.5.51-.85.66-.34.16-.72.23-1.13.23-.63 0-1.13-.17-1.5-.53a1.88 1.88 0 0 1-.54-1.41c0-.65.25-1.15.76-1.5.5-.35 1.24-.53 2.19-.53h.94v-.52c0-.44-.13-.77-.39-.96-.25-.2-.63-.3-1.11-.3-.48 0-1.03.11-1.65.33l-.27-.77c.74-.26 1.43-.4 2.07-.4.77 0 1.36.18 1.76.54.4.36.6.86.6 1.5v3.04c0 .25.05.43.13.55zm-1.85-.03c.29-.16.52-.38.7-.66V8.86h-.9c-.68 0-1.16.1-1.46.33-.3.23-.44.55-.44.99 0 .8.4 1.2 1.21 1.2.31 0 .61-.08.9-.24zm9.05-5.46l-.14 2.14h-.82V6.47h-.06c-.98 0-1.67.7-2.08 2.09v2.66h1.29V12h-3.29v-.78h1V6.46h-1v-.78h1.75l.2 1.5c.25-.55.56-.96.91-1.23.36-.27.8-.4 1.35-.4.26 0 .55.04.89.13zm5.78 6.33c-.3.08-.61.12-.92.12a2.2 2.2 0 0 1-1.56-.52c-.37-.35-.56-.8-.56-1.37V6.47h-1.45v-.8h1.45V4.26l1-.12v1.55h2.2l-.13.79h-2.06v3.75c0 .36.1.63.29.8.19.18.5.27.92.27.43 0 .84-.1 1.21-.3l.4.69c-.22.14-.48.25-.79.33zm5.76-.98a.84.84 0 0 0 .42-.73c0-.21-.04-.38-.1-.51a.96.96 0 0 0-.44-.36c-.22-.11-.54-.22-.98-.33a4.76 4.76 0 0 1-1.64-.67c-.35-.26-.52-.65-.52-1.16 0-.53.22-.95.66-1.26a2.95 2.95 0 0 1 1.74-.47c.88 0 1.64.24 2.3.7l-.46.7a3.03 3.03 0 0 0-1.82-.58c-.91 0-1.37.28-1.37.83 0 .19.05.35.15.47.1.12.27.22.5.31.22.1.56.2 1.02.33.69.19 1.2.42 1.54.7.34.29.51.7.51 1.25 0 .63-.25 1.1-.77 1.41-.5.32-1.14.47-1.88.47-1 0-1.82-.28-2.47-.85l.56-.66a3.14 3.14 0 0 0 1.91.68c.48 0 .86-.09 1.14-.27zm14.76.14c.08.11.2.2.4.25l-.26.72c-.62-.08-1-.38-1.15-.9-.23.3-.5.51-.85.66-.34.16-.72.23-1.13.23-.63 0-1.13-.17-1.5-.53a1.88 1.88 0 0 1-.54-1.41c0-.65.25-1.15.76-1.5.5-.35 1.24-.53 2.19-.53h.94v-.52c0-.44-.13-.77-.39-.96-.25-.2-.63-.3-1.11-.3-.48 0-1.03.11-1.65.33l-.27-.77c.74-.26 1.43-.4 2.07-.4.77 0 1.36.18 1.76.54.4.36.6.86.6 1.5v3.04c0 .25.05.43.13.55zm-1.85-.03c.29-.16.52-.38.7-.66V8.86h-.9c-.68 0-1.16.1-1.46.33-.3.23-.44.55-.44.99 0 .8.4 1.2 1.21 1.2.31 0 .61-.08.9-.24zm8.13.87c-.3.08-.61.12-.92.12a2.2 2.2 0 0 1-1.56-.52c-.37-.35-.56-.8-.56-1.37V6.47h-1.45v-.8h1.45V4.26l1-.12v1.55h2.2l-.13.79h-2.06v3.75c0 .36.1.63.29.8.19.18.5.27.92.27.43 0 .84-.1 1.21-.3l.4.69c-.22.14-.48.25-.79.33zm-92.6 7.34l-.32.75c-.4-.17-.85-.26-1.35-.26-.88 0-1.32.35-1.32 1.04v1.29h2.13l-.1.8h-2.03V28h-1.02v-5.03h-1.5v-.8h1.5V20.9c0-.57.22-1.03.65-1.38.44-.34.99-.52 1.65-.52.6 0 1.17.11 1.72.34zm2.27 6.81c0 .41.08.71.26.9.17.19.44.28.8.28.34 0 .67-.1.98-.29.31-.19.56-.43.74-.72v-4.65h1.01V28h-.86l-.09-.85c-.25.31-.55.55-.92.72-.36.18-.73.26-1.1.26-.6 0-1.06-.16-1.37-.48-.3-.32-.46-.78-.46-1.38v-4.6h1v4.5zm8.16.28c0 .57.35.85 1.05.85.32 0 .68-.07 1.05-.21l.27.73c-.4.21-.9.32-1.5.32-.57 0-1.03-.15-1.37-.47a1.64 1.64 0 0 1-.5-1.27v-6.45h-1.95v-.8h2.95v7.3zm6.7 0c0 .57.35.85 1.05.85.32 0 .68-.07 1.05-.21l.27.73c-.4.21-.9.32-1.5.32-.57 0-1.03-.15-1.37-.47a1.64 1.64 0 0 1-.5-1.27v-6.45h-1.95v-.8h2.95v7.3zm14.23.59a.84.84 0 0 0 .42-.73c0-.21-.04-.38-.1-.51a.96.96 0 0 0-.44-.36c-.22-.11-.54-.22-.98-.33a4.76 4.76 0 0 1-1.64-.67c-.35-.26-.52-.65-.52-1.16 0-.53.22-.95.66-1.26a2.95 2.95 0 0 1 1.74-.47c.88 0 1.64.24 2.3.7l-.46.7a3.03 3.03 0 0 0-1.82-.58c-.91 0-1.37.28-1.37.83 0 .19.05.35.15.47.1.12.27.22.5.31.22.1.56.2 1.02.33.69.19 1.2.42 1.54.7.34.29.51.7.51 1.25 0 .63-.25 1.1-.77 1.41-.5.32-1.14.47-1.88.47-1 0-1.82-.28-2.47-.85l.56-.66a3.14 3.14 0 0 0 1.91.68c.48 0 .86-.09 1.14-.27zm8.52-2.2c0 1-.2 1.8-.62 2.4-.42.6-1.02.9-1.81.9-.69 0-1.25-.24-1.68-.72v3.01l-1.01.12v-8.86h.86l.09.88c.23-.32.5-.58.83-.75.33-.18.68-.27 1.05-.27 1.53 0 2.3 1.1 2.3 3.3zm-3.41-2.18c-.27.19-.5.43-.7.72v3.13c.17.25.38.44.63.58.25.14.52.21.82.21.53 0 .92-.2 1.18-.6.26-.4.4-1.03.4-1.86 0-.83-.12-1.45-.36-1.86-.23-.4-.6-.61-1.09-.61-.32 0-.61.1-.88.29zm6.34 4.11c.34.36.77.53 1.29.53.31 0 .6-.04.86-.14.26-.09.54-.23.83-.42l.47.67a3.57 3.57 0 0 1-2.16.73c-.91 0-1.62-.3-2.13-.9-.5-.59-.76-1.39-.76-2.39 0-.63.11-1.2.33-1.7.23-.5.55-.89.96-1.17.42-.28.9-.43 1.46-.43.8 0 1.43.28 1.89.84.46.55.69 1.31.69 2.27 0 .19-.01.37-.03.54h-4.25c.03.7.21 1.22.55 1.57zm-.03-3.87c-.3.35-.48.86-.52 1.53h3.3c-.02-.66-.16-1.17-.44-1.52a1.4 1.4 0 0 0-1.15-.53c-.49 0-.89.18-1.19.52zm6.73 3.87c.34.36.77.53 1.29.53.31 0 .6-.04.86-.14.26-.09.54-.23.83-.42l.47.67a3.57 3.57 0 0 1-2.16.73c-.91 0-1.62-.3-2.13-.9-.5-.59-.76-1.39-.76-2.39 0-.63.11-1.2.33-1.7.23-.5.55-.89.96-1.17.42-.28.9-.43 1.46-.43.8 0 1.43.28 1.89.84.46.55.69 1.31.69 2.27 0 .19-.01.37-.03.54h-4.25c.03.7.21 1.22.55 1.57zm-.03-3.87c-.3.35-.48.86-.52 1.53h3.3c-.02-.66-.16-1.17-.44-1.52a1.4 1.4 0 0 0-1.15-.53c-.49 0-.89.18-1.19.52zm10.18-3.76V28h-.89l-.1-.83c-.23.32-.5.56-.8.72-.3.16-.63.24-.98.24-.8 0-1.4-.29-1.8-.87-.41-.59-.61-1.4-.61-2.42 0-.63.1-1.2.3-1.7.2-.5.48-.89.85-1.17a2.1 2.1 0 0 1 1.32-.43c.7 0 1.26.26 1.7.76v-3.29l1.01.12zm-3.67 3.85a3.31 3.31 0 0 0-.42 1.86c0 .82.13 1.44.39 1.86.26.42.64.63 1.13.63.6 0 1.12-.34 1.56-1.01v-3.14a1.87 1.87 0 0 0-.63-.61 1.6 1.6 0 0 0-.8-.21c-.54 0-.94.2-1.23.62z"/><path fill="#737373" d="M4.13 168H3.07v-3.18l-2.8-5.09h1.16l2.2 4.15 2.21-4.15h1.08l-2.8 5.08V168zm4.07-4.19h4.2v.87H8.2v-.87zm11.06 3.36c.08.11.2.2.4.25l-.26.72c-.62-.08-1-.38-1.15-.9-.23.3-.5.51-.85.66-.34.16-.72.23-1.13.23-.63 0-1.13-.17-1.5-.53a1.88 1.88 0 0 1-.54-1.41c0-.65.25-1.15.76-1.5.5-.35 1.24-.53 2.19-.53h.94v-.52c0-.44-.13-.77-.39-.96-.25-.2-.63-.3-1.11-.3-.48 0-1.03.11-1.65.33l-.27-.77c.74-.26 1.43-.4 2.07-.4.77 0 1.36.18 1.76.54.4.36.6.86.6 1.5v3.04c0 .25.05.43.13.55zm-1.85-.03c.29-.16.52-.38.7-.66v-1.62h-.9c-.68 0-1.16.1-1.46.33-.3.23-.44.55-.44.99 0 .8.4 1.2 1.21 1.2.31 0 .61-.08.9-.24zm3.36.86l2.33-3.34-2.05-2.98h1.2l1.46 2.35 1.48-2.35h1.16l-2.05 2.94 2.33 3.38H25.4l-1.74-2.71-1.74 2.71h-1.15zm10.17-9.08c.14.13.2.3.2.51 0 .21-.06.38-.2.51a.74.74 0 0 1-.54.2.7.7 0 0 1-.52-.2.69.69 0 0 1-.2-.5c0-.22.07-.39.2-.52a.7.7 0 0 1 .52-.2c.22 0 .4.07.54.2zm.26 8.28h1.78v.8h-4.73v-.8h1.95v-4.72H28.3v-.8h2.9v5.52zm6.8-.17a.84.84 0 0 0 .42-.73c0-.21-.04-.38-.1-.51a.96.96 0 0 0-.44-.36c-.22-.11-.54-.22-.98-.33a4.76 4.76 0 0 1-1.64-.67c-.35-.26-.52-.65-.52-1.16 0-.53.22-.95.66-1.26a2.95 2.95 0 0 1 1.74-.47c.88 0 1.64.24 2.3.7l-.46.7a3.03 3.03 0 0 0-1.82-.58c-.91 0-1.37.28-1.37.83 0 .19.05.35.15.47.1.12.27.22.5.31.22.1.56.2 1.02.33.69.19 1.2.42 1.54.7.34.29.51.7.51 1.25 0 .63-.25 1.1-.77 1.41-.5.32-1.14.47-1.88.47-1 0-1.82-.28-2.47-.85l.56-.66a3.14 3.14 0 0 0 1.91.68c.48 0 .86-.09 1.14-.27zM381.1 356h-1.04v-7.37h-2.58v-.9h6.23l-.11.9h-2.5V356zm6.74-9.08c.14.13.2.3.2.51 0 .21-.06.38-.2.51a.74.74 0 0 1-.54.2.7.7 0 0 1-.52-.2.69.69 0 0 1-.2-.5c0-.22.07-.39.2-.52a.7.7 0 0 1 .52-.2c.22 0 .4.07.54.2zm.26 8.28h1.78v.8h-4.73v-.8h1.95v-4.72h-1.89v-.8h2.9v5.52zm8.55-5.28c.22.25.34.71.34 1.38v4.7h-.93v-4.54c0-.44-.02-.73-.08-.89-.06-.16-.2-.23-.4-.23-.42 0-.78.25-1.11.75V356h-.94v-4.54c0-.44-.03-.73-.08-.89-.06-.16-.2-.23-.41-.23-.4 0-.78.25-1.1.75V356H391v-6.32h.78l.07.74c.2-.28.4-.5.61-.65.21-.15.47-.23.76-.23.6 0 .97.28 1.14.84.2-.27.4-.48.61-.62.22-.14.48-.22.78-.22.36 0 .66.13.89.38zm3 4.84c.34.36.77.53 1.29.53.31 0 .6-.04.86-.14.26-.09.54-.23.83-.42l.47.67a3.57 3.57 0 0 1-2.16.73c-.91 0-1.62-.3-2.13-.9-.5-.59-.76-1.39-.76-2.39 0-.63.11-1.2.33-1.7.23-.5.55-.89.96-1.17.42-.28.9-.43 1.46-.43.8 0 1.43.28 1.89.84.46.55.69 1.31.69 2.27 0 .19-.01.37-.03.54h-4.25c.03.7.21 1.22.55 1.57zm-.03-3.87c-.3.35-.48.86-.52 1.53h3.3c-.02-.66-.16-1.17-.44-1.52a1.4 1.4 0 0 0-1.15-.53c-.49 0-.89.18-1.19.52z"/><path fill="#ED00B5" d="M263.56 212.09c-.72.6-1.61.91-2.67.91H259v-8.27h1.77c1.16 0 2.1.3 2.8.88.72.58 1.08 1.65 1.08 3.21 0 1.57-.36 2.66-1.08 3.27zm-.4-5.32c-.25-.48-.55-.8-.91-.95a3.08 3.08 0 0 0-1.24-.24h-.97v6.58h.98c.72 0 1.31-.25 1.79-.74.47-.49.71-1.36.71-2.6 0-.9-.12-1.58-.37-2.05zm4.09 5c.34.35.77.52 1.29.52.31 0 .6-.04.86-.14.26-.09.54-.23.83-.42l.47.67a3.57 3.57 0 0 1-2.16.73c-.91 0-1.62-.3-2.13-.9-.5-.59-.76-1.39-.76-2.39 0-.63.11-1.2.33-1.7.23-.5.55-.89.96-1.17.42-.28.9-.43 1.46-.43.8 0 1.43.28 1.89.84.46.55.69 1.31.69 2.27 0 .19-.01.37-.03.54h-4.25c.03.7.21 1.22.55 1.57zm-.03-3.88c-.3.35-.48.86-.52 1.53h3.3c-.02-.66-.16-1.17-.44-1.52a1.4 1.4 0 0 0-1.15-.53c-.49 0-.89.18-1.19.52zm9.9 3.83l.47.66a3.47 3.47 0 0 1-2.12.76c-.94 0-1.67-.3-2.2-.89a3.45 3.45 0 0 1-.78-2.38c0-.63.12-1.2.36-1.7.23-.51.57-.9 1.02-1.2.45-.28.98-.43 1.6-.43.81 0 1.52.25 2.11.75l-.5.66a2.94 2.94 0 0 0-1.62-.55c-.57 0-1.03.2-1.37.63-.34.42-.5 1.03-.5 1.84 0 .8.16 1.4.5 1.8.34.4.8.6 1.38.6.55 0 1.1-.19 1.64-.55zm7.34-5.04l-.14 2.14h-.82v-1.35h-.06c-.98 0-1.67.7-2.08 2.09v2.66h1.29v.78h-3.29v-.78h1v-4.76h-1v-.78h1.75l.2 1.5c.25-.55.56-.96.91-1.23.36-.27.8-.4 1.35-.4.26 0 .55.04.89.13zm2.89 5.08c.34.36.77.53 1.29.53.31 0 .6-.04.86-.14.26-.09.54-.23.83-.42l.47.67a3.57 3.57 0 0 1-2.16.73c-.91 0-1.62-.3-2.13-.9-.5-.59-.76-1.39-.76-2.39 0-.63.11-1.2.33-1.7.23-.5.55-.89.96-1.17.42-.28.9-.43 1.46-.43.8 0 1.43.28 1.89.84.46.55.69 1.31.69 2.27 0 .19-.01.37-.03.54h-4.25c.03.7.21 1.22.55 1.57zm-.03-3.87c-.3.35-.48.86-.52 1.53h3.3c-.02-.66-.16-1.17-.44-1.52a1.4 1.4 0 0 0-1.15-.53c-.49 0-.89.18-1.19.52zm10.04 4.28c.08.11.2.2.4.25l-.26.72c-.62-.08-1-.38-1.15-.9-.23.3-.5.51-.85.66-.34.16-.72.23-1.13.23-.63 0-1.13-.17-1.5-.53a1.88 1.88 0 0 1-.54-1.41c0-.65.25-1.15.76-1.5.5-.35 1.24-.53 2.19-.53h.94v-.52c0-.44-.13-.77-.39-.96-.25-.2-.63-.3-1.11-.3-.48 0-1.03.11-1.65.33l-.27-.77c.74-.26 1.43-.4 2.07-.4.77 0 1.36.18 1.76.54.4.36.6.86.6 1.5v3.04c0 .25.05.43.13.55zm-1.85-.03c.29-.16.52-.38.7-.66v-1.62h-.9c-.68 0-1.16.1-1.46.33-.3.23-.44.55-.44.99 0 .8.4 1.2 1.21 1.2.31 0 .61-.08.9-.24zm7.19-.11a.84.84 0 0 0 .42-.73c0-.21-.04-.38-.1-.51a.96.96 0 0 0-.44-.36c-.22-.11-.54-.22-.98-.33a4.76 4.76 0 0 1-1.64-.67c-.35-.26-.52-.65-.52-1.16 0-.53.22-.95.66-1.26a2.95 2.95 0 0 1 1.74-.47c.88 0 1.64.24 2.3.7l-.46.7a3.03 3.03 0 0 0-1.82-.58c-.91 0-1.37.28-1.37.83 0 .19.05.35.15.47.1.12.27.22.5.31.22.1.56.2 1.02.33.69.19 1.2.42 1.54.7.34.29.51.7.51 1.25 0 .63-.25 1.1-.77 1.41-.5.32-1.14.47-1.88.47-1 0-1.82-.28-2.47-.85l.56-.66a3.14 3.14 0 0 0 1.91.68c.48 0 .86-.09 1.14-.27zm6.34-8.1c.14.12.2.3.2.5 0 .21-.06.38-.2.51a.74.74 0 0 1-.54.2.7.7 0 0 1-.52-.2.69.69 0 0 1-.2-.5c0-.22.07-.39.2-.52a.7.7 0 0 1 .52-.2c.22 0 .4.07.54.2zm.26 8.27h1.78v.8h-4.73v-.8h1.95v-4.72h-1.89v-.8h2.9v5.52zm3.5-5.52h.86l.09.88a2.66 2.66 0 0 1 2.09-1.02c1.18 0 1.77.63 1.77 1.88V213h-1v-3.84c0-.47-.03-.83-.08-1.08a.91.91 0 0 0-.31-.55c-.15-.12-.38-.18-.7-.18-.34 0-.66.1-.97.31-.3.2-.55.46-.74.74v4.6h-1.01v-6.32zm12.15.28c-.24.08-.5.13-.78.15-.28.02-.64.03-1.07.03.74.34 1.1.87 1.1 1.6 0 .64-.2 1.16-.63 1.55-.43.4-1 .6-1.74.6-.38 0-.7-.05-.95-.13a.83.83 0 0 0-.32.6c0 .37.28.55.84.55h1.14c.41 0 .79.07 1.13.22.34.15.6.35.8.62a1.59 1.59 0 0 1-.5 2.3c-.51.33-1.25.5-2.21.5-.98 0-1.67-.16-2.07-.46-.4-.3-.6-.79-.6-1.45h.91c0 .26.05.47.15.63.1.15.28.27.53.34.25.08.61.12 1.08.12.68 0 1.18-.09 1.5-.27.33-.17.49-.43.49-.78a.73.73 0 0 0-.4-.66c-.26-.16-.6-.24-1.02-.24h-1.13c-.52 0-.91-.11-1.18-.34-.28-.23-.41-.51-.41-.86 0-.2.06-.4.18-.59.12-.2.29-.37.51-.51a1.92 1.92 0 0 1-.8-.7 1.97 1.97 0 0 1-.25-1.04 2.06 2.06 0 0 1 1.2-1.91c.38-.2.82-.29 1.32-.29.72 0 1.27-.04 1.64-.12.38-.08.79-.21 1.24-.4l.3.94zm-4.3.72c-.25.26-.37.61-.37 1.06 0 .45.13.8.38 1.07s.62.4 1.12.4c.45 0 .79-.12 1.03-.38.23-.26.35-.63.35-1.1 0-.96-.47-1.44-1.4-1.44-.5 0-.86.13-1.1.39zm16.9-2.95h1.05l-2.76 8.27h-1.08l-2.76-8.27h1.12l2.2 7.08 2.24-7.08zm6.7 7.44c.09.11.22.2.4.25l-.25.72c-.62-.08-1-.38-1.15-.9-.23.3-.5.51-.85.66-.34.16-.72.23-1.13.23-.63 0-1.13-.17-1.5-.53a1.88 1.88 0 0 1-.54-1.41c0-.65.25-1.15.76-1.5.5-.35 1.24-.53 2.19-.53h.94v-.52c0-.44-.13-.77-.39-.96-.25-.2-.63-.3-1.11-.3-.48 0-1.03.11-1.65.33l-.27-.77c.74-.26 1.43-.4 2.07-.4.77 0 1.36.18 1.76.54.4.36.6.86.6 1.5v3.04c0 .25.05.43.13.55zm-1.84-.03c.29-.16.52-.38.7-.66v-1.62h-.9c-.68 0-1.16.1-1.46.33-.3.23-.44.55-.44.99 0 .8.4 1.2 1.21 1.2.31 0 .61-.08.9-.24zm6.36-.7c0 .57.35.85 1.05.85.32 0 .68-.07 1.05-.21l.27.73c-.4.21-.9.32-1.5.32-.57 0-1.03-.15-1.37-.47a1.64 1.64 0 0 1-.5-1.27v-6.45h-1.95v-.8h2.95v7.3zm5.24-.28c0 .41.08.71.26.9.17.19.44.28.8.28.34 0 .67-.1.98-.29.31-.19.56-.43.74-.72v-4.65h1.01V213h-.86l-.09-.85c-.25.31-.55.55-.92.72-.36.18-.73.26-1.1.26-.6 0-1.06-.16-1.37-.48-.3-.32-.46-.78-.46-1.38v-4.6h1v4.5zm7.04.6c.34.36.77.53 1.29.53.31 0 .6-.04.86-.14.26-.09.54-.23.83-.42l.47.67a3.57 3.57 0 0 1-2.16.73c-.91 0-1.62-.3-2.13-.9-.5-.59-.76-1.39-.76-2.39 0-.63.11-1.2.33-1.7.23-.5.55-.89.96-1.17.42-.28.9-.43 1.46-.43.8 0 1.43.28 1.89.84.46.55.69 1.31.69 2.27 0 .19-.01.37-.03.54h-4.25c.03.7.21 1.22.55 1.57zm-.03-3.87c-.3.35-.48.86-.52 1.53h3.3c-.02-.66-.16-1.17-.44-1.52a1.4 1.4 0 0 0-1.15-.53c-.49 0-.89.18-1.19.52zm-96.94 20.08c-.24.37-.58.65-1.04.86a4.74 4.74 0 0 1-3.26.04 3.6 3.6 0 0 1-1.26-.78l.62-.71c.3.29.64.5 1.01.66.38.15.8.23 1.28.23.55 0 1-.13 1.37-.4.37-.26.55-.64.55-1.14 0-.28-.05-.51-.15-.7-.1-.18-.29-.34-.55-.49a5.47 5.47 0 0 0-1.1-.42 5.87 5.87 0 0 1-2-.93 1.77 1.77 0 0 1-.66-1.45c0-.41.11-.78.33-1.1.23-.34.54-.59.95-.77a4.14 4.14 0 0 1 2.85-.03c.43.16.82.4 1.18.7l-.62.68a2.92 2.92 0 0 0-1.98-.74c-.48 0-.88.1-1.19.3-.31.22-.47.52-.47.92 0 .24.07.44.2.61.12.17.34.33.63.47.3.14.71.3 1.25.44.78.23 1.37.52 1.8.88.41.36.62.9.62 1.6 0 .49-.12.91-.36 1.27zm6.94-2.14c0 1-.2 1.8-.62 2.4-.42.6-1.02.9-1.81.9-.69 0-1.25-.24-1.68-.72v3.01l-1.01.12v-8.86h.86l.09.88c.23-.32.5-.58.83-.75.33-.18.68-.27 1.05-.27 1.53 0 2.3 1.1 2.3 3.3zm-3.41-2.18c-.27.19-.5.43-.7.72v3.13c.17.25.38.44.63.58.25.14.52.21.82.21.53 0 .92-.2 1.18-.6.26-.4.4-1.03.4-1.86 0-.83-.12-1.45-.36-1.86-.23-.4-.6-.61-1.09-.61-.32 0-.61.1-.88.29zm6.34 4.11c.34.36.77.53 1.29.53.31 0 .6-.04.86-.14.26-.09.54-.23.83-.42l.47.67a3.57 3.57 0 0 1-2.16.73c-.91 0-1.62-.3-2.13-.9-.5-.59-.76-1.39-.76-2.39 0-.63.11-1.2.33-1.7.23-.5.55-.89.96-1.17.42-.28.9-.43 1.46-.43.8 0 1.43.28 1.89.84.46.55.69 1.31.69 2.27 0 .19-.01.37-.03.54h-4.25c.03.7.21 1.22.55 1.57zm-.03-3.87c-.3.35-.48.86-.52 1.53h3.3c-.02-.66-.16-1.17-.44-1.52a1.4 1.4 0 0 0-1.15-.53c-.49 0-.89.18-1.19.52zm6.73 3.87c.34.36.77.53 1.29.53.31 0 .6-.04.86-.14.26-.09.54-.23.83-.42l.47.67a3.57 3.57 0 0 1-2.16.73c-.91 0-1.62-.3-2.13-.9-.5-.59-.76-1.39-.76-2.39 0-.63.11-1.2.33-1.7.23-.5.55-.89.96-1.17.42-.28.9-.43 1.46-.43.8 0 1.43.28 1.89.84.46.55.69 1.31.69 2.27 0 .19-.01.37-.03.54h-4.25c.03.7.21 1.22.55 1.57zm-.03-3.87c-.3.35-.48.86-.52 1.53h3.3c-.02-.66-.16-1.17-.44-1.52a1.4 1.4 0 0 0-1.15-.53c-.49 0-.89.18-1.19.52zm10.18-3.76V229h-.89l-.1-.83c-.23.32-.5.56-.8.72-.3.16-.63.24-.98.24-.8 0-1.4-.29-1.8-.87-.41-.59-.61-1.4-.61-2.42 0-.63.1-1.2.3-1.7.2-.5.48-.89.85-1.17a2.1 2.1 0 0 1 1.32-.43c.7 0 1.26.26 1.7.76v-3.29l1.01.12zm-3.67 3.85a3.31 3.31 0 0 0-.42 1.86c0 .82.13 1.44.39 1.86.26.42.64.63 1.13.63.6 0 1.12-.34 1.56-1.01v-3.14a1.87 1.87 0 0 0-.63-.61 1.6 1.6 0 0 0-.8-.21c-.54 0-.94.2-1.23.62zm17.07-3.85V229h-.89l-.1-.83c-.23.32-.5.56-.8.72-.3.16-.63.24-.98.24-.8 0-1.4-.29-1.8-.87-.41-.59-.61-1.4-.61-2.42 0-.63.1-1.2.3-1.7.2-.5.48-.89.85-1.17a2.1 2.1 0 0 1 1.32-.43c.7 0 1.26.26 1.7.76v-3.29l1.01.12zm-3.67 3.85a3.31 3.31 0 0 0-.42 1.86c0 .82.13 1.44.39 1.86.26.42.64.63 1.13.63.6 0 1.12-.34 1.56-1.01v-3.14a1.87 1.87 0 0 0-.63-.61 1.6 1.6 0 0 0-.8-.21c-.54 0-.94.2-1.23.62zm6.92 3.78c.34.36.77.53 1.29.53.31 0 .6-.04.86-.14.26-.09.54-.23.83-.42l.47.67a3.57 3.57 0 0 1-2.16.73c-.91 0-1.62-.3-2.13-.9-.5-.59-.76-1.39-.76-2.39 0-.63.11-1.2.33-1.7.23-.5.55-.89.96-1.17.42-.28.9-.43 1.46-.43.8 0 1.43.28 1.89.84.46.55.69 1.31.69 2.27 0 .19-.01.37-.03.54h-4.25c.03.7.21 1.22.55 1.57zm-.03-3.87c-.3.35-.48.86-.52 1.53h3.3c-.02-.66-.16-1.17-.44-1.52a1.4 1.4 0 0 0-1.15-.53c-.49 0-.89.18-1.19.52zm9.9 3.83l.47.66a3.47 3.47 0 0 1-2.12.76c-.94 0-1.67-.3-2.2-.89a3.45 3.45 0 0 1-.78-2.38c0-.63.12-1.2.36-1.7.23-.51.57-.9 1.02-1.2.45-.28.98-.43 1.6-.43.81 0 1.52.25 2.11.75l-.5.66a2.94 2.94 0 0 0-1.62-.55c-.57 0-1.03.2-1.37.63-.34.42-.5 1.03-.5 1.84 0 .8.16 1.4.5 1.8.34.4.8.6 1.38.6.55 0 1.1-.19 1.64-.55zm3.53.04c.34.36.77.53 1.29.53.31 0 .6-.04.86-.14.26-.09.54-.23.83-.42l.47.67a3.57 3.57 0 0 1-2.16.73c-.91 0-1.62-.3-2.13-.9-.5-.59-.76-1.39-.76-2.39 0-.63.11-1.2.33-1.7.23-.5.55-.89.96-1.17.42-.28.9-.43 1.46-.43.8 0 1.43.28 1.89.84.46.55.69 1.31.69 2.27 0 .19-.01.37-.03.54h-4.25c.03.7.21 1.22.55 1.57zm-.03-3.87c-.3.35-.48.86-.52 1.53h3.3c-.02-.66-.16-1.17-.44-1.52a1.4 1.4 0 0 0-1.15-.53c-.49 0-.89.18-1.19.52zm7.85 3.55c0 .57.35.85 1.05.85.32 0 .68-.07 1.05-.21l.27.73c-.4.21-.9.32-1.5.32-.57 0-1.03-.15-1.37-.47a1.64 1.64 0 0 1-.5-1.27v-6.45h-1.95v-.8h2.95v7.3zm5.58.32c.34.36.77.53 1.29.53.31 0 .6-.04.86-.14.26-.09.54-.23.83-.42l.47.67a3.57 3.57 0 0 1-2.16.73c-.91 0-1.62-.3-2.13-.9-.5-.59-.76-1.39-.76-2.39 0-.63.11-1.2.33-1.7.23-.5.55-.89.96-1.17.42-.28.9-.43 1.46-.43.8 0 1.43.28 1.89.84.46.55.69 1.31.69 2.27 0 .19-.01.37-.03.54h-4.25c.03.7.21 1.22.55 1.57zm-.03-3.87c-.3.35-.48.86-.52 1.53h3.3c-.02-.66-.16-1.17-.44-1.52a1.4 1.4 0 0 0-1.15-.53c-.49 0-.89.18-1.19.52zm10.54-1.21l-.14 2.14h-.82v-1.35h-.06c-.98 0-1.67.7-2.08 2.09v2.66h1.29v.78h-3.29v-.78h1v-4.76h-1v-.78h1.75l.2 1.5c.25-.55.56-.96.91-1.23.36-.27.8-.4 1.35-.4.26 0 .55.04.89.13zm6.2 5.49c.08.11.2.2.4.25l-.26.72c-.62-.08-1-.38-1.15-.9-.23.3-.5.51-.85.66-.34.16-.72.23-1.13.23-.63 0-1.13-.17-1.5-.53a1.88 1.88 0 0 1-.54-1.41c0-.65.25-1.15.76-1.5.5-.35 1.24-.53 2.19-.53h.94v-.52c0-.44-.13-.77-.39-.96-.25-.2-.63-.3-1.11-.3-.48 0-1.03.11-1.65.33l-.27-.77c.74-.26 1.43-.4 2.07-.4.77 0 1.36.18 1.76.54.4.36.6.86.6 1.5v3.04c0 .25.05.43.13.55zm-1.85-.03c.29-.16.52-.38.7-.66v-1.62h-.9c-.68 0-1.16.1-1.46.33-.3.23-.44.55-.44.99 0 .8.4 1.2 1.21 1.2.31 0 .61-.08.9-.24zm8.13.87c-.3.08-.61.12-.92.12a2.2 2.2 0 0 1-1.56-.52c-.37-.35-.56-.8-.56-1.37v-3.77h-1.45v-.8h1.45v-1.42l1-.12v1.55h2.2l-.13.79h-2.06v3.75c0 .36.1.63.29.8.19.18.5.27.92.27.43 0 .84-.1 1.21-.3l.4.69c-.22.14-.48.25-.79.33zm5.4-9.09c.14.13.2.3.2.51 0 .21-.06.38-.2.51a.74.74 0 0 1-.54.2.7.7 0 0 1-.52-.2.69.69 0 0 1-.2-.5c0-.22.07-.39.2-.52a.7.7 0 0 1 .52-.2c.22 0 .4.07.54.2zm.26 8.28h1.78v.8h-4.73v-.8h1.95v-4.72H360v-.8h2.9v5.52zm3.5-5.52h.86l.09.88a2.66 2.66 0 0 1 2.09-1.02c1.18 0 1.77.63 1.77 1.88V229h-1v-3.84c0-.47-.03-.83-.08-1.08a.91.91 0 0 0-.31-.55c-.15-.12-.38-.18-.7-.18-.34 0-.66.1-.97.31-.3.2-.55.46-.74.74v4.6h-1.01v-6.32zm12.15.28c-.24.08-.5.13-.78.15-.28.02-.64.03-1.07.03.74.34 1.1.87 1.1 1.6 0 .64-.2 1.16-.63 1.55-.43.4-1 .6-1.74.6-.38 0-.7-.05-.95-.13a.83.83 0 0 0-.32.6c0 .37.28.55.84.55h1.14c.41 0 .79.07 1.13.22.34.15.6.35.8.62a1.59 1.59 0 0 1-.5 2.3c-.51.33-1.25.5-2.21.5-.98 0-1.67-.16-2.07-.46-.4-.3-.6-.79-.6-1.45h.91c0 .26.05.47.15.63.1.15.28.27.53.34.25.08.61.12 1.08.12.68 0 1.18-.09 1.5-.27.33-.17.49-.43.49-.78a.73.73 0 0 0-.4-.66c-.26-.16-.6-.24-1.02-.24h-1.13c-.52 0-.91-.11-1.18-.34-.28-.23-.41-.51-.41-.86 0-.2.06-.4.18-.59.12-.2.29-.37.51-.51a1.92 1.92 0 0 1-.8-.7 1.97 1.97 0 0 1-.25-1.04 2.06 2.06 0 0 1 1.2-1.91c.38-.2.82-.29 1.32-.29.72 0 1.27-.04 1.64-.12.38-.08.79-.21 1.24-.4l.3.94zm-4.3.72c-.25.26-.37.61-.37 1.06 0 .45.13.8.38 1.07s.62.4 1.12.4c.45 0 .79-.12 1.03-.38.23-.26.35-.63.35-1.1 0-.96-.47-1.44-1.4-1.44-.5 0-.86.13-1.1.39zm157.3 55.4c-.71.62-1.6.92-2.66.92H527v-8.27h1.77c1.16 0 2.1.3 2.8.88.72.58 1.08 1.65 1.08 3.21 0 1.57-.36 2.66-1.08 3.27zm-.4-5.31c-.24-.48-.54-.8-.9-.95a3.08 3.08 0 0 0-1.24-.24h-.97v6.58h.98c.72 0 1.31-.25 1.79-.74.47-.49.71-1.36.71-2.6 0-.9-.12-1.58-.37-2.05zm4.1 5c.34.35.77.52 1.29.52.31 0 .6-.04.86-.14.26-.09.54-.23.83-.42l.47.67a3.57 3.57 0 0 1-2.16.73c-.91 0-1.62-.3-2.13-.9-.5-.59-.76-1.39-.76-2.39 0-.63.11-1.2.33-1.7.23-.5.55-.89.96-1.17.42-.28.9-.43 1.46-.43.8 0 1.43.28 1.89.84.46.55.69 1.31.69 2.27 0 .19-.01.37-.03.54h-4.25c.03.7.21 1.22.55 1.57zm-.03-3.88c-.3.35-.48.86-.52 1.53h3.3c-.02-.66-.16-1.17-.44-1.52a1.4 1.4 0 0 0-1.15-.53c-.49 0-.89.18-1.19.52zm9.9 3.83l.47.66a3.47 3.47 0 0 1-2.12.76c-.94 0-1.67-.3-2.2-.89a3.45 3.45 0 0 1-.78-2.38c0-.63.12-1.2.36-1.7.23-.51.57-.9 1.02-1.2.45-.28.98-.43 1.6-.43.81 0 1.52.25 2.11.75l-.5.66a2.94 2.94 0 0 0-1.62-.55c-.57 0-1.03.2-1.37.63-.34.42-.5 1.03-.5 1.84 0 .8.16 1.4.5 1.8.34.4.8.6 1.38.6.55 0 1.1-.19 1.64-.55zm7.34-5.04l-.14 2.14h-.82v-1.35h-.06c-.98 0-1.67.7-2.08 2.09v2.66h1.29v.78h-3.29v-.78h1v-4.76h-1v-.78h1.75l.2 1.5c.25-.55.56-.96.91-1.23.36-.27.8-.4 1.35-.4.26 0 .55.04.89.13zm2.89 5.08c.34.36.77.53 1.29.53.31 0 .6-.04.86-.14.26-.09.54-.23.83-.42l.47.67a3.57 3.57 0 0 1-2.16.73c-.91 0-1.62-.3-2.13-.9-.5-.59-.76-1.39-.76-2.39 0-.63.11-1.2.33-1.7.23-.5.55-.89.96-1.17.42-.28.9-.43 1.46-.43.8 0 1.43.28 1.89.84.46.55.69 1.31.69 2.27 0 .19-.01.37-.03.54h-4.25c.03.7.21 1.22.55 1.57zm-.03-3.87c-.3.35-.48.86-.52 1.53h3.3c-.02-.66-.16-1.17-.44-1.52a1.4 1.4 0 0 0-1.15-.53c-.49 0-.89.18-1.19.52zm10.04 4.28c.08.11.2.2.4.25l-.26.72c-.62-.08-1-.38-1.15-.9-.23.3-.5.51-.85.66-.34.16-.72.23-1.13.23-.63 0-1.13-.17-1.5-.53a1.88 1.88 0 0 1-.54-1.41c0-.65.25-1.15.76-1.5.5-.35 1.24-.53 2.19-.53h.94v-.52c0-.44-.13-.77-.39-.96-.25-.2-.63-.3-1.11-.3-.48 0-1.03.11-1.65.33l-.27-.77c.74-.26 1.43-.4 2.07-.4.77 0 1.36.18 1.76.54.4.36.6.86.6 1.5v3.04c0 .25.05.43.13.55zm-1.85-.03c.29-.16.52-.38.7-.66v-1.62h-.9c-.68 0-1.16.1-1.46.33-.3.23-.44.55-.44.99 0 .8.4 1.2 1.21 1.2.31 0 .61-.08.9-.24zm7.19-.11a.84.84 0 0 0 .42-.73c0-.21-.04-.38-.1-.51a.96.96 0 0 0-.44-.36c-.22-.11-.54-.22-.98-.33a4.76 4.76 0 0 1-1.64-.67c-.35-.26-.52-.65-.52-1.16 0-.53.22-.95.66-1.26a2.95 2.95 0 0 1 1.74-.47c.88 0 1.64.24 2.3.7l-.46.7a3.03 3.03 0 0 0-1.82-.58c-.91 0-1.37.28-1.37.83 0 .19.05.35.15.47.1.12.27.22.5.31.22.1.56.2 1.02.33.69.19 1.2.42 1.54.7.34.29.51.7.51 1.25 0 .63-.25 1.1-.77 1.41-.5.32-1.14.47-1.88.47-1 0-1.82-.28-2.47-.85l.56-.66a3.14 3.14 0 0 0 1.91.68c.48 0 .86-.09 1.14-.27zm6.34-8.1c.14.12.2.3.2.5 0 .21-.06.38-.2.51a.74.74 0 0 1-.54.2.7.7 0 0 1-.52-.2.69.69 0 0 1-.2-.5c0-.22.07-.39.2-.52a.7.7 0 0 1 .52-.2c.22 0 .4.07.54.2zm.26 8.27h1.78v.8h-4.73v-.8h1.95v-4.72h-1.89v-.8h2.9v5.52zm3.5-5.52h.86l.09.88a2.66 2.66 0 0 1 2.09-1.02c1.18 0 1.77.63 1.77 1.88V280h-1v-3.84c0-.47-.03-.83-.08-1.08a.91.91 0 0 0-.31-.55c-.15-.12-.38-.18-.7-.18-.34 0-.66.1-.97.31-.3.2-.55.46-.74.74v4.6h-1.01v-6.32zm12.15.28c-.24.08-.5.13-.78.15-.28.02-.64.03-1.07.03.74.34 1.1.87 1.1 1.6 0 .64-.2 1.16-.63 1.55-.43.4-1 .6-1.74.6-.38 0-.7-.05-.95-.13a.83.83 0 0 0-.32.6c0 .37.28.55.84.55h1.14c.41 0 .79.07 1.13.22.34.15.6.35.8.62a1.59 1.59 0 0 1-.5 2.3c-.51.33-1.25.5-2.21.5-.98 0-1.67-.16-2.07-.46-.4-.3-.6-.79-.6-1.45h.91c0 .26.05.47.15.63.1.15.28.27.53.34.25.08.61.12 1.08.12.68 0 1.18-.09 1.5-.27.33-.17.49-.43.49-.78a.73.73 0 0 0-.4-.66c-.26-.16-.6-.24-1.02-.24h-1.13c-.52 0-.91-.11-1.18-.34-.28-.23-.41-.51-.41-.86 0-.2.06-.4.18-.59.12-.2.29-.37.51-.51a1.92 1.92 0 0 1-.8-.7 1.97 1.97 0 0 1-.25-1.04 2.06 2.06 0 0 1 1.2-1.91c.38-.2.82-.29 1.32-.29.72 0 1.27-.04 1.64-.12.38-.08.79-.21 1.24-.4l.3.94zm-4.3.72c-.25.26-.37.61-.37 1.06 0 .45.13.8.38 1.07s.62.4 1.12.4c.45 0 .79-.12 1.03-.38.23-.26.35-.63.35-1.1 0-.96-.47-1.44-1.4-1.44-.5 0-.86.13-1.1.39zm16.9-2.95h1.05l-2.76 8.27h-1.08l-2.76-8.27h1.12l2.2 7.08 2.24-7.08zm6.7 7.44c.09.11.22.2.4.25l-.25.72c-.62-.08-1-.38-1.15-.9-.23.3-.5.51-.85.66-.34.16-.72.23-1.13.23-.63 0-1.13-.17-1.5-.53a1.88 1.88 0 0 1-.54-1.41c0-.65.25-1.15.76-1.5.5-.35 1.24-.53 2.19-.53h.94v-.52c0-.44-.13-.77-.39-.96-.25-.2-.63-.3-1.11-.3-.48 0-1.03.11-1.65.33l-.27-.77c.74-.26 1.43-.4 2.07-.4.77 0 1.36.18 1.76.54.4.36.6.86.6 1.5v3.04c0 .25.05.43.13.55zm-1.84-.03c.29-.16.52-.38.7-.66v-1.62h-.9c-.68 0-1.16.1-1.46.33-.3.23-.44.55-.44.99 0 .8.4 1.2 1.21 1.2.31 0 .61-.08.9-.24zm6.36-.7c0 .57.35.85 1.05.85.32 0 .68-.07 1.05-.21l.27.73c-.4.21-.9.32-1.5.32-.57 0-1.03-.15-1.37-.47a1.64 1.64 0 0 1-.5-1.27v-6.45h-1.95v-.8h2.95v7.3zm5.24-.28c0 .41.08.71.26.9.17.19.44.28.8.28.34 0 .67-.1.98-.29.31-.19.56-.43.74-.72v-4.65h1.01V280h-.86l-.09-.85c-.25.31-.55.55-.92.72-.36.18-.73.26-1.1.26-.6 0-1.06-.16-1.37-.48-.3-.32-.46-.78-.46-1.38v-4.6h1v4.5zm7.04.6c.34.36.77.53 1.29.53.31 0 .6-.04.86-.14.26-.09.54-.23.83-.42l.47.67a3.57 3.57 0 0 1-2.16.73c-.91 0-1.62-.3-2.13-.9-.5-.59-.76-1.39-.76-2.39 0-.63.11-1.2.33-1.7.23-.5.55-.89.96-1.17.42-.28.9-.43 1.46-.43.8 0 1.43.28 1.89.84.46.55.69 1.31.69 2.27 0 .19-.01.37-.03.54h-4.25c.03.7.21 1.22.55 1.57zm-.03-3.87c-.3.35-.48.86-.52 1.53h3.3c-.02-.66-.16-1.17-.44-1.52a1.4 1.4 0 0 0-1.15-.53c-.49 0-.89.18-1.19.52zm-96.94 20.08c-.24.37-.58.65-1.04.86a4.74 4.74 0 0 1-3.26.04 3.6 3.6 0 0 1-1.26-.78l.62-.71c.3.29.64.5 1.01.66.38.15.8.23 1.28.23.55 0 1-.13 1.37-.4.37-.26.55-.64.55-1.14 0-.28-.05-.51-.15-.7-.1-.18-.29-.34-.55-.49a5.47 5.47 0 0 0-1.1-.42 5.87 5.87 0 0 1-2-.93 1.77 1.77 0 0 1-.66-1.45c0-.41.11-.78.33-1.1.23-.34.54-.59.95-.77a4.14 4.14 0 0 1 2.85-.03c.43.16.82.4 1.18.7l-.62.68a2.92 2.92 0 0 0-1.98-.74c-.48 0-.88.1-1.19.3-.31.22-.47.52-.47.92 0 .24.07.44.2.61.12.17.34.33.63.47.3.14.71.3 1.25.44.78.23 1.37.52 1.8.88.41.36.62.9.62 1.6 0 .49-.12.91-.36 1.27zm6.94-2.14c0 1-.2 1.8-.62 2.4-.42.6-1.02.9-1.81.9-.69 0-1.25-.24-1.68-.72v3.01l-1.01.12v-8.86h.86l.09.88c.23-.32.5-.58.83-.75.33-.18.68-.27 1.05-.27 1.53 0 2.3 1.1 2.3 3.3zm-3.41-2.18c-.27.19-.5.43-.7.72v3.13c.17.25.38.44.63.58.25.14.52.21.82.21.53 0 .92-.2 1.18-.6.26-.4.4-1.03.4-1.86 0-.83-.12-1.45-.36-1.86-.23-.4-.6-.61-1.09-.61-.32 0-.61.1-.88.29zm6.34 4.11c.34.36.77.53 1.29.53.31 0 .6-.04.86-.14.26-.09.54-.23.83-.42l.47.67a3.57 3.57 0 0 1-2.16.73c-.91 0-1.62-.3-2.13-.9-.5-.59-.76-1.39-.76-2.39 0-.63.11-1.2.33-1.7.23-.5.55-.89.96-1.17.42-.28.9-.43 1.46-.43.8 0 1.43.28 1.89.84.46.55.69 1.31.69 2.27 0 .19-.01.37-.03.54h-4.25c.03.7.21 1.22.55 1.57zm-.03-3.87c-.3.35-.48.86-.52 1.53h3.3c-.02-.66-.16-1.17-.44-1.52a1.4 1.4 0 0 0-1.15-.53c-.49 0-.89.18-1.19.52zm6.73 3.87c.34.36.77.53 1.29.53.31 0 .6-.04.86-.14.26-.09.54-.23.83-.42l.47.67a3.57 3.57 0 0 1-2.16.73c-.91 0-1.62-.3-2.13-.9-.5-.59-.76-1.39-.76-2.39 0-.63.11-1.2.33-1.7.23-.5.55-.89.96-1.17.42-.28.9-.43 1.46-.43.8 0 1.43.28 1.89.84.46.55.69 1.31.69 2.27 0 .19-.01.37-.03.54h-4.25c.03.7.21 1.22.55 1.57zm-.03-3.87c-.3.35-.48.86-.52 1.53h3.3c-.02-.66-.16-1.17-.44-1.52a1.4 1.4 0 0 0-1.15-.53c-.49 0-.89.18-1.19.52zm10.18-3.76V296h-.89l-.1-.83c-.23.32-.5.56-.8.72-.3.16-.63.24-.98.24-.8 0-1.4-.29-1.8-.87-.41-.59-.61-1.4-.61-2.42 0-.63.1-1.2.3-1.7.2-.5.48-.89.85-1.17a2.1 2.1 0 0 1 1.32-.43c.7 0 1.26.26 1.7.76v-3.29l1.01.12zm-3.67 3.85a3.31 3.31 0 0 0-.42 1.86c0 .82.13 1.44.39 1.86.26.42.64.63 1.13.63.6 0 1.12-.34 1.56-1.01v-3.14a1.87 1.87 0 0 0-.63-.61 1.6 1.6 0 0 0-.8-.21c-.54 0-.94.2-1.23.62zm15.57 4.05a.84.84 0 0 0 .42-.73c0-.21-.04-.38-.1-.51a.96.96 0 0 0-.44-.36c-.22-.11-.54-.22-.98-.33a4.76 4.76 0 0 1-1.64-.67c-.35-.26-.52-.65-.52-1.16 0-.53.22-.95.66-1.26a2.95 2.95 0 0 1 1.74-.47c.88 0 1.64.24 2.3.7l-.46.7a3.03 3.03 0 0 0-1.82-.58c-.91 0-1.37.28-1.37.83 0 .19.05.35.15.47.1.12.27.22.5.31.22.1.56.2 1.02.33.69.19 1.2.42 1.54.7.34.29.51.7.51 1.25 0 .63-.25 1.1-.77 1.41-.5.32-1.14.47-1.88.47-1 0-1.82-.28-2.47-.85l.56-.66a3.14 3.14 0 0 0 1.91.68c.48 0 .86-.09 1.14-.27zm5.87-.59c0 .57.35.85 1.05.85.32 0 .68-.07 1.05-.21l.27.73c-.4.21-.9.32-1.5.32-.57 0-1.03-.15-1.37-.47a1.64 1.64 0 0 1-.5-1.27v-6.45h-1.95v-.8h2.95v7.3zm8.65-4.01c.47.58.7 1.39.7 2.4 0 1-.23 1.8-.71 2.4-.48.6-1.15.9-2.01.9-.87 0-1.54-.3-2.02-.88a3.74 3.74 0 0 1-.7-2.4c0-1 .23-1.8.71-2.4.48-.6 1.15-.9 2.02-.9.87 0 1.54.29 2.01.88zm-3.24.55a3.4 3.4 0 0 0-.41 1.86c0 .84.13 1.45.4 1.86.27.4.68.6 1.23.6.55 0 .96-.2 1.23-.6.27-.4.4-1.03.4-1.87a3.4 3.4 0 0 0-.4-1.85c-.27-.4-.67-.6-1.22-.6-.55 0-.96.2-1.23.6zm8.78 5.02l-.82-4.63-.9 4.63h-1.38l-1.14-6.32h1.02l.81 5.7 1.01-4.9h1.19l.95 4.9.81-5.7h.97L592.2 296h-1.43zm5.91-1.56c0 .57.35.85 1.05.85.32 0 .68-.07 1.05-.21l.27.73c-.4.21-.9.32-1.5.32-.57 0-1.03-.15-1.37-.47a1.64 1.64 0 0 1-.5-1.27v-6.45h-1.95v-.8h2.95v7.3zm7.28 1.6c-.25.72-.59 1.3-1.02 1.74-.43.43-1.04.68-1.81.76l-.15-.8c.43-.07.76-.18 1.02-.33.25-.15.45-.33.59-.55.14-.22.28-.5.4-.86h-.34l-2.2-6.32h1.07l1.81 5.55 1.8-5.55h1.04l-2.21 6.36zm15.15-8.9V296h-.89l-.1-.83c-.23.32-.5.56-.8.72-.3.16-.63.24-.98.24-.8 0-1.4-.29-1.8-.87-.41-.59-.61-1.4-.61-2.42 0-.63.1-1.2.3-1.7.2-.5.48-.89.85-1.17a2.1 2.1 0 0 1 1.32-.43c.7 0 1.26.26 1.7.76v-3.29l1.01.12zm-3.67 3.84a3.31 3.31 0 0 0-.42 1.86c0 .82.13 1.44.39 1.86.26.42.64.63 1.13.63.6 0 1.12-.34 1.56-1.01v-3.14a1.87 1.87 0 0 0-.63-.61 1.6 1.6 0 0 0-.8-.21c-.54 0-.94.2-1.23.62zm6.92 3.78c.34.36.77.53 1.29.53.31 0 .6-.04.86-.14.26-.09.54-.23.83-.42l.47.67a3.57 3.57 0 0 1-2.16.73c-.91 0-1.62-.3-2.13-.9-.5-.59-.76-1.39-.76-2.39 0-.63.11-1.2.33-1.7.23-.5.55-.89.96-1.17.42-.28.9-.43 1.46-.43.8 0 1.43.28 1.89.84.46.55.69 1.31.69 2.27 0 .19-.01.37-.03.54h-4.25c.03.7.21 1.22.55 1.57zm-.03-3.87c-.3.35-.48.86-.52 1.53h3.3c-.02-.66-.16-1.17-.44-1.52a1.4 1.4 0 0 0-1.15-.53c-.49 0-.89.18-1.19.52zm9.9 3.83l.47.66a3.47 3.47 0 0 1-2.12.76c-.94 0-1.67-.3-2.2-.89a3.45 3.45 0 0 1-.78-2.38c0-.63.12-1.2.36-1.7.23-.51.57-.9 1.02-1.2.45-.28.98-.43 1.6-.43.81 0 1.52.25 2.11.75l-.5.66a2.94 2.94 0 0 0-1.62-.55c-.57 0-1.03.2-1.37.63-.34.42-.5 1.03-.5 1.84 0 .8.16 1.4.5 1.8.34.4.8.6 1.38.6.55 0 1.1-.19 1.64-.55zm3.53.04c.34.36.77.53 1.29.53.31 0 .6-.04.86-.14.26-.09.54-.23.83-.42l.47.67a3.57 3.57 0 0 1-2.16.73c-.91 0-1.62-.3-2.13-.9-.5-.59-.76-1.39-.76-2.39 0-.63.11-1.2.33-1.7.23-.5.55-.89.96-1.17.42-.28.9-.43 1.46-.43.8 0 1.43.28 1.89.84.46.55.69 1.31.69 2.27 0 .19-.01.37-.03.54h-4.25c.03.7.21 1.22.55 1.57zm-.03-3.87c-.3.35-.48.86-.52 1.53h3.3c-.02-.66-.16-1.17-.44-1.52a1.4 1.4 0 0 0-1.15-.53c-.49 0-.89.18-1.19.52zm7.85 3.55c0 .57.35.85 1.05.85.32 0 .68-.07 1.05-.21l.27.73c-.4.21-.9.32-1.5.32-.57 0-1.03-.15-1.37-.47a1.64 1.64 0 0 1-.5-1.27v-6.45h-1.95v-.8h2.95v7.3zm5.58.32c.34.36.77.53 1.29.53.31 0 .6-.04.86-.14.26-.09.54-.23.83-.42l.47.67a3.57 3.57 0 0 1-2.16.73c-.91 0-1.62-.3-2.13-.9-.5-.59-.76-1.39-.76-2.39 0-.63.11-1.2.33-1.7.23-.5.55-.89.96-1.17.42-.28.9-.43 1.46-.43.8 0 1.43.28 1.89.84.46.55.69 1.31.69 2.27 0 .19-.01.37-.03.54h-4.25c.03.7.21 1.22.55 1.57zm-.03-3.87c-.3.35-.48.86-.52 1.53h3.3c-.02-.66-.16-1.17-.44-1.52a1.4 1.4 0 0 0-1.15-.53c-.49 0-.89.18-1.19.52zm10.54-1.21l-.14 2.14h-.82v-1.35h-.06c-.98 0-1.67.7-2.08 2.09v2.66h1.29v.78h-3.29v-.78h1v-4.76h-1v-.78h1.75l.2 1.5c.25-.55.56-.96.91-1.23.36-.27.8-.4 1.35-.4.26 0 .55.04.89.13zm6.2 5.49c.08.11.2.2.4.25l-.26.72c-.62-.08-1-.38-1.15-.9-.23.3-.5.51-.85.66-.34.16-.72.23-1.13.23-.63 0-1.13-.17-1.5-.53a1.88 1.88 0 0 1-.54-1.41c0-.65.25-1.15.76-1.5.5-.35 1.24-.53 2.19-.53h.94v-.52c0-.44-.13-.77-.39-.96-.25-.2-.63-.3-1.11-.3-.48 0-1.03.11-1.65.33l-.27-.77c.74-.26 1.43-.4 2.07-.4.77 0 1.36.18 1.76.54.4.36.6.86.6 1.5v3.04c0 .25.05.43.13.55zm-1.85-.03c.29-.16.52-.38.7-.66v-1.62h-.9c-.68 0-1.16.1-1.46.33-.3.23-.44.55-.44.99 0 .8.4 1.2 1.21 1.2.31 0 .61-.08.9-.24zm8.13.87c-.3.08-.61.12-.92.12a2.2 2.2 0 0 1-1.56-.52c-.37-.35-.56-.8-.56-1.37v-3.77h-1.45v-.8h1.45v-1.42l1-.12v1.55h2.2l-.13.79h-2.06v3.75c0 .36.1.63.29.8.19.18.5.27.92.27.43 0 .84-.1 1.21-.3l.4.69c-.22.14-.48.25-.79.33zm5.4-9.09c.14.13.2.3.2.51 0 .21-.06.38-.2.51a.74.74 0 0 1-.54.2.7.7 0 0 1-.52-.2.69.69 0 0 1-.2-.5c0-.22.07-.39.2-.52a.7.7 0 0 1 .52-.2c.22 0 .4.07.54.2zm.26 8.28h1.78v.8h-4.73v-.8h1.95v-4.72h-1.89v-.8h2.9v5.52zm3.5-5.52h.86l.09.88a2.66 2.66 0 0 1 2.09-1.02c1.18 0 1.77.63 1.77 1.88V296h-1v-3.84c0-.47-.03-.83-.08-1.08a.91.91 0 0 0-.31-.55c-.15-.12-.38-.18-.7-.18-.34 0-.66.1-.97.31-.3.2-.55.46-.74.74v4.6h-1.01v-6.32zm12.15.28c-.24.08-.5.13-.78.15-.28.02-.64.03-1.07.03.74.34 1.1.87 1.1 1.6 0 .64-.2 1.16-.63 1.55-.43.4-1 .6-1.74.6-.38 0-.7-.05-.95-.13a.83.83 0 0 0-.32.6c0 .37.28.55.84.55h1.14c.41 0 .79.07 1.13.22.34.15.6.35.8.62a1.59 1.59 0 0 1-.5 2.3c-.51.33-1.25.5-2.21.5-.98 0-1.67-.16-2.07-.46-.4-.3-.6-.79-.6-1.45h.91c0 .26.05.47.15.63.1.15.28.27.53.34.25.08.61.12 1.08.12.68 0 1.18-.09 1.5-.27.33-.17.49-.43.49-.78a.73.73 0 0 0-.4-.66c-.26-.16-.6-.24-1.02-.24h-1.13c-.52 0-.91-.11-1.18-.34-.28-.23-.41-.51-.41-.86 0-.2.06-.4.18-.59.12-.2.29-.37.51-.51a1.92 1.92 0 0 1-.8-.7 1.97 1.97 0 0 1-.25-1.04 2.06 2.06 0 0 1 1.2-1.91c.38-.2.82-.29 1.32-.29.72 0 1.27-.04 1.64-.12.38-.08.79-.21 1.24-.4l.3.94zm-4.3.72c-.25.26-.37.61-.37 1.06 0 .45.13.8.38 1.07s.62.4 1.12.4c.45 0 .79-.12 1.03-.38.23-.26.35-.63.35-1.1 0-.96-.47-1.44-1.4-1.44-.5 0-.86.13-1.1.39z"/><rect width="11" height="11" x="47" y="11" fill="#ED00B5" opacity=".2" rx="5.5"/><rect width="11" height="11" x="254" y="234" fill="#ED00B5" opacity=".2" rx="5.5"/><rect width="11" height="11" x="523" y="305" fill="#ED00B5" opacity=".2" rx="5.5"/></g></g></g></svg>