<svg xmlns="http://www.w3.org/2000/svg" width="300" height="180" style="background:#f9f9fa" viewBox="0 0 300 180">
  <g fill="none" fill-rule="evenodd">
    <rect width="132" height="32" x="119" y="42" fill="#0060DF" rx="2"/>
    <path fill="#FFF" d="M144.522705,53.855957 L144.522705,57.3662109 L146.712646,57.3662109 C147.886963,57.3662109 148.553467,56.7314453 148.553467,55.6079102 C148.553467,54.5097656 147.842529,53.855957 146.661865,53.855957 L144.522705,53.855957 Z M144.522705,58.3754883 L144.522705,62 L143.380127,62 L143.380127,52.840332 L146.814209,52.840332 C148.578857,52.840332 149.734131,53.9194336 149.734131,55.5698242 C149.734131,56.8457031 149.042236,57.8359375 147.893311,58.1977539 L150.013428,62 L148.674072,62 L146.712646,58.3754883 L144.522705,58.3754883 Z M153.644287,56.2426758 C152.609619,56.2426758 151.885986,57.0361328 151.816162,58.1342773 L155.402588,58.1342773 C155.377197,57.0297852 154.685303,56.2426758 153.644287,56.2426758 Z M155.377197,60.1083984 L156.462646,60.1083984 C156.272217,61.2636719 155.155029,62.1142578 153.714111,62.1142578 C151.82251,62.1142578 150.673584,60.800293 150.673584,58.7246094 C150.673584,56.6743164 151.841553,55.2841797 153.66333,55.2841797 C155.447021,55.2841797 156.545166,56.5791016 156.545166,58.5786133 L156.545166,58.9975586 L151.809814,58.9975586 L151.809814,59.0610352 C151.809814,60.3242188 152.55249,61.1557617 153.739502,61.1557617 C154.577393,61.1557617 155.193115,60.7304688 155.377197,60.1083984 Z M157.541748,57.2202148 C157.541748,58.121582 158.113037,58.7182617 159.274658,59.0166016 L160.436279,59.3149414 C161.178955,59.5117188 161.451904,59.765625 161.451904,60.2353516 C161.451904,60.8320312 160.899658,61.2128906 160.004639,61.2128906 C159.109619,61.2128906 158.589111,60.8447266 158.468506,60.1591797 L157.364014,60.1591797 C157.478271,61.3271484 158.487549,62.1142578 159.934814,62.1142578 C161.477295,62.1142578 162.562744,61.3017578 162.562744,60.152832 C162.562744,59.1816406 162.080322,58.6992188 160.747314,58.362793 L159.725342,58.1152344 C158.976318,57.9248047 158.627197,57.6201172 158.627197,57.1630859 C158.627197,56.5854492 159.1604,56.1855469 159.966553,56.1855469 C160.779053,56.1855469 161.293213,56.5791016 161.369385,57.2138672 L162.423096,57.2138672 C162.372314,56.0966797 161.369385,55.2841797 160.004639,55.2841797 C158.551025,55.2841797 157.541748,56.090332 157.541748,57.2202148 Z M166.352295,56.2426758 C165.317627,56.2426758 164.593994,57.0361328 164.52417,58.1342773 L168.110596,58.1342773 C168.085205,57.0297852 167.393311,56.2426758 166.352295,56.2426758 Z M168.085205,60.1083984 L169.170654,60.1083984 C168.980225,61.2636719 167.863037,62.1142578 166.422119,62.1142578 C164.530518,62.1142578 163.381592,60.800293 163.381592,58.7246094 C163.381592,56.6743164 164.549561,55.2841797 166.371338,55.2841797 C168.155029,55.2841797 169.253174,56.5791016 169.253174,58.5786133 L169.253174,58.9975586 L164.517822,58.9975586 L164.517822,59.0610352 C164.517822,60.3242188 165.260498,61.1557617 166.44751,61.1557617 C167.2854,61.1557617 167.901123,60.7304688 168.085205,60.1083984 Z M170.719482,53.8051758 L170.719482,55.3984375 L169.735596,55.3984375 L169.735596,56.3061523 L170.719482,56.3061523 L170.719482,60.2861328 C170.719482,61.5556641 171.189209,62.0507812 172.401611,62.0507812 C172.661865,62.0507812 172.966553,62.0317383 173.099854,62 L173.099854,61.0732422 C173.023682,61.0859375 172.769775,61.1049805 172.642822,61.1049805 C172.077881,61.1049805 171.823975,60.8320312 171.823975,60.2290039 L171.823975,56.3061523 L173.106201,56.3061523 L173.106201,55.3984375 L171.823975,55.3984375 L171.823975,53.8051758 L170.719482,53.8051758 Z M177.302002,53.8051758 L177.302002,55.3984375 L176.318115,55.3984375 L176.318115,56.3061523 L177.302002,56.3061523 L177.302002,60.2861328 C177.302002,61.5556641 177.771729,62.0507812 178.984131,62.0507812 C179.244385,62.0507812 179.549072,62.0317383 179.682373,62 L179.682373,61.0732422 C179.606201,61.0859375 179.352295,61.1049805 179.225342,61.1049805 C178.6604,61.1049805 178.406494,60.8320312 178.406494,60.2290039 L178.406494,56.3061523 L179.688721,56.3061523 L179.688721,55.3984375 L178.406494,55.3984375 L178.406494,53.8051758 L177.302002,53.8051758 Z M183.408447,62.1142578 C181.580322,62.1142578 180.348877,60.800293 180.348877,58.6992188 C180.348877,56.5917969 181.580322,55.2841797 183.408447,55.2841797 C185.230225,55.2841797 186.46167,56.5917969 186.46167,58.6992188 C186.46167,60.800293 185.230225,62.1142578 183.408447,62.1142578 Z M183.408447,61.1430664 C184.576416,61.1430664 185.338135,60.2543945 185.338135,58.6992188 C185.338135,57.144043 184.576416,56.2553711 183.408447,56.2553711 C182.240479,56.2553711 181.472412,57.144043 181.472412,58.6992188 C181.472412,60.2543945 182.240479,61.1430664 183.408447,61.1430664 Z M190.409912,52.840332 L193.488525,52.840332 C196.205322,52.840332 197.811279,54.5351562 197.811279,57.4169922 C197.811279,60.3051758 196.21167,62 193.488525,62 L190.409912,62 L190.409912,52.840332 Z M191.55249,53.8686523 L191.55249,60.9716797 L193.412354,60.9716797 C195.488037,60.9716797 196.643311,59.7021484 196.643311,57.4296875 C196.643311,55.1381836 195.494385,53.8686523 193.412354,53.8686523 L191.55249,53.8686523 Z M201.702393,56.2426758 C200.667725,56.2426758 199.944092,57.0361328 199.874268,58.1342773 L203.460693,58.1342773 C203.435303,57.0297852 202.743408,56.2426758 201.702393,56.2426758 Z M203.435303,60.1083984 L204.520752,60.1083984 C204.330322,61.2636719 203.213135,62.1142578 201.772217,62.1142578 C199.880615,62.1142578 198.731689,60.800293 198.731689,58.7246094 C198.731689,56.6743164 199.899658,55.2841797 201.721436,55.2841797 C203.505127,55.2841797 204.603271,56.5791016 204.603271,58.5786133 L204.603271,58.9975586 L199.86792,58.9975586 L199.86792,59.0610352 C199.86792,60.3242188 200.610596,61.1557617 201.797607,61.1557617 C202.635498,61.1557617 203.251221,60.7304688 203.435303,60.1083984 Z M206.06958,62 L207.174072,62 L207.174072,56.3061523 L208.519775,56.3061523 L208.519775,55.3984375 L207.167725,55.3984375 L207.167725,54.668457 C207.167725,54.0146484 207.453369,53.6972656 208.050049,53.6972656 C208.234131,53.6972656 208.418213,53.7163086 208.551514,53.7353516 L208.551514,52.840332 C208.392822,52.8149414 208.126221,52.7895508 207.878662,52.7895508 C206.659912,52.7895508 206.06958,53.3925781 206.06958,54.6621094 L206.06958,55.3984375 L205.14917,55.3984375 L205.14917,56.3061523 L206.06958,56.3061523 L206.06958,62 Z M211.45874,61.1748047 C212.499756,61.1748047 213.299561,60.4448242 213.299561,59.4926758 L213.299561,58.953125 L211.534912,59.0610352 C210.64624,59.1181641 210.138428,59.5117188 210.138428,60.1337891 C210.138428,60.762207 210.665283,61.1748047 211.45874,61.1748047 Z M211.211182,62.1142578 C209.897217,62.1142578 209.014893,61.3208008 209.014893,60.1337891 C209.014893,59.0039062 209.884521,58.2929688 211.407959,58.2041016 L213.299561,58.0961914 L213.299561,57.5439453 C213.299561,56.737793 212.766357,56.2553711 211.852295,56.2553711 C211.001709,56.2553711 210.468506,56.6552734 210.328857,57.3027344 L209.262451,57.3027344 C209.338623,56.1601562 210.316162,55.2841797 211.877686,55.2841797 C213.426514,55.2841797 214.404053,56.1220703 214.404053,57.4360352 L214.404053,62 L213.356689,62 L213.356689,60.8637695 L213.331299,60.8637695 C212.937744,61.6191406 212.099854,62.1142578 211.211182,62.1142578 Z M221.227783,55.3984375 L220.123291,55.3984375 L220.123291,59.2768555 C220.123291,60.4003906 219.47583,61.1367188 218.403076,61.1367188 C217.381104,61.1367188 216.879639,60.559082 216.879639,59.4863281 L216.879639,55.3984375 L215.775146,55.3984375 L215.775146,59.6831055 C215.775146,61.1811523 216.619385,62.1142578 218.060303,62.1142578 C219.075928,62.1142578 219.761475,61.6889648 220.155029,60.9272461 L220.18042,60.9272461 L220.18042,62 L221.227783,62 L221.227783,55.3984375 Z M222.713135,62 L223.817627,62 L223.817627,52.840332 L222.713135,52.840332 L222.713135,62 Z M225.664795,53.8051758 L225.664795,55.3984375 L224.680908,55.3984375 L224.680908,56.3061523 L225.664795,56.3061523 L225.664795,60.2861328 C225.664795,61.5556641 226.134521,62.0507812 227.346924,62.0507812 C227.607178,62.0507812 227.911865,62.0317383 228.045166,62 L228.045166,61.0732422 C227.968994,61.0859375 227.715088,61.1049805 227.588135,61.1049805 C227.023193,61.1049805 226.769287,60.8320312 226.769287,60.2290039 L226.769287,56.3061523 L228.051514,56.3061523 L228.051514,55.3984375 L226.769287,55.3984375 L226.769287,53.8051758 L225.664795,53.8051758 Z"/>
    <rect width="132" height="32" x="119" y="106" fill="#0060DF" opacity=".4" rx="2"/>
    <path fill="#FFF" d="M144.522705,117.855957 L144.522705,121.366211 L146.712646,121.366211 C147.886963,121.366211 148.553467,120.731445 148.553467,119.60791 C148.553467,118.509766 147.842529,117.855957 146.661865,117.855957 L144.522705,117.855957 Z M144.522705,122.375488 L144.522705,126 L143.380127,126 L143.380127,116.840332 L146.814209,116.840332 C148.578857,116.840332 149.734131,117.919434 149.734131,119.569824 C149.734131,120.845703 149.042236,121.835938 147.893311,122.197754 L150.013428,126 L148.674072,126 L146.712646,122.375488 L144.522705,122.375488 Z M153.644287,120.242676 C152.609619,120.242676 151.885986,121.036133 151.816162,122.134277 L155.402588,122.134277 C155.377197,121.029785 154.685303,120.242676 153.644287,120.242676 Z M155.377197,124.108398 L156.462646,124.108398 C156.272217,125.263672 155.155029,126.114258 153.714111,126.114258 C151.82251,126.114258 150.673584,124.800293 150.673584,122.724609 C150.673584,120.674316 151.841553,119.28418 153.66333,119.28418 C155.447021,119.28418 156.545166,120.579102 156.545166,122.578613 L156.545166,122.997559 L151.809814,122.997559 L151.809814,123.061035 C151.809814,124.324219 152.55249,125.155762 153.739502,125.155762 C154.577393,125.155762 155.193115,124.730469 155.377197,124.108398 Z M157.541748,121.220215 C157.541748,122.121582 158.113037,122.718262 159.274658,123.016602 L160.436279,123.314941 C161.178955,123.511719 161.451904,123.765625 161.451904,124.235352 C161.451904,124.832031 160.899658,125.212891 160.004639,125.212891 C159.109619,125.212891 158.589111,124.844727 158.468506,124.15918 L157.364014,124.15918 C157.478271,125.327148 158.487549,126.114258 159.934814,126.114258 C161.477295,126.114258 162.562744,125.301758 162.562744,124.152832 C162.562744,123.181641 162.080322,122.699219 160.747314,122.362793 L159.725342,122.115234 C158.976318,121.924805 158.627197,121.620117 158.627197,121.163086 C158.627197,120.585449 159.1604,120.185547 159.966553,120.185547 C160.779053,120.185547 161.293213,120.579102 161.369385,121.213867 L162.423096,121.213867 C162.372314,120.09668 161.369385,119.28418 160.004639,119.28418 C158.551025,119.28418 157.541748,120.090332 157.541748,121.220215 Z M166.352295,120.242676 C165.317627,120.242676 164.593994,121.036133 164.52417,122.134277 L168.110596,122.134277 C168.085205,121.029785 167.393311,120.242676 166.352295,120.242676 Z M168.085205,124.108398 L169.170654,124.108398 C168.980225,125.263672 167.863037,126.114258 166.422119,126.114258 C164.530518,126.114258 163.381592,124.800293 163.381592,122.724609 C163.381592,120.674316 164.549561,119.28418 166.371338,119.28418 C168.155029,119.28418 169.253174,120.579102 169.253174,122.578613 L169.253174,122.997559 L164.517822,122.997559 L164.517822,123.061035 C164.517822,124.324219 165.260498,125.155762 166.44751,125.155762 C167.2854,125.155762 167.901123,124.730469 168.085205,124.108398 Z M170.719482,117.805176 L170.719482,119.398438 L169.735596,119.398438 L169.735596,120.306152 L170.719482,120.306152 L170.719482,124.286133 C170.719482,125.555664 171.189209,126.050781 172.401611,126.050781 C172.661865,126.050781 172.966553,126.031738 173.099854,126 L173.099854,125.073242 C173.023682,125.085938 172.769775,125.10498 172.642822,125.10498 C172.077881,125.10498 171.823975,124.832031 171.823975,124.229004 L171.823975,120.306152 L173.106201,120.306152 L173.106201,119.398438 L171.823975,119.398438 L171.823975,117.805176 L170.719482,117.805176 Z M177.302002,117.805176 L177.302002,119.398438 L176.318115,119.398438 L176.318115,120.306152 L177.302002,120.306152 L177.302002,124.286133 C177.302002,125.555664 177.771729,126.050781 178.984131,126.050781 C179.244385,126.050781 179.549072,126.031738 179.682373,126 L179.682373,125.073242 C179.606201,125.085938 179.352295,125.10498 179.225342,125.10498 C178.6604,125.10498 178.406494,124.832031 178.406494,124.229004 L178.406494,120.306152 L179.688721,120.306152 L179.688721,119.398438 L178.406494,119.398438 L178.406494,117.805176 L177.302002,117.805176 Z M183.408447,126.114258 C181.580322,126.114258 180.348877,124.800293 180.348877,122.699219 C180.348877,120.591797 181.580322,119.28418 183.408447,119.28418 C185.230225,119.28418 186.46167,120.591797 186.46167,122.699219 C186.46167,124.800293 185.230225,126.114258 183.408447,126.114258 Z M183.408447,125.143066 C184.576416,125.143066 185.338135,124.254395 185.338135,122.699219 C185.338135,121.144043 184.576416,120.255371 183.408447,120.255371 C182.240479,120.255371 181.472412,121.144043 181.472412,122.699219 C181.472412,124.254395 182.240479,125.143066 183.408447,125.143066 Z M190.409912,116.840332 L193.488525,116.840332 C196.205322,116.840332 197.811279,118.535156 197.811279,121.416992 C197.811279,124.305176 196.21167,126 193.488525,126 L190.409912,126 L190.409912,116.840332 Z M191.55249,117.868652 L191.55249,124.97168 L193.412354,124.97168 C195.488037,124.97168 196.643311,123.702148 196.643311,121.429688 C196.643311,119.138184 195.494385,117.868652 193.412354,117.868652 L191.55249,117.868652 Z M201.702393,120.242676 C200.667725,120.242676 199.944092,121.036133 199.874268,122.134277 L203.460693,122.134277 C203.435303,121.029785 202.743408,120.242676 201.702393,120.242676 Z M203.435303,124.108398 L204.520752,124.108398 C204.330322,125.263672 203.213135,126.114258 201.772217,126.114258 C199.880615,126.114258 198.731689,124.800293 198.731689,122.724609 C198.731689,120.674316 199.899658,119.28418 201.721436,119.28418 C203.505127,119.28418 204.603271,120.579102 204.603271,122.578613 L204.603271,122.997559 L199.86792,122.997559 L199.86792,123.061035 C199.86792,124.324219 200.610596,125.155762 201.797607,125.155762 C202.635498,125.155762 203.251221,124.730469 203.435303,124.108398 Z M206.06958,126 L207.174072,126 L207.174072,120.306152 L208.519775,120.306152 L208.519775,119.398438 L207.167725,119.398438 L207.167725,118.668457 C207.167725,118.014648 207.453369,117.697266 208.050049,117.697266 C208.234131,117.697266 208.418213,117.716309 208.551514,117.735352 L208.551514,116.840332 C208.392822,116.814941 208.126221,116.789551 207.878662,116.789551 C206.659912,116.789551 206.06958,117.392578 206.06958,118.662109 L206.06958,119.398438 L205.14917,119.398438 L205.14917,120.306152 L206.06958,120.306152 L206.06958,126 Z M211.45874,125.174805 C212.499756,125.174805 213.299561,124.444824 213.299561,123.492676 L213.299561,122.953125 L211.534912,123.061035 C210.64624,123.118164 210.138428,123.511719 210.138428,124.133789 C210.138428,124.762207 210.665283,125.174805 211.45874,125.174805 Z M211.211182,126.114258 C209.897217,126.114258 209.014893,125.320801 209.014893,124.133789 C209.014893,123.003906 209.884521,122.292969 211.407959,122.204102 L213.299561,122.096191 L213.299561,121.543945 C213.299561,120.737793 212.766357,120.255371 211.852295,120.255371 C211.001709,120.255371 210.468506,120.655273 210.328857,121.302734 L209.262451,121.302734 C209.338623,120.160156 210.316162,119.28418 211.877686,119.28418 C213.426514,119.28418 214.404053,120.12207 214.404053,121.436035 L214.404053,126 L213.356689,126 L213.356689,124.86377 L213.331299,124.86377 C212.937744,125.619141 212.099854,126.114258 211.211182,126.114258 Z M221.227783,119.398438 L220.123291,119.398438 L220.123291,123.276855 C220.123291,124.400391 219.47583,125.136719 218.403076,125.136719 C217.381104,125.136719 216.879639,124.559082 216.879639,123.486328 L216.879639,119.398438 L215.775146,119.398438 L215.775146,123.683105 C215.775146,125.181152 216.619385,126.114258 218.060303,126.114258 C219.075928,126.114258 219.761475,125.688965 220.155029,124.927246 L220.18042,124.927246 L220.18042,126 L221.227783,126 L221.227783,119.398438 Z M222.713135,126 L223.817627,126 L223.817627,116.840332 L222.713135,116.840332 L222.713135,126 Z M225.664795,117.805176 L225.664795,119.398438 L224.680908,119.398438 L224.680908,120.306152 L225.664795,120.306152 L225.664795,124.286133 C225.664795,125.555664 226.134521,126.050781 227.346924,126.050781 C227.607178,126.050781 227.911865,126.031738 228.045166,126 L228.045166,125.073242 C227.968994,125.085938 227.715088,125.10498 227.588135,125.10498 C227.023193,125.10498 226.769287,124.832031 226.769287,124.229004 L226.769287,120.306152 L228.051514,120.306152 L228.051514,119.398438 L226.769287,119.398438 L226.769287,117.805176 L225.664795,117.805176 Z" opacity=".4"/>
    <path fill="#737373" d="M53.4501953 62.3120117L54.5546875 62.3120117 54.5546875 53.1523438 53.4375 53.1523438 51 54.9042969 51 56.1103516 53.4248047 54.3647461 53.4501953 54.3647461 53.4501953 62.3120117zM60.0834961 62.4643555C57.9443359 62.4643555 56.706543 60.6235352 56.706543 57.7290039 56.706543 54.8598633 57.9570312 53 60.0834961 53 62.2099609 53 63.4477539 54.847168 63.4477539 57.7226562 63.4477539 60.6171875 62.2163086 62.4643555 60.0834961 62.4643555zM60.0834961 61.4677734C61.5117188 61.4677734 62.2988281 60.0141602 62.2988281 57.7290039 62.2988281 55.4755859 61.4990234 54.0029297 60.0834961 54.0029297 58.6679688 54.0029297 57.8554688 55.4882812 57.8554688 57.7226562 57.8554688 60.0078125 58.6489258 61.4677734 60.0834961 61.4677734zM67.9672852 62.4643555C65.828125 62.4643555 64.590332 60.6235352 64.590332 57.7290039 64.590332 54.8598633 65.8408203 53 67.9672852 53 70.09375 53 71.331543 54.847168 71.331543 57.7226562 71.331543 60.6171875 70.1000977 62.4643555 67.9672852 62.4643555zM67.9672852 61.4677734C69.3955078 61.4677734 70.1826172 60.0141602 70.1826172 57.7290039 70.1826172 55.4755859 69.3828125 54.0029297 67.9672852 54.0029297 66.5517578 54.0029297 65.7392578 55.4882812 65.7392578 57.7226562 65.7392578 60.0078125 66.5327148 61.4677734 67.9672852 61.4677734zM76.0668945 55.3168945C76.0668945 56.7006836 75.3051758 57.5957031 74.1435547 57.5957031 72.9819336 57.5957031 72.2202148 56.7006836 72.2202148 55.3168945 72.2202148 53.9331055 72.9819336 53.0380859 74.1435547 53.0380859 75.3051758 53.0380859 76.0668945 53.9331055 76.0668945 55.3168945zM74.1435547 56.8212891C74.7021484 56.8212891 75.0512695 56.25 75.0512695 55.3168945 75.0512695 54.3837891 74.7021484 53.8125 74.1435547 53.8125 73.5849609 53.8125 73.2358398 54.3837891 73.2358398 55.3168945 73.2358398 56.25 73.5849609 56.8212891 74.1435547 56.8212891zM73.8642578 62.3120117L72.7597656 62.3120117 76.2954102 57.4814453 79.4628906 53.1523438 80.5546875 53.1523438 77.1142578 57.8623047 73.8642578 62.3120117zM81.1005859 60.128418C81.1005859 61.512207 80.3388672 62.4072266 79.1772461 62.4072266 78.015625 62.4072266 77.2539062 61.512207 77.2539062 60.128418 77.2539062 58.7446289 78.015625 57.8496094 79.1772461 57.8496094 80.3388672 57.8496094 81.1005859 58.7446289 81.1005859 60.128418zM79.1772461 61.6328125C79.7358398 61.6328125 80.0849609 61.0615234 80.0849609 60.128418 80.0849609 59.1953125 79.7358398 58.6240234 79.1772461 58.6240234 78.6186523 58.6240234 78.2695312 59.1953125 78.2695312 60.128418 78.2695312 61.0615234 78.6186523 61.6328125 79.1772461 61.6328125zM55.6020508 126.312012L55.6020508 124.407715 51 124.407715 51 123.373047C51.7807617 121.925781 52.8535156 120.256348 55.0180664 117.152344L56.706543 117.152344 56.706543 123.404785 58.0014648 123.404785 58.0014648 124.407715 56.706543 124.407715 56.706543 126.312012 55.6020508 126.312012zM52.1298828 123.379395L52.1298828 123.404785 55.6020508 123.404785 55.6020508 118.104492 55.5830078 118.104492C53.8500977 120.580078 52.8535156 122.109863 52.1298828 123.379395zM62.3178711 126.464355C60.1787109 126.464355 58.940918 124.623535 58.940918 121.729004 58.940918 118.859863 60.1914062 117 62.3178711 117 64.4443359 117 65.6821289 118.847168 65.6821289 121.722656 65.6821289 124.617188 64.4506836 126.464355 62.3178711 126.464355zM62.3178711 125.467773C63.7460938 125.467773 64.5332031 124.01416 64.5332031 121.729004 64.5332031 119.475586 63.7333984 118.00293 62.3178711 118.00293 60.9023438 118.00293 60.0898438 119.488281 60.0898438 121.722656 60.0898438 124.007812 60.8833008 125.467773 62.3178711 125.467773zM70.4174805 119.316895C70.4174805 120.700684 69.6557617 121.595703 68.4941406 121.595703 67.3325195 121.595703 66.5708008 120.700684 66.5708008 119.316895 66.5708008 117.933105 67.3325195 117.038086 68.4941406 117.038086 69.6557617 117.038086 70.4174805 117.933105 70.4174805 119.316895zM68.4941406 120.821289C69.0527344 120.821289 69.4018555 120.25 69.4018555 119.316895 69.4018555 118.383789 69.0527344 117.8125 68.4941406 117.8125 67.9355469 117.8125 67.5864258 118.383789 67.5864258 119.316895 67.5864258 120.25 67.9355469 120.821289 68.4941406 120.821289zM68.2148438 126.312012L67.1103516 126.312012 70.6459961 121.481445 73.8134766 117.152344 74.9052734 117.152344 71.4648438 121.862305 68.2148438 126.312012zM75.4511719 124.128418C75.4511719 125.512207 74.6894531 126.407227 73.527832 126.407227 72.3662109 126.407227 71.6044922 125.512207 71.6044922 124.128418 71.6044922 122.744629 72.3662109 121.849609 73.527832 121.849609 74.6894531 121.849609 75.4511719 122.744629 75.4511719 124.128418zM73.527832 125.632812C74.0864258 125.632812 74.4355469 125.061523 74.4355469 124.128418 74.4355469 123.195312 74.0864258 122.624023 73.527832 122.624023 72.9692383 122.624023 72.6201172 123.195312 72.6201172 124.128418 72.6201172 125.061523 72.9692383 125.632812 73.527832 125.632812z"/>
  </g>
</svg>
