<svg xmlns="http://www.w3.org/2000/svg" width="300" height="180" style="background:#f9f9fa" viewBox="0 0 300 180">
  <g fill="#0C0C0D" fill-rule="evenodd" opacity=".4">
    <rect width="168" height="32" x="66" y="74" fill-opacity=".1" rx="2"/>
    <path d="M75.2817383,85.855957 L75.2817383,89.3662109 L77.4716797,89.3662109 C78.6459961,89.3662109 79.3125,88.7314453 79.3125,87.6079102 C79.3125,86.5097656 78.6015625,85.855957 77.4208984,85.855957 L75.2817383,85.855957 Z M75.2817383,90.3754883 L75.2817383,94 L74.1391602,94 L74.1391602,84.840332 L77.5732422,84.840332 C79.3378906,84.840332 80.4931641,85.9194336 80.4931641,87.5698242 C80.4931641,88.8457031 79.8012695,89.8359375 78.6523438,90.1977539 L80.7724609,94 L79.4331055,94 L77.4716797,90.3754883 L75.2817383,90.3754883 Z M84.4033203,88.2426758 C83.3686523,88.2426758 82.6450195,89.0361328 82.5751953,90.1342773 L86.1616211,90.1342773 C86.1362305,89.0297852 85.4443359,88.2426758 84.4033203,88.2426758 Z M86.1362305,92.1083984 L87.2216797,92.1083984 C87.03125,93.2636719 85.9140625,94.1142578 84.4731445,94.1142578 C82.581543,94.1142578 81.4326172,92.800293 81.4326172,90.7246094 C81.4326172,88.6743164 82.6005859,87.2841797 84.4223633,87.2841797 C86.2060547,87.2841797 87.3041992,88.5791016 87.3041992,90.5786133 L87.3041992,90.9975586 L82.5688477,90.9975586 L82.5688477,91.0610352 C82.5688477,92.3242188 83.3115234,93.1557617 84.4985352,93.1557617 C85.3364258,93.1557617 85.9521484,92.7304688 86.1362305,92.1083984 Z M88.3007812,89.2202148 C88.3007812,90.121582 88.8720703,90.7182617 90.0336914,91.0166016 L91.1953125,91.3149414 C91.9379883,91.5117188 92.2109375,91.765625 92.2109375,92.2353516 C92.2109375,92.8320312 91.6586914,93.2128906 90.7636719,93.2128906 C89.8686523,93.2128906 89.3481445,92.8447266 89.2275391,92.1591797 L88.1230469,92.1591797 C88.2373047,93.3271484 89.246582,94.1142578 90.6938477,94.1142578 C92.2363281,94.1142578 93.3217773,93.3017578 93.3217773,92.152832 C93.3217773,91.1816406 92.8393555,90.6992188 91.5063477,90.362793 L90.484375,90.1152344 C89.7353516,89.9248047 89.3862305,89.6201172 89.3862305,89.1630859 C89.3862305,88.5854492 89.9194336,88.1855469 90.7255859,88.1855469 C91.5380859,88.1855469 92.0522461,88.5791016 92.128418,89.2138672 L93.1821289,89.2138672 C93.1313477,88.0966797 92.128418,87.2841797 90.7636719,87.2841797 C89.3100586,87.2841797 88.3007812,88.090332 88.3007812,89.2202148 Z M97.1113281,88.2426758 C96.0766602,88.2426758 95.3530273,89.0361328 95.2832031,90.1342773 L98.8696289,90.1342773 C98.8442383,89.0297852 98.1523438,88.2426758 97.1113281,88.2426758 Z M98.8442383,92.1083984 L99.9296875,92.1083984 C99.7392578,93.2636719 98.6220703,94.1142578 97.1811523,94.1142578 C95.2895508,94.1142578 94.140625,92.800293 94.140625,90.7246094 C94.140625,88.6743164 95.3085938,87.2841797 97.1303711,87.2841797 C98.9140625,87.2841797 100.012207,88.5791016 100.012207,90.5786133 L100.012207,90.9975586 L95.2768555,90.9975586 L95.2768555,91.0610352 C95.2768555,92.3242188 96.0195312,93.1557617 97.206543,93.1557617 C98.0444336,93.1557617 98.6601562,92.7304688 98.8442383,92.1083984 Z M101.478516,85.8051758 L101.478516,87.3984375 L100.494629,87.3984375 L100.494629,88.3061523 L101.478516,88.3061523 L101.478516,92.2861328 C101.478516,93.5556641 101.948242,94.0507812 103.160645,94.0507812 C103.420898,94.0507812 103.725586,94.0317383 103.858887,94 L103.858887,93.0732422 C103.782715,93.0859375 103.528809,93.1049805 103.401855,93.1049805 C102.836914,93.1049805 102.583008,92.8320312 102.583008,92.2290039 L102.583008,88.3061523 L103.865234,88.3061523 L103.865234,87.3984375 L102.583008,87.3984375 L102.583008,85.8051758 L101.478516,85.8051758 Z M107.876953,84.840332 L110.955566,84.840332 C113.672363,84.840332 115.27832,86.5351562 115.27832,89.4169922 C115.27832,92.3051758 113.678711,94 110.955566,94 L107.876953,94 L107.876953,84.840332 Z M109.019531,85.8686523 L109.019531,92.9716797 L110.879395,92.9716797 C112.955078,92.9716797 114.110352,91.7021484 114.110352,89.4296875 C114.110352,87.1381836 112.961426,85.8686523 110.879395,85.8686523 L109.019531,85.8686523 Z M119.169434,88.2426758 C118.134766,88.2426758 117.411133,89.0361328 117.341309,90.1342773 L120.927734,90.1342773 C120.902344,89.0297852 120.210449,88.2426758 119.169434,88.2426758 Z M120.902344,92.1083984 L121.987793,92.1083984 C121.797363,93.2636719 120.680176,94.1142578 119.239258,94.1142578 C117.347656,94.1142578 116.19873,92.800293 116.19873,90.7246094 C116.19873,88.6743164 117.366699,87.2841797 119.188477,87.2841797 C120.972168,87.2841797 122.070312,88.5791016 122.070312,90.5786133 L122.070312,90.9975586 L117.334961,90.9975586 L117.334961,91.0610352 C117.334961,92.3242188 118.077637,93.1557617 119.264648,93.1557617 C120.102539,93.1557617 120.718262,92.7304688 120.902344,92.1083984 Z M123.536621,94 L124.641113,94 L124.641113,88.3061523 L125.986816,88.3061523 L125.986816,87.3984375 L124.634766,87.3984375 L124.634766,86.668457 C124.634766,86.0146484 124.92041,85.6972656 125.51709,85.6972656 C125.701172,85.6972656 125.885254,85.7163086 126.018555,85.7353516 L126.018555,84.840332 C125.859863,84.8149414 125.593262,84.7895508 125.345703,84.7895508 C124.126953,84.7895508 123.536621,85.3925781 123.536621,86.6621094 L123.536621,87.3984375 L122.616211,87.3984375 L122.616211,88.3061523 L123.536621,88.3061523 L123.536621,94 Z M128.925781,93.1748047 C129.966797,93.1748047 130.766602,92.4448242 130.766602,91.4926758 L130.766602,90.953125 L129.001953,91.0610352 C128.113281,91.1181641 127.605469,91.5117188 127.605469,92.1337891 C127.605469,92.762207 128.132324,93.1748047 128.925781,93.1748047 Z M128.678223,94.1142578 C127.364258,94.1142578 126.481934,93.3208008 126.481934,92.1337891 C126.481934,91.0039062 127.351562,90.2929688 128.875,90.2041016 L130.766602,90.0961914 L130.766602,89.5439453 C130.766602,88.737793 130.233398,88.2553711 129.319336,88.2553711 C128.46875,88.2553711 127.935547,88.6552734 127.795898,89.3027344 L126.729492,89.3027344 C126.805664,88.1601562 127.783203,87.2841797 129.344727,87.2841797 C130.893555,87.2841797 131.871094,88.1220703 131.871094,89.4360352 L131.871094,94 L130.82373,94 L130.82373,92.8637695 L130.79834,92.8637695 C130.404785,93.6191406 129.566895,94.1142578 128.678223,94.1142578 Z M138.694824,87.3984375 L137.590332,87.3984375 L137.590332,91.2768555 C137.590332,92.4003906 136.942871,93.1367188 135.870117,93.1367188 C134.848145,93.1367188 134.34668,92.559082 134.34668,91.4863281 L134.34668,87.3984375 L133.242188,87.3984375 L133.242188,91.6831055 C133.242188,93.1811523 134.086426,94.1142578 135.527344,94.1142578 C136.542969,94.1142578 137.228516,93.6889648 137.62207,92.9272461 L137.647461,92.9272461 L137.647461,94 L138.694824,94 L138.694824,87.3984375 Z M140.180176,94 L141.284668,94 L141.284668,84.840332 L140.180176,84.840332 L140.180176,94 Z M143.131836,85.8051758 L143.131836,87.3984375 L142.147949,87.3984375 L142.147949,88.3061523 L143.131836,88.3061523 L143.131836,92.2861328 C143.131836,93.5556641 143.601562,94.0507812 144.813965,94.0507812 C145.074219,94.0507812 145.378906,94.0317383 145.512207,94 L145.512207,93.0732422 C145.436035,93.0859375 145.182129,93.1049805 145.055176,93.1049805 C144.490234,93.1049805 144.236328,92.8320312 144.236328,92.2290039 L144.236328,88.3061523 L145.518555,88.3061523 L145.518555,87.3984375 L144.236328,87.3984375 L144.236328,85.8051758 L143.131836,85.8051758 Z M149.092285,91.4799805 C149.200195,93.0986328 150.545898,94.1523438 152.488281,94.1523438 C154.595703,94.1523438 155.916016,93.1049805 155.916016,91.4291992 C155.916016,90.1152344 155.147949,89.3852539 153.25,88.9091797 L152.291504,88.6552734 C151.047363,88.331543 150.539551,87.9189453 150.539551,87.2270508 C150.539551,86.3320312 151.364746,85.7163086 152.551758,85.7163086 C153.745117,85.7163086 154.538574,86.3193359 154.640137,87.3032227 L155.782715,87.3032227 C155.731934,85.7670898 154.411621,84.6879883 152.589844,84.6879883 C150.685547,84.6879883 149.352539,85.7543945 149.352539,87.277832 C149.352539,88.5219727 150.101562,89.2646484 151.790039,89.6962891 L152.964355,90.0009766 C154.195801,90.3183594 154.735352,90.7944336 154.735352,91.5688477 C154.735352,92.4702148 153.833984,93.1240234 152.596191,93.1240234 C151.288574,93.1240234 150.349121,92.4702148 150.241211,91.4799805 L149.092285,91.4799805 Z M159.724609,88.2426758 C158.689941,88.2426758 157.966309,89.0361328 157.896484,90.1342773 L161.48291,90.1342773 C161.45752,89.0297852 160.765625,88.2426758 159.724609,88.2426758 Z M161.45752,92.1083984 L162.542969,92.1083984 C162.352539,93.2636719 161.235352,94.1142578 159.794434,94.1142578 C157.902832,94.1142578 156.753906,92.800293 156.753906,90.7246094 C156.753906,88.6743164 157.921875,87.2841797 159.743652,87.2841797 C161.527344,87.2841797 162.625488,88.5791016 162.625488,90.5786133 L162.625488,90.9975586 L157.890137,90.9975586 L157.890137,91.0610352 C157.890137,92.3242188 158.632812,93.1557617 159.819824,93.1557617 C160.657715,93.1557617 161.273438,92.7304688 161.45752,92.1083984 Z M165.913574,93.1748047 C166.95459,93.1748047 167.754395,92.4448242 167.754395,91.4926758 L167.754395,90.953125 L165.989746,91.0610352 C165.101074,91.1181641 164.593262,91.5117188 164.593262,92.1337891 C164.593262,92.762207 165.120117,93.1748047 165.913574,93.1748047 Z M165.666016,94.1142578 C164.352051,94.1142578 163.469727,93.3208008 163.469727,92.1337891 C163.469727,91.0039062 164.339355,90.2929688 165.862793,90.2041016 L167.754395,90.0961914 L167.754395,89.5439453 C167.754395,88.737793 167.221191,88.2553711 166.307129,88.2553711 C165.456543,88.2553711 164.92334,88.6552734 164.783691,89.3027344 L163.717285,89.3027344 C163.793457,88.1601562 164.770996,87.2841797 166.33252,87.2841797 C167.881348,87.2841797 168.858887,88.1220703 168.858887,89.4360352 L168.858887,94 L167.811523,94 L167.811523,92.8637695 L167.786133,92.8637695 C167.392578,93.6191406 166.554688,94.1142578 165.666016,94.1142578 Z M170.261719,94 L171.366211,94 L171.366211,89.8867188 C171.366211,88.9536133 171.924805,88.3378906 172.781738,88.3378906 C173.04834,88.3378906 173.283203,88.3696289 173.37207,88.4013672 L173.37207,87.3286133 C173.283203,87.315918 173.118164,87.2841797 172.927734,87.2841797 C172.15332,87.2841797 171.543945,87.7475586 171.328125,88.4775391 L171.302734,88.4775391 L171.302734,87.3984375 L170.261719,87.3984375 L170.261719,94 Z M179.434082,89.5629883 C179.294434,88.3759766 178.310547,87.2841797 176.660156,87.2841797 C174.838379,87.2841797 173.625977,88.6171875 173.625977,90.6992188 C173.625977,92.8256836 174.844727,94.1142578 176.672852,94.1142578 C178.170898,94.1142578 179.275391,93.1875 179.446777,91.8735352 L178.361328,91.8735352 C178.170898,92.6669922 177.580566,93.1430664 176.679199,93.1430664 C175.536621,93.1430664 174.749512,92.2353516 174.749512,90.6992188 C174.749512,89.2011719 175.523926,88.2553711 176.666504,88.2553711 C177.637695,88.2553711 178.196289,88.8457031 178.35498,89.5629883 L179.434082,89.5629883 Z M180.519531,94 L181.624023,94 L181.624023,90.1533203 C181.624023,89.0107422 182.303223,88.2617188 183.401367,88.2617188 C184.436035,88.2617188 184.962891,88.8901367 184.962891,89.9375 L184.962891,94 L186.067383,94 L186.067383,89.734375 C186.067383,88.2617188 185.191406,87.2841797 183.744141,87.2841797 C182.741211,87.2841797 182.017578,87.7158203 181.649414,88.4521484 L181.624023,88.4521484 L181.624023,84.840332 L180.519531,84.840332 L180.519531,94 Z M195.982422,92.9716797 L191.450195,92.9716797 L191.450195,89.8232422 L195.747559,89.8232422 L195.747559,88.8076172 L191.450195,88.8076172 L191.450195,85.8686523 L195.982422,85.8686523 L195.982422,84.840332 L190.307617,84.840332 L190.307617,94 L195.982422,94 L195.982422,92.9716797 Z M197.31543,94 L198.419922,94 L198.419922,90.1152344 C198.419922,88.9980469 199.099121,88.2617188 200.140137,88.2617188 C201.155762,88.2617188 201.657227,88.8457031 201.657227,89.9121094 L201.657227,94 L202.761719,94 L202.761719,89.715332 C202.761719,88.2172852 201.923828,87.2841797 200.476562,87.2841797 C199.45459,87.2841797 198.75,87.7412109 198.381836,88.4521484 L198.356445,88.4521484 L198.356445,87.3984375 L197.31543,87.3984375 L197.31543,94 Z M206.849609,93.0795898 C207.998535,93.0795898 208.766602,92.1274414 208.766602,90.6738281 C208.766602,89.2202148 207.998535,88.2553711 206.849609,88.2553711 C205.713379,88.2553711 204.970703,89.1948242 204.970703,90.6738281 C204.970703,92.152832 205.713379,93.0795898 206.849609,93.0795898 Z M206.887695,96.4882812 C205.434082,96.4882812 204.285156,95.6694336 204.101074,94.5458984 L205.237305,94.5458984 C205.453125,95.1489258 206.106934,95.5488281 206.932129,95.5488281 C208.074707,95.5488281 208.766602,94.8886719 208.766602,93.9047852 L208.766602,92.8637695 L208.741211,92.8637695 C208.334961,93.5810547 207.554199,94.0507812 206.627441,94.0507812 C204.945312,94.0507812 203.84082,92.7241211 203.84082,90.6738281 C203.84082,88.6044922 204.945312,87.2841797 206.652832,87.2841797 C207.585938,87.2841797 208.360352,87.7412109 208.79834,88.5092773 L208.817383,88.5092773 L208.817383,87.3984375 L209.871094,87.3984375 L209.871094,93.8666992 C209.871094,95.440918 208.709473,96.4882812 206.887695,96.4882812 Z M211.362793,94 L212.467285,94 L212.467285,87.3984375 L211.362793,87.3984375 L211.362793,94 Z M211.915039,86.2875977 C212.295898,86.2875977 212.606934,85.9765625 212.606934,85.6020508 C212.606934,85.2211914 212.295898,84.9165039 211.915039,84.9165039 C211.540527,84.9165039 211.229492,85.2211914 211.229492,85.6020508 C211.229492,85.9765625 211.540527,86.2875977 211.915039,86.2875977 Z M213.958984,94 L215.063477,94 L215.063477,90.1152344 C215.063477,88.9980469 215.742676,88.2617188 216.783691,88.2617188 C217.799316,88.2617188 218.300781,88.8457031 218.300781,89.9121094 L218.300781,94 L219.405273,94 L219.405273,89.715332 C219.405273,88.2172852 218.567383,87.2841797 217.120117,87.2841797 C216.098145,87.2841797 215.393555,87.7412109 215.025391,88.4521484 L215,88.4521484 L215,87.3984375 L213.958984,87.3984375 L213.958984,94 Z M223.455078,88.2426758 C222.42041,88.2426758 221.696777,89.0361328 221.626953,90.1342773 L225.213379,90.1342773 C225.187988,89.0297852 224.496094,88.2426758 223.455078,88.2426758 Z M225.187988,92.1083984 L226.273438,92.1083984 C226.083008,93.2636719 224.96582,94.1142578 223.524902,94.1142578 C221.633301,94.1142578 220.484375,92.800293 220.484375,90.7246094 C220.484375,88.6743164 221.652344,87.2841797 223.474121,87.2841797 C225.257812,87.2841797 226.355957,88.5791016 226.355957,90.5786133 L226.355957,90.9975586 L221.620605,90.9975586 L221.620605,91.0610352 C221.620605,92.3242188 222.363281,93.1557617 223.550293,93.1557617 C224.388184,93.1557617 225.003906,92.7304688 225.187988,92.1083984 Z"/>
  </g>
</svg>
