<svg xmlns="http://www.w3.org/2000/svg" xmlns:xlink="http://www.w3.org/1999/xlink" width="350" height="180" viewBox="0 0 350 180">
  <defs>
    <path id="error-a" d="M7.22254109,5.98945674 L11.7593901,1.45260771 C12.0842229,1.11628355 12.0795773,0.581679455 11.7489489,0.251051076 C11.4183205,-0.0795773034 10.8837165,-0.0842228685 10.5473923,0.240609874 L6.01054326,4.77745891 L1.47369422,0.240609874 C1.13737006,-0.0842228685 0.602765966,-0.0795773034 0.272137586,0.251051076 C-0.0584907931,0.581679455 -0.0631363582,1.11628355 0.261696384,1.45260771 L4.79854542,5.98945674 L0.261696384,10.5263058 C0.0388768524,10.7415121 -0.0504852845,11.0602002 0.0279563816,11.359882 C0.106398048,11.6595638 0.340436167,11.893602 0.640118002,11.9720436 C0.939799836,12.0504853 1.25848791,11.9611231 1.47369422,11.7383036 L6.01054326,7.20145458 L10.5473923,11.7383036 C10.8837165,12.0631364 11.4183205,12.0584908 11.7489489,11.7278624 C12.0795773,11.397234 12.0842229,10.8626299 11.7593901,10.5263058 L7.22254109,5.98945674 Z"/>
    <path id="error-c" d="M13.6929417,11.0118641 L8.73994165,1.1058641 C8.40121551,0.428135952 7.70860308,0 6.95094165,0 C6.19328022,0 5.50066779,0.428135952 5.16194165,1.1058641 L0.208941651,11.0158641 C-0.0989581202,11.6354894 -0.0647229393,12.3702439 0.299459428,12.9585541 C0.663641796,13.5468644 1.30603325,13.9051512 1.99794165,13.9058641 L11.9029417,13.9058641 C12.5961777,13.9061872 13.2401412,13.5474994 13.6048048,12.957926 C13.9694684,12.3683526 14.0028183,11.6319873 13.6929417,11.0118641 L13.6929417,11.0118641 Z M5.95094165,3.9058641 C5.95094165,3.35357935 6.3986569,2.9058641 6.95094165,2.9058641 C7.5032264,2.9058641 7.95094165,3.35357935 7.95094165,3.9058641 L7.95094165,7.9058641 C7.95094165,8.45814885 7.5032264,8.9058641 6.95094165,8.9058641 C6.3986569,8.9058641 5.95094165,8.45814885 5.95094165,7.9058641 L5.95094165,3.9058641 Z M6.95094165,12.1558641 C6.26058571,12.1558641 5.70094165,11.59622 5.70094165,10.9058641 C5.70094165,10.2155082 6.26058571,9.6558641 6.95094165,9.6558641 C7.64129759,9.6558641 8.20094165,10.2155082 8.20094165,10.9058641 C8.20094165,11.59622 7.64129759,12.1558641 6.95094165,12.1558641 L6.95094165,12.1558641 Z"/>
    <rect id="error-e" width="55" height="24" rx="3"/>
  </defs>
  <g fill="none" fill-rule="evenodd">
    <rect width="320" height="32" x="15" y="73" fill="#FF0039" fill-rule="nonzero" rx="3"/>
    <g transform="translate(307 77)">
      <rect width="24" height="24"/>
      <g transform="translate(6 6)">
        <path fill="#0C0C0D" fill-opacity=".8" fill-rule="nonzero" d="M7.22254109,5.98945674 L11.7593901,1.45260771 C12.0842229,1.11628355 12.0795773,0.581679455 11.7489489,0.251051076 C11.4183205,-0.0795773034 10.8837165,-0.0842228685 10.5473923,0.240609874 L6.01054326,4.77745891 L1.47369422,0.240609874 C1.13737006,-0.0842228685 0.602765966,-0.0795773034 0.272137586,0.251051076 C-0.0584907931,0.581679455 -0.0631363582,1.11628355 0.261696384,1.45260771 L4.79854542,5.98945674 L0.261696384,10.5263058 C0.0388768524,10.7415121 -0.0504852845,11.0602002 0.0279563816,11.359882 C0.106398048,11.6595638 0.340436167,11.893602 0.640118002,11.9720436 C0.939799836,12.0504853 1.25848791,11.9611231 1.47369422,11.7383036 L6.01054326,7.20145458 L10.5473923,11.7383036 C10.8837165,12.0631364 11.4183205,12.0584908 11.7489489,11.7278624 C12.0795773,11.397234 12.0842229,10.8626299 11.7593901,10.5263058 L7.22254109,5.98945674 Z"/>
        <mask id="error-b" fill="#fff">
          <use xlink:href="#error-a"/>
        </mask>
        <g fill="#FFF" fill-rule="nonzero" mask="url(#error-b)">
          <rect width="200" height="200" transform="translate(-89 -91)"/>
        </g>
      </g>
    </g>
    <g transform="translate(19 77)">
      <rect width="24" height="24"/>
      <g transform="translate(5 5)">
        <path fill="#0C0C0D" fill-opacity=".8" fill-rule="nonzero" d="M13.6929417,11.0118641 L8.73994165,1.1058641 C8.40121551,0.428135952 7.70860308,0 6.95094165,0 C6.19328022,0 5.50066779,0.428135952 5.16194165,1.1058641 L0.208941651,11.0158641 C-0.0989581202,11.6354894 -0.0647229393,12.3702439 0.299459428,12.9585541 C0.663641796,13.5468644 1.30603325,13.9051512 1.99794165,13.9058641 L11.9029417,13.9058641 C12.5961777,13.9061872 13.2401412,13.5474994 13.6048048,12.957926 C13.9694684,12.3683526 14.0028183,11.6319873 13.6929417,11.0118641 L13.6929417,11.0118641 Z M5.95094165,3.9058641 C5.95094165,3.35357935 6.3986569,2.9058641 6.95094165,2.9058641 C7.5032264,2.9058641 7.95094165,3.35357935 7.95094165,3.9058641 L7.95094165,7.9058641 C7.95094165,8.45814885 7.5032264,8.9058641 6.95094165,8.9058641 C6.3986569,8.9058641 5.95094165,8.45814885 5.95094165,7.9058641 L5.95094165,3.9058641 Z M6.95094165,12.1558641 C6.26058571,12.1558641 5.70094165,11.59622 5.70094165,10.9058641 C5.70094165,10.2155082 6.26058571,9.6558641 6.95094165,9.6558641 C7.64129759,9.6558641 8.20094165,10.2155082 8.20094165,10.9058641 C8.20094165,11.59622 7.64129759,12.1558641 6.95094165,12.1558641 L6.95094165,12.1558641 Z"/>
        <mask id="error-d" fill="#fff">
          <use xlink:href="#error-c"/>
        </mask>
        <g fill="#FFF" fill-rule="nonzero" mask="url(#error-d)">
          <rect width="200" height="200" transform="translate(-93 -93)"/>
        </g>
      </g>
    </g>
    <path fill="#FFF" fill-rule="nonzero" d="M53.8427734,92.9716797 L49.3105469,92.9716797 L49.3105469,89.8232422 L53.6079102,89.8232422 L53.6079102,88.8076172 L49.3105469,88.8076172 L49.3105469,85.8686523 L53.8427734,85.8686523 L53.8427734,84.840332 L48.1679688,84.840332 L48.1679688,94 L53.8427734,94 L53.8427734,92.9716797 Z M55.7724609,94 L56.8642578,94 L56.8642578,89.7597656 C56.8642578,88.7949219 57.6196289,88.0966797 58.6606445,88.0966797 C58.8764648,88.0966797 59.2700195,88.1347656 59.3588867,88.1601562 L59.3588867,87.0683594 C59.2192383,87.0493164 58.9907227,87.0366211 58.8129883,87.0366211 C57.9052734,87.0366211 57.1181641,87.5063477 56.9150391,88.1728516 L56.8134766,88.1728516 L56.8134766,87.1572266 L55.7724609,87.1572266 L55.7724609,94 Z M60.8505859,94 L61.9423828,94 L61.9423828,89.7597656 C61.9423828,88.7949219 62.6977539,88.0966797 63.7387695,88.0966797 C63.9545898,88.0966797 64.3481445,88.1347656 64.4370117,88.1601562 L64.4370117,87.0683594 C64.2973633,87.0493164 64.0688477,87.0366211 63.8911133,87.0366211 C62.9833984,87.0366211 62.1962891,87.5063477 61.9931641,88.1728516 L61.8916016,88.1728516 L61.8916016,87.1572266 L60.8505859,87.1572266 L60.8505859,94 Z M68.4233398,94.1206055 C66.4746094,94.1206055 65.2685547,92.7749023 65.2685547,90.5786133 C65.2685547,88.3759766 66.4746094,87.0366211 68.4233398,87.0366211 C70.3720703,87.0366211 71.578125,88.3759766 71.578125,90.5786133 C71.578125,92.7749023 70.3720703,94.1206055 68.4233398,94.1206055 Z M68.4233398,93.1367188 C69.7182617,93.1367188 70.4482422,92.1972656 70.4482422,90.5786133 C70.4482422,88.9536133 69.7182617,88.0205078 68.4233398,88.0205078 C67.128418,88.0205078 66.3984375,88.9536133 66.3984375,90.5786133 C66.3984375,92.1972656 67.128418,93.1367188 68.4233398,93.1367188 Z M73.2919922,94 L74.3837891,94 L74.3837891,89.7597656 C74.3837891,88.7949219 75.1391602,88.0966797 76.1801758,88.0966797 C76.3959961,88.0966797 76.7895508,88.1347656 76.878418,88.1601562 L76.878418,87.0683594 C76.7387695,87.0493164 76.5102539,87.0366211 76.3325195,87.0366211 C75.4248047,87.0366211 74.6376953,87.5063477 74.4345703,88.1728516 L74.3330078,88.1728516 L74.3330078,87.1572266 L73.2919922,87.1572266 L73.2919922,94 Z M81.9755859,94 L83.0673828,94 L83.0673828,84.4404297 L81.9755859,84.4404297 L81.9755859,94 Z M87.9995117,94.1206055 C86.0507812,94.1206055 84.8447266,92.7749023 84.8447266,90.5786133 C84.8447266,88.3759766 86.0507812,87.0366211 87.9995117,87.0366211 C89.9482422,87.0366211 91.1542969,88.3759766 91.1542969,90.5786133 C91.1542969,92.7749023 89.9482422,94.1206055 87.9995117,94.1206055 Z M87.9995117,93.1367188 C89.2944336,93.1367188 90.0244141,92.1972656 90.0244141,90.5786133 C90.0244141,88.9536133 89.2944336,88.0205078 87.9995117,88.0205078 C86.7045898,88.0205078 85.9746094,88.9536133 85.9746094,90.5786133 C85.9746094,92.1972656 86.7045898,93.1367188 87.9995117,93.1367188 Z M94.9755859,93.1621094 C96.0991211,93.1621094 96.9306641,92.4257812 96.9306641,91.4482422 L96.9306641,90.8198242 L95.0898438,90.9404297 C94.0488281,91.0102539 93.5917969,91.3720703 93.5917969,92.0576172 C93.5917969,92.7558594 94.1821289,93.1621094 94.9755859,93.1621094 Z M94.7724609,94.1206055 C93.4458008,94.1206055 92.4619141,93.3334961 92.4619141,92.0830078 C92.4619141,90.8579102 93.3632812,90.1533203 94.956543,90.0581055 L96.9306641,89.9375 L96.9306641,89.3154297 C96.9306641,88.4711914 96.4038086,88.0078125 95.3818359,88.0078125 C94.5629883,88.0078125 93.9916992,88.3188477 93.8393555,88.8583984 L92.7348633,88.8583984 C92.8808594,87.7602539 93.9599609,87.0366211 95.4199219,87.0366211 C97.0893555,87.0366211 98.0224609,87.8935547 98.0224609,89.3154297 L98.0224609,94 L96.9814453,94 L96.9814453,92.9907227 L96.8798828,92.9907227 C96.4355469,93.7207031 95.6865234,94.1206055 94.7724609,94.1206055 Z M102.57373,94.1206055 C100.821777,94.1206055 99.6982422,92.7304688 99.6982422,90.5786133 C99.6982422,88.4331055 100.834473,87.0366211 102.57373,87.0366211 C103.525879,87.0366211 104.332031,87.4873047 104.719238,88.2363281 L104.814453,88.2363281 L104.814453,84.4404297 L105.90625,84.4404297 L105.90625,94 L104.865234,94 L104.865234,92.9082031 L104.763672,92.9082031 C104.332031,93.6699219 103.519531,94.1206055 102.57373,94.1206055 Z M102.827637,88.0205078 C101.583496,88.0205078 100.828125,88.9853516 100.828125,90.5786133 C100.828125,92.1782227 101.577148,93.1367188 102.827637,93.1367188 C104.071777,93.1367188 104.839844,92.1591797 104.839844,90.5786133 C104.839844,89.0107422 104.06543,88.0205078 102.827637,88.0205078 Z M108.051758,94 L109.143555,94 L109.143555,87.1572266 L108.051758,87.1572266 L108.051758,94 Z M108.597656,85.7670898 C109.016602,85.7670898 109.359375,85.4243164 109.359375,85.0053711 C109.359375,84.5864258 109.016602,84.2436523 108.597656,84.2436523 C108.178711,84.2436523 107.835938,84.5864258 107.835938,85.0053711 C107.835938,85.4243164 108.178711,85.7670898 108.597656,85.7670898 Z M111.225586,94 L112.317383,94 L112.317383,89.9501953 C112.317383,88.7504883 113.021973,88.0205078 114.11377,88.0205078 C115.205566,88.0205078 115.726074,88.6044922 115.726074,89.8359375 L115.726074,94 L116.817871,94 L116.817871,89.5693359 C116.817871,87.9443359 115.960938,87.0366211 114.424805,87.0366211 C113.377441,87.0366211 112.710938,87.480957 112.368164,88.2363281 L112.266602,88.2363281 L112.266602,87.1572266 L111.225586,87.1572266 L111.225586,94 Z M121.578613,92.9335938 C122.848145,92.9335938 123.609863,91.96875 123.609863,90.4770508 C123.609863,88.9853516 122.841797,88.0205078 121.578613,88.0205078 C120.309082,88.0205078 119.598145,88.9853516 119.598145,90.4770508 C119.598145,91.96875 120.309082,92.9335938 121.578613,92.9335938 Z M121.629395,96.6279297 C119.979004,96.6279297 118.925293,95.8852539 118.760254,94.7553711 L119.915527,94.7553711 C120.036133,95.3139648 120.645508,95.6757812 121.629395,95.6757812 C122.854492,95.6757812 123.584473,95.0727539 123.584473,94.0634766 L123.584473,92.7177734 L123.48291,92.7177734 C123.05127,93.4731445 122.276855,93.8984375 121.337402,93.8984375 C119.566406,93.8984375 118.468262,92.5273438 118.468262,90.4770508 C118.468262,88.4267578 119.579102,87.0366211 121.337402,87.0366211 C122.295898,87.0366211 123.140137,87.5063477 123.533691,88.2426758 L123.635254,88.2426758 L123.635254,87.1572266 L124.67627,87.1572266 L124.67627,94.1206055 C124.67627,95.6503906 123.495605,96.6279297 121.629395,96.6279297 Z M130.98584,96.4755859 C132.198242,96.4755859 132.744141,96.0058594 133.328125,94.4189453 L136.000488,87.1572266 L134.838867,87.1572266 L132.966309,92.7875977 L132.864746,92.7875977 L130.98584,87.1572266 L129.805176,87.1572266 L132.337891,94.0063477 L132.210938,94.4125977 C131.925293,95.237793 131.58252,95.5361328 130.954102,95.5361328 C130.801758,95.5361328 130.630371,95.5297852 130.49707,95.5043945 L130.49707,96.4375 C130.649414,96.4628906 130.839844,96.4755859 130.98584,96.4755859 Z M140.018555,94.1206055 C138.069824,94.1206055 136.86377,92.7749023 136.86377,90.5786133 C136.86377,88.3759766 138.069824,87.0366211 140.018555,87.0366211 C141.967285,87.0366211 143.17334,88.3759766 143.17334,90.5786133 C143.17334,92.7749023 141.967285,94.1206055 140.018555,94.1206055 Z M140.018555,93.1367188 C141.313477,93.1367188 142.043457,92.1972656 142.043457,90.5786133 C142.043457,88.9536133 141.313477,88.0205078 140.018555,88.0205078 C138.723633,88.0205078 137.993652,88.9536133 137.993652,90.5786133 C137.993652,92.1972656 138.723633,93.1367188 140.018555,93.1367188 Z M150.422363,87.1572266 L149.330566,87.1572266 L149.330566,91.2070312 C149.330566,92.4067383 148.67041,93.1240234 147.464355,93.1240234 C146.372559,93.1240234 145.915527,92.5527344 145.915527,91.3212891 L145.915527,87.1572266 L144.82373,87.1572266 L144.82373,91.5878906 C144.82373,93.206543 145.623535,94.1206055 147.159668,94.1206055 C148.207031,94.1206055 148.937012,93.6889648 149.279785,92.9272461 L149.381348,92.9272461 L149.381348,94 L150.422363,94 L150.422363,87.1572266 Z M152.479004,94 L153.570801,94 L153.570801,89.7597656 C153.570801,88.7949219 154.326172,88.0966797 155.367188,88.0966797 C155.583008,88.0966797 155.976562,88.1347656 156.06543,88.1601562 L156.06543,87.0683594 C155.925781,87.0493164 155.697266,87.0366211 155.519531,87.0366211 C154.611816,87.0366211 153.824707,87.5063477 153.621582,88.1728516 L153.52002,88.1728516 L153.52002,87.1572266 L152.479004,87.1572266 L152.479004,94 Z M163.828613,88.0014648 C162.736816,88.0014648 161.975098,88.8012695 161.892578,90.0136719 L165.663086,90.0136719 C165.637695,88.8012695 164.914062,88.0014648 163.828613,88.0014648 Z M165.631348,92.2290039 L166.723145,92.2290039 C166.393066,93.4033203 165.339355,94.1206055 163.841309,94.1206055 C161.943359,94.1206055 160.756348,92.7495117 160.756348,90.5849609 C160.756348,88.4331055 161.962402,87.0366211 163.841309,87.0366211 C165.688477,87.0366211 166.812012,88.3505859 166.812012,90.4770508 L166.812012,90.8959961 L161.892578,90.8959961 L161.892578,90.9467773 C161.949707,92.2988281 162.705078,93.1557617 163.866699,93.1557617 C164.749023,93.1557617 165.345703,92.8320312 165.631348,92.2290039 Z M170.696777,91.4165039 L172.31543,94 L173.610352,94 L171.255371,90.5341797 L173.578613,87.1572266 L172.34082,87.1572266 L170.734863,89.7026367 L170.633301,89.7026367 L169.008301,87.1572266 L167.707031,87.1572266 L170.074707,90.5786133 L167.732422,94 L168.970215,94 L170.595215,91.4165039 L170.696777,91.4165039 Z M175.559082,85.3862305 L175.559082,87.1572266 L174.45459,87.1572266 L174.45459,88.0712891 L175.559082,88.0712891 L175.559082,92.2226562 C175.559082,93.5302734 176.124023,94.0507812 177.533203,94.0507812 C177.749023,94.0507812 177.958496,94.0253906 178.174316,93.9873047 L178.174316,93.0668945 C177.971191,93.0859375 177.863281,93.0922852 177.666504,93.0922852 C176.955566,93.0922852 176.650879,92.7495117 176.650879,91.9433594 L176.650879,88.0712891 L178.174316,88.0712891 L178.174316,87.1572266 L176.650879,87.1572266 L176.650879,85.3862305 L175.559082,85.3862305 Z M182.458984,88.0014648 C181.367188,88.0014648 180.605469,88.8012695 180.522949,90.0136719 L184.293457,90.0136719 C184.268066,88.8012695 183.544434,88.0014648 182.458984,88.0014648 Z M184.261719,92.2290039 L185.353516,92.2290039 C185.023438,93.4033203 183.969727,94.1206055 182.47168,94.1206055 C180.57373,94.1206055 179.386719,92.7495117 179.386719,90.5849609 C179.386719,88.4331055 180.592773,87.0366211 182.47168,87.0366211 C184.318848,87.0366211 185.442383,88.3505859 185.442383,90.4770508 L185.442383,90.8959961 L180.522949,90.8959961 L180.522949,90.9467773 C180.580078,92.2988281 181.335449,93.1557617 182.49707,93.1557617 C183.379395,93.1557617 183.976074,92.8320312 184.261719,92.2290039 Z M187.15625,94 L188.248047,94 L188.248047,89.9501953 C188.248047,88.7504883 188.952637,88.0205078 190.044434,88.0205078 C191.13623,88.0205078 191.656738,88.6044922 191.656738,89.8359375 L191.656738,94 L192.748535,94 L192.748535,89.5693359 C192.748535,87.9443359 191.891602,87.0366211 190.355469,87.0366211 C189.308105,87.0366211 188.641602,87.480957 188.298828,88.2363281 L188.197266,88.2363281 L188.197266,87.1572266 L187.15625,87.1572266 L187.15625,94 Z M194.583008,89.0297852 C194.583008,90.0200195 195.166992,90.5722656 196.449219,90.8833008 L197.623535,91.1689453 C198.353516,91.3466797 198.708984,91.6640625 198.708984,92.1337891 C198.708984,92.762207 198.048828,93.2001953 197.128418,93.2001953 C196.252441,93.2001953 195.706543,92.8320312 195.522461,92.2543945 L194.398926,92.2543945 C194.519531,93.390625 195.566895,94.1206055 197.090332,94.1206055 C198.645508,94.1206055 199.83252,93.2763672 199.83252,92.0512695 C199.83252,91.0673828 199.210449,90.5087891 197.921875,90.1977539 L196.868164,89.9438477 C196.062012,89.7470703 195.681152,89.4550781 195.681152,88.9853516 C195.681152,88.3759766 196.315918,87.9633789 197.128418,87.9633789 C197.953613,87.9633789 198.486816,88.3251953 198.632812,88.8710938 L199.711914,88.8710938 C199.565918,87.7475586 198.569336,87.0366211 197.134766,87.0366211 C195.681152,87.0366211 194.583008,87.8935547 194.583008,89.0297852 Z M201.571777,94 L202.663574,94 L202.663574,87.1572266 L201.571777,87.1572266 L201.571777,94 Z M202.117676,85.7670898 C202.536621,85.7670898 202.879395,85.4243164 202.879395,85.0053711 C202.879395,84.5864258 202.536621,84.2436523 202.117676,84.2436523 C201.69873,84.2436523 201.355957,84.5864258 201.355957,85.0053711 C201.355957,85.4243164 201.69873,85.7670898 202.117676,85.7670898 Z M207.557617,94.1206055 C205.608887,94.1206055 204.402832,92.7749023 204.402832,90.5786133 C204.402832,88.3759766 205.608887,87.0366211 207.557617,87.0366211 C209.506348,87.0366211 210.712402,88.3759766 210.712402,90.5786133 C210.712402,92.7749023 209.506348,94.1206055 207.557617,94.1206055 Z M207.557617,93.1367188 C208.852539,93.1367188 209.58252,92.1972656 209.58252,90.5786133 C209.58252,88.9536133 208.852539,88.0205078 207.557617,88.0205078 C206.262695,88.0205078 205.532715,88.9536133 205.532715,90.5786133 C205.532715,92.1972656 206.262695,93.1367188 207.557617,93.1367188 Z M212.42627,94 L213.518066,94 L213.518066,89.9501953 C213.518066,88.7504883 214.222656,88.0205078 215.314453,88.0205078 C216.40625,88.0205078 216.926758,88.6044922 216.926758,89.8359375 L216.926758,94 L218.018555,94 L218.018555,89.5693359 C218.018555,87.9443359 217.161621,87.0366211 215.625488,87.0366211 C214.578125,87.0366211 213.911621,87.480957 213.568848,88.2363281 L213.467285,88.2363281 L213.467285,87.1572266 L212.42627,87.1572266 L212.42627,94 Z"/>
    <g transform="translate(227 77)">
      <rect width="55" height="24" fill="#D70022" fill-rule="nonzero" rx="3"/>
      <mask id="error-f" fill="#fff">
        <use xlink:href="#error-e"/>
      </mask>
      <path fill="#FFF" fill-rule="nonzero" d="M10.7469485,9.97885754 L10.7469485,12.7381837 L12.4493899,12.7381837 C13.3863039,12.7381837 13.9233157,12.2354493 13.9233157,11.361377 C13.9233157,10.5044435 13.3520266,9.97885754 12.4151126,9.97885754 L10.7469485,9.97885754 Z M10.7469485,13.9093262 L10.7469485,17 L9.27302276,17 L9.27302276,8.75629896 L12.6207766,8.75629896 C14.3517824,8.75629896 15.4372316,9.75034192 15.4372316,11.3328126 C15.4372316,12.4182618 14.8659426,13.3266114 13.8833254,13.6808106 L15.6828859,17 L13.9975832,17 L12.3808352,13.9093262 L10.7469485,13.9093262 Z M22.5554932,15.7260254 L18.6935792,15.7260254 L18.6935792,13.4180176 L22.3441163,13.4180176 L22.3441163,12.2183106 L18.6935792,12.2183106 L18.6935792,10.0302736 L22.5554932,10.0302736 L22.5554932,8.75629896 L17.2196535,8.75629896 L17.2196535,17 L22.5554932,17 L22.5554932,15.7260254 Z M27.9084717,17 L27.9084717,10.0302736 L30.450708,10.0302736 L30.450708,8.75629896 L23.8980225,8.75629896 L23.8980225,10.0302736 L26.4345459,10.0302736 L26.4345459,17 L27.9084717,17 Z M33.4671142,9.97885754 L33.4671142,12.7381837 L35.1695555,12.7381837 C36.1064696,12.7381837 36.6434813,12.2354493 36.6434813,11.361377 C36.6434813,10.5044435 36.0721922,9.97885754 35.1352782,9.97885754 L33.4671142,9.97885754 Z M33.4671142,13.9093262 L33.4671142,17 L31.9931884,17 L31.9931884,8.75629896 L35.3409423,8.75629896 C37.0719481,8.75629896 38.1573973,9.75034192 38.1573973,11.3328126 C38.1573973,12.4182618 37.5861082,13.3266114 36.6034911,13.6808106 L38.4030516,17 L36.7177489,17 L35.1010009,13.9093262 L33.4671142,13.9093262 Z M43.4475339,17 L43.4475339,13.7779297 L46.3382565,8.75629896 L44.7215085,8.75629896 L42.7619871,12.2811524 L42.6648679,12.2811524 L40.6996336,8.75629896 L39.0828856,8.75629896 L41.9736082,13.7779297 L41.9736082,17 L43.4475339,17 Z" mask="url(#error-f)"/>
    </g>
  </g>
</svg>
