<svg xmlns="http://www.w3.org/2000/svg" width="350" height="180" viewBox="0 0 350 180">
  <g fill="none" fill-rule="evenodd" transform="translate(24 81)">
    <path fill="#D70022" d="M8,1 C11.8659932,1 15,4.13400675 15,8 C15,11.8659932 11.8659932,15 8,15 C4.13400675,15 1,11.8659932 1,8 C1,4.13400675 4.13400675,1 8,1 Z M8,4 C8.55228475,4 9,4.44771525 9,5 C9,5.55228475 8.55228475,6 8,6 C7.44771525,6 7,5.55228475 7,5 C7,4.44771525 7.44771525,4 8,4 Z M8,7 C8.55228475,7 9,7.44771525 9,8 L9,11 C9,11.5522847 8.55228475,12 8,12 C7.44771525,12 7,11.5522847 7,11 L7,8 C7,7.44771525 7.44771525,7 8,7 Z" transform="matrix(1 0 0 -1 0 16)"/>
    <path fill="#D70022" d="M28.690918,13 L28.690918,4.86865234 L31.6425781,4.86865234 L31.6425781,3.84033203 L24.5966797,3.84033203 L24.5966797,4.86865234 L27.5483398,4.86865234 L27.5483398,13 L28.690918,13 Z M33.3310547,13 L34.4228516,13 L34.4228516,8.95019531 C34.4228516,7.79492188 35.0957031,7.02050781 36.3208008,7.02050781 C37.3554688,7.02050781 37.9013672,7.62353516 37.9013672,8.8359375 L37.9013672,13 L38.9931641,13 L38.9931641,8.56933594 C38.9931641,6.96337891 38.0791016,6.03662109 36.6318359,6.03662109 C35.5844727,6.03662109 34.8671875,6.48095703 34.5244141,7.23632812 L34.4228516,7.23632812 L34.4228516,3.44042969 L33.3310547,3.44042969 L33.3310547,13 Z M43.7158203,7.00146484 C42.6240234,7.00146484 41.8623047,7.80126953 41.7797852,9.01367188 L45.550293,9.01367188 C45.5249023,7.80126953 44.8012695,7.00146484 43.7158203,7.00146484 Z M45.5185547,11.2290039 L46.6103516,11.2290039 C46.2802734,12.4033203 45.2265625,13.1206055 43.7285156,13.1206055 C41.8305664,13.1206055 40.6435547,11.7495117 40.6435547,9.58496094 C40.6435547,7.43310547 41.8496094,6.03662109 43.7285156,6.03662109 C45.5756836,6.03662109 46.6992188,7.35058594 46.6992188,9.47705078 L46.6992188,9.89599609 L41.7797852,9.89599609 L41.7797852,9.94677734 C41.8369141,11.2988281 42.5922852,12.1557617 43.7539062,12.1557617 C44.6362305,12.1557617 45.2329102,11.8320312 45.5185547,11.2290039 Z M48.4130859,13 L49.5048828,13 L49.5048828,8.75976562 C49.5048828,7.79492188 50.2602539,7.09667969 51.3012695,7.09667969 C51.5170898,7.09667969 51.9106445,7.13476562 51.9995117,7.16015625 L51.9995117,6.06835938 C51.8598633,6.04931641 51.6313477,6.03662109 51.4536133,6.03662109 C50.5458984,6.03662109 49.7587891,6.50634766 49.5556641,7.17285156 L49.4541016,7.17285156 L49.4541016,6.15722656 L48.4130859,6.15722656 L48.4130859,13 Z M55.9033203,7.00146484 C54.8115234,7.00146484 54.0498047,7.80126953 53.9672852,9.01367188 L57.737793,9.01367188 C57.7124023,7.80126953 56.9887695,7.00146484 55.9033203,7.00146484 Z M57.7060547,11.2290039 L58.7978516,11.2290039 C58.4677734,12.4033203 57.4140625,13.1206055 55.9160156,13.1206055 C54.0180664,13.1206055 52.8310547,11.7495117 52.8310547,9.58496094 C52.8310547,7.43310547 54.0371094,6.03662109 55.9160156,6.03662109 C57.7631836,6.03662109 58.8867188,7.35058594 58.8867188,9.47705078 L58.8867188,9.89599609 L53.9672852,9.89599609 L53.9672852,9.94677734 C54.0244141,11.2988281 54.7797852,12.1557617 55.9414062,12.1557617 C56.8237305,12.1557617 57.4204102,11.8320312 57.7060547,11.2290039 Z M72.8769531,6.15722656 L71.7788086,6.15722656 L70.4331055,11.6289062 L70.331543,11.6289062 L68.8017578,6.15722656 L67.7543945,6.15722656 L66.2246094,11.6289062 L66.1230469,11.6289062 L64.7773438,6.15722656 L63.6728516,6.15722656 L65.5898438,13 L66.6943359,13 L68.2177734,7.70605469 L68.3193359,7.70605469 L69.8491211,13 L70.9599609,13 L72.8769531,6.15722656 Z M76.2539062,12.1621094 C77.3774414,12.1621094 78.2089844,11.4257812 78.2089844,10.4482422 L78.2089844,9.81982422 L76.3681641,9.94042969 C75.3271484,10.0102539 74.8701172,10.3720703 74.8701172,11.0576172 C74.8701172,11.7558594 75.4604492,12.1621094 76.2539062,12.1621094 Z M76.0507812,13.1206055 C74.7241211,13.1206055 73.7402344,12.3334961 73.7402344,11.0830078 C73.7402344,9.85791016 74.6416016,9.15332031 76.2348633,9.05810547 L78.2089844,8.9375 L78.2089844,8.31542969 C78.2089844,7.47119141 77.6821289,7.0078125 76.6601562,7.0078125 C75.8413086,7.0078125 75.2700195,7.31884766 75.1176758,7.85839844 L74.0131836,7.85839844 C74.1591797,6.76025391 75.2382812,6.03662109 76.6982422,6.03662109 C78.3676758,6.03662109 79.3007812,6.89355469 79.3007812,8.31542969 L79.3007812,13 L78.2597656,13 L78.2597656,11.9907227 L78.1582031,11.9907227 C77.7138672,12.7207031 76.9648438,13.1206055 76.0507812,13.1206055 Z M81.1606445,8.02978516 C81.1606445,9.02001953 81.7446289,9.57226562 83.0268555,9.88330078 L84.2011719,10.1689453 C84.9311523,10.3466797 85.2866211,10.6640625 85.2866211,11.1337891 C85.2866211,11.762207 84.6264648,12.2001953 83.7060547,12.2001953 C82.8300781,12.2001953 82.2841797,11.8320312 82.1000977,11.2543945 L80.9765625,11.2543945 C81.097168,12.390625 82.1445312,13.1206055 83.6679688,13.1206055 C85.2231445,13.1206055 86.4101562,12.2763672 86.4101562,11.0512695 C86.4101562,10.0673828 85.7880859,9.50878906 84.4995117,9.19775391 L83.4458008,8.94384766 C82.6396484,8.74707031 82.2587891,8.45507812 82.2587891,7.98535156 C82.2587891,7.37597656 82.8935547,6.96337891 83.7060547,6.96337891 C84.53125,6.96337891 85.0644531,7.32519531 85.2104492,7.87109375 L86.2895508,7.87109375 C86.1435547,6.74755859 85.1469727,6.03662109 83.7124023,6.03662109 C82.2587891,6.03662109 81.1606445,6.89355469 81.1606445,8.02978516 Z M93.9003906,12.1621094 C95.0239258,12.1621094 95.8554688,11.4257812 95.8554688,10.4482422 L95.8554688,9.81982422 L94.0146484,9.94042969 C92.9736328,10.0102539 92.5166016,10.3720703 92.5166016,11.0576172 C92.5166016,11.7558594 93.1069336,12.1621094 93.9003906,12.1621094 Z M93.6972656,13.1206055 C92.3706055,13.1206055 91.3867188,12.3334961 91.3867188,11.0830078 C91.3867188,9.85791016 92.2880859,9.15332031 93.8813477,9.05810547 L95.8554688,8.9375 L95.8554688,8.31542969 C95.8554688,7.47119141 95.3286133,7.0078125 94.3066406,7.0078125 C93.487793,7.0078125 92.9165039,7.31884766 92.7641602,7.85839844 L91.659668,7.85839844 C91.8056641,6.76025391 92.8847656,6.03662109 94.3447266,6.03662109 C96.0141602,6.03662109 96.9472656,6.89355469 96.9472656,8.31542969 L96.9472656,13 L95.90625,13 L95.90625,11.9907227 L95.8046875,11.9907227 C95.3603516,12.7207031 94.6113281,13.1206055 93.6972656,13.1206055 Z M98.9658203,13 L100.057617,13 L100.057617,8.95019531 C100.057617,7.75048828 100.762207,7.02050781 101.854004,7.02050781 C102.945801,7.02050781 103.466309,7.60449219 103.466309,8.8359375 L103.466309,13 L104.558105,13 L104.558105,8.56933594 C104.558105,6.94433594 103.701172,6.03662109 102.165039,6.03662109 C101.117676,6.03662109 100.451172,6.48095703 100.108398,7.23632812 L100.006836,7.23632812 L100.006836,6.15722656 L98.9658203,6.15722656 L98.9658203,13 Z M112.949707,7.00146484 C111.85791,7.00146484 111.096191,7.80126953 111.013672,9.01367188 L114.78418,9.01367188 C114.758789,7.80126953 114.035156,7.00146484 112.949707,7.00146484 Z M114.752441,11.2290039 L115.844238,11.2290039 C115.51416,12.4033203 114.460449,13.1206055 112.962402,13.1206055 C111.064453,13.1206055 109.877441,11.7495117 109.877441,9.58496094 C109.877441,7.43310547 111.083496,6.03662109 112.962402,6.03662109 C114.80957,6.03662109 115.933105,7.35058594 115.933105,9.47705078 L115.933105,9.89599609 L111.013672,9.89599609 L111.013672,9.94677734 C111.070801,11.2988281 111.826172,12.1557617 112.987793,12.1557617 C113.870117,12.1557617 114.466797,11.8320312 114.752441,11.2290039 Z M117.646973,13 L118.73877,13 L118.73877,8.75976562 C118.73877,7.79492188 119.494141,7.09667969 120.535156,7.09667969 C120.750977,7.09667969 121.144531,7.13476562 121.233398,7.16015625 L121.233398,6.06835938 C121.09375,6.04931641 120.865234,6.03662109 120.6875,6.03662109 C119.779785,6.03662109 118.992676,6.50634766 118.789551,7.17285156 L118.687988,7.17285156 L118.687988,6.15722656 L117.646973,6.15722656 L117.646973,13 Z M122.725098,13 L123.816895,13 L123.816895,8.75976562 C123.816895,7.79492188 124.572266,7.09667969 125.613281,7.09667969 C125.829102,7.09667969 126.222656,7.13476562 126.311523,7.16015625 L126.311523,6.06835938 C126.171875,6.04931641 125.943359,6.03662109 125.765625,6.03662109 C124.85791,6.03662109 124.070801,6.50634766 123.867676,7.17285156 L123.766113,7.17285156 L123.766113,6.15722656 L122.725098,6.15722656 L122.725098,13 Z M130.297852,13.1206055 C128.349121,13.1206055 127.143066,11.7749023 127.143066,9.57861328 C127.143066,7.37597656 128.349121,6.03662109 130.297852,6.03662109 C132.246582,6.03662109 133.452637,7.37597656 133.452637,9.57861328 C133.452637,11.7749023 132.246582,13.1206055 130.297852,13.1206055 Z M130.297852,12.1367188 C131.592773,12.1367188 132.322754,11.1972656 132.322754,9.57861328 C132.322754,7.95361328 131.592773,7.02050781 130.297852,7.02050781 C129.00293,7.02050781 128.272949,7.95361328 128.272949,9.57861328 C128.272949,11.1972656 129.00293,12.1367188 130.297852,12.1367188 Z M135.166504,13 L136.258301,13 L136.258301,8.75976562 C136.258301,7.79492188 137.013672,7.09667969 138.054688,7.09667969 C138.270508,7.09667969 138.664062,7.13476562 138.75293,7.16015625 L138.75293,6.06835938 C138.613281,6.04931641 138.384766,6.03662109 138.207031,6.03662109 C137.299316,6.03662109 136.512207,6.50634766 136.309082,7.17285156 L136.20752,7.17285156 L136.20752,6.15722656 L135.166504,6.15722656 L135.166504,13 Z M146.319336,13.1206055 C144.567383,13.1206055 143.443848,11.7304688 143.443848,9.57861328 C143.443848,7.43310547 144.580078,6.03662109 146.319336,6.03662109 C147.271484,6.03662109 148.077637,6.48730469 148.464844,7.23632812 L148.560059,7.23632812 L148.560059,3.44042969 L149.651855,3.44042969 L149.651855,13 L148.61084,13 L148.61084,11.9082031 L148.509277,11.9082031 C148.077637,12.6699219 147.265137,13.1206055 146.319336,13.1206055 Z M146.573242,7.02050781 C145.329102,7.02050781 144.57373,7.98535156 144.57373,9.57861328 C144.57373,11.1782227 145.322754,12.1367188 146.573242,12.1367188 C147.817383,12.1367188 148.585449,11.1591797 148.585449,9.57861328 C148.585449,8.01074219 147.811035,7.02050781 146.573242,7.02050781 Z M157.307129,6.15722656 L156.215332,6.15722656 L156.215332,10.2070312 C156.215332,11.4067383 155.555176,12.1240234 154.349121,12.1240234 C153.257324,12.1240234 152.800293,11.5527344 152.800293,10.3212891 L152.800293,6.15722656 L151.708496,6.15722656 L151.708496,10.5878906 C151.708496,12.206543 152.508301,13.1206055 154.044434,13.1206055 C155.091797,13.1206055 155.821777,12.6889648 156.164551,11.9272461 L156.266113,11.9272461 L156.266113,13 L157.307129,13 L157.307129,6.15722656 Z M159.36377,13 L160.455566,13 L160.455566,8.75976562 C160.455566,7.79492188 161.210938,7.09667969 162.251953,7.09667969 C162.467773,7.09667969 162.861328,7.13476562 162.950195,7.16015625 L162.950195,6.06835938 C162.810547,6.04931641 162.582031,6.03662109 162.404297,6.03662109 C161.496582,6.03662109 160.709473,6.50634766 160.506348,7.17285156 L160.404785,7.17285156 L160.404785,6.15722656 L159.36377,6.15722656 L159.36377,13 Z M164.467285,13 L165.559082,13 L165.559082,6.15722656 L164.467285,6.15722656 L164.467285,13 Z M165.013184,4.76708984 C165.432129,4.76708984 165.774902,4.42431641 165.774902,4.00537109 C165.774902,3.58642578 165.432129,3.24365234 165.013184,3.24365234 C164.594238,3.24365234 164.251465,3.58642578 164.251465,4.00537109 C164.251465,4.42431641 164.594238,4.76708984 165.013184,4.76708984 Z M167.641113,13 L168.73291,13 L168.73291,8.95019531 C168.73291,7.75048828 169.4375,7.02050781 170.529297,7.02050781 C171.621094,7.02050781 172.141602,7.60449219 172.141602,8.8359375 L172.141602,13 L173.233398,13 L173.233398,8.56933594 C173.233398,6.94433594 172.376465,6.03662109 170.840332,6.03662109 C169.792969,6.03662109 169.126465,6.48095703 168.783691,7.23632812 L168.682129,7.23632812 L168.682129,6.15722656 L167.641113,6.15722656 L167.641113,13 Z M177.994141,11.9335938 C179.263672,11.9335938 180.025391,10.96875 180.025391,9.47705078 C180.025391,7.98535156 179.257324,7.02050781 177.994141,7.02050781 C176.724609,7.02050781 176.013672,7.98535156 176.013672,9.47705078 C176.013672,10.96875 176.724609,11.9335938 177.994141,11.9335938 Z M178.044922,15.6279297 C176.394531,15.6279297 175.34082,14.8852539 175.175781,13.7553711 L176.331055,13.7553711 C176.45166,14.3139648 177.061035,14.6757812 178.044922,14.6757812 C179.27002,14.6757812 180,14.0727539 180,13.0634766 L180,11.7177734 L179.898438,11.7177734 C179.466797,12.4731445 178.692383,12.8984375 177.75293,12.8984375 C175.981934,12.8984375 174.883789,11.5273438 174.883789,9.47705078 C174.883789,7.42675781 175.994629,6.03662109 177.75293,6.03662109 C178.711426,6.03662109 179.555664,6.50634766 179.949219,7.24267578 L180.050781,7.24267578 L180.050781,6.15722656 L181.091797,6.15722656 L181.091797,13.1206055 C181.091797,14.6503906 179.911133,15.6279297 178.044922,15.6279297 Z M186.842773,13 L187.93457,13 L187.93457,6.15722656 L186.842773,6.15722656 L186.842773,13 Z M187.388672,4.76708984 C187.807617,4.76708984 188.150391,4.42431641 188.150391,4.00537109 C188.150391,3.58642578 187.807617,3.24365234 187.388672,3.24365234 C186.969727,3.24365234 186.626953,3.58642578 186.626953,4.00537109 C186.626953,4.42431641 186.969727,4.76708984 187.388672,4.76708984 Z M190.016602,13 L191.108398,13 L191.108398,8.95019531 C191.108398,7.75048828 191.812988,7.02050781 192.904785,7.02050781 C193.996582,7.02050781 194.51709,7.60449219 194.51709,8.8359375 L194.51709,13 L195.608887,13 L195.608887,8.56933594 C195.608887,6.94433594 194.751953,6.03662109 193.21582,6.03662109 C192.168457,6.03662109 191.501953,6.48095703 191.15918,7.23632812 L191.057617,7.23632812 L191.057617,6.15722656 L190.016602,6.15722656 L190.016602,13 Z M197.443359,8.02978516 C197.443359,9.02001953 198.027344,9.57226562 199.30957,9.88330078 L200.483887,10.1689453 C201.213867,10.3466797 201.569336,10.6640625 201.569336,11.1337891 C201.569336,11.762207 200.90918,12.2001953 199.98877,12.2001953 C199.112793,12.2001953 198.566895,11.8320312 198.382813,11.2543945 L197.259277,11.2543945 C197.379883,12.390625 198.427246,13.1206055 199.950684,13.1206055 C201.505859,13.1206055 202.692871,12.2763672 202.692871,11.0512695 C202.692871,10.0673828 202.070801,9.50878906 200.782227,9.19775391 L199.728516,8.94384766 C198.922363,8.74707031 198.541504,8.45507812 198.541504,7.98535156 C198.541504,7.37597656 199.17627,6.96337891 199.98877,6.96337891 C200.813965,6.96337891 201.347168,7.32519531 201.493164,7.87109375 L202.572266,7.87109375 C202.42627,6.74755859 201.429688,6.03662109 199.995117,6.03662109 C198.541504,6.03662109 197.443359,6.89355469 197.443359,8.02978516 Z M204.800293,4.38623047 L204.800293,6.15722656 L203.695801,6.15722656 L203.695801,7.07128906 L204.800293,7.07128906 L204.800293,11.2226562 C204.800293,12.5302734 205.365234,13.0507812 206.774414,13.0507812 C206.990234,13.0507812 207.199707,13.0253906 207.415527,12.9873047 L207.415527,12.0668945 C207.212402,12.0859375 207.104492,12.0922852 206.907715,12.0922852 C206.196777,12.0922852 205.89209,11.7495117 205.89209,10.9433594 L205.89209,7.07128906 L207.415527,7.07128906 L207.415527,6.15722656 L205.89209,6.15722656 L205.89209,4.38623047 L204.800293,4.38623047 Z M211.17334,12.1621094 C212.296875,12.1621094 213.128418,11.4257812 213.128418,10.4482422 L213.128418,9.81982422 L211.287598,9.94042969 C210.246582,10.0102539 209.789551,10.3720703 209.789551,11.0576172 C209.789551,11.7558594 210.379883,12.1621094 211.17334,12.1621094 Z M210.970215,13.1206055 C209.643555,13.1206055 208.659668,12.3334961 208.659668,11.0830078 C208.659668,9.85791016 209.561035,9.15332031 211.154297,9.05810547 L213.128418,8.9375 L213.128418,8.31542969 C213.128418,7.47119141 212.601563,7.0078125 211.57959,7.0078125 C210.760742,7.0078125 210.189453,7.31884766 210.037109,7.85839844 L208.932617,7.85839844 C209.078613,6.76025391 210.157715,6.03662109 211.617676,6.03662109 C213.287109,6.03662109 214.220215,6.89355469 214.220215,8.31542969 L214.220215,13 L213.179199,13 L213.179199,11.9907227 L213.077637,11.9907227 C212.633301,12.7207031 211.884277,13.1206055 210.970215,13.1206055 Z M216.302246,13 L217.394043,13 L217.394043,3.44042969 L216.302246,3.44042969 L216.302246,13 Z M219.577637,13 L220.669434,13 L220.669434,3.44042969 L219.577637,3.44042969 L219.577637,13 Z M224.896973,12.1621094 C226.020508,12.1621094 226.852051,11.4257812 226.852051,10.4482422 L226.852051,9.81982422 L225.01123,9.94042969 C223.970215,10.0102539 223.513184,10.3720703 223.513184,11.0576172 C223.513184,11.7558594 224.103516,12.1621094 224.896973,12.1621094 Z M224.693848,13.1206055 C223.367188,13.1206055 222.383301,12.3334961 222.383301,11.0830078 C222.383301,9.85791016 223.284668,9.15332031 224.87793,9.05810547 L226.852051,8.9375 L226.852051,8.31542969 C226.852051,7.47119141 226.325195,7.0078125 225.303223,7.0078125 C224.484375,7.0078125 223.913086,7.31884766 223.760742,7.85839844 L222.65625,7.85839844 C222.802246,6.76025391 223.881348,6.03662109 225.341309,6.03662109 C227.010742,6.03662109 227.943848,6.89355469 227.943848,8.31542969 L227.943848,13 L226.902832,13 L226.902832,11.9907227 L226.80127,11.9907227 C226.356934,12.7207031 225.60791,13.1206055 224.693848,13.1206055 Z M230.419434,4.38623047 L230.419434,6.15722656 L229.314941,6.15722656 L229.314941,7.07128906 L230.419434,7.07128906 L230.419434,11.2226562 C230.419434,12.5302734 230.984375,13.0507812 232.393555,13.0507812 C232.609375,13.0507812 232.818848,13.0253906 233.034668,12.9873047 L233.034668,12.0668945 C232.831543,12.0859375 232.723633,12.0922852 232.526855,12.0922852 C231.815918,12.0922852 231.51123,11.7495117 231.51123,10.9433594 L231.51123,7.07128906 L233.034668,7.07128906 L233.034668,6.15722656 L231.51123,6.15722656 L231.51123,4.38623047 L230.419434,4.38623047 Z M234.710449,13 L235.802246,13 L235.802246,6.15722656 L234.710449,6.15722656 L234.710449,13 Z M235.256348,4.76708984 C235.675293,4.76708984 236.018066,4.42431641 236.018066,4.00537109 C236.018066,3.58642578 235.675293,3.24365234 235.256348,3.24365234 C234.837402,3.24365234 234.494629,3.58642578 234.494629,4.00537109 C234.494629,4.42431641 234.837402,4.76708984 235.256348,4.76708984 Z M240.696289,13.1206055 C238.747559,13.1206055 237.541504,11.7749023 237.541504,9.57861328 C237.541504,7.37597656 238.747559,6.03662109 240.696289,6.03662109 C242.64502,6.03662109 243.851074,7.37597656 243.851074,9.57861328 C243.851074,11.7749023 242.64502,13.1206055 240.696289,13.1206055 Z M240.696289,12.1367188 C241.991211,12.1367188 242.721191,11.1972656 242.721191,9.57861328 C242.721191,7.95361328 241.991211,7.02050781 240.696289,7.02050781 C239.401367,7.02050781 238.671387,7.95361328 238.671387,9.57861328 C238.671387,11.1972656 239.401367,12.1367188 240.696289,12.1367188 Z M245.564941,13 L246.656738,13 L246.656738,8.95019531 C246.656738,7.75048828 247.361328,7.02050781 248.453125,7.02050781 C249.544922,7.02050781 250.06543,7.60449219 250.06543,8.8359375 L250.06543,13 L251.157227,13 L251.157227,8.56933594 C251.157227,6.94433594 250.300293,6.03662109 248.76416,6.03662109 C247.716797,6.03662109 247.050293,6.48095703 246.70752,7.23632812 L246.605957,7.23632812 L246.605957,6.15722656 L245.564941,6.15722656 L245.564941,13 Z"/>
  </g>
</svg>
