<svg xmlns="http://www.w3.org/2000/svg" width="256" height="256" viewBox="0 0 256 256">
  <g fill="none">
    <path fill="#ED00B5" d="M211,140.739134 L211,42 C211,35.3725024 205.627417,30 199,30 C192.372583,30 187,35.3725024 187,42 L187,141.252259 C191.032729,139.795873 195.410183,139 200,139 C203.823623,139 207.52235,139.609986 211,140.739134 Z M211,209.260866 L211,213 C211,219.627498 205.627417,225 199,225 C192.372583,225 187,219.627498 187,213 L187,208.747741 C191.032729,210.204127 195.410183,211 200,211 C203.823623,211 207.52235,210.390014 211,209.260866 Z"/>
    <path fill="#7D004F" d="M200,211 C179.350878,211 163,194.89146 163,175 C163,155.10854 179.350878,139 200,139 C219.649122,139 236,155.10854 236,175 C236,194.89146 219.649122,211 200,211 Z M199,190 C207.293415,190 214,183.275027 214,175 C214,166.724973 207.293415,160 199,160 C190.706585,160 184,166.724973 184,175 C184,183.275027 190.706585,190 199,190 Z"/>
    <path fill="#ED00B5" d="M140 58.7391336L140 42C140 35.3725024 134.627417 30 128 30 121.372583 30 116 35.3725024 116 42L116 59.2522587C120.032729 57.7958729 124.410183 57 129 57 132.823623 57 136.52235 57.6099861 140 58.7391336zM140 127.260866L140 213C140 219.627498 134.627417 225 128 225 121.372583 225 116 219.627498 116 213L116 126.747741C120.032729 128.204127 124.410183 129 129 129 132.823623 129 136.52235 128.390014 140 127.260866zM68.0000004 122.430593L68.0000004 42C68 35.3725024 62.627417 30 56.0000002 30 49.372583 30 44 35.3725024 44 42L44 123.629669C48.3053033 121.933912 53.0280537 121 58 121 61.4593043 121 64.8163796 121.499284 68.0000004 122.430593zM68.0000004 191.569407L68.0000004 213C68 219.627498 62.627417 225 56.0000002 225 49.372583 225 44 219.627498 44 213L44 190.370331C48.3053033 192.066088 53.0280537 193 58 193 61.4593043 193 64.8163796 192.500716 68.0000004 191.569407z"/>
    <path fill="#7D004F" d="M58 193C37.3508776 193 21 176.89146 21 157 21 137.10854 37.3508776 121 58 121 77.6491224 121 94 137.10854 94 157 94 176.89146 77.6491224 193 58 193zM57 172C65.2934152 172 72 165.275027 72 157 72 148.724973 65.2934152 142 57 142 48.7065848 142 42 148.724973 42 157 42 165.275027 48.7065848 172 57 172zM129 129C108.350878 129 92 112.89146 92 93 92 73.1085401 108.350878 57 129 57 148.649122 57 165 73.1085401 165 93 165 112.89146 148.649122 129 129 129zM128 108C136.293415 108 143 101.275027 143 93 143 84.7249734 136.293415 78 128 78 119.706585 78 113 84.7249734 113 93 113 101.275027 119.706585 108 128 108z"/>
  </g>
</svg>
