<svg xmlns="http://www.w3.org/2000/svg" width="256" height="256" viewBox="0 0 256 256">
  <g fill="none" fill-rule="evenodd" transform="translate(20 31)">
    <path fill="#ED00B5" d="M195.435877,115.087663 L195.435877,16.1454862 C195.435877,7.2258986 188.233618,-0.00485581206 179.349182,-0.00485581206 C170.464747,-0.00485581206 163.262488,7.2258986 163.262488,16.1454862 L163.262488,115.087663 C167.669016,111.569379 173.262366,109.464926 179.349182,109.464926 C185.435999,109.464926 191.029349,111.569379 195.435877,115.087663 Z M195.435877,155.118527 L195.435877,177.648906 C195.435877,186.568494 188.233618,193.799248 179.349182,193.799248 C170.464747,193.799248 163.262488,186.568494 163.262488,177.648906 L163.262488,155.118527 C167.669016,158.63681 173.262366,160.741263 179.349182,160.741263 C185.435999,160.741263 191.029349,158.63681 195.435877,155.118527 Z"/>
    <path fill="#7D004F" fill-rule="nonzero" d="M179.158879,180.640823 C159.100042,180.640823 142.82243,164.426549 142.82243,144.404524 C142.82243,124.382499 159.100042,108.168224 179.158879,108.168224 C199.217715,108.168224 215.495327,124.382499 215.495327,144.404524 C215.495327,164.426549 199.217715,180.640823 179.158879,180.640823 Z M179.158879,159.444562 C187.529802,159.444562 194.299065,152.701638 194.299065,144.404524 C194.299065,136.10741 187.529802,129.364486 179.158879,129.364486 C170.787955,129.364486 164.018692,136.10741 164.018692,144.404524 C164.018692,152.701638 170.787955,159.444562 179.158879,159.444562 Z"/>
    <path fill="#ED00B5" d="M124.276192,50.9928848 L124.276192,16.1495327 C124.276192,7.23039208 117.073934,4.13095308e-14 108.189498,3.96774864e-14 C99.305062,3.8045442e-14 92.1028037,7.23039208 92.1028037,16.1495327 L92.1028037,50.9928848 C96.5092349,47.4742144 102.102616,45.3695043 108.189498,45.3695043 C114.27638,45.3695043 119.869761,47.4742144 124.276192,50.9928848 Z M124.276192,91.0224612 L124.276192,177.64486 C124.276192,186.564 117.073934,193.794393 108.189498,193.794393 C99.305062,193.794393 92.1028037,186.564 92.1028037,177.64486 L92.1028037,91.0224612 C96.5092349,94.5411316 102.102616,96.6458417 108.189498,96.6458417 C114.27638,96.6458417 119.869761,94.5411316 124.276192,91.0224612 Z"/>
    <path fill="#7D004F" fill-rule="nonzero" d="M108,98.2950289 C87.941163,98.2950289 71.6635514,82.0807543 71.6635514,62.0587294 C71.6635514,42.0367045 87.941163,25.8224299 108,25.8224299 C128.058837,25.8224299 144.336449,42.0367045 144.336449,62.0587294 C144.336449,82.0807543 128.058837,98.2950289 108,98.2950289 Z M108,77.0987672 C116.370924,77.0987672 123.140187,70.3558436 123.140187,62.0587294 C123.140187,53.7616152 116.370924,47.0186916 108,47.0186916 C99.6290762,47.0186916 92.8598131,53.7616152 92.8598131,62.0587294 C92.8598131,70.3558436 99.6290762,77.0987672 108,77.0987672 Z"/>
    <path fill="#ED00B5" d="M53.1173134,115.088306 L53.1173134,16.1495327 C53.1173134,7.23039208 45.9150551,1.40785514e-13 37.0306193,1.39153469e-13 C28.1461835,1.37521425e-13 20.9439252,7.23039208 20.9439252,16.1495327 L20.9439252,115.088306 C25.3503564,111.569636 30.943737,109.464926 37.0306193,109.464926 C43.1175016,109.464926 48.7108822,111.569636 53.1173134,115.088306 Z M53.1173134,155.117883 L53.1173134,177.64486 C53.1173134,186.564 45.9150551,193.794393 37.0306193,193.794393 C28.1461835,193.794393 20.9439252,186.564 20.9439252,177.64486 L20.9439252,155.117883 C25.3503564,158.636553 30.943737,160.741263 37.0306193,160.741263 C43.1175016,160.741263 48.7108822,158.636553 53.1173134,155.117883 Z"/>
    <path fill="#7D004F" fill-rule="nonzero" d="M36.8411215,162.640823 C16.7822845,162.640823 0.504672897,146.426549 0.504672897,126.404524 C0.504672897,106.382499 16.7822845,90.1682243 36.8411215,90.1682243 C56.8999585,90.1682243 73.1775701,106.382499 73.1775701,126.404524 C73.1775701,146.426549 56.8999585,162.640823 36.8411215,162.640823 Z M36.8411215,141.444562 C45.2120453,141.444562 51.9813084,134.701638 51.9813084,126.404524 C51.9813084,118.10741 45.2120453,111.364486 36.8411215,111.364486 C28.4701977,111.364486 21.7009346,118.10741 21.7009346,126.404524 C21.7009346,134.701638 28.4701977,141.444562 36.8411215,141.444562 Z"/>
  </g>
</svg>
