<svg xmlns="http://www.w3.org/2000/svg" width="256" height="256" viewBox="0 0 256 256">
  <g fill="none" fill-rule="evenodd" transform="translate(44 20)">
    <path stroke="#00C8D7" stroke-width="32" d="M24.0372093 192.888924L24.0372093 205.966228 8.0372093 205.966228 12.9344562 190.734124 18.1775166 192.419812 13.2802697 207.651915 18.0743988 192.387043C18.0895496 192.391801 18.1042642 192.396407 18.1190481 192.401013 18.1787667 192.419619 18.2396164 192.438217 18.3349153 192.466782 18.5398041 192.528194 18.7853632 192.599557 19.0742995 192.680828 19.9210152 192.918989 20.9381587 193.185758 22.1282947 193.474976 22.7430982 193.624381 23.379412 193.773889 24.0372093 193.923178 27.0654835 194.610458 30.5490714 195.293118 34.4853603 195.939873 48.2673416 198.204335 64.6192346 199.566329 83.4769268 199.566329 102.334619 199.566329 118.686512 198.204335 132.468493 195.939873 136.404782 195.293118 139.88837 194.610458 142.916644 193.923178 143.574442 193.773889 144.210755 193.624381 144.825559 193.474976 146.015695 193.185758 147.032838 192.918989 147.879554 192.680828 148.16849 192.599557 148.41405 192.528194 148.618938 192.466782 148.714237 192.438217 148.775087 192.419619 148.834805 192.401013 148.849589 192.396407 148.864304 192.391801 148.879455 192.387043L153.673584 207.651915 148.776337 192.419812 154.019397 190.734124 158.916644 205.966228 142.916644 205.966228 142.916644 192.888924C142.916644 174.900561 129.921554 159.760548 112.705959 156.628309 103.519611 161.126976 93.6726453 163.534112 83.4769268 163.534112 73.2812084 163.534112 63.4342424 161.126976 54.2478949 156.628309 37.0322999 159.760548 24.0372093 174.900561 24.0372093 192.888924zM83.3860465 116.613953C97.6288058 116.613953 112.595349 97.832956 112.595349 79.5992844 112.595349 63.3567801 99.4640482 50.1581395 83.3860465 50.1581395 67.3080448 50.1581395 54.1767442 63.3567801 54.1767442 79.5992844 54.1767442 97.832956 69.1432873 116.613953 83.3860465 116.613953z"/>
    <path stroke="#008EA4" stroke-linecap="round" stroke-width="16" d="M83.3860465,0 L83.3860465,18.0837209"/>
    <path stroke="#008EA4" stroke-linecap="round" stroke-width="16" d="M120.55814,9.96023231 L120.55814,28.0439532" transform="rotate(30 120.558 19.002)"/>
    <path stroke="#008EA4" stroke-linecap="round" stroke-width="16" d="M147.77,37.172093 L147.77,55.255814" transform="rotate(60 147.77 46.214)"/>
    <path stroke="#008EA4" stroke-linecap="round" stroke-width="16" d="M46.2139535,9.96023231 L46.2139535,28.0439532" transform="rotate(-30 46.214 19.002)"/>
    <path stroke="#008EA4" stroke-linecap="round" stroke-width="16" d="M19.0020928,37.172093 L19.0020928,55.255814" transform="rotate(-60 19.002 46.214)"/>
    <path stroke="#008EA4" stroke-linecap="round" stroke-width="16" d="M9.04186047,74.344186 L9.04186047,92.427907" transform="rotate(-90 9.042 83.386)"/>
    <path stroke="#008EA4" stroke-linecap="round" stroke-width="16" d="M157.730233,74.344186 L157.730233,92.427907" transform="rotate(-90 157.73 83.386)"/>
  </g>
</svg>
