<svg xmlns="http://www.w3.org/2000/svg" width="256" height="256" viewBox="0 0 256 256">
  <g fill="none" fill-rule="evenodd">
    <path stroke="#00C8D7" stroke-width="20" d="M156.823839 169.253929C147.625914 174.129101 137.740842 176.736093 127.5 176.736093 117.259158 176.736093 107.374086 174.129101 98.1761614 169.253929 76.0305442 172.134015 59 191.289915 59 214.245364L59 220.623538C59.891379 220.871881 60.9265509 221.142848 62.1074505 221.431735 65.8524492 222.347883 70.302838 223.261639 75.4535411 224.113572 90.1439974 226.543391 107.516016 228 127.5 228 147.483984 228 164.856003 226.543391 179.546459 224.113572 184.697162 223.261639 189.147551 222.347883 192.892549 221.431735 194.073449 221.142848 195.108621 220.871881 196 220.623537L196 214.245364C196 191.289915 178.969456 172.134015 156.823839 169.253929zM127 147C145.853089 147 164 124.307172 164 102.076923 164 81.63319 147.393988 65 127 65 106.606012 65 90 81.63319 90 102.076923 90 124.307172 108.146911 147 127 147z"/>
    <path stroke="#008EA4" stroke-linecap="round" stroke-width="16" d="M128,20 L128,39"/>
    <path stroke="#008EA4" stroke-linecap="round" stroke-width="16" d="M167.080127,29.6387841 L166.919873,49.3612159" transform="rotate(30 167 39.5)"/>
    <path stroke="#008EA4" stroke-linecap="round" stroke-width="16" d="M195.419873,59.1387841 L195.580127,78.8612159" transform="rotate(60 195.5 69)"/>
    <path stroke="#008EA4" stroke-linecap="round" stroke-width="16" d="M89.8528857,29.8887841 L89.1471143,49.1112159" transform="rotate(-30 89.5 39.5)"/>
    <path stroke="#008EA4" stroke-linecap="round" stroke-width="16" d="M61.580127,59.1387841 L61.419873,78.8612159" transform="rotate(-60 61.5 69)"/>
    <path stroke="#008EA4" stroke-linecap="round" stroke-width="16" d="M50.5,96.5 L50.5,115.5" transform="rotate(-90 50.5 106)"/>
    <path stroke="#008EA4" stroke-linecap="round" stroke-width="16" d="M206.5,96.5 L206.5,115.5" transform="rotate(-90 206.5 106)"/>
  </g>
</svg>
