<!-- This Source Code Form is subject to the terms of the Mozilla Public
   - License, v. 2.0. If a copy of the MPL was not distributed with this
   - file, You can obtain one at http://mozilla.org/MPL/2.0/. -->
<svg xmlns="http://www.w3.org/2000/svg" viewBox="0 0 16 12"><g fill="rgba(12, 12, 13, .8)"><path d="M15.9 5.7C13.5 2.3 10.8.6 8 .7 3.4.8.2 5.5.1 5.7c-.1.2-.1.4 0 .6.1.2 3.3 4.9 7.9 5h.1c2.7 0 5.4-1.7 7.8-5 .1-.2.1-.4 0-.6zM8 9.7a3.7 3.7 0 1 1 0-7.4c2.1 0 3.7 1.7 3.7 3.7 0 2.1-1.6 3.7-3.7 3.7z"/><path d="M8 3.4C6.6 3.4 5.4 4.6 5.4 6c0 1.4 1.2 2.6 2.6 2.6 1.4 0 2.6-1.2 2.6-2.6 0-1.4-1.2-2.6-2.6-2.6zm-.4 1.7c-.2 0-.4.1-.4.3 0 .2-.3.4-.5.4h-.1c-.3 0-.5-.3-.4-.6.1-.6.7-1.1 1.4-1.1.3 0 .5.2.5.5s-.2.5-.5.5z"/></g></svg>