<!-- This Source Code Form is subject to the terms of the Mozilla Public
   - License, v. 2.0. If a copy of the MPL was not distributed with this
   - file, You can obtain one at http://mozilla.org/MPL/2.0/. -->
<svg xmlns="http://www.w3.org/2000/svg" viewBox="0 0 14 14">
  <path fill="rgba(12, 12, 13, .8)" d="M14 .8c-.1-.4-.4-.8-.9-.8-3.5 0-5.8 1.5-7.4 3A5.3 5.3 0 0 0 .2 5.7c-.2.2-.2.5-.1.8.1.2.3.4.6.5l3.1.9 2.4 2.4.9 3c.1.3.3.5.5.6 0 .1.1.1.2.1s.3-.1.5-.1c1.2-.8 3.2-2.8 2.6-5.7C14.2 4.9 14 .9 14 .8zM2 12.6c-.1 0-.3-.1-.4-.2-.2-.2-.2-.5 0-.7l2.1-2c.2-.2.5-.2.7 0 .2.2.2.5 0 .7l-2.1 2c-.1.2-.2.2-.3.2zm1.8.2c-.1 0-.3 0-.4-.1-.2-.2-.2-.5 0-.7l1.1-1.1c.2-.2.5-.2.7 0 .2.2.2.5 0 .7l-1.1 1.1c0 .1-.1.1-.3.1zm-2-2.1c-.1 0-.3 0-.4-.1-.2-.2-.2-.5 0-.7l1.1-1.1c.2-.2.5-.2.7 0 .2.2.2.5 0 .7l-1.1 1.1c-.1.1-.2.1-.3.1zm1.8-4.6l-1.2-.4c.5-.5 1.1-.9 2-1-.3.5-.6 1-.8 1.4zm4.7 5.4l-.4-1.2c.5-.2.9-.5 1.4-.8-.1.8-.6 1.5-1 2zm1.3-6C9 5.5 8.4 5 8.4 4.3s.5-1.2 1.2-1.2 1.2.5 1.2 1.2-.5 1.2-1.2 1.2z"/>
</svg>