<svg xmlns="http://www.w3.org/2000/svg" width="256" height="256" viewBox="0 0 256 256">
  <g fill="none" transform="translate(14 41)">
    <path fill="#002275" d="M205.565726,34.7208122 L137.012954,34.7208122 C135.695075,34.7224417 135.45013,84.1437894 133.491945,85.0659898 C118.994948,91.8933004 92.4309941,78.162169 85.6446701,92.637497 C84.7340065,94.5799557 79.859486,90.5777496 79.857868,91.8876899 L79.857868,114.175993 C79.8731724,126.566265 89.9083795,136.606746 102.292142,136.622059 L156.336244,136.622059 L183.798091,170.277262 C186.275918,173.307725 190.390409,174.452354 194.076075,173.13654 C197.761742,171.820727 200.222624,168.328635 200.22335,164.413308 L200.22335,136.622059 L205.565726,136.622059 C217.949489,136.606746 227.984696,126.566265 228,114.175993 L228,57.1668777 C227.984696,44.7766062 217.949489,34.7361246 205.565726,34.7208122 Z M209.482234,114.175993 C209.482234,115.215262 209.069603,116.211964 208.335115,116.946838 C207.600627,117.681712 206.604448,118.094559 205.565726,118.094559 L190.964467,118.094559 C185.850927,118.094559 181.705584,122.242081 181.705584,127.358309 L181.705584,138.419226 L167.900589,121.494356 C166.140348,119.340467 163.505746,118.0922 160.724954,118.094559 L102.292142,118.094559 C101.25342,118.094559 100.257241,117.681712 99.522753,116.946838 C98.7882654,116.211964 98.3756345,115.215262 98.3756345,114.175993 L98.3756345,91.8876899 C98.3756345,91.4446053 131.041623,94.599736 133.491945,91.8876899 C141.046808,83.525876 132.772446,86.7873787 140.040609,80.4365482 C141.929074,78.7864316 136.658185,53.2483116 137.012954,53.2483116 L205.565726,53.2483116 C207.728753,53.2483116 209.482234,55.0027134 209.482234,57.1668777 L209.482234,114.175993 Z"/>
    <g transform="matrix(-1 0 0 1 148.142 0)">
      <path fill="#0060DF" d="M125.707858,2.05696564e-15 L22.4342741,2.05696564e-15 C10.0505115,0.0153124025 0.0153043586,10.055794 0,22.4460655 L0,79.4551812 C0.0153043586,91.8454527 10.0505115,101.885934 22.4342741,101.901247 L76.4783756,101.901247 L103.940223,135.556449 C106.41805,138.586913 110.532541,139.731541 114.218207,138.415728 C117.903874,137.099914 120.364756,133.607823 120.365482,129.692496 L120.365482,101.901247 L125.707858,101.901247 C138.091621,101.885934 148.126828,91.8454527 148.142132,79.4551812 L148.142132,22.4460655 C148.126828,10.055794 138.091621,0.0153124025 125.707858,2.05696564e-15 Z M129.624365,79.4551812 C129.624365,80.4944495 129.211735,81.4911522 128.477247,82.2260259 C127.742759,82.9608996 126.74658,83.3737473 125.707858,83.3737473 L111.106599,83.3737473 C105.993059,83.3737473 101.847716,87.5212693 101.847716,92.637497 L101.847716,103.698414 L88.0427208,86.7735434 C86.2824799,84.6196553 83.6478783,83.3713882 80.8670863,83.3737473 L22.4342741,83.3737473 C21.3955517,83.3737473 20.3993727,82.9608996 19.664885,82.2260259 C18.9303974,81.4911522 18.5177665,80.4944495 18.5177665,79.4551812 L18.5177665,22.4460655 C18.5177665,20.2819012 20.2712467,18.5274994 22.4342741,18.5274994 L125.707858,18.5274994 C127.870885,18.5274994 129.624365,20.2819012 129.624365,22.4460655 L129.624365,79.4551812 Z"/>
      <path fill="#002275" d="M105.651753,36.7484358 L41.3419903,36.7484358 C38.8050402,36.7484358 36.7484358,38.8050402 36.7484358,41.3419903 C36.7484358,43.8789404 38.8050402,45.9355448 41.3419903,45.9355448 L105.651753,45.9355448 C108.188703,45.9355448 110.245308,43.8789404 110.245308,41.3419903 C110.245308,38.8050402 108.188703,36.7484358 105.651753,36.7484358 Z M105.651753,55.1226538 L41.3419903,55.1226538 C38.8050402,55.1226538 36.7484358,57.1792582 36.7484358,59.7162082 C36.7484358,62.2531583 38.8050402,64.3097627 41.3419903,64.3097627 L105.651753,64.3097627 C108.188703,64.3097627 110.245308,62.2531583 110.245308,59.7162082 C110.245308,57.1792582 108.188703,55.1226538 105.651753,55.1226538 Z"/>
    </g>
  </g>
</svg>
