<svg xmlns="http://www.w3.org/2000/svg" width="256" height="256" viewBox="0 0 256 256">
  <g fill="none" transform="translate(13 32)">
    <path fill="#002275" d="M205.16425,39 L151.414149,39 C149.955198,39.0017943 159.102832,59.2124329 156.935033,60.2278453 C140.886205,67.7452311 157.412163,86.8322226 149.899397,102.770655 C148.891251,104.909449 77.0722408,100.502717 77.0704496,101.94506 L66,126.48617 C66.0169426,140.128797 77.126368,151.184127 90.83575,151.200987 L150.665,151.200987 L181.0665,188.257913 C183.809565,191.594683 188.364492,192.855005 192.44469,191.406195 C196.524889,189.957385 199.249196,186.112328 199.25,181.801256 L199.25,151.200987 L205.16425,151.200987 C218.873632,151.184127 229.983057,140.128797 230,126.48617 L230,63.7148174 C229.983057,50.0721905 218.873632,39.0168601 205.16425,39 Z M210,127.243637 C210,128.390639 209.543199,129.490663 208.730088,130.301716 C207.916977,131.112769 206.814162,131.568414 205.66425,131.568414 L189.5,131.568414 C183.839081,131.568414 179.25,136.145881 179.25,141.792473 L179.25,154 L163.96725,135.320644 C162.018584,132.943477 159.101962,131.565811 156.0235,131.568414 L91.33575,131.568414 C90.1858376,131.568414 89.0830226,131.112769 88.2699118,130.301716 C87.4568009,129.490663 87,128.390639 87,127.243637 L87,102.644858 C87,102.155842 123.162718,105.638043 125.875334,102.644858 C134.238907,93.4162321 147.219716,97.0158325 155.265899,90.0066549 C157.356514,88.185482 151.521404,60 151.914149,60 L205.66425,60 C208.058819,60 210,61.9362686 210,64.324777 L210,127.243637 Z"/>
    <g transform="matrix(-1 0 0 1 164 0)">
      <path fill="#0060DF" d="M139.16425,2.2648749e-15 L24.83575,2.2648749e-15 C11.126368,0.0168601144 0.016942613,11.0721905 0,24.7148174 L0,87.4861697 C0.016942613,101.128797 11.126368,112.184127 24.83575,112.200987 L84.665,112.200987 L115.0665,149.257913 C117.809565,152.594683 122.364492,153.855005 126.44469,152.406195 C130.524889,150.957385 133.249196,147.112328 133.25,142.801256 L133.25,112.200987 L139.16425,112.200987 C152.873632,112.184127 163.983057,101.128797 164,87.4861697 L164,24.7148174 C163.983057,11.0721905 152.873632,0.0168601144 139.16425,2.2648749e-15 Z M144,88.2436372 C144,89.3906393 143.543199,90.4906633 142.730088,91.3017163 C141.916977,92.1127693 140.814162,92.5684142 139.66425,92.5684142 L123.5,92.5684142 C117.839081,92.5684142 113.25,97.1458814 113.25,102.792473 L113.25,115 L97.96725,96.3206439 C96.0185841,93.9434769 93.1019617,92.5658105 90.0235,92.5684142 L25.33575,92.5684142 C24.1858376,92.5684142 23.0830226,92.1127693 22.2699118,91.3017163 C21.4568009,90.4906633 21,89.3906393 21,88.2436372 L21,25.324777 C21,22.9362686 22.9411814,21 25.33575,21 L139.66425,21 C142.058819,21 144,22.9362686 144,25.324777 L144,88.2436372 Z"/>
      <path fill="#002275" d="M116.9375,41 L46.0625,41 C43.2665585,41 41,43.2385763 41,46 C41,48.7614237 43.2665585,51 46.0625,51 L116.9375,51 C119.733442,51 122,48.7614237 122,46 C122,43.2385763 119.733442,41 116.9375,41 Z M116.9375,61 L46.0625,61 C43.2665585,61 41,63.2385763 41,66 C41,68.7614237 43.2665585,71 46.0625,71 L116.9375,71 C119.733442,71 122,68.7614237 122,66 C122,63.2385763 119.733442,61 116.9375,61 Z"/>
    </g>
  </g>
</svg>
