<svg xmlns="http://www.w3.org/2000/svg" width="256" height="256" viewBox="0 0 256 256">
  <g fill="none" fill-rule="evenodd">
    <path stroke="#8000D7" stroke-linecap="round" stroke-linejoin="round" stroke-width="20" d="M176.900333,102.518 C190.31,117.296 230,125 230,125 C230,125 190.31,132.092 176.900333,146.87 C163.490667,161.648 156.5,206 156.5,206 C156.5,206 150.064667,161.648 136.655,146.87 C123.245333,132.092 83,125 83,125 C83,125 123.245333,117.296 136.655,102.518 C150.064667,87.74 156.5,44 156.5,44 C156.5,44 163.490667,87.74 176.900333,102.518 Z"/>
    <path fill="#440071" d="M64.4915723 233C60.7254313 232.972002 57.5307111 230.23072 56.9357487 226.5166 56.1674455 220.067789 54.0671339 213.848461 50.7677294 208.2522 45.1641828 204.957085 38.9367587 202.859504 32.4795522 202.0922 28.7653155 201.492514 26.0269075 198.303032 26.000197 194.545557 25.9734865 190.788082 28.666275 187.560092 32.3716119 186.9078 38.8700444 186.029509 45.122815 183.844932 50.7523093 180.486 54.0201387 174.958742 56.1193134 168.821398 56.9203286 162.4526 57.5297478 158.745001 60.729502 156.018007 64.4915723 156 68.2299879 156.002784 71.4277525 158.683597 72.078236 162.3602 72.9617916 168.786425 75.1498667 174.96481 78.5083961 180.5168 84.0729128 183.84505 90.2499334 186.023573 96.6732128 186.9232 100.357723 187.594259 103.026418 190.812671 102.999803 194.552985 102.973187 198.293299 100.25896 201.473507 96.5652725 202.0922 90.1784717 202.871029 84.023876 204.968842 78.492976 208.2522 75.1424137 213.878982 72.9607983 220.122022 72.078236 226.609 71.4410451 230.297845 68.2397733 232.994594 64.4915723 233zM67.4916475 85C63.7640242 84.9735109 60.5995736 82.2668889 60.0032333 78.595 59.439343 74.2127356 58.0661894 69.9727617 55.9533767 66.09 52.0623458 63.9816774 47.813342 62.6114419 43.4217448 62.04875 39.7406447 61.4549051 37.0266674 58.2964893 37.0001952 54.5756133 36.973723 50.8547372 39.6424878 47.6581885 43.3147674 47.01225 47.7500309 46.382895 52.0330207 44.9513752 55.9533767 42.788 58.0483356 38.9448033 59.4062444 34.7452664 59.9573859 30.405 60.5565827 26.7161076 63.7466548 24.0041747 67.4916475 24 71.1918787 24.0014407 74.3593861 26.6482693 75.0106266 30.283 75.6431072 34.6671867 77.0835592 38.8966317 79.2591554 42.7575 83.1237105 44.9082451 87.3502257 46.3347636 91.7296574 46.9665 95.3812961 47.6310228 98.0261825 50.8180863 97.9998044 54.521969 97.9734264 58.2258518 95.2834146 61.3750829 91.6226801 61.98775 87.2743557 62.5585542 83.0710087 63.9342807 79.2285905 66.04425 77.060608 69.9562745 75.6260395 74.2301622 74.9953441 78.656 74.3714398 82.3093136 71.2054956 84.9859609 67.4916475 85z"/>
  </g>
</svg>
