<svg xmlns="http://www.w3.org/2000/svg" width="256" height="256" viewBox="0 0 256 256">
  <g fill="none" fill-rule="evenodd" transform="translate(14 18)">
    <path fill="#8000D7" fill-rule="nonzero" d="M132.006008,37.0392991 C132.006008,37.0392991 138.2592,72.5422378 150.254226,84.5372636 C162.249252,96.5322894 197.75219,102.785482 197.75219,102.785482 C197.75219,102.785482 162.249252,108.541925 150.254226,120.536951 C138.2592,132.531977 132.006008,168.531665 132.006008,168.531665 C132.006008,168.531665 126.249564,132.531977 114.254538,120.536951 C102.259512,108.541925 66.2598248,102.785482 66.2598248,102.785482 C66.2598248,102.785482 102.259512,96.5322894 114.254538,84.5372636 C126.249564,72.5422378 132.006008,37.0392991 132.006008,37.0392991 L132.006008,37.0392991 Z M132.006008,7.81877347 L131.801464,7.81877347 C117.546824,7.9202851 105.445787,18.2926019 103.165349,32.364015 C101.550725,43.2773036 98.3050883,53.8859543 93.5371855,63.8345212 C83.3265829,68.8155094 72.4365355,72.261727 61.2192841,74.0617051 C47.156637,76.5221727 36.9306643,88.7838956 37.0356075,103.059782 C37.1405506,117.335668 47.5456822,129.44573 61.6429817,131.699192 C72.6909917,133.310207 83.4391913,136.54993 93.5371855,141.312745 C98.3013425,151.420465 101.541061,162.178496 103.150738,173.236169 C105.447643,187.317644 117.577895,197.681474 131.845295,197.75219 L132.006008,197.75219 C146.21409,197.756678 158.36615,187.540562 160.802836,173.542985 C162.605125,162.3403 166.051335,151.465045 171.03002,141.268914 C180.980995,136.507188 191.588697,133.261842 202.500526,131.640751 C216.576543,129.361321 226.951712,117.255071 227.049327,102.99602 C227.146943,88.7369684 216.938493,76.4898063 202.895003,74.0178743 C191.822542,72.2178538 181.081883,68.7705994 171.03002,63.7906904 C166.057621,53.7357829 162.610735,42.9962724 160.802836,31.9257071 C158.322099,17.9687867 146.181673,7.80556898 132.006008,7.81877347 Z"/>
    <path fill="#440071" d="M37.0392991 219.667584C33.4709374 219.641022 30.4439883 217.040317 29.8802703 213.516664 29.1523147 207.398558 27.1623011 201.498168 24.0361652 196.188892 18.7268894 193.062756 12.8264991 191.072743 6.70839349 190.344787 3.18921028 189.775854.594609999 186.749934.569302192 183.185148.543994385 179.620363 3.09537092 176.557909 6.60612165 175.939068 12.7632883 175.105817 18.687694 173.033269 24.0215549 169.846588 27.1177739 164.602777 29.1067103 158.780166 29.8656601 152.73797 30.4430755 149.220503 33.4747944 146.633354 37.0392991 146.61627 40.5813915 146.618912 43.6112252 149.162248 44.2275484 152.650309 45.064704 158.746986 47.1378722 164.608534 50.320028 169.875809 55.5923236 173.033381 61.4449574 175.100185 67.5309176 175.953678 71.0219354 176.590324 73.5504838 179.64369 73.525266 183.192195 73.5000482 186.7407 70.9283593 189.757821 67.4286458 190.344787 61.3772485 191.083676 55.545862 193.07391 50.3054178 196.188892 47.1308106 201.527124 45.0637629 207.45001 44.2275484 213.604325 43.6238197 217.104 40.590663 219.662455 37.0392991 219.667584zM29.7341677 58.9546934C26.1705077 58.9293155 23.1452486 56.3362363 22.5751389 52.818383 22.036052 48.6199545 20.7232978 44.5578474 18.7034193 40.8379675 14.9835393 38.8180889 10.9214322 37.5053348 6.72300375 36.9662478 3.20382055 36.3973147.609220262 33.3713944.583912455 29.806609.558604648 26.2418236 3.10998118 23.17937 6.62073191 22.5605287 10.8609059 21.9575751 14.9555041 20.5861075 18.7034193 18.5134859 20.7062293 14.8315112 22.0044091 10.8081447 22.5313081 6.64995244 23.1041487 3.11580901 26.1539023.517641625 29.7341677.513642053 33.2716406.515022304 36.299822 3.05081651 36.922417 6.53307034 37.5270773 10.7333405 38.9041696 14.7853604 40.9840701 18.4842653 44.6786389 20.5447867 48.7192466 21.9114628 52.9060446 22.5166979 56.3970623 23.1533439 58.9256107 26.2067102 58.9003929 29.7552151 58.8751751 33.3037201 56.3034862 36.320841 52.8037727 36.9078068 48.6467138 37.4546658 44.6282552 38.7726805 40.9548496 40.7941367 38.8822279 44.5420519 37.5107603 48.63665 36.9078068 52.876824 36.3113455 56.3768812 33.2846585 58.9412432 29.7341677 58.9546934z"/>
  </g>
</svg>
