<svg xmlns="http://www.w3.org/2000/svg" style="background:#f9f9fa" viewBox="0 0 378 122"><g fill="none" fill-rule="evenodd"><path fill="#0C0C0D" d="M23.38 67l3.9-10.57H25.9l-3.15 8.97h-.04l-3.14-8.97h-1.39L22.08 67h1.3zm7.96-6.58c-1.17 0-2.02.85-2.1 2.12h4.13c-.03-1.27-.84-2.12-2.03-2.12zm2 4.4h1.26c-.22 1.32-1.54 2.25-3.17 2.25-2.16 0-3.51-1.48-3.51-3.85s1.36-3.91 3.45-3.91c2.04 0 3.32 1.44 3.32 3.74v.49h-5.46v.07c0 1.43.88 2.36 2.22 2.36.94 0 1.68-.45 1.9-1.15zM35.97 67h1.28v-4.69c0-1.07.64-1.78 1.63-1.78.3 0 .58.03.68.07v-1.25c-.1-.02-.29-.04-.51-.04-.9 0-1.62.51-1.85 1.32h-.03v-1.25h-1.2V67zm4.5-5.49c0 1.03.65 1.7 2 2.05l1.33.34c.86.23 1.18.5 1.18 1.03 0 .68-.65 1.1-1.67 1.1-1.03 0-1.65-.4-1.78-1.18h-1.27c.12 1.33 1.3 2.22 2.96 2.22 1.78 0 3.04-.92 3.04-2.23 0-1.1-.56-1.65-2.1-2.04l-1.18-.28c-.86-.22-1.26-.56-1.26-1.07 0-.65.62-1.1 1.54-1.1.93 0 1.55.45 1.62 1.16h1.22c-.05-1.27-1.23-2.2-2.8-2.2-1.66 0-2.84.92-2.84 2.2zM47.63 67h1.28v-7.62h-1.28V67zm.64-8.9a.8.8 0 0 0 .8-.79.8.8 0 0 0-1.6 0c0 .43.37.8.8.8zm5.51 8.97c-2.15 0-3.53-1.51-3.53-3.88s1.38-3.88 3.53-3.88 3.53 1.5 3.53 3.88c0 2.37-1.38 3.88-3.53 3.88zm0-1.12c1.4 0 2.23-1.02 2.23-2.76 0-1.73-.83-2.76-2.23-2.76s-2.23 1.03-2.23 2.76c0 1.74.83 2.76 2.23 2.76zM58.6 67h1.28v-4.42c0-1.29.75-2.14 1.98-2.14 1.19 0 1.76.67 1.76 1.9V67h1.27v-4.89c0-1.72-.96-2.8-2.63-2.8-1.18 0-1.95.45-2.42 1.32h-.03v-1.25h-1.2V67zm8.99.07c.47 0 .83-.36.83-.83a.82.82 0 0 0-.83-.84.82.82 0 0 0-.84.84c0 .47.37.83.84.83zm0-5.39c.47 0 .83-.36.83-.83a.82.82 0 0 0-.83-.84.82.82 0 0 0-.84.84c0 .47.37.83.84.83zm9.47 5.5c2.2 0 3.76-1.5 3.76-3.62a3.4 3.4 0 0 0-3.5-3.53c-1 0-1.88.38-2.36 1.02h-.03l.33-3.45h4.96v-1.17h-6.05l-.58 5.92h1.24a2.55 2.55 0 0 1 2.26-1.19c1.41 0 2.41 1.02 2.41 2.44s-1 2.42-2.43 2.42c-1.26 0-2.22-.78-2.34-1.9h-1.3c.11 1.8 1.6 3.06 3.63 3.06zm7.3-5.06h1.32c1.5 0 2.44.77 2.44 2.02 0 1.1-1 1.9-2.4 1.9-1.42 0-2.32-.75-2.44-1.84h-1.26c.1 1.75 1.5 2.98 3.72 2.98 2.07 0 3.73-1.27 3.73-3.09 0-1.48-1.03-2.47-2.63-2.57v-.03c1.32-.23 2.17-1.18 2.17-2.51 0-1.59-1.43-2.72-3.32-2.72-1.98 0-3.31 1.15-3.46 2.94h1.27c.11-1.1.92-1.8 2.13-1.8 1.34 0 2.06.7 2.06 1.76 0 1.07-.85 1.85-2.07 1.85h-1.27v1.11zm7.76 4.95c.48 0 .84-.36.84-.83a.82.82 0 0 0-.84-.84.82.82 0 0 0-.83.84c0 .47.37.83.83.83zm6.46.1c-2.46 0-3.9-2.12-3.9-5.46 0-3.3 1.45-5.45 3.9-5.45 2.46 0 3.89 2.13 3.89 5.44 0 3.34-1.43 5.48-3.89 5.48zm0-1.14c1.65 0 2.56-1.68 2.56-4.32 0-2.6-.92-4.3-2.56-4.3-1.63 0-2.57 1.72-2.57 4.3 0 2.63.92 4.32 2.57 4.32zm12 3c-.67-1.17-1.8-3.08-1.8-6.43 0-3.36 1.2-5.44 1.82-6.16h-1.07c-.93 1.2-2.05 2.78-2.05 6.17s1.16 5.4 1.98 6.42h1.12zm4.96-1.85a3.68 3.68 0 0 1-3.5-2.38 7.24 7.24 0 0 1-.51-2.9c0-3.56 1.51-5.65 4.1-5.65 1.8 0 3.17 1.07 3.5 2.74h-1.33a2.2 2.2 0 0 0-2.19-1.58c-1.76 0-2.77 1.57-2.81 4.38h.02a3.2 3.2 0 0 1 2.95-1.71 3.4 3.4 0 0 1 3.51 3.5c0 2.08-1.57 3.6-3.74 3.6zm-.02-1.17a2.4 2.4 0 0 0 2.42-2.4c0-1.38-1-2.37-2.4-2.37s-2.43 1-2.43 2.34a2.4 2.4 0 0 0 2.41 2.43zm10.2.99v-2.2h-5.31v-1.2c.9-1.66 2.14-3.59 4.64-7.17h1.94v7.22h1.5v1.15h-1.5V67h-1.27zm-4-3.38v.03h4v-6.12h-.02c-2 2.86-3.15 4.62-3.99 6.09zm12.81-.2v-1.18h-4.8v1.19h4.8zm5.43 3.65a2.69 2.69 0 0 1-2.48-1.36h-.03V67h-1.21V56.43h1.27v4.2h.03a2.7 2.7 0 0 1 2.44-1.32c1.92 0 3.22 1.55 3.22 3.88 0 2.34-1.3 3.88-3.24 3.88zm-.25-6.63c-1.31 0-2.2 1.12-2.2 2.75 0 1.64.89 2.76 2.2 2.76 1.32 0 2.18-1.08 2.18-2.76 0-1.67-.86-2.75-2.18-2.75zm4.84 6.56h1.27v-7.62h-1.27V67zm.64-8.9a.8.8 0 0 0 .8-.79.8.8 0 0 0-1.6 0c0 .43.37.8.8.8zm2.77-.56v1.84h-1.14v1.05h1.14v4.59c0 1.46.54 2.03 1.94 2.03.3 0 .65-.02.8-.06v-1.07c-.09.02-.38.04-.52.04-.66 0-.95-.31-.95-1.01v-4.52h1.48v-1.05h-1.48v-1.84h-1.27zm3.55 11.49h1.12c.82-1.03 1.98-3.03 1.98-6.42s-1.1-4.98-2.05-6.17h-1.07c.63.72 1.82 2.8 1.82 6.16 0 3.35-1.13 5.26-1.8 6.43z"/><path fill="#0060DF" d="M266.9 58.61h.07L269.4 67h1.25l2.88-10.57h-1.38l-2.12 8.63h-.05l-2.38-8.63h-1.34l-2.38 8.63h-.06l-2.11-8.63h-1.38L263.21 67h1.24l2.44-8.39zm7.85 8.39h1.28v-4.38c0-1.32.78-2.18 2.05-2.18 1.19 0 1.8.72 1.8 1.93V67h1.27v-4.86c0-1.7-1-2.83-2.68-2.83-1.16 0-1.95.45-2.42 1.32h-.02v-4.2h-1.28V67zm10.53-.98c1.23 0 2.13-.83 2.13-1.91v-.61l-1.97.12c-1.13.07-1.72.49-1.72 1.21 0 .7.61 1.19 1.56 1.19zM285 67.1c-1.55 0-2.57-.93-2.57-2.28 0-1.3 1-2.09 2.86-2.2l2.12-.12v-.63c0-.94-.62-1.45-1.72-1.45-.88 0-1.53.45-1.67 1.16h-1.22c.04-1.3 1.29-2.28 2.9-2.28 1.82 0 2.98.96 2.98 2.46V67h-1.2v-1.31h-.04A2.75 2.75 0 0 1 285 67.1zm5.71-9.57v1.84h-1.13v1.05h1.13v4.59c0 1.46.54 2.03 1.94 2.03.3 0 .65-.02.8-.06v-1.07c-.08.02-.37.04-.52.04-.65 0-.95-.31-.95-1.01v-4.52h1.48v-1.05h-1.48v-1.84h-1.27zm5.55 2.62l1.08-3.73h-1.28l-.93 3.73h1.13zm2.37 1.35c0 1.03.66 1.7 2 2.05l1.34.34c.85.23 1.17.5 1.17 1.03 0 .68-.64 1.1-1.67 1.1-1.03 0-1.65-.4-1.77-1.18h-1.28c.12 1.33 1.3 2.22 2.97 2.22 1.77 0 3.03-.92 3.03-2.23 0-1.1-.56-1.65-2.1-2.04l-1.17-.28c-.87-.22-1.27-.56-1.27-1.07 0-.65.62-1.1 1.55-1.1s1.54.45 1.61 1.16h1.22c-.04-1.27-1.22-2.2-2.79-2.2-1.67 0-2.84.92-2.84 2.2zM308.82 67h1.27v-4.42c0-1.29.75-2.14 1.98-2.14 1.18 0 1.76.67 1.76 1.9V67h1.27v-4.89c0-1.72-.97-2.8-2.64-2.8-1.18 0-1.94.45-2.41 1.32h-.03v-1.25h-1.2V67zm10.95-6.58c-1.18 0-2.03.85-2.1 2.12h4.13c-.03-1.27-.84-2.12-2.03-2.12zm2 4.4h1.25c-.2 1.32-1.53 2.25-3.17 2.25-2.15 0-3.5-1.48-3.5-3.85s1.36-3.91 3.44-3.91c2.05 0 3.33 1.44 3.33 3.74v.49h-5.46v.07c0 1.43.88 2.36 2.22 2.36.94 0 1.68-.45 1.9-1.15zm12.32-5.44h-1.26l-1.52 6.2h-.03l-1.73-6.2h-1.23l-1.72 6.2h-.03l-1.52-6.2h-1.27L325.9 67h1.3l1.71-5.9h.03l1.72 5.9h1.3l2.12-7.62z"/><g transform="translate(154 56)"><rect width="105" height="12" fill="#C0DFFF" opacity=".67"/><g stroke="#3DC1FF" stroke-linecap="square"><path d="M.48.14v11.72M105.52.14v11.72"/></g></g><path fill="#0A84FF" d="M201.2 76.38v.97l-3.84 2.39-.55-.8 3.42-2.07-3.42-2.05.52-.83 3.87 2.39zm5.67-.79c-.19.24-.47.47-.86.69.46.2.81.47 1.06.78.24.31.36.67.36 1.08 0 .37-.1.71-.3 1.02-.2.3-.47.54-.84.71-.38.17-.81.26-1.31.26a3 3 0 0 1-1.3-.26c-.37-.17-.64-.4-.83-.7-.19-.3-.28-.63-.28-1 0-.79.45-1.38 1.34-1.78-.37-.2-.64-.41-.81-.66a1.62 1.62 0 0 1-.25-.93c0-.4.1-.73.3-1 .2-.28.47-.49.8-.63a2.73 2.73 0 0 1 2.12 0c.33.13.59.33.78.6.2.27.3.59.3.97 0 .33-.1.61-.28.85zm-2.79-.24c.1.14.24.25.42.34.18.1.43.2.75.31.3-.18.5-.36.63-.54.13-.18.19-.4.19-.66a1 1 0 0 0-.28-.74 1.08 1.08 0 0 0-.79-.28c-.34 0-.6.09-.79.27a1 1 0 0 0-.28.76c0 .22.05.4.15.54zm2.01 2.15a1.4 1.4 0 0 0-.52-.42c-.21-.1-.53-.23-.94-.38-.6.31-.91.79-.91 1.43 0 .36.1.64.32.84.22.2.54.31.95.31.41 0 .73-.1.95-.31.23-.22.34-.49.34-.82 0-.27-.06-.48-.19-.66zm7.3-.15c0 .83-.18 1.5-.53 2.02-.35.5-.86.76-1.51.76-.55 0-1-.2-1.34-.58v2.48l-1.12.13v-7.44h.97l.07.68c.2-.27.43-.47.7-.61.26-.14.54-.21.84-.21 1.28 0 1.92.92 1.92 2.77zm-2.87-1.7c-.2.14-.36.32-.51.55v2.47c.26.4.6.59 1.04.59.39 0 .68-.15.87-.46.2-.3.29-.79.29-1.44a3.1 3.1 0 0 0-.26-1.47.85.85 0 0 0-.79-.45c-.23 0-.45.07-.64.21zm3.91 4.35l1.9-2.78-1.69-2.5h1.29l1.08 1.86 1.08-1.86h1.23l-1.65 2.45 1.9 2.83h-1.31l-1.3-2.16-1.29 2.16h-1.24z"/></g></svg>