<svg xmlns="http://www.w3.org/2000/svg" style="background:#f9f9fa" viewBox="0 0 360 122"><g fill="none" fill-rule="evenodd"><path fill="#0C0C0D" d="M27.18 56.5L23.3 67h-1.36l-3.8-10.5h1.36l2.9 8.32c.1.27.17.58.22.93h.03c.04-.29.12-.6.24-.94l2.97-8.31h1.32zm7.38 7.05h-5.3c.02.84.25 1.48.68 1.93.43.46 1.02.69 1.77.69.85 0 1.62-.28 2.33-.84v1.13c-.66.48-1.53.72-2.61.72-1.06 0-1.9-.34-2.5-1.03-.6-.68-.91-1.64-.91-2.87a4.1 4.1 0 0 1 1-2.85 3.18 3.18 0 0 1 2.46-1.1c.98 0 1.74.31 2.27.95.54.63.81 1.51.81 2.64v.63zm-1.23-1.02c0-.7-.17-1.23-.5-1.62a1.7 1.7 0 0 0-1.38-.58c-.56 0-1.04.2-1.44.61-.4.4-.64.94-.73 1.6h4.05zm6.96-1.81a1.47 1.47 0 0 0-.91-.25c-.51 0-.94.25-1.29.73a3.35 3.35 0 0 0-.51 1.98V67h-1.2v-7.5h1.2v1.55h.03c.17-.53.43-.94.78-1.24.35-.3.75-.44 1.18-.44.31 0 .55.03.72.1v1.25zm.85 6v-1.28c.65.48 1.37.73 2.16.73 1.05 0 1.58-.36 1.58-1.06 0-.2-.05-.37-.14-.5a1.35 1.35 0 0 0-.36-.38c-.16-.1-.34-.2-.54-.29l-.67-.27a8.63 8.63 0 0 1-.88-.4 2.64 2.64 0 0 1-.63-.45c-.17-.17-.3-.36-.38-.57a2.03 2.03 0 0 1-.13-.76c0-.35.08-.66.24-.93.16-.27.38-.5.65-.68a3 3 0 0 1 .92-.42 4.3 4.3 0 0 1 2.8.2v1.22a3.4 3.4 0 0 0-2.5-.47c-.19.05-.34.13-.47.22a1 1 0 0 0-.3.33.88.88 0 0 0-.1.43c0 .2.03.36.1.49s.17.25.31.35c.14.1.3.2.5.28l.66.27c.34.13.63.26.9.4.26.13.49.28.67.45.19.17.33.36.43.58.1.22.15.48.15.78 0 .37-.08.7-.25.97-.16.27-.38.5-.65.68a3 3 0 0 1-.95.4c-.35.1-.73.14-1.12.14-.77 0-1.44-.15-2-.45zm7.43-9.12a.76.76 0 0 1-.78-.78c0-.23.08-.41.23-.56a.75.75 0 0 1 .55-.22.78.78 0 0 1 .8.78c0 .21-.08.4-.24.55a.77.77 0 0 1-.56.23zm.59 9.4h-1.2v-7.5h1.2V67zm5.56.18c-1.1 0-1.99-.35-2.65-1.06a3.9 3.9 0 0 1-1-2.78c0-1.26.35-2.25 1.04-2.95a3.71 3.71 0 0 1 2.79-1.07c1.12 0 1.99.35 2.62 1.04.63.69.94 1.64.94 2.86 0 1.2-.34 2.16-1.02 2.88a3.55 3.55 0 0 1-2.72 1.08zm.1-6.85c-.78 0-1.39.27-1.84.8a3.23 3.23 0 0 0-.67 2.16c0 .9.22 1.6.68 2.1.45.52 1.06.78 1.82.78a2.2 2.2 0 0 0 1.8-.76c.41-.5.62-1.22.62-2.15 0-.93-.21-1.66-.63-2.16a2.19 2.19 0 0 0-1.79-.77zM66.6 67h-1.2v-4.28c0-1.59-.58-2.39-1.74-2.39-.6 0-1.1.23-1.5.68-.38.45-.58 1.02-.58 1.71V67h-1.2v-7.5h1.2v1.25h.03a2.7 2.7 0 0 1 2.46-1.43c.82 0 1.45.27 1.88.8.44.53.65 1.3.65 2.3V67zm2.68-6.04a.78.78 0 0 1-.57-.24.8.8 0 0 1-.24-.58c0-.22.08-.41.24-.57a.79.79 0 0 1 .57-.23c.23 0 .43.08.59.23.16.16.24.35.24.57 0 .23-.08.42-.24.58a.8.8 0 0 1-.59.24zm0 6.2a.78.78 0 0 1-.57-.24.8.8 0 0 1-.24-.58.8.8 0 0 1 .24-.58.77.77 0 0 1 .57-.25.8.8 0 0 1 .59.25.8.8 0 0 1 .24.58c0 .23-.08.42-.24.58a.8.8 0 0 1-.59.24zm6.93-.42v-1.27a4 4 0 0 0 2.2.7c.74 0 1.33-.21 1.79-.63.45-.42.68-.98.68-1.67 0-.7-.23-1.23-.7-1.62a3.04 3.04 0 0 0-1.99-.57c-.3 0-.84.02-1.65.08V56.5h5.09v1.08h-3.95v3.08l.9-.03c1.11 0 1.98.28 2.6.84.61.57.92 1.34.92 2.32a3.2 3.2 0 0 1-1 2.46c-.65.62-1.56.93-2.71.93-.97 0-1.7-.15-2.18-.44zm7.85-.13v-1.3c.71.57 1.53.86 2.43.86.73 0 1.32-.19 1.75-.55.44-.37.66-.86.66-1.48 0-1.38-.98-2.06-2.92-2.06h-.88v-1.02h.83c1.74 0 2.6-.64 2.6-1.93 0-1.2-.66-1.8-1.98-1.8-.74 0-1.44.26-2.09.76v-1.17c.67-.4 1.47-.6 2.39-.6.88 0 1.59.24 2.12.7.53.47.8 1.07.8 1.8 0 1.39-.71 2.28-2.12 2.67v.03a2.8 2.8 0 0 1 1.8.8c.46.45.68 1.02.68 1.7 0 .95-.34 1.7-1.02 2.29-.67.58-1.56.87-2.67.87-1 0-1.8-.2-2.38-.57zm8.76.55a.78.78 0 0 1-.58-.24.8.8 0 0 1-.24-.58.8.8 0 0 1 .24-.58.77.77 0 0 1 .58-.25.8.8 0 0 1 .58.25.8.8 0 0 1 .24.58c0 .23-.08.42-.24.58a.8.8 0 0 1-.58.24zm5.56.02a2.76 2.76 0 0 1-2.44-1.34c-.58-.9-.87-2.19-.87-3.88 0-1.85.3-3.26.9-4.21a2.94 2.94 0 0 1 2.64-1.43c2.2 0 3.3 1.8 3.3 5.38 0 1.78-.31 3.14-.93 4.07a2.95 2.95 0 0 1-2.6 1.4zm.16-9.84c-1.5 0-2.24 1.52-2.24 4.56 0 2.84.73 4.27 2.2 4.27 1.45 0 2.18-1.45 2.18-4.34 0-3-.71-4.5-2.14-4.5zM111 69.39h-1.07a9.36 9.36 0 0 1-2.27-6.4c0-2.54.75-4.7 2.27-6.5H111a9.87 9.87 0 0 0-2.3 6.49 9.7 9.7 0 0 0 2.29 6.4zm7-12.77v1.14a3.7 3.7 0 0 0-1.72-.42c-.93 0-1.67.41-2.23 1.24a5.88 5.88 0 0 0-.84 3.34h.03c.49-1 1.29-1.49 2.4-1.49.92 0 1.65.3 2.19.88.54.6.81 1.38.81 2.36 0 1.04-.3 1.88-.93 2.53-.62.65-1.4.98-2.36.98a2.89 2.89 0 0 1-2.49-1.26 6 6 0 0 1-.9-3.54c0-1.84.4-3.31 1.18-4.41a3.65 3.65 0 0 1 3.11-1.65c.74 0 1.32.1 1.75.3zm-2.62 4.83c-.62 0-1.13.2-1.51.63-.39.42-.58.91-.58 1.48 0 .72.19 1.34.57 1.84.39.51.9.77 1.53.77.6 0 1.1-.23 1.46-.67.38-.44.56-1 .56-1.68 0-.74-.18-1.32-.53-1.74a1.86 1.86 0 0 0-1.5-.63zm11.44 2.76h-1.35V67h-1.19v-2.8h-4.93v-.77l4.67-6.93h1.45v6.74h1.35v.97zm-2.54-.97v-4.55l.03-1.08h-.03c-.07.18-.2.44-.4.8l-3.23 4.83h3.63zm8.1.05h-4v-.94h4v.94zm3.4 2.63h-.04V67h-1.2V55.9h1.2v4.92h.03c.6-1 1.46-1.5 2.6-1.5.96 0 1.71.34 2.26 1.01.54.67.81 1.57.81 2.7 0 1.26-.3 2.26-.91 3.01a3.05 3.05 0 0 1-2.5 1.14c-1 0-1.75-.42-2.26-1.26zm-.04-3.03v1.05c0 .62.2 1.14.6 1.58a2 2 0 0 0 1.54.65c.73 0 1.3-.28 1.71-.84.42-.56.62-1.33.62-2.32 0-.84-.2-1.5-.58-1.96-.38-.48-.9-.72-1.56-.72-.7 0-1.26.25-1.69.73-.42.49-.64 1.1-.64 1.83zm8.24-5.3a.76.76 0 0 1-.78-.77c0-.23.08-.41.23-.56a.75.75 0 0 1 .55-.22.78.78 0 0 1 .79.78c0 .21-.08.4-.23.55a.77.77 0 0 1-.56.23zm.58 9.41h-1.2v-7.5h1.2V67zm5.91-.07c-.28.15-.65.23-1.12.23-1.31 0-1.97-.73-1.97-2.2v-4.43h-1.29V59.5h1.3v-1.83l1.2-.39v2.22h1.88v1.03h-1.89v4.22c0 .5.09.86.26 1.08.17.21.45.32.85.32.3 0 .56-.08.78-.25v1.03zm1.64 2.46h-1.07a9.7 9.7 0 0 0 2.28-6.41c0-2.47-.76-4.63-2.3-6.48h1.09a9.68 9.68 0 0 1 2.28 6.5c0 2.53-.76 4.66-2.28 6.39z"/><path fill="#0060DF" d="M175.83 56.5L172.86 67h-1.44l-2.16-7.68a4.8 4.8 0 0 1-.17-1.07h-.03c-.03.37-.1.72-.19 1.06L166.69 67h-1.42l-3.08-10.5h1.36l2.23 8.05c.1.34.15.7.18 1.06h.03c.03-.26.1-.61.23-1.06l2.32-8.05h1.18l2.23 8.11c.07.28.13.6.17.98h.03c.02-.25.09-.59.2-1l2.15-8.1h1.33zm7.62 10.5h-1.2v-4.32c0-1.56-.58-2.35-1.74-2.35a1.9 1.9 0 0 0-1.48.68c-.4.45-.6 1.03-.6 1.74V67h-1.2V55.9h1.2v4.85h.03a2.73 2.73 0 0 1 2.46-1.43c1.69 0 2.53 1.02 2.53 3.06V67zm7.63 0h-1.2v-1.17h-.03c-.52.9-1.29 1.35-2.3 1.35-.75 0-1.33-.2-1.76-.6-.42-.4-.63-.92-.63-1.57 0-1.4.82-2.22 2.47-2.45l2.25-.31c0-1.28-.51-1.92-1.54-1.92-.9 0-1.72.31-2.45.93v-1.23c.74-.47 1.59-.7 2.55-.7 1.76 0 2.64.93 2.64 2.8V67zm-1.2-3.8l-1.8.26c-.56.07-.98.21-1.27.4-.28.2-.42.56-.42 1.06 0 .37.13.67.4.9.25.23.6.35 1.04.35.6 0 1.08-.21 1.47-.63.39-.42.58-.95.58-1.59v-.74zm6.95 3.73c-.29.15-.66.23-1.12.23-1.32 0-1.97-.73-1.97-2.2v-4.43h-1.3V59.5h1.3v-1.83l1.2-.39v2.22h1.89v1.03h-1.9v4.22c0 .5.1.86.26 1.08.17.21.46.32.85.32.3 0 .57-.08.79-.25v1.03zm3.08-10.6l-1.03 3.26h-.86l.81-3.27h1.08zm1.5 10.4v-1.29c.66.48 1.38.73 2.16.73 1.06 0 1.58-.36 1.58-1.06 0-.2-.04-.37-.13-.5a1.35 1.35 0 0 0-.37-.38c-.15-.1-.33-.2-.54-.29l-.67-.27a8.63 8.63 0 0 1-.87-.4 2.64 2.64 0 0 1-.63-.45c-.17-.17-.3-.36-.39-.57a2.03 2.03 0 0 1-.12-.76c0-.35.08-.66.24-.93.16-.27.37-.5.64-.68a3 3 0 0 1 .92-.42 4.3 4.3 0 0 1 2.8.2l.01 1.22a3.4 3.4 0 0 0-2.51-.47c-.18.05-.34.13-.47.22a1 1 0 0 0-.3.33.88.88 0 0 0-.1.43c0 .2.03.36.1.49s.18.25.31.35c.14.1.3.2.5.28l.67.27c.33.13.63.26.9.4.26.13.48.28.67.45.18.17.32.36.42.58.1.22.15.48.15.78 0 .37-.08.7-.24.97-.16.27-.38.5-.66.68a3 3 0 0 1-.94.4c-.36.1-.73.14-1.12.14-.77 0-1.44-.15-2-.45zm17.15.27h-1.2v-4.28c0-1.59-.58-2.39-1.74-2.39-.6 0-1.1.23-1.49.68-.4.45-.59 1.02-.59 1.71V67h-1.2v-7.5h1.2v1.25h.03a2.7 2.7 0 0 1 2.46-1.43c.82 0 1.45.27 1.88.8.44.53.65 1.3.65 2.3V67zm8.3-3.45h-5.3c.02.84.24 1.48.67 1.93.43.46 1.02.69 1.78.69.84 0 1.62-.28 2.33-.84v1.13c-.66.48-1.53.72-2.62.72-1.06 0-1.9-.34-2.5-1.03-.6-.68-.9-1.64-.9-2.87a4.1 4.1 0 0 1 .99-2.85 3.18 3.18 0 0 1 2.46-1.1c.98 0 1.74.31 2.28.95.54.63.8 1.51.8 2.64v.63zm-1.23-1.02c0-.7-.18-1.23-.5-1.62a1.7 1.7 0 0 0-1.38-.58c-.57 0-1.05.2-1.44.61-.4.4-.64.94-.73 1.6h4.05zm12.5-3.03l-2.26 7.5h-1.24l-1.55-5.37a3.5 3.5 0 0 1-.12-.7h-.02c-.02.18-.07.4-.16.69L231.1 67h-1.2l-2.27-7.5h1.26l1.55 5.64c.05.17.09.4.1.67h.07c.01-.21.05-.44.13-.69l1.73-5.62h1.1l1.55 5.65c.05.18.08.41.1.68h.07c0-.2.05-.42.12-.68l1.52-5.65h1.2z"/><g transform="translate(154 56)"><rect width="8" height="12" fill="#C0DFFF" opacity=".67"/><path stroke="#3DC1FF" stroke-linecap="square" d="M.5.14v11.72M7.5.14v11.72"/></g><path fill="#0A84FF" d="M153.87 75.59c-.19.24-.47.47-.86.69.46.2.81.47 1.06.78.24.31.36.67.36 1.08 0 .37-.1.71-.3 1.02-.2.3-.47.54-.84.71-.38.17-.81.26-1.31.26a3 3 0 0 1-1.3-.26c-.37-.17-.64-.4-.83-.7-.19-.3-.28-.63-.28-1 0-.79.45-1.38 1.34-1.78-.37-.2-.64-.41-.81-.66a1.62 1.62 0 0 1-.25-.93c0-.4.1-.73.3-1 .2-.28.47-.49.8-.63a2.73 2.73 0 0 1 2.12 0c.33.13.59.33.78.6.2.27.3.59.3.97 0 .33-.1.61-.28.85zm-2.79-.24c.1.14.24.25.42.34.18.1.43.2.75.31.3-.18.5-.36.63-.54.13-.18.19-.4.19-.66a1 1 0 0 0-.28-.74 1.08 1.08 0 0 0-.79-.28c-.34 0-.6.09-.79.27a1 1 0 0 0-.28.76c0 .22.05.4.15.54zm2.01 2.15a1.4 1.4 0 0 0-.52-.42c-.21-.1-.53-.23-.94-.38-.6.31-.91.79-.91 1.43 0 .36.1.64.32.84.22.2.54.31.95.31.41 0 .73-.1.95-.31.23-.22.34-.49.34-.82 0-.27-.06-.48-.19-.66zm7.3-.15c0 .83-.18 1.5-.53 2.02-.35.5-.86.76-1.51.76-.55 0-1-.2-1.34-.58v2.48l-1.12.13v-7.44h.97l.07.68c.2-.27.43-.47.7-.61.26-.14.54-.21.84-.21 1.28 0 1.92.92 1.92 2.77zm-2.87-1.7c-.2.14-.36.32-.51.55v2.47c.26.4.6.59 1.04.59.39 0 .68-.15.87-.46.2-.3.29-.79.29-1.44a3.1 3.1 0 0 0-.26-1.47.85.85 0 0 0-.79-.45c-.23 0-.45.07-.64.21zm3.91 4.35l1.9-2.78-1.69-2.5h1.29l1.08 1.86 1.08-1.86h1.23l-1.65 2.45 1.9 2.83h-1.31l-1.3-2.16-1.29 2.16h-1.24z"/></g></svg>