<svg xmlns="http://www.w3.org/2000/svg" xmlns:xlink="http://www.w3.org/1999/xlink" style="background:#fafafc" viewBox="0 0 764 360"><defs><rect id="a" width="20" height="20" y="2"/><rect id="b" width="20" height="20"/><rect id="c" width="334" height="30" rx="2"/><rect id="d" width="150" height="30" rx="2"/><rect id="e" width="606" height="30"/><rect id="f" width="606" height="28" rx="2"/></defs><g fill="none" fill-rule="evenodd"><g transform="translate(114 38)"><path fill="#0C0C0D" d="M3.43 8.9v5.8h5.63V16H3.43v7H2V7.6h7.5v1.3H3.44zm9.5.32c-.26 0-.5-.1-.68-.28a.94.94 0 0 1-.3-.71c0-.28.1-.51.3-.7.19-.18.42-.27.68-.27.14 0 .27.03.39.07a.93.93 0 0 1 .53.5c.06.13.08.26.08.4a1 1 0 0 1-.07.39.92.92 0 0 1-.22.31c-.1.1-.2.16-.31.21a1 1 0 0 1-.4.08zM12.26 23V12h1.37v11h-1.37zm4.92 0V6.71h1.37V23h-1.37zm5.57-5.25c0 .67.1 1.28.27 1.81.17.54.42 1 .74 1.37.32.37.72.65 1.18.85.46.2.98.3 1.56.3a5.6 5.6 0 0 0 3.51-1.3v1.35a6.4 6.4 0 0 1-5.83.74 4.17 4.17 0 0 1-1.54-1.12c-.42-.5-.74-1.1-.97-1.81a8.03 8.03 0 0 1 .03-4.74c.25-.7.6-1.3 1.04-1.82a4.58 4.58 0 0 1 3.58-1.64c.7 0 1.33.13 1.88.37.54.25 1 .6 1.37 1.06.37.46.65 1.02.84 1.68.2.66.3 1.4.3 2.21v.69h-7.96zm6.53-1.2a4.19 4.19 0 0 0-.81-2.67 2.68 2.68 0 0 0-2.18-.95c-.47 0-.9.09-1.3.25-.4.17-.74.4-1.05.72-.3.3-.55.69-.74 1.13-.2.45-.34.96-.42 1.51h6.5zm3.5 4.47a4.4 4.4 0 0 0 1.42.78 4.73 4.73 0 0 0 1.53.28c1.63 0 2.45-.62 2.45-1.84 0-.28-.06-.52-.17-.73a1.9 1.9 0 0 0-.5-.55 4.13 4.13 0 0 0-.77-.47c-.3-.14-.64-.3-1.02-.45-.51-.21-.95-.42-1.31-.64a3.97 3.97 0 0 1-.9-.7 2.54 2.54 0 0 1-.7-1.87c0-.5.1-.93.31-1.3.21-.38.5-.7.86-.97s.77-.47 1.24-.6a5.46 5.46 0 0 1 3.97.33v1.44a4.83 4.83 0 0 0-2.67-.8c-.34 0-.65.05-.94.13-.28.09-.52.21-.72.37a1.58 1.58 0 0 0-.63 1.29c0 .27.04.5.12.71.09.2.22.4.4.56.19.16.43.32.72.47.29.15.64.31 1.05.48.53.22 1 .43 1.38.64.39.21.7.44.95.69a2.42 2.42 0 0 1 .75 1.88 2.79 2.79 0 0 1-1.16 2.3c-.36.27-.79.47-1.27.6a5.9 5.9 0 0 1-1.6.2 5.27 5.27 0 0 1-2.8-.69v-1.54zM54.7 23v-1.96h-.04a3.88 3.88 0 0 1-3.57 2.21c-.53 0-1-.07-1.43-.22a2.81 2.81 0 0 1-1.77-1.63 3.3 3.3 0 0 1-.25-1.28c0-1 .31-1.79.93-2.38.61-.59 1.54-.97 2.79-1.15l3.34-.49c0-2.1-.82-3.17-2.46-3.17-1.28 0-2.47.47-3.57 1.41v-1.5c.23-.17.5-.32.78-.45a7.16 7.16 0 0 1 2.9-.65c1.23 0 2.16.35 2.78 1.03.63.7.94 1.72.94 3.08V23H54.7zm-2.84-5.34c-.5.07-.91.16-1.26.27-.36.1-.65.25-.87.43-.23.19-.4.41-.5.68a2.69 2.69 0 0 0-.01 1.81c.1.25.25.47.45.65.2.18.43.33.72.43a3.2 3.2 0 0 0 4.06-2.08c.17-.47.25-.96.25-1.5v-1.09l-2.84.4zM66.81 23v-6.34c0-2.48-.9-3.73-2.71-3.73a3.12 3.12 0 0 0-2.4 1.08c-.29.34-.52.73-.69 1.2-.17.46-.25.96-.25 1.5V23h-1.38V12h1.38v1.91h.04a3.97 3.97 0 0 1 3.69-2.17c1.2 0 2.12.4 2.75 1.17.63.78.94 1.91.94 3.39V23h-1.37zm12.4 0v-1.93h-.05a3.9 3.9 0 0 1-1.56 1.61 4.6 4.6 0 0 1-2.3.58 4.5 4.5 0 0 1-1.88-.38 4.02 4.02 0 0 1-1.45-1.1 5.12 5.12 0 0 1-.93-1.74 7.54 7.54 0 0 1-.32-2.31c0-.9.12-1.7.36-2.44.24-.73.58-1.36 1.02-1.89a4.58 4.58 0 0 1 3.65-1.66c1.59 0 2.72.64 3.4 1.9h.05V6.71h1.38V23H79.2zm0-6.64a3.6 3.6 0 0 0-.94-2.43 3.21 3.21 0 0 0-2.42-1c-.54 0-1.04.11-1.5.33-.46.21-.85.52-1.18.93-.33.4-.58.9-.76 1.47a6.58 6.58 0 0 0-.28 1.98c0 .7.09 1.32.25 1.87.17.55.4 1.02.7 1.4a3.08 3.08 0 0 0 2.5 1.17c.56 0 1.06-.1 1.51-.3.45-.2.83-.48 1.14-.83.31-.35.55-.76.72-1.24.17-.47.25-.97.25-1.51v-1.84zM100.34 23l-1.7-4.55h-6.6L90.4 23h-1.6l5.87-15.4h1.44l5.83 15.4h-1.59zm-4.7-12.7a8.19 8.19 0 0 1-.28-1.1h-.04a5.98 5.98 0 0 1-.3 1.1l-2.5 6.85h5.64l-2.51-6.86zm9.87 10.93v6.83h-1.37V12h1.37v2.1h.04a4.37 4.37 0 0 1 3.96-2.36c.7 0 1.33.13 1.88.38a3.9 3.9 0 0 1 1.4 1.08c.4.47.69 1.03.89 1.7.2.67.3 1.41.3 2.25 0 .9-.1 1.73-.34 2.48-.23.75-.56 1.4-.99 1.93a4.49 4.49 0 0 1-3.63 1.7c-1.54 0-2.7-.68-3.47-2.03h-.04zm0-2.8a3.92 3.92 0 0 0 .96 2.57 3.27 3.27 0 0 0 2.5 1.08 3.17 3.17 0 0 0 2.63-1.35c.3-.43.55-.95.72-1.55a7.66 7.66 0 0 0 .01-3.8 3.95 3.95 0 0 0-.67-1.32 2.9 2.9 0 0 0-1.05-.84 3.65 3.65 0 0 0-2.93.03c-.46.21-.85.5-1.17.87-.32.36-.57.79-.74 1.28a4.7 4.7 0 0 0-.26 1.56v1.46zm12.62 2.8v6.83h-1.37V12h1.37v2.1h.05a4.37 4.37 0 0 1 3.95-2.36c.7 0 1.33.13 1.88.38a3.9 3.9 0 0 1 1.41 1.08c.38.47.68 1.03.88 1.7.2.67.3 1.41.3 2.25 0 .9-.1 1.73-.34 2.48-.22.75-.55 1.4-.98 1.93a4.49 4.49 0 0 1-3.63 1.7c-1.55 0-2.7-.68-3.47-2.03h-.05zm0-2.8a3.92 3.92 0 0 0 .96 2.57 3.27 3.27 0 0 0 2.5 1.08 3.17 3.17 0 0 0 2.63-1.35c.31-.43.55-.95.72-1.55a7.66 7.66 0 0 0 .01-3.8 3.95 3.95 0 0 0-.67-1.32 2.9 2.9 0 0 0-1.05-.84 3.65 3.65 0 0 0-2.93.03c-.46.21-.85.5-1.17.87-.32.36-.57.79-.74 1.28a4.7 4.7 0 0 0-.26 1.56v1.46zM129.4 23V6.71h1.37V23h-1.37zm5.6-13.78c-.27 0-.5-.1-.7-.28a.94.94 0 0 1-.28-.71.97.97 0 0 1 .98-.97c.13 0 .26.03.38.07a.93.93 0 0 1 .53.5 1 1 0 0 1 0 .78.92.92 0 0 1-.2.32 1 1 0 0 1-.7.28zM134.3 23V12h1.37v11h-1.37zm12.23-.5c-.81.5-1.8.75-2.96.77-.79 0-1.5-.13-2.13-.41a4.66 4.66 0 0 1-1.6-1.17 5.18 5.18 0 0 1-1.03-1.76 7.09 7.09 0 0 1 .02-4.53 5.19 5.19 0 0 1 2.86-3.19c.7-.31 1.49-.47 2.38-.47.91 0 1.75.18 2.5.53v1.46c-.8-.53-1.67-.8-2.6-.8a3.74 3.74 0 0 0-3.02 1.38c-.35.43-.62.93-.8 1.5a5.9 5.9 0 0 0-.04 3.5c.15.53.39 1 .7 1.42.32.41.73.74 1.21.98a4.58 4.58 0 0 0 4.51-.56v1.36zm8.99.5v-1.96h-.05a3.88 3.88 0 0 1-3.57 2.21c-.52 0-1-.07-1.43-.22a2.81 2.81 0 0 1-1.77-1.63 3.3 3.3 0 0 1-.24-1.28c0-1 .3-1.79.92-2.38.62-.59 1.55-.97 2.8-1.15l3.34-.49c0-2.1-.82-3.17-2.46-3.17-1.29 0-2.48.47-3.57 1.41v-1.5c.23-.17.49-.32.78-.45a7.16 7.16 0 0 1 2.9-.65c1.23 0 2.15.35 2.78 1.03.63.7.94 1.72.94 3.08V23h-1.37zm-2.84-5.34c-.5.07-.92.16-1.27.27-.35.1-.64.25-.87.43-.23.19-.4.41-.5.68a2.69 2.69 0 0 0 0 1.81c.1.25.25.47.44.65.2.18.44.33.72.43a3.2 3.2 0 0 0 4.06-2.08c.17-.47.26-.96.26-1.5v-1.09l-2.84.4zm12.25 5.21c-.48.24-1 .36-1.55.36-1.78 0-2.67-1.03-2.67-3.08V13.2h-1.93V12h1.93V9.23l1.38-.45V12h2.84v1.2h-2.84v6.74c0 .74.12 1.28.36 1.61.25.33.66.5 1.24.5.43 0 .84-.13 1.24-.4v1.22zm2.94-13.65c-.27 0-.5-.1-.69-.28a.94.94 0 0 1-.29-.71c0-.28.1-.51.3-.7.18-.18.41-.27.68-.27.13 0 .26.03.39.07a.93.93 0 0 1 .53.5 1 1 0 0 1 0 .78.92.92 0 0 1-.21.32 1 1 0 0 1-.7.28zM167.2 23V12h1.38v11h-1.38zm9.42.26c-.81 0-1.55-.14-2.2-.41a4.7 4.7 0 0 1-2.7-2.94 6.94 6.94 0 0 1-.37-2.31c0-.92.13-1.74.39-2.46a4.7 4.7 0 0 1 2.83-3c.66-.27 1.42-.4 2.25-.4.8 0 1.5.13 2.14.4.64.26 1.18.63 1.63 1.13.44.5.78 1.1 1.02 1.8.23.71.35 1.52.35 2.42 0 .86-.12 1.64-.37 2.35a5.3 5.3 0 0 1-1.06 1.82c-.46.5-1.01.9-1.67 1.18-.66.28-1.4.42-2.24.42zm.11-10.33c-.6 0-1.15.1-1.63.32-.49.2-.9.5-1.25.9s-.62.89-.8 1.46a6.37 6.37 0 0 0-.28 1.97c0 .68.09 1.3.28 1.85.18.56.45 1.03.79 1.42.34.4.75.7 1.24.9.48.22 1.03.33 1.63.33.61 0 1.16-.1 1.63-.31.47-.2.88-.5 1.2-.9.33-.38.58-.86.75-1.43.17-.56.25-1.2.25-1.93 0-1.48-.33-2.61-.98-3.4a3.48 3.48 0 0 0-2.83-1.18zM192.16 23v-6.34c0-2.48-.9-3.73-2.71-3.73a3.12 3.12 0 0 0-2.4 1.08c-.29.34-.52.73-.69 1.2-.17.46-.25.96-.25 1.5V23h-1.38V12h1.38v1.91h.04a3.97 3.97 0 0 1 3.69-2.17c1.2 0 2.12.4 2.75 1.17.63.78.94 1.91.94 3.39V23h-1.37zm4.06-1.98a4.4 4.4 0 0 0 1.43.78 4.73 4.73 0 0 0 1.52.28c1.63 0 2.45-.62 2.45-1.84 0-.28-.06-.52-.17-.73a1.9 1.9 0 0 0-.5-.55 4.13 4.13 0 0 0-.77-.47c-.3-.14-.64-.3-1.02-.45-.5-.21-.95-.42-1.31-.64a3.97 3.97 0 0 1-.9-.7 2.54 2.54 0 0 1-.7-1.87c0-.5.1-.93.32-1.3.2-.38.5-.7.85-.97.36-.27.77-.47 1.24-.6a5.46 5.46 0 0 1 3.97.33v1.44a4.83 4.83 0 0 0-2.66-.8c-.35 0-.66.05-.94.13-.29.09-.53.21-.73.37a1.58 1.58 0 0 0-.63 1.29 1.56 1.56 0 0 0 .53 1.27c.18.16.42.32.7.47.3.15.65.31 1.07.48.53.22.98.43 1.37.64.39.21.7.44.96.69a2.42 2.42 0 0 1 .74 1.88 2.79 2.79 0 0 1-1.16 2.3c-.36.27-.78.47-1.27.6a5.9 5.9 0 0 1-1.59.2 5.27 5.27 0 0 1-2.8-.69v-1.54z"/><g transform="translate(0 50)"><path fill="#0C0C0D" d="M1.47 18V6.1H4.9c4.38 0 6.58 1.93 6.58 5.8 0 1.84-.61 3.31-1.83 4.43C8.44 17.44 6.81 18 4.76 18h-3.3zM3.44 7.77v8.56H5c1.4 0 2.47-.38 3.25-1.14a4.35 4.35 0 0 0 1.15-3.24c0-2.78-1.44-4.18-4.32-4.18H3.44zM17.22 18.2c-1.32 0-2.36-.4-3.15-1.2a4.3 4.3 0 0 1-1.17-3.15c0-1.43.4-2.54 1.22-3.35a4.5 4.5 0 0 1 3.3-1.2c1.33 0 2.37.4 3.1 1.17a4.52 4.52 0 0 1 1.12 3.25c0 1.35-.4 2.44-1.2 3.25a4.3 4.3 0 0 1-3.22 1.23zm.09-7.36a2.2 2.2 0 0 0-1.79.79 3.3 3.3 0 0 0-.65 2.17c0 .9.22 1.6.66 2.1.44.52 1.04.77 1.78.77.76 0 1.34-.25 1.74-.75.41-.5.61-1.22.61-2.15 0-.94-.2-1.66-.6-2.17a2.1 2.1 0 0 0-1.75-.76zM35.03 9.5l-2.5 8.5H30.5l-1.55-5.76c-.06-.22-.1-.47-.11-.75h-.04a3.4 3.4 0 0 1-.15.73L27 18H25l-2.5-8.5h2l1.54 6.13c.05.18.08.42.1.73h.06c.01-.24.06-.48.13-.75l1.72-6.11h1.8l1.53 6.15c.05.2.09.44.11.73h.06c.01-.2.05-.45.12-.73L33.2 9.5h1.84zm9 8.5H42.1v-4.79c0-1.59-.56-2.38-1.68-2.38-.59 0-1.07.22-1.46.66-.38.44-.57 1-.57 1.66V18h-1.93V9.5h1.93v1.41h.03a3.03 3.03 0 0 1 2.76-1.6c.92 0 1.63.3 2.12.9.48.6.73 1.46.73 2.6V18zm4.28 0h-1.93V5.42h1.93V18zm6.28.2c-1.32 0-2.36-.4-3.15-1.2a4.3 4.3 0 0 1-1.17-3.15c0-1.43.4-2.54 1.22-3.35a4.5 4.5 0 0 1 3.3-1.2c1.33 0 2.37.4 3.1 1.17a4.52 4.52 0 0 1 1.12 3.25c0 1.35-.4 2.44-1.2 3.25a4.3 4.3 0 0 1-3.22 1.23zm.09-7.36a2.2 2.2 0 0 0-1.79.79 3.3 3.3 0 0 0-.65 2.17c0 .9.22 1.6.66 2.1.44.52 1.04.77 1.78.77.76 0 1.34-.25 1.74-.75.41-.5.61-1.22.61-2.15 0-.94-.2-1.66-.6-2.17a2.1 2.1 0 0 0-1.75-.76zM67.49 18h-1.86v-1.33h-.04a2.81 2.81 0 0 1-2.58 1.53c-.83 0-1.49-.23-1.96-.68a2.38 2.38 0 0 1-.71-1.8c0-1.6.92-2.54 2.77-2.8l2.52-.37c0-1.2-.57-1.81-1.72-1.81a4.1 4.1 0 0 0-2.74 1.04V10.1c.9-.53 1.93-.8 3.1-.8 2.15 0 3.22 1.06 3.22 3.17V18zm-1.86-4.18l-1.78.25c-.55.08-.97.21-1.25.4-.28.2-.42.55-.42 1.04 0 .36.13.65.39.88.25.23.6.35 1.03.35.59 0 1.07-.2 1.46-.62.38-.41.57-.93.57-1.56v-.74zM77.57 18h-1.92v-1.44h-.04a3.07 3.07 0 0 1-2.86 1.64 3.1 3.1 0 0 1-2.51-1.14 4.74 4.74 0 0 1-.95-3.11c0-1.4.35-2.53 1.05-3.38A3.4 3.4 0 0 1 73.1 9.3c1.15 0 1.98.46 2.5 1.38h.04V5.42h1.92V18zm-1.9-3.88V13c0-.6-.2-1.11-.59-1.53-.4-.42-.9-.63-1.5-.63-.72 0-1.29.26-1.7.8a3.59 3.59 0 0 0-.62 2.23c0 .87.2 1.55.6 2.05.4.5.92.75 1.6.75a2 2 0 0 0 1.6-.72c.4-.49.61-1.1.61-1.83zm3.88 3.61v-1.78c.72.55 1.52.82 2.39.82 1.16 0 1.74-.34 1.74-1.03 0-.2-.05-.36-.15-.5-.1-.13-.23-.25-.4-.35-.17-.1-.37-.2-.6-.29a8.13 8.13 0 0 1-1.71-.72 2.85 2.85 0 0 1-.7-.52c-.18-.2-.32-.42-.42-.67-.09-.25-.14-.54-.14-.87 0-.41.1-.77.3-1.09.19-.31.45-.57.77-.79.33-.2.7-.37 1.12-.48a5.85 5.85 0 0 1 3.4.2v1.68a3.55 3.55 0 0 0-2.73-.54c-.2.05-.36.12-.5.21s-.25.2-.32.32a.76.76 0 0 0-.12.41c0 .18.04.34.12.47.07.12.19.24.34.33.15.1.34.19.55.27l.73.26c.37.15.7.3.99.46.29.15.54.33.74.52a2.07 2.07 0 0 1 .64 1.6c0 .43-.1.8-.3 1.13-.2.32-.46.59-.8.8-.33.2-.71.36-1.15.47-.43.1-.89.15-1.37.15-.93 0-1.73-.16-2.42-.47z"/><g transform="translate(0 33)"><path fill="#0C0C0D" d="M28.89 16.58v-1.45c.16.14.36.27.6.4a4.84 4.84 0 0 0 1.5.47c.26.05.5.07.72.07.75 0 1.32-.14 1.7-.42.37-.28.55-.69.55-1.21 0-.29-.06-.53-.18-.74a2.1 2.1 0 0 0-.52-.58 5.12 5.12 0 0 0-.78-.5l-.97-.5c-.37-.18-.71-.37-1.03-.56-.31-.2-.59-.4-.82-.63a2.41 2.41 0 0 1-.75-1.8c0-.48.1-.9.3-1.25.22-.36.5-.65.83-.88.35-.23.73-.4 1.17-.51.44-.11.88-.17 1.34-.17 1.03 0 1.79.13 2.26.37v1.39a4.1 4.1 0 0 0-2.39-.65c-.26 0-.53.03-.8.09-.27.05-.51.15-.72.27-.21.13-.38.3-.51.5s-.2.44-.2.73c0 .27.05.5.15.7.1.19.25.37.44.53.2.16.44.31.72.47l.97.5c.37.18.73.37 1.07.58.33.2.63.43.88.68.26.25.46.53.6.83.16.3.23.65.23 1.04 0 .52-.1.95-.3 1.31-.2.36-.48.65-.82.88-.35.22-.74.39-1.2.49a6.52 6.52 0 0 1-3.5-.2c-.23-.08-.4-.16-.54-.25zm13.66.42h-1.2v-1.17h-.03c-.52.9-1.29 1.35-2.3 1.35-.75 0-1.34-.2-1.76-.6-.42-.4-.63-.92-.63-1.57 0-1.4.82-2.22 2.47-2.45l2.25-.31c0-1.28-.51-1.92-1.54-1.92-.9 0-1.72.31-2.45.93v-1.23c.74-.47 1.59-.7 2.55-.7 1.76 0 2.64.93 2.64 2.8V17zm-1.2-3.8l-1.8.26c-.56.07-.98.21-1.27.4-.28.2-.42.56-.42 1.06 0 .37.13.67.39.9.26.23.6.35 1.04.35.6 0 1.1-.21 1.48-.63.39-.42.58-.95.58-1.59v-.74zm9.36-3.7L47.72 17h-1.18L43.7 9.5h1.32l1.9 5.45c.15.4.24.75.27 1.05h.03c.05-.38.13-.72.23-1.02l2-5.48h1.26zm7.32 4.05h-5.3c.02.84.25 1.48.68 1.93.43.46 1.02.69 1.77.69.84 0 1.62-.28 2.33-.84v1.13c-.66.48-1.53.72-2.62.72-1.06 0-1.89-.34-2.5-1.03-.6-.68-.9-1.64-.9-2.87a4.1 4.1 0 0 1 1-2.85 3.18 3.18 0 0 1 2.46-1.1c.98 0 1.74.31 2.27.95.54.63.8 1.51.8 2.64v.63zm-1.23-1.02c0-.7-.17-1.23-.5-1.62a1.7 1.7 0 0 0-1.38-.58c-.56 0-1.04.2-1.44.61-.4.4-.64.94-.73 1.6h4.05zm10.86-5.58a1.6 1.6 0 0 0-.8-.2c-.84 0-1.26.53-1.26 1.6V9.5h1.76v1.03H65.6V17h-1.2v-6.47h-1.27V9.5h1.28V8.28c0-.78.23-1.4.68-1.86a2.3 2.3 0 0 1 1.7-.68c.37 0 .66.04.87.13v1.08zm1.6.65a.76.76 0 0 1-.77-.78c0-.23.07-.41.23-.56a.75.75 0 0 1 .54-.22.78.78 0 0 1 .8.78c0 .21-.08.4-.24.55a.77.77 0 0 1-.56.23zm.6 9.4h-1.21V9.5h1.2V17zm3.62 0h-1.2V5.9h1.2V17zm8.46-3.45h-5.3c.03.84.25 1.48.68 1.93.43.46 1.02.69 1.77.69.85 0 1.62-.28 2.33-.84v1.13c-.66.48-1.53.72-2.61.72-1.06 0-1.9-.34-2.5-1.03-.6-.68-.9-1.64-.9-2.87a4.1 4.1 0 0 1 .98-2.85 3.18 3.18 0 0 1 2.47-1.1c.98 0 1.74.31 2.28.95.53.63.8 1.51.8 2.64v.63zm-1.23-1.02c0-.7-.17-1.23-.5-1.62a1.7 1.7 0 0 0-1.37-.58c-.57 0-1.05.2-1.45.61-.4.4-.64.94-.73 1.6h4.05zm2.6 4.2v-1.29c.65.48 1.37.73 2.16.73 1.05 0 1.58-.36 1.58-1.06 0-.2-.05-.37-.14-.5a1.35 1.35 0 0 0-.36-.38c-.16-.1-.34-.2-.55-.29l-.67-.27a8.63 8.63 0 0 1-.87-.4 2.64 2.64 0 0 1-.63-.45c-.17-.17-.3-.36-.38-.57a2.03 2.03 0 0 1-.13-.76c0-.35.08-.66.24-.93.16-.27.38-.5.65-.68a3 3 0 0 1 .92-.42 4.3 4.3 0 0 1 2.8.2v1.22a3.4 3.4 0 0 0-2.5-.47c-.19.05-.34.13-.47.22a1 1 0 0 0-.3.33.88.88 0 0 0-.11.43c0 .2.04.36.1.49.08.13.18.25.32.35.13.1.3.2.5.28l.66.27c.33.13.63.26.9.4.26.13.48.28.67.45.19.17.33.36.43.58.1.22.15.48.15.78 0 .37-.08.7-.25.97-.16.27-.38.5-.65.68a3 3 0 0 1-.95.4c-.35.1-.73.14-1.12.14-.77 0-1.44-.15-2-.45zm14.4.2c-.28.15-.65.23-1.12.23-1.31 0-1.97-.73-1.97-2.2v-4.43h-1.29V9.5h1.3V7.67l1.2-.39V9.5h1.88v1.03h-1.89v4.22c0 .5.09.86.26 1.08.17.21.45.32.85.32.3 0 .56-.08.78-.25v1.03zm4.74.25c-1.1 0-2-.35-2.65-1.06a3.9 3.9 0 0 1-1-2.78c0-1.26.35-2.25 1.04-2.95a3.71 3.71 0 0 1 2.79-1.07c1.11 0 1.99.35 2.61 1.04.63.69.95 1.64.95 2.86 0 1.2-.34 2.16-1.02 2.88a3.55 3.55 0 0 1-2.72 1.08zm.09-6.85c-.77 0-1.38.27-1.83.8a3.23 3.23 0 0 0-.68 2.16c0 .9.23 1.6.68 2.1.46.52 1.07.78 1.83.78a2.2 2.2 0 0 0 1.79-.76c.42-.5.63-1.22.63-2.15 0-.93-.21-1.66-.63-2.16a2.19 2.19 0 0 0-1.8-.77z"/><use fill="#FFFFFF" xlink:href="#a"/><rect width="19" height="19" x=".5" y="2.5" stroke="#0C0C0D" stroke-opacity=".3"/></g><g transform="translate(0 67)"><path fill="#0C0C0D" d="M37.5 17h-1.36l-1.1-2.94h-4.46L29.53 17h-1.37L32.2 6.5h1.27L37.51 17zm-2.87-4.05l-1.65-4.48c-.05-.14-.1-.38-.16-.7h-.03c-.05.3-.1.53-.17.7L31 12.95h3.64zM40.09 17h-1.2V5.9h1.2V17zm11.88-7.5L49.72 17h-1.24l-1.55-5.37a3.5 3.5 0 0 1-.11-.7h-.03c-.02.18-.07.4-.16.69L44.96 17h-1.2l-2.28-7.5h1.26l1.56 5.64c.05.17.08.4.1.67h.06c.01-.21.06-.44.13-.69l1.73-5.62h1.1l1.55 5.65c.05.18.08.41.1.68h.07c0-.2.05-.42.12-.68L50.8 9.5h1.18zm6.76 7.5h-1.2v-1.17h-.03c-.52.9-1.29 1.35-2.3 1.35-.75 0-1.34-.2-1.76-.6-.42-.4-.63-.92-.63-1.57 0-1.4.82-2.22 2.47-2.45l2.25-.31c0-1.28-.51-1.92-1.54-1.92-.9 0-1.72.31-2.45.93v-1.23c.74-.47 1.59-.7 2.55-.7 1.76 0 2.64.93 2.64 2.8V17zm-1.2-3.8l-1.8.26c-.56.07-.98.21-1.27.4-.28.2-.42.56-.42 1.06 0 .37.13.67.39.9.26.23.6.35 1.04.35.6 0 1.1-.21 1.48-.63.39-.42.58-.95.58-1.59v-.74zm9.43-3.7l-3.44 8.7c-.62 1.55-1.48 2.33-2.6 2.33-.31 0-.57-.03-.78-.1v-1.07c.26.09.5.13.7.13.61 0 1.07-.36 1.37-1.08l.6-1.42-2.93-7.49h1.34l2.02 5.77.16.57h.04l.15-.55 2.13-5.79h1.24zm.84 7.23v-1.29c.65.48 1.37.73 2.16.73 1.06 0 1.58-.36 1.58-1.06 0-.2-.04-.37-.13-.5a1.35 1.35 0 0 0-.37-.38c-.15-.1-.33-.2-.54-.29l-.67-.27a8.63 8.63 0 0 1-.88-.4 2.64 2.64 0 0 1-.63-.45c-.16-.17-.3-.36-.38-.57a2.03 2.03 0 0 1-.13-.76c0-.35.09-.66.25-.93s.37-.5.64-.68a3 3 0 0 1 .92-.42 4.3 4.3 0 0 1 2.8.2v1.22a3.4 3.4 0 0 0-2.5-.47c-.18.05-.34.13-.47.22a1 1 0 0 0-.3.33.88.88 0 0 0-.1.43c0 .2.03.36.1.49s.18.25.31.35c.14.1.3.2.5.28l.67.27c.33.13.63.26.9.4.25.13.48.28.66.45.19.17.33.36.43.58.1.22.15.48.15.78 0 .37-.08.7-.24.97-.17.27-.38.5-.66.68a3 3 0 0 1-.94.4c-.36.1-.73.14-1.12.14-.77 0-1.44-.15-2.01-.45zm16.3.27h-1.2v-1.17h-.03c-.53.9-1.3 1.35-2.31 1.35-.75 0-1.33-.2-1.76-.6-.42-.4-.63-.92-.63-1.57 0-1.4.83-2.22 2.48-2.45l2.25-.31c0-1.28-.52-1.92-1.55-1.92-.9 0-1.72.31-2.45.93v-1.23c.74-.47 1.59-.7 2.55-.7 1.76 0 2.65.93 2.65 2.8V17zm-1.2-3.8l-1.81.26c-.56.07-.98.21-1.26.4-.29.2-.43.56-.43 1.06 0 .37.13.67.4.9.25.23.6.35 1.04.35.6 0 1.08-.21 1.47-.63.4-.42.59-.95.59-1.59v-.74zm3 3.53v-1.29c.66.48 1.38.73 2.17.73 1.05 0 1.58-.36 1.58-1.06 0-.2-.05-.37-.14-.5a1.35 1.35 0 0 0-.36-.38c-.16-.1-.34-.2-.55-.29l-.67-.27a8.63 8.63 0 0 1-.87-.4 2.64 2.64 0 0 1-.63-.45c-.17-.17-.3-.36-.38-.57a2.03 2.03 0 0 1-.13-.76c0-.35.08-.66.24-.93.16-.27.38-.5.65-.68a3 3 0 0 1 .92-.42 4.3 4.3 0 0 1 2.8.2v1.22a3.4 3.4 0 0 0-2.5-.47c-.19.05-.34.13-.47.22a1 1 0 0 0-.3.33.88.88 0 0 0-.11.43c0 .2.04.36.1.49.08.13.18.25.32.35.13.1.3.2.5.28l.66.27c.33.13.63.26.9.4.26.13.48.28.67.45.19.17.33.36.43.58.1.22.15.48.15.78 0 .37-.08.7-.25.97-.16.27-.38.5-.65.68a3 3 0 0 1-.95.4c-.35.1-.73.14-1.12.14-.77 0-1.44-.15-2-.45zm13.05.27h-1.68l-3.32-3.6h-.02V17h-1.2V5.9h1.2v7.04h.02L97.1 9.5h1.58l-3.48 3.62L98.95 17zm11.3-7.5l-3.44 8.7c-.62 1.55-1.48 2.33-2.6 2.33-.3 0-.57-.03-.78-.1v-1.07c.26.09.5.13.71.13.6 0 1.06-.36 1.36-1.08l.6-1.42-2.92-7.49h1.33l2.03 5.77.15.57h.05l.14-.55 2.13-5.79h1.25zm4.43 7.68c-1.1 0-2-.35-2.65-1.06a3.9 3.9 0 0 1-1-2.78c0-1.26.35-2.25 1.04-2.95a3.71 3.71 0 0 1 2.79-1.07c1.12 0 1.99.35 2.62 1.04.62.69.94 1.64.94 2.86 0 1.2-.34 2.16-1.02 2.88a3.55 3.55 0 0 1-2.72 1.08zm.09-6.85c-.77 0-1.38.27-1.83.8a3.23 3.23 0 0 0-.67 2.16c0 .9.22 1.6.68 2.1.45.52 1.06.78 1.82.78a2.2 2.2 0 0 0 1.8-.76c.4-.5.62-1.22.62-2.15 0-.93-.21-1.66-.63-2.16a2.19 2.19 0 0 0-1.79-.77zM126.4 17h-1.2v-1.19h-.03c-.5.91-1.27 1.37-2.31 1.37-1.8 0-2.68-1.07-2.68-3.2V9.5h1.19v4.3c0 1.57.6 2.37 1.82 2.37.58 0 1.06-.22 1.44-.65.38-.44.57-1 .57-1.7V9.5h1.2V17zm15.98-7.5l-2.25 7.5h-1.24l-1.55-5.37a3.5 3.5 0 0 1-.11-.7h-.03c-.02.18-.07.4-.16.69L135.37 17h-1.2l-2.28-7.5h1.26l1.56 5.64c.05.17.08.4.1.67h.06c.01-.21.06-.44.13-.69l1.73-5.62h1.1l1.55 5.65c.05.18.08.41.1.68h.07c0-.2.05-.42.12-.68l1.53-5.65h1.18zM150 17h-1.2v-4.32c0-1.56-.58-2.35-1.74-2.35a1.9 1.9 0 0 0-1.48.68c-.4.45-.6 1.03-.6 1.74V17h-1.2V5.9h1.2v4.85h.02a2.73 2.73 0 0 1 2.47-1.43c1.68 0 2.53 1.02 2.53 3.06V17zm8.3-3.45H153c.01.84.24 1.48.67 1.93.43.46 1.02.69 1.77.69.85 0 1.62-.28 2.33-.84v1.13c-.66.48-1.53.72-2.61.72-1.06 0-1.9-.34-2.5-1.03-.6-.68-.91-1.64-.91-2.87a4.1 4.1 0 0 1 1-2.85 3.18 3.18 0 0 1 2.46-1.1c.98 0 1.74.31 2.27.95.54.63.81 1.51.81 2.64v.63zm-1.24-1.02c0-.7-.17-1.23-.5-1.62a1.7 1.7 0 0 0-1.37-.58c-.57 0-1.05.2-1.45.61-.4.4-.64.94-.73 1.6h4.05zm6.96-1.81a1.47 1.47 0 0 0-.91-.25c-.51 0-.94.25-1.29.73a3.35 3.35 0 0 0-.51 1.98V17h-1.2V9.5h1.2v1.55h.03c.17-.53.43-.94.78-1.24.35-.3.75-.44 1.18-.44.31 0 .55.03.72.1v1.25zm7.33 2.83h-5.3c.02.84.25 1.48.68 1.93.43.46 1.02.69 1.77.69.85 0 1.62-.28 2.33-.84v1.13c-.66.48-1.53.72-2.62.72-1.05 0-1.89-.34-2.5-1.03-.6-.68-.9-1.64-.9-2.87a4.1 4.1 0 0 1 1-2.85 3.18 3.18 0 0 1 2.46-1.1c.98 0 1.74.31 2.27.95.54.63.81 1.51.81 2.64v.63zm-1.23-1.02c0-.7-.17-1.23-.5-1.62a1.7 1.7 0 0 0-1.38-.58c-.56 0-1.04.2-1.44.61-.4.4-.64.94-.73 1.6h4.05zm10.63 4.4c-.28.15-.65.23-1.12.23-1.31 0-1.97-.73-1.97-2.2v-4.43h-1.29V9.5h1.3V7.67l1.2-.39V9.5h1.88v1.03h-1.89v4.22c0 .5.09.86.26 1.08.17.21.45.32.85.32.3 0 .56-.08.78-.25v1.03zm4.74.25c-1.1 0-2-.35-2.65-1.06a3.9 3.9 0 0 1-1-2.78c0-1.26.35-2.25 1.04-2.95a3.71 3.71 0 0 1 2.79-1.07c1.12 0 1.99.35 2.62 1.04.62.69.94 1.64.94 2.86 0 1.2-.34 2.16-1.02 2.88a3.55 3.55 0 0 1-2.72 1.08zm.1-6.85c-.78 0-1.4.27-1.84.8a3.23 3.23 0 0 0-.67 2.16c0 .9.22 1.6.68 2.1.45.52 1.06.78 1.82.78a2.2 2.2 0 0 0 1.8-.76c.4-.5.62-1.22.62-2.15 0-.93-.21-1.66-.63-2.16a2.19 2.19 0 0 0-1.79-.77zm9.21 6.4v-1.29c.66.48 1.38.73 2.16.73 1.06 0 1.58-.36 1.58-1.06 0-.2-.04-.37-.13-.5a1.35 1.35 0 0 0-.37-.38c-.15-.1-.33-.2-.54-.29l-.67-.27a8.63 8.63 0 0 1-.87-.4 2.64 2.64 0 0 1-.63-.45c-.17-.17-.3-.36-.39-.57a2.03 2.03 0 0 1-.12-.76c0-.35.08-.66.24-.93.16-.27.37-.5.64-.68a3 3 0 0 1 .92-.42 4.3 4.3 0 0 1 2.8.2l.01 1.22a3.4 3.4 0 0 0-2.51-.47c-.18.05-.34.13-.47.22a1 1 0 0 0-.3.33.88.88 0 0 0-.1.43c0 .2.03.36.1.49s.18.25.31.35c.14.1.3.2.5.28l.67.27c.33.13.63.26.9.4.26.13.48.28.67.45.18.17.32.36.42.58.1.22.15.48.15.78 0 .37-.08.7-.24.97-.16.27-.38.5-.66.68a3 3 0 0 1-.94.4c-.36.1-.73.14-1.12.14-.77 0-1.44-.15-2-.45zM207 17h-1.2v-1.17h-.03c-.52.9-1.3 1.35-2.3 1.35-.76 0-1.34-.2-1.76-.6-.42-.4-.64-.92-.64-1.57 0-1.4.83-2.22 2.48-2.45l2.25-.31c0-1.28-.52-1.92-1.55-1.92-.9 0-1.72.31-2.44.93v-1.23c.73-.47 1.58-.7 2.55-.7 1.76 0 2.64.93 2.64 2.8V17zm-1.2-3.8l-1.81.26c-.56.07-.98.21-1.26.4-.28.2-.43.56-.43 1.06 0 .37.14.67.4.9.26.23.6.35 1.04.35.6 0 1.09-.21 1.48-.63.38-.42.58-.95.58-1.59v-.74zm9.36-3.7l-2.99 7.5h-1.18l-2.84-7.5h1.32l1.9 5.45c.14.4.23.75.27 1.05h.02c.05-.38.13-.72.24-1.02l2-5.48h1.26zm7.32 4.05h-5.3c.02.84.24 1.48.67 1.93.43.46 1.02.69 1.78.69.84 0 1.62-.28 2.33-.84v1.13c-.66.48-1.54.72-2.62.72-1.06 0-1.9-.34-2.5-1.03-.6-.68-.9-1.64-.9-2.87a4.1 4.1 0 0 1 .99-2.85 3.18 3.18 0 0 1 2.46-1.1c.98 0 1.74.31 2.28.95.54.63.8 1.51.8 2.64v.63zm-1.24-1.02c0-.7-.17-1.23-.5-1.62a1.7 1.7 0 0 0-1.37-.58c-.57 0-1.05.2-1.44.61-.4.4-.64.94-.74 1.6h4.05zm10.87-5.58a1.6 1.6 0 0 0-.8-.2c-.84 0-1.26.53-1.26 1.6V9.5h1.76v1.03h-1.76V17h-1.2v-6.47h-1.28V9.5h1.28V8.28c0-.78.23-1.4.69-1.86a2.3 2.3 0 0 1 1.7-.68c.36 0 .65.04.87.13v1.08zm1.6.65a.76.76 0 0 1-.78-.78c0-.23.08-.41.23-.56a.75.75 0 0 1 .55-.22.78.78 0 0 1 .8.78c0 .21-.09.4-.24.55a.77.77 0 0 1-.56.23zm.59 9.4h-1.2V9.5h1.2V17zm3.63 0h-1.2V5.9h1.2V17zm8.46-3.45h-5.3c.02.84.25 1.48.68 1.93.43.46 1.02.69 1.77.69.84 0 1.62-.28 2.33-.84v1.13c-.66.48-1.53.72-2.62.72-1.06 0-1.89-.34-2.5-1.03-.6-.68-.9-1.64-.9-2.87a4.1 4.1 0 0 1 1-2.85 3.18 3.18 0 0 1 2.46-1.1c.98 0 1.74.31 2.27.95.54.63.8 1.51.8 2.64v.63zm-1.23-1.02c0-.7-.17-1.23-.5-1.62a1.7 1.7 0 0 0-1.38-.58c-.56 0-1.04.2-1.44.61-.4.4-.64.94-.73 1.6h4.05zm2.6 4.2v-1.29c.65.48 1.37.73 2.15.73 1.06 0 1.58-.36 1.58-1.06 0-.2-.04-.37-.13-.5a1.35 1.35 0 0 0-.37-.38c-.15-.1-.33-.2-.54-.29l-.67-.27a8.63 8.63 0 0 1-.88-.4 2.64 2.64 0 0 1-.63-.45c-.16-.17-.3-.36-.38-.57a2.03 2.03 0 0 1-.12-.76c0-.35.08-.66.24-.93.16-.27.37-.5.64-.68a3 3 0 0 1 .92-.42 4.3 4.3 0 0 1 2.8.2l.01 1.22a3.4 3.4 0 0 0-2.51-.47c-.18.05-.34.13-.47.22a1 1 0 0 0-.3.33.88.88 0 0 0-.1.43c0 .2.03.36.1.49s.18.25.31.35c.14.1.3.2.5.28l.67.27c.33.13.63.26.9.4.26.13.48.28.67.45.18.17.32.36.42.58.1.22.15.48.15.78 0 .37-.08.7-.24.97-.16.27-.38.5-.66.68a3 3 0 0 1-.94.4c-.36.1-.73.14-1.12.14-.77 0-1.44-.15-2-.45z"/><g transform="translate(0 2)"><use fill="#FFFFFF" xlink:href="#b"/><rect width="19" height="19" x=".5" y=".5" stroke="#0C0C0D" stroke-opacity=".3"/></g></g><g transform="translate(114 30)"><use fill="#FFFFFF" xlink:href="#c"/><rect width="333" height="29" x=".5" y=".5" stroke="#0C0C0D" stroke-opacity=".3" rx="2"/><path fill="#0C0C0D" d="M38.03 20V9.5h2.9c3.7 0 5.55 1.7 5.55 5.12 0 1.62-.51 2.92-1.54 3.9A5.72 5.72 0 0 1 40.81 20h-2.78zm1.23-9.39v8.28h1.57c1.38 0 2.45-.37 3.21-1.1.77-.75 1.15-1.8 1.15-3.14 0-2.7-1.43-4.04-4.29-4.04h-1.64zm12.26 9.57c-1.1 0-2-.35-2.65-1.06a3.9 3.9 0 0 1-1-2.78c0-1.26.35-2.25 1.04-2.95a3.71 3.71 0 0 1 2.79-1.07c1.12 0 1.99.35 2.62 1.04.62.69.94 1.64.94 2.86 0 1.2-.34 2.16-1.02 2.88a3.55 3.55 0 0 1-2.72 1.08zm.09-6.85c-.77 0-1.38.27-1.83.8a3.23 3.23 0 0 0-.68 2.16c0 .9.23 1.6.69 2.1.45.52 1.06.78 1.82.78a2.2 2.2 0 0 0 1.79-.76c.42-.5.63-1.22.63-2.15 0-.93-.21-1.66-.63-2.16a2.19 2.19 0 0 0-1.8-.77zm15.01-.83L64.38 20h-1.25l-1.55-5.37a3.5 3.5 0 0 1-.11-.7h-.03c-.02.18-.07.4-.16.69L59.61 20h-1.2l-2.27-7.5h1.26l1.55 5.64c.05.17.08.4.1.67h.06c.01-.21.06-.44.13-.68l1.73-5.63h1.1l1.55 5.65c.05.18.09.41.11.68h.06c0-.2.05-.42.12-.68l1.53-5.65h1.18zm7.62 7.5h-1.2v-4.28c0-1.59-.58-2.39-1.74-2.39-.6 0-1.1.23-1.5.68-.39.45-.58 1.02-.58 1.71V20h-1.2v-7.5h1.2v1.25h.03a2.7 2.7 0 0 1 2.46-1.43c.82 0 1.44.27 1.88.8.43.53.65 1.3.65 2.3V20zm3.47 0h-1.2V8.9h1.2V20zm5.56.18c-1.1 0-2-.35-2.65-1.06a3.9 3.9 0 0 1-1-2.78c0-1.26.35-2.25 1.04-2.95a3.71 3.71 0 0 1 2.79-1.07c1.12 0 1.99.35 2.62 1.04.62.69.94 1.64.94 2.86 0 1.2-.34 2.16-1.02 2.88a3.55 3.55 0 0 1-2.72 1.08zm.09-6.85c-.77 0-1.38.27-1.83.8a3.23 3.23 0 0 0-.68 2.16c0 .9.23 1.6.69 2.1.45.52 1.06.78 1.82.78a2.2 2.2 0 0 0 1.8-.76c.4-.5.62-1.22.62-2.15 0-.93-.21-1.66-.63-2.16a2.19 2.19 0 0 0-1.79-.77zM94.29 20h-1.2v-1.17h-.03c-.52.9-1.29 1.35-2.3 1.35-.75 0-1.33-.2-1.76-.6-.42-.4-.63-.92-.63-1.57 0-1.4.82-2.22 2.48-2.45l2.24-.31c0-1.28-.51-1.92-1.54-1.92-.9 0-1.72.31-2.45.93v-1.23c.74-.47 1.59-.7 2.55-.7 1.76 0 2.64.93 2.64 2.8V20zm-1.2-3.8l-1.8.26c-.56.07-.98.21-1.27.4-.28.2-.42.56-.42 1.06 0 .37.13.67.4.9.25.23.6.35 1.04.35.6 0 1.08-.21 1.47-.63.39-.42.58-.95.58-1.59v-.74zm9.87 3.8h-1.2v-1.27h-.03a2.77 2.77 0 0 1-2.58 1.45 2.8 2.8 0 0 1-2.26-1.01 4.13 4.13 0 0 1-.84-2.74c0-1.24.3-2.24.93-2.99a3.1 3.1 0 0 1 2.5-1.12c1.03 0 1.78.4 2.25 1.22h.03V8.9h1.2V20zm-1.2-3.4v-1.1c0-.6-.2-1.12-.6-1.54-.4-.42-.91-.63-1.53-.63-.73 0-1.3.27-1.72.81a3.53 3.53 0 0 0-.63 2.23c0 .86.2 1.54.6 2.04.4.5.94.76 1.62.76.67 0 1.21-.25 1.63-.73.42-.48.63-1.1.63-1.83zm3.18 3.13v-1.29c.65.48 1.37.73 2.16.73 1.05 0 1.58-.36 1.58-1.06 0-.2-.05-.37-.14-.5a1.35 1.35 0 0 0-.36-.38c-.16-.1-.34-.2-.54-.29l-.67-.27a8.63 8.63 0 0 1-.88-.4 2.64 2.64 0 0 1-.63-.45c-.17-.17-.3-.36-.38-.57a2.03 2.03 0 0 1-.13-.76c0-.35.08-.66.24-.93.16-.27.38-.5.65-.68a3 3 0 0 1 .92-.42 4.3 4.3 0 0 1 2.8.2v1.22a3.4 3.4 0 0 0-2.5-.47c-.19.05-.34.13-.47.22a1 1 0 0 0-.3.33.88.88 0 0 0-.1.43c0 .2.03.36.1.49s.17.25.31.35c.14.1.3.2.5.28l.66.27c.34.13.63.26.9.4.26.13.49.28.67.45.19.17.33.36.43.58.1.22.15.48.15.78 0 .37-.08.7-.25.97-.16.27-.38.5-.65.68a3 3 0 0 1-.95.4c-.35.1-.73.14-1.12.14-.77 0-1.44-.15-2-.45z" opacity=".4"/><g transform="translate(10 9)"><polygon fill="#FCB912" points=".667 0 .667 12 15.333 12 15.333 .666 8.667 .666 8 0"/><polygon fill="#FAEE5C" points="8.667 1.333 8 2.667 1.333 2.667 1.333 11.333 14.667 11.333 14.667 1.333"/><polygon fill="#80D2EB" points="9.667 12.333 9.667 9 6.333 9 6.333 12.333 3.667 12.333 3.667 6.333 12.333 6.333 12.333 12.333"/><path fill="#00BFE7" d="M3.33 6v6.67h3.34V9.33h2.66v3.34h3.34V6H3.33zm.67.67h8V12h-2V8.67H6V12H4V6.67z"/></g></g><g transform="translate(456 30)"><use fill="#FFFFFF" xlink:href="#d"/><rect width="149" height="29" x=".5" y=".5" stroke="#0C0C0D" stroke-opacity=".3" rx="2"/><path fill="#0C0C0D" d="M53.87 19.56c-.78.41-1.75.62-2.9.62-1.5 0-2.7-.49-3.6-1.45a5.32 5.32 0 0 1-1.34-3.78c0-1.68.5-3.04 1.52-4.08a5.15 5.15 0 0 1 3.84-1.55c1 0 1.82.15 2.48.43v1.31a5.02 5.02 0 0 0-2.5-.63c-1.2 0-2.18.4-2.93 1.21a4.55 4.55 0 0 0-1.12 3.23c0 1.28.35 2.3 1.05 3.06.7.76 1.62 1.14 2.76 1.14 1.05 0 1.96-.23 2.74-.7v1.2zm8.2.44h-1.2v-4.32c0-1.56-.58-2.35-1.75-2.35a1.9 1.9 0 0 0-1.47.68c-.4.45-.6 1.03-.6 1.74V20h-1.2V8.9h1.2v4.85h.02a2.73 2.73 0 0 1 2.46-1.43c1.7 0 2.54 1.02 2.54 3.06V20zm5.4.18c-1.11 0-2-.35-2.66-1.06a3.9 3.9 0 0 1-.99-2.78c0-1.26.34-2.25 1.03-2.95a3.71 3.71 0 0 1 2.8-1.07c1.11 0 1.98.35 2.61 1.04.63.69.94 1.64.94 2.86 0 1.2-.34 2.16-1.01 2.88a3.55 3.55 0 0 1-2.72 1.08zm.08-6.85c-.77 0-1.38.27-1.83.8a3.23 3.23 0 0 0-.67 2.16c0 .9.23 1.6.68 2.1.46.52 1.06.78 1.82.78a2.2 2.2 0 0 0 1.8-.76c.41-.5.62-1.22.62-2.15 0-.93-.2-1.66-.62-2.16a2.19 2.19 0 0 0-1.8-.77zm8.7 6.85c-1.1 0-1.99-.35-2.65-1.06a3.9 3.9 0 0 1-1-2.78c0-1.26.35-2.25 1.04-2.95a3.71 3.71 0 0 1 2.8-1.07c1.11 0 1.98.35 2.61 1.04.63.69.94 1.64.94 2.86 0 1.2-.34 2.16-1.01 2.88a3.55 3.55 0 0 1-2.72 1.08zm.1-6.85c-.78 0-1.39.27-1.84.8a3.23 3.23 0 0 0-.67 2.16c0 .9.23 1.6.68 2.1.45.52 1.06.78 1.82.78a2.2 2.2 0 0 0 1.8-.76c.41-.5.62-1.22.62-2.15 0-.93-.2-1.66-.63-2.16a2.19 2.19 0 0 0-1.79-.77zm5.1 6.4v-1.29c.66.48 1.38.73 2.17.73 1.05 0 1.58-.36 1.58-1.06 0-.2-.05-.37-.14-.5a1.35 1.35 0 0 0-.36-.38c-.16-.1-.34-.2-.54-.29l-.67-.27a8.63 8.63 0 0 1-.88-.4 2.64 2.64 0 0 1-.63-.45c-.17-.17-.3-.36-.38-.57a2.03 2.03 0 0 1-.13-.76c0-.35.08-.66.24-.93.16-.27.38-.5.65-.68a3 3 0 0 1 .92-.42 4.3 4.3 0 0 1 2.8.2v1.22a3.4 3.4 0 0 0-2.5-.47c-.19.05-.34.13-.47.22a1 1 0 0 0-.3.33.88.88 0 0 0-.1.43c0 .2.03.36.1.49s.17.25.3.35c.15.1.31.2.5.28l.67.27c.34.13.63.26.9.4.26.13.49.28.67.45.19.17.33.36.43.58.1.22.15.48.15.78 0 .37-.08.7-.25.97-.16.27-.38.5-.65.68a3 3 0 0 1-.95.4c-.35.1-.73.14-1.12.14-.77 0-1.44-.15-2-.45zm12.85-3.18H89c.03.84.25 1.48.68 1.93.43.46 1.02.69 1.77.69.85 0 1.62-.28 2.33-.84v1.13c-.66.48-1.53.72-2.61.72-1.06 0-1.9-.34-2.5-1.03-.6-.68-.9-1.64-.9-2.87a4.1 4.1 0 0 1 .98-2.85 3.18 3.18 0 0 1 2.47-1.1c.98 0 1.74.31 2.28.95.53.63.8 1.51.8 2.64v.63zm-1.23-1.02c0-.7-.17-1.23-.5-1.62a1.7 1.7 0 0 0-1.37-.58c-.57 0-1.05.2-1.45.61-.4.4-.64.94-.73 1.6h4.05zm3.47 4.63a.78.78 0 0 1-.58-.24.8.8 0 0 1-.24-.58.8.8 0 0 1 .24-.58.77.77 0 0 1 .58-.25.8.8 0 0 1 .58.25.8.8 0 0 1 .24.58c0 .23-.08.42-.24.58a.8.8 0 0 1-.58.24zm3.25 0a.78.78 0 0 1-.58-.24.8.8 0 0 1-.23-.58.8.8 0 0 1 .23-.58.77.77 0 0 1 .58-.25.8.8 0 0 1 .58.25.8.8 0 0 1 .25.58c0 .23-.08.42-.25.58a.8.8 0 0 1-.58.24zm3.25 0a.78.78 0 0 1-.57-.24.8.8 0 0 1-.24-.58.8.8 0 0 1 .24-.58.77.77 0 0 1 .57-.25.8.8 0 0 1 .59.25.8.8 0 0 1 .24.58c0 .23-.08.42-.24.58a.8.8 0 0 1-.59.24z"/></g></g></g><g transform="translate(114 215)"><path fill="#0C0C0D" d="M8.53 50.56c-.78.41-1.75.62-2.9.62-1.5 0-2.7-.49-3.6-1.45A5.32 5.32 0 0 1 .7 45.95c0-1.68.5-3.04 1.51-4.08a5.15 5.15 0 0 1 3.85-1.55c1 0 1.82.15 2.48.43v1.31a5.02 5.02 0 0 0-2.5-.63c-1.2 0-2.18.4-2.93 1.21a4.55 4.55 0 0 0-1.12 3.23c0 1.28.35 2.3 1.05 3.06.7.76 1.62 1.14 2.76 1.14 1.05 0 1.96-.23 2.74-.7v1.2zm8.2.44h-1.2v-4.32c0-1.56-.58-2.35-1.75-2.35a1.9 1.9 0 0 0-1.48.68c-.4.45-.6 1.03-.6 1.74V51h-1.2V39.9h1.2v4.85h.03a2.73 2.73 0 0 1 2.46-1.43c1.7 0 2.54 1.02 2.54 3.06V51zm5.4.18c-1.11 0-2-.35-2.66-1.06a3.9 3.9 0 0 1-1-2.78c0-1.26.35-2.25 1.04-2.95a3.71 3.71 0 0 1 2.8-1.07c1.11 0 1.98.35 2.61 1.04.63.69.94 1.64.94 2.86 0 1.2-.34 2.16-1.01 2.88a3.55 3.55 0 0 1-2.72 1.08zm.08-6.85c-.77 0-1.38.27-1.83.8a3.23 3.23 0 0 0-.67 2.16c0 .9.23 1.6.68 2.1.45.52 1.06.78 1.82.78a2.2 2.2 0 0 0 1.8-.76c.41-.5.62-1.22.62-2.15 0-.93-.2-1.66-.62-2.16a2.19 2.19 0 0 0-1.8-.77zm8.7 6.85c-1.1 0-1.99-.35-2.65-1.06a3.9 3.9 0 0 1-1-2.78c0-1.26.35-2.25 1.04-2.95a3.71 3.71 0 0 1 2.8-1.07c1.1 0 1.98.35 2.61 1.04.63.69.94 1.64.94 2.86 0 1.2-.34 2.16-1.01 2.88a3.55 3.55 0 0 1-2.72 1.08zm.1-6.85c-.78 0-1.39.27-1.84.8a3.23 3.23 0 0 0-.67 2.16c0 .9.23 1.6.68 2.1.45.52 1.06.78 1.82.78a2.2 2.2 0 0 0 1.8-.76c.41-.5.62-1.22.62-2.15 0-.93-.2-1.66-.63-2.16a2.19 2.19 0 0 0-1.79-.77zm5.1 6.4v-1.29c.66.48 1.38.73 2.17.73 1.05 0 1.58-.36 1.58-1.06 0-.2-.05-.37-.14-.5a1.35 1.35 0 0 0-.36-.38c-.16-.1-.34-.2-.55-.29l-.67-.27a8.63 8.63 0 0 1-.87-.4 2.64 2.64 0 0 1-.63-.45c-.17-.17-.3-.36-.38-.57a2.03 2.03 0 0 1-.13-.76c0-.35.08-.66.24-.93.16-.27.38-.5.65-.68a3 3 0 0 1 .92-.42 4.3 4.3 0 0 1 2.8.2v1.22a3.4 3.4 0 0 0-2.5-.47c-.19.05-.34.13-.47.22a1 1 0 0 0-.3.33.88.88 0 0 0-.1.43c0 .2.03.36.1.49s.17.25.3.35c.15.1.31.2.5.28l.67.27c.33.13.63.26.9.4.26.13.48.28.67.45.19.17.33.36.43.58.1.22.15.48.15.78 0 .37-.08.7-.25.97-.16.27-.38.5-.65.68a3 3 0 0 1-.95.4c-.35.1-.73.14-1.12.14-.77 0-1.44-.15-2-.45zm12.85-3.18h-5.3c.03.84.25 1.48.68 1.93.43.46 1.02.69 1.77.69.85 0 1.62-.28 2.33-.84v1.13c-.66.48-1.53.72-2.61.72-1.06 0-1.9-.34-2.5-1.03-.6-.68-.9-1.64-.9-2.87a4.1 4.1 0 0 1 .98-2.85 3.18 3.18 0 0 1 2.47-1.1c.98 0 1.74.31 2.28.95.53.63.8 1.51.8 2.64v.63zm-1.23-1.02c0-.7-.17-1.23-.5-1.62a1.7 1.7 0 0 0-1.37-.58c-.57 0-1.05.2-1.45.61-.4.4-.64.94-.73 1.6h4.05zM61.11 51h-1.2v-4.32c0-1.56-.58-2.35-1.74-2.35a1.9 1.9 0 0 0-1.48.68c-.4.45-.6 1.03-.6 1.74V51h-1.2V39.9h1.2v4.85h.03a2.73 2.73 0 0 1 2.46-1.43c1.69 0 2.53 1.02 2.53 3.06V51zm5.4.18c-1.1 0-2-.35-2.65-1.06a3.9 3.9 0 0 1-1-2.78c0-1.26.35-2.25 1.04-2.95a3.71 3.71 0 0 1 2.79-1.07c1.12 0 1.99.35 2.62 1.04.62.69.94 1.64.94 2.86 0 1.2-.34 2.16-1.02 2.88a3.55 3.55 0 0 1-2.72 1.08zm.09-6.85c-.77 0-1.38.27-1.83.8a3.23 3.23 0 0 0-.68 2.16c0 .9.23 1.6.69 2.1.45.52 1.06.78 1.82.78a2.2 2.2 0 0 0 1.79-.76c.42-.5.63-1.22.63-2.15 0-.93-.21-1.66-.63-2.16a2.19 2.19 0 0 0-1.8-.77zm15.01-.83L79.37 51h-1.25l-1.55-5.37a3.5 3.5 0 0 1-.11-.7h-.03c-.02.18-.07.4-.16.69L74.6 51h-1.2l-2.27-7.5h1.26l1.55 5.64c.05.17.08.4.1.67h.06c.01-.21.06-.44.13-.69l1.73-5.62h1.1l1.55 5.65c.05.18.09.41.11.68h.06c0-.2.05-.42.12-.68l1.53-5.65h1.18zm11-1.89h-4.1v3.63h3.79v1.1h-3.8V51h-1.22V40.5h5.33v1.11zm2.44-.01a.76.76 0 0 1-.77-.78.75.75 0 0 1 .78-.78.78.78 0 0 1 .78.78c0 .21-.07.4-.23.55a.77.77 0 0 1-.56.23zm.59 9.4h-1.2v-7.5h1.2V51zm6.34-6.28a1.47 1.47 0 0 0-.9-.25c-.52 0-.95.25-1.3.73a3.35 3.35 0 0 0-.5 1.98V51h-1.2v-7.5h1.2v1.55h.02c.17-.53.43-.94.79-1.24.35-.3.74-.44 1.17-.44.32 0 .56.03.72.1v1.25zm7.33 2.83h-5.3c.03.84.25 1.48.68 1.93.43.46 1.02.69 1.77.69.85 0 1.63-.28 2.33-.84v1.13c-.66.48-1.53.72-2.61.72-1.06 0-1.9-.34-2.5-1.03-.6-.68-.9-1.64-.9-2.87a4.1 4.1 0 0 1 .99-2.85 3.18 3.18 0 0 1 2.46-1.1c.98 0 1.74.31 2.28.95.54.63.8 1.51.8 2.64v.63zm-1.23-1.02c0-.7-.17-1.23-.5-1.62a1.7 1.7 0 0 0-1.37-.58c-.57 0-1.05.2-1.44.61-.4.4-.64.94-.74 1.6h4.05zm6.76-5.58a1.6 1.6 0 0 0-.8-.2c-.84 0-1.26.53-1.26 1.6v1.15h1.76v1.03h-1.76V51h-1.2v-6.47h-1.28V43.5h1.28v-1.22c0-.78.23-1.4.69-1.86a2.3 2.3 0 0 1 1.7-.68c.36 0 .65.04.87.13v1.08zm4.12 10.23c-1.1 0-2-.35-2.66-1.06a3.9 3.9 0 0 1-.99-2.78c0-1.26.35-2.25 1.04-2.95a3.71 3.71 0 0 1 2.79-1.07c1.11 0 1.99.35 2.61 1.04.63.69.95 1.64.95 2.86 0 1.2-.34 2.16-1.02 2.88a3.55 3.55 0 0 1-2.72 1.08zm.09-6.85c-.77 0-1.38.27-1.83.8a3.23 3.23 0 0 0-.68 2.16c0 .9.23 1.6.68 2.1.46.52 1.07.78 1.83.78a2.2 2.2 0 0 0 1.79-.76c.42-.5.62-1.22.62-2.15 0-.93-.2-1.66-.62-2.16a2.19 2.19 0 0 0-1.8-.77zm11.04-.83l-2.52 3.8 2.48 3.7h-1.4l-1.47-2.43c-.1-.15-.2-.34-.33-.57h-.03l-.35.57-1.5 2.43h-1.38l2.56-3.68-2.45-3.82h1.4l1.45 2.56.31.59h.03l1.88-3.15h1.32zm11.74 7.5h-1.2v-4.32c0-1.56-.58-2.35-1.74-2.35a1.9 1.9 0 0 0-1.48.68c-.4.45-.6 1.03-.6 1.74V51h-1.2V39.9h1.2v4.85h.03a2.73 2.73 0 0 1 2.46-1.43c1.69 0 2.53 1.02 2.53 3.06V51zm7.64 0h-1.2v-1.17h-.04c-.52.9-1.29 1.35-2.3 1.35-.75 0-1.33-.2-1.76-.6-.42-.4-.63-.92-.63-1.57 0-1.4.83-2.22 2.48-2.45l2.24-.31c0-1.28-.51-1.92-1.54-1.92-.9 0-1.72.31-2.45.93v-1.23c.74-.47 1.59-.7 2.55-.7 1.76 0 2.65.93 2.65 2.8V51zm-1.2-3.8l-1.81.26c-.56.07-.98.21-1.26.4-.29.2-.43.56-.43 1.06 0 .37.13.67.4.9.25.23.6.35 1.04.35.6 0 1.08-.21 1.47-.63.39-.42.58-.95.58-1.59v-.74zm9.68 3.8h-1.2v-4.28c0-1.59-.58-2.39-1.74-2.39-.6 0-1.1.23-1.5.68-.38.45-.58 1.02-.58 1.71V51h-1.2v-7.5h1.2v1.25h.03a2.7 2.7 0 0 1 2.46-1.43c.82 0 1.45.27 1.88.8.44.53.65 1.3.65 2.3V51zm8.67 0h-1.2v-1.27h-.03a2.77 2.77 0 0 1-2.58 1.45 2.8 2.8 0 0 1-2.26-1.01 4.13 4.13 0 0 1-.85-2.74c0-1.24.32-2.24.94-2.99a3.1 3.1 0 0 1 2.5-1.12c1.03 0 1.78.4 2.25 1.22h.03V39.9h1.2V51zm-1.2-3.4v-1.1c0-.6-.2-1.12-.6-1.54-.4-.42-.91-.63-1.53-.63-.73 0-1.3.27-1.73.81a3.53 3.53 0 0 0-.62 2.23c0 .86.2 1.54.6 2.04.4.5.94.76 1.62.76.67 0 1.21-.25 1.63-.73.42-.48.63-1.1.63-1.83zm4.83 3.4h-1.2V39.9h1.2V51zm8.46-3.45h-5.3c.03.84.25 1.48.68 1.93.43.46 1.02.69 1.77.69.85 0 1.62-.28 2.33-.84v1.13c-.66.48-1.53.72-2.61.72-1.06 0-1.9-.34-2.5-1.03-.6-.68-.91-1.64-.91-2.87a4.1 4.1 0 0 1 1-2.85 3.18 3.18 0 0 1 2.46-1.1c.98 0 1.74.31 2.28.95.53.63.8 1.51.8 2.64v.63zm-1.23-1.02c0-.7-.17-1.23-.5-1.62a1.7 1.7 0 0 0-1.37-.58c-.57 0-1.05.2-1.45.61-.4.4-.64.94-.73 1.6h4.05zm2.6 4.2v-1.29c.65.48 1.37.73 2.15.73 1.06 0 1.59-.36 1.59-1.06 0-.2-.05-.37-.14-.5a1.35 1.35 0 0 0-.37-.38c-.15-.1-.33-.2-.54-.29l-.67-.27a8.63 8.63 0 0 1-.87-.4 2.64 2.64 0 0 1-.63-.45c-.17-.17-.3-.36-.38-.57a2.03 2.03 0 0 1-.13-.76c0-.35.08-.66.24-.93.16-.27.38-.5.64-.68a3 3 0 0 1 .92-.42 4.3 4.3 0 0 1 2.8.2l.01 1.22a3.4 3.4 0 0 0-2.51-.47c-.18.05-.34.13-.47.22a1 1 0 0 0-.3.33.88.88 0 0 0-.1.43c0 .2.03.36.1.49.08.13.18.25.32.35.13.1.3.2.5.28l.66.27c.33.13.63.26.9.4.26.13.48.28.67.45.18.17.33.36.43.58.1.22.15.48.15.78 0 .37-.09.7-.25.97s-.38.5-.65.68a3 3 0 0 1-.95.4c-.36.1-.73.14-1.12.14-.77 0-1.44-.15-2-.45zm14.4.2c-.28.15-.66.23-1.12.23-1.31 0-1.97-.73-1.97-2.2v-4.43h-1.29V43.5h1.29v-1.83l1.2-.39v2.22h1.89v1.03h-1.89v4.22c0 .5.09.86.26 1.08.17.21.45.32.85.32.3 0 .56-.08.78-.25v1.03zm7.83.07h-1.2v-4.32c0-1.56-.58-2.35-1.74-2.35a1.9 1.9 0 0 0-1.48.68c-.4.45-.6 1.03-.6 1.74V51h-1.2V39.9h1.2v4.85h.02a2.73 2.73 0 0 1 2.47-1.43c1.68 0 2.53 1.02 2.53 3.06V51zm8.3-3.45h-5.3c.01.84.24 1.48.67 1.93.43.46 1.02.69 1.77.69.85 0 1.62-.28 2.33-.84v1.13c-.66.48-1.53.72-2.61.72-1.06 0-1.9-.34-2.5-1.03-.6-.68-.91-1.64-.91-2.87a4.1 4.1 0 0 1 1-2.85 3.18 3.18 0 0 1 2.46-1.1c.98 0 1.74.31 2.27.95.54.63.81 1.51.81 2.64v.63zm-1.24-1.02c0-.7-.17-1.23-.5-1.62a1.7 1.7 0 0 0-1.37-.58c-.57 0-1.05.2-1.45.61-.4.4-.64.94-.73 1.6h4.05zm10.86-5.58a1.6 1.6 0 0 0-.8-.2c-.84 0-1.26.53-1.26 1.6v1.15h1.76v1.03h-1.76V51h-1.19v-6.47h-1.28V43.5h1.28v-1.22c0-.78.23-1.4.68-1.86a2.3 2.3 0 0 1 1.7-.68c.37 0 .66.04.87.13v1.08zm1.6.65a.76.76 0 0 1-.77-.78c0-.23.08-.41.23-.56a.75.75 0 0 1 .55-.22.78.78 0 0 1 .79.78c0 .21-.08.4-.23.55a.77.77 0 0 1-.56.23zm.6 9.4h-1.2v-7.5h1.2V51zm3.62 0h-1.2V39.9h1.2V51zm8.46-3.45h-5.3c.03.84.25 1.48.68 1.93.43.46 1.02.69 1.78.69.84 0 1.62-.28 2.32-.84v1.13c-.66.48-1.53.72-2.61.72-1.06 0-1.9-.34-2.5-1.03-.6-.68-.9-1.64-.9-2.87a4.1 4.1 0 0 1 .99-2.85 3.18 3.18 0 0 1 2.46-1.1c.98 0 1.74.31 2.28.95.54.63.8 1.51.8 2.64v.63zm-1.23-1.02c0-.7-.17-1.23-.5-1.62a1.7 1.7 0 0 0-1.37-.58c-.57 0-1.05.2-1.44.61-.4.4-.64.94-.74 1.6h4.05zm2.6 4.2v-1.29c.65.48 1.37.73 2.16.73 1.05 0 1.58-.36 1.58-1.06 0-.2-.05-.37-.14-.5a1.35 1.35 0 0 0-.36-.38c-.16-.1-.34-.2-.54-.29l-.67-.27a8.63 8.63 0 0 1-.88-.4 2.64 2.64 0 0 1-.63-.45c-.17-.17-.3-.36-.38-.57a2.03 2.03 0 0 1-.13-.76c0-.35.08-.66.24-.93.16-.27.38-.5.65-.68a3 3 0 0 1 .92-.42 4.3 4.3 0 0 1 2.8.2v1.22a3.4 3.4 0 0 0-2.5-.47c-.19.05-.34.13-.47.22a1 1 0 0 0-.3.33.88.88 0 0 0-.1.43c0 .2.03.36.1.49s.17.25.3.35c.15.1.31.2.5.28l.67.27c.34.13.63.26.9.4.26.13.49.28.67.45.19.17.33.36.43.58.1.22.15.48.15.78 0 .37-.08.7-.25.97-.16.27-.38.5-.65.68a3 3 0 0 1-.95.4c-.35.1-.73.14-1.12.14-.77 0-1.44-.15-2-.45zm16.9-7.23l-3.46 8.7c-.61 1.55-1.48 2.33-2.59 2.33-.31 0-.57-.03-.78-.1v-1.07c.26.09.5.13.7.13.61 0 1.07-.36 1.37-1.08l.6-1.42-2.93-7.49h1.33l2.03 5.77.16.57h.04c.02-.11.07-.3.15-.55l2.13-5.79h1.24zm4.42 7.68c-1.11 0-2-.35-2.66-1.06a3.9 3.9 0 0 1-.99-2.78c0-1.26.34-2.25 1.03-2.95a3.71 3.71 0 0 1 2.8-1.07c1.11 0 1.98.35 2.61 1.04.63.69.94 1.64.94 2.86 0 1.2-.34 2.16-1.01 2.88a3.55 3.55 0 0 1-2.72 1.08zm.09-6.85c-.78 0-1.39.27-1.84.8a3.23 3.23 0 0 0-.67 2.16c0 .9.23 1.6.68 2.1.46.52 1.06.78 1.83.78a2.2 2.2 0 0 0 1.79-.76c.41-.5.62-1.22.62-2.15 0-.93-.2-1.66-.62-2.16a2.19 2.19 0 0 0-1.8-.77zM268.92 51h-1.2v-1.19h-.03c-.5.91-1.27 1.37-2.32 1.37-1.79 0-2.68-1.07-2.68-3.2V43.5h1.2v4.3c0 1.57.6 2.37 1.81 2.37.59 0 1.07-.22 1.45-.65.38-.44.56-1 .56-1.7V43.5h1.2V51zm12.93 0h-1.2v-1.27h-.03a2.77 2.77 0 0 1-2.58 1.45 2.8 2.8 0 0 1-2.26-1.01 4.13 4.13 0 0 1-.84-2.74c0-1.24.3-2.24.93-2.99a3.1 3.1 0 0 1 2.5-1.12c1.03 0 1.78.4 2.25 1.22h.03V39.9h1.2V51zm-1.2-3.4v-1.1c0-.6-.2-1.12-.6-1.54-.4-.42-.9-.63-1.52-.63-.74 0-1.31.27-1.73.81a3.53 3.53 0 0 0-.63 2.23c0 .86.2 1.54.6 2.04.4.5.94.76 1.62.76.67 0 1.22-.25 1.63-.73.42-.48.63-1.1.63-1.83zm6.77 3.58c-1.11 0-2-.35-2.66-1.06a3.9 3.9 0 0 1-.99-2.78c0-1.26.34-2.25 1.03-2.95a3.71 3.71 0 0 1 2.8-1.07c1.11 0 1.98.35 2.61 1.04.63.69.94 1.64.94 2.86 0 1.2-.34 2.16-1.01 2.88a3.55 3.55 0 0 1-2.72 1.08zm.08-6.85c-.77 0-1.38.27-1.83.8a3.23 3.23 0 0 0-.67 2.16c0 .9.23 1.6.68 2.1.46.52 1.06.78 1.82.78a2.2 2.2 0 0 0 1.8-.76c.41-.5.62-1.22.62-2.15 0-.93-.2-1.66-.62-2.16a2.19 2.19 0 0 0-1.8-.77zm15.02-.83l-2.25 7.5h-1.24l-1.55-5.37a3.5 3.5 0 0 1-.12-.7h-.03c-.01.18-.06.4-.15.69L295.5 51h-1.2l-2.27-7.5h1.26l1.55 5.64c.05.17.09.4.1.67h.06c.02-.21.06-.44.14-.69l1.73-5.62h1.1l1.55 5.65c.05.18.08.41.1.68h.07c0-.2.05-.42.12-.68l1.52-5.65h1.19zm7.62 7.5h-1.2v-4.28c0-1.59-.59-2.39-1.75-2.39-.6 0-1.1.23-1.49.68-.4.45-.59 1.02-.59 1.71V51h-1.2v-7.5h1.2v1.25h.03a2.7 2.7 0 0 1 2.46-1.43c.82 0 1.45.27 1.88.8.44.53.66 1.3.66 2.3V51zm3.46 0h-1.2V39.9h1.2V51zm5.57.18c-1.11 0-2-.35-2.66-1.06a3.9 3.9 0 0 1-.99-2.78c0-1.26.34-2.25 1.03-2.95a3.71 3.71 0 0 1 2.8-1.07c1.11 0 1.98.35 2.61 1.04.63.69.94 1.64.94 2.86 0 1.2-.34 2.16-1.01 2.88a3.55 3.55 0 0 1-2.72 1.08zm.09-6.85c-.78 0-1.39.27-1.84.8a3.23 3.23 0 0 0-.67 2.16c0 .9.23 1.6.68 2.1.46.52 1.06.78 1.83.78a2.2 2.2 0 0 0 1.79-.76c.41-.5.62-1.22.62-2.15 0-.93-.2-1.66-.62-2.16a2.19 2.19 0 0 0-1.8-.77zM330.19 51h-1.2v-1.17h-.03c-.52.9-1.3 1.35-2.3 1.35-.75 0-1.34-.2-1.76-.6-.42-.4-.63-.92-.63-1.57 0-1.4.82-2.22 2.47-2.45l2.25-.31c0-1.28-.52-1.92-1.55-1.92-.9 0-1.71.31-2.44.93v-1.23c.73-.47 1.58-.7 2.55-.7 1.76 0 2.64.93 2.64 2.8V51zm-1.2-3.8l-1.81.26c-.56.07-.98.21-1.26.4-.28.2-.42.56-.42 1.06 0 .37.13.67.39.9.26.23.6.35 1.04.35.6 0 1.09-.21 1.48-.63.39-.42.58-.95.58-1.59v-.74zm9.86 3.8h-1.2v-1.27h-.03a2.77 2.77 0 0 1-2.57 1.45 2.8 2.8 0 0 1-2.26-1.01 4.13 4.13 0 0 1-.85-2.74c0-1.24.31-2.24.94-2.99a3.1 3.1 0 0 1 2.5-1.12c1.03 0 1.78.4 2.24 1.22h.03V39.9h1.2V51zm-1.2-3.4v-1.1c0-.6-.2-1.12-.6-1.54-.4-.42-.9-.63-1.52-.63-.73 0-1.3.27-1.73.81a3.53 3.53 0 0 0-.63 2.23c0 .86.2 1.54.6 2.04.4.5.95.76 1.63.76.67 0 1.21-.25 1.63-.73.42-.48.62-1.1.62-1.83zm11.45-6.65a1.6 1.6 0 0 0-.8-.2c-.84 0-1.26.53-1.26 1.6v1.15h1.76v1.03h-1.76V51h-1.19v-6.47h-1.28V43.5h1.28v-1.22c0-.78.23-1.4.68-1.86a2.3 2.3 0 0 1 1.7-.68c.37 0 .66.04.87.13v1.08zm4.9 3.77a1.47 1.47 0 0 0-.9-.25c-.52 0-.95.25-1.3.73a3.35 3.35 0 0 0-.5 1.98V51h-1.21v-7.5h1.2v1.55h.03c.17-.53.43-.94.78-1.24.36-.3.75-.44 1.18-.44.32 0 .56.03.72.1v1.25zm4.44 6.46c-1.1 0-2-.35-2.66-1.06a3.9 3.9 0 0 1-.99-2.78c0-1.26.35-2.25 1.04-2.95a3.71 3.71 0 0 1 2.79-1.07c1.11 0 1.99.35 2.61 1.04.63.69.95 1.64.95 2.86 0 1.2-.34 2.16-1.02 2.88a3.55 3.55 0 0 1-2.72 1.08zm.09-6.85c-.77 0-1.38.27-1.83.8a3.23 3.23 0 0 0-.68 2.16c0 .9.23 1.6.68 2.1.46.52 1.07.78 1.83.78a2.2 2.2 0 0 0 1.79-.76c.42-.5.62-1.22.62-2.15 0-.93-.2-1.66-.62-2.16a2.19 2.19 0 0 0-1.8-.77zM374.74 51h-1.2v-4.3c0-.84-.13-1.44-.38-1.8-.26-.38-.69-.57-1.3-.57-.5 0-.94.24-1.3.7a2.69 2.69 0 0 0-.54 1.7V51h-1.2v-4.45c0-1.48-.57-2.22-1.7-2.22-.54 0-.97.23-1.31.67a2.74 2.74 0 0 0-.51 1.72V51h-1.2v-7.5h1.2v1.19h.02c.54-.91 1.31-1.37 2.33-1.37a2.17 2.17 0 0 1 2.13 1.56 2.68 2.68 0 0 1 2.49-1.56c1.65 0 2.47 1.02 2.47 3.06V51zm9.86-.07c-.28.15-.65.23-1.12.23-1.31 0-1.97-.73-1.97-2.2v-4.43h-1.29V43.5h1.3v-1.83l1.2-.39v2.22h1.88v1.03h-1.89v4.22c0 .5.09.86.26 1.08.17.21.45.32.85.32.3 0 .56-.08.78-.25v1.03zm7.83.07h-1.2v-4.32c0-1.56-.58-2.35-1.74-2.35a1.9 1.9 0 0 0-1.48.68c-.4.45-.6 1.03-.6 1.74V51h-1.2V39.9h1.2v4.85h.03a2.73 2.73 0 0 1 2.46-1.43c1.69 0 2.53 1.02 2.53 3.06V51zm8.3-3.45h-5.3c.02.84.24 1.48.67 1.93.43.46 1.02.69 1.77.69.85 0 1.62-.28 2.33-.84v1.13c-.66.48-1.53.72-2.61.72-1.06 0-1.9-.34-2.5-1.03-.6-.68-.9-1.64-.9-2.87a4.1 4.1 0 0 1 .98-2.85 3.18 3.18 0 0 1 2.47-1.1c.98 0 1.74.31 2.28.95.53.63.8 1.51.8 2.64v.63zm-1.24-1.02c0-.7-.17-1.23-.5-1.62a1.7 1.7 0 0 0-1.37-.58c-.57 0-1.05.2-1.45.61-.4.4-.64.94-.73 1.6h4.05zm16.6-3.03l-2.24 7.5h-1.25l-1.54-5.37a3.5 3.5 0 0 1-.12-.7h-.03c-.01.18-.07.4-.15.69L409.08 51h-1.2l-2.27-7.5h1.26l1.55 5.64c.05.17.08.4.1.67h.06c.02-.21.06-.44.13-.69l1.73-5.62h1.1l1.55 5.65c.05.18.09.41.11.68h.06c.01-.2.05-.42.13-.68l1.52-5.65h1.19zm7.43 4.05h-5.3c.02.84.24 1.48.67 1.93.43.46 1.02.69 1.78.69.84 0 1.62-.28 2.33-.84v1.13c-.66.48-1.54.72-2.62.72-1.06 0-1.9-.34-2.5-1.03-.6-.68-.9-1.64-.9-2.87a4.1 4.1 0 0 1 .99-2.85 3.18 3.18 0 0 1 2.46-1.1c.98 0 1.74.31 2.28.95.54.63.8 1.51.8 2.64v.63zm-1.23-1.02c-.01-.7-.18-1.23-.5-1.62a1.7 1.7 0 0 0-1.38-.58c-.57 0-1.05.2-1.44.61-.4.4-.64.94-.74 1.6h4.06zm4.27 3.39h-.03V51h-1.2V39.9h1.2v4.92h.03c.6-1 1.46-1.5 2.6-1.5.96 0 1.71.34 2.25 1.01.55.67.82 1.57.82 2.7 0 1.26-.3 2.26-.91 3.01a3.05 3.05 0 0 1-2.5 1.14c-1 0-1.75-.42-2.26-1.26zm-.03-3.03v1.05c0 .62.2 1.14.6 1.58a2 2 0 0 0 1.54.65c.73 0 1.3-.28 1.71-.84.41-.56.62-1.33.62-2.32 0-.84-.2-1.5-.58-1.96-.38-.48-.9-.72-1.57-.72-.7 0-1.25.25-1.68.73-.42.49-.64 1.1-.64 1.83zm14.86 4.29c-1.1 0-1.99-.35-2.65-1.06a3.9 3.9 0 0 1-1-2.78c0-1.26.35-2.25 1.04-2.95a3.71 3.71 0 0 1 2.79-1.07c1.12 0 2 .35 2.62 1.04.63.69.94 1.64.94 2.86 0 1.2-.34 2.16-1.02 2.88a3.55 3.55 0 0 1-2.72 1.08zm.1-6.85c-.78 0-1.39.27-1.84.8a3.23 3.23 0 0 0-.67 2.16c0 .9.22 1.6.68 2.1.45.52 1.06.78 1.82.78a2.2 2.2 0 0 0 1.8-.76c.41-.5.62-1.22.62-2.15 0-.93-.21-1.66-.63-2.16a2.19 2.19 0 0 0-1.79-.77zm9.47.39a1.47 1.47 0 0 0-.9-.25c-.52 0-.95.25-1.3.73a3.35 3.35 0 0 0-.51 1.98V51h-1.2v-7.5h1.2v1.55h.03c.17-.53.43-.94.78-1.24.35-.3.75-.44 1.18-.44.31 0 .55.03.72.1v1.25zm8.9 6.2c-.3.16-.67.24-1.13.24-1.31 0-1.97-.73-1.97-2.2v-4.43h-1.29V43.5h1.29v-1.83l1.2-.39v2.22h1.9v1.03h-1.9v4.22c0 .5.09.86.26 1.08.17.21.45.32.85.32.3 0 .56-.08.78-.25v1.03zm7.82.08h-1.2v-4.32c0-1.56-.58-2.35-1.74-2.35a1.9 1.9 0 0 0-1.48.68c-.4.45-.6 1.03-.6 1.74V51h-1.2V39.9h1.2v4.85h.03a2.73 2.73 0 0 1 2.46-1.43c1.69 0 2.53 1.02 2.53 3.06V51zm8.3-3.45h-5.3c.02.84.24 1.48.67 1.93.43.46 1.02.69 1.77.69.85 0 1.62-.28 2.33-.84v1.13c-.66.48-1.53.72-2.61.72-1.06 0-1.9-.34-2.5-1.03-.6-.68-.9-1.64-.9-2.87a4.1 4.1 0 0 1 .98-2.85 3.18 3.18 0 0 1 2.47-1.1c.98 0 1.74.31 2.28.95.53.63.8 1.51.8 2.64v.63zm-1.24-1.02c0-.7-.17-1.23-.5-1.62a1.7 1.7 0 0 0-1.37-.58c-.57 0-1.05.2-1.45.61-.4.4-.64.94-.73 1.6h4.05zM487.27 51h-1.2v-1.17h-.03c-.53.9-1.3 1.35-2.31 1.35-.75 0-1.33-.2-1.76-.6-.42-.4-.63-.92-.63-1.57 0-1.4.83-2.22 2.48-2.45l2.24-.31c0-1.28-.51-1.92-1.54-1.92-.9 0-1.72.31-2.45.93v-1.23c.74-.47 1.59-.7 2.55-.7 1.76 0 2.65.93 2.65 2.8V51zm-1.2-3.8l-1.81.26c-.56.07-.98.21-1.26.4-.29.2-.43.56-.43 1.06 0 .37.13.67.4.9.25.23.6.35 1.04.35.6 0 1.08-.21 1.47-.63.39-.42.58-.95.58-1.59v-.74zm4.69 2.72h-.03v4.53h-1.2V43.5h1.2v1.32h.03c.59-1 1.45-1.5 2.6-1.5.96 0 1.71.34 2.26 1.01.54.67.8 1.57.8 2.7 0 1.26-.3 2.26-.9 3.01a3.05 3.05 0 0 1-2.51 1.14 2.5 2.5 0 0 1-2.25-1.26zm-.03-3.03v1.05c0 .62.2 1.14.6 1.58a2 2 0 0 0 1.54.65c.73 0 1.3-.28 1.7-.84.42-.56.63-1.33.63-2.32 0-.84-.2-1.5-.58-1.96-.39-.48-.9-.72-1.57-.72-.7 0-1.26.25-1.68.73-.43.49-.64 1.1-.64 1.83zm8.85 3.03h-.03v4.53h-1.2V43.5h1.2v1.32h.03c.59-1 1.45-1.5 2.59-1.5.97 0 1.72.34 2.26 1.01.55.67.82 1.57.82 2.7 0 1.26-.3 2.26-.92 3.01a3.05 3.05 0 0 1-2.5 1.14 2.5 2.5 0 0 1-2.25-1.26zm-.03-3.03v1.05c0 .62.2 1.14.6 1.58a2 2 0 0 0 1.54.65c.72 0 1.3-.28 1.7-.84.42-.56.63-1.33.63-2.32 0-.84-.2-1.5-.58-1.96-.39-.48-.91-.72-1.57-.72-.7 0-1.26.25-1.68.73-.43.49-.64 1.1-.64 1.83zm8.82 4.11h-1.2V39.9h1.2V51zm3.04-9.4a.76.76 0 0 1-.77-.78.75.75 0 0 1 .78-.78.78.78 0 0 1 .78.78c0 .21-.07.4-.23.55a.77.77 0 0 1-.56.23zM512 51h-1.2v-7.5h1.2V51zm7.54-.34a3.9 3.9 0 0 1-2.05.52 3.4 3.4 0 0 1-2.59-1.05c-.65-.7-.98-1.6-.98-2.7 0-1.24.35-2.23 1.06-2.98a3.72 3.72 0 0 1 2.83-1.13c.66 0 1.25.13 1.75.37v1.23a3.05 3.05 0 0 0-1.79-.59c-.77 0-1.4.28-1.88.83-.5.55-.74 1.27-.74 2.16 0 .88.23 1.58.7 2.08.45.51 1.07.77 1.85.77.65 0 1.27-.22 1.84-.66v1.15zm7.19.34h-1.2v-1.17h-.03c-.52.9-1.3 1.35-2.3 1.35-.76 0-1.34-.2-1.76-.6-.43-.4-.64-.92-.64-1.57 0-1.4.83-2.22 2.48-2.45l2.25-.31c0-1.28-.52-1.92-1.55-1.92-.9 0-1.72.31-2.44.93v-1.23c.73-.47 1.58-.7 2.54-.7 1.77 0 2.65.93 2.65 2.8V51zm-1.2-3.8l-1.81.26c-.56.07-.98.21-1.26.4-.28.2-.43.56-.43 1.06 0 .37.13.67.4.9.26.23.6.35 1.04.35.6 0 1.09-.21 1.48-.63.38-.42.58-.95.58-1.59v-.74zm6.94 3.73c-.28.15-.66.23-1.12.23-1.31 0-1.97-.73-1.97-2.2v-4.43h-1.29V43.5h1.29v-1.83l1.2-.39v2.22h1.9v1.03h-1.9v4.22c0 .5.09.86.26 1.08.17.21.45.32.85.32.3 0 .56-.08.78-.25v1.03zm2.22-9.33a.76.76 0 0 1-.78-.78c0-.23.08-.41.23-.56a.75.75 0 0 1 .55-.22.78.78 0 0 1 .8.78c0 .21-.09.4-.24.55a.77.77 0 0 1-.56.23zm.59 9.4h-1.2v-7.5h1.2V51zm5.56.18c-1.1 0-2-.35-2.65-1.06a3.9 3.9 0 0 1-1-2.78c0-1.26.35-2.25 1.04-2.95a3.71 3.71 0 0 1 2.79-1.07c1.12 0 1.99.35 2.62 1.04.62.69.94 1.64.94 2.86 0 1.2-.34 2.16-1.02 2.88a3.55 3.55 0 0 1-2.72 1.08zm.09-6.85c-.77 0-1.38.27-1.83.8a3.23 3.23 0 0 0-.67 2.16c0 .9.22 1.6.68 2.1.45.52 1.06.78 1.82.78a2.2 2.2 0 0 0 1.8-.76c.4-.5.62-1.22.62-2.15 0-.93-.21-1.66-.63-2.16a2.19 2.19 0 0 0-1.79-.77zm11.8 6.67h-1.2v-4.28c0-1.59-.59-2.39-1.75-2.39-.6 0-1.1.23-1.5.68-.39.45-.58 1.02-.58 1.71V51h-1.2v-7.5h1.2v1.25h.03a2.7 2.7 0 0 1 2.46-1.43c.82 0 1.45.27 1.88.8.43.53.65 1.3.65 2.3V51zm1.8-.27v-1.29c.66.48 1.38.73 2.16.73 1.06 0 1.58-.36 1.58-1.06 0-.2-.04-.37-.13-.5a1.35 1.35 0 0 0-.37-.38c-.15-.1-.33-.2-.54-.29l-.67-.27a8.63 8.63 0 0 1-.88-.4 2.64 2.64 0 0 1-.63-.45c-.16-.17-.29-.36-.38-.57a2.03 2.03 0 0 1-.12-.76c0-.35.08-.66.24-.93.16-.27.37-.5.64-.68a3 3 0 0 1 .92-.42 4.3 4.3 0 0 1 2.8.2l.01 1.22a3.4 3.4 0 0 0-2.51-.47c-.18.05-.34.13-.47.22a1 1 0 0 0-.3.33.88.88 0 0 0-.1.43c0 .2.03.36.1.49s.18.25.31.35c.14.1.3.2.5.28l.67.27c.33.13.63.26.9.4.26.13.48.28.67.45.18.17.32.36.42.58.1.22.15.48.15.78 0 .37-.08.7-.24.97-.16.27-.38.5-.66.68a3 3 0 0 1-.94.4c-.36.1-.73.14-1.12.14-.77 0-1.44-.15-2-.45zm16.9-7.23l-3.45 8.7c-.62 1.55-1.48 2.33-2.6 2.33-.3 0-.57-.03-.78-.1v-1.07c.26.09.5.13.71.13.6 0 1.06-.36 1.36-1.08l.6-1.42-2.92-7.49h1.33l2.03 5.77.15.57h.05l.14-.55 2.13-5.79h1.25zm4.42 7.68c-1.1 0-2-.35-2.65-1.06a3.9 3.9 0 0 1-1-2.78c0-1.26.35-2.25 1.04-2.95a3.71 3.71 0 0 1 2.79-1.07c1.12 0 1.99.35 2.62 1.04.62.69.94 1.64.94 2.86 0 1.2-.34 2.16-1.02 2.88a3.55 3.55 0 0 1-2.72 1.08zm.09-6.85c-.77 0-1.38.27-1.83.8a3.23 3.23 0 0 0-.67 2.16c0 .9.22 1.6.68 2.1.45.52 1.06.78 1.82.78a2.2 2.2 0 0 0 1.8-.76c.4-.5.62-1.22.62-2.15 0-.93-.21-1.66-.63-2.16a2.19 2.19 0 0 0-1.79-.77zM587.57 51h-1.2v-1.19h-.03c-.5.91-1.27 1.37-2.31 1.37-1.8 0-2.68-1.07-2.68-3.2V43.5h1.19v4.3c0 1.57.6 2.37 1.82 2.37.58 0 1.06-.22 1.44-.65.38-.44.57-1 .57-1.7V43.5h1.2V51zM7.28 73h-1.2v-1.19h-.03c-.5.91-1.27 1.37-2.31 1.37-1.8 0-2.69-1.07-2.69-3.2V65.5h1.2v4.3c0 1.57.6 2.37 1.81 2.37.6 0 1.07-.22 1.45-.65.38-.44.57-1 .57-1.7V65.5h1.2V73zm1.97-.27v-1.29c.65.48 1.37.73 2.16.73 1.06 0 1.58-.36 1.58-1.06 0-.2-.04-.37-.13-.5a1.35 1.35 0 0 0-.37-.38c-.15-.1-.33-.2-.54-.29l-.67-.27a8.63 8.63 0 0 1-.88-.4 2.64 2.64 0 0 1-.63-.45c-.16-.17-.3-.36-.38-.57a2.03 2.03 0 0 1-.12-.76c0-.35.08-.66.24-.93.16-.27.37-.5.64-.68a3 3 0 0 1 .92-.42 4.3 4.3 0 0 1 2.8.2v1.22a3.4 3.4 0 0 0-2.5-.47c-.18.05-.34.13-.47.22a1 1 0 0 0-.3.33.88.88 0 0 0-.1.43c0 .2.03.36.1.49s.18.25.31.35c.14.1.3.2.5.28l.67.27c.33.13.63.26.9.4.25.13.48.28.67.45.18.17.32.36.42.58.1.22.15.48.15.78 0 .37-.08.7-.24.97-.17.27-.38.5-.66.68a3 3 0 0 1-.94.4c-.36.1-.73.14-1.12.14-.77 0-1.44-.15-2.01-.45zm12.85-3.18h-5.3c.02.84.25 1.48.68 1.93.43.46 1.02.69 1.77.69.84 0 1.62-.28 2.33-.84v1.13c-.66.48-1.53.72-2.62.72-1.06 0-1.89-.34-2.5-1.03-.6-.68-.9-1.64-.9-2.87a4.1 4.1 0 0 1 .99-2.85 3.18 3.18 0 0 1 2.46-1.1c.99 0 1.74.31 2.28.95.54.63.8 1.51.8 2.64v.63zm-1.23-1.02c0-.7-.18-1.23-.5-1.62a1.7 1.7 0 0 0-1.38-.58c-.56 0-1.05.2-1.44.61-.4.4-.64.94-.73 1.6h4.05zm16.6-3.03L35.22 73h-1.24l-1.55-5.37a3.5 3.5 0 0 1-.12-.7h-.02c-.02.18-.07.4-.16.69L30.45 73h-1.2l-2.27-7.5h1.26l1.55 5.64c.05.17.09.4.1.67h.07c.01-.21.05-.44.13-.69l1.73-5.62h1.1l1.55 5.65c.05.18.08.41.1.68h.07c0-.2.05-.42.12-.68l1.52-5.65h1.2zM45.1 73h-1.2v-4.32c0-1.56-.58-2.35-1.75-2.35a1.9 1.9 0 0 0-1.48.68c-.4.45-.6 1.03-.6 1.74V73h-1.2V61.9h1.2v4.85h.03a2.73 2.73 0 0 1 2.46-1.43c1.7 0 2.54 1.02 2.54 3.06V73zm2.88-9.4a.76.76 0 0 1-.78-.78c0-.23.08-.41.23-.56a.75.75 0 0 1 .55-.22.78.78 0 0 1 .79.78c0 .21-.08.4-.23.55a.77.77 0 0 1-.56.23zm.58 9.4h-1.2v-7.5h1.2V73zm3.64 0h-1.2V61.9h1.2V73zm8.45-3.45h-5.3c.03.84.25 1.48.68 1.93.43.46 1.02.69 1.78.69.84 0 1.62-.28 2.32-.84v1.13c-.65.48-1.53.72-2.61.72-1.06 0-1.9-.34-2.5-1.03-.6-.68-.9-1.64-.9-2.87a4.1 4.1 0 0 1 .99-2.85 3.18 3.18 0 0 1 2.46-1.1c.98 0 1.74.31 2.28.95.54.63.8 1.51.8 2.64v.63zm-1.23-1.02c0-.7-.17-1.23-.5-1.62a1.7 1.7 0 0 0-1.37-.58c-.57 0-1.05.2-1.44.61-.4.4-.64.94-.74 1.6h4.05zm8.39 3.39h-.03V73h-1.2V61.9h1.2v4.92h.03c.6-1 1.46-1.5 2.6-1.5.95 0 1.7.34 2.25 1.01.55.67.82 1.57.82 2.7 0 1.26-.3 2.26-.92 3.01a3.05 3.05 0 0 1-2.5 1.14c-1 0-1.74-.42-2.25-1.26zm-.03-3.03v1.05c0 .62.2 1.14.6 1.58a2 2 0 0 0 1.54.65c.73 0 1.3-.28 1.71-.84.41-.56.62-1.33.62-2.32 0-.84-.2-1.5-.58-1.96-.39-.48-.9-.72-1.57-.72-.7 0-1.26.25-1.68.73-.43.49-.64 1.1-.64 1.83zm11.53-2.17a1.47 1.47 0 0 0-.9-.25c-.52 0-.95.25-1.3.73a3.35 3.35 0 0 0-.51 1.98V73h-1.2v-7.5h1.2v1.55h.03c.17-.53.43-.94.78-1.24.35-.3.75-.44 1.18-.44.31 0 .55.03.72.1v1.25zm4.44 6.46c-1.11 0-2-.35-2.66-1.06a3.9 3.9 0 0 1-.99-2.78c0-1.26.34-2.25 1.03-2.95a3.71 3.71 0 0 1 2.8-1.07c1.11 0 1.98.35 2.61 1.04.63.69.94 1.64.94 2.86 0 1.2-.33 2.16-1.01 2.88a3.55 3.55 0 0 1-2.72 1.08zm.09-6.85c-.78 0-1.39.27-1.84.8a3.23 3.23 0 0 0-.67 2.16c0 .9.23 1.6.68 2.1.46.52 1.06.78 1.83.78a2.2 2.2 0 0 0 1.79-.76c.41-.5.62-1.22.62-2.15 0-.93-.2-1.66-.62-2.16a2.19 2.19 0 0 0-1.8-.77zm15.01-.83L96.59 73h-1.24l-1.55-5.37a3.5 3.5 0 0 1-.12-.7h-.03c-.01.18-.06.4-.15.69L91.82 73h-1.2l-2.27-7.5h1.26l1.55 5.64c.05.17.09.4.1.67h.07c.01-.21.05-.44.13-.69l1.73-5.62h1.1l1.55 5.65c.05.18.08.41.1.68h.07c0-.2.05-.42.12-.68l1.52-5.65h1.19zm.94 7.23v-1.29c.65.48 1.37.73 2.16.73 1.05 0 1.58-.36 1.58-1.06 0-.2-.04-.37-.13-.5a1.35 1.35 0 0 0-.37-.38c-.16-.1-.34-.2-.54-.29l-.67-.27a8.63 8.63 0 0 1-.88-.4 2.64 2.64 0 0 1-.63-.45c-.17-.17-.3-.36-.38-.57a2.03 2.03 0 0 1-.13-.76c0-.35.08-.66.24-.93.17-.27.38-.5.65-.68a3 3 0 0 1 .92-.42 4.3 4.3 0 0 1 2.8.2v1.22a3.4 3.4 0 0 0-2.5-.47c-.19.05-.34.13-.47.22a1 1 0 0 0-.3.33.88.88 0 0 0-.1.43c0 .2.03.36.1.49s.17.25.31.35c.14.1.3.2.5.28l.66.27c.34.13.63.26.9.4.26.13.49.28.67.45.19.17.33.36.43.58.1.22.15.48.15.78 0 .37-.08.7-.24.97-.17.27-.39.5-.66.68a3 3 0 0 1-.94.4c-.36.1-.73.14-1.13.14-.77 0-1.44-.15-2-.45zm7.43-9.13a.76.76 0 0 1-.77-.78.75.75 0 0 1 .78-.78.78.78 0 0 1 .78.78c0 .21-.07.4-.23.55a.77.77 0 0 1-.56.23zm.59 9.4h-1.2v-7.5h1.2V73zm8.66 0h-1.2v-4.28c0-1.59-.59-2.39-1.75-2.39-.6 0-1.1.23-1.49.68-.4.45-.59 1.02-.59 1.71V73h-1.2v-7.5h1.2v1.25h.03a2.7 2.7 0 0 1 2.46-1.43c.82 0 1.45.27 1.88.8.44.53.66 1.3.66 2.3V73zm8.66-.6c0 2.75-1.32 4.13-3.96 4.13-.92 0-1.73-.18-2.43-.53v-1.2a5 5 0 0 0 2.42.7c1.85 0 2.77-.98 2.77-2.94v-.82h-.03a2.8 2.8 0 0 1-2.58 1.44c-.93 0-1.68-.34-2.25-1a4 4 0 0 1-.85-2.69c0-1.27.3-2.29.91-3.04a3.07 3.07 0 0 1 2.52-1.13c1.01 0 1.76.4 2.25 1.22h.03V65.5h1.2v6.9zm-1.2-2.8v-1.1c0-.6-.2-1.1-.6-1.53-.4-.42-.91-.64-1.51-.64-.74 0-1.32.27-1.74.81-.42.54-.63 1.3-.63 2.27 0 .84.2 1.5.6 2 .4.5.94.76 1.6.76a2.1 2.1 0 0 0 1.64-.72c.43-.48.64-1.1.64-1.84zm4.05 3.56a.78.78 0 0 1-.58-.24.8.8 0 0 1-.23-.58.8.8 0 0 1 .23-.58.77.77 0 0 1 .58-.25.8.8 0 0 1 .58.25.8.8 0 0 1 .25.58c0 .23-.08.42-.25.58a.8.8 0 0 1-.58.24zM11.25 18H9.08l-1.07-3.03H3.33L2.3 18H.14L4.6 6.1h2.22L11.25 18zm-3.76-4.64L5.84 8.61c-.05-.15-.1-.4-.16-.75h-.04c-.05.32-.1.57-.16.75l-1.64 4.75H7.5zm7.14 3.39h-.04v5.16h-1.92V9.5h1.92V11h.04a3.16 3.16 0 0 1 2.88-1.7c1.08 0 1.92.38 2.53 1.14.6.76.9 1.77.9 3.05a5.3 5.3 0 0 1-1.02 3.4 3.38 3.38 0 0 1-2.79 1.28 2.79 2.79 0 0 1-2.5-1.42zm-.05-3.36v1.06c0 .62.2 1.14.59 1.57.4.44.9.65 1.5.65.72 0 1.28-.28 1.69-.83.4-.56.6-1.33.6-2.33 0-.84-.18-1.5-.56-1.96-.38-.48-.9-.71-1.54-.71-.69 0-1.24.24-1.66.73a2.7 2.7 0 0 0-.62 1.82zm10.29 3.36h-.03v5.16H22.9V9.5h1.93V11h.03a3.16 3.16 0 0 1 2.89-1.7c1.08 0 1.92.38 2.52 1.14.6.76.9 1.77.9 3.05a5.3 5.3 0 0 1-1.01 3.4 3.38 3.38 0 0 1-2.8 1.28 2.79 2.79 0 0 1-2.5-1.42zm-.05-3.36v1.06c0 .62.2 1.14.6 1.57.39.44.9.65 1.5.65.71 0 1.27-.28 1.68-.83.4-.56.61-1.33.61-2.33 0-.84-.19-1.5-.57-1.96-.38-.48-.89-.71-1.54-.71-.68 0-1.24.24-1.65.73a2.7 2.7 0 0 0-.63 1.82zM35.09 18h-1.94V5.42h1.94V18zm3.48-10.28c-.32 0-.59-.1-.81-.31-.23-.2-.34-.47-.34-.78 0-.32.11-.58.34-.8.22-.2.49-.3.8-.3.33 0 .6.1.84.3.22.22.34.48.34.8 0 .3-.12.55-.34.77-.23.2-.5.32-.83.32zM39.52 18h-1.93V9.5h1.93V18zm8.6-.39c-.68.4-1.49.59-2.42.59a4.1 4.1 0 0 1-3.05-1.18 4.19 4.19 0 0 1-1.16-3.07c0-1.4.41-2.53 1.25-3.38a4.47 4.47 0 0 1 3.34-1.27c.77 0 1.46.14 2.05.4v1.8a3.1 3.1 0 0 0-1.9-.66c-.8 0-1.47.27-2 .82a3.02 3.02 0 0 0-.78 2.16c0 .88.25 1.58.74 2.09.49.5 1.15.76 1.97.76.7 0 1.35-.24 1.96-.74v1.68zm8.43.39H54.7v-1.33h-.04a2.81 2.81 0 0 1-2.58 1.53c-.83 0-1.49-.23-1.96-.68a2.38 2.38 0 0 1-.71-1.8c0-1.6.92-2.54 2.77-2.8l2.52-.37c0-1.2-.57-1.81-1.72-1.81a4.1 4.1 0 0 0-2.74 1.04V10.1c.9-.53 1.93-.8 3.1-.8 2.15 0 3.22 1.06 3.22 3.17V18zm-1.86-4.18l-1.78.25c-.55.08-.97.21-1.25.4-.28.2-.42.55-.42 1.04 0 .36.13.65.39.88.25.23.6.35 1.03.35.59 0 1.07-.2 1.46-.62.38-.41.57-.93.57-1.56v-.74zm8.7 4.09c-.38.19-.88.28-1.5.28-1.64 0-2.46-.79-2.46-2.37v-4.8H58V9.5h1.42V7.53l1.92-.55V9.5h2.03v1.51h-2.03v4.25c0 .5.1.86.27 1.08.19.22.5.32.92.32.32 0 .6-.1.84-.28v1.53zm2.63-10.2c-.32 0-.59-.1-.81-.3-.23-.2-.34-.47-.34-.78 0-.32.11-.58.34-.8.22-.2.5-.3.8-.3.33 0 .6.1.84.3.22.22.34.48.34.8 0 .3-.12.55-.34.77-.23.2-.5.32-.83.32zM66.97 18h-1.93V9.5h1.93V18zm6.28.2c-1.3 0-2.35-.4-3.14-1.2a4.3 4.3 0 0 1-1.17-3.15c0-1.43.4-2.54 1.22-3.35a4.5 4.5 0 0 1 3.3-1.2c1.33 0 2.36.4 3.1 1.17a4.52 4.52 0 0 1 1.12 3.25c0 1.35-.4 2.44-1.2 3.25a4.3 4.3 0 0 1-3.23 1.23zm.1-7.36a2.2 2.2 0 0 0-1.79.79 3.3 3.3 0 0 0-.65 2.17c0 .9.22 1.6.66 2.1.44.52 1.03.77 1.78.77s1.34-.25 1.74-.75c.41-.5.61-1.22.61-2.15 0-.94-.2-1.66-.6-2.17a2.1 2.1 0 0 0-1.75-.76zM87.2 18h-1.93v-4.79c0-1.59-.56-2.38-1.68-2.38-.59 0-1.07.22-1.46.66-.38.44-.57 1-.57 1.66V18h-1.93V9.5h1.93v1.41h.03a3.03 3.03 0 0 1 2.76-1.6c.92 0 1.63.3 2.12.9.48.6.73 1.46.73 2.6V18zm1.82-.27v-1.78c.72.55 1.5.82 2.38.82 1.16 0 1.74-.34 1.74-1.03 0-.2-.05-.36-.15-.5-.1-.13-.23-.25-.4-.35-.17-.1-.37-.2-.6-.29a8.13 8.13 0 0 1-1.71-.72 2.85 2.85 0 0 1-.7-.52c-.18-.2-.32-.42-.41-.67-.1-.25-.15-.54-.15-.87 0-.41.1-.77.3-1.09.19-.31.45-.57.77-.79.33-.2.7-.37 1.12-.48a5.85 5.85 0 0 1 3.4.2v1.68a3.55 3.55 0 0 0-2.73-.54c-.2.05-.36.12-.5.21s-.24.2-.32.32a.76.76 0 0 0-.12.41c0 .18.04.34.12.47.08.12.19.24.34.33.15.1.34.19.55.27l.73.26c.37.15.7.3.99.46.29.15.54.33.74.52a2.07 2.07 0 0 1 .64 1.6c0 .43-.1.8-.3 1.13-.2.32-.46.59-.8.8-.33.2-.71.36-1.14.47-.44.1-.9.15-1.38.15-.93 0-1.73-.16-2.41-.47z"/><g transform="translate(0 90)"><use fill="#FFFFFF" xlink:href="#e"/><rect width="605" height="29" x=".5" y=".5" stroke="#0C0C0D" stroke-opacity=".3"/><path fill="#0C0C0D" d="M29.89 19.58v-1.45c.16.14.36.27.6.4a4.84 4.84 0 0 0 1.5.47c.26.05.5.07.72.07.75 0 1.32-.14 1.7-.42.37-.28.55-.69.55-1.21 0-.29-.06-.53-.18-.74a2.1 2.1 0 0 0-.52-.58 5.12 5.12 0 0 0-.78-.5l-.97-.5c-.37-.18-.71-.37-1.03-.56-.31-.2-.59-.4-.82-.63a2.41 2.41 0 0 1-.75-1.8c0-.48.1-.9.3-1.25.22-.36.5-.65.83-.88.35-.23.73-.4 1.17-.51.44-.11.88-.17 1.34-.17 1.03 0 1.79.13 2.26.37v1.39a4.1 4.1 0 0 0-2.39-.65c-.26 0-.53.03-.8.09-.27.05-.51.15-.72.27-.21.13-.38.3-.51.5s-.2.44-.2.73c0 .27.05.5.15.7.1.19.25.37.44.53.2.16.44.31.72.47l.97.5c.37.18.73.37 1.07.58.33.2.63.43.88.68.26.25.46.53.6.83.16.3.23.65.23 1.04 0 .52-.1.95-.3 1.31-.2.36-.48.65-.82.88-.35.22-.74.39-1.2.49a6.52 6.52 0 0 1-3.5-.2c-.23-.08-.4-.16-.54-.25zm14.32-3.03h-5.3c.03.84.25 1.48.68 1.93.43.46 1.02.69 1.77.69.85 0 1.62-.28 2.33-.84v1.13c-.66.48-1.53.72-2.61.72-1.06 0-1.9-.34-2.5-1.03-.6-.68-.9-1.64-.9-2.87a4.1 4.1 0 0 1 .98-2.85 3.18 3.18 0 0 1 2.47-1.1c.98 0 1.74.31 2.28.95.53.63.8 1.51.8 2.64v.63zm-1.23-1.02c0-.7-.17-1.23-.5-1.62a1.7 1.7 0 0 0-1.37-.58c-.57 0-1.05.2-1.45.61-.4.4-.64.94-.73 1.6h4.05zM51.4 20h-1.2v-1.17h-.03c-.53.9-1.3 1.35-2.31 1.35-.75 0-1.33-.2-1.75-.6-.43-.4-.64-.92-.64-1.57 0-1.4.83-2.22 2.48-2.45l2.25-.31c0-1.28-.52-1.92-1.55-1.92-.9 0-1.72.31-2.45.93v-1.23c.74-.47 1.6-.7 2.55-.7 1.77 0 2.65.93 2.65 2.8V20zm-1.2-3.8l-1.81.26c-.56.07-.98.21-1.26.4-.29.2-.43.56-.43 1.06 0 .37.13.67.4.9.26.23.6.35 1.04.35.6 0 1.09-.21 1.47-.63.4-.42.59-.95.59-1.59v-.74zm7.37-2.48a1.47 1.47 0 0 0-.9-.25c-.52 0-.95.25-1.3.73a3.35 3.35 0 0 0-.5 1.98V20h-1.2v-7.5h1.2v1.55h.02c.17-.53.43-.94.78-1.24.36-.3.75-.44 1.18-.44.32 0 .56.03.72.1v1.25zM64 19.66a3.9 3.9 0 0 1-2.05.52 3.4 3.4 0 0 1-2.6-1.05c-.65-.7-.98-1.6-.98-2.7 0-1.24.36-2.23 1.06-2.98a3.72 3.72 0 0 1 2.84-1.13c.66 0 1.24.13 1.74.37v1.23a3.05 3.05 0 0 0-1.78-.59c-.77 0-1.4.28-1.9.83-.48.55-.73 1.27-.73 2.16 0 .88.23 1.58.7 2.08.46.51 1.08.77 1.85.77.66 0 1.27-.22 1.85-.66v1.15zm8.04.34h-1.2v-4.32c0-1.56-.58-2.35-1.74-2.35a1.9 1.9 0 0 0-1.48.68c-.4.45-.6 1.03-.6 1.74V20h-1.2V8.9H67v4.85h.02a2.73 2.73 0 0 1 2.47-1.43c1.69 0 2.53 1.02 2.53 3.06V20zM82.11 9.95a1.6 1.6 0 0 0-.8-.2c-.84 0-1.26.53-1.26 1.6v1.15h1.76v1.03h-1.76V20h-1.2v-6.47h-1.28V12.5h1.29v-1.22c0-.78.22-1.4.68-1.86a2.3 2.3 0 0 1 1.7-.68c.36 0 .65.04.87.13v1.08zm1.6.65a.76.76 0 0 1-.77-.78.75.75 0 0 1 .78-.78.78.78 0 0 1 .78.78c0 .21-.07.4-.23.55a.77.77 0 0 1-.56.23zm.59 9.4h-1.2v-7.5h1.2V20zm3.63 0h-1.2V8.9h1.2V20zm8.46-3.45h-5.3c.02.84.25 1.48.68 1.93.43.46 1.02.69 1.77.69.85 0 1.62-.28 2.33-.84v1.13c-.66.48-1.53.72-2.61.72-1.06 0-1.9-.34-2.5-1.03-.6-.68-.91-1.64-.91-2.87a4.1 4.1 0 0 1 1-2.85 3.18 3.18 0 0 1 2.46-1.1c.98 0 1.74.31 2.27.95.54.63.81 1.51.81 2.64v.63zm-1.23-1.02c0-.7-.17-1.23-.5-1.62a1.7 1.7 0 0 0-1.38-.58c-.56 0-1.04.2-1.44.61-.4.4-.64.94-.73 1.6h4.05zm10.63 4.4c-.28.15-.65.23-1.12.23-1.31 0-1.97-.73-1.97-2.2v-4.43h-1.29V12.5h1.3v-1.83l1.2-.39v2.22h1.88v1.03h-1.89v4.22c0 .5.09.86.26 1.08.17.21.46.32.85.32.3 0 .56-.08.78-.25v1.03zm7.58-7.43l-3.45 8.7c-.62 1.55-1.48 2.33-2.6 2.33-.3 0-.57-.03-.78-.1v-1.07c.26.09.5.13.71.13.6 0 1.06-.36 1.36-1.08l.6-1.42-2.92-7.49h1.33l2.03 5.77.15.57h.04l.15-.55 2.13-5.79h1.25zm2.52 6.42h-.03v4.53h-1.2V12.5h1.2v1.32h.03c.59-1 1.45-1.5 2.59-1.5.97 0 1.72.34 2.26 1.01.55.67.82 1.57.82 2.7 0 1.26-.3 2.26-.92 3.01a3.05 3.05 0 0 1-2.5 1.14 2.5 2.5 0 0 1-2.25-1.26zm-.03-3.03v1.05c0 .62.2 1.14.6 1.58a2 2 0 0 0 1.54.65c.72 0 1.3-.28 1.7-.84.42-.56.63-1.33.63-2.32 0-.84-.2-1.5-.58-1.96-.39-.48-.91-.72-1.57-.72-.7 0-1.26.25-1.68.73-.43.49-.64 1.1-.64 1.83zm13.64.66h-5.3c.03.84.25 1.48.68 1.93.43.46 1.02.69 1.77.69.85 0 1.62-.28 2.33-.84v1.13c-.66.48-1.53.72-2.61.72-1.06 0-1.9-.34-2.5-1.03-.6-.68-.9-1.64-.9-2.87a4.1 4.1 0 0 1 .98-2.85 3.18 3.18 0 0 1 2.47-1.1c.98 0 1.74.31 2.28.95.53.63.8 1.51.8 2.64v.63zm-1.23-1.02c0-.7-.17-1.23-.5-1.62a1.7 1.7 0 0 0-1.37-.58c-.57 0-1.05.2-1.45.61-.4.4-.64.94-.73 1.6h4.05zm2.6 4.2v-1.29c.65.48 1.37.73 2.16.73 1.05 0 1.58-.36 1.58-1.06 0-.2-.05-.37-.14-.5a1.35 1.35 0 0 0-.36-.38c-.16-.1-.34-.2-.55-.29l-.67-.27a8.63 8.63 0 0 1-.87-.4 2.64 2.64 0 0 1-.63-.45c-.17-.17-.3-.36-.38-.57a2.03 2.03 0 0 1-.13-.76c0-.35.08-.66.24-.93.16-.27.38-.5.65-.68a3 3 0 0 1 .92-.42 4.3 4.3 0 0 1 2.8.2v1.22a3.4 3.4 0 0 0-2.5-.47c-.19.05-.34.13-.47.22a1 1 0 0 0-.3.33.88.88 0 0 0-.11.43c0 .2.04.36.1.49.08.13.18.25.32.35.13.1.3.2.5.28l.66.27c.33.13.63.26.9.4.26.13.48.28.67.45.19.17.33.36.43.58.1.22.15.48.15.78 0 .37-.08.7-.25.97-.16.27-.38.5-.65.68a3 3 0 0 1-.95.4c-.35.1-.73.14-1.12.14-.77 0-1.44-.15-2-.45zm14.06.45c-1.11 0-2-.35-2.66-1.06a3.9 3.9 0 0 1-.99-2.78c0-1.26.34-2.25 1.03-2.95a3.71 3.71 0 0 1 2.8-1.07c1.11 0 1.98.35 2.61 1.04.63.69.94 1.64.94 2.86 0 1.2-.34 2.16-1.01 2.88a3.55 3.55 0 0 1-2.72 1.08zm.09-6.85c-.78 0-1.39.27-1.84.8a3.23 3.23 0 0 0-.67 2.16c0 .9.23 1.6.68 2.1.46.52 1.06.78 1.83.78a2.2 2.2 0 0 0 1.79-.76c.41-.5.62-1.22.62-2.15 0-.93-.2-1.66-.62-2.16a2.19 2.19 0 0 0-1.8-.77zm9.47.39a1.47 1.47 0 0 0-.9-.25c-.52 0-.95.25-1.29.73a3.35 3.35 0 0 0-.52 1.98V20h-1.2v-7.5h1.2v1.55h.03c.17-.53.43-.94.79-1.24.35-.3.74-.44 1.18-.44.3 0 .55.03.71.1v1.25zM165.27 20h-1.2v-1.17h-.03c-.52.9-1.29 1.35-2.3 1.35-.75 0-1.33-.2-1.76-.6-.42-.4-.63-.92-.63-1.57 0-1.4.82-2.22 2.47-2.45l2.25-.31c0-1.28-.51-1.92-1.54-1.92-.9 0-1.72.31-2.45.93v-1.23c.74-.47 1.59-.7 2.55-.7 1.76 0 2.64.93 2.64 2.8V20zm-1.2-3.8l-1.8.26c-.56.07-.98.21-1.27.4-.28.2-.42.56-.42 1.06 0 .37.13.67.4.9.25.23.6.35 1.04.35.6 0 1.08-.21 1.47-.63.39-.42.58-.95.58-1.59v-.74zm4.7 2.72h-.03v4.53h-1.2V12.5h1.2v1.32h.03c.59-1 1.45-1.5 2.6-1.5.96 0 1.71.34 2.25 1.01.55.67.82 1.57.82 2.7 0 1.26-.3 2.26-.92 3.01a3.05 3.05 0 0 1-2.5 1.14 2.5 2.5 0 0 1-2.25-1.26zm-.03-3.03v1.05c0 .62.2 1.14.6 1.58a2 2 0 0 0 1.54.65c.72 0 1.3-.28 1.7-.84.42-.56.63-1.33.63-2.32 0-.84-.2-1.5-.58-1.96-.39-.48-.91-.72-1.57-.72-.7 0-1.26.25-1.68.73-.43.49-.64 1.1-.64 1.83zm8.85 3.03h-.03v4.53h-1.2V12.5h1.2v1.32h.03c.59-1 1.45-1.5 2.59-1.5.97 0 1.72.34 2.26 1.01.54.67.82 1.57.82 2.7 0 1.26-.31 2.26-.92 3.01a3.05 3.05 0 0 1-2.5 1.14 2.5 2.5 0 0 1-2.25-1.26zm-.03-3.03v1.05c0 .62.2 1.14.6 1.58a2 2 0 0 0 1.54.65c.72 0 1.3-.28 1.7-.84.42-.56.62-1.33.62-2.32 0-.84-.19-1.5-.57-1.96-.39-.48-.91-.72-1.57-.72-.7 0-1.26.25-1.69.73-.42.49-.63 1.1-.63 1.83zm8.82 4.11h-1.2V8.9h1.2V20zm3.04-9.4a.76.76 0 0 1-.77-.78.75.75 0 0 1 .78-.78.78.78 0 0 1 .78.78c0 .21-.07.4-.23.55a.77.77 0 0 1-.56.23zm.59 9.4h-1.2v-7.5h1.2V20zm7.54-.34a3.9 3.9 0 0 1-2.05.52 3.4 3.4 0 0 1-2.59-1.05c-.65-.7-.98-1.6-.98-2.7 0-1.24.35-2.23 1.06-2.98a3.72 3.72 0 0 1 2.83-1.13c.66 0 1.24.13 1.75.37v1.23a3.05 3.05 0 0 0-1.79-.59c-.77 0-1.4.28-1.89.83-.49.55-.73 1.27-.73 2.16 0 .88.23 1.58.69 2.08.46.51 1.08.77 1.86.77.65 0 1.27-.22 1.84-.66v1.15zm7.19.34h-1.2v-1.17h-.03c-.53.9-1.3 1.35-2.31 1.35-.75 0-1.33-.2-1.75-.6-.43-.4-.64-.92-.64-1.57 0-1.4.83-2.22 2.48-2.45l2.25-.31c0-1.28-.52-1.92-1.55-1.92-.9 0-1.72.31-2.45.93v-1.23c.74-.47 1.6-.7 2.55-.7 1.77 0 2.65.93 2.65 2.8V20zm-1.2-3.8l-1.81.26c-.56.07-.98.21-1.26.4-.29.2-.43.56-.43 1.06 0 .37.13.67.4.9.26.23.6.35 1.04.35.6 0 1.09-.21 1.47-.63.4-.42.59-.95.59-1.59v-.74zm6.94 3.73c-.28.15-.66.23-1.12.23-1.31 0-1.97-.73-1.97-2.2v-4.43h-1.29V12.5h1.29v-1.83l1.2-.39v2.22h1.89v1.03h-1.89v4.22c0 .5.09.86.26 1.08.17.21.45.32.85.32.3 0 .56-.08.78-.25v1.03zm2.22-9.33a.76.76 0 0 1-.78-.78c0-.23.08-.41.23-.56a.75.75 0 0 1 .55-.22.78.78 0 0 1 .79.78c0 .21-.08.4-.23.55a.77.77 0 0 1-.56.23zm.58 9.4h-1.2v-7.5h1.2V20zm5.57.18c-1.1 0-2-.35-2.65-1.06a3.9 3.9 0 0 1-1-2.78c0-1.26.35-2.25 1.04-2.95a3.71 3.71 0 0 1 2.79-1.07c1.12 0 1.99.35 2.62 1.04.62.69.94 1.64.94 2.86 0 1.2-.34 2.16-1.02 2.88a3.55 3.55 0 0 1-2.72 1.08zm.09-6.85c-.77 0-1.38.27-1.83.8a3.23 3.23 0 0 0-.68 2.16c0 .9.23 1.6.69 2.1.45.52 1.06.78 1.82.78a2.2 2.2 0 0 0 1.79-.76c.42-.5.63-1.22.63-2.15 0-.93-.21-1.66-.63-2.16a2.19 2.19 0 0 0-1.8-.77zm11.8 6.67h-1.21v-4.28c0-1.59-.58-2.39-1.74-2.39-.6 0-1.1.23-1.5.68-.39.45-.58 1.02-.58 1.71V20h-1.2v-7.5h1.2v1.25h.03a2.7 2.7 0 0 1 2.46-1.43c.82 0 1.44.27 1.88.8.43.53.65 1.3.65 2.3V20zm1.8-.27v-1.29c.65.48 1.37.73 2.16.73 1.06 0 1.58-.36 1.58-1.06 0-.2-.04-.37-.13-.5a1.35 1.35 0 0 0-.37-.38c-.15-.1-.33-.2-.54-.29l-.67-.27a8.63 8.63 0 0 1-.88-.4 2.64 2.64 0 0 1-.63-.45c-.16-.17-.3-.36-.38-.57a2.03 2.03 0 0 1-.13-.76c0-.35.09-.66.25-.93s.37-.5.64-.68a3 3 0 0 1 .92-.42 4.3 4.3 0 0 1 2.8.2v1.22a3.4 3.4 0 0 0-2.5-.47c-.18.05-.34.13-.47.22a1 1 0 0 0-.3.33.88.88 0 0 0-.1.43c0 .2.03.36.1.49s.18.25.31.35c.14.1.3.2.5.28l.67.27c.33.13.63.26.9.4.25.13.48.28.66.45.19.17.33.36.43.58.1.22.15.48.15.78 0 .37-.08.7-.24.97-.17.27-.38.5-.66.68a3 3 0 0 1-.94.4c-.36.1-.73.14-1.12.14-.77 0-1.44-.15-2.01-.45z" opacity=".4"/></g><path fill="#9B9B9B" d="M17.5 99.47h.03c1.33 0 2.48.47 3.42 1.42a4.66 4.66 0 0 1 1.43 3.42c0 1.34-.48 2.48-1.43 3.42a4.66 4.66 0 0 1-4.97 1.13 4.94 4.94 0 0 1-1.39-.7l-4.06 4.06-.94-.94 4.04-4.06c-.28-.36-.5-.82-.7-1.4a4.65 4.65 0 0 1 1.14-4.95 4.7 4.7 0 0 1 3.43-1.4zm0 8.4c.98 0 1.82-.34 2.52-1.04s1.04-1.54 1.04-2.53c0-1-.35-1.84-1.04-2.53a3.43 3.43 0 0 0-2.52-1.05c-.98 0-1.82.35-2.52 1.05-.7.7-1.04 1.54-1.04 2.54a3.59 3.59 0 0 0 1.76 3.1c.56.3 1.15.47 1.8.47z"/><g transform="translate(0 128)"><use fill="#FFFFFF" xlink:href="#f"/><rect width="605" height="27" x=".5" y=".5" stroke="#0C0C0D" stroke-opacity=".3" rx="2"/><rect width="606" height="28" fill="#0C0C0D" fill-opacity=".1"/><path fill="#0C0C0D" d="M26.31 18.56c-.79.41-1.77.62-2.95.62a4.83 4.83 0 0 1-3.66-1.45 5.26 5.26 0 0 1-1.38-3.78c0-1.68.52-3.04 1.55-4.08a5.3 5.3 0 0 1 3.91-1.55c1.02 0 1.86.15 2.53.43v1.73a4.5 4.5 0 0 0-2.34-.63c-1.14 0-2.06.37-2.77 1.1a4 4 0 0 0-1.06 2.9c0 1.17.33 2.09 1 2.77a3.44 3.44 0 0 0 2.6 1.03c.98 0 1.84-.23 2.57-.7v1.61zm5.13.62a3.72 3.72 0 0 1-2.77-1.06 3.8 3.8 0 0 1-1.04-2.78c0-1.26.36-2.25 1.08-2.95.72-.71 1.7-1.07 2.91-1.07a3.6 3.6 0 0 1 2.74 1.04c.65.69.98 1.64.98 2.86 0 1.2-.35 2.16-1.06 2.88a3.8 3.8 0 0 1-2.84 1.08zm.08-6.5c-.67 0-1.19.23-1.58.7-.38.46-.57 1.1-.57 1.91 0 .79.2 1.4.58 1.86.4.45.91.68 1.57.68.67 0 1.18-.22 1.54-.67.36-.44.54-1.08.54-1.9a3 3 0 0 0-.54-1.9 1.86 1.86 0 0 0-1.54-.68zM43.75 19h-1.7v-4.23c0-1.4-.5-2.1-1.49-2.1-.51 0-.94.2-1.28.58-.33.4-.5.88-.5 1.47V19h-1.7v-7.5h1.7v1.25h.03a2.67 2.67 0 0 1 2.43-1.43c.81 0 1.44.27 1.87.8.43.53.64 1.3.64 2.3V19zm6.03-.08c-.33.17-.77.25-1.31.25-1.46 0-2.19-.7-2.19-2.1v-4.24h-1.25V11.5h1.25V9.76l1.7-.48v2.22h1.8v1.33h-1.8v3.75c0 .45.08.76.25.96.16.19.43.28.8.28.29 0 .54-.08.75-.25v1.35zm7.81-3.2h-5.1c.01.68.22 1.22.63 1.6.4.37.97.56 1.68.56.8 0 1.54-.24 2.2-.72v1.37c-.68.43-1.58.65-2.7.65-1.1 0-1.97-.34-2.6-1.03a4.09 4.09 0 0 1-.94-2.87 4 4 0 0 1 1.04-2.85c.69-.74 1.54-1.1 2.57-1.1 1.03 0 1.82.32 2.38.98.56.66.84 1.58.84 2.75v.65zm-1.64-1.21c0-.61-.15-1.08-.43-1.42-.28-.34-.67-.51-1.17-.51-.49 0-.9.17-1.24.53-.34.36-.55.82-.63 1.4h3.47zM65.9 19h-1.7v-4.23c0-1.4-.5-2.1-1.48-2.1-.52 0-.95.2-1.29.58-.33.4-.5.88-.5 1.47V19h-1.7v-7.5h1.7v1.25h.03a2.67 2.67 0 0 1 2.43-1.43c.81 0 1.44.27 1.87.8.43.53.64 1.3.64 2.3V19zm6.03-.08c-.33.17-.77.25-1.31.25-1.46 0-2.18-.7-2.18-2.1v-4.24h-1.26V11.5h1.26V9.76l1.7-.48v2.22h1.79v1.33h-1.8v3.75c0 .45.09.76.25.96.16.19.43.28.8.28.29 0 .54-.08.75-.25v1.35zm12.52-8.94h-3.02V19h-1.74V9.98h-3.01V8.5h7.77v1.48zm7.84 1.52l-3.38 8.7c-.7 1.55-1.7 2.33-2.96 2.33-.36 0-.66-.03-.9-.1v-1.4c.27.08.52.12.74.12.63 0 1.1-.3 1.42-.93l.5-1.23-2.98-7.49h1.88l1.8 5.45.12.54h.04l.13-.53 1.88-5.46h1.71zm2.86 6.4h-.03v4.55h-1.7V11.5h1.7v1.32h.03c.58-1 1.43-1.5 2.55-1.5.95 0 1.69.34 2.22 1 .53.68.8 1.58.8 2.7 0 1.25-.3 2.25-.9 3a2.98 2.98 0 0 1-2.46 1.13c-.96 0-1.7-.42-2.21-1.26zm-.05-2.96v.93c0 .54.18 1 .53 1.39.35.38.79.57 1.33.57.63 0 1.12-.25 1.48-.74.36-.49.54-1.17.54-2.05a2.7 2.7 0 0 0-.5-1.73 1.65 1.65 0 0 0-1.36-.63c-.6 0-1.1.21-1.46.64-.37.43-.56.97-.56 1.62zm13.7.77h-5.1c.01.7.23 1.23.64 1.6.4.38.96.57 1.68.57.8 0 1.53-.24 2.2-.72v1.37c-.68.43-1.59.65-2.7.65s-1.98-.34-2.6-1.03a4.09 4.09 0 0 1-.95-2.87 4 4 0 0 1 1.04-2.85c.69-.74 1.55-1.1 2.57-1.1 1.03 0 1.82.32 2.38.98.57.66.85 1.58.85 2.75v.65zm-1.63-1.2c0-.61-.15-1.08-.44-1.42-.28-.34-.67-.51-1.17-.51-.49 0-.9.17-1.24.53-.34.36-.55.82-.63 1.4h3.48zM475.34 19h-1.91l-.95-2.67h-4.13l-.9 2.67h-1.91l3.93-10.5h1.96l3.9 10.5zm-3.32-4.1l-1.46-4.18a4.96 4.96 0 0 1-.14-.66h-.03c-.04.28-.09.5-.14.66l-1.45 4.19h3.22zm9.94 3.76c-.6.34-1.31.52-2.13.52a3.6 3.6 0 0 1-2.7-1.05 3.7 3.7 0 0 1-1.02-2.7c0-1.24.36-2.23 1.1-2.98a3.94 3.94 0 0 1 2.95-1.13c.68 0 1.28.12 1.8.36v1.59a2.74 2.74 0 0 0-1.66-.6c-.72 0-1.31.25-1.77.74a2.66 2.66 0 0 0-.69 1.9c0 .78.22 1.4.65 1.84a2.3 2.3 0 0 0 1.74.68c.61 0 1.19-.22 1.73-.65v1.48zm5.64.26c-.33.17-.77.25-1.31.25-1.46 0-2.18-.7-2.18-2.1v-4.24h-1.26V11.5h1.26V9.76l1.7-.48v2.22h1.79v1.33h-1.8v3.75c0 .45.09.76.25.96.16.19.43.28.8.28.29 0 .54-.08.75-.25v1.35zm2.32-9c-.28 0-.52-.09-.71-.27a.9.9 0 0 1-.3-.68c0-.28.1-.51.3-.7a1 1 0 0 1 .71-.28c.29 0 .53.1.73.28.2.19.3.42.3.7a.9.9 0 0 1-.3.67c-.2.2-.44.29-.73.29zm.84 9.08h-1.7v-7.5h1.7V19zm5.55.18a3.72 3.72 0 0 1-2.77-1.06 3.8 3.8 0 0 1-1.04-2.78c0-1.26.36-2.25 1.08-2.95.72-.71 1.69-1.07 2.91-1.07a3.6 3.6 0 0 1 2.74 1.04c.65.69.98 1.64.98 2.86 0 1.2-.35 2.16-1.06 2.88a3.8 3.8 0 0 1-2.84 1.08zm.08-6.5c-.67 0-1.2.23-1.58.7-.38.46-.58 1.1-.58 1.91 0 .79.2 1.4.6 1.86.38.45.9.68 1.56.68.67 0 1.18-.22 1.54-.67.36-.44.54-1.08.54-1.9a3 3 0 0 0-.54-1.9 1.86 1.86 0 0 0-1.54-.68zM508.62 19h-1.7v-4.23c0-1.4-.5-2.1-1.49-2.1-.51 0-.94.2-1.28.58-.34.4-.5.88-.5 1.47V19h-1.71v-7.5h1.7v1.25h.04a2.67 2.67 0 0 1 2.43-1.43c.81 0 1.44.27 1.86.8.43.53.65 1.3.65 2.3V19z"/><path stroke="#0C0C0D" stroke-linecap="square" stroke-opacity=".3" d="M410.5 6.53v15.94"/><g fill="#0C0C0D" transform="translate(430 13)"><polygon points="4 0 8 4 0 4" transform="matrix(1 0 0 -1 0 4)"/></g></g></g><rect width="4" height="606" x="415" y="-153" fill="#FC2DD7" fill-opacity=".25" transform="rotate(90 417 150)"/><rect width="4" height="606" x="415" y="-187" fill="#FC2DD7" fill-opacity=".25" transform="rotate(90 417 116)"/><rect width="4" height="606" x="415" y="-58" fill="#FC2DD7" fill-opacity=".25" transform="rotate(90 417 245)"/><rect width="8" height="606" x="413" y="36" fill="#FC2DD7" fill-opacity=".25" transform="rotate(90 417 339)"/><rect width="8" height="606" x="413" y="-2" fill="#FC2DD7" fill-opacity=".25" transform="rotate(90 417 301)"/><rect width="16" height="606" x="409" y="-226" fill="#FC2DD7" fill-opacity=".25" transform="rotate(90 417 77)"/><rect width="32" height="606" x="401" y="-105" fill="#FC2DD7" fill-opacity=".25" transform="rotate(90 417 198)"/><g transform="translate(62 66)"><rect width="9" height="1" x="39" y="3" fill="#ED00B5"/><rect width="9" height="1" x="39" y="18" fill="#ED00B5"/><rect width="1" height="15" x="43" y="3" fill="#ED00B5"/><path fill="#ED00B5" fill-rule="nonzero" d="M35.09 7V2a2 2 0 0 0-2-2H2a2 2 0 0 0-2 2v18c0 1.1.9 2 2 2h31.09a2 2 0 0 0 2-2v-5L39 11l-3.91-4z"/><path fill="#FFFFFF" d="M9.3 14.18V15H4.54v-.82h2.03V7.84L4.68 8.98l-.44-.71L6.7 6.73h.89v7.45H9.3zm6.14-4.27c.36.2.64.48.85.87a3 3 0 0 1 .31 1.44c0 .59-.12 1.1-.35 1.55A2.48 2.48 0 0 1 14 15.13c-.96 0-1.66-.35-2.1-1.04-.43-.7-.65-1.7-.65-2.99 0-.91.12-1.7.36-2.38.25-.68.6-1.2 1.06-1.57a2.56 2.56 0 0 1 1.65-.55c.6 0 1.15.16 1.64.5l-.4.66c-.38-.23-.8-.34-1.25-.34-.63 0-1.13.3-1.48.88-.36.6-.55 1.4-.56 2.43.25-.39.55-.67.87-.84.33-.18.7-.27 1.12-.27.43 0 .83.1 1.18.3zm-.27 3.86c.26-.36.4-.87.4-1.52 0-1.2-.49-1.81-1.47-1.81-.38 0-.73.1-1.03.32-.31.21-.57.5-.79.86.02.93.16 1.62.43 2.05.27.43.7.65 1.29.65.5 0 .9-.19 1.17-.55zm8.65-1.94c0 1-.2 1.8-.62 2.4-.42.6-1.02.9-1.81.9-.69 0-1.25-.24-1.68-.72v3.01l-1.01.12V8.68h.86l.09.88c.23-.32.5-.58.83-.75.33-.18.68-.27 1.05-.27 1.53 0 2.3 1.1 2.3 3.3zm-3.41-2.18c-.27.19-.5.43-.7.72v3.13c.17.25.38.44.63.58.25.14.52.21.82.21.53 0 .92-.2 1.18-.6.26-.4.4-1.03.4-1.86 0-.83-.12-1.45-.36-1.86-.23-.4-.6-.61-1.09-.61-.32 0-.61.1-.88.29zM25.37 15l2.33-3.34-2.05-2.98h1.2l1.46 2.35 1.48-2.35h1.16l-2.05 2.94L31.23 15H30l-1.74-2.71L26.52 15h-1.15z"/></g><g transform="translate(62 182)"><rect width="9" height="1" x="39" fill="#ED00B5"/><rect width="9" height="1" x="39" y="31" fill="#ED00B5"/><rect width="1" height="32" x="43" fill="#ED00B5"/><path fill="#ED00B5" fill-rule="nonzero" d="M35.09 12V7a2 2 0 0 0-2-2H2a2 2 0 0 0-2 2v18c0 1.1.9 2 2 2h31.09a2 2 0 0 0 2-2v-5L39 16l-3.91-4z"/><path fill="#FFFFFF" d="M7.66 11.88c.38.19.68.44.89.76.2.31.31.66.31 1.04a2 2 0 0 1-1.6 1.92c.51.04.95.23 1.32.58.36.36.54.84.54 1.44a2.37 2.37 0 0 1-1.37 2.19 3.7 3.7 0 0 1-2.9.05 2.78 2.78 0 0 1-1.13-.82l.68-.55c.22.26.5.46.82.6.32.14.66.21 1.01.21.58 0 1.03-.15 1.35-.45.33-.3.49-.7.49-1.23 0-1.04-.57-1.57-1.72-1.57h-.68l.12-.8h.49c.43 0 .8-.12 1.1-.37.3-.24.46-.6.46-1.07 0-.44-.15-.78-.44-1.03a1.7 1.7 0 0 0-1.12-.36c-.34 0-.65.06-.92.18a3.2 3.2 0 0 0-.83.57l-.55-.61a3.3 3.3 0 0 1 3.68-.68zm7.2.02c.37.2.66.47.86.82.2.35.3.74.3 1.18 0 .52-.11 1.01-.35 1.5-.24.47-.61 1-1.13 1.57-.52.57-1.26 1.3-2.21 2.17h3.89l-.12.86h-4.92v-.82a48.03 48.03 0 0 0 2.4-2.42c.53-.58.89-1.08 1.09-1.5a3 3 0 0 0 .3-1.32c0-.46-.13-.83-.4-1.1-.26-.26-.63-.39-1.09-.39-.4 0-.72.07-.98.2a2.7 2.7 0 0 0-.8.68l-.7-.54c.34-.41.7-.71 1.1-.9.41-.2.88-.29 1.43-.29.5 0 .94.1 1.32.3zm8.96 4.93c0 1-.2 1.8-.62 2.4-.42.6-1.02.9-1.81.9-.69 0-1.25-.24-1.68-.72v3.01l-1.01.12v-8.86h.86l.09.88c.23-.32.5-.58.83-.75.33-.18.68-.27 1.05-.27 1.53 0 2.3 1.1 2.3 3.3zm-3.41-2.18c-.27.19-.5.43-.7.72v3.13c.17.25.38.44.63.58.25.14.52.21.82.21.53 0 .92-.2 1.18-.6.26-.4.4-1.03.4-1.86 0-.83-.12-1.45-.36-1.86-.23-.4-.6-.61-1.09-.61-.32 0-.61.1-.88.29zM25.37 20l2.33-3.34-2.05-2.98h1.2l1.46 2.35 1.48-2.35h1.16l-2.05 2.94L31.23 20H30l-1.74-2.71L26.52 20h-1.15z"/></g><g transform="translate(66 105)"><rect width="9" height="1" x="35" y="9" fill="#ED00B5"/><rect width="9" height="1" x="35" y="12" fill="#ED00B5"/><rect width="1" height="4" x="39" y="9" fill="#ED00B5"/><path fill="#ED00B5" fill-rule="nonzero" d="M31.09 7V2a2 2 0 0 0-2-2H2a2 2 0 0 0-2 2v18c0 1.1.9 2 2 2h27.09a2 2 0 0 0 2-2v-5L35 11l-3.91-4z"/><path fill="#FFFFFF" d="M12.04 13h-1.07v2H10v-2H6.56v-.75L9 6.6l.84.36-2.2 5.22h2.38l.08-2.34h.88v2.34h1.07V13zm7.18-1.17c0 1-.2 1.8-.62 2.4-.42.6-1.02.9-1.81.9-.69 0-1.25-.24-1.68-.72v3.01l-1.01.12V8.68h.86l.09.88c.23-.32.5-.58.83-.75.33-.18.68-.27 1.05-.27 1.53 0 2.3 1.1 2.3 3.3zm-3.41-2.18c-.27.19-.5.43-.7.72v3.13c.17.25.38.44.63.58.25.14.52.21.82.21.53 0 .92-.2 1.18-.6.26-.4.4-1.03.4-1.86 0-.83-.12-1.45-.36-1.86-.23-.4-.6-.61-1.09-.61-.32 0-.61.1-.88.29zM20.77 15l2.33-3.34-2.05-2.98h1.2l1.46 2.35 1.48-2.35h1.16l-2.05 2.94L26.63 15H25.4l-1.74-2.71L21.92 15h-1.15z"/></g><g transform="translate(66 234)"><rect width="9" height="1" x="35" y="9" fill="#ED00B5"/><rect width="9" height="1" x="35" y="12" fill="#ED00B5"/><rect width="1" height="4" x="39" y="9" fill="#ED00B5"/><path fill="#ED00B5" fill-rule="nonzero" d="M31.09 7V2a2 2 0 0 0-2-2H2a2 2 0 0 0-2 2v18c0 1.1.9 2 2 2h27.09a2 2 0 0 0 2-2v-5L35 11l-3.91-4z"/><path fill="#FFFFFF" d="M12.04 13h-1.07v2H10v-2H6.56v-.75L9 6.6l.84.36-2.2 5.22h2.38l.08-2.34h.88v2.34h1.07V13zm7.18-1.17c0 1-.2 1.8-.62 2.4-.42.6-1.02.9-1.81.9-.69 0-1.25-.24-1.68-.72v3.01l-1.01.12V8.68h.86l.09.88c.23-.32.5-.58.83-.75.33-.18.68-.27 1.05-.27 1.53 0 2.3 1.1 2.3 3.3zm-3.41-2.18c-.27.19-.5.43-.7.72v3.13c.17.25.38.44.63.58.25.14.52.21.82.21.53 0 .92-.2 1.18-.6.26-.4.4-1.03.4-1.86 0-.83-.12-1.45-.36-1.86-.23-.4-.6-.61-1.09-.61-.32 0-.61.1-.88.29zM20.77 15l2.33-3.34-2.05-2.98h1.2l1.46 2.35 1.48-2.35h1.16l-2.05 2.94L26.63 15H25.4l-1.74-2.71L21.92 15h-1.15z"/></g><g transform="translate(66 328)"><rect width="9" height="1" x="35" y="7" fill="#ED00B5"/><rect width="9" height="1" x="35" y="14" fill="#ED00B5"/><rect width="1" height="8" x="39" y="7" fill="#ED00B5"/><path fill="#ED00B5" fill-rule="nonzero" d="M31.09 7V2a2 2 0 0 0-2-2H2a2 2 0 0 0-2 2v18c0 1.1.9 2 2 2h27.09a2 2 0 0 0 2-2v-5L35 11l-3.91-4z"/><path fill="#FFFFFF" d="M11.41 9.73c-.24.3-.6.58-1.07.84.56.23 1 .54 1.31.91.31.38.47.81.47 1.3a2.19 2.19 0 0 1-1.34 2.05c-.44.2-.94.3-1.5.3-.58 0-1.08-.1-1.5-.3a2.2 2.2 0 0 1-1.3-2.02c0-.93.56-1.65 1.67-2.17a2.56 2.56 0 0 1-1-.76c-.22-.29-.32-.66-.32-1.12 0-.47.12-.87.37-1.2.25-.33.56-.57.94-.73a3.17 3.17 0 0 1 2.36 0c.38.15.68.38.92.7.23.32.35.7.35 1.17 0 .4-.12.74-.36 1.03zM8.02 9.5c.14.18.33.32.56.43.23.1.58.24 1.06.39.4-.24.7-.47.88-.7.18-.23.27-.52.27-.87 0-.42-.13-.75-.4-1A1.54 1.54 0 0 0 9.3 7.4c-.47 0-.84.12-1.1.36-.26.24-.39.58-.39 1.02 0 .3.07.55.21.73zm2.77 2.45c-.18-.22-.4-.4-.7-.53-.28-.12-.7-.29-1.26-.49-.85.4-1.28 1.03-1.28 1.87 0 .48.15.85.44 1.11.3.27.73.4 1.29.4s1-.13 1.3-.41c.32-.28.47-.65.47-1.1 0-.35-.09-.63-.26-.85zm8.43-.12c0 1-.2 1.8-.62 2.4-.42.6-1.02.9-1.81.9-.69 0-1.25-.24-1.68-.72v3.01l-1.01.12V8.68h.86l.09.88c.23-.32.5-.58.83-.75.33-.18.68-.27 1.05-.27 1.53 0 2.3 1.1 2.3 3.3zm-3.41-2.18c-.27.19-.5.43-.7.72v3.13c.17.25.38.44.63.58.25.14.52.21.82.21.53 0 .92-.2 1.18-.6.26-.4.4-1.03.4-1.86 0-.83-.12-1.45-.36-1.86-.23-.4-.6-.61-1.09-.61-.32 0-.61.1-.88.29zM20.77 15l2.33-3.34-2.05-2.98h1.2l1.46 2.35 1.48-2.35h1.16l-2.05 2.94L26.63 15H25.4l-1.74-2.71L21.92 15h-1.15z"/></g><g transform="translate(66 290)"><rect width="9" height="1" x="35" y="7" fill="#ED00B5"/><rect width="9" height="1" x="35" y="14" fill="#ED00B5"/><rect width="1" height="8" x="39" y="7" fill="#ED00B5"/><path fill="#ED00B5" fill-rule="nonzero" d="M31.09 7V2a2 2 0 0 0-2-2H2a2 2 0 0 0-2 2v18c0 1.1.9 2 2 2h27.09a2 2 0 0 0 2-2v-5L35 11l-3.91-4z"/><path fill="#FFFFFF" d="M11.41 9.73c-.24.3-.6.58-1.07.84.56.23 1 .54 1.31.91.31.38.47.81.47 1.3a2.19 2.19 0 0 1-1.34 2.05c-.44.2-.94.3-1.5.3-.58 0-1.08-.1-1.5-.3a2.2 2.2 0 0 1-1.3-2.02c0-.93.56-1.65 1.67-2.17a2.56 2.56 0 0 1-1-.76c-.22-.29-.32-.66-.32-1.12 0-.47.12-.87.37-1.2.25-.33.56-.57.94-.73a3.17 3.17 0 0 1 2.36 0c.38.15.68.38.92.7.23.32.35.7.35 1.17 0 .4-.12.74-.36 1.03zM8.02 9.5c.14.18.33.32.56.43.23.1.58.24 1.06.39.4-.24.7-.47.88-.7.18-.23.27-.52.27-.87 0-.42-.13-.75-.4-1A1.54 1.54 0 0 0 9.3 7.4c-.47 0-.84.12-1.1.36-.26.24-.39.58-.39 1.02 0 .3.07.55.21.73zm2.77 2.45c-.18-.22-.4-.4-.7-.53-.28-.12-.7-.29-1.26-.49-.85.4-1.28 1.03-1.28 1.87 0 .48.15.85.44 1.11.3.27.73.4 1.29.4s1-.13 1.3-.41c.32-.28.47-.65.47-1.1 0-.35-.09-.63-.26-.85zm8.43-.12c0 1-.2 1.8-.62 2.4-.42.6-1.02.9-1.81.9-.69 0-1.25-.24-1.68-.72v3.01l-1.01.12V8.68h.86l.09.88c.23-.32.5-.58.83-.75.33-.18.68-.27 1.05-.27 1.53 0 2.3 1.1 2.3 3.3zm-3.41-2.18c-.27.19-.5.43-.7.72v3.13c.17.25.38.44.63.58.25.14.52.21.82.21.53 0 .92-.2 1.18-.6.26-.4.4-1.03.4-1.86 0-.83-.12-1.45-.36-1.86-.23-.4-.6-.61-1.09-.61-.32 0-.61.1-.88.29zM20.77 15l2.33-3.34-2.05-2.98h1.2l1.46 2.35 1.48-2.35h1.16l-2.05 2.94L26.63 15H25.4l-1.74-2.71L21.92 15h-1.15z"/></g><g transform="translate(66 139)"><rect width="9" height="1" x="35" y="9" fill="#ED00B5"/><rect width="9" height="1" x="35" y="12" fill="#ED00B5"/><rect width="1" height="4" x="39" y="9" fill="#ED00B5"/><path fill="#ED00B5" fill-rule="nonzero" d="M31.09 7V2a2 2 0 0 0-2-2H2a2 2 0 0 0-2 2v18c0 1.1.9 2 2 2h27.09a2 2 0 0 0 2-2v-5L35 11l-3.91-4z"/><path fill="#FFFFFF" d="M12.04 13h-1.07v2H10v-2H6.56v-.75L9 6.6l.84.36-2.2 5.22h2.38l.08-2.34h.88v2.34h1.07V13zm7.18-1.17c0 1-.2 1.8-.62 2.4-.42.6-1.02.9-1.81.9-.69 0-1.25-.24-1.68-.72v3.01l-1.01.12V8.68h.86l.09.88c.23-.32.5-.58.83-.75.33-.18.68-.27 1.05-.27 1.53 0 2.3 1.1 2.3 3.3zm-3.41-2.18c-.27.19-.5.43-.7.72v3.13c.17.25.38.44.63.58.25.14.52.21.82.21.53 0 .92-.2 1.18-.6.26-.4.4-1.03.4-1.86 0-.83-.12-1.45-.36-1.86-.23-.4-.6-.61-1.09-.61-.32 0-.61.1-.88.29zM20.77 15l2.33-3.34-2.05-2.98h1.2l1.46 2.35 1.48-2.35h1.16l-2.05 2.94L26.63 15H25.4l-1.74-2.71L21.92 15h-1.15z"/></g><g transform="translate(548 130)"><rect width="8" height="1" x="14" y="4" fill="#ED00B5"/><rect width="1" height="9" x="14" fill="#ED00B5"/><rect width="1" height="9" x="21" fill="#ED00B5"/><path fill="#ED00B5" fill-rule="nonzero" d="M14.18 12H2a2 2 0 0 0-2 2v18c0 1.1.9 2 2 2h32a2 2 0 0 0 2-2V14a2 2 0 0 0-2-2H22l-3.91-4-3.91 4z"/><path fill="#FFFFFF" d="M13.41 21.73c-.24.3-.6.58-1.07.84.56.23 1 .54 1.31.91.31.38.47.81.47 1.3a2.19 2.19 0 0 1-1.34 2.05c-.44.2-.94.3-1.5.3-.58 0-1.08-.1-1.5-.3a2.2 2.2 0 0 1-1.3-2.02c0-.93.56-1.65 1.67-2.17a2.56 2.56 0 0 1-1-.76c-.22-.29-.32-.66-.32-1.12 0-.47.12-.87.37-1.2.25-.33.56-.57.94-.73a3.17 3.17 0 0 1 2.36 0c.38.15.68.38.92.7.23.32.35.7.35 1.17 0 .4-.12.74-.36 1.03zm-3.39-.23c.14.18.33.32.56.43.23.1.58.24 1.06.39.4-.24.7-.47.88-.7.18-.23.27-.52.27-.87 0-.42-.13-.75-.4-1a1.54 1.54 0 0 0-1.09-.36c-.47 0-.84.12-1.1.36-.26.24-.39.58-.39 1.02 0 .3.07.55.21.73zm2.77 2.45c-.18-.22-.4-.4-.7-.53-.28-.12-.7-.29-1.26-.49-.85.4-1.28 1.03-1.28 1.87 0 .48.15.85.44 1.11.3.27.73.4 1.29.4s1-.13 1.3-.41c.32-.28.47-.65.47-1.1 0-.35-.09-.63-.26-.85zm8.43-.12c0 1-.2 1.8-.62 2.4-.42.6-1.02.9-1.81.9-.69 0-1.25-.24-1.68-.72v3.01l-1.01.12v-8.86h.86l.09.88c.23-.32.5-.58.83-.75.33-.18.68-.27 1.05-.27 1.53 0 2.3 1.1 2.3 3.3zm-3.41-2.18c-.27.19-.5.43-.7.72v3.13c.17.25.38.44.63.58.25.14.52.21.82.21.53 0 .92-.2 1.18-.6.26-.4.4-1.03.4-1.86 0-.83-.12-1.45-.36-1.86-.23-.4-.6-.61-1.09-.61-.32 0-.61.1-.88.29zM22.77 27l2.33-3.34-2.05-2.98h1.2l1.46 2.35 1.48-2.35h1.16l-2.05 2.94L28.63 27H27.4l-1.74-2.71L23.92 27h-1.15z"/></g><g transform="translate(206 130)"><rect width="8" height="1" x="14" y="4" fill="#ED00B5"/><rect width="1" height="9" x="14" fill="#ED00B5"/><rect width="1" height="9" x="21" fill="#ED00B5"/><path fill="#ED00B5" fill-rule="nonzero" d="M14.18 12H2a2 2 0 0 0-2 2v18c0 1.1.9 2 2 2h32a2 2 0 0 0 2-2V14a2 2 0 0 0-2-2H22l-3.91-4-3.91 4z"/><path fill="#FFFFFF" d="M13.41 21.73c-.24.3-.6.58-1.07.84.56.23 1 .54 1.31.91.31.38.47.81.47 1.3a2.19 2.19 0 0 1-1.34 2.05c-.44.2-.94.3-1.5.3-.58 0-1.08-.1-1.5-.3a2.2 2.2 0 0 1-1.3-2.02c0-.93.56-1.65 1.67-2.17a2.56 2.56 0 0 1-1-.76c-.22-.29-.32-.66-.32-1.12 0-.47.12-.87.37-1.2.25-.33.56-.57.94-.73a3.17 3.17 0 0 1 2.36 0c.38.15.68.38.92.7.23.32.35.7.35 1.17 0 .4-.12.74-.36 1.03zm-3.39-.23c.14.18.33.32.56.43.23.1.58.24 1.06.39.4-.24.7-.47.88-.7.18-.23.27-.52.27-.87 0-.42-.13-.75-.4-1a1.54 1.54 0 0 0-1.09-.36c-.47 0-.84.12-1.1.36-.26.24-.39.58-.39 1.02 0 .3.07.55.21.73zm2.77 2.45c-.18-.22-.4-.4-.7-.53-.28-.12-.7-.29-1.26-.49-.85.4-1.28 1.03-1.28 1.87 0 .48.15.85.44 1.11.3.27.73.4 1.29.4s1-.13 1.3-.41c.32-.28.47-.65.47-1.1 0-.35-.09-.63-.26-.85zm8.43-.12c0 1-.2 1.8-.62 2.4-.42.6-1.02.9-1.81.9-.69 0-1.25-.24-1.68-.72v3.01l-1.01.12v-8.86h.86l.09.88c.23-.32.5-.58.83-.75.33-.18.68-.27 1.05-.27 1.53 0 2.3 1.1 2.3 3.3zm-3.41-2.18c-.27.19-.5.43-.7.72v3.13c.17.25.38.44.63.58.25.14.52.21.82.21.53 0 .92-.2 1.18-.6.26-.4.4-1.03.4-1.86 0-.83-.12-1.45-.36-1.86-.23-.4-.6-.61-1.09-.61-.32 0-.61.1-.88.29zM22.77 27l2.33-3.34-2.05-2.98h1.2l1.46 2.35 1.48-2.35h1.16l-2.05 2.94L28.63 27H27.4l-1.74-2.71L23.92 27h-1.15z"/></g><g transform="translate(120 130)"><rect width="8" height="1" x="14" y="4" fill="#ED00B5"/><rect width="1" height="9" x="14" fill="#ED00B5"/><rect width="1" height="9" x="21" fill="#ED00B5"/><path fill="#ED00B5" fill-rule="nonzero" d="M14.18 12H2a2 2 0 0 0-2 2v18c0 1.1.9 2 2 2h32a2 2 0 0 0 2-2V14a2 2 0 0 0-2-2H22l-3.91-4-3.91 4z"/><path fill="#FFFFFF" d="M13.41 21.73c-.24.3-.6.58-1.07.84.56.23 1 .54 1.31.91.31.38.47.81.47 1.3a2.19 2.19 0 0 1-1.34 2.05c-.44.2-.94.3-1.5.3-.58 0-1.08-.1-1.5-.3a2.2 2.2 0 0 1-1.3-2.02c0-.93.56-1.65 1.67-2.17a2.56 2.56 0 0 1-1-.76c-.22-.29-.32-.66-.32-1.12 0-.47.12-.87.37-1.2.25-.33.56-.57.94-.73a3.17 3.17 0 0 1 2.36 0c.38.15.68.38.92.7.23.32.35.7.35 1.17 0 .4-.12.74-.36 1.03zm-3.39-.23c.14.18.33.32.56.43.23.1.58.24 1.06.39.4-.24.7-.47.88-.7.18-.23.27-.52.27-.87 0-.42-.13-.75-.4-1a1.54 1.54 0 0 0-1.09-.36c-.47 0-.84.12-1.1.36-.26.24-.39.58-.39 1.02 0 .3.07.55.21.73zm2.77 2.45c-.18-.22-.4-.4-.7-.53-.28-.12-.7-.29-1.26-.49-.85.4-1.28 1.03-1.28 1.87 0 .48.15.85.44 1.11.3.27.73.4 1.29.4s1-.13 1.3-.41c.32-.28.47-.65.47-1.1 0-.35-.09-.63-.26-.85zm8.43-.12c0 1-.2 1.8-.62 2.4-.42.6-1.02.9-1.81.9-.69 0-1.25-.24-1.68-.72v3.01l-1.01.12v-8.86h.86l.09.88c.23-.32.5-.58.83-.75.33-.18.68-.27 1.05-.27 1.53 0 2.3 1.1 2.3 3.3zm-3.41-2.18c-.27.19-.5.43-.7.72v3.13c.17.25.38.44.63.58.25.14.52.21.82.21.53 0 .92-.2 1.18-.6.26-.4.4-1.03.4-1.86 0-.83-.12-1.45-.36-1.86-.23-.4-.6-.61-1.09-.61-.32 0-.61.1-.88.29zM22.77 27l2.33-3.34-2.05-2.98h1.2l1.46 2.35 1.48-2.35h1.16l-2.05 2.94L28.63 27H27.4l-1.74-2.71L23.92 27h-1.15z"/></g></g></svg>