<svg id="Buttons.svg" xmlns="http://www.w3.org/2000/svg" width="329.5" height="41" viewBox="0 0 329.5 41">
  <defs>
    <style>
      .cls-1, .cls-2, .cls-5 {
        fill: #2ea3ff;
      }

      .cls-1 {
        opacity: 0.2;
      }

      .cls-3 {
        fill: #36b4ff;
      }

      .cls-3, .cls-6 {
        fill-rule: evenodd;
      }

      .cls-4 {
        fill: #0675d3;
      }

      .cls-5 {
        stroke: #0675d3;
        stroke-linejoin: round;
        stroke-width: 1px;
      }

      .cls-6 {
        fill: #fff;
      }
    </style>
  </defs>
  <g>
    <rect class="cls-1" x="189.5" y="0.5" width="140" height="40"/>
    <rect id="Line" class="cls-2" x="189.5" y="36.5" width="140" height="4"/>
    <path id="Tab" class="cls-3" d="M795.476,2253.26h-3.384v9.86h3.384a5.052,5.052,0,0,0,2.5-.58,3.882,3.882,0,0,0,1.6-1.7,6.615,6.615,0,0,0,0-5.3,3.882,3.882,0,0,0-1.6-1.7,5.052,5.052,0,0,0-2.5-.58h0Zm-2.154,8.76v-7.65h2.072a3.689,3.689,0,0,1,1.869.45,2.978,2.978,0,0,1,1.2,1.32,5.362,5.362,0,0,1,0,4.12,2.981,2.981,0,0,1-1.193,1.31,3.7,3.7,0,0,1-1.876.45h-2.072Zm9.674,1.23a2.761,2.761,0,0,0,1.326-.31,2.432,2.432,0,0,0,.943-0.9h0.11v1.08H806.5v-5.04a2.555,2.555,0,0,0-.328-1.32,2.189,2.189,0,0,0-.957-0.84,3.51,3.51,0,0,0-1.518-.29,3.92,3.92,0,0,0-1.408.24,2.574,2.574,0,0,0-1.019.68,1.937,1.937,0,0,0-.465,1.04h1.19a1.1,1.1,0,0,1,.56-0.68,2.271,2.271,0,0,1,1.1-.24,1.876,1.876,0,0,1,1.244.36,1.3,1.3,0,0,1,.424,1.05v0.67l-2.126.13a3.467,3.467,0,0,0-1.99.63,1.889,1.889,0,0,0-.7,1.55,2.092,2.092,0,0,0,.321,1.16,2.114,2.114,0,0,0,.889.76,2.937,2.937,0,0,0,1.279.27h0Zm0.218-1.03a1.673,1.673,0,0,1-1.073-.32,1.03,1.03,0,0,1-.417-0.87,0.993,0.993,0,0,1,.39-0.85,2.29,2.29,0,0,1,1.223-.35l1.983-.13v0.68a1.7,1.7,0,0,1-.274.94,1.877,1.877,0,0,1-.755.66,2.381,2.381,0,0,1-1.077.24h0Zm5.962-8.37H808v1.9h-1.189v0.99H808v4.47a2.589,2.589,0,0,0,.215,1.14,1.289,1.289,0,0,0,.681.63,3.218,3.218,0,0,0,1.23.2,3.662,3.662,0,0,0,.691-0.07v-0.99a5.421,5.421,0,0,1-.547.03,1.047,1.047,0,0,1-.834-0.3,1.386,1.386,0,0,1-.26-0.94v-4.17h1.641v-0.99h-1.641v-1.9Zm4.307,9.4a2.761,2.761,0,0,0,1.326-.31,2.432,2.432,0,0,0,.943-0.9h0.11v1.08h1.121v-5.04a2.545,2.545,0,0,0-.328-1.32,2.189,2.189,0,0,0-.957-0.84,3.51,3.51,0,0,0-1.518-.29,3.92,3.92,0,0,0-1.408.24,2.574,2.574,0,0,0-1.019.68,1.937,1.937,0,0,0-.465,1.04h1.19a1.105,1.105,0,0,1,.56-0.68,2.271,2.271,0,0,1,1.1-.24,1.874,1.874,0,0,1,1.244.36,1.3,1.3,0,0,1,.424,1.05v0.67l-2.126.13a3.463,3.463,0,0,0-1.989.63,1.887,1.887,0,0,0-.7,1.55,2.033,2.033,0,0,0,1.21,1.92,2.941,2.941,0,0,0,1.279.27h0Zm0.219-1.03a1.674,1.674,0,0,1-1.074-.32,1.03,1.03,0,0,1-.417-0.87,0.993,0.993,0,0,1,.39-0.85,2.294,2.294,0,0,1,1.224-.35l1.982-.13v0.68a1.7,1.7,0,0,1-.273.94,1.88,1.88,0,0,1-.756.66,2.379,2.379,0,0,1-1.076.24h0Zm11.2,1.14a4.782,4.782,0,0,0,1.887-.37,3.524,3.524,0,0,0,1.391-1.04,3.474,3.474,0,0,0,.708-1.57h-1.251a2.42,2.42,0,0,1-.54.98,2.514,2.514,0,0,1-.947.64,3.339,3.339,0,0,1-1.248.22,2.755,2.755,0,0,1-1.64-.49,3.057,3.057,0,0,1-1.074-1.4,6.249,6.249,0,0,1,0-4.27,3.14,3.14,0,0,1,1.074-1.41,2.816,2.816,0,0,1,1.634-.49,2.956,2.956,0,0,1,1.237.26,2.449,2.449,0,0,1,.95.72,2.735,2.735,0,0,1,.554,1.09h1.251a3.626,3.626,0,0,0-.7-1.67,3.8,3.8,0,0,0-1.412-1.13,4.353,4.353,0,0,0-1.883-.4,4.192,4.192,0,0,0-2.311.63,4.016,4.016,0,0,0-1.511,1.79,7.406,7.406,0,0,0,0,5.49,4.036,4.036,0,0,0,1.515,1.79,4.191,4.191,0,0,0,2.31.63h0Zm4.807-10.53v10.29h1.175v-4.36a2.365,2.365,0,0,1,.24-1.09,1.662,1.662,0,0,1,.7-0.73,2.243,2.243,0,0,1,1.107-.26,1.626,1.626,0,0,1,1.272.49,2.184,2.184,0,0,1,.431,1.47v4.48h1.176v-4.77a3.228,3.228,0,0,0-.311-1.47,2.135,2.135,0,0,0-.882-0.93,2.652,2.652,0,0,0-1.351-.32,2.8,2.8,0,0,0-1.411.33,2.015,2.015,0,0,0-.858.96h-0.11v-4.09h-1.175Zm10.11,10.42a3.428,3.428,0,0,0,1.809-.46,3.036,3.036,0,0,0,1.179-1.32,4.669,4.669,0,0,0,.41-2.03,4.746,4.746,0,0,0-.41-2.04,3.042,3.042,0,0,0-1.176-1.32,3.871,3.871,0,0,0-3.623,0,3.042,3.042,0,0,0-1.176,1.32,4.746,4.746,0,0,0-.41,2.04,4.669,4.669,0,0,0,.41,2.03,3.042,3.042,0,0,0,1.179,1.32,3.427,3.427,0,0,0,1.808.46h0Zm0-1.06a1.934,1.934,0,0,1-1.613-.72,3.917,3.917,0,0,1,0-4.06,2.148,2.148,0,0,1,3.227,0,3.917,3.917,0,0,1,0,4.06,1.936,1.936,0,0,1-1.614.72h0Zm4.7-7.93a0.789,0.789,0,0,0,.581-0.24,0.818,0.818,0,0,0,.24-0.58,0.821,0.821,0,0,0-1.641,0,0.813,0.813,0,0,0,.243.58,0.791,0.791,0,0,0,.577.24h0Zm-0.588,1.49v7.37h1.176v-7.37h-1.176Zm7.165,2.26h1.189a2.679,2.679,0,0,0-.5-1.21,2.754,2.754,0,0,0-1.059-.86,3.535,3.535,0,0,0-1.532-.31,3.365,3.365,0,0,0-1.784.46,3.145,3.145,0,0,0-1.179,1.33,4.506,4.506,0,0,0-.414,1.99,4.656,4.656,0,0,0,.414,2.03,3.058,3.058,0,0,0,1.179,1.34,3.294,3.294,0,0,0,1.791.47,3.641,3.641,0,0,0,1.521-.3,2.694,2.694,0,0,0,1.056-.83,2.736,2.736,0,0,0,.506-1.22H851.1a1.59,1.59,0,0,1-.66.96,2.191,2.191,0,0,1-1.241.33,1.919,1.919,0,0,1-1.138-.34,2.191,2.191,0,0,1-.755-0.97,3.745,3.745,0,0,1-.267-1.47,3.647,3.647,0,0,1,.263-1.44,2.119,2.119,0,0,1,.752-0.95,2.005,2.005,0,0,1,1.145-.34,2.025,2.025,0,0,1,1.255.38,1.691,1.691,0,0,1,.646.95h0Zm7.821,3.21h-1.176a1.622,1.622,0,0,1-.711.74,2.511,2.511,0,0,1-1.19.25,1.969,1.969,0,0,1-1.09-.29,2.017,2.017,0,0,1-.739-0.82,3.045,3.045,0,0,1-.3-1.26v-0.06h5.3v-0.45a4.662,4.662,0,0,0-.386-1.97,2.909,2.909,0,0,0-1.108-1.29,3.148,3.148,0,0,0-1.705-.44,3.188,3.188,0,0,0-1.757.47,3.071,3.071,0,0,0-1.159,1.33,4.714,4.714,0,0,0-.407,2.02,4.667,4.667,0,0,0,.4,2.01,3,3,0,0,0,1.155,1.33,3.282,3.282,0,0,0,1.764.46,3.586,3.586,0,0,0,2.02-.54,2.574,2.574,0,0,0,1.084-1.49h0Zm-3.118-4.56a1.839,1.839,0,0,1,1.713,1.03,2.629,2.629,0,0,1,.263,1.14h-4.061a2.664,2.664,0,0,1,.315-1.14,2.031,2.031,0,0,1,.731-0.76,2.007,2.007,0,0,1,1.039-.27h0Zm3.726,1.11a1.709,1.709,0,0,0,.482,1.27,3.224,3.224,0,0,0,1.528.73l1.265,0.3a1.211,1.211,0,0,1,1.169,1.04,0.892,0.892,0,0,1-.219.6,1.5,1.5,0,0,1-.605.41,2.651,2.651,0,0,1-.878.14,2.155,2.155,0,0,1-1.135-.27,1.311,1.311,0,0,1-.6-0.75h-1.21a1.951,1.951,0,0,0,.441,1.07,2.52,2.52,0,0,0,1.012.7,4.052,4.052,0,0,0,1.446.24,3.83,3.83,0,0,0,1.507-.28,2.526,2.526,0,0,0,1.06-.79,1.852,1.852,0,0,0,.386-1.15,1.67,1.67,0,0,0-.5-1.27,3.382,3.382,0,0,0-1.555-.73l-1.135-.27a2.518,2.518,0,0,1-.967-0.41,0.783,0.783,0,0,1-.311-0.63,0.885,0.885,0,0,1,.205-0.57,1.479,1.479,0,0,1,.561-0.39,2.213,2.213,0,0,1,.793-0.14,1.958,1.958,0,0,1,1.076.27,1.169,1.169,0,0,1,.544.71h1.162a2.027,2.027,0,0,0-.441-1.05,2.4,2.4,0,0,0-.967-0.68,3.667,3.667,0,0,0-1.368-.24,3.352,3.352,0,0,0-1.4.28,2.319,2.319,0,0,0-.988.77,1.81,1.81,0,0,0-.359,1.09h0Z" transform="translate(-569.5 -2238.5)"/>
    <rect id="Line-2" data-name="Line" class="cls-4" x="189.5" y="39.5" width="140" height="1"/>
  </g>
  <g>
    <rect id="Rectangle_1_copy_3" data-name="Rectangle 1 copy 3" class="cls-5" x="0.5" y="0.5" width="149" height="40"/>
    <path id="Button" class="cls-6" d="M586.03,2260.51v-6.39H584.8v6.47a3.733,3.733,0,0,0,.471,1.88,3.2,3.2,0,0,0,1.357,1.28,4.875,4.875,0,0,0,4.177,0,3.194,3.194,0,0,0,1.357-1.28,3.723,3.723,0,0,0,.472-1.88v-6.47H591.4v6.39a2.7,2.7,0,0,1-.318,1.33,2.226,2.226,0,0,1-.926.91,3.318,3.318,0,0,1-2.885,0,2.238,2.238,0,0,1-.926-0.91,2.7,2.7,0,0,1-.318-1.33h0Zm8.692-1.88a1.709,1.709,0,0,0,.482,1.27,3.229,3.229,0,0,0,1.528.73l1.265,0.3a1.211,1.211,0,0,1,1.169,1.04,0.91,0.91,0,0,1-.219.6,1.391,1.391,0,0,1-.605.4,2.413,2.413,0,0,1-.878.15,2.155,2.155,0,0,1-1.135-.27,1.311,1.311,0,0,1-.595-0.75h-1.21a1.951,1.951,0,0,0,.441,1.07,2.52,2.52,0,0,0,1.012.7,4.052,4.052,0,0,0,1.446.24,3.83,3.83,0,0,0,1.507-.28,2.517,2.517,0,0,0,1.059-.79,1.855,1.855,0,0,0,.387-1.16,1.663,1.663,0,0,0-.5-1.26,3.382,3.382,0,0,0-1.555-.73l-1.135-.27a2.683,2.683,0,0,1-.967-0.41,0.786,0.786,0,0,1-.311-0.63,0.885,0.885,0,0,1,.205-0.57,1.479,1.479,0,0,1,.561-0.39,2.213,2.213,0,0,1,.793-0.14,1.958,1.958,0,0,1,1.076.27,1.169,1.169,0,0,1,.544.71h1.162a2.027,2.027,0,0,0-.441-1.05,2.4,2.4,0,0,0-.967-0.68,3.665,3.665,0,0,0-1.368-.25,3.356,3.356,0,0,0-1.4.29,2.331,2.331,0,0,0-.988.77,1.81,1.81,0,0,0-.359,1.09h0Zm13.416,3.45h-1.176a1.622,1.622,0,0,1-.711.74,2.507,2.507,0,0,1-1.189.25,1.972,1.972,0,0,1-1.091-.29,2.015,2.015,0,0,1-.738-0.82,3.045,3.045,0,0,1-.3-1.26v-0.06h5.3v-0.45a4.647,4.647,0,0,0-.387-1.97,2.9,2.9,0,0,0-1.107-1.29,3.156,3.156,0,0,0-1.706-.45,3.19,3.19,0,0,0-1.756.48,3.071,3.071,0,0,0-1.159,1.33,4.714,4.714,0,0,0-.407,2.02,4.652,4.652,0,0,0,.4,2.01,2.989,2.989,0,0,0,1.155,1.33,3.281,3.281,0,0,0,1.763.46,3.584,3.584,0,0,0,2.02-.54,2.569,2.569,0,0,0,1.084-1.49h0Zm-3.117-4.56a1.919,1.919,0,0,1,1.022.27,1.9,1.9,0,0,1,.69.76,2.629,2.629,0,0,1,.263,1.14h-4.06a2.678,2.678,0,0,1,.314-1.14,2.026,2.026,0,0,1,.732-0.76,2,2,0,0,1,1.039-.27h0Zm12.852,6.7a4.781,4.781,0,0,0,1.886-.37,3.524,3.524,0,0,0,1.391-1.04,3.474,3.474,0,0,0,.708-1.57h-1.251a2.42,2.42,0,0,1-.54.98,2.522,2.522,0,0,1-.947.64,3.338,3.338,0,0,1-1.247.22,2.758,2.758,0,0,1-1.641-.49,3.048,3.048,0,0,1-1.073-1.4,6.249,6.249,0,0,1,0-4.27,3.131,3.131,0,0,1,1.073-1.41,2.816,2.816,0,0,1,1.634-.49,3.115,3.115,0,0,1,1.237.25,2.575,2.575,0,0,1,.95.73,2.735,2.735,0,0,1,.554,1.09h1.251a3.626,3.626,0,0,0-.7-1.67,3.811,3.811,0,0,0-1.412-1.13,4.353,4.353,0,0,0-1.883-.4,4.192,4.192,0,0,0-2.311.63,4.016,4.016,0,0,0-1.511,1.79,7.4,7.4,0,0,0,0,5.49,4.034,4.034,0,0,0,1.514,1.79,4.192,4.192,0,0,0,2.311.63h0Zm11.72-.24v-7.37h-1.176v4.37a2.115,2.115,0,0,1-.523,1.52,1.972,1.972,0,0,1-1.486.54,1.586,1.586,0,0,1-1.272-.47,2.242,2.242,0,0,1-.4-1.47v-4.49h-1.175v4.78a2.909,2.909,0,0,0,.642,2.02,2.4,2.4,0,0,0,1.873.7,2.838,2.838,0,0,0,1.422-.33,2.041,2.041,0,0,0,.862-0.95h0.109v1.15h1.121Zm2.075-7.37v7.37h1.176v-4.56a1.79,1.79,0,0,1,.249-0.93,1.7,1.7,0,0,1,.69-0.63,2.043,2.043,0,0,1,1-.23,3.424,3.424,0,0,1,.424.02c0.168,0.02.278,0.03,0.328,0.04v-1.17a4.885,4.885,0,0,0-.588-0.04,2.73,2.73,0,0,0-.912.16,2.131,2.131,0,0,0-.725.44,1.389,1.389,0,0,0-.407.63h-0.109v-1.1h-1.121Zm5.192,0v7.37h1.176v-4.56a1.79,1.79,0,0,1,.249-0.93,1.7,1.7,0,0,1,.691-0.63,2.039,2.039,0,0,1,.994-0.23,3.424,3.424,0,0,1,.424.02c0.168,0.02.278,0.03,0.328,0.04v-1.17a4.885,4.885,0,0,0-.588-0.04,2.735,2.735,0,0,0-.912.16,2.131,2.131,0,0,0-.725.44,1.389,1.389,0,0,0-.407.63h-0.109v-1.1H636.86Zm11.248,5.47h-1.175a1.622,1.622,0,0,1-.711.74,2.511,2.511,0,0,1-1.19.25,1.969,1.969,0,0,1-1.09-.29,2.015,2.015,0,0,1-.738-0.82,3.029,3.029,0,0,1-.3-1.26v-0.06h5.3v-0.45a4.662,4.662,0,0,0-.386-1.97,2.909,2.909,0,0,0-1.108-1.29,3.155,3.155,0,0,0-1.705-.45,3.194,3.194,0,0,0-1.757.48,3.077,3.077,0,0,0-1.159,1.33,4.714,4.714,0,0,0-.406,2.02,4.667,4.667,0,0,0,.4,2.01,3,3,0,0,0,1.155,1.33,3.282,3.282,0,0,0,1.764.46,3.586,3.586,0,0,0,2.02-.54,2.568,2.568,0,0,0,1.083-1.49h0Zm-3.117-4.56a1.839,1.839,0,0,1,1.713,1.03,2.629,2.629,0,0,1,.263,1.14h-4.061a2.679,2.679,0,0,1,.315-1.14,2.031,2.031,0,0,1,.731-0.76,2.007,2.007,0,0,1,1.039-.27h0Zm4.919-.91v7.37h1.176v-4.36a2.451,2.451,0,0,1,.239-1.11,1.735,1.735,0,0,1,.673-0.72,2.084,2.084,0,0,1,1.022-.25,1.634,1.634,0,0,1,1.309.49,2.159,2.159,0,0,1,.428,1.47v4.48h1.175v-4.77a2.829,2.829,0,0,0-.67-2.02,2.507,2.507,0,0,0-1.907-.71,2.637,2.637,0,0,0-1.377.34,2.1,2.1,0,0,0-.838.96h-0.109v-1.17H649.91Zm9.7-1.9h-1.176v1.9h-1.189v0.99h1.189v4.47a2.589,2.589,0,0,0,.215,1.14,1.289,1.289,0,0,0,.681.63,3.218,3.218,0,0,0,1.23.2,4.735,4.735,0,0,0,.691-0.07v-0.99a5.421,5.421,0,0,1-.547.03,1.047,1.047,0,0,1-.834-0.3,1.386,1.386,0,0,1-.26-0.94v-4.17h1.641v-0.99h-1.641v-1.9Zm10.965-.59h-3.726v9.86h1.231v-3.52h2.481a3.286,3.286,0,0,0,1.638-.4,2.9,2.9,0,0,0,1.127-1.12,3.249,3.249,0,0,0,.407-1.63,3.337,3.337,0,0,0-.4-1.65,2.812,2.812,0,0,0-1.117-1.13,3.286,3.286,0,0,0-1.641-.41h0Zm-2.5,5.25v-4.16h2.174a2.3,2.3,0,0,1,1.644.54,2.047,2.047,0,0,1,.571,1.56,1.979,1.979,0,0,1-.581,1.52,2.313,2.313,0,0,1-1.634.54h-2.174Zm9.423,4.74a2.761,2.761,0,0,0,1.326-.31,2.435,2.435,0,0,0,.944-0.9h0.109v1.08H681v-5.04a2.545,2.545,0,0,0-.328-1.32,2.129,2.129,0,0,0-.957-0.84,3.5,3.5,0,0,0-1.518-.3,3.922,3.922,0,0,0-1.408.25,2.577,2.577,0,0,0-1.018.68,1.9,1.9,0,0,0-.465,1.04H676.5a1.078,1.078,0,0,1,.561-0.68,2.264,2.264,0,0,1,1.1-.24,1.879,1.879,0,0,1,1.245.36,1.3,1.3,0,0,1,.423,1.05v0.67l-2.126.13a3.463,3.463,0,0,0-1.989.63,1.886,1.886,0,0,0-.7,1.55,2.029,2.029,0,0,0,1.21,1.92,2.936,2.936,0,0,0,1.278.27h0Zm0.219-1.03a1.732,1.732,0,0,1-1.073-.32,1.03,1.03,0,0,1-.417-0.87,1,1,0,0,1,.389-0.85,2.211,2.211,0,0,1,1.224-.35l1.982-.13v0.68a1.671,1.671,0,0,1-.273.93,1.9,1.9,0,0,1-.755.67,2.387,2.387,0,0,1-1.077.24h0Zm8.35,3.73a4.25,4.25,0,0,0,1.74-.33,2.559,2.559,0,0,0,1.142-.94,2.531,2.531,0,0,0,.4-1.43v-7.5H688.23v1.17h-0.11a2.344,2.344,0,0,0-.957-0.94,2.807,2.807,0,0,0-1.408-.36,2.878,2.878,0,0,0-1.634.47,3,3,0,0,0-1.077,1.3,4.68,4.68,0,0,0-.379,1.94,4.632,4.632,0,0,0,.376,1.93,2.806,2.806,0,0,0,2.714,1.75,2.779,2.779,0,0,0,1.36-.33,2.392,2.392,0,0,0,.95-0.94h0.11v1.45a1.583,1.583,0,0,1-.557,1.28,2.4,2.4,0,0,1-1.549.46,2.587,2.587,0,0,1-1.264-.27,1.074,1.074,0,0,1-.581-0.72h-1.245a2.031,2.031,0,0,0,.486,1.06,2.537,2.537,0,0,0,1.063.7,4.3,4.3,0,0,0,1.541.25h0Zm2.133-6.62a3.479,3.479,0,0,1-.263,1.4,2.08,2.08,0,0,1-.755.92,2.047,2.047,0,0,1-1.169.32,1.981,1.981,0,0,1-1.156-.32,2.029,2.029,0,0,1-.728-0.92,4.06,4.06,0,0,1,0-2.8,2.029,2.029,0,0,1,.728-0.92,1.985,1.985,0,0,1,1.156-.33,2.017,2.017,0,0,1,1.924,1.25,3.479,3.479,0,0,1,.263,1.4h0Zm9.28,1.89h-1.176a1.622,1.622,0,0,1-.711.74,2.507,2.507,0,0,1-1.189.25,1.972,1.972,0,0,1-1.091-.29,2.015,2.015,0,0,1-.738-0.82,3.045,3.045,0,0,1-.3-1.26v-0.06h5.3v-0.45a4.647,4.647,0,0,0-.387-1.97,2.9,2.9,0,0,0-1.107-1.29,3.156,3.156,0,0,0-1.706-.45,3.19,3.19,0,0,0-1.756.48,3.071,3.071,0,0,0-1.159,1.33,4.714,4.714,0,0,0-.407,2.02,4.667,4.667,0,0,0,.4,2.01,3,3,0,0,0,1.156,1.33,3.281,3.281,0,0,0,1.763.46,3.584,3.584,0,0,0,2.02-.54,2.569,2.569,0,0,0,1.084-1.49h0Zm-3.117-4.56a1.919,1.919,0,0,1,1.022.27,1.9,1.9,0,0,1,.69.76,2.629,2.629,0,0,1,.263,1.14h-4.06a2.678,2.678,0,0,1,.314-1.14,2.026,2.026,0,0,1,.732-0.76,2,2,0,0,1,1.039-.27h0Zm4.748,1.11a1.708,1.708,0,0,0,.481,1.27,3.229,3.229,0,0,0,1.528.73l1.265,0.3a1.211,1.211,0,0,1,1.169,1.04,0.91,0.91,0,0,1-.219.6,1.385,1.385,0,0,1-.605.4,2.409,2.409,0,0,1-.878.15,2.155,2.155,0,0,1-1.135-.27,1.315,1.315,0,0,1-.6-0.75h-1.21a1.951,1.951,0,0,0,.441,1.07,2.52,2.52,0,0,0,1.012.7,4.052,4.052,0,0,0,1.446.24,3.83,3.83,0,0,0,1.507-.28,2.526,2.526,0,0,0,1.06-.79,1.86,1.86,0,0,0,.386-1.16,1.663,1.663,0,0,0-.5-1.26,3.382,3.382,0,0,0-1.555-.73l-1.135-.27a2.683,2.683,0,0,1-.967-0.41,0.786,0.786,0,0,1-.311-0.63,0.891,0.891,0,0,1,.205-0.57,1.479,1.479,0,0,1,.561-0.39,2.217,2.217,0,0,1,.793-0.14,1.958,1.958,0,0,1,1.076.27,1.169,1.169,0,0,1,.544.71h1.162a2.027,2.027,0,0,0-.441-1.05,2.4,2.4,0,0,0-.967-0.68,3.664,3.664,0,0,0-1.367-.25,3.357,3.357,0,0,0-1.4.29,2.331,2.331,0,0,0-.988.77,1.809,1.809,0,0,0-.358,1.09h0Z" transform="translate(-569.5 -2238.5)"/>
  </g>
</svg>
