<svg id="headlines.svg" xmlns="http://www.w3.org/2000/svg" width="201" height="237" viewBox="0 0 201 237">
  <defs>
    <style>
      .cls-1 {
        fill: none;
      }

      .cls-1, .cls-3 {
        stroke: #2ea3ff;
        stroke-linejoin: round;
        stroke-width: 1px;
      }

      .cls-1, .cls-2 {
        opacity: 0.7;
      }

      .cls-2, .cls-6 {
        fill: #2284e6;
      }

      .cls-2, .cls-4, .cls-6 {
        fill-rule: evenodd;
      }

      .cls-3, .cls-5 {
        fill: #2ea3ff;
      }

      .cls-3, .cls-4 {
        opacity: 0.5;
      }

      .cls-4 {
        fill: #fff;
      }

      .cls-5 {
        opacity: 0.2;
      }
    </style>
  </defs>
  <rect id="Panel_copy" data-name="Panel copy" class="cls-1" x="0.5" y="0.5" width="200" height="236" rx="4" ry="4"/>
  <path id="Forgot_password_" data-name="Forgot password?" class="cls-2" d="M640.622,2886.55h-3.295v6.2h0.855v-2.73h2.026v-0.67h-2.026v-2.12h2.341Zm2.457,1.35c-1.351,0-2.125,1.01-2.125,2.48,0,1.51.765,2.48,2.116,2.48s2.115-1.02,2.115-2.49C645.185,2888.87,644.429,2887.9,643.079,2887.9Zm0,0.66c0.783,0,1.215.58,1.215,1.81,0,1.25-.432,1.82-1.224,1.82s-1.225-.57-1.225-1.81S642.286,2888.56,643.079,2888.56Zm5.31-.66a1.355,1.355,0,0,0-1.27,1.07l-0.081-.96h-0.711v4.74h0.828v-2.71c0.2-.91.54-1.33,1.135-1.33a1.759,1.759,0,0,1,.414.05l0.153-.81A2.4,2.4,0,0,0,648.389,2887.9Zm4.77-.43a4.057,4.057,0,0,1-2.17.43,1.688,1.688,0,0,0-1.827,1.65,1.361,1.361,0,0,0,.8,1.32,0.941,0.941,0,0,0,.7,1.74h0.748c0.594,0,.954.22,0.954,0.67,0,0.48-.36.74-1.387,0.74-1.044,0-1.287-.25-1.287-0.79h-0.747c0,0.96.486,1.44,2.034,1.44,1.468,0,2.224-.52,2.224-1.44a1.427,1.427,0,0,0-1.62-1.32h-0.757c-0.486,0-.621-0.17-0.621-0.38a0.577,0.577,0,0,1,.234-0.45,1.737,1.737,0,0,0,.6.09,1.612,1.612,0,0,0,1.81-1.61,1.238,1.238,0,0,0-.837-1.19,4.482,4.482,0,0,0,1.386-.15Zm-2.17,1.02a0.923,0.923,0,0,1,1.018,1.06,0.945,0.945,0,0,1-1,1.08,0.968,0.968,0,0,1-1-1.08A0.948,0.948,0,0,1,650.989,2888.49Zm4.734-.59c-1.35,0-2.124,1.01-2.124,2.48,0,1.51.765,2.48,2.115,2.48s2.116-1.02,2.116-2.49C657.83,2888.87,657.074,2887.9,655.723,2887.9Zm0,0.66c0.784,0,1.216.58,1.216,1.81,0,1.25-.432,1.82-1.225,1.82s-1.224-.57-1.224-1.81S654.931,2888.56,655.723,2888.56Zm5.329,3.41a1.185,1.185,0,0,1-.631.2c-0.414,0-.567-0.22-0.567-0.7v-2.83h1.035l0.091-.63h-1.126v-1.17l-0.828.09v1.08H658.2v0.63h0.828v2.87a1.192,1.192,0,0,0,1.278,1.35,1.788,1.788,0,0,0,1.063-.33Zm5.282-4.07a1.733,1.733,0,0,0-1.4.74l-0.063-.63h-0.711v6.66l0.828-.1v-2.25a1.528,1.528,0,0,0,1.242.54c1.225,0,1.864-1.05,1.864-2.49C668.09,2888.88,667.6,2887.9,666.334,2887.9Zm-0.306,4.28a1.213,1.213,0,0,1-1.044-.57v-2.32a1.441,1.441,0,0,1,1.143-.74c0.712,0,1.072.59,1.072,1.82C667.2,2891.62,666.785,2892.18,666.028,2892.18Zm6.445-.54v-2.17a1.441,1.441,0,0,0-1.666-1.57,4.772,4.772,0,0,0-1.638.32l0.207,0.6a4.3,4.3,0,0,1,1.278-.25,0.831,0.831,0,0,1,.99.94v0.35h-0.729c-1.323,0-2.088.55-2.088,1.57a1.381,1.381,0,0,0,1.512,1.43,1.629,1.629,0,0,0,1.414-.71,0.971,0.971,0,0,0,.927.71l0.189-.58A0.559,0.559,0,0,1,672.473,2891.64Zm-1.945.6a0.75,0.75,0,0,1-.819-0.86c0-.65.441-0.97,1.314-0.97h0.621v1.09A1.229,1.229,0,0,1,670.528,2892.24Zm4.707-4.34a1.5,1.5,0,0,0-1.71,1.3c0,0.67.4,1.11,1.431,1.38,0.918,0.24,1.152.42,1.152,0.89a0.838,0.838,0,0,1-1.017.72,2.139,2.139,0,0,1-1.332-.46l-0.441.51a2.63,2.63,0,0,0,1.791.62,1.611,1.611,0,0,0,1.873-1.44c0-.83-0.577-1.23-1.576-1.48-0.765-.2-1.017-0.38-1.017-0.76a0.727,0.727,0,0,1,.873-0.63,2.195,2.195,0,0,1,1.233.41l0.352-.52A2.535,2.535,0,0,0,675.235,2887.9Zm3.978,0a1.5,1.5,0,0,0-1.71,1.3c0,0.67.4,1.11,1.431,1.38,0.918,0.24,1.152.42,1.152,0.89a0.838,0.838,0,0,1-1.017.72,2.139,2.139,0,0,1-1.332-.46l-0.442.51a2.634,2.634,0,0,0,1.792.62,1.611,1.611,0,0,0,1.873-1.44c0-.83-0.577-1.23-1.576-1.48-0.765-.2-1.017-0.38-1.017-0.76a0.727,0.727,0,0,1,.873-0.63,2.195,2.195,0,0,1,1.233.41l0.352-.52A2.535,2.535,0,0,0,679.213,2887.9Zm8.02,0.11h-0.792l-0.864,4.16-0.891-4.16h-0.928l-0.936,4.16-0.855-4.16h-0.829l1.108,4.74h1.1l0.855-4,0.829,4h1.125Zm2.5-.11c-1.35,0-2.124,1.01-2.124,2.48,0,1.51.765,2.48,2.115,2.48s2.116-1.02,2.116-2.49C691.841,2888.87,691.085,2887.9,689.734,2887.9Zm0,0.66c0.783,0,1.216.58,1.216,1.81,0,1.25-.433,1.82-1.225,1.82s-1.224-.57-1.224-1.81S688.942,2888.56,689.734,2888.56Zm5.31-.66a1.354,1.354,0,0,0-1.269,1.07l-0.081-.96h-0.711v4.74h0.828v-2.71c0.2-.91.54-1.33,1.134-1.33a1.759,1.759,0,0,1,.414.05l0.153-.81A2.4,2.4,0,0,0,695.044,2887.9Zm3.942-1.9v2.48a1.71,1.71,0,0,0-1.278-.58c-1.161,0-1.863,1.05-1.863,2.5,0,1.48.639,2.46,1.791,2.46a1.584,1.584,0,0,0,1.368-.77l0.081,0.66h0.73v-6.65Zm-1.17,6.2c-0.684,0-1.08-.57-1.08-1.82,0-1.23.441-1.83,1.152-1.83a1.365,1.365,0,0,1,1.1.63v2.32A1.36,1.36,0,0,1,697.816,2892.2Zm4.77-5.76a2.353,2.353,0,0,0-1.873.89l0.568,0.44a1.592,1.592,0,0,1,1.251-.65,0.782,0.782,0,0,1,.909.78c0,0.97-1.584.82-1.584,2.33v0.45h0.819v-0.41c0-1.18,1.629-.99,1.629-2.43A1.506,1.506,0,0,0,702.586,2886.44Zm-0.3,5.17a0.625,0.625,0,1,0,.63.62A0.617,0.617,0,0,0,702.289,2891.61Z" transform="translate(-569.5 -2669.5)"/>
  <rect id="Rounded_Rectangle_2_copy" data-name="Rounded Rectangle 2 copy" class="cls-3" x="27.5" y="181.5" width="147" height="25" rx="4" ry="4"/>
  <path id="Sign_in" data-name="Sign in" class="cls-4" d="M656,2858.56c-1.523,0-2.6.89-2.6,2.16s0.84,1.9,2.447,2.39c1.4,0.43,1.787.79,1.787,1.59a1.54,1.54,0,0,1-1.775,1.48,3.194,3.194,0,0,1-2.159-.84l-0.635.71a3.865,3.865,0,0,0,2.806,1.06c1.859,0,2.95-1,2.95-2.44,0-1.59-1.127-2.1-2.446-2.51-1.487-.46-1.811-0.79-1.811-1.49a1.263,1.263,0,0,1,1.487-1.17,2.809,2.809,0,0,1,1.883.72l0.624-.7A3.5,3.5,0,0,0,656,2858.56Zm4.681-.95a0.739,0.739,0,0,0-.768.76,0.774,0.774,0,0,0,1.547,0A0.741,0.741,0,0,0,660.679,2857.61Zm0.564,3.04h-1.1v6.32h1.1v-6.32Zm6.753-.71a5.357,5.357,0,0,1-2.89.56,2.26,2.26,0,0,0-2.435,2.21,1.8,1.8,0,0,0,1.068,1.75,1.377,1.377,0,0,0-.7,1.12c0,0.63.5,1.2,1.631,1.2h1c0.791,0,1.271.3,1.271,0.9,0,0.63-.48.98-1.847,0.98-1.391,0-1.715-.34-1.715-1.06h-1c0,1.29.647,1.92,2.71,1.92,1.955,0,2.962-.69,2.962-1.92a1.9,1.9,0,0,0-2.158-1.75H664.89c-0.647,0-.827-0.22-0.827-0.51a0.762,0.762,0,0,1,.311-0.59,2.68,2.68,0,0,0,.8.12,2.152,2.152,0,0,0,2.411-2.15,1.655,1.655,0,0,0-1.116-1.59,6.425,6.425,0,0,0,1.847-.19Zm-2.89,1.36a1.225,1.225,0,0,1,1.355,1.4,1.258,1.258,0,0,1-1.331,1.44,1.282,1.282,0,0,1-1.331-1.43A1.26,1.26,0,0,1,665.106,2861.3Zm7.031-.8a2.312,2.312,0,0,0-1.931,1.08l-0.1-.93h-0.947v6.32h1.1v-4.49a1.909,1.909,0,0,1,1.607-1.11c0.612,0,1,.27,1,1.22v4.38h1.1v-4.53A1.736,1.736,0,0,0,672.137,2860.5Zm7.178-2.89a0.739,0.739,0,0,0-.768.76,0.774,0.774,0,0,0,1.547,0A0.741,0.741,0,0,0,679.315,2857.61Zm0.563,3.04h-1.1v6.32h1.1v-6.32Zm4.955-.15a2.312,2.312,0,0,0-1.931,1.08l-0.1-.93h-0.947v6.32h1.1v-4.49a1.909,1.909,0,0,1,1.607-1.11c0.612,0,1,.27,1,1.22v4.38h1.1v-4.53A1.736,1.736,0,0,0,684.833,2860.5Z" transform="translate(-569.5 -2669.5)"/>
  <rect id="Rounded_Rectangle_2" data-name="Rounded Rectangle 2" class="cls-1" x="27.5" y="151.5" width="147" height="23" rx="4" ry="4"/>
  <path id="Password" class="cls-2" d="M607.808,2828.61H606v6.89h0.95v-2.53h0.869c1.52,0,2.669-.65,2.669-2.23C610.487,2829.29,609.468,2828.61,607.808,2828.61Zm-0.03,3.61h-0.829v-2.87H607.8c1.02,0,1.68.37,1.68,1.4C609.478,2831.92,608.8,2832.22,607.778,2832.22Zm6.979,2.05v-2.41a1.6,1.6,0,0,0-1.849-1.75,5.159,5.159,0,0,0-1.819.36l0.23,0.67a4.718,4.718,0,0,1,1.42-.28,0.922,0.922,0,0,1,1.1,1.04v0.39h-0.81c-1.469,0-2.318.61-2.318,1.74a1.531,1.531,0,0,0,1.679,1.59,1.8,1.8,0,0,0,1.569-.79,1.062,1.062,0,0,0,1.029.79l0.21-.64A0.624,0.624,0,0,1,614.757,2834.27Zm-2.158.66a0.831,0.831,0,0,1-.91-0.95c0-.72.49-1.08,1.459-1.08h0.69v1.21A1.354,1.354,0,0,1,612.6,2834.93Zm5.23-4.82a1.668,1.668,0,0,0-1.9,1.45c0,0.74.449,1.23,1.589,1.53,1.019,0.27,1.279.47,1.279,0.99a0.931,0.931,0,0,1-1.129.8,2.39,2.39,0,0,1-1.48-.51l-0.489.56a2.917,2.917,0,0,0,1.989.69c1.069,0,2.078-.5,2.078-1.6,0-.92-0.639-1.36-1.749-1.64-0.849-.22-1.129-0.42-1.129-0.85a0.8,0.8,0,0,1,.97-0.69,2.43,2.43,0,0,1,1.369.45l0.39-.58A2.8,2.8,0,0,0,617.829,2830.11Zm4.42,0a1.668,1.668,0,0,0-1.9,1.45c0,0.74.449,1.23,1.589,1.53,1.019,0.27,1.279.47,1.279,0.99a0.931,0.931,0,0,1-1.129.8,2.39,2.39,0,0,1-1.48-.51l-0.489.56a2.917,2.917,0,0,0,1.989.69c1.069,0,2.078-.5,2.078-1.6,0-.92-0.639-1.36-1.749-1.64-0.849-.22-1.129-0.42-1.129-0.85a0.8,0.8,0,0,1,.969-0.69,2.431,2.431,0,0,1,1.37.45l0.39-.58A2.8,2.8,0,0,0,622.249,2830.11Zm8.907,0.12h-0.88l-0.959,4.63-0.989-4.63H627.3l-1.039,4.63-0.95-4.63H624.39l1.229,5.27h1.219l0.95-4.44,0.919,4.44h1.25Zm2.782-.12c-1.5,0-2.358,1.13-2.358,2.76,0,1.67.849,2.75,2.348,2.75s2.349-1.13,2.349-2.76C636.277,2831.19,635.437,2830.11,633.938,2830.11Zm0,0.74c0.87,0,1.349.64,1.349,2.01s-0.479,2.02-1.359,2.02-1.359-.64-1.359-2.01S633.059,2830.85,633.938,2830.85Zm5.9-.74a1.5,1.5,0,0,0-1.409,1.19l-0.09-1.07h-0.79v5.27h0.92v-3.01c0.22-1.01.6-1.48,1.259-1.48a1.653,1.653,0,0,1,.46.06l0.17-.9A2.242,2.242,0,0,0,639.838,2830.11Zm4.379-2.11v2.76a1.889,1.889,0,0,0-1.419-.65c-1.289,0-2.069,1.17-2.069,2.78,0,1.64.71,2.73,1.989,2.73a1.759,1.759,0,0,0,1.519-.85l0.09,0.73h0.81v-7.39Zm-1.3,6.89c-0.759,0-1.2-.63-1.2-2.02,0-1.37.49-2.03,1.279-2.03a1.509,1.509,0,0,1,1.219.69v2.58A1.508,1.508,0,0,1,642.918,2834.89Z" transform="translate(-569.5 -2669.5)"/>
  <path id="msmith_mozilla.com" data-name="msmith@mozilla.com" class="cls-2" d="M626.663,2793.11a1.828,1.828,0,0,0-1.57.95,1.326,1.326,0,0,0-1.329-.95,1.761,1.761,0,0,0-1.519.89l-0.08-.77h-0.789v5.27h0.919v-3.74a1.482,1.482,0,0,1,1.239-.93c0.4,0,.74.23,0.74,1.02v3.65h0.919v-3.74a1.5,1.5,0,0,1,1.24-.93c0.4,0,.739.23,0.739,1.02v3.65h0.92v-3.78A1.43,1.43,0,0,0,626.663,2793.11Zm4.712,0a1.668,1.668,0,0,0-1.9,1.45c0,0.74.449,1.23,1.589,1.53,1.019,0.27,1.279.47,1.279,0.99a0.931,0.931,0,0,1-1.129.8,2.385,2.385,0,0,1-1.479-.51l-0.49.56a2.919,2.919,0,0,0,1.989.69c1.069,0,2.079-.5,2.079-1.6,0-.92-0.64-1.36-1.749-1.64-0.85-.22-1.13-0.42-1.13-0.85a0.8,0.8,0,0,1,.97-0.69,2.43,2.43,0,0,1,1.369.45l0.39-.58A2.8,2.8,0,0,0,631.375,2793.11Zm8.527,0a1.828,1.828,0,0,0-1.569.95,1.327,1.327,0,0,0-1.329-.95,1.76,1.76,0,0,0-1.519.89l-0.08-.77h-0.79v5.27h0.92v-3.74a1.482,1.482,0,0,1,1.239-.93c0.4,0,.74.23,0.74,1.02v3.65h0.919v-3.74a1.5,1.5,0,0,1,1.24-.93c0.4,0,.739.23,0.739,1.02v3.65h0.92v-3.78A1.43,1.43,0,0,0,639.9,2793.11Zm3.733-2.41a0.625,0.625,0,1,0,.65.63A0.612,0.612,0,0,0,643.635,2790.7Zm0.47,2.53h-0.92v5.27h0.92v-5.27Zm4.209,4.4a1.288,1.288,0,0,1-.7.23c-0.459,0-.629-0.25-0.629-0.78v-3.14h1.149l0.1-.71h-1.249v-1.3l-0.92.11v1.19h-0.919v0.71h0.919v3.18a1.324,1.324,0,0,0,1.42,1.5,2.008,2.008,0,0,0,1.179-.36Zm3.78-4.52a1.89,1.89,0,0,0-1.559.85v-2.94l-0.92.1v7.38h0.92v-3.75a1.612,1.612,0,0,1,1.329-.92c0.5,0,.84.23,0.84,1.02v3.65h0.919v-3.78A1.451,1.451,0,0,0,652.094,2793.11Zm7.689-1.62a4.424,4.424,0,0,0-4.558,4.61,4.282,4.282,0,0,0,4.548,4.53,6.066,6.066,0,0,0,2.179-.39l-0.25-.71a5.681,5.681,0,0,1-1.919.34,3.444,3.444,0,0,1-3.628-3.77,3.55,3.55,0,0,1,3.628-3.85,2.98,2.98,0,0,1,3.308,3.2c0,1.56-.38,2.25-1.059,2.25-0.43,0-.68-0.27-0.68-1.13v-2.59a3.106,3.106,0,0,0-1.569-.4c-1.259,0-2.179.88-2.179,2.61,0,1.32.66,2.2,1.729,2.2a1.53,1.53,0,0,0,1.439-1.01,1.25,1.25,0,0,0,1.28,1.03c1.349,0,1.969-1.35,1.969-2.98A3.889,3.889,0,0,0,659.783,2791.49Zm-0.34,6.23c-0.62,0-.939-0.53-0.939-1.53,0-1.29.439-1.95,1.309-1.95a1.616,1.616,0,0,1,.709.15v2.47A1.169,1.169,0,0,1,659.443,2797.72Zm11.519-4.61a1.828,1.828,0,0,0-1.569.95,1.328,1.328,0,0,0-1.329-.95,1.759,1.759,0,0,0-1.519.89l-0.08-.77h-0.79v5.27h0.92v-3.74a1.48,1.48,0,0,1,1.239-.93c0.4,0,.74.23,0.74,1.02v3.65h0.919v-3.74a1.5,1.5,0,0,1,1.239-.93c0.4,0,.74.23,0.74,1.02v3.65h0.919v-3.78A1.429,1.429,0,0,0,670.962,2793.11Zm5.262,0c-1.5,0-2.359,1.13-2.359,2.76,0,1.67.85,2.75,2.349,2.75s2.349-1.13,2.349-2.76C678.563,2794.19,677.723,2793.11,676.224,2793.11Zm0,0.74c0.87,0,1.349.64,1.349,2.01s-0.479,2.02-1.359,2.02-1.359-.64-1.359-2.01S675.344,2793.85,676.224,2793.85Zm6.949-.62h-3.558v0.78h2.509l-2.739,3.8v0.69h3.708l0.11-.77h-2.778l2.748-3.8v-0.7Zm1.732-2.53a0.625,0.625,0,1,0,.649.63A0.612,0.612,0,0,0,684.905,2790.7Zm0.47,2.53h-0.92v5.27h0.92v-5.27Zm2.949,5.39a1.546,1.546,0,0,0,.73-0.18l-0.24-.64a0.9,0.9,0,0,1-.34.06c-0.24,0-.329-0.14-0.329-0.42V2791l-0.92.11v6.35A1.037,1.037,0,0,0,688.324,2798.62Zm2.93,0a1.546,1.546,0,0,0,.73-0.18l-0.24-.64a0.9,0.9,0,0,1-.34.06c-0.24,0-.329-0.14-0.329-0.42V2791l-0.92.11v6.35A1.037,1.037,0,0,0,691.254,2798.62Zm5.429-1.35v-2.41a1.6,1.6,0,0,0-1.849-1.75,5.154,5.154,0,0,0-1.819.36l0.23,0.67a4.712,4.712,0,0,1,1.419-.28,0.922,0.922,0,0,1,1.1,1.04v0.39h-0.81c-1.469,0-2.319.61-2.319,1.74a1.532,1.532,0,0,0,1.679,1.59,1.793,1.793,0,0,0,1.569-.79,1.062,1.062,0,0,0,1.03.79l0.21-.64A0.624,0.624,0,0,1,696.683,2797.27Zm-2.159.66a0.83,0.83,0,0,1-.909-0.95c0-.72.489-1.08,1.459-1.08h0.69v1.21A1.354,1.354,0,0,1,694.524,2797.93Zm4.291-.7a0.7,0.7,0,1,0,.7.69A0.685,0.685,0,0,0,698.815,2797.23Zm3.979-4.12c-1.429,0-2.3,1.12-2.3,2.8,0,1.7.88,2.71,2.3,2.71a2.486,2.486,0,0,0,1.609-.58l-0.42-.6a1.954,1.954,0,0,1-1.149.4c-0.83,0-1.349-.57-1.349-1.95s0.519-2.02,1.349-2.02a1.8,1.8,0,0,1,1.129.39l0.44-.58A2.342,2.342,0,0,0,702.794,2793.11Zm4.74,0c-1.5,0-2.359,1.13-2.359,2.76,0,1.67.85,2.75,2.349,2.75s2.349-1.13,2.349-2.76C709.873,2794.19,709.033,2793.11,707.534,2793.11Zm0,0.74c0.869,0,1.349.64,1.349,2.01s-0.48,2.02-1.359,2.02-1.359-.64-1.359-2.01S706.654,2793.85,707.534,2793.85Zm9.148-.74a1.826,1.826,0,0,0-1.569.95,1.328,1.328,0,0,0-1.329-.95,1.762,1.762,0,0,0-1.52.89l-0.08-.77H711.4v5.27h0.919v-3.74a1.482,1.482,0,0,1,1.24-.93c0.4,0,.739.23,0.739,1.02v3.65h0.92v-3.74a1.494,1.494,0,0,1,1.239-.93c0.4,0,.74.23,0.74,1.02v3.65h0.919v-3.78A1.429,1.429,0,0,0,716.682,2793.11Z" transform="translate(-569.5 -2669.5)"/>
  <circle class="cls-5" cx="99.5" cy="86.5" r="27"/>
  <path id="to_continue_to_Firefox_Sync" data-name="to continue to Firefox Sync" class="cls-2" d="M601.734,2715.96a1.55,1.55,0,0,1-.84.27c-0.552,0-.756-0.3-0.756-0.93v-3.77h1.38l0.12-.85h-1.5v-1.56l-1.1.13v1.43h-1.1v0.85h1.1v3.81a1.587,1.587,0,0,0,1.7,1.8,2.39,2.39,0,0,0,1.415-.43Zm3.816-5.42c-1.8,0-2.831,1.35-2.831,3.31,0,2,1.02,3.29,2.819,3.29s2.818-1.35,2.818-3.31C608.356,2711.83,607.349,2710.54,605.55,2710.54Zm0,0.88c1.043,0,1.619.77,1.619,2.41,0,1.66-.576,2.43-1.631,2.43s-1.631-.77-1.631-2.41C603.907,2712.19,604.494,2711.42,605.55,2711.42Zm10.116-.88c-1.715,0-2.759,1.34-2.759,3.35,0,2.04,1.056,3.25,2.759,3.25a3.01,3.01,0,0,0,1.931-.69l-0.5-.72a2.362,2.362,0,0,1-1.379.48c-1,0-1.619-.69-1.619-2.34s0.623-2.42,1.619-2.42a2.167,2.167,0,0,1,1.355.46l0.528-.69A2.816,2.816,0,0,0,615.666,2710.54Zm5.688,0c-1.8,0-2.831,1.35-2.831,3.31,0,2,1.02,3.29,2.819,3.29s2.818-1.35,2.818-3.31C624.16,2711.83,623.153,2710.54,621.354,2710.54Zm0,0.88c1.043,0,1.619.77,1.619,2.41,0,1.66-.576,2.43-1.631,2.43s-1.631-.77-1.631-2.41C619.711,2712.19,620.3,2711.42,621.354,2711.42Zm7.607-.88a2.3,2.3,0,0,0-1.93,1.07l-0.1-.93h-0.948V2717h1.1v-4.49a1.909,1.909,0,0,1,1.608-1.11c0.611,0,1,.27,1,1.22V2717h1.1v-4.53A1.728,1.728,0,0,0,628.961,2710.54Zm6.829,5.42a1.55,1.55,0,0,1-.84.27c-0.552,0-.756-0.3-0.756-0.93v-3.77h1.38l0.12-.85h-1.5v-1.56l-1.1.13v1.43h-1.1v0.85h1.1v3.81a1.587,1.587,0,0,0,1.7,1.8,2.39,2.39,0,0,0,1.415-.43Zm2.1-8.31a0.746,0.746,0,1,0,.779.75A0.731,0.731,0,0,0,637.891,2707.65Zm0.563,3.03h-1.1V2717h1.1v-6.32Zm5.255-.14a2.3,2.3,0,0,0-1.931,1.07l-0.1-.93h-0.947V2717h1.1v-4.49a1.909,1.909,0,0,1,1.607-1.11c0.612,0,1,.27,1,1.22V2717h1.1v-4.53A1.728,1.728,0,0,0,643.709,2710.54Zm8.759,0.14h-1.1v4.51a1.915,1.915,0,0,1-1.583,1.09c-0.684,0-.972-0.32-0.972-1.19v-4.41h-1.1v4.53a1.687,1.687,0,0,0,1.763,1.93,2.13,2.13,0,0,0,1.967-1.12l0.084,0.98h0.947v-6.32Zm7.056,2.97c0-1.93-.9-3.11-2.6-3.11-1.632,0-2.627,1.4-2.627,3.37,0,2,1.031,3.23,2.794,3.23a3.452,3.452,0,0,0,2.207-.79l-0.479-.66a2.623,2.623,0,0,1-1.644.55c-0.911,0-1.6-.56-1.7-2.02h4.03C659.512,2714.07,659.524,2713.87,659.524,2713.65Zm-1.091-.25H655.47c0.084-1.4.636-1.99,1.476-1.99,1,0,1.487.68,1.487,1.92v0.07Zm8.868,2.56a1.55,1.55,0,0,1-.839.27c-0.552,0-.756-0.3-0.756-0.93v-3.77h1.379l0.12-.85h-1.5v-1.56l-1.1.13v1.43h-1.1v0.85h1.1v3.81a1.586,1.586,0,0,0,1.7,1.8,2.394,2.394,0,0,0,1.415-.43Zm3.816-5.42c-1.8,0-2.83,1.35-2.83,3.31,0,2,1.019,3.29,2.818,3.29s2.819-1.35,2.819-3.31C673.924,2711.83,672.916,2710.54,671.117,2710.54Zm0,0.88c1.044,0,1.619.77,1.619,2.41,0,1.66-.575,2.43-1.631,2.43s-1.631-.77-1.631-2.41C669.474,2712.19,670.062,2711.42,671.117,2711.42Zm12.263-2.68h-4.389V2717h1.139v-3.63h2.7v-0.9h-2.7v-2.82h3.118Zm2.342-1.09a0.746,0.746,0,1,0,.78.75A0.73,0.73,0,0,0,685.722,2707.65Zm0.564,3.03h-1.1V2717h1.1v-6.32Zm5.027-.14a1.805,1.805,0,0,0-1.691,1.42l-0.108-1.28h-0.948V2717h1.1v-3.61c0.264-1.21.719-1.78,1.511-1.78a1.905,1.905,0,0,1,.552.08l0.2-1.08A2.585,2.585,0,0,0,691.313,2710.54Zm6.539,3.11c0-1.93-.9-3.11-2.6-3.11-1.631,0-2.626,1.4-2.626,3.37,0,2,1.031,3.23,2.794,3.23a3.454,3.454,0,0,0,2.207-.79l-0.48-.66a2.62,2.62,0,0,1-1.643.55c-0.911,0-1.6-.56-1.7-2.02h4.03C697.84,2714.07,697.852,2713.87,697.852,2713.65Zm-1.092-.25H693.8c0.084-1.4.636-1.99,1.475-1.99,1,0,1.487.68,1.487,1.92v0.07Zm5.065-4.51a2.7,2.7,0,0,1,1.1.24l0.348-.8a3.426,3.426,0,0,0-1.511-.33,1.767,1.767,0,0,0-1.979,1.82v0.86h-1.127v0.85h1.127V2717h1.1v-5.47h1.415l0.12-.85H700.89v-0.88A0.787,0.787,0,0,1,701.825,2708.89Zm4.128,1.65c-1.8,0-2.831,1.35-2.831,3.31,0,2,1.02,3.29,2.819,3.29s2.818-1.35,2.818-3.31C708.759,2711.83,707.752,2710.54,705.953,2710.54Zm0,0.88c1.043,0,1.619.77,1.619,2.41,0,1.66-.576,2.43-1.631,2.43s-1.631-.77-1.631-2.41C704.31,2712.19,704.9,2711.42,705.953,2711.42Zm6.816,2.2,1.943-2.94h-1.247l-1.332,2.31-1.319-2.31h-1.295l1.955,2.99-2.207,3.33h1.247l1.571-2.67,1.548,2.67h1.331Zm8.676-5.03c-1.523,0-2.6.89-2.6,2.16s0.84,1.9,2.447,2.39c1.4,0.43,1.787.79,1.787,1.59a1.54,1.54,0,0,1-1.775,1.48,3.194,3.194,0,0,1-2.159-.84l-0.635.71a3.865,3.865,0,0,0,2.806,1.06c1.859,0,2.95-1,2.95-2.44,0-1.59-1.127-2.1-2.446-2.51-1.487-.46-1.811-0.79-1.811-1.49a1.263,1.263,0,0,1,1.487-1.17,2.809,2.809,0,0,1,1.883.72l0.624-.7A3.5,3.5,0,0,0,721.445,2708.59Zm8.843,2.09h-1.14l-1.655,5.52-1.691-5.52h-1.175l2.123,6.32h0.371a2.148,2.148,0,0,1-2,1.69l0.119,0.86a3.206,3.206,0,0,0,2.939-2.51Zm4.237-.14a2.3,2.3,0,0,0-1.931,1.07l-0.1-.93H731.55V2717h1.1v-4.49a1.907,1.907,0,0,1,1.607-1.11c0.611,0,1,.27,1,1.22V2717h1.1v-4.53A1.728,1.728,0,0,0,734.525,2710.54Zm6.36,0c-1.715,0-2.759,1.34-2.759,3.35,0,2.04,1.056,3.25,2.759,3.25a3.01,3.01,0,0,0,1.931-.69l-0.5-.72a2.359,2.359,0,0,1-1.379.48c-1,0-1.619-.69-1.619-2.34s0.623-2.42,1.619-2.42a2.165,2.165,0,0,1,1.355.46l0.528-.69A2.816,2.816,0,0,0,740.885,2710.54Z" transform="translate(-569.5 -2669.5)"/>
  <path id="Sign_in-2" data-name="Sign in" class="cls-6" d="M653.962,2683.68c-1.9,0-3.292,1.07-3.292,2.68,0,1.47.882,2.28,2.913,2.91,1.513,0.46,1.92.83,1.92,1.64a1.518,1.518,0,0,1-1.779,1.44,3.6,3.6,0,0,1-2.48-.97l-0.966,1.07a4.831,4.831,0,0,0,3.488,1.33c2.311,0,3.67-1.23,3.67-2.97,0-1.82-1.177-2.52-2.872-3.05-1.611-.51-1.989-0.82-1.989-1.52a1.257,1.257,0,0,1,1.5-1.14,3.264,3.264,0,0,1,2.171.82l0.91-1.05A4.357,4.357,0,0,0,653.962,2683.68Zm5.529-1.27a1.086,1.086,0,1,0,1.134,1.09A1.071,1.071,0,0,0,659.491,2682.41Zm0.91,3.75h-1.793v7.41H660.4v-7.41Zm7.8-1.04a5.989,5.989,0,0,1-3.46.83c-1.793,0-3.067,1.05-3.067,2.66a2.17,2.17,0,0,0,1.3,2.09,1.658,1.658,0,0,0-.868,1.37c0,0.77.63,1.43,2.115,1.43h1.121c0.826,0,1.26.34,1.26,0.88,0,0.59-.42.98-1.863,0.98-1.47,0-1.793-.32-1.793-1.06h-1.61c0,1.48.742,2.32,3.375,2.32,2.424,0,3.7-.88,3.7-2.36,0-1.22-1.064-2.1-2.7-2.1h-1.135c-0.742,0-.9-0.26-0.9-0.52a0.677,0.677,0,0,1,.308-0.55,3.13,3.13,0,0,0,.883.11c1.863,0,2.983-1.05,2.983-2.49a1.954,1.954,0,0,0-1.345-1.91,6.558,6.558,0,0,0,2.144-.25Zm-3.432,2.05a1.211,1.211,0,0,1,1.345,1.4,1.263,1.263,0,0,1-1.317,1.47,1.286,1.286,0,0,1-1.316-1.46A1.256,1.256,0,0,1,664.769,2687.17Zm8.555-1.22a2.783,2.783,0,0,0-2.255,1.19l-0.14-.98h-1.555v7.41h1.793v-5.15a1.92,1.92,0,0,1,1.555-1.13c0.56,0,.91.27,0.91,1.2v5.08h1.793v-5.37A1.994,1.994,0,0,0,673.324,2685.95Zm7.866-3.54a1.086,1.086,0,1,0,1.135,1.09A1.071,1.071,0,0,0,681.19,2682.41Zm0.911,3.75h-1.793v7.41H682.1v-7.41Zm5.755-.21a2.782,2.782,0,0,0-2.255,1.19l-0.14-.98h-1.555v7.41H685.7v-5.15a1.92,1.92,0,0,1,1.555-1.13c0.56,0,.91.27,0.91,1.2v5.08h1.793v-5.37A1.994,1.994,0,0,0,687.856,2685.95Z" transform="translate(-569.5 -2669.5)"/>
</svg>
