<svg id="hoverstates.svg" xmlns="http://www.w3.org/2000/svg" xmlns:xlink="http://www.w3.org/1999/xlink" width="327" height="111.5" viewBox="0 0 327 111.5">
  <defs>
    <style>
      .cls-1, .cls-10, .cls-13, .cls-2, .cls-3, .cls-7 {
        fill: #2284e6;
      }

      .cls-1, .cls-10 {
        opacity: 0.4;
      }

      .cls-2, .cls-3 {
        opacity: 0.3;
      }

      .cls-10, .cls-12, .cls-13, .cls-3, .cls-4, .cls-6, .cls-7, .cls-8 {
        fill-rule: evenodd;
      }

      .cls-11, .cls-4, .cls-5, .cls-6, .cls-9 {
        fill: #fff;
      }

      .cls-4, .cls-5, .cls-7, .cls-8 {
        opacity: 0.5;
      }

      .cls-6 {
        filter: url(#filter);
      }

      .cls-12, .cls-8 {
        fill: gray;
      }

      .cls-8 {
        filter: url(#filter-2);
      }

      .cls-11 {
        stroke: #2284e6;
        stroke-linejoin: round;
        stroke-width: 1px;
      }

      .cls-12 {
        filter: url(#filter-3);
      }

      .cls-13 {
        filter: url(#filter-4);
      }
    </style>
    <filter id="filter" x="593.719" y="3295.44" width="249" height="22.56" filterUnits="userSpaceOnUse">
      <feOffset result="offset" dy="1" in="SourceAlpha"/>
      <feGaussianBlur result="blur"/>
      <feFlood result="flood" flood-opacity="0.1"/>
      <feComposite result="composite" operator="in" in2="blur"/>
      <feBlend result="blend" in="SourceGraphic"/>
    </filter>
    <filter id="filter-2" x="638.344" y="3302" width="129.531" height="8.59" filterUnits="userSpaceOnUse">
      <feFlood result="flood" flood-color="#2284e6"/>
      <feComposite result="composite" operator="in" in2="SourceGraphic"/>
      <feBlend result="blend" in2="SourceGraphic"/>
    </filter>
    <filter id="filter-3" x="615.312" y="3331.03" width="119.407" height="21.28" filterUnits="userSpaceOnUse">
      <feFlood result="flood" flood-color="#2284e6"/>
      <feComposite result="composite" operator="in" in2="SourceGraphic"/>
      <feBlend result="blend" in2="SourceGraphic"/>
    </filter>
    <filter id="filter-4" x="594" y="3305" width="15" height="26" filterUnits="userSpaceOnUse">
      <feOffset result="offset" dy="1" in="SourceAlpha"/>
      <feGaussianBlur result="blur" stdDeviation="1"/>
      <feFlood result="flood" flood-opacity="0.46"/>
      <feComposite result="composite" operator="in" in2="blur"/>
      <feBlend result="blend" in="SourceGraphic"/>
    </filter>
  </defs>
  <rect class="cls-1" width="327" height="79"/>
  <rect class="cls-2" y="39" width="327" height="40"/>
  <path class="cls-3" d="M815,3285c-8.723,0-11.435-4.62-13-13-1-5.36-2.472-15-15.813-15h-180.5c-13.139,0-14.686,9.64-15.688,15-1.566,8.38-4.277,13-13,13H815Z" transform="translate(-570 -3246)"/>
  <path class="cls-4" d="M789.14,3269h-0.21l-0.759.76V3270H787.93l-0.821.82v0.39L787.9,3272h0.148v0.15L788.9,3273h0.211v0.21l0.1,0.1-0.1.1V3274h-0.593l-0.032.03v0.72h-1v-0.34l-0.414-.41h-0.211v-0.21l-0.789-.79h-1.139l-0.885.88V3274h-0.115l-0.447.45v0.27h-1V3274h-0.563v-0.56l-0.128-.13,0.128-.13V3273H782.1l0.819-.82V3272H783.1l0.757-.76v-0.45l-0.789-.79H782.8v-0.27l-0.726-.73h-0.243v-0.24l-0.034-.04,0.034-.03V3268h0.657v-0.75h1v0.34L783.9,3268h0.242v0.24L784.9,3269h1.2l0.725-.73V3268H787.1l0.382-.38v-0.34h1V3268h0.656v0.66l0.067,0.06-0.067.07V3269Z" transform="translate(-570 -3246)"/>
  <path id="New_Tab" data-name="New Tab" class="cls-4" d="M677.457,3275h0.956v-6.01H678.5l4.2,6.01h0.94v-7.75h-0.956v6.03H682.6l-4.206-6.03h-0.939V3275Zm12.8-1.5h-0.924a1.281,1.281,0,0,1-.558.59,2.015,2.015,0,0,1-.935.2,1.608,1.608,0,0,1-.856-0.23,1.573,1.573,0,0,1-.581-0.65,2.375,2.375,0,0,1-.233-0.99v-0.05h4.162v-0.35a3.663,3.663,0,0,0-.3-1.55,2.24,2.24,0,0,0-.87-1.01,2.751,2.751,0,0,0-2.721.02,2.453,2.453,0,0,0-.91,1.05,4.078,4.078,0,0,0,0,3.16,2.386,2.386,0,0,0,.908,1.05,2.612,2.612,0,0,0,1.386.36,2.839,2.839,0,0,0,1.587-.42,2.042,2.042,0,0,0,.851-1.18h0Zm-2.449-3.58a1.525,1.525,0,0,1,.8.22,1.466,1.466,0,0,1,.542.59,2.071,2.071,0,0,1,.207.9h-3.19a2.115,2.115,0,0,1,.247-0.9,1.574,1.574,0,0,1,.575-0.59,1.593,1.593,0,0,1,.816-0.22h0Zm9.636,5.08,1.622-5.79h-0.929L697,3273.84h-0.086l-1.294-4.63h-0.887l-1.294,4.63h-0.086l-1.139-4.63h-0.934L692.9,3275h0.934l1.289-4.48h0.086l1.3,4.48h0.94Zm8.094,0h0.967v-6.88h2.5v-0.87h-5.962v0.87h2.5V3275Zm5.645,0.1a2.116,2.116,0,0,0,1.042-.25,1.9,1.9,0,0,0,.741-0.7h0.086V3275h0.881v-3.96a2.011,2.011,0,0,0-.258-1.04,1.632,1.632,0,0,0-.752-0.66,2.71,2.71,0,0,0-1.192-.23,3,3,0,0,0-1.107.19,2.058,2.058,0,0,0-.8.54,1.47,1.47,0,0,0-.365.81H710.4a0.843,0.843,0,0,1,.441-0.53,1.734,1.734,0,0,1,.865-0.19,1.466,1.466,0,0,1,.977.28,1.037,1.037,0,0,1,.333.83v0.52l-1.67.1a2.73,2.73,0,0,0-1.563.5,1.488,1.488,0,0,0-.548,1.22,1.632,1.632,0,0,0,.252.91,1.648,1.648,0,0,0,.7.6,2.328,2.328,0,0,0,1,.21h0Zm0.172-.81a1.329,1.329,0,0,1-.843-0.25,0.808,0.808,0,0,1-.328-0.68,0.774,0.774,0,0,1,.306-0.67,1.764,1.764,0,0,1,.962-0.28l1.557-.1v0.53a1.329,1.329,0,0,1-.215.74,1.512,1.512,0,0,1-.593.52,1.821,1.821,0,0,1-.846.19h0Zm7.165,0.81a2.212,2.212,0,0,0,1.276-.37,2.435,2.435,0,0,0,.851-1.05,3.873,3.873,0,0,0,.3-1.58,3.824,3.824,0,0,0-.3-1.57,2.388,2.388,0,0,0-.849-1.05,2.362,2.362,0,0,0-2.366-.1,1.736,1.736,0,0,0-.728.74h-0.085v-3.21H715.7V3275h0.881v-0.92h0.086a1.93,1.93,0,0,0,.765.75,2.233,2.233,0,0,0,1.093.27h0Zm-0.215-5.16a1.583,1.583,0,0,1,.905.26,1.616,1.616,0,0,1,.58.74,3.46,3.46,0,0,1,0,2.33,1.616,1.616,0,0,1-.58.74,1.583,1.583,0,0,1-.905.26,1.616,1.616,0,0,1-.908-0.26,1.7,1.7,0,0,1-.593-0.76,3.27,3.27,0,0,1,0-2.29,1.7,1.7,0,0,1,.593-0.76,1.616,1.616,0,0,1,.908-0.26h0Z" transform="translate(-570 -3246)"/>
  <circle class="cls-5" cx="39" cy="24" r="7"/>
  <g id="Main_Toolbar_Items" data-name="Main Toolbar Items">
    <g id="Location_Bar" data-name="Location Bar">
      <path id="Field_-_Location" data-name="Field - Location" class="cls-6" d="M596.345,3295.44H840.084a2.639,2.639,0,0,1,2.639,2.64v15.84a2.639,2.639,0,0,1-2.639,2.64H596.345a2.639,2.639,0,0,1-2.64-2.64v-15.84A2.639,2.639,0,0,1,596.345,3295.44Z" transform="translate(-570 -3246)"/>
      <path class="cls-7" d="M832,3306.5h-3a1,1,0,0,1,0-2h1.435a3.988,3.988,0,1,0-.052,4.11l1.692,1.06a6.014,6.014,0,1,1-.075-6.43v-1.74a1,1,0,0,1,2,0v5h-2Zm0-2.1-1,.1h1v-0.1Z" transform="translate(-570 -3246)"/>
      <path id="Search_or_Enter_Address" data-name="Search or Enter Address" class="cls-8" d="M639.36,3308.29h-1.016a2.263,2.263,0,0,0,.438,1.21,2.488,2.488,0,0,0,1.048.8,3.766,3.766,0,0,0,1.508.29,3.915,3.915,0,0,0,1.594-.3,2.341,2.341,0,0,0,1.048-.84,2.273,2.273,0,0,0,.368-1.28,2.113,2.113,0,0,0-.237-1.03,1.979,1.979,0,0,0-.749-0.72,5.993,5.993,0,0,0-1.354-.51l-0.843-.22a3.1,3.1,0,0,1-1.193-.51,0.935,0.935,0,0,1-.36-0.77,1.194,1.194,0,0,1,.22-0.71,1.426,1.426,0,0,1,.626-0.47,2.465,2.465,0,0,1,.936-0.17,2.081,2.081,0,0,1,1.237.35,1.451,1.451,0,0,1,.589.97h1.011a2.116,2.116,0,0,0-.413-1.15,2.513,2.513,0,0,0-1-.8,3.313,3.313,0,0,0-1.394-.28,3.65,3.65,0,0,0-1.488.29,2.3,2.3,0,0,0-1,.81,2.083,2.083,0,0,0-.357,1.2,1.922,1.922,0,0,0,.5,1.38,3.3,3.3,0,0,0,1.591.79l1.034,0.27a2.947,2.947,0,0,1,1.223.55,1.07,1.07,0,0,1,.391.85,1.139,1.139,0,0,1-.243.71,1.523,1.523,0,0,1-.673.49,2.482,2.482,0,0,1-.966.18,2.927,2.927,0,0,1-1.017-.16,1.927,1.927,0,0,1-.72-0.48,1.421,1.421,0,0,1-.336-0.74h0Zm11.484,0.55h-0.961a1.3,1.3,0,0,1-.58.61,2.038,2.038,0,0,1-.972.21,1.641,1.641,0,0,1-.891-0.24,1.617,1.617,0,0,1-.6-0.68,2.42,2.42,0,0,1-.243-1.03v-0.04h4.328v-0.37a3.79,3.79,0,0,0-.315-1.61,2.327,2.327,0,0,0-.9-1.05,2.538,2.538,0,0,0-1.394-.37,2.619,2.619,0,0,0-1.435.39,2.481,2.481,0,0,0-.947,1.09,3.826,3.826,0,0,0-.332,1.64,3.871,3.871,0,0,0,.329,1.65,2.524,2.524,0,0,0,.944,1.09,2.715,2.715,0,0,0,1.441.38,2.886,2.886,0,0,0,1.651-.45,2.075,2.075,0,0,0,.885-1.22h0Zm-2.547-3.72a1.539,1.539,0,0,1,.835.22,1.579,1.579,0,0,1,.564.62,2.137,2.137,0,0,1,.215.93h-3.317a2.184,2.184,0,0,1,.257-0.93,1.685,1.685,0,0,1,.6-0.62,1.615,1.615,0,0,1,.849-0.22h0Zm5.809,5.39a2.282,2.282,0,0,0,1.084-.26,1.975,1.975,0,0,0,.77-0.74h0.09v0.89h0.916v-4.12a2.08,2.08,0,0,0-.268-1.08,1.743,1.743,0,0,0-.782-0.69,2.915,2.915,0,0,0-1.24-.24,3.223,3.223,0,0,0-1.151.2,2.075,2.075,0,0,0-.832.56,1.566,1.566,0,0,0-.38.85h0.972a0.9,0.9,0,0,1,.458-0.56,1.862,1.862,0,0,1,.9-0.19,1.568,1.568,0,0,1,1.017.29,1.08,1.08,0,0,1,.346.86v0.54l-1.737.11a2.837,2.837,0,0,0-1.625.52,1.54,1.54,0,0,0-.57,1.26,1.715,1.715,0,0,0,.262.95,1.755,1.755,0,0,0,.727.63,2.5,2.5,0,0,0,1.044.22h0Zm0.179-.85a1.364,1.364,0,0,1-.877-0.26,0.841,0.841,0,0,1-.341-0.71,0.829,0.829,0,0,1,.319-0.7,1.882,1.882,0,0,1,1-.28l1.62-.11v0.55a1.37,1.37,0,0,1-.223.77,1.521,1.521,0,0,1-.618.54,1.83,1.83,0,0,1-.879.2h0Zm4.457-5.28v6.02H659.7v-3.73a1.4,1.4,0,0,1,.768-1.28,1.792,1.792,0,0,1,.812-0.18c0.093,0,.209,0,0.347.01s0.227,0.03.268,0.04v-0.96a3.39,3.39,0,0,0-.481-0.03,2.276,2.276,0,0,0-.745.13,1.672,1.672,0,0,0-.592.36,1.172,1.172,0,0,0-.333.51h-0.089v-0.89h-0.916Zm8.2,1.84h0.972a2.27,2.27,0,0,0-.408-0.99,2.367,2.367,0,0,0-.865-0.7,2.909,2.909,0,0,0-1.251-.26,2.783,2.783,0,0,0-1.458.38,2.553,2.553,0,0,0-.964,1.09,3.662,3.662,0,0,0-.338,1.63,3.86,3.86,0,0,0,.338,1.66,2.553,2.553,0,0,0,.964,1.09,2.708,2.708,0,0,0,1.463.39,3.029,3.029,0,0,0,1.243-.25,2.146,2.146,0,0,0,.863-0.68,2.207,2.207,0,0,0,.413-1h-0.972a1.346,1.346,0,0,1-.539.79,1.789,1.789,0,0,1-1.013.27,1.555,1.555,0,0,1-.93-0.28,1.82,1.82,0,0,1-.618-0.79,3.078,3.078,0,0,1-.217-1.2,2.96,2.96,0,0,1,.215-1.18,1.714,1.714,0,0,1,.614-0.78,1.63,1.63,0,0,1,.936-0.27,1.676,1.676,0,0,1,1.025.3,1.439,1.439,0,0,1,.527.78h0Zm2.447-4.23v8.41h0.96v-3.56a1.987,1.987,0,0,1,.2-0.9,1.409,1.409,0,0,1,.57-0.59,1.821,1.821,0,0,1,.9-0.21,1.3,1.3,0,0,1,1.038.4,1.746,1.746,0,0,1,.352,1.2v3.66h0.961v-3.9a2.666,2.666,0,0,0-.254-1.2,1.787,1.787,0,0,0-.721-0.77,2.265,2.265,0,0,0-1.1-.26,2.19,2.19,0,0,0-1.153.28,1.649,1.649,0,0,0-.7.78h-0.09v-3.34h-0.96Zm12.439,8.52a2.83,2.83,0,0,0,1.477-.38,2.439,2.439,0,0,0,.963-1.08,3.812,3.812,0,0,0,.336-1.66,3.858,3.858,0,0,0-.336-1.67,2.473,2.473,0,0,0-.96-1.07,3.074,3.074,0,0,0-2.961,0,2.473,2.473,0,0,0-.96,1.07,3.858,3.858,0,0,0-.335,1.67,3.812,3.812,0,0,0,.335,1.66,2.439,2.439,0,0,0,.963,1.08,2.833,2.833,0,0,0,1.478.38h0Zm0-.87a1.589,1.589,0,0,1-1.319-.59,3.207,3.207,0,0,1,0-3.32,1.768,1.768,0,0,1,2.637,0,3.207,3.207,0,0,1,0,3.32,1.588,1.588,0,0,1-1.318.59h0Zm4.284-5.26v6.02h0.96v-3.73a1.4,1.4,0,0,1,.768-1.28,1.793,1.793,0,0,1,.813-0.18c0.093,0,.208,0,0.346.01s0.227,0.03.268,0.04v-0.96a3.375,3.375,0,0,0-.48-0.03,2.287,2.287,0,0,0-.746.13,1.681,1.681,0,0,0-.592.36,1.161,1.161,0,0,0-.332.51h-0.089v-0.89h-0.916Zm12.7,6.02v-0.91h-3.988v-2.77h3.781v-0.89h-3.781v-2.59h3.988v-0.9h-4.993v8.06h4.993Zm1.7-6.02v6.02h0.961v-3.56a2,2,0,0,1,.2-0.91,1.39,1.39,0,0,1,.55-0.59,1.71,1.71,0,0,1,.835-0.2,1.364,1.364,0,0,1,1.07.39,1.786,1.786,0,0,1,.349,1.21v3.66h0.961v-3.9a2.323,2.323,0,0,0-.548-1.65,2.064,2.064,0,0,0-1.558-.58,2.156,2.156,0,0,0-1.126.27,1.755,1.755,0,0,0-.684.79h-0.089v-0.95H700.51Zm8.037-1.56h-0.96v1.56h-0.972v0.8h0.972v3.66a2.113,2.113,0,0,0,.176.93,1.083,1.083,0,0,0,.555.51,2.57,2.57,0,0,0,1.006.16,3,3,0,0,0,.564-0.05v-0.81c-0.16.01-.309,0.02-0.447,0.02a0.864,0.864,0,0,1-.681-0.24,1.15,1.15,0,0,1-.213-0.77v-3.41h1.341v-0.8h-1.341v-1.56Zm7.658,6.02h-0.961a1.3,1.3,0,0,1-.581.61,2.031,2.031,0,0,1-.971.21,1.641,1.641,0,0,1-.891-0.24,1.619,1.619,0,0,1-.6-0.68,2.45,2.45,0,0,1-.243-1.03v-0.04h4.329v-0.37a3.79,3.79,0,0,0-.315-1.61,2.327,2.327,0,0,0-.9-1.05,2.54,2.54,0,0,0-1.394-.37,2.619,2.619,0,0,0-1.435.39,2.475,2.475,0,0,0-.947,1.09,3.812,3.812,0,0,0-.332,1.64,3.856,3.856,0,0,0,.329,1.65,2.518,2.518,0,0,0,.944,1.09,2.715,2.715,0,0,0,1.441.38,2.889,2.889,0,0,0,1.651-.45,2.075,2.075,0,0,0,.885-1.22h0Zm-2.547-3.72a1.541,1.541,0,0,1,.835.22,1.579,1.579,0,0,1,.564.62,2.137,2.137,0,0,1,.215.93h-3.318a2.2,2.2,0,0,1,.257-0.93,1.687,1.687,0,0,1,.6-0.62,1.61,1.61,0,0,1,.849-0.22h0Zm4.133-.74v6.02h0.961v-3.73a1.4,1.4,0,0,1,.768-1.28,1.793,1.793,0,0,1,.813-0.18c0.093,0,.208,0,0.346.01s0.227,0.03.268,0.04v-0.96a3.385,3.385,0,0,0-.48-0.03,2.282,2.282,0,0,0-.746.13,1.672,1.672,0,0,0-.592.36,1.161,1.161,0,0,0-.332.51h-0.09v-0.89h-0.916Zm12.137,3.71,0.81,2.31h1.056l-2.972-8.06h-0.994l-2.971,8.06h1.055l0.81-2.31h3.206Zm-2.91-.85,1.263-3.6h0.089l1.262,3.6h-2.614Zm7.96,3.27a2.276,2.276,0,0,0,1.133-.29,1.993,1.993,0,0,0,.794-0.78h0.089v0.96h0.916v-8.41h-0.961v3.34h-0.084a1.88,1.88,0,0,0-.756-0.78,2.351,2.351,0,0,0-1.131-.28,2.311,2.311,0,0,0-1.333.39,2.463,2.463,0,0,0-.885,1.09,4.473,4.473,0,0,0,0,3.28,2.386,2.386,0,0,0,.883,1.09,2.318,2.318,0,0,0,1.338.39h0Zm0.223-5.37a1.639,1.639,0,0,1,.941.27,1.722,1.722,0,0,1,.615.78,3.456,3.456,0,0,1,0,2.4,1.835,1.835,0,0,1-.615.78,1.78,1.78,0,0,1-1.885,0,1.717,1.717,0,0,1-.606-0.77,3.193,3.193,0,0,1-.209-1.21,3.031,3.031,0,0,1,.212-1.2,1.7,1.7,0,0,1,.609-0.78,1.625,1.625,0,0,1,.938-0.27h0Zm6.8,5.37a2.283,2.283,0,0,0,1.134-.29,1.99,1.99,0,0,0,.793-0.78h0.089v0.96h0.916v-8.41h-0.96v3.34h-0.084a1.882,1.882,0,0,0-.757-0.78,2.345,2.345,0,0,0-1.131-.28,2.31,2.31,0,0,0-1.332.39,2.449,2.449,0,0,0-.885,1.09,4.473,4.473,0,0,0,0,3.28,2.39,2.39,0,0,0,.882,1.09,2.32,2.32,0,0,0,1.338.39h0Zm0.224-5.37a1.642,1.642,0,0,1,.941.27,1.714,1.714,0,0,1,.614.78,3.456,3.456,0,0,1,0,2.4,1.826,1.826,0,0,1-.614.78,1.78,1.78,0,0,1-1.885,0,1.7,1.7,0,0,1-.606-0.77,3.192,3.192,0,0,1-.21-1.21,3.049,3.049,0,0,1,.212-1.2,1.711,1.711,0,0,1,.609-0.78,1.628,1.628,0,0,1,.939-0.27h0Zm4.574-.76v6.02h0.961v-3.73a1.4,1.4,0,0,1,.768-1.28,1.792,1.792,0,0,1,.812-0.18c0.093,0,.209,0,0.347.01s0.227,0.03.268,0.04v-0.96a3.39,3.39,0,0,0-.481-0.03,2.276,2.276,0,0,0-.745.13,1.672,1.672,0,0,0-.592.36,1.172,1.172,0,0,0-.333.51h-0.089v-0.89H746.8Zm9.138,4.46h-0.961a1.3,1.3,0,0,1-.581.61,2.035,2.035,0,0,1-.972.21,1.641,1.641,0,0,1-.891-0.24,1.617,1.617,0,0,1-.6-0.68,2.45,2.45,0,0,1-.243-1.03v-0.04h4.329v-0.37a3.775,3.775,0,0,0-.316-1.61,2.325,2.325,0,0,0-.9-1.05,2.54,2.54,0,0,0-1.394-.37,2.619,2.619,0,0,0-1.435.39,2.475,2.475,0,0,0-.947,1.09,3.812,3.812,0,0,0-.333,1.64,3.856,3.856,0,0,0,.33,1.65,2.518,2.518,0,0,0,.944,1.09,2.712,2.712,0,0,0,1.441.38,2.885,2.885,0,0,0,1.65-.45,2.076,2.076,0,0,0,.886-1.22h0Zm-2.547-3.72a1.541,1.541,0,0,1,.835.22,1.579,1.579,0,0,1,.564.62,2.152,2.152,0,0,1,.215.93h-3.318a2.2,2.2,0,0,1,.257-0.93,1.687,1.687,0,0,1,.6-0.62,1.61,1.61,0,0,1,.849-0.22h0Zm3.993,0.91a1.382,1.382,0,0,0,.394,1.03,2.662,2.662,0,0,0,1.249.6l1.033,0.25a0.977,0.977,0,0,1,.955.85,0.721,0.721,0,0,1-.179.48,1.2,1.2,0,0,1-.494.34,2.013,2.013,0,0,1-.718.12,1.831,1.831,0,0,1-.927-0.22,1.1,1.1,0,0,1-.486-0.62h-0.989a1.558,1.558,0,0,0,.361.87,1.926,1.926,0,0,0,.826.57,3.119,3.119,0,0,0,1.182.21,3.048,3.048,0,0,0,1.231-.24,2.069,2.069,0,0,0,.866-0.64,1.53,1.53,0,0,0,.316-0.95,1.364,1.364,0,0,0-.411-1.03,2.79,2.79,0,0,0-1.271-.6l-0.927-.22a2.212,2.212,0,0,1-.79-0.33,0.638,0.638,0,0,1-.254-0.51,0.725,0.725,0,0,1,.167-0.47,1.1,1.1,0,0,1,.458-0.32,1.9,1.9,0,0,1,.648-0.11,1.664,1.664,0,0,1,.88.21,0.994,0.994,0,0,1,.444.59H761.9a1.639,1.639,0,0,0-.36-0.86,1.938,1.938,0,0,0-.79-0.56,3.01,3.01,0,0,0-1.117-.2,2.824,2.824,0,0,0-1.145.23,1.915,1.915,0,0,0-.807.63,1.5,1.5,0,0,0-.294.9h0Zm5.876,0a1.382,1.382,0,0,0,.394,1.03,2.662,2.662,0,0,0,1.248.6l1.034,0.25a0.978,0.978,0,0,1,.955.85,0.721,0.721,0,0,1-.179.48,1.2,1.2,0,0,1-.494.34,2.013,2.013,0,0,1-.718.12,1.831,1.831,0,0,1-.927-0.22,1.1,1.1,0,0,1-.486-0.62H763.1a1.558,1.558,0,0,0,.361.87,1.926,1.926,0,0,0,.826.57,3.119,3.119,0,0,0,1.182.21,3.048,3.048,0,0,0,1.231-.24,2.075,2.075,0,0,0,.866-0.64,1.529,1.529,0,0,0,.315-0.95,1.363,1.363,0,0,0-.41-1.03,2.79,2.79,0,0,0-1.271-.6l-0.927-.22a2.212,2.212,0,0,1-.79-0.33,0.638,0.638,0,0,1-.254-0.51,0.72,0.72,0,0,1,.167-0.47,1.1,1.1,0,0,1,.458-0.32,1.9,1.9,0,0,1,.648-0.11,1.664,1.664,0,0,1,.88.21,0.994,0.994,0,0,1,.444.59h0.949a1.639,1.639,0,0,0-.36-0.86,1.938,1.938,0,0,0-.79-0.56,3.01,3.01,0,0,0-1.117-.2,2.824,2.824,0,0,0-1.145.23,1.915,1.915,0,0,0-.807.63,1.5,1.5,0,0,0-.294.9h0Z" transform="translate(-570 -3246)"/>
      <g id="Control_Center" data-name="Control Center">
        <path class="cls-7" d="M620.5,3313.5a7,7,0,1,1,7-7A7,7,0,0,1,620.5,3313.5Zm0-13a6,6,0,1,0,6,6A6,6,0,0,0,620.5,3300.5Zm0,10a1,1,0,0,1-1-1v-3a1,1,0,0,1,2,0v3A1,1,0,0,1,620.5,3310.5Zm0-6a1,1,0,1,1,1-1A1,1,0,0,1,620.5,3304.5Z" transform="translate(-570 -3246)"/>
      </g>
    </g>
    <g id="Back_Button" data-name="Back Button">
      <circle id="Button_-_Back" data-name="Button - Back" class="cls-1" cx="24.5" cy="60.5" r="14.5"/>
      <circle id="Button_-_Back_copy" data-name="Button - Back copy" class="cls-9" cx="24.5" cy="60.5" r="13.5"/>
      <path class="cls-10" d="M601.464,3304.05h-7.635l3.054-2.94a0.91,0.91,0,0,0,0-1.36l-0.814-.88a1.014,1.014,0,0,0-1.425,0l-6.719,6.45a0.91,0.91,0,0,0,0,1.36l6.719,6.45a1.014,1.014,0,0,0,1.425,0l0.814-.78a0.92,0.92,0,0,0,0-1.37l-3.054-2.96h7.635a0.814,0.814,0,0,0,1.018-.79v-2.21A0.941,0.941,0,0,0,601.464,3304.05Z" transform="translate(-570 -3246)"/>
    </g>
    <g id="HOVER">
      <rect class="cls-11" x="39" y="78" width="133" height="33"/>
      <path id="Go_back_on_page_Pull_down_to_show_history" data-name="Go back on page Pull down to show history" class="cls-12" d="M621.513,3335.67v-0.85h-2.856v0.77h1.982v0.17a2.017,2.017,0,0,1-.266,1.04,1.785,1.785,0,0,1-.745.7,2.313,2.313,0,0,1-1.1.26,2.152,2.152,0,0,1-1.221-.35,2.287,2.287,0,0,1-.8-1,3.939,3.939,0,0,1-.278-1.54,3.733,3.733,0,0,1,.281-1.51,2.271,2.271,0,0,1,.8-1.01,2.136,2.136,0,0,1,1.211-.35,2.179,2.179,0,0,1,1.3.37,2.071,2.071,0,0,1,.752,1.08h0.893a2.634,2.634,0,0,0-1.55-1.99,3.481,3.481,0,0,0-1.4-.27,3.113,3.113,0,0,0-1.68.45,3.045,3.045,0,0,0-1.118,1.3,4.435,4.435,0,0,0-.395,1.93,4.6,4.6,0,0,0,.39,1.96,2.967,2.967,0,0,0,1.113,1.28,3.052,3.052,0,0,0,1.69.46,3.3,3.3,0,0,0,1.572-.36,2.543,2.543,0,0,0,1.05-1.02,3.035,3.035,0,0,0,.371-1.52h0Zm3.609,2.82a2.46,2.46,0,0,0,1.291-.33,2.136,2.136,0,0,0,.842-0.94,3.32,3.32,0,0,0,.293-1.45,3.366,3.366,0,0,0-.293-1.46,2.138,2.138,0,0,0-.84-0.94,2.7,2.7,0,0,0-2.587,0,2.138,2.138,0,0,0-.84.94,3.366,3.366,0,0,0-.293,1.46,3.32,3.32,0,0,0,.293,1.45,2.136,2.136,0,0,0,.842.94,2.461,2.461,0,0,0,1.292.33h0Zm0-.75a1.393,1.393,0,0,1-1.153-.52,2.8,2.8,0,0,1,0-2.9,1.537,1.537,0,0,1,2.3,0,2.8,2.8,0,0,1,0,2.9,1.393,1.393,0,0,1-1.152.52h0Zm9.184,0.75a2.059,2.059,0,0,0,1.16-.33,2.248,2.248,0,0,0,.774-0.96,3.908,3.908,0,0,0,0-2.87,2.163,2.163,0,0,0-.772-0.95,2.121,2.121,0,0,0-2.151-.09,1.575,1.575,0,0,0-.661.68h-0.078v-2.92h-0.84v7.35h0.8v-0.84h0.079a1.835,1.835,0,0,0,.7.69,2.067,2.067,0,0,0,.994.24h0Zm-0.2-4.69a1.475,1.475,0,0,1,.823.23,1.532,1.532,0,0,1,.527.68,2.792,2.792,0,0,1,.183,1.06,2.739,2.739,0,0,1-.183,1.05,1.478,1.478,0,0,1-.527.68,1.4,1.4,0,0,1-.823.24,1.426,1.426,0,0,1-.825-0.24,1.511,1.511,0,0,1-.54-0.69,2.629,2.629,0,0,1-.188-1.04,2.715,2.715,0,0,1,.188-1.05,1.535,1.535,0,0,1,.54-0.68,1.426,1.426,0,0,1,.825-0.24h0Zm5.185,4.69a1.973,1.973,0,0,0,.948-0.22,1.749,1.749,0,0,0,.673-0.65H641v0.78h0.8v-3.6a1.786,1.786,0,0,0-.234-0.94,1.487,1.487,0,0,0-.684-0.61,2.544,2.544,0,0,0-1.084-.21,2.686,2.686,0,0,0-1.006.18,1.773,1.773,0,0,0-.727.49,1.326,1.326,0,0,0-.332.73h0.85a0.812,0.812,0,0,1,.4-0.48,1.669,1.669,0,0,1,.786-0.17,1.349,1.349,0,0,1,.889.26,0.924,0.924,0,0,1,.3.75v0.47l-1.518.1a2.394,2.394,0,0,0-1.421.45,1.347,1.347,0,0,0-.5,1.1,1.471,1.471,0,0,0,.229.83,1.5,1.5,0,0,0,.635.55,2.078,2.078,0,0,0,.913.19h0Zm0.157-.73a1.238,1.238,0,0,1-.767-0.23,0.737,0.737,0,0,1-.3-0.62,0.714,0.714,0,0,1,.278-0.61,1.591,1.591,0,0,1,.874-0.25l1.416-.1v0.49a1.219,1.219,0,0,1-.2.67,1.307,1.307,0,0,1-.539.47,1.636,1.636,0,0,1-.769.18h0Zm7.4-3.01H647.7a1.951,1.951,0,0,0-.356-0.87,2.028,2.028,0,0,0-.757-0.61,2.522,2.522,0,0,0-1.094-.23,2.334,2.334,0,0,0-1.274.34,2.21,2.21,0,0,0-.842.94,3.246,3.246,0,0,0-.3,1.43,3.337,3.337,0,0,0,.3,1.45,2.264,2.264,0,0,0,.842.96,2.429,2.429,0,0,0,1.279.33,2.648,2.648,0,0,0,1.087-.21,1.906,1.906,0,0,0,1.115-1.47h-0.849a1.15,1.15,0,0,1-.471.69,1.547,1.547,0,0,1-.887.24,1.408,1.408,0,0,1-.813-0.25,1.542,1.542,0,0,1-.539-0.69,2.677,2.677,0,0,1-.191-1.05,2.578,2.578,0,0,1,.188-1.03,1.5,1.5,0,0,1,.538-0.68,1.4,1.4,0,0,1,.817-0.24,1.434,1.434,0,0,1,.9.27,1.178,1.178,0,0,1,.462.68h0Zm5.342-1.61-2.285,2.3h-0.079v-4.39h-0.839v7.35h0.839v-2l0.5-.47,1.973,2.47h1.069l-2.417-3.01,2.266-2.25H652.2Zm7.163,5.35a2.457,2.457,0,0,0,1.291-.33,2.144,2.144,0,0,0,.843-0.94,3.335,3.335,0,0,0,.293-1.45,3.381,3.381,0,0,0-.293-1.46,2.15,2.15,0,0,0-.84-0.94,2.7,2.7,0,0,0-2.588,0,2.138,2.138,0,0,0-.84.94,3.381,3.381,0,0,0-.293,1.46,3.335,3.335,0,0,0,.293,1.45,2.136,2.136,0,0,0,.842.94,2.461,2.461,0,0,0,1.292.33h0Zm0-.75a1.4,1.4,0,0,1-1.153-.52,2.8,2.8,0,0,1,0-2.9,1.537,1.537,0,0,1,2.3,0,2.8,2.8,0,0,1,0,2.9,1.393,1.393,0,0,1-1.152.52h0Zm3.745-4.6v5.26h0.84v-3.12a1.746,1.746,0,0,1,.171-0.79,1.228,1.228,0,0,1,.481-0.51,1.427,1.427,0,0,1,.73-0.18,1.185,1.185,0,0,1,.935.34,1.562,1.562,0,0,1,.305,1.06v3.2h0.84v-3.41a2.024,2.024,0,0,0-.479-1.44,1.777,1.777,0,0,0-1.362-.51,1.858,1.858,0,0,0-.984.24,1.521,1.521,0,0,0-.6.69h-0.078v-0.83h-0.8Zm11.221-.1a1.952,1.952,0,0,0-.984.26,1.846,1.846,0,0,0-.7.71h-0.078v-0.87h-0.8v7.02h0.84v-2.55h0.078a1.477,1.477,0,0,0,.649.65,2.025,2.025,0,0,0,1,.23,2.067,2.067,0,0,0,1.164-.33,2.233,2.233,0,0,0,.774-0.96,3.908,3.908,0,0,0,0-2.87,2.147,2.147,0,0,0-.774-0.95,2,2,0,0,0-1.164-.34h0Zm-0.2,4.7a1.41,1.41,0,0,1-.818-0.24,1.542,1.542,0,0,1-.539-0.69,2.969,2.969,0,0,1,0-2.09,1.568,1.568,0,0,1,.539-0.68,1.417,1.417,0,0,1,.823-0.24,1.484,1.484,0,0,1,.825.23,1.516,1.516,0,0,1,.53.68,2.792,2.792,0,0,1,.183,1.06,2.739,2.739,0,0,1-.183,1.05,1.461,1.461,0,0,1-.532.68,1.427,1.427,0,0,1-.828.24h0Zm5.2,0.75a1.972,1.972,0,0,0,.947-0.22,1.752,1.752,0,0,0,.674-0.65h0.078v0.78h0.8v-3.6a1.777,1.777,0,0,0-.235-0.94,1.49,1.49,0,0,0-.683-0.61,2.547,2.547,0,0,0-1.084-.21,2.683,2.683,0,0,0-1.006.18,1.776,1.776,0,0,0-.728.49,1.333,1.333,0,0,0-.332.73h0.85a0.812,0.812,0,0,1,.4-0.48,1.675,1.675,0,0,1,.786-0.17,1.349,1.349,0,0,1,.889.26,0.925,0.925,0,0,1,.3.75v0.47l-1.519.1a2.394,2.394,0,0,0-1.421.45,1.347,1.347,0,0,0-.5,1.1,1.472,1.472,0,0,0,.23.83,1.5,1.5,0,0,0,.635.55,2.075,2.075,0,0,0,.913.19h0Zm0.156-.73a1.24,1.24,0,0,1-.767-0.23,0.74,0.74,0,0,1-.3-0.62,0.713,0.713,0,0,1,.279-0.61,1.588,1.588,0,0,1,.874-0.25l1.416-.1v0.49a1.219,1.219,0,0,1-.2.67,1.316,1.316,0,0,1-.54.47,1.636,1.636,0,0,1-.769.18h0Zm6.064,2.66a2.987,2.987,0,0,0,1.243-.24,1.792,1.792,0,0,0,.815-0.67,1.811,1.811,0,0,0,.286-1.02v-5.35h-0.8v0.83h-0.078a1.725,1.725,0,0,0-.683-0.68,2.127,2.127,0,0,0-1.006-.25,2,2,0,0,0-1.167.34,2.136,2.136,0,0,0-.769.93,3.283,3.283,0,0,0-.271,1.38,3.348,3.348,0,0,0,.268,1.38,2.043,2.043,0,0,0,.767.92,2.073,2.073,0,0,0,1.172.33,1.955,1.955,0,0,0,.971-0.24,1.677,1.677,0,0,0,.679-0.67h0.078v1.04a1.112,1.112,0,0,1-.4.91,1.683,1.683,0,0,1-1.106.33,1.834,1.834,0,0,1-.9-0.19,0.771,0.771,0,0,1-.415-0.52h-0.889a1.468,1.468,0,0,0,.347.76,1.815,1.815,0,0,0,.759.5,3.107,3.107,0,0,0,1.1.18h0Zm1.524-4.73a2.5,2.5,0,0,1-.188,1,1.541,1.541,0,0,1-.54.66,1.515,1.515,0,0,1-.835.23,1.47,1.47,0,0,1-.825-0.23,1.5,1.5,0,0,1-.52-0.66,2.9,2.9,0,0,1,0-2,1.5,1.5,0,0,1,.52-0.66,1.47,1.47,0,0,1,.825-0.23,1.422,1.422,0,0,1,1.375.89,2.5,2.5,0,0,1,.188,1h0Zm6.728,1.35h-0.84a1.147,1.147,0,0,1-.507.53,1.81,1.81,0,0,1-.85.18,1.435,1.435,0,0,1-.779-0.21,1.411,1.411,0,0,1-.527-0.59,2.117,2.117,0,0,1-.213-0.9v-0.04h3.785v-0.32a3.346,3.346,0,0,0-.276-1.41,2.106,2.106,0,0,0-.791-0.92,2.294,2.294,0,0,0-1.218-.32,2.353,2.353,0,0,0-1.255.34,2.17,2.17,0,0,0-.828.95,3.4,3.4,0,0,0-.291,1.44,3.349,3.349,0,0,0,.289,1.44,2.158,2.158,0,0,0,.825.95,2.358,2.358,0,0,0,1.26.33,2.616,2.616,0,0,0,1.442-.38,1.857,1.857,0,0,0,.774-1.07h0Zm-2.226-3.25a1.307,1.307,0,0,1,1.223.73,1.832,1.832,0,0,1,.188.81h-2.9a1.87,1.87,0,0,1,.225-0.81,1.436,1.436,0,0,1,.523-0.54,1.417,1.417,0,0,1,.742-0.19h0Zm-73.306,9.56H615.6v7.05h0.879v-2.52h1.772a2.374,2.374,0,0,0,1.17-.28,2.132,2.132,0,0,0,.8-0.8,2.345,2.345,0,0,0,.291-1.17,2.413,2.413,0,0,0-.286-1.18,2.125,2.125,0,0,0-.8-0.81,2.373,2.373,0,0,0-1.172-.29h0Zm-1.782,3.75v-2.97h1.553a1.633,1.633,0,0,1,1.174.39,1.463,1.463,0,0,1,.408,1.11,1.421,1.421,0,0,1-.415,1.09,1.636,1.636,0,0,1-1.167.38h-1.553Zm9.624,3.3v-5.26h-0.84v3.11a1.506,1.506,0,0,1-.373,1.09,1.4,1.4,0,0,1-1.062.39,1.141,1.141,0,0,1-.909-0.34,1.6,1.6,0,0,1-.283-1.05v-3.2H621.8v3.4a2.089,2.089,0,0,0,.459,1.45,1.738,1.738,0,0,0,1.338.5,2.107,2.107,0,0,0,1.016-.23,1.462,1.462,0,0,0,.615-0.69H625.3v0.83h0.8Zm1.631-7.35v7.35h0.84v-7.35h-0.84Zm2.519,0v7.35h0.84v-7.35h-0.84Zm7.242,7.44a2.052,2.052,0,0,0,.991-0.24,1.837,1.837,0,0,0,.693-0.69h0.078v0.84h0.8v-7.35h-0.84v2.92h-0.073a1.6,1.6,0,0,0-.662-0.68,2.024,2.024,0,0,0-.988-0.25,2.075,2.075,0,0,0-1.165.34,2.147,2.147,0,0,0-.774.95,3.557,3.557,0,0,0-.273,1.44,3.608,3.608,0,0,0,.271,1.44,2.184,2.184,0,0,0,.771.95,2.078,2.078,0,0,0,1.17.33h0Zm0.2-4.69a1.417,1.417,0,0,1,.823.24,1.557,1.557,0,0,1,.537.68,3.026,3.026,0,0,1,0,2.1,1.557,1.557,0,0,1-.537.68,1.535,1.535,0,0,1-1.648,0,1.464,1.464,0,0,1-.53-0.68,2.739,2.739,0,0,1-.183-1.05,2.684,2.684,0,0,1,.185-1.05,1.432,1.432,0,0,1,.533-0.68,1.4,1.4,0,0,1,.82-0.24h0Zm6.162,4.69a2.457,2.457,0,0,0,1.291-.33,2.138,2.138,0,0,0,.843-0.94,3.335,3.335,0,0,0,.293-1.45,3.381,3.381,0,0,0-.293-1.46,2.15,2.15,0,0,0-.84-0.94,2.7,2.7,0,0,0-2.588,0,2.138,2.138,0,0,0-.84.94,3.381,3.381,0,0,0-.293,1.46,3.335,3.335,0,0,0,.293,1.45,2.136,2.136,0,0,0,.842.94,2.463,2.463,0,0,0,1.292.33h0Zm0-.75a1.393,1.393,0,0,1-1.152-.52,2.792,2.792,0,0,1,0-2.9,1.536,1.536,0,0,1,2.3,0,2.792,2.792,0,0,1,0,2.9,1.393,1.393,0,0,1-1.152.52h0Zm8.7,0.66,1.475-5.26h-0.845l-1.035,4.2h-0.078l-1.177-4.2h-0.806l-1.176,4.2h-0.078l-1.036-4.2h-0.849l1.474,5.26h0.85l1.172-4.07h0.078l1.177,4.07h0.854Zm2.6-5.26v5.26h0.84v-3.12a1.746,1.746,0,0,1,.171-0.79,1.228,1.228,0,0,1,.481-0.51,1.427,1.427,0,0,1,.73-0.18,1.183,1.183,0,0,1,.935.34,1.562,1.562,0,0,1,.3,1.06v3.2h0.84v-3.41a2.024,2.024,0,0,0-.479-1.44,1.777,1.777,0,0,0-1.362-.51,1.858,1.858,0,0,0-.984.24,1.527,1.527,0,0,0-.6.69h-0.078v-0.83h-0.8Zm9.849-1.37h-0.84v1.37h-0.85v0.7h0.85v3.19a1.859,1.859,0,0,0,.154.82,0.974,0.974,0,0,0,.485.45,2.369,2.369,0,0,0,.879.14,3.186,3.186,0,0,0,.493-0.05v-0.71c-0.14.01-.27,0.02-0.39,0.02a0.757,0.757,0,0,1-.6-0.21,0.99,0.99,0,0,1-.185-0.67v-2.98h1.171v-0.7H665v-1.37Zm4.531,6.72a2.457,2.457,0,0,0,1.291-.33,2.144,2.144,0,0,0,.843-0.94,3.335,3.335,0,0,0,.293-1.45,3.381,3.381,0,0,0-.293-1.46,2.15,2.15,0,0,0-.84-0.94,2.7,2.7,0,0,0-2.588,0,2.138,2.138,0,0,0-.84.94,3.381,3.381,0,0,0-.293,1.46,3.335,3.335,0,0,0,.293,1.45,2.136,2.136,0,0,0,.842.94,2.461,2.461,0,0,0,1.292.33h0Zm0-.75a1.4,1.4,0,0,1-1.153-.52,2.8,2.8,0,0,1,0-2.9,1.537,1.537,0,0,1,2.3,0,2.8,2.8,0,0,1,0,2.9,1.393,1.393,0,0,1-1.152.52h0Zm6.445-3.16a1.2,1.2,0,0,0,.344.9,2.281,2.281,0,0,0,1.092.52l0.9,0.22a0.866,0.866,0,0,1,.835.74,0.647,0.647,0,0,1-.156.43,1.075,1.075,0,0,1-.432.29,1.762,1.762,0,0,1-.628.1,1.523,1.523,0,0,1-.81-0.19,0.956,0.956,0,0,1-.425-0.53h-0.865a1.4,1.4,0,0,0,.315.76,1.834,1.834,0,0,0,.723.5,2.994,2.994,0,0,0,1.033.17,2.837,2.837,0,0,0,1.076-.2,1.853,1.853,0,0,0,.757-0.56,1.354,1.354,0,0,0,.276-0.83,1.189,1.189,0,0,0-.359-0.9,2.486,2.486,0,0,0-1.111-.53l-0.81-.19a1.843,1.843,0,0,1-.691-0.29,0.557,0.557,0,0,1-.222-0.45,0.641,0.641,0,0,1,.146-0.41,0.967,0.967,0,0,1,.4-0.27,1.7,1.7,0,0,1,1.335.08,0.878,0.878,0,0,1,.388.51h0.83a1.409,1.409,0,0,0-.315-0.74,1.657,1.657,0,0,0-.69-0.49,2.671,2.671,0,0,0-1.978.02,1.736,1.736,0,0,0-.706.56,1.28,1.28,0,0,0-.256.78h0Zm5.4-3.53v7.35h0.84v-3.12a1.733,1.733,0,0,1,.171-0.78,1.284,1.284,0,0,1,.5-0.52,1.619,1.619,0,0,1,.791-0.18,1.155,1.155,0,0,1,.908.35,1.54,1.54,0,0,1,.308,1.05v3.2h0.84v-3.41a2.287,2.287,0,0,0-.222-1.05,1.611,1.611,0,0,0-.63-0.67,2.188,2.188,0,0,0-1.973.01,1.468,1.468,0,0,0-.613.69h-0.078v-2.92h-0.84Zm8.052,7.44a2.463,2.463,0,0,0,1.292-.33,2.136,2.136,0,0,0,.842-0.94,3.335,3.335,0,0,0,.293-1.45,3.381,3.381,0,0,0-.293-1.46,2.138,2.138,0,0,0-.84-0.94,2.7,2.7,0,0,0-2.588,0,2.15,2.15,0,0,0-.84.94,3.381,3.381,0,0,0-.293,1.46,3.335,3.335,0,0,0,.293,1.45,2.138,2.138,0,0,0,.843.94,2.457,2.457,0,0,0,1.291.33h0Zm0-.75a1.393,1.393,0,0,1-1.152-.52,2.792,2.792,0,0,1,0-2.9,1.536,1.536,0,0,1,2.3,0,2.792,2.792,0,0,1,0,2.9,1.393,1.393,0,0,1-1.152.52h0Zm8.7,0.66,1.475-5.26h-0.845l-1.035,4.2h-0.078l-1.177-4.2h-0.805l-1.177,4.2H694.4l-1.035-4.2h-0.85l1.475,5.26h0.849l1.172-4.07h0.078l1.177,4.07h0.854Zm5.469-7.35v7.35h0.84v-3.12a1.733,1.733,0,0,1,.171-0.78,1.284,1.284,0,0,1,.5-0.52,1.619,1.619,0,0,1,.791-0.18,1.156,1.156,0,0,1,.908.35,1.54,1.54,0,0,1,.308,1.05v3.2h0.84v-3.41a2.274,2.274,0,0,0-.223-1.05,1.609,1.609,0,0,0-.629-0.67,2.188,2.188,0,0,0-1.973.01,1.468,1.468,0,0,0-.613.69h-0.078v-2.92h-0.84Zm6.328,1.02a0.605,0.605,0,1,0-.412-0.18,0.551,0.551,0,0,0,.412.18h0Zm-0.42,1.07v5.26h0.84v-5.26H709.5Zm2.32,1.44a1.2,1.2,0,0,0,.344.9,2.272,2.272,0,0,0,1.091.52l0.9,0.22a0.866,0.866,0,0,1,.835.74,0.648,0.648,0,0,1-.157.43,1.061,1.061,0,0,1-.432.29,1.756,1.756,0,0,1-.627.1,1.529,1.529,0,0,1-.811-0.19,0.96,0.96,0,0,1-.425-0.53h-0.864a1.38,1.38,0,0,0,.315.76,1.834,1.834,0,0,0,.723.5,2.992,2.992,0,0,0,1.032.17,2.842,2.842,0,0,0,1.077-.2,1.853,1.853,0,0,0,.757-0.56,1.354,1.354,0,0,0,.276-0.83,1.193,1.193,0,0,0-.359-0.9,2.492,2.492,0,0,0-1.111-.53l-0.811-.19a1.845,1.845,0,0,1-.69-0.29,0.555,0.555,0,0,1-.223-0.45,0.637,0.637,0,0,1,.147-0.41,0.97,0.97,0,0,1,.4-0.27,1.7,1.7,0,0,1,1.336.08,0.882,0.882,0,0,1,.388.51h0.83a1.425,1.425,0,0,0-.315-0.74,1.654,1.654,0,0,0-.691-0.49,2.668,2.668,0,0,0-1.977.02,1.736,1.736,0,0,0-.706.56,1.274,1.274,0,0,0-.256.78h0Zm6.5-2.81h-0.84v1.37h-0.85v0.7h0.85v3.19a1.859,1.859,0,0,0,.154.82,0.973,0.973,0,0,0,.486.45,2.36,2.36,0,0,0,.878.14,3.2,3.2,0,0,0,.494-0.05v-0.71c-0.14.01-.271,0.02-0.391,0.02a0.759,0.759,0,0,1-.6-0.21,1,1,0,0,1-.185-0.67v-2.98h1.172v-0.7H718.32v-1.37Zm4.531,6.72a2.457,2.457,0,0,0,1.291-.33,2.138,2.138,0,0,0,.843-0.94,3.335,3.335,0,0,0,.293-1.45,3.381,3.381,0,0,0-.293-1.46,2.15,2.15,0,0,0-.84-0.94,2.7,2.7,0,0,0-2.588,0,2.138,2.138,0,0,0-.84.94,3.381,3.381,0,0,0-.293,1.46,3.335,3.335,0,0,0,.293,1.45,2.136,2.136,0,0,0,.842.94,2.463,2.463,0,0,0,1.292.33h0Zm0-.75a1.393,1.393,0,0,1-1.152-.52,2.792,2.792,0,0,1,0-2.9,1.536,1.536,0,0,1,2.3,0,2.792,2.792,0,0,1,0,2.9,1.393,1.393,0,0,1-1.152.52h0Zm3.745-4.6v5.26h0.84v-3.26a1.236,1.236,0,0,1,.671-1.12,1.507,1.507,0,0,1,.711-0.16,1.743,1.743,0,0,1,.3.02,1.617,1.617,0,0,1,.235.03v-0.84a2.6,2.6,0,0,0-.42-0.03,1.765,1.765,0,0,0-.652.12,1.334,1.334,0,0,0-.517.31,1,1,0,0,0-.291.45H727.4v-0.78h-0.8Zm4.258,7.16a1.835,1.835,0,0,0,.791-0.14,1.288,1.288,0,0,0,.547-0.48,4.174,4.174,0,0,0,.464-0.96l2.055-5.58h-0.893l-1.441,4.33H732.3l-1.445-4.33h-0.908l1.948,5.26-0.1.32a1.651,1.651,0,0,1-.383.67,0.839,0.839,0,0,1-.584.19,2.971,2.971,0,0,1-.351-0.02v0.71a2.23,2.23,0,0,0,.376.03h0Z" transform="translate(-570 -3246)"/>
      <path class="cls-13" d="M604.3,3327.14c-0.022,0-3.174-8.14-3.174-8.14l5.886,0.54-12.022-14.53,0.022,0.05,0.025,18.98,4.149-4.29s2.913,8.21,2.934,8.24S604.3,3327.17,604.3,3327.14Z" transform="translate(-570 -3246)"/>
    </g>
  </g>
</svg>
