<svg id="labels.svg" xmlns="http://www.w3.org/2000/svg" width="272" height="206" viewBox="0 0 272 206">
  <defs>
    <style>
      .cls-1 {
        fill: none;
        stroke: #2ea3ff;
        stroke-linejoin: round;
        stroke-width: 1px;
      }

      .cls-1, .cls-2, .cls-3 {
        fill-rule: evenodd;
      }

      .cls-2 {
        fill: #2284e6;
      }

      .cls-3 {
        fill: #2ea3ff;
      }
    </style>
  </defs>
  <path id="Panel" class="cls-1" d="M577,1590h10.278l8.722-9,8.316,9H840a4,4,0,0,1,4,4v188a4,4,0,0,1-4,4H577a4,4,0,0,1-4-4V1594A4,4,0,0,1,577,1590Z" transform="translate(-572.5 -1580.5)"/>
  <g id="Menu">
    <g id="History">
      <path id="History-2" data-name="History" class="cls-2" d="M784.95,1768.07h1.139v-8.26H784.95v3.45h-3.478v-3.45h-1.14v8.26h1.14v-3.87h3.478v3.87Zm3.722-9.35a0.75,0.75,0,1,0,0,1.5A0.751,0.751,0,1,0,788.672,1758.72Zm0.563,3.03h-1.1v6.32h1.1v-6.32Zm3.7-.14c-1.307,0-2.279.73-2.279,1.74,0,0.89.54,1.47,1.907,1.83,1.224,0.33,1.535.57,1.535,1.19a1.117,1.117,0,0,1-1.355.96,2.89,2.89,0,0,1-1.775-.61l-0.587.67a3.5,3.5,0,0,0,2.386.83c1.284,0,2.5-.6,2.5-1.92,0-1.1-.768-1.63-2.1-1.97-1.019-.26-1.355-0.5-1.355-1.02a0.961,0.961,0,0,1,1.163-.82,2.975,2.975,0,0,1,1.643.53l0.468-.69A3.333,3.333,0,0,0,792.931,1761.61Zm6.359,5.42a1.564,1.564,0,0,1-.839.28c-0.552,0-.756-0.3-0.756-0.94v-3.76h1.38l0.12-.86h-1.5v-1.56l-1.1.14v1.42h-1.1v0.86h1.1v3.81a1.591,1.591,0,0,0,1.7,1.8,2.464,2.464,0,0,0,1.415-.43Zm3.517-5.42c-1.8,0-2.831,1.36-2.831,3.31,0,2,1.02,3.3,2.819,3.3s2.818-1.36,2.818-3.31C805.613,1762.91,804.606,1761.61,802.807,1761.61Zm0,0.89c1.043,0,1.619.76,1.619,2.41s-0.576,2.42-1.631,2.42-1.631-.77-1.631-2.41C801.164,1763.26,801.751,1762.5,802.807,1762.5Zm7.079-.89a1.805,1.805,0,0,0-1.691,1.43l-0.108-1.29H807.14v6.32h1.1v-3.61c0.264-1.21.72-1.77,1.512-1.77a1.911,1.911,0,0,1,.551.07l0.2-1.08A2.585,2.585,0,0,0,809.886,1761.61Zm6.347,0.14h-1.139l-1.655,5.52-1.691-5.52h-1.176l2.123,6.32h0.372a2.159,2.159,0,0,1-2,1.7l0.12,0.86a3.214,3.214,0,0,0,2.938-2.52Z" transform="translate(-572.5 -1580.5)"/>
      <path class="cls-2" d="M799.5,1754a14,14,0,1,1,14-14A14,14,0,0,1,799.5,1754Zm0-24.01a10.01,10.01,0,1,0,10,10.01A10,10,0,0,0,799.5,1729.99Zm-0.652,11.61a1.8,1.8,0,0,1-1.255-1.71v-5.49a1.828,1.828,0,0,1,1.828-1.82,1.95,1.95,0,0,1,1.965,1.82v5.04a22.87,22.87,0,0,1,3.521,5.94A24.657,24.657,0,0,1,798.848,1741.6Z" transform="translate(-572.5 -1580.5)"/>
    </g>
    <g id="Preferences">
      <path id="Preferences-2" data-name="Preferences" class="cls-2" d="M680.5,1759.81h-2.171v8.26h1.14v-3.03h1.043c1.823,0,3.2-.78,3.2-2.67C683.717,1760.63,682.494,1759.81,680.5,1759.81Zm-0.036,4.33h-1v-3.44h1.019c1.223,0,2.015.44,2.015,1.68C682.506,1763.78,681.69,1764.14,680.467,1764.14Zm7.224-2.53a1.8,1.8,0,0,0-1.691,1.43l-0.108-1.29h-0.948v6.32h1.1v-3.61c0.263-1.21.719-1.77,1.511-1.77a1.907,1.907,0,0,1,.551.07l0.2-1.08A2.583,2.583,0,0,0,687.691,1761.61Zm6.238,3.12c0-1.93-.9-3.12-2.6-3.12-1.631,0-2.627,1.4-2.627,3.37,0,2,1.032,3.24,2.795,3.24a3.456,3.456,0,0,0,2.207-.79l-0.48-.66a2.684,2.684,0,0,1-1.643.55c-0.912,0-1.595-.57-1.7-2.03h4.029C693.917,1765.15,693.929,1764.94,693.929,1764.73Zm-1.091-.25h-2.962c0.084-1.41.635-1.99,1.475-1.99,1,0,1.487.68,1.487,1.91v0.08Zm4.765-4.51a2.7,2.7,0,0,1,1.1.24l0.348-.81a3.572,3.572,0,0,0-1.511-.32,1.759,1.759,0,0,0-1.979,1.81v0.86h-1.128v0.86h1.128v5.46h1.1v-5.46h1.415l0.12-.86h-1.535v-0.87A0.788,0.788,0,0,1,697.6,1759.97Zm6.226,4.76c0-1.93-.9-3.12-2.6-3.12-1.631,0-2.627,1.4-2.627,3.37,0,2,1.032,3.24,2.795,3.24a3.451,3.451,0,0,0,2.206-.79l-0.479-.66a2.685,2.685,0,0,1-1.644.55c-0.911,0-1.595-.57-1.7-2.03h4.03C703.817,1765.15,703.829,1764.94,703.829,1764.73Zm-1.091-.25h-2.963c0.084-1.41.636-1.99,1.476-1.99,1,0,1.487.68,1.487,1.91v0.08Zm5.364-2.87a1.805,1.805,0,0,0-1.691,1.43l-0.108-1.29h-0.947v6.32h1.1v-3.61c0.264-1.21.72-1.77,1.511-1.77a1.914,1.914,0,0,1,.552.07l0.2-1.08A2.585,2.585,0,0,0,708.1,1761.61Zm6.239,3.12c0-1.93-.9-3.12-2.6-3.12-1.631,0-2.626,1.4-2.626,3.37,0,2,1.031,3.24,2.794,3.24a3.454,3.454,0,0,0,2.207-.79l-0.48-.66a2.68,2.68,0,0,1-1.643.55c-0.911,0-1.6-.57-1.7-2.03h4.03C714.329,1765.15,714.341,1764.94,714.341,1764.73Zm-1.091-.25h-2.963c0.084-1.41.636-1.99,1.475-1.99,1,0,1.488.68,1.488,1.91v0.08Zm5.592-2.87a2.288,2.288,0,0,0-1.931,1.08l-0.1-.94h-0.948v6.32h1.1v-4.48a1.919,1.919,0,0,1,1.607-1.12c0.612,0,1,.28,1,1.23v4.37h1.1v-4.53A1.729,1.729,0,0,0,718.842,1761.61Zm6.06,0c-1.715,0-2.758,1.34-2.758,3.36,0,2.04,1.055,3.25,2.758,3.25a2.963,2.963,0,0,0,1.931-.7l-0.5-.72a2.357,2.357,0,0,1-1.379.48c-1,0-1.619-.68-1.619-2.34,0-1.64.624-2.42,1.619-2.42a2.173,2.173,0,0,1,1.355.47l0.528-.7A2.814,2.814,0,0,0,724.9,1761.61Zm7.787,3.12c0-1.93-.9-3.12-2.6-3.12-1.631,0-2.626,1.4-2.626,3.37,0,2,1.031,3.24,2.794,3.24a3.454,3.454,0,0,0,2.207-.79l-0.48-.66a2.68,2.68,0,0,1-1.643.55c-0.911,0-1.595-.57-1.7-2.03h4.03C732.677,1765.15,732.689,1764.94,732.689,1764.73Zm-1.092-.25h-2.962c0.084-1.41.636-1.99,1.475-1.99,1,0,1.487.68,1.487,1.91v0.08Zm4.333-2.87c-1.307,0-2.278.73-2.278,1.74,0,0.89.539,1.47,1.907,1.83,1.223,0.33,1.535.57,1.535,1.19a1.118,1.118,0,0,1-1.356.96,2.89,2.89,0,0,1-1.775-.61l-0.587.67a3.5,3.5,0,0,0,2.386.83c1.284,0,2.5-.6,2.5-1.92,0-1.1-.767-1.63-2.1-1.97-1.019-.26-1.355-0.5-1.355-1.02a0.961,0.961,0,0,1,1.163-.82,2.975,2.975,0,0,1,1.643.53l0.468-.69A3.331,3.331,0,0,0,735.93,1761.61Z" transform="translate(-572.5 -1580.5)"/>
      <path class="cls-2" d="M721.328,1742.11l-2.2-.12c-0.61-.03-1.426.88-1.9,2.03s-0.542,2.37-.086,2.78l1.643,1.47a13.944,13.944,0,0,1-3.016,2.98l-1.454-1.62c-0.407-.45-1.628-0.39-2.779.09s-2.06,1.29-2.026,1.9l0.122,2.17a13.707,13.707,0,0,1-4.242.03l0.12-2.19c0.034-.61-0.876-1.43-2.028-1.91s-2.372-.54-2.779-0.08l-1.463,1.64a14.143,14.143,0,0,1-2.985-3.02l1.618-1.45c0.454-.41.388-1.63-0.09-2.78s-1.294-2.06-1.9-2.02l-2.173.12a13.82,13.82,0,0,1-.029-4.24l2.2,0.12c0.61,0.03,1.426-.88,1.9-2.03s0.541-2.37.086-2.78l-1.643-1.47a13.966,13.966,0,0,1,3.016-2.98l1.454,1.62c0.407,0.45,1.628.39,2.779-.09s2.06-1.29,2.026-1.9l-0.122-2.18a14.024,14.024,0,0,1,4.242-.02l-0.12,2.19c-0.034.61,0.876,1.43,2.028,1.91s2.372,0.54,2.779.08l1.465-1.64a13.9,13.9,0,0,1,2.986,3.02l-1.621,1.45c-0.455.41-.388,1.63,0.09,2.78s1.294,2.06,1.9,2.02l2.176-.12A13.82,13.82,0,0,1,721.328,1742.11Zm-13.828-7.64a5.53,5.53,0,1,0,5.53,5.53A5.533,5.533,0,0,0,707.5,1734.47Z" transform="translate(-572.5 -1580.5)"/>
    </g>
    <g id="Add-Ons">
      <path id="Add-ons-2" data-name="Add-ons" class="cls-2" d="M602.734,1768.07h1.2l-2.638-8.26h-1.44l-2.65,8.26h1.151l0.624-2.07h3.13Zm-3.478-2.99,1.3-4.32,1.283,4.32h-2.578Zm9.322-6v3.31a2.283,2.283,0,0,0-1.7-.78c-1.547,0-2.482,1.4-2.482,3.33,0,1.97.851,3.28,2.386,3.28a2.126,2.126,0,0,0,1.823-1.02l0.108,0.87h0.972v-8.86Zm-1.559,8.26c-0.911,0-1.439-.75-1.439-2.42,0-1.64.588-2.43,1.535-2.43a1.814,1.814,0,0,1,1.463.82v3.1A1.822,1.822,0,0,1,607.019,1767.34Zm8.435-8.26v3.31a2.283,2.283,0,0,0-1.7-.78c-1.547,0-2.483,1.4-2.483,3.33,0,1.97.852,3.28,2.387,3.28a2.126,2.126,0,0,0,1.823-1.02l0.108,0.87h0.972v-8.86Zm-1.559,8.26c-0.912,0-1.439-.75-1.439-2.42,0-1.64.587-2.43,1.535-2.43a1.814,1.814,0,0,1,1.463.82v3.1A1.822,1.822,0,0,1,613.9,1767.34Zm4.225-2.55h3.394v-0.94H618.12v0.94Zm7.331-3.18c-1.8,0-2.831,1.36-2.831,3.31,0,2,1.02,3.3,2.819,3.3s2.818-1.36,2.818-3.31C628.257,1762.91,627.25,1761.61,625.451,1761.61Zm0,0.89c1.043,0,1.619.76,1.619,2.41s-0.576,2.42-1.631,2.42-1.631-.77-1.631-2.41C623.808,1763.26,624.4,1762.5,625.451,1762.5Zm7.307-.89a2.286,2.286,0,0,0-1.93,1.08l-0.1-.94h-0.948v6.32h1.1v-4.48a1.921,1.921,0,0,1,1.608-1.12c0.611,0,1,.28,1,1.23v4.37h1.1v-4.53A1.728,1.728,0,0,0,632.758,1761.61Zm5.473,0c-1.307,0-2.279.73-2.279,1.74,0,0.89.54,1.47,1.907,1.83,1.224,0.33,1.535.57,1.535,1.19a1.117,1.117,0,0,1-1.355.96,2.89,2.89,0,0,1-1.775-.61l-0.587.67a3.5,3.5,0,0,0,2.386.83c1.284,0,2.5-.6,2.5-1.92,0-1.1-.768-1.63-2.1-1.97-1.019-.26-1.355-0.5-1.355-1.02a0.961,0.961,0,0,1,1.163-.82,2.975,2.975,0,0,1,1.643.53l0.468-.69A3.333,3.333,0,0,0,638.231,1761.61Z" transform="translate(-572.5 -1580.5)"/>
      <path class="cls-2" d="M625.187,1750.8a1.978,1.978,0,0,0,1.973-1.98v-7.09s0.215-1.82,1.428-1.82,1.086,1.92,3.35,1.92c1.13,0,3.077-.57,3.077-4.05s-1.947-3.9-3.077-3.9c-2.264,0-2.134,1.81-3.35,1.81s-1.428-1.86-1.428-1.86v-2.9a1.98,1.98,0,0,0-1.973-1.99h-5.208s-1.721-.29-1.721-1.5,1.878-1.29,1.878-3.55c0-1.12-.631-2.9-4.126-2.9s-3.969,1.78-3.969,2.9c0,2.26,1.721,2.34,1.721,3.55s-1.721,1.5-1.721,1.5h-4.878a1.981,1.981,0,0,0-1.972,1.99l0,3.88s-0.211,3,2.209,3c1.524,0,1.665-2.05,3.671-2.05,1,0,2.015.94,2.015,3.01s-1.017,3.1-2.015,3.1c-2.006,0-2.147-2.04-3.671-2.04-2.42,0-2.209,2.89-2.209,2.89l0,6.1a1.978,1.978,0,0,0,1.972,1.98h6.562s3.147,0.21,3.147-2.2c0-1.51-1.987-1.83-1.987-3.83,0-.99,1.107-2.22,3.183-2.22s3.308,1.23,3.308,2.22c0,2-1.925,2.32-1.925,3.83,0,2.41,3.148,2.2,3.148,2.2h2.588Z" transform="translate(-572.5 -1580.5)"/>
    </g>
    <g id="Full_Screen" data-name="Full Screen">
      <path id="Full_Screen-2" data-name="Full Screen" class="cls-2" d="M775.722,1690.81h-4.39v8.26h1.14v-3.63h2.7v-0.9h-2.7v-2.82h3.118Zm5.844,1.94h-1.1v4.51a1.894,1.894,0,0,1-1.583,1.09c-0.684,0-.971-0.32-0.971-1.18v-4.42h-1.1v4.54a1.692,1.692,0,0,0,1.763,1.93,2.121,2.121,0,0,0,1.967-1.13l0.084,0.98h0.948v-6.32Zm3.241,6.47a1.88,1.88,0,0,0,.876-0.22l-0.288-.77a1.037,1.037,0,0,1-.408.08c-0.288,0-.4-0.17-0.4-0.51v-7.72l-1.1.13v7.62A1.243,1.243,0,0,0,784.807,1699.22Zm3.216,0a1.88,1.88,0,0,0,.876-0.22l-0.288-.77a1.037,1.037,0,0,1-.408.08c-0.288,0-.4-0.17-0.4-0.51v-7.72l-1.1.13v7.62A1.243,1.243,0,0,0,788.023,1699.22Zm6.936-8.55c-1.523,0-2.6.88-2.6,2.16s0.84,1.89,2.447,2.38c1.4,0.43,1.787.79,1.787,1.6a1.539,1.539,0,0,1-1.775,1.47,3.146,3.146,0,0,1-2.159-.84l-0.636.71a3.875,3.875,0,0,0,2.807,1.07c1.859,0,2.95-1.01,2.95-2.45,0-1.58-1.127-2.1-2.446-2.51-1.488-.45-1.811-0.79-1.811-1.48a1.27,1.27,0,0,1,1.487-1.18,2.862,2.862,0,0,1,1.883.72l0.623-.69A3.458,3.458,0,0,0,794.959,1690.67Zm6.444,1.94c-1.715,0-2.759,1.34-2.759,3.36,0,2.04,1.056,3.25,2.759,3.25a2.965,2.965,0,0,0,1.931-.7l-0.5-.72a2.362,2.362,0,0,1-1.379.48c-1,0-1.619-.68-1.619-2.34,0-1.64.623-2.42,1.619-2.42a2.177,2.177,0,0,1,1.355.47l0.528-.7A2.816,2.816,0,0,0,801.4,1692.61Zm5.879,0a1.805,1.805,0,0,0-1.691,1.43l-0.108-1.29h-0.947v6.32h1.1v-3.61c0.264-1.21.72-1.77,1.511-1.77a1.914,1.914,0,0,1,.552.07l0.2-1.08A2.585,2.585,0,0,0,807.282,1692.61Zm6.239,3.12c0-1.93-.9-3.12-2.6-3.12-1.632,0-2.627,1.4-2.627,3.37,0,2,1.031,3.24,2.795,3.24a3.451,3.451,0,0,0,2.206-.79l-0.479-.66a2.685,2.685,0,0,1-1.644.55c-0.911,0-1.595-.57-1.7-2.03h4.03C813.509,1696.15,813.521,1695.94,813.521,1695.73Zm-1.091-.25h-2.963c0.084-1.41.636-1.99,1.476-1.99,1,0,1.487.68,1.487,1.91v0.08Zm7.391,0.25c0-1.93-.9-3.12-2.6-3.12-1.631,0-2.626,1.4-2.626,3.37,0,2,1.031,3.24,2.794,3.24a3.454,3.454,0,0,0,2.207-.79l-0.48-.66a2.68,2.68,0,0,1-1.643.55c-0.911,0-1.6-.57-1.7-2.03h4.03C819.809,1696.15,819.821,1695.94,819.821,1695.73Zm-1.091-.25h-2.963c0.084-1.41.636-1.99,1.475-1.99,1,0,1.488.68,1.488,1.91v0.08Zm5.592-2.87a2.288,2.288,0,0,0-1.931,1.08l-0.1-.94h-0.947v6.32h1.1v-4.48a1.919,1.919,0,0,1,1.607-1.12c0.612,0,1,.28,1,1.23v4.37h1.1v-4.53A1.729,1.729,0,0,0,824.322,1692.61Z" transform="translate(-572.5 -1580.5)"/>
      <path class="cls-2" d="M809.121,1656.12l-5.143,5.14a3.025,3.025,0,0,1-4.242-4.24l5.143-5.14L801,1648h12v12Zm-10.857,10.86-5.143,5.14L797,1676H785v-12l3.879,3.88,5.143-5.14A3.025,3.025,0,0,1,798.264,1666.98Z" transform="translate(-572.5 -1580.5)"/>
    </g>
    <g id="Save_Page" data-name="Save Page">
      <path id="Save_Page-2" data-name="Save Page" class="cls-2" d="M685.371,1689.67c-1.523,0-2.6.88-2.6,2.16s0.84,1.89,2.447,2.38c1.4,0.43,1.787.79,1.787,1.6a1.539,1.539,0,0,1-1.775,1.47,3.147,3.147,0,0,1-2.159-.84l-0.635.71a3.871,3.871,0,0,0,2.806,1.07c1.859,0,2.95-1.01,2.95-2.45,0-1.58-1.127-2.1-2.446-2.51-1.487-.45-1.811-0.79-1.811-1.48a1.27,1.27,0,0,1,1.487-1.18,2.86,2.86,0,0,1,1.883.72l0.624-.69A3.462,3.462,0,0,0,685.371,1689.67Zm8.4,6.93v-2.89a1.925,1.925,0,0,0-2.219-2.1,6.137,6.137,0,0,0-2.183.43l0.276,0.81a5.554,5.554,0,0,1,1.7-.34,1.108,1.108,0,0,1,1.319,1.25v0.46H691.7c-1.763,0-2.783.74-2.783,2.09a1.839,1.839,0,0,0,2.015,1.91,2.153,2.153,0,0,0,1.883-.95,1.279,1.279,0,0,0,1.236.95l0.252-.77A0.748,0.748,0,0,1,693.77,1696.6Zm-2.591.79a1,1,0,0,1-1.091-1.14c0-.86.588-1.29,1.751-1.29h0.827v1.45A1.619,1.619,0,0,1,691.179,1697.39Zm9.083-5.64H699.1l-1.643,5.34-1.655-5.34h-1.2l2.182,6.32h1.332Zm5.615,2.98c0-1.93-.9-3.12-2.6-3.12-1.631,0-2.627,1.4-2.627,3.37,0,2,1.032,3.24,2.795,3.24a3.456,3.456,0,0,0,2.207-.79l-0.48-.66a2.684,2.684,0,0,1-1.643.55c-0.912,0-1.6-.57-1.7-2.03h4.029C705.865,1695.15,705.877,1694.94,705.877,1694.73Zm-1.091-.25h-2.962c0.084-1.41.635-1.99,1.475-1.99,1,0,1.487.68,1.487,1.91v0.08Zm7.729-4.67h-2.171v8.26h1.139v-3.03h1.044c1.823,0,3.2-.78,3.2-2.67C715.729,1690.63,714.506,1689.81,712.515,1689.81Zm-0.036,4.33h-1v-3.44h1.02c1.223,0,2.015.44,2.015,1.68C714.518,1693.78,713.7,1694.14,712.479,1694.14Zm8.375,2.46v-2.89a1.925,1.925,0,0,0-2.219-2.1,6.133,6.133,0,0,0-2.183.43l0.276,0.81a5.548,5.548,0,0,1,1.7-.34,1.109,1.109,0,0,1,1.319,1.25v0.46h-0.971c-1.763,0-2.783.74-2.783,2.09a1.839,1.839,0,0,0,2.015,1.91,2.155,2.155,0,0,0,1.883-.95,1.278,1.278,0,0,0,1.235.95l0.252-.77A0.748,0.748,0,0,1,720.854,1696.6Zm-2.591.79a1,1,0,0,1-1.091-1.14c0-.86.587-1.29,1.751-1.29h0.827v1.45A1.62,1.62,0,0,1,718.263,1697.39Zm9.334-6.34a5.453,5.453,0,0,1-2.89.56,2.253,2.253,0,0,0-2.435,2.21,1.819,1.819,0,0,0,1.067,1.75,1.376,1.376,0,0,0-.7,1.11c0,0.64.5,1.2,1.631,1.2h1c0.792,0,1.272.3,1.272,0.9,0,0.64-.48.99-1.847,0.99-1.392,0-1.715-.34-1.715-1.06h-1c0,1.28.648,1.92,2.711,1.92,1.955,0,2.962-.7,2.962-1.92a1.9,1.9,0,0,0-2.159-1.75h-1.007c-0.648,0-.828-0.23-0.828-0.52a0.756,0.756,0,0,1,.312-0.58,2.68,2.68,0,0,0,.8.12,2.151,2.151,0,0,0,2.41-2.15,1.675,1.675,0,0,0-1.115-1.6,6.094,6.094,0,0,0,1.847-.19Zm-2.89,1.35a1.225,1.225,0,0,1,1.355,1.4,1.254,1.254,0,0,1-1.331,1.44A1.424,1.424,0,0,1,724.707,1692.4Zm8.71,2.33c0-1.93-.9-3.12-2.6-3.12-1.631,0-2.626,1.4-2.626,3.37,0,2,1.031,3.24,2.794,3.24a3.452,3.452,0,0,0,2.207-.79l-0.48-.66a2.68,2.68,0,0,1-1.643.55c-0.911,0-1.6-.57-1.7-2.03h4.03C733.405,1695.15,733.417,1694.94,733.417,1694.73Zm-1.091-.25h-2.963c0.084-1.41.636-1.99,1.475-1.99,1,0,1.488.68,1.488,1.91v0.08Z" transform="translate(-572.5 -1580.5)"/>
      <path class="cls-2" d="M711.25,1647h-13.5a1.757,1.757,0,0,0-1.75,1.75v24.5a1.757,1.757,0,0,0,1.75,1.75h20.5a1.756,1.756,0,0,0,1.75-1.75v-18.01a4.615,4.615,0,0,0-1.283-2.94l-4.434-4.11a5.193,5.193,0,0,0-3.033-1.19m1.521,2.71c-0.424-.39-0.771-0.26-0.771.29v5h5.455c0.6,0,.744-0.32.319-0.71Z" transform="translate(-572.5 -1580.5)"/>
    </g>
    <g id="New_Window" data-name="New Window">
      <path id="New_Window-2" data-name="New Window" class="cls-2" d="M592.125,1689.81h-1.067v4.51c0,1.01.131,2.33,0.155,2.52l-3.394-7.03h-1.487v8.26H587.4v-3.79c0-1.53-.1-2.54-0.156-3.22l3.358,7.01h1.523v-8.26Zm6.817,4.92c0-1.93-.9-3.12-2.6-3.12-1.631,0-2.627,1.4-2.627,3.37,0,2,1.032,3.24,2.795,3.24a3.456,3.456,0,0,0,2.207-.79l-0.48-.66a2.684,2.684,0,0,1-1.643.55c-0.912,0-1.6-.57-1.7-2.03h4.03C598.93,1695.15,598.942,1694.94,598.942,1694.73Zm-1.092-.25h-2.962c0.084-1.41.635-1.99,1.475-1.99,0.995,0,1.487.68,1.487,1.91v0.08Zm9.838-2.73h-1.055l-1.152,5.56-1.187-5.56h-1.235l-1.248,5.56-1.139-5.56h-1.1l1.475,6.32h1.463l1.139-5.32,1.1,5.32h1.5Zm12.431-1.94h-1.043l-1.379,7.27-1.631-7.27h-1.212l-1.6,7.27-1.331-7.27h-1.116l1.679,8.26h1.428l1.535-6.92,1.523,6.92h1.463Zm1.685-1.09a0.75,0.75,0,1,0,0,1.5A0.751,0.751,0,1,0,621.8,1688.72Zm0.563,3.03h-1.1v6.32h1.1v-6.32Zm4.955-.14a2.289,2.289,0,0,0-1.931,1.08l-0.1-.94h-0.947v6.32h1.1v-4.48a1.921,1.921,0,0,1,1.607-1.12c0.612,0,1,.28,1,1.23v4.37h1.1v-4.53A1.728,1.728,0,0,0,627.322,1691.61Zm7.548-2.53v3.31a2.284,2.284,0,0,0-1.7-.78c-1.548,0-2.483,1.4-2.483,3.33,0,1.97.852,3.28,2.387,3.28a2.127,2.127,0,0,0,1.823-1.02l0.108,0.87h0.971v-8.86Zm-1.559,8.26c-0.912,0-1.44-.75-1.44-2.42,0-1.64.588-2.43,1.535-2.43a1.816,1.816,0,0,1,1.464.82v3.1A1.823,1.823,0,0,1,633.311,1697.34Zm7.019-5.73c-1.8,0-2.83,1.36-2.83,3.31,0,2,1.019,3.3,2.818,3.3s2.819-1.36,2.819-3.31C643.137,1692.91,642.129,1691.61,640.33,1691.61Zm0,0.89c1.044,0,1.619.76,1.619,2.41s-0.575,2.42-1.631,2.42-1.631-.77-1.631-2.41C638.687,1693.26,639.275,1692.5,640.33,1692.5Zm11.434-.75h-1.056l-1.151,5.56-1.187-5.56h-1.236l-1.247,5.56-1.139-5.56h-1.1l1.475,6.32h1.464l1.139-5.32,1.1,5.32h1.5Z" transform="translate(-572.5 -1580.5)"/>
      <path class="cls-2" d="M605,1650h28a1,1,0,0,1,1,1v24a1,1,0,0,1-1,1H605a1,1,0,0,1-1-1v-24A1,1,0,0,1,605,1650Zm3,6h22a1,1,0,0,1,1,1v15a1,1,0,0,1-1,1H608a1,1,0,0,1-1-1v-15A1,1,0,0,1,608,1656Zm3-3.99h0a1,1,0,1,1,0,1.99h0A1,1,0,1,1,611,1652.01Zm-2.992,0h0a1,1,0,1,1,0,1.99h0A1,1,0,1,1,608.008,1652.01Zm5.992,0h0a1,1,0,1,1,0,1.99h0A1,1,0,1,1,614,1652.01Z" transform="translate(-572.5 -1580.5)"/>
    </g>
  </g>
  <g id="Cut_Copy_Paste" data-name="Cut, Copy, Paste">
    <g id="Paste">
      <path id="Paste-2" data-name="Paste" class="cls-2" d="M797.5,1607.81h-2.171v8.26h1.14v-3.03h1.043c1.823,0,3.2-.78,3.2-2.67C800.717,1608.63,799.494,1607.81,797.5,1607.81Zm-0.036,4.33h-1v-3.44h1.019c1.223,0,2.015.44,2.015,1.68C799.506,1611.78,798.69,1612.14,797.467,1612.14Zm8.375,2.46v-2.89a1.925,1.925,0,0,0-2.219-2.1,6.137,6.137,0,0,0-2.183.43l0.276,0.81a5.554,5.554,0,0,1,1.7-.34,1.108,1.108,0,0,1,1.319,1.25v0.46h-0.971c-1.763,0-2.783.74-2.783,2.09a1.839,1.839,0,0,0,2.015,1.91,2.153,2.153,0,0,0,1.883-.95,1.279,1.279,0,0,0,1.236.95l0.251-.77A0.749,0.749,0,0,1,805.842,1614.6Zm-2.591.79a1,1,0,0,1-1.091-1.14c0-.86.587-1.29,1.751-1.29h0.827v1.45A1.619,1.619,0,0,1,803.251,1615.39Zm6.276-5.78c-1.307,0-2.279.73-2.279,1.74,0,0.89.54,1.47,1.907,1.83,1.224,0.33,1.535.57,1.535,1.19a1.117,1.117,0,0,1-1.355.96,2.89,2.89,0,0,1-1.775-.61l-0.588.67a3.506,3.506,0,0,0,2.387.83c1.283,0,2.5-.6,2.5-1.92,0-1.1-.768-1.63-2.1-1.97-1.019-.26-1.355-0.5-1.355-1.02a0.96,0.96,0,0,1,1.163-.82,2.978,2.978,0,0,1,1.643.53l0.468-.69A3.333,3.333,0,0,0,809.527,1609.61Zm6.359,5.42a1.564,1.564,0,0,1-.839.28c-0.552,0-.756-0.3-0.756-0.94v-3.76h1.38l0.119-.86h-1.5v-1.56l-1.1.14v1.42h-1.1v0.86h1.1v3.81a1.591,1.591,0,0,0,1.7,1.8,2.464,2.464,0,0,0,1.415-.43Zm5.915-2.3c0-1.93-.9-3.12-2.6-3.12-1.631,0-2.627,1.4-2.627,3.37,0,2,1.032,3.24,2.795,3.24a3.451,3.451,0,0,0,2.206-.79l-0.479-.66a2.684,2.684,0,0,1-1.643.55c-0.912,0-1.6-.57-1.7-2.03h4.029C821.789,1613.15,821.8,1612.94,821.8,1612.73Zm-1.091-.25h-2.962c0.083-1.41.635-1.99,1.475-1.99,1,0,1.487.68,1.487,1.91v0.08Z" transform="translate(-572.5 -1580.5)"/>
      <path class="cls-2" d="M784.5,1618.5h-7a1.5,1.5,0,0,1-1.5-1.5v-9a1.5,1.5,0,0,1,1.5-1.5H779a2,2,0,0,1,4,0h1.5a1.5,1.5,0,0,1,1.5,1.5v9A1.5,1.5,0,0,1,784.5,1618.5Zm-0.818-11-1.073-.5a1.613,1.613,0,0,0-3.218,0l-1.073.5-0.537,1h6.438Zm0.138,1.69h-4.746l-3.015,1.74,2.849,4.93,6.574-3.79Z" transform="translate(-572.5 -1580.5)"/>
    </g>
    <g id="Copy">
      <path class="cls-2" d="M697,1617.5h-6a1,1,0,0,1-1-1v-8a1,1,0,0,1,1-1h4.953c0.047,0,2.047,1.98,2.047,2.05v6.95A1,1,0,0,1,697,1617.5Zm-2-9v2h2Zm-6-1.11v6.11h-4a1,1,0,0,1-1-1v-8a1,1,0,0,1,1-1h4.954c0.046,0,2.046,1.98,2.046,2.05v1.34h-2.5A0.5,0.5,0,0,0,689,1607.39Zm0-2.89v2h2Z" transform="translate(-572.5 -1580.5)"/>
      <path id="Copy-2" data-name="Copy" class="cls-2" d="M711.223,1607.67c-1.871,0-3.431,1.47-3.431,4.27,0,2.78,1.452,4.28,3.455,4.28a3.221,3.221,0,0,0,2.362-.93l-0.575-.73a2.764,2.764,0,0,1-1.751.7c-1.284,0-2.279-.94-2.279-3.32,0-2.5,1.043-3.34,2.291-3.34a2.425,2.425,0,0,1,1.6.61l0.623-.73A3.241,3.241,0,0,0,711.223,1607.67Zm5.724,1.94c-1.8,0-2.831,1.36-2.831,3.31,0,2,1.02,3.3,2.819,3.3s2.818-1.36,2.818-3.31C719.753,1610.91,718.746,1609.61,716.947,1609.61Zm0,0.89c1.043,0,1.619.76,1.619,2.41s-0.576,2.42-1.631,2.42-1.631-.77-1.631-2.41C715.3,1611.26,715.891,1610.5,716.947,1610.5Zm7.236-.89a2.3,2.3,0,0,0-1.871,1l-0.084-.86H721.28v8.88l1.1-.13v-3a2.043,2.043,0,0,0,1.655.72c1.631,0,2.482-1.39,2.482-3.31C726.521,1610.92,725.862,1609.61,724.183,1609.61Zm-0.408,5.71a1.632,1.632,0,0,1-1.391-.77v-3.08a1.927,1.927,0,0,1,1.523-.98c0.947,0,1.427.77,1.427,2.42S724.782,1615.32,723.775,1615.32Zm8.855-5.57h-1.14l-1.655,5.52-1.691-5.52h-1.175l2.123,6.32h0.371a2.157,2.157,0,0,1-2,1.7l0.119,0.86a3.216,3.216,0,0,0,2.939-2.52Z" transform="translate(-572.5 -1580.5)"/>
    </g>
    <g id="Cut">
      <path id="Cut-2" data-name="Cut" class="cls-2" d="M625.223,1607.67c-1.871,0-3.431,1.47-3.431,4.27,0,2.78,1.452,4.28,3.455,4.28a3.221,3.221,0,0,0,2.362-.93l-0.575-.73a2.764,2.764,0,0,1-1.751.7c-1.284,0-2.279-.94-2.279-3.32,0-2.5,1.043-3.34,2.291-3.34a2.425,2.425,0,0,1,1.6.61l0.623-.73A3.241,3.241,0,0,0,625.223,1607.67Zm8.171,2.08h-1.1v4.51a1.894,1.894,0,0,1-1.583,1.09c-0.684,0-.971-0.32-0.971-1.18v-4.42h-1.1v4.54a1.692,1.692,0,0,0,1.763,1.93,2.121,2.121,0,0,0,1.967-1.13l0.084,0.98h0.948v-6.32Zm4.752,5.28a1.564,1.564,0,0,1-.839.28c-0.552,0-.756-0.3-0.756-0.94v-3.76h1.38l0.12-.86h-1.5v-1.56l-1.1.14v1.42h-1.1v0.86h1.1v3.81a1.591,1.591,0,0,0,1.7,1.8,2.464,2.464,0,0,0,1.415-.43Z" transform="translate(-572.5 -1580.5)"/>
      <path class="cls-2" d="M610.143,1618a2.427,2.427,0,0,1-2.281-1.28c-0.761-1.11-1.694-2.48-1.694-2.48s-0.657-.91-1.106-1.62a1.065,1.065,0,0,0-1.106-.54s-2.846-4.64-3.319-5.37c-0.659-1.02.575-2.71,0.575-2.71l4.4,7.04a19.083,19.083,0,0,0,1.867,2.29c0.519,0.4,1.383-.37,2.8.91C612.217,1615.98,611.56,1618,610.143,1618Zm-0.207-2.89c-0.933-1.04-1.729-.91-1.936-0.64a2.1,2.1,0,0,0,.38,1.75,1.623,1.623,0,0,0,1.383.74C610.351,1616.96,610.869,1616.15,609.936,1615.11Zm-3.841-4.74-1.182-1.77,2.876-4.6s1.233,1.69.574,2.71C608.081,1607.14,606.957,1608.97,606.1,1610.37Zm-4.576,2.96a12.841,12.841,0,0,0,1.424-1.69l0.826,1.24c-0.429.65-.937,1.36-0.937,1.36s-0.933,1.37-1.694,2.48a2.427,2.427,0,0,1-2.281,1.28c-1.418,0-2.074-2.02-.139-3.76C600.136,1612.96,601,1613.73,601.519,1613.33Zm-2.455,1.78c-0.933,1.04-.415,1.85.173,1.85a1.622,1.622,0,0,0,1.383-.74,2.1,2.1,0,0,0,.38-1.75C600.793,1614.2,600,1614.07,599.064,1615.11Z" transform="translate(-572.5 -1580.5)"/>
    </g>
    <path class="cls-3" d="M663,1603h1v17h-1v-17Z" transform="translate(-572.5 -1580.5)"/>
    <path id="Shape_4_copy_2" data-name="Shape 4 copy 2" class="cls-3" d="M834,1632v1H586v-1H834Z" transform="translate(-572.5 -1580.5)"/>
    <path id="Shape_4_copy" data-name="Shape 4 copy" class="cls-3" d="M753,1603h1v17h-1v-17Z" transform="translate(-572.5 -1580.5)"/>
  </g>
</svg>
