<svg id="navigation.svg" xmlns="http://www.w3.org/2000/svg" width="416.938" height="102.56" viewBox="0 0 416.938 102.56">
  <defs>
    <style>
      .cls-1 {
        fill: #2284e6;
      }

      .cls-1, .cls-2 {
        fill-rule: evenodd;
      }

      .cls-2 {
        fill: #2ea3ff;
        opacity: 0.5;
      }
    </style>
  </defs>
  <path id="v" class="cls-1" d="M748.015,2050.68c-2.382,0-4.413,1.77-4.413,5.04,0,3.32,1.513,5.06,4.2,5.06a6.326,6.326,0,0,0,3.4-.95v-4.74h-3.473l0.2,1.38h1.456v2.52a3.128,3.128,0,0,1-1.54.38c-1.513,0-2.3-1-2.3-3.65,0-2.6,1.177-3.64,2.55-3.64a2.856,2.856,0,0,1,2.017.79l1.008-1.05A4.4,4.4,0,0,0,748.015,2050.68Zm10.725,6.01c0-2.34-1.191-3.74-3.264-3.74-2.1,0-3.292,1.71-3.292,3.96,0,2.34,1.233,3.87,3.53,3.87a4.305,4.305,0,0,0,2.746-.99l-0.743-1.03a3.071,3.071,0,0,1-1.849.66c-0.98,0-1.681-.49-1.821-2H758.7C758.712,2057.22,758.74,2056.93,758.74,2056.69Zm-1.779-.43h-2.914c0.1-1.48.63-2.04,1.471-2.04,1.008,0,1.443.73,1.443,1.95v0.09Zm7.027-3.31a2.783,2.783,0,0,0-2.255,1.19l-0.14-.98h-1.555v7.41h1.793v-5.15a1.921,1.921,0,0,1,1.555-1.13c0.56,0,.91.27,0.91,1.2v5.08h1.793v-5.37A1.994,1.994,0,0,0,763.988,2052.95Zm9.913,3.74c0-2.34-1.19-3.74-3.263-3.74-2.1,0-3.292,1.71-3.292,3.96,0,2.34,1.233,3.87,3.53,3.87a4.3,4.3,0,0,0,2.745-.99l-0.742-1.03a3.073,3.073,0,0,1-1.849.66c-0.981,0-1.681-.49-1.821-2h4.65C773.873,2057.22,773.9,2056.93,773.9,2056.69Zm-1.779-.43h-2.913c0.1-1.48.63-2.04,1.471-2.04,1.008,0,1.442.73,1.442,1.95v0.09Zm6.734-3.3a2.086,2.086,0,0,0-1.933,1.66l-0.168-1.46H775.2v7.41h1.793v-3.94c0.28-1.26.728-1.92,1.639-1.92a2.336,2.336,0,0,1,.658.09l0.308-1.74A2.569,2.569,0,0,0,778.856,2052.96Zm6.707,5.65v-3.11c0-1.64-.868-2.55-2.844-2.55a7.642,7.642,0,0,0-2.689.53l0.42,1.22a6.673,6.673,0,0,1,1.961-.39,1.135,1.135,0,0,1,1.387,1.29v0.42h-0.924c-2.158,0-3.376.87-3.376,2.48a2.2,2.2,0,0,0,2.395,2.28,2.513,2.513,0,0,0,2.213-1.11,1.692,1.692,0,0,0,1.639,1.08l0.378-1.19A0.832,0.832,0,0,1,785.563,2058.61Zm-3.194.87a0.981,0.981,0,0,1-1.05-1.12c0-.87.574-1.29,1.737-1.29H783.8v1.5A1.58,1.58,0,0,1,782.369,2059.48Zm6.762,1.3a2.938,2.938,0,0,0,1.19-.25l-0.378-1.26a1.307,1.307,0,0,1-.42.07,0.414,0.414,0,0,1-.42-0.52v-8.83l-1.793.2v8.68A1.707,1.707,0,0,0,789.131,2060.78Z" transform="translate(-573.062 -2047)"/>
  <path id="General_Seach_Content_Applications_Privacy" data-name="General Seach  Content Applications Privacy" class="cls-1" d="M577.222,2050.59c-1.859,0-3.562,1.49-3.562,4.27,0,2.86,1.331,4.28,3.382,4.28a5.192,5.192,0,0,0,2.782-.73v-3.99H577.1l0.132,0.92H578.7v2.48a3.048,3.048,0,0,1-1.571.39c-1.451,0-2.255-.97-2.255-3.35,0-2.43,1.187-3.33,2.375-3.33a2.585,2.585,0,0,1,1.811.67l0.671-.7A3.581,3.581,0,0,0,577.222,2050.59Zm8.963,5.06c0-1.93-.9-3.11-2.6-3.11-1.631,0-2.626,1.4-2.626,3.37,0,2,1.031,3.23,2.794,3.23a3.454,3.454,0,0,0,2.207-.79l-0.48-.66a2.62,2.62,0,0,1-1.643.55c-0.911,0-1.595-.56-1.7-2.02h4.03C586.173,2056.07,586.185,2055.87,586.185,2055.65Zm-1.092-.25h-2.962c0.084-1.4.636-1.99,1.475-1.99,1,0,1.487.68,1.487,1.92v0.07Zm5.593-2.86a2.3,2.3,0,0,0-1.931,1.07l-0.1-.93h-0.948V2059h1.1v-4.49a1.907,1.907,0,0,1,1.607-1.11c0.611,0,1,.27,1,1.22V2059h1.1v-4.53A1.729,1.729,0,0,0,590.686,2052.54Zm8.531,3.11c0-1.93-.9-3.11-2.6-3.11-1.631,0-2.627,1.4-2.627,3.37,0,2,1.032,3.23,2.8,3.23a3.456,3.456,0,0,0,2.207-.79l-0.48-.66a2.622,2.622,0,0,1-1.643.55c-0.912,0-1.6-.56-1.7-2.02h4.03C599.205,2056.07,599.217,2055.87,599.217,2055.65Zm-1.092-.25h-2.962c0.084-1.4.635-1.99,1.475-1.99,1,0,1.487.68,1.487,1.92v0.07Zm5.365-2.86a1.806,1.806,0,0,0-1.692,1.42l-0.107-1.28h-0.948V2059h1.1v-3.61c0.264-1.21.72-1.78,1.512-1.78a1.9,1.9,0,0,1,.551.08l0.2-1.08A2.583,2.583,0,0,0,603.49,2052.54Zm5.6,4.98v-2.89a1.922,1.922,0,0,0-2.219-2.09,6.137,6.137,0,0,0-2.183.43l0.276,0.8a5.5,5.5,0,0,1,1.7-.33,1.1,1.1,0,0,1,1.319,1.24v0.47h-0.971c-1.763,0-2.783.73-2.783,2.09a1.836,1.836,0,0,0,2.015,1.9,2.146,2.146,0,0,0,1.883-.94,1.27,1.27,0,0,0,1.235.94l0.252-.76A0.754,0.754,0,0,1,609.093,2057.52Zm-2.591.8a1,1,0,0,1-1.091-1.14c0-.87.587-1.3,1.751-1.3h0.827v1.45A1.63,1.63,0,0,1,606.5,2058.32Zm5.82,0.82a1.877,1.877,0,0,0,.876-0.21l-0.288-.77a1.04,1.04,0,0,1-.408.07c-0.288,0-.4-0.17-0.4-0.5V2050l-1.1.14v7.61A1.243,1.243,0,0,0,612.322,2059.14Zm-36.084,13.45c-1.523,0-2.6.89-2.6,2.16s0.839,1.9,2.446,2.39c1.4,0.43,1.787.79,1.787,1.59a1.54,1.54,0,0,1-1.775,1.48,3.194,3.194,0,0,1-2.159-.84l-0.635.71a3.865,3.865,0,0,0,2.806,1.06c1.859,0,2.951-1,2.951-2.44,0-1.59-1.128-2.1-2.447-2.51-1.487-.46-1.811-0.79-1.811-1.49a1.263,1.263,0,0,1,1.487-1.17,2.807,2.807,0,0,1,1.883.72l0.624-.7A3.5,3.5,0,0,0,576.238,2072.59Zm8.915,5.06c0-1.93-.9-3.11-2.6-3.11-1.631,0-2.626,1.4-2.626,3.37,0,2,1.031,3.23,2.794,3.23a3.454,3.454,0,0,0,2.207-.79l-0.48-.66a2.62,2.62,0,0,1-1.643.55c-0.911,0-1.6-.56-1.7-2.02h4.03C585.141,2078.07,585.153,2077.87,585.153,2077.65Zm-1.092-.25H581.1c0.084-1.4.636-1.99,1.475-1.99,1,0,1.487.68,1.487,1.92v0.07Zm6.876,2.12v-2.89a1.922,1.922,0,0,0-2.219-2.09,6.137,6.137,0,0,0-2.183.43l0.276,0.8a5.5,5.5,0,0,1,1.7-.33,1.1,1.1,0,0,1,1.319,1.24v0.47h-0.971c-1.763,0-2.782.73-2.782,2.09a1.835,1.835,0,0,0,2.014,1.9,2.145,2.145,0,0,0,1.883-.94,1.27,1.27,0,0,0,1.236.94l0.252-.76A0.754,0.754,0,0,1,590.937,2079.52Zm-2.591.8a1,1,0,0,1-1.091-1.14c0-.87.588-1.3,1.751-1.3h0.827v1.45A1.629,1.629,0,0,1,588.346,2080.32Zm6.864-5.78c-1.715,0-2.759,1.34-2.759,3.35,0,2.04,1.056,3.25,2.759,3.25a3.01,3.01,0,0,0,1.931-.69l-0.5-.72a2.359,2.359,0,0,1-1.379.48c-1,0-1.619-.69-1.619-2.34s0.623-2.42,1.619-2.42a2.165,2.165,0,0,1,1.355.46l0.528-.69A2.816,2.816,0,0,0,595.21,2074.54Zm6.107,0a2.27,2.27,0,0,0-1.871,1.01v-3.52l-1.1.12V2081h1.1v-4.5a1.931,1.931,0,0,1,1.6-1.1c0.6,0,1.007.27,1.007,1.22V2081h1.1v-4.53A1.739,1.739,0,0,0,601.317,2074.54Zm-24.2,19.99c-2.015,0-3.6,1.53-3.6,4.31,0,2.82,1.5,4.34,3.646,4.34a3.469,3.469,0,0,0,2.494-1.01l-0.743-.96a2.705,2.705,0,0,1-1.679.7c-1.188,0-2.051-.89-2.051-3.07,0-2.24.887-3.08,2.027-3.08a2.276,2.276,0,0,1,1.535.6l0.815-.95A3.436,3.436,0,0,0,577.114,2094.53Zm5.8,1.95c-1.883,0-3,1.35-3,3.34,0,2.09,1.115,3.36,2.986,3.36s2.986-1.36,2.986-3.36C585.884,2097.75,584.781,2096.48,582.91,2096.48Zm0,1.16c0.888,0,1.355.67,1.355,2.18s-0.467,2.2-1.367,2.2-1.367-.68-1.367-2.2C581.531,2098.32,582.011,2097.64,582.91,2097.64Zm7.5-1.16a2.366,2.366,0,0,0-1.931,1.02l-0.12-.84h-1.332V2103h1.536v-4.41a1.635,1.635,0,0,1,1.331-.96c0.48,0,.779.22,0.779,1.02V2103h1.536v-4.59A1.709,1.709,0,0,0,590.41,2096.48Zm6.384,5.22a1.407,1.407,0,0,1-.756.24c-0.468,0-.672-0.25-0.672-0.87v-3.31h1.32l0.156-1.1h-1.476v-1.59l-1.535.18v1.41h-1v1.1h1v3.35a1.788,1.788,0,0,0,1.907,2.07,2.8,2.8,0,0,0,1.595-.48Zm6.191-2.02c0-2.01-1.02-3.2-2.795-3.2-1.8,0-2.818,1.46-2.818,3.39,0,2,1.055,3.31,3.022,3.31a3.67,3.67,0,0,0,2.351-.85l-0.636-.88a2.606,2.606,0,0,1-1.583.57c-0.84,0-1.439-.42-1.559-1.72h3.982C602.961,2100.13,602.985,2099.88,602.985,2099.68Zm-1.524-.37h-2.494c0.084-1.26.54-1.74,1.259-1.74,0.864,0,1.235.62,1.235,1.66v0.08Zm6.024-2.83a2.365,2.365,0,0,0-1.93,1.02l-0.12-.84H604.1V2103h1.535v-4.41a1.637,1.637,0,0,1,1.332-.96c0.479,0,.779.22,0.779,1.02V2103h1.535v-4.59A1.709,1.709,0,0,0,607.485,2096.48Zm6.385,5.22a1.407,1.407,0,0,1-.756.24c-0.468,0-.672-0.25-0.672-0.87v-3.31h1.32l0.155-1.1h-1.475v-1.59l-1.535.18v1.41h-1v1.1h1v3.35a1.788,1.788,0,0,0,1.907,2.07,2.8,2.8,0,0,0,1.6-.48ZM578.6,2125h1.2l-2.638-8.26h-1.439l-2.651,8.26h1.151l0.624-2.07h3.13Zm-3.478-3,1.295-4.32L577.7,2122h-2.578Zm8.5-3.46a2.285,2.285,0,0,0-1.871.99l-0.084-.85h-0.948v8.87l1.1-.13v-3a2.015,2.015,0,0,0,1.655.72c1.631,0,2.482-1.39,2.482-3.31C585.956,2119.84,585.3,2118.54,583.618,2118.54Zm-0.408,5.7a1.624,1.624,0,0,1-1.391-.76v-3.09a1.928,1.928,0,0,1,1.523-.98c0.947,0,1.427.78,1.427,2.42C584.769,2123.49,584.217,2124.24,583.21,2124.24Zm7.236-5.7a2.284,2.284,0,0,0-1.871.99l-0.084-.85h-0.948v8.87l1.1-.13v-3a2.014,2.014,0,0,0,1.655.72c1.631,0,2.482-1.39,2.482-3.31C592.784,2119.84,592.125,2118.54,590.446,2118.54Zm-0.408,5.7a1.622,1.622,0,0,1-1.391-.76v-3.09a1.927,1.927,0,0,1,1.523-.98c0.947,0,1.427.78,1.427,2.42C591.6,2123.49,591.045,2124.24,590.038,2124.24Zm5.593,0.9a1.876,1.876,0,0,0,.875-0.21l-0.288-.77a1.04,1.04,0,0,1-.408.07c-0.287,0-.395-0.17-0.395-0.5V2116l-1.1.14v7.61A1.243,1.243,0,0,0,595.631,2125.14Zm2.5-9.49a0.746,0.746,0,1,0,.779.75A0.731,0.731,0,0,0,598.127,2115.65Zm0.564,3.03h-1.1V2125h1.1v-6.32Zm4.283-.14c-1.715,0-2.759,1.34-2.759,3.35,0,2.04,1.056,3.25,2.759,3.25a3.008,3.008,0,0,0,1.931-.69l-0.5-.72a2.359,2.359,0,0,1-1.379.48c-1,0-1.619-.69-1.619-2.34s0.623-2.42,1.619-2.42a2.165,2.165,0,0,1,1.355.46l0.528-.69A2.816,2.816,0,0,0,602.974,2118.54Zm7.391,4.98v-2.89a1.922,1.922,0,0,0-2.219-2.09,6.137,6.137,0,0,0-2.183.43l0.276,0.8a5.5,5.5,0,0,1,1.7-.33,1.1,1.1,0,0,1,1.319,1.24v0.47H608.29c-1.763,0-2.783.73-2.783,2.09a1.836,1.836,0,0,0,2.015,1.9,2.145,2.145,0,0,0,1.883-.94,1.27,1.27,0,0,0,1.236.94l0.252-.76A0.754,0.754,0,0,1,610.365,2123.52Zm-2.591.8a1,1,0,0,1-1.091-1.14c0-.87.587-1.3,1.751-1.3h0.827v1.45A1.629,1.629,0,0,1,607.774,2124.32Zm7.332-.36a1.55,1.55,0,0,1-.84.27c-0.552,0-.756-0.3-0.756-0.93v-3.77h1.38l0.12-.85h-1.5v-1.56l-1.1.13v1.43h-1.1v0.85h1.1v3.81a1.587,1.587,0,0,0,1.7,1.8,2.39,2.39,0,0,0,1.415-.43Zm1.8-8.31a0.746,0.746,0,1,0,.779.75A0.731,0.731,0,0,0,616.907,2115.65Zm0.563,3.03h-1.1V2125h1.1v-6.32Zm4.356-.14c-1.8,0-2.831,1.35-2.831,3.31,0,2,1.02,3.29,2.819,3.29s2.818-1.35,2.818-3.31C624.632,2119.83,623.625,2118.54,621.826,2118.54Zm0,0.88c1.043,0,1.619.77,1.619,2.41,0,1.66-.576,2.43-1.631,2.43s-1.631-.77-1.631-2.41C620.183,2120.19,620.77,2119.42,621.826,2119.42Zm7.307-.88a2.3,2.3,0,0,0-1.931,1.07l-0.1-.93h-0.947V2125h1.1v-4.49a1.909,1.909,0,0,1,1.607-1.11c0.612,0,1,.27,1,1.22V2125h1.1v-4.53A1.728,1.728,0,0,0,629.133,2118.54Zm5.473,0c-1.307,0-2.279.73-2.279,1.73,0,0.89.54,1.48,1.907,1.84,1.223,0.32,1.535.56,1.535,1.19a1.117,1.117,0,0,1-1.355.96,2.836,2.836,0,0,1-1.775-.62l-0.588.68a3.5,3.5,0,0,0,2.387.82c1.283,0,2.5-.6,2.5-1.92,0-1.1-.768-1.63-2.1-1.96-1.02-.27-1.355-0.51-1.355-1.02a0.96,0.96,0,0,1,1.163-.83,2.914,2.914,0,0,1,1.643.54l0.468-.69A3.335,3.335,0,0,0,634.606,2118.54Zm-58.236,20.2H574.2V2147h1.14v-3.03h1.043c1.823,0,3.2-.78,3.2-2.68C579.584,2139.55,578.361,2138.74,576.37,2138.74Zm-0.036,4.33h-0.995v-3.45h1.019c1.223,0,2.015.45,2.015,1.68C578.373,2142.71,577.557,2143.07,576.334,2143.07Zm7.224-2.53a1.805,1.805,0,0,0-1.691,1.42l-0.108-1.28h-0.948V2147h1.1v-3.61c0.264-1.21.719-1.78,1.511-1.78a1.905,1.905,0,0,1,.552.08l0.2-1.08A2.571,2.571,0,0,0,583.558,2140.54Zm2.125-2.89a0.746,0.746,0,1,0,.779.75A0.731,0.731,0,0,0,585.683,2137.65Zm0.564,3.03h-1.1V2147h1.1v-6.32Zm6.622,0h-1.164l-1.643,5.34-1.655-5.34h-1.2l2.182,6.32h1.332Zm5.22,4.84v-2.89a1.922,1.922,0,0,0-2.219-2.09,6.137,6.137,0,0,0-2.183.43l0.276,0.8a5.5,5.5,0,0,1,1.7-.33,1.1,1.1,0,0,1,1.319,1.24v0.47h-0.971c-1.763,0-2.783.73-2.783,2.09a1.836,1.836,0,0,0,2.015,1.9,2.146,2.146,0,0,0,1.883-.94,1.27,1.27,0,0,0,1.235.94l0.252-.76A0.754,0.754,0,0,1,598.089,2145.52Zm-2.591.8a1,1,0,0,1-1.091-1.14c0-.87.587-1.3,1.751-1.3h0.827v1.45A1.63,1.63,0,0,1,595.5,2146.32Zm6.864-5.78c-1.715,0-2.759,1.34-2.759,3.35,0,2.04,1.056,3.25,2.759,3.25a3.01,3.01,0,0,0,1.931-.69l-0.5-.72a2.362,2.362,0,0,1-1.379.48c-1,0-1.62-.69-1.62-2.34s0.624-2.42,1.62-2.42a2.167,2.167,0,0,1,1.355.46l0.528-.69A2.816,2.816,0,0,0,602.362,2140.54Zm7.774,0.14H609l-1.655,5.52-1.691-5.52h-1.176L606.6,2147h0.372a2.151,2.151,0,0,1-2,1.69l0.12,0.86a3.205,3.205,0,0,0,2.938-2.51Z" transform="translate(-573.062 -2047)"/>
  <path class="cls-2" d="M705,2047h1v102h-1V2047Z" transform="translate(-573.062 -2047)"/>
  <path class="cls-2" d="M743,2086v-5H990v5H743Z" transform="translate(-573.062 -2047)"/>
  <path id="Shape_3_copy" data-name="Shape 3 copy" class="cls-2" d="M743,2097v-5H990v5H743Z" transform="translate(-573.062 -2047)"/>
  <path id="Shape_3_copy_2" data-name="Shape 3 copy 2" class="cls-2" d="M743,2108v-5H990v5H743Z" transform="translate(-573.062 -2047)"/>
  <path id="Shape_3_copy_3" data-name="Shape 3 copy 3" class="cls-2" d="M743,2119v-5H990v5H743Z" transform="translate(-573.062 -2047)"/>
  <path id="Shape_3_copy_4" data-name="Shape 3 copy 4" class="cls-2" d="M743,2130v-5H990v5H743Z" transform="translate(-573.062 -2047)"/>
</svg>
