<svg id="tabtitles.svg" xmlns="http://www.w3.org/2000/svg" width="484" height="79" viewBox="0 0 484 79">
  <defs>
    <style>
      .cls-1, .cls-4, .cls-5 {
        fill: #2284e6;
      }

      .cls-1 {
        opacity: 0.4;
      }

      .cls-2, .cls-3, .cls-6 {
        fill: #fff;
      }

      .cls-2, .cls-3, .cls-5 {
        fill-rule: evenodd;
      }

      .cls-3 {
        opacity: 0.56;
      }

      .cls-4, .cls-5 {
        opacity: 0.6;
      }
    </style>
  </defs>
  <rect class="cls-1" width="484" height="79"/>
  <g id="New_-_Tab" data-name="New - Tab">
    <path class="cls-2" d="M1042,1902h-3v3h-2v-3h-3v-2h3v-3h2v3h3v2Z" transform="translate(-572 -1876)"/>
  </g>
  <path class="cls-3" d="M1018,1895h1v12h-1v-12Z" transform="translate(-572 -1876)"/>
  <g id="Content">
    <path id="Rectangle_19_copy" data-name="Rectangle 19 copy" class="cls-2" d="M1005.14,1898.5h-0.21l-0.76.76v0.24h-0.24l-0.82.82v0.39l0.79,0.79h0.15v0.15l0.85,0.85h0.21v0.21l0.1,0.1-0.1.1v0.59h-0.59l-0.04.03v0.72h-1v-0.34l-0.41-.41h-0.21v-0.21l-0.79-.79h-1.14l-0.88.88v0.12h-0.119l-0.447.45v0.27h-1v-0.72h-0.563v-0.56l-0.128-.13,0.128-.13v-0.18H998.1l0.819-.82v-0.18H999.1l0.757-.76v-0.45l-0.789-.79H998.8v-0.27l-0.726-.73h-0.243v-0.24l-0.034-.04,0.034-.03v-0.69h0.657v-0.75h1v0.34l0.414,0.41h0.242v0.24l0.76,0.76h1.2l0.73-.73v-0.27h0.27l0.38-.38v-0.34h1v0.72h0.66v0.66l0.07,0.06-0.07.07v0.21Z" transform="translate(-572 -1876)"/>
    <path id="Add-ons_Manager" data-name="Add-ons Manager" class="cls-2" d="M859.788,1902.78l0.778,2.22h1.016l-2.858-7.75h-0.956l-2.857,7.75h1.015l0.779-2.22h3.083Zm-2.8-.82,1.214-3.46h0.086l1.214,3.46h-2.514Zm7.654,3.14a2.213,2.213,0,0,0,1.09-.27,1.944,1.944,0,0,0,.763-0.75h0.086V1905h0.881v-8.09h-0.924v3.21h-0.081a1.81,1.81,0,0,0-.727-0.74,2.184,2.184,0,0,0-1.088-.27,2.217,2.217,0,0,0-1.281.37,2.428,2.428,0,0,0-.851,1.05,3.841,3.841,0,0,0-.3,1.57,3.939,3.939,0,0,0,.3,1.59,2.332,2.332,0,0,0,.849,1.04,2.224,2.224,0,0,0,1.286.37h0Zm0.215-5.16a1.6,1.6,0,0,1,.905.26,1.7,1.7,0,0,1,.591.76,2.866,2.866,0,0,1,.207,1.14,2.968,2.968,0,0,1-.207,1.16,1.727,1.727,0,0,1-.591.75,1.71,1.71,0,0,1-1.813,0,1.621,1.621,0,0,1-.583-0.74,3.1,3.1,0,0,1-.2-1.17,2.955,2.955,0,0,1,.2-1.15,1.6,1.6,0,0,1,.586-0.75,1.587,1.587,0,0,1,.9-0.26h0Zm6.542,5.16a2.216,2.216,0,0,0,1.09-.27,1.944,1.944,0,0,0,.763-0.75h0.086V1905h0.881v-8.09H873.3v3.21h-0.081a1.81,1.81,0,0,0-.727-0.74,2.187,2.187,0,0,0-1.088-.27,2.217,2.217,0,0,0-1.281.37,2.428,2.428,0,0,0-.851,1.05,3.841,3.841,0,0,0-.3,1.57,3.939,3.939,0,0,0,.3,1.59,2.326,2.326,0,0,0,.849,1.04,2.224,2.224,0,0,0,1.286.37h0Zm0.215-5.16a1.6,1.6,0,0,1,.9.26,1.7,1.7,0,0,1,.591.76,2.884,2.884,0,0,1,.206,1.14,2.987,2.987,0,0,1-.206,1.16,1.727,1.727,0,0,1-.591.75,1.71,1.71,0,0,1-1.813,0,1.621,1.621,0,0,1-.583-0.74,3.1,3.1,0,0,1-.2-1.17,2.955,2.955,0,0,1,.2-1.15,1.608,1.608,0,0,1,.585-0.75,1.59,1.59,0,0,1,.9-0.26h0Zm4.361,2.38H879.5v-0.88h-3.524v0.88Zm7.606,2.78a2.722,2.722,0,0,0,1.42-.36,2.362,2.362,0,0,0,.927-1.04,3.668,3.668,0,0,0,.322-1.6,3.731,3.731,0,0,0-.322-1.6,2.342,2.342,0,0,0-.924-1.03,2.994,2.994,0,0,0-2.847,0,2.342,2.342,0,0,0-.924,1.03,3.746,3.746,0,0,0-.322,1.6,3.683,3.683,0,0,0,.322,1.6,2.362,2.362,0,0,0,.927,1.04,2.723,2.723,0,0,0,1.421.36h0Zm0-.83a1.516,1.516,0,0,1-1.268-.57,3.075,3.075,0,0,1,0-3.19,1.694,1.694,0,0,1,2.535,0,3.075,3.075,0,0,1,0,3.19,1.515,1.515,0,0,1-1.267.57h0Zm4.119-5.06V1905h0.924v-3.43a1.921,1.921,0,0,1,.188-0.87,1.349,1.349,0,0,1,.529-0.56,1.591,1.591,0,0,1,.8-0.2,1.315,1.315,0,0,1,1.029.38,1.711,1.711,0,0,1,.335,1.16V1905h0.924v-3.75a2.222,2.222,0,0,0-.526-1.59,1.966,1.966,0,0,0-1.5-.55,2.007,2.007,0,0,0-1.082.26,1.624,1.624,0,0,0-.658.75h-0.086v-0.91H887.7Zm6.284,1.58a1.341,1.341,0,0,0,.379,1,2.512,2.512,0,0,0,1.2.57l0.994,0.24a0.95,0.95,0,0,1,.919.82,0.714,0.714,0,0,1-.172.47,1.223,1.223,0,0,1-.476.32,2.1,2.1,0,0,1-.69.11,1.7,1.7,0,0,1-.891-0.21,1.036,1.036,0,0,1-.468-0.59h-0.95a1.523,1.523,0,0,0,.346.84,1.91,1.91,0,0,0,.795.55,3.093,3.093,0,0,0,1.136.19,2.993,2.993,0,0,0,1.184-.22,2.052,2.052,0,0,0,.833-0.62,1.475,1.475,0,0,0,.3-0.91,1.3,1.3,0,0,0-.395-0.99,2.737,2.737,0,0,0-1.221-.58l-0.892-.21a1.936,1.936,0,0,1-.76-0.32,0.611,0.611,0,0,1-.244-0.49,0.683,0.683,0,0,1,.161-0.45,1.131,1.131,0,0,1,.44-0.31,1.758,1.758,0,0,1,.623-0.11,1.551,1.551,0,0,1,.846.21,0.93,0.93,0,0,1,.427.56h0.913a1.575,1.575,0,0,0-.346-0.82,1.923,1.923,0,0,0-.76-0.54,2.8,2.8,0,0,0-1.074-.19,2.63,2.63,0,0,0-1.1.22,1.822,1.822,0,0,0-.776.61,1.392,1.392,0,0,0-.282.85h0ZM903.1,1905H904v-5.92h0.065l2.444,5.87h0.816l2.444-5.87h0.064V1905h0.9v-7.75h-1.123l-2.653,6.41h-0.086l-2.653-6.41H903.1V1905Zm11.108,0.1a2.119,2.119,0,0,0,1.042-.25,1.915,1.915,0,0,0,.741-0.7h0.086V1905h0.881v-3.96a2.011,2.011,0,0,0-.258-1.04,1.637,1.637,0,0,0-.752-0.66,2.715,2.715,0,0,0-1.193-.23,2.989,2.989,0,0,0-1.106.19,2.051,2.051,0,0,0-.8.54,1.478,1.478,0,0,0-.366.81h0.935a0.839,0.839,0,0,1,.44-0.53,1.739,1.739,0,0,1,.865-0.19,1.467,1.467,0,0,1,.978.28,1.037,1.037,0,0,1,.333.83v0.52l-1.671.1a2.736,2.736,0,0,0-1.563.5,1.488,1.488,0,0,0-.548,1.22,1.6,1.6,0,0,0,.951,1.51,2.329,2.329,0,0,0,1,.21h0Zm0.171-.81a1.333,1.333,0,0,1-.843-0.25,0.811,0.811,0,0,1-.328-0.68,0.775,0.775,0,0,1,.307-0.67,1.76,1.76,0,0,1,.961-0.28l1.558-.1v0.53a1.337,1.337,0,0,1-.215.74,1.508,1.508,0,0,1-.594.52,1.815,1.815,0,0,1-.846.19h0Zm4.287-5.08V1905h0.923v-3.43a1.921,1.921,0,0,1,.188-0.87,1.356,1.356,0,0,1,.529-0.56,1.594,1.594,0,0,1,.8-0.2,1.315,1.315,0,0,1,1.029.38,1.706,1.706,0,0,1,.336,1.16V1905H923.4v-3.75a2.222,2.222,0,0,0-.526-1.59,1.963,1.963,0,0,0-1.5-.55,2.008,2.008,0,0,0-1.083.26,1.63,1.63,0,0,0-.658.75h-0.086v-0.91h-0.88Zm8.029,5.89a2.116,2.116,0,0,0,1.042-.25,1.911,1.911,0,0,0,.742-0.7h0.085V1905h0.881v-3.96a2.02,2.02,0,0,0-.257-1.04,1.637,1.637,0,0,0-.752-0.66,2.715,2.715,0,0,0-1.193-.23,2.989,2.989,0,0,0-1.106.19,2.062,2.062,0,0,0-.8.54,1.477,1.477,0,0,0-.365.81h0.935a0.839,0.839,0,0,1,.44-0.53,1.736,1.736,0,0,1,.865-0.19,1.464,1.464,0,0,1,.977.28,1.037,1.037,0,0,1,.333.83v0.52l-1.67.1a2.73,2.73,0,0,0-1.563.5,1.488,1.488,0,0,0-.548,1.22,1.624,1.624,0,0,0,.253.91,1.645,1.645,0,0,0,.7.6,2.328,2.328,0,0,0,1,.21h0Zm0.172-.81a1.329,1.329,0,0,1-.843-0.25,0.808,0.808,0,0,1-.328-0.68,0.774,0.774,0,0,1,.306-0.67,1.767,1.767,0,0,1,.962-0.28l1.557-.1v0.53a1.336,1.336,0,0,1-.214.74,1.515,1.515,0,0,1-.594.52,1.815,1.815,0,0,1-.846.19h0Zm6.671,2.93a3.226,3.226,0,0,0,1.367-.26,2,2,0,0,0,.9-0.74,1.971,1.971,0,0,0,.314-1.12v-5.89h-0.881v0.92h-0.086a1.9,1.9,0,0,0-.752-0.75,2.437,2.437,0,0,0-2.39.09,2.425,2.425,0,0,0-.846,1.03,4.038,4.038,0,0,0,0,3.04,2.235,2.235,0,0,0,2.132,1.37,2.112,2.112,0,0,0,1.069-.26,1.917,1.917,0,0,0,.746-0.73h0.086v1.13a1.255,1.255,0,0,1-.437,1.01,1.865,1.865,0,0,1-1.217.36,2.056,2.056,0,0,1-.994-0.21,0.841,0.841,0,0,1-.456-0.57H931.11a1.548,1.548,0,0,0,.382.83,2.005,2.005,0,0,0,.835.56,3.464,3.464,0,0,0,1.211.19h0Zm1.676-5.2a2.732,2.732,0,0,1-.207,1.1,1.581,1.581,0,0,1-1.512.98,1.526,1.526,0,0,1-1.48-.98,3.185,3.185,0,0,1,0-2.2,1.526,1.526,0,0,1,1.48-.98,1.589,1.589,0,0,1,1.512.98,2.7,2.7,0,0,1,.207,1.1h0Zm7.4,1.48h-0.924a1.281,1.281,0,0,1-.558.59,2.015,2.015,0,0,1-.935.2,1.608,1.608,0,0,1-.856-0.23,1.573,1.573,0,0,1-.581-0.65,2.375,2.375,0,0,1-.233-0.99v-0.05h4.162v-0.35a3.663,3.663,0,0,0-.3-1.55,2.24,2.24,0,0,0-.87-1.01,2.751,2.751,0,0,0-2.721.02,2.453,2.453,0,0,0-.91,1.05,4.078,4.078,0,0,0,0,3.16,2.386,2.386,0,0,0,.908,1.05,2.612,2.612,0,0,0,1.386.36,2.839,2.839,0,0,0,1.587-.42,2.042,2.042,0,0,0,.851-1.18h0Zm-2.449-3.58a1.525,1.525,0,0,1,.8.22,1.466,1.466,0,0,1,.542.59,2.071,2.071,0,0,1,.207.9h-3.19a2.115,2.115,0,0,1,.247-0.9,1.574,1.574,0,0,1,.575-0.59,1.593,1.593,0,0,1,.816-0.22h0Zm3.975-.71V1905h0.923v-3.59a1.371,1.371,0,0,1,.739-1.23,1.668,1.668,0,0,1,.781-0.18c0.09,0,.2.01,0.333,0.02s0.219,0.03.258,0.04v-0.93c-0.132-.01-0.286-0.02-0.462-0.02a2.116,2.116,0,0,0-.717.12,1.72,1.72,0,0,0-.569.34,1.147,1.147,0,0,0-.32.5h-0.086v-0.86h-0.88Z" transform="translate(-572 -1876)"/>
  </g>
  <rect class="cls-4" y="39" width="484" height="40"/>
  <path class="cls-5" d="M817,1915c-8.723,0-11.435-4.62-13-13-1-5.36-2.472-15-15.813-15h-180.5c-13.139,0-14.686,9.64-15.688,15-1.566,8.38-4.277,13-13,13H817Z" transform="translate(-572 -1876)"/>
  <g id="Tab">
    <path class="cls-2" d="M792.14,1898.5h-0.21l-0.759.76v0.24H790.93l-0.821.82v0.39l0.789,0.79h0.148v0.15l0.852,0.85h0.211v0.21l0.1,0.1-0.1.1v0.59h-0.593l-0.032.03v0.72h-1v-0.34l-0.414-.41h-0.211v-0.21l-0.789-.79h-1.139l-0.885.88v0.12h-0.115l-0.447.45v0.27h-1v-0.72h-0.563v-0.56l-0.128-.13,0.128-.13v-0.18H785.1l0.819-.82v-0.18H786.1l0.757-.76v-0.45l-0.789-.79H785.8v-0.27l-0.726-.73h-0.243v-0.24l-0.034-.04,0.034-.03v-0.69h0.657v-0.75h1v0.34l0.414,0.41h0.242v0.24l0.758,0.76h1.2l0.725-.73v-0.27H790.1l0.382-.38v-0.34h1v0.72h0.656v0.66l0.067,0.06-0.067.07v0.21Z" transform="translate(-572 -1876)"/>
    <path id="New_Tab" data-name="New Tab" class="cls-2" d="M679.457,1905h0.956v-6.01H680.5l4.2,6.01h0.94v-7.75h-0.956v6.03H684.6l-4.206-6.03h-0.939V1905Zm12.8-1.5h-0.924a1.281,1.281,0,0,1-.558.59,2.015,2.015,0,0,1-.935.2,1.608,1.608,0,0,1-.856-0.23,1.573,1.573,0,0,1-.581-0.65,2.375,2.375,0,0,1-.233-0.99v-0.05h4.162v-0.35a3.663,3.663,0,0,0-.3-1.55,2.24,2.24,0,0,0-.87-1.01,2.751,2.751,0,0,0-2.721.02,2.453,2.453,0,0,0-.91,1.05,4.078,4.078,0,0,0,0,3.16,2.386,2.386,0,0,0,.908,1.05,2.612,2.612,0,0,0,1.386.36,2.839,2.839,0,0,0,1.587-.42,2.042,2.042,0,0,0,.851-1.18h0Zm-2.449-3.58a1.525,1.525,0,0,1,.8.22,1.466,1.466,0,0,1,.542.59,2.071,2.071,0,0,1,.207.9h-3.19a2.115,2.115,0,0,1,.247-0.9,1.574,1.574,0,0,1,.575-0.59,1.593,1.593,0,0,1,.816-0.22h0Zm9.636,5.08,1.622-5.79h-0.929L699,1903.84h-0.086l-1.294-4.63h-0.887l-1.294,4.63h-0.086l-1.139-4.63h-0.934L694.9,1905h0.934l1.289-4.48h0.086l1.3,4.48h0.94Zm8.094,0h0.967v-6.88h2.5v-0.87h-5.962v0.87h2.5V1905Zm5.645,0.1a2.116,2.116,0,0,0,1.042-.25,1.9,1.9,0,0,0,.741-0.7h0.086V1905h0.881v-3.96a2.011,2.011,0,0,0-.258-1.04,1.632,1.632,0,0,0-.752-0.66,2.71,2.71,0,0,0-1.192-.23,3,3,0,0,0-1.107.19,2.058,2.058,0,0,0-.8.54,1.47,1.47,0,0,0-.365.81H712.4a0.843,0.843,0,0,1,.441-0.53,1.734,1.734,0,0,1,.865-0.19,1.466,1.466,0,0,1,.977.28,1.037,1.037,0,0,1,.333.83v0.52l-1.67.1a2.73,2.73,0,0,0-1.563.5,1.488,1.488,0,0,0-.548,1.22,1.632,1.632,0,0,0,.252.91,1.648,1.648,0,0,0,.7.6,2.328,2.328,0,0,0,1,.21h0Zm0.172-.81a1.329,1.329,0,0,1-.843-0.25,0.808,0.808,0,0,1-.328-0.68,0.774,0.774,0,0,1,.306-0.67,1.764,1.764,0,0,1,.962-0.28l1.557-.1v0.53a1.329,1.329,0,0,1-.215.74,1.512,1.512,0,0,1-.593.52,1.821,1.821,0,0,1-.846.19h0Zm7.165,0.81a2.212,2.212,0,0,0,1.276-.37,2.435,2.435,0,0,0,.851-1.05,3.873,3.873,0,0,0,.3-1.58,3.824,3.824,0,0,0-.3-1.57,2.388,2.388,0,0,0-.849-1.05,2.362,2.362,0,0,0-2.366-.1,1.736,1.736,0,0,0-.728.74h-0.085v-3.21H717.7V1905h0.881v-0.92h0.086a1.93,1.93,0,0,0,.765.75,2.233,2.233,0,0,0,1.093.27h0Zm-0.215-5.16a1.583,1.583,0,0,1,.905.26,1.616,1.616,0,0,1,.58.74,3.46,3.46,0,0,1,0,2.33,1.616,1.616,0,0,1-.58.74,1.583,1.583,0,0,1-.905.26,1.616,1.616,0,0,1-.908-0.26,1.7,1.7,0,0,1-.593-0.76,3.27,3.27,0,0,1,0-2.29,1.7,1.7,0,0,1,.593-0.76,1.616,1.616,0,0,1,.908-0.26h0Z" transform="translate(-572 -1876)"/>
    <circle class="cls-6" cx="39" cy="24" r="7"/>
  </g>
</svg>
