<svg xmlns="http://www.w3.org/2000/svg" width="272" height="125" viewBox="0 0 272 125">
  <defs>
    <style>
      .cls-1, .cls-6, .cls-7 {
        opacity: 0.7;
      }

      .cls-2 {
        fill: #2ea3ff;
      }

      .cls-2, .cls-4, .cls-5, .cls-6 {
        fill-rule: evenodd;
      }

      .cls-3 {
        fill: #f0f0f0;
      }

      .cls-4, .cls-6 {
        fill: #2284e6;
      }

      .cls-5 {
        fill: #fff;
      }

      .cls-7 {
        fill: none;
        stroke: #2ea3ff;
        stroke-linejoin: round;
        stroke-width: 1px;
      }
    </style>
  </defs>
  <g id="textlinks.svg" class="cls-1">
    <g>
      <path id="Rectangle_1_copy_3" data-name="Rectangle 1 copy 3" class="cls-2" d="M709.938,3150H844.6v38.52c0-.2.754,2.28-2.263,2.28h-132.4V3150Z" transform="translate(-573.5 -3066.5)"/>
      <rect class="cls-3" x="0.5" y="83.5" width="136" height="40"/>
      <path id="Button" class="cls-4" d="M603.766,3174.98h3.848a4.451,4.451,0,0,0,1.8-.33,2.55,2.55,0,0,0,1.149-.95,2.726,2.726,0,0,0,.4-1.49,2.451,2.451,0,0,0-.27-1.16,2.173,2.173,0,0,0-.766-0.83,2.583,2.583,0,0,0-1.165-.4v-0.11a1.922,1.922,0,0,0,.861-0.4,2.245,2.245,0,0,0,.841-1.73,2.4,2.4,0,0,0-.352-1.31,2.335,2.335,0,0,0-1.012-.85,3.729,3.729,0,0,0-1.555-.3h-3.773v9.86Zm1.23-5.61v-3.16h2.283a2.239,2.239,0,0,1,1.426.41,1.434,1.434,0,0,1,.509,1.17,1.33,1.33,0,0,1-.568,1.18,2.888,2.888,0,0,1-1.681.4H605Zm2.434,4.53H605v-3.47h2.317a3.1,3.1,0,0,1,1.781.43,1.492,1.492,0,0,1,.6,1.29,1.536,1.536,0,0,1-.574,1.3,2.7,2.7,0,0,1-1.688.45h0Zm5.315-9.21v10.29h1.176v-10.29h-1.176Zm6.347,10.42a3.424,3.424,0,0,0,1.808-.46,3.03,3.03,0,0,0,1.179-1.32,4.654,4.654,0,0,0,.411-2.03,4.731,4.731,0,0,0-.411-2.04,3.04,3.04,0,0,0-1.175-1.32,3.8,3.8,0,0,0-3.623,0,3.036,3.036,0,0,0-1.176,1.32,4.731,4.731,0,0,0-.41,2.04,4.654,4.654,0,0,0,.41,2.03,3.03,3.03,0,0,0,1.179,1.32,3.424,3.424,0,0,0,1.808.46h0Zm0-1.06a1.934,1.934,0,0,1-1.613-.72,3.912,3.912,0,0,1,0-4.06,2.147,2.147,0,0,1,3.226,0,3.912,3.912,0,0,1,0,4.06,1.934,1.934,0,0,1-1.613.72h0Zm10.012-4.18h1.189a2.69,2.69,0,0,0-.5-1.21,2.758,2.758,0,0,0-1.06-.86,3.528,3.528,0,0,0-1.531-.32,3.37,3.37,0,0,0-1.784.47,3.139,3.139,0,0,0-1.179,1.33,4.506,4.506,0,0,0-.414,1.99,4.656,4.656,0,0,0,.414,2.03,3.052,3.052,0,0,0,1.179,1.34,3.294,3.294,0,0,0,1.791.47,3.641,3.641,0,0,0,1.521-.3,2.694,2.694,0,0,0,1.056-.83,2.748,2.748,0,0,0,.506-1.22H629.1a1.59,1.59,0,0,1-.66.96,2.194,2.194,0,0,1-1.241.33,1.919,1.919,0,0,1-1.138-.34,2.191,2.191,0,0,1-.755-0.97,3.745,3.745,0,0,1-.267-1.47,3.647,3.647,0,0,1,.263-1.44,2.113,2.113,0,0,1,.752-0.95,2.005,2.005,0,0,1,1.145-.34,2.025,2.025,0,0,1,1.255.38,1.691,1.691,0,0,1,.646.95h0Zm7.338-2.26-3.2,3.22h-0.11v-6.14h-1.175v10.29h1.175v-2.79l0.7-.66,2.762,3.45h1.5l-3.384-4.21,3.172-3.16h-1.442Zm10.6-2.49h-3.726v9.86h1.231v-3.52h2.481a3.282,3.282,0,0,0,1.637-.4,2.892,2.892,0,0,0,1.128-1.12,3.249,3.249,0,0,0,.407-1.63,3.337,3.337,0,0,0-.4-1.65,2.809,2.809,0,0,0-1.118-1.13,3.28,3.28,0,0,0-1.64-.41h0Zm-2.5,5.25v-4.16h2.174a2.3,2.3,0,0,1,1.644.54,2.047,2.047,0,0,1,.57,1.56,1.975,1.975,0,0,1-.581,1.52,2.308,2.308,0,0,1-1.633.54h-2.174Zm7.441-5.68v10.29h1.176v-10.29h-1.176Zm9.28,10.29v-7.37h-1.176v4.37a2.115,2.115,0,0,1-.523,1.52,1.975,1.975,0,0,1-1.487.54,1.585,1.585,0,0,1-1.271-.47,2.236,2.236,0,0,1-.4-1.47v-4.49h-1.176v4.78a2.9,2.9,0,0,0,.643,2.02,2.4,2.4,0,0,0,1.873.7,2.84,2.84,0,0,0,1.422-.33,2.039,2.039,0,0,0,.861-0.95h0.11v1.15h1.121Zm5.11,2.83a4.253,4.253,0,0,0,1.74-.33,2.551,2.551,0,0,0,1.141-.94,2.523,2.523,0,0,0,.4-1.43v-7.5h-1.121v1.17h-0.109a2.356,2.356,0,0,0-.957-0.94,2.811,2.811,0,0,0-1.409-.36,2.875,2.875,0,0,0-1.633.47,3,3,0,0,0-1.077,1.3,5.142,5.142,0,0,0,0,3.87,2.808,2.808,0,0,0,2.714,1.75,2.783,2.783,0,0,0,1.361-.33,2.4,2.4,0,0,0,.95-0.94h0.109v1.45a1.583,1.583,0,0,1-.557,1.28,2.4,2.4,0,0,1-1.548.46,2.592,2.592,0,0,1-1.265-.27,1.077,1.077,0,0,1-.581-0.72h-1.244a2.029,2.029,0,0,0,.485,1.06,2.537,2.537,0,0,0,1.063.7,4.3,4.3,0,0,0,1.542.25h0Zm2.133-6.62a3.462,3.462,0,0,1-.264,1.4,2.073,2.073,0,0,1-.755.92,2.044,2.044,0,0,1-1.169.32,1.979,1.979,0,0,1-1.155-.32,2.022,2.022,0,0,1-.728-0.92,4.045,4.045,0,0,1,0-2.8,2.022,2.022,0,0,1,.728-0.92,1.984,1.984,0,0,1,1.155-.33,2.015,2.015,0,0,1,1.924,1.25,3.462,3.462,0,0,1,.264,1.4h0Zm3.838-5.07a0.789,0.789,0,0,0,.581-0.24,0.818,0.818,0,0,0,.24-0.58,0.821,0.821,0,0,0-1.641,0,0.813,0.813,0,0,0,.243.58,0.791,0.791,0,0,0,.577.24h0Zm-0.588,1.49v7.37h1.176v-7.37h-1.176Zm3.278,0v7.37h1.176v-4.36a2.464,2.464,0,0,1,.239-1.11,1.737,1.737,0,0,1,.674-0.72,2.078,2.078,0,0,1,1.022-.25,1.636,1.636,0,0,1,1.309.49,2.165,2.165,0,0,1,.427,1.47v4.48h1.176v-4.77a2.834,2.834,0,0,0-.67-2.02,2.51,2.51,0,0,0-1.908-.71,2.639,2.639,0,0,0-1.377.34,2.1,2.1,0,0,0-.837.96h-0.11v-1.17h-1.121Z" transform="translate(-573.5 -3066.5)"/>
      <path id="Button-2" data-name="Button" class="cls-5" d="M723.737,3175.21a4.78,4.78,0,0,0,1.887-.36,3.524,3.524,0,0,0,1.391-1.04,3.484,3.484,0,0,0,.708-1.58h-1.251a2.394,2.394,0,0,1-.54.99,2.522,2.522,0,0,1-.947.64,3.339,3.339,0,0,1-1.248.22,2.755,2.755,0,0,1-1.64-.49,3.057,3.057,0,0,1-1.074-1.4,6.249,6.249,0,0,1,0-4.27,3.14,3.14,0,0,1,1.074-1.41,2.815,2.815,0,0,1,1.633-.49,3.117,3.117,0,0,1,1.238.25,2.583,2.583,0,0,1,.95.73,2.748,2.748,0,0,1,.554,1.09h1.251a3.617,3.617,0,0,0-.7-1.67,3.8,3.8,0,0,0-1.411-1.13,4.355,4.355,0,0,0-1.884-.4,4.191,4.191,0,0,0-2.31.63,4.016,4.016,0,0,0-1.511,1.79,7.4,7.4,0,0,0,0,5.49,4.034,4.034,0,0,0,1.514,1.79,4.185,4.185,0,0,0,2.31.62h0Zm8.788-.1a3.422,3.422,0,0,0,1.808-.46,3.03,3.03,0,0,0,1.179-1.32,4.654,4.654,0,0,0,.411-2.03,4.731,4.731,0,0,0-.411-2.04,3.04,3.04,0,0,0-1.175-1.32,3.8,3.8,0,0,0-3.623,0,3.036,3.036,0,0,0-1.176,1.32,4.731,4.731,0,0,0-.41,2.04,4.654,4.654,0,0,0,.41,2.03,3.03,3.03,0,0,0,1.179,1.32,3.424,3.424,0,0,0,1.808.46h0Zm0-1.06a1.934,1.934,0,0,1-1.613-.72,3.912,3.912,0,0,1,0-4.06,2.147,2.147,0,0,1,3.226,0,3.912,3.912,0,0,1,0,4.06,1.934,1.934,0,0,1-1.613.72h0Zm5.1-6.44v7.37H738.8v-4.36a2.464,2.464,0,0,1,.239-1.11,1.737,1.737,0,0,1,.674-0.72,2.078,2.078,0,0,1,1.022-.25,1.636,1.636,0,0,1,1.309.49,2.165,2.165,0,0,1,.427,1.47v4.48h1.176v-4.77a2.834,2.834,0,0,0-.67-2.02,2.51,2.51,0,0,0-1.908-.71,2.639,2.639,0,0,0-1.377.34,2.1,2.1,0,0,0-.837.96h-0.11v-1.17h-1.121Zm9.7-1.9h-1.176v1.9H744.96v0.99h1.189v4.47a2.574,2.574,0,0,0,.216,1.14,1.284,1.284,0,0,0,.68.63,3.221,3.221,0,0,0,1.23.2,4.735,4.735,0,0,0,.691-0.07v-0.99a5.421,5.421,0,0,1-.547.03,1.047,1.047,0,0,1-.834-0.3,1.391,1.391,0,0,1-.26-0.94v-4.17h1.641v-0.99h-1.641v-1.9Zm3.893,0.41a0.789,0.789,0,0,0,.581-0.24,0.818,0.818,0,0,0,.24-0.58,0.821,0.821,0,0,0-1.641,0,0.813,0.813,0,0,0,.243.58,0.791,0.791,0,0,0,.577.24h0Zm-0.588,1.49v7.37h1.176v-7.37H750.63Zm3.278,0v7.37h1.176v-4.36a2.464,2.464,0,0,1,.239-1.11,1.737,1.737,0,0,1,.674-0.72,2.081,2.081,0,0,1,1.022-.25,1.634,1.634,0,0,1,1.309.49,2.159,2.159,0,0,1,.427,1.47v4.48h1.176v-4.77a2.829,2.829,0,0,0-.67-2.02,2.51,2.51,0,0,0-1.907-.71,2.641,2.641,0,0,0-1.378.34,2.1,2.1,0,0,0-.837.96H755.03v-1.17h-1.122Zm13.99,7.37v-7.37h-1.176v4.37a2.115,2.115,0,0,1-.523,1.52,1.972,1.972,0,0,1-1.486.54,1.586,1.586,0,0,1-1.272-.47,2.242,2.242,0,0,1-.4-1.47v-4.49h-1.176v4.78a2.909,2.909,0,0,0,.642,2.02,2.406,2.406,0,0,0,1.874.7,2.837,2.837,0,0,0,1.421-.33,2.035,2.035,0,0,0,.862-0.95h0.109v1.15H767.9Zm8.132-1.9h-1.176a1.622,1.622,0,0,1-.711.74,2.509,2.509,0,0,1-1.189.25,1.972,1.972,0,0,1-1.091-.29,2.015,2.015,0,0,1-.738-0.82,3.045,3.045,0,0,1-.3-1.26v-0.06h5.3v-0.45a4.647,4.647,0,0,0-.386-1.97,2.9,2.9,0,0,0-1.107-1.29,3.156,3.156,0,0,0-1.706-.45,3.2,3.2,0,0,0-1.757.48,3.075,3.075,0,0,0-1.158,1.33,4.714,4.714,0,0,0-.407,2.02,4.667,4.667,0,0,0,.4,2.01,3,3,0,0,0,1.156,1.33,3.281,3.281,0,0,0,1.763.46,3.584,3.584,0,0,0,2.02-.54,2.569,2.569,0,0,0,1.084-1.49h0Zm-3.117-4.56a1.836,1.836,0,0,1,1.712,1.03,2.629,2.629,0,0,1,.263,1.14h-4.06a2.678,2.678,0,0,1,.314-1.14,2.026,2.026,0,0,1,.732-0.76,2,2,0,0,1,1.039-.27h0Zm14.3,3.64,0.991,2.82H789.5l-3.637-9.86h-1.217l-3.636,9.86H782.3l0.991-2.82h3.924Zm-3.562-1.05,1.545-4.4h0.109l1.545,4.4h-3.2Zm7.352-6.42v10.29h1.176v-10.29H791Zm3.388,0v10.29h1.175v-10.29h-1.175Zm6.347,10.42a3.424,3.424,0,0,0,1.808-.46,3.03,3.03,0,0,0,1.179-1.32,4.654,4.654,0,0,0,.41-2.03,4.731,4.731,0,0,0-.41-2.04,3.04,3.04,0,0,0-1.175-1.32,3.8,3.8,0,0,0-3.624,0,3.04,3.04,0,0,0-1.175,1.32,4.731,4.731,0,0,0-.41,2.04,4.654,4.654,0,0,0,.41,2.03,3.03,3.03,0,0,0,1.179,1.32,3.424,3.424,0,0,0,1.808.46h0Zm0-1.06a1.934,1.934,0,0,1-1.613-.72,3.912,3.912,0,0,1,0-4.06,2.147,2.147,0,0,1,3.226,0,3.912,3.912,0,0,1,0,4.06,1.934,1.934,0,0,1-1.613.72h0Zm12.308,0.93,2.065-7.37h-1.183l-1.449,5.9h-0.11l-1.647-5.9H809.6l-1.647,5.9h-0.11l-1.449-5.9H805.2l2.065,7.37h1.189l1.641-5.7H810.2l1.648,5.7h1.2Zm4.112-8.86a0.789,0.789,0,0,0,.581-0.24,0.817,0.817,0,0,0,.239-0.58,0.82,0.82,0,0,0-1.64,0,0.813,0.813,0,0,0,.243.58,0.791,0.791,0,0,0,.577.24h0Zm-0.588,1.49v7.37h1.176v-7.37h-1.176Zm3.278,0v7.37h1.176v-4.36a2.451,2.451,0,0,1,.239-1.11,1.737,1.737,0,0,1,.674-0.72,2.077,2.077,0,0,1,1.021-.25,1.637,1.637,0,0,1,1.31.49,2.165,2.165,0,0,1,.427,1.47v4.48h1.176v-4.77a2.834,2.834,0,0,0-.67-2.02,2.51,2.51,0,0,0-1.908-.71,2.639,2.639,0,0,0-1.377.34,2.1,2.1,0,0,0-.837.96h-0.11v-1.17h-1.121Zm11.064,10.2a4.25,4.25,0,0,0,1.74-.33,2.559,2.559,0,0,0,1.142-.94,2.531,2.531,0,0,0,.4-1.43v-7.5h-1.122v1.17h-0.109a2.344,2.344,0,0,0-.957-0.94,2.807,2.807,0,0,0-1.408-.36,2.878,2.878,0,0,0-1.634.47,3,3,0,0,0-1.077,1.3,4.68,4.68,0,0,0-.379,1.94,4.632,4.632,0,0,0,.376,1.93,2.806,2.806,0,0,0,2.714,1.75,2.779,2.779,0,0,0,1.36-.33,2.392,2.392,0,0,0,.95-0.94h0.11v1.45a1.583,1.583,0,0,1-.557,1.28,2.4,2.4,0,0,1-1.549.46,2.587,2.587,0,0,1-1.264-.27,1.074,1.074,0,0,1-.581-0.72h-1.245a2.031,2.031,0,0,0,.486,1.06,2.53,2.53,0,0,0,1.063.7,4.3,4.3,0,0,0,1.541.25h0Zm2.133-6.62a3.479,3.479,0,0,1-.263,1.4,2.08,2.08,0,0,1-.755.92,2.047,2.047,0,0,1-1.169.32,1.981,1.981,0,0,1-1.156-.32,2.029,2.029,0,0,1-.728-0.92,4.06,4.06,0,0,1,0-2.8,2.029,2.029,0,0,1,.728-0.92,1.985,1.985,0,0,1,1.156-.33,2.052,2.052,0,0,1,1.165.33,2.075,2.075,0,0,1,.759.92,3.479,3.479,0,0,1,.263,1.4h0Z" transform="translate(-573.5 -3066.5)"/>
    </g>
    <path id="Button_copy" data-name="Button copy" class="cls-6" d="M591.323,3100.69h1.113l0.8-3.16H592.36Zm2.39,0h1.114l0.8-3.16h-0.879Zm8.337,2.87,0.849,2.42h1.108l-3.118-8.45h-1.043l-3.117,8.45h1.107l0.85-2.42h3.364Zm-3.053-.89,1.324-3.78h0.094l1.324,3.78H599Zm8.582,3.42a2.379,2.379,0,0,0,1.19-.29,2.1,2.1,0,0,0,.832-0.83H609.7v1.01h0.961v-8.82h-1.008v3.5H609.56a2,2,0,0,0-.794-0.81,2.348,2.348,0,0,0-1.187-.3,2.447,2.447,0,0,0-1.4.41,2.623,2.623,0,0,0-.928,1.14,4.707,4.707,0,0,0,0,3.45,2.55,2.55,0,0,0,.926,1.14,2.445,2.445,0,0,0,1.4.4h0Zm0.234-5.63a1.717,1.717,0,0,1,.988.29,1.854,1.854,0,0,1,.645.82,3.613,3.613,0,0,1,0,2.51,1.854,1.854,0,0,1-.645.82,1.831,1.831,0,0,1-1.978,0,1.693,1.693,0,0,1-.636-0.81,3.355,3.355,0,0,1-.219-1.27,3.3,3.3,0,0,1,.222-1.26,1.813,1.813,0,0,1,.639-0.81,1.7,1.7,0,0,1,.984-0.29h0Zm7.276,5.63a2.986,2.986,0,0,0,1.55-.39,2.609,2.609,0,0,0,1.011-1.13,4.5,4.5,0,0,0,0-3.49,2.56,2.56,0,0,0-1.008-1.13,3.215,3.215,0,0,0-3.106,0,2.572,2.572,0,0,0-1.008,1.13,4.513,4.513,0,0,0,0,3.49,2.621,2.621,0,0,0,1.011,1.13,2.989,2.989,0,0,0,1.55.39h0Zm0-.9a1.664,1.664,0,0,1-1.383-.62,2.777,2.777,0,0,1-.486-1.75,2.746,2.746,0,0,1,.486-1.74,1.852,1.852,0,0,1,2.766,0,2.746,2.746,0,0,1,.486,1.74,2.777,2.777,0,0,1-.486,1.75,1.664,1.664,0,0,1-1.383.62h0Zm7.516,0.9a2.428,2.428,0,0,0,1.392-.4,2.6,2.6,0,0,0,.929-1.15,4.674,4.674,0,0,0,0-3.44,2.64,2.64,0,0,0-.926-1.14,2.433,2.433,0,0,0-1.395-.41,2.39,2.39,0,0,0-1.187.3,1.906,1.906,0,0,0-.794.81h-0.093v-3.5h-1.008v8.82h0.961v-1.01h0.093a2.1,2.1,0,0,0,.836.83,2.389,2.389,0,0,0,1.192.29h0Zm-0.234-5.63a1.646,1.646,0,0,1,1.62,1.1,3.282,3.282,0,0,1,.22,1.26,3.335,3.335,0,0,1-.22,1.27,1.681,1.681,0,0,1-1.62,1.1,1.734,1.734,0,0,1-.991-0.29,1.837,1.837,0,0,1-.647-0.82,3.239,3.239,0,0,1-.226-1.26,3.188,3.188,0,0,1,.226-1.25,1.837,1.837,0,0,1,.647-0.82,1.734,1.734,0,0,1,.991-0.29h0Zm9.537,3.89H630.9a1.393,1.393,0,0,1-.609.64,2.224,2.224,0,0,1-1.02.21,1.687,1.687,0,0,1-1.567-.95,2.612,2.612,0,0,1-.255-1.09v-0.04h4.541v-0.39a4,4,0,0,0-.331-1.69,2.434,2.434,0,0,0-.949-1.1,2.681,2.681,0,0,0-1.462-.39,2.773,2.773,0,0,0-1.506.41,2.647,2.647,0,0,0-.993,1.14,4.48,4.48,0,0,0,0,3.46,2.628,2.628,0,0,0,.99,1.14,2.865,2.865,0,0,0,1.512.39,3.056,3.056,0,0,0,1.731-.46,2.211,2.211,0,0,0,.929-1.28h0Zm-2.672-3.9a1.593,1.593,0,0,1,.876.23,1.557,1.557,0,0,1,.592.65,2.2,2.2,0,0,1,.226.97h-3.481a2.244,2.244,0,0,1,.269-0.97,1.676,1.676,0,0,1,1.518-.88h0Zm7.613,5.53H637.9v-3.66h3.744v-0.94H637.9v-2.9h4.078v-0.95h-5.133v8.45Zm6.678-8.82v8.82h1.008v-8.82h-1.008Zm4.6,8.93a2.369,2.369,0,0,0,1.137-.27,2.042,2.042,0,0,0,.809-0.77h0.094v0.93h0.961v-4.32a2.149,2.149,0,0,0-.282-1.13,1.8,1.8,0,0,0-.82-0.72,3.023,3.023,0,0,0-1.3-.26,3.3,3.3,0,0,0-1.207.21,2.226,2.226,0,0,0-.873.59,1.647,1.647,0,0,0-.4.89h1.02a0.918,0.918,0,0,1,.48-0.58,1.914,1.914,0,0,1,.944-0.21,1.588,1.588,0,0,1,1.067.31,1.127,1.127,0,0,1,.363.9v0.57l-1.823.11a3,3,0,0,0-1.7.55,1.6,1.6,0,0,0-.6,1.32,1.818,1.818,0,0,0,.276,1,1.789,1.789,0,0,0,.761.65,2.443,2.443,0,0,0,1.1.23h0Zm0.188-.88a1.484,1.484,0,0,1-.92-0.27,0.886,0.886,0,0,1-.358-0.75,0.861,0.861,0,0,1,.334-0.73,1.945,1.945,0,0,1,1.049-.3l1.7-.11v0.58a1.438,1.438,0,0,1-.235.8,1.641,1.641,0,0,1-.647.57,2.009,2.009,0,0,1-.923.21h0Zm4.41-3.82a1.449,1.449,0,0,0,.413,1.09,2.843,2.843,0,0,0,1.31.63l1.084,0.26a1.026,1.026,0,0,1,1,.89,0.776,0.776,0,0,1-.188.51,1.282,1.282,0,0,1-.518.35,2.2,2.2,0,0,1-.753.12,1.8,1.8,0,0,1-.973-0.23,1.121,1.121,0,0,1-.51-0.64h-1.037a1.635,1.635,0,0,0,.378.91,2.083,2.083,0,0,0,.867.6,3.409,3.409,0,0,0,1.239.21,3.34,3.34,0,0,0,1.293-.24,2.161,2.161,0,0,0,.908-0.68,1.59,1.59,0,0,0,.331-0.99,1.409,1.409,0,0,0-.431-1.08,2.986,2.986,0,0,0-1.333-.63l-0.973-.23a2.184,2.184,0,0,1-.829-0.35,0.657,0.657,0,0,1-.267-0.54,0.774,0.774,0,0,1,.176-0.49,1.172,1.172,0,0,1,.481-0.33,1.842,1.842,0,0,1,.68-0.12,1.719,1.719,0,0,1,.923.23,1.014,1.014,0,0,1,.466.61h1a1.725,1.725,0,0,0-.378-0.9,2.092,2.092,0,0,0-.829-0.59,3.09,3.09,0,0,0-1.173-.21,2.771,2.771,0,0,0-1.2.25,2.063,2.063,0,0,0-.847.66,1.538,1.538,0,0,0-.307.93h0Zm6.367-4.23v8.82H660.1v-3.74a2.027,2.027,0,0,1,.205-0.93,1.484,1.484,0,0,1,.6-0.63,1.989,1.989,0,0,1,.949-0.22,1.373,1.373,0,0,1,1.09.42,1.862,1.862,0,0,1,.369,1.26v3.84h1.009v-4.09a2.751,2.751,0,0,0-.267-1.26,1.842,1.842,0,0,0-.756-0.8,2.361,2.361,0,0,0-1.157-.28,2.393,2.393,0,0,0-1.211.29,1.776,1.776,0,0,0-.735.82H660.1v-3.5H659.1Zm6.813,3.53h0.879l1.037-3.16h-1.113Zm2.391,0h0.879l1.037-3.16H669.1Zm7.355-2.31a0.671,0.671,0,0,0,.5-0.21,0.661,0.661,0,0,0,.2-0.49,0.683,0.683,0,0,0-.2-0.5,0.718,0.718,0,0,0-.994,0,0.678,0.678,0,0,0-.208.5,0.656,0.656,0,0,0,.208.49,0.675,0.675,0,0,0,.5.21h0Zm-0.5,1.29v6.31h1.007v-6.31H675.15Zm2.663,1.72a1.45,1.45,0,0,0,.414,1.09,2.839,2.839,0,0,0,1.309.63l1.084,0.26a1.026,1.026,0,0,1,1,.89,0.776,0.776,0,0,1-.188.51,1.282,1.282,0,0,1-.518.35,2.205,2.205,0,0,1-.754.12,1.8,1.8,0,0,1-.973-0.23,1.124,1.124,0,0,1-.509-0.64h-1.038a1.642,1.642,0,0,0,.378.91,2.08,2.08,0,0,0,.868.6,3.409,3.409,0,0,0,1.239.21,3.335,3.335,0,0,0,1.292-.24,2.158,2.158,0,0,0,.909-0.68,1.6,1.6,0,0,0,.331-0.99,1.413,1.413,0,0,0-.431-1.08,2.986,2.986,0,0,0-1.333-.63l-0.973-.23a2.177,2.177,0,0,1-.829-0.35,0.657,0.657,0,0,1-.267-0.54,0.774,0.774,0,0,1,.176-0.49,1.165,1.165,0,0,1,.481-0.33,1.837,1.837,0,0,1,.679-0.12,1.717,1.717,0,0,1,.923.23,1.007,1.007,0,0,1,.466.61h1a1.735,1.735,0,0,0-.379-0.9,2.085,2.085,0,0,0-.829-0.59,3.084,3.084,0,0,0-1.172-.21,2.771,2.771,0,0,0-1.2.25,2.057,2.057,0,0,0-.847.66,1.539,1.539,0,0,0-.308.93h0Zm14.769,2.96h-1.009a1.388,1.388,0,0,1-.609.64,2.221,2.221,0,0,1-1.02.21,1.687,1.687,0,0,1-1.567-.95,2.612,2.612,0,0,1-.255-1.09v-0.04h4.542v-0.39a4.012,4.012,0,0,0-.331-1.69,2.442,2.442,0,0,0-.95-1.1,2.681,2.681,0,0,0-1.462-.39,2.773,2.773,0,0,0-1.506.41,2.647,2.647,0,0,0-.993,1.14,4.48,4.48,0,0,0,0,3.46,2.628,2.628,0,0,0,.99,1.14,2.865,2.865,0,0,0,1.512.39,3.062,3.062,0,0,0,1.732-.46,2.22,2.22,0,0,0,.929-1.28h0Zm-2.673-3.9a1.593,1.593,0,0,1,.876.23,1.557,1.557,0,0,1,.592.65,2.2,2.2,0,0,1,.226.97h-3.481a2.244,2.244,0,0,1,.269-0.97,1.679,1.679,0,0,1,1.518-.88h0Zm4.217-.78v6.31h1.008v-3.74a2.012,2.012,0,0,1,.205-0.94,1.434,1.434,0,0,1,.577-0.62,1.658,1.658,0,0,1,.876-0.22,1.41,1.41,0,0,1,1.122.42,1.837,1.837,0,0,1,.367,1.26v3.84h1.008v-4.09a2.427,2.427,0,0,0-.575-1.73,2.162,2.162,0,0,0-1.635-.61,2.251,2.251,0,0,0-1.181.29,1.8,1.8,0,0,0-.718.82h-0.093v-0.99h-0.961Zm8.641,6.42a2.369,2.369,0,0,0,1.137-.27,2.039,2.039,0,0,0,.808-0.77h0.094v0.93h0.961v-4.32a2.148,2.148,0,0,0-.281-1.13,1.8,1.8,0,0,0-.82-0.72,3.026,3.026,0,0,0-1.3-.26,3.307,3.307,0,0,0-1.208.21,2.241,2.241,0,0,0-.873.59,1.645,1.645,0,0,0-.4.89h1.019a0.923,0.923,0,0,1,.481-0.58,1.91,1.91,0,0,1,.943-0.21,1.586,1.586,0,0,1,1.067.31,1.127,1.127,0,0,1,.363.9v0.57l-1.822.11a3,3,0,0,0-1.706.55,1.6,1.6,0,0,0-.6,1.32,1.818,1.818,0,0,0,.275,1,1.8,1.8,0,0,0,.762.65,2.438,2.438,0,0,0,1.1.23h0Zm0.187-.88a1.484,1.484,0,0,1-.92-0.27,0.887,0.887,0,0,1-.357-0.75,0.859,0.859,0,0,1,.334-0.73,1.939,1.939,0,0,1,1.049-.3l1.7-.11v0.58a1.445,1.445,0,0,1-.234.8,1.637,1.637,0,0,1-.648.57,2.006,2.006,0,0,1-.923.21h0Zm7.7,0.88a2.43,2.43,0,0,0,1.392-.4,2.6,2.6,0,0,0,.929-1.15,4.674,4.674,0,0,0,0-3.44,2.64,2.64,0,0,0-.926-1.14,2.433,2.433,0,0,0-1.395-.41,2.39,2.39,0,0,0-1.187.3,1.906,1.906,0,0,0-.794.81h-0.094v-3.5H707.57v8.82h0.961v-1.01h0.093a2.1,2.1,0,0,0,.835.83,2.4,2.4,0,0,0,1.193.29h0Zm-0.235-5.63a1.646,1.646,0,0,1,1.621,1.1,3.282,3.282,0,0,1,.22,1.26,3.335,3.335,0,0,1-.22,1.27,1.681,1.681,0,0,1-1.621,1.1,1.73,1.73,0,0,1-.99-0.29,1.837,1.837,0,0,1-.647-0.82,3.239,3.239,0,0,1-.226-1.26,3.188,3.188,0,0,1,.226-1.25,1.837,1.837,0,0,1,.647-0.82,1.73,1.73,0,0,1,.99-0.29h0Zm4.4-3.3v8.82h1.008v-8.82h-1.008Zm8.037,7.19h-1.008a1.4,1.4,0,0,1-.609.64,2.227,2.227,0,0,1-1.02.21,1.687,1.687,0,0,1-1.568-.95,2.643,2.643,0,0,1-.255-1.09v-0.04h4.542v-0.39a4,4,0,0,0-.331-1.69,2.44,2.44,0,0,0-.949-1.1,2.684,2.684,0,0,0-1.463-.39,2.775,2.775,0,0,0-1.506.41,2.661,2.661,0,0,0-.993,1.14,4.48,4.48,0,0,0,0,3.46,2.637,2.637,0,0,0,.991,1.14,2.859,2.859,0,0,0,1.511.39,3.062,3.062,0,0,0,1.732-.46,2.211,2.211,0,0,0,.929-1.28h0Zm-2.672-3.9a1.593,1.593,0,0,1,.876.23,1.564,1.564,0,0,1,.592.65,2.2,2.2,0,0,1,.225.97H718.4a2.259,2.259,0,0,1,.27-0.97,1.676,1.676,0,0,1,1.518-.88h0Zm6.555,5.64a2.375,2.375,0,0,0,1.189-.29,2.1,2.1,0,0,0,.832-0.83h0.094v1.01h0.961v-8.82H728.81v3.5h-0.088a1.989,1.989,0,0,0-.794-0.81,2.344,2.344,0,0,0-1.186-.3,2.442,2.442,0,0,0-1.4.41,2.631,2.631,0,0,0-.929,1.14,4.72,4.72,0,0,0,0,3.45,2.556,2.556,0,0,0,.926,1.14,2.451,2.451,0,0,0,1.4.4h0Zm0.234-5.63a1.719,1.719,0,0,1,.988.29,1.845,1.845,0,0,1,.644.82,3.6,3.6,0,0,1,0,2.51,1.845,1.845,0,0,1-.644.82,1.831,1.831,0,0,1-1.978,0,1.682,1.682,0,0,1-.636-0.81,3.335,3.335,0,0,1-.22-1.27,3.278,3.278,0,0,1,.223-1.26,1.8,1.8,0,0,1,.639-0.81,1.7,1.7,0,0,1,.984-0.29h0Zm10.543,5.63a2.986,2.986,0,0,0,1.55-.39,2.609,2.609,0,0,0,1.011-1.13,4.5,4.5,0,0,0,0-3.49,2.56,2.56,0,0,0-1.008-1.13,3.215,3.215,0,0,0-3.106,0,2.572,2.572,0,0,0-1.008,1.13,4.5,4.5,0,0,0,0,3.49,2.621,2.621,0,0,0,1.011,1.13,2.989,2.989,0,0,0,1.55.39h0Zm0-.9a1.664,1.664,0,0,1-1.383-.62,2.777,2.777,0,0,1-.486-1.75,2.746,2.746,0,0,1,.486-1.74,1.852,1.852,0,0,1,2.766,0,2.746,2.746,0,0,1,.486,1.74,2.777,2.777,0,0,1-.486,1.75,1.664,1.664,0,0,1-1.383.62h0Zm4.375-5.52v6.31H742.9v-3.74a2.012,2.012,0,0,1,.2-0.94,1.439,1.439,0,0,1,.577-0.62,1.658,1.658,0,0,1,.876-0.22,1.414,1.414,0,0,1,1.123.42,1.838,1.838,0,0,1,.366,1.26v3.84h1.008v-4.09a2.431,2.431,0,0,0-.574-1.73,2.162,2.162,0,0,0-1.635-.61,2.248,2.248,0,0,0-1.181.29,1.8,1.8,0,0,0-.718.82h-0.094v-0.99h-0.961Zm-150.378,11.89v8.82h1.008v-3.74a2.027,2.027,0,0,1,.205-0.93,1.478,1.478,0,0,1,.6-0.63,1.986,1.986,0,0,1,.949-0.22,1.373,1.373,0,0,1,1.09.42,1.862,1.862,0,0,1,.369,1.26v3.84h1.008v-4.09a2.764,2.764,0,0,0-.266-1.26,1.838,1.838,0,0,0-.757-0.8,2.358,2.358,0,0,0-1.157-.28,2.389,2.389,0,0,0-1.21.29,1.783,1.783,0,0,0-.736.82h-0.093v-3.5h-1.008Zm8.377,0.87h-1.008v1.64h-1.02v0.84h1.02v3.83a2.209,2.209,0,0,0,.185.98,1.09,1.09,0,0,0,.583.54,2.79,2.79,0,0,0,1.055.17,3.4,3.4,0,0,0,.592-0.06v-0.85a3.872,3.872,0,0,1-.469.02,0.9,0.9,0,0,1-.715-0.25,1.194,1.194,0,0,1-.223-0.81v-3.57H601.3v-0.84h-1.407v-1.64Zm4.24,0h-1.008v1.64h-1.02v0.84h1.02v3.83a2.209,2.209,0,0,0,.185.98,1.09,1.09,0,0,0,.583.54,2.79,2.79,0,0,0,1.055.17,3.4,3.4,0,0,0,.592-0.06v-0.85a3.872,3.872,0,0,1-.469.02,0.9,0.9,0,0,1-.715-0.25,1.194,1.194,0,0,1-.223-0.81v-3.57h1.407v-0.84h-1.407v-1.64Zm5.887,1.52a2.294,2.294,0,0,0-1.181.32,2.188,2.188,0,0,0-.841.85H607.9v-1.05h-0.961v8.42h1.008v-3.06h0.094a1.827,1.827,0,0,0,.779.79,2.567,2.567,0,0,0,1.2.27,2.435,2.435,0,0,0,1.4-.4,2.591,2.591,0,0,0,.929-1.15,4.661,4.661,0,0,0,0-3.44,2.508,2.508,0,0,0-.929-1.14,2.441,2.441,0,0,0-1.4-.41h0Zm-0.24,5.64a1.707,1.707,0,0,1-.982-0.29,1.873,1.873,0,0,1-.648-0.82,3.22,3.22,0,0,1-.228-1.26,3.169,3.169,0,0,1,.228-1.25,1.873,1.873,0,0,1,.648-0.82,1.714,1.714,0,0,1,.987-0.29,1.654,1.654,0,0,1,1.627,1.1,3.3,3.3,0,0,1,.22,1.26,3.354,3.354,0,0,1-.22,1.27,1.687,1.687,0,0,1-.639.81,1.724,1.724,0,0,1-.993.29h0Zm5.189-3.65a0.734,0.734,0,0,0,.381-0.11,0.754,0.754,0,0,0,.278-0.28,0.708,0.708,0,0,0,.1-0.38,0.759,0.759,0,0,0-.1-0.38,0.759,0.759,0,0,0-1.318,0,0.759,0.759,0,0,0-.1.38,0.708,0.708,0,0,0,.1.38,0.754,0.754,0,0,0,.278.28,0.734,0.734,0,0,0,.381.11h0Zm0,4.5a0.724,0.724,0,0,0,.381-0.1,0.754,0.754,0,0,0,.278-0.28,0.752,0.752,0,0,0,0-.76,0.754,0.754,0,0,0-.278-0.28,0.776,0.776,0,0,0-.762,0,0.754,0.754,0,0,0-.278.28,0.752,0.752,0,0,0,0,.76,0.754,0.754,0,0,0,.278.28,0.724,0.724,0,0,0,.381.1h0Zm2.013,1.85h0.879l2.59-10.36h-0.89Zm4.053,0h0.879l2.59-10.36h-0.891Zm10.827-1.91,1.77-6.31h-1.014l-1.243,5.05h-0.094l-1.412-5.05H628.9l-1.412,5.05H627.4l-1.242-5.05h-1.02l1.77,6.31h1.02l1.406-4.88h0.094l1.412,4.88h1.026Zm9.174,0,1.77-6.31h-1.014l-1.242,5.05h-0.094l-1.412-5.05h-0.967l-1.412,5.05h-0.094l-1.243-5.05h-1.019l1.769,6.31h1.02l1.407-4.88H638.6l1.413,4.88h1.025Zm9.175,0,1.769-6.31h-1.013l-1.243,5.05H649.63l-1.412-5.05h-0.967l-1.412,5.05h-0.094l-1.242-5.05h-1.02l1.77,6.31h1.019l1.407-4.88h0.094l1.412,4.88h1.026Zm3.829,0.06a0.724,0.724,0,0,0,.381-0.1,0.765,0.765,0,0,0,.279-0.28,0.759,0.759,0,0,0,0-.76,0.765,0.765,0,0,0-.279-0.28,0.776,0.776,0,0,0-.762,0,0.754,0.754,0,0,0-.278.28,0.759,0.759,0,0,0,0,.76,0.754,0.754,0,0,0,.278.28,0.729,0.729,0,0,0,.381.1h0Zm2.611-6.37v6.31h1.008v-3.74a2.024,2.024,0,0,1,.205-0.94,1.436,1.436,0,0,1,.578-0.62,1.658,1.658,0,0,1,.876-0.22,1.41,1.41,0,0,1,1.122.42,1.838,1.838,0,0,1,.366,1.26v3.84h1.008v-4.09a2.427,2.427,0,0,0-.574-1.73,2.162,2.162,0,0,0-1.635-.61,2.251,2.251,0,0,0-1.181.29,1.8,1.8,0,0,0-.718.82h-0.094v-0.99h-0.961Zm7.422,8.6a2.365,2.365,0,0,0,.95-0.17,1.684,1.684,0,0,0,.656-0.58,5.184,5.184,0,0,0,.557-1.15l2.467-6.7h-1.072l-1.729,5.19h-0.094l-1.735-5.19h-1.09l2.339,6.32-0.117.37a2,2,0,0,1-.461.81,1.035,1.035,0,0,1-.7.23,2.311,2.311,0,0,1-.422-0.03v0.86a2.169,2.169,0,0,0,.451.04h0Zm7.288-10.24h-1.008v1.64h-1.02v0.84h1.02v3.83a2.21,2.21,0,0,0,.184.98,1.094,1.094,0,0,0,.583.54,2.8,2.8,0,0,0,1.055.17,3.4,3.4,0,0,0,.592-0.06v-0.85a3.864,3.864,0,0,1-.469.02,0.9,0.9,0,0,1-.715-0.25,1.2,1.2,0,0,1-.222-0.81v-3.57h1.406v-0.84h-1.406v-1.64Zm3.337,0.35a0.692,0.692,0,0,0,.7-0.7,0.683,0.683,0,0,0-.205-0.5,0.718,0.718,0,0,0-.994,0,0.674,0.674,0,0,0-.208.5,0.69,0.69,0,0,0,.208.5,0.7,0.7,0,0,0,.5.2h0Zm-0.5,1.29v6.31H675.2v-6.31H674.2Zm2.81,0v6.31h1.007v-3.91a1.741,1.741,0,0,1,.194-0.81,1.445,1.445,0,0,1,.53-0.58,1.3,1.3,0,0,1,.742-0.22,1.325,1.325,0,0,1,.958.34,1.153,1.153,0,0,1,.36.89v4.29H681.8v-4.06a1.489,1.489,0,0,1,.185-0.73,1.394,1.394,0,0,1,.518-0.53,1.488,1.488,0,0,1,.762-0.2,1.324,1.324,0,0,1,1,.35,1.455,1.455,0,0,1,.331,1.04v4.13h1.008v-4.36a2.111,2.111,0,0,0-.521-1.53,1.975,1.975,0,0,0-1.489-.54,2.263,2.263,0,0,0-1.16.3,1.925,1.925,0,0,0-.773.81H681.57a1.83,1.83,0,0,0-1.747-1.11,2.021,2.021,0,0,0-1.09.29,1.763,1.763,0,0,0-.674.82h-0.093v-0.99h-0.961Zm15.515,4.68h-1.008a1.4,1.4,0,0,1-.61.64,2.22,2.22,0,0,1-1.019.21,1.687,1.687,0,0,1-1.568-.95,2.643,2.643,0,0,1-.255-1.09v-0.04H692.6v-0.39a4.012,4.012,0,0,0-.331-1.69,2.442,2.442,0,0,0-.95-1.1,2.681,2.681,0,0,0-1.462-.39,2.775,2.775,0,0,0-1.506.41,2.647,2.647,0,0,0-.993,1.14,4.48,4.48,0,0,0,0,3.46,2.628,2.628,0,0,0,.99,1.14,2.865,2.865,0,0,0,1.512.39,3.062,3.062,0,0,0,1.732-.46,2.215,2.215,0,0,0,.929-1.28h0Zm-2.673-3.9a1.6,1.6,0,0,1,.877.23,1.555,1.555,0,0,1,.591.65,2.2,2.2,0,0,1,.226.97H688.06a2.231,2.231,0,0,1,.27-0.97,1.676,1.676,0,0,1,1.517-.88h0Zm4.071,0.94a1.449,1.449,0,0,0,.413,1.09,2.843,2.843,0,0,0,1.31.63l1.084,0.26a1.026,1.026,0,0,1,1,.89,0.776,0.776,0,0,1-.188.51,1.282,1.282,0,0,1-.518.35,2.2,2.2,0,0,1-.753.12,1.8,1.8,0,0,1-.973-0.23,1.121,1.121,0,0,1-.51-0.64h-1.037a1.635,1.635,0,0,0,.378.91,2.083,2.083,0,0,0,.867.6,3.409,3.409,0,0,0,1.239.21,3.34,3.34,0,0,0,1.293-.24,2.161,2.161,0,0,0,.908-0.68,1.59,1.59,0,0,0,.331-0.99,1.409,1.409,0,0,0-.431-1.08,2.986,2.986,0,0,0-1.333-.63l-0.973-.23a2.184,2.184,0,0,1-.829-0.35,0.657,0.657,0,0,1-.267-0.54,0.774,0.774,0,0,1,.176-0.49,1.172,1.172,0,0,1,.481-0.33,1.842,1.842,0,0,1,.68-0.12,1.719,1.719,0,0,1,.923.23,1.009,1.009,0,0,1,.465.61h1a1.725,1.725,0,0,0-.378-0.9,2.092,2.092,0,0,0-.829-0.59,3.09,3.09,0,0,0-1.173-.21,2.924,2.924,0,0,0-1.2.25,2.063,2.063,0,0,0-.847.66,1.538,1.538,0,0,0-.307.93h0Zm7.14,4.65a0.724,0.724,0,0,0,.381-0.1,0.765,0.765,0,0,0,.279-0.28,0.759,0.759,0,0,0,0-.76,0.765,0.765,0,0,0-.279-0.28,0.776,0.776,0,0,0-.762,0,0.762,0.762,0,0,0-.278.28,0.759,0.759,0,0,0,0,.76,0.762,0.762,0,0,0,.278.28,0.729,0.729,0,0,0,.381.1h0Zm6.819-4.44h1.02a2.3,2.3,0,0,0-1.336-1.77,3.029,3.029,0,0,0-1.313-.28,2.859,2.859,0,0,0-1.53.41,2.582,2.582,0,0,0-1.01,1.13,3.884,3.884,0,0,0-.355,1.71,3.958,3.958,0,0,0,.355,1.74,2.635,2.635,0,0,0,1.01,1.15,2.865,2.865,0,0,0,1.536.4,3.145,3.145,0,0,0,1.3-.25,2.292,2.292,0,0,0,1.339-1.76h-1.02a1.387,1.387,0,0,1-.565.82,1.872,1.872,0,0,1-1.064.29,1.635,1.635,0,0,1-.976-0.3,1.839,1.839,0,0,1-.647-0.83,3.548,3.548,0,0,1,0-2.5,1.816,1.816,0,0,1,.644-0.81,1.709,1.709,0,0,1,.982-0.29,1.757,1.757,0,0,1,1.075.32,1.494,1.494,0,0,1,.554.82h0Zm4.984,4.49a2.986,2.986,0,0,0,1.55-.39,2.609,2.609,0,0,0,1.011-1.13,4.5,4.5,0,0,0,0-3.49,2.56,2.56,0,0,0-1.008-1.13,3.215,3.215,0,0,0-3.106,0,2.564,2.564,0,0,0-1.007,1.13,4.5,4.5,0,0,0,0,3.49,2.613,2.613,0,0,0,1.01,1.13,2.991,2.991,0,0,0,1.55.39h0Zm0-.9a1.665,1.665,0,0,1-1.383-.62,2.777,2.777,0,0,1-.486-1.75,2.746,2.746,0,0,1,.486-1.74,1.852,1.852,0,0,1,2.766,0,2.74,2.74,0,0,1,.487,1.74,2.771,2.771,0,0,1-.487,1.75,1.664,1.664,0,0,1-1.383.62h0Zm4.375-5.52v6.31h1.008v-3.91a1.741,1.741,0,0,1,.194-0.81,1.438,1.438,0,0,1,.53-0.58,1.3,1.3,0,0,1,.741-0.22,1.323,1.323,0,0,1,.958.34,1.15,1.15,0,0,1,.361.89v4.29h1.008v-4.06a1.488,1.488,0,0,1,.184-0.73,1.4,1.4,0,0,1,.519-0.53,1.488,1.488,0,0,1,.762-0.2,1.327,1.327,0,0,1,1,.35,1.455,1.455,0,0,1,.331,1.04v4.13h1.008v-4.36a2.116,2.116,0,0,0-.521-1.53,1.975,1.975,0,0,0-1.489-.54,2.261,2.261,0,0,0-1.16.3,1.934,1.934,0,0,0-.774.81H721.8a1.83,1.83,0,0,0-1.747-1.11,2.021,2.021,0,0,0-1.09.29,1.757,1.757,0,0,0-.674.82H718.2v-0.99h-0.961Zm11.155,6.37a0.724,0.724,0,0,0,.381-0.1,0.765,0.765,0,0,0,.279-0.28,0.759,0.759,0,0,0,0-.76,0.765,0.765,0,0,0-.279-0.28,0.776,0.776,0,0,0-.762,0,0.762,0.762,0,0,0-.278.28,0.759,0.759,0,0,0,0,.76,0.762,0.762,0,0,0,.278.28,0.729,0.729,0,0,0,.381.1h0Z" transform="translate(-573.5 -3066.5)"/>
    <path id="Button_copy_2" data-name="Button copy 2" class="cls-4" d="M739.843,3119.98v-1.2h-3.962v-7.25h-1.312v8.45h5.274Zm6.789-1.72h-1.213a1.193,1.193,0,0,1-.563.57,1.98,1.98,0,0,1-.955.2,1.677,1.677,0,0,1-.876-0.22,1.572,1.572,0,0,1-.592-0.63,2.259,2.259,0,0,1-.231-0.97v-0.08h4.506v-0.43a3.953,3.953,0,0,0-.343-1.72,2.431,2.431,0,0,0-.984-1.11,3.159,3.159,0,0,0-3.077.02,2.625,2.625,0,0,0-1.025,1.16,4.505,4.505,0,0,0-.006,3.52,2.646,2.646,0,0,0,1.019,1.14,3.061,3.061,0,0,0,1.574.4,3.524,3.524,0,0,0,1.295-.23,2.46,2.46,0,0,0,.953-0.64,2.188,2.188,0,0,0,.518-0.98h0Zm-2.778-3.71a1.542,1.542,0,0,1,.812.21,1.439,1.439,0,0,1,.548.57,1.927,1.927,0,0,1,.211.87H742.2a1.982,1.982,0,0,1,.252-0.86,1.489,1.489,0,0,1,.577-0.58,1.6,1.6,0,0,1,.823-0.21h0Zm6.01,5.54a2.453,2.453,0,0,0,1.128-.26,2,2,0,0,0,.789-0.74h0.1v0.89h1.213v-4.36a2.151,2.151,0,0,0-.293-1.15,1.886,1.886,0,0,0-.855-0.74,3.268,3.268,0,0,0-1.354-.25,3.475,3.475,0,0,0-1.289.22,2.257,2.257,0,0,0-.912.63,1.739,1.739,0,0,0-.407.95H749.2a0.9,0.9,0,0,1,.454-0.53,1.9,1.9,0,0,1,.876-0.18,1.518,1.518,0,0,1,.973.27,0.944,0.944,0,0,1,.334.78v0.55l-1.729.1a3.153,3.153,0,0,0-1.758.56,1.64,1.64,0,0,0-.615,1.35,1.868,1.868,0,0,0,.273,1.01,1.793,1.793,0,0,0,.755.66,2.442,2.442,0,0,0,1.1.24h0Zm0.323-1.06a1.354,1.354,0,0,1-.856-0.25,0.772,0.772,0,0,1-.328-0.66,0.757,0.757,0,0,1,.31-0.65,1.89,1.89,0,0,1,.967-0.27l1.559-.1v0.53a1.239,1.239,0,0,1-.214.71,1.479,1.479,0,0,1-.592.51,1.943,1.943,0,0,1-.846.18h0Zm4.579-5.43v6.38h1.26v-3.76a1.489,1.489,0,0,1,.208-0.79,1.425,1.425,0,0,1,.578-0.53,1.9,1.9,0,0,1,.843-0.18,2.877,2.877,0,0,1,.393.02,1.248,1.248,0,0,1,.311.05v-1.24a2.12,2.12,0,0,0-.563-0.05,1.982,1.982,0,0,0-.771.14,1.792,1.792,0,0,0-.612.38,1.276,1.276,0,0,0-.34.56h-0.094v-0.98h-1.213Zm4.686,0v6.38h1.26v-3.73a1.878,1.878,0,0,1,.187-0.86,1.342,1.342,0,0,1,.531-0.56,1.6,1.6,0,0,1,.805-0.2,1.336,1.336,0,0,1,1.038.38,1.713,1.713,0,0,1,.34,1.16v3.81h1.26v-4.13a2.5,2.5,0,0,0-.572-1.76,2.123,2.123,0,0,0-1.638-.61,2.287,2.287,0,0,0-1.184.29,1.826,1.826,0,0,0-.72.85h-0.094v-1.02h-1.213Zm10.232,0v6.38h1.26v-3.9a1.578,1.578,0,0,1,.176-0.74,1.3,1.3,0,0,1,1.172-.71,1.294,1.294,0,0,1,.9.31,1.106,1.106,0,0,1,.334.85v4.19h1.237v-4.01a1.387,1.387,0,0,1,.167-0.68,1.258,1.258,0,0,1,.475-0.48,1.371,1.371,0,0,1,.706-0.18,1.118,1.118,0,0,1,1.237,1.29v4.06H778.6v-4.39a2.125,2.125,0,0,0-.536-1.55,1.958,1.958,0,0,0-1.5-.56,2.215,2.215,0,0,0-1.175.31,1.923,1.923,0,0,0-.765.84h-0.1a1.851,1.851,0,0,0-.669-0.85,1.921,1.921,0,0,0-1.089-.3,1.982,1.982,0,0,0-1.1.3,1.692,1.692,0,0,0-.677.85H770.9v-1.03h-1.213Zm13.265,6.51a3.16,3.16,0,0,0,1.6-.4,2.648,2.648,0,0,0,1.04-1.15,4.5,4.5,0,0,0,0-3.54,2.564,2.564,0,0,0-1.043-1.14,3.412,3.412,0,0,0-3.206,0,2.564,2.564,0,0,0-1.043,1.14,4.5,4.5,0,0,0,0,3.54,2.648,2.648,0,0,0,1.04,1.15,3.175,3.175,0,0,0,1.609.4h0Zm0-1.12a1.494,1.494,0,0,1-1.266-.58,3.171,3.171,0,0,1,0-3.24,1.688,1.688,0,0,1,2.529,0,3.153,3.153,0,0,1,0,3.24,1.522,1.522,0,0,1-1.263.58h0Zm4.4-5.39v6.38h1.26v-3.76a1.5,1.5,0,0,1,.208-0.79,1.425,1.425,0,0,1,.578-0.53,1.9,1.9,0,0,1,.843-0.18,2.877,2.877,0,0,1,.393.02,1.248,1.248,0,0,1,.311.05v-1.24a2.12,2.12,0,0,0-.563-0.05,1.985,1.985,0,0,0-.771.14,1.792,1.792,0,0,0-.612.38,1.276,1.276,0,0,0-.34.56H788.56v-0.98h-1.213Zm10.083,4.66h-1.213a1.193,1.193,0,0,1-.563.57,1.982,1.982,0,0,1-.955.2,1.677,1.677,0,0,1-.876-0.22,1.572,1.572,0,0,1-.592-0.63,2.244,2.244,0,0,1-.231-0.97v-0.08h4.506v-0.43a3.953,3.953,0,0,0-.343-1.72,2.431,2.431,0,0,0-.984-1.11,3.159,3.159,0,0,0-3.077.02,2.625,2.625,0,0,0-1.025,1.16,4.505,4.505,0,0,0-.006,3.52,2.646,2.646,0,0,0,1.019,1.14,3.061,3.061,0,0,0,1.574.4,3.524,3.524,0,0,0,1.295-.23,2.456,2.456,0,0,0,.952-0.64,2.18,2.18,0,0,0,.519-0.98h0Zm-2.778-3.71a1.544,1.544,0,0,1,.812.21,1.439,1.439,0,0,1,.548.57,1.927,1.927,0,0,1,.211.87H793a2,2,0,0,1,.251-0.86,1.5,1.5,0,0,1,.578-0.58,1.6,1.6,0,0,1,.823-0.21h0Zm5.225,5.53a0.925,0.925,0,0,0,.442-0.11,0.811,0.811,0,0,0,.308-0.32,0.882,0.882,0,0,0,.111-0.44,0.921,0.921,0,0,0-.111-0.45,0.855,0.855,0,0,0-.308-0.31,0.939,0.939,0,0,0-.882,0,0.8,0.8,0,0,0-.31.32,0.92,0.92,0,0,0,0,.88,0.8,0.8,0,0,0,.31.32,0.935,0.935,0,0,0,.44.11h0Zm3.66,0a0.925,0.925,0,0,0,.442-0.11,0.811,0.811,0,0,0,.308-0.32,0.882,0.882,0,0,0,.111-0.44,0.921,0.921,0,0,0-.111-0.45,0.855,0.855,0,0,0-.308-0.31,0.939,0.939,0,0,0-.882,0,0.8,0.8,0,0,0-.31.32,0.92,0.92,0,0,0,0,.88,0.8,0.8,0,0,0,.31.32,0.932,0.932,0,0,0,.44.11h0Zm3.66,0a0.925,0.925,0,0,0,.442-0.11,0.811,0.811,0,0,0,.308-0.32,0.882,0.882,0,0,0,.111-0.44,0.921,0.921,0,0,0-.111-0.45,0.855,0.855,0,0,0-.308-0.31,0.939,0.939,0,0,0-.882,0,0.8,0.8,0,0,0-.31.32,0.92,0.92,0,0,0,0,.88,0.8,0.8,0,0,0,.31.32,0.932,0.932,0,0,0,.44.11h0Z" transform="translate(-573.5 -3066.5)"/>
    <rect id="Panel_copy_2" data-name="Panel copy 2" class="cls-7" x="0.5" y="0.5" width="271" height="124" rx="4" ry="4"/>
  </g>
</svg>
