<svg xmlns="http://www.w3.org/2000/svg" id="Layer_1" viewBox="0 0 674 315" enable-background="new 0 0 674 315">
  <style>
    .st0{filter:url(#Adobe_OpacityMaskFilter);} .st1{fill:#FFFFFF;} .st2{mask:url(#grid-illustration-b);} .st3{fill:#D7D7DB;} .st4{fill:none;stroke:#979797;stroke-width:2;} .st5{fill:#F9F9FA;} .st6{fill:none;stroke:#0C0C0D;stroke-width:2;stroke-opacity:0.3;} .st7{fill:#737373;} .st8{fill:none;stroke:#979797;stroke-width:3;} .st9{fill:#979797;} .st10{opacity:0.5;fill:#F9EE79;enable-background:new ;} .st11{fill:#30E60B;}
  </style>
  <g transform="translate(52 51)">
    <defs>
      <filter id="Adobe_OpacityMaskFilter" width="587" height="350" x="8" y="9" filterUnits="userSpaceOnUse">
        <feColorMatrix values="1 0 0 0 0 0 1 0 0 0 0 0 1 0 0 0 0 0 1 0"/>
      </filter>
    </defs>
    <mask id="grid-illustration-b" width="587" height="350" x="8" y="9" maskUnits="userSpaceOnUse">
      <g class="st0">
        <path id="grid-illustration-a" d="M0 0h549v279H0z" class="st1"/>
      </g>
    </mask>
    <g class="st2">
      <path id="grid-illustration-c" d="M8 9h544v270H8z" class="st3"/>
      <path d="M9 10h542v268H9z" class="st4"/>
      <path id="grid-illustration-d" d="M8 89h380.9l.1-64 163.3-.2L552 89v270H8z" class="st5"/>
      <path d="M9 90v268h542V89l.3-63.2L390 26l-.1 64H9z" class="st4"/>
      <path id="grid-illustration-e" d="M457 97h136c1.1 0 2 .9 2 2v60c0 1.1-.9 2-2 2H457c-1.1 0-2-.9-2-2V99c0-1.1.9-2 2-2z" class="st1"/>
      <path d="M458 98h134c1.1 0 2 .9 2 2v58c0 1.1-.9 2-2 2H458c-1.1 0-2-.9-2-2v-58c0-1.1.9-2 2-2z" class="st6"/>
    </g>
    <path d="M391 27h158v4H391z" class="st7"/>
  </g>
  <path d="M61 221h540" class="st4"/>
  <path d="M193.5 84v48m83-48v48m83-48v48" class="st8"/>
  <circle cx="235" cy="108" r="16" class="st9"/>
  <circle cx="318" cy="108" r="16" class="st9"/>
  <circle cx="401" cy="108" r="16" class="st9"/>
  <path d="M60 60h541v8H60zm0 64h541v8H60zm0 64h541v8H60zm0 64h541v8H60zm0-160h541v8H60zm0 64h541v8H60zm0 64h541v8H60zm0 64h541v8H60zm0-208h541v8H60zm0 64h541v8H60zm0 64h541v8H60zm0 64h541v8H60zm0-160h541v8H60zm0 64h541v8H60zm0 64h541v8H60zm0 64h541v8H60z" class="st10"/>
  <path d="M32 60h1v80h-1zm0 80h1v80h-1z" class="st11"/>
  <path d="M30 60h5v1h-5zm0 80h5v1h-5zm0-1h5v1h-5zm0 80h5v1h-5zM17 89h31c1.1 0 2 .9 2 2v18c0 1.1-.9 2-2 2H17c-1.1 0-2-.9-2-2V91c0-1.1.9-2 2-2z" class="st11"/>
  <path d="M24.6 102.1v-1h-1v-2.2h-1.2l-.1 2.2h-2l2.1-5.1-1.1-.4-2.4 5.6v.9h3.4v1.9h1.3v-1.9h1zm4.3-6.5c1.9 0 2.8 1.6 2.8 4.3 0 2.7-1 4.3-2.8 4.3-1.9 0-2.8-1.6-2.8-4.3 0-2.8.9-4.3 2.8-4.3zm0 1c-.9 0-1.5.9-1.5 3.3s.5 3.3 1.5 3.3c.9 0 1.5-.9 1.5-3.3s-.6-3.3-1.5-3.3zm0 2.5c.5 0 .8.3.8.8 0 .4-.3.8-.8.8-.4 0-.8-.3-.8-.8s.4-.8.8-.8zm7.8-1.6c1.7 0 2.3 1.3 2.3 3.3 0 1.9-.8 3.3-2.4 3.3-.7 0-1.2-.2-1.6-.7v3l-1.3.2v-8.9h1.2l.1.8c.3-.7 1-1 1.7-1zm-.4 1c-.6 0-1.1.4-1.4.9v3c.3.5.7.7 1.2.7.9 0 1.4-.7 1.4-2.3.1-1.6-.4-2.3-1.2-2.3zm3.9 5.5h1.5l1.5-2.6 1.5 2.6h1.6l-2.3-3.4 2-2.9h-1.5l-1.3 2.2-1.2-2.2h-1.5l2 3-2.3 3.3z"/>
  <path d="M17 169h31c1.1 0 2 .9 2 2v18c0 1.1-.9 2-2 2H17c-1.1 0-2-.9-2-2v-18c0-1.1.9-2 2-2z" class="st11"/>
  <path d="M24.6 182.1v-1h-1v-2.2h-1.2l-.1 2.2h-2l2.1-5.1-1.1-.4-2.4 5.6v.9h3.4v1.9h1.3v-1.9h1zm4.3-6.5c1.9 0 2.8 1.6 2.8 4.3 0 2.7-1 4.3-2.8 4.3-1.9 0-2.8-1.6-2.8-4.3 0-2.8.9-4.3 2.8-4.3zm0 1c-.9 0-1.5.9-1.5 3.3s.5 3.3 1.5 3.3c.9 0 1.5-.9 1.5-3.3s-.6-3.3-1.5-3.3zm0 2.5c.5 0 .8.3.8.8 0 .4-.3.8-.8.8-.4 0-.8-.3-.8-.8s.4-.8.8-.8zm7.8-1.6c1.7 0 2.3 1.3 2.3 3.3 0 1.9-.8 3.3-2.4 3.3-.7 0-1.2-.2-1.6-.7v3l-1.3.2v-8.9h1.2l.1.8c.3-.7 1-1 1.7-1zm-.4 1c-.6 0-1.1.4-1.4.9v3c.3.5.7.7 1.2.7.9 0 1.4-.7 1.4-2.3.1-1.6-.4-2.3-1.2-2.3zm3.9 5.5h1.5l1.5-2.6 1.5 2.6h1.6l-2.3-3.4 2-2.9h-1.5l-1.3 2.2-1.3-2.2h-1.5l2 3-2.2 3.3z"/>
  <path d="M613 60h1v15h-1z" class="st11"/>
  <path d="M611 60h5v1h-5zm0 15h5v1h-5zm13-18h26c1.1 0 2 .9 2 2v18c0 1.1-.9 2-2 2h-26c-1.1 0-2-.9-2-2V59c0-1.1.9-2 2-2z" class="st11"/>
  <path d="M618 68l4-4 4 4-4 4z" class="st11"/>
  <path d="M632.2 65.7c0 .8-.5 1.3-1.4 1.8 1.1.5 1.7 1.2 1.7 2.2 0 1.3-1.1 2.4-2.9 2.4-1.9 0-2.9-1.1-2.9-2.4 0-1 .6-1.7 1.6-2.1-.9-.5-1.3-1-1.3-1.9 0-1.5 1.3-2.2 2.6-2.2 1.4.1 2.6.8 2.6 2.2zm-3.9.1c0 .8.6 1.1 1.6 1.4.7-.4 1-.8 1-1.4 0-.7-.5-1.2-1.3-1.2-.8-.1-1.3.4-1.3 1.2zm2.8 4c0-1-.7-1.3-2-1.7-.6.3-1.1.8-1.1 1.7 0 .8.5 1.4 1.5 1.4 1.1-.1 1.6-.7 1.6-1.4zm6.3-4.3c1.7 0 2.3 1.3 2.3 3.3 0 1.9-.8 3.3-2.4 3.3-.7 0-1.2-.2-1.6-.7v3l-1.3.2v-8.9h1.2l.1.8c.3-.7 1-1 1.7-1zm-.4 1c-.6 0-1.1.4-1.4.9v3c.3.5.7.7 1.2.7.9 0 1.4-.7 1.4-2.3.1-1.6-.4-2.3-1.2-2.3zm3.9 5.5h1.5l1.5-2.6 1.5 2.6h1.6l-2.3-3.4 2-2.9h-1.5l-1.3 2.2-1.3-2.2h-1.5l2 3-2.2 3.3z"/>
  <path d="M613 77h1v62h-1zm-2-1h5v1h-5zm0 63h5v1h-5zm13-42h33c1.1 0 2 .9 2 2v18c0 1.1-.9 2-2 2h-33c-1.1 0-2-.9-2-2V99c0-1.1.9-2 2-2z" class="st11"/>
  <path d="M618 108l4-4 4 4-4 4z" class="st11"/>
  <path d="M629.2 103.6c-1 0-1.8.3-2.5 1l.7.8c.5-.5 1-.7 1.7-.7.8 0 1.4.4 1.4 1.2 0 .9-.7 1.3-1.5 1.3h-.5l-.2 1h.7c.9 0 1.6.4 1.6 1.5 0 .9-.6 1.5-1.7 1.5-.7 0-1.3-.3-1.8-.8l-.8.7c.6.8 1.6 1.2 2.7 1.2 1.8 0 3-1.1 3-2.5 0-1.3-.9-1.9-1.9-2 .9-.2 1.6-.9 1.6-2 .2-1.3-.8-2.2-2.5-2.2zm7.3 0c-1.2 0-2 .5-2.6 1.3l.9.7c.5-.6.9-.9 1.7-.9.8 0 1.3.5 1.3 1.3 0 1.2-.7 2.1-3.7 5v1h5.1l.2-1.1h-3.8c2.7-2.4 3.6-3.6 3.6-5-.1-1.3-1-2.3-2.7-2.3zm8.1 1.9c1.7 0 2.3 1.3 2.3 3.3 0 1.9-.8 3.3-2.4 3.3-.7 0-1.2-.2-1.6-.7v3l-1.3.2v-8.9h1.2l.1.8c.3-.7 1-1 1.7-1zm-.4 1c-.6 0-1.1.4-1.4.9v3c.3.5.7.7 1.2.7.9 0 1.4-.7 1.4-2.3.1-1.6-.4-2.3-1.2-2.3zm3.9 5.5h1.5l1.5-2.6 1.5 2.6h1.6l-2.3-3.4 2-2.9h-1.5l-1.3 2.2-1.3-2.2h-1.5l2 3-2.2 3.3z"/>
  <path d="M613 149h1v62h-1zm-2-1h5v1h-5zm0 63h5v1h-5zm13-42h33c1.1 0 2 .9 2 2v18c0 1.1-.9 2-2 2h-33c-1.1 0-2-.9-2-2v-18c0-1.1.9-2 2-2z" class="st11"/>
  <path d="M618 180l4-4 4 4-4 4z" class="st11"/>
  <path d="M629.2 175.6c-1 0-1.8.3-2.5 1l.7.8c.5-.5 1-.7 1.7-.7.8 0 1.4.4 1.4 1.2 0 .9-.7 1.3-1.5 1.3h-.5l-.2 1h.7c.9 0 1.6.4 1.6 1.5 0 .9-.6 1.5-1.7 1.5-.7 0-1.3-.3-1.8-.8l-.8.7c.6.8 1.6 1.2 2.7 1.2 1.8 0 3-1.1 3-2.5 0-1.3-.9-1.9-1.9-2 .9-.2 1.6-.9 1.6-2 .2-1.3-.8-2.2-2.5-2.2zm7.3 0c-1.2 0-2 .5-2.6 1.3l.9.7c.5-.6.9-.9 1.7-.9.8 0 1.3.5 1.3 1.3 0 1.2-.7 2.1-3.7 5v1h5.1l.2-1.1h-3.8c2.7-2.4 3.6-3.6 3.6-5-.1-1.3-1-2.3-2.7-2.3zm8.1 1.9c1.7 0 2.3 1.3 2.3 3.3 0 1.9-.8 3.3-2.4 3.3-.7 0-1.2-.2-1.6-.7v3l-1.3.2v-8.9h1.2l.1.8c.3-.7 1-1 1.7-1zm-.4 1c-.6 0-1.1.4-1.4.9v3c.3.5.7.7 1.2.7.9 0 1.4-.7 1.4-2.3.1-1.6-.4-2.3-1.2-2.3zm3.9 5.5h1.5l1.5-2.6 1.5 2.6h1.6l-2.3-3.4 2-2.9h-1.5l-1.3 2.2-1.3-2.2h-1.5l2 3-2.2 3.3z"/>
  <path d="M613 140h1v8h-1z" class="st11"/>
  <path d="M611 140h5v1h-5zm0 7h5v1h-5zm13-14h26c1.1 0 2 .9 2 2v18c0 1.1-.9 2-2 2h-26c-1.1 0-2-.9-2-2v-18c0-1.1.9-2 2-2z" class="st11"/>
  <path d="M618 144l4-4 4 4-4 4z" class="st11"/>
  <path d="M632.5 146.1v-1h-1v-2.2h-1.2l-.1 2.2h-2l2.1-5.1-1.1-.4-2.4 5.6v.9h3.4v1.9h1.3v-1.9h1zm4.9-4.6c1.7 0 2.3 1.3 2.3 3.3 0 1.9-.8 3.3-2.4 3.3-.7 0-1.2-.2-1.6-.7v3l-1.3.2v-8.9h1.2l.1.8c.3-.7 1-1 1.7-1zm-.4 1c-.6 0-1.1.4-1.4.9v3c.3.5.7.7 1.2.7.9 0 1.4-.7 1.4-2.3.1-1.6-.4-2.3-1.2-2.3zm3.9 5.5h1.5l1.5-2.6 1.5 2.6h1.6l-2.3-3.4 2-2.9h-1.5l-1.3 2.2-1.3-2.2h-1.5l2 3-2.2 3.3z"/>
  <path d="M613 212h1v8h-1z" class="st11"/>
  <path d="M611 212h5v1h-5zm0 7h5v1h-5zm13-14h26c1.1 0 2 .9 2 2v18c0 1.1-.9 2-2 2h-26c-1.1 0-2-.9-2-2v-18c0-1.1.9-2 2-2z" class="st11"/>
  <path d="M618 216l4-4 4 4-4 4z" class="st11"/>
  <path d="M632.5 218.1v-1h-1v-2.2h-1.2l-.1 2.2h-2l2.1-5.1-1.1-.4-2.4 5.6v.9h3.4v1.9h1.3v-1.9h1zm4.9-4.6c1.7 0 2.3 1.3 2.3 3.3 0 1.9-.8 3.3-2.4 3.3-.7 0-1.2-.2-1.6-.7v3l-1.3.2v-8.9h1.2l.1.8c.3-.7 1-1 1.7-1zm-.4 1c-.6 0-1.1.4-1.4.9v3c.3.5.7.7 1.2.7.9 0 1.4-.7 1.4-2.3.1-1.6-.4-2.3-1.2-2.3zm3.9 5.5h1.5l1.5-2.6 1.5 2.6h1.6l-2.3-3.4 2-2.9h-1.5l-1.3 2.2-1.3-2.2h-1.5l2 3-2.2 3.3z"/>
</svg>
