<svg xmlns="http://www.w3.org/2000/svg" width="300" height="180" style="background:#f9f9fa" viewBox="0 0 300 180">
  <g fill="#0C0C0D" fill-rule="evenodd">
    <rect width="178" height="48" x="61" y="66" fill-opacity=".1" rx="2"/>
    <path fill-opacity=".8" fill-rule="nonzero" d="M8,12 C7.73426095,11.9999433 7.4794266,11.8943639 7.29154909,11.7064848 L2.2812881,6.69769219 C1.90153816,6.3046233 1.90696912,5.67982062 2.29349452,5.2934085 C2.68001992,4.90699639 3.30500578,4.90156702 3.69818991,5.28120566 L8,9.58175495 L12.3018101,5.28120566 C12.6949942,4.90156702 13.3199801,4.90699639 13.7065055,5.2934085 C14.0930309,5.67982062 14.0984618,6.3046233 13.7187119,6.69769219 L8.70845091,11.7064848 C8.5205734,11.8943639 8.26573905,11.9999433 8,12 Z" transform="translate(207 82)"/>
    <path d="M77.9577637,92.0922852 C78.0822754,93.9599609 79.6350098,95.1757812 81.8762207,95.1757812 C84.3078613,95.1757812 85.8312988,93.9672852 85.8312988,92.0336914 C85.8312988,90.5175781 84.9450684,89.675293 82.755127,89.1259766 L81.6491699,88.8330078 C80.213623,88.4594727 79.6276855,87.9833984 79.6276855,87.1850586 C79.6276855,86.1523438 80.579834,85.4418945 81.9494629,85.4418945 C83.326416,85.4418945 84.2419434,86.1376953 84.3591309,87.2729492 L85.6774902,87.2729492 C85.6188965,85.5004883 84.095459,84.2553711 81.9934082,84.2553711 C79.7961426,84.2553711 78.2580566,85.4858398 78.2580566,87.2436523 C78.2580566,88.6791992 79.1223145,89.5361328 81.0705566,90.0341797 L82.4255371,90.3857422 C83.8464355,90.7519531 84.4689941,91.3012695 84.4689941,92.1948242 C84.4689941,93.2348633 83.4289551,93.9892578 82.0007324,93.9892578 C80.4919434,93.9892578 79.407959,93.2348633 79.2834473,92.0922852 L77.9577637,92.0922852 Z M90.2258301,88.3569336 C89.0319824,88.3569336 88.1970215,89.2724609 88.1164551,90.5395508 L92.2546387,90.5395508 C92.2253418,89.2651367 91.427002,88.3569336 90.2258301,88.3569336 Z M92.2253418,92.8173828 L93.4777832,92.8173828 C93.2580566,94.1503906 91.9689941,95.1318359 90.3063965,95.1318359 C88.1237793,95.1318359 86.7980957,93.6157227 86.7980957,91.2207031 C86.7980957,88.8549805 88.145752,87.2509766 90.2478027,87.2509766 C92.3059082,87.2509766 93.572998,88.7451172 93.572998,91.0522461 L93.572998,91.5356445 L88.1091309,91.5356445 L88.1091309,91.6088867 C88.1091309,93.0664062 88.9660645,94.0258789 90.3356934,94.0258789 C91.3024902,94.0258789 92.0129395,93.5351562 92.2253418,92.8173828 Z M97.3669434,94.0478516 C98.5681152,94.0478516 99.4909668,93.2055664 99.4909668,92.1069336 L99.4909668,91.484375 L97.454834,91.6088867 C96.4294434,91.6748047 95.8435059,92.1289062 95.8435059,92.8466797 C95.8435059,93.5717773 96.451416,94.0478516 97.3669434,94.0478516 Z M97.0812988,95.1318359 C95.5651855,95.1318359 94.5471191,94.2163086 94.5471191,92.8466797 C94.5471191,91.5429688 95.5505371,90.7226562 97.3083496,90.6201172 L99.4909668,90.4956055 L99.4909668,89.8583984 C99.4909668,88.9282227 98.8757324,88.371582 97.8210449,88.371582 C96.8395996,88.371582 96.2243652,88.8330078 96.0632324,89.5800781 L94.8327637,89.5800781 C94.9206543,88.2617188 96.048584,87.2509766 97.8503418,87.2509766 C99.6374512,87.2509766 100.765381,88.2177734 100.765381,89.7338867 L100.765381,95 L99.5568848,95 L99.5568848,93.6889648 L99.5275879,93.6889648 C99.0734863,94.5605469 98.1066895,95.1318359 97.0812988,95.1318359 Z M102.384033,95 L103.658447,95 L103.658447,90.2539062 C103.658447,89.1772461 104.302979,88.4667969 105.291748,88.4667969 C105.599365,88.4667969 105.870361,88.503418 105.9729,88.5400391 L105.9729,87.3022461 C105.870361,87.2875977 105.679932,87.2509766 105.460205,87.2509766 C104.56665,87.2509766 103.863525,87.7856445 103.614502,88.6279297 L103.585205,88.6279297 L103.585205,87.3828125 L102.384033,87.3828125 L102.384033,95 Z M112.967529,89.8803711 C112.806396,88.5107422 111.671143,87.2509766 109.766846,87.2509766 C107.664795,87.2509766 106.265869,88.7890625 106.265869,91.1914062 C106.265869,93.6450195 107.672119,95.1318359 109.781494,95.1318359 C111.51001,95.1318359 112.784424,94.0625 112.982178,92.5463867 L111.729736,92.5463867 C111.51001,93.4619141 110.828857,94.0112305 109.788818,94.0112305 C108.470459,94.0112305 107.562256,92.9638672 107.562256,91.1914062 C107.562256,89.4628906 108.455811,88.371582 109.77417,88.371582 C110.894775,88.371582 111.539307,89.0527344 111.722412,89.8803711 L112.967529,89.8803711 Z M114.219971,95 L115.494385,95 L115.494385,90.5615234 C115.494385,89.2431641 116.278076,88.3789062 117.545166,88.3789062 C118.739014,88.3789062 119.346924,89.1040039 119.346924,90.3125 L119.346924,95 L120.621338,95 L120.621338,90.078125 C120.621338,88.3789062 119.610596,87.2509766 117.940674,87.2509766 C116.783447,87.2509766 115.948486,87.7490234 115.523682,88.5986328 L115.494385,88.5986328 L115.494385,84.4311523 L114.219971,84.4311523 L114.219971,95 Z M132.061768,93.8134766 L126.832275,93.8134766 L126.832275,90.1806641 L131.790771,90.1806641 L131.790771,89.0087891 L126.832275,89.0087891 L126.832275,85.6176758 L132.061768,85.6176758 L132.061768,84.4311523 L125.513916,84.4311523 L125.513916,95 L132.061768,95 L132.061768,93.8134766 Z M133.599854,95 L134.874268,95 L134.874268,90.5175781 C134.874268,89.2285156 135.657959,88.3789062 136.859131,88.3789062 C138.031006,88.3789062 138.609619,89.0527344 138.609619,90.2832031 L138.609619,95 L139.884033,95 L139.884033,90.0561523 C139.884033,88.3276367 138.917236,87.2509766 137.247314,87.2509766 C136.068115,87.2509766 135.255127,87.7783203 134.830322,88.5986328 L134.801025,88.5986328 L134.801025,87.3828125 L133.599854,87.3828125 L133.599854,95 Z M144.60083,93.9379883 C145.926514,93.9379883 146.812744,92.8393555 146.812744,91.1621094 C146.812744,89.4848633 145.926514,88.371582 144.60083,88.371582 C143.289795,88.371582 142.432861,89.4555664 142.432861,91.1621094 C142.432861,92.8686523 143.289795,93.9379883 144.60083,93.9379883 Z M144.644775,97.8710938 C142.967529,97.8710938 141.641846,96.9262695 141.429443,95.6298828 L142.740479,95.6298828 C142.989502,96.3256836 143.743896,96.7871094 144.696045,96.7871094 C146.014404,96.7871094 146.812744,96.0253906 146.812744,94.8901367 L146.812744,93.6889648 L146.783447,93.6889648 C146.314697,94.5166016 145.413818,95.0585938 144.344482,95.0585938 C142.403564,95.0585938 141.12915,93.527832 141.12915,91.1621094 C141.12915,88.7744141 142.403564,87.2509766 144.373779,87.2509766 C145.450439,87.2509766 146.343994,87.7783203 146.849365,88.6645508 L146.871338,88.6645508 L146.871338,87.3828125 L148.087158,87.3828125 L148.087158,94.8461914 C148.087158,96.6625977 146.746826,97.8710938 144.644775,97.8710938 Z M149.80835,95 L151.082764,95 L151.082764,87.3828125 L149.80835,87.3828125 L149.80835,95 Z M150.445557,86.1010742 C150.88501,86.1010742 151.243896,85.7421875 151.243896,85.3100586 C151.243896,84.8706055 150.88501,84.519043 150.445557,84.519043 C150.013428,84.519043 149.654541,84.8706055 149.654541,85.3100586 C149.654541,85.7421875 150.013428,86.1010742 150.445557,86.1010742 Z M152.803955,95 L154.078369,95 L154.078369,90.5175781 C154.078369,89.2285156 154.862061,88.3789062 156.063232,88.3789062 C157.235107,88.3789062 157.813721,89.0527344 157.813721,90.2832031 L157.813721,95 L159.088135,95 L159.088135,90.0561523 C159.088135,88.3276367 158.121338,87.2509766 156.451416,87.2509766 C155.272217,87.2509766 154.459229,87.7783203 154.034424,88.5986328 L154.005127,88.5986328 L154.005127,87.3828125 L152.803955,87.3828125 L152.803955,95 Z M163.760986,88.3569336 C162.567139,88.3569336 161.732178,89.2724609 161.651611,90.5395508 L165.789795,90.5395508 C165.760498,89.2651367 164.962158,88.3569336 163.760986,88.3569336 Z M165.760498,92.8173828 L167.012939,92.8173828 C166.793213,94.1503906 165.50415,95.1318359 163.841553,95.1318359 C161.658936,95.1318359 160.333252,93.6157227 160.333252,91.2207031 C160.333252,88.8549805 161.680908,87.2509766 163.782959,87.2509766 C165.841064,87.2509766 167.108154,88.7451172 167.108154,91.0522461 L167.108154,91.5356445 L161.644287,91.5356445 L161.644287,91.6088867 C161.644287,93.0664062 162.501221,94.0258789 163.87085,94.0258789 C164.837646,94.0258789 165.548096,93.5351562 165.760498,92.8173828 Z"/>
  </g>
</svg>
