<svg xmlns="http://www.w3.org/2000/svg" width="300" height="180" style="background:#f9f9fa" viewBox="0 0 300 180">
  <g fill="none" fill-rule="evenodd">
    <rect width="132" height="32" x="84" y="74" fill="#0060DF" rx="2"/>
    <path fill="#FFF" d="M94.3056641,95 L95.4101562,95 L95.4101562,85.840332 L94.2929688,85.840332 L91.8554688,87.5922852 L91.8554688,88.7983398 L94.2802734,87.0527344 L94.3056641,87.0527344 L94.3056641,95 Z M101.046875,95.1586914 C99.6757812,95.1586914 98.5839844,94.4160156 98.019043,93.0957031 C97.7143555,92.3911133 97.5683594,91.565918 97.5683594,90.5756836 C97.5683594,87.4907227 98.8823242,85.6816406 101.123047,85.6816406 C102.678223,85.6816406 103.871582,86.6147461 104.163574,88.0556641 L103.001953,88.0556641 C102.754395,87.2241211 102.018066,86.690918 101.110352,86.690918 C99.5805664,86.690918 98.7109375,88.0493164 98.6728516,90.4868164 L98.6918945,90.4868164 C99.1044922,89.5917969 100.11377,89.0014648 101.25,89.0014648 C102.995605,89.0014648 104.290527,90.2900391 104.290527,92.0292969 C104.290527,93.8383789 102.925781,95.1586914 101.046875,95.1586914 Z M101.03418,94.1430664 C102.202148,94.1430664 103.128906,93.2226562 103.128906,92.0673828 C103.128906,90.8676758 102.265625,90.0043945 101.053223,90.0043945 C99.8408203,90.0043945 98.9458008,90.8676758 98.9458008,92.0356445 C98.9458008,93.2099609 99.8598633,94.1430664 101.03418,94.1430664 Z"/>
    <path fill="#FFF" fill-rule="nonzero" d="M6,7 C5.73426095,6.99994326 5.4794266,6.89436394 5.29154909,6.70648476 L0.281288098,1.69769219 C-0.0984618383,1.3046233 -0.0930308801,0.679820618 0.293494521,0.293408502 C0.680019922,-0.0930036141 1.30500578,-0.0984329805 1.69818991,0.281205656 L6,4.58175495 L10.3018101,0.281205656 C10.6949942,-0.0984329805 11.3199801,-0.0930036141 11.7065055,0.293408502 C12.0930309,0.679820618 12.0984618,1.3046233 11.7187119,1.69769219 L6.70845091,6.70648476 C6.5205734,6.89436394 6.26573905,6.99994326 6,7 Z" transform="translate(194 87)"/>
  </g>
</svg>
