<svg xmlns="http://www.w3.org/2000/svg" width="300" height="180" style="background:#f9f9fa" viewBox="0 0 300 180">
  <g fill="#0C0C0D" fill-rule="evenodd">
    <path d="M115.957275,95 L115.957275,87.4208984 L118.610596,87.4208984 L118.610596,85.840332 L111.393311,85.840332 L111.393311,87.4208984 L114.040283,87.4208984 L114.040283,95 L115.957275,95 Z M123.295166,85.6816406 C126.005615,85.6816406 127.713135,87.503418 127.713135,90.4233398 C127.713135,93.3369141 126.005615,95.1586914 123.295166,95.1586914 C120.578369,95.1586914 118.877197,93.3369141 118.877197,90.4233398 C118.877197,87.503418 120.578369,85.6816406 123.295166,85.6816406 Z M123.295166,87.28125 C121.797119,87.28125 120.832275,88.5 120.832275,90.4233398 C120.832275,92.340332 121.790771,93.5527344 123.295166,93.5527344 C124.793213,93.5527344 125.751709,92.340332 125.751709,90.4233398 C125.751709,88.5 124.793213,87.28125 123.295166,87.28125 Z M128.94458,85.840332 L132.670654,85.840332 C134.549561,85.840332 135.844482,87.0908203 135.844482,88.9760742 C135.844482,90.8549805 134.505127,92.1118164 132.575439,92.1118164 L130.861572,92.1118164 L130.861572,95 L128.94458,95 L128.94458,85.840332 Z M130.861572,87.3574219 L130.861572,90.6137695 L132.156494,90.6137695 C133.254639,90.6137695 133.895752,90.0297852 133.895752,88.9824219 C133.895752,87.9414062 133.260986,87.3574219 132.162842,87.3574219 L130.861572,87.3574219 Z M139.202393,92.3911133 C139.259521,94.1113281 140.662354,95.1586914 142.86499,95.1586914 C145.137451,95.1586914 146.578369,94.0351562 146.578369,92.2578125 C146.578369,90.8613281 145.778564,90.0742188 143.944092,89.6806641 L142.833252,89.4458008 C141.779541,89.2045898 141.335205,88.887207 141.335205,88.3222656 C141.335205,87.6430664 141.969971,87.1923828 142.915771,87.1923828 C143.874268,87.1923828 144.553467,87.6621094 144.616943,88.4365234 L146.41333,88.4365234 C146.381592,86.7797852 145.042236,85.6816406 142.909424,85.6816406 C140.865479,85.6816406 139.405518,86.7988281 139.405518,88.4873047 C139.405518,89.8266602 140.237061,90.6835938 141.925537,91.0454102 L143.118896,91.3056641 C144.223389,91.5532227 144.661377,91.8833008 144.661377,92.4799805 C144.661377,93.152832 143.963135,93.6416016 142.941162,93.6416016 C141.925537,93.6416016 141.138428,93.1464844 141.049561,92.3911133 L139.202393,92.3911133 Z M149.669678,95 L149.669678,85.840332 L147.752686,85.840332 L147.752686,95 L149.669678,95 Z M155.300049,95 L155.300049,87.4208984 L157.953369,87.4208984 L157.953369,85.840332 L150.736084,85.840332 L150.736084,87.4208984 L153.383057,87.4208984 L153.383057,95 L155.300049,95 Z M165.081787,93.4130859 L160.93042,93.4130859 L160.93042,91.1025391 L164.846924,91.1025391 L164.846924,89.6298828 L160.93042,89.6298828 L160.93042,87.4208984 L165.081787,87.4208984 L165.081787,85.840332 L159.013428,85.840332 L159.013428,95 L165.081787,95 L165.081787,93.4130859 Z M166.122803,92.3911133 C166.179932,94.1113281 167.582764,95.1586914 169.7854,95.1586914 C172.057861,95.1586914 173.498779,94.0351562 173.498779,92.2578125 C173.498779,90.8613281 172.698975,90.0742188 170.864502,89.6806641 L169.753662,89.4458008 C168.699951,89.2045898 168.255615,88.887207 168.255615,88.3222656 C168.255615,87.6430664 168.890381,87.1923828 169.836182,87.1923828 C170.794678,87.1923828 171.473877,87.6621094 171.537354,88.4365234 L173.33374,88.4365234 C173.302002,86.7797852 171.962646,85.6816406 169.829834,85.6816406 C167.785889,85.6816406 166.325928,86.7988281 166.325928,88.4873047 C166.325928,89.8266602 167.157471,90.6835938 168.845947,91.0454102 L170.039307,91.3056641 C171.143799,91.5532227 171.581787,91.8833008 171.581787,92.4799805 C171.581787,93.152832 170.883545,93.6416016 169.861572,93.6416016 C168.845947,93.6416016 168.058838,93.1464844 167.969971,92.3911133 L166.122803,92.3911133 Z"/>
    <path fill-opacity=".8" fill-rule="nonzero" d="M6,9 C5.80069572,8.99995745 5.60956995,8.92077295 5.46866182,8.77986357 L1.71096607,5.02326914 C1.42615362,4.72846748 1.43022684,4.25986546 1.72012089,3.97005638 C2.01001494,3.68024729 2.47875434,3.67617526 2.77364243,3.96090424 L6,7.18631621 L9.22635757,3.96090424 C9.52124566,3.67617526 9.98998506,3.68024729 10.2798791,3.97005638 C10.5697732,4.25986546 10.5738464,4.72846748 10.2890339,5.02326914 L6.53133818,8.77986357 C6.39043005,8.92077295 6.19930428,8.99995745 6,9 Z" transform="translate(178 84)"/>
  </g>
</svg>
