<svg xmlns="http://www.w3.org/2000/svg" xmlns:xlink="http://www.w3.org/1999/xlink" width="360" height="240" viewBox="0 0 360 240">
  <defs>
    <path id="capitalization-title-case-desktop-1-b" d="M0,9 L256,9 L256,484 L0,484 L0,9 Z M240,0 L231,9 L249,9 L240,0 Z"/>
    <filter id="capitalization-title-case-desktop-1-a" width="116.8%" height="108.9%" x="-8.4%" y="-3.4%" filterUnits="objectBoundingBox">
      <feMorphology in="SourceAlpha" operator="dilate" radius="1" result="shadowSpreadOuter1"/>
      <feOffset dy="5" in="shadowSpreadOuter1" result="shadowOffsetOuter1"/>
      <feGaussianBlur in="shadowOffsetOuter1" result="shadowBlurOuter1" stdDeviation="6"/>
      <feComposite in="shadowBlurOuter1" in2="SourceAlpha" operator="out" result="shadowBlurOuter1"/>
      <feColorMatrix in="shadowBlurOuter1" values="0 0 0 0 0   0 0 0 0 0   0 0 0 0 0  0 0 0 0.2 0"/>
    </filter>
    <path id="capitalization-title-case-desktop-1-c" d="M5.00090934,9.5006316 C4.79840046,9.50099392 4.61567086,9.37916873 4.53812503,9.19209489 C4.4605792,9.00502105 4.5035325,8.78964579 4.64690934,8.6466316 L7.29490934,6.0006316 L4.64690934,3.3546316 C4.45140054,3.1591228 4.45140054,2.8421404 4.64690934,2.6466316 C4.84241814,2.4511228 5.15940054,2.4511228 5.35490934,2.6466316 L8.35490934,5.6466316 C8.44895104,5.74043586 8.50180313,5.86780434 8.50180313,6.0006316 C8.50180313,6.13345886 8.44895104,6.26082734 8.35490934,6.3546316 L5.35490934,9.3546316 C5.26095861,9.44834555 5.13360821,9.5008686 5.00090934,9.5006316 Z"/>
  </defs>
  <g fill="none" fill-rule="evenodd" transform="translate(52 -48)">
    <use fill="#000" filter="url(#capitalization-title-case-desktop-1-a)" xlink:href="#capitalization-title-case-desktop-1-b"/>
    <use fill="#FDFDFD" xlink:href="#capitalization-title-case-desktop-1-b"/>
    <path stroke="#000" stroke-opacity=".2" d="M-0.5,8.5 L256.5,8.5 L256.5,484.5 L-0.5,484.5 L-0.5,8.5 Z M240,-0.707106781 L250.207107,9.5 L229.792893,9.5 L240,-0.707106781 Z"/>
    <g transform="translate(0 284)">
      <rect width="256" height="13"/>
      <rect width="256" height="1" y="6" fill="#0C0C0D" fill-opacity=".1"/>
    </g>
    <g transform="translate(0 260)">
      <path fill="#000" d="M47.3886719,16.6191406 C46.7158169,16.9746112 45.8779347,17.1523438 44.875,17.1523438 C43.5800717,17.1523438 42.5432982,16.7355185 41.7646484,15.9018555 C40.9859987,15.0681924 40.5966797,13.9742906 40.5966797,12.6201172 C40.5966797,11.1643807 41.0346636,9.98796021 41.9106445,9.09082031 C42.7866255,8.19368041 43.8974542,7.74511719 45.2431641,7.74511719 C46.1064496,7.74511719 46.8216117,7.86995318 47.3886719,8.11962891 L47.3886719,9.25585938 C46.7369759,8.89192526 46.0175821,8.70996094 45.2304688,8.70996094 C44.1852161,8.70996094 43.3378125,9.05907854 42.6882324,9.75732422 C42.0386524,10.4555699 41.7138672,11.388666 41.7138672,12.5566406 C41.7138672,13.6653701 42.0174937,14.5487435 42.6247559,15.2067871 C43.232018,15.8648308 44.0286409,16.1938477 45.0146484,16.1938477 C45.9287155,16.1938477 46.7200487,15.9907247 47.3886719,15.5844727 L47.3886719,16.6191406 Z M54.2583984,17 L53.2173828,17 L53.2173828,15.9716797 L53.1919922,15.9716797 C52.7603494,16.758793 52.0917363,17.1523438 51.1861328,17.1523438 C49.6372969,17.1523438 48.8628906,16.2298269 48.8628906,14.3847656 L48.8628906,10.5 L49.8975586,10.5 L49.8975586,14.2197266 C49.8975586,15.5908272 50.4222929,16.2763672 51.4717773,16.2763672 C51.9795924,16.2763672 52.3974756,16.0891132 52.7254395,15.7145996 C53.0534033,15.340086 53.2173828,14.8502634 53.2173828,14.2451172 L53.2173828,10.5 L54.2583984,10.5 L54.2583984,17 Z M55.865918,16.7651367 L55.865918,15.6479492 C56.4329781,16.0668966 57.057158,16.2763672 57.7384766,16.2763672 C58.6525436,16.2763672 59.1095703,15.9716827 59.1095703,15.3623047 C59.1095703,15.1888012 59.0704268,15.0417486 58.9921387,14.9211426 C58.9138505,14.8005365 58.8080573,14.6936854 58.6747559,14.6005859 C58.5414544,14.5074865 58.3848805,14.4239099 58.2050293,14.3498535 C58.0251781,14.2757972 57.8315766,14.1985681 57.6242187,14.1181641 C57.3364569,14.0039057 57.0836111,13.8885911 56.8656738,13.7722168 C56.6477365,13.6558425 56.4657722,13.5246589 56.3197754,13.3786621 C56.1737786,13.2326653 56.0637536,13.0665699 55.9896973,12.8803711 C55.9156409,12.6941722 55.8786133,12.4762382 55.8786133,12.2265625 C55.8786133,11.9218735 55.9484368,11.6521008 56.0880859,11.4172363 C56.2277351,11.1823719 56.4139311,10.9855965 56.6466797,10.8269043 C56.8794282,10.6682121 57.1449692,10.5486658 57.4433105,10.4682617 C57.7416519,10.3878577 58.0495101,10.3476562 58.3668945,10.3476562 C58.9297229,10.3476562 59.4332986,10.444986 59.8776367,10.6396484 L59.8776367,11.6933594 C59.3994442,11.3802068 58.8493195,11.2236328 58.2272461,11.2236328 C58.0325837,11.2236328 57.8569669,11.2458494 57.7003906,11.2902832 C57.5438143,11.334717 57.4094569,11.397135 57.2973145,11.4775391 C57.185172,11.5579431 57.0984215,11.6542149 57.0370605,11.7663574 C56.9756996,11.8784999 56.9450195,12.002278 56.9450195,12.1376953 C56.9450195,12.306967 56.9756996,12.4487299 57.0370605,12.5629883 C57.0984215,12.6772467 57.1883458,12.7788081 57.3068359,12.8676758 C57.4253261,12.9565434 57.5692049,13.0369463 57.7384766,13.1088867 C57.9077482,13.1808272 58.1002919,13.2591142 58.3161133,13.34375 C58.6038751,13.4537766 58.8620106,13.5669753 59.0905273,13.6833496 C59.3190441,13.7997239 59.5137036,13.9309075 59.6745117,14.0769043 C59.8353198,14.2229011 59.9590979,14.3911123 60.0458496,14.581543 C60.1326013,14.7719736 60.1759766,14.9983711 60.1759766,15.2607422 C60.1759766,15.5823584 60.1050951,15.8616525 59.9633301,16.0986328 C59.821565,16.3356132 59.6321952,16.5323885 59.3952148,16.6889648 C59.1582345,16.8455411 58.885288,16.9619137 58.5763672,17.0380859 C58.2674464,17.1142582 57.9437191,17.1523438 57.6051758,17.1523438 C56.9365526,17.1523438 56.3568058,17.023276 55.865918,16.7651367 Z M64.6907227,16.9365234 C64.4452787,17.0719408 64.1215515,17.1396484 63.7195312,17.1396484 C62.5811792,17.1396484 62.0120117,16.5048892 62.0120117,15.2353516 L62.0120117,11.3886719 L60.8948242,11.3886719 L60.8948242,10.5 L62.0120117,10.5 L62.0120117,8.91308594 L63.0530273,8.57666016 L63.0530273,10.5 L64.6907227,10.5 L64.6907227,11.3886719 L63.0530273,11.3886719 L63.0530273,15.0512695 C63.0530273,15.4871441 63.1270826,15.7981762 63.2751953,15.984375 C63.423308,16.1705738 63.6687483,16.2636719 64.0115234,16.2636719 C64.2738945,16.2636719 64.500292,16.1917325 64.6907227,16.0478516 L64.6907227,16.9365234 Z M68.6976562,17.1523438 C67.7370395,17.1523438 66.9700387,16.8487172 66.3966309,16.2414551 C65.823223,15.6341929 65.5365234,14.8291066 65.5365234,13.8261719 C65.5365234,12.7343695 65.8348603,11.8816762 66.431543,11.2680664 C67.0282256,10.6544566 67.8343699,10.3476562 68.85,10.3476562 C69.8190804,10.3476562 70.5755018,10.6459931 71.1192871,11.2426758 C71.6630724,11.8393585 71.9349609,12.6666614 71.9349609,13.7246094 C71.9349609,14.7613984 71.6419137,15.5918751 71.0558105,16.2160645 C70.4697073,16.8402538 69.6836638,17.1523438 68.6976562,17.1523438 Z M68.7738281,11.2236328 C68.105205,11.2236328 67.5762389,11.4510882 67.1869141,11.9060059 C66.7975892,12.3609235 66.6029297,12.9882773 66.6029297,13.7880859 C66.6029297,14.5582721 66.7997051,15.1655251 67.1932617,15.6098633 C67.5868184,16.0542014 68.1136686,16.2763672 68.7738281,16.2763672 C69.446683,16.2763672 69.9640119,16.0584332 70.3258301,15.6225586 C70.6876483,15.186684 70.8685547,14.5667358 70.8685547,13.7626953 C70.8685547,12.9501912 70.6876483,12.3238954 70.3258301,11.8837891 C69.9640119,11.4436827 69.446683,11.2236328 68.7738281,11.2236328 Z M82.7275391,17 L81.6865234,17 L81.6865234,13.2675781 C81.6865234,12.5481735 81.5754406,12.0276709 81.3532715,11.7060547 C81.1311024,11.3844385 80.7576524,11.2236328 80.2329101,11.2236328 C79.788572,11.2236328 79.4108902,11.4267558 79.0998535,11.8330078 C78.7888168,12.2392598 78.6333008,12.7259086 78.6333008,13.2929688 L78.6333008,17 L77.5922851,17 L77.5922851,13.140625 C77.5922851,11.8626238 77.0992888,11.2236328 76.1132812,11.2236328 C75.6562477,11.2236328 75.2796239,11.4151185 74.9833984,11.7980957 C74.687173,12.1810729 74.5390625,12.6793589 74.5390625,13.2929688 L74.5390625,17 L73.4980469,17 L73.4980469,10.5 L74.5390625,10.5 L74.5390625,11.5283203 L74.5644531,11.5283203 C75.0257184,10.741207 75.6985633,10.3476562 76.5830078,10.3476562 C77.027346,10.3476562 77.4145491,10.4714343 77.7446289,10.7189941 C78.0747087,10.966554 78.3011061,11.2913391 78.4238281,11.6933594 C78.9062524,10.7962195 79.6256463,10.3476562 80.5820312,10.3476562 C82.0123769,10.3476562 82.7275391,11.2299716 82.7275391,12.9946289 L82.7275391,17 Z M85.1285156,8.84960938 C84.9423168,8.84960938 84.7836269,8.78613345 84.6524414,8.65917969 C84.5212558,8.53222593 84.4556641,8.37142024 84.4556641,8.17675781 C84.4556641,7.98209538 84.5212558,7.82023177 84.6524414,7.69116211 C84.7836269,7.56209245 84.9423168,7.49755859 85.1285156,7.49755859 C85.3189463,7.49755859 85.4808099,7.56209245 85.6141113,7.69116211 C85.7474128,7.82023177 85.8140625,7.98209538 85.8140625,8.17675781 C85.8140625,8.36295666 85.7474128,8.52164648 85.6141113,8.65283203 C85.4808099,8.78401758 85.3189463,8.84960938 85.1285156,8.84960938 Z M85.6363281,17 L84.5953125,17 L84.5953125,10.5 L85.6363281,10.5 L85.6363281,17 Z M92.1759766,10.7983398 L88.3292969,16.1113281 L92.1378906,16.1113281 L92.1378906,17 L86.7995117,17 L86.7995117,16.6762695 L90.6461914,11.3886719 L87.1613281,11.3886719 L87.1613281,10.5 L92.1759766,10.5 L92.1759766,10.7983398 Z M98.6458008,14.0102539 L94.0564453,14.0102539 C94.0733725,14.7338903 94.268032,15.2924785 94.6404297,15.6860352 C95.0128274,16.0795918 95.5248665,16.2763672 96.1765625,16.2763672 C96.9086625,16.2763672 97.5815073,16.0351587 98.1951172,15.5527344 L98.1951172,16.5302734 C97.6238253,16.9449891 96.8684617,17.1523438 95.9290039,17.1523438 C95.010705,17.1523438 94.2891953,16.8571807 93.7644531,16.2668457 C93.2397109,15.6765107 92.9773437,14.846034 92.9773437,13.7753906 C92.9773437,12.7639923 93.2640433,11.9398632 93.8374512,11.3029785 C94.410859,10.6660938 95.1228473,10.3476562 95.9734375,10.3476562 C96.8240277,10.3476562 97.4820615,10.6227186 97.9475586,11.1728516 C98.4130557,11.7229845 98.6458008,12.4868115 98.6458008,13.4643555 L98.6458008,14.0102539 Z M97.5793945,13.1279297 C97.5751627,12.5270152 97.430226,12.0594092 97.1445801,11.7250977 C96.8589341,11.3907861 96.4622096,11.2236328 95.9543945,11.2236328 C95.4635066,11.2236328 95.0466814,11.3992495 94.7039062,11.7504883 C94.3611311,12.101727 94.1495447,12.5608696 94.0691406,13.1279297 L97.5793945,13.1279297 Z"/>
      <path fill="#0C0C0D" fill-rule="nonzero" d="M4,10 C3.11377721,10.0019983 2.33522075,10.5886657 2.089,11.44 C2.089,11.45 2.075,11.455 2.072,11.465 C1.71,12.6 1.367,13.575 0.313,14.038 L0.29,14.05 L0.266,14.062 C0.103569051,14.1480122 0.00142339961,14.3162069 0,14.5 C3.38176876e-17,14.7761424 0.223857625,15 0.5,15 C2.23928916,15.1206928 3.96070475,14.5855377 5.325,13.5 C5.331,13.494 5.332,13.487 5.338,13.481 C5.95714834,12.9293483 6.17001231,12.0519562 5.87249095,11.2779114 C5.57496958,10.5038667 4.82923974,9.9949314 4,10 Z M15.693,0.307 C15.3277668,-0.0561298005 14.7443099,-0.0761888569 14.355,0.261 L6.324,7.261 C6.11941742,7.43978453 5.99804884,7.69533882 5.98876394,7.96687469 C5.97947905,8.23841056 6.08310771,8.50165841 6.275,8.694 L7.307,9.725 C7.49098604,9.90850285 7.74014608,10.0116903 8,10.012 L8.033,10.012 C8.30454362,10.0028095 8.56014395,9.88152608 8.739,9.677 L15.739,1.646 C16.0778022,1.25688682 16.0577071,0.671944821 15.693,0.307 Z" transform="translate(16 4)"/>
    </g>
    <g transform="translate(0 233)">
      <path fill="#737373" d="M230.224609,16.8203125 L231.814453,16.8203125 L231.814453,15.2304688 L230.224609,15.2304688 L230.224609,16.8203125 Z M230.224609,17.6152344 L230.224609,18.5283203 C230.224609,18.9866559 230.059002,19.379637 229.727783,19.7072754 C229.396564,20.0349137 228.998212,20.1987305 228.532715,20.1987305 C228.067218,20.1987305 227.669761,20.0340186 227.340332,19.7045898 C227.010903,19.3751611 226.846191,18.9759138 226.846191,18.5068359 C226.846191,18.0485003 227.010903,17.6528337 227.340332,17.3198242 C227.669761,16.9868147 228.061847,16.8203125 228.516602,16.8203125 L229.429688,16.8203125 L229.429688,15.2304688 L228.516602,15.2304688 C228.061847,15.2304688 227.669761,15.0639665 227.340332,14.730957 C227.010903,14.3979476 226.846191,14.0004906 226.846191,13.5385742 C226.846191,13.0730771 227.010903,12.6756201 227.340332,12.3461914 C227.669761,12.0167627 228.067218,11.8520508 228.532715,11.8520508 C228.998212,11.8520508 229.396564,12.0158675 229.727783,12.3435059 C230.059002,12.6711442 230.224609,13.0641253 230.224609,13.5224609 L230.224609,14.4355469 L231.814453,14.4355469 L231.814453,13.5224609 C231.814453,13.0641253 231.98006,12.6711442 232.311279,12.3435059 C232.642498,12.0158675 233.040851,11.8520508 233.506348,11.8520508 C233.975426,11.8520508 234.373778,12.0167627 234.701416,12.3461914 C235.029054,12.6756201 235.192871,13.0730771 235.192871,13.5385742 C235.192871,14.0004906 235.029054,14.3979476 234.701416,14.730957 C234.373778,15.0639665 233.980797,15.2304688 233.522461,15.2304688 L232.609375,15.2304688 L232.609375,16.8203125 L233.522461,16.8203125 C233.980797,16.8203125 234.373778,16.9868147 234.701416,17.3198242 C235.029054,17.6528337 235.192871,18.0485003 235.192871,18.5068359 C235.192871,18.9759138 235.029054,19.3751611 234.701416,19.7045898 C234.373778,20.0340186 233.975426,20.1987305 233.506348,20.1987305 C233.040851,20.1987305 232.642498,20.0349137 232.311279,19.7072754 C231.98006,19.379637 231.814453,18.9866559 231.814453,18.5283203 L231.814453,17.6152344 L230.224609,17.6152344 Z M229.429688,14.4355469 L229.429688,13.5385742 C229.429688,13.2915027 229.341961,13.0811369 229.166504,12.9074707 C228.991047,12.7338045 228.779786,12.6469727 228.532715,12.6469727 C228.289224,12.6469727 228.079753,12.7338045 227.904297,12.9074707 C227.72884,13.0811369 227.641113,13.2915027 227.641113,13.5385742 C227.641113,13.7856458 227.72884,13.9969067 227.904297,14.1723633 C228.079753,14.3478199 228.291014,14.4355469 228.538086,14.4355469 L229.429688,14.4355469 Z M229.429688,17.6152344 L228.538086,17.6152344 C228.291014,17.6152344 228.079753,17.7029614 227.904297,17.878418 C227.72884,18.0538746 227.641113,18.2633451 227.641113,18.5068359 C227.641113,18.7539075 227.72884,18.9651684 227.904297,19.140625 C228.079753,19.3160816 228.291014,19.4038086 228.538086,19.4038086 C228.781577,19.4038086 228.991047,19.3160816 229.166504,19.140625 C229.341961,18.9651684 229.429688,18.7556978 229.429688,18.512207 L229.429688,17.6152344 Z M232.609375,14.4355469 L233.506348,14.4355469 C233.749838,14.4355469 233.959309,14.3478199 234.134766,14.1723633 C234.310222,13.9969067 234.397949,13.7856458 234.397949,13.5385742 C234.397949,13.2915027 234.311117,13.0811369 234.137451,12.9074707 C233.963785,12.7338045 233.753419,12.6469727 233.506348,12.6469727 C233.259276,12.6469727 233.048015,12.7338045 232.872559,12.9074707 C232.697102,13.0811369 232.609375,13.2915027 232.609375,13.5385742 L232.609375,14.4355469 Z M232.609375,17.6152344 L232.609375,18.512207 C232.609375,18.7556978 232.697102,18.9651684 232.872559,19.140625 C233.048015,19.3160816 233.259276,19.4038086 233.506348,19.4038086 C233.753419,19.4038086 233.963785,19.3160816 234.137451,19.140625 C234.311117,18.9651684 234.397949,18.7539075 234.397949,18.5068359 C234.397949,18.2633451 234.310222,18.0538746 234.134766,17.878418 C233.959309,17.7029614 233.749838,17.6152344 233.506348,17.6152344 L232.609375,17.6152344 Z M237.59375,21.7241211 L237.59375,21.3266602 C237.937502,21.22998 238.109375,20.8235713 238.109375,20.1074219 L238.109375,20 L237.59375,20 L237.59375,18.6733398 L238.92041,18.6733398 L238.92041,19.8227539 C238.92041,21.0008197 238.478195,21.6346024 237.59375,21.7241211 Z"/>
      <path fill="#000" d="M42.2597656,17.5595703 L42.2597656,21 L41.1933594,21 L41.1933594,11.8974609 L43.6943359,11.8974609 C44.6676481,11.8974609 45.4219537,12.1344377 45.9572754,12.6083984 C46.4925971,13.0823591 46.7602539,13.7509722 46.7602539,14.6142578 C46.7602539,15.4775434 46.462975,16.184242 45.8684082,16.734375 C45.2738414,17.284508 44.4708709,17.5595703 43.4594727,17.5595703 L42.2597656,17.5595703 Z M42.2597656,12.8623047 L42.2597656,16.5947266 L43.3769531,16.5947266 C44.1132849,16.5947266 44.6750469,16.4265154 45.0622559,16.0900879 C45.4494648,15.7536604 45.6430664,15.2786489 45.6430664,14.6650391 C45.6430664,13.4632101 44.932136,12.8623047 43.5102539,12.8623047 L42.2597656,12.8623047 Z M51.6241211,15.5537109 C51.442154,15.4140618 51.1797869,15.3442383 50.8370117,15.3442383 C50.3926736,15.3442383 50.0213394,15.5537088 49.722998,15.9726562 C49.4246567,16.3916037 49.2754883,16.962887 49.2754883,17.6865234 L49.2754883,21 L48.2344727,21 L48.2344727,14.5 L49.2754883,14.5 L49.2754883,15.8393555 L49.3008789,15.8393555 C49.4489916,15.3823219 49.6753891,15.0257988 49.9800781,14.7697754 C50.2847671,14.513752 50.6254213,14.3857422 51.0020508,14.3857422 C51.2728855,14.3857422 51.4802402,14.4153643 51.6241211,14.4746094 L51.6241211,15.5537109 Z M57.878125,18.0102539 L53.2887695,18.0102539 C53.3056967,18.7338903 53.5003562,19.2924785 53.8727539,19.6860352 C54.2451516,20.0795918 54.7571907,20.2763672 55.4088867,20.2763672 C56.1409867,20.2763672 56.8138316,20.0351587 57.4274414,19.5527344 L57.4274414,20.5302734 C56.8561495,20.9449891 56.1007859,21.1523438 55.1613281,21.1523438 C54.2430293,21.1523438 53.5215195,20.8571807 52.9967773,20.2668457 C52.4720351,19.6765107 52.209668,18.846034 52.209668,17.7753906 C52.209668,16.7639923 52.4963676,15.9398632 53.0697754,15.3029785 C53.6431832,14.6660938 54.3551715,14.3476562 55.2057617,14.3476562 C56.0563519,14.3476562 56.7143857,14.6227186 57.1798828,15.1728516 C57.6453799,15.7229845 57.878125,16.4868115 57.878125,17.4643555 L57.878125,18.0102539 Z M56.8117187,17.1279297 C56.807487,16.5270152 56.6625503,16.0594092 56.3769043,15.7250977 C56.0912583,15.3907861 55.6945338,15.2236328 55.1867187,15.2236328 C54.6958309,15.2236328 54.2790056,15.3992495 53.9362305,15.7504883 C53.5934553,16.101727 53.3818689,16.5608696 53.3014648,17.1279297 L56.8117187,17.1279297 Z M62.5642578,12.2910156 C62.3611318,12.1767572 62.1305026,12.1196289 61.8723633,12.1196289 C61.1444951,12.1196289 60.7805664,12.5787715 60.7805664,13.4970703 L60.7805664,14.5 L62.3040039,14.5 L62.3040039,15.3886719 L60.7805664,15.3886719 L60.7805664,21 L59.7458984,21 L59.7458984,15.3886719 L58.6350586,15.3886719 L58.6350586,14.5 L59.7458984,14.5 L59.7458984,13.4462891 C59.7458984,12.7649706 59.9426738,12.2264831 60.3362305,11.8308105 C60.7297871,11.435138 61.2206676,11.2373047 61.8088867,11.2373047 C62.1262711,11.2373047 62.378059,11.2753902 62.5642578,11.3515625 L62.5642578,12.2910156 Z M68.5453125,18.0102539 L63.955957,18.0102539 C63.9728842,18.7338903 64.1675437,19.2924785 64.5399414,19.6860352 C64.9123391,20.0795918 65.4243782,20.2763672 66.0760742,20.2763672 C66.8081742,20.2763672 67.4810191,20.0351587 68.0946289,19.5527344 L68.0946289,20.5302734 C67.523337,20.9449891 66.7679734,21.1523438 65.8285156,21.1523438 C64.9102168,21.1523438 64.188707,20.8571807 63.6639648,20.2668457 C63.1392226,19.6765107 62.8768555,18.846034 62.8768555,17.7753906 C62.8768555,16.7639923 63.1635551,15.9398632 63.7369629,15.3029785 C64.3103707,14.6660938 65.022359,14.3476562 65.8729492,14.3476562 C66.7235394,14.3476562 67.3815732,14.6227186 67.8470703,15.1728516 C68.3125674,15.7229845 68.5453125,16.4868115 68.5453125,17.4643555 L68.5453125,18.0102539 Z M67.4789062,17.1279297 C67.4746745,16.5270152 67.3297378,16.0594092 67.0440918,15.7250977 C66.7584458,15.3907861 66.3617213,15.2236328 65.8539062,15.2236328 C65.3630184,15.2236328 64.9461931,15.3992495 64.603418,15.7504883 C64.2606428,16.101727 64.0490564,16.5608696 63.9686523,17.1279297 L67.4789062,17.1279297 Z M73.4091797,15.5537109 C73.2272126,15.4140618 72.9648455,15.3442383 72.6220703,15.3442383 C72.1777321,15.3442383 71.806398,15.5537088 71.5080566,15.9726562 C71.2097153,16.3916037 71.0605469,16.962887 71.0605469,17.6865234 L71.0605469,21 L70.0195312,21 L70.0195312,14.5 L71.0605469,14.5 L71.0605469,15.8393555 L71.0859375,15.8393555 C71.2340502,15.3823219 71.4604477,15.0257988 71.7651367,14.7697754 C72.0698257,14.513752 72.4104799,14.3857422 72.7871094,14.3857422 C73.0579441,14.3857422 73.2652988,14.4153643 73.4091797,14.4746094 L73.4091797,15.5537109 Z M79.6631836,18.0102539 L75.0738281,18.0102539 C75.0907553,18.7338903 75.2854148,19.2924785 75.6578125,19.6860352 C76.0302102,20.0795918 76.5422493,20.2763672 77.1939453,20.2763672 C77.9260453,20.2763672 78.5988902,20.0351587 79.2125,19.5527344 L79.2125,20.5302734 C78.6412081,20.9449891 77.8858445,21.1523438 76.9463867,21.1523438 C76.0280878,21.1523438 75.3065781,20.8571807 74.7818359,20.2668457 C74.2570937,19.6765107 73.9947266,18.846034 73.9947266,17.7753906 C73.9947266,16.7639923 74.2814262,15.9398632 74.854834,15.3029785 C75.4282418,14.6660938 76.1402301,14.3476562 76.9908203,14.3476562 C77.8414105,14.3476562 78.4994443,14.6227186 78.9649414,15.1728516 C79.4304385,15.7229845 79.6631836,16.4868115 79.6631836,17.4643555 L79.6631836,18.0102539 Z M78.5967773,17.1279297 C78.5925455,16.5270152 78.4476088,16.0594092 78.1619629,15.7250977 C77.8763169,15.3907861 77.4795924,15.2236328 76.9717773,15.2236328 C76.4808895,15.2236328 76.0640642,15.3992495 75.7212891,15.7504883 C75.3785139,16.101727 75.1669275,16.5608696 75.0865234,17.1279297 L78.5967773,17.1279297 Z M86.5329101,21 L85.4918945,21 L85.4918945,17.2929688 C85.4918945,15.9134046 84.9883188,15.2236328 83.9811523,15.2236328 C83.4606419,15.2236328 83.0300635,15.4193503 82.6894043,15.810791 C82.348745,16.2022318 82.178418,16.6962861 82.178418,17.2929688 L82.178418,21 L81.1374023,21 L81.1374023,14.5 L82.178418,14.5 L82.178418,15.5791016 L82.2038086,15.5791016 C82.6946965,14.7581339 83.4056268,14.3476562 84.3366211,14.3476562 C85.0475621,14.3476562 85.5913393,14.5772275 85.9679687,15.036377 C86.3445982,15.4955264 86.5329101,16.1588498 86.5329101,17.0263672 L86.5329101,21 Z M92.825,20.7016602 C92.3256485,21.0021174 91.7332065,21.1523438 91.0476562,21.1523438 C90.1208938,21.1523438 89.3729358,20.8508331 88.8037598,20.2478027 C88.2345837,19.6447724 87.95,18.8629605 87.95,17.9023438 C87.95,16.8317004 88.2568003,15.9716016 88.8704101,15.3220215 C89.48402,14.6724414 90.3028595,14.3476562 91.3269531,14.3476562 C91.898245,14.3476562 92.4018207,14.4534495 92.8376953,14.6650391 L92.8376953,15.7314453 C92.355271,15.392902 91.8390001,15.2236328 91.2888672,15.2236328 C90.6244758,15.2236328 90.0796408,15.4616675 89.6543457,15.9377441 C89.2290506,16.4138207 89.0164062,17.0390586 89.0164062,17.8134766 C89.0164062,18.5751991 89.2163554,19.1761046 89.6162598,19.6162109 C90.0161641,20.0563173 90.5525357,20.2763672 91.2253906,20.2763672 C91.7924507,20.2763672 92.3256485,20.0880553 92.825,19.7114258 L92.825,20.7016602 Z M99.5233398,18.0102539 L94.9339844,18.0102539 C94.9509115,18.7338903 95.145571,19.2924785 95.5179687,19.6860352 C95.8903664,20.0795918 96.4024056,20.2763672 97.0541015,20.2763672 C97.7862016,20.2763672 98.4590464,20.0351587 99.0726562,19.5527344 L99.0726562,20.5302734 C98.5013643,20.9449891 97.7460008,21.1523438 96.806543,21.1523438 C95.8882441,21.1523438 95.1667344,20.8571807 94.6419922,20.2668457 C94.11725,19.6765107 93.8548828,18.846034 93.8548828,17.7753906 C93.8548828,16.7639923 94.1415824,15.9398632 94.7149902,15.3029785 C95.288398,14.6660938 96.0003864,14.3476562 96.8509765,14.3476562 C97.7015667,14.3476562 98.3596005,14.6227186 98.8250976,15.1728516 C99.2905948,15.7229845 99.5233398,16.4868115 99.5233398,17.4643555 L99.5233398,18.0102539 Z M98.4569336,17.1279297 C98.4527018,16.5270152 98.3077651,16.0594092 98.0221191,15.7250977 C97.7364732,15.3907861 97.3397486,15.2236328 96.8319336,15.2236328 C96.3410457,15.2236328 95.9242205,15.3992495 95.5814453,15.7504883 C95.2386701,16.101727 95.0270837,16.5608696 94.9466797,17.1279297 L98.4569336,17.1279297 Z M100.604004,20.7651367 L100.604004,19.6479492 C101.171064,20.0668966 101.795244,20.2763672 102.476562,20.2763672 C103.39063,20.2763672 103.847656,19.9716827 103.847656,19.3623047 C103.847656,19.1888012 103.808513,19.0417486 103.730225,18.9211426 C103.651936,18.8005365 103.546143,18.6936854 103.412842,18.6005859 C103.27954,18.5074865 103.122966,18.4239099 102.943115,18.3498535 C102.763264,18.2757972 102.569662,18.1985681 102.362305,18.1181641 C102.074543,18.0039057 101.821697,17.8885911 101.60376,17.7722168 C101.385822,17.6558425 101.203858,17.5246589 101.057861,17.3786621 C100.911864,17.2326653 100.80184,17.0665699 100.727783,16.8803711 C100.653727,16.6941722 100.616699,16.4762382 100.616699,16.2265625 C100.616699,15.9218735 100.686523,15.6521008 100.826172,15.4172363 C100.965821,15.1823719 101.152017,14.9855965 101.384766,14.8269043 C101.617514,14.6682121 101.883055,14.5486658 102.181396,14.4682617 C102.479738,14.3878577 102.787596,14.3476562 103.10498,14.3476562 C103.667809,14.3476562 104.171384,14.444986 104.615723,14.6396484 L104.615723,15.6933594 C104.13753,15.3802068 103.587405,15.2236328 102.965332,15.2236328 C102.77067,15.2236328 102.595053,15.2458494 102.438477,15.2902832 C102.2819,15.334717 102.147543,15.397135 102.0354,15.4775391 C101.923258,15.5579431 101.836507,15.6542149 101.775146,15.7663574 C101.713785,15.8784999 101.683105,16.002278 101.683105,16.1376953 C101.683105,16.306967 101.713785,16.4487299 101.775146,16.5629883 C101.836507,16.6772467 101.926432,16.7788081 102.044922,16.8676758 C102.163412,16.9565434 102.307291,17.0369463 102.476562,17.1088867 C102.645834,17.1808272 102.838378,17.2591142 103.054199,17.34375 C103.341961,17.4537766 103.600096,17.5669753 103.828613,17.6833496 C104.05713,17.7997239 104.25179,17.9309075 104.412598,18.0769043 C104.573406,18.2229011 104.697184,18.3911123 104.783936,18.581543 C104.870687,18.7719736 104.914062,18.9983711 104.914062,19.2607422 C104.914062,19.5823584 104.843181,19.8616525 104.701416,20.0986328 C104.559651,20.3356132 104.370281,20.5323885 104.133301,20.6889648 C103.89632,20.8455411 103.623374,20.9619137 103.314453,21.0380859 C103.005532,21.1142582 102.681805,21.1523438 102.343262,21.1523438 C101.674639,21.1523438 101.094892,21.023276 100.604004,20.7651367 Z"/>
      <path fill="#0C0C0D" fill-rule="nonzero" d="M15,7 L12.9,7 C12.7710561,6.37401379 12.5225111,5.77879614 12.168,5.247 L13.658,3.757 C14.0369722,3.36462111 14.0315524,2.74091522 13.6458186,2.35518142 C13.2600848,1.96944763 12.6363789,1.96402779 12.244,2.343 L10.754,3.833 C10.2219668,3.47804056 9.62639879,3.22915153 9.00000002,3.1 L9.00000002,1 C9.00000002,0.44771525 8.55228477,3.38176876e-17 8.00000001,0 C7.44771526,-3.38176876e-17 7.00000001,0.44771525 7.00000001,1 L7.00000001,3.1 C6.37402123,3.22896798 5.77880804,3.47751108 5.24700001,3.832 L3.75700001,2.342 C3.36625854,1.95153469 2.73296533,1.95175855 2.34250001,2.34250001 C1.9520347,2.73324147 1.95225855,3.36653468 2.343,3.757 L3.83300001,5.247 C3.47813628,5.7787198 3.22924989,6.37394195 3.10000001,7 L1,7 C0.447715263,7.00000002 2.98023225e-08,7.44771526 2.98023224e-08,8 C2.98023223e-08,8.55228474 0.447715263,8.99999998 1,9 L3.10000001,9 C3.22926993,9.62982069 3.47956563,10.2285606 3.83700001,10.763 C3.82300001,10.776 3.80500001,10.78 3.79200001,10.793 L2.342,12.243 C2.08204342,12.4940745 1.97778741,12.8658779 2.06930285,13.2155073 C2.16081829,13.5651368 2.43386325,13.8381817 2.78349268,13.9296972 C3.13312211,14.0212126 3.50492554,13.9169566 3.75600001,13.657 L5.20600001,12.207 C5.21900001,12.194 5.22400001,12.176 5.23600001,12.162 C5.77066384,12.5199057 6.36975884,12.7705475 7.00000001,12.9 L7.00000001,15 C7.00000001,15.5522847 7.44771526,16 8.00000001,16 C8.55228477,16 9.00000002,15.5522847 9.00000002,15 L9.00000002,12.9 C9.6259788,12.771032 10.221192,12.5224889 10.753,12.168 L12.243,13.658 C12.6353789,14.0369722 13.2590848,14.0315524 13.6448186,13.6458186 C14.0305524,13.2600848 14.0359722,12.6363789 13.657,12.244 L12.167,10.754 C12.5219817,10.2219787 12.7708726,9.62640622 12.9,9 L15,9 C15.5522848,9 16,8.55228475 16,8 C16,7.44771525 15.5522848,7 15,7 Z M5,8 C5,6.34314575 6.34314575,5 8,5 C9.65685425,5 11,6.34314575 11,8 C11,9.65685425 9.65685425,11 8,11 C6.34314575,11 5,9.65685425 5,8 Z" transform="translate(16 8)"/>
    </g>
    <g transform="translate(0 210)">
      <path fill="#737373" d="M211.339844,14.9555664 L215.910645,10.3847656 L220.486816,14.9555664 L218.19873,14.9555664 L218.19873,19 L213.62793,19 L213.62793,14.9555664 L211.339844,14.9555664 Z M215.910645,11.324707 L212.875977,14.359375 L214.288574,14.359375 L214.288574,18.3393555 L217.538086,18.3393555 L217.538086,14.359375 L218.945312,14.359375 L215.910645,11.324707 Z M226.115723,15.8203125 L227.705566,15.8203125 L227.705566,14.2304688 L226.115723,14.2304688 L226.115723,15.8203125 Z M226.115723,16.6152344 L226.115723,17.5283203 C226.115723,17.9866559 225.950116,18.379637 225.618896,18.7072754 C225.287677,19.0349137 224.889325,19.1987305 224.423828,19.1987305 C223.958331,19.1987305 223.560874,19.0340186 223.231445,18.7045898 C222.902017,18.3751611 222.737305,17.9759138 222.737305,17.5068359 C222.737305,17.0485003 222.902017,16.6528337 223.231445,16.3198242 C223.560874,15.9868147 223.95296,15.8203125 224.407715,15.8203125 L225.320801,15.8203125 L225.320801,14.2304688 L224.407715,14.2304688 C223.95296,14.2304688 223.560874,14.0639665 223.231445,13.730957 C222.902017,13.3979476 222.737305,13.0004906 222.737305,12.5385742 C222.737305,12.0730771 222.902017,11.6756201 223.231445,11.3461914 C223.560874,11.0167627 223.958331,10.8520508 224.423828,10.8520508 C224.889325,10.8520508 225.287677,11.0158675 225.618896,11.3435059 C225.950116,11.6711442 226.115723,12.0641253 226.115723,12.5224609 L226.115723,13.4355469 L227.705566,13.4355469 L227.705566,12.5224609 C227.705566,12.0641253 227.871173,11.6711442 228.202393,11.3435059 C228.533612,11.0158675 228.931964,10.8520508 229.397461,10.8520508 C229.866539,10.8520508 230.264891,11.0167627 230.592529,11.3461914 C230.920168,11.6756201 231.083984,12.0730771 231.083984,12.5385742 C231.083984,13.0004906 230.920168,13.3979476 230.592529,13.730957 C230.264891,14.0639665 229.87191,14.2304688 229.413574,14.2304688 L228.500488,14.2304688 L228.500488,15.8203125 L229.413574,15.8203125 C229.87191,15.8203125 230.264891,15.9868147 230.592529,16.3198242 C230.920168,16.6528337 231.083984,17.0485003 231.083984,17.5068359 C231.083984,17.9759138 230.920168,18.3751611 230.592529,18.7045898 C230.264891,19.0340186 229.866539,19.1987305 229.397461,19.1987305 C228.931964,19.1987305 228.533612,19.0349137 228.202393,18.7072754 C227.871173,18.379637 227.705566,17.9866559 227.705566,17.5283203 L227.705566,16.6152344 L226.115723,16.6152344 Z M225.320801,13.4355469 L225.320801,12.5385742 C225.320801,12.2915027 225.233074,12.0811369 225.057617,11.9074707 C224.882161,11.7338045 224.6709,11.6469727 224.423828,11.6469727 C224.180337,11.6469727 223.970867,11.7338045 223.79541,11.9074707 C223.619954,12.0811369 223.532227,12.2915027 223.532227,12.5385742 C223.532227,12.7856458 223.619954,12.9969067 223.79541,13.1723633 C223.970867,13.3478199 224.182128,13.4355469 224.429199,13.4355469 L225.320801,13.4355469 Z M225.320801,16.6152344 L224.429199,16.6152344 C224.182128,16.6152344 223.970867,16.7029614 223.79541,16.878418 C223.619954,17.0538746 223.532227,17.2633451 223.532227,17.5068359 C223.532227,17.7539075 223.619954,17.9651684 223.79541,18.140625 C223.970867,18.3160816 224.182128,18.4038086 224.429199,18.4038086 C224.67269,18.4038086 224.882161,18.3160816 225.057617,18.140625 C225.233074,17.9651684 225.320801,17.7556978 225.320801,17.512207 L225.320801,16.6152344 Z M228.500488,13.4355469 L229.397461,13.4355469 C229.640952,13.4355469 229.850422,13.3478199 230.025879,13.1723633 C230.201336,12.9969067 230.289062,12.7856458 230.289062,12.5385742 C230.289062,12.2915027 230.202231,12.0811369 230.028564,11.9074707 C229.854898,11.7338045 229.644532,11.6469727 229.397461,11.6469727 C229.150389,11.6469727 228.939128,11.7338045 228.763672,11.9074707 C228.588215,12.0811369 228.500488,12.2915027 228.500488,12.5385742 L228.500488,13.4355469 Z M228.500488,16.6152344 L228.500488,17.512207 C228.500488,17.7556978 228.588215,17.9651684 228.763672,18.140625 C228.939128,18.3160816 229.150389,18.4038086 229.397461,18.4038086 C229.644532,18.4038086 229.854898,18.3160816 230.028564,18.140625 C230.202231,17.9651684 230.289062,17.7539075 230.289062,17.5068359 C230.289062,17.2633451 230.201336,17.0538746 230.025879,16.878418 C229.850422,16.7029614 229.640952,16.6152344 229.397461,16.6152344 L228.500488,16.6152344 Z M237.464844,15.9599609 L236.111328,12.5332031 L234.752441,15.9599609 L237.464844,15.9599609 Z M238.657227,19 L237.79248,16.7978516 L234.424805,16.7978516 L233.549316,19 L232.501953,19 L235.654785,11.0507812 L236.771973,11.0507812 L239.876465,19 L238.657227,19 Z"/>
      <path fill="#000" d="M48.2392578,20 L47.0585938,20 L46.09375,17.4482422 L42.234375,17.4482422 L41.3266602,20 L40.1396484,20 L43.6308594,10.8974609 L44.7353516,10.8974609 L48.2392578,20 Z M45.7446289,16.4897461 L44.3164062,12.6113281 C44.2698565,12.4843744 44.2233075,12.2812514 44.1767578,12.0019531 L44.1513672,12.0019531 C44.1090493,12.2600924 44.0603844,12.4632154 44.0053711,12.6113281 L42.5898438,16.4897461 L45.7446289,16.4897461 Z M54.8868164,20 L53.8458008,20 L53.8458008,18.8955078 L53.8204102,18.8955078 C53.3379859,19.7334026 52.5932016,20.1523438 51.5860352,20.1523438 C50.7692993,20.1523438 50.1165552,19.8614124 49.6277832,19.279541 C49.1390112,18.6976696 48.8946289,17.9052785 48.8946289,16.9023438 C48.8946289,15.8274686 49.1654595,14.9663118 49.7071289,14.3188477 C50.2487983,13.6713835 50.970308,13.3476562 51.8716797,13.3476562 C52.7645878,13.3476562 53.4141581,13.6988897 53.8204102,14.4013672 L53.8458008,14.4013672 L53.8458008,10.3769531 L54.8868164,10.3769531 L54.8868164,20 Z M53.8458008,17.0610352 L53.8458008,16.1025391 C53.8458008,15.5777969 53.6722999,15.1334654 53.325293,14.7695312 C52.978286,14.4055971 52.5381863,14.2236328 52.0049805,14.2236328 C51.3702117,14.2236328 50.8708677,14.4563779 50.5069336,14.921875 C50.1429995,15.3873721 49.9610352,16.0305949 49.9610352,16.8515625 C49.9610352,17.6005897 50.135594,18.1919737 50.4847168,18.6257324 C50.8338396,19.0594911 51.3025036,19.2763672 51.8907227,19.2763672 C52.4704782,19.2763672 52.941258,19.0668966 53.3030762,18.6479492 C53.6648944,18.2290018 53.8458008,17.7000357 53.8458008,17.0610352 Z M62.4420898,20 L61.4010742,20 L61.4010742,18.8955078 L61.3756836,18.8955078 C60.8932593,19.7334026 60.1484751,20.1523438 59.1413086,20.1523438 C58.3245727,20.1523438 57.6718286,19.8614124 57.1830566,19.279541 C56.6942847,18.6976696 56.4499023,17.9052785 56.4499023,16.9023438 C56.4499023,15.8274686 56.720733,14.9663118 57.2624023,14.3188477 C57.8040717,13.6713835 58.5255814,13.3476562 59.4269531,13.3476562 C60.3198612,13.3476562 60.9694316,13.6988897 61.3756836,14.4013672 L61.4010742,14.4013672 L61.4010742,10.3769531 L62.4420898,10.3769531 L62.4420898,20 Z M61.4010742,17.0610352 L61.4010742,16.1025391 C61.4010742,15.5777969 61.2275733,15.1334654 60.8805664,14.7695312 C60.5335595,14.4055971 60.0934597,14.2236328 59.5602539,14.2236328 C58.9254851,14.2236328 58.4261411,14.4563779 58.062207,14.921875 C57.6982729,15.3873721 57.5163086,16.0305949 57.5163086,16.8515625 C57.5163086,17.6005897 57.6908674,18.1919737 58.0399902,18.6257324 C58.3891131,19.0594911 58.857777,19.2763672 59.4459961,19.2763672 C60.0257516,19.2763672 60.4965314,19.0668966 60.8583496,18.6479492 C61.2201678,18.2290018 61.4010742,17.7000357 61.4010742,17.0610352 Z M67.7756836,16.7880859 L64.3098633,16.7880859 L64.3098633,15.9692383 L67.7756836,15.9692383 L67.7756836,16.7880859 Z M72.2650391,20.1523438 C71.3044223,20.1523438 70.5374215,19.8487172 69.9640137,19.2414551 C69.3906059,18.6341929 69.1039062,17.8291066 69.1039062,16.8261719 C69.1039062,15.7343695 69.4022431,14.8816762 69.9989258,14.2680664 C70.5956084,13.6544566 71.4017527,13.3476562 72.4173828,13.3476562 C73.3864632,13.3476562 74.1428846,13.6459931 74.6866699,14.2426758 C75.2304552,14.8393585 75.5023437,15.6666614 75.5023437,16.7246094 C75.5023437,17.7613984 75.2092965,18.5918751 74.6231934,19.2160645 C74.0370902,19.8402538 73.2510466,20.1523438 72.2650391,20.1523438 Z M72.3412109,14.2236328 C71.6725878,14.2236328 71.1436217,14.4510882 70.7542969,14.9060059 C70.364972,15.3609235 70.1703125,15.9882773 70.1703125,16.7880859 C70.1703125,17.5582721 70.3670879,18.1655251 70.7606445,18.6098633 C71.1542012,19.0542014 71.6810514,19.2763672 72.3412109,19.2763672 C73.0140659,19.2763672 73.5313947,19.0584332 73.8932129,18.6225586 C74.2550311,18.186684 74.4359375,17.5667358 74.4359375,16.7626953 C74.4359375,15.9501912 74.2550311,15.3238954 73.8932129,14.8837891 C73.5313947,14.4436827 73.0140659,14.2236328 72.3412109,14.2236328 Z M82.4609375,20 L81.4199219,20 L81.4199219,16.2929688 C81.4199219,14.9134046 80.9163462,14.2236328 79.9091797,14.2236328 C79.3886693,14.2236328 78.9580909,14.4193503 78.6174316,14.810791 C78.2767724,15.2022318 78.1064453,15.6962861 78.1064453,16.2929688 L78.1064453,20 L77.0654297,20 L77.0654297,13.5 L78.1064453,13.5 L78.1064453,14.5791016 L78.1318359,14.5791016 C78.6227238,13.7581339 79.3336542,13.3476562 80.2646484,13.3476562 C80.9755895,13.3476562 81.5193666,13.5772275 81.8959961,14.036377 C82.2726256,14.4955264 82.4609375,15.1588498 82.4609375,16.0263672 L82.4609375,20 Z M83.9288086,19.7651367 L83.9288086,18.6479492 C84.4958687,19.0668966 85.1200487,19.2763672 85.8013672,19.2763672 C86.7154342,19.2763672 87.1724609,18.9716827 87.1724609,18.3623047 C87.1724609,18.1888012 87.1333174,18.0417486 87.0550293,17.9211426 C86.9767411,17.8005365 86.8709479,17.6936854 86.7376465,17.6005859 C86.604345,17.5074865 86.4477711,17.4239099 86.2679199,17.3498535 C86.0880688,17.2757972 85.8944672,17.1985681 85.6871094,17.1181641 C85.3993475,17.0039057 85.1465017,16.8885911 84.9285644,16.7722168 C84.7106272,16.6558425 84.5286628,16.5246589 84.382666,16.3786621 C84.2366692,16.2326653 84.1266442,16.0665699 84.0525879,15.8803711 C83.9785315,15.6941722 83.9415039,15.4762382 83.9415039,15.2265625 C83.9415039,14.9218735 84.0113274,14.6521008 84.1509766,14.4172363 C84.2906257,14.1823719 84.4768217,13.9855965 84.7095703,13.8269043 C84.9423189,13.6682121 85.2078598,13.5486658 85.5062012,13.4682617 C85.8045425,13.3878577 86.1124007,13.3476562 86.4297851,13.3476562 C86.9926135,13.3476562 87.4961892,13.444986 87.9405273,13.6396484 L87.9405273,14.6933594 C87.4623348,14.3802068 86.9122101,14.2236328 86.2901367,14.2236328 C86.0954743,14.2236328 85.9198575,14.2458494 85.7632812,14.2902832 C85.6067049,14.334717 85.4723476,14.397135 85.3602051,14.4775391 C85.2480626,14.5579431 85.1613121,14.6542149 85.0999512,14.7663574 C85.0385902,14.8784999 85.0079101,15.002278 85.0079101,15.1376953 C85.0079101,15.306967 85.0385902,15.4487299 85.0999512,15.5629883 C85.1613121,15.6772467 85.2512364,15.7788081 85.3697266,15.8676758 C85.4882167,15.9565434 85.6320955,16.0369463 85.8013672,16.1088867 C85.9706389,16.1808272 86.1631825,16.2591142 86.3790039,16.34375 C86.6667658,16.4537766 86.9249012,16.5669753 87.153418,16.6833496 C87.3819347,16.7997239 87.5765942,16.9309075 87.7374023,17.0769043 C87.8982104,17.2229011 88.0219885,17.3911123 88.1087402,17.581543 C88.195492,17.7719736 88.2388672,17.9983711 88.2388672,18.2607422 C88.2388672,18.5823584 88.1679857,18.8616525 88.0262207,19.0986328 C87.8844557,19.3356132 87.6950858,19.5323885 87.4581055,19.6889648 C87.2211251,19.8455411 86.9481786,19.9619137 86.6392578,20.0380859 C86.330337,20.1142582 86.0066098,20.1523438 85.6680664,20.1523438 C84.9994433,20.1523438 84.4196965,20.023276 83.9288086,19.7651367 Z"/>
      <path fill="#0C0C0D" fill-rule="nonzero" d="M14.5,8 C13.529,8 13.5,9 12.75,9 C12.3391373,8.99201984 12.0079802,8.66086268 12,8.25 L12,5 C12,4.44771525 11.5522847,4 11,4 L7.75,4 C7.33913732,3.99201984 7.00798016,3.66086268 7,3.25 C7,2.5 8,2.471 8,1.5 C8,0.635 7.1,0 6,0 C4.9,0 4,0.635 4,1.5 C4,2.471 5,2.5 5,3.25 C4.99201984,3.66086268 4.66086268,3.99201984 4.25,4 L1,4 C0.44771525,4 1.52567436e-16,4.44771525 8.49320614e-17,5 L8.49320614e-17,7.25 C0.00798015866,7.66086268 0.339137321,7.99201984 0.75,8 C1.5,8 1.529,7 2.5,7 C3.365,7 4,7.9 4,9 C4,10.1 3.365,11 2.5,11 C1.529,11 1.5,10 0.75,10 C0.339137321,10.0079802 0.00798015866,10.3391373 0,10.75 L0,15 C4.1545134e-17,15.5522847 0.44771525,16 1,16 L4.25,16 C4.66086268,15.9920198 4.99201984,15.6608627 5,15.25 C5,14.5 4,14.471 4,13.5 C4,12.635 4.9,12 6,12 C7.1,12 8,12.635 8,13.5 C8,14.471 7,14.5 7,15.25 C7.00798016,15.6608627 7.33913732,15.9920198 7.75,16 L11,16 C11.5522847,16 12,15.5522847 12,15 L12,11.75 C12.0079802,11.3391373 12.3391373,11.0079802 12.75,11 C13.5,11 13.529,12 14.5,12 C15.365,12 16,11.1 16,10 C16,8.9 15.365,8 14.5,8 Z" transform="translate(16 7)"/>
    </g>
    <g opacity=".6" transform="translate(232 194)">
      <rect width="12" height="12"/>
      <mask id="capitalization-title-case-desktop-1-d" fill="#fff">
        <use xlink:href="#capitalization-title-case-desktop-1-c"/>
      </mask>
      <g fill="#0C0C0D" fill-opacity=".8" mask="url(#capitalization-title-case-desktop-1-d)">
        <rect width="12" height="12"/>
      </g>
    </g>
    <path fill="#000" d="M45.9160156,205 L41.1933594,205 L41.1933594,195.897461 L42.2597656,195.897461 L42.2597656,204.035156 L45.9160156,204.035156 L45.9160156,205 Z M47.6060547,196.849609 C47.4198558,196.849609 47.261166,196.786133 47.1299805,196.65918 C46.9987949,196.532226 46.9332031,196.37142 46.9332031,196.176758 C46.9332031,195.982095 46.9987949,195.820232 47.1299805,195.691162 C47.261166,195.562092 47.4198558,195.497559 47.6060547,195.497559 C47.7964853,195.497559 47.9583489,195.562092 48.0916504,195.691162 C48.2249518,195.820232 48.2916016,195.982095 48.2916016,196.176758 C48.2916016,196.362957 48.2249518,196.521646 48.0916504,196.652832 C47.9583489,196.784018 47.7964853,196.849609 47.6060547,196.849609 Z M48.1138672,205 L47.0728516,205 L47.0728516,198.5 L48.1138672,198.5 L48.1138672,205 Z M51.1876953,204.060547 L51.1623047,204.060547 L51.1623047,205 L50.1212891,205 L50.1212891,195.376953 L51.1623047,195.376953 L51.1623047,199.642578 L51.1876953,199.642578 C51.6997421,198.779293 52.4487581,198.347656 53.4347656,198.347656 C54.2684286,198.347656 54.9211728,198.638588 55.3930176,199.220459 C55.8648624,199.80233 56.1007812,200.582026 56.1007812,201.55957 C56.1007812,202.647141 55.8362982,203.517819 55.3073242,204.171631 C54.7783502,204.825443 54.0547246,205.152344 53.1364258,205.152344 C52.277372,205.152344 51.6278017,204.788415 51.1876953,204.060547 Z M51.1623047,201.438965 L51.1623047,202.34668 C51.1623047,202.884117 51.3368635,203.340086 51.6859863,203.7146 C52.0351092,204.089113 52.4783827,204.276367 53.0158203,204.276367 C53.6463573,204.276367 54.1404116,204.035159 54.497998,203.552734 C54.8555845,203.07031 55.034375,202.399581 55.034375,201.540527 C55.034375,200.816891 54.8672217,200.249839 54.5329102,199.839355 C54.1985986,199.428872 53.7458036,199.223633 53.1745117,199.223633 C52.5693655,199.223633 52.0827167,199.434161 51.7145508,199.855225 C51.3463849,200.276288 51.1623047,200.804196 51.1623047,201.438965 Z M61.0535156,199.553711 C60.8715486,199.414062 60.6091814,199.344238 60.2664062,199.344238 C59.8220681,199.344238 59.4507339,199.553709 59.1523926,199.972656 C58.8540512,200.391604 58.7048828,200.962887 58.7048828,201.686523 L58.7048828,205 L57.6638672,205 L57.6638672,198.5 L58.7048828,198.5 L58.7048828,199.839355 L58.7302734,199.839355 C58.8783862,199.382322 59.1047836,199.025799 59.4094727,198.769775 C59.7141617,198.513752 60.0548158,198.385742 60.4314453,198.385742 C60.70228,198.385742 60.9096347,198.415364 61.0535156,198.474609 L61.0535156,199.553711 Z M66.7362305,205 L65.6952148,205 L65.6952148,203.984375 L65.6698242,203.984375 C65.2170225,204.763025 64.5505252,205.152344 63.6703125,205.152344 C63.0228483,205.152344 62.5160988,204.980959 62.1500488,204.638184 C61.7839988,204.295408 61.6009766,203.840498 61.6009766,203.273438 C61.6009766,202.058913 62.3161387,201.352215 63.7464844,201.15332 L65.6952148,200.880371 C65.6952148,199.775873 65.2487675,199.223633 64.3558594,199.223633 C63.5729779,199.223633 62.8662792,199.490232 62.2357422,200.023438 L62.2357422,198.957031 C62.8747428,198.550779 63.6110635,198.347656 64.4447266,198.347656 C65.9724035,198.347656 66.7362305,199.155916 66.7362305,200.772461 L66.7362305,205 Z M65.6952148,201.711914 L64.1273437,201.927734 C63.6449195,201.995443 63.2809908,202.114989 63.0355469,202.286377 C62.7901029,202.457765 62.6673828,202.761391 62.6673828,203.197266 C62.6673828,203.51465 62.7805815,203.773843 63.0069824,203.974854 C63.2333833,204.175864 63.5348939,204.276367 63.9115234,204.276367 C64.4278021,204.276367 64.8541487,204.095461 65.1905762,203.733643 C65.5270036,203.371824 65.6952148,202.91374 65.6952148,202.359375 L65.6952148,201.711914 Z M71.9873047,199.553711 C71.8053376,199.414062 71.5429705,199.344238 71.2001953,199.344238 C70.7558571,199.344238 70.384523,199.553709 70.0861816,199.972656 C69.7878403,200.391604 69.6386719,200.962887 69.6386719,201.686523 L69.6386719,205 L68.5976562,205 L68.5976562,198.5 L69.6386719,198.5 L69.6386719,199.839355 L69.6640625,199.839355 C69.8121752,199.382322 70.0385727,199.025799 70.3432617,198.769775 C70.6479507,198.513752 70.9886049,198.385742 71.3652344,198.385742 C71.6360691,198.385742 71.8434238,198.415364 71.9873047,198.474609 L71.9873047,199.553711 Z M78.1905273,198.5 L75.2007812,206.041016 C74.6675755,207.386725 73.9185595,208.05957 72.9537109,208.05957 C72.6828762,208.05957 72.4564788,208.032064 72.2745117,207.977051 L72.2745117,207.043945 C72.4987967,207.120118 72.7040355,207.158203 72.8902344,207.158203 C73.4149766,207.158203 73.8085273,206.845055 74.0708984,206.21875 L74.5914062,204.987305 L72.0523437,198.5 L73.2076172,198.5 L74.965918,203.501953 C74.9870769,203.56543 75.0315101,203.730467 75.0992187,203.99707 L75.1373047,203.99707 C75.1584636,203.895507 75.2007809,203.734702 75.2642578,203.514648 L77.1114258,198.5 L78.1905273,198.5 Z"/>
    <path fill="#0C0C0D" fill-rule="nonzero" d="M5,3 C4.44771525,3 4,3.44771525 4,4 L4,14 C4,14.5522847 4.44771525,15 5,15 C5.55228475,15 6,14.5522847 6,14 L6,4 C6,3.44771525 5.55228475,3 5,3 Z M8,2 C7.44771525,2 7,2.44771525 7,3 L7,14 C7,14.5522847 7.44771525,15 8,15 C8.55228475,15 9,14.5522847 9,14 L9,3 C9,2.44771525 8.55228475,2 8,2 Z M15.939,13.658 L11.939,2.658 C11.8218265,2.31560782 11.5288098,2.06323735 11.1728313,1.99811149 C10.8168528,1.93298563 10.4534644,2.06526752 10.2226574,2.34399705 C9.99185033,2.62272657 9.92964297,3.00440692 10.06,3.342 L14.06,14.342 C14.1771735,14.6843922 14.4701902,14.9367627 14.8261687,15.0018885 C15.1821472,15.0670144 15.5455356,14.9347325 15.7763426,14.656003 C16.0071497,14.3772734 16.069357,13.9955931 15.939,13.658 L15.939,13.658 Z M2,1 C1.44771525,1 1,1.44771525 1,2 L1,14 C1,14.5522847 1.44771525,15 2,15 C2.55228475,15 3,14.5522847 3,14 L3,2 C3,1.44771525 2.55228475,1 2,1 Z" transform="translate(16 192)"/>
    <g transform="translate(0 175)">
      <rect width="256" height="13"/>
      <rect width="256" height="1" y="6" fill="#0C0C0D" fill-opacity=".1"/>
    </g>
    <g transform="translate(0 151)">
      <path fill="#000" d="M46.0175781,17 L41.1933594,17 L41.1933594,7.89746094 L45.8144531,7.89746094 L45.8144531,8.86230469 L42.2597656,8.86230469 L42.2597656,11.8901367 L45.5478516,11.8901367 L45.5478516,12.8486328 L42.2597656,12.8486328 L42.2597656,16.0351562 L46.0175781,16.0351562 L46.0175781,17 Z M53.0777344,17 L52.0367187,17 L52.0367187,15.8955078 L52.0113281,15.8955078 C51.5289038,16.7334026 50.7841196,17.1523438 49.7769531,17.1523438 C48.9602173,17.1523438 48.3074731,16.8614124 47.8187012,16.279541 C47.3299292,15.6976696 47.0855469,14.9052785 47.0855469,13.9023438 C47.0855469,12.8274686 47.3563775,11.9663118 47.8980469,11.3188477 C48.4397162,10.6713835 49.161226,10.3476562 50.0625977,10.3476562 C50.9555058,10.3476562 51.6050761,10.6988897 52.0113281,11.4013672 L52.0367187,11.4013672 L52.0367187,7.37695312 L53.0777344,7.37695312 L53.0777344,17 Z M52.0367187,14.0610352 L52.0367187,13.1025391 C52.0367187,12.5777969 51.8632179,12.1334654 51.5162109,11.7695312 C51.169204,11.4055971 50.7291042,11.2236328 50.1958984,11.2236328 C49.5611296,11.2236328 49.0617857,11.4563779 48.6978516,11.921875 C48.3339174,12.3873721 48.1519531,13.0305949 48.1519531,13.8515625 C48.1519531,14.6005897 48.3265119,15.1919737 48.6756348,15.6257324 C49.0247576,16.0594911 49.4934215,16.2763672 50.0816406,16.2763672 C50.6613961,16.2763672 51.1321759,16.0668966 51.4939941,15.6479492 C51.8558124,15.2290018 52.0367187,14.7000357 52.0367187,14.0610352 Z M55.6183594,8.84960938 C55.4321605,8.84960938 55.2734707,8.78613345 55.1422852,8.65917969 C55.0110996,8.53222593 54.9455078,8.37142024 54.9455078,8.17675781 C54.9455078,7.98209538 55.0110996,7.82023177 55.1422852,7.69116211 C55.2734707,7.56209245 55.4321605,7.49755859 55.6183594,7.49755859 C55.80879,7.49755859 55.9706536,7.56209245 56.1039551,7.69116211 C56.2372565,7.82023177 56.3039062,7.98209538 56.3039062,8.17675781 C56.3039062,8.36295666 56.2372565,8.52164648 56.1039551,8.65283203 C55.9706536,8.78401758 55.80879,8.84960938 55.6183594,8.84960938 Z M56.1261719,17 L55.0851562,17 L55.0851562,10.5 L56.1261719,10.5 L56.1261719,17 Z M61.1487305,16.9365234 C60.9032865,17.0719408 60.5795593,17.1396484 60.1775391,17.1396484 C59.039187,17.1396484 58.4700195,16.5048892 58.4700195,15.2353516 L58.4700195,11.3886719 L57.352832,11.3886719 L57.352832,10.5 L58.4700195,10.5 L58.4700195,8.91308594 L59.5110352,8.57666016 L59.5110352,10.5 L61.1487305,10.5 L61.1487305,11.3886719 L59.5110352,11.3886719 L59.5110352,15.0512695 C59.5110352,15.4871441 59.5850904,15.7981762 59.7332031,15.984375 C59.8813158,16.1705738 60.1267561,16.2636719 60.4695312,16.2636719 C60.7319023,16.2636719 60.9582998,16.1917325 61.1487305,16.0478516 L61.1487305,16.9365234 Z"/>
    </g>
    <g transform="translate(0 138)">
      <rect width="256" height="13"/>
      <rect width="256" height="1" y="6" fill="#0C0C0D" fill-opacity=".1"/>
    </g>
    <g transform="translate(0 113)">
      <path fill="#000" d="M47.1347656,8.15136719 L41.8027344,16.0351562 L47.0078125,16.0351562 L47.0078125,17 L40.2094727,17 L40.2094727,16.7016602 L45.4970703,8.86230469 L40.6347656,8.86230469 L40.6347656,7.89746094 L47.1347656,7.89746094 L47.1347656,8.15136719 Z M51.0845703,17.1523438 C50.1239535,17.1523438 49.3569527,16.8487172 48.7835449,16.2414551 C48.2101371,15.6341929 47.9234375,14.8291066 47.9234375,13.8261719 C47.9234375,12.7343695 48.2217744,11.8816762 48.818457,11.2680664 C49.4151397,10.6544566 50.221284,10.3476562 51.2369141,10.3476562 C52.2059944,10.3476562 52.9624159,10.6459931 53.5062012,11.2426758 C54.0499864,11.8393585 54.321875,12.6666614 54.321875,13.7246094 C54.321875,14.7613984 54.0288278,15.5918751 53.4427246,16.2160645 C52.8566214,16.8402538 52.0705778,17.1523438 51.0845703,17.1523438 Z M51.1607422,11.2236328 C50.4921191,11.2236328 49.963153,11.4510882 49.5738281,11.9060059 C49.1845033,12.3609235 48.9898437,12.9882773 48.9898437,13.7880859 C48.9898437,14.5582721 49.1866191,15.1655251 49.5801758,15.6098633 C49.9737324,16.0542014 50.5005826,16.2763672 51.1607422,16.2763672 C51.8335971,16.2763672 52.3509259,16.0584332 52.7127441,15.6225586 C53.0745624,15.186684 53.2554687,14.5667358 53.2554687,13.7626953 C53.2554687,12.9501912 53.0745624,12.3238954 52.7127441,11.8837891 C52.3509259,11.4436827 51.8335971,11.2236328 51.1607422,11.2236328 Z M58.6017578,17.1523438 C57.641141,17.1523438 56.8741402,16.8487172 56.3007324,16.2414551 C55.7273246,15.6341929 55.440625,14.8291066 55.440625,13.8261719 C55.440625,12.7343695 55.7389619,11.8816762 56.3356445,11.2680664 C56.9323272,10.6544566 57.7384715,10.3476562 58.7541016,10.3476562 C59.7231819,10.3476562 60.4796034,10.6459931 61.0233887,11.2426758 C61.5671739,11.8393585 61.8390625,12.6666614 61.8390625,13.7246094 C61.8390625,14.7613984 61.5460153,15.5918751 60.9599121,16.2160645 C60.3738089,16.8402538 59.5877653,17.1523438 58.6017578,17.1523438 Z M58.6779297,11.2236328 C58.0093065,11.2236328 57.4803405,11.4510882 57.0910156,11.9060059 C56.7016908,12.3609235 56.5070312,12.9882773 56.5070312,13.7880859 C56.5070312,14.5582721 56.7038066,15.1655251 57.0973633,15.6098633 C57.4909199,16.0542014 58.0177701,16.2763672 58.6779297,16.2763672 C59.3507846,16.2763672 59.8681134,16.0584332 60.2299316,15.6225586 C60.5917499,15.186684 60.7726562,14.5667358 60.7726562,13.7626953 C60.7726562,12.9501912 60.5917499,12.3238954 60.2299316,11.8837891 C59.8681134,11.4436827 59.3507846,11.2236328 58.6779297,11.2236328 Z M72.6316406,17 L71.590625,17 L71.590625,13.2675781 C71.590625,12.5481735 71.4795421,12.0276709 71.257373,11.7060547 C71.035204,11.3844385 70.6617539,11.2236328 70.1370117,11.2236328 C69.6926736,11.2236328 69.3149918,11.4267558 69.0039551,11.8330078 C68.6929184,12.2392598 68.5374023,12.7259086 68.5374023,13.2929688 L68.5374023,17 L67.4963867,17 L67.4963867,13.140625 C67.4963867,11.8626238 67.0033903,11.2236328 66.0173828,11.2236328 C65.5603493,11.2236328 65.1837254,11.4151185 64.8875,11.7980957 C64.5912746,12.1810729 64.4431641,12.6793589 64.4431641,13.2929688 L64.4431641,17 L63.4021484,17 L63.4021484,10.5 L64.4431641,10.5 L64.4431641,11.5283203 L64.4685547,11.5283203 C64.92982,10.741207 65.6026648,10.3476562 66.4871094,10.3476562 C66.9314475,10.3476562 67.3186507,10.4714343 67.6487305,10.7189941 C67.9788102,10.966554 68.2052077,11.2913391 68.3279297,11.6933594 C68.810354,10.7962195 69.5297478,10.3476562 70.4861328,10.3476562 C71.9164785,10.3476562 72.6316406,11.2299716 72.6316406,12.9946289 L72.6316406,17 Z"/>
    </g>
    <g transform="translate(0 100)">
      <rect width="256" height="13"/>
      <rect width="256" height="1" y="6" fill="#0C0C0D" fill-opacity=".1"/>
    </g>
    <g transform="translate(0 76)">
      <path fill="#737373" d="M212.849121,13.9555664 L217.419922,9.38476562 L221.996094,13.9555664 L219.708008,13.9555664 L219.708008,18 L215.137207,18 L215.137207,13.9555664 L212.849121,13.9555664 Z M217.419922,10.324707 L214.385254,13.359375 L215.797852,13.359375 L215.797852,17.3393555 L219.047363,17.3393555 L219.047363,13.359375 L220.45459,13.359375 L217.419922,10.324707 Z M227.625,14.8203125 L229.214844,14.8203125 L229.214844,13.2304688 L227.625,13.2304688 L227.625,14.8203125 Z M227.625,15.6152344 L227.625,16.5283203 C227.625,16.9866559 227.459393,17.379637 227.128174,17.7072754 C226.796955,18.0349137 226.398603,18.1987305 225.933105,18.1987305 C225.467608,18.1987305 225.070151,18.0340186 224.740723,17.7045898 C224.411294,17.3751611 224.246582,16.9759138 224.246582,16.5068359 C224.246582,16.0485003 224.411294,15.6528337 224.740723,15.3198242 C225.070151,14.9868147 225.462237,14.8203125 225.916992,14.8203125 L226.830078,14.8203125 L226.830078,13.2304688 L225.916992,13.2304688 C225.462237,13.2304688 225.070151,13.0639665 224.740723,12.730957 C224.411294,12.3979476 224.246582,12.0004906 224.246582,11.5385742 C224.246582,11.0730771 224.411294,10.6756201 224.740723,10.3461914 C225.070151,10.0167627 225.467608,9.85205078 225.933105,9.85205078 C226.398603,9.85205078 226.796955,10.0158675 227.128174,10.3435059 C227.459393,10.6711442 227.625,11.0641253 227.625,11.5224609 L227.625,12.4355469 L229.214844,12.4355469 L229.214844,11.5224609 C229.214844,11.0641253 229.380451,10.6711442 229.71167,10.3435059 C230.042889,10.0158675 230.441241,9.85205078 230.906738,9.85205078 C231.375816,9.85205078 231.774168,10.0167627 232.101807,10.3461914 C232.429445,10.6756201 232.593262,11.0730771 232.593262,11.5385742 C232.593262,12.0004906 232.429445,12.3979476 232.101807,12.730957 C231.774168,13.0639665 231.381187,13.2304688 230.922852,13.2304688 L230.009766,13.2304688 L230.009766,14.8203125 L230.922852,14.8203125 C231.381187,14.8203125 231.774168,14.9868147 232.101807,15.3198242 C232.429445,15.6528337 232.593262,16.0485003 232.593262,16.5068359 C232.593262,16.9759138 232.429445,17.3751611 232.101807,17.7045898 C231.774168,18.0340186 231.375816,18.1987305 230.906738,18.1987305 C230.441241,18.1987305 230.042889,18.0349137 229.71167,17.7072754 C229.380451,17.379637 229.214844,16.9866559 229.214844,16.5283203 L229.214844,15.6152344 L227.625,15.6152344 Z M226.830078,12.4355469 L226.830078,11.5385742 C226.830078,11.2915027 226.742351,11.0811369 226.566895,10.9074707 C226.391438,10.7338045 226.180177,10.6469727 225.933105,10.6469727 C225.689615,10.6469727 225.480144,10.7338045 225.304688,10.9074707 C225.129231,11.0811369 225.041504,11.2915027 225.041504,11.5385742 C225.041504,11.7856458 225.129231,11.9969067 225.304688,12.1723633 C225.480144,12.3478199 225.691405,12.4355469 225.938477,12.4355469 L226.830078,12.4355469 Z M226.830078,15.6152344 L225.938477,15.6152344 C225.691405,15.6152344 225.480144,15.7029614 225.304688,15.878418 C225.129231,16.0538746 225.041504,16.2633451 225.041504,16.5068359 C225.041504,16.7539075 225.129231,16.9651684 225.304688,17.140625 C225.480144,17.3160816 225.691405,17.4038086 225.938477,17.4038086 C226.181967,17.4038086 226.391438,17.3160816 226.566895,17.140625 C226.742351,16.9651684 226.830078,16.7556978 226.830078,16.512207 L226.830078,15.6152344 Z M230.009766,12.4355469 L230.906738,12.4355469 C231.150229,12.4355469 231.3597,12.3478199 231.535156,12.1723633 C231.710613,11.9969067 231.79834,11.7856458 231.79834,11.5385742 C231.79834,11.2915027 231.711508,11.0811369 231.537842,10.9074707 C231.364176,10.7338045 231.15381,10.6469727 230.906738,10.6469727 C230.659667,10.6469727 230.448406,10.7338045 230.272949,10.9074707 C230.097493,11.0811369 230.009766,11.2915027 230.009766,11.5385742 L230.009766,12.4355469 Z M230.009766,15.6152344 L230.009766,16.512207 C230.009766,16.7556978 230.097493,16.9651684 230.272949,17.140625 C230.448406,17.3160816 230.659667,17.4038086 230.906738,17.4038086 C231.15381,17.4038086 231.364176,17.3160816 231.537842,17.140625 C231.711508,16.9651684 231.79834,16.7539075 231.79834,16.5068359 C231.79834,16.2633451 231.710613,16.0538746 231.535156,15.878418 C231.3597,15.7029614 231.150229,15.6152344 230.906738,15.6152344 L230.009766,15.6152344 Z M234.945801,18 L234.945801,10.0507812 L237.110352,10.0507812 C238.069992,10.0507812 238.759275,10.2128076 239.178223,10.5368652 C239.59717,10.8609228 239.806641,11.393551 239.806641,12.1347656 C239.806641,12.9798219 239.520185,13.6422502 238.947266,14.1220703 C238.374346,14.6018904 237.579432,14.8417969 236.5625,14.8417969 L236.062988,14.8417969 L236.062988,18 L234.945801,18 Z M236.062988,13.987793 L236.519531,13.987793 C237.189131,13.987793 237.706541,13.8338232 238.071777,13.5258789 C238.437014,13.2179347 238.619629,12.7828804 238.619629,12.2207031 C238.619629,11.7444638 238.476401,11.4042979 238.189941,11.2001953 C237.903482,10.9960927 237.425459,10.894043 236.755859,10.894043 L236.062988,10.894043 L236.062988,13.987793 Z"/>
      <path fill="#000" d="M48.53125,19 L47.2236328,19 L42.5390625,11.7446289 C42.4205723,11.5626619 42.3232426,11.3722341 42.2470703,11.1733398 L42.2089844,11.1733398 C42.2428387,11.3680023 42.2597656,11.7848275 42.2597656,12.4238281 L42.2597656,19 L41.1933594,19 L41.1933594,9.89746094 L42.5771484,9.89746094 L47.1347656,17.0385742 C47.3251963,17.3347997 47.4479164,17.5379226 47.5029297,17.6479492 L47.5283203,17.6479492 C47.4860024,17.3855781 47.4648438,16.9391308 47.4648438,16.3085938 L47.4648438,9.89746094 L48.53125,9.89746094 L48.53125,19 Z M55.9024414,16.0102539 L51.3130859,16.0102539 C51.3300131,16.7338903 51.5246726,17.2924785 51.8970703,17.6860352 C52.269468,18.0795918 52.7815072,18.2763672 53.4332031,18.2763672 C54.1653031,18.2763672 54.838148,18.0351587 55.4517578,17.5527344 L55.4517578,18.5302734 C54.8804659,18.9449891 54.1251024,19.1523438 53.1856445,19.1523438 C52.2673457,19.1523438 51.545836,18.8571807 51.0210937,18.2668457 C50.4963515,17.6765107 50.2339844,16.846034 50.2339844,15.7753906 C50.2339844,14.7639923 50.520684,13.9398632 51.0940918,13.3029785 C51.6674996,12.6660938 52.3794879,12.3476562 53.2300781,12.3476562 C54.0806683,12.3476562 54.7387021,12.6227186 55.2041992,13.1728516 C55.6696963,13.7229845 55.9024414,14.4868115 55.9024414,15.4643555 L55.9024414,16.0102539 Z M54.8360352,15.1279297 C54.8318034,14.5270152 54.6868667,14.0594092 54.4012207,13.7250977 C54.1155747,13.3907861 53.7188502,13.2236328 53.2110352,13.2236328 C52.7201473,13.2236328 52.303322,13.3992495 51.9605469,13.7504883 C51.6177717,14.101727 51.4061853,14.5608696 51.3257812,15.1279297 L54.8360352,15.1279297 Z M65.5651367,12.5 L63.6164062,19 L62.5373047,19 L61.1979492,14.347168 C61.1471677,14.1694327 61.1133139,13.9684256 61.0963867,13.7441406 L61.0709961,13.7441406 C61.0583007,13.8964851 61.0138676,14.0932605 60.9376953,14.3344727 L59.484082,19 L58.4430664,19 L56.475293,12.5 L57.5670898,12.5 L58.912793,17.3876953 C58.9551109,17.535808 58.984733,17.7304675 59.0016602,17.9716797 L59.0524414,17.9716797 C59.0651368,17.7854808 59.1032223,17.5865896 59.1666992,17.375 L60.6647461,12.5 L61.6168945,12.5 L62.9625977,17.4003906 C63.0049156,17.5569669 63.0366535,17.7516264 63.0578125,17.984375 L63.1085937,17.984375 C63.1170573,17.8193351 63.153027,17.6246756 63.2165039,17.4003906 L64.5368164,12.5 L65.5651367,12.5 Z M71.3382812,15.5595703 L71.3382812,19 L70.271875,19 L70.271875,9.89746094 L72.7728516,9.89746094 C73.7461637,9.89746094 74.5004693,10.1344377 75.035791,10.6083984 C75.5711127,11.0823591 75.8387695,11.7509722 75.8387695,12.6142578 C75.8387695,13.4775434 75.5414906,14.184242 74.9469238,14.734375 C74.352357,15.284508 73.5493866,15.5595703 72.5379883,15.5595703 L71.3382812,15.5595703 Z M71.3382812,10.8623047 L71.3382812,14.5947266 L72.4554687,14.5947266 C73.1918006,14.5947266 73.7535625,14.4265154 74.1407715,14.0900879 C74.5279804,13.7536604 74.721582,13.2786489 74.721582,12.6650391 C74.721582,11.4632101 74.0106516,10.8623047 72.5887695,10.8623047 L71.3382812,10.8623047 Z M80.7026367,13.5537109 C80.5206697,13.4140618 80.2583025,13.3442383 79.9155273,13.3442383 C79.4711892,13.3442383 79.099855,13.5537088 78.8015137,13.9726562 C78.5031723,14.3916037 78.3540039,14.962887 78.3540039,15.6865234 L78.3540039,19 L77.3129883,19 L77.3129883,12.5 L78.3540039,12.5 L78.3540039,13.8393555 L78.3793945,13.8393555 C78.5275072,13.3823219 78.7539047,13.0257988 79.0585937,12.7697754 C79.3632828,12.513752 79.7039369,12.3857422 80.0805664,12.3857422 C80.3514011,12.3857422 80.5587558,12.4153643 80.7026367,12.4746094 L80.7026367,13.5537109 Z M82.2657226,10.8496094 C82.0795238,10.8496094 81.920834,10.7861334 81.7896484,10.6591797 C81.6584629,10.5322259 81.5928711,10.3714202 81.5928711,10.1767578 C81.5928711,9.98209538 81.6584629,9.82023177 81.7896484,9.69116211 C81.920834,9.56209245 82.0795238,9.49755859 82.2657226,9.49755859 C82.4561533,9.49755859 82.6180169,9.56209245 82.7513184,9.69116211 C82.8846198,9.82023177 82.9512695,9.98209538 82.9512695,10.1767578 C82.9512695,10.3629567 82.8846198,10.5216465 82.7513184,10.652832 C82.6180169,10.7840176 82.4561533,10.8496094 82.2657226,10.8496094 Z M82.7735351,19 L81.7325195,19 L81.7325195,12.5 L82.7735351,12.5 L82.7735351,19 Z M89.8908203,12.5 L87.3009766,19 L86.2790039,19 L83.8161133,12.5 L84.9586914,12.5 L86.609082,17.2226562 C86.731804,17.5696632 86.8079751,17.8722318 86.8375976,18.1303711 L86.8629883,18.1303711 C86.9053062,17.8045231 86.9730138,17.510418 87.0661133,17.2480469 L88.7926758,12.5 L89.8908203,12.5 Z M95.5608398,19 L94.5198242,19 L94.5198242,17.984375 L94.4944336,17.984375 C94.0416318,18.7630247 93.3751346,19.1523438 92.4949219,19.1523438 C91.8474577,19.1523438 91.3407082,18.9809587 90.9746582,18.6381836 C90.6086082,18.2954084 90.4255859,17.8404976 90.4255859,17.2734375 C90.4255859,16.0589132 91.140748,15.3522145 92.5710937,15.1533203 L94.5198242,14.8803711 C94.5198242,13.7758734 94.0733768,13.2236328 93.1804687,13.2236328 C92.3975872,13.2236328 91.6908886,13.4902317 91.0603516,14.0234375 L91.0603516,12.9570312 C91.6993521,12.5507792 92.4356729,12.3476562 93.2693359,12.3476562 C94.7970128,12.3476562 95.5608398,13.1559164 95.5608398,14.7724609 L95.5608398,19 Z M94.5198242,15.7119141 L92.9519531,15.9277344 C92.4695288,15.995443 92.1056002,16.1149894 91.8601562,16.286377 C91.6147123,16.4577645 91.4919922,16.761391 91.4919922,17.1972656 C91.4919922,17.51465 91.6051909,17.7738434 91.8315918,17.9748535 C92.0579927,18.1758636 92.3595033,18.2763672 92.7361328,18.2763672 C93.2524114,18.2763672 93.6787581,18.0954608 94.0151855,17.7336426 C94.351613,17.3718244 94.5198242,16.9137398 94.5198242,16.359375 L94.5198242,15.7119141 Z M100.437402,18.9365234 C100.191958,19.0719408 99.8682312,19.1396484 99.4662109,19.1396484 C98.3278589,19.1396484 97.7586914,18.5048892 97.7586914,17.2353516 L97.7586914,13.3886719 L96.6415039,13.3886719 L96.6415039,12.5 L97.7586914,12.5 L97.7586914,10.9130859 L98.799707,10.5766602 L98.799707,12.5 L100.437402,12.5 L100.437402,13.3886719 L98.799707,13.3886719 L98.799707,17.0512695 C98.799707,17.4871441 98.8737623,17.7981762 99.021875,17.984375 C99.1699877,18.1705738 99.415428,18.2636719 99.7582031,18.2636719 C100.020574,18.2636719 100.246972,18.1917325 100.437402,18.0478516 L100.437402,18.9365234 Z M106.95166,16.0102539 L102.362305,16.0102539 C102.379232,16.7338903 102.573891,17.2924785 102.946289,17.6860352 C103.318687,18.0795918 103.830726,18.2763672 104.482422,18.2763672 C105.214522,18.2763672 105.887367,18.0351587 106.500977,17.5527344 L106.500977,18.5302734 C105.929685,18.9449891 105.174321,19.1523438 104.234863,19.1523438 C103.316564,19.1523438 102.595055,18.8571807 102.070312,18.2668457 C101.54557,17.6765107 101.283203,16.846034 101.283203,15.7753906 C101.283203,14.7639923 101.569903,13.9398632 102.143311,13.3029785 C102.716718,12.6660938 103.428707,12.3476562 104.279297,12.3476562 C105.129887,12.3476562 105.787921,12.6227186 106.253418,13.1728516 C106.718915,13.7229845 106.95166,14.4868115 106.95166,15.4643555 L106.95166,16.0102539 Z M105.885254,15.1279297 C105.881022,14.5270152 105.736085,14.0594092 105.450439,13.7250977 C105.164793,13.3907861 104.768069,13.2236328 104.260254,13.2236328 C103.769366,13.2236328 103.352541,13.3992495 103.009766,13.7504883 C102.66699,14.101727 102.455404,14.5608696 102.375,15.1279297 L105.885254,15.1279297 Z M122.817578,9.89746094 L120.246777,19 L118.996289,19 L117.12373,12.3476562 C117.043326,12.0641262 116.994662,11.75521 116.977734,11.4208984 L116.952344,11.4208984 C116.926953,11.734051 116.871941,12.0387355 116.787305,12.3349609 L114.902051,19 L113.664258,19 L110.998242,9.89746094 L112.172559,9.89746094 L114.108594,16.8798828 C114.188998,17.1718765 114.239779,17.4765609 114.260937,17.7939453 L114.292676,17.7939453 C114.313835,17.5696603 114.379427,17.2649759 114.489453,16.8798828 L116.50166,9.89746094 L117.523633,9.89746094 L119.45332,16.9306641 C119.521029,17.1718762 119.57181,17.455402 119.605664,17.78125 L119.631055,17.78125 C119.647982,17.5611968 119.70511,17.2692075 119.802441,16.9052734 L121.662305,9.89746094 L122.817578,9.89746094 Z M124.463184,10.8496094 C124.276985,10.8496094 124.118295,10.7861334 123.987109,10.6591797 C123.855924,10.5322259 123.790332,10.3714202 123.790332,10.1767578 C123.790332,9.98209538 123.855924,9.82023177 123.987109,9.69116211 C124.118295,9.56209245 124.276985,9.49755859 124.463184,9.49755859 C124.653614,9.49755859 124.815478,9.56209245 124.948779,9.69116211 C125.082081,9.82023177 125.14873,9.98209538 125.14873,10.1767578 C125.14873,10.3629567 125.082081,10.5216465 124.948779,10.652832 C124.815478,10.7840176 124.653614,10.8496094 124.463184,10.8496094 Z M124.970996,19 L123.92998,19 L123.92998,12.5 L124.970996,12.5 L124.970996,19 Z M132.373926,19 L131.33291,19 L131.33291,15.2929688 C131.33291,13.9134046 130.829334,13.2236328 129.822168,13.2236328 C129.301658,13.2236328 128.871079,13.4193503 128.53042,13.810791 C128.189761,14.2022318 128.019434,14.6962861 128.019434,15.2929688 L128.019434,19 L126.978418,19 L126.978418,12.5 L128.019434,12.5 L128.019434,13.5791016 L128.044824,13.5791016 C128.535712,12.7581339 129.246642,12.3476562 130.177637,12.3476562 C130.888578,12.3476562 131.432355,12.5772275 131.808984,13.036377 C132.185614,13.4955264 132.373926,14.1588498 132.373926,15.0263672 L132.373926,19 Z M139.783203,19 L138.742187,19 L138.742187,17.8955078 L138.716797,17.8955078 C138.234373,18.7334026 137.489588,19.1523438 136.482422,19.1523438 C135.665686,19.1523438 135.012942,18.8614124 134.52417,18.279541 C134.035398,17.6976696 133.791016,16.9052785 133.791016,15.9023438 C133.791016,14.8274686 134.061846,13.9663118 134.603516,13.3188477 C135.145185,12.6713835 135.866695,12.3476562 136.768066,12.3476562 C137.660974,12.3476562 138.310545,12.6988897 138.716797,13.4013672 L138.742187,13.4013672 L138.742187,9.37695312 L139.783203,9.37695312 L139.783203,19 Z M138.742187,16.0610352 L138.742187,15.1025391 C138.742187,14.5777969 138.568687,14.1334654 138.22168,13.7695312 C137.874673,13.4055971 137.434573,13.2236328 136.901367,13.2236328 C136.266598,13.2236328 135.767254,13.4563779 135.40332,13.921875 C135.039386,14.3873721 134.857422,15.0305949 134.857422,15.8515625 C134.857422,16.6005897 135.031981,17.1919737 135.381103,17.6257324 C135.730226,18.0594911 136.19889,18.2763672 136.787109,18.2763672 C137.366865,18.2763672 137.837645,18.0668966 138.199463,17.6479492 C138.561281,17.2290018 138.742187,16.7000357 138.742187,16.0610352 Z M144.507422,19.1523438 C143.546805,19.1523438 142.779804,18.8487172 142.206396,18.2414551 C141.632989,17.6341929 141.346289,16.8291066 141.346289,15.8261719 C141.346289,14.7343695 141.644626,13.8816762 142.241309,13.2680664 C142.837991,12.6544566 143.644136,12.3476562 144.659766,12.3476562 C145.628846,12.3476562 146.385267,12.6459931 146.929053,13.2426758 C147.472838,13.8393585 147.744727,14.6666614 147.744727,15.7246094 C147.744727,16.7613984 147.451679,17.5918751 146.865576,18.2160645 C146.279473,18.8402538 145.493429,19.1523438 144.507422,19.1523438 Z M144.583594,13.2236328 C143.914971,13.2236328 143.386005,13.4510882 142.99668,13.9060059 C142.607355,14.3609235 142.412695,14.9882773 142.412695,15.7880859 C142.412695,16.5582721 142.609471,17.1655251 143.003027,17.6098633 C143.396584,18.0542014 143.923434,18.2763672 144.583594,18.2763672 C145.256449,18.2763672 145.773777,18.0584332 146.135596,17.6225586 C146.497414,17.186684 146.67832,16.5667358 146.67832,15.7626953 C146.67832,14.9501912 146.497414,14.3238954 146.135596,13.8837891 C145.773777,13.4436827 145.256449,13.2236328 144.583594,13.2236328 Z M157.496289,12.5 L155.547559,19 L154.468457,19 L153.129102,14.347168 C153.07832,14.1694327 153.044466,13.9684256 153.027539,13.7441406 L153.002148,13.7441406 C152.989453,13.8964851 152.94502,14.0932605 152.868848,14.3344727 L151.415234,19 L150.374219,19 L148.406445,12.5 L149.498242,12.5 L150.843945,17.3876953 C150.886263,17.535808 150.915885,17.7304675 150.932812,17.9716797 L150.983594,17.9716797 C150.996289,17.7854808 151.034375,17.5865896 151.097852,17.375 L152.595898,12.5 L153.548047,12.5 L154.89375,17.4003906 C154.936068,17.5569669 154.967806,17.7516264 154.988965,17.984375 L155.039746,17.984375 C155.04821,17.8193351 155.084179,17.6246756 155.147656,17.4003906 L156.467969,12.5 L157.496289,12.5 Z"/>
      <path fill="#0C0C0D" fill-rule="nonzero" d="M12.408,10.992 C10.745,10.992 9.595,8.992 8,8.992 C6.405,8.992 5.156,10.992 3.592,10.992 C1.54,10.992 0.025,9.048 3.66460334e-17,5.719 C-0.015,3.651 0.6,2.992 3.265,2.992 C5.93,2.992 6.709,4.082 8,4.082 C9.291,4.082 10.071,2.991 12.735,2.991 C15.399,2.991 16.015,3.651 16,5.718 C15.975,9.048 14.46,10.992 12.408,10.992 Z M4.572,5.537 C2.953,5.607 2.286,6.572 2.286,6.81 C2.286,7.048 3.359,7.719 4.408,7.719 C5.457,7.719 6.694,7.335 6.694,6.992 C6.47262261,6.02900046 5.55006732,5.39642838 4.572,5.537 Z M11.429,5.537 C10.450579,5.39586352 9.52740133,6.02856421 9.306,6.992 C9.306,7.335 10.542,7.719 11.592,7.719 C12.642,7.719 13.714,7.048 13.714,6.81 C13.714,6.572 13.047,5.607 11.428,5.537 L11.429,5.537 Z" transform="translate(16 7)"/>
    </g>
    <g transform="translate(0 52)">
      <path fill="#737373" d="M225.76123,12.8203125 L227.351074,12.8203125 L227.351074,11.2304688 L225.76123,11.2304688 L225.76123,12.8203125 Z M225.76123,13.6152344 L225.76123,14.5283203 C225.76123,14.9866559 225.595623,15.379637 225.264404,15.7072754 C224.933185,16.0349137 224.534833,16.1987305 224.069336,16.1987305 C223.603839,16.1987305 223.206382,16.0340186 222.876953,15.7045898 C222.547524,15.3751611 222.382812,14.9759138 222.382812,14.5068359 C222.382812,14.0485003 222.547524,13.6528337 222.876953,13.3198242 C223.206382,12.9868147 223.598468,12.8203125 224.053223,12.8203125 L224.966309,12.8203125 L224.966309,11.2304688 L224.053223,11.2304688 C223.598468,11.2304688 223.206382,11.0639665 222.876953,10.730957 C222.547524,10.3979476 222.382812,10.0004906 222.382812,9.53857422 C222.382812,9.0730771 222.547524,8.67562014 222.876953,8.34619141 C223.206382,8.01676268 223.603839,7.85205078 224.069336,7.85205078 C224.534833,7.85205078 224.933185,8.0158675 225.264404,8.34350586 C225.595623,8.67114422 225.76123,9.06412531 225.76123,9.52246094 L225.76123,10.4355469 L227.351074,10.4355469 L227.351074,9.52246094 C227.351074,9.06412531 227.516681,8.67114422 227.8479,8.34350586 C228.179119,8.0158675 228.577472,7.85205078 229.042969,7.85205078 C229.512047,7.85205078 229.910399,8.01676268 230.238037,8.34619141 C230.565675,8.67562014 230.729492,9.0730771 230.729492,9.53857422 C230.729492,10.0004906 230.565675,10.3979476 230.238037,10.730957 C229.910399,11.0639665 229.517418,11.2304688 229.059082,11.2304688 L228.145996,11.2304688 L228.145996,12.8203125 L229.059082,12.8203125 C229.517418,12.8203125 229.910399,12.9868147 230.238037,13.3198242 C230.565675,13.6528337 230.729492,14.0485003 230.729492,14.5068359 C230.729492,14.9759138 230.565675,15.3751611 230.238037,15.7045898 C229.910399,16.0340186 229.512047,16.1987305 229.042969,16.1987305 C228.577472,16.1987305 228.179119,16.0349137 227.8479,15.7072754 C227.516681,15.379637 227.351074,14.9866559 227.351074,14.5283203 L227.351074,13.6152344 L225.76123,13.6152344 Z M224.966309,10.4355469 L224.966309,9.53857422 C224.966309,9.29150267 224.878582,9.08113694 224.703125,8.9074707 C224.527668,8.73380447 224.316407,8.64697266 224.069336,8.64697266 C223.825845,8.64697266 223.616375,8.73380447 223.440918,8.9074707 C223.265461,9.08113694 223.177734,9.29150267 223.177734,9.53857422 C223.177734,9.78564577 223.265461,9.99690667 223.440918,10.1723633 C223.616375,10.3478199 223.827635,10.4355469 224.074707,10.4355469 L224.966309,10.4355469 Z M224.966309,13.6152344 L224.074707,13.6152344 C223.827635,13.6152344 223.616375,13.7029614 223.440918,13.878418 C223.265461,14.0538746 223.177734,14.2633451 223.177734,14.5068359 C223.177734,14.7539075 223.265461,14.9651684 223.440918,15.140625 C223.616375,15.3160816 223.827635,15.4038086 224.074707,15.4038086 C224.318198,15.4038086 224.527668,15.3160816 224.703125,15.140625 C224.878582,14.9651684 224.966309,14.7556978 224.966309,14.512207 L224.966309,13.6152344 Z M228.145996,10.4355469 L229.042969,10.4355469 C229.28646,10.4355469 229.49593,10.3478199 229.671387,10.1723633 C229.846843,9.99690667 229.93457,9.78564577 229.93457,9.53857422 C229.93457,9.29150267 229.847738,9.08113694 229.674072,8.9074707 C229.500406,8.73380447 229.29004,8.64697266 229.042969,8.64697266 C228.795897,8.64697266 228.584636,8.73380447 228.40918,8.9074707 C228.233723,9.08113694 228.145996,9.29150267 228.145996,9.53857422 L228.145996,10.4355469 Z M228.145996,13.6152344 L228.145996,14.512207 C228.145996,14.7556978 228.233723,14.9651684 228.40918,15.140625 C228.584636,15.3160816 228.795897,15.4038086 229.042969,15.4038086 C229.29004,15.4038086 229.500406,15.3160816 229.674072,15.140625 C229.847738,14.9651684 229.93457,14.7539075 229.93457,14.5068359 C229.93457,14.2633451 229.846843,14.0538746 229.671387,13.878418 C229.49593,13.7029614 229.28646,13.6152344 229.042969,13.6152344 L228.145996,13.6152344 Z M232.894043,8.10986328 L234.15625,8.10986328 L238.141602,14.5014648 L238.141602,8.10986328 L239.156738,8.10986328 L239.156738,16 L237.958984,16 L233.914551,9.61376953 L233.914551,16 L232.894043,16 L232.894043,8.10986328 Z"/>
      <path fill="#000" d="M48.53125,17 L47.2236328,17 L42.5390625,9.74462891 C42.4205723,9.56266185 42.3232426,9.37223407 42.2470703,9.17333984 L42.2089844,9.17333984 C42.2428387,9.36800228 42.2597656,9.78482753 42.2597656,10.4238281 L42.2597656,17 L41.1933594,17 L41.1933594,7.89746094 L42.5771484,7.89746094 L47.1347656,15.0385742 C47.3251963,15.3347997 47.4479164,15.5379226 47.5029297,15.6479492 L47.5283203,15.6479492 C47.4860024,15.3855781 47.4648438,14.9391308 47.4648438,14.3085938 L47.4648438,7.89746094 L48.53125,7.89746094 L48.53125,17 Z M55.9024414,14.0102539 L51.3130859,14.0102539 C51.3300131,14.7338903 51.5246726,15.2924785 51.8970703,15.6860352 C52.269468,16.0795918 52.7815072,16.2763672 53.4332031,16.2763672 C54.1653031,16.2763672 54.838148,16.0351587 55.4517578,15.5527344 L55.4517578,16.5302734 C54.8804659,16.9449891 54.1251024,17.1523438 53.1856445,17.1523438 C52.2673457,17.1523438 51.545836,16.8571807 51.0210937,16.2668457 C50.4963515,15.6765107 50.2339844,14.846034 50.2339844,13.7753906 C50.2339844,12.7639923 50.520684,11.9398632 51.0940918,11.3029785 C51.6674996,10.6660938 52.3794879,10.3476562 53.2300781,10.3476562 C54.0806683,10.3476562 54.7387021,10.6227186 55.2041992,11.1728516 C55.6696963,11.7229845 55.9024414,12.4868115 55.9024414,13.4643555 L55.9024414,14.0102539 Z M54.8360352,13.1279297 C54.8318034,12.5270152 54.6868667,12.0594092 54.4012207,11.7250977 C54.1155747,11.3907861 53.7188502,11.2236328 53.2110352,11.2236328 C52.7201473,11.2236328 52.303322,11.3992495 51.9605469,11.7504883 C51.6177717,12.101727 51.4061853,12.5608696 51.3257812,13.1279297 L54.8360352,13.1279297 Z M65.5651367,10.5 L63.6164062,17 L62.5373047,17 L61.1979492,12.347168 C61.1471677,12.1694327 61.1133139,11.9684256 61.0963867,11.7441406 L61.0709961,11.7441406 C61.0583007,11.8964851 61.0138676,12.0932605 60.9376953,12.3344727 L59.484082,17 L58.4430664,17 L56.475293,10.5 L57.5670898,10.5 L58.912793,15.3876953 C58.9551109,15.535808 58.984733,15.7304675 59.0016602,15.9716797 L59.0524414,15.9716797 C59.0651368,15.7854808 59.1032223,15.5865896 59.1666992,15.375 L60.6647461,10.5 L61.6168945,10.5 L62.9625977,15.4003906 C63.0049156,15.5569669 63.0366535,15.7516264 63.0578125,15.984375 L63.1085937,15.984375 C63.1170573,15.8193351 63.153027,15.6246756 63.2165039,15.4003906 L64.5368164,10.5 L65.5651367,10.5 Z M81.0628906,7.89746094 L78.4920898,17 L77.2416016,17 L75.369043,10.3476562 C75.2886389,10.0641262 75.239974,9.75521 75.2230469,9.42089844 L75.1976562,9.42089844 C75.1722655,9.73405104 75.117253,10.0387355 75.0326172,10.3349609 L73.1473633,17 L71.9095703,17 L69.2435547,7.89746094 L70.4178711,7.89746094 L72.3539062,14.8798828 C72.4343103,15.1718765 72.485091,15.4765609 72.50625,15.7939453 L72.5379883,15.7939453 C72.5591472,15.5696603 72.624739,15.2649759 72.7347656,14.8798828 L74.7469727,7.89746094 L75.7689453,7.89746094 L77.6986328,14.9306641 C77.7663415,15.1718762 77.8171222,15.455402 77.8509766,15.78125 L77.8763672,15.78125 C77.8932943,15.5611968 77.9504227,15.2692075 78.0477539,14.9052734 L79.9076172,7.89746094 L81.0628906,7.89746094 Z M82.7084961,8.84960938 C82.5222972,8.84960938 82.3636074,8.78613345 82.2324219,8.65917969 C82.1012363,8.53222593 82.0356445,8.37142024 82.0356445,8.17675781 C82.0356445,7.98209538 82.1012363,7.82023177 82.2324219,7.69116211 C82.3636074,7.56209245 82.5222972,7.49755859 82.7084961,7.49755859 C82.8989267,7.49755859 83.0607903,7.56209245 83.1940918,7.69116211 C83.3273932,7.82023177 83.394043,7.98209538 83.394043,8.17675781 C83.394043,8.36295666 83.3273932,8.52164648 83.1940918,8.65283203 C83.0607903,8.78401758 82.8989267,8.84960938 82.7084961,8.84960938 Z M83.2163086,17 L82.175293,17 L82.175293,10.5 L83.2163086,10.5 L83.2163086,17 Z M90.6192383,17 L89.5782226,17 L89.5782226,13.2929688 C89.5782226,11.9134046 89.074647,11.2236328 88.0674805,11.2236328 C87.54697,11.2236328 87.1163917,11.4193503 86.7757324,11.810791 C86.4350732,12.2022318 86.2647461,12.6962861 86.2647461,13.2929688 L86.2647461,17 L85.2237305,17 L85.2237305,10.5 L86.2647461,10.5 L86.2647461,11.5791016 L86.2901367,11.5791016 C86.7810246,10.7581339 87.491955,10.3476562 88.4229492,10.3476562 C89.1338903,10.3476562 89.6776674,10.5772275 90.0542969,11.036377 C90.4309264,11.4955264 90.6192383,12.1588498 90.6192383,13.0263672 L90.6192383,17 Z M98.0285156,17 L96.9875,17 L96.9875,15.8955078 L96.9621094,15.8955078 C96.4796851,16.7334026 95.7349009,17.1523438 94.7277344,17.1523438 C93.9109985,17.1523438 93.2582544,16.8614124 92.7694824,16.279541 C92.2807104,15.6976696 92.0363281,14.9052785 92.0363281,13.9023438 C92.0363281,12.8274686 92.3071587,11.9663118 92.8488281,11.3188477 C93.3904975,10.6713835 94.1120072,10.3476562 95.0133789,10.3476562 C95.906287,10.3476562 96.5558573,10.6988897 96.9621094,11.4013672 L96.9875,11.4013672 L96.9875,7.37695312 L98.0285156,7.37695312 L98.0285156,17 Z M96.9875,14.0610352 L96.9875,13.1025391 C96.9875,12.5777969 96.8139991,12.1334654 96.4669922,11.7695312 C96.1199852,11.4055971 95.6798855,11.2236328 95.1466797,11.2236328 C94.5119109,11.2236328 94.0125669,11.4563779 93.6486328,11.921875 C93.2846987,12.3873721 93.1027344,13.0305949 93.1027344,13.8515625 C93.1027344,14.6005897 93.2772932,15.1919737 93.626416,15.6257324 C93.9755388,16.0594911 94.4442028,16.2763672 95.0324219,16.2763672 C95.6121774,16.2763672 96.0829572,16.0668966 96.4447754,15.6479492 C96.8065936,15.2290018 96.9875,14.7000357 96.9875,14.0610352 Z M102.752734,17.1523438 C101.792118,17.1523438 101.025117,16.8487172 100.451709,16.2414551 C99.8783012,15.6341929 99.5916016,14.8291066 99.5916016,13.8261719 C99.5916016,12.7343695 99.8899384,11.8816762 100.486621,11.2680664 C101.083304,10.6544566 101.889448,10.3476562 102.905078,10.3476562 C103.874158,10.3476562 104.63058,10.6459931 105.174365,11.2426758 C105.71815,11.8393585 105.990039,12.6666614 105.990039,13.7246094 C105.990039,14.7613984 105.696992,15.5918751 105.110889,16.2160645 C104.524785,16.8402538 103.738742,17.1523438 102.752734,17.1523438 Z M102.828906,11.2236328 C102.160283,11.2236328 101.631317,11.4510882 101.241992,11.9060059 C100.852667,12.3609235 100.658008,12.9882773 100.658008,13.7880859 C100.658008,14.5582721 100.854783,15.1655251 101.24834,15.6098633 C101.641896,16.0542014 102.168747,16.2763672 102.828906,16.2763672 C103.501761,16.2763672 104.01909,16.0584332 104.380908,15.6225586 C104.742726,15.186684 104.923633,14.5667358 104.923633,13.7626953 C104.923633,12.9501912 104.742726,12.3238954 104.380908,11.8837891 C104.01909,11.4436827 103.501761,11.2236328 102.828906,11.2236328 Z M115.741602,10.5 L113.792871,17 L112.71377,17 L111.374414,12.347168 C111.323633,12.1694327 111.289779,11.9684256 111.272852,11.7441406 L111.247461,11.7441406 C111.234766,11.8964851 111.190332,12.0932605 111.11416,12.3344727 L109.660547,17 L108.619531,17 L106.651758,10.5 L107.743555,10.5 L109.089258,15.3876953 C109.131576,15.535808 109.161198,15.7304675 109.178125,15.9716797 L109.228906,15.9716797 C109.241602,15.7854808 109.279687,15.5865896 109.343164,15.375 L110.841211,10.5 L111.793359,10.5 L113.139062,15.4003906 C113.18138,15.5569669 113.213118,15.7516264 113.234277,15.984375 L113.285059,15.984375 C113.293522,15.8193351 113.329492,15.6246756 113.392969,15.4003906 L114.713281,10.5 L115.741602,10.5 Z"/>
      <g fill="#0C0C0D" fill-rule="nonzero" transform="translate(16 4.5)">
        <path d="M15.5,12 L13,12 L13,9.5 C13,9.22385763 12.7761424,9 12.5,9 C12.2238576,9 12,9.22385763 12,9.5 L12,12 L9.5,12 C9.22385763,12 9,12.2238576 9,12.5 C9,12.7761424 9.22385763,13 9.5,13 L12,13 L12,15.5 C12,15.7761424 12.2238576,16 12.5,16 C12.7761424,16 13,15.7761424 13,15.5 L13,13 L15.5,13 C15.7761424,13 16,12.7761424 16,12.5 C16,12.2238576 15.7761424,12 15.5,12 Z"/>
        <path d="M16,4 C16,2.34314575 14.6568542,1 13,1 L3,1 C1.34314575,1 2.02906125e-16,2.34314575 0,4 L0,12 C2.02906125e-16,13.6568542 1.34314575,15 3,15 L7.03,15 L7.03,14.994 C7.56642825,14.9769791 7.9924762,14.5371982 7.9924762,14.0005 C7.9924762,13.4638018 7.56642825,13.0240209 7.03,13.007 L7.03,13 L3,13 C2.44771525,13 2,12.5522847 2,12 L2,6 L14,6 L14,7.952 L14.01,7.952 C14.01,7.969 14,7.983 14,8 C14,8.55228475 14.4477153,9 15,9 C15.5522847,9 16,8.55228475 16,8 C16,7.983 15.991,7.969 15.99,7.952 L16,7.952 L16,4 Z M2,5 L2,4 C2,3.44771525 2.44771525,3 3,3 L13,3 C13.5522847,3 14,3.44771525 14,4 L14,5 L2,5 Z"/>
      </g>
    </g>
    <g transform="translate(0 39)">
      <rect width="256" height="13"/>
      <rect width="256" height="1" y="6" fill="#0C0C0D" fill-opacity=".1"/>
    </g>
  </g>
</svg>
