<svg xmlns="http://www.w3.org/2000/svg" style="background:#272727" viewBox="0 0 360 240"><g fill="none" fill-rule="evenodd"><path fill="#535353" fill-rule="nonzero" d="M206.45 93c-9.97 0-16.87-12-26.45-12-9.57 0-17.06 12-26.45 12-12.3 0-21.4-11.66-21.55-31.64-.09-12.4 3.63-16.36 19.6-16.36 15.96 0 20.66 6.54 28.4 6.54 7.74 0 12.43-6.54 28.4-6.54 15.98 0 19.69 3.96 19.6 16.36-.15 19.98-9.24 31.64-21.55 31.64zM159.5 60.1c-9.56.43-13.5 6.13-13.5 7.53 0 1.4 6.34 5.37 12.54 5.37 6.2 0 13.46-2.27 13.46-4.3a11.24 11.24 0 0 0-12.5-8.6zm41.02.02A11.23 11.23 0 0 0 188 68.7c0 2.02 7.3 4.29 13.48 4.29 6.19 0 12.52-3.97 12.52-5.37s-3.95-7.1-13.52-7.51h.04z"/><path fill="#FFFFFF" d="M108.93 119.13a4.53 4.53 0 0 1 1.76 1.76c.42.76.63 1.62.63 2.58a5.2 5.2 0 0 1-.64 2.6 4.54 4.54 0 0 1-1.77 1.76c-.76.43-1.61.64-2.57.64h-3.9V134h-1.94v-15.5h5.86c.96 0 1.81.21 2.57.63zm-3.08 7.62c1.1 0 1.96-.29 2.57-.87.61-.57.91-1.38.91-2.4 0-1.04-.3-1.84-.9-2.4a3.61 3.61 0 0 0-2.58-.86h-3.41v6.53h3.41zm9.41-4.33v1.88h.04c.17-.6.51-1.1 1.02-1.45.51-.36 1.1-.54 1.79-.54a4 4 0 0 1 .77.07v1.83a5.5 5.5 0 0 0-1.02-.1 2.28 2.28 0 0 0-2.18 1.3c-.2.41-.31.89-.31 1.42V134h-1.87v-11.58h1.76zm5.62-2.22a1.14 1.14 0 0 1-.35-.83c0-.33.12-.61.35-.84.23-.23.5-.34.83-.34.33 0 .61.11.84.34.23.23.34.51.34.84 0 .32-.11.6-.34.83-.23.23-.5.35-.84.35-.32 0-.6-.12-.83-.35zm1.77 2.22V134h-1.87v-11.58h1.87zm6.12 11.58l-4.28-11.58h1.95l3.25 9.56h.04l3.26-9.56h1.94L130.66 134h-1.9zm9.02-.32a3.25 3.25 0 0 1-1.38-1.19 3.26 3.26 0 0 1-.48-1.79c0-1 .37-1.78 1.11-2.35.75-.56 1.82-.9 3.23-.98l3.24-.2v-.96c0-.71-.23-1.27-.69-1.65a2.97 2.97 0 0 0-1.96-.58 2.9 2.9 0 0 0-1.7.48c-.47.32-.76.76-.87 1.3h-1.8c.02-.64.22-1.23.62-1.76a4 4 0 0 1 1.58-1.24c.66-.3 1.4-.45 2.19-.45.9 0 1.7.16 2.37.46.68.31 1.2.75 1.58 1.31.36.56.55 1.22.55 1.97V134h-1.77v-2h-.05a3.69 3.69 0 0 1-1.5 1.53c-.67.39-1.41.58-2.22.58-.78 0-1.46-.14-2.05-.43zm4.12-1.57c.5-.25.9-.6 1.18-1.04.28-.44.42-.93.42-1.47v-.94l-3.03.2a3.9 3.9 0 0 0-1.98.55 1.5 1.5 0 0 0-.66 1.3c0 .54.21.97.65 1.3.43.31 1.01.48 1.74.48.63 0 1.19-.13 1.68-.38zm8.63-9.69h2.26v1.55h-2.26v6.95c0 .53.12.92.35 1.17.23.25.6.37 1.1.37a6.04 6.04 0 0 0 .8-.05v1.58a3.89 3.89 0 0 1-2.9-.21c-.42-.21-.73-.54-.93-.99a4.62 4.62 0 0 1-.29-1.8v-7.02h-1.6v-1.55h1.6v-2.61h1.87v2.61zm12.92 10.03c-.45.52-1.02.92-1.71 1.22-.7.3-1.45.44-2.26.44a5.38 5.38 0 0 1-2.81-.72 4.75 4.75 0 0 1-1.85-2.03 6.96 6.96 0 0 1-.65-3.1c0-1.19.21-2.23.64-3.13a4.85 4.85 0 0 1 4.58-2.82c1.02 0 1.91.23 2.67.69a4.51 4.51 0 0 1 1.75 1.97c.4.86.6 1.86.6 3.03v.73h-8.3v.1c0 .73.13 1.36.42 1.92.28.55.68.97 1.2 1.27.51.3 1.1.44 1.79.44.72 0 1.35-.16 1.87-.47.53-.32.88-.75 1.04-1.3h1.85c-.11.65-.39 1.24-.83 1.76zm-5.7-8.09c-.48.28-.87.66-1.15 1.16a3.9 3.9 0 0 0-.5 1.71h6.37a3.76 3.76 0 0 0-.42-1.72c-.26-.49-.63-.87-1.1-1.15-.46-.27-.99-.4-1.6-.4-.6 0-1.13.13-1.6.4zm14.53-5.86h6.07c.88 0 1.65.16 2.32.48.68.32 1.2.78 1.57 1.36a3.68 3.68 0 0 1-.77 4.78c-.4.33-.86.54-1.34.63v.09c.69.08 1.3.3 1.82.64s.93.79 1.21 1.33c.28.55.42 1.16.42 1.84 0 .9-.2 1.68-.62 2.33a3.97 3.97 0 0 1-1.8 1.5c-.8.35-1.73.52-2.83.52h-6.05v-15.5zm5.03 6.68a4.4 4.4 0 0 0 2.63-.67c.6-.44.9-1.08.9-1.92 0-.76-.25-1.35-.76-1.77a3.37 3.37 0 0 0-2.17-.61h-3.7v4.97h3.1zm3.38 6.41c.6-.46.9-1.14.9-2.04 0-.9-.3-1.57-.93-2.02a4.75 4.75 0 0 0-2.8-.68h-3.64v5.44h3.82c1.17 0 2.05-.23 2.65-.7zm6.81-9.17v1.88h.04c.18-.6.52-1.1 1.02-1.45.51-.36 1.1-.54 1.79-.54a4 4 0 0 1 .77.07v1.83a5.5 5.5 0 0 0-1.02-.1 2.28 2.28 0 0 0-2.18 1.3c-.2.41-.31.89-.31 1.42V134h-1.87v-11.58h1.76zm6.82 10.96a4.81 4.81 0 0 1-1.86-2.05 6.98 6.98 0 0 1-.66-3.12c0-1.19.22-2.23.66-3.12a4.81 4.81 0 0 1 1.86-2.05c.8-.49 1.75-.73 2.82-.73 1.08 0 2.02.24 2.82.73.8.48 1.43 1.17 1.87 2.05.43.9.65 1.93.65 3.12 0 1.19-.22 2.23-.65 3.12a4.81 4.81 0 0 1-1.87 2.05c-.8.49-1.74.73-2.82.73a5.37 5.37 0 0 1-2.82-.73zm4.67-1.44c.52-.34.91-.82 1.18-1.46.27-.63.41-1.39.41-2.27 0-.88-.14-1.64-.4-2.27a3.18 3.18 0 0 0-1.19-1.46 3.3 3.3 0 0 0-1.85-.5 3.3 3.3 0 0 0-1.84.5c-.52.34-.91.82-1.19 1.46-.27.63-.4 1.39-.4 2.27 0 .88.13 1.64.4 2.27.29.64.68 1.12 1.2 1.46.51.33 1.12.5 1.83.5a3.3 3.3 0 0 0 1.85-.5zm15.18 2.06l-2.65-9h-.04l-2.64 9h-1.9l-3.24-11.58h1.85l2.35 9.46h.05l2.65-9.46h1.8l2.66 9.46h.04l2.35-9.46h1.85L216.07 134h-1.9zm7.27-10.07c.37-.5.88-.9 1.52-1.18a5.5 5.5 0 0 1 2.22-.43c.78 0 1.48.15 2.11.43.64.29 1.14.69 1.51 1.19.38.5.57 1.07.6 1.7h-1.8c-.06-.55-.3-.98-.75-1.3a2.92 2.92 0 0 0-1.73-.47c-.47 0-.9.07-1.25.21-.36.14-.64.34-.84.59-.2.25-.3.55-.3.89 0 .4.16.72.48.99.32.27.81.49 1.48.65l1.76.44c.79.2 1.41.43 1.88.7.46.26.79.59 1 .97.2.38.3.85.3 1.42 0 .66-.2 1.24-.59 1.75-.39.51-.93.91-1.62 1.2-.7.28-1.49.43-2.37.43a5.6 5.6 0 0 1-2.21-.42 3.9 3.9 0 0 1-1.58-1.18c-.4-.51-.63-1.1-.69-1.76h1.88c.1.58.38 1.03.85 1.34.47.31 1.1.47 1.88.47.8 0 1.42-.15 1.88-.46.46-.3.69-.71.69-1.24 0-.4-.14-.73-.4-.97a3.5 3.5 0 0 0-1.4-.62l-2.03-.52a4.8 4.8 0 0 1-2.28-1.17 2.66 2.66 0 0 1-.74-1.93c0-.64.18-1.22.54-1.72zm10.63-3.73a1.14 1.14 0 0 1-.35-.83c0-.33.12-.61.35-.84.23-.23.51-.34.83-.34.33 0 .61.11.84.34.23.23.34.51.34.84 0 .32-.11.6-.34.83-.23.23-.5.35-.84.35-.32 0-.6-.12-.83-.35zm1.77 2.22V134h-1.87v-11.58h1.87zm4.6 0v1.88h.04c.38-.67.86-1.16 1.46-1.5.6-.32 1.34-.49 2.22-.49.84 0 1.56.17 2.16.52.6.34 1.07.83 1.38 1.48.32.64.48 1.4.48 2.27V134h-1.87v-7.1c0-.95-.23-1.68-.68-2.18-.45-.5-1.13-.74-2.03-.74-.62 0-1.17.13-1.63.4-.46.28-.81.66-1.06 1.16a3.9 3.9 0 0 0-.36 1.74V134h-1.87v-11.58h1.76zm12.8 15.32a4.25 4.25 0 0 1-1.68-1.12 3.07 3.07 0 0 1-.78-1.67h1.95c.13.48.47.86 1 1.14.53.28 1.18.42 1.95.42.66 0 1.24-.1 1.73-.32.5-.22.87-.53 1.14-.94.26-.4.4-.88.4-1.42V132h-.05a3.78 3.78 0 0 1-1.52 1.47c-.65.35-1.38.52-2.2.52a4.58 4.58 0 0 1-4.28-2.78c-.4-.88-.61-1.9-.61-3.05 0-1.17.2-2.2.61-3.08.4-.89.99-1.57 1.74-2.05a4.67 4.67 0 0 1 2.59-.73c.82 0 1.55.17 2.2.52.66.34 1.18.83 1.57 1.47h.03v-1.88h1.79v11.26a4.08 4.08 0 0 1-2.45 3.92 6.7 6.7 0 0 1-2.8.54c-.86 0-1.64-.14-2.33-.4zm4.07-5.93c.52-.35.92-.84 1.2-1.47a5.2 5.2 0 0 0 .44-2.17c0-.83-.15-1.56-.43-2.19a3.46 3.46 0 0 0-1.2-1.48 3.08 3.08 0 0 0-1.78-.52 3.05 3.05 0 0 0-2.93 1.98 5.5 5.5 0 0 0-.41 2.2c0 .84.14 1.57.41 2.2a3.05 3.05 0 0 0 2.93 1.98c.67 0 1.26-.18 1.77-.53zM71.66 158.02h7.27v1.35h-5.78v4.11h5.3v1.33h-5.3V170h-1.49v-11.98zm9.34.92a.96.96 0 0 1-.3-.7c0-.28.1-.51.3-.7.2-.2.43-.3.7-.3.28 0 .51.1.7.3.2.19.3.42.3.7 0 .27-.1.5-.3.7-.19.2-.42.3-.7.3-.27 0-.5-.1-.7-.3zm1.42 2.11V170h-1.43v-8.95h1.43zm3.83 0v1.33h.13c.1-.29.26-.54.5-.77.24-.22.53-.4.88-.53.34-.12.71-.19 1.1-.19.28 0 .51.02.72.05v1.42l-.4-.05-.51-.03c-.45 0-.85.1-1.21.28a2.08 2.08 0 0 0-1.14 1.9V170h-1.43v-8.95h1.36zm10.65 8.45c-.66.44-1.48.66-2.45.66a3.67 3.67 0 0 1-3.54-2.17 5.72 5.72 0 0 1-.5-2.46c0-.93.17-1.74.5-2.44a3.74 3.74 0 0 1 3.54-2.2 3.51 3.51 0 0 1 3.42 2.1c.3.69.47 1.48.47 2.4v.55H91.9v.07c.02.58.15 1.1.36 1.53.22.43.52.77.9 1 .38.24.82.36 1.32.36.58 0 1.06-.1 1.45-.31.39-.2.67-.5.86-.9h1.43a3.1 3.1 0 0 1-1.32 1.81zm-3.73-7.02c-.37.22-.66.53-.89.93-.22.4-.34.85-.38 1.38h4.93a3.15 3.15 0 0 0-.32-1.38 2.26 2.26 0 0 0-2.08-1.25c-.47 0-.89.1-1.26.32zm6.27-.23v-1.2h1.48v-.87c0-.9.23-1.55.68-1.97.45-.42 1.12-.63 2-.63.26 0 .55.03.89.09v1.19c-.23-.05-.5-.07-.8-.07-.9 0-1.34.47-1.34 1.43v.83h2.05v1.2h-2.05V170h-1.43v-7.75h-1.48zm7.9 7.35c-.63-.38-1.1-.91-1.44-1.6-.33-.7-.5-1.52-.5-2.47 0-.96.17-1.78.5-2.48.34-.7.81-1.23 1.43-1.6a4.2 4.2 0 0 1 2.2-.56c.85 0 1.58.19 2.2.56.62.37 1.1.9 1.43 1.6.33.7.5 1.52.5 2.48 0 .95-.17 1.77-.5 2.47-.33.69-.81 1.22-1.43 1.6-.63.37-1.36.56-2.2.56-.84 0-1.57-.19-2.2-.56zm4.15-1.6c.46-.59.69-1.41.69-2.47a3.9 3.9 0 0 0-.69-2.47 2.35 2.35 0 0 0-1.96-.88c-.85 0-1.5.3-1.96.88a3.9 3.9 0 0 0-.69 2.47c0 1.06.23 1.88.7 2.47.45.58 1.1.87 1.95.87.85 0 1.5-.3 1.96-.87zm4.66 2h-1.62l3.06-4.47-3.1-4.48h1.7l2.13 3.33h.13l2.1-3.33h1.62l-3.04 4.42 3.08 4.53h-1.69l-2.12-3.38h-.13l-2.12 3.38zm19.6 0l-2-6.92h-.12l-2 6.92h-1.44l-2.5-8.95h1.44l1.76 7.16h.13l2-7.16h1.37l2 7.16h.13l1.76-7.16h1.44l-2.5 8.95h-1.46zm6.78-.4c-.63-.38-1.1-.91-1.43-1.6-.34-.7-.5-1.52-.5-2.47 0-.96.16-1.78.5-2.48.33-.7.8-1.23 1.42-1.6a4.2 4.2 0 0 1 2.2-.56c.85 0 1.58.19 2.2.56.62.37 1.1.9 1.43 1.6.33.7.5 1.52.5 2.48 0 .95-.17 1.77-.5 2.47-.33.69-.8 1.22-1.43 1.6-.62.37-1.36.56-2.2.56-.84 0-1.57-.19-2.2-.56zm4.15-1.6c.46-.59.7-1.41.7-2.47a3.9 3.9 0 0 0-.7-2.47 2.35 2.35 0 0 0-1.96-.88c-.84 0-1.5.3-1.96.88a3.9 3.9 0 0 0-.69 2.47c0 1.06.23 1.88.7 2.47.45.58 1.1.87 1.95.87.85 0 1.5-.3 1.96-.87zm5.52-6.95v1.41h.13c.24-.5.58-.9 1.02-1.16.45-.27 1-.4 1.67-.4 1 0 1.78.28 2.32.85.54.58.81 1.4.81 2.46V170h-1.43v-5.45c0-.8-.17-1.4-.51-1.78-.35-.4-.88-.59-1.6-.59-.47 0-.88.1-1.23.3-.36.2-.63.5-.82.88-.2.38-.3.83-.3 1.34v5.3h-1.42v-8.95h1.36zm8.62.55v-.61c.27-.08.47-.27.6-.58.13-.31.2-.75.2-1.3v-.17h-.8v-2.05h2.05v1.78c0 .91-.17 1.61-.51 2.1-.34.49-.85.76-1.54.83zm6.84-.55h2v1.2h-2v5.06c0 .53.1.9.32 1.15.2.23.55.35 1.01.35.2 0 .43 0 .67-.03v1.2c-.32.06-.6.09-.84.09-.62 0-1.12-.08-1.5-.24a1.58 1.58 0 0 1-.82-.77 3.12 3.12 0 0 1-.26-1.38v-5.43h-1.45v-1.2h1.45v-2.31h1.42v2.31zm9.81 0v1.33h.14c.08-.29.25-.54.49-.77.24-.22.53-.4.88-.53.35-.12.71-.19 1.1-.19.28 0 .52.02.72.05v1.42l-.4-.05-.51-.03c-.45 0-.85.1-1.2.28a2.08 2.08 0 0 0-1.15 1.9V170h-1.43v-8.95h1.36zm10.66 8.45c-.67.44-1.48.66-2.46.66a3.67 3.67 0 0 1-3.54-2.17 5.72 5.72 0 0 1-.5-2.46c0-.93.17-1.74.5-2.44a3.74 3.74 0 0 1 3.54-2.2 3.51 3.51 0 0 1 3.42 2.1c.31.69.47 1.48.47 2.4v.55h-6.44v.07c.03.58.15 1.1.37 1.53.21.43.51.77.9 1 .37.24.81.36 1.32.36.57 0 1.05-.1 1.44-.31.39-.2.68-.5.86-.9h1.43a3.1 3.1 0 0 1-1.31 1.81zm-3.74-7.02c-.37.22-.66.53-.88.93-.22.4-.35.85-.39 1.38h4.94a3.15 3.15 0 0 0-.32-1.38 2.26 2.26 0 0 0-2.08-1.25c-.47 0-.9.1-1.27.32zm8.52-1.43v1.41h.13c.2-.5.53-.88.96-1.16.43-.27.94-.4 1.54-.4.59 0 1.1.14 1.52.42.42.28.74.66.96 1.14h.13c.24-.48.6-.86 1.1-1.14a3.22 3.22 0 0 1 1.64-.43c.91 0 1.61.26 2.1.76.5.51.74 1.23.74 2.17V170h-1.42v-5.85c0-.66-.16-1.15-.47-1.48-.31-.33-.79-.49-1.42-.49-.4 0-.76.1-1.08.28-.31.18-.56.43-.73.75a2.1 2.1 0 0 0-.26 1.04V170h-1.43v-6.08c0-.53-.17-.95-.51-1.27-.34-.31-.8-.47-1.36-.47-.38 0-.73.1-1.05.3-.32.2-.57.48-.75.83-.18.35-.27.73-.27 1.15V170h-1.43v-8.95h1.36zm19.22 8.45c-.66.44-1.48.66-2.45.66a3.67 3.67 0 0 1-3.54-2.17 5.72 5.72 0 0 1-.5-2.46c0-.93.17-1.74.5-2.44a3.74 3.74 0 0 1 3.54-2.2 3.51 3.51 0 0 1 3.42 2.1c.3.69.46 1.48.46 2.4v.55h-6.43v.07c.02.58.14 1.1.36 1.53.22.43.52.77.9 1 .38.24.82.36 1.32.36.58 0 1.06-.1 1.44-.31.4-.2.68-.5.87-.9h1.43a3.1 3.1 0 0 1-1.32 1.81zm-3.73-7.02c-.37.22-.67.53-.89.93-.22.4-.35.85-.38 1.38h4.93a3.15 3.15 0 0 0-.32-1.38 2.26 2.26 0 0 0-2.08-1.25c-.47 0-.9.1-1.26.32zm8.51-1.43v1.41h.14c.2-.5.52-.88.95-1.16.43-.27.95-.4 1.55-.4.58 0 1.09.14 1.51.42.42.28.74.66.96 1.14h.13c.25-.48.61-.86 1.1-1.14a3.22 3.22 0 0 1 1.64-.43c.91 0 1.62.26 2.11.76.5.51.74 1.23.74 2.17V170h-1.43v-5.85c0-.66-.16-1.15-.47-1.48-.31-.33-.78-.49-1.41-.49-.4 0-.77.1-1.08.28-.32.18-.56.43-.74.75a2.1 2.1 0 0 0-.26 1.04V170h-1.43v-6.08c0-.53-.17-.95-.5-1.27-.35-.31-.8-.47-1.36-.47-.39 0-.74.1-1.05.3-.32.2-.57.48-.76.83-.18.35-.27.73-.27 1.15V170h-1.43v-8.95h1.36zm15.94 8.69a3 3 0 0 1-1.18-1.17h-.13V170h-1.36v-12.5h1.43v4.96h.13c.24-.48.62-.86 1.12-1.14a3.4 3.4 0 0 1 1.68-.43 3.44 3.44 0 0 1 3.3 2.2c.3.7.46 1.5.46 2.44 0 .92-.16 1.73-.47 2.43a3.45 3.45 0 0 1-3.29 2.2c-.62 0-1.18-.14-1.69-.42zm-.04-7.15c-.4.27-.7.66-.92 1.16-.21.5-.32 1.1-.32 1.78 0 .68.1 1.27.32 1.77s.52.9.92 1.16c.4.28.87.41 1.4.41.54 0 1.01-.13 1.4-.4.4-.26.69-.65.9-1.15.2-.5.3-1.1.3-1.8 0-.69-.1-1.28-.3-1.79-.21-.5-.5-.89-.9-1.15-.39-.27-.86-.4-1.4-.4-.53 0-1 .14-1.4.4zm13.52 6.91c-.67.44-1.48.66-2.46.66a3.67 3.67 0 0 1-3.54-2.17 5.72 5.72 0 0 1-.5-2.46c0-.93.17-1.74.5-2.44a3.74 3.74 0 0 1 3.54-2.2 3.51 3.51 0 0 1 3.42 2.1c.31.69.47 1.48.47 2.4v.55h-6.44v.07c.03.58.15 1.1.37 1.53.21.43.51.77.9 1 .37.24.81.36 1.32.36.57 0 1.05-.1 1.44-.31.39-.2.68-.5.86-.9h1.43a3.1 3.1 0 0 1-1.31 1.81zm-3.74-7.02c-.37.22-.66.53-.88.93-.22.4-.35.85-.39 1.38h4.94a3.15 3.15 0 0 0-.32-1.38 2.26 2.26 0 0 0-2.08-1.25c-.47 0-.9.1-1.27.32zm8.52-1.43v1.33h.13c.1-.29.26-.54.5-.77.24-.22.53-.4.88-.53.34-.12.71-.19 1.1-.19.28 0 .51.02.72.05v1.42l-.4-.05-.51-.03c-.45 0-.85.1-1.21.28a2.08 2.08 0 0 0-1.14 1.9V170h-1.43v-8.95h1.36zm10.35 8.78a2.57 2.57 0 0 1-1.08-.93c-.26-.4-.39-.87-.39-1.4 0-.8.28-1.43.85-1.88a4.17 4.17 0 0 1 2.41-.77l2.58-.16v-.82c0-.55-.17-.97-.51-1.27-.34-.29-.85-.44-1.51-.44-.54 0-.98.1-1.34.3-.35.19-.58.46-.68.82h-1.44c.06-.48.25-.9.56-1.26.32-.36.73-.63 1.24-.83.5-.2 1.08-.3 1.7-.3.73 0 1.34.12 1.85.36s.9.58 1.16 1.03c.27.44.4.97.4 1.6V170h-1.36v-1.32h-.13c-.29.48-.67.84-1.15 1.1-.47.25-1.01.38-1.6.38-.58 0-1.1-.11-1.56-.33zm3.12-1.22c.4-.2.7-.47.92-.8.22-.35.33-.73.33-1.15v-.82l-2.4.16a2.8 2.8 0 0 0-1.49.42c-.31.24-.47.59-.47 1.04 0 .45.17.8.5 1.06.34.26.78.38 1.3.38.49 0 .92-.1 1.31-.29zm6.43-7.56v1.41h.14c.23-.5.57-.9 1.01-1.16.45-.27 1-.4 1.68-.4 1 0 1.77.28 2.31.85.54.58.81 1.4.81 2.46V170h-1.42v-5.45c0-.8-.18-1.4-.52-1.78-.35-.4-.88-.59-1.6-.59-.47 0-.88.1-1.23.3-.35.2-.63.5-.82.88-.2.38-.3.83-.3 1.34v5.3h-1.42v-8.95h1.36zm8.1 12.14v-1.22c.15.02.35.04.6.04.42 0 .75-.11 1-.33.24-.22.46-.6.64-1.14l.17-.53-3.31-8.96h1.54l2.46 7.36h.13l2.45-7.36h1.52l-3.5 9.5c-.25.7-.52 1.24-.78 1.63-.27.38-.58.66-.93.82a3.89 3.89 0 0 1-1.98.2zm14.89-3.6c-.62-.37-1.1-.9-1.43-1.6-.33-.69-.5-1.51-.5-2.46 0-.96.17-1.78.5-2.48.33-.7.8-1.23 1.42-1.6a4.2 4.2 0 0 1 2.2-.56c.85 0 1.58.19 2.2.56.62.37 1.1.9 1.43 1.6.33.7.5 1.52.5 2.48 0 .95-.17 1.77-.5 2.47-.33.69-.8 1.22-1.43 1.6-.62.37-1.35.56-2.2.56-.84 0-1.57-.19-2.2-.56zm4.15-1.6c.46-.58.7-1.4.7-2.46a3.9 3.9 0 0 0-.7-2.47 2.35 2.35 0 0 0-1.96-.88c-.84 0-1.5.3-1.95.88a3.9 3.9 0 0 0-.7 2.47c0 1.06.24 1.88.7 2.47.45.58 1.1.87 1.95.87.85 0 1.5-.3 1.96-.87zm3.27-5.74v-1.2h1.49v-.87c0-.9.22-1.55.68-1.97.45-.42 1.11-.63 2-.63.25 0 .55.03.88.09v1.19c-.23-.05-.5-.07-.8-.07-.89 0-1.33.47-1.33 1.43v.83h2.05v1.2h-2.05V170h-1.43v-7.75h-1.49zM65.6 193.19v-1.22c.14.02.34.04.6.04.41 0 .74-.11.99-.33.25-.22.46-.6.65-1.14l.17-.53-3.32-8.96h1.55l2.46 7.36h.13l2.45-7.36h1.52l-3.5 9.5c-.26.7-.52 1.24-.79 1.63-.26.38-.57.66-.93.82a3.89 3.89 0 0 1-1.98.2zm10-3.6c-.62-.37-1.1-.9-1.43-1.6-.33-.69-.5-1.51-.5-2.46 0-.96.17-1.78.5-2.48.34-.7.81-1.23 1.43-1.6a4.2 4.2 0 0 1 2.2-.56c.85 0 1.58.19 2.2.56.62.37 1.1.9 1.43 1.6.33.7.5 1.52.5 2.48 0 .95-.17 1.77-.5 2.47-.33.69-.81 1.22-1.43 1.6-.63.37-1.36.56-2.2.56-.84 0-1.57-.19-2.2-.56zm4.16-1.6c.46-.58.69-1.4.69-2.46a3.9 3.9 0 0 0-.69-2.47 2.35 2.35 0 0 0-1.96-.88c-.85 0-1.5.3-1.96.88a3.9 3.9 0 0 0-.69 2.47c0 1.06.23 1.88.7 2.47.45.58 1.1.87 1.95.87.85 0 1.5-.3 1.96-.87zM89.78 190v-1.4h-.13c-.23.5-.57.89-1.04 1.16-.47.26-1.05.4-1.73.4-1 0-1.76-.29-2.28-.86-.52-.57-.78-1.39-.78-2.45v-5.8h1.43v5.45c0 .81.16 1.4.48 1.79.32.37.84.56 1.55.56.78 0 1.38-.22 1.8-.66.43-.44.64-1.05.64-1.84v-5.3h1.43V190h-1.37zm5.17-8.95v1.33h.13c.09-.29.25-.54.5-.77.23-.22.53-.4.87-.53.35-.12.72-.19 1.11-.19.27 0 .51.02.71.05v1.42l-.4-.05-.5-.03c-.46 0-.86.1-1.22.28a2.08 2.08 0 0 0-1.14 1.9V190h-1.43v-8.95h1.37zm10.92-3.55v4.96h.13c.23-.5.58-.89 1.04-1.16.47-.27 1.04-.4 1.72-.4.63 0 1.17.12 1.64.38.46.26.82.64 1.07 1.14.25.5.37 1.1.37 1.79V190h-1.42v-5.45c0-.79-.18-1.38-.53-1.78-.34-.4-.86-.59-1.54-.59-.53 0-.97.1-1.34.31-.38.2-.66.5-.85.89-.2.38-.3.82-.3 1.32v5.3h-1.42v-12.5h1.43zm8.38 1.44a.96.96 0 0 1-.3-.7c0-.28.1-.51.3-.7.2-.2.43-.3.7-.3.27 0 .51.1.7.3.2.19.3.42.3.7 0 .27-.1.5-.3.7-.19.2-.43.3-.7.3-.27 0-.5-.1-.7-.3zm1.41 2.11V190h-1.43v-8.95h1.43zm2.7 1.12c.3-.4.7-.7 1.2-.94.51-.22 1.08-.34 1.7-.34.62 0 1.18.1 1.66.3.5.2.88.47 1.18.83.3.36.47.79.53 1.27h-1.4c-.1-.36-.33-.65-.67-.86a2.43 2.43 0 0 0-1.3-.32c-.36 0-.68.05-.97.17-.28.11-.51.27-.68.47-.16.2-.25.43-.25.7 0 .3.13.55.38.75.25.2.64.37 1.18.5l1.37.33c.86.2 1.49.5 1.9.89.4.38.6.9.6 1.53 0 .53-.15 1-.47 1.4-.31.41-.74.73-1.28.96-.55.23-1.16.35-1.83.35-.66 0-1.25-.1-1.76-.3-.51-.2-.92-.48-1.23-.85-.3-.37-.48-.8-.53-1.3h1.47c.12.4.36.7.72.92.36.21.82.32 1.38.32.4 0 .75-.06 1.06-.17.32-.12.56-.29.74-.5.17-.2.26-.45.26-.72 0-.6-.47-1.03-1.42-1.26l-1.53-.38c-.85-.2-1.47-.5-1.86-.88-.39-.38-.58-.9-.58-1.54 0-.49.14-.93.43-1.33zm10.37-1.12h1.99v1.2h-2v5.06c0 .53.11.9.32 1.15.21.23.55.35 1.01.35.2 0 .43 0 .67-.03v1.2c-.32.06-.6.09-.84.09-.62 0-1.12-.08-1.5-.24a1.58 1.58 0 0 1-.82-.77 3.12 3.12 0 0 1-.26-1.38v-5.43h-1.45v-1.2h1.45v-2.31h1.43v2.31zm5.25 8.55c-.62-.38-1.1-.91-1.43-1.6-.33-.7-.5-1.52-.5-2.47 0-.96.17-1.78.5-2.48.33-.7.8-1.23 1.43-1.6a4.2 4.2 0 0 1 2.2-.56c.85 0 1.58.19 2.2.56.62.37 1.1.9 1.43 1.6.33.7.5 1.52.5 2.48 0 .95-.17 1.77-.5 2.47-.34.69-.81 1.22-1.44 1.6-.62.37-1.35.56-2.2.56-.83 0-1.56-.19-2.19-.56zm4.16-1.6c.46-.59.69-1.41.69-2.47a3.9 3.9 0 0 0-.7-2.47 2.35 2.35 0 0 0-1.95-.88c-.85 0-1.5.3-1.96.88a3.9 3.9 0 0 0-.69 2.47c0 1.06.23 1.88.69 2.47.46.58 1.11.87 1.96.87.85 0 1.5-.3 1.96-.87zm5.52-6.95v1.33h.13c.09-.29.25-.54.5-.77.23-.22.53-.4.87-.53.35-.12.72-.19 1.11-.19.27 0 .51.02.72.05v1.42l-.4-.05-.52-.03c-.45 0-.85.1-1.2.28a2.08 2.08 0 0 0-1.15 1.9V190h-1.42v-8.95h1.36zm4.98 12.14v-1.22c.15.02.35.04.6.04.42 0 .75-.11 1-.33.24-.22.46-.6.65-1.14l.16-.53-3.31-8.96h1.54l2.46 7.36h.13l2.45-7.36h1.52l-3.5 9.5c-.25.7-.52 1.24-.78 1.63-.27.38-.58.66-.93.82a3.89 3.89 0 0 1-1.98.2zm14.89-3.6c-.62-.37-1.1-.9-1.43-1.6-.33-.69-.5-1.51-.5-2.46 0-.96.17-1.78.5-2.48.33-.7.8-1.23 1.43-1.6a4.2 4.2 0 0 1 2.2-.56c.84 0 1.58.19 2.2.56.62.37 1.1.9 1.42 1.6.34.7.5 1.52.5 2.48 0 .95-.16 1.77-.5 2.47-.33.69-.8 1.22-1.43 1.6-.62.37-1.35.56-2.2.56-.84 0-1.57-.19-2.19-.56zm4.15-1.6c.46-.58.7-1.4.7-2.46a3.9 3.9 0 0 0-.7-2.47 2.35 2.35 0 0 0-1.95-.88c-.85 0-1.5.3-1.96.88a3.9 3.9 0 0 0-.7 2.47c0 1.06.24 1.88.7 2.47.46.58 1.1.87 1.96.87.84 0 1.5-.3 1.95-.87zm5.52-6.94v1.33h.14c.08-.29.25-.54.49-.77.24-.22.53-.4.88-.53.35-.12.72-.19 1.1-.19.28 0 .52.02.72.05v1.42l-.4-.05-.51-.03c-.45 0-.85.1-1.2.28a2.08 2.08 0 0 0-1.15 1.9V190h-1.43v-8.95h1.36zm14.59 1.58c-.4-.3-.9-.45-1.52-.45a2.4 2.4 0 0 0-2.3 1.56c-.22.5-.33 1.08-.33 1.75 0 .68.11 1.28.33 1.79.21.5.52.9.92 1.18.4.27.85.41 1.38.41.6 0 1.1-.13 1.5-.4.4-.28.67-.66.8-1.17h1.45a3.23 3.23 0 0 1-1.9 2.49 4.4 4.4 0 0 1-1.84.37c-.83 0-1.56-.2-2.18-.58a3.75 3.75 0 0 1-1.43-1.62c-.34-.7-.5-1.53-.5-2.47 0-.92.16-1.73.5-2.42.33-.7.81-1.23 1.43-1.6a4.07 4.07 0 0 1 2.17-.58c.7 0 1.32.13 1.86.39a3.29 3.29 0 0 1 1.9 2.51h-1.46a2.06 2.06 0 0 0-.78-1.16zm5.57 6.97c-.62-.38-1.1-.91-1.43-1.6-.33-.7-.5-1.52-.5-2.47 0-.96.17-1.78.5-2.48.33-.7.8-1.23 1.42-1.6a4.2 4.2 0 0 1 2.2-.56c.85 0 1.58.19 2.2.56.62.37 1.1.9 1.43 1.6.33.7.5 1.52.5 2.48 0 .95-.17 1.77-.5 2.47-.33.69-.8 1.22-1.43 1.6-.62.37-1.35.56-2.2.56-.84 0-1.57-.19-2.2-.56zm4.15-1.6c.46-.59.7-1.41.7-2.47a3.9 3.9 0 0 0-.7-2.47 2.35 2.35 0 0 0-1.96-.88c-.84 0-1.5.3-1.95.88a3.9 3.9 0 0 0-.7 2.47c0 1.06.24 1.88.7 2.47.46.58 1.1.87 1.95.87.85 0 1.5-.3 1.96-.87zm5.64 1.6c-.62-.38-1.1-.91-1.43-1.6-.33-.7-.5-1.52-.5-2.47 0-.96.17-1.78.5-2.48.33-.7.8-1.23 1.43-1.6a4.2 4.2 0 0 1 2.2-.56c.85 0 1.58.19 2.2.56.62.37 1.1.9 1.43 1.6.33.7.5 1.52.5 2.48 0 .95-.17 1.77-.5 2.47-.34.69-.81 1.22-1.44 1.6-.62.37-1.35.56-2.2.56-.83 0-1.56-.19-2.19-.56zm4.16-1.6c.46-.59.69-1.41.69-2.47a3.9 3.9 0 0 0-.7-2.47 2.35 2.35 0 0 0-1.95-.88c-.85 0-1.5.3-1.96.88a3.9 3.9 0 0 0-.69 2.47c0 1.06.23 1.88.69 2.47.46.58 1.11.87 1.96.87.85 0 1.5-.3 1.96-.87zm11.44-6.95l-3.86 3.84L219 190h-1.82l-3.35-4.2-.85.8v3.4h-1.43v-12.5h1.43v7.46h.13l3.88-3.9h1.76zm1.74-2.11a.96.96 0 0 1-.3-.7c0-.28.1-.51.3-.7.2-.2.43-.3.7-.3.28 0 .51.1.7.3.2.19.3.42.3.7 0 .27-.1.5-.3.7-.19.2-.42.3-.7.3-.27 0-.5-.1-.7-.3zm1.42 2.11V190h-1.43v-8.95h1.43zm8.5 8.45c-.65.44-1.47.66-2.44.66a3.67 3.67 0 0 1-3.54-2.17 5.72 5.72 0 0 1-.5-2.46c0-.93.17-1.74.5-2.44a3.74 3.74 0 0 1 3.54-2.2 3.51 3.51 0 0 1 3.42 2.1c.3.69.46 1.48.46 2.4v.55h-6.43v.07c.02.58.14 1.1.36 1.53.22.43.52.77.9 1 .37.24.81.36 1.32.36.57 0 1.06-.1 1.44-.31.39-.2.68-.5.87-.9h1.42a3.1 3.1 0 0 1-1.31 1.81zm-3.72-7.02c-.37.22-.67.53-.9.93-.21.4-.34.85-.37 1.38h4.93a3.15 3.15 0 0 0-.32-1.38 2.26 2.26 0 0 0-2.08-1.25c-.47 0-.9.1-1.26.32zm7.38-.3c.29-.4.69-.72 1.2-.95.5-.22 1.08-.34 1.7-.34.62 0 1.17.1 1.66.3.49.2.88.47 1.18.83.3.36.47.79.53 1.27h-1.41c-.1-.36-.32-.65-.66-.86a2.43 2.43 0 0 0-1.3-.32c-.36 0-.68.05-.97.17-.29.11-.52.27-.68.47-.17.2-.25.43-.25.7 0 .3.13.55.38.75.25.2.64.37 1.17.5l1.38.33c.85.2 1.48.5 1.89.89.4.38.6.9.6 1.53 0 .53-.15 1-.46 1.4-.31.41-.74.73-1.29.96-.54.23-1.15.35-1.83.35-.66 0-1.24-.1-1.75-.3-.51-.2-.92-.48-1.23-.85-.3-.37-.49-.8-.54-1.3h1.47c.12.4.36.7.72.92.36.21.82.32 1.38.32.4 0 .76-.06 1.07-.17.31-.12.56-.29.73-.5.18-.2.27-.45.27-.72 0-.6-.47-1.03-1.42-1.26l-1.54-.38c-.84-.2-1.46-.5-1.85-.88-.4-.38-.59-.9-.59-1.54 0-.49.15-.93.44-1.33zm9 6.14h1.67l-1.23 4.73h-1.24l.8-4.73zm11.52 1.42a3 3 0 0 1-1.18-1.17h-.13V190h-1.36v-12.5h1.43v4.96h.13c.24-.48.62-.86 1.12-1.14a3.4 3.4 0 0 1 1.68-.43 3.44 3.44 0 0 1 3.3 2.2c.3.7.46 1.5.46 2.44 0 .92-.16 1.73-.47 2.43a3.45 3.45 0 0 1-3.29 2.2c-.62 0-1.18-.14-1.69-.42zm-.04-7.15c-.4.27-.7.66-.92 1.16-.21.5-.32 1.1-.32 1.78 0 .68.1 1.27.32 1.77a2.43 2.43 0 0 0 2.32 1.57c.54 0 1.01-.13 1.4-.4.39-.26.69-.65.9-1.15.2-.5.3-1.1.3-1.8 0-.69-.1-1.28-.3-1.79-.21-.5-.51-.89-.9-1.15-.39-.27-.86-.4-1.4-.4-.54 0-1 .14-1.4.4zM267.9 190v-1.4h-.13c-.23.5-.57.89-1.04 1.16-.48.26-1.05.4-1.73.4-1 0-1.76-.29-2.28-.86-.52-.57-.78-1.39-.78-2.45v-5.8h1.43v5.45c0 .81.16 1.4.48 1.79.32.37.84.56 1.55.56.78 0 1.38-.22 1.8-.66.43-.44.64-1.05.64-1.84v-5.3h1.43V190h-1.37zm5.83-8.95h2v1.2h-2v5.06c0 .53.1.9.32 1.15.2.23.54.35 1 .35.21 0 .43 0 .67-.03v1.2c-.31.06-.6.09-.84.09-.62 0-1.11-.08-1.49-.24a1.58 1.58 0 0 1-.83-.77 3.12 3.12 0 0 1-.26-1.38v-5.43h-1.44v-1.2h1.44v-2.31h1.43v2.31zm9.81 0v1.41h.13c.23-.5.57-.9 1.02-1.16.44-.27 1-.4 1.67-.4 1 0 1.78.28 2.32.85.54.58.81 1.4.81 2.46V190h-1.43v-5.45c0-.8-.17-1.4-.52-1.78-.34-.4-.87-.59-1.58-.59-.48 0-.9.1-1.25.3-.35.2-.62.5-.81.88-.2.38-.3.83-.3 1.34v5.3h-1.42v-8.95h1.36zm14.35 8.45c-.66.44-1.48.66-2.46.66a3.67 3.67 0 0 1-3.54-2.17 5.72 5.72 0 0 1-.5-2.46c0-.93.17-1.74.5-2.44a3.74 3.74 0 0 1 3.54-2.2 3.51 3.51 0 0 1 3.42 2.1c.31.69.47 1.48.47 2.4v.55h-6.43v.07c.02.58.14 1.1.36 1.53.21.43.51.77.9 1 .37.24.81.36 1.32.36.57 0 1.05-.1 1.44-.31.39-.2.68-.5.86-.9h1.43a3.1 3.1 0 0 1-1.31 1.81zm-3.73-7.02c-.38.22-.67.53-.9.93-.21.4-.34.85-.37 1.38h4.93a3.15 3.15 0 0 0-.32-1.38 2.26 2.26 0 0 0-2.08-1.25c-.47 0-.9.1-1.26.32zM308.6 190l-2-6.92h-.14l-1.99 6.92h-1.44l-2.51-8.95h1.44l1.76 7.16h.14l2-7.16h1.37l2 7.16h.13l1.76-7.16h1.44l-2.51 8.95h-1.45zM95.26 209.74a3 3 0 0 1-1.19-1.17h-.13V210h-1.36v-12.5h1.43v4.96h.13c.24-.48.62-.86 1.12-1.14a3.4 3.4 0 0 1 1.69-.43 3.44 3.44 0 0 1 3.28 2.2c.31.7.47 1.5.47 2.44 0 .92-.16 1.73-.47 2.43a3.45 3.45 0 0 1-3.29 2.2c-.61 0-1.18-.14-1.68-.42zm-.05-7.15c-.4.27-.7.66-.92 1.16-.2.5-.32 1.1-.32 1.78 0 .68.11 1.27.32 1.77.22.5.52.9.92 1.16.4.28.87.41 1.4.41.55 0 1.01-.13 1.4-.4.4-.26.7-.65.9-1.15.2-.5.31-1.1.31-1.8 0-.69-.1-1.28-.31-1.79-.2-.5-.5-.89-.9-1.15-.39-.27-.85-.4-1.4-.4-.53 0-1 .14-1.4.4zm8.96 7c-.62-.37-1.1-.9-1.43-1.6-.33-.69-.5-1.51-.5-2.46 0-.96.17-1.78.5-2.48.33-.7.8-1.23 1.43-1.6a4.2 4.2 0 0 1 2.2-.56c.84 0 1.58.19 2.2.56.62.37 1.1.9 1.42 1.6.34.7.5 1.52.5 2.48 0 .95-.16 1.77-.5 2.47-.33.69-.8 1.22-1.43 1.6-.62.37-1.35.56-2.2.56-.83 0-1.57-.19-2.19-.56zm4.16-1.6c.45-.58.68-1.4.68-2.46a3.9 3.9 0 0 0-.68-2.47 2.35 2.35 0 0 0-1.96-.88c-.85 0-1.5.3-1.96.88a3.9 3.9 0 0 0-.7 2.47c0 1.06.24 1.88.7 2.47.46.58 1.11.87 1.96.87.84 0 1.5-.3 1.96-.87zm5.63 1.6c-.62-.37-1.1-.9-1.43-1.6-.33-.69-.5-1.51-.5-2.46 0-.96.17-1.78.5-2.48.33-.7.81-1.23 1.43-1.6a4.2 4.2 0 0 1 2.2-.56c.85 0 1.58.19 2.2.56.62.37 1.1.9 1.43 1.6.33.7.5 1.52.5 2.48 0 .95-.17 1.77-.5 2.47-.33.69-.81 1.22-1.43 1.6-.63.37-1.36.56-2.2.56-.84 0-1.57-.19-2.2-.56zm4.16-1.6c.46-.58.69-1.4.69-2.46a3.9 3.9 0 0 0-.7-2.47 2.35 2.35 0 0 0-1.95-.88c-.85 0-1.5.3-1.96.88a3.9 3.9 0 0 0-.69 2.47c0 1.06.23 1.88.7 2.47.45.58 1.1.87 1.95.87.85 0 1.5-.3 1.96-.87zm11.44-6.94l-3.85 3.84 4.1 5.11H128l-3.36-4.2-.85.8v3.4h-1.43v-12.5h1.43v7.46h.13l3.89-3.9h1.75zm3.06 0v1.41h.13c.2-.5.52-.88.96-1.16.43-.27.94-.4 1.54-.4.59 0 1.1.14 1.51.42.43.28.75.66.96 1.14h.14c.24-.48.6-.86 1.1-1.14a3.22 3.22 0 0 1 1.64-.43c.9 0 1.61.26 2.1.76.5.51.74 1.23.74 2.17V210h-1.42v-5.85c0-.66-.16-1.15-.47-1.48-.32-.33-.79-.49-1.42-.49-.4 0-.76.1-1.08.28-.31.18-.56.43-.73.75a2.1 2.1 0 0 0-.26 1.04V210h-1.43v-6.08c0-.53-.17-.95-.51-1.27-.34-.31-.8-.47-1.36-.47-.38 0-.73.1-1.05.3-.32.2-.57.48-.75.83-.18.35-.27.73-.27 1.15V210h-1.43v-8.95h1.36zm14.12 8.78a2.57 2.57 0 0 1-1.08-.93c-.26-.4-.4-.87-.4-1.4 0-.8.29-1.43.85-1.88a4.17 4.17 0 0 1 2.42-.77l2.58-.16v-.82c0-.55-.17-.97-.51-1.27-.35-.29-.85-.44-1.51-.44-.54 0-.99.1-1.34.3-.35.19-.58.46-.68.82h-1.44c.06-.48.24-.9.56-1.26.31-.36.73-.63 1.24-.83.5-.2 1.08-.3 1.7-.3.73 0 1.34.12 1.85.36.5.24.9.58 1.16 1.03.27.44.4.97.4 1.6V210h-1.36v-1.32h-.13c-.3.48-.67.84-1.15 1.1-.48.25-1.01.38-1.61.38-.58 0-1.1-.11-1.55-.33zm3.12-1.22c.4-.2.7-.47.92-.8.22-.35.33-.73.33-1.15v-.82l-2.4.16a2.8 2.8 0 0 0-1.5.42c-.3.24-.46.59-.46 1.04 0 .45.16.8.5 1.06.34.26.77.38 1.3.38.49 0 .92-.1 1.31-.29zm6.43-7.56v1.33h.13c.1-.29.26-.54.5-.77.24-.22.53-.4.88-.53.34-.12.71-.19 1.1-.19.28 0 .51.02.72.05v1.42l-.4-.05-.51-.03c-.45 0-.85.1-1.21.28a2.08 2.08 0 0 0-1.14 1.9V210h-1.43v-8.95h1.36zm12.14 0l-3.85 3.84 4.11 5.11h-1.82l-3.35-4.2-.86.8v3.4h-1.42v-12.5h1.42v7.46h.14l3.88-3.9h1.75zm1.6 1.12c.3-.4.7-.7 1.2-.94.5-.22 1.08-.34 1.7-.34.62 0 1.17.1 1.66.3.49.2.88.47 1.18.83.3.36.47.79.53 1.27h-1.4c-.1-.36-.33-.65-.67-.86a2.43 2.43 0 0 0-1.3-.32c-.36 0-.68.05-.97.17-.29.11-.51.27-.68.47-.17.2-.25.43-.25.7 0 .3.13.55.38.75.25.2.64.37 1.17.5l1.38.33c.85.2 1.48.5 1.89.89.4.38.6.9.6 1.53 0 .53-.15 1-.46 1.4-.31.41-.74.73-1.29.96-.54.23-1.15.35-1.83.35-.65 0-1.24-.1-1.75-.3-.51-.2-.92-.48-1.23-.85-.3-.37-.49-.8-.54-1.3h1.47c.12.4.37.7.73.92.36.21.81.32 1.37.32.4 0 .76-.06 1.07-.17.31-.12.56-.29.73-.5.18-.2.27-.45.27-.72 0-.6-.47-1.03-1.42-1.26l-1.53-.38c-.85-.2-1.47-.5-1.86-.88-.39-.38-.59-.9-.59-1.54 0-.49.15-.93.44-1.33zM190.3 210l-2-6.92h-.13l-2 6.92h-1.43l-2.51-8.95h1.44l1.76 7.16h.14l2-7.16h1.37l2 7.16h.13l1.76-7.16h1.43l-2.5 8.95h-1.46zm5.67-11.06a.96.96 0 0 1-.3-.7c0-.28.1-.51.3-.7.2-.2.43-.3.7-.3.28 0 .51.1.7.3.2.19.3.42.3.7 0 .27-.1.5-.3.7-.19.2-.42.3-.7.3-.27 0-.5-.1-.7-.3zm1.41 2.11V210h-1.42v-8.95h1.42zm3.99-3.55V210h-1.43v-12.5h1.43zm4.03 0V210h-1.43v-12.5h1.43zm9.83 12.24a3 3 0 0 1-1.18-1.17h-.13V210h-1.37v-12.5h1.43v4.96h.13c.25-.48.62-.86 1.13-1.14a3.4 3.4 0 0 1 1.68-.43 3.44 3.44 0 0 1 3.29 2.2c.3.7.46 1.5.46 2.44 0 .92-.15 1.73-.46 2.43a3.45 3.45 0 0 1-3.29 2.2c-.62 0-1.18-.14-1.69-.42zm-.04-7.15c-.4.27-.7.66-.92 1.16-.21.5-.32 1.1-.32 1.78 0 .68.1 1.27.32 1.77a2.43 2.43 0 0 0 2.32 1.57c.54 0 1-.13 1.4-.4.39-.26.69-.65.9-1.15.2-.5.3-1.1.3-1.8 0-.69-.1-1.28-.3-1.79-.21-.5-.51-.89-.9-1.15-.4-.27-.86-.4-1.4-.4-.54 0-1 .14-1.4.4zm13.51 6.91c-.66.44-1.48.66-2.45.66a3.67 3.67 0 0 1-3.54-2.17 5.72 5.72 0 0 1-.5-2.46c0-.93.17-1.74.5-2.44a3.74 3.74 0 0 1 3.54-2.2 3.51 3.51 0 0 1 3.42 2.1c.3.69.46 1.48.46 2.4v.55h-6.43v.07c.02.58.14 1.1.36 1.53.22.43.52.77.9 1 .38.24.82.36 1.32.36.58 0 1.06-.1 1.45-.31.38-.2.67-.5.86-.9h1.43a3.1 3.1 0 0 1-1.32 1.81zm-3.73-7.02c-.37.22-.67.53-.89.93-.22.4-.35.85-.38 1.38h4.93a3.15 3.15 0 0 0-.32-1.38 2.26 2.26 0 0 0-2.08-1.25c-.47 0-.89.1-1.26.32zm11.93-.3c.3-.4.7-.72 1.2-.95.51-.22 1.08-.34 1.7-.34.62 0 1.18.1 1.66.3.49.2.88.47 1.18.83.3.36.47.79.53 1.27h-1.4c-.1-.36-.33-.65-.67-.86a2.43 2.43 0 0 0-1.3-.32c-.36 0-.68.05-.97.17-.29.11-.51.27-.68.47-.16.2-.25.43-.25.7 0 .3.13.55.38.75.25.2.64.37 1.17.5l1.38.33c.85.2 1.48.5 1.9.89.4.38.6.9.6 1.53 0 .53-.16 1-.47 1.4-.31.41-.74.73-1.28.96-.55.23-1.16.35-1.84.35-.65 0-1.24-.1-1.75-.3-.51-.2-.92-.48-1.23-.85-.3-.37-.48-.8-.53-1.3h1.46c.13.4.37.7.73.92.36.21.82.32 1.37.32.4 0 .76-.06 1.07-.17.31-.12.56-.29.74-.5.17-.2.26-.45.26-.72 0-.6-.47-1.03-1.42-1.26l-1.53-.38c-.85-.2-1.47-.5-1.86-.88-.39-.38-.58-.9-.58-1.54 0-.49.14-.93.43-1.33zm9.36 7.65a2.57 2.57 0 0 1-1.08-.93c-.26-.4-.39-.87-.39-1.4 0-.8.28-1.43.85-1.88a4.17 4.17 0 0 1 2.41-.77l2.58-.16v-.82c0-.55-.17-.97-.51-1.27-.34-.29-.85-.44-1.51-.44-.54 0-.98.1-1.34.3-.35.19-.58.46-.68.82h-1.44c.06-.48.25-.9.56-1.26.32-.36.73-.63 1.24-.83.5-.2 1.08-.3 1.7-.3.73 0 1.34.12 1.85.36s.9.58 1.16 1.03c.27.44.4.97.4 1.6V210h-1.36v-1.32h-.13c-.29.48-.67.84-1.15 1.1-.47.25-1.01.38-1.6.38-.58 0-1.1-.11-1.56-.33zm3.13-1.22c.39-.2.7-.47.91-.8.22-.35.33-.73.33-1.15v-.82l-2.4.16a2.8 2.8 0 0 0-1.49.42c-.31.24-.47.59-.47 1.04 0 .45.17.8.5 1.06.34.26.78.38 1.3.38.49 0 .93-.1 1.32-.29zm7.93-.19h.13l2.45-7.37h1.52l-3.3 8.95h-1.47l-3.31-8.95h1.53l2.45 7.37zm11.47 1.08c-.66.44-1.48.66-2.45.66a3.67 3.67 0 0 1-3.54-2.17 5.72 5.72 0 0 1-.5-2.46c0-.93.17-1.74.5-2.44a3.74 3.74 0 0 1 3.54-2.2 3.51 3.51 0 0 1 3.42 2.1c.3.69.46 1.48.46 2.4v.55h-6.43v.07c.02.58.14 1.1.36 1.53.22.43.52.77.9 1 .38.24.82.36 1.32.36.58 0 1.06-.1 1.45-.31.38-.2.67-.5.86-.9h1.43a3.1 3.1 0 0 1-1.32 1.81zm-3.73-7.02c-.37.22-.67.53-.89.93-.22.4-.35.85-.38 1.38h4.93a3.15 3.15 0 0 0-.32-1.38 2.26 2.26 0 0 0-2.08-1.25c-.47 0-.89.1-1.26.32zm8.48 7.1c-.57-.37-1-.91-1.31-1.61-.31-.7-.46-1.51-.46-2.44 0-.93.15-1.74.46-2.44a3.46 3.46 0 0 1 3.3-2.2c.62 0 1.18.14 1.68.42.5.28.87.67 1.12 1.15h.13v-4.96h1.42V210h-1.36v-1.43h-.13a3 3 0 0 1-1.18 1.17c-.5.28-1.06.42-1.68.42a3.5 3.5 0 0 1-2-.57zm.92-7c-.39.27-.7.66-.9 1.16a4.6 4.6 0 0 0-.32 1.79c0 .69.1 1.29.31 1.79s.51.89.9 1.15c.4.27.87.4 1.4.4.54 0 1.01-.13 1.4-.4.4-.28.7-.66.92-1.16.21-.5.32-1.1.32-1.78 0-.68-.1-1.28-.32-1.78-.21-.5-.52-.9-.91-1.16-.4-.27-.87-.4-1.4-.4-.54 0-1 .12-1.4.4zm8.59 7.36a1.08 1.08 0 1 1 1.07-1.87 1.08 1.08 0 0 1-1.07 1.87z"/></g></svg>