<svg xmlns="http://www.w3.org/2000/svg" xmlns:xlink="http://www.w3.org/1999/xlink" viewBox="0 0 360 240"><defs><polygon id="a" points="0 0 8 12 16 0"/><polygon id="c" points="12 12 12 0 0 12"/><path id="e" d="M7 1H6V0H2v1H1c-.6 0-1 .4-1 1v10c0 .6.4 1 1 1h6c.6 0 1-.4 1-1V2c0-.6-.4-1-1-1z"/></defs><g fill="none" fill-rule="evenodd"><rect width="360" height="56" fill="#343434" transform="translate(0 24)"/><rect width="360" height="24" fill="#343434"/><g transform="translate(242)"><rect width="118" height="24"/><g transform="translate(8 6)"><mask id="b" fill="white"><use xlink:href="#a"/></mask><path fill="#FFFFFF" fill-opacity=".3" d="M8 0C1.4 0-4 5.4-4 12S1.4 24 8 24s12-5.4 12-12S14.6 0 8 0zm0 21c-5 0-9-4-9-9s4-9 9-9 9 4 9 9-4 9-9 9z" mask="url(#b)"/><path fill="#FFFFFF" fill-opacity=".9" d="M8 3c-5 0-9 4-9 9s4 9 9 9 9-4 9-9-4-9-9-9zm0 15c-3.3 0-6-2.7-6-6s2.7-6 6-6 6 2.7 6 6-2.7 6-6 6z" mask="url(#b)"/><path fill="#FFFFFF" fill-opacity=".9" d="M8 6c-3.3 0-6 2.7-6 6s2.7 6 6 6 6-2.7 6-6-2.7-6-6-6zm0 9c-1.7 0-3-1.3-3-3s1.3-3 3-3 3 1.3 3 3-1.3 3-3 3z" mask="url(#b)"/><circle cx="8" cy="12" r="3" fill="#FFFFFF" fill-opacity=".9" mask="url(#b)"/></g><g transform="translate(34 6)"><mask id="d" fill="white"><use xlink:href="#c"/></mask><rect width="3" height="12" x="9" fill="#FFFFFF" fill-opacity=".3" mask="url(#d)"/><rect width="3" height="12" x="6" fill="#FFFFFF" fill-opacity=".3" mask="url(#d)"/><rect width="3" height="12" x="3" fill="#FFFFFF" fill-opacity=".9" mask="url(#d)"/><rect width="3" height="12" fill="#FFFFFF" fill-opacity=".9" mask="url(#d)"/></g><g transform="translate(60 5)"><mask id="f" fill="white"><use xlink:href="#e"/></mask><rect width="8" height="3" y="10" fill="#FFFFFF" fill-opacity=".9" mask="url(#f)"/><rect width="8" height="3" y="7" fill="#FFFFFF" fill-opacity=".9" mask="url(#f)"/><rect width="8" height="3" y="4" fill="#FFFFFF" fill-opacity=".3" mask="url(#f)"/><rect width="8" height="3" y="1" fill="#FFFFFF" fill-opacity=".3" mask="url(#f)"/><rect width="4" height="1" x="2" fill="#FFFFFF" fill-opacity=".3" mask="url(#f)"/></g><path fill="#FFFFFF" d="M81.63 17h-1.18V9.17l-2.37.87V8.98l3.36-1.27h.19V17zm9.5 0h-6.06v-.84l3.03-3.37c.28-.3.5-.58.7-.82.17-.23.32-.45.43-.65a2.18 2.18 0 0 0 .18-1.72 1.46 1.46 0 0 0-.81-.88 2.17 2.17 0 0 0-1.5.01 1.57 1.57 0 0 0-.92.99c-.08.23-.12.48-.12.76H84.9c0-.39.06-.76.2-1.1a2.54 2.54 0 0 1 1.51-1.52c.38-.15.82-.23 1.31-.23.44 0 .83.06 1.17.18.35.12.64.29.88.5.24.22.42.48.55.79a2.6 2.6 0 0 1 .05 1.83 6.73 6.73 0 0 1-.93 1.63c-.21.27-.43.53-.66.79l-2.49 2.7h4.64V17zm1.32-.62c0-.2.06-.37.18-.5.12-.14.3-.2.54-.2.25 0 .43.06.55.2.13.13.19.3.19.5s-.06.36-.19.5c-.12.12-.3.19-.55.19-.24 0-.42-.07-.54-.2a.7.7 0 0 1-.18-.49zm0-5.6c0-.2.07-.37.19-.5.12-.14.3-.21.54-.21.24 0 .42.07.55.2.12.14.19.3.19.5s-.07.37-.2.5c-.12.13-.3.2-.54.2-.24 0-.42-.07-.54-.2a.7.7 0 0 1-.18-.5zm4.77 1.03h.84c.3 0 .57-.04.8-.12.23-.08.42-.2.57-.34.15-.14.27-.3.35-.5.07-.19.11-.4.11-.63 0-.53-.13-.93-.4-1.2-.27-.29-.67-.42-1.22-.42a2 2 0 0 0-.68.1c-.2.08-.38.19-.53.32-.14.14-.26.3-.34.5-.08.2-.12.42-.12.66h-1.17a2.45 2.45 0 0 1 1.68-2.35 3.66 3.66 0 0 1 2.3-.03 2.22 2.22 0 0 1 1.45 1.31c.14.33.2.7.2 1.14 0 .17-.02.35-.08.54a2.22 2.22 0 0 1-.71 1.07c-.19.16-.4.3-.66.4.3.1.56.22.77.38a2.07 2.07 0 0 1 .75 1.15 2.83 2.83 0 0 1-.15 1.79c-.15.33-.35.61-.61.84-.27.23-.58.4-.93.53a3.76 3.76 0 0 1-2.3.01 2.78 2.78 0 0 1-.93-.5 2.34 2.34 0 0 1-.87-1.9h1.19c0 .24.04.46.12.66.08.2.2.37.35.5.15.15.33.26.55.33a2.37 2.37 0 0 0 1.46.01 1.4 1.4 0 0 0 .9-.86c.08-.21.12-.46.12-.75s-.05-.54-.14-.75c-.1-.21-.23-.39-.4-.52a1.72 1.72 0 0 0-.62-.31 3 3 0 0 0-.8-.1h-.85v-.96zm11.4 1.25c0 .76-.08 1.4-.21 1.91a3.4 3.4 0 0 1-.58 1.26c-.25.32-.56.55-.92.69-.35.14-.76.2-1.2.2a3.3 3.3 0 0 1-1.21-.2 2.16 2.16 0 0 1-.92-.7 3.44 3.44 0 0 1-.6-1.25 7.47 7.47 0 0 1-.2-1.91v-1.41c0-.76.07-1.4.2-1.9.14-.52.34-.93.6-1.24.25-.32.55-.54.9-.68.37-.13.77-.2 1.21-.2.45 0 .85.07 1.21.2.36.14.67.36.92.68.26.31.45.72.59 1.23.13.52.2 1.15.2 1.9v1.42zm-1.18-1.6c0-.53-.04-.97-.11-1.33a2.54 2.54 0 0 0-.34-.89 1.32 1.32 0 0 0-.55-.5c-.21-.1-.47-.14-.75-.14s-.53.05-.74.15c-.22.1-.4.26-.55.49-.15.23-.26.52-.33.89-.08.36-.12.8-.12 1.32v1.8c0 .5.04.95.12 1.32.07.37.19.68.34.91.15.24.33.41.55.52.22.11.46.17.74.17.3 0 .54-.06.76-.17.22-.1.4-.28.54-.52.15-.23.26-.54.33-.9.07-.38.1-.82.1-1.34v-1.79z" opacity=".9"/></g><path fill="#FFFFFF" d="M69.76 53.65h-5.84v4.38h6.82V60h-9.3V45.78h9.23v2h-6.75v3.92h5.84v1.95zm2.13.99c0-.8.1-1.53.3-2.2.18-.66.46-1.23.82-1.7.36-.48.8-.85 1.32-1.11a3.8 3.8 0 0 1 1.73-.4 3.42 3.42 0 0 1 2.71 1.17v-5.4h2.38v15H79l-.11-1.1c-.34.42-.74.73-1.2.96-.47.22-1.02.34-1.65.34a3.63 3.63 0 0 1-3.02-1.53 5.31 5.31 0 0 1-.83-1.7c-.2-.65-.3-1.36-.3-2.13v-.2zm2.38.2c0 .47.04.91.13 1.33.09.41.23.77.42 1.09.2.3.44.55.74.73.3.18.66.27 1.09.27.53 0 .97-.12 1.31-.35.35-.24.62-.56.82-.95v-4.5c-.2-.4-.48-.7-.82-.94a2.3 2.3 0 0 0-1.29-.34c-.43 0-.8.1-1.1.28-.3.18-.55.42-.74.74-.2.31-.33.68-.43 1.1-.09.42-.13.86-.13 1.34v.2zM86.15 60h-2.37V49.43h2.37V60zm-2.52-13.31c0-.37.12-.67.35-.9.23-.25.56-.37 1-.37.42 0 .75.12.99.36.23.24.35.54.35.9 0 .37-.12.67-.35.9-.24.24-.57.36-1 .36-.43 0-.76-.12-1-.36a1.23 1.23 0 0 1-.34-.9zm8.08.18v2.56h1.86v1.76h-1.86v5.9c0 .24.03.44.08.59.05.15.12.26.22.34.1.08.21.14.35.17a3.21 3.21 0 0 0 1.27-.05v1.83l-.66.15a4.8 4.8 0 0 1-1.99-.08 2.16 2.16 0 0 1-1.44-1.43 4.1 4.1 0 0 1-.2-1.38v-6.04H87.6v-1.76h1.74v-2.56h2.37zM100.6 60V45.78h4.87c.77 0 1.46.08 2.07.23.61.15 1.13.39 1.55.7.42.31.75.71.97 1.2.23.48.34 1.05.34 1.72 0 .65-.18 1.24-.53 1.76a3.4 3.4 0 0 1-1.54 1.2c.41.12.77.28 1.07.5a2.98 2.98 0 0 1 1.2 1.69 4.5 4.5 0 0 1-.19 2.88 3.4 3.4 0 0 1-.98 1.29c-.43.35-.95.61-1.55.79-.61.17-1.3.26-2.07.26h-5.21zm2.47-6.42v4.45h2.74c.4 0 .76-.05 1.07-.16.3-.1.57-.25.78-.44.2-.2.36-.42.47-.7.1-.26.15-.55.15-.88 0-.7-.18-1.26-.56-1.66-.37-.4-.97-.6-1.8-.6h-2.85zm0-1.81h2.42a2.8 2.8 0 0 0 1.8-.52c.43-.35.65-.85.65-1.48 0-.7-.2-1.22-.6-1.53-.4-.31-1.02-.47-1.87-.47h-2.4v4zm9.47 2.85c0-.77.11-1.48.34-2.13.22-.66.54-1.23.96-1.7.42-.5.94-.87 1.54-1.14.6-.28 1.3-.41 2.06-.41.78 0 1.47.13 2.08.4a4.4 4.4 0 0 1 1.55 1.14 5 5 0 0 1 .96 1.7c.22.66.33 1.37.33 2.14v.2c0 .77-.1 1.49-.33 2.14a4.94 4.94 0 0 1-.96 1.7 4.4 4.4 0 0 1-1.54 1.13c-.61.27-1.3.4-2.07.4-.77 0-1.47-.13-2.07-.4a4.4 4.4 0 0 1-1.55-1.12 5 5 0 0 1-.96-1.7 6.58 6.58 0 0 1-.34-2.15v-.2zm2.37.2c0 .48.05.93.15 1.35.1.43.25.8.46 1.11.2.32.47.57.8.75.32.18.7.27 1.14.27.44 0 .82-.09 1.14-.27.32-.18.58-.43.79-.75.2-.32.36-.68.46-1.1.1-.43.15-.88.15-1.36v-.2c0-.47-.05-.91-.15-1.33-.1-.42-.26-.8-.47-1.1a2.23 2.23 0 0 0-1.94-1.04 2.18 2.18 0 0 0-1.92 1.03c-.21.32-.36.69-.46 1.1-.1.43-.15.87-.15 1.34v.2zm9.02-.2c0-.77.1-1.48.33-2.13.23-.66.55-1.23.97-1.7.42-.5.93-.87 1.54-1.14.6-.28 1.29-.41 2.06-.41s1.47.13 2.08.4a4.4 4.4 0 0 1 1.55 1.14 5 5 0 0 1 .96 1.7c.22.66.33 1.37.33 2.14v.2c0 .77-.11 1.49-.33 2.14a4.94 4.94 0 0 1-.96 1.7 4.4 4.4 0 0 1-1.55 1.13c-.6.27-1.3.4-2.06.4-.78 0-1.47-.13-2.08-.4a4.4 4.4 0 0 1-1.54-1.12 5 5 0 0 1-.97-1.7 6.58 6.58 0 0 1-.33-2.15v-.2zm2.37.2c0 .48.05.93.15 1.35.1.43.25.8.45 1.11.21.32.48.57.8.75.32.18.7.27 1.15.27.43 0 .81-.09 1.14-.27.32-.18.58-.43.79-.75.2-.32.35-.68.46-1.1.1-.43.15-.88.15-1.36v-.2c0-.47-.05-.91-.15-1.33-.1-.42-.26-.8-.47-1.1a2.23 2.23 0 0 0-1.94-1.04 2.18 2.18 0 0 0-1.93 1.03c-.2.32-.36.69-.45 1.1-.1.43-.15.87-.15 1.34v.2zm12.89.65l-1.06 1.08V60h-2.37V45h2.37v8.65l.75-.93 2.92-3.29h2.85l-3.93 4.4 4.35 6.17h-2.75l-3.13-4.53zm9.24-6.04l.07 1.1c.35-.4.78-.72 1.28-.95.5-.23 1.1-.34 1.76-.34.65 0 1.22.13 1.73.38.5.26.9.67 1.17 1.24.35-.5.8-.89 1.34-1.18.53-.3 1.17-.44 1.9-.44.55 0 1.04.07 1.47.22.43.14.8.38 1.09.7.3.3.52.71.68 1.2.16.5.24 1.1.24 1.8V60h-2.37v-6.86c0-.39-.04-.7-.13-.96a1.42 1.42 0 0 0-.38-.6 1.38 1.38 0 0 0-.6-.31 3.2 3.2 0 0 0-.79-.09c-.54 0-.98.15-1.32.44a2.3 2.3 0 0 0-.72 1.13v.1l.01.1V60h-2.37v-6.83c0-.37-.04-.68-.13-.93a1.5 1.5 0 0 0-.38-.62 1.46 1.46 0 0 0-.6-.34c-.24-.06-.5-.1-.8-.1-.5 0-.92.1-1.25.31-.33.21-.58.5-.77.85V60h-2.37V49.43h2.24zM169.9 60a1.97 1.97 0 0 1-.16-.44 7.01 7.01 0 0 1-.11-.55 4.21 4.21 0 0 1-1.16.84 3.78 3.78 0 0 1-1.61.35c-.53 0-1.02-.08-1.46-.24a3.42 3.42 0 0 1-1.14-.67 2.92 2.92 0 0 1-1.01-2.25c0-.57.1-1.07.32-1.5.22-.44.53-.8.94-1.1.41-.29.91-.51 1.51-.67.6-.15 1.27-.23 2.04-.23h1.5v-.69c0-.55-.16-.98-.47-1.31-.3-.33-.77-.5-1.4-.5-.27 0-.53.04-.76.12-.22.07-.42.17-.58.3a1.25 1.25 0 0 0-.5 1.02h-2.37c0-.42.1-.82.3-1.2.2-.4.5-.74.88-1.04.38-.3.83-.55 1.37-.73a5.58 5.58 0 0 1 1.8-.27c.6 0 1.14.07 1.64.23.5.15.94.38 1.3.68.37.3.65.68.85 1.13.2.46.3.99.3 1.6v4.68c0 .95.14 1.7.4 2.27V60h-2.42zm-2.6-1.7a2.64 2.64 0 0 0 1.9-.8c.15-.16.27-.31.35-.47v-2h-1.28a3.5 3.5 0 0 0-1.98.47c-.44.3-.67.74-.67 1.3 0 .21.04.41.11.6.07.17.18.33.32.47.15.13.32.23.53.3.2.08.44.12.71.12zm12.64-6.7a5.7 5.7 0 0 0-.97-.08c-.57 0-1.03.11-1.4.34-.35.22-.62.52-.8.91V60h-2.37V49.43h2.27l.06 1.19c.27-.43.6-.77.99-1.02a2.59 2.59 0 0 1 1.85-.32c.18.03.3.06.38.1v2.22zm4.93 3.87l-1.05 1.08V60h-2.37V45h2.37v8.65l.74-.93 2.92-3.29h2.85l-3.92 4.4 4.34 6.17h-2.74l-3.14-4.53zm134.45-.67c0-.17-.03-.32-.08-.46a.91.91 0 0 0-.28-.37 2.31 2.31 0 0 0-.55-.32c-.24-.1-.54-.22-.92-.33-.4-.12-.78-.26-1.12-.42a3.89 3.89 0 0 1-.89-.54c-.25-.2-.44-.45-.58-.72a1.97 1.97 0 0 1-.21-.92c0-.35.07-.66.22-.95.14-.29.35-.54.62-.75.26-.21.58-.38.95-.5a4.07 4.07 0 0 1 2.53.04c.38.14.7.33.97.56a2.46 2.46 0 0 1 .81 1.84h-1.47c0-.2-.04-.4-.1-.57a1.19 1.19 0 0 0-.3-.45c-.13-.13-.3-.23-.5-.3a2.2 2.2 0 0 0-.72-.1c-.26 0-.49.02-.68.08-.2.06-.35.14-.48.25a.97.97 0 0 0-.28.37c-.06.15-.09.3-.09.47 0 .32.15.58.45.8.3.2.75.4 1.37.58.48.14.9.3 1.24.47.36.17.65.36.88.58a2.1 2.1 0 0 1 .69 1.65 2.07 2.07 0 0 1-.82 1.7c-.27.2-.59.36-.96.47a4.55 4.55 0 0 1-3.54-.51 2.33 2.33 0 0 1-1.05-2.02h1.48c0 .26.04.5.14.69.1.19.23.35.4.47.16.12.35.21.58.27.23.06.47.09.73.09.52 0 .9-.1 1.17-.32.26-.2.39-.48.39-.83zm7.55.21h-3.3l-.7 1.99h-1.53l3.22-8.53h1.33l3.23 8.53h-1.55l-.7-1.99zm-2.88-1.2h2.47l-1.24-3.53-1.23 3.54zm8.65 1.33l2.17-6.67h1.63L333.38 57h-1.44l-3.06-8.53h1.63l2.14 6.67zm9.74-1.95h-3.5v2.63h4.1V57h-5.58v-8.53h5.54v1.2h-4.06v2.35h3.5v1.17z"/><path fill="#009BFF" d="M26.29 105h-.94l-3.58-5.48V105h-.94v-7.1h.94l3.59 5.5v-5.5h.93v7.1zm4.78 0a.98.98 0 0 1-.07-.25l-.05-.3a2.4 2.4 0 0 1-.64.45 1.97 1.97 0 0 1-.87.2 2.1 2.1 0 0 1-.73-.12c-.22-.09-.4-.2-.56-.34a1.46 1.46 0 0 1-.49-1.1 1.5 1.5 0 0 1 .64-1.3c.21-.15.46-.26.75-.33.3-.08.62-.11.98-.11h.9v-.42c0-.31-.1-.57-.28-.75-.19-.19-.47-.28-.84-.28-.16 0-.32.02-.46.07-.14.04-.26.1-.36.18a.85.85 0 0 0-.23.26c-.06.1-.08.21-.08.32h-.91c0-.19.05-.37.15-.56.1-.19.24-.35.42-.5.18-.15.4-.27.66-.36a2.73 2.73 0 0 1 1.66-.03 1.53 1.53 0 0 1 1.03.89c.1.22.15.48.15.77v2.46a3.64 3.64 0 0 0 .18 1.07v.08h-.95zm-1.5-.69a1.5 1.5 0 0 0 .85-.25 1.45 1.45 0 0 0 .51-.54v-1.08h-.75c-.52 0-.92.08-1.2.24a.79.79 0 0 0-.42.73c0 .13.03.24.07.35.04.12.1.21.2.29.08.08.18.14.3.2.13.04.28.06.45.06zm4.53-4.6l.03.6a1.92 1.92 0 0 1 1.56-.7c.35 0 .65.08.9.21.27.14.47.35.61.65a2 2 0 0 1 1.69-.85c.28 0 .53.04.75.1a1.36 1.36 0 0 1 .9.95c.08.24.11.53.11.86V105h-.9v-3.48c0-.22-.03-.4-.08-.55a.86.86 0 0 0-.23-.35.81.81 0 0 0-.35-.18c-.14-.04-.3-.05-.47-.05-.18 0-.35.03-.49.08a1.15 1.15 0 0 0-.61.6c-.06.13-.1.27-.12.42V105h-.9v-3.47c0-.2-.03-.38-.09-.53a.9.9 0 0 0-.22-.35.9.9 0 0 0-.36-.2 1.6 1.6 0 0 0-.46-.06c-.33 0-.58.07-.78.2-.2.15-.34.33-.44.55V105h-.9v-5.28h.85zm10.1 5.39c-.36 0-.7-.07-.99-.2a2.23 2.23 0 0 1-1.25-1.33 2.97 2.97 0 0 1-.17-1.03v-.2c0-.43.06-.81.19-1.15.13-.34.3-.63.52-.86a2.23 2.23 0 0 1 2.57-.51c.28.13.5.31.68.54.18.23.3.5.4.82.08.32.12.66.12 1.03v.4h-3.58c0 .25.05.48.12.7.07.2.18.39.31.54a1.49 1.49 0 0 0 1.14.51c.32 0 .59-.06.8-.2.23-.13.42-.3.59-.51l.55.43a2.41 2.41 0 0 1-.73.7c-.16.1-.34.18-.55.23-.21.06-.45.09-.71.09zm-.1-4.74a1.24 1.24 0 0 0-.92.4c-.12.12-.22.28-.3.47-.08.18-.13.4-.16.64h2.65v-.06a2.5 2.5 0 0 0-.09-.53 1.42 1.42 0 0 0-.22-.46c-.1-.14-.23-.25-.38-.33a1.2 1.2 0 0 0-.58-.13z"/><path fill="#BCBDBF" d="M21.77 180.23h3.37v.77h-4.31v-7.1h.94v6.33zm4.06-1.92c0-.38.05-.74.16-1.07.12-.32.28-.6.48-.85a2.19 2.19 0 0 1 1.75-.77 2.2 2.2 0 0 1 1.77.77c.2.24.37.53.48.85.1.33.16.69.16 1.07v.1c0 .4-.05.75-.16 1.07a2.5 2.5 0 0 1-.48.85c-.2.24-.46.43-.76.57-.3.13-.63.2-1 .2s-.7-.07-1-.2a2.2 2.2 0 0 1-.76-.57c-.2-.24-.36-.52-.48-.85a3.27 3.27 0 0 1-.16-1.06v-.11zm.9.1c0 .27.03.52.1.75.06.24.15.44.28.62a1.33 1.33 0 0 0 1.13.58 1.33 1.33 0 0 0 1.12-.58c.12-.18.21-.38.28-.62.06-.23.1-.48.1-.74v-.11c0-.26-.04-.5-.1-.75a1.94 1.94 0 0 0-.29-.62 1.33 1.33 0 0 0-1.13-.58 1.29 1.29 0 0 0-1.11.58 1.9 1.9 0 0 0-.28.62c-.07.24-.1.49-.1.75v.1zm7.16 1.95a1.36 1.36 0 0 0 .84-.3c.12-.08.2-.2.28-.32.07-.12.1-.26.12-.4H36c-.02.23-.08.45-.2.67-.11.21-.26.4-.45.56a2.25 2.25 0 0 1-1.45.53c-.4 0-.75-.07-1.04-.21a2.1 2.1 0 0 1-.74-.58c-.2-.24-.34-.52-.43-.84-.1-.32-.15-.65-.15-1v-.21c0-.36.05-.7.15-1.01.1-.32.24-.6.43-.84.2-.25.44-.44.74-.58.29-.14.63-.21 1.03-.21.31 0 .6.05.84.15a1.84 1.84 0 0 1 1.09 1.01c.1.23.16.48.18.75h-.86a1.38 1.38 0 0 0-.11-.45 1.21 1.21 0 0 0-1.14-.72c-.28 0-.51.06-.7.17-.18.1-.33.25-.44.43-.11.19-.19.39-.24.61-.04.23-.06.46-.06.69v.2c0 .24.02.47.06.7.05.22.13.42.24.6.11.18.26.32.44.43.19.12.42.17.7.17zm6.37.64a.98.98 0 0 1-.07-.25l-.05-.3a2.4 2.4 0 0 1-.64.45 1.97 1.97 0 0 1-.87.2 2.1 2.1 0 0 1-.73-.12c-.22-.09-.4-.2-.56-.34a1.46 1.46 0 0 1-.49-1.1 1.5 1.5 0 0 1 .64-1.3c.2-.15.46-.26.75-.33.3-.08.62-.11.98-.11h.9v-.42c0-.31-.1-.57-.28-.75-.19-.19-.47-.28-.84-.28-.17 0-.32.02-.46.07-.14.04-.26.1-.36.18a.85.85 0 0 0-.23.26c-.06.1-.08.21-.08.32h-.91c0-.19.05-.37.15-.56.1-.19.24-.35.42-.5.18-.15.4-.27.66-.36a2.73 2.73 0 0 1 1.66-.03 1.53 1.53 0 0 1 1.03.89c.1.22.15.48.15.77v2.46a3.64 3.64 0 0 0 .18 1.07v.08h-.95zm-1.5-.69a1.5 1.5 0 0 0 .85-.25 1.45 1.45 0 0 0 .51-.54v-1.08h-.75c-.52 0-.92.08-1.2.24a.79.79 0 0 0-.42.73c0 .13.03.24.07.35.04.12.1.21.19.29.09.08.2.14.32.2.12.04.27.06.43.06zm4.9-5.87v1.28h1v.7h-1v3.27c0 .14.02.25.06.33a.41.41 0 0 0 .31.28c.07.02.14.03.22.03l.23-.03.2-.03v.73a2.15 2.15 0 0 1-.7.1c-.16 0-.32-.03-.47-.07a.95.95 0 0 1-.38-.24c-.12-.11-.2-.26-.27-.44-.06-.18-.1-.4-.1-.66v-3.27h-.96v-.7h.96v-1.28h.9zM46.7 181h-.9v-5.28h.9V181zm-.98-6.68c0-.15.05-.27.14-.38.09-.1.22-.15.4-.15.17 0 .3.05.4.15.09.1.13.23.13.38 0 .14-.04.26-.13.36-.1.1-.23.15-.4.15-.18 0-.31-.05-.4-.15a.52.52 0 0 1-.14-.36zm2.19 3.99c0-.38.05-.74.16-1.07.12-.32.28-.6.48-.85a2.19 2.19 0 0 1 1.75-.77 2.2 2.2 0 0 1 1.77.77c.2.24.37.53.48.85.11.33.17.69.17 1.07v.1c0 .4-.06.75-.17 1.07a2.5 2.5 0 0 1-.48.85c-.2.24-.46.43-.76.57-.3.13-.63.2-1 .2s-.7-.07-1-.2a2.2 2.2 0 0 1-.76-.57c-.2-.24-.36-.52-.48-.85a3.27 3.27 0 0 1-.16-1.06v-.11zm.9.1c0 .27.03.52.1.75.06.24.15.44.28.62a1.33 1.33 0 0 0 1.13.58 1.33 1.33 0 0 0 1.12-.58c.12-.18.21-.38.28-.62.06-.23.1-.48.1-.74v-.11c0-.26-.04-.5-.1-.75a1.94 1.94 0 0 0-.29-.62 1.33 1.33 0 0 0-1.13-.58 1.29 1.29 0 0 0-1.11.58 1.9 1.9 0 0 0-.28.62c-.07.24-.1.49-.1.75v.1zm5.9-2.7l.02.67a1.96 1.96 0 0 1 1.58-.76c.26 0 .5.03.7.1.21.07.39.19.53.34.15.16.26.35.34.6.08.24.12.53.12.88V181h-.9v-3.47c0-.2-.02-.38-.07-.53a.87.87 0 0 0-.2-.35.8.8 0 0 0-.33-.2 1.5 1.5 0 0 0-1.23.17c-.22.16-.4.36-.52.62V181h-.9v-5.28h.85z"/><path fill="#353535" d="M22.38 199.03a2.95 2.95 0 0 1 2.34-1.1c.39 0 .74.05 1.05.16.31.1.58.27.8.5.22.23.39.53.5.9.13.36.19.8.19 1.32V206H25.9v-5.2c0-.32-.03-.58-.1-.8a1.3 1.3 0 0 0-.3-.53 1.2 1.2 0 0 0-.5-.3 2.24 2.24 0 0 0-1.84.26c-.34.23-.6.54-.78.92V206h-1.35v-11.25h1.35v4.28zm8.75-2.87v1.92h1.47v1.04h-1.47v4.92c0 .2.02.37.07.5.05.12.11.21.2.28.07.07.17.11.27.14a2.05 2.05 0 0 0 .68 0l.3-.06v1.1l-.43.1c-.17.03-.37.05-.62.05s-.48-.04-.7-.11a1.42 1.42 0 0 1-.59-.35c-.16-.17-.3-.39-.4-.66-.1-.27-.14-.6-.14-1v-4.9h-1.44v-1.05h1.44v-1.92h1.36zm4.9 0v1.92h1.47v1.04h-1.47v4.92c0 .2.02.37.07.5.05.12.11.21.2.28.07.07.17.11.27.14a2.05 2.05 0 0 0 .68 0l.3-.06v1.1l-.43.1c-.17.03-.37.05-.62.05s-.48-.04-.7-.11a1.42 1.42 0 0 1-.59-.35c-.16-.17-.3-.39-.4-.66-.1-.27-.14-.6-.14-1v-4.9h-1.44v-1.05h1.44v-1.92h1.36zm9.75 5.97c0 .58-.07 1.11-.2 1.6-.14.5-.34.92-.6 1.28-.26.36-.58.64-.96.84a3.37 3.37 0 0 1-2.61.07c-.38-.16-.7-.4-.97-.69v3.82H39.1v-10.97h1.23l.07.87c.27-.33.6-.58.97-.76.39-.17.83-.26 1.33-.26a2.76 2.76 0 0 1 2.3 1.12c.26.35.46.77.59 1.27.13.5.2 1.05.2 1.65v.16zm-1.35-.16c0-.4-.05-.77-.13-1.12a2.82 2.82 0 0 0-.39-.91c-.17-.27-.4-.48-.66-.63a2.28 2.28 0 0 0-1.59-.15 1.9 1.9 0 0 0-.91.57 2.6 2.6 0 0 0-.3.44v3.79c.08.15.18.3.3.43a1.81 1.81 0 0 0 .92.57c.19.05.4.08.63.08a1.84 1.84 0 0 0 1.61-.86c.18-.27.3-.58.4-.93.07-.35.12-.73.12-1.12v-.16zm7.69 1.93c0-.15-.03-.29-.07-.42a.87.87 0 0 0-.26-.36 1.94 1.94 0 0 0-.55-.32c-.24-.1-.56-.19-.95-.27-.44-.1-.83-.2-1.18-.33a3.63 3.63 0 0 1-.9-.46 1.89 1.89 0 0 1-.57-.63 1.98 1.98 0 0 1 .01-1.75c.14-.28.34-.53.6-.74.25-.21.55-.38.92-.5a3.7 3.7 0 0 1 1.2-.2c.48 0 .9.07 1.27.2.38.13.7.3.96.53a2.27 2.27 0 0 1 .8 1.75h-1.36c0-.16-.04-.32-.11-.48a1.33 1.33 0 0 0-.33-.44 1.66 1.66 0 0 0-.52-.32 2.3 2.3 0 0 0-1.43-.02c-.2.07-.36.15-.48.26a1.01 1.01 0 0 0-.37.8c0 .15.02.28.07.4s.14.23.28.32c.14.1.32.18.56.26.24.08.54.17.92.25.48.11.9.24 1.26.38s.65.3.89.5c.23.18.4.4.52.64.11.25.17.53.17.85a2.1 2.1 0 0 1-.83 1.7c-.27.2-.6.36-.97.47-.38.12-.8.18-1.25.18-.53 0-1-.08-1.4-.22-.4-.15-.74-.34-1.01-.59a2.47 2.47 0 0 1-.62-.82 2.28 2.28 0 0 1-.22-.96h1.36a1.42 1.42 0 0 0 .65 1.16c.18.12.38.2.6.25a2.9 2.9 0 0 0 1.37-.02c.21-.06.39-.14.53-.24a.95.95 0 0 0 .44-.81zm3.07 1.39c0-.23.07-.43.21-.59.14-.15.35-.23.63-.23s.49.08.63.23c.15.16.22.36.22.59 0 .22-.07.41-.22.56-.14.15-.35.23-.63.23s-.49-.08-.63-.23a.8.8 0 0 1-.2-.56zm.01-6.47c0-.23.07-.43.2-.58.15-.16.36-.24.64-.24.27 0 .48.08.63.24.14.15.21.35.21.58 0 .23-.07.41-.21.57-.15.15-.36.22-.63.22-.28 0-.5-.07-.63-.22a.8.8 0 0 1-.21-.57zm3.94 8.1h-1.16l4.45-11.58h1.16l-4.45 11.58zm6.18 0h-1.16l4.45-11.58h1.16l-4.45 11.58zm16.64-2.79l1.53-6.05h1.35l-2.3 7.92h-1.1l-1.93-6-1.88 6h-1.1l-2.3-7.92h1.35l1.56 5.93 1.85-5.93h1.1l1.87 6.05zm11.27 0l1.53-6.05h1.35l-2.3 7.92h-1.1l-1.93-6-1.87 6h-1.1l-2.3-7.92h1.35l1.56 5.93 1.84-5.93h1.1l1.87 6.05zm11.28 0l1.52-6.05h1.36l-2.31 7.92h-1.1l-1.93-6-1.87 6h-1.1l-2.3-7.92h1.35l1.56 5.93 1.84-5.93h1.1l1.88 6.05zm4.28 1.16c0-.23.07-.43.21-.59.14-.15.35-.23.63-.23.27 0 .49.08.63.23.14.16.22.36.22.59 0 .22-.08.41-.22.56-.14.15-.36.23-.63.23-.28 0-.5-.08-.63-.23a.8.8 0 0 1-.2-.56zm5.2-7.21l.03.87a2.88 2.88 0 0 1 2.35-1.02c.51 0 .97.1 1.36.3.4.2.7.53.9.97a3 3 0 0 1 2.53-1.27c.43 0 .8.05 1.13.16a2.04 2.04 0 0 1 1.35 1.41c.11.36.17.8.17 1.3v5.2h-1.35v-5.21c0-.34-.04-.61-.12-.83a1.3 1.3 0 0 0-.34-.53 1.21 1.21 0 0 0-.54-.27 2.93 2.93 0 0 0-.7-.08c-.27 0-.52.04-.73.13a1.72 1.72 0 0 0-.92.88c-.1.2-.15.42-.17.65V206h-1.37v-5.2c0-.32-.04-.58-.12-.8-.08-.21-.2-.39-.34-.53a1.34 1.34 0 0 0-.53-.3c-.2-.06-.44-.1-.7-.1-.48 0-.87.11-1.16.32-.3.21-.52.49-.66.82V206h-1.36v-7.92h1.28zm11.5 3.88c0-.57.1-1.1.26-1.6.17-.49.4-.91.72-1.27a3.29 3.29 0 0 1 2.62-1.16 3.31 3.31 0 0 1 2.65 1.16c.32.36.56.78.72 1.27.17.5.25 1.03.25 1.6v.17c0 .57-.08 1.1-.25 1.6-.16.49-.4.91-.71 1.27-.32.36-.7.64-1.14.84-.44.2-.94.3-1.5.3s-1.06-.1-1.5-.3a3.3 3.3 0 0 1-1.14-.84 3.79 3.79 0 0 1-.72-1.27 4.9 4.9 0 0 1-.25-1.6v-.17zm1.37.17c0 .4.05.76.14 1.12.1.35.23.66.42.92.19.27.42.48.7.64a2 2 0 0 0 .99.23 2 2 0 0 0 1.68-.87c.19-.26.33-.57.42-.92.1-.36.15-.73.15-1.12v-.17c0-.39-.05-.76-.15-1.11a2.9 2.9 0 0 0-.42-.93 1.99 1.99 0 0 0-1.7-.88 1.93 1.93 0 0 0-1.67.88c-.19.26-.33.57-.42.93-.1.35-.14.72-.14 1.11v.17zm8.83 2.76h4.63V206h-6.29v-1l4.37-5.8h-4.3v-1.12h6v.95l-4.41 5.86zm7.63 1.11h-1.36v-7.92h1.36V206zm-1.47-10.03c0-.22.07-.4.2-.55.14-.15.34-.23.6-.23.27 0 .47.08.6.23.14.15.2.33.2.55 0 .22-.06.4-.2.55-.13.15-.33.22-.6.22-.26 0-.46-.07-.6-.22a.78.78 0 0 1-.2-.55zm5.1 10.03h-1.35v-11.25h1.36V206zm3.65 0h-1.36v-11.25h1.36V206zm7.06 0c-.05-.1-.09-.22-.12-.37a6.4 6.4 0 0 1-.07-.46 3.6 3.6 0 0 1-.95.69 2.96 2.96 0 0 1-1.3.29c-.41 0-.78-.06-1.11-.19a2.57 2.57 0 0 1-.84-.5 2.2 2.2 0 0 1-.73-1.66 2.24 2.24 0 0 1 .96-1.94c.31-.22.69-.38 1.13-.5.44-.1.93-.16 1.47-.16h1.35v-.63c0-.47-.15-.85-.43-1.13-.28-.28-.7-.42-1.25-.42-.25 0-.49.03-.7.1-.2.07-.39.16-.54.28-.14.11-.26.25-.34.4a.98.98 0 0 0-.13.47h-1.36c0-.28.07-.56.22-.84.15-.28.36-.53.64-.75.27-.22.6-.4.99-.54s.82-.21 1.3-.21c.43 0 .83.05 1.19.16s.67.28.93.5c.26.22.47.5.61.83.15.33.22.72.22 1.17v3.68c0 .27.02.55.07.85.05.3.12.55.21.76v.12h-1.42zm-2.25-1.03a2.26 2.26 0 0 0 1.27-.37 2.18 2.18 0 0 0 .77-.82v-1.63h-1.13c-.78 0-1.38.13-1.8.37-.42.24-.63.6-.63 1.1 0 .18.04.36.1.53.06.16.16.3.29.43.13.12.29.21.47.28.2.07.41.1.66.1zm5.54.32c0-.23.07-.43.21-.59.14-.15.35-.23.63-.23s.49.08.63.23c.15.16.22.36.22.59 0 .22-.07.41-.22.56-.14.15-.35.23-.63.23s-.49-.08-.63-.23a.8.8 0 0 1-.2-.56zm3.56-3.33c0-.57.09-1.1.26-1.6.17-.49.4-.91.71-1.27a3.29 3.29 0 0 1 2.63-1.16 3.31 3.31 0 0 1 2.65 1.16c.31.36.55.78.72 1.27.17.5.25 1.03.25 1.6v.17c0 .57-.08 1.1-.25 1.6-.17.49-.4.91-.72 1.27-.31.36-.69.64-1.13.84-.45.2-.95.3-1.5.3a3.3 3.3 0 0 1-2.64-1.15 3.79 3.79 0 0 1-.72-1.26 4.9 4.9 0 0 1-.26-1.6v-.17zm1.37.17c0 .4.04.76.14 1.12.09.35.23.66.42.92a2 2 0 0 0 1.69.87 2 2 0 0 0 1.68-.87c.19-.26.33-.57.42-.92.1-.36.14-.73.14-1.12v-.17c0-.39-.04-.76-.14-1.11a2.9 2.9 0 0 0-.42-.93 1.99 1.99 0 0 0-1.7-.88 1.93 1.93 0 0 0-1.67.88c-.2.26-.33.57-.42.93-.1.35-.14.72-.14 1.11v.17zm11.38-2.84a3.58 3.58 0 0 0-.67-.05c-.47 0-.85.1-1.14.3-.3.21-.52.49-.67.84V206h-1.35v-7.92h1.32l.02.91a2.09 2.09 0 0 1 2.49-.96v1.26zm.92 2.68c0-.6.07-1.15.22-1.65.14-.5.35-.92.62-1.27.27-.36.6-.63.98-.83.4-.2.83-.3 1.3-.3.51 0 .95.1 1.32.27.37.18.69.43.95.76l.07-.87h1.24v7.75c0 .52-.09.99-.25 1.4a2.86 2.86 0 0 1-1.75 1.67 4.03 4.03 0 0 1-2.88-.08c-.27-.1-.53-.24-.78-.42-.25-.17-.46-.4-.64-.65l.7-.81a3.18 3.18 0 0 0 1.05.84 2.4 2.4 0 0 0 1.09.23c.32 0 .6-.04.86-.13a1.75 1.75 0 0 0 1.09-1.07c.1-.26.14-.57.14-.91v-.7c-.26.31-.57.54-.94.7a3.13 3.13 0 0 1-2.56-.05 2.9 2.9 0 0 1-.98-.84 3.98 3.98 0 0 1-.63-1.28 5.6 5.6 0 0 1-.22-1.6v-.16zm1.36.16c0 .4.04.76.12 1.11.08.35.2.66.38.91.17.26.38.47.65.62a2.23 2.23 0 0 0 1.6.14 1.96 1.96 0 0 0 1.22-1.08v-3.62a2.72 2.72 0 0 0-.3-.45 1.92 1.92 0 0 0-1.56-.68c-.38 0-.7.08-.96.23-.26.15-.48.36-.65.63-.17.26-.3.57-.38.91-.08.35-.12.73-.12 1.12v.16zm7.65 4.79h-1.16l4.45-11.58h1.16l-4.45 11.58zm9.2-.77c-.55 0-1.05-.1-1.5-.29a3.34 3.34 0 0 1-1.88-2 4.46 4.46 0 0 1-.25-1.54V202c0-.65.1-1.22.29-1.73.19-.5.45-.94.77-1.28a3.34 3.34 0 0 1 3.87-.77c.4.2.74.47 1.01.81.27.35.46.76.59 1.23.13.48.19 1 .19 1.55v.6h-5.37c.01.37.07.71.18 1.03.11.32.27.6.47.83a2.23 2.23 0 0 0 1.7.76c.48 0 .89-.1 1.22-.3.33-.19.62-.45.87-.77l.83.65a3.62 3.62 0 0 1-1.1 1.05c-.24.15-.52.26-.83.35-.31.08-.67.13-1.06.13zm-.17-7.1a1.87 1.87 0 0 0-1.37.58c-.18.19-.33.43-.45.7-.12.3-.2.62-.24.98h3.97v-.1a3.75 3.75 0 0 0-.13-.78c-.07-.26-.18-.5-.33-.7a1.7 1.7 0 0 0-.58-.5 1.81 1.81 0 0 0-.87-.19zm6.1-.97l.05 1a2.94 2.94 0 0 1 2.37-1.14c.4-.01.74.04 1.05.15.32.1.58.27.8.5.22.23.4.53.51.9.12.36.18.8.18 1.32V206h-1.35v-5.2c0-.32-.04-.58-.1-.8a1.3 1.3 0 0 0-.31-.53 1.2 1.2 0 0 0-.5-.3 2.24 2.24 0 0 0-1.84.26c-.33.23-.6.54-.78.92V206h-1.35v-7.92h1.28zm9.82 3.94h-3.57v-1.1h3.57v1.1zm9.04-6.68v7.22c0 .6-.1 1.12-.31 1.57-.21.45-.5.83-.85 1.12-.35.3-.76.52-1.23.67a4.98 4.98 0 0 1-3 0 3.12 3.12 0 0 1-2.03-1.8c-.2-.44-.3-.96-.3-1.56v-7.22h1.4v7.22c0 .41.05.77.17 1.08.12.3.29.56.5.76.22.2.48.35.78.45.3.1.63.15 1 .15s.7-.05 1-.15c.31-.1.57-.25.78-.45.22-.2.39-.46.5-.76a3 3 0 0 0 .18-1.08v-7.22h1.41zm7.9 7.96c0-.24-.03-.46-.1-.65a1.31 1.31 0 0 0-.41-.53 3.2 3.2 0 0 0-.78-.44 11.4 11.4 0 0 0-1.25-.43c-.52-.15-1-.33-1.43-.52a4.7 4.7 0 0 1-1.09-.67 2.44 2.44 0 0 1-.93-1.97 2.59 2.59 0 0 1 1-2.07c.3-.26.69-.46 1.13-.61.45-.15.94-.22 1.5-.22.6 0 1.13.09 1.6.27.46.18.86.42 1.18.72a3 3 0 0 1 .98 2.24h-1.42c0-.3-.05-.57-.14-.83-.1-.25-.24-.47-.44-.66-.2-.18-.44-.33-.73-.43-.3-.1-.64-.15-1.04-.15-.37 0-.7.04-.98.13s-.5.2-.69.36c-.18.15-.31.34-.4.55-.09.2-.13.44-.13.69 0 .22.04.42.14.61s.24.36.44.51c.2.16.46.3.78.44.31.13.69.25 1.13.38.6.17 1.12.36 1.56.56.44.21.8.45 1.1.71a2.57 2.57 0 0 1 .84 2 2.58 2.58 0 0 1-1.01 2.08c-.33.25-.72.44-1.18.58a5.4 5.4 0 0 1-4.28-.62c-.26-.18-.48-.4-.67-.63a2.82 2.82 0 0 1-.61-1.8h1.41c0 .38.07.69.22.95.14.26.34.48.58.65.24.17.52.3.83.38.32.08.65.12 1 .12.74 0 1.3-.15 1.7-.46.4-.3.6-.71.6-1.24zm3.28 3.62h-1.17l4.46-11.58h1.15l-4.44 11.58zM22.75 132h-1.41v-10.66h1.4V132zm3.64-7.92l.04 1a2.94 2.94 0 0 1 2.37-1.14c.39-.01.74.04 1.05.15.31.1.58.27.8.5.22.23.39.53.5.9.13.36.19.8.19 1.32V132h-1.36v-5.2c0-.32-.03-.58-.1-.8a1.3 1.3 0 0 0-.3-.53 1.2 1.2 0 0 0-.5-.3 2.24 2.24 0 0 0-1.84.26c-.34.23-.6.54-.78.92V132H25.1v-7.92h1.29zm8.83-1.92v1.92h1.48v1.04h-1.48v4.92c0 .2.02.37.07.5.05.12.12.21.2.28.08.07.17.11.28.14a2.05 2.05 0 0 0 .68 0l.29-.06v1.1l-.42.1c-.17.03-.38.05-.62.05-.25 0-.49-.04-.71-.11a1.42 1.42 0 0 1-.58-.35c-.17-.17-.3-.39-.4-.66-.1-.27-.15-.6-.15-1v-4.9h-1.44v-1.05h1.44v-1.92h1.36zm6.35 9.99c-.55 0-1.05-.1-1.5-.29a3.34 3.34 0 0 1-1.88-2 4.46 4.46 0 0 1-.25-1.54V128c0-.65.1-1.22.29-1.73.19-.5.45-.94.77-1.28a3.34 3.34 0 0 1 3.87-.77c.4.2.74.47 1.01.81.27.35.46.76.59 1.23.13.48.2 1 .2 1.55v.6h-5.38c.01.37.07.71.18 1.03.11.32.27.6.47.83a2.23 2.23 0 0 0 1.7.76c.48 0 .89-.1 1.22-.3.33-.19.62-.45.87-.77l.83.65a3.62 3.62 0 0 1-1.1 1.05c-.24.15-.52.26-.83.35-.31.08-.66.13-1.06.13zm-.17-7.1a1.87 1.87 0 0 0-1.37.58c-.18.19-.33.43-.45.7-.12.3-.2.62-.24.98h3.97v-.1a3.75 3.75 0 0 0-.13-.78c-.07-.26-.18-.5-.33-.7a1.7 1.7 0 0 0-.58-.5 1.81 1.81 0 0 0-.87-.19zm8.66.24a3.58 3.58 0 0 0-.67-.05c-.47 0-.85.1-1.14.3-.3.21-.52.49-.67.83V132h-1.35v-7.92h1.32l.02.91a2.09 2.09 0 0 1 2.49-.96v1.26zm2.53-1.21l.04 1a2.94 2.94 0 0 1 2.37-1.14c.39-.01.74.04 1.05.15.31.1.58.27.8.5.22.23.39.53.5.9.13.36.19.8.19 1.32V132h-1.36v-5.2c0-.32-.03-.58-.1-.8a1.3 1.3 0 0 0-.3-.53 1.2 1.2 0 0 0-.5-.3 2.24 2.24 0 0 0-1.84.26c-.34.23-.6.54-.78.92V132H51.3v-7.92h1.29zm10.28 8.07c-.55 0-1.05-.1-1.5-.29a3.34 3.34 0 0 1-1.88-2 4.46 4.46 0 0 1-.25-1.54V128c0-.65.1-1.22.29-1.73.19-.5.45-.94.77-1.28a3.34 3.34 0 0 1 3.87-.77c.4.2.74.47 1 .81.28.35.47.76.6 1.23.13.48.19 1 .19 1.55v.6h-5.37c.01.37.07.71.18 1.03.11.32.27.6.47.83a2.23 2.23 0 0 0 1.7.76c.48 0 .89-.1 1.22-.3.33-.19.62-.45.87-.77l.83.65a3.62 3.62 0 0 1-1.1 1.05c-.24.15-.52.26-.83.35-.31.08-.67.13-1.06.13zm-.17-7.1a1.87 1.87 0 0 0-1.37.58c-.18.19-.33.43-.45.7-.12.3-.2.62-.25.98h3.97v-.1a3.75 3.75 0 0 0-.12-.78c-.07-.26-.18-.5-.33-.7a1.7 1.7 0 0 0-.58-.5 1.81 1.81 0 0 0-.87-.19zm6.67-2.9v1.93h1.47v1.04h-1.47v4.92c0 .2.02.37.07.5.05.12.11.21.2.28.07.07.17.11.27.14a2.05 2.05 0 0 0 .68 0l.3-.06v1.1l-.43.1c-.17.03-.37.05-.62.05s-.48-.04-.7-.11a1.42 1.42 0 0 1-.59-.35c-.16-.17-.3-.39-.4-.66-.1-.27-.14-.6-.14-1v-4.9h-1.44v-1.05H68v-1.92h1.36zM76.8 132v-6.88h-1.26v-1.04h1.26v-.84c0-.42.06-.8.18-1.13.12-.33.29-.6.51-.83.23-.23.5-.4.82-.51a3.56 3.56 0 0 1 2.02-.05l-.07 1.1a3.76 3.76 0 0 0-.73-.07c-.44 0-.78.13-1.02.39-.24.25-.36.62-.36 1.1v.84h1.7v1.04h-1.7V132h-1.35zm4.18-4.04c0-.57.08-1.1.25-1.6.17-.49.4-.91.72-1.27a3.29 3.29 0 0 1 2.62-1.16 3.31 3.31 0 0 1 2.65 1.16c.32.36.56.78.72 1.27.17.5.25 1.03.25 1.6v.17c0 .57-.08 1.1-.25 1.6-.16.49-.4.91-.71 1.27-.32.36-.7.64-1.14.84-.44.2-.94.3-1.5.3s-1.06-.1-1.5-.3a3.3 3.3 0 0 1-1.14-.84 3.79 3.79 0 0 1-.72-1.27 4.9 4.9 0 0 1-.25-1.6v-.17zm1.36.17c0 .4.05.76.14 1.12.1.35.23.66.42.92.19.27.42.48.7.64a2 2 0 0 0 .99.23 2 2 0 0 0 1.68-.87c.19-.26.33-.57.43-.92.1-.36.14-.73.14-1.12v-.17c0-.39-.05-.76-.14-1.11a2.9 2.9 0 0 0-.43-.93 1.99 1.99 0 0 0-1.7-.88 1.93 1.93 0 0 0-1.67.88c-.19.26-.33.57-.42.93-.1.35-.14.72-.14 1.11v.17zm11.38-2.84a3.58 3.58 0 0 0-.66-.05c-.47 0-.85.1-1.15.3-.3.21-.52.49-.66.83V132H89.9v-7.92h1.32l.02.91a2.09 2.09 0 0 1 2.49-.96v1.26zm11.66 2.84c0 .58-.07 1.11-.2 1.6-.15.5-.35.92-.6 1.28a2.76 2.76 0 0 1-2.27 1.14c-.5 0-.94-.08-1.31-.24-.37-.15-.7-.38-.96-.68v3.82h-1.36v-10.97h1.24l.07.87c.26-.33.59-.58.97-.76.38-.17.82-.26 1.32-.26a2.76 2.76 0 0 1 2.3 1.12c.26.35.46.77.6 1.27.13.5.2 1.05.2 1.65v.16zm-1.36-.16c0-.4-.04-.77-.12-1.12a2.82 2.82 0 0 0-.4-.91c-.17-.27-.39-.48-.66-.63a2.28 2.28 0 0 0-1.59-.15 1.9 1.9 0 0 0-.9.57 2.6 2.6 0 0 0-.31.44v3.79c.08.15.19.3.3.43a1.81 1.81 0 0 0 .92.57c.19.05.4.08.64.08a1.84 1.84 0 0 0 1.6-.86c.18-.27.31-.58.4-.93.08-.35.12-.73.12-1.12v-.16zm6.37 4.18c-.56 0-1.06-.1-1.5-.29a3.34 3.34 0 0 1-1.88-2 4.46 4.46 0 0 1-.26-1.54V128c0-.65.1-1.22.3-1.73.18-.5.44-.94.76-1.28a3.34 3.34 0 0 1 3.87-.77c.41.2.75.47 1.02.81.26.35.46.76.59 1.23.12.48.19 1 .19 1.55v.6h-5.37c0 .37.07.71.18 1.03.1.32.26.6.47.83a2.23 2.23 0 0 0 1.7.76c.48 0 .88-.1 1.21-.3.34-.19.63-.45.88-.77l.82.65a3.62 3.62 0 0 1-1.1 1.05c-.23.15-.51.26-.82.35-.31.08-.67.13-1.06.13zm-.17-7.1a1.87 1.87 0 0 0-1.37.58c-.18.19-.33.43-.45.7-.12.3-.2.62-.25.98h3.97v-.1a3.75 3.75 0 0 0-.13-.78c-.07-.26-.18-.5-.33-.7a1.7 1.7 0 0 0-.57-.5 1.81 1.81 0 0 0-.87-.19zm4.46 2.91c0-.57.09-1.1.26-1.6.17-.49.4-.91.72-1.27a3.29 3.29 0 0 1 2.62-1.16 3.31 3.31 0 0 1 2.65 1.16c.31.36.55.78.72 1.27.17.5.25 1.03.25 1.6v.17c0 .57-.08 1.1-.25 1.6-.17.49-.4.91-.72 1.27-.31.36-.69.64-1.13.84-.45.2-.95.3-1.5.3a3.3 3.3 0 0 1-2.64-1.15 3.79 3.79 0 0 1-.72-1.26 4.9 4.9 0 0 1-.26-1.6v-.17zm1.37.17c0 .4.04.76.14 1.12.09.35.23.66.42.92.19.27.42.48.7.64a2 2 0 0 0 .99.23 2 2 0 0 0 1.68-.87c.19-.26.33-.57.42-.92.1-.36.14-.73.14-1.12v-.17c0-.39-.04-.76-.14-1.11a2.9 2.9 0 0 0-.42-.93 1.99 1.99 0 0 0-1.7-.88 1.93 1.93 0 0 0-1.67.88c-.2.26-.33.57-.42.93-.1.35-.14.72-.14 1.11v.17zm14.24 0c0 .58-.07 1.11-.2 1.6-.14.5-.34.92-.6 1.28-.26.36-.58.64-.96.84a3.37 3.37 0 0 1-2.61.07c-.38-.16-.7-.4-.97-.69v3.82h-1.35v-10.97h1.24l.06.87c.27-.33.6-.58.98-.76.38-.17.82-.26 1.32-.26a2.76 2.76 0 0 1 2.3 1.12c.26.35.46.77.6 1.27.13.5.2 1.05.2 1.65v.16zm-1.35-.16c0-.4-.04-.77-.13-1.12a2.82 2.82 0 0 0-.38-.91c-.18-.27-.4-.48-.67-.63a2.28 2.28 0 0 0-1.59-.15 1.9 1.9 0 0 0-.9.57 2.6 2.6 0 0 0-.32.44v3.79c.1.15.2.3.31.43a1.81 1.81 0 0 0 .92.57c.19.05.4.08.63.08a1.84 1.84 0 0 0 1.62-.86c.17-.27.3-.58.38-.93.09-.35.13-.73.13-1.12v-.16zm4.55 4.03h-1.36v-11.25h1.36V132zm5.45.15c-.55 0-1.05-.1-1.5-.29a3.34 3.34 0 0 1-1.87-2 4.46 4.46 0 0 1-.26-1.54V128c0-.65.1-1.22.29-1.73.2-.5.45-.94.77-1.28a3.34 3.34 0 0 1 3.87-.77c.4.2.75.47 1.01.81.27.35.47.76.6 1.23.12.48.18 1 .18 1.55v.6h-5.37c.01.37.07.71.18 1.03.11.32.27.6.47.83a2.23 2.23 0 0 0 1.7.76c.48 0 .89-.1 1.22-.3.33-.19.62-.45.87-.77l.83.65a3.62 3.62 0 0 1-1.1 1.05c-.24.15-.51.26-.83.35-.3.08-.66.13-1.06.13zm-.17-7.1a1.87 1.87 0 0 0-1.37.58c-.18.19-.33.43-.45.7-.12.3-.2.62-.24.98h3.97v-.1a3.75 3.75 0 0 0-.13-.78c-.07-.26-.18-.5-.33-.7a1.7 1.7 0 0 0-.57-.5 1.81 1.81 0 0 0-.88-.19zm6.06 6.43a3.62 3.62 0 0 1-.73 2.07 3 3 0 0 1-.54.57l-.77-.52c.23-.33.4-.66.53-1 .12-.34.19-.7.19-1.1v-1.1h1.32v1.08zm6.71-7.4l.04 1a2.94 2.94 0 0 1 2.37-1.14c.4-.01.74.04 1.05.15.32.1.58.27.8.5.22.23.4.53.51.9.12.36.18.8.18 1.32V132h-1.35v-5.2c0-.32-.04-.58-.1-.8a1.3 1.3 0 0 0-.31-.53 1.2 1.2 0 0 0-.5-.3 2.24 2.24 0 0 0-1.84.26c-.33.23-.6.54-.78.92V132h-1.35v-7.92h1.28zm6.64 3.88c0-.57.08-1.1.25-1.6.17-.49.4-.91.72-1.27a3.29 3.29 0 0 1 2.62-1.16 3.31 3.31 0 0 1 2.65 1.16c.32.36.56.78.72 1.27.17.5.25 1.03.25 1.6v.17c0 .57-.08 1.1-.25 1.6-.16.49-.4.91-.72 1.27-.3.36-.69.64-1.13.84-.45.2-.95.3-1.5.3a3.3 3.3 0 0 1-2.64-1.15 3.79 3.79 0 0 1-.72-1.26 4.9 4.9 0 0 1-.25-1.6v-.17zm1.36.17c0 .4.04.76.14 1.12.09.35.23.66.42.92.19.27.42.48.7.64a2 2 0 0 0 .99.23 2 2 0 0 0 1.68-.87c.19-.26.33-.57.42-.92.1-.36.15-.73.15-1.12v-.17c0-.39-.05-.76-.15-1.11a2.9 2.9 0 0 0-.42-.93 1.99 1.99 0 0 0-1.7-.88 1.93 1.93 0 0 0-1.67.88c-.19.26-.33.57-.42.93-.1.35-.14.72-.14 1.11v.17zm9.39-5.97v1.92h1.48v1.04h-1.48v4.92c0 .2.02.37.07.5.05.12.11.21.2.28.08.07.17.11.27.14a2.05 2.05 0 0 0 .68 0l.3-.06v1.1l-.42.1c-.17.03-.38.05-.63.05-.24 0-.48-.04-.7-.11a1.42 1.42 0 0 1-.59-.35c-.16-.17-.3-.39-.4-.66-.09-.27-.14-.6-.14-1v-4.9h-1.44v-1.05h1.44v-1.92h1.36zm13.47 5.97c0 .58-.07 1.11-.2 1.6-.14.5-.34.92-.6 1.28a2.76 2.76 0 0 1-2.27 1.14c-.5 0-.94-.08-1.3-.24-.38-.15-.7-.38-.97-.68v3.82h-1.36v-10.97h1.24l.07.87c.27-.33.59-.58.97-.76.38-.17.82-.26 1.33-.26a2.76 2.76 0 0 1 2.3 1.12c.25.35.45.77.59 1.27.13.5.2 1.05.2 1.65v.16zm-1.36-.16c0-.4-.04-.77-.12-1.12a2.82 2.82 0 0 0-.39-.91c-.18-.27-.4-.48-.67-.63a2.28 2.28 0 0 0-1.59-.15 1.9 1.9 0 0 0-.9.57 2.6 2.6 0 0 0-.31.44v3.79c.09.15.19.3.3.43a1.81 1.81 0 0 0 .92.57c.2.05.4.08.64.08a1.84 1.84 0 0 0 1.61-.86c.18-.27.3-.58.39-.93.08-.35.12-.73.12-1.12v-.16zm6.9-2.68a3.58 3.58 0 0 0-.66-.05c-.47 0-.85.1-1.14.3-.3.21-.52.49-.67.83V132h-1.35v-7.92h1.32l.02.91a2.09 2.09 0 0 1 2.49-.96v1.26zm.75 2.67c0-.57.08-1.1.25-1.6.17-.49.4-.91.72-1.27a3.29 3.29 0 0 1 2.62-1.16 3.31 3.31 0 0 1 2.65 1.16c.32.36.56.78.72 1.27.17.5.25 1.03.25 1.6v.17c0 .57-.08 1.1-.25 1.6-.16.49-.4.91-.71 1.27-.32.36-.7.64-1.14.84-.44.2-.94.3-1.5.3s-1.06-.1-1.5-.3a3.3 3.3 0 0 1-1.14-.84 3.79 3.79 0 0 1-.72-1.27 4.9 4.9 0 0 1-.25-1.6v-.17zm1.36.17c0 .4.05.76.14 1.12.1.35.23.66.42.92.19.27.42.48.7.64a2 2 0 0 0 .99.23 2 2 0 0 0 1.68-.87c.19-.26.33-.57.43-.92.09-.36.14-.73.14-1.12v-.17c0-.39-.05-.76-.14-1.11a2.9 2.9 0 0 0-.43-.93 1.99 1.99 0 0 0-1.7-.88 1.93 1.93 0 0 0-1.67.88c-.19.26-.33.57-.42.93-.1.35-.14.72-.14 1.11v.17zm8 3.87v-6.88h-1.25v-1.04h1.26v-.7c0-.44.06-.84.2-1.19a2.37 2.37 0 0 1 1.48-1.41 4.17 4.17 0 0 1 2.25-.05c.34.08.68.19 1.04.31l-.23 1.15a6.74 6.74 0 0 0-.77-.25c-.3-.08-.62-.12-.97-.12-.58 0-1 .13-1.26.4-.25.25-.38.64-.38 1.17v.69h1.62v1.04h-1.62V132h-1.36zm5.65 0h-1.36v-7.92h1.36V132zm4.05-9.84v1.92h1.48v1.04h-1.48v4.92c0 .2.02.37.07.5.05.12.11.21.2.28.07.07.17.11.27.14a2.05 2.05 0 0 0 .68 0l.3-.06v1.1l-.43.1c-.17.03-.37.05-.62.05s-.48-.04-.7-.11a1.42 1.42 0 0 1-.59-.35c-.16-.17-.3-.39-.4-.66-.09-.27-.14-.6-.14-1v-4.9h-1.44v-1.05h1.44v-1.92h1.36zm4.85 3.96h9.36v1h-9.36v-1zm15.24-4.78l3.48 8.7 3.49-8.7h1.82V132h-1.4v-4.15l.13-4.49-3.5 8.64h-1.08l-3.5-8.61.15 4.46V132h-1.41v-10.66h1.82zm10.7 6.62c0-.57.09-1.1.26-1.6.17-.49.4-.91.72-1.27a3.29 3.29 0 0 1 2.62-1.16 3.31 3.31 0 0 1 2.65 1.16c.31.36.55.78.72 1.27.17.5.25 1.03.25 1.6v.17c0 .57-.08 1.1-.25 1.6-.17.49-.4.91-.72 1.27-.31.36-.69.64-1.13.84-.45.2-.95.3-1.5.3a3.3 3.3 0 0 1-2.64-1.15 3.79 3.79 0 0 1-.72-1.26 4.9 4.9 0 0 1-.26-1.6v-.17zm1.37.17c0 .4.04.76.14 1.12.09.35.23.66.42.92.19.27.42.48.7.64a2 2 0 0 0 .99.23 2 2 0 0 0 1.68-.87c.19-.26.33-.57.42-.92.1-.36.14-.73.14-1.12v-.17c0-.39-.04-.76-.14-1.11a2.9 2.9 0 0 0-.42-.93 1.99 1.99 0 0 0-1.7-.88 1.93 1.93 0 0 0-1.67.88c-.2.26-.33.57-.42.93-.1.35-.14.72-.14 1.11v.17zm8.7 2.76h4.64V132h-6.29v-1l4.37-5.8h-4.3v-1.12h6v.95l-4.41 5.86zm7.64 1.11h-1.36v-7.92h1.36V132zm-1.47-10.03c0-.22.07-.4.2-.55.14-.15.34-.23.6-.23.26 0 .46.08.6.23.14.15.2.33.2.55 0 .22-.06.4-.2.55-.14.15-.34.22-.6.22-.26 0-.46-.07-.6-.22a.78.78 0 0 1-.2-.55zm5.1 10.03h-1.35v-11.25h1.36V132zm3.65 0h-1.36v-11.25h1.36V132zm7.06 0c-.05-.1-.09-.22-.12-.37a6.4 6.4 0 0 1-.07-.46 3.6 3.6 0 0 1-.95.69 2.96 2.96 0 0 1-1.3.29c-.41 0-.78-.06-1.11-.19a2.57 2.57 0 0 1-.84-.5 2.2 2.2 0 0 1-.73-1.66 2.24 2.24 0 0 1 .96-1.94c.31-.22.69-.38 1.13-.5.44-.1.93-.16 1.47-.16h1.35v-.63c0-.47-.15-.85-.43-1.13-.28-.28-.7-.42-1.25-.42-.26 0-.49.03-.7.1-.2.07-.39.16-.54.28-.14.11-.26.25-.34.4a.98.98 0 0 0-.13.47h-1.36c0-.28.07-.56.22-.84.15-.28.36-.53.64-.75.27-.22.6-.4.99-.54s.82-.21 1.3-.21c.43 0 .83.05 1.19.16s.67.28.93.5c.26.22.46.5.61.83.15.33.22.72.22 1.17v3.68c0 .27.02.55.07.85.05.3.12.55.2.76v.12h-1.41zm-2.25-1.03a2.26 2.26 0 0 0 1.27-.37 2.18 2.18 0 0 0 .77-.82v-1.63h-1.13c-.78 0-1.38.13-1.8.37-.42.24-.63.6-.63 1.1 0 .18.04.36.1.53.06.16.16.3.29.43.13.12.29.21.47.28.2.07.41.1.66.1z"/><path fill="#FFFFFF" fill-rule="nonzero" d="M29.43 51.99l5.29-5.3a1 1 0 0 0-1.41-1.4L28 50.56l-5.3-5.29a1 1 0 0 0-1.4 1.41L26.6 52l-5.3 5.3a1 1 0 1 0 1.42 1.4l5.3-5.29 5.29 5.3a1 1 0 0 0 1.4-1.42l-5.28-5.3z"/><rect width="320" height="1" x="20" y="213" fill="#CBCBCB"/><path fill="#BCBDBF" d="M21.76 252.22V255h-.93v-7.1h2.62c.4 0 .76.04 1.07.15.3.1.57.26.78.45.2.2.36.43.47.7a2.42 2.42 0 0 1 0 1.79c-.1.26-.26.48-.47.67-.21.18-.47.32-.78.41-.31.1-.67.15-1.07.15h-1.69zm0-.77h1.69c.27 0 .5-.03.7-.1.2-.07.36-.17.49-.29.12-.12.21-.26.27-.43a1.67 1.67 0 0 0 0-1.09 1.2 1.2 0 0 0-.27-.45 1.35 1.35 0 0 0-.49-.31c-.2-.08-.43-.12-.7-.12h-1.69v2.79zM30.2 255a.98.98 0 0 1-.08-.25l-.05-.3a2.4 2.4 0 0 1-.63.45 1.97 1.97 0 0 1-.87.2 2.1 2.1 0 0 1-.74-.12c-.22-.09-.4-.2-.56-.34a1.46 1.46 0 0 1-.48-1.1c0-.29.05-.54.16-.75.11-.22.27-.4.48-.55.2-.15.46-.26.75-.33.3-.08.62-.11.98-.11h.9v-.42c0-.31-.1-.57-.28-.75-.2-.19-.47-.28-.84-.28-.17 0-.32.02-.46.07-.14.04-.26.1-.36.18a.85.85 0 0 0-.23.26c-.06.1-.09.21-.09.32h-.9c0-.19.04-.37.14-.56.1-.19.24-.35.43-.5.18-.15.4-.27.66-.36a2.73 2.73 0 0 1 1.66-.03 1.53 1.53 0 0 1 1.03.89c.1.22.14.48.14.77v2.46a3.64 3.64 0 0 0 .19 1.07v.08h-.95zm-1.5-.69a1.5 1.5 0 0 0 .85-.25 1.45 1.45 0 0 0 .5-.54v-1.08h-.74c-.52 0-.92.08-1.2.24a.79.79 0 0 0-.42.73c0 .13.02.24.06.35.05.12.11.21.2.29.08.08.19.14.31.2.13.04.28.06.44.06zm6.23-3.78a2.39 2.39 0 0 0-.44-.04c-.32 0-.57.07-.77.2-.2.14-.34.33-.44.56V255h-.9v-5.28h.88l.01.6a1.4 1.4 0 0 1 1.66-.64v.85zm2.93 4.57c-.37 0-.7-.07-1-.2a2.23 2.23 0 0 1-1.25-1.33 2.97 2.97 0 0 1-.17-1.03v-.2c0-.43.06-.81.2-1.15a2.23 2.23 0 0 1 3.1-1.37c.26.13.48.31.66.54.18.23.31.5.4.82.08.32.12.66.12 1.03v.4h-3.58c0 .25.05.48.12.7.08.2.18.39.31.54a1.49 1.49 0 0 0 1.14.51c.32 0 .59-.06.81-.2.22-.13.42-.3.58-.51l.55.43a2.41 2.41 0 0 1-.73.7c-.16.1-.34.18-.55.23-.2.06-.44.09-.7.09zm-.11-4.74a1.24 1.24 0 0 0-.91.4c-.12.12-.22.28-.3.47-.08.18-.14.4-.17.65h2.65v-.07a2.5 2.5 0 0 0-.09-.53 1.42 1.42 0 0 0-.22-.46c-.1-.14-.22-.25-.38-.33a1.2 1.2 0 0 0-.58-.13zm4.07-.64l.03.66a1.96 1.96 0 0 1 1.58-.76c.26 0 .5.03.7.1.2.07.39.19.53.34.15.16.26.35.34.6.08.24.12.53.12.88V255h-.9v-3.47c0-.2-.02-.38-.07-.53a.87.87 0 0 0-.2-.35.8.8 0 0 0-.33-.2 1.5 1.5 0 0 0-1.23.17c-.22.16-.4.36-.52.62V255h-.9v-5.28h.85zm5.89-1.28v1.28h.99v.7h-.99v3.27c0 .14.02.25.05.33a.41.41 0 0 0 .31.28c.07.02.15.03.22.03l.24-.03.2-.03v.73a2.15 2.15 0 0 1-.7.1c-.17 0-.33-.03-.47-.07a.95.95 0 0 1-.4-.24c-.1-.11-.2-.26-.26-.44s-.1-.4-.1-.66v-3.27h-.96v-.7h.97v-1.28h.9zm8.58 3.42H53.3V255h-.94v-7.1h4.4v.76h-3.46v2.43h2.98v.77zm1.12.45c0-.38.06-.74.17-1.07.11-.32.27-.6.48-.85a2.19 2.19 0 0 1 1.75-.77 2.2 2.2 0 0 1 1.77.77c.2.24.36.53.48.85.1.33.16.69.16 1.07v.1c0 .4-.05.75-.16 1.07a2.5 2.5 0 0 1-.48.85c-.21.24-.46.43-.76.57-.3.13-.63.2-1 .2s-.7-.07-1-.2a2.2 2.2 0 0 1-.76-.57c-.2-.24-.37-.52-.48-.85a3.27 3.27 0 0 1-.17-1.06v-.11zm.91.1c0 .27.03.52.1.75.05.24.15.44.27.62a1.33 1.33 0 0 0 1.13.58 1.33 1.33 0 0 0 1.12-.58c.13-.18.22-.38.28-.62.07-.23.1-.48.1-.74v-.11c0-.26-.03-.5-.1-.75a1.94 1.94 0 0 0-.28-.62 1.33 1.33 0 0 0-1.13-.58 1.29 1.29 0 0 0-1.12.58 1.9 1.9 0 0 0-.28.62c-.06.24-.09.49-.09.75v.1zm6.02 2.59h-.9v-7.5h.9v7.5zm1.22-2.69c0-.4.05-.77.15-1.1.1-.33.24-.61.42-.85a1.86 1.86 0 0 1 1.51-.74 1.78 1.78 0 0 1 1.47.63v-2.75h.91v7.5h-.83l-.04-.57c-.18.22-.4.38-.64.5a2.07 2.07 0 0 1-1.72-.03 1.96 1.96 0 0 1-.66-.56 2.66 2.66 0 0 1-.42-.85c-.1-.33-.15-.69-.15-1.07v-.1zm.9.1c0 .27.03.52.09.75.05.23.13.44.25.61.11.17.26.3.43.41a1.52 1.52 0 0 0 1.06.1 1.26 1.26 0 0 0 .62-.4c.08-.1.15-.2.2-.32v-2.43c-.05-.1-.12-.2-.2-.3a1.26 1.26 0 0 0-.61-.39 1.5 1.5 0 0 0-1.07.1c-.17.1-.32.24-.43.42-.12.17-.2.38-.25.61a3.3 3.3 0 0 0-.09.74v.1zm7.15 2.69c-.36 0-.7-.07-1-.2a2.23 2.23 0 0 1-1.25-1.33 2.97 2.97 0 0 1-.17-1.03v-.2c0-.43.07-.81.2-1.15a2.23 2.23 0 0 1 3.1-1.37c.26.13.49.31.66.54.18.23.31.5.4.82.08.32.12.66.12 1.03v.4H72.1c.01.25.05.48.12.7.08.2.18.39.32.54a1.49 1.49 0 0 0 1.13.51c.32 0 .6-.06.81-.2.22-.13.42-.3.58-.51l.56.43a2.41 2.41 0 0 1-.73.7c-.17.1-.35.18-.56.23-.2.06-.44.09-.7.09zm-.1-4.74a1.24 1.24 0 0 0-.92.4c-.12.12-.22.28-.3.47-.08.18-.14.4-.17.65h2.65v-.07a2.5 2.5 0 0 0-.08-.53 1.42 1.42 0 0 0-.22-.46c-.1-.14-.23-.25-.39-.33a1.2 1.2 0 0 0-.58-.13zm5.76.17a2.39 2.39 0 0 0-.44-.04c-.31 0-.57.07-.77.2-.2.14-.34.33-.44.56V255h-.9v-5.28h.88l.01.6c.14-.21.31-.38.52-.51a1.4 1.4 0 0 1 1.14-.12v.84z"/><path fill="#353535" d="M23.05 269.34l3.5 8.7 3.48-8.7h1.82V280h-1.4v-4.15l.13-4.49-3.5 8.64H26l-3.5-8.61.14 4.46V280h-1.4v-10.66h1.81zm10.71 6.62c0-.57.09-1.1.25-1.6.17-.49.41-.91.72-1.27a3.29 3.29 0 0 1 2.63-1.16 3.31 3.31 0 0 1 2.65 1.16c.31.36.55.78.72 1.27.16.5.25 1.03.25 1.6v.17c0 .57-.09 1.1-.25 1.6-.17.49-.4.91-.72 1.27-.31.36-.7.64-1.14.84-.44.2-.94.3-1.5.3a3.3 3.3 0 0 1-2.64-1.15 3.79 3.79 0 0 1-.72-1.26 4.9 4.9 0 0 1-.25-1.6v-.17zm1.36.17c0 .4.05.76.14 1.12.1.35.24.66.42.92.2.27.43.48.7.64a2 2 0 0 0 1 .23 2 2 0 0 0 1.68-.87c.18-.26.32-.57.42-.92.1-.36.14-.73.14-1.12v-.17c0-.39-.05-.76-.14-1.11a2.9 2.9 0 0 0-.43-.93 1.99 1.99 0 0 0-1.7-.88 1.93 1.93 0 0 0-1.67.88c-.18.26-.32.57-.42.93-.09.35-.14.72-.14 1.11v.17zm14.26 0c0 .58-.06 1.11-.2 1.6-.14.5-.34.92-.6 1.28a2.76 2.76 0 0 1-2.27 1.14c-.52 0-.98-.1-1.36-.28-.38-.18-.7-.44-.96-.79l-.07.92h-1.24v-11.25h1.35v4.2a2.69 2.69 0 0 1 2.26-1.02 2.73 2.73 0 0 1 2.29 1.12c.26.35.46.77.6 1.27.14.5.2 1.05.2 1.65v.16zm-1.35-.16c0-.4-.04-.77-.11-1.12-.07-.34-.2-.65-.36-.91a1.83 1.83 0 0 0-.64-.63 1.89 1.89 0 0 0-.96-.23c-.25 0-.48.03-.68.1a1.94 1.94 0 0 0-.95.65c-.12.15-.22.32-.3.5v3.42c.09.18.2.34.31.5a2 2 0 0 0 .96.65 2.22 2.22 0 0 0 1.6-.13c.27-.15.48-.36.65-.62.16-.25.28-.56.36-.9.08-.36.12-.73.12-1.12v-.16zm4.53 4.03h-1.35v-7.92h1.35V280zm-1.46-10.03c0-.22.07-.4.2-.55.13-.15.33-.23.6-.23.26 0 .46.08.6.23.13.15.2.33.2.55 0 .22-.07.4-.2.55-.14.15-.34.22-.6.22-.27 0-.47-.07-.6-.22a.78.78 0 0 1-.2-.55zM56.2 280h-1.35v-11.25h1.35V280zm5.46.15c-.55 0-1.05-.1-1.5-.29a3.34 3.34 0 0 1-1.88-2 4.46 4.46 0 0 1-.25-1.54V276c0-.65.1-1.22.29-1.73.19-.5.45-.94.77-1.28a3.34 3.34 0 0 1 3.87-.77c.4.2.74.47 1.01.81.27.35.46.76.6 1.23.12.48.18 1 .18 1.55v.6h-5.37c.01.37.07.71.18 1.03.11.32.27.6.47.83a2.23 2.23 0 0 0 1.7.76c.48 0 .89-.1 1.22-.3.33-.19.62-.45.87-.77l.83.65a3.62 3.62 0 0 1-1.1 1.05c-.24.15-.52.26-.83.35-.31.08-.66.13-1.06.13zm-.17-7.1a1.87 1.87 0 0 0-1.37.58c-.18.19-.33.43-.45.7-.12.3-.2.62-.24.98h3.97v-.1a3.75 3.75 0 0 0-.13-.78c-.07-.26-.18-.5-.33-.7a1.7 1.7 0 0 0-.58-.5 1.81 1.81 0 0 0-.87-.19zm8.75 6.95v-10.66h3.49c.55 0 1.04.05 1.47.16.43.11.79.28 1.09.51.3.24.53.53.69.89.16.35.24.78.24 1.28s-.14.94-.43 1.32c-.28.38-.67.68-1.16.89a2.6 2.6 0 0 1 1.39.94c.15.22.27.46.36.74a3.26 3.26 0 0 1-.13 2.18c-.17.38-.4.7-.71.96-.31.26-.68.46-1.12.6-.43.12-.92.19-1.45.19h-3.73zm1.41-4.99v3.84h2.32c.34 0 .64-.05.9-.14.26-.09.48-.21.66-.38.18-.16.32-.36.42-.6a2.56 2.56 0 0 0 .03-1.6c-.09-.23-.21-.43-.38-.6-.17-.16-.38-.3-.64-.38a2.8 2.8 0 0 0-.92-.14h-2.39zm0-1.13h2.12c.3 0 .58-.03.83-.11s.46-.2.64-.34c.18-.15.32-.33.42-.54.1-.21.14-.45.14-.72 0-.59-.17-1.01-.5-1.28-.35-.26-.87-.4-1.57-.4h-2.08v3.4zm7.36 2.08c0-.57.09-1.1.25-1.6.17-.49.41-.91.72-1.27a3.29 3.29 0 0 1 2.63-1.16 3.31 3.31 0 0 1 2.65 1.16c.31.36.55.78.72 1.27.16.5.25 1.03.25 1.6v.17c0 .57-.09 1.1-.25 1.6-.17.49-.4.91-.72 1.27-.31.36-.7.64-1.14.84-.44.2-.94.3-1.5.3a3.3 3.3 0 0 1-2.64-1.15 3.79 3.79 0 0 1-.72-1.26 4.9 4.9 0 0 1-.25-1.6v-.17zm1.36.17c0 .4.05.76.14 1.12.1.35.24.66.42.92.2.27.43.48.7.64a2 2 0 0 0 1 .23 2 2 0 0 0 1.68-.87c.18-.26.32-.57.42-.92.1-.36.14-.73.14-1.12v-.17c0-.39-.05-.76-.14-1.11a2.9 2.9 0 0 0-.43-.93 1.99 1.99 0 0 0-1.7-.88 1.93 1.93 0 0 0-1.67.88c-.18.26-.32.57-.42.93-.09.35-.14.72-.14 1.11v.17zm7.2-.17c0-.57.08-1.1.25-1.6.17-.49.4-.91.72-1.27a3.29 3.29 0 0 1 2.62-1.16 3.31 3.31 0 0 1 2.65 1.16c.32.36.56.78.72 1.27.17.5.25 1.03.25 1.6v.17c0 .57-.08 1.1-.25 1.6-.16.49-.4.91-.72 1.27-.3.36-.69.64-1.13.84-.45.2-.95.3-1.5.3a3.3 3.3 0 0 1-2.64-1.15 3.79 3.79 0 0 1-.72-1.26 4.9 4.9 0 0 1-.25-1.6v-.17zm1.36.17c0 .4.04.76.14 1.12.09.35.23.66.42.92.19.27.42.48.7.64a2 2 0 0 0 .99.23 2 2 0 0 0 1.68-.87c.19-.26.33-.57.42-.92.1-.36.15-.73.15-1.12v-.17c0-.39-.05-.76-.15-1.11a2.9 2.9 0 0 0-.42-.93 1.99 1.99 0 0 0-1.7-.88 1.93 1.93 0 0 0-1.67.88c-.19.26-.33.57-.42.93-.1.35-.14.72-.14 1.11v.17zm9.76.2l-.85.89V280H96.5v-11.25h1.35v6.8l.73-.87 2.47-2.6h1.64l-3.08 3.3 3.44 4.62h-1.59l-2.76-3.67zm6.67-4.25l.03.87a2.88 2.88 0 0 1 2.35-1.02c.52 0 .97.1 1.36.3.4.2.7.53.9.97a3 3 0 0 1 2.53-1.27c.43 0 .8.05 1.13.16a2.04 2.04 0 0 1 1.35 1.41c.12.36.18.8.18 1.3v5.2h-1.36v-5.21c0-.34-.04-.61-.12-.83a1.3 1.3 0 0 0-.34-.53 1.21 1.21 0 0 0-.54-.27 2.93 2.93 0 0 0-.7-.08c-.27 0-.52.04-.73.13a1.72 1.72 0 0 0-.92.88c-.1.2-.15.42-.17.65V280h-1.36v-5.2c0-.32-.04-.58-.13-.8-.08-.21-.19-.39-.34-.53a1.34 1.34 0 0 0-.53-.3c-.2-.06-.44-.1-.7-.1-.48 0-.87.11-1.16.32-.3.21-.51.49-.66.82V280h-1.36v-7.92h1.29zm16.76 7.92c-.05-.1-.09-.22-.12-.37a6.4 6.4 0 0 1-.07-.46 3.6 3.6 0 0 1-.95.69 2.96 2.96 0 0 1-1.3.29c-.41 0-.78-.06-1.1-.19a2.57 2.57 0 0 1-.85-.5 2.2 2.2 0 0 1-.73-1.66 2.24 2.24 0 0 1 .96-1.94c.32-.22.69-.38 1.13-.5.44-.1.93-.16 1.47-.16h1.35v-.63c0-.47-.14-.85-.43-1.13-.28-.28-.7-.42-1.25-.42-.25 0-.48.03-.7.1-.2.07-.38.16-.53.28-.15.11-.27.25-.35.4a.98.98 0 0 0-.12.47h-1.37c0-.28.08-.56.23-.84.15-.28.36-.53.63-.75a3.83 3.83 0 0 1 2.3-.75c.42 0 .82.05 1.18.16a2.3 2.3 0 0 1 1.54 1.33c.15.33.22.72.22 1.17v3.68c0 .27.03.55.07.85.05.3.12.55.21.76v.12h-1.42zm-2.25-1.03a2.26 2.26 0 0 0 1.28-.37 2.18 2.18 0 0 0 .76-.82v-1.63h-1.13c-.78 0-1.37.13-1.8.37-.41.24-.62.6-.62 1.1 0 .18.03.36.1.53.06.16.15.3.28.43.13.12.29.21.48.28.19.07.4.1.65.1zm9.35-5.68a3.58 3.58 0 0 0-.67-.05c-.47 0-.85.1-1.14.3-.3.21-.52.49-.67.83V280h-1.35v-7.92h1.32l.02.91a2.09 2.09 0 0 1 2.49-.96v1.26zm3.46 3.04l-.85.89V280h-1.36v-11.25h1.36v6.8l.72-.87 2.47-2.6h1.65l-3.09 3.3 3.45 4.62h-1.6l-2.75-3.67zm10 1.57c0-.15-.02-.29-.07-.42a.87.87 0 0 0-.26-.36 1.94 1.94 0 0 0-.55-.32c-.24-.1-.55-.19-.94-.27-.44-.1-.84-.2-1.19-.33a3.63 3.63 0 0 1-.9-.46 1.89 1.89 0 0 1-.56-.63 1.98 1.98 0 0 1 .01-1.75c.14-.28.33-.53.59-.74.25-.21.56-.38.92-.5a3.7 3.7 0 0 1 1.2-.2c.48 0 .9.07 1.28.2.37.13.69.3.95.53a2.27 2.27 0 0 1 .8 1.75h-1.36c0-.16-.04-.32-.11-.48a1.33 1.33 0 0 0-.32-.44 1.66 1.66 0 0 0-.52-.32c-.2-.08-.44-.12-.71-.12-.29 0-.53.03-.72.1-.2.07-.36.15-.5.26a1.01 1.01 0 0 0-.36.8c0 .15.03.28.08.4.04.12.14.23.27.32.14.1.33.18.56.26.24.08.55.17.92.25.49.11.9.24 1.26.38s.66.3.89.5c.23.18.4.4.52.64.12.25.18.53.18.85a2.1 2.1 0 0 1-.84 1.7c-.27.2-.59.36-.97.47-.37.12-.79.18-1.25.18-.53 0-1-.08-1.4-.22-.4-.15-.73-.34-1-.59a2.47 2.47 0 0 1-.63-.82 2.28 2.28 0 0 1-.21-.96h1.35a1.42 1.42 0 0 0 .65 1.16c.18.12.38.2.6.25a2.9 2.9 0 0 0 1.37-.02c.21-.06.4-.14.53-.24a.95.95 0 0 0 .44-.81z"/><path fill="#0C0C0D" fill-opacity=".8" fill-rule="nonzero" d="M334 279a1 1 0 0 1-.7-1.7l4.29-4.3-4.3-4.3a1 1 0 0 1 1.42-1.42l5 5a1 1 0 0 1 0 1.42l-5 5a1 1 0 0 1-.71.3z"/><rect width="320" height="1" x="20" y="287" fill="#CBCBCB"/><rect width="320" height="2" x="20" y="138" fill="#009BFD"/></g></svg>
