<svg xmlns="http://www.w3.org/2000/svg" xmlns:xlink="http://www.w3.org/1999/xlink" viewBox="0 0 360 240"><defs><rect id="a" width="360" height="240"/></defs><g fill="none" fill-rule="evenodd"><mask id="b" fill="white"><use xlink:href="#a"/></mask><g mask="url(#b)"><g transform="translate(-8 -127)"><rect width="375" height="667" fill="#4A4A4F" opacity=".8"/><rect width="352" height="287.55" x="12" y="131" fill="#F9F9FA" fill-opacity=".95" rx="5.95"/><g transform="translate(27.865 277.75)"><path fill="#0C0C0D" fill-opacity=".8" fill-rule="nonzero" d="M11.9 0a11.9 11.9 0 1 0 0 23.8 11.9 11.9 0 0 0 0-23.8zm0 20.82a8.92 8.92 0 1 1 0-17.85 8.92 8.92 0 0 1 0 17.85zm5.2-8.92h-5.2V6.7a.74.74 0 1 0-1.49 0v5.94c0 .41.33.75.74.75h5.95a.74.74 0 0 0 0-1.5z"/><path fill="#000000" d="M49.41 12.9h-6.14v5.08h-1.39V6.8h1.4v4.84h6.13V6.8h1.4v11.18h-1.4V12.9zm4.12-5.24a.9.9 0 0 1-.28-.65c0-.26.1-.48.28-.66a.9.9 0 0 1 .65-.27.9.9 0 0 1 .66.27c.18.18.27.4.27.66a.9.9 0 0 1-.27.65.89.89 0 0 1-.66.28.9.9 0 0 1-.65-.28zm1.32 1.97v8.35h-1.33V9.63h1.33zm2.75 1.05c.27-.37.65-.67 1.12-.88.48-.2 1-.31 1.59-.31.58 0 1.1.09 1.55.27.45.18.82.44 1.1.78.27.33.44.73.5 1.18h-1.32c-.1-.34-.3-.6-.62-.8-.32-.2-.72-.3-1.22-.3-.33 0-.63.05-.9.16-.27.1-.48.25-.63.44a.99.99 0 0 0-.23.64c0 .29.11.52.35.71.23.2.6.34 1.1.46l1.28.31c.8.2 1.38.47 1.76.83.38.36.57.84.57 1.43 0 .5-.14.93-.44 1.31-.29.39-.69.68-1.2.9-.5.21-1.07.32-1.7.32a4.5 4.5 0 0 1-1.64-.28 2.76 2.76 0 0 1-1.15-.8 2.18 2.18 0 0 1-.5-1.2h1.37c.12.36.34.65.68.85.33.2.76.3 1.28.3.37 0 .7-.05 1-.16.29-.11.52-.26.68-.46.17-.2.25-.42.25-.67 0-.57-.44-.96-1.32-1.18l-1.44-.35a3.67 3.67 0 0 1-1.73-.83 1.93 1.93 0 0 1-.54-1.43c0-.46.13-.87.4-1.24zm9.9-1.05h1.87v1.12H67.5v4.72c0 .5.1.85.29 1.07.2.22.51.34.95.34.19 0 .4-.01.62-.04v1.13c-.3.05-.56.08-.79.08a3.6 3.6 0 0 1-1.4-.23c-.34-.15-.6-.39-.76-.71a2.91 2.91 0 0 1-.25-1.3v-5.06h-1.34V9.63h1.34V7.47h1.34v2.16zm5.15 7.98a3.41 3.41 0 0 1-1.34-1.5 5.3 5.3 0 0 1-.47-2.3c0-.9.16-1.66.47-2.31.3-.65.75-1.15 1.33-1.5a3.92 3.92 0 0 1 2.05-.51c.8 0 1.48.17 2.06.51.58.35 1.02.85 1.33 1.5.31.65.46 1.42.46 2.3a5.3 5.3 0 0 1-.46 2.31 3.41 3.41 0 0 1-1.34 1.5 3.9 3.9 0 0 1-2.05.52 3.9 3.9 0 0 1-2.04-.52zm3.87-1.5c.43-.54.65-1.31.65-2.3 0-1-.22-1.76-.65-2.3a2.2 2.2 0 0 0-1.83-.82c-.79 0-1.4.27-1.82.81a3.65 3.65 0 0 0-.65 2.3c0 1 .22 1.77.65 2.31a2.2 2.2 0 0 0 1.82.82c.8 0 1.4-.27 1.83-.82zm5.39-6.48v1.24h.12c.08-.27.24-.5.46-.71.23-.21.5-.38.82-.5.33-.12.67-.17 1.04-.17.25 0 .47 0 .66.03v1.34a5.25 5.25 0 0 0-.85-.08c-.42 0-.8.09-1.13.26a1.94 1.94 0 0 0-1.06 1.77v5.17h-1.33V9.63h1.27zm4.88 11.33v-1.14c.14.02.32.04.56.04.39 0 .7-.1.93-.31.23-.2.43-.56.6-1.06l.16-.5-3.09-8.36h1.44l2.3 6.87h.12l2.28-6.87h1.42l-3.26 8.86a7.04 7.04 0 0 1-.74 1.53c-.24.36-.53.61-.86.76-.33.15-.75.22-1.26.22-.21 0-.4-.01-.6-.04z"/></g><g transform="translate(27.865 187.518)"><path fill="#0C0C0D" fill-opacity=".8" fill-rule="nonzero" d="M23.71 8.94c-.19-.57-.68-1-1.27-1.1l-6.16-1.1-2.9-5.82a1.66 1.66 0 0 0-2.96 0l-2.9 5.82-6.15 1.1a1.66 1.66 0 0 0-.92 2.76l4.4 4.74-.91 6.57a1.66 1.66 0 0 0 2.4 1.7l5.56-2.9 5.56 2.9a1.66 1.66 0 0 0 2.4-1.7l-.91-6.57 4.4-4.74c.42-.44.55-1.08.36-1.66z"/><path fill="#000000" d="M41.88 6.8h4.28c.67 0 1.26.12 1.76.35.5.22.88.55 1.15.96a2.7 2.7 0 0 1 .14 2.58c-.17.34-.4.63-.7.87-.3.23-.62.38-.97.44v.13c.5.06.94.21 1.32.45.37.25.66.56.86.95.2.39.31.83.31 1.32 0 .65-.15 1.2-.45 1.68-.3.47-.73.83-1.3 1.08-.57.25-1.25.37-2.04.37h-4.36V6.8zm3.63 4.82c.84 0 1.47-.15 1.9-.45.43-.3.64-.74.64-1.34 0-.56-.19-1-.57-1.32a2.48 2.48 0 0 0-1.62-.47h-2.59v3.58h2.24zm2.44 4.63c.43-.34.65-.83.65-1.47 0-.65-.23-1.14-.68-1.46a3.43 3.43 0 0 0-2.02-.5h-2.63v3.93h2.76c.84 0 1.48-.17 1.92-.5zm5.57 1.36a3.41 3.41 0 0 1-1.34-1.5 5.3 5.3 0 0 1-.46-2.3c0-.9.15-1.66.46-2.31.31-.65.76-1.15 1.34-1.5a3.92 3.92 0 0 1 2.05-.51c.79 0 1.47.17 2.05.51.58.35 1.02.85 1.33 1.5.31.65.47 1.42.47 2.3a5.3 5.3 0 0 1-.47 2.31 3.41 3.41 0 0 1-1.33 1.5 3.9 3.9 0 0 1-2.05.52 3.9 3.9 0 0 1-2.05-.52zm3.88-1.5c.43-.54.64-1.31.64-2.3 0-1-.21-1.76-.64-2.3a2.2 2.2 0 0 0-1.83-.82c-.8 0-1.4.27-1.83.81a3.65 3.65 0 0 0-.64 2.3c0 1 .21 1.77.64 2.31a2.2 2.2 0 0 0 1.83.82c.79 0 1.4-.27 1.83-.82zm5.5 1.5a3.41 3.41 0 0 1-1.34-1.5 5.3 5.3 0 0 1-.47-2.3c0-.9.16-1.66.47-2.31.3-.65.75-1.15 1.33-1.5a3.92 3.92 0 0 1 2.05-.51c.8 0 1.48.17 2.05.51.58.35 1.03.85 1.34 1.5.3.65.46 1.42.46 2.3a5.3 5.3 0 0 1-.46 2.31 3.41 3.41 0 0 1-1.34 1.5 3.9 3.9 0 0 1-2.05.52 3.9 3.9 0 0 1-2.05-.52zm3.87-1.5c.43-.54.64-1.31.64-2.3 0-1-.21-1.76-.64-2.3a2.2 2.2 0 0 0-1.83-.82c-.79 0-1.4.27-1.83.81a3.65 3.65 0 0 0-.64 2.3c0 1 .22 1.77.64 2.31a2.2 2.2 0 0 0 1.83.82c.8 0 1.4-.27 1.83-.82zm10.9-6.48l-3.59 3.58 3.84 4.77h-1.7l-3.13-3.9-.8.73v3.17h-1.33V6.32h1.33v6.96h.13l3.62-3.65h1.64zm3.1 0v1.32h.12c.2-.47.49-.83.9-1.08.4-.26.88-.38 1.43-.38.55 0 1.02.13 1.42.39.4.26.7.62.9 1.07h.12c.22-.45.56-.8 1.02-1.07a3 3 0 0 1 1.53-.4c.85 0 1.51.24 1.97.71.46.48.69 1.15.69 2.02v5.77h-1.33v-5.46c0-.61-.15-1.07-.44-1.38-.3-.3-.73-.45-1.32-.45-.38 0-.71.08-1 .26-.3.17-.53.4-.7.7-.16.3-.24.61-.24.96v5.37h-1.33v-5.67c0-.5-.16-.89-.48-1.18-.31-.3-.74-.44-1.26-.44-.36 0-.69.09-.98.28-.3.19-.53.44-.7.77-.17.32-.26.68-.26 1.07v5.17H79.5V9.63h1.27zm13.4 8.2a2.4 2.4 0 0 1-1-.87 2.36 2.36 0 0 1-.36-1.32c0-.74.26-1.32.79-1.75a3.9 3.9 0 0 1 2.25-.72l2.4-.14v-.76c0-.52-.15-.92-.47-1.19-.32-.27-.8-.41-1.41-.41-.5 0-.92.1-1.25.27-.33.18-.54.44-.63.77h-1.35c.06-.45.23-.84.53-1.17.29-.34.67-.6 1.15-.78.48-.18 1-.27 1.6-.27.67 0 1.24.1 1.72.33.47.22.83.54 1.08.96.25.41.37.9.37 1.49v5.71h-1.27v-1.23h-.12c-.27.45-.63.79-1.07 1.02-.45.24-.95.36-1.5.36-.54 0-1.02-.1-1.45-.3zm2.92-1.14c.37-.19.65-.44.86-.76.2-.31.3-.67.3-1.06v-.77l-2.24.15a2.6 2.6 0 0 0-1.38.4c-.3.22-.45.54-.45.96 0 .42.16.75.48.99.31.24.72.36 1.21.36.45 0 .86-.1 1.22-.27zm6.24-7.06v1.24h.12c.08-.27.24-.5.46-.71.23-.21.5-.38.82-.5.32-.12.67-.17 1.04-.17.25 0 .47 0 .66.03v1.34a5.25 5.25 0 0 0-.85-.08c-.42 0-.8.09-1.13.26a1.94 1.94 0 0 0-1.06 1.77v5.17h-1.33V9.63h1.27zm11.56 0l-3.6 3.58 3.84 4.77h-1.7l-3.12-3.9-.8.73v3.17h-1.34V6.32h1.34v6.96h.12l3.63-3.65h1.63zm1.72 1.05c.28-.37.65-.67 1.12-.88.48-.2 1-.31 1.6-.31.57 0 1.09.09 1.54.27.46.18.82.44 1.1.78.27.33.44.73.5 1.18h-1.32c-.1-.34-.3-.6-.62-.8-.31-.2-.72-.3-1.22-.3-.33 0-.63.05-.9.16-.26.1-.47.25-.63.44a.99.99 0 0 0-.23.64c0 .29.12.52.35.71.24.2.6.34 1.1.46l1.28.31c.8.2 1.39.47 1.77.83.37.36.56.84.56 1.43 0 .5-.14.93-.43 1.31-.3.39-.7.68-1.2.9-.51.21-1.08.32-1.71.32a4.5 4.5 0 0 1-1.64-.28 2.76 2.76 0 0 1-1.15-.8 2.18 2.18 0 0 1-.5-1.2h1.37c.12.36.34.65.68.85.33.2.76.3 1.28.3.38 0 .7-.05 1-.16.3-.11.52-.26.69-.46.16-.2.24-.42.24-.67 0-.57-.44-.96-1.32-1.18l-1.43-.35a3.67 3.67 0 0 1-1.74-.83 1.93 1.93 0 0 1-.54-1.43c0-.46.13-.87.4-1.24z"/></g><g transform="translate(27.865 143.89)"><g fill="#0C0C0D" fill-opacity=".8" fill-rule="nonzero"><rect width="8.92" height="8.92" x="1.49" y="1.49" rx=".99"/><rect width="8.92" height="8.92" x="13.39" y="1.49" rx=".99"/><rect width="8.92" height="8.92" x="1.49" y="13.39" rx=".99"/><rect width="8.92" height="8.92" x="13.39" y="13.39" rx=".99"/></g><path fill="#000000" d="M44.79 8.06h-3.6V6.8h8.6v1.26h-3.61v9.92h-1.4V8.06zm7.12 9.55a3.41 3.41 0 0 1-1.34-1.5 5.3 5.3 0 0 1-.46-2.3c0-.9.15-1.66.46-2.31.31-.65.76-1.15 1.33-1.5a3.92 3.92 0 0 1 2.06-.51c.79 0 1.47.17 2.05.51.58.35 1.02.85 1.33 1.5.31.65.47 1.42.47 2.3a5.3 5.3 0 0 1-.47 2.31 3.41 3.41 0 0 1-1.33 1.5 3.9 3.9 0 0 1-2.05.52 3.9 3.9 0 0 1-2.05-.52zm3.88-1.5c.42-.54.64-1.31.64-2.3 0-1-.22-1.76-.64-2.3a2.2 2.2 0 0 0-1.83-.82c-.8 0-1.4.27-1.83.81a3.65 3.65 0 0 0-.64 2.3c0 1 .21 1.77.64 2.31a2.2 2.2 0 0 0 1.83.82c.79 0 1.4-.27 1.83-.82zm10.02-6.1c.53.36.94.86 1.23 1.52.29.65.43 1.41.43 2.28 0 .86-.14 1.62-.43 2.27a3.23 3.23 0 0 1-3.08 2.05 3.3 3.3 0 0 1-1.57-.37c-.46-.24-.8-.59-1.03-1.03h-.13v4.04H59.9V9.63h1.27v1.4h.12a3.06 3.06 0 0 1 2.67-1.54c.7 0 1.32.17 1.85.53zm-.85 6.55c.37-.25.65-.6.85-1.08.19-.47.29-1.03.29-1.67 0-.65-.1-1.2-.3-1.68-.19-.47-.47-.82-.83-1.07-.37-.25-.8-.37-1.31-.37a2.25 2.25 0 0 0-2.17 1.46c-.2.47-.3 1.02-.3 1.66 0 .63.1 1.18.3 1.65a2.24 2.24 0 0 0 2.15 1.47c.51 0 .95-.12 1.32-.37zm10.6-.48c.25.29.58.5 1 .66a4 4 0 0 0 2.74-.01c.4-.17.71-.4.94-.69.22-.29.33-.62.33-.99 0-.47-.18-.86-.54-1.18a4.2 4.2 0 0 0-1.7-.76l-1.43-.37a4.53 4.53 0 0 1-2.2-1.1 2.65 2.65 0 0 1-.7-1.91c0-.63.17-1.18.5-1.67.33-.48.8-.85 1.4-1.12.59-.27 1.28-.4 2.06-.4.7 0 1.35.13 1.93.4.57.26 1.04.63 1.38 1.1.35.47.54 1 .57 1.6h-1.4a2 2 0 0 0-.81-1.35 2.86 2.86 0 0 0-1.72-.49c-.5 0-.92.08-1.3.24-.37.15-.66.37-.87.66-.2.28-.3.6-.3.98 0 .44.16.8.5 1.07.33.27.88.5 1.65.7l1.17.31c.78.2 1.4.43 1.88.7.47.28.82.61 1.04 1 .22.4.33.87.33 1.42 0 .68-.17 1.27-.51 1.78-.34.51-.83.9-1.46 1.18a5.5 5.5 0 0 1-2.2.4c-.8 0-1.49-.13-2.1-.39a3.5 3.5 0 0 1-1.45-1.11 3.11 3.11 0 0 1-.61-1.68h1.41c.06.39.21.73.46 1.02zm8.64-8.42a.9.9 0 0 1-.28-.65c0-.26.1-.48.28-.66a.9.9 0 0 1 .65-.27.9.9 0 0 1 .66.27c.18.18.27.4.27.66a.9.9 0 0 1-.27.65.89.89 0 0 1-.66.28.9.9 0 0 1-.65-.28zm1.32 1.97v8.35h-1.34V9.63h1.34zm4.43 0h1.86v1.12h-1.86v4.72c0 .5.1.85.3 1.07.19.22.5.34.94.34.19 0 .4-.01.62-.04v1.13c-.3.05-.56.08-.79.08a3.6 3.6 0 0 1-1.39-.23c-.35-.15-.6-.39-.77-.71a2.91 2.91 0 0 1-.24-1.3v-5.06h-1.35V9.63h1.35V7.47h1.33v2.16zm9.39 7.89c-.62.4-1.38.61-2.29.61a3.42 3.42 0 0 1-3.3-2.03 5.34 5.34 0 0 1-.46-2.28c0-.87.15-1.63.46-2.29a3.5 3.5 0 0 1 3.3-2.04 3.28 3.28 0 0 1 3.19 1.96c.29.63.44 1.38.44 2.23v.52h-6v.06c.01.54.13 1.02.33 1.43.2.4.48.71.84.93.35.22.76.33 1.23.33.54 0 .99-.1 1.35-.28.36-.2.63-.48.8-.85h1.34a2.9 2.9 0 0 1-1.23 1.7zm-3.48-6.55c-.35.2-.62.49-.83.86a3 3 0 0 0-.36 1.29h4.6c0-.5-.1-.92-.3-1.3a2.1 2.1 0 0 0-1.93-1.16c-.44 0-.84.1-1.18.3zm7.12-.3c.27-.36.65-.66 1.12-.87.48-.2 1-.31 1.59-.31.58 0 1.1.09 1.55.27.45.18.82.44 1.1.78.27.33.44.73.5 1.18h-1.32c-.1-.34-.3-.6-.62-.8-.32-.2-.72-.3-1.22-.3-.33 0-.63.05-.9.16-.27.1-.48.25-.63.44a.99.99 0 0 0-.24.64c0 .29.12.52.36.71.23.2.6.34 1.1.46l1.28.31c.8.2 1.38.47 1.76.83.38.36.57.84.57 1.43 0 .5-.15.93-.44 1.31-.29.39-.69.68-1.2.9-.5.21-1.08.32-1.7.32a4.5 4.5 0 0 1-1.64-.28 2.76 2.76 0 0 1-1.15-.8 2.18 2.18 0 0 1-.5-1.2h1.37c.11.36.34.65.67.85.34.2.77.3 1.3.3.36 0 .7-.05.99-.16.29-.11.52-.26.68-.46.17-.2.25-.42.25-.67 0-.57-.44-.96-1.33-1.18l-1.43-.35a3.67 3.67 0 0 1-1.73-.83 1.93 1.93 0 0 1-.55-1.43c0-.46.14-.87.41-1.24z"/></g><g transform="translate(27.865 234.121)"><g fill="#0C0C0D" fill-opacity=".8" fill-rule="nonzero"><path d="M17.85 0H5.95C3.49 0 1.49 2 1.49 4.46v14.88c0 2.46 2 4.46 4.46 4.46h11.9c2.46 0 4.46-2 4.46-4.46V4.46c0-2.46-2-4.46-4.46-4.46zm1.49 19.34c0 .82-.67 1.48-1.5 1.48H5.95c-.81 0-1.48-.66-1.48-1.48V4.46c0-.82.67-1.49 1.49-1.49h11.9c.82 0 1.49.67 1.49 1.5v14.87z"/><path d="M15.62 7.44H8.18a.74.74 0 0 1 0-1.5h7.44a.74.74 0 1 1 0 1.5zm0 2.97H8.18a.74.74 0 1 1 0-1.49h7.44a.74.74 0 1 1 0 1.5zm0 2.98H8.18a.74.74 0 0 1 0-1.5h7.44a.74.74 0 0 1 0 1.5zm-4.47 2.97H8.18a.74.74 0 0 1 0-1.49h2.97a.74.74 0 0 1 0 1.5z"/></g><path fill="#000000" d="M41.88 17.98V6.8h4.27c.71 0 1.34.14 1.87.42.54.27.96.66 1.25 1.16.3.5.44 1.09.44 1.76 0 .78-.2 1.45-.6 2.02-.4.57-.94.96-1.64 1.18l2.58 4.64h-1.63l-2.4-4.42h-2.75v4.42h-1.39zm4.14-5.66c.72 0 1.28-.18 1.67-.55.39-.37.58-.9.58-1.59 0-.67-.2-1.2-.61-1.57a2.4 2.4 0 0 0-1.7-.57h-2.69v4.28h2.75zm11.46 5.2c-.62.4-1.38.61-2.3.61a3.42 3.42 0 0 1-3.3-2.03 5.34 5.34 0 0 1-.46-2.28c0-.87.16-1.63.47-2.29a3.5 3.5 0 0 1 3.3-2.04 3.28 3.28 0 0 1 3.19 1.96c.29.63.43 1.38.43 2.23v.52h-6v.06c.02.54.13 1.02.34 1.43.2.4.48.71.83.93.36.22.77.33 1.24.33.54 0 .99-.1 1.35-.28.36-.2.63-.48.8-.85h1.34a2.9 2.9 0 0 1-1.23 1.7zM54 10.97c-.35.2-.63.49-.83.86a3 3 0 0 0-.36 1.29h4.6c0-.5-.1-.92-.3-1.3a2.1 2.1 0 0 0-1.94-1.16c-.44 0-.83.1-1.17.3zm7.78 6.85a2.4 2.4 0 0 1-1-.86 2.36 2.36 0 0 1-.37-1.32c0-.74.26-1.32.79-1.75a3.9 3.9 0 0 1 2.25-.72l2.41-.14v-.76c0-.52-.16-.92-.48-1.19-.32-.27-.79-.41-1.4-.41-.5 0-.92.1-1.25.27-.33.18-.55.44-.64.77h-1.35c.06-.45.24-.84.53-1.17.3-.34.68-.6 1.15-.78.48-.18 1.01-.27 1.6-.27.67 0 1.24.1 1.72.33.47.22.84.54 1.08.96.25.41.38.9.38 1.49v5.71h-1.27v-1.23h-.13c-.27.45-.62.79-1.07 1.02-.44.24-.94.36-1.5.36-.54 0-1.02-.1-1.45-.3zm2.92-1.13c.36-.19.65-.44.85-.76.21-.31.31-.67.31-1.06v-.77l-2.24.15a2.6 2.6 0 0 0-1.39.4c-.3.22-.44.54-.44.96 0 .42.16.75.47.99.32.24.72.36 1.22.36.45 0 .85-.1 1.22-.27zm6.2.91a3.4 3.4 0 0 1-1.23-1.51 5.64 5.64 0 0 1-.43-2.28c0-.86.15-1.62.43-2.28a3.23 3.23 0 0 1 3.08-2.05c.58 0 1.1.14 1.57.4.46.26.81.61 1.05 1.07h.11V6.32h1.34v11.66h-1.27v-1.33h-.13a2.8 2.8 0 0 1-1.1 1.09c-.47.26-1 .39-1.57.39-.7 0-1.33-.18-1.86-.53zm.86-6.54c-.37.25-.65.61-.85 1.08a4.3 4.3 0 0 0-.29 1.67c0 .64.1 1.2.29 1.67.2.47.47.83.84 1.08.37.25.8.37 1.31.37.5 0 .94-.13 1.3-.38.37-.25.66-.61.86-1.08.2-.47.3-1.02.3-1.66 0-.64-.1-1.19-.3-1.66-.2-.47-.49-.83-.85-1.08-.37-.26-.8-.38-1.31-.38-.5 0-.93.12-1.3.37zm7.69-3.4a.9.9 0 0 1-.28-.65c0-.26.1-.48.28-.66a.9.9 0 0 1 .65-.27.9.9 0 0 1 .66.27c.18.18.27.4.27.66a.9.9 0 0 1-.27.65.89.89 0 0 1-.66.28.9.9 0 0 1-.65-.28zm1.32 1.97v8.35h-1.33V9.63h1.33zm3.8 0v1.32h.13c.22-.48.54-.84.95-1.09.42-.25.94-.37 1.56-.37.94 0 1.66.26 2.16.8.51.53.76 1.3.76 2.29v5.4H88.8V12.9c0-.75-.16-1.3-.48-1.67-.33-.36-.82-.54-1.49-.54-.44 0-.83.09-1.15.28-.33.19-.59.46-.77.82-.18.35-.27.77-.27 1.25v4.94h-1.33V9.63h1.27zm9.69 11.28c-.5-.2-.9-.46-1.2-.8a2.3 2.3 0 0 1-.56-1.2h1.41c.08.34.3.61.66.82.37.2.85.3 1.44.3.74 0 1.33-.18 1.75-.52.42-.35.63-.83.63-1.45v-1.64h-.12c-.27.46-.63.81-1.08 1.06-.45.25-.97.38-1.54.38a3.3 3.3 0 0 1-1.86-.52 3.35 3.35 0 0 1-1.22-1.46 5.29 5.29 0 0 1-.42-2.2c0-.83.14-1.56.43-2.2a3.26 3.26 0 0 1 3.07-2c.58 0 1.11.14 1.6.4.47.27.84.63 1.08 1.08h.12V9.63h1.27v8.5c0 .62-.15 1.16-.45 1.62-.3.46-.73.81-1.3 1.06a4.8 4.8 0 0 1-1.96.38c-.67 0-1.25-.1-1.75-.28zm3.86-8.81c-.2-.45-.48-.8-.86-1.05a2.36 2.36 0 0 0-1.32-.36c-.5 0-.94.12-1.3.36-.37.25-.64.6-.83 1.05-.19.45-.28.97-.28 1.58 0 .61.1 1.14.28 1.6.19.44.46.79.82 1.03.37.25.8.37 1.31.37s.96-.12 1.33-.37c.37-.24.66-.59.85-1.04.2-.45.3-.98.3-1.59 0-.6-.1-1.13-.3-1.58zm8.76 5.88V6.8h1.4v9.93h5.39v1.25h-6.79zm8.88-10.32a.9.9 0 0 1-.27-.65c0-.26.09-.48.27-.66a.9.9 0 0 1 .66-.27.9.9 0 0 1 .66.27c.18.18.27.4.27.66a.9.9 0 0 1-.27.65.89.89 0 0 1-.66.28.9.9 0 0 1-.66-.28zm1.32 1.97v8.35h-1.33V9.63h1.33zm2.76 1.05c.27-.37.64-.67 1.12-.88.47-.2 1-.31 1.58-.31.58 0 1.1.09 1.55.27.46.18.82.44 1.1.78.28.33.44.73.5 1.18h-1.32c-.09-.34-.3-.6-.61-.8-.32-.2-.73-.3-1.22-.3-.33 0-.63.05-.9.16-.27.1-.48.25-.64.44a.99.99 0 0 0-.23.64c0 .29.12.52.35.71.24.2.6.34 1.1.46l1.29.31c.8.2 1.38.47 1.76.83.38.36.57.84.57 1.43 0 .5-.15.93-.44 1.31-.3.39-.7.68-1.2.9-.51.21-1.08.32-1.71.32a4.5 4.5 0 0 1-1.64-.28 2.76 2.76 0 0 1-1.14-.8 2.18 2.18 0 0 1-.5-1.2h1.37c.11.36.34.65.67.85.34.2.77.3 1.29.3.37 0 .7-.05 1-.16.28-.11.51-.26.68-.46.16-.2.25-.42.25-.67 0-.57-.45-.96-1.33-1.18l-1.43-.35a3.67 3.67 0 0 1-1.73-.83 1.93 1.93 0 0 1-.55-1.43c0-.46.14-.87.4-1.24zm9.9-1.05h1.86v1.12h-1.86v4.72c0 .5.1.85.3 1.07.2.22.5.34.94.34.2 0 .4-.01.62-.04v1.13c-.3.05-.55.08-.78.08a3.6 3.6 0 0 1-1.4-.23c-.35-.15-.6-.39-.77-.71a2.91 2.91 0 0 1-.24-1.3v-5.06h-1.35V9.63h1.35V7.47h1.33v2.16z"/></g><g transform="translate(27.865 334.268)"><g transform="translate(.397)"><rect width="23.8" height="23.8" fill="none" opacity=".25"/><path fill="#0C0C0D" fill-opacity=".8" fill-rule="nonzero" d="M19.83 19.83A9.92 9.92 0 0 1 15.31 1.1a10.9 10.9 0 1 0 6.21 18.58c-.56.1-1.12.15-1.69.15z"/></g><path fill="#000000" d="M41.88 17.98V6.8h6.93v1.26h-5.54v3.59h5.25v1.24h-5.25v3.84h5.54v1.25h-6.93zm10.55-8.35v1.32h.13c.21-.48.53-.84.94-1.09.42-.25.94-.37 1.57-.37.93 0 1.65.26 2.16.8.5.53.76 1.3.76 2.29v5.4h-1.34V12.9c0-.75-.16-1.3-.48-1.67-.32-.36-.82-.54-1.48-.54-.45 0-.83.09-1.16.28-.33.19-.58.46-.77.82-.18.35-.27.77-.27 1.25v4.94h-1.33V9.63h1.27zm8.86 8.2a2.4 2.4 0 0 1-1-.87 2.36 2.36 0 0 1-.37-1.32c0-.74.27-1.32.8-1.75a3.9 3.9 0 0 1 2.25-.72l2.4-.14v-.76c0-.52-.15-.92-.47-1.19-.32-.27-.8-.41-1.41-.41-.5 0-.92.1-1.25.27-.33.18-.54.44-.64.77h-1.34c.05-.45.23-.84.52-1.17.3-.34.68-.6 1.16-.78.47-.18 1-.27 1.6-.27.66 0 1.24.1 1.71.33.48.22.84.54 1.09.96.24.41.37.9.37 1.49v5.71h-1.27v-1.23h-.13c-.26.45-.62.79-1.07 1.02-.44.24-.94.36-1.5.36-.54 0-1.02-.1-1.45-.3zm2.92-1.14c.36-.19.65-.44.86-.76.2-.31.3-.67.3-1.06v-.77l-2.24.15a2.6 2.6 0 0 0-1.39.4c-.3.22-.44.54-.44.96 0 .42.16.75.47.99.32.24.72.36 1.22.36.45 0 .86-.1 1.22-.27zm7.54 1.05a2.8 2.8 0 0 1-1.1-1.09h-.13v1.33h-1.27V6.32h1.33v4.63h.13c.22-.45.57-.8 1.04-1.07.48-.26 1-.4 1.57-.4a3.21 3.21 0 0 1 3.07 2.05c.29.65.43 1.41.43 2.28 0 .86-.14 1.62-.43 2.27a3.22 3.22 0 0 1-3.07 2.05 3.2 3.2 0 0 1-1.57-.4zm-.05-6.67a2.4 2.4 0 0 0-.85 1.08c-.2.47-.3 1.02-.3 1.66 0 .63.1 1.19.3 1.66.2.47.48.83.85 1.08.38.25.81.38 1.31.38.51 0 .94-.12 1.3-.37.37-.25.65-.6.85-1.08.19-.47.29-1.03.29-1.67 0-.65-.1-1.2-.3-1.68-.19-.47-.47-.82-.83-1.07-.37-.25-.8-.37-1.3-.37s-.94.12-1.32.38zm8.63-4.75v11.66h-1.34V6.32h1.34zm8.22 11.2c-.62.4-1.38.61-2.29.61a3.42 3.42 0 0 1-3.3-2.03 5.34 5.34 0 0 1-.46-2.28c0-.87.15-1.63.46-2.29a3.5 3.5 0 0 1 3.3-2.04 3.28 3.28 0 0 1 3.19 1.96c.29.63.44 1.38.44 2.23v.52h-6v.06c.01.54.12 1.02.33 1.43.2.4.48.71.84.93.35.22.76.33 1.23.33.54 0 .99-.1 1.35-.28.36-.2.63-.48.8-.85h1.34a2.9 2.9 0 0 1-1.23 1.7zm-3.48-6.55c-.35.2-.63.49-.83.86a3 3 0 0 0-.36 1.29h4.6c0-.5-.1-.92-.3-1.3a2.1 2.1 0 0 0-1.94-1.16c-.43 0-.83.1-1.17.3zM96.62 6.8h1.36l6.07 8.7h.12V6.8h1.38v11.18h-1.36l-6.06-8.67H98v8.67h-1.38V6.8zm11.65.86a.9.9 0 0 1-.27-.65c0-.26.09-.48.27-.66a.9.9 0 0 1 .66-.27.9.9 0 0 1 .65.27c.19.18.28.4.28.66a.9.9 0 0 1-.28.65.89.89 0 0 1-.65.28.9.9 0 0 1-.66-.28zm1.32 1.97v8.35h-1.33V9.63h1.33zm4.24 11.28c-.5-.2-.9-.46-1.2-.8a2.3 2.3 0 0 1-.56-1.2h1.41c.07.34.3.61.66.82.37.2.84.3 1.43.3.75 0 1.34-.18 1.76-.52.42-.35.63-.83.63-1.45v-1.64h-.13c-.26.46-.62.81-1.07 1.06-.46.25-.97.38-1.54.38a3.3 3.3 0 0 1-1.86-.52 3.35 3.35 0 0 1-1.22-1.46 5.29 5.29 0 0 1-.42-2.2c0-.83.14-1.56.42-2.2a3.26 3.26 0 0 1 3.07-2c.59 0 1.12.14 1.6.4.48.27.84.63 1.09 1.08h.12V9.63h1.27v8.5c0 .62-.15 1.16-.45 1.62-.3.46-.74.81-1.3 1.06a4.8 4.8 0 0 1-1.97.38c-.66 0-1.24-.1-1.74-.28zm3.86-8.81c-.2-.45-.48-.8-.86-1.05a2.36 2.36 0 0 0-1.32-.36c-.51 0-.95.12-1.3.36-.37.25-.64.6-.83 1.05-.2.45-.29.97-.29 1.58 0 .61.1 1.14.29 1.6.19.44.46.79.82 1.03.36.25.8.37 1.31.37s.95-.12 1.33-.37c.37-.24.65-.59.85-1.04.2-.45.3-.98.3-1.59 0-.6-.1-1.13-.3-1.58zm5.52-5.78v4.63h.12c.22-.47.54-.83.98-1.09.43-.25.97-.37 1.6-.37.59 0 1.1.12 1.53.36.43.24.76.6 1 1.06.23.47.35 1.02.35 1.67v5.4h-1.33V12.9c0-.74-.17-1.3-.5-1.66-.32-.37-.8-.55-1.43-.55-.5 0-.91.1-1.26.29-.34.19-.6.47-.79.82a2.7 2.7 0 0 0-.27 1.24v4.94h-1.33V6.32h1.33zm9.9 3.31h1.86v1.12h-1.86v4.72c0 .5.1.85.3 1.07.2.22.5.34.94.34.2 0 .4-.01.62-.04v1.13c-.3.05-.56.08-.78.08a3.6 3.6 0 0 1-1.4-.23c-.35-.15-.6-.39-.77-.71a2.91 2.91 0 0 1-.24-1.3v-5.06h-1.35V9.63h1.35V7.47h1.33v2.16zm8.52-2.83h1.62l3.83 9.25h.12l3.83-9.25h1.62v11.18h-1.3V9.45h-.1l-3.52 8.46h-1.18l-3.52-8.46h-.1v8.53h-1.3V6.8zm15.08 10.8a3.41 3.41 0 0 1-1.34-1.49 5.3 5.3 0 0 1-.46-2.3c0-.9.15-1.66.46-2.31.31-.65.76-1.15 1.34-1.5a3.92 3.92 0 0 1 2.05-.51c.79 0 1.47.17 2.05.51.58.35 1.02.85 1.33 1.5.31.65.47 1.42.47 2.3a5.3 5.3 0 0 1-.47 2.31 3.41 3.41 0 0 1-1.33 1.5 3.9 3.9 0 0 1-2.05.52 3.9 3.9 0 0 1-2.05-.52zm3.88-1.49c.43-.54.64-1.31.64-2.3 0-1-.21-1.76-.64-2.3a2.2 2.2 0 0 0-1.83-.82c-.8 0-1.4.27-1.83.81a3.65 3.65 0 0 0-.64 2.3c0 1 .21 1.77.64 2.31a2.2 2.2 0 0 0 1.83.82c.79 0 1.4-.27 1.83-.82zm5.35 1.49a3.4 3.4 0 0 1-1.23-1.51 5.64 5.64 0 0 1-.43-2.28c0-.86.15-1.62.44-2.28.29-.65.7-1.15 1.22-1.51a3.23 3.23 0 0 1 1.85-.53c.59 0 1.1.13 1.57.39.46.26.81.61 1.05 1.07h.12V6.32h1.33v11.66h-1.27v-1.33h-.13a2.8 2.8 0 0 1-1.1 1.09c-.47.26-.99.39-1.57.39-.7 0-1.32-.18-1.85-.53zm.86-6.54c-.37.25-.65.61-.84 1.08a4.3 4.3 0 0 0-.3 1.67c0 .64.1 1.2.3 1.67.19.47.47.83.83 1.08.37.25.8.37 1.31.37.5 0 .94-.13 1.3-.38.38-.25.66-.61.86-1.08.2-.47.3-1.02.3-1.66 0-.64-.1-1.19-.3-1.66-.2-.47-.48-.83-.85-1.08-.37-.26-.8-.38-1.3-.38s-.94.12-1.31.37zm13.28 6.46c-.62.4-1.38.61-2.29.61a3.42 3.42 0 0 1-3.3-2.03 5.34 5.34 0 0 1-.46-2.28c0-.87.15-1.63.46-2.29a3.5 3.5 0 0 1 3.3-2.04 3.28 3.28 0 0 1 3.19 1.96c.3.63.44 1.38.44 2.23v.52h-6v.06c.02.54.13 1.02.33 1.43.2.4.48.71.84.93.35.22.76.33 1.23.33.54 0 .99-.1 1.35-.28.36-.2.63-.48.8-.85h1.34a2.9 2.9 0 0 1-1.23 1.7zm-3.48-6.55c-.35.2-.62.49-.83.86a3 3 0 0 0-.36 1.29h4.6c0-.5-.1-.92-.3-1.3a2.1 2.1 0 0 0-1.93-1.16c-.44 0-.83.1-1.18.3z"/></g><rect width="351.84" height="1" y="5.95" fill="#D8D8D8" transform="translate(12 311.462)"/></g></g></g></svg>