<svg xmlns="http://www.w3.org/2000/svg" xmlns:xlink="http://www.w3.org/1999/xlink" width="360" height="240" viewBox="0 0 360 240">
  <defs>
    <rect id="capitalization-title-case-ios-a" width="360" height="240"/>
  </defs>
  <g fill="none" fill-rule="evenodd">
    <mask id="capitalization-title-case-ios-b" fill="#fff">
      <use xlink:href="#capitalization-title-case-ios-a"/>
    </mask>
    <g mask="url(#capitalization-title-case-ios-b)">
      <g transform="translate(-8 -127)">
        <rect width="375" height="667" fill="#4A4A4F" opacity=".8"/>
        <rect width="352" height="287.549" x="12" y="131" fill="#F9F9FA" fill-opacity=".95" rx="5.949"/>
        <g transform="translate(27.865 277.75)">
          <path fill="#0C0C0D" fill-opacity=".8" fill-rule="nonzero" d="M11.8985915,0 C5.32718089,-4.02382851e-16 8.04765703e-16,5.32718089 0,11.8985915 C-8.04765703e-16,18.4700022 5.32718089,23.7971831 11.8985915,23.7971831 C18.4700022,23.7971831 23.7971831,18.4700022 23.7971831,11.8985915 C23.7898061,5.33023895 18.4669441,0.00737695505 11.8985915,1.32249517e-15 L11.8985915,0 Z M11.8985915,20.8225352 C6.97003356,20.8225352 2.97464789,16.8271495 2.97464789,11.8985915 C2.97464789,6.97003356 6.97003356,2.97464789 11.8985915,2.97464789 C16.8271495,2.97464789 20.8225352,6.97003356 20.8225352,11.8985915 C20.816798,16.8247712 16.8247712,20.816798 11.8985915,20.8225352 Z M17.1042254,11.8985915 L11.8985915,11.8985915 L11.8985915,6.69295775 C11.8985915,6.28224458 11.5656427,5.94929577 11.1549296,5.94929577 C10.7442164,5.94929577 10.4112676,6.28224458 10.4112676,6.69295775 L10.4112676,12.6422535 C10.4112676,13.0529667 10.7442164,13.3859155 11.1549296,13.3859155 L17.1042254,13.3859155 C17.5149385,13.3859155 17.8478873,13.0529667 17.8478873,12.6422535 C17.8478873,12.2315404 17.5149385,11.8985915 17.1042254,11.8985915 Z"/>
          <path fill="#000" d="M49.4101408,12.893662 L43.2749296,12.893662 L43.2749296,17.9830986 L41.8805634,17.9830986 L41.8805634,6.80492958 L43.2749296,6.80492958 L43.2749296,11.6387324 L49.4101408,11.6387324 L49.4101408,6.80492958 L50.804507,6.80492958 L50.804507,17.9830986 L49.4101408,17.9830986 L49.4101408,12.893662 Z M53.5273944,7.66091549 C53.3440601,7.47758124 53.2523944,7.25939094 53.2523944,7.00633803 C53.2523944,6.74812077 53.3440601,6.5286394 53.5273944,6.34788732 C53.7107286,6.16713525 53.9289189,6.07676056 54.1819718,6.07676056 C54.4401891,6.07676056 54.6596705,6.16713525 54.8404225,6.34788732 C55.0211746,6.5286394 55.1115493,6.74812077 55.1115493,7.00633803 C55.1115493,7.25939094 55.0211746,7.47758124 54.8404225,7.66091549 C54.6596705,7.84424974 54.4401891,7.93591549 54.1819718,7.93591549 C53.9289189,7.93591549 53.7107286,7.84424974 53.5273944,7.66091549 Z M54.848169,9.63239437 L54.848169,17.9830986 L53.5157746,17.9830986 L53.5157746,9.63239437 L54.848169,9.63239437 Z M57.6020423,10.678169 C57.8731704,10.3063362 58.2462887,10.014555 58.7214085,9.8028169 C59.1965282,9.59107875 59.7258656,9.48521127 60.3094366,9.48521127 C60.8878433,9.48521127 61.40427,9.57687702 61.8587324,9.76021127 C62.3131948,9.94354552 62.6785667,10.20305 62.9548592,10.5387324 C63.2311516,10.8744148 63.3976992,11.2694813 63.454507,11.7239437 L62.1376056,11.7239437 C62.0446474,11.3830969 61.8393678,11.1132639 61.5217606,10.9144366 C61.2041533,10.7156093 60.7974673,10.6161972 60.3016901,10.6161972 C59.9711721,10.6161972 59.6716445,10.6691309 59.4030986,10.775 C59.1345526,10.8808691 58.9228177,11.0280507 58.7678873,11.2165493 C58.612957,11.4050479 58.535493,11.6206561 58.535493,11.8633803 C58.535493,12.1474193 58.65298,12.3836845 58.8879577,12.5721831 C59.1229354,12.7606817 59.4883074,12.9143187 59.9840845,13.0330986 L61.27,13.3429577 C62.0653091,13.5340385 62.6527446,13.8103268 63.0323239,14.171831 C63.4119033,14.5333351 63.6016901,15.0110299 63.6016901,15.6049296 C63.6016901,16.0955424 63.4557996,16.531923 63.1640141,16.9140845 C62.8722286,17.296246 62.4719978,17.5944825 61.9633099,17.8088028 C61.4546219,18.0231231 60.8852614,18.1302817 60.2552113,18.1302817 C59.6406542,18.1302817 59.0945329,18.0373249 58.616831,17.8514085 C58.1391291,17.665492 57.7569733,17.4008233 57.4703521,17.0573944 C57.183731,16.7139654 57.0171833,16.3124436 56.9707042,15.8528169 L58.341831,15.8528169 C58.4554466,16.2143211 58.6800922,16.4970647 59.0157746,16.7010563 C59.3514571,16.905048 59.7800913,17.0070423 60.3016901,17.0070423 C60.673523,17.0070423 61.0053272,16.9515264 61.2971127,16.840493 C61.5888982,16.7294595 61.817417,16.5758226 61.9826761,16.3795775 C62.1479351,16.1833324 62.2305634,15.9586867 62.2305634,15.7056338 C62.2305634,15.1375558 61.7890185,14.7450715 60.9059155,14.528169 L59.4728169,14.1795775 C58.6826721,13.9884967 58.1055652,13.7134994 57.7414789,13.3545775 C57.3773925,12.9956555 57.1953521,12.5166697 57.1953521,11.9176056 C57.1953521,11.4631433 57.3309141,11.0500019 57.6020423,10.678169 Z M67.5059155,9.63239437 L69.3650704,9.63239437 L69.3650704,10.7478873 L67.5059155,10.7478873 L67.5059155,15.4732394 C67.5059155,15.9638522 67.6040366,16.3201867 67.8002817,16.5422535 C67.9965268,16.7643204 68.3115471,16.8753521 68.7453521,16.8753521 C68.9364329,16.8753521 69.1430036,16.8650236 69.3650704,16.8443662 L69.3650704,17.9676056 C69.0707028,18.0192491 68.8099072,18.0450704 68.5826761,18.0450704 C68.0042694,18.0450704 67.5394853,17.9701885 67.1883099,17.8204225 C66.8371344,17.6706565 66.5802121,17.4331002 66.4175352,17.1077465 C66.2548583,16.7823927 66.1735211,16.3511764 66.1735211,15.8140845 L66.1735211,10.7478873 L64.8256338,10.7478873 L64.8256338,9.63239437 L66.1735211,9.63239437 L66.1735211,7.47112676 L67.5059155,7.47112676 L67.5059155,9.63239437 Z M72.6457042,17.6073944 C72.0647154,17.2588011 71.6192973,16.7604492 71.3094366,16.1123239 C70.9995759,15.4641986 70.8446479,14.6960138 70.8446479,13.8077465 C70.8446479,12.9194791 70.9995759,12.1500033 71.3094366,11.4992958 C71.6192973,10.8485883 72.0634243,10.3502365 72.641831,10.0042254 C73.2202376,9.65821423 73.9045031,9.48521127 74.6946479,9.48521127 C75.4847927,9.48521127 76.1690581,9.65821423 76.7474648,10.0042254 C77.3258714,10.3502365 77.7699985,10.8485883 78.0798592,11.4992958 C78.3897199,12.1500033 78.5446479,12.9194791 78.5446479,13.8077465 C78.5446479,14.6960138 78.3897199,15.4641986 78.0798592,16.1123239 C77.7699985,16.7604492 77.3245804,17.2588011 76.7435915,17.6073944 C76.1626027,17.9559877 75.4796283,18.1302817 74.6946479,18.1302817 C73.9096674,18.1302817 73.226693,17.9559877 72.6457042,17.6073944 Z M76.5228169,16.1123239 C76.9514575,15.5674855 77.1657746,14.7993007 77.1657746,13.8077465 C77.1657746,12.8161922 76.9514575,12.0480074 76.5228169,11.503169 C76.0941763,10.9583306 75.4847927,10.6859155 74.6946479,10.6859155 C73.9045031,10.6859155 73.2951195,10.9583306 72.8664789,11.503169 C72.4378382,12.0480074 72.2235211,12.8161922 72.2235211,13.8077465 C72.2235211,14.7993007 72.4378382,15.5674855 72.8664789,16.1123239 C73.2951195,16.6571623 73.9045031,16.9295775 74.6946479,16.9295775 C75.4847927,16.9295775 76.0941763,16.6571623 76.5228169,16.1123239 Z M81.9066197,9.63239437 L81.9066197,10.871831 L82.0305634,10.871831 C82.1131929,10.603285 82.2668299,10.3644377 82.4914789,10.1552817 C82.7161279,9.94612571 82.9898341,9.78216022 83.3126056,9.66338028 C83.6353772,9.54460035 83.9800921,9.48521127 84.3467606,9.48521127 C84.5998135,9.48521127 84.821877,9.49812194 85.0129577,9.52394366 L85.0129577,10.856338 C84.95615,10.840845 84.8322075,10.8240611 84.6411268,10.8059859 C84.450046,10.7879107 84.2899537,10.7788732 84.1608451,10.7788732 C83.7425331,10.7788732 83.3668327,10.8653747 83.0337324,11.0383803 C82.7006321,11.2113858 82.4398366,11.4528154 82.251338,11.7626761 C82.0628394,12.0725368 81.9685915,12.4211248 81.9685915,12.8084507 L81.9685915,17.9830986 L80.6361972,17.9830986 L80.6361972,9.63239437 L81.9066197,9.63239437 Z M86.7946479,20.9577465 L86.7946479,19.8190141 C86.9289209,19.8448358 87.1148345,19.8577465 87.3523944,19.8577465 C87.7397202,19.8577465 88.0482852,19.7544611 88.2780986,19.5478873 C88.5079119,19.3413135 88.7106095,18.9875612 88.8861972,18.4866197 L89.0411268,17.9908451 L85.9502817,9.63239437 L87.3911268,9.63239437 L89.6840845,16.5035211 L89.8080282,16.5035211 L92.0932394,9.63239437 L93.5108451,9.63239437 L90.2495775,18.4943662 C90.0068532,19.150238 89.7615505,19.6576273 89.513662,20.0165493 C89.2657734,20.3754713 88.9765744,20.6298115 88.6460563,20.7795775 C88.3155383,20.9293435 87.8972326,21.0042254 87.3911268,21.0042254 C87.1793886,21.0042254 86.9805643,20.9887325 86.7946479,20.9577465 Z"/>
        </g>
        <g transform="translate(27.865 187.518)">
          <path fill="#0C0C0D" fill-opacity=".8" fill-rule="nonzero" d="M23.7114056,8.94399161 C23.5199793,8.37165109 23.0325598,7.9487117 22.4390866,7.83998612 L16.2822673,6.73899293 L13.3822834,0.917736184 C13.1021024,0.355407351 12.5280341,-1.25411901e-16 11.8999188,0 C11.2718035,8.36079337e-17 10.6977352,0.355407351 10.4175543,0.917736184 L7.51606469,6.73899293 L1.37129095,7.83697383 C0.772559927,7.94159675 0.279213342,8.36584963 0.0859741718,8.94228064 C-0.107264999,9.51871164 0.0306497168,10.1547094 0.445283639,10.5992468 L4.85247617,15.3390902 L3.93550307,21.9058896 C3.8492958,22.5210114 4.11429544,23.1326922 4.62195508,23.4903803 C5.12961472,23.8480685 5.79463957,23.8916667 6.34462779,23.6033168 L11.899166,20.7054907 L17.4552099,23.6078353 C18.0051981,23.8961852 18.6702229,23.8525869 19.1778826,23.4948988 C19.6855422,23.1372106 19.9505418,22.5255299 19.8643346,21.910408 L18.9458558,15.3390902 L23.3515426,10.6007529 C23.7662933,10.1563717 23.9044184,9.52046211 23.7114056,8.94399161 L23.7114056,8.94399161 Z"/>
          <path fill="#000" d="M41.8805634,6.80492958 L46.1566197,6.80492958 C46.8331489,6.80492958 47.4205844,6.91854346 47.9189437,7.14577465 C48.417303,7.37300583 48.7994588,7.69577256 49.0654225,8.11408451 C49.3313863,8.53239646 49.4643662,9.02558401 49.4643662,9.59366197 C49.4643662,9.97582351 49.3791558,10.3399044 49.2087324,10.6859155 C49.038309,11.0319266 48.805917,11.3224167 48.5115493,11.5573944 C48.2171816,11.7923721 47.8918328,11.9408448 47.535493,12.0028169 L47.535493,12.1267606 C48.0415988,12.1887327 48.4818526,12.3410786 48.8562676,12.5838028 C49.2306826,12.826527 49.5198816,13.1415474 49.7238732,13.5288732 C49.9278649,13.9161991 50.0298592,14.3551619 50.0298592,14.8457746 C50.0298592,15.4964821 49.8800954,16.0568052 49.5805634,16.5267606 C49.2810314,16.996716 48.8472329,17.3569236 48.2791549,17.6073944 C47.711077,17.8578651 47.0319758,17.9830986 46.241831,17.9830986 L41.8805634,17.9830986 L41.8805634,6.80492958 Z M45.5059155,11.6232394 C46.3477037,11.6232394 46.9829087,11.4734757 47.4115493,11.1739437 C47.8401899,10.8744116 48.054507,10.4277025 48.054507,9.83380282 C48.054507,9.26572486 47.8621381,8.82417998 47.4773944,8.50915493 C47.0926507,8.19412988 46.5542758,8.03661972 45.8622535,8.03661972 L43.2749296,8.03661972 L43.2749296,11.6232394 L45.5059155,11.6232394 Z M47.9460563,16.2478873 C48.3798613,15.9122049 48.5967606,15.4215995 48.5967606,14.7760563 C48.5967606,14.1305132 48.3708239,13.643781 47.9189437,13.3158451 C47.4670635,12.9879092 46.7944176,12.8239437 45.9009859,12.8239437 L43.2749296,12.8239437 L43.2749296,16.7514085 L46.0326761,16.7514085 C46.8744643,16.7514085 47.5122514,16.5835698 47.9460563,16.2478873 Z M53.5196479,17.6073944 C52.9386591,17.2588011 52.493241,16.7604493 52.1833803,16.1123239 C51.8735196,15.4641986 51.7185915,14.6960138 51.7185915,13.8077465 C51.7185915,12.9194791 51.8735196,12.1500033 52.1833803,11.4992958 C52.493241,10.8485883 52.937368,10.3502365 53.5157746,10.0042254 C54.0941813,9.65821423 54.7784468,9.48521127 55.5685915,9.48521127 C56.3587363,9.48521127 57.0430018,9.65821423 57.6214085,10.0042254 C58.1998151,10.3502365 58.6439421,10.8485883 58.9538028,11.4992958 C59.2636635,12.1500033 59.4185915,12.9194791 59.4185915,13.8077465 C59.4185915,14.6960138 59.2636635,15.4641986 58.9538028,16.1123239 C58.6439421,16.7604493 58.198524,17.2588011 57.6175352,17.6073944 C57.0365464,17.9559877 56.353572,18.1302817 55.5685915,18.1302817 C54.7836111,18.1302817 54.1006367,17.9559877 53.5196479,17.6073944 Z M57.3967606,16.1123239 C57.8254012,15.5674855 58.0397183,14.7993007 58.0397183,13.8077465 C58.0397183,12.8161922 57.8254012,12.0480074 57.3967606,11.503169 C56.9681199,10.9583306 56.3587363,10.6859155 55.5685915,10.6859155 C54.7784468,10.6859155 54.1690632,10.9583306 53.7404225,11.503169 C53.3117819,12.0480074 53.0974648,12.8161922 53.0974648,13.8077465 C53.0974648,14.7993007 53.3117819,15.5674855 53.7404225,16.1123239 C54.1690632,16.6571623 54.7784468,16.9295775 55.5685915,16.9295775 C56.3587363,16.9295775 56.9681199,16.6571623 57.3967606,16.1123239 Z M62.8928873,17.6073944 C62.3118985,17.2588011 61.8664804,16.7604493 61.5566197,16.1123239 C61.246759,15.4641986 61.091831,14.6960138 61.091831,13.8077465 C61.091831,12.9194791 61.246759,12.1500033 61.5566197,11.4992958 C61.8664804,10.8485883 62.3106074,10.3502365 62.8890141,10.0042254 C63.4674207,9.65821423 64.1516862,9.48521127 64.941831,9.48521127 C65.7319758,9.48521127 66.4162412,9.65821423 66.9946479,10.0042254 C67.5730545,10.3502365 68.0171815,10.8485883 68.3270423,11.4992958 C68.636903,12.1500033 68.791831,12.9194791 68.791831,13.8077465 C68.791831,14.6960138 68.636903,15.4641986 68.3270423,16.1123239 C68.0171815,16.7604493 67.5717635,17.2588011 66.9907746,17.6073944 C66.4097858,17.9559877 65.7268114,18.1302817 64.941831,18.1302817 C64.1568505,18.1302817 63.4738761,17.9559877 62.8928873,17.6073944 Z M66.77,16.1123239 C67.1986406,15.5674855 67.4129577,14.7993007 67.4129577,13.8077465 C67.4129577,12.8161922 67.1986406,12.0480074 66.77,11.503169 C66.3413594,10.9583306 65.7319758,10.6859155 64.941831,10.6859155 C64.1516862,10.6859155 63.5423026,10.9583306 63.113662,11.503169 C62.6850213,12.0480074 62.4707042,12.8161922 62.4707042,13.8077465 C62.4707042,14.7993007 62.6850213,15.5674855 63.113662,16.1123239 C63.5423026,16.6571623 64.1516862,16.9295775 64.941831,16.9295775 C65.7319758,16.9295775 66.3413594,16.6571623 66.77,16.1123239 Z M77.6770423,9.63239437 L74.0826761,13.2112676 L77.9171831,17.9830986 L76.2207042,17.9830986 L73.0911268,14.0711268 L72.2932394,14.8147887 L72.2932394,17.9830986 L70.9608451,17.9830986 L70.9608451,6.31690141 L72.2932394,6.31690141 L72.2932394,13.2809859 L72.4171831,13.2809859 L76.0425352,9.63239437 L77.6770423,9.63239437 Z M80.7678873,9.63239437 L80.7678873,10.9492958 L80.891831,10.9492958 C81.0829118,10.4845047 81.3798571,10.1242971 81.7826761,9.86866197 C82.185495,9.61302689 82.6657719,9.48521127 83.2235211,9.48521127 C83.7709417,9.48521127 84.2421811,9.61690009 84.6372535,9.88028169 C85.0323259,10.1436633 85.3305624,10.4999978 85.5319718,10.9492958 L85.6559155,10.9492958 C85.8831467,10.4999978 86.2239883,10.1436633 86.6784507,9.88028169 C87.1329131,9.61690009 87.6441756,9.48521127 88.2122535,9.48521127 C89.0643705,9.48521127 89.7202324,9.72147651 90.1798592,10.1940141 C90.6394859,10.6665517 90.8692958,11.3391975 90.8692958,12.2119718 L90.8692958,17.9830986 L89.5369014,17.9830986 L89.5369014,12.521831 C89.5369014,11.9072739 89.3910108,11.4476541 89.0992254,11.1429577 C88.8074399,10.8382614 88.367186,10.6859155 87.7784507,10.6859155 C87.4014535,10.6859155 87.0657761,10.772417 86.7714085,10.9454225 C86.4770408,11.1184281 86.2485219,11.3521112 86.0858451,11.6464789 C85.9231682,11.9408465 85.841831,12.2636133 85.841831,12.6147887 L85.841831,17.9830986 L84.5094366,17.9830986 L84.5094366,12.3126761 C84.5094366,11.8168989 84.3506354,11.4218325 84.0330282,11.1274648 C83.7154209,10.8330971 83.2932421,10.6859155 82.7664789,10.6859155 C82.4101391,10.6859155 82.0834991,10.7801634 81.7865493,10.968662 C81.4895995,11.1571606 81.2559163,11.4140829 81.085493,11.7394366 C80.9150696,12.0647904 80.8298592,12.4211248 80.8298592,12.8084507 L80.8298592,17.9830986 L79.4974648,17.9830986 L79.4974648,9.63239437 L80.7678873,9.63239437 Z M94.1770423,17.8242958 C93.7484016,17.6203041 93.4127242,17.3311052 93.17,16.9566901 C92.9272758,16.5822751 92.8059155,16.1446034 92.8059155,15.643662 C92.8059155,14.8999963 93.0692931,14.316434 93.5960563,13.8929577 C94.1228195,13.4694815 94.8742205,13.229343 95.8502817,13.1725352 L98.2594366,13.0253521 L98.2594366,12.2661972 C98.2594366,11.7497627 98.0993443,11.3546962 97.7791549,11.0809859 C97.4589655,10.8072756 96.9890172,10.6704225 96.3692958,10.6704225 C95.8683543,10.6704225 95.4526308,10.7607972 95.1221127,10.9415493 C94.7915946,11.1223014 94.5798596,11.3779326 94.4869014,11.7084507 L93.1390141,11.7084507 C93.1958219,11.264317 93.371407,10.8744148 93.6657746,10.5387324 C93.9601423,10.20305 94.3448803,9.94354552 94.82,9.76021127 C95.2951197,9.57687702 95.8270393,9.48521127 96.4157746,9.48521127 C97.0871395,9.48521127 97.6603732,9.59624302 98.135493,9.81830986 C98.6106127,10.0403767 98.9721114,10.3592702 99.22,10.775 C99.4678886,11.1907298 99.591831,11.6877905 99.591831,12.2661972 L99.591831,17.9830986 L98.3214085,17.9830986 L98.3214085,16.7514085 L98.1974648,16.7514085 C97.9289188,17.1955421 97.5725844,17.5363838 97.1284507,17.7739437 C96.684317,18.0115035 96.1833831,18.1302817 95.6256338,18.1302817 C95.0885419,18.1302817 94.6056829,18.0282874 94.1770423,17.8242958 Z M97.0935915,16.6855634 C97.4576779,16.5022291 97.7430037,16.2517622 97.9495775,15.9341549 C98.1561513,15.6165477 98.2594366,15.2615043 98.2594366,14.8690141 L98.2594366,14.1021127 L96.0129577,14.2492958 C95.3829076,14.2906105 94.9207057,14.4222994 94.626338,14.6443662 C94.3319704,14.866433 94.1847887,15.1891998 94.1847887,15.6126761 C94.1847887,16.030988 94.3422989,16.3602101 94.6573239,16.6003521 C94.972349,16.8404942 95.377744,16.9605634 95.8735211,16.9605634 C96.3228191,16.9605634 96.7295052,16.8688976 97.0935915,16.6855634 Z M103.325634,9.63239437 L103.325634,10.871831 L103.449577,10.871831 C103.532207,10.603285 103.685844,10.3644377 103.910493,10.1552817 C104.135142,9.94612571 104.408848,9.78216022 104.73162,9.66338028 C105.054391,9.54460035 105.399106,9.48521127 105.765775,9.48521127 C106.018828,9.48521127 106.240891,9.49812194 106.431972,9.52394366 L106.431972,10.856338 C106.375164,10.840845 106.251222,10.8240611 106.060141,10.8059859 C105.86906,10.7879107 105.708968,10.7788732 105.579859,10.7788732 C105.161547,10.7788732 104.785847,10.8653747 104.452746,11.0383803 C104.119646,11.2113858 103.858851,11.4528154 103.670352,11.7626761 C103.481854,12.0725368 103.387606,12.4211248 103.387606,12.8084507 L103.387606,17.9830986 L102.055211,17.9830986 L102.055211,9.63239437 L103.325634,9.63239437 Z M114.891127,9.63239437 L111.296761,13.2112676 L115.131268,17.9830986 L113.434789,17.9830986 L110.305211,14.0711268 L109.507324,14.8147887 L109.507324,17.9830986 L108.17493,17.9830986 L108.17493,6.31690141 L109.507324,6.31690141 L109.507324,13.2809859 L109.631268,13.2809859 L113.25662,9.63239437 L114.891127,9.63239437 Z M116.614718,10.678169 C116.885846,10.3063362 117.258965,10.014555 117.734085,9.8028169 C118.209204,9.59107875 118.738542,9.48521127 119.322113,9.48521127 C119.900519,9.48521127 120.416946,9.57687702 120.871408,9.76021127 C121.325871,9.94354552 121.691243,10.20305 121.967535,10.5387324 C122.243828,10.8744148 122.410375,11.2694813 122.467183,11.7239437 L121.150282,11.7239437 C121.057323,11.3830969 120.852044,11.1132639 120.534437,10.9144366 C120.216829,10.7156093 119.810143,10.6161972 119.314366,10.6161972 C118.983848,10.6161972 118.684321,10.6691309 118.415775,10.775 C118.147229,10.8808691 117.935494,11.0280507 117.780563,11.2165493 C117.625633,11.4050479 117.548169,11.6206561 117.548169,11.8633803 C117.548169,12.1474193 117.665656,12.3836845 117.900634,12.5721831 C118.135612,12.7606817 118.500983,12.9143187 118.996761,13.0330986 L120.282676,13.3429577 C121.077985,13.5340385 121.665421,13.8103268 122.045,14.171831 C122.424579,14.5333351 122.614366,15.0110299 122.614366,15.6049296 C122.614366,16.0955424 122.468476,16.531923 122.17669,16.9140845 C121.884905,17.296246 121.484674,17.5944825 120.975986,17.8088028 C120.467298,18.0231231 119.897937,18.1302817 119.267887,18.1302817 C118.65333,18.1302817 118.107209,18.0373249 117.629507,17.8514085 C117.151805,17.665492 116.769649,17.4008233 116.483028,17.0573944 C116.196407,16.7139654 116.029859,16.3124436 115.98338,15.8528169 L117.354507,15.8528169 C117.468123,16.2143211 117.692768,16.4970647 118.028451,16.7010563 C118.364133,16.905048 118.792767,17.0070423 119.314366,17.0070423 C119.686199,17.0070423 120.018003,16.9515264 120.309789,16.840493 C120.601574,16.7294595 120.830093,16.5758226 120.995352,16.3795775 C121.160611,16.1833324 121.243239,15.9586867 121.243239,15.7056338 C121.243239,15.1375558 120.801695,14.7450715 119.918592,14.528169 L118.485493,14.1795775 C117.695348,13.9884967 117.118241,13.7134994 116.754155,13.3545775 C116.390069,12.9956555 116.208028,12.5166697 116.208028,11.9176056 C116.208028,11.4631433 116.34359,11.0500019 116.614718,10.678169 Z"/>
        </g>
        <g transform="translate(27.865 143.89)">
          <g fill="#0C0C0D" fill-opacity=".8" fill-rule="nonzero">
            <rect width="8.924" height="8.924" x="1.487" y="1.487" rx=".992"/>
            <rect width="8.924" height="8.924" x="13.386" y="1.487" rx=".992"/>
            <rect width="8.924" height="8.924" x="1.487" y="13.386" rx=".992"/>
            <rect width="8.924" height="8.924" x="13.386" y="13.386" rx=".992"/>
          </g>
          <path fill="#000" d="M44.785493,8.05985915 L41.1833803,8.05985915 L41.1833803,6.80492958 L49.7819718,6.80492958 L49.7819718,8.05985915 L46.1798592,8.05985915 L46.1798592,17.9830986 L44.785493,17.9830986 L44.785493,8.05985915 Z M51.9083803,17.6073944 C51.3273915,17.2588011 50.8819734,16.7604493 50.5721127,16.1123239 C50.262252,15.4641986 50.1073239,14.6960138 50.1073239,13.8077465 C50.1073239,12.9194791 50.262252,12.1500033 50.5721127,11.4992958 C50.8819734,10.8485883 51.3261004,10.3502365 51.904507,10.0042254 C52.4829137,9.65821423 53.1671791,9.48521127 53.9573239,9.48521127 C54.7474687,9.48521127 55.4317342,9.65821423 56.0101408,10.0042254 C56.5885475,10.3502365 57.0326745,10.8485883 57.3425352,11.4992958 C57.6523959,12.1500033 57.8073239,12.9194791 57.8073239,13.8077465 C57.8073239,14.6960138 57.6523959,15.4641986 57.3425352,16.1123239 C57.0326745,16.7604493 56.5872564,17.2588011 56.0062676,17.6073944 C55.4252788,17.9559877 54.7423044,18.1302817 53.9573239,18.1302817 C53.1723435,18.1302817 52.4893691,17.9559877 51.9083803,17.6073944 Z M55.785493,16.1123239 C56.2141336,15.5674855 56.4284507,14.7993007 56.4284507,13.8077465 C56.4284507,12.8161922 56.2141336,12.0480074 55.785493,11.503169 C55.3568523,10.9583306 54.7474687,10.6859155 53.9573239,10.6859155 C53.1671791,10.6859155 52.5577956,10.9583306 52.1291549,11.503169 C51.7005143,12.0480074 51.4861972,12.8161922 51.4861972,13.8077465 C51.4861972,14.7993007 51.7005143,15.5674855 52.1291549,16.1123239 C52.5577956,16.6571623 53.1671791,16.9295775 53.9573239,16.9295775 C54.7474687,16.9295775 55.3568523,16.6571623 55.785493,16.1123239 Z M65.8133099,10.0158451 C66.3426552,10.3696027 66.7519234,10.8731188 67.0411268,11.5264085 C67.3303301,12.1796981 67.4749296,12.9401365 67.4749296,13.8077465 C67.4749296,14.6701921 67.3303301,15.4280484 67.0411268,16.081338 C66.7519234,16.7346277 66.3426552,17.2394348 65.8133099,17.5957746 C65.2839645,17.9521145 64.6681256,18.1302817 63.9657746,18.1302817 C63.371875,18.1302817 62.8451197,18.0076303 62.385493,17.7623239 C61.9258662,17.5170176 61.5824425,17.1723027 61.3552113,16.728169 L61.2312676,16.728169 L61.2312676,20.771831 L59.8988732,20.771831 L59.8988732,9.63239437 L61.1692958,9.63239437 L61.1692958,11.0267606 L61.2932394,11.0267606 C61.5617854,10.5464765 61.9323216,10.1694849 62.4048592,9.89577465 C62.8773967,9.62206436 63.3976967,9.48521127 63.9657746,9.48521127 C64.6681256,9.48521127 65.2839645,9.66208743 65.8133099,10.0158451 Z M64.9611972,16.5577465 C65.3304479,16.3098579 65.6119004,15.9509413 65.8055634,15.4809859 C65.9992263,15.0110305 66.0960563,14.4532896 66.0960563,13.8077465 C66.0960563,13.1622033 65.9992263,12.6044624 65.8055634,12.134507 C65.6119004,11.6645516 65.3317389,11.305635 64.9650704,11.0577465 C64.5984019,10.8098579 64.1620213,10.6859155 63.6559155,10.6859155 C63.154974,10.6859155 62.7198845,10.81244 62.3506338,11.065493 C61.9813831,11.3185459 61.6960573,11.6800446 61.4946479,12.15 C61.2932384,12.6199554 61.1925352,13.172532 61.1925352,13.8077465 C61.1925352,14.4377966 61.2932384,14.9890821 61.4946479,15.4616197 C61.6960573,15.9341573 61.9813831,16.2969471 62.3506338,16.55 C62.7198845,16.8030529 63.1523919,16.9295775 63.648169,16.9295775 C64.1542748,16.9295775 64.5919465,16.805635 64.9611972,16.5577465 Z M75.554507,16.0774648 C75.80756,16.3666681 76.1406552,16.5887316 76.5538028,16.743662 C76.9669504,16.8985923 77.4368988,16.9760563 77.963662,16.9760563 C78.4594391,16.9760563 78.9061482,16.8934281 79.3038028,16.728169 C79.7014574,16.56291 80.0126045,16.3343911 80.2372535,16.0426056 C80.4619025,15.7508201 80.5742254,15.4215981 80.5742254,15.0549296 C80.5742254,14.5798098 80.393476,14.1860344 80.0319718,13.8735915 C79.6704677,13.5611487 79.1049804,13.3068085 78.335493,13.1105634 L76.9023944,12.7387324 C75.8901827,12.4856795 75.1542746,12.1190165 74.6946479,11.6387324 C74.2350212,11.1584483 74.0052113,10.5206613 74.0052113,9.72535211 C74.0052113,9.10046636 74.1704678,8.54659866 74.5009859,8.06373239 C74.831504,7.58086613 75.294997,7.20645673 75.8914789,6.94049296 C76.4879607,6.67452919 77.1760994,6.5415493 77.9559155,6.5415493 C78.6685951,6.5415493 79.3128375,6.67323812 79.888662,6.93661972 C80.4644864,7.20000132 80.9253973,7.56666432 81.2714085,8.03661972 C81.6174196,8.50657512 81.8084975,9.03849468 81.8446479,9.63239437 L80.4425352,9.63239437 C80.3444127,9.05915206 80.0719975,8.61115185 79.6252817,8.28838028 C79.1785658,7.96560871 78.6066232,7.80422535 77.9094366,7.80422535 C77.4188238,7.80422535 76.9863164,7.88168937 76.6119014,8.03661972 C76.2374864,8.19155007 75.9482874,8.41103144 75.7442958,8.69507042 C75.5403041,8.9791094 75.4383099,9.30704039 75.4383099,9.67887324 C75.4383099,10.1178426 75.6048575,10.474177 75.9379577,10.7478873 C76.271058,11.0215976 76.8223436,11.2565718 77.591831,11.4528169 L78.7615493,11.7626761 C79.5413654,11.9589212 80.1675328,12.1938953 80.6400704,12.4676056 C81.112608,12.7413159 81.4586139,13.0744112 81.6780986,13.4669014 C81.8975833,13.8593916 82.0073239,14.3319221 82.0073239,14.884507 C82.0073239,15.5610362 81.8369031,16.153636 81.4960563,16.6623239 C81.1552096,17.1710119 80.6710595,17.5622052 80.0435915,17.8359155 C79.4161236,18.1096258 78.6789244,18.2464789 77.8319718,18.2464789 C77.0469914,18.2464789 76.3498153,18.11479 75.7404225,17.8514085 C75.1310298,17.5880269 74.6468797,17.2161996 74.2879577,16.7359155 C73.9290358,16.2556314 73.7263383,15.6978905 73.6798592,15.0626761 L75.0897183,15.0626761 C75.1465261,15.4500019 75.3014541,15.7882615 75.554507,16.0774648 Z M84.1957042,7.66091549 C84.01237,7.47758124 83.9207042,7.25939094 83.9207042,7.00633803 C83.9207042,6.74812077 84.01237,6.5286394 84.1957042,6.34788732 C84.3790385,6.16713525 84.5972288,6.07676056 84.8502817,6.07676056 C85.1084989,6.07676056 85.3279803,6.16713525 85.5087324,6.34788732 C85.6894845,6.5286394 85.7798592,6.74812077 85.7798592,7.00633803 C85.7798592,7.25939094 85.6894845,7.47758124 85.5087324,7.66091549 C85.3279803,7.84424974 85.1084989,7.93591549 84.8502817,7.93591549 C84.5972288,7.93591549 84.3790385,7.84424974 84.1957042,7.66091549 Z M85.5164789,9.63239437 L85.5164789,17.9830986 L84.1840845,17.9830986 L84.1840845,9.63239437 L85.5164789,9.63239437 Z M89.9474648,9.63239437 L91.8066197,9.63239437 L91.8066197,10.7478873 L89.9474648,10.7478873 L89.9474648,15.4732394 C89.9474648,15.9638522 90.0455859,16.3201867 90.241831,16.5422535 C90.4380761,16.7643204 90.7530964,16.8753521 91.1869014,16.8753521 C91.3779822,16.8753521 91.5845529,16.8650236 91.8066197,16.8443662 L91.8066197,17.9676056 C91.512252,18.0192491 91.2514565,18.0450704 91.0242254,18.0450704 C90.4458187,18.0450704 89.9810346,17.9701885 89.6298592,17.8204225 C89.2786837,17.6706565 89.0217614,17.4331002 88.8590845,17.1077465 C88.6964076,16.7823927 88.6150704,16.3511764 88.6150704,15.8140845 L88.6150704,10.7478873 L87.2671831,10.7478873 L87.2671831,9.63239437 L88.6150704,9.63239437 L88.6150704,7.47112676 L89.9474648,7.47112676 L89.9474648,9.63239437 Z M99.3400704,17.5183099 C98.7229312,17.9262931 97.9599106,18.1302817 97.0509859,18.1302817 C96.2866628,18.1302817 95.6204723,17.9546966 95.0523944,17.6035211 C94.4843164,17.2523457 94.0479358,16.7514117 93.7432394,16.1007042 C93.4385431,15.4499967 93.2861972,14.6882673 93.2861972,13.815493 C93.2861972,12.947883 93.4398341,12.1874446 93.7471127,11.5341549 C94.0543912,10.8808653 94.4920629,10.3760581 95.0601408,10.0197183 C95.6282188,9.6633785 96.2918272,9.48521127 97.0509859,9.48521127 C97.7946516,9.48521127 98.438894,9.65434103 98.9837324,9.99260563 C99.5285708,10.3308702 99.9468765,10.8163114 100.238662,11.4489437 C100.530447,12.0815759 100.676338,12.8265215 100.676338,13.6838028 L100.676338,14.1950704 L94.6728169,14.1950704 L94.6728169,14.2570423 C94.6934743,14.8044628 94.8057971,15.2808665 95.0097887,15.6862676 C95.2137804,16.0916687 95.4926508,16.4041069 95.8464085,16.6235915 C96.2001661,16.8430762 96.6120164,16.9528169 97.0819718,16.9528169 C97.6190637,16.9528169 98.068355,16.857278 98.4298592,16.6661972 C98.7913633,16.4751164 99.0599052,16.1936638 99.235493,15.821831 L100.567887,15.821831 C100.366478,16.5448393 99.9572097,17.1103266 99.3400704,17.5183099 Z M95.8580282,10.968662 C95.512017,11.1726536 95.2357287,11.4592705 95.0291549,11.8285211 C94.8225811,12.1977718 94.703803,12.6276971 94.6728169,13.1183099 L99.2742254,13.1183099 C99.2638967,12.6276971 99.1644845,12.1977718 98.9759859,11.8285211 C98.7874873,11.4592705 98.5266918,11.1726536 98.1935915,10.968662 C97.8604913,10.7646703 97.4744623,10.6626761 97.035493,10.6626761 C96.5965236,10.6626761 96.2040393,10.7646703 95.8580282,10.968662 Z M102.980915,10.678169 C103.252044,10.3063362 103.625162,10.014555 104.100282,9.8028169 C104.575401,9.59107875 105.104739,9.48521127 105.68831,9.48521127 C106.266717,9.48521127 106.783143,9.57687702 107.237606,9.76021127 C107.692068,9.94354552 108.05744,10.20305 108.333732,10.5387324 C108.610025,10.8744148 108.776572,11.2694813 108.83338,11.7239437 L107.516479,11.7239437 C107.423521,11.3830969 107.218241,11.1132639 106.900634,10.9144366 C106.583027,10.7156093 106.176341,10.6161972 105.680563,10.6161972 C105.350045,10.6161972 105.050518,10.6691309 104.781972,10.775 C104.513426,10.8808691 104.301691,11.0280507 104.146761,11.2165493 C103.99183,11.4050479 103.914366,11.6206561 103.914366,11.8633803 C103.914366,12.1474193 104.031853,12.3836845 104.266831,12.5721831 C104.501809,12.7606817 104.867181,12.9143187 105.362958,13.0330986 L106.648873,13.3429577 C107.444182,13.5340385 108.031618,13.8103268 108.411197,14.171831 C108.790777,14.5333351 108.980563,15.0110299 108.980563,15.6049296 C108.980563,16.0955424 108.834673,16.531923 108.542887,16.9140845 C108.251102,17.296246 107.850871,17.5944825 107.342183,17.8088028 C106.833495,18.0231231 106.264135,18.1302817 105.634085,18.1302817 C105.019527,18.1302817 104.473406,18.0373249 103.995704,17.8514085 C103.518002,17.665492 103.135847,17.4008233 102.849225,17.0573944 C102.562604,16.7139654 102.396057,16.3124436 102.349577,15.8528169 L103.720704,15.8528169 C103.83432,16.2143211 104.058965,16.4970647 104.394648,16.7010563 C104.73033,16.905048 105.158965,17.0070423 105.680563,17.0070423 C106.052396,17.0070423 106.3842,16.9515264 106.675986,16.840493 C106.967771,16.7294595 107.19629,16.5758226 107.361549,16.3795775 C107.526808,16.1833324 107.609437,15.9586867 107.609437,15.7056338 C107.609437,15.1375558 107.167892,14.7450715 106.284789,14.528169 L104.85169,14.1795775 C104.061545,13.9884967 103.484438,13.7134994 103.120352,13.3545775 C102.756266,12.9956555 102.574225,12.5166697 102.574225,11.9176056 C102.574225,11.4631433 102.709787,11.0500019 102.980915,10.678169 Z"/>
        </g>
        <g transform="translate(27.865 234.121)">
          <g fill="#0C0C0D" fill-opacity=".8" fill-rule="nonzero">
            <path d="M17.8478873,0 L5.94929577,0 C3.48501678,-1.50893569e-16 1.48732394,1.99769283 1.48732394,4.46197183 L1.48732394,19.3352113 C1.48732394,21.7994903 3.48501678,23.7971831 5.94929577,23.7971831 L17.8478873,23.7971831 C20.3121663,23.7971831 22.3098592,21.7994903 22.3098592,19.3352113 L22.3098592,4.46197183 C22.3098592,1.99769283 20.3121663,1.50893569e-16 17.8478873,0 Z M19.3352113,19.3352113 C19.3352113,20.1566376 18.6693137,20.8225352 17.8478873,20.8225352 L5.94929577,20.8225352 C5.12786944,20.8225352 4.46197183,20.1566376 4.46197183,19.3352113 L4.46197183,4.46197183 C4.46197183,3.6405455 5.12786944,2.97464789 5.94929577,2.97464789 L17.8478873,2.97464789 C18.6693137,2.97464789 19.3352113,3.6405455 19.3352113,4.46197183 L19.3352113,19.3352113 Z"/>
            <path d="M15.6169014,7.43661972 L8.18028169,7.43661972 C7.76956852,7.43661972 7.43661972,7.10367091 7.43661972,6.69295775 C7.43661972,6.28224458 7.76956852,5.94929577 8.18028169,5.94929577 L15.6169014,5.94929577 C16.0276146,5.94929577 16.3605634,6.28224458 16.3605634,6.69295775 C16.3605634,7.10367091 16.0276146,7.43661972 15.6169014,7.43661972 Z M15.6169014,10.4112676 L8.18028169,10.4112676 C7.76956852,10.4112676 7.43661972,10.0783188 7.43661972,9.66760563 C7.43661972,9.25689247 7.76956852,8.92394366 8.18028169,8.92394366 L15.6169014,8.92394366 C16.0276146,8.92394366 16.3605634,9.25689247 16.3605634,9.66760563 C16.3605634,10.0783188 16.0276146,10.4112676 15.6169014,10.4112676 Z M15.6169014,13.3859155 L8.18028169,13.3859155 C7.76956852,13.3859155 7.43661972,13.0529667 7.43661972,12.6422535 C7.43661972,12.2315404 7.76956852,11.8985915 8.18028169,11.8985915 L15.6169014,11.8985915 C16.0276146,11.8985915 16.3605634,12.2315404 16.3605634,12.6422535 C16.3605634,13.0529667 16.0276146,13.3859155 15.6169014,13.3859155 Z M11.1549296,16.3605634 L8.18028169,16.3605634 C7.76956852,16.3605634 7.43661972,16.0276146 7.43661972,15.6169014 C7.43661972,15.2061882 7.76956852,14.8732394 8.18028169,14.8732394 L11.1549296,14.8732394 C11.5656427,14.8732394 11.8985915,15.2061882 11.8985915,15.6169014 C11.8985915,16.0276146 11.5656427,16.3605634 11.1549296,16.3605634 Z"/>
          </g>
          <path fill="#000" d="M41.8805634,17.9830986 L41.8805634,6.80492958 L46.1488732,6.80492958 C46.8615529,6.80492958 47.4864292,6.94178267 48.0235211,7.21549296 C48.560613,7.48920325 48.9763366,7.87781438 49.2707042,8.38133803 C49.5650719,8.88486167 49.7122535,9.46971498 49.7122535,10.1359155 C49.7122535,10.9157316 49.5134292,11.5896685 49.1157746,12.1577465 C48.7181201,12.7258244 48.1681256,13.1208909 47.4657746,13.3429577 L50.0530986,17.9830986 L48.4185915,17.9830986 L46.0249296,13.5598592 L43.2749296,13.5598592 L43.2749296,17.9830986 L41.8805634,17.9830986 Z M46.0249296,12.3204225 C46.7427735,12.3204225 47.2966412,12.1358 47.6865493,11.7665493 C48.0764573,11.3972986 48.2714085,10.8692523 48.2714085,10.1823944 C48.2714085,9.51102951 48.0674199,8.98685635 47.6594366,8.60985915 C47.2514534,8.23286196 46.6859661,8.0443662 45.9629577,8.0443662 L43.2749296,8.0443662 L43.2749296,12.3204225 L46.0249296,12.3204225 Z M57.4780986,17.5183099 C56.8609594,17.9262931 56.0979388,18.1302817 55.1890141,18.1302817 C54.424691,18.1302817 53.7585005,17.9546966 53.1904225,17.6035211 C52.6223446,17.2523457 52.185964,16.7514117 51.8812676,16.1007042 C51.5765712,15.4499967 51.4242254,14.6882673 51.4242254,13.815493 C51.4242254,12.947883 51.5778623,12.1874446 51.8851408,11.5341549 C52.1924194,10.8808653 52.6300911,10.3760581 53.198169,10.0197183 C53.766247,9.6633785 54.4298554,9.48521127 55.1890141,9.48521127 C55.9326798,9.48521127 56.5769222,9.65434103 57.1217606,9.99260563 C57.666599,10.3308702 58.0849046,10.8163114 58.3766901,11.4489437 C58.6684756,12.0815759 58.8143662,12.8265215 58.8143662,13.6838028 L58.8143662,14.1950704 L52.8108451,14.1950704 L52.8108451,14.2570423 C52.8315025,14.8044628 52.9438253,15.2808665 53.1478169,15.6862676 C53.3518085,16.0916687 53.630679,16.4041069 53.9844366,16.6235915 C54.3381943,16.8430762 54.7500446,16.9528169 55.22,16.9528169 C55.7570919,16.9528169 56.2063832,16.857278 56.5678873,16.6661972 C56.9293915,16.4751164 57.1979334,16.1936638 57.3735211,15.821831 L58.7059155,15.821831 C58.504506,16.5448393 58.0952378,17.1103266 57.4780986,17.5183099 Z M53.9960563,10.968662 C53.6500452,11.1726536 53.3737569,11.4592705 53.1671831,11.8285211 C52.9606093,12.1977718 52.8418311,12.6276971 52.8108451,13.1183099 L57.4122535,13.1183099 C57.4019248,12.6276971 57.3025127,12.1977718 57.1140141,11.8285211 C56.9255155,11.4592705 56.66472,11.1726536 56.3316197,10.968662 C55.9985195,10.7646703 55.6124905,10.6626761 55.1735211,10.6626761 C54.7345518,10.6626761 54.3420675,10.7646703 53.9960563,10.968662 Z M61.7812676,17.8242958 C61.352627,17.6203041 61.0169496,17.3311052 60.7742254,16.9566901 C60.5315011,16.5822751 60.4101408,16.1446034 60.4101408,15.643662 C60.4101408,14.8999963 60.6735185,14.316434 61.2002817,13.8929577 C61.7270449,13.4694815 62.4784458,13.229343 63.454507,13.1725352 L65.863662,13.0253521 L65.863662,12.2661972 C65.863662,11.7497627 65.7035697,11.3546962 65.3833803,11.0809859 C65.0631909,10.8072756 64.5932425,10.6704225 63.9735211,10.6704225 C63.4725797,10.6704225 63.0568561,10.7607972 62.726338,10.9415493 C62.3958199,11.1223014 62.184085,11.3779326 62.0911268,11.7084507 L60.7432394,11.7084507 C60.8000472,11.264317 60.9756323,10.8744148 61.27,10.5387324 C61.5643677,10.20305 61.9491056,9.94354552 62.4242254,9.76021127 C62.8993451,9.57687702 63.4312647,9.48521127 64.02,9.48521127 C64.6913649,9.48521127 65.2645986,9.59624302 65.7397183,9.81830986 C66.2148381,10.0403767 66.5763368,10.3592702 66.8242254,10.775 C67.0721139,11.1907298 67.1960563,11.6877905 67.1960563,12.2661972 L67.1960563,17.9830986 L65.9256338,17.9830986 L65.9256338,16.7514085 L65.8016901,16.7514085 C65.5331442,17.1955421 65.1768097,17.5363838 64.7326761,17.7739437 C64.2885424,18.0115035 63.7876084,18.1302817 63.2298592,18.1302817 C62.6927673,18.1302817 62.2099082,18.0282874 61.7812676,17.8242958 Z M64.6978169,16.6855634 C65.0619032,16.5022291 65.347229,16.2517622 65.5538028,15.9341549 C65.7603766,15.6165477 65.863662,15.2615043 65.863662,14.8690141 L65.863662,14.1021127 L63.6171831,14.2492958 C62.987133,14.2906105 62.524931,14.4222994 62.2305634,14.6443662 C61.9361957,14.866433 61.7890141,15.1891998 61.7890141,15.6126761 C61.7890141,16.030988 61.9465242,16.3602101 62.2615493,16.6003521 C62.5765743,16.8404942 62.9819694,16.9605634 63.4777465,16.9605634 C63.9270445,16.9605634 64.3337306,16.8688976 64.6978169,16.6855634 Z M70.895,17.5996479 C70.3656546,17.2458903 69.9576775,16.7423742 69.6710563,16.0890845 C69.3844352,15.4357949 69.2411268,14.6753565 69.2411268,13.8077465 C69.2411268,12.9453009 69.3857263,12.1874446 69.6749296,11.5341549 C69.9641329,10.8808653 70.3734011,10.3760581 70.9027465,10.0197183 C71.4320918,9.6633785 72.0479308,9.48521127 72.7502817,9.48521127 C73.3338527,9.48521127 73.8567348,9.61560902 74.3189437,9.87640845 C74.7811525,10.1372079 75.1310317,10.4948334 75.3685915,10.9492958 L75.4847887,10.9492958 L75.4847887,6.31690141 L76.8171831,6.31690141 L76.8171831,17.9830986 L75.5467606,17.9830986 L75.5467606,16.6507042 L75.4228169,16.6507042 C75.1594353,17.1154953 74.7927723,17.4782851 74.3228169,17.7390845 C73.8528615,17.9998839 73.3286883,18.1302817 72.7502817,18.1302817 C72.0427664,18.1302817 71.4243454,17.9534055 70.895,17.5996479 Z M71.7587324,11.0616197 C71.3920639,11.3120905 71.1106113,11.6710071 70.9143662,12.1383803 C70.7181211,12.6057535 70.62,13.1622033 70.62,13.8077465 C70.62,14.4532896 70.71683,15.0110305 70.910493,15.4809859 C71.1041559,15.9509413 71.3843174,16.3098579 71.7509859,16.5577465 C72.1176544,16.805635 72.554035,16.9295775 73.0601408,16.9295775 C73.5610823,16.9295775 73.9961719,16.8030529 74.3654225,16.55 C74.7346732,16.2969471 75.0187079,15.9367394 75.2175352,15.4693662 C75.4163625,15.001993 75.5157746,14.4481253 75.5157746,13.8077465 C75.5157746,13.172532 75.4163625,12.6199554 75.2175352,12.15 C75.0187079,11.6800446 74.7346732,11.3185459 74.3654225,11.065493 C73.9961719,10.81244 73.5610823,10.6859155 73.0601408,10.6859155 C72.5591994,10.6859155 72.1254009,10.811149 71.7587324,11.0616197 Z M79.4471127,7.66091549 C79.2637784,7.47758124 79.1721127,7.25939094 79.1721127,7.00633803 C79.1721127,6.74812077 79.2637784,6.5286394 79.4471127,6.34788732 C79.6304469,6.16713525 79.8486372,6.07676056 80.1016901,6.07676056 C80.3599074,6.07676056 80.5793888,6.16713525 80.7601408,6.34788732 C80.9408929,6.5286394 81.0312676,6.74812077 81.0312676,7.00633803 C81.0312676,7.25939094 80.9408929,7.47758124 80.7601408,7.66091549 C80.5793888,7.84424974 80.3599074,7.93591549 80.1016901,7.93591549 C79.8486372,7.93591549 79.6304469,7.84424974 79.4471127,7.66091549 Z M80.7678873,9.63239437 L80.7678873,17.9830986 L79.435493,17.9830986 L79.435493,9.63239437 L80.7678873,9.63239437 Z M84.5791549,9.63239437 L84.5791549,10.9492958 L84.7030986,10.9492958 C84.9200011,10.474176 85.2363125,10.1113862 85.6520423,9.86091549 C86.067772,9.61044476 86.588072,9.48521127 87.2129577,9.48521127 C88.1477042,9.48521127 88.8681195,9.75246212 89.3742254,10.2869718 C89.8803312,10.8214815 90.1333803,11.5845021 90.1333803,12.5760563 L90.1333803,17.9830986 L88.8009859,17.9830986 L88.8009859,12.9014085 C88.8009859,12.1525784 88.6396026,11.5961286 88.316831,11.2320423 C87.9940594,10.8679559 87.4995808,10.6859155 86.8333803,10.6859155 C86.3892466,10.6859155 86.0032176,10.7801634 85.6752817,10.968662 C85.3473458,11.1571606 85.0930056,11.4295757 84.9122535,11.7859155 C84.7315014,12.1422553 84.6411268,12.560561 84.6411268,13.0408451 L84.6411268,17.9830986 L83.3087324,17.9830986 L83.3087324,9.63239437 L84.5791549,9.63239437 Z M94.2583803,20.9073944 C93.7548566,20.7188958 93.3533348,20.452936 93.0538028,20.109507 C92.7542708,19.7660781 92.5709393,19.3645563 92.5038028,18.9049296 L93.913662,18.9049296 C93.9859628,19.2509407 94.2054442,19.5246469 94.5721127,19.7260563 C94.9387812,19.9274658 95.4164759,20.028169 96.0052113,20.028169 C96.7540413,20.028169 97.3388946,19.853875 97.7597887,19.5052817 C98.1806829,19.1566884 98.3911268,18.6751204 98.3911268,18.0605634 L98.3911268,16.4183099 L98.2671831,16.4183099 C98.0038015,16.8779366 97.6448849,17.23298 97.1904225,17.4834507 C96.7359602,17.7339214 96.2221155,17.8591549 95.6488732,17.8591549 C94.9361936,17.8591549 94.3164815,17.686152 93.7897183,17.3401408 C93.2629551,16.9941297 92.8575601,16.5061064 92.5735211,15.8760563 C92.2894821,15.2460062 92.1474648,14.5152624 92.1474648,13.6838028 C92.1474648,12.8523433 92.2907732,12.1203083 92.5773944,11.4876761 C92.8640155,10.8550438 93.2707016,10.3631473 93.7974648,10.0119718 C94.324228,9.66079637 94.941358,9.48521127 95.6488732,9.48521127 C96.2324442,9.48521127 96.7643638,9.61819116 97.2446479,9.88415493 C97.724932,10.1501187 98.0864307,10.5077442 98.3291549,10.9570423 L98.4530986,10.9570423 L98.4530986,9.63239437 L99.7235211,9.63239437 L99.7235211,18.1302817 C99.7235211,18.7500031 99.5724663,19.2896691 99.2703521,19.7492958 C98.9682379,20.2089225 98.5370216,20.5639659 97.9766901,20.8144366 C97.4163587,21.0649074 96.7592056,21.1901408 96.0052113,21.1901408 C95.3441751,21.1901408 94.7619039,21.095893 94.2583803,20.9073944 Z M98.1238732,12.0996479 C97.925046,11.6477677 97.6384291,11.2991796 97.2640141,11.0538732 C96.8895991,10.8085668 96.4493453,10.6859155 95.9432394,10.6859155 C95.4319693,10.6859155 94.9955887,10.8085668 94.6340845,11.0538732 C94.2725804,11.2991796 93.9975831,11.6464766 93.8090845,12.0957746 C93.6205859,12.5450727 93.526338,13.0744101 93.526338,13.6838028 C93.526338,14.2931955 93.6205859,14.822533 93.8090845,15.271831 C93.9975831,15.721129 94.2725804,16.068426 94.6340845,16.3137324 C94.9955887,16.5590388 95.4319693,16.6816901 95.9432394,16.6816901 C96.4545096,16.6816901 96.8960545,16.5590388 97.2678873,16.3137324 C97.6397202,16.068426 97.925046,15.7198379 98.1238732,15.2679577 C98.3227005,14.8160776 98.4221127,14.2880312 98.4221127,13.6838028 C98.4221127,13.0795744 98.3227005,12.5515281 98.1238732,12.0996479 Z M106.881268,17.9830986 L106.881268,6.80492958 L108.275634,6.80492958 L108.275634,16.728169 L113.667183,16.728169 L113.667183,17.9830986 L106.881268,17.9830986 Z M115.762606,7.66091549 C115.579271,7.47758124 115.487606,7.25939094 115.487606,7.00633803 C115.487606,6.74812077 115.579271,6.5286394 115.762606,6.34788732 C115.94594,6.16713525 116.16413,6.07676056 116.417183,6.07676056 C116.6754,6.07676056 116.894882,6.16713525 117.075634,6.34788732 C117.256386,6.5286394 117.346761,6.74812077 117.346761,7.00633803 C117.346761,7.25939094 117.256386,7.47758124 117.075634,7.66091549 C116.894882,7.84424974 116.6754,7.93591549 116.417183,7.93591549 C116.16413,7.93591549 115.94594,7.84424974 115.762606,7.66091549 Z M117.08338,9.63239437 L117.08338,17.9830986 L115.750986,17.9830986 L115.750986,9.63239437 L117.08338,9.63239437 Z M119.837254,10.678169 C120.108382,10.3063362 120.4815,10.014555 120.95662,9.8028169 C121.431739,9.59107875 121.961077,9.48521127 122.544648,9.48521127 C123.123055,9.48521127 123.639481,9.57687702 124.093944,9.76021127 C124.548406,9.94354552 124.913778,10.20305 125.19007,10.5387324 C125.466363,10.8744148 125.632911,11.2694813 125.689718,11.7239437 L124.372817,11.7239437 C124.279859,11.3830969 124.074579,11.1132639 123.756972,10.9144366 C123.439365,10.7156093 123.032679,10.6161972 122.536901,10.6161972 C122.206383,10.6161972 121.906856,10.6691309 121.63831,10.775 C121.369764,10.8808691 121.158029,11.0280507 121.003099,11.2165493 C120.848168,11.4050479 120.770704,11.6206561 120.770704,11.8633803 C120.770704,12.1474193 120.888191,12.3836845 121.123169,12.5721831 C121.358147,12.7606817 121.723519,12.9143187 122.219296,13.0330986 L123.505211,13.3429577 C124.30052,13.5340385 124.887956,13.8103268 125.267535,14.171831 C125.647115,14.5333351 125.836901,15.0110299 125.836901,15.6049296 C125.836901,16.0955424 125.691011,16.531923 125.399225,16.9140845 C125.10744,17.296246 124.707209,17.5944825 124.198521,17.8088028 C123.689833,18.0231231 123.120473,18.1302817 122.490423,18.1302817 C121.875865,18.1302817 121.329744,18.0373249 120.852042,17.8514085 C120.37434,17.665492 119.992185,17.4008233 119.705563,17.0573944 C119.418942,16.7139654 119.252395,16.3124436 119.205915,15.8528169 L120.577042,15.8528169 C120.690658,16.2143211 120.915303,16.4970647 121.250986,16.7010563 C121.586668,16.905048 122.015303,17.0070423 122.536901,17.0070423 C122.908734,17.0070423 123.240538,16.9515264 123.532324,16.840493 C123.824109,16.7294595 124.052628,16.5758226 124.217887,16.3795775 C124.383146,16.1833324 124.465775,15.9586867 124.465775,15.7056338 C124.465775,15.1375558 124.02423,14.7450715 123.141127,14.528169 L121.708028,14.1795775 C120.917883,13.9884967 120.340776,13.7134994 119.97669,13.3545775 C119.612604,12.9956555 119.430563,12.5166697 119.430563,11.9176056 C119.430563,11.4631433 119.566125,11.0500019 119.837254,10.678169 Z M129.741127,9.63239437 L131.600282,9.63239437 L131.600282,10.7478873 L129.741127,10.7478873 L129.741127,15.4732394 C129.741127,15.9638522 129.839248,16.3201867 130.035493,16.5422535 C130.231738,16.7643204 130.546758,16.8753521 130.980563,16.8753521 C131.171644,16.8753521 131.378215,16.8650236 131.600282,16.8443662 L131.600282,17.9676056 C131.305914,18.0192491 131.045119,18.0450704 130.817887,18.0450704 C130.239481,18.0450704 129.774697,17.9701885 129.423521,17.8204225 C129.072346,17.6706565 128.815423,17.4331002 128.652746,17.1077465 C128.49007,16.7823927 128.408732,16.3511764 128.408732,15.8140845 L128.408732,10.7478873 L127.060845,10.7478873 L127.060845,9.63239437 L128.408732,9.63239437 L128.408732,7.47112676 L129.741127,7.47112676 L129.741127,9.63239437 Z"/>
        </g>
        <g transform="translate(27.865 334.268)">
          <g transform="translate(.397 .652)">
            <rect width="23.797" height="23.797" fill="none" opacity=".25"/>
            <path fill="#0C0C0D" fill-opacity=".8" fill-rule="nonzero" d="M19.8309859,19.8309859 C15.2558166,19.8239973 11.2794138,16.6875473 10.2069203,12.2398535 C9.1344267,7.79215961 11.2443217,3.18809173 15.3134873,1.09665352 C10.2517758,0.419832154 5.39808839,3.34568091 3.63306093,8.13772527 C1.86803348,12.9297696 3.66425135,18.3049416 7.9556695,21.0731073 C12.2470877,23.8412729 17.8846806,23.2612571 21.522569,19.6772958 C20.9641264,19.7767001 20.3981994,19.8281178 19.8309859,19.8309859 Z"/>
          </g>
          <path fill="#000" d="M41.8805634,18.9686808 L41.8805634,7.17788075 L48.8059155,7.17788075 L48.8059155,8.50158803 L43.2749296,8.50158803 L43.2749296,12.2847761 L48.5192958,12.2847761 L48.5192958,13.5921414 L43.2749296,13.5921414 L43.2749296,17.6449735 L48.8059155,17.6449735 L48.8059155,18.9686808 L41.8805634,18.9686808 Z M52.4312676,10.1603077 L52.4312676,11.5493832 L52.5552113,11.5493832 C52.7721138,11.048224 53.0884252,10.6655512 53.5041549,10.4013531 C53.9198847,10.1371551 54.4401847,10.005058 55.0650704,10.005058 C55.9998169,10.005058 56.7202322,10.2869558 57.226338,10.8507599 C57.7324438,11.414564 57.985493,12.2194026 57.985493,13.2653 L57.985493,18.9686808 L56.6530986,18.9686808 L56.6530986,13.6084834 C56.6530986,12.818613 56.4917152,12.2316663 56.1689437,11.8476259 C55.8461721,11.4635854 55.3516935,11.2715681 54.685493,11.2715681 C54.2413593,11.2715681 53.8553303,11.3709813 53.5273944,11.5698108 C53.1994585,11.7686402 52.9451183,12.0559853 52.7643662,12.4318547 C52.5836141,12.8077241 52.4932394,13.2489555 52.4932394,13.755562 L52.4932394,18.9686808 L51.1608451,18.9686808 L51.1608451,10.1603077 L52.4312676,10.1603077 Z M61.2932394,18.8011746 C60.8645988,18.586003 60.5289214,18.2809542 60.2861972,17.886019 C60.043473,17.4910838 59.9221127,17.0294251 59.9221127,16.501029 C59.9221127,15.7166059 60.1854903,15.1010609 60.7122535,14.6543756 C61.2390167,14.2076902 61.9904177,13.9543908 62.9664789,13.8944696 L65.3756338,13.7392199 L65.3756338,12.9384587 C65.3756338,12.3937205 65.2155415,11.977002 64.8953521,11.6882908 C64.5751627,11.3995795 64.1052144,11.255226 63.485493,11.255226 C62.9845515,11.255226 62.5688279,11.3505538 62.2383099,11.5412122 C61.9077918,11.7318705 61.6960568,12.0015119 61.6030986,12.3501444 L60.2552113,12.3501444 C60.3120191,11.8816695 60.4876042,11.4703983 60.7819718,11.1163185 C61.0763395,10.7622386 61.4610774,10.4885118 61.9361972,10.2951297 C62.4113169,10.1017476 62.9432365,10.005058 63.5319718,10.005058 C64.2033367,10.005058 64.7765704,10.122175 65.2516901,10.3564124 C65.7268099,10.5906499 66.0883086,10.9270207 66.3361972,11.365535 C66.5840857,11.8040492 66.7080282,12.3283519 66.7080282,12.9384587 L66.7080282,18.9686808 L65.4376056,18.9686808 L65.4376056,17.6694866 L65.313662,17.6694866 C65.045116,18.1379615 64.6887816,18.4974833 64.2446479,18.7480629 C63.8005142,18.9986425 63.2995803,19.1239304 62.741831,19.1239304 C62.2047391,19.1239304 61.7218801,19.0163463 61.2932394,18.8011746 Z M64.2097887,17.6000329 C64.5738751,17.4066508 64.8592008,17.1424567 65.0657746,16.8074427 C65.2723485,16.4724287 65.3756338,16.0979268 65.3756338,15.6839257 L65.3756338,14.8749935 L63.1291549,15.0302431 C62.4991048,15.0738222 62.0369029,15.2127283 61.7425352,15.4469658 C61.4481675,15.6812032 61.3009859,16.0216595 61.3009859,16.4683448 C61.3009859,16.9095828 61.4584961,17.2568482 61.7735211,17.5101515 C62.0885462,17.7634548 62.4939412,17.8901045 62.9897183,17.8901045 C63.4390163,17.8901045 63.8457024,17.7934149 64.2097887,17.6000329 Z M71.7471127,18.7112933 C71.2745751,18.4362005 70.906621,18.0535276 70.6432394,17.5632632 L70.5192958,17.5632632 L70.5192958,18.9686808 L69.2488732,18.9686808 L69.2488732,6.66310569 L70.5812676,6.66310569 L70.5812676,11.5493832 L70.7052113,11.5493832 C70.9324425,11.0754609 71.2823216,10.6995972 71.7548592,10.4217807 C72.2273967,10.1439642 72.7502788,10.005058 73.3235211,10.005058 C74.0258721,10.005058 74.6404199,10.1929899 75.1671831,10.5688593 C75.6939463,10.9447287 76.1019234,11.4758405 76.3911268,12.1622106 C76.6803301,12.8485808 76.8249296,13.649334 76.8249296,14.5644942 C76.8249296,15.4742071 76.6803301,16.2735984 76.3911268,16.9626923 C76.1019234,17.6517862 75.6926552,18.1842598 75.1633099,18.5601292 C74.6339645,18.9359986 74.0207077,19.1239304 73.3235211,19.1239304 C72.7451145,19.1239304 72.2196503,18.9863861 71.7471127,18.7112933 Z M71.704507,11.6719487 C71.3326742,11.9388704 71.0473484,12.3201815 70.8485211,12.8158933 C70.6496938,13.311605 70.5502817,13.8944662 70.5502817,14.5644942 C70.5502817,15.2345223 70.6496938,15.8173834 70.8485211,16.3130952 C71.0473484,16.808807 71.3326742,17.190118 71.704507,17.4570398 C72.0763399,17.7239615 72.5127205,17.8574204 73.013662,17.8574204 C73.5197678,17.8574204 73.9548573,17.7266852 74.3189437,17.4652108 C74.68303,17.2037365 74.9619004,16.8251491 75.1555634,16.3294373 C75.3492263,15.8337255 75.4460563,15.245417 75.4460563,14.5644942 C75.4460563,13.8835714 75.3492263,13.295263 75.1555634,12.7995512 C74.9619004,12.3038394 74.68303,11.925252 74.3189437,11.6637777 C73.9548573,11.4023033 73.5197678,11.2715681 73.013662,11.2715681 C72.5127205,11.2715681 72.0763399,11.405027 71.704507,11.6719487 Z M80.326338,6.66310569 L80.326338,18.9686808 L78.9939437,18.9686808 L78.9939437,6.66310569 L80.326338,6.66310569 Z M88.5492254,18.4784189 C87.9320861,18.9087621 87.1690656,19.1239304 86.2601408,19.1239304 C85.4958178,19.1239304 84.8296273,18.9387222 84.2615493,18.5683002 C83.6934713,18.1978782 83.2570907,17.6694901 82.9523944,16.9831199 C82.647698,16.2967497 82.4953521,15.4932729 82.4953521,14.5726653 C82.4953521,13.657505 82.6489891,12.85539 82.9562676,12.1662962 C83.2635461,11.4772023 83.7012178,10.9447287 84.2692958,10.5688593 C84.8373737,10.1929899 85.5009821,10.005058 86.2601408,10.005058 C87.0038065,10.005058 87.6480489,10.1834571 88.1928873,10.5402607 C88.7377257,10.8970642 89.1560314,11.4091105 89.4478169,12.0764148 C89.7396024,12.7437191 89.885493,13.5294922 89.885493,14.4337577 L89.885493,14.9730459 L83.8819718,14.9730459 L83.8819718,15.0384141 C83.9026292,15.6158367 84.014952,16.1183501 84.2189437,16.5459696 C84.4229353,16.9735892 84.7018057,17.3031508 85.0555634,17.5346646 C85.409321,17.7661783 85.8211714,17.8819335 86.2911268,17.8819335 C86.8282186,17.8819335 87.2775099,17.7811584 87.6390141,17.5796053 C88.0005182,17.3780521 88.2690602,17.0811742 88.4446479,16.6889627 L89.7770423,16.6889627 C89.5756328,17.4515962 89.1663646,18.0480757 88.5492254,18.4784189 Z M85.0671831,11.5698108 C84.721172,11.7849824 84.4448837,12.0873076 84.2383099,12.4767954 C84.0317361,12.8662832 83.9129579,13.319771 83.8819718,13.8372723 L88.4833803,13.8372723 C88.4730516,13.319771 88.3736394,12.8662832 88.1851408,12.4767954 C87.9966423,12.0873076 87.7358467,11.7849824 87.4027465,11.5698108 C87.0696462,11.3546392 86.6836172,11.247055 86.2446479,11.247055 C85.8056786,11.247055 85.4131942,11.3546392 85.0671831,11.5698108 Z M96.6249296,7.17788075 L97.9805634,7.17788075 L104.046056,16.3539504 L104.17,16.3539504 L104.17,7.17788075 L105.548873,7.17788075 L105.548873,18.9686808 L104.193239,18.9686808 L98.1277465,9.82529532 L98.0038028,9.82529532 L98.0038028,18.9686808 L96.6249296,18.9686808 L96.6249296,7.17788075 Z M108.271761,8.08077985 C108.088426,7.88739778 107.996761,7.65724933 107.996761,7.39032759 C107.996761,7.11795848 108.088426,6.8864482 108.271761,6.69578982 C108.455095,6.50513144 108.673285,6.40980368 108.926338,6.40980368 C109.184555,6.40980368 109.404037,6.50513144 109.584789,6.69578982 C109.765541,6.8864482 109.855915,7.11795848 109.855915,7.39032759 C109.855915,7.65724933 109.765541,7.88739778 109.584789,8.08077985 C109.404037,8.27416192 109.184555,8.37085151 108.926338,8.37085151 C108.673285,8.37085151 108.455095,8.27416192 108.271761,8.08077985 Z M109.592535,10.1603077 L109.592535,18.9686808 L108.260141,18.9686808 L108.260141,10.1603077 L109.592535,10.1603077 Z M113.825986,22.0532456 C113.322462,21.8544162 112.92094,21.5738802 112.621408,21.2116293 C112.321876,20.8493783 112.138545,20.4258507 112.071408,19.9410337 L113.481268,19.9410337 C113.553568,20.3060083 113.77305,20.5947152 114.139718,20.8071632 C114.506387,21.0196111 114.984082,21.1258334 115.572817,21.1258334 C116.321647,21.1258334 116.9065,20.941987 117.327394,20.5742887 C117.748288,20.2065904 117.958732,19.6986296 117.958732,19.0503911 L117.958732,17.3181322 L117.834789,17.3181322 C117.571407,17.8029493 117.212491,18.1774512 116.758028,18.4416492 C116.303566,18.7058473 115.789721,18.8379443 115.216479,18.8379443 C114.503799,18.8379443 113.884087,18.6554597 113.357324,18.2904851 C112.830561,17.9255105 112.425166,17.4107406 112.141127,16.7461599 C111.857088,16.0815793 111.71507,15.3107863 111.71507,14.4337577 C111.71507,13.5567292 111.858379,12.7845743 112.145,12.11727 C112.431621,11.4499656 112.838307,10.9311102 113.36507,10.5606883 C113.891834,10.1902663 114.508964,10.005058 115.216479,10.005058 C115.80005,10.005058 116.331969,10.145326 116.812254,10.4258662 C117.292538,10.7064064 117.654036,11.083632 117.896761,11.5575542 L118.020704,11.5575542 L118.020704,10.1603077 L119.291127,10.1603077 L119.291127,19.1239304 C119.291127,19.7776163 119.140072,20.3468592 118.837958,20.8316763 C118.535844,21.3164933 118.104627,21.6909952 117.544296,21.9551932 C116.983964,22.2193913 116.326811,22.3514883 115.572817,22.3514883 C114.911781,22.3514883 114.32951,22.2520751 113.825986,22.0532456 Z M117.691479,12.7627815 C117.492652,12.2861356 117.206035,11.9184428 116.83162,11.6596921 C116.457205,11.4009415 116.016951,11.2715681 115.510845,11.2715681 C114.999575,11.2715681 114.563194,11.4009415 114.20169,11.6596921 C113.840186,11.9184428 113.565189,12.2847738 113.37669,12.758696 C113.188192,13.2326183 113.093944,13.7909666 113.093944,14.4337577 C113.093944,15.0765488 113.188192,15.6348971 113.37669,16.1088194 C113.565189,16.5827417 113.840186,16.9490726 114.20169,17.2078233 C114.563194,17.4665739 114.999575,17.5959473 115.510845,17.5959473 C116.022115,17.5959473 116.46366,17.4665739 116.835493,17.2078233 C117.207326,16.9490726 117.492652,16.5813798 117.691479,16.1047339 C117.890306,15.6280879 117.989718,15.0711014 117.989718,14.4337577 C117.989718,13.796414 117.890306,13.2394275 117.691479,12.7627815 Z M123.210845,6.66310569 L123.210845,11.5493832 L123.334789,11.5493832 C123.546527,11.0536714 123.870585,10.6723604 124.306972,10.4054386 C124.743359,10.1385169 125.27657,10.005058 125.90662,10.005058 C126.495355,10.005058 127.005326,10.1330696 127.436549,10.3890966 C127.867772,10.6451235 128.200867,11.0182636 128.435845,11.508528 C128.670823,11.9987924 128.78831,12.5843773 128.78831,13.2653 L128.78831,18.9686808 L127.455915,18.9686808 L127.455915,13.6084834 C127.455915,12.8295077 127.293241,12.2452848 126.967887,11.8557969 C126.642534,11.4663091 126.162257,11.2715681 125.527042,11.2715681 C125.036429,11.2715681 124.618124,11.373705 124.272113,11.5779818 C123.926102,11.7822586 123.662724,12.0723274 123.481972,12.4481968 C123.30122,12.8240662 123.210845,13.2598502 123.210845,13.755562 L123.210845,18.9686808 L121.878451,18.9686808 L121.878451,6.66310569 L123.210845,6.66310569 Z M133.110845,10.1603077 L134.97,10.1603077 L134.97,11.3369364 L133.110845,11.3369364 L133.110845,16.3212662 C133.110845,16.8387676 133.208966,17.2146313 133.405211,17.4488687 C133.601456,17.6831062 133.916477,17.8002232 134.350282,17.8002232 C134.541362,17.8002232 134.747933,17.7893286 134.97,17.767539 L134.97,18.9523388 C134.675632,19.0068126 134.414837,19.0340491 134.187606,19.0340491 C133.609199,19.0340491 133.144415,18.9550632 132.793239,18.7970891 C132.442064,18.639115 132.185142,18.3885392 132.022465,18.0453541 C131.859788,17.702169 131.778451,17.2473194 131.778451,16.6807917 L131.778451,11.3369364 L130.430563,11.3369364 L130.430563,10.1603077 L131.778451,10.1603077 L131.778451,7.88058955 L133.110845,7.88058955 L133.110845,10.1603077 Z M141.631972,7.17788075 L143.250986,7.17788075 L147.077746,16.9340937 L147.20169,16.9340937 L151.028451,7.17788075 L152.647465,7.17788075 L152.647465,18.9686808 L151.346056,18.9686808 L151.346056,9.96420287 L151.253099,9.96420287 L147.728451,18.8869705 L146.550986,18.8869705 L143.026338,9.96420287 L142.93338,9.96420287 L142.93338,18.9686808 L141.631972,18.9686808 L141.631972,7.17788075 Z M156.710493,18.5723857 C156.129504,18.2046874 155.684086,17.6790229 155.374225,16.9953764 C155.064365,16.31173 154.909437,15.501444 154.909437,14.5644942 C154.909437,13.6275445 155.064365,12.8158967 155.374225,12.1295265 C155.684086,11.4431563 156.128213,10.9174918 156.70662,10.5525172 C157.285026,10.1875426 157.969292,10.005058 158.759437,10.005058 C159.549581,10.005058 160.233847,10.1875426 160.812254,10.5525172 C161.39066,10.9174918 161.834787,11.4431563 162.144648,12.1295265 C162.454509,12.8158967 162.609437,13.6275445 162.609437,14.5644942 C162.609437,15.501444 162.454509,16.31173 162.144648,16.9953764 C161.834787,17.6790229 161.389369,18.2046874 160.80838,18.5723857 C160.227391,18.940084 159.544417,19.1239304 158.759437,19.1239304 C157.974456,19.1239304 157.291482,18.940084 156.710493,18.5723857 Z M160.587606,16.9953764 C161.016246,16.4206776 161.230563,15.6103916 161.230563,14.5644942 C161.230563,13.5185968 161.016246,12.7083109 160.587606,12.133612 C160.158965,11.5589132 159.549581,11.2715681 158.759437,11.2715681 C157.969292,11.2715681 157.359908,11.5589132 156.931268,12.133612 C156.502627,12.7083109 156.28831,13.5185968 156.28831,14.5644942 C156.28831,15.6103916 156.502627,16.4206776 156.931268,16.9953764 C157.359908,17.5700753 157.969292,17.8574204 158.759437,17.8574204 C159.549581,17.8574204 160.158965,17.5700753 160.587606,16.9953764 Z M165.936549,18.5642147 C165.407204,18.191069 164.999227,17.6599572 164.712606,16.9708633 C164.425984,16.2817695 164.282676,15.4796545 164.282676,14.5644942 C164.282676,13.6547814 164.427276,12.85539 164.716479,12.1662962 C165.005682,11.4772023 165.41495,10.9447287 165.944296,10.5688593 C166.473641,10.1929899 167.08948,10.005058 167.791831,10.005058 C168.375402,10.005058 168.898284,10.1426024 169.360493,10.4176952 C169.822702,10.692788 170.172581,11.0700136 170.410141,11.5493832 L170.526338,11.5493832 L170.526338,6.66310569 L171.858732,6.66310569 L171.858732,18.9686808 L170.58831,18.9686808 L170.58831,17.5632632 L170.464366,17.5632632 C170.200985,18.0535276 169.834322,18.4362005 169.364366,18.7112933 C168.894411,18.9863861 168.370238,19.1239304 167.791831,19.1239304 C167.084316,19.1239304 166.465895,18.9373604 165.936549,18.5642147 Z M166.800282,11.6678632 C166.433613,11.9320612 166.152161,12.3106486 165.955915,12.8036367 C165.75967,13.2966248 165.661549,13.8835714 165.661549,14.5644942 C165.661549,15.245417 165.758379,15.8337255 165.952042,16.3294373 C166.145705,16.8251491 166.425867,17.2037365 166.792535,17.4652108 C167.159204,17.7266852 167.595584,17.8574204 168.10169,17.8574204 C168.602632,17.8574204 169.037721,17.7239615 169.406972,17.4570398 C169.776223,17.190118 170.060257,16.8101688 170.259085,16.3171807 C170.457912,15.8241926 170.557324,15.2399696 170.557324,14.5644942 C170.557324,13.8944662 170.457912,13.311605 170.259085,12.8158933 C170.060257,12.3201815 169.776223,11.9388704 169.406972,11.6719487 C169.037721,11.405027 168.602632,11.2715681 168.10169,11.2715681 C167.600749,11.2715681 167.16695,11.4036651 166.800282,11.6678632 Z M180.08162,18.4784189 C179.46448,18.9087621 178.70146,19.1239304 177.792535,19.1239304 C177.028212,19.1239304 176.362022,18.9387222 175.793944,18.5683002 C175.225866,18.1978782 174.789485,17.6694901 174.484789,16.9831199 C174.180092,16.2967497 174.027746,15.4932729 174.027746,14.5726653 C174.027746,13.657505 174.181383,12.85539 174.488662,12.1662962 C174.795941,11.4772023 175.233612,10.9447287 175.80169,10.5688593 C176.369768,10.1929899 177.033376,10.005058 177.792535,10.005058 C178.536201,10.005058 179.180443,10.1834571 179.725282,10.5402607 C180.27012,10.8970642 180.688426,11.4091105 180.980211,12.0764148 C181.271997,12.7437191 181.417887,13.5294922 181.417887,14.4337577 L181.417887,14.9730459 L175.414366,14.9730459 L175.414366,15.0384141 C175.435024,15.6158367 175.547346,16.1183501 175.751338,16.5459696 C175.95533,16.9735892 176.2342,17.3031508 176.587958,17.5346646 C176.941715,17.7661783 177.353566,17.8819335 177.823521,17.8819335 C178.360613,17.8819335 178.809904,17.7811584 179.171408,17.5796053 C179.532913,17.3780521 179.801455,17.0811742 179.977042,16.6889627 L181.309437,16.6889627 C181.108027,17.4515962 180.698759,18.0480757 180.08162,18.4784189 Z M176.599577,11.5698108 C176.253566,11.7849824 175.977278,12.0873076 175.770704,12.4767954 C175.56413,12.8662832 175.445352,13.319771 175.414366,13.8372723 L180.015775,13.8372723 C180.005446,13.319771 179.906034,12.8662832 179.717535,12.4767954 C179.529037,12.0873076 179.268241,11.7849824 178.935141,11.5698108 C178.602041,11.3546392 178.216012,11.247055 177.777042,11.247055 C177.338073,11.247055 176.945589,11.3546392 176.599577,11.5698108 Z"/>
        </g>
        <rect width="351.84" height="1" y="5.949" fill="#D8D8D8" transform="translate(12 311.462)"/>
      </g>
    </g>
  </g>
</svg>
