<svg xmlns="http://www.w3.org/2000/svg" width="300" height="180" style="background:#f9f9fa" viewBox="0 0 300 180">
  <g fill="none" fill-rule="evenodd" transform="translate(74 74)">
    <rect width="152" height="32" fill="#0060DF" rx="2"/>
    <path fill="#FFF" d="M10.3334961,20.3735352 L10.3334961,18.8183594 C10.4731452,18.9453131 10.6392406,19.0595698 10.8317871,19.1611328 C11.0243336,19.2626958 11.2285145,19.3483883 11.4443359,19.4182129 C11.6601573,19.4880375 11.8759755,19.541992 12.0917969,19.5800781 C12.3076183,19.6181643 12.5065095,19.637207 12.6884766,19.637207 C13.3232454,19.637207 13.796141,19.5314138 14.1071777,19.3198242 C14.4182144,19.1082346 14.5737305,18.8014343 14.5737305,18.3994141 C14.5737305,18.1835927 14.5218918,17.9963387 14.4182129,17.8376465 C14.314534,17.6789543 14.1695973,17.5340176 13.9833984,17.402832 C13.7971996,17.2716465 13.5782076,17.1457526 13.326416,17.0251465 C13.0746244,16.9045404 12.8048517,16.7786465 12.5170898,16.6474609 C12.208169,16.482421 11.9204115,16.3152678 11.6538086,16.1459961 C11.3872057,15.9767244 11.1555186,15.7894704 10.9587402,15.5842285 C10.7619619,15.3789866 10.6075038,15.1472995 10.4953613,14.8891602 C10.3832188,14.6310208 10.3271484,14.3284523 10.3271484,13.9814453 C10.3271484,13.5540343 10.4234203,13.1827001 10.6159668,12.8674316 C10.8085133,12.5521631 11.062417,12.2919118 11.3776855,12.0866699 C11.6929541,11.881428 12.051593,11.7290858 12.4536133,11.6296387 C12.8556335,11.5301916 13.2661112,11.4804688 13.6850586,11.4804688 C14.6372118,11.4804688 15.3312153,11.5883778 15.7670898,11.8041992 L15.7670898,13.2958984 C15.2508112,12.9235007 14.5864298,12.7373047 13.7739258,12.7373047 C13.5496408,12.7373047 13.3264171,12.7584633 13.104248,12.8007812 C12.882079,12.8430992 12.6831877,12.9129227 12.5075684,13.0102539 C12.331949,13.1075851 12.1891282,13.2324211 12.0791016,13.3847656 C11.969075,13.5371101 11.9140625,13.7211903 11.9140625,13.9370117 C11.9140625,14.1401377 11.9563798,14.3157545 12.0410156,14.4638672 C12.1256515,14.6119799 12.2494295,14.7473952 12.4123535,14.8701172 C12.5752775,14.9928392 12.7741687,15.1123855 13.0090332,15.2287598 C13.2438977,15.345134 13.5157862,15.471028 13.824707,15.6064453 C14.1420914,15.7714852 14.4414862,15.9449861 14.7229004,16.1269531 C15.0043146,16.3089202 15.2518707,16.5099273 15.4655762,16.7299805 C15.6792817,16.9500337 15.8485508,17.194416 15.9733887,17.4631348 C16.0982265,17.7318536 16.1606445,18.0375959 16.1606445,18.3803711 C16.1606445,18.8416364 16.0675465,19.2309554 15.8813477,19.5483398 C15.6951488,19.8657242 15.4444189,20.1238597 15.1291504,20.3227539 C14.8138819,20.5216481 14.4510112,20.6655269 14.0405273,20.7543945 C13.6300435,20.8432622 13.1962913,20.8876953 12.7392578,20.8876953 C12.5869133,20.8876953 12.3996593,20.8760581 12.1774902,20.8527832 C11.9553212,20.8295083 11.7278657,20.7956545 11.4951172,20.7512207 C11.2623686,20.7067869 11.0423187,20.6528323 10.8349609,20.5893555 C10.6276031,20.5258786 10.4604499,20.4539392 10.3334961,20.3735352 Z M23.4414062,20.7353516 L21.96875,20.7353516 L21.96875,17.1806641 C21.96875,15.8941993 21.5392296,15.2509766 20.6801758,15.2509766 C20.248533,15.2509766 19.8846043,15.4371726 19.5883789,15.8095703 C19.2921535,16.181968 19.144043,16.6580375 19.144043,17.237793 L19.144043,20.7353516 L17.6650391,20.7353516 L17.6650391,11.1123047 L19.144043,11.1123047 L19.144043,15.3144531 L19.1694336,15.3144531 C19.6603215,14.4934855 20.3627884,14.0830078 21.2768555,14.0830078 C22.7198965,14.0830078 23.4414062,14.9653232 23.4414062,16.7299805 L23.4414062,20.7353516 Z M28.1132812,20.8876953 C27.1103465,20.8876953 26.3094919,20.5840688 25.7106934,19.9768066 C25.1118948,19.3695445 24.8125,18.5644581 24.8125,17.5615234 C24.8125,16.4697211 25.12459,15.6170278 25.7487793,15.003418 C26.3729686,14.3898081 27.2140247,14.0830078 28.2719727,14.0830078 C29.2876027,14.0830078 30.078936,14.3813447 30.6459961,14.9780273 C31.2130562,15.57471 31.496582,16.4020129 31.496582,17.4599609 C31.496582,18.49675 31.1908396,19.3272267 30.5793457,19.951416 C29.9678518,20.5756053 29.1458385,20.8876953 28.1132812,20.8876953 Z M28.1831055,15.2573242 C27.6075818,15.2573242 27.1526709,15.4583313 26.8183594,15.8603516 C26.4840478,16.2623718 26.3168945,16.8167282 26.3168945,17.5234375 C26.3168945,18.204756 26.4861637,18.7411276 26.824707,19.1325684 C27.1632504,19.5240091 27.6160453,19.7197266 28.1831055,19.7197266 C28.762861,19.7197266 29.2082504,19.5271829 29.5192871,19.1420898 C29.8303238,18.7569968 29.9858398,18.2089879 29.9858398,17.4980469 C29.9858398,16.782874 29.8303238,16.2306335 29.5192871,15.8413086 C29.2082504,15.4519837 28.762861,15.2573242 28.1831055,15.2573242 Z M41.7353516,14.2353516 L39.8183594,20.7353516 L38.2758789,20.7353516 L37.0952148,16.3300781 C37.0486651,16.1608064 37.019043,15.9703787 37.0063477,15.7587891 L36.980957,15.7587891 C36.9724934,15.90267 36.9344079,16.088866 36.8666992,16.3173828 L35.5844727,20.7353516 L34.0737305,20.7353516 L32.1630859,14.2353516 L33.6865234,14.2353516 L34.8671875,18.9199219 C34.9052736,19.059571 34.930664,19.2457671 34.9433594,19.4785156 L34.987793,19.4785156 C35.0004883,19.3007804 35.0343422,19.1103526 35.0893555,18.9072266 L36.4033203,14.2353516 L37.7871094,14.2353516 L38.9550781,18.9389648 C38.9931643,19.0870776 39.0206705,19.2732736 39.0375977,19.4975586 L39.0820312,19.4975586 C39.0904948,19.3409823 39.1222328,19.1547862 39.1772461,18.9389648 L40.3325195,14.2353516 L41.7353516,14.2353516 Z M54.043457,20.7353516 L52.3867188,20.7353516 L51.5678711,18.418457 L47.987793,18.418457 L47.2006836,20.7353516 L45.550293,20.7353516 L48.9589844,11.6328125 L50.6601562,11.6328125 L54.043457,20.7353516 Z M51.1679687,17.1870117 L49.9047852,13.5561523 C49.866699,13.4376622 49.8264976,13.2472344 49.7841797,12.9848633 L49.7587891,12.9848633 C49.7207029,13.2260754 49.6783856,13.4165032 49.6318359,13.5561523 L48.3813477,17.1870117 L51.1679687,17.1870117 Z M61.0385742,20.7353516 L59.565918,20.7353516 L59.565918,19.6308594 L59.5405273,19.6308594 C59.0665666,20.4687542 58.3365935,20.8876953 57.3505859,20.8876953 C56.5507773,20.8876953 55.9107283,20.596764 55.4304199,20.0148926 C54.9501115,19.4330212 54.7099609,18.64063 54.7099609,17.6376953 C54.7099609,16.5628201 54.9755019,15.7016634 55.5065918,15.0541992 C56.0376817,14.406735 56.7454383,14.0830078 57.6298828,14.0830078 C58.5058638,14.0830078 59.1427389,14.4342413 59.5405273,15.1367188 L59.565918,15.1367188 L59.565918,11.1123047 L61.0385742,11.1123047 L61.0385742,20.7353516 Z M59.5849609,17.7646484 L59.5849609,16.9140625 C59.5849609,16.4527972 59.4347346,16.0613623 59.1342773,15.7397461 C58.8338201,15.4181299 58.4508487,15.2573242 57.9853516,15.2573242 C57.4352186,15.2573242 57.0025244,15.4625631 56.6872559,15.8730469 C56.3719874,16.2835307 56.2143555,16.8526982 56.2143555,17.5805664 C56.2143555,18.240726 56.3656398,18.7622865 56.6682129,19.1452637 C56.970786,19.5282408 57.3780899,19.7197266 57.8901367,19.7197266 C58.39372,19.7197266 58.8020818,19.5345884 59.1152344,19.1643066 C59.428387,18.7940248 59.5849609,18.3274768 59.5849609,17.7646484 Z M68.871582,20.7353516 L67.3989258,20.7353516 L67.3989258,19.6308594 L67.3735352,19.6308594 C66.8995745,20.4687542 66.1696013,20.8876953 65.1835938,20.8876953 C64.3837851,20.8876953 63.7437361,20.596764 63.2634277,20.0148926 C62.7831193,19.4330212 62.5429687,18.64063 62.5429687,17.6376953 C62.5429687,16.5628201 62.8085097,15.7016634 63.3395996,15.0541992 C63.8706895,14.406735 64.5784461,14.0830078 65.4628906,14.0830078 C66.3388716,14.0830078 66.9757467,14.4342413 67.3735352,15.1367188 L67.3989258,15.1367188 L67.3989258,11.1123047 L68.871582,11.1123047 L68.871582,20.7353516 Z M67.4179688,17.7646484 L67.4179688,16.9140625 C67.4179688,16.4527972 67.2677424,16.0613623 66.9672852,15.7397461 C66.6668279,15.4181299 66.2838565,15.2573242 65.8183594,15.2573242 C65.2682264,15.2573242 64.8355322,15.4625631 64.5202637,15.8730469 C64.2049952,16.2835307 64.0473633,16.8526982 64.0473633,17.5805664 C64.0473633,18.240726 64.1986476,18.7622865 64.5012207,19.1452637 C64.8037938,19.5282408 65.2110977,19.7197266 65.7231445,19.7197266 C66.2267278,19.7197266 66.6350896,19.5345884 66.9482422,19.1643066 C67.2613948,18.7940248 67.4179688,18.3274768 67.4179688,17.7646484 Z M74.2163086,17.7265625 L70.7504883,17.7265625 L70.7504883,16.6411133 L74.2163086,16.6411133 L74.2163086,17.7265625 Z M78.9008789,20.8876953 C77.8979442,20.8876953 77.0970896,20.5840688 76.498291,19.9768066 C75.8994924,19.3695445 75.6000977,18.5644581 75.6000977,17.5615234 C75.6000977,16.4697211 75.9121876,15.6170278 76.536377,15.003418 C77.1605663,14.3898081 78.0016223,14.0830078 79.0595703,14.0830078 C80.0752004,14.0830078 80.8665336,14.3813447 81.4335938,14.9780273 C82.0006539,15.57471 82.2841797,16.4020129 82.2841797,17.4599609 C82.2841797,18.49675 81.9784373,19.3272267 81.3669434,19.951416 C80.7554494,20.5756053 79.9334362,20.8876953 78.9008789,20.8876953 Z M78.9707031,15.2573242 C78.3951794,15.2573242 77.9402686,15.4583313 77.605957,15.8603516 C77.2716455,16.2623718 77.1044922,16.8167282 77.1044922,17.5234375 C77.1044922,18.204756 77.2737613,18.7411276 77.6123047,19.1325684 C77.950848,19.5240091 78.403643,19.7197266 78.9707031,19.7197266 C79.5504586,19.7197266 79.9958481,19.5271829 80.3068848,19.1420898 C80.6179215,18.7569968 80.7734375,18.2089879 80.7734375,17.4980469 C80.7734375,16.782874 80.6179215,16.2306335 80.3068848,15.8413086 C79.9958481,15.4519837 79.5504586,15.2573242 78.9707031,15.2573242 Z M89.5712891,20.7353516 L88.0986328,20.7353516 L88.0986328,17.0727539 C88.0986328,15.8582296 87.6691124,15.2509766 86.8100586,15.2509766 C86.3614886,15.2509766 85.9912124,15.4191878 85.6992188,15.7556152 C85.4072251,16.0920427 85.2612305,16.5162735 85.2612305,17.0283203 L85.2612305,20.7353516 L83.7822266,20.7353516 L83.7822266,14.2353516 L85.2612305,14.2353516 L85.2612305,15.3144531 L85.2866211,15.3144531 C85.7732772,14.4934855 86.4757441,14.0830078 87.394043,14.0830078 C88.1007522,14.0830078 88.6402976,14.3125791 89.0126953,14.7717285 C89.385093,15.2308779 89.5712891,15.8942014 89.5712891,16.7617188 L89.5712891,20.7353516 Z M95.684082,12.8706055 C95.4428699,12.8706055 95.2365731,12.7923185 95.0651855,12.6357422 C94.893798,12.4791659 94.8081055,12.2802746 94.8081055,12.0390625 C94.8081055,11.7978504 94.893798,11.5968433 95.0651855,11.4360352 C95.2365731,11.2752271 95.4428699,11.1948242 95.684082,11.1948242 C95.9337578,11.1948242 96.1453442,11.2752271 96.3188477,11.4360352 C96.4923511,11.5968433 96.5791016,11.7978504 96.5791016,12.0390625 C96.5791016,12.2675793 96.4923511,12.4632967 96.3188477,12.6262207 C96.1453442,12.7891447 95.9337578,12.8706055 95.684082,12.8706055 Z M96.4140625,20.7353516 L94.9414062,20.7353516 L94.9414062,14.2353516 L96.4140625,14.2353516 L96.4140625,20.7353516 Z M104.126465,20.7353516 L102.653809,20.7353516 L102.653809,17.0727539 C102.653809,15.8582296 102.224288,15.2509766 101.365234,15.2509766 C100.916664,15.2509766 100.546388,15.4191878 100.254395,15.7556152 C99.9624009,16.0920427 99.8164062,16.5162735 99.8164062,17.0283203 L99.8164062,20.7353516 L98.3374023,20.7353516 L98.3374023,14.2353516 L99.8164062,14.2353516 L99.8164062,15.3144531 L99.8417969,15.3144531 C100.328453,14.4934855 101.03092,14.0830078 101.949219,14.0830078 C102.655928,14.0830078 103.195473,14.3125791 103.567871,14.7717285 C103.940269,15.2308779 104.126465,15.8942014 104.126465,16.7617188 L104.126465,20.7353516 Z M119.437012,20.7353516 L117.938965,20.7353516 L117.938965,14.8447266 C117.938965,14.3623023 117.968587,13.7719761 118.027832,13.0737305 L118.002441,13.0737305 C117.909342,13.4715189 117.826823,13.7571606 117.754883,13.9306641 L115.038086,20.7353516 L113.99707,20.7353516 L111.273926,13.9814453 C111.197754,13.7825511 111.117351,13.4799825 111.032715,13.0737305 L111.007324,13.0737305 C111.041179,13.4376646 111.058105,14.0322224 111.058105,14.8574219 L111.058105,20.7353516 L109.661621,20.7353516 L109.661621,11.6328125 L111.788086,11.6328125 L114.181152,17.6948242 C114.363119,18.1603213 114.481608,18.5073231 114.536621,18.7358398 L114.568359,18.7358398 C114.724936,18.2576473 114.851888,17.9021822 114.949219,17.6694336 L117.386719,11.6328125 L119.437012,11.6328125 L119.437012,20.7353516 Z M127.016113,17.8852539 L122.585449,17.8852539 C122.602376,18.4861684 122.787515,18.9495426 123.140869,19.2753906 C123.494224,19.6012386 123.979815,19.7641602 124.597656,19.7641602 C125.29167,19.7641602 125.928545,19.5568055 126.508301,19.1420898 L126.508301,20.3291016 C125.91585,20.7014993 125.13298,20.8876953 124.159668,20.8876953 C123.203283,20.8876953 122.453209,20.5925322 121.909424,20.0021973 C121.365639,19.4118623 121.09375,18.5813856 121.09375,17.5107422 C121.09375,16.4993439 121.393145,15.6752148 121.991943,15.0383301 C122.590742,14.4014454 123.334468,14.0830078 124.223145,14.0830078 C125.111821,14.0830078 125.799477,14.3686495 126.286133,14.9399414 C126.772789,15.5112333 127.016113,16.3046824 127.016113,17.3203125 L127.016113,17.8852539 Z M125.594238,16.8442383 C125.590006,16.3152643 125.46517,15.9037287 125.219727,15.6096191 C124.974283,15.3155096 124.635744,15.168457 124.204102,15.168457 C123.780922,15.168457 123.422283,15.3229151 123.128174,15.6318359 C122.834064,15.9407568 122.653158,16.3448868 122.585449,16.8442383 L125.594238,16.8442383 Z M134.208008,20.7353516 L132.735352,20.7353516 L132.735352,17.0727539 C132.735352,15.8582296 132.305831,15.2509766 131.446777,15.2509766 C130.998207,15.2509766 130.627931,15.4191878 130.335938,15.7556152 C130.043944,16.0920427 129.897949,16.5162735 129.897949,17.0283203 L129.897949,20.7353516 L128.418945,20.7353516 L128.418945,14.2353516 L129.897949,14.2353516 L129.897949,15.3144531 L129.92334,15.3144531 C130.409996,14.4934855 131.112463,14.0830078 132.030762,14.0830078 C132.737471,14.0830078 133.277016,14.3125791 133.649414,14.7717285 C134.021812,15.2308779 134.208008,15.8942014 134.208008,16.7617188 L134.208008,20.7353516 Z M141.672852,20.7353516 L140.200195,20.7353516 L140.200195,19.7070312 L140.174805,19.7070312 C139.747394,20.4941446 139.083012,20.8876953 138.181641,20.8876953 C136.6455,20.8876953 135.877441,19.9651785 135.877441,18.1201172 L135.877441,14.2353516 L137.350098,14.2353516 L137.350098,17.9677734 C137.350098,19.135748 137.800777,19.7197266 138.702148,19.7197266 C139.138023,19.7197266 139.496662,19.5589209 139.778076,19.2373047 C140.05949,18.9156885 140.200195,18.4946315 140.200195,17.9741211 L140.200195,14.2353516 L141.672852,14.2353516 L141.672852,20.7353516 Z"/>
  </g>
</svg>
