<svg xmlns="http://www.w3.org/2000/svg" xmlns:xlink="http://www.w3.org/1999/xlink" width="350" height="180" viewBox="0 0 350 180">
  <defs>
    <path id="attention-a" d="M7.22254109,5.98945674 L11.7593901,1.45260771 C12.0842229,1.11628355 12.0795773,0.581679455 11.7489489,0.251051076 C11.4183205,-0.0795773034 10.8837165,-0.0842228685 10.5473923,0.240609874 L6.01054326,4.77745891 L1.47369422,0.240609874 C1.13737006,-0.0842228685 0.602765966,-0.0795773034 0.272137586,0.251051076 C-0.0584907931,0.581679455 -0.0631363582,1.11628355 0.261696384,1.45260771 L4.79854542,5.98945674 L0.261696384,10.5263058 C0.0388768524,10.7415121 -0.0504852845,11.0602002 0.0279563816,11.359882 C0.106398048,11.6595638 0.340436167,11.893602 0.640118002,11.9720436 C0.939799836,12.0504853 1.25848791,11.9611231 1.47369422,11.7383036 L6.01054326,7.20145458 L10.5473923,11.7383036 C10.8837165,12.0631364 11.4183205,12.0584908 11.7489489,11.7278624 C12.0795773,11.397234 12.0842229,10.8626299 11.7593901,10.5263058 L7.22254109,5.98945674 Z"/>
  </defs>
  <g fill="none" fill-rule="evenodd">
    <rect width="320" height="32" x="15" y="74" fill="#00FEFF" fill-rule="nonzero" rx="3"/>
    <path fill="#002D3E" fill-rule="nonzero" d="M51.8369141,95 L51.8369141,91.0581055 L55.0869141,85.840332 L53.7856445,85.840332 L51.3164062,89.9091797 L51.2148438,89.9091797 L48.7456055,85.840332 L47.4443359,85.840332 L50.6943359,91.0581055 L50.6943359,95 L51.8369141,95 Z M58.2924805,95.1206055 C56.34375,95.1206055 55.1376953,93.7749023 55.1376953,91.5786133 C55.1376953,89.3759766 56.34375,88.0366211 58.2924805,88.0366211 C60.2412109,88.0366211 61.4472656,89.3759766 61.4472656,91.5786133 C61.4472656,93.7749023 60.2412109,95.1206055 58.2924805,95.1206055 Z M58.2924805,94.1367188 C59.5874023,94.1367188 60.3173828,93.1972656 60.3173828,91.5786133 C60.3173828,89.9536133 59.5874023,89.0205078 58.2924805,89.0205078 C56.9975586,89.0205078 56.2675781,89.9536133 56.2675781,91.5786133 C56.2675781,93.1972656 56.9975586,94.1367188 58.2924805,94.1367188 Z M68.6962891,88.1572266 L67.6044922,88.1572266 L67.6044922,92.2070312 C67.6044922,93.4067383 66.9443359,94.1240234 65.7382812,94.1240234 C64.6464844,94.1240234 64.1894531,93.5527344 64.1894531,92.3212891 L64.1894531,88.1572266 L63.0976562,88.1572266 L63.0976562,92.5878906 C63.0976562,94.206543 63.8974609,95.1206055 65.4335938,95.1206055 C66.480957,95.1206055 67.2109375,94.6889648 67.5537109,93.9272461 L67.6552734,93.9272461 L67.6552734,95 L68.6962891,95 L68.6962891,88.1572266 Z M74.4853516,95 L75.5771484,95 L75.5771484,90.9501953 C75.5771484,89.7949219 76.25,89.0205078 77.4750977,89.0205078 C78.5097656,89.0205078 79.0556641,89.6235352 79.0556641,90.8359375 L79.0556641,95 L80.1474609,95 L80.1474609,90.5693359 C80.1474609,88.9633789 79.2333984,88.0366211 77.7861328,88.0366211 C76.7387695,88.0366211 76.0214844,88.480957 75.6787109,89.2363281 L75.5771484,89.2363281 L75.5771484,85.4404297 L74.4853516,85.4404297 L74.4853516,95 Z M84.2480469,94.1621094 C85.371582,94.1621094 86.203125,93.4257812 86.203125,92.4482422 L86.203125,91.8198242 L84.3623047,91.9404297 C83.3212891,92.0102539 82.8642578,92.3720703 82.8642578,93.0576172 C82.8642578,93.7558594 83.4545898,94.1621094 84.2480469,94.1621094 Z M84.0449219,95.1206055 C82.7182617,95.1206055 81.734375,94.3334961 81.734375,93.0830078 C81.734375,91.8579102 82.6357422,91.1533203 84.2290039,91.0581055 L86.203125,90.9375 L86.203125,90.3154297 C86.203125,89.4711914 85.6762695,89.0078125 84.6542969,89.0078125 C83.8354492,89.0078125 83.2641602,89.3188477 83.1118164,89.8583984 L82.0073242,89.8583984 C82.1533203,88.7602539 83.2324219,88.0366211 84.6923828,88.0366211 C86.3618164,88.0366211 87.2949219,88.8935547 87.2949219,90.3154297 L87.2949219,95 L86.2539062,95 L86.2539062,93.9907227 L86.1523438,93.9907227 C85.7080078,94.7207031 84.9589844,95.1206055 84.0449219,95.1206055 Z M94.6455078,88.1572266 L93.4775391,88.1572266 L91.6049805,93.7939453 L91.503418,93.7939453 L89.6308594,88.1572266 L88.4628906,88.1572266 L90.9956055,95 L92.112793,95 L94.6455078,88.1572266 Z M98.5810547,89.0014648 C97.4892578,89.0014648 96.7275391,89.8012695 96.6450195,91.0136719 L100.415527,91.0136719 C100.390137,89.8012695 99.6665039,89.0014648 98.5810547,89.0014648 Z M100.383789,93.2290039 L101.475586,93.2290039 C101.145508,94.4033203 100.091797,95.1206055 98.59375,95.1206055 C96.6958008,95.1206055 95.5087891,93.7495117 95.5087891,91.5849609 C95.5087891,89.4331055 96.7148438,88.0366211 98.59375,88.0366211 C100.440918,88.0366211 101.564453,89.3505859 101.564453,91.4770508 L101.564453,91.8959961 L96.6450195,91.8959961 L96.6450195,91.9467773 C96.7021484,93.2988281 97.4575195,94.1557617 98.6191406,94.1557617 C99.5014648,94.1557617 100.098145,93.8320312 100.383789,93.2290039 Z M109.054688,94.1621094 C110.178223,94.1621094 111.009766,93.4257812 111.009766,92.4482422 L111.009766,91.8198242 L109.168945,91.9404297 C108.12793,92.0102539 107.670898,92.3720703 107.670898,93.0576172 C107.670898,93.7558594 108.26123,94.1621094 109.054688,94.1621094 Z M108.851562,95.1206055 C107.524902,95.1206055 106.541016,94.3334961 106.541016,93.0830078 C106.541016,91.8579102 107.442383,91.1533203 109.035645,91.0581055 L111.009766,90.9375 L111.009766,90.3154297 C111.009766,89.4711914 110.48291,89.0078125 109.460938,89.0078125 C108.64209,89.0078125 108.070801,89.3188477 107.918457,89.8583984 L106.813965,89.8583984 C106.959961,88.7602539 108.039062,88.0366211 109.499023,88.0366211 C111.168457,88.0366211 112.101562,88.8935547 112.101562,90.3154297 L112.101562,95 L111.060547,95 L111.060547,93.9907227 L110.958984,93.9907227 C110.514648,94.7207031 109.765625,95.1206055 108.851562,95.1206055 Z M117.789062,95 L118.880859,95 L118.880859,90.9501953 C118.880859,89.7504883 119.585449,89.0205078 120.677246,89.0205078 C121.769043,89.0205078 122.289551,89.6044922 122.289551,90.8359375 L122.289551,95 L123.381348,95 L123.381348,90.5693359 C123.381348,88.9443359 122.524414,88.0366211 120.988281,88.0366211 C119.940918,88.0366211 119.274414,88.480957 118.931641,89.2363281 L118.830078,89.2363281 L118.830078,88.1572266 L117.789062,88.1572266 L117.789062,95 Z M128.104004,89.0014648 C127.012207,89.0014648 126.250488,89.8012695 126.167969,91.0136719 L129.938477,91.0136719 C129.913086,89.8012695 129.189453,89.0014648 128.104004,89.0014648 Z M129.906738,93.2290039 L130.998535,93.2290039 C130.668457,94.4033203 129.614746,95.1206055 128.116699,95.1206055 C126.21875,95.1206055 125.031738,93.7495117 125.031738,91.5849609 C125.031738,89.4331055 126.237793,88.0366211 128.116699,88.0366211 C129.963867,88.0366211 131.087402,89.3505859 131.087402,91.4770508 L131.087402,91.8959961 L126.167969,91.8959961 L126.167969,91.9467773 C126.225098,93.2988281 126.980469,94.1557617 128.14209,94.1557617 C129.024414,94.1557617 129.621094,93.8320312 129.906738,93.2290039 Z M141.408691,88.1572266 L140.310547,88.1572266 L138.964844,93.6289062 L138.863281,93.6289062 L137.333496,88.1572266 L136.286133,88.1572266 L134.756348,93.6289062 L134.654785,93.6289062 L133.309082,88.1572266 L132.20459,88.1572266 L134.121582,95 L135.226074,95 L136.749512,89.7060547 L136.851074,89.7060547 L138.380859,95 L139.491699,95 L141.408691,88.1572266 Z M152.123535,88.1572266 L150.955566,88.1572266 L149.083008,93.7939453 L148.981445,93.7939453 L147.108887,88.1572266 L145.940918,88.1572266 L148.473633,95 L149.59082,95 L152.123535,88.1572266 Z M156.059082,89.0014648 C154.967285,89.0014648 154.205566,89.8012695 154.123047,91.0136719 L157.893555,91.0136719 C157.868164,89.8012695 157.144531,89.0014648 156.059082,89.0014648 Z M157.861816,93.2290039 L158.953613,93.2290039 C158.623535,94.4033203 157.569824,95.1206055 156.071777,95.1206055 C154.173828,95.1206055 152.986816,93.7495117 152.986816,91.5849609 C152.986816,89.4331055 154.192871,88.0366211 156.071777,88.0366211 C157.918945,88.0366211 159.04248,89.3505859 159.04248,91.4770508 L159.04248,91.8959961 L154.123047,91.8959961 L154.123047,91.9467773 C154.180176,93.2988281 154.935547,94.1557617 156.097168,94.1557617 C156.979492,94.1557617 157.576172,93.8320312 157.861816,93.2290039 Z M160.756348,95 L161.848145,95 L161.848145,90.7597656 C161.848145,89.7949219 162.603516,89.0966797 163.644531,89.0966797 C163.860352,89.0966797 164.253906,89.1347656 164.342773,89.1601562 L164.342773,88.0683594 C164.203125,88.0493164 163.974609,88.0366211 163.796875,88.0366211 C162.88916,88.0366211 162.102051,88.5063477 161.898926,89.1728516 L161.797363,89.1728516 L161.797363,88.1572266 L160.756348,88.1572266 L160.756348,95 Z M165.859863,95 L166.95166,95 L166.95166,88.1572266 L165.859863,88.1572266 L165.859863,95 Z M166.405762,86.7670898 C166.824707,86.7670898 167.16748,86.4243164 167.16748,86.0053711 C167.16748,85.5864258 166.824707,85.2436523 166.405762,85.2436523 C165.986816,85.2436523 165.644043,85.5864258 165.644043,86.0053711 C165.644043,86.4243164 165.986816,86.7670898 166.405762,86.7670898 Z M169.490723,95 L170.58252,95 L170.58252,89.0712891 L172.150391,89.0712891 L172.150391,88.1572266 L170.58252,88.1572266 L170.58252,87.5224609 C170.58252,86.7543945 170.950684,86.4243164 171.604492,86.4243164 C171.820312,86.4243164 172.067871,86.449707 172.213867,86.4814453 L172.213867,85.5673828 C171.947266,85.5229492 171.756836,85.5039062 171.541016,85.5039062 C170.220703,85.5039062 169.490723,86.0878906 169.490723,87.4907227 L169.490723,88.1572266 L168.354492,88.1572266 L168.354492,89.0712891 L169.490723,89.0712891 L169.490723,95 Z M173.762695,95 L174.854492,95 L174.854492,88.1572266 L173.762695,88.1572266 L173.762695,95 Z M174.308594,86.7670898 C174.727539,86.7670898 175.070312,86.4243164 175.070312,86.0053711 C175.070312,85.5864258 174.727539,85.2436523 174.308594,85.2436523 C173.889648,85.2436523 173.546875,85.5864258 173.546875,86.0053711 C173.546875,86.4243164 173.889648,86.7670898 174.308594,86.7670898 Z M182.598633,90.2519531 C182.408203,89.0332031 181.392578,88.0366211 179.729492,88.0366211 C177.8125,88.0366211 176.59375,89.4204102 176.59375,91.5532227 C176.59375,93.7304688 177.818848,95.1206055 179.73584,95.1206055 C181.379883,95.1206055 182.401855,94.1938477 182.598633,92.9370117 L181.494141,92.9370117 C181.291016,93.7114258 180.649902,94.1367188 179.729492,94.1367188 C178.510742,94.1367188 177.723633,93.1337891 177.723633,91.5532227 C177.723633,90.0043945 178.498047,89.0205078 179.729492,89.0205078 C180.713379,89.0205078 181.316406,89.5727539 181.494141,90.2519531 L182.598633,90.2519531 Z M186.318359,94.1621094 C187.441895,94.1621094 188.273438,93.4257812 188.273438,92.4482422 L188.273438,91.8198242 L186.432617,91.9404297 C185.391602,92.0102539 184.93457,92.3720703 184.93457,93.0576172 C184.93457,93.7558594 185.524902,94.1621094 186.318359,94.1621094 Z M186.115234,95.1206055 C184.788574,95.1206055 183.804688,94.3334961 183.804688,93.0830078 C183.804688,91.8579102 184.706055,91.1533203 186.299316,91.0581055 L188.273438,90.9375 L188.273438,90.3154297 C188.273438,89.4711914 187.746582,89.0078125 186.724609,89.0078125 C185.905762,89.0078125 185.334473,89.3188477 185.182129,89.8583984 L184.077637,89.8583984 C184.223633,88.7602539 185.302734,88.0366211 186.762695,88.0366211 C188.432129,88.0366211 189.365234,88.8935547 189.365234,90.3154297 L189.365234,95 L188.324219,95 L188.324219,93.9907227 L188.222656,93.9907227 C187.77832,94.7207031 187.029297,95.1206055 186.115234,95.1206055 Z M191.84082,86.3862305 L191.84082,88.1572266 L190.736328,88.1572266 L190.736328,89.0712891 L191.84082,89.0712891 L191.84082,93.2226562 C191.84082,94.5302734 192.405762,95.0507812 193.814941,95.0507812 C194.030762,95.0507812 194.240234,95.0253906 194.456055,94.9873047 L194.456055,94.0668945 C194.25293,94.0859375 194.14502,94.0922852 193.948242,94.0922852 C193.237305,94.0922852 192.932617,93.7495117 192.932617,92.9433594 L192.932617,89.0712891 L194.456055,89.0712891 L194.456055,88.1572266 L192.932617,88.1572266 L192.932617,86.3862305 L191.84082,86.3862305 Z M196.131836,95 L197.223633,95 L197.223633,88.1572266 L196.131836,88.1572266 L196.131836,95 Z M196.677734,86.7670898 C197.09668,86.7670898 197.439453,86.4243164 197.439453,86.0053711 C197.439453,85.5864258 197.09668,85.2436523 196.677734,85.2436523 C196.258789,85.2436523 195.916016,85.5864258 195.916016,86.0053711 C195.916016,86.4243164 196.258789,86.7670898 196.677734,86.7670898 Z M202.117676,95.1206055 C200.168945,95.1206055 198.962891,93.7749023 198.962891,91.5786133 C198.962891,89.3759766 200.168945,88.0366211 202.117676,88.0366211 C204.066406,88.0366211 205.272461,89.3759766 205.272461,91.5786133 C205.272461,93.7749023 204.066406,95.1206055 202.117676,95.1206055 Z M202.117676,94.1367188 C203.412598,94.1367188 204.142578,93.1972656 204.142578,91.5786133 C204.142578,89.9536133 203.412598,89.0205078 202.117676,89.0205078 C200.822754,89.0205078 200.092773,89.9536133 200.092773,91.5786133 C200.092773,93.1972656 200.822754,94.1367188 202.117676,94.1367188 Z M206.986328,95 L208.078125,95 L208.078125,90.9501953 C208.078125,89.7504883 208.782715,89.0205078 209.874512,89.0205078 C210.966309,89.0205078 211.486816,89.6044922 211.486816,90.8359375 L211.486816,95 L212.578613,95 L212.578613,90.5693359 C212.578613,88.9443359 211.72168,88.0366211 210.185547,88.0366211 C209.138184,88.0366211 208.47168,88.480957 208.128906,89.2363281 L208.027344,89.2363281 L208.027344,88.1572266 L206.986328,88.1572266 L206.986328,95 Z M220.970215,89.0014648 C219.878418,89.0014648 219.116699,89.8012695 219.03418,91.0136719 L222.804688,91.0136719 C222.779297,89.8012695 222.055664,89.0014648 220.970215,89.0014648 Z M222.772949,93.2290039 L223.864746,93.2290039 C223.534668,94.4033203 222.480957,95.1206055 220.98291,95.1206055 C219.084961,95.1206055 217.897949,93.7495117 217.897949,91.5849609 C217.897949,89.4331055 219.104004,88.0366211 220.98291,88.0366211 C222.830078,88.0366211 223.953613,89.3505859 223.953613,91.4770508 L223.953613,91.8959961 L219.03418,91.8959961 L219.03418,91.9467773 C219.091309,93.2988281 219.84668,94.1557617 221.008301,94.1557617 C221.890625,94.1557617 222.487305,93.8320312 222.772949,93.2290039 Z M225.66748,95 L226.759277,95 L226.759277,90.7597656 C226.759277,89.7949219 227.451172,89.0205078 228.346191,89.0205078 C229.209473,89.0205078 229.774414,89.5410156 229.774414,90.3535156 L229.774414,95 L230.866211,95 L230.866211,90.6010742 C230.866211,89.7314453 231.500977,89.0205078 232.453125,89.0205078 C233.417969,89.0205078 233.894043,89.515625 233.894043,90.5249023 L233.894043,95 L234.98584,95 L234.98584,90.2709961 C234.98584,88.8364258 234.205078,88.0366211 232.808594,88.0366211 C231.862793,88.0366211 231.082031,88.5126953 230.713867,89.2363281 L230.612305,89.2363281 C230.294922,88.5253906 229.647461,88.0366211 228.720703,88.0366211 C227.806641,88.0366211 227.121094,88.4746094 226.810059,89.2363281 L226.708496,89.2363281 L226.708496,88.1572266 L225.66748,88.1572266 L225.66748,95 Z M239.086426,94.1621094 C240.209961,94.1621094 241.041504,93.4257812 241.041504,92.4482422 L241.041504,91.8198242 L239.200684,91.9404297 C238.159668,92.0102539 237.702637,92.3720703 237.702637,93.0576172 C237.702637,93.7558594 238.292969,94.1621094 239.086426,94.1621094 Z M238.883301,95.1206055 C237.556641,95.1206055 236.572754,94.3334961 236.572754,93.0830078 C236.572754,91.8579102 237.474121,91.1533203 239.067383,91.0581055 L241.041504,90.9375 L241.041504,90.3154297 C241.041504,89.4711914 240.514648,89.0078125 239.492676,89.0078125 C238.673828,89.0078125 238.102539,89.3188477 237.950195,89.8583984 L236.845703,89.8583984 C236.991699,88.7602539 238.070801,88.0366211 239.530762,88.0366211 C241.200195,88.0366211 242.133301,88.8935547 242.133301,90.3154297 L242.133301,95 L241.092285,95 L241.092285,93.9907227 L240.990723,93.9907227 C240.546387,94.7207031 239.797363,95.1206055 238.883301,95.1206055 Z M244.177246,95 L245.269043,95 L245.269043,88.1572266 L244.177246,88.1572266 L244.177246,95 Z M244.723145,86.7670898 C245.14209,86.7670898 245.484863,86.4243164 245.484863,86.0053711 C245.484863,85.5864258 245.14209,85.2436523 244.723145,85.2436523 C244.304199,85.2436523 243.961426,85.5864258 243.961426,86.0053711 C243.961426,86.4243164 244.304199,86.7670898 244.723145,86.7670898 Z M247.414551,95 L248.506348,95 L248.506348,85.4404297 L247.414551,85.4404297 L247.414551,95 Z"/>
    <rect width="24" height="24" x="19" y="78"/>
    <path fill="#0C0C0D" fill-opacity=".8" fill-rule="nonzero" d="M31,83 C34.8659932,83 38,86.1340067 38,90 C38,93.8659932 34.8659932,97 31,97 C27.1340068,97 24,93.8659932 24,90 C24,86.1340067 27.1340068,83 31,83 Z M31,86 C30.4477153,86 30,86.4477153 30,87 C30,87.5522847 30.4477153,88 31,88 C31.5522847,88 32,87.5522847 32,87 C32,86.4477153 31.5522847,86 31,86 Z M31,89 C30.4477153,89 30,89.4477153 30,90 L30,93 C30,93.5522847 30.4477153,94 31,94 C31.5522847,94 32,93.5522847 32,93 L32,90 C32,89.4477153 31.5522847,89 31,89 Z" transform="matrix(1 0 0 -1 0 180)"/>
    <rect width="24" height="24" x="307" y="78"/>
    <path fill="#0C0C0D" fill-opacity=".8" fill-rule="nonzero" d="M7.22254109,5.98945674 L11.7593901,1.45260771 C12.0842229,1.11628355 12.0795773,0.581679455 11.7489489,0.251051076 C11.4183205,-0.0795773034 10.8837165,-0.0842228685 10.5473923,0.240609874 L6.01054326,4.77745891 L1.47369422,0.240609874 C1.13737006,-0.0842228685 0.602765966,-0.0795773034 0.272137586,0.251051076 C-0.0584907931,0.581679455 -0.0631363582,1.11628355 0.261696384,1.45260771 L4.79854542,5.98945674 L0.261696384,10.5263058 C0.0388768524,10.7415121 -0.0504852845,11.0602002 0.0279563816,11.359882 C0.106398048,11.6595638 0.340436167,11.893602 0.640118002,11.9720436 C0.939799836,12.0504853 1.25848791,11.9611231 1.47369422,11.7383036 L6.01054326,7.20145458 L10.5473923,11.7383036 C10.8837165,12.0631364 11.4183205,12.0584908 11.7489489,11.7278624 C12.0795773,11.397234 12.0842229,10.8626299 11.7593901,10.5263058 L7.22254109,5.98945674 Z" transform="translate(313 84)"/>
    <g transform="translate(313 84)">
      <mask id="attention-b" fill="#fff">
        <use xlink:href="#attention-a"/>
      </mask>
      <g fill="#002D3E" fill-rule="nonzero" mask="url(#attention-b)">
        <rect width="200" height="200" transform="translate(-89 -91)"/>
      </g>
    </g>
  </g>
</svg>
