<svg xmlns="http://www.w3.org/2000/svg" xmlns:xlink="http://www.w3.org/1999/xlink" width="350" height="180" viewBox="0 0 350 180">
  <defs>
    <path id="i-gen-a" d="M7,0 C3.13400675,-6.66133815e-16 4.4408921e-16,3.13400675 0,7 C-4.4408921e-16,10.8659932 3.13400675,14 7,14 C10.8659932,14 14,10.8659932 14,7 C13.9955914,3.13583434 10.8641657,0.00440863597 7,3.77475828e-15 L7,0 Z M7,13 C3.6862915,13 1,10.3137085 1,7 C1,3.6862915 3.6862915,1 7,1 C10.3137085,1 13,3.6862915 13,7 C12.9961426,10.3121094 10.3121094,12.9961426 7,13 Z M7,6 C6.44771525,6 6,6.44771525 6,7 L6,10 C6,10.5522847 6.44771525,11 7,11 C7.55228475,11 8,10.5522847 8,10 L8,7 C8,6.44771525 7.55228475,6 7,6 Z M7,2.812 C6.34388572,2.812 5.812,3.34388572 5.812,4 C5.812,4.65611428 6.34388572,5.188 7,5.188 C7.65611428,5.188 8.188,4.65611428 8.188,4 C8.188,3.68492281 8.06283607,3.38275036 7.84004286,3.15995714 C7.61724964,2.93716393 7.31507719,2.812 7,2.812 L7,2.812 Z"/>
  </defs>
  <g fill="none" fill-rule="evenodd" transform="translate(137.5 73)">
    <g transform="translate(5.672 1)">
      <rect width="32" height="32" x=".356" y=".045" fill="#EDEDF0" rx="3"/>
      <g transform="translate(4.356 4.045)">
        <rect width="20" height="20" x="2.002" y="2" stroke="#00FEFF" stroke-opacity=".4" stroke-width="4"/>
        <g transform="translate(5 5)">
          <mask id="i-gen-b" fill="#fff">
            <use xlink:href="#i-gen-a"/>
          </mask>
          <use fill="#0C0C0D" fill-opacity=".8" fill-rule="nonzero" xlink:href="#i-gen-a"/>
          <g fill="#0C0C0D" mask="url(#i-gen-b)">
            <rect width="200" height="200" transform="translate(-94.059 -95.048)"/>
          </g>
        </g>
      </g>
    </g>
    <g fill="#22E800" transform="translate(0 24)">
      <rect width="1" height="5" x="10"/>
      <rect width="1" height="5" x="13"/>
      <rect width="4" height="1" x="10" y="2"/>
      <polygon points="8 13 12 9 16 13 12 17"/>
      <rect width="24" height="23" y="13" rx="2"/>
    </g>
    <g fill="#FF1AD9" transform="translate(31 6)">
      <rect width="5" height="1" y="3"/>
      <rect width="5" height="1" y="18"/>
      <rect width="1" height="16" x="2" y="3"/>
      <polygon points="5 11 9 7 13 11 9 15"/>
      <rect width="35" height="22" x="9" rx="2"/>
    </g>
    <path fill="#FFF" d="M46.894,20.112 L44.866,20.112 L44.866,21 L49.69,21 L49.69,20.112 L47.998,20.112 L47.998,12.732 L47.026,12.732 L44.386,14.376 L44.914,15.144 L46.894,13.944 L46.894,20.112 Z M56.266,13.08 L55.786,13.824 C55.426,13.56 55.078,13.464 54.694,13.464 C53.554,13.464 52.57,14.58 52.51,16.668 C53.038,15.972 53.806,15.612 54.514,15.612 C55.702,15.612 56.842,16.464 56.842,18.3 C56.842,20.088 55.654,21.144 54.238,21.144 C52.222,21.144 51.406,19.368 51.406,17.292 C51.406,14.496 52.69,12.588 54.706,12.588 C55.282,12.588 55.774,12.732 56.266,13.08 Z M54.31,16.488 C53.638,16.488 52.942,16.956 52.522,17.604 C52.558,19.26 53.098,20.268 54.238,20.268 C55.222,20.268 55.714,19.524 55.714,18.336 C55.714,16.956 55.078,16.488 54.31,16.488 Z M59.998,23.424 L58.894,23.556 L58.894,14.676 L59.842,14.676 L59.926,15.54 C60.394,14.892 61.066,14.532 61.798,14.532 C63.478,14.532 64.09,15.84 64.09,17.832 C64.09,19.752 63.286,21.144 61.654,21.144 C60.97,21.144 60.406,20.916 59.998,20.424 L59.998,23.424 Z M61.39,20.244 C62.398,20.244 62.914,19.488 62.914,17.832 C62.914,16.188 62.47,15.408 61.522,15.408 C60.85,15.408 60.334,15.888 59.998,16.392 L59.998,19.476 C60.322,19.968 60.814,20.244 61.39,20.244 Z M68.518,18.36 L70.174,21 L71.506,21 L69.19,17.616 L71.218,14.676 L69.97,14.676 L68.566,16.956 L68.518,16.956 L67.126,14.676 L65.83,14.676 L67.87,17.664 L65.554,21 L66.802,21 L68.47,18.36 L68.518,18.36 Z"/>
    <path fill="#003706" d="M8.27000244,50.35 L8.27000244,49.62 L7.40000244,49.62 L7.40000244,47.82 L6.60000244,47.82 L6.51000244,49.62 L4.66000244,49.62 L6.48000244,45.31 L5.71000244,44.99 L3.69000244,49.7 L3.69000244,50.35 L6.51000244,50.35 L6.51000244,52 L7.40000244,52 L7.40000244,50.35 L8.27000244,50.35 Z M10.8900024,54.02 L9.97000244,54.13 L9.97000244,46.73 L10.7600024,46.73 L10.8300024,47.45 C11.2200024,46.91 11.7800024,46.61 12.3900024,46.61 C13.7900024,46.61 14.3000024,47.7 14.3000024,49.36 C14.3000024,50.96 13.6300024,52.12 12.2700024,52.12 C11.7000024,52.12 11.2300024,51.93 10.8900024,51.52 L10.8900024,54.02 Z M12.0500024,51.37 C12.8900024,51.37 13.3200024,50.74 13.3200024,49.36 C13.3200024,47.99 12.9500024,47.34 12.1600024,47.34 C11.6000024,47.34 11.1700024,47.74 10.8900024,48.16 L10.8900024,50.73 C11.1600024,51.14 11.5700024,51.37 12.0500024,51.37 Z M17.9900024,49.8 L19.3700024,52 L20.4800024,52 L18.5500024,49.18 L20.2400024,46.73 L19.2000024,46.73 L18.0300024,48.63 L17.9900024,48.63 L16.8300024,46.73 L15.7500024,46.73 L17.4500024,49.22 L15.5200024,52 L16.5600024,52 L17.9500024,49.8 L17.9900024,49.8 Z"/>
  </g>
</svg>
