<svg xmlns="http://www.w3.org/2000/svg" width="200" height="72" style="background:#f9f9fa" viewBox="0 0 200 72">
  <g fill="none" fill-rule="evenodd">
    <g transform="translate(99.228)">
      <rect width="100" height="72" x=".772" fill="#D70022"/>
      <g transform="translate(34.772 20)">
        <rect width="32" height="32"/>
        <path fill="#FFF" d="M10.5,1.3125 C15.5741161,1.3125 19.6875,5.42588386 19.6875,10.5 C19.6875,15.5741161 15.5741161,19.6875 10.5,19.6875 C5.42588386,19.6875 1.3125,15.5741161 1.3125,10.5 C1.3125,5.42588386 5.42588386,1.3125 10.5,1.3125 Z M10.5,5.25 C11.2248737,5.25 11.8125,5.83762627 11.8125,6.5625 C11.8125,7.28737373 11.2248737,7.875 10.5,7.875 C9.77512627,7.875 9.1875,7.28737373 9.1875,6.5625 C9.1875,5.83762627 9.77512627,5.25 10.5,5.25 Z M10.5,9.1875 C11.2248737,9.1875 11.8125,9.77512627 11.8125,10.5 L11.8125,14.4375 C11.8125,15.1623737 11.2248737,15.75 10.5,15.75 C9.77512627,15.75 9.1875,15.1623737 9.1875,14.4375 L9.1875,10.5 C9.1875,9.77512627 9.77512627,9.1875 10.5,9.1875 Z" transform="matrix(1 0 0 -1 5.333 26.333)"/>
      </g>
    </g>
    <g transform="translate(34 20)">
      <rect width="32" height="32"/>
      <path fill="#D70022" d="M9.66666667,0.333333333 C14.8213243,0.333333333 19,4.512009 19,9.66666667 C19,14.8213243 14.8213243,19 9.66666667,19 C4.512009,19 0.333333333,14.8213243 0.333333333,9.66666667 C0.333333333,4.512009 4.512009,0.333333333 9.66666667,0.333333333 Z M9.66666667,4.33333333 C10.4030463,4.33333333 11,4.930287 11,5.66666667 C11,6.40304633 10.4030463,7 9.66666667,7 C8.930287,7 8.33333333,6.40304633 8.33333333,5.66666667 C8.33333333,4.930287 8.930287,4.33333333 9.66666667,4.33333333 Z M9.66666667,8.33333333 C10.4030463,8.33333333 11,8.930287 11,9.66666667 L11,13.6666667 C11,14.4030463 10.4030463,15 9.66666667,15 C8.930287,15 8.33333333,14.4030463 8.33333333,13.6666667 L8.33333333,9.66666667 C8.33333333,8.930287 8.930287,8.33333333 9.66666667,8.33333333 Z" transform="matrix(1 0 0 -1 6.333 25.667)"/>
    </g>
  </g>
</svg>
