<svg xmlns="http://www.w3.org/2000/svg" xmlns:xlink="http://www.w3.org/1999/xlink" width="940" height="840" style="background:#f9f9fa" viewBox="0 0 940 840">
  <defs>
    <rect id="uncanny-valley-bk-a" width="212" height="116"/>
  </defs>
  <g fill="none" fill-rule="evenodd" transform="translate(16 32)">
    <rect width="400" height="237" x="63" y="285" fill="#FF0039" fill-opacity=".1"/>
    <rect width="210" height="116" x="461" y="169" fill="#FFF"/>
    <rect width="128" height="441" x="669" y="285" fill="#FF0039" fill-opacity=".1"/>
    <rect width="72" height="285" x="794" fill="#FF0039" fill-opacity=".1"/>
    <polygon fill="#000F40" fill-rule="nonzero" points="867 753 869 753 869 763 867 763"/>
    <polygon fill="#000F40" fill-rule="nonzero" points="63 753 65 753 65 763 63 763"/>
    <polygon fill="#000F40" fill-rule="nonzero" points="63 759 867 759 867 757 63 757"/>
    <rect width="90" height="32" x="420" y="742" fill="#000F40" rx="4"/>
    <path fill="#000F40" d="M44.922 775.287L38.7 775.287 38.7 787 40.315 787 40.315 781.849 44.14 781.849 44.14 780.574 40.315 780.574 40.315 776.579 44.735 776.579 44.922 775.287zM47.727 773.74C47.081 773.74 46.639 774.199 46.639 774.811 46.639 775.406 47.081 775.865 47.727 775.865 48.39 775.865 48.832 775.406 48.832 774.811 48.832 774.199 48.39 773.74 47.727 773.74zM48.526 778.041L46.962 778.041 46.962 787 48.526 787 48.526 778.041zM55.649 777.837C54.561 777.837 53.728 778.517 53.252 779.86L53.099 778.041 51.756 778.041 51.756 787 53.32 787 53.32 781.883C53.694 780.166 54.34 779.367 55.462 779.367 55.785 779.367 55.972 779.401 56.244 779.469L56.533 777.939C56.261 777.871 55.938 777.837 55.649 777.837zM65.084 782.257C65.084 782.563 65.067 782.852 65.05 783.056L59.338 783.056C59.491 785.13 60.46 785.929 61.752 785.929 62.636 785.929 63.299 785.691 64.081 785.147L64.761 786.082C63.877 786.779 62.874 787.204 61.633 787.204 59.134 787.204 57.672 785.453 57.672 782.614 57.672 779.826 59.083 777.837 61.395 777.837 63.809 777.837 65.084 779.52 65.084 782.257zM63.537 781.9L63.537 781.798C63.537 780.047 62.84 779.078 61.429 779.078 60.239 779.078 59.457 779.911 59.338 781.9L63.537 781.9zM70.711 775.508C69.725 775.508 69.385 775.933 69.385 776.8L69.385 778.041 71.561 778.041 71.391 779.248 69.385 779.248 69.385 787 67.821 787 67.821 779.248 66.223 779.248 66.223 778.041 67.821 778.041 67.821 776.817C67.821 775.321 68.807 774.25 70.626 774.25 71.476 774.25 72.054 774.403 72.768 774.709L72.275 775.848C71.697 775.593 71.17 775.508 70.711 775.508zM76.729 777.837C79.279 777.837 80.707 779.673 80.707 782.512 80.707 785.283 79.245 787.204 76.712 787.204 74.162 787.204 72.717 785.368 72.717 782.529 72.717 779.758 74.179 777.837 76.729 777.837zM76.729 779.095C75.233 779.095 74.4 780.183 74.4 782.529 74.4 784.858 75.216 785.946 76.712 785.946 78.208 785.946 79.024 784.858 79.024 782.512 79.024 780.183 78.208 779.095 76.729 779.095zM86.725 782.206L89.479 778.041 87.711 778.041 85.824 781.322 83.954 778.041 82.118 778.041 84.889 782.274 81.761 787 83.529 787 85.756 783.209 87.949 787 89.836 787 86.725 782.206zM41.743 517.457C44.293 517.457 45.551 519.565 45.551 523.322 45.551 527.096 44.293 529.204 41.743 529.204 39.193 529.204 37.935 527.096 37.935 523.322 37.935 519.548 39.193 517.457 41.743 517.457zM41.743 518.698C40.315 518.698 39.567 519.99 39.567 523.322 39.567 526.671 40.315 527.963 41.743 527.963 43.154 527.963 43.919 526.671 43.919 523.322 43.919 519.99 43.154 518.698 41.743 518.698zM838.777 775.287C841.599 775.287 843.333 776.443 843.333 778.908 843.333 781.594 841.378 782.699 838.794 782.699L837.315 782.699 837.315 787 835.7 787 835.7 775.287 838.777 775.287zM838.726 781.424C840.46 781.424 841.616 780.914 841.616 778.925 841.616 777.174 840.494 776.545 838.76 776.545L837.315 776.545 837.315 781.424 838.726 781.424zM847.277 787.204C847.736 787.204 848.178 787.085 848.518 786.898L848.11 785.81C847.94 785.878 847.753 785.912 847.532 785.912 847.124 785.912 846.971 785.674 846.971 785.198L846.971 774.25 845.407 774.437 845.407 785.232C845.407 786.507 846.138 787.204 847.277 787.204zM856.508 784.909C856.508 785.691 856.797 785.946 857.256 786.116L856.899 787.204C855.998 787.102 855.42 786.745 855.148 785.861 850.519 786.796 853.567 787.204 852.479 787.204 850.694 787.204 849.623 786.099 849.623 784.501 849.623 782.58 851.068 781.543 853.567 781.543L854.944 781.543 854.944 780.88C854.944 779.588 854.315 779.112 853.074 779.112 852.411 779.112 851.578 779.282 850.66 779.588L850.269 778.449C851.374 778.041 852.36 777.837 853.363 777.837 855.522 777.837 856.508 778.942 856.508 780.812L856.508 784.909zM852.836 786.031C853.754 786.031 854.434 785.572 854.944 784.637L854.944 782.58 853.771 782.58C852.122 782.58 851.289 783.192 851.289 784.416 851.289 785.47 851.816 786.031 852.836 786.031zM863.648 785.521C863.206 785.793 862.849 785.912 862.458 785.912 861.676 785.912 861.387 785.487 861.387 784.586L861.387 779.248 863.342 779.248 863.512 778.041 861.387 778.041 861.387 775.831 859.823 776.018 859.823 778.041 858.259 778.041 858.259 779.248 859.823 779.248 859.823 784.654C859.823 786.32 860.724 787.204 862.237 787.204 863.002 787.204 863.648 787 864.243 786.592L863.648 785.521zM868.901 775.508C867.915 775.508 867.575 775.933 867.575 776.8L867.575 778.041 869.751 778.041 869.581 779.248 867.575 779.248 867.575 787 866.011 787 866.011 779.248 864.413 779.248 864.413 778.041 866.011 778.041 866.011 776.817C866.011 775.321 866.997 774.25 868.816 774.25 869.666 774.25 870.244 774.403 870.958 774.709L870.465 775.848C869.887 775.593 869.36 775.508 868.901 775.508zM874.919 777.837C877.469 777.837 878.897 779.673 878.897 782.512 878.897 785.283 877.435 787.204 874.902 787.204 872.352 787.204 870.907 785.368 870.907 782.529 870.907 779.758 872.369 777.837 874.919 777.837zM874.919 779.095C873.423 779.095 872.59 780.183 872.59 782.529 872.59 784.858 873.406 785.946 874.902 785.946 876.398 785.946 877.214 784.858 877.214 782.512 877.214 780.183 876.398 779.095 874.919 779.095zM885.374 777.837C884.286 777.837 883.453 778.517 882.977 779.86L882.824 778.041 881.481 778.041 881.481 787 883.045 787 883.045 781.883C883.419 780.166 884.065 779.367 885.187 779.367 885.51 779.367 885.697 779.401 885.969 779.469L886.258 777.939C885.986 777.871 885.663 777.837 885.374 777.837zM897.036 777.837C895.829 777.837 895.013 778.483 894.367 779.452 894.027 778.432 893.211 777.837 892.106 777.837 890.933 777.837 890.117 778.449 889.522 779.35L889.386 778.041 888.043 778.041 888.043 787 889.607 787 889.607 780.642C890.202 779.69 890.746 779.061 891.715 779.061 892.395 779.061 892.973 779.452 892.973 780.795L892.973 787 894.537 787 894.537 780.642C895.149 779.69 895.676 779.061 896.645 779.061 897.325 779.061 897.903 779.452 897.903 780.795L897.903 787 899.467 787 899.467 780.574C899.467 778.891 898.498 777.837 897.036 777.837z"/>
    <path fill="#FF0039" fill-rule="nonzero" d="M730.804009,724.017061 L730.592001,724.000394 L730.698896,723.997392 L730.804009,724.017061 Z M745.239478,715.11979 L746.842216,712.309874 L748.714845,708.301434 L749.751674,705.605857 L750.899346,702.242162 L752.188151,697.899948 L753.648596,692.097515 L755.340847,683.933476 L757.384535,671.489109 L760.081035,648.966829 C776.932529,457.345202 786.831464,347.540711 789.779869,319.532091 C792.731438,291.493415 797.32734,263.624955 803.560513,235.960718 C808.676573,208.930223 814.00203,183.368945 819.536943,159.276792 C825.072096,135.183596 831.131701,111.188632 837.720635,87.2747908 C849.332718,47.880915 856.111849,25.1013375 858.064276,18.9155338 C860.025862,12.7007077 862.367545,6.59118023 865.089208,0.587133694 C864.222035,7.34431951 861.908985,13.3791434 859.971528,19.5175203 C858.024911,25.6849196 851.245328,48.466012 839.643908,87.8231555 C833.06747,111.692241 827.01489,135.659387 821.486165,159.724604 C815.9572,183.790863 810.637,209.326911 805.518617,236.36647 C799.295513,263.98873 794.712286,291.780333 791.768879,319.74147 C788.822309,347.732663 778.923122,457.539941 762.070102,649.173288 L759.364241,671.769945 L757.306848,684.298322 L755.597593,692.544319 L754.116661,698.42824 L752.804566,702.849215 L751.631604,706.287319 L750.554513,709.082962 L748.617587,713.227218 L746.93306,716.180303 L745.4632,718.321588 L743.419804,720.725955 L740.947251,722.901229 L738.594803,724.369948 L736.202627,725.347466 L733.677211,725.898208 L730.648158,725.999606 L727.976383,725.522663 L725.273088,724.410979 L722.940236,722.893058 L720.988806,721.137678 L718.784707,718.59985 L717.015472,716.064703 L715.06856,712.692583 L713.947657,710.466939 L712.733122,707.730584 L711.377543,704.336572 L709.865391,699.996339 L708.134379,694.313384 L706.144212,686.665028 L703.836873,675.819173 L701.030843,659.427223 L697.495312,631.720076 L683.397975,418.860003 L676.383181,335.372791 L671.070111,293.750692 L666.478093,267.053818 L662.488655,248.355606 L658.900158,234.556857 L655.683699,223.990857 L652.778234,215.72394 L650.135161,209.079355 L647.703307,203.653887 L645.45269,199.147625 L643.375091,195.38353 L641.427622,192.196497 L639.600432,189.46723 L637.875156,187.098093 L636.267805,185.066973 L633.225227,181.703041 L630.430276,179.077169 L627.80781,177.004566 L625.314397,175.349328 L622.903882,174.042582 L620.555861,172.994069 L618.209591,172.185683 L615.868366,171.574045 L613.464433,171.174154 L610.945095,170.976977 L608.275602,170.984945 L605.817414,171.141506 L603.025624,171.436927 L600.169255,171.849919 L597.212119,172.411201 L594.150864,173.131769 L590.956424,174.018569 L587.59273,175.126614 L584.029717,176.452941 L580.241581,178.035434 L576.146378,179.969533 L571.686497,182.289127 L566.782908,185.128999 L561.287296,188.628561 L555.022058,192.986334 L547.684545,198.564492 L538.758163,205.940637 L527.24637,216.321086 L409.670989,340.782786 L378.672856,371.200234 L353.273431,394.081432 L330.543113,412.888454 L309.44028,428.923364 L289.36844,442.85413 L270.033526,455.143754 L251.178707,466.020378 L232.64234,475.705076 L214.276083,484.327123 L195.999343,491.996933 L177.660592,498.81509 L159.203047,504.790506 L140.514225,510.004041 L121.5354,514.45131 C115.093708,515.817947 108.623784,517.047987 102.125638,518.141429 C97.9221416,518.84875 95.4656806,519.218664 92.3086485,519.641681 C87.0790176,520.339429 86.061223,520.480729 82.2325913,521.065578 C75.617873,522.076021 69.6031188,523.03304 64.1884605,523.936606 C69.2834609,521.058727 75.3071893,520.10028 81.9305813,519.088512 C85.7752833,518.501208 86.802624,518.358583 91.7139706,517.703387 C95.1782411,517.239305 97.6126282,516.872715 101.793764,516.169156 C108.264074,515.080398 114.706259,513.855632 121.099705,512.499459 L140.017317,508.067207 L158.626256,502.875923 L177.004023,496.926419 L195.263818,490.137554 L213.464094,482.499845 L231.754234,473.91358 L250.215876,464.267891 L268.997347,453.433641 L288.261776,441.188701 L308.265044,427.30566 L329.300576,411.321807 L351.966592,392.568024 L377.303116,369.743527 L408.243651,339.382332 L525.849612,214.891859 L537.451283,204.427299 L546.442221,196.997652 L553.845687,191.369433 L560.178953,186.964253 L565.744371,183.420294 L570.723595,180.536767 L575.257574,178.17829 L579.428683,176.208652 L583.294965,174.593213 L586.930607,173.239781 L590.375538,172.105369 L593.653682,171.194958 L596.795967,170.45546 L599.839039,169.877858 L602.776705,169.452846 L605.648012,169.149131 L608.208023,168.986997 L611.018179,168.979934 L613.703764,169.190409 L616.282072,169.619396 L618.785342,170.271886 L621.286861,171.13452 L623.785881,172.249227 L626.341989,173.635814 L628.979024,175.385504 L631.733547,177.562514 L634.650403,180.302244 L637.792602,183.774426 L639.467003,185.887979 L641.239472,188.32181 L643.111641,191.118367 L645.103656,194.378486 L647.222625,198.217231 L649.510323,202.797767 L651.976765,208.30047 L654.650771,215.022547 L657.583729,223.367894 L660.824584,234.013812 L664.434426,247.895148 L668.441592,266.67556 L673.047581,293.454502 L678.371617,335.162408 L685.392277,418.71018 L699.485074,631.527349 L703.008445,659.131797 L705.800622,675.442236 L708.090049,686.204927 L710.058686,693.769921 L711.766228,699.375655 L713.25038,703.636236 L714.575604,706.953513 L715.754483,709.610799 L716.827284,711.741981 L718.701676,714.992532 L720.331682,717.331154 L722.377812,719.697429 L724.105719,721.26591 L726.13358,722.603172 L728.44927,723.576437 L733.351101,723.922892 L737.616839,722.623258 L739.693354,721.340914 L741.945646,719.372354 L743.844385,717.146022 L745.239478,715.11979 Z"/>
    <g transform="translate(460 169)">
      <mask id="uncanny-valley-bk-b" fill="#fff">
        <use xlink:href="#uncanny-valley-bk-a"/>
      </mask>
      <use fill="#0A84FF" fill-opacity=".1" xlink:href="#uncanny-valley-bk-a"/>
      <path stroke="#0A84FF" stroke-linecap="round" stroke-width="2" d="M-397,352.666675 L-377.918414,351.077045 L-358.040299,348.155292 L-338.672136,344.473083 L-319.713934,340.030417 L-301.065702,334.827295 L-282.647449,328.863717 L-264.349185,322.059635 L-246.110914,314.405042 L-227.782653,305.799879 L-209.284407,296.134079 L-190.466192,285.277565 L-171.168022,273.010205 L-151.129922,259.10186 L-130.06192,243.092254 L-107.364073,224.310985 L-81.9964788,201.457273 L-51.0294157,171.06904 L66.519436,46.6343786 L78.0883388,36.1981168 L87.0474891,28.7936741 L94.4167902,23.190312 L100.716193,18.8076824 L106.245668,15.2855691 L111.1852,12.4238521 L115.684773,10.0824472 L119.814382,8.13127654 L123.644018,6.53031595 L127.243677,5.18951147 L130.643354,4.06883906 L133.883047,3.16829873 L136.982753,2.43786046 L139.982469,1.86751826 L142.882194,1.4472661 L145.711925,1.147086 L148.211688,0.986989937 L150.941429,0.976983933 L153.541183,1.17710401 L156.030947,1.58735016 L158.460716,2.21772838 L160.880487,3.04822669 L163.310256,4.12887508 L165.790021,5.46967957 L168.359777,7.17070019 L171.049522,9.29197296 L173.909251,11.9735819 L177.008957,15.3956352 L178.658801,17.4768839 L180.408635,19.8783248 L182.258459,22.6399818 L184.228273,25.861915 L186.328073,29.6641964 L188.597858,34.206922 L191.047626,39.6702 L193.707374,46.3542105 L196.627097,54.6591935 L199.85679,65.2655573 L203.456449,79.1038604 L207.45607,97.8451052 L212.055633,124.581147 L217.375129,166.246146 L224.394463,249.776265 L238.493126,462.653992 L242.022791,490.30058 L244.822526,506.65039 L247.122308,517.456874 L249.10212,525.061437 L250.821957,530.704823 L252.321815,535.007404 L253.661687,538.359416 L254.861574,541.061037 L255.961469,543.242345 L257.881287,546.564339 L259.54113,548.945767 L261.660929,551.397238 L263.490755,553.058235 L265.66055,554.489093 L268.160312,555.539724 L270.620079,556 L273.469809,555.919952 L275.829585,555.419652 L278.069373,554.519111 L280.289162,553.148289 L282.658937,551.077046 L284.63875,548.755653 L286.10861,546.614369 L287.748455,543.73264 L289.648275,539.660196 L290.698175,536.928557 L291.858065,533.526516 L293.157942,529.143886 L294.627802,523.30038 L296.327641,515.095457 L298.377447,502.607965 L301.077191,480.054432 C317.927825,288.442571 327.826886,178.636687 330.774374,150.63678 C333.721862,122.636874 338.311427,94.8068422 344.543068,67.146686 C349.656786,40.1285671 354.979615,14.5799044 360.511554,-9.49930188 C366.043493,-33.5785082 372.099585,-57.5595636 378.679831,-81.4424681 C390.289023,-120.826537 397.06838,-143.606871 399.017902,-149.783473 C400.967424,-155.960074 403.29479,-162.03225 406,-168" mask="url(#uncanny-valley-bk-b)"/>
    </g>
    <g transform="translate(244 301)">
      <rect width="36" height="36" fill="#FF0039" rx="18"/>
      <polygon fill="#FFF" points="19.849 21.725 19.849 13 18.305 13 15 14.884 15.748 16.014 18.118 14.667 18.118 21.725 15.499 21.725 15.499 23 22 23 22 21.725"/>
    </g>
    <g transform="translate(716 301)">
      <rect width="36" height="36" fill="#FF0039" rx="18"/>
      <path fill="#FFF" d="M18.4113924,12 C17.2299578,12 16.1814346,12.4142259 15.2953586,13.3040446 L16.1666667,14.2859135 C16.8016878,13.6569038 17.4219409,13.334728 18.278481,13.334728 C19.2827004,13.334728 20.035865,13.902371 20.035865,14.930265 C20.035865,16.0655509 19.2088608,16.6025105 18.2489451,16.6025105 L17.628692,16.6025105 L17.4367089,17.86053 L18.3080169,17.86053 C19.4746835,17.86053 20.2869198,18.3514644 20.2869198,19.7168759 C20.2869198,20.9135286 19.4894515,21.6499303 18.2194093,21.6499303 C17.407173,21.6499303 16.5949367,21.3124128 16.0189873,20.6066946 L15,21.5271967 C15.7974684,22.5244073 17.0232068,23 18.3080169,23 C20.5379747,23 22,21.5885635 22,19.7782427 C22,18.1059972 20.9219409,17.3082287 19.6518987,17.1701534 C20.7890295,16.8940028 21.6751055,15.9888424 21.6751055,14.6847978 C21.6751055,13.2273361 20.4345992,12 18.4113924,12 Z"/>
    </g>
    <g transform="translate(548 233)">
      <rect width="36" height="36" fill="#0A84FF" rx="18"/>
      <path fill="#FFF" d="M18.3846154,12 C16.8461538,12 15.8153846,12.59375 15,13.65625 L16.1076923,14.53125 C16.7384615,13.75 17.3076923,13.40625 18.2615385,13.40625 C19.3384615,13.40625 19.9846154,14.078125 19.9846154,15.15625 C19.9846154,16.734375 19.0153846,17.953125 15.2153846,21.671875 L15.2153846,23 L21.8153846,23 L22,21.59375 L17.1846154,21.59375 C20.5846154,18.46875 21.7538462,16.9375 21.7538462,15.046875 C21.7538462,13.359375 20.5384615,12 18.3846154,12 Z"/>
    </g>
    <g transform="translate(814 233)">
      <rect width="36" height="36" fill="#FF0039" rx="18"/>
      <polygon fill="#FFF" points="21 19.156 19.794 19.156 19.794 16.281 18.382 16.281 18.221 19.156 15.721 19.156 18.294 12.578 16.912 12 14 19.297 14 20.516 18.206 20.516 18.206 23 19.794 23 19.794 20.516 21 20.516"/>
    </g>
    <path fill="#FFF" d="M432.59,752.083 C430.431,752.083 428.901,753.341 428.901,755.143 C428.901,756.962 430.091,757.829 432.369,758.526 C434.358,759.138 434.902,759.648 434.902,760.787 C434.902,762.198 433.763,762.878 432.386,762.878 C431.111,762.878 430.193,762.419 429.326,761.688 L428.425,762.691 C429.394,763.643 430.72,764.204 432.403,764.204 C435.038,764.204 436.585,762.776 436.585,760.736 C436.585,758.492 434.987,757.761 433.117,757.183 C431.009,756.537 430.55,756.061 430.55,755.075 C430.55,753.953 431.485,753.409 432.658,753.409 C433.627,753.409 434.443,753.715 435.327,754.429 L436.211,753.443 C435.225,752.559 434.205,752.083 432.59,752.083 Z M439.645,750.74 C438.999,750.74 438.557,751.199 438.557,751.811 C438.557,752.406 438.999,752.865 439.645,752.865 C440.308,752.865 440.75,752.406 440.75,751.811 C440.75,751.199 440.308,750.74 439.645,750.74 Z M440.444,755.041 L438.88,755.041 L438.88,764 L440.444,764 L440.444,755.041 Z M452.667,754.837 C451.46,754.837 450.644,755.483 449.998,756.452 C449.658,755.432 448.842,754.837 447.737,754.837 C446.564,754.837 445.748,755.449 445.153,756.35 L445.017,755.041 L443.674,755.041 L443.674,764 L445.238,764 L445.238,757.642 C445.833,756.69 446.377,756.061 447.346,756.061 C448.026,756.061 448.604,756.452 448.604,757.795 L448.604,764 L450.168,764 L450.168,757.642 C450.78,756.69 451.307,756.061 452.276,756.061 C452.956,756.061 453.534,756.452 453.534,757.795 L453.534,764 L455.098,764 L455.098,757.574 C455.098,755.891 454.129,754.837 452.667,754.837 Z M459.008,750.74 C458.362,750.74 457.92,751.199 457.92,751.811 C457.92,752.406 458.362,752.865 459.008,752.865 C459.671,752.865 460.113,752.406 460.113,751.811 C460.113,751.199 459.671,750.74 459.008,750.74 Z M459.807,755.041 L458.243,755.041 L458.243,764 L459.807,764 L459.807,755.041 Z M464.822,764.204 C465.281,764.204 465.723,764.085 466.063,763.898 L465.655,762.81 C465.485,762.878 465.298,762.912 465.077,762.912 C464.669,762.912 464.516,762.674 464.516,762.198 L464.516,751.25 L462.952,751.437 L462.952,762.232 C462.952,763.507 463.683,764.204 464.822,764.204 Z M474.053,761.909 C474.053,762.691 474.342,762.946 474.801,763.116 L474.444,764.204 C473.543,764.102 472.965,763.745 472.693,762.861 C472.064,763.796 471.112,764.204 470.024,764.204 C468.239,764.204 467.168,763.099 467.168,761.501 C467.168,759.58 468.613,758.543 471.112,758.543 L472.489,758.543 L472.489,757.88 C472.489,756.588 471.86,756.112 470.619,756.112 C469.956,756.112 469.123,756.282 468.205,756.588 L467.814,755.449 C468.919,755.041 469.905,754.837 470.908,754.837 C473.067,754.837 474.053,755.942 474.053,757.812 L474.053,761.909 Z M470.381,763.031 C471.299,763.031 471.979,762.572 472.489,761.637 L472.489,759.58 L471.316,759.58 C469.667,759.58 468.834,760.192 468.834,761.416 C468.834,762.47 469.361,763.031 470.381,763.031 Z M481.159,754.837 C480.071,754.837 479.238,755.517 478.762,756.86 L478.609,755.041 L477.266,755.041 L477.266,764 L478.83,764 L478.83,758.883 C479.204,757.166 479.85,756.367 480.972,756.367 C481.295,756.367 481.482,756.401 481.754,756.469 L482.043,754.939 C481.771,754.871 481.448,754.837 481.159,754.837 Z M484.593,750.74 C483.947,750.74 483.505,751.199 483.505,751.811 C483.505,752.406 483.947,752.865 484.593,752.865 C485.256,752.865 485.698,752.406 485.698,751.811 C485.698,751.199 485.256,750.74 484.593,750.74 Z M485.392,755.041 L483.828,755.041 L483.828,764 L485.392,764 L485.392,755.041 Z M492.549,762.521 C492.107,762.793 491.75,762.912 491.359,762.912 C490.577,762.912 490.288,762.487 490.288,761.586 L490.288,756.248 L492.243,756.248 L492.413,755.041 L490.288,755.041 L490.288,752.831 L488.724,753.018 L488.724,755.041 L487.16,755.041 L487.16,756.248 L488.724,756.248 L488.724,761.654 C488.724,763.32 489.625,764.204 491.138,764.204 C491.903,764.204 492.549,764 493.144,763.592 L492.549,762.521 Z M501.338,755.041 L499.723,755.041 L497.377,762.861 L494.98,755.041 L493.314,755.041 L496.323,764 L496.85,764 C496.34,765.394 495.83,766.091 494.011,766.397 L494.181,767.621 C496.663,767.349 497.717,765.955 498.346,764.051 L501.338,755.041 Z"/>
    <polygon fill="#000F40" fill-rule="nonzero" points="15 -4 17 -4 17 6 15 6" transform="rotate(-90 16 1)"/>
    <polygon fill="#000F40" fill-rule="nonzero" points="15 720 17 720 17 730 15 730" transform="rotate(-90 16 725)"/>
    <polygon fill="#000F40" fill-rule="nonzero" points="15 518 17 518 17 528 15 528" transform="rotate(-90 16 523)"/>
    <polygon fill="#000F40" fill-rule="nonzero" points="-347 364 379 364 379 362 -347 362" transform="rotate(-90 16 363)"/>
    <rect width="100" height="32" x="-34" y="347" fill="#000F40" rx="4" transform="rotate(-90 16 363)"/>
    <path fill="#FFF" d="M-16.578,356.787 L-22.8,356.787 L-22.8,368.5 L-21.185,368.5 L-21.185,363.349 L-17.36,363.349 L-17.36,362.074 L-21.185,362.074 L-21.185,358.079 L-16.765,358.079 L-16.578,356.787 Z M-8.503,366.409 C-8.503,367.191 -8.214,367.446 -7.755,367.616 L-8.112,368.704 C-9.013,368.602 -9.591,368.245 -9.863,367.361 C-10.492,368.296 -11.444,368.704 -12.532,368.704 C-14.317,368.704 -15.388,367.599 -15.388,366.001 C-15.388,364.08 -13.943,363.043 -11.444,363.043 L-10.067,363.043 L-10.067,362.38 C-10.067,361.088 -10.696,360.612 -11.937,360.612 C-12.6,360.612 -13.433,360.782 -14.351,361.088 L-14.742,359.949 C-13.637,359.541 -12.651,359.337 -11.648,359.337 C-9.489,359.337 -8.503,360.442 -8.503,362.312 L-8.503,366.409 Z M-12.175,367.531 C-11.257,367.531 -10.577,367.072 -10.067,366.137 L-10.067,364.08 L-11.24,364.08 C-12.889,364.08 -13.722,364.692 -13.722,365.916 C-13.722,366.97 -13.195,367.531 -12.175,367.531 Z M3.703,359.337 C2.496,359.337 1.68,359.983 1.034,360.952 C0.694,359.932 -0.122,359.337 -1.227,359.337 C-2.4,359.337 -3.216,359.949 -3.811,360.85 L-3.947,359.541 L-5.29,359.541 L-5.29,368.5 L-3.726,368.5 L-3.726,362.142 C-3.131,361.19 -2.587,360.561 -1.618,360.561 C-0.938,360.561 -0.36,360.952 -0.36,362.295 L-0.36,368.5 L1.204,368.5 L1.204,362.142 C1.816,361.19 2.343,360.561 3.312,360.561 C3.992,360.561 4.57,360.952 4.57,362.295 L4.57,368.5 L6.134,368.5 L6.134,362.074 C6.134,360.391 5.165,359.337 3.703,359.337 Z M10.044,355.24 C9.398,355.24 8.956,355.699 8.956,356.311 C8.956,356.906 9.398,357.365 10.044,357.365 C10.707,357.365 11.149,356.906 11.149,356.311 C11.149,355.699 10.707,355.24 10.044,355.24 Z M10.843,359.541 L9.279,359.541 L9.279,368.5 L10.843,368.5 L10.843,359.541 Z M15.858,368.704 C16.317,368.704 16.759,368.585 17.099,368.398 L16.691,367.31 C16.521,367.378 16.334,367.412 16.113,367.412 C15.705,367.412 15.552,367.174 15.552,366.698 L15.552,355.75 L13.988,355.937 L13.988,366.732 C13.988,368.007 14.719,368.704 15.858,368.704 Z M19.819,355.24 C19.173,355.24 18.731,355.699 18.731,356.311 C18.731,356.906 19.173,357.365 19.819,357.365 C20.482,357.365 20.924,356.906 20.924,356.311 C20.924,355.699 20.482,355.24 19.819,355.24 Z M20.618,359.541 L19.054,359.541 L19.054,368.5 L20.618,368.5 L20.618,359.541 Z M29.883,366.409 C29.883,367.191 30.172,367.446 30.631,367.616 L30.274,368.704 C29.373,368.602 28.795,368.245 28.523,367.361 C27.894,368.296 26.942,368.704 25.854,368.704 C24.069,368.704 22.998,367.599 22.998,366.001 C22.998,364.08 24.443,363.043 26.942,363.043 L28.319,363.043 L28.319,362.38 C28.319,361.088 27.69,360.612 26.449,360.612 C25.786,360.612 24.953,360.782 24.035,361.088 L23.644,359.949 C24.749,359.541 25.735,359.337 26.738,359.337 C28.897,359.337 29.883,360.442 29.883,362.312 L29.883,366.409 Z M26.211,367.531 C27.129,367.531 27.809,367.072 28.319,366.137 L28.319,364.08 L27.146,364.08 C25.497,364.08 24.664,364.692 24.664,365.916 C24.664,366.97 25.191,367.531 26.211,367.531 Z M36.989,359.337 C35.901,359.337 35.068,360.017 34.592,361.36 L34.439,359.541 L33.096,359.541 L33.096,368.5 L34.66,368.5 L34.66,363.383 C35.034,361.666 35.68,360.867 36.802,360.867 C37.125,360.867 37.312,360.901 37.584,360.969 L37.873,359.439 C37.601,359.371 37.278,359.337 36.989,359.337 Z M40.423,355.24 C39.777,355.24 39.335,355.699 39.335,356.311 C39.335,356.906 39.777,357.365 40.423,357.365 C41.086,357.365 41.528,356.906 41.528,356.311 C41.528,355.699 41.086,355.24 40.423,355.24 Z M41.222,359.541 L39.658,359.541 L39.658,368.5 L41.222,368.5 L41.222,359.541 Z M48.379,367.021 C47.937,367.293 47.58,367.412 47.189,367.412 C46.407,367.412 46.118,366.987 46.118,366.086 L46.118,360.748 L48.073,360.748 L48.243,359.541 L46.118,359.541 L46.118,357.331 L44.554,357.518 L44.554,359.541 L42.99,359.541 L42.99,360.748 L44.554,360.748 L44.554,366.154 C44.554,367.82 45.455,368.704 46.968,368.704 C47.733,368.704 48.379,368.5 48.974,368.092 L48.379,367.021 Z M57.168,359.541 L55.553,359.541 L53.207,367.361 L50.81,359.541 L49.144,359.541 L52.153,368.5 L52.68,368.5 C52.17,369.894 51.66,370.591 49.841,370.897 L50.011,372.121 C52.493,371.849 53.547,370.455 54.176,368.551 L57.168,359.541 Z" transform="rotate(-90 17.184 363.68)"/>
    <path fill="#000F40" fill-rule="nonzero" d="M63,524 L69,524 L69,522 L63,522 L63,524 Z M75,524 L81,524 L81,522 L75,522 L75,524 Z M87,524 L93,524 L93,522 L87,522 L87,524 Z M99,524 L105,524 L105,522 L99,522 L99,524 Z M111,524 L117,524 L117,522 L111,522 L111,524 Z M123,524 L129,524 L129,522 L123,522 L123,524 Z M135,524 L141,524 L141,522 L135,522 L135,524 Z M147,524 L153,524 L153,522 L147,522 L147,524 Z M159,524 L165,524 L165,522 L159,522 L159,524 Z M171,524 L177,524 L177,522 L171,522 L171,524 Z M183,524 L189,524 L189,522 L183,522 L183,524 Z M195,524 L201,524 L201,522 L195,522 L195,524 Z M207,524 L213,524 L213,522 L207,522 L207,524 Z M219,524 L225,524 L225,522 L219,522 L219,524 Z M231,524 L237,524 L237,522 L231,522 L231,524 Z M243,524 L249,524 L249,522 L243,522 L243,524 Z M255,524 L261,524 L261,522 L255,522 L255,524 Z M267,524 L273,524 L273,522 L267,522 L267,524 Z M279,524 L285,524 L285,522 L279,522 L279,524 Z M291,524 L297,524 L297,522 L291,522 L291,524 Z M303,524 L309,524 L309,522 L303,522 L303,524 Z M315,524 L321,524 L321,522 L315,522 L315,524 Z M327,524 L333,524 L333,522 L327,522 L327,524 Z M339,524 L345,524 L345,522 L339,522 L339,524 Z M351,524 L357,524 L357,522 L351,522 L351,524 Z M363,524 L369,524 L369,522 L363,522 L363,524 Z M375,524 L381,524 L381,522 L375,522 L375,524 Z M387,524 L393,524 L393,522 L387,522 L387,524 Z M399,524 L405,524 L405,522 L399,522 L399,524 Z M411,524 L417,524 L417,522 L411,522 L411,524 Z M423,524 L429,524 L429,522 L423,522 L423,524 Z M435,524 L441,524 L441,522 L435,522 L435,524 Z M447,524 L453,524 L453,522 L447,522 L447,524 Z M459,524 L465,524 L465,522 L459,522 L459,524 Z M471,524 L477,524 L477,522 L471,522 L471,524 Z M483,524 L489,524 L489,522 L483,522 L483,524 Z M495,524 L501,524 L501,522 L495,522 L495,524 Z M507,524 L513,524 L513,522 L507,522 L507,524 Z M519,524 L525,524 L525,522 L519,522 L519,524 Z M531,524 L537,524 L537,522 L531,522 L531,524 Z M543,524 L549,524 L549,522 L543,522 L543,524 Z M555,524 L561,524 L561,522 L555,522 L555,524 Z M567,524 L573,524 L573,522 L567,522 L567,524 Z M579,524 L585,524 L585,522 L579,522 L579,524 Z M591,524 L597,524 L597,522 L591,522 L591,524 Z M603,524 L609,524 L609,522 L603,522 L603,524 Z M615,524 L621,524 L621,522 L615,522 L615,524 Z M627,524 L633,524 L633,522 L627,522 L627,524 Z M639,524 L645,524 L645,522 L639,522 L639,524 Z M651,524 L657,524 L657,522 L651,522 L651,524 Z M663,524 L669,524 L669,522 L663,522 L663,524 Z M675,524 L681,524 L681,522 L675,522 L675,524 Z M687,524 L693,524 L693,522 L687,522 L687,524 Z M699,524 L705,524 L705,522 L699,522 L699,524 Z M711,524 L717,524 L717,522 L711,522 L711,524 Z M723,524 L729,524 L729,522 L723,522 L723,524 Z M735,524 L741,524 L741,522 L735,522 L735,524 Z M747,524 L753,524 L753,522 L747,522 L747,524 Z M759,524 L765,524 L765,522 L759,522 L759,524 Z M771,524 L777,524 L777,522 L771,522 L771,524 Z M783,524 L789,524 L789,522 L783,522 L783,524 Z M795,524 L801,524 L801,522 L795,522 L795,524 Z M807,524 L813,524 L813,522 L807,522 L807,524 Z M819,524 L825,524 L825,522 L819,522 L819,524 Z M831,524 L837,524 L837,522 L831,522 L831,524 Z M843,524 L849,524 L849,522 L843,522 L843,524 Z M855,524 L861,524 L861,522 L855,522 L855,524 Z M867,524 L871.5,524 L871.5,522 L867,522 L867,524 Z"/>
  </g>
</svg>
