<svg xmlns="http://www.w3.org/2000/svg" width="1092" height="726" style="background:#000f40" viewBox="0 0 1092 726">
  <g fill="none" fill-rule="evenodd">
    <rect width="1116" height="726" x="-16" fill="#F2F3F5"/>
    <rect width="398" height="236" x="143" y="285" fill="#FFF" fill-opacity=".8"/>
    <rect width="210" height="116" x="541" y="169" fill="#FFF"/>
    <rect width="125" height="441" x="751" y="285" fill="#FFF" fill-opacity=".8"/>
    <rect width="71" height="285" x="876" fill="#FFF" fill-opacity=".8"/>
    <g transform="translate(324 301)">
      <rect width="36" height="36" fill="#FF0039" rx="18"/>
      <polygon fill="#FFF" points="19.88 21.68 19.88 12.65 18.395 12.65 15.215 14.6 15.935 15.77 18.215 14.375 18.215 21.68 15.695 21.68 15.695 23 21.95 23 21.95 21.68"/>
    </g>
    <g transform="translate(796 301)">
      <rect width="36" height="36" fill="#FF0039" rx="18"/>
      <path fill="#FFF" d="M18.05,12.44 C16.85,12.44 15.785,12.845 14.885,13.715 L15.77,14.675 C16.415,14.06 17.045,13.745 17.915,13.745 C18.935,13.745 19.7,14.3 19.7,15.305 C19.7,16.415 18.86,16.94 17.885,16.94 L17.255,16.94 L17.06,18.17 L17.945,18.17 C19.13,18.17 19.955,18.65 19.955,19.985 C19.955,21.155 19.145,21.875 17.855,21.875 C17.03,21.875 16.205,21.545 15.62,20.855 L14.585,21.755 C15.395,22.73 16.64,23.195 17.945,23.195 C20.21,23.195 21.695,21.815 21.695,20.045 C21.695,18.41 20.6,17.63 19.31,17.495 C20.465,17.225 21.365,16.34 21.365,15.065 C21.365,13.64 20.105,12.44 18.05,12.44 Z"/>
    </g>
    <g transform="translate(628 233)">
      <rect width="36" height="36" fill="#33F70C" rx="18"/>
      <path fill="#003F07" d="M18.08,12.44 C16.58,12.44 15.575,13.01 14.78,14.03 L15.86,14.87 C16.475,14.12 17.03,13.79 17.96,13.79 C19.01,13.79 19.64,14.435 19.64,15.47 C19.64,16.985 18.695,18.155 14.99,21.725 L14.99,23 L21.425,23 L21.605,21.65 L16.91,21.65 C20.225,18.65 21.365,17.18 21.365,15.365 C21.365,13.745 20.18,12.44 18.08,12.44 Z"/>
    </g>
    <g transform="translate(894 233)">
      <rect width="36" height="36" fill="#FF0039" rx="18"/>
      <polygon fill="#FFF" points="21.07 19.31 19.84 19.31 19.84 16.55 18.4 16.55 18.235 19.31 15.685 19.31 18.31 12.995 16.9 12.44 13.93 19.445 13.93 20.615 18.22 20.615 18.22 23 19.84 23 19.84 20.615 21.07 20.615"/>
    </g>
    <path fill="#0A84FF" fill-rule="nonzero" d="M823.9138,717.306451 L823.850221,717.389427 L823.880304,717.34573 L823.9138,717.306451 Z M817.7319,722.79186 L817.579506,722.868849 L817.652405,722.823826 L817.7319,722.79186 Z M810.839235,724.217841 L810.627207,724.201171 L810.734112,724.198168 L810.839235,724.217841 Z M806.246054,722.854842 L806.082991,722.767767 L806.168564,722.803736 L806.246054,722.854842 Z M804.197748,721.518156 L804.076146,721.423765 L804.14059,721.466266 L804.197748,721.518156 Z M825.275482,715.319169 L826.878312,712.508809 L828.751046,708.499744 L829.787931,705.803747 L830.935667,702.439529 L832.224543,698.096641 L833.685067,692.293311 L835.377409,684.128014 L837.421206,671.681734 L840.11785,649.156002 C856.970231,457.505077 866.869689,347.683797 869.818249,319.670896 C872.769973,291.627942 877.366116,263.75523 883.599617,236.086765 C888.715946,209.05214 894.041683,183.486957 899.576888,159.391122 C905.112332,135.294246 911.172255,111.295616 917.761535,87.3781258 C929.37423,47.9782287 936.153719,25.1951679 938.106247,19.0084205 C940.064011,12.8050848 943.151268,4.34874048 947.36938,-6.36630161 C945.027742,5.04201607 941.955003,13.458596 940.013517,19.6103521 C938.066797,25.7786965 931.286857,48.5632722 919.684822,87.9264397 C913.108036,111.799178 907.055137,135.769992 901.526119,159.838893 C895.996862,183.908834 890.676381,209.44879 885.557729,236.492478 C879.334295,264.11897 874.750824,291.914832 871.807261,319.880254 C868.860535,347.87573 858.960827,457.699797 842.106919,649.36244 L839.400916,671.962543 L837.343416,684.492825 L835.634074,692.740073 L834.153066,698.624884 L832.840905,703.046527 L831.667884,706.485148 L830.590742,709.281206 L828.653721,713.426082 L826.969113,716.379606 L825.499174,718.521218 L823.455679,720.925941 L820.983007,723.101538 L818.630443,724.570475 L816.238143,725.548142 L813.71259,726.098968 L810.683369,726.200382 L808.011444,725.723366 L805.308003,724.611511 L802.975031,723.093359 L801.023506,721.337718 L798.819299,718.799511 L797.049988,716.263999 L795.102978,712.891373 L793.98202,710.665398 L792.767424,707.928631 L791.411777,704.53411 L789.899547,700.193221 L788.168447,694.509406 L786.178177,686.859891 L783.870718,676.012388 L781.064542,659.617942 L777.528826,631.906573 L763.430746,419.013948 L756.41558,335.51396 L751.102228,293.885487 L746.509966,267.184521 L742.520316,248.483439 L738.931627,234.682571 L735.714995,224.114947 L732.809374,215.846758 L730.166158,209.201148 L727.734172,203.774843 L725.483433,199.267886 L723.405721,195.503208 L721.458145,192.315682 L719.630856,189.585992 L717.905485,187.216489 L716.298044,185.185052 L713.255299,181.8206 L710.460195,179.194322 L707.837587,177.121399 L705.34404,175.465906 L702.933398,174.15896 L700.585253,173.110287 L698.238861,172.301778 L695.897516,171.690047 L693.49346,171.290096 L690.973993,171.092888 L688.304362,171.100858 L685.846046,171.257443 L683.05411,171.552908 L680.197592,171.965963 L677.240301,172.52733 L674.178886,173.248008 L670.984279,174.134944 L667.620408,175.243158 L664.057208,176.569687 L660.268871,178.152423 L656.173453,180.086817 L651.713335,182.406767 L646.809487,185.247073 L641.313583,188.747172 L635.048013,193.105613 L627.71011,198.684625 L618.783255,206.0619 L607.270849,216.443942 L489.68927,340.92467 L458.689506,371.346766 L433.288744,394.231461 L410.557229,413.041357 L389.453285,429.078717 L369.380388,443.011612 L350.044455,455.303114 L331.188643,466.181401 L312.651299,475.86758 L294.284073,484.490945 L276.00637,492.161928 L257.666651,498.981128 L239.208131,504.957457 L220.518323,510.17179 L201.51773,514.623916 L182.107191,518.313657 L162.16562,521.243036 L143.083028,522.832908 C142.332741,521.856977 148.617451,520.665048 161.937157,519.257121 L181.774966,516.341889 L201.10276,512.667898 L220.021368,508.234968 L238.631288,503.04289 L257.010023,497.092477 L275.270781,490.302574 L293.472016,482.663697 L311.763122,474.076119 L330.225738,464.428955 L349.008201,453.593047 L368.273647,441.346234 L388.277972,427.461069 L409.314615,411.47477 L431.98183,392.718118 L457.319693,369.890128 L488.261862,339.524288 L605.87402,215.014785 L617.4763,204.548627 L626.467711,197.117846 L633.871565,191.488768 L640.205163,187.082915 L645.770874,183.538415 L650.750359,180.654447 L655.284577,178.29561 L659.455906,176.325671 L663.322392,174.709985 L666.958226,173.356346 L670.40334,172.22176 L673.681658,171.31121 L676.82411,170.571598 L679.867344,169.993907 L682.805167,169.56883 L685.676627,169.265068 L688.236776,169.102909 L691.047084,169.095845 L693.732814,169.306353 L696.311262,169.735406 L698.814665,170.387997 L701.316316,171.250763 L703.815467,172.36564 L706.371708,173.752438 L709.008878,175.502392 L711.763541,177.679731 L714.680545,180.419874 L717.822904,183.89258 L719.49739,186.006452 L721.269949,188.44065 L723.142213,191.237629 L725.13433,194.49824 L727.253406,198.337565 L729.541222,202.918793 L732.00779,208.42233 L734.681934,215.145426 L737.615043,223.49204 L740.856067,234.139577 L744.466097,248.023025 L748.473473,266.806299 L753.079703,293.589325 L758.404018,335.303598 L765.425049,418.864141 L779.518591,631.713865 L783.042148,659.322545 L785.834475,675.635488 L788.124025,686.399834 L790.092768,693.965994 L791.800403,699.572593 L793.284637,703.833835 L794.609933,707.151626 L795.788879,709.809328 L796.861742,711.940845 L798.73624,715.191905 L800.366336,717.530891 L802.412583,719.897538 L804.14059,721.466266 L806.168564,722.803736 L808.484375,723.777151 L813.386448,724.123657 L817.652405,722.823826 L819.729034,721.541283 L821.981455,719.572413 L823.880304,717.34573 L825.275482,715.319169 Z"/>
    <path fill="#000F40" fill-rule="nonzero" d="M947 518L949 518 948 517 948 527 949 526 947 526 948 527 948 517 947 518zM947 517L949 517 949 527 947 527 947 517zM142 518L144 518 143 517 143 527 144 526 142 526 143 527 143 517 142 518zM142 517L144 517 144 527 142 527 142 517z"/>
    <polygon fill="#000F40" fill-rule="nonzero" points="-4 523 1096 523 1096 521 -4 521"/>
    <path fill="#000F40" d="M443.129 547.753C443.129 545.526 441.531 544.761 439.695 544.234 437.468 543.588 436.754 543.078 436.754 542.075 436.754 540.902 437.808 540.341 439.1 540.341 440.086 540.341 441.072 540.664 441.905 541.395L442.789 540.443C441.803 539.593 440.647 539.1 439.049 539.1 436.805 539.1 435.258 540.358 435.258 542.126 435.258 543.979 436.703 544.829 439.032 545.509 441.038 546.087 441.582 546.648 441.582 547.787 441.582 549.266 440.29 549.963 438.862 549.963 437.434 549.963 436.431 549.47 435.615 548.705L434.731 549.708C435.717 550.66 437.128 551.187 438.845 551.187 441.565 551.187 443.129 549.776 443.129 547.753zM449.3 537.859C448.688 537.859 448.28 538.284 448.28 538.862 448.28 539.44 448.688 539.865 449.3 539.865 449.929 539.865 450.354 539.44 450.354 538.862 450.354 538.284 449.929 537.859 449.3 537.859zM450.439 542.041L446.342 542.041 446.342 543.18 449.011 543.18 449.011 549.861 446.257 549.861 446.257 551 452.955 551 452.955 549.861 450.439 549.861 450.439 542.041zM461.999 541.854C461.098 541.854 460.52 542.33 460.027 543.044 459.755 542.126 459.092 541.854 458.412 541.854 457.511 541.854 456.95 542.398 456.474 543.095L456.372 542.041 455.267 542.041 455.267 551 456.576 551 456.576 544.047C457.069 543.282 457.579 542.976 458.14 542.976 458.786 542.976 458.837 543.435 458.837 544.574L458.837 551 460.163 551 460.163 544.047C460.656 543.282 461.183 542.976 461.727 542.976 462.373 542.976 462.424 543.435 462.424 544.574L462.424 551 463.733 551 463.733 544.336C463.733 542.279 462.866 541.854 461.999 541.854zM469.7 537.859C469.088 537.859 468.68 538.284 468.68 538.862 468.68 539.44 469.088 539.865 469.7 539.865 470.329 539.865 470.754 539.44 470.754 538.862 470.754 538.284 470.329 537.859 469.7 537.859zM470.839 542.041L466.742 542.041 466.742 543.18 469.411 543.18 469.411 549.861 466.657 549.861 466.657 551 473.355 551 473.355 549.861 470.839 549.861 470.839 542.041zM480.002 538.437L475.82 538.437 475.82 539.576 478.574 539.576 478.574 548.722C478.574 550.269 479.645 551.187 481.226 551.187 482.144 551.187 482.875 550.983 483.351 550.728L482.977 549.691C482.484 549.878 482.008 549.997 481.481 549.997 480.614 549.997 480.002 549.674 480.002 548.79L480.002 538.437zM493.126 549.045C493.126 549.759 493.347 550.031 493.857 550.184L493.5 551.204C492.735 551.102 492.106 550.745 491.868 549.929 491.222 550.762 490.219 551.187 489.063 551.187 487.261 551.187 486.173 550.099 486.173 548.433 486.173 546.597 487.652 545.56 490.355 545.56L491.681 545.56 491.681 544.829C491.681 543.52 490.882 543.044 489.556 543.044 488.961 543.044 488.145 543.18 487.227 543.503L486.836 542.415C487.941 542.024 488.893 541.854 489.777 541.854 492.004 541.854 493.126 542.976 493.126 544.744L493.126 549.045zM489.42 550.116C490.304 550.116 491.154 549.64 491.681 548.841L491.681 546.546 490.389 546.546C488.417 546.546 487.703 547.26 487.703 548.416 487.703 549.538 488.247 550.116 489.42 550.116zM502.952 541.854C501.337 541.854 500.419 542.704 499.739 544.166L499.467 542.041 496.985 542.041 496.985 543.146 498.396 543.146 498.396 549.895 496.985 549.895 496.985 551 501.643 551 501.643 549.895 499.824 549.895 499.824 546.121C500.402 544.149 501.388 543.163 502.765 543.163L502.85 543.163 502.85 545.084 504.006 545.084 504.21 542.041C503.819 541.939 503.445 541.854 502.952 541.854zM510.5 537.859C509.888 537.859 509.48 538.284 509.48 538.862 509.48 539.44 509.888 539.865 510.5 539.865 511.129 539.865 511.554 539.44 511.554 538.862 511.554 538.284 511.129 537.859 510.5 537.859zM511.639 542.041L507.542 542.041 507.542 543.18 510.211 543.18 510.211 549.861 507.457 549.861 507.457 551 514.155 551 514.155 549.861 511.639 549.861 511.639 542.041zM524.423 550.541L523.862 549.572C523.386 549.827 522.808 549.997 522.145 549.997 520.921 549.997 520.428 549.47 520.428 548.484L520.428 543.163 523.352 543.163 523.539 542.041 520.428 542.041 520.428 539.848 519 540.018 519 542.041 516.943 542.041 516.943 543.163 519 543.163 519 548.501C519 550.065 520.088 551.187 522.009 551.187 522.859 551.187 523.794 550.949 524.423 550.541zM534.946 542.041L533.467 542.041 530.934 549.912 528.367 542.041 526.854 542.041 529.965 551 530.441 551C529.982 552.377 529.438 553.142 527.602 553.465L527.806 554.604C530.186 554.349 531.189 552.887 531.818 551.051L534.946 542.041zM555.023 550.541L554.462 549.572C553.986 549.827 553.408 549.997 552.745 549.997 551.521 549.997 551.028 549.47 551.028 548.484L551.028 543.163 553.952 543.163 554.139 542.041 551.028 542.041 551.028 539.848 549.6 540.018 549.6 542.041 547.543 542.041 547.543 543.163 549.6 543.163 549.6 548.501C549.6 550.065 550.688 551.187 552.609 551.187 553.459 551.187 554.394 550.949 555.023 550.541zM561.517 541.854C564.033 541.854 565.359 543.69 565.359 546.512 565.359 549.266 563.999 551.187 561.5 551.187 558.984 551.187 557.641 549.351 557.641 546.529 557.641 543.775 559.001 541.854 561.517 541.854zM561.517 543.027C559.97 543.027 559.188 544.149 559.188 546.529 559.188 548.909 559.953 550.014 561.5 550.014 563.047 550.014 563.812 548.909 563.812 546.512 563.812 544.149 563.047 543.027 561.517 543.027zM586.269 542.891C586.269 545.628 584.382 546.648 581.747 546.648L580.234 546.648 580.234 551 578.772 551 578.772 539.287 581.747 539.287C584.552 539.287 586.269 540.443 586.269 542.891zM584.688 542.908C584.688 541.106 583.515 540.46 581.934 540.46L580.234 540.46 580.234 545.475 581.883 545.475C583.498 545.475 584.688 544.914 584.688 542.908zM592.202 538.437L588.02 538.437 588.02 539.576 590.774 539.576 590.774 548.722C590.774 550.269 591.845 551.187 593.426 551.187 594.344 551.187 595.075 550.983 595.551 550.728L595.177 549.691C594.684 549.878 594.208 549.997 593.681 549.997 592.814 549.997 592.202 549.674 592.202 548.79L592.202 538.437zM605.326 549.045C605.326 549.759 605.547 550.031 606.057 550.184L605.7 551.204C604.935 551.102 604.306 550.745 604.068 549.929 603.422 550.762 602.419 551.187 601.263 551.187 599.461 551.187 598.373 550.099 598.373 548.433 598.373 546.597 599.852 545.56 602.555 545.56L603.881 545.56 603.881 544.829C603.881 543.52 603.082 543.044 601.756 543.044 601.161 543.044 600.345 543.18 599.427 543.503L599.036 542.415C600.141 542.024 601.093 541.854 601.977 541.854 604.204 541.854 605.326 542.976 605.326 544.744L605.326 549.045zM601.62 550.116C602.504 550.116 603.354 549.64 603.881 548.841L603.881 546.546 602.589 546.546C600.617 546.546 599.903 547.26 599.903 548.416 599.903 549.538 600.447 550.116 601.62 550.116zM616.223 550.541L615.662 549.572C615.186 549.827 614.608 549.997 613.945 549.997 612.721 549.997 612.228 549.47 612.228 548.484L612.228 543.163 615.152 543.163 615.339 542.041 612.228 542.041 612.228 539.848 610.8 540.018 610.8 542.041 608.743 542.041 608.743 543.163 610.8 543.163 610.8 548.501C610.8 550.065 611.888 551.187 613.809 551.187 614.659 551.187 615.594 550.949 616.223 550.541zM624.587 538.267C622.734 538.267 621.323 539.304 621.323 540.953L621.323 542.738 619.198 542.738 619.198 543.877 621.323 543.877 621.323 551 622.768 551 622.768 543.877 625.641 543.877 625.794 542.738 622.768 542.738 622.768 540.919C622.768 539.933 623.397 539.44 624.638 539.44 625.318 539.44 625.981 539.559 626.559 539.814L627.018 538.743C626.321 538.454 625.556 538.267 624.587 538.267zM632.917 541.854C635.433 541.854 636.759 543.69 636.759 546.512 636.759 549.266 635.399 551.187 632.9 551.187 630.384 551.187 629.041 549.351 629.041 546.529 629.041 543.775 630.401 541.854 632.917 541.854zM632.917 543.027C631.37 543.027 630.588 544.149 630.588 546.529 630.588 548.909 631.353 550.014 632.9 550.014 634.447 550.014 635.212 548.909 635.212 546.512 635.212 544.149 634.447 543.027 632.917 543.027zM645.752 541.854C644.137 541.854 643.219 542.704 642.539 544.166L642.267 542.041 639.785 542.041 639.785 543.146 641.196 543.146 641.196 549.895 639.785 549.895 639.785 551 644.443 551 644.443 549.895 642.624 549.895 642.624 546.121C643.202 544.149 644.188 543.163 645.565 543.163L645.65 543.163 645.65 545.084 646.806 545.084 647.01 542.041C646.619 541.939 646.245 541.854 645.752 541.854zM655.799 541.854C654.898 541.854 654.32 542.33 653.827 543.044 653.555 542.126 652.892 541.854 652.212 541.854 651.311 541.854 650.75 542.398 650.274 543.095L650.172 542.041 649.067 542.041 649.067 551 650.376 551 650.376 544.047C650.869 543.282 651.379 542.976 651.94 542.976 652.586 542.976 652.637 543.435 652.637 544.574L652.637 551 653.963 551 653.963 544.047C654.456 543.282 654.983 542.976 655.527 542.976 656.173 542.976 656.224 543.435 656.224 544.574L656.224 551 657.533 551 657.533 544.336C657.533 542.279 656.666 541.854 655.799 541.854zM137.1 539.1C139.616 539.1 140.925 541.259 140.925 545.135 140.925 549.028 139.616 551.187 137.1 551.187 134.584 551.187 133.275 549.028 133.275 545.135 133.275 541.259 134.584 539.1 137.1 539.1zM137.1 540.256C135.655 540.256 134.771 541.684 134.771 545.135 134.771 548.603 135.655 550.031 137.1 550.031 138.562 550.031 139.429 548.603 139.429 545.135 139.429 541.684 138.562 540.256 137.1 540.256zM137.1 544.03C137.746 544.03 138.222 544.523 138.222 545.135 138.222 545.764 137.746 546.257 137.1 546.257 136.471 546.257 135.995 545.764 135.995 545.135 135.995 544.523 136.471 544.03 137.1 544.03zM150.785 538.981L151.686 539.576 143.645 551.34 142.744 550.745 150.785 538.981zM145.022 539.1C146.62 539.1 147.521 540.358 147.521 541.837 147.521 543.265 146.62 544.574 145.022 544.574 143.441 544.574 142.523 543.265 142.523 541.837 142.523 540.358 143.441 539.1 145.022 539.1zM145.022 540.12C144.342 540.12 143.832 540.681 143.832 541.837 143.832 542.925 144.325 543.571 145.022 543.571 145.702 543.571 146.195 543.044 146.195 541.837 146.195 540.613 145.702 540.12 145.022 540.12zM149.612 545.628C151.21 545.628 152.111 546.886 152.111 548.348 152.111 549.793 151.21 551.102 149.612 551.102 148.031 551.102 147.113 549.793 147.113 548.348 147.113 546.886 148.031 545.628 149.612 545.628zM149.612 546.648C148.932 546.648 148.422 547.158 148.422 548.348 148.422 549.453 148.915 550.099 149.612 550.099 150.292 550.099 150.785 549.572 150.785 548.348 150.785 547.124 150.292 546.648 149.612 546.648zM935.358 549.844L935.358 539.287 934.1 539.287 930.615 541.463 931.244 542.466 933.913 540.851 933.913 549.844 931.04 549.844 931.04 551 937.789 551 937.789 549.844 935.358 549.844zM944.3 539.1C946.816 539.1 948.125 541.259 948.125 545.135 948.125 549.028 946.816 551.187 944.3 551.187 941.784 551.187 940.475 549.028 940.475 545.135 940.475 541.259 941.784 539.1 944.3 539.1zM944.3 540.256C942.855 540.256 941.971 541.684 941.971 545.135 941.971 548.603 942.855 550.031 944.3 550.031 945.762 550.031 946.629 548.603 946.629 545.135 946.629 541.684 945.762 540.256 944.3 540.256zM944.3 544.03C944.946 544.03 945.422 544.523 945.422 545.135 945.422 545.764 944.946 546.257 944.3 546.257 943.671 546.257 943.195 545.764 943.195 545.135 943.195 544.523 943.671 544.03 944.3 544.03zM954.5 539.1C957.016 539.1 958.325 541.259 958.325 545.135 958.325 549.028 957.016 551.187 954.5 551.187 951.984 551.187 950.675 549.028 950.675 545.135 950.675 541.259 951.984 539.1 954.5 539.1zM954.5 540.256C953.055 540.256 952.171 541.684 952.171 545.135 952.171 548.603 953.055 550.031 954.5 550.031 955.962 550.031 956.829 548.603 956.829 545.135 956.829 541.684 955.962 540.256 954.5 540.256zM954.5 544.03C955.146 544.03 955.622 544.523 955.622 545.135 955.622 545.764 955.146 546.257 954.5 546.257 953.871 546.257 953.395 545.764 953.395 545.135 953.395 544.523 953.871 544.03 954.5 544.03zM968.185 538.981L969.086 539.576 961.045 551.34 960.144 550.745 968.185 538.981zM962.422 539.1C964.02 539.1 964.921 540.358 964.921 541.837 964.921 543.265 964.02 544.574 962.422 544.574 960.841 544.574 959.923 543.265 959.923 541.837 959.923 540.358 960.841 539.1 962.422 539.1zM962.422 540.12C961.742 540.12 961.232 540.681 961.232 541.837 961.232 542.925 961.725 543.571 962.422 543.571 963.102 543.571 963.595 543.044 963.595 541.837 963.595 540.613 963.102 540.12 962.422 540.12zM967.012 545.628C968.61 545.628 969.511 546.886 969.511 548.348 969.511 549.793 968.61 551.102 967.012 551.102 965.431 551.102 964.513 549.793 964.513 548.348 964.513 546.886 965.431 545.628 967.012 545.628zM967.012 546.648C966.332 546.648 965.822 547.158 965.822 548.348 965.822 549.453 966.315 550.099 967.012 550.099 967.692 550.099 968.185 549.572 968.185 548.348 968.185 547.124 967.692 546.648 967.012 546.648z"/>
  </g>
</svg>
