<?xml version="1.0" encoding="UTF-8"?>
<svg width="360px" height="240px" viewBox="0 0 360 240" version="1.1" xmlns="http://www.w3.org/2000/svg" xmlns:xlink="http://www.w3.org/1999/xlink">
    <!-- Generator: Sketch 48.2 (47327) - http://www.bohemiancoding.com/sketch -->
    <title>capitalization-title-case-desktop-3</title>
    <desc>Created with Sketch.</desc>
    <defs>
        <path d="M9,15 C5.691,15 3,12.309 3,9 C3,5.691 5.691,3 9,3 C12.309,3 15,5.691 15,9 C15,12.309 12.309,15 9,15 M16.328,14.207 C17.376,12.735 18,10.94 18,9 C18,4.038 13.963,0 9,0 C4.037,0 0,4.038 0,9 C0,13.962 4.037,18 9,18 C10.94,18 12.735,17.376 14.207,16.328 L20.439,22.561 C20.732,22.854 21.116,23 21.5,23 C21.884,23 22.268,22.854 22.561,22.561 C23.146,21.975 23.146,21.025 22.561,20.439 L16.328,14.207 Z" id="path-1"></path>
        <path d="M16,11 L16.625,11 C17.9375833,11 19,12.0898204 19,13.4326347 L19,21.5673653 C19,22.9101796 17.9375833,24 16.625,24 L2.375,24 C1.06241667,24 0,22.9101796 0,21.5673653 L0,13.4326347 C0,12.0898204 1.06241667,11 2.375,11 L3,11 L3,7.4375 C3,3.847875 5.910375,0.9375 9.5,0.9375 C13.089625,0.9375 16,3.847875 16,7.4375 L16,11 Z M6,11 L13,11 L13,7.359375 C13,5.505 11.432,4 9.5,4 C7.568,4 6,5.505 6,7.359375 L6,11 Z" id="path-3"></path>
        <path d="M20,0 C20.829,0 21.5,0.671 21.5,1.5 L21.5,7.5 C21.5,8.329 20.829,9 20,9 L14,9 C13.171,9 12.5,8.329 12.5,7.5 C12.5,6.671 13.171,6 14,6 L16.949,6 C15.535,4.109 13.372,3 11,3 C7.568,3 4.587,5.338 3.75,8.687 C3.581,9.369 2.969,9.824 2.296,9.824 C2.176,9.824 2.054,9.81 1.932,9.779 C1.128,9.578 0.639,8.764 0.84,7.96 C2.01,3.273 6.188,0 11,0 C13.845,0 16.544,1.198 18.5,3.22 L18.5,1.5 C18.5,0.671 19.171,0 20,0 Z M20.0679,11.2212 C20.8719,11.4222 21.3609,12.2362 21.1599,13.0392 C19.9899,17.7262 15.8119,21.0002 10.9999,21.0002 C8.1549,21.0002 5.4559,19.8022 3.4999,17.7802 L3.4999,19.5002 C3.4999,20.3282 2.8289,21.0002 1.9999,21.0002 C1.1719,21.0002 0.4999,20.3282 0.4999,19.5002 L0.4999,13.5002 C0.4999,12.6712 1.1719,12.0002 1.9999,12.0002 L7.9999,12.0002 C8.8289,12.0002 9.4999,12.6712 9.4999,13.5002 C9.4999,14.3282 8.8289,15.0002 7.9999,15.0002 L5.0509,15.0002 C6.4649,16.8902 8.6279,18.0002 10.9999,18.0002 C14.4319,18.0002 17.4129,15.6612 18.2499,12.3132 C18.4489,11.5092 19.2619,11.0182 20.0679,11.2212 Z" id="path-5"></path>
    </defs>
    <g id="Copy" stroke="none" stroke-width="1" fill="none" fill-rule="evenodd">
        <g id="capitalization-title-case-desktop-3">
            <g id="Pref-/-Nev-/-Items" transform="translate(86.000000, 36.000000)" fill="#0A84FF">
                <path d="M43.84375,16.234375 C42.7187444,16.8697948 41.4687569,17.1875 40.09375,17.1875 C38.4947837,17.1875 37.2018279,16.6718802 36.2148438,15.640625 C35.2278596,14.6093698 34.734375,13.2448002 34.734375,11.546875 C34.734375,9.81249133 35.2825466,8.38932848 36.3789062,7.27734375 C37.4752659,6.16535902 38.8645749,5.609375 40.546875,5.609375 C41.7656311,5.609375 42.7890584,5.80728969 43.6171875,6.203125 L43.6171875,7.65625 C42.710933,7.08333047 41.638027,6.796875 40.3984375,6.796875 C39.1432229,6.796875 38.1145873,7.22916234 37.3125,8.09375 C36.5104127,8.95833766 36.109375,10.0781181 36.109375,11.453125 C36.109375,12.8697988 36.4817671,13.9830689 37.2265625,14.7929688 C37.9713579,15.6028686 38.9817645,16.0078125 40.2578125,16.0078125 C41.1328169,16.0078125 41.8906218,15.8333351 42.53125,15.484375 L42.53125,12.34375 L40.078125,12.34375 L40.078125,11.15625 L43.84375,11.15625 L43.84375,16.234375 Z M52.703125,13.3203125 L47.0546875,13.3203125 C47.0755209,14.210942 47.3151019,14.8984351 47.7734375,15.3828125 C48.2317731,15.8671899 48.8619752,16.109375 49.6640625,16.109375 C50.5651087,16.109375 51.3932254,15.812503 52.1484375,15.21875 L52.1484375,16.421875 C51.445309,16.9322942 50.5156308,17.1875 49.359375,17.1875 C48.229161,17.1875 47.3411491,16.8242224 46.6953125,16.0976562 C46.0494759,15.3710901 45.7265625,14.3489649 45.7265625,13.03125 C45.7265625,11.7864521 46.0794236,10.7721393 46.7851562,9.98828125 C47.4908889,9.20442316 48.3671823,8.8125 49.4140625,8.8125 C50.4609427,8.8125 51.2708305,9.15103828 51.84375,9.828125 C52.4166695,10.5052117 52.703125,11.4453065 52.703125,12.6484375 L52.703125,13.3203125 Z M51.390625,12.234375 C51.3854166,11.494788 51.207033,10.9192729 50.8554688,10.5078125 C50.5039045,10.0963521 50.0156281,9.890625 49.390625,9.890625 C48.7864553,9.890625 48.2734396,10.1067687 47.8515625,10.5390625 C47.4296854,10.9713563 47.1692713,11.5364548 47.0703125,12.234375 L51.390625,12.234375 Z M61.28125,17 L60,17 L60,12.4375 C60,10.7395748 59.3802145,9.890625 58.140625,9.890625 C57.4999968,9.890625 56.9700542,10.131508 56.5507812,10.6132812 C56.1315083,11.0950545 55.921875,11.7031213 55.921875,12.4375 L55.921875,17 L54.640625,17 L54.640625,9 L55.921875,9 L55.921875,10.328125 L55.953125,10.328125 C56.5572947,9.31770328 57.4322859,8.8125 58.578125,8.8125 C59.4531294,8.8125 60.1223935,9.09504926 60.5859375,9.66015625 C61.0494815,10.2252632 61.28125,11.0416613 61.28125,12.109375 L61.28125,17 Z M70.125,13.3203125 L64.4765625,13.3203125 C64.4973959,14.210942 64.7369769,14.8984351 65.1953125,15.3828125 C65.6536481,15.8671899 66.2838502,16.109375 67.0859375,16.109375 C67.9869837,16.109375 68.8151004,15.812503 69.5703125,15.21875 L69.5703125,16.421875 C68.867184,16.9322942 67.9375058,17.1875 66.78125,17.1875 C65.651036,17.1875 64.7630241,16.8242224 64.1171875,16.0976562 C63.4713509,15.3710901 63.1484375,14.3489649 63.1484375,13.03125 C63.1484375,11.7864521 63.5012986,10.7721393 64.2070312,9.98828125 C64.9127639,9.20442316 65.7890573,8.8125 66.8359375,8.8125 C67.8828177,8.8125 68.6927055,9.15103828 69.265625,9.828125 C69.8385445,10.5052117 70.125,11.4453065 70.125,12.6484375 L70.125,13.3203125 Z M68.8125,12.234375 C68.8072916,11.494788 68.628908,10.9192729 68.2773438,10.5078125 C67.9257795,10.0963521 67.4375031,9.890625 66.8125,9.890625 C66.2083303,9.890625 65.6953146,10.1067687 65.2734375,10.5390625 C64.8515604,10.9713563 64.5911463,11.5364548 64.4921875,12.234375 L68.8125,12.234375 Z M76.234375,10.296875 C76.0104155,10.1249991 75.6875021,10.0390625 75.265625,10.0390625 C74.7187473,10.0390625 74.2617206,10.2968724 73.8945312,10.8125 C73.5273419,11.3281276 73.34375,12.0312455 73.34375,12.921875 L73.34375,17 L72.0625,17 L72.0625,9 L73.34375,9 L73.34375,10.6484375 L73.375,10.6484375 C73.5572926,10.0859347 73.8359356,9.64713699 74.2109375,9.33203125 C74.5859394,9.01692551 75.005206,8.859375 75.46875,8.859375 C75.802085,8.859375 76.0572908,8.89583297 76.234375,8.96875 L76.234375,10.296875 Z M83.3515625,17 L82.0703125,17 L82.0703125,15.75 L82.0390625,15.75 C81.481768,16.7083381 80.6614637,17.1875 79.578125,17.1875 C78.781246,17.1875 78.1575543,16.9765646 77.7070312,16.5546875 C77.2565082,16.1328104 77.03125,15.5729202 77.03125,14.875 C77.03125,13.3802009 77.9114495,12.5104179 79.671875,12.265625 L82.0703125,11.9296875 C82.0703125,10.5703057 81.5208388,9.890625 80.421875,9.890625 C79.4583285,9.890625 78.5885455,10.2187467 77.8125,10.875 L77.8125,9.5625 C78.5989623,9.0624975 79.5052032,8.8125 80.53125,8.8125 C82.4114677,8.8125 83.3515625,9.80728172 83.3515625,11.796875 L83.3515625,17 Z M82.0703125,12.953125 L80.140625,13.21875 C79.546872,13.3020837 79.0989598,13.4492177 78.796875,13.6601562 C78.4947902,13.8710948 78.34375,14.244789 78.34375,14.78125 C78.34375,15.171877 78.4830715,15.4908842 78.7617188,15.7382812 C79.040366,15.9856783 79.411456,16.109375 79.875,16.109375 C80.5104198,16.109375 81.0351542,15.886721 81.4492188,15.4414062 C81.8632833,14.9960915 82.0703125,14.4322951 82.0703125,13.75 L82.0703125,12.953125 Z M87.046875,17 L85.765625,17 L85.765625,5.15625 L87.046875,5.15625 L87.046875,17 Z" id="Item-Name---focus"></path>
                <path d="M6.9937,11.4936 C6.9937,9.0126 9.0127,6.9936 11.4937,6.9936 C13.9747,6.9936 15.9937,9.0126 15.9937,11.4936 C15.9937,13.9746 13.9747,15.9936 11.4937,15.9936 C9.0127,15.9936 6.9937,13.9746 6.9937,11.4936 M21.4877,9.9936 L18.8427,9.9936 C18.6477,9.0376 18.2687,8.1486 17.7467,7.3616 L19.6207,5.4876 C20.2067,4.9026 20.2067,3.9516 19.6207,3.3666 C19.0347,2.7806 18.0857,2.7806 17.4997,3.3666 L15.6257,5.2406 C14.8347,4.7166 13.9407,4.3366 12.9787,4.1426 C12.9837,4.0926 12.9937,4.0446 12.9937,3.9936 L12.9937,1.4996 C12.9937,0.6716 12.3227,-0.0004 11.4937,-0.0004 C10.6647,-0.0004 9.9937,0.6716 9.9937,1.4996 L9.9937,3.9936 C9.9937,4.0446 10.0037,4.0926 10.0087,4.1426 C9.0467,4.3366 8.1527,4.7166 7.3617,5.2406 L5.4877,3.3666 C4.9017,2.7806 3.9527,2.7806 3.3667,3.3666 C2.7807,3.9516 2.7807,4.9026 3.3667,5.4876 L5.2407,7.3616 C4.7187,8.1486 4.3397,9.0376 4.1447,9.9936 L1.4997,9.9936 C0.6717,9.9936 -0.0003,10.6646 -0.0003,11.4936 C-0.0003,12.3226 0.6717,12.9936 1.4997,12.9936 L4.1447,12.9936 C4.3397,13.9496 4.7187,14.8386 5.2407,15.6256 L3.3667,17.4996 C2.7807,18.0846 2.7807,19.0356 3.3667,19.6206 C3.6597,19.9136 4.0437,20.0596 4.4277,20.0596 C4.8107,20.0596 5.1947,19.9136 5.4877,19.6206 L7.3617,17.7466 C8.1487,18.2686 9.0377,18.6476 9.9937,18.8426 L9.9937,21.4876 C9.9937,22.3156 10.6647,22.9876 11.4937,22.9876 C12.3227,22.9876 12.9937,22.3156 12.9937,21.4876 L12.9937,18.8426 C13.9497,18.6476 14.8387,18.2686 15.6257,17.7466 L17.4997,19.6206 C17.7927,19.9136 18.1767,20.0596 18.5597,20.0596 C18.9437,20.0596 19.3277,19.9136 19.6207,19.6206 C20.2067,19.0356 20.2067,18.0846 19.6207,17.4996 L17.7467,15.6256 C18.2687,14.8386 18.6477,13.9496 18.8427,12.9936 L21.4877,12.9936 C22.3157,12.9936 22.9877,12.3226 22.9877,11.4936 C22.9877,10.6646 22.3157,9.9936 21.4877,9.9936" id="Fill-1"></path>
            </g>
            <g id="Pref-/-Nev-/-Items" transform="translate(87.000000, 84.000000)">
                <path d="M33.9453125,16.546875 L33.9453125,15 C34.1223967,15.1562508 34.3346342,15.2968744 34.5820312,15.421875 C34.8294283,15.5468756 35.0898424,15.6523433 35.3632812,15.7382812 C35.6367201,15.8242192 35.911457,15.8906248 36.1875,15.9375 C36.463543,15.9843752 36.7187488,16.0078125 36.953125,16.0078125 C37.7604207,16.0078125 38.3632793,15.8580744 38.7617188,15.5585938 C39.1601582,15.2591131 39.359375,14.8281278 39.359375,14.265625 C39.359375,13.9635402 39.2929694,13.700522 39.1601562,13.4765625 C39.0273431,13.252603 38.8437512,13.048178 38.609375,12.8632812 C38.3749988,12.6783845 38.0976579,12.5013029 37.7773438,12.3320312 C37.4570296,12.1627596 37.111981,11.9843759 36.7421875,11.796875 C36.3515605,11.5989573 35.9869809,11.3984385 35.6484375,11.1953125 C35.3098941,10.9921865 35.0156262,10.7682304 34.765625,10.5234375 C34.5156238,10.2786446 34.3190111,10.0013036 34.1757812,9.69140625 C34.0325514,9.38150887 33.9609375,9.01823125 33.9609375,8.6015625 C33.9609375,8.09114328 34.0729155,7.6471373 34.296875,7.26953125 C34.5208345,6.8919252 34.8151023,6.58073039 35.1796875,6.3359375 C35.5442727,6.09114461 35.9596331,5.90885477 36.4257812,5.7890625 C36.8919294,5.66927023 37.3671851,5.609375 37.8515625,5.609375 C38.9557347,5.609375 39.7604141,5.74218617 40.265625,6.0078125 L40.265625,7.484375 C39.6041634,7.02603937 38.7552135,6.796875 37.71875,6.796875 C37.4322902,6.796875 37.1458348,6.82682262 36.859375,6.88671875 C36.5729152,6.94661488 36.3177095,7.04427016 36.09375,7.1796875 C35.8697905,7.31510484 35.6875007,7.48958227 35.546875,7.703125 C35.4062493,7.91666773 35.3359375,8.1770818 35.3359375,8.484375 C35.3359375,8.77083477 35.3893224,9.01822813 35.4960938,9.2265625 C35.6028651,9.43489687 35.7604156,9.62499914 35.96875,9.796875 C36.1770844,9.96875086 36.4309881,10.1354159 36.7304688,10.296875 C37.0299494,10.4583341 37.374998,10.6354157 37.765625,10.828125 C38.1666687,11.0260427 38.5468732,11.2343739 38.90625,11.453125 C39.2656268,11.6718761 39.5807278,11.9140612 39.8515625,12.1796875 C40.1223972,12.4453138 40.3372388,12.7395817 40.4960938,13.0625 C40.6549487,13.3854183 40.734375,13.7552063 40.734375,14.171875 C40.734375,14.7239611 40.6263032,15.1914043 40.4101562,15.5742188 C40.1940093,15.9570332 39.9023456,16.268228 39.5351562,16.5078125 C39.1679669,16.747397 38.7447941,16.9205724 38.265625,17.0273438 C37.7864559,17.1341151 37.2812527,17.1875 36.75,17.1875 C36.5729158,17.1875 36.354168,17.1731772 36.09375,17.1445312 C35.833332,17.1158853 35.5677097,17.074219 35.296875,17.0195312 C35.0260403,16.9648435 34.7695325,16.8971358 34.5273438,16.8164062 C34.285155,16.7356767 34.0911466,16.6458338 33.9453125,16.546875 Z M49.2265625,13.3203125 L43.578125,13.3203125 C43.5989584,14.210942 43.8385394,14.8984351 44.296875,15.3828125 C44.7552106,15.8671899 45.3854127,16.109375 46.1875,16.109375 C47.0885462,16.109375 47.9166629,15.812503 48.671875,15.21875 L48.671875,16.421875 C47.9687465,16.9322942 47.0390683,17.1875 45.8828125,17.1875 C44.7525985,17.1875 43.8645866,16.8242224 43.21875,16.0976562 C42.5729134,15.3710901 42.25,14.3489649 42.25,13.03125 C42.25,11.7864521 42.6028611,10.7721393 43.3085938,9.98828125 C44.0143264,9.20442316 44.8906198,8.8125 45.9375,8.8125 C46.9843802,8.8125 47.794268,9.15103828 48.3671875,9.828125 C48.940107,10.5052117 49.2265625,11.4453065 49.2265625,12.6484375 L49.2265625,13.3203125 Z M47.9140625,12.234375 C47.9088541,11.494788 47.7304705,10.9192729 47.3789062,10.5078125 C47.027342,10.0963521 46.5390656,9.890625 45.9140625,9.890625 C45.3098928,9.890625 44.7968771,10.1067687 44.375,10.5390625 C43.9531229,10.9713563 43.6927088,11.5364548 43.59375,12.234375 L47.9140625,12.234375 Z M56.890625,17 L55.609375,17 L55.609375,15.75 L55.578125,15.75 C55.0208305,16.7083381 54.2005262,17.1875 53.1171875,17.1875 C52.3203085,17.1875 51.6966168,16.9765646 51.2460938,16.5546875 C50.7955707,16.1328104 50.5703125,15.5729202 50.5703125,14.875 C50.5703125,13.3802009 51.450512,12.5104179 53.2109375,12.265625 L55.609375,11.9296875 C55.609375,10.5703057 55.0599013,9.890625 53.9609375,9.890625 C52.997391,9.890625 52.127608,10.2187467 51.3515625,10.875 L51.3515625,9.5625 C52.1380248,9.0624975 53.0442657,8.8125 54.0703125,8.8125 C55.9505302,8.8125 56.890625,9.80728172 56.890625,11.796875 L56.890625,17 Z M55.609375,12.953125 L53.6796875,13.21875 C53.0859345,13.3020837 52.6380223,13.4492177 52.3359375,13.6601562 C52.0338527,13.8710948 51.8828125,14.244789 51.8828125,14.78125 C51.8828125,15.171877 52.022134,15.4908842 52.3007812,15.7382812 C52.5794285,15.9856783 52.9505185,16.109375 53.4140625,16.109375 C54.0494823,16.109375 54.5742167,15.886721 54.9882812,15.4414062 C55.4023458,14.9960915 55.609375,14.4322951 55.609375,13.75 L55.609375,12.953125 Z M63.4765625,10.296875 C63.252603,10.1249991 62.9296896,10.0390625 62.5078125,10.0390625 C61.9609348,10.0390625 61.5039081,10.2968724 61.1367188,10.8125 C60.7695294,11.3281276 60.5859375,12.0312455 60.5859375,12.921875 L60.5859375,17 L59.3046875,17 L59.3046875,9 L60.5859375,9 L60.5859375,10.6484375 L60.6171875,10.6484375 C60.7994801,10.0859347 61.0781231,9.64713699 61.453125,9.33203125 C61.8281269,9.01692551 62.2473935,8.859375 62.7109375,8.859375 C63.0442725,8.859375 63.2994783,8.89583297 63.4765625,8.96875 L63.4765625,10.296875 Z M70.109375,16.6328125 C69.4947886,17.002606 68.7656292,17.1875 67.921875,17.1875 C66.7812443,17.1875 65.8606806,16.81641 65.1601562,16.0742188 C64.4596319,15.3320275 64.109375,14.3697976 64.109375,13.1875 C64.109375,11.8697851 64.4869754,10.8112019 65.2421875,10.0117188 C65.9973996,9.21223559 67.005202,8.8125 68.265625,8.8125 C68.9687535,8.8125 69.588539,8.94270703 70.125,9.203125 L70.125,10.515625 C69.531247,10.0989563 68.8958367,9.890625 68.21875,9.890625 C67.4010376,9.890625 66.7304714,10.1835908 66.2070312,10.7695312 C65.6835911,11.3554717 65.421875,12.1249952 65.421875,13.078125 C65.421875,14.0156297 65.6679663,14.7552056 66.1601562,15.296875 C66.6523462,15.8385444 67.3124959,16.109375 68.140625,16.109375 C68.8385452,16.109375 69.4947886,15.8776065 70.109375,15.4140625 L70.109375,16.6328125 Z M78.6875,17 L77.40625,17 L77.40625,12.390625 C77.40625,10.72395 76.7864645,9.890625 75.546875,9.890625 C74.9218719,9.890625 74.3958355,10.131508 73.96875,10.6132812 C73.5416645,11.0950545 73.328125,11.7135379 73.328125,12.46875 L73.328125,17 L72.046875,17 L72.046875,5.15625 L73.328125,5.15625 L73.328125,10.328125 L73.359375,10.328125 C73.9739614,9.31770328 74.8489527,8.8125 75.984375,8.8125 C77.7864673,8.8125 78.6875,9.89842664 78.6875,12.0703125 L78.6875,17 Z" id="Item-Name" fill="#0C0C0D"></path>
                <g id="icon-/-Pref-/-Account">
                    <mask id="mask-2" fill="white">
                        <use xlink:href="#path-1"></use>
                    </mask>
                    <use id="iOS" fill="#0C0C0D" xlink:href="#path-1"></use>
                </g>
            </g>
            <g id="Pref-/-Nev-/-Items" transform="translate(88.000000, 131.000000)">
                <path d="M34.78125,13.765625 L34.78125,18 L33.46875,18 L33.46875,6.796875 L36.546875,6.796875 C37.7447977,6.796875 38.6731738,7.08853875 39.3320312,7.671875 C39.9908887,8.25521125 40.3203125,9.07811969 40.3203125,10.140625 C40.3203125,11.2031303 39.9544307,12.0729133 39.2226562,12.75 C38.4908818,13.4270867 37.5026104,13.765625 36.2578125,13.765625 L34.78125,13.765625 Z M34.78125,7.984375 L34.78125,12.578125 L36.15625,12.578125 C37.0625045,12.578125 37.7539039,12.3710958 38.2304688,11.9570312 C38.7070336,11.5429667 38.9453125,10.9583371 38.9453125,10.203125 C38.9453125,8.72395094 38.0703212,7.984375 36.3203125,7.984375 L34.78125,7.984375 Z M46.4296875,11.296875 C46.205728,11.1249991 45.8828146,11.0390625 45.4609375,11.0390625 C44.9140598,11.0390625 44.4570331,11.2968724 44.0898438,11.8125 C43.7226544,12.3281276 43.5390625,13.0312455 43.5390625,13.921875 L43.5390625,18 L42.2578125,18 L42.2578125,10 L43.5390625,10 L43.5390625,11.6484375 L43.5703125,11.6484375 C43.7526051,11.0859347 44.0312481,10.647137 44.40625,10.3320312 C44.7812519,10.0169255 45.2005185,9.859375 45.6640625,9.859375 C45.9973975,9.859375 46.2526033,9.89583297 46.4296875,9.96875 L46.4296875,11.296875 Z M48.4765625,7.96875 C48.2473947,7.96875 48.0520841,7.89062578 47.890625,7.734375 C47.7291659,7.57812422 47.6484375,7.38020953 47.6484375,7.140625 C47.6484375,6.90104047 47.7291659,6.70182371 47.890625,6.54296875 C48.0520841,6.38411379 48.2473947,6.3046875 48.4765625,6.3046875 C48.7109387,6.3046875 48.9101554,6.38411379 49.0742188,6.54296875 C49.2382821,6.70182371 49.3203125,6.90104047 49.3203125,7.140625 C49.3203125,7.36979281 49.2382821,7.56510336 49.0742188,7.7265625 C48.9101554,7.88802164 48.7109387,7.96875 48.4765625,7.96875 Z M49.1015625,18 L47.8203125,18 L47.8203125,10 L49.1015625,10 L49.1015625,18 Z M57.984375,10 L54.796875,18 L53.5390625,18 L50.5078125,10 L51.9140625,10 L53.9453125,15.8125 C54.0963549,16.2395855 54.190104,16.6119776 54.2265625,16.9296875 L54.2578125,16.9296875 C54.3098961,16.5286438 54.3932286,16.1666683 54.5078125,15.84375 L56.6328125,10 L57.984375,10 Z M64.796875,18 L63.515625,18 L63.515625,16.75 L63.484375,16.75 C62.9270805,17.7083381 62.1067763,18.1875 61.0234375,18.1875 C60.2265585,18.1875 59.6028668,17.9765646 59.1523438,17.5546875 C58.7018207,17.1328104 58.4765625,16.5729202 58.4765625,15.875 C58.4765625,14.3802009 59.356762,13.5104179 61.1171875,13.265625 L63.515625,12.9296875 C63.515625,11.5703057 62.9661513,10.890625 61.8671875,10.890625 C60.903641,10.890625 60.033858,11.2187467 59.2578125,11.875 L59.2578125,10.5625 C60.0442748,10.0624975 60.9505157,9.8125 61.9765625,9.8125 C63.8567802,9.8125 64.796875,10.8072817 64.796875,12.796875 L64.796875,18 Z M63.515625,13.953125 L61.5859375,14.21875 C60.9921845,14.3020838 60.5442723,14.4492177 60.2421875,14.6601563 C59.9401027,14.8710948 59.7890625,15.244789 59.7890625,15.78125 C59.7890625,16.171877 59.928384,16.4908842 60.2070312,16.7382812 C60.4856785,16.9856783 60.8567685,17.109375 61.3203125,17.109375 C61.9557323,17.109375 62.4804667,16.886721 62.8945312,16.4414062 C63.3085958,15.9960915 63.515625,15.4322951 63.515625,14.75 L63.515625,13.953125 Z M72.6640625,17.6328125 C72.0494761,18.002606 71.3203167,18.1875 70.4765625,18.1875 C69.3359318,18.1875 68.4153681,17.81641 67.7148438,17.0742188 C67.0143194,16.3320275 66.6640625,15.3697976 66.6640625,14.1875 C66.6640625,12.8697851 67.0416629,11.8112019 67.796875,11.0117188 C68.5520871,10.2122356 69.5598895,9.8125 70.8203125,9.8125 C71.523441,9.8125 72.1432265,9.94270703 72.6796875,10.203125 L72.6796875,11.515625 C72.0859345,11.0989563 71.4505242,10.890625 70.7734375,10.890625 C69.9557251,10.890625 69.2851589,11.1835908 68.7617188,11.7695313 C68.2382786,12.3554717 67.9765625,13.1249952 67.9765625,14.078125 C67.9765625,15.0156297 68.2226538,15.7552056 68.7148438,16.296875 C69.2070337,16.8385444 69.8671834,17.109375 70.6953125,17.109375 C71.3932327,17.109375 72.0494761,16.8776065 72.6640625,16.4140625 L72.6640625,17.6328125 Z M80.96875,10 L77.2890625,19.28125 C76.6328092,20.9375083 75.7109434,21.765625 74.5234375,21.765625 C74.1901025,21.765625 73.9114595,21.7317712 73.6875,21.6640625 L73.6875,20.515625 C73.963543,20.6093755 74.2161447,20.65625 74.4453125,20.65625 C75.0911491,20.65625 75.5755192,20.2708372 75.8984375,19.5 L76.5390625,17.984375 L73.4140625,10 L74.8359375,10 L77,16.15625 C77.0260418,16.2343754 77.0807287,16.4374984 77.1640625,16.765625 L77.2109375,16.765625 C77.2369793,16.6406244 77.2890621,16.4427097 77.3671875,16.171875 L79.640625,10 L80.96875,10 Z M96.71875,18.1796875 C96.4218735,18.1796875 96.1601574,18.1393233 95.9335938,18.0585938 C95.7070301,17.9778642 95.4973968,17.863282 95.3046875,17.7148438 C95.1119782,17.5664055 94.9257821,17.3854177 94.7460938,17.171875 C94.5664054,16.9583323 94.3776052,16.7161472 94.1796875,16.4453125 C93.9713531,16.669272 93.7304701,16.8854156 93.4570312,17.09375 C93.1835924,17.3020844 92.88021,17.4869784 92.546875,17.6484375 C92.21354,17.8098966 91.8489603,17.9388016 91.453125,18.0351562 C91.0572897,18.1315109 90.6276065,18.1796875 90.1640625,18.1796875 C89.6015597,18.1796875 89.0859398,18.1093757 88.6171875,17.96875 C88.1484352,17.8281243 87.7473975,17.6210951 87.4140625,17.3476562 C87.0807275,17.0742174 86.8216155,16.7369812 86.6367188,16.3359375 C86.451822,15.9348938 86.359375,15.4739609 86.359375,14.953125 C86.359375,14.156246 86.5859352,13.4752632 87.0390625,12.9101563 C87.4921898,12.3450493 88.1328084,11.8828143 88.9609375,11.5234375 C88.8046867,11.4088536 88.6484383,11.2747404 88.4921875,11.1210938 C88.3359367,10.9674471 88.1966152,10.7929697 88.0742188,10.5976562 C87.9518223,10.4023428 87.852865,10.1861991 87.7773438,9.94921875 C87.7018225,9.7122384 87.6640625,9.45312641 87.6640625,9.171875 C87.6640625,8.76041461 87.7382805,8.39583492 87.8867188,8.078125 C88.035157,7.76041508 88.239582,7.49218859 88.5,7.2734375 C88.760418,7.05468641 89.0677066,6.88932348 89.421875,6.77734375 C89.7760434,6.66536402 90.1588521,6.609375 90.5703125,6.609375 C90.9765645,6.609375 91.3476546,6.66536402 91.6835938,6.77734375 C92.0195329,6.88932348 92.3085925,7.04947813 92.5507812,7.2578125 C92.79297,7.46614687 92.9817702,7.71614437 93.1171875,8.0078125 C93.2526048,8.29948063 93.3203125,8.6249982 93.3203125,8.984375 C93.3203125,9.60937812 93.1419289,10.1289042 92.7851562,10.5429688 C92.4283836,10.9570333 91.8932327,11.3098944 91.1796875,11.6015625 C91.5390643,11.7421882 91.8645819,11.9140615 92.15625,12.1171875 C92.4479181,12.3203135 92.7174467,12.5468737 92.9648438,12.796875 C93.2122408,13.0468763 93.4427073,13.3151027 93.65625,13.6015625 C93.8697927,13.8880223 94.0807281,14.1848943 94.2890625,14.4921875 C94.7109396,13.9036429 95.0286448,13.2552119 95.2421875,12.546875 C95.4557302,11.8385381 95.5625,11.096358 95.5625,10.3203125 C95.5625,10.1223948 95.5507814,9.93619879 95.5273438,9.76171875 C95.5039061,9.58723871 95.4713544,9.41406336 95.4296875,9.2421875 L96.671875,9.2421875 C96.7135419,9.41406336 96.7382812,9.57682215 96.7460938,9.73046875 C96.7539063,9.88411535 96.7630208,10.0677073 96.7734375,10.28125 C96.7734375,10.7552107 96.7239588,11.2317684 96.625,11.7109375 C96.5260412,12.1901066 96.39323,12.6549457 96.2265625,13.1054688 C96.059895,13.5559918 95.8658865,13.984373 95.6445312,14.390625 C95.423176,14.796877 95.1901054,15.1692691 94.9453125,15.5078125 C95.1276051,15.7578138 95.2942701,15.9752595 95.4453125,16.1601562 C95.5963549,16.345053 95.7486971,16.4999994 95.9023438,16.625 C96.0559904,16.7500006 96.2148429,16.8424476 96.3789062,16.9023438 C96.5429696,16.9622399 96.7291656,16.9921875 96.9375,16.9921875 C97.0937508,16.9921875 97.2526034,16.9713544 97.4140625,16.9296875 C97.5755216,16.8880206 97.7421866,16.8359378 97.9140625,16.7734375 L97.9140625,17.9609375 C97.7265616,18.0338545 97.5299489,18.0885415 97.3242188,18.125 C97.1184886,18.1614585 96.9166677,18.1796875 96.71875,18.1796875 Z M90.1640625,17.0703125 C90.5598978,17.0703125 90.9244775,17.0273442 91.2578125,16.9414062 C91.5911475,16.8554683 91.8984361,16.7408861 92.1796875,16.5976562 C92.4609389,16.4544264 92.7161447,16.2877614 92.9453125,16.0976562 C93.1744803,15.9075511 93.3828116,15.7083344 93.5703125,15.5 C93.2526026,15.0052059 92.9596368,14.582033 92.6914062,14.2304688 C92.4231757,13.8789045 92.1523451,13.5755221 91.8789062,13.3203125 C91.6054674,13.0651029 91.3138036,12.8463551 91.0039062,12.6640625 C90.6940089,12.4817699 90.3359395,12.3125008 89.9296875,12.15625 C89.6015609,12.286459 89.2994805,12.4309888 89.0234375,12.5898438 C88.7473945,12.7486987 88.5091156,12.9361968 88.3085938,13.1523438 C88.1080719,13.3684907 87.9505214,13.6197902 87.8359375,13.90625 C87.7213536,14.1927098 87.6640625,14.5286439 87.6640625,14.9140625 C87.6640625,15.2682309 87.729166,15.5807278 87.859375,15.8515625 C87.989584,16.1223972 88.1679676,16.3476554 88.3945312,16.5273438 C88.6210949,16.7070321 88.8854152,16.8424475 89.1875,16.9335938 C89.4895848,17.02474 89.8151024,17.0703125 90.1640625,17.0703125 Z M92.1171875,9.09375 C92.1171875,8.83333203 92.0690109,8.61198008 91.9726562,8.4296875 C91.8763016,8.24739492 91.753907,8.09635477 91.6054688,7.9765625 C91.4570305,7.85677023 91.2916676,7.76953152 91.109375,7.71484375 C90.9270824,7.66015598 90.7473967,7.6328125 90.5703125,7.6328125 C90.0598933,7.6328125 89.6523453,7.77083195 89.3476562,8.046875 C89.0429672,8.32291805 88.8880209,8.6979143 88.8828125,9.171875 C88.8828125,9.38541773 88.9153643,9.58593656 88.9804688,9.7734375 C89.0455732,9.96093844 89.1367182,10.1354159 89.2539062,10.296875 C89.3710943,10.4583341 89.5078117,10.6015619 89.6640625,10.7265625 C89.8203133,10.8515631 89.9869783,10.9583329 90.1640625,11.046875 C90.8203158,10.8177072 91.3098942,10.5507828 91.6328125,10.2460938 C91.9557308,9.94140473 92.1171875,9.55729398 92.1171875,9.09375 Z M103.5625,17.546875 L103.5625,16 C103.739584,16.1562508 103.951822,16.2968744 104.199219,16.421875 C104.446616,16.5468756 104.70703,16.6523433 104.980469,16.7382812 C105.253908,16.8242192 105.528644,16.8906248 105.804688,16.9375 C106.080731,16.9843752 106.335936,17.0078125 106.570312,17.0078125 C107.377608,17.0078125 107.980467,16.8580744 108.378906,16.5585938 C108.777346,16.2591131 108.976562,15.8281278 108.976562,15.265625 C108.976562,14.9635402 108.910157,14.700522 108.777344,14.4765625 C108.644531,14.252603 108.460939,14.048178 108.226562,13.8632812 C107.992186,13.6783845 107.714845,13.5013029 107.394531,13.3320312 C107.074217,13.1627596 106.729169,12.9843759 106.359375,12.796875 C105.968748,12.5989573 105.604168,12.3984385 105.265625,12.1953125 C104.927082,11.9921865 104.632814,11.7682304 104.382812,11.5234375 C104.132811,11.2786446 103.936199,11.0013036 103.792969,10.6914062 C103.649739,10.3815089 103.578125,10.0182312 103.578125,9.6015625 C103.578125,9.09114328 103.690103,8.6471373 103.914062,8.26953125 C104.138022,7.8919252 104.43229,7.58073039 104.796875,7.3359375 C105.16146,7.09114461 105.576821,6.90885477 106.042969,6.7890625 C106.509117,6.66927023 106.984373,6.609375 107.46875,6.609375 C108.572922,6.609375 109.377602,6.74218617 109.882812,7.0078125 L109.882812,8.484375 C109.221351,8.02603937 108.372401,7.796875 107.335938,7.796875 C107.049478,7.796875 106.763022,7.82682262 106.476562,7.88671875 C106.190103,7.94661488 105.934897,8.04427016 105.710938,8.1796875 C105.486978,8.31510484 105.304688,8.48958227 105.164062,8.703125 C105.023437,8.91666773 104.953125,9.1770818 104.953125,9.484375 C104.953125,9.77083477 105.00651,10.0182281 105.113281,10.2265625 C105.220053,10.4348969 105.377603,10.6249991 105.585938,10.796875 C105.794272,10.9687509 106.048176,11.1354159 106.347656,11.296875 C106.647137,11.4583341 106.992186,11.6354157 107.382812,11.828125 C107.783856,12.0260427 108.164061,12.2343739 108.523438,12.453125 C108.882814,12.6718761 109.197915,12.9140612 109.46875,13.1796875 C109.739585,13.4453138 109.954426,13.7395817 110.113281,14.0625 C110.272136,14.3854183 110.351562,14.7552063 110.351562,15.171875 C110.351562,15.7239611 110.243491,16.1914043 110.027344,16.5742188 C109.811197,16.9570332 109.519533,17.268228 109.152344,17.5078125 C108.785154,17.747397 108.361982,17.9205724 107.882812,18.0273438 C107.403643,18.1341151 106.89844,18.1875 106.367188,18.1875 C106.190103,18.1875 105.971355,18.1731772 105.710938,18.1445312 C105.45052,18.1158853 105.184897,18.074219 104.914062,18.0195312 C104.643228,17.9648435 104.38672,17.8971358 104.144531,17.8164062 C103.902343,17.7356767 103.708334,17.6458338 103.5625,17.546875 Z M118.84375,14.3203125 L113.195312,14.3203125 C113.216146,15.210942 113.455727,15.8984351 113.914062,16.3828125 C114.372398,16.8671899 115.0026,17.109375 115.804688,17.109375 C116.705734,17.109375 117.53385,16.812503 118.289062,16.21875 L118.289062,17.421875 C117.585934,17.9322942 116.656256,18.1875 115.5,18.1875 C114.369786,18.1875 113.481774,17.8242224 112.835938,17.0976563 C112.190101,16.3710901 111.867188,15.3489649 111.867188,14.03125 C111.867188,12.7864521 112.220049,11.7721393 112.925781,10.9882812 C113.631514,10.2044232 114.507807,9.8125 115.554688,9.8125 C116.601568,9.8125 117.411455,10.1510383 117.984375,10.828125 C118.557295,11.5052117 118.84375,12.4453065 118.84375,13.6484375 L118.84375,14.3203125 Z M117.53125,13.234375 C117.526042,12.494788 117.347658,11.9192729 116.996094,11.5078125 C116.644529,11.0963521 116.156253,10.890625 115.53125,10.890625 C114.92708,10.890625 114.414065,11.1067687 113.992188,11.5390625 C113.57031,11.9713563 113.309896,12.5364548 113.210938,13.234375 L117.53125,13.234375 Z M126.234375,17.6328125 C125.619789,18.002606 124.890629,18.1875 124.046875,18.1875 C122.906244,18.1875 121.985681,17.81641 121.285156,17.0742188 C120.584632,16.3320275 120.234375,15.3697976 120.234375,14.1875 C120.234375,12.8697851 120.611975,11.8112019 121.367188,11.0117188 C122.1224,10.2122356 123.130202,9.8125 124.390625,9.8125 C125.093754,9.8125 125.713539,9.94270703 126.25,10.203125 L126.25,11.515625 C125.656247,11.0989563 125.020837,10.890625 124.34375,10.890625 C123.526038,10.890625 122.855471,11.1835908 122.332031,11.7695313 C121.808591,12.3554717 121.546875,13.1249952 121.546875,14.078125 C121.546875,15.0156297 121.792966,15.7552056 122.285156,16.296875 C122.777346,16.8385444 123.437496,17.109375 124.265625,17.109375 C124.963545,17.109375 125.619789,16.8776065 126.234375,16.4140625 L126.234375,17.6328125 Z M134.640625,18 L133.359375,18 L133.359375,16.734375 L133.328125,16.734375 C132.796872,17.7031298 131.973964,18.1875 130.859375,18.1875 C128.953115,18.1875 128,17.0520947 128,14.78125 L128,10 L129.273438,10 L129.273438,14.578125 C129.273438,16.2656334 129.919264,17.109375 131.210938,17.109375 C131.835941,17.109375 132.350258,16.8789086 132.753906,16.4179688 C133.157554,15.9570289 133.359375,15.3541704 133.359375,14.609375 L133.359375,10 L134.640625,10 L134.640625,18 Z M141.398438,11.296875 C141.174478,11.1249991 140.851565,11.0390625 140.429688,11.0390625 C139.88281,11.0390625 139.425783,11.2968724 139.058594,11.8125 C138.691404,12.3281276 138.507812,13.0312455 138.507812,13.921875 L138.507812,18 L137.226562,18 L137.226562,10 L138.507812,10 L138.507812,11.6484375 L138.539062,11.6484375 C138.721355,11.0859347 138.999998,10.647137 139.375,10.3320312 C139.750002,10.0169255 140.169269,9.859375 140.632812,9.859375 C140.966148,9.859375 141.221353,9.89583297 141.398438,9.96875 L141.398438,11.296875 Z M143.445312,7.96875 C143.216145,7.96875 143.020834,7.89062578 142.859375,7.734375 C142.697916,7.57812422 142.617188,7.38020953 142.617188,7.140625 C142.617188,6.90104047 142.697916,6.70182371 142.859375,6.54296875 C143.020834,6.38411379 143.216145,6.3046875 143.445312,6.3046875 C143.679689,6.3046875 143.878905,6.38411379 144.042969,6.54296875 C144.207032,6.70182371 144.289062,6.90104047 144.289062,7.140625 C144.289062,7.36979281 144.207032,7.56510336 144.042969,7.7265625 C143.878905,7.88802164 143.679689,7.96875 143.445312,7.96875 Z M144.070312,18 L142.789062,18 L142.789062,10 L144.070312,10 L144.070312,18 Z M150.375,17.921875 C150.072915,18.0885425 149.674482,18.171875 149.179688,18.171875 C147.778639,18.171875 147.078125,17.3906328 147.078125,15.828125 L147.078125,11.09375 L145.703125,11.09375 L145.703125,10 L147.078125,10 L147.078125,8.046875 L148.359375,7.6328125 L148.359375,10 L150.375,10 L150.375,11.09375 L148.359375,11.09375 L148.359375,15.6015625 C148.359375,16.1380235 148.45052,16.5208322 148.632812,16.75 C148.815105,16.9791678 149.117185,17.09375 149.539062,17.09375 C149.861981,17.09375 150.140624,17.0052092 150.375,16.828125 L150.375,17.921875 Z M158.453125,10 L154.773438,19.28125 C154.117184,20.9375083 153.195318,21.765625 152.007812,21.765625 C151.674478,21.765625 151.395834,21.7317712 151.171875,21.6640625 L151.171875,20.515625 C151.447918,20.6093755 151.70052,20.65625 151.929688,20.65625 C152.575524,20.65625 153.059894,20.2708372 153.382812,19.5 L154.023438,17.984375 L150.898438,10 L152.320312,10 L154.484375,16.15625 C154.510417,16.2343754 154.565104,16.4374984 154.648438,16.765625 L154.695312,16.765625 C154.721354,16.6406244 154.773437,16.4427097 154.851562,16.171875 L157.125,10 L158.453125,10 Z" id="Item-Name" fill="#0C0C0D"></path>
                <g id="icon-/-Pref-/-Account">
                    <mask id="mask-4" fill="white">
                        <use xlink:href="#path-3"></use>
                    </mask>
                    <use id="Fill-4" fill="#0C0C0D" xlink:href="#path-3"></use>
                </g>
            </g>
            <g id="Pref-/-Nev-/-Items" transform="translate(87.000000, 181.000000)">
                <path d="M40.15625,5.984375 L35.78125,5.984375 L35.78125,9.859375 L39.828125,9.859375 L39.828125,11.0390625 L35.78125,11.0390625 L35.78125,16 L34.46875,16 L34.46875,4.796875 L40.15625,4.796875 L40.15625,5.984375 Z M42.765625,5.96875 C42.5364572,5.96875 42.3411466,5.89062578 42.1796875,5.734375 C42.0182284,5.57812422 41.9375,5.38020953 41.9375,5.140625 C41.9375,4.90104047 42.0182284,4.70182371 42.1796875,4.54296875 C42.3411466,4.38411379 42.5364572,4.3046875 42.765625,4.3046875 C43.0000012,4.3046875 43.1992179,4.38411379 43.3632812,4.54296875 C43.5273446,4.70182371 43.609375,4.90104047 43.609375,5.140625 C43.609375,5.36979281 43.5273446,5.56510336 43.3632812,5.7265625 C43.1992179,5.88802164 43.0000012,5.96875 42.765625,5.96875 Z M43.390625,16 L42.109375,16 L42.109375,8 L43.390625,8 L43.390625,16 Z M50.15625,9.296875 C49.9322905,9.12499914 49.6093771,9.0390625 49.1875,9.0390625 C48.6406223,9.0390625 48.1835956,9.29687242 47.8164062,9.8125 C47.4492169,10.3281276 47.265625,11.0312455 47.265625,11.921875 L47.265625,16 L45.984375,16 L45.984375,8 L47.265625,8 L47.265625,9.6484375 L47.296875,9.6484375 C47.4791676,9.08593469 47.7578106,8.64713699 48.1328125,8.33203125 C48.5078144,8.01692551 48.927081,7.859375 49.390625,7.859375 C49.72396,7.859375 49.9791658,7.89583297 50.15625,7.96875 L50.15625,9.296875 Z M57.765625,12.3203125 L52.1171875,12.3203125 C52.1380209,13.210942 52.3776019,13.8984351 52.8359375,14.3828125 C53.2942731,14.8671899 53.9244752,15.109375 54.7265625,15.109375 C55.6276087,15.109375 56.4557254,14.812503 57.2109375,14.21875 L57.2109375,15.421875 C56.507809,15.9322942 55.5781308,16.1875 54.421875,16.1875 C53.291661,16.1875 52.4036491,15.8242224 51.7578125,15.0976562 C51.1119759,14.3710901 50.7890625,13.3489649 50.7890625,12.03125 C50.7890625,10.7864521 51.1419236,9.77213934 51.8476562,8.98828125 C52.5533889,8.20442316 53.4296823,7.8125 54.4765625,7.8125 C55.5234427,7.8125 56.3333305,8.15103828 56.90625,8.828125 C57.4791695,9.50521172 57.765625,10.4453065 57.765625,11.6484375 L57.765625,12.3203125 Z M56.453125,11.234375 C56.4479166,10.494788 56.269533,9.91927289 55.9179688,9.5078125 C55.5664045,9.09635211 55.0781281,8.890625 54.453125,8.890625 C53.8489553,8.890625 53.3359396,9.10676867 52.9140625,9.5390625 C52.4921854,9.97135633 52.2317713,10.5364548 52.1328125,11.234375 L56.453125,11.234375 Z M63.65625,5.28125 C63.4062488,5.1406243 63.1223974,5.0703125 62.8046875,5.0703125 C61.9088497,5.0703125 61.4609375,5.63541102 61.4609375,6.765625 L61.4609375,8 L63.3359375,8 L63.3359375,9.09375 L61.4609375,9.09375 L61.4609375,16 L60.1875,16 L60.1875,9.09375 L58.8203125,9.09375 L58.8203125,8 L60.1875,8 L60.1875,6.703125 C60.1875,5.86457914 60.4296851,5.20182535 60.9140625,4.71484375 C61.3984399,4.22786215 62.0026005,3.984375 62.7265625,3.984375 C63.1171895,3.984375 63.4270822,4.03124953 63.65625,4.125 L63.65625,5.28125 Z M68.0546875,16.1875 C66.8723899,16.1875 65.9283889,15.8138058 65.2226562,15.0664062 C64.5169236,14.3190067 64.1640625,13.3281312 64.1640625,12.09375 C64.1640625,10.7499933 64.5312463,9.70052461 65.265625,8.9453125 C66.0000037,8.19010039 66.9921812,7.8125 68.2421875,7.8125 C69.4349018,7.8125 70.3658821,8.17968383 71.0351562,8.9140625 C71.7044304,9.64844117 72.0390625,10.6666602 72.0390625,11.96875 C72.0390625,13.244798 71.678389,14.2669232 70.9570312,15.0351562 C70.2356735,15.8033893 69.2682352,16.1875 68.0546875,16.1875 Z M68.1484375,8.890625 C67.3255167,8.890625 66.6744816,9.17057012 66.1953125,9.73046875 C65.7161434,10.2903674 65.4765625,11.0624951 65.4765625,12.046875 C65.4765625,12.9947964 65.7187476,13.7421848 66.203125,14.2890625 C66.6875024,14.8359402 67.3359334,15.109375 68.1484375,15.109375 C68.9765666,15.109375 69.613279,14.8411485 70.0585938,14.3046875 C70.5039085,13.7682265 70.7265625,13.0052133 70.7265625,12.015625 C70.7265625,11.01562 70.5039085,10.2447944 70.0585938,9.703125 C69.613279,9.16145562 68.9765666,8.890625 68.1484375,8.890625 Z M79.734375,8 L77.046875,12.046875 L79.6875,16 L78.1953125,16 L76.625,13.40625 C76.5260412,13.2447909 76.4088548,13.0416679 76.2734375,12.796875 L76.2421875,12.796875 C76.2161457,12.8437502 76.0937511,13.0468732 75.875,13.40625 L74.2734375,16 L72.796875,16 L75.5234375,12.078125 L72.9140625,8 L74.40625,8 L75.953125,10.734375 C76.0677089,10.937501 76.179687,11.1458323 76.2890625,11.359375 L76.3203125,11.359375 L78.3203125,8 L79.734375,8 Z M94.4609375,16 L93.0078125,16 L91.8203125,12.859375 L87.0703125,12.859375 L85.953125,16 L84.4921875,16 L88.7890625,4.796875 L90.1484375,4.796875 L94.4609375,16 Z M91.390625,11.6796875 L89.6328125,6.90625 C89.5755205,6.74999922 89.5182295,6.50000172 89.4609375,6.15625 L89.4296875,6.15625 C89.3776039,6.47395992 89.3177087,6.72395742 89.25,6.90625 L87.5078125,11.6796875 L91.390625,11.6796875 Z M101.390625,15.6328125 C100.776039,16.002606 100.046879,16.1875 99.203125,16.1875 C98.0624943,16.1875 97.1419306,15.81641 96.4414062,15.0742188 C95.7408819,14.3320275 95.390625,13.3697976 95.390625,12.1875 C95.390625,10.8697851 95.7682254,9.81120191 96.5234375,9.01171875 C97.2786496,8.21223559 98.286452,7.8125 99.546875,7.8125 C100.250004,7.8125 100.869789,7.94270703 101.40625,8.203125 L101.40625,9.515625 C100.812497,9.09895625 100.177087,8.890625 99.5,8.890625 C98.6822876,8.890625 98.0117214,9.18359082 97.4882812,9.76953125 C96.9648411,10.3554717 96.703125,11.1249952 96.703125,12.078125 C96.703125,13.0156297 96.9492163,13.7552056 97.4414062,14.296875 C97.9335962,14.8385444 98.5937459,15.109375 99.421875,15.109375 C100.119795,15.109375 100.776039,14.8776065 101.390625,14.4140625 L101.390625,15.6328125 Z M108.78125,15.6328125 C108.166664,16.002606 107.437504,16.1875 106.59375,16.1875 C105.453119,16.1875 104.532556,15.81641 103.832031,15.0742188 C103.131507,14.3320275 102.78125,13.3697976 102.78125,12.1875 C102.78125,10.8697851 103.15885,9.81120191 103.914062,9.01171875 C104.669275,8.21223559 105.677077,7.8125 106.9375,7.8125 C107.640629,7.8125 108.260414,7.94270703 108.796875,8.203125 L108.796875,9.515625 C108.203122,9.09895625 107.567712,8.890625 106.890625,8.890625 C106.072913,8.890625 105.402346,9.18359082 104.878906,9.76953125 C104.355466,10.3554717 104.09375,11.1249952 104.09375,12.078125 C104.09375,13.0156297 104.339841,13.7552056 104.832031,14.296875 C105.324221,14.8385444 105.984371,15.109375 106.8125,15.109375 C107.51042,15.109375 108.166664,14.8776065 108.78125,14.4140625 L108.78125,15.6328125 Z M114.0625,16.1875 C112.880202,16.1875 111.936201,15.8138058 111.230469,15.0664062 C110.524736,14.3190067 110.171875,13.3281312 110.171875,12.09375 C110.171875,10.7499933 110.539059,9.70052461 111.273438,8.9453125 C112.007816,8.19010039 112.999994,7.8125 114.25,7.8125 C115.442714,7.8125 116.373695,8.17968383 117.042969,8.9140625 C117.712243,9.64844117 118.046875,10.6666602 118.046875,11.96875 C118.046875,13.244798 117.686202,14.2669232 116.964844,15.0351562 C116.243486,15.8033893 115.276048,16.1875 114.0625,16.1875 Z M114.15625,8.890625 C113.333329,8.890625 112.682294,9.17057012 112.203125,9.73046875 C111.723956,10.2903674 111.484375,11.0624951 111.484375,12.046875 C111.484375,12.9947964 111.72656,13.7421848 112.210938,14.2890625 C112.695315,14.8359402 113.343746,15.109375 114.15625,15.109375 C114.984379,15.109375 115.621092,14.8411485 116.066406,14.3046875 C116.511721,13.7682265 116.734375,13.0052133 116.734375,12.015625 C116.734375,11.01562 116.511721,10.2447944 116.066406,9.703125 C115.621092,9.16145562 114.984379,8.890625 114.15625,8.890625 Z M126.5625,16 L125.28125,16 L125.28125,14.734375 L125.25,14.734375 C124.718747,15.7031298 123.895839,16.1875 122.78125,16.1875 C120.87499,16.1875 119.921875,15.0520947 119.921875,12.78125 L119.921875,8 L121.195312,8 L121.195312,12.578125 C121.195312,14.2656334 121.841139,15.109375 123.132812,15.109375 C123.757816,15.109375 124.272133,14.8789086 124.675781,14.4179688 C125.079429,13.9570289 125.28125,13.3541704 125.28125,12.609375 L125.28125,8 L126.5625,8 L126.5625,16 Z M135.789062,16 L134.507812,16 L134.507812,11.4375 C134.507812,9.73957484 133.888027,8.890625 132.648438,8.890625 C132.007809,8.890625 131.477867,9.13150801 131.058594,9.61328125 C130.639321,10.0950545 130.429688,10.7031213 130.429688,11.4375 L130.429688,16 L129.148438,16 L129.148438,8 L130.429688,8 L130.429688,9.328125 L130.460938,9.328125 C131.065107,8.31770328 131.940098,7.8125 133.085938,7.8125 C133.960942,7.8125 134.630206,8.09504926 135.09375,8.66015625 C135.557294,9.22526324 135.789062,10.0416613 135.789062,11.109375 L135.789062,16 Z M141.914062,15.921875 C141.611978,16.0885425 141.213544,16.171875 140.71875,16.171875 C139.317701,16.171875 138.617188,15.3906328 138.617188,13.828125 L138.617188,9.09375 L137.242188,9.09375 L137.242188,8 L138.617188,8 L138.617188,6.046875 L139.898438,5.6328125 L139.898438,8 L141.914062,8 L141.914062,9.09375 L139.898438,9.09375 L139.898438,13.6015625 C139.898438,14.1380235 139.989582,14.5208322 140.171875,14.75 C140.354168,14.9791678 140.656248,15.09375 141.078125,15.09375 C141.401043,15.09375 141.679686,15.0052092 141.914062,14.828125 L141.914062,15.921875 Z" id="Item-Name" fill="#0C0C0D"></path>
                <g id="icon-/-Pref-/-Account">
                    <mask id="mask-6" fill="white">
                        <use xlink:href="#path-5"></use>
                    </mask>
                    <use id="Combined-Shape" fill="#0C0C0D" xlink:href="#path-5"></use>
                </g>
            </g>
        </g>
    </g>
</svg>