<?xml version="1.0" encoding="UTF-8"?>
<svg width="360px" height="240px" viewBox="0 0 360 240" version="1.1" xmlns="http://www.w3.org/2000/svg" xmlns:xlink="http://www.w3.org/1999/xlink">
    <!-- Generator: Sketch 48.2 (47327) - http://www.bohemiancoding.com/sketch -->
    <title>Capitalization-sentence-case</title>
    <desc>Created with Sketch.</desc>
    <defs></defs>
    <g id="Copy" stroke="none" stroke-width="1" fill="none" fill-rule="evenodd">
        <g id="Capitalization-sentence-case" fill="#0C0C0D">
            <g id="sentence-case" transform="translate(41.000000, 98.000000)">
                <path d="M13.828125,6.49707031 L10.8618164,17 L9.41894531,17 L7.25830078,9.32421875 C7.16552688,8.99706868 7.1093751,8.64062693 7.08984375,8.25488281 L7.06054688,8.25488281 C7.03124985,8.61621274 6.96777393,8.96777173 6.87011719,9.30957031 L4.69482422,17 L3.26660156,17 L0.190429688,6.49707031 L1.54541016,6.49707031 L3.77929688,14.5537109 C3.87207078,14.8906267 3.93066394,15.2421857 3.95507812,15.6083984 L3.99169922,15.6083984 C4.0161134,15.3496081 4.09179624,14.9980491 4.21875,14.5537109 L6.54052734,6.49707031 L7.71972656,6.49707031 L9.94628906,14.6123047 C10.0244145,14.8906264 10.0830076,15.2177716 10.1220703,15.59375 L10.1513672,15.59375 C10.1708985,15.3398425 10.2368158,15.0029318 10.3491211,14.5830078 L12.4951172,6.49707031 L13.828125,6.49707031 Z M20.5957031,17 L19.3945312,17 L19.3945312,15.828125 L19.3652344,15.828125 C18.8427708,16.726567 18.0737355,17.1757812 17.0581055,17.1757812 C16.3110314,17.1757812 15.7263205,16.9780293 15.3039551,16.5825195 C14.8815897,16.1870097 14.6704102,15.6621126 14.6704102,15.0078125 C14.6704102,13.6064383 15.4955972,12.7910168 17.1459961,12.5615234 L19.3945312,12.246582 C19.3945312,10.9721616 18.8793997,10.3349609 17.8491211,10.3349609 C16.9457963,10.3349609 16.1303747,10.642575 15.402832,11.2578125 L15.402832,10.0273438 C16.1401404,9.55859141 16.9897413,9.32421875 17.9516602,9.32421875 C19.7143643,9.32421875 20.5957031,10.2568266 20.5957031,12.1220703 L20.5957031,17 Z M19.3945312,13.2060547 L17.5854492,13.4550781 C17.0288058,13.5332035 16.6088881,13.6711416 16.3256836,13.8688965 C16.0424791,14.0666514 15.9008789,14.4169897 15.9008789,14.9199219 C15.9008789,15.2861346 16.0314928,15.5852039 16.2927246,15.8171387 C16.5539564,16.0490734 16.9018533,16.1650391 17.3364258,16.1650391 C17.9321319,16.1650391 18.4240703,15.9563009 18.8122559,15.5388184 C19.2004414,15.1213358 19.3945312,14.5927766 19.3945312,13.953125 L19.3945312,13.2060547 Z M29.0844727,17 L27.8833008,17 L27.8833008,12.7226562 C27.8833008,11.1308514 27.3022519,10.3349609 26.1401367,10.3349609 C25.5395478,10.3349609 25.0427266,10.5607888 24.6496582,11.0124512 C24.2565898,11.4641136 24.0600586,12.0341762 24.0600586,12.7226562 L24.0600586,17 L22.8588867,17 L22.8588867,9.5 L24.0600586,9.5 L24.0600586,10.7451172 L24.0893555,10.7451172 C24.6557646,9.79784683 25.4760688,9.32421875 26.550293,9.32421875 C27.3706096,9.32421875 27.9980447,9.58910868 28.4326172,10.1188965 C28.8671897,10.6486843 29.0844727,11.4140575 29.0844727,12.4150391 L29.0844727,17 Z M34.8266602,16.9267578 C34.5434556,17.0830086 34.1699242,17.1611328 33.7060547,17.1611328 C32.3925716,17.1611328 31.7358398,16.4287183 31.7358398,14.9638672 L31.7358398,10.5253906 L30.4467773,10.5253906 L30.4467773,9.5 L31.7358398,9.5 L31.7358398,7.66894531 L32.9370117,7.28076172 L32.9370117,9.5 L34.8266602,9.5 L34.8266602,10.5253906 L32.9370117,10.5253906 L32.9370117,14.7514648 C32.9370117,15.254397 33.0224601,15.6132802 33.1933594,15.828125 C33.3642587,16.0429698 33.647459,16.1503906 34.0429688,16.1503906 C34.3457046,16.1503906 34.6069325,16.0673836 34.8266602,15.9013672 L34.8266602,16.9267578 Z M44.0185547,16.9267578 C43.7353501,17.0830086 43.3618187,17.1611328 42.8979492,17.1611328 C41.5844661,17.1611328 40.9277344,16.4287183 40.9277344,14.9638672 L40.9277344,10.5253906 L39.6386719,10.5253906 L39.6386719,9.5 L40.9277344,9.5 L40.9277344,7.66894531 L42.1289062,7.28076172 L42.1289062,9.5 L44.0185547,9.5 L44.0185547,10.5253906 L42.1289062,10.5253906 L42.1289062,14.7514648 C42.1289062,15.254397 42.2143546,15.6132802 42.3852539,15.828125 C42.5561532,16.0429698 42.8393535,16.1503906 43.2348633,16.1503906 C43.5375992,16.1503906 43.798827,16.0673836 44.0185547,15.9013672 L44.0185547,16.9267578 Z M48.7573242,17.1757812 C47.6489202,17.1757812 46.7639193,16.825443 46.1022949,16.1247559 C45.4406705,15.4240688 45.1098633,14.495123 45.1098633,13.3378906 C45.1098633,12.0781187 45.4540981,11.0942418 46.1425781,10.3862305 C46.8310581,9.67821912 47.7612246,9.32421875 48.9331055,9.32421875 C50.0512751,9.32421875 50.9240691,9.66845359 51.5515137,10.3569336 C52.1789582,11.0454136 52.4926758,11.9999939 52.4926758,13.2207031 C52.4926758,14.4169982 52.1545444,15.3752405 51.4782715,16.095459 C50.8019986,16.8156774 49.8950252,17.1757812 48.7573242,17.1757812 Z M48.8452148,10.3349609 C48.0737266,10.3349609 47.4633812,10.5974095 47.0141602,11.1223145 C46.5649392,11.6472194 46.340332,12.3710891 46.340332,13.2939453 C46.340332,14.1826216 46.5673805,14.8832982 47.0214844,15.3959961 C47.4755882,15.908694 48.0834923,16.1650391 48.8452148,16.1650391 C49.6215859,16.1650391 50.2185038,15.9135767 50.6359863,15.4106445 C51.0534689,14.9077123 51.262207,14.1923875 51.262207,13.2646484 C51.262207,12.3271437 51.0534689,11.6044947 50.6359863,11.0966797 C50.2185038,10.5888646 49.6215859,10.3349609 48.8452148,10.3349609 Z M64.7460938,17 L63.0615234,17 L59.7509766,13.3964844 L59.7216797,13.3964844 L59.7216797,17 L58.5205078,17 L58.5205078,5.89648438 L59.7216797,5.89648438 L59.7216797,12.9350586 L59.7509766,12.9350586 L62.9003906,9.5 L64.4750977,9.5 L60.9960938,13.1181641 L64.7460938,17 Z M72.0043945,13.550293 L66.7089844,13.550293 C66.7285157,14.3852581 66.9531229,15.0297829 67.3828125,15.4838867 C67.8125021,15.9379906 68.4033166,16.1650391 69.1552734,16.1650391 C70.0000042,16.1650391 70.7763636,15.8867215 71.484375,15.3300781 L71.484375,16.4580078 C70.825192,16.9365258 69.9536187,17.1757812 68.8696289,17.1757812 C67.8100533,17.1757812 66.9775421,16.8352085 66.3720703,16.1540527 C65.7665985,15.472897 65.4638672,14.5146546 65.4638672,13.2792969 C65.4638672,12.1122989 65.7946744,11.1613806 66.4562988,10.4265137 C67.1179232,9.69164672 67.9394482,9.32421875 68.9208984,9.32421875 C69.9023487,9.32421875 70.6616184,9.64159839 71.1987305,10.2763672 C71.7358425,10.911136 72.0043945,11.7924748 72.0043945,12.9204102 L72.0043945,13.550293 Z M70.7739258,12.5322266 C70.7690429,11.8388637 70.6018083,11.2993183 70.2722168,10.9135742 C69.9426253,10.5278301 69.4848662,10.3349609 68.8989258,10.3349609 C68.3325167,10.3349609 67.8515645,10.5375956 67.4560547,10.9428711 C67.0605449,11.3481466 66.8164067,11.8779264 66.7236328,12.5322266 L70.7739258,12.5322266 Z M79.8486328,13.550293 L74.5532227,13.550293 C74.572754,14.3852581 74.7973611,15.0297829 75.2270508,15.4838867 C75.6567404,15.9379906 76.2475548,16.1650391 76.9995117,16.1650391 C77.8442425,16.1650391 78.6206019,15.8867215 79.3286133,15.3300781 L79.3286133,16.4580078 C78.6694303,16.9365258 77.797857,17.1757812 76.7138672,17.1757812 C75.6542916,17.1757812 74.8217804,16.8352085 74.2163086,16.1540527 C73.6108368,15.472897 73.3081055,14.5146546 73.3081055,13.2792969 C73.3081055,12.1122989 73.6389127,11.1613806 74.3005371,10.4265137 C74.9621615,9.69164672 75.7836865,9.32421875 76.7651367,9.32421875 C77.7465869,9.32421875 78.5058567,9.64159839 79.0429688,10.2763672 C79.5800808,10.911136 79.8486328,11.7924748 79.8486328,12.9204102 L79.8486328,13.550293 Z M78.6181641,12.5322266 C78.6132812,11.8388637 78.4460466,11.2993183 78.1164551,10.9135742 C77.7868636,10.5278301 77.3291045,10.3349609 76.7431641,10.3349609 C76.176755,10.3349609 75.6958028,10.5375956 75.300293,10.9428711 C74.9047832,11.3481466 74.660645,11.8779264 74.5678711,12.5322266 L78.6181641,12.5322266 Z M82.8955078,15.9160156 L82.8662109,15.9160156 L82.8662109,20.449707 L81.6650391,20.449707 L81.6650391,9.5 L82.8662109,9.5 L82.8662109,10.8183594 L82.8955078,10.8183594 C83.4863311,9.82226064 84.3505802,9.32421875 85.4882812,9.32421875 C86.455083,9.32421875 87.2094699,9.65990875 87.7514648,10.3312988 C88.2934597,11.0026889 88.5644531,11.9023381 88.5644531,13.0302734 C88.5644531,14.2851625 88.2592804,15.2897911 87.6489258,16.0441895 C87.0385712,16.7985878 86.2036186,17.1757812 85.144043,17.1757812 C84.1723584,17.1757812 83.4228542,16.7558636 82.8955078,15.9160156 Z M82.8662109,12.8911133 L82.8662109,13.9384766 C82.8662109,14.5585969 83.0676249,15.0847146 83.470459,15.5168457 C83.873293,15.9489768 84.3847625,16.1650391 85.0048828,16.1650391 C85.7324255,16.1650391 86.3024882,15.8867215 86.7150879,15.3300781 C87.1276876,14.7734347 87.3339844,13.9995167 87.3339844,13.0083008 C87.3339844,12.1733357 87.1411152,11.5190453 86.7553711,11.0454102 C86.369627,10.571775 85.8471713,10.3349609 85.1879883,10.3349609 C84.4897426,10.3349609 83.9282248,10.5778784 83.503418,11.0637207 C83.0786112,11.549563 82.8662109,12.1586877 82.8662109,12.8911133 Z M94.1381836,16.7290039 L94.1381836,15.4399414 C94.7924837,15.9233423 95.5126914,16.1650391 96.2988281,16.1650391 C97.3535209,16.1650391 97.8808594,15.8134801 97.8808594,15.1103516 C97.8808594,14.9101552 97.8356938,14.7404792 97.7453613,14.6013184 C97.6550288,14.4621575 97.5329598,14.3388677 97.3791504,14.2314453 C97.225341,14.1240229 97.0446788,14.0275883 96.8371582,13.9421387 C96.6296376,13.856689 96.4062512,13.7675786 96.1669922,13.6748047 C95.8349593,13.5429681 95.5432141,13.4099128 95.291748,13.2756348 C95.0402819,13.1413568 94.8303231,12.9899911 94.6618652,12.8215332 C94.4934074,12.6530753 94.3664555,12.4614269 94.2810059,12.246582 C94.1955562,12.0317372 94.152832,11.7802749 94.152832,11.4921875 C94.152832,11.1406232 94.2333976,10.8293471 94.3945313,10.5583496 C94.5556649,10.2873522 94.7705065,10.0603036 95.0390625,9.87719727 C95.3076185,9.69409088 95.614012,9.55615281 95.958252,9.46337891 C96.302492,9.370605 96.657713,9.32421875 97.0239258,9.32421875 C97.6733431,9.32421875 98.254392,9.43652231 98.7670898,9.66113281 L98.7670898,10.8769531 C98.2153293,10.5156232 97.58057,10.3349609 96.862793,10.3349609 C96.6381825,10.3349609 96.4355478,10.3605954 96.2548828,10.4118652 C96.0742178,10.463135 95.9191901,10.5351558 95.7897949,10.6279297 C95.6603997,10.7207036 95.5603031,10.8317865 95.489502,10.9611816 C95.4187008,11.0905768 95.3833008,11.2333977 95.3833008,11.3896484 C95.3833008,11.5849619 95.4187008,11.7485345 95.489502,11.8803711 C95.5603031,12.0122077 95.6640618,12.129394 95.8007813,12.2319336 C95.9375007,12.3344732 96.1035146,12.4272457 96.2988281,12.5102539 C96.4941416,12.5932621 96.7163073,12.6835933 96.965332,12.78125 C97.2973649,12.9082038 97.5952135,13.0388177 97.8588867,13.1730957 C98.1225599,13.3073737 98.347167,13.4587394 98.5327148,13.6271973 C98.7182626,13.7956551 98.8610835,13.989745 98.9611816,14.2094727 C99.0612798,14.4292003 99.1113281,14.6904282 99.1113281,14.9931641 C99.1113281,15.3642597 99.0295418,15.6865221 98.8659668,15.9599609 C98.7023918,16.2333998 98.4838881,16.4604483 98.2104492,16.6411133 C97.9370104,16.8217782 97.6220721,16.9560542 97.265625,17.0439453 C96.9091779,17.1318364 96.5356465,17.1757812 96.1450195,17.1757812 C95.3735313,17.1757812 94.7045927,17.026857 94.1381836,16.7290039 Z M104.091797,17.1757812 C102.983393,17.1757812 102.098392,16.825443 101.436768,16.1247559 C100.775143,15.4240688 100.444336,14.495123 100.444336,13.3378906 C100.444336,12.0781187 100.788571,11.0942418 101.477051,10.3862305 C102.165531,9.67821912 103.095697,9.32421875 104.267578,9.32421875 C105.385748,9.32421875 106.258542,9.66845359 106.885986,10.3569336 C107.513431,11.0454136 107.827148,11.9999939 107.827148,13.2207031 C107.827148,14.4169982 107.489017,15.3752405 106.812744,16.095459 C106.136471,16.8156774 105.229498,17.1757812 104.091797,17.1757812 Z M104.179688,10.3349609 C103.408199,10.3349609 102.797854,10.5974095 102.348633,11.1223145 C101.899412,11.6472194 101.674805,12.3710891 101.674805,13.2939453 C101.674805,14.1826216 101.901853,14.8832982 102.355957,15.3959961 C102.810061,15.908694 103.417965,16.1650391 104.179688,16.1650391 C104.956059,16.1650391 105.552976,15.9135767 105.970459,15.4106445 C106.387942,14.9077123 106.59668,14.1923875 106.59668,13.2646484 C106.59668,12.3271437 106.387942,11.6044947 105.970459,11.0966797 C105.552976,10.5888646 104.956059,10.3349609 104.179688,10.3349609 Z M120.395508,17 L119.194336,17 L119.194336,12.6933594 C119.194336,11.8632771 119.066163,11.2626972 118.809814,10.8916016 C118.553466,10.520506 118.122562,10.3349609 117.51709,10.3349609 C117.004392,10.3349609 116.568605,10.5693336 116.209717,11.0380859 C115.850828,11.5068383 115.671387,12.0683561 115.671387,12.7226562 L115.671387,17 L114.470215,17 L114.470215,12.546875 C114.470215,11.0722583 113.901373,10.3349609 112.763672,10.3349609 C112.236325,10.3349609 111.80176,10.555906 111.459961,10.9978027 C111.118162,11.4396995 110.947266,12.0146449 110.947266,12.7226562 L110.947266,17 L109.746094,17 L109.746094,9.5 L110.947266,9.5 L110.947266,10.6865234 L110.976562,10.6865234 C111.508792,9.77831577 112.285151,9.32421875 113.305664,9.32421875 C113.818362,9.32421875 114.265135,9.46703959 114.645996,9.75268555 C115.026857,10.0383315 115.288085,10.4130836 115.429688,10.8769531 C115.986331,9.8417917 116.816401,9.32421875 117.919922,9.32421875 C119.570321,9.32421875 120.395508,10.342275 120.395508,12.378418 L120.395508,17 Z M128.693848,13.550293 L123.398438,13.550293 C123.417969,14.3852581 123.642576,15.0297829 124.072266,15.4838867 C124.501955,15.9379906 125.09277,16.1650391 125.844727,16.1650391 C126.689457,16.1650391 127.465817,15.8867215 128.173828,15.3300781 L128.173828,16.4580078 C127.514645,16.9365258 126.643072,17.1757812 125.559082,17.1757812 C124.499506,17.1757812 123.666995,16.8352085 123.061523,16.1540527 C122.456052,15.472897 122.15332,14.5146546 122.15332,13.2792969 C122.15332,12.1122989 122.484128,11.1613806 123.145752,10.4265137 C123.807376,9.69164672 124.628901,9.32421875 125.610352,9.32421875 C126.591802,9.32421875 127.351072,9.64159839 127.888184,10.2763672 C128.425296,10.911136 128.693848,11.7924748 128.693848,12.9204102 L128.693848,13.550293 Z M127.463379,12.5322266 C127.458496,11.8388637 127.291261,11.2993183 126.96167,10.9135742 C126.632078,10.5278301 126.174319,10.3349609 125.588379,10.3349609 C125.02197,10.3349609 124.541018,10.5375956 124.145508,10.9428711 C123.749998,11.3481466 123.50586,11.8779264 123.413086,12.5322266 L127.463379,12.5322266 Z M133.989258,16.9267578 C133.706053,17.0830086 133.332522,17.1611328 132.868652,17.1611328 C131.555169,17.1611328 130.898438,16.4287183 130.898438,14.9638672 L130.898438,10.5253906 L129.609375,10.5253906 L129.609375,9.5 L130.898438,9.5 L130.898438,7.66894531 L132.099609,7.28076172 L132.099609,9.5 L133.989258,9.5 L133.989258,10.5253906 L132.099609,10.5253906 L132.099609,14.7514648 C132.099609,15.254397 132.185058,15.6132802 132.355957,15.828125 C132.526856,16.0429698 132.810057,16.1503906 133.205566,16.1503906 C133.508302,16.1503906 133.76953,16.0673836 133.989258,15.9013672 L133.989258,16.9267578 Z M141.818848,17 L140.617676,17 L140.617676,12.6787109 C140.617676,11.1162031 140.036627,10.3349609 138.874512,10.3349609 C138.288571,10.3349609 137.795412,10.5607888 137.39502,11.0124512 C136.994627,11.4641136 136.794434,12.0439418 136.794434,12.7519531 L136.794434,17 L135.593262,17 L135.593262,5.89648438 L136.794434,5.89648438 L136.794434,10.7451172 L136.82373,10.7451172 C137.399905,9.79784683 138.22021,9.32421875 139.284668,9.32421875 C140.97413,9.32421875 141.818848,10.342275 141.818848,12.378418 L141.818848,17 Z M144.697266,7.59570312 C144.482421,7.59570312 144.299317,7.52246167 144.147949,7.37597656 C143.996581,7.22949146 143.920898,7.04394644 143.920898,6.81933594 C143.920898,6.59472544 143.996581,6.40795973 144.147949,6.2590332 C144.299317,6.11010668 144.482421,6.03564453 144.697266,6.03564453 C144.916993,6.03564453 145.103759,6.11010668 145.257568,6.2590332 C145.411378,6.40795973 145.488281,6.59472544 145.488281,6.81933594 C145.488281,7.03418076 145.411378,7.2172844 145.257568,7.36865234 C145.103759,7.52002029 144.916993,7.59570312 144.697266,7.59570312 Z M145.283203,17 L144.082031,17 L144.082031,9.5 L145.283203,9.5 L145.283203,17 Z M153.94043,17 L152.739258,17 L152.739258,12.7226562 C152.739258,11.1308514 152.158209,10.3349609 150.996094,10.3349609 C150.395505,10.3349609 149.898684,10.5607888 149.505615,11.0124512 C149.112547,11.4641136 148.916016,12.0341762 148.916016,12.7226562 L148.916016,17 L147.714844,17 L147.714844,9.5 L148.916016,9.5 L148.916016,10.7451172 L148.945312,10.7451172 C149.511722,9.79784683 150.332026,9.32421875 151.40625,9.32421875 C152.226567,9.32421875 152.854002,9.58910868 153.288574,10.1188965 C153.723147,10.6486843 153.94043,11.4140575 153.94043,12.4150391 L153.94043,17 Z M162.60498,16.3994141 C162.60498,19.1533341 161.286634,20.5302734 158.649902,20.5302734 C157.722163,20.5302734 156.911625,20.3544939 156.218262,20.0029297 L156.218262,18.8017578 C157.062993,19.2705102 157.868649,19.5048828 158.635254,19.5048828 C160.480966,19.5048828 161.403809,18.5234473 161.403809,16.5605469 L161.403809,15.7402344 L161.374512,15.7402344 C160.80322,16.6972704 159.943853,17.1757812 158.796387,17.1757812 C157.863765,17.1757812 157.11304,16.8425326 156.544189,16.1760254 C155.975339,15.5095182 155.690918,14.6147517 155.690918,13.4916992 C155.690918,12.2172788 155.997311,11.2041053 156.610107,10.4521484 C157.222903,9.70019155 158.061518,9.32421875 159.125977,9.32421875 C160.136724,9.32421875 160.886228,9.72948813 161.374512,10.5400391 L161.403809,10.5400391 L161.403809,9.5 L162.60498,9.5 L162.60498,16.3994141 Z M161.403809,13.6088867 L161.403809,12.5029297 C161.403809,11.9072236 161.202395,11.3969748 160.799561,10.972168 C160.396727,10.5473612 159.895023,10.3349609 159.294434,10.3349609 C158.552242,10.3349609 157.971194,10.6047336 157.55127,11.1442871 C157.131346,11.6838406 156.921387,12.4394483 156.921387,13.4111328 C156.921387,14.2460979 157.122801,14.9138159 157.525635,15.4143066 C157.928469,15.9147974 158.461911,16.1650391 159.125977,16.1650391 C159.799808,16.1650391 160.347898,15.9257836 160.770264,15.4472656 C161.192629,14.9687476 161.403809,14.3559608 161.403809,13.6088867 Z M172.624512,16.9267578 C172.341307,17.0830086 171.967776,17.1611328 171.503906,17.1611328 C170.190423,17.1611328 169.533691,16.4287183 169.533691,14.9638672 L169.533691,10.5253906 L168.244629,10.5253906 L168.244629,9.5 L169.533691,9.5 L169.533691,7.66894531 L170.734863,7.28076172 L170.734863,9.5 L172.624512,9.5 L172.624512,10.5253906 L170.734863,10.5253906 L170.734863,14.7514648 C170.734863,15.254397 170.820312,15.6132802 170.991211,15.828125 C171.16211,16.0429698 171.445311,16.1503906 171.84082,16.1503906 C172.143556,16.1503906 172.404784,16.0673836 172.624512,15.9013672 L172.624512,16.9267578 Z M177.363281,17.1757812 C176.254877,17.1757812 175.369876,16.825443 174.708252,16.1247559 C174.046628,15.4240688 173.71582,14.495123 173.71582,13.3378906 C173.71582,12.0781187 174.060055,11.0942418 174.748535,10.3862305 C175.437015,9.67821912 176.367182,9.32421875 177.539062,9.32421875 C178.657232,9.32421875 179.530026,9.66845359 180.157471,10.3569336 C180.784915,11.0454136 181.098633,11.9999939 181.098633,13.2207031 C181.098633,14.4169982 180.760501,15.3752405 180.084229,16.095459 C179.407956,16.8156774 178.500982,17.1757812 177.363281,17.1757812 Z M177.451172,10.3349609 C176.679684,10.3349609 176.069338,10.5974095 175.620117,11.1223145 C175.170896,11.6472194 174.946289,12.3710891 174.946289,13.2939453 C174.946289,14.1826216 175.173338,14.8832982 175.627441,15.3959961 C176.081545,15.908694 176.689449,16.1650391 177.451172,16.1650391 C178.227543,16.1650391 178.824461,15.9135767 179.241943,15.4106445 C179.659426,14.9077123 179.868164,14.1923875 179.868164,13.2646484 C179.868164,12.3271437 179.659426,11.6044947 179.241943,11.0966797 C178.824461,10.5888646 178.227543,10.3349609 177.451172,10.3349609 Z M193.095703,9.5 L189.645996,18.2011719 C189.030759,19.753914 188.166509,20.5302734 187.053223,20.5302734 C186.740721,20.5302734 186.479493,20.4985355 186.269531,20.4350586 L186.269531,19.3583984 C186.528322,19.4462895 186.765136,19.4902344 186.97998,19.4902344 C187.585452,19.4902344 188.039549,19.1289099 188.342285,18.40625 L188.942871,16.9853516 L186.013184,9.5 L187.346191,9.5 L189.375,15.2714844 C189.399414,15.3447269 189.450683,15.5351547 189.528809,15.8427734 L189.572754,15.8427734 C189.597168,15.7255854 189.645996,15.5400403 189.719238,15.2861328 L191.850586,9.5 L193.095703,9.5 Z M197.519531,17.1757812 C196.411127,17.1757812 195.526126,16.825443 194.864502,16.1247559 C194.202878,15.4240688 193.87207,14.495123 193.87207,13.3378906 C193.87207,12.0781187 194.216305,11.0942418 194.904785,10.3862305 C195.593265,9.67821912 196.523432,9.32421875 197.695312,9.32421875 C198.813482,9.32421875 199.686276,9.66845359 200.313721,10.3569336 C200.941165,11.0454136 201.254883,11.9999939 201.254883,13.2207031 C201.254883,14.4169982 200.916751,15.3752405 200.240479,16.095459 C199.564206,16.8156774 198.657232,17.1757812 197.519531,17.1757812 Z M197.607422,10.3349609 C196.835934,10.3349609 196.225588,10.5974095 195.776367,11.1223145 C195.327146,11.6472194 195.102539,12.3710891 195.102539,13.2939453 C195.102539,14.1826216 195.329588,14.8832982 195.783691,15.3959961 C196.237795,15.908694 196.845699,16.1650391 197.607422,16.1650391 C198.383793,16.1650391 198.980711,15.9135767 199.398193,15.4106445 C199.815676,14.9077123 200.024414,14.1923875 200.024414,13.2646484 C200.024414,12.3271437 199.815676,11.6044947 199.398193,11.0966797 C198.980711,10.5888646 198.383793,10.3349609 197.607422,10.3349609 Z M209.238281,17 L208.037109,17 L208.037109,15.8134766 L208.007812,15.8134766 C207.509763,16.7216842 206.738286,17.1757812 205.693359,17.1757812 C203.906241,17.1757812 203.012695,16.1113388 203.012695,13.9824219 L203.012695,9.5 L204.206543,9.5 L204.206543,13.7919922 C204.206543,15.3740313 204.812006,16.1650391 206.022949,16.1650391 C206.60889,16.1650391 207.091063,15.9489768 207.469482,15.5168457 C207.847902,15.0847146 208.037109,14.5195347 208.037109,13.8212891 L208.037109,9.5 L209.238281,9.5 L209.238281,17 Z M215.57373,10.7158203 C215.363768,10.5546867 215.061037,10.4741211 214.665527,10.4741211 C214.152829,10.4741211 213.724367,10.7158179 213.380127,11.1992188 C213.035887,11.6826196 212.86377,12.3417927 212.86377,13.1767578 L212.86377,17 L211.662598,17 L211.662598,9.5 L212.86377,9.5 L212.86377,11.0454102 L212.893066,11.0454102 C213.063966,10.5180638 213.325194,10.1066909 213.676758,9.8112793 C214.028322,9.51586766 214.421385,9.36816406 214.855957,9.36816406 C215.168459,9.36816406 215.407714,9.40234341 215.57373,9.47070312 L215.57373,10.7158203 Z M216.42334,16.7290039 L216.42334,15.4399414 C217.07764,15.9233423 217.797848,16.1650391 218.583984,16.1650391 C219.638677,16.1650391 220.166016,15.8134801 220.166016,15.1103516 C220.166016,14.9101552 220.12085,14.7404792 220.030518,14.6013184 C219.940185,14.4621575 219.818116,14.3388677 219.664307,14.2314453 C219.510497,14.1240229 219.329835,14.0275883 219.122314,13.9421387 C218.914794,13.856689 218.691407,13.7675786 218.452148,13.6748047 C218.120116,13.5429681 217.82837,13.4099128 217.576904,13.2756348 C217.325438,13.1413568 217.115479,12.9899911 216.947021,12.8215332 C216.778564,12.6530753 216.651612,12.4614269 216.566162,12.246582 C216.480712,12.0317372 216.437988,11.7802749 216.437988,11.4921875 C216.437988,11.1406232 216.518554,10.8293471 216.679688,10.5583496 C216.840821,10.2873522 217.055663,10.0603036 217.324219,9.87719727 C217.592775,9.69409088 217.899168,9.55615281 218.243408,9.46337891 C218.587648,9.370605 218.942869,9.32421875 219.309082,9.32421875 C219.958499,9.32421875 220.539548,9.43652231 221.052246,9.66113281 L221.052246,10.8769531 C220.500486,10.5156232 219.865726,10.3349609 219.147949,10.3349609 C218.923339,10.3349609 218.720704,10.3605954 218.540039,10.4118652 C218.359374,10.463135 218.204346,10.5351558 218.074951,10.6279297 C217.945556,10.7207036 217.845459,10.8317865 217.774658,10.9611816 C217.703857,11.0905768 217.668457,11.2333977 217.668457,11.3896484 C217.668457,11.5849619 217.703857,11.7485345 217.774658,11.8803711 C217.845459,12.0122077 217.949218,12.129394 218.085938,12.2319336 C218.222657,12.3344732 218.388671,12.4272457 218.583984,12.5102539 C218.779298,12.5932621 219.001464,12.6835933 219.250488,12.78125 C219.582521,12.9082038 219.88037,13.0388177 220.144043,13.1730957 C220.407716,13.3073737 220.632323,13.4587394 220.817871,13.6271973 C221.003419,13.7956551 221.14624,13.989745 221.246338,14.2094727 C221.346436,14.4292003 221.396484,14.6904282 221.396484,14.9931641 C221.396484,15.3642597 221.314698,15.6865221 221.151123,15.9599609 C220.987548,16.2333998 220.769044,16.4604483 220.495605,16.6411133 C220.222167,16.8217782 219.907228,16.9560542 219.550781,17.0439453 C219.194334,17.1318364 218.820803,17.1757812 218.430176,17.1757812 C217.658688,17.1757812 216.989749,17.026857 216.42334,16.7290039 Z M229.27002,13.550293 L223.974609,13.550293 C223.994141,14.3852581 224.218748,15.0297829 224.648438,15.4838867 C225.078127,15.9379906 225.668942,16.1650391 226.420898,16.1650391 C227.265629,16.1650391 228.041989,15.8867215 228.75,15.3300781 L228.75,16.4580078 C228.090817,16.9365258 227.219244,17.1757812 226.135254,17.1757812 C225.075678,17.1757812 224.243167,16.8352085 223.637695,16.1540527 C223.032224,15.472897 222.729492,14.5146546 222.729492,13.2792969 C222.729492,12.1122989 223.060299,11.1613806 223.721924,10.4265137 C224.383548,9.69164672 225.205073,9.32421875 226.186523,9.32421875 C227.167974,9.32421875 227.927243,9.64159839 228.464355,10.2763672 C229.001468,10.911136 229.27002,11.7924748 229.27002,12.9204102 L229.27002,13.550293 Z M228.039551,12.5322266 C228.034668,11.8388637 227.867433,11.2993183 227.537842,10.9135742 C227.20825,10.5278301 226.750491,10.3349609 226.164551,10.3349609 C225.598142,10.3349609 225.117189,10.5375956 224.72168,10.9428711 C224.32617,11.3481466 224.082032,11.8779264 223.989258,12.5322266 L228.039551,12.5322266 Z M232.287598,17 L231.086426,17 L231.086426,5.89648438 L232.287598,5.89648438 L232.287598,17 Z M238.425293,6.95117188 C238.190917,6.81933528 237.924806,6.75341797 237.626953,6.75341797 C236.787105,6.75341797 236.367188,7.28319783 236.367188,8.34277344 L236.367188,9.5 L238.125,9.5 L238.125,10.5253906 L236.367188,10.5253906 L236.367188,17 L235.17334,17 L235.17334,10.5253906 L233.891602,10.5253906 L233.891602,9.5 L235.17334,9.5 L235.17334,8.28417969 C235.17334,7.49804294 235.400388,6.87671127 235.854492,6.42016602 C236.308596,5.96362076 236.874997,5.73535156 237.553711,5.73535156 C237.919924,5.73535156 238.210448,5.77929644 238.425293,5.8671875 L238.425293,6.95117188 Z M240.651855,14.0849609 C240.60791,13.9580072 240.568848,13.7932139 240.534668,13.5905762 C240.500488,13.3879384 240.483398,13.1865244 240.483398,12.9863281 C240.483398,12.6738266 240.545654,12.391847 240.670166,12.1403809 C240.794678,11.8889148 240.949706,11.6533214 241.135254,11.4335938 C241.320802,11.2138661 241.523436,11.0026866 241.743164,10.8000488 C241.962892,10.5974111 242.165526,10.392335 242.351074,10.1848145 C242.536622,9.97729388 242.69165,9.7600109 242.816162,9.53295898 C242.940674,9.30590707 243.00293,9.05566543 243.00293,8.78222656 C243.00293,8.54785039 242.957764,8.34033293 242.867432,8.15966797 C242.777099,7.979003 242.653809,7.82763733 242.497559,7.70556641 C242.341308,7.58349548 242.160646,7.49194366 241.955566,7.4309082 C241.750487,7.36987274 241.533204,7.33935547 241.303711,7.33935547 C240.478511,7.33935547 239.763187,7.66405925 239.157715,8.31347656 L239.157715,7.02441406 C239.904789,6.55566172 240.678707,6.32128906 241.479492,6.32128906 C241.850588,6.32128906 242.199705,6.3701167 242.526855,6.46777344 C242.854006,6.56543018 243.140868,6.7106924 243.387451,6.90356445 C243.634034,7.09643651 243.828124,7.33691262 243.969727,7.625 C244.111329,7.91308738 244.182129,8.24755669 244.182129,8.62841797 C244.182129,8.9897479 244.118653,9.3120103 243.991699,9.59521484 C243.864745,9.87841938 243.704835,10.1384266 243.511963,10.3752441 C243.319091,10.6120617 243.110353,10.8330068 242.885742,11.0380859 C242.661132,11.2431651 242.452394,11.4470205 242.259521,11.6496582 C242.066649,11.8522959 241.906739,12.0634755 241.779785,12.2832031 C241.652831,12.5029308 241.589355,12.7446276 241.589355,13.0083008 C241.589355,13.2329113 241.616211,13.4367667 241.669922,13.619873 C241.723633,13.8029794 241.777343,13.9580072 241.831055,14.0849609 L240.651855,14.0849609 Z M241.311035,17.1318359 C241.09619,17.1318359 240.905763,17.0537117 240.739746,16.8974609 C240.578612,16.7412102 240.498047,16.5507824 240.498047,16.3261719 C240.498047,16.0966785 240.578612,15.9062508 240.739746,15.7548828 C240.90088,15.5937492 241.091307,15.5131836 241.311035,15.5131836 C241.530763,15.5131836 241.721191,15.5937492 241.882324,15.7548828 C242.043458,15.9062508 242.124023,16.0966785 242.124023,16.3261719 C242.124023,16.5507824 242.043458,16.7412102 241.882324,16.8974609 C241.716308,17.0537117 241.52588,17.1318359 241.311035,17.1318359 Z M258.09082,12.7519531 C258.09082,15.7011866 256.760267,17.1757812 254.099121,17.1757812 C251.55028,17.1757812 250.275879,15.7573384 250.275879,12.9204102 L250.275879,6.49707031 L251.506348,6.49707031 L251.506348,12.8398438 C251.506348,14.9931748 252.414542,16.0698242 254.230957,16.0698242 C255.983895,16.0698242 256.860352,15.0297956 256.860352,12.949707 L256.860352,6.49707031 L258.09082,6.49707031 L258.09082,12.7519531 Z M260.097656,16.7290039 L260.097656,15.4399414 C260.751956,15.9233423 261.472164,16.1650391 262.258301,16.1650391 C263.312994,16.1650391 263.840332,15.8134801 263.840332,15.1103516 C263.840332,14.9101552 263.795166,14.7404792 263.704834,14.6013184 C263.614502,14.4621575 263.492432,14.3388677 263.338623,14.2314453 C263.184814,14.1240229 263.004151,14.0275883 262.796631,13.9421387 C262.58911,13.856689 262.365724,13.7675786 262.126465,13.6748047 C261.794432,13.5429681 261.502687,13.4099128 261.251221,13.2756348 C260.999755,13.1413568 260.789796,12.9899911 260.621338,12.8215332 C260.45288,12.6530753 260.325928,12.4614269 260.240479,12.246582 C260.155029,12.0317372 260.112305,11.7802749 260.112305,11.4921875 C260.112305,11.1406232 260.19287,10.8293471 260.354004,10.5583496 C260.515138,10.2873522 260.729979,10.0603036 260.998535,9.87719727 C261.267091,9.69409088 261.573485,9.55615281 261.917725,9.46337891 C262.261965,9.370605 262.617186,9.32421875 262.983398,9.32421875 C263.632816,9.32421875 264.213865,9.43652231 264.726562,9.66113281 L264.726562,10.8769531 C264.174802,10.5156232 263.540043,10.3349609 262.822266,10.3349609 C262.597655,10.3349609 262.39502,10.3605954 262.214355,10.4118652 C262.033691,10.463135 261.878663,10.5351558 261.749268,10.6279297 C261.619872,10.7207036 261.519776,10.8317865 261.448975,10.9611816 C261.378173,11.0905768 261.342773,11.2333977 261.342773,11.3896484 C261.342773,11.5849619 261.378173,11.7485345 261.448975,11.8803711 C261.519776,12.0122077 261.623534,12.129394 261.760254,12.2319336 C261.896973,12.3344732 262.062987,12.4272457 262.258301,12.5102539 C262.453614,12.5932621 262.67578,12.6835933 262.924805,12.78125 C263.256838,12.9082038 263.554686,13.0388177 263.818359,13.1730957 C264.082033,13.3073737 264.30664,13.4587394 264.492188,13.6271973 C264.677735,13.7956551 264.820556,13.989745 264.920654,14.2094727 C265.020752,14.4292003 265.070801,14.6904282 265.070801,14.9931641 C265.070801,15.3642597 264.989014,15.6865221 264.825439,15.9599609 C264.661864,16.2333998 264.443361,16.4604483 264.169922,16.6411133 C263.896483,16.8217782 263.581545,16.9560542 263.225098,17.0439453 C262.868651,17.1318364 262.495119,17.1757812 262.104492,17.1757812 C261.333004,17.1757812 260.664065,17.026857 260.097656,16.7290039 Z M272.944336,13.550293 L267.648926,13.550293 C267.668457,14.3852581 267.893064,15.0297829 268.322754,15.4838867 C268.752444,15.9379906 269.343258,16.1650391 270.095215,16.1650391 C270.939946,16.1650391 271.716305,15.8867215 272.424316,15.3300781 L272.424316,16.4580078 C271.765133,16.9365258 270.89356,17.1757812 269.80957,17.1757812 C268.749995,17.1757812 267.917483,16.8352085 267.312012,16.1540527 C266.70654,15.472897 266.403809,14.5146546 266.403809,13.2792969 C266.403809,12.1122989 266.734616,11.1613806 267.39624,10.4265137 C268.057865,9.69164672 268.87939,9.32421875 269.86084,9.32421875 C270.84229,9.32421875 271.60156,9.64159839 272.138672,10.2763672 C272.675784,10.911136 272.944336,11.7924748 272.944336,12.9204102 L272.944336,13.550293 Z M271.713867,12.5322266 C271.708984,11.8388637 271.54175,11.2993183 271.212158,10.9135742 C270.882567,10.5278301 270.424808,10.3349609 269.838867,10.3349609 C269.272458,10.3349609 268.791506,10.5375956 268.395996,10.9428711 C268.000486,11.3481466 267.756348,11.8779264 267.663574,12.5322266 L271.713867,12.5322266 Z M2.60742188,35.0302734 L2.60742188,39 L1.37695312,39 L1.37695312,28.4970703 L4.26269531,28.4970703 C5.3857478,28.4970703 6.25610043,28.7705051 6.8737793,29.3173828 C7.49145817,29.8642605 7.80029297,30.6357372 7.80029297,31.6318359 C7.80029297,32.6279347 7.45727882,33.4433562 6.77124023,34.078125 C6.08520165,34.7128938 5.15869724,35.0302734 3.99169922,35.0302734 L2.60742188,35.0302734 Z M2.60742188,29.6103516 L2.60742188,33.9169922 L3.89648438,33.9169922 C4.746098,33.9169922 5.39428488,33.7229023 5.84106445,33.3347168 C6.28784403,32.9465313 6.51123047,32.398441 6.51123047,31.6904297 C6.51123047,30.303704 5.69092617,29.6103516 4.05029297,29.6103516 L2.60742188,29.6103516 Z M13.527832,32.7158203 C13.31787,32.5546867 13.0151387,32.4741211 12.6196289,32.4741211 C12.106931,32.4741211 11.6784685,32.7158179 11.3342285,33.1992188 C10.9899885,33.6826196 10.8178711,34.3417927 10.8178711,35.1767578 L10.8178711,39 L9.61669922,39 L9.61669922,31.5 L10.8178711,31.5 L10.8178711,33.0454102 L10.847168,33.0454102 C11.0180673,32.5180638 11.2792951,32.1066909 11.6308594,31.8112793 C11.9824236,31.5158677 12.3754861,31.3681641 12.8100586,31.3681641 C13.1225602,31.3681641 13.3618156,31.4023434 13.527832,31.4707031 L13.527832,32.7158203 Z M15.4467773,29.5957031 C15.2319325,29.5957031 15.0488289,29.5224617 14.8974609,29.3759766 C14.746093,29.2294915 14.6704102,29.0439464 14.6704102,28.8193359 C14.6704102,28.5947254 14.746093,28.4079597 14.8974609,28.2590332 C15.0488289,28.1101067 15.2319325,28.0356445 15.4467773,28.0356445 C15.666505,28.0356445 15.8532707,28.1101067 16.0070801,28.2590332 C16.1608894,28.4079597 16.237793,28.5947254 16.237793,28.8193359 C16.237793,29.0341808 16.1608894,29.2172844 16.0070801,29.3686523 C15.8532707,29.5200203 15.666505,29.5957031 15.4467773,29.5957031 Z M16.0327148,39 L14.831543,39 L14.831543,31.5 L16.0327148,31.5 L16.0327148,39 Z M24.3603516,31.5 L21.3720703,39 L20.1928711,39 L17.3510742,31.5 L18.6694336,31.5 L20.5737305,36.9492188 C20.7153327,37.3496114 20.8032225,37.698729 20.8374023,37.996582 L20.8666992,37.996582 C20.9155276,37.6206036 20.9936518,37.2812515 21.1010742,36.9785156 L23.0932617,31.5 L24.3603516,31.5 Z M31.0180664,39 L29.8168945,39 L29.8168945,37.828125 L29.7875977,37.828125 C29.2651341,38.726567 28.4960988,39.1757812 27.4804688,39.1757812 C26.7333947,39.1757812 26.1486838,38.9780293 25.7263184,38.5825195 C25.303953,38.1870097 25.0927734,37.6621126 25.0927734,37.0078125 C25.0927734,35.6064383 25.9179605,34.7910168 27.5683594,34.5615234 L29.8168945,34.246582 C29.8168945,32.9721616 29.301763,32.3349609 28.2714844,32.3349609 C27.3681595,32.3349609 26.552738,32.642575 25.8251953,33.2578125 L25.8251953,32.0273438 C26.5625037,31.5585914 27.4121046,31.3242188 28.3740234,31.3242188 C30.1367276,31.3242188 31.0180664,32.2568266 31.0180664,34.1220703 L31.0180664,39 Z M29.8168945,35.2060547 L28.0078125,35.4550781 C27.4511691,35.5332035 27.0312514,35.6711416 26.7480469,35.8688965 C26.4648423,36.0666514 26.3232422,36.4169897 26.3232422,36.9199219 C26.3232422,37.2861346 26.4538561,37.5852039 26.7150879,37.8171387 C26.9763197,38.0490734 27.3242166,38.1650391 27.7587891,38.1650391 C28.3544952,38.1650391 28.8464336,37.9563009 29.2346191,37.5388184 C29.6228047,37.1213358 29.8168945,36.5927766 29.8168945,35.953125 L29.8168945,35.2060547 Z M36.7602539,38.9267578 C36.4770494,39.0830086 36.1035179,39.1611328 35.6396484,39.1611328 C34.3261653,39.1611328 33.6694336,38.4287183 33.6694336,36.9638672 L33.6694336,32.5253906 L32.3803711,32.5253906 L32.3803711,31.5 L33.6694336,31.5 L33.6694336,29.6689453 L34.8706055,29.2807617 L34.8706055,31.5 L36.7602539,31.5 L36.7602539,32.5253906 L34.8706055,32.5253906 L34.8706055,36.7514648 C34.8706055,37.254397 34.9560538,37.6132802 35.1269531,37.828125 C35.2978524,38.0429698 35.5810527,38.1503906 35.9765625,38.1503906 C36.2792984,38.1503906 36.5405262,38.0673836 36.7602539,37.9013672 L36.7602539,38.9267578 Z M44.3920898,35.550293 L39.0966797,35.550293 C39.116211,36.3852581 39.3408182,37.0297829 39.7705078,37.4838867 C40.2001975,37.9379906 40.7910119,38.1650391 41.5429687,38.1650391 C42.3876995,38.1650391 43.164059,37.8867215 43.8720703,37.3300781 L43.8720703,38.4580078 C43.2128873,38.9365258 42.341314,39.1757812 41.2573242,39.1757812 C40.1977486,39.1757812 39.3652374,38.8352085 38.7597656,38.1540527 C38.1542938,37.472897 37.8515625,36.5146546 37.8515625,35.2792969 C37.8515625,34.1122989 38.1823697,33.1613806 38.8439941,32.4265137 C39.5056185,31.6916467 40.3271435,31.3242188 41.3085937,31.3242188 C42.290044,31.3242188 43.0493137,31.6415984 43.5864258,32.2763672 C44.1235378,32.911136 44.3920898,33.7924748 44.3920898,34.9204102 L44.3920898,35.550293 Z M43.1616211,34.5322266 C43.1567383,33.8388637 42.9895036,33.2993183 42.6599121,32.9135742 C42.3303206,32.5278301 41.8725615,32.3349609 41.2866211,32.3349609 C40.720212,32.3349609 40.2392598,32.5375956 39.84375,32.9428711 C39.4482402,33.3481466 39.204102,33.8779264 39.1113281,34.5322266 L43.1616211,34.5322266 Z M50.4785156,39 L50.4785156,28.4970703 L53.4667969,28.4970703 C54.3750045,28.4970703 55.0952122,28.7192361 55.6274414,29.1635742 C56.1596706,29.6079124 56.4257812,30.1865199 56.4257812,30.8994141 C56.4257812,31.4951202 56.26465,32.0126931 55.9423828,32.4521484 C55.6201156,32.8916038 55.1757841,33.2041006 54.609375,33.3896484 L54.609375,33.4189453 C55.3173864,33.5019535 55.8837869,33.7692849 56.3085938,34.2209473 C56.7334006,34.6726097 56.9458008,35.259762 56.9458008,35.9824219 C56.9458008,36.8808639 56.6235384,37.6083957 55.9790039,38.1650391 C55.3344694,38.7216825 54.5214893,39 53.5400391,39 L50.4785156,39 Z M51.7089844,29.6103516 L51.7089844,33.0014648 L52.96875,33.0014648 C53.6425815,33.0014648 54.1723614,32.839113 54.5581055,32.5144043 C54.9438496,32.1896956 55.1367187,31.7319365 55.1367187,31.1411133 C55.1367187,30.1206004 54.4653387,29.6103516 53.1225586,29.6103516 L51.7089844,29.6103516 Z M51.7089844,34.1074219 L51.7089844,37.8867188 L53.3789062,37.8867188 C54.1015661,37.8867188 54.6618632,37.715822 55.0598145,37.3740234 C55.4577657,37.0322249 55.6567383,36.5634795 55.6567383,35.9677734 C55.6567383,34.7275329 54.8120202,34.1074219 53.1225586,34.1074219 L51.7089844,34.1074219 Z M62.8271484,32.7158203 C62.6171865,32.5546867 62.3144551,32.4741211 61.9189453,32.4741211 C61.4062474,32.4741211 60.9777849,32.7158179 60.6335449,33.1992188 C60.2893049,33.6826196 60.1171875,34.3417927 60.1171875,35.1767578 L60.1171875,39 L58.9160156,39 L58.9160156,31.5 L60.1171875,31.5 L60.1171875,33.0454102 L60.1464844,33.0454102 C60.3173837,32.5180638 60.5786115,32.1066909 60.9301758,31.8112793 C61.28174,31.5158677 61.6748025,31.3681641 62.109375,31.3681641 C62.4218766,31.3681641 62.661132,31.4023434 62.8271484,31.4707031 L62.8271484,32.7158203 Z M67.265625,39.1757812 C66.157221,39.1757812 65.2722201,38.825443 64.6105957,38.1247559 C63.9489713,37.4240688 63.6181641,36.495123 63.6181641,35.3378906 C63.6181641,34.0781187 63.9623989,33.0942418 64.6508789,32.3862305 C65.3393589,31.6782191 66.2695254,31.3242188 67.4414062,31.3242188 C68.5595759,31.3242188 69.4323699,31.6684536 70.0598145,32.3569336 C70.687259,33.0454136 71.0009766,33.9999939 71.0009766,35.2207031 C71.0009766,36.4169982 70.6628452,37.3752405 69.9865723,38.095459 C69.3102994,38.8156774 68.403326,39.1757812 67.265625,39.1757812 Z M67.3535156,32.3349609 C66.5820274,32.3349609 65.9716819,32.5974095 65.5224609,33.1223145 C65.0732399,33.6472194 64.8486328,34.3710891 64.8486328,35.2939453 C64.8486328,36.1826216 65.0756813,36.8832982 65.5297852,37.3959961 C65.983889,37.908694 66.5917931,38.1650391 67.3535156,38.1650391 C68.1298867,38.1650391 68.7268046,37.9135767 69.1442871,37.4106445 C69.5617697,36.9077123 69.7705078,36.1923875 69.7705078,35.2646484 C69.7705078,34.3271437 69.5617697,33.6044947 69.1442871,33.0966797 C68.7268046,32.5888646 68.1298867,32.3349609 67.3535156,32.3349609 Z M82.3681641,31.5 L80.1196289,39 L78.8745117,39 L77.3291016,33.6313477 C77.2705075,33.4262685 77.2314454,33.1943372 77.2119141,32.9355469 L77.1826172,32.9355469 C77.1679687,33.111329 77.1166997,33.3383775 77.0288086,33.6166992 L75.3515625,39 L74.1503906,39 L71.8798828,31.5 L73.1396484,31.5 L74.6923828,37.1396484 C74.7412112,37.3105477 74.7753905,37.5351549 74.7949219,37.8134766 L74.8535156,37.8134766 C74.8681641,37.5986317 74.912109,37.3691418 74.9853516,37.125 L76.7138672,31.5 L77.8125,31.5 L79.3652344,37.1542969 C79.4140627,37.3349618 79.4506835,37.559569 79.4750977,37.828125 L79.5336914,37.828125 C79.5434571,37.6376944 79.5849606,37.4130872 79.6582031,37.1542969 L81.1816406,31.5 L82.3681641,31.5 Z M83.3056641,38.7290039 L83.3056641,37.4399414 C83.9599642,37.9233423 84.6801719,38.1650391 85.4663086,38.1650391 C86.5210014,38.1650391 87.0483398,37.8134801 87.0483398,37.1103516 C87.0483398,36.9101552 87.0031743,36.7404792 86.9128418,36.6013184 C86.8225093,36.4621575 86.7004402,36.3388677 86.5466309,36.2314453 C86.3928215,36.1240229 86.2121592,36.0275883 86.0046387,35.9421387 C85.7971181,35.856689 85.5737317,35.7675786 85.3344727,35.6748047 C85.0024397,35.5429681 84.7106946,35.4099128 84.4592285,35.2756348 C84.2077624,35.1413568 83.9978036,34.9899911 83.8293457,34.8215332 C83.6608878,34.6530753 83.533936,34.4614269 83.4484863,34.246582 C83.3630367,34.0317372 83.3203125,33.7802749 83.3203125,33.4921875 C83.3203125,33.1406232 83.4008781,32.8293471 83.5620117,32.5583496 C83.7231453,32.2873522 83.9379869,32.0603036 84.206543,31.8771973 C84.475099,31.6940909 84.7814924,31.5561528 85.1257324,31.4633789 C85.4699724,31.370605 85.8251935,31.3242188 86.1914062,31.3242188 C86.8408236,31.3242188 87.4218724,31.4365223 87.9345703,31.6611328 L87.9345703,32.8769531 C87.3828097,32.5156232 86.7480505,32.3349609 86.0302734,32.3349609 C85.8056629,32.3349609 85.6030282,32.3605954 85.4223633,32.4118652 C85.2416983,32.463135 85.0866706,32.5351558 84.9572754,32.6279297 C84.8278802,32.7207036 84.7277836,32.8317865 84.6569824,32.9611816 C84.5861813,33.0905768 84.5507812,33.2333977 84.5507812,33.3896484 C84.5507812,33.5849619 84.5861813,33.7485345 84.6569824,33.8803711 C84.7277836,34.0122077 84.8315423,34.129394 84.9682617,34.2319336 C85.1049812,34.3344732 85.2709951,34.4272457 85.4663086,34.5102539 C85.6616221,34.5932621 85.8837878,34.6835933 86.1328125,34.78125 C86.4648454,34.9082038 86.762694,35.0388177 87.0263672,35.1730957 C87.2900404,35.3073737 87.5146475,35.4587394 87.7001953,35.6271973 C87.8857431,35.7956551 88.028564,35.989745 88.1286621,36.2094727 C88.2287603,36.4292003 88.2788086,36.6904282 88.2788086,36.9931641 C88.2788086,37.3642597 88.1970223,37.6865221 88.0334473,37.9599609 C87.8698722,38.2333998 87.6513686,38.4604483 87.3779297,38.6411133 C87.1044908,38.8217782 86.7895526,38.9560542 86.4331055,39.0439453 C86.0766584,39.1318364 85.703127,39.1757812 85.3125,39.1757812 C84.5410118,39.1757812 83.8720731,39.026857 83.3056641,38.7290039 Z M90.7397461,29.5957031 C90.5249013,29.5957031 90.3417976,29.5224617 90.1904297,29.3759766 C90.0390617,29.2294915 89.9633789,29.0439464 89.9633789,28.8193359 C89.9633789,28.5947254 90.0390617,28.4079597 90.1904297,28.2590332 C90.3417976,28.1101067 90.5249013,28.0356445 90.7397461,28.0356445 C90.9594738,28.0356445 91.1462395,28.1101067 91.3000488,28.2590332 C91.4538582,28.4079597 91.5307617,28.5947254 91.5307617,28.8193359 C91.5307617,29.0341808 91.4538582,29.2172844 91.3000488,29.3686523 C91.1462395,29.5200203 90.9594738,29.5957031 90.7397461,29.5957031 Z M91.3256836,39 L90.1245117,39 L90.1245117,31.5 L91.3256836,31.5 L91.3256836,39 Z M99.9829102,39 L98.7817383,39 L98.7817383,34.7226562 C98.7817383,33.1308514 98.2006894,32.3349609 97.0385742,32.3349609 C96.4379853,32.3349609 95.9411641,32.5607888 95.5480957,33.0124512 C95.1550273,33.4641136 94.9584961,34.0341762 94.9584961,34.7226562 L94.9584961,39 L93.7573242,39 L93.7573242,31.5 L94.9584961,31.5 L94.9584961,32.7451172 L94.987793,32.7451172 C95.5542021,31.7978468 96.3745063,31.3242188 97.4487305,31.3242188 C98.2690471,31.3242188 98.8964822,31.5891087 99.3310547,32.1188965 C99.7656272,32.6486843 99.9829102,33.4140575 99.9829102,34.4150391 L99.9829102,39 Z M108.647461,38.3994141 C108.647461,41.1533341 107.329115,42.5302734 104.692383,42.5302734 C103.764644,42.5302734 102.954105,42.3544939 102.260742,42.0029297 L102.260742,40.8017578 C103.105473,41.2705102 103.911129,41.5048828 104.677734,41.5048828 C106.523447,41.5048828 107.446289,40.5234473 107.446289,38.5605469 L107.446289,37.7402344 L107.416992,37.7402344 C106.8457,38.6972704 105.986334,39.1757812 104.838867,39.1757812 C103.906245,39.1757812 103.15552,38.8425326 102.58667,38.1760254 C102.017819,37.5095182 101.733398,36.6147517 101.733398,35.4916992 C101.733398,34.2172788 102.039792,33.2041053 102.652588,32.4521484 C103.265384,31.7001916 104.103999,31.3242188 105.168457,31.3242188 C106.179204,31.3242188 106.928708,31.7294881 107.416992,32.5400391 L107.446289,32.5400391 L107.446289,31.5 L108.647461,31.5 L108.647461,38.3994141 Z M107.446289,35.6088867 L107.446289,34.5029297 C107.446289,33.9072236 107.244875,33.3969748 106.842041,32.972168 C106.439207,32.5473612 105.937503,32.3349609 105.336914,32.3349609 C104.594723,32.3349609 104.013674,32.6047336 103.59375,33.1442871 C103.173826,33.6838406 102.963867,34.4394483 102.963867,35.4111328 C102.963867,36.2460979 103.165281,36.9138159 103.568115,37.4143066 C103.970949,37.9147974 104.504391,38.1650391 105.168457,38.1650391 C105.842289,38.1650391 106.390379,37.9257836 106.812744,37.4472656 C107.23511,36.9687476 107.446289,36.3559608 107.446289,35.6088867 Z M124.63623,31.5 L122.387695,39 L121.142578,39 L119.597168,33.6313477 C119.538574,33.4262685 119.499512,33.1943372 119.47998,32.9355469 L119.450684,32.9355469 C119.436035,33.111329 119.384766,33.3383775 119.296875,33.6166992 L117.619629,39 L116.418457,39 L114.147949,31.5 L115.407715,31.5 L116.960449,37.1396484 C117.009278,37.3105477 117.043457,37.5351549 117.062988,37.8134766 L117.121582,37.8134766 C117.136231,37.5986317 117.180175,37.3691418 117.253418,37.125 L118.981934,31.5 L120.080566,31.5 L121.633301,37.1542969 C121.682129,37.3349618 121.71875,37.559569 121.743164,37.828125 L121.801758,37.828125 C121.811523,37.6376944 121.853027,37.4130872 121.92627,37.1542969 L123.449707,31.5 L124.63623,31.5 Z M126.643066,29.5957031 C126.428222,29.5957031 126.245118,29.5224617 126.09375,29.3759766 C125.942382,29.2294915 125.866699,29.0439464 125.866699,28.8193359 C125.866699,28.5947254 125.942382,28.4079597 126.09375,28.2590332 C126.245118,28.1101067 126.428222,28.0356445 126.643066,28.0356445 C126.862794,28.0356445 127.04956,28.1101067 127.203369,28.2590332 C127.357179,28.4079597 127.434082,28.5947254 127.434082,28.8193359 C127.434082,29.0341808 127.357179,29.2172844 127.203369,29.3686523 C127.04956,29.5200203 126.862794,29.5957031 126.643066,29.5957031 Z M127.229004,39 L126.027832,39 L126.027832,31.5 L127.229004,31.5 L127.229004,39 Z M133.139648,38.9267578 C132.856444,39.0830086 132.482912,39.1611328 132.019043,39.1611328 C130.70556,39.1611328 130.048828,38.4287183 130.048828,36.9638672 L130.048828,32.5253906 L128.759766,32.5253906 L128.759766,31.5 L130.048828,31.5 L130.048828,29.6689453 L131.25,29.2807617 L131.25,31.5 L133.139648,31.5 L133.139648,32.5253906 L131.25,32.5253906 L131.25,36.7514648 C131.25,37.254397 131.335448,37.6132802 131.506348,37.828125 C131.677247,38.0429698 131.960447,38.1503906 132.355957,38.1503906 C132.658693,38.1503906 132.919921,38.0673836 133.139648,37.9013672 L133.139648,38.9267578 Z M140.969238,39 L139.768066,39 L139.768066,34.6787109 C139.768066,33.1162031 139.187018,32.3349609 138.024902,32.3349609 C137.438962,32.3349609 136.945803,32.5607888 136.54541,33.0124512 C136.145018,33.4641136 135.944824,34.0439418 135.944824,34.7519531 L135.944824,39 L134.743652,39 L134.743652,27.8964844 L135.944824,27.8964844 L135.944824,32.7451172 L135.974121,32.7451172 C136.550296,31.7978468 137.3706,31.3242188 138.435059,31.3242188 C140.12452,31.3242188 140.969238,32.342275 140.969238,34.378418 L140.969238,39 Z M153.713379,29.6103516 L150.681152,29.6103516 L150.681152,39 L149.450684,39 L149.450684,29.6103516 L146.425781,29.6103516 L146.425781,28.4970703 L153.713379,28.4970703 L153.713379,29.6103516 Z M159.111328,32.7158203 C158.901366,32.5546867 158.598635,32.4741211 158.203125,32.4741211 C157.690427,32.4741211 157.261965,32.7158179 156.917725,33.1992188 C156.573485,33.6826196 156.401367,34.3417927 156.401367,35.1767578 L156.401367,39 L155.200195,39 L155.200195,31.5 L156.401367,31.5 L156.401367,33.0454102 L156.430664,33.0454102 C156.601563,32.5180638 156.862791,32.1066909 157.214355,31.8112793 C157.56592,31.5158677 157.958982,31.3681641 158.393555,31.3681641 C158.706056,31.3681641 158.945312,31.4023434 159.111328,31.4707031 L159.111328,32.7158203 Z M165.783691,39 L164.58252,39 L164.58252,37.828125 L164.553223,37.828125 C164.030759,38.726567 163.261724,39.1757812 162.246094,39.1757812 C161.49902,39.1757812 160.914309,38.9780293 160.491943,38.5825195 C160.069578,38.1870097 159.858398,37.6621126 159.858398,37.0078125 C159.858398,35.6064383 160.683585,34.7910168 162.333984,34.5615234 L164.58252,34.246582 C164.58252,32.9721616 164.067388,32.3349609 163.037109,32.3349609 C162.133785,32.3349609 161.318363,32.642575 160.59082,33.2578125 L160.59082,32.0273438 C161.328129,31.5585914 162.17773,31.3242188 163.139648,31.3242188 C164.902353,31.3242188 165.783691,32.2568266 165.783691,34.1220703 L165.783691,39 Z M164.58252,35.2060547 L162.773438,35.4550781 C162.216794,35.5332035 161.796876,35.6711416 161.513672,35.8688965 C161.230467,36.0666514 161.088867,36.4169897 161.088867,36.9199219 C161.088867,37.2861346 161.219481,37.5852039 161.480713,37.8171387 C161.741945,38.0490734 162.089842,38.1650391 162.524414,38.1650391 C163.12012,38.1650391 163.612059,37.9563009 164.000244,37.5388184 C164.38843,37.1213358 164.58252,36.5927766 164.58252,35.953125 L164.58252,35.2060547 Z M173.15918,38.6557617 C172.583005,39.0024431 171.899418,39.1757812 171.108398,39.1757812 C170.039057,39.1757812 169.176029,38.8278843 168.519287,38.1320801 C167.862546,37.4362758 167.53418,36.5341852 167.53418,35.4257812 C167.53418,34.1904235 167.88818,33.1980018 168.596191,32.4484863 C169.304203,31.6989709 170.249018,31.3242188 171.430664,31.3242188 C172.089847,31.3242188 172.670896,31.4462878 173.173828,31.6904297 L173.173828,32.9208984 C172.617185,32.5302715 172.021488,32.3349609 171.386719,32.3349609 C170.620113,32.3349609 169.991458,32.6096164 169.500732,33.1589355 C169.010007,33.7082547 168.764648,34.429683 168.764648,35.3232422 C168.764648,36.2021528 168.995359,36.8955053 169.456787,37.4033203 C169.918215,37.9111354 170.537105,38.1650391 171.313477,38.1650391 C171.967777,38.1650391 172.583005,37.9477561 173.15918,37.5131836 L173.15918,38.6557617 Z M181.201172,39 L179.516602,39 L176.206055,35.3964844 L176.176758,35.3964844 L176.176758,39 L174.975586,39 L174.975586,27.8964844 L176.176758,27.8964844 L176.176758,34.9350586 L176.206055,34.9350586 L179.355469,31.5 L180.930176,31.5 L177.451172,35.1181641 L181.201172,39 Z M183.046875,29.5957031 C182.83203,29.5957031 182.648927,29.5224617 182.497559,29.3759766 C182.346191,29.2294915 182.270508,29.0439464 182.270508,28.8193359 C182.270508,28.5947254 182.346191,28.4079597 182.497559,28.2590332 C182.648927,28.1101067 182.83203,28.0356445 183.046875,28.0356445 C183.266603,28.0356445 183.453368,28.1101067 183.607178,28.2590332 C183.760987,28.4079597 183.837891,28.5947254 183.837891,28.8193359 C183.837891,29.0341808 183.760987,29.2172844 183.607178,29.3686523 C183.453368,29.5200203 183.266603,29.5957031 183.046875,29.5957031 Z M183.632812,39 L182.431641,39 L182.431641,31.5 L183.632812,31.5 L183.632812,39 Z M192.290039,39 L191.088867,39 L191.088867,34.7226562 C191.088867,33.1308514 190.507818,32.3349609 189.345703,32.3349609 C188.745114,32.3349609 188.248293,32.5607888 187.855225,33.0124512 C187.462156,33.4641136 187.265625,34.0341762 187.265625,34.7226562 L187.265625,39 L186.064453,39 L186.064453,31.5 L187.265625,31.5 L187.265625,32.7451172 L187.294922,32.7451172 C187.861331,31.7978468 188.681635,31.3242188 189.755859,31.3242188 C190.576176,31.3242188 191.203611,31.5891087 191.638184,32.1188965 C192.072756,32.6486843 192.290039,33.4140575 192.290039,34.4150391 L192.290039,39 Z M200.95459,38.3994141 C200.95459,41.1533341 199.636244,42.5302734 196.999512,42.5302734 C196.071773,42.5302734 195.261234,42.3544939 194.567871,42.0029297 L194.567871,40.8017578 C195.412602,41.2705102 196.218258,41.5048828 196.984863,41.5048828 C198.830576,41.5048828 199.753418,40.5234473 199.753418,38.5605469 L199.753418,37.7402344 L199.724121,37.7402344 C199.152829,38.6972704 198.293463,39.1757812 197.145996,39.1757812 C196.213374,39.1757812 195.462649,38.8425326 194.893799,38.1760254 C194.324948,37.5095182 194.040527,36.6147517 194.040527,35.4916992 C194.040527,34.2172788 194.346921,33.2041053 194.959717,32.4521484 C195.572513,31.7001916 196.411127,31.3242188 197.475586,31.3242188 C198.486333,31.3242188 199.235837,31.7294881 199.724121,32.5400391 L199.753418,32.5400391 L199.753418,31.5 L200.95459,31.5 L200.95459,38.3994141 Z M199.753418,35.6088867 L199.753418,34.5029297 C199.753418,33.9072236 199.552004,33.3969748 199.14917,32.972168 C198.746336,32.5473612 198.244632,32.3349609 197.644043,32.3349609 C196.901852,32.3349609 196.320803,32.6047336 195.900879,33.1442871 C195.480955,33.6838406 195.270996,34.4394483 195.270996,35.4111328 C195.270996,36.2460979 195.47241,36.9138159 195.875244,37.4143066 C196.278078,37.9147974 196.81152,38.1650391 197.475586,38.1650391 C198.149417,38.1650391 198.697508,37.9257836 199.119873,37.4472656 C199.542238,36.9687476 199.753418,36.3559608 199.753418,35.6088867 Z M208.886719,35.0302734 L208.886719,39 L207.65625,39 L207.65625,28.4970703 L210.541992,28.4970703 C211.665045,28.4970703 212.535397,28.7705051 213.153076,29.3173828 C213.770755,29.8642605 214.07959,30.6357372 214.07959,31.6318359 C214.07959,32.6279347 213.736576,33.4433562 213.050537,34.078125 C212.364499,34.7128938 211.437994,35.0302734 210.270996,35.0302734 L208.886719,35.0302734 Z M208.886719,29.6103516 L208.886719,33.9169922 L210.175781,33.9169922 C211.025395,33.9169922 211.673582,33.7229023 212.120361,33.3347168 C212.567141,32.9465313 212.790527,32.398441 212.790527,31.6904297 C212.790527,30.303704 211.970223,29.6103516 210.32959,29.6103516 L208.886719,29.6103516 Z M219.807129,32.7158203 C219.597167,32.5546867 219.294436,32.4741211 218.898926,32.4741211 C218.386228,32.4741211 217.957765,32.7158179 217.613525,33.1992188 C217.269285,33.6826196 217.097168,34.3417927 217.097168,35.1767578 L217.097168,39 L215.895996,39 L215.895996,31.5 L217.097168,31.5 L217.097168,33.0454102 L217.126465,33.0454102 C217.297364,32.5180638 217.558592,32.1066909 217.910156,31.8112793 C218.261721,31.5158677 218.654783,31.3681641 219.089355,31.3681641 C219.401857,31.3681641 219.641112,31.4023434 219.807129,31.4707031 L219.807129,32.7158203 Z M224.245605,39.1757812 C223.137201,39.1757812 222.252201,38.825443 221.590576,38.1247559 C220.928952,37.4240688 220.598145,36.495123 220.598145,35.3378906 C220.598145,34.0781187 220.942379,33.0942418 221.630859,32.3862305 C222.319339,31.6782191 223.249506,31.3242188 224.421387,31.3242188 C225.539556,31.3242188 226.41235,31.6684536 227.039795,32.3569336 C227.667239,33.0454136 227.980957,33.9999939 227.980957,35.2207031 C227.980957,36.4169982 227.642826,37.3752405 226.966553,38.095459 C226.29028,38.8156774 225.383306,39.1757812 224.245605,39.1757812 Z M224.333496,32.3349609 C223.562008,32.3349609 222.951662,32.5974095 222.502441,33.1223145 C222.05322,33.6472194 221.828613,34.3710891 221.828613,35.2939453 C221.828613,36.1826216 222.055662,36.8832982 222.509766,37.3959961 C222.963869,37.908694 223.571774,38.1650391 224.333496,38.1650391 C225.109867,38.1650391 225.706785,37.9135767 226.124268,37.4106445 C226.54175,36.9077123 226.750488,36.1923875 226.750488,35.2646484 C226.750488,34.3271437 226.54175,33.6044947 226.124268,33.0966797 C225.706785,32.5888646 225.109867,32.3349609 224.333496,32.3349609 Z M233.378906,38.9267578 C233.095702,39.0830086 232.72217,39.1611328 232.258301,39.1611328 C230.944818,39.1611328 230.288086,38.4287183 230.288086,36.9638672 L230.288086,32.5253906 L228.999023,32.5253906 L228.999023,31.5 L230.288086,31.5 L230.288086,29.6689453 L231.489258,29.2807617 L231.489258,31.5 L233.378906,31.5 L233.378906,32.5253906 L231.489258,32.5253906 L231.489258,36.7514648 C231.489258,37.254397 231.574706,37.6132802 231.745605,37.828125 C231.916505,38.0429698 232.199705,38.1503906 232.595215,38.1503906 C232.897951,38.1503906 233.159179,38.0673836 233.378906,37.9013672 L233.378906,38.9267578 Z M241.010742,35.550293 L235.715332,35.550293 C235.734863,36.3852581 235.959471,37.0297829 236.38916,37.4838867 C236.81885,37.9379906 237.409664,38.1650391 238.161621,38.1650391 C239.006352,38.1650391 239.782711,37.8867215 240.490723,37.3300781 L240.490723,38.4580078 C239.83154,38.9365258 238.959966,39.1757812 237.875977,39.1757812 C236.816401,39.1757812 235.98389,38.8352085 235.378418,38.1540527 C234.772946,37.472897 234.470215,36.5146546 234.470215,35.2792969 C234.470215,34.1122989 234.801022,33.1613806 235.462646,32.4265137 C236.124271,31.6916467 236.945796,31.3242188 237.927246,31.3242188 C238.908696,31.3242188 239.667966,31.6415984 240.205078,32.2763672 C240.74219,32.911136 241.010742,33.7924748 241.010742,34.9204102 L241.010742,35.550293 Z M239.780273,34.5322266 C239.775391,33.8388637 239.608156,33.2993183 239.278564,32.9135742 C238.948973,32.5278301 238.491214,32.3349609 237.905273,32.3349609 C237.338864,32.3349609 236.857912,32.5375956 236.462402,32.9428711 C236.066893,33.3481466 235.822754,33.8779264 235.72998,34.5322266 L239.780273,34.5322266 Z M247.939453,38.6557617 C247.363278,39.0024431 246.679691,39.1757812 245.888672,39.1757812 C244.819331,39.1757812 243.956302,38.8278843 243.299561,38.1320801 C242.642819,37.4362758 242.314453,36.5341852 242.314453,35.4257812 C242.314453,34.1904235 242.668453,33.1980018 243.376465,32.4484863 C244.084476,31.6989709 245.029291,31.3242188 246.210938,31.3242188 C246.87012,31.3242188 247.451169,31.4462878 247.954102,31.6904297 L247.954102,32.9208984 C247.397458,32.5302715 246.801761,32.3349609 246.166992,32.3349609 C245.400387,32.3349609 244.771731,32.6096164 244.281006,33.1589355 C243.790281,33.7082547 243.544922,34.429683 243.544922,35.3232422 C243.544922,36.2021528 243.775632,36.8955053 244.237061,37.4033203 C244.698489,37.9111354 245.317379,38.1650391 246.09375,38.1650391 C246.74805,38.1650391 247.363278,37.9477561 247.939453,37.5131836 L247.939453,38.6557617 Z M253.234863,38.9267578 C252.951659,39.0830086 252.578127,39.1611328 252.114258,39.1611328 C250.800775,39.1611328 250.144043,38.4287183 250.144043,36.9638672 L250.144043,32.5253906 L248.85498,32.5253906 L248.85498,31.5 L250.144043,31.5 L250.144043,29.6689453 L251.345215,29.2807617 L251.345215,31.5 L253.234863,31.5 L253.234863,32.5253906 L251.345215,32.5253906 L251.345215,36.7514648 C251.345215,37.254397 251.430663,37.6132802 251.601562,37.828125 C251.772462,38.0429698 252.055662,38.1503906 252.451172,38.1503906 C252.753908,38.1503906 253.015136,38.0673836 253.234863,37.9013672 L253.234863,38.9267578 Z M255.454102,29.5957031 C255.239257,29.5957031 255.056153,29.5224617 254.904785,29.3759766 C254.753417,29.2294915 254.677734,29.0439464 254.677734,28.8193359 C254.677734,28.5947254 254.753417,28.4079597 254.904785,28.2590332 C255.056153,28.1101067 255.239257,28.0356445 255.454102,28.0356445 C255.673829,28.0356445 255.860595,28.1101067 256.014404,28.2590332 C256.168214,28.4079597 256.245117,28.5947254 256.245117,28.8193359 C256.245117,29.0341808 256.168214,29.2172844 256.014404,29.3686523 C255.860595,29.5200203 255.673829,29.5957031 255.454102,29.5957031 Z M256.040039,39 L254.838867,39 L254.838867,31.5 L256.040039,31.5 L256.040039,39 Z M261.606445,39.1757812 C260.498041,39.1757812 259.61304,38.825443 258.951416,38.1247559 C258.289792,37.4240688 257.958984,36.495123 257.958984,35.3378906 C257.958984,34.0781187 258.303219,33.0942418 258.991699,32.3862305 C259.680179,31.6782191 260.610346,31.3242188 261.782227,31.3242188 C262.900396,31.3242188 263.77319,31.6684536 264.400635,32.3569336 C265.028079,33.0454136 265.341797,33.9999939 265.341797,35.2207031 C265.341797,36.4169982 265.003665,37.3752405 264.327393,38.095459 C263.65112,38.8156774 262.744146,39.1757812 261.606445,39.1757812 Z M261.694336,32.3349609 C260.922848,32.3349609 260.312502,32.5974095 259.863281,33.1223145 C259.41406,33.6472194 259.189453,34.3710891 259.189453,35.2939453 C259.189453,36.1826216 259.416502,36.8832982 259.870605,37.3959961 C260.324709,37.908694 260.932613,38.1650391 261.694336,38.1650391 C262.470707,38.1650391 263.067625,37.9135767 263.485107,37.4106445 C263.90259,36.9077123 264.111328,36.1923875 264.111328,35.2646484 C264.111328,34.3271437 263.90259,33.6044947 263.485107,33.0966797 C263.067625,32.5888646 262.470707,32.3349609 261.694336,32.3349609 Z M273.486328,39 L272.285156,39 L272.285156,34.7226562 C272.285156,33.1308514 271.704107,32.3349609 270.541992,32.3349609 C269.941403,32.3349609 269.444582,32.5607888 269.051514,33.0124512 C268.658445,33.4641136 268.461914,34.0341762 268.461914,34.7226562 L268.461914,39 L267.260742,39 L267.260742,31.5 L268.461914,31.5 L268.461914,32.7451172 L268.491211,32.7451172 C269.05762,31.7978468 269.877924,31.3242188 270.952148,31.3242188 C271.772465,31.3242188 272.3999,31.5891087 272.834473,32.1188965 C273.269045,32.6486843 273.486328,33.4140575 273.486328,34.4150391 L273.486328,39 Z M276.166992,39.1611328 C275.942382,39.1611328 275.750733,39.0805672 275.592041,38.9194336 C275.433349,38.7583 275.354004,38.5654308 275.354004,38.3408203 C275.354004,38.1162098 275.433349,37.92212 275.592041,37.7585449 C275.750733,37.5949699 275.942382,37.5131836 276.166992,37.5131836 C276.396486,37.5131836 276.591796,37.5949699 276.75293,37.7585449 C276.914063,37.92212 276.994629,38.1162098 276.994629,38.3408203 C276.994629,38.5654308 276.914063,38.7583 276.75293,38.9194336 C276.591796,39.0805672 276.396486,39.1611328 276.166992,39.1611328 Z" id="Want-to-keep-somethi"></path>
            </g>
        </g>
    </g>
</svg>