<svg xmlns="http://www.w3.org/2000/svg" xmlns:xlink="http://www.w3.org/1999/xlink" width="360" height="240" style="background:#fff" viewBox="0 0 360 240">
  <defs>
    <rect id="capitalizayion-all-caps-a" width="360" height="49"/>
    <filter id="capitalizayion-all-caps-b" width="100.1%" height="101%" x="-.1%" y="-.5%" filterUnits="objectBoundingBox">
      <feOffset dy="-.5" in="SourceAlpha" result="shadowOffsetInner1"/>
      <feComposite in="shadowOffsetInner1" in2="SourceAlpha" k2="-1" k3="1" operator="arithmetic" result="shadowInnerInner1"/>
      <feColorMatrix in="shadowInnerInner1" values="0 0 0 0 0.780392157   0 0 0 0 0.780392157   0 0 0 0 0.780392157  0 0 0 1 0"/>
    </filter>
    <rect id="capitalizayion-all-caps-d" width="344" height="1" x="16" y="92"/>
    <filter id="capitalizayion-all-caps-c" width="100.3%" height="200%" x="-.1%" y="-50%" filterUnits="objectBoundingBox">
      <feOffset dy="1" in="SourceAlpha" result="shadowOffsetInner1"/>
      <feComposite in="shadowOffsetInner1" in2="SourceAlpha" k2="-1" k3="1" operator="arithmetic" result="shadowInnerInner1"/>
      <feColorMatrix in="shadowInnerInner1" values="0 0 0 0 0   0 0 0 0 0   0 0 0 0 0  0 0 0 0.25 0"/>
    </filter>
    <rect id="capitalizayion-all-caps-f" width="344" height="1" x="16" y="136"/>
    <filter id="capitalizayion-all-caps-e" width="100.3%" height="200%" x="-.1%" y="-50%" filterUnits="objectBoundingBox">
      <feOffset dy="1" in="SourceAlpha" result="shadowOffsetInner1"/>
      <feComposite in="shadowOffsetInner1" in2="SourceAlpha" k2="-1" k3="1" operator="arithmetic" result="shadowInnerInner1"/>
      <feColorMatrix in="shadowInnerInner1" values="0 0 0 0 0   0 0 0 0 0   0 0 0 0 0  0 0 0 0.25 0"/>
    </filter>
    <rect id="capitalizayion-all-caps-h" width="344" height="1" x="16" y="180"/>
    <filter id="capitalizayion-all-caps-g" width="100.3%" height="200%" x="-.1%" y="-50%" filterUnits="objectBoundingBox">
      <feOffset dy="1" in="SourceAlpha" result="shadowOffsetInner1"/>
      <feComposite in="shadowOffsetInner1" in2="SourceAlpha" k2="-1" k3="1" operator="arithmetic" result="shadowInnerInner1"/>
      <feColorMatrix in="shadowInnerInner1" values="0 0 0 0 0   0 0 0 0 0   0 0 0 0 0  0 0 0 0.25 0"/>
    </filter>
    <rect id="capitalizayion-all-caps-j" width="344" height="1" x="16" y="224"/>
    <filter id="capitalizayion-all-caps-i" width="100.3%" height="200%" x="-.1%" y="-50%" filterUnits="objectBoundingBox">
      <feOffset dy="1" in="SourceAlpha" result="shadowOffsetInner1"/>
      <feComposite in="shadowOffsetInner1" in2="SourceAlpha" k2="-1" k3="1" operator="arithmetic" result="shadowInnerInner1"/>
      <feColorMatrix in="shadowInnerInner1" values="0 0 0 0 0   0 0 0 0 0   0 0 0 0 0  0 0 0 0.25 0"/>
    </filter>
  </defs>
  <g fill="none" fill-rule="evenodd">
    <g transform="translate(0 49)">
      <rect width="360" height="44" fill="#FFF"/>
      <polygon fill="#000" fill-opacity=".25" points="100 16.5 101.5 15 108 21.5 101.5 28 100 26.5 105 21.5" transform="translate(236)"/>
      <path fill="#030303" d="M0.946289062,12.8706055 L2.45703125,12.8706055 C2.55110724,13.4959341 2.87483447,13.993976 3.42822266,14.3647461 C3.98161084,14.7355162 4.68440329,14.9208984 5.53662109,14.9208984 C6.34456784,14.9208984 7.01277405,14.725832 7.54125977,14.3356934 C8.06974548,13.9455547 8.33398438,13.45443 8.33398438,12.8623047 C8.33398438,12.3531876 8.14030142,11.9298519 7.75292969,11.5922852 C7.36555796,11.2547184 6.75960699,10.9835622 5.93505859,10.7788086 L4.39941406,10.3803711 C3.31477322,10.103677 2.52620689,9.70939384 2.03369141,9.19750977 C1.54117592,8.6856257 1.29492188,8.00358499 1.29492188,7.15136719 C1.29492188,6.13313293 1.68367124,5.30998035 2.46118164,4.68188477 C3.23869204,4.05378918 4.26106137,3.73974609 5.52832031,3.73974609 C6.68490162,3.73974609 7.65331641,4.04963883 8.43359375,4.66943359 C9.21387109,5.28922836 9.6344398,6.08332849 9.6953125,7.05175781 L8.19287109,7.05175781 C8.08772734,6.43749693 7.79581945,5.95743988 7.31713867,5.61157227 C6.83845789,5.26570465 6.22558967,5.09277344 5.47851562,5.09277344 C4.68163664,5.09277344 4.04109943,5.2753888 3.55688477,5.640625 C3.0726701,6.0058612 2.83056641,6.4928355 2.83056641,7.1015625 C2.83056641,7.57194246 3.00903142,7.95377458 3.3659668,8.24707031 C3.72290218,8.54036605 4.3136352,8.7921539 5.13818359,9.00244141 L6.39160156,9.33447266 C7.63119109,9.64437004 8.52074926,10.059405 9.06030273,10.5795898 C9.59985621,11.0997747 9.86962891,11.7998003 9.86962891,12.6796875 C9.86962891,13.78093 9.46704504,14.6566536 8.66186523,15.3068848 C7.85668543,15.9571159 6.76791051,16.2822266 5.39550781,16.2822266 C4.12824887,16.2822266 3.08927814,15.9723338 2.27856445,15.3525391 C1.46785076,14.7327443 1.02376341,13.9054414 0.946289062,12.8706055 Z M14.9381445,8.15576172 C14.2242738,8.15576172 13.6376911,8.39648197 13.1783789,8.87792969 C12.7190667,9.35937741 12.4617451,9.99576427 12.4064063,10.7871094 L17.3370703,10.7871094 C17.3204687,9.99576427 17.0935829,9.35937741 16.6564063,8.87792969 C16.2192296,8.39648197 15.6464814,8.15576172 14.9381445,8.15576172 Z M17.2955664,13.684082 L18.7233008,13.684082 C18.5074794,14.4532916 18.0703093,15.0578591 17.4117773,15.4978027 C16.7532454,15.9377463 15.9342432,16.1577148 14.9547461,16.1577148 C13.7151566,16.1577148 12.7329073,15.7412965 12.0079688,14.9084473 C11.2830302,14.075598 10.9205664,12.9508534 10.9205664,11.5341797 C10.9205664,10.1285737 11.2857971,9.00382909 12.0162695,8.15991211 C12.7467419,7.31599513 13.7262243,6.89404297 14.9547461,6.89404297 C16.1611323,6.89404297 17.1101788,7.29662683 17.8019141,8.10180664 C18.4936493,8.90698645 18.8395117,10.0040621 18.8395117,11.3930664 L18.8395117,11.940918 L12.4064063,11.940918 L12.4064063,12.0073242 C12.4451434,12.8927453 12.6955478,13.5955378 13.157627,14.1157227 C13.6197061,14.6359075 14.2298074,14.8959961 14.9879492,14.8959961 C15.5634729,14.8959961 16.0449134,14.7922374 16.4322852,14.5847168 C16.8196569,14.3771962 17.1074144,14.0769876 17.2955664,13.684082 Z M23.0364453,14.9042969 C23.7724516,14.9042969 24.3825529,14.6898622 24.8667676,14.2609863 C25.3509822,13.8321105 25.5930859,13.2994823 25.5930859,12.6630859 L25.5930859,11.8413086 L23.1858594,11.9990234 C21.8798633,12.0875655 21.226875,12.5745398 21.226875,13.4599609 C21.226875,13.9137392 21.3984228,14.2679024 21.7415234,14.5224609 C22.0846241,14.7770195 22.5162604,14.9042969 23.0364453,14.9042969 Z M22.7708203,16.1577148 C21.9020009,16.1577148 21.1812236,15.918378 20.6084668,15.4396973 C20.03571,14.9610165 19.7493359,14.3121786 19.7493359,13.4931641 C19.7493359,11.855135 20.8367274,10.9724941 23.011543,10.8452148 L25.5930859,10.6875 L25.5930859,9.87402344 C25.5930859,8.73404378 24.9179625,8.1640625 23.5676953,8.1640625 C23.0309088,8.1640625 22.585438,8.26090398 22.2312695,8.45458984 C21.8771011,8.64827571 21.6502153,8.92219875 21.5506055,9.27636719 L20.1062695,9.27636719 C20.2003455,8.55696255 20.5711101,7.98006402 21.2185742,7.5456543 C21.8660384,7.11124457 22.6656723,6.89404297 23.6175,6.89404297 C24.7076747,6.89404297 25.5474287,7.15828186 26.1367871,7.68676758 C26.7261455,8.21525329 27.0208203,8.94433129 27.0208203,9.87402344 L27.0208203,16 L25.6594922,16 L25.6594922,14.6801758 L25.5266797,14.6801758 C25.2389178,15.1560896 24.8570857,15.5213203 24.3811719,15.7758789 C23.905258,16.0304375 23.3684796,16.1577148 22.7708203,16.1577148 Z M28.860332,16 L28.860332,7.05175781 L30.2216602,7.05175781 L30.2216602,8.37988281 L30.3544727,8.37988281 C30.4872858,7.94270615 30.786111,7.58577612 31.250957,7.30908203 C31.7158031,7.03238794 32.2442809,6.89404297 32.8364063,6.89404297 C32.9526178,6.89404297 33.0785117,6.89819332 33.2140918,6.90649414 C33.3496719,6.91479496 33.4617313,6.92447911 33.5502734,6.93554688 L33.5502734,8.36328125 C33.4949346,8.3466796 33.3648904,8.32869476 33.1601367,8.30932617 C32.9553831,8.28995759 32.7810684,8.28027344 32.6371875,8.28027344 C31.95652,8.28027344 31.3948395,8.48502399 30.9521289,8.89453125 C30.5094184,9.30403851 30.2880664,9.8242156 30.2880664,10.4550781 L30.2880664,16 L28.860332,16 Z M41.6900781,9.79101562 L40.2457422,9.79101562 C40.1295307,9.34830508 39.8763594,8.96923986 39.4862207,8.65380859 C39.096082,8.33837733 38.5800553,8.18066406 37.938125,8.18066406 C37.1357121,8.18066406 36.4979418,8.4794892 36.0247949,9.07714844 C35.551648,9.67480768 35.3150781,10.4799754 35.3150781,11.4926758 C35.3150781,12.5275117 35.5530315,13.3492808 36.0289453,13.9580078 C36.5048592,14.5667348 37.141246,14.8710938 37.938125,14.8710938 C38.5413181,14.8710938 39.0435104,14.7355157 39.4447168,14.4643555 C39.8459232,14.1931953 40.112929,13.8058293 40.2457422,13.3022461 L41.6900781,13.3022461 C41.5627989,14.1212606 41.1754329,14.8019179 40.5279688,15.3442383 C39.8805046,15.8865587 39.0199989,16.1577148 37.9464258,16.1577148 C36.6957685,16.1577148 35.6983013,15.7357627 34.9539942,14.8918457 C34.209687,14.0479287 33.8375391,12.9148834 33.8375391,11.4926758 C33.8375391,10.0981376 34.2083036,8.98307709 34.9498438,8.14746094 C35.6913839,7.31184478 36.6874677,6.89404297 37.938125,6.89404297 C39.0282997,6.89404297 39.8957227,7.17765016 40.5404199,7.74487305 C41.1851172,8.31209594 41.5683327,8.99413664 41.6900781,9.79101562 Z M43.0813477,16 L43.0813477,3.49902344 L44.509082,3.49902344 L44.509082,8.46289062 L44.6418945,8.46289062 C44.8687837,7.97037514 45.2132627,7.58577612 45.6753418,7.30908203 C46.1374209,7.03238794 46.7115526,6.89404297 47.3977539,6.89404297 C48.3440477,6.89404297 49.0952609,7.18318396 49.651416,7.76147461 C50.2075712,8.33976526 50.4856445,9.15461714 50.4856445,10.2060547 L50.4856445,16 L49.0579102,16 L49.0579102,10.5546875 C49.0579102,9.7633424 48.8822121,9.16984247 48.5308106,8.77416992 C48.1794091,8.37849737 47.6661492,8.18066406 46.9910156,8.18066406 C46.1886028,8.18066406 45.5743511,8.41170016 45.1482422,8.8737793 C44.7221333,9.33585843 44.509082,9.94595975 44.509082,10.7041016 L44.509082,16 L43.0813477,16 Z" transform="translate(15 12)"/>
    </g>
    <g transform="translate(0 93)">
      <rect width="360" height="44" fill="#FFF"/>
      <polygon fill="#000" fill-opacity=".25" points="100 16.5 101.5 15 108 21.5 101.5 28 100 26.5 105 21.5" transform="translate(236)"/>
      <path fill="#030303" d="M2.99658203,16 L1.51904297,16 L1.51904297,4.02197266 L2.97167969,4.02197266 L9.47119141,13.34375 L9.60400391,13.34375 L9.60400391,4.02197266 L11.081543,4.02197266 L11.081543,16 L9.62890625,16 L3.12939453,6.71142578 L2.99658203,6.71142578 L2.99658203,16 Z M16.7228125,8.15576172 C16.0089417,8.15576172 15.4223591,8.39648197 14.9630469,8.87792969 C14.5037347,9.35937741 14.246413,9.99576427 14.1910742,10.7871094 L19.1217383,10.7871094 C19.1051366,9.99576427 18.8782509,9.35937741 18.4410742,8.87792969 C18.0038976,8.39648197 17.4311494,8.15576172 16.7228125,8.15576172 Z M19.0802344,13.684082 L20.5079688,13.684082 C20.2921474,14.4532916 19.8549773,15.0578591 19.1964453,15.4978027 C18.5379134,15.9377463 17.7189112,16.1577148 16.7394141,16.1577148 C15.4998245,16.1577148 14.5175752,15.7412965 13.7926367,14.9084473 C13.0676982,14.075598 12.7052344,12.9508534 12.7052344,11.5341797 C12.7052344,10.1285737 13.0704651,9.00382909 13.8009375,8.15991211 C14.5314099,7.31599513 15.5108923,6.89404297 16.7394141,6.89404297 C17.9458003,6.89404297 18.8948468,7.29662683 19.586582,8.10180664 C20.2783173,8.90698645 20.6241797,10.0040621 20.6241797,11.3930664 L20.6241797,11.940918 L14.1910742,11.940918 L14.1910742,12.0073242 C14.2298114,12.8927453 14.4802158,13.5955378 14.9422949,14.1157227 C15.4043741,14.6359075 16.0144754,14.8959961 16.7726172,14.8959961 C17.3481409,14.8959961 17.8295814,14.7922374 18.2169531,14.5847168 C18.6043249,14.3771962 18.8920824,14.0769876 19.0802344,13.684082 Z M33.3211133,7.05175781 L33.0679395,7.95654297 C32.8991561,8.55973609 32.6902552,9.30541548 32.4412305,10.1936035 L31.6941602,12.8581543 C31.4451355,13.7463423 31.2362346,14.4920217 31.0674512,15.0952148 L30.8142774,16 L29.3616406,16 L27.3611524,9.07714844 L27.2283399,9.07714844 L25.2361524,16 L23.7918164,16 L21.2849805,7.05175781 L22.7293164,7.05175781 L24.489082,14.2070312 L24.6218945,14.2070312 L26.6223828,7.05175781 L27.9920117,7.05175781 L29.9925,14.2070312 L30.1253125,14.2070312 L31.8850781,7.05175781 L33.3211133,7.05175781 Z M43.2174219,16 L41.7232813,16 L41.7232813,5.36669922 L37.863418,5.36669922 L37.863418,4.02197266 L47.0772852,4.02197266 L47.0772852,5.36669922 L43.2174219,5.36669922 L43.2174219,16 Z M49.9128906,14.9042969 C50.6488969,14.9042969 51.2589982,14.6898622 51.7432129,14.2609863 C52.2274276,13.8321105 52.4695313,13.2994823 52.4695313,12.6630859 L52.4695313,11.8413086 L50.0623047,11.9990234 C48.7563086,12.0875655 48.1033203,12.5745398 48.1033203,13.4599609 C48.1033203,13.9137392 48.2748681,14.2679024 48.6179688,14.5224609 C48.9610694,14.7770195 49.3927058,14.9042969 49.9128906,14.9042969 Z M49.6472656,16.1577148 C48.7784462,16.1577148 48.0576689,15.918378 47.4849121,15.4396973 C46.9121554,14.9610165 46.6257813,14.3121786 46.6257813,13.4931641 C46.6257813,11.855135 47.7131727,10.9724941 49.8879883,10.8452148 L52.4695313,10.6875 L52.4695313,9.87402344 C52.4695313,8.73404378 51.7944078,8.1640625 50.4441406,8.1640625 C49.9073541,8.1640625 49.4618833,8.26090398 49.1077149,8.45458984 C48.7535464,8.64827571 48.5266607,8.92219875 48.4270508,9.27636719 L46.9827149,9.27636719 C47.0767909,8.55696255 47.4475554,7.98006402 48.0950195,7.5456543 C48.7424837,7.11124457 49.5421177,6.89404297 50.4939453,6.89404297 C51.5841201,6.89404297 52.423874,7.15828186 53.0132324,7.68676758 C53.6025909,8.21525329 53.8972656,8.94433129 53.8972656,9.87402344 L53.8972656,16 L52.5359375,16 L52.5359375,14.6801758 L52.403125,14.6801758 C52.1153632,15.1560896 51.733531,15.5213203 51.2576172,15.7758789 C50.7817034,16.0304375 50.2449249,16.1577148 49.6472656,16.1577148 Z M60.1859961,16.1577148 C59.5662013,16.1577148 59.0031373,16.0179864 58.4967871,15.7385254 C57.9904369,15.4590644 57.5961538,15.070315 57.3139258,14.5722656 L57.1811133,14.5722656 L57.1811133,16 L55.8197852,16 L55.8197852,3.49902344 L57.2475196,3.49902344 L57.2475196,8.46289062 L57.3803321,8.46289062 C57.6238229,7.98144291 57.9987377,7.59961079 58.5050879,7.31738281 C59.0114381,7.03515484 59.5717352,6.89404297 60.1859961,6.89404297 C61.3259758,6.89404297 62.2362857,7.31461168 62.9169531,8.15576172 C63.5976206,8.99691176 63.9379492,10.1202729 63.9379492,11.5258789 C63.9379492,12.925951 63.5962372,14.0479287 62.9128028,14.8918457 C62.2293683,15.7357627 61.3204419,16.1577148 60.1859961,16.1577148 Z M59.8539649,8.18066406 C59.0404842,8.18066406 58.3971801,8.4794892 57.9240332,9.07714844 C57.4508863,9.67480768 57.2143164,10.491043 57.2143164,11.5258789 C57.2143164,12.5607148 57.4508863,13.3769501 57.9240332,13.9746094 C58.3971801,14.5722686 59.0404842,14.8710938 59.8539649,14.8710938 C60.6729794,14.8710938 61.3121331,14.5750355 61.7714453,13.9829102 C62.2307575,13.3907848 62.4604102,12.5717826 62.4604102,11.5258789 C62.4604102,10.4799752 62.2307575,9.66097301 61.7714453,9.06884766 C61.3121331,8.4767223 60.6729794,8.18066406 59.8539649,8.18066406 Z" transform="translate(15 12)"/>
    </g>
    <g transform="translate(0 137)">
      <rect width="360" height="44" fill="#FFF"/>
      <polygon fill="#000" fill-opacity=".25" points="100 16.5 101.5 15 108 21.5 101.5 28 100 26.5 105 21.5" transform="translate(236)"/>
      <path fill="#030303" d="M11.081543,16 L9.58740234,16 L9.58740234,10.5463867 L3.01318359,10.5463867 L3.01318359,16 L1.51904297,16 L1.51904297,4.02197266 L3.01318359,4.02197266 L3.01318359,9.20166016 L9.58740234,9.20166016 L9.58740234,4.02197266 L11.081543,4.02197266 L11.081543,16 Z M16.8307227,16.1577148 C15.5579298,16.1577148 14.5521619,15.7440634 13.8133887,14.916748 C13.0746155,14.0894327 12.7052344,12.9591543 12.7052344,11.5258789 C12.7052344,10.0870696 13.0746155,8.95540777 13.8133887,8.13085938 C14.5521619,7.30631098 15.5579298,6.89404297 16.8307227,6.89404297 C18.1035155,6.89404297 19.1092834,7.30631098 19.8480566,8.13085938 C20.5868299,8.95540777 20.9562109,10.0870696 20.9562109,11.5258789 C20.9562109,12.9591543 20.5868299,14.0894327 19.8480566,14.916748 C19.1092834,15.7440634 18.1035155,16.1577148 16.8307227,16.1577148 Z M16.8307227,14.8710938 C17.6774066,14.8710938 18.3303948,14.5778024 18.789707,13.9912109 C19.2490192,13.4046195 19.4786719,12.5828503 19.4786719,11.5258789 C19.4786719,10.4633736 19.2490192,9.64022102 18.789707,9.05639648 C18.3303948,8.47257195 17.6774066,8.18066406 16.8307227,8.18066406 C15.9840387,8.18066406 15.3310505,8.47257195 14.8717383,9.05639648 C14.4124261,9.64022102 14.1827734,10.4633736 14.1827734,11.5258789 C14.1827734,12.5828503 14.4124261,13.4046195 14.8717383,13.9912109 C15.3310505,14.5778024 15.9840387,14.8710938 16.8307227,14.8710938 Z M22.3972852,16 L22.3972852,7.05175781 L23.7586133,7.05175781 L23.7586133,8.46289062 L23.8914258,8.46289062 C24.0961794,7.96484126 24.4143728,7.57885879 24.8460156,7.30493164 C25.2776584,7.03100449 25.7923017,6.89404297 26.3899609,6.89404297 C26.9986879,6.89404297 27.5119478,7.03930519 27.9297559,7.32983398 C28.3475639,7.62036278 28.6588401,7.99804455 28.8635938,8.46289062 L28.9964063,8.46289062 C29.2398971,7.98697679 29.6023609,7.60652812 30.0838086,7.3215332 C30.5652563,7.03653829 31.1158693,6.89404297 31.7356641,6.89404297 C32.6487546,6.89404297 33.351547,7.14583082 33.8440625,7.64941406 C34.336578,8.15299731 34.582832,8.87515806 34.582832,9.81591797 L34.582832,16 L33.1550977,16 L33.1550977,10.1479492 C33.1550977,9.48941728 32.9987678,8.99690918 32.6861035,8.67041016 C32.3734392,8.34391113 31.9016828,8.18066406 31.2708203,8.18066406 C30.6510256,8.18066406 30.1502168,8.38264772 29.7683789,8.78662109 C29.3865411,9.19059447 29.195625,9.67756876 29.195625,10.2475586 L29.195625,16 L27.7678906,16 L27.7678906,9.92382812 C27.7678906,9.39257547 27.5977263,8.96923986 27.2573926,8.65380859 C26.9170589,8.33837733 26.4646708,8.18066406 25.9002149,8.18066406 C25.3136234,8.18066406 24.8211153,8.40201602 24.4226758,8.84472656 C24.0242363,9.28743711 23.8250195,9.8242156 23.8250195,10.4550781 L23.8250195,16 L22.3972852,16 Z M39.9584766,8.15576172 C39.2446058,8.15576172 38.6580231,8.39648197 38.1987109,8.87792969 C37.7393988,9.35937741 37.4820771,9.99576427 37.4267383,10.7871094 L42.3574024,10.7871094 C42.3408007,9.99576427 42.113915,9.35937741 41.6767383,8.87792969 C41.2395616,8.39648197 40.6668134,8.15576172 39.9584766,8.15576172 Z M42.3158984,13.684082 L43.7436328,13.684082 C43.5278114,14.4532916 43.0906413,15.0578591 42.4321094,15.4978027 C41.7735774,15.9377463 40.9545752,16.1577148 39.9750781,16.1577148 C38.7354886,16.1577148 37.7532393,15.7412965 37.0283008,14.9084473 C36.3033623,14.075598 35.9408984,12.9508534 35.9408984,11.5341797 C35.9408984,10.1285737 36.3061292,9.00382909 37.0366016,8.15991211 C37.767074,7.31599513 38.7465564,6.89404297 39.9750781,6.89404297 C41.1814644,6.89404297 42.1305109,7.29662683 42.8222461,8.10180664 C43.5139813,8.90698645 43.8598438,10.0040621 43.8598438,11.3930664 L43.8598438,11.940918 L37.4267383,11.940918 L37.4267383,12.0073242 C37.4654755,12.8927453 37.7158799,13.5955378 38.177959,14.1157227 C38.6400381,14.6359075 39.2501394,14.8959961 40.0082813,14.8959961 C40.583805,14.8959961 41.0652455,14.7922374 41.4526172,14.5847168 C41.8399889,14.3771962 42.1277465,14.0769876 42.3158984,13.684082 Z M49.6588281,6.89404297 C50.7988078,6.89404297 51.7105012,7.31461168 52.3939356,8.15576172 C53.07737,8.99691176 53.419082,10.1202729 53.419082,11.5258789 C53.419082,12.925951 53.07737,14.0479287 52.3939356,14.8918457 C51.7105012,15.7357627 50.7988078,16.1577148 49.6588281,16.1577148 C49.0224317,16.1577148 48.4579842,16.0249037 47.9654688,15.7592773 C47.4729533,15.493651 47.1049557,15.1256534 46.8614649,14.6552734 L46.7286524,14.6552734 L46.7286524,18.9882812 L45.300918,18.9882812 L45.300918,7.05175781 L46.6622461,7.05175781 L46.6622461,8.54589844 L46.7950586,8.54589844 C47.0828205,8.03124743 47.4798705,7.62728011 47.9862207,7.33398438 C48.4925709,7.04068864 49.0501011,6.89404297 49.6588281,6.89404297 Z M49.3184961,14.8710938 C50.1430445,14.8710938 50.7863486,14.5750355 51.2484277,13.9829102 C51.7105069,13.3907848 51.941543,12.5717826 51.941543,11.5258789 C51.941543,10.4799752 51.7105069,9.66097301 51.2484277,9.06884766 C50.7863486,8.4767223 50.1458114,8.18066406 49.3267969,8.18066406 C48.5188501,8.18066406 47.8769295,8.48087265 47.4010156,9.08129883 C46.9251018,9.68172501 46.6871485,10.4965769 46.6871485,11.5258789 C46.6871485,12.549647 46.9251018,13.3631155 47.4010156,13.9663086 C47.8769295,14.5695017 48.5160832,14.8710938 49.3184961,14.8710938 Z M57.6160156,14.9042969 C58.3520219,14.9042969 58.9621232,14.6898622 59.4463379,14.2609863 C59.9305526,13.8321105 60.1726563,13.2994823 60.1726563,12.6630859 L60.1726563,11.8413086 L57.7654297,11.9990234 C56.4594336,12.0875655 55.8064453,12.5745398 55.8064453,13.4599609 C55.8064453,13.9137392 55.9779931,14.2679024 56.3210938,14.5224609 C56.6641944,14.7770195 57.0958308,14.9042969 57.6160156,14.9042969 Z M57.3503906,16.1577148 C56.4815712,16.1577148 55.7607939,15.918378 55.1880371,15.4396973 C54.6152804,14.9610165 54.3289063,14.3121786 54.3289063,13.4931641 C54.3289063,11.855135 55.4162977,10.9724941 57.5911133,10.8452148 L60.1726563,10.6875 L60.1726563,9.87402344 C60.1726563,8.73404378 59.4975328,8.1640625 58.1472656,8.1640625 C57.6104791,8.1640625 57.1650083,8.26090398 56.8108399,8.45458984 C56.4566714,8.64827571 56.2297857,8.92219875 56.1301758,9.27636719 L54.6858399,9.27636719 C54.7799159,8.55696255 55.1506804,7.98006402 55.7981445,7.5456543 C56.4456087,7.11124457 57.2452427,6.89404297 58.1970703,6.89404297 C59.2872451,6.89404297 60.126999,7.15828186 60.7163574,7.68676758 C61.3057159,8.21525329 61.6003906,8.94433129 61.6003906,9.87402344 L61.6003906,16 L60.2390625,16 L60.2390625,14.6801758 L60.10625,14.6801758 C59.8184882,15.1560896 59.436656,15.5213203 58.9607422,15.7758789 C58.4848284,16.0304375 57.9480499,16.1577148 57.3503906,16.1577148 Z M67.059043,14.6054688 C67.8891253,14.6054688 68.5393466,14.3135609 69.0097266,13.7297363 C69.4801065,13.1459118 69.715293,12.3670296 69.715293,11.3930664 C69.715293,10.4191032 69.4787231,9.64022102 69.0055762,9.05639648 C68.5324293,8.47257195 67.8835914,8.18066406 67.059043,8.18066406 C66.2289607,8.18066406 65.589807,8.47257195 65.1415625,9.05639648 C64.6933181,9.64022102 64.4691992,10.4191032 64.4691992,11.3930664 C64.4691992,12.3670296 64.6933181,13.1459118 65.1415625,13.7297363 C65.589807,14.3135609 66.2289607,14.6054688 67.059043,14.6054688 Z M67.1254492,19.4365234 C66.0463423,19.4365234 65.1789193,19.213788 64.5231543,18.7683105 C63.8673893,18.3228331 63.4841738,17.7293331 63.3734961,16.987793 L64.8842383,16.987793 C64.9617126,17.3530292 65.1941322,17.6449371 65.5815039,17.8635254 C65.9688757,18.0821137 66.4835189,18.1914062 67.1254492,18.1914062 C67.9278621,18.1914062 68.5545648,18.0046405 69.0055762,17.6311035 C69.4565876,17.2575665 69.6820899,16.7415398 69.6820899,16.0830078 L69.6820899,14.3232422 L69.5492774,14.3232422 C69.2670494,14.8157577 68.8824504,15.1962063 68.3954688,15.4645996 C67.9084872,15.7329929 67.3578742,15.8671875 66.7436133,15.8671875 C65.587032,15.8671875 64.6725717,15.4563029 64.0002051,14.6345215 C63.3278385,13.81274 62.9916602,12.7322658 62.9916602,11.3930664 C62.9916602,10.053867 63.3292219,8.96924243 64.0043555,8.13916016 C64.6794891,7.30907788 65.5925659,6.89404297 66.7436133,6.89404297 C67.368942,6.89404297 67.9403067,7.03653829 68.4577246,7.3215332 C68.9751426,7.60652812 69.3611251,7.98974369 69.6156836,8.47119141 L69.7484961,8.47119141 L69.7484961,7.05175781 L71.1098242,7.05175781 L71.1098242,16.1577148 C71.1098242,17.1593475 70.7515108,17.9562145 70.0348731,18.5483398 C69.3182354,19.1404652 68.3484371,19.4365234 67.1254492,19.4365234 Z M76.5684766,8.15576172 C75.8546058,8.15576172 75.2680232,8.39648197 74.808711,8.87792969 C74.3493988,9.35937741 74.0920771,9.99576427 74.0367383,10.7871094 L78.9674024,10.7871094 C78.9508007,9.99576427 78.723915,9.35937741 78.2867383,8.87792969 C77.8495616,8.39648197 77.2768135,8.15576172 76.5684766,8.15576172 Z M78.9258985,13.684082 L80.3536328,13.684082 C80.1378114,14.4532916 79.7006413,15.0578591 79.0421094,15.4978027 C78.3835775,15.9377463 77.5645752,16.1577148 76.5850782,16.1577148 C75.3454886,16.1577148 74.3632393,15.7412965 73.6383008,14.9084473 C72.9133623,14.075598 72.5508985,12.9508534 72.5508985,11.5341797 C72.5508985,10.1285737 72.9161292,9.00382909 73.6466016,8.15991211 C74.377074,7.31599513 75.3565564,6.89404297 76.5850782,6.89404297 C77.7914644,6.89404297 78.7405109,7.29662683 79.4322461,8.10180664 C80.1239813,8.90698645 80.4698438,10.0040621 80.4698438,11.3930664 L80.4698438,11.940918 L74.0367383,11.940918 L74.0367383,12.0073242 C74.0754755,12.8927453 74.3258799,13.5955378 74.787959,14.1157227 C75.2500381,14.6359075 75.8601395,14.8959961 76.6182813,14.8959961 C77.193805,14.8959961 77.6752455,14.7922374 78.0626172,14.5847168 C78.4499889,14.3771962 78.7377465,14.0769876 78.9258985,13.684082 Z" transform="translate(15 12)"/>
    </g>
    <g transform="translate(0 181)">
      <rect width="360" height="44" fill="#FFF"/>
      <polygon fill="#000" fill-opacity=".25" points="100 16.5 101.5 15 108 21.5 101.5 28 100 26.5 105 21.5" transform="translate(236)"/>
      <path fill="#030303" d="M13.3227539,16 L11.9282227,16 L11.9282227,6.85253906 L11.8286133,6.85253906 L8.05175781,15.9169922 L6.79003906,15.9169922 L3.01318359,6.85253906 L2.91357422,6.85253906 L2.91357422,16 L1.51904297,16 L1.51904297,4.02197266 L3.25390625,4.02197266 L7.35449219,13.9331055 L7.48730469,13.9331055 L11.5878906,4.02197266 L13.3227539,4.02197266 L13.3227539,16 Z M18.1505469,14.9042969 C18.8865532,14.9042969 19.4966545,14.6898622 19.9808691,14.2609863 C20.4650838,13.8321105 20.7071875,13.2994823 20.7071875,12.6630859 L20.7071875,11.8413086 L18.2999609,11.9990234 C16.9939648,12.0875655 16.3409766,12.5745398 16.3409766,13.4599609 C16.3409766,13.9137392 16.5125243,14.2679024 16.855625,14.5224609 C17.1987257,14.7770195 17.630362,14.9042969 18.1505469,14.9042969 Z M17.8849219,16.1577148 C17.0161024,16.1577148 16.2953251,15.918378 15.7225684,15.4396973 C15.1498116,14.9610165 14.8634375,14.3121786 14.8634375,13.4931641 C14.8634375,11.855135 15.950829,10.9724941 18.1256445,10.8452148 L20.7071875,10.6875 L20.7071875,9.87402344 C20.7071875,8.73404378 20.032064,8.1640625 18.6817969,8.1640625 C18.1450103,8.1640625 17.6995395,8.26090398 17.3453711,8.45458984 C16.9912027,8.64827571 16.7643169,8.92219875 16.664707,9.27636719 L15.2203711,9.27636719 C15.3144471,8.55696255 15.6852116,7.98006402 16.3326758,7.5456543 C16.98014,7.11124457 17.7797739,6.89404297 18.7316016,6.89404297 C19.8217763,6.89404297 20.6615303,7.15828186 21.2508887,7.68676758 C21.8402471,8.21525329 22.1349219,8.94433129 22.1349219,9.87402344 L22.1349219,16 L20.7735938,16 L20.7735938,14.6801758 L20.6407813,14.6801758 C20.3530194,15.1560896 19.9711873,15.5213203 19.4952734,15.7758789 C19.0193596,16.0304375 18.4825811,16.1577148 17.8849219,16.1577148 Z M24.0076367,16 L24.0076367,7.05175781 L25.4353711,7.05175781 L25.4353711,16 L24.0076367,16 Z M24.7215039,5.23388672 C24.4503437,5.23388672 24.2165407,5.13566179 24.0200879,4.93920898 C23.8236351,4.74275618 23.7254102,4.50895318 23.7254102,4.23779297 C23.7254102,3.96109888 23.8236351,3.72591243 24.0200879,3.53222656 C24.2165407,3.3385407 24.4503437,3.24169922 24.7215039,3.24169922 C24.998198,3.24169922 25.2333845,3.3385407 25.4270703,3.53222656 C25.6207562,3.72591243 25.7175977,3.96109888 25.7175977,4.23779297 C25.7175977,4.50895318 25.6207562,4.74275618 25.4270703,4.93920898 C25.2333845,5.13566179 24.998198,5.23388672 24.7215039,5.23388672 Z M27.4408984,16 L27.4408984,3.49902344 L28.8686328,3.49902344 L28.8686328,16 L27.4408984,16 Z M42.8074219,16 L42.6248047,15.4812012 C42.5030593,15.1353336 42.3633309,14.7369 42.2056153,14.2858887 C42.0478996,13.8348773 41.9081712,13.4364438 41.7864258,13.0905762 L41.6038086,12.5717773 L36.8391602,12.5717773 L35.6355469,16 L34.0666992,16 L38.4827149,4.02197266 L39.9602539,4.02197266 L44.3762695,16 L42.8074219,16 Z M39.1550781,5.95605469 L38.9641602,6.49560547 C38.8368809,6.85530779 38.6805511,7.30077859 38.495166,7.83203125 L37.9390137,9.42578125 C37.7536286,9.95703391 37.5972988,10.4025047 37.4700195,10.762207 L37.2791016,11.3017578 L41.1638672,11.3017578 L39.2878906,5.95605469 L39.1550781,5.95605469 Z M49.8515235,6.89404297 C50.9915031,6.89404297 51.9031965,7.31461168 52.5866309,8.15576172 C53.2700653,8.99691176 53.6117774,10.1202729 53.6117774,11.5258789 C53.6117774,12.925951 53.2700653,14.0479287 52.5866309,14.8918457 C51.9031965,15.7357627 50.9915031,16.1577148 49.8515235,16.1577148 C49.215127,16.1577148 48.6506796,16.0249037 48.1581641,15.7592773 C47.6656486,15.493651 47.297651,15.1256534 47.0541602,14.6552734 L46.9213477,14.6552734 L46.9213477,18.9882813 L45.4936133,18.9882813 L45.4936133,7.05175781 L46.8549414,7.05175781 L46.8549414,8.54589844 L46.9877539,8.54589844 C47.2755158,8.03124743 47.6725658,7.62728011 48.178916,7.33398438 C48.6852662,7.04068864 49.2427965,6.89404297 49.8515235,6.89404297 Z M49.5111914,14.8710938 C50.3357398,14.8710938 50.9790439,14.5750355 51.4411231,13.9829102 C51.9032022,13.3907848 52.1342383,12.5717826 52.1342383,11.5258789 C52.1342383,10.4799752 51.9032022,9.66097301 51.4411231,9.06884766 C50.9790439,8.4767223 50.3385067,8.18066406 49.5194922,8.18066406 C48.7115455,8.18066406 48.0696248,8.48087265 47.593711,9.08129883 C47.1177971,9.68172501 46.8798438,10.4965769 46.8798438,11.5258789 C46.8798438,12.549647 47.1177971,13.3631155 47.593711,13.9663086 C48.0696248,14.5695017 48.7087786,14.8710938 49.5111914,14.8710938 Z M59.4107617,6.89404297 C60.5507414,6.89404297 61.4624348,7.31461168 62.1458692,8.15576172 C62.8293036,8.99691176 63.1710157,10.1202729 63.1710157,11.5258789 C63.1710157,12.925951 62.8293036,14.0479287 62.1458692,14.8918457 C61.4624348,15.7357627 60.5507414,16.1577148 59.4107617,16.1577148 C58.7743653,16.1577148 58.2099179,16.0249037 57.7174024,15.7592773 C57.2248869,15.493651 56.8568893,15.1256534 56.6133985,14.6552734 L56.480586,14.6552734 L56.480586,18.9882813 L55.0528516,18.9882813 L55.0528516,7.05175781 L56.4141797,7.05175781 L56.4141797,8.54589844 L56.5469922,8.54589844 C56.8347541,8.03124743 57.2318041,7.62728011 57.7381543,7.33398438 C58.2445045,7.04068864 58.8020347,6.89404297 59.4107617,6.89404297 Z M59.0704297,14.8710938 C59.8949781,14.8710938 60.5382822,14.5750355 61.0003614,13.9829102 C61.4624405,13.3907848 61.6934766,12.5717826 61.6934766,11.5258789 C61.6934766,10.4799752 61.4624405,9.66097301 61.0003614,9.06884766 C60.5382822,8.4767223 59.897745,8.18066406 59.0787305,8.18066406 C58.2707837,8.18066406 57.6288631,8.48087265 57.1529492,9.08129883 C56.6770354,9.68172501 56.4390821,10.4965769 56.4390821,11.5258789 C56.4390821,12.549647 56.6770354,13.3631155 57.1529492,13.9663086 C57.6288631,14.5695017 58.2680168,14.8710938 59.0704297,14.8710938 Z" transform="translate(15 12)"/>
    </g>
    <use fill="#EFEFF4" xlink:href="#capitalizayion-all-caps-a"/>
    <use fill="#000" filter="url(#capitalizayion-all-caps-b)" xlink:href="#capitalizayion-all-caps-a"/>
    <path fill="#6D6D72" d="M23.8486328,37.4580078 C23.8486328,38.5878963 23.4931676,39.49666 22.7822266,40.1843262 C22.0712855,40.8719924 21.1297259,41.2158203 19.9575195,41.2158203 C18.6922137,41.2158203 17.6840044,40.7820681 16.9328613,39.9145508 C16.1817182,39.0470334 15.8061523,37.8811922 15.8061523,36.4169922 C15.8061523,34.9697193 16.184892,33.8091678 16.9423828,32.9353027 C17.6998736,32.0614377 18.7049091,31.6245117 19.9575195,31.6245117 C20.9731496,31.6245117 21.824785,31.8879368 22.5124512,32.4147949 C23.2001174,32.941653 23.626464,33.6599889 23.7915039,34.5698242 L22.6298828,34.5698242 C22.4352204,33.9519826 22.1114931,33.4822607 21.6586914,33.1606445 C21.2058897,32.8390283 20.638838,32.6782227 19.9575195,32.6782227 C19.051916,32.6782227 18.3293484,33.0167609 17.7897949,33.6938477 C17.2502414,34.3709344 16.9804688,35.2786401 16.9804688,36.4169922 C16.9804688,37.5722714 17.2481256,38.4852668 17.7834473,39.1560059 C18.318769,39.8267449 19.0455683,40.1621094 19.9638672,40.1621094 C20.7848348,40.1621094 21.4481583,39.9230167 21.9538574,39.4448242 C22.4595566,38.9666317 22.7124023,38.3403359 22.7124023,37.565918 L22.7124023,37.34375 L20.1352539,37.34375 L20.1352539,36.3408203 L23.8486328,36.3408203 L23.8486328,37.4580078 Z M31.3858203,39.9716797 L31.3858203,41 L25.7110156,41 L25.7110156,31.840332 L31.3858203,31.840332 L31.3858203,32.8686523 L26.8535938,32.8686523 L26.8535938,35.8076172 L31.150957,35.8076172 L31.150957,36.8232422 L26.8535938,36.8232422 L26.8535938,39.9716797 L31.3858203,39.9716797 Z M34.4288672,41 L33.2989844,41 L33.2989844,31.840332 L34.4098242,31.840332 L39.3800391,38.96875 L39.4816016,38.96875 L39.4816016,31.840332 L40.6114844,31.840332 L40.6114844,41 L39.5006445,41 L34.5304297,33.8969727 L34.4288672,33.8969727 L34.4288672,41 Z M48.4660547,39.9716797 L48.4660547,41 L42.79125,41 L42.79125,31.840332 L48.4660547,31.840332 L48.4660547,32.8686523 L43.9338281,32.8686523 L43.9338281,35.8076172 L48.2311914,35.8076172 L48.2311914,36.8232422 L43.9338281,36.8232422 L43.9338281,39.9716797 L48.4660547,39.9716797 Z M51.5217969,32.855957 L51.5217969,36.3598633 L53.7752149,36.3598633 C54.3634339,36.3598633 54.8172868,36.208579 55.1367871,35.9060059 C55.4562874,35.6034327 55.6160352,35.1707385 55.6160352,34.6079102 C55.6160352,34.0577772 55.4488819,33.6282568 55.1145703,33.3193359 C54.7802588,33.0104151 54.3168845,32.855957 53.7244336,32.855957 L51.5217969,32.855957 Z M51.5217969,37.3754883 L51.5217969,41 L50.3792188,41 L50.3792188,31.840332 L53.8767774,31.840332 C54.7612219,31.840332 55.4689785,32.0889461 56.0000684,32.5861816 C56.5311583,33.0834172 56.7966992,33.7446248 56.7966992,34.5698242 C56.7966992,35.2088248 56.6337777,35.7610654 56.3079297,36.2265625 C55.9820817,36.6920596 55.5314026,37.0157869 54.9558789,37.1977539 L57.0759961,41 L55.7366406,41 L53.7752149,37.3754883 L51.5217969,37.3754883 Z M64.6703125,41 L64.5306641,40.6032715 C64.4375646,40.3387845 64.3307135,40.0341 64.2101074,39.689209 C64.0895014,39.3443179 63.9826502,39.0396335 63.8895508,38.7751465 L63.7499024,38.378418 L60.1063477,38.378418 L59.1859375,41 L57.9862305,41 L61.3631836,31.840332 L62.4930664,31.840332 L65.8700195,41 L64.6703125,41 Z M61.8773438,33.3193359 L61.7313477,33.7319336 C61.6340164,34.0070001 61.5144701,34.3476542 61.3727051,34.7539062 L60.9474121,35.9726562 C60.8056471,36.3789083 60.6861008,36.7195624 60.5887695,36.9946289 L60.4427734,37.4072266 L63.4134766,37.4072266 L61.9789063,33.3193359 L61.8773438,33.3193359 Z M72.8803516,39.9716797 L72.8803516,41 L67.3198047,41 L67.3198047,31.840332 L68.4623828,31.840332 L68.4623828,39.9716797 L72.8803516,39.9716797 Z"/>
    <use fill="#000" filter="url(#capitalizayion-all-caps-c)" xlink:href="#capitalizayion-all-caps-d"/>
    <use fill="#000" filter="url(#capitalizayion-all-caps-e)" xlink:href="#capitalizayion-all-caps-f"/>
    <g fill="#000">
      <use filter="url(#capitalizayion-all-caps-g)" xlink:href="#capitalizayion-all-caps-h"/>
    </g>
    <g fill="#000">
      <use filter="url(#capitalizayion-all-caps-i)" xlink:href="#capitalizayion-all-caps-j"/>
    </g>
  </g>
</svg>
