<svg xmlns="http://www.w3.org/2000/svg" width="300" height="180" style="background:#f9f9fa" viewBox="0 0 300 180">
  <path fill="#0C0C0D" fill-rule="evenodd" d="M42.435791,75.2490234 L39.8649902,84.3515625 L38.614502,84.3515625 L36.7419434,77.6992188 C36.6615393,77.4156887 36.6128744,77.1067725 36.5959473,76.7724609 L36.5705566,76.7724609 C36.5451659,77.0856135 36.4901534,77.390298 36.4055176,77.6865234 L34.5202637,84.3515625 L33.2824707,84.3515625 L30.6164551,75.2490234 L31.7907715,75.2490234 L33.7268066,82.2314453 C33.8072107,82.523439 33.8579914,82.8281234 33.8791504,83.1455078 L33.9108887,83.1455078 C33.9320476,82.9212228 33.9976394,82.6165384 34.107666,82.2314453 L36.119873,75.2490234 L37.1418457,75.2490234 L39.0715332,82.2822266 C39.1392419,82.5234387 39.1900226,82.8069645 39.223877,83.1328125 L39.2492676,83.1328125 C39.2661947,82.9127593 39.3233231,82.62077 39.4206543,82.2568359 L41.2805176,75.2490234 L42.435791,75.2490234 Z M47.7932129,84.3515625 L46.7521973,84.3515625 L46.7521973,83.3359375 L46.7268066,83.3359375 C46.2740049,84.1145872 45.6075077,84.5039062 44.7272949,84.5039062 C44.0798307,84.5039062 43.5730813,84.3325212 43.2070312,83.9897461 C42.8409812,83.6469709 42.657959,83.1920601 42.657959,82.625 C42.657959,81.4104757 43.3731211,80.703777 44.8034668,80.5048828 L46.7521973,80.2319336 C46.7521973,79.1274359 46.3057499,78.5751953 45.4128418,78.5751953 C44.6299603,78.5751953 43.9232616,78.8417942 43.2927246,79.375 L43.2927246,78.3085938 C43.9317252,77.9023417 44.668046,77.6992188 45.501709,77.6992188 C47.0293859,77.6992188 47.7932129,78.5074789 47.7932129,80.1240234 L47.7932129,84.3515625 Z M46.7521973,81.0634766 L45.1843262,81.2792969 C44.7019019,81.3470055 44.3379732,81.4665519 44.0925293,81.6379395 C43.8470854,81.809327 43.7243652,82.1129535 43.7243652,82.5488281 C43.7243652,82.8662125 43.837564,83.1254059 44.0639648,83.326416 C44.2903657,83.5274261 44.5918764,83.6279297 44.9685059,83.6279297 C45.4847845,83.6279297 45.9111311,83.4470233 46.2475586,83.0852051 C46.5839861,82.7233869 46.7521973,82.2653023 46.7521973,81.7109375 L46.7521973,81.0634766 Z M55.1501465,84.3515625 L54.1091309,84.3515625 L54.1091309,80.6445312 C54.1091309,79.2649671 53.6055552,78.5751953 52.5983887,78.5751953 C52.0778783,78.5751953 51.6472999,78.7709128 51.3066406,79.1623535 C50.9659814,79.5537943 50.7956543,80.0478486 50.7956543,80.6445312 L50.7956543,84.3515625 L49.7546387,84.3515625 L49.7546387,77.8515625 L50.7956543,77.8515625 L50.7956543,78.9306641 L50.8210449,78.9306641 C51.3119328,78.1096964 52.0228632,77.6992188 52.9538574,77.6992188 C53.6647985,77.6992188 54.2085756,77.92879 54.5852051,78.3879395 C54.9618346,78.8470889 55.1501465,79.5104123 55.1501465,80.3779297 L55.1501465,84.3515625 Z M60.126709,84.2880859 C59.881265,84.4235033 59.5575378,84.4912109 59.1555176,84.4912109 C58.0171655,84.4912109 57.447998,83.8564517 57.447998,82.5869141 L57.447998,78.7402344 L56.3308105,78.7402344 L56.3308105,77.8515625 L57.447998,77.8515625 L57.447998,76.2646484 L58.4890137,75.9282227 L58.4890137,77.8515625 L60.126709,77.8515625 L60.126709,78.7402344 L58.4890137,78.7402344 L58.4890137,82.402832 C58.4890137,82.8387066 58.5630689,83.1497387 58.7111816,83.3359375 C58.8592944,83.5221363 59.1047346,83.6152344 59.4475098,83.6152344 C59.7098809,83.6152344 59.9362783,83.543295 60.126709,83.3994141 L60.126709,84.2880859 Z M68.0930176,84.2880859 C67.8475736,84.4235033 67.5238464,84.4912109 67.1218262,84.4912109 C65.9834741,84.4912109 65.4143066,83.8564517 65.4143066,82.5869141 L65.4143066,78.7402344 L64.2971191,78.7402344 L64.2971191,77.8515625 L65.4143066,77.8515625 L65.4143066,76.2646484 L66.4553223,75.9282227 L66.4553223,77.8515625 L68.0930176,77.8515625 L68.0930176,78.7402344 L66.4553223,78.7402344 L66.4553223,82.402832 C66.4553223,82.8387066 66.5293775,83.1497387 66.6774902,83.3359375 C66.825603,83.5221363 67.0710432,83.6152344 67.4138184,83.6152344 C67.6761895,83.6152344 67.9025869,83.543295 68.0930176,83.3994141 L68.0930176,84.2880859 Z M72.1999512,84.5039062 C71.2393344,84.5039062 70.4723336,84.2002797 69.8989258,83.5930176 C69.325518,82.9857554 69.0388184,82.1806691 69.0388184,81.1777344 C69.0388184,80.085932 69.3371552,79.2332387 69.9338379,78.6196289 C70.5305206,78.0060191 71.3366648,77.6992188 72.3522949,77.6992188 C73.3213753,77.6992188 74.0777968,77.9975556 74.621582,78.5942383 C75.1653673,79.190921 75.4372559,80.0182239 75.4372559,81.0761719 C75.4372559,82.1129609 75.1442087,82.9434376 74.5581055,83.567627 C73.9720023,84.1918163 73.1859587,84.5039062 72.1999512,84.5039062 Z M72.276123,78.5751953 C71.6074999,78.5751953 71.0785338,78.8026507 70.689209,79.2575684 C70.2998841,79.712486 70.1052246,80.3398398 70.1052246,81.1396484 C70.1052246,81.9098346 70.302,82.5170876 70.6955566,82.9614258 C71.0891133,83.4057639 71.6159635,83.6279297 72.276123,83.6279297 C72.948978,83.6279297 73.4663068,83.4099957 73.828125,82.9741211 C74.1899432,82.5382465 74.3708496,81.9182983 74.3708496,81.1142578 C74.3708496,80.3017538 74.1899432,79.6754579 73.828125,79.2353516 C73.4663068,78.7952452 72.948978,78.5751953 72.276123,78.5751953 Z M86.0568848,84.3515625 L84.5969238,84.3515625 L81.7277832,81.2285156 L81.7023926,81.2285156 L81.7023926,84.3515625 L80.661377,84.3515625 L80.661377,74.7285156 L81.7023926,74.7285156 L81.7023926,80.8286133 L81.7277832,80.8286133 L84.4572754,77.8515625 L85.8220215,77.8515625 L82.8068848,80.9873047 L86.0568848,84.3515625 Z M92.3474121,81.3618164 L87.7580566,81.3618164 C87.7749838,82.0854528 87.9696433,82.644041 88.342041,83.0375977 C88.7144387,83.4311543 89.2264779,83.6279297 89.8781738,83.6279297 C90.6102738,83.6279297 91.2831187,83.3867212 91.8967285,82.9042969 L91.8967285,83.8818359 C91.3254366,84.2965516 90.5700731,84.5039062 89.6306152,84.5039062 C88.7123164,84.5039062 87.9908067,84.2087432 87.4660645,83.6184082 C86.9413222,83.0280732 86.6789551,82.1975965 86.6789551,81.1269531 C86.6789551,80.1155548 86.9656547,79.2914257 87.5390625,78.654541 C88.1124703,78.0176563 88.8244586,77.6992188 89.6750488,77.6992188 C90.525639,77.6992188 91.1836728,77.9742811 91.6491699,78.5244141 C92.114667,79.074547 92.3474121,79.838374 92.3474121,80.815918 L92.3474121,81.3618164 Z M91.2810059,80.4794922 C91.2767741,79.8785777 91.1318374,79.4109717 90.8461914,79.0766602 C90.5605454,78.7423486 90.1638209,78.5751953 89.6560059,78.5751953 C89.165118,78.5751953 88.7482927,78.750812 88.4055176,79.1020508 C88.0627424,79.4532895 87.851156,79.9124321 87.770752,80.4794922 L91.2810059,80.4794922 Z M99.145752,81.3618164 L94.5563965,81.3618164 C94.5733237,82.0854528 94.7679832,82.644041 95.1403809,83.0375977 C95.5127786,83.4311543 96.0248177,83.6279297 96.6765137,83.6279297 C97.4086137,83.6279297 98.0814585,83.3867212 98.6950684,82.9042969 L98.6950684,83.8818359 C98.1237764,84.2965516 97.3684129,84.5039062 96.4289551,84.5039062 C95.5106562,84.5039062 94.7891465,84.2087432 94.2644043,83.6184082 C93.7396621,83.0280732 93.4772949,82.1975965 93.4772949,81.1269531 C93.4772949,80.1155548 93.7639945,79.2914257 94.3374023,78.654541 C94.9108102,78.0176563 95.6227985,77.6992188 96.4733887,77.6992188 C97.3239789,77.6992188 97.9820126,77.9742811 98.4475098,78.5244141 C98.9130069,79.074547 99.145752,79.838374 99.145752,80.815918 L99.145752,81.3618164 Z M98.0793457,80.4794922 C98.0751139,79.8785777 97.9301772,79.4109717 97.6445312,79.0766602 C97.3588853,78.7423486 96.9621607,78.5751953 96.4543457,78.5751953 C95.9634578,78.5751953 95.5466326,78.750812 95.2038574,79.1020508 C94.8610823,79.4532895 94.6494958,79.9124321 94.5690918,80.4794922 L98.0793457,80.4794922 Z M101.786377,83.4121094 L101.760986,83.4121094 L101.760986,87.3413086 L100.719971,87.3413086 L100.719971,77.8515625 L101.760986,77.8515625 L101.760986,78.9941406 L101.786377,78.9941406 C102.298424,78.1308551 103.04744,77.6992188 104.033447,77.6992188 C104.871342,77.6992188 105.525144,77.9901501 105.994873,78.5720215 C106.464602,79.1538929 106.699463,79.9335889 106.699463,80.9111328 C106.699463,81.9987034 106.43498,82.8693815 105.906006,83.5231934 C105.377032,84.1770052 104.653406,84.5039062 103.735107,84.5039062 C102.892981,84.5039062 102.24341,84.1399776 101.786377,83.4121094 Z M101.760986,80.7905273 L101.760986,81.6982422 C101.760986,82.2356798 101.935545,82.6916485 102.284668,83.0661621 C102.633791,83.4406757 103.077064,83.6279297 103.614502,83.6279297 C104.245039,83.6279297 104.739093,83.3867212 105.09668,82.9042969 C105.454266,82.4218726 105.633057,81.7511436 105.633057,80.8920898 C105.633057,80.1684534 105.465903,79.6014018 105.131592,79.190918 C104.79728,78.7804341 104.344485,78.5751953 103.773193,78.5751953 C103.168047,78.5751953 102.681398,78.7857238 102.313232,79.2067871 C101.945067,79.6278504 101.760986,80.1557585 101.760986,80.7905273 Z M111.530029,84.1166992 L111.530029,82.9995117 C112.097089,83.4184591 112.721269,83.6279297 113.402588,83.6279297 C114.316655,83.6279297 114.773682,83.3232452 114.773682,82.7138672 C114.773682,82.5403637 114.734538,82.3933111 114.65625,82.2727051 C114.577962,82.152099 114.472169,82.0452479 114.338867,81.9521484 C114.205566,81.859049 114.048992,81.7754724 113.869141,81.701416 C113.689289,81.6273597 113.495688,81.5501306 113.28833,81.4697266 C113.000568,81.3554682 112.747722,81.2401536 112.529785,81.1237793 C112.311848,81.007405 112.129884,80.8762214 111.983887,80.7302246 C111.83789,80.5842278 111.727865,80.4181324 111.653809,80.2319336 C111.579752,80.0457347 111.542725,79.8278007 111.542725,79.578125 C111.542725,79.273436 111.612548,79.0036633 111.752197,78.7687988 C111.891846,78.5339344 112.078042,78.337159 112.310791,78.1784668 C112.54354,78.0197746 112.809081,77.9002283 113.107422,77.8198242 C113.405763,77.7394202 113.713621,77.6992188 114.031006,77.6992188 C114.593834,77.6992188 115.09741,77.7965485 115.541748,77.9912109 L115.541748,79.0449219 C115.063556,78.7317693 114.513431,78.5751953 113.891357,78.5751953 C113.696695,78.5751953 113.521078,78.5974119 113.364502,78.6418457 C113.207926,78.6862795 113.073568,78.7486975 112.961426,78.8291016 C112.849283,78.9095056 112.762533,79.0057774 112.701172,79.1179199 C112.639811,79.2300624 112.609131,79.3538405 112.609131,79.4892578 C112.609131,79.6585295 112.639811,79.8002924 112.701172,79.9145508 C112.762533,80.0288092 112.852457,80.1303706 112.970947,80.2192383 C113.089437,80.3081059 113.233316,80.3885088 113.402588,80.4604492 C113.57186,80.5323897 113.764403,80.6106767 113.980225,80.6953125 C114.267986,80.8053391 114.526122,80.9185378 114.754639,81.0349121 C114.983155,81.1512864 115.177815,81.28247 115.338623,81.4284668 C115.499431,81.5744636 115.623209,81.7426748 115.709961,81.9331055 C115.796713,82.1235361 115.840088,82.3499336 115.840088,82.6123047 C115.840088,82.9339209 115.769206,83.213215 115.627441,83.4501953 C115.485676,83.6871757 115.296307,83.883951 115.059326,84.0405273 C114.822346,84.1971036 114.549399,84.3134762 114.240479,84.3896484 C113.931558,84.4658207 113.60783,84.5039062 113.269287,84.5039062 C112.600664,84.5039062 112.020917,84.3748385 111.530029,84.1166992 Z M120.156494,84.5039062 C119.195877,84.5039062 118.428877,84.2002797 117.855469,83.5930176 C117.282061,82.9857554 116.995361,82.1806691 116.995361,81.1777344 C116.995361,80.085932 117.293698,79.2332387 117.890381,78.6196289 C118.487064,78.0060191 119.293208,77.6992188 120.308838,77.6992188 C121.277918,77.6992188 122.03434,77.9975556 122.578125,78.5942383 C123.12191,79.190921 123.393799,80.0182239 123.393799,81.0761719 C123.393799,82.1129609 123.100752,82.9434376 122.514648,83.567627 C121.928545,84.1918163 121.142502,84.5039062 120.156494,84.5039062 Z M120.232666,78.5751953 C119.564043,78.5751953 119.035077,78.8026507 118.645752,79.2575684 C118.256427,79.712486 118.061768,80.3398398 118.061768,81.1396484 C118.061768,81.9098346 118.258543,82.5170876 118.6521,82.9614258 C119.045656,83.4057639 119.572506,83.6279297 120.232666,83.6279297 C120.905521,83.6279297 121.42285,83.4099957 121.784668,82.9741211 C122.146486,82.5382465 122.327393,81.9182983 122.327393,81.1142578 C122.327393,80.3017538 122.146486,79.6754579 121.784668,79.2353516 C121.42285,78.7952452 120.905521,78.5751953 120.232666,78.5751953 Z M134.286377,84.3515625 L133.245361,84.3515625 L133.245361,80.6191406 C133.245361,79.899736 133.134278,79.3792334 132.912109,79.0576172 C132.68994,78.736001 132.31649,78.5751953 131.791748,78.5751953 C131.34741,78.5751953 130.969728,78.7783183 130.658691,79.1845703 C130.347655,79.5908223 130.192139,80.0774711 130.192139,80.6445312 L130.192139,84.3515625 L129.151123,84.3515625 L129.151123,80.4921875 C129.151123,79.2141863 128.658127,78.5751953 127.672119,78.5751953 C127.215086,78.5751953 126.838462,78.766681 126.542236,79.1496582 C126.246011,79.5326354 126.0979,80.0309214 126.0979,80.6445312 L126.0979,84.3515625 L125.056885,84.3515625 L125.056885,77.8515625 L126.0979,77.8515625 L126.0979,78.8798828 L126.123291,78.8798828 C126.584556,78.0927695 127.257401,77.6992188 128.141846,77.6992188 C128.586184,77.6992188 128.973387,77.8229968 129.303467,78.0705566 C129.633547,78.3181165 129.859944,78.6429016 129.982666,79.0449219 C130.46509,78.147782 131.184484,77.6992188 132.140869,77.6992188 C133.571215,77.6992188 134.286377,78.5815341 134.286377,80.3461914 L134.286377,84.3515625 Z M141.478271,81.3618164 L136.888916,81.3618164 C136.905843,82.0854528 137.100503,82.644041 137.4729,83.0375977 C137.845298,83.4311543 138.357337,83.6279297 139.009033,83.6279297 C139.741133,83.6279297 140.413978,83.3867212 141.027588,82.9042969 L141.027588,83.8818359 C140.456296,84.2965516 139.700932,84.5039062 138.761475,84.5039062 C137.843176,84.5039062 137.121666,84.2087432 136.596924,83.6184082 C136.072182,83.0280732 135.809814,82.1975965 135.809814,81.1269531 C135.809814,80.1155548 136.096514,79.2914257 136.669922,78.654541 C137.24333,78.0176563 137.955318,77.6992188 138.805908,77.6992188 C139.656498,77.6992188 140.314532,77.9742811 140.780029,78.5244141 C141.245526,79.074547 141.478271,79.838374 141.478271,80.815918 L141.478271,81.3618164 Z M140.411865,80.4794922 C140.407633,79.8785777 140.262697,79.4109717 139.977051,79.0766602 C139.691405,78.7423486 139.29468,78.5751953 138.786865,78.5751953 C138.295977,78.5751953 137.879152,78.750812 137.536377,79.1020508 C137.193602,79.4532895 136.982015,79.9124321 136.901611,80.4794922 L140.411865,80.4794922 Z M146.067627,84.2880859 C145.822183,84.4235033 145.498456,84.4912109 145.096436,84.4912109 C143.958084,84.4912109 143.388916,83.8564517 143.388916,82.5869141 L143.388916,78.7402344 L142.271729,78.7402344 L142.271729,77.8515625 L143.388916,77.8515625 L143.388916,76.2646484 L144.429932,75.9282227 L144.429932,77.8515625 L146.067627,77.8515625 L146.067627,78.7402344 L144.429932,78.7402344 L144.429932,82.402832 C144.429932,82.8387066 144.503987,83.1497387 144.6521,83.3359375 C144.800212,83.5221363 145.045653,83.6152344 145.388428,83.6152344 C145.650799,83.6152344 145.877196,83.543295 146.067627,83.3994141 L146.067627,84.2880859 Z M152.853271,84.3515625 L151.812256,84.3515625 L151.812256,80.6064453 C151.812256,79.2522719 151.30868,78.5751953 150.301514,78.5751953 C149.793699,78.5751953 149.366294,78.7709128 149.019287,79.1623535 C148.67228,79.5537943 148.498779,80.056312 148.498779,80.6699219 L148.498779,84.3515625 L147.457764,84.3515625 L147.457764,74.7285156 L148.498779,74.7285156 L148.498779,78.9306641 L148.52417,78.9306641 C149.023521,78.1096964 149.734452,77.6992188 150.656982,77.6992188 C152.121182,77.6992188 152.853271,78.5815341 152.853271,80.3461914 L152.853271,84.3515625 Z M155.3479,76.2011719 C155.161702,76.2011719 155.003012,76.1376959 154.871826,76.0107422 C154.740641,75.8837884 154.675049,75.7229827 154.675049,75.5283203 C154.675049,75.3336579 154.740641,75.1717943 154.871826,75.0427246 C155.003012,74.913655 155.161702,74.8491211 155.3479,74.8491211 C155.538331,74.8491211 155.700195,74.913655 155.833496,75.0427246 C155.966798,75.1717943 156.033447,75.3336579 156.033447,75.5283203 C156.033447,75.7145192 155.966798,75.873209 155.833496,76.0043945 C155.700195,76.1355801 155.538331,76.2011719 155.3479,76.2011719 Z M155.855713,84.3515625 L154.814697,84.3515625 L154.814697,77.8515625 L155.855713,77.8515625 L155.855713,84.3515625 Z M163.358643,84.3515625 L162.317627,84.3515625 L162.317627,80.6445312 C162.317627,79.2649671 161.814051,78.5751953 160.806885,78.5751953 C160.286374,78.5751953 159.855796,78.7709128 159.515137,79.1623535 C159.174477,79.5537943 159.00415,80.0478486 159.00415,80.6445312 L159.00415,84.3515625 L157.963135,84.3515625 L157.963135,77.8515625 L159.00415,77.8515625 L159.00415,78.9306641 L159.029541,78.9306641 C159.520429,78.1096964 160.231359,77.6992188 161.162354,77.6992188 C161.873295,77.6992188 162.417072,77.92879 162.793701,78.3879395 C163.170331,78.8470889 163.358643,79.5104123 163.358643,80.3779297 L163.358643,84.3515625 Z M170.86792,83.8310547 C170.86792,86.2177854 169.725353,87.4111328 167.440186,87.4111328 C166.636145,87.4111328 165.933678,87.2587906 165.332764,86.9541016 L165.332764,85.9130859 C166.064864,86.319338 166.763099,86.5224609 167.42749,86.5224609 C169.027108,86.5224609 169.826904,85.6718835 169.826904,83.9707031 L169.826904,83.2597656 L169.801514,83.2597656 C169.306394,84.0891969 168.56161,84.5039062 167.567139,84.5039062 C166.758866,84.5039062 166.108238,84.2150908 165.615234,83.6374512 C165.122231,83.0598116 164.875732,82.2843473 164.875732,81.3110352 C164.875732,80.2065374 165.141273,79.3284538 165.672363,78.6767578 C166.203453,78.0250618 166.930253,77.6992188 167.852783,77.6992188 C168.728764,77.6992188 169.378334,78.0504522 169.801514,78.7529297 L169.826904,78.7529297 L169.826904,77.8515625 L170.86792,77.8515625 L170.86792,83.8310547 Z M169.826904,81.4125977 L169.826904,80.4541016 C169.826904,79.9378229 169.652345,79.4956073 169.303223,79.1274414 C168.9541,78.7592755 168.51929,78.5751953 167.998779,78.5751953 C167.355547,78.5751953 166.851971,78.8089983 166.488037,79.2766113 C166.124103,79.7442243 165.942139,80.3990843 165.942139,81.2412109 C165.942139,81.9648474 166.116697,82.5435362 166.46582,82.9772949 C166.814943,83.4110536 167.277259,83.6279297 167.852783,83.6279297 C168.43677,83.6279297 168.911782,83.420575 169.277832,83.0058594 C169.643882,82.5911438 169.826904,82.0600618 169.826904,81.4125977 Z M179.551514,84.2880859 C179.30607,84.4235033 178.982343,84.4912109 178.580322,84.4912109 C177.44197,84.4912109 176.872803,83.8564517 176.872803,82.5869141 L176.872803,78.7402344 L175.755615,78.7402344 L175.755615,77.8515625 L176.872803,77.8515625 L176.872803,76.2646484 L177.913818,75.9282227 L177.913818,77.8515625 L179.551514,77.8515625 L179.551514,78.7402344 L177.913818,78.7402344 L177.913818,82.402832 C177.913818,82.8387066 177.987874,83.1497387 178.135986,83.3359375 C178.284099,83.5221363 178.529539,83.6152344 178.872314,83.6152344 C179.134686,83.6152344 179.361083,83.543295 179.551514,83.3994141 L179.551514,84.2880859 Z M183.658447,84.5039062 C182.69783,84.5039062 181.93083,84.2002797 181.357422,83.5930176 C180.784014,82.9857554 180.497314,82.1806691 180.497314,81.1777344 C180.497314,80.085932 180.795651,79.2332387 181.392334,78.6196289 C181.989017,78.0060191 182.795161,77.6992188 183.810791,77.6992188 C184.779871,77.6992188 185.536293,77.9975556 186.080078,78.5942383 C186.623863,79.190921 186.895752,80.0182239 186.895752,81.0761719 C186.895752,82.1129609 186.602705,82.9434376 186.016602,83.567627 C185.430498,84.1918163 184.644455,84.5039062 183.658447,84.5039062 Z M183.734619,78.5751953 C183.065996,78.5751953 182.53703,78.8026507 182.147705,79.2575684 C181.75838,79.712486 181.563721,80.3398398 181.563721,81.1396484 C181.563721,81.9098346 181.760496,82.5170876 182.154053,82.9614258 C182.547609,83.4057639 183.07446,83.6279297 183.734619,83.6279297 C184.407474,83.6279297 184.924803,83.4099957 185.286621,82.9741211 C185.648439,82.5382465 185.829346,81.9182983 185.829346,81.1142578 C185.829346,80.3017538 185.648439,79.6754579 185.286621,79.2353516 C184.924803,78.7952452 184.407474,78.5751953 183.734619,78.5751953 Z M197.293213,77.8515625 L194.303467,85.3925781 C193.770261,86.738288 193.021245,87.4111328 192.056396,87.4111328 C191.785562,87.4111328 191.559164,87.3836266 191.377197,87.3286133 L191.377197,86.3955078 C191.601482,86.4716801 191.806721,86.5097656 191.99292,86.5097656 C192.517662,86.5097656 192.911213,86.1966177 193.173584,85.5703125 L193.694092,84.3388672 L191.155029,77.8515625 L192.310303,77.8515625 L194.068604,82.8535156 C194.089762,82.9169925 194.134196,83.0820299 194.201904,83.3486328 L194.23999,83.3486328 C194.261149,83.2470698 194.303466,83.0862641 194.366943,82.8662109 L196.214111,77.8515625 L197.293213,77.8515625 Z M201.127197,84.5039062 C200.16658,84.5039062 199.39958,84.2002797 198.826172,83.5930176 C198.252764,82.9857554 197.966064,82.1806691 197.966064,81.1777344 C197.966064,80.085932 198.264401,79.2332387 198.861084,78.6196289 C199.457767,78.0060191 200.263911,77.6992188 201.279541,77.6992188 C202.248621,77.6992188 203.005043,77.9975556 203.548828,78.5942383 C204.092613,79.190921 204.364502,80.0182239 204.364502,81.0761719 C204.364502,82.1129609 204.071455,82.9434376 203.485352,83.567627 C202.899248,84.1918163 202.113205,84.5039062 201.127197,84.5039062 Z M201.203369,78.5751953 C200.534746,78.5751953 200.00578,78.8026507 199.616455,79.2575684 C199.22713,79.712486 199.032471,80.3398398 199.032471,81.1396484 C199.032471,81.9098346 199.229246,82.5170876 199.622803,82.9614258 C200.016359,83.4057639 200.54321,83.6279297 201.203369,83.6279297 C201.876224,83.6279297 202.393553,83.4099957 202.755371,82.9741211 C203.117189,82.5382465 203.298096,81.9182983 203.298096,81.1142578 C203.298096,80.3017538 203.117189,79.6754579 202.755371,79.2353516 C202.393553,78.7952452 201.876224,78.5751953 201.203369,78.5751953 Z M211.283447,84.3515625 L210.242432,84.3515625 L210.242432,83.3232422 L210.217041,83.3232422 C209.785398,84.1103555 209.116785,84.5039062 208.211182,84.5039062 C206.662346,84.5039062 205.887939,83.5813894 205.887939,81.7363281 L205.887939,77.8515625 L206.922607,77.8515625 L206.922607,81.5712891 C206.922607,82.9423897 207.447342,83.6279297 208.496826,83.6279297 C209.004641,83.6279297 209.422524,83.4406757 209.750488,83.0661621 C210.078452,82.6916485 210.242432,82.2018259 210.242432,81.5966797 L210.242432,77.8515625 L211.283447,77.8515625 L211.283447,84.3515625 Z M216.77417,78.9052734 C216.592203,78.7656243 216.329836,78.6958008 215.987061,78.6958008 C215.542722,78.6958008 215.171388,78.9052713 214.873047,79.3242188 C214.574706,79.7431662 214.425537,80.3144495 214.425537,81.0380859 L214.425537,84.3515625 L213.384521,84.3515625 L213.384521,77.8515625 L214.425537,77.8515625 L214.425537,79.190918 L214.450928,79.190918 C214.59904,78.7338844 214.825438,78.3773613 215.130127,78.1213379 C215.434816,77.8653145 215.77547,77.7373047 216.1521,77.7373047 C216.422934,77.7373047 216.630289,77.7669268 216.77417,77.8261719 L216.77417,78.9052734 Z M217.510498,84.1166992 L217.510498,82.9995117 C218.077558,83.4184591 218.701738,83.6279297 219.383057,83.6279297 C220.297124,83.6279297 220.75415,83.3232452 220.75415,82.7138672 C220.75415,82.5403637 220.715007,82.3933111 220.636719,82.2727051 C220.558431,82.152099 220.452637,82.0452479 220.319336,81.9521484 C220.186034,81.859049 220.029461,81.7754724 219.849609,81.701416 C219.669758,81.6273597 219.476157,81.5501306 219.268799,81.4697266 C218.981037,81.3554682 218.728191,81.2401536 218.510254,81.1237793 C218.292317,81.007405 218.110352,80.8762214 217.964355,80.7302246 C217.818359,80.5842278 217.708334,80.4181324 217.634277,80.2319336 C217.560221,80.0457347 217.523193,79.8278007 217.523193,79.578125 C217.523193,79.273436 217.593017,79.0036633 217.732666,78.7687988 C217.872315,78.5339344 218.058511,78.337159 218.29126,78.1784668 C218.524008,78.0197746 218.789549,77.9002283 219.087891,77.8198242 C219.386232,77.7394202 219.69409,77.6992188 220.011475,77.6992188 C220.574303,77.6992188 221.077879,77.7965485 221.522217,77.9912109 L221.522217,79.0449219 C221.044024,78.7317693 220.4939,78.5751953 219.871826,78.5751953 C219.677164,78.5751953 219.501547,78.5974119 219.344971,78.6418457 C219.188394,78.6862795 219.054037,78.7486975 218.941895,78.8291016 C218.829752,78.9095056 218.743002,79.0057774 218.681641,79.1179199 C218.62028,79.2300624 218.5896,79.3538405 218.5896,79.4892578 C218.5896,79.6585295 218.62028,79.8002924 218.681641,79.9145508 C218.743002,80.0288092 218.832926,80.1303706 218.951416,80.2192383 C219.069906,80.3081059 219.213785,80.3885088 219.383057,80.4604492 C219.552328,80.5323897 219.744872,80.6106767 219.960693,80.6953125 C220.248455,80.8053391 220.506591,80.9185378 220.735107,81.0349121 C220.963624,81.1512864 221.158284,81.28247 221.319092,81.4284668 C221.4799,81.5744636 221.603678,81.7426748 221.69043,81.9331055 C221.777181,82.1235361 221.820557,82.3499336 221.820557,82.6123047 C221.820557,82.9339209 221.749675,83.213215 221.60791,83.4501953 C221.466145,83.6871757 221.276775,83.883951 221.039795,84.0405273 C220.802815,84.1971036 220.529868,84.3134762 220.220947,84.3896484 C219.912026,84.4658207 219.588299,84.5039062 219.249756,84.5039062 C218.581133,84.5039062 218.001386,84.3748385 217.510498,84.1166992 Z M228.644287,81.3618164 L224.054932,81.3618164 C224.071859,82.0854528 224.266518,82.644041 224.638916,83.0375977 C225.011314,83.4311543 225.523353,83.6279297 226.175049,83.6279297 C226.907149,83.6279297 227.579994,83.3867212 228.193604,82.9042969 L228.193604,83.8818359 C227.622312,84.2965516 226.866948,84.5039062 225.92749,84.5039062 C225.009191,84.5039062 224.287682,84.2087432 223.762939,83.6184082 C223.238197,83.0280732 222.97583,82.1975965 222.97583,81.1269531 C222.97583,80.1155548 223.26253,79.2914257 223.835938,78.654541 C224.409345,78.0176563 225.121334,77.6992188 225.971924,77.6992188 C226.822514,77.6992188 227.480548,77.9742811 227.946045,78.5244141 C228.411542,79.074547 228.644287,79.838374 228.644287,80.815918 L228.644287,81.3618164 Z M227.577881,80.4794922 C227.573649,79.8785777 227.428712,79.4109717 227.143066,79.0766602 C226.85742,78.7423486 226.460696,78.5751953 225.952881,78.5751953 C225.461993,78.5751953 225.045168,78.750812 224.702393,79.1020508 C224.359617,79.4532895 224.148031,79.9124321 224.067627,80.4794922 L227.577881,80.4794922 Z M231.259521,84.3515625 L230.218506,84.3515625 L230.218506,74.7285156 L231.259521,74.7285156 L231.259521,84.3515625 Z M236.578857,75.6425781 C236.375731,75.5283197 236.145102,75.4711914 235.886963,75.4711914 C235.159095,75.4711914 234.795166,75.930334 234.795166,76.8486328 L234.795166,77.8515625 L236.318604,77.8515625 L236.318604,78.7402344 L234.795166,78.7402344 L234.795166,84.3515625 L233.760498,84.3515625 L233.760498,78.7402344 L232.649658,78.7402344 L232.649658,77.8515625 L233.760498,77.8515625 L233.760498,76.7978516 C233.760498,76.1165331 233.957273,75.5780456 234.35083,75.182373 C234.744387,74.7867005 235.235267,74.5888672 235.823486,74.5888672 C236.140871,74.5888672 236.392659,74.6269527 236.578857,74.703125 L236.578857,75.6425781 Z M238.508545,81.8251953 C238.470459,81.7151687 238.436605,81.5723479 238.406982,81.3967285 C238.37736,81.2211091 238.362549,81.0465503 238.362549,80.8730469 C238.362549,80.6022122 238.416503,80.3578299 238.524414,80.1398926 C238.632325,79.9219553 238.766682,79.7177744 238.92749,79.5273438 C239.088298,79.3369131 239.263915,79.1538909 239.454346,78.9782715 C239.644776,78.8026521 239.820393,78.6249195 239.981201,78.4450684 C240.142009,78.2652172 240.276367,78.0769053 240.384277,77.880127 C240.492188,77.6833486 240.546143,77.4664725 240.546143,77.2294922 C240.546143,77.0263662 240.506999,76.8465177 240.428711,76.6899414 C240.350423,76.5333651 240.243572,76.4021815 240.108154,76.2963867 C239.972737,76.1905919 239.816163,76.111247 239.638428,76.0583496 C239.460692,76.0054522 239.272381,75.9790039 239.073486,75.9790039 C238.358313,75.9790039 237.738365,76.2604139 237.213623,76.8232422 L237.213623,75.7060547 C237.861087,75.2998027 238.531816,75.0966797 239.22583,75.0966797 C239.547446,75.0966797 239.850015,75.138997 240.133545,75.2236328 C240.417075,75.3082687 240.665689,75.4341626 240.879395,75.6013184 C241.0931,75.7684741 241.261311,75.9768868 241.384033,76.2265625 C241.506755,76.4762382 241.568115,76.7661116 241.568115,77.0961914 C241.568115,77.409344 241.513103,77.6886381 241.403076,77.934082 C241.29305,78.179526 241.15446,78.4048655 240.987305,78.6101074 C240.820149,78.8153493 240.639243,79.006835 240.44458,79.1845703 C240.249918,79.3623056 240.069011,79.5389802 239.901855,79.7145996 C239.7347,79.890219 239.596111,80.0732412 239.486084,80.2636719 C239.376057,80.4541025 239.321045,80.6635731 239.321045,80.8920898 C239.321045,81.0867523 239.344319,81.2634269 239.390869,81.4221191 C239.437419,81.5808113 239.483968,81.7151687 239.530518,81.8251953 L238.508545,81.8251953 Z M239.079834,84.4658203 C238.893635,84.4658203 238.728598,84.3981127 238.584717,84.2626953 C238.445068,84.127278 238.375244,83.9622406 238.375244,83.7675781 C238.375244,83.5686839 238.445068,83.4036465 238.584717,83.2724609 C238.724366,83.1328118 238.889403,83.0629883 239.079834,83.0629883 C239.270265,83.0629883 239.435302,83.1328118 239.574951,83.2724609 C239.7146,83.4036465 239.784424,83.5686839 239.784424,83.7675781 C239.784424,83.9622406 239.7146,84.127278 239.574951,84.2626953 C239.43107,84.3981127 239.266033,84.4658203 239.079834,84.4658203 Z M253.622314,80.6699219 C253.622314,83.2259242 252.469168,84.5039062 250.162842,84.5039062 C247.953846,84.5039062 246.849365,83.2745891 246.849365,80.815918 L246.849365,75.2490234 L247.915771,75.2490234 L247.915771,80.7460938 C247.915771,82.612314 248.702873,83.5454102 250.2771,83.5454102 C251.796313,83.5454102 252.555908,82.644052 252.555908,80.8413086 L252.555908,75.2490234 L253.622314,75.2490234 L253.622314,80.6699219 Z M255.361572,84.1166992 L255.361572,82.9995117 C255.928632,83.4184591 256.552812,83.6279297 257.234131,83.6279297 C258.148198,83.6279297 258.605225,83.3232452 258.605225,82.7138672 C258.605225,82.5403637 258.566081,82.3933111 258.487793,82.2727051 C258.409505,82.152099 258.303712,82.0452479 258.17041,81.9521484 C258.037109,81.859049 257.880535,81.7754724 257.700684,81.701416 C257.520832,81.6273597 257.327231,81.5501306 257.119873,81.4697266 C256.832111,81.3554682 256.579265,81.2401536 256.361328,81.1237793 C256.143391,81.007405 255.961427,80.8762214 255.81543,80.7302246 C255.669433,80.5842278 255.559408,80.4181324 255.485352,80.2319336 C255.411295,80.0457347 255.374268,79.8278007 255.374268,79.578125 C255.374268,79.273436 255.444091,79.0036633 255.58374,78.7687988 C255.723389,78.5339344 255.909585,78.337159 256.142334,78.1784668 C256.375083,78.0197746 256.640624,77.9002283 256.938965,77.8198242 C257.237306,77.7394202 257.545164,77.6992188 257.862549,77.6992188 C258.425377,77.6992188 258.928953,77.7965485 259.373291,77.9912109 L259.373291,79.0449219 C258.895099,78.7317693 258.344974,78.5751953 257.7229,78.5751953 C257.528238,78.5751953 257.352621,78.5974119 257.196045,78.6418457 C257.039469,78.6862795 256.905111,78.7486975 256.792969,78.8291016 C256.680826,78.9095056 256.594076,79.0057774 256.532715,79.1179199 C256.471354,79.2300624 256.440674,79.3538405 256.440674,79.4892578 C256.440674,79.6585295 256.471354,79.8002924 256.532715,79.9145508 C256.594076,80.0288092 256.684,80.1303706 256.80249,80.2192383 C256.92098,80.3081059 257.064859,80.3885088 257.234131,80.4604492 C257.403403,80.5323897 257.595946,80.6106767 257.811768,80.6953125 C258.099529,80.8053391 258.357665,80.9185378 258.586182,81.0349121 C258.814698,81.1512864 259.009358,81.28247 259.170166,81.4284668 C259.330974,81.5744636 259.454752,81.7426748 259.541504,81.9331055 C259.628256,82.1235361 259.671631,82.3499336 259.671631,82.6123047 C259.671631,82.9339209 259.600749,83.213215 259.458984,83.4501953 C259.317219,83.6871757 259.127849,83.883951 258.890869,84.0405273 C258.653889,84.1971036 258.380942,84.3134762 258.072021,84.3896484 C257.763101,84.4658207 257.439373,84.5039062 257.10083,84.5039062 C256.432207,84.5039062 255.85246,84.3748385 255.361572,84.1166992 Z M266.495361,81.3618164 L261.906006,81.3618164 C261.922933,82.0854528 262.117593,82.644041 262.48999,83.0375977 C262.862388,83.4311543 263.374427,83.6279297 264.026123,83.6279297 C264.758223,83.6279297 265.431068,83.3867212 266.044678,82.9042969 L266.044678,83.8818359 C265.473386,84.2965516 264.718022,84.5039062 263.778564,84.5039062 C262.860266,84.5039062 262.138756,84.2087432 261.614014,83.6184082 C261.089271,83.0280732 260.826904,82.1975965 260.826904,81.1269531 C260.826904,80.1155548 261.113604,79.2914257 261.687012,78.654541 C262.26042,78.0176563 262.972408,77.6992188 263.822998,77.6992188 C264.673588,77.6992188 265.331622,77.9742811 265.797119,78.5244141 C266.262616,79.074547 266.495361,79.838374 266.495361,80.815918 L266.495361,81.3618164 Z M265.428955,80.4794922 C265.424723,79.8785777 265.279787,79.4109717 264.994141,79.0766602 C264.708495,78.7423486 264.31177,78.5751953 263.803955,78.5751953 C263.313067,78.5751953 262.896242,78.750812 262.553467,79.1020508 C262.210692,79.4532895 261.999105,79.9124321 261.918701,80.4794922 L265.428955,80.4794922 Z M32.7111816,98.9111328 L32.7111816,102.351562 L31.6447754,102.351562 L31.6447754,93.2490234 L34.145752,93.2490234 C35.1190641,93.2490234 35.8733697,93.4860002 36.4086914,93.9599609 C36.9440131,94.4339216 37.2116699,95.1025347 37.2116699,95.9658203 C37.2116699,96.8291059 36.914391,97.5358045 36.3198242,98.0859375 C35.7252574,98.6360705 34.922287,98.9111328 33.9108887,98.9111328 L32.7111816,98.9111328 Z M32.7111816,94.2138672 L32.7111816,97.9462891 L33.8283691,97.9462891 C34.5647009,97.9462891 35.1264629,97.7780779 35.5136719,97.4416504 C35.9008808,97.1052229 36.0944824,96.6302114 36.0944824,96.0166016 C36.0944824,94.8147726 35.383552,94.2138672 33.9616699,94.2138672 L32.7111816,94.2138672 Z M42.1755371,96.9052734 C41.9935701,96.7656243 41.7312029,96.6958008 41.3884277,96.6958008 C40.9440896,96.6958008 40.5727554,96.9052713 40.2744141,97.3242188 C39.9760727,97.7431662 39.8269043,98.3144495 39.8269043,99.0380859 L39.8269043,102.351562 L38.7858887,102.351562 L38.7858887,95.8515625 L39.8269043,95.8515625 L39.8269043,97.190918 L39.8522949,97.190918 C40.0004076,96.7338844 40.2268051,96.3773613 40.5314941,96.1213379 C40.8361832,95.8653145 41.1768373,95.7373047 41.5534668,95.7373047 C41.8243015,95.7373047 42.0316562,95.7669268 42.1755371,95.8261719 L42.1755371,96.9052734 Z M43.838623,94.2011719 C43.6524242,94.2011719 43.4937344,94.1376959 43.3625488,94.0107422 C43.2313633,93.8837884 43.1657715,93.7229827 43.1657715,93.5283203 C43.1657715,93.3336579 43.2313633,93.1717943 43.3625488,93.0427246 C43.4937344,92.913655 43.6524242,92.8491211 43.838623,92.8491211 C44.0290537,92.8491211 44.1909173,92.913655 44.3242188,93.0427246 C44.4575202,93.1717943 44.5241699,93.3336579 44.5241699,93.5283203 C44.5241699,93.7145192 44.4575202,93.873209 44.3242188,94.0043945 C44.1909173,94.1355801 44.0290537,94.2011719 43.838623,94.2011719 Z M44.3464355,102.351562 L43.3054199,102.351562 L43.3054199,95.8515625 L44.3464355,95.8515625 L44.3464355,102.351562 Z M51.5637207,95.8515625 L48.973877,102.351562 L47.9519043,102.351562 L45.4890137,95.8515625 L46.6315918,95.8515625 L48.2819824,100.574219 C48.4047044,100.921226 48.4808755,101.223794 48.510498,101.481934 L48.5358887,101.481934 C48.5782066,101.156086 48.6459142,100.86198 48.7390137,100.599609 L50.4655762,95.8515625 L51.5637207,95.8515625 Z M57.3337402,102.351562 L56.2927246,102.351562 L56.2927246,101.335938 L56.267334,101.335938 C55.8145322,102.114587 55.148035,102.503906 54.2678223,102.503906 C53.6203581,102.503906 53.1136086,102.332521 52.7475586,101.989746 C52.3815086,101.646971 52.1984863,101.19206 52.1984863,100.625 C52.1984863,99.4104757 52.9136484,98.703777 54.3439941,98.5048828 L56.2927246,98.2319336 C56.2927246,97.1274359 55.8462773,96.5751953 54.9533691,96.5751953 C54.1704876,96.5751953 53.463789,96.8417942 52.833252,97.375 L52.833252,96.3085938 C53.4722525,95.9023417 54.2085733,95.6992188 55.0422363,95.6992188 C56.5699132,95.6992188 57.3337402,96.5074789 57.3337402,98.1240234 L57.3337402,102.351562 Z M56.2927246,99.0634766 L54.7248535,99.2792969 C54.2424292,99.3470055 53.8785006,99.4665519 53.6330566,99.6379395 C53.3876127,99.809327 53.2648926,100.112954 53.2648926,100.548828 C53.2648926,100.866213 53.3780913,101.125406 53.6044922,101.326416 C53.8308931,101.527426 54.1324037,101.62793 54.5090332,101.62793 C55.0253118,101.62793 55.4516585,101.447023 55.7880859,101.085205 C56.1245134,100.723387 56.2927246,100.265302 56.2927246,99.7109375 L56.2927246,99.0634766 Z M62.3103027,102.288086 C62.0648588,102.423503 61.7411316,102.491211 61.3391113,102.491211 C60.2007593,102.491211 59.6315918,101.856452 59.6315918,100.586914 L59.6315918,96.7402344 L58.5144043,96.7402344 L58.5144043,95.8515625 L59.6315918,95.8515625 L59.6315918,94.2646484 L60.6726074,93.9282227 L60.6726074,95.8515625 L62.3103027,95.8515625 L62.3103027,96.7402344 L60.6726074,96.7402344 L60.6726074,100.402832 C60.6726074,100.838707 60.7466627,101.149739 60.8947754,101.335938 C61.0428881,101.522136 61.2883284,101.615234 61.6311035,101.615234 C61.8934746,101.615234 62.1198721,101.543295 62.3103027,101.399414 L62.3103027,102.288086 Z M68.9245605,99.3618164 L64.3352051,99.3618164 C64.3521322,100.085453 64.5467918,100.644041 64.9191895,101.037598 C65.2915871,101.431154 65.8036263,101.62793 66.4553223,101.62793 C67.1874223,101.62793 67.8602671,101.386721 68.473877,100.904297 L68.473877,101.881836 C67.902585,102.296552 67.1472215,102.503906 66.2077637,102.503906 C65.2894648,102.503906 64.5679551,102.208743 64.0432129,101.618408 C63.5184707,101.028073 63.2561035,100.197596 63.2561035,99.1269531 C63.2561035,98.1155548 63.5428031,97.2914257 64.1162109,96.654541 C64.6896188,96.0176563 65.4016071,95.6992188 66.2521973,95.6992188 C67.1027875,95.6992188 67.7608212,95.9742811 68.2263184,96.5244141 C68.6918155,97.074547 68.9245605,97.838374 68.9245605,98.815918 L68.9245605,99.3618164 Z M67.8581543,98.4794922 C67.8539225,97.8785777 67.7089858,97.4109717 67.4233398,97.0766602 C67.1376939,96.7423486 66.7409693,96.5751953 66.2331543,96.5751953 C65.7422664,96.5751953 65.3254412,96.750812 64.982666,97.1020508 C64.6398909,97.4532895 64.4283044,97.9124321 64.3479004,98.4794922 L67.8581543,98.4794922 Z M74.1994629,102.351562 L74.1994629,93.2490234 L76.7893066,93.2490234 C77.57642,93.2490234 78.2005999,93.4415671 78.6618652,93.8266602 C79.1231306,94.2117532 79.3537598,94.7132131 79.3537598,95.3310547 C79.3537598,95.8473333 79.2141127,96.2958965 78.9348145,96.6767578 C78.6555162,97.0576191 78.2704289,97.3284497 77.779541,97.4892578 L77.779541,97.5146484 C78.3931509,97.5865889 78.8840314,97.818276 79.2521973,98.2097168 C79.6203632,98.6011576 79.8044434,99.1100229 79.8044434,99.7363281 C79.8044434,100.514978 79.5251493,101.145505 78.9665527,101.62793 C78.4079562,102.110354 77.7033734,102.351562 76.8527832,102.351562 L74.1994629,102.351562 Z M75.2658691,94.2138672 L75.2658691,97.152832 L76.357666,97.152832 C76.9416533,97.152832 77.4007959,97.0121271 77.7351074,96.7307129 C78.069419,96.4492987 78.2365723,96.0525742 78.2365723,95.5405273 C78.2365723,94.6560828 77.6547096,94.2138672 76.4909668,94.2138672 L75.2658691,94.2138672 Z M75.2658691,98.1113281 L75.2658691,101.386719 L76.7131348,101.386719 C77.33944,101.386719 77.8250308,101.238608 78.1699219,100.942383 C78.5148129,100.646157 78.6872559,100.239911 78.6872559,99.7236328 C78.6872559,98.6487576 77.9551668,98.1113281 76.4909668,98.1113281 L75.2658691,98.1113281 Z M84.9016113,96.9052734 C84.7196443,96.7656243 84.4572771,96.6958008 84.114502,96.6958008 C83.6701638,96.6958008 83.2988296,96.9052713 83.0004883,97.3242188 C82.7021469,97.7431662 82.5529785,98.3144495 82.5529785,99.0380859 L82.5529785,102.351562 L81.5119629,102.351562 L81.5119629,95.8515625 L82.5529785,95.8515625 L82.5529785,97.190918 L82.5783691,97.190918 C82.7264819,96.7338844 82.9528793,96.3773613 83.2575684,96.1213379 C83.5622574,95.8653145 83.9029115,95.7373047 84.279541,95.7373047 C84.5503757,95.7373047 84.7577304,95.7669268 84.9016113,95.8261719 L84.9016113,96.9052734 Z M88.748291,102.503906 C87.7876742,102.503906 87.0206734,102.20028 86.4472656,101.593018 C85.8738578,100.985755 85.5871582,100.180669 85.5871582,99.1777344 C85.5871582,98.085932 85.8854951,97.2332387 86.4821777,96.6196289 C87.0788604,96.0060191 87.8850047,95.6992188 88.9006348,95.6992188 C89.8697151,95.6992188 90.6261366,95.9975556 91.1699219,96.5942383 C91.7137071,97.190921 91.9855957,98.0182239 91.9855957,99.0761719 C91.9855957,100.112961 91.6925485,100.943438 91.1064453,101.567627 C90.5203421,102.191816 89.7342985,102.503906 88.748291,102.503906 Z M88.8244629,96.5751953 C88.1558398,96.5751953 87.6268737,96.8026507 87.2375488,97.2575684 C86.848224,97.712486 86.6535645,98.3398398 86.6535645,99.1396484 C86.6535645,99.9098346 86.8503398,100.517088 87.2438965,100.961426 C87.6374531,101.405764 88.1643033,101.62793 88.8244629,101.62793 C89.4973178,101.62793 90.0146466,101.409996 90.3764648,100.974121 C90.7382831,100.538247 90.9191895,99.9182983 90.9191895,99.1142578 C90.9191895,98.3017538 90.7382831,97.6754579 90.3764648,97.2353516 C90.0146466,96.7952452 89.4973178,96.5751953 88.8244629,96.5751953 Z M101.837158,95.8515625 L99.8884277,102.351562 L98.8093262,102.351562 L97.4699707,97.6987305 C97.4191892,97.5209952 97.3853354,97.3199881 97.3684082,97.0957031 L97.3430176,97.0957031 C97.3303222,97.2480476 97.2858891,97.444823 97.2097168,97.6860352 L95.7561035,102.351562 L94.7150879,102.351562 L92.7473145,95.8515625 L93.8391113,95.8515625 L95.1848145,100.739258 C95.2271324,100.887371 95.2567545,101.08203 95.2736816,101.323242 L95.3244629,101.323242 C95.3371583,101.137043 95.3752438,100.938152 95.4387207,100.726562 L96.9367676,95.8515625 L97.888916,95.8515625 L99.2346191,100.751953 C99.2769371,100.908529 99.308675,101.103189 99.329834,101.335938 L99.3806152,101.335938 C99.3890788,101.170898 99.4250485,100.976238 99.4885254,100.751953 L100.808838,95.8515625 L101.837158,95.8515625 Z M102.649658,102.116699 L102.649658,100.999512 C103.216718,101.418459 103.840898,101.62793 104.522217,101.62793 C105.436284,101.62793 105.893311,101.323245 105.893311,100.713867 C105.893311,100.540364 105.854167,100.393311 105.775879,100.272705 C105.697591,100.152099 105.591798,100.045248 105.458496,99.9521484 C105.325195,99.859049 105.168621,99.7754724 104.98877,99.701416 C104.808918,99.6273597 104.615317,99.5501306 104.407959,99.4697266 C104.120197,99.3554682 103.867351,99.2401536 103.649414,99.1237793 C103.431477,99.007405 103.249512,98.8762214 103.103516,98.7302246 C102.957519,98.5842278 102.847494,98.4181324 102.773438,98.2319336 C102.699381,98.0457347 102.662354,97.8278007 102.662354,97.578125 C102.662354,97.273436 102.732177,97.0036633 102.871826,96.7687988 C103.011475,96.5339344 103.197671,96.337159 103.43042,96.1784668 C103.663168,96.0197746 103.928709,95.9002283 104.227051,95.8198242 C104.525392,95.7394202 104.83325,95.6992188 105.150635,95.6992188 C105.713463,95.6992188 106.217039,95.7965485 106.661377,95.9912109 L106.661377,97.0449219 C106.183184,96.7317693 105.63306,96.5751953 105.010986,96.5751953 C104.816324,96.5751953 104.640707,96.5974119 104.484131,96.6418457 C104.327555,96.6862795 104.193197,96.7486975 104.081055,96.8291016 C103.968912,96.9095056 103.882162,97.0057774 103.820801,97.1179199 C103.75944,97.2300624 103.72876,97.3538405 103.72876,97.4892578 C103.72876,97.6585295 103.75944,97.8002924 103.820801,97.9145508 C103.882162,98.0288092 103.972086,98.1303706 104.090576,98.2192383 C104.209066,98.3081059 104.352945,98.3885088 104.522217,98.4604492 C104.691488,98.5323897 104.884032,98.6106767 105.099854,98.6953125 C105.387615,98.8053391 105.645751,98.9185378 105.874268,99.0349121 C106.102784,99.1512864 106.297444,99.28247 106.458252,99.4284668 C106.61906,99.5744636 106.742838,99.7426748 106.82959,99.9331055 C106.916342,100.123536 106.959717,100.349934 106.959717,100.612305 C106.959717,100.933921 106.888835,101.213215 106.74707,101.450195 C106.605305,101.687176 106.415935,101.883951 106.178955,102.040527 C105.941975,102.197104 105.669028,102.313476 105.360107,102.389648 C105.051187,102.465821 104.727459,102.503906 104.388916,102.503906 C103.720293,102.503906 103.140546,102.374839 102.649658,102.116699 Z M109.092529,94.2011719 C108.90633,94.2011719 108.747641,94.1376959 108.616455,94.0107422 C108.48527,93.8837884 108.419678,93.7229827 108.419678,93.5283203 C108.419678,93.3336579 108.48527,93.1717943 108.616455,93.0427246 C108.747641,92.913655 108.90633,92.8491211 109.092529,92.8491211 C109.28296,92.8491211 109.444824,92.913655 109.578125,93.0427246 C109.711426,93.1717943 109.778076,93.3336579 109.778076,93.5283203 C109.778076,93.7145192 109.711426,93.873209 109.578125,94.0043945 C109.444824,94.1355801 109.28296,94.2011719 109.092529,94.2011719 Z M109.600342,102.351562 L108.559326,102.351562 L108.559326,95.8515625 L109.600342,95.8515625 L109.600342,102.351562 Z M117.103271,102.351562 L116.062256,102.351562 L116.062256,98.6445312 C116.062256,97.2649671 115.55868,96.5751953 114.551514,96.5751953 C114.031003,96.5751953 113.600425,96.7709128 113.259766,97.1623535 C112.919106,97.5537943 112.748779,98.0478486 112.748779,98.6445312 L112.748779,102.351562 L111.707764,102.351562 L111.707764,95.8515625 L112.748779,95.8515625 L112.748779,96.9306641 L112.77417,96.9306641 C113.265058,96.1096964 113.975988,95.6992188 114.906982,95.6992188 C115.617923,95.6992188 116.161701,95.92879 116.53833,96.3879395 C116.91496,96.8470889 117.103271,97.5104123 117.103271,98.3779297 L117.103271,102.351562 Z M124.612549,101.831055 C124.612549,104.217785 123.469982,105.411133 121.184814,105.411133 C120.380774,105.411133 119.678307,105.258791 119.077393,104.954102 L119.077393,103.913086 C119.809493,104.319338 120.507728,104.522461 121.172119,104.522461 C122.771737,104.522461 123.571533,103.671884 123.571533,101.970703 L123.571533,101.259766 L123.546143,101.259766 C123.051023,102.089197 122.306239,102.503906 121.311768,102.503906 C120.503495,102.503906 119.852867,102.215091 119.359863,101.637451 C118.86686,101.059812 118.620361,100.284347 118.620361,99.3110352 C118.620361,98.2065374 118.885902,97.3284538 119.416992,96.6767578 C119.948082,96.0250618 120.674881,95.6992188 121.597412,95.6992188 C122.473393,95.6992188 123.122963,96.0504522 123.546143,96.7529297 L123.571533,96.7529297 L123.571533,95.8515625 L124.612549,95.8515625 L124.612549,101.831055 Z M123.571533,99.4125977 L123.571533,98.4541016 C123.571533,97.9378229 123.396974,97.4956073 123.047852,97.1274414 C122.698729,96.7592755 122.263919,96.5751953 121.743408,96.5751953 C121.100176,96.5751953 120.5966,96.8089983 120.232666,97.2766113 C119.868732,97.7442243 119.686768,98.3990843 119.686768,99.2412109 C119.686768,99.9648474 119.861326,100.543536 120.210449,100.977295 C120.559572,101.411054 121.021888,101.62793 121.597412,101.62793 C122.181399,101.62793 122.656411,101.420575 123.022461,101.005859 C123.388511,100.591144 123.571533,100.060062 123.571533,99.4125977 Z M138.469482,95.8515625 L136.520752,102.351562 L135.44165,102.351562 L134.102295,97.6987305 C134.051513,97.5209952 134.01766,97.3199881 134.000732,97.0957031 L133.975342,97.0957031 C133.962646,97.2480476 133.918213,97.444823 133.842041,97.6860352 L132.388428,102.351562 L131.347412,102.351562 L129.379639,95.8515625 L130.471436,95.8515625 L131.817139,100.739258 C131.859457,100.887371 131.889079,101.08203 131.906006,101.323242 L131.956787,101.323242 C131.969482,101.137043 132.007568,100.938152 132.071045,100.726562 L133.569092,95.8515625 L134.52124,95.8515625 L135.866943,100.751953 C135.909261,100.908529 135.940999,101.103189 135.962158,101.335938 L136.012939,101.335938 C136.021403,101.170898 136.057373,100.976238 136.12085,100.751953 L137.441162,95.8515625 L138.469482,95.8515625 Z M140.20874,94.2011719 C140.022541,94.2011719 139.863852,94.1376959 139.732666,94.0107422 C139.60148,93.8837884 139.535889,93.7229827 139.535889,93.5283203 C139.535889,93.3336579 139.60148,93.1717943 139.732666,93.0427246 C139.863852,92.913655 140.022541,92.8491211 140.20874,92.8491211 C140.399171,92.8491211 140.561034,92.913655 140.694336,93.0427246 C140.827637,93.1717943 140.894287,93.3336579 140.894287,93.5283203 C140.894287,93.7145192 140.827637,93.873209 140.694336,94.0043945 C140.561034,94.1355801 140.399171,94.2011719 140.20874,94.2011719 Z M140.716553,102.351562 L139.675537,102.351562 L139.675537,95.8515625 L140.716553,95.8515625 L140.716553,102.351562 Z M145.839111,102.288086 C145.593667,102.423503 145.26994,102.491211 144.86792,102.491211 C143.729568,102.491211 143.1604,101.856452 143.1604,100.586914 L143.1604,96.7402344 L142.043213,96.7402344 L142.043213,95.8515625 L143.1604,95.8515625 L143.1604,94.2646484 L144.201416,93.9282227 L144.201416,95.8515625 L145.839111,95.8515625 L145.839111,96.7402344 L144.201416,96.7402344 L144.201416,100.402832 C144.201416,100.838707 144.275471,101.149739 144.423584,101.335938 C144.571697,101.522136 144.817137,101.615234 145.159912,101.615234 C145.422283,101.615234 145.648681,101.543295 145.839111,101.399414 L145.839111,102.288086 Z M152.624756,102.351562 L151.58374,102.351562 L151.58374,98.6064453 C151.58374,97.2522719 151.080165,96.5751953 150.072998,96.5751953 C149.565183,96.5751953 149.137778,96.7709128 148.790771,97.1623535 C148.443765,97.5537943 148.270264,98.056312 148.270264,98.6699219 L148.270264,102.351562 L147.229248,102.351562 L147.229248,92.7285156 L148.270264,92.7285156 L148.270264,96.9306641 L148.295654,96.9306641 C148.795006,96.1096964 149.505936,95.6992188 150.428467,95.6992188 C151.892667,95.6992188 152.624756,96.5815341 152.624756,98.3461914 L152.624756,102.351562 Z M163.669678,94.2138672 L161.041748,94.2138672 L161.041748,102.351562 L159.975342,102.351562 L159.975342,94.2138672 L157.35376,94.2138672 L157.35376,93.2490234 L163.669678,93.2490234 L163.669678,94.2138672 Z M167.218018,96.9052734 C167.036051,96.7656243 166.773683,96.6958008 166.430908,96.6958008 C165.98657,96.6958008 165.615236,96.9052713 165.316895,97.3242188 C165.018553,97.7431662 164.869385,98.3144495 164.869385,99.0380859 L164.869385,102.351562 L163.828369,102.351562 L163.828369,95.8515625 L164.869385,95.8515625 L164.869385,97.190918 L164.894775,97.190918 C165.042888,96.7338844 165.269286,96.3773613 165.573975,96.1213379 C165.878664,95.8653145 166.219318,95.7373047 166.595947,95.7373047 C166.866782,95.7373047 167.074137,95.7669268 167.218018,95.8261719 L167.218018,96.9052734 Z M173.000732,102.351562 L171.959717,102.351562 L171.959717,101.335938 L171.934326,101.335938 C171.481524,102.114587 170.815027,102.503906 169.934814,102.503906 C169.28735,102.503906 168.780601,102.332521 168.414551,101.989746 C168.048501,101.646971 167.865479,101.19206 167.865479,100.625 C167.865479,99.4104757 168.580641,98.703777 170.010986,98.5048828 L171.959717,98.2319336 C171.959717,97.1274359 171.513269,96.5751953 170.620361,96.5751953 C169.83748,96.5751953 169.130781,96.8417942 168.500244,97.375 L168.500244,96.3085938 C169.139245,95.9023417 169.875565,95.6992188 170.709229,95.6992188 C172.236905,95.6992188 173.000732,96.5074789 173.000732,98.1240234 L173.000732,102.351562 Z M171.959717,99.0634766 L170.391846,99.2792969 C169.909421,99.3470055 169.545493,99.4665519 169.300049,99.6379395 C169.054605,99.809327 168.931885,100.112954 168.931885,100.548828 C168.931885,100.866213 169.045084,101.125406 169.271484,101.326416 C169.497885,101.527426 169.799396,101.62793 170.176025,101.62793 C170.692304,101.62793 171.118651,101.447023 171.455078,101.085205 C171.791506,100.723387 171.959717,100.265302 171.959717,99.7109375 L171.959717,99.0634766 Z M179.392822,102.053223 C178.893471,102.35368 178.301029,102.503906 177.615479,102.503906 C176.688716,102.503906 175.940758,102.202396 175.371582,101.599365 C174.802406,100.996335 174.517822,100.214523 174.517822,99.2539062 C174.517822,98.1832629 174.824623,97.3231641 175.438232,96.673584 C176.051842,96.0240039 176.870682,95.6992188 177.894775,95.6992188 C178.466067,95.6992188 178.969643,95.805012 179.405518,96.0166016 L179.405518,97.0830078 C178.923093,96.7444645 178.406822,96.5751953 177.856689,96.5751953 C177.192298,96.5751953 176.647463,96.81323 176.222168,97.2893066 C175.796873,97.7653832 175.584229,98.3906211 175.584229,99.1650391 C175.584229,99.9267616 175.784178,100.527667 176.184082,100.967773 C176.583986,101.40788 177.120358,101.62793 177.793213,101.62793 C178.360273,101.62793 178.893471,101.439618 179.392822,101.062988 L179.392822,102.053223 Z M186.362549,102.351562 L184.902588,102.351562 L182.033447,99.2285156 L182.008057,99.2285156 L182.008057,102.351562 L180.967041,102.351562 L180.967041,92.7285156 L182.008057,92.7285156 L182.008057,98.8286133 L182.033447,98.8286133 L184.762939,95.8515625 L186.127686,95.8515625 L183.112549,98.9873047 L186.362549,102.351562 Z M187.962158,94.2011719 C187.775959,94.2011719 187.61727,94.1376959 187.486084,94.0107422 C187.354898,93.8837884 187.289307,93.7229827 187.289307,93.5283203 C187.289307,93.3336579 187.354898,93.1717943 187.486084,93.0427246 C187.61727,92.913655 187.775959,92.8491211 187.962158,92.8491211 C188.152589,92.8491211 188.314452,92.913655 188.447754,93.0427246 C188.581055,93.1717943 188.647705,93.3336579 188.647705,93.5283203 C188.647705,93.7145192 188.581055,93.873209 188.447754,94.0043945 C188.314452,94.1355801 188.152589,94.2011719 187.962158,94.2011719 Z M188.469971,102.351562 L187.428955,102.351562 L187.428955,95.8515625 L188.469971,95.8515625 L188.469971,102.351562 Z M195.9729,102.351562 L194.931885,102.351562 L194.931885,98.6445312 C194.931885,97.2649671 194.428309,96.5751953 193.421143,96.5751953 C192.900632,96.5751953 192.470054,96.7709128 192.129395,97.1623535 C191.788735,97.5537943 191.618408,98.0478486 191.618408,98.6445312 L191.618408,102.351562 L190.577393,102.351562 L190.577393,95.8515625 L191.618408,95.8515625 L191.618408,96.9306641 L191.643799,96.9306641 C192.134687,96.1096964 192.845617,95.6992188 193.776611,95.6992188 C194.487552,95.6992188 195.031329,95.92879 195.407959,96.3879395 C195.784588,96.8470889 195.9729,97.5104123 195.9729,98.3779297 L195.9729,102.351562 Z M203.482178,101.831055 C203.482178,104.217785 202.339611,105.411133 200.054443,105.411133 C199.250403,105.411133 198.547936,105.258791 197.947021,104.954102 L197.947021,103.913086 C198.679121,104.319338 199.377357,104.522461 200.041748,104.522461 C201.641365,104.522461 202.441162,103.671884 202.441162,101.970703 L202.441162,101.259766 L202.415771,101.259766 C201.920652,102.089197 201.175868,102.503906 200.181396,102.503906 C199.373124,102.503906 198.722496,102.215091 198.229492,101.637451 C197.736488,101.059812 197.48999,100.284347 197.48999,99.3110352 C197.48999,98.2065374 197.755531,97.3284538 198.286621,96.6767578 C198.817711,96.0250618 199.54451,95.6992188 200.467041,95.6992188 C201.343022,95.6992188 201.992592,96.0504522 202.415771,96.7529297 L202.441162,96.7529297 L202.441162,95.8515625 L203.482178,95.8515625 L203.482178,101.831055 Z M202.441162,99.4125977 L202.441162,98.4541016 C202.441162,97.9378229 202.266603,97.4956073 201.91748,97.1274414 C201.568358,96.7592755 201.133548,96.5751953 200.613037,96.5751953 C199.969805,96.5751953 199.466229,96.8089983 199.102295,97.2766113 C198.738361,97.7442243 198.556396,98.3990843 198.556396,99.2412109 C198.556396,99.9648474 198.730955,100.543536 199.080078,100.977295 C199.429201,101.411054 199.891517,101.62793 200.467041,101.62793 C201.051028,101.62793 201.52604,101.420575 201.89209,101.005859 C202.25814,100.591144 202.441162,100.060062 202.441162,99.4125977 Z M210.356689,98.9111328 L210.356689,102.351562 L209.290283,102.351562 L209.290283,93.2490234 L211.79126,93.2490234 C212.764572,93.2490234 213.518878,93.4860002 214.054199,93.9599609 C214.589521,94.4339216 214.857178,95.1025347 214.857178,95.9658203 C214.857178,96.8291059 214.559899,97.5358045 213.965332,98.0859375 C213.370765,98.6360705 212.567795,98.9111328 211.556396,98.9111328 L210.356689,98.9111328 Z M210.356689,94.2138672 L210.356689,97.9462891 L211.473877,97.9462891 C212.210209,97.9462891 212.771971,97.7780779 213.15918,97.4416504 C213.546389,97.1052229 213.73999,96.6302114 213.73999,96.0166016 C213.73999,94.8147726 213.02906,94.2138672 211.607178,94.2138672 L210.356689,94.2138672 Z M219.821045,96.9052734 C219.639078,96.7656243 219.376711,96.6958008 219.033936,96.6958008 C218.589597,96.6958008 218.218263,96.9052713 217.919922,97.3242188 C217.621581,97.7431662 217.472412,98.3144495 217.472412,99.0380859 L217.472412,102.351562 L216.431396,102.351562 L216.431396,95.8515625 L217.472412,95.8515625 L217.472412,97.190918 L217.497803,97.190918 C217.645915,96.7338844 217.872313,96.3773613 218.177002,96.1213379 C218.481691,95.8653145 218.822345,95.7373047 219.198975,95.7373047 C219.469809,95.7373047 219.677164,95.7669268 219.821045,95.8261719 L219.821045,96.9052734 Z M223.667725,102.503906 C222.707108,102.503906 221.940107,102.20028 221.366699,101.593018 C220.793291,100.985755 220.506592,100.180669 220.506592,99.1777344 C220.506592,98.085932 220.804929,97.2332387 221.401611,96.6196289 C221.998294,96.0060191 222.804438,95.6992188 223.820068,95.6992188 C224.789149,95.6992188 225.54557,95.9975556 226.089355,96.5942383 C226.633141,97.190921 226.905029,98.0182239 226.905029,99.0761719 C226.905029,100.112961 226.611982,100.943438 226.025879,101.567627 C225.439776,102.191816 224.653732,102.503906 223.667725,102.503906 Z M223.743896,96.5751953 C223.075273,96.5751953 222.546307,96.8026507 222.156982,97.2575684 C221.767658,97.712486 221.572998,98.3398398 221.572998,99.1396484 C221.572998,99.9098346 221.769773,100.517088 222.16333,100.961426 C222.556887,101.405764 223.083737,101.62793 223.743896,101.62793 C224.416751,101.62793 224.93408,101.409996 225.295898,100.974121 C225.657717,100.538247 225.838623,99.9182983 225.838623,99.1142578 C225.838623,98.3017538 225.657717,97.6754579 225.295898,97.2353516 C224.93408,96.7952452 224.416751,96.5751953 223.743896,96.5751953 Z M231.583252,102.288086 C231.337808,102.423503 231.014081,102.491211 230.612061,102.491211 C229.473709,102.491211 228.904541,101.856452 228.904541,100.586914 L228.904541,96.7402344 L227.787354,96.7402344 L227.787354,95.8515625 L228.904541,95.8515625 L228.904541,94.2646484 L229.945557,93.9282227 L229.945557,95.8515625 L231.583252,95.8515625 L231.583252,96.7402344 L229.945557,96.7402344 L229.945557,100.402832 C229.945557,100.838707 230.019612,101.149739 230.167725,101.335938 C230.315837,101.522136 230.561278,101.615234 230.904053,101.615234 C231.166424,101.615234 231.392821,101.543295 231.583252,101.399414 L231.583252,102.288086 Z M238.19751,99.3618164 L233.608154,99.3618164 C233.625081,100.085453 233.819741,100.644041 234.192139,101.037598 C234.564536,101.431154 235.076576,101.62793 235.728271,101.62793 C236.460371,101.62793 237.133216,101.386721 237.746826,100.904297 L237.746826,101.881836 C237.175534,102.296552 236.420171,102.503906 235.480713,102.503906 C234.562414,102.503906 233.840904,102.208743 233.316162,101.618408 C232.79142,101.028073 232.529053,100.197596 232.529053,99.1269531 C232.529053,98.1155548 232.815752,97.2914257 233.38916,96.654541 C233.962568,96.0176563 234.674556,95.6992188 235.525146,95.6992188 C236.375737,95.6992188 237.03377,95.9742811 237.499268,96.5244141 C237.964765,97.074547 238.19751,97.838374 238.19751,98.815918 L238.19751,99.3618164 Z M237.131104,98.4794922 C237.126872,97.8785777 236.981935,97.4109717 236.696289,97.0766602 C236.410643,96.7423486 236.013919,96.5751953 235.506104,96.5751953 C235.015216,96.5751953 234.59839,96.750812 234.255615,97.1020508 C233.91284,97.4532895 233.701254,97.9124321 233.62085,98.4794922 L237.131104,98.4794922 Z M244.202393,102.053223 C243.703041,102.35368 243.110599,102.503906 242.425049,102.503906 C241.498286,102.503906 240.750328,102.202396 240.181152,101.599365 C239.611976,100.996335 239.327393,100.214523 239.327393,99.2539062 C239.327393,98.1832629 239.634193,97.3231641 240.247803,96.673584 C240.861413,96.0240039 241.680252,95.6992188 242.704346,95.6992188 C243.275638,95.6992188 243.779213,95.805012 244.215088,96.0166016 L244.215088,97.0830078 C243.732664,96.7444645 243.216393,96.5751953 242.66626,96.5751953 C242.001868,96.5751953 241.457033,96.81323 241.031738,97.2893066 C240.606443,97.7653832 240.393799,98.3906211 240.393799,99.1650391 C240.393799,99.9267616 240.593748,100.527667 240.993652,100.967773 C241.393557,101.40788 241.929928,101.62793 242.602783,101.62793 C243.169843,101.62793 243.703041,101.439618 244.202393,101.062988 L244.202393,102.053223 Z M248.791748,102.288086 C248.546304,102.423503 248.222577,102.491211 247.820557,102.491211 C246.682205,102.491211 246.113037,101.856452 246.113037,100.586914 L246.113037,96.7402344 L244.99585,96.7402344 L244.99585,95.8515625 L246.113037,95.8515625 L246.113037,94.2646484 L247.154053,93.9282227 L247.154053,95.8515625 L248.791748,95.8515625 L248.791748,96.7402344 L247.154053,96.7402344 L247.154053,100.402832 C247.154053,100.838707 247.228108,101.149739 247.376221,101.335938 C247.524333,101.522136 247.769774,101.615234 248.112549,101.615234 C248.37492,101.615234 248.601317,101.543295 248.791748,101.399414 L248.791748,102.288086 Z M250.715088,94.2011719 C250.528889,94.2011719 250.370199,94.1376959 250.239014,94.0107422 C250.107828,93.8837884 250.042236,93.7229827 250.042236,93.5283203 C250.042236,93.3336579 250.107828,93.1717943 250.239014,93.0427246 C250.370199,92.913655 250.528889,92.8491211 250.715088,92.8491211 C250.905519,92.8491211 251.067382,92.913655 251.200684,93.0427246 C251.333985,93.1717943 251.400635,93.3336579 251.400635,93.5283203 C251.400635,93.7145192 251.333985,93.873209 251.200684,94.0043945 C251.067382,94.1355801 250.905519,94.2011719 250.715088,94.2011719 Z M251.2229,102.351562 L250.181885,102.351562 L250.181885,95.8515625 L251.2229,95.8515625 L251.2229,102.351562 Z M256.047119,102.503906 C255.086502,102.503906 254.319502,102.20028 253.746094,101.593018 C253.172686,100.985755 252.885986,100.180669 252.885986,99.1777344 C252.885986,98.085932 253.184323,97.2332387 253.781006,96.6196289 C254.377689,96.0060191 255.183833,95.6992188 256.199463,95.6992188 C257.168543,95.6992188 257.924965,95.9975556 258.46875,96.5942383 C259.012535,97.190921 259.284424,98.0182239 259.284424,99.0761719 C259.284424,100.112961 258.991377,100.943438 258.405273,101.567627 C257.81917,102.191816 257.033127,102.503906 256.047119,102.503906 Z M256.123291,96.5751953 C255.454668,96.5751953 254.925702,96.8026507 254.536377,97.2575684 C254.147052,97.712486 253.952393,98.3398398 253.952393,99.1396484 C253.952393,99.9098346 254.149168,100.517088 254.542725,100.961426 C254.936281,101.405764 255.463131,101.62793 256.123291,101.62793 C256.796146,101.62793 257.313475,101.409996 257.675293,100.974121 C258.037111,100.538247 258.218018,99.9182983 258.218018,99.1142578 C258.218018,98.3017538 258.037111,97.6754579 257.675293,97.2353516 C257.313475,96.7952452 256.796146,96.5751953 256.123291,96.5751953 Z M266.343018,102.351562 L265.302002,102.351562 L265.302002,98.6445312 C265.302002,97.2649671 264.798426,96.5751953 263.79126,96.5751953 C263.270749,96.5751953 262.840171,96.7709128 262.499512,97.1623535 C262.158852,97.5537943 261.988525,98.0478486 261.988525,98.6445312 L261.988525,102.351562 L260.94751,102.351562 L260.94751,95.8515625 L261.988525,95.8515625 L261.988525,96.9306641 L262.013916,96.9306641 C262.504804,96.1096964 263.215734,95.6992188 264.146729,95.6992188 C264.85767,95.6992188 265.401447,95.92879 265.778076,96.3879395 C266.154706,96.8470889 266.343018,97.5104123 266.343018,98.3779297 L266.343018,102.351562 Z M268.66626,102.491211 C268.471597,102.491211 268.305502,102.421387 268.167969,102.281738 C268.030436,102.142089 267.96167,101.974936 267.96167,101.780273 C267.96167,101.585611 268.030436,101.4174 268.167969,101.275635 C268.305502,101.13387 268.471597,101.062988 268.66626,101.062988 C268.865154,101.062988 269.034423,101.13387 269.174072,101.275635 C269.313721,101.4174 269.383545,101.585611 269.383545,101.780273 C269.383545,101.974936 269.313721,102.142089 269.174072,102.281738 C269.034423,102.421387 268.865154,102.491211 268.66626,102.491211 Z"/>
</svg>
