<?xml version="1.0" encoding="utf-8"?>
<!-- Generator: Adobe Illustrator 21.0.1, SVG Export Plug-In . SVG Version: 6.00 Build 0)  -->
<svg version="1.1" id="Layer_1" xmlns="http://www.w3.org/2000/svg" xmlns:xlink="http://www.w3.org/1999/xlink" x="0px" y="0px"
	 viewBox="0 0 100 100" enable-background="new 0 0 100 100" xml:space="preserve">
<g id="BG">
	<rect opacity="5.000000e-02" fill="#25003E" enable-background="new    " width="100" height="100"/>
</g>
<g id="Grid">
	<rect id="bg-white" x="10" y="10" fill="#FFFFFF" width="80" height="80"/>
	<g id="Layer_1_copy_3">
		<g>
			<g>
				<g opacity="0.5">
					<path fill="#00FEFF" d="M85,15v70H15V15H85 M90,10H10v80h80V10L90,10z"/>
				</g>
			</g>
			<g>
				<path opacity="0.1" fill="#FF00FF" enable-background="new    " d="M80,84.9H20c-2.7,0-5-2.3-5-5v-60c0-2.7,2.3-5,5-5h60
					c2.7,0,5,2.3,5,5v60C85,82.7,82.8,84.9,80,84.9z"/>
				<g opacity="0.5">
					<path fill="#FF00FF" d="M80,15.2c2.6,0,4.7,2.1,4.7,4.7v60c0,2.6-2.1,4.7-4.7,4.7H20c-2.6,0-4.7-2.1-4.7-4.7v-60
						c0-2.6,2.1-4.7,4.7-4.7L80,15.2 M80,15H20c-2.7,0-5,2.3-5,5v60c0,2.7,2.3,5,5,5h60c2.7,0,5-2.3,5-5V20C85,17.2,82.8,15,80,15
						L80,15z"/>
				</g>
			</g>
			<g>
				<path opacity="0.1" fill="#FF00FF" enable-background="new    " d="M85,80H15c-2.7,0-5-2.3-5-5V24.9c0-2.7,2.3-5,5-5h70
					c2.7,0,5,2.3,5,5v50C90,77.7,87.7,80,85,80z"/>
				<g opacity="0.5">
					<path fill="#FF00FF" d="M85,20.2c2.6,0,4.7,2.1,4.7,4.7v50c0,2.6-2.1,4.7-4.7,4.7H15c-2.6,0-4.7-2.1-4.7-4.7v-50
						c0-2.6,2.1-4.7,4.7-4.7H85 M85,19.9H15c-2.7,0-5,2.3-5,5v50c0,2.7,2.3,5,5,5h70c2.7,0,5-2.3,5-5v-50C90,22.2,87.7,19.9,85,19.9
						L85,19.9z"/>
				</g>
			</g>
			<g>
				<path opacity="0.1" fill="#FF00FF" enable-background="new    " d="M75,89.9H25c-2.7,0-5-2.3-5-5V15c0-2.7,2.3-5,5-5h50
					c2.7,0,5,2.3,5,5v70C80,87.7,77.7,89.9,75,89.9z"/>
				<g opacity="0.5">
					<path fill="#FF00FF" d="M75,10.2c2.6,0,4.7,2.1,4.7,4.7v70c0,2.6-2.1,4.7-4.7,4.7H25c-2.6,0-4.7-2.1-4.7-4.7V15
						c0-2.6,2.1-4.7,4.7-4.7h50 M75,10H25c-2.7,0-5,2.3-5,5v70c0,2.7,2.3,5,5,5h50c2.7,0,5-2.3,5-5V15C80,12.1,77.7,10,75,10L75,10z
						"/>
				</g>
			</g>
			<rect x="20" y="19.9" opacity="0.5" fill="#FF00FF" enable-background="new    " width="60" height="60"/>
			<g opacity="0.4">
				<g opacity="0.2">
					<rect x="10.2" y="10.2" fill="none" stroke="#000F40" stroke-width="0.1" stroke-miterlimit="10" width="5" height="5"/>
					<rect x="15.2" y="10.2" fill="none" stroke="#000F40" stroke-width="0.1" stroke-miterlimit="10" width="5" height="5"/>
					<rect x="20.2" y="10.2" fill="none" stroke="#000F40" stroke-width="0.1" stroke-miterlimit="10" width="5" height="5"/>
					<rect x="25.1" y="10.2" fill="none" stroke="#000F40" stroke-width="0.1" stroke-miterlimit="10" width="5" height="5"/>
					<rect x="30.1" y="10.2" fill="none" stroke="#000F40" stroke-width="0.1" stroke-miterlimit="10" width="5" height="5"/>
					<rect x="35" y="10.2" fill="none" stroke="#000F40" stroke-width="0.1" stroke-miterlimit="10" width="5" height="5"/>
					<rect x="40" y="10.2" fill="none" stroke="#000F40" stroke-width="0.1" stroke-miterlimit="10" width="5" height="5"/>
					<rect x="45" y="10.2" fill="none" stroke="#000F40" stroke-width="0.1" stroke-miterlimit="10" width="5" height="5"/>
					<rect x="50.1" y="10.2" fill="none" stroke="#000F40" stroke-width="0.1" stroke-miterlimit="10" width="5" height="5"/>
					<rect x="55" y="10.2" fill="none" stroke="#000F40" stroke-width="0.1" stroke-miterlimit="10" width="5" height="5"/>
					<rect x="60" y="10.2" fill="none" stroke="#000F40" stroke-width="0.1" stroke-miterlimit="10" width="5" height="5"/>
					<rect x="65" y="10.2" fill="none" stroke="#000F40" stroke-width="0.1" stroke-miterlimit="10" width="5" height="5"/>
					<rect x="69.9" y="10.2" fill="none" stroke="#000F40" stroke-width="0.1" stroke-miterlimit="10" width="5" height="5"/>
					<rect x="74.9" y="10.2" fill="none" stroke="#000F40" stroke-width="0.1" stroke-miterlimit="10" width="5" height="5"/>
					<rect x="79.8" y="10.2" fill="none" stroke="#000F40" stroke-width="0.1" stroke-miterlimit="10" width="5" height="5"/>
					<rect x="84.8" y="10.2" fill="none" stroke="#000F40" stroke-width="0.1" stroke-miterlimit="10" width="5" height="5"/>
					<rect x="10.2" y="15.2" fill="none" stroke="#000F40" stroke-width="0.1" stroke-miterlimit="10" width="5" height="5"/>
					<rect x="15.2" y="15.2" fill="none" stroke="#000F40" stroke-width="0.1" stroke-miterlimit="10" width="5" height="5"/>
					<rect x="20.2" y="15.2" fill="none" stroke="#000F40" stroke-width="0.1" stroke-miterlimit="10" width="5" height="5"/>
					<rect x="25.1" y="15.2" fill="none" stroke="#000F40" stroke-width="0.1" stroke-miterlimit="10" width="5" height="5"/>
					<rect x="30.1" y="15.2" fill="none" stroke="#000F40" stroke-width="0.1" stroke-miterlimit="10" width="5" height="5"/>
					<rect x="35" y="15.2" fill="none" stroke="#000F40" stroke-width="0.1" stroke-miterlimit="10" width="5" height="5"/>
					<rect x="40" y="15.2" fill="none" stroke="#000F40" stroke-width="0.1" stroke-miterlimit="10" width="5" height="5"/>
					<rect x="45" y="15.2" fill="none" stroke="#000F40" stroke-width="0.1" stroke-miterlimit="10" width="5" height="5"/>
					<rect x="50.1" y="15.2" fill="none" stroke="#000F40" stroke-width="0.1" stroke-miterlimit="10" width="5" height="5"/>
					<rect x="55" y="15.2" fill="none" stroke="#000F40" stroke-width="0.1" stroke-miterlimit="10" width="5" height="5"/>
					<rect x="60" y="15.2" fill="none" stroke="#000F40" stroke-width="0.1" stroke-miterlimit="10" width="5" height="5"/>
					<rect x="65" y="15.2" fill="none" stroke="#000F40" stroke-width="0.1" stroke-miterlimit="10" width="5" height="5"/>
					<rect x="69.9" y="15.2" fill="none" stroke="#000F40" stroke-width="0.1" stroke-miterlimit="10" width="5" height="5"/>
					<rect x="74.9" y="15.2" fill="none" stroke="#000F40" stroke-width="0.1" stroke-miterlimit="10" width="5" height="5"/>
					<rect x="79.8" y="15.2" fill="none" stroke="#000F40" stroke-width="0.1" stroke-miterlimit="10" width="5" height="5"/>
					<rect x="84.8" y="15.2" fill="none" stroke="#000F40" stroke-width="0.1" stroke-miterlimit="10" width="5" height="5"/>
					<rect x="10.2" y="20.2" fill="none" stroke="#000F40" stroke-width="0.1" stroke-miterlimit="10" width="5" height="5"/>
					<rect x="15.2" y="20.2" fill="none" stroke="#000F40" stroke-width="0.1" stroke-miterlimit="10" width="5" height="5"/>
					<rect x="20.2" y="20.2" fill="none" stroke="#000F40" stroke-width="0.1" stroke-miterlimit="10" width="5" height="5"/>
					<rect x="25.1" y="20.2" fill="none" stroke="#000F40" stroke-width="0.1" stroke-miterlimit="10" width="5" height="5"/>
					<rect x="30.1" y="20.2" fill="none" stroke="#000F40" stroke-width="0.1" stroke-miterlimit="10" width="5" height="5"/>
					<rect x="35" y="20.2" fill="none" stroke="#000F40" stroke-width="0.1" stroke-miterlimit="10" width="5" height="5"/>
					<rect x="40" y="20.2" fill="none" stroke="#000F40" stroke-width="0.1" stroke-miterlimit="10" width="5" height="5"/>
					<rect x="45" y="20.2" fill="none" stroke="#000F40" stroke-width="0.1" stroke-miterlimit="10" width="5" height="5"/>
					<rect x="50.1" y="20.2" fill="none" stroke="#000F40" stroke-width="0.1" stroke-miterlimit="10" width="5" height="5"/>
					<rect x="55" y="20.2" fill="none" stroke="#000F40" stroke-width="0.1" stroke-miterlimit="10" width="5" height="5"/>
					<rect x="60" y="20.2" fill="none" stroke="#000F40" stroke-width="0.1" stroke-miterlimit="10" width="5" height="5"/>
					<rect x="65" y="20.2" fill="none" stroke="#000F40" stroke-width="0.1" stroke-miterlimit="10" width="5" height="5"/>
					<rect x="69.9" y="20.2" fill="none" stroke="#000F40" stroke-width="0.1" stroke-miterlimit="10" width="5" height="5"/>
					<rect x="74.9" y="20.2" fill="none" stroke="#000F40" stroke-width="0.1" stroke-miterlimit="10" width="5" height="5"/>
					<rect x="79.8" y="20.2" fill="none" stroke="#000F40" stroke-width="0.1" stroke-miterlimit="10" width="5" height="5"/>
					<rect x="84.8" y="20.2" fill="none" stroke="#000F40" stroke-width="0.1" stroke-miterlimit="10" width="5" height="5"/>
					<rect x="10.2" y="25.1" fill="none" stroke="#000F40" stroke-width="0.1" stroke-miterlimit="10" width="5" height="5"/>
					<rect x="15.2" y="25.1" fill="none" stroke="#000F40" stroke-width="0.1" stroke-miterlimit="10" width="5" height="5"/>
					<rect x="20.2" y="25.1" fill="none" stroke="#000F40" stroke-width="0.1" stroke-miterlimit="10" width="5" height="5"/>
					<rect x="25.1" y="25.1" fill="none" stroke="#000F40" stroke-width="0.1" stroke-miterlimit="10" width="5" height="5"/>
					<rect x="30.1" y="25.1" fill="none" stroke="#000F40" stroke-width="0.1" stroke-miterlimit="10" width="5" height="5"/>
					<rect x="35" y="25.1" fill="none" stroke="#000F40" stroke-width="0.1" stroke-miterlimit="10" width="5" height="5"/>
					<rect x="40" y="25.1" fill="none" stroke="#000F40" stroke-width="0.1" stroke-miterlimit="10" width="5" height="5"/>
					<rect x="45" y="25.1" fill="none" stroke="#000F40" stroke-width="0.1" stroke-miterlimit="10" width="5" height="5"/>
					<rect x="50.1" y="25.1" fill="none" stroke="#000F40" stroke-width="0.1" stroke-miterlimit="10" width="5" height="5"/>
					<rect x="55" y="25.1" fill="none" stroke="#000F40" stroke-width="0.1" stroke-miterlimit="10" width="5" height="5"/>
					<rect x="60" y="25.1" fill="none" stroke="#000F40" stroke-width="0.1" stroke-miterlimit="10" width="5" height="5"/>
					<rect x="65" y="25.1" fill="none" stroke="#000F40" stroke-width="0.1" stroke-miterlimit="10" width="5" height="5"/>
					<rect x="69.9" y="25.1" fill="none" stroke="#000F40" stroke-width="0.1" stroke-miterlimit="10" width="5" height="5"/>
					<rect x="74.9" y="25.1" fill="none" stroke="#000F40" stroke-width="0.1" stroke-miterlimit="10" width="5" height="5"/>
					<rect x="79.8" y="25.1" fill="none" stroke="#000F40" stroke-width="0.1" stroke-miterlimit="10" width="5" height="5"/>
					<rect x="84.8" y="25.1" fill="none" stroke="#000F40" stroke-width="0.1" stroke-miterlimit="10" width="5" height="5"/>
					<rect x="10.2" y="30.1" fill="none" stroke="#000F40" stroke-width="0.1" stroke-miterlimit="10" width="5" height="5"/>
					<rect x="15.2" y="30.1" fill="none" stroke="#000F40" stroke-width="0.1" stroke-miterlimit="10" width="5" height="5"/>
					<rect x="20.2" y="30.1" fill="none" stroke="#000F40" stroke-width="0.1" stroke-miterlimit="10" width="5" height="5"/>
					<rect x="25.1" y="30.1" fill="none" stroke="#000F40" stroke-width="0.1" stroke-miterlimit="10" width="5" height="5"/>
					<rect x="30.1" y="30.1" fill="none" stroke="#000F40" stroke-width="0.1" stroke-miterlimit="10" width="5" height="5"/>
					<rect x="35" y="30.1" fill="none" stroke="#000F40" stroke-width="0.1" stroke-miterlimit="10" width="5" height="5"/>
					<rect x="40" y="30.1" fill="none" stroke="#000F40" stroke-width="0.1" stroke-miterlimit="10" width="5" height="5"/>
					<rect x="45" y="30.1" fill="none" stroke="#000F40" stroke-width="0.1" stroke-miterlimit="10" width="5" height="5"/>
					<rect x="50.1" y="30.1" fill="none" stroke="#000F40" stroke-width="0.1" stroke-miterlimit="10" width="5" height="5"/>
					<rect x="55" y="30.1" fill="none" stroke="#000F40" stroke-width="0.1" stroke-miterlimit="10" width="5" height="5"/>
					<rect x="60" y="30.1" fill="none" stroke="#000F40" stroke-width="0.1" stroke-miterlimit="10" width="5" height="5"/>
					<rect x="65" y="30.1" fill="none" stroke="#000F40" stroke-width="0.1" stroke-miterlimit="10" width="5" height="5"/>
					<rect x="69.9" y="30.1" fill="none" stroke="#000F40" stroke-width="0.1" stroke-miterlimit="10" width="5" height="5"/>
					<rect x="74.9" y="30.1" fill="none" stroke="#000F40" stroke-width="0.1" stroke-miterlimit="10" width="5" height="5"/>
					<rect x="79.8" y="30.1" fill="none" stroke="#000F40" stroke-width="0.1" stroke-miterlimit="10" width="5" height="5"/>
					<rect x="84.8" y="30.1" fill="none" stroke="#000F40" stroke-width="0.1" stroke-miterlimit="10" width="5" height="5"/>
					<rect x="10.2" y="35" fill="none" stroke="#000F40" stroke-width="0.1" stroke-miterlimit="10" width="5" height="5"/>
					<rect x="15.2" y="35" fill="none" stroke="#000F40" stroke-width="0.1" stroke-miterlimit="10" width="5" height="5"/>
					<rect x="20.2" y="35" fill="none" stroke="#000F40" stroke-width="0.1" stroke-miterlimit="10" width="5" height="5"/>
					<rect x="25.1" y="35" fill="none" stroke="#000F40" stroke-width="0.1" stroke-miterlimit="10" width="5" height="5"/>
					<rect x="30.1" y="35" fill="none" stroke="#000F40" stroke-width="0.1" stroke-miterlimit="10" width="5" height="5"/>
					<rect x="35" y="35" fill="none" stroke="#000F40" stroke-width="0.1" stroke-miterlimit="10" width="5" height="5"/>
					<rect x="40" y="35" fill="none" stroke="#000F40" stroke-width="0.1" stroke-miterlimit="10" width="5" height="5"/>
					<rect x="45" y="35" fill="none" stroke="#000F40" stroke-width="0.1" stroke-miterlimit="10" width="5" height="5"/>
					<rect x="50.1" y="35" fill="none" stroke="#000F40" stroke-width="0.1" stroke-miterlimit="10" width="5" height="5"/>
					<rect x="55" y="35" fill="none" stroke="#000F40" stroke-width="0.1" stroke-miterlimit="10" width="5" height="5"/>
					<rect x="60" y="35" fill="none" stroke="#000F40" stroke-width="0.1" stroke-miterlimit="10" width="5" height="5"/>
					<rect x="65" y="35" fill="none" stroke="#000F40" stroke-width="0.1" stroke-miterlimit="10" width="5" height="5"/>
					<rect x="69.9" y="35" fill="none" stroke="#000F40" stroke-width="0.1" stroke-miterlimit="10" width="5" height="5"/>
					<rect x="74.9" y="35" fill="none" stroke="#000F40" stroke-width="0.1" stroke-miterlimit="10" width="5" height="5"/>
					<rect x="79.8" y="35" fill="none" stroke="#000F40" stroke-width="0.1" stroke-miterlimit="10" width="5" height="5"/>
					<rect x="84.8" y="35" fill="none" stroke="#000F40" stroke-width="0.1" stroke-miterlimit="10" width="5" height="5"/>
					<rect x="10.2" y="40" fill="none" stroke="#000F40" stroke-width="0.1" stroke-miterlimit="10" width="5" height="5"/>
					<rect x="15.2" y="40" fill="none" stroke="#000F40" stroke-width="0.1" stroke-miterlimit="10" width="5" height="5"/>
					<rect x="20.2" y="40" fill="none" stroke="#000F40" stroke-width="0.1" stroke-miterlimit="10" width="5" height="5"/>
					<rect x="25.1" y="40" fill="none" stroke="#000F40" stroke-width="0.1" stroke-miterlimit="10" width="5" height="5"/>
					<rect x="30.1" y="40" fill="none" stroke="#000F40" stroke-width="0.1" stroke-miterlimit="10" width="5" height="5"/>
					<rect x="35" y="40" fill="none" stroke="#000F40" stroke-width="0.1" stroke-miterlimit="10" width="5" height="5"/>
					<rect x="40" y="40" fill="none" stroke="#000F40" stroke-width="0.1" stroke-miterlimit="10" width="5" height="5"/>
					<rect x="45" y="40" fill="none" stroke="#000F40" stroke-width="0.1" stroke-miterlimit="10" width="5" height="5"/>
					<rect x="50.1" y="40" fill="none" stroke="#000F40" stroke-width="0.1" stroke-miterlimit="10" width="5" height="5"/>
					<rect x="55" y="40" fill="none" stroke="#000F40" stroke-width="0.1" stroke-miterlimit="10" width="5" height="5"/>
					<rect x="60" y="40" fill="none" stroke="#000F40" stroke-width="0.1" stroke-miterlimit="10" width="5" height="5"/>
					<rect x="65" y="40" fill="none" stroke="#000F40" stroke-width="0.1" stroke-miterlimit="10" width="5" height="5"/>
					<rect x="69.9" y="40" fill="none" stroke="#000F40" stroke-width="0.1" stroke-miterlimit="10" width="5" height="5"/>
					<rect x="74.9" y="40" fill="none" stroke="#000F40" stroke-width="0.1" stroke-miterlimit="10" width="5" height="5"/>
					<rect x="79.8" y="40" fill="none" stroke="#000F40" stroke-width="0.1" stroke-miterlimit="10" width="5" height="5"/>
					<rect x="84.8" y="40" fill="none" stroke="#000F40" stroke-width="0.1" stroke-miterlimit="10" width="5" height="5"/>
					<rect x="10.2" y="45" fill="none" stroke="#000F40" stroke-width="0.1" stroke-miterlimit="10" width="5" height="5"/>
					<rect x="15.2" y="45" fill="none" stroke="#000F40" stroke-width="0.1" stroke-miterlimit="10" width="5" height="5"/>
					<rect x="20.2" y="45" fill="none" stroke="#000F40" stroke-width="0.1" stroke-miterlimit="10" width="5" height="5"/>
					<rect x="25.1" y="45" fill="none" stroke="#000F40" stroke-width="0.1" stroke-miterlimit="10" width="5" height="5"/>
					<rect x="30.1" y="45" fill="none" stroke="#000F40" stroke-width="0.1" stroke-miterlimit="10" width="5" height="5"/>
					<rect x="35" y="45" fill="none" stroke="#000F40" stroke-width="0.1" stroke-miterlimit="10" width="5" height="5"/>
					<rect x="40" y="45" fill="none" stroke="#000F40" stroke-width="0.1" stroke-miterlimit="10" width="5" height="5"/>
					<rect x="45" y="45" fill="none" stroke="#000F40" stroke-width="0.1" stroke-miterlimit="10" width="5" height="5"/>
					<rect x="50.1" y="45" fill="none" stroke="#000F40" stroke-width="0.1" stroke-miterlimit="10" width="5" height="5"/>
					<rect x="55" y="45" fill="none" stroke="#000F40" stroke-width="0.1" stroke-miterlimit="10" width="5" height="5"/>
					<rect x="60" y="45" fill="none" stroke="#000F40" stroke-width="0.1" stroke-miterlimit="10" width="5" height="5"/>
					<rect x="65" y="45" fill="none" stroke="#000F40" stroke-width="0.1" stroke-miterlimit="10" width="5" height="5"/>
					<rect x="69.9" y="45" fill="none" stroke="#000F40" stroke-width="0.1" stroke-miterlimit="10" width="5" height="5"/>
					<rect x="74.9" y="45" fill="none" stroke="#000F40" stroke-width="0.1" stroke-miterlimit="10" width="5" height="5"/>
					<rect x="79.8" y="45" fill="none" stroke="#000F40" stroke-width="0.1" stroke-miterlimit="10" width="5" height="5"/>
					<rect x="84.8" y="45" fill="none" stroke="#000F40" stroke-width="0.1" stroke-miterlimit="10" width="5" height="5"/>
					<rect x="10.2" y="49.9" fill="none" stroke="#000F40" stroke-width="0.1" stroke-miterlimit="10" width="5" height="5"/>
					<rect x="15.2" y="49.9" fill="none" stroke="#000F40" stroke-width="0.1" stroke-miterlimit="10" width="5" height="5"/>
					<rect x="20.2" y="49.9" fill="none" stroke="#000F40" stroke-width="0.1" stroke-miterlimit="10" width="5" height="5"/>
					<rect x="25.1" y="49.9" fill="none" stroke="#000F40" stroke-width="0.1" stroke-miterlimit="10" width="5" height="5"/>
					<rect x="30.1" y="49.9" fill="none" stroke="#000F40" stroke-width="0.1" stroke-miterlimit="10" width="5" height="5"/>
					<rect x="35" y="49.9" fill="none" stroke="#000F40" stroke-width="0.1" stroke-miterlimit="10" width="5" height="5"/>
					<rect x="40" y="49.9" fill="none" stroke="#000F40" stroke-width="0.1" stroke-miterlimit="10" width="5" height="5"/>
					<rect x="45" y="49.9" fill="none" stroke="#000F40" stroke-width="0.1" stroke-miterlimit="10" width="5" height="5"/>
					<rect x="50.1" y="49.9" fill="none" stroke="#000F40" stroke-width="0.1" stroke-miterlimit="10" width="5" height="5"/>
					<rect x="55" y="49.9" fill="none" stroke="#000F40" stroke-width="0.1" stroke-miterlimit="10" width="5" height="5"/>
					<rect x="60" y="49.9" fill="none" stroke="#000F40" stroke-width="0.1" stroke-miterlimit="10" width="5" height="5"/>
					<rect x="65" y="49.9" fill="none" stroke="#000F40" stroke-width="0.1" stroke-miterlimit="10" width="5" height="5"/>
					<rect x="69.9" y="49.9" fill="none" stroke="#000F40" stroke-width="0.1" stroke-miterlimit="10" width="5" height="5"/>
					<rect x="74.9" y="49.9" fill="none" stroke="#000F40" stroke-width="0.1" stroke-miterlimit="10" width="5" height="5"/>
					<rect x="79.8" y="49.9" fill="none" stroke="#000F40" stroke-width="0.1" stroke-miterlimit="10" width="5" height="5"/>
					<rect x="84.8" y="49.9" fill="none" stroke="#000F40" stroke-width="0.1" stroke-miterlimit="10" width="5" height="5"/>
					<rect x="10.2" y="54.9" fill="none" stroke="#000F40" stroke-width="0.1" stroke-miterlimit="10" width="5" height="5"/>
					<rect x="15.2" y="54.9" fill="none" stroke="#000F40" stroke-width="0.1" stroke-miterlimit="10" width="5" height="5"/>
					<rect x="20.2" y="54.9" fill="none" stroke="#000F40" stroke-width="0.1" stroke-miterlimit="10" width="5" height="5"/>
					<rect x="25.1" y="54.9" fill="none" stroke="#000F40" stroke-width="0.1" stroke-miterlimit="10" width="5" height="5"/>
					<rect x="30.1" y="54.9" fill="none" stroke="#000F40" stroke-width="0.1" stroke-miterlimit="10" width="5" height="5"/>
					<rect x="35" y="54.9" fill="none" stroke="#000F40" stroke-width="0.1" stroke-miterlimit="10" width="5" height="5"/>
					<rect x="40" y="54.9" fill="none" stroke="#000F40" stroke-width="0.1" stroke-miterlimit="10" width="5" height="5"/>
					<rect x="45" y="54.9" fill="none" stroke="#000F40" stroke-width="0.1" stroke-miterlimit="10" width="5" height="5"/>
					<rect x="50.1" y="54.9" fill="none" stroke="#000F40" stroke-width="0.1" stroke-miterlimit="10" width="5" height="5"/>
					<rect x="55" y="54.9" fill="none" stroke="#000F40" stroke-width="0.1" stroke-miterlimit="10" width="5" height="5"/>
					<rect x="60" y="54.9" fill="none" stroke="#000F40" stroke-width="0.1" stroke-miterlimit="10" width="5" height="5"/>
					<rect x="65" y="54.9" fill="none" stroke="#000F40" stroke-width="0.1" stroke-miterlimit="10" width="5" height="5"/>
					<rect x="69.9" y="54.9" fill="none" stroke="#000F40" stroke-width="0.1" stroke-miterlimit="10" width="5" height="5"/>
					<rect x="74.9" y="54.9" fill="none" stroke="#000F40" stroke-width="0.1" stroke-miterlimit="10" width="5" height="5"/>
					<rect x="79.8" y="54.9" fill="none" stroke="#000F40" stroke-width="0.1" stroke-miterlimit="10" width="5" height="5"/>
					<rect x="84.8" y="54.9" fill="none" stroke="#000F40" stroke-width="0.1" stroke-miterlimit="10" width="5" height="5"/>
					<rect x="10.2" y="59.9" fill="none" stroke="#000F40" stroke-width="0.1" stroke-miterlimit="10" width="5" height="5"/>
					<rect x="15.2" y="59.9" fill="none" stroke="#000F40" stroke-width="0.1" stroke-miterlimit="10" width="5" height="5"/>
					<rect x="20.2" y="59.9" fill="none" stroke="#000F40" stroke-width="0.1" stroke-miterlimit="10" width="5" height="5"/>
					<rect x="25.1" y="59.9" fill="none" stroke="#000F40" stroke-width="0.1" stroke-miterlimit="10" width="5" height="5"/>
					<rect x="30.1" y="59.9" fill="none" stroke="#000F40" stroke-width="0.1" stroke-miterlimit="10" width="5" height="5"/>
					<rect x="35" y="59.9" fill="none" stroke="#000F40" stroke-width="0.1" stroke-miterlimit="10" width="5" height="5"/>
					<rect x="40" y="59.9" fill="none" stroke="#000F40" stroke-width="0.1" stroke-miterlimit="10" width="5" height="5"/>
					<rect x="45" y="59.9" fill="none" stroke="#000F40" stroke-width="0.1" stroke-miterlimit="10" width="5" height="5"/>
					<rect x="50.1" y="59.9" fill="none" stroke="#000F40" stroke-width="0.1" stroke-miterlimit="10" width="5" height="5"/>
					<rect x="55" y="59.9" fill="none" stroke="#000F40" stroke-width="0.1" stroke-miterlimit="10" width="5" height="5"/>
					<rect x="60" y="59.9" fill="none" stroke="#000F40" stroke-width="0.1" stroke-miterlimit="10" width="5" height="5"/>
					<rect x="65" y="59.9" fill="none" stroke="#000F40" stroke-width="0.1" stroke-miterlimit="10" width="5" height="5"/>
					<rect x="69.9" y="59.9" fill="none" stroke="#000F40" stroke-width="0.1" stroke-miterlimit="10" width="5" height="5"/>
					<rect x="74.9" y="59.9" fill="none" stroke="#000F40" stroke-width="0.1" stroke-miterlimit="10" width="5" height="5"/>
					<rect x="79.8" y="59.9" fill="none" stroke="#000F40" stroke-width="0.1" stroke-miterlimit="10" width="5" height="5"/>
					<rect x="84.8" y="59.9" fill="none" stroke="#000F40" stroke-width="0.1" stroke-miterlimit="10" width="5" height="5"/>
					<rect x="10.2" y="64.8" fill="none" stroke="#000F40" stroke-width="0.1" stroke-miterlimit="10" width="5" height="5"/>
					<rect x="15.2" y="64.8" fill="none" stroke="#000F40" stroke-width="0.1" stroke-miterlimit="10" width="5" height="5"/>
					<rect x="20.2" y="64.8" fill="none" stroke="#000F40" stroke-width="0.1" stroke-miterlimit="10" width="5" height="5"/>
					<rect x="25.1" y="64.8" fill="none" stroke="#000F40" stroke-width="0.1" stroke-miterlimit="10" width="5" height="5"/>
					<rect x="30.1" y="64.8" fill="none" stroke="#000F40" stroke-width="0.1" stroke-miterlimit="10" width="5" height="5"/>
					<rect x="35" y="64.8" fill="none" stroke="#000F40" stroke-width="0.1" stroke-miterlimit="10" width="5" height="5"/>
					<rect x="40" y="64.8" fill="none" stroke="#000F40" stroke-width="0.1" stroke-miterlimit="10" width="5" height="5"/>
					<rect x="45" y="64.8" fill="none" stroke="#000F40" stroke-width="0.1" stroke-miterlimit="10" width="5" height="5"/>
					<rect x="50.1" y="64.8" fill="none" stroke="#000F40" stroke-width="0.1" stroke-miterlimit="10" width="5" height="5"/>
					<rect x="55" y="64.8" fill="none" stroke="#000F40" stroke-width="0.1" stroke-miterlimit="10" width="5" height="5"/>
					<rect x="60" y="64.8" fill="none" stroke="#000F40" stroke-width="0.1" stroke-miterlimit="10" width="5" height="5"/>
					<rect x="65" y="64.8" fill="none" stroke="#000F40" stroke-width="0.1" stroke-miterlimit="10" width="5" height="5"/>
					<rect x="69.9" y="64.8" fill="none" stroke="#000F40" stroke-width="0.1" stroke-miterlimit="10" width="5" height="5"/>
					<rect x="74.9" y="64.8" fill="none" stroke="#000F40" stroke-width="0.1" stroke-miterlimit="10" width="5" height="5"/>
					<rect x="79.8" y="64.8" fill="none" stroke="#000F40" stroke-width="0.1" stroke-miterlimit="10" width="5" height="5"/>
					<rect x="84.8" y="64.8" fill="none" stroke="#000F40" stroke-width="0.1" stroke-miterlimit="10" width="5" height="5"/>
					<rect x="10.2" y="69.8" fill="none" stroke="#000F40" stroke-width="0.1" stroke-miterlimit="10" width="5" height="5"/>
					<rect x="15.2" y="69.8" fill="none" stroke="#000F40" stroke-width="0.1" stroke-miterlimit="10" width="5" height="5"/>
					<rect x="20.2" y="69.8" fill="none" stroke="#000F40" stroke-width="0.1" stroke-miterlimit="10" width="5" height="5"/>
					<rect x="25.1" y="69.8" fill="none" stroke="#000F40" stroke-width="0.1" stroke-miterlimit="10" width="5" height="5"/>
					<rect x="30.1" y="69.8" fill="none" stroke="#000F40" stroke-width="0.1" stroke-miterlimit="10" width="5" height="5"/>
					<rect x="35" y="69.8" fill="none" stroke="#000F40" stroke-width="0.1" stroke-miterlimit="10" width="5" height="5"/>
					<rect x="40" y="69.8" fill="none" stroke="#000F40" stroke-width="0.1" stroke-miterlimit="10" width="5" height="5"/>
					<rect x="45" y="69.8" fill="none" stroke="#000F40" stroke-width="0.1" stroke-miterlimit="10" width="5" height="5"/>
					<rect x="50.1" y="69.8" fill="none" stroke="#000F40" stroke-width="0.1" stroke-miterlimit="10" width="5" height="5"/>
					<rect x="55" y="69.8" fill="none" stroke="#000F40" stroke-width="0.1" stroke-miterlimit="10" width="5" height="5"/>
					<rect x="60" y="69.8" fill="none" stroke="#000F40" stroke-width="0.1" stroke-miterlimit="10" width="5" height="5"/>
					<rect x="65" y="69.8" fill="none" stroke="#000F40" stroke-width="0.1" stroke-miterlimit="10" width="5" height="5"/>
					<rect x="69.9" y="69.8" fill="none" stroke="#000F40" stroke-width="0.1" stroke-miterlimit="10" width="5" height="5"/>
					<rect x="74.9" y="69.8" fill="none" stroke="#000F40" stroke-width="0.1" stroke-miterlimit="10" width="5" height="5"/>
					<rect x="79.8" y="69.8" fill="none" stroke="#000F40" stroke-width="0.1" stroke-miterlimit="10" width="5" height="5"/>
					<rect x="84.8" y="69.8" fill="none" stroke="#000F40" stroke-width="0.1" stroke-miterlimit="10" width="5" height="5"/>
					<rect x="10.2" y="74.8" fill="none" stroke="#000F40" stroke-width="0.1" stroke-miterlimit="10" width="5" height="5"/>
					<rect x="15.2" y="74.8" fill="none" stroke="#000F40" stroke-width="0.1" stroke-miterlimit="10" width="5" height="5"/>
					<rect x="20.2" y="74.8" fill="none" stroke="#000F40" stroke-width="0.1" stroke-miterlimit="10" width="5" height="5"/>
					<rect x="25.1" y="74.8" fill="none" stroke="#000F40" stroke-width="0.1" stroke-miterlimit="10" width="5" height="5"/>
					<rect x="30.1" y="74.8" fill="none" stroke="#000F40" stroke-width="0.1" stroke-miterlimit="10" width="5" height="5"/>
					<rect x="35" y="74.8" fill="none" stroke="#000F40" stroke-width="0.1" stroke-miterlimit="10" width="5" height="5"/>
					<rect x="40" y="74.8" fill="none" stroke="#000F40" stroke-width="0.1" stroke-miterlimit="10" width="5" height="5"/>
					<rect x="45" y="74.8" fill="none" stroke="#000F40" stroke-width="0.1" stroke-miterlimit="10" width="5" height="5"/>
					<rect x="50.1" y="74.8" fill="none" stroke="#000F40" stroke-width="0.1" stroke-miterlimit="10" width="5" height="5"/>
					<rect x="55" y="74.8" fill="none" stroke="#000F40" stroke-width="0.1" stroke-miterlimit="10" width="5" height="5"/>
					<rect x="60" y="74.8" fill="none" stroke="#000F40" stroke-width="0.1" stroke-miterlimit="10" width="5" height="5"/>
					<rect x="65" y="74.8" fill="none" stroke="#000F40" stroke-width="0.1" stroke-miterlimit="10" width="5" height="5"/>
					<rect x="69.9" y="74.8" fill="none" stroke="#000F40" stroke-width="0.1" stroke-miterlimit="10" width="5" height="5"/>
					<rect x="74.9" y="74.8" fill="none" stroke="#000F40" stroke-width="0.1" stroke-miterlimit="10" width="5" height="5"/>
					<rect x="79.8" y="74.8" fill="none" stroke="#000F40" stroke-width="0.1" stroke-miterlimit="10" width="5" height="5"/>
					<rect x="84.8" y="74.8" fill="none" stroke="#000F40" stroke-width="0.1" stroke-miterlimit="10" width="5" height="5"/>
					<rect x="10.2" y="79.7" fill="none" stroke="#000F40" stroke-width="0.1" stroke-miterlimit="10" width="5" height="5"/>
					<rect x="15.2" y="79.7" fill="none" stroke="#000F40" stroke-width="0.1" stroke-miterlimit="10" width="5" height="5"/>
					<rect x="20.2" y="79.7" fill="none" stroke="#000F40" stroke-width="0.1" stroke-miterlimit="10" width="5" height="5"/>
					<rect x="25.1" y="79.7" fill="none" stroke="#000F40" stroke-width="0.1" stroke-miterlimit="10" width="5" height="5"/>
					<rect x="30.1" y="79.7" fill="none" stroke="#000F40" stroke-width="0.1" stroke-miterlimit="10" width="5" height="5"/>
					<rect x="35" y="79.7" fill="none" stroke="#000F40" stroke-width="0.1" stroke-miterlimit="10" width="5" height="5"/>
					<rect x="40" y="79.7" fill="none" stroke="#000F40" stroke-width="0.1" stroke-miterlimit="10" width="5" height="5"/>
					<rect x="45" y="79.7" fill="none" stroke="#000F40" stroke-width="0.1" stroke-miterlimit="10" width="5" height="5"/>
					<rect x="50.1" y="79.7" fill="none" stroke="#000F40" stroke-width="0.1" stroke-miterlimit="10" width="5" height="5"/>
					<rect x="55" y="79.7" fill="none" stroke="#000F40" stroke-width="0.1" stroke-miterlimit="10" width="5" height="5"/>
					<rect x="60" y="79.7" fill="none" stroke="#000F40" stroke-width="0.1" stroke-miterlimit="10" width="5" height="5"/>
					<rect x="65" y="79.7" fill="none" stroke="#000F40" stroke-width="0.1" stroke-miterlimit="10" width="5" height="5"/>
					<rect x="69.9" y="79.7" fill="none" stroke="#000F40" stroke-width="0.1" stroke-miterlimit="10" width="5" height="5"/>
					<rect x="74.9" y="79.7" fill="none" stroke="#000F40" stroke-width="0.1" stroke-miterlimit="10" width="5" height="5"/>
					<rect x="79.8" y="79.7" fill="none" stroke="#000F40" stroke-width="0.1" stroke-miterlimit="10" width="5" height="5"/>
					<rect x="84.8" y="79.7" fill="none" stroke="#000F40" stroke-width="0.1" stroke-miterlimit="10" width="5" height="5"/>
					<rect x="10.2" y="84.7" fill="none" stroke="#000F40" stroke-width="0.1" stroke-miterlimit="10" width="5" height="5"/>
					<rect x="15.2" y="84.7" fill="none" stroke="#000F40" stroke-width="0.1" stroke-miterlimit="10" width="5" height="5"/>
					<rect x="20.2" y="84.7" fill="none" stroke="#000F40" stroke-width="0.1" stroke-miterlimit="10" width="5" height="5"/>
					<rect x="25.1" y="84.7" fill="none" stroke="#000F40" stroke-width="0.1" stroke-miterlimit="10" width="5" height="5"/>
					<rect x="30.1" y="84.7" fill="none" stroke="#000F40" stroke-width="0.1" stroke-miterlimit="10" width="5" height="5"/>
					<rect x="35" y="84.7" fill="none" stroke="#000F40" stroke-width="0.1" stroke-miterlimit="10" width="5" height="5"/>
					<rect x="40" y="84.7" fill="none" stroke="#000F40" stroke-width="0.1" stroke-miterlimit="10" width="5" height="5"/>
					<rect x="45" y="84.7" fill="none" stroke="#000F40" stroke-width="0.1" stroke-miterlimit="10" width="5" height="5"/>
					<rect x="50.1" y="84.7" fill="none" stroke="#000F40" stroke-width="0.1" stroke-miterlimit="10" width="5" height="5"/>
					<rect x="55" y="84.7" fill="none" stroke="#000F40" stroke-width="0.1" stroke-miterlimit="10" width="5" height="5"/>
					<rect x="60" y="84.7" fill="none" stroke="#000F40" stroke-width="0.1" stroke-miterlimit="10" width="5" height="5"/>
					<rect x="65" y="84.7" fill="none" stroke="#000F40" stroke-width="0.1" stroke-miterlimit="10" width="5" height="5"/>
					<rect x="69.9" y="84.7" fill="none" stroke="#000F40" stroke-width="0.1" stroke-miterlimit="10" width="5" height="5"/>
					<rect x="74.9" y="84.7" fill="none" stroke="#000F40" stroke-width="0.1" stroke-miterlimit="10" width="5" height="5"/>
					<rect x="79.8" y="84.7" fill="none" stroke="#000F40" stroke-width="0.1" stroke-miterlimit="10" width="5" height="5"/>
					<rect x="84.8" y="84.7" fill="none" stroke="#000F40" stroke-width="0.1" stroke-miterlimit="10" width="5" height="5"/>
				</g>
				<g opacity="0.3">
					<polygon fill="none" stroke="#000F40" stroke-width="0.1" stroke-miterlimit="10" points="15.2,10.2 10.2,10.2 10.2,15.2 
						10.2,20.2 15.2,20.2 20.2,20.2 20.2,15.2 20.2,10.2 					"/>
					<polygon fill="none" stroke="#000F40" stroke-width="0.1" stroke-miterlimit="10" points="25.1,10.2 20.2,10.2 20.2,15.2 
						20.2,20.2 25.1,20.2 30.1,20.2 30.1,15.2 30.1,10.2 					"/>
					<polygon fill="none" stroke="#000F40" stroke-width="0.1" stroke-miterlimit="10" points="35,10.2 30.1,10.2 30.1,15.2 
						30.1,20.2 35,20.2 40,20.2 40,15.2 40,10.2 					"/>
					<polygon fill="none" stroke="#000F40" stroke-width="0.1" stroke-miterlimit="10" points="45,10.2 40,10.2 40,15.2 40,20.2 
						45,20.2 50.1,20.2 50.1,15.2 50.1,10.2 					"/>
					<polygon fill="none" stroke="#000F40" stroke-width="0.1" stroke-miterlimit="10" points="55,10.2 50.1,10.2 50.1,15.2 
						50.1,20.2 55,20.2 60,20.2 60,15.2 60,10.2 					"/>
					<polygon fill="none" stroke="#000F40" stroke-width="0.1" stroke-miterlimit="10" points="65,10.2 60,10.2 60,15.2 60,20.2 
						65,20.2 69.9,20.2 69.9,15.2 69.9,10.2 					"/>
					<polygon fill="none" stroke="#000F40" stroke-width="0.1" stroke-miterlimit="10" points="74.9,10.2 69.9,10.2 69.9,15.2 
						69.9,20.2 74.9,20.2 79.8,20.2 79.8,15.2 79.8,10.2 					"/>
					<polygon fill="none" stroke="#000F40" stroke-width="0.1" stroke-miterlimit="10" points="84.8,10.2 79.8,10.2 79.8,15.2 
						79.8,20.2 84.8,20.2 89.8,20.2 89.8,15.2 89.8,10.2 					"/>
					<polygon fill="none" stroke="#000F40" stroke-width="0.1" stroke-miterlimit="10" points="15.2,20.2 10.2,20.2 10.2,25.1 
						10.2,30.1 15.2,30.1 20.2,30.1 20.2,25.1 20.2,20.2 					"/>
					<polygon fill="none" stroke="#000F40" stroke-width="0.1" stroke-miterlimit="10" points="25.1,20.2 20.2,20.2 20.2,25.1 
						20.2,30.1 25.1,30.1 30.1,30.1 30.1,25.1 30.1,20.2 					"/>
					<polygon fill="none" stroke="#000F40" stroke-width="0.1" stroke-miterlimit="10" points="35,20.2 30.1,20.2 30.1,25.1 
						30.1,30.1 35,30.1 40,30.1 40,25.1 40,20.2 					"/>
					<polygon fill="none" stroke="#000F40" stroke-width="0.1" stroke-miterlimit="10" points="45,20.2 40,20.2 40,25.1 40,30.1 
						45,30.1 50.1,30.1 50.1,25.1 50.1,20.2 					"/>
					<polygon fill="none" stroke="#000F40" stroke-width="0.1" stroke-miterlimit="10" points="55,20.2 50.1,20.2 50.1,25.1 
						50.1,30.1 55,30.1 60,30.1 60,25.1 60,20.2 					"/>
					<polygon fill="none" stroke="#000F40" stroke-width="0.1" stroke-miterlimit="10" points="65,20.2 60,20.2 60,25.1 60,30.1 
						65,30.1 69.9,30.1 69.9,25.1 69.9,20.2 					"/>
					<polygon fill="none" stroke="#000F40" stroke-width="0.1" stroke-miterlimit="10" points="74.9,20.2 69.9,20.2 69.9,25.1 
						69.9,30.1 74.9,30.1 79.8,30.1 79.8,25.1 79.8,20.2 					"/>
					<polygon fill="none" stroke="#000F40" stroke-width="0.1" stroke-miterlimit="10" points="84.8,20.2 79.8,20.2 79.8,25.1 
						79.8,30.1 84.8,30.1 89.8,30.1 89.8,25.1 89.8,20.2 					"/>
					<polygon fill="none" stroke="#000F40" stroke-width="0.1" stroke-miterlimit="10" points="15.2,30.1 10.2,30.1 10.2,35 
						10.2,40 15.2,40 20.2,40 20.2,35 20.2,30.1 					"/>
					<polygon fill="none" stroke="#000F40" stroke-width="0.1" stroke-miterlimit="10" points="25.1,30.1 20.2,30.1 20.2,35 
						20.2,40 25.1,40 30.1,40 30.1,35 30.1,30.1 					"/>
					<polygon fill="none" stroke="#000F40" stroke-width="0.1" stroke-miterlimit="10" points="35,30.1 30.1,30.1 30.1,35 30.1,40 
						35,40 40,40 40,35 40,30.1 					"/>
					<polygon fill="none" stroke="#000F40" stroke-width="0.1" stroke-miterlimit="10" points="45,30.1 40,30.1 40,35 40,40 45,40 
						50.1,40 50.1,35 50.1,30.1 					"/>
					<polygon fill="none" stroke="#000F40" stroke-width="0.1" stroke-miterlimit="10" points="55,30.1 50.1,30.1 50.1,35 50.1,40 
						55,40 60,40 60,35 60,30.1 					"/>
					<polygon fill="none" stroke="#000F40" stroke-width="0.1" stroke-miterlimit="10" points="65,30.1 60,30.1 60,35 60,40 65,40 
						69.9,40 69.9,35 69.9,30.1 					"/>
					<polygon fill="none" stroke="#000F40" stroke-width="0.1" stroke-miterlimit="10" points="74.9,30.1 69.9,30.1 69.9,35 
						69.9,40 74.9,40 79.8,40 79.8,35 79.8,30.1 					"/>
					<polygon fill="none" stroke="#000F40" stroke-width="0.1" stroke-miterlimit="10" points="84.8,30.1 79.8,30.1 79.8,35 
						79.8,40 84.8,40 89.8,40 89.8,35 89.8,30.1 					"/>
					<polygon fill="none" stroke="#000F40" stroke-width="0.1" stroke-miterlimit="10" points="15.2,40 10.2,40 10.2,45 10.2,49.9 
						15.2,49.9 20.2,49.9 20.2,45 20.2,40 					"/>
					<polygon fill="none" stroke="#000F40" stroke-width="0.1" stroke-miterlimit="10" points="25.1,40 20.2,40 20.2,45 20.2,49.9 
						25.1,49.9 30.1,49.9 30.1,45 30.1,40 					"/>
					<polygon fill="none" stroke="#000F40" stroke-width="0.1" stroke-miterlimit="10" points="35,40 30.1,40 30.1,45 30.1,49.9 
						35,49.9 40,49.9 40,45 40,40 					"/>
					<polygon fill="none" stroke="#000F40" stroke-width="0.1" stroke-miterlimit="10" points="45,40 40,40 40,45 40,49.9 45,49.9 
						50.1,49.9 50.1,45 50.1,40 					"/>
					<polygon fill="none" stroke="#000F40" stroke-width="0.1" stroke-miterlimit="10" points="55,40 50.1,40 50.1,45 50.1,49.9 
						55,49.9 60,49.9 60,45 60,40 					"/>
					<polygon fill="none" stroke="#000F40" stroke-width="0.1" stroke-miterlimit="10" points="65,40 60,40 60,45 60,49.9 65,49.9 
						69.9,49.9 69.9,45 69.9,40 					"/>
					<polygon fill="none" stroke="#000F40" stroke-width="0.1" stroke-miterlimit="10" points="74.9,40 69.9,40 69.9,45 69.9,49.9 
						74.9,49.9 79.8,49.9 79.8,45 79.8,40 					"/>
					<polygon fill="none" stroke="#000F40" stroke-width="0.1" stroke-miterlimit="10" points="84.8,40 79.8,40 79.8,45 79.8,49.9 
						84.8,49.9 89.8,49.9 89.8,45 89.8,40 					"/>
					<polygon fill="none" stroke="#000F40" stroke-width="0.1" stroke-miterlimit="10" points="15.2,49.9 10.2,49.9 10.2,54.9 
						10.2,59.9 15.2,59.9 20.2,59.9 20.2,54.9 20.2,49.9 					"/>
					<polygon fill="none" stroke="#000F40" stroke-width="0.1" stroke-miterlimit="10" points="25.1,49.9 20.2,49.9 20.2,54.9 
						20.2,59.9 25.1,59.9 30.1,59.9 30.1,54.9 30.1,49.9 					"/>
					<polygon fill="none" stroke="#000F40" stroke-width="0.1" stroke-miterlimit="10" points="35,49.9 30.1,49.9 30.1,54.9 
						30.1,59.9 35,59.9 40,59.9 40,54.9 40,49.9 					"/>
					<polygon fill="none" stroke="#000F40" stroke-width="0.1" stroke-miterlimit="10" points="45,49.9 40,49.9 40,54.9 40,59.9 
						45,59.9 50.1,59.9 50.1,54.9 50.1,49.9 					"/>
					<polygon fill="none" stroke="#000F40" stroke-width="0.1" stroke-miterlimit="10" points="55,49.9 50.1,49.9 50.1,54.9 
						50.1,59.9 55,59.9 60,59.9 60,54.9 60,49.9 					"/>
					<polygon fill="none" stroke="#000F40" stroke-width="0.1" stroke-miterlimit="10" points="65,49.9 60,49.9 60,54.9 60,59.9 
						65,59.9 69.9,59.9 69.9,54.9 69.9,49.9 					"/>
					<polygon fill="none" stroke="#000F40" stroke-width="0.1" stroke-miterlimit="10" points="74.9,49.9 69.9,49.9 69.9,54.9 
						69.9,59.9 74.9,59.9 79.8,59.9 79.8,54.9 79.8,49.9 					"/>
					<polygon fill="none" stroke="#000F40" stroke-width="0.1" stroke-miterlimit="10" points="84.8,49.9 79.8,49.9 79.8,54.9 
						79.8,59.9 84.8,59.9 89.8,59.9 89.8,54.9 89.8,49.9 					"/>
					<polygon fill="none" stroke="#000F40" stroke-width="0.1" stroke-miterlimit="10" points="15.2,59.9 10.2,59.9 10.2,64.8 
						10.2,69.8 15.2,69.8 20.2,69.8 20.2,64.8 20.2,59.9 					"/>
					<polygon fill="none" stroke="#000F40" stroke-width="0.1" stroke-miterlimit="10" points="25.1,59.9 20.2,59.9 20.2,64.8 
						20.2,69.8 25.1,69.8 30.1,69.8 30.1,64.8 30.1,59.9 					"/>
					<polygon fill="none" stroke="#000F40" stroke-width="0.1" stroke-miterlimit="10" points="35,59.9 30.1,59.9 30.1,64.8 
						30.1,69.8 35,69.8 40,69.8 40,64.8 40,59.9 					"/>
					<polygon fill="none" stroke="#000F40" stroke-width="0.1" stroke-miterlimit="10" points="45,59.9 40,59.9 40,64.8 40,69.8 
						45,69.8 50.1,69.8 50.1,64.8 50.1,59.9 					"/>
					<polygon fill="none" stroke="#000F40" stroke-width="0.1" stroke-miterlimit="10" points="55,59.9 50.1,59.9 50.1,64.8 
						50.1,69.8 55,69.8 60,69.8 60,64.8 60,59.9 					"/>
					<polygon fill="none" stroke="#000F40" stroke-width="0.1" stroke-miterlimit="10" points="65,59.9 60,59.9 60,64.8 60,69.8 
						65,69.8 69.9,69.8 69.9,64.8 69.9,59.9 					"/>
					<polygon fill="none" stroke="#000F40" stroke-width="0.1" stroke-miterlimit="10" points="74.9,59.9 69.9,59.9 69.9,64.8 
						69.9,69.8 74.9,69.8 79.8,69.8 79.8,64.8 79.8,59.9 					"/>
					<polygon fill="none" stroke="#000F40" stroke-width="0.1" stroke-miterlimit="10" points="84.8,59.9 79.8,59.9 79.8,64.8 
						79.8,69.8 84.8,69.8 89.8,69.8 89.8,64.8 89.8,59.9 					"/>
					<polygon fill="none" stroke="#000F40" stroke-width="0.1" stroke-miterlimit="10" points="15.2,69.8 10.2,69.8 10.2,74.8 
						10.2,79.7 15.2,79.7 20.2,79.7 20.2,74.8 20.2,69.8 					"/>
					<polygon fill="none" stroke="#000F40" stroke-width="0.1" stroke-miterlimit="10" points="25.1,69.8 20.2,69.8 20.2,74.8 
						20.2,79.7 25.1,79.7 30.1,79.7 30.1,74.8 30.1,69.8 					"/>
					<polygon fill="none" stroke="#000F40" stroke-width="0.1" stroke-miterlimit="10" points="35,69.8 30.1,69.8 30.1,74.8 
						30.1,79.7 35,79.7 40,79.7 40,74.8 40,69.8 					"/>
					<polygon fill="none" stroke="#000F40" stroke-width="0.1" stroke-miterlimit="10" points="45,69.8 40,69.8 40,74.8 40,79.7 
						45,79.7 50.1,79.7 50.1,74.8 50.1,69.8 					"/>
					<polygon fill="none" stroke="#000F40" stroke-width="0.1" stroke-miterlimit="10" points="55,69.8 50.1,69.8 50.1,74.8 
						50.1,79.7 55,79.7 60,79.7 60,74.8 60,69.8 					"/>
					<polygon fill="none" stroke="#000F40" stroke-width="0.1" stroke-miterlimit="10" points="65,69.8 60,69.8 60,74.8 60,79.7 
						65,79.7 69.9,79.7 69.9,74.8 69.9,69.8 					"/>
					<polygon fill="none" stroke="#000F40" stroke-width="0.1" stroke-miterlimit="10" points="74.9,69.8 69.9,69.8 69.9,74.8 
						69.9,79.7 74.9,79.7 79.8,79.7 79.8,74.8 79.8,69.8 					"/>
					<polygon fill="none" stroke="#000F40" stroke-width="0.1" stroke-miterlimit="10" points="84.8,69.8 79.8,69.8 79.8,74.8 
						79.8,79.7 84.8,79.7 89.8,79.7 89.8,74.8 89.8,69.8 					"/>
					<polygon fill="none" stroke="#000F40" stroke-width="0.1" stroke-miterlimit="10" points="15.2,79.7 10.2,79.7 10.2,84.7 
						10.2,89.7 15.2,89.7 20.2,89.7 20.2,84.7 20.2,79.7 					"/>
					<polygon fill="none" stroke="#000F40" stroke-width="0.1" stroke-miterlimit="10" points="25.1,79.7 20.2,79.7 20.2,84.7 
						20.2,89.7 25.1,89.7 30.1,89.7 30.1,84.7 30.1,79.7 					"/>
					<polygon fill="none" stroke="#000F40" stroke-width="0.1" stroke-miterlimit="10" points="35,79.7 30.1,79.7 30.1,84.7 
						30.1,89.7 35,89.7 40,89.7 40,84.7 40,79.7 					"/>
					<polygon fill="none" stroke="#000F40" stroke-width="0.1" stroke-miterlimit="10" points="45,79.7 40,79.7 40,84.7 40,89.7 
						45,89.7 50.1,89.7 50.1,84.7 50.1,79.7 					"/>
					<polygon fill="none" stroke="#000F40" stroke-width="0.1" stroke-miterlimit="10" points="55,79.7 50.1,79.7 50.1,84.7 
						50.1,89.7 55,89.7 60,89.7 60,84.7 60,79.7 					"/>
					<polygon fill="none" stroke="#000F40" stroke-width="0.1" stroke-miterlimit="10" points="65,79.7 60,79.7 60,84.7 60,89.7 
						65,89.7 69.9,89.7 69.9,84.7 69.9,79.7 					"/>
					<polygon fill="none" stroke="#000F40" stroke-width="0.1" stroke-miterlimit="10" points="74.9,79.7 69.9,79.7 69.9,84.7 
						69.9,89.7 74.9,89.7 79.8,89.7 79.8,84.7 79.8,79.7 					"/>
					<polygon fill="none" stroke="#000F40" stroke-width="0.1" stroke-miterlimit="10" points="84.8,79.7 79.8,79.7 79.8,84.7 
						79.8,89.7 84.8,89.7 89.8,89.7 89.8,84.7 89.8,79.7 					"/>
				</g>
			</g>
		</g>
	</g>
</g>
<g>
	<g>
		<path d="M88.5,46.5l-35-35c-2-2-5.1-2-7.1,0l-35,35c-2,2-2,5.1,0,7.1s5.1,2,7.1,0l1.5-1.5V80c0,5.5,4.5,10,10,10h40
			c5.5,0,10-4.5,10-10V52.1l1.5,1.5c1,1,2.3,1.5,3.5,1.5s2.6-0.5,3.5-1.5C90.5,51.6,90.5,48.4,88.5,46.5z M50,67.5
			c0-1.4,1.1-2.5,2.5-2.5s2.5,1.1,2.5,2.5c0,1.4-1.1,2.5-2.5,2.5S50,68.9,50,67.5z M70,75c0,2.8-2.2,5-5,5h-5V55c0-2.8-2.2-5-5-5H45
			c-2.8,0-5,2.2-5,5v25h-5c-2.8,0-5-2.2-5-5V42.1l20-20l20,20V75z"/>
	</g>
</g>
<g>
	<path d="M20.8,97.5V94l-0.9,0.6l-0.2-0.4l1.2-0.8h0.5v4H20.8z"/>
	<path d="M25.2,95.9c0,1-0.4,1.7-1.2,1.7c-0.3,0-0.6-0.1-0.8-0.4v1.5l-0.6,0.1v-4.4h0.5l0,0.4c0.2-0.3,0.6-0.5,0.9-0.5
		C24.9,94.2,25.2,94.9,25.2,95.9z M24.6,95.9c0-0.8-0.2-1.2-0.7-1.2c-0.3,0-0.6,0.2-0.8,0.5v1.5c0.2,0.2,0.4,0.4,0.7,0.4
		C24.4,97.1,24.6,96.7,24.6,95.9z"/>
	<path d="M27.7,97.5l-0.8-1.3l-0.8,1.3h-0.6l1.1-1.7l-1-1.5h0.6l0.7,1.2l0.7-1.2h0.6l-1,1.5l1.1,1.7H27.7z"/>
	<path d="M31.2,93.2c0,0.2-0.2,0.4-0.4,0.4c-0.2,0-0.4-0.2-0.4-0.4c0-0.2,0.2-0.4,0.4-0.4C31.1,92.8,31.2,92.9,31.2,93.2z
		 M30.5,97.5v-3.2h0.6v3.2H30.5z"/>
	<path d="M34.6,95.2v2.3h-0.6v-2.2c0-0.5-0.2-0.6-0.5-0.6c-0.4,0-0.6,0.2-0.8,0.6v2.2h-0.6v-3.2h0.5l0,0.5c0.2-0.3,0.6-0.5,1-0.5
		C34.3,94.2,34.6,94.6,34.6,95.2z"/>
	<path d="M37.7,94.6l-0.2,0.4c-0.3-0.2-0.5-0.3-0.8-0.3c-0.4,0-0.6,0.2-0.6,0.4c0,0.3,0.2,0.4,0.7,0.5c0.7,0.2,1,0.4,1,1
		c0,0.7-0.6,1-1.2,1c-0.5,0-0.9-0.2-1.2-0.4l0.3-0.3c0.2,0.2,0.5,0.3,0.9,0.3c0.4,0,0.7-0.2,0.7-0.5c0-0.3-0.2-0.4-0.8-0.6
		c-0.7-0.2-1-0.5-1-0.9c0-0.5,0.5-0.9,1.1-0.9C37.1,94.2,37.4,94.4,37.7,94.6z"/>
	<path d="M39.2,93.2c0,0.2-0.2,0.4-0.4,0.4c-0.2,0-0.4-0.2-0.4-0.4c0-0.2,0.2-0.4,0.4-0.4C39.1,92.8,39.2,92.9,39.2,93.2z
		 M38.6,97.5v-3.2h0.6v3.2H38.6z"/>
	<path d="M42.7,97.5h-0.5L42.2,97c-0.2,0.3-0.5,0.5-0.9,0.5c-0.8,0-1.2-0.7-1.2-1.6c0-1,0.5-1.7,1.2-1.7c0.4,0,0.6,0.2,0.9,0.4V93
		l0.6,0.1V97.5z M42.1,96.6v-1.5c-0.2-0.3-0.4-0.4-0.7-0.4c-0.5,0-0.8,0.4-0.8,1.2c0,0.8,0.3,1.2,0.7,1.2
		C41.7,97.1,41.9,96.9,42.1,96.6z"/>
	<path d="M46.2,96.1h-2c0.1,0.7,0.4,1,0.9,1c0.3,0,0.5-0.1,0.8-0.3l0.2,0.3c-0.3,0.2-0.7,0.4-1.1,0.4c-0.9,0-1.4-0.6-1.4-1.6
		c0-1,0.5-1.7,1.3-1.7c0.9,0,1.3,0.6,1.3,1.6C46.2,95.9,46.2,96,46.2,96.1z M45.6,95.6c0-0.6-0.2-1-0.7-1c-0.4,0-0.7,0.3-0.7,1
		L45.6,95.6L45.6,95.6z"/>
	<path d="M47.6,97.1c0,0.1,0,0.3-0.1,0.4l-0.4,0.9h-0.4l0.2-1c-0.1-0.1-0.2-0.2-0.2-0.3c0-0.2,0.2-0.4,0.4-0.4
		C47.5,96.7,47.6,96.9,47.6,97.1z"/>
	<path d="M50.9,97.5V94L50,94.6l-0.2-0.4l1.2-0.8h0.5v4H50.9z"/>
	<path d="M55.3,95.9c0,1-0.4,1.7-1.2,1.7c-0.3,0-0.6-0.1-0.8-0.4v1.5l-0.6,0.1v-4.4h0.5l0,0.4c0.2-0.3,0.6-0.5,0.9-0.5
		C55,94.2,55.3,94.9,55.3,95.9z M54.7,95.9c0-0.8-0.2-1.2-0.7-1.2c-0.3,0-0.6,0.2-0.8,0.5v1.5c0.2,0.2,0.4,0.4,0.7,0.4
		C54.5,97.1,54.7,96.7,54.7,95.9z"/>
	<path d="M57.8,97.5L57,96.1l-0.8,1.3h-0.6l1.1-1.7l-1-1.5h0.6l0.7,1.2l0.7-1.2h0.6l-1,1.5l1.1,1.7H57.8z"/>
	<path d="M63.2,95.9c0,1-0.5,1.7-1.4,1.7c-0.9,0-1.4-0.6-1.4-1.6c0-1,0.5-1.7,1.4-1.7S63.2,94.9,63.2,95.9z M61,95.9
		c0,0.8,0.3,1.2,0.8,1.2s0.8-0.4,0.8-1.2c0-0.8-0.3-1.2-0.8-1.2C61.3,94.7,61,95,61,95.9z"/>
	<path d="M66,97.5l0-0.5c-0.2,0.4-0.5,0.6-1,0.6c-0.6,0-0.9-0.3-0.9-1v-2.3h0.6v2.2c0,0.4,0.1,0.6,0.5,0.6s0.6-0.2,0.8-0.5v-2.3h0.6
		v3.2H66z"/>
	<path d="M68.5,97.5c-0.5,0-0.9-0.3-0.9-0.9v-1.9h-0.6v-0.4h0.6v-0.7l0.6-0.1v0.8H69l-0.1,0.4h-0.7v1.9c0,0.3,0.1,0.5,0.4,0.5
		c0.1,0,0.3,0,0.4-0.1l0.2,0.4C69,97.5,68.8,97.5,68.5,97.5z"/>
	<path d="M71.7,94.6l-0.2,0.4c-0.3-0.2-0.5-0.3-0.8-0.3c-0.4,0-0.6,0.2-0.6,0.4c0,0.3,0.2,0.4,0.7,0.5c0.7,0.2,1,0.4,1,1
		c0,0.7-0.6,1-1.2,1c-0.5,0-0.9-0.2-1.2-0.4l0.3-0.3c0.2,0.2,0.5,0.3,0.9,0.3c0.4,0,0.7-0.2,0.7-0.5c0-0.3-0.2-0.4-0.8-0.6
		c-0.7-0.2-1-0.5-1-0.9c0-0.5,0.5-0.9,1.1-0.9C71.1,94.2,71.4,94.4,71.7,94.6z"/>
	<path d="M73.3,93.2c0,0.2-0.2,0.4-0.4,0.4c-0.2,0-0.4-0.2-0.4-0.4c0-0.2,0.2-0.4,0.4-0.4C73.1,92.8,73.3,92.9,73.3,93.2z
		 M72.6,97.5v-3.2h0.6v3.2H72.6z"/>
	<path d="M76.8,97.5h-0.5L76.2,97c-0.2,0.3-0.5,0.5-0.9,0.5c-0.8,0-1.2-0.7-1.2-1.6c0-1,0.5-1.7,1.2-1.7c0.4,0,0.6,0.2,0.9,0.4V93
		l0.6,0.1V97.5z M76.2,96.6v-1.5c-0.2-0.3-0.4-0.4-0.7-0.4c-0.5,0-0.8,0.4-0.8,1.2c0,0.8,0.3,1.2,0.7,1.2
		C75.8,97.1,76,96.9,76.2,96.6z"/>
	<path d="M80.2,96.1h-2c0.1,0.7,0.4,1,0.9,1c0.3,0,0.5-0.1,0.8-0.3l0.2,0.3c-0.3,0.2-0.7,0.4-1.1,0.4c-0.9,0-1.4-0.6-1.4-1.6
		c0-1,0.5-1.7,1.3-1.7c0.9,0,1.3,0.6,1.3,1.6C80.2,95.9,80.2,96,80.2,96.1z M79.7,95.6c0-0.6-0.2-1-0.7-1c-0.4,0-0.7,0.3-0.7,1
		L79.7,95.6L79.7,95.6z"/>
</g>
</svg>
