<svg xmlns="http://www.w3.org/2000/svg" xmlns:xlink="http://www.w3.org/1999/xlink" style="background:#fff" viewBox="0 0 300 300"><defs><polygon id="a" points="0 0 209 0 209 209 0 209"/><polygon id="c" points="0 0 209 0 209 208.791 0 208.791"/><polygon id="e" points="0 0 209 0 209 209 0 209"/><path id="g" d="M110.5 156a6.5 6.5 0 1 1 0-13 6.5 6.5 0 0 1 0 13m19.78 26.08h12.15a13 13 0 0 0 13-13V82.81L104 31.38 52.55 82.84v86.24a13 13 0 0 0 13 13h12.17v-65.46c0-7.18 5.87-13 13.14-13h26.28c7.27 0 13.15 5.82 13.15 13v65l-.01.46zm51.72-72.7V169a39 39 0 0 1-39 39H65.05A39.05 39.05 0 0 1 26 168.95v-59.57l-3.8 3.81a12.99 12.99 0 0 1-18.39 0 12.99 12.99 0 0 1 0-18.38l91-91a12.99 12.99 0 0 1 18.38 0l91 91a12.99 12.99 0 0 1-9.2 22.19c-3.32 0-6.65-1.27-9.18-3.8l-3.81-3.82z"/><rect id="h" width="40" height="52" x="189" y="216"/><filter id="i" width="102.5%" height="101.9%" x="-1.2%" y="-1%" filterUnits="objectBoundingBox"><feOffset dx="1" in="SourceAlpha" result="shadowOffsetInner1"/><feComposite in="shadowOffsetInner1" in2="SourceAlpha" k2="-1" k3="1" operator="arithmetic" result="shadowInnerInner1"/><feColorMatrix in="shadowInnerInner1" result="shadowMatrixInner1" values="0 0 0 0 0.0392156863 0 0 0 0 0.517647059 0 0 0 0 1 0 0 0 1 0"/><feOffset dx="-1" in="SourceAlpha" result="shadowOffsetInner2"/><feComposite in="shadowOffsetInner2" in2="SourceAlpha" k2="-1" k3="1" operator="arithmetic" result="shadowInnerInner2"/><feColorMatrix in="shadowInnerInner2" result="shadowMatrixInner2" values="0 0 0 0 0.0392156863 0 0 0 0 0.517647059 0 0 0 0 1 0 0 0 1 0"/><feMerge><feMergeNode in="shadowMatrixInner1"/><feMergeNode in="shadowMatrixInner2"/></feMerge></filter><rect id="j" width="13" height="52" x="99" y="216"/><filter id="k" width="107.7%" height="101.9%" x="-3.8%" y="-1%" filterUnits="objectBoundingBox"><feOffset dx="1" in="SourceAlpha" result="shadowOffsetInner1"/><feComposite in="shadowOffsetInner1" in2="SourceAlpha" k2="-1" k3="1" operator="arithmetic" result="shadowInnerInner1"/><feColorMatrix in="shadowInnerInner1" result="shadowMatrixInner1" values="0 0 0 0 0.0392156863 0 0 0 0 0.517647059 0 0 0 0 1 0 0 0 1 0"/><feOffset dx="-1" in="SourceAlpha" result="shadowOffsetInner2"/><feComposite in="shadowOffsetInner2" in2="SourceAlpha" k2="-1" k3="1" operator="arithmetic" result="shadowInnerInner2"/><feColorMatrix in="shadowInnerInner2" result="shadowMatrixInner2" values="0 0 0 0 0.0392156863 0 0 0 0 0.517647059 0 0 0 0 1 0 0 0 1 0"/><feMerge><feMergeNode in="shadowMatrixInner1"/><feMergeNode in="shadowMatrixInner2"/></feMerge></filter></defs><g fill="none" fill-rule="evenodd"><g transform="translate(46 46)"><mask id="b" fill="white"><use xlink:href="#a"/></mask><g mask="url(#b)"><mask id="d" fill="white"><use xlink:href="#c"/></mask><rect width="209" height="1" fill="#D7D7DB" mask="url(#d)"/><rect width="209" height="1" y="13" fill="#D7D7DB" mask="url(#d)"/><rect width="209" height="1" y="26" fill="#D7D7DB" mask="url(#d)"/><rect width="209" height="1" y="39" fill="#D7D7DB" mask="url(#d)"/><rect width="209" height="1" y="52" fill="#D7D7DB" mask="url(#d)"/><rect width="209" height="1" y="65" fill="#D7D7DB" mask="url(#d)"/><rect width="209" height="1" y="78" fill="#D7D7DB" mask="url(#d)"/><rect width="209" height="1" y="91" fill="#D7D7DB" mask="url(#d)"/><rect width="209" height="1" y="104" fill="#D7D7DB" mask="url(#d)"/><rect width="209" height="1" y="117" fill="#D7D7DB" mask="url(#d)"/><rect width="209" height="1" y="130" fill="#D7D7DB" mask="url(#d)"/><rect width="209" height="1" y="143" fill="#D7D7DB" mask="url(#d)"/><rect width="209" height="1" y="156" fill="#D7D7DB" mask="url(#d)"/><rect width="209" height="1" y="169" fill="#D7D7DB" mask="url(#d)"/><rect width="209" height="1" y="182" fill="#D7D7DB" mask="url(#d)"/><rect width="209" height="1" y="195" fill="#D7D7DB" mask="url(#d)"/><rect width="209" height="1" y="208" fill="#D7D7DB" mask="url(#d)"/></g><g><mask id="f" fill="white"><use xlink:href="#e"/></mask><rect width="1" height="209" fill="#D7D7DB" mask="url(#f)"/><rect width="1" height="209" x="13" fill="#D7D7DB" mask="url(#f)"/><rect width="1" height="209" x="26" fill="#D7D7DB" mask="url(#f)"/><rect width="1" height="209" x="39" fill="#D7D7DB" mask="url(#f)"/><rect width="1" height="209" x="52" fill="#D7D7DB" mask="url(#f)"/><rect width="1" height="209" x="65" fill="#D7D7DB" mask="url(#f)"/><rect width="1" height="209" x="78" fill="#D7D7DB" mask="url(#f)"/><rect width="1" height="209" x="91" fill="#D7D7DB" mask="url(#f)"/><rect width="1" height="209" x="104" fill="#D7D7DB" mask="url(#f)"/><rect width="1" height="209" x="117" fill="#D7D7DB" mask="url(#f)"/><rect width="1" height="209" x="130" fill="#D7D7DB" mask="url(#f)"/><rect width="1" height="209" x="143" fill="#D7D7DB" mask="url(#f)"/><rect width="1" height="209" x="156" fill="#D7D7DB" mask="url(#f)"/><rect width="1" height="209" x="169" fill="#D7D7DB" mask="url(#f)"/><rect width="1" height="209" x="182" fill="#D7D7DB" mask="url(#f)"/><rect width="1" height="209" x="195" fill="#D7D7DB" mask="url(#f)"/><rect width="1" height="209" x="208" fill="#D7D7DB" mask="url(#f)"/></g><rect width="195" height="195" x="7" y="7" stroke="#000000" stroke-width="14" opacity=".1"/></g><g transform="translate(46.5 46.5)"><use fill="#FFFFFF" xlink:href="#g"/><use fill="#0C0C0D" fill-opacity=".8" xlink:href="#g"/><rect width="76" height="76" x="105" y="131" stroke="#0A84FF" stroke-width="2" rx="38"/><rect width="24" height="24" x="53.5" y="157.5" stroke="#0A84FF" stroke-width="2" rx="12"/></g><use fill="#0A84FF" fill-opacity=".25" xlink:href="#h"/><use fill="black" filter="url(#i)" xlink:href="#h"/><path fill="#0A84FF" fill-opacity=".8" d="M99.92 282h-1.1v-6.85l-1.87 1.14-.48-.78 2.48-1.54h.97V282zm7.14-5.6c.38.57.57 1.38.57 2.43 0 1-.22 1.8-.65 2.4-.43.61-1.04.91-1.84.91-.7 0-1.25-.24-1.65-.72v3l-1.1.14v-8.88h.94l.09.85c.23-.32.5-.57.84-.74a2.2 2.2 0 0 1 1.03-.26c.8 0 1.4.29 1.77.87zm-.62 2.43c0-1.61-.48-2.42-1.43-2.42-.31 0-.6.09-.85.27-.26.19-.48.42-.67.71v3.09a1.62 1.62 0 0 0 1.4.77c1.03 0 1.55-.81 1.55-2.42zm7.45 3.17h-1.33l-1.55-2.68-1.57 2.68h-1.25l2.21-3.34-1.96-2.98h1.3l1.32 2.31 1.33-2.31h1.25l-1.94 2.94 2.2 3.38z"/><use fill="#0A84FF" fill-opacity=".25" xlink:href="#j"/><use fill="black" filter="url(#k)" xlink:href="#j"/><path fill="#0A84FF" fill-opacity=".8" d="M203.63 274.13a1.94 1.94 0 0 1 1.1 1.76c0 .49-.14.9-.43 1.2-.28.32-.66.54-1.13.65.53.05.97.24 1.3.58.34.33.51.79.51 1.36 0 .47-.11.89-.34 1.26a2.3 2.3 0 0 1-.96.89c-.41.2-.9.31-1.44.31a3.3 3.3 0 0 1-1.34-.27c-.4-.18-.76-.45-1.07-.8l.66-.62c.27.27.54.47.81.6.28.13.58.2.9.2.51 0 .9-.15 1.2-.43.28-.29.43-.67.43-1.15 0-.53-.14-.9-.41-1.11a1.88 1.88 0 0 0-1.19-.33h-.6l.13-.85h.41c.42 0 .76-.12 1.04-.37s.41-.6.41-1.05c0-.37-.12-.67-.36-.89a1.38 1.38 0 0 0-.97-.33c-.31 0-.6.06-.86.17-.26.11-.52.3-.8.55l-.57-.66a3.28 3.28 0 0 1 2.3-.95c.49 0 .91.1 1.27.28zm7.83 2.27c.38.57.56 1.38.56 2.43 0 1-.21 1.8-.64 2.4-.44.61-1.05.91-1.84.91-.7 0-1.26-.24-1.66-.72v3l-1.1.14v-8.88h.95l.08.85c.23-.32.51-.57.84-.74a2.2 2.2 0 0 1 1.03-.26c.81 0 1.4.29 1.78.87zm-.62 2.43c0-1.61-.48-2.42-1.43-2.42-.31 0-.6.09-.85.27-.26.19-.48.42-.68.71v3.09a1.62 1.62 0 0 0 1.4.77c1.04 0 1.56-.81 1.56-2.42zm7.45 3.17h-1.33l-1.55-2.68-1.57 2.68h-1.25l2.2-3.34-1.95-2.98h1.3l1.32 2.31 1.33-2.31h1.25l-1.95 2.94 2.2 3.38z"/></g></svg>