<?xml version="1.0" encoding="utf-8"?>
<!-- Generator: Adobe Illustrator 21.0.1, SVG Export Plug-In . SVG Version: 6.00 Build 0)  -->
<svg version="1.1" xmlns="http://www.w3.org/2000/svg" xmlns:xlink="http://www.w3.org/1999/xlink" x="0px" y="0px"
	 viewBox="0 0 100 100" style="enable-background:new 0 0 100 100;" xml:space="preserve">
<style type="text/css">
	.st0{opacity:5.000000e-02;fill:#25003E;}
	.st1{fill:#FFFFFF;}
	.st2{opacity:0.5;}
	.st3{fill:#00FEFF;}
	.st4{opacity:0.1;fill:#FF00FF;enable-background:new    ;}
	.st5{fill:#FF00FF;}
	.st6{opacity:0.5;fill:#FF00FF;enable-background:new    ;}
	.st7{opacity:0.4;}
	.st8{opacity:0.2;}
	.st9{fill:none;stroke:#000F40;stroke-width:0.1;stroke-miterlimit:10;}
	.st10{opacity:0.3;}
</style>
<g id="BG">
	<rect class="st0" width="100" height="100"/>
</g>
<g id="Grid">
	<rect id="bg-white" x="10" y="10" class="st1" width="80" height="80"/>
	<g id="Layer_1_copy_3">
		<g>
			<g>
				<g class="st2">
					<path class="st3" d="M85,15v70h-70V15H85 M90,10H10v80h80V10L90,10z"/>
				</g>
			</g>
			<g>
				<path class="st4" d="M80,84.9H20c-2.7,0-5-2.3-5-5v-60c0-2.7,2.3-5,5-5h60c2.7,0,5,2.3,5,5v60C85,82.7,82.8,84.9,80,84.9z"/>
				<g class="st2">
					<path class="st5" d="M80,15.2c2.6,0,4.7,2.1,4.7,4.7v60c0,2.6-2.1,4.7-4.7,4.7H20c-2.6,0-4.7-2.1-4.7-4.7v-60
						c0-2.6,2.1-4.7,4.7-4.7H80 M80,15H20c-2.7,0-5,2.3-5,5v60c0,2.7,2.3,5,5,5h60c2.7,0,5-2.3,5-5v-60C85,17.2,82.8,15,80,15L80,15
						z"/>
				</g>
			</g>
			<g>
				<path class="st4" d="M85,80h-70c-2.7,0-5-2.3-5-5V24.9c0-2.7,2.3-5,5-5h70c2.7,0,5,2.3,5,5v50C90,77.7,87.7,80,85,80z"/>
				<g class="st2">
					<path class="st5" d="M85,20.2c2.6,0,4.7,2.1,4.7,4.7v50c0,2.6-2.1,4.7-4.7,4.7h-70c-2.6,0-4.7-2.1-4.7-4.7v-50
						c0-2.6,2.1-4.7,4.7-4.7L85,20.2 M85,19.9h-70c-2.7,0-5,2.3-5,5v50c0,2.7,2.3,5,5,5h70c2.7,0,5-2.3,5-5v-50
						C90,22.2,87.7,19.9,85,19.9L85,19.9z"/>
				</g>
			</g>
			<g>
				<path class="st4" d="M75,89.9H25c-2.7,0-5-2.3-5-5V15c0-2.7,2.3-5,5-5h50c2.7,0,5,2.3,5,5v70C80,87.7,77.7,89.9,75,89.9z"/>
				<g class="st2">
					<path class="st5" d="M75,10.2c2.6,0,4.7,2.1,4.7,4.7v70c0,2.6-2.1,4.7-4.7,4.7H25c-2.6,0-4.7-2.1-4.7-4.7V15
						c0-2.6,2.1-4.7,4.7-4.7H75 M75,10H25c-2.7,0-5,2.3-5,5v70c0,2.7,2.3,5,5,5h50c2.7,0,5-2.3,5-5V15C80,12.1,77.7,10,75,10L75,10z
						"/>
				</g>
			</g>
			<rect x="20" y="19.9" class="st6" width="60" height="60"/>
			<g class="st7">
				<g class="st8">
					<rect x="10.2" y="10.2" class="st9" width="5" height="5"/>
					<rect x="15.2" y="10.2" class="st9" width="5" height="5"/>
					<rect x="20.2" y="10.2" class="st9" width="5" height="5"/>
					<rect x="25.1" y="10.2" class="st9" width="5" height="5"/>
					<rect x="30.1" y="10.2" class="st9" width="5" height="5"/>
					<rect x="35" y="10.2" class="st9" width="5" height="5"/>
					<rect x="40" y="10.2" class="st9" width="5" height="5"/>
					<rect x="45" y="10.2" class="st9" width="5" height="5"/>
					<rect x="50.1" y="10.2" class="st9" width="5" height="5"/>
					<rect x="55" y="10.2" class="st9" width="5" height="5"/>
					<rect x="60" y="10.2" class="st9" width="5" height="5"/>
					<rect x="65" y="10.2" class="st9" width="5" height="5"/>
					<rect x="69.9" y="10.2" class="st9" width="5" height="5"/>
					<rect x="74.9" y="10.2" class="st9" width="5" height="5"/>
					<rect x="79.8" y="10.2" class="st9" width="5" height="5"/>
					<rect x="84.8" y="10.2" class="st9" width="5" height="5"/>
					<rect x="10.2" y="15.2" class="st9" width="5" height="5"/>
					<rect x="15.2" y="15.2" class="st9" width="5" height="5"/>
					<rect x="20.2" y="15.2" class="st9" width="5" height="5"/>
					<rect x="25.1" y="15.2" class="st9" width="5" height="5"/>
					<rect x="30.1" y="15.2" class="st9" width="5" height="5"/>
					<rect x="35" y="15.2" class="st9" width="5" height="5"/>
					<rect x="40" y="15.2" class="st9" width="5" height="5"/>
					<rect x="45" y="15.2" class="st9" width="5" height="5"/>
					<rect x="50.1" y="15.2" class="st9" width="5" height="5"/>
					<rect x="55" y="15.2" class="st9" width="5" height="5"/>
					<rect x="60" y="15.2" class="st9" width="5" height="5"/>
					<rect x="65" y="15.2" class="st9" width="5" height="5"/>
					<rect x="69.9" y="15.2" class="st9" width="5" height="5"/>
					<rect x="74.9" y="15.2" class="st9" width="5" height="5"/>
					<rect x="79.8" y="15.2" class="st9" width="5" height="5"/>
					<rect x="84.8" y="15.2" class="st9" width="5" height="5"/>
					<rect x="10.2" y="20.2" class="st9" width="5" height="5"/>
					<rect x="15.2" y="20.2" class="st9" width="5" height="5"/>
					<rect x="20.2" y="20.2" class="st9" width="5" height="5"/>
					<rect x="25.1" y="20.2" class="st9" width="5" height="5"/>
					<rect x="30.1" y="20.2" class="st9" width="5" height="5"/>
					<rect x="35" y="20.2" class="st9" width="5" height="5"/>
					<rect x="40" y="20.2" class="st9" width="5" height="5"/>
					<rect x="45" y="20.2" class="st9" width="5" height="5"/>
					<rect x="50.1" y="20.2" class="st9" width="5" height="5"/>
					<rect x="55" y="20.2" class="st9" width="5" height="5"/>
					<rect x="60" y="20.2" class="st9" width="5" height="5"/>
					<rect x="65" y="20.2" class="st9" width="5" height="5"/>
					<rect x="69.9" y="20.2" class="st9" width="5" height="5"/>
					<rect x="74.9" y="20.2" class="st9" width="5" height="5"/>
					<rect x="79.8" y="20.2" class="st9" width="5" height="5"/>
					<rect x="84.8" y="20.2" class="st9" width="5" height="5"/>
					<rect x="10.2" y="25.1" class="st9" width="5" height="5"/>
					<rect x="15.2" y="25.1" class="st9" width="5" height="5"/>
					<rect x="20.2" y="25.1" class="st9" width="5" height="5"/>
					<rect x="25.1" y="25.1" class="st9" width="5" height="5"/>
					<rect x="30.1" y="25.1" class="st9" width="5" height="5"/>
					<rect x="35" y="25.1" class="st9" width="5" height="5"/>
					<rect x="40" y="25.1" class="st9" width="5" height="5"/>
					<rect x="45" y="25.1" class="st9" width="5" height="5"/>
					<rect x="50.1" y="25.1" class="st9" width="5" height="5"/>
					<rect x="55" y="25.1" class="st9" width="5" height="5"/>
					<rect x="60" y="25.1" class="st9" width="5" height="5"/>
					<rect x="65" y="25.1" class="st9" width="5" height="5"/>
					<rect x="69.9" y="25.1" class="st9" width="5" height="5"/>
					<rect x="74.9" y="25.1" class="st9" width="5" height="5"/>
					<rect x="79.8" y="25.1" class="st9" width="5" height="5"/>
					<rect x="84.8" y="25.1" class="st9" width="5" height="5"/>
					<rect x="10.2" y="30.1" class="st9" width="5" height="5"/>
					<rect x="15.2" y="30.1" class="st9" width="5" height="5"/>
					<rect x="20.2" y="30.1" class="st9" width="5" height="5"/>
					<rect x="25.1" y="30.1" class="st9" width="5" height="5"/>
					<rect x="30.1" y="30.1" class="st9" width="5" height="5"/>
					<rect x="35" y="30.1" class="st9" width="5" height="5"/>
					<rect x="40" y="30.1" class="st9" width="5" height="5"/>
					<rect x="45" y="30.1" class="st9" width="5" height="5"/>
					<rect x="50.1" y="30.1" class="st9" width="5" height="5"/>
					<rect x="55" y="30.1" class="st9" width="5" height="5"/>
					<rect x="60" y="30.1" class="st9" width="5" height="5"/>
					<rect x="65" y="30.1" class="st9" width="5" height="5"/>
					<rect x="69.9" y="30.1" class="st9" width="5" height="5"/>
					<rect x="74.9" y="30.1" class="st9" width="5" height="5"/>
					<rect x="79.8" y="30.1" class="st9" width="5" height="5"/>
					<rect x="84.8" y="30.1" class="st9" width="5" height="5"/>
					<rect x="10.2" y="35" class="st9" width="5" height="5"/>
					<rect x="15.2" y="35" class="st9" width="5" height="5"/>
					<rect x="20.2" y="35" class="st9" width="5" height="5"/>
					<rect x="25.1" y="35" class="st9" width="5" height="5"/>
					<rect x="30.1" y="35" class="st9" width="5" height="5"/>
					<rect x="35" y="35" class="st9" width="5" height="5"/>
					<rect x="40" y="35" class="st9" width="5" height="5"/>
					<rect x="45" y="35" class="st9" width="5" height="5"/>
					<rect x="50.1" y="35" class="st9" width="5" height="5"/>
					<rect x="55" y="35" class="st9" width="5" height="5"/>
					<rect x="60" y="35" class="st9" width="5" height="5"/>
					<rect x="65" y="35" class="st9" width="5" height="5"/>
					<rect x="69.9" y="35" class="st9" width="5" height="5"/>
					<rect x="74.9" y="35" class="st9" width="5" height="5"/>
					<rect x="79.8" y="35" class="st9" width="5" height="5"/>
					<rect x="84.8" y="35" class="st9" width="5" height="5"/>
					<rect x="10.2" y="40" class="st9" width="5" height="5"/>
					<rect x="15.2" y="40" class="st9" width="5" height="5"/>
					<rect x="20.2" y="40" class="st9" width="5" height="5"/>
					<rect x="25.1" y="40" class="st9" width="5" height="5"/>
					<rect x="30.1" y="40" class="st9" width="5" height="5"/>
					<rect x="35" y="40" class="st9" width="5" height="5"/>
					<rect x="40" y="40" class="st9" width="5" height="5"/>
					<rect x="45" y="40" class="st9" width="5" height="5"/>
					<rect x="50.1" y="40" class="st9" width="5" height="5"/>
					<rect x="55" y="40" class="st9" width="5" height="5"/>
					<rect x="60" y="40" class="st9" width="5" height="5"/>
					<rect x="65" y="40" class="st9" width="5" height="5"/>
					<rect x="69.9" y="40" class="st9" width="5" height="5"/>
					<rect x="74.9" y="40" class="st9" width="5" height="5"/>
					<rect x="79.8" y="40" class="st9" width="5" height="5"/>
					<rect x="84.8" y="40" class="st9" width="5" height="5"/>
					<rect x="10.2" y="45" class="st9" width="5" height="5"/>
					<rect x="15.2" y="45" class="st9" width="5" height="5"/>
					<rect x="20.2" y="45" class="st9" width="5" height="5"/>
					<rect x="25.1" y="45" class="st9" width="5" height="5"/>
					<rect x="30.1" y="45" class="st9" width="5" height="5"/>
					<rect x="35" y="45" class="st9" width="5" height="5"/>
					<rect x="40" y="45" class="st9" width="5" height="5"/>
					<rect x="45" y="45" class="st9" width="5" height="5"/>
					<rect x="50.1" y="45" class="st9" width="5" height="5"/>
					<rect x="55" y="45" class="st9" width="5" height="5"/>
					<rect x="60" y="45" class="st9" width="5" height="5"/>
					<rect x="65" y="45" class="st9" width="5" height="5"/>
					<rect x="69.9" y="45" class="st9" width="5" height="5"/>
					<rect x="74.9" y="45" class="st9" width="5" height="5"/>
					<rect x="79.8" y="45" class="st9" width="5" height="5"/>
					<rect x="84.8" y="45" class="st9" width="5" height="5"/>
					<rect x="10.2" y="49.9" class="st9" width="5" height="5"/>
					<rect x="15.2" y="49.9" class="st9" width="5" height="5"/>
					<rect x="20.2" y="49.9" class="st9" width="5" height="5"/>
					<rect x="25.1" y="49.9" class="st9" width="5" height="5"/>
					<rect x="30.1" y="49.9" class="st9" width="5" height="5"/>
					<rect x="35" y="49.9" class="st9" width="5" height="5"/>
					<rect x="40" y="49.9" class="st9" width="5" height="5"/>
					<rect x="45" y="49.9" class="st9" width="5" height="5"/>
					<rect x="50.1" y="49.9" class="st9" width="5" height="5"/>
					<rect x="55" y="49.9" class="st9" width="5" height="5"/>
					<rect x="60" y="49.9" class="st9" width="5" height="5"/>
					<rect x="65" y="49.9" class="st9" width="5" height="5"/>
					<rect x="69.9" y="49.9" class="st9" width="5" height="5"/>
					<rect x="74.9" y="49.9" class="st9" width="5" height="5"/>
					<rect x="79.8" y="49.9" class="st9" width="5" height="5"/>
					<rect x="84.8" y="49.9" class="st9" width="5" height="5"/>
					<rect x="10.2" y="54.9" class="st9" width="5" height="5"/>
					<rect x="15.2" y="54.9" class="st9" width="5" height="5"/>
					<rect x="20.2" y="54.9" class="st9" width="5" height="5"/>
					<rect x="25.1" y="54.9" class="st9" width="5" height="5"/>
					<rect x="30.1" y="54.9" class="st9" width="5" height="5"/>
					<rect x="35" y="54.9" class="st9" width="5" height="5"/>
					<rect x="40" y="54.9" class="st9" width="5" height="5"/>
					<rect x="45" y="54.9" class="st9" width="5" height="5"/>
					<rect x="50.1" y="54.9" class="st9" width="5" height="5"/>
					<rect x="55" y="54.9" class="st9" width="5" height="5"/>
					<rect x="60" y="54.9" class="st9" width="5" height="5"/>
					<rect x="65" y="54.9" class="st9" width="5" height="5"/>
					<rect x="69.9" y="54.9" class="st9" width="5" height="5"/>
					<rect x="74.9" y="54.9" class="st9" width="5" height="5"/>
					<rect x="79.8" y="54.9" class="st9" width="5" height="5"/>
					<rect x="84.8" y="54.9" class="st9" width="5" height="5"/>
					<rect x="10.2" y="59.9" class="st9" width="5" height="5"/>
					<rect x="15.2" y="59.9" class="st9" width="5" height="5"/>
					<rect x="20.2" y="59.9" class="st9" width="5" height="5"/>
					<rect x="25.1" y="59.9" class="st9" width="5" height="5"/>
					<rect x="30.1" y="59.9" class="st9" width="5" height="5"/>
					<rect x="35" y="59.9" class="st9" width="5" height="5"/>
					<rect x="40" y="59.9" class="st9" width="5" height="5"/>
					<rect x="45" y="59.9" class="st9" width="5" height="5"/>
					<rect x="50.1" y="59.9" class="st9" width="5" height="5"/>
					<rect x="55" y="59.9" class="st9" width="5" height="5"/>
					<rect x="60" y="59.9" class="st9" width="5" height="5"/>
					<rect x="65" y="59.9" class="st9" width="5" height="5"/>
					<rect x="69.9" y="59.9" class="st9" width="5" height="5"/>
					<rect x="74.9" y="59.9" class="st9" width="5" height="5"/>
					<rect x="79.8" y="59.9" class="st9" width="5" height="5"/>
					<rect x="84.8" y="59.9" class="st9" width="5" height="5"/>
					<rect x="10.2" y="64.8" class="st9" width="5" height="5"/>
					<rect x="15.2" y="64.8" class="st9" width="5" height="5"/>
					<rect x="20.2" y="64.8" class="st9" width="5" height="5"/>
					<rect x="25.1" y="64.8" class="st9" width="5" height="5"/>
					<rect x="30.1" y="64.8" class="st9" width="5" height="5"/>
					<rect x="35" y="64.8" class="st9" width="5" height="5"/>
					<rect x="40" y="64.8" class="st9" width="5" height="5"/>
					<rect x="45" y="64.8" class="st9" width="5" height="5"/>
					<rect x="50.1" y="64.8" class="st9" width="5" height="5"/>
					<rect x="55" y="64.8" class="st9" width="5" height="5"/>
					<rect x="60" y="64.8" class="st9" width="5" height="5"/>
					<rect x="65" y="64.8" class="st9" width="5" height="5"/>
					<rect x="69.9" y="64.8" class="st9" width="5" height="5"/>
					<rect x="74.9" y="64.8" class="st9" width="5" height="5"/>
					<rect x="79.8" y="64.8" class="st9" width="5" height="5"/>
					<rect x="84.8" y="64.8" class="st9" width="5" height="5"/>
					<rect x="10.2" y="69.8" class="st9" width="5" height="5"/>
					<rect x="15.2" y="69.8" class="st9" width="5" height="5"/>
					<rect x="20.2" y="69.8" class="st9" width="5" height="5"/>
					<rect x="25.1" y="69.8" class="st9" width="5" height="5"/>
					<rect x="30.1" y="69.8" class="st9" width="5" height="5"/>
					<rect x="35" y="69.8" class="st9" width="5" height="5"/>
					<rect x="40" y="69.8" class="st9" width="5" height="5"/>
					<rect x="45" y="69.8" class="st9" width="5" height="5"/>
					<rect x="50.1" y="69.8" class="st9" width="5" height="5"/>
					<rect x="55" y="69.8" class="st9" width="5" height="5"/>
					<rect x="60" y="69.8" class="st9" width="5" height="5"/>
					<rect x="65" y="69.8" class="st9" width="5" height="5"/>
					<rect x="69.9" y="69.8" class="st9" width="5" height="5"/>
					<rect x="74.9" y="69.8" class="st9" width="5" height="5"/>
					<rect x="79.8" y="69.8" class="st9" width="5" height="5"/>
					<rect x="84.8" y="69.8" class="st9" width="5" height="5"/>
					<rect x="10.2" y="74.8" class="st9" width="5" height="5"/>
					<rect x="15.2" y="74.8" class="st9" width="5" height="5"/>
					<rect x="20.2" y="74.8" class="st9" width="5" height="5"/>
					<rect x="25.1" y="74.8" class="st9" width="5" height="5"/>
					<rect x="30.1" y="74.8" class="st9" width="5" height="5"/>
					<rect x="35" y="74.8" class="st9" width="5" height="5"/>
					<rect x="40" y="74.8" class="st9" width="5" height="5"/>
					<rect x="45" y="74.8" class="st9" width="5" height="5"/>
					<rect x="50.1" y="74.8" class="st9" width="5" height="5"/>
					<rect x="55" y="74.8" class="st9" width="5" height="5"/>
					<rect x="60" y="74.8" class="st9" width="5" height="5"/>
					<rect x="65" y="74.8" class="st9" width="5" height="5"/>
					<rect x="69.9" y="74.8" class="st9" width="5" height="5"/>
					<rect x="74.9" y="74.8" class="st9" width="5" height="5"/>
					<rect x="79.8" y="74.8" class="st9" width="5" height="5"/>
					<rect x="84.8" y="74.8" class="st9" width="5" height="5"/>
					<rect x="10.2" y="79.7" class="st9" width="5" height="5"/>
					<rect x="15.2" y="79.7" class="st9" width="5" height="5"/>
					<rect x="20.2" y="79.7" class="st9" width="5" height="5"/>
					<rect x="25.1" y="79.7" class="st9" width="5" height="5"/>
					<rect x="30.1" y="79.7" class="st9" width="5" height="5"/>
					<rect x="35" y="79.7" class="st9" width="5" height="5"/>
					<rect x="40" y="79.7" class="st9" width="5" height="5"/>
					<rect x="45" y="79.7" class="st9" width="5" height="5"/>
					<rect x="50.1" y="79.7" class="st9" width="5" height="5"/>
					<rect x="55" y="79.7" class="st9" width="5" height="5"/>
					<rect x="60" y="79.7" class="st9" width="5" height="5"/>
					<rect x="65" y="79.7" class="st9" width="5" height="5"/>
					<rect x="69.9" y="79.7" class="st9" width="5" height="5"/>
					<rect x="74.9" y="79.7" class="st9" width="5" height="5"/>
					<rect x="79.8" y="79.7" class="st9" width="5" height="5"/>
					<rect x="84.8" y="79.7" class="st9" width="5" height="5"/>
					<rect x="10.2" y="84.7" class="st9" width="5" height="5"/>
					<rect x="15.2" y="84.7" class="st9" width="5" height="5"/>
					<rect x="20.2" y="84.7" class="st9" width="5" height="5"/>
					<rect x="25.1" y="84.7" class="st9" width="5" height="5"/>
					<rect x="30.1" y="84.7" class="st9" width="5" height="5"/>
					<rect x="35" y="84.7" class="st9" width="5" height="5"/>
					<rect x="40" y="84.7" class="st9" width="5" height="5"/>
					<rect x="45" y="84.7" class="st9" width="5" height="5"/>
					<rect x="50.1" y="84.7" class="st9" width="5" height="5"/>
					<rect x="55" y="84.7" class="st9" width="5" height="5"/>
					<rect x="60" y="84.7" class="st9" width="5" height="5"/>
					<rect x="65" y="84.7" class="st9" width="5" height="5"/>
					<rect x="69.9" y="84.7" class="st9" width="5" height="5"/>
					<rect x="74.9" y="84.7" class="st9" width="5" height="5"/>
					<rect x="79.8" y="84.7" class="st9" width="5" height="5"/>
					<rect x="84.8" y="84.7" class="st9" width="5" height="5"/>
				</g>
				<g class="st10">
					<polygon class="st9" points="15.2,10.2 10.2,10.2 10.2,15.2 10.2,20.2 15.2,20.2 20.2,20.2 20.2,15.2 20.2,10.2 					"/>
					<polygon class="st9" points="25.1,10.2 20.2,10.2 20.2,15.2 20.2,20.2 25.1,20.2 30.1,20.2 30.1,15.2 30.1,10.2 					"/>
					<polygon class="st9" points="35,10.2 30.1,10.2 30.1,15.2 30.1,20.2 35,20.2 40,20.2 40,15.2 40,10.2 					"/>
					<polygon class="st9" points="45,10.2 40,10.2 40,15.2 40,20.2 45,20.2 50.1,20.2 50.1,15.2 50.1,10.2 					"/>
					<polygon class="st9" points="55,10.2 50.1,10.2 50.1,15.2 50.1,20.2 55,20.2 60,20.2 60,15.2 60,10.2 					"/>
					<polygon class="st9" points="65,10.2 60,10.2 60,15.2 60,20.2 65,20.2 69.9,20.2 69.9,15.2 69.9,10.2 					"/>
					<polygon class="st9" points="74.9,10.2 69.9,10.2 69.9,15.2 69.9,20.2 74.9,20.2 79.8,20.2 79.8,15.2 79.8,10.2 					"/>
					<polygon class="st9" points="84.8,10.2 79.8,10.2 79.8,15.2 79.8,20.2 84.8,20.2 89.8,20.2 89.8,15.2 89.8,10.2 					"/>
					<polygon class="st9" points="15.2,20.2 10.2,20.2 10.2,25.1 10.2,30.1 15.2,30.1 20.2,30.1 20.2,25.1 20.2,20.2 					"/>
					<polygon class="st9" points="25.1,20.2 20.2,20.2 20.2,25.1 20.2,30.1 25.1,30.1 30.1,30.1 30.1,25.1 30.1,20.2 					"/>
					<polygon class="st9" points="35,20.2 30.1,20.2 30.1,25.1 30.1,30.1 35,30.1 40,30.1 40,25.1 40,20.2 					"/>
					<polygon class="st9" points="45,20.2 40,20.2 40,25.1 40,30.1 45,30.1 50.1,30.1 50.1,25.1 50.1,20.2 					"/>
					<polygon class="st9" points="55,20.2 50.1,20.2 50.1,25.1 50.1,30.1 55,30.1 60,30.1 60,25.1 60,20.2 					"/>
					<polygon class="st9" points="65,20.2 60,20.2 60,25.1 60,30.1 65,30.1 69.9,30.1 69.9,25.1 69.9,20.2 					"/>
					<polygon class="st9" points="74.9,20.2 69.9,20.2 69.9,25.1 69.9,30.1 74.9,30.1 79.8,30.1 79.8,25.1 79.8,20.2 					"/>
					<polygon class="st9" points="84.8,20.2 79.8,20.2 79.8,25.1 79.8,30.1 84.8,30.1 89.8,30.1 89.8,25.1 89.8,20.2 					"/>
					<polygon class="st9" points="15.2,30.1 10.2,30.1 10.2,35 10.2,40 15.2,40 20.2,40 20.2,35 20.2,30.1 					"/>
					<polygon class="st9" points="25.1,30.1 20.2,30.1 20.2,35 20.2,40 25.1,40 30.1,40 30.1,35 30.1,30.1 					"/>
					<polygon class="st9" points="35,30.1 30.1,30.1 30.1,35 30.1,40 35,40 40,40 40,35 40,30.1 					"/>
					<polygon class="st9" points="45,30.1 40,30.1 40,35 40,40 45,40 50.1,40 50.1,35 50.1,30.1 					"/>
					<polygon class="st9" points="55,30.1 50.1,30.1 50.1,35 50.1,40 55,40 60,40 60,35 60,30.1 					"/>
					<polygon class="st9" points="65,30.1 60,30.1 60,35 60,40 65,40 69.9,40 69.9,35 69.9,30.1 					"/>
					<polygon class="st9" points="74.9,30.1 69.9,30.1 69.9,35 69.9,40 74.9,40 79.8,40 79.8,35 79.8,30.1 					"/>
					<polygon class="st9" points="84.8,30.1 79.8,30.1 79.8,35 79.8,40 84.8,40 89.8,40 89.8,35 89.8,30.1 					"/>
					<polygon class="st9" points="15.2,40 10.2,40 10.2,45 10.2,49.9 15.2,49.9 20.2,49.9 20.2,45 20.2,40 					"/>
					<polygon class="st9" points="25.1,40 20.2,40 20.2,45 20.2,49.9 25.1,49.9 30.1,49.9 30.1,45 30.1,40 					"/>
					<polygon class="st9" points="35,40 30.1,40 30.1,45 30.1,49.9 35,49.9 40,49.9 40,45 40,40 					"/>
					<polygon class="st9" points="45,40 40,40 40,45 40,49.9 45,49.9 50.1,49.9 50.1,45 50.1,40 					"/>
					<polygon class="st9" points="55,40 50.1,40 50.1,45 50.1,49.9 55,49.9 60,49.9 60,45 60,40 					"/>
					<polygon class="st9" points="65,40 60,40 60,45 60,49.9 65,49.9 69.9,49.9 69.9,45 69.9,40 					"/>
					<polygon class="st9" points="74.9,40 69.9,40 69.9,45 69.9,49.9 74.9,49.9 79.8,49.9 79.8,45 79.8,40 					"/>
					<polygon class="st9" points="84.8,40 79.8,40 79.8,45 79.8,49.9 84.8,49.9 89.8,49.9 89.8,45 89.8,40 					"/>
					<polygon class="st9" points="15.2,49.9 10.2,49.9 10.2,54.9 10.2,59.9 15.2,59.9 20.2,59.9 20.2,54.9 20.2,49.9 					"/>
					<polygon class="st9" points="25.1,49.9 20.2,49.9 20.2,54.9 20.2,59.9 25.1,59.9 30.1,59.9 30.1,54.9 30.1,49.9 					"/>
					<polygon class="st9" points="35,49.9 30.1,49.9 30.1,54.9 30.1,59.9 35,59.9 40,59.9 40,54.9 40,49.9 					"/>
					<polygon class="st9" points="45,49.9 40,49.9 40,54.9 40,59.9 45,59.9 50.1,59.9 50.1,54.9 50.1,49.9 					"/>
					<polygon class="st9" points="55,49.9 50.1,49.9 50.1,54.9 50.1,59.9 55,59.9 60,59.9 60,54.9 60,49.9 					"/>
					<polygon class="st9" points="65,49.9 60,49.9 60,54.9 60,59.9 65,59.9 69.9,59.9 69.9,54.9 69.9,49.9 					"/>
					<polygon class="st9" points="74.9,49.9 69.9,49.9 69.9,54.9 69.9,59.9 74.9,59.9 79.8,59.9 79.8,54.9 79.8,49.9 					"/>
					<polygon class="st9" points="84.8,49.9 79.8,49.9 79.8,54.9 79.8,59.9 84.8,59.9 89.8,59.9 89.8,54.9 89.8,49.9 					"/>
					<polygon class="st9" points="15.2,59.9 10.2,59.9 10.2,64.8 10.2,69.8 15.2,69.8 20.2,69.8 20.2,64.8 20.2,59.9 					"/>
					<polygon class="st9" points="25.1,59.9 20.2,59.9 20.2,64.8 20.2,69.8 25.1,69.8 30.1,69.8 30.1,64.8 30.1,59.9 					"/>
					<polygon class="st9" points="35,59.9 30.1,59.9 30.1,64.8 30.1,69.8 35,69.8 40,69.8 40,64.8 40,59.9 					"/>
					<polygon class="st9" points="45,59.9 40,59.9 40,64.8 40,69.8 45,69.8 50.1,69.8 50.1,64.8 50.1,59.9 					"/>
					<polygon class="st9" points="55,59.9 50.1,59.9 50.1,64.8 50.1,69.8 55,69.8 60,69.8 60,64.8 60,59.9 					"/>
					<polygon class="st9" points="65,59.9 60,59.9 60,64.8 60,69.8 65,69.8 69.9,69.8 69.9,64.8 69.9,59.9 					"/>
					<polygon class="st9" points="74.9,59.9 69.9,59.9 69.9,64.8 69.9,69.8 74.9,69.8 79.8,69.8 79.8,64.8 79.8,59.9 					"/>
					<polygon class="st9" points="84.8,59.9 79.8,59.9 79.8,64.8 79.8,69.8 84.8,69.8 89.8,69.8 89.8,64.8 89.8,59.9 					"/>
					<polygon class="st9" points="15.2,69.8 10.2,69.8 10.2,74.8 10.2,79.7 15.2,79.7 20.2,79.7 20.2,74.8 20.2,69.8 					"/>
					<polygon class="st9" points="25.1,69.8 20.2,69.8 20.2,74.8 20.2,79.7 25.1,79.7 30.1,79.7 30.1,74.8 30.1,69.8 					"/>
					<polygon class="st9" points="35,69.8 30.1,69.8 30.1,74.8 30.1,79.7 35,79.7 40,79.7 40,74.8 40,69.8 					"/>
					<polygon class="st9" points="45,69.8 40,69.8 40,74.8 40,79.7 45,79.7 50.1,79.7 50.1,74.8 50.1,69.8 					"/>
					<polygon class="st9" points="55,69.8 50.1,69.8 50.1,74.8 50.1,79.7 55,79.7 60,79.7 60,74.8 60,69.8 					"/>
					<polygon class="st9" points="65,69.8 60,69.8 60,74.8 60,79.7 65,79.7 69.9,79.7 69.9,74.8 69.9,69.8 					"/>
					<polygon class="st9" points="74.9,69.8 69.9,69.8 69.9,74.8 69.9,79.7 74.9,79.7 79.8,79.7 79.8,74.8 79.8,69.8 					"/>
					<polygon class="st9" points="84.8,69.8 79.8,69.8 79.8,74.8 79.8,79.7 84.8,79.7 89.8,79.7 89.8,74.8 89.8,69.8 					"/>
					<polygon class="st9" points="15.2,79.7 10.2,79.7 10.2,84.7 10.2,89.7 15.2,89.7 20.2,89.7 20.2,84.7 20.2,79.7 					"/>
					<polygon class="st9" points="25.1,79.7 20.2,79.7 20.2,84.7 20.2,89.7 25.1,89.7 30.1,89.7 30.1,84.7 30.1,79.7 					"/>
					<polygon class="st9" points="35,79.7 30.1,79.7 30.1,84.7 30.1,89.7 35,89.7 40,89.7 40,84.7 40,79.7 					"/>
					<polygon class="st9" points="45,79.7 40,79.7 40,84.7 40,89.7 45,89.7 50.1,89.7 50.1,84.7 50.1,79.7 					"/>
					<polygon class="st9" points="55,79.7 50.1,79.7 50.1,84.7 50.1,89.7 55,89.7 60,89.7 60,84.7 60,79.7 					"/>
					<polygon class="st9" points="65,79.7 60,79.7 60,84.7 60,89.7 65,89.7 69.9,89.7 69.9,84.7 69.9,79.7 					"/>
					<polygon class="st9" points="74.9,79.7 69.9,79.7 69.9,84.7 69.9,89.7 74.9,89.7 79.8,89.7 79.8,84.7 79.8,79.7 					"/>
					<polygon class="st9" points="84.8,79.7 79.8,79.7 79.8,84.7 79.8,89.7 84.8,89.7 89.8,89.7 89.8,84.7 89.8,79.7 					"/>
				</g>
			</g>
		</g>
	</g>
</g>
</svg>
