<svg xmlns="http://www.w3.org/2000/svg" xmlns:xlink="http://www.w3.org/1999/xlink" style="background:#fff" viewBox="0 0 150 100">
  <defs>
    <rect id="icons-naming-dont-a" width="300" height="232"/>
    <path id="icons-naming-dont-c" d="M15.845,6.064 C15.7178658,5.68399682 15.3941502,5.40318791 15,5.331 L10.911,4.6 L8.985,0.735 C8.79892016,0.361644034 8.4176575,0.125672752 8.0005,0.125672752 C7.5833425,0.125672752 7.20207984,0.361644034 7.016,0.735 L5.089,4.6 L1.008,5.329 C0.610357805,5.39846397 0.282705804,5.68014496 0.154367628,6.06286401 C0.0260294513,6.44558306 0.117624354,6.8678512 0.393,7.163 L3.32,10.31 L2.711,14.67 C2.65374616,15.0784077 2.82974345,15.4845307 3.16690135,15.7220163 C3.50405925,15.9595019 3.94572993,15.9884488 4.311,15.797 L8,13.873 L11.69,15.8 C12.0552701,15.9914488 12.4969408,15.9625019 12.8340987,15.7250163 C13.1712565,15.4875307 13.3472538,15.0814077 13.29,14.673 L12.68,10.31 L15.606,7.164 C15.8814532,6.86895491 15.9731878,6.44674527 15.845,6.064 L15.845,6.064 Z"/>
  </defs>
  <g fill="none" fill-rule="evenodd">
    <g opacity=".05" transform="translate(-75 -66)">
      <mask id="icons-naming-dont-b" fill="#fff">
        <use xlink:href="#icons-naming-dont-a"/>
      </mask>
      <g fill="#000F40" mask="url(#icons-naming-dont-b)">
        <rect width="354" height="354" transform="translate(-27 -61)"/>
      </g>
    </g>
    <path fill="#0A84FF" fill-rule="nonzero" d="M8,17.9935649 L8,100 L142,100 L142,17.9935649 C142,16.8865235 141.105361,16 140.001769,16 L9.9982312,16 C8.89112382,16 8,16.8925494 8,17.9935649 Z M6,17.9935649 C6,15.7862646 7.78827035,14 9.9982312,14 L140.001769,14 C142.210044,14 144,15.7820479 144,17.9935649 L144,102 L6,102 L6,17.9935649 Z"/>
    <path fill="#FFF" fill-rule="nonzero" d="M8,17.9935649 L8,100 L142,100 L142,17.9935649 C142,16.8865235 141.105361,16 140.001769,16 L9.9982312,16 C8.89112382,16 8,16.8925494 8,17.9935649 Z"/>
    <g transform="translate(54 24)">
      <path fill="#000F40" d="M2.856,45.532 C1.548,45.532 0.576,46.264 0.576,47.26 C0.576,48.16 1.116,48.748 2.484,49.108 C3.708,49.432 4.02,49.672 4.02,50.332 C4.02,50.884 3.492,51.256 2.664,51.256 C1.98,51.256 1.392,51.028 0.912,50.62 L0.3,51.316 C0.852,51.796 1.62,52.144 2.688,52.144 C3.972,52.144 5.184,51.544 5.184,50.224 C5.184,49.12 4.416,48.592 3.084,48.256 C2.064,47.992 1.728,47.752 1.728,47.236 C1.728,46.732 2.172,46.408 2.892,46.408 C3.48,46.408 3.972,46.588 4.524,46.984 L5.004,46.252 C4.404,45.796 3.744,45.532 2.856,45.532 Z M9.936,51.712 L9.516,50.956 C9.204,51.148 8.952,51.232 8.676,51.232 C8.124,51.232 7.92,50.932 7.92,50.296 L7.92,46.528 L9.3,46.528 L9.42,45.676 L7.92,45.676 L7.92,44.116 L6.816,44.248 L6.816,45.676 L5.712,45.676 L5.712,46.528 L6.816,46.528 L6.816,50.344 C6.816,51.52 7.452,52.144 8.52,52.144 C9.06,52.144 9.516,52 9.936,51.712 Z M15.336,50.524 C15.336,51.076 15.54,51.256 15.864,51.376 L15.612,52.144 C14.976,52.072 14.568,51.82 14.376,51.196 C13.932,51.856 13.26,52.144 12.492,52.144 C11.232,52.144 10.476,51.364 10.476,50.236 C10.476,48.88 11.496,48.148 13.26,48.148 L14.232,48.148 L14.232,47.68 C14.232,46.768 13.788,46.432 12.912,46.432 C12.444,46.432 11.856,46.552 11.208,46.768 L10.932,45.964 C11.712,45.676 12.408,45.532 13.116,45.532 C14.64,45.532 15.336,46.312 15.336,47.632 L15.336,50.524 Z M12.744,51.316 C13.392,51.316 13.872,50.992 14.232,50.332 L14.232,48.88 L13.404,48.88 C12.24,48.88 11.652,49.312 11.652,50.176 C11.652,50.92 12.024,51.316 12.744,51.316 Z M20.352,45.532 C19.584,45.532 18.996,46.012 18.66,46.96 L18.552,45.676 L17.604,45.676 L17.604,52 L18.708,52 L18.708,48.388 C18.972,47.176 19.428,46.612 20.22,46.612 C20.448,46.612 20.58,46.636 20.772,46.684 L20.976,45.604 C20.784,45.556 20.556,45.532 20.352,45.532 Z M22.524,50.476 C22.056,50.476 21.696,50.848 21.696,51.304 C21.696,51.772 22.056,52.144 22.524,52.144 C23.004,52.144 23.364,51.772 23.364,51.304 C23.364,50.848 23.004,50.476 22.524,50.476 Z M26.832,45.532 C25.524,45.532 24.552,46.264 24.552,47.26 C24.552,48.16 25.092,48.748 26.46,49.108 C27.684,49.432 27.996,49.672 27.996,50.332 C27.996,50.884 27.468,51.256 26.64,51.256 C25.956,51.256 25.368,51.028 24.888,50.62 L24.276,51.316 C24.828,51.796 25.596,52.144 26.664,52.144 C27.948,52.144 29.16,51.544 29.16,50.224 C29.16,49.12 28.392,48.592 27.06,48.256 C26.04,47.992 25.704,47.752 25.704,47.236 C25.704,46.732 26.148,46.408 26.868,46.408 C27.456,46.408 27.948,46.588 28.5,46.984 L28.98,46.252 C28.38,45.796 27.72,45.532 26.832,45.532 Z M33.216,52 L35.364,45.676 L34.2,45.676 L32.556,51.016 L30.9,45.676 L29.7,45.676 L31.884,52 L33.216,52 Z M41.724,45.964 C41.196,46.132 40.596,46.156 39.876,46.156 C40.62,46.492 40.992,47.02 40.992,47.752 C40.992,49 40.092,49.9 38.58,49.9 C38.292,49.9 38.04,49.864 37.776,49.78 C37.596,49.912 37.464,50.14 37.464,50.368 C37.464,50.656 37.644,50.884 38.292,50.884 L39.3,50.884 C40.596,50.884 41.46,51.628 41.46,52.636 C41.46,53.86 40.452,54.556 38.496,54.556 C36.432,54.556 35.784,53.92 35.784,52.636 L36.78,52.636 C36.78,53.356 37.104,53.692 38.496,53.692 C39.864,53.692 40.344,53.344 40.344,52.708 C40.344,52.108 39.864,51.808 39.072,51.808 L38.076,51.808 C36.948,51.808 36.444,51.244 36.444,50.608 C36.444,50.2 36.684,49.792 37.14,49.492 C36.408,49.108 36.072,48.556 36.072,47.74 C36.072,46.444 37.116,45.532 38.508,45.532 C40.08,45.568 40.656,45.304 41.4,44.968 L41.724,45.964 Z M38.508,46.324 C37.656,46.324 37.2,46.912 37.2,47.74 C37.2,48.58 37.668,49.168 38.532,49.168 C39.396,49.168 39.864,48.64 39.864,47.728 C39.864,46.804 39.408,46.324 38.508,46.324 Z"/>
      <g transform="translate(5)">
        <rect width="32" height="32"/>
        <g transform="translate(8 8)">
          <mask id="icons-naming-dont-d" fill="#fff">
            <use xlink:href="#icons-naming-dont-c"/>
          </mask>
          <use fill="#4D4D4D" fill-rule="nonzero" xlink:href="#icons-naming-dont-c"/>
          <g fill="#000F40" mask="url(#icons-naming-dont-d)">
            <rect width="120" height="120" transform="translate(-47 -47)"/>
          </g>
        </g>
      </g>
    </g>
  </g>
</svg>
