<svg xmlns="http://www.w3.org/2000/svg" style="background:#fff" viewBox="0 0 300 96"><g fill="#0C0C0D" fill-rule="evenodd" transform="translate(46 32)"><path fill-opacity=".8" d="M31.49 11.88a2.2 2.2 0 0 0-1.7-1.47l-8.17-1.45-3.85-7.74A2.18 2.18 0 0 0 15.8 0c-.84 0-1.6.47-1.97 1.22L9.98 8.96 1.82 10.4A2.2 2.2 0 0 0 .6 14.08l5.85 6.3-1.22 8.71a2.2 2.2 0 0 0 3.2 2.26l7.38-3.85 7.38 3.84a2.2 2.2 0 0 0 3.2-2.25l-1.22-8.72L31 14.08a2.2 2.2 0 0 0 .48-2.2"/><path d="M47.19 15.33c.53.72.79 1.74.79 3.04a5.8 5.8 0 0 1-.38 2.16A3.25 3.25 0 0 1 46.52 22c-.47.34-1.01.52-1.65.52-.83 0-1.52-.35-2.1-1.05l-.13.87h-1.22V11.24l1.38-.16v4.33a2.65 2.65 0 0 1 2.24-1.17c.9 0 1.61.36 2.15 1.09zm-1.21 5.34c.34-.5.52-1.26.52-2.3 0-1.07-.16-1.85-.48-2.32a1.55 1.55 0 0 0-1.37-.71c-.7 0-1.31.4-1.84 1.23v3.78c.2.33.46.59.77.78.3.19.62.28.97.28.6 0 1.08-.25 1.43-.74zm9.91-5.32c.62.74.92 1.75.92 3.02 0 .82-.13 1.54-.41 2.16A3.3 3.3 0 0 1 55.18 22c-.53.34-1.16.52-1.89.52a3.2 3.2 0 0 1-2.6-1.11 4.55 4.55 0 0 1-.92-3.02c0-.82.13-1.54.41-2.17a3.3 3.3 0 0 1 1.22-1.45 3.41 3.41 0 0 1 1.9-.52c1.12 0 1.98.37 2.6 1.11zm-4.64 3.03c0 2.01.68 3.02 2.04 3.02 1.36 0 2.04-1.01 2.04-3.03 0-2.01-.67-3.02-2.02-3.02-1.38 0-2.06 1.01-2.06 3.03zm13.4-3.03c.62.74.92 1.75.92 3.02 0 .82-.13 1.54-.41 2.16A3.3 3.3 0 0 1 63.94 22c-.53.34-1.16.52-1.89.52a3.2 3.2 0 0 1-2.6-1.11 4.55 4.55 0 0 1-.93-3.02c0-.82.14-1.54.42-2.17a3.3 3.3 0 0 1 1.22-1.45 3.41 3.41 0 0 1 1.9-.52c1.12 0 1.98.37 2.6 1.11zm-4.64 3.03c0 2.01.68 3.02 2.04 3.02 1.36 0 2.04-1.01 2.04-3.03 0-2.01-.67-3.02-2.03-3.02-1.37 0-2.05 1.01-2.05 3.03zm9.23 3.95h-1.38V11.24l1.38-.16v11.25zm1.63-4.41l3.24 4.4h-1.65l-3.13-4.31 2.9-3.59h1.55l-2.91 3.5zm14.16-3.03c.39.44.58 1.03.58 1.77v5.67h-1.38v-5.48c0-1.02-.36-1.53-1.1-1.53-.4 0-.72.11-1 .34-.27.22-.55.58-.86 1.06v5.6h-1.38v-5.47c0-1.02-.37-1.53-1.11-1.53-.4 0-.74.12-1.01.35-.27.23-.55.58-.85 1.05v5.6h-1.39v-7.9h1.19l.12 1.16c.59-.9 1.35-1.34 2.28-1.34.49 0 .9.13 1.25.38s.6.6.74 1.05c.32-.46.66-.82 1.03-1.06.38-.25.82-.37 1.33-.37a2 2 0 0 1 1.56.65zm8.85 6.3a1 1 0 0 0 .5.36l-.32.96a2.1 2.1 0 0 1-.99-.35 1.58 1.58 0 0 1-.55-.84 2.65 2.65 0 0 1-2.36 1.19c-.78 0-1.4-.22-1.84-.66a2.3 2.3 0 0 1-.68-1.73c0-.84.3-1.48.9-1.93.61-.45 1.47-.68 2.58-.68h1.21v-.58c0-.56-.13-.96-.4-1.2s-.68-.36-1.25-.36c-.58 0-1.28.14-2.13.42l-.34-1a7.96 7.96 0 0 1 2.73-.55c.93 0 1.62.23 2.09.68.46.46.69 1.1.69 1.95v3.61c0 .32.05.56.16.71zm-1.55-.95v-1.81H91.3c-1.46 0-2.19.54-2.19 1.62 0 .47.11.82.34 1.06.24.24.57.36 1.02.36.8 0 1.41-.4 1.86-1.23zm8.44-5.9l-.26 1.34a2.84 2.84 0 0 0-.69-.09c-.49 0-.88.18-1.18.54-.3.36-.54.92-.71 1.68v4.52h-1.38v-7.9h1.19l.13 1.6a3 3 0 0 1 .85-1.34c.37-.3.78-.45 1.27-.45.28 0 .53.03.78.1zm2.95 7.99h-1.38V11.24l1.38-.16v11.25zm1.64-4.41l3.23 4.4h-1.65l-3.13-4.31 2.91-3.59h1.55l-2.91 3.5zm3.83-.87h4.25v1.17h-4.25v-1.17zm10.44-5.84c.34.1.69.23 1.04.4l-.48.97a3.8 3.8 0 0 0-1.66-.38c-.54 0-.9.1-1.1.29-.2.19-.3.48-.3.88v1.05h4.41v7.9h-1.38V15.5h-3.03v6.84h-1.38v-6.84h-1.26v-1.07h1.26V13.4c0-.7.22-1.26.67-1.68.46-.42 1.14-.63 2.06-.63.42 0 .8.04 1.15.13zm5.13 10.84c-.3-.3-.45-.73-.45-1.28v-9.53l1.38-.16v9.66c0 .22.04.38.12.48.07.1.2.15.38.15.19 0 .36-.03.51-.1l.36.97c-.33.18-.7.27-1.1.27a1.6 1.6 0 0 1-1.2-.46zm4.4 0c-.3-.3-.45-.73-.45-1.28v-9.53l1.38-.16v9.66c0 .22.04.38.11.48.08.1.2.15.39.15s.35-.03.5-.1l.37.97c-.34.18-.7.27-1.1.27a1.6 1.6 0 0 1-1.2-.46zm9.81-3.2h-5.04c.06.87.28 1.5.66 1.92.38.4.87.61 1.47.61.38 0 .73-.05 1.05-.16.32-.11.65-.29 1-.53l.6.83c-.84.66-1.75.99-2.75.99a3.2 3.2 0 0 1-2.58-1.08 4.43 4.43 0 0 1-.92-2.97c0-.82.13-1.55.4-2.19.26-.63.64-1.13 1.14-1.49a2.9 2.9 0 0 1 1.75-.54c1.05 0 1.85.35 2.41 1.04.56.69.84 1.64.84 2.86 0 .23-.01.47-.03.7zm-1.34-1.11c0-.78-.15-1.38-.46-1.79-.31-.4-.77-.61-1.4-.61-1.13 0-1.74.83-1.84 2.49h3.7v-.1zm9.77-6.5v11.09h-1.22l-.13-1.1c-.26.4-.58.71-.98.94-.39.22-.82.34-1.3.34-.94 0-1.67-.37-2.2-1.11a5.06 5.06 0 0 1-.78-2.99c0-.8.12-1.53.37-2.16.25-.63.61-1.12 1.08-1.48a2.84 2.84 0 0 1 3.78.44v-4.13l1.38.16zm-2.25 9.88c.3-.2.59-.49.87-.88v-3.87c-.26-.34-.54-.6-.83-.77-.3-.18-.63-.26-1-.26a1.6 1.6 0 0 0-1.42.76c-.33.51-.5 1.27-.5 2.28 0 1.02.15 1.78.47 2.28.3.5.75.75 1.33.75.42 0 .78-.1 1.08-.3zm6.21-.4c.2.2.3.45.3.74s-.1.53-.3.74a1 1 0 0 1-.75.3.99.99 0 0 1-.74-.3c-.2-.2-.3-.45-.3-.74a1 1 0 0 1 .3-.74 1 1 0 0 1 .74-.3c.3 0 .55.1.75.3zm6.09-6.25c.43.15.84.37 1.23.67l-.59.87c-.36-.23-.7-.4-1.02-.5a3.18 3.18 0 0 0-1.03-.17c-.45 0-.8.09-1.06.27a.88.88 0 0 0-.4.76c0 .32.13.57.37.75.25.18.69.36 1.33.53.88.22 1.54.52 1.97.9.44.38.66.9.66 1.56 0 .78-.3 1.37-.91 1.78-.6.41-1.34.62-2.22.62-1.2 0-2.19-.35-2.98-1.04l.73-.84c.68.51 1.41.77 2.22.77.53 0 .94-.11 1.24-.33.3-.21.46-.5.46-.87 0-.27-.05-.5-.16-.66-.12-.16-.3-.3-.57-.43a7.82 7.82 0 0 0-1.19-.4 4.04 4.04 0 0 1-1.82-.88 1.9 1.9 0 0 1-.56-1.41c0-.41.12-.79.36-1.12.25-.34.59-.6 1.02-.78a4.4 4.4 0 0 1 2.92-.05zm6.38 7.86h-1.67l-2.73-7.9h1.5L163 21.1l2.06-6.68h1.45l-2.69 7.9zm10.63-7.55c-.3.1-.63.17-.99.2s-.8.04-1.32.04c.93.42 1.4 1.09 1.4 2 0 .79-.27 1.43-.81 1.93-.55.5-1.28.75-2.21.75-.36 0-.7-.05-1-.15a.85.85 0 0 0-.29.32.89.89 0 0 0-.1.42c0 .43.34.64 1.03.64h1.26c.53 0 1 .1 1.41.29.41.19.73.45.95.78.23.33.34.7.34 1.12a2 2 0 0 1-.94 1.78c-.64.41-1.55.62-2.76.62-.86 0-1.53-.09-2.02-.26-.5-.18-.85-.44-1.06-.79a2.6 2.6 0 0 1-.31-1.35h1.24c0 .32.06.57.18.76.12.18.33.32.64.42.32.1.75.14 1.33.14.83 0 1.42-.1 1.77-.3a1 1 0 0 0 .54-.93.95.95 0 0 0-.43-.84 2.07 2.07 0 0 0-1.16-.28h-1.25c-.67 0-1.18-.15-1.52-.43a1.33 1.33 0 0 1-.52-1.07c0-.26.07-.51.22-.75.16-.24.37-.46.65-.65-.46-.24-.8-.54-1.01-.9a2.46 2.46 0 0 1-.32-1.29 2.61 2.61 0 0 1 1.49-2.4 3.4 3.4 0 0 1 1.55-.36c.62.01 1.14-.01 1.56-.07a5.4 5.4 0 0 0 1.04-.22c.28-.1.61-.23 1.02-.41l.4 1.24zm-5.23.94c-.28.32-.42.75-.42 1.28 0 .54.14.97.43 1.3.29.32.7.49 1.23.49.54 0 .95-.16 1.24-.48.28-.31.42-.75.42-1.32 0-1.17-.56-1.76-1.69-1.76-.52 0-.92.16-1.2.49z"/></g></svg>