<svg xmlns="http://www.w3.org/2000/svg" xmlns:xlink="http://www.w3.org/1999/xlink" style="background:#fff" viewBox="0 0 150 100">
  <defs>
    <rect id="icons-naming-do2-a" width="300" height="232"/>
    <path id="icons-naming-do2-c" d="M3.8,15.922 C3.48145056,15.9222005 3.17845697,15.7842987 2.96938408,15.5439608 C2.76031119,15.3036229 2.6656926,14.9844531 2.71,14.669 L3.319,10.309 L0.393,7.163 C0.11815647,6.86767917 0.0270249404,6.44560189 0.155538197,6.06319151 C0.284051453,5.68078112 0.611587412,5.3994017 1.009,5.33 L5.089,4.6 L7.016,0.734 C7.20207984,0.360644034 7.5833425,0.124672752 8.0005,0.124672752 C8.4176575,0.124672752 8.79892016,0.360644034 8.985,0.734 L10.911,4.6 L15,5.331 C15.396548,5.4018715 15.7226384,5.68383239 15.8500248,6.06599173 C15.9774113,6.44815106 15.8857155,6.86937401 15.611,7.164 L12.68,10.31 L13.289,14.669 C13.3462538,15.0774077 13.1702565,15.4835307 12.8330987,15.7210163 C12.4959408,15.9585019 12.0542701,15.9874488 11.689,15.796 L8,13.873 L4.308,15.8 C4.15101837,15.8811337 3.97670573,15.9229962 3.8,15.922 L3.8,15.922 Z M2.981,7.01 L5.432,9.645 L4.932,13.217 L8,11.618 L11.067,13.218 L10.567,9.646 L13.019,7.01 L9.569,6.394 L8,3.244 L6.431,6.394 L2.981,7.01 Z"/>
  </defs>
  <g fill="none" fill-rule="evenodd">
    <g opacity=".05" transform="translate(-75 -66)">
      <mask id="icons-naming-do2-b" fill="#fff">
        <use xlink:href="#icons-naming-do2-a"/>
      </mask>
      <g fill="#000F40" mask="url(#icons-naming-do2-b)">
        <rect width="354" height="354" transform="translate(-27 -61)"/>
      </g>
    </g>
    <g transform="translate(6 14)">
      <path fill="#0A84FF" fill-rule="nonzero" d="M2,3.9935649 L2,86 L136,86 L136,3.9935649 C136,2.88652354 135.105361,2 134.001769,2 L3.9982312,2 C2.89112382,2 2,2.89254941 2,3.9935649 Z M0,3.9935649 C0,1.78626462 1.78827035,0 3.9982312,0 L134.001769,0 C136.210044,0 138,1.78204788 138,3.9935649 L138,88 L0,88 L0,3.9935649 Z"/>
      <path fill="#FFF" fill-rule="nonzero" d="M2,3.9935649 L2,86 L136,86 L136,3.9935649 C136,2.88652354 135.105361,2 134.001769,2 L3.9982312,2 C2.89112382,2 2,2.89254941 2,3.9935649 Z"/>
      <g transform="translate(53 10)">
        <rect width="32" height="32"/>
        <g transform="translate(8 8)">
          <mask id="icons-naming-do2-d" fill="#fff">
            <use xlink:href="#icons-naming-do2-c"/>
          </mask>
          <use fill="#4D4D4D" fill-rule="nonzero" xlink:href="#icons-naming-do2-c"/>
          <g fill="#000F40" mask="url(#icons-naming-do2-d)">
            <rect width="120" height="120" transform="translate(-52 -52)"/>
          </g>
        </g>
      </g>
      <path fill="#000F40" d="M13.032,55.532 C14.46,55.532 15.384,56.72 15.384,58.832 C15.384,60.812 14.436,62.144 12.9,62.144 C12.204,62.144 11.652,61.832 11.22,61.304 L11.112,62 L10.14,62 L10.14,53.132 L11.244,53 L11.244,56.468 C11.676,55.88 12.264,55.532 13.032,55.532 Z M12.636,61.268 C13.56,61.268 14.196,60.56 14.196,58.832 C14.196,57.032 13.608,56.408 12.72,56.408 C12.024,56.408 11.568,56.888 11.244,57.392 L11.244,60.416 C11.568,60.92 12.072,61.268 12.636,61.268 Z M19.644,55.532 C21.444,55.532 22.452,56.828 22.452,58.832 C22.452,60.788 21.42,62.144 19.632,62.144 C17.832,62.144 16.812,60.848 16.812,58.844 C16.812,56.888 17.844,55.532 19.644,55.532 Z M19.644,56.42 C18.588,56.42 18,57.188 18,58.844 C18,60.488 18.576,61.256 19.632,61.256 C20.688,61.256 21.264,60.488 21.264,58.832 C21.264,57.188 20.688,56.42 19.644,56.42 Z M26.652,55.532 C28.452,55.532 29.46,56.828 29.46,58.832 C29.46,60.788 28.428,62.144 26.64,62.144 C24.84,62.144 23.82,60.848 23.82,58.844 C23.82,56.888 24.852,55.532 26.652,55.532 Z M26.652,56.42 C25.596,56.42 25.008,57.188 25.008,58.844 C25.008,60.488 25.584,61.256 26.64,61.256 C27.696,61.256 28.272,60.488 28.272,58.832 C28.272,57.188 27.696,56.42 26.652,56.42 Z M32.388,62 L32.388,53 L31.284,53.132 L31.284,62 L32.388,62 Z M33.696,58.472 L36.024,55.676 L34.788,55.676 L32.46,58.544 L34.968,62 L36.288,62 L33.696,58.472 Z M43.776,55.532 C42.924,55.532 42.348,55.988 41.892,56.672 C41.652,55.952 41.076,55.532 40.296,55.532 C39.468,55.532 38.892,55.964 38.472,56.6 L38.376,55.676 L37.428,55.676 L37.428,62 L38.532,62 L38.532,57.512 C38.952,56.84 39.336,56.396 40.02,56.396 C40.5,56.396 40.908,56.672 40.908,57.62 L40.908,62 L42.012,62 L42.012,57.512 C42.444,56.84 42.816,56.396 43.5,56.396 C43.98,56.396 44.388,56.672 44.388,57.62 L44.388,62 L45.492,62 L45.492,57.464 C45.492,56.276 44.808,55.532 43.776,55.532 Z M51.972,60.524 C51.972,61.076 52.176,61.256 52.5,61.376 L52.248,62.144 C51.612,62.072 51.204,61.82 51.012,61.196 C50.568,61.856 49.896,62.144 49.128,62.144 C47.868,62.144 47.112,61.364 47.112,60.236 C47.112,58.88 48.132,58.148 49.896,58.148 L50.868,58.148 L50.868,57.68 C50.868,56.768 50.424,56.432 49.548,56.432 C49.08,56.432 48.492,56.552 47.844,56.768 L47.568,55.964 C48.348,55.676 49.044,55.532 49.752,55.532 C51.276,55.532 51.972,56.312 51.972,57.632 L51.972,60.524 Z M49.38,61.316 C50.028,61.316 50.508,60.992 50.868,60.332 L50.868,58.88 L50.04,58.88 C48.876,58.88 48.288,59.312 48.288,60.176 C48.288,60.92 48.66,61.316 49.38,61.316 Z M56.988,55.532 C56.22,55.532 55.632,56.012 55.296,56.96 L55.188,55.676 L54.24,55.676 L54.24,62 L55.344,62 L55.344,58.388 C55.608,57.176 56.064,56.612 56.856,56.612 C57.084,56.612 57.216,56.636 57.408,56.684 L57.612,55.604 C57.42,55.556 57.192,55.532 56.988,55.532 Z M59.976,62 L59.976,53 L58.872,53.132 L58.872,62 L59.976,62 Z M61.284,58.472 L63.612,55.676 L62.376,55.676 L60.048,58.544 L62.556,62 L63.876,62 L61.284,58.472 Z M64.596,57.776 L64.596,58.712 L67.992,58.712 L67.992,57.776 L64.596,57.776 Z M72.228,55.532 C74.028,55.532 75.036,56.828 75.036,58.832 C75.036,60.788 74.004,62.144 72.216,62.144 C70.416,62.144 69.396,60.848 69.396,58.844 C69.396,56.888 70.428,55.532 72.228,55.532 Z M72.228,56.42 C71.172,56.42 70.584,57.188 70.584,58.844 C70.584,60.488 71.16,61.256 72.216,61.256 C73.272,61.256 73.848,60.488 73.848,58.832 C73.848,57.188 73.272,56.42 72.228,56.42 Z M81.564,62 L81.564,55.676 L80.46,55.676 L80.46,60.188 C80.076,60.824 79.56,61.28 78.876,61.28 C78.192,61.28 77.904,60.956 77.904,60.092 L77.904,55.676 L76.8,55.676 L76.8,60.212 C76.8,61.448 77.46,62.144 78.564,62.144 C79.464,62.144 80.052,61.784 80.532,61.016 L80.616,62 L81.564,62 Z M87.036,61.712 L86.616,60.956 C86.304,61.148 86.052,61.232 85.776,61.232 C85.224,61.232 85.02,60.932 85.02,60.296 L85.02,56.528 L86.4,56.528 L86.52,55.676 L85.02,55.676 L85.02,54.116 L83.916,54.248 L83.916,55.676 L82.812,55.676 L82.812,56.528 L83.916,56.528 L83.916,60.344 C83.916,61.52 84.552,62.144 85.62,62.144 C86.16,62.144 86.616,62 87.036,61.712 Z M89.22,60.728 L89.22,53 L88.116,53.132 L88.116,60.752 C88.116,61.664 88.572,62.144 89.376,62.144 C89.7,62.144 90.012,62.072 90.312,61.928 L90.024,61.16 C89.904,61.208 89.772,61.232 89.616,61.232 C89.328,61.232 89.22,61.064 89.22,60.728 Z M92.232,52.64 C91.776,52.64 91.464,52.964 91.464,53.396 C91.464,53.816 91.776,54.14 92.232,54.14 C92.7,54.14 93.012,53.816 93.012,53.396 C93.012,52.964 92.7,52.64 92.232,52.64 Z M92.796,62 L92.796,55.676 L91.692,55.676 L91.692,62 L92.796,62 Z M98.052,55.532 C97.224,55.532 96.552,55.964 96.12,56.612 L96.024,55.676 L95.076,55.676 L95.076,62 L96.18,62 L96.18,57.512 C96.6,56.84 97.08,56.396 97.788,56.396 C98.4,56.396 98.784,56.672 98.784,57.62 L98.784,62 L99.888,62 L99.888,57.464 C99.888,56.264 99.216,55.532 98.052,55.532 Z M106.884,58.652 C106.884,58.868 106.872,59.072 106.86,59.216 L102.828,59.216 C102.936,60.68 103.62,61.244 104.532,61.244 C105.156,61.244 105.624,61.076 106.176,60.692 L106.656,61.352 C106.032,61.844 105.324,62.144 104.448,62.144 C102.684,62.144 101.652,60.908 101.652,58.904 C101.652,56.936 102.648,55.532 104.28,55.532 C105.984,55.532 106.884,56.72 106.884,58.652 Z M105.792,58.4 L105.792,58.328 C105.792,57.092 105.3,56.408 104.304,56.408 C103.464,56.408 102.912,56.996 102.828,58.4 L105.792,58.4 Z M108.996,60.476 C108.528,60.476 108.168,60.848 108.168,61.304 C108.168,61.772 108.528,62.144 108.996,62.144 C109.476,62.144 109.836,61.772 109.836,61.304 C109.836,60.848 109.476,60.476 108.996,60.476 Z M113.304,55.532 C111.996,55.532 111.024,56.264 111.024,57.26 C111.024,58.16 111.564,58.748 112.932,59.108 C114.156,59.432 114.468,59.672 114.468,60.332 C114.468,60.884 113.94,61.256 113.112,61.256 C112.428,61.256 111.84,61.028 111.36,60.62 L110.748,61.316 C111.3,61.796 112.068,62.144 113.136,62.144 C114.42,62.144 115.632,61.544 115.632,60.224 C115.632,59.12 114.864,58.592 113.532,58.256 C112.512,57.992 112.176,57.752 112.176,57.236 C112.176,56.732 112.62,56.408 113.34,56.408 C113.928,56.408 114.42,56.588 114.972,56.984 L115.452,56.252 C114.852,55.796 114.192,55.532 113.304,55.532 Z M119.688,62 L121.836,55.676 L120.672,55.676 L119.028,61.016 L117.372,55.676 L116.172,55.676 L118.356,62 L119.688,62 Z M128.196,55.964 C127.668,56.132 127.068,56.156 126.348,56.156 C127.092,56.492 127.464,57.02 127.464,57.752 C127.464,59 126.564,59.9 125.052,59.9 C124.764,59.9 124.512,59.864 124.248,59.78 C124.068,59.912 123.936,60.14 123.936,60.368 C123.936,60.656 124.116,60.884 124.764,60.884 L125.772,60.884 C127.068,60.884 127.932,61.628 127.932,62.636 C127.932,63.86 126.924,64.556 124.968,64.556 C122.904,64.556 122.256,63.92 122.256,62.636 L123.252,62.636 C123.252,63.356 123.576,63.692 124.968,63.692 C126.336,63.692 126.816,63.344 126.816,62.708 C126.816,62.108 126.336,61.808 125.544,61.808 L124.548,61.808 C123.42,61.808 122.916,61.244 122.916,60.608 C122.916,60.2 123.156,59.792 123.612,59.492 C122.88,59.108 122.544,58.556 122.544,57.74 C122.544,56.444 123.588,55.532 124.98,55.532 C126.552,55.568 127.128,55.304 127.872,54.968 L128.196,55.964 Z M124.98,56.324 C124.128,56.324 123.672,56.912 123.672,57.74 C123.672,58.58 124.14,59.168 125.004,59.168 C125.868,59.168 126.336,58.64 126.336,57.728 C126.336,56.804 125.88,56.324 124.98,56.324 Z"/>
    </g>
  </g>
</svg>
