<svg xmlns="http://www.w3.org/2000/svg" xmlns:xlink="http://www.w3.org/1999/xlink" style="background:#fff" viewBox="0 0 150 100">
  <defs>
    <rect id="icons-naming-do1-a" width="300" height="232"/>
    <path id="icons-naming-do1-c" d="M15.845,6.064 C15.7178658,5.68399682 15.3941502,5.40318791 15,5.331 L10.911,4.6 L8.985,0.735 C8.79892016,0.361644034 8.4176575,0.125672752 8.0005,0.125672752 C7.5833425,0.125672752 7.20207984,0.361644034 7.016,0.735 L5.089,4.6 L1.008,5.329 C0.610357805,5.39846397 0.282705804,5.68014496 0.154367628,6.06286401 C0.0260294513,6.44558306 0.117624354,6.8678512 0.393,7.163 L3.32,10.31 L2.711,14.67 C2.65374616,15.0784077 2.82974345,15.4845307 3.16690135,15.7220163 C3.50405925,15.9595019 3.94572993,15.9884488 4.311,15.797 L8,13.873 L11.69,15.8 C12.0552701,15.9914488 12.4969408,15.9625019 12.8340987,15.7250163 C13.1712565,15.4875307 13.3472538,15.0814077 13.29,14.673 L12.68,10.31 L15.606,7.164 C15.8814532,6.86895491 15.9731878,6.44674527 15.845,6.064 L15.845,6.064 Z"/>
  </defs>
  <g fill="none" fill-rule="evenodd">
    <g opacity=".05" transform="translate(-75 -66)">
      <mask id="icons-naming-do1-b" fill="#fff">
        <use xlink:href="#icons-naming-do1-a"/>
      </mask>
      <g fill="#000F40" mask="url(#icons-naming-do1-b)">
        <rect width="354" height="354" transform="translate(-27 -61)"/>
      </g>
    </g>
    <g transform="translate(6 14)">
      <path fill="#0A84FF" fill-rule="nonzero" d="M2,3.9935649 L2,86 L136,86 L136,3.9935649 C136,2.88652354 135.105361,2 134.001769,2 L3.9982312,2 C2.89112382,2 2,2.89254941 2,3.9935649 Z M0,3.9935649 C0,1.78626462 1.78827035,0 3.9982312,0 L134.001769,0 C136.210044,0 138,1.78204788 138,3.9935649 L138,88 L0,88 L0,3.9935649 Z"/>
      <path fill="#FFF" fill-rule="nonzero" d="M2,3.9935649 L2,86 L136,86 L136,3.9935649 C136,2.88652354 135.105361,2 134.001769,2 L3.9982312,2 C2.89112382,2 2,2.89254941 2,3.9935649 Z"/>
      <g transform="translate(53 10)">
        <rect width="32" height="32"/>
        <g transform="translate(8 8)">
          <mask id="icons-naming-do1-d" fill="#fff">
            <use xlink:href="#icons-naming-do1-c"/>
          </mask>
          <use fill="#4D4D4D" fill-rule="nonzero" xlink:href="#icons-naming-do1-c"/>
          <g fill="#000F40" mask="url(#icons-naming-do1-d)">
            <rect width="120" height="120" transform="translate(-47 -47)"/>
          </g>
        </g>
      </g>
      <path fill="#000F40" d="M19.032,55.532 C20.46,55.532 21.384,56.72 21.384,58.832 C21.384,60.812 20.436,62.144 18.9,62.144 C18.204,62.144 17.652,61.832 17.22,61.304 L17.112,62 L16.14,62 L16.14,53.132 L17.244,53 L17.244,56.468 C17.676,55.88 18.264,55.532 19.032,55.532 Z M18.636,61.268 C19.56,61.268 20.196,60.56 20.196,58.832 C20.196,57.032 19.608,56.408 18.72,56.408 C18.024,56.408 17.568,56.888 17.244,57.392 L17.244,60.416 C17.568,60.92 18.072,61.268 18.636,61.268 Z M25.644,55.532 C27.444,55.532 28.452,56.828 28.452,58.832 C28.452,60.788 27.42,62.144 25.632,62.144 C23.832,62.144 22.812,60.848 22.812,58.844 C22.812,56.888 23.844,55.532 25.644,55.532 Z M25.644,56.42 C24.588,56.42 24,57.188 24,58.844 C24,60.488 24.576,61.256 25.632,61.256 C26.688,61.256 27.264,60.488 27.264,58.832 C27.264,57.188 26.688,56.42 25.644,56.42 Z M32.652,55.532 C34.452,55.532 35.46,56.828 35.46,58.832 C35.46,60.788 34.428,62.144 32.64,62.144 C30.84,62.144 29.82,60.848 29.82,58.844 C29.82,56.888 30.852,55.532 32.652,55.532 Z M32.652,56.42 C31.596,56.42 31.008,57.188 31.008,58.844 C31.008,60.488 31.584,61.256 32.64,61.256 C33.696,61.256 34.272,60.488 34.272,58.832 C34.272,57.188 33.696,56.42 32.652,56.42 Z M38.388,62 L38.388,53 L37.284,53.132 L37.284,62 L38.388,62 Z M39.696,58.472 L42.024,55.676 L40.788,55.676 L38.46,58.544 L40.968,62 L42.288,62 L39.696,58.472 Z M49.776,55.532 C48.924,55.532 48.348,55.988 47.892,56.672 C47.652,55.952 47.076,55.532 46.296,55.532 C45.468,55.532 44.892,55.964 44.472,56.6 L44.376,55.676 L43.428,55.676 L43.428,62 L44.532,62 L44.532,57.512 C44.952,56.84 45.336,56.396 46.02,56.396 C46.5,56.396 46.908,56.672 46.908,57.62 L46.908,62 L48.012,62 L48.012,57.512 C48.444,56.84 48.816,56.396 49.5,56.396 C49.98,56.396 50.388,56.672 50.388,57.62 L50.388,62 L51.492,62 L51.492,57.464 C51.492,56.276 50.808,55.532 49.776,55.532 Z M57.972,60.524 C57.972,61.076 58.176,61.256 58.5,61.376 L58.248,62.144 C57.612,62.072 57.204,61.82 57.012,61.196 C56.568,61.856 55.896,62.144 55.128,62.144 C53.868,62.144 53.112,61.364 53.112,60.236 C53.112,58.88 54.132,58.148 55.896,58.148 L56.868,58.148 L56.868,57.68 C56.868,56.768 56.424,56.432 55.548,56.432 C55.08,56.432 54.492,56.552 53.844,56.768 L53.568,55.964 C54.348,55.676 55.044,55.532 55.752,55.532 C57.276,55.532 57.972,56.312 57.972,57.632 L57.972,60.524 Z M55.38,61.316 C56.028,61.316 56.508,60.992 56.868,60.332 L56.868,58.88 L56.04,58.88 C54.876,58.88 54.288,59.312 54.288,60.176 C54.288,60.92 54.66,61.316 55.38,61.316 Z M62.988,55.532 C62.22,55.532 61.632,56.012 61.296,56.96 L61.188,55.676 L60.24,55.676 L60.24,62 L61.344,62 L61.344,58.388 C61.608,57.176 62.064,56.612 62.856,56.612 C63.084,56.612 63.216,56.636 63.408,56.684 L63.612,55.604 C63.42,55.556 63.192,55.532 62.988,55.532 Z M65.976,62 L65.976,53 L64.872,53.132 L64.872,62 L65.976,62 Z M67.284,58.472 L69.612,55.676 L68.376,55.676 L66.048,58.544 L68.556,62 L69.876,62 L67.284,58.472 Z M70.596,57.776 L70.596,58.712 L73.992,58.712 L73.992,57.776 L70.596,57.776 Z M78.144,53 C76.608,53 75.96,53.78 75.96,54.848 L75.96,55.676 L74.952,55.676 L74.952,56.528 L75.96,56.528 L75.96,62 L77.064,62 L77.064,56.528 L79.488,56.528 L79.488,62 L80.592,62 L80.592,55.676 L77.064,55.676 L77.064,54.836 C77.064,54.236 77.292,53.9 78.18,53.9 C78.672,53.9 79.116,54.008 79.512,54.2 L79.896,53.432 C79.38,53.168 78.852,53 78.144,53 Z M83.916,60.728 L83.916,53 L82.812,53.132 L82.812,60.752 C82.812,61.664 83.268,62.144 84.072,62.144 C84.396,62.144 84.708,62.072 85.008,61.928 L84.72,61.16 C84.6,61.208 84.468,61.232 84.312,61.232 C84.024,61.232 83.916,61.064 83.916,60.728 Z M87.432,60.728 L87.432,53 L86.328,53.132 L86.328,60.752 C86.328,61.664 86.784,62.144 87.588,62.144 C87.912,62.144 88.224,62.072 88.524,61.928 L88.236,61.16 C88.116,61.208 87.984,61.232 87.828,61.232 C87.54,61.232 87.432,61.064 87.432,60.728 Z M94.68,58.652 C94.68,58.868 94.668,59.072 94.656,59.216 L90.624,59.216 C90.732,60.68 91.416,61.244 92.328,61.244 C92.952,61.244 93.42,61.076 93.972,60.692 L94.452,61.352 C93.828,61.844 93.12,62.144 92.244,62.144 C90.48,62.144 89.448,60.908 89.448,58.904 C89.448,56.936 90.444,55.532 92.076,55.532 C93.78,55.532 94.68,56.72 94.68,58.652 Z M93.588,58.4 L93.588,58.328 C93.588,57.092 93.096,56.408 92.1,56.408 C91.26,56.408 90.708,56.996 90.624,58.4 L93.588,58.4 Z M101.4,53.132 L101.4,62 L100.428,62 L100.32,61.124 C99.912,61.76 99.276,62.144 98.496,62.144 C96.96,62.144 96.108,60.836 96.108,58.868 C96.108,56.936 97.044,55.532 98.592,55.532 C99.336,55.532 99.876,55.868 100.296,56.312 L100.296,53 L101.4,53.132 Z M98.736,61.268 C99.444,61.268 99.876,60.92 100.296,60.332 L100.296,57.236 C99.9,56.732 99.456,56.408 98.832,56.408 C97.884,56.408 97.296,57.2 97.296,58.844 C97.296,60.512 97.824,61.268 98.736,61.268 Z M103.968,60.476 C103.5,60.476 103.14,60.848 103.14,61.304 C103.14,61.772 103.5,62.144 103.968,62.144 C104.448,62.144 104.808,61.772 104.808,61.304 C104.808,60.848 104.448,60.476 103.968,60.476 Z M108.276,55.532 C106.968,55.532 105.996,56.264 105.996,57.26 C105.996,58.16 106.536,58.748 107.904,59.108 C109.128,59.432 109.44,59.672 109.44,60.332 C109.44,60.884 108.912,61.256 108.084,61.256 C107.4,61.256 106.812,61.028 106.332,60.62 L105.72,61.316 C106.272,61.796 107.04,62.144 108.108,62.144 C109.392,62.144 110.604,61.544 110.604,60.224 C110.604,59.12 109.836,58.592 108.504,58.256 C107.484,57.992 107.148,57.752 107.148,57.236 C107.148,56.732 107.592,56.408 108.312,56.408 C108.9,56.408 109.392,56.588 109.944,56.984 L110.424,56.252 C109.824,55.796 109.164,55.532 108.276,55.532 Z M114.66,62 L116.808,55.676 L115.644,55.676 L114,61.016 L112.344,55.676 L111.144,55.676 L113.328,62 L114.66,62 Z M123.168,55.964 C122.64,56.132 122.04,56.156 121.32,56.156 C122.064,56.492 122.436,57.02 122.436,57.752 C122.436,59 121.536,59.9 120.024,59.9 C119.736,59.9 119.484,59.864 119.22,59.78 C119.04,59.912 118.908,60.14 118.908,60.368 C118.908,60.656 119.088,60.884 119.736,60.884 L120.744,60.884 C122.04,60.884 122.904,61.628 122.904,62.636 C122.904,63.86 121.896,64.556 119.94,64.556 C117.876,64.556 117.228,63.92 117.228,62.636 L118.224,62.636 C118.224,63.356 118.548,63.692 119.94,63.692 C121.308,63.692 121.788,63.344 121.788,62.708 C121.788,62.108 121.308,61.808 120.516,61.808 L119.52,61.808 C118.392,61.808 117.888,61.244 117.888,60.608 C117.888,60.2 118.128,59.792 118.584,59.492 C117.852,59.108 117.516,58.556 117.516,57.74 C117.516,56.444 118.56,55.532 119.952,55.532 C121.524,55.568 122.1,55.304 122.844,54.968 L123.168,55.964 Z M119.952,56.324 C119.1,56.324 118.644,56.912 118.644,57.74 C118.644,58.58 119.112,59.168 119.976,59.168 C120.84,59.168 121.308,58.64 121.308,57.728 C121.308,56.804 120.852,56.324 119.952,56.324 Z"/>
    </g>
  </g>
</svg>
