<svg xmlns="http://www.w3.org/2000/svg" width="300" height="96" style="background:#fff" viewBox="0 0 300 96">
  <g fill="#0C0C0D" fill-rule="evenodd" transform="translate(103 32)">
    <path fill-opacity=".8" d="M31.485573,11.8798 C31.2296362,11.1138 30.5757976,10.5518 29.7859925,10.4138 L21.6200081,8.9558 L17.7689586,1.2218 C17.3950509,0.4678 16.641237,0.0018 15.7994447,0.0018 C14.959652,0.0018 14.2038386,0.4678 13.8319304,1.2198 L9.9808809,8.9558 L1.82089497,10.4138 C1.0250914,10.5518 0.371252779,11.1138 0.11531595,11.8798 C-0.142620385,12.6458 0.0393347043,13.4898 0.589198985,14.0778 L6.44175444,20.3718 L5.22405499,29.0898 C5.11008313,29.9118 5.45799725,30.7158 6.13582995,31.1938 C6.51573618,31.4618 6.95762711,31.5958 7.40151755,31.5958 C7.74743217,31.5958 8.0973458,31.5138 8.41726683,31.3458 L15.7994447,27.4978 L23.1796231,31.3438 C23.9074435,31.7258 24.7872263,31.6698 25.465059,31.1938 C26.1408922,30.7158 26.4908059,29.9118 26.376834,29.0898 L25.157135,20.3718 L31.0096905,14.0798 C31.5595548,13.4898 31.7415099,12.6458 31.485573,11.8798"/>
    <path d="M44.769,13.888 C43.057,13.888 41.793,14.848 41.793,16.176 C41.793,17.36 42.513,18.112 44.321,18.592 C45.985,19.04 46.417,19.36 46.417,20.24 C46.417,21.088 45.665,21.6 44.545,21.6 C43.601,21.6 42.833,21.28 42.145,20.768 L41.425,21.584 C42.161,22.224 43.153,22.688 44.577,22.688 C46.273,22.688 47.825,21.872 47.825,20.16 C47.825,18.688 46.833,18.016 45.057,17.552 C43.665,17.184 43.185,16.864 43.185,16.144 C43.185,15.424 43.825,14.96 44.817,14.96 C45.617,14.96 46.257,15.2 47.009,15.696 L47.585,14.848 C46.785,14.24 45.921,13.888 44.769,13.888 Z M53.633,21.2 C53.217,21.456 52.865,21.568 52.465,21.568 C51.713,21.568 51.409,21.152 51.409,20.272 L51.409,15.12 L53.297,15.12 L53.441,14.08 L51.409,14.08 L51.409,12 L50.065,12.144 L50.065,14.08 L48.609,14.08 L48.609,15.12 L50.065,15.12 L50.065,20.336 C50.065,21.872 50.897,22.688 52.289,22.688 C52.993,22.688 53.601,22.496 54.145,22.128 L53.633,21.2 Z M61.265,20.56 C61.265,21.344 61.521,21.584 61.969,21.744 L61.649,22.688 C60.833,22.576 60.305,22.224 60.081,21.392 C59.505,22.288 58.609,22.688 57.553,22.688 C55.889,22.688 54.897,21.648 54.897,20.144 C54.897,18.352 56.241,17.392 58.545,17.392 L59.921,17.392 L59.921,16.72 C59.921,15.472 59.329,14.992 58.113,14.992 C57.473,14.992 56.705,15.152 55.841,15.456 L55.505,14.464 C56.513,14.08 57.425,13.888 58.353,13.888 C60.353,13.888 61.265,14.912 61.265,16.656 L61.265,20.56 Z M57.857,21.664 C58.769,21.664 59.425,21.2 59.921,20.304 L59.921,18.288 L58.721,18.288 C57.153,18.288 56.321,18.88 56.321,20.08 C56.321,21.104 56.849,21.664 57.857,21.664 Z M67.921,13.888 C68.209,13.888 68.513,13.92 68.753,13.984 L68.513,15.296 C68.257,15.232 68.081,15.2 67.777,15.2 C66.689,15.2 66.081,15.968 65.713,17.616 L65.713,22.496 L64.369,22.496 L64.369,14.08 L65.521,14.08 L65.649,15.84 C66.097,14.544 66.881,13.888 67.921,13.888 Z M69.649,20.624 C70.257,20.624 70.689,21.088 70.689,21.648 C70.689,22.224 70.257,22.688 69.649,22.688 C69.073,22.688 68.625,22.224 68.625,21.648 C68.625,21.088 69.073,20.624 69.649,20.624 Z M75.313,13.888 C73.601,13.888 72.337,14.848 72.337,16.176 C72.337,17.36 73.057,18.112 74.865,18.592 C76.529,19.04 76.961,19.36 76.961,20.24 C76.961,21.088 76.209,21.6 75.089,21.6 C74.145,21.6 73.377,21.28 72.689,20.768 L71.969,21.584 C72.705,22.224 73.697,22.688 75.121,22.688 C76.817,22.688 78.369,21.872 78.369,20.16 C78.369,18.688 77.377,18.016 75.601,17.552 C74.209,17.184 73.729,16.864 73.729,16.144 C73.729,15.424 74.369,14.96 75.361,14.96 C76.161,14.96 76.801,15.2 77.553,15.696 L78.129,14.848 C77.329,14.24 76.465,13.888 75.313,13.888 Z M86.433,14.08 L85.009,14.08 L82.753,21.296 L80.465,14.08 L78.993,14.08 L81.921,22.496 L83.553,22.496 L86.433,14.08 Z M94.433,13.184 L94.833,14.416 C94.161,14.624 93.377,14.656 92.401,14.672 C93.377,15.104 93.873,15.808 93.873,16.832 C93.873,18.48 92.689,19.664 90.705,19.664 C90.321,19.664 89.969,19.616 89.633,19.504 C89.345,19.696 89.169,20 89.169,20.336 C89.169,20.736 89.425,21.056 90.321,21.056 L91.665,21.056 C93.377,21.056 94.497,22.032 94.497,23.344 C94.497,24.96 93.201,25.872 90.625,25.872 C87.921,25.872 87.041,25.056 87.041,23.36 L88.257,23.36 C88.257,24.368 88.737,24.816 90.625,24.816 C92.481,24.816 93.137,24.32 93.137,23.44 C93.137,22.608 92.481,22.192 91.393,22.192 L90.065,22.192 C88.593,22.192 87.921,21.456 87.921,20.624 C87.921,20.064 88.241,19.536 88.833,19.152 C87.873,18.64 87.425,17.904 87.425,16.8 C87.425,15.088 88.769,13.888 90.625,13.888 C92.753,13.936 93.489,13.616 94.433,13.184 Z M90.625,14.864 C89.425,14.864 88.801,15.68 88.801,16.8 C88.801,17.984 89.473,18.768 90.657,18.768 C91.857,18.768 92.497,18.048 92.497,16.8 C92.497,15.552 91.873,14.864 90.625,14.864 Z"/>
  </g>
</svg>
