<svg xmlns="http://www.w3.org/2000/svg" style="background:#fff" viewBox="0 0 300 96"><g fill="#0C0C0D" fill-rule="evenodd" transform="translate(46 32)"><path fill-opacity=".8" fill-rule="nonzero" d="M19.6 11.64l-.67-1.35L15.8 4 12 11.65l-1.5.27-6.71 1.2 5.82 6.26-.2 1.42-1 7.18 7.39-3.86 1.39.73 6 3.13-1.2-8.6.97-1.04 4.86-5.22-8.21-1.47zm10.19-1.23A2.2 2.2 0 0 1 31 14.08l-5.85 6.3 1.22 8.71a2.2 2.2 0 0 1-3.2 2.25L15.8 27.5l-7.38 3.85a2.19 2.19 0 0 1-2.28-.16 2.2 2.2 0 0 1-.92-2.1l1.22-8.72-5.85-6.3a2.2 2.2 0 0 1 1.23-3.66l8.16-1.45 3.85-7.74A2.18 2.18 0 0 1 15.8 0c.84 0 1.6.47 1.97 1.22l3.85 7.74 8.17 1.45z"/><path d="M47.19 15.33c.53.72.79 1.74.79 3.04a5.8 5.8 0 0 1-.38 2.16A3.25 3.25 0 0 1 46.52 22c-.47.34-1.01.52-1.65.52-.83 0-1.52-.35-2.1-1.05l-.13.87h-1.22V11.24l1.38-.16v4.33a2.65 2.65 0 0 1 2.24-1.17c.9 0 1.61.36 2.15 1.09zm-1.21 5.34c.34-.5.52-1.26.52-2.3 0-1.07-.16-1.85-.48-2.32a1.55 1.55 0 0 0-1.37-.71c-.7 0-1.31.4-1.84 1.23v3.78c.2.33.46.59.77.78.3.19.62.28.97.28.6 0 1.08-.25 1.43-.74zm9.91-5.32c.62.74.92 1.75.92 3.02 0 .82-.13 1.54-.41 2.16A3.3 3.3 0 0 1 55.18 22c-.53.34-1.16.52-1.89.52a3.2 3.2 0 0 1-2.6-1.11 4.55 4.55 0 0 1-.92-3.02c0-.82.13-1.54.41-2.17a3.3 3.3 0 0 1 1.22-1.45 3.41 3.41 0 0 1 1.9-.52c1.12 0 1.98.37 2.6 1.11zm-4.64 3.03c0 2.01.68 3.02 2.04 3.02 1.36 0 2.04-1.01 2.04-3.03 0-2.01-.67-3.02-2.02-3.02-1.38 0-2.06 1.01-2.06 3.03zm13.4-3.03c.62.74.92 1.75.92 3.02 0 .82-.13 1.54-.41 2.16A3.3 3.3 0 0 1 63.94 22c-.53.34-1.16.52-1.89.52a3.2 3.2 0 0 1-2.6-1.11 4.55 4.55 0 0 1-.93-3.02c0-.82.14-1.54.42-2.17a3.3 3.3 0 0 1 1.22-1.45 3.41 3.41 0 0 1 1.9-.52c1.12 0 1.98.37 2.6 1.11zm-4.64 3.03c0 2.01.68 3.02 2.04 3.02 1.36 0 2.04-1.01 2.04-3.03 0-2.01-.67-3.02-2.03-3.02-1.37 0-2.05 1.01-2.05 3.03zm9.23 3.95h-1.38V11.24l1.38-.16v11.25zm1.63-4.41l3.24 4.4h-1.65l-3.13-4.31 2.9-3.59h1.55l-2.91 3.5zm14.16-3.03c.39.44.58 1.03.58 1.77v5.67h-1.38v-5.48c0-1.02-.36-1.53-1.1-1.53-.4 0-.72.11-1 .34-.27.22-.55.58-.86 1.06v5.6h-1.38v-5.47c0-1.02-.37-1.53-1.11-1.53-.4 0-.74.12-1.01.35-.27.23-.55.58-.85 1.05v5.6h-1.39v-7.9h1.19l.12 1.16c.59-.9 1.35-1.34 2.28-1.34.49 0 .9.13 1.25.38s.6.6.74 1.05c.32-.46.66-.82 1.03-1.06.38-.25.82-.37 1.33-.37a2 2 0 0 1 1.56.65zm8.85 6.3a1 1 0 0 0 .5.36l-.32.96a2.1 2.1 0 0 1-.99-.35 1.58 1.58 0 0 1-.55-.84 2.65 2.65 0 0 1-2.36 1.19c-.78 0-1.4-.22-1.84-.66a2.3 2.3 0 0 1-.68-1.73c0-.84.3-1.48.9-1.93.61-.45 1.47-.68 2.58-.68h1.21v-.58c0-.56-.13-.96-.4-1.2s-.68-.36-1.25-.36c-.58 0-1.28.14-2.13.42l-.34-1a7.96 7.96 0 0 1 2.73-.55c.93 0 1.62.23 2.09.68.46.46.69 1.1.69 1.95v3.61c0 .32.05.56.16.71zm-1.55-.95v-1.81H91.3c-1.46 0-2.19.54-2.19 1.62 0 .47.11.82.34 1.06.24.24.57.36 1.02.36.8 0 1.41-.4 1.86-1.23zm8.44-5.9l-.26 1.34a2.84 2.84 0 0 0-.69-.09c-.49 0-.88.18-1.18.54-.3.36-.54.92-.71 1.68v4.52h-1.38v-7.9h1.19l.13 1.6a3 3 0 0 1 .85-1.34c.37-.3.78-.45 1.27-.45.28 0 .53.03.78.1zm2.95 7.99h-1.38V11.24l1.38-.16v11.25zm1.64-4.41l3.23 4.4h-1.65l-3.13-4.31 2.91-3.59h1.55l-2.91 3.5zm3.83-.87h4.25v1.17h-4.25v-1.17zm12.13-1.7c.62.74.93 1.75.93 3.02 0 .82-.14 1.54-.42 2.16A3.3 3.3 0 0 1 120.6 22c-.53.34-1.16.52-1.89.52a3.2 3.2 0 0 1-2.6-1.11 4.55 4.55 0 0 1-.93-3.02c0-.82.14-1.54.42-2.17a3.3 3.3 0 0 1 1.22-1.45 3.41 3.41 0 0 1 1.9-.52c1.12 0 1.98.37 2.6 1.11zm-4.64 3.03c0 2.01.68 3.02 2.04 3.02 1.36 0 2.04-1.01 2.04-3.03 0-2.01-.67-3.02-2.03-3.02-1.37 0-2.05 1.01-2.05 3.03zm13.72 3.95h-1.18l-.1-1.23c-.3.49-.65.84-1.04 1.07a2.8 2.8 0 0 1-1.43.34 2.1 2.1 0 0 1-1.62-.63 2.53 2.53 0 0 1-.58-1.79v-5.67h1.38v5.52c0 .54.1.92.28 1.15.2.22.5.34.94.34.77 0 1.42-.46 1.98-1.37v-5.64h1.38v7.9zm6.84-.36c-.52.36-1.1.54-1.77.54-.67 0-1.19-.2-1.56-.58-.38-.39-.56-.94-.56-1.67v-4.77h-1.38v-1.07h1.38v-1.78l1.38-.17v1.95h1.87l-.15 1.07h-1.72v4.7c0 .42.07.71.21.9.15.18.39.28.73.28a2 2 0 0 0 1.05-.35l.53.95zm1.8.08c-.3-.3-.44-.73-.44-1.28v-9.53l1.38-.16v9.66c0 .22.03.38.1.48.08.1.21.15.39.15.19 0 .36-.03.51-.1l.36.97c-.33.18-.7.27-1.1.27a1.6 1.6 0 0 1-1.2-.46zm5.4.28h-1.38v-7.9h1.38v7.9zm0-11.43c.19.18.28.4.28.67a.9.9 0 0 1-.28.67.97.97 0 0 1-.7.26.95.95 0 0 1-.69-.26.9.9 0 0 1-.27-.67c0-.27.09-.5.27-.67a.93.93 0 0 1 .69-.27c.29 0 .52.09.7.27zm8.26 3.99c.4.43.61 1.02.61 1.77v5.67h-1.38v-5.48c0-.56-.1-.95-.31-1.18-.22-.23-.52-.35-.94-.35-.42 0-.78.12-1.1.36-.33.24-.62.59-.9 1.04v5.6h-1.39v-7.9h1.19l.12 1.17c.28-.42.63-.75 1.04-.99a2.7 2.7 0 0 1 1.38-.36c.72 0 1.28.22 1.68.65zm9.33 3.96h-5.04c.05.87.27 1.5.66 1.92.38.4.86.61 1.47.61.38 0 .72-.05 1.04-.16.33-.11.66-.29 1.01-.53l.6.83c-.84.66-1.76.99-2.76.99a3.2 3.2 0 0 1-2.57-1.08 4.43 4.43 0 0 1-.93-2.97c0-.82.14-1.55.4-2.19.27-.63.65-1.13 1.14-1.49a2.9 2.9 0 0 1 1.75-.54c1.05 0 1.85.35 2.41 1.04.57.69.84 1.64.84 2.86 0 .23 0 .47-.03.7zm-1.34-1.11c0-.78-.15-1.38-.47-1.79-.3-.4-.77-.61-1.39-.61-1.13 0-1.74.83-1.84 2.49h3.7v-.1zm4.75 2.98c.2.2.3.45.3.74s-.1.53-.3.74a1 1 0 0 1-.75.3.99.99 0 0 1-.73-.3c-.2-.2-.3-.45-.3-.74a1 1 0 0 1 .3-.74 1 1 0 0 1 .73-.3c.3 0 .55.1.75.3zm6.1-6.25c.43.15.83.37 1.22.67l-.58.87c-.36-.23-.7-.4-1.03-.5a3.18 3.18 0 0 0-1.03-.17c-.45 0-.8.09-1.06.27a.88.88 0 0 0-.39.76c0 .32.12.57.37.75.24.18.68.36 1.33.53.88.22 1.53.52 1.97.9.43.38.65.9.65 1.56 0 .78-.3 1.37-.9 1.78-.61.41-1.35.62-2.22.62-1.2 0-2.2-.35-2.99-1.04l.74-.84c.67.51 1.41.77 2.22.77.52 0 .93-.11 1.24-.33.3-.21.45-.5.45-.87 0-.27-.05-.5-.16-.66-.11-.16-.3-.3-.57-.43a7.82 7.82 0 0 0-1.19-.4 4.04 4.04 0 0 1-1.82-.88 1.9 1.9 0 0 1-.56-1.41c0-.41.12-.79.37-1.12.24-.34.58-.6 1.02-.78a4.4 4.4 0 0 1 2.92-.05zm6.37 7.86h-1.66l-2.74-7.9h1.5l2.08 6.67 2.05-6.68h1.46l-2.69 7.9zm10.63-7.55c-.3.1-.62.17-.98.2-.37.03-.8.04-1.32.04.93.42 1.39 1.09 1.39 2 0 .79-.27 1.43-.81 1.93s-1.27.75-2.2.75c-.37 0-.7-.05-1.01-.15a.85.85 0 0 0-.29.32.89.89 0 0 0-.1.42c0 .43.34.64 1.03.64h1.26c.54 0 1 .1 1.42.29.4.19.72.45.95.78.22.33.34.7.34 1.12a2 2 0 0 1-.95 1.78c-.63.41-1.55.62-2.76.62-.85 0-1.52-.09-2.02-.26-.5-.18-.84-.44-1.06-.79a2.6 2.6 0 0 1-.31-1.35h1.25c0 .32.05.57.17.76.13.18.34.32.65.42.31.1.75.14 1.32.14.83 0 1.42-.1 1.78-.3a1 1 0 0 0 .53-.93.95.95 0 0 0-.42-.84 2.07 2.07 0 0 0-1.17-.28h-1.24c-.68 0-1.18-.15-1.53-.43a1.33 1.33 0 0 1-.52-1.07c0-.26.08-.51.23-.75.15-.24.36-.46.65-.65-.47-.24-.8-.54-1.02-.9a2.46 2.46 0 0 1-.32-1.29 2.61 2.61 0 0 1 1.5-2.4 3.4 3.4 0 0 1 1.55-.36c.62.01 1.13-.01 1.56-.07a5.4 5.4 0 0 0 1.04-.22c.27-.1.61-.23 1.01-.41l.4 1.24zm-5.22.94c-.29.32-.43.75-.43 1.28 0 .54.14.97.44 1.3.29.32.7.49 1.22.49.55 0 .96-.16 1.24-.48.29-.31.43-.75.43-1.32 0-1.17-.56-1.76-1.7-1.76-.52 0-.92.16-1.2.49z"/></g></svg>