<svg xmlns="http://www.w3.org/2000/svg" xmlns:xlink="http://www.w3.org/1999/xlink" style="background:#fff" viewBox="0 0 300 300"><defs><polygon id="a" points="0 0 209 0 209 209 0 209"/><polygon id="c" points="0 0 209 0 209 208.791 0 208.791"/><polygon id="e" points="0 0 209 0 209 209 0 209"/><rect id="g" width="26" height="182" x="98.5" y="59.5" rx="13"/><rect id="h" width="13" height="182" x="176.5" y="59.5" rx="6.5"/><rect id="i" width="27" height="209" x="98" y="32"/><filter id="j" width="103.7%" height="100.5%" x="-1.9%" y="-.2%" filterUnits="objectBoundingBox"><feOffset dx="1" in="SourceAlpha" result="shadowOffsetInner1"/><feComposite in="shadowOffsetInner1" in2="SourceAlpha" k2="-1" k3="1" operator="arithmetic" result="shadowInnerInner1"/><feColorMatrix in="shadowInnerInner1" result="shadowMatrixInner1" values="0 0 0 0 0.0392156863 0 0 0 0 0.517647059 0 0 0 0 1 0 0 0 1 0"/><feOffset dx="-1" in="SourceAlpha" result="shadowOffsetInner2"/><feComposite in="shadowOffsetInner2" in2="SourceAlpha" k2="-1" k3="1" operator="arithmetic" result="shadowInnerInner2"/><feColorMatrix in="shadowInnerInner2" result="shadowMatrixInner2" values="0 0 0 0 0.0392156863 0 0 0 0 0.517647059 0 0 0 0 1 0 0 0 1 0"/><feMerge><feMergeNode in="shadowMatrixInner1"/><feMergeNode in="shadowMatrixInner2"/></feMerge></filter><rect id="k" width="14" height="209" x="176" y="32"/><filter id="l" width="107.1%" height="100.5%" x="-3.6%" y="-.2%" filterUnits="objectBoundingBox"><feOffset dx="1" in="SourceAlpha" result="shadowOffsetInner1"/><feComposite in="shadowOffsetInner1" in2="SourceAlpha" k2="-1" k3="1" operator="arithmetic" result="shadowInnerInner1"/><feColorMatrix in="shadowInnerInner1" result="shadowMatrixInner1" values="0 0 0 0 0.0392156863 0 0 0 0 0.517647059 0 0 0 0 1 0 0 0 1 0"/><feOffset dx="-1" in="SourceAlpha" result="shadowOffsetInner2"/><feComposite in="shadowOffsetInner2" in2="SourceAlpha" k2="-1" k3="1" operator="arithmetic" result="shadowInnerInner2"/><feColorMatrix in="shadowInnerInner2" result="shadowMatrixInner2" values="0 0 0 0 0.0392156863 0 0 0 0 0.517647059 0 0 0 0 1 0 0 0 1 0"/><feMerge><feMergeNode in="shadowMatrixInner1"/><feMergeNode in="shadowMatrixInner2"/></feMerge></filter></defs><g fill="none" fill-rule="evenodd"><g transform="translate(46 46)"><mask id="b" fill="white"><use xlink:href="#a"/></mask><g mask="url(#b)"><mask id="d" fill="white"><use xlink:href="#c"/></mask><rect width="209" height="1" fill="#D7D7DB" mask="url(#d)"/><rect width="209" height="1" y="13" fill="#D7D7DB" mask="url(#d)"/><rect width="209" height="1" y="26" fill="#D7D7DB" mask="url(#d)"/><rect width="209" height="1" y="39" fill="#D7D7DB" mask="url(#d)"/><rect width="209" height="1" y="52" fill="#D7D7DB" mask="url(#d)"/><rect width="209" height="1" y="65" fill="#D7D7DB" mask="url(#d)"/><rect width="209" height="1" y="78" fill="#D7D7DB" mask="url(#d)"/><rect width="209" height="1" y="91" fill="#D7D7DB" mask="url(#d)"/><rect width="209" height="1" y="104" fill="#D7D7DB" mask="url(#d)"/><rect width="209" height="1" y="117" fill="#D7D7DB" mask="url(#d)"/><rect width="209" height="1" y="130" fill="#D7D7DB" mask="url(#d)"/><rect width="209" height="1" y="143" fill="#D7D7DB" mask="url(#d)"/><rect width="209" height="1" y="156" fill="#D7D7DB" mask="url(#d)"/><rect width="209" height="1" y="169" fill="#D7D7DB" mask="url(#d)"/><rect width="209" height="1" y="182" fill="#D7D7DB" mask="url(#d)"/><rect width="209" height="1" y="195" fill="#D7D7DB" mask="url(#d)"/><rect width="209" height="1" y="208" fill="#D7D7DB" mask="url(#d)"/></g><g><mask id="f" fill="white"><use xlink:href="#e"/></mask><rect width="1" height="209" fill="#D7D7DB" mask="url(#f)"/><rect width="1" height="209" x="13" fill="#D7D7DB" mask="url(#f)"/><rect width="1" height="209" x="26" fill="#D7D7DB" mask="url(#f)"/><rect width="1" height="209" x="39" fill="#D7D7DB" mask="url(#f)"/><rect width="1" height="209" x="52" fill="#D7D7DB" mask="url(#f)"/><rect width="1" height="209" x="65" fill="#D7D7DB" mask="url(#f)"/><rect width="1" height="209" x="78" fill="#D7D7DB" mask="url(#f)"/><rect width="1" height="209" x="91" fill="#D7D7DB" mask="url(#f)"/><rect width="1" height="209" x="104" fill="#D7D7DB" mask="url(#f)"/><rect width="1" height="209" x="117" fill="#D7D7DB" mask="url(#f)"/><rect width="1" height="209" x="130" fill="#D7D7DB" mask="url(#f)"/><rect width="1" height="209" x="143" fill="#D7D7DB" mask="url(#f)"/><rect width="1" height="209" x="156" fill="#D7D7DB" mask="url(#f)"/><rect width="1" height="209" x="169" fill="#D7D7DB" mask="url(#f)"/><rect width="1" height="209" x="182" fill="#D7D7DB" mask="url(#f)"/><rect width="1" height="209" x="195" fill="#D7D7DB" mask="url(#f)"/><rect width="1" height="209" x="208" fill="#D7D7DB" mask="url(#f)"/></g><rect width="195" height="195" x="7" y="7" stroke="#000000" stroke-width="14" opacity=".1"/></g><use fill="#FFFFFF" xlink:href="#g"/><use fill="#0C0C0D" fill-opacity=".8" xlink:href="#g"/><use fill="#FFFFFF" xlink:href="#h"/><use fill="#0C0C0D" fill-opacity=".8" xlink:href="#h"/><path stroke="#0A84FF" stroke-width="2" d="M123.46 229.52a853.11 853.11 0 0 1-17.39 0c-2.6-.02-4.56-.02-6.53-.02a12 12 0 0 0 23.92.02zm64.95 6.5a443.75 443.75 0 0 1-8.13-.01l-2.69-.01a5.5 5.5 0 0 0 10.82.01z"/><text fill="#FFFFFF" font-family="FiraSans-Regular, Fira Sans" font-size="12"><tspan x="253.37" y="263">R</tspan></text><path fill="#0A84FF" fill-opacity=".8" d="M160.07 272.5h-1.29v3.5h-1.14v-8.27h2.17c1.04 0 1.82.2 2.35.59.53.4.8.98.8 1.75 0 .58-.15 1.05-.45 1.4-.3.37-.74.64-1.34.82l2.23 3.71h-1.35l-1.98-3.5zm-.14-.88c.6 0 1.06-.12 1.36-.37.3-.24.46-.63.46-1.18 0-.51-.16-.88-.47-1.1-.3-.24-.8-.35-1.48-.35h-1.02v3h1.15zm9.24-1.2c.49.6.74 1.4.74 2.41a4.2 4.2 0 0 1-.34 1.74c-.22.5-.55.88-.97 1.16-.43.28-.93.41-1.51.41-.9 0-1.58-.3-2.08-.88-.5-.6-.74-1.4-.74-2.42 0-.65.1-1.23.33-1.73s.55-.89.97-1.16c.43-.28.94-.42 1.53-.42.89 0 1.58.3 2.07.89zm-3.72 2.42c0 1.61.55 2.42 1.64 2.42 1.08 0 1.63-.81 1.63-2.43 0-1.6-.54-2.41-1.62-2.41-1.1 0-1.65.8-1.65 2.42zm10.98 3.16h-.94l-.09-.98c-.24.39-.51.67-.83.85-.3.18-.69.27-1.14.27-.55 0-.98-.16-1.3-.5a2.02 2.02 0 0 1-.46-1.43v-4.53h1.1v4.41c0 .43.08.74.23.92.15.18.4.27.75.27.61 0 1.14-.36 1.58-1.1v-4.5h1.1V276zm6.61-5.95c.32.34.49.81.49 1.41V276h-1.1v-4.38c0-.45-.1-.76-.26-.95-.17-.18-.42-.27-.74-.27-.34 0-.64.1-.9.28a3 3 0 0 0-.71.83V276h-1.1v-6.32h.94l.1.93c.22-.33.5-.6.83-.79.33-.2.7-.29 1.1-.29.58 0 1.03.17 1.35.52zm7.6-2.92V276h-.97l-.1-.88c-.22.32-.48.57-.79.75-.31.18-.66.27-1.04.27-.75 0-1.34-.3-1.76-.88a4.05 4.05 0 0 1-.63-2.4c0-.64.1-1.22.3-1.72.2-.5.49-.9.86-1.18a2.27 2.27 0 0 1 3.02.35V267l1.11.13zm-1.8 7.9c.24-.15.47-.39.7-.7v-3.1c-.21-.27-.43-.47-.67-.61-.23-.14-.5-.21-.8-.21-.48 0-.86.2-1.13.61-.27.4-.4 1.02-.4 1.82 0 .82.12 1.43.37 1.83.25.4.6.6 1.07.6.33 0 .62-.08.86-.24zm8.83-1.81h-4.03c.05.7.23 1.2.53 1.53.3.33.7.5 1.18.5.3 0 .58-.05.84-.14.25-.09.52-.23.8-.42l.48.66c-.67.53-1.4.8-2.2.8-.89 0-1.57-.3-2.07-.87a3.54 3.54 0 0 1-.73-2.38c0-.65.1-1.23.31-1.74.22-.51.52-.9.92-1.2.4-.28.86-.43 1.4-.43.83 0 1.48.28 1.93.83.44.55.67 1.32.67 2.3l-.03.56zm-1.06-.9c0-.62-.13-1.1-.38-1.42-.24-.33-.62-.5-1.11-.5-.9 0-1.4.67-1.48 2h2.97v-.07zm7.8-5.19V276h-.96l-.11-.88c-.21.32-.47.57-.78.75-.31.18-.66.27-1.05.27-.75 0-1.33-.3-1.75-.88a4.05 4.05 0 0 1-.63-2.4c0-.64.1-1.22.3-1.72.2-.5.48-.9.86-1.18a2.27 2.27 0 0 1 3.02.35V267l1.1.13zm-1.8 7.9c.25-.15.48-.39.7-.7v-3.1c-.2-.27-.43-.47-.66-.61-.24-.14-.5-.21-.8-.21-.49 0-.87.2-1.13.61-.27.4-.4 1.02-.4 1.82 0 .82.12 1.43.37 1.83.24.4.6.6 1.06.6.34 0 .63-.08.87-.24zM92.08 272.5h-1.29v3.5h-1.14v-8.27h2.17c1.04 0 1.82.2 2.35.59.53.4.8.98.8 1.75 0 .58-.15 1.05-.45 1.4-.3.37-.74.64-1.34.82L95.4 276h-1.35l-1.98-3.5zm-.14-.88c.6 0 1.06-.12 1.36-.37.3-.24.46-.63.46-1.18 0-.51-.16-.88-.47-1.1-.3-.24-.8-.35-1.48-.35h-1.02v3h1.15zm9.24-1.2c.49.6.74 1.4.74 2.41a4.2 4.2 0 0 1-.34 1.74c-.22.5-.55.88-.97 1.16-.43.28-.93.41-1.51.41-.9 0-1.58-.3-2.08-.88-.5-.6-.74-1.4-.74-2.42 0-.65.1-1.23.33-1.73s.55-.89.97-1.16c.43-.28.94-.42 1.53-.42.89 0 1.58.3 2.07.89zm-3.72 2.42c0 1.61.55 2.42 1.64 2.42 1.08 0 1.63-.81 1.63-2.43 0-1.6-.54-2.41-1.62-2.41-1.1 0-1.65.8-1.65 2.42zm10.98 3.16h-.94l-.09-.98c-.24.39-.51.67-.83.85-.3.18-.69.27-1.14.27-.55 0-.98-.16-1.3-.5a2.02 2.02 0 0 1-.46-1.43v-4.53h1.1v4.41c0 .43.08.74.23.92.15.18.4.27.75.27.61 0 1.14-.36 1.58-1.1v-4.5h1.1V276zm6.61-5.95c.32.34.49.81.49 1.41V276h-1.1v-4.38c0-.45-.1-.76-.26-.95-.17-.18-.42-.27-.74-.27-.34 0-.64.1-.9.28a3 3 0 0 0-.71.83V276h-1.1v-6.32h.94l.1.93c.22-.33.5-.6.83-.79.33-.2.7-.29 1.1-.29.58 0 1.03.17 1.35.52zm7.6-2.92V276h-.97l-.1-.88c-.22.32-.48.57-.79.75-.31.18-.66.27-1.04.27-.75 0-1.34-.3-1.76-.88a4.05 4.05 0 0 1-.63-2.4c0-.64.1-1.22.3-1.72.2-.5.49-.9.86-1.18a2.27 2.27 0 0 1 3.02.35V267l1.11.13zm-1.8 7.9c.24-.15.47-.39.7-.7v-3.1c-.21-.27-.43-.47-.67-.61-.23-.14-.5-.21-.8-.21-.48 0-.86.2-1.13.61-.27.4-.4 1.02-.4 1.82 0 .82.12 1.43.37 1.83.25.4.6.6 1.07.6.33 0 .62-.08.86-.24zm8.83-1.81h-4.03c.05.7.23 1.2.53 1.53.3.33.7.5 1.18.5.3 0 .58-.05.84-.14.25-.09.52-.23.8-.42l.48.66c-.67.53-1.4.8-2.2.8-.89 0-1.57-.3-2.07-.87a3.54 3.54 0 0 1-.73-2.38c0-.65.1-1.23.31-1.74.22-.51.52-.9.92-1.2.4-.28.86-.43 1.4-.43.83 0 1.48.28 1.93.83.44.55.67 1.32.67 2.3l-.03.56zm-1.06-.9c0-.62-.13-1.1-.38-1.42-.24-.33-.62-.5-1.11-.5-.9 0-1.4.67-1.48 2h2.97v-.07zm7.8-5.19V276h-.96l-.11-.88c-.21.32-.47.57-.78.75-.31.18-.66.27-1.05.27-.75 0-1.33-.3-1.75-.88a4.05 4.05 0 0 1-.63-2.4c0-.64.1-1.22.3-1.72.2-.5.48-.9.86-1.18a2.27 2.27 0 0 1 3.02.35V267l1.1.13zm-1.8 7.9c.25-.15.48-.39.7-.7v-3.1c-.2-.27-.43-.47-.66-.61-.24-.14-.5-.21-.8-.21-.49 0-.87.2-1.13.61-.27.4-.4 1.02-.4 1.82 0 .82.12 1.43.37 1.83.24.4.6.6 1.06.6.34 0 .63-.08.87-.24z"/><path stroke="#0A84FF" stroke-opacity=".8" d="M183 238v25m-71.5-28v28.01"/><use fill="#0A84FF" fill-opacity=".25" xlink:href="#i"/><use fill="black" filter="url(#j)" xlink:href="#i"/><path fill="#0A84FF" fill-opacity=".8" d="M106.18 18.14a2.11 2.11 0 0 1 1.14 1.9c0 .5-.1.96-.33 1.41-.22.45-.55.93-1.01 1.45-.46.52-1.15 1.25-2.08 2.18h3.62l-.14.92h-4.74v-.88a72.56 72.56 0 0 0 2.28-2.44c.45-.51.77-.96.96-1.35.2-.38.3-.8.3-1.23 0-.42-.13-.75-.37-.98a1.31 1.31 0 0 0-.96-.36c-.33 0-.61.07-.86.2-.25.14-.5.37-.77.68l-.74-.58a2.96 2.96 0 0 1 2.44-1.21c.47 0 .9.1 1.26.29zm7.76 2.26c.37.57.56 1.38.56 2.43 0 1-.22 1.8-.65 2.4-.43.61-1.04.91-1.83.91-.7 0-1.26-.24-1.66-.72v3l-1.1.14v-8.88h.94l.09.85c.23-.32.51-.57.84-.74a2.2 2.2 0 0 1 1.03-.26c.8 0 1.4.29 1.78.87zm-.63 2.43c0-1.61-.47-2.42-1.43-2.42-.3 0-.6.09-.85.27-.25.19-.48.42-.67.71v3.09a1.62 1.62 0 0 0 1.4.77c1.03 0 1.55-.81 1.55-2.42zm7.45 3.17h-1.33l-1.55-2.68-1.57 2.68h-1.25l2.21-3.34-1.95-2.98h1.3l1.31 2.31 1.33-2.31h1.25l-1.94 2.94 2.2 3.38z"/><g><use fill="#0A84FF" fill-opacity=".25" xlink:href="#k"/><use fill="black" filter="url(#l)" xlink:href="#k"/></g><path fill="#0A84FF" fill-opacity=".8" d="M175.92 26h-1.1v-6.85l-1.87 1.14-.48-.78 2.48-1.54h.97V26zm7.14-5.6c.38.57.57 1.38.57 2.43 0 1-.22 1.8-.65 2.4-.43.61-1.04.91-1.84.91-.7 0-1.25-.24-1.65-.72v3l-1.1.14v-8.88h.94l.09.85c.23-.32.5-.57.84-.74a2.2 2.2 0 0 1 1.03-.26c.8 0 1.4.29 1.77.87zm-.62 2.43c0-1.61-.48-2.42-1.43-2.42-.31 0-.6.09-.85.27-.26.19-.48.42-.67.71v3.09a1.62 1.62 0 0 0 1.4.77c1.03 0 1.55-.81 1.55-2.42zm7.45 3.17h-1.33l-1.55-2.68-1.57 2.68h-1.25l2.21-3.34-1.96-2.98h1.3l1.32 2.31 1.33-2.31h1.25l-1.94 2.94 2.2 3.38z"/></g></svg>