<svg id="bad_icon.svg" xmlns="http://www.w3.org/2000/svg" width="50" height="50" viewBox="0 0 50 50">
  <defs>
    <style>
      .cls-1 {
        fill: #c73c33;
      }

      .cls-2, .cls-3 {
        fill: #fff;
        fill-rule: evenodd;
      }

      .cls-3 {
        opacity: 0.5;
      }
    </style>
  </defs>
  <circle class="cls-1" cx="25" cy="25" r="25"/>
  <path class="cls-2" d="M364.9,206.53h-0.315a1.684,1.684,0,0,0,0,3.367h4.036c1.581,0,.419,3.02.419,3.02-1.884,7.147,1.663,5.256,1.663,5.256,2.988-7.269,5.234-9.95,5.234-9.95h1.081v-9.569h-0.6l-2.442-1.375h-8.014a1.514,1.514,0,0,0-1.276,1.525,1.276,1.276,0,0,0,1.276,1.276l-0.685.015a1.525,1.525,0,0,0,0,3.05l-0.375.02A1.683,1.683,0,1,0,364.9,206.53Z" transform="translate(-349 -182)"/>
  <path id="Shape_1_copy" data-name="Shape 1 copy" class="cls-3" d="M380,199.008a0.984,0.984,0,1,1-.984.984,0.985,0.985,0,0,1,.984-0.984m-2.087,10.015h8.091v-11h-8.091v11" transform="translate(-349 -182)"/>
</svg>
