<svg id="Example_2a.svg" xmlns="http://www.w3.org/2000/svg" width="201" height="238" viewBox="0 0 201 238">
  <defs>
    <style>
      .cls-1 {
        fill: none;
      }

      .cls-1, .cls-3 {
        stroke: #2ea3ff;
        stroke-linejoin: round;
        stroke-width: 1px;
      }

      .cls-2 {
        fill: #2284e6;
      }

      .cls-2, .cls-4 {
        fill-rule: evenodd;
      }

      .cls-3 {
        fill: #2ea3ff;
      }

      .cls-4 {
        fill: #fff;
      }
    </style>
  </defs>
  <rect class="cls-1" x="0.5" y="0.5" width="200" height="237"/>
  <path id="Remember_password_Sign_in." data-name="Remember password? Sign in." class="cls-2" d="M651.681,1657.75H652.7l-1.675-2.78a1.622,1.622,0,0,0,1.342-1.67c0-1.16-.811-1.75-2.359-1.75h-1.63v6.2h0.856v-2.63H650.2Zm-2.448-3.29v-2.25H650c1.017,0,1.458.32,1.458,1.09a1.111,1.111,0,0,1-1.359,1.16h-0.864Zm8.037,0.78c0-1.45-.675-2.34-1.953-2.34-1.225,0-1.972,1.05-1.972,2.53,0,1.5.774,2.43,2.1,2.43a2.585,2.585,0,0,0,1.656-.6l-0.36-.49a1.98,1.98,0,0,1-1.233.41c-0.684,0-1.2-.42-1.279-1.52h3.025C657.261,1655.55,657.27,1655.4,657.27,1655.24Zm-0.819-.19h-2.224c0.063-1.05.478-1.5,1.108-1.5,0.747,0,1.116.52,1.116,1.45v0.05Zm6.949-2.15a1.647,1.647,0,0,0-1.414.85,1.191,1.191,0,0,0-1.2-.85,1.581,1.581,0,0,0-1.369.8l-0.072-.69h-0.711v4.74h0.828v-3.37a1.335,1.335,0,0,1,1.117-.83c0.36,0,.666.2,0.666,0.91v3.29h0.828v-3.37a1.344,1.344,0,0,1,1.117-.83c0.36,0,.666.2,0.666,0.91v3.29h0.828v-3.4A1.288,1.288,0,0,0,663.4,1652.9Zm6.533,2.34c0-1.45-.675-2.34-1.953-2.34-1.225,0-1.972,1.05-1.972,2.53,0,1.5.774,2.43,2.1,2.43a2.585,2.585,0,0,0,1.656-.6l-0.36-.49a1.98,1.98,0,0,1-1.233.41c-0.684,0-1.2-.42-1.279-1.52h3.025C669.924,1655.55,669.933,1655.4,669.933,1655.24Zm-0.819-.19H666.89c0.063-1.05.477-1.5,1.108-1.5,0.747,0,1.116.52,1.116,1.45v0.05Zm6.948-2.15a1.647,1.647,0,0,0-1.413.85,1.191,1.191,0,0,0-1.2-.85,1.58,1.58,0,0,0-1.369.8l-0.072-.69H671.3v4.74h0.828v-3.37a1.333,1.333,0,0,1,1.117-.83c0.36,0,.666.2,0.666,0.91v3.29h0.828v-3.37a1.344,1.344,0,0,1,1.116-.83c0.361,0,.667.2,0.667,0.91v3.29h0.828v-3.4A1.288,1.288,0,0,0,676.062,1652.9Zm5.121,0a1.6,1.6,0,0,0-1.342.7V1651l-0.828.1v6.65h0.729l0.081-.52a1.6,1.6,0,0,0,1.261.63c1.152,0,1.863-1,1.863-2.49C682.947,1653.79,682.254,1652.9,681.183,1652.9Zm-0.3,4.3a1.274,1.274,0,0,1-1.045-.64v-2.27a1.343,1.343,0,0,1,1.108-.74c0.666,0,1.107.47,1.107,1.82C682.056,1656.67,681.579,1657.2,680.886,1657.2Zm7.056-1.96c0-1.45-.675-2.34-1.954-2.34-1.224,0-1.971,1.05-1.971,2.53,0,1.5.774,2.43,2.1,2.43a2.585,2.585,0,0,0,1.657-.6l-0.36-.49a1.98,1.98,0,0,1-1.234.41c-0.684,0-1.2-.42-1.278-1.52h3.025C687.933,1655.55,687.942,1655.4,687.942,1655.24Zm-0.819-.19H684.9c0.063-1.05.477-1.5,1.107-1.5,0.748,0,1.117.52,1.117,1.45v0.05Zm4.247-2.15a1.354,1.354,0,0,0-1.269,1.07l-0.081-.96h-0.711v4.74h0.828v-2.71c0.2-.91.54-1.33,1.134-1.33a1.767,1.767,0,0,1,.415.05l0.153-.81A2.414,2.414,0,0,0,691.37,1652.9Zm5.976,0a1.733,1.733,0,0,0-1.4.74l-0.063-.63h-0.711v6.66l0.828-.1v-2.25a1.528,1.528,0,0,0,1.242.54c1.225,0,1.864-1.05,1.864-2.49C699.1,1653.88,698.607,1652.9,697.346,1652.9Zm-0.306,4.28a1.213,1.213,0,0,1-1.044-.57v-2.32a1.441,1.441,0,0,1,1.143-.74c0.712,0,1.072.59,1.072,1.82C698.211,1656.62,697.8,1657.18,697.04,1657.18Zm6.67-.54v-2.17a1.441,1.441,0,0,0-1.666-1.57,4.772,4.772,0,0,0-1.638.32l0.207,0.6a4.3,4.3,0,0,1,1.278-.25,0.831,0.831,0,0,1,.99.94v0.35h-0.729c-1.323,0-2.088.55-2.088,1.57a1.381,1.381,0,0,0,1.512,1.43,1.627,1.627,0,0,0,1.413-.71,0.961,0.961,0,0,0,.928.71l0.189-.58A0.559,0.559,0,0,1,703.71,1656.64Zm-1.945.6a0.75,0.75,0,0,1-.819-0.86c0-.65.441-0.97,1.314-0.97h0.621v1.09A1.229,1.229,0,0,1,701.765,1657.24Zm4.932-4.34a1.5,1.5,0,0,0-1.711,1.3c0,0.67.406,1.11,1.432,1.38,0.918,0.24,1.152.42,1.152,0.89a0.838,0.838,0,0,1-1.017.72,2.139,2.139,0,0,1-1.332-.46l-0.442.51a2.634,2.634,0,0,0,1.792.62,1.61,1.61,0,0,0,1.872-1.44c0-.83-0.576-1.23-1.575-1.48-0.765-.2-1.017-0.38-1.017-0.76a0.727,0.727,0,0,1,.873-0.63,2.195,2.195,0,0,1,1.233.41l0.351-.52A2.53,2.53,0,0,0,706.7,1652.9Zm4.2,0a1.5,1.5,0,0,0-1.711,1.3c0,0.67.405,1.11,1.432,1.38,0.918,0.24,1.152.42,1.152,0.89a0.838,0.838,0,0,1-1.017.72,2.144,2.144,0,0,1-1.333-.46l-0.441.51a2.632,2.632,0,0,0,1.792.62,1.61,1.61,0,0,0,1.872-1.44c0-.83-0.576-1.23-1.575-1.48-0.765-.2-1.017-0.38-1.017-0.76a0.727,0.727,0,0,1,.873-0.63,2.195,2.195,0,0,1,1.233.41l0.351-.52A2.53,2.53,0,0,0,710.9,1652.9Zm8.245,0.11h-0.792l-0.864,4.16-0.892-4.16H715.67l-0.936,4.16-0.855-4.16H713.05l1.108,4.74h1.1l0.855-4,0.829,4h1.125Zm2.726-.11c-1.35,0-2.125,1.01-2.125,2.48,0,1.51.766,2.48,2.116,2.48s2.116-1.02,2.116-2.49C723.978,1653.87,723.221,1652.9,721.871,1652.9Zm0,0.66c0.783,0,1.215.58,1.215,1.81,0,1.25-.432,1.82-1.224,1.82s-1.224-.57-1.224-1.81S721.079,1653.56,721.871,1653.56Zm5.535-.66a1.354,1.354,0,0,0-1.269,1.07l-0.081-.96h-0.711v4.74h0.828v-2.71c0.2-.91.54-1.33,1.134-1.33a1.759,1.759,0,0,1,.414.05l0.153-.81A2.4,2.4,0,0,0,727.406,1652.9Zm4.167-1.9v2.48a1.71,1.71,0,0,0-1.278-.58c-1.161,0-1.864,1.05-1.864,2.5,0,1.48.64,2.46,1.792,2.46a1.584,1.584,0,0,0,1.368-.77l0.081,0.66h0.73v-6.65Zm-1.17,6.2c-0.684,0-1.08-.57-1.08-1.82,0-1.23.441-1.83,1.152-1.83a1.365,1.365,0,0,1,1.1.63v2.32A1.36,1.36,0,0,1,730.4,1657.2Zm5-5.76a2.351,2.351,0,0,0-1.873.89l0.567,0.44a1.6,1.6,0,0,1,1.252-.65,0.782,0.782,0,0,1,.909.78c0,0.97-1.584.82-1.584,2.33v0.45h0.819v-0.41c0-1.18,1.629-.99,1.629-2.43A1.506,1.506,0,0,0,735.4,1651.44Zm-0.3,5.17a0.625,0.625,0,1,0,.63.62A0.618,0.618,0,0,0,735.1,1656.61Zm7.1-5.17a1.737,1.737,0,0,0-1.954,1.62c0,0.96.63,1.42,1.837,1.79,1.053,0.33,1.341.6,1.341,1.2a1.156,1.156,0,0,1-1.332,1.11,2.413,2.413,0,0,1-1.621-.63l-0.477.53a2.918,2.918,0,0,0,2.107.8c1.4,0,2.214-.76,2.214-1.84,0-1.19-.846-1.57-1.836-1.88-1.116-.34-1.359-0.59-1.359-1.12a0.951,0.951,0,0,1,1.116-.88,2.121,2.121,0,0,1,1.413.54l0.468-.52A2.607,2.607,0,0,0,742.2,1651.44Zm3.734-.71a0.561,0.561,0,1,0,.586.57A0.55,0.55,0,0,0,745.936,1650.73Zm0.424,2.28h-0.829v4.74h0.829v-4.74Zm5.292-.54a4.055,4.055,0,0,1-2.169.43,1.688,1.688,0,0,0-1.828,1.65,1.361,1.361,0,0,0,.8,1.32,0.941,0.941,0,0,0,.7,1.74h0.747c0.594,0,.954.22,0.954,0.67,0,0.48-.36.74-1.386,0.74-1.045,0-1.288-.25-1.288-0.79h-0.747c0,0.96.486,1.44,2.035,1.44,1.467,0,2.223-.52,2.223-1.44a1.427,1.427,0,0,0-1.62-1.32h-0.756c-0.486,0-.621-0.17-0.621-0.38a0.577,0.577,0,0,1,.234-0.45,1.737,1.737,0,0,0,.6.09,1.611,1.611,0,0,0,1.809-1.61,1.238,1.238,0,0,0-.837-1.19,4.492,4.492,0,0,0,1.387-.15Zm-2.169,1.02a0.922,0.922,0,0,1,1.017,1.06,0.945,0.945,0,0,1-1,1.08,0.969,0.969,0,0,1-1-1.08A0.949,0.949,0,0,1,749.483,1653.49Zm5.5-.59a1.714,1.714,0,0,0-1.45.81l-0.072-.7h-0.711v4.74h0.829v-3.37a1.434,1.434,0,0,1,1.206-.83c0.459,0,.747.2,0.747,0.91v3.29h0.828v-3.4A1.3,1.3,0,0,0,754.982,1652.9Zm5.831-2.17a0.561,0.561,0,1,0,.585.57A0.55,0.55,0,0,0,760.813,1650.73Zm0.423,2.28h-0.828v4.74h0.828v-4.74Zm3.943-.11a1.714,1.714,0,0,0-1.45.81l-0.072-.7h-0.711v4.74h0.828v-3.37a1.437,1.437,0,0,1,1.207-.83c0.459,0,.747.2,0.747,0.91v3.29h0.828v-3.4A1.3,1.3,0,0,0,765.179,1652.9Zm3.257,3.71a0.625,0.625,0,1,0,.63.62A0.617,0.617,0,0,0,768.436,1656.61Z" transform="translate(-607.5 -1433.5)"/>
  <rect id="Rounded_Rectangle_2_copy" data-name="Rounded Rectangle 2 copy" class="cls-3" x="27.5" y="178.5" width="147" height="25" rx="4" ry="4"/>
  <path id="Reset_password" data-name="Reset password" class="cls-4" d="M673.361,1627.97h1.355l-2.231-3.71a2.156,2.156,0,0,0,1.787-2.22c0-1.54-1.079-2.33-3.142-2.33h-2.171v8.26h1.14v-3.5h1.283Zm-3.262-4.38v-3h1.019c1.355,0,1.943.42,1.943,1.45,0,1.12-.66,1.55-1.811,1.55H670.1Zm10.414,1.03c0-1.93-.9-3.12-2.6-3.12-1.631,0-2.627,1.41-2.627,3.37,0,2.01,1.032,3.24,2.795,3.24a3.456,3.456,0,0,0,2.207-.79l-0.48-.66a2.622,2.622,0,0,1-1.643.55c-0.912,0-1.6-.56-1.7-2.02h4.03C680.5,1625.04,680.513,1624.84,680.513,1624.62Zm-1.092-.25h-2.962c0.084-1.4.635-1.99,1.475-1.99,1,0,1.487.68,1.487,1.92v0.07Zm4.333-2.87c-1.307,0-2.279.74-2.279,1.74,0,0.89.54,1.48,1.907,1.84,1.224,0.32,1.535.56,1.535,1.19a1.117,1.117,0,0,1-1.355.96,2.838,2.838,0,0,1-1.775-.62l-0.588.68a3.553,3.553,0,0,0,2.387.82c1.283,0,2.5-.6,2.5-1.92,0-1.1-.768-1.63-2.1-1.96-1.02-.27-1.355-0.51-1.355-1.02a0.96,0.96,0,0,1,1.163-.83,2.914,2.914,0,0,1,1.643.54l0.468-.7A3.39,3.39,0,0,0,683.754,1621.5Zm8.362,3.12c0-1.93-.9-3.12-2.6-3.12-1.631,0-2.627,1.41-2.627,3.37,0,2.01,1.032,3.24,2.8,3.24a3.451,3.451,0,0,0,2.206-.79l-0.479-.66a2.622,2.622,0,0,1-1.643.55c-0.912,0-1.595-.56-1.7-2.02h4.029C692.1,1625.04,692.116,1624.84,692.116,1624.62Zm-1.091-.25h-2.962c0.083-1.4.635-1.99,1.475-1.99,1,0,1.487.68,1.487,1.92v0.07Zm5.388,2.56a1.547,1.547,0,0,1-.839.27c-0.552,0-.756-0.3-0.756-0.93v-3.77H696.2l0.12-.85h-1.5v-1.56l-1.1.13v1.43h-1.1v0.85h1.1v3.81a1.586,1.586,0,0,0,1.7,1.8,2.392,2.392,0,0,0,1.415-.43Zm7.044-5.43a2.3,2.3,0,0,0-1.871,1l-0.084-.85h-0.947v8.87l1.1-.13v-3a2.046,2.046,0,0,0,1.655.72c1.631,0,2.483-1.39,2.483-3.31C705.8,1622.81,705.136,1621.5,703.457,1621.5Zm-0.408,5.71a1.625,1.625,0,0,1-1.391-.76v-3.09a1.93,1.93,0,0,1,1.523-.98c0.948,0,1.427.78,1.427,2.42C704.608,1626.46,704.057,1627.21,703.049,1627.21Zm8.591-.72v-2.89a1.925,1.925,0,0,0-2.219-2.1,6.155,6.155,0,0,0-2.182.44l0.276,0.8a5.548,5.548,0,0,1,1.7-.34,1.109,1.109,0,0,1,1.319,1.25v0.47h-0.972c-1.763,0-2.782.73-2.782,2.09a1.836,1.836,0,0,0,2.015,1.9,2.17,2.17,0,0,0,1.883-.94,1.27,1.27,0,0,0,1.235.94l0.252-.76A0.754,0.754,0,0,1,711.64,1626.49Zm-2.59.8a1,1,0,0,1-1.092-1.14c0-.87.588-1.3,1.751-1.3h0.828v1.45A1.631,1.631,0,0,1,709.05,1627.29Zm6.276-5.79c-1.308,0-2.279.74-2.279,1.74,0,0.89.54,1.48,1.907,1.84,1.223,0.32,1.535.56,1.535,1.19a1.117,1.117,0,0,1-1.355.96,2.833,2.833,0,0,1-1.775-.62l-0.588.68a3.551,3.551,0,0,0,2.387.82c1.283,0,2.494-.6,2.494-1.92,0-1.1-.767-1.63-2.1-1.96-1.019-.27-1.355-0.51-1.355-1.02a0.961,0.961,0,0,1,1.164-.83,2.917,2.917,0,0,1,1.643.54l0.467-.7A3.387,3.387,0,0,0,715.326,1621.5Zm5.3,0c-1.308,0-2.279.74-2.279,1.74,0,0.89.539,1.48,1.907,1.84,1.223,0.32,1.535.56,1.535,1.19a1.117,1.117,0,0,1-1.355.96,2.833,2.833,0,0,1-1.775-.62l-0.588.68a3.551,3.551,0,0,0,2.387.82c1.283,0,2.494-.6,2.494-1.92,0-1.1-.767-1.63-2.1-1.96-1.019-.27-1.355-0.51-1.355-1.02a0.961,0.961,0,0,1,1.163-.83,2.917,2.917,0,0,1,1.644.54l0.467-.7A3.387,3.387,0,0,0,720.63,1621.5Zm10.689,0.15h-1.056l-1.151,5.55-1.188-5.55h-1.235l-1.247,5.55-1.14-5.55h-1.1l1.475,6.32h1.463l1.14-5.33,1.1,5.33h1.5Zm3.338-.15c-1.8,0-2.83,1.36-2.83,3.31,0,2.01,1.019,3.3,2.818,3.3s2.819-1.35,2.819-3.31C737.464,1622.8,736.456,1621.5,734.657,1621.5Zm0,0.89c1.044,0,1.619.77,1.619,2.41,0,1.66-.575,2.43-1.631,2.43s-1.631-.77-1.631-2.42S733.6,1622.39,734.657,1622.39Zm7.08-.89a1.8,1.8,0,0,0-1.691,1.43l-0.108-1.28h-0.947v6.32h1.1v-3.61c0.264-1.21.72-1.78,1.511-1.78a1.905,1.905,0,0,1,.552.08l0.2-1.08A2.59,2.59,0,0,0,741.737,1621.5Zm5.255-2.53v3.31a2.283,2.283,0,0,0-1.7-.78c-1.547,0-2.482,1.41-2.482,3.34,0,1.97.851,3.27,2.386,3.27a2.1,2.1,0,0,0,1.823-1.02l0.108,0.88H748.1v-8.86Zm-1.559,8.27c-0.911,0-1.439-.76-1.439-2.43,0-1.64.588-2.43,1.535-2.43a1.8,1.8,0,0,1,1.463.83v3.09A1.811,1.811,0,0,1,745.433,1627.24Z" transform="translate(-607.5 -1433.5)"/>
  <rect id="Rounded_Rectangle_2" data-name="Rounded Rectangle 2" class="cls-1" x="27.5" y="150.5" width="147" height="23" rx="4" ry="4"/>
  <path id="Email" class="cls-2" d="M647.727,1591.61H644v6.89h3.808v-0.76h-2.858v-2.36h2.319v-0.76h-2.319v-2.25h2.668Zm6.609,1.5a1.828,1.828,0,0,0-1.569.95,1.327,1.327,0,0,0-1.329-.95,1.76,1.76,0,0,0-1.519.89l-0.08-.77h-0.79v5.27h0.92v-3.74a1.481,1.481,0,0,1,1.239-.93c0.4,0,.74.23,0.74,1.02v3.65h0.919v-3.74a1.5,1.5,0,0,1,1.24-.93c0.4,0,.739.23,0.739,1.02v3.65h0.92v-3.78A1.43,1.43,0,0,0,654.336,1593.11Zm6.581,4.16v-2.41a1.6,1.6,0,0,0-1.849-1.75,5.159,5.159,0,0,0-1.819.36l0.23,0.67a4.718,4.718,0,0,1,1.42-.28,0.922,0.922,0,0,1,1.1,1.04v0.39h-0.81c-1.469,0-2.318.61-2.318,1.74a1.531,1.531,0,0,0,1.679,1.59,1.8,1.8,0,0,0,1.569-.79,1.062,1.062,0,0,0,1.029.79l0.21-.64A0.624,0.624,0,0,1,660.917,1597.27Zm-2.158.66a0.831,0.831,0,0,1-.91-0.95c0-.72.49-1.08,1.459-1.08H660v1.21A1.354,1.354,0,0,1,658.759,1597.93Zm4.25-7.23a0.625,0.625,0,1,0,.65.63A0.612,0.612,0,0,0,663.009,1590.7Zm0.47,2.53h-0.92v5.27h0.92v-5.27Zm2.7,5.39a1.545,1.545,0,0,0,.729-0.18l-0.24-.64a0.9,0.9,0,0,1-.339.06c-0.24,0-.33-0.14-0.33-0.42V1591l-0.92.11v6.35A1.037,1.037,0,0,0,666.179,1598.62Z" transform="translate(-607.5 -1433.5)"/>
  <path id="When_you_reset_your_password_you_will_lose_any_Sync_data_that_" data-name="When you reset your password, you will lose any Sync data that " class="cls-2" d="M636.068,1473.61H635.2l-1.149,6.06-1.36-6.06H631.68l-1.329,6.06-1.11-6.06h-0.929l1.4,6.89H630.9l1.28-5.77,1.269,5.77h1.219Zm3.682,1.5a1.89,1.89,0,0,0-1.559.85v-2.94l-0.92.1v7.38h0.92v-3.75a1.612,1.612,0,0,1,1.329-.92c0.5,0,.84.23,0.84,1.02v3.65h0.919v-3.78A1.451,1.451,0,0,0,639.75,1475.11Zm7.359,2.6c0-1.61-.749-2.6-2.169-2.6-1.359,0-2.188,1.17-2.188,2.81,0,1.67.859,2.7,2.328,2.7a2.868,2.868,0,0,0,1.839-.66l-0.4-.55a2.214,2.214,0,0,1-1.369.46c-0.759,0-1.329-.47-1.419-1.69h3.358C647.1,1478.06,647.109,1477.89,647.109,1477.71Zm-0.909-.21h-2.469c0.07-1.17.53-1.66,1.229-1.66,0.83,0,1.24.57,1.24,1.6v0.06Zm4.91-2.39a1.91,1.91,0,0,0-1.609.9l-0.08-.78h-0.79v5.27h0.92v-3.74a1.592,1.592,0,0,1,1.339-.93c0.51,0,.83.23,0.83,1.02v3.65h0.919v-3.78A1.442,1.442,0,0,0,651.11,1475.11Zm9.9,0.12H660.06l-1.38,4.6-1.409-4.6h-0.979l1.769,5.27h0.31a1.8,1.8,0,0,1-1.669,1.41l0.1,0.72a2.677,2.677,0,0,0,2.449-2.1Zm2.881-.12c-1.5,0-2.359,1.13-2.359,2.76,0,1.67.85,2.75,2.349,2.75s2.349-1.13,2.349-2.76C666.229,1476.19,665.389,1475.11,663.89,1475.11Zm0,0.74c0.87,0,1.349.64,1.349,2.01s-0.479,2.02-1.359,2.02-1.359-.64-1.359-2.01S663.011,1475.85,663.89,1475.85Zm7.779-.62h-0.92v3.76a1.585,1.585,0,0,1-1.319.91c-0.57,0-.809-0.27-0.809-0.99v-3.68H667.7v3.78a1.409,1.409,0,0,0,1.469,1.61,1.767,1.767,0,0,0,1.639-.94l0.07,0.82h0.79v-5.27Zm6.841-.12a1.5,1.5,0,0,0-1.409,1.19l-0.09-1.07h-0.79v5.27h0.919v-3.01c0.22-1.01.6-1.48,1.26-1.48a1.653,1.653,0,0,1,.46.06l0.169-.9A2.227,2.227,0,0,0,678.51,1475.11Zm5.449,2.6c0-1.61-.75-2.6-2.169-2.6-1.359,0-2.189,1.17-2.189,2.81,0,1.67.86,2.7,2.329,2.7a2.872,2.872,0,0,0,1.839-.66l-0.4-.55a2.218,2.218,0,0,1-1.369.46c-0.76,0-1.329-.47-1.419-1.69h3.358C683.949,1478.06,683.959,1477.89,683.959,1477.71Zm-0.91-.21h-2.468c0.07-1.17.529-1.66,1.229-1.66,0.829,0,1.239.57,1.239,1.6v0.06Zm3.861-2.39a1.669,1.669,0,0,0-1.9,1.45c0,0.74.45,1.23,1.589,1.53,1.02,0.27,1.279.47,1.279,0.99a0.93,0.93,0,0,1-1.129.8,2.387,2.387,0,0,1-1.479-.51l-0.49.56a2.921,2.921,0,0,0,1.989.69c1.069,0,2.079-.5,2.079-1.6,0-.92-0.64-1.36-1.749-1.64-0.85-.22-1.13-0.42-1.13-0.85a0.8,0.8,0,0,1,.97-0.69,2.428,2.428,0,0,1,1.369.45l0.39-.58A2.8,2.8,0,0,0,686.91,1475.11Zm7.219,2.6c0-1.61-.75-2.6-2.169-2.6-1.36,0-2.189,1.17-2.189,2.81,0,1.67.859,2.7,2.329,2.7a2.872,2.872,0,0,0,1.839-.66l-0.4-.55a2.218,2.218,0,0,1-1.369.46c-0.76,0-1.33-.47-1.42-1.69h3.359C694.118,1478.06,694.129,1477.89,694.129,1477.71Zm-0.91-.21H690.75c0.07-1.17.53-1.66,1.23-1.66,0.829,0,1.239.57,1.239,1.6v0.06Zm4.74,2.13a1.285,1.285,0,0,1-.7.23c-0.46,0-.63-0.25-0.63-0.78v-3.14h1.149l0.1-.71H696.63v-1.3l-0.919.11v1.19h-0.92v0.71h0.92v3.18a1.323,1.323,0,0,0,1.419,1.5,2.006,2.006,0,0,0,1.179-.36Zm7.819-4.4h-0.949l-1.379,4.6-1.41-4.6h-0.979l1.769,5.27h0.31a1.8,1.8,0,0,1-1.669,1.41l0.1,0.72a2.676,2.676,0,0,0,2.448-2.1Zm2.881-.12c-1.5,0-2.358,1.13-2.358,2.76,0,1.67.849,2.75,2.348,2.75s2.349-1.13,2.349-2.76C711,1476.19,710.158,1475.11,708.659,1475.11Zm0,0.74c0.87,0,1.35.64,1.35,2.01s-0.48,2.02-1.36,2.02-1.359-.64-1.359-2.01S707.78,1475.85,708.659,1475.85Zm7.779-.62h-0.919v3.76a1.588,1.588,0,0,1-1.32.91c-0.569,0-.809-0.27-0.809-0.99v-3.68h-0.92v3.78a1.409,1.409,0,0,0,1.47,1.61,1.769,1.769,0,0,0,1.639-.94l0.07,0.82h0.789v-5.27Zm4.191-.12a1.5,1.5,0,0,0-1.409,1.19l-0.09-1.07h-0.79v5.27h0.92v-3.01c0.22-1.01.6-1.48,1.259-1.48a1.653,1.653,0,0,1,.46.06l0.17-.9A2.242,2.242,0,0,0,720.629,1475.11Zm6.64,0a1.912,1.912,0,0,0-1.559.83l-0.07-.71h-0.79v7.4l0.92-.11v-2.5a1.7,1.7,0,0,0,1.379.6c1.359,0,2.069-1.16,2.069-2.76C729.218,1476.2,728.668,1475.11,727.269,1475.11Zm-0.34,4.76a1.354,1.354,0,0,1-1.159-.64v-2.57a1.6,1.6,0,0,1,1.269-.82c0.79,0,1.189.65,1.189,2.02S727.769,1479.87,726.929,1479.87Zm7.409-.6v-2.41a1.6,1.6,0,0,0-1.849-1.75,5.154,5.154,0,0,0-1.819.36l0.23,0.67a4.712,4.712,0,0,1,1.419-.28,0.922,0.922,0,0,1,1.1,1.04v0.39h-0.81c-1.469,0-2.319.61-2.319,1.74a1.532,1.532,0,0,0,1.679,1.59,1.8,1.8,0,0,0,1.57-.79,1.06,1.06,0,0,0,1.029.79l0.21-.64A0.624,0.624,0,0,1,734.338,1479.27Zm-2.159.66a0.83,0.83,0,0,1-.909-0.95c0-.72.49-1.08,1.459-1.08h0.69v1.21A1.354,1.354,0,0,1,732.179,1479.93Zm5.48-4.82a1.669,1.669,0,0,0-1.9,1.45c0,0.74.45,1.23,1.589,1.53,1.02,0.27,1.28.47,1.28,0.99a0.931,0.931,0,0,1-1.13.8,2.389,2.389,0,0,1-1.479-.51l-0.49.56a2.921,2.921,0,0,0,1.989.69c1.07,0,2.079-.5,2.079-1.6,0-.92-0.639-1.36-1.749-1.64-0.849-.22-1.129-0.42-1.129-0.85a0.8,0.8,0,0,1,.969-0.69,2.426,2.426,0,0,1,1.369.45l0.39-.58A2.8,2.8,0,0,0,737.659,1475.11Zm4.67,0a1.669,1.669,0,0,0-1.9,1.45c0,0.74.45,1.23,1.589,1.53,1.02,0.27,1.28.47,1.28,0.99a0.931,0.931,0,0,1-1.13.8,2.389,2.389,0,0,1-1.479-.51l-0.49.56a2.921,2.921,0,0,0,1.989.69c1.07,0,2.079-.5,2.079-1.6,0-.92-0.64-1.36-1.749-1.64-0.849-.22-1.129-0.42-1.129-0.85a0.8,0.8,0,0,1,.969-0.69,2.426,2.426,0,0,1,1.369.45l0.39-.58A2.8,2.8,0,0,0,742.329,1475.11Zm9.158,0.12h-0.88l-0.959,4.63-0.99-4.63h-1.029l-1.04,4.63-0.949-4.63h-0.92l1.23,5.27h1.219l0.949-4.44,0.92,4.44h1.249Zm3.032-.12c-1.5,0-2.359,1.13-2.359,2.76,0,1.67.85,2.75,2.349,2.75s2.349-1.13,2.349-2.76C756.858,1476.19,756.018,1475.11,754.519,1475.11Zm0,0.74c0.869,0,1.349.64,1.349,2.01s-0.48,2.02-1.359,2.02-1.359-.64-1.359-2.01S753.639,1475.85,754.519,1475.85Zm6.15-.74a1.5,1.5,0,0,0-1.41,1.19l-0.09-1.07H758.38v5.27H759.3v-3.01c0.22-1.01.6-1.48,1.26-1.48a1.653,1.653,0,0,1,.46.06l0.169-.9A2.233,2.233,0,0,0,760.669,1475.11ZM765.3,1473v2.76a1.89,1.89,0,0,0-1.419-.65c-1.289,0-2.069,1.17-2.069,2.78,0,1.64.71,2.73,1.989,2.73a1.76,1.76,0,0,0,1.519-.85l0.09,0.73h0.81v-7.39Zm-1.3,6.89c-0.76,0-1.2-.63-1.2-2.02,0-1.37.489-2.03,1.279-2.03a1.511,1.511,0,0,1,1.219.69v2.58A1.509,1.509,0,0,1,764,1479.89Zm4.361-.66a0.685,0.685,0,0,0-.69.69,0.725,0.725,0,0,0,.28.58l-0.4,1.66h0.66l0.669-1.53a1.647,1.647,0,0,0,.18-0.71A0.687,0.687,0,0,0,768.36,1479.23Zm8.678-4h-0.95l-1.379,4.6-1.409-4.6h-0.98l1.769,5.27h0.31a1.8,1.8,0,0,1-1.669,1.41l0.1,0.72a2.676,2.676,0,0,0,2.448-2.1Zm2.88-.12c-1.5,0-2.358,1.13-2.358,2.76,0,1.67.849,2.75,2.349,2.75s2.348-1.13,2.348-2.76C782.257,1476.19,781.418,1475.11,779.918,1475.11Zm0,0.74c0.87,0,1.35.64,1.35,2.01s-0.48,2.02-1.359,2.02-1.36-.64-1.36-2.01S779.039,1475.85,779.918,1475.85Zm7.779-.62h-0.919v3.76a1.588,1.588,0,0,1-1.319.91c-0.57,0-.81-0.27-0.81-0.99v-3.68H783.73v3.78a1.408,1.408,0,0,0,1.469,1.61,1.769,1.769,0,0,0,1.639-.94l0.07,0.82H787.7v-5.27Zm-148.353,12h-0.88l-0.959,4.63-0.99-4.63h-1.029l-1.04,4.63-0.949-4.63h-0.92l1.23,5.27h1.219l0.949-4.44,0.92,4.44h1.249Zm1.6-2.53a0.625,0.625,0,1,0,.649.63A0.612,0.612,0,0,0,640.947,1484.7Zm0.469,2.53H640.5v5.27h0.919v-5.27Zm2.95,5.39a1.546,1.546,0,0,0,.73-0.18l-0.24-.64a0.9,0.9,0,0,1-.34.06c-0.24,0-.33-0.14-0.33-0.42V1485l-0.919.11v6.35A1.037,1.037,0,0,0,644.366,1492.62Zm2.93,0a1.546,1.546,0,0,0,.73-0.18l-0.24-.64a0.9,0.9,0,0,1-.34.06c-0.24,0-.33-0.14-0.33-0.42V1485l-0.919.11v6.35A1.037,1.037,0,0,0,647.3,1492.62Zm5.58,0a1.546,1.546,0,0,0,.73-0.18l-0.24-.64a0.9,0.9,0,0,1-.34.06c-0.24,0-.33-0.14-0.33-0.42V1485l-0.919.11v6.35A1.037,1.037,0,0,0,652.876,1492.62Zm3.76-5.51c-1.5,0-2.359,1.13-2.359,2.76,0,1.67.85,2.75,2.349,2.75s2.348-1.13,2.348-2.76C658.974,1488.19,658.135,1487.11,656.636,1487.11Zm0,0.74c0.869,0,1.349.64,1.349,2.01s-0.48,2.02-1.359,2.02-1.359-.64-1.359-2.01S655.756,1487.85,656.636,1487.85Zm5.29-.74a1.669,1.669,0,0,0-1.9,1.45c0,0.74.45,1.23,1.589,1.53,1.02,0.27,1.28.47,1.28,0.99a0.931,0.931,0,0,1-1.13.8,2.389,2.389,0,0,1-1.479-.51l-0.49.56a2.921,2.921,0,0,0,1.989.69c1.07,0,2.079-.5,2.079-1.6,0-.92-0.64-1.36-1.749-1.64-0.85-.22-1.129-0.42-1.129-0.85a0.8,0.8,0,0,1,.969-0.69,2.426,2.426,0,0,1,1.369.45l0.39-.58A2.8,2.8,0,0,0,661.926,1487.11Zm7.219,2.6c0-1.61-.75-2.6-2.169-2.6-1.359,0-2.189,1.17-2.189,2.81,0,1.67.86,2.7,2.329,2.7a2.872,2.872,0,0,0,1.839-.66l-0.4-.55a2.218,2.218,0,0,1-1.369.46c-0.76,0-1.33-.47-1.42-1.69h3.359C669.135,1490.06,669.145,1489.89,669.145,1489.71Zm-0.91-.21h-2.469c0.07-1.17.53-1.66,1.23-1.66,0.829,0,1.239.57,1.239,1.6v0.06Zm8.63,1.77v-2.41a1.6,1.6,0,0,0-1.849-1.75,5.15,5.15,0,0,0-1.819.36l0.23,0.67a4.706,4.706,0,0,1,1.419-.28,0.922,0.922,0,0,1,1.1,1.04v0.39h-0.809c-1.47,0-2.319.61-2.319,1.74a1.532,1.532,0,0,0,1.679,1.59,1.794,1.794,0,0,0,1.569-.79,1.062,1.062,0,0,0,1.03.79l0.21-.64A0.624,0.624,0,0,1,676.865,1491.27Zm-2.159.66a0.831,0.831,0,0,1-.91-0.95c0-.72.49-1.08,1.46-1.08h0.689v1.21A1.353,1.353,0,0,1,674.706,1491.93Zm6.529-4.82a1.911,1.911,0,0,0-1.609.9l-0.08-.78h-0.789v5.27h0.919v-3.74a1.593,1.593,0,0,1,1.339-.93c0.51,0,.83.23,0.83,1.02v3.65h0.919v-3.78A1.441,1.441,0,0,0,681.235,1487.11Zm7.15,0.12h-0.95l-1.379,4.6-1.409-4.6h-0.98l1.769,5.27h0.31a1.8,1.8,0,0,1-1.669,1.41l0.1,0.72a2.676,2.676,0,0,0,2.448-2.1Zm5.451-1.74a1.926,1.926,0,0,0-2.169,1.8c0,1.07.7,1.58,2.039,1.99,1.169,0.36,1.489.66,1.489,1.33a1.283,1.283,0,0,1-1.479,1.23,2.635,2.635,0,0,1-1.8-.7l-0.53.59a3.22,3.22,0,0,0,2.339.89c1.549,0,2.458-.84,2.458-2.04,0-1.32-.939-1.75-2.039-2.09-1.239-.38-1.509-0.66-1.509-1.24a1.056,1.056,0,0,1,1.24-.98,2.367,2.367,0,0,1,1.569.6l0.519-.58A2.9,2.9,0,0,0,693.836,1485.49Zm7.369,1.74h-0.95l-1.379,4.6-1.409-4.6h-0.98l1.769,5.27h0.31a1.8,1.8,0,0,1-1.669,1.41l0.1,0.72a2.676,2.676,0,0,0,2.448-2.1Zm3.53-.12a1.911,1.911,0,0,0-1.609.9l-0.08-.78h-0.789v5.27h0.919v-3.74a1.593,1.593,0,0,1,1.339-.93c0.51,0,.83.23,0.83,1.02v3.65h0.919v-3.78A1.441,1.441,0,0,0,704.735,1487.11Zm5.3,0c-1.429,0-2.3,1.12-2.3,2.8,0,1.7.879,2.71,2.3,2.71a2.486,2.486,0,0,0,1.61-.58l-0.42-.6a1.957,1.957,0,0,1-1.15.4c-0.829,0-1.349-.57-1.349-1.95s0.52-2.02,1.349-2.02a1.8,1.8,0,0,1,1.13.39l0.44-.58A2.342,2.342,0,0,0,710.035,1487.11Zm8.67-2.11v2.76a1.892,1.892,0,0,0-1.419-.65c-1.29,0-2.069,1.17-2.069,2.78,0,1.64.709,2.73,1.989,2.73a1.761,1.761,0,0,0,1.519-.85l0.09,0.73h0.809v-7.39Zm-1.3,6.89c-0.759,0-1.2-.63-1.2-2.02,0-1.37.49-2.03,1.279-2.03a1.512,1.512,0,0,1,1.22.69v2.58A1.511,1.511,0,0,1,717.405,1491.89Zm7.669-.62v-2.41a1.6,1.6,0,0,0-1.849-1.75,5.159,5.159,0,0,0-1.819.36l0.23,0.67a4.718,4.718,0,0,1,1.42-.28,0.922,0.922,0,0,1,1.1,1.04v0.39h-0.81c-1.469,0-2.318.61-2.318,1.74a1.531,1.531,0,0,0,1.679,1.59,1.8,1.8,0,0,0,1.569-.79,1.062,1.062,0,0,0,1.029.79l0.21-.64A0.624,0.624,0,0,1,725.074,1491.27Zm-2.158.66a0.831,0.831,0,0,1-.91-0.95c0-.72.49-1.08,1.459-1.08h0.69v1.21A1.354,1.354,0,0,1,722.916,1491.93Zm6.359-.3a1.288,1.288,0,0,1-.7.23c-0.459,0-.629-0.25-0.629-0.78v-3.14H729.1l0.1-.71h-1.249v-1.3l-0.92.11v1.19h-0.919v0.71h0.919v3.18a1.324,1.324,0,0,0,1.42,1.5,2.008,2.008,0,0,0,1.179-.36Zm4.849-.36v-2.41a1.6,1.6,0,0,0-1.849-1.75,5.159,5.159,0,0,0-1.819.36l0.23,0.67a4.718,4.718,0,0,1,1.419-.28,0.922,0.922,0,0,1,1.1,1.04v0.39H732.4c-1.469,0-2.319.61-2.319,1.74a1.532,1.532,0,0,0,1.68,1.59,1.8,1.8,0,0,0,1.569-.79,1.061,1.061,0,0,0,1.029.79l0.21-.64A0.624,0.624,0,0,1,734.124,1491.27Zm-2.159.66a0.83,0.83,0,0,1-.909-0.95c0-.72.49-1.08,1.459-1.08h0.69v1.21A1.354,1.354,0,0,1,731.965,1491.93Zm9.01-.3a1.288,1.288,0,0,1-.7.23c-0.46,0-.629-0.25-0.629-0.78v-3.14H740.8l0.1-.71h-1.249v-1.3l-0.92.11v1.19h-0.919v0.71h0.919v3.18a1.324,1.324,0,0,0,1.419,1.5,2.009,2.009,0,0,0,1.18-.36Zm3.78-4.52a1.889,1.889,0,0,0-1.559.85v-2.94l-0.92.1v7.38h0.92v-3.75a1.61,1.61,0,0,1,1.329-.92c0.5,0,.839.23,0.839,1.02v3.65h0.92v-3.78A1.451,1.451,0,0,0,744.755,1487.11Zm6.929,4.16v-2.41a1.6,1.6,0,0,0-1.849-1.75,5.154,5.154,0,0,0-1.819.36l0.23,0.67a4.712,4.712,0,0,1,1.419-.28,0.922,0.922,0,0,1,1.1,1.04v0.39h-0.81c-1.469,0-2.319.61-2.319,1.74a1.532,1.532,0,0,0,1.679,1.59,1.8,1.8,0,0,0,1.57-.79,1.06,1.06,0,0,0,1.029.79l0.21-.64A0.624,0.624,0,0,1,751.684,1491.27Zm-2.159.66a0.83,0.83,0,0,1-.909-0.95c0-.72.489-1.08,1.459-1.08h0.69v1.21A1.354,1.354,0,0,1,749.525,1491.93Zm6.36-.3a1.288,1.288,0,0,1-.7.23c-0.46,0-.63-0.25-0.63-0.78v-3.14h1.15l0.1-.71h-1.25v-1.3l-0.919.11v1.19h-0.92v0.71h0.92v3.18a1.324,1.324,0,0,0,1.419,1.5,2,2,0,0,0,1.179-.36Zm4.4-6.93a0.625,0.625,0,1,0,.649.63A0.612,0.612,0,0,0,760.286,1484.7Zm0.469,2.53h-0.919v5.27h0.919v-5.27Zm3.33-.12a1.669,1.669,0,0,0-1.9,1.45c0,0.74.45,1.23,1.589,1.53,1.02,0.27,1.28.47,1.28,0.99a0.931,0.931,0,0,1-1.13.8,2.387,2.387,0,0,1-1.479-.51l-0.49.56a2.921,2.921,0,0,0,1.989.69c1.07,0,2.079-.5,2.079-1.6,0-.92-0.64-1.36-1.749-1.64-0.85-.22-1.129-0.42-1.129-0.85a0.8,0.8,0,0,1,.969-0.69,2.426,2.426,0,0,1,1.369.45l0.39-.58A2.8,2.8,0,0,0,764.085,1487.11Zm8.369,0a1.911,1.911,0,0,0-1.609.9l-0.08-.78h-0.789v5.27H770.9v-3.74a1.594,1.594,0,0,1,1.34-.93c0.509,0,.829.23,0.829,1.02v3.65h0.92v-3.78A1.442,1.442,0,0,0,772.454,1487.11Zm5.361,0c-1.5,0-2.359,1.13-2.359,2.76,0,1.67.849,2.75,2.349,2.75s2.348-1.13,2.348-2.76C780.153,1488.19,779.314,1487.11,777.815,1487.11Zm0,0.74c0.869,0,1.349.64,1.349,2.01s-0.48,2.02-1.359,2.02-1.36-.64-1.36-2.01S776.935,1487.85,777.815,1487.85Zm6.169,3.78a1.282,1.282,0,0,1-.7.23c-0.46,0-.63-0.25-0.63-0.78v-3.14h1.15l0.1-.71h-1.25v-1.3l-0.919.11v1.19h-0.92v0.71h0.92v3.18a1.323,1.323,0,0,0,1.419,1.5,2.006,2.006,0,0,0,1.179-.36Zm-151.553,7.48c-1.5,0-2.359,1.13-2.359,2.76,0,1.67.85,2.75,2.349,2.75s2.349-1.13,2.349-2.76C634.77,1500.19,633.93,1499.11,632.431,1499.11Zm0,0.74c0.87,0,1.349.64,1.349,2.01s-0.479,2.02-1.359,2.02-1.359-.64-1.359-2.01S631.552,1499.85,632.431,1499.85Zm6.34-.74a1.909,1.909,0,0,0-1.609.9l-0.08-.78h-0.79v5.27h0.92v-3.74a1.591,1.591,0,0,1,1.339-.93c0.51,0,.829.23,0.829,1.02v3.65h0.92v-3.78A1.442,1.442,0,0,0,638.771,1499.11Zm8.01,0c-1.5,0-2.359,1.13-2.359,2.76,0,1.67.85,2.75,2.349,2.75s2.349-1.13,2.349-2.76C649.12,1500.19,648.28,1499.11,646.781,1499.11Zm0,0.74c0.87,0,1.349.64,1.349,2.01s-0.479,2.02-1.359,2.02-1.359-.64-1.359-2.01S645.9,1499.85,646.781,1499.85Zm6.34-.74a1.909,1.909,0,0,0-1.609.9l-0.08-.78h-0.79v5.27h0.92v-3.74a1.591,1.591,0,0,1,1.339-.93c0.51,0,.829.23,0.829,1.02v3.65h0.92v-3.78A1.442,1.442,0,0,0,653.121,1499.11Zm7.359,2.6c0-1.61-.75-2.6-2.169-2.6-1.359,0-2.189,1.17-2.189,2.81,0,1.67.86,2.7,2.329,2.7a2.87,2.87,0,0,0,1.839-.66l-0.4-.55a2.216,2.216,0,0,1-1.369.46c-0.76,0-1.329-.47-1.419-1.69h3.358C660.47,1502.06,660.48,1501.89,660.48,1501.71Zm-0.91-.21H657.1c0.07-1.17.53-1.66,1.229-1.66,0.83,0,1.239.57,1.239,1.6v0.06Zm7.061-2.39c-1.5,0-2.359,1.13-2.359,2.76,0,1.67.85,2.75,2.349,2.75s2.349-1.13,2.349-2.76C668.97,1500.19,668.13,1499.11,666.631,1499.11Zm0,0.74c0.869,0,1.349.64,1.349,2.01s-0.48,2.02-1.359,2.02-1.359-.64-1.359-2.01S665.751,1499.85,666.631,1499.85Zm5.65-2.11a2.247,2.247,0,0,1,.919.2l0.29-.67a2.9,2.9,0,0,0-1.259-.27,1.469,1.469,0,0,0-1.649,1.51v0.72h-0.94v0.71h0.94v4.56H671.5v-4.56h1.18l0.1-.71H671.5v-0.73A0.657,0.657,0,0,1,672.281,1497.74Zm8.079,1.49h-0.95l-1.379,4.6-1.409-4.6h-0.98l1.769,5.27h0.31a1.794,1.794,0,0,1-1.669,1.41l0.1,0.72a2.678,2.678,0,0,0,2.449-2.1Zm2.881-.12c-1.5,0-2.359,1.13-2.359,2.76,0,1.67.85,2.75,2.349,2.75s2.348-1.13,2.348-2.76C685.579,1500.19,684.74,1499.11,683.241,1499.11Zm0,0.74c0.869,0,1.349.64,1.349,2.01s-0.48,2.02-1.359,2.02-1.36-.64-1.36-2.01S682.361,1499.85,683.241,1499.85Zm7.779-.62H690.1v3.76a1.586,1.586,0,0,1-1.319.91c-0.57,0-.81-0.27-0.81-0.99v-3.68h-0.919v3.78a1.409,1.409,0,0,0,1.469,1.61,1.768,1.768,0,0,0,1.639-.94l0.07,0.82h0.79v-5.27Zm4.19-.12a1.5,1.5,0,0,0-1.409,1.19l-0.09-1.07h-0.789v5.27h0.919v-3.01c0.22-1.01.6-1.48,1.259-1.48a1.653,1.653,0,0,1,.46.06l0.17-.9A2.242,2.242,0,0,0,695.21,1499.11Zm7.38-2.11v2.76a1.892,1.892,0,0,0-1.419-.65c-1.29,0-2.069,1.17-2.069,2.78,0,1.64.709,2.73,1.989,2.73a1.761,1.761,0,0,0,1.519-.85l0.09,0.73h0.809v-7.39Zm-1.3,6.89c-0.759,0-1.2-.63-1.2-2.02,0-1.37.49-2.03,1.279-2.03a1.512,1.512,0,0,1,1.22.69v2.58A1.511,1.511,0,0,1,701.29,1503.89Zm8.1-2.18c0-1.61-.749-2.6-2.169-2.6-1.359,0-2.188,1.17-2.188,2.81,0,1.67.859,2.7,2.328,2.7a2.868,2.868,0,0,0,1.839-.66l-0.4-.55a2.218,2.218,0,0,1-1.37.46c-0.759,0-1.329-.47-1.419-1.69h3.358C709.379,1502.06,709.389,1501.89,709.389,1501.71Zm-0.909-.21h-2.469c0.07-1.17.53-1.66,1.229-1.66,0.83,0,1.24.57,1.24,1.6v0.06Zm6.2-2.27H713.71l-1.369,4.45-1.38-4.45h-1l1.819,5.27h1.109Zm1.5-2.53a0.625,0.625,0,1,0,.65.63A0.612,0.612,0,0,0,716.181,1496.7Zm0.47,2.53h-0.92v5.27h0.92v-5.27Zm3.819-.12c-1.429,0-2.3,1.12-2.3,2.8,0,1.7.88,2.71,2.3,2.71a2.482,2.482,0,0,0,1.609-.58l-0.419-.6a1.957,1.957,0,0,1-1.15.4c-0.829,0-1.349-.57-1.349-1.95s0.52-2.02,1.349-2.02a1.8,1.8,0,0,1,1.129.39l0.44-.58A2.338,2.338,0,0,0,720.47,1499.11Zm6.739,2.6c0-1.61-.749-2.6-2.169-2.6-1.359,0-2.189,1.17-2.189,2.81,0,1.67.86,2.7,2.329,2.7a2.87,2.87,0,0,0,1.839-.66l-0.4-.55a2.214,2.214,0,0,1-1.369.46c-0.759,0-1.329-.47-1.419-1.69h3.358C727.2,1502.06,727.209,1501.89,727.209,1501.71Zm-0.909-.21h-2.469c0.07-1.17.53-1.66,1.229-1.66,0.83,0,1.24.57,1.24,1.6v0.06Zm3.86-2.39a1.669,1.669,0,0,0-1.9,1.45c0,0.74.45,1.23,1.59,1.53,1.019,0.27,1.279.47,1.279,0.99a0.931,0.931,0,0,1-1.13.8,2.389,2.389,0,0,1-1.479-.51l-0.489.56a2.917,2.917,0,0,0,1.988.69c1.07,0,2.079-.5,2.079-1.6,0-.92-0.639-1.36-1.749-1.64-0.849-.22-1.129-0.42-1.129-0.85a0.8,0.8,0,0,1,.969-0.69,2.431,2.431,0,0,1,1.37.45l0.389-.58A2.794,2.794,0,0,0,730.16,1499.11Zm3.481,4.12a0.7,0.7,0,1,0,.7.69A0.685,0.685,0,0,0,733.641,1503.23Zm8.459-5.62h-0.949v6.89h3.668l0.11-.83H742.1v-6.06Zm7.959,4.1c0-1.61-.75-2.6-2.169-2.6-1.359,0-2.189,1.17-2.189,2.81,0,1.67.86,2.7,2.329,2.7a2.872,2.872,0,0,0,1.839-.66l-0.4-.55a2.218,2.218,0,0,1-1.369.46c-0.76,0-1.33-.47-1.42-1.69h3.359C750.049,1502.06,750.059,1501.89,750.059,1501.71Zm-0.91-.21H746.68c0.07-1.17.53-1.66,1.23-1.66,0.829,0,1.239.57,1.239,1.6v0.06Zm5.98,1.77v-2.41a1.6,1.6,0,0,0-1.849-1.75,5.15,5.15,0,0,0-1.819.36l0.23,0.67a4.706,4.706,0,0,1,1.419-.28,0.922,0.922,0,0,1,1.1,1.04v0.39H753.4c-1.47,0-2.319.61-2.319,1.74a1.532,1.532,0,0,0,1.679,1.59,1.794,1.794,0,0,0,1.569-.79,1.062,1.062,0,0,0,1.03.79l0.21-.64A0.624,0.624,0,0,1,755.129,1503.27Zm-2.159.66a0.831,0.831,0,0,1-.91-0.95c0-.72.49-1.08,1.46-1.08h0.689v1.21A1.353,1.353,0,0,1,752.97,1503.93Zm6.339-4.82a1.5,1.5,0,0,0-1.409,1.19l-0.09-1.07h-0.789v5.27h0.919v-3.01c0.22-1.01.6-1.48,1.259-1.48a1.653,1.653,0,0,1,.46.06l0.17-.9A2.242,2.242,0,0,0,759.309,1499.11Zm4.05,0a1.911,1.911,0,0,0-1.609.9l-0.08-.78h-0.79v5.27h0.92v-3.74a1.593,1.593,0,0,1,1.339-.93c0.51,0,.83.23,0.83,1.02v3.65h0.919v-3.78A1.441,1.441,0,0,0,763.359,1499.11Zm8.51,0a1.89,1.89,0,0,0-1.559.85v-2.94l-0.92.1v7.38h0.92v-3.75a1.613,1.613,0,0,1,1.329-.92c0.5,0,.84.23,0.84,1.02v3.65H773.4v-3.78A1.451,1.451,0,0,0,771.869,1499.11Zm5.36,0c-1.5,0-2.358,1.13-2.358,2.76,0,1.67.849,2.75,2.348,2.75s2.349-1.13,2.349-2.76C779.568,1500.19,778.729,1499.11,777.229,1499.11Zm0,0.74c0.87,0,1.35.64,1.35,2.01s-0.48,2.02-1.36,2.02-1.359-.64-1.359-2.01S776.35,1499.85,777.229,1499.85Zm9.778-.62h-0.879l-0.96,4.63-0.989-4.63h-1.03l-1.039,4.63-0.95-4.63h-0.919l1.229,5.27h1.22l0.949-4.44,0.92,4.44h1.249Zm-102.163,10.26a1.925,1.925,0,0,0-2.168,1.8c0,1.07.7,1.58,2.039,1.99,1.169,0.36,1.489.66,1.489,1.33a1.283,1.283,0,0,1-1.479,1.23,2.635,2.635,0,0,1-1.8-.7l-0.53.59a3.22,3.22,0,0,0,2.339.89c1.549,0,2.458-.84,2.458-2.04,0-1.32-.939-1.75-2.039-2.09-1.239-.38-1.509-0.66-1.509-1.24a1.055,1.055,0,0,1,1.239-.98,2.368,2.368,0,0,1,1.57.6l0.519-.58A2.9,2.9,0,0,0,684.844,1509.49Zm7.369,1.74h-0.949l-1.379,4.6-1.41-4.6H687.5l1.769,5.27h0.31a1.8,1.8,0,0,1-1.669,1.41l0.1,0.72a2.676,2.676,0,0,0,2.448-2.1Zm3.531-.12a1.911,1.911,0,0,0-1.609.9l-0.08-.78h-0.79v5.27h0.92v-3.74a1.593,1.593,0,0,1,1.339-.93c0.51,0,.83.23,0.83,1.02v3.65h0.919v-3.78A1.441,1.441,0,0,0,695.744,1511.11Zm5.3,0c-1.429,0-2.3,1.12-2.3,2.8,0,1.7.879,2.71,2.3,2.71a2.482,2.482,0,0,0,1.609-.58l-0.419-.6a1.957,1.957,0,0,1-1.15.4c-0.829,0-1.349-.57-1.349-1.95s0.52-2.02,1.349-2.02a1.8,1.8,0,0,1,1.13.39l0.439-.58A2.338,2.338,0,0,0,701.044,1511.11Zm11.528,0.12h-0.879l-0.96,4.63-0.989-4.63h-1.03l-1.039,4.63-0.95-4.63h-0.919l1.229,5.27h1.219l0.95-4.44,0.919,4.44h1.25Zm3.032-.12c-1.5,0-2.358,1.13-2.358,2.76,0,1.67.849,2.75,2.348,2.75s2.349-1.13,2.349-2.76C717.943,1512.19,717.1,1511.11,715.6,1511.11Zm0,0.74c0.87,0,1.35.64,1.35,2.01s-0.48,2.02-1.36,2.02-1.359-.64-1.359-2.01S714.725,1511.85,715.6,1511.85Zm6.15-.74a1.5,1.5,0,0,0-1.409,1.19l-0.09-1.07h-0.79v5.27h0.92v-3.01c0.22-1.01.6-1.48,1.259-1.48a1.653,1.653,0,0,1,.46.06l0.17-.9A2.242,2.242,0,0,0,721.754,1511.11Zm2.491-2.11-0.92.11v7.39h0.92V1509Zm3.028,2.23h-1.029l-1.939,2.39,2.089,2.88h1.1l-2.159-2.94Zm2.6-.12a1.669,1.669,0,0,0-1.9,1.45c0,0.74.45,1.23,1.59,1.53,1.019,0.27,1.279.47,1.279,0.99a0.931,0.931,0,0,1-1.129.8,2.39,2.39,0,0,1-1.48-.51l-0.489.56a2.917,2.917,0,0,0,1.988.69c1.07,0,2.079-.5,2.079-1.6,0-.92-0.639-1.36-1.749-1.64-0.849-.22-1.129-0.42-1.129-0.85a0.8,0.8,0,0,1,.969-0.69,2.431,2.431,0,0,1,1.37.45l0.389-.58A2.794,2.794,0,0,0,729.874,1511.11Zm3.481,4.12a0.7,0.7,0,1,0,.7.69A0.685,0.685,0,0,0,733.355,1515.23Z" transform="translate(-607.5 -1433.5)"/>
  <path id="Reset_password-2" data-name="Reset password" class="cls-2" d="M666.812,1457.57h2.129l-2.535-4.22a2.59,2.59,0,0,0,1.961-2.62c0-1.91-1.3-2.84-3.838-2.84h-2.886v9.68h1.849v-3.88h1.177Zm-3.32-8.33h1c1.345,0,1.947.44,1.947,1.49,0,1.17-.644,1.63-1.793,1.63h-1.149v-3.12Zm12.239,4.45c0-2.34-1.191-3.74-3.264-3.74-2.1,0-3.292,1.71-3.292,3.96,0,2.34,1.233,3.87,3.53,3.87a4.305,4.305,0,0,0,2.746-.99l-0.743-1.03a3.071,3.071,0,0,1-1.849.66c-0.98,0-1.681-.49-1.821-2h4.651C675.7,1454.22,675.731,1453.93,675.731,1453.69Zm-1.779-.43h-2.914c0.1-1.48.63-2.04,1.471-2.04,1.008,0,1.443.73,1.443,1.95v0.09Zm5.416-3.31c-1.723,0-2.857.92-2.857,2.16,0,1.09.672,1.82,2.2,2.24,1.387,0.39,1.681.59,1.681,1.2a1.083,1.083,0,0,1-1.317.9,3.313,3.313,0,0,1-2.017-.73l-0.9,1.01a4.317,4.317,0,0,0,2.955,1.05c1.7,0,3.124-.81,3.124-2.35,0-1.32-.854-1.94-2.367-2.34-1.261-.35-1.555-0.58-1.555-1.07,0-.45.406-0.74,1.121-0.74a3.39,3.39,0,0,1,1.862.6l0.7-1.05A4.206,4.206,0,0,0,679.368,1449.95Zm10.054,3.74c0-2.34-1.19-3.74-3.263-3.74-2.1,0-3.292,1.71-3.292,3.96,0,2.34,1.233,3.87,3.53,3.87a4.3,4.3,0,0,0,2.745-.99l-0.742-1.03a3.073,3.073,0,0,1-1.849.66c-0.981,0-1.681-.49-1.821-2h4.65C689.394,1454.22,689.422,1453.93,689.422,1453.69Zm-1.779-.43H684.73c0.1-1.48.63-2.04,1.471-2.04,1.008,0,1.442.73,1.442,1.95v0.09Zm6.692,2.8a1.717,1.717,0,0,1-.883.28c-0.546,0-.784-0.3-0.784-1.03v-3.86h1.541l0.182-1.29h-1.723v-1.85l-1.793.21v1.64h-1.163v1.29h1.163v3.91c0,1.58.77,2.41,2.227,2.42a3.225,3.225,0,0,0,1.863-.56Zm8.246-6.11a2.7,2.7,0,0,0-2.143,1.12l-0.1-.91h-1.569v10.46l1.793-.19v-3.46a2.36,2.36,0,0,0,1.863.81c1.877,0,2.928-1.67,2.928-3.94C705.355,1451.48,704.542,1449.95,702.581,1449.95Zm-0.658,6.46a1.564,1.564,0,0,1-1.359-.77v-3.34a1.844,1.844,0,0,1,1.485-1.01c0.924,0,1.428.69,1.428,2.57C703.477,1455.65,702.9,1456.41,701.923,1456.41Zm10.319-.8v-3.11c0-1.64-.869-2.55-2.844-2.55a7.642,7.642,0,0,0-2.689.53l0.42,1.22a6.667,6.667,0,0,1,1.961-.39,1.135,1.135,0,0,1,1.387,1.29v0.42h-0.925c-2.157,0-3.375.87-3.375,2.48a2.2,2.2,0,0,0,2.395,2.28,2.513,2.513,0,0,0,2.213-1.11,1.692,1.692,0,0,0,1.639,1.08l0.378-1.19A0.832,0.832,0,0,1,712.242,1455.61Zm-3.194.87a0.981,0.981,0,0,1-1.05-1.12c0-.87.574-1.29,1.736-1.29h0.743v1.5A1.581,1.581,0,0,1,709.048,1456.48Zm7.35-6.53c-1.723,0-2.858.92-2.858,2.16,0,1.09.673,1.82,2.2,2.24,1.386,0.39,1.681.59,1.681,1.2a1.084,1.084,0,0,1-1.317.9,3.311,3.311,0,0,1-2.017-.73l-0.9,1.01a4.319,4.319,0,0,0,2.956,1.05c1.7,0,3.123-.81,3.123-2.35,0-1.32-.854-1.94-2.367-2.34-1.26-.35-1.555-0.58-1.555-1.07,0-.45.407-0.74,1.121-0.74a3.394,3.394,0,0,1,1.863.6l0.7-1.05A4.2,4.2,0,0,0,716.4,1449.95Zm6.314,0c-1.723,0-2.858.92-2.858,2.16,0,1.09.673,1.82,2.2,2.24,1.386,0.39,1.68.59,1.68,1.2a1.083,1.083,0,0,1-1.316.9,3.311,3.311,0,0,1-2.017-.73l-0.9,1.01a4.319,4.319,0,0,0,2.956,1.05c1.695,0,3.123-.81,3.123-2.35,0-1.32-.854-1.94-2.367-2.34-1.26-.35-1.555-0.58-1.555-1.07,0-.45.407-0.74,1.121-0.74a3.394,3.394,0,0,1,1.863.6l0.7-1.05A4.2,4.2,0,0,0,722.712,1449.95Zm12.884,0.21h-1.723l-1.107,6.09-1.177-6.09h-1.835l-1.288,6.09-1.037-6.09h-1.793l1.639,7.41h2.2l1.149-5.81,1.121,5.81h2.241Zm3.762-.21c-2.2,0-3.5,1.58-3.5,3.91,0,2.44,1.3,3.92,3.488,3.92s3.488-1.58,3.488-3.92C742.832,1451.43,741.544,1449.95,739.358,1449.95Zm0,1.36c1.037,0,1.583.78,1.583,2.55s-0.546,2.56-1.6,2.56-1.6-.78-1.6-2.56C737.747,1452.11,738.308,1451.31,739.358,1451.31Zm8.457-1.35a2.086,2.086,0,0,0-1.933,1.66l-0.168-1.46h-1.555v7.41h1.793v-3.94c0.28-1.26.728-1.92,1.639-1.92a2.336,2.336,0,0,1,.658.09l0.308-1.74A2.569,2.569,0,0,0,747.815,1449.96Zm5.81-2.97v3.76a2.5,2.5,0,0,0-1.835-.8c-1.877,0-3.011,1.64-3.011,3.92,0,2.36.966,3.91,2.815,3.91a2.463,2.463,0,0,0,2.115-1.15l0.126,0.94h1.583v-10.38Zm-1.527,9.43c-0.882,0-1.428-.66-1.428-2.56,0-1.78.616-2.57,1.554-2.57a1.744,1.744,0,0,1,1.4.79v3.39A1.75,1.75,0,0,1,752.1,1456.42Z" transform="translate(-607.5 -1433.5)"/>
</svg>
