<svg id="Example_4a.svg" xmlns="http://www.w3.org/2000/svg" width="252.844" height="51.62" viewBox="0 0 252.844 51.62">
  <defs>
    <style>
      .cls-1 {
        fill: #2284e6;
        fill-rule: evenodd;
      }
    </style>
  </defs>
  <path id="Forget_password_When_you_reset_your_password_you_may_lose_any" data-name="Forget password? When you reset your password, you may lose any" class="cls-1" d="M574.661,3376.77h-4.69v8.29h1.584v-3.45h2.554v-1.18h-2.554v-2.48h2.938Zm3.181,1.77c-1.883,0-3,1.35-3,3.34,0,2.09,1.115,3.36,2.986,3.36s2.987-1.36,2.987-3.36C580.817,3379.81,579.713,3378.54,577.842,3378.54Zm0,1.16c0.888,0,1.355.67,1.355,2.18s-0.467,2.2-1.367,2.2-1.367-.68-1.367-2.2C576.463,3380.38,576.943,3379.7,577.842,3379.7Zm7.248-1.15a1.781,1.781,0,0,0-1.655,1.41l-0.144-1.24H581.96v6.34H583.5v-3.37c0.24-1.08.623-1.64,1.4-1.64a2.057,2.057,0,0,1,.564.07l0.264-1.49A2.2,2.2,0,0,0,585.09,3378.55Zm6.431-.72a5.172,5.172,0,0,1-2.963.71,2.341,2.341,0,0,0-2.626,2.27,1.852,1.852,0,0,0,1.115,1.79,1.433,1.433,0,0,0-.743,1.18c0,0.66.539,1.22,1.811,1.22h0.959c0.708,0,1.079.29,1.079,0.76,0,0.5-.359.84-1.6,0.84-1.259,0-1.535-.28-1.535-0.92h-1.379c0,1.27.636,1.99,2.89,1.99,2.075,0,3.167-.75,3.167-2.02,0-1.05-.912-1.8-2.315-1.8h-0.972c-0.635,0-.767-0.22-0.767-0.45a0.554,0.554,0,0,1,.264-0.46,2.624,2.624,0,0,0,.755.09c1.595,0,2.555-.9,2.555-2.13a1.663,1.663,0,0,0-1.151-1.63,5.629,5.629,0,0,0,1.835-.22Zm-2.939,1.75a1.036,1.036,0,0,1,1.152,1.2,1.085,1.085,0,0,1-1.128,1.26,1.1,1.1,0,0,1-1.127-1.25A1.077,1.077,0,0,1,588.582,3379.58Zm9.035,2.16c0-2.01-1.02-3.2-2.795-3.2-1.8,0-2.818,1.46-2.818,3.39,0,2,1.055,3.31,3.022,3.31a3.668,3.668,0,0,0,2.351-.85l-0.636-.88a2.606,2.606,0,0,1-1.583.57c-0.84,0-1.439-.42-1.559-1.72h3.982C597.593,3382.19,597.617,3381.94,597.617,3381.74Zm-1.524-.37H593.6c0.084-1.26.54-1.74,1.259-1.74,0.864,0,1.235.62,1.235,1.66v0.08Zm5.737,2.39a1.407,1.407,0,0,1-.756.24c-0.468,0-.672-0.25-0.672-0.87v-3.31h1.32l0.156-1.1H600.4v-1.59l-1.535.18v1.41h-1v1.1h1v3.34a1.791,1.791,0,0,0,1.907,2.08,2.8,2.8,0,0,0,1.6-.48Zm7.068-5.22a2.324,2.324,0,0,0-1.835.95l-0.084-.77h-1.344v8.95l1.535-.16v-2.97a2,2,0,0,0,1.6.7c1.607,0,2.506-1.43,2.506-3.37C611.272,3379.84,610.577,3378.54,608.9,3378.54Zm-0.564,5.52a1.331,1.331,0,0,1-1.164-.66v-2.85a1.57,1.57,0,0,1,1.272-.86c0.791,0,1.223.58,1.223,2.19C609.665,3383.42,609.173,3384.06,608.334,3384.06Zm8.843-.68v-2.66c0-1.4-.744-2.18-2.435-2.18a6.532,6.532,0,0,0-2.3.45l0.36,1.04a5.821,5.821,0,0,1,1.679-.33,0.968,0.968,0,0,1,1.187,1.1v0.36h-0.791c-1.847,0-2.89.75-2.89,2.12a1.883,1.883,0,0,0,2.05,1.96,2.165,2.165,0,0,0,1.895-.95,1.447,1.447,0,0,0,1.4.93l0.323-1.02A0.717,0.717,0,0,1,617.177,3383.38Zm-2.735.74a0.836,0.836,0,0,1-.9-0.96c0-.74.491-1.1,1.487-1.1h0.635v1.28A1.344,1.344,0,0,1,614.442,3384.12Zm6.3-5.58c-1.475,0-2.447.79-2.447,1.84,0,0.94.576,1.56,1.883,1.92,1.188,0.34,1.44.51,1.44,1.03a0.927,0.927,0,0,1-1.128.77,2.876,2.876,0,0,1-1.727-.62l-0.767.86a3.7,3.7,0,0,0,2.53.9c1.451,0,2.675-.7,2.675-2.02,0-1.12-.732-1.65-2.027-2-1.08-.3-1.331-0.49-1.331-0.91a0.781,0.781,0,0,1,.959-0.64,2.865,2.865,0,0,1,1.6.52l0.6-.9A3.553,3.553,0,0,0,620.742,3378.54Zm5.412,0c-1.475,0-2.447.79-2.447,1.84,0,0.94.576,1.56,1.883,1.92,1.188,0.34,1.44.51,1.44,1.03a0.927,0.927,0,0,1-1.128.77,2.874,2.874,0,0,1-1.727-.62l-0.767.86a3.7,3.7,0,0,0,2.53.9c1.451,0,2.675-.7,2.675-2.02,0-1.12-.732-1.65-2.027-2-1.08-.3-1.332-0.49-1.332-0.91a0.782,0.782,0,0,1,.96-0.64,2.865,2.865,0,0,1,1.595.52l0.6-.9A3.555,3.555,0,0,0,626.154,3378.54Zm11.037,0.18h-1.475l-0.948,5.21-1.007-5.21H632.19l-1.1,5.21-0.887-5.21h-1.535l1.4,6.34h1.883l0.983-4.98,0.96,4.98h1.919Zm3.231-.18c-1.883,0-3,1.35-3,3.34,0,2.09,1.116,3.36,2.987,3.36s2.986-1.36,2.986-3.36C643.4,3379.81,642.293,3378.54,640.422,3378.54Zm0,1.16c0.887,0,1.355.67,1.355,2.18s-0.468,2.2-1.367,2.2-1.368-.68-1.368-2.2C639.042,3380.38,639.522,3379.7,640.422,3379.7Zm7.247-1.15a1.782,1.782,0,0,0-1.655,1.41l-0.144-1.24h-1.331v6.34h1.535v-3.37c0.24-1.08.624-1.64,1.4-1.64a2.054,2.054,0,0,1,.563.07l0.264-1.49A2.2,2.2,0,0,0,647.669,3378.55Zm4.98-2.55v3.22a2.138,2.138,0,0,0-1.571-.68c-1.607,0-2.579,1.4-2.579,3.35,0,2.02.828,3.35,2.411,3.35a2.114,2.114,0,0,0,1.811-.98l0.108,0.8h1.355v-8.89Zm-1.307,8.08c-0.756,0-1.224-.57-1.224-2.2,0-1.52.528-2.19,1.332-2.19a1.486,1.486,0,0,1,1.2.67v2.9A1.506,1.506,0,0,1,651.342,3384.08Zm6.384-7.49a3.326,3.326,0,0,0-2.65,1.24l1,0.78a1.981,1.981,0,0,1,1.523-.79,0.86,0.86,0,0,1,1.008.84c0,1.12-1.991.95-1.991,3.01v0.46h1.427v-0.4c0-1.46,2.171-1.26,2.171-3.19C660.209,3377.52,659.369,3376.59,657.726,3376.59Zm-0.384,6.71a0.97,0.97,0,0,0,0,1.94A0.97,0.97,0,1,0,657.342,3383.3Zm-78.735,13.5h-1.044l-1.379,7.26-1.631-7.26h-1.211l-1.6,7.26-1.331-7.26H569.3l1.679,8.26h1.427l1.535-6.92,1.523,6.92h1.464Zm4.119,1.8a2.268,2.268,0,0,0-1.871,1.01v-3.52l-1.1.12v8.85h1.1v-4.5a1.928,1.928,0,0,1,1.6-1.1c0.6,0,1.007.27,1.007,1.22v4.38h1.1v-4.53A1.739,1.739,0,0,0,582.726,3398.6Zm8.531,3.11c0-1.93-.9-3.11-2.6-3.11-1.631,0-2.627,1.4-2.627,3.37,0,2,1.032,3.23,2.795,3.23a3.456,3.456,0,0,0,2.207-.79l-0.48-.66a2.62,2.62,0,0,1-1.643.55c-0.912,0-1.595-.56-1.7-2.02h4.03C591.245,3402.13,591.257,3401.93,591.257,3401.71Zm-1.092-.25H587.2c0.084-1.4.635-1.99,1.475-1.99,1,0,1.487.68,1.487,1.92v0.07Zm5.592-2.86a2.3,2.3,0,0,0-1.931,1.07l-0.1-.93h-0.948v6.32h1.1v-4.49a1.909,1.909,0,0,1,1.608-1.11c0.611,0,1,.27,1,1.22v4.38h1.1v-4.53A1.728,1.728,0,0,0,595.757,3398.6Zm11.279,0.14H605.9l-1.655,5.52-1.691-5.52h-1.175l2.122,6.32h0.372a2.15,2.15,0,0,1-2,1.69l0.12,0.86a3.207,3.207,0,0,0,2.939-2.51Zm3.158-.14c-1.8,0-2.831,1.35-2.831,3.31,0,2,1.02,3.29,2.819,3.29s2.818-1.35,2.818-3.31C613,3399.89,611.993,3398.6,610.194,3398.6Zm0,0.88c1.043,0,1.619.77,1.619,2.41,0,1.66-.576,2.43-1.631,2.43s-1.631-.77-1.631-2.41C608.551,3400.25,609.138,3399.48,610.194,3399.48Zm9.034-.74h-1.1v4.51a1.915,1.915,0,0,1-1.583,1.09c-0.684,0-.972-0.32-0.972-1.19v-4.41h-1.1v4.53a1.687,1.687,0,0,0,1.763,1.93,2.131,2.131,0,0,0,1.967-1.12l0.084,0.98h0.947v-6.32Zm7.609-.14a1.806,1.806,0,0,0-1.691,1.42l-0.108-1.28h-0.947v6.32h1.1v-3.61c0.264-1.21.72-1.78,1.511-1.78a1.905,1.905,0,0,1,.552.08l0.2-1.08A2.585,2.585,0,0,0,626.837,3398.6Zm6.239,3.11c0-1.93-.9-3.11-2.6-3.11-1.631,0-2.626,1.4-2.626,3.37,0,2,1.031,3.23,2.794,3.23a3.454,3.454,0,0,0,2.207-.79l-0.48-.66a2.619,2.619,0,0,1-1.643.55c-0.911,0-1.6-.56-1.7-2.02h4.03C633.064,3402.13,633.076,3401.93,633.076,3401.71Zm-1.091-.25h-2.963c0.084-1.4.636-1.99,1.475-1.99,1,0,1.488.68,1.488,1.92v0.07Zm4.333-2.86c-1.308,0-2.279.73-2.279,1.73,0,0.89.54,1.48,1.907,1.84,1.223,0.32,1.535.56,1.535,1.19a1.117,1.117,0,0,1-1.355.96,2.833,2.833,0,0,1-1.775-.62l-0.588.68a3.5,3.5,0,0,0,2.387.82c1.283,0,2.494-.6,2.494-1.92,0-1.1-.767-1.63-2.1-1.96-1.019-.27-1.355-0.51-1.355-1.02a0.961,0.961,0,0,1,1.164-.83,2.917,2.917,0,0,1,1.643.54l0.467-.69A3.33,3.33,0,0,0,636.318,3398.6Zm8.362,3.11c0-1.93-.9-3.11-2.6-3.11-1.631,0-2.626,1.4-2.626,3.37,0,2,1.031,3.23,2.794,3.23a3.454,3.454,0,0,0,2.207-.79l-0.48-.66a2.619,2.619,0,0,1-1.643.55c-0.911,0-1.595-.56-1.7-2.02h4.03C644.668,3402.13,644.68,3401.93,644.68,3401.71Zm-1.092-.25h-2.962c0.084-1.4.636-1.99,1.475-1.99,1,0,1.487.68,1.487,1.92v0.07Zm5.389,2.56a1.55,1.55,0,0,1-.84.27c-0.551,0-.755-0.3-0.755-0.93v-3.77h1.379l0.12-.85h-1.5v-1.56l-1.1.13v1.43h-1.1v0.85h1.1v3.81a1.587,1.587,0,0,0,1.7,1.8,2.4,2.4,0,0,0,1.416-.43Zm8.783-5.28h-1.14l-1.655,5.52-1.691-5.52H652.1l2.123,6.32h0.371a2.149,2.149,0,0,1-2,1.69l0.12,0.86a3.207,3.207,0,0,0,2.939-2.51Zm3.157-.14c-1.8,0-2.831,1.35-2.831,3.31,0,2,1.02,3.29,2.819,3.29s2.818-1.35,2.818-3.31C663.723,3399.89,662.716,3398.6,660.917,3398.6Zm0,0.88c1.043,0,1.619.77,1.619,2.41,0,1.66-.576,2.43-1.631,2.43s-1.631-.77-1.631-2.41C659.274,3400.25,659.861,3399.48,660.917,3399.48Zm9.034-.74h-1.1v4.51a1.913,1.913,0,0,1-1.583,1.09c-0.684,0-.972-0.32-0.972-1.19v-4.41h-1.1v4.53a1.687,1.687,0,0,0,1.763,1.93,2.13,2.13,0,0,0,1.967-1.12l0.084,0.98h0.947v-6.32Zm4.729-.14a1.806,1.806,0,0,0-1.691,1.42l-0.108-1.28h-0.947v6.32h1.1v-3.61c0.264-1.21.72-1.78,1.511-1.78a1.905,1.905,0,0,1,.552.08l0.2-1.08A2.585,2.585,0,0,0,674.68,3398.6Zm7.368,0a2.287,2.287,0,0,0-1.871.99l-0.084-.85h-0.947v8.87l1.1-.13v-3a2.017,2.017,0,0,0,1.655.72c1.631,0,2.483-1.39,2.483-3.31C684.387,3399.9,683.727,3398.6,682.048,3398.6Zm-0.408,5.7a1.625,1.625,0,0,1-1.391-.76v-3.09a1.93,1.93,0,0,1,1.523-.98c0.948,0,1.427.78,1.427,2.42C683.2,3403.55,682.648,3404.3,681.64,3404.3Zm8.591-.72v-2.89a1.922,1.922,0,0,0-2.218-2.09,6.133,6.133,0,0,0-2.183.43l0.276,0.8a5.548,5.548,0,0,1,1.7-.34,1.109,1.109,0,0,1,1.319,1.25v0.47h-0.972c-1.763,0-2.782.73-2.782,2.09a1.836,1.836,0,0,0,2.015,1.9,2.147,2.147,0,0,0,1.883-.94,1.27,1.27,0,0,0,1.235.94l0.252-.76A0.754,0.754,0,0,1,690.231,3403.58Zm-2.59.8a1,1,0,0,1-1.092-1.14c0-.87.588-1.3,1.751-1.3h0.828v1.45A1.631,1.631,0,0,1,687.641,3404.38Zm6.276-5.78c-1.308,0-2.279.73-2.279,1.73,0,0.89.54,1.48,1.907,1.84,1.223,0.32,1.535.56,1.535,1.19a1.117,1.117,0,0,1-1.355.96,2.833,2.833,0,0,1-1.775-.62l-0.588.68a3.5,3.5,0,0,0,2.387.82c1.283,0,2.494-.6,2.494-1.92,0-1.1-.767-1.63-2.1-1.96-1.019-.27-1.355-0.51-1.355-1.02a0.961,0.961,0,0,1,1.164-.83,2.917,2.917,0,0,1,1.643.54l0.467-.69A3.33,3.33,0,0,0,693.917,3398.6Zm5.3,0c-1.308,0-2.279.73-2.279,1.73,0,0.89.54,1.48,1.907,1.84,1.223,0.32,1.535.56,1.535,1.19a1.117,1.117,0,0,1-1.355.96,2.833,2.833,0,0,1-1.775-.62l-0.588.68a3.5,3.5,0,0,0,2.387.82c1.283,0,2.494-.6,2.494-1.92,0-1.1-.767-1.63-2.1-1.96-1.019-.27-1.355-0.51-1.355-1.02a0.961,0.961,0,0,1,1.164-.83,2.917,2.917,0,0,1,1.643.54l0.467-.69A3.33,3.33,0,0,0,699.221,3398.6Zm10.689,0.14h-1.056l-1.151,5.55-1.188-5.55H705.28l-1.247,5.55-1.14-5.55h-1.1l1.475,6.32h1.463l1.14-5.33,1.1,5.33h1.5Zm3.338-.14c-1.8,0-2.83,1.35-2.83,3.31,0,2,1.019,3.29,2.818,3.29s2.819-1.35,2.819-3.31C716.055,3399.89,715.047,3398.6,713.248,3398.6Zm0,0.88c1.044,0,1.619.77,1.619,2.41,0,1.66-.575,2.43-1.631,2.43s-1.631-.77-1.631-2.41C711.605,3400.25,712.193,3399.48,713.248,3399.48Zm7.08-.88a1.805,1.805,0,0,0-1.691,1.42l-0.108-1.28h-0.948v6.32h1.1v-3.61c0.264-1.21.719-1.78,1.511-1.78a1.905,1.905,0,0,1,.552.08l0.2-1.08A2.585,2.585,0,0,0,720.328,3398.6Zm5.255-2.54v3.32a2.246,2.246,0,0,0-1.7-.78c-1.547,0-2.482,1.4-2.482,3.33,0,1.97.851,3.27,2.386,3.27a2.1,2.1,0,0,0,1.823-1.02l0.108,0.88h0.972v-8.86Zm-1.559,8.27c-0.911,0-1.439-.76-1.439-2.42s0.588-2.44,1.535-2.44a1.8,1.8,0,0,1,1.463.83v3.09A1.81,1.81,0,0,1,724.024,3404.33Zm4.933-.79a0.818,0.818,0,0,0-.827.82,0.883,0.883,0,0,0,.335.7l-0.479,1.99h0.791l0.8-1.83a1.994,1.994,0,0,0,.216-0.86A0.822,0.822,0,0,0,728.957,3403.54Zm9.814-4.8h-1.14l-1.655,5.52-1.691-5.52H733.11l2.123,6.32H735.6a2.149,2.149,0,0,1-2,1.69l0.12,0.86a3.207,3.207,0,0,0,2.939-2.51Zm3.157-.14c-1.8,0-2.831,1.35-2.831,3.31,0,2,1.02,3.29,2.819,3.29s2.818-1.35,2.818-3.31C744.734,3399.89,743.727,3398.6,741.928,3398.6Zm0,0.88c1.043,0,1.619.77,1.619,2.41,0,1.66-.576,2.43-1.631,2.43s-1.631-.77-1.631-2.41C740.285,3400.25,740.872,3399.48,741.928,3399.48Zm9.034-.74h-1.1v4.51a1.913,1.913,0,0,1-1.583,1.09c-0.684,0-.972-0.32-0.972-1.19v-4.41h-1.1v4.53a1.687,1.687,0,0,0,1.763,1.93,2.13,2.13,0,0,0,1.967-1.12l0.084,0.98h0.947v-6.32Zm11.207-.14a2.192,2.192,0,0,0-1.883,1.13,1.6,1.6,0,0,0-1.595-1.13,2.119,2.119,0,0,0-1.823,1.06l-0.1-.92h-0.947v6.32h1.1v-4.49a1.775,1.775,0,0,1,1.487-1.11c0.48,0,.888.27,0.888,1.22v4.38h1.1v-4.49a1.79,1.79,0,0,1,1.488-1.11c0.479,0,.887.27,0.887,1.22v4.38h1.1v-4.53A1.712,1.712,0,0,0,762.169,3398.6Zm7.9,4.98v-2.89a1.922,1.922,0,0,0-2.218-2.09,6.133,6.133,0,0,0-2.183.43l0.276,0.8a5.548,5.548,0,0,1,1.7-.34,1.109,1.109,0,0,1,1.319,1.25v0.47h-0.971c-1.763,0-2.783.73-2.783,2.09a1.836,1.836,0,0,0,2.015,1.9,2.146,2.146,0,0,0,1.883-.94,1.27,1.27,0,0,0,1.235.94l0.252-.76A0.754,0.754,0,0,1,770.066,3403.58Zm-2.59.8a1,1,0,0,1-1.092-1.14c0-.87.588-1.3,1.752-1.3h0.827v1.45A1.63,1.63,0,0,1,767.476,3404.38Zm9.082-5.64h-1.139l-1.655,5.52-1.691-5.52H770.9l2.123,6.32h0.372a2.151,2.151,0,0,1-2,1.69l0.12,0.86a3.205,3.205,0,0,0,2.938-2.51Zm5.1,6.46a1.87,1.87,0,0,0,.875-0.21l-0.287-.77a1.04,1.04,0,0,1-.408.07c-0.288,0-.4-0.17-0.4-0.5v-7.73l-1.1.14v7.61A1.242,1.242,0,0,0,781.66,3405.2Zm4.211-6.6c-1.8,0-2.83,1.35-2.83,3.31,0,2,1.019,3.29,2.818,3.29s2.819-1.35,2.819-3.31C788.678,3399.89,787.67,3398.6,785.871,3398.6Zm0,0.88c1.044,0,1.619.77,1.619,2.41,0,1.66-.575,2.43-1.631,2.43s-1.631-.77-1.631-2.41C784.228,3400.25,784.816,3399.48,785.871,3399.48Zm6.049-.88c-1.308,0-2.279.73-2.279,1.73,0,0.89.54,1.48,1.907,1.84,1.223,0.32,1.535.56,1.535,1.19a1.117,1.117,0,0,1-1.355.96,2.836,2.836,0,0,1-1.775-.62l-0.588.68a3.5,3.5,0,0,0,2.387.82c1.283,0,2.494-.6,2.494-1.92,0-1.1-.767-1.63-2.1-1.96-1.02-.27-1.356-0.51-1.356-1.02a0.961,0.961,0,0,1,1.164-.83,2.917,2.917,0,0,1,1.643.54l0.468-.69A3.335,3.335,0,0,0,791.92,3398.6Zm8.362,3.11c0-1.93-.9-3.11-2.6-3.11-1.631,0-2.626,1.4-2.626,3.37,0,2,1.031,3.23,2.794,3.23a3.454,3.454,0,0,0,2.207-.79l-0.48-.66a2.619,2.619,0,0,1-1.643.55c-0.911,0-1.6-.56-1.7-2.02h4.03C800.27,3402.13,800.282,3401.93,800.282,3401.71Zm-1.091-.25h-2.963c0.084-1.4.636-1.99,1.475-1.99,1,0,1.488.68,1.488,1.92v0.07Zm9.755,2.12v-2.89a1.922,1.922,0,0,0-2.219-2.09,6.132,6.132,0,0,0-2.182.43l0.275,0.8a5.559,5.559,0,0,1,1.7-.34,1.109,1.109,0,0,1,1.32,1.25v0.47h-0.972c-1.763,0-2.782.73-2.782,2.09a1.836,1.836,0,0,0,2.015,1.9,2.147,2.147,0,0,0,1.883-.94,1.269,1.269,0,0,0,1.235.94l0.252-.76A0.754,0.754,0,0,1,808.946,3403.58Zm-2.59.8a1,1,0,0,1-1.092-1.14c0-.87.588-1.3,1.751-1.3h0.828v1.45A1.631,1.631,0,0,1,806.356,3404.38Zm7.535-5.78a2.3,2.3,0,0,0-1.931,1.07l-0.1-.93h-0.948v6.32h1.1v-4.49a1.908,1.908,0,0,1,1.607-1.11c0.612,0,1,.27,1,1.22v4.38h1.1v-4.53A1.729,1.729,0,0,0,813.891,3398.6Zm8.279,0.14h-1.14l-1.655,5.52-1.691-5.52h-1.175l2.123,6.32H819a2.151,2.151,0,0,1-2,1.69l0.12,0.86a3.206,3.206,0,0,0,2.938-2.51Zm-249.932,17.91c-1.523,0-2.6.89-2.6,2.16s0.839,1.9,2.446,2.39c1.4,0.43,1.787.79,1.787,1.59a1.54,1.54,0,0,1-1.775,1.48,3.194,3.194,0,0,1-2.159-.84l-0.635.71a3.865,3.865,0,0,0,2.806,1.06c1.859,0,2.951-1,2.951-2.44,0-1.59-1.128-2.1-2.447-2.51-1.487-.46-1.811-0.79-1.811-1.49a1.263,1.263,0,0,1,1.487-1.17,2.807,2.807,0,0,1,1.883.72l0.624-.7A3.5,3.5,0,0,0,572.238,3416.65Zm8.543,2.09h-1.139l-1.656,5.52-1.691-5.52H575.12l2.123,6.32h0.372a2.151,2.151,0,0,1-2,1.69l0.12,0.86a3.206,3.206,0,0,0,2.938-2.51Zm3.937-.14a2.3,2.3,0,0,0-1.931,1.07l-0.1-.93h-0.948v6.32h1.1v-4.49a1.908,1.908,0,0,1,1.607-1.11c0.612,0,1,.27,1,1.22v4.38h1.1v-4.53A1.729,1.729,0,0,0,584.718,3418.6Zm6.06,0c-1.715,0-2.758,1.34-2.758,3.35,0,2.04,1.055,3.25,2.758,3.25a3.008,3.008,0,0,0,1.931-.69l-0.5-.72a2.357,2.357,0,0,1-1.379.48c-1,0-1.619-.69-1.619-2.34s0.624-2.42,1.619-2.42a2.163,2.163,0,0,1,1.355.46l0.528-.69A2.814,2.814,0,0,0,590.778,3418.6Zm9.8-2.54v3.32a2.248,2.248,0,0,0-1.7-.78c-1.547,0-2.482,1.4-2.482,3.33,0,1.97.851,3.27,2.386,3.27a2.1,2.1,0,0,0,1.823-1.02l0.108,0.88h0.972v-8.86Zm-1.559,8.27c-0.911,0-1.439-.76-1.439-2.42s0.588-2.44,1.535-2.44a1.8,1.8,0,0,1,1.463.83v3.09A1.811,1.811,0,0,1,599.022,3424.33Zm8.9-.75v-2.89a1.922,1.922,0,0,0-2.219-2.09,6.137,6.137,0,0,0-2.183.43l0.276,0.8a5.554,5.554,0,0,1,1.7-.34,1.108,1.108,0,0,1,1.319,1.25v0.47H605.85c-1.763,0-2.782.73-2.782,2.09a1.835,1.835,0,0,0,2.014,1.9,2.145,2.145,0,0,0,1.883-.94,1.27,1.27,0,0,0,1.236.94l0.252-.76A0.754,0.754,0,0,1,607.925,3423.58Zm-2.591.8a1,1,0,0,1-1.091-1.14c0-.87.588-1.3,1.751-1.3h0.827v1.45A1.629,1.629,0,0,1,605.334,3424.38Zm7.332-.36a1.55,1.55,0,0,1-.84.27c-0.552,0-.756-0.3-0.756-0.93v-3.77h1.38l0.12-.85h-1.5v-1.56l-1.1.13v1.43h-1.1v0.85h1.1v3.81a1.587,1.587,0,0,0,1.7,1.8,2.39,2.39,0,0,0,1.415-.43Zm5.519-.44v-2.89a1.922,1.922,0,0,0-2.219-2.09,6.137,6.137,0,0,0-2.183.43l0.276,0.8a5.554,5.554,0,0,1,1.7-.34,1.108,1.108,0,0,1,1.319,1.25v0.47H616.11c-1.763,0-2.783.73-2.783,2.09a1.836,1.836,0,0,0,2.015,1.9,2.146,2.146,0,0,0,1.883-.94,1.27,1.27,0,0,0,1.236.94l0.251-.76A0.754,0.754,0,0,1,618.185,3423.58Zm-2.591.8a1,1,0,0,1-1.091-1.14c0-.87.587-1.3,1.751-1.3h0.827v1.45A1.63,1.63,0,0,1,615.594,3424.38Zm4.849-.84a0.83,0.83,0,1,0,.839.82A0.819,0.819,0,0,0,620.443,3423.54Z" transform="translate(-569.312 -3376)"/>
</svg>
