<svg id="Example_1a.svg" xmlns="http://www.w3.org/2000/svg" width="256.062" height="202.5" viewBox="0 0 256.062 202.5">
  <defs>
    <style>
      .cls-1, .cls-3 {
        fill: #2284e6;
      }

      .cls-1 {
        fill-rule: evenodd;
      }

      .cls-2 {
        fill: none;
        stroke: #2284e6;
        stroke-linejoin: round;
        stroke-width: 2px;
      }
    </style>
  </defs>
  <path id="Tracking_Protection_Tracking_is_when_companies_collect_informat" data-name="Tracking Protection Tracking is when companies collect informat" class="cls-1" d="M583.3,843.773h-6.153v1.259h2.231v7.028h1.6v-7.028h2.159Zm2.893,1.774a1.785,1.785,0,0,0-1.655,1.416l-0.144-1.248h-1.332v6.345H584.6v-3.37c0.24-1.08.623-1.643,1.4-1.643a2.136,2.136,0,0,1,.564.072l0.263-1.488A2.19,2.19,0,0,0,586.19,845.547Zm5.747,4.834v-2.663c0-1.4-.744-2.183-2.435-2.183a6.539,6.539,0,0,0-2.3.456l0.359,1.044a5.664,5.664,0,0,1,1.679-.336,0.972,0.972,0,0,1,1.188,1.1v0.36h-0.792c-1.847,0-2.89.744-2.89,2.123a1.884,1.884,0,0,0,2.051,1.955,2.161,2.161,0,0,0,1.9-.948,1.449,1.449,0,0,0,1.4.924l0.324-1.02A0.713,0.713,0,0,1,591.937,850.381Zm-2.734.743a0.839,0.839,0,0,1-.9-0.959c0-.744.492-1.1,1.487-1.1h0.636v1.283A1.356,1.356,0,0,1,589.2,851.124Zm6.851-5.589c-1.823,0-2.962,1.38-2.962,3.407s1.139,3.3,2.974,3.3a3.128,3.128,0,0,0,2.051-.732l-0.684-.971a2.2,2.2,0,0,1-1.283.455c-0.863,0-1.427-.539-1.427-2.074s0.54-2.171,1.427-2.171a2.028,2.028,0,0,1,1.283.455l0.684-.923A2.954,2.954,0,0,0,596.054,845.535Zm4.417-2.53-1.536.168v8.887h1.536v-9.055Zm3.8,2.71h-1.62l-2.122,2.879,2.182,3.466h1.763l-2.314-3.55ZM605.8,842.5a0.93,0.93,0,1,0,.971.936A0.92,0.92,0,0,0,605.8,842.5Zm0.78,3.214h-1.536v6.345h1.536v-6.345Zm4.931-.18a2.376,2.376,0,0,0-1.931,1.02l-0.12-.84h-1.332v6.345h1.536v-4.414a1.64,1.64,0,0,1,1.331-.959c0.48,0,.779.228,0.779,1.019v4.354h1.536v-4.593A1.71,1.71,0,0,0,611.51,845.535Zm8.423-.707a5.145,5.145,0,0,1-2.963.707,2.348,2.348,0,0,0-2.626,2.279,1.848,1.848,0,0,0,1.115,1.787,1.433,1.433,0,0,0-.744,1.175c0,0.66.54,1.224,1.811,1.224h0.96c0.707,0,1.079.288,1.079,0.756,0,0.5-.36.839-1.6,0.839-1.259,0-1.535-.276-1.535-0.911h-1.379c0,1.271.635,1.99,2.89,1.99,2.075,0,3.166-.755,3.166-2.026,0-1.044-.911-1.8-2.314-1.8h-0.972c-0.635,0-.767-0.216-0.767-0.444a0.578,0.578,0,0,1,.263-0.468,2.561,2.561,0,0,0,.756.1c1.6,0,2.555-.9,2.555-2.135a1.67,1.67,0,0,0-1.152-1.631,5.689,5.689,0,0,0,1.835-.216Zm-2.939,1.751a1.037,1.037,0,0,1,1.151,1.2,1.081,1.081,0,0,1-1.127,1.259,1.1,1.1,0,0,1-1.127-1.247A1.076,1.076,0,0,1,616.994,846.579Zm9.144-2.806h-2.447v8.287h1.583v-2.891h0.972c1.871,0,3.25-.851,3.25-2.758C629.5,844.624,628.225,843.773,626.138,843.773Zm-0.012,4.209h-0.852v-3.046h0.852c1.079,0,1.715.432,1.715,1.475C627.841,847.622,627.181,847.982,626.126,847.982Zm7.439-2.435a1.786,1.786,0,0,0-1.655,1.416l-0.144-1.248h-1.331v6.345h1.535v-3.37c0.24-1.08.624-1.643,1.4-1.643a2.136,2.136,0,0,1,.564.072l0.264-1.488A2.2,2.2,0,0,0,633.565,845.547Zm3.769-.012c-1.883,0-3,1.356-3,3.347,0,2.086,1.116,3.358,2.987,3.358s2.986-1.356,2.986-3.358C640.308,846.807,639.205,845.535,637.334,845.535Zm0,1.164c0.887,0,1.355.671,1.355,2.183s-0.468,2.194-1.367,2.194-1.368-.671-1.368-2.194C635.954,847.382,636.434,846.7,637.334,846.7Zm7.211,4.065a1.413,1.413,0,0,1-.755.24c-0.468,0-.672-0.251-0.672-0.875v-3.31h1.319l0.156-1.1h-1.475v-1.583l-1.535.18v1.4h-1v1.1h1v3.346a1.79,1.79,0,0,0,1.907,2.075,2.773,2.773,0,0,0,1.6-.48Zm6.191-2.026c0-2-1.019-3.2-2.794-3.2-1.8,0-2.819,1.464-2.819,3.394,0,2,1.056,3.311,3.023,3.311a3.644,3.644,0,0,0,2.35-.852l-0.635-.875a2.643,2.643,0,0,1-1.583.563c-0.84,0-1.44-.419-1.559-1.715H650.7C650.712,849.194,650.736,848.942,650.736,848.738Zm-1.523-.372h-2.494c0.083-1.259.539-1.739,1.259-1.739,0.863,0,1.235.624,1.235,1.667v0.072Zm5.2-2.831c-1.823,0-2.963,1.38-2.963,3.407s1.14,3.3,2.975,3.3a3.125,3.125,0,0,0,2.05-.732l-0.683-.971a2.206,2.206,0,0,1-1.284.455c-0.863,0-1.427-.539-1.427-2.074s0.54-2.171,1.427-2.171a2.033,2.033,0,0,1,1.284.455l0.683-.923A2.951,2.951,0,0,0,654.41,845.535Zm5.975,5.229a1.415,1.415,0,0,1-.755.24c-0.468,0-.672-0.251-0.672-0.875v-3.31h1.319l0.156-1.1h-1.475v-1.583l-1.535.18v1.4h-1v1.1h1v3.346a1.79,1.79,0,0,0,1.907,2.075,2.773,2.773,0,0,0,1.595-.48Zm1.862-8.263a0.93,0.93,0,1,0,.971.936A0.921,0.921,0,0,0,662.247,842.5Zm0.779,3.214h-1.535v6.345h1.535v-6.345Zm4.139-.18c-1.882,0-3,1.356-3,3.347,0,2.086,1.116,3.358,2.986,3.358s2.987-1.356,2.987-3.358C670.14,846.807,669.036,845.535,667.165,845.535Zm0,1.164c0.888,0,1.356.671,1.356,2.183s-0.468,2.194-1.368,2.194-1.367-.671-1.367-2.194C665.786,847.382,666.266,846.7,667.165,846.7Zm7.5-1.164a2.378,2.378,0,0,0-1.931,1.02l-0.12-.84h-1.331v6.345h1.535v-4.414a1.642,1.642,0,0,1,1.331-.959c0.48,0,.78.228,0.78,1.019v4.354h1.535v-4.593A1.71,1.71,0,0,0,674.665,845.535ZM583.081,863.8h-5.9v0.972h2.351v7.292h1.139v-7.292h2.291Zm2.749,1.8a1.8,1.8,0,0,0-1.691,1.428l-0.108-1.284h-0.947v6.321h1.1v-3.61c0.264-1.211.72-1.775,1.511-1.775a1.984,1.984,0,0,1,.552.072l0.2-1.08A2.745,2.745,0,0,0,585.83,865.6Zm5.6,4.99v-2.891a1.925,1.925,0,0,0-2.219-2.1,6.181,6.181,0,0,0-2.182.432l0.275,0.8a5.661,5.661,0,0,1,1.7-.336,1.106,1.106,0,0,1,1.319,1.247v0.468h-0.972c-1.763,0-2.782.731-2.782,2.087a1.837,1.837,0,0,0,2.015,1.907,2.154,2.154,0,0,0,1.883-.948,1.274,1.274,0,0,0,1.235.948l0.252-.768A0.749,0.749,0,0,1,591.433,870.585Zm-2.59.791a1,1,0,0,1-1.092-1.139c0-.864.588-1.3,1.751-1.3h0.828v1.452A1.624,1.624,0,0,1,588.843,871.376Zm6.863-5.781c-1.715,0-2.758,1.344-2.758,3.359,0,2.038,1.055,3.25,2.758,3.25a2.981,2.981,0,0,0,1.931-.7l-0.5-.72a2.343,2.343,0,0,1-1.379.48c-1,0-1.619-.683-1.619-2.338s0.624-2.423,1.619-2.423a2.159,2.159,0,0,1,1.355.468l0.528-.7A2.808,2.808,0,0,0,595.706,865.6Zm4.237-2.53-1.1.132v8.863h1.1v-8.995Zm3.634,2.674h-1.236l-2.326,2.867,2.506,3.454h1.32l-2.591-3.526Zm1.646-3.034a0.75,0.75,0,1,0,.78.756A0.734,0.734,0,0,0,605.223,862.705Zm0.564,3.034h-1.1v6.321h1.1v-6.321Zm4.955-.144a2.291,2.291,0,0,0-1.931,1.08l-0.1-.936h-0.948v6.321h1.1v-4.486a1.91,1.91,0,0,1,1.607-1.115c0.611,0,1,.276,1,1.223v4.378h1.1v-4.534A1.73,1.73,0,0,0,610.742,865.6Zm8.531-.563a5.435,5.435,0,0,1-2.891.563,2.254,2.254,0,0,0-2.434,2.207,1.808,1.808,0,0,0,1.067,1.751,1.373,1.373,0,0,0-.7,1.116c0,0.635.5,1.2,1.631,1.2h1c0.791,0,1.271.3,1.271,0.9,0,0.635-.48.983-1.847,0.983-1.391,0-1.715-.336-1.715-1.055h-1c0,1.283.647,1.919,2.71,1.919,1.955,0,2.963-.7,2.963-1.919a1.9,1.9,0,0,0-2.159-1.751h-1.008c-0.647,0-.827-0.228-0.827-0.516a0.762,0.762,0,0,1,.312-0.588,2.548,2.548,0,0,0,.8.12,2.152,2.152,0,0,0,2.411-2.147,1.666,1.666,0,0,0-1.116-1.595,6.15,6.15,0,0,0,1.847-.192Zm-2.891,1.355a1.226,1.226,0,0,1,1.355,1.4,1.256,1.256,0,0,1-1.331,1.439,1.28,1.28,0,0,1-1.331-1.427A1.265,1.265,0,0,1,616.382,866.387Zm7.477-3.682a0.75,0.75,0,1,0,.779.756A0.734,0.734,0,0,0,623.859,862.705Zm0.563,3.034h-1.1v6.321h1.1v-6.321Zm3.7-.144c-1.307,0-2.279.732-2.279,1.739,0,0.888.54,1.476,1.907,1.835,1.224,0.324,1.535.564,1.535,1.188a1.116,1.116,0,0,1-1.355.959,2.872,2.872,0,0,1-1.775-.611l-0.588.671a3.506,3.506,0,0,0,2.387.828c1.283,0,2.5-.6,2.5-1.919,0-1.1-.768-1.631-2.1-1.967-1.019-.264-1.355-0.5-1.355-1.02a0.962,0.962,0,0,1,1.163-.827,2.914,2.914,0,0,1,1.643.54l0.468-.7A3.355,3.355,0,0,0,628.118,865.6Zm13.689,0.144h-1.055l-1.152,5.553-1.187-5.553h-1.235l-1.248,5.553-1.139-5.553h-1.1l1.476,6.321h1.463l1.139-5.325,1.1,5.325h1.5Zm4.058-.144a2.27,2.27,0,0,0-1.871,1.02v-3.526l-1.1.12v8.851h1.1v-4.5a1.936,1.936,0,0,1,1.6-1.1c0.6,0,1.008.276,1.008,1.223v4.378h1.1v-4.534A1.741,1.741,0,0,0,645.865,865.6Zm8.531,3.119c0-1.931-.9-3.119-2.6-3.119-1.631,0-2.627,1.4-2.627,3.371,0,2,1.032,3.238,2.795,3.238a3.442,3.442,0,0,0,2.206-.792l-0.479-.659a2.666,2.666,0,0,1-1.643.551c-0.912,0-1.6-.563-1.7-2.027h4.029C654.384,869.133,654.4,868.93,654.4,868.714Zm-1.091-.252h-2.962c0.083-1.4.635-1.991,1.475-1.991,1,0,1.487.684,1.487,1.919v0.072ZM658.9,865.6a2.294,2.294,0,0,0-1.931,1.08l-0.1-.936h-0.947v6.321h1.1v-4.486a1.913,1.913,0,0,1,1.607-1.115c0.612,0,1,.276,1,1.223v4.378h1.1v-4.534A1.729,1.729,0,0,0,658.9,865.6Zm8.941,0c-1.716,0-2.759,1.344-2.759,3.359,0,2.038,1.055,3.25,2.759,3.25a2.978,2.978,0,0,0,1.93-.7l-0.5-.72a2.348,2.348,0,0,1-1.38.48c-1,0-1.619-.683-1.619-2.338s0.624-2.423,1.619-2.423a2.164,2.164,0,0,1,1.356.468l0.527-.7A2.806,2.806,0,0,0,667.838,865.6Zm5.387,0c-1.8,0-2.83,1.356-2.83,3.311,0,2,1.019,3.3,2.818,3.3s2.819-1.355,2.819-3.31C676.032,866.891,675.024,865.6,673.225,865.6Zm0,0.888c1.044,0,1.62.768,1.62,2.411s-0.576,2.422-1.632,2.422-1.631-.767-1.631-2.41S672.17,866.483,673.225,866.483ZM683.9,865.6a2.193,2.193,0,0,0-1.883,1.14,1.593,1.593,0,0,0-1.6-1.14,2.113,2.113,0,0,0-1.823,1.068l-0.1-.924h-0.947v6.321h1.1v-4.486a1.779,1.779,0,0,1,1.487-1.115c0.48,0,.888.276,0.888,1.223v4.378h1.1v-4.486a1.794,1.794,0,0,1,1.487-1.115c0.48,0,.888.276,0.888,1.223v4.378h1.1v-4.534A1.715,1.715,0,0,0,683.9,865.6Zm6.542,0a2.3,2.3,0,0,0-1.871,1l-0.084-.852h-0.947v8.876l1.1-.133v-3a2.04,2.04,0,0,0,1.655.72c1.631,0,2.483-1.391,2.483-3.31C692.784,866.9,692.124,865.6,690.445,865.6Zm-0.408,5.709a1.629,1.629,0,0,1-1.391-.767v-3.083a1.926,1.926,0,0,1,1.523-.983c0.948,0,1.428.78,1.428,2.423S691.045,871.3,690.037,871.3Zm8.591-.719v-2.891a1.924,1.924,0,0,0-2.219-2.1,6.181,6.181,0,0,0-2.182.432l0.276,0.8a5.65,5.65,0,0,1,1.7-.336,1.106,1.106,0,0,1,1.319,1.247v0.468h-0.972c-1.763,0-2.782.731-2.782,2.087a1.838,1.838,0,0,0,2.015,1.907,2.154,2.154,0,0,0,1.883-.948,1.274,1.274,0,0,0,1.235.948l0.252-.768A0.749,0.749,0,0,1,698.628,870.585Zm-2.59.791a1,1,0,0,1-1.092-1.139c0-.864.588-1.3,1.751-1.3h0.828v1.452A1.624,1.624,0,0,1,696.038,871.376Zm7.535-5.781a2.292,2.292,0,0,0-1.931,1.08l-0.1-.936H700.6v6.321h1.1v-4.486a1.912,1.912,0,0,1,1.607-1.115c0.612,0,1,.276,1,1.223v4.378h1.1v-4.534A1.73,1.73,0,0,0,703.573,865.6Zm4.3-2.89a0.75,0.75,0,1,0,.78.756A0.733,0.733,0,0,0,707.87,862.705Zm0.564,3.034h-1.1v6.321h1.1v-6.321Zm6.754,2.975c0-1.931-.9-3.119-2.6-3.119-1.631,0-2.626,1.4-2.626,3.371,0,2,1.031,3.238,2.794,3.238a3.444,3.444,0,0,0,2.207-.792l-0.48-.659a2.662,2.662,0,0,1-1.643.551c-0.911,0-1.6-.563-1.7-2.027h4.03C715.176,869.133,715.188,868.93,715.188,868.714Zm-1.092-.252h-2.962c0.084-1.4.636-1.991,1.475-1.991,1,0,1.487.684,1.487,1.919v0.072Zm4.333-2.867c-1.307,0-2.278.732-2.278,1.739,0,0.888.539,1.476,1.907,1.835,1.223,0.324,1.535.564,1.535,1.188a1.117,1.117,0,0,1-1.356.959,2.872,2.872,0,0,1-1.775-.611l-0.587.671a3.5,3.5,0,0,0,2.387.828c1.283,0,2.494-.6,2.494-1.919,0-1.1-.768-1.631-2.1-1.967-1.019-.264-1.355-0.5-1.355-1.02a0.963,0.963,0,0,1,1.163-.827,2.912,2.912,0,0,1,1.643.54l0.468-.7A3.353,3.353,0,0,0,718.429,865.6Zm8.772,0c-1.715,0-2.759,1.344-2.759,3.359,0,2.038,1.056,3.25,2.759,3.25a2.981,2.981,0,0,0,1.931-.7l-0.5-.72a2.346,2.346,0,0,1-1.379.48c-1,0-1.619-.683-1.619-2.338s0.624-2.423,1.619-2.423a2.161,2.161,0,0,1,1.355.468l0.528-.7A2.808,2.808,0,0,0,727.2,865.6Zm5.388,0c-1.8,0-2.83,1.356-2.83,3.311,0,2,1.019,3.3,2.818,3.3s2.818-1.355,2.818-3.31C735.4,866.891,734.388,865.6,732.589,865.6Zm0,0.888c1.043,0,1.619.768,1.619,2.411s-0.576,2.422-1.631,2.422-1.631-.767-1.631-2.41S731.534,866.483,732.589,866.483Zm5.593,5.721a1.854,1.854,0,0,0,.875-0.216l-0.288-.768a1.076,1.076,0,0,1-.408.072c-0.287,0-.395-0.168-0.395-0.5v-7.723l-1.1.132v7.616A1.244,1.244,0,0,0,738.182,872.2Zm3.216,0a1.854,1.854,0,0,0,.875-0.216l-0.288-.768a1.075,1.075,0,0,1-.407.072c-0.288,0-.4-0.168-0.4-0.5v-7.723l-1.1.132v7.616A1.244,1.244,0,0,0,741.4,872.2Zm6.61-3.49c0-1.931-.9-3.119-2.6-3.119-1.631,0-2.626,1.4-2.626,3.371,0,2,1.031,3.238,2.794,3.238a3.444,3.444,0,0,0,2.207-.792l-0.48-.659a2.664,2.664,0,0,1-1.643.551c-0.912,0-1.6-.563-1.7-2.027h4.03C748,869.133,748.008,868.93,748.008,868.714Zm-1.092-.252h-2.962c0.084-1.4.636-1.991,1.475-1.991,1,0,1.487.684,1.487,1.919v0.072Zm4.921-2.867c-1.715,0-2.759,1.344-2.759,3.359,0,2.038,1.056,3.25,2.759,3.25a2.983,2.983,0,0,0,1.931-.7l-0.5-.72a2.346,2.346,0,0,1-1.379.48c-1,0-1.619-.683-1.619-2.338s0.623-2.423,1.619-2.423a2.161,2.161,0,0,1,1.355.468l0.528-.7A2.81,2.81,0,0,0,751.837,865.6Zm5.9,5.421a1.545,1.545,0,0,1-.84.276c-0.552,0-.756-0.3-0.756-0.935v-3.766h1.38l0.12-.852h-1.5V864.18l-1.1.132v1.427h-1.1v0.852h1.1v3.814a1.588,1.588,0,0,0,1.7,1.8,2.4,2.4,0,0,0,1.415-.432Zm4.681-8.311a0.75,0.75,0,1,0,.779.756A0.734,0.734,0,0,0,762.422,862.705Zm0.563,3.034h-1.1v6.321h1.1v-6.321Zm4.955-.144a2.294,2.294,0,0,0-1.931,1.08l-0.1-.936h-0.947v6.321h1.1v-4.486a1.913,1.913,0,0,1,1.608-1.115c0.611,0,1,.276,1,1.223v4.378h1.1v-4.534A1.729,1.729,0,0,0,767.94,865.6Zm5.9-1.643a2.7,2.7,0,0,1,1.1.24l0.348-.8a3.486,3.486,0,0,0-1.511-.324,1.762,1.762,0,0,0-1.979,1.811v0.863h-1.127v0.852h1.127v5.469h1.1v-5.469h1.416l0.119-.852h-1.535v-0.875A0.789,0.789,0,0,1,773.845,863.952Zm3.828,1.643c-1.8,0-2.831,1.356-2.831,3.311,0,2,1.02,3.3,2.819,3.3s2.818-1.355,2.818-3.31C780.479,866.891,779.472,865.6,777.673,865.6Zm0,0.888c1.043,0,1.619.768,1.619,2.411s-0.576,2.422-1.631,2.422-1.631-.767-1.631-2.41S776.617,866.483,777.673,866.483Zm7.079-.888a1.805,1.805,0,0,0-1.691,1.428l-0.108-1.284h-0.947v6.321h1.1v-3.61c0.264-1.211.72-1.775,1.512-1.775a1.981,1.981,0,0,1,.551.072l0.2-1.08A2.745,2.745,0,0,0,784.752,865.6Zm7.93,0a2.193,2.193,0,0,0-1.883,1.14,1.593,1.593,0,0,0-1.6-1.14,2.113,2.113,0,0,0-1.823,1.068l-0.1-.924h-0.947v6.321h1.1v-4.486a1.779,1.779,0,0,1,1.487-1.115c0.48,0,.888.276,0.888,1.223v4.378h1.1v-4.486a1.794,1.794,0,0,1,1.487-1.115c0.48,0,.888.276,0.888,1.223v4.378h1.1v-4.534A1.715,1.715,0,0,0,792.682,865.6Zm7.9,4.99v-2.891a1.924,1.924,0,0,0-2.218-2.1,6.182,6.182,0,0,0-2.183.432l0.276,0.8a5.65,5.65,0,0,1,1.7-.336,1.106,1.106,0,0,1,1.319,1.247v0.468h-0.971c-1.763,0-2.783.731-2.783,2.087a1.838,1.838,0,0,0,2.015,1.907,2.153,2.153,0,0,0,1.883-.948,1.274,1.274,0,0,0,1.235.948l0.252-.768A0.749,0.749,0,0,1,800.579,870.585Zm-2.59.791a1,1,0,0,1-1.092-1.139c0-.864.588-1.3,1.751-1.3h0.828v1.452A1.624,1.624,0,0,1,797.989,871.376Zm7.331-.36a1.545,1.545,0,0,1-.839.276c-0.552,0-.756-0.3-0.756-0.935v-3.766H805.1l0.12-.852h-1.5V864.18l-1.1.132v1.427h-1.1v0.852h1.1v3.814a1.588,1.588,0,0,0,1.7,1.8,2.41,2.41,0,0,0,1.415-.432Zm1.8-8.311a0.75,0.75,0,1,0,.78.756A0.734,0.734,0,0,0,807.121,862.705Zm0.564,3.034h-1.1v6.321h1.1v-6.321Zm4.355-.144c-1.8,0-2.83,1.356-2.83,3.311,0,2,1.019,3.3,2.818,3.3s2.819-1.355,2.819-3.31C814.847,866.891,813.839,865.6,812.04,865.6Zm0,0.888c1.044,0,1.619.768,1.619,2.411s-0.575,2.422-1.631,2.422-1.631-.767-1.631-2.41S810.985,866.483,812.04,866.483Zm7.308-.888a2.292,2.292,0,0,0-1.931,1.08l-0.1-.936h-0.948v6.321h1.1v-4.486a1.912,1.912,0,0,1,1.607-1.115c0.612,0,1,.276,1,1.223v4.378h1.1v-4.534A1.73,1.73,0,0,0,819.348,865.6ZM582.4,890.585v-2.891a1.925,1.925,0,0,0-2.219-2.1,6.19,6.19,0,0,0-2.183.432l0.276,0.8a5.661,5.661,0,0,1,1.7-.336,1.107,1.107,0,0,1,1.32,1.247v0.468h-0.972c-1.763,0-2.782.731-2.782,2.087a1.837,1.837,0,0,0,2.015,1.907,2.154,2.154,0,0,0,1.883-.948,1.273,1.273,0,0,0,1.235.948l0.252-.768A0.749,0.749,0,0,1,582.4,890.585Zm-2.591.791a1,1,0,0,1-1.091-1.139c0-.864.588-1.3,1.751-1.3h0.828v1.452A1.624,1.624,0,0,1,579.806,891.376Zm7.452-5.781a2.13,2.13,0,0,0-1.787.936v-3.466l-1.1.132v8.863h0.972l0.108-.7a2.1,2.1,0,0,0,1.679.84c1.535,0,2.482-1.331,2.482-3.31C589.608,886.783,588.685,885.6,587.258,885.6Zm-0.4,5.733a1.7,1.7,0,0,1-1.391-.851v-3.023a1.792,1.792,0,0,1,1.475-.983c0.887,0,1.475.624,1.475,2.423C588.421,890.621,587.785,891.328,586.862,891.328Zm6.708-5.733c-1.8,0-2.831,1.356-2.831,3.311,0,2,1.02,3.3,2.819,3.3s2.818-1.355,2.818-3.31C596.376,886.891,595.369,885.6,593.57,885.6Zm0,0.888c1.043,0,1.619.768,1.619,2.411s-0.576,2.422-1.631,2.422-1.631-.767-1.631-2.41S592.514,886.483,593.57,886.483Zm9.035-.744h-1.1v4.51a1.9,1.9,0,0,1-1.583,1.091c-0.684,0-.971-0.324-0.971-1.187v-4.414h-1.1v4.534a1.69,1.69,0,0,0,1.763,1.931,2.122,2.122,0,0,0,1.967-1.128l0.084,0.984h0.948v-6.321Zm4.753,5.277a1.545,1.545,0,0,1-.84.276c-0.552,0-.756-0.3-0.756-0.935v-3.766h1.38l0.12-.852h-1.5V884.18l-1.1.132v1.427h-1.1v0.852h1.1v3.814a1.588,1.588,0,0,0,1.7,1.8,2.4,2.4,0,0,0,1.415-.432Zm8.782-5.277H615l-1.655,5.517-1.691-5.517h-1.176l2.123,6.321h0.372a2.154,2.154,0,0,1-2,1.691l0.12,0.863a3.212,3.212,0,0,0,2.939-2.518Zm3.157-.144c-1.8,0-2.83,1.356-2.83,3.311,0,2,1.019,3.3,2.818,3.3s2.819-1.355,2.819-3.31C622.1,886.891,621.1,885.6,619.3,885.6Zm0,0.888c1.044,0,1.62.768,1.62,2.411s-0.576,2.422-1.632,2.422-1.631-.767-1.631-2.41S618.242,886.483,619.3,886.483Zm9.035-.744h-1.1v4.51a1.906,1.906,0,0,1-1.583,1.091c-0.684,0-.972-0.324-0.972-1.187v-4.414h-1.1v4.534a1.69,1.69,0,0,0,1.763,1.931,2.123,2.123,0,0,0,1.967-1.128l0.084,0.984h0.947v-6.321Zm7.633,5.277a1.545,1.545,0,0,1-.839.276c-0.552,0-.756-0.3-0.756-0.935v-3.766h1.379l0.12-.852h-1.5V884.18l-1.1.132v1.427h-1.1v0.852h1.1v3.814a1.588,1.588,0,0,0,1.7,1.8,2.41,2.41,0,0,0,1.415-.432Zm3.516-5.421c-1.8,0-2.83,1.356-2.83,3.311,0,2,1.019,3.3,2.818,3.3s2.819-1.355,2.819-3.31C642.288,886.891,641.28,885.6,639.481,885.6Zm0,0.888c1.044,0,1.619.768,1.619,2.411s-0.575,2.422-1.631,2.422-1.631-.767-1.631-2.41S638.426,886.483,639.481,886.483Zm10.1-.888a2.131,2.131,0,0,0-1.787.936v-3.466l-1.1.132v8.863h0.971l0.108-.7a2.1,2.1,0,0,0,1.679.84c1.535,0,2.483-1.331,2.483-3.31C651.936,886.783,651.012,885.6,649.585,885.6Zm-0.4,5.733a1.7,1.7,0,0,1-1.391-.851v-3.023a1.794,1.794,0,0,1,1.475-.983c0.888,0,1.475.624,1.475,2.423C650.748,890.621,650.113,891.328,649.189,891.328Zm9.035-5.589h-1.1v4.51a1.906,1.906,0,0,1-1.584,1.091c-0.683,0-.971-0.324-0.971-1.187v-4.414h-1.1v4.534a1.69,1.69,0,0,0,1.763,1.931,2.121,2.121,0,0,0,1.966-1.128l0.084,0.984h0.948v-6.321Zm2.522-3.034a0.75,0.75,0,1,0,.78.756A0.734,0.734,0,0,0,660.746,882.705Zm0.564,3.034h-1.1v6.321h1.1v-6.321Zm3.24,6.465a1.854,1.854,0,0,0,.875-0.216l-0.288-.768a1.075,1.075,0,0,1-.407.072c-0.288,0-.4-0.168-0.4-0.5v-7.723l-1.1.132v7.616A1.244,1.244,0,0,0,664.55,892.2Zm5.626-9.139v3.31a2.267,2.267,0,0,0-1.7-.78c-1.547,0-2.482,1.4-2.482,3.335,0,1.966.851,3.274,2.386,3.274a2.113,2.113,0,0,0,1.823-1.02l0.108,0.876h0.972V883.2Zm-1.559,8.263c-0.911,0-1.439-.755-1.439-2.422,0-1.643.588-2.435,1.535-2.435a1.814,1.814,0,0,1,1.463.827v3.1A1.811,1.811,0,0,1,668.617,891.328Zm11.783-.743v-2.891a1.925,1.925,0,0,0-2.219-2.1,6.19,6.19,0,0,0-2.183.432l0.276,0.8a5.655,5.655,0,0,1,1.7-.336,1.107,1.107,0,0,1,1.32,1.247v0.468h-0.972c-1.763,0-2.782.731-2.782,2.087a1.837,1.837,0,0,0,2.014,1.907,2.152,2.152,0,0,0,1.883-.948,1.275,1.275,0,0,0,1.236.948l0.252-.768A0.749,0.749,0,0,1,680.4,890.585Zm-2.591.791a1,1,0,0,1-1.091-1.139c0-.864.588-1.3,1.751-1.3H679.3v1.452A1.624,1.624,0,0,1,677.809,891.376Zm10.344-5.781a2.3,2.3,0,0,0-1.871,1l-0.084-.852H685.25v8.875l1.1-.132v-3a2.038,2.038,0,0,0,1.655.72c1.631,0,2.482-1.391,2.482-3.31C690.491,886.9,689.832,885.6,688.153,885.6Zm-0.408,5.709a1.627,1.627,0,0,1-1.391-.767v-3.083a1.923,1.923,0,0,1,1.523-.983c0.947,0,1.427.78,1.427,2.423S688.752,891.3,687.745,891.3Zm7.08-5.709a1.8,1.8,0,0,0-1.691,1.428l-0.109-1.284h-0.947v6.321h1.1v-3.61c0.264-1.211.72-1.775,1.512-1.775a1.981,1.981,0,0,1,.551.072l0.2-1.08A2.688,2.688,0,0,0,694.825,885.6Zm3.84,0c-1.8,0-2.831,1.356-2.831,3.311,0,2,1.02,3.3,2.819,3.3s2.818-1.355,2.818-3.31C701.471,886.891,700.464,885.6,698.665,885.6Zm0,0.888c1.043,0,1.619.768,1.619,2.411s-0.576,2.422-1.631,2.422-1.631-.767-1.631-2.41S697.609,886.483,698.665,886.483Zm6.5-3.418c-1.535,0-2.183.779-2.183,1.847v0.827h-1.007v0.852h1.007v5.469h1.1v-5.469h2.423v5.469h1.1v-6.321h-3.526V884.9c0-.6.228-0.936,1.116-0.936a3.017,3.017,0,0,1,1.331.3l0.384-.767A3.637,3.637,0,0,0,705.169,883.065Zm5.688,9.139a1.855,1.855,0,0,0,.876-0.216l-0.288-.768a1.076,1.076,0,0,1-.408.072c-0.288,0-.4-0.168-0.4-0.5v-7.723l-1.1.132v7.616A1.244,1.244,0,0,0,710.857,892.2Zm6.61-3.49c0-1.931-.9-3.119-2.6-3.119-1.631,0-2.627,1.4-2.627,3.371,0,2,1.032,3.238,2.795,3.238a3.442,3.442,0,0,0,2.206-.792l-0.479-.659a2.666,2.666,0,0,1-1.643.551c-0.912,0-1.595-.563-1.7-2.027h4.029C717.455,889.133,717.467,888.93,717.467,888.714Zm-1.091-.252h-2.962c0.084-1.4.635-1.991,1.475-1.991,1,0,1.487.684,1.487,1.919v0.072Zm9.755,2.123v-2.891a1.924,1.924,0,0,0-2.218-2.1,6.186,6.186,0,0,0-2.183.432l0.276,0.8a5.65,5.65,0,0,1,1.7-.336,1.106,1.106,0,0,1,1.319,1.247v0.468h-0.971c-1.763,0-2.783.731-2.783,2.087a1.838,1.838,0,0,0,2.015,1.907,2.153,2.153,0,0,0,1.883-.948,1.274,1.274,0,0,0,1.235.948l0.252-.768A0.749,0.749,0,0,1,726.131,890.585Zm-2.59.791a1,1,0,0,1-1.091-1.139c0-.864.587-1.3,1.751-1.3h0.827v1.452A1.623,1.623,0,0,1,723.541,891.376Zm7.535-5.781a2.294,2.294,0,0,0-1.931,1.08l-0.1-.936H728.1v6.321h1.1v-4.486a1.913,1.913,0,0,1,1.607-1.115c0.612,0,1,.276,1,1.223v4.378h1.1v-4.534A1.73,1.73,0,0,0,731.076,885.6Zm7.548-2.53v3.31a2.27,2.27,0,0,0-1.7-.78c-1.548,0-2.483,1.4-2.483,3.335,0,1.966.851,3.274,2.387,3.274a2.114,2.114,0,0,0,1.823-1.02l0.108,0.876h0.971V883.2Zm-1.559,8.263c-0.912,0-1.44-.755-1.44-2.422,0-1.643.588-2.435,1.535-2.435a1.816,1.816,0,0,1,1.464.827v3.1A1.813,1.813,0,0,1,737.065,891.328Zm11.314-8.263v3.31a2.267,2.267,0,0,0-1.7-.78c-1.547,0-2.482,1.4-2.482,3.335,0,1.966.851,3.274,2.387,3.274a2.111,2.111,0,0,0,1.822-1.02l0.108,0.876h0.972V883.2Zm-1.559,8.263c-0.911,0-1.439-.755-1.439-2.422,0-1.643.588-2.435,1.535-2.435a1.812,1.812,0,0,1,1.463.827v3.1A1.811,1.811,0,0,1,746.82,891.328Zm5.185-8.623a0.75,0.75,0,1,0,.78.756A0.733,0.733,0,0,0,752.005,882.705Zm0.564,3.034h-1.1v6.321h1.1v-6.321Zm3.7-.144c-1.308,0-2.279.732-2.279,1.739,0,0.888.54,1.476,1.907,1.835,1.223,0.324,1.535.564,1.535,1.188a1.117,1.117,0,0,1-1.355.959,2.868,2.868,0,0,1-1.775-.611l-0.588.671a3.5,3.5,0,0,0,2.387.828c1.283,0,2.494-.6,2.494-1.919,0-1.1-.767-1.631-2.1-1.967-1.019-.264-1.355-0.5-1.355-1.02a0.963,0.963,0,0,1,1.164-.827,2.917,2.917,0,0,1,1.643.54l0.467-.7A3.353,3.353,0,0,0,756.265,885.6Zm6.491,0a2.3,2.3,0,0,0-1.871,1l-0.084-.852h-0.948v8.875l1.1-.132v-3a2.039,2.039,0,0,0,1.655.72c1.631,0,2.483-1.391,2.483-3.31C765.1,886.9,764.435,885.6,762.756,885.6Zm-0.408,5.709a1.628,1.628,0,0,1-1.391-.767v-3.083a1.924,1.924,0,0,1,1.523-.983c0.947,0,1.427.78,1.427,2.423S763.356,891.3,762.348,891.3Zm5.593,0.9a1.851,1.851,0,0,0,.875-0.216l-0.288-.768a1.075,1.075,0,0,1-.407.072c-0.288,0-.4-0.168-0.4-0.5v-7.723l-1.1.132v7.616A1.244,1.244,0,0,0,767.941,892.2Zm6.214-1.619v-2.891a1.925,1.925,0,0,0-2.219-2.1,6.19,6.19,0,0,0-2.183.432l0.276,0.8a5.661,5.661,0,0,1,1.7-.336,1.107,1.107,0,0,1,1.32,1.247v0.468H772.08c-1.763,0-2.782.731-2.782,2.087a1.837,1.837,0,0,0,2.015,1.907,2.154,2.154,0,0,0,1.883-.948,1.273,1.273,0,0,0,1.235.948l0.252-.768A0.749,0.749,0,0,1,774.155,890.585Zm-2.591.791a1,1,0,0,1-1.091-1.139c0-.864.588-1.3,1.751-1.3h0.828v1.452A1.624,1.624,0,0,1,771.564,891.376Zm9.083-5.637h-1.14l-1.655,5.517-1.691-5.517h-1.175l2.123,6.321h0.371a2.152,2.152,0,0,1-2,1.691l0.119,0.863a3.211,3.211,0,0,0,2.939-2.518Zm6.145-.144c-1.715,0-2.759,1.344-2.759,3.358,0,2.039,1.056,3.251,2.759,3.251a2.983,2.983,0,0,0,1.931-.7l-0.5-.72a2.346,2.346,0,0,1-1.379.48c-1,0-1.619-.683-1.619-2.338s0.623-2.423,1.619-2.423a2.161,2.161,0,0,1,1.355.468l0.528-.7A2.81,2.81,0,0,0,786.792,885.6Zm5.388,0c-1.8,0-2.831,1.356-2.831,3.311,0,2,1.02,3.3,2.819,3.3s2.818-1.355,2.818-3.31C794.986,886.891,793.979,885.6,792.18,885.6Zm0,0.888c1.043,0,1.619.768,1.619,2.411s-0.576,2.422-1.631,2.422-1.631-.767-1.631-2.41S791.124,886.483,792.18,886.483Zm7.308-.888a2.291,2.291,0,0,0-1.931,1.08l-0.1-.936h-0.948v6.321h1.1v-4.486a1.91,1.91,0,0,1,1.607-1.115c0.611,0,1,.276,1,1.223v4.378h1.1v-4.534A1.73,1.73,0,0,0,799.488,885.6Zm6.528,5.421a1.545,1.545,0,0,1-.84.276c-0.552,0-.755-0.3-0.755-0.935v-3.766H805.8l0.12-.852h-1.5V884.18l-1.1.132v1.427h-1.1v0.852h1.1v3.814a1.588,1.588,0,0,0,1.7,1.8,2.4,2.4,0,0,0,1.415-.432Zm5.915-2.3c0-1.931-.9-3.119-2.6-3.119-1.631,0-2.627,1.4-2.627,3.371,0,2,1.032,3.238,2.795,3.238a3.446,3.446,0,0,0,2.207-.792l-0.48-.659a2.666,2.666,0,0,1-1.643.551c-0.912,0-1.6-.563-1.7-2.027h4.03C811.919,889.133,811.931,888.93,811.931,888.714Zm-1.092-.252h-2.962c0.084-1.4.635-1.991,1.475-1.991,1,0,1.487.684,1.487,1.919v0.072Zm5.592-2.867a2.294,2.294,0,0,0-1.931,1.08l-0.1-.936h-0.947v6.321h1.1v-4.486a1.913,1.913,0,0,1,1.608-1.115c0.611,0,1,.276,1,1.223v4.378h1.1v-4.534A1.729,1.729,0,0,0,816.431,885.6Zm6.528,5.421a1.54,1.54,0,0,1-.839.276c-0.552,0-.756-0.3-0.756-0.935v-3.766h1.38l0.12-.852h-1.5V884.18l-1.1.132v1.427h-1.1v0.852h1.1v3.814a1.588,1.588,0,0,0,1.7,1.8,2.408,2.408,0,0,0,1.415-.432ZM581.03,905.6a2.131,2.131,0,0,0-1.787.936v-3.466l-1.1.132v8.863h0.972l0.108-.7a2.1,2.1,0,0,0,1.679.84c1.535,0,2.482-1.331,2.482-3.31C583.38,906.783,582.457,905.6,581.03,905.6Zm-0.4,5.733a1.7,1.7,0,0,1-1.391-.851v-3.023a1.793,1.793,0,0,1,1.475-.983c0.887,0,1.475.624,1.475,2.423C582.193,910.621,581.557,911.328,580.634,911.328Zm8.591-.743v-2.891a1.925,1.925,0,0,0-2.219-2.1,6.19,6.19,0,0,0-2.183.432l0.276,0.8a5.661,5.661,0,0,1,1.7-.336,1.107,1.107,0,0,1,1.32,1.247v0.468H587.15c-1.763,0-2.782.732-2.782,2.087a1.837,1.837,0,0,0,2.015,1.907,2.151,2.151,0,0,0,1.882-.948,1.275,1.275,0,0,0,1.236.948l0.252-.768A0.749,0.749,0,0,1,589.225,910.585Zm-2.591.791a1,1,0,0,1-1.091-1.139c0-.864.588-1.295,1.751-1.295h0.828v1.451A1.626,1.626,0,0,1,586.634,911.376Zm6.276-5.781c-1.307,0-2.278.732-2.278,1.739,0,0.888.539,1.476,1.906,1.835,1.224,0.324,1.536.564,1.536,1.188a1.117,1.117,0,0,1-1.356.959,2.872,2.872,0,0,1-1.775-.611l-0.587.671a3.5,3.5,0,0,0,2.386.828c1.284,0,2.5-.6,2.5-1.919,0-1.1-.768-1.631-2.1-1.967-1.019-.264-1.355-0.5-1.355-1.019a0.963,0.963,0,0,1,1.163-.828,2.912,2.912,0,0,1,1.643.54l0.468-.7A3.355,3.355,0,0,0,592.91,905.6Zm8.362,3.119c0-1.931-.9-3.119-2.6-3.119-1.631,0-2.627,1.4-2.627,3.37,0,2,1.032,3.239,2.795,3.239a3.446,3.446,0,0,0,2.207-.792l-0.48-.659a2.666,2.666,0,0,1-1.643.551c-0.912,0-1.6-.563-1.7-2.027h4.03C601.261,909.134,601.272,908.93,601.272,908.714Zm-1.091-.252h-2.962c0.084-1.4.635-1.991,1.475-1.991,1,0,1.487.684,1.487,1.919v0.072Zm6.408-5.4v3.31a2.27,2.27,0,0,0-1.7-.78c-1.547,0-2.483,1.4-2.483,3.335,0,1.966.852,3.274,2.387,3.274a2.114,2.114,0,0,0,1.823-1.02l0.108,0.876h0.971V903.2Zm-1.559,8.263c-0.912,0-1.439-.755-1.439-2.422,0-1.643.587-2.435,1.535-2.435a1.814,1.814,0,0,1,1.463.828v3.094A1.811,1.811,0,0,1,605.03,911.328Zm9.9-5.733c-1.8,0-2.831,1.356-2.831,3.311,0,2,1.02,3.3,2.819,3.3s2.818-1.355,2.818-3.31C617.736,906.891,616.729,905.6,614.93,905.6Zm0,0.888c1.043,0,1.619.768,1.619,2.411s-0.576,2.422-1.631,2.422-1.632-.767-1.632-2.41S613.874,906.483,614.93,906.483Zm7.307-.888a2.294,2.294,0,0,0-1.931,1.08l-0.1-.936h-0.947v6.321h1.1v-4.486a1.913,1.913,0,0,1,1.607-1.115c0.612,0,1,.276,1,1.223v4.378h1.1v-4.534A1.729,1.729,0,0,0,622.237,905.6Zm11.279,0.144h-1.139l-1.655,5.517-1.691-5.517h-1.176l2.123,6.321h0.372a2.155,2.155,0,0,1-2,1.691l0.12,0.863a3.212,3.212,0,0,0,2.939-2.518Zm3.157-.144c-1.8,0-2.83,1.356-2.83,3.311,0,2,1.019,3.3,2.818,3.3s2.819-1.355,2.819-3.31C639.48,906.891,638.472,905.6,636.673,905.6Zm0,0.888c1.044,0,1.62.768,1.62,2.411s-0.576,2.422-1.632,2.422-1.631-.767-1.631-2.41S635.618,906.483,636.673,906.483Zm9.035-.744h-1.1v4.51a1.9,1.9,0,0,1-1.583,1.091c-0.684,0-.972-0.324-0.972-1.187v-4.414h-1.1v4.534a1.69,1.69,0,0,0,1.763,1.931,2.124,2.124,0,0,0,1.967-1.127l0.084,0.983h0.947v-6.321Zm4.729-.144a1.8,1.8,0,0,0-1.691,1.428l-0.108-1.284h-0.947v6.321h1.1v-3.61c0.264-1.212.72-1.775,1.511-1.775a1.984,1.984,0,0,1,.552.072l0.2-1.08A2.69,2.69,0,0,0,650.437,905.6Zm7.356,0a2.131,2.131,0,0,0-1.787.936v-3.466l-1.1.132v8.863h0.972l0.108-.7a2.1,2.1,0,0,0,1.679.84c1.535,0,2.482-1.331,2.482-3.31C660.143,906.783,659.22,905.6,657.793,905.6Zm-0.4,5.733a1.7,1.7,0,0,1-1.391-.851v-3.023a1.793,1.793,0,0,1,1.475-.983c0.887,0,1.475.624,1.475,2.423C658.956,910.621,658.32,911.328,657.4,911.328Zm7.08-5.733a1.8,1.8,0,0,0-1.691,1.428l-0.108-1.284H661.73v6.321h1.1v-3.61c0.264-1.212.719-1.775,1.511-1.775a1.984,1.984,0,0,1,.552.072l0.2-1.08A2.675,2.675,0,0,0,664.477,905.6Zm3.84,0c-1.8,0-2.831,1.356-2.831,3.311,0,2,1.02,3.3,2.819,3.3s2.818-1.355,2.818-3.31C671.123,906.891,670.116,905.6,668.317,905.6Zm0,0.888c1.043,0,1.619.768,1.619,2.411s-0.576,2.422-1.631,2.422-1.631-.767-1.631-2.41S667.261,906.483,668.317,906.483Zm11.433-.744H678.7l-1.151,5.553-1.188-5.553h-1.235l-1.247,5.553-1.14-5.553h-1.1l1.475,6.321h1.463l1.14-5.325,1.1,5.325h1.5Zm2.8-.144c-1.307,0-2.278.732-2.278,1.739,0,0.888.539,1.476,1.906,1.835,1.224,0.324,1.536.564,1.536,1.188a1.117,1.117,0,0,1-1.356.959,2.872,2.872,0,0,1-1.775-.611l-0.587.671a3.5,3.5,0,0,0,2.386.828c1.284,0,2.5-.6,2.5-1.919,0-1.1-.768-1.631-2.1-1.967-1.019-.264-1.355-0.5-1.355-1.019a0.963,0.963,0,0,1,1.163-.828,2.912,2.912,0,0,1,1.643.54l0.468-.7A3.355,3.355,0,0,0,682.549,905.6Zm4.129-2.89a0.75,0.75,0,1,0,.779.756A0.734,0.734,0,0,0,686.678,902.705Zm0.564,3.034h-1.1v6.321h1.1v-6.321Zm4.955-.144a2.291,2.291,0,0,0-1.931,1.08l-0.1-.936h-0.948v6.321h1.1v-4.486a1.913,1.913,0,0,1,1.608-1.115c0.611,0,1,.276,1,1.223v4.378h1.1v-4.534A1.73,1.73,0,0,0,692.2,905.6Zm8.53-.563a5.438,5.438,0,0,1-2.89.563A2.254,2.254,0,0,0,695.4,907.8a1.809,1.809,0,0,0,1.068,1.751,1.373,1.373,0,0,0-.7,1.116c0,0.635.5,1.2,1.631,1.2h1c0.791,0,1.271.3,1.271,0.9,0,0.636-.48.984-1.847,0.984-1.391,0-1.715-.336-1.715-1.055h-1c0,1.283.647,1.918,2.71,1.918,1.955,0,2.962-.7,2.962-1.918a1.9,1.9,0,0,0-2.158-1.751h-1.008c-0.647,0-.827-0.228-0.827-0.516a0.764,0.764,0,0,1,.311-0.588,2.559,2.559,0,0,0,.8.12,2.152,2.152,0,0,0,2.411-2.147,1.666,1.666,0,0,0-1.116-1.595,6.15,6.15,0,0,0,1.847-.192Zm-2.89,1.355a1.226,1.226,0,0,1,1.355,1.4,1.257,1.257,0,0,1-1.331,1.44,1.281,1.281,0,0,1-1.331-1.428A1.265,1.265,0,0,1,697.837,906.387Zm11.2,4.2v-2.891a1.925,1.925,0,0,0-2.219-2.1,6.186,6.186,0,0,0-2.183.432l0.276,0.8a5.655,5.655,0,0,1,1.7-.336,1.106,1.106,0,0,1,1.319,1.247v0.468h-0.971c-1.763,0-2.783.732-2.783,2.087a1.838,1.838,0,0,0,2.015,1.907,2.153,2.153,0,0,0,1.883-.948,1.274,1.274,0,0,0,1.235.948l0.252-.768A0.749,0.749,0,0,1,709.032,910.585Zm-2.591.791a1,1,0,0,1-1.091-1.139c0-.864.587-1.295,1.751-1.295h0.827v1.451A1.624,1.624,0,0,1,706.441,911.376Zm7.535-5.781a2.294,2.294,0,0,0-1.931,1.08l-0.1-.936H711v6.321h1.1v-4.486a1.913,1.913,0,0,1,1.607-1.115c0.612,0,1,.276,1,1.223v4.378h1.1v-4.534A1.729,1.729,0,0,0,713.976,905.6Zm7.548-2.53v3.31a2.27,2.27,0,0,0-1.7-.78c-1.547,0-2.483,1.4-2.483,3.335,0,1.966.852,3.274,2.387,3.274a2.114,2.114,0,0,0,1.823-1.02l0.108,0.876h0.971V903.2Zm-1.559,8.263c-0.912,0-1.44-.755-1.44-2.422,0-1.643.588-2.435,1.536-2.435a1.814,1.814,0,0,1,1.463.828v3.094A1.811,1.811,0,0,1,719.965,911.328Zm10.427-5.733a2.3,2.3,0,0,0-1.871,1l-0.084-.852H727.49v8.875l1.1-.132v-3a2.04,2.04,0,0,0,1.655.72c1.631,0,2.483-1.392,2.483-3.31C732.731,906.9,732.071,905.6,730.392,905.6Zm-0.408,5.709a1.629,1.629,0,0,1-1.391-.767v-3.083a1.926,1.926,0,0,1,1.523-.983c0.948,0,1.428.78,1.428,2.423S730.992,911.3,729.984,911.3Zm9.107-2.59c0-1.931-.9-3.119-2.6-3.119-1.631,0-2.626,1.4-2.626,3.37,0,2,1.031,3.239,2.794,3.239a3.444,3.444,0,0,0,2.207-.792l-0.48-.659a2.662,2.662,0,0,1-1.643.551c-0.911,0-1.6-.563-1.7-2.027h4.03C739.079,909.134,739.091,908.93,739.091,908.714ZM738,908.462h-2.963c0.084-1.4.636-1.991,1.475-1.991,1,0,1.488.684,1.488,1.919v0.072Zm5.364-2.867a1.8,1.8,0,0,0-1.691,1.428l-0.108-1.284h-0.947v6.321h1.1v-3.61c0.264-1.212.72-1.775,1.511-1.775a1.984,1.984,0,0,1,.552.072l0.2-1.08A2.69,2.69,0,0,0,743.364,905.6Zm3.181,0c-1.308,0-2.279.732-2.279,1.739,0,0.888.539,1.476,1.907,1.835,1.223,0.324,1.535.564,1.535,1.188a1.117,1.117,0,0,1-1.355.959,2.868,2.868,0,0,1-1.775-.611l-0.588.671a3.5,3.5,0,0,0,2.387.828c1.283,0,2.494-.6,2.494-1.919,0-1.1-.767-1.631-2.1-1.967-1.019-.264-1.355-0.5-1.355-1.019a0.963,0.963,0,0,1,1.163-.828,2.917,2.917,0,0,1,1.644.54l0.467-.7A3.353,3.353,0,0,0,746.545,905.6Zm5.963,0c-1.8,0-2.83,1.356-2.83,3.311,0,2,1.019,3.3,2.818,3.3s2.819-1.355,2.819-3.31C755.315,906.891,754.307,905.6,752.508,905.6Zm0,0.888c1.044,0,1.619.768,1.619,2.411s-0.575,2.422-1.631,2.422-1.631-.767-1.631-2.41S751.453,906.483,752.508,906.483Zm7.308-.888a2.292,2.292,0,0,0-1.931,1.08l-0.1-.936h-0.948v6.321h1.1v-4.486a1.912,1.912,0,0,1,1.607-1.115c0.612,0,1,.276,1,1.223v4.378h1.1v-4.534A1.73,1.73,0,0,0,759.816,905.6Zm8.015,4.99v-2.891a1.925,1.925,0,0,0-2.219-2.1,6.19,6.19,0,0,0-2.183.432l0.276,0.8a5.661,5.661,0,0,1,1.7-.336,1.107,1.107,0,0,1,1.32,1.247v0.468h-0.972c-1.763,0-2.782.732-2.782,2.087a1.837,1.837,0,0,0,2.015,1.907,2.154,2.154,0,0,0,1.883-.948,1.273,1.273,0,0,0,1.235.948l0.252-.768A0.749,0.749,0,0,1,767.831,910.585Zm-2.591.791a1,1,0,0,1-1.091-1.139c0-.864.588-1.295,1.751-1.295h0.828v1.451A1.626,1.626,0,0,1,765.24,911.376Zm5.821,0.828a1.854,1.854,0,0,0,.875-0.216l-0.288-.768a1.076,1.076,0,0,1-.408.072c-0.287,0-.395-0.168-0.395-0.5v-7.724l-1.1.132v7.615A1.244,1.244,0,0,0,771.061,912.2Zm8.626-9.139v3.31a2.269,2.269,0,0,0-1.7-.78c-1.547,0-2.483,1.4-2.483,3.335,0,1.966.852,3.274,2.387,3.274a2.113,2.113,0,0,0,1.823-1.02l0.108,0.876h0.972V903.2Zm-1.559,8.263c-0.912,0-1.439-.755-1.439-2.422,0-1.643.587-2.435,1.535-2.435a1.812,1.812,0,0,1,1.463.828v3.094A1.81,1.81,0,0,1,778.128,911.328Zm8.9-.743v-2.891a1.925,1.925,0,0,0-2.219-2.1,6.186,6.186,0,0,0-2.183.432l0.276,0.8a5.655,5.655,0,0,1,1.7-.336,1.106,1.106,0,0,1,1.319,1.247v0.468h-0.971c-1.763,0-2.783.732-2.783,2.087a1.838,1.838,0,0,0,2.015,1.907,2.152,2.152,0,0,0,1.883-.948,1.275,1.275,0,0,0,1.236.948l0.252-.768A0.749,0.749,0,0,1,787.031,910.585Zm-2.591.791a1,1,0,0,1-1.091-1.139c0-.864.587-1.295,1.751-1.295h0.827v1.451A1.623,1.623,0,0,1,784.44,911.376Zm7.331-.36a1.54,1.54,0,0,1-.839.276c-0.552,0-.756-0.3-0.756-0.935v-3.766h1.38l0.12-.852h-1.5V904.18l-1.1.132v1.427h-1.1v0.852h1.1v3.814a1.588,1.588,0,0,0,1.7,1.8,2.408,2.408,0,0,0,1.415-.432Zm5.52-.431v-2.891a1.925,1.925,0,0,0-2.219-2.1,6.186,6.186,0,0,0-2.183.432l0.276,0.8a5.655,5.655,0,0,1,1.7-.336,1.106,1.106,0,0,1,1.319,1.247v0.468h-0.971c-1.763,0-2.783.732-2.783,2.087a1.838,1.838,0,0,0,2.015,1.907,2.153,2.153,0,0,0,1.883-.948,1.274,1.274,0,0,0,1.235.948l0.252-.768A0.749,0.749,0,0,1,797.291,910.585Zm-2.591.791a1,1,0,0,1-1.091-1.139c0-.864.587-1.295,1.751-1.295h0.827v1.451A1.624,1.624,0,0,1,794.7,911.376Zm4.849-.839a0.834,0.834,0,1,0,.839.827A0.821,0.821,0,0,0,799.549,910.537Zm6.371-6.74h-1.139v8.263h4.4l0.132-.995H805.92V903.8Zm9.25,4.917c0-1.931-.9-3.119-2.6-3.119-1.631,0-2.626,1.4-2.626,3.37,0,2,1.031,3.239,2.794,3.239a3.444,3.444,0,0,0,2.207-.792l-0.48-.659a2.662,2.662,0,0,1-1.643.551c-0.911,0-1.595-.563-1.7-2.027h4.03C815.158,909.134,815.17,908.93,815.17,908.714Zm-1.091-.252h-2.963c0.084-1.4.636-1.991,1.475-1.991,1,0,1.488.684,1.488,1.919v0.072Zm6.875,2.123v-2.891a1.925,1.925,0,0,0-2.219-2.1,6.19,6.19,0,0,0-2.183.432l0.276,0.8a5.661,5.661,0,0,1,1.7-.336,1.107,1.107,0,0,1,1.32,1.247v0.468h-0.972c-1.763,0-2.782.732-2.782,2.087a1.837,1.837,0,0,0,2.015,1.907,2.154,2.154,0,0,0,1.883-.948,1.273,1.273,0,0,0,1.235.948l0.252-.768A0.749,0.749,0,0,1,820.954,910.585Zm-2.591.791a1,1,0,0,1-1.091-1.139c0-.864.588-1.295,1.751-1.295h0.828v1.451A1.626,1.626,0,0,1,818.363,911.376Zm7.308-5.781a1.8,1.8,0,0,0-1.691,1.428l-0.108-1.284h-0.948v6.321h1.1v-3.61c0.264-1.212.719-1.775,1.511-1.775a1.984,1.984,0,0,1,.552.072l0.2-1.08A2.681,2.681,0,0,0,825.671,905.6Zm4.56,0a2.291,2.291,0,0,0-1.931,1.08l-0.1-.936h-0.948v6.321h1.1v-4.486a1.913,1.913,0,0,1,1.608-1.115c0.611,0,1,.276,1,1.223v4.378h1.1v-4.534A1.729,1.729,0,0,0,830.231,905.6Zm-245.747,20a2.192,2.192,0,0,0-1.883,1.14,1.593,1.593,0,0,0-1.6-1.14,2.112,2.112,0,0,0-1.823,1.068l-0.1-.924h-0.948v6.321h1.1v-4.486a1.778,1.778,0,0,1,1.487-1.115c0.48,0,.887.276,0.887,1.223v4.378h1.1v-4.486a1.793,1.793,0,0,1,1.487-1.115c0.48,0,.888.276,0.888,1.223v4.378h1.1v-4.534A1.715,1.715,0,0,0,584.484,925.6Zm6.014,0c-1.8,0-2.83,1.356-2.83,3.311,0,2,1.019,3.3,2.818,3.3s2.818-1.355,2.818-3.31C593.3,926.891,592.3,925.6,590.5,925.6Zm0,0.888c1.043,0,1.619.767,1.619,2.411s-0.576,2.422-1.631,2.422-1.631-.767-1.631-2.41S589.443,926.483,590.5,926.483Zm7.08-.888a1.8,1.8,0,0,0-1.691,1.428l-0.108-1.284h-0.948v6.321h1.1v-3.61c0.264-1.212.719-1.775,1.511-1.775a1.984,1.984,0,0,1,.552.072l0.2-1.08A2.675,2.675,0,0,0,597.578,925.6Zm6.239,3.119c0-1.931-.9-3.119-2.6-3.119-1.631,0-2.627,1.4-2.627,3.37,0,2,1.032,3.239,2.795,3.239a3.446,3.446,0,0,0,2.207-.792l-0.48-.659a2.666,2.666,0,0,1-1.643.551c-0.912,0-1.6-.563-1.7-2.027h4.03C603.8,929.134,603.817,928.93,603.817,928.714Zm-1.092-.252h-2.962c0.084-1.4.635-1.991,1.475-1.991,0.995,0,1.487.684,1.487,1.919v0.072Zm-20.88,29.232a1.841,1.841,0,0,0,1.548-1.811c0-1.439-1.2-2.087-3.239-2.087H578.2v8.264h2.279c1.919,0,3.274-.6,3.274-2.351A1.944,1.944,0,0,0,581.845,957.694Zm-1.571-3c1.224,0,1.955.252,1.955,1.271a1.415,1.415,0,0,1-1.643,1.331h-1.247v-2.6h0.935Zm0.2,6.453h-1.139v-2.975h1.355c1,0,1.859.372,1.859,1.535C582.553,960.909,581.677,961.149,580.478,961.149ZM586.4,962.2a1.854,1.854,0,0,0,.875-0.216l-0.288-.768a1.076,1.076,0,0,1-.408.072c-0.287,0-.395-0.168-0.395-0.5v-7.723l-1.1.132v7.616A1.244,1.244,0,0,0,586.4,962.2Zm4.211-6.609c-1.8,0-2.83,1.356-2.83,3.311,0,2,1.019,3.3,2.818,3.3s2.818-1.355,2.818-3.31C593.412,956.891,592.405,955.6,590.606,955.6Zm0,0.888c1.043,0,1.619.768,1.619,2.411s-0.576,2.422-1.631,2.422-1.631-.767-1.631-2.41S589.551,956.483,590.606,956.483Zm6.636-.888c-1.715,0-2.758,1.344-2.758,3.359,0,2.038,1.055,3.25,2.758,3.25a2.981,2.981,0,0,0,1.931-.7l-0.5-.72a2.346,2.346,0,0,1-1.379.48c-1,0-1.619-.683-1.619-2.339s0.623-2.422,1.619-2.422a2.161,2.161,0,0,1,1.355.468l0.528-.7A2.808,2.808,0,0,0,597.242,955.6Zm4.237-2.53-1.1.132v8.863h1.1v-8.995Zm3.634,2.674h-1.236l-2.326,2.867,2.506,3.454h1.319l-2.59-3.526Zm5.09-2.674-1.1.132v8.863h1.1v-8.995Zm3.633,2.674H612.6l-2.326,2.867,2.506,3.454H614.1l-2.59-3.526Zm4.081-.144a2.294,2.294,0,0,0-1.931,1.08l-0.1-.936h-0.948v6.321h1.1v-4.486a1.913,1.913,0,0,1,1.608-1.115c0.611,0,1,.276,1,1.223v4.378h1.1v-4.534A1.729,1.729,0,0,0,617.917,955.6Zm6.133,0c-1.8,0-2.831,1.356-2.831,3.311,0,2,1.02,3.3,2.819,3.3s2.818-1.355,2.818-3.31C626.856,956.891,625.849,955.6,624.05,955.6Zm0,0.888c1.043,0,1.619.768,1.619,2.411s-0.576,2.422-1.631,2.422-1.631-.767-1.631-2.41S622.994,956.483,624.05,956.483Zm11.433-.744h-1.055l-1.152,5.553-1.187-5.553h-1.235l-1.248,5.553-1.139-5.553h-1.1l1.475,6.321H630.3l1.139-5.325,1.1,5.325h1.5Zm4.058-.144a2.294,2.294,0,0,0-1.931,1.08l-0.1-.936h-0.948v6.321h1.1v-4.486a1.913,1.913,0,0,1,1.608-1.115c0.611,0,1,.276,1,1.223v4.378h1.1v-4.534A1.729,1.729,0,0,0,639.541,955.6Zm9.408,5.421a1.54,1.54,0,0,1-.839.276c-0.552,0-.756-0.3-0.756-0.935v-3.766h1.38l0.12-.852h-1.5V954.18l-1.1.132v1.427h-1.1v0.852h1.1v3.814a1.588,1.588,0,0,0,1.7,1.8,2.408,2.408,0,0,0,1.415-.432Zm4.008-5.421a1.805,1.805,0,0,0-1.691,1.428l-0.108-1.284h-0.947v6.321h1.1v-3.61c0.264-1.211.72-1.775,1.512-1.775a1.981,1.981,0,0,1,.551.072l0.2-1.08A2.745,2.745,0,0,0,652.957,955.6Zm5.6,4.99v-2.891a1.925,1.925,0,0,0-2.219-2.1,6.186,6.186,0,0,0-2.183.432l0.276,0.8a5.65,5.65,0,0,1,1.7-.336,1.106,1.106,0,0,1,1.319,1.247v0.468h-0.971c-1.763,0-2.783.732-2.783,2.087a1.838,1.838,0,0,0,2.015,1.907,2.153,2.153,0,0,0,1.883-.948,1.274,1.274,0,0,0,1.235.948l0.252-.768A0.748,0.748,0,0,1,658.561,960.585Zm-2.591.791a1,1,0,0,1-1.091-1.139c0-.864.587-1.295,1.751-1.295h0.827v1.451A1.623,1.623,0,0,1,655.97,961.376Zm6.863-5.781c-1.715,0-2.758,1.344-2.758,3.359,0,2.038,1.055,3.25,2.758,3.25a2.979,2.979,0,0,0,1.931-.7l-0.5-.72a2.348,2.348,0,0,1-1.38.48c-1,0-1.619-.683-1.619-2.339s0.624-2.422,1.619-2.422a2.164,2.164,0,0,1,1.356.468l0.527-.7A2.807,2.807,0,0,0,662.833,955.6Zm4.237-2.53-1.1.132v8.863h1.1v-8.995Zm3.634,2.674h-1.235l-2.327,2.867,2.507,3.454h1.319l-2.591-3.526Zm1.646-3.034a0.75,0.75,0,1,0,.78.756A0.734,0.734,0,0,0,672.35,952.705Zm0.564,3.034h-1.1v6.321h1.1v-6.321Zm4.955-.144a2.294,2.294,0,0,0-1.931,1.08l-0.1-.936H674.9v6.321H676v-4.486a1.913,1.913,0,0,1,1.607-1.115c0.612,0,1,.276,1,1.223v4.378h1.1v-4.534A1.73,1.73,0,0,0,677.869,955.6Zm8.531-.563a5.431,5.431,0,0,1-2.89.563,2.254,2.254,0,0,0-2.435,2.207,1.81,1.81,0,0,0,1.067,1.751,1.374,1.374,0,0,0-.7,1.115c0,0.636.5,1.2,1.631,1.2h1c0.792,0,1.272.3,1.272,0.9,0,0.635-.48.983-1.847,0.983-1.392,0-1.715-.336-1.715-1.055h-1c0,1.283.648,1.919,2.711,1.919,1.955,0,2.962-.7,2.962-1.919a1.9,1.9,0,0,0-2.159-1.751h-1.007c-0.648,0-.828-0.228-0.828-0.516a0.762,0.762,0,0,1,.312-0.588,2.559,2.559,0,0,0,.8.12,2.15,2.15,0,0,0,2.41-2.147,1.665,1.665,0,0,0-1.115-1.595,6.157,6.157,0,0,0,1.847-.192Zm-2.89,1.355a1.226,1.226,0,0,1,1.355,1.4,1.257,1.257,0,0,1-1.331,1.439A1.28,1.28,0,0,1,682.2,957.8,1.265,1.265,0,0,1,683.51,956.387Zm9.239-.792c-1.715,0-2.758,1.344-2.758,3.359,0,2.038,1.055,3.25,2.758,3.25a2.981,2.981,0,0,0,1.931-.7l-0.5-.72a2.343,2.343,0,0,1-1.379.48c-1,0-1.619-.683-1.619-2.339s0.624-2.422,1.619-2.422a2.159,2.159,0,0,1,1.355.468l0.528-.7A2.808,2.808,0,0,0,692.749,955.6Zm5.388,0c-1.8,0-2.83,1.356-2.83,3.311,0,2,1.019,3.3,2.818,3.3s2.819-1.355,2.819-3.31C700.944,956.891,699.936,955.6,698.137,955.6Zm0,0.888c1.044,0,1.619.768,1.619,2.411s-0.575,2.422-1.631,2.422-1.631-.767-1.631-2.41S697.082,956.483,698.137,956.483Zm10.678-.888a2.193,2.193,0,0,0-1.883,1.14,1.593,1.593,0,0,0-1.6-1.14,2.112,2.112,0,0,0-1.823,1.068l-0.1-.924h-0.947v6.321h1.1v-4.486a1.779,1.779,0,0,1,1.487-1.115c0.48,0,.888.276,0.888,1.223v4.378h1.1v-4.486a1.794,1.794,0,0,1,1.487-1.115c0.48,0,.888.276,0.888,1.223v4.378h1.1v-4.534A1.715,1.715,0,0,0,708.815,955.6Zm6.542,0a2.3,2.3,0,0,0-1.871,1l-0.084-.852h-0.948v8.876l1.1-.133v-3a2.039,2.039,0,0,0,1.655.72c1.631,0,2.483-1.391,2.483-3.31C717.7,956.9,717.036,955.6,715.357,955.6Zm-0.408,5.709a1.626,1.626,0,0,1-1.391-.767v-3.082a1.923,1.923,0,0,1,1.523-.984c0.947,0,1.427.78,1.427,2.423S715.957,961.3,714.949,961.3Zm8.591-.719v-2.891a1.925,1.925,0,0,0-2.219-2.1,6.19,6.19,0,0,0-2.183.432l0.276,0.8a5.661,5.661,0,0,1,1.7-.336,1.107,1.107,0,0,1,1.32,1.247v0.468h-0.972c-1.763,0-2.782.732-2.782,2.087A1.837,1.837,0,0,0,720.7,962.2a2.154,2.154,0,0,0,1.883-.948,1.273,1.273,0,0,0,1.235.948l0.252-.768A0.749,0.749,0,0,1,723.54,960.585Zm-2.591.791a1,1,0,0,1-1.091-1.139c0-.864.588-1.295,1.751-1.295h0.828v1.451A1.624,1.624,0,0,1,720.949,961.376Zm7.536-5.781a2.291,2.291,0,0,0-1.931,1.08l-0.1-.936H725.51v6.321h1.1v-4.486a1.91,1.91,0,0,1,1.607-1.115c0.611,0,1,.276,1,1.223v4.378h1.1v-4.534A1.73,1.73,0,0,0,728.485,955.6Zm4.3-2.89a0.75,0.75,0,1,0,.78.756A0.734,0.734,0,0,0,732.782,952.705Zm0.564,3.034h-1.1v6.321h1.1v-6.321Zm6.754,2.975c0-1.931-.9-3.119-2.6-3.119-1.631,0-2.627,1.4-2.627,3.371,0,2,1.032,3.238,2.795,3.238a3.446,3.446,0,0,0,2.207-.792l-0.48-.659a2.664,2.664,0,0,1-1.643.551c-0.912,0-1.6-.563-1.7-2.027h4.03C740.088,959.133,740.1,958.929,740.1,958.714Zm-1.092-.252h-2.962c0.084-1.4.635-1.991,1.475-1.991,1,0,1.487.684,1.487,1.919v0.072Zm4.333-2.867c-1.307,0-2.279.732-2.279,1.74,0,0.887.54,1.475,1.907,1.834,1.224,0.324,1.536.564,1.536,1.188a1.117,1.117,0,0,1-1.356.959,2.872,2.872,0,0,1-1.775-.611l-0.587.671a3.5,3.5,0,0,0,2.386.828c1.283,0,2.5-.6,2.5-1.919,0-1.1-.768-1.631-2.1-1.967-1.019-.264-1.355-0.5-1.355-1.02a0.963,0.963,0,0,1,1.163-.827,2.914,2.914,0,0,1,1.643.54l0.468-.7A3.355,3.355,0,0,0,743.341,955.6Zm8.616-1.643a2.7,2.7,0,0,1,1.1.24l0.348-.8a3.483,3.483,0,0,0-1.511-.324,1.762,1.762,0,0,0-1.979,1.811v0.863h-1.127v0.852h1.127v5.469h1.1v-5.469h1.416l0.12-.852h-1.536v-0.875A0.789,0.789,0,0,1,751.957,953.952Zm4.319,1.643a1.805,1.805,0,0,0-1.691,1.428l-0.108-1.284H753.53v6.321h1.1v-3.61c0.264-1.211.72-1.775,1.511-1.775a1.984,1.984,0,0,1,.552.072l0.2-1.08A2.745,2.745,0,0,0,756.276,955.6Zm3.84,0c-1.8,0-2.83,1.356-2.83,3.311,0,2,1.019,3.3,2.819,3.3s2.818-1.355,2.818-3.31C762.923,956.891,761.916,955.6,760.116,955.6Zm0,0.888c1.044,0,1.62.768,1.62,2.411s-0.576,2.422-1.631,2.422-1.632-.767-1.632-2.41S759.061,956.483,760.116,956.483Zm10.678-.888a2.193,2.193,0,0,0-1.883,1.14,1.593,1.593,0,0,0-1.595-1.14,2.113,2.113,0,0,0-1.823,1.068l-0.1-.924H764.45v6.321h1.1v-4.486a1.779,1.779,0,0,1,1.487-1.115c0.48,0,.888.276,0.888,1.223v4.378h1.1v-4.486a1.794,1.794,0,0,1,1.487-1.115c0.48,0,.888.276,0.888,1.223v4.378h1.1v-4.534A1.715,1.715,0,0,0,770.794,955.6Zm10.31-2.53v3.31a2.27,2.27,0,0,0-1.7-.78c-1.548,0-2.483,1.4-2.483,3.334,0,1.967.851,3.275,2.387,3.275a2.114,2.114,0,0,0,1.823-1.02l0.108,0.876h0.971V953.2Zm-1.559,8.263c-0.912,0-1.44-.755-1.44-2.422,0-1.643.588-2.435,1.535-2.435a1.816,1.816,0,0,1,1.464.827v3.1A1.813,1.813,0,0,1,779.545,961.328Zm5.184-8.623a0.75,0.75,0,1,0,.78.756A0.734,0.734,0,0,0,784.729,952.705Zm0.564,3.034h-1.1v6.321h1.1v-6.321Zm3.7-.144c-1.308,0-2.279.732-2.279,1.74,0,0.887.54,1.475,1.907,1.834,1.223,0.324,1.535.564,1.535,1.188a1.117,1.117,0,0,1-1.355.959,2.868,2.868,0,0,1-1.775-.611l-0.588.671a3.5,3.5,0,0,0,2.387.828c1.283,0,2.494-.6,2.494-1.919,0-1.1-.767-1.631-2.1-1.967-1.02-.264-1.356-0.5-1.356-1.02a0.963,0.963,0,0,1,1.164-.827,2.917,2.917,0,0,1,1.643.54l0.468-.7A3.357,3.357,0,0,0,788.989,955.6Zm6.491,0a2.3,2.3,0,0,0-1.871,1l-0.084-.852h-0.947v8.876l1.1-.133v-3a2.039,2.039,0,0,0,1.655.72c1.631,0,2.483-1.391,2.483-3.31C797.819,956.9,797.159,955.6,795.48,955.6Zm-0.408,5.709a1.627,1.627,0,0,1-1.391-.767v-3.082a1.923,1.923,0,0,1,1.523-.984c0.948,0,1.427.78,1.427,2.423S796.08,961.3,795.072,961.3Zm5.593,0.9a1.851,1.851,0,0,0,.875-0.216l-0.288-.768a1.068,1.068,0,0,1-.407.072c-0.288,0-.4-0.168-0.4-0.5v-7.723l-1.1.132v7.616A1.244,1.244,0,0,0,800.665,962.2Zm6.214-1.619v-2.891a1.924,1.924,0,0,0-2.219-2.1,6.181,6.181,0,0,0-2.182.432l0.275,0.8a5.661,5.661,0,0,1,1.7-.336,1.107,1.107,0,0,1,1.32,1.247v0.468H804.8c-1.763,0-2.782.732-2.782,2.087a1.837,1.837,0,0,0,2.015,1.907,2.154,2.154,0,0,0,1.883-.948,1.274,1.274,0,0,0,1.235.948l0.252-.768A0.749,0.749,0,0,1,806.879,960.585Zm-2.59.791a1,1,0,0,1-1.092-1.139c0-.864.588-1.295,1.751-1.295h0.828v1.451A1.624,1.624,0,0,1,804.289,961.376Zm9.082-5.637h-1.139l-1.656,5.517-1.691-5.517H807.71l2.123,6.321h0.372a2.155,2.155,0,0,1-2,1.691l0.12,0.864a3.213,3.213,0,0,0,2.938-2.519Zm1.5-3.034a0.75,0.75,0,1,0,.78.756A0.734,0.734,0,0,0,814.873,952.705Zm0.564,3.034h-1.1v6.321h1.1v-6.321Zm4.955-.144a2.291,2.291,0,0,0-1.931,1.08l-0.1-.936h-0.948v6.321h1.1v-4.486a1.91,1.91,0,0,1,1.607-1.115c0.611,0,1,.276,1,1.223v4.378h1.1v-4.534A1.73,1.73,0,0,0,820.392,955.6Zm8.531-.563a5.435,5.435,0,0,1-2.891.563A2.254,2.254,0,0,0,823.6,957.8a1.808,1.808,0,0,0,1.067,1.751,1.373,1.373,0,0,0-.7,1.115c0,0.636.5,1.2,1.631,1.2h1c0.791,0,1.271.3,1.271,0.9,0,0.635-.48.983-1.847,0.983-1.391,0-1.715-.336-1.715-1.055h-1c0,1.283.647,1.919,2.71,1.919,1.955,0,2.963-.7,2.963-1.919a1.9,1.9,0,0,0-2.159-1.751h-1.008c-0.647,0-.827-0.228-0.827-0.516a0.762,0.762,0,0,1,.312-0.588,2.548,2.548,0,0,0,.8.12,2.151,2.151,0,0,0,2.411-2.147,1.665,1.665,0,0,0-1.116-1.595,6.15,6.15,0,0,0,1.847-.192Zm-2.891,1.355a1.226,1.226,0,0,1,1.355,1.4,1.256,1.256,0,0,1-1.331,1.439,1.28,1.28,0,0,1-1.331-1.427A1.265,1.265,0,0,1,826.032,956.387ZM580.442,975.6c-1.715,0-2.758,1.344-2.758,3.359,0,2.038,1.055,3.25,2.758,3.25a2.981,2.981,0,0,0,1.931-.7l-0.5-.72a2.343,2.343,0,0,1-1.379.48c-1,0-1.619-.683-1.619-2.338s0.624-2.423,1.619-2.423a2.159,2.159,0,0,1,1.355.468l0.528-.7A2.808,2.808,0,0,0,580.442,975.6Zm5.388,0c-1.8,0-2.83,1.356-2.83,3.311,0,2,1.019,3.3,2.818,3.3s2.819-1.355,2.819-3.31C588.637,976.891,587.629,975.6,585.83,975.6Zm0,0.888c1.044,0,1.619.768,1.619,2.411s-0.575,2.422-1.631,2.422-1.631-.767-1.631-2.41S584.775,976.483,585.83,976.483Zm7.308-.888a2.292,2.292,0,0,0-1.931,1.08l-0.1-.936h-0.948v6.321h1.1v-4.486a1.912,1.912,0,0,1,1.607-1.115c0.612,0,1,.276,1,1.223v4.378h1.1v-4.534A1.73,1.73,0,0,0,593.138,975.6Zm6.528,5.421a1.545,1.545,0,0,1-.84.276c-0.551,0-.755-0.3-0.755-0.935v-3.766h1.379l0.12-.852h-1.5V974.18l-1.1.132v1.427h-1.1v0.852h1.1v3.814a1.588,1.588,0,0,0,1.7,1.8,2.411,2.411,0,0,0,1.416-.432Zm5.915-2.3c0-1.931-.9-3.119-2.6-3.119-1.631,0-2.626,1.4-2.626,3.371,0,2,1.031,3.238,2.794,3.238a3.444,3.444,0,0,0,2.207-.792l-0.48-.659a2.664,2.664,0,0,1-1.643.551c-0.911,0-1.6-.563-1.7-2.027h4.03C605.569,979.133,605.581,978.93,605.581,978.714Zm-1.092-.252h-2.962c0.084-1.4.636-1.991,1.475-1.991,1,0,1.487.684,1.487,1.919v0.072Zm5.593-2.867a2.291,2.291,0,0,0-1.931,1.08l-0.1-.936h-0.948v6.321h1.1v-4.486a1.91,1.91,0,0,1,1.607-1.115c0.611,0,1,.276,1,1.223v4.378h1.1v-4.534A1.73,1.73,0,0,0,610.082,975.6Zm6.528,5.421a1.545,1.545,0,0,1-.84.276c-0.552,0-.755-0.3-0.755-0.935v-3.766h1.379l0.12-.852h-1.5V974.18l-1.1.132v1.427h-1.1v0.852h1.1v3.814a1.588,1.588,0,0,0,1.7,1.8,2.4,2.4,0,0,0,1.415-.432Zm-13.849,21.044h1.2l-2.638-8.263h-1.44l-2.65,8.263h1.151l0.624-2.075h3.13Zm-3.478-3,1.295-4.317,1.283,4.317h-2.578Zm6.852,3.139a1.876,1.876,0,0,0,.875-0.21l-0.288-.77a1.038,1.038,0,0,1-.407.07c-0.288,0-.4-0.17-0.4-0.5v-7.725l-1.1.132v7.613A1.243,1.243,0,0,0,606.135,1002.2Zm9.176-6.461h-1.055l-1.151,5.551-1.188-5.551h-1.235l-1.247,5.551-1.14-5.551h-1.1l1.475,6.321h1.463l1.14-5.325,1.1,5.325h1.5Zm5.342,4.841v-2.886a1.925,1.925,0,0,0-2.219-2.1,6.19,6.19,0,0,0-2.183.432l0.276,0.8a5.655,5.655,0,0,1,1.7-.336,1.107,1.107,0,0,1,1.32,1.247v0.468h-0.972c-1.763,0-2.782.731-2.782,2.09a1.835,1.835,0,0,0,2.014,1.9,2.145,2.145,0,0,0,1.883-.94,1.27,1.27,0,0,0,1.236.94l0.252-.76A0.754,0.754,0,0,1,620.653,1000.58Zm-2.591.8a1,1,0,0,1-1.091-1.14c0-.867.588-1.3,1.751-1.3h0.828v1.449A1.631,1.631,0,0,1,618.062,1001.38Zm9.083-5.641h-1.14l-1.655,5.521-1.691-5.521h-1.175l2.123,6.321h0.371a2.149,2.149,0,0,1-2,1.69l0.12,0.86a3.207,3.207,0,0,0,2.939-2.51Zm2.677-.144c-1.307,0-2.279.732-2.279,1.739,0,0.888.54,1.476,1.907,1.835,1.224,0.324,1.535.564,1.535,1.191a1.117,1.117,0,0,1-1.355.96,2.838,2.838,0,0,1-1.775-.62l-0.587.68a3.5,3.5,0,0,0,2.386.82c1.284,0,2.5-.6,2.5-1.92,0-1.1-.768-1.626-2.1-1.962-1.019-.264-1.355-0.5-1.355-1.02a0.962,0.962,0,0,1,1.163-.827,2.912,2.912,0,0,1,1.643.54l0.468-.7A3.355,3.355,0,0,0,629.822,995.6ZM601.31,1013.65c-2.063,0-3.49,1.57-3.49,4.3,0,2.77,1.427,4.25,3.49,4.25s3.49-1.53,3.49-4.27C604.8,1015.15,603.385,1013.65,601.31,1013.65Zm0,0.94c1.415,0,2.278.97,2.278,3.34,0,2.4-.887,3.34-2.278,3.34-1.344,0-2.279-.94-2.279-3.32S599.93,1014.59,601.31,1014.59Zm7.968,1.01a2.3,2.3,0,0,0-1.931,1.07l-0.1-.93H606.3v6.32h1.1v-4.49a1.907,1.907,0,0,1,1.607-1.11c0.611,0,1,.27,1,1.22v4.38h1.1v-4.53A1.729,1.729,0,0,0,609.278,1015.6Zm5.016,6.6a1.877,1.877,0,0,0,.876-0.21l-0.288-.77a1.04,1.04,0,0,1-.408.07c-0.287,0-.4-0.17-0.4-0.5v-7.73l-1.1.14v7.61A1.243,1.243,0,0,0,614.294,1022.2Zm6.6-6.46h-1.14l-1.655,5.52-1.691-5.52h-1.175l2.122,6.32h0.372a2.149,2.149,0,0,1-2,1.69l0.12,0.86a3.207,3.207,0,0,0,2.939-2.51Zm4.382-3.03a0.746,0.746,0,1,0,.779.75A0.731,0.731,0,0,0,625.275,1012.71Zm0.563,3.03h-1.1v6.32h1.1v-6.32Zm4.955-.14a2.3,2.3,0,0,0-1.931,1.07l-0.1-.93h-0.947v6.32h1.1v-4.49a1.909,1.909,0,0,1,1.607-1.11c0.612,0,1,.27,1,1.22v4.38h1.1v-4.53A1.728,1.728,0,0,0,630.793,1015.6Zm8.869-1.8h-2.171v8.26h1.139v-3.03h1.044c1.823,0,3.2-.78,3.2-2.68C642.876,1014.61,641.653,1013.8,639.662,1013.8Zm-0.036,4.33h-1v-3.45h1.02c1.223,0,2.015.45,2.015,1.68C641.665,1017.77,640.849,1018.13,639.626,1018.13Zm7.223-2.53a1.806,1.806,0,0,0-1.691,1.42l-0.108-1.28H644.1v6.32h1.1v-3.61c0.264-1.21.72-1.78,1.511-1.78a1.905,1.905,0,0,1,.552.08l0.2-1.08A2.585,2.585,0,0,0,646.849,1015.6Zm2.125-2.89a0.746,0.746,0,1,0,.78.75A0.73,0.73,0,0,0,648.974,1012.71Zm0.564,3.03h-1.1v6.32h1.1v-6.32Zm6.622,0H655l-1.643,5.34-1.655-5.34h-1.2l2.183,6.32h1.331Zm5.22,4.84v-2.89a1.918,1.918,0,0,0-2.219-2.09,6.132,6.132,0,0,0-2.182.43l0.275,0.8a5.876,5.876,0,0,1,1.7-.34,1.109,1.109,0,0,1,1.319,1.25v0.47h-0.972c-1.763,0-2.782.73-2.782,2.09a1.836,1.836,0,0,0,2.015,1.9,2.147,2.147,0,0,0,1.883-.94,1.269,1.269,0,0,0,1.235.94l0.252-.76A0.754,0.754,0,0,1,661.38,1020.58Zm-2.59.8a1,1,0,0,1-1.092-1.14c0-.87.588-1.3,1.751-1.3h0.828v1.45A1.631,1.631,0,0,1,658.79,1021.38Zm7.331-.36a1.55,1.55,0,0,1-.84.27c-0.551,0-.755-0.3-0.755-0.93v-3.77h1.379l0.12-.85h-1.5v-1.56l-1.1.13v1.43h-1.1v0.85h1.1v3.81a1.587,1.587,0,0,0,1.7,1.8,2.4,2.4,0,0,0,1.416-.43Zm5.915-2.31c0-1.93-.9-3.11-2.6-3.11-1.631,0-2.626,1.4-2.626,3.37,0,2,1.031,3.23,2.794,3.23a3.454,3.454,0,0,0,2.207-.79l-0.48-.66a2.62,2.62,0,0,1-1.643.55c-0.911,0-1.595-.56-1.7-2.02h4.03C672.024,1019.13,672.036,1018.93,672.036,1018.71Zm-1.092-.25h-2.962c0.084-1.4.636-1.99,1.475-1.99,1,0,1.487.68,1.487,1.92v0.07Zm9.2-.77a1.833,1.833,0,0,0,1.547-1.81c0-1.44-1.2-2.08-3.238-2.08H676.5v8.26h2.279c1.919,0,3.274-.6,3.274-2.35A1.952,1.952,0,0,0,680.148,1017.69Zm-1.571-2.99c1.223,0,1.955.25,1.955,1.27a1.418,1.418,0,0,1-1.643,1.33h-1.247v-2.6h0.935Zm0.2,6.45h-1.139v-2.98H679c1,0,1.859.38,1.859,1.54C680.856,1020.91,679.98,1021.15,678.781,1021.15Zm7.4-5.55a1.806,1.806,0,0,0-1.692,1.42l-0.107-1.28h-0.948v6.32h1.1v-3.61c0.264-1.21.72-1.78,1.512-1.78a1.9,1.9,0,0,1,.551.08l0.2-1.08A2.583,2.583,0,0,0,686.185,1015.6Zm3.84,0c-1.8,0-2.831,1.35-2.831,3.31,0,2,1.02,3.29,2.819,3.29s2.818-1.35,2.818-3.31C692.831,1016.89,691.824,1015.6,690.025,1015.6Zm0,0.88c1.043,0,1.619.77,1.619,2.41,0,1.66-.576,2.43-1.631,2.43s-1.631-.77-1.631-2.41C688.382,1017.25,688.969,1016.48,690.025,1016.48Zm11.433-.74H700.4l-1.152,5.55-1.187-5.55h-1.235l-1.248,5.55-1.139-5.55h-1.1l1.475,6.32h1.463l1.139-5.33,1.1,5.33h1.5Zm2.8-.14c-1.307,0-2.279.73-2.279,1.73,0,0.89.54,1.48,1.907,1.84,1.224,0.32,1.535.56,1.535,1.19a1.117,1.117,0,0,1-1.355.96,2.838,2.838,0,0,1-1.775-.62l-0.588.68a3.5,3.5,0,0,0,2.387.82c1.283,0,2.495-.6,2.495-1.92,0-1.1-.768-1.63-2.1-1.96-1.02-.27-1.355-0.51-1.355-1.02a0.96,0.96,0,0,1,1.163-.83,2.914,2.914,0,0,1,1.643.54l0.468-.69A3.333,3.333,0,0,0,704.257,1015.6Zm4.129-2.89a0.746,0.746,0,1,0,.779.75A0.731,0.731,0,0,0,708.386,1012.71Zm0.563,3.03h-1.1v6.32h1.1v-6.32Zm4.955-.14a2.3,2.3,0,0,0-1.931,1.07l-0.1-.93H710.93v6.32h1.1v-4.49a1.909,1.909,0,0,1,1.607-1.11c0.612,0,1,.27,1,1.22v4.38h1.1v-4.53A1.728,1.728,0,0,0,713.9,1015.6Zm8.531-.57a5.436,5.436,0,0,1-2.89.57,2.252,2.252,0,0,0-2.435,2.2,1.8,1.8,0,0,0,1.068,1.75,1.377,1.377,0,0,0-.7,1.12c0,0.63.5,1.2,1.631,1.2h1c0.791,0,1.271.3,1.271,0.9,0,0.63-.48.98-1.847,0.98-1.391,0-1.715-.34-1.715-1.05h-1c0,1.28.648,1.91,2.711,1.91,1.955,0,2.962-.69,2.962-1.91a1.9,1.9,0,0,0-2.159-1.76h-1.007c-0.648,0-.828-0.22-0.828-0.51a0.76,0.76,0,0,1,.312-0.59,2.68,2.68,0,0,0,.8.12,2.152,2.152,0,0,0,2.411-2.15,1.655,1.655,0,0,0-1.116-1.59,6.094,6.094,0,0,0,1.847-.19Zm-2.89,1.36a1.225,1.225,0,0,1,1.355,1.4,1.258,1.258,0,0,1-1.331,1.44,1.282,1.282,0,0,1-1.331-1.43A1.259,1.259,0,0,1,719.545,1016.39Zm13.281-.79a2.192,2.192,0,0,0-1.883,1.13,1.6,1.6,0,0,0-1.6-1.13,2.119,2.119,0,0,0-1.823,1.06l-0.1-.92h-0.947v6.32h1.1v-4.49a1.775,1.775,0,0,1,1.487-1.11c0.48,0,.888.27,0.888,1.22v4.38h1.1v-4.49a1.79,1.79,0,0,1,1.487-1.11c0.48,0,.888.27,0.888,1.22v4.38h1.1v-4.53A1.712,1.712,0,0,0,732.826,1015.6Zm6.014,0c-1.8,0-2.83,1.35-2.83,3.31,0,2,1.019,3.29,2.818,3.29s2.819-1.35,2.819-3.31C741.647,1016.89,740.639,1015.6,738.84,1015.6Zm0,0.88c1.044,0,1.619.77,1.619,2.41,0,1.66-.575,2.43-1.631,2.43s-1.631-.77-1.631-2.41C737.2,1017.25,737.785,1016.48,738.84,1016.48Zm8.124-3.42v3.31a2.277,2.277,0,0,0-1.7-.77c-1.548,0-2.483,1.4-2.483,3.33,0,1.97.851,3.27,2.387,3.27a2.105,2.105,0,0,0,1.823-1.02l0.108,0.88h0.971v-8.86Zm-1.56,8.27c-0.911,0-1.439-.76-1.439-2.42s0.588-2.44,1.535-2.44a1.8,1.8,0,0,1,1.464.83v3.09A1.813,1.813,0,0,1,745.4,1021.33Zm9.419-2.62c0-1.93-.9-3.11-2.6-3.11-1.631,0-2.626,1.4-2.626,3.37,0,2,1.031,3.23,2.794,3.23a3.454,3.454,0,0,0,2.207-.79l-0.48-.66a2.619,2.619,0,0,1-1.643.55c-0.911,0-1.6-.56-1.7-2.02h4.03C754.811,1019.13,754.823,1018.93,754.823,1018.71Zm-1.091-.25h-2.963c0.084-1.4.636-1.99,1.475-1.99,1,0,1.488.68,1.488,1.92v0.07Zm-149.58,15.34h-1.067v4.51c0,1,.132,2.32.156,2.51l-3.395-7.02h-1.487v8.26h1.068v-3.79c0-1.54-.1-2.54-0.156-3.23l3.358,7.02h1.523v-8.26Zm6.817,4.91c0-1.93-.9-3.11-2.6-3.11-1.631,0-2.626,1.4-2.626,3.37,0,2,1.031,3.23,2.794,3.23a3.454,3.454,0,0,0,2.207-.79l-0.48-.66a2.62,2.62,0,0,1-1.643.55c-0.912,0-1.6-.56-1.7-2.02h4.03C610.957,1039.13,610.969,1038.93,610.969,1038.71Zm-1.092-.25h-2.962c0.084-1.4.636-1.99,1.475-1.99,1,0,1.487.68,1.487,1.92v0.07Zm7.14-2.72h-1.164l-1.643,5.34-1.655-5.34h-1.2l2.183,6.32h1.331Zm5.616,2.97c0-1.93-.9-3.11-2.6-3.11-1.631,0-2.627,1.4-2.627,3.37,0,2,1.032,3.23,2.795,3.23a3.456,3.456,0,0,0,2.207-.79l-0.48-.66a2.622,2.622,0,0,1-1.643.55c-0.912,0-1.6-.56-1.7-2.02h4.03C622.621,1039.13,622.633,1038.93,622.633,1038.71Zm-1.092-.25h-2.962c0.084-1.4.635-1.99,1.475-1.99,1,0,1.487.68,1.487,1.92v0.07Zm5.364-2.86a1.806,1.806,0,0,0-1.691,1.42l-0.107-1.28h-0.948v6.32h1.1v-3.61c0.264-1.21.72-1.78,1.512-1.78a1.9,1.9,0,0,1,.551.08l0.2-1.08A2.585,2.585,0,0,0,626.905,1035.6Z" transform="translate(-576 -842.5)"/>
  <circle class="cls-2" cx="7" cy="156.5" r="6"/>
  <circle id="Ellipse_1_copy" data-name="Ellipse 1 copy" class="cls-2" cx="7" cy="175.5" r="6"/>
  <circle id="Ellipse_1_copy_3" data-name="Ellipse 1 copy 3" class="cls-3" cx="7" cy="175.5" r="3"/>
  <circle id="Ellipse_1_copy_2" data-name="Ellipse 1 copy 2" class="cls-2" cx="7" cy="195.5" r="6"/>
</svg>
