<svg id="Example_1b.svg" xmlns="http://www.w3.org/2000/svg" width="178.81" height="72.5" viewBox="0 0 178.81 72.5">
  <defs>
    <style>
      .cls-1, .cls-3 {
        fill: #2284e6;
      }

      .cls-1 {
        fill-rule: evenodd;
      }

      .cls-2 {
        fill: none;
        stroke: #2284e6;
        stroke-linejoin: round;
        stroke-width: 2px;
      }
    </style>
  </defs>
  <path id="Tracking_Protection_Always_Only_in_Private_Browsin" data-name="Tracking Protection       Always        Only in Private Browsin" class="cls-1" d="M882.3,843.773h-6.153v1.259h2.231v7.028h1.6v-7.028h2.159Zm2.893,1.774a1.785,1.785,0,0,0-1.655,1.416l-0.144-1.248H882.06v6.345H883.6v-3.37c0.24-1.08.623-1.643,1.4-1.643a2.136,2.136,0,0,1,.564.072l0.263-1.488A2.19,2.19,0,0,0,885.19,845.547Zm5.747,4.834v-2.663c0-1.4-.744-2.183-2.435-2.183a6.539,6.539,0,0,0-2.3.456l0.359,1.044a5.664,5.664,0,0,1,1.68-.336,0.972,0.972,0,0,1,1.187,1.1v0.36h-0.792c-1.847,0-2.89.744-2.89,2.123a1.884,1.884,0,0,0,2.051,1.955,2.161,2.161,0,0,0,1.9-.948,1.449,1.449,0,0,0,1.4.924l0.324-1.02A0.713,0.713,0,0,1,890.937,850.381Zm-2.734.743a0.839,0.839,0,0,1-.9-0.959c0-.744.492-1.1,1.487-1.1h0.636v1.283A1.356,1.356,0,0,1,888.2,851.124Zm6.851-5.589c-1.823,0-2.962,1.38-2.962,3.407s1.139,3.3,2.974,3.3a3.128,3.128,0,0,0,2.051-.732l-0.684-.971a2.2,2.2,0,0,1-1.283.455c-0.864,0-1.427-.539-1.427-2.074s0.54-2.171,1.427-2.171a2.028,2.028,0,0,1,1.283.455l0.684-.923A2.954,2.954,0,0,0,895.054,845.535Zm4.417-2.53-1.536.168v8.887h1.536v-9.055Zm3.8,2.71h-1.62l-2.122,2.879,2.182,3.466h1.763l-2.314-3.55ZM904.8,842.5a0.93,0.93,0,1,0,.971.936A0.92,0.92,0,0,0,904.8,842.5Zm0.78,3.214h-1.536v6.345h1.536v-6.345Zm4.931-.18a2.376,2.376,0,0,0-1.931,1.02l-0.12-.84h-1.332v6.345h1.536v-4.414a1.64,1.64,0,0,1,1.331-.959c0.48,0,.779.228,0.779,1.019v4.354h1.536v-4.593A1.71,1.71,0,0,0,910.51,845.535Zm8.422-.707a5.139,5.139,0,0,1-2.962.707,2.348,2.348,0,0,0-2.626,2.279,1.848,1.848,0,0,0,1.115,1.787,1.433,1.433,0,0,0-.744,1.175c0,0.66.54,1.224,1.811,1.224h0.96c0.707,0,1.079.288,1.079,0.756,0,0.5-.36.839-1.6,0.839-1.259,0-1.535-.276-1.535-0.911h-1.379c0,1.271.635,1.99,2.89,1.99,2.075,0,3.166-.755,3.166-2.026,0-1.044-.911-1.8-2.314-1.8h-0.972c-0.635,0-.767-0.216-0.767-0.444a0.576,0.576,0,0,1,.264-0.468,2.55,2.55,0,0,0,.755.1c1.6,0,2.555-.9,2.555-2.135a1.67,1.67,0,0,0-1.152-1.631,5.689,5.689,0,0,0,1.835-.216Zm-2.938,1.751a1.038,1.038,0,0,1,1.152,1.2,1.082,1.082,0,0,1-1.128,1.259,1.1,1.1,0,0,1-1.127-1.247A1.076,1.076,0,0,1,915.994,846.579Zm9.144-2.806h-2.447v8.287h1.583v-2.891h0.972c1.871,0,3.25-.851,3.25-2.758C928.5,844.624,927.225,843.773,925.138,843.773Zm-0.012,4.209h-0.852v-3.046h0.852c1.079,0,1.715.432,1.715,1.475C926.841,847.622,926.181,847.982,925.126,847.982Zm7.439-2.435a1.786,1.786,0,0,0-1.655,1.416l-0.144-1.248h-1.331v6.345h1.535v-3.37c0.24-1.08.624-1.643,1.4-1.643a2.136,2.136,0,0,1,.564.072l0.264-1.488A2.2,2.2,0,0,0,932.565,845.547Zm3.769-.012c-1.883,0-3,1.356-3,3.347,0,2.086,1.116,3.358,2.987,3.358s2.986-1.356,2.986-3.358C939.308,846.807,938.205,845.535,936.334,845.535Zm0,1.164c0.887,0,1.355.671,1.355,2.183s-0.468,2.194-1.367,2.194-1.368-.671-1.368-2.194C934.954,847.382,935.434,846.7,936.334,846.7Zm7.211,4.065a1.41,1.41,0,0,1-.755.24c-0.468,0-.672-0.251-0.672-0.875v-3.31h1.319l0.156-1.1h-1.475v-1.583l-1.535.18v1.4h-1v1.1h1v3.346a1.79,1.79,0,0,0,1.907,2.075,2.773,2.773,0,0,0,1.6-.48Zm6.191-2.026c0-2-1.019-3.2-2.794-3.2-1.8,0-2.819,1.464-2.819,3.394,0,2,1.056,3.311,3.023,3.311a3.644,3.644,0,0,0,2.35-.852l-0.635-.875a2.643,2.643,0,0,1-1.583.563c-0.84,0-1.44-.419-1.56-1.715H949.7C949.712,849.194,949.736,848.942,949.736,848.738Zm-1.523-.372h-2.5c0.084-1.259.54-1.739,1.26-1.739,0.863,0,1.235.624,1.235,1.667v0.072Zm5.2-2.831c-1.823,0-2.963,1.38-2.963,3.407s1.14,3.3,2.975,3.3a3.125,3.125,0,0,0,2.05-.732l-0.683-.971a2.206,2.206,0,0,1-1.284.455c-0.863,0-1.427-.539-1.427-2.074s0.54-2.171,1.427-2.171a2.033,2.033,0,0,1,1.284.455l0.683-.923A2.951,2.951,0,0,0,953.41,845.535Zm5.975,5.229a1.413,1.413,0,0,1-.755.24c-0.468,0-.672-0.251-0.672-0.875v-3.31h1.319l0.156-1.1h-1.475v-1.583l-1.535.18v1.4h-1v1.1h1v3.346a1.79,1.79,0,0,0,1.907,2.075,2.775,2.775,0,0,0,1.595-.48Zm1.861-8.263a0.93,0.93,0,1,0,.972.936A0.921,0.921,0,0,0,961.246,842.5Zm0.78,3.214h-1.535v6.345h1.535v-6.345Zm4.139-.18c-1.883,0-3,1.356-3,3.347,0,2.086,1.115,3.358,2.987,3.358s2.986-1.356,2.986-3.358C969.14,846.807,968.036,845.535,966.165,845.535Zm0,1.164c0.888,0,1.356.671,1.356,2.183s-0.468,2.194-1.367,2.194-1.368-.671-1.368-2.194C964.786,847.382,965.266,846.7,966.165,846.7Zm7.5-1.164a2.378,2.378,0,0,0-1.931,1.02l-0.12-.84h-1.331v6.345h1.535v-4.414a1.642,1.642,0,0,1,1.331-.959c0.48,0,.78.228,0.78,1.019v4.354h1.535v-4.593A1.71,1.71,0,0,0,973.665,845.535Zm-71.9,26.525h1.2l-2.638-8.264h-1.44l-2.65,8.264h1.151l0.624-2.075h3.13Zm-3.478-3,1.295-4.317,1.283,4.317h-2.578Zm6.852,3.143a1.854,1.854,0,0,0,.875-0.216l-0.288-.768a1.076,1.076,0,0,1-.408.072c-0.287,0-.395-0.168-0.395-0.5v-7.723l-1.1.132v7.616A1.244,1.244,0,0,0,905.135,872.2Zm9.176-6.465h-1.055l-1.151,5.553-1.188-5.553h-1.235l-1.247,5.553-1.14-5.553h-1.1l1.475,6.321h1.463l1.14-5.325,1.1,5.325h1.5Zm5.342,4.846v-2.891a1.925,1.925,0,0,0-2.219-2.1,6.186,6.186,0,0,0-2.183.432l0.276,0.8a5.661,5.661,0,0,1,1.7-.336,1.106,1.106,0,0,1,1.319,1.247v0.468h-0.971c-1.763,0-2.782.731-2.782,2.087a1.837,1.837,0,0,0,2.014,1.907,2.152,2.152,0,0,0,1.883-.948,1.275,1.275,0,0,0,1.236.948l0.252-.768A0.749,0.749,0,0,1,919.653,870.585Zm-2.591.791a1,1,0,0,1-1.091-1.139c0-.864.588-1.3,1.751-1.3h0.827v1.452A1.622,1.622,0,0,1,917.062,871.376Zm9.083-5.637h-1.14l-1.655,5.517-1.691-5.517h-1.175l2.123,6.321h0.371a2.153,2.153,0,0,1-2,1.691l0.12,0.864a3.214,3.214,0,0,0,2.939-2.519Zm2.677-.144c-1.307,0-2.279.732-2.279,1.739,0,0.888.54,1.476,1.907,1.835,1.224,0.324,1.536.564,1.536,1.188a1.117,1.117,0,0,1-1.356.959,2.872,2.872,0,0,1-1.775-.611l-0.587.671a3.5,3.5,0,0,0,2.386.828c1.284,0,2.5-.6,2.5-1.919,0-1.1-.768-1.631-2.1-1.967-1.019-.264-1.355-0.5-1.355-1.02a0.962,0.962,0,0,1,1.163-.827,2.912,2.912,0,0,1,1.643.54l0.468-.7A3.355,3.355,0,0,0,928.822,865.6ZM900.31,883.652c-2.063,0-3.49,1.572-3.49,4.294,0,2.771,1.427,4.258,3.49,4.258s3.49-1.535,3.49-4.27C903.8,885.152,902.385,883.652,900.31,883.652Zm0,0.936c1.415,0,2.278.971,2.278,3.346,0,2.4-.887,3.334-2.278,3.334-1.344,0-2.279-.935-2.279-3.322S898.93,884.588,900.31,884.588Zm7.968,1.007a2.291,2.291,0,0,0-1.931,1.08l-0.1-.936H905.3v6.321h1.1v-4.486a1.91,1.91,0,0,1,1.607-1.115c0.611,0,1,.276,1,1.223v4.378h1.1v-4.534A1.73,1.73,0,0,0,908.278,885.6Zm5.016,6.609a1.855,1.855,0,0,0,.876-0.216l-0.288-.768a1.076,1.076,0,0,1-.408.072c-0.288,0-.4-0.168-0.4-0.5v-7.723l-1.1.132v7.616A1.244,1.244,0,0,0,913.294,892.2Zm6.6-6.465h-1.14l-1.655,5.517-1.691-5.517h-1.175l2.123,6.321h0.371a2.153,2.153,0,0,1-2,1.691l0.12,0.863a3.212,3.212,0,0,0,2.939-2.518Zm4.382-3.034a0.75,0.75,0,1,0,.779.756A0.734,0.734,0,0,0,924.275,882.705Zm0.563,3.034h-1.1v6.321h1.1v-6.321Zm4.955-.144a2.294,2.294,0,0,0-1.931,1.08l-0.1-.936h-0.947v6.321h1.1v-4.486a1.913,1.913,0,0,1,1.607-1.115c0.612,0,1,.276,1,1.223v4.378h1.1v-4.534A1.729,1.729,0,0,0,929.793,885.6Zm8.869-1.8h-2.171v8.263h1.139v-3.034h1.044c1.823,0,3.2-.78,3.2-2.675C941.876,884.612,940.653,883.8,938.662,883.8Zm-0.036,4.329h-1v-3.442h1.02c1.223,0,2.015.444,2.015,1.679C940.665,887.766,939.849,888.126,938.626,888.126Zm7.223-2.531a1.805,1.805,0,0,0-1.691,1.428l-0.108-1.284H943.1v6.321h1.1v-3.61c0.264-1.211.72-1.775,1.511-1.775a1.984,1.984,0,0,1,.552.072l0.2-1.08A2.69,2.69,0,0,0,945.849,885.6Zm2.125-2.89a0.75,0.75,0,1,0,.78.756A0.734,0.734,0,0,0,947.974,882.705Zm0.564,3.034h-1.1v6.321h1.1v-6.321Zm6.622,0H954l-1.643,5.337-1.655-5.337h-1.2l2.183,6.321h1.331Zm5.22,4.846v-2.891a1.924,1.924,0,0,0-2.219-2.1,6.181,6.181,0,0,0-2.182.432l0.275,0.8a5.661,5.661,0,0,1,1.7-.336,1.106,1.106,0,0,1,1.319,1.247v0.468h-0.972c-1.763,0-2.782.731-2.782,2.087a1.837,1.837,0,0,0,2.015,1.907,2.154,2.154,0,0,0,1.883-.948,1.274,1.274,0,0,0,1.235.948l0.252-.768A0.749,0.749,0,0,1,960.38,890.585Zm-2.59.791a1,1,0,0,1-1.092-1.139c0-.864.588-1.3,1.751-1.3h0.828v1.452A1.624,1.624,0,0,1,957.79,891.376Zm7.331-.36a1.545,1.545,0,0,1-.84.276c-0.551,0-.755-0.3-0.755-0.935v-3.766h1.379l0.12-.852h-1.5V884.18l-1.1.132v1.427h-1.1v0.852h1.1v3.814a1.588,1.588,0,0,0,1.7,1.8,2.411,2.411,0,0,0,1.416-.432Zm5.915-2.3c0-1.931-.9-3.119-2.6-3.119-1.631,0-2.626,1.4-2.626,3.371,0,2,1.031,3.238,2.794,3.238a3.444,3.444,0,0,0,2.207-.792l-0.48-.659a2.664,2.664,0,0,1-1.643.551c-0.911,0-1.595-.563-1.7-2.027h4.03C971.024,889.133,971.036,888.93,971.036,888.714Zm-1.092-.252h-2.962c0.084-1.4.636-1.991,1.475-1.991,1,0,1.487.684,1.487,1.919v0.072Zm9.2-.768a1.84,1.84,0,0,0,1.547-1.811c0-1.439-1.2-2.086-3.238-2.086H975.5v8.263h2.279c1.919,0,3.274-.6,3.274-2.351A1.944,1.944,0,0,0,979.148,887.694Zm-1.571-3c1.223,0,1.955.252,1.955,1.271a1.415,1.415,0,0,1-1.643,1.331h-1.247v-2.6h0.935Zm0.2,6.452h-1.139v-2.974H978c1,0,1.859.372,1.859,1.535C979.856,890.908,978.98,891.148,977.781,891.148Zm7.4-5.553a1.8,1.8,0,0,0-1.691,1.428l-0.108-1.284h-0.948v6.321h1.1v-3.61c0.264-1.211.72-1.775,1.512-1.775a1.976,1.976,0,0,1,.551.072l0.2-1.08A2.688,2.688,0,0,0,985.185,885.6Zm3.84,0c-1.8,0-2.831,1.356-2.831,3.311,0,2,1.02,3.3,2.819,3.3s2.818-1.355,2.818-3.31C991.831,886.891,990.824,885.6,989.025,885.6Zm0,0.888c1.043,0,1.619.768,1.619,2.411s-0.576,2.422-1.631,2.422-1.631-.767-1.631-2.41S987.969,886.483,989.025,886.483Zm11.435-.744H999.4l-1.152,5.553-1.187-5.553h-1.235l-1.248,5.553-1.139-5.553h-1.1l1.475,6.321h1.463l1.139-5.325,1.1,5.325h1.5Zm2.8-.144c-1.31,0-2.28.732-2.28,1.739,0,0.888.54,1.476,1.91,1.835,1.22,0.324,1.53.564,1.53,1.188a1.115,1.115,0,0,1-1.35.959,2.863,2.863,0,0,1-1.78-.611l-0.59.671a3.5,3.5,0,0,0,2.39.828c1.28,0,2.49-.6,2.49-1.919,0-1.1-.76-1.631-2.1-1.967-1.01-.264-1.35-0.5-1.35-1.02a0.959,0.959,0,0,1,1.16-.827,2.945,2.945,0,0,1,1.65.54l0.46-.7A3.352,3.352,0,0,0,1003.26,885.6Zm4.13-2.89a0.75,0.75,0,1,0,.78.756A0.742,0.742,0,0,0,1007.39,882.705Zm0.56,3.034h-1.1v6.321h1.1v-6.321Zm4.95-.144a2.312,2.312,0,0,0-1.93,1.08l-0.09-.936h-0.95v6.321h1.1v-4.486a1.913,1.913,0,0,1,1.61-1.115c0.61,0,1,.276,1,1.223v4.378h1.1v-4.534A1.73,1.73,0,0,0,1012.9,885.6Zm8.54-.563a5.465,5.465,0,0,1-2.9.563,2.251,2.251,0,0,0-2.43,2.207,1.814,1.814,0,0,0,1.07,1.751,1.369,1.369,0,0,0-.7,1.116c0,0.635.51,1.2,1.63,1.2h1c0.79,0,1.27.3,1.27,0.9,0,0.636-.48.984-1.85,0.984-1.39,0-1.71-.336-1.71-1.055h-1c0,1.283.65,1.918,2.71,1.918,1.96,0,2.97-.7,2.97-1.918a1.9,1.9,0,0,0-2.16-1.751h-1.01c-0.65,0-.83-0.228-0.83-0.516a0.76,0.76,0,0,1,.31-0.588,2.614,2.614,0,0,0,.81.12,2.151,2.151,0,0,0,2.41-2.147,1.661,1.661,0,0,0-1.12-1.595,6.182,6.182,0,0,0,1.85-.192Zm-2.9,1.355a1.229,1.229,0,0,1,1.36,1.4,1.258,1.258,0,0,1-1.33,1.44,1.281,1.281,0,0,1-1.33-1.428A1.26,1.26,0,0,1,1018.54,886.387Zm13.29-.792a2.2,2.2,0,0,0-1.89,1.14,1.587,1.587,0,0,0-1.59-1.14,2.093,2.093,0,0,0-1.82,1.068l-0.1-.924h-0.95v6.321h1.11v-4.486a1.762,1.762,0,0,1,1.48-1.115c0.48,0,.89.276,0.89,1.223v4.378h1.1v-4.486a1.8,1.8,0,0,1,1.49-1.115c0.48,0,.89.276,0.89,1.223v4.378h1.1v-4.534A1.712,1.712,0,0,0,1031.83,885.6Zm6.01,0c-1.8,0-2.83,1.356-2.83,3.311,0,2,1.02,3.3,2.82,3.3s2.82-1.355,2.82-3.31C1040.65,886.891,1039.64,885.6,1037.84,885.6Zm0,0.888c1.04,0,1.62.768,1.62,2.411s-0.58,2.422-1.63,2.422-1.63-.767-1.63-2.41S1036.78,886.483,1037.84,886.483Zm8.12-3.418v3.31a2.269,2.269,0,0,0-1.7-.78c-1.55,0-2.48,1.4-2.48,3.335,0,1.966.85,3.274,2.38,3.274a2.127,2.127,0,0,0,1.83-1.02l0.11,0.876h0.97V883.2Zm-1.56,8.263c-0.91,0-1.43-.755-1.43-2.422,0-1.643.58-2.435,1.53-2.435a1.806,1.806,0,0,1,1.46.827v3.1A1.811,1.811,0,0,1,1044.4,891.328Zm9.42-2.614c0-1.931-.9-3.119-2.6-3.119-1.63,0-2.63,1.4-2.63,3.371,0,2,1.04,3.238,2.8,3.238a3.477,3.477,0,0,0,2.21-.792l-0.48-.659a2.688,2.688,0,0,1-1.65.551c-0.91,0-1.59-.563-1.7-2.027h4.03C1053.81,889.133,1053.82,888.93,1053.82,888.714Zm-1.09-.252h-2.96c0.08-1.4.63-1.991,1.47-1.991,1,0,1.49.684,1.49,1.919v0.072ZM903.152,903.8h-1.067v4.509c0,1.007.132,2.327,0.156,2.519l-3.394-7.028h-1.488v8.263h1.068v-3.79c0-1.535-.1-2.543-0.156-3.226l3.358,7.016h1.523V903.8Zm6.817,4.917c0-1.931-.9-3.119-2.6-3.119-1.631,0-2.626,1.4-2.626,3.37,0,2,1.031,3.239,2.794,3.239a3.444,3.444,0,0,0,2.207-.792l-0.48-.659a2.664,2.664,0,0,1-1.643.551c-0.912,0-1.6-.563-1.7-2.027h4.03C909.957,909.134,909.969,908.93,909.969,908.714Zm-1.092-.252h-2.962c0.084-1.4.636-1.991,1.475-1.991,1,0,1.487.684,1.487,1.919v0.072Zm7.14-2.723h-1.164l-1.643,5.338-1.655-5.338h-1.2l2.183,6.321h1.331Zm5.615,2.975c0-1.931-.9-3.119-2.6-3.119-1.631,0-2.627,1.4-2.627,3.37,0,2,1.032,3.239,2.795,3.239a3.446,3.446,0,0,0,2.207-.792l-0.48-.659a2.664,2.664,0,0,1-1.643.551c-0.912,0-1.6-.563-1.7-2.027h4.03C921.621,909.134,921.632,908.93,921.632,908.714Zm-1.091-.252h-2.962c0.084-1.4.635-1.991,1.475-1.991,1,0,1.487.684,1.487,1.919v0.072Zm5.365-2.867a1.805,1.805,0,0,0-1.692,1.428l-0.108-1.284h-0.947v6.321h1.1v-3.61c0.264-1.212.72-1.775,1.512-1.775a1.981,1.981,0,0,1,.551.072l0.2-1.08A2.688,2.688,0,0,0,925.906,905.6Z" transform="translate(-875 -842.5)"/>
  <circle class="cls-2" cx="7" cy="26.5" r="6"/>
  <circle id="Ellipse_1_copy" data-name="Ellipse 1 copy" class="cls-2" cx="7" cy="45.5" r="6"/>
  <circle id="Ellipse_1_copy_3" data-name="Ellipse 1 copy 3" class="cls-3" cx="7" cy="45.5" r="3"/>
  <circle id="Ellipse_1_copy_2" data-name="Ellipse 1 copy 2" class="cls-2" cx="7" cy="65.5" r="6"/>
</svg>
