<svg id="Example_2b.svg" xmlns="http://www.w3.org/2000/svg" width="201" height="238" viewBox="0 0 201 238">
  <defs>
    <style>
      .cls-1 {
        fill: none;
      }

      .cls-1, .cls-3 {
        stroke: #2ea3ff;
        stroke-linejoin: round;
        stroke-width: 1px;
      }

      .cls-2 {
        fill: #2284e6;
      }

      .cls-2, .cls-4 {
        fill-rule: evenodd;
      }

      .cls-3 {
        fill: #2ea3ff;
      }

      .cls-4 {
        fill: #fff;
      }
    </style>
  </defs>
  <rect class="cls-1" x="0.5" y="0.5" width="200" height="237"/>
  <path id="Remember_password_Sign_in." data-name="Remember password? Sign in." class="cls-2" d="M945.607,1655.75h1.017l-1.675-2.78a1.621,1.621,0,0,0,1.342-1.67c0-1.16-.81-1.75-2.359-1.75H942.3v6.2h0.855v-2.63h0.963Zm-2.449-3.29v-2.25h0.765c1.017,0,1.458.32,1.458,1.09a1.111,1.111,0,0,1-1.359,1.16h-0.864Zm7.813,0.78c0-1.45-.676-2.34-1.954-2.34-1.224,0-1.971,1.05-1.971,2.53,0,1.5.774,2.43,2.1,2.43a2.587,2.587,0,0,0,1.657-.6l-0.36-.49a1.984,1.984,0,0,1-1.234.41c-0.684,0-1.2-.42-1.278-1.52h3.025C950.962,1653.55,950.971,1653.4,950.971,1653.24Zm-0.82-.19h-2.223c0.063-1.05.477-1.5,1.107-1.5,0.747,0,1.116.52,1.116,1.45v0.05Zm6.724-2.15a1.647,1.647,0,0,0-1.413.85,1.193,1.193,0,0,0-1.2-.85,1.578,1.578,0,0,0-1.368.8l-0.072-.69h-0.712v4.74h0.829v-3.37a1.333,1.333,0,0,1,1.116-.83c0.36,0,.666.2,0.666,0.91v3.29h0.829v-3.37a1.344,1.344,0,0,1,1.116-.83c0.36,0,.666.2,0.666,0.91v3.29h0.828v-3.4A1.288,1.288,0,0,0,956.875,1650.9Zm6.308,2.34c0-1.45-.675-2.34-1.953-2.34-1.224,0-1.972,1.05-1.972,2.53,0,1.5.775,2.43,2.1,2.43a2.585,2.585,0,0,0,1.656-.6l-0.36-.49a1.98,1.98,0,0,1-1.233.41c-0.684,0-1.2-.42-1.278-1.52h3.025C963.175,1653.55,963.183,1653.4,963.183,1653.24Zm-0.819-.19h-2.223c0.063-1.05.477-1.5,1.107-1.5,0.747,0,1.116.52,1.116,1.45v0.05Zm6.724-2.15a1.648,1.648,0,0,0-1.414.85,1.191,1.191,0,0,0-1.2-.85,1.578,1.578,0,0,0-1.368.8l-0.072-.69h-0.712v4.74h0.829v-3.37a1.333,1.333,0,0,1,1.116-.83c0.36,0,.666.2,0.666,0.91v3.29h0.828v-3.37a1.345,1.345,0,0,1,1.117-.83c0.36,0,.666.2,0.666,0.91v3.29h0.828v-3.4A1.288,1.288,0,0,0,969.088,1650.9Zm4.895,0a1.6,1.6,0,0,0-1.342.7V1649l-0.828.1v6.65h0.73l0.081-.52a1.594,1.594,0,0,0,1.26.63c1.152,0,1.863-1,1.863-2.49C975.747,1651.79,975.054,1650.9,973.983,1650.9Zm-0.3,4.3a1.276,1.276,0,0,1-1.045-.64v-2.27a1.346,1.346,0,0,1,1.108-.74c0.666,0,1.107.47,1.107,1.82C974.856,1654.67,974.379,1655.2,973.686,1655.2Zm6.831-1.96c0-1.45-.675-2.34-1.953-2.34-1.225,0-1.972,1.05-1.972,2.53,0,1.5.774,2.43,2.1,2.43a2.585,2.585,0,0,0,1.656-.6l-0.36-.49a1.98,1.98,0,0,1-1.233.41c-0.684,0-1.2-.42-1.279-1.52H980.5C980.508,1653.55,980.517,1653.4,980.517,1653.24Zm-0.819-.19h-2.224c0.063-1.05.478-1.5,1.108-1.5,0.747,0,1.116.52,1.116,1.45v0.05Zm4.023-2.15a1.355,1.355,0,0,0-1.27,1.07l-0.081-.96h-0.711v4.74h0.828v-2.71c0.2-.91.541-1.33,1.135-1.33a1.759,1.759,0,0,1,.414.05l0.153-.81A2.4,2.4,0,0,0,983.721,1650.9Zm5.526,0a1.733,1.733,0,0,0-1.4.74l-0.063-.63h-0.711v6.66l0.828-.1v-2.25a1.528,1.528,0,0,0,1.243.54c1.224,0,1.863-1.05,1.863-2.49C991,1651.88,990.507,1650.9,989.247,1650.9Zm-0.306,4.28a1.214,1.214,0,0,1-1.045-.57v-2.32a1.441,1.441,0,0,1,1.144-.74c0.711,0,1.071.59,1.071,1.82C990.111,1654.62,989.7,1655.18,988.941,1655.18Zm6.444-.54v-2.17a1.441,1.441,0,0,0-1.666-1.57,4.772,4.772,0,0,0-1.638.32l0.207,0.6a4.3,4.3,0,0,1,1.278-.25,0.831,0.831,0,0,1,.991.94v0.35h-0.73c-1.323,0-2.088.55-2.088,1.57a1.381,1.381,0,0,0,1.512,1.43,1.628,1.628,0,0,0,1.414-.71,0.971,0.971,0,0,0,.927.71l0.189-.58A0.559,0.559,0,0,1,995.385,1654.64Zm-1.945.6a0.75,0.75,0,0,1-.819-0.86c0-.65.441-0.97,1.314-0.97h0.622v1.09A1.23,1.23,0,0,1,993.44,1655.24Zm4.707-4.34a1.5,1.5,0,0,0-1.71,1.3c0,0.67.4,1.11,1.431,1.38,0.918,0.24,1.152.42,1.152,0.89a0.838,0.838,0,0,1-1.017.72,2.139,2.139,0,0,1-1.332-.46l-0.441.51a2.63,2.63,0,0,0,1.791.62,1.611,1.611,0,0,0,1.873-1.44c0-.83-0.576-1.23-1.576-1.48-0.765-.2-1.017-0.38-1.017-0.76a0.727,0.727,0,0,1,.873-0.63,2.2,2.2,0,0,1,1.234.41l0.351-.52A2.533,2.533,0,0,0,998.147,1650.9Zm3.983,0a1.508,1.508,0,0,0-1.72,1.3c0,0.67.41,1.11,1.44,1.38,0.91,0.24,1.15.42,1.15,0.89a0.842,0.842,0,0,1-1.02.72,2.144,2.144,0,0,1-1.33-.46l-0.44.51a2.621,2.621,0,0,0,1.79.62,1.61,1.61,0,0,0,1.87-1.44c0-.83-0.57-1.23-1.57-1.48-0.77-.2-1.02-0.38-1.02-0.76a0.724,0.724,0,0,1,.87-0.63,2.236,2.236,0,0,1,1.24.41l0.35-.52A2.539,2.539,0,0,0,1002.13,1650.9Zm8.02,0.11h-0.8l-0.86,4.16-0.89-4.16h-0.93l-0.94,4.16-0.85-4.16h-0.83l1.11,4.74h1.1l0.85-4,0.83,4h1.13Zm2.5-.11c-1.35,0-2.13,1.01-2.13,2.48,0,1.51.77,2.48,2.12,2.48s2.11-1.02,2.11-2.49C1014.75,1651.87,1014,1650.9,1012.65,1650.9Zm0,0.66c0.78,0,1.21.58,1.21,1.81,0,1.25-.43,1.82-1.22,1.82s-1.23-.57-1.23-1.81S1011.85,1651.56,1012.65,1651.56Zm5.31-.66a1.35,1.35,0,0,0-1.27,1.07l-0.08-.96h-0.72v4.74h0.83v-2.71c0.2-.91.54-1.33,1.14-1.33a1.7,1.7,0,0,1,.41.05l0.15-.81A2.315,2.315,0,0,0,1017.96,1650.9Zm3.94-1.9v2.48a1.719,1.719,0,0,0-1.28-.58c-1.16,0-1.86,1.05-1.86,2.5,0,1.48.64,2.46,1.79,2.46a1.6,1.6,0,0,0,1.37-.77l0.08,0.66h0.73v-6.65Zm-1.17,6.2c-0.69,0-1.08-.57-1.08-1.82,0-1.23.44-1.83,1.15-1.83a1.37,1.37,0,0,1,1.1.63v2.32A1.367,1.367,0,0,1,1020.73,1655.2Zm4.77-5.76a2.337,2.337,0,0,0-1.87.89l0.56,0.44a1.592,1.592,0,0,1,1.25-.65,0.781,0.781,0,0,1,.91.78c0,0.97-1.58.82-1.58,2.33v0.45h0.82v-0.41c0-1.18,1.63-.99,1.63-2.43A1.51,1.51,0,0,0,1025.5,1649.44Zm-0.3,5.17a0.625,0.625,0,1,0,.63.62A0.617,0.617,0,0,0,1025.2,1654.61Zm6.65-5.17a1.735,1.735,0,0,0-1.95,1.62c0,0.96.63,1.42,1.84,1.79,1.05,0.33,1.34.6,1.34,1.2a1.162,1.162,0,0,1-1.34,1.11,2.42,2.42,0,0,1-1.62-.63l-0.47.53a2.9,2.9,0,0,0,2.1.8c1.4,0,2.22-.76,2.22-1.84,0-1.19-.85-1.57-1.84-1.88-1.12-.34-1.36-0.59-1.36-1.12a0.955,0.955,0,0,1,1.12-.88,2.123,2.123,0,0,1,1.41.54l0.47-.52A2.6,2.6,0,0,0,1031.85,1649.44Zm3.51-.71a0.56,0.56,0,1,0,0,1.12A0.561,0.561,0,1,0,1035.36,1648.73Zm0.42,2.28h-0.82v4.74h0.82v-4.74Zm5.07-.54a4.062,4.062,0,0,1-2.17.43,1.684,1.684,0,0,0-1.82,1.65,1.358,1.358,0,0,0,.8,1.32,0.94,0.94,0,0,0,.7,1.74h0.75c0.59,0,.95.22,0.95,0.67,0,0.48-.36.74-1.39,0.74s-1.28-.25-1.28-0.79h-0.75c0,0.96.49,1.44,2.03,1.44,1.47,0,2.23-.52,2.23-1.44a1.429,1.429,0,0,0-1.62-1.32h-0.76c-0.49,0-.62-0.17-0.62-0.38a0.588,0.588,0,0,1,.23-0.45,1.769,1.769,0,0,0,.61.09,1.614,1.614,0,0,0,1.81-1.61,1.238,1.238,0,0,0-.84-1.19,4.523,4.523,0,0,0,1.39-.15Zm-2.17,1.02a0.922,0.922,0,0,1,1.02,1.06,0.945,0.945,0,0,1-1,1.08,0.968,0.968,0,0,1-1-1.08A0.947,0.947,0,0,1,1038.68,1651.49Zm5.28-.59a1.709,1.709,0,0,0-1.45.81l-0.07-.7h-0.72v4.74h0.83v-3.37a1.447,1.447,0,0,1,1.21-.83c0.46,0,.75.2,0.75,0.91v3.29h0.82v-3.4A1.3,1.3,0,0,0,1043.96,1650.9Zm5.38-2.17a0.56,0.56,0,1,0,0,1.12A0.56,0.56,0,1,0,1049.34,1648.73Zm0.42,2.28h-0.83v4.74h0.83v-4.74Zm3.72-.11a1.709,1.709,0,0,0-1.45.81l-0.07-.7h-0.71v4.74h0.82v-3.37a1.447,1.447,0,0,1,1.21-.83c0.46,0,.75.2,0.75,0.91v3.29h0.83v-3.4A1.3,1.3,0,0,0,1053.48,1650.9Zm3.03,3.71a0.625,0.625,0,1,0,.63.62A0.617,0.617,0,0,0,1056.51,1654.61Z" transform="translate(-898.5 -1432.5)"/>
  <rect id="Rounded_Rectangle_2_copy" data-name="Rounded Rectangle 2 copy" class="cls-3" x="27.5" y="181.5" width="147" height="25" rx="4" ry="4"/>
  <path id="Reset_password" data-name="Reset password" class="cls-4" d="M964.361,1629.97h1.355l-2.231-3.71a2.157,2.157,0,0,0,1.787-2.22c0-1.54-1.079-2.33-3.142-2.33h-2.171v8.26h1.14v-3.5h1.283Zm-3.262-4.38v-3h1.019c1.355,0,1.943.42,1.943,1.45,0,1.12-.66,1.55-1.811,1.55H961.1Zm10.414,1.03c0-1.93-.9-3.12-2.6-3.12-1.631,0-2.627,1.41-2.627,3.37,0,2.01,1.032,3.24,2.795,3.24a3.456,3.456,0,0,0,2.207-.79l-0.48-.66a2.622,2.622,0,0,1-1.643.55c-0.912,0-1.6-.56-1.7-2.02h4.03C971.5,1627.04,971.513,1626.84,971.513,1626.62Zm-1.092-.25h-2.962c0.084-1.4.635-1.99,1.475-1.99,1,0,1.487.68,1.487,1.92v0.07Zm4.333-2.87c-1.307,0-2.279.74-2.279,1.74,0,0.89.54,1.48,1.907,1.84,1.224,0.32,1.535.56,1.535,1.19a1.117,1.117,0,0,1-1.355.96,2.838,2.838,0,0,1-1.775-.62l-0.588.68a3.553,3.553,0,0,0,2.387.82c1.283,0,2.5-.6,2.5-1.92,0-1.1-.768-1.63-2.1-1.96-1.02-.27-1.355-0.51-1.355-1.02a0.96,0.96,0,0,1,1.163-.83,2.914,2.914,0,0,1,1.643.54l0.468-.7A3.39,3.39,0,0,0,974.754,1623.5Zm8.362,3.12c0-1.93-.9-3.12-2.6-3.12-1.631,0-2.627,1.41-2.627,3.37,0,2.01,1.032,3.24,2.8,3.24a3.451,3.451,0,0,0,2.206-.79l-0.479-.66a2.622,2.622,0,0,1-1.643.55c-0.912,0-1.595-.56-1.7-2.02h4.029C983.1,1627.04,983.116,1626.84,983.116,1626.62Zm-1.091-.25h-2.962c0.083-1.4.635-1.99,1.475-1.99,1,0,1.487.68,1.487,1.92v0.07Zm5.388,2.56a1.547,1.547,0,0,1-.839.27c-0.552,0-.756-0.3-0.756-0.93v-3.77H987.2l0.12-.85h-1.5v-1.56l-1.1.13v1.43h-1.1v0.85h1.1v3.81a1.586,1.586,0,0,0,1.7,1.8,2.392,2.392,0,0,0,1.415-.43Zm7.044-5.43a2.3,2.3,0,0,0-1.871,1l-0.084-.85h-0.947v8.87l1.1-.13v-3a2.046,2.046,0,0,0,1.655.72c1.631,0,2.483-1.39,2.483-3.31C996.8,1624.81,996.136,1623.5,994.457,1623.5Zm-0.408,5.71a1.625,1.625,0,0,1-1.391-.76v-3.09a1.93,1.93,0,0,1,1.523-.98c0.948,0,1.427.78,1.427,2.42C995.608,1628.46,995.057,1629.21,994.049,1629.21Zm8.591-.72v-2.89a1.927,1.927,0,0,0-2.22-2.1,6.154,6.154,0,0,0-2.181.44l0.276,0.8a5.548,5.548,0,0,1,1.705-.34,1.111,1.111,0,0,1,1.32,1.25v0.47h-0.97c-1.768,0-2.787.73-2.787,2.09a1.836,1.836,0,0,0,2.015,1.9,2.158,2.158,0,0,0,1.882-.94,1.269,1.269,0,0,0,1.24.94l0.25-.77A0.731,0.731,0,0,1,1002.64,1628.49Zm-2.59.8a1,1,0,0,1-1.092-1.14c0-.87.588-1.3,1.752-1.3h0.83v1.45A1.632,1.632,0,0,1,1000.05,1629.29Zm6.28-5.79c-1.31,0-2.28.74-2.28,1.74,0,0.89.54,1.48,1.9,1.84,1.23,0.32,1.54.56,1.54,1.19a1.121,1.121,0,0,1-1.36.96,2.822,2.822,0,0,1-1.77-.62l-0.59.68a3.552,3.552,0,0,0,2.39.82c1.28,0,2.49-.6,2.49-1.92,0-1.1-.77-1.63-2.1-1.96-1.02-.27-1.35-0.51-1.35-1.02a0.957,0.957,0,0,1,1.16-.83,2.891,2.891,0,0,1,1.64.54l0.47-.7A3.386,3.386,0,0,0,1006.33,1623.5Zm5.3,0c-1.31,0-2.28.74-2.28,1.74,0,0.89.54,1.48,1.91,1.84,1.22,0.32,1.53.56,1.53,1.19a1.111,1.111,0,0,1-1.35.96,2.85,2.85,0,0,1-1.78-.62l-0.59.68a3.571,3.571,0,0,0,2.39.82c1.28,0,2.5-.6,2.5-1.92,0-1.1-.77-1.63-2.1-1.96-1.02-.27-1.36-0.51-1.36-1.02a0.967,0.967,0,0,1,1.17-.83,2.939,2.939,0,0,1,1.64.54l0.47-.7A3.394,3.394,0,0,0,1011.63,1623.5Zm10.69,0.15h-1.06l-1.15,5.55-1.19-5.55h-1.23l-1.25,5.55-1.14-5.55h-1.1l1.47,6.32h1.47l1.14-5.33,1.1,5.33h1.5Zm3.34-.15c-1.8,0-2.83,1.36-2.83,3.31,0,2.01,1.02,3.3,2.82,3.3,1.78,0,2.81-1.35,2.81-3.31C1028.46,1624.8,1027.46,1623.5,1025.66,1623.5Zm0,0.89c1.04,0,1.62.77,1.62,2.41,0,1.66-.58,2.43-1.63,2.43s-1.64-.77-1.64-2.42S1024.6,1624.39,1025.66,1624.39Zm7.08-.89a1.8,1.8,0,0,0-1.69,1.43l-0.11-1.28h-0.95v6.32h1.1v-3.61c0.27-1.21.72-1.78,1.52-1.78a1.976,1.976,0,0,1,.55.08l0.2-1.08A2.57,2.57,0,0,0,1032.74,1623.5Zm5.25-2.53v3.31a2.283,2.283,0,0,0-1.7-.78c-1.55,0-2.48,1.41-2.48,3.34,0,1.97.85,3.27,2.38,3.27a2.118,2.118,0,0,0,1.83-1.02l0.1,0.88h0.98v-8.86Zm-1.56,8.27c-0.91,0-1.44-.76-1.44-2.43,0-1.64.59-2.43,1.54-2.43a1.791,1.791,0,0,1,1.46.83v3.09A1.81,1.81,0,0,1,1036.43,1629.24Z" transform="translate(-898.5 -1432.5)"/>
  <rect id="Rounded_Rectangle_2" data-name="Rounded Rectangle 2" class="cls-1" x="27.5" y="151.5" width="147" height="23" rx="4" ry="4"/>
  <path id="Email" class="cls-2" d="M938.727,1591.61H935v6.89h3.808v-0.76h-2.858v-2.36h2.319v-0.76h-2.319v-2.25h2.668Zm6.609,1.5a1.828,1.828,0,0,0-1.569.95,1.327,1.327,0,0,0-1.329-.95,1.76,1.76,0,0,0-1.519.89l-0.08-.77h-0.79v5.27h0.92v-3.74a1.481,1.481,0,0,1,1.239-.93c0.4,0,.74.23,0.74,1.02v3.65h0.919v-3.74a1.5,1.5,0,0,1,1.24-.93c0.4,0,.739.23,0.739,1.02v3.65h0.92v-3.78A1.43,1.43,0,0,0,945.336,1593.11Zm6.581,4.16v-2.41a1.6,1.6,0,0,0-1.849-1.75,5.159,5.159,0,0,0-1.819.36l0.23,0.67a4.718,4.718,0,0,1,1.42-.28,0.922,0.922,0,0,1,1.1,1.04v0.39h-0.81c-1.469,0-2.318.61-2.318,1.74a1.531,1.531,0,0,0,1.679,1.59,1.8,1.8,0,0,0,1.569-.79,1.062,1.062,0,0,0,1.029.79l0.21-.64A0.624,0.624,0,0,1,951.917,1597.27Zm-2.158.66a0.831,0.831,0,0,1-.91-0.95c0-.72.49-1.08,1.459-1.08H951v1.21A1.354,1.354,0,0,1,949.759,1597.93Zm4.25-7.23a0.625,0.625,0,1,0,.65.63A0.612,0.612,0,0,0,954.009,1590.7Zm0.47,2.53h-0.92v5.27h0.92v-5.27Zm2.7,5.39a1.545,1.545,0,0,0,.729-0.18l-0.24-.64a0.9,0.9,0,0,1-.34.06c-0.239,0-.329-0.14-0.329-0.42V1591l-0.92.11v6.35A1.037,1.037,0,0,0,957.179,1598.62Z" transform="translate(-898.5 -1432.5)"/>
  <path id="Resetting_your_password_will_erase_your_browsing_data_from_our_" data-name="Resetting your password will erase your browsing data from our " class="cls-2" d="M924.639,1518.5h1.13l-1.859-3.09a1.8,1.8,0,0,0,1.489-1.85c0-1.29-.9-1.95-2.619-1.95h-1.809v6.89h0.95v-2.92h1.069Zm-2.718-3.65v-2.5h0.849c1.13,0,1.619.35,1.619,1.21a1.235,1.235,0,0,1-1.509,1.29h-0.959Zm8.928,0.86c0-1.61-.749-2.6-2.169-2.6-1.359,0-2.188,1.17-2.188,2.81,0,1.67.859,2.7,2.328,2.7a2.868,2.868,0,0,0,1.839-.66l-0.4-.55a2.218,2.218,0,0,1-1.37.46c-0.759,0-1.329-.47-1.419-1.69h3.358C930.839,1516.06,930.849,1515.89,930.849,1515.71Zm-0.909-.21h-2.469c0.07-1.17.53-1.66,1.229-1.66,0.83,0,1.24.57,1.24,1.6v0.06Zm3.861-2.39a1.668,1.668,0,0,0-1.9,1.45c0,0.74.449,1.23,1.589,1.53,1.019,0.27,1.279.47,1.279,0.99a0.931,0.931,0,0,1-1.129.8,2.39,2.39,0,0,1-1.48-.51l-0.489.56a2.917,2.917,0,0,0,1.989.69c1.069,0,2.078-.5,2.078-1.6,0-.92-0.639-1.36-1.749-1.64-0.849-.22-1.129-0.42-1.129-0.85a0.8,0.8,0,0,1,.969-0.69,2.431,2.431,0,0,1,1.37.45l0.39-.58A2.8,2.8,0,0,0,933.8,1513.11Zm7.218,2.6c0-1.61-.75-2.6-2.169-2.6-1.359,0-2.189,1.17-2.189,2.81,0,1.67.86,2.7,2.329,2.7a2.87,2.87,0,0,0,1.839-.66l-0.4-.55a2.214,2.214,0,0,1-1.369.46c-0.759,0-1.329-.47-1.419-1.69H941C941.009,1516.06,941.019,1515.89,941.019,1515.71Zm-0.909-.21h-2.469c0.07-1.17.53-1.66,1.229-1.66,0.83,0,1.24.57,1.24,1.6v0.06Zm4.74,2.13a1.288,1.288,0,0,1-.7.23c-0.46,0-.629-0.25-0.629-0.78v-3.14h1.149l0.1-.71h-1.249v-1.3l-0.92.11v1.19h-0.919v0.71H942.6v3.18a1.324,1.324,0,0,0,1.419,1.5,2.009,2.009,0,0,0,1.18-.36Zm3.61,0a1.288,1.288,0,0,1-.7.23c-0.46,0-.63-0.25-0.63-0.78v-3.14h1.15l0.1-.71h-1.25v-1.3l-0.919.11v1.19h-0.919v0.71h0.919v3.18a1.324,1.324,0,0,0,1.419,1.5,2.009,2.009,0,0,0,1.18-.36Zm1.751-6.93a0.625,0.625,0,1,0,.649.63A0.612,0.612,0,0,0,950.211,1510.7Zm0.469,2.53h-0.919v5.27h0.919v-5.27Zm4.38-.12a1.912,1.912,0,0,0-1.61.9l-0.079-.78h-0.79v5.27H953.5v-3.74a1.594,1.594,0,0,1,1.34-.93c0.509,0,.829.23,0.829,1.02v3.65h0.92v-3.78A1.442,1.442,0,0,0,955.06,1513.11Zm7.359-.47a4.528,4.528,0,0,1-2.409.47,1.879,1.879,0,0,0-2.029,1.84,1.509,1.509,0,0,0,.89,1.46,1.145,1.145,0,0,0-.58.93,1.124,1.124,0,0,0,1.359,1h0.83c0.659,0,1.059.25,1.059,0.75,0,0.53-.4.82-1.539,0.82-1.159,0-1.429-.28-1.429-0.88h-0.83c0,1.07.54,1.6,2.259,1.6,1.629,0,2.469-.58,2.469-1.6a1.584,1.584,0,0,0-1.8-1.46h-0.84c-0.54,0-.689-0.19-0.689-0.43a0.634,0.634,0,0,1,.259-0.49,2.132,2.132,0,0,0,.67.1,1.793,1.793,0,0,0,2.009-1.79,1.388,1.388,0,0,0-.93-1.33,5.134,5.134,0,0,0,1.54-.16Zm-2.409,1.13a1.022,1.022,0,0,1,1.129,1.17,1.047,1.047,0,0,1-1.109,1.2,1.067,1.067,0,0,1-1.109-1.19A1.054,1.054,0,0,1,960.01,1513.77Zm10.149-.54h-0.95l-1.379,4.6-1.409-4.6h-0.98l1.769,5.27h0.31a1.8,1.8,0,0,1-1.669,1.41l0.1,0.72a2.678,2.678,0,0,0,2.449-2.1Zm2.881-.12c-1.5,0-2.359,1.13-2.359,2.76,0,1.67.849,2.75,2.349,2.75s2.348-1.13,2.348-2.76C975.378,1514.19,974.539,1513.11,973.04,1513.11Zm0,0.74c0.869,0,1.349.64,1.349,2.01s-0.48,2.02-1.359,2.02-1.36-.64-1.36-2.01S972.16,1513.85,973.04,1513.85Zm7.779-.62H979.9v3.76a1.588,1.588,0,0,1-1.319.91c-0.57,0-.81-0.27-0.81-0.99v-3.68h-0.919v3.78a1.408,1.408,0,0,0,1.469,1.61,1.768,1.768,0,0,0,1.639-.94l0.07,0.82h0.79v-5.27Zm4.19-.12a1.5,1.5,0,0,0-1.409,1.19l-0.09-1.07h-0.789v5.27h0.919v-3.01c0.22-1.01.6-1.48,1.259-1.48a1.653,1.653,0,0,1,.46.06l0.17-.9A2.242,2.242,0,0,0,985.009,1513.11Zm6.64,0a1.914,1.914,0,0,0-1.559.83l-0.07-.71h-0.79v7.4l0.92-.11v-2.5a1.7,1.7,0,0,0,1.379.6c1.359,0,2.069-1.16,2.069-2.76C993.6,1514.2,993.048,1513.11,991.649,1513.11Zm-0.34,4.76a1.357,1.357,0,0,1-1.159-.64v-2.57a1.6,1.6,0,0,1,1.269-.82c0.79,0,1.19.65,1.19,2.02S992.149,1517.87,991.309,1517.87Zm7.409-.6v-2.41a1.6,1.6,0,0,0-1.849-1.75,5.159,5.159,0,0,0-1.819.36l0.23,0.67a4.718,4.718,0,0,1,1.419-.28,0.922,0.922,0,0,1,1.1,1.04v0.39h-0.81c-1.469,0-2.318.61-2.318,1.74a1.531,1.531,0,0,0,1.679,1.59,1.8,1.8,0,0,0,1.569-.79,1.062,1.062,0,0,0,1.029.79l0.21-.64A0.624,0.624,0,0,1,998.718,1517.27Zm-2.158.66a0.831,0.831,0,0,1-.91-0.95c0-.72.49-1.08,1.459-1.08h0.69v1.21A1.354,1.354,0,0,1,996.56,1517.93Zm5.48-4.82a1.669,1.669,0,0,0-1.9,1.45c0,0.74.45,1.23,1.59,1.53,1.02,0.27,1.28.47,1.28,0.99a0.931,0.931,0,0,1-1.13.8,2.39,2.39,0,0,1-1.48-.51l-0.489.56a2.917,2.917,0,0,0,1.989.69c1.07,0,2.08-.5,2.08-1.6,0-.92-0.64-1.36-1.75-1.64-0.85-.22-1.13-0.42-1.13-0.85a0.8,0.8,0,0,1,.97-0.69,2.431,2.431,0,0,1,1.37.45l0.39-.58A2.8,2.8,0,0,0,1002.04,1513.11Zm4.67,0a1.669,1.669,0,0,0-1.9,1.45c0,0.74.45,1.23,1.59,1.53,1.02,0.27,1.28.47,1.28,0.99a0.931,0.931,0,0,1-1.13.8,2.39,2.39,0,0,1-1.48-.51l-0.49.56a2.922,2.922,0,0,0,1.99.69c1.07,0,2.08-.5,2.08-1.6,0-.92-0.64-1.36-1.75-1.64-0.85-.22-1.13-0.42-1.13-0.85a0.8,0.8,0,0,1,.97-0.69,2.431,2.431,0,0,1,1.37.45l0.39-.58A2.8,2.8,0,0,0,1006.71,1513.11Zm9.16,0.12h-0.88l-0.96,4.63-0.99-4.63h-1.03l-1.04,4.63-0.95-4.63h-0.92l1.23,5.27h1.22l0.95-4.44,0.92,4.44h1.25Zm3.03-.12c-1.5,0-2.36,1.13-2.36,2.76,0,1.67.85,2.75,2.35,2.75s2.35-1.13,2.35-2.76C1021.24,1514.19,1020.4,1513.11,1018.9,1513.11Zm0,0.74c0.87,0,1.35.64,1.35,2.01s-0.48,2.02-1.36,2.02-1.36-.64-1.36-2.01S1018.02,1513.85,1018.9,1513.85Zm6.15-.74a1.5,1.5,0,0,0-1.41,1.19l-0.09-1.07h-0.79v5.27h0.92v-3.01c0.22-1.01.6-1.48,1.26-1.48a1.653,1.653,0,0,1,.46.06l0.17-.9A2.242,2.242,0,0,0,1025.05,1513.11Zm4.63-2.11v2.76a1.892,1.892,0,0,0-1.42-.65c-1.29,0-2.07,1.17-2.07,2.78,0,1.64.71,2.73,1.99,2.73a1.762,1.762,0,0,0,1.52-.85l0.09,0.73h0.81v-7.39Zm-1.3,6.89c-0.76,0-1.2-.63-1.2-2.02,0-1.37.49-2.03,1.28-2.03a1.512,1.512,0,0,1,1.22.69v2.58A1.511,1.511,0,0,1,1028.38,1517.89Zm12.79-4.66h-0.88l-0.96,4.63-0.99-4.63h-1.03l-1.04,4.63-0.95-4.63h-0.92l1.23,5.27h1.22l0.95-4.44,0.92,4.44h1.25Zm1.6-2.53a0.625,0.625,0,1,0,.65.63A0.612,0.612,0,0,0,1042.77,1510.7Zm0.47,2.53h-0.92v5.27h0.92v-5.27Zm2.95,5.39a1.546,1.546,0,0,0,.73-0.18l-0.24-.64a0.9,0.9,0,0,1-.34.06c-0.24,0-.33-0.14-0.33-0.42V1511l-0.92.11v6.35A1.037,1.037,0,0,0,1046.19,1518.62Zm2.93,0a1.546,1.546,0,0,0,.73-0.18l-0.24-.64a0.9,0.9,0,0,1-.34.06c-0.24,0-.33-0.14-0.33-0.42V1511l-0.92.11v6.35A1.037,1.037,0,0,0,1049.12,1518.62Zm8.51-2.91c0-1.61-.75-2.6-2.17-2.6-1.36,0-2.19,1.17-2.19,2.81,0,1.67.86,2.7,2.33,2.7a2.873,2.873,0,0,0,1.84-.66l-0.4-.55a2.218,2.218,0,0,1-1.37.46c-0.76,0-1.33-.47-1.42-1.69h3.36C1057.62,1516.06,1057.63,1515.89,1057.63,1515.71Zm-0.91-.21h-2.47c0.07-1.17.53-1.66,1.23-1.66,0.83,0,1.24.57,1.24,1.6v0.06Zm4.72-2.39a1.5,1.5,0,0,0-1.41,1.19l-0.09-1.07h-0.79v5.27h0.92v-3.01c0.22-1.01.6-1.48,1.26-1.48a1.653,1.653,0,0,1,.46.06l0.17-.9A2.242,2.242,0,0,0,1061.44,1513.11Zm4.92,4.16v-2.41a1.6,1.6,0,0,0-1.85-1.75,5.159,5.159,0,0,0-1.82.36l0.23,0.67a4.718,4.718,0,0,1,1.42-.28,0.922,0.922,0,0,1,1.1,1.04v0.39h-0.81c-1.47,0-2.32.61-2.32,1.74a1.532,1.532,0,0,0,1.68,1.59,1.8,1.8,0,0,0,1.57-.79,1.062,1.062,0,0,0,1.03.79l0.21-.64A0.624,0.624,0,0,1,1066.36,1517.27Zm-2.16.66a0.831,0.831,0,0,1-.91-0.95c0-.72.49-1.08,1.46-1.08h0.69v1.21A1.354,1.354,0,0,1,1064.2,1517.93Zm5.48-4.82a1.669,1.669,0,0,0-1.9,1.45c0,0.74.45,1.23,1.59,1.53,1.02,0.27,1.28.47,1.28,0.99a0.931,0.931,0,0,1-1.13.8,2.39,2.39,0,0,1-1.48-.51l-0.49.56a2.922,2.922,0,0,0,1.99.69c1.07,0,2.08-.5,2.08-1.6,0-.92-0.64-1.36-1.75-1.64-0.85-.22-1.13-0.42-1.13-0.85a0.8,0.8,0,0,1,.97-0.69,2.431,2.431,0,0,1,1.37.45l0.39-.58A2.8,2.8,0,0,0,1069.68,1513.11Zm7.22,2.6c0-1.61-.75-2.6-2.17-2.6-1.36,0-2.19,1.17-2.19,2.81,0,1.67.86,2.7,2.33,2.7a2.873,2.873,0,0,0,1.84-.66l-0.4-.55a2.218,2.218,0,0,1-1.37.46c-0.76,0-1.33-.47-1.42-1.69h3.36C1076.89,1516.06,1076.9,1515.89,1076.9,1515.71Zm-0.91-.21h-2.47c0.07-1.17.53-1.66,1.23-1.66,0.83,0,1.24.57,1.24,1.6v0.06Zm-156.2,9.73h-0.95l-1.379,4.6-1.409-4.6h-0.98l1.77,5.27h0.309a1.794,1.794,0,0,1-1.669,1.41l0.1,0.72a2.678,2.678,0,0,0,2.449-2.1Zm2.881-.12c-1.5,0-2.359,1.13-2.359,2.76,0,1.67.85,2.75,2.349,2.75s2.349-1.13,2.349-2.76C925.015,1526.19,924.175,1525.11,922.676,1525.11Zm0,0.74c0.869,0,1.349.64,1.349,2.01s-0.48,2.02-1.359,2.02-1.359-.64-1.359-2.01S921.8,1525.85,922.676,1525.85Zm7.779-.62h-0.92v3.76a1.586,1.586,0,0,1-1.319.91c-0.57,0-.81-0.27-0.81-0.99v-3.68h-0.919v3.78a1.409,1.409,0,0,0,1.469,1.61,1.768,1.768,0,0,0,1.639-.94l0.07,0.82h0.79v-5.27Zm4.191-.12a1.5,1.5,0,0,0-1.41,1.19l-0.09-1.07h-0.789v5.27h0.919v-3.01c0.22-1.01.6-1.48,1.26-1.48a1.651,1.651,0,0,1,.459.06l0.17-.9A2.239,2.239,0,0,0,934.646,1525.11Zm6.629,0a1.777,1.777,0,0,0-1.489.78V1523l-0.919.11v7.39h0.809l0.09-.58a1.752,1.752,0,0,0,1.4.7c1.28,0,2.069-1.11,2.069-2.76C943.234,1526.1,942.465,1525.11,941.275,1525.11Zm-0.33,4.78a1.418,1.418,0,0,1-1.159-.71v-2.52a1.494,1.494,0,0,1,1.229-.82c0.74,0,1.23.52,1.23,2.02C942.245,1529.3,941.715,1529.89,940.945,1529.89Zm6.15-4.78a1.5,1.5,0,0,0-1.409,1.19l-0.09-1.07h-0.789v5.27h0.919v-3.01c0.22-1.01.6-1.48,1.259-1.48a1.653,1.653,0,0,1,.46.06l0.17-.9A2.242,2.242,0,0,0,947.1,1525.11Zm3.45,0c-1.5,0-2.358,1.13-2.358,2.76,0,1.67.849,2.75,2.348,2.75s2.349-1.13,2.349-2.76C952.884,1526.19,952.045,1525.11,950.545,1525.11Zm0,0.74c0.87,0,1.35.64,1.35,2.01s-0.48,2.02-1.36,2.02-1.359-.64-1.359-2.01S949.666,1525.85,950.545,1525.85Zm9.778-.62h-0.879l-0.96,4.63-0.989-4.63h-1.03l-1.039,4.63-0.95-4.63h-0.919l1.229,5.27h1.22l0.949-4.44,0.92,4.44h1.249Zm2.583-.12a1.668,1.668,0,0,0-1.9,1.45c0,0.74.45,1.23,1.589,1.53,1.019,0.27,1.279.47,1.279,0.99a0.931,0.931,0,0,1-1.129.8,2.385,2.385,0,0,1-1.479-.51l-0.49.56a2.919,2.919,0,0,0,1.989.69c1.069,0,2.079-.5,2.079-1.6,0-.92-0.64-1.36-1.749-1.64-0.85-.22-1.13-0.42-1.13-0.85a0.8,0.8,0,0,1,.97-0.69,2.43,2.43,0,0,1,1.369.45l0.39-.58A2.8,2.8,0,0,0,962.906,1525.11Zm3.69-2.41a0.625,0.625,0,1,0,.65.63A0.611,0.611,0,0,0,966.6,1522.7Zm0.47,2.53h-0.92v5.27h0.92v-5.27Zm4.379-.12a1.91,1.91,0,0,0-1.609.9l-0.08-.78h-0.79v5.27h0.92v-3.74a1.592,1.592,0,0,1,1.339-.93c0.51,0,.83.23,0.83,1.02v3.65h0.919v-3.78A1.442,1.442,0,0,0,971.445,1525.11Zm7.359-.47a4.521,4.521,0,0,1-2.408.47,1.878,1.878,0,0,0-2.029,1.84,1.509,1.509,0,0,0,.889,1.46,1.145,1.145,0,0,0-.58.93,1.125,1.125,0,0,0,1.36,1h0.829c0.66,0,1.06.25,1.06,0.75,0,0.53-.4.82-1.539,0.82-1.16,0-1.43-.28-1.43-0.88h-0.829c0,1.07.539,1.6,2.259,1.6,1.629,0,2.468-.58,2.468-1.6a1.583,1.583,0,0,0-1.8-1.46h-0.839c-0.54,0-.69-0.19-0.69-0.43a0.635,0.635,0,0,1,.26-0.49,2.132,2.132,0,0,0,.67.1,1.792,1.792,0,0,0,2.008-1.79,1.387,1.387,0,0,0-.929-1.33,5.127,5.127,0,0,0,1.539-.16Zm-2.408,1.13a1.022,1.022,0,0,1,1.129,1.17,1.048,1.048,0,0,1-1.109,1.2,1.067,1.067,0,0,1-1.11-1.19A1.055,1.055,0,0,1,976.4,1525.77Zm9.439-2.77v2.76a1.892,1.892,0,0,0-1.42-.65c-1.289,0-2.069,1.17-2.069,2.78,0,1.64.71,2.73,1.989,2.73a1.762,1.762,0,0,0,1.52-.85l0.089,0.73h0.81v-7.39Zm-1.3,6.89c-0.759,0-1.2-.63-1.2-2.02,0-1.37.49-2.03,1.279-2.03a1.512,1.512,0,0,1,1.22.69v2.58A1.511,1.511,0,0,1,984.535,1529.89Zm7.669-.62v-2.41a1.6,1.6,0,0,0-1.849-1.75,5.159,5.159,0,0,0-1.819.36l0.23,0.67a4.718,4.718,0,0,1,1.419-.28,0.922,0.922,0,0,1,1.1,1.04v0.39h-0.81c-1.469,0-2.319.61-2.319,1.74a1.532,1.532,0,0,0,1.68,1.59,1.8,1.8,0,0,0,1.569-.79,1.061,1.061,0,0,0,1.029.79l0.21-.64A0.624,0.624,0,0,1,992.2,1529.27Zm-2.159.66a0.83,0.83,0,0,1-.909-0.95c0-.72.49-1.08,1.459-1.08h0.69v1.21A1.354,1.354,0,0,1,990.045,1529.93Zm6.36-.3a1.288,1.288,0,0,1-.7.23c-0.46,0-.629-0.25-0.629-0.78v-3.14h1.149l0.1-.71h-1.249v-1.3l-0.92.11v1.19h-0.919v0.71h0.919v3.18a1.324,1.324,0,0,0,1.419,1.5,2.009,2.009,0,0,0,1.18-.36Zm4.845-.36v-2.41a1.6,1.6,0,0,0-1.845-1.75,5.154,5.154,0,0,0-1.819.36l0.23,0.67a4.712,4.712,0,0,1,1.419-.28,0.919,0.919,0,0,1,1.1,1.04v0.39h-0.805c-1.469,0-2.319.61-2.319,1.74a1.532,1.532,0,0,0,1.679,1.59,1.787,1.787,0,0,0,1.565-.79,1.062,1.062,0,0,0,1.03.79l0.21-.64A0.624,0.624,0,0,1,1001.25,1529.27Zm-2.155.66a0.83,0.83,0,0,1-.909-0.95c0-.72.489-1.08,1.459-1.08h0.685v1.21A1.348,1.348,0,0,1,999.1,1529.93Zm8.485-6.19a2.254,2.254,0,0,1,.92.2l0.29-.67a2.906,2.906,0,0,0-1.26-.27,1.466,1.466,0,0,0-1.64,1.51v0.72h-0.94v0.71h0.94v4.56h0.92v-4.56h1.17l0.1-.71h-1.27v-0.73A0.654,0.654,0,0,1,1007.58,1523.74Zm3.85,1.37a1.494,1.494,0,0,0-1.4,1.19l-0.09-1.07h-0.79v5.27h0.92v-3.01c0.22-1.01.6-1.48,1.25-1.48a1.653,1.653,0,0,1,.46.06l0.17-.9A2.242,2.242,0,0,0,1011.43,1525.11Zm3.45,0c-1.49,0-2.35,1.13-2.35,2.76,0,1.67.85,2.75,2.34,2.75s2.35-1.13,2.35-2.76C1017.22,1526.19,1016.38,1525.11,1014.88,1525.11Zm0,0.74c0.87,0,1.35.64,1.35,2.01s-0.48,2.02-1.36,2.02-1.35-.64-1.35-2.01S1014.01,1525.85,1014.88,1525.85Zm9.15-.74a1.828,1.828,0,0,0-1.57.95,1.328,1.328,0,0,0-1.33-.95,1.745,1.745,0,0,0-1.51.89l-0.08-.77h-0.79v5.27h0.92v-3.74a1.469,1.469,0,0,1,1.23-.93c0.4,0,.74.23,0.74,1.02v3.65h0.92v-3.74a1.5,1.5,0,0,1,1.24-.93c0.4,0,.74.23,0.74,1.02v3.65h0.92v-3.78A1.43,1.43,0,0,0,1024.03,1525.11Zm7.91,0c-1.49,0-2.35,1.13-2.35,2.76,0,1.67.85,2.75,2.34,2.75s2.35-1.13,2.35-2.76C1034.28,1526.19,1033.44,1525.11,1031.94,1525.11Zm0,0.74c0.87,0,1.35.64,1.35,2.01s-0.48,2.02-1.36,2.02-1.35-.64-1.35-2.01S1031.07,1525.85,1031.94,1525.85Zm7.78-.62h-0.92v3.76a1.588,1.588,0,0,1-1.32.91c-0.56,0-.8-0.27-0.8-0.99v-3.68h-0.92v3.78a1.407,1.407,0,0,0,1.46,1.61,1.77,1.77,0,0,0,1.64-.94l0.07,0.82h0.79v-5.27Zm4.19-.12a1.486,1.486,0,0,0-1.4,1.19l-0.09-1.07h-0.79v5.27h0.92v-3.01c0.21-1.01.59-1.48,1.25-1.48a1.653,1.653,0,0,1,.46.06l0.17-.9A2.242,2.242,0,0,0,1043.91,1525.11Zm5.65,0a1.665,1.665,0,0,0-1.89,1.45c0,0.74.45,1.23,1.58,1.53,1.02,0.27,1.28.47,1.28,0.99a0.931,0.931,0,0,1-1.13.8,2.382,2.382,0,0,1-1.47-.51l-0.49.56a2.913,2.913,0,0,0,1.98.69c1.07,0,2.08-.5,2.08-1.6,0-.92-0.64-1.36-1.75-1.64-0.84-.22-1.12-0.42-1.12-0.85a0.793,0.793,0,0,1,.96-0.69,2.431,2.431,0,0,1,1.37.45l0.39-.58A2.8,2.8,0,0,0,1049.56,1525.11Zm7.22,2.6c0-1.61-.75-2.6-2.17-2.6-1.35,0-2.18,1.17-2.18,2.81,0,1.67.86,2.7,2.32,2.7a2.873,2.873,0,0,0,1.84-.66l-0.4-.55a2.218,2.218,0,0,1-1.37.46c-0.76,0-1.33-.47-1.41-1.69h3.35C1056.77,1528.06,1056.78,1527.89,1056.78,1527.71Zm-0.91-.21h-2.46c0.06-1.17.52-1.66,1.22-1.66,0.83,0,1.24.57,1.24,1.6v0.06Zm4.72-2.39a1.5,1.5,0,0,0-1.41,1.19l-0.09-1.07h-0.78v5.27h0.91v-3.01c0.22-1.01.6-1.48,1.26-1.48a1.653,1.653,0,0,1,.46.06l0.17-.9A2.242,2.242,0,0,0,1060.59,1525.11Zm5.54,0.12h-0.97l-1.37,4.45-1.38-4.45h-0.99l1.81,5.27h1.11Zm4.93,2.48c0-1.61-.75-2.6-2.17-2.6-1.36,0-2.18,1.17-2.18,2.81,0,1.67.85,2.7,2.32,2.7a2.873,2.873,0,0,0,1.84-.66l-0.4-.55a2.218,2.218,0,0,1-1.37.46c-0.76,0-1.33-.47-1.42-1.69h3.36C1071.05,1528.06,1071.06,1527.89,1071.06,1527.71Zm-0.91-.21h-2.47c0.07-1.17.53-1.66,1.23-1.66,0.83,0,1.24.57,1.24,1.6v0.06Zm4.72-2.39a1.5,1.5,0,0,0-1.41,1.19l-0.09-1.07h-0.79v5.27h0.92v-3.01c0.22-1.01.6-1.48,1.26-1.48a1.653,1.653,0,0,1,.46.06l0.17-.9A2.242,2.242,0,0,0,1074.87,1525.11Zm2.9,0a1.659,1.659,0,0,0-1.89,1.45c0,0.74.44,1.23,1.58,1.53,1.02,0.27,1.28.47,1.28,0.99a0.931,0.931,0,0,1-1.13.8,2.39,2.39,0,0,1-1.48-.51l-0.48.56a2.876,2.876,0,0,0,1.98.69c1.07,0,2.08-.5,2.08-1.6,0-.92-0.64-1.36-1.75-1.64-0.85-.22-1.13-0.42-1.13-0.85a0.8,0.8,0,0,1,.97-0.69,2.431,2.431,0,0,1,1.37.45l0.39-.58A2.8,2.8,0,0,0,1077.77,1525.11Zm3.48,4.12a0.7,0.7,0,0,0,0,1.39A0.7,0.7,0,1,0,1081.25,1529.23ZM920.12,1542.5h1l-2.2-6.89h-1.2l-2.208,6.89h0.959l0.52-1.73H919.6Zm-2.9-2.5,1.079-3.6,1.07,3.6h-2.149Zm7.389-2.89a1.909,1.909,0,0,0-1.609.9l-0.08-.78h-0.79v5.27h0.92v-3.74a1.591,1.591,0,0,1,1.339-.93c0.51,0,.829.23,0.829,1.02v3.65h0.92v-3.78A1.442,1.442,0,0,0,924.611,1537.11Zm7.149,0.12h-0.949l-1.38,4.6-1.409-4.6h-0.979l1.769,5.27h0.309a1.793,1.793,0,0,1-1.669,1.41l0.1,0.72a2.677,2.677,0,0,0,2.449-2.1Zm6.86-2.23v2.76a1.889,1.889,0,0,0-1.419-.65c-1.289,0-2.069,1.17-2.069,2.78,0,1.64.71,2.73,1.989,2.73a1.76,1.76,0,0,0,1.519-.85l0.09,0.73h0.81v-7.39Zm-1.3,6.89c-0.76,0-1.2-.63-1.2-2.02,0-1.37.489-2.03,1.279-2.03a1.51,1.51,0,0,1,1.219.69v2.58A1.508,1.508,0,0,1,937.321,1541.89Zm7.669-.62v-2.41a1.6,1.6,0,0,0-1.849-1.75,5.154,5.154,0,0,0-1.819.36l0.23,0.67a4.712,4.712,0,0,1,1.419-.28,0.922,0.922,0,0,1,1.1,1.04v0.39h-0.81c-1.469,0-2.319.61-2.319,1.74a1.532,1.532,0,0,0,1.679,1.59,1.793,1.793,0,0,0,1.569-.79,1.062,1.062,0,0,0,1.03.79l0.21-.64A0.624,0.624,0,0,1,944.99,1541.27Zm-2.159.66a0.83,0.83,0,0,1-.909-0.95c0-.72.489-1.08,1.459-1.08h0.69v1.21A1.354,1.354,0,0,1,942.831,1541.93Zm6.36-.3a1.288,1.288,0,0,1-.7.23c-0.46,0-.63-0.25-0.63-0.78v-3.14h1.15l0.1-.71h-1.25v-1.3l-0.919.11v1.19h-0.92v0.71h0.92v3.18a1.324,1.324,0,0,0,1.419,1.5,2,2,0,0,0,1.179-.36Zm4.849-.36v-2.41a1.6,1.6,0,0,0-1.849-1.75,5.15,5.15,0,0,0-1.819.36l0.23,0.67a4.706,4.706,0,0,1,1.419-.28,0.922,0.922,0,0,1,1.1,1.04v0.39h-0.809c-1.469,0-2.319.61-2.319,1.74a1.532,1.532,0,0,0,1.679,1.59,1.794,1.794,0,0,0,1.569-.79,1.062,1.062,0,0,0,1.03.79l0.21-.64A0.624,0.624,0,0,1,954.04,1541.27Zm-2.159.66a0.831,0.831,0,0,1-.91-0.95c0-.72.49-1.08,1.46-1.08h0.689v1.21A1.352,1.352,0,0,1,951.881,1541.93Zm8.68-4.82c-1.5,0-2.359,1.13-2.359,2.76,0,1.67.849,2.75,2.349,2.75s2.348-1.13,2.348-2.76C962.9,1538.19,962.06,1537.11,960.561,1537.11Zm0,0.74c0.869,0,1.349.64,1.349,2.01s-0.48,2.02-1.359,2.02-1.36-.64-1.36-2.01S959.681,1537.85,960.561,1537.85Zm6.339-.74a1.911,1.911,0,0,0-1.609.9l-0.08-.78h-0.789v5.27h0.919v-3.74a1.593,1.593,0,0,1,1.339-.93c0.51,0,.83.23,0.83,1.02v3.65h0.919v-3.78A1.441,1.441,0,0,0,966.9,1537.11Zm9.9,0.12h-0.95l-1.379,4.6-1.409-4.6h-0.98l1.769,5.27h0.31a1.8,1.8,0,0,1-1.669,1.41l0.1,0.72a2.676,2.676,0,0,0,2.448-2.1Zm2.881-.12c-1.5,0-2.359,1.13-2.359,2.76,0,1.67.849,2.75,2.348,2.75s2.349-1.13,2.349-2.76C982.019,1538.19,981.18,1537.11,979.681,1537.11Zm0,0.74c0.869,0,1.349.64,1.349,2.01s-0.48,2.02-1.36,2.02-1.359-.64-1.359-2.01S978.8,1537.85,979.681,1537.85Zm7.778-.62H986.54v3.76a1.588,1.588,0,0,1-1.319.91c-0.57,0-.81-0.27-0.81-0.99v-3.68h-0.919v3.78a1.408,1.408,0,0,0,1.469,1.61,1.769,1.769,0,0,0,1.639-.94l0.07,0.82h0.789v-5.27Zm4.191-.12a1.5,1.5,0,0,0-1.409,1.19l-0.09-1.07h-0.79v5.27h0.92v-3.01c0.22-1.01.6-1.48,1.259-1.48a1.653,1.653,0,0,1,.46.06l0.17-.9A2.242,2.242,0,0,0,991.65,1537.11Zm7.38-2.11v2.76a1.892,1.892,0,0,0-1.42-.65c-1.289,0-2.069,1.17-2.069,2.78,0,1.64.71,2.73,1.989,2.73a1.762,1.762,0,0,0,1.52-.85l0.089,0.73h0.81v-7.39Zm-1.3,6.89c-0.759,0-1.2-.63-1.2-2.02,0-1.37.49-2.03,1.279-2.03a1.512,1.512,0,0,1,1.22.69v2.58A1.511,1.511,0,0,1,997.73,1541.89Zm8.1-2.18c0-1.61-.75-2.6-2.17-2.6-1.36,0-2.19,1.17-2.19,2.81,0,1.67.86,2.7,2.33,2.7a2.873,2.873,0,0,0,1.84-.66l-0.4-.55a2.218,2.218,0,0,1-1.37.46c-0.76,0-1.33-.47-1.42-1.69h3.36C1005.82,1540.06,1005.83,1539.89,1005.83,1539.71Zm-0.91-.21h-2.47c0.07-1.17.53-1.66,1.23-1.66,0.83,0,1.24.57,1.24,1.6v0.06Zm6.2-2.27h-0.97l-1.37,4.45-1.38-4.45h-1l1.82,5.27h1.11Zm1.5-2.53a0.625,0.625,0,1,0,.65.63A0.612,0.612,0,0,0,1012.62,1534.7Zm0.47,2.53h-0.92v5.27h0.92v-5.27Zm3.82-.12c-1.43,0-2.3,1.12-2.3,2.8,0,1.7.88,2.71,2.3,2.71a2.486,2.486,0,0,0,1.61-.58l-0.42-.6a1.957,1.957,0,0,1-1.15.4c-0.83,0-1.35-.57-1.35-1.95s0.52-2.02,1.35-2.02a1.8,1.8,0,0,1,1.13.39l0.44-.58A2.342,2.342,0,0,0,1016.91,1537.11Zm6.74,2.6c0-1.61-.75-2.6-2.17-2.6-1.36,0-2.19,1.17-2.19,2.81,0,1.67.86,2.7,2.33,2.7a2.873,2.873,0,0,0,1.84-.66l-0.4-.55a2.218,2.218,0,0,1-1.37.46c-0.76,0-1.33-.47-1.42-1.69h3.36C1023.64,1540.06,1023.65,1539.89,1023.65,1539.71Zm-0.91-.21h-2.47c0.07-1.17.53-1.66,1.23-1.66,0.83,0,1.24.57,1.24,1.6v0.06Zm3.86-2.39a1.669,1.669,0,0,0-1.9,1.45c0,0.74.45,1.23,1.59,1.53,1.02,0.27,1.28.47,1.28,0.99a0.931,0.931,0,0,1-1.13.8,2.39,2.39,0,0,1-1.48-.51l-0.49.56a2.922,2.922,0,0,0,1.99.69c1.07,0,2.08-.5,2.08-1.6,0-.92-0.64-1.36-1.75-1.64-0.85-.22-1.13-0.42-1.13-0.85a0.8,0.8,0,0,1,.97-0.69,2.431,2.431,0,0,1,1.37.45l0.39-.58A2.8,2.8,0,0,0,1026.6,1537.11Zm11.91,0.12h-0.88l-0.96,4.63-0.99-4.63h-1.03l-1.04,4.63-0.95-4.63h-0.92l1.23,5.27h1.22l0.95-4.44,0.92,4.44h1.25Zm1.6-2.53a0.625,0.625,0,1,0,.65.63A0.612,0.612,0,0,0,1040.11,1534.7Zm0.47,2.53h-0.92v5.27h0.92v-5.27Zm2.95,5.39a1.546,1.546,0,0,0,.73-0.18l-0.24-.64a0.9,0.9,0,0,1-.34.06c-0.24,0-.33-0.14-0.33-0.42V1535l-0.92.11v6.35A1.037,1.037,0,0,0,1043.53,1542.62Zm2.93,0a1.546,1.546,0,0,0,.73-0.18l-0.24-.64a0.9,0.9,0,0,1-.34.06c-0.24,0-.33-0.14-0.33-0.42V1535l-0.92.11v6.35A1.037,1.037,0,0,0,1046.46,1542.62Zm6.82-5.51a1.5,1.5,0,0,0-1.41,1.19l-0.09-1.07h-0.79v5.27h0.92v-3.01c0.22-1.01.6-1.48,1.26-1.48a1.653,1.653,0,0,1,.46.06l0.17-.9A2.242,2.242,0,0,0,1053.28,1537.11Zm5.45,2.6c0-1.61-.75-2.6-2.17-2.6-1.36,0-2.19,1.17-2.19,2.81,0,1.67.86,2.7,2.33,2.7a2.873,2.873,0,0,0,1.84-.66l-0.4-.55a2.218,2.218,0,0,1-1.37.46c-0.76,0-1.33-.47-1.42-1.69h3.36C1058.72,1540.06,1058.73,1539.89,1058.73,1539.71Zm-0.91-.21h-2.47c0.07-1.17.53-1.66,1.23-1.66,0.83,0,1.24.57,1.24,1.6v0.06Zm7.72-2.39a1.828,1.828,0,0,0-1.57.95,1.328,1.328,0,0,0-1.33-.95,1.762,1.762,0,0,0-1.52.89l-0.08-.77h-0.79v5.27h0.92v-3.74a1.482,1.482,0,0,1,1.24-.93c0.4,0,.74.23,0.74,1.02v3.65h0.92v-3.74a1.5,1.5,0,0,1,1.24-.93c0.4,0,.74.23,0.74,1.02v3.65h0.92v-3.78A1.43,1.43,0,0,0,1065.54,1537.11Zm6.83,4.16v-2.41a1.6,1.6,0,0,0-1.85-1.75,5.159,5.159,0,0,0-1.82.36l0.23,0.67a4.718,4.718,0,0,1,1.42-.28,0.922,0.922,0,0,1,1.1,1.04v0.39h-0.81c-1.47,0-2.32.61-2.32,1.74a1.532,1.532,0,0,0,1.68,1.59,1.8,1.8,0,0,0,1.57-.79,1.062,1.062,0,0,0,1.03.79l0.21-.64A0.624,0.624,0,0,1,1072.37,1541.27Zm-2.16.66a0.831,0.831,0,0,1-.91-0.95c0-.72.49-1.08,1.46-1.08h0.69v1.21A1.354,1.354,0,0,1,1070.21,1541.93Zm4.5-7.23a0.625,0.625,0,1,0,.65.63A0.612,0.612,0,0,0,1074.71,1534.7Zm0.47,2.53h-0.92v5.27h0.92v-5.27Zm4.38-.12a1.912,1.912,0,0,0-1.61.9l-0.08-.78h-0.79v5.27H1078v-3.74a1.594,1.594,0,0,1,1.34-.93c0.51,0,.83.23,0.83,1.02v3.65h0.92v-3.78A1.442,1.442,0,0,0,1079.56,1537.11Zm-162.925,12.12h-0.92v3.76a1.586,1.586,0,0,1-1.319.91c-0.57,0-.81-0.27-0.81-0.99v-3.68h-0.919v3.78a1.409,1.409,0,0,0,1.469,1.61,1.768,1.768,0,0,0,1.639-.94l0.07,0.82h0.79v-5.27Zm4.38-.12a1.911,1.911,0,0,0-1.609.9l-0.08-.78h-0.789v5.27h0.919v-3.74a1.593,1.593,0,0,1,1.339-.93c0.51,0,.83.23,0.83,1.02v3.65h0.919v-3.78A1.441,1.441,0,0,0,921.015,1549.11Zm5.69,4.52a1.282,1.282,0,0,1-.7.23c-0.46,0-.63-0.25-0.63-0.78v-3.14h1.149l0.1-.71h-1.249v-1.3l-0.919.11v1.19h-0.92v0.71h0.92v3.18a1.323,1.323,0,0,0,1.419,1.5,2.006,2.006,0,0,0,1.179-.36Zm3.181-4.52c-1.5,0-2.359,1.13-2.359,2.76,0,1.67.849,2.75,2.349,2.75s2.348-1.13,2.348-2.76C932.224,1550.19,931.385,1549.11,929.886,1549.11Zm0,0.74c0.869,0,1.349.64,1.349,2.01s-0.48,2.02-1.359,2.02-1.36-.64-1.36-2.01S929.006,1549.85,929.886,1549.85Zm7.779-.62h-0.92v3.76a1.588,1.588,0,0,1-1.319.91c-0.57,0-.81-0.27-0.81-0.99v-3.68H933.7v3.78a1.408,1.408,0,0,0,1.469,1.61,1.769,1.769,0,0,0,1.639-.94l0.07,0.82h0.79v-5.27Zm3.82-.12c-1.429,0-2.3,1.12-2.3,2.8,0,1.7.879,2.71,2.3,2.71a2.486,2.486,0,0,0,1.61-.58l-0.42-.6a1.957,1.957,0,0,1-1.15.4c-0.829,0-1.349-.57-1.349-1.95s0.52-2.02,1.349-2.02a1.8,1.8,0,0,1,1.13.39l0.44-.58A2.342,2.342,0,0,0,941.485,1549.11Zm5.34,0a1.89,1.89,0,0,0-1.559.85v-2.94l-0.92.1v7.38h0.92v-3.75a1.612,1.612,0,0,1,1.329-.92c0.5,0,.84.23,0.84,1.02v3.65h0.919v-3.78A1.451,1.451,0,0,0,946.825,1549.11Zm7.359,2.6c0-1.61-.749-2.6-2.169-2.6-1.359,0-2.188,1.17-2.188,2.81,0,1.67.859,2.7,2.328,2.7a2.868,2.868,0,0,0,1.839-.66l-0.4-.55a2.218,2.218,0,0,1-1.37.46c-0.759,0-1.329-.47-1.419-1.69h3.358C954.174,1552.06,954.184,1551.89,954.184,1551.71Zm-0.909-.21h-2.469c0.07-1.17.53-1.66,1.229-1.66,0.83,0,1.24.57,1.24,1.6v0.06Zm5.59-4.5v2.76a1.892,1.892,0,0,0-1.42-.65c-1.289,0-2.069,1.17-2.069,2.78,0,1.64.71,2.73,1.989,2.73a1.762,1.762,0,0,0,1.52-.85l0.089,0.73h0.81v-7.39Zm-1.3,6.89c-0.759,0-1.2-.63-1.2-2.02,0-1.37.49-2.03,1.279-2.03a1.512,1.512,0,0,1,1.22.69v2.58A1.511,1.511,0,0,1,957.565,1553.89Zm4.361-.66a0.7,0.7,0,1,0,.7.69A0.685,0.685,0,0,0,961.926,1553.23Zm7.9-2.37a1.535,1.535,0,0,0,1.29-1.51c0-1.2-1-1.74-2.7-1.74h-1.629v6.89h1.9c1.6,0,2.729-.5,2.729-1.96A1.621,1.621,0,0,0,969.824,1550.86Zm-1.309-2.5c1.02,0,1.629.21,1.629,1.06a1.179,1.179,0,0,1-1.369,1.11h-1.039v-2.17h0.779Zm0.17,5.38h-0.949v-2.48h1.129a1.294,1.294,0,0,1,1.549,1.28C970.414,1553.54,969.685,1553.74,968.685,1553.74Zm8.109-2.03c0-1.61-.75-2.6-2.169-2.6-1.359,0-2.189,1.17-2.189,2.81,0,1.67.86,2.7,2.329,2.7a2.87,2.87,0,0,0,1.839-.66l-0.4-.55a2.216,2.216,0,0,1-1.369.46c-0.76,0-1.329-.47-1.419-1.69h3.358C976.784,1552.06,976.794,1551.89,976.794,1551.71Zm-0.91-.21h-2.468c0.07-1.17.529-1.66,1.229-1.66,0.83,0,1.239.57,1.239,1.6v0.06Zm6.41-2.86a4.528,4.528,0,0,1-2.409.47,1.879,1.879,0,0,0-2.029,1.84,1.509,1.509,0,0,0,.89,1.46,1.145,1.145,0,0,0-.58.93,1.124,1.124,0,0,0,1.359,1h0.83c0.659,0,1.059.25,1.059,0.75,0,0.53-.4.82-1.539,0.82-1.159,0-1.429-.28-1.429-0.88h-0.83c0,1.07.54,1.6,2.259,1.6,1.629,0,2.469-.58,2.469-1.6a1.584,1.584,0,0,0-1.8-1.46h-0.84c-0.54,0-.69-0.19-0.69-0.43a0.635,0.635,0,0,1,.26-0.49,2.132,2.132,0,0,0,.67.1,1.793,1.793,0,0,0,2.009-1.79,1.388,1.388,0,0,0-.93-1.33,5.134,5.134,0,0,0,1.54-.16Zm-2.409,1.13a1.022,1.022,0,0,1,1.129,1.17,1.047,1.047,0,0,1-1.109,1.2,1.067,1.067,0,0,1-1.109-1.19A1.054,1.054,0,0,1,979.885,1549.77Zm4.081-3.07a0.625,0.625,0,1,0,.649.63A0.612,0.612,0,0,0,983.966,1546.7Zm0.469,2.53h-0.919v5.27h0.919v-5.27Zm4.379-.12a1.911,1.911,0,0,0-1.609.9l-0.08-.78h-0.789v5.27h0.919v-3.74a1.593,1.593,0,0,1,1.339-.93c0.51,0,.83.23,0.83,1.02v3.65h0.92v-3.78A1.442,1.442,0,0,0,988.814,1549.11Zm8.34,4.52a1.282,1.282,0,0,1-.7.23c-0.46,0-.63-0.25-0.63-0.78v-3.14h1.15l0.1-.71h-1.249v-1.3l-0.919.11v1.19h-0.92v0.71h0.92v3.18a1.323,1.323,0,0,0,1.419,1.5,2.006,2.006,0,0,0,1.179-.36Zm3.776-4.52a1.883,1.883,0,0,0-1.555.85v-2.94l-0.919.1v7.38h0.919v-3.75a1.606,1.606,0,0,1,1.325-.92c0.5,0,.84.23,0.84,1.02v3.65h0.92v-3.78A1.451,1.451,0,0,0,1000.93,1549.11Zm7.36,2.6c0-1.61-.75-2.6-2.17-2.6-1.35,0-2.18,1.17-2.18,2.81,0,1.67.86,2.7,2.32,2.7a2.873,2.873,0,0,0,1.84-.66l-0.4-.55a2.218,2.218,0,0,1-1.37.46c-0.76,0-1.32-.47-1.41-1.69h3.35C1008.28,1552.06,1008.29,1551.89,1008.29,1551.71Zm-0.91-.21h-2.46c0.07-1.17.53-1.66,1.22-1.66,0.83,0,1.24.57,1.24,1.6v0.06Zm7.37-2.39a1.486,1.486,0,0,0-1.4,1.19l-0.09-1.07h-0.79v5.27h0.91v-3.01c0.22-1.01.6-1.48,1.26-1.48a1.653,1.653,0,0,1,.46.06l0.17-.9A2.242,2.242,0,0,0,1014.75,1549.11Zm5.45,2.6c0-1.61-.75-2.6-2.17-2.6-1.35,0-2.18,1.17-2.18,2.81,0,1.67.86,2.7,2.32,2.7a2.873,2.873,0,0,0,1.84-.66l-0.4-.55a2.218,2.218,0,0,1-1.37.46c-0.76,0-1.32-.47-1.41-1.69h3.35C1020.19,1552.06,1020.2,1551.89,1020.2,1551.71Zm-0.91-.21h-2.46c0.07-1.17.52-1.66,1.22-1.66,0.83,0,1.24.57,1.24,1.6v0.06Zm3.86-2.39a1.665,1.665,0,0,0-1.89,1.45c0,0.74.45,1.23,1.58,1.53,1.02,0.27,1.28.47,1.28,0.99a0.931,0.931,0,0,1-1.13.8,2.361,2.361,0,0,1-1.47-.51l-0.49.56a2.913,2.913,0,0,0,1.98.69c1.07,0,2.08-.5,2.08-1.6,0-.92-0.64-1.36-1.75-1.64-0.85-.22-1.12-0.42-1.12-0.85a0.793,0.793,0,0,1,.96-0.69,2.431,2.431,0,0,1,1.37.45l0.39-.58A2.8,2.8,0,0,0,1023.15,1549.11Zm7.22,2.6c0-1.61-.75-2.6-2.17-2.6-1.35,0-2.18,1.17-2.18,2.81,0,1.67.85,2.7,2.32,2.7a2.873,2.873,0,0,0,1.84-.66l-0.4-.55a2.218,2.218,0,0,1-1.37.46c-0.76,0-1.33-.47-1.42-1.69h3.36C1030.36,1552.06,1030.37,1551.89,1030.37,1551.71Zm-0.91-.21h-2.47c0.07-1.17.53-1.66,1.23-1.66,0.83,0,1.24.57,1.24,1.6v0.06Zm4.74,2.13a1.288,1.288,0,0,1-.7.23c-0.46,0-.63-0.25-0.63-0.78v-3.14h1.15l0.1-.71h-1.25v-1.3l-0.91.11v1.19h-0.92v0.71h0.92v3.18a1.317,1.317,0,0,0,1.41,1.5,2.009,2.009,0,0,0,1.18-.36Zm6.37-4.52a1.916,1.916,0,0,0-1.56.83l-0.07-.71h-0.78v7.4l0.91-.11v-2.5a1.7,1.7,0,0,0,1.38.6c1.36,0,2.07-1.16,2.07-2.76C1042.52,1550.2,1041.97,1549.11,1040.57,1549.11Zm-0.34,4.76a1.357,1.357,0,0,1-1.16-.64v-2.57a1.6,1.6,0,0,1,1.27-.82c0.79,0,1.19.65,1.19,2.02S1041.07,1553.87,1040.23,1553.87Zm6.15-4.76a1.5,1.5,0,0,0-1.41,1.19l-0.09-1.07h-0.78v5.27h0.91v-3.01c0.22-1.01.6-1.48,1.26-1.48a1.653,1.653,0,0,1,.46.06l0.17-.9A2.242,2.242,0,0,0,1046.38,1549.11Zm3.45,0c-1.5,0-2.35,1.13-2.35,2.76,0,1.67.84,2.75,2.34,2.75s2.35-1.13,2.35-2.76C1052.17,1550.19,1051.33,1549.11,1049.83,1549.11Zm0,0.74c0.87,0,1.35.64,1.35,2.01s-0.48,2.02-1.36,2.02-1.36-.64-1.36-2.01S1048.95,1549.85,1049.83,1549.85Zm5.78-.74c-1.43,0-2.29,1.12-2.29,2.8,0,1.7.87,2.71,2.29,2.71a2.486,2.486,0,0,0,1.61-.58l-0.42-.6a1.957,1.957,0,0,1-1.15.4c-0.83,0-1.35-.57-1.35-1.95s0.52-2.02,1.35-2.02a1.8,1.8,0,0,1,1.13.39l0.44-.58A2.342,2.342,0,0,0,1055.61,1549.11Zm6.74,2.6c0-1.61-.75-2.6-2.17-2.6-1.36,0-2.18,1.17-2.18,2.81,0,1.67.85,2.7,2.32,2.7a2.873,2.873,0,0,0,1.84-.66l-0.4-.55a2.218,2.218,0,0,1-1.37.46c-0.76,0-1.33-.47-1.42-1.69h3.36C1062.34,1552.06,1062.35,1551.89,1062.35,1551.71Zm-0.91-.21h-2.47c0.07-1.17.53-1.66,1.23-1.66,0.83,0,1.24.57,1.24,1.6v0.06Zm3.86-2.39a1.659,1.659,0,0,0-1.89,1.45c0,0.74.44,1.23,1.58,1.53,1.02,0.27,1.28.47,1.28,0.99a0.931,0.931,0,0,1-1.13.8,2.39,2.39,0,0,1-1.48-.51l-0.48.56a2.876,2.876,0,0,0,1.98.69c1.07,0,2.08-.5,2.08-1.6,0-.92-0.64-1.36-1.75-1.64-0.85-.22-1.13-0.42-1.13-0.85a0.8,0.8,0,0,1,.97-0.69,2.431,2.431,0,0,1,1.37.45l0.39-.58A2.8,2.8,0,0,0,1065.3,1549.11Zm4.67,0a1.659,1.659,0,0,0-1.89,1.45c0,0.74.44,1.23,1.58,1.53,1.02,0.27,1.28.47,1.28,0.99a0.931,0.931,0,0,1-1.13.8,2.39,2.39,0,0,1-1.48-.51l-0.48.56a2.876,2.876,0,0,0,1.98.69c1.07,0,2.08-.5,2.08-1.6,0-.92-0.64-1.36-1.75-1.64-0.85-.22-1.13-0.42-1.13-0.85a0.8,0.8,0,0,1,.97-0.69,2.431,2.431,0,0,1,1.37.45l0.39-.58A2.8,2.8,0,0,0,1069.97,1549.11Zm8.3,0a1.777,1.777,0,0,0-1.49.78V1547l-0.92.11v7.39h0.81l0.09-.58a1.752,1.752,0,0,0,1.4.7c1.28,0,2.07-1.11,2.07-2.76C1080.23,1550.1,1079.46,1549.11,1078.27,1549.11Zm-0.33,4.78a1.419,1.419,0,0,1-1.16-.71v-2.52a1.5,1.5,0,0,1,1.23-.82c0.74,0,1.23.52,1.23,2.02C1079.24,1553.3,1078.71,1553.89,1077.94,1553.89Zm7.63-4.66h-0.95l-1.38,4.6-1.41-4.6h-0.97l1.76,5.27h0.31a1.8,1.8,0,0,1-1.67,1.41l0.1,0.72a2.679,2.679,0,0,0,2.45-2.1Zm-142.416,14.48c0-1.61-.75-2.6-2.169-2.6-1.359,0-2.189,1.17-2.189,2.81,0,1.67.86,2.7,2.329,2.7a2.87,2.87,0,0,0,1.839-.66l-0.4-.55a2.216,2.216,0,0,1-1.369.46c-0.76,0-1.329-.47-1.419-1.69h3.358C943.144,1564.06,943.154,1563.89,943.154,1563.71Zm-0.91-.21h-2.468c0.07-1.17.529-1.66,1.229-1.66,0.83,0,1.239.57,1.239,1.6v0.06Zm4.911-2.39a1.912,1.912,0,0,0-1.61.9l-0.08-.78h-0.789v5.27H945.6v-3.74a1.594,1.594,0,0,1,1.34-.93c0.509,0,.829.23,0.829,1.02v3.65h0.92v-3.78A1.442,1.442,0,0,0,947.155,1561.11Zm5.69,4.52a1.288,1.288,0,0,1-.7.23c-0.46,0-.63-0.25-0.63-0.78v-3.14h1.15l0.1-.71h-1.25v-1.3l-0.919.11v1.19h-0.92v0.71h0.92v3.18a1.324,1.324,0,0,0,1.419,1.5,2,2,0,0,0,1.179-.36Zm5.179-1.92c0-1.61-.75-2.6-2.169-2.6-1.359,0-2.189,1.17-2.189,2.81,0,1.67.86,2.7,2.329,2.7a2.872,2.872,0,0,0,1.839-.66l-0.4-.55a2.218,2.218,0,0,1-1.369.46c-0.76,0-1.329-.47-1.419-1.69H958C958.014,1564.06,958.024,1563.89,958.024,1563.71Zm-0.91-.21h-2.468c0.069-1.17.529-1.66,1.229-1.66,0.829,0,1.239.57,1.239,1.6v0.06Zm4.721-2.39a1.5,1.5,0,0,0-1.41,1.19l-0.09-1.07h-0.789v5.27h0.919v-3.01c0.22-1.01.6-1.48,1.26-1.48a1.651,1.651,0,0,1,.459.06l0.17-.9A2.239,2.239,0,0,0,961.835,1561.11Zm2.02-2.41a0.625,0.625,0,1,0,.65.63A0.612,0.612,0,0,0,963.855,1558.7Zm0.47,2.53h-0.919v5.27h0.919v-5.27Zm4.379-.12a1.911,1.911,0,0,0-1.609.9l-0.08-.78h-0.789v5.27h0.919v-3.74a1.593,1.593,0,0,1,1.339-.93c0.51,0,.83.23,0.83,1.02v3.65h0.919v-3.78A1.441,1.441,0,0,0,968.7,1561.11Zm7.359-.47a4.521,4.521,0,0,1-2.408.47,1.878,1.878,0,0,0-2.029,1.84,1.509,1.509,0,0,0,.889,1.46,1.146,1.146,0,0,0-.579.93,1.124,1.124,0,0,0,1.359,1h0.829c0.66,0,1.06.25,1.06,0.75,0,0.53-.4.82-1.539,0.82-1.16,0-1.43-.28-1.43-0.88h-0.829c0,1.07.54,1.6,2.259,1.6,1.629,0,2.468-.58,2.468-1.6a1.583,1.583,0,0,0-1.8-1.46h-0.839c-0.54,0-.69-0.19-0.69-0.43a0.635,0.635,0,0,1,.26-0.49,2.132,2.132,0,0,0,.67.1,1.793,1.793,0,0,0,2.009-1.79,1.388,1.388,0,0,0-.93-1.33,5.127,5.127,0,0,0,1.539-.16Zm-2.408,1.13a1.022,1.022,0,0,1,1.129,1.17,1.048,1.048,0,0,1-1.109,1.2,1.067,1.067,0,0,1-1.11-1.19A1.055,1.055,0,0,1,973.655,1561.77Zm10.148-.54h-0.949l-1.379,4.6-1.41-4.6h-0.979l1.769,5.27h0.31a1.8,1.8,0,0,1-1.669,1.41l0.1,0.72a2.676,2.676,0,0,0,2.448-2.1Zm2.881-.12c-1.5,0-2.358,1.13-2.358,2.76,0,1.67.849,2.75,2.348,2.75s2.349-1.13,2.349-2.76C989.023,1562.19,988.183,1561.11,986.684,1561.11Zm0,0.74c0.87,0,1.35.64,1.35,2.01s-0.48,2.02-1.36,2.02-1.359-.64-1.359-2.01S985.805,1561.85,986.684,1561.85Zm7.779-.62h-0.919v3.76a1.588,1.588,0,0,1-1.32.91c-0.569,0-.809-0.27-0.809-0.99v-3.68H990.5v3.78a1.409,1.409,0,0,0,1.47,1.61,1.769,1.769,0,0,0,1.639-.94l0.07,0.82h0.789v-5.27Zm4.191-.12a1.5,1.5,0,0,0-1.409,1.19l-0.09-1.07h-0.79v5.27h0.92v-3.01c0.22-1.01.6-1.48,1.259-1.48a1.653,1.653,0,0,1,.46.06l0.17-.9A2.242,2.242,0,0,0,998.654,1561.11Zm8.2,2.6c0-1.61-.75-2.6-2.17-2.6-1.36,0-2.18,1.17-2.18,2.81,0,1.67.85,2.7,2.32,2.7a2.873,2.873,0,0,0,1.84-.66l-0.4-.55a2.218,2.218,0,0,1-1.37.46c-0.76,0-1.33-.47-1.42-1.69h3.36C1006.84,1564.06,1006.85,1563.89,1006.85,1563.71Zm-0.91-.21h-2.47c0.07-1.17.53-1.66,1.23-1.66,0.83,0,1.24.57,1.24,1.6v0.06Zm7.72-2.39a1.828,1.828,0,0,0-1.57.95,1.328,1.328,0,0,0-1.33-.95,1.762,1.762,0,0,0-1.52.89l-0.08-.77h-0.79v5.27h0.92v-3.74a1.482,1.482,0,0,1,1.24-.93c0.4,0,.74.23,0.74,1.02v3.65h0.92v-3.74a1.5,1.5,0,0,1,1.24-.93c0.4,0,.74.23,0.74,1.02v3.65h0.92v-3.78A1.43,1.43,0,0,0,1013.66,1561.11Zm6.83,4.16v-2.41a1.6,1.6,0,0,0-1.85-1.75,5.159,5.159,0,0,0-1.82.36l0.23,0.67a4.718,4.718,0,0,1,1.42-.28,0.922,0.922,0,0,1,1.1,1.04v0.39h-0.81c-1.47,0-2.31.61-2.31,1.74a1.524,1.524,0,0,0,1.67,1.59,1.8,1.8,0,0,0,1.57-.79,1.062,1.062,0,0,0,1.03.79l0.21-.64A0.624,0.624,0,0,1,1020.49,1565.27Zm-2.16.66a0.831,0.831,0,0,1-.91-0.95c0-.72.49-1.08,1.46-1.08h0.69v1.21A1.354,1.354,0,0,1,1018.33,1565.93Zm4.5-7.23a0.625,0.625,0,1,0,.65.63A0.612,0.612,0,0,0,1022.83,1558.7Zm0.47,2.53h-0.92v5.27h0.92v-5.27Zm2.95,5.39a1.546,1.546,0,0,0,.73-0.18l-0.24-.64a0.9,0.9,0,0,1-.34.06c-0.24,0-.33-0.14-0.33-0.42V1559l-0.92.11v6.35A1.037,1.037,0,0,0,1026.25,1566.62Zm6.94-5.51a1.777,1.777,0,0,0-1.49.78V1559l-0.92.11v7.39h0.81l0.09-.58a1.752,1.752,0,0,0,1.4.7c1.28,0,2.07-1.11,2.07-2.76C1035.15,1562.1,1034.38,1561.11,1033.19,1561.11Zm-0.33,4.78a1.419,1.419,0,0,1-1.16-.71v-2.52a1.5,1.5,0,0,1,1.23-.82c0.74,0,1.23.52,1.23,2.02C1034.16,1565.3,1033.63,1565.89,1032.86,1565.89Zm7.84-2.18c0-1.61-.75-2.6-2.17-2.6-1.36,0-2.19,1.17-2.19,2.81,0,1.67.86,2.7,2.33,2.7a2.873,2.873,0,0,0,1.84-.66l-0.4-.55a2.218,2.218,0,0,1-1.37.46c-0.76,0-1.33-.47-1.42-1.69h3.36C1040.69,1564.06,1040.7,1563.89,1040.7,1563.71Zm-0.91-.21h-2.47c0.07-1.17.53-1.66,1.23-1.66,0.83,0,1.24.57,1.24,1.6v0.06Zm3.48,3.12a1.546,1.546,0,0,0,.73-0.18l-0.24-.64a0.9,0.9,0,0,1-.34.06c-0.24,0-.33-0.14-0.33-0.42V1559l-0.92.11v6.35A1.037,1.037,0,0,0,1043.27,1566.62Zm3.76-5.51c-1.5,0-2.36,1.13-2.36,2.76,0,1.67.85,2.75,2.35,2.75s2.35-1.13,2.35-2.76C1049.37,1562.19,1048.53,1561.11,1047.03,1561.11Zm0,0.74c0.87,0,1.35.64,1.35,2.01s-0.48,2.02-1.36,2.02-1.36-.64-1.36-2.01S1046.15,1561.85,1047.03,1561.85Zm9.78-.62h-0.88l-0.96,4.63-0.99-4.63h-1.03l-1.04,4.63-0.95-4.63h-0.91l1.22,5.27h1.22l0.95-4.44,0.92,4.44h1.25Zm1.19,4a0.7,0.7,0,1,0,.7.69A0.685,0.685,0,0,0,1058,1565.23Z" transform="translate(-898.5 -1432.5)"/>
  <path id="Are_you_sure_you_want_to_reset_your_account_password_" data-name="Are you sure you want to reset your account password?" class="cls-2" d="M922.322,1480h1.2l-2.638-8.26h-1.44l-2.65,8.26h1.151l0.624-2.07h3.13Zm-3.478-3,1.295-4.32,1.283,4.32h-2.578Zm8.639-3.46a1.805,1.805,0,0,0-1.691,1.42l-0.108-1.28h-0.948V1480h1.1v-3.61c0.264-1.21.719-1.78,1.511-1.78a1.905,1.905,0,0,1,.552.08l0.2-1.08A2.571,2.571,0,0,0,927.483,1473.54Zm6.539,3.11c0-1.93-.9-3.11-2.6-3.11-1.631,0-2.627,1.4-2.627,3.37,0,2,1.032,3.23,2.795,3.23a3.456,3.456,0,0,0,2.207-.79l-0.48-.66a2.62,2.62,0,0,1-1.643.55c-0.912,0-1.6-.56-1.7-2.02H934C934.01,1477.07,934.022,1476.87,934.022,1476.65Zm-1.092-.25h-2.962c0.084-1.4.635-1.99,1.475-1.99,1,0,1.487.68,1.487,1.92v0.07Zm10.74-2.72h-1.14l-1.655,5.52-1.691-5.52h-1.175l2.122,6.32H940.5a2.15,2.15,0,0,1-2,1.69l0.12,0.86a3.207,3.207,0,0,0,2.939-2.51Zm3.457-.14c-1.8,0-2.831,1.35-2.831,3.31,0,2,1.02,3.29,2.819,3.29s2.818-1.35,2.818-3.31C949.933,1474.83,948.926,1473.54,947.127,1473.54Zm0,0.88c1.043,0,1.619.77,1.619,2.41,0,1.66-.576,2.43-1.631,2.43s-1.631-.77-1.631-2.41C945.484,1475.19,946.071,1474.42,947.127,1474.42Zm9.334-.74h-1.1v4.51a1.915,1.915,0,0,1-1.583,1.09c-0.684,0-.972-0.32-0.972-1.19v-4.41h-1.1v4.53a1.687,1.687,0,0,0,1.763,1.93,2.13,2.13,0,0,0,1.967-1.12l0.084,0.98h0.947v-6.32Zm7.178-.14c-1.307,0-2.279.73-2.279,1.73,0,0.89.54,1.48,1.907,1.84,1.223,0.32,1.535.56,1.535,1.19a1.117,1.117,0,0,1-1.355.96,2.836,2.836,0,0,1-1.775-.62l-0.588.68a3.5,3.5,0,0,0,2.387.82c1.283,0,2.494-.6,2.494-1.92,0-1.1-.767-1.63-2.1-1.96-1.02-.27-1.356-0.51-1.356-1.02a0.961,0.961,0,0,1,1.164-.83,2.917,2.917,0,0,1,1.643.54l0.468-.69A3.335,3.335,0,0,0,963.639,1473.54Zm8.59,0.14h-1.1v4.51a1.915,1.915,0,0,1-1.583,1.09c-0.684,0-.972-0.32-0.972-1.19v-4.41h-1.1v4.53a1.687,1.687,0,0,0,1.763,1.93,2.131,2.131,0,0,0,1.967-1.12l0.084,0.98h0.947v-6.32Zm5.029-.14a1.805,1.805,0,0,0-1.691,1.42l-0.108-1.28h-0.947V1480h1.1v-3.61c0.264-1.21.72-1.78,1.511-1.78a1.905,1.905,0,0,1,.552.08l0.2-1.08A2.585,2.585,0,0,0,977.258,1473.54Zm6.539,3.11c0-1.93-.9-3.11-2.6-3.11-1.631,0-2.626,1.4-2.626,3.37,0,2,1.031,3.23,2.794,3.23a3.454,3.454,0,0,0,2.207-.79l-0.48-.66a2.619,2.619,0,0,1-1.643.55c-0.911,0-1.6-.56-1.7-2.02h4.03C983.785,1477.07,983.8,1476.87,983.8,1476.65Zm-1.092-.25h-2.962c0.084-1.4.636-1.99,1.475-1.99,1,0,1.487.68,1.487,1.92v0.07Zm10.74-2.72h-1.14l-1.655,5.52-1.691-5.52h-1.175l2.123,6.32h0.371a2.148,2.148,0,0,1-2,1.69l0.119,0.86a3.207,3.207,0,0,0,2.939-2.51Zm3.457-.14c-1.8,0-2.831,1.35-2.831,3.31,0,2,1.02,3.29,2.819,3.29s2.818-1.35,2.818-3.31C999.708,1474.83,998.7,1473.54,996.9,1473.54Zm0,0.88c1.043,0,1.619.77,1.619,2.41,0,1.66-.576,2.43-1.631,2.43s-1.631-.77-1.631-2.41C995.259,1475.19,995.846,1474.42,996.9,1474.42Zm9.338-.74h-1.11v4.51a1.909,1.909,0,0,1-1.58,1.09c-0.68,0-.97-0.32-0.97-1.19v-4.41h-1.1v4.53a1.682,1.682,0,0,0,1.76,1.93,2.134,2.134,0,0,0,1.97-1.12l0.08,0.98h0.95v-6.32Zm12.68,0h-1.06l-1.15,5.55-1.19-5.55h-1.23l-1.25,5.55-1.14-5.55h-1.1l1.47,6.32h1.47l1.14-5.32,1.1,5.32h1.5Zm5.64,4.84v-2.89a1.924,1.924,0,0,0-2.22-2.09,6.114,6.114,0,0,0-2.18.43l0.27,0.8a5.857,5.857,0,0,1,1.71-.33,1.1,1.1,0,0,1,1.32,1.24v0.47h-0.97c-1.77,0-2.79.73-2.79,2.09a1.84,1.84,0,0,0,2.02,1.9,2.134,2.134,0,0,0,1.88-.94,1.269,1.269,0,0,0,1.24.94l0.25-.76A0.75,0.75,0,0,1,1024.56,1478.52Zm-2.59.8a1,1,0,0,1-1.09-1.14c0-.87.59-1.3,1.75-1.3h0.83v1.45A1.632,1.632,0,0,1,1021.97,1479.32Zm7.84-5.78a2.325,2.325,0,0,0-1.94,1.07l-0.09-.93h-0.95V1480h1.1v-4.49a1.91,1.91,0,0,1,1.61-1.11c0.61,0,1,.28,1,1.22V1480h1.1v-4.53A1.726,1.726,0,0,0,1029.81,1473.54Zm6.82,5.42a1.536,1.536,0,0,1-.84.27c-0.55,0-.75-0.3-0.75-0.93v-3.77h1.38l0.12-.85h-1.5v-1.56l-1.11.13v1.43h-1.1v0.85h1.1v3.81a1.59,1.59,0,0,0,1.71,1.8,2.377,2.377,0,0,0,1.41-.43Zm7.52,0a1.586,1.586,0,0,1-.84.27c-0.56,0-.76-0.3-0.76-0.93v-3.77h1.38l0.12-.85h-1.5v-1.56l-1.1.13v1.43h-1.11v0.85h1.11v3.81a1.583,1.583,0,0,0,1.7,1.8,2.355,2.355,0,0,0,1.41-.43Zm3.81-5.42c-1.8,0-2.83,1.35-2.83,3.31,0,2,1.02,3.29,2.82,3.29s2.82-1.35,2.82-3.31C1050.77,1474.83,1049.76,1473.54,1047.96,1473.54Zm0,0.88c1.04,0,1.62.77,1.62,2.41,0,1.66-.58,2.43-1.63,2.43s-1.63-.77-1.63-2.41C1046.32,1475.19,1046.91,1474.42,1047.96,1474.42Zm10.56-.88a1.806,1.806,0,0,0-1.69,1.42l-0.11-1.28h-0.95V1480h1.11v-3.61c0.26-1.21.72-1.78,1.51-1.78a1.871,1.871,0,0,1,.55.08l0.2-1.08A2.508,2.508,0,0,0,1058.52,1473.54Zm6.54,3.11c0-1.93-.9-3.11-2.6-3.11-1.63,0-2.63,1.4-2.63,3.37,0,2,1.03,3.23,2.8,3.23a3.439,3.439,0,0,0,2.2-.79l-0.48-.66a2.616,2.616,0,0,1-1.64.55c-0.91,0-1.6-.56-1.7-2.02h4.03C1065.05,1477.07,1065.06,1476.87,1065.06,1476.65Zm-1.09-.25h-2.96c0.08-1.4.63-1.99,1.47-1.99,1,0,1.49.68,1.49,1.92v0.07Zm4.63-2.86c-1.31,0-2.28.73-2.28,1.73,0,0.89.54,1.48,1.91,1.84,1.22,0.32,1.53.56,1.53,1.19a1.111,1.111,0,0,1-1.35.96,2.871,2.871,0,0,1-1.78-.62l-0.58.68a3.493,3.493,0,0,0,2.38.82c1.29,0,2.5-.6,2.5-1.92,0-1.1-.77-1.63-2.1-1.96-1.02-.27-1.36-0.51-1.36-1.02a0.967,0.967,0,0,1,1.17-.83,2.891,2.891,0,0,1,1.64.54l0.47-.69A3.337,3.337,0,0,0,1068.6,1473.54Zm8.66,3.11c0-1.93-.9-3.11-2.6-3.11-1.63,0-2.63,1.4-2.63,3.37,0,2,1.04,3.23,2.8,3.23a3.487,3.487,0,0,0,2.21-.79l-0.48-.66a2.644,2.644,0,0,1-1.65.55c-0.91,0-1.59-.56-1.7-2.02h4.03C1077.25,1477.07,1077.26,1476.87,1077.26,1476.65Zm-1.09-.25h-2.96c0.08-1.4.64-1.99,1.48-1.99,0.99,0,1.48.68,1.48,1.92v0.07Zm5.69,2.56a1.536,1.536,0,0,1-.84.27c-0.55,0-.75-0.3-0.75-0.93v-3.77h1.37l0.12-.85h-1.49v-1.56l-1.11.13v1.43h-1.1v0.85h1.1v3.81a1.59,1.59,0,0,0,1.71,1.8,2.4,2.4,0,0,0,1.41-.43Zm-142.206,9.12h-1.139l-1.655,5.52-1.691-5.52h-1.176l2.123,6.32h0.372a2.151,2.151,0,0,1-2,1.69l0.12,0.86a3.207,3.207,0,0,0,2.939-2.51Zm3.457-.14c-1.8,0-2.83,1.35-2.83,3.31,0,2,1.02,3.29,2.818,3.29s2.819-1.35,2.819-3.31C945.918,1489.23,944.91,1487.94,943.111,1487.94Zm0,0.88c1.044,0,1.62.77,1.62,2.41,0,1.66-.576,2.43-1.632,2.43s-1.631-.77-1.631-2.41C941.468,1489.59,942.056,1488.82,943.111,1488.82Zm9.335-.74h-1.1v4.51a1.915,1.915,0,0,1-1.583,1.09c-0.684,0-.972-0.32-0.972-1.19v-4.41h-1.1v4.53a1.687,1.687,0,0,0,1.763,1.93,2.131,2.131,0,0,0,1.967-1.12l0.084,0.98h0.947v-6.32Zm5.029-.14a1.805,1.805,0,0,0-1.691,1.42l-0.108-1.28h-0.947v6.32h1.1v-3.61c0.264-1.21.72-1.78,1.511-1.78a1.905,1.905,0,0,1,.552.08l0.2-1.08A2.585,2.585,0,0,0,957.475,1487.94Zm9.323,4.98v-2.89a1.922,1.922,0,0,0-2.219-2.09,6.132,6.132,0,0,0-2.182.43l0.275,0.8a5.822,5.822,0,0,1,1.7-.33,1.1,1.1,0,0,1,1.32,1.24v0.47h-0.972c-1.763,0-2.782.73-2.782,2.09a1.836,1.836,0,0,0,2.015,1.9,2.147,2.147,0,0,0,1.883-.94,1.268,1.268,0,0,0,1.235.94l0.252-.76A0.754,0.754,0,0,1,966.8,1492.92Zm-2.59.8a1,1,0,0,1-1.092-1.14c0-.87.588-1.3,1.751-1.3H965.7v1.45A1.631,1.631,0,0,1,964.208,1493.72Zm7.163-5.78c-1.715,0-2.758,1.34-2.758,3.35,0,2.04,1.055,3.25,2.758,3.25a3.008,3.008,0,0,0,1.931-.69l-0.5-.72a2.357,2.357,0,0,1-1.379.48c-1,0-1.619-.69-1.619-2.34s0.624-2.42,1.619-2.42a2.163,2.163,0,0,1,1.355.46l0.528-.69A2.814,2.814,0,0,0,971.371,1487.94Zm5.616,0c-1.715,0-2.758,1.34-2.758,3.35,0,2.04,1.055,3.25,2.758,3.25a3.008,3.008,0,0,0,1.931-.69l-0.5-.72a2.357,2.357,0,0,1-1.379.48c-1,0-1.619-.69-1.619-2.34s0.624-2.42,1.619-2.42a2.163,2.163,0,0,1,1.355.46l0.528-.69A2.814,2.814,0,0,0,976.987,1487.94Zm5.688,0c-1.8,0-2.83,1.35-2.83,3.31,0,2,1.019,3.29,2.818,3.29s2.819-1.35,2.819-3.31C985.482,1489.23,984.474,1487.94,982.675,1487.94Zm0,0.88c1.043,0,1.619.77,1.619,2.41,0,1.66-.576,2.43-1.631,2.43s-1.631-.77-1.631-2.41C981.032,1489.59,981.62,1488.82,982.675,1488.82Zm9.335-.74h-1.1v4.51a1.912,1.912,0,0,1-1.583,1.09c-0.683,0-.971-0.32-0.971-1.19v-4.41h-1.1v4.53a1.687,1.687,0,0,0,1.763,1.93,2.129,2.129,0,0,0,1.967-1.12l0.084,0.98h0.948v-6.32Zm5.257-.14a2.3,2.3,0,0,0-1.931,1.07l-0.1-.93h-0.948v6.32h1.1v-4.49A1.907,1.907,0,0,1,997,1488.8c0.611,0,1,.28,1,1.22v4.38h1.1v-4.53A1.729,1.729,0,0,0,997.267,1487.94Zm6.823,5.42a1.53,1.53,0,0,1-.83.27c-0.56,0-.76-0.3-0.76-0.93v-3.77h1.38l0.12-.85h-1.5v-1.56l-1.1.13v1.43h-1.11v0.85h1.11v3.82a1.58,1.58,0,0,0,1.7,1.79,2.377,2.377,0,0,0,1.41-.43Zm7.65-5.42a2.286,2.286,0,0,0-1.87.99l-0.09-.85h-0.94v8.87l1.1-.13v-3a2.013,2.013,0,0,0,1.65.72c1.64,0,2.49-1.39,2.49-3.31C1014.08,1489.24,1013.42,1487.94,1011.74,1487.94Zm-0.41,5.7a1.624,1.624,0,0,1-1.39-.76v-3.09a1.932,1.932,0,0,1,1.52-.98c0.95,0,1.43.78,1.43,2.42C1012.89,1492.89,1012.34,1493.64,1011.33,1493.64Zm8.89-.72v-2.89a1.92,1.92,0,0,0-2.22-2.09,6.155,6.155,0,0,0-2.18.43l0.28,0.8a5.74,5.74,0,0,1,1.7-.33,1.1,1.1,0,0,1,1.32,1.24v0.47h-0.97c-1.77,0-2.79.73-2.79,2.09a1.84,1.84,0,0,0,2.02,1.9,2.134,2.134,0,0,0,1.88-.94,1.269,1.269,0,0,0,1.24.94l0.25-.76A0.758,0.758,0,0,1,1020.22,1492.92Zm-2.59.8a1,1,0,0,1-1.09-1.14c0-.87.59-1.3,1.75-1.3h0.83v1.45A1.632,1.632,0,0,1,1017.63,1493.72Zm6.58-5.78c-1.31,0-2.28.73-2.28,1.73,0,0.89.54,1.48,1.91,1.84,1.22,0.32,1.53.56,1.53,1.19a1.116,1.116,0,0,1-1.35.96,2.829,2.829,0,0,1-1.78-.62l-0.59.68a3.5,3.5,0,0,0,2.39.82c1.28,0,2.49-.6,2.49-1.92,0-1.1-.76-1.63-2.1-1.96-1.01-.27-1.35-0.51-1.35-1.02a0.957,0.957,0,0,1,1.16-.83,2.945,2.945,0,0,1,1.65.54l0.46-.69A3.329,3.329,0,0,0,1024.21,1487.94Zm5.6,0c-1.31,0-2.28.73-2.28,1.73,0,0.89.54,1.48,1.91,1.84,1.22,0.32,1.53.56,1.53,1.19a1.111,1.111,0,0,1-1.35.96,2.871,2.871,0,0,1-1.78-.62l-0.58.68a3.493,3.493,0,0,0,2.38.82c1.29,0,2.5-.6,2.5-1.92,0-1.1-.77-1.63-2.1-1.96-1.02-.27-1.36-0.51-1.36-1.02a0.967,0.967,0,0,1,1.17-.83,2.915,2.915,0,0,1,1.64.54l0.47-.69A3.337,3.337,0,0,0,1029.81,1487.94Zm10.99,0.14h-1.06l-1.15,5.55-1.18-5.55h-1.24l-1.25,5.55-1.14-5.55h-1.1l1.48,6.32h1.46l1.14-5.32,1.1,5.32h1.5Zm3.64-.14c-1.8,0-2.83,1.35-2.83,3.31,0,2,1.02,3.29,2.82,3.29,1.78,0,2.81-1.35,2.81-3.31C1047.24,1489.23,1046.24,1487.94,1044.44,1487.94Zm0,0.88c1.04,0,1.62.77,1.62,2.41,0,1.66-.58,2.43-1.63,2.43s-1.63-.77-1.63-2.41C1042.8,1489.59,1043.38,1488.82,1044.44,1488.82Zm7.38-.88a1.8,1.8,0,0,0-1.69,1.42l-0.11-1.28h-0.95v6.32h1.11v-3.61c0.26-1.21.71-1.78,1.51-1.78a1.922,1.922,0,0,1,.55.08l0.2-1.08A2.564,2.564,0,0,0,1051.82,1487.94Zm5.55-2.54v3.32a2.248,2.248,0,0,0-1.7-.78c-1.55,0-2.48,1.4-2.48,3.33,0,1.97.85,3.27,2.38,3.27a2.118,2.118,0,0,0,1.83-1.02l0.11,0.88h0.97v-8.86Zm-1.56,8.27c-0.91,0-1.43-.76-1.43-2.42s0.58-2.44,1.53-2.44a1.791,1.791,0,0,1,1.46.83v3.09A1.81,1.81,0,0,1,1055.81,1493.67Zm6.66-7.68a3.127,3.127,0,0,0-2.49,1.19l0.76,0.59a2.11,2.11,0,0,1,1.66-.87,1.041,1.041,0,0,1,1.21,1.04c0,1.29-2.11,1.09-2.11,3.1v0.6h1.09v-0.54c0-1.57,2.18-1.32,2.18-3.24A2.014,2.014,0,0,0,1062.47,1485.99Zm-0.39,6.89a0.83,0.83,0,1,0,.84.82A0.82,0.82,0,0,0,1062.08,1492.88Z" transform="translate(-898.5 -1432.5)"/>
  <path id="Reset_password-2" data-name="Reset password" class="cls-2" d="M957.812,1456.57h2.129l-2.535-4.22a2.6,2.6,0,0,0,1.961-2.62c0-1.91-1.3-2.84-3.838-2.84h-2.886v9.68h1.849v-3.88h1.177Zm-3.32-8.33h1c1.345,0,1.947.44,1.947,1.49,0,1.17-.644,1.63-1.793,1.63h-1.149v-3.12Zm12.239,4.45c0-2.34-1.191-3.74-3.264-3.74-2.1,0-3.292,1.71-3.292,3.96,0,2.34,1.233,3.87,3.53,3.87a4.305,4.305,0,0,0,2.746-.99l-0.743-1.03a3.071,3.071,0,0,1-1.849.66c-0.98,0-1.681-.49-1.821-2h4.651C966.7,1453.22,966.731,1452.93,966.731,1452.69Zm-1.779-.43h-2.914c0.1-1.48.63-2.04,1.471-2.04,1.008,0,1.443.73,1.443,1.95v0.09Zm5.416-3.31c-1.723,0-2.857.92-2.857,2.16,0,1.09.672,1.82,2.2,2.24,1.387,0.39,1.681.59,1.681,1.2a1.083,1.083,0,0,1-1.317.9,3.316,3.316,0,0,1-2.017-.73l-0.9,1.01a4.317,4.317,0,0,0,2.955,1.05c1.7,0,3.124-.81,3.124-2.35,0-1.32-.854-1.94-2.367-2.34-1.261-.35-1.555-0.58-1.555-1.07,0-.45.406-0.74,1.12-0.74a3.391,3.391,0,0,1,1.863.6l0.7-1.05A4.206,4.206,0,0,0,970.368,1448.95Zm10.054,3.74c0-2.34-1.19-3.74-3.263-3.74-2.1,0-3.292,1.71-3.292,3.96,0,2.34,1.233,3.87,3.53,3.87a4.3,4.3,0,0,0,2.745-.99l-0.742-1.03a3.071,3.071,0,0,1-1.849.66c-0.981,0-1.681-.49-1.821-2h4.65C980.394,1453.22,980.422,1452.93,980.422,1452.69Zm-1.779-.43H975.73c0.1-1.48.63-2.04,1.471-2.04,1.008,0,1.442.73,1.442,1.95v0.09Zm6.692,2.8a1.717,1.717,0,0,1-.883.28c-0.546,0-.784-0.3-0.784-1.03v-3.86h1.541l0.182-1.29h-1.723v-1.85l-1.793.21v1.64h-1.163v1.29h1.163v3.91c0,1.58.77,2.41,2.227,2.42a3.225,3.225,0,0,0,1.863-.56Zm8.246-6.11a2.7,2.7,0,0,0-2.143,1.12l-0.1-.91h-1.569v10.46l1.793-.19v-3.46a2.36,2.36,0,0,0,1.863.81c1.877,0,2.927-1.67,2.927-3.94C996.354,1450.48,995.542,1448.95,993.581,1448.95Zm-0.658,6.46a1.564,1.564,0,0,1-1.359-.77v-3.34a1.844,1.844,0,0,1,1.485-1.01c0.924,0,1.428.69,1.428,2.57C994.477,1454.65,993.9,1455.41,992.923,1455.41Zm10.317-.8v-3.11c0-1.64-.87-2.55-2.84-2.55a7.644,7.644,0,0,0-2.691.53l0.42,1.22a6.667,6.667,0,0,1,1.961-.39,1.138,1.138,0,0,1,1.39,1.29v0.42h-0.93c-2.155,0-3.373.87-3.373,2.48a2.2,2.2,0,0,0,2.395,2.28,2.528,2.528,0,0,0,2.218-1.11,1.678,1.678,0,0,0,1.63,1.08l0.38-1.19A0.836,0.836,0,0,1,1003.24,1454.61Zm-3.19.87a0.982,0.982,0,0,1-1.052-1.12c0-.87.574-1.29,1.732-1.29h0.75v1.5A1.587,1.587,0,0,1,1000.05,1455.48Zm7.35-6.53c-1.72,0-2.86.92-2.86,2.16,0,1.09.67,1.82,2.2,2.24,1.39,0.39,1.68.59,1.68,1.2a1.086,1.086,0,0,1-1.32.9,3.3,3.3,0,0,1-2.01-.73l-0.9,1.01a4.326,4.326,0,0,0,2.96,1.05c1.69,0,3.12-.81,3.12-2.35,0-1.32-.85-1.94-2.37-2.34-1.26-.35-1.55-0.58-1.55-1.07,0-.45.4-0.74,1.12-0.74a3.389,3.389,0,0,1,1.86.6l0.7-1.05A4.2,4.2,0,0,0,1007.4,1448.95Zm6.31,0c-1.72,0-2.86.92-2.86,2.16,0,1.09.68,1.82,2.2,2.24,1.39,0.39,1.68.59,1.68,1.2a1.076,1.076,0,0,1-1.31.9,3.326,3.326,0,0,1-2.02-.73l-0.9,1.01a4.345,4.345,0,0,0,2.96,1.05c1.69,0,3.12-.81,3.12-2.35,0-1.32-.85-1.94-2.36-2.34-1.26-.35-1.56-0.58-1.56-1.07,0-.45.41-0.74,1.12-0.74a3.364,3.364,0,0,1,1.86.6l0.71-1.05A4.232,4.232,0,0,0,1013.71,1448.95Zm12.89,0.21h-1.73l-1.1,6.09-1.18-6.09h-1.84l-1.28,6.09-1.04-6.09h-1.79l1.64,7.41h2.19l1.15-5.81,1.12,5.81h2.24Zm3.76-.21c-2.2,0-3.5,1.58-3.5,3.91,0,2.44,1.3,3.92,3.48,3.92s3.49-1.58,3.49-3.92C1033.83,1450.43,1032.54,1448.95,1030.36,1448.95Zm0,1.36c1.03,0,1.58.78,1.58,2.55s-0.55,2.56-1.6,2.56-1.59-.78-1.59-2.56C1028.75,1451.11,1029.31,1450.31,1030.36,1450.31Zm8.45-1.35a2.09,2.09,0,0,0-1.93,1.66l-0.17-1.46h-1.55v7.41h1.79v-3.94c0.28-1.26.73-1.92,1.64-1.92a2.391,2.391,0,0,1,.66.09l0.31-1.74A2.614,2.614,0,0,0,1038.81,1448.96Zm5.82-2.97v3.76a2.517,2.517,0,0,0-1.84-.8c-1.88,0-3.01,1.64-3.01,3.92,0,2.36.97,3.91,2.81,3.91a2.47,2.47,0,0,0,2.12-1.15l0.13,0.94h1.58v-10.38Zm-1.53,9.43c-0.88,0-1.43-.66-1.43-2.56,0-1.78.62-2.57,1.55-2.57a1.769,1.769,0,0,1,1.41.79v3.39A1.765,1.765,0,0,1,1043.1,1455.42Z" transform="translate(-898.5 -1432.5)"/>
</svg>
