<svg id="Example_3b.svg" xmlns="http://www.w3.org/2000/svg" width="98.688" height="72.5" viewBox="0 0 98.688 72.5">
  <defs>
    <style>
      .cls-1, .cls-3 {
        fill: #2284e6;
      }

      .cls-1 {
        fill-rule: evenodd;
      }

      .cls-2 {
        fill: none;
        stroke: #2284e6;
        stroke-linejoin: round;
        stroke-width: 2px;
      }
    </style>
  </defs>
  <path id="Show_images_Always_Only_over_Wi-Fi_Blocked_" data-name="Show images       Always        Only over Wi-Fi        Blocked " class="cls-1" d="M879.358,2899.59c-1.631,0-2.818.91-2.818,2.29,0,1.26.755,1.96,2.494,2.5,1.3,0.39,1.643.71,1.643,1.4a1.307,1.307,0,0,1-1.523,1.24,3.141,3.141,0,0,1-2.123-.83l-0.827.91a4.129,4.129,0,0,0,2.986,1.14c1.979,0,3.143-1.06,3.143-2.54,0-1.56-1.008-2.16-2.459-2.62-1.379-.43-1.7-0.69-1.7-1.29a1.081,1.081,0,0,1,1.283-.99,2.8,2.8,0,0,1,1.859.71l0.78-.9A3.732,3.732,0,0,0,879.358,2899.59Zm7.368,1.95a2.292,2.292,0,0,0-1.847.94v-3.45l-1.536.15v8.88h1.536v-4.43a1.667,1.667,0,0,1,1.331-.94c0.468,0,.779.22,0.779,1.02v4.35h1.536v-4.59A1.72,1.72,0,0,0,886.726,2901.54Zm5.88,0c-1.883,0-3,1.35-3,3.34,0,2.09,1.115,3.36,2.986,3.36s2.986-1.36,2.986-3.36C895.58,2902.81,894.477,2901.54,892.606,2901.54Zm0,1.16c0.887,0,1.355.67,1.355,2.18s-0.468,2.2-1.367,2.2-1.367-.68-1.367-2.2C891.227,2903.38,891.706,2902.7,892.606,2902.7Zm11.745-.98h-1.475l-0.947,5.21-1.008-5.21H899.35l-1.1,5.21-0.888-5.21h-1.535l1.4,6.34h1.883l0.984-4.98,0.959,4.98h1.919Zm4.216-3.22a0.931,0.931,0,1,0,.971.94A0.923,0.923,0,0,0,908.567,2898.5Zm0.78,3.22h-1.536v6.34h1.536v-6.34Zm8.277-.18a2.208,2.208,0,0,0-1.895,1.06,1.565,1.565,0,0,0-1.547-1.06,2.156,2.156,0,0,0-1.835,1l-0.12-.82H910.9v6.34h1.536v-4.41a1.464,1.464,0,0,1,1.211-.96c0.372,0,.695.22,0.695,1.02v4.35h1.536v-4.41a1.464,1.464,0,0,1,1.2-.96c0.384,0,.7.22,0.7,1.02v4.35H919.3v-4.59A1.7,1.7,0,0,0,917.624,2901.54Zm7.861,4.84v-2.66c0-1.4-.744-2.18-2.435-2.18a6.532,6.532,0,0,0-2.3.45l0.36,1.04a5.821,5.821,0,0,1,1.679-.33,0.968,0.968,0,0,1,1.187,1.1v0.36h-0.791c-1.847,0-2.89.75-2.89,2.12a1.883,1.883,0,0,0,2.05,1.96,2.165,2.165,0,0,0,1.895-.95,1.447,1.447,0,0,0,1.4.93l0.323-1.02A0.717,0.717,0,0,1,925.485,2906.38Zm-2.735.74a0.836,0.836,0,0,1-.9-0.96c0-.74.491-1.1,1.487-1.1h0.635v1.28A1.344,1.344,0,0,1,922.75,2907.12Zm9.43-6.29a5.168,5.168,0,0,1-2.962.71,2.342,2.342,0,0,0-2.627,2.27,1.852,1.852,0,0,0,1.116,1.79,1.434,1.434,0,0,0-.744,1.18c0,0.66.54,1.22,1.811,1.22h0.96c0.707,0,1.079.29,1.079,0.76,0,0.5-.36.84-1.6,0.84-1.259,0-1.535-.28-1.535-0.92H926.3c0,1.27.635,1.99,2.89,1.99,2.075,0,3.166-.75,3.166-2.02,0-1.05-.911-1.8-2.315-1.8h-0.971c-0.636,0-.768-0.22-0.768-0.45a0.554,0.554,0,0,1,.264-0.46,2.631,2.631,0,0,0,.756.09c1.6,0,2.554-.9,2.554-2.13a1.662,1.662,0,0,0-1.151-1.63,5.625,5.625,0,0,0,1.835-.22Zm-2.938,1.75a1.036,1.036,0,0,1,1.151,1.2,1.084,1.084,0,0,1-1.127,1.26,1.1,1.1,0,0,1-1.127-1.25A1.076,1.076,0,0,1,929.242,2902.58Zm9.034,2.16c0-2.01-1.019-3.2-2.794-3.2-1.8,0-2.819,1.46-2.819,3.39,0,2,1.056,3.31,3.023,3.31a3.665,3.665,0,0,0,2.35-.85l-0.635-.88a2.608,2.608,0,0,1-1.583.57c-0.84,0-1.44-.42-1.56-1.72h3.982C938.252,2905.19,938.276,2904.94,938.276,2904.74Zm-1.523-.37h-2.5c0.084-1.26.54-1.74,1.26-1.74,0.863,0,1.235.62,1.235,1.66v0.08Zm4.645-2.83c-1.475,0-2.447.79-2.447,1.84,0,0.94.576,1.56,1.883,1.92,1.187,0.34,1.439.51,1.439,1.03a0.926,0.926,0,0,1-1.127.77,2.874,2.874,0,0,1-1.727-.62l-0.768.86a3.7,3.7,0,0,0,2.531.9c1.451,0,2.674-.7,2.674-2.02,0-1.12-.731-1.65-2.026-2-1.08-.3-1.332-0.49-1.332-0.91a0.782,0.782,0,0,1,.96-0.64,2.868,2.868,0,0,1,1.6.52l0.6-.9A3.555,3.555,0,0,0,941.4,2901.54Zm-39.637,26.52h1.2l-2.638-8.26h-1.44l-2.65,8.26h1.151l0.624-2.07h3.13Zm-3.478-3,1.295-4.32,1.283,4.32h-2.578Zm6.852,3.14a1.876,1.876,0,0,0,.875-0.21l-0.288-.77a1.038,1.038,0,0,1-.407.07c-0.288,0-.4-0.17-0.4-0.5v-7.73l-1.1.14v7.61A1.243,1.243,0,0,0,905.135,2928.2Zm9.176-6.46h-1.055l-1.151,5.55-1.188-5.55h-1.235l-1.247,5.55-1.14-5.55h-1.1l1.475,6.32h1.463l1.14-5.33,1.1,5.33h1.5Zm5.342,4.84v-2.89a1.922,1.922,0,0,0-2.219-2.09,6.142,6.142,0,0,0-2.183.43l0.276,0.8a5.554,5.554,0,0,1,1.7-.34,1.108,1.108,0,0,1,1.319,1.25v0.47h-0.971c-1.763,0-2.782.73-2.782,2.09a1.835,1.835,0,0,0,2.014,1.9,2.145,2.145,0,0,0,1.883-.94,1.27,1.27,0,0,0,1.236.94l0.252-.76A0.754,0.754,0,0,1,919.653,2926.58Zm-2.591.8a1,1,0,0,1-1.091-1.14c0-.87.588-1.3,1.751-1.3h0.827v1.45A1.629,1.629,0,0,1,917.062,2927.38Zm9.083-5.64h-1.14l-1.655,5.52-1.691-5.52h-1.175l2.123,6.32h0.371a2.149,2.149,0,0,1-2,1.69l0.12,0.86a3.207,3.207,0,0,0,2.939-2.51Zm2.677-.14c-1.307,0-2.279.73-2.279,1.73,0,0.89.54,1.48,1.907,1.84,1.224,0.32,1.535.56,1.535,1.19a1.117,1.117,0,0,1-1.355.96,2.838,2.838,0,0,1-1.775-.62l-0.587.68a3.5,3.5,0,0,0,2.386.82c1.284,0,2.5-.6,2.5-1.92,0-1.1-.768-1.63-2.1-1.96-1.019-.27-1.355-0.51-1.355-1.02a0.96,0.96,0,0,1,1.163-.83,2.912,2.912,0,0,1,1.643.54l0.468-.69A3.333,3.333,0,0,0,928.822,2921.6Zm-28.512,18.05c-2.063,0-3.49,1.57-3.49,4.3,0,2.77,1.427,4.25,3.49,4.25s3.49-1.53,3.49-4.27C903.8,2941.15,902.385,2939.65,900.31,2939.65Zm0,0.94c1.415,0,2.278.97,2.278,3.34,0,2.4-.887,3.34-2.278,3.34-1.344,0-2.279-.94-2.279-3.32S898.93,2940.59,900.31,2940.59Zm7.968,1.01a2.3,2.3,0,0,0-1.931,1.07l-0.1-.93H905.3v6.32h1.1v-4.49a1.907,1.907,0,0,1,1.607-1.11c0.611,0,1,.27,1,1.22v4.38h1.1v-4.53A1.729,1.729,0,0,0,908.278,2941.6Zm5.016,6.6a1.877,1.877,0,0,0,.876-0.21l-0.288-.77a1.04,1.04,0,0,1-.408.07c-0.287,0-.4-0.17-0.4-0.5v-7.73l-1.1.14v7.61A1.243,1.243,0,0,0,913.294,2948.2Zm6.6-6.46h-1.14l-1.655,5.52-1.691-5.52h-1.175l2.123,6.32h0.371a2.149,2.149,0,0,1-2,1.69l0.12,0.86a3.207,3.207,0,0,0,2.939-2.51Zm6.217-.14c-1.8,0-2.831,1.35-2.831,3.31,0,2,1.02,3.29,2.819,3.29s2.818-1.35,2.818-3.31C928.916,2942.89,927.909,2941.6,926.11,2941.6Zm0,0.88c1.043,0,1.619.77,1.619,2.41,0,1.66-.576,2.43-1.631,2.43s-1.631-.77-1.631-2.41C924.467,2943.25,925.054,2942.48,926.11,2942.48Zm8.735-.74h-1.164l-1.643,5.34-1.655-5.34h-1.2l2.182,6.32H932.7Zm5.615,2.97c0-1.93-.9-3.11-2.6-3.11-1.631,0-2.627,1.4-2.627,3.37,0,2,1.032,3.23,2.795,3.23a3.456,3.456,0,0,0,2.207-.79l-0.48-.66a2.622,2.622,0,0,1-1.643.55c-0.912,0-1.6-.56-1.7-2.02h4.029C940.448,2945.13,940.46,2944.93,940.46,2944.71Zm-1.091-.25h-2.962c0.084-1.4.635-1.99,1.475-1.99,1,0,1.487.68,1.487,1.92v0.07Zm5.364-2.86a1.806,1.806,0,0,0-1.691,1.42l-0.108-1.28h-0.947v6.32h1.1v-3.61c0.264-1.21.72-1.78,1.511-1.78a1.905,1.905,0,0,1,.552.08l0.2-1.08A2.585,2.585,0,0,0,944.733,2941.6Zm12.933-1.8h-1.043l-1.38,7.26-1.631-7.26H952.4l-1.595,7.26-1.331-7.26h-1.116l1.679,8.26h1.427l1.536-6.92,1.523,6.92h1.463Zm1.684-1.09a0.746,0.746,0,1,0,.78.75A0.73,0.73,0,0,0,959.35,2938.71Zm0.564,3.03h-1.1v6.32h1.1v-6.32Zm1.561,3.03h3.394v-0.93h-3.394v0.93Zm9.4-4.97h-4.389v8.26h1.139v-3.63h2.7v-0.9h-2.7v-2.82h3.118Zm2.042-1.09a0.746,0.746,0,1,0,.78.75A0.73,0.73,0,0,0,972.922,2938.71Zm0.564,3.03h-1.1v6.32h1.1v-6.32Zm-72.481,21.95a1.833,1.833,0,0,0,1.547-1.81c0-1.44-1.2-2.08-3.238-2.08h-1.955v8.26h2.279c1.919,0,3.274-.6,3.274-2.35A1.952,1.952,0,0,0,901.005,2963.69Zm-1.571-2.99c1.223,0,1.955.25,1.955,1.27a1.418,1.418,0,0,1-1.643,1.33H898.5v-2.6h0.935Zm0.2,6.45H898.5v-2.98h1.355c1,0,1.859.38,1.859,1.54C901.713,2966.91,900.837,2967.15,899.638,2967.15Zm5.916,1.05a1.877,1.877,0,0,0,.876-0.21l-0.288-.77a1.04,1.04,0,0,1-.408.07c-0.287,0-.395-0.17-0.395-0.5v-7.73l-1.1.14v7.61A1.243,1.243,0,0,0,905.554,2968.2Zm4.212-6.6c-1.8,0-2.831,1.35-2.831,3.31,0,2,1.02,3.29,2.819,3.29s2.818-1.35,2.818-3.31C912.572,2962.89,911.565,2961.6,909.766,2961.6Zm0,0.88c1.043,0,1.619.77,1.619,2.41,0,1.66-.576,2.43-1.631,2.43s-1.631-.77-1.631-2.41C908.123,2963.25,908.71,2962.48,909.766,2962.48Zm6.636-.88c-1.715,0-2.759,1.34-2.759,3.35,0,2.04,1.056,3.25,2.759,3.25a3.008,3.008,0,0,0,1.931-.69l-0.5-.72a2.359,2.359,0,0,1-1.379.48c-1,0-1.619-.69-1.619-2.34s0.623-2.42,1.619-2.42a2.165,2.165,0,0,1,1.355.46l0.528-.69A2.814,2.814,0,0,0,916.4,2961.6Zm4.237-2.54-1.1.14v8.86h1.1v-9Zm3.634,2.68h-1.236l-2.326,2.87,2.506,3.45h1.319l-2.59-3.53Zm5.76,2.97c0-1.93-.9-3.11-2.6-3.11-1.631,0-2.627,1.4-2.627,3.37,0,2,1.032,3.23,2.795,3.23a3.456,3.456,0,0,0,2.207-.79l-0.48-.66a2.622,2.622,0,0,1-1.643.55c-0.912,0-1.6-.56-1.7-2.02h4.03C930.021,2965.13,930.033,2964.93,930.033,2964.71Zm-1.092-.25h-2.962c0.084-1.4.635-1.99,1.475-1.99,1,0,1.487.68,1.487,1.92v0.07Zm6.408-5.4v3.32a2.25,2.25,0,0,0-1.7-.78c-1.547,0-2.483,1.4-2.483,3.33,0,1.97.852,3.27,2.387,3.27a2.105,2.105,0,0,0,1.823-1.02l0.108,0.88h0.971v-8.86Zm-1.559,8.27c-0.912,0-1.439-.76-1.439-2.42s0.587-2.44,1.535-2.44a1.8,1.8,0,0,1,1.463.83v3.09A1.812,1.812,0,0,1,933.79,2967.33Z" transform="translate(-875 -2898.5)"/>
  <circle class="cls-2" cx="7" cy="26.5" r="6"/>
  <circle id="Ellipse_1_copy" data-name="Ellipse 1 copy" class="cls-2" cx="7" cy="45.5" r="6"/>
  <circle id="Ellipse_1_copy_3" data-name="Ellipse 1 copy 3" class="cls-3" cx="7" cy="45.5" r="3"/>
  <circle id="Ellipse_1_copy_2" data-name="Ellipse 1 copy 2" class="cls-2" cx="7" cy="65.5" r="6"/>
</svg>
