<svg id="Example_2c.svg" xmlns="http://www.w3.org/2000/svg" width="232" height="337" viewBox="0 0 232 337">
  <defs>
    <style>
      .cls-1 {
        fill: none;
        stroke: #2ea3ff;
        stroke-linejoin: round;
        stroke-width: 1px;
      }

      .cls-2, .cls-4 {
        fill: #2ea3ff;
      }

      .cls-3 {
        fill: #fff;
      }

      .cls-3, .cls-4, .cls-5 {
        fill-rule: evenodd;
      }

      .cls-5 {
        fill: #2284e6;
      }
    </style>
  </defs>
  <rect class="cls-1" x="0.5" y="0.5" width="231" height="336"/>
  <rect class="cls-2" x="115.5" y="304.5" width="116" height="32"/>
  <rect id="Rectangle_11_copy" data-name="Rectangle 11 copy" class="cls-1" x="0.5" y="304.5" width="115" height="32"/>
  <path id="OK" class="cls-3" d="M750.314,2237.23c-2.036,0-3.445,1.57-3.445,4.3,0,2.77,1.409,4.25,3.445,4.25s3.445-1.53,3.445-4.27C753.759,2238.73,752.362,2237.23,750.314,2237.23Zm0,0.94c1.4,0,2.249.97,2.249,3.34,0,2.4-.876,3.34-2.249,3.34-1.326,0-2.249-.94-2.249-3.32S748.952,2238.17,750.314,2238.17Zm6.114-.79H755.3v8.26h1.125v-8.26Zm4.439,0h-1.279l-3.1,3.85,3.22,4.41h1.385l-3.315-4.49Z" transform="translate(-581.5 -1920.5)"/>
  <path id="Cancel" class="cls-4" d="M625.686,2237.23c-1.847,0-3.386,1.48-3.386,4.27s1.433,4.28,3.41,4.28a3.156,3.156,0,0,0,2.332-.92l-0.568-.73a2.7,2.7,0,0,1-1.729.69c-1.266,0-2.249-.93-2.249-3.32,0-2.49,1.03-3.33,2.261-3.33a2.376,2.376,0,0,1,1.575.61l0.615-.73A3.182,3.182,0,0,0,625.686,2237.23Zm7.628,6.93v-2.89a1.911,1.911,0,0,0-2.19-2.1,6.018,6.018,0,0,0-2.155.44l0.273,0.8a5.416,5.416,0,0,1,1.681-.34,1.1,1.1,0,0,1,1.3,1.25v0.47h-0.959c-1.74,0-2.746.73-2.746,2.09a1.822,1.822,0,0,0,1.988,1.9,2.132,2.132,0,0,0,1.859-.94,1.256,1.256,0,0,0,1.219.94l0.249-.76A0.754,0.754,0,0,1,633.314,2244.16Zm-2.557.8a0.992,0.992,0,0,1-1.077-1.14c0-.87.58-1.3,1.728-1.3h0.817v1.45A1.609,1.609,0,0,1,630.757,2244.96Zm7.439-5.79a2.275,2.275,0,0,0-1.906,1.08l-0.095-.93H635.26v6.32h1.089v-4.49a1.883,1.883,0,0,1,1.586-1.11c0.6,0,.983.27,0.983,1.22v4.38h1.089v-4.53A1.726,1.726,0,0,0,638.2,2239.17Zm5.982,0c-1.693,0-2.723,1.35-2.723,3.36,0,2.04,1.042,3.25,2.723,3.25a2.944,2.944,0,0,0,1.906-.69l-0.5-.72a2.308,2.308,0,0,1-1.361.48c-0.983,0-1.6-.69-1.6-2.34s0.616-2.42,1.6-2.42a2.117,2.117,0,0,1,1.337.46l0.521-.69A2.765,2.765,0,0,0,644.178,2239.17Zm7.687,3.12c0-1.93-.888-3.12-2.569-3.12-1.61,0-2.593,1.41-2.593,3.37,0,2.01,1.018,3.24,2.759,3.24a3.381,3.381,0,0,0,2.178-.79l-0.473-.66a2.567,2.567,0,0,1-1.622.55c-0.9,0-1.575-.56-1.681-2.02h3.977C651.853,2242.71,651.865,2242.51,651.865,2242.29Zm-1.077-.25h-2.924c0.082-1.4.627-1.99,1.456-1.99,0.982,0,1.468.68,1.468,1.92v0.07Zm3.827,3.74a1.834,1.834,0,0,0,.865-0.21l-0.284-.77a1.017,1.017,0,0,1-.4.07c-0.284,0-.391-0.17-0.391-0.5v-7.73l-1.089.14v7.61A1.235,1.235,0,0,0,654.615,2245.78Z" transform="translate(-581.5 -1920.5)"/>
  <rect id="Rounded_Rectangle_2" data-name="Rounded Rectangle 2" class="cls-1" x="42.5" y="127.5" width="147" height="23" rx="4" ry="4"/>
  <rect id="Rounded_Rectangle_2_copy_2" data-name="Rounded Rectangle 2 copy 2" class="cls-1" x="42.5" y="169.5" width="147" height="23" rx="4" ry="4"/>
  <rect id="Rounded_Rectangle_2_copy_3" data-name="Rounded Rectangle 2 copy 3" class="cls-1" x="42.5" y="211.5" width="147" height="23" rx="4" ry="4"/>
  <path id="Current_password:_Enter_new_password:_Re-enter_password:" data-name="Current password: Enter new password: Re-enter password:" class="cls-5" d="M628.025,2036.49c-1.679,0-3,1.27-3,3.59,0,2.35,1.25,3.62,3.039,3.62a2.9,2.9,0,0,0,2.078-.84l-0.619-.8a2.251,2.251,0,0,1-1.4.58c-0.99,0-1.709-.74-1.709-2.56,0-1.87.739-2.57,1.689-2.57a1.913,1.913,0,0,1,1.279.5l0.68-.79A2.887,2.887,0,0,0,628.025,2036.49Zm7.249,1.77h-1.28v3.72a1.307,1.307,0,0,1-1.069.75c-0.44,0-.65-0.21-0.65-0.83v-3.64H631v3.8a1.426,1.426,0,0,0,1.479,1.64,1.789,1.789,0,0,0,1.619-.89l0.07,0.74h1.11v-5.29Zm4.151-.14a1.488,1.488,0,0,0-1.38,1.18l-0.12-1.04h-1.109v5.29H638.1v-2.81c0.2-.9.52-1.37,1.17-1.37a1.772,1.772,0,0,1,.469.06l0.22-1.24A1.832,1.832,0,0,0,639.425,2038.12Zm3.939,0a1.488,1.488,0,0,0-1.379,1.18l-0.12-1.04h-1.109v5.29h1.279v-2.81c0.2-.9.52-1.37,1.17-1.37a1.772,1.772,0,0,1,.469.06l0.22-1.24A1.835,1.835,0,0,0,643.364,2038.12Zm5.57,2.66c0-1.67-.85-2.67-2.329-2.67-1.5,0-2.349,1.22-2.349,2.83,0,1.67.88,2.76,2.519,2.76a3.041,3.041,0,0,0,1.959-.71l-0.53-.73a2.2,2.2,0,0,1-1.319.47,1.267,1.267,0,0,1-1.3-1.43H648.9C648.914,2041.16,648.934,2040.95,648.934,2040.78Zm-1.27-.31h-2.079c0.07-1.05.45-1.45,1.05-1.45,0.719,0,1.029.52,1.029,1.39v0.06Zm5.27-2.36a1.983,1.983,0,0,0-1.609.85l-0.1-.7h-1.109v5.29H651.4v-3.68a1.368,1.368,0,0,1,1.109-.8c0.4,0,.65.19,0.65,0.85v3.63h1.279v-3.83A1.425,1.425,0,0,0,652.934,2038.11Zm5.57,4.36a1.184,1.184,0,0,1-.629.2c-0.39,0-.56-0.21-0.56-0.73v-2.76h1.1l0.13-.92h-1.229v-1.32l-1.279.15v1.17h-0.83v0.92h0.83v2.79a1.492,1.492,0,0,0,1.589,1.73,2.31,2.31,0,0,0,1.329-.4Zm6.39-4.36a1.925,1.925,0,0,0-1.529.8l-0.07-.65h-1.119v7.47l1.279-.14v-2.47a1.671,1.671,0,0,0,1.329.58c1.34,0,2.089-1.19,2.089-2.81C666.873,2039.2,666.294,2038.11,664.894,2038.11Zm-0.469,4.61a1.12,1.12,0,0,1-.97-0.55v-2.38a1.309,1.309,0,0,1,1.06-.72c0.659,0,1.019.49,1.019,1.83C665.534,2042.18,665.124,2042.72,664.425,2042.72Zm7.619-.57v-2.22c0-1.17-.62-1.82-2.029-1.82a5.449,5.449,0,0,0-1.919.38l0.3,0.87a4.709,4.709,0,0,1,1.4-.28,0.81,0.81,0,0,1,.989.92v0.3h-0.659c-1.54,0-2.409.62-2.409,1.77a1.571,1.571,0,0,0,1.709,1.63,1.8,1.8,0,0,0,1.579-.79,1.208,1.208,0,0,0,1.169.77l0.27-.85A0.594,0.594,0,0,1,672.044,2042.15Zm-2.279.62a0.7,0.7,0,0,1-.75-0.8c0-.62.41-0.92,1.24-0.92h0.529v1.07A1.129,1.129,0,0,1,669.765,2042.77Zm5.5-4.66c-1.23,0-2.039.66-2.039,1.54,0,0.78.48,1.3,1.569,1.6,0.989,0.28,1.2.42,1.2,0.86a0.771,0.771,0,0,1-.939.64,2.385,2.385,0,0,1-1.439-.52l-0.64.72a3.092,3.092,0,0,0,2.109.75c1.209,0,2.229-.58,2.229-1.68,0-.94-0.61-1.38-1.69-1.67-0.9-.25-1.109-0.41-1.109-0.76,0-.32.29-0.53,0.8-0.53a2.412,2.412,0,0,1,1.329.43l0.5-.75A2.975,2.975,0,0,0,675.265,2038.11Zm4.76,0c-1.23,0-2.039.66-2.039,1.54,0,0.78.479,1.3,1.569,1.6,0.989,0.28,1.2.42,1.2,0.86a0.771,0.771,0,0,1-.939.64,2.385,2.385,0,0,1-1.439-.52l-0.64.72a3.092,3.092,0,0,0,2.109.75c1.209,0,2.229-.58,2.229-1.68,0-.94-0.61-1.38-1.69-1.67-0.9-.25-1.109-0.41-1.109-0.76,0-.32.29-0.53,0.8-0.53a2.412,2.412,0,0,1,1.329.43l0.5-.75A2.975,2.975,0,0,0,680.025,2038.11Zm9.447,0.15h-1.229l-0.79,4.35-0.839-4.35H685.3l-0.919,4.35-0.74-4.35h-1.279l1.169,5.29H685.1l0.82-4.15,0.8,4.15h1.6Zm2.942-.15a2.479,2.479,0,0,0-2.5,2.79c0,1.74.929,2.8,2.488,2.8s2.489-1.13,2.489-2.8C694.893,2039.17,693.974,2038.11,692.414,2038.11Zm0,0.97c0.74,0,1.13.56,1.13,1.82s-0.39,1.83-1.14,1.83-1.139-.56-1.139-1.83C691.265,2039.65,691.665,2039.08,692.414,2039.08Zm6.29-.96a1.488,1.488,0,0,0-1.379,1.18l-0.12-1.04H696.1v5.29h1.279v-2.81c0.2-.9.52-1.37,1.169-1.37a1.78,1.78,0,0,1,.47.06l0.22-1.24A1.835,1.835,0,0,0,698.7,2038.12Zm4.4-2.12v2.68a1.792,1.792,0,0,0-1.309-.57c-1.34,0-2.149,1.17-2.149,2.8,0,1.68.689,2.79,2.009,2.79a1.754,1.754,0,0,0,1.509-.82l0.09,0.67h1.129v-7.41Zm-1.09,6.73c-0.629,0-1.019-.47-1.019-1.83,0-1.27.44-1.83,1.109-1.83a1.24,1.24,0,0,1,1,.56v2.42A1.252,1.252,0,0,1,702.014,2042.73Zm4.331-4.21a0.81,0.81,0,1,0,.82.81A0.815,0.815,0,0,0,706.345,2038.52Zm0,3.56a0.81,0.81,0,0,0,0,1.62A0.81,0.81,0,1,0,706.345,2042.08Zm-76.931,36.56h-4.008v6.91h4.048v-0.99h-2.729v-2.03h2.219v-0.98h-2.219v-1.93h2.549Zm4.07,1.47a1.983,1.983,0,0,0-1.609.85l-0.1-.7h-1.109v5.29h1.279v-3.68a1.368,1.368,0,0,1,1.11-.8c0.4,0,.649.19,0.649,0.85v3.63h1.28v-3.83A1.425,1.425,0,0,0,633.484,2080.11Zm5.571,4.36a1.187,1.187,0,0,1-.63.2c-0.39,0-.56-0.21-0.56-0.73v-2.76h1.1l0.13-.92h-1.23v-1.32l-1.279.15v1.17h-0.83v0.92h0.83v2.79a1.492,1.492,0,0,0,1.589,1.73,2.308,2.308,0,0,0,1.329-.4Zm5.409-1.69c0-1.67-.85-2.67-2.329-2.67-1.5,0-2.349,1.22-2.349,2.83,0,1.67.88,2.76,2.519,2.76a3.041,3.041,0,0,0,1.959-.71l-0.53-.73a2.2,2.2,0,0,1-1.319.47,1.266,1.266,0,0,1-1.3-1.43h3.318C644.444,2083.16,644.464,2082.95,644.464,2082.78Zm-1.27-.31h-2.078c0.069-1.05.449-1.45,1.049-1.45,0.72,0,1.029.52,1.029,1.39v0.06Zm5.061-2.35a1.488,1.488,0,0,0-1.38,1.18l-0.12-1.04h-1.109v5.29h1.279v-2.81c0.2-.9.52-1.37,1.17-1.37a1.778,1.778,0,0,1,.469.06l0.22-1.24A1.832,1.832,0,0,0,648.255,2080.12Zm6.649-.01a1.983,1.983,0,0,0-1.609.85l-0.1-.7h-1.109v5.29h1.279v-3.68a1.368,1.368,0,0,1,1.11-.8c0.4,0,.649.19,0.649,0.85v3.63h1.28v-3.83A1.425,1.425,0,0,0,654.9,2080.11Zm7.329,2.67c0-1.67-.849-2.67-2.328-2.67-1.5,0-2.349,1.22-2.349,2.83,0,1.67.88,2.76,2.519,2.76a3.041,3.041,0,0,0,1.959-.71l-0.53-.73a2.2,2.2,0,0,1-1.319.47,1.267,1.267,0,0,1-1.3-1.43H662.2C662.213,2083.16,662.233,2082.95,662.233,2082.78Zm-1.269-.31h-2.079c0.07-1.05.45-1.45,1.05-1.45,0.719,0,1.029.52,1.029,1.39v0.06Zm8.908-2.21h-1.229l-0.79,4.35-0.839-4.35H665.7l-0.919,4.35-0.74-4.35h-1.279l1.169,5.29h1.57l0.819-4.15,0.8,4.15h1.6Zm6.1-.15a1.923,1.923,0,0,0-1.529.8l-0.07-.65h-1.119v7.47l1.279-.14v-2.47a1.671,1.671,0,0,0,1.329.58c1.339,0,2.089-1.19,2.089-2.81C677.953,2081.2,677.373,2080.11,675.974,2080.11Zm-0.47,4.61a1.12,1.12,0,0,1-.969-0.55v-2.38a1.309,1.309,0,0,1,1.059-.72c0.66,0,1.02.49,1.02,1.83C676.614,2084.18,676.2,2084.72,675.5,2084.72Zm7.619-.57v-2.22c0-1.17-.619-1.82-2.029-1.82a5.448,5.448,0,0,0-1.918.38l0.3,0.87a4.72,4.72,0,0,1,1.4-.28,0.81,0.81,0,0,1,.989.92v0.3H681.2c-1.539,0-2.408.62-2.408,1.77a1.57,1.57,0,0,0,1.709,1.63,1.8,1.8,0,0,0,1.579-.79,1.208,1.208,0,0,0,1.169.77l0.27-.85A0.6,0.6,0,0,1,683.123,2084.15Zm-2.278.62a0.7,0.7,0,0,1-.75-0.8c0-.62.41-0.92,1.239-0.92h0.53v1.07A1.13,1.13,0,0,1,680.845,2084.77Zm5.5-4.66c-1.23,0-2.039.66-2.039,1.54,0,0.78.479,1.3,1.569,1.6,0.989,0.28,1.2.42,1.2,0.86a0.771,0.771,0,0,1-.939.64,2.39,2.39,0,0,1-1.44-.52l-0.639.72a3.092,3.092,0,0,0,2.109.75c1.209,0,2.228-.58,2.228-1.68,0-.94-0.609-1.38-1.689-1.67-0.9-.25-1.109-0.41-1.109-0.76,0-.32.29-0.53,0.8-0.53a2.412,2.412,0,0,1,1.329.43l0.5-.75A2.975,2.975,0,0,0,686.345,2080.11Zm4.76,0c-1.23,0-2.039.66-2.039,1.54,0,0.78.479,1.3,1.569,1.6,0.989,0.28,1.2.42,1.2,0.86a0.771,0.771,0,0,1-.939.64,2.39,2.39,0,0,1-1.44-.52l-0.639.72a3.092,3.092,0,0,0,2.109.75c1.209,0,2.228-.58,2.228-1.68,0-.94-0.609-1.38-1.689-1.67-0.9-.25-1.109-0.41-1.109-0.76,0-.32.29-0.53,0.8-0.53a2.412,2.412,0,0,1,1.33.43l0.5-.75A2.97,2.97,0,0,0,691.105,2080.11Zm9.447,0.15h-1.229l-0.79,4.35-0.839-4.35h-1.31l-0.919,4.35-0.74-4.35h-1.279l1.169,5.29h1.569l0.82-4.15,0.8,4.15h1.6Zm2.942-.15a2.479,2.479,0,0,0-2.5,2.79c0,1.74.929,2.8,2.488,2.8s2.489-1.13,2.489-2.8C705.973,2081.17,705.053,2080.11,703.494,2080.11Zm0,0.97c0.74,0,1.13.56,1.13,1.82s-0.39,1.83-1.14,1.83-1.139-.56-1.139-1.83C702.345,2081.65,702.745,2081.08,703.494,2081.08Zm6.29-.96a1.487,1.487,0,0,0-1.379,1.18l-0.12-1.04h-1.11v5.29h1.28v-2.81c0.2-.9.519-1.37,1.169-1.37a1.78,1.78,0,0,1,.47.06l0.22-1.24A1.835,1.835,0,0,0,709.784,2080.12Zm4.4-2.12v2.68a1.793,1.793,0,0,0-1.31-.57c-1.339,0-2.148,1.17-2.148,2.8,0,1.68.689,2.79,2.009,2.79a1.754,1.754,0,0,0,1.509-.82l0.09,0.67h1.129v-7.41Zm-1.09,6.73c-0.629,0-1.019-.47-1.019-1.83,0-1.27.44-1.83,1.109-1.83a1.24,1.24,0,0,1,1,.56v2.42A1.252,1.252,0,0,1,713.094,2084.73Zm4.331-4.21a0.81,0.81,0,1,0,.82.81A0.815,0.815,0,0,0,717.425,2080.52Zm0,3.56a0.81,0.81,0,0,0,0,1.62A0.81,0.81,0,1,0,717.425,2084.08Zm-88.331,43.47h1.519l-1.809-3.01a1.858,1.858,0,0,0,1.4-1.87c0-1.37-.929-2.03-2.738-2.03h-2.059v6.91h1.319v-2.77h0.84Zm-2.369-5.95h0.71c0.959,0,1.389.32,1.389,1.07a1.071,1.071,0,0,1-1.279,1.16h-0.82v-2.23Zm8.989,3.18c0-1.67-.85-2.67-2.329-2.67-1.5,0-2.349,1.22-2.349,2.83,0,1.67.88,2.76,2.519,2.76a3.041,3.041,0,0,0,1.959-.71l-0.53-.73a2.2,2.2,0,0,1-1.319.47,1.267,1.267,0,0,1-1.3-1.43h3.319C635.694,2125.16,635.714,2124.95,635.714,2124.78Zm-1.27-.31h-2.079c0.07-1.05.45-1.45,1.05-1.45,0.72,0,1.029.52,1.029,1.39v0.06Zm2.2,0.46h3.018v-1.02h-3.018v1.02Zm8.638-.15c0-1.67-.85-2.67-2.329-2.67-1.5,0-2.349,1.22-2.349,2.83,0,1.67.88,2.76,2.519,2.76a3.041,3.041,0,0,0,1.959-.71l-0.53-.73a2.2,2.2,0,0,1-1.319.47,1.267,1.267,0,0,1-1.3-1.43h3.319C645.263,2125.16,645.284,2124.95,645.284,2124.78Zm-1.27-.31h-2.079c0.07-1.05.45-1.45,1.05-1.45,0.719,0,1.029.52,1.029,1.39v0.06Zm5.27-2.36a1.983,1.983,0,0,0-1.609.85l-0.1-.7h-1.109v5.29h1.279v-3.68a1.368,1.368,0,0,1,1.109-.8c0.4,0,.65.19,0.65,0.85v3.63h1.279v-3.83A1.425,1.425,0,0,0,649.284,2122.11Zm5.57,4.36a1.187,1.187,0,0,1-.629.2c-0.39,0-.56-0.21-0.56-0.73v-2.76h1.1l0.13-.92h-1.229v-1.32l-1.279.15v1.17h-0.83v0.92h0.83v2.79a1.492,1.492,0,0,0,1.589,1.73,2.31,2.31,0,0,0,1.329-.4Zm5.409-1.69c0-1.67-.849-2.67-2.328-2.67-1.5,0-2.349,1.22-2.349,2.83,0,1.67.879,2.76,2.519,2.76a3.036,3.036,0,0,0,1.958-.71l-0.529-.73a2.2,2.2,0,0,1-1.319.47,1.267,1.267,0,0,1-1.3-1.43h3.318C660.243,2125.16,660.263,2124.95,660.263,2124.78Zm-1.269-.31h-2.079c0.07-1.05.45-1.45,1.05-1.45,0.719,0,1.029.52,1.029,1.39v0.06Zm5.06-2.35a1.488,1.488,0,0,0-1.379,1.18l-0.12-1.04h-1.109v5.29h1.279v-2.81c0.2-.9.52-1.37,1.169-1.37a1.78,1.78,0,0,1,.47.06l0.22-1.24A1.835,1.835,0,0,0,664.054,2122.12Zm6.55-.01a1.923,1.923,0,0,0-1.529.8l-0.07-.65h-1.119v7.47l1.279-.14v-2.47a1.67,1.67,0,0,0,1.329.58c1.339,0,2.089-1.19,2.089-2.81C672.583,2123.2,672,2122.11,670.6,2122.11Zm-0.47,4.61a1.12,1.12,0,0,1-.969-0.55v-2.38a1.309,1.309,0,0,1,1.059-.72c0.66,0,1.02.49,1.02,1.83C671.244,2126.18,670.834,2126.72,670.134,2126.72Zm7.619-.57v-2.22c0-1.17-.619-1.82-2.028-1.82a5.449,5.449,0,0,0-1.919.38l0.3,0.87a4.72,4.72,0,0,1,1.4-.28,0.81,0.81,0,0,1,.989.92v0.3h-0.66c-1.539,0-2.408.62-2.408,1.77a1.57,1.57,0,0,0,1.709,1.63,1.8,1.8,0,0,0,1.579-.79,1.208,1.208,0,0,0,1.169.77l0.27-.85A0.6,0.6,0,0,1,677.753,2126.15Zm-2.278.62a0.7,0.7,0,0,1-.75-0.8c0-.62.41-0.92,1.239-0.92h0.53v1.07A1.13,1.13,0,0,1,675.475,2126.77Zm5.5-4.66c-1.23,0-2.039.66-2.039,1.54,0,0.78.479,1.3,1.569,1.6,0.989,0.28,1.2.42,1.2,0.86a0.771,0.771,0,0,1-.939.64,2.39,2.39,0,0,1-1.44-.52l-0.639.72a3.09,3.09,0,0,0,2.109.75c1.209,0,2.228-.58,2.228-1.68,0-.94-0.609-1.38-1.689-1.67-0.9-.25-1.109-0.41-1.109-0.76,0-.32.29-0.53,0.8-0.53a2.412,2.412,0,0,1,1.33.43l0.5-.75A2.97,2.97,0,0,0,680.975,2122.11Zm4.76,0c-1.23,0-2.039.66-2.039,1.54,0,0.78.479,1.3,1.569,1.6,0.989,0.28,1.2.42,1.2,0.86a0.771,0.771,0,0,1-.939.64,2.39,2.39,0,0,1-1.44-.52l-0.639.72a3.09,3.09,0,0,0,2.109.75c1.209,0,2.228-.58,2.228-1.68,0-.94-0.609-1.38-1.689-1.67-0.9-.25-1.109-0.41-1.109-0.76,0-.32.29-0.53,0.8-0.53a2.412,2.412,0,0,1,1.33.43l0.5-.75A2.97,2.97,0,0,0,685.735,2122.11Zm9.447,0.15h-1.229l-0.79,4.35-0.84-4.35h-1.309l-0.919,4.35-0.74-4.35h-1.279l1.169,5.29h1.569l0.82-4.15,0.8,4.15h1.6Zm2.942-.15a2.479,2.479,0,0,0-2.5,2.79c0,1.74.929,2.8,2.488,2.8s2.489-1.13,2.489-2.8C700.6,2123.17,699.683,2122.11,698.124,2122.11Zm0,0.97c0.74,0,1.13.56,1.13,1.82s-0.39,1.83-1.14,1.83-1.139-.56-1.139-1.83C696.975,2123.65,697.375,2123.08,698.124,2123.08Zm6.29-.96a1.487,1.487,0,0,0-1.379,1.18l-0.12-1.04h-1.11v5.29h1.28v-2.81c0.2-.9.519-1.37,1.169-1.37a1.78,1.78,0,0,1,.47.06l0.22-1.24A1.835,1.835,0,0,0,704.414,2122.12Zm4.4-2.12v2.68a1.793,1.793,0,0,0-1.31-.57c-1.339,0-2.148,1.17-2.148,2.8,0,1.68.689,2.79,2.008,2.79a1.754,1.754,0,0,0,1.51-.82l0.09,0.67h1.129v-7.41Zm-1.09,6.73c-0.629,0-1.019-.47-1.019-1.83,0-1.27.44-1.83,1.109-1.83a1.24,1.24,0,0,1,1,.56v2.42A1.252,1.252,0,0,1,707.724,2126.73Zm4.331-4.21a0.81,0.81,0,1,0,.82.81A0.815,0.815,0,0,0,712.055,2122.52Zm0,3.56a0.81,0.81,0,0,0,0,1.62A0.81,0.81,0,1,0,712.055,2126.08Z" transform="translate(-581.5 -1920.5)"/>
  <path id="_A_Master_Password_encrypts_other_passwords_you_ve_asked_Firefo" data-name=" A Master Password encrypts other passwords you’ve asked Firefo" class="cls-5" d="M600.987,1967.5h1l-2.2-6.89h-1.2l-2.209,6.89h0.959l0.52-1.73h2.609Zm-2.9-2.5,1.079-3.6,1.07,3.6h-2.149Zm13.2-4.39H610l-1.379,5.01-1.449-5.01h-1.28l-0.569,6.89h0.9l0.23-3.04c0.08-1.01.13-2.08,0.13-2.89l1.569,5.15h0.89l1.489-5.14c0.01,0.57.08,1.73,0.17,2.81l0.239,3.11h0.92Zm5.871,5.66v-2.41a1.6,1.6,0,0,0-1.849-1.75,5.159,5.159,0,0,0-1.819.36l0.23,0.67a4.718,4.718,0,0,1,1.42-.28,0.922,0.922,0,0,1,1.1,1.04v0.39h-0.81c-1.469,0-2.318.61-2.318,1.74a1.531,1.531,0,0,0,1.679,1.59,1.8,1.8,0,0,0,1.569-.79,1.062,1.062,0,0,0,1.029.79l0.21-.64A0.624,0.624,0,0,1,617.157,1966.27Zm-2.158.66a0.831,0.831,0,0,1-.91-0.95c0-.72.49-1.08,1.459-1.08h0.69v1.21A1.354,1.354,0,0,1,615,1966.93Zm5.479-4.82a1.668,1.668,0,0,0-1.9,1.45c0,0.74.449,1.23,1.589,1.53,1.019,0.27,1.279.47,1.279,0.99a0.931,0.931,0,0,1-1.129.8,2.39,2.39,0,0,1-1.48-.51l-0.489.56a2.917,2.917,0,0,0,1.989.69c1.069,0,2.078-.5,2.078-1.6,0-.92-0.639-1.36-1.749-1.64-0.849-.22-1.129-0.42-1.129-0.85a0.8,0.8,0,0,1,.969-0.69,2.431,2.431,0,0,1,1.37.45l0.389-.58A2.794,2.794,0,0,0,620.478,1962.11Zm5.55,4.52a1.288,1.288,0,0,1-.7.23c-0.459,0-.629-0.25-0.629-0.78v-3.14h1.149l0.1-.71H624.7v-1.3l-0.92.11v1.19H622.86v0.71h0.919v3.18a1.324,1.324,0,0,0,1.419,1.5,2.009,2.009,0,0,0,1.18-.36Zm5.179-1.92c0-1.61-.75-2.6-2.169-2.6-1.359,0-2.189,1.17-2.189,2.81,0,1.67.86,2.7,2.329,2.7a2.87,2.87,0,0,0,1.839-.66l-0.4-.55a2.214,2.214,0,0,1-1.369.46c-0.759,0-1.329-.47-1.419-1.69h3.358C631.2,1965.06,631.207,1964.89,631.207,1964.71Zm-0.91-.21h-2.468c0.07-1.17.53-1.66,1.229-1.66,0.83,0,1.239.57,1.239,1.6v0.06Zm4.721-2.39a1.5,1.5,0,0,0-1.409,1.19l-0.09-1.07h-0.79v5.27h0.92v-3.01c0.219-1.01.6-1.48,1.259-1.48a1.653,1.653,0,0,1,.46.06l0.17-.9A2.242,2.242,0,0,0,635.018,1962.11Zm6.08-1.5h-1.809v6.89h0.949v-2.53h0.87c1.519,0,2.668-.65,2.668-2.23C643.776,1961.29,642.757,1960.61,641.1,1960.61Zm-0.03,3.61h-0.83v-2.87h0.85c1.019,0,1.679.37,1.679,1.4C642.767,1963.92,642.087,1964.22,641.068,1964.22Zm7.229,2.05v-2.41a1.6,1.6,0,0,0-1.849-1.75,5.154,5.154,0,0,0-1.819.36l0.23,0.67a4.706,4.706,0,0,1,1.419-.28,0.922,0.922,0,0,1,1.1,1.04v0.39h-0.809c-1.469,0-2.319.61-2.319,1.74a1.532,1.532,0,0,0,1.679,1.59,1.793,1.793,0,0,0,1.569-.79,1.062,1.062,0,0,0,1.03.79l0.21-.64A0.624,0.624,0,0,1,648.3,1966.27Zm-2.159.66a0.83,0.83,0,0,1-.909-0.95c0-.72.489-1.08,1.459-1.08h0.689v1.21A1.352,1.352,0,0,1,646.138,1966.93Zm5.48-4.82a1.669,1.669,0,0,0-1.9,1.45c0,0.74.45,1.23,1.589,1.53,1.02,0.27,1.279.47,1.279,0.99a0.93,0.93,0,0,1-1.129.8,2.387,2.387,0,0,1-1.479-.51l-0.49.56a2.921,2.921,0,0,0,1.989.69c1.069,0,2.079-.5,2.079-1.6,0-.92-0.64-1.36-1.749-1.64-0.85-.22-1.129-0.42-1.129-0.85a0.8,0.8,0,0,1,.969-0.69,2.428,2.428,0,0,1,1.369.45l0.39-.58A2.8,2.8,0,0,0,651.618,1962.11Zm4.67,0a1.669,1.669,0,0,0-1.9,1.45c0,0.74.45,1.23,1.589,1.53,1.02,0.27,1.279.47,1.279,0.99a0.93,0.93,0,0,1-1.129.8,2.387,2.387,0,0,1-1.479-.51l-0.49.56a2.919,2.919,0,0,0,1.989.69c1.069,0,2.079-.5,2.079-1.6,0-.92-0.64-1.36-1.749-1.64-0.85-.22-1.13-0.42-1.13-0.85a0.8,0.8,0,0,1,.97-0.69,2.428,2.428,0,0,1,1.369.45l0.39-.58A2.8,2.8,0,0,0,656.288,1962.11Zm9.157,0.12h-0.879l-0.96,4.63-0.989-4.63h-1.029l-1.04,4.63-0.949-4.63h-0.92l1.229,5.27h1.22l0.949-4.44,0.92,4.44h1.249Zm3.033-.12c-1.5,0-2.359,1.13-2.359,2.76,0,1.67.849,2.75,2.349,2.75s2.348-1.13,2.348-2.76C670.816,1963.19,669.977,1962.11,668.478,1962.11Zm0,0.74c0.869,0,1.349.64,1.349,2.01s-0.48,2.02-1.359,2.02-1.36-.64-1.36-2.01S667.6,1962.85,668.478,1962.85Zm6.15-.74a1.5,1.5,0,0,0-1.41,1.19l-0.09-1.07h-0.789v5.27h0.919v-3.01c0.22-1.01.6-1.48,1.26-1.48a1.651,1.651,0,0,1,.459.06l0.17-.9A2.239,2.239,0,0,0,674.628,1962.11Zm4.629-2.11v2.76a1.892,1.892,0,0,0-1.419-.65c-1.29,0-2.069,1.17-2.069,2.78,0,1.64.709,2.73,1.989,2.73a1.761,1.761,0,0,0,1.519-.85l0.09,0.73h0.809v-7.39Zm-1.3,6.89c-0.76,0-1.2-.63-1.2-2.02,0-1.37.49-2.03,1.28-2.03a1.511,1.511,0,0,1,1.219.69v2.58A1.51,1.51,0,0,1,677.958,1966.89Zm10.748-2.18c0-1.61-.749-2.6-2.168-2.6-1.36,0-2.189,1.17-2.189,2.81,0,1.67.859,2.7,2.329,2.7a2.867,2.867,0,0,0,1.838-.66l-0.4-.55a2.218,2.218,0,0,1-1.37.46c-0.759,0-1.329-.47-1.419-1.69h3.358C688.7,1965.06,688.706,1964.89,688.706,1964.71Zm-0.909-.21h-2.469c0.07-1.17.53-1.66,1.23-1.66,0.829,0,1.239.57,1.239,1.6v0.06Zm4.91-2.39a1.91,1.91,0,0,0-1.609.9l-0.08-.78h-0.79v5.27h0.92v-3.74a1.593,1.593,0,0,1,1.339-.93c0.51,0,.83.23,0.83,1.02v3.65h0.919v-3.78A1.441,1.441,0,0,0,692.707,1962.11Zm5.3,0c-1.429,0-2.3,1.12-2.3,2.8,0,1.7.879,2.71,2.3,2.71a2.482,2.482,0,0,0,1.609-.58l-0.419-.6a1.957,1.957,0,0,1-1.15.4c-0.829,0-1.349-.57-1.349-1.95s0.52-2.02,1.349-2.02a1.8,1.8,0,0,1,1.13.39l0.439-.58A2.338,2.338,0,0,0,698.007,1962.11Zm5.15,0a1.5,1.5,0,0,0-1.409,1.19l-0.09-1.07h-0.79v5.27h0.92v-3.01c0.22-1.01.6-1.48,1.259-1.48a1.653,1.653,0,0,1,.46.06l0.17-.9A2.242,2.242,0,0,0,703.157,1962.11Zm5.539,0.12h-0.949l-1.38,4.6-1.409-4.6h-0.979l1.769,5.27h0.31a1.8,1.8,0,0,1-1.67,1.41l0.1,0.72a2.677,2.677,0,0,0,2.449-2.1Zm3.471-.12a1.912,1.912,0,0,0-1.559.83l-0.07-.71h-0.79v7.4l0.92-.11v-2.5a1.7,1.7,0,0,0,1.379.6c1.359,0,2.069-1.16,2.069-2.76C714.116,1963.2,713.566,1962.11,712.167,1962.11Zm-0.34,4.76a1.354,1.354,0,0,1-1.159-.64v-2.57a1.6,1.6,0,0,1,1.269-.82c0.789,0,1.189.65,1.189,2.02S712.667,1966.87,711.827,1966.87Zm6.17-.24a1.288,1.288,0,0,1-.7.23c-0.46,0-.63-0.25-0.63-0.78v-3.14h1.15l0.1-.71h-1.25v-1.3l-0.919.11v1.19h-0.919v0.71h0.919v3.18a1.324,1.324,0,0,0,1.419,1.5,2.009,2.009,0,0,0,1.18-.36Zm2.73-4.52a1.669,1.669,0,0,0-1.9,1.45c0,0.74.45,1.23,1.589,1.53,1.02,0.27,1.28.47,1.28,0.99a0.931,0.931,0,0,1-1.13.8,2.389,2.389,0,0,1-1.479-.51l-0.49.56a2.921,2.921,0,0,0,1.989.69c1.07,0,2.079-.5,2.079-1.6,0-.92-0.64-1.36-1.749-1.64-0.849-.22-1.129-0.42-1.129-0.85a0.8,0.8,0,0,1,.969-0.69,2.426,2.426,0,0,1,1.369.45l0.39-.58A2.8,2.8,0,0,0,720.727,1962.11Zm7.87,0c-1.5,0-2.359,1.13-2.359,2.76,0,1.67.85,2.75,2.349,2.75s2.349-1.13,2.349-2.76C730.936,1963.19,730.1,1962.11,728.6,1962.11Zm0,0.74c0.869,0,1.349.64,1.349,2.01s-0.48,2.02-1.359,2.02-1.359-.64-1.359-2.01S727.717,1962.85,728.6,1962.85Zm6.17,3.78a1.288,1.288,0,0,1-.7.23c-0.46,0-.63-0.25-0.63-0.78v-3.14h1.15l0.1-.71h-1.25v-1.3l-0.919.11v1.19H731.6v0.71h0.92v3.18a1.324,1.324,0,0,0,1.419,1.5,2,2,0,0,0,1.179-.36Zm3.779-4.52a1.892,1.892,0,0,0-1.559.85v-2.94l-0.919.1v7.38h0.919v-3.75a1.613,1.613,0,0,1,1.33-.92c0.5,0,.839.23,0.839,1.02v3.65h0.92v-3.78A1.451,1.451,0,0,0,738.546,1962.11Zm7.36,2.6c0-1.61-.75-2.6-2.169-2.6-1.359,0-2.189,1.17-2.189,2.81,0,1.67.86,2.7,2.329,2.7a2.872,2.872,0,0,0,1.839-.66l-0.4-.55a2.218,2.218,0,0,1-1.369.46c-0.76,0-1.33-.47-1.42-1.69h3.359C745.9,1965.06,745.906,1964.89,745.906,1964.71Zm-0.91-.21h-2.469c0.07-1.17.53-1.66,1.23-1.66,0.829,0,1.239.57,1.239,1.6v0.06Zm4.72-2.39a1.5,1.5,0,0,0-1.409,1.19l-0.09-1.07h-0.789v5.27h0.919v-3.01c0.22-1.01.6-1.48,1.26-1.48a1.651,1.651,0,0,1,.459.06l0.17-.9A2.242,2.242,0,0,0,749.716,1962.11Zm6.64,0a1.915,1.915,0,0,0-1.559.83l-0.07-.71h-0.789v7.4l0.919-.11v-2.5a1.7,1.7,0,0,0,1.379.6c1.36,0,2.069-1.16,2.069-2.76C758.305,1963.2,757.755,1962.11,756.356,1962.11Zm-0.34,4.76a1.357,1.357,0,0,1-1.159-.64v-2.57a1.6,1.6,0,0,1,1.269-.82c0.79,0,1.19.65,1.19,2.02S756.856,1966.87,756.016,1966.87Zm7.41-.6v-2.41a1.6,1.6,0,0,0-1.849-1.75,5.15,5.15,0,0,0-1.819.36l0.229,0.67a4.718,4.718,0,0,1,1.42-.28,0.922,0.922,0,0,1,1.1,1.04v0.39H761.7c-1.469,0-2.318.61-2.318,1.74a1.531,1.531,0,0,0,1.679,1.59,1.8,1.8,0,0,0,1.569-.79,1.062,1.062,0,0,0,1.029.79l0.21-.64A0.624,0.624,0,0,1,763.426,1966.27Zm-2.159.66a0.831,0.831,0,0,1-.91-0.95c0-.72.49-1.08,1.459-1.08h0.69v1.21A1.354,1.354,0,0,1,761.267,1966.93Zm5.48-4.82a1.668,1.668,0,0,0-1.9,1.45c0,0.74.449,1.23,1.589,1.53,1.019,0.27,1.279.47,1.279,0.99a0.931,0.931,0,0,1-1.129.8,2.385,2.385,0,0,1-1.479-.51l-0.49.56a2.919,2.919,0,0,0,1.989.69c1.069,0,2.079-.5,2.079-1.6,0-.92-0.64-1.36-1.749-1.64-0.85-.22-1.13-0.42-1.13-0.85a0.8,0.8,0,0,1,.97-0.69,2.43,2.43,0,0,1,1.369.45l0.39-.58A2.8,2.8,0,0,0,766.747,1962.11Zm4.67,0a1.668,1.668,0,0,0-1.9,1.45c0,0.74.449,1.23,1.589,1.53,1.019,0.27,1.279.47,1.279,0.99a0.931,0.931,0,0,1-1.129.8,2.39,2.39,0,0,1-1.48-.51l-0.489.56a2.917,2.917,0,0,0,1.989.69c1.069,0,2.079-.5,2.079-1.6,0-.92-0.64-1.36-1.75-1.64-0.849-.22-1.129-0.42-1.129-0.85a0.8,0.8,0,0,1,.97-0.69,2.43,2.43,0,0,1,1.369.45l0.39-.58A2.8,2.8,0,0,0,771.417,1962.11Zm9.157,0.12H779.7l-0.96,4.63-0.989-4.63h-1.03l-1.039,4.63-0.95-4.63h-0.919l1.229,5.27h1.219l0.95-4.44,0.919,4.44h1.25Zm3.032-.12c-1.5,0-2.358,1.13-2.358,2.76,0,1.67.849,2.75,2.348,2.75s2.349-1.13,2.349-2.76C785.945,1963.19,785.105,1962.11,783.606,1962.11Zm0,0.74c0.87,0,1.35.64,1.35,2.01s-0.48,2.02-1.36,2.02-1.359-.64-1.359-2.01S782.727,1962.85,783.606,1962.85Zm6.15-.74a1.5,1.5,0,0,0-1.409,1.19l-0.09-1.07h-0.79v5.27h0.92v-3.01c0.22-1.01.6-1.48,1.259-1.48a1.653,1.653,0,0,1,.46.06l0.17-.9A2.242,2.242,0,0,0,789.756,1962.11Zm4.63-2.11v2.76a1.892,1.892,0,0,0-1.42-.65c-1.289,0-2.069,1.17-2.069,2.78,0,1.64.71,2.73,1.989,2.73a1.759,1.759,0,0,0,1.519-.85l0.091,0.73h0.809v-7.39Zm-1.3,6.89c-0.759,0-1.2-.63-1.2-2.02,0-1.37.49-2.03,1.279-2.03a1.512,1.512,0,0,1,1.22.69v2.58A1.511,1.511,0,0,1,793.086,1966.89Zm5.55-4.78a1.669,1.669,0,0,0-1.9,1.45c0,0.74.45,1.23,1.59,1.53,1.019,0.27,1.279.47,1.279,0.99a0.931,0.931,0,0,1-1.13.8,2.389,2.389,0,0,1-1.479-.51l-0.489.56a2.917,2.917,0,0,0,1.988.69c1.07,0,2.079-.5,2.079-1.6,0-.92-0.639-1.36-1.749-1.64-0.849-.22-1.129-0.42-1.129-0.85a0.8,0.8,0,0,1,.969-0.69,2.431,2.431,0,0,1,1.37.45l0.389-.58A2.794,2.794,0,0,0,798.636,1962.11Zm-197.883,12.12H599.8l-1.379,4.6-1.409-4.6h-0.979l1.769,5.27h0.309a1.793,1.793,0,0,1-1.669,1.41l0.1,0.72a2.678,2.678,0,0,0,2.449-2.1Zm2.881-.12c-1.5,0-2.359,1.13-2.359,2.76,0,1.67.85,2.75,2.349,2.75s2.349-1.13,2.349-2.76C605.973,1975.19,605.133,1974.11,603.634,1974.11Zm0,0.74c0.869,0,1.349.64,1.349,2.01s-0.48,2.02-1.359,2.02-1.359-.64-1.359-2.01S602.754,1974.85,603.634,1974.85Zm7.779-.62h-0.92v3.76a1.586,1.586,0,0,1-1.319.91c-0.57,0-.809-0.27-0.809-0.99v-3.68h-0.92v3.78a1.409,1.409,0,0,0,1.469,1.61,1.767,1.767,0,0,0,1.639-.94l0.07,0.82h0.79v-5.27Zm2.142-2.26a0.645,0.645,0,0,0-.65.63,0.612,0.612,0,0,0,.26.5l-0.4,1.5h0.6l0.669-1.42a1.309,1.309,0,0,0,.17-0.58A0.637,0.637,0,0,0,613.555,1971.97Zm5.908,2.26h-0.97l-1.369,4.45-1.379-4.45h-1l1.819,5.27h1.11Zm4.93,2.48c0-1.61-.75-2.6-2.169-2.6-1.359,0-2.189,1.17-2.189,2.81,0,1.67.859,2.7,2.329,2.7a2.872,2.872,0,0,0,1.839-.66l-0.4-.55a2.218,2.218,0,0,1-1.369.46c-0.76,0-1.33-.47-1.42-1.69h3.359C624.383,1977.06,624.393,1976.89,624.393,1976.71Zm-0.91-.21h-2.469c0.07-1.17.53-1.66,1.23-1.66,0.829,0,1.239.57,1.239,1.6v0.06Zm8.63,1.77v-2.41a1.6,1.6,0,0,0-1.849-1.75,5.15,5.15,0,0,0-1.819.36l0.23,0.67a4.706,4.706,0,0,1,1.419-.28,0.922,0.922,0,0,1,1.1,1.04v0.39h-0.809c-1.47,0-2.319.61-2.319,1.74a1.532,1.532,0,0,0,1.679,1.59,1.794,1.794,0,0,0,1.569-.79,1.062,1.062,0,0,0,1.03.79l0.209-.64A0.625,0.625,0,0,1,632.113,1978.27Zm-2.159.66a0.831,0.831,0,0,1-.91-0.95c0-.72.49-1.08,1.46-1.08h0.689v1.21A1.353,1.353,0,0,1,629.954,1978.93Zm5.48-4.82a1.668,1.668,0,0,0-1.9,1.45c0,0.74.45,1.23,1.589,1.53,1.019,0.27,1.279.47,1.279,0.99a0.931,0.931,0,0,1-1.129.8,2.385,2.385,0,0,1-1.479-.51l-0.49.56a2.919,2.919,0,0,0,1.989.69c1.069,0,2.079-.5,2.079-1.6,0-.92-0.64-1.36-1.749-1.64-0.85-.22-1.13-0.42-1.13-0.85a0.8,0.8,0,0,1,.97-0.69,2.43,2.43,0,0,1,1.369.45l0.39-.58A2.8,2.8,0,0,0,635.434,1974.11Zm4.16-2.11-0.92.11v7.39h0.92V1972Zm3.028,2.23h-1.029l-1.939,2.39,2.089,2.88h1.1l-2.159-2.94Zm5.05,2.48c0-1.61-.749-2.6-2.169-2.6-1.359,0-2.188,1.17-2.188,2.81,0,1.67.859,2.7,2.328,2.7a2.868,2.868,0,0,0,1.839-.66l-0.4-.55a2.218,2.218,0,0,1-1.37.46c-0.759,0-1.329-.47-1.419-1.69h3.358C647.662,1977.06,647.672,1976.89,647.672,1976.71Zm-0.909-.21h-2.469c0.07-1.17.53-1.66,1.229-1.66,0.83,0,1.24.57,1.24,1.6v0.06Zm5.59-4.5v2.76a1.892,1.892,0,0,0-1.42-.65c-1.289,0-2.068,1.17-2.068,2.78,0,1.64.709,2.73,1.988,2.73a1.762,1.762,0,0,0,1.52-.85l0.09,0.73h0.809v-7.39Zm-1.3,6.89c-0.759,0-1.2-.63-1.2-2.02,0-1.37.49-2.03,1.279-2.03a1.512,1.512,0,0,1,1.22.69v2.58A1.511,1.511,0,0,1,651.053,1978.89Zm10.479-6.28h-3.658v6.89h0.95v-3.03h2.249v-0.75h-2.249v-2.35h2.6Zm1.952-.91a0.625,0.625,0,1,0,.65.63A0.612,0.612,0,0,0,663.484,1971.7Zm0.47,2.53h-0.92v5.27h0.92v-5.27Zm4.189-.12a1.5,1.5,0,0,0-1.409,1.19l-0.09-1.07h-0.79v5.27h0.92v-3.01c0.22-1.01.6-1.48,1.259-1.48a1.653,1.653,0,0,1,.46.06l0.17-.9A2.242,2.242,0,0,0,668.143,1974.11Zm5.449,2.6c0-1.61-.75-2.6-2.169-2.6-1.359,0-2.189,1.17-2.189,2.81,0,1.67.86,2.7,2.329,2.7a2.87,2.87,0,0,0,1.839-.66l-0.4-.55a2.214,2.214,0,0,1-1.369.46c-0.76,0-1.329-.47-1.419-1.69h3.358C673.582,1977.06,673.592,1976.89,673.592,1976.71Zm-0.91-.21h-2.468c0.07-1.17.529-1.66,1.229-1.66,0.83,0,1.239.57,1.239,1.6v0.06Zm4.221-3.76a2.247,2.247,0,0,1,.919.2l0.29-.67a2.9,2.9,0,0,0-1.259-.27,1.469,1.469,0,0,0-1.649,1.51v0.72h-0.94v0.71h0.94v4.56h0.919v-4.56h1.18l0.1-.71h-1.28v-0.73A0.657,0.657,0,0,1,676.9,1972.74Zm3.44,1.37c-1.5,0-2.359,1.13-2.359,2.76,0,1.67.85,2.75,2.349,2.75s2.349-1.13,2.349-2.76C682.682,1975.19,681.842,1974.11,680.343,1974.11Zm0,0.74c0.869,0,1.349.64,1.349,2.01s-0.48,2.02-1.359,2.02-1.359-.64-1.359-2.01S679.463,1974.85,680.343,1974.85Zm5.68,1.83,1.619-2.45H686.6l-1.11,1.93-1.1-1.93h-1.08l1.63,2.49-1.839,2.78h1.039l1.309-2.23,1.29,2.23h1.109Zm7.79,1.95a1.288,1.288,0,0,1-.7.23c-0.46,0-.63-0.25-0.63-0.78v-3.14h1.15l0.1-.71h-1.25v-1.3l-0.919.11v1.19h-0.92v0.71h0.92v3.18a1.324,1.324,0,0,0,1.419,1.5,2,2,0,0,0,1.179-.36Zm3.18-4.52c-1.5,0-2.359,1.13-2.359,2.76,0,1.67.85,2.75,2.349,2.75s2.349-1.13,2.349-2.76C699.332,1975.19,698.492,1974.11,696.993,1974.11Zm0,0.74c0.869,0,1.349.64,1.349,2.01s-0.48,2.02-1.359,2.02-1.359-.64-1.359-2.01S696.113,1974.85,696.993,1974.85Zm8.8-.74a1.5,1.5,0,0,0-1.41,1.19l-0.09-1.07H703.5v5.27h0.919v-3.01c0.22-1.01.6-1.48,1.26-1.48a1.641,1.641,0,0,1,.459.06l0.17-.9A2.233,2.233,0,0,0,705.793,1974.11Zm5.449,2.6c0-1.61-.75-2.6-2.169-2.6-1.359,0-2.189,1.17-2.189,2.81,0,1.67.86,2.7,2.329,2.7a2.872,2.872,0,0,0,1.839-.66l-0.4-.55a2.218,2.218,0,0,1-1.369.46c-0.76,0-1.33-.47-1.42-1.69h3.359C711.232,1977.06,711.242,1976.89,711.242,1976.71Zm-0.91-.21h-2.469c0.07-1.17.53-1.66,1.23-1.66,0.829,0,1.239.57,1.239,1.6v0.06Zm7.719-2.39a1.825,1.825,0,0,0-1.569.95,1.328,1.328,0,0,0-1.33-.95,1.761,1.761,0,0,0-1.519.89l-0.08-.77h-0.789v5.27h0.919v-3.74a1.482,1.482,0,0,1,1.24-.93c0.4,0,.739.23,0.739,1.02v3.65h0.92v-3.74a1.492,1.492,0,0,1,1.239-.93c0.4,0,.739.23,0.739,1.02v3.65h0.92v-3.78A1.43,1.43,0,0,0,718.051,1974.11Zm7.26,2.6c0-1.61-.749-2.6-2.168-2.6-1.36,0-2.189,1.17-2.189,2.81,0,1.67.859,2.7,2.329,2.7a2.872,2.872,0,0,0,1.839-.66l-0.4-.55a2.218,2.218,0,0,1-1.369.46c-0.76,0-1.33-.47-1.42-1.69h3.358C725.3,1977.06,725.311,1976.89,725.311,1976.71Zm-0.909-.21h-2.469c0.07-1.17.53-1.66,1.23-1.66,0.829,0,1.239.57,1.239,1.6v0.06Zm7.719-2.39a1.828,1.828,0,0,0-1.57.95,1.326,1.326,0,0,0-1.329-.95,1.761,1.761,0,0,0-1.519.89l-0.08-.77h-0.79v5.27h0.92v-3.74a1.482,1.482,0,0,1,1.239-.93c0.4,0,.74.23,0.74,1.02v3.65h0.919v-3.74a1.5,1.5,0,0,1,1.24-.93c0.4,0,.739.23,0.739,1.02v3.65h0.92v-3.78A1.43,1.43,0,0,0,732.121,1974.11Zm5.691,0a1.777,1.777,0,0,0-1.489.78V1972l-0.92.11v7.39h0.81l0.09-.58a1.752,1.752,0,0,0,1.4.7c1.279,0,2.069-1.11,2.069-2.76C739.771,1975.1,739,1974.11,737.812,1974.11Zm-0.33,4.78a1.418,1.418,0,0,1-1.159-.71v-2.52a1.494,1.494,0,0,1,1.229-.82c0.74,0,1.23.52,1.23,2.02C738.782,1978.3,738.252,1978.89,737.482,1978.89Zm7.839-2.18c0-1.61-.749-2.6-2.169-2.6-1.359,0-2.188,1.17-2.188,2.81,0,1.67.859,2.7,2.328,2.7a2.868,2.868,0,0,0,1.839-.66l-0.4-.55a2.218,2.218,0,0,1-1.37.46c-0.759,0-1.329-.47-1.419-1.69H745.3C745.311,1977.06,745.321,1976.89,745.321,1976.71Zm-0.909-.21h-2.469c0.07-1.17.53-1.66,1.229-1.66,0.83,0,1.24.57,1.24,1.6v0.06Zm4.72-2.39a1.5,1.5,0,0,0-1.409,1.19l-0.09-1.07h-0.79v5.27h0.92v-3.01c0.22-1.01.6-1.48,1.259-1.48a1.653,1.653,0,0,1,.46.06l0.17-.9A2.242,2.242,0,0,0,749.132,1974.11Zm1.111,4.12a0.7,0.7,0,1,0,.7.69A0.684,0.684,0,0,0,750.243,1978.23Zm11.866-5.62H761.24l-1.15,6.06-1.359-6.06h-1.009l-1.33,6.06-1.109-6.06h-0.93l1.4,6.89h1.189l1.279-5.77,1.27,5.77h1.219Zm3.683,1.5a1.889,1.889,0,0,0-1.559.85v-2.94l-0.92.1v7.38h0.92v-3.75a1.61,1.61,0,0,1,1.329-.92c0.5,0,.839.23,0.839,1.02v3.65h0.92v-3.78A1.451,1.451,0,0,0,765.792,1974.11Zm7.359,2.6c0-1.61-.75-2.6-2.169-2.6-1.359,0-2.189,1.17-2.189,2.81,0,1.67.86,2.7,2.329,2.7a2.87,2.87,0,0,0,1.839-.66l-0.4-.55a2.216,2.216,0,0,1-1.369.46c-0.76,0-1.329-.47-1.419-1.69h3.358C773.141,1977.06,773.151,1976.89,773.151,1976.71Zm-0.91-.21h-2.468c0.07-1.17.529-1.66,1.229-1.66,0.83,0,1.239.57,1.239,1.6v0.06Zm4.91-2.39a1.911,1.911,0,0,0-1.609.9l-0.08-.78h-0.789v5.27h0.919v-3.74a1.594,1.594,0,0,1,1.34-.93c0.509,0,.829.23,0.829,1.02v3.65h0.92v-3.78A1.442,1.442,0,0,0,777.151,1974.11Zm9.9,0.12H786.1l-1.379,4.6-1.409-4.6h-0.98l1.769,5.27h0.31a1.8,1.8,0,0,1-1.669,1.41l0.1,0.72a2.678,2.678,0,0,0,2.449-2.1Zm2.881-.12c-1.5,0-2.359,1.13-2.359,2.76,0,1.67.849,2.75,2.349,2.75s2.348-1.13,2.348-2.76C792.27,1975.19,791.431,1974.11,789.932,1974.11Zm0,0.74c0.869,0,1.349.64,1.349,2.01s-0.48,2.02-1.359,2.02-1.36-.64-1.36-2.01S789.052,1974.85,789.932,1974.85Zm7.779-.62h-0.92v3.76a1.586,1.586,0,0,1-1.319.91c-0.57,0-.81-0.27-0.81-0.99v-3.68h-0.919v3.78a1.408,1.408,0,0,0,1.469,1.61,1.768,1.768,0,0,0,1.639-.94l0.07,0.82h0.79v-5.27Zm-201.662,11.88c-1.429,0-2.3,1.12-2.3,2.8,0,1.7.88,2.71,2.3,2.71a2.482,2.482,0,0,0,1.609-.58l-0.42-.6a1.952,1.952,0,0,1-1.149.4c-0.829,0-1.349-.57-1.349-1.95s0.52-2.02,1.349-2.02a1.8,1.8,0,0,1,1.13.39l0.439-.58A2.338,2.338,0,0,0,596.049,1986.11Zm5.15,0a1.5,1.5,0,0,0-1.409,1.19l-0.09-1.07h-0.79v5.27h0.92v-3.01c0.22-1.01.6-1.48,1.259-1.48a1.653,1.653,0,0,1,.46.06l0.17-.9A2.242,2.242,0,0,0,601.2,1986.11Zm5.449,2.6c0-1.61-.75-2.6-2.169-2.6-1.359,0-2.189,1.17-2.189,2.81,0,1.67.86,2.7,2.329,2.7a2.87,2.87,0,0,0,1.839-.66l-0.4-.55a2.216,2.216,0,0,1-1.369.46c-0.76,0-1.329-.47-1.419-1.69h3.358C606.638,1989.06,606.648,1988.89,606.648,1988.71Zm-0.91-.21H603.27c0.07-1.17.529-1.66,1.229-1.66,0.83,0,1.239.57,1.239,1.6v0.06Zm5.98,1.77v-2.41a1.6,1.6,0,0,0-1.849-1.75,5.154,5.154,0,0,0-1.819.36l0.23,0.67a4.712,4.712,0,0,1,1.419-.28,0.922,0.922,0,0,1,1.1,1.04v0.39h-0.81c-1.469,0-2.319.61-2.319,1.74a1.532,1.532,0,0,0,1.679,1.59,1.793,1.793,0,0,0,1.569-.79,1.062,1.062,0,0,0,1.03.79l0.21-.64A0.624,0.624,0,0,1,611.718,1990.27Zm-2.159.66a0.83,0.83,0,0,1-.909-0.95c0-.72.489-1.08,1.459-1.08h0.69v1.21A1.354,1.354,0,0,1,609.559,1990.93Zm6.36-.3a1.288,1.288,0,0,1-.7.23c-0.46,0-.63-0.25-0.63-0.78v-3.14h1.15l0.1-.71h-1.25v-1.3l-0.919.11v1.19h-0.92v0.71h0.92v3.18a1.324,1.324,0,0,0,1.419,1.5,2,2,0,0,0,1.179-.36Zm5.179-1.92c0-1.61-.75-2.6-2.169-2.6-1.359,0-2.189,1.17-2.189,2.81,0,1.67.86,2.7,2.329,2.7a2.872,2.872,0,0,0,1.839-.66l-0.4-.55a2.218,2.218,0,0,1-1.369.46c-0.76,0-1.33-.47-1.419-1.69h3.358C621.088,1989.06,621.1,1988.89,621.1,1988.71Zm-0.91-.21H617.72c0.069-1.17.529-1.66,1.229-1.66,0.829,0,1.239.57,1.239,1.6v0.06Zm8.63,1.77v-2.41a1.6,1.6,0,0,0-1.849-1.75,5.15,5.15,0,0,0-1.819.36l0.23,0.67a4.706,4.706,0,0,1,1.419-.28,0.922,0.922,0,0,1,1.1,1.04v0.39h-0.809c-1.469,0-2.319.61-2.319,1.74a1.532,1.532,0,0,0,1.679,1.59,1.794,1.794,0,0,0,1.569-.79,1.062,1.062,0,0,0,1.03.79l0.21-.64A0.624,0.624,0,0,1,628.818,1990.27Zm-2.159.66a0.831,0.831,0,0,1-.91-0.95c0-.72.49-1.08,1.46-1.08H627.9v1.21A1.353,1.353,0,0,1,626.659,1990.93Zm11.988-4.82a1.825,1.825,0,0,0-1.569.95,1.328,1.328,0,0,0-1.33-.95,1.761,1.761,0,0,0-1.519.89l-0.08-.77H633.36v5.27h0.919v-3.74a1.482,1.482,0,0,1,1.239-.93c0.4,0,.74.23,0.74,1.02v3.65h0.92v-3.74a1.492,1.492,0,0,1,1.239-.93c0.4,0,.739.23,0.739,1.02v3.65h0.92v-3.78A1.43,1.43,0,0,0,638.647,1986.11Zm6.831,4.16v-2.41a1.6,1.6,0,0,0-1.849-1.75,5.15,5.15,0,0,0-1.819.36l0.229,0.67a4.718,4.718,0,0,1,1.42-.28,0.922,0.922,0,0,1,1.1,1.04v0.39h-0.809c-1.47,0-2.319.61-2.319,1.74a1.532,1.532,0,0,0,1.679,1.59,1.794,1.794,0,0,0,1.569-.79,1.062,1.062,0,0,0,1.029.79l0.21-.64A0.624,0.624,0,0,1,645.478,1990.27Zm-2.159.66a0.831,0.831,0,0,1-.91-0.95c0-.72.49-1.08,1.459-1.08h0.69v1.21A1.353,1.353,0,0,1,643.319,1990.93Zm5.48-4.82a1.668,1.668,0,0,0-1.9,1.45c0,0.74.45,1.23,1.589,1.53,1.019,0.27,1.279.47,1.279,0.99a0.931,0.931,0,0,1-1.129.8,2.385,2.385,0,0,1-1.479-.51l-0.49.56a2.919,2.919,0,0,0,1.989.69c1.069,0,2.079-.5,2.079-1.6,0-.92-0.64-1.36-1.749-1.64-0.85-.22-1.13-0.42-1.13-0.85a0.8,0.8,0,0,1,.97-0.69,2.43,2.43,0,0,1,1.369.45l0.39-.58A2.8,2.8,0,0,0,648.8,1986.11Zm5.549,4.52a1.287,1.287,0,0,1-.7.23c-0.46,0-.63-0.25-0.63-0.78v-3.14h1.149l0.1-.71h-1.249v-1.3l-0.92.11v1.19H651.18v0.71H652.1v3.18a1.324,1.324,0,0,0,1.42,1.5,2.008,2.008,0,0,0,1.179-.36Zm5.179-1.92c0-1.61-.749-2.6-2.169-2.6-1.359,0-2.188,1.17-2.188,2.81,0,1.67.859,2.7,2.328,2.7a2.868,2.868,0,0,0,1.839-.66l-0.4-.55a2.218,2.218,0,0,1-1.37.46c-0.759,0-1.329-.47-1.419-1.69h3.358C659.517,1989.06,659.527,1988.89,659.527,1988.71Zm-0.909-.21h-2.469c0.07-1.17.53-1.66,1.229-1.66,0.83,0,1.24.57,1.24,1.6v0.06Zm4.72-2.39a1.5,1.5,0,0,0-1.409,1.19l-0.09-1.07h-0.79v5.27h0.92v-3.01c0.22-1.01.6-1.48,1.259-1.48a1.653,1.653,0,0,1,.46.06l0.17-.9A2.242,2.242,0,0,0,663.338,1986.11Zm6.64,0a1.912,1.912,0,0,0-1.559.83l-0.07-.71h-0.79v7.4l0.92-.11v-2.5a1.7,1.7,0,0,0,1.379.6c1.359,0,2.069-1.16,2.069-2.76C671.927,1987.2,671.377,1986.11,669.978,1986.11Zm-0.34,4.76a1.354,1.354,0,0,1-1.159-.64v-2.57a1.6,1.6,0,0,1,1.269-.82c0.79,0,1.189.65,1.189,2.02S670.478,1990.87,669.638,1990.87Zm7.409-.6v-2.41a1.6,1.6,0,0,0-1.849-1.75,5.154,5.154,0,0,0-1.819.36l0.23,0.67a4.718,4.718,0,0,1,1.419-.28,0.922,0.922,0,0,1,1.1,1.04v0.39h-0.81c-1.469,0-2.319.61-2.319,1.74a1.532,1.532,0,0,0,1.679,1.59,1.8,1.8,0,0,0,1.57-.79,1.061,1.061,0,0,0,1.029.79l0.21-.64A0.624,0.624,0,0,1,677.047,1990.27Zm-2.159.66a0.83,0.83,0,0,1-.909-0.95c0-.72.49-1.08,1.459-1.08h0.69v1.21A1.354,1.354,0,0,1,674.888,1990.93Zm5.48-4.82a1.669,1.669,0,0,0-1.9,1.45c0,0.74.45,1.23,1.589,1.53,1.02,0.27,1.28.47,1.28,0.99a0.931,0.931,0,0,1-1.13.8,2.389,2.389,0,0,1-1.479-.51l-0.49.56a2.921,2.921,0,0,0,1.989.69c1.07,0,2.079-.5,2.079-1.6,0-.92-0.639-1.36-1.749-1.64-0.849-.22-1.129-0.42-1.129-0.85a0.8,0.8,0,0,1,.969-0.69,2.426,2.426,0,0,1,1.369.45l0.39-.58A2.8,2.8,0,0,0,680.368,1986.11Zm4.67,0a1.669,1.669,0,0,0-1.9,1.45c0,0.74.45,1.23,1.589,1.53,1.02,0.27,1.28.47,1.28,0.99a0.931,0.931,0,0,1-1.13.8,2.389,2.389,0,0,1-1.479-.51l-0.49.56a2.921,2.921,0,0,0,1.989.69c1.07,0,2.079-.5,2.079-1.6,0-.92-0.639-1.36-1.749-1.64-0.849-.22-1.129-0.42-1.129-0.85a0.8,0.8,0,0,1,.969-0.69,2.426,2.426,0,0,1,1.369.45l0.39-.58A2.8,2.8,0,0,0,685.038,1986.11Zm9.158,0.12h-0.88l-0.959,4.63-0.99-4.63h-1.029l-1.04,4.63-0.949-4.63h-0.92l1.23,5.27h1.219l0.95-4.44,0.919,4.44H693Zm3.032-.12c-1.5,0-2.359,1.13-2.359,2.76,0,1.67.85,2.75,2.349,2.75s2.349-1.13,2.349-2.76C699.567,1987.19,698.727,1986.11,697.228,1986.11Zm0,0.74c0.869,0,1.349.64,1.349,2.01s-0.48,2.02-1.359,2.02-1.359-.64-1.359-2.01S696.348,1986.85,697.228,1986.85Zm6.15-.74a1.5,1.5,0,0,0-1.409,1.19l-0.09-1.07h-0.79v5.27h0.919v-3.01c0.22-1.01.6-1.48,1.26-1.48a1.653,1.653,0,0,1,.46.06l0.169-.9A2.227,2.227,0,0,0,703.378,1986.11Zm4.629-2.11v2.76a1.89,1.89,0,0,0-1.419-.65c-1.289,0-2.069,1.17-2.069,2.78,0,1.64.71,2.73,1.989,2.73a1.76,1.76,0,0,0,1.519-.85l0.09,0.73h0.81v-7.39Zm-1.3,6.89c-0.76,0-1.2-.63-1.2-2.02,0-1.37.489-2.03,1.279-2.03a1.51,1.51,0,0,1,1.219.69v2.58A1.509,1.509,0,0,1,706.708,1990.89Zm4.361-.66a0.685,0.685,0,0,0-.69.69,0.725,0.725,0,0,0,.28.58l-0.4,1.66h0.66l0.669-1.53a1.647,1.647,0,0,0,.18-0.71A0.687,0.687,0,0,0,711.069,1990.23Zm8.518-5.62h-3.658v6.89h0.949v-3.03h2.249v-0.75h-2.249v-2.35h2.6Zm1.951-.91a0.625,0.625,0,1,0,.65.63A0.612,0.612,0,0,0,721.538,1983.7Zm0.47,2.53h-0.919v5.27h0.919v-5.27Zm4.189-.12a1.5,1.5,0,0,0-1.409,1.19l-0.09-1.07h-0.789v5.27h0.919v-3.01c0.22-1.01.6-1.48,1.259-1.48a1.653,1.653,0,0,1,.46.06l0.17-.9A2.242,2.242,0,0,0,726.2,1986.11Zm5.449,2.6c0-1.61-.749-2.6-2.168-2.6-1.36,0-2.189,1.17-2.189,2.81,0,1.67.859,2.7,2.329,2.7a2.867,2.867,0,0,0,1.838-.66l-0.4-.55a2.218,2.218,0,0,1-1.37.46c-0.759,0-1.329-.47-1.419-1.69h3.358C731.636,1989.06,731.646,1988.89,731.646,1988.71Zm-0.909-.21h-2.469c0.07-1.17.53-1.66,1.23-1.66,0.829,0,1.239.57,1.239,1.6v0.06Zm4.22-3.76a2.254,2.254,0,0,1,.92.2l0.29-.67a2.906,2.906,0,0,0-1.26-.27,1.469,1.469,0,0,0-1.649,1.51v0.72h-0.939v0.71h0.939v4.56h0.92v-4.56h1.179l0.1-.71h-1.279v-0.73A0.657,0.657,0,0,1,734.957,1984.74Zm3.44,1.37c-1.5,0-2.358,1.13-2.358,2.76,0,1.67.849,2.75,2.348,2.75s2.349-1.13,2.349-2.76C740.736,1987.19,739.9,1986.11,738.4,1986.11Zm0,0.74c0.87,0,1.35.64,1.35,2.01s-0.48,2.02-1.36,2.02-1.359-.64-1.359-2.01S737.518,1986.85,738.4,1986.85Zm5.68,1.83,1.619-2.45h-1.039l-1.109,1.93-1.1-1.93h-1.079l1.629,2.49-1.839,2.78H742.2l1.31-2.23,1.289,2.23h1.109Zm11.5-2.45H754.7l-0.96,4.63-0.989-4.63h-1.03l-1.039,4.63-0.95-4.63h-0.919l1.229,5.27h1.219l0.95-4.44,0.919,4.44h1.25Zm1.6-2.53a0.625,0.625,0,1,0,.65.63A0.612,0.612,0,0,0,757.178,1983.7Zm0.47,2.53h-0.92v5.27h0.92v-5.27Zm2.95,5.39a1.542,1.542,0,0,0,.729-0.18l-0.24-.64a0.892,0.892,0,0,1-.339.06c-0.24,0-.33-0.14-0.33-0.42V1984l-0.92.11v6.35A1.037,1.037,0,0,0,760.6,1991.62Zm2.93,0a1.542,1.542,0,0,0,.729-0.18l-0.24-.64a0.888,0.888,0,0,1-.339.06c-0.24,0-.33-0.14-0.33-0.42V1984l-0.92.11v6.35A1.037,1.037,0,0,0,763.528,1991.62Zm8.078-1.35v-2.41a1.6,1.6,0,0,0-1.849-1.75,5.159,5.159,0,0,0-1.819.36l0.23,0.67a4.718,4.718,0,0,1,1.419-.28,0.922,0.922,0,0,1,1.1,1.04v0.39h-0.81c-1.469,0-2.318.61-2.318,1.74a1.531,1.531,0,0,0,1.679,1.59,1.8,1.8,0,0,0,1.569-.79,1.061,1.061,0,0,0,1.029.79l0.21-.64A0.624,0.624,0,0,1,771.606,1990.27Zm-2.158.66a0.831,0.831,0,0,1-.91-0.95c0-.72.49-1.08,1.459-1.08h0.69v1.21A1.354,1.354,0,0,1,769.448,1990.93Zm5.479-4.82a1.669,1.669,0,0,0-1.9,1.45c0,0.74.45,1.23,1.59,1.53,1.019,0.27,1.279.47,1.279,0.99a0.931,0.931,0,0,1-1.129.8,2.39,2.39,0,0,1-1.48-.51l-0.489.56a2.917,2.917,0,0,0,1.988.69c1.07,0,2.079-.5,2.079-1.6,0-.92-0.639-1.36-1.749-1.64-0.849-.22-1.129-0.42-1.129-0.85a0.8,0.8,0,0,1,.969-0.69,2.431,2.431,0,0,1,1.37.45l0.389-.58A2.794,2.794,0,0,0,774.927,1986.11Zm4.161-2.11-0.92.11v7.39h0.92V1984Zm3.028,2.23h-1.029l-1.939,2.39,2.088,2.88h1.1l-2.159-2.94Zm7.69,0h-0.95l-1.379,4.6-1.409-4.6h-0.979l1.769,5.27h0.309a1.793,1.793,0,0,1-1.669,1.41l0.1,0.72a2.678,2.678,0,0,0,2.449-2.1Zm2.881-.12c-1.5,0-2.359,1.13-2.359,2.76,0,1.67.85,2.75,2.349,2.75s2.349-1.13,2.349-2.76C795.026,1987.19,794.186,1986.11,792.687,1986.11Zm0,0.74c0.869,0,1.349.64,1.349,2.01s-0.48,2.02-1.359,2.02-1.359-.64-1.359-2.01S791.807,1986.85,792.687,1986.85Zm7.779-.62h-0.92v3.76a1.586,1.586,0,0,1-1.319.91c-0.57,0-.809-0.27-0.809-0.99v-3.68H796.5v3.78a1.409,1.409,0,0,0,1.469,1.61,1.768,1.768,0,0,0,1.639-.94l0.07,0.82h0.79v-5.27ZM598.9,2002.63a1.288,1.288,0,0,1-.7.23c-0.46,0-.629-0.25-0.629-0.78v-3.14h1.149l0.1-.71h-1.249v-1.3l-0.92.11v1.19h-0.919v0.71h0.919v3.18a1.324,1.324,0,0,0,1.419,1.5,2.009,2.009,0,0,0,1.18-.36Zm3.18-4.52c-1.5,0-2.359,1.13-2.359,2.76,0,1.67.85,2.75,2.349,2.75s2.349-1.13,2.349-2.76C604.423,1999.19,603.583,1998.11,602.084,1998.11Zm0,0.74c0.869,0,1.349.64,1.349,2.01s-0.48,2.02-1.359,2.02-1.359-.64-1.359-2.01S601.2,1998.85,602.084,1998.85Zm10.489,1.86c0-1.61-.75-2.6-2.169-2.6-1.359,0-2.189,1.17-2.189,2.81,0,1.67.86,2.7,2.329,2.7a2.87,2.87,0,0,0,1.839-.66l-0.4-.55a2.216,2.216,0,0,1-1.369.46c-0.76,0-1.329-.47-1.419-1.69h3.358C612.563,2001.06,612.573,2000.89,612.573,2000.71Zm-0.91-.21H609.2c0.07-1.17.529-1.66,1.229-1.66,0.83,0,1.239.57,1.239,1.6v0.06Zm4.911-2.39a1.912,1.912,0,0,0-1.61.9l-0.08-.78H614.1v5.27h0.919v-3.74a1.594,1.594,0,0,1,1.34-.93c0.509,0,.829.23,0.829,1.02v3.65h0.92v-3.78A1.442,1.442,0,0,0,616.574,1998.11Zm5.69,4.52a1.288,1.288,0,0,1-.7.23c-0.46,0-.63-0.25-0.63-0.78v-3.14h1.15l0.1-.71h-1.25v-1.3l-0.919.11v1.19H619.1v0.71h0.92v3.18a1.324,1.324,0,0,0,1.419,1.5,2,2,0,0,0,1.179-.36Zm5.179-1.92c0-1.61-.75-2.6-2.169-2.6-1.359,0-2.189,1.17-2.189,2.81,0,1.67.86,2.7,2.329,2.7a2.872,2.872,0,0,0,1.839-.66l-0.4-.55a2.218,2.218,0,0,1-1.369.46c-0.76,0-1.329-.47-1.419-1.69h3.358C627.433,2001.06,627.443,2000.89,627.443,2000.71Zm-0.91-.21h-2.468c0.069-1.17.529-1.66,1.229-1.66,0.829,0,1.239.57,1.239,1.6v0.06Zm4.721-2.39a1.5,1.5,0,0,0-1.41,1.19l-0.09-1.07h-0.789v5.27h0.919v-3.01c0.22-1.01.6-1.48,1.26-1.48a1.651,1.651,0,0,1,.459.06l0.17-.9A2.239,2.239,0,0,0,631.254,1998.11Zm4.67-2.41a0.625,0.625,0,1,0,.65.63A0.612,0.612,0,0,0,635.924,1995.7Zm0.47,2.53h-0.919v5.27h0.919v-5.27Zm4.209,4.4a1.285,1.285,0,0,1-.7.23c-0.46,0-.63-0.25-0.63-0.78v-3.14h1.149l0.1-.71h-1.249v-1.3l-0.919.11v1.19h-0.92v0.71h0.92v3.18a1.323,1.323,0,0,0,1.419,1.5,2.006,2.006,0,0,0,1.179-.36Zm5.93-4.52c-1.5,0-2.358,1.13-2.358,2.76,0,1.67.849,2.75,2.348,2.75s2.349-1.13,2.349-2.76C648.872,1999.19,648.033,1998.11,646.533,1998.11Zm0,0.74c0.87,0,1.35.64,1.35,2.01s-0.48,2.02-1.36,2.02-1.359-.64-1.359-2.01S645.654,1998.85,646.533,1998.85Zm6.34-.74a1.911,1.911,0,0,0-1.609.9l-0.08-.78h-0.79v5.27h0.92v-3.74a1.593,1.593,0,0,1,1.339-.93c0.51,0,.83.23,0.83,1.02v3.65H654.4v-3.78A1.441,1.441,0,0,0,652.873,1998.11Zm5.3,0c-1.429,0-2.3,1.12-2.3,2.8,0,1.7.879,2.71,2.3,2.71a2.486,2.486,0,0,0,1.61-.58l-0.42-.6a1.957,1.957,0,0,1-1.15.4c-0.829,0-1.349-.57-1.349-1.95s0.52-2.02,1.349-2.02a1.8,1.8,0,0,1,1.13.39l0.44-.58A2.342,2.342,0,0,0,658.173,1998.11Zm6.739,2.6c0-1.61-.749-2.6-2.168-2.6-1.36,0-2.189,1.17-2.189,2.81,0,1.67.859,2.7,2.328,2.7a2.868,2.868,0,0,0,1.839-.66l-0.4-.55a2.218,2.218,0,0,1-1.37.46c-0.759,0-1.329-.47-1.419-1.69h3.358C664.9,2001.06,664.912,2000.89,664.912,2000.71ZM664,2000.5h-2.469c0.07-1.17.53-1.66,1.229-1.66,0.83,0,1.24.57,1.24,1.6v0.06Zm7.5-2.39a1.914,1.914,0,0,0-1.559.83l-0.07-.71h-0.79v7.4l0.92-.11v-2.5a1.7,1.7,0,0,0,1.379.6c1.359,0,2.069-1.16,2.069-2.76C673.452,1999.2,672.9,1998.11,671.5,1998.11Zm-0.34,4.76a1.357,1.357,0,0,1-1.159-.64v-2.57a1.6,1.6,0,0,1,1.269-.82c0.79,0,1.19.65,1.19,2.02S672,2002.87,671.163,2002.87Zm7.839-2.16c0-1.61-.749-2.6-2.169-2.6-1.359,0-2.188,1.17-2.188,2.81,0,1.67.859,2.7,2.328,2.7a2.87,2.87,0,0,0,1.839-.66l-0.4-.55a2.214,2.214,0,0,1-1.369.46c-0.759,0-1.329-.47-1.419-1.69h3.358C678.992,2001.06,679,2000.89,679,2000.71Zm-0.909-.21h-2.469c0.07-1.17.53-1.66,1.229-1.66,0.83,0,1.24.57,1.24,1.6v0.06Zm4.72-2.39a1.5,1.5,0,0,0-1.409,1.19l-0.09-1.07h-0.79v5.27h0.92v-3.01c0.22-1.01.6-1.48,1.259-1.48a1.653,1.653,0,0,1,.46.06l0.17-.9A2.242,2.242,0,0,0,682.813,1998.11Zm5.65,0a1.669,1.669,0,0,0-1.9,1.45c0,0.74.45,1.23,1.589,1.53,1.02,0.27,1.28.47,1.28,0.99a0.931,0.931,0,0,1-1.13.8,2.389,2.389,0,0,1-1.479-.51l-0.49.56a2.921,2.921,0,0,0,1.989.69c1.07,0,2.079-.5,2.079-1.6,0-.92-0.639-1.36-1.749-1.64-0.849-.22-1.129-0.42-1.129-0.85a0.8,0.8,0,0,1,.969-0.69,2.426,2.426,0,0,1,1.369.45l0.39-.58A2.794,2.794,0,0,0,688.463,1998.11Zm7.219,2.6c0-1.61-.75-2.6-2.169-2.6-1.359,0-2.189,1.17-2.189,2.81,0,1.67.86,2.7,2.329,2.7a2.87,2.87,0,0,0,1.839-.66l-0.4-.55a2.216,2.216,0,0,1-1.369.46c-0.76,0-1.329-.47-1.419-1.69h3.358C695.672,2001.06,695.682,2000.89,695.682,2000.71Zm-0.91-.21H692.3c0.07-1.17.529-1.66,1.229-1.66,0.829,0,1.239.57,1.239,1.6v0.06Zm3.861-2.39a1.669,1.669,0,0,0-1.9,1.45c0,0.74.45,1.23,1.589,1.53,1.02,0.27,1.28.47,1.28,0.99a0.931,0.931,0,0,1-1.13.8,2.387,2.387,0,0,1-1.479-.51l-0.49.56a2.921,2.921,0,0,0,1.989.69c1.07,0,2.079-.5,2.079-1.6,0-.92-0.64-1.36-1.749-1.64-0.85-.22-1.129-0.42-1.129-0.85a0.8,0.8,0,0,1,.969-0.69,2.426,2.426,0,0,1,1.369.45l0.39-.58A2.8,2.8,0,0,0,698.633,1998.11Zm4.67,0a1.669,1.669,0,0,0-1.9,1.45c0,0.74.45,1.23,1.589,1.53,1.02,0.27,1.28.47,1.28,0.99a0.931,0.931,0,0,1-1.13.8,2.387,2.387,0,0,1-1.479-.51l-0.49.56a2.921,2.921,0,0,0,1.989.69c1.069,0,2.079-.5,2.079-1.6,0-.92-0.64-1.36-1.749-1.64-0.85-.22-1.129-0.42-1.129-0.85a0.8,0.8,0,0,1,.969-0.69,2.428,2.428,0,0,1,1.369.45l0.39-.58A2.8,2.8,0,0,0,703.3,1998.11Zm3.691-2.41a0.625,0.625,0,1,0,.649.63A0.612,0.612,0,0,0,706.994,1995.7Zm0.469,2.53h-0.919v5.27h0.919v-5.27Zm3.88-.12c-1.5,0-2.359,1.13-2.359,2.76,0,1.67.849,2.75,2.349,2.75s2.348-1.13,2.348-2.76C713.681,1999.19,712.842,1998.11,711.343,1998.11Zm0,0.74c0.869,0,1.349.64,1.349,2.01s-0.48,2.02-1.359,2.02-1.36-.64-1.36-2.01S710.463,1998.85,711.343,1998.85Zm6.339-.74a1.911,1.911,0,0,0-1.609.9l-0.08-.78H715.2v5.27h0.919v-3.74a1.593,1.593,0,0,1,1.339-.93c0.51,0,.83.23,0.83,1.02v3.65h0.92v-3.78A1.442,1.442,0,0,0,717.682,1998.11Zm8.44,0a1.777,1.777,0,0,0-1.489.78V1996l-0.919.11v7.39h0.809l0.09-.58a1.752,1.752,0,0,0,1.4.7c1.28,0,2.069-1.11,2.069-2.76C728.081,1999.1,727.312,1998.11,726.122,1998.11Zm-0.329,4.78a1.419,1.419,0,0,1-1.16-.71v-2.52a1.5,1.5,0,0,1,1.23-.82c0.739,0,1.229.52,1.229,2.02C727.092,2002.3,726.562,2002.89,725.793,2002.89Zm7.838-2.18c0-1.61-.749-2.6-2.168-2.6-1.36,0-2.189,1.17-2.189,2.81,0,1.67.859,2.7,2.329,2.7a2.872,2.872,0,0,0,1.839-.66l-0.4-.55a2.218,2.218,0,0,1-1.369.46c-0.76,0-1.33-.47-1.42-1.69h3.359C733.621,2001.06,733.631,2000.89,733.631,2000.71Zm-0.909-.21h-2.469c0.07-1.17.53-1.66,1.23-1.66,0.829,0,1.239.57,1.239,1.6v0.06Zm4.221-3.76a2.253,2.253,0,0,1,.919.2l0.29-.67a2.9,2.9,0,0,0-1.259-.27,1.47,1.47,0,0,0-1.65,1.51v0.72H734.3v0.71h0.939v4.56h0.92v-4.56h1.179l0.1-.71h-1.279v-0.73A0.657,0.657,0,0,1,736.943,1996.74Zm3.439,1.37c-1.5,0-2.358,1.13-2.358,2.76,0,1.67.849,2.75,2.348,2.75s2.349-1.13,2.349-2.76C742.721,1999.19,741.882,1998.11,740.382,1998.11Zm0,0.74c0.87,0,1.35.64,1.35,2.01s-0.48,2.02-1.36,2.02-1.359-.64-1.359-2.01S739.5,1998.85,740.382,1998.85Zm6.15-.74a1.5,1.5,0,0,0-1.409,1.19l-0.09-1.07h-0.789v5.27h0.919v-3.01c0.22-1.01.6-1.48,1.259-1.48a1.653,1.653,0,0,1,.46.06l0.17-.9A2.242,2.242,0,0,0,746.532,1998.11Zm5.449,2.6c0-1.61-.749-2.6-2.169-2.6-1.359,0-2.188,1.17-2.188,2.81,0,1.67.859,2.7,2.328,2.7a2.868,2.868,0,0,0,1.839-.66l-0.4-.55a2.218,2.218,0,0,1-1.37.46c-0.759,0-1.329-.47-1.419-1.69h3.358C751.971,2001.06,751.981,2000.89,751.981,2000.71Zm-0.909-.21H748.6c0.07-1.17.53-1.66,1.229-1.66,0.83,0,1.24.57,1.24,1.6v0.06Zm7.37-2.39a1.5,1.5,0,0,0-1.409,1.19l-0.09-1.07h-0.79v5.27h0.92v-3.01c0.22-1.01.6-1.48,1.259-1.48a1.653,1.653,0,0,1,.46.06l0.17-.9A2.242,2.242,0,0,0,758.442,1998.11Zm5.449,2.6c0-1.61-.75-2.6-2.169-2.6-1.359,0-2.189,1.17-2.189,2.81,0,1.67.86,2.7,2.329,2.7a2.87,2.87,0,0,0,1.839-.66l-0.4-.55a2.214,2.214,0,0,1-1.369.46c-0.759,0-1.329-.47-1.419-1.69h3.358C763.881,2001.06,763.891,2000.89,763.891,2000.71Zm-0.909-.21h-2.469c0.07-1.17.53-1.66,1.229-1.66,0.83,0,1.24.57,1.24,1.6v0.06Zm4.74,2.13a1.288,1.288,0,0,1-.7.23c-0.46,0-.629-0.25-0.629-0.78v-3.14h1.149l0.1-.71h-1.249v-1.3l-0.92.11v1.19h-0.919v0.71h0.919v3.18a1.324,1.324,0,0,0,1.419,1.5,2.009,2.009,0,0,0,1.18-.36Zm3.59-4.52a1.5,1.5,0,0,0-1.409,1.19l-0.09-1.07h-0.79v5.27h0.919v-3.01c0.22-1.01.6-1.48,1.26-1.48a1.653,1.653,0,0,1,.46.06l0.169-.9A2.227,2.227,0,0,0,771.312,1998.11Zm2.021-2.41a0.625,0.625,0,1,0,.649.63A0.612,0.612,0,0,0,773.333,1995.7Zm0.469,2.53h-0.919v5.27H773.8v-5.27Zm5.879,2.48c0-1.61-.75-2.6-2.169-2.6-1.359,0-2.189,1.17-2.189,2.81,0,1.67.86,2.7,2.329,2.7a2.872,2.872,0,0,0,1.839-.66l-0.4-.55a2.218,2.218,0,0,1-1.369.46c-0.76,0-1.33-.47-1.419-1.69h3.358C779.671,2001.06,779.681,2000.89,779.681,2000.71Zm-0.91-.21H776.3c0.069-1.17.529-1.66,1.229-1.66,0.829,0,1.239.57,1.239,1.6v0.06Zm6.2-2.27H784l-1.369,4.45-1.379-4.45h-1l1.819,5.27h1.11Zm1.5-2.53a0.625,0.625,0,1,0,.65.63A0.612,0.612,0,0,0,786.472,1995.7Zm0.47,2.53h-0.919v5.27h0.919v-5.27Zm4.379-.12a1.911,1.911,0,0,0-1.609.9l-0.08-.78h-0.789v5.27h0.919v-3.74a1.593,1.593,0,0,1,1.339-.93c0.51,0,.83.23,0.83,1.02v3.65h0.919v-3.78A1.441,1.441,0,0,0,791.321,1998.11Zm7.359-.47a4.521,4.521,0,0,1-2.408.47,1.878,1.878,0,0,0-2.029,1.84,1.509,1.509,0,0,0,.889,1.46,1.146,1.146,0,0,0-.579.93,1.124,1.124,0,0,0,1.359,1h0.83c0.659,0,1.059.25,1.059,0.75,0,0.53-.4.82-1.539,0.82-1.16,0-1.429-.28-1.429-0.88H794c0,1.07.54,1.6,2.259,1.6,1.629,0,2.468-.58,2.468-1.6a1.583,1.583,0,0,0-1.8-1.46h-0.839c-0.54,0-.69-0.19-0.69-0.43a0.635,0.635,0,0,1,.26-0.49,2.132,2.132,0,0,0,.67.1,1.793,1.793,0,0,0,2.009-1.79,1.388,1.388,0,0,0-.93-1.33,5.123,5.123,0,0,0,1.539-.16Zm-2.408,1.13a1.022,1.022,0,0,1,1.129,1.17,1.048,1.048,0,0,1-1.109,1.2,1.067,1.067,0,0,1-1.11-1.19A1.055,1.055,0,0,1,796.272,1998.77Zm-137.719,11.34a1.668,1.668,0,0,0-1.9,1.45c0,0.74.449,1.23,1.589,1.53,1.019,0.27,1.279.47,1.279,0.99a0.931,0.931,0,0,1-1.129.8,2.39,2.39,0,0,1-1.48-.51l-0.489.56a2.919,2.919,0,0,0,1.989.69c1.069,0,2.079-.5,2.079-1.6,0-.92-0.64-1.36-1.75-1.64-0.849-.22-1.129-0.42-1.129-0.85a0.8,0.8,0,0,1,.97-0.69,2.43,2.43,0,0,1,1.369.45l0.39-.58A2.8,2.8,0,0,0,658.553,2010.11Zm5.549,4.52a1.288,1.288,0,0,1-.7.23c-0.459,0-.629-0.25-0.629-0.78v-3.14h1.149l0.1-.71h-1.249v-1.3l-0.92.11v1.19h-0.919v0.71h0.919v3.18a1.324,1.324,0,0,0,1.419,1.5,2.009,2.009,0,0,0,1.18-.36Zm3.18-4.52c-1.5,0-2.358,1.13-2.358,2.76,0,1.67.849,2.75,2.348,2.75s2.349-1.13,2.349-2.76C669.621,2011.19,668.781,2010.11,667.282,2010.11Zm0,0.74c0.87,0,1.349.64,1.349,2.01s-0.479,2.02-1.359,2.02-1.359-.64-1.359-2.01S666.4,2010.85,667.282,2010.85Zm6.15-.74a1.5,1.5,0,0,0-1.409,1.19l-0.09-1.07h-0.79v5.27h0.92v-3.01c0.22-1.01.6-1.48,1.259-1.48a1.653,1.653,0,0,1,.46.06l0.17-.9A2.242,2.242,0,0,0,673.432,2010.11Zm5.449,2.6c0-1.61-.75-2.6-2.169-2.6-1.359,0-2.189,1.17-2.189,2.81,0,1.67.86,2.7,2.329,2.7a2.87,2.87,0,0,0,1.839-.66l-0.4-.55a2.214,2.214,0,0,1-1.369.46c-0.759,0-1.329-.47-1.419-1.69h3.358C678.871,2013.06,678.881,2012.89,678.881,2012.71Zm-0.909-.21H675.5c0.07-1.17.53-1.66,1.229-1.66,0.83,0,1.24.57,1.24,1.6v0.06Zm5.589-4.5v2.76a1.889,1.889,0,0,0-1.419-.65c-1.289,0-2.069,1.17-2.069,2.78,0,1.64.71,2.73,1.989,2.73a1.759,1.759,0,0,0,1.519-.85l0.09,0.73h0.81v-7.39Zm-1.3,6.89c-0.76,0-1.2-.63-1.2-2.02,0-1.37.489-2.03,1.279-2.03a1.509,1.509,0,0,1,1.219.69v2.58A1.508,1.508,0,0,1,682.262,2014.89Zm9.19-4.78a1.912,1.912,0,0,0-1.559.83l-0.07-.71h-0.79v7.4l0.919-.11v-2.5a1.7,1.7,0,0,0,1.38.6c1.359,0,2.069-1.16,2.069-2.76C693.4,2011.2,692.851,2010.11,691.452,2010.11Zm-0.34,4.76a1.357,1.357,0,0,1-1.16-.64v-2.57a1.6,1.6,0,0,1,1.27-.82c0.789,0,1.189.65,1.189,2.02S691.951,2014.87,691.112,2014.87Zm7.409-.6v-2.41a1.6,1.6,0,0,0-1.849-1.75,5.154,5.154,0,0,0-1.819.36l0.23,0.67a4.712,4.712,0,0,1,1.419-.28,0.922,0.922,0,0,1,1.1,1.04v0.39h-0.81c-1.469,0-2.319.61-2.319,1.74a1.532,1.532,0,0,0,1.679,1.59,1.793,1.793,0,0,0,1.569-.79,1.062,1.062,0,0,0,1.03.79l0.21-.64A0.624,0.624,0,0,1,698.521,2014.27Zm-2.159.66a0.83,0.83,0,0,1-.909-0.95c0-.72.489-1.08,1.459-1.08h0.69v1.21A1.354,1.354,0,0,1,696.362,2014.93Zm5.48-4.82a1.669,1.669,0,0,0-1.9,1.45c0,0.74.45,1.23,1.589,1.53,1.02,0.27,1.28.47,1.28,0.99a0.931,0.931,0,0,1-1.13.8,2.387,2.387,0,0,1-1.479-.51l-0.49.56a2.921,2.921,0,0,0,1.989.69c1.07,0,2.079-.5,2.079-1.6,0-.92-0.64-1.36-1.749-1.64-0.85-.22-1.129-0.42-1.129-0.85a0.8,0.8,0,0,1,.969-0.69,2.426,2.426,0,0,1,1.369.45l0.39-.58A2.8,2.8,0,0,0,701.842,2010.11Zm4.67,0a1.669,1.669,0,0,0-1.9,1.45c0,0.74.45,1.23,1.589,1.53,1.02,0.27,1.28.47,1.28,0.99a0.931,0.931,0,0,1-1.13.8,2.387,2.387,0,0,1-1.479-.51l-0.49.56a2.921,2.921,0,0,0,1.989.69c1.069,0,2.079-.5,2.079-1.6,0-.92-0.64-1.36-1.749-1.64-0.85-.22-1.129-0.42-1.129-0.85a0.8,0.8,0,0,1,.969-0.69,2.428,2.428,0,0,1,1.369.45l0.39-.58A2.8,2.8,0,0,0,706.512,2010.11Zm9.158,0.12h-0.88l-0.959,4.63-0.99-4.63h-1.029l-1.04,4.63-0.949-4.63H708.9l1.23,5.27h1.219l0.949-4.44,0.92,4.44h1.249Zm3.032-.12c-1.5,0-2.359,1.13-2.359,2.76,0,1.67.85,2.75,2.349,2.75s2.348-1.13,2.348-2.76C721.04,2011.19,720.2,2010.11,718.7,2010.11Zm0,0.74c0.869,0,1.349.64,1.349,2.01s-0.48,2.02-1.359,2.02-1.36-.64-1.36-2.01S717.822,2010.85,718.7,2010.85Zm6.15-.74a1.5,1.5,0,0,0-1.41,1.19l-0.09-1.07h-0.789v5.27h0.919v-3.01c0.22-1.01.6-1.48,1.26-1.48a1.646,1.646,0,0,1,.459.06l0.17-.9A2.239,2.239,0,0,0,724.852,2010.11Zm4.629-2.11v2.76a1.892,1.892,0,0,0-1.419-.65c-1.289,0-2.069,1.17-2.069,2.78,0,1.64.71,2.73,1.989,2.73a1.761,1.761,0,0,0,1.519-.85l0.09,0.73H730.4v-7.39Zm-1.3,6.89c-0.76,0-1.2-.63-1.2-2.02,0-1.37.49-2.03,1.28-2.03a1.511,1.511,0,0,1,1.219.69v2.58A1.51,1.51,0,0,1,728.182,2014.89Zm5.55-4.78a1.668,1.668,0,0,0-1.9,1.45c0,0.74.45,1.23,1.589,1.53,1.019,0.27,1.279.47,1.279,0.99a0.93,0.93,0,0,1-1.129.8,2.387,2.387,0,0,1-1.479-.51l-0.49.56a2.919,2.919,0,0,0,1.989.69c1.069,0,2.079-.5,2.079-1.6,0-.92-0.64-1.36-1.749-1.64-0.85-.22-1.13-0.42-1.13-0.85a0.8,0.8,0,0,1,.97-0.69,2.428,2.428,0,0,1,1.369.45l0.39-.58A2.8,2.8,0,0,0,733.732,2010.11Zm3.48,4.12a0.7,0.7,0,1,0,.7.69A0.685,0.685,0,0,0,737.212,2014.23Z" transform="translate(-581.5 -1920.5)"/>
  <path id="_If_you_forget_your_Master_Password_and_need_to_reset_it_Firef" data-name=" If you forget your Master Password and need to reset it, Firef" class="cls-5" d="M599.259,2172.61H598.31v6.89h0.949v-6.89Zm3.74,0.13a2.247,2.247,0,0,1,.919.2l0.29-.67a2.9,2.9,0,0,0-1.259-.27,1.469,1.469,0,0,0-1.649,1.51v0.72h-0.94v0.71h0.94v4.56h0.919v-4.56h1.18l0.1-.71h-1.28v-0.73A0.657,0.657,0,0,1,603,2172.74Zm8.079,1.49h-0.95l-1.379,4.6-1.409-4.6h-0.98l1.769,5.27h0.31a1.8,1.8,0,0,1-1.669,1.41l0.1,0.72a2.678,2.678,0,0,0,2.449-2.1Zm2.881-.12c-1.5,0-2.359,1.13-2.359,2.76,0,1.67.849,2.75,2.349,2.75s2.348-1.13,2.348-2.76C616.3,2175.19,615.458,2174.11,613.959,2174.11Zm0,0.74c0.869,0,1.349.64,1.349,2.01s-0.48,2.02-1.359,2.02-1.36-.64-1.36-2.01S613.079,2174.85,613.959,2174.85Zm7.779-.62h-0.92v3.76a1.586,1.586,0,0,1-1.319.91c-0.57,0-.81-0.27-0.81-0.99v-3.68H617.77v3.78a1.408,1.408,0,0,0,1.469,1.61,1.768,1.768,0,0,0,1.639-.94l0.07,0.82h0.79v-5.27Zm6.341-1.49a2.253,2.253,0,0,1,.919.2l0.29-.67a2.9,2.9,0,0,0-1.259-.27,1.47,1.47,0,0,0-1.65,1.51v0.72H625.44v0.71h0.939v4.56h0.92v-4.56h1.179l0.1-.71H627.3v-0.73A0.657,0.657,0,0,1,628.079,2172.74Zm3.439,1.37c-1.5,0-2.358,1.13-2.358,2.76,0,1.67.849,2.75,2.348,2.75s2.349-1.13,2.349-2.76C633.857,2175.19,633.018,2174.11,631.518,2174.11Zm0,0.74c0.87,0,1.35.64,1.35,2.01s-0.48,2.02-1.36,2.02-1.359-.64-1.359-2.01S630.639,2174.85,631.518,2174.85Zm6.15-.74a1.5,1.5,0,0,0-1.409,1.19l-0.09-1.07H635.38v5.27H636.3v-3.01c0.22-1.01.6-1.48,1.259-1.48a1.653,1.653,0,0,1,.46.06l0.17-.9A2.242,2.242,0,0,0,637.668,2174.11Zm5.549-.47a4.521,4.521,0,0,1-2.408.47,1.878,1.878,0,0,0-2.029,1.84,1.508,1.508,0,0,0,.889,1.46,1.145,1.145,0,0,0-.58.93,1.125,1.125,0,0,0,1.36,1h0.829c0.66,0,1.06.25,1.06,0.75,0,0.53-.4.82-1.539,0.82-1.16,0-1.43-.28-1.43-0.88H638.54c0,1.07.539,1.6,2.259,1.6,1.629,0,2.468-.58,2.468-1.6a1.583,1.583,0,0,0-1.8-1.46h-0.839c-0.54,0-.69-0.19-0.69-0.43a0.635,0.635,0,0,1,.26-0.49,2.132,2.132,0,0,0,.67.1,1.792,1.792,0,0,0,2.008-1.79,1.387,1.387,0,0,0-.929-1.33,5.127,5.127,0,0,0,1.539-.16Zm-2.408,1.13a1.022,1.022,0,0,1,1.129,1.17,1.048,1.048,0,0,1-1.109,1.2,1.067,1.067,0,0,1-1.11-1.19A1.055,1.055,0,0,1,640.809,2174.77Zm7.508,1.94c0-1.61-.749-2.6-2.169-2.6-1.359,0-2.188,1.17-2.188,2.81,0,1.67.859,2.7,2.328,2.7a2.868,2.868,0,0,0,1.839-.66l-0.4-.55a2.214,2.214,0,0,1-1.369.46c-0.759,0-1.329-.47-1.419-1.69H648.3C648.307,2177.06,648.317,2176.89,648.317,2176.71Zm-0.909-.21h-2.469c0.07-1.17.53-1.66,1.229-1.66,0.83,0,1.24.57,1.24,1.6v0.06Zm4.74,2.13a1.288,1.288,0,0,1-.7.23c-0.459,0-.629-0.25-0.629-0.78v-3.14h1.149l0.1-.71h-1.249v-1.3l-0.92.11v1.19H648.98v0.71H649.9v3.18a1.324,1.324,0,0,0,1.419,1.5,2.009,2.009,0,0,0,1.18-.36Zm7.819-4.4h-0.949l-1.38,4.6-1.409-4.6H655.25l1.769,5.27h0.309a1.793,1.793,0,0,1-1.669,1.41l0.1,0.72a2.677,2.677,0,0,0,2.449-2.1Zm2.881-.12c-1.5,0-2.359,1.13-2.359,2.76,0,1.67.85,2.75,2.349,2.75s2.349-1.13,2.349-2.76C665.187,2175.19,664.347,2174.11,662.848,2174.11Zm0,0.74c0.869,0,1.349.64,1.349,2.01s-0.48,2.02-1.359,2.02-1.359-.64-1.359-2.01S661.968,2174.85,662.848,2174.85Zm7.779-.62h-0.92v3.76a1.585,1.585,0,0,1-1.319.91c-0.57,0-.809-0.27-0.809-0.99v-3.68h-0.92v3.78a1.409,1.409,0,0,0,1.469,1.61,1.767,1.767,0,0,0,1.639-.94l0.07,0.82h0.79v-5.27Zm4.191-.12a1.5,1.5,0,0,0-1.41,1.19l-0.09-1.07h-0.789v5.27h0.919v-3.01c0.22-1.01.6-1.48,1.26-1.48a1.646,1.646,0,0,1,.459.06l0.17-.9A2.233,2.233,0,0,0,674.818,2174.11Zm9.858-1.5h-1.29l-1.379,5.01-1.449-5.01h-1.279l-0.57,6.89h0.9l0.23-3.04c0.08-1.01.13-2.08,0.13-2.89l1.569,5.15h0.89l1.489-5.14c0.01,0.57.08,1.73,0.17,2.81l0.24,3.11h0.919Zm5.871,5.66v-2.41a1.6,1.6,0,0,0-1.849-1.75,5.15,5.15,0,0,0-1.819.36l0.23,0.67a4.706,4.706,0,0,1,1.419-.28,0.922,0.922,0,0,1,1.1,1.04v0.39h-0.809c-1.47,0-2.319.61-2.319,1.74a1.532,1.532,0,0,0,1.679,1.59,1.794,1.794,0,0,0,1.569-.79,1.062,1.062,0,0,0,1.03.79l0.209-.64A0.625,0.625,0,0,1,690.547,2178.27Zm-2.159.66a0.831,0.831,0,0,1-.91-0.95c0-.72.49-1.08,1.46-1.08h0.689v1.21A1.353,1.353,0,0,1,688.388,2178.93Zm5.48-4.82a1.668,1.668,0,0,0-1.9,1.45c0,0.74.45,1.23,1.589,1.53,1.019,0.27,1.279.47,1.279,0.99a0.931,0.931,0,0,1-1.129.8,2.385,2.385,0,0,1-1.479-.51l-0.49.56a2.919,2.919,0,0,0,1.989.69c1.069,0,2.079-.5,2.079-1.6,0-.92-0.64-1.36-1.749-1.64-0.85-.22-1.13-0.42-1.13-0.85a0.8,0.8,0,0,1,.97-0.69,2.428,2.428,0,0,1,1.369.45l0.39-.58A2.8,2.8,0,0,0,693.868,2174.11Zm5.549,4.52a1.287,1.287,0,0,1-.7.23c-0.46,0-.63-0.25-0.63-0.78v-3.14h1.149l0.1-.71h-1.249v-1.3l-0.92.11v1.19h-0.919v0.71h0.919v3.18a1.324,1.324,0,0,0,1.42,1.5,2.008,2.008,0,0,0,1.179-.36Zm5.179-1.92c0-1.61-.749-2.6-2.169-2.6-1.359,0-2.188,1.17-2.188,2.81,0,1.67.859,2.7,2.328,2.7a2.868,2.868,0,0,0,1.839-.66l-0.4-.55a2.218,2.218,0,0,1-1.37.46c-0.759,0-1.329-.47-1.419-1.69h3.358C704.586,2177.06,704.6,2176.89,704.6,2176.71Zm-0.909-.21h-2.469c0.07-1.17.53-1.66,1.229-1.66,0.83,0,1.24.57,1.24,1.6v0.06Zm4.72-2.39A1.5,1.5,0,0,0,707,2175.3l-0.09-1.07h-0.79v5.27h0.92v-3.01c0.22-1.01.6-1.48,1.259-1.48a1.653,1.653,0,0,1,.46.06l0.17-.9A2.242,2.242,0,0,0,708.407,2174.11Zm6.08-1.5h-1.809v6.89h0.95v-2.53H714.5c1.519,0,2.669-.65,2.669-2.23C717.166,2173.29,716.146,2172.61,714.487,2172.61Zm-0.03,3.61h-0.829v-2.87h0.849c1.02,0,1.679.37,1.679,1.4C716.156,2175.92,715.477,2176.22,714.457,2176.22Zm7.229,2.05v-2.41a1.6,1.6,0,0,0-1.849-1.75,5.159,5.159,0,0,0-1.819.36l0.23,0.67a4.718,4.718,0,0,1,1.419-.28,0.922,0.922,0,0,1,1.1,1.04v0.39h-0.81c-1.469,0-2.319.61-2.319,1.74a1.532,1.532,0,0,0,1.679,1.59,1.8,1.8,0,0,0,1.57-.79,1.061,1.061,0,0,0,1.029.79l0.21-.64A0.624,0.624,0,0,1,721.686,2178.27Zm-2.159.66a0.83,0.83,0,0,1-.909-0.95c0-.72.49-1.08,1.459-1.08h0.69v1.21A1.354,1.354,0,0,1,719.527,2178.93Zm5.48-4.82a1.669,1.669,0,0,0-1.9,1.45c0,0.74.45,1.23,1.589,1.53,1.02,0.27,1.28.47,1.28,0.99a0.931,0.931,0,0,1-1.13.8,2.389,2.389,0,0,1-1.479-.51l-0.49.56a2.921,2.921,0,0,0,1.989.69c1.07,0,2.079-.5,2.079-1.6,0-.92-0.639-1.36-1.749-1.64-0.849-.22-1.129-0.42-1.129-0.85a0.8,0.8,0,0,1,.969-0.69,2.426,2.426,0,0,1,1.369.45l0.39-.58A2.794,2.794,0,0,0,725.007,2174.11Zm4.67,0a1.669,1.669,0,0,0-1.9,1.45c0,0.74.45,1.23,1.589,1.53,1.02,0.27,1.28.47,1.28,0.99a0.931,0.931,0,0,1-1.13.8,2.389,2.389,0,0,1-1.479-.51l-0.49.56a2.921,2.921,0,0,0,1.989.69c1.07,0,2.079-.5,2.079-1.6,0-.92-0.639-1.36-1.749-1.64-0.849-.22-1.129-0.42-1.129-0.85a0.8,0.8,0,0,1,.969-0.69,2.426,2.426,0,0,1,1.369.45l0.39-.58A2.794,2.794,0,0,0,729.677,2174.11Zm9.158,0.12h-0.88L737,2178.86l-0.99-4.63h-1.029l-1.04,4.63-0.949-4.63h-0.92l1.23,5.27h1.219l0.95-4.44,0.919,4.44h1.249Zm3.032-.12c-1.5,0-2.359,1.13-2.359,2.76,0,1.67.85,2.75,2.349,2.75s2.349-1.13,2.349-2.76C744.206,2175.19,743.366,2174.11,741.867,2174.11Zm0,0.74c0.869,0,1.349.64,1.349,2.01s-0.48,2.02-1.359,2.02-1.359-.64-1.359-2.01S740.987,2174.85,741.867,2174.85Zm6.15-.74a1.5,1.5,0,0,0-1.409,1.19l-0.09-1.07h-0.79v5.27h0.92v-3.01c0.219-1.01.6-1.48,1.259-1.48a1.653,1.653,0,0,1,.46.06l0.169-.9A2.227,2.227,0,0,0,748.017,2174.11Zm4.629-2.11v2.76a1.89,1.89,0,0,0-1.419-.65c-1.289,0-2.069,1.17-2.069,2.78,0,1.64.71,2.73,1.989,2.73a1.76,1.76,0,0,0,1.519-.85l0.09,0.73h0.81v-7.39Zm-1.3,6.89c-0.76,0-1.2-.63-1.2-2.02,0-1.37.489-2.03,1.279-2.03a1.51,1.51,0,0,1,1.219.69v2.58A1.509,1.509,0,0,1,751.347,2178.89Zm10.319-.62v-2.41a1.6,1.6,0,0,0-1.849-1.75,5.154,5.154,0,0,0-1.819.36l0.23,0.67a4.712,4.712,0,0,1,1.419-.28,0.922,0.922,0,0,1,1.1,1.04v0.39h-0.809c-1.469,0-2.319.61-2.319,1.74a1.532,1.532,0,0,0,1.679,1.59,1.793,1.793,0,0,0,1.569-.79,1.062,1.062,0,0,0,1.03.79l0.21-.64A0.624,0.624,0,0,1,761.666,2178.27Zm-2.159.66a0.83,0.83,0,0,1-.909-0.95c0-.72.489-1.08,1.459-1.08h0.689v1.21A1.352,1.352,0,0,1,759.507,2178.93Zm6.529-4.82a1.911,1.911,0,0,0-1.609.9l-0.08-.78h-0.789v5.27h0.919v-3.74a1.594,1.594,0,0,1,1.34-.93c0.509,0,.829.23,0.829,1.02v3.65h0.92v-3.78A1.442,1.442,0,0,0,766.036,2174.11Zm6.54-2.11v2.76a1.892,1.892,0,0,0-1.419-.65c-1.29,0-2.069,1.17-2.069,2.78,0,1.64.71,2.73,1.989,2.73a1.76,1.76,0,0,0,1.519-.85l0.09,0.73h0.81v-7.39Zm-1.3,6.89c-0.76,0-1.2-.63-1.2-2.02,0-1.37.49-2.03,1.28-2.03a1.511,1.511,0,0,1,1.219.69v2.58A1.51,1.51,0,0,1,771.277,2178.89Zm9.249-4.78a1.911,1.911,0,0,0-1.609.9l-0.08-.78h-0.789v5.27h0.919v-3.74a1.593,1.593,0,0,1,1.339-.93c0.51,0,.83.23,0.83,1.02v3.65h0.919v-3.78A1.441,1.441,0,0,0,780.526,2174.11Zm7.359,2.6c0-1.61-.749-2.6-2.168-2.6-1.36,0-2.189,1.17-2.189,2.81,0,1.67.859,2.7,2.329,2.7a2.872,2.872,0,0,0,1.839-.66l-0.4-.55a2.218,2.218,0,0,1-1.369.46c-0.76,0-1.33-.47-1.42-1.69h3.358C787.875,2177.06,787.885,2176.89,787.885,2176.71Zm-0.909-.21h-2.469c0.07-1.17.53-1.66,1.23-1.66,0.829,0,1.239.57,1.239,1.6v0.06Zm6.409,0.21c0-1.61-.749-2.6-2.168-2.6-1.36,0-2.189,1.17-2.189,2.81,0,1.67.859,2.7,2.328,2.7a2.868,2.868,0,0,0,1.839-.66l-0.4-.55a2.218,2.218,0,0,1-1.37.46c-0.759,0-1.329-.47-1.419-1.69h3.358C793.375,2177.06,793.385,2176.89,793.385,2176.71Zm-0.909-.21h-2.469c0.07-1.17.53-1.66,1.23-1.66,0.829,0,1.239.57,1.239,1.6v0.06Zm5.59-4.5v2.76a1.892,1.892,0,0,0-1.42-.65c-1.289,0-2.068,1.17-2.068,2.78,0,1.64.709,2.73,1.989,2.73a1.761,1.761,0,0,0,1.519-.85l0.09,0.73h0.809v-7.39Zm-1.3,6.89c-0.759,0-1.2-.63-1.2-2.02,0-1.37.49-2.03,1.279-2.03a1.512,1.512,0,0,1,1.22.69v2.58A1.511,1.511,0,0,1,796.766,2178.89Zm-197.882,11.74a1.288,1.288,0,0,1-.7.23c-0.459,0-.629-0.25-0.629-0.78v-3.14H598.7l0.1-.71h-1.249v-1.3l-0.92.11v1.19h-0.919v0.71h0.919v3.18a1.324,1.324,0,0,0,1.419,1.5,2.009,2.009,0,0,0,1.18-.36Zm3.18-4.52c-1.5,0-2.359,1.13-2.359,2.76,0,1.67.85,2.75,2.349,2.75s2.349-1.13,2.349-2.76C604.4,2187.19,603.563,2186.11,602.064,2186.11Zm0,0.74c0.87,0,1.349.64,1.349,2.01s-0.479,2.02-1.359,2.02-1.359-.64-1.359-2.01S601.185,2186.85,602.064,2186.85Zm8.8-.74a1.5,1.5,0,0,0-1.409,1.19l-0.09-1.07h-0.79v5.27h0.92v-3.01c0.22-1.01.6-1.48,1.259-1.48a1.653,1.653,0,0,1,.46.06l0.17-.9A2.242,2.242,0,0,0,610.864,2186.11Zm5.449,2.6c0-1.61-.75-2.6-2.169-2.6-1.359,0-2.189,1.17-2.189,2.81,0,1.67.86,2.7,2.329,2.7a2.87,2.87,0,0,0,1.839-.66l-0.4-.55a2.214,2.214,0,0,1-1.369.46c-0.76,0-1.329-.47-1.419-1.69h3.358C616.3,2189.06,616.313,2188.89,616.313,2188.71Zm-0.91-.21h-2.468c0.07-1.17.53-1.66,1.229-1.66,0.83,0,1.239.57,1.239,1.6v0.06Zm3.861-2.39a1.669,1.669,0,0,0-1.9,1.45c0,0.74.45,1.23,1.589,1.53,1.02,0.27,1.28.47,1.28,0.99a0.931,0.931,0,0,1-1.13.8,2.389,2.389,0,0,1-1.479-.51l-0.49.56a2.921,2.921,0,0,0,1.989.69c1.07,0,2.079-.5,2.079-1.6,0-.92-0.639-1.36-1.749-1.64-0.849-.22-1.129-0.42-1.129-0.85a0.8,0.8,0,0,1,.969-0.69,2.431,2.431,0,0,1,1.37.45l0.389-.58A2.794,2.794,0,0,0,619.264,2186.11Zm7.219,2.6c0-1.61-.75-2.6-2.169-2.6-1.359,0-2.189,1.17-2.189,2.81,0,1.67.86,2.7,2.329,2.7a2.872,2.872,0,0,0,1.839-.66l-0.4-.55a2.216,2.216,0,0,1-1.369.46c-0.76,0-1.329-.47-1.419-1.69h3.358C626.473,2189.06,626.483,2188.89,626.483,2188.71Zm-0.91-.21h-2.468c0.07-1.17.529-1.66,1.229-1.66,0.83,0,1.239.57,1.239,1.6v0.06Zm4.741,2.13a1.288,1.288,0,0,1-.7.23c-0.46,0-.63-0.25-0.63-0.78v-3.14h1.15l0.1-.71h-1.25v-1.3l-0.919.11v1.19h-0.92v0.71h0.92v3.18a1.324,1.324,0,0,0,1.419,1.5,2,2,0,0,0,1.179-.36Zm4.4-6.93a0.625,0.625,0,1,0,.649.63A0.612,0.612,0,0,0,634.715,2183.7Zm0.469,2.53h-0.919v5.27h0.919v-5.27Zm4.209,4.4a1.282,1.282,0,0,1-.7.23c-0.46,0-.63-0.25-0.63-0.78v-3.14h1.15l0.1-.71h-1.25v-1.3l-0.919.11v1.19h-0.92v0.71h0.92v3.18a1.323,1.323,0,0,0,1.419,1.5,2.006,2.006,0,0,0,1.179-.36Zm1.542-.4a0.685,0.685,0,0,0-.69.69,0.725,0.725,0,0,0,.28.58l-0.4,1.66h0.66l0.669-1.53a1.647,1.647,0,0,0,.18-0.71A0.687,0.687,0,0,0,640.935,2190.23Zm8.518-5.62h-3.658v6.89h0.949v-3.03h2.249v-0.75h-2.249v-2.35h2.6Zm1.951-.91a0.625,0.625,0,1,0,.65.63A0.612,0.612,0,0,0,651.4,2183.7Zm0.47,2.53h-0.919v5.27h0.919v-5.27Zm4.189-.12a1.5,1.5,0,0,0-1.409,1.19l-0.09-1.07h-0.79v5.27h0.92v-3.01c0.22-1.01.6-1.48,1.259-1.48a1.653,1.653,0,0,1,.46.06l0.17-.9A2.242,2.242,0,0,0,656.063,2186.11Zm5.449,2.6c0-1.61-.749-2.6-2.169-2.6-1.359,0-2.188,1.17-2.188,2.81,0,1.67.859,2.7,2.328,2.7a2.868,2.868,0,0,0,1.839-.66l-0.4-.55a2.218,2.218,0,0,1-1.37.46c-0.759,0-1.329-.47-1.419-1.69h3.358C661.5,2189.06,661.512,2188.89,661.512,2188.71Zm-0.909-.21h-2.469c0.07-1.17.53-1.66,1.229-1.66,0.83,0,1.24.57,1.24,1.6v0.06Zm4.22-3.76a2.254,2.254,0,0,1,.92.2l0.29-.67a2.906,2.906,0,0,0-1.26-.27,1.469,1.469,0,0,0-1.649,1.51v0.72h-0.939v0.71h0.939v4.56h0.92v-4.56h1.179l0.1-.71h-1.279v-0.73A0.657,0.657,0,0,1,664.823,2184.74Zm3.44,1.37c-1.5,0-2.358,1.13-2.358,2.76,0,1.67.849,2.75,2.348,2.75s2.349-1.13,2.349-2.76C670.6,2187.19,669.762,2186.11,668.263,2186.11Zm0,0.74c0.87,0,1.349.64,1.349,2.01s-0.479,2.02-1.359,2.02-1.359-.64-1.359-2.01S667.384,2186.85,668.263,2186.85Zm5.68,1.83,1.619-2.45h-1.039l-1.109,1.93-1.1-1.93h-1.079l1.629,2.49-1.839,2.78h1.039l1.31-2.23,1.289,2.23h1.109Zm11.5-2.45h-0.88l-0.959,4.63-0.99-4.63h-1.029l-1.039,4.63-0.95-4.63h-0.919l1.229,5.27h1.219l0.95-4.44,0.919,4.44h1.25Zm1.6-2.53a0.625,0.625,0,1,0,.65.63A0.612,0.612,0,0,0,687.044,2183.7Zm0.47,2.53h-0.92v5.27h0.92v-5.27Zm2.95,5.39a1.545,1.545,0,0,0,.729-0.18l-0.24-.64a0.9,0.9,0,0,1-.34.06c-0.239,0-.329-0.14-0.329-0.42V2184l-0.92.11v6.35A1.037,1.037,0,0,0,690.464,2191.62Zm2.93,0a1.545,1.545,0,0,0,.729-0.18l-0.24-.64a0.9,0.9,0,0,1-.339.06c-0.24,0-.33-0.14-0.33-0.42V2184l-0.92.11v6.35A1.037,1.037,0,0,0,693.394,2191.62Zm7.688-7.62v2.76a1.889,1.889,0,0,0-1.419-.65c-1.289,0-2.069,1.17-2.069,2.78,0,1.64.71,2.73,1.989,2.73a1.759,1.759,0,0,0,1.519-.85l0.09,0.73H702v-7.39Zm-1.3,6.89c-0.759,0-1.2-.63-1.2-2.02,0-1.37.49-2.03,1.279-2.03a1.509,1.509,0,0,1,1.219.69v2.58A1.508,1.508,0,0,1,699.783,2190.89Zm8.1-2.18c0-1.61-.75-2.6-2.169-2.6-1.359,0-2.189,1.17-2.189,2.81,0,1.67.86,2.7,2.329,2.7a2.87,2.87,0,0,0,1.839-.66l-0.4-.55a2.216,2.216,0,0,1-1.369.46c-0.76,0-1.329-.47-1.419-1.69h3.358C707.872,2189.06,707.882,2188.89,707.882,2188.71Zm-0.91-.21H704.5c0.07-1.17.529-1.66,1.229-1.66,0.83,0,1.239.57,1.239,1.6v0.06Zm3.481,3.12a1.546,1.546,0,0,0,.73-0.18l-0.24-.64a0.9,0.9,0,0,1-.34.06c-0.24,0-.33-0.14-0.33-0.42V2184l-0.919.11v6.35A1.037,1.037,0,0,0,710.453,2191.62Zm5.759-2.91c0-1.61-.75-2.6-2.169-2.6-1.359,0-2.189,1.17-2.189,2.81,0,1.67.86,2.7,2.329,2.7a2.87,2.87,0,0,0,1.839-.66l-0.4-.55a2.216,2.216,0,0,1-1.369.46c-0.76,0-1.329-.47-1.419-1.69h3.358C716.2,2189.06,716.212,2188.89,716.212,2188.71Zm-0.91-.21h-2.468c0.07-1.17.529-1.66,1.229-1.66,0.83,0,1.239.57,1.239,1.6v0.06Zm4.741,2.13a1.288,1.288,0,0,1-.7.23c-0.46,0-.63-0.25-0.63-0.78v-3.14h1.15l0.1-.71h-1.25v-1.3l-0.919.11v1.19h-0.92v0.71h0.92v3.18a1.324,1.324,0,0,0,1.419,1.5,2,2,0,0,0,1.179-.36Zm5.179-1.92c0-1.61-.75-2.6-2.169-2.6-1.359,0-2.189,1.17-2.189,2.81,0,1.67.86,2.7,2.329,2.7a2.872,2.872,0,0,0,1.839-.66l-0.4-.55a2.218,2.218,0,0,1-1.369.46c-0.76,0-1.33-.47-1.419-1.69H725.2C725.212,2189.06,725.222,2188.89,725.222,2188.71Zm-0.91-.21h-2.468c0.07-1.17.529-1.66,1.229-1.66,0.829,0,1.239.57,1.239,1.6v0.06Zm8.63,1.77v-2.41a1.6,1.6,0,0,0-1.849-1.75,5.15,5.15,0,0,0-1.819.36l0.23,0.67a4.706,4.706,0,0,1,1.419-.28,0.922,0.922,0,0,1,1.1,1.04v0.39h-0.809c-1.469,0-2.319.61-2.319,1.74a1.532,1.532,0,0,0,1.679,1.59,1.794,1.794,0,0,0,1.569-.79,1.062,1.062,0,0,0,1.03.79l0.21-.64A0.624,0.624,0,0,1,732.942,2190.27Zm-2.159.66a0.831,0.831,0,0,1-.91-0.95c0-.72.49-1.08,1.46-1.08h0.689v1.21A1.353,1.353,0,0,1,730.783,2190.93Zm5.1,0.69a1.546,1.546,0,0,0,.73-0.18l-0.24-.64a0.9,0.9,0,0,1-.34.06c-0.24,0-.33-0.14-0.33-0.42V2184l-0.919.11v6.35A1.036,1.036,0,0,0,735.883,2191.62Zm2.93,0a1.546,1.546,0,0,0,.73-0.18l-0.24-.64a0.9,0.9,0,0,1-.34.06c-0.24,0-.33-0.14-0.33-0.42V2184l-0.919.11v6.35A1.036,1.036,0,0,0,738.813,2191.62Zm6.509-5.51c-1.5,0-2.358,1.13-2.358,2.76,0,1.67.849,2.75,2.349,2.75s2.348-1.13,2.348-2.76C747.661,2187.19,746.822,2186.11,745.322,2186.11Zm0,0.74c0.87,0,1.35.64,1.35,2.01s-0.48,2.02-1.359,2.02-1.36-.64-1.36-2.01S744.443,2186.85,745.322,2186.85Zm6.17,3.78a1.285,1.285,0,0,1-.7.23c-0.46,0-.63-0.25-0.63-0.78v-3.14h1.149l0.1-.71h-1.249v-1.3l-0.919.11v1.19h-0.92v0.71h0.92v3.18a1.323,1.323,0,0,0,1.419,1.5,2.006,2.006,0,0,0,1.179-.36Zm3.78-4.52a1.892,1.892,0,0,0-1.559.85v-2.94l-0.919.1v7.38h0.919v-3.75a1.613,1.613,0,0,1,1.329-.92c0.5,0,.84.23,0.84,1.02v3.65H756.8v-3.78A1.451,1.451,0,0,0,755.272,2186.11Zm7.359,2.6c0-1.61-.749-2.6-2.169-2.6-1.359,0-2.188,1.17-2.188,2.81,0,1.67.859,2.7,2.328,2.7a2.868,2.868,0,0,0,1.839-.66l-0.4-.55a2.218,2.218,0,0,1-1.37.46c-0.759,0-1.329-.47-1.419-1.69h3.358C762.621,2189.06,762.631,2188.89,762.631,2188.71Zm-0.909-.21h-2.469c0.07-1.17.53-1.66,1.23-1.66,0.829,0,1.239.57,1.239,1.6v0.06Zm4.72-2.39a1.5,1.5,0,0,0-1.409,1.19l-0.09-1.07h-0.79v5.27h0.92v-3.01c0.22-1.01.6-1.48,1.259-1.48a1.653,1.653,0,0,1,.46.06l0.17-.9A2.242,2.242,0,0,0,766.442,2186.11Zm5.65,0a1.668,1.668,0,0,0-1.9,1.45c0,0.74.449,1.23,1.589,1.53,1.019,0.27,1.279.47,1.279,0.99a0.931,0.931,0,0,1-1.129.8,2.39,2.39,0,0,1-1.48-.51l-0.489.56a2.917,2.917,0,0,0,1.989.69c1.069,0,2.078-.5,2.078-1.6,0-.92-0.639-1.36-1.749-1.64-0.849-.22-1.129-0.42-1.129-0.85a0.8,0.8,0,0,1,.969-0.69,2.431,2.431,0,0,1,1.37.45l0.389-.58A2.794,2.794,0,0,0,772.092,2186.11Zm5.55,4.52a1.288,1.288,0,0,1-.7.23c-0.459,0-.629-0.25-0.629-0.78v-3.14h1.149l0.1-.71h-1.249v-1.3l-0.92.11v1.19h-0.919v0.71h0.919v3.18a1.324,1.324,0,0,0,1.419,1.5,2.009,2.009,0,0,0,1.18-.36Zm3.18-4.52c-1.5,0-2.359,1.13-2.359,2.76,0,1.67.85,2.75,2.349,2.75s2.349-1.13,2.349-2.76C783.161,2187.19,782.321,2186.11,780.822,2186.11Zm0,0.74c0.87,0,1.349.64,1.349,2.01s-0.479,2.02-1.359,2.02-1.359-.64-1.359-2.01S779.943,2186.85,780.822,2186.85Zm6.15-.74a1.5,1.5,0,0,0-1.409,1.19l-0.09-1.07h-0.79v5.27h0.92v-3.01c0.22-1.01.6-1.48,1.259-1.48a1.653,1.653,0,0,1,.46.06l0.17-.9A2.242,2.242,0,0,0,786.972,2186.11Zm5.449,2.6c0-1.61-.75-2.6-2.169-2.6-1.359,0-2.189,1.17-2.189,2.81,0,1.67.86,2.7,2.329,2.7a2.87,2.87,0,0,0,1.839-.66l-0.4-.55a2.216,2.216,0,0,1-1.369.46c-0.76,0-1.329-.47-1.419-1.69H792.4C792.411,2189.06,792.421,2188.89,792.421,2188.71Zm-0.91-.21h-2.468c0.07-1.17.53-1.66,1.229-1.66,0.83,0,1.239.57,1.239,1.6v0.06Zm5.59-4.5v2.76a1.89,1.89,0,0,0-1.419-.65c-1.289,0-2.069,1.17-2.069,2.78,0,1.64.71,2.73,1.989,2.73a1.76,1.76,0,0,0,1.519-.85l0.09,0.73h0.81v-7.39Zm-1.3,6.89c-0.76,0-1.2-.63-1.2-2.02,0-1.37.489-2.03,1.279-2.03a1.51,1.51,0,0,1,1.219.69v2.58A1.509,1.509,0,0,1,795.8,2190.89Zm-146.18,7.22a1.914,1.914,0,0,0-1.559.83l-0.07-.71H647.2v7.4l0.92-.11v-2.5a1.7,1.7,0,0,0,1.379.6c1.359,0,2.069-1.16,2.069-2.76C651.571,2199.2,651.021,2198.11,649.622,2198.11Zm-0.34,4.76a1.355,1.355,0,0,1-1.159-.64v-2.57a1.6,1.6,0,0,1,1.269-.82c0.79,0,1.189.65,1.189,2.02S650.122,2202.87,649.282,2202.87Zm7.409-.6v-2.41a1.6,1.6,0,0,0-1.849-1.75,5.159,5.159,0,0,0-1.819.36l0.23,0.67a4.718,4.718,0,0,1,1.419-.28,0.922,0.922,0,0,1,1.1,1.04v0.39h-0.81c-1.469,0-2.319.61-2.319,1.74a1.532,1.532,0,0,0,1.679,1.59,1.8,1.8,0,0,0,1.57-.79,1.061,1.061,0,0,0,1.029.79l0.21-.64A0.624,0.624,0,0,1,656.691,2202.27Zm-2.159.66a0.83,0.83,0,0,1-.909-0.95c0-.72.49-1.08,1.459-1.08h0.69v1.21A1.354,1.354,0,0,1,654.532,2202.93Zm5.48-4.82a1.669,1.669,0,0,0-1.9,1.45c0,0.74.45,1.23,1.589,1.53,1.02,0.27,1.28.47,1.28,0.99a0.931,0.931,0,0,1-1.13.8,2.389,2.389,0,0,1-1.479-.51l-0.49.56a2.921,2.921,0,0,0,1.989.69c1.07,0,2.079-.5,2.079-1.6,0-.92-0.639-1.36-1.749-1.64-0.849-.22-1.129-0.42-1.129-0.85a0.8,0.8,0,0,1,.969-0.69,2.426,2.426,0,0,1,1.369.45l0.39-.58A2.794,2.794,0,0,0,660.012,2198.11Zm4.67,0a1.669,1.669,0,0,0-1.9,1.45c0,0.74.45,1.23,1.589,1.53,1.02,0.27,1.28.47,1.28,0.99a0.931,0.931,0,0,1-1.13.8,2.389,2.389,0,0,1-1.479-.51l-0.49.56a2.921,2.921,0,0,0,1.989.69c1.07,0,2.079-.5,2.079-1.6,0-.92-0.639-1.36-1.749-1.64-0.849-.22-1.129-0.42-1.129-0.85a0.8,0.8,0,0,1,.969-0.69,2.426,2.426,0,0,1,1.369.45l0.39-.58A2.8,2.8,0,0,0,664.682,2198.11Zm9.158,0.12h-0.88L672,2202.86l-0.99-4.63h-1.029l-1.04,4.63-0.949-4.63h-0.92l1.23,5.27h1.219l0.95-4.44,0.919,4.44h1.249Zm3.032-.12c-1.5,0-2.359,1.13-2.359,2.76,0,1.67.85,2.75,2.349,2.75s2.349-1.13,2.349-2.76C679.211,2199.19,678.371,2198.11,676.872,2198.11Zm0,0.74c0.869,0,1.349.64,1.349,2.01s-0.48,2.02-1.359,2.02-1.359-.64-1.359-2.01S675.992,2198.85,676.872,2198.85Zm6.15-.74a1.5,1.5,0,0,0-1.409,1.19l-0.09-1.07h-0.79v5.27h0.919v-3.01c0.22-1.01.6-1.48,1.26-1.48a1.653,1.653,0,0,1,.46.06l0.169-.9A2.227,2.227,0,0,0,683.022,2198.11Zm4.629-2.11v2.76a1.89,1.89,0,0,0-1.419-.65c-1.289,0-2.069,1.17-2.069,2.78,0,1.64.71,2.73,1.989,2.73a1.76,1.76,0,0,0,1.519-.85l0.09,0.73h0.81v-7.39Zm-1.3,6.89c-0.76,0-1.2-.63-1.2-2.02,0-1.37.489-2.03,1.279-2.03a1.51,1.51,0,0,1,1.219.69v2.58A1.509,1.509,0,0,1,686.352,2202.89Zm7.221-7.19a0.625,0.625,0,1,0,.649.63A0.612,0.612,0,0,0,693.573,2195.7Zm0.469,2.53h-0.919v5.27h0.919v-5.27Zm4.379-.12a1.911,1.911,0,0,0-1.609.9l-0.08-.78h-0.789v5.27h0.919v-3.74a1.594,1.594,0,0,1,1.34-.93c0.509,0,.829.23,0.829,1.02v3.65h0.92v-3.78A1.442,1.442,0,0,0,698.421,2198.11Zm5.171-1.37a2.247,2.247,0,0,1,.919.2l0.29-.67a2.9,2.9,0,0,0-1.259-.27,1.469,1.469,0,0,0-1.649,1.51v0.72h-0.94v0.71h0.94v4.56h0.919v-4.56h1.18l0.1-.71h-1.28v-0.73A0.657,0.657,0,0,1,703.592,2196.74Zm3.44,1.37c-1.5,0-2.359,1.13-2.359,2.76,0,1.67.85,2.75,2.349,2.75s2.348-1.13,2.348-2.76C709.37,2199.19,708.531,2198.11,707.032,2198.11Zm0,0.74c0.869,0,1.349.64,1.349,2.01s-0.48,2.02-1.359,2.02-1.36-.64-1.36-2.01S706.152,2198.85,707.032,2198.85Zm6.149-.74a1.5,1.5,0,0,0-1.409,1.19l-0.09-1.07h-0.789v5.27h0.919v-3.01c0.22-1.01.6-1.48,1.26-1.48a1.646,1.646,0,0,1,.459.06l0.17-.9A2.242,2.242,0,0,0,713.181,2198.11Zm6.859,0a1.825,1.825,0,0,0-1.569.95,1.328,1.328,0,0,0-1.33-.95,1.761,1.761,0,0,0-1.519.89l-0.08-.77h-0.789v5.27h0.919v-3.74a1.482,1.482,0,0,1,1.239-.93c0.4,0,.74.23,0.74,1.02v3.65h0.92v-3.74a1.492,1.492,0,0,1,1.239-.93c0.4,0,.739.23,0.739,1.02v3.65h0.92v-3.78A1.43,1.43,0,0,0,720.04,2198.11Zm6.831,4.16v-2.41a1.6,1.6,0,0,0-1.849-1.75,5.15,5.15,0,0,0-1.819.36l0.23,0.67a4.706,4.706,0,0,1,1.419-.28,0.922,0.922,0,0,1,1.1,1.04v0.39h-0.809c-1.47,0-2.319.61-2.319,1.74a1.531,1.531,0,0,0,1.679,1.59,1.794,1.794,0,0,0,1.569-.79,1.062,1.062,0,0,0,1.03.79l0.209-.64A0.625,0.625,0,0,1,726.871,2202.27Zm-2.159.66a0.831,0.831,0,0,1-.91-0.95c0-.72.49-1.08,1.46-1.08h0.689v1.21A1.353,1.353,0,0,1,724.712,2202.93Zm6.359-.3a1.287,1.287,0,0,1-.7.23c-0.46,0-.63-0.25-0.63-0.78v-3.14h1.149l0.1-.71h-1.249v-1.3l-0.92.11v1.19H727.9v0.71h0.919v3.18a1.324,1.324,0,0,0,1.42,1.5,2.008,2.008,0,0,0,1.179-.36Zm1.751-6.93a0.625,0.625,0,1,0,.65.63A0.611,0.611,0,0,0,732.822,2195.7Zm0.47,2.53h-0.92v5.27h0.92v-5.27Zm3.879-.12c-1.5,0-2.358,1.13-2.358,2.76,0,1.67.849,2.75,2.348,2.75s2.349-1.13,2.349-2.76C739.51,2199.19,738.671,2198.11,737.171,2198.11Zm0,0.74c0.87,0,1.35.64,1.35,2.01s-0.48,2.02-1.36,2.02-1.359-.64-1.359-2.01S736.292,2198.85,737.171,2198.85Zm6.34-.74a1.91,1.91,0,0,0-1.609.9l-0.08-.78h-0.79v5.27h0.92v-3.74a1.592,1.592,0,0,1,1.339-.93c0.51,0,.83.23,0.83,1.02v3.65h0.919v-3.78A1.442,1.442,0,0,0,743.511,2198.11Zm3.621,4.12a0.7,0.7,0,1,0,.7.69A0.684,0.684,0,0,0,747.132,2202.23Z" transform="translate(-581.5 -1920.5)"/>
  <path id="Change_Mater_Password" data-name="Change Mater Password" class="cls-5" d="M629.884,1934.68c-2.354,0-4.2,1.78-4.2,5.03,0,3.29,1.751,5.07,4.259,5.07a4.042,4.042,0,0,0,2.913-1.18l-0.868-1.12a3.162,3.162,0,0,1-1.961.82c-1.387,0-2.395-1.04-2.395-3.59,0-2.62,1.036-3.6,2.367-3.6a2.694,2.694,0,0,1,1.793.7l0.952-1.11A4.036,4.036,0,0,0,629.884,1934.68Zm7.826,2.27a2.691,2.691,0,0,0-2.157,1.11v-4.04l-1.793.18v10.37h1.793v-5.17a1.955,1.955,0,0,1,1.554-1.11c0.547,0,.911.27,0.911,1.2v5.08h1.793v-5.37A2.006,2.006,0,0,0,637.71,1936.95Zm9.31,5.66v-3.11c0-1.64-.868-2.55-2.843-2.55a7.652,7.652,0,0,0-2.69.53l0.421,1.22a6.661,6.661,0,0,1,1.961-.39,1.135,1.135,0,0,1,1.387,1.29v0.42h-0.925c-2.157,0-3.376.87-3.376,2.48a2.2,2.2,0,0,0,2.395,2.28,2.515,2.515,0,0,0,2.214-1.11,1.691,1.691,0,0,0,1.639,1.08l0.378-1.19A0.832,0.832,0,0,1,647.02,1942.61Zm-3.193.87a0.982,0.982,0,0,1-1.051-1.12c0-.87.574-1.29,1.737-1.29h0.743v1.5A1.582,1.582,0,0,1,643.827,1943.48Zm8.961-6.53a2.785,2.785,0,0,0-2.256,1.19l-0.14-.98h-1.555v7.41h1.793v-5.15a1.923,1.923,0,0,1,1.555-1.13c0.561,0,.911.27,0.911,1.2v5.08h1.793v-5.37A2,2,0,0,0,652.788,1936.95Zm9.828-.83a5.986,5.986,0,0,1-3.459.83c-1.793,0-3.068,1.05-3.068,2.66a2.17,2.17,0,0,0,1.3,2.09,1.657,1.657,0,0,0-.869,1.37c0,0.77.631,1.43,2.115,1.43h1.121c0.826,0,1.261.34,1.261,0.88,0,0.59-.421.98-1.863,0.98-1.471,0-1.793-.32-1.793-1.06h-1.611c0,1.48.742,2.32,3.376,2.32,2.423,0,3.7-.88,3.7-2.36,0-1.22-1.065-2.1-2.7-2.1h-1.134c-0.743,0-.9-0.26-0.9-0.52a0.677,0.677,0,0,1,.308-0.55,3.134,3.134,0,0,0,.883.11c1.863,0,2.983-1.05,2.983-2.49a1.954,1.954,0,0,0-1.344-1.91,6.555,6.555,0,0,0,2.143-.25Zm-3.431,2.05a1.211,1.211,0,0,1,1.344,1.4,1.262,1.262,0,0,1-1.316,1.47,1.286,1.286,0,0,1-1.317-1.46A1.256,1.256,0,0,1,659.185,1938.17Zm10.543,2.52c0-2.34-1.19-3.74-3.263-3.74-2.1,0-3.292,1.71-3.292,3.96,0,2.34,1.233,3.87,3.53,3.87a4.3,4.3,0,0,0,2.745-.99l-0.742-1.03a3.071,3.071,0,0,1-1.849.66c-0.981,0-1.681-.49-1.821-2h4.65C669.7,1941.22,669.728,1940.93,669.728,1940.69Zm-1.778-.43h-2.914c0.1-1.48.63-2.04,1.471-2.04,1.008,0,1.443.73,1.443,1.95v0.09Zm14.7-5.37h-2.41l-1.625,6.78-1.723-6.78h-2.381l-0.77,9.68h1.793l0.238-3.99a38.851,38.851,0,0,0,.056-4.02l1.877,6.96h1.751l1.765-6.95c-0.028,1.02.042,2.52,0.126,3.95l0.252,4.05h1.807Zm7.768,7.72v-3.11c0-1.64-.869-2.55-2.844-2.55a7.642,7.642,0,0,0-2.689.53l0.42,1.22a6.667,6.667,0,0,1,1.961-.39,1.135,1.135,0,0,1,1.387,1.29v0.42H687.73c-2.157,0-3.375.87-3.375,2.48a2.2,2.2,0,0,0,2.395,2.28,2.513,2.513,0,0,0,2.213-1.11,1.692,1.692,0,0,0,1.639,1.08l0.378-1.19A0.832,0.832,0,0,1,690.42,1942.61Zm-3.194.87a0.982,0.982,0,0,1-1.051-1.12c0-.87.575-1.29,1.737-1.29h0.743v1.5A1.581,1.581,0,0,1,687.226,1943.48Zm8.625-.42a1.72,1.72,0,0,1-.883.28c-0.546,0-.784-0.3-0.784-1.03v-3.86h1.541l0.182-1.29h-1.723v-1.85l-1.793.21v1.64h-1.163v1.29h1.163v3.91c0,1.58.77,2.41,2.227,2.42a3.227,3.227,0,0,0,1.863-.56Zm7.225-2.37c0-2.34-1.191-3.74-3.264-3.74-2.1,0-3.291,1.71-3.291,3.96,0,2.34,1.232,3.87,3.529,3.87a4.305,4.305,0,0,0,2.746-.99l-0.742-1.03a3.073,3.073,0,0,1-1.849.66c-0.981,0-1.681-.49-1.821-2h4.65C703.048,1941.22,703.076,1940.93,703.076,1940.69Zm-1.779-.43h-2.913c0.1-1.48.63-2.04,1.47-2.04,1.009,0,1.443.73,1.443,1.95v0.09Zm6.734-3.3a2.086,2.086,0,0,0-1.933,1.66l-0.169-1.46h-1.554v7.41h1.793v-3.94c0.28-1.26.728-1.92,1.638-1.92a2.338,2.338,0,0,1,.659.09l0.308-1.74A2.569,2.569,0,0,0,708.031,1936.96Zm7.573-2.07h-2.857v9.68H714.6v-3.38h1.134c2.185,0,3.8-.99,3.8-3.22C719.526,1935.89,718.041,1934.89,715.6,1934.89Zm-0.014,4.92H714.6v-3.56h0.994c1.261,0,2,.5,2,1.72C717.593,1939.39,716.823,1939.81,715.59,1939.81Zm10.081,2.8v-3.11c0-1.64-.868-2.55-2.843-2.55a7.647,7.647,0,0,0-2.69.53l0.421,1.22a6.661,6.661,0,0,1,1.961-.39,1.134,1.134,0,0,1,1.386,1.29v0.42h-0.924c-2.157,0-3.376.87-3.376,2.48a2.2,2.2,0,0,0,2.395,2.28,2.515,2.515,0,0,0,2.214-1.11,1.691,1.691,0,0,0,1.639,1.08l0.378-1.19A0.832,0.832,0,0,1,725.671,1942.61Zm-3.193.87a0.982,0.982,0,0,1-1.051-1.12c0-.87.574-1.29,1.737-1.29h0.742v1.5A1.58,1.58,0,0,1,722.478,1943.48Zm7.35-6.53c-1.723,0-2.858.92-2.858,2.16,0,1.09.672,1.82,2.2,2.24,1.387,0.39,1.681.59,1.681,1.2a1.083,1.083,0,0,1-1.317.9,3.316,3.316,0,0,1-2.017-.73l-0.9,1.01a4.317,4.317,0,0,0,2.955,1.05c1.695,0,3.124-.81,3.124-2.35,0-1.32-.854-1.94-2.367-2.34-1.261-.35-1.555-0.58-1.555-1.07,0-.45.406-0.74,1.121-0.74a3.4,3.4,0,0,1,1.863.6l0.7-1.05A4.2,4.2,0,0,0,729.828,1936.95Zm6.313,0c-1.722,0-2.857.92-2.857,2.16,0,1.09.672,1.82,2.2,2.24,1.387,0.39,1.681.59,1.681,1.2a1.083,1.083,0,0,1-1.317.9,3.316,3.316,0,0,1-2.017-.73l-0.9,1.01a4.317,4.317,0,0,0,2.955,1.05c1.695,0,3.124-.81,3.124-2.35,0-1.32-.854-1.94-2.367-2.34-1.261-.35-1.555-0.58-1.555-1.07,0-.45.406-0.74,1.121-0.74a3.4,3.4,0,0,1,1.863.6l0.7-1.05A4.2,4.2,0,0,0,736.141,1936.95Zm12.884,0.21H747.3l-1.106,6.09-1.177-6.09h-1.835l-1.289,6.09-1.036-6.09h-1.793l1.639,7.41h2.2l1.148-5.81,1.121,5.81h2.241Zm3.763-.21c-2.2,0-3.5,1.58-3.5,3.91,0,2.44,1.3,3.92,3.488,3.92s3.488-1.58,3.488-3.92C756.262,1938.43,754.973,1936.95,752.788,1936.95Zm0,1.36c1.036,0,1.583.78,1.583,2.55s-0.547,2.56-1.6,2.56-1.6-.78-1.6-2.56C751.177,1939.11,751.737,1938.31,752.788,1938.31Zm8.456-1.35a2.087,2.087,0,0,0-1.933,1.66l-0.168-1.46h-1.555v7.41h1.793v-3.94c0.28-1.26.729-1.92,1.639-1.92a2.348,2.348,0,0,1,.659.09l0.308-1.74A2.575,2.575,0,0,0,761.244,1936.96Zm5.811-2.97v3.76a2.5,2.5,0,0,0-1.835-.8c-1.877,0-3.012,1.64-3.012,3.92,0,2.36.967,3.91,2.816,3.91a2.465,2.465,0,0,0,2.115-1.15l0.126,0.94h1.583v-10.38Zm-1.527,9.43c-0.883,0-1.429-.66-1.429-2.56,0-1.78.616-2.57,1.555-2.57a1.745,1.745,0,0,1,1.4.79v3.39A1.752,1.752,0,0,1,765.528,1943.42Z" transform="translate(-581.5 -1920.5)"/>
</svg>
