<svg id="Example_5a.svg" xmlns="http://www.w3.org/2000/svg" width="147.344" height="9.16" viewBox="0 0 147.344 9.16">
  <defs>
    <style>
      .cls-1 {
        fill: #2284e6;
        fill-rule: evenodd;
      }
    </style>
  </defs>
  <path id="Must_be_at_least_8_characters" data-name="Must be at least 8 characters" class="cls-1" d="M576.9,3888.74h-1.547l-1.656,6.01-1.739-6.01h-1.535l-0.683,8.26h1.079l0.276-3.65c0.1-1.21.156-2.49,0.156-3.46l1.883,6.17h1.067l1.787-6.16c0.012,0.68.1,2.07,0.2,3.37l0.288,3.73h1.1Zm7.189,1.94h-1.1v4.51a1.913,1.913,0,0,1-1.583,1.09c-0.683,0-.971-0.32-0.971-1.19v-4.41h-1.1v4.53a1.687,1.687,0,0,0,1.763,1.93,2.129,2.129,0,0,0,1.967-1.12l0.084,0.98h0.948v-6.32Zm3.7-.14c-1.307,0-2.279.73-2.279,1.73,0,0.89.54,1.48,1.907,1.84,1.224,0.32,1.535.56,1.535,1.19a1.117,1.117,0,0,1-1.355.96,2.838,2.838,0,0,1-1.775-.62l-0.587.68a3.5,3.5,0,0,0,2.386.82c1.284,0,2.5-.6,2.5-1.92,0-1.1-.768-1.63-2.1-1.96-1.019-.27-1.355-0.51-1.355-1.02a0.961,0.961,0,0,1,1.163-.83,2.912,2.912,0,0,1,1.643.54l0.468-.69A3.333,3.333,0,0,0,587.79,3890.54Zm6.359,5.42a1.545,1.545,0,0,1-.839.27c-0.552,0-.756-0.3-0.756-0.93v-3.77h1.38l0.12-.85h-1.5v-1.56l-1.1.13v1.43h-1.1v0.85h1.1v3.81a1.587,1.587,0,0,0,1.7,1.8,2.392,2.392,0,0,0,1.415-.43Zm7.032-5.42a2.122,2.122,0,0,0-1.787.93V3888l-1.1.14V3897h0.971l0.108-.7a2.1,2.1,0,0,0,1.679.84c1.536,0,2.483-1.33,2.483-3.31C603.532,3891.72,602.609,3890.54,601.181,3890.54Zm-0.4,5.73a1.709,1.709,0,0,1-1.392-.85v-3.03a1.8,1.8,0,0,1,1.476-.98c0.887,0,1.475.62,1.475,2.42C602.345,3895.56,601.709,3896.27,600.786,3896.27Zm9.106-2.62c0-1.93-.9-3.11-2.6-3.11-1.631,0-2.627,1.4-2.627,3.37,0,2,1.032,3.23,2.795,3.23a3.451,3.451,0,0,0,2.206-.79l-0.479-.66a2.622,2.622,0,0,1-1.643.55c-0.912,0-1.6-.56-1.7-2.02h4.03C609.88,3894.07,609.892,3893.87,609.892,3893.65Zm-1.091-.25h-2.963c0.084-1.4.636-1.99,1.476-1.99,1,0,1.487.68,1.487,1.92v0.07Zm9.755,2.12v-2.89a1.922,1.922,0,0,0-2.218-2.09,6.133,6.133,0,0,0-2.183.43l0.276,0.8a5.5,5.5,0,0,1,1.7-.33,1.1,1.1,0,0,1,1.319,1.24v0.47h-0.972c-1.763,0-2.782.73-2.782,2.09a1.836,1.836,0,0,0,2.015,1.9,2.147,2.147,0,0,0,1.883-.94,1.27,1.27,0,0,0,1.235.94l0.252-.76A0.754,0.754,0,0,1,618.556,3895.52Zm-2.59.8a1,1,0,0,1-1.092-1.14c0-.87.588-1.3,1.751-1.3h0.828v1.45A1.631,1.631,0,0,1,615.966,3896.32Zm7.331-.36a1.55,1.55,0,0,1-.839.27c-0.552,0-.756-0.3-0.756-0.93v-3.77h1.379l0.12-.85h-1.5v-1.56l-1.1.13v1.43h-1.1v0.85h1.1v3.81a1.586,1.586,0,0,0,1.7,1.8,2.394,2.394,0,0,0,1.415-.43Zm5.4,1.18a1.873,1.873,0,0,0,.875-0.21l-0.288-.77a1.031,1.031,0,0,1-.407.07c-0.288,0-.4-0.17-0.4-0.5V3888l-1.1.14v7.61A1.242,1.242,0,0,0,628.7,3897.14Zm6.61-3.49c0-1.93-.9-3.11-2.6-3.11-1.631,0-2.626,1.4-2.626,3.37,0,2,1.031,3.23,2.794,3.23a3.454,3.454,0,0,0,2.207-.79l-0.48-.66a2.619,2.619,0,0,1-1.643.55c-0.911,0-1.6-.56-1.7-2.02h4.03C635.3,3894.07,635.308,3893.87,635.308,3893.65Zm-1.091-.25h-2.963c0.084-1.4.636-1.99,1.475-1.99,1,0,1.488.68,1.488,1.92v0.07Zm6.875,2.12v-2.89a1.922,1.922,0,0,0-2.219-2.09,6.142,6.142,0,0,0-2.183.43l0.276,0.8a5.51,5.51,0,0,1,1.7-.33,1.1,1.1,0,0,1,1.32,1.24v0.47h-0.972c-1.763,0-2.782.73-2.782,2.09a1.836,1.836,0,0,0,2.015,1.9,2.147,2.147,0,0,0,1.883-.94,1.268,1.268,0,0,0,1.235.94l0.252-.76A0.754,0.754,0,0,1,641.092,3895.52Zm-2.591.8a1,1,0,0,1-1.091-1.14c0-.87.588-1.3,1.751-1.3h0.828v1.45A1.631,1.631,0,0,1,638.5,3896.32Zm6.276-5.78c-1.307,0-2.278.73-2.278,1.73,0,0.89.539,1.48,1.907,1.84,1.223,0.32,1.535.56,1.535,1.19a1.118,1.118,0,0,1-1.356.96,2.838,2.838,0,0,1-1.775-.62l-0.587.68a3.5,3.5,0,0,0,2.386.82c1.284,0,2.5-.6,2.5-1.92,0-1.1-.768-1.63-2.1-1.96-1.019-.27-1.355-0.51-1.355-1.02a0.961,0.961,0,0,1,1.163-.83,2.912,2.912,0,0,1,1.643.54l0.468-.69A3.331,3.331,0,0,0,644.777,3890.54Zm6.36,5.42a1.55,1.55,0,0,1-.84.27c-0.552,0-.755-0.3-0.755-0.93v-3.77h1.379l0.12-.85h-1.5v-1.56l-1.1.13v1.43h-1.1v0.85h1.1v3.81a1.587,1.587,0,0,0,1.7,1.8,2.39,2.39,0,0,0,1.415-.43Zm7.379-3.27a1.973,1.973,0,0,0,1.368-1.81,2.473,2.473,0,0,0-4.87.04,1.964,1.964,0,0,0,1.248,1.87,2.212,2.212,0,0,0-1.584,2.09c0,1.32,1.092,2.26,2.747,2.26,1.631,0,2.782-.94,2.782-2.29A2.3,2.3,0,0,0,658.516,3892.69Zm-1.067-3.01a1.2,1.2,0,0,1,1.355,1.24,1.614,1.614,0,0,1-1.019,1.51l-0.2-.07c-0.924-.3-1.487-0.6-1.487-1.43A1.2,1.2,0,0,1,657.449,3889.68Zm-0.012,6.59a1.392,1.392,0,0,1-1.607-1.39,1.834,1.834,0,0,1,1.175-1.81l0.3,0.1c1.3,0.45,1.751.83,1.751,1.7A1.424,1.424,0,0,1,657.437,3896.27Zm9.336-5.73c-1.715,0-2.759,1.34-2.759,3.35,0,2.04,1.056,3.25,2.759,3.25a3.01,3.01,0,0,0,1.931-.69l-0.5-.72a2.362,2.362,0,0,1-1.379.48c-1,0-1.619-.69-1.619-2.34s0.623-2.42,1.619-2.42a2.167,2.167,0,0,1,1.355.46l0.528-.69A2.816,2.816,0,0,0,666.773,3890.54Zm6.107,0a2.27,2.27,0,0,0-1.871,1.01v-3.52l-1.1.12V3897h1.1v-4.5a1.931,1.931,0,0,1,1.6-1.1c0.6,0,1.007.27,1.007,1.22V3897h1.1v-4.53A1.739,1.739,0,0,0,672.88,3890.54Zm8.016,4.98v-2.89a1.922,1.922,0,0,0-2.219-2.09,6.137,6.137,0,0,0-2.183.43l0.276,0.8a5.5,5.5,0,0,1,1.7-.33,1.1,1.1,0,0,1,1.319,1.24v0.47h-0.971c-1.763,0-2.783.73-2.783,2.09a1.836,1.836,0,0,0,2.015,1.9,2.146,2.146,0,0,0,1.883-.94,1.27,1.27,0,0,0,1.236.94l0.251-.76A0.754,0.754,0,0,1,680.9,3895.52Zm-2.591.8a1,1,0,0,1-1.091-1.14c0-.87.587-1.3,1.751-1.3h0.827v1.45A1.63,1.63,0,0,1,678.305,3896.32Zm7.307-5.78a1.806,1.806,0,0,0-1.691,1.42l-0.108-1.28h-0.947V3897h1.1v-3.61c0.264-1.21.72-1.78,1.511-1.78a1.905,1.905,0,0,1,.552.08l0.2-1.08A2.585,2.585,0,0,0,685.612,3890.54Zm5.6,4.98v-2.89a1.922,1.922,0,0,0-2.219-2.09,6.137,6.137,0,0,0-2.183.43l0.276,0.8a5.5,5.5,0,0,1,1.7-.33,1.1,1.1,0,0,1,1.319,1.24v0.47h-0.971c-1.763,0-2.783.73-2.783,2.09a1.836,1.836,0,0,0,2.015,1.9,2.146,2.146,0,0,0,1.883-.94,1.27,1.27,0,0,0,1.235.94l0.252-.76A0.753,0.753,0,0,1,691.216,3895.52Zm-2.591.8a1,1,0,0,1-1.091-1.14c0-.87.587-1.3,1.751-1.3h0.827v1.45A1.63,1.63,0,0,1,688.625,3896.32Zm6.864-5.78c-1.716,0-2.759,1.34-2.759,3.35,0,2.04,1.055,3.25,2.759,3.25a3.006,3.006,0,0,0,1.93-.69l-0.5-.72a2.362,2.362,0,0,1-1.38.48c-0.995,0-1.619-.69-1.619-2.34s0.624-2.42,1.619-2.42a2.168,2.168,0,0,1,1.356.46l0.527-.69A2.812,2.812,0,0,0,695.489,3890.54Zm5.9,5.42a1.547,1.547,0,0,1-.839.27c-0.552,0-.756-0.3-0.756-0.93v-3.77h1.379l0.12-.85h-1.5v-1.56l-1.1.13v1.43h-1.1v0.85h1.1v3.81a1.586,1.586,0,0,0,1.7,1.8,2.394,2.394,0,0,0,1.415-.43Zm5.915-2.31c0-1.93-.9-3.11-2.6-3.11-1.632,0-2.627,1.4-2.627,3.37,0,2,1.031,3.23,2.794,3.23a3.452,3.452,0,0,0,2.207-.79l-0.48-.66a2.619,2.619,0,0,1-1.643.55c-0.911,0-1.6-.56-1.7-2.02h4.03C707.3,3894.07,707.307,3893.87,707.307,3893.65Zm-1.091-.25h-2.963c0.084-1.4.636-1.99,1.476-1.99,1,0,1.487.68,1.487,1.92v0.07Zm5.364-2.86a1.805,1.805,0,0,0-1.691,1.42l-0.108-1.28h-0.947V3897h1.1v-3.61c0.264-1.21.72-1.78,1.511-1.78a1.905,1.905,0,0,1,.552.08l0.2-1.08A2.585,2.585,0,0,0,711.58,3890.54Zm3.181,0c-1.308,0-2.279.73-2.279,1.73,0,0.89.539,1.48,1.907,1.84,1.223,0.32,1.535.56,1.535,1.19a1.117,1.117,0,0,1-1.355.96,2.833,2.833,0,0,1-1.775-.62l-0.588.68a3.5,3.5,0,0,0,2.387.82c1.283,0,2.494-.6,2.494-1.92,0-1.1-.767-1.63-2.1-1.96-1.019-.27-1.355-0.51-1.355-1.02a0.961,0.961,0,0,1,1.163-.83,2.917,2.917,0,0,1,1.644.54l0.467-.69A3.33,3.33,0,0,0,714.761,3890.54Z" transform="translate(-569.75 -3888)"/>
</svg>
