<svg id="Example_4b.svg" xmlns="http://www.w3.org/2000/svg" width="229.188" height="51.62" viewBox="0 0 229.188 51.62">
  <defs>
    <style>
      .cls-1 {
        fill: #2284e6;
        fill-rule: evenodd;
      }
    </style>
  </defs>
  <path id="Be_careful_You_will_lose_your_Sync_data_if_you_reset_your_pass" data-name="Be careful! You will lose your Sync data if you reset your pass" class="cls-1" d="M876.037,3380.67a1.812,1.812,0,0,0,1.535-1.79c0-1.51-1.295-2.11-3.43-2.11h-2.171v8.29h2.5c2.015,0,3.466-.56,3.466-2.39A1.951,1.951,0,0,0,876.037,3380.67Zm-1.739-2.73c1.08,0,1.655.24,1.655,1.08a1.2,1.2,0,0,1-1.427,1.16h-0.971v-2.24H874.3Zm0.18,5.93h-0.923v-2.59h1.091c0.923,0,1.631.34,1.631,1.33C876.277,3383.66,875.522,3383.87,874.478,3383.87Zm9.707-2.13c0-2.01-1.02-3.2-2.795-3.2-1.8,0-2.818,1.46-2.818,3.39,0,2,1.055,3.31,3.022,3.31a3.67,3.67,0,0,0,2.351-.85l-0.636-.88a2.606,2.606,0,0,1-1.583.57c-0.84,0-1.439-.42-1.559-1.72h3.982C884.161,3382.19,884.185,3381.94,884.185,3381.74Zm-1.524-.37h-2.494c0.084-1.26.539-1.74,1.259-1.74,0.864,0,1.235.62,1.235,1.66v0.08Zm7.9-2.83c-1.823,0-2.963,1.37-2.963,3.4s1.14,3.3,2.975,3.3a3.118,3.118,0,0,0,2.051-.73l-0.684-.97a2.2,2.2,0,0,1-1.283.45c-0.864,0-1.427-.54-1.427-2.07s0.539-2.17,1.427-2.17a2.03,2.03,0,0,1,1.283.45l0.684-.92A2.934,2.934,0,0,0,890.558,3378.54Zm7.571,4.84v-2.66c0-1.4-.744-2.18-2.435-2.18a6.532,6.532,0,0,0-2.3.45l0.36,1.04a5.821,5.821,0,0,1,1.679-.33,0.968,0.968,0,0,1,1.187,1.1v0.36h-0.791c-1.847,0-2.891.75-2.891,2.12a1.884,1.884,0,0,0,2.051,1.96,2.165,2.165,0,0,0,1.895-.95,1.447,1.447,0,0,0,1.4.93l0.323-1.02A0.717,0.717,0,0,1,898.129,3383.38Zm-2.735.74a0.836,0.836,0,0,1-.9-0.96c0-.74.491-1.1,1.487-1.1h0.635v1.28A1.344,1.344,0,0,1,895.394,3384.12Zm7.427-5.57a1.782,1.782,0,0,0-1.655,1.41l-0.144-1.24h-1.331v6.34h1.535v-3.37c0.24-1.08.624-1.64,1.4-1.64a2.057,2.057,0,0,1,.564.07l0.264-1.49A2.2,2.2,0,0,0,902.821,3378.55Zm6.383,3.19c0-2.01-1.019-3.2-2.794-3.2-1.8,0-2.819,1.46-2.819,3.39,0,2,1.056,3.31,3.023,3.31a3.665,3.665,0,0,0,2.35-.85l-0.635-.88a2.608,2.608,0,0,1-1.583.57c-0.84,0-1.44-.42-1.56-1.72h3.982C909.18,3382.19,909.2,3381.94,909.2,3381.74Zm-1.523-.37h-2.5c0.084-1.26.54-1.74,1.26-1.74,0.863,0,1.235.62,1.235,1.66v0.08Zm5.209-4.2a2.454,2.454,0,0,1,1.043.24l0.444-1.03a3.741,3.741,0,0,0-1.643-.38,1.983,1.983,0,0,0-2.231,2.02v0.7h-1.032v1.1H910.5v5.24h1.535v-5.24h1.355l0.168-1.1h-1.523v-0.68A0.733,0.733,0,0,1,912.89,3377.17Zm6.37,1.55h-1.535v4.46a1.576,1.576,0,0,1-1.283.9c-0.528,0-.78-0.26-0.78-1v-4.36h-1.535v4.55a1.709,1.709,0,0,0,1.775,1.97,2.151,2.151,0,0,0,1.943-1.07l0.084,0.89h1.331v-6.34Zm3.05,6.52a2.509,2.509,0,0,0,1.019-.22l-0.323-1.08a0.984,0.984,0,0,1-.36.06,0.351,0.351,0,0,1-.36-0.44V3376l-1.535.17v7.44A1.459,1.459,0,0,0,922.31,3385.24Zm3.072-8.47h-1.655l0.192,5.36H925.2Zm-0.816,6.53a0.97,0.97,0,1,0,.972.97A0.966,0.966,0,0,0,924.566,3383.3Zm-47.03,13.5h-1.187l-2.015,4.09-2.015-4.09H871.06l2.663,5.09v3.17h1.151v-3.18Zm2.318,1.8c-1.8,0-2.83,1.35-2.83,3.31,0,2,1.019,3.29,2.818,3.29s2.819-1.35,2.819-3.31C882.661,3399.89,881.653,3398.6,879.854,3398.6Zm0,0.88c1.044,0,1.619.77,1.619,2.41,0,1.66-.575,2.43-1.631,2.43s-1.631-.77-1.631-2.41C878.211,3400.25,878.8,3399.48,879.854,3399.48Zm9.035-.74h-1.1v4.51a1.912,1.912,0,0,1-1.583,1.09c-0.683,0-.971-0.32-0.971-1.19v-4.41h-1.1v4.53a1.687,1.687,0,0,0,1.763,1.93,2.129,2.129,0,0,0,1.967-1.12l0.084,0.98h0.948v-6.32Zm12.082,0h-1.055l-1.152,5.55-1.187-5.55h-1.235l-1.248,5.55-1.139-5.55h-1.1l1.475,6.32h1.463l1.139-5.33,1.1,5.33h1.5Zm1.624-3.03a0.746,0.746,0,1,0,.779.75A0.731,0.731,0,0,0,902.6,3395.71Zm0.564,3.03h-1.1v6.32h1.1v-6.32Zm3.239,6.46a1.877,1.877,0,0,0,.876-0.21l-0.288-.77a1.04,1.04,0,0,1-.408.07c-0.288,0-.395-0.17-0.395-0.5v-7.73l-1.1.14v7.61A1.243,1.243,0,0,0,906.4,3405.2Zm3.216,0a1.877,1.877,0,0,0,.876-0.21l-0.288-.77a1.04,1.04,0,0,1-.408.07c-0.288,0-.395-0.17-0.395-0.5v-7.73l-1.1.14v7.61A1.243,1.243,0,0,0,909.614,3405.2Zm6.1,0a1.877,1.877,0,0,0,.876-0.21l-0.288-.77a1.04,1.04,0,0,1-.408.07c-0.288,0-.395-0.17-0.395-0.5v-7.73l-1.1.14v7.61A1.243,1.243,0,0,0,915.71,3405.2Zm4.212-6.6c-1.8,0-2.831,1.35-2.831,3.31,0,2,1.02,3.29,2.819,3.29s2.818-1.35,2.818-3.31C922.728,3399.89,921.721,3398.6,919.922,3398.6Zm0,0.88c1.043,0,1.619.77,1.619,2.41,0,1.66-.576,2.43-1.631,2.43s-1.631-.77-1.631-2.41C918.279,3400.25,918.866,3399.48,919.922,3399.48Zm6.048-.88c-1.307,0-2.279.73-2.279,1.73,0,0.89.54,1.48,1.907,1.84,1.224,0.32,1.536.56,1.536,1.19a1.118,1.118,0,0,1-1.356.96,2.838,2.838,0,0,1-1.775-.62l-0.587.68a3.5,3.5,0,0,0,2.386.82c1.284,0,2.5-.6,2.5-1.92,0-1.1-.768-1.63-2.1-1.96-1.019-.27-1.355-0.51-1.355-1.02a0.961,0.961,0,0,1,1.163-.83,2.912,2.912,0,0,1,1.643.54l0.468-.69A3.333,3.333,0,0,0,925.97,3398.6Zm8.362,3.11c0-1.93-.9-3.11-2.6-3.11-1.631,0-2.627,1.4-2.627,3.37,0,2,1.032,3.23,2.8,3.23a3.456,3.456,0,0,0,2.207-.79l-0.48-.66a2.622,2.622,0,0,1-1.643.55c-0.912,0-1.6-.56-1.7-2.02h4.029C934.32,3402.13,934.332,3401.93,934.332,3401.71Zm-1.091-.25h-2.962c0.084-1.4.635-1.99,1.475-1.99,1,0,1.487.68,1.487,1.92v0.07Zm10.139-2.72h-1.139l-1.655,5.52-1.691-5.52h-1.176l2.123,6.32h0.372a2.15,2.15,0,0,1-2,1.69l0.12,0.86a3.207,3.207,0,0,0,2.939-2.51Zm3.158-.14c-1.8,0-2.831,1.35-2.831,3.31,0,2,1.02,3.29,2.819,3.29s2.818-1.35,2.818-3.31C949.344,3399.89,948.337,3398.6,946.538,3398.6Zm0,0.88c1.043,0,1.619.77,1.619,2.41,0,1.66-.576,2.43-1.631,2.43s-1.632-.77-1.632-2.41C944.894,3400.25,945.482,3399.48,946.538,3399.48Zm9.034-.74h-1.1v4.51a1.915,1.915,0,0,1-1.583,1.09c-0.684,0-.972-0.32-0.972-1.19v-4.41h-1.1v4.53a1.687,1.687,0,0,0,1.763,1.93,2.131,2.131,0,0,0,1.967-1.12l0.084,0.98h0.947v-6.32Zm4.729-.14a1.806,1.806,0,0,0-1.691,1.42l-0.108-1.28h-0.947v6.32h1.1v-3.61c0.264-1.21.72-1.78,1.511-1.78a1.905,1.905,0,0,1,.552.08l0.2-1.08A2.585,2.585,0,0,0,960.3,3398.6Zm6.564-1.95c-1.523,0-2.6.89-2.6,2.16s0.839,1.9,2.446,2.39c1.4,0.43,1.787.79,1.787,1.59a1.54,1.54,0,0,1-1.775,1.48,3.19,3.19,0,0,1-2.158-.84l-0.636.71a3.867,3.867,0,0,0,2.806,1.06c1.859,0,2.951-1,2.951-2.44,0-1.59-1.128-2.1-2.447-2.51-1.487-.46-1.811-0.79-1.811-1.49a1.263,1.263,0,0,1,1.487-1.17,2.807,2.807,0,0,1,1.883.72l0.624-.7A3.5,3.5,0,0,0,966.865,3396.65Zm8.543,2.09h-1.139l-1.655,5.52-1.692-5.52h-1.175l2.123,6.32h0.372a2.151,2.151,0,0,1-2,1.69l0.12,0.86a3.206,3.206,0,0,0,2.938-2.51Zm3.937-.14a2.3,2.3,0,0,0-1.931,1.07l-0.1-.93H976.37v6.32h1.1v-4.49a1.908,1.908,0,0,1,1.607-1.11c0.612,0,1,.27,1,1.22v4.38h1.1v-4.53A1.729,1.729,0,0,0,979.345,3398.6Zm6.06,0c-1.715,0-2.758,1.34-2.758,3.35,0,2.04,1.055,3.25,2.758,3.25a3.008,3.008,0,0,0,1.931-.69l-0.5-.72a2.357,2.357,0,0,1-1.379.48c-1,0-1.619-.69-1.619-2.34s0.624-2.42,1.619-2.42a2.163,2.163,0,0,1,1.355.46l0.528-.69A2.814,2.814,0,0,0,985.405,3398.6Zm9.8-2.54v3.32a2.246,2.246,0,0,0-1.7-.78c-1.547,0-2.482,1.4-2.482,3.33,0,1.97.851,3.27,2.386,3.27a2.1,2.1,0,0,0,1.823-1.02l0.108,0.88h0.972v-8.86Zm-1.559,8.27c-0.911,0-1.439-.76-1.439-2.42s0.588-2.44,1.535-2.44a1.8,1.8,0,0,1,1.463.83v3.09A1.81,1.81,0,0,1,993.649,3404.33Zm8.9-.75v-2.89a1.92,1.92,0,0,0-2.22-2.09,6.139,6.139,0,0,0-2.18.43l0.276,0.8a5.559,5.559,0,0,1,1.7-.34,1.111,1.111,0,0,1,1.32,1.25v0.47h-0.97c-1.766,0-2.785.73-2.785,2.09a1.836,1.836,0,0,0,2.015,1.9,2.134,2.134,0,0,0,1.88-.94,1.269,1.269,0,0,0,1.24.94l0.25-.76A0.758,0.758,0,0,1,1002.55,3403.58Zm-2.589.8a1,1,0,0,1-1.091-1.14c0-.87.588-1.3,1.75-1.3h0.83v1.45A1.631,1.631,0,0,1,999.961,3404.38Zm7.329-.36a1.536,1.536,0,0,1-.84.27c-0.55,0-.75-0.3-0.75-0.93v-3.77h1.38l0.12-.85h-1.5v-1.56l-1.11.13v1.43h-1.1v0.85h1.1v3.81a1.59,1.59,0,0,0,1.71,1.8,2.377,2.377,0,0,0,1.41-.43Zm5.52-.44v-2.89a1.92,1.92,0,0,0-2.22-2.09,6.155,6.155,0,0,0-2.18.43l0.28,0.8a5.483,5.483,0,0,1,1.7-.34,1.111,1.111,0,0,1,1.32,1.25v0.47h-0.97c-1.77,0-2.79.73-2.79,2.09a1.84,1.84,0,0,0,2.02,1.9,2.134,2.134,0,0,0,1.88-.94,1.269,1.269,0,0,0,1.24.94l0.25-.76A0.758,0.758,0,0,1,1012.81,3403.58Zm-2.59.8a1,1,0,0,1-1.09-1.14c0-.87.59-1.3,1.75-1.3h0.83v1.45A1.632,1.632,0,0,1,1010.22,3404.38Zm7.98-8.67a0.746,0.746,0,1,0,.78.75A0.736,0.736,0,0,0,1018.2,3395.71Zm0.57,3.03h-1.11v6.32h1.11v-6.32Zm4.12-1.79a2.718,2.718,0,0,1,1.11.24l0.34-.8a3.413,3.413,0,0,0-1.51-.33,1.769,1.769,0,0,0-1.98,1.82v0.86h-1.12v0.85h1.12v5.47h1.11v-5.47h1.41l0.12-.85h-1.53v-0.88A0.786,0.786,0,0,1,1022.89,3396.95Zm9.1,1.79h-1.14l-1.66,5.52-1.69-5.52h-1.17l2.12,6.32h0.37a2.15,2.15,0,0,1-2,1.69l0.12,0.86a3.215,3.215,0,0,0,2.94-2.51Zm3.15-.14c-1.79,0-2.83,1.35-2.83,3.31,0,2,1.02,3.29,2.82,3.29s2.82-1.35,2.82-3.31C1037.95,3399.89,1036.94,3398.6,1035.14,3398.6Zm0,0.88c1.05,0,1.62.77,1.62,2.41,0,1.66-.57,2.43-1.63,2.43s-1.63-.77-1.63-2.41C1033.5,3400.25,1034.09,3399.48,1035.14,3399.48Zm9.04-.74h-1.1v4.51a1.924,1.924,0,0,1-1.59,1.09c-0.68,0-.97-0.32-0.97-1.19v-4.41h-1.1v4.53a1.687,1.687,0,0,0,1.76,1.93,2.134,2.134,0,0,0,1.97-1.12l0.08,0.98h0.95v-6.32Zm7.61-.14a1.8,1.8,0,0,0-1.69,1.42l-0.11-1.28h-0.95v6.32h1.1v-3.61c0.27-1.21.72-1.78,1.52-1.78a1.922,1.922,0,0,1,.55.08l0.2-1.08A2.564,2.564,0,0,0,1051.79,3398.6Zm6.24,3.11c0-1.93-.9-3.11-2.61-3.11-1.63,0-2.62,1.4-2.62,3.37,0,2,1.03,3.23,2.79,3.23a3.446,3.446,0,0,0,2.21-.79l-0.48-.66a2.616,2.616,0,0,1-1.64.55c-0.92,0-1.6-.56-1.71-2.02H1058C1058.01,3402.13,1058.03,3401.93,1058.03,3401.71Zm-1.09-.25h-2.97c0.09-1.4.64-1.99,1.48-1.99,0.99,0,1.49.68,1.49,1.92v0.07Zm4.33-2.86c-1.31,0-2.28.73-2.28,1.73,0,0.89.54,1.48,1.91,1.84,1.22,0.32,1.53.56,1.53,1.19a1.116,1.116,0,0,1-1.35.96,2.85,2.85,0,0,1-1.78-.62l-0.59.68a3.521,3.521,0,0,0,2.39.82c1.28,0,2.5-.6,2.5-1.92,0-1.1-.77-1.63-2.1-1.96-1.02-.27-1.36-0.51-1.36-1.02a0.957,0.957,0,0,1,1.16-.83,2.945,2.945,0,0,1,1.65.54l0.47-.69A3.337,3.337,0,0,0,1061.27,3398.6Zm8.36,3.11c0-1.93-.9-3.11-2.6-3.11-1.63,0-2.63,1.4-2.63,3.37,0,2,1.03,3.23,2.8,3.23a3.439,3.439,0,0,0,2.2-.79l-0.48-.66a2.616,2.616,0,0,1-1.64.55c-0.91,0-1.6-.56-1.7-2.02h4.03C1069.62,3402.13,1069.63,3401.93,1069.63,3401.71Zm-1.09-.25h-2.96c0.08-1.4.63-1.99,1.47-1.99,1,0,1.49.68,1.49,1.92v0.07Zm5.39,2.56a1.56,1.56,0,0,1-.84.27c-0.55,0-.76-0.3-0.76-0.93v-3.77h1.38l0.12-.85h-1.5v-1.56l-1.1.13v1.43h-1.1v0.85h1.1v3.81a1.583,1.583,0,0,0,1.7,1.8,2.407,2.407,0,0,0,1.42-.43Zm8.78-5.28h-1.14l-1.65,5.52-1.7-5.52h-1.17l2.12,6.32h0.37a2.15,2.15,0,0,1-2,1.69l0.12,0.86a3.205,3.205,0,0,0,2.94-2.51Zm3.16-.14c-1.8,0-2.83,1.35-2.83,3.31,0,2,1.02,3.29,2.82,3.29,1.78,0,2.81-1.35,2.81-3.31C1088.67,3399.89,1087.67,3398.6,1085.87,3398.6Zm0,0.88c1.04,0,1.62.77,1.62,2.41,0,1.66-.58,2.43-1.63,2.43s-1.64-.77-1.64-2.41C1084.22,3400.25,1084.81,3399.48,1085.87,3399.48Zm9.03-.74h-1.1v4.51a1.909,1.909,0,0,1-1.58,1.09c-0.69,0-.98-0.32-0.98-1.19v-4.41h-1.1v4.53a1.687,1.687,0,0,0,1.76,1.93,2.134,2.134,0,0,0,1.97-1.12l0.08,0.98h0.95v-6.32Zm4.73-.14a1.806,1.806,0,0,0-1.69,1.42l-0.11-1.28h-0.95v6.32h1.11v-3.61c0.26-1.21.72-1.78,1.51-1.78a1.871,1.871,0,0,1,.55.08l0.2-1.08A2.508,2.508,0,0,0,1099.63,3398.6Zm-224.588,20a2.285,2.285,0,0,0-1.871.99l-0.084-.85h-0.948v8.87l1.1-.13v-3a2.015,2.015,0,0,0,1.655.72c1.631,0,2.482-1.39,2.482-3.31C877.38,3419.9,876.721,3418.6,875.042,3418.6Zm-0.408,5.7a1.624,1.624,0,0,1-1.391-.76v-3.09a1.928,1.928,0,0,1,1.523-.98c0.947,0,1.427.78,1.427,2.42C876.193,3423.55,875.641,3424.3,874.634,3424.3Zm8.591-.72v-2.89a1.922,1.922,0,0,0-2.219-2.09,6.142,6.142,0,0,0-2.183.43l0.276,0.8a5.559,5.559,0,0,1,1.7-.34,1.109,1.109,0,0,1,1.32,1.25v0.47H881.15c-1.763,0-2.782.73-2.782,2.09a1.836,1.836,0,0,0,2.015,1.9,2.144,2.144,0,0,0,1.882-.94,1.27,1.27,0,0,0,1.236.94l0.252-.76A0.754,0.754,0,0,1,883.225,3423.58Zm-2.591.8a1,1,0,0,1-1.091-1.14c0-.87.588-1.3,1.751-1.3h0.828v1.45A1.631,1.631,0,0,1,880.634,3424.38Zm6.276-5.78c-1.307,0-2.278.73-2.278,1.73,0,0.89.539,1.48,1.906,1.84,1.224,0.32,1.536.56,1.536,1.19a1.118,1.118,0,0,1-1.356.96,2.838,2.838,0,0,1-1.775-.62l-0.587.68a3.5,3.5,0,0,0,2.386.82c1.284,0,2.5-.6,2.5-1.92,0-1.1-.768-1.63-2.1-1.96-1.019-.27-1.355-0.51-1.355-1.02a0.961,0.961,0,0,1,1.163-.83,2.912,2.912,0,0,1,1.643.54l0.468-.69A3.333,3.333,0,0,0,886.91,3418.6Zm5.3,0c-1.307,0-2.279.73-2.279,1.73,0,0.89.54,1.48,1.907,1.84,1.224,0.32,1.536.56,1.536,1.19a1.118,1.118,0,0,1-1.356.96,2.838,2.838,0,0,1-1.775-.62l-0.587.68a3.5,3.5,0,0,0,2.386.82c1.284,0,2.5-.6,2.5-1.92,0-1.1-.768-1.63-2.1-1.96-1.019-.27-1.355-0.51-1.355-1.02a0.961,0.961,0,0,1,1.163-.83,2.912,2.912,0,0,1,1.643.54l0.468-.69A3.333,3.333,0,0,0,892.214,3418.6Zm10.689,0.14h-1.055l-1.152,5.55-1.187-5.55h-1.235l-1.248,5.55-1.139-5.55h-1.1l1.475,6.32h1.463l1.139-5.33,1.1,5.33h1.5Zm3.339-.14c-1.8,0-2.831,1.35-2.831,3.31,0,2,1.02,3.29,2.819,3.29s2.818-1.35,2.818-3.31C909.048,3419.89,908.041,3418.6,906.242,3418.6Zm0,0.88c1.043,0,1.619.77,1.619,2.41,0,1.66-.576,2.43-1.631,2.43s-1.631-.77-1.631-2.41C904.6,3420.25,905.186,3419.48,906.242,3419.48Zm7.08-.88a1.8,1.8,0,0,0-1.691,1.42l-0.108-1.28h-0.948v6.32h1.1v-3.61c0.263-1.21.719-1.78,1.511-1.78a1.893,1.893,0,0,1,.551.08l0.2-1.08A2.577,2.577,0,0,0,913.322,3418.6Zm5.255-2.54v3.32a2.25,2.25,0,0,0-1.7-.78c-1.547,0-2.483,1.4-2.483,3.33,0,1.97.852,3.27,2.387,3.27a2.1,2.1,0,0,0,1.823-1.02l0.108,0.88h0.971v-8.86Zm-1.559,8.27c-0.912,0-1.439-.76-1.439-2.42s0.587-2.44,1.535-2.44a1.8,1.8,0,0,1,1.463.83v3.09A1.812,1.812,0,0,1,917.018,3424.33Zm4.933-.79a0.83,0.83,0,1,0,.839.82A0.819,0.819,0,0,0,921.951,3423.54Z" transform="translate(-871.062 -3376)"/>
</svg>
