<svg id="Example_5b.svg" xmlns="http://www.w3.org/2000/svg" width="242.624" height="29.5" viewBox="0 0 242.624 29.5">
  <defs>
    <style>
      .cls-1 {
        fill: #2284e6;
        fill-rule: evenodd;
      }
    </style>
  </defs>
  <path id="Create_a_password_with_at_least_8_unforgettable_characters" data-name="Create a password with at least 8 unforgettable characters" class="cls-1" d="M875.09,3888.59c-1.871,0-3.43,1.48-3.43,4.27s1.451,4.28,3.454,4.28a3.216,3.216,0,0,0,2.362-.92l-0.575-.73a2.758,2.758,0,0,1-1.751.69c-1.284,0-2.279-.93-2.279-3.32,0-2.49,1.043-3.33,2.291-3.33a2.425,2.425,0,0,1,1.595.61l0.623-.73A3.247,3.247,0,0,0,875.09,3888.59Zm6.216,1.95a1.805,1.805,0,0,0-1.691,1.42l-0.108-1.28h-0.948V3897h1.1v-3.61c0.264-1.21.719-1.78,1.511-1.78a1.905,1.905,0,0,1,.552.08l0.2-1.08A2.571,2.571,0,0,0,881.306,3890.54Zm6.239,3.11c0-1.93-.9-3.11-2.6-3.11-1.631,0-2.627,1.4-2.627,3.37,0,2,1.032,3.23,2.795,3.23a3.456,3.456,0,0,0,2.207-.79l-0.48-.66a2.62,2.62,0,0,1-1.643.55c-0.912,0-1.595-.56-1.7-2.02h4.03C887.533,3894.07,887.545,3893.87,887.545,3893.65Zm-1.092-.25h-2.962c0.084-1.4.636-1.99,1.475-1.99,1,0,1.487.68,1.487,1.92v0.07Zm6.876,2.12v-2.89a1.922,1.922,0,0,0-2.219-2.09,6.137,6.137,0,0,0-2.183.43l0.276,0.8a5.5,5.5,0,0,1,1.7-.33,1.1,1.1,0,0,1,1.319,1.24v0.47h-0.971c-1.763,0-2.783.73-2.783,2.09a1.836,1.836,0,0,0,2.015,1.9,2.145,2.145,0,0,0,1.883-.94,1.27,1.27,0,0,0,1.236.94l0.251-.76A0.754,0.754,0,0,1,893.329,3895.52Zm-2.591.8a1,1,0,0,1-1.091-1.14c0-.87.587-1.3,1.751-1.3h0.827v1.45A1.629,1.629,0,0,1,890.738,3896.32Zm7.331-.36a1.545,1.545,0,0,1-.839.27c-0.552,0-.756-0.3-0.756-0.93v-3.77h1.38l0.12-.85h-1.5v-1.56l-1.1.13v1.43h-1.1v0.85h1.1v3.81a1.587,1.587,0,0,0,1.7,1.8,2.392,2.392,0,0,0,1.415-.43Zm5.915-2.31c0-1.93-.9-3.11-2.6-3.11-1.631,0-2.627,1.4-2.627,3.37,0,2,1.032,3.23,2.795,3.23a3.451,3.451,0,0,0,2.206-.79l-0.479-.66a2.622,2.622,0,0,1-1.643.55c-0.912,0-1.6-.56-1.7-2.02h4.029C903.972,3894.07,903.984,3893.87,903.984,3893.65Zm-1.091-.25h-2.962c0.084-1.4.635-1.99,1.475-1.99,1,0,1.487.68,1.487,1.92v0.07Zm9.755,2.12v-2.89a1.922,1.922,0,0,0-2.218-2.09,6.133,6.133,0,0,0-2.183.43l0.276,0.8a5.5,5.5,0,0,1,1.7-.33,1.1,1.1,0,0,1,1.319,1.24v0.47h-0.971c-1.763,0-2.783.73-2.783,2.09a1.836,1.836,0,0,0,2.015,1.9,2.146,2.146,0,0,0,1.883-.94,1.27,1.27,0,0,0,1.235.94l0.252-.76A0.754,0.754,0,0,1,912.648,3895.52Zm-2.59.8a1,1,0,0,1-1.092-1.14c0-.87.588-1.3,1.752-1.3h0.827v1.45A1.63,1.63,0,0,1,910.058,3896.32Zm10.343-5.78a2.285,2.285,0,0,0-1.871.99l-0.084-.85H917.5v8.87l1.1-.13v-3a2.017,2.017,0,0,0,1.655.72c1.631,0,2.483-1.39,2.483-3.31C922.74,3891.84,922.08,3890.54,920.4,3890.54Zm-0.408,5.7a1.625,1.625,0,0,1-1.391-.76v-3.09a1.93,1.93,0,0,1,1.523-.98c0.948,0,1.427.78,1.427,2.42C921.552,3895.49,921,3896.24,919.993,3896.24Zm8.591-.72v-2.89a1.922,1.922,0,0,0-2.218-2.09,6.133,6.133,0,0,0-2.183.43l0.276,0.8a5.5,5.5,0,0,1,1.7-.33,1.1,1.1,0,0,1,1.319,1.24v0.47h-0.972c-1.763,0-2.782.73-2.782,2.09a1.836,1.836,0,0,0,2.015,1.9,2.147,2.147,0,0,0,1.883-.94,1.269,1.269,0,0,0,1.235.94l0.252-.76A0.754,0.754,0,0,1,928.584,3895.52Zm-2.59.8a1,1,0,0,1-1.092-1.14c0-.87.588-1.3,1.751-1.3h0.828v1.45A1.631,1.631,0,0,1,925.994,3896.32Zm6.276-5.78c-1.308,0-2.279.73-2.279,1.73,0,0.89.54,1.48,1.907,1.84,1.223,0.32,1.535.56,1.535,1.19a1.117,1.117,0,0,1-1.355.96,2.833,2.833,0,0,1-1.775-.62l-0.588.68a3.5,3.5,0,0,0,2.387.82c1.283,0,2.494-.6,2.494-1.92,0-1.1-.767-1.63-2.1-1.96-1.019-.27-1.355-0.51-1.355-1.02a0.961,0.961,0,0,1,1.164-.83,2.917,2.917,0,0,1,1.643.54l0.467-.69A3.33,3.33,0,0,0,932.27,3890.54Zm5.3,0c-1.308,0-2.279.73-2.279,1.73,0,0.89.539,1.48,1.907,1.84,1.223,0.32,1.535.56,1.535,1.19a1.117,1.117,0,0,1-1.355.96,2.833,2.833,0,0,1-1.775-.62l-0.588.68a3.5,3.5,0,0,0,2.387.82c1.283,0,2.494-.6,2.494-1.92,0-1.1-.767-1.63-2.1-1.96-1.019-.27-1.355-0.51-1.355-1.02a0.961,0.961,0,0,1,1.163-.83,2.917,2.917,0,0,1,1.644.54l0.467-.69A3.33,3.33,0,0,0,937.574,3890.54Zm10.689,0.14h-1.056l-1.151,5.55-1.188-5.55h-1.235l-1.247,5.55-1.14-5.55h-1.1l1.475,6.32h1.463l1.14-5.33,1.1,5.33h1.5Zm3.338-.14c-1.8,0-2.83,1.35-2.83,3.31,0,2,1.019,3.29,2.818,3.29s2.819-1.35,2.819-3.31C954.408,3891.83,953.4,3890.54,951.6,3890.54Zm0,0.88c1.044,0,1.619.77,1.619,2.41,0,1.66-.575,2.43-1.631,2.43s-1.631-.77-1.631-2.41C949.958,3892.19,950.546,3891.42,951.6,3891.42Zm7.08-.88a1.805,1.805,0,0,0-1.691,1.42l-0.108-1.28h-0.948V3897h1.1v-3.61c0.264-1.21.719-1.78,1.511-1.78a1.905,1.905,0,0,1,.552.08l0.2-1.08A2.585,2.585,0,0,0,958.681,3890.54Zm5.255-2.54v3.32a2.246,2.246,0,0,0-1.7-.78c-1.547,0-2.482,1.4-2.482,3.33,0,1.97.851,3.27,2.386,3.27a2.1,2.1,0,0,0,1.823-1.02l0.108,0.88h0.972v-8.86Zm-1.559,8.27c-0.911,0-1.439-.76-1.439-2.42s0.588-2.44,1.535-2.44a1.8,1.8,0,0,1,1.463.83v3.09A1.81,1.81,0,0,1,962.377,3896.27Zm14.745-5.59h-1.055l-1.151,5.55-1.188-5.55h-1.235l-1.247,5.55-1.14-5.55H969l1.475,6.32h1.463l1.14-5.33,1.1,5.33h1.5Zm1.624-3.03a0.746,0.746,0,1,0,.779.75A0.731,0.731,0,0,0,978.746,3887.65Zm0.564,3.03h-1.1V3897h1.1v-6.32Zm4.751,5.28a1.55,1.55,0,0,1-.84.27c-0.552,0-.755-0.3-0.755-0.93v-3.77h1.379l0.12-.85h-1.5v-1.56l-1.1.13v1.43h-1.1v0.85h1.1v3.81a1.587,1.587,0,0,0,1.7,1.8,2.39,2.39,0,0,0,1.415-.43Zm4.235-5.42a2.27,2.27,0,0,0-1.871,1.01v-3.52l-1.1.12V3897h1.1v-4.5a1.931,1.931,0,0,1,1.6-1.1c0.6,0,1.007.27,1.007,1.22V3897h1.1v-4.53A1.739,1.739,0,0,0,988.3,3890.54Zm10.9,4.98v-2.89a1.922,1.922,0,0,0-2.219-2.09,6.137,6.137,0,0,0-2.183.43l0.276,0.8a5.5,5.5,0,0,1,1.7-.33,1.1,1.1,0,0,1,1.319,1.24v0.47h-0.971c-1.763,0-2.783.73-2.783,2.09a1.836,1.836,0,0,0,2.015,1.9,2.145,2.145,0,0,0,1.883-.94,1.27,1.27,0,0,0,1.236.94l0.251-.76A0.754,0.754,0,0,1,999.192,3895.52Zm-2.591.8a1,1,0,0,1-1.091-1.14c0-.87.587-1.3,1.751-1.3h0.827v1.45A1.629,1.629,0,0,1,996.6,3896.32Zm7.329-.36a1.536,1.536,0,0,1-.84.27c-0.55,0-.75-0.3-0.75-0.93v-3.77h1.38l0.12-.85h-1.5v-1.56l-1.11.13v1.43h-1.1v0.85h1.1v3.81a1.59,1.59,0,0,0,1.71,1.8,2.377,2.377,0,0,0,1.41-.43Zm5.4,1.18a1.875,1.875,0,0,0,.88-0.21l-0.29-.77a1.037,1.037,0,0,1-.41.07c-0.28,0-.39-0.17-0.39-0.5V3888l-1.11.14v7.61A1.245,1.245,0,0,0,1009.33,3897.14Zm6.61-3.49c0-1.93-.9-3.11-2.6-3.11-1.63,0-2.63,1.4-2.63,3.37,0,2,1.04,3.23,2.8,3.23a3.487,3.487,0,0,0,2.21-.79l-0.48-.66a2.644,2.644,0,0,1-1.65.55c-0.91,0-1.59-.56-1.7-2.02h4.03C1015.93,3894.07,1015.94,3893.87,1015.94,3893.65Zm-1.09-.25h-2.96c0.08-1.4.64-1.99,1.47-1.99,1,0,1.49.68,1.49,1.92v0.07Zm6.88,2.12v-2.89a1.924,1.924,0,0,0-2.22-2.09,6.114,6.114,0,0,0-2.18.43l0.27,0.8a5.541,5.541,0,0,1,1.7-.33,1.1,1.1,0,0,1,1.32,1.24v0.47h-0.97c-1.76,0-2.78.73-2.78,2.09a1.837,1.837,0,0,0,2.01,1.9,2.163,2.163,0,0,0,1.89-.94,1.266,1.266,0,0,0,1.23.94l0.26-.76A0.75,0.75,0,0,1,1021.73,3895.52Zm-2.59.8a1,1,0,0,1-1.09-1.14c0-.87.58-1.3,1.75-1.3h0.82v1.45A1.629,1.629,0,0,1,1019.14,3896.32Zm6.27-5.78c-1.3,0-2.28.73-2.28,1.73,0,0.89.54,1.48,1.91,1.84,1.22,0.32,1.54.56,1.54,1.19a1.121,1.121,0,0,1-1.36.96,2.822,2.822,0,0,1-1.77-.62l-0.59.68a3.493,3.493,0,0,0,2.38.82c1.29,0,2.5-.6,2.5-1.92,0-1.1-.77-1.63-2.1-1.96-1.02-.27-1.35-0.51-1.35-1.02a0.957,0.957,0,0,1,1.16-.83,2.891,2.891,0,0,1,1.64.54l0.47-.69A3.337,3.337,0,0,0,1025.41,3890.54Zm6.36,5.42a1.536,1.536,0,0,1-.84.27c-0.55,0-.75-0.3-0.75-0.93v-3.77h1.38l0.12-.85h-1.5v-1.56l-1.11.13v1.43h-1.1v0.85h1.1v3.81a1.59,1.59,0,0,0,1.71,1.8,2.377,2.377,0,0,0,1.41-.43Zm7.38-3.27a1.978,1.978,0,0,0,1.37-1.81,2.473,2.473,0,0,0-4.87.04,1.957,1.957,0,0,0,1.25,1.87,2.211,2.211,0,0,0-1.59,2.09c0,1.32,1.1,2.26,2.75,2.26,1.63,0,2.78-.94,2.78-2.29A2.286,2.286,0,0,0,1039.15,3892.69Zm-1.07-3.01a1.2,1.2,0,0,1,1.36,1.24,1.614,1.614,0,0,1-1.02,1.51l-0.2-.07c-0.93-.3-1.49-0.6-1.49-1.43A1.2,1.2,0,0,1,1038.08,3889.68Zm-0.01,6.59a1.388,1.388,0,0,1-1.6-1.39,1.831,1.831,0,0,1,1.17-1.81l0.3,0.1c1.3,0.45,1.75.83,1.75,1.7A1.423,1.423,0,0,1,1038.07,3896.27Zm11.74-5.59h-1.11v4.51a1.909,1.909,0,0,1-1.58,1.09c-0.68,0-.97-0.32-0.97-1.19v-4.41h-1.1v4.53a1.687,1.687,0,0,0,1.76,1.93,2.134,2.134,0,0,0,1.97-1.12l0.08,0.98h0.95v-6.32Zm4.95-.14a2.308,2.308,0,0,0-1.93,1.07l-0.09-.93h-0.95V3897h1.1v-4.49a1.91,1.91,0,0,1,1.61-1.11c0.61,0,1,.27,1,1.22V3897h1.1v-4.53A1.729,1.729,0,0,0,1054.76,3890.54Zm5.91-1.65a2.708,2.708,0,0,1,1.1.24l0.35-.8a3.413,3.413,0,0,0-1.51-.33,1.764,1.764,0,0,0-1.98,1.82v0.86h-1.13v0.85h1.13V3897h1.1v-5.47h1.42l0.12-.85h-1.54v-0.88A0.789,0.789,0,0,1,1060.67,3888.89Zm3.83,1.65c-1.8,0-2.83,1.35-2.83,3.31,0,2,1.01,3.29,2.81,3.29s2.82-1.35,2.82-3.31C1067.3,3891.83,1066.29,3890.54,1064.5,3890.54Zm0,0.88c1.04,0,1.62.77,1.62,2.41,0,1.66-.58,2.43-1.64,2.43s-1.63-.77-1.63-2.41C1062.85,3892.19,1063.44,3891.42,1064.5,3891.42Zm7.08-.88a1.816,1.816,0,0,0-1.7,1.42l-0.1-1.28h-0.95V3897h1.1v-3.61c0.27-1.21.72-1.78,1.51-1.78a1.993,1.993,0,0,1,.56.08l0.2-1.08A2.564,2.564,0,0,0,1071.58,3890.54Zm6.35-.57a5.407,5.407,0,0,1-2.89.57,2.248,2.248,0,0,0-2.43,2.2,1.805,1.805,0,0,0,1.07,1.75,1.373,1.373,0,0,0-.7,1.12c0,0.63.5,1.2,1.63,1.2h1c0.79,0,1.27.3,1.27,0.9,0,0.63-.48.98-1.85,0.98-1.39,0-1.71-.33-1.71-1.05h-1c0,1.28.65,1.91,2.71,1.91,1.96,0,2.96-.69,2.96-1.91a1.9,1.9,0,0,0-2.15-1.76h-1.01c-0.65,0-.83-0.22-0.83-0.51a0.758,0.758,0,0,1,.31-0.59,2.448,2.448,0,0,0,.81.12,2.152,2.152,0,0,0,2.41-2.15,1.673,1.673,0,0,0-1.12-1.59,6.122,6.122,0,0,0,1.85-.19Zm-2.89,1.36a1.228,1.228,0,0,1,1.36,1.4,1.259,1.259,0,0,1-1.33,1.44,1.278,1.278,0,0,1-1.33-1.43A1.255,1.255,0,0,1,1075.04,3891.33Zm8.71,2.32c0-1.93-.9-3.11-2.6-3.11-1.63,0-2.62,1.4-2.62,3.37,0,2,1.03,3.23,2.79,3.23a3.466,3.466,0,0,0,2.21-.79l-0.48-.66a2.624,2.624,0,0,1-1.65.55c-0.91,0-1.59-.56-1.7-2.02h4.03C1083.74,3894.07,1083.75,3893.87,1083.75,3893.65Zm-1.09-.25h-2.96c0.08-1.4.64-1.99,1.48-1.99,0.99,0,1.48.68,1.48,1.92v0.07Zm5.39,2.56a1.536,1.536,0,0,1-.84.27c-0.55,0-.75-0.3-0.75-0.93v-3.77h1.38l0.12-.85h-1.5v-1.56l-1.11.13v1.43h-1.1v0.85h1.1v3.81a1.59,1.59,0,0,0,1.71,1.8,2.377,2.377,0,0,0,1.41-.43Zm4.03,0a1.536,1.536,0,0,1-.84.27c-0.55,0-.75-0.3-0.75-0.93v-3.77h1.38l0.12-.85h-1.5v-1.56l-1.11.13v1.43h-1.1v0.85h1.1v3.81a1.59,1.59,0,0,0,1.71,1.8,2.377,2.377,0,0,0,1.41-.43Zm5.52-.44v-2.89a1.92,1.92,0,0,0-2.22-2.09,6.155,6.155,0,0,0-2.18.43l0.28,0.8a5.436,5.436,0,0,1,1.7-.33,1.1,1.1,0,0,1,1.32,1.24v0.47h-0.97c-1.77,0-2.79.73-2.79,2.09a1.84,1.84,0,0,0,2.02,1.9,2.134,2.134,0,0,0,1.88-.94,1.269,1.269,0,0,0,1.24.94l0.25-.76A0.758,0.758,0,0,1,1097.6,3895.52Zm-2.59.8a1,1,0,0,1-1.09-1.14c0-.87.59-1.3,1.75-1.3h0.83v1.45A1.632,1.632,0,0,1,1095.01,3896.32Zm7.45-5.78a2.116,2.116,0,0,0-1.78.93V3888l-1.11.14V3897h0.97l0.11-.7a2.1,2.1,0,0,0,1.68.84c1.54,0,2.48-1.33,2.48-3.31C1104.81,3891.72,1103.89,3890.54,1102.46,3890.54Zm-0.39,5.73a1.692,1.692,0,0,1-1.39-.85v-3.03a1.791,1.791,0,0,1,1.47-.98c0.89,0,1.48.62,1.48,2.42C1103.63,3895.56,1102.99,3896.27,1102.07,3896.27Zm5.59,0.87a1.906,1.906,0,0,0,.88-0.21l-0.29-.77a1.037,1.037,0,0,1-.41.07c-0.29,0-.4-0.17-0.4-0.5V3888l-1.1.14v7.61A1.245,1.245,0,0,0,1107.66,3897.14Zm6.61-3.49c0-1.93-.9-3.11-2.6-3.11-1.63,0-2.63,1.4-2.63,3.37,0,2,1.03,3.23,2.8,3.23a3.439,3.439,0,0,0,2.2-.79l-0.48-.66a2.616,2.616,0,0,1-1.64.55c-0.91,0-1.6-.56-1.7-2.02h4.03C1114.26,3894.07,1114.27,3893.87,1114.27,3893.65Zm-1.09-.25h-2.96c0.08-1.4.63-1.99,1.47-1.99,1,0,1.49.68,1.49,1.92v0.07Zm-238.738,17.14c-1.715,0-2.758,1.34-2.758,3.35,0,2.04,1.055,3.25,2.758,3.25a3.008,3.008,0,0,0,1.931-.69l-0.5-.72a2.357,2.357,0,0,1-1.379.48c-1,0-1.619-.69-1.619-2.34s0.624-2.42,1.619-2.42a2.163,2.163,0,0,1,1.355.46l0.528-.69A2.814,2.814,0,0,0,874.442,3910.54Zm6.108,0a2.268,2.268,0,0,0-1.871,1.01v-3.52l-1.1.12V3917h1.1v-4.5a1.928,1.928,0,0,1,1.6-1.1c0.6,0,1.007.27,1.007,1.22V3917h1.1v-4.53A1.739,1.739,0,0,0,880.55,3910.54Zm8.015,4.98v-2.89a1.922,1.922,0,0,0-2.219-2.09,6.142,6.142,0,0,0-2.183.43l0.276,0.8a5.51,5.51,0,0,1,1.7-.33,1.1,1.1,0,0,1,1.32,1.24v0.47H886.49c-1.763,0-2.782.73-2.782,2.09a1.836,1.836,0,0,0,2.015,1.9,2.147,2.147,0,0,0,1.883-.94,1.268,1.268,0,0,0,1.235.94l0.252-.76A0.754,0.754,0,0,1,888.565,3915.52Zm-2.591.8a1,1,0,0,1-1.091-1.14c0-.87.588-1.3,1.751-1.3h0.828v1.45A1.631,1.631,0,0,1,885.974,3916.32Zm7.308-5.78a1.8,1.8,0,0,0-1.691,1.42l-0.108-1.28h-0.948V3917h1.1v-3.61c0.263-1.21.719-1.78,1.511-1.78a1.893,1.893,0,0,1,.551.08l0.2-1.08A2.577,2.577,0,0,0,893.282,3910.54Zm5.6,4.98v-2.89a1.922,1.922,0,0,0-2.219-2.09,6.137,6.137,0,0,0-2.183.43l0.276,0.8a5.5,5.5,0,0,1,1.7-.33,1.1,1.1,0,0,1,1.319,1.24v0.47H896.81c-1.763,0-2.782.73-2.782,2.09a1.835,1.835,0,0,0,2.014,1.9,2.145,2.145,0,0,0,1.883-.94,1.27,1.27,0,0,0,1.236.94l0.252-.76A0.754,0.754,0,0,1,898.885,3915.52Zm-2.591.8a1,1,0,0,1-1.091-1.14c0-.87.588-1.3,1.751-1.3h0.827v1.45A1.629,1.629,0,0,1,896.294,3916.32Zm6.864-5.78c-1.715,0-2.759,1.34-2.759,3.35,0,2.04,1.056,3.25,2.759,3.25a3.01,3.01,0,0,0,1.931-.69l-0.5-.72a2.362,2.362,0,0,1-1.379.48c-1,0-1.619-.69-1.619-2.34s0.623-2.42,1.619-2.42a2.167,2.167,0,0,1,1.355.46l0.528-.69A2.816,2.816,0,0,0,903.158,3910.54Zm5.9,5.42a1.55,1.55,0,0,1-.84.27c-0.552,0-.756-0.3-0.756-0.93v-3.77h1.38l0.12-.85h-1.5v-1.56l-1.1.13v1.43h-1.1v0.85h1.1v3.81a1.587,1.587,0,0,0,1.7,1.8,2.39,2.39,0,0,0,1.415-.43Zm5.914-2.31c0-1.93-.9-3.11-2.6-3.11-1.631,0-2.627,1.4-2.627,3.37,0,2,1.032,3.23,2.8,3.23a3.456,3.456,0,0,0,2.207-.79l-0.48-.66a2.622,2.622,0,0,1-1.643.55c-0.912,0-1.6-.56-1.7-2.02h4.029C914.964,3914.07,914.976,3913.87,914.976,3913.65Zm-1.091-.25h-2.962c0.084-1.4.635-1.99,1.475-1.99,1,0,1.487.68,1.487,1.92v0.07Zm5.364-2.86a1.806,1.806,0,0,0-1.691,1.42l-0.108-1.28H916.5V3917h1.1v-3.61c0.264-1.21.72-1.78,1.511-1.78a1.905,1.905,0,0,1,.552.08l0.2-1.08A2.585,2.585,0,0,0,919.249,3910.54Zm3.181,0c-1.307,0-2.279.73-2.279,1.73,0,0.89.54,1.48,1.907,1.84,1.223,0.32,1.535.56,1.535,1.19a1.117,1.117,0,0,1-1.355.96,2.836,2.836,0,0,1-1.775-.62l-0.588.68a3.5,3.5,0,0,0,2.387.82c1.283,0,2.5-.6,2.5-1.92,0-1.1-.768-1.63-2.1-1.96-1.02-.27-1.356-0.51-1.356-1.02a0.961,0.961,0,0,1,1.164-.83,2.917,2.917,0,0,1,1.643.54l0.468-.69A3.335,3.335,0,0,0,922.43,3910.54Z" transform="translate(-871.656 -3887.66)"/>
</svg>
