<svg xmlns="http://www.w3.org/2000/svg" xmlns:xlink="http://www.w3.org/1999/xlink" viewBox="0 0 360 360"><defs><polygon id="a" points="0 0 177 0 177 177 0 177"/><polygon id="c" points="0 0 265 0 265 265.201 0 265.201"/><polygon id="e" points="0 0 265 0 265 265.201 0 265.201"/><path id="g" d="M155 22.71V154.3c0 12.54-8.81 22.71-19.68 22.71H41.68C30.8 177 22 166.83 22 154.29V22.7C22 10.17 30.81 0 41.68 0h93.64C146.2 0 155 10.17 155 22.71z"/><path id="h" d="M166 30.89V146.1c0 10.99-10.27 19.89-22.93 19.89H33.93C21.27 166 11 157.1 11 146.11V30.9C11 19.9 21.27 11 33.93 11h109.14C155.73 11 166 19.9 166 30.89z"/><path id="i" d="M177 41.68v93.64c0 10.87-10.17 19.68-22.71 19.68H22.7C10.17 155 0 146.19 0 135.32V41.68C0 30.8 10.17 22 22.71 22H154.3C166.83 22 177 30.81 177 41.68z"/></defs><g fill="none" fill-rule="evenodd"><g transform="translate(92 92)"><g transform="translate(0 181)"><rect width="1" height="9" fill="#ED00B5"/><rect width="1" height="9" x="176" fill="#ED00B5"/><rect width="177" height="1" y="4" fill="#ED00B5"/><rect width="37" height="22" x="70" y="12" fill="#ED00B5" fill-rule="nonzero" rx="2"/><path fill="#FFFFFF" d="M80.3 26.18V27h-4.76v-.82h2.03v-6.34l-1.89 1.14-.44-.71 2.46-1.54h.89v7.45h1.71zm6.14-4.27c.36.2.64.48.85.87a3 3 0 0 1 .31 1.44c0 .59-.12 1.1-.35 1.55A2.48 2.48 0 0 1 85 27.13c-.96 0-1.66-.35-2.1-1.04-.43-.7-.65-1.7-.65-2.99 0-.91.12-1.7.36-2.38.25-.68.6-1.2 1.06-1.57a2.56 2.56 0 0 1 1.65-.55c.6 0 1.15.16 1.64.5l-.4.66c-.38-.23-.8-.34-1.25-.34-.63 0-1.13.3-1.48.88-.36.6-.55 1.4-.56 2.43.25-.39.55-.67.87-.84.33-.18.7-.27 1.12-.27.43 0 .83.1 1.18.3zm-.27 3.86c.26-.36.4-.87.4-1.52 0-1.2-.49-1.81-1.47-1.81-.38 0-.73.1-1.03.32-.31.21-.57.5-.79.86.02.93.16 1.62.43 2.05.27.43.7.65 1.29.65.5 0 .9-.19 1.17-.55zm8.65-1.94c0 1-.2 1.8-.62 2.4-.42.6-1.02.9-1.81.9-.69 0-1.25-.24-1.68-.72v3.01l-1.01.12v-8.86h.86l.09.88c.23-.32.5-.58.83-.75.33-.18.68-.27 1.05-.27 1.53 0 2.3 1.1 2.3 3.3zm-3.41-2.18c-.27.19-.5.43-.7.72v3.13c.17.25.38.44.63.58.25.14.52.21.82.21.53 0 .92-.2 1.18-.6.26-.4.4-1.03.4-1.86 0-.83-.12-1.45-.36-1.86-.23-.4-.6-.61-1.09-.61-.32 0-.61.1-.88.29zM96.37 27l2.33-3.34-2.05-2.98h1.2l1.46 2.35 1.48-2.35h1.16l-2.05 2.94 2.33 3.38H101l-1.74-2.71L97.52 27h-1.15z"/><polygon fill="#ED00B5" points="84 12 88 8 92 12 88 16"/></g><g transform="translate(181)"><rect width="9" height="1" x=".61" fill="#ED00B5"/><rect width="9" height="1" x=".56" y="176" fill="#ED00B5"/><rect width="1" height="177" x="4.56" fill="#ED00B5"/><rect width="37" height="22" x="13" y="78" fill="#ED00B5" fill-rule="nonzero" rx="2"/><path fill="#FFFFFF" d="M23.3 92.18V93h-4.76v-.82h2.03v-6.34l-1.89 1.14-.44-.71 2.46-1.54h.89v7.45h1.71zm6.14-4.27c.36.2.64.48.85.87a3 3 0 0 1 .31 1.44c0 .59-.12 1.1-.35 1.55A2.48 2.48 0 0 1 28 93.13c-.96 0-1.66-.35-2.1-1.04-.43-.7-.65-1.7-.65-2.99 0-.91.12-1.7.36-2.38.25-.68.6-1.2 1.06-1.57a2.56 2.56 0 0 1 1.65-.55c.6 0 1.15.16 1.64.5l-.4.66c-.38-.23-.8-.34-1.25-.34-.63 0-1.13.3-1.48.88-.36.6-.55 1.4-.56 2.43.25-.39.55-.67.87-.84.33-.18.7-.27 1.12-.27.43 0 .83.1 1.18.3zm-.27 3.86c.26-.36.4-.87.4-1.52 0-1.2-.49-1.81-1.47-1.81-.38 0-.73.1-1.03.32-.31.21-.57.5-.79.86.02.93.16 1.62.43 2.05.27.43.7.65 1.29.65.5 0 .9-.19 1.17-.55zm8.65-1.94c0 1-.2 1.8-.62 2.4-.42.6-1.02.9-1.81.9-.69 0-1.25-.24-1.68-.72v3.01l-1.01.12v-8.86h.86l.09.88c.23-.32.5-.58.83-.75.33-.18.68-.27 1.05-.27 1.53 0 2.3 1.1 2.3 3.3zm-3.41-2.18c-.27.19-.5.43-.7.72v3.13c.17.25.38.44.63.58.25.14.52.21.82.21.53 0 .92-.2 1.18-.6.26-.4.4-1.03.4-1.86 0-.83-.12-1.45-.36-1.86-.23-.4-.6-.61-1.09-.61-.32 0-.61.1-.88.29zM39.37 93l2.33-3.34-2.05-2.98h1.2l1.46 2.35 1.48-2.35h1.16l-2.05 2.94L45.23 93H44l-1.74-2.71L40.52 93h-1.15z"/><polygon fill="#ED00B5" points="9 89 13 85 17 89 13 93"/></g></g><g transform="translate(92 92)"><mask id="b" fill="white"><use xlink:href="#a"/></mask><g mask="url(#b)"><mask id="d" fill="white"><use xlink:href="#c"/></mask><rect width="338" height="1" x="-1" fill="#D7D7DB" mask="url(#d)"/><rect width="338" height="1" x="-1" y="11" fill="#D7D7DB" mask="url(#d)" opacity=".3"/><rect width="338" height="1" x="-1" y="22" fill="#D7D7DB" mask="url(#d)" opacity=".3"/><rect width="338" height="1" x="-1" y="33" fill="#D7D7DB" mask="url(#d)" opacity=".3"/><rect width="338" height="1" x="-1" y="44" fill="#D7D7DB" mask="url(#d)"/><rect width="338" height="1" x="-1" y="55" fill="#D7D7DB" mask="url(#d)" opacity=".3"/><rect width="338" height="1" x="-1" y="66" fill="#D7D7DB" mask="url(#d)" opacity=".3"/><rect width="338" height="1" x="-1" y="77" fill="#D7D7DB" mask="url(#d)" opacity=".3"/><rect width="338" height="1" x="-1" y="88" fill="#D7D7DB" mask="url(#d)"/><rect width="338" height="1" x="-1" y="99" fill="#D7D7DB" mask="url(#d)" opacity=".3"/><rect width="338" height="1" x="-1" y="110" fill="#D7D7DB" mask="url(#d)" opacity=".3"/><rect width="338" height="1" x="-1" y="121" fill="#D7D7DB" mask="url(#d)" opacity=".3"/><rect width="338" height="1" x="-1" y="132" fill="#D7D7DB" mask="url(#d)"/><rect width="338" height="1" x="-1" y="143" fill="#D7D7DB" mask="url(#d)" opacity=".3"/><rect width="338" height="1" x="-1" y="154" fill="#D7D7DB" mask="url(#d)" opacity=".3"/><rect width="338" height="1" x="-1" y="165" fill="#D7D7DB" mask="url(#d)" opacity=".3"/><rect width="338" height="1" x="-1" y="176" fill="#D7D7DB" mask="url(#d)"/><rect width="338" height="1" x="-1" y="187" fill="#D7D7DB" mask="url(#d)" opacity=".3"/><rect width="338" height="1" x="-1" y="198" fill="#D7D7DB" mask="url(#d)" opacity=".3"/><rect width="338" height="1" x="-1" y="209" fill="#D7D7DB" mask="url(#d)" opacity=".3"/><rect width="338" height="1" x="-1" y="220" fill="#D7D7DB" mask="url(#d)"/><rect width="338" height="1" x="-1" y="231" fill="#D7D7DB" mask="url(#d)" opacity=".3"/><rect width="338" height="1" x="-1" y="242" fill="#D7D7DB" mask="url(#d)" opacity=".3"/><rect width="338" height="1" x="-1" y="253" fill="#D7D7DB" mask="url(#d)" opacity=".3"/><rect width="338" height="1" x="-1" y="264" fill="#D7D7DB" mask="url(#d)"/></g><g mask="url(#b)"><g transform="matrix(0 -1 1 0 0 265)"><mask id="f" fill="white"><use xlink:href="#e"/></mask><rect width="338" height="1" x="-73" fill="#D7D7DB" mask="url(#f)"/><rect width="338" height="1" x="-73" y="11" fill="#D7D7DB" mask="url(#f)" opacity=".3"/><rect width="338" height="1" x="-73" y="22" fill="#D7D7DB" mask="url(#f)" opacity=".3"/><rect width="338" height="1" x="-73" y="33" fill="#D7D7DB" mask="url(#f)" opacity=".3"/><rect width="338" height="1" x="-73" y="44" fill="#D7D7DB" mask="url(#f)"/><rect width="338" height="1" x="-73" y="55" fill="#D7D7DB" mask="url(#f)" opacity=".3"/><rect width="338" height="1" x="-73" y="66" fill="#D7D7DB" mask="url(#f)" opacity=".3"/><rect width="338" height="1" x="-73" y="77" fill="#D7D7DB" mask="url(#f)" opacity=".3"/><rect width="338" height="1" x="-73" y="88" fill="#D7D7DB" mask="url(#f)"/><rect width="338" height="1" x="-73" y="99" fill="#D7D7DB" mask="url(#f)" opacity=".3"/><rect width="338" height="1" x="-73" y="110" fill="#D7D7DB" mask="url(#f)" opacity=".3"/><rect width="338" height="1" x="-73" y="121" fill="#D7D7DB" mask="url(#f)" opacity=".3"/><rect width="338" height="1" x="-73" y="132" fill="#D7D7DB" mask="url(#f)"/><rect width="338" height="1" x="-73" y="143" fill="#D7D7DB" mask="url(#f)" opacity=".3"/><rect width="338" height="1" x="-73" y="154" fill="#D7D7DB" mask="url(#f)" opacity=".3"/><rect width="338" height="1" x="-73" y="165" fill="#D7D7DB" mask="url(#f)" opacity=".3"/><rect width="338" height="1" x="-73" y="176" fill="#D7D7DB" mask="url(#f)"/><rect width="338" height="1" x="-73" y="187" fill="#D7D7DB" mask="url(#f)" opacity=".3"/><rect width="338" height="1" x="-73" y="198" fill="#D7D7DB" mask="url(#f)" opacity=".3"/><rect width="338" height="1" x="-73" y="209" fill="#D7D7DB" mask="url(#f)" opacity=".3"/><rect width="338" height="1" x="-73" y="220" fill="#D7D7DB" mask="url(#f)"/><rect width="338" height="1" x="-73" y="231" fill="#D7D7DB" mask="url(#f)" opacity=".3"/><rect width="338" height="1" x="-73" y="242" fill="#D7D7DB" mask="url(#f)" opacity=".3"/><rect width="338" height="1" x="-73" y="253" fill="#D7D7DB" mask="url(#f)" opacity=".3"/><rect width="338" height="1" x="-73" y="264" fill="#D7D7DB" mask="url(#f)"/></g></g><rect width="165" height="165" x="6" y="6" stroke="#0C0C0D" stroke-opacity=".1" stroke-width="12"/><use fill="#FC2DD7" fill-opacity=".2" xlink:href="#g"/><path stroke="#ED00B5" d="M154.5 22.71C154.5 10.43 145.9.5 135.32.5H41.68C31.1.5 22.5 10.43 22.5 22.71V154.3c0 12.28 8.6 22.21 19.18 22.21h93.64c10.58 0 19.18-9.93 19.18-22.21V22.7z"/><use fill="#FC2DD7" fill-opacity=".2" xlink:href="#h"/><path stroke="#ED00B5" d="M165.5 30.89c0-10.7-10.03-19.39-22.43-19.39H33.93c-12.4 0-22.43 8.7-22.43 19.39V146.1c0 10.7 10.03 19.39 22.43 19.39h109.14c12.4 0 22.43-8.7 22.43-19.39V30.9z"/><g><use fill="#FC2DD7" fill-opacity=".2" xlink:href="#i"/><path stroke="#ED00B5" d="M176.5 41.68c0-10.58-9.93-19.18-22.21-19.18H22.7C10.43 22.5.5 31.1.5 41.68v93.64c0 10.58 9.93 19.18 22.21 19.18H154.3c12.28 0 22.21-8.6 22.21-19.18V41.68z"/></g></g></g></svg>