<svg xmlns="http://www.w3.org/2000/svg" xmlns:xlink="http://www.w3.org/1999/xlink" width="360" height="360" viewBox="0 0 360 360">
  <defs>
    <polygon id="icon-shape-stroke-1-a" points="0 0 177 0 177 177 0 177"/>
    <polygon id="icon-shape-stroke-1-c" points="0 0 265 0 265 265.201 0 265.201"/>
    <polygon id="icon-shape-stroke-1-e" points="0 0 265 0 265 265.201 0 265.201"/>
    <path id="icon-shape-stroke-1-g" d="M11.5,0 L11.5,0 C17.8512746,-1.16671022e-15 23,5.14872538 23,11.5 L23,143.5 L23,143.5 C23,149.851275 17.8512746,155 11.5,155 L11.5,155 L11.5,155 C5.14872538,155 -1.16566911e-14,149.851275 -1.24344979e-14,143.5 L0,11.5 C-7.77806814e-16,5.14872538 5.14872538,1.16671022e-15 11.5,0 L11.5,0 Z M72,0 C75.3137085,-6.08718376e-16 78,2.6862915 78,6 L78,149 C78,152.313708 75.3137085,155 72,155 C68.6862915,155 66,152.313708 66,149 L66,6 L66,6 C66,2.6862915 68.6862915,6.08718376e-16 72,0 Z"/>
    <rect id="icon-shape-stroke-1-h" width="23" height="177" x="136" y="92"/>
    <filter id="icon-shape-stroke-1-i" width="104.3%" height="100.6%" x="-2.2%" y="-.3%" filterUnits="objectBoundingBox">
      <feOffset dx="1" in="SourceAlpha" result="shadowOffsetInner1"/>
      <feComposite in="shadowOffsetInner1" in2="SourceAlpha" k2="-1" k3="1" operator="arithmetic" result="shadowInnerInner1"/>
      <feColorMatrix in="shadowInnerInner1" result="shadowMatrixInner1" values="0 0 0 0 0.929411765   0 0 0 0 0   0 0 0 0 0.709803922  0 0 0 1 0"/>
      <feOffset dx="-1" in="SourceAlpha" result="shadowOffsetInner2"/>
      <feComposite in="shadowOffsetInner2" in2="SourceAlpha" k2="-1" k3="1" operator="arithmetic" result="shadowInnerInner2"/>
      <feColorMatrix in="shadowInnerInner2" result="shadowMatrixInner2" values="0 0 0 0 0.929411765   0 0 0 0 0   0 0 0 0 0.709803922  0 0 0 1 0"/>
      <feMerge>
        <feMergeNode in="shadowMatrixInner1"/>
        <feMergeNode in="shadowMatrixInner2"/>
      </feMerge>
    </filter>
    <rect id="icon-shape-stroke-1-j" width="12" height="177" x="202" y="92"/>
    <filter id="icon-shape-stroke-1-k" width="108.3%" height="100.6%" x="-4.2%" y="-.3%" filterUnits="objectBoundingBox">
      <feOffset dx="1" in="SourceAlpha" result="shadowOffsetInner1"/>
      <feComposite in="shadowOffsetInner1" in2="SourceAlpha" k2="-1" k3="1" operator="arithmetic" result="shadowInnerInner1"/>
      <feColorMatrix in="shadowInnerInner1" result="shadowMatrixInner1" values="0 0 0 0 0.929411765   0 0 0 0 0   0 0 0 0 0.709803922  0 0 0 1 0"/>
      <feOffset dx="-1" in="SourceAlpha" result="shadowOffsetInner2"/>
      <feComposite in="shadowOffsetInner2" in2="SourceAlpha" k2="-1" k3="1" operator="arithmetic" result="shadowInnerInner2"/>
      <feColorMatrix in="shadowInnerInner2" result="shadowMatrixInner2" values="0 0 0 0 0.929411765   0 0 0 0 0   0 0 0 0 0.709803922  0 0 0 1 0"/>
      <feMerge>
        <feMergeNode in="shadowMatrixInner1"/>
        <feMergeNode in="shadowMatrixInner2"/>
      </feMerge>
    </filter>
  </defs>
  <g fill="none" fill-rule="evenodd">
    <g transform="translate(92 92)">
      <mask id="icon-shape-stroke-1-b" fill="#fff">
        <use xlink:href="#icon-shape-stroke-1-a"/>
      </mask>
      <g mask="url(#icon-shape-stroke-1-b)">
        <mask id="icon-shape-stroke-1-d" fill="#fff">
          <use xlink:href="#icon-shape-stroke-1-c"/>
        </mask>
        <rect width="338" height="1" x="-1" fill="#D7D7DB" mask="url(#icon-shape-stroke-1-d)"/>
        <rect width="338" height="1" x="-1" y="11" fill="#D7D7DB" mask="url(#icon-shape-stroke-1-d)" opacity=".3"/>
        <rect width="338" height="1" x="-1" y="22" fill="#D7D7DB" mask="url(#icon-shape-stroke-1-d)" opacity=".3"/>
        <rect width="338" height="1" x="-1" y="33" fill="#D7D7DB" mask="url(#icon-shape-stroke-1-d)" opacity=".3"/>
        <rect width="338" height="1" x="-1" y="44" fill="#D7D7DB" mask="url(#icon-shape-stroke-1-d)"/>
        <rect width="338" height="1" x="-1" y="55" fill="#D7D7DB" mask="url(#icon-shape-stroke-1-d)" opacity=".3"/>
        <rect width="338" height="1" x="-1" y="66" fill="#D7D7DB" mask="url(#icon-shape-stroke-1-d)" opacity=".3"/>
        <rect width="338" height="1" x="-1" y="77" fill="#D7D7DB" mask="url(#icon-shape-stroke-1-d)" opacity=".3"/>
        <rect width="338" height="1" x="-1" y="88" fill="#D7D7DB" mask="url(#icon-shape-stroke-1-d)"/>
        <rect width="338" height="1" x="-1" y="99" fill="#D7D7DB" mask="url(#icon-shape-stroke-1-d)" opacity=".3"/>
        <rect width="338" height="1" x="-1" y="110" fill="#D7D7DB" mask="url(#icon-shape-stroke-1-d)" opacity=".3"/>
        <rect width="338" height="1" x="-1" y="121" fill="#D7D7DB" mask="url(#icon-shape-stroke-1-d)" opacity=".3"/>
        <rect width="338" height="1" x="-1" y="132" fill="#D7D7DB" mask="url(#icon-shape-stroke-1-d)"/>
        <rect width="338" height="1" x="-1" y="143" fill="#D7D7DB" mask="url(#icon-shape-stroke-1-d)" opacity=".3"/>
        <rect width="338" height="1" x="-1" y="154" fill="#D7D7DB" mask="url(#icon-shape-stroke-1-d)" opacity=".3"/>
        <rect width="338" height="1" x="-1" y="165" fill="#D7D7DB" mask="url(#icon-shape-stroke-1-d)" opacity=".3"/>
        <rect width="338" height="1" x="-1" y="176" fill="#D7D7DB" mask="url(#icon-shape-stroke-1-d)"/>
      </g>
      <g mask="url(#icon-shape-stroke-1-b)">
        <g transform="matrix(0 -1 1 0 0 265)">
          <mask id="icon-shape-stroke-1-f" fill="#fff">
            <use xlink:href="#icon-shape-stroke-1-e"/>
          </mask>
          <rect width="338" height="1" x="-73" fill="#D7D7DB" mask="url(#icon-shape-stroke-1-f)"/>
          <rect width="338" height="1" x="-73" y="11" fill="#D7D7DB" mask="url(#icon-shape-stroke-1-f)" opacity=".3"/>
          <rect width="338" height="1" x="-73" y="22" fill="#D7D7DB" mask="url(#icon-shape-stroke-1-f)" opacity=".3"/>
          <rect width="338" height="1" x="-73" y="33" fill="#D7D7DB" mask="url(#icon-shape-stroke-1-f)" opacity=".3"/>
          <rect width="338" height="1" x="-73" y="44" fill="#D7D7DB" mask="url(#icon-shape-stroke-1-f)"/>
          <rect width="338" height="1" x="-73" y="55" fill="#D7D7DB" mask="url(#icon-shape-stroke-1-f)" opacity=".3"/>
          <rect width="338" height="1" x="-73" y="66" fill="#D7D7DB" mask="url(#icon-shape-stroke-1-f)" opacity=".3"/>
          <rect width="338" height="1" x="-73" y="77" fill="#D7D7DB" mask="url(#icon-shape-stroke-1-f)" opacity=".3"/>
          <rect width="338" height="1" x="-73" y="88" fill="#D7D7DB" mask="url(#icon-shape-stroke-1-f)"/>
          <rect width="338" height="1" x="-73" y="99" fill="#D7D7DB" mask="url(#icon-shape-stroke-1-f)" opacity=".3"/>
          <rect width="338" height="1" x="-73" y="110" fill="#D7D7DB" mask="url(#icon-shape-stroke-1-f)" opacity=".3"/>
          <rect width="338" height="1" x="-73" y="121" fill="#D7D7DB" mask="url(#icon-shape-stroke-1-f)" opacity=".3"/>
          <rect width="338" height="1" x="-73" y="132" fill="#D7D7DB" mask="url(#icon-shape-stroke-1-f)"/>
          <rect width="338" height="1" x="-73" y="143" fill="#D7D7DB" mask="url(#icon-shape-stroke-1-f)" opacity=".3"/>
          <rect width="338" height="1" x="-73" y="154" fill="#D7D7DB" mask="url(#icon-shape-stroke-1-f)" opacity=".3"/>
          <rect width="338" height="1" x="-73" y="165" fill="#D7D7DB" mask="url(#icon-shape-stroke-1-f)" opacity=".3"/>
          <rect width="338" height="1" x="-73" y="176" fill="#D7D7DB" mask="url(#icon-shape-stroke-1-f)"/>
        </g>
      </g>
      <rect width="165" height="165" x="6" y="6" stroke="#0C0C0D" stroke-opacity=".1" stroke-width="12"/>
    </g>
    <g transform="translate(136 102)">
      <use fill="#FFF" xlink:href="#icon-shape-stroke-1-g"/>
      <use fill="#0C0C0D" fill-opacity=".8" xlink:href="#icon-shape-stroke-1-g"/>
    </g>
    <rect width="1" height="9" x="158" y="79" fill="#ED00B5"/>
    <rect width="21" height="1" x="137" y="83" fill="#ED00B5"/>
    <rect width="1" height="9" x="136" y="79" fill="#ED00B5"/>
    <rect width="39" height="22" x="128" y="53" fill="#ED00B5" fill-rule="nonzero" rx="2"/>
    <path fill="#FFF" d="M140.754,59.9 C141.134002,60.100001 141.423999,60.3739983 141.624,60.722 C141.824001,61.0700017 141.924,61.4639978 141.924,61.904 C141.924,62.4160026 141.806001,62.9119976 141.57,63.392 C141.333999,63.8720024 140.956003,64.3979971 140.436,64.97 C139.915997,65.5420029 139.180005,66.2639956 138.228,67.136 L142.116,67.136 L141.996,68 L137.076,68 L137.076,67.184 C138.156005,66.1519948 138.957997,65.3440029 139.482,64.76 C140.006003,64.1759971 140.367999,63.6760021 140.568,63.26 C140.768001,62.8439979 140.868,62.4040023 140.868,61.94 C140.868,61.4759977 140.736001,61.1120013 140.472,60.848 C140.207999,60.5839987 139.844002,60.452 139.38,60.452 C138.987998,60.452 138.662001,60.5179993 138.402,60.65 C138.141999,60.7820007 137.876001,61.0079984 137.604,61.328 L136.908,60.788 C137.236002,60.379998 137.601998,60.080001 138.006,59.888 C138.410002,59.695999 138.883997,59.6 139.428,59.6 C139.932003,59.6 140.373998,59.699999 140.754,59.9 Z M149.724,64.832 C149.724,65.832005 149.516002,66.631997 149.1,67.232 C148.683998,67.832003 148.080004,68.132 147.288,68.132 C146.599997,68.132 146.040002,67.8920024 145.608,67.412 L145.608,70.424 L144.6,70.544 L144.6,61.676 L145.464,61.676 L145.548,62.564 C145.780001,62.2359984 146.057998,61.9840009 146.382,61.808 C146.706002,61.6319991 147.055998,61.544 147.432,61.544 C148.960008,61.544 149.724,62.639989 149.724,64.832 Z M146.31,62.648 C146.041999,62.840001 145.808001,63.0799986 145.608,63.368 L145.608,66.5 C145.776001,66.7480012 145.985999,66.9419993 146.238,67.082 C146.490001,67.2220007 146.763999,67.292 147.06,67.292 C147.588003,67.292 147.981999,67.090002 148.242,66.686 C148.502001,66.281998 148.632,65.6640042 148.632,64.832 C148.632,63.9999958 148.516001,63.380002 148.284,62.972 C148.051999,62.563998 147.688002,62.36 147.192,62.36 C146.871998,62.36 146.578001,62.455999 146.31,62.648 Z M151.272,68 L153.6,64.664 L151.548,61.676 L152.748,61.676 L154.212,64.028 L155.688,61.676 L156.852,61.676 L154.8,64.616 L157.128,68 L155.904,68 L154.164,65.288 L152.424,68 L151.272,68 Z"/>
    <polygon fill="#ED00B5" points="143 74 147 70 151 74 147 78"/>
    <rect width="1" height="9" x="213" y="79" fill="#ED00B5"/>
    <rect width="12" height="1" x="202" y="83" fill="#ED00B5"/>
    <rect width="1" height="9" x="202" y="79" fill="#ED00B5"/>
    <rect width="39" height="22" x="189" y="53" fill="#ED00B5" fill-rule="nonzero" rx="2"/>
    <polygon fill="#ED00B5" points="204 74 208 70 212 74 208 78"/>
    <use fill="#FC2DD7" fill-opacity=".25" xlink:href="#icon-shape-stroke-1-h"/>
    <use fill="#000" filter="url(#icon-shape-stroke-1-i)" xlink:href="#icon-shape-stroke-1-h"/>
    <rect width="1" height="26" x="147" y="253" fill="#EA1CB4"/>
    <rect width="1" height="25" x="208" y="254" fill="#ED00B5"/>
    <use fill="#FC2DD7" fill-opacity=".25" xlink:href="#icon-shape-stroke-1-j"/>
    <use fill="#000" filter="url(#icon-shape-stroke-1-k)" xlink:href="#icon-shape-stroke-1-j"/>
    <path stroke="#EA1CB4" stroke-width="1.8" d="M158.064824,245.914604 C153.672049,245.962782 150.420861,245.959994 144.498803,245.925217 C143.595891,245.919904 143.185875,245.917532 142.696995,245.914871 C140.408323,245.902414 138.667547,245.897493 136.934131,245.901022 C137.370762,251.616638 141.942256,256.1 147.5,256.1 C153.05334,256.1 157.621993,251.62374 158.064824,245.914604 Z"/>
    <path stroke="#ED00B5" stroke-width="1.8" d="M213.01893,251.912191 C210.96448,251.931105 209.296268,251.928722 206.431851,251.912602 C205.960785,251.909945 205.960785,251.909945 205.491945,251.90743 C204.513932,251.902329 203.727979,251.899757 202.978881,251.899966 C203.403322,254.287236 205.489843,256.1 208,256.1 C210.50587,256.1 212.58955,254.293423 213.01893,251.912191 Z"/>
    <path fill="#ED00B5" d="M189.192 286.53C188.823998 286.918002 188.336003 287.187999 187.728 287.34L190.188 291 188.94 291 186.672 287.46 185.556 287.46 185.556 291 184.524 291 184.524 282.732 186.636 282.732C187.660005 282.732 188.433997 282.927998 188.958 283.32 189.482003 283.712002 189.744 284.291996 189.744 285.06 189.744 285.652003 189.560002 286.141998 189.192 286.53zM188.184 283.92C187.879998 283.687999 187.404003 283.572 186.756 283.572L185.556 283.572 185.556 286.644 186.768 286.644C187.384003 286.644 187.849998 286.518001 188.166 286.266 188.482002 286.013999 188.64 285.612003 188.64 285.06 188.64 284.531997 188.488002 284.152001 188.184 283.92zM196.122 285.426C196.590002 286.014003 196.824 286.815995 196.824 287.832 196.824 288.824005 196.586002 289.621997 196.11 290.226 195.633998 290.830003 194.964004 291.132 194.1 291.132 193.227996 291.132 192.556002 290.838003 192.084 290.25 191.611998 289.661997 191.376 288.860005 191.376 287.844 191.376 286.843995 191.613998 286.044003 192.09 285.444 192.566002 284.843997 193.239996 284.544 194.112 284.544 194.984004 284.544 195.653998 284.837997 196.122 285.426zM192.876 285.984C192.603999 286.392002 192.468 287.011996 192.468 287.844 192.468 288.676004 192.601999 289.293998 192.87 289.698 193.138001 290.102002 193.547997 290.304 194.1 290.304 194.652003 290.304 195.061999 290.102002 195.33 289.698 195.598001 289.293998 195.732 288.672004 195.732 287.832 195.732 286.999996 195.598001 286.382002 195.33 285.978 195.061999 285.573998 194.656003 285.372 194.112 285.372 193.559997 285.372 193.148001 285.575998 192.876 285.984zM199.908 289.164C199.908 289.572002 199.993999 289.869999 200.166 290.058 200.338001 290.246001 200.607998 290.34 200.976 290.34 201.312002 290.34 201.635998 290.244001 201.948 290.052 202.260002 289.859999 202.507999 289.620001 202.692 289.332L202.692 284.676 203.7 284.676 203.7 291 202.836 291 202.752 290.148C202.503999 290.460002 202.198002 290.701999 201.834 290.874 201.469998 291.046001 201.100002 291.132 200.724 291.132 200.123997 291.132 199.670002 290.972002 199.362 290.652 199.053998 290.331998 198.9 289.872003 198.9 289.272L198.9 284.676 199.908 284.676 199.908 289.164zM206.1 284.676L206.964 284.676 207.048 285.564C207.296001 285.243998 207.609998 284.994001 207.99 284.814 208.370002 284.633999 208.751998 284.544 209.136 284.544 210.320006 284.544 210.912 285.167994 210.912 286.416L210.912 291 209.904 291 209.904 287.16C209.904 286.687998 209.878 286.328001 209.826 286.08 209.774 285.831999 209.672001 285.648001 209.52 285.528 209.367999 285.407999 209.136002 285.348 208.824 285.348 208.479998 285.348 208.156002 285.451999 207.852 285.66 207.547998 285.868001 207.300001 286.115999 207.108 286.404L207.108 291 206.1 291 206.1 284.676zM218.1 282.132L218.1 291 217.212 291 217.116 290.172C216.883999 290.492002 216.616002 290.731999 216.312 290.892 216.007998 291.052001 215.680002 291.132 215.328 291.132 214.527996 291.132 213.926002 290.840003 213.522 290.256 213.117998 289.671997 212.916 288.868005 212.916 287.844 212.916 287.211997 213.015999 286.646003 213.216 286.146 213.416001 285.645997 213.701998 285.254001 214.074 284.97 214.446002 284.685999 214.883997 284.544 215.388 284.544 216.084003 284.544 216.651998 284.795997 217.092 285.3L217.092 282.012 218.1 282.132zM214.434 285.984C214.149999 286.400002 214.008 287.019996 214.008 287.844 214.008 288.660004 214.137999 289.277998 214.398 289.698 214.658001 290.118002 215.035998 290.328 215.532 290.328 216.132003 290.328 216.651998 289.992003 217.092 289.32L217.092 286.176C216.915999 285.911999 216.704001 285.710001 216.456 285.57 216.207999 285.429999 215.940001 285.36 215.652 285.36 215.123997 285.36 214.718001 285.567998 214.434 285.984zM221.85 289.764C222.190002 290.116002 222.619997 290.292 223.14 290.292 223.452002 290.292 223.737999 290.246 223.998 290.154 224.258001 290.062 224.535999 289.920001 224.832 289.728L225.3 290.4C225.003999 290.632001 224.666002 290.811999 224.286 290.94 223.905998 291.068001 223.524002 291.132 223.14 291.132 222.227995 291.132 221.518003 290.834003 221.01 290.238 220.501997 289.641997 220.248 288.844005 220.248 287.844 220.248 287.211997 220.359999 286.646003 220.584 286.146 220.808001 285.645998 221.127998 285.254001 221.544 284.97 221.960002 284.685999 222.443997 284.544 222.996 284.544 223.796004 284.544 224.425998 284.821997 224.886 285.378 225.346002 285.934003 225.576 286.691995 225.576 287.652 225.576 287.836001 225.568 288.015999 225.552 288.192L221.304 288.192C221.328 288.888003 221.509998 289.411998 221.85 289.764zM221.82 285.894C221.515998 286.242002 221.344 286.751997 221.304 287.424L224.592 287.424C224.584 286.759997 224.440001 286.252002 224.16 285.9 223.879999 285.547998 223.496002 285.372 223.008 285.372 222.519998 285.372 222.124002 285.545998 221.82 285.894zM232.5 282.132L232.5 291 231.612 291 231.516 290.172C231.283999 290.492002 231.016002 290.731999 230.712 290.892 230.407998 291.052001 230.080002 291.132 229.728 291.132 228.927996 291.132 228.326002 290.840003 227.922 290.256 227.517998 289.671997 227.316 288.868005 227.316 287.844 227.316 287.211997 227.415999 286.646003 227.616 286.146 227.816001 285.645997 228.101998 285.254001 228.474 284.97 228.846002 284.685999 229.283997 284.544 229.788 284.544 230.484003 284.544 231.051998 284.795997 231.492 285.3L231.492 282.012 232.5 282.132zM228.834 285.984C228.549999 286.400002 228.408 287.019996 228.408 287.844 228.408 288.660004 228.537999 289.277998 228.798 289.698 229.058001 290.118002 229.435998 290.328 229.932 290.328 230.532003 290.328 231.051998 289.992003 231.492 289.32L231.492 286.176C231.315999 285.911999 231.104001 285.710001 230.856 285.57 230.607999 285.429999 230.340001 285.36 230.052 285.36 229.523997 285.36 229.118001 285.567998 228.834 285.984zM128.192 286.53C127.823998 286.918002 127.336003 287.187999 126.728 287.34L129.188 291 127.94 291 125.672 287.46 124.556 287.46 124.556 291 123.524 291 123.524 282.732 125.636 282.732C126.660005 282.732 127.433997 282.927998 127.958 283.32 128.482003 283.712002 128.744 284.291996 128.744 285.06 128.744 285.652003 128.560002 286.141998 128.192 286.53zM127.184 283.92C126.879998 283.687999 126.404003 283.572 125.756 283.572L124.556 283.572 124.556 286.644 125.768 286.644C126.384003 286.644 126.849998 286.518001 127.166 286.266 127.482002 286.013999 127.64 285.612003 127.64 285.06 127.64 284.531997 127.488002 284.152001 127.184 283.92zM135.122 285.426C135.590002 286.014003 135.824 286.815995 135.824 287.832 135.824 288.824005 135.586002 289.621997 135.11 290.226 134.633998 290.830003 133.964004 291.132 133.1 291.132 132.227996 291.132 131.556002 290.838003 131.084 290.25 130.611998 289.661997 130.376 288.860005 130.376 287.844 130.376 286.843995 130.613998 286.044003 131.09 285.444 131.566002 284.843997 132.239996 284.544 133.112 284.544 133.984004 284.544 134.653998 284.837997 135.122 285.426zM131.876 285.984C131.603999 286.392002 131.468 287.011996 131.468 287.844 131.468 288.676004 131.601999 289.293998 131.87 289.698 132.138001 290.102002 132.547997 290.304 133.1 290.304 133.652003 290.304 134.061999 290.102002 134.33 289.698 134.598001 289.293998 134.732 288.672004 134.732 287.832 134.732 286.999996 134.598001 286.382002 134.33 285.978 134.061999 285.573998 133.656003 285.372 133.112 285.372 132.559997 285.372 132.148001 285.575998 131.876 285.984zM138.908 289.164C138.908 289.572002 138.993999 289.869999 139.166 290.058 139.338001 290.246001 139.607998 290.34 139.976 290.34 140.312002 290.34 140.635998 290.244001 140.948 290.052 141.260002 289.859999 141.507999 289.620001 141.692 289.332L141.692 284.676 142.7 284.676 142.7 291 141.836 291 141.752 290.148C141.503999 290.460002 141.198002 290.701999 140.834 290.874 140.469998 291.046001 140.100002 291.132 139.724 291.132 139.123997 291.132 138.670002 290.972002 138.362 290.652 138.053998 290.331998 137.9 289.872003 137.9 289.272L137.9 284.676 138.908 284.676 138.908 289.164zM145.1 284.676L145.964 284.676 146.048 285.564C146.296001 285.243998 146.609998 284.994001 146.99 284.814 147.370002 284.633999 147.751998 284.544 148.136 284.544 149.320006 284.544 149.912 285.167994 149.912 286.416L149.912 291 148.904 291 148.904 287.16C148.904 286.687998 148.878 286.328001 148.826 286.08 148.774 285.831999 148.672001 285.648001 148.52 285.528 148.367999 285.407999 148.136002 285.348 147.824 285.348 147.479998 285.348 147.156002 285.451999 146.852 285.66 146.547998 285.868001 146.300001 286.115999 146.108 286.404L146.108 291 145.1 291 145.1 284.676zM157.1 282.132L157.1 291 156.212 291 156.116 290.172C155.883999 290.492002 155.616002 290.731999 155.312 290.892 155.007998 291.052001 154.680002 291.132 154.328 291.132 153.527996 291.132 152.926002 290.840003 152.522 290.256 152.117998 289.671997 151.916 288.868005 151.916 287.844 151.916 287.211997 152.015999 286.646003 152.216 286.146 152.416001 285.645997 152.701998 285.254001 153.074 284.97 153.446002 284.685999 153.883997 284.544 154.388 284.544 155.084003 284.544 155.651998 284.795997 156.092 285.3L156.092 282.012 157.1 282.132zM153.434 285.984C153.149999 286.400002 153.008 287.019996 153.008 287.844 153.008 288.660004 153.137999 289.277998 153.398 289.698 153.658001 290.118002 154.035998 290.328 154.532 290.328 155.132003 290.328 155.651998 289.992003 156.092 289.32L156.092 286.176C155.915999 285.911999 155.704001 285.710001 155.456 285.57 155.207999 285.429999 154.940001 285.36 154.652 285.36 154.123997 285.36 153.718001 285.567998 153.434 285.984zM160.85 289.764C161.190002 290.116002 161.619997 290.292 162.14 290.292 162.452002 290.292 162.737999 290.246 162.998 290.154 163.258001 290.062 163.535999 289.920001 163.832 289.728L164.3 290.4C164.003999 290.632001 163.666002 290.811999 163.286 290.94 162.905998 291.068001 162.524002 291.132 162.14 291.132 161.227995 291.132 160.518003 290.834003 160.01 290.238 159.501997 289.641997 159.248 288.844005 159.248 287.844 159.248 287.211997 159.359999 286.646003 159.584 286.146 159.808001 285.645998 160.127998 285.254001 160.544 284.97 160.960002 284.685999 161.443997 284.544 161.996 284.544 162.796004 284.544 163.425998 284.821997 163.886 285.378 164.346002 285.934003 164.576 286.691995 164.576 287.652 164.576 287.836001 164.568 288.015999 164.552 288.192L160.304 288.192C160.328 288.888003 160.509998 289.411998 160.85 289.764zM160.82 285.894C160.515998 286.242002 160.344 286.751997 160.304 287.424L163.592 287.424C163.584 286.759997 163.440001 286.252002 163.16 285.9 162.879999 285.547998 162.496002 285.372 162.008 285.372 161.519998 285.372 161.124002 285.545998 160.82 285.894zM171.5 282.132L171.5 291 170.612 291 170.516 290.172C170.283999 290.492002 170.016002 290.731999 169.712 290.892 169.407998 291.052001 169.080002 291.132 168.728 291.132 167.927996 291.132 167.326002 290.840003 166.922 290.256 166.517998 289.671997 166.316 288.868005 166.316 287.844 166.316 287.211997 166.415999 286.646003 166.616 286.146 166.816001 285.645997 167.101998 285.254001 167.474 284.97 167.846002 284.685999 168.283997 284.544 168.788 284.544 169.484003 284.544 170.051998 284.795997 170.492 285.3L170.492 282.012 171.5 282.132zM167.834 285.984C167.549999 286.400002 167.408 287.019996 167.408 287.844 167.408 288.660004 167.537999 289.277998 167.798 289.698 168.058001 290.118002 168.435998 290.328 168.932 290.328 169.532003 290.328 170.051998 289.992003 170.492 289.32L170.492 286.176C170.315999 285.911999 170.104001 285.710001 169.856 285.57 169.607999 285.429999 169.340001 285.36 169.052 285.36 168.523997 285.36 168.118001 285.567998 167.834 285.984z"/>
    <path fill="#FFF" d="M202.688,67.184 L202.688,59.732 L201.8,59.732 L199.34,61.268 L199.784,61.976 L201.668,60.836 L201.668,67.184 L199.64,67.184 L199.64,68 L204.404,68 L204.404,67.184 L202.688,67.184 Z M209.432,61.544 C211.112,61.544 211.724,62.852 211.724,64.832 C211.724,66.752 210.932,68.132 209.288,68.132 C208.592,68.132 208.04,67.892 207.608,67.412 L207.608,70.424 L206.6,70.544 L206.6,61.676 L207.464,61.676 L207.548,62.564 C208.004,61.916 208.676,61.544 209.432,61.544 Z M209.192,62.36 C208.496,62.36 207.956,62.864 207.608,63.368 L207.608,66.5 C207.944,66.992 208.46,67.292 209.06,67.292 C210.104,67.292 210.632,66.512 210.632,64.832 C210.632,63.188 210.188,62.36 209.192,62.36 Z M214.424,68 L216.164,65.288 L217.904,68 L219.128,68 L216.8,64.616 L218.852,61.676 L217.688,61.676 L216.212,64.028 L214.748,61.676 L213.548,61.676 L215.6,64.664 L213.272,68 L214.424,68 Z"/>
  </g>
</svg>
