<svg xmlns="http://www.w3.org/2000/svg" width="385" height="106" viewBox="0 0 385 106">
  <path fill="#0C0C0D" fill-rule="evenodd" d="M58.8457031,59 L58.8457031,47.0219727 L56.3388672,47.0219727 L52.7363281,55.7460938 L52.5869141,55.7460938 L48.984375,47.0219727 L46.4775391,47.0219727 L46.4775391,59 L48.4697266,59 L48.4697266,50.574707 L48.5859375,50.574707 L51.8979492,58.5351562 L53.425293,58.5351562 L56.7373047,50.574707 L56.8535156,50.574707 L56.8535156,59 L58.8457031,59 Z M69.4873047,49.9189453 L67.4287109,49.9189453 L67.4287109,55.206543 C67.4287109,56.5512695 66.6982422,57.3730469 65.3618164,57.3730469 C64.1333008,57.3730469 63.5605469,56.6923828 63.5605469,55.3061523 L63.5605469,49.9189453 L61.5019531,49.9189453 L61.5019531,55.8208008 C61.5019531,57.9458008 62.6640625,59.1826172 64.6479492,59.1826172 C66.0341797,59.1826172 66.9223633,58.5932617 67.3623047,57.5556641 L67.503418,57.5556641 L67.503418,59 L69.4873047,59 L69.4873047,49.9189453 Z M71.8032227,52.5170898 C71.8032227,53.8867188 72.625,54.6918945 74.3681641,55.090332 L75.9785156,55.4638672 C76.8417969,55.6547852 77.2319336,55.9785156 77.2319336,56.4931641 C77.2319336,57.1655273 76.5097656,57.6220703 75.472168,57.6220703 C74.4428711,57.6220703 73.8037109,57.2236328 73.6044922,56.5512695 L71.5708008,56.5512695 C71.7285156,58.203125 73.15625,59.1826172 75.4223633,59.1826172 C77.6884766,59.1826172 79.2905273,58.0205078 79.2905273,56.2773438 C79.2905273,54.940918 78.4853516,54.1938477 76.7504883,53.8037109 L75.1484375,53.4384766 C74.2353516,53.230957 73.8037109,52.9155273 73.8037109,52.4008789 C73.8037109,51.7451172 74.5092773,51.296875 75.4472656,51.296875 C76.4101562,51.296875 77.0161133,51.7036133 77.1655273,52.3427734 L79.0996094,52.3427734 C78.9501953,50.690918 77.597168,49.7363281 75.4389648,49.7363281 C73.2973633,49.7363281 71.8032227,50.8735352 71.8032227,52.5170898 Z M81.9716797,47.6943359 L81.9716797,49.9770508 L80.5356445,49.9770508 L80.5356445,51.6206055 L81.9716797,51.6206055 L81.9716797,56.5761719 C81.9716797,58.3359375 82.8017578,59.0415039 84.8852539,59.0415039 C85.2836914,59.0415039 85.6655273,59 85.9643555,58.9418945 L85.9643555,57.331543 C85.715332,57.3564453 85.5576172,57.3730469 85.2670898,57.3730469 C84.4038086,57.3730469 84.0219727,56.9746094 84.0219727,56.078125 L84.0219727,51.6206055 L85.9643555,51.6206055 L85.9643555,49.9770508 L84.0219727,49.9770508 L84.0219727,47.6943359 L81.9716797,47.6943359 Z M97.6020508,59.1494141 C96.3320312,59.1494141 95.277832,58.5600586 94.7631836,57.5639648 L94.6220703,57.5639648 L94.6220703,59 L92.6381836,59 L92.6381836,46.4077148 L94.6967773,46.4077148 L94.6967773,51.3632812 L94.8378906,51.3632812 C95.3110352,50.3754883 96.3569336,49.7695312 97.6020508,49.7695312 C99.9013672,49.7695312 101.329102,51.5541992 101.329102,54.4594727 C101.329102,57.3481445 99.8930664,59.1494141 97.6020508,59.1494141 Z M96.9545898,51.5209961 C95.5517578,51.5209961 94.6635742,52.6499023 94.6635742,54.4594727 C94.6635742,56.269043 95.543457,57.3979492 96.9545898,57.3979492 C98.3657227,57.3979492 99.2124023,56.2856445 99.2124023,54.4594727 C99.2124023,52.6333008 98.3574219,51.5209961 96.9545898,51.5209961 Z M107.206055,51.371582 C105.977539,51.371582 105.114258,52.2514648 105.022949,53.5795898 L109.297852,53.5795898 C109.256348,52.2348633 108.442871,51.371582 107.206055,51.371582 Z M109.314453,56.5014648 L111.265137,56.5014648 C110.875,58.1533203 109.372559,59.1826172 107.230957,59.1826172 C104.558105,59.1826172 102.947754,57.4145508 102.947754,54.4926758 C102.947754,51.5708008 104.583008,49.7363281 107.214355,49.7363281 C109.804199,49.7363281 111.356445,51.4545898 111.356445,54.3183594 L111.356445,54.9824219 L105.014648,54.9824219 L105.014648,55.090332 C105.064453,56.6010742 105.936035,57.5473633 107.289062,57.5473633 C108.310059,57.5473633 109.015625,57.1738281 109.314453,56.5014648 Z M121.060059,57.5307617 C122.305176,57.5307617 123.234863,56.7255859 123.234863,55.6713867 L123.234863,54.9492188 L121.18457,55.0820312 C120.030762,55.1567383 119.491211,55.5717773 119.491211,56.3105469 C119.491211,57.0742188 120.146973,57.5307617 121.060059,57.5307617 Z M120.454102,59.1494141 C118.702637,59.1494141 117.449219,58.0869141 117.449219,56.4267578 C117.449219,54.7832031 118.686035,53.8369141 120.894043,53.7041016 L123.234863,53.5629883 L123.234863,52.7993164 C123.234863,51.9111328 122.637207,51.4130859 121.524902,51.4130859 C120.578613,51.4130859 119.931152,51.7451172 119.740234,52.359375 L117.797852,52.359375 C117.963867,50.7573242 119.466309,49.7363281 121.624512,49.7363281 C123.957031,49.7363281 125.268555,50.8735352 125.268555,52.7993164 L125.268555,59 L123.284668,59 L123.284668,57.7548828 L123.143555,57.7548828 C122.637207,58.6347656 121.641113,59.1494141 120.454102,59.1494141 Z M128.397949,47.6943359 L128.397949,49.9770508 L126.961914,49.9770508 L126.961914,51.6206055 L128.397949,51.6206055 L128.397949,56.5761719 C128.397949,58.3359375 129.228027,59.0415039 131.311523,59.0415039 C131.709961,59.0415039 132.091797,59 132.390625,58.9418945 L132.390625,57.331543 C132.141602,57.3564453 131.983887,57.3730469 131.693359,57.3730469 C130.830078,57.3730469 130.448242,56.9746094 130.448242,56.078125 L130.448242,51.6206055 L132.390625,51.6206055 L132.390625,49.9770508 L130.448242,49.9770508 L130.448242,47.6943359 L128.397949,47.6943359 Z M139.064453,59 L141.123047,59 L141.123047,46.4077148 L139.064453,46.4077148 L139.064453,59 Z M147.53125,51.371582 C146.302734,51.371582 145.439453,52.2514648 145.348145,53.5795898 L149.623047,53.5795898 C149.581543,52.2348633 148.768066,51.371582 147.53125,51.371582 Z M149.639648,56.5014648 L151.590332,56.5014648 C151.200195,58.1533203 149.697754,59.1826172 147.556152,59.1826172 C144.883301,59.1826172 143.272949,57.4145508 143.272949,54.4926758 C143.272949,51.5708008 144.908203,49.7363281 147.539551,49.7363281 C150.129395,49.7363281 151.681641,51.4545898 151.681641,54.3183594 L151.681641,54.9824219 L145.339844,54.9824219 L145.339844,55.090332 C145.389648,56.6010742 146.26123,57.5473633 147.614258,57.5473633 C148.635254,57.5473633 149.34082,57.1738281 149.639648,56.5014648 Z M156.853027,57.5307617 C158.098145,57.5307617 159.027832,56.7255859 159.027832,55.6713867 L159.027832,54.9492188 L156.977539,55.0820312 C155.82373,55.1567383 155.28418,55.5717773 155.28418,56.3105469 C155.28418,57.0742188 155.939941,57.5307617 156.853027,57.5307617 Z M156.24707,59.1494141 C154.495605,59.1494141 153.242188,58.0869141 153.242188,56.4267578 C153.242188,54.7832031 154.479004,53.8369141 156.687012,53.7041016 L159.027832,53.5629883 L159.027832,52.7993164 C159.027832,51.9111328 158.430176,51.4130859 157.317871,51.4130859 C156.371582,51.4130859 155.724121,51.7451172 155.533203,52.359375 L153.59082,52.359375 C153.756836,50.7573242 155.259277,49.7363281 157.41748,49.7363281 C159.75,49.7363281 161.061523,50.8735352 161.061523,52.7993164 L161.061523,59 L159.077637,59 L159.077637,57.7548828 L158.936523,57.7548828 C158.430176,58.6347656 157.434082,59.1494141 156.24707,59.1494141 Z M163.327637,52.5170898 C163.327637,53.8867188 164.149414,54.6918945 165.892578,55.090332 L167.50293,55.4638672 C168.366211,55.6547852 168.756348,55.9785156 168.756348,56.4931641 C168.756348,57.1655273 168.03418,57.6220703 166.996582,57.6220703 C165.967285,57.6220703 165.328125,57.2236328 165.128906,56.5512695 L163.095215,56.5512695 C163.25293,58.203125 164.680664,59.1826172 166.946777,59.1826172 C169.212891,59.1826172 170.814941,58.0205078 170.814941,56.2773438 C170.814941,54.940918 170.009766,54.1938477 168.274902,53.8037109 L166.672852,53.4384766 C165.759766,53.230957 165.328125,52.9155273 165.328125,52.4008789 C165.328125,51.7451172 166.033691,51.296875 166.97168,51.296875 C167.93457,51.296875 168.540527,51.7036133 168.689941,52.3427734 L170.624023,52.3427734 C170.474609,50.690918 169.121582,49.7363281 166.963379,49.7363281 C164.821777,49.7363281 163.327637,50.8735352 163.327637,52.5170898 Z M173.496094,47.6943359 L173.496094,49.9770508 L172.060059,49.9770508 L172.060059,51.6206055 L173.496094,51.6206055 L173.496094,56.5761719 C173.496094,58.3359375 174.326172,59.0415039 176.409668,59.0415039 C176.808105,59.0415039 177.189941,59 177.48877,58.9418945 L177.48877,57.331543 C177.239746,57.3564453 177.082031,57.3730469 176.791504,57.3730469 C175.928223,57.3730469 175.546387,56.9746094 175.546387,56.078125 L175.546387,51.6206055 L177.48877,51.6206055 L177.48877,49.9770508 L175.546387,49.9770508 L175.546387,47.6943359 L173.496094,47.6943359 Z M188.537109,59.2988281 C185.789551,59.2988281 183.896973,57.8710938 183.896973,55.7958984 C183.896973,54.2768555 184.917969,53.0732422 186.486816,52.7412109 L186.486816,52.6000977 C185.208496,52.284668 184.378418,51.2470703 184.378418,49.96875 C184.378418,48.0761719 186.113281,46.7231445 188.54541,46.7231445 C190.977539,46.7231445 192.704102,48.0761719 192.704102,49.96875 C192.704102,51.2553711 191.890625,52.2763672 190.604004,52.6000977 L190.604004,52.7412109 C192.164551,53.0317383 193.193848,54.2436523 193.193848,55.7875977 C193.193848,57.8710938 191.30127,59.2988281 188.537109,59.2988281 Z M188.54541,57.6303711 C189.989746,57.6303711 190.977539,56.8085938 190.977539,55.6132812 C190.977539,54.4179688 189.981445,53.5961914 188.54541,53.5961914 C187.101074,53.5961914 186.10498,54.4179688 186.10498,55.6132812 C186.10498,56.8085938 187.101074,57.6303711 188.54541,57.6303711 Z M188.54541,51.9526367 C189.757324,51.9526367 190.595703,51.2304688 190.595703,50.1762695 C190.595703,49.1054688 189.765625,48.3666992 188.54541,48.3666992 C187.316895,48.3666992 186.486816,49.1054688 186.486816,50.1762695 C186.486816,51.2304688 187.325195,51.9526367 188.54541,51.9526367 Z M207.911133,52.9736328 C207.695312,51.0644531 206.28418,49.7363281 203.95166,49.7363281 C201.220703,49.7363281 199.618652,51.487793 199.618652,54.4345703 C199.618652,57.4228516 201.229004,59.1826172 203.959961,59.1826172 C206.259277,59.1826172 207.687012,57.9042969 207.911133,56.003418 L205.952148,56.003418 C205.736328,56.949707 205.022461,57.4560547 203.95166,57.4560547 C202.548828,57.4560547 201.702148,56.34375 201.702148,54.4345703 C201.702148,52.550293 202.540527,51.4628906 203.95166,51.4628906 C205.080566,51.4628906 205.76123,52.09375 205.952148,52.9736328 L207.911133,52.9736328 Z M209.961426,59 L212.02002,59 L212.02002,53.7290039 C212.02002,52.4257812 212.775391,51.5458984 214.128418,51.5458984 C215.32373,51.5458984 215.95459,52.2514648 215.95459,53.6293945 L215.95459,59 L218.013184,59 L218.013184,53.1396484 C218.013184,50.9814453 216.834473,49.7529297 214.89209,49.7529297 C213.539063,49.7529297 212.567871,50.3671875 212.13623,51.3881836 L211.986816,51.3881836 L211.986816,46.4077148 L209.961426,46.4077148 L209.961426,59 Z M223.558105,57.5307617 C224.803223,57.5307617 225.73291,56.7255859 225.73291,55.6713867 L225.73291,54.9492188 L223.682617,55.0820312 C222.528809,55.1567383 221.989258,55.5717773 221.989258,56.3105469 C221.989258,57.0742188 222.64502,57.5307617 223.558105,57.5307617 Z M222.952148,59.1494141 C221.200684,59.1494141 219.947266,58.0869141 219.947266,56.4267578 C219.947266,54.7832031 221.184082,53.8369141 223.39209,53.7041016 L225.73291,53.5629883 L225.73291,52.7993164 C225.73291,51.9111328 225.135254,51.4130859 224.022949,51.4130859 C223.07666,51.4130859 222.429199,51.7451172 222.238281,52.359375 L220.295898,52.359375 C220.461914,50.7573242 221.964355,49.7363281 224.122559,49.7363281 C226.455078,49.7363281 227.766602,50.8735352 227.766602,52.7993164 L227.766602,59 L225.782715,59 L225.782715,57.7548828 L225.641602,57.7548828 C225.135254,58.6347656 224.13916,59.1494141 222.952148,59.1494141 Z M230.240234,59 L232.298828,59 L232.298828,53.7539062 C232.298828,52.4838867 233.228516,51.6538086 234.564941,51.6538086 C234.913574,51.6538086 235.461426,51.7119141 235.619141,51.7700195 L235.619141,49.8608398 C235.428223,49.8027344 235.062988,49.7695312 234.76416,49.7695312 C233.59375,49.7695312 232.614258,50.4335938 232.365234,51.3300781 L232.224121,51.3300781 L232.224121,49.9189453 L230.240234,49.9189453 L230.240234,59 Z M240.300781,57.5307617 C241.545898,57.5307617 242.475586,56.7255859 242.475586,55.6713867 L242.475586,54.9492188 L240.425293,55.0820312 C239.271484,55.1567383 238.731934,55.5717773 238.731934,56.3105469 C238.731934,57.0742188 239.387695,57.5307617 240.300781,57.5307617 Z M239.694824,59.1494141 C237.943359,59.1494141 236.689941,58.0869141 236.689941,56.4267578 C236.689941,54.7832031 237.926758,53.8369141 240.134766,53.7041016 L242.475586,53.5629883 L242.475586,52.7993164 C242.475586,51.9111328 241.87793,51.4130859 240.765625,51.4130859 C239.819336,51.4130859 239.171875,51.7451172 238.980957,52.359375 L237.038574,52.359375 C237.20459,50.7573242 238.707031,49.7363281 240.865234,49.7363281 C243.197754,49.7363281 244.509277,50.8735352 244.509277,52.7993164 L244.509277,59 L242.525391,59 L242.525391,57.7548828 L242.384277,57.7548828 C241.87793,58.6347656 240.881836,59.1494141 239.694824,59.1494141 Z M254.827148,52.9736328 C254.611328,51.0644531 253.200195,49.7363281 250.867676,49.7363281 C248.136719,49.7363281 246.534668,51.487793 246.534668,54.4345703 C246.534668,57.4228516 248.14502,59.1826172 250.875977,59.1826172 C253.175293,59.1826172 254.603027,57.9042969 254.827148,56.003418 L252.868164,56.003418 C252.652344,56.949707 251.938477,57.4560547 250.867676,57.4560547 C249.464844,57.4560547 248.618164,56.34375 248.618164,54.4345703 C248.618164,52.550293 249.456543,51.4628906 250.867676,51.4628906 C251.996582,51.4628906 252.677246,52.09375 252.868164,52.9736328 L254.827148,52.9736328 Z M257.566406,47.6943359 L257.566406,49.9770508 L256.130371,49.9770508 L256.130371,51.6206055 L257.566406,51.6206055 L257.566406,56.5761719 C257.566406,58.3359375 258.396484,59.0415039 260.47998,59.0415039 C260.878418,59.0415039 261.260254,59 261.559082,58.9418945 L261.559082,57.331543 C261.310059,57.3564453 261.152344,57.3730469 260.861816,57.3730469 C259.998535,57.3730469 259.616699,56.9746094 259.616699,56.078125 L259.616699,51.6206055 L261.559082,51.6206055 L261.559082,49.9770508 L259.616699,49.9770508 L259.616699,47.6943359 L257.566406,47.6943359 Z M267.344727,51.371582 C266.116211,51.371582 265.25293,52.2514648 265.161621,53.5795898 L269.436523,53.5795898 C269.39502,52.2348633 268.581543,51.371582 267.344727,51.371582 Z M269.453125,56.5014648 L271.403809,56.5014648 C271.013672,58.1533203 269.51123,59.1826172 267.369629,59.1826172 C264.696777,59.1826172 263.086426,57.4145508 263.086426,54.4926758 C263.086426,51.5708008 264.72168,49.7363281 267.353027,49.7363281 C269.942871,49.7363281 271.495117,51.4545898 271.495117,54.3183594 L271.495117,54.9824219 L265.15332,54.9824219 L265.15332,55.090332 C265.203125,56.6010742 266.074707,57.5473633 267.427734,57.5473633 C268.44873,57.5473633 269.154297,57.1738281 269.453125,56.5014648 Z M273.562012,59 L275.620605,59 L275.620605,53.7539062 C275.620605,52.4838867 276.550293,51.6538086 277.886719,51.6538086 C278.235352,51.6538086 278.783203,51.7119141 278.940918,51.7700195 L278.940918,49.8608398 C278.75,49.8027344 278.384766,49.7695312 278.085938,49.7695312 C276.915527,49.7695312 275.936035,50.4335938 275.687012,51.3300781 L275.545898,51.3300781 L275.545898,49.9189453 L273.562012,49.9189453 L273.562012,59 Z M280.227539,52.5170898 C280.227539,53.8867188 281.049316,54.6918945 282.79248,55.090332 L284.402832,55.4638672 C285.266113,55.6547852 285.65625,55.9785156 285.65625,56.4931641 C285.65625,57.1655273 284.934082,57.6220703 283.896484,57.6220703 C282.867188,57.6220703 282.228027,57.2236328 282.028809,56.5512695 L279.995117,56.5512695 C280.152832,58.203125 281.580566,59.1826172 283.84668,59.1826172 C286.112793,59.1826172 287.714844,58.0205078 287.714844,56.2773438 C287.714844,54.940918 286.909668,54.1938477 285.174805,53.8037109 L283.572754,53.4384766 C282.659668,53.230957 282.228027,52.9155273 282.228027,52.4008789 C282.228027,51.7451172 282.933594,51.296875 283.871582,51.296875 C284.834473,51.296875 285.44043,51.7036133 285.589844,52.3427734 L287.523926,52.3427734 C287.374512,50.690918 286.021484,49.7363281 283.863281,49.7363281 C281.72168,49.7363281 280.227539,50.8735352 280.227539,52.5170898 Z"/>
</svg>
