<svg xmlns="http://www.w3.org/2000/svg" width="385" height="500" viewBox="0 0 385 500">
  <g fill="none" fill-rule="evenodd">
    <path fill="#0C0C0D" d="M114.350586 78.2177734L114.350586 84.1474609 118.164062 84.1474609C120.151367 84.1474609 121.279297 83.0839844 121.279297 81.1826172 121.279297 79.3242188 120.076172 78.2177734 118.078125 78.2177734L114.350586 78.2177734zM114.350586 85.8662109L114.350586 92 112.416992 92 112.416992 76.4990234 118.335938 76.4990234C121.322266 76.4990234 123.277344 78.3251953 123.277344 81.1181641 123.277344 83.2773438 122.106445 84.953125 120.162109 85.5654297L123.75 92 121.483398 92 118.164062 85.8662109 114.350586 85.8662109zM130.850586 81.8486328C129.00293 81.8486328 127.713867 83.2021484 127.574219 85.2539062L133.955078 85.2539062C133.912109 83.2021484 132.6875 81.8486328 130.850586 81.8486328zM133.901367 89.0029297L135.749023 89.0029297C135.19043 90.9902344 133.407227 92.2041016 130.87207 92.2041016 127.660156 92.2041016 125.651367 89.8837891 125.651367 86.2207031 125.651367 82.5791016 127.692383 80.2158203 130.87207 80.2158203 133.998047 80.2158203 135.899414 82.4394531 135.899414 86.0380859L135.899414 86.7470703 127.574219 86.7470703 127.574219 86.8330078C127.670898 89.1210938 128.949219 90.5712891 130.915039 90.5712891 132.408203 90.5712891 133.417969 90.0234375 133.901367 89.0029297zM138.53125 83.5888672C138.53125 85.2646484 139.519531 86.1992188 141.689453 86.7255859L143.676758 87.2089844C144.912109 87.5097656 145.513672 88.046875 145.513672 88.8417969 145.513672 89.9052734 144.396484 90.6464844 142.838867 90.6464844 141.356445 90.6464844 140.432617 90.0234375 140.121094 89.0458984L138.219727 89.0458984C138.423828 90.96875 140.196289 92.2041016 142.774414 92.2041016 145.40625 92.2041016 147.415039 90.7753906 147.415039 88.7021484 147.415039 87.0371094 146.362305 86.0917969 144.181641 85.5654297L142.398438 85.1357422C141.03418 84.8027344 140.389648 84.3085938 140.389648 83.5136719 140.389648 82.4824219 141.463867 81.7841797 142.838867 81.7841797 144.235352 81.7841797 145.137695 82.3964844 145.384766 83.3203125L147.210938 83.3203125C146.963867 81.4189453 145.277344 80.2158203 142.849609 80.2158203 140.389648 80.2158203 138.53125 81.6660156 138.53125 83.5888672zM154.93457 81.8486328C153.086914 81.8486328 151.797852 83.2021484 151.658203 85.2539062L158.039062 85.2539062C157.996094 83.2021484 156.771484 81.8486328 154.93457 81.8486328zM157.985352 89.0029297L159.833008 89.0029297C159.274414 90.9902344 157.491211 92.2041016 154.956055 92.2041016 151.744141 92.2041016 149.735352 89.8837891 149.735352 86.2207031 149.735352 82.5791016 151.776367 80.2158203 154.956055 80.2158203 158.082031 80.2158203 159.983398 82.4394531 159.983398 86.0380859L159.983398 86.7470703 151.658203 86.7470703 151.658203 86.8330078C151.754883 89.1210938 153.033203 90.5712891 154.999023 90.5712891 156.492188 90.5712891 157.501953 90.0234375 157.985352 89.0029297zM163.657227 77.4228516L163.657227 80.4199219 161.788086 80.4199219 161.788086 81.9667969 163.657227 81.9667969 163.657227 88.9921875C163.657227 91.2050781 164.613281 92.0859375 166.998047 92.0859375 167.363281 92.0859375 167.717773 92.0429688 168.083008 91.9785156L168.083008 90.4208984C167.739258 90.453125 167.556641 90.4638672 167.223633 90.4638672 166.020508 90.4638672 165.504883 89.8837891 165.504883 88.5195312L165.504883 81.9667969 168.083008 81.9667969 168.083008 80.4199219 165.504883 80.4199219 165.504883 77.4228516 163.657227 77.4228516zM182.724609 80.2158203C185.678711 80.2158203 187.59082 82.5683594 187.59082 86.2099609 187.59082 89.8300781 185.667969 92.2041016 182.724609 92.2041016 181.070312 92.2041016 179.738281 91.484375 179.104492 90.2597656L178.932617 90.2597656 178.932617 95.8671875 177.084961 95.8671875 177.084961 80.4199219 178.84668 80.4199219 178.84668 82.3535156 179.018555 82.3535156C179.759766 81.0214844 181.145508 80.2158203 182.724609 80.2158203zM182.28418 90.5390625C184.411133 90.5390625 185.678711 88.9169922 185.678711 86.2099609 185.678711 83.5029297 184.411133 81.8808594 182.294922 81.8808594 180.200195 81.8808594 178.878906 83.5458984 178.878906 86.2099609 178.878906 88.8632812 180.200195 90.5390625 182.28418 90.5390625zM194.057617 90.5820312C195.958984 90.5820312 197.366211 89.3359375 197.366211 87.6816406L197.366211 86.6181641 194.250977 86.8222656C192.489258 86.9404297 191.71582 87.5527344 191.71582 88.7128906 191.71582 89.8945312 192.714844 90.5820312 194.057617 90.5820312zM193.713867 92.2041016C191.46875 92.2041016 189.803711 90.8720703 189.803711 88.7558594 189.803711 86.6826172 191.329102 85.4902344 194.025391 85.3291016L197.366211 85.125 197.366211 84.0722656C197.366211 82.6435547 196.474609 81.859375 194.745117 81.859375 193.359375 81.859375 192.392578 82.3857422 192.134766 83.2988281L190.265625 83.2988281C190.512695 81.4404297 192.338867 80.2158203 194.80957 80.2158203 197.634766 80.2158203 199.213867 81.6660156 199.213867 84.0722656L199.213867 92 197.452148 92 197.452148 90.2919922 197.280273 90.2919922C196.52832 91.5273438 195.260742 92.2041016 193.713867 92.2041016zM202.361328 83.5888672C202.361328 85.2646484 203.349609 86.1992188 205.519531 86.7255859L207.506836 87.2089844C208.742188 87.5097656 209.34375 88.046875 209.34375 88.8417969 209.34375 89.9052734 208.226562 90.6464844 206.668945 90.6464844 205.186523 90.6464844 204.262695 90.0234375 203.951172 89.0458984L202.049805 89.0458984C202.253906 90.96875 204.026367 92.2041016 206.604492 92.2041016 209.236328 92.2041016 211.245117 90.7753906 211.245117 88.7021484 211.245117 87.0371094 210.192383 86.0917969 208.011719 85.5654297L206.228516 85.1357422C204.864258 84.8027344 204.219727 84.3085938 204.219727 83.5136719 204.219727 82.4824219 205.293945 81.7841797 206.668945 81.7841797 208.06543 81.7841797 208.967773 82.3964844 209.214844 83.3203125L211.041016 83.3203125C210.793945 81.4189453 209.107422 80.2158203 206.679688 80.2158203 204.219727 80.2158203 202.361328 81.6660156 202.361328 83.5888672zM213.662109 83.5888672C213.662109 85.2646484 214.650391 86.1992188 216.820312 86.7255859L218.807617 87.2089844C220.042969 87.5097656 220.644531 88.046875 220.644531 88.8417969 220.644531 89.9052734 219.527344 90.6464844 217.969727 90.6464844 216.487305 90.6464844 215.563477 90.0234375 215.251953 89.0458984L213.350586 89.0458984C213.554688 90.96875 215.327148 92.2041016 217.905273 92.2041016 220.537109 92.2041016 222.545898 90.7753906 222.545898 88.7021484 222.545898 87.0371094 221.493164 86.0917969 219.3125 85.5654297L217.529297 85.1357422C216.165039 84.8027344 215.520508 84.3085938 215.520508 83.5136719 215.520508 82.4824219 216.594727 81.7841797 217.969727 81.7841797 219.366211 81.7841797 220.268555 82.3964844 220.515625 83.3203125L222.341797 83.3203125C222.094727 81.4189453 220.408203 80.2158203 217.980469 80.2158203 215.520508 80.2158203 213.662109 81.6660156 213.662109 83.5888672zM239.69043 80.4199219L237.832031 80.4199219 235.554688 89.6796875 235.382812 89.6796875 232.793945 80.4199219 231.021484 80.4199219 228.432617 89.6796875 228.260742 89.6796875 225.983398 80.4199219 224.114258 80.4199219 227.358398 92 229.227539 92 231.805664 83.0410156 231.977539 83.0410156 234.566406 92 236.446289 92 239.69043 80.4199219zM246.490234 92.2041016C243.192383 92.2041016 241.151367 89.9267578 241.151367 86.2099609 241.151367 82.4824219 243.192383 80.2158203 246.490234 80.2158203 249.788086 80.2158203 251.829102 82.4824219 251.829102 86.2099609 251.829102 89.9267578 249.788086 92.2041016 246.490234 92.2041016zM246.490234 90.5390625C248.681641 90.5390625 249.916992 88.9492188 249.916992 86.2099609 249.916992 83.4599609 248.681641 81.8808594 246.490234 81.8808594 244.298828 81.8808594 243.063477 83.4599609 243.063477 86.2099609 243.063477 88.9492188 244.298828 90.5390625 246.490234 90.5390625zM254.729492 92L256.577148 92 256.577148 84.8242188C256.577148 83.1914062 257.855469 82.0097656 259.617188 82.0097656 259.982422 82.0097656 260.648438 82.0742188 260.798828 82.1171875L260.798828 80.2695312C260.5625 80.2373047 260.175781 80.2158203 259.875 80.2158203 258.338867 80.2158203 257.006836 81.0107422 256.663086 82.1386719L256.491211 82.1386719 256.491211 80.4199219 254.729492 80.4199219 254.729492 92zM267.072266 92.2041016C264.107422 92.2041016 262.206055 89.8515625 262.206055 86.2099609 262.206055 82.5791016 264.128906 80.2158203 267.072266 80.2158203 268.683594 80.2158203 270.047852 80.9785156 270.703125 82.2460938L270.864258 82.2460938 270.864258 75.8222656 272.711914 75.8222656 272.711914 92 270.950195 92 270.950195 90.1523438 270.77832 90.1523438C270.047852 91.4414062 268.672852 92.2041016 267.072266 92.2041016zM267.501953 81.8808594C265.396484 81.8808594 264.118164 83.5136719 264.118164 86.2099609 264.118164 88.9169922 265.385742 90.5390625 267.501953 90.5390625 269.607422 90.5390625 270.907227 88.8847656 270.907227 86.2099609 270.907227 83.5566406 269.59668 81.8808594 267.501953 81.8808594zM60.6257324 129.657715L60.713623 129.657715 63.1452637 138 64.3903809 138 67.2687988 127.431152 65.8918457 127.431152 63.7897949 136.022461 63.7019043 136.022461 61.3361816 127.431152 60.0031738 127.431152 57.6374512 136.022461 57.5495605 136.022461 55.4475098 127.431152 54.0705566 127.431152 56.9489746 138 58.1940918 138 60.6257324 129.657715zM69.1877441 138L70.4475098 138 70.4475098 133.327148C70.4475098 131.994141 71.223877 131.100586 72.6374512 131.100586 73.8312988 131.100586 74.4611816 131.796387 74.4611816 133.195312L74.4611816 138 75.7209473 138 75.7209473 132.887695C75.7209473 131.034668 74.6662598 129.965332 72.9963379 129.965332 71.7878418 129.965332 70.9602051 130.478027 70.5646973 131.349609L70.4475098 131.349609 70.4475098 126.969727 69.1877441 126.969727 69.1877441 138zM81.170166 131.078613C79.9104004 131.078613 79.0314941 132.001465 78.9362793 133.400391L83.2868652 133.400391C83.2575684 132.001465 82.4226074 131.078613 81.170166 131.078613zM83.2502441 135.956543L84.5100098 135.956543C84.1291504 137.311523 82.9133301 138.13916 81.1848145 138.13916 78.994873 138.13916 77.6252441 136.557129 77.6252441 134.05957 77.6252441 131.57666 79.0168457 129.965332 81.1848145 129.965332 83.3161621 129.965332 84.6125488 131.481445 84.6125488 133.935059L84.6125488 134.418457 78.9362793 134.418457 78.9362793 134.477051C79.0021973 136.037109 79.8737793 137.025879 81.2141113 137.025879 82.2321777 137.025879 82.9206543 136.652344 83.2502441 135.956543zM86.5900879 138L87.8498535 138 87.8498535 133.327148C87.8498535 131.942871 88.6628418 131.100586 89.9226074 131.100586 91.182373 131.100586 91.782959 131.774414 91.782959 133.195312L91.782959 138 93.0427246 138 93.0427246 132.887695C93.0427246 131.012695 92.0539551 129.965332 90.2814941 129.965332 89.072998 129.965332 88.3039551 130.478027 87.9084473 131.349609L87.7912598 131.349609 87.7912598 130.104492 86.5900879 130.104492 86.5900879 138zM100.249756 140.856445C101.648682 140.856445 102.278564 140.314453 102.952393 138.483398L106.035889 130.104492 104.695557 130.104492 102.534912 136.601074 102.417725 136.601074 100.249756 130.104492 98.8874512 130.104492 101.809814 138.007324 101.66333 138.476074C101.33374 139.428223 100.938232 139.772461 100.213135 139.772461 100.037354 139.772461 99.8395996 139.765137 99.685791 139.73584L99.685791 140.8125C99.8615723 140.841797 100.081299 140.856445 100.249756 140.856445zM110.672119 138.13916C108.423584 138.13916 107.031982 136.586426 107.031982 134.052246 107.031982 131.510742 108.423584 129.965332 110.672119 129.965332 112.920654 129.965332 114.312256 131.510742 114.312256 134.052246 114.312256 136.586426 112.920654 138.13916 110.672119 138.13916zM110.672119 137.003906C112.16626 137.003906 113.008545 135.919922 113.008545 134.052246 113.008545 132.177246 112.16626 131.100586 110.672119 131.100586 109.177979 131.100586 108.335693 132.177246 108.335693 134.052246 108.335693 135.919922 109.177979 137.003906 110.672119 137.003906zM122.676514 130.104492L121.416748 130.104492 121.416748 134.777344C121.416748 136.161621 120.655029 136.989258 119.263428 136.989258 118.003662 136.989258 117.476318 136.330078 117.476318 134.90918L117.476318 130.104492 116.216553 130.104492 116.216553 135.216797C116.216553 137.084473 117.139404 138.13916 118.911865 138.13916 120.120361 138.13916 120.962646 137.641113 121.358154 136.762207L121.475342 136.762207 121.475342 138 122.676514 138 122.676514 130.104492zM129.282959 138L130.542725 138 130.542725 133.107422C130.542725 131.994141 131.414307 131.188477 132.615479 131.188477 132.864502 131.188477 133.318604 131.232422 133.421143 131.261719L133.421143 130.001953C133.26001 129.97998 132.996338 129.965332 132.79126 129.965332 131.743896 129.965332 130.835693 130.507324 130.601318 131.276367L130.484131 131.276367 130.484131 130.104492 129.282959 130.104492 129.282959 138zM137.925537 131.078613C136.665771 131.078613 135.786865 132.001465 135.69165 133.400391L140.042236 133.400391C140.012939 132.001465 139.177979 131.078613 137.925537 131.078613zM140.005615 135.956543L141.265381 135.956543C140.884521 137.311523 139.668701 138.13916 137.940186 138.13916 135.750244 138.13916 134.380615 136.557129 134.380615 134.05957 134.380615 131.57666 135.772217 129.965332 137.940186 129.965332 140.071533 129.965332 141.36792 131.481445 141.36792 133.935059L141.36792 134.418457 135.69165 134.418457 135.69165 134.477051C135.757568 136.037109 136.62915 137.025879 137.969482 137.025879 138.987549 137.025879 139.676025 136.652344 140.005615 135.956543zM143.162354 132.265137C143.162354 133.407715 143.836182 134.044922 145.315674 134.403809L146.670654 134.733398C147.512939 134.938477 147.923096 135.304688 147.923096 135.84668 147.923096 136.571777 147.161377 137.077148 146.099365 137.077148 145.088623 137.077148 144.45874 136.652344 144.246338 135.98584L142.949951 135.98584C143.089111 137.296875 144.297607 138.13916 146.05542 138.13916 147.849854 138.13916 149.219482 137.165039 149.219482 135.751465 149.219482 134.616211 148.501709 133.97168 147.014893 133.612793L145.799072 133.319824C144.868896 133.092773 144.429443 132.755859 144.429443 132.213867 144.429443 131.510742 145.161865 131.034668 146.099365 131.034668 147.051514 131.034668 147.666748 131.452148 147.835205 132.082031L149.080322 132.082031C148.911865 130.785645 147.761963 129.965332 146.106689 129.965332 144.429443 129.965332 143.162354 130.954102 143.162354 132.265137zM154.346436 131.078613C153.08667 131.078613 152.207764 132.001465 152.112549 133.400391L156.463135 133.400391C156.433838 132.001465 155.598877 131.078613 154.346436 131.078613zM156.426514 135.956543L157.686279 135.956543C157.30542 137.311523 156.0896 138.13916 154.361084 138.13916 152.171143 138.13916 150.801514 136.557129 150.801514 134.05957 150.801514 131.57666 152.193115 129.965332 154.361084 129.965332 156.492432 129.965332 157.788818 131.481445 157.788818 133.935059L157.788818 134.418457 152.112549 134.418457 152.112549 134.477051C152.178467 136.037109 153.050049 137.025879 154.390381 137.025879 155.408447 137.025879 156.096924 136.652344 156.426514 135.956543zM160.293701 128.061035L160.293701 130.104492 159.019287 130.104492 159.019287 131.15918 160.293701 131.15918 160.293701 135.949219C160.293701 137.458008 160.945557 138.058594 162.571533 138.058594 162.820557 138.058594 163.062256 138.029297 163.311279 137.985352L163.311279 136.92334C163.076904 136.945312 162.952393 136.952637 162.725342 136.952637 161.905029 136.952637 161.553467 136.557129 161.553467 135.626953L161.553467 131.15918 163.311279 131.15918 163.311279 130.104492 161.553467 130.104492 161.553467 128.061035 160.293701 128.061035zM170.122803 140.856445C171.521729 140.856445 172.151611 140.314453 172.825439 138.483398L175.908936 130.104492 174.568604 130.104492 172.407959 136.601074 172.290771 136.601074 170.122803 130.104492 168.760498 130.104492 171.682861 138.007324 171.536377 138.476074C171.206787 139.428223 170.811279 139.772461 170.086182 139.772461 169.9104 139.772461 169.712646 139.765137 169.558838 139.73584L169.558838 140.8125C169.734619 140.841797 169.954346 140.856445 170.122803 140.856445zM180.545166 138.13916C178.296631 138.13916 176.905029 136.586426 176.905029 134.052246 176.905029 131.510742 178.296631 129.965332 180.545166 129.965332 182.793701 129.965332 184.185303 131.510742 184.185303 134.052246 184.185303 136.586426 182.793701 138.13916 180.545166 138.13916zM180.545166 137.003906C182.039307 137.003906 182.881592 135.919922 182.881592 134.052246 182.881592 132.177246 182.039307 131.100586 180.545166 131.100586 179.051025 131.100586 178.20874 132.177246 178.20874 134.052246 178.20874 135.919922 179.051025 137.003906 180.545166 137.003906zM192.549561 130.104492L191.289795 130.104492 191.289795 134.777344C191.289795 136.161621 190.528076 136.989258 189.136475 136.989258 187.876709 136.989258 187.349365 136.330078 187.349365 134.90918L187.349365 130.104492 186.0896 130.104492 186.0896 135.216797C186.0896 137.084473 187.012451 138.13916 188.784912 138.13916 189.993408 138.13916 190.835693 137.641113 191.231201 136.762207L191.348389 136.762207 191.348389 138 192.549561 138 192.549561 130.104492zM194.922607 138L196.182373 138 196.182373 133.107422C196.182373 131.994141 197.053955 131.188477 198.255127 131.188477 198.50415 131.188477 198.958252 131.232422 199.060791 131.261719L199.060791 130.001953C198.899658 129.97998 198.635986 129.965332 198.430908 129.965332 197.383545 129.965332 196.475342 130.507324 196.240967 131.276367L196.123779 131.276367 196.123779 130.104492 194.922607 130.104492 194.922607 138zM208.714111 129.965332C210.728271 129.965332 212.031982 131.569336 212.031982 134.052246 212.031982 136.520508 210.720947 138.13916 208.714111 138.13916 207.586182 138.13916 206.677979 137.648438 206.24585 136.813477L206.128662 136.813477 206.128662 140.636719 204.868896 140.636719 204.868896 130.104492 206.070068 130.104492 206.070068 131.422852 206.187256 131.422852C206.692627 130.514648 207.637451 129.965332 208.714111 129.965332zM208.413818 137.003906C209.864014 137.003906 210.728271 135.897949 210.728271 134.052246 210.728271 132.206543 209.864014 131.100586 208.421143 131.100586 206.99292 131.100586 206.092041 132.23584 206.092041 134.052246 206.092041 135.861328 206.99292 137.003906 208.413818 137.003906zM216.441162 137.033203C217.737549 137.033203 218.697021 136.183594 218.697021 135.055664L218.697021 134.330566 216.572998 134.469727C215.371826 134.550293 214.844482 134.967773 214.844482 135.758789 214.844482 136.564453 215.525635 137.033203 216.441162 137.033203zM216.206787 138.13916C214.676025 138.13916 213.540771 137.230957 213.540771 135.788086 213.540771 134.374512 214.580811 133.561523 216.419189 133.45166L218.697021 133.3125 218.697021 132.594727C218.697021 131.620605 218.089111 131.085938 216.909912 131.085938 215.965088 131.085938 215.305908 131.444824 215.130127 132.067383L213.855713 132.067383C214.02417 130.800293 215.269287 129.965332 216.953857 129.965332 218.880127 129.965332 219.956787 130.954102 219.956787 132.594727L219.956787 138 218.755615 138 218.755615 136.835449 218.638428 136.835449C218.125732 137.677734 217.261475 138.13916 216.206787 138.13916zM222.102783 132.265137C222.102783 133.407715 222.776611 134.044922 224.256104 134.403809L225.611084 134.733398C226.453369 134.938477 226.863525 135.304688 226.863525 135.84668 226.863525 136.571777 226.101807 137.077148 225.039795 137.077148 224.029053 137.077148 223.39917 136.652344 223.186768 135.98584L221.890381 135.98584C222.029541 137.296875 223.238037 138.13916 224.99585 138.13916 226.790283 138.13916 228.159912 137.165039 228.159912 135.751465 228.159912 134.616211 227.442139 133.97168 225.955322 133.612793L224.739502 133.319824C223.809326 133.092773 223.369873 132.755859 223.369873 132.213867 223.369873 131.510742 224.102295 131.034668 225.039795 131.034668 225.991943 131.034668 226.607178 131.452148 226.775635 132.082031L228.020752 132.082031C227.852295 130.785645 226.702393 129.965332 225.047119 129.965332 223.369873 129.965332 222.102783 130.954102 222.102783 132.265137zM229.807861 132.265137C229.807861 133.407715 230.481689 134.044922 231.961182 134.403809L233.316162 134.733398C234.158447 134.938477 234.568604 135.304688 234.568604 135.84668 234.568604 136.571777 233.806885 137.077148 232.744873 137.077148 231.734131 137.077148 231.104248 136.652344 230.891846 135.98584L229.595459 135.98584C229.734619 137.296875 230.943115 138.13916 232.700928 138.13916 234.495361 138.13916 235.86499 137.165039 235.86499 135.751465 235.86499 134.616211 235.147217 133.97168 233.6604 133.612793L232.44458 133.319824C231.514404 133.092773 231.074951 132.755859 231.074951 132.213867 231.074951 131.510742 231.807373 131.034668 232.744873 131.034668 233.697021 131.034668 234.312256 131.452148 234.480713 132.082031L235.72583 132.082031C235.557373 130.785645 234.407471 129.965332 232.752197 129.965332 231.074951 129.965332 229.807861 130.954102 229.807861 132.265137zM247.554443 130.104492L246.287354 130.104492 244.734619 136.417969 244.617432 136.417969 242.852295 130.104492 241.643799 130.104492 239.878662 136.417969 239.761475 136.417969 238.20874 130.104492 236.934326 130.104492 239.14624 138 240.420654 138 242.178467 131.891602 242.295654 131.891602 244.060791 138 245.342529 138 247.554443 130.104492zM252.190674 138.13916C249.942139 138.13916 248.550537 136.586426 248.550537 134.052246 248.550537 131.510742 249.942139 129.965332 252.190674 129.965332 254.439209 129.965332 255.830811 131.510742 255.830811 134.052246 255.830811 136.586426 254.439209 138.13916 252.190674 138.13916zM252.190674 137.003906C253.684814 137.003906 254.5271 135.919922 254.5271 134.052246 254.5271 132.177246 253.684814 131.100586 252.190674 131.100586 250.696533 131.100586 249.854248 132.177246 249.854248 134.052246 249.854248 135.919922 250.696533 137.003906 252.190674 137.003906zM257.80835 138L259.068115 138 259.068115 133.107422C259.068115 131.994141 259.939697 131.188477 261.140869 131.188477 261.389893 131.188477 261.843994 131.232422 261.946533 131.261719L261.946533 130.001953C261.7854 129.97998 261.521729 129.965332 261.31665 129.965332 260.269287 129.965332 259.361084 130.507324 259.126709 131.276367L259.009521 131.276367 259.009521 130.104492 257.80835 130.104492 257.80835 138zM266.223877 138.13916C264.202393 138.13916 262.906006 136.535156 262.906006 134.052246 262.906006 131.57666 264.217041 129.965332 266.223877 129.965332 267.32251 129.965332 268.252686 130.485352 268.699463 131.349609L268.809326 131.349609 268.809326 126.969727 270.069092 126.969727 270.069092 138 268.86792 138 268.86792 136.740234 268.750732 136.740234C268.252686 137.619141 267.315186 138.13916 266.223877 138.13916zM266.516846 131.100586C265.081299 131.100586 264.209717 132.213867 264.209717 134.052246 264.209717 135.897949 265.073975 137.003906 266.516846 137.003906 267.952393 137.003906 268.838623 135.875977 268.838623 134.052246 268.838623 132.243164 267.945068 131.100586 266.516846 131.100586zM273.41626 140.687988L274.500244 136.520508 273.020752 136.520508 272.317627 140.687988 273.41626 140.687988zM281.875732 140.856445C283.274658 140.856445 283.904541 140.314453 284.578369 138.483398L287.661865 130.104492 286.321533 130.104492 284.160889 136.601074 284.043701 136.601074 281.875732 130.104492 280.513428 130.104492 283.435791 138.007324 283.289307 138.476074C282.959717 139.428223 282.564209 139.772461 281.839111 139.772461 281.66333 139.772461 281.465576 139.765137 281.311768 139.73584L281.311768 140.8125C281.487549 140.841797 281.707275 140.856445 281.875732 140.856445zM292.298096 138.13916C290.049561 138.13916 288.657959 136.586426 288.657959 134.052246 288.657959 131.510742 290.049561 129.965332 292.298096 129.965332 294.546631 129.965332 295.938232 131.510742 295.938232 134.052246 295.938232 136.586426 294.546631 138.13916 292.298096 138.13916zM292.298096 137.003906C293.792236 137.003906 294.634521 135.919922 294.634521 134.052246 294.634521 132.177246 293.792236 131.100586 292.298096 131.100586 290.803955 131.100586 289.96167 132.177246 289.96167 134.052246 289.96167 135.919922 290.803955 137.003906 292.298096 137.003906zM304.30249 130.104492L303.042725 130.104492 303.042725 134.777344C303.042725 136.161621 302.281006 136.989258 300.889404 136.989258 299.629639 136.989258 299.102295 136.330078 299.102295 134.90918L299.102295 130.104492 297.842529 130.104492 297.842529 135.216797C297.842529 137.084473 298.765381 138.13916 300.537842 138.13916 301.746338 138.13916 302.588623 137.641113 302.984131 136.762207L303.101318 136.762207 303.101318 138 304.30249 138 304.30249 130.104492zM320.840576 130.104492L319.573486 130.104492 318.020752 136.417969 317.903564 136.417969 316.138428 130.104492 314.929932 130.104492 313.164795 136.417969 313.047607 136.417969 311.494873 130.104492 310.220459 130.104492 312.432373 138 313.706787 138 315.4646 131.891602 315.581787 131.891602 317.346924 138 318.628662 138 320.840576 130.104492zM322.554443 138L323.814209 138 323.814209 130.104492 322.554443 130.104492 322.554443 138zM323.184326 128.500488C323.667725 128.500488 324.063232 128.10498 324.063232 127.621582 324.063232 127.138184 323.667725 126.742676 323.184326 126.742676 322.700928 126.742676 322.30542 127.138184 322.30542 127.621582 322.30542 128.10498 322.700928 128.500488 323.184326 128.500488zM326.289795 138L327.549561 138 327.549561 126.969727 326.289795 126.969727 326.289795 138zM330.069092 138L331.328857 138 331.328857 126.969727 330.069092 126.969727 330.069092 138zM54.817627 159L56.0773926 159 56.0773926 147.969727 54.817627 147.969727 54.817627 159zM61.7683105 159.13916C59.5197754 159.13916 58.1281738 157.586426 58.1281738 155.052246 58.1281738 152.510742 59.5197754 150.965332 61.7683105 150.965332 64.0168457 150.965332 65.4084473 152.510742 65.4084473 155.052246 65.4084473 157.586426 64.0168457 159.13916 61.7683105 159.13916zM61.7683105 158.003906C63.2624512 158.003906 64.1047363 156.919922 64.1047363 155.052246 64.1047363 153.177246 63.2624512 152.100586 61.7683105 152.100586 60.2741699 152.100586 59.4318848 153.177246 59.4318848 155.052246 59.4318848 156.919922 60.2741699 158.003906 61.7683105 158.003906zM67.2028809 153.265137C67.2028809 154.407715 67.876709 155.044922 69.3562012 155.403809L70.7111816 155.733398C71.5534668 155.938477 71.963623 156.304688 71.963623 156.84668 71.963623 157.571777 71.2019043 158.077148 70.1398926 158.077148 69.1291504 158.077148 68.4992676 157.652344 68.2868652 156.98584L66.9904785 156.98584C67.1296387 158.296875 68.3381348 159.13916 70.0959473 159.13916 71.8903809 159.13916 73.2600098 158.165039 73.2600098 156.751465 73.2600098 155.616211 72.5422363 154.97168 71.0554199 154.612793L69.8395996 154.319824C68.9094238 154.092773 68.4699707 153.755859 68.4699707 153.213867 68.4699707 152.510742 69.2023926 152.034668 70.1398926 152.034668 71.092041 152.034668 71.7072754 152.452148 71.8757324 153.082031L73.1208496 153.082031C72.9523926 151.785645 71.8024902 150.965332 70.1472168 150.965332 68.4699707 150.965332 67.2028809 151.954102 67.2028809 153.265137zM78.3869629 152.078613C77.1271973 152.078613 76.248291 153.001465 76.1530762 154.400391L80.5036621 154.400391C80.4743652 153.001465 79.6394043 152.078613 78.3869629 152.078613zM80.467041 156.956543L81.7268066 156.956543C81.3459473 158.311523 80.130127 159.13916 78.4016113 159.13916 76.2116699 159.13916 74.842041 157.557129 74.842041 155.05957 74.842041 152.57666 76.2336426 150.965332 78.4016113 150.965332 80.532959 150.965332 81.8293457 152.481445 81.8293457 154.935059L81.8293457 155.418457 76.1530762 155.418457 76.1530762 155.477051C76.2189941 157.037109 77.0905762 158.025879 78.4309082 158.025879 79.4489746 158.025879 80.1374512 157.652344 80.467041 156.956543zM90.4719238 158.033203C91.7683105 158.033203 92.7277832 157.183594 92.7277832 156.055664L92.7277832 155.330566 90.6037598 155.469727C89.4025879 155.550293 88.8752441 155.967773 88.8752441 156.758789 88.8752441 157.564453 89.5563965 158.033203 90.4719238 158.033203zM90.2375488 159.13916C88.7067871 159.13916 87.5715332 158.230957 87.5715332 156.788086 87.5715332 155.374512 88.6115723 154.561523 90.4499512 154.45166L92.7277832 154.3125 92.7277832 153.594727C92.7277832 152.620605 92.119873 152.085938 90.9406738 152.085938 89.9958496 152.085938 89.3366699 152.444824 89.1608887 153.067383L87.8864746 153.067383C88.0549316 151.800293 89.3000488 150.965332 90.9846191 150.965332 92.9108887 150.965332 93.9875488 151.954102 93.9875488 153.594727L93.9875488 159 92.786377 159 92.786377 157.835449 92.6691895 157.835449C92.1564941 158.677734 91.2922363 159.13916 90.2375488 159.13916zM96.3166504 159L97.576416 159 97.576416 154.327148C97.576416 152.942871 98.3894043 152.100586 99.6491699 152.100586 100.908936 152.100586 101.509521 152.774414 101.509521 154.195312L101.509521 159 102.769287 159 102.769287 153.887695C102.769287 152.012695 101.780518 150.965332 100.008057 150.965332 98.7995605 150.965332 98.0305176 151.478027 97.6350098 152.349609L97.5178223 152.349609 97.5178223 151.104492 96.3166504 151.104492 96.3166504 159zM105.449951 161.856445C106.848877 161.856445 107.47876 161.314453 108.152588 159.483398L111.236084 151.104492 109.895752 151.104492 107.735107 157.601074 107.61792 157.601074 105.449951 151.104492 104.087646 151.104492 107.01001 159.007324 106.863525 159.476074C106.533936 160.428223 106.138428 160.772461 105.41333 160.772461 105.237549 160.772461 105.039795 160.765137 104.885986 160.73584L104.885986 161.8125C105.061768 161.841797 105.281494 161.856445 105.449951 161.856445zM116.809814 156.23877C116.948975 158.0625 118.494385 159.249023 120.735596 159.249023 123.152588 159.249023 124.68335 158.01123 124.68335 156.070312 124.68335 154.517578 123.804443 153.667969 121.614502 153.118652L120.508545 152.825684C119.051025 152.452148 118.472412 151.976074 118.472412 151.148438 118.472412 150.079102 119.402588 149.375977 120.808838 149.375977 122.127197 149.375977 123.020752 150.020508 123.203857 151.104492L124.529541 151.104492C124.419678 149.397949 122.89624 148.182129 120.852783 148.182129 118.618896 148.182129 117.117432 149.397949 117.117432 151.192383 117.117432 152.693848 117.945068 153.558105 119.856689 154.041504L121.21167 154.393066C122.669189 154.759277 123.328369 155.330566 123.328369 156.231445 123.328369 157.278809 122.281006 158.047852 120.860107 158.047852 119.358643 158.047852 118.303955 157.344727 118.142822 156.23877L116.809814 156.23877zM127.385986 161.856445C128.784912 161.856445 129.414795 161.314453 130.088623 159.483398L133.172119 151.104492 131.831787 151.104492 129.671143 157.601074 129.553955 157.601074 127.385986 151.104492 126.023682 151.104492 128.946045 159.007324 128.799561 159.476074C128.469971 160.428223 128.074463 160.772461 127.349365 160.772461 127.173584 160.772461 126.97583 160.765137 126.822021 160.73584L126.822021 161.8125C126.997803 161.841797 127.217529 161.856445 127.385986 161.856445zM134.856689 159L136.116455 159 136.116455 154.327148C136.116455 152.942871 136.929443 152.100586 138.189209 152.100586 139.448975 152.100586 140.049561 152.774414 140.049561 154.195312L140.049561 159 141.309326 159 141.309326 153.887695C141.309326 152.012695 140.320557 150.965332 138.548096 150.965332 137.3396 150.965332 136.570557 151.478027 136.175049 152.349609L136.057861 152.349609 136.057861 151.104492 134.856689 151.104492 134.856689 159zM150.142334 153.521484C149.922607 152.115234 148.750732 150.965332 146.831787 150.965332 144.619873 150.965332 143.213623 152.562012 143.213623 155.022949 143.213623 157.535156 144.627197 159.13916 146.839111 159.13916 148.736084 159.13916 149.915283 158.069824 150.142334 156.619629L148.86792 156.619629C148.633545 157.513184 147.893799 158.003906 146.831787 158.003906 145.425537 158.003906 144.517334 156.84668 144.517334 155.022949 144.517334 153.23584 145.410889 152.100586 146.831787 152.100586 147.967041 152.100586 148.662842 152.737793 148.86792 153.521484L150.142334 153.521484zM159.158447 159.13916C157.136963 159.13916 155.840576 157.535156 155.840576 155.052246 155.840576 152.57666 157.151611 150.965332 159.158447 150.965332 160.25708 150.965332 161.187256 151.485352 161.634033 152.349609L161.743896 152.349609 161.743896 147.969727 163.003662 147.969727 163.003662 159 161.80249 159 161.80249 157.740234 161.685303 157.740234C161.187256 158.619141 160.249756 159.13916 159.158447 159.13916zM159.451416 152.100586C158.015869 152.100586 157.144287 153.213867 157.144287 155.052246 157.144287 156.897949 158.008545 158.003906 159.451416 158.003906 160.886963 158.003906 161.773193 156.875977 161.773193 155.052246 161.773193 153.243164 160.879639 152.100586 159.451416 152.100586zM167.881592 158.033203C169.177979 158.033203 170.137451 157.183594 170.137451 156.055664L170.137451 155.330566 168.013428 155.469727C166.812256 155.550293 166.284912 155.967773 166.284912 156.758789 166.284912 157.564453 166.966064 158.033203 167.881592 158.033203zM167.647217 159.13916C166.116455 159.13916 164.981201 158.230957 164.981201 156.788086 164.981201 155.374512 166.02124 154.561523 167.859619 154.45166L170.137451 154.3125 170.137451 153.594727C170.137451 152.620605 169.529541 152.085938 168.350342 152.085938 167.405518 152.085938 166.746338 152.444824 166.570557 153.067383L165.296143 153.067383C165.4646 151.800293 166.709717 150.965332 168.394287 150.965332 170.320557 150.965332 171.397217 151.954102 171.397217 153.594727L171.397217 159 170.196045 159 170.196045 157.835449 170.078857 157.835449C169.566162 158.677734 168.701904 159.13916 167.647217 159.13916zM174.253662 149.061035L174.253662 151.104492 172.979248 151.104492 172.979248 152.15918 174.253662 152.15918 174.253662 156.949219C174.253662 158.458008 174.905518 159.058594 176.531494 159.058594 176.780518 159.058594 177.022217 159.029297 177.27124 158.985352L177.27124 157.92334C177.036865 157.945312 176.912354 157.952637 176.685303 157.952637 175.86499 157.952637 175.513428 157.557129 175.513428 156.626953L175.513428 152.15918 177.27124 152.15918 177.27124 151.104492 175.513428 151.104492 175.513428 149.061035 174.253662 149.061035zM181.607178 158.033203C182.903564 158.033203 183.863037 157.183594 183.863037 156.055664L183.863037 155.330566 181.739014 155.469727C180.537842 155.550293 180.010498 155.967773 180.010498 156.758789 180.010498 157.564453 180.69165 158.033203 181.607178 158.033203zM181.372803 159.13916C179.842041 159.13916 178.706787 158.230957 178.706787 156.788086 178.706787 155.374512 179.746826 154.561523 181.585205 154.45166L183.863037 154.3125 183.863037 153.594727C183.863037 152.620605 183.255127 152.085938 182.075928 152.085938 181.131104 152.085938 180.471924 152.444824 180.296143 153.067383L179.021729 153.067383C179.190186 151.800293 180.435303 150.965332 182.119873 150.965332 184.046143 150.965332 185.122803 151.954102 185.122803 153.594727L185.122803 159 183.921631 159 183.921631 157.835449 183.804443 157.835449C183.291748 158.677734 182.42749 159.13916 181.372803 159.13916zM192.212646 149.061035L192.212646 151.104492 190.938232 151.104492 190.938232 152.15918 192.212646 152.15918 192.212646 156.949219C192.212646 158.458008 192.864502 159.058594 194.490479 159.058594 194.739502 159.058594 194.981201 159.029297 195.230225 158.985352L195.230225 157.92334C194.99585 157.945312 194.871338 157.952637 194.644287 157.952637 193.823975 157.952637 193.472412 157.557129 193.472412 156.626953L193.472412 152.15918 195.230225 152.15918 195.230225 151.104492 193.472412 151.104492 193.472412 149.061035 192.212646 149.061035zM197.207764 159L198.467529 159 198.467529 154.327148C198.467529 152.994141 199.243896 152.100586 200.657471 152.100586 201.851318 152.100586 202.481201 152.796387 202.481201 154.195312L202.481201 159 203.740967 159 203.740967 153.887695C203.740967 152.034668 202.686279 150.965332 201.016357 150.965332 199.807861 150.965332 198.980225 151.478027 198.584717 152.349609L198.467529 152.349609 198.467529 147.969727 197.207764 147.969727 197.207764 159zM208.472412 158.033203C209.768799 158.033203 210.728271 157.183594 210.728271 156.055664L210.728271 155.330566 208.604248 155.469727C207.403076 155.550293 206.875732 155.967773 206.875732 156.758789 206.875732 157.564453 207.556885 158.033203 208.472412 158.033203zM208.238037 159.13916C206.707275 159.13916 205.572021 158.230957 205.572021 156.788086 205.572021 155.374512 206.612061 154.561523 208.450439 154.45166L210.728271 154.3125 210.728271 153.594727C210.728271 152.620605 210.120361 152.085938 208.941162 152.085938 207.996338 152.085938 207.337158 152.444824 207.161377 153.067383L205.886963 153.067383C206.05542 151.800293 207.300537 150.965332 208.985107 150.965332 210.911377 150.965332 211.988037 151.954102 211.988037 153.594727L211.988037 159 210.786865 159 210.786865 157.835449 210.669678 157.835449C210.156982 158.677734 209.292725 159.13916 208.238037 159.13916zM214.844482 149.061035L214.844482 151.104492 213.570068 151.104492 213.570068 152.15918 214.844482 152.15918 214.844482 156.949219C214.844482 158.458008 215.496338 159.058594 217.122314 159.058594 217.371338 159.058594 217.613037 159.029297 217.862061 158.985352L217.862061 157.92334C217.627686 157.945312 217.503174 157.952637 217.276123 157.952637 216.455811 157.952637 216.104248 157.557129 216.104248 156.626953L216.104248 152.15918 217.862061 152.15918 217.862061 151.104492 216.104248 151.104492 216.104248 149.061035 214.844482 149.061035zM224.029053 159L225.288818 159 225.288818 151.104492 224.029053 151.104492 224.029053 159zM224.658936 149.500488C225.142334 149.500488 225.537842 149.10498 225.537842 148.621582 225.537842 148.138184 225.142334 147.742676 224.658936 147.742676 224.175537 147.742676 223.780029 148.138184 223.780029 148.621582 223.780029 149.10498 224.175537 149.500488 224.658936 149.500488zM227.508057 153.265137C227.508057 154.407715 228.181885 155.044922 229.661377 155.403809L231.016357 155.733398C231.858643 155.938477 232.268799 156.304688 232.268799 156.84668 232.268799 157.571777 231.50708 158.077148 230.445068 158.077148 229.434326 158.077148 228.804443 157.652344 228.592041 156.98584L227.295654 156.98584C227.434814 158.296875 228.643311 159.13916 230.401123 159.13916 232.195557 159.13916 233.565186 158.165039 233.565186 156.751465 233.565186 155.616211 232.847412 154.97168 231.360596 154.612793L230.144775 154.319824C229.2146 154.092773 228.775146 153.755859 228.775146 153.213867 228.775146 152.510742 229.507568 152.034668 230.445068 152.034668 231.397217 152.034668 232.012451 152.452148 232.180908 153.082031L233.426025 153.082031C233.257568 151.785645 232.107666 150.965332 230.452393 150.965332 228.775146 150.965332 227.508057 151.954102 227.508057 153.265137zM239.776123 159L241.035889 159 241.035889 154.327148C241.035889 152.942871 241.848877 152.100586 243.108643 152.100586 244.368408 152.100586 244.968994 152.774414 244.968994 154.195312L244.968994 159 246.22876 159 246.22876 153.887695C246.22876 152.012695 245.23999 150.965332 243.467529 150.965332 242.259033 150.965332 241.48999 151.478027 241.094482 152.349609L240.977295 152.349609 240.977295 151.104492 239.776123 151.104492 239.776123 159zM251.773193 159.13916C249.524658 159.13916 248.133057 157.586426 248.133057 155.052246 248.133057 152.510742 249.524658 150.965332 251.773193 150.965332 254.021729 150.965332 255.41333 152.510742 255.41333 155.052246 255.41333 157.586426 254.021729 159.13916 251.773193 159.13916zM251.773193 158.003906C253.267334 158.003906 254.109619 156.919922 254.109619 155.052246 254.109619 153.177246 253.267334 152.100586 251.773193 152.100586 250.279053 152.100586 249.436768 153.177246 249.436768 155.052246 249.436768 156.919922 250.279053 158.003906 251.773193 158.003906zM257.918213 149.061035L257.918213 151.104492 256.643799 151.104492 256.643799 152.15918 257.918213 152.15918 257.918213 156.949219C257.918213 158.458008 258.570068 159.058594 260.196045 159.058594 260.445068 159.058594 260.686768 159.029297 260.935791 158.985352L260.935791 157.92334C260.701416 157.945312 260.576904 157.952637 260.349854 157.952637 259.529541 157.952637 259.177979 157.557129 259.177979 156.626953L259.177979 152.15918 260.935791 152.15918 260.935791 151.104492 259.177979 151.104492 259.177979 149.061035 257.918213 149.061035zM270.318115 159.13916C268.06958 159.13916 266.677979 157.586426 266.677979 155.052246 266.677979 152.510742 268.06958 150.965332 270.318115 150.965332 272.56665 150.965332 273.958252 152.510742 273.958252 155.052246 273.958252 157.586426 272.56665 159.13916 270.318115 159.13916zM270.318115 158.003906C271.812256 158.003906 272.654541 156.919922 272.654541 155.052246 272.654541 153.177246 271.812256 152.100586 270.318115 152.100586 268.823975 152.100586 267.981689 153.177246 267.981689 155.052246 267.981689 156.919922 268.823975 158.003906 270.318115 158.003906zM275.935791 159L277.195557 159 277.195557 154.327148C277.195557 152.942871 278.008545 152.100586 279.268311 152.100586 280.528076 152.100586 281.128662 152.774414 281.128662 154.195312L281.128662 159 282.388428 159 282.388428 153.887695C282.388428 152.012695 281.399658 150.965332 279.627197 150.965332 278.418701 150.965332 277.649658 151.478027 277.25415 152.349609L277.136963 152.349609 277.136963 151.104492 275.935791 151.104492 275.935791 159zM292.16626 159.13916C289.917725 159.13916 288.526123 157.586426 288.526123 155.052246 288.526123 152.510742 289.917725 150.965332 292.16626 150.965332 294.414795 150.965332 295.806396 152.510742 295.806396 155.052246 295.806396 157.586426 294.414795 159.13916 292.16626 159.13916zM292.16626 158.003906C293.6604 158.003906 294.502686 156.919922 294.502686 155.052246 294.502686 153.177246 293.6604 152.100586 292.16626 152.100586 290.672119 152.100586 289.829834 153.177246 289.829834 155.052246 289.829834 156.919922 290.672119 158.003906 292.16626 158.003906zM297.783936 159L299.043701 159 299.043701 154.327148C299.043701 152.942871 299.856689 152.100586 301.116455 152.100586 302.376221 152.100586 302.976807 152.774414 302.976807 154.195312L302.976807 159 304.236572 159 304.236572 153.887695C304.236572 152.012695 303.247803 150.965332 301.475342 150.965332 300.266846 150.965332 299.497803 151.478027 299.102295 152.349609L298.985107 152.349609 298.985107 151.104492 297.783936 151.104492 297.783936 159zM309.685791 152.078613C308.426025 152.078613 307.547119 153.001465 307.451904 154.400391L311.80249 154.400391C311.773193 153.001465 310.938232 152.078613 309.685791 152.078613zM311.765869 156.956543L313.025635 156.956543C312.644775 158.311523 311.428955 159.13916 309.700439 159.13916 307.510498 159.13916 306.140869 157.557129 306.140869 155.05957 306.140869 152.57666 307.532471 150.965332 309.700439 150.965332 311.831787 150.965332 313.128174 152.481445 313.128174 154.935059L313.128174 155.418457 307.451904 155.418457 307.451904 155.477051C307.517822 157.037109 308.389404 158.025879 309.729736 158.025879 310.747803 158.025879 311.436279 157.652344 311.765869 156.956543zM322.58374 159.13916C320.335205 159.13916 318.943604 157.586426 318.943604 155.052246 318.943604 152.510742 320.335205 150.965332 322.58374 150.965332 324.832275 150.965332 326.223877 152.510742 326.223877 155.052246 326.223877 157.586426 324.832275 159.13916 322.58374 159.13916zM322.58374 158.003906C324.077881 158.003906 324.920166 156.919922 324.920166 155.052246 324.920166 153.177246 324.077881 152.100586 322.58374 152.100586 321.0896 152.100586 320.247314 153.177246 320.247314 155.052246 320.247314 156.919922 321.0896 158.003906 322.58374 158.003906zM328.72876 159L329.988525 159 329.988525 152.15918 331.797607 152.15918 331.797607 151.104492 329.988525 151.104492 329.988525 150.37207C329.988525 149.48584 330.41333 149.10498 331.167725 149.10498 331.416748 149.10498 331.702393 149.134277 331.87085 149.170898L331.87085 148.116211C331.563232 148.064941 331.343506 148.042969 331.094482 148.042969 329.571045 148.042969 328.72876 148.716797 328.72876 150.335449L328.72876 151.104492 327.417725 151.104492 327.417725 152.15918 328.72876 152.15918 328.72876 159zM64.5185547 182.856445C65.9174805 182.856445 66.5473633 182.314453 67.2211914 180.483398L70.3046875 172.104492 68.9643555 172.104492 66.8037109 178.601074 66.6865234 178.601074 64.5185547 172.104492 63.15625 172.104492 66.0786133 180.007324 65.9321289 180.476074C65.6025391 181.428223 65.2070312 181.772461 64.4819336 181.772461 64.3061523 181.772461 64.1083984 181.765137 63.9545898 181.73584L63.9545898 182.8125C64.1303711 182.841797 64.3500977 182.856445 64.5185547 182.856445zM74.940918 180.13916C72.6923828 180.13916 71.3007812 178.586426 71.3007812 176.052246 71.3007812 173.510742 72.6923828 171.965332 74.940918 171.965332 77.1894531 171.965332 78.5810547 173.510742 78.5810547 176.052246 78.5810547 178.586426 77.1894531 180.13916 74.940918 180.13916zM74.940918 179.003906C76.4350586 179.003906 77.2773438 177.919922 77.2773438 176.052246 77.2773438 174.177246 76.4350586 173.100586 74.940918 173.100586 73.4467773 173.100586 72.6044922 174.177246 72.6044922 176.052246 72.6044922 177.919922 73.4467773 179.003906 74.940918 179.003906zM86.9453125 172.104492L85.6855469 172.104492 85.6855469 176.777344C85.6855469 178.161621 84.9238281 178.989258 83.5322266 178.989258 82.2724609 178.989258 81.7451172 178.330078 81.7451172 176.90918L81.7451172 172.104492 80.4853516 172.104492 80.4853516 177.216797C80.4853516 179.084473 81.4082031 180.13916 83.1806641 180.13916 84.3891602 180.13916 85.2314453 179.641113 85.6269531 178.762207L85.7441406 178.762207 85.7441406 180 86.9453125 180 86.9453125 172.104492zM89.3183594 180L90.578125 180 90.578125 175.107422C90.578125 173.994141 91.449707 173.188477 92.6508789 173.188477 92.8999023 173.188477 93.3540039 173.232422 93.456543 173.261719L93.456543 172.001953C93.2954102 171.97998 93.0317383 171.965332 92.8266602 171.965332 91.7792969 171.965332 90.8710938 172.507324 90.6367188 173.276367L90.5195312 173.276367 90.5195312 172.104492 89.3183594 172.104492 89.3183594 180zM102.187012 180.13916C100.165527 180.13916 98.8691406 178.535156 98.8691406 176.052246 98.8691406 173.57666 100.180176 171.965332 102.187012 171.965332 103.285645 171.965332 104.21582 172.485352 104.662598 173.349609L104.772461 173.349609 104.772461 168.969727 106.032227 168.969727 106.032227 180 104.831055 180 104.831055 178.740234 104.713867 178.740234C104.21582 179.619141 103.27832 180.13916 102.187012 180.13916zM102.47998 173.100586C101.044434 173.100586 100.172852 174.213867 100.172852 176.052246 100.172852 177.897949 101.037109 179.003906 102.47998 179.003906 103.915527 179.003906 104.801758 177.875977 104.801758 176.052246 104.801758 174.243164 103.908203 173.100586 102.47998 173.100586zM111.62793 173.078613C110.368164 173.078613 109.489258 174.001465 109.394043 175.400391L113.744629 175.400391C113.715332 174.001465 112.880371 173.078613 111.62793 173.078613zM113.708008 177.956543L114.967773 177.956543C114.586914 179.311523 113.371094 180.13916 111.642578 180.13916 109.452637 180.13916 108.083008 178.557129 108.083008 176.05957 108.083008 173.57666 109.474609 171.965332 111.642578 171.965332 113.773926 171.965332 115.070312 173.481445 115.070312 175.935059L115.070312 176.418457 109.394043 176.418457 109.394043 176.477051C109.459961 178.037109 110.331543 179.025879 111.671875 179.025879 112.689941 179.025879 113.378418 178.652344 113.708008 177.956543zM123.34668 172.104492L121.999023 172.104492 119.838379 178.608398 119.721191 178.608398 117.560547 172.104492 116.212891 172.104492 119.135254 180 120.424316 180 123.34668 172.104492zM125.060547 180L126.320312 180 126.320312 172.104492 125.060547 172.104492 125.060547 180zM125.69043 170.500488C126.173828 170.500488 126.569336 170.10498 126.569336 169.621582 126.569336 169.138184 126.173828 168.742676 125.69043 168.742676 125.207031 168.742676 124.811523 169.138184 124.811523 169.621582 124.811523 170.10498 125.207031 170.500488 125.69043 170.500488zM135.255859 174.521484C135.036133 173.115234 133.864258 171.965332 131.945312 171.965332 129.733398 171.965332 128.327148 173.562012 128.327148 176.022949 128.327148 178.535156 129.740723 180.13916 131.952637 180.13916 133.849609 180.13916 135.028809 179.069824 135.255859 177.619629L133.981445 177.619629C133.74707 178.513184 133.007324 179.003906 131.945312 179.003906 130.539062 179.003906 129.630859 177.84668 129.630859 176.022949 129.630859 174.23584 130.524414 173.100586 131.945312 173.100586 133.080566 173.100586 133.776367 173.737793 133.981445 174.521484L135.255859 174.521484zM140.265625 173.078613C139.005859 173.078613 138.126953 174.001465 138.031738 175.400391L142.382324 175.400391C142.353027 174.001465 141.518066 173.078613 140.265625 173.078613zM142.345703 177.956543L143.605469 177.956543C143.224609 179.311523 142.008789 180.13916 140.280273 180.13916 138.090332 180.13916 136.720703 178.557129 136.720703 176.05957 136.720703 173.57666 138.112305 171.965332 140.280273 171.965332 142.411621 171.965332 143.708008 173.481445 143.708008 175.935059L143.708008 176.418457 138.031738 176.418457 138.031738 176.477051C138.097656 178.037109 138.969238 179.025879 140.30957 179.025879 141.327637 179.025879 142.016113 178.652344 142.345703 177.956543zM145.502441 174.265137C145.502441 175.407715 146.17627 176.044922 147.655762 176.403809L149.010742 176.733398C149.853027 176.938477 150.263184 177.304688 150.263184 177.84668 150.263184 178.571777 149.501465 179.077148 148.439453 179.077148 147.428711 179.077148 146.798828 178.652344 146.586426 177.98584L145.290039 177.98584C145.429199 179.296875 146.637695 180.13916 148.395508 180.13916 150.189941 180.13916 151.55957 179.165039 151.55957 177.751465 151.55957 176.616211 150.841797 175.97168 149.35498 175.612793L148.13916 175.319824C147.208984 175.092773 146.769531 174.755859 146.769531 174.213867 146.769531 173.510742 147.501953 173.034668 148.439453 173.034668 149.391602 173.034668 150.006836 173.452148 150.175293 174.082031L151.42041 174.082031C151.251953 172.785645 150.102051 171.965332 148.446777 171.965332 146.769531 171.965332 145.502441 172.954102 145.502441 174.265137zM154.577148 180.073242C155.104492 180.073242 155.529297 179.641113 155.529297 179.121094 155.529297 178.59375 155.104492 178.168945 154.577148 178.168945 154.057129 178.168945 153.625 178.59375 153.625 179.121094 153.625 179.641113 154.057129 180.073242 154.577148 180.073242zM168.800781 178.813477L163.703125 178.813477 163.703125 169.431152 162.384766 169.431152 162.384766 180 168.800781 180 168.800781 178.813477zM173.524902 173.078613C172.265137 173.078613 171.38623 174.001465 171.291016 175.400391L175.641602 175.400391C175.612305 174.001465 174.777344 173.078613 173.524902 173.078613zM175.60498 177.956543L176.864746 177.956543C176.483887 179.311523 175.268066 180.13916 173.539551 180.13916 171.349609 180.13916 169.97998 178.557129 169.97998 176.05957 169.97998 173.57666 171.371582 171.965332 173.539551 171.965332 175.670898 171.965332 176.967285 173.481445 176.967285 175.935059L176.967285 176.418457 171.291016 176.418457 171.291016 176.477051C171.356934 178.037109 172.228516 179.025879 173.568848 179.025879 174.586914 179.025879 175.275391 178.652344 175.60498 177.956543zM181.376465 179.033203C182.672852 179.033203 183.632324 178.183594 183.632324 177.055664L183.632324 176.330566 181.508301 176.469727C180.307129 176.550293 179.779785 176.967773 179.779785 177.758789 179.779785 178.564453 180.460938 179.033203 181.376465 179.033203zM181.14209 180.13916C179.611328 180.13916 178.476074 179.230957 178.476074 177.788086 178.476074 176.374512 179.516113 175.561523 181.354492 175.45166L183.632324 175.3125 183.632324 174.594727C183.632324 173.620605 183.024414 173.085938 181.845215 173.085938 180.900391 173.085938 180.241211 173.444824 180.06543 174.067383L178.791016 174.067383C178.959473 172.800293 180.20459 171.965332 181.88916 171.965332 183.81543 171.965332 184.89209 172.954102 184.89209 174.594727L184.89209 180 183.690918 180 183.690918 178.835449 183.57373 178.835449C183.061035 179.677734 182.196777 180.13916 181.14209 180.13916zM187.221191 180L188.480957 180 188.480957 175.107422C188.480957 173.994141 189.352539 173.188477 190.553711 173.188477 190.802734 173.188477 191.256836 173.232422 191.359375 173.261719L191.359375 172.001953C191.198242 171.97998 190.93457 171.965332 190.729492 171.965332 189.682129 171.965332 188.773926 172.507324 188.539551 173.276367L188.422363 173.276367 188.422363 172.104492 187.221191 172.104492 187.221191 180zM193.080566 180L194.340332 180 194.340332 175.327148C194.340332 173.942871 195.15332 173.100586 196.413086 173.100586 197.672852 173.100586 198.273438 173.774414 198.273438 175.195312L198.273438 180 199.533203 180 199.533203 174.887695C199.533203 173.012695 198.544434 171.965332 196.771973 171.965332 195.563477 171.965332 194.794434 172.478027 194.398926 173.349609L194.281738 173.349609 194.281738 172.104492 193.080566 172.104492 193.080566 180zM206.139648 180L207.399414 180 207.399414 175.327148C207.399414 173.994141 208.175781 173.100586 209.589355 173.100586 210.783203 173.100586 211.413086 173.796387 211.413086 175.195312L211.413086 180 212.672852 180 212.672852 174.887695C212.672852 173.034668 211.618164 171.965332 209.948242 171.965332 208.739746 171.965332 207.912109 172.478027 207.516602 173.349609L207.399414 173.349609 207.399414 168.969727 206.139648 168.969727 206.139648 180zM218.217285 180.13916C215.96875 180.13916 214.577148 178.586426 214.577148 176.052246 214.577148 173.510742 215.96875 171.965332 218.217285 171.965332 220.46582 171.965332 221.857422 173.510742 221.857422 176.052246 221.857422 178.586426 220.46582 180.13916 218.217285 180.13916zM218.217285 179.003906C219.711426 179.003906 220.553711 177.919922 220.553711 176.052246 220.553711 174.177246 219.711426 173.100586 218.217285 173.100586 216.723145 173.100586 215.880859 174.177246 215.880859 176.052246 215.880859 177.919922 216.723145 179.003906 218.217285 179.003906zM233.473633 172.104492L232.206543 172.104492 230.653809 178.417969 230.536621 178.417969 228.771484 172.104492 227.562988 172.104492 225.797852 178.417969 225.680664 178.417969 224.12793 172.104492 222.853516 172.104492 225.06543 180 226.339844 180 228.097656 173.891602 228.214844 173.891602 229.97998 180 231.261719 180 233.473633 172.104492zM239.047363 177.23877C239.186523 179.0625 240.731934 180.249023 242.973145 180.249023 245.390137 180.249023 246.920898 179.01123 246.920898 177.070312 246.920898 175.517578 246.041992 174.667969 243.852051 174.118652L242.746094 173.825684C241.288574 173.452148 240.709961 172.976074 240.709961 172.148438 240.709961 171.079102 241.640137 170.375977 243.046387 170.375977 244.364746 170.375977 245.258301 171.020508 245.441406 172.104492L246.76709 172.104492C246.657227 170.397949 245.133789 169.182129 243.090332 169.182129 240.856445 169.182129 239.35498 170.397949 239.35498 172.192383 239.35498 173.693848 240.182617 174.558105 242.094238 175.041504L243.449219 175.393066C244.906738 175.759277 245.565918 176.330566 245.565918 177.231445 245.565918 178.278809 244.518555 179.047852 243.097656 179.047852 241.596191 179.047852 240.541504 178.344727 240.380371 177.23877L239.047363 177.23877zM249.623535 182.856445C251.022461 182.856445 251.652344 182.314453 252.326172 180.483398L255.409668 172.104492 254.069336 172.104492 251.908691 178.601074 251.791504 178.601074 249.623535 172.104492 248.26123 172.104492 251.183594 180.007324 251.037109 180.476074C250.70752 181.428223 250.312012 181.772461 249.586914 181.772461 249.411133 181.772461 249.213379 181.765137 249.05957 181.73584L249.05957 182.8125C249.235352 182.841797 249.455078 182.856445 249.623535 182.856445zM257.094238 180L258.354004 180 258.354004 175.327148C258.354004 173.942871 259.166992 173.100586 260.426758 173.100586 261.686523 173.100586 262.287109 173.774414 262.287109 175.195312L262.287109 180 263.546875 180 263.546875 174.887695C263.546875 173.012695 262.558105 171.965332 260.785645 171.965332 259.577148 171.965332 258.808105 172.478027 258.412598 173.349609L258.29541 173.349609 258.29541 172.104492 257.094238 172.104492 257.094238 180zM272.379883 174.521484C272.160156 173.115234 270.988281 171.965332 269.069336 171.965332 266.857422 171.965332 265.451172 173.562012 265.451172 176.022949 265.451172 178.535156 266.864746 180.13916 269.07666 180.13916 270.973633 180.13916 272.152832 179.069824 272.379883 177.619629L271.105469 177.619629C270.871094 178.513184 270.131348 179.003906 269.069336 179.003906 267.663086 179.003906 266.754883 177.84668 266.754883 176.022949 266.754883 174.23584 267.648438 173.100586 269.069336 173.100586 270.20459 173.100586 270.900391 173.737793 271.105469 174.521484L272.379883 174.521484zM288.405273 172.104492L287.138184 172.104492 285.585449 178.417969 285.468262 178.417969 283.703125 172.104492 282.494629 172.104492 280.729492 178.417969 280.612305 178.417969 279.05957 172.104492 277.785156 172.104492 279.99707 180 281.271484 180 283.029297 173.891602 283.146484 173.891602 284.911621 180 286.193359 180 288.405273 172.104492zM293.041504 180.13916C290.792969 180.13916 289.401367 178.586426 289.401367 176.052246 289.401367 173.510742 290.792969 171.965332 293.041504 171.965332 295.290039 171.965332 296.681641 173.510742 296.681641 176.052246 296.681641 178.586426 295.290039 180.13916 293.041504 180.13916zM293.041504 179.003906C294.535645 179.003906 295.37793 177.919922 295.37793 176.052246 295.37793 174.177246 294.535645 173.100586 293.041504 173.100586 291.547363 173.100586 290.705078 174.177246 290.705078 176.052246 290.705078 177.919922 291.547363 179.003906 293.041504 179.003906zM298.65918 180L299.918945 180 299.918945 175.107422C299.918945 173.994141 300.790527 173.188477 301.991699 173.188477 302.240723 173.188477 302.694824 173.232422 302.797363 173.261719L302.797363 172.001953C302.63623 171.97998 302.372559 171.965332 302.16748 171.965332 301.120117 171.965332 300.211914 172.507324 299.977539 173.276367L299.860352 173.276367 299.860352 172.104492 298.65918 172.104492 298.65918 180zM305.822266 175.554199L305.705078 175.554199 305.705078 168.969727 304.445312 168.969727 304.445312 180 305.705078 180 305.705078 177.004395 306.459473 176.30127 309.418457 180 311.022461 180 307.396973 175.488281 310.79541 172.104492 309.25 172.104492 305.822266 175.554199zM312.040527 174.265137C312.040527 175.407715 312.714355 176.044922 314.193848 176.403809L315.548828 176.733398C316.391113 176.938477 316.80127 177.304688 316.80127 177.84668 316.80127 178.571777 316.039551 179.077148 314.977539 179.077148 313.966797 179.077148 313.336914 178.652344 313.124512 177.98584L311.828125 177.98584C311.967285 179.296875 313.175781 180.13916 314.933594 180.13916 316.728027 180.13916 318.097656 179.165039 318.097656 177.751465 318.097656 176.616211 317.379883 175.97168 315.893066 175.612793L314.677246 175.319824C313.74707 175.092773 313.307617 174.755859 313.307617 174.213867 313.307617 173.510742 314.040039 173.034668 314.977539 173.034668 315.929688 173.034668 316.544922 173.452148 316.713379 174.082031L317.958496 174.082031C317.790039 172.785645 316.640137 171.965332 314.984863 171.965332 313.307617 171.965332 312.040527 172.954102 312.040527 174.265137zM321.115234 180.073242C321.642578 180.073242 322.067383 179.641113 322.067383 179.121094 322.067383 178.59375 321.642578 178.168945 321.115234 178.168945 320.595215 178.168945 320.163086 178.59375 320.163086 179.121094 320.163086 179.641113 320.595215 180.073242 321.115234 180.073242z"/>
    <path fill="#0C0C0D" fill-opacity=".3" fill-rule="nonzero" d="M47,315 C46.4477153,315 46,315.447715 46,316 L46,360 C46,360.552285 46.4477153,361 47,361 L339,361 C339.552285,361 340,360.552285 340,360 L340,316 C340,315.447715 339.552285,315 339,315 L47,315 Z M47,314 L339,314 C340.104569,314 341,314.895431 341,316 L341,360 C341,361.104569 340.104569,362 339,362 L47,362 C45.8954305,362 45,361.104569 45,360 L45,316 C45,314.895431 45.8954305,314 47,314 Z"/>
    <path fill="#0C0C0D" fill-opacity=".4" d="M61.8955078,341.813477 L56.6660156,341.813477 L56.6660156,338.180664 L61.6245117,338.180664 L61.6245117,337.008789 L56.6660156,337.008789 L56.6660156,333.617676 L61.8955078,333.617676 L61.8955078,332.431152 L55.3476562,332.431152 L55.3476562,343 L61.8955078,343 L61.8955078,341.813477 Z M64.1220703,343 L65.3818359,343 L65.3818359,338.107422 C65.3818359,336.994141 66.1801758,336.100586 67.2128906,336.100586 C68.2089844,336.100586 68.8608398,336.701172 68.8608398,337.638672 L68.8608398,343 L70.1206055,343 L70.1206055,337.924316 C70.1206055,336.920898 70.8530273,336.100586 71.9516602,336.100586 C73.0649414,336.100586 73.6142578,336.671875 73.6142578,337.836426 L73.6142578,343 L74.8740234,343 L74.8740234,337.543457 C74.8740234,335.888184 73.9731445,334.965332 72.3618164,334.965332 C71.2705078,334.965332 70.3696289,335.514648 69.9448242,336.349609 L69.8276367,336.349609 C69.4614258,335.529297 68.7143555,334.965332 67.6450195,334.965332 C66.590332,334.965332 65.7993164,335.470703 65.4404297,336.349609 L65.3232422,336.349609 L65.3232422,335.104492 L64.1220703,335.104492 L64.1220703,343 Z M79.6054688,342.033203 C80.9018555,342.033203 81.8613281,341.183594 81.8613281,340.055664 L81.8613281,339.330566 L79.7373047,339.469727 C78.5361328,339.550293 78.0087891,339.967773 78.0087891,340.758789 C78.0087891,341.564453 78.6899414,342.033203 79.6054688,342.033203 Z M79.3710938,343.13916 C77.840332,343.13916 76.7050781,342.230957 76.7050781,340.788086 C76.7050781,339.374512 77.7451172,338.561523 79.5834961,338.45166 L81.8613281,338.3125 L81.8613281,337.594727 C81.8613281,336.620605 81.253418,336.085938 80.0742188,336.085938 C79.1293945,336.085938 78.4702148,336.444824 78.2944336,337.067383 L77.0200195,337.067383 C77.1884766,335.800293 78.4335938,334.965332 80.1181641,334.965332 C82.0444336,334.965332 83.1210938,335.954102 83.1210938,337.594727 L83.1210938,343 L81.9199219,343 L81.9199219,341.835449 L81.8027344,341.835449 C81.2900391,342.677734 80.4257812,343.13916 79.3710938,343.13916 Z M85.4794922,343 L86.7392578,343 L86.7392578,335.104492 L85.4794922,335.104492 L85.4794922,343 Z M86.109375,333.500488 C86.5927734,333.500488 86.9882812,333.10498 86.9882812,332.621582 C86.9882812,332.138184 86.5927734,331.742676 86.109375,331.742676 C85.6259766,331.742676 85.2304688,332.138184 85.2304688,332.621582 C85.2304688,333.10498 85.6259766,333.500488 86.109375,333.500488 Z M89.2148438,343 L90.4746094,343 L90.4746094,331.969727 L89.2148438,331.969727 L89.2148438,343 Z"/>
    <path fill="#0A84FF" d="M70.6191406,452.79834 L70.6191406,456.807617 L73.0927734,456.807617 C74.4541016,456.807617 75.234375,456.077148 75.234375,454.807129 C75.234375,453.562012 74.4042969,452.79834 73.0429688,452.79834 L70.6191406,452.79834 Z M70.6191406,458.509277 L70.6191406,463 L68.4775391,463 L68.4775391,451.021973 L73.3417969,451.021973 C75.8569336,451.021973 77.434082,452.466309 77.434082,454.765625 C77.434082,456.342773 76.6040039,457.662598 75.1762695,458.177246 L77.7910156,463 L75.3422852,463 L72.9931641,458.509277 L70.6191406,458.509277 Z M83.3442383,455.371582 C82.1157227,455.371582 81.2524414,456.251465 81.1611328,457.57959 L85.4360352,457.57959 C85.3945312,456.234863 84.5810547,455.371582 83.3442383,455.371582 Z M85.4526367,460.501465 L87.4033203,460.501465 C87.0131836,462.15332 85.5107422,463.182617 83.3691406,463.182617 C80.6962891,463.182617 79.0859375,461.414551 79.0859375,458.492676 C79.0859375,455.570801 80.7211914,453.736328 83.3525391,453.736328 C85.9423828,453.736328 87.4946289,455.45459 87.4946289,458.318359 L87.4946289,458.982422 L81.152832,458.982422 L81.152832,459.090332 C81.2026367,460.601074 82.0742188,461.547363 83.4272461,461.547363 C84.4482422,461.547363 85.1538086,461.173828 85.4526367,460.501465 Z M89.5615234,463 L91.6201172,463 L91.6201172,457.47998 C91.6201172,456.367676 92.3754883,455.529297 93.3964844,455.529297 C94.4091797,455.529297 95.0400391,456.135254 95.0400391,457.131348 L95.0400391,463 L97.0405273,463 L97.0405273,457.347168 C97.0405273,456.30957 97.7460938,455.529297 98.8168945,455.529297 C99.9208984,455.529297 100.477051,456.110352 100.477051,457.280762 L100.477051,463 L102.527344,463 L102.527344,456.757812 C102.527344,454.873535 101.431641,453.736328 99.6137695,453.736328 C98.3520508,453.736328 97.3061523,454.39209 96.8579102,455.388184 L96.7167969,455.388184 C96.3349609,454.367188 95.4633789,453.736328 94.2099609,453.736328 C93.0063477,453.736328 92.0766602,454.350586 91.6865234,455.388184 L91.5454102,455.388184 L91.5454102,453.918945 L89.5615234,453.918945 L89.5615234,463 Z M108.777832,455.371582 C107.549316,455.371582 106.686035,456.251465 106.594727,457.57959 L110.869629,457.57959 C110.828125,456.234863 110.014648,455.371582 108.777832,455.371582 Z M110.88623,460.501465 L112.836914,460.501465 C112.446777,462.15332 110.944336,463.182617 108.802734,463.182617 C106.129883,463.182617 104.519531,461.414551 104.519531,458.492676 C104.519531,455.570801 106.154785,453.736328 108.786133,453.736328 C111.375977,453.736328 112.928223,455.45459 112.928223,458.318359 L112.928223,458.982422 L106.586426,458.982422 L106.586426,459.090332 C106.63623,460.601074 107.507812,461.547363 108.86084,461.547363 C109.881836,461.547363 110.587402,461.173828 110.88623,460.501465 Z M114.995117,463 L117.053711,463 L117.053711,457.47998 C117.053711,456.367676 117.809082,455.529297 118.830078,455.529297 C119.842773,455.529297 120.473633,456.135254 120.473633,457.131348 L120.473633,463 L122.474121,463 L122.474121,457.347168 C122.474121,456.30957 123.179688,455.529297 124.250488,455.529297 C125.354492,455.529297 125.910645,456.110352 125.910645,457.280762 L125.910645,463 L127.960938,463 L127.960938,456.757812 C127.960938,454.873535 126.865234,453.736328 125.047363,453.736328 C123.785645,453.736328 122.739746,454.39209 122.291504,455.388184 L122.150391,455.388184 C121.768555,454.367188 120.896973,453.736328 119.643555,453.736328 C118.439941,453.736328 117.510254,454.350586 117.120117,455.388184 L116.979004,455.388184 L116.979004,453.918945 L114.995117,453.918945 L114.995117,463 Z M135.448242,463.149414 C134.178223,463.149414 133.124023,462.560059 132.609375,461.563965 L132.468262,461.563965 L132.468262,463 L130.484375,463 L130.484375,450.407715 L132.542969,450.407715 L132.542969,455.363281 L132.684082,455.363281 C133.157227,454.375488 134.203125,453.769531 135.448242,453.769531 C137.747559,453.769531 139.175293,455.554199 139.175293,458.459473 C139.175293,461.348145 137.739258,463.149414 135.448242,463.149414 Z M134.800781,455.520996 C133.397949,455.520996 132.509766,456.649902 132.509766,458.459473 C132.509766,460.269043 133.389648,461.397949 134.800781,461.397949 C136.211914,461.397949 137.058594,460.285645 137.058594,458.459473 C137.058594,456.633301 136.203613,455.520996 134.800781,455.520996 Z M145.052246,455.371582 C143.82373,455.371582 142.960449,456.251465 142.869141,457.57959 L147.144043,457.57959 C147.102539,456.234863 146.289062,455.371582 145.052246,455.371582 Z M147.160645,460.501465 L149.111328,460.501465 C148.721191,462.15332 147.21875,463.182617 145.077148,463.182617 C142.404297,463.182617 140.793945,461.414551 140.793945,458.492676 C140.793945,455.570801 142.429199,453.736328 145.060547,453.736328 C147.650391,453.736328 149.202637,455.45459 149.202637,458.318359 L149.202637,458.982422 L142.86084,458.982422 L142.86084,459.090332 C142.910645,460.601074 143.782227,461.547363 145.135254,461.547363 C146.15625,461.547363 146.861816,461.173828 147.160645,460.501465 Z M151.269531,463 L153.328125,463 L153.328125,457.753906 C153.328125,456.483887 154.257812,455.653809 155.594238,455.653809 C155.942871,455.653809 156.490723,455.711914 156.648438,455.77002 L156.648438,453.86084 C156.45752,453.802734 156.092285,453.769531 155.793457,453.769531 C154.623047,453.769531 153.643555,454.433594 153.394531,455.330078 L153.253418,455.330078 L153.253418,453.918945 L151.269531,453.918945 L151.269531,463 Z M167.812988,453.769531 C170.112305,453.769531 171.556641,455.545898 171.556641,458.459473 C171.556641,461.356445 170.128906,463.149414 167.837891,463.149414 C166.534668,463.149414 165.530273,462.584961 165.06543,461.62207 L164.924316,461.62207 L164.924316,466.021484 L162.865723,466.021484 L162.865723,453.918945 L164.849609,453.918945 L164.849609,455.421387 L164.990723,455.421387 C165.513672,454.39209 166.567871,453.769531 167.812988,453.769531 Z M167.165527,461.397949 C168.593262,461.397949 169.439941,460.293945 169.439941,458.459473 C169.439941,456.625 168.584961,455.520996 167.173828,455.520996 C165.770996,455.520996 164.891113,456.649902 164.882812,458.459473 C164.891113,460.277344 165.762695,461.397949 167.165527,461.397949 Z M176.728027,461.530762 C177.973145,461.530762 178.902832,460.725586 178.902832,459.671387 L178.902832,458.949219 L176.852539,459.082031 C175.69873,459.156738 175.15918,459.571777 175.15918,460.310547 C175.15918,461.074219 175.814941,461.530762 176.728027,461.530762 Z M176.12207,463.149414 C174.370605,463.149414 173.117188,462.086914 173.117188,460.426758 C173.117188,458.783203 174.354004,457.836914 176.562012,457.704102 L178.902832,457.562988 L178.902832,456.799316 C178.902832,455.911133 178.305176,455.413086 177.192871,455.413086 C176.246582,455.413086 175.599121,455.745117 175.408203,456.359375 L173.46582,456.359375 C173.631836,454.757324 175.134277,453.736328 177.29248,453.736328 C179.625,453.736328 180.936523,454.873535 180.936523,456.799316 L180.936523,463 L178.952637,463 L178.952637,461.754883 L178.811523,461.754883 C178.305176,462.634766 177.309082,463.149414 176.12207,463.149414 Z M183.202637,456.51709 C183.202637,457.886719 184.024414,458.691895 185.767578,459.090332 L187.37793,459.463867 C188.241211,459.654785 188.631348,459.978516 188.631348,460.493164 C188.631348,461.165527 187.90918,461.62207 186.871582,461.62207 C185.842285,461.62207 185.203125,461.223633 185.003906,460.55127 L182.970215,460.55127 C183.12793,462.203125 184.555664,463.182617 186.821777,463.182617 C189.087891,463.182617 190.689941,462.020508 190.689941,460.277344 C190.689941,458.940918 189.884766,458.193848 188.149902,457.803711 L186.547852,457.438477 C185.634766,457.230957 185.203125,456.915527 185.203125,456.400879 C185.203125,455.745117 185.908691,455.296875 186.84668,455.296875 C187.80957,455.296875 188.415527,455.703613 188.564941,456.342773 L190.499023,456.342773 C190.349609,454.690918 188.996582,453.736328 186.838379,453.736328 C184.696777,453.736328 183.202637,454.873535 183.202637,456.51709 Z M192.399902,456.51709 C192.399902,457.886719 193.22168,458.691895 194.964844,459.090332 L196.575195,459.463867 C197.438477,459.654785 197.828613,459.978516 197.828613,460.493164 C197.828613,461.165527 197.106445,461.62207 196.068848,461.62207 C195.039551,461.62207 194.400391,461.223633 194.201172,460.55127 L192.16748,460.55127 C192.325195,462.203125 193.75293,463.182617 196.019043,463.182617 C198.285156,463.182617 199.887207,462.020508 199.887207,460.277344 C199.887207,458.940918 199.082031,458.193848 197.347168,457.803711 L195.745117,457.438477 C194.832031,457.230957 194.400391,456.915527 194.400391,456.400879 C194.400391,455.745117 195.105957,455.296875 196.043945,455.296875 C197.006836,455.296875 197.612793,455.703613 197.762207,456.342773 L199.696289,456.342773 C199.546875,454.690918 198.193848,453.736328 196.035645,453.736328 C193.894043,453.736328 192.399902,454.873535 192.399902,456.51709 Z M213.882324,453.918945 L211.832031,453.918945 L210.32959,460.700684 L210.188477,460.700684 L208.428711,453.918945 L206.461426,453.918945 L204.718262,460.700684 L204.577148,460.700684 L203.066406,453.918945 L200.991211,453.918945 L203.448242,463 L205.589844,463 L207.349609,456.458984 L207.490723,456.458984 L209.258789,463 L211.425293,463 L213.882324,453.918945 Z M219.236328,463.182617 C216.513672,463.182617 214.870117,461.40625 214.870117,458.459473 C214.870117,455.529297 216.538574,453.736328 219.236328,453.736328 C221.942383,453.736328 223.602539,455.520996 223.602539,458.459473 C223.602539,461.40625 221.950684,463.182617 219.236328,463.182617 Z M219.236328,461.456055 C220.672363,461.456055 221.48584,460.360352 221.48584,458.459473 C221.48584,456.566895 220.664062,455.462891 219.236328,455.462891 C217.800293,455.462891 216.978516,456.566895 216.978516,458.459473 C216.978516,460.360352 217.800293,461.456055 219.236328,461.456055 Z M225.677734,463 L227.736328,463 L227.736328,457.753906 C227.736328,456.483887 228.666016,455.653809 230.002441,455.653809 C230.351074,455.653809 230.898926,455.711914 231.056641,455.77002 L231.056641,453.86084 C230.865723,453.802734 230.500488,453.769531 230.20166,453.769531 C229.03125,453.769531 228.051758,454.433594 227.802734,455.330078 L227.661621,455.330078 L227.661621,453.918945 L225.677734,453.918945 L225.677734,463 Z M235.804688,463.149414 C233.505371,463.149414 232.069336,461.339844 232.069336,458.451172 C232.069336,455.579102 233.513672,453.769531 235.804688,453.769531 C237.049805,453.769531 238.079102,454.367188 238.560547,455.363281 L238.70166,455.363281 L238.70166,450.407715 L240.760254,450.407715 L240.760254,463 L238.768066,463 L238.768066,461.563965 L238.626953,461.563965 C238.112305,462.560059 237.066406,463.149414 235.804688,463.149414 Z M236.443848,455.520996 C235.041016,455.520996 234.177734,456.633301 234.177734,458.459473 C234.177734,460.293945 235.032715,461.397949 236.443848,461.397949 C237.863281,461.397949 238.726562,460.285645 238.726562,458.459473 C238.726562,456.649902 237.85498,455.520996 236.443848,455.520996 Z M242.744141,454.317383 L244.694824,454.317383 C244.76123,453.304688 245.450195,452.657227 246.520996,452.657227 C247.566895,452.657227 248.26416,453.279785 248.26416,454.143066 C248.26416,454.964844 247.915527,455.404785 246.88623,456.027344 C245.740723,456.699707 245.259277,457.446777 245.333984,458.691895 L245.342285,459.256348 L247.268066,459.256348 L247.268066,458.783203 C247.268066,457.961426 247.575195,457.538086 248.662598,456.898926 C249.791504,456.226562 250.422363,455.338379 250.422363,454.068359 C250.422363,452.233887 248.90332,450.922363 246.628906,450.922363 C244.163574,450.922363 242.810547,452.350098 242.744141,454.317383 Z M246.396484,463.21582 C247.243164,463.21582 247.774414,462.692871 247.774414,461.895996 C247.774414,461.09082 247.243164,460.567871 246.396484,460.567871 C245.566406,460.567871 245.018555,461.09082 245.018555,461.895996 C245.018555,462.692871 245.566406,463.21582 246.396484,463.21582 Z M256.755859,459.746094 C256.86377,461.920898 258.681641,463.298828 261.429199,463.298828 C264.334473,463.298828 266.135742,461.846191 266.135742,459.513672 C266.135742,457.6875 265.114746,456.674805 262.682617,456.126953 L261.304688,455.811523 C259.818848,455.471191 259.212891,454.998047 259.212891,454.192871 C259.212891,453.171875 260.125977,452.507812 261.503906,452.507812 C262.81543,452.507812 263.745117,453.171875 263.894531,454.226074 L265.944824,454.226074 C265.845215,452.16748 264.027344,450.723145 261.512207,450.723145 C258.831055,450.723145 257.054688,452.16748 257.054688,454.342285 C257.054688,456.126953 258.075684,457.206055 260.250488,457.695801 L261.802734,458.052734 C263.338379,458.409668 263.994141,458.916016 263.994141,459.779297 C263.994141,460.783691 262.973145,461.505859 261.562012,461.505859 C260.042969,461.505859 258.980469,460.816895 258.847656,459.746094 L256.755859,459.746094 Z M268.352051,463 L270.402344,463 L270.402344,453.918945 L268.352051,453.918945 L268.352051,463 Z M269.373047,452.441406 C270.128418,452.441406 270.643066,451.959961 270.643066,451.304199 C270.643066,450.648438 270.128418,450.166992 269.373047,450.166992 C268.625977,450.166992 268.103027,450.648438 268.103027,451.304199 C268.103027,451.959961 268.625977,452.441406 269.373047,452.441406 Z M276.852051,461.19043 C278.288086,461.19043 279.151367,460.094727 279.151367,458.359863 C279.151367,456.625 278.279785,455.520996 276.852051,455.520996 C275.416016,455.520996 274.602539,456.625 274.602539,458.359863 C274.602539,460.094727 275.416016,461.19043 276.852051,461.19043 Z M276.852051,466.453125 C274.519531,466.453125 272.992188,465.423828 272.826172,463.863281 L274.893066,463.863281 C275.025879,464.48584 275.756348,464.884277 276.885254,464.884277 C278.296387,464.884277 279.118164,464.220215 279.118164,463.083008 L279.118164,461.364746 L278.977051,461.364746 C278.454102,462.335938 277.466309,462.867188 276.20459,462.867188 C273.913574,462.867188 272.48584,461.09082 272.48584,458.359863 C272.48584,455.579102 273.921875,453.769531 276.237793,453.769531 C277.474609,453.769531 278.553711,454.383789 279.051758,455.371582 L279.192871,455.371582 L279.192871,453.918945 L281.176758,453.918945 L281.176758,463.033203 C281.176758,465.133301 279.5,466.453125 276.852051,466.453125 Z M283.700195,463 L285.758789,463 L285.758789,457.712402 C285.758789,456.375977 286.530762,455.529297 287.759277,455.529297 C289.012695,455.529297 289.59375,456.226562 289.59375,457.612793 L289.59375,463 L291.652344,463 L291.652344,457.123047 C291.652344,454.956543 290.54834,453.736328 288.522949,453.736328 C287.169922,453.736328 286.256836,454.358887 285.825195,455.371582 L285.684082,455.371582 L285.684082,453.918945 L283.700195,453.918945 L283.700195,463 Z M298.649902,463 L300.700195,463 L300.700195,453.918945 L298.649902,453.918945 L298.649902,463 Z M299.670898,452.441406 C300.42627,452.441406 300.940918,451.959961 300.940918,451.304199 C300.940918,450.648438 300.42627,450.166992 299.670898,450.166992 C298.923828,450.166992 298.400879,450.648438 298.400879,451.304199 C298.400879,451.959961 298.923828,452.441406 299.670898,452.441406 Z M303.248535,463 L305.307129,463 L305.307129,457.712402 C305.307129,456.375977 306.079102,455.529297 307.307617,455.529297 C308.561035,455.529297 309.14209,456.226562 309.14209,457.612793 L309.14209,463 L311.200684,463 L311.200684,457.123047 C311.200684,454.956543 310.09668,453.736328 308.071289,453.736328 C306.718262,453.736328 305.805176,454.358887 305.373535,455.371582 L305.232422,455.371582 L305.232422,453.918945 L303.248535,453.918945 L303.248535,463 Z M315.176758,463.174316 C315.965332,463.174316 316.504883,462.609863 316.504883,461.862793 C316.504883,461.107422 315.965332,460.55127 315.176758,460.55127 C314.396484,460.55127 313.848633,461.107422 313.848633,461.862793 C313.848633,462.609863 314.396484,463.174316 315.176758,463.174316 Z"/>
    <rect width="296" height="48" x="45" y="370" fill="#0060DF" rx="2"/>
    <path fill="#FFF" d="M139.716309,389.603027 L139.716309,393.645996 L142.316406,393.645996 C143.671387,393.645996 144.44043,392.920898 144.44043,391.624512 C144.44043,390.357422 143.620117,389.603027 142.257812,389.603027 L139.716309,389.603027 Z M139.716309,394.817871 L139.716309,399 L138.397949,399 L138.397949,388.431152 L142.433594,388.431152 C144.469727,388.431152 145.802734,389.67627 145.802734,391.580566 C145.802734,393.052734 145.004395,394.195312 143.678711,394.612793 L146.125,399 L144.57959,399 L142.316406,394.817871 L139.716309,394.817871 Z M150.966309,392.078613 C149.706543,392.078613 148.827637,393.001465 148.732422,394.400391 L153.083008,394.400391 C153.053711,393.001465 152.21875,392.078613 150.966309,392.078613 Z M153.046387,396.956543 L154.306152,396.956543 C153.925293,398.311523 152.709473,399.13916 150.980957,399.13916 C148.791016,399.13916 147.421387,397.557129 147.421387,395.05957 C147.421387,392.57666 148.812988,390.965332 150.980957,390.965332 C153.112305,390.965332 154.408691,392.481445 154.408691,394.935059 L154.408691,395.418457 L148.732422,395.418457 L148.732422,395.477051 C148.79834,397.037109 149.669922,398.025879 151.010254,398.025879 C152.02832,398.025879 152.716797,397.652344 153.046387,396.956543 Z M156.203125,393.265137 C156.203125,394.407715 156.876953,395.044922 158.356445,395.403809 L159.711426,395.733398 C160.553711,395.938477 160.963867,396.304688 160.963867,396.84668 C160.963867,397.571777 160.202148,398.077148 159.140137,398.077148 C158.129395,398.077148 157.499512,397.652344 157.287109,396.98584 L155.990723,396.98584 C156.129883,398.296875 157.338379,399.13916 159.096191,399.13916 C160.890625,399.13916 162.260254,398.165039 162.260254,396.751465 C162.260254,395.616211 161.54248,394.97168 160.055664,394.612793 L158.839844,394.319824 C157.909668,394.092773 157.470215,393.755859 157.470215,393.213867 C157.470215,392.510742 158.202637,392.034668 159.140137,392.034668 C160.092285,392.034668 160.70752,392.452148 160.875977,393.082031 L162.121094,393.082031 C161.952637,391.785645 160.802734,390.965332 159.147461,390.965332 C157.470215,390.965332 156.203125,391.954102 156.203125,393.265137 Z M167.387207,392.078613 C166.127441,392.078613 165.248535,393.001465 165.15332,394.400391 L169.503906,394.400391 C169.474609,393.001465 168.639648,392.078613 167.387207,392.078613 Z M169.467285,396.956543 L170.727051,396.956543 C170.346191,398.311523 169.130371,399.13916 167.401855,399.13916 C165.211914,399.13916 163.842285,397.557129 163.842285,395.05957 C163.842285,392.57666 165.233887,390.965332 167.401855,390.965332 C169.533203,390.965332 170.82959,392.481445 170.82959,394.935059 L170.82959,395.418457 L165.15332,395.418457 L165.15332,395.477051 C165.219238,397.037109 166.09082,398.025879 167.431152,398.025879 C168.449219,398.025879 169.137695,397.652344 169.467285,396.956543 Z M173.334473,389.061035 L173.334473,391.104492 L172.060059,391.104492 L172.060059,392.15918 L173.334473,392.15918 L173.334473,396.949219 C173.334473,398.458008 173.986328,399.058594 175.612305,399.058594 C175.861328,399.058594 176.103027,399.029297 176.352051,398.985352 L176.352051,397.92334 C176.117676,397.945312 175.993164,397.952637 175.766113,397.952637 C174.945801,397.952637 174.594238,397.557129 174.594238,396.626953 L174.594238,392.15918 L176.352051,392.15918 L176.352051,391.104492 L174.594238,391.104492 L174.594238,389.061035 L173.334473,389.061035 Z M186.334961,390.965332 C188.349121,390.965332 189.652832,392.569336 189.652832,395.052246 C189.652832,397.520508 188.341797,399.13916 186.334961,399.13916 C185.207031,399.13916 184.298828,398.648438 183.866699,397.813477 L183.749512,397.813477 L183.749512,401.636719 L182.489746,401.636719 L182.489746,391.104492 L183.690918,391.104492 L183.690918,392.422852 L183.808105,392.422852 C184.313477,391.514648 185.258301,390.965332 186.334961,390.965332 Z M186.034668,398.003906 C187.484863,398.003906 188.349121,396.897949 188.349121,395.052246 C188.349121,393.206543 187.484863,392.100586 186.041992,392.100586 C184.61377,392.100586 183.712891,393.23584 183.712891,395.052246 C183.712891,396.861328 184.61377,398.003906 186.034668,398.003906 Z M194.062012,398.033203 C195.358398,398.033203 196.317871,397.183594 196.317871,396.055664 L196.317871,395.330566 L194.193848,395.469727 C192.992676,395.550293 192.465332,395.967773 192.465332,396.758789 C192.465332,397.564453 193.146484,398.033203 194.062012,398.033203 Z M193.827637,399.13916 C192.296875,399.13916 191.161621,398.230957 191.161621,396.788086 C191.161621,395.374512 192.20166,394.561523 194.040039,394.45166 L196.317871,394.3125 L196.317871,393.594727 C196.317871,392.620605 195.709961,392.085938 194.530762,392.085938 C193.585938,392.085938 192.926758,392.444824 192.750977,393.067383 L191.476562,393.067383 C191.64502,391.800293 192.890137,390.965332 194.574707,390.965332 C196.500977,390.965332 197.577637,391.954102 197.577637,393.594727 L197.577637,399 L196.376465,399 L196.376465,397.835449 L196.259277,397.835449 C195.746582,398.677734 194.882324,399.13916 193.827637,399.13916 Z M199.723633,393.265137 C199.723633,394.407715 200.397461,395.044922 201.876953,395.403809 L203.231934,395.733398 C204.074219,395.938477 204.484375,396.304688 204.484375,396.84668 C204.484375,397.571777 203.722656,398.077148 202.660645,398.077148 C201.649902,398.077148 201.02002,397.652344 200.807617,396.98584 L199.51123,396.98584 C199.650391,398.296875 200.858887,399.13916 202.616699,399.13916 C204.411133,399.13916 205.780762,398.165039 205.780762,396.751465 C205.780762,395.616211 205.062988,394.97168 203.576172,394.612793 L202.360352,394.319824 C201.430176,394.092773 200.990723,393.755859 200.990723,393.213867 C200.990723,392.510742 201.723145,392.034668 202.660645,392.034668 C203.612793,392.034668 204.228027,392.452148 204.396484,393.082031 L205.641602,393.082031 C205.473145,391.785645 204.323242,390.965332 202.667969,390.965332 C200.990723,390.965332 199.723633,391.954102 199.723633,393.265137 Z M207.428711,393.265137 C207.428711,394.407715 208.102539,395.044922 209.582031,395.403809 L210.937012,395.733398 C211.779297,395.938477 212.189453,396.304688 212.189453,396.84668 C212.189453,397.571777 211.427734,398.077148 210.365723,398.077148 C209.35498,398.077148 208.725098,397.652344 208.512695,396.98584 L207.216309,396.98584 C207.355469,398.296875 208.563965,399.13916 210.321777,399.13916 C212.116211,399.13916 213.48584,398.165039 213.48584,396.751465 C213.48584,395.616211 212.768066,394.97168 211.28125,394.612793 L210.06543,394.319824 C209.135254,394.092773 208.695801,393.755859 208.695801,393.213867 C208.695801,392.510742 209.428223,392.034668 210.365723,392.034668 C211.317871,392.034668 211.933105,392.452148 212.101562,393.082031 L213.34668,393.082031 C213.178223,391.785645 212.02832,390.965332 210.373047,390.965332 C208.695801,390.965332 207.428711,391.954102 207.428711,393.265137 Z M225.175293,391.104492 L223.908203,391.104492 L222.355469,397.417969 L222.238281,397.417969 L220.473145,391.104492 L219.264648,391.104492 L217.499512,397.417969 L217.382324,397.417969 L215.82959,391.104492 L214.555176,391.104492 L216.76709,399 L218.041504,399 L219.799316,392.891602 L219.916504,392.891602 L221.681641,399 L222.963379,399 L225.175293,391.104492 Z M229.811523,399.13916 C227.562988,399.13916 226.171387,397.586426 226.171387,395.052246 C226.171387,392.510742 227.562988,390.965332 229.811523,390.965332 C232.060059,390.965332 233.45166,392.510742 233.45166,395.052246 C233.45166,397.586426 232.060059,399.13916 229.811523,399.13916 Z M229.811523,398.003906 C231.305664,398.003906 232.147949,396.919922 232.147949,395.052246 C232.147949,393.177246 231.305664,392.100586 229.811523,392.100586 C228.317383,392.100586 227.475098,393.177246 227.475098,395.052246 C227.475098,396.919922 228.317383,398.003906 229.811523,398.003906 Z M235.429199,399 L236.688965,399 L236.688965,394.107422 C236.688965,392.994141 237.560547,392.188477 238.761719,392.188477 C239.010742,392.188477 239.464844,392.232422 239.567383,392.261719 L239.567383,391.001953 C239.40625,390.97998 239.142578,390.965332 238.9375,390.965332 C237.890137,390.965332 236.981934,391.507324 236.747559,392.276367 L236.630371,392.276367 L236.630371,391.104492 L235.429199,391.104492 L235.429199,399 Z M243.844727,399.13916 C241.823242,399.13916 240.526855,397.535156 240.526855,395.052246 C240.526855,392.57666 241.837891,390.965332 243.844727,390.965332 C244.943359,390.965332 245.873535,391.485352 246.320312,392.349609 L246.430176,392.349609 L246.430176,387.969727 L247.689941,387.969727 L247.689941,399 L246.48877,399 L246.48877,397.740234 L246.371582,397.740234 C245.873535,398.619141 244.936035,399.13916 243.844727,399.13916 Z M244.137695,392.100586 C242.702148,392.100586 241.830566,393.213867 241.830566,395.052246 C241.830566,396.897949 242.694824,398.003906 244.137695,398.003906 C245.573242,398.003906 246.459473,396.875977 246.459473,395.052246 C246.459473,393.243164 245.565918,392.100586 244.137695,392.100586 Z"/>
  </g>
</svg>
