<svg xmlns="http://www.w3.org/2000/svg" xmlns:xlink="http://www.w3.org/1999/xlink" viewBox="0 0 383 500"><defs><rect id="a" width="296" height="48" rx="2"/></defs><g fill="none" fill-rule="evenodd"><path fill="#0C0C0D" d="M130.04 93.29h-2.15l-2.57-4.32a9.4 9.4 0 0 0-.7-1.03 3.92 3.92 0 0 0-.67-.7 2.36 2.36 0 0 0-.76-.38 3.1 3.1 0 0 0-.9-.13h-1.49v6.56H119v-15.4h4.6c.67 0 1.3.08 1.86.24.57.17 1.06.43 1.48.77.42.35.75.77.99 1.29.23.5.35 1.1.35 1.8 0 .53-.08 1.02-.24 1.47a3.86 3.86 0 0 1-1.76 2.1c-.42.24-.9.43-1.41.57v.04a3.25 3.25 0 0 1 1.2.92c.18.2.35.42.52.68.17.25.36.55.56.89l2.9 4.63zM120.8 79.5v5.59h2.45c.46 0 .87-.07 1.26-.2a2.65 2.65 0 0 0 1.65-1.52c.15-.37.23-.79.23-1.25 0-.82-.27-1.46-.8-1.92-.53-.47-1.3-.7-2.31-.7h-2.48zm19.35 8.72h-7.77c.03 1.22.36 2.17 1 2.83.62.67 1.49 1 2.6 1a5.4 5.4 0 0 0 3.4-1.22v1.65a6.38 6.38 0 0 1-3.83 1.05c-1.55 0-2.77-.5-3.66-1.5-.89-1-1.33-2.4-1.33-4.21 0-1.71.48-3.1 1.45-4.19a4.67 4.67 0 0 1 3.62-1.61c1.44 0 2.55.46 3.34 1.4.79.92 1.18 2.22 1.18 3.87v.93zm-1.8-1.5c-.01-1.01-.26-1.8-.74-2.37a2.5 2.5 0 0 0-2.01-.85c-.83 0-1.54.3-2.12.9-.58.59-.94 1.36-1.07 2.32h5.94zm3.8 6.16v-1.9c.96.72 2.02 1.07 3.17 1.07 1.55 0 2.32-.52 2.32-1.55 0-.29-.07-.54-.2-.74-.13-.2-.31-.39-.54-.55-.22-.15-.49-.3-.8-.42l-.97-.4c-.5-.19-.92-.38-1.29-.58-.37-.2-.68-.42-.92-.66a2.48 2.48 0 0 1-.56-.85 2.98 2.98 0 0 1-.19-1.1c0-.52.12-.98.36-1.37.23-.4.55-.73.94-1 .4-.27.84-.47 1.35-.6a6.31 6.31 0 0 1 4.12.29v1.77a4.98 4.98 0 0 0-3.69-.68c-.26.08-.49.18-.68.32-.19.14-.33.3-.44.49-.1.19-.15.4-.15.63 0 .28.05.52.15.72.1.19.26.36.46.51.2.15.44.29.73.41l.98.4c.48.18.92.38 1.3.57.4.2.72.42 1 .67.27.25.48.53.62.85.15.32.22.7.22 1.15 0 .55-.12 1.02-.36 1.42-.24.4-.56.73-.96 1-.4.26-.86.46-1.38.59-.53.13-1.07.2-1.65.2a6.24 6.24 0 0 1-2.94-.66zm18.84-4.66h-7.77c.03 1.22.36 2.17 1 2.83.62.67 1.49 1 2.6 1a5.4 5.4 0 0 0 3.4-1.22v1.65a6.38 6.38 0 0 1-3.83 1.05c-1.55 0-2.77-.5-3.66-1.5-.89-1-1.33-2.4-1.33-4.21 0-1.71.48-3.1 1.45-4.19a4.67 4.67 0 0 1 3.62-1.61c1.44 0 2.55.46 3.34 1.4.79.92 1.18 2.22 1.18 3.87v.93zm-1.8-1.5c-.01-1.01-.26-1.8-.74-2.37a2.5 2.5 0 0 0-2.01-.85c-.83 0-1.54.3-2.12.9-.58.59-.94 1.36-1.07 2.32h5.94zm9.57 6.45a3.4 3.4 0 0 1-1.65.34c-1.92 0-2.89-1.07-2.89-3.22v-6.51h-1.89v-1.5h1.9V79.6l1.76-.57v3.26h2.77v1.5h-2.77v6.2c0 .73.12 1.26.37 1.58.25.31.67.47 1.25.47.44 0 .83-.12 1.15-.37v1.5zm10.42-5.72v5.83h-1.8v-15.4h4.23c1.64 0 2.92.4 3.83 1.2a4.3 4.3 0 0 1 1.35 3.39c0 1.46-.5 2.66-1.5 3.59-1.01.93-2.37 1.4-4.08 1.4h-2.03zm0-7.95v6.32h1.89c1.24 0 2.2-.28 2.85-.85.66-.57.98-1.38.98-2.42 0-2.03-1.2-3.05-3.6-3.05h-2.12zm17.44 13.78h-1.76v-1.72h-.04a3.69 3.69 0 0 1-3.39 1.97c-1.1 0-1.95-.29-2.57-.87a3.01 3.01 0 0 1-.93-2.3c0-2.06 1.21-3.26 3.63-3.6l3.3-.46c0-1.87-.75-2.8-2.27-2.8-1.32 0-2.52.45-3.58 1.35v-1.8a6.82 6.82 0 0 1 3.74-1.03c2.58 0 3.87 1.37 3.87 4.1v7.16zm-1.76-5.57l-2.65.37a4.3 4.3 0 0 0-1.85.6c-.42.3-.62.8-.62 1.54 0 .54.19.98.57 1.32.39.34.9.51 1.53.51.88 0 1.6-.3 2.17-.92.57-.61.85-1.39.85-2.32v-1.1zm4.42 5.17v-1.9c.96.72 2.01 1.07 3.17 1.07 1.54 0 2.32-.52 2.32-1.55 0-.29-.07-.54-.2-.74-.14-.2-.31-.39-.54-.55-.23-.15-.5-.3-.8-.42l-.98-.4c-.49-.19-.91-.38-1.28-.58-.37-.2-.68-.42-.93-.66a2.48 2.48 0 0 1-.55-.85 2.98 2.98 0 0 1-.2-1.1c0-.52.13-.98.36-1.37.24-.4.55-.73.95-1 .4-.27.84-.47 1.35-.6a6.31 6.31 0 0 1 4.12.29v1.77a4.98 4.98 0 0 0-3.69-.68c-.26.08-.5.18-.68.32-.2.14-.34.3-.44.49a1.5 1.5 0 0 0 0 1.35c.1.19.25.36.45.51.2.15.45.29.74.41l.97.4c.49.18.93.38 1.31.57.39.2.72.42 1 .67.26.25.47.53.62.85.15.32.22.7.22 1.15 0 .55-.12 1.02-.36 1.42-.24.4-.56.73-.96 1-.4.26-.86.46-1.39.59-.52.13-1.07.2-1.64.2a6.24 6.24 0 0 1-2.94-.66zm9.33 0v-1.9c.96.72 2.02 1.07 3.17 1.07 1.55 0 2.32-.52 2.32-1.55 0-.29-.07-.54-.2-.74-.13-.2-.31-.39-.54-.55-.22-.15-.49-.3-.79-.42l-.98-.4c-.49-.19-.92-.38-1.29-.58-.37-.2-.67-.42-.92-.66a2.48 2.48 0 0 1-.56-.85 2.98 2.98 0 0 1-.19-1.1c0-.52.12-.98.36-1.37.23-.4.55-.73.94-1 .4-.27.85-.47 1.35-.6a6.31 6.31 0 0 1 4.12.29v1.77a4.98 4.98 0 0 0-3.68-.68c-.27.08-.5.18-.69.32-.19.14-.33.3-.44.49-.1.19-.15.4-.15.63 0 .28.05.52.15.72.1.19.26.36.46.51.2.15.44.29.73.41l.98.4c.48.18.92.38 1.3.57.4.2.72.42 1 .67.27.25.48.53.63.85.14.32.22.7.22 1.15 0 .55-.12 1.02-.36 1.42-.24.4-.56.73-.97 1-.4.26-.86.46-1.38.59-.52.13-1.07.2-1.65.2a6.24 6.24 0 0 1-2.94-.66zm23.86-10.6l-3.3 11h-1.82l-2.27-7.88c-.09-.3-.14-.64-.17-1.02h-.05c-.02.26-.1.6-.22 1l-2.46 7.9h-1.76l-3.33-11h1.84l2.28 8.27c.07.25.12.58.15.98h.09c.02-.31.08-.65.2-1l2.53-8.25h1.6l2.29 8.29c.07.26.12.6.16.99h.08c.02-.28.08-.61.19-1l2.23-8.28h1.74zm6.57 11.25a5.1 5.1 0 0 1-3.89-1.54 5.71 5.71 0 0 1-1.46-4.09c0-1.84.5-3.29 1.52-4.33a5.45 5.45 0 0 1 4.1-1.55c1.63 0 2.91.5 3.83 1.51.92 1.01 1.38 2.41 1.38 4.2 0 1.76-.5 3.16-1.49 4.22a5.21 5.21 0 0 1-3.99 1.58zm.13-10.03c-1.13 0-2.02.38-2.68 1.15a4.74 4.74 0 0 0-1 3.19c0 1.3.34 2.33 1 3.08a3.4 3.4 0 0 0 2.68 1.13c1.14 0 2.02-.37 2.63-1.1a4.8 4.8 0 0 0 .92-3.15c0-1.38-.3-2.44-.92-3.18a3.2 3.2 0 0 0-2.63-1.12zm13.9.56c-.3-.24-.75-.36-1.33-.36-.75 0-1.38.36-1.88 1.07-.5.7-.76 1.67-.76 2.9v5.6h-1.76v-11h1.76v2.27h.04c.25-.77.64-1.38 1.15-1.8.52-.44 1.1-.66 1.73-.66.46 0 .81.05 1.05.15v1.83zm11.01 9.22h-1.76v-1.87h-.04a4.07 4.07 0 0 1-3.78 2.12 4.1 4.1 0 0 1-3.32-1.47 6.06 6.06 0 0 1-1.24-4.03 6.6 6.6 0 0 1 1.38-4.37 4.53 4.53 0 0 1 3.66-1.64c1.51 0 2.61.6 3.3 1.78h.04V77h1.76v16.29zm-1.76-4.98V86.7c0-.89-.3-1.64-.88-2.26a2.95 2.95 0 0 0-2.23-.92c-1.08 0-1.92.4-2.54 1.18a5.18 5.18 0 0 0-.92 3.27c0 1.26.3 2.27.88 3a2.9 2.9 0 0 0 2.38 1.1 3 3 0 0 0 2.4-1.06c.6-.71.91-1.6.91-2.69zm-202.68 39.3l-2.97 10.5h-1.44l-2.16-7.68a4.8 4.8 0 0 1-.17-1.07h-.03c-.03.36-.1.71-.19 1.05l-2.18 7.7h-1.42L46 127.6h1.35l2.24 8.05c.1.33.15.69.17 1.05h.04c.03-.26.1-.6.23-1.05l2.32-8.06h1.18l2.23 8.12c.07.27.13.6.17.98h.03c.02-.26.09-.6.2-1.01l2.14-8.09h1.34zm7.62 10.5h-1.2v-4.33c0-1.56-.58-2.34-1.74-2.34a1.9 1.9 0 0 0-1.48.68c-.4.45-.6 1.03-.6 1.74v4.24h-1.2V127h1.2v4.85h.03a2.73 2.73 0 0 1 2.46-1.42c1.69 0 2.53 1.02 2.53 3.05v4.62zm8.3-3.46h-5.3c.02.84.24 1.48.67 1.94.43.45 1.02.68 1.77.68.85 0 1.63-.28 2.33-.84v1.13c-.66.48-1.53.72-2.61.72-1.06 0-1.9-.34-2.5-1.02-.6-.68-.9-1.64-.9-2.88a4.1 4.1 0 0 1 .99-2.85 3.18 3.18 0 0 1 2.46-1.1c.98 0 1.74.32 2.28.95.53.63.8 1.52.8 2.64v.63zm-1.24-1.01c0-.7-.17-1.24-.5-1.62a1.7 1.7 0 0 0-1.37-.58c-.57 0-1.05.2-1.45.6-.4.41-.63.94-.73 1.6h4.05zm9.28 4.46h-1.2v-4.27c0-1.6-.59-2.4-1.75-2.4-.6 0-1.1.23-1.49.69-.4.45-.59 1.02-.59 1.7v4.28h-1.2v-7.5h1.2v1.25h.03a2.7 2.7 0 0 1 2.46-1.42c.82 0 1.45.26 1.88.8.44.52.66 1.29.66 2.29v4.58zm12.34-7.5l-3.45 8.7c-.62 1.56-1.48 2.33-2.6 2.33-.3 0-.57-.03-.78-.1v-1.07c.26.09.5.13.71.13.6 0 1.06-.36 1.36-1.08l.6-1.42-2.93-7.49h1.34l2.03 5.78.15.57h.04l.15-.56 2.13-5.79h1.25zm4.35 7.68c-1.11 0-2-.35-2.66-1.05a3.9 3.9 0 0 1-.99-2.79c0-1.26.34-2.24 1.03-2.95a3.71 3.71 0 0 1 2.8-1.06c1.11 0 1.98.34 2.61 1.03.63.69.94 1.64.94 2.86 0 1.2-.34 2.16-1.01 2.88a3.55 3.55 0 0 1-2.72 1.08zm.08-6.84c-.77 0-1.38.26-1.83.79a3.23 3.23 0 0 0-.67 2.17c0 .89.23 1.59.68 2.1.46.51 1.06.77 1.83.77a2.2 2.2 0 0 0 1.79-.76c.41-.5.62-1.21.62-2.14 0-.94-.2-1.66-.62-2.17a2.19 2.19 0 0 0-1.8-.76zm11.64 6.66h-1.2v-1.18h-.03c-.5.9-1.27 1.36-2.32 1.36-1.79 0-2.68-1.07-2.68-3.2v-4.48h1.2v4.3c0 1.58.6 2.37 1.81 2.37.59 0 1.07-.22 1.45-.65.38-.43.56-1 .56-1.7v-4.32h1.2v7.5zm10.44-6.28a1.47 1.47 0 0 0-.9-.24c-.52 0-.95.24-1.3.72a3.35 3.35 0 0 0-.51 1.98v3.82h-1.2v-7.5h1.2v1.55h.03c.17-.53.43-.94.78-1.24.35-.3.75-.44 1.18-.44.31 0 .55.04.72.1v1.25zm7.13 2.83h-5.3c.03.84.25 1.48.68 1.94.43.45 1.02.68 1.77.68.85 0 1.63-.28 2.33-.84v1.13c-.66.48-1.53.72-2.61.72-1.06 0-1.9-.34-2.5-1.02-.6-.68-.9-1.64-.9-2.88a4.1 4.1 0 0 1 .99-2.85 3.18 3.18 0 0 1 2.46-1.1c.98 0 1.74.32 2.28.95.54.63.8 1.52.8 2.64v.63zm-1.23-1.01c0-.7-.17-1.24-.5-1.62a1.7 1.7 0 0 0-1.37-.58c-.57 0-1.05.2-1.44.6-.4.41-.64.94-.74 1.6h4.05zm2.6 4.2v-1.3c.65.49 1.37.73 2.16.73 1.05 0 1.58-.35 1.58-1.06 0-.2-.05-.37-.14-.5a1.35 1.35 0 0 0-.36-.38c-.16-.1-.34-.2-.54-.28l-.67-.27a8.63 8.63 0 0 1-.88-.4 2.64 2.64 0 0 1-.63-.45c-.17-.17-.3-.37-.38-.58a2.03 2.03 0 0 1-.13-.75c0-.36.08-.67.24-.94.16-.27.38-.5.65-.68a3 3 0 0 1 .92-.41 4.3 4.3 0 0 1 2.8.2v1.21a3.4 3.4 0 0 0-2.5-.46c-.19.05-.34.12-.47.21a1 1 0 0 0-.3.33.88.88 0 0 0-.1.43c0 .2.03.36.1.5.07.13.17.24.3.35.15.1.31.2.5.27l.67.27c.34.13.63.26.9.4.26.13.49.28.67.45.19.17.33.36.43.58.1.22.15.48.15.79 0 .37-.08.69-.25.96-.16.28-.38.5-.65.68a3 3 0 0 1-.95.4c-.35.1-.73.14-1.12.14-.77 0-1.44-.15-2-.45zm12.84-3.19h-5.3c.03.84.25 1.48.68 1.94.43.45 1.02.68 1.77.68.85 0 1.62-.28 2.33-.84v1.13c-.66.48-1.53.72-2.61.72-1.06 0-1.9-.34-2.5-1.02-.6-.68-.9-1.64-.9-2.88a4.1 4.1 0 0 1 .98-2.85 3.18 3.18 0 0 1 2.47-1.1c.98 0 1.74.32 2.28.95.53.63.8 1.52.8 2.64v.63zm-1.23-1.01c0-.7-.17-1.24-.5-1.62a1.7 1.7 0 0 0-1.37-.58c-.57 0-1.05.2-1.45.6-.4.41-.64.94-.73 1.6h4.05zm6.53 4.39c-.28.16-.66.23-1.12.23-1.32 0-1.97-.73-1.97-2.2v-4.43h-1.3v-1.03h1.3v-1.83l1.2-.39v2.22h1.89v1.03h-1.9v4.22c0 .5.1.87.27 1.08.17.22.45.32.84.32.3 0 .57-.08.79-.25v1.03zm11.68-7.43l-3.45 8.7c-.61 1.56-1.48 2.33-2.6 2.33-.3 0-.57-.03-.78-.1v-1.07c.26.09.5.13.71.13.61 0 1.06-.36 1.37-1.08l.6-1.42-2.93-7.49h1.33l2.03 5.78c.02.07.08.26.15.57h.05l.14-.56 2.14-5.79h1.24zm4.35 7.68c-1.1 0-2-.35-2.65-1.05a3.9 3.9 0 0 1-1-2.79c0-1.26.35-2.24 1.04-2.95a3.71 3.71 0 0 1 2.79-1.06c1.12 0 1.99.34 2.62 1.03.62.69.94 1.64.94 2.86 0 1.2-.34 2.16-1.02 2.88a3.55 3.55 0 0 1-2.72 1.08zm.09-6.84c-.77 0-1.38.26-1.83.79a3.23 3.23 0 0 0-.68 2.17c0 .89.23 1.59.69 2.1.45.51 1.06.77 1.82.77a2.2 2.2 0 0 0 1.79-.76c.42-.5.63-1.21.63-2.14 0-.94-.21-1.66-.63-2.17a2.19 2.19 0 0 0-1.8-.76zm11.63 6.66h-1.2v-1.18h-.03c-.5.9-1.27 1.36-2.32 1.36-1.78 0-2.68-1.07-2.68-3.2v-4.48h1.2v4.3c0 1.58.6 2.37 1.81 2.37.59 0 1.07-.22 1.45-.65.38-.43.57-1 .57-1.7v-4.32h1.2v7.5zm6.34-6.28a1.47 1.47 0 0 0-.91-.24c-.52 0-.94.24-1.29.72a3.35 3.35 0 0 0-.51 1.98v3.82h-1.2v-7.5h1.2v1.55h.02c.18-.53.44-.94.79-1.24.35-.3.74-.44 1.18-.44.31 0 .55.04.72.1v1.25zm6.64 5.2h-.03v4.53h-1.2V130.6h1.2v1.32h.03c.59-1 1.45-1.5 2.6-1.5.96 0 1.71.34 2.25 1.01.55.68.82 1.58.82 2.7 0 1.26-.3 2.26-.92 3.02a3.05 3.05 0 0 1-2.5 1.13 2.5 2.5 0 0 1-2.25-1.26zm-.03-3.03v1.05c0 .62.2 1.15.6 1.58a2 2 0 0 0 1.54.65c.73 0 1.3-.28 1.7-.84.42-.55.63-1.33.63-2.32 0-.83-.2-1.49-.58-1.96-.39-.47-.91-.71-1.57-.71-.7 0-1.26.24-1.68.73-.43.48-.64 1.1-.64 1.82zm12.79 4.11h-1.2v-1.17h-.03c-.53.9-1.3 1.35-2.31 1.35-.75 0-1.33-.2-1.75-.6-.43-.39-.64-.91-.64-1.57 0-1.4.83-2.22 2.48-2.44l2.25-.32c0-1.27-.52-1.91-1.55-1.91-.9 0-1.72.3-2.45.92v-1.23c.74-.47 1.6-.7 2.55-.7 1.77 0 2.65.93 2.65 2.8v4.87zm-1.2-3.79l-1.81.25c-.56.08-.98.21-1.26.41-.29.2-.43.55-.43 1.05 0 .37.13.67.4.9.26.23.6.35 1.04.35.6 0 1.09-.21 1.47-.63.4-.42.59-.94.59-1.58v-.75zm3 3.52v-1.29c.66.49 1.38.73 2.17.73 1.05 0 1.58-.35 1.58-1.06 0-.2-.05-.37-.14-.5a1.35 1.35 0 0 0-.36-.38c-.16-.1-.34-.2-.54-.28l-.67-.27a8.63 8.63 0 0 1-.88-.4 2.64 2.64 0 0 1-.63-.45c-.17-.17-.3-.37-.38-.58a2.03 2.03 0 0 1-.13-.75c0-.36.08-.67.24-.94.16-.27.38-.5.65-.68a3 3 0 0 1 .92-.41 4.3 4.3 0 0 1 2.8.2v1.21a3.4 3.4 0 0 0-2.5-.46c-.19.05-.34.12-.47.21a1 1 0 0 0-.3.33.88.88 0 0 0-.1.43c0 .2.03.36.1.5.07.13.17.24.3.35.15.1.31.2.5.27l.67.27c.34.13.63.26.9.4.26.13.49.28.67.45.19.17.33.36.43.58.1.22.15.48.15.79 0 .37-.08.69-.25.96-.16.28-.38.5-.65.68a3 3 0 0 1-.95.4c-.35.1-.73.14-1.12.14-.77 0-1.44-.15-2-.45zm6.37 0v-1.29c.66.49 1.38.73 2.16.73 1.06 0 1.58-.35 1.58-1.06 0-.2-.04-.37-.13-.5a1.35 1.35 0 0 0-.37-.38c-.15-.1-.33-.2-.54-.28l-.67-.27a8.63 8.63 0 0 1-.88-.4 2.64 2.64 0 0 1-.63-.45c-.16-.17-.3-.37-.38-.58a2.03 2.03 0 0 1-.12-.75c0-.36.08-.67.24-.94.16-.27.37-.5.64-.68a3 3 0 0 1 .92-.41 4.3 4.3 0 0 1 2.8.2l.01 1.21a3.4 3.4 0 0 0-2.51-.46c-.18.05-.34.12-.47.21a1 1 0 0 0-.3.33.88.88 0 0 0-.1.43c0 .2.03.36.1.5.07.13.18.24.31.35.14.1.3.2.5.27l.67.27c.33.13.63.26.9.4.26.13.48.28.67.45.18.17.32.36.42.58.1.22.15.48.15.79 0 .37-.08.69-.24.96-.16.28-.38.5-.66.68a3 3 0 0 1-.94.4c-.36.1-.73.14-1.12.14-.77 0-1.44-.15-2-.45zm16.27-7.23l-2.25 7.5h-1.25l-1.54-5.37a3.5 3.5 0 0 1-.12-.7h-.03c-.01.18-.06.41-.15.69L220 138.1h-1.2l-2.27-7.5h1.26l1.55 5.64c.05.17.09.4.1.68h.06c.02-.22.06-.45.14-.7l1.72-5.62h1.1l1.56 5.66c.04.18.08.4.1.67h.06c.01-.19.05-.41.13-.67l1.52-5.66h1.19zm4.48 7.68c-1.1 0-2-.35-2.65-1.05a3.9 3.9 0 0 1-1-2.79c0-1.26.35-2.24 1.04-2.95a3.71 3.71 0 0 1 2.79-1.06c1.11 0 1.99.34 2.61 1.03.63.69.95 1.64.95 2.86 0 1.2-.34 2.16-1.02 2.88a3.55 3.55 0 0 1-2.72 1.08zm.09-6.84c-.77 0-1.38.26-1.83.79a3.23 3.23 0 0 0-.68 2.17c0 .89.23 1.59.68 2.1.46.51 1.07.77 1.83.77a2.2 2.2 0 0 0 1.79-.76c.42-.5.63-1.21.63-2.14 0-.94-.21-1.66-.63-2.17a2.19 2.19 0 0 0-1.8-.76zm9.48.38a1.47 1.47 0 0 0-.91-.24c-.51 0-.94.24-1.29.72a3.35 3.35 0 0 0-.51 1.98v3.82h-1.2v-7.5h1.2v1.55h.03c.17-.53.43-.94.78-1.24.35-.3.74-.44 1.18-.44.31 0 .55.04.72.1v1.25zm7.5 6.28h-1.2v-1.27h-.03a2.77 2.77 0 0 1-2.58 1.45 2.8 2.8 0 0 1-2.25-1 4.13 4.13 0 0 1-.85-2.75c0-1.24.31-2.23.94-2.98a3.1 3.1 0 0 1 2.5-1.12c1.02 0 1.77.4 2.24 1.21h.03V127h1.2v11.1zm-1.2-3.39v-1.1c0-.6-.2-1.12-.6-1.54-.4-.42-.9-.63-1.52-.63-.73 0-1.31.27-1.73.8a3.53 3.53 0 0 0-.63 2.23c0 .86.2 1.55.6 2.05.4.5.95.75 1.63.75.67 0 1.2-.24 1.63-.73.41-.48.62-1.09.62-1.83zm4.73 1.72l-1.17 3.6h-.86l.86-3.6h1.17zm12.23-5.83l-3.44 8.7c-.62 1.56-1.48 2.33-2.6 2.33-.31 0-.57-.03-.78-.1v-1.07c.26.09.5.13.7.13.61 0 1.07-.36 1.37-1.08l.6-1.42-2.93-7.49h1.34l2.02 5.78.16.57h.04l.15-.56 2.13-5.79h1.24zm4.36 7.68c-1.11 0-2-.35-2.66-1.05a3.9 3.9 0 0 1-1-2.79c0-1.26.35-2.24 1.04-2.95a3.71 3.71 0 0 1 2.8-1.06c1.1 0 1.98.34 2.61 1.03.63.69.94 1.64.94 2.86 0 1.2-.34 2.16-1.01 2.88a3.55 3.55 0 0 1-2.72 1.08zm.08-6.84c-.77 0-1.38.26-1.83.79a3.23 3.23 0 0 0-.67 2.17c0 .89.23 1.59.68 2.1.45.51 1.06.77 1.82.77a2.2 2.2 0 0 0 1.8-.76c.41-.5.62-1.21.62-2.14 0-.94-.2-1.66-.63-2.17a2.19 2.19 0 0 0-1.79-.76zm11.63 6.66h-1.2v-1.18h-.03c-.5.9-1.27 1.36-2.31 1.36-1.79 0-2.68-1.07-2.68-3.2v-4.48h1.2v4.3c0 1.58.6 2.37 1.8 2.37.6 0 1.08-.22 1.46-.65.37-.43.56-1 .56-1.7v-4.32h1.2v7.5zm15.99-7.5l-2.25 7.5h-1.25l-1.54-5.37a3.5 3.5 0 0 1-.12-.7h-.03c-.01.18-.07.41-.15.69l-1.68 5.38h-1.2l-2.27-7.5h1.26l1.55 5.64c.05.17.08.4.1.68h.06c.02-.22.06-.45.13-.7l1.73-5.62h1.1l1.55 5.66c.05.18.09.4.11.67h.06c.01-.19.05-.41.13-.67l1.52-5.66h1.19zm2-1.9a.76.76 0 0 1-.77-.78.75.75 0 0 1 .78-.78.78.78 0 0 1 .78.78c0 .22-.07.4-.23.55a.77.77 0 0 1-.56.23zm.59 9.4h-1.2v-7.5h1.2v7.5zm3.63 0h-1.2V127h1.2v11.1zm3.63 0h-1.2V127h1.2v11.1zm7.75 0h-1.2V127h1.2v11.1zm5.56.18c-1.1 0-2-.35-2.65-1.05a3.9 3.9 0 0 1-1-2.79c0-1.26.35-2.24 1.04-2.95a3.71 3.71 0 0 1 2.79-1.06c1.12 0 1.99.34 2.62 1.03.62.69.94 1.64.94 2.86 0 1.2-.34 2.16-1.02 2.88a3.55 3.55 0 0 1-2.72 1.08zm.09-6.84c-.77 0-1.38.26-1.83.79a3.23 3.23 0 0 0-.67 2.17c0 .89.22 1.59.68 2.1.45.51 1.06.77 1.82.77a2.2 2.2 0 0 0 1.8-.76c.4-.5.62-1.21.62-2.14 0-.94-.21-1.66-.63-2.17a2.19 2.19 0 0 0-1.79-.76zm5.11 6.4v-1.3c.66.49 1.38.73 2.16.73 1.06 0 1.59-.35 1.59-1.06 0-.2-.05-.37-.14-.5a1.35 1.35 0 0 0-.37-.38c-.15-.1-.33-.2-.54-.28l-.67-.27a8.63 8.63 0 0 1-.87-.4 2.64 2.64 0 0 1-.63-.45c-.17-.17-.3-.37-.38-.58a2.03 2.03 0 0 1-.13-.75c0-.36.08-.67.24-.94.16-.27.37-.5.64-.68a3 3 0 0 1 .92-.41 4.3 4.3 0 0 1 2.8.2l.01 1.21a3.4 3.4 0 0 0-2.51-.46c-.18.05-.34.12-.47.21a1 1 0 0 0-.3.33.88.88 0 0 0-.1.43c0 .2.03.36.1.5.07.13.18.24.32.35.13.1.3.2.5.27.19.09.41.18.66.27.33.13.63.26.9.4.26.13.48.28.67.45.18.17.33.36.43.58.1.22.15.48.15.79 0 .37-.09.69-.25.96-.16.28-.38.5-.66.68a3 3 0 0 1-.94.4c-.36.1-.73.14-1.12.14-.77 0-1.44-.15-2-.45zm12.85-3.19h-5.3c.02.84.25 1.48.68 1.94.43.45 1.02.68 1.77.68.84 0 1.62-.28 2.33-.84v1.13c-.66.48-1.53.72-2.62.72-1.06 0-1.89-.34-2.5-1.02-.6-.68-.9-1.64-.9-2.88a4.1 4.1 0 0 1 1-2.85 3.18 3.18 0 0 1 2.46-1.1c.98 0 1.74.32 2.27.95.54.63.8 1.52.8 2.64v.63zm-1.23-1.01c0-.7-.17-1.24-.5-1.62a1.7 1.7 0 0 0-1.38-.58c-.56 0-1.04.2-1.44.6-.4.41-.64.94-.73 1.6h4.05zM66.7 159.1h-1.2v-1.17h-.03c-.52.9-1.29 1.35-2.3 1.35-.75 0-1.34-.2-1.76-.6-.42-.39-.63-.91-.63-1.57 0-1.4.82-2.22 2.47-2.44l2.25-.32c0-1.27-.51-1.91-1.54-1.91-.9 0-1.72.3-2.45.92v-1.23c.74-.47 1.59-.7 2.55-.7 1.76 0 2.64.93 2.64 2.8v4.87zm-1.2-3.79l-1.8.25c-.56.08-.98.21-1.27.41-.28.2-.42.55-.42 1.05 0 .37.13.67.39.9.26.23.6.35 1.04.35.6 0 1.09-.21 1.48-.63.39-.42.58-.94.58-1.58v-.75zm9.7 3.8h-1.21v-4.28c0-1.6-.58-2.4-1.74-2.4-.6 0-1.1.23-1.5.69-.39.45-.58 1.02-.58 1.7v4.28h-1.2v-7.5h1.2v1.25h.03a2.7 2.7 0 0 1 2.46-1.42c.82 0 1.44.26 1.88.8.43.52.65 1.29.65 2.29v4.58zm8.22-7.5l-3.45 8.7c-.61 1.55-1.48 2.32-2.59 2.32-.31 0-.57-.03-.78-.1v-1.07c.26.09.5.13.7.13.61 0 1.07-.36 1.37-1.08l.6-1.42-2.93-7.49h1.33l2.03 5.78.16.57h.04c.02-.12.07-.3.15-.56l2.13-5.79h1.24zm5.07 7.07v-1.45c.17.15.37.28.6.4a4.84 4.84 0 0 0 1.5.48c.26.04.5.06.72.06.76 0 1.32-.14 1.7-.42.37-.28.56-.68.56-1.21 0-.28-.07-.53-.19-.74a2.1 2.1 0 0 0-.52-.57 5.12 5.12 0 0 0-.78-.5l-.97-.5-1.02-.57c-.32-.19-.6-.4-.83-.63a2.41 2.41 0 0 1-.75-1.8c0-.48.1-.9.31-1.25s.49-.64.83-.87c.34-.23.73-.4 1.17-.52.43-.1.88-.17 1.33-.17 1.04 0 1.8.13 2.27.38v1.38a4.1 4.1 0 0 0-2.4-.64c-.26 0-.53.03-.8.08-.27.06-.5.15-.71.28-.21.12-.39.29-.52.49s-.2.44-.2.73c0 .27.06.5.16.7.1.2.24.37.44.53.2.16.43.32.71.47l.97.5c.38.18.74.38 1.07.58.34.2.63.44.89.68.25.25.45.53.6.83.15.3.23.65.23 1.04 0 .52-.1.96-.3 1.32-.21.36-.48.65-.83.87-.34.23-.74.39-1.19.49a6.52 6.52 0 0 1-3.5-.2c-.23-.07-.41-.16-.55-.25zm13.92-7.08l-3.44 8.7c-.62 1.56-1.48 2.33-2.6 2.33-.31 0-.57-.03-.78-.1v-1.07c.26.09.5.13.7.13.61 0 1.07-.36 1.37-1.08l.6-1.42-2.93-7.49h1.34l2.02 5.78.16.57h.04l.15-.56 2.13-5.79h1.24zm7.52 7.5h-1.2v-4.27c0-1.6-.58-2.4-1.74-2.4-.6 0-1.1.23-1.5.69-.39.45-.58 1.02-.58 1.7v4.28h-1.2v-7.5h1.2v1.25h.02a2.7 2.7 0 0 1 2.47-1.42c.82 0 1.44.26 1.88.8.43.52.65 1.29.65 2.29v4.58zm7.37-.34a3.9 3.9 0 0 1-2.05.52 3.4 3.4 0 0 1-2.58-1.04c-.66-.7-.99-1.6-.99-2.71 0-1.24.35-2.23 1.06-2.98a3.72 3.72 0 0 1 2.84-1.12c.66 0 1.24.12 1.74.36v1.23a3.05 3.05 0 0 0-1.79-.58c-.76 0-1.4.27-1.88.82-.5.55-.74 1.27-.74 2.17 0 .88.23 1.57.7 2.08.45.5 1.07.76 1.85.76.65 0 1.27-.22 1.84-.65v1.14zm12.33.34h-1.2v-1.27h-.03a2.77 2.77 0 0 1-2.58 1.45 2.8 2.8 0 0 1-2.26-1 4.13 4.13 0 0 1-.84-2.75c0-1.24.31-2.23.94-2.98a3.1 3.1 0 0 1 2.5-1.12c1.02 0 1.77.4 2.24 1.21h.03V148h1.2v11.1zm-1.2-3.39v-1.1c0-.6-.2-1.12-.6-1.54-.4-.42-.9-.63-1.52-.63-.74 0-1.31.27-1.73.8a3.53 3.53 0 0 0-.63 2.23c0 .86.2 1.55.6 2.05.4.5.95.75 1.62.75.67 0 1.22-.24 1.63-.73.42-.48.63-1.09.63-1.83zm9 3.4h-1.2v-1.18h-.03c-.52.9-1.29 1.35-2.3 1.35-.75 0-1.34-.2-1.76-.6-.42-.39-.63-.91-.63-1.57 0-1.4.82-2.22 2.47-2.44l2.25-.32c0-1.27-.51-1.91-1.54-1.91-.9 0-1.72.3-2.45.92v-1.23c.74-.47 1.59-.7 2.55-.7 1.76 0 2.64.93 2.64 2.8v4.87zm-1.2-3.8l-1.8.25c-.57.08-.98.21-1.27.41-.28.2-.42.55-.42 1.05 0 .37.13.67.39.9.26.23.6.35 1.04.35.6 0 1.09-.21 1.48-.63.39-.42.58-.94.58-1.58v-.75zm6.94 3.72c-.28.16-.65.23-1.12.23-1.31 0-1.97-.73-1.97-2.2v-4.43h-1.29v-1.03h1.3v-1.83l1.2-.39v2.22h1.88v1.03h-1.89v4.22c0 .5.09.87.26 1.08.17.22.45.32.85.32.3 0 .56-.08.78-.25v1.03zm6.98.07h-1.2v-1.17h-.03c-.53.9-1.3 1.35-2.31 1.35-.75 0-1.33-.2-1.76-.6-.42-.39-.63-.91-.63-1.57 0-1.4.83-2.22 2.48-2.44l2.25-.32c0-1.27-.52-1.91-1.55-1.91-.9 0-1.72.3-2.45.92v-1.23c.74-.47 1.6-.7 2.55-.7 1.77 0 2.65.93 2.65 2.8v4.87zm-1.2-3.79l-1.81.25c-.56.08-.98.21-1.26.41-.29.2-.43.55-.43 1.05 0 .37.13.67.4.9.25.23.6.35 1.04.35.6 0 1.09-.21 1.47-.63.4-.42.59-.94.59-1.58v-.75zm11.05 3.72c-.29.16-.66.23-1.12.23-1.32 0-1.97-.73-1.97-2.2v-4.43h-1.3v-1.03h1.3v-1.83l1.2-.39v2.22H160v1.03h-1.9v4.22c0 .5.1.87.26 1.08.18.22.46.32.85.32.3 0 .57-.08.79-.25v1.03zm7.83.07h-1.2v-4.32c0-1.56-.58-2.34-1.75-2.34a1.9 1.9 0 0 0-1.48.68c-.4.45-.6 1.03-.6 1.74v4.24h-1.2V148h1.2v4.85h.03a2.73 2.73 0 0 1 2.46-1.42c1.7 0 2.54 1.02 2.54 3.05v4.62zm7.63 0h-1.2v-1.17h-.03c-.52.9-1.3 1.35-2.3 1.35-.76 0-1.34-.2-1.76-.6-.42-.39-.64-.91-.64-1.57 0-1.4.83-2.22 2.48-2.44l2.25-.32c0-1.27-.52-1.91-1.55-1.91-.9 0-1.72.3-2.44.92v-1.23c.73-.47 1.58-.7 2.55-.7 1.76 0 2.64.93 2.64 2.8v4.87zm-1.2-3.79l-1.81.25c-.56.08-.98.21-1.26.41-.28.2-.43.55-.43 1.05 0 .37.14.67.4.9.26.23.6.35 1.04.35.6 0 1.09-.21 1.48-.63.38-.42.58-.94.58-1.58v-.75zm6.94 3.72c-.28.16-.66.23-1.12.23-1.31 0-1.97-.73-1.97-2.2v-4.43h-1.29v-1.03h1.3v-1.83l1.2-.39v2.22h1.88v1.03h-1.89v4.22c0 .5.09.87.26 1.08.17.22.45.32.85.32.3 0 .56-.08.78-.25v1.03zm6.33-9.33a.76.76 0 0 1-.78-.78c0-.22.08-.4.23-.56a.75.75 0 0 1 .55-.22.78.78 0 0 1 .8.78c0 .22-.09.4-.24.55a.77.77 0 0 1-.56.23zm.59 9.4h-1.2v-7.5h1.2v7.5zm1.97-.27v-1.29c.66.49 1.38.73 2.16.73 1.06 0 1.59-.35 1.59-1.06 0-.2-.05-.37-.14-.5a1.35 1.35 0 0 0-.37-.38c-.15-.1-.33-.2-.54-.28l-.67-.27a8.63 8.63 0 0 1-.87-.4 2.64 2.64 0 0 1-.63-.45c-.17-.17-.3-.37-.38-.58a2.03 2.03 0 0 1-.13-.75c0-.36.08-.67.24-.94.16-.27.38-.5.64-.68a3 3 0 0 1 .92-.41 4.3 4.3 0 0 1 2.8.2l.01 1.21a3.4 3.4 0 0 0-2.51-.46c-.18.05-.34.12-.47.21a1 1 0 0 0-.3.33.88.88 0 0 0-.1.43c0 .2.03.36.1.5.08.13.18.24.32.35.13.1.3.2.5.27.19.09.41.18.66.27.33.13.63.26.9.4.26.13.48.28.67.45.18.17.33.36.43.58.1.22.15.48.15.79 0 .37-.09.69-.25.96-.16.28-.38.5-.65.68a3 3 0 0 1-.95.4c-.36.1-.73.14-1.12.14-.77 0-1.44-.15-2-.45zm17.16.27h-1.2v-4.27c0-1.6-.59-2.4-1.75-2.4-.6 0-1.1.23-1.49.69-.4.45-.59 1.02-.59 1.7v4.28h-1.2v-7.5h1.2v1.25h.03a2.7 2.7 0 0 1 2.46-1.42c.82 0 1.45.26 1.88.8.44.52.66 1.29.66 2.29v4.58zm5.4.18c-1.11 0-2-.35-2.66-1.05a3.9 3.9 0 0 1-1-2.79c0-1.26.35-2.24 1.04-2.95a3.71 3.71 0 0 1 2.79-1.06c1.12 0 2 .34 2.62 1.03.63.69.94 1.64.94 2.86 0 1.2-.34 2.16-1.01 2.88a3.55 3.55 0 0 1-2.73 1.08zm.08-6.84c-.77 0-1.38.26-1.83.79a3.23 3.23 0 0 0-.67 2.17c0 .89.22 1.59.68 2.1.45.51 1.06.77 1.82.77a2.2 2.2 0 0 0 1.8-.76c.41-.5.62-1.21.62-2.14 0-.94-.21-1.66-.63-2.17a2.19 2.19 0 0 0-1.79-.76zm9.05 6.59c-.29.16-.66.23-1.12.23-1.32 0-1.97-.73-1.97-2.2v-4.43h-1.3v-1.03h1.3v-1.83l1.2-.39v2.22h1.89v1.03h-1.9v4.22c0 .5.1.87.26 1.08.18.22.46.32.85.32.3 0 .57-.08.79-.25v1.03zm8.85.25c-1.11 0-2-.35-2.66-1.05a3.9 3.9 0 0 1-1-2.79c0-1.26.35-2.24 1.04-2.95a3.71 3.71 0 0 1 2.8-1.06c1.1 0 1.98.34 2.6 1.03.64.69.95 1.64.95 2.86 0 1.2-.34 2.16-1.01 2.88a3.55 3.55 0 0 1-2.72 1.08zm.08-6.84c-.77 0-1.38.26-1.83.79a3.23 3.23 0 0 0-.67 2.17c0 .89.23 1.59.68 2.1.45.51 1.06.77 1.82.77a2.2 2.2 0 0 0 1.8-.76c.41-.5.62-1.21.62-2.14 0-.94-.2-1.66-.63-2.17a2.19 2.19 0 0 0-1.79-.76zm11.8 6.66h-1.2v-4.27c0-1.6-.59-2.4-1.75-2.4-.6 0-1.1.23-1.49.69-.4.45-.59 1.02-.59 1.7v4.28h-1.2v-7.5h1.2v1.25h.03a2.7 2.7 0 0 1 2.46-1.42c.82 0 1.45.26 1.88.8.44.52.66 1.29.66 2.29v4.58zm9.5.18c-1.1 0-2-.35-2.65-1.05a3.9 3.9 0 0 1-1-2.79c0-1.26.35-2.24 1.04-2.95a3.71 3.71 0 0 1 2.79-1.06c1.12 0 1.99.34 2.62 1.03.62.69.94 1.64.94 2.86 0 1.2-.34 2.16-1.02 2.88a3.55 3.55 0 0 1-2.72 1.08zm.09-6.84c-.77 0-1.38.26-1.83.79a3.23 3.23 0 0 0-.68 2.17c0 .89.23 1.59.69 2.1.45.51 1.06.77 1.82.77a2.2 2.2 0 0 0 1.8-.76c.4-.5.62-1.21.62-2.14 0-.94-.21-1.66-.63-2.17a2.19 2.19 0 0 0-1.79-.76zm11.8 6.66h-1.2v-4.27c0-1.6-.59-2.4-1.75-2.4-.6 0-1.1.23-1.5.69-.39.45-.58 1.02-.58 1.7v4.28h-1.2v-7.5h1.2v1.25h.03a2.7 2.7 0 0 1 2.46-1.42c.82 0 1.45.26 1.88.8.43.52.65 1.29.65 2.29v4.58zm8.28-3.45h-5.3c.03.84.25 1.48.68 1.94.43.45 1.02.68 1.77.68.85 0 1.62-.28 2.33-.84v1.13c-.66.48-1.53.72-2.61.72-1.06 0-1.9-.34-2.5-1.02-.6-.68-.9-1.64-.9-2.88a4.1 4.1 0 0 1 .98-2.85 3.18 3.18 0 0 1 2.47-1.1c.98 0 1.74.32 2.28.95.53.63.8 1.52.8 2.64v.63zm-1.23-1.01c0-.7-.17-1.24-.5-1.62a1.7 1.7 0 0 0-1.37-.58c-.57 0-1.05.2-1.45.6-.4.41-.64.94-.73 1.6h4.05zm10.3 4.64c-1.12 0-2-.35-2.66-1.05a3.9 3.9 0 0 1-1-2.79c0-1.26.35-2.24 1.04-2.95a3.71 3.71 0 0 1 2.79-1.06c1.12 0 1.99.34 2.62 1.03.62.69.94 1.64.94 2.86 0 1.2-.34 2.16-1.02 2.88a3.55 3.55 0 0 1-2.72 1.08zm.08-6.84c-.77 0-1.38.26-1.83.79a3.23 3.23 0 0 0-.67 2.17c0 .89.22 1.59.68 2.1.45.51 1.06.77 1.82.77a2.2 2.2 0 0 0 1.8-.76c.4-.5.62-1.21.62-2.14 0-.94-.21-1.66-.63-2.17a2.19 2.19 0 0 0-1.79-.76zm9-3.39a1.6 1.6 0 0 0-.8-.2c-.84 0-1.26.54-1.26 1.6v1.15h1.76v1.03h-1.76v6.47h-1.19v-6.47h-1.28v-1.03h1.28v-1.21c0-.79.23-1.41.68-1.87a2.3 2.3 0 0 1 1.7-.68c.37 0 .66.04.87.13v1.08zm11.07 2.55l-3.45 8.7c-.62 1.56-1.48 2.33-2.6 2.33-.3 0-.57-.03-.78-.1v-1.07c.26.09.5.13.71.13.6 0 1.06-.36 1.37-1.08l.6-1.42-2.93-7.49h1.33l2.03 5.78.15.57h.05l.14-.56 2.13-5.79h1.25zm4.35 7.68c-1.1 0-2-.35-2.66-1.05a3.9 3.9 0 0 1-.99-2.79c0-1.26.35-2.24 1.04-2.95a3.71 3.71 0 0 1 2.79-1.06c1.11 0 1.99.34 2.61 1.03.63.69.95 1.64.95 2.86 0 1.2-.34 2.16-1.02 2.88a3.55 3.55 0 0 1-2.72 1.08zm.09-6.84c-.77 0-1.38.26-1.83.79a3.23 3.23 0 0 0-.68 2.17c0 .89.23 1.59.68 2.1.46.51 1.07.77 1.83.77a2.2 2.2 0 0 0 1.79-.76c.42-.5.62-1.21.62-2.14 0-.94-.2-1.66-.62-2.17a2.19 2.19 0 0 0-1.8-.76zm11.63 6.66h-1.2v-1.18h-.03c-.5.9-1.27 1.36-2.32 1.36-1.78 0-2.68-1.07-2.68-3.2v-4.48h1.2v4.3c0 1.58.6 2.37 1.81 2.37.59 0 1.07-.22 1.45-.65.38-.43.57-1 .57-1.7v-4.32h1.2v7.5zm6.33-6.28a1.47 1.47 0 0 0-.9-.24c-.52 0-.95.24-1.29.72a3.35 3.35 0 0 0-.52 1.98v3.82h-1.2v-7.5h1.2v1.55h.03c.17-.53.44-.94.79-1.24.35-.3.74-.44 1.18-.44.3 0 .55.04.71.1v1.25zM97.21 180.1h-1.2v-1.27h-.03a2.77 2.77 0 0 1-2.58 1.45 2.8 2.8 0 0 1-2.26-1 4.13 4.13 0 0 1-.84-2.75c0-1.24.3-2.23.93-2.98a3.1 3.1 0 0 1 2.5-1.12c1.03 0 1.78.4 2.25 1.21h.03V169h1.2v11.1zm-1.2-3.39v-1.1c0-.6-.2-1.12-.6-1.54-.4-.42-.9-.63-1.52-.63-.74 0-1.31.27-1.73.8a3.53 3.53 0 0 0-.63 2.23c0 .86.2 1.55.6 2.05.4.5.95.75 1.62.75.67 0 1.22-.24 1.63-.73.42-.48.63-1.09.63-1.83zm9.66-.06h-5.3c.02.84.25 1.48.68 1.94.43.45 1.02.68 1.77.68.85 0 1.62-.28 2.33-.84v1.13c-.66.48-1.53.72-2.61.72-1.06 0-1.9-.34-2.5-1.02-.6-.68-.91-1.64-.91-2.88a4.1 4.1 0 0 1 1-2.85 3.18 3.18 0 0 1 2.46-1.1c.98 0 1.74.32 2.27.95.54.63.81 1.52.81 2.64v.63zm-1.23-1.01c0-.7-.17-1.24-.5-1.62a1.7 1.7 0 0 0-1.38-.58c-.56 0-1.04.2-1.44.6-.4.41-.64.94-.73 1.6h4.05zm8.94-3.04l-2.99 7.5h-1.17l-2.85-7.5h1.32l1.9 5.45c.15.4.24.75.27 1.05h.03c.05-.38.13-.72.23-1.02l2-5.48h1.26zm1.9-1.9a.76.76 0 0 1-.77-.78c0-.22.08-.4.23-.56a.75.75 0 0 1 .55-.22.78.78 0 0 1 .79.78c0 .22-.08.4-.23.55a.77.77 0 0 1-.56.23zm.6 9.4h-1.2v-7.5h1.2v7.5zm7.54-.34a3.9 3.9 0 0 1-2.05.52 3.4 3.4 0 0 1-2.6-1.04c-.65-.7-.98-1.6-.98-2.71 0-1.24.36-2.23 1.06-2.98a3.72 3.72 0 0 1 2.84-1.12c.66 0 1.24.12 1.74.36v1.23a3.05 3.05 0 0 0-1.79-.58c-.76 0-1.4.27-1.88.82-.5.55-.74 1.27-.74 2.17 0 .88.23 1.57.7 2.08.46.5 1.07.76 1.85.76.66 0 1.27-.22 1.85-.65v1.14zm7.84-3.1h-5.3c.03.83.25 1.47.68 1.93.43.45 1.02.68 1.77.68.85 0 1.62-.28 2.33-.84v1.13c-.66.48-1.53.72-2.61.72-1.06 0-1.9-.34-2.5-1.02-.6-.68-.9-1.64-.9-2.88a4.1 4.1 0 0 1 .98-2.85 3.18 3.18 0 0 1 2.47-1.1c.98 0 1.74.32 2.28.95.53.63.8 1.52.8 2.64v.63zm-1.23-1.02c0-.7-.17-1.24-.5-1.62a1.7 1.7 0 0 0-1.37-.58c-.57 0-1.05.2-1.45.6-.4.41-.64.94-.73 1.6h4.05zm2.6 4.2v-1.3c.65.49 1.37.73 2.15.73 1.06 0 1.59-.35 1.59-1.06 0-.2-.05-.37-.14-.5a1.35 1.35 0 0 0-.37-.38c-.15-.1-.33-.2-.54-.28l-.67-.27a8.63 8.63 0 0 1-.87-.4 2.64 2.64 0 0 1-.63-.45c-.17-.17-.3-.37-.38-.58a2.03 2.03 0 0 1-.13-.75c0-.36.08-.67.24-.94.16-.27.38-.5.64-.68a3 3 0 0 1 .92-.41 4.3 4.3 0 0 1 2.8.2l.01 1.21a3.4 3.4 0 0 0-2.51-.46c-.18.05-.34.12-.46.21a1 1 0 0 0-.3.33.88.88 0 0 0-.11.43c0 .2.03.36.1.5.08.13.18.24.32.35.13.1.3.2.5.27.19.09.41.18.66.27.33.13.63.26.9.4.26.13.48.28.67.45.18.17.33.36.43.58.1.22.15.48.15.79 0 .37-.09.69-.25.96-.16.28-.38.5-.65.68a3 3 0 0 1-.95.4c-.36.1-.73.14-1.12.14-.77 0-1.44-.15-2-.45zm7.23.42a.78.78 0 0 1-.58-.24.8.8 0 0 1-.23-.58.8.8 0 0 1 .23-.58.77.77 0 0 1 .58-.24.8.8 0 0 1 .59.24.8.8 0 0 1 .24.58c0 .23-.08.42-.24.58a.8.8 0 0 1-.59.24zm12.55-.16h-5.45v-10.5h1.23V179h4.22v1.11zm7.48-3.45h-5.3c.03.84.25 1.48.68 1.94.43.45 1.02.68 1.77.68.85 0 1.62-.28 2.33-.84v1.13c-.66.48-1.53.72-2.61.72-1.06 0-1.9-.34-2.5-1.02-.6-.68-.9-1.64-.9-2.88a4.1 4.1 0 0 1 .98-2.85 3.18 3.18 0 0 1 2.47-1.1c.98 0 1.74.32 2.28.95.53.63.8 1.52.8 2.64v.63zm-1.23-1.01c0-.7-.17-1.24-.5-1.62a1.7 1.7 0 0 0-1.37-.58c-.57 0-1.05.2-1.45.6-.4.41-.64.94-.73 1.6h4.05zm8.42 4.46h-1.2v-1.17h-.03c-.53.9-1.3 1.35-2.31 1.35-.75 0-1.33-.2-1.76-.6-.42-.39-.63-.91-.63-1.57 0-1.4.83-2.22 2.48-2.44l2.25-.32c0-1.27-.52-1.91-1.55-1.91-.9 0-1.72.3-2.45.92v-1.23c.74-.47 1.6-.7 2.55-.7 1.77 0 2.65.93 2.65 2.8v4.87zm-1.2-3.79l-1.81.25c-.56.08-.98.21-1.26.41-.29.2-.43.55-.43 1.05 0 .37.13.67.4.9.25.23.6.35 1.04.35.6 0 1.09-.21 1.47-.63.4-.42.59-.94.59-1.58v-.75zm7.37-2.5a1.47 1.47 0 0 0-.9-.23c-.52 0-.95.24-1.3.72a3.35 3.35 0 0 0-.5 1.98v3.82h-1.21v-7.5h1.2v1.55h.03c.17-.53.43-.94.78-1.24.36-.3.75-.44 1.18-.44.32 0 .55.04.72.1v1.25zm7.5 6.3h-1.2v-4.28c0-1.6-.58-2.4-1.74-2.4-.6 0-1.1.23-1.5.69-.39.45-.58 1.02-.58 1.7v4.28h-1.2v-7.5h1.2v1.25h.03a2.7 2.7 0 0 1 2.46-1.42c.82 0 1.44.26 1.88.8.43.52.65 1.29.65 2.29v4.58zm12.6 0h-1.2v-4.33c0-1.56-.58-2.34-1.75-2.34a1.9 1.9 0 0 0-1.48.68c-.4.45-.6 1.03-.6 1.74v4.24h-1.2V169h1.2v4.85h.03a2.73 2.73 0 0 1 2.46-1.42c1.7 0 2.54 1.02 2.54 3.05v4.62zm5.4.17c-1.11 0-2-.35-2.66-1.05a3.9 3.9 0 0 1-1-2.79c0-1.26.35-2.24 1.04-2.95a3.71 3.71 0 0 1 2.8-1.06c1.11 0 1.98.34 2.61 1.03.63.69.94 1.64.94 2.86 0 1.2-.34 2.16-1.01 2.88a3.55 3.55 0 0 1-2.72 1.08zm.08-6.84c-.77 0-1.38.26-1.83.79a3.23 3.23 0 0 0-.67 2.17c0 .89.23 1.59.68 2.1.45.51 1.06.77 1.82.77a2.2 2.2 0 0 0 1.8-.76c.41-.5.62-1.21.62-2.14 0-.94-.2-1.66-.62-2.17a2.19 2.19 0 0 0-1.8-.76zm15.02-.84l-2.25 7.5h-1.24l-1.55-5.37a3.5 3.5 0 0 1-.12-.7h-.03c-.01.18-.06.41-.15.69l-1.68 5.38h-1.2l-2.27-7.5h1.26l1.55 5.64c.05.17.09.4.1.68h.06c.02-.22.06-.45.14-.7l1.72-5.62h1.1l1.56 5.66c.05.18.08.4.1.67h.06c.01-.19.06-.41.13-.67l1.52-5.66h1.19zm5.17 7.08v-1.45c.17.15.37.28.6.4a4.84 4.84 0 0 0 1.5.48c.26.04.5.06.72.06.76 0 1.32-.14 1.7-.42.37-.28.56-.68.56-1.21 0-.28-.07-.53-.2-.74a2.1 2.1 0 0 0-.5-.57 5.12 5.12 0 0 0-.79-.5l-.97-.5-1.02-.57c-.32-.19-.6-.4-.83-.63a2.41 2.41 0 0 1-.75-1.8c0-.48.1-.9.31-1.25s.49-.64.83-.87c.34-.23.73-.4 1.17-.52.43-.1.88-.17 1.33-.17 1.04 0 1.8.13 2.27.38v1.38a4.1 4.1 0 0 0-2.4-.64c-.26 0-.53.03-.8.08-.27.06-.5.15-.72.28-.2.12-.38.29-.5.49-.14.2-.2.44-.2.73 0 .27.04.5.14.7.1.2.25.37.45.53.2.16.43.32.71.47l.97.5c.38.18.73.38 1.07.58.34.2.63.44.89.68.25.25.45.53.6.83.15.3.22.65.22 1.04 0 .52-.1.96-.3 1.32-.2.36-.48.65-.82.87-.34.23-.74.39-1.19.49a6.52 6.52 0 0 1-3.5-.2c-.23-.07-.41-.16-.55-.25zm13.92-7.08l-3.45 8.7c-.61 1.56-1.48 2.33-2.59 2.33-.31 0-.57-.03-.78-.1v-1.07c.26.09.5.13.7.13.61 0 1.07-.36 1.37-1.08l.6-1.42-2.93-7.49h1.33l2.03 5.78.16.57h.04c.02-.12.07-.3.15-.56l2.13-5.79h1.24zm7.52 7.5h-1.2v-4.27c0-1.6-.58-2.4-1.75-2.4-.6 0-1.1.23-1.49.69-.39.45-.59 1.02-.59 1.7v4.28h-1.2v-7.5h1.2v1.25h.03a2.7 2.7 0 0 1 2.46-1.42c.82 0 1.45.26 1.89.8.43.52.65 1.29.65 2.29v4.58zm7.37-.34a3.9 3.9 0 0 1-2.05.52 3.4 3.4 0 0 1-2.59-1.04c-.65-.7-.98-1.6-.98-2.71 0-1.24.35-2.23 1.06-2.98a3.72 3.72 0 0 1 2.83-1.12c.66 0 1.25.12 1.75.36v1.23a3.05 3.05 0 0 0-1.79-.58c-.77 0-1.4.27-1.88.82-.5.55-.74 1.27-.74 2.17 0 .88.23 1.57.7 2.08.45.5 1.07.76 1.85.76.65 0 1.27-.22 1.84-.65v1.14zm15.38-7.16l-2.25 7.5h-1.25l-1.54-5.37a3.5 3.5 0 0 1-.12-.7h-.03c-.01.18-.06.41-.15.69l-1.68 5.38h-1.2l-2.27-7.5h1.26l1.55 5.64c.05.17.08.4.1.68h.06c.02-.22.06-.45.13-.7l1.73-5.62h1.1l1.55 5.66c.05.18.09.4.11.67h.06c.01-.19.05-.41.13-.67l1.52-5.66h1.19zm4.48 7.68c-1.1 0-2-.35-2.66-1.05a3.9 3.9 0 0 1-.99-2.79c0-1.26.35-2.24 1.03-2.95a3.71 3.71 0 0 1 2.8-1.06c1.11 0 1.99.34 2.61 1.03.63.69.94 1.64.94 2.86 0 1.2-.33 2.16-1.01 2.88a3.55 3.55 0 0 1-2.72 1.08zm.09-6.84c-.77 0-1.38.26-1.83.79a3.23 3.23 0 0 0-.68 2.17c0 .89.23 1.59.68 2.1.46.51 1.07.77 1.83.77a2.2 2.2 0 0 0 1.79-.76c.42-.5.62-1.21.62-2.14 0-.94-.2-1.66-.62-2.17a2.19 2.19 0 0 0-1.8-.76zm9.47.38a1.47 1.47 0 0 0-.9-.24c-.52 0-.94.24-1.29.72a3.35 3.35 0 0 0-.52 1.98v3.82h-1.2v-7.5h1.2v1.55h.03c.18-.53.44-.94.79-1.24.35-.3.74-.44 1.18-.44.31 0 .55.04.71.1v1.25zm7.53 6.28h-1.68l-3.31-3.6h-.03v3.6h-1.2V169h1.2v7.04h.03l3.15-3.44h1.57l-3.48 3.62 3.75 3.88zm.78-.27v-1.29c.65.49 1.38.73 2.16.73 1.06 0 1.58-.35 1.58-1.06 0-.2-.04-.37-.13-.5a1.35 1.35 0 0 0-.37-.38c-.15-.1-.33-.2-.54-.28l-.67-.27a8.63 8.63 0 0 1-.88-.4 2.64 2.64 0 0 1-.63-.45c-.16-.17-.3-.37-.38-.58a2.03 2.03 0 0 1-.12-.75c0-.36.08-.67.24-.94.16-.27.37-.5.64-.68a3 3 0 0 1 .92-.41 4.3 4.3 0 0 1 2.8.2v1.21a3.4 3.4 0 0 0-2.5-.46c-.18.05-.34.12-.47.21a1 1 0 0 0-.3.33.88.88 0 0 0-.1.43c0 .2.03.36.1.5.07.13.18.24.31.35.14.1.3.2.5.27l.67.27c.33.13.63.26.9.4.25.13.48.28.67.45.18.17.32.36.42.58.1.22.15.48.15.79 0 .37-.08.69-.24.96-.17.28-.38.5-.66.68a3 3 0 0 1-.94.4c-.36.1-.73.14-1.12.14-.77 0-1.44-.15-2-.45zm7.24.43a.78.78 0 0 1-.58-.24.8.8 0 0 1-.24-.58.8.8 0 0 1 .24-.58.77.77 0 0 1 .58-.24.8.8 0 0 1 .58.24.8.8 0 0 1 .24.58c0 .23-.08.42-.24.58a.8.8 0 0 1-.58.24z"/><g transform="translate(44 314)"><use fill="#FFFFFF" xlink:href="#a"/><rect width="295" height="47" x=".5" y=".5" stroke="#0C0C0D" stroke-opacity=".3" rx="2"/></g><path fill="#0A84FF" d="M86.2 463.58h-2.31l-1.9-3.18c-.17-.3-.34-.55-.5-.75-.17-.21-.33-.38-.5-.52a1.68 1.68 0 0 0-.55-.29 2.3 2.3 0 0 0-.68-.09h-.8v4.83H77v-11.9h3.92c.56 0 1.07.07 1.54.2s.88.33 1.23.6c.35.27.62.6.82 1 .2.4.3.88.3 1.41 0 .42-.07.81-.2 1.16a3.01 3.01 0 0 1-1.36 1.64c-.32.2-.68.34-1.09.45v.03c.22.12.4.26.57.4a7.84 7.84 0 0 1 .88.98l.47.69 2.12 3.34zm-7.23-10.3v3.87h1.64c.3 0 .59-.05.84-.14.26-.1.48-.23.67-.4.19-.18.34-.4.44-.65.1-.26.16-.54.16-.86a1.7 1.7 0 0 0-.54-1.34c-.36-.32-.88-.48-1.55-.48h-1.66zm15.15 6.58h-5.8c.02.78.27 1.39.73 1.81.46.43 1.1.64 1.9.64.91 0 1.74-.27 2.5-.81v1.55a5.7 5.7 0 0 1-3.07.73 3.8 3.8 0 0 1-2.94-1.15 4.63 4.63 0 0 1-1.07-3.26c0-1.33.4-2.4 1.18-3.24a3.84 3.84 0 0 1 2.91-1.25c1.17 0 2.07.38 2.7 1.13.64.74.96 1.78.96 3.1v.75zm-1.86-1.36c0-.7-.17-1.23-.5-1.62a1.64 1.64 0 0 0-1.32-.58c-.55 0-1.02.2-1.4.61-.4.4-.63.93-.72 1.59h3.94zm16.4 5.08h-1.93v-4.63c0-.89-.12-1.53-.37-1.93-.26-.4-.68-.6-1.28-.6-.5 0-.93.25-1.28.76-.35.5-.53 1.1-.53 1.8v4.6h-1.93v-4.79c0-1.58-.56-2.37-1.68-2.37-.52 0-.95.24-1.28.71-.34.48-.5 1.1-.5 1.86v4.6h-1.93v-8.5h1.93v1.34h.03a2.94 2.94 0 0 1 2.68-1.55c.59 0 1.1.17 1.54.49.44.32.74.75.9 1.27a3.03 3.03 0 0 1 2.82-1.76c1.87 0 2.8 1.16 2.8 3.47v5.23zm9.55-3.72h-5.8c.02.78.27 1.39.73 1.81.46.43 1.1.64 1.9.64.91 0 1.74-.27 2.5-.81v1.55a5.7 5.7 0 0 1-3.07.73 3.8 3.8 0 0 1-2.94-1.15 4.63 4.63 0 0 1-1.07-3.26c0-1.33.4-2.4 1.18-3.24a3.84 3.84 0 0 1 2.91-1.25c1.16 0 2.06.38 2.7 1.13.64.74.96 1.78.96 3.1v.75zm-1.86-1.36c-.01-.7-.17-1.23-.5-1.62a1.64 1.64 0 0 0-1.32-.58c-.56 0-1.02.2-1.4.61-.4.4-.63.93-.72 1.59h3.94zm16.4 5.08h-1.93v-4.63c0-.89-.12-1.53-.38-1.93-.25-.4-.67-.6-1.27-.6-.5 0-.93.25-1.28.76-.35.5-.53 1.1-.53 1.8v4.6h-1.93v-4.79c0-1.58-.56-2.37-1.68-2.37-.52 0-.95.24-1.28.71-.34.48-.5 1.1-.5 1.86v4.6h-1.93v-8.5h1.93v1.34h.03a2.94 2.94 0 0 1 2.68-1.55c.59 0 1.1.17 1.54.49.44.32.74.75.9 1.27a3.03 3.03 0 0 1 2.82-1.76c1.87 0 2.8 1.16 2.8 3.47v5.23zm4.3-1.22h-.03v1.22h-1.92V451h1.92v5.58h.04a3.16 3.16 0 0 1 2.88-1.7c1.08 0 1.92.39 2.52 1.15.61.76.91 1.78.91 3.05 0 1.43-.34 2.57-1.02 3.42a3.37 3.37 0 0 1-2.79 1.28c-1.1 0-1.94-.47-2.5-1.42zm-.04-3.38v1.05c0 .62.2 1.15.59 1.58.4.43.9.65 1.5.65.72 0 1.28-.28 1.69-.84.4-.55.6-1.33.6-2.33 0-.83-.18-1.49-.56-1.96-.38-.47-.9-.71-1.54-.71-.69 0-1.24.24-1.66.73a2.7 2.7 0 0 0-.62 1.83zm15.53.88h-5.8c.03.78.27 1.39.73 1.81.46.43 1.1.64 1.9.64.91 0 1.74-.27 2.5-.81v1.55a5.7 5.7 0 0 1-3.07.73 3.8 3.8 0 0 1-2.94-1.15 4.63 4.63 0 0 1-1.07-3.26c0-1.33.4-2.4 1.18-3.24a3.84 3.84 0 0 1 2.91-1.25c1.17 0 2.07.38 2.7 1.13.64.74.96 1.78.96 3.1v.75zm-1.86-1.36c0-.7-.17-1.23-.5-1.62a1.64 1.64 0 0 0-1.32-.58c-.55 0-1.02.2-1.4.61-.4.4-.63.93-.72 1.59h3.94zm8.62-1.58a1.6 1.6 0 0 0-1-.28c-.57 0-1.05.26-1.43.78a3.45 3.45 0 0 0-.57 2.1v4.06h-1.93v-8.5h1.93v1.76h.03c.19-.6.48-1.07.87-1.4.39-.34.82-.5 1.3-.5.35 0 .62.05.8.15v1.83zm8 5.41h-.04v5.16h-1.92v-12.4h1.92v1.49h.04a3.16 3.16 0 0 1 2.88-1.7c1.08 0 1.92.38 2.53 1.14.6.76.9 1.78.9 3.06a5.3 5.3 0 0 1-1.02 3.4 3.38 3.38 0 0 1-2.79 1.28 2.79 2.79 0 0 1-2.5-1.43zm-.05-3.35v1.05c0 .62.2 1.15.59 1.58.4.43.9.65 1.5.65.72 0 1.28-.28 1.69-.84.4-.55.6-1.33.6-2.33 0-.83-.18-1.49-.56-1.96-.38-.47-.9-.71-1.54-.71-.69 0-1.24.24-1.66.73a2.7 2.7 0 0 0-.62 1.83zm14.66 4.6h-1.87v-1.32H180a2.81 2.81 0 0 1-2.58 1.52c-.83 0-1.49-.22-1.96-.68a2.38 2.38 0 0 1-.71-1.8c0-1.6.92-2.54 2.77-2.8l2.53-.36c0-1.21-.58-1.82-1.73-1.82a4.1 4.1 0 0 0-2.74 1.05v-1.69c.9-.53 1.93-.8 3.1-.8 2.15 0 3.23 1.06 3.23 3.18v5.52zm-1.86-4.17l-1.79.25c-.55.07-.97.2-1.25.4s-.42.54-.42 1.03c0 .36.13.66.39.89.26.23.6.34 1.03.34.59 0 1.07-.2 1.46-.62.38-.4.58-.93.58-1.55v-.74zm3.67 3.9v-1.78c.72.55 1.52.83 2.39.83 1.16 0 1.74-.35 1.74-1.03 0-.2-.05-.36-.15-.5-.1-.13-.23-.25-.4-.36-.17-.1-.37-.2-.6-.28l-.77-.28a8.13 8.13 0 0 1-.94-.44 2.85 2.85 0 0 1-.7-.53c-.18-.2-.32-.42-.42-.67-.1-.25-.14-.54-.14-.87 0-.41.1-.77.3-1.08.19-.32.45-.58.77-.8.33-.2.7-.37 1.11-.47a5.85 5.85 0 0 1 3.4.2v1.68a3.55 3.55 0 0 0-2.72-.54c-.2.05-.36.12-.5.2-.14.1-.25.2-.32.32a.76.76 0 0 0-.12.42c0 .18.04.33.12.46.07.13.19.24.34.34.15.1.33.18.55.26l.73.26c.37.15.7.3.99.46.29.15.53.33.74.53a2.07 2.07 0 0 1 .64 1.6c0 .43-.1.8-.3 1.12-.2.32-.47.59-.8.8-.33.21-.71.37-1.15.47-.43.1-.89.15-1.37.15-.93 0-1.74-.15-2.42-.46zm7.33 0v-1.78c.72.55 1.52.83 2.39.83 1.16 0 1.74-.35 1.74-1.03 0-.2-.05-.36-.15-.5-.1-.13-.23-.25-.4-.36-.17-.1-.37-.2-.6-.28l-.77-.28a8.13 8.13 0 0 1-.94-.44 2.85 2.85 0 0 1-.7-.53c-.18-.2-.32-.42-.42-.67-.1-.25-.14-.54-.14-.87 0-.41.1-.77.3-1.08.19-.32.45-.58.77-.8.33-.2.7-.37 1.11-.47a5.85 5.85 0 0 1 3.4.2v1.68a3.55 3.55 0 0 0-2.72-.54c-.2.05-.36.12-.5.2-.14.1-.25.2-.33.32a.76.76 0 0 0-.11.42c0 .18.04.33.11.46.08.13.2.24.35.34.15.1.33.18.55.26l.73.26c.37.15.7.3.99.46.29.15.53.33.74.53a2.07 2.07 0 0 1 .64 1.6c0 .43-.1.8-.3 1.12-.2.32-.47.59-.8.8-.33.21-.71.37-1.15.47-.43.1-.89.15-1.37.15-.93 0-1.74-.15-2.42-.46zm19.3-8.23l-2.51 8.5h-2.02l-1.54-5.76c-.06-.22-.1-.47-.12-.74h-.03a3.4 3.4 0 0 1-.15.73l-1.68 5.77h-1.98l-2.5-8.5h2l1.54 6.13c.05.18.09.43.1.73h.06c.02-.23.06-.48.13-.75l1.72-6.1h1.81l1.53 6.14c.05.2.08.44.1.74h.06c.02-.2.06-.45.13-.74l1.5-6.15h1.84zm5.12 8.7c-1.3 0-2.36-.4-3.14-1.19a4.3 4.3 0 0 1-1.17-3.16c0-1.42.4-2.54 1.22-3.34a4.5 4.5 0 0 1 3.3-1.2c1.33 0 2.36.38 3.1 1.17a4.52 4.52 0 0 1 1.12 3.24c0 1.36-.4 2.44-1.2 3.26a4.3 4.3 0 0 1-3.23 1.22zm.1-7.36a2.2 2.2 0 0 0-1.79.79 3.3 3.3 0 0 0-.66 2.17c0 .9.23 1.6.67 2.1.44.52 1.03.78 1.77.78.76 0 1.35-.26 1.75-.76.4-.5.61-1.22.61-2.15 0-.93-.2-1.66-.6-2.17a2.1 2.1 0 0 0-1.76-.76zm11.22.5a1.6 1.6 0 0 0-1-.28c-.58 0-1.05.26-1.43.78a3.45 3.45 0 0 0-.58 2.1v4.06h-1.92v-8.5h1.92v1.76h.04c.18-.6.47-1.07.86-1.4.4-.34.83-.5 1.31-.5.35 0 .61.05.8.15v1.83zm8.94 6.66h-1.93v-1.44h-.03a3.07 3.07 0 0 1-2.87 1.64 3.1 3.1 0 0 1-2.5-1.14 4.74 4.74 0 0 1-.95-3.1c0-1.41.35-2.54 1.04-3.39a3.4 3.4 0 0 1 2.78-1.27c1.15 0 1.98.46 2.5 1.38h.03V451h1.93v12.58zm-1.9-3.88v-1.11c0-.6-.2-1.12-.6-1.54-.39-.42-.89-.63-1.5-.63-.71 0-1.28.27-1.7.8a3.59 3.59 0 0 0-.61 2.24c0 .86.2 1.54.6 2.04.39.5.92.76 1.59.76a2 2 0 0 0 1.6-.73c.41-.48.62-1.1.62-1.83zm5.67.52a3.8 3.8 0 0 1-.2-1.2c.01-.33.08-.64.22-.91.13-.27.3-.53.5-.77s.42-.47.66-.69l.65-.64c.2-.21.38-.44.51-.67.14-.23.2-.49.2-.76 0-.25-.05-.47-.14-.65-.1-.19-.24-.34-.42-.47a1.85 1.85 0 0 0-.6-.28c-.22-.06-.46-.09-.71-.09-.83 0-1.61.37-2.36 1.1v-1.91c.9-.53 1.85-.8 2.82-.8.45 0 .87.06 1.27.18.4.11.75.28 1.05.51a2.43 2.43 0 0 1 .96 2.03c0 .42-.07.8-.21 1.13a5.16 5.16 0 0 1-1.25 1.66c-.25.22-.49.43-.7.65-.23.22-.4.44-.55.67-.15.24-.22.5-.22.77 0 .24.03.46.1.65.05.2.11.36.18.5h-1.76zm.95 3.51c-.31 0-.6-.1-.84-.32a1.01 1.01 0 0 1-.35-.78 1 1 0 0 1 .35-.78c.24-.22.52-.33.84-.33.32 0 .6.1.83.33a1 1 0 0 1 .35.78c0 .3-.12.57-.35.78-.24.22-.52.32-.83.32zm9.68-.62v-2.03c.18.16.4.31.65.45a5.03 5.03 0 0 0 1.65.54c.28.05.54.08.78.08.83 0 1.45-.14 1.85-.42.41-.27.61-.67.61-1.2 0-.28-.06-.53-.2-.74-.13-.2-.32-.4-.57-.56a5.97 5.97 0 0 0-.86-.5l-1.06-.5c-.4-.2-.78-.43-1.12-.65a4.86 4.86 0 0 1-.91-.73 3.07 3.07 0 0 1-.6-.91 2.96 2.96 0 0 1-.23-1.19c0-.56.13-1.04.38-1.45.25-.42.58-.76 1-1.03.4-.26.88-.46 1.4-.6.53-.12 1.06-.19 1.61-.19a6.5 6.5 0 0 1 2.72.42v1.96a4.35 4.35 0 0 0-2.6-.74c-.3 0-.59.03-.88.09-.29.05-.55.14-.78.27-.23.13-.41.3-.56.5-.14.2-.21.43-.21.71 0 .27.05.5.16.7.11.19.27.36.49.52.21.16.47.32.78.47.3.16.66.32 1.06.5.42.21.81.44 1.18.68.37.24.7.5.97.79.28.28.5.6.66.95.17.36.25.76.25 1.2 0 .6-.12 1.12-.37 1.53-.24.42-.57.75-.98 1.01-.41.26-.89.45-1.42.57a8.03 8.03 0 0 1-4.85-.5zm10.56-9.81c-.32 0-.59-.1-.81-.3-.23-.21-.34-.47-.34-.79 0-.31.11-.58.34-.79.22-.2.5-.31.8-.31.33 0 .61.1.84.31.22.21.34.48.34.8 0 .3-.12.55-.34.76-.23.21-.5.32-.83.32zm.95 10.28h-1.92v-8.5h1.92v8.5zm10.25-.68c0 3.12-1.56 4.68-4.7 4.68-1.1 0-2.07-.18-2.9-.55v-1.76c.93.53 1.81.8 2.65.8 2.02 0 3.03-1 3.03-2.98v-.93h-.03a3.12 3.12 0 0 1-2.88 1.62 3.1 3.1 0 0 1-2.5-1.13 4.58 4.58 0 0 1-.95-3.04c0-1.45.34-2.6 1.02-3.45a3.4 3.4 0 0 1 2.8-1.28 2.7 2.7 0 0 1 2.5 1.38h.04v-1.18h1.92v7.82zm-1.9-3.2v-1.11c0-.6-.2-1.11-.6-1.53-.4-.43-.89-.64-1.48-.64-.73 0-1.3.27-1.71.81-.42.54-.62 1.3-.62 2.26 0 .84.2 1.5.6 2 .39.5.91.76 1.56.76.67 0 1.2-.24 1.62-.72.42-.48.62-1.1.62-1.84zm11.98 3.88h-1.92v-4.79c0-1.58-.57-2.38-1.69-2.38-.59 0-1.07.22-1.45.66-.38.44-.58 1-.58 1.67v4.84h-1.93v-8.5h1.93v1.42h.04a3.03 3.03 0 0 1 2.75-1.62c.93 0 1.63.3 2.12.9.49.6.73 1.47.73 2.6v5.2zm8-10.28c-.32 0-.59-.1-.81-.3-.23-.21-.34-.47-.34-.79 0-.31.11-.58.34-.79.22-.2.49-.31.8-.31.33 0 .6.1.83.31.23.21.35.48.35.8 0 .3-.12.55-.35.76-.22.21-.5.32-.83.32zm.95 10.28h-1.93v-8.5h1.93v8.5zm10.08 0h-1.92v-4.79c0-1.58-.56-2.38-1.69-2.38-.58 0-1.07.22-1.45.66-.38.44-.57 1-.57 1.67v4.84h-1.94v-8.5h1.94v1.42h.03a3.03 3.03 0 0 1 2.76-1.62c.92 0 1.63.3 2.11.9.5.6.73 1.47.73 2.6v5.2zm3.15.19c-.33 0-.61-.11-.85-.33a1.04 1.04 0 0 1-.34-.79c0-.3.11-.57.34-.8.24-.21.52-.32.85-.32.34 0 .62.1.86.33a1.06 1.06 0 0 1 0 1.58c-.24.22-.52.33-.86.33z"/><g transform="translate(44 370)"><rect width="296" height="48" fill="#0060DF" rx="2"/><path fill="#FFFFFF" d="M105.8 30h-1.47l-1.75-2.94c-.17-.28-.32-.51-.47-.7-.15-.2-.31-.35-.47-.48a1.61 1.61 0 0 0-.51-.26 2.1 2.1 0 0 0-.62-.09H99.5V30h-1.23V19.5h3.13c.46 0 .89.05 1.27.17.4.11.73.29 1.01.52.29.24.51.53.67.88.17.35.25.76.25 1.22 0 .37-.06.7-.17 1.01a2.63 2.63 0 0 1-1.2 1.43c-.28.17-.6.3-.96.4v.02a2.22 2.22 0 0 1 .83.62 22.74 22.74 0 0 1 .73 1.07L105.8 30zm-6.3-9.39v3.8h1.67c.3 0 .6-.04.85-.13a1.81 1.81 0 0 0 1.12-1.04c.11-.25.17-.53.17-.84 0-.56-.18-1-.55-1.32-.36-.31-.89-.47-1.58-.47H99.5zm13.19 5.94h-5.3c.02.84.25 1.48.68 1.93.43.46 1.02.69 1.77.69.85 0 1.62-.28 2.33-.84v1.13c-.66.48-1.53.72-2.61.72-1.06 0-1.9-.34-2.5-1.03-.6-.68-.91-1.64-.91-2.87a4.1 4.1 0 0 1 1-2.85 3.18 3.18 0 0 1 2.46-1.1c.98 0 1.74.31 2.27.95.54.63.81 1.51.81 2.64v.63zm-1.23-1.02c0-.7-.17-1.23-.5-1.62a1.7 1.7 0 0 0-1.38-.58c-.56 0-1.04.2-1.44.61-.4.4-.64.94-.73 1.6h4.05zm2.6 4.2v-1.29c.65.48 1.37.73 2.15.73 1.06 0 1.58-.36 1.58-1.06 0-.2-.04-.37-.13-.5a1.35 1.35 0 0 0-.37-.38c-.15-.1-.33-.2-.54-.29l-.67-.27a8.63 8.63 0 0 1-.87-.4 2.64 2.64 0 0 1-.63-.45c-.17-.17-.3-.36-.38-.57a2.03 2.03 0 0 1-.13-.76c0-.35.08-.66.24-.93.16-.27.37-.5.64-.68a3 3 0 0 1 .92-.42 4.3 4.3 0 0 1 2.8.2l.01 1.22a3.4 3.4 0 0 0-2.51-.47c-.18.05-.34.13-.47.22a1 1 0 0 0-.3.33.88.88 0 0 0-.1.43c0 .2.03.36.1.49s.18.25.31.35c.14.1.3.2.5.28l.67.27c.33.13.63.26.9.4.26.13.48.28.67.45.18.17.33.36.43.58.1.22.15.48.15.78 0 .37-.09.7-.25.97s-.38.5-.66.68a3 3 0 0 1-.94.4c-.36.1-.73.14-1.12.14-.77 0-1.44-.15-2-.45zm12.84-3.18h-5.3c.02.84.25 1.48.68 1.93.43.46 1.02.69 1.77.69.84 0 1.62-.28 2.33-.84v1.13c-.66.48-1.53.72-2.62.72-1.06 0-1.89-.34-2.5-1.03-.6-.68-.9-1.64-.9-2.87a4.1 4.1 0 0 1 1-2.85 3.18 3.18 0 0 1 2.46-1.1c.98 0 1.74.31 2.27.95.54.63.8 1.51.8 2.64v.63zm-1.23-1.02c0-.7-.17-1.23-.5-1.62a1.7 1.7 0 0 0-1.38-.58c-.56 0-1.04.2-1.44.61-.4.4-.64.94-.73 1.6h4.05zm6.52 4.4c-.28.15-.65.23-1.12.23-1.31 0-1.97-.73-1.97-2.2v-4.43h-1.29V22.5h1.3v-1.83l1.2-.39v2.22h1.88v1.03h-1.89v4.22c0 .5.09.86.26 1.08.17.21.46.32.85.32.3 0 .56-.08.78-.25v1.03zm6.95-1.01h-.03v4.53h-1.2V22.5h1.2v1.32h.03c.59-1 1.45-1.5 2.59-1.5.97 0 1.72.34 2.26 1.01.55.67.82 1.57.82 2.7 0 1.26-.3 2.26-.92 3.01a3.05 3.05 0 0 1-2.5 1.14 2.5 2.5 0 0 1-2.25-1.26zm-.03-3.03v1.05c0 .62.2 1.14.6 1.58a2 2 0 0 0 1.54.65c.72 0 1.3-.28 1.7-.84.42-.56.63-1.33.63-2.32 0-.84-.2-1.5-.58-1.96-.39-.48-.91-.72-1.57-.72-.7 0-1.26.25-1.68.73-.43.49-.64 1.1-.64 1.83zM151.9 30h-1.2v-1.17h-.03c-.53.9-1.3 1.35-2.31 1.35-.75 0-1.33-.2-1.76-.6-.42-.4-.63-.92-.63-1.57 0-1.4.83-2.22 2.48-2.45l2.25-.31c0-1.28-.52-1.92-1.55-1.92-.9 0-1.72.31-2.45.93v-1.23c.74-.47 1.6-.7 2.55-.7 1.77 0 2.65.93 2.65 2.8V30zm-1.2-3.8l-1.81.26c-.56.07-.98.21-1.26.4-.29.2-.43.56-.43 1.06 0 .37.13.67.4.9.25.23.6.35 1.04.35.6 0 1.08-.21 1.47-.63.4-.42.59-.95.59-1.59v-.74zm3 3.53v-1.29c.66.48 1.38.73 2.17.73 1.05 0 1.58-.36 1.58-1.06 0-.2-.05-.37-.14-.5a1.35 1.35 0 0 0-.36-.38c-.16-.1-.34-.2-.55-.29l-.67-.27a8.63 8.63 0 0 1-.87-.4 2.64 2.64 0 0 1-.63-.45c-.17-.17-.3-.36-.38-.57a2.03 2.03 0 0 1-.13-.76c0-.35.08-.66.24-.93.16-.27.38-.5.65-.68a3 3 0 0 1 .92-.42 4.3 4.3 0 0 1 2.8.2v1.22a3.4 3.4 0 0 0-2.5-.47c-.19.05-.34.13-.47.22a1 1 0 0 0-.3.33.88.88 0 0 0-.1.43c0 .2.03.36.1.49s.17.25.3.35c.14.1.31.2.5.28l.67.27c.33.13.63.26.9.4.26.13.48.28.67.45.19.17.33.36.43.58.1.22.15.48.15.78 0 .37-.08.7-.25.97-.16.27-.38.5-.65.68a3 3 0 0 1-.95.4c-.35.1-.73.14-1.12.14-.77 0-1.44-.15-2-.45zm6.37 0v-1.29c.65.48 1.37.73 2.16.73 1.06 0 1.58-.36 1.58-1.06 0-.2-.04-.37-.13-.5a1.35 1.35 0 0 0-.37-.38c-.15-.1-.33-.2-.54-.29l-.67-.27a8.63 8.63 0 0 1-.88-.4 2.64 2.64 0 0 1-.63-.45c-.16-.17-.3-.36-.38-.57a2.03 2.03 0 0 1-.13-.76c0-.35.09-.66.25-.93s.37-.5.64-.68a3 3 0 0 1 .92-.42 4.3 4.3 0 0 1 2.8.2v1.22a3.4 3.4 0 0 0-2.5-.47c-.18.05-.34.13-.47.22a1 1 0 0 0-.3.33.88.88 0 0 0-.1.43c0 .2.03.36.1.49s.18.25.31.35c.14.1.3.2.5.28l.67.27c.33.13.63.26.9.4.25.13.48.28.66.45.19.17.33.36.43.58.1.22.15.48.15.78 0 .37-.08.7-.24.97-.17.27-.38.5-.66.68a3 3 0 0 1-.94.4c-.36.1-.73.14-1.12.14-.77 0-1.44-.15-2.01-.45zm16.27-7.23l-2.25 7.5h-1.25l-1.54-5.37a3.5 3.5 0 0 1-.12-.7h-.03c-.01.18-.06.4-.15.69L169.32 30h-1.2l-2.27-7.5h1.26l1.55 5.64c.05.17.08.4.1.67h.06c.02-.21.06-.44.13-.68l1.73-5.63h1.1l1.55 5.65c.05.18.09.41.11.68h.06c.01-.2.05-.42.13-.68l1.52-5.65h1.19zm4.48 7.68c-1.1 0-2-.35-2.66-1.06a3.9 3.9 0 0 1-.99-2.78c0-1.26.35-2.25 1.04-2.95a3.71 3.71 0 0 1 2.79-1.07c1.11 0 1.99.35 2.61 1.04.63.69.95 1.64.95 2.86 0 1.2-.34 2.16-1.02 2.88a3.55 3.55 0 0 1-2.72 1.08zm.09-6.85c-.77 0-1.38.27-1.83.8a3.23 3.23 0 0 0-.68 2.16c0 .9.23 1.6.68 2.1.46.52 1.07.78 1.83.78a2.2 2.2 0 0 0 1.79-.76c.42-.5.62-1.22.62-2.15 0-.93-.2-1.66-.62-2.16a2.19 2.19 0 0 0-1.8-.77zm9.48.39a1.47 1.47 0 0 0-.91-.25c-.52 0-.94.25-1.29.73a3.35 3.35 0 0 0-.51 1.98V30h-1.2v-7.5h1.2v1.55h.02c.18-.53.44-.94.79-1.24.35-.3.74-.44 1.18-.44.31 0 .55.03.72.1v1.25zm7.5 6.28h-1.2v-1.27h-.03a2.77 2.77 0 0 1-2.58 1.45 2.8 2.8 0 0 1-2.26-1.01 4.13 4.13 0 0 1-.84-2.74c0-1.24.31-2.24.94-2.99a3.1 3.1 0 0 1 2.5-1.12c1.02 0 1.77.4 2.24 1.22h.03V18.9h1.2V30zm-1.2-3.4v-1.1c0-.6-.2-1.12-.6-1.54-.4-.42-.9-.63-1.52-.63-.74 0-1.31.27-1.73.81a3.53 3.53 0 0 0-.63 2.23c0 .86.2 1.54.6 2.04.4.5.95.76 1.63.76.66 0 1.2-.25 1.63-.73.41-.48.62-1.1.62-1.83z"/></g><path fill="#0C0C0D" fill-opacity=".4" d="M60.94 344h-5.56v-10.5h5.33v1.11h-4.1v3.5h3.8v1.1h-3.8v3.68h4.33V344zm12.51 0h-1.2v-4.3c0-.84-.13-1.44-.38-1.8-.26-.38-.69-.57-1.3-.57-.5 0-.94.24-1.3.7a2.69 2.69 0 0 0-.54 1.7V344h-1.2v-4.45c0-1.48-.57-2.22-1.7-2.22-.54 0-.97.23-1.31.67a2.74 2.74 0 0 0-.52 1.72V344h-1.2v-7.5H64v1.19h.03c.54-.91 1.31-1.37 2.33-1.37a2.17 2.17 0 0 1 2.13 1.56 2.68 2.68 0 0 1 2.49-1.56c1.65 0 2.47 1.02 2.47 3.06V344zm7.64 0h-1.2v-1.17h-.03c-.52.9-1.29 1.35-2.3 1.35-.75 0-1.34-.2-1.76-.6-.42-.4-.63-.92-.63-1.57 0-1.4.82-2.22 2.47-2.45l2.25-.31c0-1.28-.51-1.92-1.54-1.92-.9 0-1.72.31-2.45.93v-1.23c.74-.47 1.59-.7 2.55-.7 1.76 0 2.64.93 2.64 2.8V344zm-1.2-3.8l-1.8.26c-.56.07-.98.21-1.27.4-.28.2-.42.56-.42 1.06 0 .37.13.67.39.9.26.23.6.35 1.04.35.6 0 1.1-.21 1.48-.63.39-.42.58-.95.58-1.59v-.74zm4.08-5.6a.76.76 0 0 1-.78-.78c0-.23.08-.41.23-.56a.75.75 0 0 1 .55-.22.78.78 0 0 1 .8.78c0 .21-.09.4-.24.55a.77.77 0 0 1-.56.23zm.59 9.4h-1.2v-7.5h1.2v7.5zm3.63 0h-1.2v-11.1h1.2V344z"/></g></svg>