<svg xmlns="http://www.w3.org/2000/svg" viewBox="0 0 385 106"><path fill="#0C0C0D" fill-rule="evenodd" d="M79.87 47.5c-.88.47-1.98.7-3.29.7a5.3 5.3 0 0 1-4.07-1.64A6.03 6.03 0 0 1 71 42.27c0-1.9.57-3.44 1.72-4.61a5.83 5.83 0 0 1 4.35-1.76c1.13 0 2.07.16 2.8.49v1.48a5.69 5.69 0 0 0-2.81-.71c-1.37 0-2.48.46-3.33 1.37a5.16 5.16 0 0 0-1.27 3.66c0 1.45.4 2.6 1.19 3.47.8.86 1.83 1.29 3.12 1.29 1.2 0 2.23-.27 3.1-.8v1.35zm6.67-6.62a1.66 1.66 0 0 0-1.03-.28c-.58 0-1.06.28-1.45.83a3.8 3.8 0 0 0-.59 2.24V48h-1.36v-8.5h1.36v1.75h.03c.2-.6.5-1.06.9-1.4.4-.33.84-.5 1.33-.5.35 0 .62.04.81.12v1.4zm8.09 3.21h-6c.02.95.27 1.68.76 2.2.49.5 1.16.76 2 .76.97 0 1.85-.31 2.65-.94v1.28c-.75.54-1.74.8-2.97.8a3.6 3.6 0 0 1-2.83-1.15 4.74 4.74 0 0 1-1.03-3.26c0-1.32.38-2.4 1.13-3.23a3.6 3.6 0 0 1 2.8-1.25 3.2 3.2 0 0 1 2.57 1.08c.61.72.92 1.72.92 3v.71zm-1.4-1.15c0-.79-.2-1.4-.57-1.84-.37-.44-.89-.65-1.55-.65a2.2 2.2 0 0 0-1.64.69 3.13 3.13 0 0 0-.83 1.8h4.6zm9.54 5.06h-1.36v-1.33h-.03a2.85 2.85 0 0 1-2.62 1.53 2.8 2.8 0 0 1-1.99-.67 2.33 2.33 0 0 1-.71-1.79c0-1.59.93-2.51 2.8-2.77l2.55-.36c0-1.44-.58-2.16-1.75-2.16-1.03 0-1.95.34-2.77 1.04v-1.4c.83-.52 1.8-.79 2.88-.79 2 0 3 1.06 3 3.17V48zm-1.36-4.3l-2.05.28c-.63.1-1.1.25-1.43.47-.32.23-.48.62-.48 1.2 0 .4.15.75.44 1 .3.27.7.4 1.19.4.67 0 1.23-.23 1.67-.7.44-.48.66-1.08.66-1.8v-.85zm7.87 4.22c-.32.17-.75.26-1.27.26-1.49 0-2.23-.83-2.23-2.49v-5.03h-1.47V39.5h1.47v-2.08l1.36-.44v2.52h2.14v1.16h-2.14v4.8c0 .56.1.97.29 1.21.2.25.51.37.96.37.34 0 .64-.1.89-.29v1.17zm8.51-3.83h-6c.03.95.28 1.68.77 2.2.48.5 1.15.76 2 .76.96 0 1.84-.31 2.65-.94v1.28c-.75.54-1.74.8-2.97.8a3.6 3.6 0 0 1-2.83-1.15 4.74 4.74 0 0 1-1.03-3.26c0-1.32.38-2.4 1.13-3.23a3.6 3.6 0 0 1 2.79-1.25 3.2 3.2 0 0 1 2.58 1.08c.61.72.91 1.72.91 3v.71zm-1.39-1.15c0-.79-.2-1.4-.57-1.84-.37-.44-.9-.65-1.55-.65a2.2 2.2 0 0 0-1.64.69 3.13 3.13 0 0 0-.83 1.8h4.59zM130.6 48h-1.37v-1.33h-.03a2.85 2.85 0 0 1-2.61 1.53 2.8 2.8 0 0 1-2-.67 2.33 2.33 0 0 1-.71-1.79c0-1.59.93-2.51 2.8-2.77l2.55-.36c0-1.44-.58-2.16-1.75-2.16-1.02 0-1.95.34-2.77 1.04v-1.4c.84-.52 1.8-.79 2.89-.79 2 0 3 1.06 3 3.17V48zm-1.37-4.3l-2.05.28c-.63.1-1.1.25-1.42.47-.33.23-.49.62-.49 1.2 0 .4.15.75.45 1 .3.27.69.4 1.18.4.68 0 1.23-.23 1.67-.7.44-.48.66-1.08.66-1.8v-.85zm9.98 3.07h-.03v5.14h-1.36V39.5h1.36V41h.03a3.22 3.22 0 0 1 2.94-1.7c1.1 0 1.95.38 2.56 1.14.62.76.93 1.78.93 3.06 0 1.42-.35 2.56-1.04 3.42a3.45 3.45 0 0 1-2.84 1.28c-1.1 0-1.95-.48-2.55-1.43zm-.03-3.43v1.19c0 .7.23 1.3.68 1.79.46.49 1.04.73 1.74.73.83 0 1.47-.31 1.94-.94.47-.63.7-1.51.7-2.63 0-.95-.22-1.7-.65-2.23a2.17 2.17 0 0 0-1.78-.8c-.8 0-1.43.27-1.91.82a3.03 3.03 0 0 0-.72 2.07zm14.5 4.66h-1.37v-1.33h-.03a2.85 2.85 0 0 1-2.62 1.53 2.8 2.8 0 0 1-1.99-.67 2.33 2.33 0 0 1-.71-1.79c0-1.59.93-2.51 2.8-2.77l2.55-.36c0-1.44-.58-2.16-1.75-2.16-1.03 0-1.95.34-2.77 1.04v-1.4c.83-.52 1.8-.79 2.88-.79 2 0 3 1.06 3 3.17V48zm-1.37-4.3l-2.05.28c-.63.1-1.1.25-1.43.47-.32.23-.48.62-.48 1.2 0 .4.15.75.44 1 .3.27.7.4 1.19.4.67 0 1.23-.23 1.67-.7.44-.48.66-1.08.66-1.8v-.85zm3.41 4v-1.47c.74.55 1.56.82 2.45.82 1.2 0 1.8-.4 1.8-1.2 0-.22-.06-.41-.16-.57-.1-.16-.24-.3-.42-.42a3.2 3.2 0 0 0-.61-.33l-.76-.3c-.38-.15-.7-.3-1-.45a3 3 0 0 1-.7-.52c-.2-.19-.34-.4-.44-.65a2.3 2.3 0 0 1-.14-.85c0-.4.09-.75.27-1.06.18-.3.43-.56.73-.77.3-.21.65-.37 1.04-.47a4.88 4.88 0 0 1 3.18.22v1.38a3.85 3.85 0 0 0-2.84-.53c-.2.06-.38.14-.53.25-.14.1-.26.23-.34.38a1 1 0 0 0-.12.48c0 .22.04.4.12.56.08.15.2.28.36.4.15.11.34.22.56.31.22.1.47.2.76.3.37.15.7.3 1 .45.3.16.56.33.77.52.21.19.37.4.49.66.11.25.17.54.17.89 0 .42-.1.78-.28 1.1-.19.3-.43.56-.74.76-.31.2-.67.36-1.07.46-.4.1-.83.15-1.27.15-.88 0-1.64-.17-2.28-.5zm7.21 0v-1.47c.75.55 1.56.82 2.45.82 1.2 0 1.8-.4 1.8-1.2 0-.22-.05-.41-.16-.57-.1-.16-.24-.3-.41-.42a3.2 3.2 0 0 0-.62-.33l-.76-.3c-.37-.15-.7-.3-.99-.45a3 3 0 0 1-.71-.52c-.2-.19-.34-.4-.43-.65a2.3 2.3 0 0 1-.15-.85c0-.4.1-.75.28-1.06.18-.3.42-.56.73-.77.3-.21.65-.37 1.04-.47a4.88 4.88 0 0 1 3.18.22v1.38a3.85 3.85 0 0 0-2.85-.53c-.2.06-.38.14-.52.25-.15.1-.26.23-.34.38a1 1 0 0 0-.12.48c0 .22.04.4.12.56.08.15.2.28.35.4.15.11.34.22.56.31.22.1.48.2.76.3.37.15.71.3 1.01.45.3.16.55.33.77.52.2.19.37.4.48.66.11.25.17.54.17.89 0 .42-.1.78-.28 1.1-.18.3-.43.56-.74.76-.31.2-.67.36-1.07.46-.4.1-.83.15-1.27.15-.88 0-1.63-.17-2.28-.5zm18.44-8.2l-2.55 8.5h-1.4l-1.76-6.08c-.07-.24-.11-.5-.13-.8h-.04c-.01.2-.07.46-.17.78l-1.9 6.1h-1.36l-2.58-8.5h1.43l1.76 6.4c.06.19.1.44.12.76h.06c.02-.25.07-.5.15-.78l1.96-6.38h1.25l1.76 6.4c.05.21.1.47.12.77h.07c0-.21.06-.47.14-.76l1.73-6.41h1.34zm5.08 8.7c-1.26 0-2.26-.4-3-1.2a4.41 4.41 0 0 1-1.13-3.15 4.6 4.6 0 0 1 1.17-3.35 4.2 4.2 0 0 1 3.16-1.2c1.27 0 2.26.4 2.97 1.17a4.64 4.64 0 0 1 1.06 3.25c0 1.35-.38 2.44-1.15 3.25a4.03 4.03 0 0 1-3.08 1.23zm.1-7.75c-.87 0-1.57.3-2.07.89-.51.6-.77 1.41-.77 2.46 0 1 .26 1.8.77 2.38.52.58 1.2.87 2.07.87.88 0 1.56-.28 2.03-.85.47-.57.71-1.38.71-2.43 0-1.07-.24-1.88-.71-2.46a2.48 2.48 0 0 0-2.03-.86zm10.74.43a1.66 1.66 0 0 0-1.03-.28c-.58 0-1.06.28-1.45.83a3.8 3.8 0 0 0-.59 2.24V48h-1.36v-8.5h1.36v1.75h.03c.2-.6.5-1.06.9-1.4.39-.33.84-.5 1.33-.5.35 0 .62.04.81.12v1.4zM205.8 48h-1.36v-1.44h-.03a3.14 3.14 0 0 1-2.93 1.64 3.17 3.17 0 0 1-2.56-1.14 4.68 4.68 0 0 1-.96-3.11c0-1.4.36-2.53 1.07-3.38a3.5 3.5 0 0 1 2.83-1.27c1.16 0 2.01.46 2.55 1.38h.03v-5.26h1.36V48zm-1.36-3.84V42.9c0-.68-.23-1.26-.68-1.74a2.28 2.28 0 0 0-1.73-.71c-.83 0-1.48.3-1.96.9a4 4 0 0 0-.71 2.53c0 .98.23 1.76.68 2.32.46.57 1.07.85 1.84.85.76 0 1.38-.27 1.85-.82.47-.55.7-1.24.7-2.07zm19.48-4.66l-2.55 8.5h-1.4l-1.76-6.08c-.07-.24-.11-.5-.13-.8h-.04c-.01.2-.07.46-.17.78l-1.9 6.1h-1.36l-2.58-8.5h1.43l1.76 6.4c.06.19.1.44.12.76h.06c.02-.25.07-.5.15-.78l1.96-6.38h1.25l1.76 6.4c.05.21.1.47.12.77h.07c0-.21.06-.47.14-.76l1.73-6.41h1.34zm2.27-2.16a.86.86 0 0 1-.88-.88c0-.25.1-.46.26-.63a.86.86 0 0 1 .62-.26.88.88 0 0 1 .9.9c0 .24-.09.44-.26.61a.87.87 0 0 1-.64.26zm.67 10.66h-1.36v-8.5h1.36V48zm6.7-.08c-.32.17-.75.26-1.27.26-1.5 0-2.24-.83-2.24-2.49v-5.03h-1.46V39.5h1.46v-2.08l1.37-.44v2.52h2.14v1.16h-2.14v4.8c0 .56.1.97.29 1.21.19.25.51.37.96.37.34 0 .64-.1.89-.29v1.17zm8.87.08h-1.36v-4.9c0-1.77-.66-2.65-1.98-2.65-.66 0-1.22.25-1.67.76a2.86 2.86 0 0 0-.68 1.98V48h-1.36V35.42h1.36v5.5h.03a3.1 3.1 0 0 1 2.79-1.62c1.91 0 2.87 1.15 2.87 3.46V48zm13.3 0h-1.35v-1.33h-.04a2.85 2.85 0 0 1-2.61 1.53 2.8 2.8 0 0 1-1.99-.67 2.33 2.33 0 0 1-.72-1.79c0-1.59.94-2.51 2.8-2.77l2.56-.36c0-1.44-.59-2.16-1.76-2.16-1.02 0-1.94.34-2.77 1.04v-1.4c.84-.52 1.8-.79 2.9-.79 1.99 0 2.99 1.06 2.99 3.17V48zm-1.35-4.3l-2.05.28c-.64.1-1.11.25-1.43.47-.32.23-.48.62-.48 1.2 0 .4.14.75.44 1 .3.27.7.4 1.18.4.68 0 1.24-.23 1.68-.7.44-.48.66-1.08.66-1.8v-.85zm7.87 4.22c-.33.17-.75.26-1.27.26-1.5 0-2.24-.83-2.24-2.49v-5.03h-1.46V39.5h1.46v-2.08l1.36-.44v2.52h2.15v1.16h-2.15v4.8c0 .56.1.97.3 1.21.19.25.5.37.96.37.34 0 .64-.1.89-.29v1.17zm7.83.08h-1.36V35.42h1.36V48zm9.59-3.91h-6c.02.95.27 1.68.76 2.2.49.5 1.16.76 2 .76.97 0 1.85-.31 2.65-.94v1.28c-.75.54-1.74.8-2.96.8a3.6 3.6 0 0 1-2.83-1.15 4.74 4.74 0 0 1-1.03-3.26c0-1.32.37-2.4 1.12-3.23a3.6 3.6 0 0 1 2.8-1.25 3.2 3.2 0 0 1 2.58 1.08c.6.72.9 1.72.9 3v.71zm-1.4-1.15c0-.79-.2-1.4-.56-1.84-.38-.44-.9-.65-1.56-.65a2.2 2.2 0 0 0-1.64.69 3.13 3.13 0 0 0-.83 1.8h4.6zm9.54 5.06h-1.36v-1.33h-.03a2.85 2.85 0 0 1-2.62 1.53 2.8 2.8 0 0 1-1.99-.67 2.33 2.33 0 0 1-.71-1.79c0-1.59.93-2.51 2.8-2.77l2.55-.36c0-1.44-.58-2.16-1.75-2.16-1.03 0-1.95.34-2.77 1.04v-1.4c.83-.52 1.8-.79 2.88-.79 2 0 3 1.06 3 3.17V48zm-1.36-4.3l-2.05.28c-.63.1-1.1.25-1.43.47-.32.23-.48.62-.48 1.2 0 .4.15.75.44 1 .3.27.7.4 1.19.4.67 0 1.23-.23 1.67-.7.44-.48.66-1.08.66-1.8v-.85zm3.41 4v-1.47c.74.55 1.56.82 2.45.82 1.2 0 1.8-.4 1.8-1.2 0-.22-.06-.41-.16-.57-.1-.16-.24-.3-.42-.42a3.2 3.2 0 0 0-.6-.33l-.77-.3c-.38-.15-.7-.3-1-.45a3 3 0 0 1-.7-.52c-.2-.19-.34-.4-.44-.65a2.3 2.3 0 0 1-.14-.85c0-.4.09-.75.27-1.06.18-.3.43-.56.73-.77.3-.21.65-.37 1.04-.47a4.88 4.88 0 0 1 3.18.22v1.38a3.85 3.85 0 0 0-2.84-.53c-.2.06-.38.14-.53.25-.14.1-.26.23-.34.38a1 1 0 0 0-.12.48c0 .22.04.4.12.56.08.15.2.28.36.4.15.11.34.22.56.31.22.1.47.2.76.3.37.15.71.3 1 .45.3.16.56.33.77.52.21.19.37.4.49.66.11.25.17.54.17.89 0 .42-.1.78-.28 1.1-.19.3-.43.56-.74.76-.31.2-.67.36-1.07.46-.4.1-.83.15-1.27.15-.88 0-1.64-.17-2.28-.5zm11.67.22c-.32.17-.74.26-1.27.26-1.49 0-2.23-.83-2.23-2.49v-5.03h-1.46V39.5h1.46v-2.08l1.36-.44v2.52h2.14v1.16h-2.14v4.8c0 .56.1.97.3 1.21.19.25.5.37.95.37.35 0 .64-.1.9-.29v1.17zm8.5-6.16v-.04c-1.43-.66-2.14-1.62-2.14-2.88 0-.86.33-1.57.98-2.12.65-.55 1.5-.82 2.52-.82.93 0 1.7.25 2.3.77.6.51.9 1.18.9 1.98 0 1.32-.74 2.34-2.22 3.07v.04c1.74.62 2.61 1.7 2.61 3.22 0 .98-.35 1.77-1.06 2.35-.71.58-1.7.87-2.96.87a3.68 3.68 0 0 1-2.51-.86 2.84 2.84 0 0 1-1-2.25c0-1.52.87-2.63 2.58-3.33zm3.16-2.94c0-.55-.17-.98-.52-1.3a2 2 0 0 0-1.4-.47c-.55 0-1.02.17-1.4.5-.4.32-.58.74-.58 1.25 0 1.04.64 1.82 1.93 2.34 1.31-.54 1.97-1.31 1.97-2.32zm-2.06 3.59c-1.52.6-2.28 1.47-2.28 2.62 0 .59.22 1.08.66 1.46.44.37 1.02.56 1.74.56.69 0 1.25-.18 1.68-.56.44-.37.66-.84.66-1.41 0-1.2-.82-2.09-2.46-2.67zM109.63 70h-1.36v-1.34h-.03a2.8 2.8 0 0 1-2.62 1.54c-2.03 0-3.04-1.2-3.04-3.62V61.5h1.35v4.86c0 1.8.69 2.7 2.06 2.7.67 0 1.21-.25 1.64-.74.43-.5.64-1.13.64-1.92v-4.9h1.37V70zm9.8 0h-1.35v-4.85c0-1.8-.66-2.7-1.98-2.7-.68 0-1.24.25-1.69.76a2.85 2.85 0 0 0-.67 1.94V70h-1.36v-8.5h1.36v1.41h.04a3.07 3.07 0 0 1 2.79-1.6c.93 0 1.64.3 2.13.9.5.6.74 1.46.74 2.6V70zm6.77-11.39a1.81 1.81 0 0 0-.9-.22c-.95 0-1.43.6-1.43 1.8v1.31h2v1.16h-2V70h-1.35v-7.34h-1.45V61.5h1.45v-1.38c0-.89.26-1.6.77-2.11a2.6 2.6 0 0 1 1.93-.78c.41 0 .74.05.98.15v1.23zm4.68 11.59c-1.26 0-2.26-.4-3.01-1.2a4.41 4.41 0 0 1-1.13-3.15 4.6 4.6 0 0 1 1.17-3.35 4.2 4.2 0 0 1 3.17-1.2c1.26 0 2.25.4 2.96 1.17a4.64 4.64 0 0 1 1.07 3.25c0 1.35-.38 2.44-1.15 3.25a4.03 4.03 0 0 1-3.08 1.23zm.1-7.75c-.88 0-1.57.3-2.08.89-.5.6-.76 1.41-.76 2.46 0 1 .26 1.8.77 2.38.51.58 1.2.87 2.07.87.88 0 1.55-.28 2.03-.85.47-.57.7-1.38.7-2.43 0-1.07-.23-1.88-.7-2.46a2.48 2.48 0 0 0-2.03-.86zm10.74.43a1.66 1.66 0 0 0-1.03-.28c-.58 0-1.07.28-1.46.83a3.8 3.8 0 0 0-.58 2.24V70h-1.36v-8.5h1.36v1.75h.03c.2-.6.49-1.06.89-1.4.4-.33.84-.5 1.33-.5.36 0 .63.04.82.12v1.4zm8.5 6.44c0 3.12-1.49 4.68-4.48 4.68-1.05 0-1.97-.2-2.75-.6v-1.36c.96.53 1.87.8 2.74.8 2.09 0 3.13-1.11 3.13-3.34v-.93h-.03a3.18 3.18 0 0 1-2.92 1.63 3.2 3.2 0 0 1-2.55-1.13 4.53 4.53 0 0 1-.97-3.05c0-1.44.35-2.59 1.04-3.44a3.48 3.48 0 0 1 2.85-1.28c1.15 0 2 .46 2.55 1.38h.03V61.5h1.37v7.82zm-1.36-3.16V64.9c0-.67-.22-1.25-.68-1.73a2.25 2.25 0 0 0-1.7-.72c-.85 0-1.5.3-1.98.91a4.1 4.1 0 0 0-.72 2.57c0 .95.23 1.7.69 2.27.46.57 1.06.85 1.81.85.77 0 1.39-.27 1.87-.81.48-.54.71-1.24.71-2.08zm10.95-.07h-6c.02.95.28 1.68.77 2.2.48.5 1.15.76 2 .76.96 0 1.84-.31 2.64-.94v1.28c-.74.54-1.73.8-2.96.8a3.6 3.6 0 0 1-2.83-1.15 4.74 4.74 0 0 1-1.03-3.26c0-1.32.38-2.4 1.13-3.23a3.6 3.6 0 0 1 2.79-1.25 3.2 3.2 0 0 1 2.58 1.08c.6.72.91 1.72.91 3v.71zm-1.4-1.15c0-.79-.19-1.4-.56-1.84-.37-.44-.9-.65-1.56-.65a2.2 2.2 0 0 0-1.63.69 3.13 3.13 0 0 0-.83 1.8h4.59zm7.4 4.98c-.32.17-.74.26-1.27.26-1.48 0-2.23-.83-2.23-2.49v-5.03h-1.46V61.5h1.46v-2.08l1.36-.44v2.52h2.14v1.16h-2.14v4.8c0 .56.1.97.3 1.21.19.25.5.37.96.37.34 0 .64-.1.88-.29v1.17zm5.77 0c-.33.17-.75.26-1.27.26-1.5 0-2.24-.83-2.24-2.49v-5.03h-1.46V61.5h1.46v-2.08l1.36-.44v2.52h2.15v1.16h-2.15v4.8c0 .56.1.97.3 1.21.19.25.5.37.96.37.34 0 .64-.1.89-.29v1.17zm7.9.08h-1.36v-1.33h-.04a2.85 2.85 0 0 1-2.61 1.53 2.8 2.8 0 0 1-1.99-.67 2.33 2.33 0 0 1-.72-1.79c0-1.59.94-2.51 2.8-2.77l2.56-.36c0-1.44-.59-2.16-1.75-2.16-1.03 0-1.95.34-2.78 1.04v-1.4c.84-.52 1.8-.79 2.9-.79 1.99 0 2.99 1.06 2.99 3.17V70zm-1.36-4.3l-2.05.28c-.63.1-1.11.25-1.43.47-.32.23-.48.62-.48 1.2 0 .4.15.75.44 1 .3.27.7.4 1.18.4.68 0 1.24-.23 1.68-.7.44-.48.66-1.08.66-1.8v-.85zm5.32 3.07h-.04V70h-1.36V57.42h1.36v5.57h.04a3.22 3.22 0 0 1 2.94-1.69c1.09 0 1.94.38 2.56 1.14.61.76.92 1.78.92 3.06 0 1.42-.34 2.56-1.04 3.42A3.45 3.45 0 0 1 186 70.2a2.8 2.8 0 0 1-2.55-1.43zm-.04-3.43v1.19c0 .7.23 1.3.69 1.79.46.49 1.04.73 1.74.73.82 0 1.47-.31 1.94-.94.46-.63.7-1.51.7-2.63 0-.95-.22-1.7-.66-2.23a2.17 2.17 0 0 0-1.77-.8c-.8 0-1.43.27-1.91.82a3.03 3.03 0 0 0-.73 2.07zm10 4.66h-1.36V57.42h1.36V70zm9.59-3.91h-6c.02.95.27 1.68.76 2.2.49.5 1.15.76 2 .76.96 0 1.84-.31 2.65-.94v1.28c-.75.54-1.74.8-2.97.8a3.6 3.6 0 0 1-2.83-1.15 4.74 4.74 0 0 1-1.03-3.26c0-1.32.38-2.4 1.13-3.23a3.6 3.6 0 0 1 2.8-1.25 3.2 3.2 0 0 1 2.57 1.08c.61.72.92 1.72.92 3v.71zm-1.4-1.15c0-.79-.2-1.4-.57-1.84-.37-.44-.89-.65-1.55-.65a2.2 2.2 0 0 0-1.64.69 3.13 3.13 0 0 0-.83 1.8h4.6zm13.9 4.67c-.65.4-1.42.59-2.32.59-1.21 0-2.19-.4-2.93-1.18a4.29 4.29 0 0 1-1.12-3.07c0-1.4.4-2.53 1.2-3.38a4.21 4.21 0 0 1 3.22-1.27c.74 0 1.4.14 1.97.42v1.39a3.46 3.46 0 0 0-2.02-.66c-.87 0-1.58.3-2.14.93a3.54 3.54 0 0 0-.84 2.45c0 1 .27 1.78.79 2.36a2.7 2.7 0 0 0 2.1.86c.74 0 1.44-.24 2.1-.74v1.3zm9.12.39h-1.36v-4.9c0-1.77-.66-2.65-1.98-2.65-.66 0-1.22.25-1.67.76a2.86 2.86 0 0 0-.68 1.98V70h-1.37V57.42h1.37v5.5h.03a3.1 3.1 0 0 1 2.79-1.62c1.91 0 2.87 1.15 2.87 3.46V70zm8.65 0h-1.36v-1.33h-.04a2.85 2.85 0 0 1-2.61 1.53 2.8 2.8 0 0 1-1.99-.67 2.33 2.33 0 0 1-.72-1.79c0-1.59.94-2.51 2.8-2.77l2.56-.36c0-1.44-.59-2.16-1.75-2.16-1.03 0-1.95.34-2.78 1.04v-1.4c.84-.52 1.8-.79 2.9-.79 1.99 0 2.99 1.06 2.99 3.17V70zm-1.36-4.3l-2.05.28c-.63.1-1.11.25-1.43.47-.32.23-.48.62-.48 1.2 0 .4.15.75.44 1 .3.27.7.4 1.18.4.68 0 1.24-.23 1.68-.7.44-.48.66-1.08.66-1.8v-.85zm8.36-2.82a1.66 1.66 0 0 0-1.03-.28c-.58 0-1.07.28-1.46.83a3.8 3.8 0 0 0-.58 2.24V70h-1.37v-8.5h1.37v1.75h.03c.2-.6.49-1.06.89-1.4.4-.33.84-.5 1.33-.5.36 0 .63.04.82.12v1.4zm7.56 7.12h-1.36v-1.33h-.04a2.85 2.85 0 0 1-2.61 1.53 2.8 2.8 0 0 1-1.99-.67 2.33 2.33 0 0 1-.72-1.79c0-1.59.94-2.51 2.8-2.77l2.56-.36c0-1.44-.59-2.16-1.75-2.16-1.03 0-1.95.34-2.78 1.04v-1.4c.84-.52 1.8-.79 2.9-.79 1.99 0 2.99 1.06 2.99 3.17V70zm-1.36-4.3l-2.05.28c-.63.1-1.11.25-1.43.47-.32.23-.48.62-.48 1.2 0 .4.15.75.44 1 .3.27.7.4 1.18.4.68 0 1.24-.23 1.68-.7.44-.48.66-1.08.66-1.8v-.85zm9.72 3.91c-.66.4-1.43.59-2.33.59-1.2 0-2.19-.4-2.93-1.18a4.29 4.29 0 0 1-1.12-3.07c0-1.4.4-2.53 1.2-3.38a4.21 4.21 0 0 1 3.22-1.27c.75 0 1.4.14 1.97.42v1.39a3.46 3.46 0 0 0-2.02-.66c-.87 0-1.58.3-2.14.93a3.54 3.54 0 0 0-.83 2.45c0 1 .26 1.78.78 2.36a2.7 2.7 0 0 0 2.1.86c.75 0 1.44-.24 2.1-.74v1.3zm6 .3c-.32.18-.75.27-1.27.27-1.49 0-2.23-.83-2.23-2.49v-5.03h-1.47V61.5h1.47v-2.08l1.36-.44v2.52h2.14v1.16h-2.14v4.8c0 .56.1.97.29 1.21.2.25.51.37.96.37.34 0 .64-.1.89-.29v1.17zm8.52-3.82h-6c.02.95.27 1.68.76 2.2.48.5 1.15.76 2 .76.96 0 1.84-.31 2.65-.94v1.28c-.75.54-1.74.8-2.97.8a3.6 3.6 0 0 1-2.83-1.15 4.74 4.74 0 0 1-1.03-3.26c0-1.32.38-2.4 1.13-3.23a3.6 3.6 0 0 1 2.8-1.25 3.2 3.2 0 0 1 2.57 1.08c.61.72.92 1.72.92 3v.71zm-1.4-1.15c0-.79-.2-1.4-.57-1.84-.37-.44-.89-.65-1.55-.65a2.2 2.2 0 0 0-1.64.69 3.13 3.13 0 0 0-.83 1.8h4.6zm7.89-2.06a1.66 1.66 0 0 0-1.03-.28c-.58 0-1.07.28-1.46.83a3.8 3.8 0 0 0-.58 2.24V70h-1.37v-8.5h1.37v1.75h.03c.2-.6.49-1.06.89-1.4.4-.33.84-.5 1.33-.5.36 0 .63.04.82.12v1.4zm1.08 6.81v-1.46c.74.55 1.55.82 2.44.82 1.2 0 1.8-.4 1.8-1.2 0-.22-.05-.41-.16-.57-.1-.16-.24-.3-.41-.42a3.2 3.2 0 0 0-.62-.33l-.76-.3c-.37-.15-.7-.3-.99-.45a3 3 0 0 1-.71-.52c-.2-.19-.34-.4-.43-.65a2.3 2.3 0 0 1-.15-.85c0-.4.1-.75.28-1.06.18-.3.42-.56.73-.77.3-.21.65-.37 1.04-.47a4.88 4.88 0 0 1 3.18.22v1.38a3.85 3.85 0 0 0-2.85-.53c-.2.06-.38.14-.52.25-.15.1-.26.23-.34.38a1 1 0 0 0-.12.48c0 .22.04.4.12.56.08.15.2.28.35.4.15.11.34.22.56.31l.76.3c.38.15.71.3 1.01.45.3.16.56.33.77.52.2.19.37.4.48.66.12.25.17.54.17.89 0 .42-.1.78-.28 1.1-.18.3-.43.56-.74.76-.3.2-.67.36-1.07.46-.4.1-.83.15-1.27.15-.87 0-1.63-.17-2.27-.5z"/></svg>