<svg xmlns="http://www.w3.org/2000/svg" viewBox="0 0 385 218"><g fill="none" fill-rule="evenodd"><path fill="#0C0C0D" d="M45.92 56.53v-2.04c.18.17.4.32.65.45a5.04 5.04 0 0 0 1.65.55c.28.05.54.07.78.07.83 0 1.45-.13 1.86-.41.4-.28.6-.68.6-1.2 0-.29-.06-.53-.2-.74-.13-.2-.32-.4-.57-.57a5.97 5.97 0 0 0-.85-.5l-1.06-.49c-.4-.21-.78-.43-1.13-.65a4.86 4.86 0 0 1-.91-.74 3.07 3.07 0 0 1-.6-.9 2.96 2.96 0 0 1-.23-1.2c0-.55.13-1.04.38-1.45.25-.41.58-.75 1-1.02.4-.27.88-.47 1.4-.6.53-.13 1.07-.2 1.61-.2a6.5 6.5 0 0 1 2.73.43v1.95a4.35 4.35 0 0 0-2.61-.73c-.3 0-.58.03-.88.08-.29.06-.55.15-.78.28-.23.13-.41.29-.56.49-.14.2-.21.44-.21.72 0 .27.05.5.16.69.11.2.28.37.49.53.21.16.47.32.78.47a14.38 14.38 0 0 1 2.24 1.17c.37.24.7.5.97.8.28.28.5.6.67.95.16.35.24.75.24 1.2 0 .6-.12 1.11-.36 1.53-.25.41-.58.75-.99 1.01-.41.26-.88.45-1.42.56a8.03 8.03 0 0 1-4.85-.5zm17.14.47h-1.92v-4.65c0-1.68-.56-2.52-1.69-2.52-.56 0-1.04.24-1.43.73a2.9 2.9 0 0 0-.58 1.87V57h-1.93V44.42h1.93v5.5h.04a3.04 3.04 0 0 1 2.75-1.62c1.89 0 2.83 1.15 2.83 3.46V57zm6.11.2c-1.31 0-2.36-.4-3.14-1.2a4.3 4.3 0 0 1-1.17-3.15c0-1.43.4-2.54 1.22-3.35a4.5 4.5 0 0 1 3.3-1.2c1.33 0 2.36.4 3.1 1.17a4.52 4.52 0 0 1 1.12 3.25c0 1.35-.4 2.44-1.2 3.25a4.3 4.3 0 0 1-3.23 1.23zm.1-7.36a2.2 2.2 0 0 0-1.8.78 3.3 3.3 0 0 0-.65 2.18c0 .9.22 1.6.67 2.1.44.52 1.03.77 1.77.77.76 0 1.34-.25 1.75-.75.4-.5.61-1.22.61-2.15 0-.94-.2-1.66-.61-2.17a2.1 2.1 0 0 0-1.75-.76zm17.72-1.34L84.48 57h-2.02l-1.54-5.76c-.06-.22-.1-.47-.12-.75h-.03a3.4 3.4 0 0 1-.15.73L78.94 57h-1.97l-2.5-8.5h1.99L78 54.63c.05.18.09.42.1.73h.06c.02-.24.06-.48.13-.75l1.72-6.11h1.81l1.53 6.15c.05.2.09.44.1.73h.07c0-.2.05-.45.12-.73l1.51-6.15H87zm7.07-1.78c-.32 0-.59-.1-.81-.31-.23-.2-.34-.47-.34-.78 0-.32.11-.58.34-.8.22-.2.5-.3.8-.3.33 0 .61.1.84.3.22.22.34.48.34.8 0 .3-.12.55-.34.77-.23.2-.5.32-.83.32zM95 57H93.1v-8.5H95V57zm15.23 0h-1.93v-4.63c0-.9-.13-1.54-.38-1.94-.25-.4-.67-.6-1.27-.6-.5 0-.93.26-1.28.76-.36.5-.53 1.1-.53 1.81V57h-1.94v-4.79c0-1.58-.55-2.37-1.67-2.37-.52 0-.95.23-1.28.71-.34.48-.5 1.1-.5 1.85V57h-1.93v-8.5h1.92v1.34h.04a2.94 2.94 0 0 1 2.68-1.54c.58 0 1.1.16 1.54.49.44.32.74.74.9 1.27a3.03 3.03 0 0 1 2.82-1.76c1.87 0 2.8 1.15 2.8 3.46V57zm8.87 0h-1.87v-1.33h-.03a2.81 2.81 0 0 1-2.58 1.53c-.84 0-1.5-.23-1.97-.68a2.38 2.38 0 0 1-.7-1.8c0-1.6.92-2.54 2.77-2.8l2.52-.37c0-1.2-.58-1.81-1.73-1.81a4.1 4.1 0 0 0-2.74 1.04V49.1c.9-.53 1.94-.8 3.1-.8 2.16 0 3.23 1.06 3.23 3.17V57zm-1.86-4.18l-1.78.25c-.56.08-.97.21-1.25.4-.28.2-.42.55-.42 1.04 0 .36.13.65.38.88.26.23.6.35 1.04.35.58 0 1.07-.2 1.45-.62.39-.41.58-.93.58-1.56v-.74zm11.94 3.5c0 3.12-1.56 4.68-4.7 4.68-1.1 0-2.07-.18-2.9-.56V58.7c.93.53 1.81.8 2.65.8 2.02 0 3.03-1 3.03-2.99v-.93h-.03a3.12 3.12 0 0 1-2.88 1.63 3.1 3.1 0 0 1-2.5-1.13 4.58 4.58 0 0 1-.95-3.05c0-1.44.34-2.59 1.02-3.44a3.4 3.4 0 0 1 2.8-1.28 2.7 2.7 0 0 1 2.5 1.38h.04V48.5h1.92v7.82zm-1.9-3.21V52c0-.6-.2-1.12-.6-1.54-.4-.42-.89-.63-1.48-.63-.73 0-1.3.27-1.71.8-.42.55-.62 1.3-.62 2.27 0 .83.2 1.5.6 2 .39.5.91.75 1.56.75.67 0 1.2-.24 1.62-.71.42-.48.63-1.1.63-1.84zm11.6.16h-5.79c.03.79.27 1.4.73 1.82.46.43 1.1.64 1.9.64.91 0 1.75-.27 2.5-.81v1.55a5.7 5.7 0 0 1-3.07.73 3.8 3.8 0 0 1-2.94-1.16 4.63 4.63 0 0 1-1.07-3.26c0-1.32.4-2.4 1.18-3.23a3.84 3.84 0 0 1 2.92-1.25c1.16 0 2.06.37 2.7 1.12.63.75.95 1.79.95 3.11v.74zm-1.85-1.36c0-.69-.17-1.23-.5-1.61a1.64 1.64 0 0 0-1.32-.58c-.55 0-1.02.2-1.4.6-.39.41-.63.94-.72 1.6h3.94zm3.16 4.82v-1.78c.72.55 1.52.82 2.38.82 1.17 0 1.75-.34 1.75-1.03 0-.2-.05-.36-.15-.5-.1-.13-.24-.25-.4-.35-.17-.1-.37-.2-.6-.29a8.13 8.13 0 0 1-1.71-.72 2.85 2.85 0 0 1-.7-.52c-.19-.2-.32-.42-.42-.67-.1-.25-.14-.54-.14-.87 0-.41.1-.77.29-1.09.2-.31.45-.57.78-.79.33-.2.7-.37 1.11-.48a5.85 5.85 0 0 1 3.4.2v1.68a3.55 3.55 0 0 0-2.72-.54c-.2.05-.36.12-.5.21s-.25.2-.33.32a.76.76 0 0 0-.11.41c0 .18.04.34.11.47.08.12.2.24.35.33.15.1.33.19.55.27l.73.26c.37.15.7.3.98.46.3.15.54.33.75.52a2.07 2.07 0 0 1 .64 1.6c0 .43-.1.8-.3 1.13-.2.32-.47.59-.8.8-.33.2-.71.36-1.15.47-.43.1-.9.15-1.37.15-.93 0-1.74-.16-2.42-.47zM89.5 93h-1.36l-1.1-2.94h-4.46L81.53 93h-1.37l4.03-10.5h1.27L89.51 93zm-2.87-4.05l-1.65-4.48c-.05-.14-.1-.38-.16-.7h-.03c-.05.3-.1.53-.17.7L83 88.95h3.64zM92.09 93h-1.2V81.9h1.2V93zm11.88-7.5l-2.25 7.5h-1.24l-1.55-5.37a3.5 3.5 0 0 1-.11-.7h-.03c-.02.18-.07.4-.16.69L96.96 93h-1.2l-2.28-7.5h1.26l1.56 5.64c.05.17.08.4.1.67h.06c.01-.21.06-.44.13-.69l1.73-5.62h1.1l1.55 5.65c.05.18.08.41.1.68h.07c0-.2.05-.42.12-.68l1.53-5.65h1.18zm6.76 7.5h-1.2v-1.17h-.03c-.52.9-1.29 1.35-2.3 1.35-.75 0-1.34-.2-1.76-.6-.42-.4-.63-.92-.63-1.57 0-1.4.82-2.22 2.47-2.45l2.25-.31c0-1.28-.51-1.92-1.54-1.92-.9 0-1.72.31-2.45.93v-1.23c.74-.47 1.59-.7 2.55-.7 1.76 0 2.64.93 2.64 2.8V93zm-1.2-3.8l-1.8.26c-.56.07-.98.21-1.27.4-.28.2-.42.56-.42 1.06 0 .37.13.67.39.9.26.23.6.35 1.04.35.6 0 1.1-.21 1.48-.63.39-.42.58-.95.58-1.59v-.74zm9.43-3.7l-3.44 8.7c-.62 1.55-1.48 2.33-2.6 2.33-.31 0-.57-.03-.78-.1v-1.07c.26.09.5.13.7.13.61 0 1.07-.36 1.37-1.08l.6-1.42-2.93-7.49h1.34l2.02 5.77.16.57h.04l.15-.55 2.13-5.79h1.24zm.84 7.23v-1.29c.65.48 1.37.73 2.16.73 1.06 0 1.58-.36 1.58-1.06 0-.2-.04-.37-.13-.5a1.35 1.35 0 0 0-.37-.38c-.15-.1-.33-.2-.54-.29l-.67-.27a8.63 8.63 0 0 1-.88-.4 2.64 2.64 0 0 1-.63-.45c-.16-.17-.3-.36-.38-.57a2.03 2.03 0 0 1-.13-.76c0-.35.09-.66.25-.93s.37-.5.64-.68a3 3 0 0 1 .92-.42 4.3 4.3 0 0 1 2.8.2v1.22a3.4 3.4 0 0 0-2.5-.47c-.18.05-.34.13-.47.22a1 1 0 0 0-.3.33.88.88 0 0 0-.1.43c0 .2.03.36.1.49s.18.25.31.35c.14.1.3.2.5.28l.67.27c.33.13.63.26.9.4.25.13.48.28.66.45.19.17.33.36.43.58.1.22.15.48.15.78 0 .37-.08.7-.24.97-.17.27-.38.5-.66.68a3 3 0 0 1-.94.4c-.36.1-.73.14-1.12.14-.77 0-1.44-.15-2.01-.45zm-34.19 36.45c-1.49 0-2.68-.5-3.58-1.48a5.46 5.46 0 0 1-1.34-3.83c0-1.69.46-3.03 1.37-4.04.91-1 2.15-1.5 3.73-1.5a4.5 4.5 0 0 1 3.5 1.46 5.48 5.48 0 0 1 1.33 3.83 5.8 5.8 0 0 1-1.36 4.06 4.7 4.7 0 0 1-3.65 1.5zm.09-9.75c-1.1 0-2 .4-2.69 1.2a4.62 4.62 0 0 0-1.03 3.13c0 1.3.33 2.34 1 3.13a3.28 3.28 0 0 0 2.63 1.18c1.15 0 2.06-.38 2.72-1.13.67-.75 1-1.8 1-3.15 0-1.4-.32-2.46-.97-3.22a3.32 3.32 0 0 0-2.66-1.14zM98.75 129h-1.2v-4.28c0-1.59-.58-2.39-1.74-2.39-.6 0-1.1.23-1.5.68-.39.45-.58 1.02-.58 1.71V129h-1.2v-7.5h1.2v1.25h.02a2.7 2.7 0 0 1 2.47-1.43c.82 0 1.44.27 1.88.8.43.53.65 1.3.65 2.3V129zm3.46 0h-1.2v-11.1h1.2V129zm8.4-7.5l-3.44 8.7c-.62 1.55-1.48 2.33-2.6 2.33-.31 0-.57-.03-.78-.1v-1.07c.26.09.5.13.71.13.6 0 1.06-.36 1.36-1.08l.6-1.42-2.93-7.49h1.34l2.02 5.77.16.57h.04l.15-.55 2.13-5.79h1.25zm8.54 7.68c-1.11 0-2-.35-2.66-1.06a3.9 3.9 0 0 1-.99-2.78c0-1.26.34-2.25 1.03-2.95a3.71 3.71 0 0 1 2.8-1.07c1.11 0 1.98.35 2.61 1.04.63.69.94 1.64.94 2.86 0 1.2-.33 2.16-1.01 2.88a3.55 3.55 0 0 1-2.72 1.08zm.09-6.85c-.78 0-1.39.27-1.84.8a3.23 3.23 0 0 0-.67 2.16c0 .9.23 1.6.68 2.1.46.52 1.06.78 1.83.78a2.2 2.2 0 0 0 1.79-.76c.41-.5.62-1.22.62-2.15 0-.93-.2-1.66-.62-2.16a2.19 2.19 0 0 0-1.8-.77zm11.46-.83l-2.99 7.5h-1.18l-2.84-7.5H125l1.9 5.45c.14.4.23.75.27 1.05h.02c.05-.38.13-.72.24-1.02l2-5.48h1.26zm7.23 4.05h-5.3c.02.84.25 1.48.68 1.93.43.46 1.02.69 1.77.69.84 0 1.62-.28 2.33-.84v1.13c-.66.48-1.53.72-2.62.72-1.06 0-1.89-.34-2.5-1.03-.6-.68-.9-1.64-.9-2.87a4.1 4.1 0 0 1 .99-2.85 3.18 3.18 0 0 1 2.46-1.1c.99 0 1.74.31 2.28.95.54.63.8 1.51.8 2.64v.63zm-1.23-1.02c0-.7-.18-1.23-.5-1.62a1.7 1.7 0 0 0-1.38-.58c-.56 0-1.05.2-1.44.61-.4.4-.64.94-.73 1.6h4.05zm6.95-1.81a1.47 1.47 0 0 0-.9-.25c-.52 0-.94.25-1.29.73a3.35 3.35 0 0 0-.52 1.98V129h-1.2v-7.5h1.2v1.55h.03c.18-.53.44-.94.79-1.24.35-.3.74-.44 1.18-.44.31 0 .55.03.71.1v1.25zm18.03-4.22l-2.97 10.5h-1.44l-2.16-7.68a4.8 4.8 0 0 1-.17-1.07h-.03c-.03.37-.1.72-.19 1.06l-2.17 7.69h-1.43l-3.08-10.5h1.36l2.23 8.05c.1.34.15.7.18 1.06h.03c.03-.26.1-.61.23-1.06l2.32-8.05h1.18l2.23 8.11c.08.28.13.6.17.98h.03c.02-.25.09-.59.2-1l2.15-8.1h1.33zm2.01 1.1a.76.76 0 0 1-.77-.78.75.75 0 0 1 .78-.78.78.78 0 0 1 .78.78c0 .21-.07.4-.23.55a.77.77 0 0 1-.56.23zm.59 9.4h-1.2v-7.5h1.2v7.5zm6.27-3.7h-4v-.95h4v.94zm7.65-5.69h-4.1v3.63h3.8v1.1h-3.8V129h-1.23v-10.5h5.33v1.11zm2.45-.01a.76.76 0 0 1-.78-.78c0-.23.08-.41.23-.56a.75.75 0 0 1 .55-.22.78.78 0 0 1 .79.78c0 .21-.08.4-.23.55a.77.77 0 0 1-.56.23zm.59 9.4h-1.2v-7.5h1.2v7.5zm-99.86 34v-10.5h2.99c.9 0 1.62.22 2.16.66.53.45.8 1.03.8 1.74 0 .6-.17 1.11-.49 1.55a2.6 2.6 0 0 1-1.33.94v.03c.7.08 1.27.35 1.7.8.42.45.63 1.04.63 1.76 0 .9-.32 1.63-.96 2.19a3.6 3.6 0 0 1-2.44.83h-3.06zm1.23-9.39v3.4h1.26c.67 0 1.2-.17 1.59-.5.38-.32.58-.78.58-1.37 0-1.02-.68-1.53-2.02-1.53h-1.41zm0 4.5v3.78h1.67a2.5 2.5 0 0 0 1.68-.52c.4-.34.6-.8.6-1.4 0-1.24-.85-1.86-2.54-1.86h-1.41zM91 163h-1.2v-11.1h1.2V163zm5.57.18c-1.1 0-2-.35-2.65-1.06a3.9 3.9 0 0 1-1-2.78c0-1.26.35-2.25 1.04-2.95a3.71 3.71 0 0 1 2.79-1.07c1.12 0 1.99.35 2.62 1.04.62.69.94 1.64.94 2.86 0 1.2-.34 2.16-1.02 2.88a3.55 3.55 0 0 1-2.72 1.08zm.09-6.85c-.77 0-1.38.27-1.83.8a3.23 3.23 0 0 0-.67 2.16c0 .9.22 1.6.68 2.1.45.52 1.06.78 1.82.78a2.2 2.2 0 0 0 1.8-.76c.4-.5.62-1.22.62-2.15 0-.93-.21-1.66-.63-2.16a2.19 2.19 0 0 0-1.79-.77zm10.68 6.33a3.9 3.9 0 0 1-2.05.52 3.4 3.4 0 0 1-2.6-1.05c-.65-.7-.98-1.6-.98-2.7 0-1.24.36-2.23 1.07-2.98a3.72 3.72 0 0 1 2.83-1.13c.66 0 1.24.13 1.74.37v1.23a3.05 3.05 0 0 0-1.78-.59c-.77 0-1.4.28-1.89.83-.5.55-.74 1.27-.74 2.16 0 .88.23 1.58.7 2.08.46.51 1.08.77 1.85.77.66 0 1.27-.22 1.85-.66v1.15zm8.04.34h-1.68l-3.31-3.6h-.03v3.6h-1.2v-11.1h1.2v7.04h.03l3.14-3.44h1.58l-3.48 3.62 3.75 3.88zm6.96-3.45h-5.3c.02.84.25 1.48.68 1.93.43.46 1.02.69 1.77.69.84 0 1.62-.28 2.33-.84v1.13c-.66.48-1.53.72-2.62.72-1.06 0-1.89-.34-2.5-1.03-.6-.68-.9-1.64-.9-2.87a4.1 4.1 0 0 1 1-2.85 3.18 3.18 0 0 1 2.46-1.1c.98 0 1.74.31 2.27.95.54.63.8 1.51.8 2.64v.63zm-1.23-1.02c0-.7-.17-1.23-.5-1.62a1.7 1.7 0 0 0-1.38-.58c-.56 0-1.04.2-1.44.61-.4.4-.64.94-.73 1.6h4.05zm9.45 4.47h-1.2v-1.27h-.03a2.77 2.77 0 0 1-2.58 1.45 2.8 2.8 0 0 1-2.26-1.01 4.13 4.13 0 0 1-.85-2.74c0-1.24.31-2.24.94-2.99a3.1 3.1 0 0 1 2.5-1.12c1.03 0 1.78.4 2.25 1.22h.03v-4.64h1.2V163zm-1.2-3.4v-1.1c0-.6-.2-1.12-.6-1.54-.4-.42-.91-.63-1.53-.63-.73 0-1.3.27-1.73.81a3.53 3.53 0 0 0-.63 2.23c0 .86.2 1.54.6 2.04.41.5.95.76 1.63.76.67 0 1.21-.25 1.63-.73.42-.48.63-1.1.63-1.83z"/><circle cx="56" cy="87" r="11" stroke="#0A84FF" stroke-width="4"/><circle cx="56" cy="121" r="11" stroke="#0A84FF" stroke-width="4"/><circle cx="56" cy="121" r="6" fill="#0A84FF"/><circle cx="56" cy="155" r="11" stroke="#0A84FF" stroke-width="4"/></g></svg>