<svg xmlns="http://www.w3.org/2000/svg" width="385" height="218" viewBox="0 0 385 218">
  <g fill="none" fill-rule="evenodd">
    <path fill="#0C0C0D" d="M45.9296875 52.7460938C46.0375977 54.9208984 47.8554688 56.2988281 50.6030273 56.2988281 53.5083008 56.2988281 55.3095703 54.8461914 55.3095703 52.5136719 55.3095703 50.6875 54.2885742 49.6748047 51.8564453 49.1269531L50.4785156 48.8115234C48.9926758 48.4711914 48.3867188 47.9980469 48.3867188 47.1928711 48.3867188 46.171875 49.2998047 45.5078125 50.6777344 45.5078125 51.9892578 45.5078125 52.9189453 46.171875 53.0683594 47.2260742L55.1186523 47.2260742C55.019043 45.1674805 53.2011719 43.7231445 50.6860352 43.7231445 48.0048828 43.7231445 46.2285156 45.1674805 46.2285156 47.3422852 46.2285156 49.1269531 47.2495117 50.2060547 49.4243164 50.6958008L50.9765625 51.0527344C52.512207 51.409668 53.1679688 51.9160156 53.1679688 52.7792969 53.1679688 53.7836914 52.1469727 54.5058594 50.7358398 54.5058594 49.2167969 54.5058594 48.1542969 53.8168945 48.0214844 52.7460938L45.9296875 52.7460938zM57.5839844 56L59.6425781 56 59.6425781 50.7290039C59.6425781 49.4257812 60.3979492 48.5458984 61.7509766 48.5458984 62.9462891 48.5458984 63.5771484 49.2514648 63.5771484 50.6293945L63.5771484 56 65.6357422 56 65.6357422 50.1396484C65.6357422 47.9814453 64.4570312 46.7529297 62.5146484 46.7529297 61.1616211 46.7529297 60.1904297 47.3671875 59.7587891 48.3881836L59.609375 48.3881836 59.609375 43.4077148 57.5839844 43.4077148 57.5839844 56zM71.9941406 56.1826172C69.2714844 56.1826172 67.6279297 54.40625 67.6279297 51.4594727 67.6279297 48.5292969 69.2963867 46.7363281 71.9941406 46.7363281 74.7001953 46.7363281 76.3603516 48.5209961 76.3603516 51.4594727 76.3603516 54.40625 74.7084961 56.1826172 71.9941406 56.1826172zM71.9941406 54.4560547C73.4301758 54.4560547 74.2436523 53.3603516 74.2436523 51.4594727 74.2436523 49.5668945 73.421875 48.4628906 71.9941406 48.4628906 70.5581055 48.4628906 69.7363281 49.5668945 69.7363281 51.4594727 69.7363281 53.3603516 70.5581055 54.4560547 71.9941406 54.4560547zM90.2392578 46.9189453L88.1889648 46.9189453 86.6865234 53.7006836 86.5454102 53.7006836 84.7856445 46.9189453 82.8183594 46.9189453 81.0751953 53.7006836 80.934082 53.7006836 79.4233398 46.9189453 77.3481445 46.9189453 79.8051758 56 81.9467773 56 83.706543 49.4589844 83.8476562 49.4589844 85.6157227 56 87.7822266 56 90.2392578 46.9189453zM96.5893555 56L98.6396484 56 98.6396484 46.9189453 96.5893555 46.9189453 96.5893555 56zM97.6103516 45.4414062C98.3657227 45.4414062 98.8803711 44.9599609 98.8803711 44.3041992 98.8803711 43.6484375 98.3657227 43.1669922 97.6103516 43.1669922 96.8632812 43.1669922 96.340332 43.6484375 96.340332 44.3041992 96.340332 44.9599609 96.8632812 45.4414062 97.6103516 45.4414062zM101.187988 56L103.246582 56 103.246582 50.4799805C103.246582 49.3676758 104.001953 48.5292969 105.022949 48.5292969 106.035645 48.5292969 106.666504 49.1352539 106.666504 50.1313477L106.666504 56 108.666992 56 108.666992 50.347168C108.666992 49.3095703 109.372559 48.5292969 110.443359 48.5292969 111.547363 48.5292969 112.103516 49.1103516 112.103516 50.2807617L112.103516 56 114.153809 56 114.153809 49.7578125C114.153809 47.8735352 113.058105 46.7363281 111.240234 46.7363281 109.978516 46.7363281 108.932617 47.3920898 108.484375 48.3881836L108.343262 48.3881836C107.961426 47.3671875 107.089844 46.7363281 105.836426 46.7363281 104.632812 46.7363281 103.703125 47.3505859 103.312988 48.3881836L103.171875 48.3881836 103.171875 46.9189453 101.187988 46.9189453 101.187988 56zM119.69873 54.5307617C120.943848 54.5307617 121.873535 53.7255859 121.873535 52.6713867L121.873535 51.9492188 119.823242 52.0820312C118.669434 52.1567383 118.129883 52.5717773 118.129883 53.3105469 118.129883 54.0742188 118.785645 54.5307617 119.69873 54.5307617zM119.092773 56.1494141C117.341309 56.1494141 116.087891 55.0869141 116.087891 53.4267578 116.087891 51.7832031 117.324707 50.8369141 119.532715 50.7041016L121.873535 50.5629883 121.873535 49.7993164C121.873535 48.9111328 121.275879 48.4130859 120.163574 48.4130859 119.217285 48.4130859 118.569824 48.7451172 118.378906 49.359375L116.436523 49.359375C116.602539 47.7573242 118.10498 46.7363281 120.263184 46.7363281 122.595703 46.7363281 123.907227 47.8735352 123.907227 49.7993164L123.907227 56 121.92334 56 121.92334 54.7548828 121.782227 54.7548828C121.275879 55.6347656 120.279785 56.1494141 119.092773 56.1494141zM130.282227 54.1904297C131.718262 54.1904297 132.581543 53.0947266 132.581543 51.3598633 132.581543 49.625 131.709961 48.5209961 130.282227 48.5209961 128.846191 48.5209961 128.032715 49.625 128.032715 51.3598633 128.032715 53.0947266 128.846191 54.1904297 130.282227 54.1904297zM130.282227 59.453125C127.949707 59.453125 126.422363 58.4238281 126.256348 56.8632812L128.323242 56.8632812C128.456055 57.4858398 129.186523 57.8842773 130.31543 57.8842773 131.726562 57.8842773 132.54834 57.2202148 132.54834 56.0830078L132.54834 54.3647461 132.407227 54.3647461C131.884277 55.3359375 130.896484 55.8671875 129.634766 55.8671875 127.34375 55.8671875 125.916016 54.0908203 125.916016 51.3598633 125.916016 48.5791016 127.352051 46.7695312 129.667969 46.7695312 130.904785 46.7695312 131.983887 47.3837891 132.481934 48.371582L132.623047 48.371582 132.623047 46.9189453 134.606934 46.9189453 134.606934 56.0332031C134.606934 58.1333008 132.930176 59.453125 130.282227 59.453125zM140.94043 48.371582C139.711914 48.371582 138.848633 49.2514648 138.757324 50.5795898L143.032227 50.5795898C142.990723 49.2348633 142.177246 48.371582 140.94043 48.371582zM143.048828 53.5014648L144.999512 53.5014648C144.609375 55.1533203 143.106934 56.1826172 140.965332 56.1826172 138.29248 56.1826172 136.682129 54.4145508 136.682129 51.4926758 136.682129 48.5708008 138.317383 46.7363281 140.94873 46.7363281 143.538574 46.7363281 145.09082 48.4545898 145.09082 51.3183594L145.09082 51.9824219 138.749023 51.9824219 138.749023 52.090332C138.798828 53.6010742 139.67041 54.5473633 141.023438 54.5473633 142.044434 54.5473633 142.75 54.1738281 143.048828 53.5014648zM146.950195 49.5170898C146.950195 50.8867188 147.771973 51.6918945 149.515137 52.090332L151.125488 52.4638672C151.98877 52.6547852 152.378906 52.9785156 152.378906 53.4931641 152.378906 54.1655273 151.656738 54.6220703 150.619141 54.6220703 149.589844 54.6220703 148.950684 54.2236328 148.751465 53.5512695L146.717773 53.5512695C146.875488 55.203125 148.303223 56.1826172 150.569336 56.1826172 152.835449 56.1826172 154.4375 55.0205078 154.4375 53.2773438 154.4375 51.940918 153.632324 51.1938477 151.897461 50.8037109L150.29541 50.4384766C149.382324 50.230957 148.950684 49.9155273 148.950684 49.4008789 148.950684 48.7451172 149.65625 48.296875 150.594238 48.296875 151.557129 48.296875 152.163086 48.7036133 152.3125 49.3427734L154.246582 49.3427734C154.097168 47.690918 152.744141 46.7363281 150.585938 46.7363281 148.444336 46.7363281 146.950195 47.8735352 146.950195 49.5170898zM89.3134766 92L88.1098633 88.5717773 83.3452148 88.5717773 82.1416016 92 80.5727539 92 84.9887695 80.0219727 86.4663086 80.0219727 90.8823242 92 89.3134766 92zM85.6611328 81.9560547L83.7851562 87.3017578 87.6699219 87.3017578 85.7939453 81.9560547 85.6611328 81.9560547zM92.8828125 92L94.3105469 92 94.3105469 79.4990234 92.8828125 79.4990234 92.8828125 92zM108.338867 83.0517578L106.902832 83.0517578 105.143066 90.2070312 105.010254 90.2070312 103.009766 83.0517578 101.640137 83.0517578 99.6396484 90.2070312 99.5068359 90.2070312 97.7470703 83.0517578 96.3027344 83.0517578 98.8095703 92 100.253906 92 102.246094 85.0771484 102.378906 85.0771484 104.379395 92 105.832031 92 108.338867 83.0517578zM112.754883 90.9042969C114.224121 90.9042969 115.311523 89.9414062 115.311523 88.6630859L115.311523 87.8413086 112.904297 87.9990234C111.542969 88.090332 110.945312 88.5634766 110.945312 89.4599609 110.945312 90.3730469 111.717285 90.9042969 112.754883 90.9042969zM112.489258 92.1577148C110.754395 92.1577148 109.467773 91.128418 109.467773 89.4931641 109.467773 87.8911133 110.646484 86.9697266 112.72998 86.8452148L115.311523 86.6875 115.311523 85.8740234C115.311523 84.7700195 114.622559 84.1640625 113.286133 84.1640625 112.215332 84.1640625 111.468262 84.5708008 111.269043 85.2763672L109.824707 85.2763672C110.015625 83.840332 111.426758 82.894043 113.335938 82.894043 115.519043 82.894043 116.739258 84.0146484 116.739258 85.8740234L116.739258 92 115.37793 92 115.37793 90.6801758 115.245117 90.6801758C114.664062 91.6347656 113.68457 92.1577148 112.489258 92.1577148zM119.810547 95.2373047C121.395996 95.2373047 122.109863 94.6230469 122.873535 92.5478516L126.368164 83.0517578 124.849121 83.0517578 122.400391 90.4145508 122.267578 90.4145508 119.810547 83.0517578 118.266602 83.0517578 121.578613 92.0083008 121.412598 92.5395508C121.039062 93.6186523 120.59082 94.0087891 119.769043 94.0087891 119.569824 94.0087891 119.345703 94.0004883 119.171387 93.9672852L119.171387 95.1875C119.370605 95.2207031 119.619629 95.2373047 119.810547 95.2373047zM127.820801 85.5004883C127.820801 86.7954102 128.584473 87.5175781 130.26123 87.9243164L131.796875 88.2978516C132.751465 88.5302734 133.216309 88.9453125 133.216309 89.5595703 133.216309 90.3813477 132.353027 90.9541016 131.149414 90.9541016 130.003906 90.9541016 129.290039 90.4726562 129.049316 89.7172852L127.580078 89.7172852C127.737793 91.203125 129.107422 92.1577148 131.099609 92.1577148 133.133301 92.1577148 134.685547 91.0537109 134.685547 89.4516602 134.685547 88.1650391 133.87207 87.4345703 132.187012 87.027832L130.809082 86.6958008C129.754883 86.4384766 129.256836 86.0566406 129.256836 85.4423828 129.256836 84.6455078 130.086914 84.105957 131.149414 84.105957 132.228516 84.105957 132.925781 84.5791016 133.116699 85.2929688L134.527832 85.2929688C134.336914 83.8237305 133.033691 82.894043 131.157715 82.894043 129.256836 82.894043 127.820801 84.0146484 127.820801 85.5004883zM86.565918 115.739746C89.9692383 115.739746 92.0444336 118.163574 92.0444336 122.006836 92.0444336 125.833496 89.9858398 128.282227 86.565918 128.282227 83.1293945 128.282227 81.0625 125.841797 81.0625 122.006836 81.0625 118.155273 83.1791992 115.739746 86.565918 115.739746zM86.565918 117.117676C84.1254883 117.117676 82.5981445 119.010254 82.5981445 122.006836 82.5981445 124.978516 84.0756836 126.904297 86.565918 126.904297 89.0229492 126.904297 90.5087891 124.978516 90.5087891 122.006836 90.5087891 119.010254 89.0146484 117.117676 86.565918 117.117676zM94.4516602 128L95.8793945 128 95.8793945 122.704102C95.8793945 121.135254 96.8007812 120.180664 98.2285156 120.180664 99.65625 120.180664 100.336914 120.944336 100.336914 122.554688L100.336914 128 101.764648 128 101.764648 122.206055C101.764648 120.081055 100.644043 118.894043 98.6352539 118.894043 97.265625 118.894043 96.394043 119.475098 95.9458008 120.462891L95.8129883 120.462891 95.8129883 119.051758 94.4516602 119.051758 94.4516602 128zM104.454102 128L105.881836 128 105.881836 115.499023 104.454102 115.499023 104.454102 128zM109.417969 131.237305C111.003418 131.237305 111.717285 130.623047 112.480957 128.547852L115.975586 119.051758 114.456543 119.051758 112.007812 126.414551 111.875 126.414551 109.417969 119.051758 107.874023 119.051758 111.186035 128.008301 111.02002 128.539551C110.646484 129.618652 110.198242 130.008789 109.376465 130.008789 109.177246 130.008789 108.953125 130.000488 108.778809 129.967285L108.778809 131.1875C108.978027 131.220703 109.227051 131.237305 109.417969 131.237305zM126.359863 128.157715C123.811523 128.157715 122.234375 126.397949 122.234375 123.525879 122.234375 120.645508 123.811523 118.894043 126.359863 118.894043 128.908203 118.894043 130.485352 120.645508 130.485352 123.525879 130.485352 126.397949 128.908203 128.157715 126.359863 128.157715zM126.359863 126.871094C128.053223 126.871094 129.007812 125.642578 129.007812 123.525879 129.007812 121.400879 128.053223 120.180664 126.359863 120.180664 124.666504 120.180664 123.711914 121.400879 123.711914 123.525879 123.711914 125.642578 124.666504 126.871094 126.359863 126.871094zM139.699219 119.051758L138.171875 119.051758 135.723145 126.422852 135.590332 126.422852 133.141602 119.051758 131.614258 119.051758 134.92627 128 136.387207 128 139.699219 119.051758zM144.845703 120.155762C143.417969 120.155762 142.421875 121.20166 142.313965 122.787109L147.244629 122.787109C147.211426 121.20166 146.265137 120.155762 144.845703 120.155762zM147.203125 125.684082L148.630859 125.684082C148.199219 127.219727 146.821289 128.157715 144.862305 128.157715 142.380371 128.157715 140.828125 126.364746 140.828125 123.53418 140.828125 120.720215 142.405273 118.894043 144.862305 118.894043 147.277832 118.894043 148.74707 120.612305 148.74707 123.393066L148.74707 123.940918 142.313965 123.940918 142.313965 124.007324C142.388672 125.775391 143.376465 126.895996 144.895508 126.895996 146.049316 126.895996 146.82959 126.472656 147.203125 125.684082zM150.988281 128L152.416016 128 152.416016 122.455078C152.416016 121.193359 153.403809 120.280273 154.765137 120.280273 155.047363 120.280273 155.562012 120.330078 155.678223 120.363281L155.678223 118.935547C155.495605 118.910645 155.196777 118.894043 154.964355 118.894043 153.777344 118.894043 152.748047 119.508301 152.482422 120.379883L152.349609 120.379883 152.349609 119.051758 150.988281 119.051758 150.988281 128zM169.092285 118.54541L169.191895 118.54541 171.947754 128 173.358887 128 176.621094 116.021973 175.060547 116.021973 172.678223 125.758789 172.578613 125.758789 169.897461 116.021973 168.386719 116.021973 165.705566 125.758789 165.605957 125.758789 163.223633 116.021973 161.663086 116.021973 164.925293 128 166.336426 128 169.092285 118.54541zM178.746094 128L180.173828 128 180.173828 119.051758 178.746094 119.051758 178.746094 128zM179.459961 117.233887C180.007812 117.233887 180.456055 116.785645 180.456055 116.237793 180.456055 115.689941 180.007812 115.241699 179.459961 115.241699 178.912109 115.241699 178.463867 115.689941 178.463867 116.237793 178.463867 116.785645 178.912109 117.233887 179.459961 117.233887zM188.283691 123.85791L188.283691 122.504883 182.838379 122.504883 182.838379 123.85791 188.283691 123.85791zM192.591797 128L192.591797 122.812012 197.895996 122.812012 197.895996 121.483887 192.591797 121.483887 192.591797 117.366699 198.369141 117.366699 198.369141 116.021973 191.097656 116.021973 191.097656 128 192.591797 128zM200.676758 128L202.104492 128 202.104492 119.051758 200.676758 119.051758 200.676758 128zM201.390625 117.233887C201.938477 117.233887 202.386719 116.785645 202.386719 116.237793 202.386719 115.689941 201.938477 115.241699 201.390625 115.241699 200.842773 115.241699 200.394531 115.689941 200.394531 116.237793 200.394531 116.785645 200.842773 117.233887 201.390625 117.233887zM83.0048828 162L83.0048828 152.711426 83.1376953 152.711426 89.637207 162 91.0898438 162 91.0898438 150.021973 89.6123047 150.021973 89.6123047 159.34375 89.4794922 159.34375 82.9799805 150.021973 81.5273438 150.021973 81.5273438 162 83.0048828 162zM97.53125 154.155762C96.1035156 154.155762 95.1074219 155.20166 94.9995117 156.787109L99.9301758 156.787109C99.8969727 155.20166 98.9506836 154.155762 97.53125 154.155762zM99.8886719 159.684082L101.316406 159.684082C100.884766 161.219727 99.5068359 162.157715 97.5478516 162.157715 95.065918 162.157715 93.5136719 160.364746 93.5136719 157.53418 93.5136719 154.720215 95.0908203 152.894043 97.5478516 152.894043 99.9633789 152.894043 101.432617 154.612305 101.432617 157.393066L101.432617 157.940918 94.9995117 157.940918 94.9995117 158.007324C95.0742188 159.775391 96.0620117 160.895996 97.5810547 160.895996 98.7348633 160.895996 99.5151367 160.472656 99.8886719 159.684082zM110.8125 153.051758L109.285156 153.051758 106.836426 160.422852 106.703613 160.422852 104.254883 153.051758 102.727539 153.051758 106.039551 162 107.500488 162 110.8125 153.051758zM115.958984 154.155762C114.53125 154.155762 113.535156 155.20166 113.427246 156.787109L118.35791 156.787109C118.324707 155.20166 117.378418 154.155762 115.958984 154.155762zM118.316406 159.684082L119.744141 159.684082C119.3125 161.219727 117.93457 162.157715 115.975586 162.157715 113.493652 162.157715 111.941406 160.364746 111.941406 157.53418 111.941406 154.720215 113.518555 152.894043 115.975586 152.894043 118.391113 152.894043 119.860352 154.612305 119.860352 157.393066L119.860352 157.940918 113.427246 157.940918 113.427246 158.007324C113.501953 159.775391 114.489746 160.895996 116.008789 160.895996 117.162598 160.895996 117.942871 160.472656 118.316406 159.684082zM122.101562 162L123.529297 162 123.529297 156.455078C123.529297 155.193359 124.51709 154.280273 125.878418 154.280273 126.160645 154.280273 126.675293 154.330078 126.791504 154.363281L126.791504 152.935547C126.608887 152.910645 126.310059 152.894043 126.077637 152.894043 124.890625 152.894043 123.861328 153.508301 123.595703 154.379883L123.462891 154.379883 123.462891 153.051758 122.101562 153.051758 122.101562 162z"/>
    <circle cx="56" cy="87" r="11" stroke="#0A84FF" stroke-width="4"/>
    <circle cx="56" cy="121" r="11" stroke="#0A84FF" stroke-width="4"/>
    <circle cx="56" cy="121" r="6" fill="#0A84FF"/>
    <circle cx="56" cy="155" r="11" stroke="#0A84FF" stroke-width="4"/>
  </g>
</svg>
