<svg xmlns="http://www.w3.org/2000/svg" xmlns:xlink="http://www.w3.org/1999/xlink" style="background:#f9f9fa" viewBox="0 0 764 360"><defs><circle id="a" cx="10" cy="10" r="10"/><circle id="b" cx="10" cy="10" r="10"/><circle id="c" cx="10" cy="10" r="10"/><rect id="d" width="150" height="30"/><rect id="e" width="150" height="30"/></defs><g fill="none" fill-rule="evenodd"><path fill="#0C0C0D" d="M87.84 283h-1.5l-5.41-8.37a3.5 3.5 0 0 1-.34-.66h-.04c.04.22.06.7.06 1.44V283h-1.23v-10.5h1.6l5.25 8.24.43.7h.03c-.05-.3-.08-.82-.08-1.55v-7.4h1.23V283zm8.62-3.45h-5.3c.03.84.25 1.48.68 1.93.43.46 1.02.69 1.78.69.84 0 1.62-.28 2.32-.84v1.13c-.65.48-1.53.72-2.61.72-1.06 0-1.9-.34-2.5-1.03-.6-.68-.9-1.64-.9-2.87a4.1 4.1 0 0 1 .99-2.85 3.18 3.18 0 0 1 2.46-1.1c.98 0 1.74.31 2.28.95.54.63.8 1.51.8 2.64v.63zm-1.23-1.02c0-.7-.17-1.23-.5-1.62a1.7 1.7 0 0 0-1.37-.58c-.57 0-1.05.2-1.44.61-.4.4-.64.94-.74 1.6h4.05zm8.95-3.03l-3 7.5h-1.17l-2.84-7.5h1.32l1.9 5.45c.14.4.23.75.26 1.05h.03c.05-.38.13-.72.24-1.02l1.99-5.48h1.27zm7.31 4.05h-5.3c.03.84.25 1.48.68 1.93.43.46 1.02.69 1.77.69.85 0 1.63-.28 2.33-.84v1.13c-.66.48-1.53.72-2.61.72-1.06 0-1.9-.34-2.5-1.03-.6-.68-.9-1.64-.9-2.87a4.1 4.1 0 0 1 .99-2.85 3.18 3.18 0 0 1 2.46-1.1c.98 0 1.74.31 2.28.95.54.63.8 1.51.8 2.64v.63zm-1.23-1.02c0-.7-.17-1.23-.5-1.62a1.7 1.7 0 0 0-1.37-.58c-.57 0-1.05.2-1.44.61-.4.4-.64.94-.74 1.6h4.05zm6.96-1.81a1.47 1.47 0 0 0-.9-.25c-.52 0-.95.25-1.3.73a3.35 3.35 0 0 0-.5 1.98V283h-1.21v-7.5h1.2v1.55h.03c.17-.53.43-.94.78-1.24.36-.3.75-.44 1.18-.44.32 0 .56.03.72.1v1.25zm-33.61-27.54c-1.49 0-2.68-.5-3.58-1.48a5.46 5.46 0 0 1-1.34-3.83c0-1.69.46-3.03 1.37-4.04.91-1 2.15-1.5 3.73-1.5a4.5 4.5 0 0 1 3.5 1.46 5.48 5.48 0 0 1 1.33 3.83 5.8 5.8 0 0 1-1.36 4.06 4.7 4.7 0 0 1-3.65 1.5zm.09-9.75c-1.1 0-2 .4-2.69 1.2a4.62 4.62 0 0 0-1.03 3.13c0 1.3.33 2.34 1 3.13a3.28 3.28 0 0 0 2.63 1.18c1.15 0 2.06-.38 2.72-1.13.67-.75 1-1.8 1-3.15 0-1.4-.32-2.46-.97-3.22a3.32 3.32 0 0 0-2.66-1.14zM96.75 249h-1.2v-4.28c0-1.59-.58-2.39-1.74-2.39-.6 0-1.1.23-1.5.68-.39.45-.58 1.02-.58 1.71V249h-1.2v-7.5h1.2v1.25h.02a2.7 2.7 0 0 1 2.47-1.43c.82 0 1.44.27 1.88.8.43.53.65 1.3.65 2.3V249zm3.46 0h-1.2v-11.1h1.2V249zm8.4-7.5l-3.44 8.7c-.62 1.55-1.48 2.33-2.6 2.33-.31 0-.57-.03-.78-.1v-1.07c.26.09.5.13.71.13.6 0 1.06-.36 1.36-1.08l.6-1.42-2.93-7.49h1.34l2.02 5.77.16.57h.04l.15-.55 2.13-5.79h1.25zm6.02-1.9a.76.76 0 0 1-.78-.78c0-.23.08-.41.23-.56a.75.75 0 0 1 .55-.22.78.78 0 0 1 .79.78c0 .21-.08.4-.23.55a.77.77 0 0 1-.56.23zm.58 9.4h-1.2v-7.5h1.2v7.5zm8.66 0h-1.2v-4.28c0-1.59-.58-2.39-1.74-2.39-.6 0-1.1.23-1.5.68-.39.45-.58 1.02-.58 1.71V249h-1.2v-7.5h1.2v1.25h.03a2.7 2.7 0 0 1 2.46-1.43c.82 0 1.45.27 1.88.8.43.53.65 1.3.65 2.3V249zm7.6-1.08h-.03v4.53h-1.2V241.5h1.2v1.32h.03c.6-1 1.46-1.5 2.6-1.5.96 0 1.72.34 2.26 1.01.54.67.81 1.57.81 2.7 0 1.26-.3 2.26-.91 3.01a3.05 3.05 0 0 1-2.5 1.14 2.5 2.5 0 0 1-2.26-1.26zm-.03-3.03v1.05c0 .62.2 1.14.6 1.58a2 2 0 0 0 1.54.65c.73 0 1.3-.28 1.71-.84.42-.56.62-1.33.62-2.32 0-.84-.19-1.5-.58-1.96-.38-.48-.9-.72-1.56-.72-.7 0-1.26.25-1.69.73-.42.49-.64 1.1-.64 1.83zm11.53-2.17a1.47 1.47 0 0 0-.9-.25c-.52 0-.95.25-1.29.73a3.35 3.35 0 0 0-.52 1.98V249h-1.2v-7.5h1.2v1.55h.03c.17-.53.43-.94.79-1.24.35-.3.74-.44 1.18-.44.3 0 .55.03.71.1v1.25zm1.92-3.12a.76.76 0 0 1-.77-.78.75.75 0 0 1 .78-.78.78.78 0 0 1 .78.78c0 .21-.07.4-.23.55a.77.77 0 0 1-.56.23zm.59 9.4h-1.2v-7.5h1.2v7.5zm8.33-7.5l-3 7.5h-1.17l-2.84-7.5h1.31l1.9 5.45c.15.4.24.75.27 1.05h.03c.05-.38.13-.72.24-1.02l1.99-5.48h1.27zm6.65 7.5h-1.2v-1.17h-.03c-.52.9-1.29 1.35-2.3 1.35-.75 0-1.34-.2-1.76-.6-.42-.4-.63-.92-.63-1.57 0-1.4.82-2.22 2.47-2.45l2.25-.31c0-1.28-.51-1.92-1.54-1.92-.9 0-1.72.31-2.45.93v-1.23c.74-.47 1.59-.7 2.55-.7 1.76 0 2.64.93 2.64 2.8V249zm-1.2-3.8l-1.8.26c-.56.07-.98.21-1.27.4-.28.2-.42.56-.42 1.06 0 .37.13.67.39.9.26.23.61.35 1.04.35.6 0 1.1-.21 1.48-.63.39-.42.58-.95.58-1.59v-.74zm6.95 3.73c-.29.15-.66.23-1.13.23-1.3 0-1.97-.73-1.97-2.2v-4.43h-1.28v-1.03h1.28v-1.83l1.2-.39v2.22h1.9v1.03h-1.9v4.22c0 .5.1.86.26 1.08.17.21.46.32.85.32.3 0 .57-.08.79-.25v1.03zm7.63-3.38h-5.3c.02.84.25 1.48.68 1.93.43.46 1.02.69 1.77.69.84 0 1.62-.28 2.33-.84v1.13c-.66.48-1.53.72-2.62.72-1.06 0-1.89-.34-2.5-1.03-.6-.68-.9-1.64-.9-2.87a4.1 4.1 0 0 1 .99-2.85 3.18 3.18 0 0 1 2.46-1.1c.99 0 1.74.31 2.28.95.54.63.8 1.51.8 2.64v.63zm-1.23-1.02c0-.7-.18-1.23-.5-1.62a1.7 1.7 0 0 0-1.38-.58c-.56 0-1.05.2-1.44.61-.4.4-.64.94-.73 1.6h4.05zm16.6-3.03l-2.25 7.5h-1.24l-1.55-5.37a3.5 3.5 0 0 1-.12-.7h-.02c-.02.18-.07.4-.16.69L182.2 249H181l-2.27-7.5h1.26l1.56 5.64c.04.17.08.4.1.67h.06c.01-.21.05-.44.13-.69l1.73-5.62h1.1l1.55 5.65c.05.18.08.41.1.68h.07c0-.2.05-.42.12-.68l1.52-5.65h1.2zm2-1.9a.76.76 0 0 1-.77-.78c0-.23.08-.41.23-.56a.75.75 0 0 1 .55-.22.78.78 0 0 1 .79.78c0 .21-.08.4-.23.55a.77.77 0 0 1-.56.23zm.6 9.4h-1.2v-7.5h1.2v7.5zm8.65 0h-1.2v-4.28c0-1.59-.58-2.39-1.74-2.39-.6 0-1.1.23-1.5.68-.39.45-.58 1.02-.58 1.71V249h-1.2v-7.5h1.2v1.25h.03a2.7 2.7 0 0 1 2.46-1.43c.82 0 1.44.27 1.88.8.43.53.65 1.3.65 2.3V249zm8.67 0h-1.2v-1.27h-.03a2.77 2.77 0 0 1-2.58 1.45 2.8 2.8 0 0 1-2.26-1.01 4.13 4.13 0 0 1-.85-2.74c0-1.24.31-2.24.94-2.99a3.1 3.1 0 0 1 2.5-1.12c1.03 0 1.78.4 2.25 1.22h.02v-4.64h1.2V249zm-1.2-3.4v-1.1c0-.6-.2-1.12-.6-1.54-.4-.42-.91-.63-1.53-.63-.73 0-1.3.27-1.73.81a3.53 3.53 0 0 0-.63 2.23c0 .86.2 1.54.6 2.04.4.5.95.76 1.63.76.67 0 1.21-.25 1.63-.73.42-.48.62-1.1.62-1.83zm6.76 3.58c-1.1 0-2-.35-2.65-1.06a3.9 3.9 0 0 1-1-2.78c0-1.26.35-2.25 1.04-2.95a3.71 3.71 0 0 1 2.79-1.07c1.12 0 1.99.35 2.62 1.04.62.69.94 1.64.94 2.86 0 1.2-.34 2.16-1.02 2.88a3.55 3.55 0 0 1-2.72 1.08zm.09-6.85c-.77 0-1.38.27-1.83.8a3.23 3.23 0 0 0-.68 2.16c0 .9.23 1.6.69 2.1.45.52 1.06.78 1.82.78a2.2 2.2 0 0 0 1.8-.76c.4-.5.62-1.22.62-2.15 0-.93-.21-1.66-.63-2.16a2.19 2.19 0 0 0-1.79-.77zm15.01-.83l-2.24 7.5h-1.25l-1.54-5.37a3.5 3.5 0 0 1-.12-.7h-.03c-.02.18-.07.4-.15.69l-1.68 5.38h-1.2l-2.27-7.5h1.26l1.55 5.64c.05.17.08.4.1.67h.06c.01-.21.06-.44.13-.69l1.73-5.62h1.1l1.55 5.65c.05.18.09.41.11.68h.06c.01-.2.05-.42.12-.68l1.53-5.65h1.18zm.94 7.23v-1.29c.66.48 1.38.73 2.16.73 1.06 0 1.58-.36 1.58-1.06 0-.2-.04-.37-.13-.5a1.35 1.35 0 0 0-.37-.38c-.15-.1-.33-.2-.54-.29l-.67-.27a8.63 8.63 0 0 1-.87-.4 2.64 2.64 0 0 1-.63-.45c-.17-.17-.3-.36-.39-.57a2.03 2.03 0 0 1-.12-.76c0-.35.08-.66.24-.93.16-.27.37-.5.64-.68a3 3 0 0 1 .92-.42 4.3 4.3 0 0 1 2.8.2l.01 1.22a3.4 3.4 0 0 0-2.51-.47c-.18.05-.34.13-.47.22a1 1 0 0 0-.3.33.88.88 0 0 0-.1.43c0 .2.03.36.1.49s.18.25.31.35c.14.1.3.2.5.28l.67.27c.33.13.63.26.9.4.26.13.48.28.67.45.18.17.32.36.42.58.1.22.16.48.16.78 0 .37-.09.7-.25.97s-.38.5-.66.68a3 3 0 0 1-.94.4c-.36.1-.73.14-1.12.14-.77 0-1.44-.15-2-.45zM87.51 215h-1.37l-1.1-2.94h-4.46L79.53 215h-1.37l4.03-10.5h1.27l4.05 10.5zm-2.88-4.05l-1.65-4.48c-.05-.14-.1-.38-.16-.7h-.03c-.05.3-.1.53-.17.7L81 210.95h3.64zm5.46 4.05h-1.2v-11.1h1.2V215zm11.88-7.5l-2.25 7.5h-1.24l-1.55-5.37a3.5 3.5 0 0 1-.11-.7h-.03c-.02.18-.07.4-.16.69L94.96 215h-1.2l-2.28-7.5h1.26l1.56 5.64c.05.17.08.4.1.67h.06c.01-.21.06-.44.13-.69l1.73-5.62h1.1l1.55 5.65c.05.18.08.41.1.68h.07c0-.2.05-.42.12-.68l1.53-5.65h1.18zm6.76 7.5h-1.2v-1.17h-.03c-.52.9-1.29 1.35-2.3 1.35-.75 0-1.34-.2-1.76-.6-.42-.4-.63-.92-.63-1.57 0-1.4.82-2.22 2.47-2.45l2.25-.31c0-1.28-.51-1.92-1.54-1.92-.9 0-1.72.31-2.45.93v-1.23c.74-.47 1.59-.7 2.55-.7 1.76 0 2.64.93 2.64 2.8V215zm-1.2-3.8l-1.8.26c-.56.07-.98.21-1.27.4-.28.2-.42.56-.42 1.06 0 .37.13.67.39.9.26.23.6.35 1.04.35.6 0 1.1-.21 1.48-.63.39-.42.58-.95.58-1.59v-.74zm9.43-3.7l-3.44 8.7c-.62 1.55-1.48 2.33-2.6 2.33-.31 0-.57-.03-.78-.1v-1.07c.26.09.5.13.7.13.61 0 1.07-.36 1.37-1.08l.6-1.42-2.93-7.49h1.34l2.02 5.77.16.57h.04l.15-.55 2.13-5.79h1.24zm.84 7.23v-1.29c.65.48 1.37.73 2.16.73 1.06 0 1.58-.36 1.58-1.06 0-.2-.04-.37-.13-.5a1.35 1.35 0 0 0-.37-.38c-.15-.1-.33-.2-.54-.29l-.67-.27a8.63 8.63 0 0 1-.88-.4 2.64 2.64 0 0 1-.63-.45c-.16-.17-.3-.36-.38-.57a2.03 2.03 0 0 1-.13-.76c0-.35.09-.66.25-.93s.37-.5.64-.68a3 3 0 0 1 .92-.42 4.3 4.3 0 0 1 2.8.2v1.22a3.4 3.4 0 0 0-2.5-.47c-.18.05-.34.13-.47.22a1 1 0 0 0-.3.33.88.88 0 0 0-.1.43c0 .2.03.36.1.49s.18.25.31.35c.14.1.3.2.5.28l.67.27c.33.13.63.26.9.4.25.13.48.28.66.45.19.17.33.36.43.58.1.22.15.48.15.78 0 .37-.08.7-.24.97-.17.27-.38.5-.66.68a3 3 0 0 1-.94.4c-.36.1-.73.14-1.12.14-.77 0-1.44-.15-2.01-.45z"/><g transform="translate(50 268)"><use fill="#FFFFFF" xlink:href="#a"/><circle cx="10" cy="10" r="9.5" stroke="#0C0C0D" stroke-opacity=".3"/></g><g transform="translate(50 234)"><use fill="#FFFFFF" xlink:href="#b"/><circle cx="10" cy="10" r="9.5" stroke="#0C0C0D" stroke-opacity=".3"/><circle cx="10" cy="10" r="6" fill="#0A84FF"/></g><g transform="translate(50 200)"><use fill="#FFFFFF" xlink:href="#c"/><circle cx="10" cy="10" r="9.5" stroke="#0C0C0D" stroke-opacity=".3"/></g><g transform="translate(564 157)"><use fill="#FFFFFF" xlink:href="#d"/><rect width="149" height="29" x=".5" y=".5" stroke="#0C0C0D" stroke-opacity=".3"/><path fill="#0C0C0D" d="M41.85 20H36.3V9.5h5.33v1.11h-4.1v3.5h3.8v1.1h-3.8v3.68h4.33V20zm7.34-7.5l-2.52 3.8 2.48 3.7h-1.4l-1.47-2.43c-.1-.15-.2-.34-.33-.57h-.03l-.35.57-1.5 2.43H42.7l2.56-3.68-2.45-3.82h1.4l1.45 2.56.31.59H46l1.88-3.15h1.32zm6.52 7.16a3.9 3.9 0 0 1-2.05.52 3.4 3.4 0 0 1-2.59-1.05c-.65-.7-.98-1.6-.98-2.7 0-1.24.35-2.23 1.06-2.98a3.72 3.72 0 0 1 2.83-1.13c.66 0 1.24.13 1.75.37v1.23a3.05 3.05 0 0 0-1.8-.59c-.76 0-1.39.28-1.88.83-.49.55-.73 1.27-.73 2.16 0 .88.23 1.58.69 2.08.46.51 1.08.77 1.86.77.65 0 1.27-.22 1.84-.66v1.15zm6.62-4.13c0-.7-.18-1.23-.5-1.62a1.7 1.7 0 0 0-1.38-.58c-.57 0-1.05.2-1.44.61-.4.4-.64.94-.73 1.6h4.05zm1.23 1.02h-5.3c.02.84.24 1.48.67 1.93.43.46 1.02.69 1.78.69.84 0 1.62-.28 2.33-.84v1.13c-.66.48-1.53.72-2.62.72-1.06 0-1.9-.34-2.5-1.03-.6-.68-.9-1.64-.9-2.87a4.1 4.1 0 0 1 .99-2.85 3.18 3.18 0 0 1 2.46-1.1c.98 0 1.74.31 2.28.95.54.63.8 1.51.8 2.64v.63zm3.04 2.37h-.03v4.53h-1.2V12.5h1.2v1.32h.03c.6-1 1.46-1.5 2.6-1.5.96 0 1.72.34 2.26 1.01.54.67.81 1.57.81 2.7 0 1.26-.3 2.26-.91 3.01a3.05 3.05 0 0 1-2.5 1.14 2.5 2.5 0 0 1-2.26-1.26zm-.03-3.03v1.05c0 .62.2 1.14.6 1.58a2 2 0 0 0 1.54.65c.73 0 1.3-.28 1.71-.84.41-.56.62-1.33.62-2.32 0-.84-.2-1.5-.58-1.96-.38-.48-.9-.72-1.56-.72-.7 0-1.26.25-1.69.73-.42.49-.64 1.1-.64 1.83zm11.1 4.04c-.28.15-.66.23-1.12.23-1.31 0-1.97-.73-1.97-2.2v-4.43h-1.29V12.5h1.29v-1.83l1.2-.39v2.22h1.89v1.03h-1.89v4.22c0 .5.09.86.26 1.08.17.21.45.32.85.32.3 0 .56-.08.78-.25v1.03zm2.22-9.33a.76.76 0 0 1-.78-.78c0-.23.08-.41.23-.56a.75.75 0 0 1 .55-.22.78.78 0 0 1 .79.78c0 .21-.08.4-.23.55a.77.77 0 0 1-.56.23zm.58 9.4h-1.2v-7.5h1.2V20zm5.57.18c-1.1 0-2-.35-2.65-1.06a3.9 3.9 0 0 1-1-2.78c0-1.26.35-2.25 1.04-2.95a3.71 3.71 0 0 1 2.79-1.07c1.12 0 1.99.35 2.62 1.04.62.69.94 1.64.94 2.86 0 1.2-.34 2.16-1.02 2.88a3.55 3.55 0 0 1-2.72 1.08zm.09-6.85c-.77 0-1.38.27-1.83.8a3.23 3.23 0 0 0-.68 2.16c0 .9.23 1.6.69 2.1.45.52 1.06.78 1.82.78a2.2 2.2 0 0 0 1.79-.76c.42-.5.63-1.22.63-2.15 0-.93-.21-1.66-.63-2.16a2.19 2.19 0 0 0-1.8-.77zM97.93 20h-1.21v-4.28c0-1.59-.58-2.39-1.74-2.39-.6 0-1.1.23-1.5.68-.39.45-.58 1.02-.58 1.71V20h-1.2v-7.5h1.2v1.25h.03a2.7 2.7 0 0 1 2.46-1.43c.82 0 1.44.27 1.88.8.43.53.65 1.3.65 2.3V20zm1.8-.27v-1.29c.65.48 1.37.73 2.16.73 1.06 0 1.58-.36 1.58-1.06 0-.2-.04-.37-.13-.5a1.35 1.35 0 0 0-.37-.38c-.15-.1-.33-.2-.54-.29l-.67-.27a8.63 8.63 0 0 1-.88-.4 2.64 2.64 0 0 1-.63-.45c-.16-.17-.3-.36-.38-.57a2.03 2.03 0 0 1-.13-.76c0-.35.09-.66.25-.93s.37-.5.64-.68a3 3 0 0 1 .92-.42 4.3 4.3 0 0 1 2.8.2v1.22a3.4 3.4 0 0 0-2.5-.47c-.18.05-.34.13-.47.22a1 1 0 0 0-.3.33.88.88 0 0 0-.1.43c0 .2.03.36.1.49s.18.25.31.35c.14.1.3.2.5.28l.67.27c.33.13.63.26.9.4.25.13.48.28.66.45.19.17.33.36.43.58.1.22.15.48.15.78 0 .37-.08.7-.24.97-.17.27-.38.5-.66.68a3 3 0 0 1-.94.4c-.36.1-.73.14-1.12.14-.77 0-1.44-.15-2.01-.45zm7.24.43a.78.78 0 0 1-.58-.24.8.8 0 0 1-.24-.58.8.8 0 0 1 .24-.58.77.77 0 0 1 .58-.25.8.8 0 0 1 .58.25.8.8 0 0 1 .24.58c0 .23-.08.42-.24.58a.8.8 0 0 1-.58.24zm3.25 0a.78.78 0 0 1-.58-.24.8.8 0 0 1-.23-.58.8.8 0 0 1 .23-.58.77.77 0 0 1 .58-.25.8.8 0 0 1 .58.25.8.8 0 0 1 .25.58c0 .23-.08.42-.25.58a.8.8 0 0 1-.58.24zm3.25 0a.78.78 0 0 1-.57-.24.8.8 0 0 1-.24-.58.8.8 0 0 1 .24-.58.77.77 0 0 1 .57-.25.8.8 0 0 1 .59.25.8.8 0 0 1 .24.58c0 .23-.08.42-.24.58a.8.8 0 0 1-.59.24z"/></g><g transform="translate(564 195)"><use fill="#FFFFFF" xlink:href="#e"/><rect width="149" height="29" x=".5" y=".5" stroke="#0C0C0D" stroke-opacity=".3"/><path fill="#0C0C0D" d="M19.86 19.56c-.78.41-1.74.62-2.9.62-1.5 0-2.7-.49-3.59-1.45a5.32 5.32 0 0 1-1.35-3.78c0-1.68.5-3.04 1.52-4.08a5.15 5.15 0 0 1 3.84-1.55c1 0 1.83.15 2.48.43v1.31a5.02 5.02 0 0 0-2.5-.63c-1.2 0-2.17.4-2.92 1.21a4.55 4.55 0 0 0-1.13 3.23c0 1.28.35 2.3 1.05 3.06.7.76 1.62 1.14 2.76 1.14 1.06 0 1.97-.23 2.74-.7v1.2zm8.2.44h-1.2v-4.32c0-1.56-.58-2.35-1.74-2.35a1.9 1.9 0 0 0-1.48.68c-.4.45-.6 1.03-.6 1.74V20h-1.2V8.9h1.2v4.85h.03a2.73 2.73 0 0 1 2.46-1.43c1.69 0 2.53 1.02 2.53 3.06V20zm7.63 0h-1.2v-1.17h-.03c-.52.9-1.29 1.35-2.3 1.35-.75 0-1.33-.2-1.76-.6-.42-.4-.63-.92-.63-1.57 0-1.4.82-2.22 2.47-2.45l2.25-.31c0-1.28-.51-1.92-1.54-1.92-.9 0-1.72.31-2.45.93v-1.23c.74-.47 1.59-.7 2.55-.7 1.76 0 2.64.93 2.64 2.8V20zm-1.2-3.8l-1.8.26c-.56.07-.98.21-1.27.4-.28.2-.42.56-.42 1.06 0 .37.13.67.4.9.25.23.6.35 1.04.35.6 0 1.08-.21 1.47-.63.39-.42.58-.95.58-1.59v-.74zm9.7 3.8h-1.2v-4.28c0-1.59-.59-2.39-1.75-2.39-.6 0-1.1.23-1.5.68-.38.45-.58 1.02-.58 1.71V20h-1.2v-7.5h1.2v1.25h.03a2.7 2.7 0 0 1 2.46-1.43c.82 0 1.45.27 1.88.8.44.53.65 1.3.65 2.3V20zm8.66-.6c0 2.75-1.32 4.13-3.96 4.13-.92 0-1.74-.18-2.43-.53v-1.2a5 5 0 0 0 2.42.7c1.84 0 2.77-.98 2.77-2.94v-.82h-.03a2.8 2.8 0 0 1-2.58 1.44c-.93 0-1.68-.34-2.25-1a4 4 0 0 1-.86-2.69c0-1.27.31-2.29.92-3.04a3.07 3.07 0 0 1 2.52-1.13c1.01 0 1.76.4 2.25 1.22h.03V12.5h1.2v6.9zm-1.2-2.8v-1.1c0-.6-.2-1.1-.6-1.53-.41-.42-.91-.64-1.51-.64-.74 0-1.33.27-1.75.81-.42.54-.63 1.3-.63 2.27 0 .84.2 1.5.6 2 .41.5.94.76 1.6.76a2.1 2.1 0 0 0 1.65-.72c.43-.48.64-1.1.64-1.84zm9.66-.05H56c.02.84.25 1.48.68 1.93.43.46 1.02.69 1.77.69.84 0 1.62-.28 2.33-.84v1.13c-.66.48-1.53.72-2.62.72-1.06 0-1.89-.34-2.5-1.03-.6-.68-.9-1.64-.9-2.87a4.1 4.1 0 0 1 .99-2.85 3.18 3.18 0 0 1 2.46-1.1c.99 0 1.74.31 2.28.95.54.63.8 1.51.8 2.64v.63zm-1.23-1.02c0-.7-.18-1.23-.5-1.62a1.7 1.7 0 0 0-1.38-.58c-.56 0-1.05.2-1.44.61-.4.4-.64.94-.73 1.6h4.05zM67.39 20V9.5h3c.9 0 1.62.22 2.15.66.53.45.8 1.03.8 1.74 0 .6-.16 1.11-.48 1.55a2.6 2.6 0 0 1-1.34.94v.03c.71.08 1.28.35 1.7.8.43.45.64 1.04.64 1.76 0 .9-.32 1.63-.97 2.19a3.6 3.6 0 0 1-2.43.83h-3.07zm1.23-9.39v3.4h1.26c.68 0 1.2-.17 1.6-.5.38-.32.57-.78.57-1.37 0-1.02-.67-1.53-2.01-1.53h-1.42zm0 4.5v3.78h1.67a2.5 2.5 0 0 0 1.69-.52c.4-.34.6-.8.6-1.4 0-1.24-.85-1.86-2.54-1.86h-1.42zM77.03 20h-1.2V8.9h1.2V20zm5.57.18c-1.11 0-2-.35-2.66-1.06a3.9 3.9 0 0 1-.99-2.78c0-1.26.35-2.25 1.03-2.95a3.71 3.71 0 0 1 2.8-1.07c1.11 0 1.99.35 2.61 1.04.63.69.94 1.64.94 2.86 0 1.2-.33 2.16-1.01 2.88a3.55 3.55 0 0 1-2.72 1.08zm.09-6.85c-.77 0-1.39.27-1.83.8a3.23 3.23 0 0 0-.68 2.16c0 .9.23 1.6.68 2.1.46.52 1.07.78 1.83.78a2.2 2.2 0 0 0 1.79-.76c.42-.5.62-1.22.62-2.15 0-.93-.2-1.66-.62-2.16a2.19 2.19 0 0 0-1.8-.77zm10.68 6.33a3.9 3.9 0 0 1-2.06.52 3.4 3.4 0 0 1-2.58-1.05c-.66-.7-.99-1.6-.99-2.7 0-1.24.35-2.23 1.06-2.98a3.72 3.72 0 0 1 2.84-1.13c.66 0 1.24.13 1.74.37v1.23a3.05 3.05 0 0 0-1.79-.59c-.76 0-1.4.28-1.88.83-.5.55-.74 1.27-.74 2.16 0 .88.23 1.58.7 2.08.45.51 1.07.77 1.85.77.65 0 1.27-.22 1.85-.66v1.15zm8.04.34h-1.69l-3.3-3.6h-.04V20h-1.2V8.9h1.2v7.04h.03l3.15-3.44h1.58l-3.48 3.62L101.4 20zm10.95 0h-5.45V9.5h1.23v9.39h4.22V20zm2.06-9.4a.76.76 0 0 1-.77-.78.75.75 0 0 1 .78-.78.78.78 0 0 1 .78.78c0 .21-.07.4-.23.55a.77.77 0 0 1-.56.23zm.59 9.4h-1.2v-7.5h1.2V20zm1.98-.27v-1.29c.65.48 1.37.73 2.16.73 1.05 0 1.58-.36 1.58-1.06 0-.2-.05-.37-.14-.5a1.35 1.35 0 0 0-.36-.38c-.16-.1-.34-.2-.54-.29l-.68-.27a8.63 8.63 0 0 1-.87-.4 2.64 2.64 0 0 1-.63-.45c-.17-.17-.3-.36-.38-.57a2.03 2.03 0 0 1-.13-.76c0-.35.08-.66.24-.93.16-.27.38-.5.65-.68a3 3 0 0 1 .92-.42 4.3 4.3 0 0 1 2.8.2v1.22a3.4 3.4 0 0 0-2.5-.47c-.19.05-.34.13-.47.22a1 1 0 0 0-.3.33.88.88 0 0 0-.1.43c0 .2.03.36.1.49s.17.25.3.35c.15.1.31.2.5.28l.67.27c.34.13.63.26.9.4.26.13.49.28.67.45.19.17.33.36.43.58.1.22.15.48.15.78 0 .37-.08.7-.25.97-.16.27-.38.5-.65.68a3 3 0 0 1-.95.4c-.35.1-.73.14-1.12.14-.77 0-1.44-.15-2-.45zm10.3.2c-.29.15-.66.23-1.13.23-1.31 0-1.97-.73-1.97-2.2v-4.43h-1.29V12.5h1.3v-1.83l1.2-.39v2.22h1.88v1.03h-1.89v4.22c0 .5.09.86.26 1.08.17.21.45.32.85.32.3 0 .56-.08.78-.25v1.03zm9.55.2a.77.77 0 0 1-.57-.23.78.78 0 0 1-.23-.57c0-.23.08-.42.23-.59a.75.75 0 0 1 .57-.24c.22 0 .41.08.57.24a.8.8 0 0 1 .24.59c0 .22-.08.41-.24.57a.78.78 0 0 1-.57.23zm-3.67 0a.79.79 0 0 1-.58-.23.77.77 0 0 1-.24-.57.8.8 0 0 1 .24-.59.77.77 0 0 1 .58-.24c.22 0 .4.08.56.24a.8.8 0 0 1 .24.59c0 .22-.08.41-.24.57a.78.78 0 0 1-.56.23zm-3.68 0a.79.79 0 0 1-.8-.8c0-.23.08-.42.23-.59a.74.74 0 0 1 .57-.24c.22 0 .4.08.57.24a.8.8 0 0 1 .23.59c0 .22-.07.41-.23.57a.78.78 0 0 1-.57.23z"/></g><path fill="#0A8DFF" d="M388.11 177h-5.81v-10.5h1.74v9.03h4.07V177zm7.68-3.29h-5.11c.01.7.23 1.23.64 1.6.4.38.96.57 1.68.57.8 0 1.53-.24 2.2-.72v1.37c-.68.43-1.59.65-2.7.65s-1.98-.34-2.6-1.03a4.09 4.09 0 0 1-.95-2.87 4 4 0 0 1 1.04-2.85c.7-.74 1.55-1.1 2.57-1.1 1.03 0 1.82.32 2.39.98.56.66.84 1.58.84 2.75v.65zm-1.64-1.2c0-.61-.15-1.08-.44-1.42-.28-.34-.67-.51-1.17-.51-.49 0-.9.17-1.24.53-.34.36-.55.82-.62 1.4h3.47zm9.01 4.49h-1.64v-1.17h-.03a2.48 2.48 0 0 1-2.28 1.35 2.4 2.4 0 0 1-1.73-.6 2.1 2.1 0 0 1-.63-1.6c0-1.41.82-2.24 2.45-2.47l2.22-.31c0-1.07-.5-1.6-1.52-1.6-.9 0-1.7.3-2.42.91v-1.48c.8-.47 1.7-.7 2.74-.7 1.9 0 2.84.93 2.84 2.8V177zm-1.64-3.68l-1.57.22a2.5 2.5 0 0 0-1.1.35c-.25.17-.37.48-.37.91a1 1 0 0 0 .34.78c.22.2.53.3.9.3.53 0 .95-.18 1.3-.54.33-.36.5-.82.5-1.37v-.65zm8.07-2.2a1.4 1.4 0 0 0-.89-.24c-.5 0-.92.22-1.26.68-.34.45-.5 1.07-.5 1.85V177h-1.7v-7.5h1.7v1.55h.02c.17-.53.43-.94.77-1.24.34-.3.73-.44 1.15-.44.31 0 .55.04.7.14v1.6zm7.88 5.88h-1.7v-4.23c0-1.4-.5-2.1-1.49-2.1-.52 0-.94.2-1.28.58-.34.4-.5.88-.5 1.47V177h-1.71v-7.5h1.7v1.25h.03a2.67 2.67 0 0 1 2.44-1.43c.81 0 1.43.27 1.86.8.43.53.65 1.3.65 2.3V177zm17.4 0h-1.7v-4.09c0-.78-.1-1.35-.33-1.7-.22-.36-.6-.53-1.12-.53-.44 0-.82.22-1.13.67-.31.44-.47.97-.47 1.6V177h-1.7v-4.23c0-1.4-.5-2.1-1.48-2.1-.46 0-.84.22-1.13.64-.3.42-.45.96-.45 1.63V177h-1.7v-7.5h1.7v1.19h.03a2.6 2.6 0 0 1 2.37-1.37c.52 0 .97.15 1.36.43.38.29.65.66.8 1.13a2.68 2.68 0 0 1 2.48-1.56c1.65 0 2.48 1.02 2.48 3.06V177zm5.4.18a3.72 3.72 0 0 1-2.77-1.06 3.8 3.8 0 0 1-1.03-2.78c0-1.26.36-2.25 1.08-2.95.72-.71 1.69-1.07 2.9-1.07a3.6 3.6 0 0 1 2.75 1.04c.65.69.98 1.64.98 2.86 0 1.2-.35 2.16-1.06 2.88a3.8 3.8 0 0 1-2.85 1.08zm.09-6.5c-.67 0-1.2.23-1.58.7-.38.46-.58 1.1-.58 1.91 0 .79.2 1.4.59 1.86.39.45.91.68 1.57.68s1.18-.22 1.54-.67c.36-.44.54-1.08.54-1.9a3 3 0 0 0-.54-1.9 1.86 1.86 0 0 0-1.54-.68zm9.9.44a1.4 1.4 0 0 0-.89-.24c-.5 0-.92.22-1.26.68-.34.45-.5 1.07-.5 1.85V177h-1.7v-7.5h1.7v1.55h.03c.16-.53.42-.94.76-1.24.35-.3.73-.44 1.15-.44.31 0 .55.04.7.14v1.6zm7.55 2.6h-5.11c.02.68.23 1.22.64 1.6.4.37.97.56 1.68.56.8 0 1.53-.24 2.2-.72v1.37c-.68.43-1.58.65-2.7.65-1.11 0-1.98-.34-2.6-1.03a4.09 4.09 0 0 1-.94-2.87 4 4 0 0 1 1.03-2.85c.7-.74 1.55-1.1 2.58-1.1 1.02 0 1.82.32 2.38.98.56.66.84 1.58.84 2.75v.65zm-1.64-1.21c0-.61-.15-1.08-.43-1.42-.29-.34-.68-.51-1.18-.51-.48 0-.9.17-1.24.53-.34.36-.55.82-.62 1.4h3.47z"/><path fill="#0C0C0D" d="M59.06 172.75c0 2.95-1.33 4.43-4 4.43-2.54 0-3.81-1.42-3.81-4.26v-6.42h1.23v6.34c0 2.15.9 3.23 2.72 3.23 1.75 0 2.63-1.04 2.63-3.12v-6.45h1.23v6.25zm2 3.98v-1.29c.66.48 1.38.73 2.17.73 1.05 0 1.58-.36 1.58-1.06 0-.2-.05-.37-.14-.5a1.35 1.35 0 0 0-.36-.38c-.16-.1-.34-.2-.54-.29l-.67-.27a8.63 8.63 0 0 1-.88-.4 2.64 2.64 0 0 1-.63-.45c-.17-.17-.3-.36-.38-.57a2.03 2.03 0 0 1-.13-.76c0-.35.08-.66.24-.93.16-.27.38-.5.65-.68a3 3 0 0 1 .92-.42 4.3 4.3 0 0 1 2.8.2v1.22a3.4 3.4 0 0 0-2.5-.47c-.19.05-.34.13-.47.22a1 1 0 0 0-.3.33.88.88 0 0 0-.1.43c0 .2.03.36.1.49s.17.25.3.35c.15.1.31.2.5.28l.67.27c.34.13.63.26.9.4.26.13.49.28.67.45.19.17.33.36.43.58.1.22.15.48.15.78 0 .37-.08.7-.25.97-.16.27-.38.5-.65.68a3 3 0 0 1-.95.4c-.35.1-.73.14-1.12.14-.77 0-1.44-.15-2-.45zm12.85-3.18h-5.3c.03.84.25 1.48.68 1.93.43.46 1.02.69 1.77.69.85 0 1.63-.28 2.33-.84v1.13c-.66.48-1.53.72-2.61.72-1.06 0-1.9-.34-2.5-1.03-.6-.68-.9-1.64-.9-2.87a4.1 4.1 0 0 1 .99-2.85 3.18 3.18 0 0 1 2.46-1.1c.98 0 1.74.31 2.28.95.54.63.8 1.51.8 2.64v.63zm-1.23-1.02c0-.7-.17-1.23-.5-1.62a1.7 1.7 0 0 0-1.37-.58c-.57 0-1.05.2-1.44.61-.4.4-.64.94-.74 1.6h4.05zm13.53-4.92h-3.03V177h-1.23v-9.39h-3.03v-1.11h7.3v1.11zm5.4 3.1a1.47 1.47 0 0 0-.9-.24c-.52 0-.95.25-1.3.73a3.35 3.35 0 0 0-.51 1.98V177h-1.2v-7.5h1.2v1.55h.03c.17-.53.43-.94.78-1.24.35-.3.75-.44 1.18-.44.31 0 .55.03.72.1v1.25zm6.67 6.29h-1.2v-1.17h-.03c-.52.9-1.3 1.35-2.3 1.35-.75 0-1.34-.2-1.76-.6-.42-.4-.63-.92-.63-1.57 0-1.4.82-2.22 2.47-2.45l2.25-.31c0-1.28-.52-1.92-1.55-1.92-.9 0-1.71.31-2.44.93v-1.23c.74-.47 1.59-.7 2.55-.7 1.76 0 2.64.93 2.64 2.8V177zm-1.2-3.8l-1.8.26c-.57.07-.99.21-1.27.4-.28.2-.42.56-.42 1.06 0 .37.13.67.39.9.26.23.6.35 1.04.35.6 0 1.09-.21 1.48-.63.39-.42.58-.95.58-1.59v-.74zm8.58 3.46a3.9 3.9 0 0 1-2.05.52 3.4 3.4 0 0 1-2.6-1.05c-.65-.7-.98-1.6-.98-2.7 0-1.24.36-2.23 1.06-2.98a3.72 3.72 0 0 1 2.84-1.13c.66 0 1.24.13 1.74.37v1.23a3.05 3.05 0 0 0-1.79-.59c-.76 0-1.4.28-1.88.83-.5.55-.74 1.27-.74 2.16 0 .88.23 1.58.7 2.08.46.51 1.07.77 1.85.77.66 0 1.27-.22 1.85-.66v1.15zm8.04.34H112l-3.3-3.6h-.04v3.6h-1.2v-11.1h1.2v7.04h.03l3.15-3.44h1.58l-3.48 3.62 3.75 3.88zm1.84-9.4a.76.76 0 0 1-.77-.78c0-.23.07-.41.23-.56a.75.75 0 0 1 .54-.22.78.78 0 0 1 .8.78c0 .21-.08.4-.24.55a.77.77 0 0 1-.56.23zm.59 9.4h-1.2v-7.5h1.2v7.5zm8.66 0h-1.2v-4.28c0-1.59-.58-2.39-1.75-2.39-.6 0-1.1.23-1.49.68-.39.45-.59 1.02-.59 1.71V177h-1.2v-7.5h1.2v1.25h.03a2.7 2.7 0 0 1 2.46-1.43c.82 0 1.45.27 1.89.8.43.53.65 1.3.65 2.3V177zm8.66-.6c0 2.75-1.32 4.13-3.95 4.13-.93 0-1.74-.18-2.43-.53v-1.2a5 5 0 0 0 2.41.7c1.85 0 2.77-.98 2.77-2.94v-.82h-.03a2.8 2.8 0 0 1-2.58 1.44c-.93 0-1.68-.34-2.25-1a4 4 0 0 1-.85-2.69c0-1.27.3-2.29.92-3.04a3.07 3.07 0 0 1 2.51-1.13c1.01 0 1.76.4 2.25 1.22h.03v-1.04h1.2v6.9zm-1.2-2.8v-1.1c0-.6-.2-1.1-.6-1.53-.4-.42-.9-.64-1.5-.64-.75 0-1.33.27-1.75.81-.42.54-.63 1.3-.63 2.27 0 .84.2 1.5.6 2 .4.5.94.76 1.6.76a2.1 2.1 0 0 0 1.65-.72c.42-.48.63-1.1.63-1.84zm9.13-.57V177h-1.23v-10.5h2.89c1.12 0 2 .27 2.61.82.62.54.93 1.32.93 2.31 0 1-.35 1.81-1.03 2.45-.69.63-1.61.95-2.78.95h-1.39zm0-5.42v4.3h1.3c.84 0 1.5-.19 1.94-.58.44-.38.67-.93.67-1.64 0-1.39-.82-2.08-2.46-2.08h-1.45zm10.92 3.1a1.47 1.47 0 0 0-.9-.24c-.52 0-.94.25-1.29.73a3.35 3.35 0 0 0-.52 1.98V177h-1.2v-7.5h1.2v1.55h.03c.17-.53.44-.94.79-1.24.35-.3.74-.44 1.18-.44.3 0 .55.03.71.1v1.25zm4.44 6.47c-1.1 0-1.99-.35-2.65-1.06a3.9 3.9 0 0 1-1-2.78c0-1.26.35-2.25 1.04-2.95a3.71 3.71 0 0 1 2.79-1.07c1.12 0 1.99.35 2.62 1.04.62.69.94 1.64.94 2.86 0 1.2-.34 2.16-1.02 2.88a3.55 3.55 0 0 1-2.72 1.08zm.1-6.85c-.78 0-1.4.27-1.84.8a3.23 3.23 0 0 0-.67 2.16c0 .9.22 1.6.68 2.1.45.52 1.06.78 1.82.78a2.2 2.2 0 0 0 1.8-.76c.4-.5.62-1.22.62-2.15 0-.93-.21-1.66-.63-2.16a2.19 2.19 0 0 0-1.79-.77zm9.04 6.6c-.29.15-.66.23-1.12.23-1.32 0-1.97-.73-1.97-2.2v-4.43h-1.3v-1.03h1.3v-1.83l1.2-.39v2.22h1.89v1.03h-1.9v4.22c0 .5.1.86.26 1.08.17.21.46.32.85.32.3 0 .57-.08.79-.25v1.03zm7.63-3.38h-5.3c.02.84.25 1.48.68 1.93.43.46 1.02.69 1.77.69.84 0 1.62-.28 2.33-.84v1.13c-.66.48-1.53.72-2.62.72-1.06 0-1.89-.34-2.5-1.03-.6-.68-.9-1.64-.9-2.87a4.1 4.1 0 0 1 .99-2.85 3.18 3.18 0 0 1 2.46-1.1c.99 0 1.75.31 2.28.95.54.63.8 1.51.8 2.64v.63zm-1.23-1.02c0-.7-.17-1.23-.5-1.62a1.7 1.7 0 0 0-1.38-.58c-.56 0-1.04.2-1.44.61-.4.4-.64.94-.73 1.6h4.05zm8.16 4.13a3.9 3.9 0 0 1-2.05.52 3.4 3.4 0 0 1-2.6-1.05c-.65-.7-.98-1.6-.98-2.7 0-1.24.36-2.23 1.06-2.98a3.72 3.72 0 0 1 2.84-1.13c.66 0 1.24.13 1.74.37v1.23a3.05 3.05 0 0 0-1.79-.59c-.76 0-1.4.28-1.88.83-.5.55-.74 1.27-.74 2.16 0 .88.23 1.58.7 2.08.46.51 1.07.77 1.85.77.66 0 1.27-.22 1.85-.66v1.15zm5.3.27c-.3.15-.66.23-1.13.23-1.31 0-1.97-.73-1.97-2.2v-4.43h-1.29v-1.03h1.3v-1.83l1.2-.39v2.22h1.88v1.03h-1.89v4.22c0 .5.09.86.26 1.08.17.21.45.32.85.32.3 0 .56-.08.78-.25v1.03zm2.21-9.33a.76.76 0 0 1-.77-.78.75.75 0 0 1 .78-.78.78.78 0 0 1 .78.78c0 .21-.07.4-.23.55a.77.77 0 0 1-.56.23zm.59 9.4h-1.2v-7.5h1.2v7.5zm5.56.18c-1.1 0-1.99-.35-2.65-1.06a3.9 3.9 0 0 1-1-2.78c0-1.26.35-2.25 1.04-2.95a3.71 3.71 0 0 1 2.79-1.07c1.12 0 2 .35 2.62 1.04.63.69.94 1.64.94 2.86 0 1.2-.34 2.16-1.02 2.88a3.55 3.55 0 0 1-2.72 1.08zm.1-6.85c-.78 0-1.39.27-1.84.8a3.23 3.23 0 0 0-.67 2.16c0 .9.22 1.6.68 2.1.45.52 1.06.78 1.82.78a2.2 2.2 0 0 0 1.8-.76c.41-.5.62-1.22.62-2.15 0-.93-.21-1.66-.63-2.16a2.19 2.19 0 0 0-1.79-.77zm11.78 6.67h-1.2v-4.28c0-1.59-.58-2.39-1.74-2.39-.6 0-1.1.23-1.5.68-.38.45-.58 1.02-.58 1.71V177h-1.2v-7.5h1.2v1.25h.03a2.7 2.7 0 0 1 2.46-1.43c.82 0 1.45.27 1.88.8.44.53.65 1.3.65 2.3V177zm9.85-.07c-.28.15-.65.23-1.12.23-1.3 0-1.97-.73-1.97-2.2v-4.43h-1.28v-1.03h1.28v-1.83l1.2-.39v2.22h1.9v1.03h-1.9v4.22c0 .5.1.86.26 1.08.17.21.46.32.85.32.3 0 .57-.08.78-.25v1.03zm4.74.25c-1.1 0-1.99-.35-2.65-1.06a3.9 3.9 0 0 1-1-2.78c0-1.26.35-2.25 1.04-2.95a3.71 3.71 0 0 1 2.79-1.07c1.12 0 1.99.35 2.62 1.04.63.69.94 1.64.94 2.86 0 1.2-.34 2.16-1.02 2.88a3.55 3.55 0 0 1-2.72 1.08zm.1-6.85c-.78 0-1.39.27-1.84.8a3.23 3.23 0 0 0-.67 2.16c0 .9.22 1.6.68 2.1.45.52 1.06.78 1.82.78a2.2 2.2 0 0 0 1.8-.76c.41-.5.62-1.22.62-2.15 0-.93-.21-1.66-.63-2.16a2.19 2.19 0 0 0-1.79-.77zm10.9 5.59h-.03V177h-1.2v-11.1h1.2v4.92h.03c.59-1 1.45-1.5 2.59-1.5.96 0 1.72.34 2.26 1.01.54.67.82 1.57.82 2.7 0 1.26-.3 2.26-.92 3.01a3.05 3.05 0 0 1-2.5 1.14c-1 0-1.74-.42-2.25-1.26zm-.03-3.03v1.05c0 .62.2 1.14.6 1.58a2 2 0 0 0 1.54.65c.72 0 1.3-.28 1.7-.84.42-.56.63-1.33.63-2.32 0-.84-.2-1.5-.58-1.96-.39-.48-.91-.72-1.57-.72-.7 0-1.26.25-1.68.73-.43.49-.64 1.1-.64 1.83zm8.82 4.11h-1.2v-11.1h1.2V177zm5.56.18c-1.1 0-2-.35-2.65-1.06a3.9 3.9 0 0 1-1-2.78c0-1.26.35-2.25 1.04-2.95a3.71 3.71 0 0 1 2.79-1.07c1.12 0 1.99.35 2.62 1.04.62.69.94 1.64.94 2.86 0 1.2-.34 2.16-1.02 2.88a3.55 3.55 0 0 1-2.72 1.08zm.1-6.85c-.78 0-1.4.27-1.84.8a3.23 3.23 0 0 0-.67 2.16c0 .9.22 1.6.68 2.1.45.52 1.06.78 1.82.78a2.2 2.2 0 0 0 1.8-.76c.4-.5.62-1.22.62-2.15 0-.93-.21-1.66-.63-2.16a2.19 2.19 0 0 0-1.79-.77zm10.67 6.33a3.9 3.9 0 0 1-2.05.52 3.4 3.4 0 0 1-2.59-1.05c-.66-.7-.99-1.6-.99-2.7 0-1.24.36-2.23 1.07-2.98a3.72 3.72 0 0 1 2.83-1.13c.66 0 1.24.13 1.74.37v1.23a3.05 3.05 0 0 0-1.78-.59c-.77 0-1.4.28-1.89.83-.49.55-.74 1.27-.74 2.16 0 .88.24 1.58.7 2.08.46.51 1.08.77 1.85.77.66 0 1.27-.22 1.85-.66v1.15zm8.04.34h-1.68l-3.31-3.6h-.03v3.6h-1.2v-11.1h1.2v7.04h.03l3.15-3.44h1.57l-3.48 3.62 3.75 3.88zm11.57 0h-1.69l-3.3-3.6h-.04v3.6h-1.2v-11.1h1.2v7.04h.03l3.15-3.44h1.58l-3.48 3.62 3.75 3.88zm7.45 0h-1.2v-4.28c0-1.59-.58-2.39-1.74-2.39-.6 0-1.1.23-1.5.68-.39.45-.58 1.02-.58 1.71V177h-1.2v-7.5h1.2v1.25h.03a2.7 2.7 0 0 1 2.46-1.43c.82 0 1.45.27 1.88.8.44.53.65 1.3.65 2.3V177zm5.4.18c-1.1 0-2-.35-2.65-1.06a3.9 3.9 0 0 1-1-2.78c0-1.26.35-2.25 1.04-2.95a3.71 3.71 0 0 1 2.79-1.07c1.11 0 1.99.35 2.61 1.04.63.69.95 1.64.95 2.86 0 1.2-.34 2.16-1.02 2.88a3.55 3.55 0 0 1-2.72 1.08zm.09-6.85c-.77 0-1.38.27-1.83.8a3.23 3.23 0 0 0-.68 2.16c0 .9.23 1.6.68 2.1.46.52 1.07.78 1.83.78a2.2 2.2 0 0 0 1.79-.76c.42-.5.63-1.22.63-2.15 0-.93-.21-1.66-.63-2.16a2.19 2.19 0 0 0-1.8-.77zm15.01-.83L302 177h-1.24l-1.55-5.37a3.5 3.5 0 0 1-.11-.7h-.03c-.02.18-.07.4-.16.69l-1.67 5.38h-1.2l-2.28-7.5h1.26l1.56 5.64c.05.17.08.4.1.67h.06c.01-.21.06-.44.13-.69l1.73-5.62h1.1l1.55 5.65c.05.18.09.41.11.68h.06c0-.2.05-.42.12-.68l1.53-5.65h1.18zm7.62 7.5h-1.2v-4.28c0-1.59-.58-2.39-1.74-2.39-.6 0-1.1.23-1.5.68-.39.45-.58 1.02-.58 1.71V177h-1.2v-7.5h1.2v1.25h.02a2.7 2.7 0 0 1 2.47-1.43c.82 0 1.44.27 1.88.8.43.53.65 1.3.65 2.3V177zm9.85-.07c-.28.15-.66.23-1.12.23-1.31 0-1.97-.73-1.97-2.2v-4.43h-1.29v-1.03h1.29v-1.83l1.2-.39v2.22h1.9v1.03h-1.9v4.22c0 .5.09.86.26 1.08.17.21.45.32.85.32.3 0 .56-.08.78-.25v1.03zm5.52-6.21a1.47 1.47 0 0 0-.91-.25c-.51 0-.94.25-1.29.73a3.35 3.35 0 0 0-.51 1.98V177h-1.2v-7.5h1.2v1.55h.03c.17-.53.43-.94.78-1.24.35-.3.74-.44 1.18-.44.31 0 .55.03.72.1v1.25zm6.67 6.28h-1.2v-1.17h-.03c-.52.9-1.3 1.35-2.3 1.35-.76 0-1.34-.2-1.76-.6-.43-.4-.64-.92-.64-1.57 0-1.4.83-2.22 2.48-2.45l2.25-.31c0-1.28-.52-1.92-1.55-1.92-.9 0-1.72.31-2.44.93v-1.23c.73-.47 1.58-.7 2.54-.7 1.77 0 2.65.93 2.65 2.8V177zm-1.2-3.8l-1.81.26c-.56.07-.98.21-1.26.4-.28.2-.43.56-.43 1.06 0 .37.13.67.4.9.26.23.6.35 1.04.35.6 0 1.09-.21 1.48-.63.38-.42.58-.95.58-1.59v-.74zm8.57 3.46a3.9 3.9 0 0 1-2.05.52 3.4 3.4 0 0 1-2.59-1.05c-.65-.7-.98-1.6-.98-2.7 0-1.24.35-2.23 1.06-2.98a3.72 3.72 0 0 1 2.84-1.13c.65 0 1.24.13 1.74.37v1.23a3.05 3.05 0 0 0-1.79-.59c-.76 0-1.4.28-1.88.83-.5.55-.74 1.27-.74 2.16 0 .88.23 1.58.7 2.08.45.51 1.07.77 1.85.77.65 0 1.27-.22 1.84-.66v1.15zm8.05.34h-1.69l-3.3-3.6h-.04v3.6h-1.2v-11.1h1.2v7.04h.03l3.15-3.44h1.58l-3.48 3.62 3.75 3.88zm7.25-3.45h-5.3c.03.84.25 1.48.68 1.93.43.46 1.02.69 1.78.69.84 0 1.62-.28 2.32-.84v1.13c-.65.48-1.53.72-2.61.72-1.06 0-1.9-.34-2.5-1.03-.6-.68-.9-1.64-.9-2.87a4.1 4.1 0 0 1 .99-2.85 3.18 3.18 0 0 1 2.46-1.1c.98 0 1.74.31 2.28.95.54.63.8 1.51.8 2.64v.63zm-1.23-1.02c0-.7-.17-1.23-.5-1.62a1.7 1.7 0 0 0-1.37-.58c-.57 0-1.05.2-1.44.61-.4.4-.64.94-.74 1.6h4.05zm6.96-1.81a1.47 1.47 0 0 0-.9-.25c-.52 0-.95.25-1.3.73a3.35 3.35 0 0 0-.5 1.98V177h-1.2v-7.5h1.2v1.55h.02c.17-.53.43-.94.79-1.24.35-.3.74-.44 1.17-.44.32 0 .56.03.72.1v1.25zm.85 6v-1.28c.66.48 1.38.73 2.16.73 1.06 0 1.58-.36 1.58-1.06 0-.2-.04-.37-.13-.5a1.35 1.35 0 0 0-.37-.38c-.15-.1-.33-.2-.54-.29l-.67-.27a8.63 8.63 0 0 1-.87-.4 2.64 2.64 0 0 1-.63-.45c-.17-.17-.3-.36-.39-.57a2.03 2.03 0 0 1-.12-.76c0-.35.08-.66.24-.93.16-.27.37-.5.64-.68a3 3 0 0 1 .92-.42 4.3 4.3 0 0 1 2.8.2l.01 1.22a3.4 3.4 0 0 0-2.51-.47c-.18.05-.34.13-.47.22a1 1 0 0 0-.3.33.88.88 0 0 0-.1.43c0 .2.03.36.1.49s.18.25.31.35c.14.1.3.2.5.28l.67.27c.33.13.63.26.9.4.26.13.48.28.67.45.18.17.32.36.42.58.1.22.15.48.15.78 0 .37-.08.7-.24.97-.16.27-.38.5-.66.68a3 3 0 0 1-.94.4c-.36.1-.73.14-1.12.14-.77 0-1.44-.15-2-.45zM57.6 112.62h-3.03V122h-1.23v-9.39H50.3v-1.11h7.29v1.11zm5.4 3.1a1.47 1.47 0 0 0-.91-.24c-.52 0-.94.25-1.29.73a3.35 3.35 0 0 0-.51 1.98V122h-1.2v-7.5h1.2v1.55h.03c.17-.53.43-.94.78-1.24.35-.3.74-.44 1.18-.44.31 0 .55.03.72.1v1.25zm6.67 6.29h-1.2v-1.17h-.03c-.52.9-1.3 1.35-2.3 1.35-.76 0-1.34-.2-1.76-.6-.43-.4-.64-.92-.64-1.57 0-1.4.83-2.22 2.48-2.45l2.25-.31c0-1.28-.52-1.92-1.55-1.92-.9 0-1.72.31-2.44.93v-1.23c.73-.47 1.58-.7 2.54-.7 1.77 0 2.65.93 2.65 2.8V122zm-1.2-3.8l-1.81.26c-.56.07-.98.21-1.26.4-.29.2-.43.56-.43 1.06 0 .37.13.67.4.9.26.23.6.35 1.04.35.6 0 1.09-.21 1.47-.63.4-.42.59-.95.59-1.59v-.74zm8.57 3.46a3.9 3.9 0 0 1-2.05.52 3.4 3.4 0 0 1-2.59-1.05c-.65-.7-.98-1.6-.98-2.7 0-1.24.35-2.23 1.06-2.98a3.72 3.72 0 0 1 2.84-1.13c.65 0 1.24.13 1.74.37v1.23a3.05 3.05 0 0 0-1.79-.59c-.77 0-1.4.28-1.88.83-.5.55-.74 1.27-.74 2.16 0 .88.23 1.58.7 2.08.45.51 1.07.77 1.85.77.65 0 1.27-.22 1.84-.66v1.15zm8.05.34h-1.69l-3.3-3.6h-.04v3.6h-1.2v-11.1h1.2v7.04h.03l3.15-3.44h1.57l-3.47 3.62 3.75 3.88zm1.84-9.4a.76.76 0 0 1-.77-.78.75.75 0 0 1 .78-.78.78.78 0 0 1 .78.78c0 .21-.07.4-.23.55a.77.77 0 0 1-.56.23zm.59 9.4h-1.2v-7.5h1.2v7.5zm8.65 0h-1.2v-4.28c0-1.59-.58-2.39-1.74-2.39-.6 0-1.1.23-1.49.68-.4.45-.59 1.02-.59 1.71V122h-1.2v-7.5h1.2v1.25h.03a2.7 2.7 0 0 1 2.46-1.43c.82 0 1.45.27 1.88.8.44.53.65 1.3.65 2.3V122zm8.67-.6c0 2.75-1.32 4.13-3.96 4.13-.92 0-1.73-.18-2.43-.53v-1.2a5 5 0 0 0 2.42.7c1.85 0 2.77-.98 2.77-2.94v-.82h-.03a2.8 2.8 0 0 1-2.58 1.44c-.93 0-1.68-.34-2.25-1a4 4 0 0 1-.85-2.69c0-1.27.3-2.29.91-3.04a3.07 3.07 0 0 1 2.52-1.13c1.01 0 1.76.4 2.25 1.22h.03v-1.04h1.2v6.9zm-1.2-2.8v-1.1c0-.6-.2-1.1-.6-1.53-.4-.42-.91-.64-1.51-.64-.74 0-1.32.27-1.74.81-.42.54-.63 1.3-.63 2.27 0 .84.2 1.5.6 2 .4.5.94.76 1.6.76a2.1 2.1 0 0 0 1.64-.72c.43-.48.64-1.1.64-1.84zm8.35-6a.76.76 0 0 1-.77-.78c0-.23.07-.41.23-.56a.75.75 0 0 1 .54-.22.78.78 0 0 1 .8.78c0 .21-.08.4-.23.55a.77.77 0 0 1-.57.23zm.6 9.4h-1.21v-7.5h1.2v7.5zm1.97-.27v-1.29c.65.48 1.37.73 2.16.73 1.05 0 1.58-.36 1.58-1.06 0-.2-.04-.37-.13-.5a1.35 1.35 0 0 0-.37-.38c-.15-.1-.34-.2-.54-.29l-.67-.27a8.63 8.63 0 0 1-.88-.4 2.64 2.64 0 0 1-.63-.45c-.17-.17-.3-.36-.38-.57a2.03 2.03 0 0 1-.13-.76c0-.35.08-.66.24-.93.17-.27.38-.5.65-.68a3 3 0 0 1 .92-.42 4.3 4.3 0 0 1 2.8.2v1.22a3.4 3.4 0 0 0-2.5-.47c-.19.05-.34.13-.47.22a1 1 0 0 0-.3.33.88.88 0 0 0-.1.43c0 .2.03.36.1.49s.17.25.31.35c.14.1.3.2.5.28l.67.27c.33.13.63.26.89.4.26.13.49.28.67.45.19.17.33.36.43.58.1.22.15.48.15.78 0 .37-.08.7-.24.97-.17.27-.39.5-.66.68a3 3 0 0 1-.94.4c-.36.1-.73.14-1.12.14-.78 0-1.45-.15-2.01-.45zm14.4.2c-.28.15-.65.23-1.12.23-1.3 0-1.97-.73-1.97-2.2v-4.43h-1.28v-1.03h1.28v-1.83l1.2-.39v2.22h1.9v1.03h-1.9v4.22c0 .5.1.86.26 1.08.17.21.46.32.85.32.3 0 .57-.08.79-.25v1.03zm7.83.07h-1.2v-4.32c0-1.56-.58-2.35-1.74-2.35a1.9 1.9 0 0 0-1.48.68c-.4.45-.6 1.03-.6 1.74V122h-1.2v-11.1h1.2v4.85h.03a2.73 2.73 0 0 1 2.46-1.43c1.69 0 2.53 1.02 2.53 3.06V122zm8.3-3.45h-5.3c.02.84.24 1.48.67 1.93.43.46 1.02.69 1.78.69.84 0 1.62-.28 2.33-.84v1.13c-.66.48-1.54.72-2.62.72-1.06 0-1.9-.34-2.5-1.03-.6-.68-.9-1.64-.9-2.87a4.1 4.1 0 0 1 .99-2.85 3.18 3.18 0 0 1 2.46-1.1c.98 0 1.74.31 2.28.95.54.63.8 1.51.8 2.64v.63zm-1.23-1.02c-.01-.7-.18-1.23-.5-1.62a1.7 1.7 0 0 0-1.38-.58c-.57 0-1.05.2-1.44.61-.4.4-.64.94-.74 1.6h4.06zm12.26 4.13a3.9 3.9 0 0 1-2.05.52 3.4 3.4 0 0 1-2.59-1.05c-.65-.7-.98-1.6-.98-2.7 0-1.24.35-2.23 1.06-2.98a3.72 3.72 0 0 1 2.83-1.13c.66 0 1.24.13 1.75.37v1.23a3.05 3.05 0 0 0-1.79-.59c-.77 0-1.4.28-1.89.83-.49.55-.73 1.27-.73 2.16 0 .88.23 1.58.7 2.08.45.51 1.07.77 1.85.77.65 0 1.27-.22 1.84-.66v1.15zm4.95.52c-1.1 0-1.99-.35-2.65-1.06a3.9 3.9 0 0 1-1-2.78c0-1.26.35-2.25 1.04-2.95a3.71 3.71 0 0 1 2.79-1.07c1.12 0 2 .35 2.62 1.04.63.69.94 1.64.94 2.86 0 1.2-.34 2.16-1.01 2.88a3.55 3.55 0 0 1-2.73 1.08zm.1-6.85c-.78 0-1.39.27-1.84.8a3.23 3.23 0 0 0-.67 2.16c0 .9.22 1.6.68 2.1.45.52 1.06.78 1.82.78a2.2 2.2 0 0 0 1.8-.76c.41-.5.62-1.22.62-2.15 0-.93-.2-1.66-.63-2.16a2.19 2.19 0 0 0-1.79-.77zm6.76 6.67h-1.2v-11.1h1.2V122zm3.63 0h-1.2v-11.1h1.2V122zm8.46-3.45h-5.3c.03.84.25 1.48.68 1.93.43.46 1.02.69 1.77.69.85 0 1.62-.28 2.33-.84v1.13c-.66.48-1.53.72-2.61.72-1.06 0-1.9-.34-2.5-1.03-.6-.68-.9-1.64-.9-2.87a4.1 4.1 0 0 1 .98-2.85 3.18 3.18 0 0 1 2.47-1.1c.98 0 1.74.31 2.28.95.53.63.8 1.51.8 2.64v.63zm-1.23-1.02c0-.7-.17-1.23-.5-1.62a1.7 1.7 0 0 0-1.37-.58c-.57 0-1.05.2-1.45.61-.4.4-.64.94-.73 1.6h4.05zm8.16 4.13a3.9 3.9 0 0 1-2.05.52 3.4 3.4 0 0 1-2.59-1.05c-.66-.7-.98-1.6-.98-2.7 0-1.24.35-2.23 1.06-2.98a3.72 3.72 0 0 1 2.83-1.13c.66 0 1.24.13 1.75.37v1.23a3.05 3.05 0 0 0-1.8-.59c-.76 0-1.39.28-1.88.83-.49.55-.73 1.27-.73 2.16 0 .88.23 1.58.69 2.08.46.51 1.08.77 1.86.77.65 0 1.26-.22 1.84-.66v1.15zm5.3.27c-.29.15-.66.23-1.12.23-1.32 0-1.97-.73-1.97-2.2v-4.43h-1.3v-1.03h1.3v-1.83l1.2-.39v2.22h1.89v1.03h-1.9v4.22c0 .5.1.86.26 1.08.17.21.46.32.85.32.3 0 .57-.08.79-.25v1.03zm2.22-9.33a.76.76 0 0 1-.78-.78c0-.23.07-.41.23-.56a.75.75 0 0 1 .55-.22.78.78 0 0 1 .79.78c0 .21-.08.4-.23.55a.77.77 0 0 1-.56.23zm.58 9.4h-1.2v-7.5h1.2v7.5zm5.57.18c-1.11 0-2-.35-2.66-1.06a3.9 3.9 0 0 1-.99-2.78c0-1.26.34-2.25 1.03-2.95a3.71 3.71 0 0 1 2.8-1.07c1.11 0 1.98.35 2.61 1.04.63.69.94 1.64.94 2.86 0 1.2-.33 2.16-1.01 2.88a3.55 3.55 0 0 1-2.72 1.08zm.09-6.85c-.78 0-1.39.27-1.84.8a3.23 3.23 0 0 0-.67 2.16c0 .9.23 1.6.68 2.1.46.52 1.06.78 1.83.78a2.2 2.2 0 0 0 1.79-.76c.41-.5.62-1.22.62-2.15 0-.93-.2-1.66-.62-2.16a2.19 2.19 0 0 0-1.8-.77zm11.79 6.67h-1.2v-4.28c0-1.59-.58-2.39-1.75-2.39-.6 0-1.1.23-1.49.68-.39.45-.59 1.02-.59 1.71V122h-1.2v-7.5h1.2v1.25h.03a2.7 2.7 0 0 1 2.46-1.43c.82 0 1.45.27 1.89.8.43.53.65 1.3.65 2.3V122zm9.5.18c-1.1 0-1.99-.35-2.65-1.06a3.9 3.9 0 0 1-1-2.78c0-1.26.35-2.25 1.04-2.95a3.71 3.71 0 0 1 2.79-1.07c1.12 0 2 .35 2.62 1.04.63.69.94 1.64.94 2.86 0 1.2-.34 2.16-1.01 2.88a3.55 3.55 0 0 1-2.73 1.08zm.1-6.85c-.78 0-1.39.27-1.84.8a3.23 3.23 0 0 0-.67 2.16c0 .9.22 1.6.68 2.1.45.52 1.06.78 1.82.78a2.2 2.2 0 0 0 1.8-.76c.41-.5.62-1.22.62-2.15 0-.93-.2-1.66-.63-2.16a2.19 2.19 0 0 0-1.79-.77zm9.26-3.38a1.6 1.6 0 0 0-.8-.2c-.83 0-1.25.53-1.25 1.6v1.15h1.75v1.03h-1.75V122h-1.2v-6.47h-1.28v-1.03h1.28v-1.22c0-.78.23-1.4.68-1.86a2.3 2.3 0 0 1 1.7-.68c.37 0 .66.04.87.13v1.08zm11.07 2.55l-3.45 8.7c-.61 1.55-1.48 2.33-2.6 2.33-.3 0-.56-.03-.77-.1v-1.07c.25.09.5.13.7.13.61 0 1.07-.36 1.37-1.08l.6-1.42-2.93-7.49h1.33l2.03 5.77c.03.07.08.27.15.57h.05c.02-.11.07-.3.15-.55l2.13-5.79h1.24zm4.43 7.68c-1.11 0-2-.35-2.66-1.06a3.9 3.9 0 0 1-1-2.78c0-1.26.35-2.25 1.04-2.95a3.71 3.71 0 0 1 2.8-1.07c1.11 0 1.98.35 2.61 1.04.63.69.94 1.64.94 2.86 0 1.2-.34 2.16-1.01 2.88a3.55 3.55 0 0 1-2.72 1.08zm.08-6.85c-.77 0-1.38.27-1.83.8a3.23 3.23 0 0 0-.67 2.16c0 .9.23 1.6.68 2.1.45.52 1.06.78 1.82.78a2.2 2.2 0 0 0 1.8-.76c.41-.5.62-1.22.62-2.15 0-.93-.2-1.66-.63-2.16a2.19 2.19 0 0 0-1.79-.77zm11.63 6.67h-1.2v-1.19h-.03c-.5.91-1.27 1.37-2.31 1.37-1.79 0-2.68-1.07-2.68-3.2v-4.48h1.2v4.3c0 1.57.6 2.37 1.8 2.37.6 0 1.08-.22 1.46-.65.37-.44.56-1 .56-1.7v-4.32h1.2v7.5zm6.34-6.28a1.47 1.47 0 0 0-.9-.25c-.52 0-.95.25-1.3.73a3.35 3.35 0 0 0-.51 1.98V122h-1.2v-7.5h1.2v1.55h.03c.17-.53.43-.94.78-1.24.35-.3.75-.44 1.18-.44.31 0 .55.03.72.1v1.25zm6.64 5.2h-.03V122h-1.2v-11.1h1.2v4.92h.03c.6-1 1.46-1.5 2.6-1.5.96 0 1.71.34 2.26 1.01.54.67.81 1.57.81 2.7 0 1.26-.3 2.26-.91 3.01a3.05 3.05 0 0 1-2.5 1.14c-1 0-1.75-.42-2.26-1.26zm-.03-3.03v1.05c0 .62.2 1.14.6 1.58a2 2 0 0 0 1.54.65c.73 0 1.3-.28 1.71-.84.42-.56.62-1.33.62-2.32 0-.84-.2-1.5-.58-1.96-.38-.48-.9-.72-1.56-.72-.7 0-1.26.25-1.69.73-.42.49-.64 1.1-.64 1.83zm11.53-2.17a1.47 1.47 0 0 0-.9-.25c-.52 0-.95.25-1.3.73a3.35 3.35 0 0 0-.5 1.98V122h-1.2v-7.5h1.2v1.55h.02c.17-.53.43-.94.79-1.24.35-.3.74-.44 1.17-.44.32 0 .56.03.72.1v1.25zm4.44 6.46c-1.1 0-2-.35-2.65-1.06a3.9 3.9 0 0 1-1-2.78c0-1.26.35-2.25 1.04-2.95a3.71 3.71 0 0 1 2.79-1.07c1.11 0 1.99.35 2.61 1.04.63.69.95 1.64.95 2.86 0 1.2-.34 2.16-1.02 2.88a3.55 3.55 0 0 1-2.72 1.08zm.09-6.85c-.77 0-1.38.27-1.83.8a3.23 3.23 0 0 0-.68 2.16c0 .9.23 1.6.68 2.1.46.52 1.07.78 1.83.78a2.2 2.2 0 0 0 1.79-.76c.42-.5.63-1.22.63-2.15 0-.93-.21-1.66-.63-2.16a2.19 2.19 0 0 0-1.8-.77zm15.01-.83l-2.25 7.5h-1.24l-1.55-5.37a3.5 3.5 0 0 1-.11-.7h-.03c-.02.18-.07.4-.16.69l-1.67 5.38h-1.2l-2.28-7.5h1.26l1.56 5.64c.05.17.08.4.1.67h.06c.01-.21.06-.44.13-.69l1.73-5.62h1.1l1.55 5.65c.05.18.09.41.11.68h.06c0-.2.05-.42.12-.68l1.53-5.65h1.18zm.94 7.23v-1.29c.65.48 1.38.73 2.16.73 1.06 0 1.58-.36 1.58-1.06 0-.2-.04-.37-.13-.5a1.35 1.35 0 0 0-.37-.38c-.15-.1-.33-.2-.54-.29l-.67-.27a8.63 8.63 0 0 1-.88-.4 2.64 2.64 0 0 1-.63-.45c-.16-.17-.3-.36-.38-.57a2.03 2.03 0 0 1-.12-.76c0-.35.08-.66.24-.93.16-.27.37-.5.64-.68a3 3 0 0 1 .92-.42 4.3 4.3 0 0 1 2.8.2v1.22a3.4 3.4 0 0 0-2.5-.47c-.18.05-.34.13-.47.22a1 1 0 0 0-.3.33.88.88 0 0 0-.1.43c0 .2.03.36.1.49s.18.25.31.35c.14.1.3.2.5.28l.67.27c.33.13.63.26.9.4.25.13.48.28.67.45.18.17.32.36.42.58.1.22.15.48.15.78 0 .37-.08.7-.24.97-.17.27-.38.5-.66.68a3 3 0 0 1-.94.4c-.36.1-.73.14-1.12.14-.77 0-1.44-.15-2-.45zm7.43-9.13a.76.76 0 0 1-.77-.78c0-.23.07-.41.23-.56a.75.75 0 0 1 .54-.22.78.78 0 0 1 .8.78c0 .21-.08.4-.24.55a.77.77 0 0 1-.56.23zm.6 9.4h-1.21v-7.5h1.2v7.5zm8.65 0H319v-4.28c0-1.59-.58-2.39-1.75-2.39-.6 0-1.1.23-1.49.68-.39.45-.59 1.02-.59 1.71V122h-1.2v-7.5h1.2v1.25h.03a2.7 2.7 0 0 1 2.46-1.43c.82 0 1.45.27 1.89.8.43.53.65 1.3.65 2.3V122zm8.66-.6c0 2.75-1.32 4.13-3.95 4.13-.93 0-1.74-.18-2.43-.53v-1.2a5 5 0 0 0 2.41.7c1.85 0 2.77-.98 2.77-2.94v-.82h-.03a2.8 2.8 0 0 1-2.58 1.44c-.93 0-1.68-.34-2.25-1a4 4 0 0 1-.85-2.69c0-1.27.3-2.29.92-3.04a3.07 3.07 0 0 1 2.51-1.13c1.01 0 1.76.4 2.25 1.22h.03v-1.04h1.2v6.9zm-1.2-2.8v-1.1c0-.6-.2-1.1-.6-1.53-.4-.42-.9-.64-1.5-.64-.75 0-1.33.27-1.75.81-.42.54-.63 1.3-.63 2.27 0 .84.2 1.5.6 2 .4.5.94.76 1.6.76a2.1 2.1 0 0 0 1.65-.72c.42-.48.63-1.1.63-1.84zm14.14 3.4h-1.2v-1.27h-.03a2.77 2.77 0 0 1-2.57 1.45 2.8 2.8 0 0 1-2.26-1.01 4.13 4.13 0 0 1-.85-2.74c0-1.24.31-2.24.94-2.99a3.1 3.1 0 0 1 2.5-1.12c1.03 0 1.77.4 2.24 1.22h.03v-4.64h1.2V122zm-1.2-3.4v-1.1c0-.6-.2-1.12-.6-1.54-.4-.42-.9-.63-1.52-.63-.73 0-1.31.27-1.73.81a3.53 3.53 0 0 0-.63 2.23c0 .86.2 1.54.6 2.04.4.5.95.76 1.63.76.67 0 1.2-.25 1.63-.73.41-.48.62-1.1.62-1.83zm9 3.4h-1.2v-1.17h-.03c-.52.9-1.29 1.35-2.3 1.35-.75 0-1.33-.2-1.76-.6-.42-.4-.63-.92-.63-1.57 0-1.4.82-2.22 2.47-2.45l2.25-.31c0-1.28-.51-1.92-1.54-1.92-.9 0-1.72.31-2.45.93v-1.23c.74-.47 1.59-.7 2.55-.7 1.76 0 2.64.93 2.64 2.8V122zm-1.2-3.8l-1.8.26c-.56.07-.98.21-1.27.4-.28.2-.42.56-.42 1.06 0 .37.13.67.4.9.25.23.6.35 1.04.35.6 0 1.08-.21 1.47-.63.39-.42.58-.95.58-1.59v-.74zm6.95 3.73c-.29.15-.66.23-1.12.23-1.32 0-1.97-.73-1.97-2.2v-4.43h-1.3v-1.03h1.3v-1.83l1.2-.39v2.22h1.89v1.03h-1.9v4.22c0 .5.1.86.26 1.08.17.21.46.32.85.32.3 0 .57-.08.79-.25v1.03zm6.97.07h-1.2v-1.17h-.03c-.52.9-1.3 1.35-2.3 1.35-.76 0-1.34-.2-1.76-.6-.42-.4-.64-.92-.64-1.57 0-1.4.83-2.22 2.48-2.45l2.25-.31c0-1.28-.52-1.92-1.55-1.92-.9 0-1.72.31-2.44.93v-1.23c.73-.47 1.58-.7 2.55-.7 1.76 0 2.64.93 2.64 2.8V122zm-1.2-3.8l-1.81.26c-.56.07-.98.21-1.26.4-.28.2-.43.56-.43 1.06 0 .37.14.67.4.9.26.23.6.35 1.04.35.6 0 1.09-.21 1.48-.63.38-.42.58-.95.58-1.59v-.74zm12.94 3.8h-1.2v-1.17h-.03c-.52.9-1.3 1.35-2.3 1.35-.75 0-1.34-.2-1.76-.6-.42-.4-.64-.92-.64-1.57 0-1.4.83-2.22 2.48-2.45l2.25-.31c0-1.28-.52-1.92-1.55-1.92-.9 0-1.72.31-2.44.93v-1.23c.73-.47 1.58-.7 2.55-.7 1.76 0 2.64.93 2.64 2.8V122zm-1.2-3.8l-1.81.26c-.56.07-.98.21-1.26.4-.28.2-.42.56-.42 1.06 0 .37.13.67.39.9.26.23.6.35 1.04.35.6 0 1.09-.21 1.48-.63.38-.42.58-.95.58-1.59v-.74zm8.58 3.46a3.9 3.9 0 0 1-2.06.52 3.4 3.4 0 0 1-2.58-1.05c-.66-.7-.99-1.6-.99-2.7 0-1.24.35-2.23 1.06-2.98a3.72 3.72 0 0 1 2.84-1.13c.66 0 1.24.13 1.74.37v1.23a3.05 3.05 0 0 0-1.79-.59c-.76 0-1.4.28-1.88.83-.5.55-.74 1.27-.74 2.16 0 .88.23 1.58.7 2.08.45.51 1.07.77 1.85.77.65 0 1.27-.22 1.85-.66v1.15zm5.72-5.94a1.47 1.47 0 0 0-.9-.25c-.52 0-.95.25-1.3.73a3.35 3.35 0 0 0-.5 1.98V122h-1.2v-7.5h1.2v1.55h.02c.17-.53.43-.94.79-1.24.35-.3.74-.44 1.18-.44.3 0 .55.03.71.1v1.25zm4.44 6.46c-1.1 0-2-.35-2.65-1.06a3.9 3.9 0 0 1-1-2.78c0-1.26.35-2.25 1.04-2.95a3.71 3.71 0 0 1 2.79-1.07c1.12 0 1.99.35 2.62 1.04.62.69.94 1.64.94 2.86 0 1.2-.34 2.16-1.02 2.88a3.55 3.55 0 0 1-2.72 1.08zm.09-6.85c-.77 0-1.38.27-1.83.8a3.23 3.23 0 0 0-.68 2.16c0 .9.23 1.6.69 2.1.45.52 1.06.78 1.82.78a2.2 2.2 0 0 0 1.79-.76c.42-.5.63-1.22.63-2.15 0-.93-.21-1.66-.63-2.16a2.19 2.19 0 0 0-1.8-.77zm5.11 6.4v-1.29c.66.48 1.38.73 2.16.73 1.06 0 1.58-.36 1.58-1.06 0-.2-.04-.37-.13-.5a1.35 1.35 0 0 0-.37-.38c-.15-.1-.33-.2-.54-.29l-.67-.27a8.63 8.63 0 0 1-.87-.4 2.64 2.64 0 0 1-.63-.45c-.17-.17-.3-.36-.39-.57a2.03 2.03 0 0 1-.12-.76c0-.35.08-.66.24-.93.16-.27.37-.5.64-.68a3 3 0 0 1 .92-.42 4.3 4.3 0 0 1 2.8.2l.01 1.22a3.4 3.4 0 0 0-2.51-.47c-.18.05-.34.13-.47.22a1 1 0 0 0-.3.33.88.88 0 0 0-.1.43c0 .2.03.36.1.49s.18.25.31.35c.14.1.3.2.5.28l.67.27c.33.13.63.26.9.4.26.13.48.28.67.45.18.17.32.36.42.58.1.22.15.48.15.78 0 .37-.08.7-.24.97-.16.27-.38.5-.66.68a3 3 0 0 1-.94.4c-.36.1-.73.14-1.12.14-.77 0-1.44-.15-2-.45zm6.37 0v-1.29c.65.48 1.37.73 2.16.73 1.05 0 1.58-.36 1.58-1.06 0-.2-.05-.37-.14-.5a1.35 1.35 0 0 0-.36-.38c-.16-.1-.34-.2-.54-.29l-.67-.27a8.63 8.63 0 0 1-.88-.4 2.64 2.64 0 0 1-.63-.45c-.17-.17-.3-.36-.38-.57a2.03 2.03 0 0 1-.13-.76c0-.35.08-.66.24-.93.16-.27.38-.5.65-.68a3 3 0 0 1 .92-.42 4.3 4.3 0 0 1 2.8.2v1.22a3.4 3.4 0 0 0-2.5-.47c-.19.05-.34.13-.47.22a1 1 0 0 0-.3.33.88.88 0 0 0-.1.43c0 .2.03.36.1.49s.17.25.3.35c.15.1.31.2.5.28l.67.27c.34.13.63.26.9.4.26.13.49.28.67.45.19.17.33.36.43.58.1.22.15.48.15.78 0 .37-.08.7-.25.97-.16.27-.38.5-.65.68a3 3 0 0 1-.95.4c-.35.1-.73.14-1.12.14-.77 0-1.44-.15-2-.45zm21.57.27h-1.2v-4.3c0-.84-.13-1.44-.38-1.8-.26-.38-.69-.57-1.3-.57-.5 0-.94.24-1.3.7a2.69 2.69 0 0 0-.54 1.7V122h-1.2v-4.45c0-1.48-.57-2.22-1.7-2.22-.54 0-.97.23-1.31.67a2.74 2.74 0 0 0-.51 1.72V122h-1.2v-7.5h1.2v1.19h.02c.54-.91 1.31-1.37 2.33-1.37a2.17 2.17 0 0 1 2.13 1.56 2.68 2.68 0 0 1 2.49-1.56c1.65 0 2.47 1.02 2.47 3.06V122zm8.34 0h-1.2v-1.19h-.03c-.5.91-1.27 1.37-2.32 1.37-1.78 0-2.68-1.07-2.68-3.2v-4.48h1.2v4.3c0 1.57.6 2.37 1.81 2.37.59 0 1.07-.22 1.45-.65.38-.44.57-1 .57-1.7v-4.32h1.2v7.5zm3.62 0h-1.2v-11.1h1.2V122zm5.91-.07c-.28.15-.65.23-1.12.23-1.3 0-1.97-.73-1.97-2.2v-4.43h-1.29v-1.03h1.3v-1.83l1.2-.39v2.22h1.88v1.03h-1.88v4.22c0 .5.08.86.25 1.08.17.21.46.32.85.32.3 0 .57-.08.78-.25v1.03zm2.22-9.33a.76.76 0 0 1-.77-.78.75.75 0 0 1 .78-.78.78.78 0 0 1 .79.78c0 .21-.08.4-.24.55a.77.77 0 0 1-.56.23zm.59 9.4h-1.2v-7.5h1.2v7.5zm3.66-1.08h-.03v4.53h-1.2V114.5h1.2v1.32h.03c.6-1 1.46-1.5 2.6-1.5.96 0 1.72.34 2.26 1.01.54.67.81 1.57.81 2.7 0 1.26-.3 2.26-.91 3.01a3.05 3.05 0 0 1-2.5 1.14 2.5 2.5 0 0 1-2.26-1.26zm-.03-3.03v1.05c0 .62.2 1.14.6 1.58a2 2 0 0 0 1.54.65c.73 0 1.3-.28 1.71-.84.41-.56.62-1.33.62-2.32 0-.84-.2-1.5-.58-1.96-.38-.48-.9-.72-1.57-.72-.7 0-1.26.25-1.68.73-.42.49-.64 1.1-.64 1.83zm8.82 4.11h-1.2v-11.1h1.2V122zm8.46-3.45h-5.3c.02.84.25 1.48.68 1.93.43.46 1.02.69 1.77.69.85 0 1.62-.28 2.33-.84v1.13c-.66.48-1.53.72-2.61.72-1.06 0-1.9-.34-2.5-1.03-.6-.68-.91-1.64-.91-2.87a4.1 4.1 0 0 1 1-2.85 3.18 3.18 0 0 1 2.46-1.1c.98 0 1.74.31 2.27.95.54.63.81 1.51.81 2.64v.63zm-1.23-1.02c0-.7-.17-1.23-.5-1.62a1.7 1.7 0 0 0-1.37-.58c-.57 0-1.05.2-1.45.61-.4.4-.64.94-.73 1.6h4.05zm16.6-3.03l-2.24 7.5h-1.25l-1.54-5.37a3.5 3.5 0 0 1-.12-.7h-.03c-.02.18-.07.4-.16.69L474.7 122h-1.2l-2.27-7.5h1.26l1.55 5.64c.05.17.08.4.1.67h.06c.01-.21.06-.44.13-.69l1.73-5.62h1.1l1.55 5.65c.05.18.09.41.11.68h.06c0-.2.05-.42.12-.68l1.53-5.65h1.18zm7.42 4.05h-5.3c.03.84.25 1.48.68 1.93.43.46 1.02.69 1.77.69.85 0 1.63-.28 2.33-.84v1.13c-.66.48-1.53.72-2.61.72-1.06 0-1.9-.34-2.5-1.03-.6-.68-.9-1.64-.9-2.87a4.1 4.1 0 0 1 .99-2.85 3.18 3.18 0 0 1 2.46-1.1c.98 0 1.74.31 2.28.95.53.63.8 1.51.8 2.64v.63zm-1.23-1.02c0-.7-.17-1.23-.5-1.62a1.7 1.7 0 0 0-1.37-.58c-.57 0-1.05.2-1.44.61-.4.4-.64.94-.74 1.6h4.05zm4.28 3.39h-.03V122h-1.2v-11.1h1.2v4.92h.03c.6-1 1.46-1.5 2.6-1.5.96 0 1.7.34 2.25 1.01.55.67.82 1.57.82 2.7 0 1.26-.3 2.26-.92 3.01a3.05 3.05 0 0 1-2.5 1.14c-1 0-1.74-.42-2.25-1.26zm-.03-3.03v1.05c0 .62.2 1.14.6 1.58a2 2 0 0 0 1.54.65c.73 0 1.3-.28 1.71-.84.41-.56.62-1.33.62-2.32 0-.84-.2-1.5-.58-1.96-.39-.48-.9-.72-1.57-.72-.7 0-1.26.25-1.68.73-.43.49-.64 1.1-.64 1.83zm7.16 3.84v-1.29c.66.48 1.38.73 2.16.73 1.06 0 1.59-.36 1.59-1.06 0-.2-.05-.37-.14-.5a1.35 1.35 0 0 0-.36-.38c-.16-.1-.34-.2-.55-.29l-.67-.27a8.63 8.63 0 0 1-.87-.4 2.64 2.64 0 0 1-.63-.45c-.17-.17-.3-.36-.38-.57a2.03 2.03 0 0 1-.13-.76c0-.35.08-.66.24-.93.16-.27.38-.5.65-.68a3 3 0 0 1 .91-.42 4.3 4.3 0 0 1 2.8.2l.01 1.22a3.4 3.4 0 0 0-2.5-.47c-.19.05-.34.13-.47.22a1 1 0 0 0-.3.33.88.88 0 0 0-.11.43c0 .2.03.36.1.49.08.13.18.25.32.35.13.1.3.2.5.28l.66.27c.33.13.63.26.9.4.26.13.48.28.67.45.18.17.33.36.43.58.1.22.15.48.15.78 0 .37-.08.7-.25.97-.16.27-.38.5-.65.68a3 3 0 0 1-.95.4c-.35.1-.73.14-1.12.14-.77 0-1.44-.15-2-.45zm7.44-9.13a.76.76 0 0 1-.78-.78c0-.23.08-.41.23-.56a.75.75 0 0 1 .55-.22.78.78 0 0 1 .79.78c0 .21-.08.4-.23.55a.77.77 0 0 1-.56.23zm.58 9.4h-1.2v-7.5h1.2v7.5zm5.91-.07c-.28.15-.65.23-1.12.23-1.3 0-1.97-.73-1.97-2.2v-4.43h-1.29v-1.03h1.3v-1.83l1.2-.39v2.22h1.88v1.03h-1.88v4.22c0 .5.08.86.25 1.08.17.21.46.32.85.32.3 0 .57-.08.78-.25v1.03zm7.64-3.38h-5.3c.02.84.25 1.48.68 1.93.42.46 1.02.69 1.77.69.84 0 1.62-.28 2.33-.84v1.13c-.66.48-1.53.72-2.62.72-1.06 0-1.89-.34-2.5-1.03-.6-.68-.9-1.64-.9-2.87a4.1 4.1 0 0 1 .99-2.85 3.18 3.18 0 0 1 2.46-1.1c.98 0 1.74.31 2.28.95.54.63.8 1.51.8 2.64v.63zm-1.23-1.02c0-.7-.18-1.23-.5-1.62a1.7 1.7 0 0 0-1.38-.58c-.57 0-1.05.2-1.44.61-.4.4-.64.94-.73 1.6h4.05zm2.59 4.2v-1.29c.65.48 1.37.73 2.16.73 1.05 0 1.58-.36 1.58-1.06 0-.2-.04-.37-.13-.5a1.35 1.35 0 0 0-.37-.38c-.15-.1-.33-.2-.54-.29l-.67-.27a8.63 8.63 0 0 1-.88-.4 2.64 2.64 0 0 1-.63-.45c-.17-.17-.3-.36-.38-.57a2.03 2.03 0 0 1-.13-.76c0-.35.08-.66.25-.93.16-.27.37-.5.64-.68a3 3 0 0 1 .92-.42 4.3 4.3 0 0 1 2.8.2v1.22a3.4 3.4 0 0 0-2.5-.47c-.18.05-.34.13-.47.22a1 1 0 0 0-.3.33.88.88 0 0 0-.1.43c0 .2.03.36.1.49s.17.25.31.35c.14.1.3.2.5.28l.67.27c.33.13.63.26.89.4.26.13.49.28.67.45.19.17.33.36.43.58.1.22.15.48.15.78 0 .37-.08.7-.24.97-.17.27-.39.5-.66.68a3 3 0 0 1-.94.4c-.36.1-.73.14-1.12.14-.78 0-1.44-.15-2.01-.45zm7.24.43a.78.78 0 0 1-.58-.24.8.8 0 0 1-.24-.58.8.8 0 0 1 .24-.58.77.77 0 0 1 .58-.25.8.8 0 0 1 .58.25.8.8 0 0 1 .24.58c0 .23-.08.42-.24.58a.8.8 0 0 1-.58.24zm13.31-9.55h-3.03V122h-1.23v-9.39h-3.03v-1.11h7.3v1.11zm5.4 3.1a1.47 1.47 0 0 0-.9-.24c-.52 0-.95.25-1.3.73a3.35 3.35 0 0 0-.51 1.98V122h-1.2v-7.5h1.2v1.55h.03c.17-.53.43-.94.78-1.24.35-.3.75-.44 1.18-.44.31 0 .55.03.72.1v1.25zm6.67 6.29h-1.2v-1.17h-.03c-.52.9-1.3 1.35-2.3 1.35-.75 0-1.34-.2-1.76-.6-.42-.4-.63-.92-.63-1.57 0-1.4.82-2.22 2.47-2.45l2.25-.31c0-1.28-.52-1.92-1.55-1.92-.9 0-1.71.31-2.44.93v-1.23c.74-.47 1.59-.7 2.55-.7 1.76 0 2.64.93 2.64 2.8V122zm-1.2-3.8l-1.8.26c-.57.07-.99.21-1.27.4-.28.2-.42.56-.42 1.06 0 .37.13.67.39.9.26.23.6.35 1.04.35.6 0 1.09-.21 1.48-.63.39-.42.58-.95.58-1.59v-.74zm8.58 3.46a3.9 3.9 0 0 1-2.05.52 3.4 3.4 0 0 1-2.6-1.05c-.65-.7-.98-1.6-.98-2.7 0-1.24.36-2.23 1.06-2.98a3.72 3.72 0 0 1 2.84-1.13c.66 0 1.24.13 1.74.37v1.23a3.05 3.05 0 0 0-1.79-.59c-.76 0-1.4.28-1.88.83-.5.55-.74 1.27-.74 2.16 0 .88.23 1.58.7 2.08.46.51 1.07.77 1.85.77.66 0 1.27-.22 1.85-.66v1.15zm8.04.34h-1.69l-3.3-3.6h-.04v3.6h-1.2v-11.1h1.2v7.04h.03l3.15-3.44H570l-3.48 3.62 3.75 3.88zm1.84-9.4a.76.76 0 0 1-.77-.78.75.75 0 0 1 .78-.78.78.78 0 0 1 .79.78c0 .21-.08.4-.24.55a.77.77 0 0 1-.56.23zm.59 9.4h-1.2v-7.5h1.2v7.5zm8.66 0h-1.2v-4.28c0-1.59-.58-2.39-1.75-2.39-.6 0-1.1.23-1.49.68-.39.45-.59 1.02-.59 1.71V122h-1.2v-7.5h1.2v1.25h.03a2.7 2.7 0 0 1 2.46-1.43c.82 0 1.45.27 1.89.8.43.53.65 1.3.65 2.3V122zm8.66-.6c0 2.75-1.32 4.13-3.95 4.13-.93 0-1.74-.18-2.43-.53v-1.2a5 5 0 0 0 2.41.7c1.85 0 2.77-.98 2.77-2.94v-.82h-.03a2.8 2.8 0 0 1-2.58 1.44c-.93 0-1.68-.34-2.25-1a4 4 0 0 1-.85-2.69c0-1.27.3-2.29.92-3.04a3.07 3.07 0 0 1 2.51-1.13c1.01 0 1.76.4 2.25 1.22h.03v-1.04h1.2v6.9zm-1.2-2.8v-1.1c0-.6-.2-1.1-.6-1.53-.4-.42-.9-.64-1.5-.64-.75 0-1.33.27-1.75.81-.42.54-.63 1.3-.63 2.27 0 .84.2 1.5.6 2 .4.5.94.76 1.6.76a2.1 2.1 0 0 0 1.65-.72c.42-.48.63-1.1.63-1.84zm12.85 3.06a3.9 3.9 0 0 1-2.05.52 3.4 3.4 0 0 1-2.59-1.05c-.65-.7-.98-1.6-.98-2.7 0-1.24.35-2.23 1.06-2.98a3.72 3.72 0 0 1 2.84-1.13c.66 0 1.24.13 1.74.37v1.23a3.05 3.05 0 0 0-1.79-.59c-.76 0-1.4.28-1.88.83-.5.55-.74 1.27-.74 2.16 0 .88.23 1.58.7 2.08.45.51 1.07.77 1.85.77.65 0 1.27-.22 1.84-.66v1.15zm7.19.34h-1.2v-1.17h-.03c-.52.9-1.3 1.35-2.3 1.35-.75 0-1.34-.2-1.76-.6-.42-.4-.64-.92-.64-1.57 0-1.4.83-2.22 2.48-2.45l2.25-.31c0-1.28-.52-1.92-1.55-1.92-.9 0-1.72.31-2.44.93v-1.23c.73-.47 1.58-.7 2.55-.7 1.76 0 2.64.93 2.64 2.8V122zm-1.2-3.8l-1.81.26c-.56.07-.98.21-1.26.4-.28.2-.42.56-.42 1.06 0 .37.13.67.39.9.26.23.6.35 1.04.35.6 0 1.09-.21 1.48-.63.38-.42.58-.95.58-1.59v-.74zm9.69 3.8h-1.2v-4.28c0-1.59-.58-2.39-1.75-2.39-.6 0-1.1.23-1.49.68-.39.45-.59 1.02-.59 1.71V122h-1.2v-7.5h1.2v1.25h.03a2.7 2.7 0 0 1 2.46-1.43c.82 0 1.45.27 1.89.8.43.53.65 1.3.65 2.3V122zm7.6-1.08h-.03V122h-1.2v-11.1h1.2v4.92h.03c.6-1 1.46-1.5 2.6-1.5.96 0 1.7.34 2.25 1.01.55.67.82 1.57.82 2.7 0 1.26-.3 2.26-.92 3.01a3.05 3.05 0 0 1-2.5 1.14c-1 0-1.74-.42-2.25-1.26zm-.03-3.03v1.05c0 .62.2 1.14.6 1.58a2 2 0 0 0 1.54.65c.73 0 1.3-.28 1.71-.84.41-.56.62-1.33.62-2.32 0-.84-.2-1.5-.58-1.96-.38-.48-.9-.72-1.57-.72-.7 0-1.26.25-1.68.73-.43.49-.64 1.1-.64 1.83zm13.65.66h-5.3c.02.84.25 1.48.68 1.93.43.46 1.02.69 1.77.69.84 0 1.62-.28 2.33-.84v1.13c-.66.48-1.53.72-2.62.72-1.06 0-1.89-.34-2.5-1.03-.6-.68-.9-1.64-.9-2.87a4.1 4.1 0 0 1 .99-2.85 3.18 3.18 0 0 1 2.46-1.1c.98 0 1.74.31 2.28.95.54.63.8 1.51.8 2.64v.63zm-1.23-1.02c0-.7-.18-1.23-.5-1.62a1.7 1.7 0 0 0-1.38-.58c-.56 0-1.05.2-1.44.61-.4.4-.64.94-.73 1.6h4.05zm13.22 4.47h-1.2v-1.19h-.03c-.5.91-1.27 1.37-2.32 1.37-1.79 0-2.68-1.07-2.68-3.2v-4.48h1.2v4.3c0 1.57.6 2.37 1.81 2.37.59 0 1.07-.22 1.45-.65.38-.44.57-1 .57-1.7v-4.32h1.2v7.5zm1.97-.27v-1.29c.65.48 1.37.73 2.16.73 1.05 0 1.58-.36 1.58-1.06 0-.2-.05-.37-.14-.5a1.35 1.35 0 0 0-.36-.38c-.16-.1-.34-.2-.54-.29l-.67-.27a8.63 8.63 0 0 1-.88-.4 2.64 2.64 0 0 1-.63-.45c-.17-.17-.3-.36-.38-.57a2.03 2.03 0 0 1-.13-.76c0-.35.08-.66.24-.93.16-.27.38-.5.65-.68a3 3 0 0 1 .92-.42 4.3 4.3 0 0 1 2.8.2v1.22a3.4 3.4 0 0 0-2.5-.47c-.19.05-.34.13-.47.22a1 1 0 0 0-.3.33.88.88 0 0 0-.1.43c0 .2.03.36.1.49s.17.25.3.35c.15.1.31.2.5.28l.67.27c.34.13.63.26.9.4.26.13.49.28.67.45.19.17.33.36.43.58.1.22.15.48.15.78 0 .37-.08.7-.25.97-.16.27-.38.5-.65.68a3 3 0 0 1-.95.4c-.35.1-.73.14-1.12.14-.77 0-1.44-.15-2-.45zm12.84-3.18h-5.3c.03.84.25 1.48.68 1.93.43.46 1.02.69 1.77.69.85 0 1.63-.28 2.33-.84v1.13c-.66.48-1.53.72-2.61.72-1.06 0-1.9-.34-2.5-1.03-.6-.68-.9-1.64-.9-2.87a4.1 4.1 0 0 1 .99-2.85 3.18 3.18 0 0 1 2.46-1.1c.98 0 1.74.31 2.28.95.53.63.8 1.51.8 2.64v.63zm-1.23-1.02c0-.7-.17-1.23-.5-1.62a1.7 1.7 0 0 0-1.37-.58c-.57 0-1.05.2-1.44.61-.4.4-.64.94-.74 1.6h4.05zm9.45 4.47h-1.2v-1.27h-.03a2.77 2.77 0 0 1-2.58 1.45 2.8 2.8 0 0 1-2.26-1.01 4.13 4.13 0 0 1-.84-2.74c0-1.24.31-2.24.93-2.99a3.1 3.1 0 0 1 2.5-1.12c1.03 0 1.78.4 2.25 1.22h.03v-4.64h1.2V122zm-1.2-3.4v-1.1c0-.6-.2-1.12-.6-1.54-.4-.42-.9-.63-1.52-.63-.74 0-1.31.27-1.73.81a3.53 3.53 0 0 0-.63 2.23c0 .86.2 1.54.6 2.04.4.5.95.76 1.62.76.67 0 1.22-.25 1.63-.73.42-.48.63-1.1.63-1.83zm11.22 3.33c-.28.15-.66.23-1.12.23-1.31 0-1.97-.73-1.97-2.2v-4.43h-1.29v-1.03h1.29v-1.83l1.2-.39v2.22h1.9v1.03h-1.9v4.22c0 .5.09.86.26 1.08.17.21.45.32.85.32.3 0 .56-.08.78-.25v1.03zm4.74.25c-1.1 0-2-.35-2.66-1.06a3.9 3.9 0 0 1-.99-2.78c0-1.26.35-2.25 1.03-2.95a3.71 3.71 0 0 1 2.8-1.07c1.11 0 1.99.35 2.61 1.04.63.69.94 1.64.94 2.86 0 1.2-.33 2.16-1 2.88a3.55 3.55 0 0 1-2.73 1.08zm.09-6.85c-.77 0-1.38.27-1.83.8a3.23 3.23 0 0 0-.68 2.16c0 .9.23 1.6.68 2.1.46.52 1.07.78 1.83.78a2.2 2.2 0 0 0 1.79-.76c.42-.5.62-1.22.62-2.15 0-.93-.2-1.66-.62-2.16a2.19 2.19 0 0 0-1.8-.77zm-636 27.59h-.02V144h-1.2v-11.1h1.2v4.92h.03c.59-1 1.45-1.5 2.59-1.5.96 0 1.71.34 2.26 1.01.54.67.82 1.57.82 2.7 0 1.26-.31 2.26-.92 3.01a3.05 3.05 0 0 1-2.5 1.14c-1 0-1.75-.42-2.25-1.26zm-.02-3.03v1.05c0 .62.2 1.14.6 1.58a2 2 0 0 0 1.54.65c.72 0 1.3-.28 1.7-.84.42-.56.62-1.33.62-2.32 0-.84-.19-1.5-.57-1.96-.39-.48-.91-.72-1.57-.72-.7 0-1.26.25-1.69.73-.42.49-.63 1.1-.63 1.83zM66.1 144h-1.2v-1.19h-.03c-.5.91-1.27 1.37-2.32 1.37-1.78 0-2.68-1.07-2.68-3.2v-4.48h1.2v4.3c0 1.57.6 2.37 1.81 2.37.59 0 1.07-.22 1.45-.65.38-.44.57-1 .57-1.7v-4.32h1.2v7.5zm3.04-9.4a.76.76 0 0 1-.78-.78c0-.23.08-.41.23-.56a.75.75 0 0 1 .55-.22.78.78 0 0 1 .79.78c0 .21-.08.4-.23.55a.77.77 0 0 1-.56.23zm.58 9.4h-1.2v-7.5h1.2v7.5zm3.64 0h-1.2v-11.1h1.2V144zm8.83 0h-1.2v-1.27h-.03a2.77 2.77 0 0 1-2.58 1.45 2.8 2.8 0 0 1-2.26-1.01 4.13 4.13 0 0 1-.84-2.74c0-1.24.3-2.24.93-2.99a3.1 3.1 0 0 1 2.5-1.12c1.03 0 1.78.4 2.25 1.22h.03v-4.64h1.2V144zm-1.2-3.4v-1.1c0-.6-.2-1.12-.6-1.54-.4-.42-.91-.63-1.53-.63-.73 0-1.3.27-1.72.81a3.53 3.53 0 0 0-.63 2.23c0 .86.2 1.54.6 2.04.4.5.94.76 1.62.76.67 0 1.22-.25 1.63-.73.42-.48.63-1.1.63-1.83zm13.1 3.4h-1.2v-1.17h-.02c-.52.9-1.3 1.35-2.3 1.35-.76 0-1.34-.2-1.76-.6-.42-.4-.64-.92-.64-1.57 0-1.4.83-2.22 2.48-2.45l2.25-.31c0-1.28-.52-1.92-1.55-1.92-.9 0-1.72.31-2.44.93v-1.23c.73-.47 1.58-.7 2.55-.7 1.76 0 2.64.93 2.64 2.8V144zm-1.2-3.8l-1.8.26c-.56.07-.98.21-1.26.4-.28.2-.43.56-.43 1.06 0 .37.13.67.4.9.26.23.6.35 1.04.35.6 0 1.09-.21 1.48-.63.38-.42.58-.95.58-1.59v-.74zm8.81 2.72h-.03v4.53h-1.2V136.5h1.2v1.32h.03c.6-1 1.46-1.5 2.6-1.5.96 0 1.72.34 2.26 1.01.54.67.81 1.57.81 2.7 0 1.26-.3 2.26-.91 3.01a3.05 3.05 0 0 1-2.51 1.14 2.5 2.5 0 0 1-2.25-1.26zm-.03-3.03v1.05c0 .62.2 1.14.6 1.58a2 2 0 0 0 1.54.65c.73 0 1.3-.28 1.71-.84.41-.56.62-1.33.62-2.32 0-.84-.2-1.5-.58-1.96-.38-.48-.9-.72-1.57-.72-.7 0-1.26.25-1.68.73-.43.49-.64 1.1-.64 1.83zm11.53-2.17a1.47 1.47 0 0 0-.9-.25c-.52 0-.95.25-1.3.73a3.35 3.35 0 0 0-.5 1.98V144h-1.21v-7.5h1.2v1.55h.03c.17-.53.43-.94.78-1.24.36-.3.75-.44 1.18-.44.32 0 .55.03.72.1v1.25zm4.44 6.46c-1.1 0-2-.35-2.66-1.06a3.9 3.9 0 0 1-.99-2.78c0-1.26.35-2.25 1.03-2.95a3.71 3.71 0 0 1 2.8-1.07c1.11 0 1.99.35 2.61 1.04.63.69.94 1.64.94 2.86 0 1.2-.33 2.16-1.01 2.88a3.55 3.55 0 0 1-2.72 1.08zm.09-6.85c-.77 0-1.38.27-1.83.8a3.23 3.23 0 0 0-.68 2.16c0 .9.23 1.6.68 2.1.46.52 1.07.78 1.83.78a2.2 2.2 0 0 0 1.79-.76c.42-.5.62-1.22.62-2.15 0-.93-.2-1.66-.62-2.16a2.19 2.19 0 0 0-1.8-.77zm9.27-3.38a1.6 1.6 0 0 0-.8-.2c-.84 0-1.26.53-1.26 1.6v1.15h1.76v1.03h-1.76V144h-1.2v-6.47h-1.27v-1.03h1.28v-1.22c0-.78.22-1.4.68-1.86a2.3 2.3 0 0 1 1.7-.68c.36 0 .65.04.87.13v1.08zm1.6.65a.76.76 0 0 1-.77-.78.75.75 0 0 1 .78-.78.78.78 0 0 1 .78.78c0 .21-.07.4-.23.55a.77.77 0 0 1-.56.23zm.59 9.4h-1.2v-7.5h1.2v7.5zm3.63 0h-1.2v-11.1h1.2V144zm8.46-3.45h-5.3c.03.84.25 1.48.68 1.93.43.46 1.02.69 1.77.69.85 0 1.62-.28 2.33-.84v1.13c-.66.48-1.53.72-2.61.72-1.06 0-1.9-.34-2.5-1.03-.6-.68-.9-1.64-.9-2.87a4.1 4.1 0 0 1 .98-2.85 3.18 3.18 0 0 1 2.47-1.1c.98 0 1.74.31 2.28.95.53.63.8 1.51.8 2.64v.63zm-1.23-1.02c0-.7-.17-1.23-.5-1.62a1.7 1.7 0 0 0-1.37-.58c-.57 0-1.05.2-1.45.61-.4.4-.64.94-.73 1.6h4.05zm12.53 4.47h-1.2v-1.17h-.03c-.53.9-1.3 1.35-2.31 1.35-.75 0-1.33-.2-1.76-.6-.42-.4-.63-.92-.63-1.57 0-1.4.83-2.22 2.48-2.45l2.24-.31c0-1.28-.51-1.92-1.54-1.92-.9 0-1.72.31-2.45.93v-1.23c.74-.47 1.59-.7 2.55-.7 1.76 0 2.65.93 2.65 2.8V144zm-1.2-3.8l-1.81.26c-.56.07-.98.21-1.26.4-.29.2-.43.56-.43 1.06 0 .37.13.67.4.9.25.23.6.35 1.04.35.6 0 1.08-.21 1.47-.63.39-.42.58-.95.58-1.59v-.74zm9.68 3.8h-1.2v-4.28c0-1.59-.58-2.39-1.74-2.39-.6 0-1.1.23-1.49.68-.4.45-.59 1.02-.59 1.71V144h-1.2v-7.5h1.2v1.25h.03a2.7 2.7 0 0 1 2.46-1.43c.82 0 1.45.27 1.88.8.44.53.65 1.3.65 2.3V144zm8.67 0h-1.2v-1.27h-.03a2.77 2.77 0 0 1-2.58 1.45 2.8 2.8 0 0 1-2.26-1.01 4.13 4.13 0 0 1-.85-2.74c0-1.24.32-2.24.94-2.99a3.1 3.1 0 0 1 2.5-1.12c1.03 0 1.78.4 2.25 1.22h.03v-4.64h1.2V144zm-1.2-3.4v-1.1c0-.6-.2-1.12-.6-1.54-.4-.42-.91-.63-1.53-.63-.73 0-1.3.27-1.72.81a3.53 3.53 0 0 0-.63 2.23c0 .86.2 1.54.6 2.04.4.5.94.76 1.62.76.67 0 1.21-.25 1.63-.73.42-.48.63-1.1.63-1.83zm14.14 3.4h-1.2v-1.27h-.03a2.77 2.77 0 0 1-2.58 1.45 2.8 2.8 0 0 1-2.26-1.01 4.13 4.13 0 0 1-.84-2.74c0-1.24.3-2.24.93-2.99a3.1 3.1 0 0 1 2.5-1.12c1.03 0 1.78.4 2.25 1.22h.03v-4.64h1.2V144zm-1.2-3.4v-1.1c0-.6-.2-1.12-.6-1.54-.4-.42-.9-.63-1.52-.63-.74 0-1.31.27-1.73.81a3.53 3.53 0 0 0-.63 2.23c0 .86.2 1.54.6 2.04.4.5.95.76 1.62.76.67 0 1.22-.25 1.63-.73.42-.48.63-1.1.63-1.83zm4.25-6a.76.76 0 0 1-.78-.78c0-.23.08-.41.23-.56a.75.75 0 0 1 .55-.22.78.78 0 0 1 .79.78c0 .21-.08.4-.23.55a.77.77 0 0 1-.56.23zm.58 9.4h-1.2v-7.5h1.2v7.5zm1.98-.27v-1.29c.66.48 1.38.73 2.16.73 1.06 0 1.58-.36 1.58-1.06 0-.2-.04-.37-.13-.5a1.35 1.35 0 0 0-.37-.38c-.15-.1-.33-.2-.54-.29l-.67-.27a8.63 8.63 0 0 1-.88-.4 2.64 2.64 0 0 1-.63-.45c-.16-.17-.29-.36-.38-.57a2.03 2.03 0 0 1-.12-.76c0-.35.08-.66.24-.93.16-.27.37-.5.64-.68a3 3 0 0 1 .92-.42 4.3 4.3 0 0 1 2.8.2l.01 1.22a3.4 3.4 0 0 0-2.51-.47c-.18.05-.34.13-.47.22a1 1 0 0 0-.3.33.88.88 0 0 0-.1.43c0 .2.03.36.1.49s.18.25.31.35c.14.1.3.2.5.28l.67.27c.33.13.63.26.9.4.26.13.48.28.67.45.18.17.32.36.42.58.1.22.15.48.15.78 0 .37-.08.7-.24.97-.16.27-.38.5-.66.68a3 3 0 0 1-.94.4c-.36.1-.73.14-1.12.14-.77 0-1.44-.15-2-.45zm8.05-.81h-.03v4.53h-1.2V136.5h1.2v1.32h.03c.6-1 1.46-1.5 2.6-1.5.96 0 1.71.34 2.26 1.01.54.67.81 1.57.81 2.7 0 1.26-.3 2.26-.92 3.01a3.05 3.05 0 0 1-2.5 1.14 2.5 2.5 0 0 1-2.25-1.26zm-.03-3.03v1.05c0 .62.2 1.14.6 1.58a2 2 0 0 0 1.54.65c.73 0 1.3-.28 1.71-.84.41-.56.62-1.33.62-2.32 0-.84-.2-1.5-.58-1.96-.39-.48-.9-.72-1.57-.72-.7 0-1.26.25-1.68.73-.43.49-.64 1.1-.64 1.83zm8.82 4.11h-1.2v-11.1h1.2V144zm7.8 0h-1.2v-1.17h-.03c-.52.9-1.3 1.35-2.3 1.35-.75 0-1.34-.2-1.76-.6-.42-.4-.64-.92-.64-1.57 0-1.4.83-2.22 2.48-2.45l2.25-.31c0-1.28-.52-1.92-1.55-1.92-.9 0-1.72.31-2.44.93v-1.23c.73-.47 1.58-.7 2.55-.7 1.76 0 2.64.93 2.64 2.8V144zm-1.2-3.8l-1.81.26c-.56.07-.98.21-1.26.4-.28.2-.42.56-.42 1.06 0 .37.13.67.39.9.26.23.6.35 1.04.35.6 0 1.09-.21 1.48-.63.38-.42.58-.95.58-1.59v-.74zm9.43-3.7l-3.45 8.7c-.61 1.55-1.48 2.33-2.59 2.33-.31 0-.57-.03-.78-.1v-1.07c.25.09.5.13.7.13.61 0 1.07-.36 1.37-1.08l.6-1.42-2.93-7.49h1.33l2.03 5.77.16.57h.04c.02-.11.07-.3.15-.55l2.13-5.79h1.24zm10.51 7.16a3.9 3.9 0 0 1-2.05.52 3.4 3.4 0 0 1-2.59-1.05c-.65-.7-.98-1.6-.98-2.7 0-1.24.35-2.23 1.06-2.98a3.72 3.72 0 0 1 2.83-1.13c.66 0 1.24.13 1.75.37v1.23a3.05 3.05 0 0 0-1.79-.59c-.77 0-1.4.28-1.89.83-.49.55-.73 1.27-.73 2.16 0 .88.23 1.58.69 2.08.46.51 1.08.77 1.86.77.65 0 1.27-.22 1.84-.66v1.15zm4.95.52c-1.1 0-1.99-.35-2.65-1.06a3.9 3.9 0 0 1-1-2.78c0-1.26.35-2.25 1.04-2.95a3.71 3.71 0 0 1 2.79-1.07c1.12 0 2 .35 2.62 1.04.63.69.94 1.64.94 2.86 0 1.2-.34 2.16-1.02 2.88a3.55 3.55 0 0 1-2.72 1.08zm.1-6.85c-.78 0-1.39.27-1.84.8a3.23 3.23 0 0 0-.67 2.16c0 .9.22 1.6.68 2.1.45.52 1.06.78 1.82.78a2.2 2.2 0 0 0 1.8-.76c.41-.5.62-1.22.62-2.15 0-.93-.21-1.66-.63-2.16a2.19 2.19 0 0 0-1.79-.77zm11.78 6.67h-1.2v-4.28c0-1.59-.58-2.39-1.74-2.39-.6 0-1.1.23-1.5.68-.38.45-.58 1.02-.58 1.71V144h-1.2v-7.5h1.2v1.25h.03a2.7 2.7 0 0 1 2.46-1.43c.82 0 1.45.27 1.88.8.44.53.65 1.3.65 2.3V144zm5.75-.07c-.29.15-.66.23-1.12.23-1.32 0-1.97-.73-1.97-2.2v-4.43h-1.3v-1.03h1.3v-1.83l1.2-.39v2.22h1.89v1.03h-1.9v4.22c0 .5.1.86.26 1.08.17.21.46.32.85.32.3 0 .57-.08.79-.25v1.03zm7.63-3.38h-5.3c.02.84.25 1.48.68 1.93.43.46 1.02.69 1.77.69.84 0 1.62-.28 2.33-.84v1.13c-.66.48-1.53.72-2.62.72-1.06 0-1.89-.34-2.5-1.03-.6-.68-.9-1.64-.9-2.87a4.1 4.1 0 0 1 .99-2.85 3.18 3.18 0 0 1 2.46-1.1c.99 0 1.74.31 2.28.95.54.63.8 1.51.8 2.64v.63zm-1.23-1.02c0-.7-.17-1.23-.5-1.62a1.7 1.7 0 0 0-1.38-.58c-.56 0-1.05.2-1.44.61-.4.4-.64.94-.73 1.6h4.05zm9.27 4.47h-1.2v-4.28c0-1.59-.58-2.39-1.74-2.39-.6 0-1.1.23-1.5.68-.39.45-.58 1.02-.58 1.71V144h-1.2v-7.5h1.2v1.25h.02a2.7 2.7 0 0 1 2.47-1.43c.82 0 1.44.27 1.88.8.43.53.65 1.3.65 2.3V144zm5.74-.07c-.28.15-.65.23-1.12.23-1.31 0-1.97-.73-1.97-2.2v-4.43h-1.29v-1.03h1.3v-1.83l1.2-.39v2.22h1.88v1.03h-1.89v4.22c0 .5.09.86.26 1.08.17.21.45.32.85.32.3 0 .56-.08.78-.25v1.03zm6.95-1.01h-.03V144h-1.2v-11.1h1.2v4.92h.03c.59-1 1.45-1.5 2.59-1.5.96 0 1.71.34 2.26 1.01.54.67.81 1.57.81 2.7 0 1.26-.3 2.26-.91 3.01a3.05 3.05 0 0 1-2.5 1.14c-1 0-1.75-.42-2.25-1.26zm-.03-3.03v1.05c0 .62.2 1.14.6 1.58a2 2 0 0 0 1.53.65c.73 0 1.3-.28 1.71-.84.42-.56.62-1.33.62-2.32 0-.84-.19-1.5-.57-1.96-.4-.48-.91-.72-1.57-.72-.7 0-1.26.25-1.69.73-.42.49-.63 1.1-.63 1.83zm12.98 4.11h-1.2v-1.17h-.03c-.52.9-1.29 1.35-2.3 1.35-.75 0-1.34-.2-1.76-.6-.42-.4-.63-.92-.63-1.57 0-1.4.82-2.22 2.47-2.45l2.25-.31c0-1.28-.51-1.92-1.54-1.92-.9 0-1.72.31-2.45.93v-1.23c.74-.47 1.59-.7 2.55-.7 1.76 0 2.64.93 2.64 2.8V144zm-1.2-3.8l-1.8.26c-.57.07-.99.21-1.27.4-.28.2-.42.56-.42 1.06 0 .37.13.67.39.9.26.23.6.35 1.04.35.6 0 1.09-.21 1.48-.63.39-.42.58-.95.58-1.59v-.74zm3.01 3.53v-1.29c.66.48 1.38.73 2.16.73 1.06 0 1.58-.36 1.58-1.06 0-.2-.04-.37-.13-.5a1.35 1.35 0 0 0-.37-.38c-.15-.1-.33-.2-.54-.29l-.67-.27a8.63 8.63 0 0 1-.88-.4 2.64 2.64 0 0 1-.63-.45c-.16-.17-.3-.36-.38-.57a2.03 2.03 0 0 1-.12-.76c0-.35.08-.66.24-.93.16-.27.37-.5.64-.68a3 3 0 0 1 .92-.42 4.3 4.3 0 0 1 2.8.2l.01 1.22a3.4 3.4 0 0 0-2.51-.47c-.18.05-.34.13-.47.22a1 1 0 0 0-.3.33.88.88 0 0 0-.1.43c0 .2.03.36.1.49s.18.25.31.35c.14.1.3.2.5.28l.67.27c.33.13.63.26.9.4.26.13.48.28.67.45.18.17.32.36.42.58.1.22.15.48.15.78 0 .37-.08.7-.24.97-.16.27-.38.5-.66.68a3 3 0 0 1-.94.4c-.36.1-.73.14-1.12.14-.77 0-1.44-.15-2-.45zm12.85-3.18h-5.3c.02.84.25 1.48.68 1.93.43.46 1.02.69 1.77.69.84 0 1.62-.28 2.33-.84v1.13c-.66.48-1.53.72-2.62.72-1.06 0-1.89-.34-2.5-1.03-.6-.68-.9-1.64-.9-2.87a4.1 4.1 0 0 1 .99-2.85 3.18 3.18 0 0 1 2.46-1.1c.99 0 1.74.31 2.28.95.54.63.8 1.51.8 2.64v.63zm-1.23-1.02c0-.7-.18-1.23-.5-1.62a1.7 1.7 0 0 0-1.38-.58c-.56 0-1.05.2-1.44.61-.4.4-.64.94-.73 1.6h4.05zm9.45 4.47h-1.2v-1.27h-.04a2.77 2.77 0 0 1-2.57 1.45 2.8 2.8 0 0 1-2.26-1.01 4.13 4.13 0 0 1-.85-2.74c0-1.24.31-2.24.94-2.99a3.1 3.1 0 0 1 2.5-1.12c1.03 0 1.78.4 2.24 1.22h.03v-4.64h1.2V144zm-1.2-3.4v-1.1c0-.6-.2-1.12-.6-1.54-.4-.42-.91-.63-1.53-.63-.73 0-1.3.27-1.73.81a3.53 3.53 0 0 0-.63 2.23c0 .86.2 1.54.6 2.04.4.5.95.76 1.63.76.67 0 1.21-.25 1.63-.73.42-.48.62-1.1.62-1.83zm10.87 3.58c-1.1 0-2-.35-2.65-1.06a3.9 3.9 0 0 1-1-2.78c0-1.26.35-2.25 1.04-2.95a3.71 3.71 0 0 1 2.79-1.07c1.11 0 1.99.35 2.61 1.04.63.69.95 1.64.95 2.86 0 1.2-.34 2.16-1.02 2.88a3.55 3.55 0 0 1-2.72 1.08zm.09-6.85c-.77 0-1.38.27-1.83.8a3.23 3.23 0 0 0-.68 2.16c0 .9.23 1.6.68 2.1.46.52 1.07.78 1.83.78a2.2 2.2 0 0 0 1.79-.76c.42-.5.63-1.22.63-2.15 0-.93-.21-1.66-.63-2.16a2.19 2.19 0 0 0-1.8-.77zm11.79 6.67h-1.2v-4.28c0-1.59-.58-2.39-1.74-2.39-.6 0-1.1.23-1.5.68-.39.45-.58 1.02-.58 1.71V144h-1.2v-7.5h1.2v1.25h.03a2.7 2.7 0 0 1 2.46-1.43c.82 0 1.44.27 1.88.8.43.53.65 1.3.65 2.3V144zm12.34-7.5l-3.45 8.7c-.61 1.55-1.48 2.33-2.6 2.33-.3 0-.56-.03-.77-.1v-1.07c.25.09.5.13.7.13.61 0 1.07-.36 1.37-1.08l.6-1.42-2.93-7.49h1.33l2.03 5.77c.03.07.08.27.15.57h.05c.02-.11.07-.3.15-.55l2.13-5.79h1.24zm4.43 7.68c-1.11 0-2-.35-2.66-1.06a3.9 3.9 0 0 1-1-2.78c0-1.26.35-2.25 1.04-2.95a3.71 3.71 0 0 1 2.8-1.07c1.11 0 1.98.35 2.61 1.04.63.69.94 1.64.94 2.86 0 1.2-.34 2.16-1.01 2.88a3.55 3.55 0 0 1-2.72 1.08zm.08-6.85c-.77 0-1.38.27-1.83.8a3.23 3.23 0 0 0-.67 2.16c0 .9.23 1.6.68 2.1.45.52 1.06.78 1.82.78a2.2 2.2 0 0 0 1.8-.76c.41-.5.62-1.22.62-2.15 0-.93-.2-1.66-.63-2.16a2.19 2.19 0 0 0-1.79-.77zm11.63 6.67h-1.2v-1.19h-.03c-.5.91-1.27 1.37-2.31 1.37-1.79 0-2.68-1.07-2.68-3.2v-4.48h1.2v4.3c0 1.57.6 2.37 1.8 2.37.6 0 1.08-.22 1.46-.65.37-.44.56-1 .56-1.7v-4.32h1.2v7.5zm6.34-6.28a1.47 1.47 0 0 0-.9-.25c-.52 0-.95.25-1.3.73a3.35 3.35 0 0 0-.51 1.98V144h-1.2v-7.5h1.2v1.55h.03c.17-.53.43-.94.78-1.24.35-.3.75-.44 1.18-.44.31 0 .55.03.72.1v1.25zm6.64 5.2h-.03V144h-1.2v-11.1h1.2v4.92h.03c.6-1 1.46-1.5 2.6-1.5.96 0 1.71.34 2.26 1.01.54.67.81 1.57.81 2.7 0 1.26-.3 2.26-.91 3.01a3.05 3.05 0 0 1-2.5 1.14c-1 0-1.75-.42-2.26-1.26zm-.03-3.03v1.05c0 .62.2 1.14.6 1.58a2 2 0 0 0 1.54.65c.73 0 1.3-.28 1.71-.84.42-.56.62-1.33.62-2.32 0-.84-.2-1.5-.58-1.96-.38-.48-.9-.72-1.56-.72-.7 0-1.26.25-1.69.73-.42.49-.64 1.1-.64 1.83zm11.53-2.17a1.47 1.47 0 0 0-.9-.25c-.52 0-.95.25-1.3.73a3.35 3.35 0 0 0-.5 1.98V144h-1.2v-7.5h1.2v1.55h.02c.17-.53.43-.94.78-1.24.36-.3.75-.44 1.18-.44.32 0 .56.03.72.1v1.25zm4.44 6.46c-1.1 0-2-.35-2.65-1.06a3.9 3.9 0 0 1-1-2.78c0-1.26.35-2.25 1.04-2.95a3.71 3.71 0 0 1 2.79-1.07c1.11 0 1.99.35 2.61 1.04.63.69.95 1.64.95 2.86 0 1.2-.34 2.16-1.02 2.88a3.55 3.55 0 0 1-2.72 1.08zm.09-6.85c-.77 0-1.38.27-1.83.8a3.23 3.23 0 0 0-.68 2.16c0 .9.23 1.6.68 2.1.46.52 1.07.78 1.83.78a2.2 2.2 0 0 0 1.79-.76c.42-.5.63-1.22.63-2.15 0-.93-.21-1.66-.63-2.16a2.19 2.19 0 0 0-1.8-.77zm15.01-.83l-2.25 7.5H409l-1.55-5.37a3.5 3.5 0 0 1-.11-.7h-.03c-.02.18-.07.4-.16.69l-1.67 5.38h-1.2l-2.28-7.5h1.26l1.56 5.64c.05.17.08.4.1.67h.06c.01-.21.06-.44.13-.69l1.73-5.62h1.1l1.55 5.65c.05.18.09.41.11.68h.06c0-.2.05-.42.12-.68l1.53-5.65h1.18zm.94 7.23v-1.29c.65.48 1.37.73 2.16.73 1.06 0 1.58-.36 1.58-1.06 0-.2-.04-.37-.13-.5a1.35 1.35 0 0 0-.37-.38c-.15-.1-.33-.2-.54-.29l-.67-.27a8.63 8.63 0 0 1-.88-.4 2.64 2.64 0 0 1-.63-.45c-.16-.17-.3-.36-.38-.57a2.03 2.03 0 0 1-.12-.76c0-.35.08-.66.24-.93.16-.27.37-.5.64-.68a3 3 0 0 1 .92-.42 4.3 4.3 0 0 1 2.8.2v1.22a3.4 3.4 0 0 0-2.5-.47c-.18.05-.34.13-.47.22a1 1 0 0 0-.3.33.88.88 0 0 0-.1.43c0 .2.03.36.1.49s.18.25.31.35c.14.1.3.2.5.28l.67.27c.33.13.63.26.9.4.25.13.48.28.66.45.19.17.33.36.43.58.1.22.15.48.15.78 0 .37-.08.7-.24.97-.17.27-.38.5-.66.68a3 3 0 0 1-.94.4c-.36.1-.73.14-1.12.14-.77 0-1.44-.15-2.01-.45zm7.43-9.13a.76.76 0 0 1-.77-.78c0-.23.07-.41.23-.56a.75.75 0 0 1 .54-.22.78.78 0 0 1 .8.78c0 .21-.08.4-.24.55a.77.77 0 0 1-.56.23zm.59 9.4h-1.2v-7.5h1.2v7.5zm8.66 0h-1.2v-4.28c0-1.59-.58-2.39-1.75-2.39-.6 0-1.1.23-1.49.68-.39.45-.59 1.02-.59 1.71V144h-1.2v-7.5h1.2v1.25h.03a2.7 2.7 0 0 1 2.46-1.43c.82 0 1.45.27 1.89.8.43.53.65 1.3.65 2.3V144zm8.66-.6c0 2.75-1.32 4.13-3.95 4.13-.93 0-1.74-.18-2.43-.53v-1.2a5 5 0 0 0 2.41.7c1.85 0 2.77-.98 2.77-2.94v-.82h-.03a2.8 2.8 0 0 1-2.58 1.44c-.93 0-1.68-.34-2.25-1a4 4 0 0 1-.85-2.69c0-1.27.3-2.29.92-3.04a3.07 3.07 0 0 1 2.51-1.13c1.01 0 1.76.4 2.25 1.22h.03v-1.04h1.2v6.9zm-1.2-2.8v-1.1c0-.6-.2-1.1-.6-1.53-.4-.42-.9-.64-1.5-.64-.75 0-1.33.27-1.75.81-.42.54-.63 1.3-.63 2.27 0 .84.2 1.5.6 2 .4.5.94.76 1.6.76a2.1 2.1 0 0 0 1.65-.72c.42-.48.63-1.1.63-1.84zm13.11 3.4h-1.2v-1.17h-.03c-.52.9-1.3 1.35-2.3 1.35-.75 0-1.34-.2-1.76-.6-.42-.4-.63-.92-.63-1.57 0-1.4.82-2.22 2.47-2.45l2.25-.31c0-1.28-.51-1.92-1.55-1.92-.9 0-1.71.31-2.44.93v-1.23c.74-.47 1.59-.7 2.55-.7 1.76 0 2.64.93 2.64 2.8V144zm-1.2-3.8l-1.8.26c-.57.07-.99.21-1.27.4-.28.2-.42.56-.42 1.06 0 .37.13.67.39.9.26.23.6.35 1.04.35.6 0 1.09-.21 1.48-.63.39-.42.58-.95.58-1.59v-.74zm9.69 3.8h-1.2v-4.28c0-1.59-.58-2.39-1.74-2.39-.6 0-1.1.23-1.5.68-.39.45-.58 1.02-.58 1.71V144h-1.2v-7.5h1.2v1.25h.03a2.7 2.7 0 0 1 2.46-1.43c.82 0 1.44.27 1.88.8.43.53.65 1.3.65 2.3V144zm8.66 0h-1.2v-1.27h-.03a2.77 2.77 0 0 1-2.57 1.45 2.8 2.8 0 0 1-2.26-1.01 4.13 4.13 0 0 1-.85-2.74c0-1.24.31-2.24.94-2.99a3.1 3.1 0 0 1 2.5-1.12c1.03 0 1.78.4 2.24 1.22h.03v-4.64h1.2V144zm-1.2-3.4v-1.1c0-.6-.2-1.12-.6-1.54-.4-.42-.9-.63-1.52-.63-.73 0-1.3.27-1.73.81a3.53 3.53 0 0 0-.63 2.23c0 .86.2 1.54.6 2.04.4.5.95.76 1.63.76.67 0 1.21-.25 1.63-.73.41-.48.62-1.1.62-1.83zm8.98 2.32h-.03v4.53h-1.2V136.5h1.2v1.32h.03c.59-1 1.45-1.5 2.59-1.5.97 0 1.72.34 2.26 1.01.54.67.81 1.57.81 2.7 0 1.26-.3 2.26-.91 3.01a3.05 3.05 0 0 1-2.5 1.14 2.5 2.5 0 0 1-2.25-1.26zm-.03-3.03v1.05c0 .62.2 1.14.6 1.58a2 2 0 0 0 1.54.65c.72 0 1.3-.28 1.7-.84.42-.56.62-1.33.62-2.32 0-.84-.19-1.5-.57-1.96-.39-.48-.91-.72-1.57-.72-.7 0-1.26.25-1.69.73-.42.49-.63 1.1-.63 1.83zm13.64.66h-5.3c.03.84.25 1.48.68 1.93.43.46 1.02.69 1.77.69.85 0 1.62-.28 2.33-.84v1.13c-.66.48-1.53.72-2.61.72-1.06 0-1.9-.34-2.5-1.03-.6-.68-.9-1.64-.9-2.87a4.1 4.1 0 0 1 .98-2.85 3.18 3.18 0 0 1 2.47-1.1c.98 0 1.74.31 2.28.95.53.63.8 1.51.8 2.64v.63zm-1.23-1.02c0-.7-.17-1.23-.5-1.62a1.7 1.7 0 0 0-1.37-.58c-.57 0-1.05.2-1.45.61-.4.4-.64.94-.73 1.6h4.05zm6.96-1.81a1.47 1.47 0 0 0-.9-.25c-.52 0-.95.25-1.3.73a3.35 3.35 0 0 0-.51 1.98V144h-1.2v-7.5h1.2v1.55h.03c.17-.53.43-.94.78-1.24.35-.3.75-.44 1.18-.44.31 0 .55.03.72.1v1.25zm.85 6v-1.28c.65.48 1.37.73 2.16.73 1.05 0 1.58-.36 1.58-1.06 0-.2-.04-.37-.13-.5a1.35 1.35 0 0 0-.37-.38c-.15-.1-.33-.2-.54-.29l-.67-.27a8.63 8.63 0 0 1-.88-.4 2.64 2.64 0 0 1-.63-.45c-.17-.17-.3-.36-.38-.57a2.03 2.03 0 0 1-.13-.76c0-.35.08-.66.24-.93.17-.27.38-.5.65-.68a3 3 0 0 1 .92-.42 4.3 4.3 0 0 1 2.8.2v1.22a3.4 3.4 0 0 0-2.5-.47c-.19.05-.34.13-.47.22a1 1 0 0 0-.3.33.88.88 0 0 0-.1.43c0 .2.03.36.1.49s.17.25.31.35c.14.1.3.2.5.28l.67.27c.33.13.63.26.89.4.26.13.49.28.67.45.19.17.33.36.43.58.1.22.15.48.15.78 0 .37-.08.7-.24.97-.17.27-.39.5-.66.68a3 3 0 0 1-.94.4c-.36.1-.73.14-1.12.14-.78 0-1.45-.15-2.01-.45zm9.95.46c-1.1 0-2-.35-2.65-1.06a3.9 3.9 0 0 1-1-2.78c0-1.26.35-2.25 1.04-2.95a3.71 3.71 0 0 1 2.79-1.07c1.12 0 1.99.35 2.62 1.04.62.69.94 1.64.94 2.86 0 1.2-.34 2.16-1.02 2.88a3.55 3.55 0 0 1-2.72 1.08zm.09-6.85c-.77 0-1.38.27-1.83.8a3.23 3.23 0 0 0-.67 2.16c0 .9.22 1.6.68 2.1.45.52 1.06.78 1.82.78a2.2 2.2 0 0 0 1.8-.76c.4-.5.62-1.22.62-2.15 0-.93-.21-1.66-.63-2.16a2.19 2.19 0 0 0-1.79-.77zm11.8 6.67h-1.2v-4.28c0-1.59-.59-2.39-1.75-2.39-.6 0-1.1.23-1.5.68-.39.45-.58 1.02-.58 1.71V144h-1.2v-7.5h1.2v1.25h.03a2.7 2.7 0 0 1 2.46-1.43c.82 0 1.45.27 1.88.8.43.53.65 1.3.65 2.3V144zm7.62 0h-1.2v-1.17h-.03c-.52.9-1.29 1.35-2.3 1.35-.75 0-1.34-.2-1.76-.6-.42-.4-.63-.92-.63-1.57 0-1.4.82-2.22 2.47-2.45l2.25-.31c0-1.28-.51-1.92-1.54-1.92-.9 0-1.72.31-2.45.93v-1.23c.74-.47 1.59-.7 2.55-.7 1.76 0 2.64.93 2.64 2.8V144zm-1.2-3.8l-1.8.26c-.56.07-.98.21-1.27.4-.28.2-.42.56-.42 1.06 0 .37.13.67.4.9.25.23.6.35 1.03.35.6 0 1.1-.21 1.48-.63.39-.42.58-.95.58-1.59v-.74zm4.67 3.8h-1.2v-11.1h1.2V144zm7.15-9.4a.76.76 0 0 1-.77-.78.75.75 0 0 1 .78-.78.78.78 0 0 1 .79.78c0 .21-.08.4-.24.55a.77.77 0 0 1-.56.23zm.59 9.4h-1.2v-7.5h1.2v7.5zm8.66 0h-1.2v-4.28c0-1.59-.59-2.39-1.75-2.39-.6 0-1.1.23-1.49.68-.4.45-.59 1.02-.59 1.71V144h-1.2v-7.5h1.2v1.25h.03a2.7 2.7 0 0 1 2.46-1.43c.82 0 1.45.27 1.89.8.43.53.65 1.3.65 2.3V144zm5.97-10.05a1.6 1.6 0 0 0-.8-.2c-.84 0-1.26.53-1.26 1.6v1.15h1.76v1.03h-1.76V144h-1.2v-6.47h-1.28v-1.03h1.28v-1.22c0-.78.23-1.4.69-1.86a2.3 2.3 0 0 1 1.7-.68c.36 0 .65.04.87.13v1.08zm4.12 10.23c-1.1 0-2-.35-2.66-1.06a3.9 3.9 0 0 1-.99-2.78c0-1.26.35-2.25 1.04-2.95a3.71 3.71 0 0 1 2.79-1.07c1.11 0 1.99.35 2.61 1.04.63.69.95 1.64.95 2.86 0 1.2-.34 2.16-1.02 2.88a3.55 3.55 0 0 1-2.72 1.08zm.09-6.85c-.77 0-1.38.27-1.83.8a3.23 3.23 0 0 0-.68 2.16c0 .9.23 1.6.68 2.1.46.52 1.07.78 1.83.78a2.2 2.2 0 0 0 1.79-.76c.42-.5.62-1.22.62-2.15 0-.93-.2-1.66-.62-2.16a2.19 2.19 0 0 0-1.8-.77zm9.48.39a1.47 1.47 0 0 0-.91-.25c-.52 0-.94.25-1.29.73a3.35 3.35 0 0 0-.51 1.98V144h-1.2v-7.5h1.2v1.55h.02c.18-.53.44-.94.79-1.24.35-.3.74-.44 1.18-.44.31 0 .55.03.72.1v1.25zm11.95 6.28h-1.2v-4.3c0-.84-.13-1.44-.39-1.8-.25-.38-.68-.57-1.29-.57-.51 0-.95.24-1.3.7a2.69 2.69 0 0 0-.55 1.7V144h-1.2v-4.45c0-1.48-.57-2.22-1.7-2.22-.53 0-.97.23-1.3.67a2.74 2.74 0 0 0-.52 1.72V144h-1.2v-7.5h1.2v1.19h.03c.53-.91 1.3-1.37 2.33-1.37a2.17 2.17 0 0 1 2.12 1.56 2.68 2.68 0 0 1 2.5-1.56c1.64 0 2.47 1.02 2.47 3.06V144zm7.64 0h-1.2v-1.17h-.03c-.53.9-1.3 1.35-2.31 1.35-.75 0-1.33-.2-1.75-.6-.43-.4-.64-.92-.64-1.57 0-1.4.83-2.22 2.48-2.45l2.25-.31c0-1.28-.52-1.92-1.55-1.92-.9 0-1.72.31-2.45.93v-1.23c.74-.47 1.6-.7 2.55-.7 1.77 0 2.65.93 2.65 2.8V144zm-1.2-3.8l-1.81.26c-.56.07-.98.21-1.26.4-.29.2-.43.56-.43 1.06 0 .37.13.67.4.9.26.23.6.35 1.04.35.6 0 1.09-.21 1.47-.63.4-.42.59-.95.59-1.59v-.74zm6.94 3.73c-.28.15-.66.23-1.12.23-1.31 0-1.97-.73-1.97-2.2v-4.43h-1.29v-1.03h1.29v-1.83l1.2-.39v2.22h1.89v1.03h-1.89v4.22c0 .5.09.86.26 1.08.17.21.45.32.85.32.3 0 .56-.08.78-.25v1.03zm2.22-9.33a.76.76 0 0 1-.78-.78c0-.23.08-.41.23-.56a.75.75 0 0 1 .55-.22.78.78 0 0 1 .79.78c0 .21-.08.4-.23.55a.77.77 0 0 1-.56.23zm.59 9.4h-1.2v-7.5h1.2v7.5zm5.56.18c-1.1 0-2-.35-2.65-1.06a3.9 3.9 0 0 1-1-2.78c0-1.26.35-2.25 1.04-2.95a3.71 3.71 0 0 1 2.79-1.07c1.12 0 1.99.35 2.62 1.04.62.69.94 1.64.94 2.86 0 1.2-.34 2.16-1.02 2.88a3.55 3.55 0 0 1-2.72 1.08zm.09-6.85c-.77 0-1.38.27-1.83.8a3.23 3.23 0 0 0-.68 2.16c0 .9.23 1.6.69 2.1.45.52 1.06.78 1.82.78a2.2 2.2 0 0 0 1.79-.76c.42-.5.63-1.22.63-2.15 0-.93-.21-1.66-.63-2.16a2.19 2.19 0 0 0-1.8-.77zm11.8 6.67h-1.21v-4.28c0-1.59-.58-2.39-1.74-2.39-.6 0-1.1.23-1.5.68-.39.45-.58 1.02-.58 1.71V144h-1.2v-7.5h1.2v1.25h.03a2.7 2.7 0 0 1 2.46-1.43c.82 0 1.44.27 1.88.8.43.53.65 1.3.65 2.3V144zm2.67.16a.78.78 0 0 1-.57-.24.8.8 0 0 1-.24-.58.8.8 0 0 1 .24-.58.77.77 0 0 1 .57-.25.8.8 0 0 1 .59.25.8.8 0 0 1 .24.58c0 .23-.08.42-.24.58a.8.8 0 0 1-.59.24zM59.11 78.77h-3.42V89H53.7V78.77H50.3V77.1h8.8v1.67zm6.45 3.56a1.6 1.6 0 0 0-1-.27c-.57 0-1.05.26-1.43.77a3.45 3.45 0 0 0-.57 2.1V89h-1.93v-8.5h1.93v1.75h.03c.19-.6.48-1.06.87-1.4.39-.33.83-.5 1.3-.5.36 0 .62.05.8.16v1.82zM73.45 89h-1.87v-1.33h-.03a2.81 2.81 0 0 1-2.58 1.53c-.84 0-1.5-.23-1.97-.68a2.38 2.38 0 0 1-.7-1.8c0-1.6.92-2.54 2.77-2.8l2.52-.37c0-1.2-.58-1.81-1.73-1.81a4.1 4.1 0 0 0-2.74 1.04V81.1c.9-.53 1.94-.8 3.1-.8 2.16 0 3.23 1.06 3.23 3.17V89zm-1.86-4.18l-1.78.25c-.56.08-.97.21-1.25.4-.28.2-.42.55-.42 1.04 0 .36.13.65.38.88.26.23.6.35 1.04.35.58 0 1.07-.2 1.45-.62.39-.41.58-.93.58-1.56v-.74zm10.3 3.79c-.69.4-1.5.59-2.42.59a4.1 4.1 0 0 1-3.06-1.18 4.19 4.19 0 0 1-1.16-3.07c0-1.4.42-2.53 1.25-3.38a4.47 4.47 0 0 1 3.34-1.27c.78 0 1.46.14 2.05.4v1.8a3.1 3.1 0 0 0-1.9-.66c-.8 0-1.47.27-2 .82a3.02 3.02 0 0 0-.77 2.16c0 .88.24 1.58.73 2.09.5.5 1.15.76 1.97.76.7 0 1.35-.24 1.96-.74v1.68zm9.61.39h-2.44l-3.3-4.08h-.03V89h-1.94V76.42h1.94v7.97h.03l3.12-3.89h2.32l-3.51 4.1L91.5 89zm2.19-10.28c-.32 0-.59-.1-.81-.31-.23-.2-.34-.47-.34-.78 0-.32.11-.58.34-.8.22-.2.5-.3.8-.3.33 0 .61.1.84.3.22.22.34.48.34.8 0 .3-.12.55-.34.77-.23.2-.5.32-.83.32zM94.64 89h-1.92v-8.5h1.92V89zm10.09 0h-1.93v-4.79c0-1.59-.56-2.38-1.68-2.38-.59 0-1.07.22-1.46.66-.38.44-.57 1-.57 1.66V89h-1.93v-8.5h1.93v1.41h.03a3.03 3.03 0 0 1 2.76-1.6c.92 0 1.63.3 2.12.9.48.6.73 1.46.73 2.6V89zm10.08-.68c0 3.12-1.57 4.68-4.7 4.68-1.11 0-2.08-.18-2.9-.56V90.7c.93.53 1.81.8 2.65.8 2.02 0 3.03-1 3.03-2.99v-.93h-.04a3.12 3.12 0 0 1-2.87 1.63 3.1 3.1 0 0 1-2.5-1.13 4.58 4.58 0 0 1-.95-3.05c0-1.44.34-2.59 1.02-3.44a3.4 3.4 0 0 1 2.8-1.28 2.7 2.7 0 0 1 2.5 1.38h.04V80.5h1.92v7.82zm-1.9-3.21V84c0-.6-.2-1.12-.6-1.54-.4-.42-.89-.63-1.48-.63-.73 0-1.3.27-1.72.8-.4.55-.61 1.3-.61 2.27 0 .83.2 1.5.59 2 .4.5.92.75 1.57.75.67 0 1.2-.24 1.62-.71.42-.48.62-1.1.62-1.84zm11.27-.43V89h-1.97V77.1h3.6c1.38 0 2.44.31 3.19.95a3.33 3.33 0 0 1 1.13 2.7c0 1.15-.4 2.1-1.18 2.83a4.48 4.48 0 0 1-3.19 1.1h-1.58zm0-5.96v4.35h1.27c.85 0 1.5-.2 1.94-.59.44-.39.66-.94.66-1.66 0-1.4-.81-2.1-2.44-2.1h-1.43zm12.68 3.61a1.6 1.6 0 0 0-1-.27c-.58 0-1.05.26-1.43.77a3.45 3.45 0 0 0-.58 2.1V89h-1.92v-8.5h1.92v1.75h.04c.19-.6.47-1.06.87-1.4.39-.33.82-.5 1.3-.5.35 0 .62.05.8.16v1.82zm5.13 6.87c-1.31 0-2.36-.4-3.14-1.2a4.3 4.3 0 0 1-1.18-3.15c0-1.43.41-2.54 1.23-3.35a4.5 4.5 0 0 1 3.3-1.2c1.32 0 2.36.4 3.1 1.17a4.52 4.52 0 0 1 1.11 3.25c0 1.35-.4 2.44-1.2 3.25A4.3 4.3 0 0 1 142 89.2zm.1-7.36a2.2 2.2 0 0 0-1.8.78 3.3 3.3 0 0 0-.65 2.18c0 .9.22 1.6.66 2.1.45.52 1.04.77 1.78.77.76 0 1.34-.25 1.75-.75.4-.5.6-1.22.6-2.15 0-.94-.2-1.66-.6-2.17a2.1 2.1 0 0 0-1.75-.76zm10.76 7.07c-.37.19-.87.28-1.48.28-1.65 0-2.47-.79-2.47-2.37v-4.8h-1.42V80.5h1.42v-1.97l1.92-.55v2.52h2.03v1.51h-2.03v4.25c0 .5.1.86.28 1.08.18.22.48.32.9.32.33 0 .62-.1.85-.28v1.53zm8.86-3.64h-5.8c.03.79.27 1.4.73 1.82.47.43 1.1.64 1.9.64.92 0 1.75-.27 2.5-.81v1.55a5.7 5.7 0 0 1-3.06.73 3.8 3.8 0 0 1-2.95-1.16 4.63 4.63 0 0 1-1.06-3.26c0-1.32.39-2.4 1.17-3.23a3.84 3.84 0 0 1 2.92-1.25c1.16 0 2.06.37 2.7 1.12.63.75.95 1.79.95 3.11v.74zm-1.86-1.36c0-.69-.17-1.23-.49-1.61a1.64 1.64 0 0 0-1.33-.58c-.55 0-1.02.2-1.4.6-.39.41-.62.94-.71 1.6h3.93zm9.78 4.7c-.68.4-1.48.59-2.41.59a4.1 4.1 0 0 1-3.06-1.18 4.19 4.19 0 0 1-1.16-3.07c0-1.4.41-2.53 1.25-3.38a4.47 4.47 0 0 1 3.34-1.27c.77 0 1.46.14 2.05.4v1.8a3.1 3.1 0 0 0-1.9-.66c-.8 0-1.47.27-2 .82a3.02 3.02 0 0 0-.77 2.16c0 .88.24 1.58.73 2.09.49.5 1.15.76 1.97.76.7 0 1.35-.24 1.96-.74v1.68zm6.4.3c-.38.19-.88.28-1.5.28-1.64 0-2.47-.79-2.47-2.37v-4.8h-1.42V80.5h1.42v-1.97l1.93-.55v2.52h2.03v1.51H174v4.25c0 .5.09.86.27 1.08.19.22.49.32.92.32.32 0 .6-.1.84-.28v1.53zm2.62-10.2c-.31 0-.58-.1-.8-.3-.23-.2-.34-.47-.34-.78 0-.32.11-.58.33-.8.23-.2.5-.3.81-.3.33 0 .6.1.83.3.23.22.34.48.34.8 0 .3-.1.55-.34.77-.22.2-.5.32-.83.32zm.96 10.29h-1.93v-8.5h1.93V89zm6.28.2c-1.3 0-2.36-.4-3.14-1.2a4.3 4.3 0 0 1-1.17-3.15c0-1.43.4-2.54 1.22-3.35a4.5 4.5 0 0 1 3.3-1.2c1.33 0 2.36.4 3.1 1.17a4.52 4.52 0 0 1 1.12 3.25c0 1.35-.4 2.44-1.2 3.25a4.3 4.3 0 0 1-3.23 1.23zm.1-7.36a2.2 2.2 0 0 0-1.8.78 3.3 3.3 0 0 0-.65 2.18c0 .9.22 1.6.67 2.1.44.52 1.03.77 1.77.77.76 0 1.34-.25 1.75-.75.4-.5.61-1.22.61-2.15 0-.94-.2-1.66-.6-2.17a2.1 2.1 0 0 0-1.76-.76zM199.84 89h-1.93v-4.79c0-1.59-.56-2.38-1.69-2.38-.58 0-1.07.22-1.45.66-.38.44-.57 1-.57 1.66V89h-1.93v-8.5h1.93v1.41h.03a3.03 3.03 0 0 1 2.76-1.6c.92 0 1.63.3 2.12.9.48.6.73 1.46.73 2.6V89z"/></g></svg>