<svg xmlns="http://www.w3.org/2000/svg" width="300" height="180" style="background:#f9f9fa" viewBox="0 0 300 180">
  <g fill="none" fill-rule="evenodd">
    <path fill="#000" d="M63.71875,93 L62.4492188,93 L60.9257812,90.4482422 C60.7861321,90.2112618 60.6507168,90.0091968 60.5195312,89.842041 C60.3883457,89.6748852 60.2539883,89.538412 60.1164551,89.4326172 C59.9789218,89.3268224 59.8308113,89.2495933 59.6721191,89.2009277 C59.5134269,89.1522621 59.3346364,89.1279297 59.1357422,89.1279297 L58.2597656,89.1279297 L58.2597656,93 L57.1933594,93 L57.1933594,83.8974609 L59.9101562,83.8974609 C60.3079447,83.8974609 60.6750471,83.9471837 61.0114746,84.0466309 C61.3479021,84.146078 61.6398913,84.2973623 61.8874512,84.5004883 C62.135011,84.7036143 62.3286126,84.9564601 62.4682617,85.2590332 C62.6079109,85.5616063 62.6777344,85.9160136 62.6777344,86.3222656 C62.6777344,86.63965 62.6301274,86.9305814 62.5349121,87.1950684 C62.4396968,87.4595554 62.3042815,87.6954742 62.1286621,87.902832 C61.9530427,88.1101898 61.7414563,88.2868645 61.4938965,88.4328613 C61.2463367,88.5788582 60.9681005,88.6920569 60.6591797,88.7724609 L60.6591797,88.7978516 C60.8115242,88.8655602 60.9437657,88.9427893 61.0559082,89.029541 C61.1680507,89.1162928 61.2749018,89.2189122 61.3764648,89.3374023 C61.4780279,89.4558925 61.5785314,89.5902499 61.6779785,89.7404785 C61.7774256,89.8907071 61.8885085,90.0652659 62.0112305,90.2641602 L63.71875,93 Z M58.2597656,84.8623047 L58.2597656,88.1630859 L59.7070312,88.1630859 C59.9736341,88.1630859 60.2201323,88.1228845 60.4465332,88.0424805 C60.6729341,87.9620764 60.8686515,87.8467618 61.0336914,87.6965332 C61.1987313,87.5463046 61.327799,87.3622244 61.4208984,87.1442871 C61.5139979,86.9263498 61.5605469,86.6819675 61.5605469,86.4111328 C61.5605469,85.9244767 61.402915,85.5446791 61.0876465,85.2717285 C60.772378,84.9987779 60.3164092,84.8623047 59.7197266,84.8623047 L58.2597656,84.8623047 Z M70.0537109,90.0102539 L65.4643555,90.0102539 C65.4812826,90.7338903 65.6759421,91.2924785 66.0483398,91.6860352 C66.4207375,92.0795918 66.9327767,92.2763672 67.5844727,92.2763672 C68.3165727,92.2763672 68.9894175,92.0351587 69.6030273,91.5527344 L69.6030273,92.5302734 C69.0317354,92.9449891 68.2763719,93.1523438 67.3369141,93.1523438 C66.4186152,93.1523438 65.6971055,92.8571807 65.1723633,92.2668457 C64.6476211,91.6765107 64.3852539,90.846034 64.3852539,89.7753906 C64.3852539,88.7639923 64.6719535,87.9398632 65.2453613,87.3029785 C65.8187691,86.6660938 66.5307575,86.3476562 67.3813477,86.3476562 C68.2319378,86.3476562 68.8899716,86.6227186 69.3554688,87.1728516 C69.8209659,87.7229845 70.0537109,88.4868115 70.0537109,89.4643555 L70.0537109,90.0102539 Z M68.9873047,89.1279297 C68.9830729,88.5270152 68.8381362,88.0594092 68.5524902,87.7250977 C68.2668443,87.3907861 67.8701197,87.2236328 67.3623047,87.2236328 C66.8714168,87.2236328 66.4545916,87.3992495 66.1118164,87.7504883 C65.7690413,88.101727 65.5574548,88.5608696 65.4770508,89.1279297 L68.9873047,89.1279297 Z M80.8574219,93 L79.8164062,93 L79.8164062,89.2675781 C79.8164062,88.5481735 79.7053234,88.0276709 79.4831543,87.7060547 C79.2609852,87.3844385 78.8875352,87.2236328 78.362793,87.2236328 C77.9184548,87.2236328 77.540773,87.4267558 77.2297363,87.8330078 C76.9186996,88.2392598 76.7631836,88.7259086 76.7631836,89.2929688 L76.7631836,93 L75.722168,93 L75.722168,89.140625 C75.722168,87.8626238 75.2291716,87.2236328 74.2431641,87.2236328 C73.7861305,87.2236328 73.4095067,87.4151185 73.1132812,87.7980957 C72.8170558,88.1810729 72.6689453,88.6793589 72.6689453,89.2929688 L72.6689453,93 L71.6279297,93 L71.6279297,86.5 L72.6689453,86.5 L72.6689453,87.5283203 L72.6943359,87.5283203 C73.1556013,86.741207 73.8284461,86.3476562 74.7128906,86.3476562 C75.1572288,86.3476562 75.5444319,86.4714343 75.8745117,86.7189941 C76.2045915,86.966554 76.430989,87.2913391 76.5537109,87.6933594 C77.0361352,86.7962195 77.7555291,86.3476562 78.7119141,86.3476562 C80.1422598,86.3476562 80.8574219,87.2299716 80.8574219,88.9946289 L80.8574219,93 Z M88.0493164,90.0102539 L83.4599609,90.0102539 C83.4768881,90.7338903 83.6715476,91.2924785 84.0439453,91.6860352 C84.416343,92.0795918 84.9283822,92.2763672 85.5800781,92.2763672 C86.3121781,92.2763672 86.985023,92.0351587 87.5986328,91.5527344 L87.5986328,92.5302734 C87.0273409,92.9449891 86.2719774,93.1523438 85.3325195,93.1523438 C84.4142207,93.1523438 83.692711,92.8571807 83.1679688,92.2668457 C82.6432265,91.6765107 82.3808594,90.846034 82.3808594,89.7753906 C82.3808594,88.7639923 82.667559,87.9398632 83.2409668,87.3029785 C83.8143746,86.6660938 84.5263629,86.3476562 85.3769531,86.3476562 C86.2275433,86.3476562 86.8855771,86.6227186 87.3510742,87.1728516 C87.8165713,87.7229845 88.0493164,88.4868115 88.0493164,89.4643555 L88.0493164,90.0102539 Z M86.9829102,89.1279297 C86.9786784,88.5270152 86.8337417,88.0594092 86.5480957,87.7250977 C86.2624497,87.3907861 85.8657252,87.2236328 85.3579102,87.2236328 C84.8670223,87.2236328 84.450197,87.3992495 84.1074219,87.7504883 C83.7646467,88.101727 83.5530603,88.5608696 83.4726562,89.1279297 L86.9829102,89.1279297 Z M98.8530273,93 L97.8120117,93 L97.8120117,89.2675781 C97.8120117,88.5481735 97.7009288,88.0276709 97.4787598,87.7060547 C97.2565907,87.3844385 96.8831406,87.2236328 96.3583984,87.2236328 C95.9140603,87.2236328 95.5363785,87.4267558 95.2253418,87.8330078 C94.9143051,88.2392598 94.7587891,88.7259086 94.7587891,89.2929688 L94.7587891,93 L93.7177734,93 L93.7177734,89.140625 C93.7177734,87.8626238 93.2247771,87.2236328 92.2387695,87.2236328 C91.781736,87.2236328 91.4051122,87.4151185 91.1088867,87.7980957 C90.8126613,88.1810729 90.6645508,88.6793589 90.6645508,89.2929688 L90.6645508,93 L89.6235352,93 L89.6235352,86.5 L90.6645508,86.5 L90.6645508,87.5283203 L90.6899414,87.5283203 C91.1512067,86.741207 91.8240516,86.3476562 92.7084961,86.3476562 C93.1528343,86.3476562 93.5400374,86.4714343 93.8701172,86.7189941 C94.200197,86.966554 94.4265944,87.2913391 94.5493164,87.6933594 C95.0317407,86.7962195 95.7511345,86.3476562 96.7075195,86.3476562 C98.1378652,86.3476562 98.8530273,87.2299716 98.8530273,88.9946289 L98.8530273,93 Z M101.887207,92.0605469 L101.861816,92.0605469 L101.861816,93 L100.820801,93 L100.820801,83.3769531 L101.861816,83.3769531 L101.861816,87.6425781 L101.887207,87.6425781 C102.399254,86.7792926 103.14827,86.3476562 104.134277,86.3476562 C104.96794,86.3476562 105.620684,86.6385876 106.092529,87.220459 C106.564374,87.8023304 106.800293,88.5820264 106.800293,89.5595703 C106.800293,90.6471409 106.53581,91.517819 106.006836,92.1716309 C105.477862,92.8254427 104.754236,93.1523438 103.835938,93.1523438 C102.976884,93.1523438 102.327313,92.7884151 101.887207,92.0605469 Z M101.861816,89.4389648 L101.861816,90.3466797 C101.861816,90.8841173 102.036375,91.340086 102.385498,91.7145996 C102.734621,92.0891132 103.177894,92.2763672 103.715332,92.2763672 C104.345869,92.2763672 104.839923,92.0351587 105.19751,91.5527344 C105.555096,91.0703101 105.733887,90.3995811 105.733887,89.5405273 C105.733887,88.8168909 105.566733,88.2498393 105.232422,87.8393555 C104.89811,87.4288716 104.445315,87.2236328 103.874023,87.2236328 C103.268877,87.2236328 102.782228,87.4341613 102.414062,87.8552246 C102.045897,88.2762879 101.861816,88.804196 101.861816,89.4389648 Z M113.6875,90.0102539 L109.098145,90.0102539 C109.115072,90.7338903 109.309731,91.2924785 109.682129,91.6860352 C110.054527,92.0795918 110.566566,92.2763672 111.218262,92.2763672 C111.950362,92.2763672 112.623207,92.0351587 113.236816,91.5527344 L113.236816,92.5302734 C112.665524,92.9449891 111.910161,93.1523438 110.970703,93.1523438 C110.052404,93.1523438 109.330895,92.8571807 108.806152,92.2668457 C108.28141,91.6765107 108.019043,90.846034 108.019043,89.7753906 C108.019043,88.7639923 108.305743,87.9398632 108.87915,87.3029785 C109.452558,86.6660938 110.164547,86.3476562 111.015137,86.3476562 C111.865727,86.3476562 112.523761,86.6227186 112.989258,87.1728516 C113.454755,87.7229845 113.6875,88.4868115 113.6875,89.4643555 L113.6875,90.0102539 Z M112.621094,89.1279297 C112.616862,88.5270152 112.471925,88.0594092 112.186279,87.7250977 C111.900633,87.3907861 111.503909,87.2236328 110.996094,87.2236328 C110.505206,87.2236328 110.088381,87.3992495 109.745605,87.7504883 C109.40283,88.101727 109.191244,88.5608696 109.11084,89.1279297 L112.621094,89.1279297 Z M118.651367,87.5537109 C118.4694,87.4140618 118.207033,87.3442383 117.864258,87.3442383 C117.41992,87.3442383 117.048585,87.5537088 116.750244,87.9726562 C116.451903,88.3916037 116.302734,88.962887 116.302734,89.6865234 L116.302734,93 L115.261719,93 L115.261719,86.5 L116.302734,86.5 L116.302734,87.8393555 L116.328125,87.8393555 C116.476238,87.3823219 116.702635,87.0257988 117.007324,86.7697754 C117.312013,86.513752 117.652667,86.3857422 118.029297,86.3857422 C118.300132,86.3857422 118.507486,86.4153643 118.651367,86.4746094 L118.651367,87.5537109 Z M126.357422,92.9365234 C126.111978,93.0719408 125.788251,93.1396484 125.38623,93.1396484 C124.247878,93.1396484 123.678711,92.5048892 123.678711,91.2353516 L123.678711,87.3886719 L122.561523,87.3886719 L122.561523,86.5 L123.678711,86.5 L123.678711,84.9130859 L124.719727,84.5766602 L124.719727,86.5 L126.357422,86.5 L126.357422,87.3886719 L124.719727,87.3886719 L124.719727,91.0512695 C124.719727,91.4871441 124.793782,91.7981762 124.941895,91.984375 C125.090007,92.1705738 125.335448,92.2636719 125.678223,92.2636719 C125.940594,92.2636719 126.166991,92.1917325 126.357422,92.0478516 L126.357422,92.9365234 Z M133.143066,93 L132.102051,93 L132.102051,89.2548828 C132.102051,87.9007094 131.598475,87.2236328 130.591309,87.2236328 C130.083494,87.2236328 129.656089,87.4193503 129.309082,87.810791 C128.962075,88.2022318 128.788574,88.7047495 128.788574,89.3183594 L128.788574,93 L127.747559,93 L127.747559,83.3769531 L128.788574,83.3769531 L128.788574,87.5791016 L128.813965,87.5791016 C129.313316,86.7581339 130.024247,86.3476562 130.946777,86.3476562 C132.410977,86.3476562 133.143066,87.2299716 133.143066,88.9946289 L133.143066,93 Z M135.637695,84.8496094 C135.451496,84.8496094 135.292807,84.7861334 135.161621,84.6591797 C135.030436,84.5322259 134.964844,84.3714202 134.964844,84.1767578 C134.964844,83.9820954 135.030436,83.8202318 135.161621,83.6911621 C135.292807,83.5620925 135.451496,83.4975586 135.637695,83.4975586 C135.828126,83.4975586 135.98999,83.5620925 136.123291,83.6911621 C136.256592,83.8202318 136.323242,83.9820954 136.323242,84.1767578 C136.323242,84.3629567 136.256592,84.5216465 136.123291,84.652832 C135.98999,84.7840176 135.828126,84.8496094 135.637695,84.8496094 Z M136.145508,93 L135.104492,93 L135.104492,86.5 L136.145508,86.5 L136.145508,93 Z M137.859375,92.7651367 L137.859375,91.6479492 C138.426435,92.0668966 139.050615,92.2763672 139.731934,92.2763672 C140.646001,92.2763672 141.103027,91.9716827 141.103027,91.3623047 C141.103027,91.1888012 141.063884,91.0417486 140.985596,90.9211426 C140.907308,90.8005365 140.801514,90.6936854 140.668213,90.6005859 C140.534911,90.5074865 140.378337,90.4239099 140.198486,90.3498535 C140.018635,90.2757972 139.825034,90.1985681 139.617676,90.1181641 C139.329914,90.0039057 139.077068,89.8885911 138.859131,89.7722168 C138.641194,89.6558425 138.459229,89.5246589 138.313232,89.3786621 C138.167236,89.2326653 138.057211,89.0665699 137.983154,88.8803711 C137.909098,88.6941722 137.87207,88.4762382 137.87207,88.2265625 C137.87207,87.9218735 137.941894,87.6521008 138.081543,87.4172363 C138.221192,87.1823719 138.407388,86.9855965 138.640137,86.8269043 C138.872885,86.6682121 139.138426,86.5486658 139.436768,86.4682617 C139.735109,86.3878577 140.042967,86.3476562 140.360352,86.3476562 C140.92318,86.3476562 141.426756,86.444986 141.871094,86.6396484 L141.871094,87.6933594 C141.392901,87.3802068 140.842777,87.2236328 140.220703,87.2236328 C140.026041,87.2236328 139.850424,87.2458494 139.693848,87.2902832 C139.537271,87.334717 139.402914,87.397135 139.290771,87.4775391 C139.178629,87.5579431 139.091879,87.6542149 139.030518,87.7663574 C138.969157,87.8784999 138.938477,88.002278 138.938477,88.1376953 C138.938477,88.306967 138.969157,88.4487299 139.030518,88.5629883 C139.091879,88.6772467 139.181803,88.7788081 139.300293,88.8676758 C139.418783,88.9565434 139.562662,89.0369463 139.731934,89.1088867 C139.901205,89.1808272 140.093749,89.2591142 140.30957,89.34375 C140.597332,89.4537766 140.855468,89.5669753 141.083984,89.6833496 C141.312501,89.7997239 141.507161,89.9309075 141.667969,90.0769043 C141.828777,90.2229011 141.952555,90.3911123 142.039307,90.581543 C142.126058,90.7719736 142.169434,90.9983711 142.169434,91.2607422 C142.169434,91.5823584 142.098552,91.8616525 141.956787,92.0986328 C141.815022,92.3356132 141.625652,92.5323885 141.388672,92.6889648 C141.151692,92.8455411 140.878745,92.9619137 140.569824,93.0380859 C140.260903,93.1142582 139.937176,93.1523438 139.598633,93.1523438 C138.93001,93.1523438 138.350263,93.023276 137.859375,92.7651367 Z M152.87793,93 L151.836914,93 L151.836914,91.8955078 L151.811523,91.8955078 C151.329099,92.7334026 150.584315,93.1523438 149.577148,93.1523438 C148.760413,93.1523438 148.107668,92.8614124 147.618896,92.279541 C147.130125,91.6976696 146.885742,90.9052785 146.885742,89.9023438 C146.885742,88.8274686 147.156573,87.9663118 147.698242,87.3188477 C148.239912,86.6713835 148.961421,86.3476562 149.862793,86.3476562 C150.755701,86.3476562 151.405271,86.6988897 151.811523,87.4013672 L151.836914,87.4013672 L151.836914,83.3769531 L152.87793,83.3769531 L152.87793,93 Z M151.836914,90.0610352 L151.836914,89.1025391 C151.836914,88.5777969 151.663413,88.1334654 151.316406,87.7695312 C150.969399,87.4055971 150.5293,87.2236328 149.996094,87.2236328 C149.361325,87.2236328 148.861981,87.4563779 148.498047,87.921875 C148.134113,88.3873721 147.952148,89.0305949 147.952148,89.8515625 C147.952148,90.6005897 148.126707,91.1919737 148.47583,91.6257324 C148.824953,92.0594911 149.293617,92.2763672 149.881836,92.2763672 C150.461591,92.2763672 150.932371,92.0668966 151.294189,91.6479492 C151.656008,91.2290018 151.836914,90.7000357 151.836914,90.0610352 Z M160.209473,90.0102539 L155.620117,90.0102539 C155.637044,90.7338903 155.831704,91.2924785 156.204102,91.6860352 C156.576499,92.0795918 157.088538,92.2763672 157.740234,92.2763672 C158.472334,92.2763672 159.145179,92.0351587 159.758789,91.5527344 L159.758789,92.5302734 C159.187497,92.9449891 158.432134,93.1523438 157.492676,93.1523438 C156.574377,93.1523438 155.852867,92.8571807 155.328125,92.2668457 C154.803383,91.6765107 154.541016,90.846034 154.541016,89.7753906 C154.541016,88.7639923 154.827715,87.9398632 155.401123,87.3029785 C155.974531,86.6660938 156.686519,86.3476562 157.537109,86.3476562 C158.3877,86.3476562 159.045733,86.6227186 159.51123,87.1728516 C159.976728,87.7229845 160.209473,88.4868115 160.209473,89.4643555 L160.209473,90.0102539 Z M159.143066,89.1279297 C159.138835,88.5270152 158.993898,88.0594092 158.708252,87.7250977 C158.422606,87.3907861 158.025881,87.2236328 157.518066,87.2236328 C157.027179,87.2236328 156.610353,87.3992495 156.267578,87.7504883 C155.924803,88.101727 155.713217,88.5608696 155.632812,89.1279297 L159.143066,89.1279297 Z M166.214355,92.7016602 C165.715004,93.0021174 165.122562,93.1523438 164.437012,93.1523438 C163.510249,93.1523438 162.762291,92.8508331 162.193115,92.2478027 C161.623939,91.6447724 161.339355,90.8629605 161.339355,89.9023438 C161.339355,88.8317004 161.646156,87.9716016 162.259766,87.3220215 C162.873375,86.6724414 163.692215,86.3476562 164.716309,86.3476562 C165.287601,86.3476562 165.791176,86.4534495 166.227051,86.6650391 L166.227051,87.7314453 C165.744626,87.392902 165.228356,87.2236328 164.678223,87.2236328 C164.013831,87.2236328 163.468996,87.4616675 163.043701,87.9377441 C162.618406,88.4138207 162.405762,89.0390586 162.405762,89.8134766 C162.405762,90.5751991 162.605711,91.1761046 163.005615,91.6162109 C163.40552,92.0563173 163.941891,92.2763672 164.614746,92.2763672 C165.181806,92.2763672 165.715004,92.0880553 166.214355,91.7114258 L166.214355,92.7016602 Z M168.321777,84.8496094 C168.135578,84.8496094 167.976889,84.7861334 167.845703,84.6591797 C167.714518,84.5322259 167.648926,84.3714202 167.648926,84.1767578 C167.648926,83.9820954 167.714518,83.8202318 167.845703,83.6911621 C167.976889,83.5620925 168.135578,83.4975586 168.321777,83.4975586 C168.512208,83.4975586 168.674072,83.5620925 168.807373,83.6911621 C168.940674,83.8202318 169.007324,83.9820954 169.007324,84.1767578 C169.007324,84.3629567 168.940674,84.5216465 168.807373,84.652832 C168.674072,84.7840176 168.512208,84.8496094 168.321777,84.8496094 Z M168.82959,93 L167.788574,93 L167.788574,86.5 L168.82959,86.5 L168.82959,93 Z M170.543457,92.7651367 L170.543457,91.6479492 C171.110517,92.0668966 171.734697,92.2763672 172.416016,92.2763672 C173.330083,92.2763672 173.787109,91.9716827 173.787109,91.3623047 C173.787109,91.1888012 173.747966,91.0417486 173.669678,90.9211426 C173.59139,90.8005365 173.485596,90.6936854 173.352295,90.6005859 C173.218993,90.5074865 173.06242,90.4239099 172.882568,90.3498535 C172.702717,90.2757972 172.509116,90.1985681 172.301758,90.1181641 C172.013996,90.0039057 171.76115,89.8885911 171.543213,89.7722168 C171.325276,89.6558425 171.143311,89.5246589 170.997314,89.3786621 C170.851318,89.2326653 170.741293,89.0665699 170.667236,88.8803711 C170.59318,88.6941722 170.556152,88.4762382 170.556152,88.2265625 C170.556152,87.9218735 170.625976,87.6521008 170.765625,87.4172363 C170.905274,87.1823719 171.09147,86.9855965 171.324219,86.8269043 C171.556967,86.6682121 171.822508,86.5486658 172.12085,86.4682617 C172.419191,86.3878577 172.727049,86.3476562 173.044434,86.3476562 C173.607262,86.3476562 174.110838,86.444986 174.555176,86.6396484 L174.555176,87.6933594 C174.076983,87.3802068 173.526859,87.2236328 172.904785,87.2236328 C172.710123,87.2236328 172.534506,87.2458494 172.37793,87.2902832 C172.221353,87.334717 172.086996,87.397135 171.974854,87.4775391 C171.862711,87.5579431 171.775961,87.6542149 171.7146,87.7663574 C171.653239,87.8784999 171.622559,88.002278 171.622559,88.1376953 C171.622559,88.306967 171.653239,88.4487299 171.7146,88.5629883 C171.775961,88.6772467 171.865885,88.7788081 171.984375,88.8676758 C172.102865,88.9565434 172.246744,89.0369463 172.416016,89.1088867 C172.585287,89.1808272 172.777831,89.2591142 172.993652,89.34375 C173.281414,89.4537766 173.53955,89.5669753 173.768066,89.6833496 C173.996583,89.7997239 174.191243,89.9309075 174.352051,90.0769043 C174.512859,90.2229011 174.636637,90.3911123 174.723389,90.581543 C174.81014,90.7719736 174.853516,90.9983711 174.853516,91.2607422 C174.853516,91.5823584 174.782634,91.8616525 174.640869,92.0986328 C174.499104,92.3356132 174.309734,92.5323885 174.072754,92.6889648 C173.835774,92.8455411 173.562827,92.9619137 173.253906,93.0380859 C172.944985,93.1142582 172.621258,93.1523438 172.282715,93.1523438 C171.614092,93.1523438 171.034345,93.023276 170.543457,92.7651367 Z M176.986328,84.8496094 C176.800129,84.8496094 176.641439,84.7861334 176.510254,84.6591797 C176.379068,84.5322259 176.313477,84.3714202 176.313477,84.1767578 C176.313477,83.9820954 176.379068,83.8202318 176.510254,83.6911621 C176.641439,83.5620925 176.800129,83.4975586 176.986328,83.4975586 C177.176759,83.4975586 177.338622,83.5620925 177.471924,83.6911621 C177.605225,83.8202318 177.671875,83.9820954 177.671875,84.1767578 C177.671875,84.3629567 177.605225,84.5216465 177.471924,84.652832 C177.338622,84.7840176 177.176759,84.8496094 176.986328,84.8496094 Z M177.494141,93 L176.453125,93 L176.453125,86.5 L177.494141,86.5 L177.494141,93 Z M182.318359,93.1523438 C181.357743,93.1523438 180.590742,92.8487172 180.017334,92.2414551 C179.443926,91.6341929 179.157227,90.8291066 179.157227,89.8261719 C179.157227,88.7343695 179.455563,87.8816762 180.052246,87.2680664 C180.648929,86.6544566 181.455073,86.3476562 182.470703,86.3476562 C183.439783,86.3476562 184.196205,86.6459931 184.73999,87.2426758 C185.283776,87.8393585 185.555664,88.6666614 185.555664,89.7246094 C185.555664,90.7613984 185.262617,91.5918751 184.676514,92.2160645 C184.09041,92.8402538 183.304367,93.1523438 182.318359,93.1523438 Z M182.394531,87.2236328 C181.725908,87.2236328 181.196942,87.4510882 180.807617,87.9060059 C180.418292,88.3609235 180.223633,88.9882773 180.223633,89.7880859 C180.223633,90.5582721 180.420408,91.1655251 180.813965,91.6098633 C181.207521,92.0542014 181.734372,92.2763672 182.394531,92.2763672 C183.067386,92.2763672 183.584715,92.0584332 183.946533,91.6225586 C184.308351,91.186684 184.489258,90.5667358 184.489258,89.7626953 C184.489258,88.9501913 184.308351,88.3238954 183.946533,87.8837891 C183.584715,87.4436827 183.067386,87.2236328 182.394531,87.2236328 Z M192.614258,93 L191.573242,93 L191.573242,89.2929688 C191.573242,87.9134046 191.069666,87.2236328 190.0625,87.2236328 C189.54199,87.2236328 189.111411,87.4193503 188.770752,87.810791 C188.430093,88.2022318 188.259766,88.6962861 188.259766,89.2929688 L188.259766,93 L187.21875,93 L187.21875,86.5 L188.259766,86.5 L188.259766,87.5791016 L188.285156,87.5791016 C188.776044,86.7581339 189.486975,86.3476562 190.417969,86.3476562 C191.12891,86.3476562 191.672687,86.5772275 192.049316,87.036377 C192.425946,87.4955264 192.614258,88.1588498 192.614258,89.0263672 L192.614258,93 Z"/>
    <rect width="16" height="16" x="36" y="80" fill="#0060DF" rx="2"/>
    <path fill="#FFF" fill-rule="nonzero" d="M42.52,92.5 C42.2557846,92.4999449 42.0023287,92.3953269 41.815,92.209 L38.295,88.709 C38.0344321,88.4586398 37.9292001,88.0871801 38.0197394,87.7373537 C38.1102786,87.3875273 38.3825034,87.113758 38.731812,87.021241 C39.0811205,86.928724 39.4531696,87.0318527 39.705,87.291 L42.517,90.091 L48.291,84.298 C48.6828367,83.918435 49.3065809,83.9229549 49.6928758,84.3081585 C50.0791707,84.6933622 50.0854551,85.3170911 49.707,85.71 L43.228,92.21 C43.0397717,92.3966949 42.7851111,92.5010051 42.52,92.5 Z"/>
  </g>
</svg>
