<svg id="Clever_icon.svg" xmlns="http://www.w3.org/2000/svg" width="120" height="120" viewBox="0 0 120 120">
  <defs>
    <style>
      .cls-1 {
        fill: #5ac1a6;
      }

      .cls-2, .cls-3 {
        fill: #fff;
        fill-rule: evenodd;
      }

      .cls-3 {
        opacity: 0.5;
      }
    </style>
  </defs>
  <circle id="Rectangle_3_copy_3" data-name="Rectangle 3 copy 3" class="cls-1" cx="60" cy="60" r="60"/>
  <path id="Clever_" data-name="Clever " class="cls-2" d="M606.961,1298.27c-2.129,0-3.88,1.67-3.88,4.94,0,3.24,1.653,4.96,3.866,4.96a3.574,3.574,0,0,0,2.591-.99l-0.448-.56a3.061,3.061,0,0,1-2.115.81c-1.681,0-3.012-1.3-3.012-4.22,0-3.05,1.387-4.23,3.054-4.23a2.917,2.917,0,0,1,1.961.73l0.448-.56A3.481,3.481,0,0,0,606.961,1298.27Zm5.6,9.9a1.984,1.984,0,0,0,.84-0.19l-0.224-.6a1.2,1.2,0,0,1-.5.09,0.572,0.572,0,0,1-.589-0.71v-9.15l-0.812.1v9.08A1.21,1.21,0,0,0,612.56,1308.17Zm7.814-4.09c0-2.15-.953-3.54-2.858-3.54-1.793,0-2.927,1.54-2.927,3.88s1.176,3.75,3.109,3.75a3.614,3.614,0,0,0,2.4-.89l-0.379-.52a3.027,3.027,0,0,1-1.975.73c-1.26,0-2.185-.83-2.283-2.82h4.889C620.36,1304.53,620.374,1304.31,620.374,1304.08Zm-0.8-.04h-4.132c0.1-1.97.967-2.83,2.1-2.83,1.387,0,2.031,1.02,2.031,2.62v0.21Zm7.883-3.35h-0.869l-2.171,6.62-2.227-6.62h-0.9l2.62,7.33h1.008Zm6.748,3.39c0-2.15-.953-3.54-2.858-3.54-1.793,0-2.928,1.54-2.928,3.88s1.177,3.75,3.11,3.75a3.609,3.609,0,0,0,2.395-.89l-0.378-.52a3.027,3.027,0,0,1-1.975.73c-1.261,0-2.185-.83-2.283-2.82h4.889C634.192,1304.53,634.206,1304.31,634.206,1304.08Zm-0.8-.04h-4.132c0.1-1.97.966-2.83,2.1-2.83,1.387,0,2.031,1.02,2.031,2.62v0.21Zm5.977-3.5a2.132,2.132,0,0,0-2.073,1.79l-0.07-1.64h-0.7v7.33h0.812v-4.45c0.378-1.52.939-2.26,1.961-2.26a2.582,2.582,0,0,1,.645.08l0.154-.77A3.037,3.037,0,0,0,639.384,1300.54Z" transform="translate(-561 -1212)"/>
  <path id="Rounded_Rectangle_1" data-name="Rounded Rectangle 1" class="cls-2" d="M631.129,1268.34v4.79c0,0.1-.023.19-0.028,0.28v-2.66a26.55,26.55,0,0,1-8.56,1.47h-3.253a26.542,26.542,0,0,1-8.56-1.47v1.22a26.542,26.542,0,0,0,8.56,1.47h3.253a26.55,26.55,0,0,0,8.56-1.47v5.01a8.61,8.61,0,0,1-8.56,8.65h-3.253a8.61,8.61,0,0,1-8.56-8.65v-3.66c0-.06-0.019-0.12-0.019-0.19v-4.95A14.228,14.228,0,1,1,631.129,1268.34Zm-8.588,18.5a8.011,8.011,0,0,0,1.3-.11,2.484,2.484,0,0,1-2.458,2.27h-0.943a2.483,2.483,0,0,1-2.458-2.27,8.011,8.011,0,0,0,1.3.11h3.253Z" transform="translate(-561 -1212)"/>
  <path class="cls-3" d="M645.9,1257.6l-0.022.05a0.9,0.9,0,0,1-.785.47l-5.608.04a0.891,0.891,0,0,1-.881-0.91,0.871,0.871,0,0,1,.1-0.41,0.933,0.933,0,0,1,.8-0.5l5.6-.03A0.893,0.893,0,0,1,645.9,1257.6Zm-1.858-8.86a0.874,0.874,0,0,1-.4.34l-5.216,2.19a0.875,0.875,0,0,1-1.16-.48,0.947,0.947,0,0,1,.082-0.84,0.968,0.968,0,0,1,.418-0.35l5.216-2.19a0.862,0.862,0,0,1,.783.05l0.068,0.04a0.871,0.871,0,0,1,.309.39,0.938,0.938,0,0,1-.071.82Zm-10.242-3.73a0.916,0.916,0,0,1-.52.17,0.9,0.9,0,0,1-.74-0.38,0.881,0.881,0,0,1,.218-1.24l4.644-3.25a0.914,0.914,0,0,1,.5-0.16h0.046a0.918,0.918,0,0,1,.717.38,0.876,0.876,0,0,1,.164.47v0.08a0.873,0.873,0,0,1-.382.69Zm-5.613-4.35a0.9,0.9,0,0,1-.8.49,1.023,1.023,0,0,1-.414-0.1,0.9,0.9,0,0,1-.388-1.21l2.619-4.99a0.9,0.9,0,0,1,.779-0.48h0.049a0.8,0.8,0,0,1,.39.1,0.885,0.885,0,0,1,.384,1.2Zm-7.658-.24a0.9,0.9,0,0,1-.9-0.87v-5.67a0.89,0.89,0,0,1,.875-0.87h0.056a0.9,0.9,0,0,1,.876.84v5.72A0.908,0.908,0,0,1,620.529,1240.42Zm-7.138.73a0.9,0.9,0,0,1-.8-0.49l-2.619-4.99a0.889,0.889,0,0,1,.389-1.2,0.768,0.768,0,0,1,.384-0.1H610.8a0.9,0.9,0,0,1,.778.48l2.615,4.99a0.9,0.9,0,0,1-.384,1.21A1.029,1.029,0,0,1,613.391,1241.15Zm-5.9,4.03a0.922,0.922,0,0,1-.521-0.17l-4.644-3.24a0.888,0.888,0,0,1-.381-0.7v-0.06a0.854,0.854,0,0,1,.166-0.48,0.889,0.889,0,0,1,.735-0.38,0.911,0.911,0,0,1,.522.16l4.645,3.25a0.882,0.882,0,0,1,.382.71v0.04a0.89,0.89,0,0,1-.164.49A0.906,0.906,0,0,1,607.494,1245.18Zm-2.838,4.77a0.943,0.943,0,0,1,.081.84,0.874,0.874,0,0,1-1.159.48l-5.216-2.19a0.882,0.882,0,0,1-.4-0.34l-0.024-.03a0.938,0.938,0,0,1-.071-0.82,0.871,0.871,0,0,1,.309-0.39l0.067-.04a0.864,0.864,0,0,1,.784-0.05l5.216,2.19A0.974,0.974,0,0,1,604.656,1249.95Zm-1.362,6.89a0.871,0.871,0,0,1,.1.41,0.891,0.891,0,0,1-.881.91l-5.608-.04a0.9,0.9,0,0,1-.785-0.47l-0.022-.05a0.893,0.893,0,0,1,.792-1.29l5.6,0.03A0.933,0.933,0,0,1,603.294,1256.84Zm0.023,6.18a0.911,0.911,0,0,1,.951,1.55l-4.746,3.05a0.883,0.883,0,0,1-1.2-.27l-0.03-.05a0.914,0.914,0,0,1,.232-1.2Zm35.366,0,4.79,3.08a0.916,0.916,0,0,1,.233,1.2l-0.031.05a0.881,0.881,0,0,1-1.2.27l-4.746-3.05A0.911,0.911,0,0,1,638.683,1263.02Z" transform="translate(-561 -1212)"/>
</svg>
