<svg id="pie_chart_password.svg" xmlns="http://www.w3.org/2000/svg" width="198.719" height="158.5" viewBox="0 0 198.719 158.5">
  <defs>
    <style>
      .cls-1 {
        fill: #2284e6;
      }

      .cls-1, .cls-2, .cls-3, .cls-4 {
        fill-rule: evenodd;
      }

      .cls-2 {
        fill: #5ac1a6;
      }

      .cls-3 {
        fill: #f28b20;
      }

      .cls-4 {
        fill: #c53b33;
      }
    </style>
  </defs>
  <path class="cls-1" d="M725,2319a29.841,29.841,0,0,0-2.046-10.87l35.586-20.76a70.981,70.981,0,0,1-96.559,94.48l20.541-35.58A29.979,29.979,0,0,0,725,2319Z" transform="translate(-601.969 -2231.5)"/>
  <path id="Ellipse_4_copy" data-name="Ellipse 4 copy" class="cls-2" d="M720.226,2302.79a30.117,30.117,0,0,0-7.85-8.2l20.534-35.56a71.357,71.357,0,0,1,22.73,23.1Z" transform="translate(-601.969 -2231.5)"/>
  <path id="Ellipse_4_copy_2" data-name="Ellipse 4 copy 2" class="cls-3" d="M698,2248.09a70.545,70.545,0,0,1,29.714,7.94l-20.537,35.57a29.741,29.741,0,0,0-9.177-2.44v-41.07Z" transform="translate(-601.969 -2231.5)"/>
  <path id="Ellipse_4_copy_3" data-name="Ellipse 4 copy 3" class="cls-4" d="M692,2289.15a29.982,29.982,0,0,0-14.653,54.08l-20.551,35.6A70.979,70.979,0,0,1,692,2248.08v41.07Z" transform="translate(-601.969 -2231.5)"/>
  <path id="Untamed" class="cls-3" d="M727.233,2232.41H725.37v6.41c0,1.36-.546,2.03-1.75,2.03s-1.737-.67-1.737-2.03v-6.41h-1.849v6.51c0,1.99,1.2,3.38,3.586,3.38s3.613-1.43,3.613-3.38v-6.51Zm6.019,2.06a2.759,2.759,0,0,0-2.256,1.19l-0.14-.98H729.3v7.41h1.792v-5.16a1.91,1.91,0,0,1,1.555-1.12c0.561,0,.911.27,0.911,1.19v5.09h1.793v-5.37A2,2,0,0,0,733.252,2234.47Zm7.8,6.1a1.627,1.627,0,0,1-.882.28c-0.546,0-.785-0.29-0.785-1.02v-3.87h1.541l0.182-1.28h-1.723v-1.85l-1.792.21v1.64h-1.163v1.28h1.163v3.91c0,1.59.77,2.41,2.227,2.43a3.3,3.3,0,0,0,1.863-.56Zm7.113-.45v-3.1c0-1.64-.868-2.55-2.843-2.55a7.647,7.647,0,0,0-2.69.53l0.421,1.22a6.4,6.4,0,0,1,1.961-.4,1.138,1.138,0,0,1,1.386,1.29v0.42h-0.924c-2.157,0-3.376.87-3.376,2.48a2.2,2.2,0,0,0,2.395,2.29,2.538,2.538,0,0,0,2.214-1.11,1.691,1.691,0,0,0,1.638,1.08l0.379-1.19A0.837,0.837,0,0,1,748.162,2240.12Zm-3.193.87a0.977,0.977,0,0,1-1.051-1.12c0-.87.574-1.29,1.737-1.29H746.4v1.5A1.58,1.58,0,0,1,744.969,2240.99Zm13.219-6.52a2.589,2.589,0,0,0-2.214,1.24,1.822,1.822,0,0,0-1.807-1.24,2.513,2.513,0,0,0-2.143,1.17l-0.14-.96h-1.555v7.41h1.793v-5.16a1.709,1.709,0,0,1,1.415-1.12c0.434,0,.812.27,0.812,1.19v5.09h1.793v-5.16a1.71,1.71,0,0,1,1.4-1.12c0.448,0,.813.27,0.813,1.19v5.09h1.793v-5.37A1.977,1.977,0,0,0,758.188,2234.47Zm10.12,3.74c0-2.34-1.19-3.74-3.263-3.74-2.1,0-3.292,1.7-3.292,3.96,0,2.34,1.233,3.87,3.53,3.87a4.254,4.254,0,0,0,2.745-1l-0.742-1.02a3.071,3.071,0,0,1-1.849.66c-0.981,0-1.681-.49-1.821-2.01h4.65C768.28,2238.74,768.308,2238.44,768.308,2238.21Zm-1.779-.44h-2.913c0.1-1.47.63-2.03,1.471-2.03,1.008,0,1.442.73,1.442,1.95v0.08Zm7.868-6.26v3.75a2.527,2.527,0,0,0-1.835-.79c-1.877,0-3.011,1.63-3.011,3.92,0,2.35.966,3.91,2.815,3.91a2.463,2.463,0,0,0,2.115-1.15l0.126,0.94h1.583v-10.38Zm-1.526,9.43c-0.883,0-1.429-.66-1.429-2.57,0-1.78.616-2.56,1.555-2.56a1.732,1.732,0,0,1,1.4.78v3.39A1.741,1.741,0,0,1,772.871,2240.94Z" transform="translate(-601.969 -2231.5)"/>
  <path id="Clever" class="cls-2" d="M765.844,2258.2c-2.354,0-4.2,1.78-4.2,5.03,0,3.29,1.751,5.07,4.259,5.07a4.083,4.083,0,0,0,2.913-1.18l-0.868-1.12a3.156,3.156,0,0,1-1.961.81c-1.387,0-2.4-1.04-2.4-3.58,0-2.62,1.037-3.6,2.368-3.6a2.645,2.645,0,0,1,1.793.7l0.952-1.11A4.036,4.036,0,0,0,765.844,2258.2Zm5.976,10.1a2.933,2.933,0,0,0,1.191-.26l-0.378-1.26a1.082,1.082,0,0,1-.42.07c-0.294,0-.421-0.16-0.421-0.52v-8.82l-1.792.2v8.68A1.707,1.707,0,0,0,771.82,2268.3Zm8.319-4.09c0-2.34-1.191-3.74-3.264-3.74-2.1,0-3.292,1.7-3.292,3.96,0,2.34,1.233,3.87,3.53,3.87a4.257,4.257,0,0,0,2.746-1l-0.743-1.02a3.069,3.069,0,0,1-1.849.66c-0.98,0-1.681-.49-1.821-2.01H780.1C780.111,2264.74,780.139,2264.44,780.139,2264.21Zm-1.779-.44h-2.914c0.1-1.47.631-2.03,1.471-2.03,1.009,0,1.443.73,1.443,1.95v0.08Zm9.241-3.09h-1.849l-1.625,5.96-1.583-5.96H780.6l2.451,7.41h2.143Zm7.042,3.53c0-2.34-1.191-3.74-3.264-3.74-2.1,0-3.292,1.7-3.292,3.96,0,2.34,1.233,3.87,3.53,3.87a4.257,4.257,0,0,0,2.746-1l-0.743-1.02a3.069,3.069,0,0,1-1.849.66c-0.98,0-1.681-.49-1.821-2.01H794.6C794.615,2264.74,794.643,2264.44,794.643,2264.21Zm-1.779-.44H789.95c0.1-1.47.631-2.03,1.471-2.03,1.009,0,1.443.73,1.443,1.95v0.08Zm7.083-3.29a2.087,2.087,0,0,0-1.933,1.65l-0.168-1.45h-1.555v7.41h1.793v-3.94c0.28-1.26.729-1.92,1.639-1.92a2.786,2.786,0,0,1,.659.08l0.308-1.73A2.575,2.575,0,0,0,799.947,2260.48Z" transform="translate(-601.969 -2231.5)"/>
  <path id="Quick" class="cls-1" d="M770.861,2369.5c1.288-.69,2.255-1.89,2.255-4.26,0-3.24-1.639-5.04-4.23-5.04s-4.245,1.87-4.245,5.05c0,3.24,1.653,5,4.147,5a4.587,4.587,0,0,1,3.684,1.61l1.148-1.49A4.46,4.46,0,0,0,770.861,2369.5Zm-4.273-4.25c0-2.6.855-3.64,2.3-3.64s2.283,1.04,2.283,3.63c0,2.62-.841,3.64-2.283,3.64C767.471,2368.88,766.588,2367.86,766.588,2365.25Zm14.1-2.57H778.9v5.21a1.843,1.843,0,0,1-1.5,1.05c-0.616,0-.91-0.3-0.91-1.17v-5.09h-1.793V2368a2,2,0,0,0,2.073,2.3,2.513,2.513,0,0,0,2.269-1.25l0.1,1.04h1.555v-7.41Zm3.035-3.76a1.086,1.086,0,1,0,1.135,1.09A1.077,1.077,0,0,0,783.724,2358.92Zm0.91,3.76h-1.792v7.41h1.792v-7.41Zm5.139-.21c-2.129,0-3.46,1.61-3.46,3.97s1.331,3.86,3.474,3.86a3.637,3.637,0,0,0,2.395-.86l-0.8-1.13a2.575,2.575,0,0,1-1.5.53c-1.008,0-1.667-.63-1.667-2.42s0.631-2.54,1.667-2.54a2.39,2.39,0,0,1,1.5.53l0.8-1.08A3.453,3.453,0,0,0,789.773,2362.47Zm5.5-2.96-1.793.2v10.38h1.793v-10.58Zm4.441,3.17h-1.891l-2.48,3.36,2.55,4.05h2.059l-2.7-4.15Z" transform="translate(-601.969 -2231.5)"/>
  <path id="Alert" class="cls-4" d="M608.3,2264.09h1.962l-3-9.68h-2.283l-3.012,9.68h1.919l0.6-2.25H607.7Zm-3.445-3.65,1.232-4.62,1.247,4.62h-2.479Zm8.175,3.86a2.933,2.933,0,0,0,1.191-.26l-0.378-1.26a1.082,1.082,0,0,1-.42.07c-0.294,0-.421-0.16-0.421-0.52v-8.82l-1.792.2v8.68A1.707,1.707,0,0,0,613.03,2264.3Zm8.319-4.09c0-2.34-1.191-3.74-3.264-3.74-2.1,0-3.292,1.7-3.292,3.96,0,2.34,1.233,3.87,3.53,3.87a4.257,4.257,0,0,0,2.746-1l-0.743-1.02a3.069,3.069,0,0,1-1.849.66c-0.98,0-1.681-.49-1.821-2.01h4.651C621.321,2260.74,621.349,2260.44,621.349,2260.21Zm-1.779-.44h-2.914c0.1-1.47.631-2.03,1.471-2.03,1.009,0,1.443.73,1.443,1.95v0.08Zm7.083-3.29a2.088,2.088,0,0,0-1.933,1.65l-0.168-1.45H623v7.41h1.793v-3.94c0.281-1.26.729-1.92,1.639-1.92a2.786,2.786,0,0,1,.659.08l0.308-1.73A2.571,2.571,0,0,0,626.653,2256.48Zm5.684,6.09a1.627,1.627,0,0,1-.882.28c-0.546,0-.785-0.29-0.785-1.02v-3.87h1.541l0.182-1.28H630.67v-1.85l-1.793.21v1.64h-1.162v1.28h1.162v3.91c0,1.59.771,2.41,2.228,2.43a3.3,3.3,0,0,0,1.863-.56Z" transform="translate(-601.969 -2231.5)"/>
</svg>
