<svg id="Quick_icon.svg" xmlns="http://www.w3.org/2000/svg" width="120" height="120" viewBox="0 0 120 120">
  <defs>
    <style>
      .cls-1 {
        fill: #2284e6;
      }

      .cls-2, .cls-3 {
        fill: #fff;
        fill-rule: evenodd;
      }

      .cls-3 {
        opacity: 0.5;
      }
    </style>
  </defs>
  <circle id="Rectangle_3_copy_4" data-name="Rectangle 3 copy 4" class="cls-1" cx="60" cy="60" r="60"/>
  <path id="Quick_copy_2" data-name="Quick copy 2" class="cls-2" d="M609.488,1487.68c1.414-.51,2.423-1.82,2.423-4.45,0-3.24-1.583-4.96-3.922-4.96-2.3,0-3.908,1.81-3.908,4.97,0,3.2,1.6,4.91,3.908,4.91a4.825,4.825,0,0,1,3.7,1.17l0.56-.71A4.479,4.479,0,0,0,609.488,1487.68Zm-4.525-4.44c0-2.91,1.219-4.26,3.026-4.26,1.849,0,3.04,1.34,3.04,4.25,0,2.88-1.163,4.23-3.04,4.23C606.21,1487.46,604.963,1486.11,604.963,1483.24Zm14.353-2.55H618.5V1486a2.513,2.513,0,0,1-2.143,1.5c-0.952,0-1.443-.49-1.443-1.65v-5.16h-0.812v5.24a1.955,1.955,0,0,0,2.073,2.24,2.655,2.655,0,0,0,2.395-1.45l0.042,1.3h0.7v-7.33Zm3.357-3.22a0.591,0.591,0,1,0,.617.59A0.58,0.58,0,0,0,622.673,1477.47Zm0.42,3.22h-0.812v7.33h0.812v-7.33Zm5.475-.15c-1.877,0-3.1,1.51-3.1,3.87,0,2.38,1.232,3.76,3.109,3.76a3.16,3.16,0,0,0,2.1-.78l-0.392-.55a2.585,2.585,0,0,1-1.7.62c-1.331,0-2.255-.97-2.255-3.07s0.938-3.15,2.269-3.15a2.462,2.462,0,0,1,1.625.57l0.406-.53A2.94,2.94,0,0,0,628.568,1480.54Zm4.871-2.93-0.812.1v10.31h0.812v-10.41Zm4.1,3.08h-0.938l-3.082,3.32,3.362,4.01h0.981l-3.4-4.05Z" transform="translate(-561 -1392)"/>
  <path id="Rectangle_5_copy" data-name="Rectangle 5 copy" class="cls-3" d="M614.182,1415H632l-1.338,17.92-4.674,11.86,4.182,3.78-13.037,20.19,5.9-19.43-7.625-2.02,4.181-13.88Z" transform="translate(-561 -1392)"/>
  <path class="cls-2" d="M610,1415h15.5l0.985,17.92-4.674,11.86,4.181,3.78L616.641,1469l2.214-19.68-7.625-2.02,4.182-13.88Z" transform="translate(-561 -1392)"/>
</svg>
