<svg id="scale.svg" xmlns="http://www.w3.org/2000/svg" width="681" height="90" viewBox="0 0 681 90">
  <defs>
    <style>
      .cls-1 {
        fill: #ffce07;
      }

      .cls-1, .cls-10, .cls-4, .cls-5 {
        fill-rule: evenodd;
      }

      .cls-2, .cls-6 {
        font-size: 14px;
        font-family: "Fira Sans";
      }

      .cls-2 {
        fill: #505050;
        text-anchor: middle;
        font-weight: 500;
      }

      .cls-3 {
        fill: #f28b20;
      }

      .cls-4, .cls-5, .cls-6 {
        fill: #fff;
      }

      .cls-5 {
        opacity: 0.5;
      }

      .cls-6 {
        font-weight: 300;
      }

      .cls-7 {
        fill: #c53b33;
      }

      .cls-8 {
        fill: #2284e6;
      }

      .cls-9 {
        fill: #5ac1a6;
      }

      .cls-10 {
        fill: #fbfbfb;
      }
    </style>
  </defs>
  <g id="Arrow">
    <path class="cls-1" d="M586,1988h631l25,23.6-25,24.4H586l-25-24.76Z" transform="translate(-561 -1967)"/>
    <text id="Most_Rebellious" data-name="Most Rebellious" class="cls-2" x="75.273" y="50.131">Most Rebellious</text>
    <text id="Most_Reliable" data-name="Most Reliable" class="cls-2" x="612.105" y="50.635">Most Reliable</text>
  </g>
  <g>
    <g id="Untamed_" data-name="Untamed ">
      <circle class="cls-3" cx="184" cy="45" r="45"/>
      <g>
        <g id="Icon">
          <path class="cls-4" d="M756.991,1999.43c-0.152-3.56-3.268-11.35-3.29-11.77-0.1,1.23-.718,3.05-1.99,3.55a2.632,2.632,0,0,1-1.741.04,4.031,4.031,0,0,1-2.26-3.55,20.993,20.993,0,0,1,1.411-9.69c-8.878,6.37-12.626,12.96-13.417,14.68-3.37,7.38-1.3,14.27,2.316,17.91a23.3,23.3,0,0,0,3.575,3.4c-3.78-4.32-1.549-9.88-.693-11.53a29.286,29.286,0,0,1,2.6-3.88c0.536-.61.315-0.44,0.859,0.09,1.339,1.32,2.521,2.74,3.968,4,2.452,2.15,4.915,5.84,3.875,9.25-0.037.12-.083,0.23-0.125,0.34,3.537-2.94,5.118-8,4.907-12.84" transform="translate(-561 -1967)"/>
          <path class="cls-5" d="M744.732,2004.06h0c0.741,3.48-1.152,4.2-.82,6.81a2.269,2.269,0,0,0,2.105,1.9,1.665,1.665,0,0,0,.309-0.03,2.7,2.7,0,0,0,1.948-2.83v-0.12a3.908,3.908,0,0,0-.292-1.43,13.064,13.064,0,0,0-3.25-4.3" transform="translate(-561 -1967)"/>
        </g>
        <text id="Untamed" class="cls-6" x="155.155" y="69.019">Untamed</text>
      </g>
    </g>
    <g id="Alert_" data-name="Alert ">
      <circle class="cls-7" cx="287" cy="45" r="45"/>
      <text id="Alert" class="cls-6" x="272.157" y="69.019">Alert</text>
      <g id="Icon-2" data-name="Icon">
        <path id="i" class="cls-4" d="M848.5,1984a16.008,16.008,0,1,1-15.5,16A15.754,15.754,0,0,1,848.5,1984Zm-2.76,12.56h5.52a0.643,0.643,0,0,1,.642.64v13.69a0.637,0.637,0,0,1-.642.64h-5.52a0.637,0.637,0,0,1-.642-0.64V1997.2A0.643,0.643,0,0,1,845.74,1996.56Zm2.76-8.84a3,3,0,1,1-3.4,2.98A3.209,3.209,0,0,1,848.5,1987.72Z" transform="translate(-561 -1967)"/>
        <path id="Ellipse_3_copy" data-name="Ellipse 3 copy" class="cls-5" d="M848.724,1985.42a14.822,14.822,0,1,1-14.377,14.81A14.6,14.6,0,0,1,848.724,1985.42Z" transform="translate(-561 -1967)"/>
      </g>
    </g>
    <g id="Quick_" data-name="Quick ">
      <circle class="cls-8" cx="389" cy="45" r="45"/>
      <g id="Icon-3" data-name="Icon">
        <path id="Rectangle_5_copy" data-name="Rectangle 5 copy" class="cls-5" d="M945.661,1985H957l-0.851,11.61-2.975,7.69,2.661,2.45-8.3,13.09,3.757-12.6-4.852-1.31,2.661-8.99Z" transform="translate(-561 -1967)"/>
        <path class="cls-4" d="M943,1985h9.861l0.627,11.61-2.975,7.69,2.661,2.45L947.226,2020l1.409-12.76-4.852-1.31,2.661-8.99Z" transform="translate(-561 -1967)"/>
      </g>
      <text id="Quick" class="cls-6" x="371.156" y="69.019">Quick</text>
    </g>
    <g id="Clever">
      <circle class="cls-9" cx="491" cy="45" r="45"/>
      <g id="Icon-4" data-name="Icon">
        <path class="cls-4" d="M1052.5,1991.25a8.205,8.205,0,1,1-8.25,8.2A8.222,8.222,0,0,1,1052.5,1991.25Zm-0.99,16.16h1.88a15.59,15.59,0,0,0,4.97-.84v2.87a4.957,4.957,0,0,1-4.97,4.94h-1.88a4.957,4.957,0,0,1-4.97-4.94v-2.87A15.59,15.59,0,0,0,1051.51,2007.41Z" transform="translate(-561 -1967)"/>
        <path id="Rounded_Rectangle_1_copy_2" data-name="Rounded Rectangle 1 copy 2" class="cls-10" d="M1052.18,2014.98h0.54a4.548,4.548,0,0,0,1.44-.24v0.83a1.432,1.432,0,0,1-1.44,1.43h-0.54a1.432,1.432,0,0,1-1.44-1.43v-0.83A4.548,4.548,0,0,0,1052.18,2014.98Zm-0.67-6.18h1.88a15.59,15.59,0,0,0,4.97-.84v2.87a4.951,4.951,0,0,1-4.97,4.94h-1.88a4.951,4.951,0,0,1-4.97-4.94v-2.87A15.59,15.59,0,0,0,1051.51,2008.8Z" transform="translate(-561 -1967)"/>
        <path class="cls-5" d="M1052.24,1985h-0.03a0.524,0.524,0,0,0-.51.5v3.24a0.526,0.526,0,0,0,1.05.02v-3.27a0.522,0.522,0,0,0-.51-0.49m5.5,0.78h-0.03a0.532,0.532,0,0,0-.45.28l-1.52,2.85a0.513,0.513,0,0,0,.22.69,0.533,0.533,0,0,0,.24.06,0.543,0.543,0,0,0,.47-0.28l1.52-2.85a0.509,0.509,0,0,0-.23-0.69,0.456,0.456,0,0,0-.22-0.06m4.59,3.31h-0.03a0.521,0.521,0,0,0-.29.09l-2.69,1.85a0.505,0.505,0,0,0-.13.71,0.555,0.555,0,0,0,.43.22,0.529,0.529,0,0,0,.3-0.09l2.7-1.86a0.5,0.5,0,0,0,.22-0.39v-0.05a0.473,0.473,0,0,0-.1-0.27,0.494,0.494,0,0,0-.41-0.21m-15.75-3.31h-0.03a0.456,0.456,0,0,0-.22.06,0.509,0.509,0,0,0-.23.69l1.52,2.85a0.543,0.543,0,0,0,.47.28,0.533,0.533,0,0,0,.24-0.06,0.513,0.513,0,0,0,.22-0.69l-1.52-2.85a0.532,0.532,0,0,0-.45-0.28m5.66-.78h-0.03a0.524,0.524,0,0,0-.51.5v3.24a0.526,0.526,0,0,0,1.05.02v-3.27a0.522,0.522,0,0,0-.51-0.49m5.5,0.78h-0.03a0.532,0.532,0,0,0-.45.28l-1.52,2.85a0.513,0.513,0,0,0,.22.69,0.533,0.533,0,0,0,.24.06,0.543,0.543,0,0,0,.47-0.28l1.52-2.85a0.509,0.509,0,0,0-.23-0.69,0.456,0.456,0,0,0-.22-0.06m4.59,3.31h-0.03a0.521,0.521,0,0,0-.29.09l-2.69,1.85a0.505,0.505,0,0,0-.13.71,0.555,0.555,0,0,0,.43.22,0.529,0.529,0,0,0,.3-0.09l2.7-1.86a0.5,0.5,0,0,0,.22-0.39v-0.05a0.473,0.473,0,0,0-.1-0.27,0.494,0.494,0,0,0-.41-0.21m-15.75-3.31h-0.03a0.456,0.456,0,0,0-.22.06,0.509,0.509,0,0,0-.23.69l1.52,2.85a0.543,0.543,0,0,0,.47.28,0.533,0.533,0,0,0,.24-0.06,0.513,0.513,0,0,0,.22-0.69l-1.52-2.85a0.532,0.532,0,0,0-.45-0.28m-4.61,3.3a0.522,0.522,0,0,0-.42.22,0.438,0.438,0,0,0-.1.28v0.03a0.473,0.473,0,0,0,.22.4l2.69,1.86a0.586,0.586,0,0,0,.31.09,0.555,0.555,0,0,0,.43-0.22,0.468,0.468,0,0,0,.09-0.28v-0.02a0.5,0.5,0,0,0-.22-0.41l-2.69-1.85a0.6,0.6,0,0,0-.31-0.1m10.27-4.08h-0.03a0.524,0.524,0,0,0-.51.5v3.24a0.526,0.526,0,0,0,1.05.02v-3.27a0.522,0.522,0,0,0-.51-0.49m5.5,0.78h-0.03a0.532,0.532,0,0,0-.45.28l-1.52,2.85a0.513,0.513,0,0,0,.22.69,0.533,0.533,0,0,0,.24.06,0.543,0.543,0,0,0,.47-0.28l1.52-2.85a0.509,0.509,0,0,0-.23-0.69,0.456,0.456,0,0,0-.22-0.06m4.59,3.31h-0.03a0.521,0.521,0,0,0-.29.09l-2.69,1.85a0.505,0.505,0,0,0-.13.71,0.555,0.555,0,0,0,.43.22,0.529,0.529,0,0,0,.3-0.09l2.7-1.86a0.5,0.5,0,0,0,.22-0.39v-0.05a0.473,0.473,0,0,0-.1-0.27,0.494,0.494,0,0,0-.41-0.21m-15.75-3.31h-0.03a0.456,0.456,0,0,0-.22.06,0.509,0.509,0,0,0-.23.69l1.52,2.85a0.543,0.543,0,0,0,.47.28,0.533,0.533,0,0,0,.24-0.06,0.513,0.513,0,0,0,.22-0.69l-1.52-2.85a0.532,0.532,0,0,0-.45-0.28m-4.61,3.3a0.522,0.522,0,0,0-.42.22,0.438,0.438,0,0,0-.1.28v0.03a0.473,0.473,0,0,0,.22.4l2.69,1.86a0.586,0.586,0,0,0,.31.09,0.555,0.555,0,0,0,.43-0.22,0.468,0.468,0,0,0,.09-0.28v-0.02a0.5,0.5,0,0,0-.22-0.41l-2.69-1.85a0.6,0.6,0,0,0-.31-0.1m-2.64,15.52,0.02,0.03a0.512,0.512,0,0,0,.69.15l2.76-1.74a0.51,0.51,0,0,0,.14-0.7,0.519,0.519,0,0,0-.7-0.18l-2.77,1.76a0.5,0.5,0,0,0-.14.68m-1.27-5.54,0.01,0.02a0.507,0.507,0,0,0,.46.27l3.25,0.02a0.5,0.5,0,0,0,.51-0.51,0.475,0.475,0,0,0-.06-0.24,0.516,0.516,0,0,0-.46-0.28l-3.25-.02a0.514,0.514,0,0,0-.52.51,0.558,0.558,0,0,0,.06.23m1.06-5.09,0.02,0.03a0.485,0.485,0,0,0,.23.19l3.03,1.25a0.507,0.507,0,0,0,.67-0.28,0.524,0.524,0,0,0-.29-0.67l-3.03-1.26a0.507,0.507,0,0,0-.45.03l-0.04.03a0.489,0.489,0,0,0-.18.22,0.526,0.526,0,0,0,.04.46m2.85-4.89a0.522,0.522,0,0,0-.42.22,0.438,0.438,0,0,0-.1.28v0.03a0.473,0.473,0,0,0,.22.4l2.69,1.86a0.586,0.586,0,0,0,.31.09,0.555,0.555,0,0,0,.43-0.22,0.468,0.468,0,0,0,.09-0.28v-0.02a0.5,0.5,0,0,0-.22-0.41l-2.69-1.85a0.6,0.6,0,0,0-.31-0.1m23.7,15.52-0.02.03a0.512,0.512,0,0,1-.69.15l-2.76-1.74a0.51,0.51,0,0,1-.14-0.7,0.519,0.519,0,0,1,.7-0.18l2.77,1.76a0.5,0.5,0,0,1,.14.68m1.27-5.54-0.01.02a0.507,0.507,0,0,1-.46.27l-3.25.02a0.5,0.5,0,0,1-.51-0.51,0.475,0.475,0,0,1,.06-0.24,0.516,0.516,0,0,1,.46-0.28l3.25-.02a0.514,0.514,0,0,1,.52.51,0.558,0.558,0,0,1-.06.23m-1.06-5.09-0.02.03a0.485,0.485,0,0,1-.23.19l-3.03,1.25a0.507,0.507,0,0,1-.67-0.28,0.524,0.524,0,0,1,.29-0.67l3.03-1.26a0.507,0.507,0,0,1,.45.03l0.04,0.03a0.489,0.489,0,0,1,.18.22,0.526,0.526,0,0,1-.04.46" transform="translate(-561 -1967)"/>
        <path id="Rounded_Rectangle_1_copy" data-name="Rounded Rectangle 1 copy" class="cls-4" d="M1052.44,1998.16h0.02a5.911,5.911,0,0,1,5.92,5.91v1.33a5.911,5.911,0,0,1-5.92,5.91h-0.02a5.909,5.909,0,0,1-5.91-5.91v-1.33A5.909,5.909,0,0,1,1052.44,1998.16Zm-0.93,9.25h1.88a15.59,15.59,0,0,0,4.97-.84v2.87a4.957,4.957,0,0,1-4.97,4.94h-1.88a4.957,4.957,0,0,1-4.97-4.94v-2.87A15.59,15.59,0,0,0,1051.51,2007.41Z" transform="translate(-561 -1967)"/>
        <path id="Rounded_Rectangle_1" data-name="Rounded Rectangle 1" class="cls-4" d="M1051.51,2008.11h1.88a15.59,15.59,0,0,0,4.97-.84v2.86a4.951,4.951,0,0,1-4.97,4.94h-1.88a4.951,4.951,0,0,1-4.97-4.94v-2.86A15.59,15.59,0,0,0,1051.51,2008.11Z" transform="translate(-561 -1967)"/>
      </g>
      <text id="Clever_" data-name="Clever " class="cls-6" x="472.157" y="69.019">Clever</text>
    </g>
  </g>
</svg>
