<svg id="Untamed__icon.svg" data-name="Untamed _icon.svg" xmlns="http://www.w3.org/2000/svg" width="120" height="120" viewBox="0 0 120 120">
  <defs>
    <style>
      .cls-1 {
        fill: #f28b20;
      }

      .cls-2, .cls-3 {
        fill: #fff;
        fill-rule: evenodd;
      }

      .cls-3 {
        opacity: 0.5;
      }
    </style>
  </defs>
  <circle class="cls-1" cx="60" cy="60" r="60"/>
  <path id="Untamed_copy_2" data-name="Untamed copy 2" class="cls-2" d="M599.874,1118.42H599.02v6.53c0,1.54-.686,2.5-2.3,2.5s-2.312-.94-2.312-2.5v-6.53h-0.84v6.6a3.152,3.152,0,0,0,6.3,0v-6.6Zm6.131,2.12a2.981,2.981,0,0,0-2.466,1.4l-0.07-1.25h-0.7v7.33h0.812v-5.31a2.74,2.74,0,0,1,2.27-1.51c0.9,0,1.386.49,1.386,1.69v5.13h0.813v-5.24A1.948,1.948,0,0,0,606.005,1120.54Zm7.952,6.6a2.086,2.086,0,0,1-1.121.33,1.036,1.036,0,0,1-1.079-1.27v-4.85h1.793l0.1-.66h-1.891v-1.85l-0.812.1v1.75h-1.233v0.66h1.233v4.89a1.688,1.688,0,0,0,1.793,1.93,2.692,2.692,0,0,0,1.541-.46Zm6.314-.75v-3.53a2.079,2.079,0,0,0-2.395-2.32,6.163,6.163,0,0,0-2.311.49l0.21,0.62a5.87,5.87,0,0,1,1.989-.42,1.441,1.441,0,0,1,1.695,1.68v0.71h-1.4c-1.877,0-3.04.83-3.04,2.37a2.08,2.08,0,0,0,2.27,2.18,2.566,2.566,0,0,0,2.283-1.22,1.29,1.29,0,0,0,1.134,1.22l0.183-.57A1.024,1.024,0,0,1,620.271,1126.39Zm-2.843,1.13a1.421,1.421,0,0,1-1.541-1.57c0-1.17.826-1.74,2.3-1.74h1.275v1.99A2.18,2.18,0,0,1,617.428,1127.52Zm12.939-6.98a2.793,2.793,0,0,0-2.312,1.46,1.754,1.754,0,0,0-1.807-1.46,2.715,2.715,0,0,0-2.255,1.39l-0.07-1.24h-0.7v7.33h0.812v-5.31a2.512,2.512,0,0,1,2.059-1.51c0.757,0,1.247.5,1.247,1.69v5.13h0.812v-5.31a2.532,2.532,0,0,1,2.059-1.51c0.757,0,1.247.5,1.247,1.69v5.13h0.813v-5.24C632.272,1121.39,631.543,1120.54,630.367,1120.54Zm9.994,3.54c0-2.15-.952-3.54-2.857-3.54-1.793,0-2.928,1.54-2.928,3.88s1.177,3.75,3.11,3.75a3.609,3.609,0,0,0,2.395-.89l-0.378-.52a3.029,3.029,0,0,1-1.975.73c-1.261,0-2.185-.83-2.283-2.82h4.888C640.347,1124.53,640.361,1124.31,640.361,1124.08Zm-0.8-.04h-4.132c0.1-1.97.966-2.83,2.1-2.83,1.387,0,2.031,1.02,2.031,2.62v0.21Zm7.546-6.43v3.92a2.547,2.547,0,0,0-2.059-.99c-1.793,0-2.872,1.6-2.872,3.85,0,2.33,1.037,3.78,2.746,3.78a2.425,2.425,0,0,0,2.2-1.27l0.1,1.12h0.7v-10.31Zm-2.059,9.89c-1.233,0-2-1.08-2-3.12-0.014-2.06.854-3.17,2.143-3.17a2.275,2.275,0,0,1,1.919,1.11v3.82A2.24,2.24,0,0,1,645.05,1127.5Z" transform="translate(-561 -1032)"/>
  <path class="cls-2" d="M636.961,1081.17c-0.2-4.85-4.4-15.45-4.43-16.02-0.139,1.67-.968,4.16-2.68,4.83a3.518,3.518,0,0,1-2.345.05c-2.087-.8-2.819-2.97-3.044-4.82a28.894,28.894,0,0,1,1.9-13.2c-11.956,8.67-17,17.64-18.068,19.99-4.539,10.04-1.746,19.41,3.119,24.37,1.91,1.96,3.175,3.6,4.814,4.62-5.09-5.87-2.086-13.44-.933-15.68a39.516,39.516,0,0,1,3.507-5.28c0.722-.84.425-0.6,1.158,0.12,1.8,1.8,3.394,3.73,5.342,5.44,3.3,2.93,6.62,7.95,5.22,12.59-0.05.16-.112,0.32-0.17,0.47,4.764-4.01,6.893-10.9,6.609-17.48" transform="translate(-561 -1032)"/>
  <path class="cls-3" d="M620.453,1087.47h0c1,4.74-1.551,5.71-1.1,9.28a3.054,3.054,0,0,0,2.834,2.57,3,3,0,0,0,.416-0.03c1.577-.25,2.595-1.95,2.623-3.86v-0.15a5.459,5.459,0,0,0-.394-1.96,17.713,17.713,0,0,0-4.375-5.85" transform="translate(-561 -1032)"/>
</svg>
