<svg xmlns="http://www.w3.org/2000/svg" xmlns:xlink="http://www.w3.org/1999/xlink" viewBox="0 0 360 260"><defs><rect id="b" width="323" height="99" x="18" y="81" rx="4"/><filter id="a" width="104%" height="113.1%" x="-2%" y="-5.6%" filterUnits="objectBoundingBox"><feOffset dy="1" in="SourceAlpha" result="shadowOffsetOuter1"/><feGaussianBlur in="shadowOffsetOuter1" result="shadowBlurOuter1" stdDeviation="2"/><feColorMatrix in="shadowBlurOuter1" values="0 0 0 0 0.0470588235 0 0 0 0 0.0470588235 0 0 0 0 0.0509803922 0 0 0 0.103091033 0"/></filter><rect id="c" width="46" height="22" rx="2"/><rect id="e" width="46" height="22" rx="2"/></defs><g fill="none" fill-rule="evenodd"><use fill="black" filter="url(#a)" xlink:href="#b"/><use fill="#FFFFFF" xlink:href="#b"/><rect width="283" height="60" x="38" y="100" fill="#F9F9FA" rx="4"/><g transform="translate(56 115)"><rect width="31" height="10" y="18" fill="#D7D7DB" rx="1"/><rect width="42" height="10" fill="#737373" rx="1"/></g><g transform="translate(141 115)"><rect width="21" height="10" fill="#737373" rx="1"/><rect width="42" height="10" y="18" fill="#D7D7DB" rx="1"/></g><g transform="translate(226 115)"><rect width="77" height="10" y="18" fill="#D7D7DB" rx="1"/><circle cx="5.5" cy="5.5" r="5.5" fill="#737373"/><circle cx="22" cy="5.5" r="5.5" fill="#737373"/><circle cx="38.5" cy="5.5" r="5.5" fill="#737373"/><circle cx="55" cy="5.5" r="5.5" fill="#737373"/><circle cx="71.5" cy="5.5" r="5.5" fill="#D7D7DB"/></g><g transform="translate(306 122)"><g fill="#B5007F" transform="translate(15)"><rect width="20" height="1" transform="translate(0 4)"/><rect width="1" height="9"/><rect width="1" height="9" transform="translate(19)"/></g><g transform="translate(0 9)"><rect width="8" height="8" fill="#B5007F" transform="rotate(45 11.086 27.935)"/><g transform="translate(0 4)"><mask id="d" fill="white"><use xlink:href="#c"/></mask><use fill="#ED00B5" xlink:href="#c"/><g fill="#B5007F" mask="url(#d)"><rect width="46" height="22"/></g><path fill="#FFFFFF" d="M13.47 6.9c.38.2.67.47.87.82.2.35.3.74.3 1.18 0 .52-.12 1.01-.36 1.5-.23.47-.61 1-1.13 1.57-.52.57-1.26 1.3-2.2 2.17h3.88l-.12.86H9.79v-.82a48.03 48.03 0 0 0 2.4-2.42c.53-.58.9-1.08 1.1-1.5a3 3 0 0 0 .3-1.32c0-.46-.14-.83-.4-1.1-.27-.26-.63-.39-1.1-.39-.39 0-.71.07-.97.2a2.7 2.7 0 0 0-.8.68l-.7-.54c.33-.41.7-.71 1.1-.9.4-.2.88-.29 1.42-.29.5 0 .95.1 1.33.3zm8.25.8c.46.73.7 1.78.7 3.16a6 6 0 0 1-.7 3.17 2.23 2.23 0 0 1-2 1.1c-.89 0-1.56-.36-2.02-1.1a6 6 0 0 1-.69-3.17c0-1.38.23-2.43.7-3.16a2.23 2.23 0 0 1 2-1.1c.88 0 1.55.37 2.01 1.1zm-3.65 3.16c0 2.3.55 3.46 1.64 3.46 1.1 0 1.65-1.16 1.65-3.46s-.55-3.44-1.65-3.44c-1.1 0-1.64 1.14-1.64 3.44zm2.2-.55c.16.15.24.33.24.55 0 .22-.08.41-.23.56a.77.77 0 0 1-.57.23.75.75 0 0 1-.55-.23.78.78 0 0 1-.23-.56c0-.22.08-.4.23-.55a.75.75 0 0 1 .55-.23c.23 0 .42.08.57.23zm9.37 1.52c0 1-.21 1.8-.63 2.4-.41.6-1.02.9-1.8.9-.7 0-1.26-.24-1.69-.72v3.01l-1 .12V8.68h.86l.08.88c.23-.32.51-.58.84-.75.32-.18.67-.27 1.05-.27 1.52 0 2.29 1.1 2.29 3.3zm-3.42-2.18c-.26.19-.5.43-.7.72v3.13c.17.25.38.44.63.58.25.14.53.21.82.21.53 0 .93-.2 1.19-.6.26-.4.39-1.03.39-1.86 0-.83-.12-1.45-.35-1.86-.23-.4-.6-.61-1.1-.61-.31 0-.6.1-.88.29zM31.2 15l2.32-3.34-2.05-2.98h1.2l1.47 2.35 1.47-2.35h1.17l-2.06 2.94L37.04 15h-1.22l-1.74-2.71L32.34 15h-1.15z" mask="url(#d)"/></g></g></g><path fill="#ED00B5" fill-opacity=".2" d="M38 81v100H22a4 4 0 0 1-4-4V85a4 4 0 0 1 4-4h16z"/><g transform="translate(3 122)"><g fill="#B5007F" transform="translate(15)"><rect width="20" height="1" transform="translate(0 4)"/><rect width="1" height="9"/><rect width="1" height="9" transform="translate(19)"/></g><g transform="translate(0 9)"><rect width="8" height="8" fill="#B5007F" transform="rotate(45 11.086 27.935)"/><g transform="translate(0 4)"><mask id="f" fill="white"><use xlink:href="#e"/></mask><use fill="#ED00B5" xlink:href="#e"/><g fill="#B5007F" mask="url(#f)"><rect width="46" height="22"/></g><path fill="#FFFFFF" d="M13.47 6.9c.38.2.67.47.87.82.2.35.3.74.3 1.18 0 .52-.12 1.01-.36 1.5-.23.47-.61 1-1.13 1.57-.52.57-1.26 1.3-2.2 2.17h3.88l-.12.86H9.79v-.82a48.03 48.03 0 0 0 2.4-2.42c.53-.58.9-1.08 1.1-1.5a3 3 0 0 0 .3-1.32c0-.46-.14-.83-.4-1.1-.27-.26-.63-.39-1.1-.39-.39 0-.71.07-.97.2a2.7 2.7 0 0 0-.8.68l-.7-.54c.33-.41.7-.71 1.1-.9.4-.2.88-.29 1.42-.29.5 0 .95.1 1.33.3zm8.25.8c.46.73.7 1.78.7 3.16a6 6 0 0 1-.7 3.17 2.23 2.23 0 0 1-2 1.1c-.89 0-1.56-.36-2.02-1.1a6 6 0 0 1-.69-3.17c0-1.38.23-2.43.7-3.16a2.23 2.23 0 0 1 2-1.1c.88 0 1.55.37 2.01 1.1zm-3.65 3.16c0 2.3.55 3.46 1.64 3.46 1.1 0 1.65-1.16 1.65-3.46s-.55-3.44-1.65-3.44c-1.1 0-1.64 1.14-1.64 3.44zm2.2-.55c.16.15.24.33.24.55 0 .22-.08.41-.23.56a.77.77 0 0 1-.57.23.75.75 0 0 1-.55-.23.78.78 0 0 1-.23-.56c0-.22.08-.4.23-.55a.75.75 0 0 1 .55-.23c.23 0 .42.08.57.23zm9.37 1.52c0 1-.21 1.8-.63 2.4-.41.6-1.02.9-1.8.9-.7 0-1.26-.24-1.69-.72v3.01l-1 .12V8.68h.86l.08.88c.23-.32.51-.58.84-.75.32-.18.67-.27 1.05-.27 1.52 0 2.29 1.1 2.29 3.3zm-3.42-2.18c-.26.19-.5.43-.7.72v3.13c.17.25.38.44.63.58.25.14.53.21.82.21.53 0 .93-.2 1.19-.6.26-.4.39-1.03.39-1.86 0-.83-.12-1.45-.35-1.86-.23-.4-.6-.61-1.1-.61-.31 0-.6.1-.88.29zM31.2 15l2.32-3.34-2.05-2.98h1.2l1.47 2.35 1.47-2.35h1.17l-2.06 2.94L37.04 15h-1.22l-1.74-2.71L32.34 15h-1.15z" mask="url(#f)"/></g></g></g><g fill="#ED00B5" fill-opacity=".2" transform="matrix(0 1 1 0 321 81)"><path d="M0 0h100v16a4 4 0 0 1-4 4H4a4 4 0 0 1-4-4V0z"/></g></g></svg>