<?xml version="1.0" encoding="UTF-8" standalone="no"?>
<svg width="16px" height="16px" viewBox="0 0 16 16" version="1.1" xmlns="http://www.w3.org/2000/svg" xmlns:xlink="http://www.w3.org/1999/xlink" xmlns:sketch="http://www.bohemiancoding.com/sketch/ns">
    <!-- Generator: Sketch 3.5.1 (25234) - http://www.bohemiancoding.com/sketch -->
    <title>Artboard 1</title>
    <desc>Created with Sketch.</desc>
    <defs>
        <linearGradient x1="50%" y1="98.1206154%" x2="50%" y2="0%" id="linearGradient-1">
            <stop stop-color="#69CCF8" offset="0%"></stop>
            <stop stop-color="#74D1FA" offset="81.5888074%"></stop>
            <stop stop-color="#B6E9FF" offset="100%"></stop>
        </linearGradient>
        <linearGradient x1="50%" y1="17.9239909%" x2="50%" y2="100%" id="linearGradient-2">
            <stop stop-color="#3F95BD" stop-opacity="0.7" offset="0%"></stop>
            <stop stop-color="#006EA7" stop-opacity="0.5" offset="100%"></stop>
        </linearGradient>
        <linearGradient x1="50%" y1="0%" x2="50%" y2="100%" id="linearGradient-3">
            <stop stop-color="#69CCF8" offset="0%"></stop>
            <stop stop-color="#74D1FA" offset="81.5888074%"></stop>
            <stop stop-color="#B6E9FF" offset="98.1206154%"></stop>
        </linearGradient>
        <linearGradient x1="50%" y1="17.9239909%" x2="50%" y2="100%" id="linearGradient-4">
            <stop stop-color="#5C9DBC" stop-opacity="0.6" offset="0%"></stop>
            <stop stop-color="#005E8F" stop-opacity="0.5" offset="100%"></stop>
        </linearGradient>
    </defs>
    <g id="Page-1" stroke="none" stroke-width="1" fill="none" fill-rule="evenodd" sketch:type="MSPage">
        <g id="Artboard-1" sketch:type="MSArtboardGroup">
            <path d="M0.268802297,4 C0.097800834,4.29638988 0,4.64092742 0,5.0085302 L0,12.9914698 C0,14.0980496 0.892771196,15 1.99406028,15 L14.0059397,15 C15.1054862,15 16,14.1007504 16,12.9914698 L16,5.0085302 C16,3.90195036 15.1018209,3 13.9938609,3 L8,3 L7.2,1.9 C7.2,1.9 6.6,1 6,1 L1,1 C0.4,1 0,1.4 0,2 L0,3 L0,4 L0.268802297,4 Z" id="Flap---Back" fill="url(#linearGradient-1)" sketch:type="MSShapeGroup"></path>
            <path d="M1.99573974,3 L1.99573974,4 C1.44554017,4 1,4.44885443 1,5.0085302 L1,12.9914698 C1,13.5485158 1.44781571,14 1.99406028,14 L14.0059397,14 C14.5523144,14 15,13.5493378 15,12.9914698 L15,5.0085302 C15,4.45282842 14.5481304,4 13.9938609,4 L5.83263758,4 L3.8239356,4 L1.81844874,4 L1.81844874,3.00777901 C1.87684702,3.00262933 1.93597964,3 1.99573974,3 L1.81844874,3 L1.96929846,3 L1.99573974,3 Z M1.81844874,3.00777901 L1.81844874,4 L1.99573974,4 L1.99573974,3 L5.83263758,3 L13.9938609,3 C15.1018209,3 16,3.90195036 16,5.0085302 L16,12.9914698 C16,14.1007504 15.1054862,15 14.0059397,15 L1.99406028,15 C0.892771196,15 0,14.0980496 0,12.9914698 L0,5.0085302 C0,3.95923196 0.79686154,3.09786473 1.81844874,3.00777901 L1.81844874,3.00777901 Z M7.5,4 L7,4 L7,3 L8,3 L7.19126392,3.5881717 L6.36794971,2.4547002 C6.32637719,2.39234142 6.23274984,2.27196341 6.11789322,2.15710678 C6.00744617,2.04665973 5.92967995,2 6,2 L1,2 C0.95228475,2 1,1.95228475 1,2 L1,3 L1,4 L0.5,4 L0,4 L0,3.5 L0,3 L8,3 L8,3.5 L8,4 L7.5,4 L7.5,4 Z M6,1 C6.6,1 7.2,1.9 7.2,1.9 L8,3 L8,4 L0,4 L0,3 L0,2 C0,1.4 0.4,1 1,1 L6,1 L6,1 Z" id="Shape" fill="url(#linearGradient-2)" sketch:type="MSShapeGroup"></path>
            <rect id="Flap---Front" fill="url(#linearGradient-3)" sketch:type="MSShapeGroup" x="0" y="3" width="16" height="12" rx="1"></rect>
            <path d="M0,4 L0,4 L1,3 L1,13.9975267 C1,13.9957712 1.00420197,14 1.00087166,14 L14.9991283,14 C15.000987,14 15,14.0009909 15,13.9975267 L15,4.00247329 C15,4.00422882 14.995798,4 14.9991283,4 L0,4 Z M0,3 L14.9991283,3 C15.5518945,3 16,3.45576096 16,4.00247329 L16,13.9975267 C16,14.5511774 15.5553691,15 14.9991283,15 L1.00087166,15 C0.448105505,15 0,14.544239 0,13.9975267 L0,3 L0,3 Z" id="Shape" fill="url(#linearGradient-4)" sketch:type="MSShapeGroup"></path>
        </g>
    </g>
</svg>