<svg xmlns="http://www.w3.org/2000/svg" width="504" height="100" viewBox="0 0 504 100">
  <g fill="none" fill-rule="evenodd">
    <path fill="#0060DF" d="M210.634277,54.8134766 L205.536621,54.8134766 L205.536621,45.4311523 L204.218262,45.4311523 L204.218262,56 L210.634277,56 L210.634277,54.8134766 Z M215.724609,49.0786133 C214.464844,49.0786133 213.585938,50.0014648 213.490723,51.4003906 L217.841309,51.4003906 C217.812012,50.0014648 216.977051,49.0786133 215.724609,49.0786133 Z M217.804688,53.956543 L219.064453,53.956543 C218.683594,55.3115234 217.467773,56.1391602 215.739258,56.1391602 C213.549316,56.1391602 212.179688,54.5571289 212.179688,52.0595703 C212.179688,49.5766602 213.571289,47.965332 215.739258,47.965332 C217.870605,47.965332 219.166992,49.4814453 219.166992,51.9350586 L219.166992,52.418457 L213.490723,52.418457 L213.490723,52.4770508 C213.556641,54.0371094 214.428223,55.0258789 215.768555,55.0258789 C216.786621,55.0258789 217.475098,54.6523438 217.804688,53.956543 Z M223.576172,55.0332031 C224.872559,55.0332031 225.832031,54.1835938 225.832031,53.0556641 L225.832031,52.3305664 L223.708008,52.4697266 C222.506836,52.550293 221.979492,52.9677734 221.979492,53.7587891 C221.979492,54.5644531 222.660645,55.0332031 223.576172,55.0332031 Z M223.341797,56.1391602 C221.811035,56.1391602 220.675781,55.230957 220.675781,53.7880859 C220.675781,52.3745117 221.71582,51.5615234 223.554199,51.4516602 L225.832031,51.3125 L225.832031,50.5947266 C225.832031,49.6206055 225.224121,49.0859375 224.044922,49.0859375 C223.100098,49.0859375 222.440918,49.4448242 222.265137,50.0673828 L220.990723,50.0673828 C221.15918,48.800293 222.404297,47.965332 224.088867,47.965332 C226.015137,47.965332 227.091797,48.9541016 227.091797,50.5947266 L227.091797,56 L225.890625,56 L225.890625,54.8354492 L225.773438,54.8354492 C225.260742,55.6777344 224.396484,56.1391602 223.341797,56.1391602 Z M229.420898,56 L230.680664,56 L230.680664,51.1074219 C230.680664,49.9941406 231.552246,49.1884766 232.753418,49.1884766 C233.002441,49.1884766 233.456543,49.2324219 233.559082,49.2617188 L233.559082,48.0019531 C233.397949,47.9799805 233.134277,47.965332 232.929199,47.965332 C231.881836,47.965332 230.973633,48.5073242 230.739258,49.2763672 L230.62207,49.2763672 L230.62207,48.1044922 L229.420898,48.1044922 L229.420898,56 Z M235.133789,56 L236.393555,56 L236.393555,51.3271484 C236.393555,49.9428711 237.206543,49.1005859 238.466309,49.1005859 C239.726074,49.1005859 240.32666,49.7744141 240.32666,51.1953125 L240.32666,56 L241.586426,56 L241.586426,50.8876953 C241.586426,49.0126953 240.597656,47.965332 238.825195,47.965332 C237.616699,47.965332 236.847656,48.4780273 236.452148,49.3496094 L236.334961,49.3496094 L236.334961,48.1044922 L235.133789,48.1044922 L235.133789,56 Z M248.119629,56 L249.379395,56 L249.379395,51.1074219 C249.379395,49.9941406 250.177734,49.1005859 251.210449,49.1005859 C252.206543,49.1005859 252.858398,49.7011719 252.858398,50.6386719 L252.858398,56 L254.118164,56 L254.118164,50.9243164 C254.118164,49.9208984 254.850586,49.1005859 255.949219,49.1005859 C257.0625,49.1005859 257.611816,49.671875 257.611816,50.8364258 L257.611816,56 L258.871582,56 L258.871582,50.543457 C258.871582,48.8881836 257.970703,47.965332 256.359375,47.965332 C255.268066,47.965332 254.367188,48.5146484 253.942383,49.3496094 L253.825195,49.3496094 C253.458984,48.5292969 252.711914,47.965332 251.642578,47.965332 C250.587891,47.965332 249.796875,48.4707031 249.437988,49.3496094 L249.320801,49.3496094 L249.320801,48.1044922 L248.119629,48.1044922 L248.119629,56 Z M264.416016,56.1391602 C262.16748,56.1391602 260.775879,54.5864258 260.775879,52.0522461 C260.775879,49.5107422 262.16748,47.965332 264.416016,47.965332 C266.664551,47.965332 268.056152,49.5107422 268.056152,52.0522461 C268.056152,54.5864258 266.664551,56.1391602 264.416016,56.1391602 Z M264.416016,55.0039062 C265.910156,55.0039062 266.752441,53.9199219 266.752441,52.0522461 C266.752441,50.1772461 265.910156,49.1005859 264.416016,49.1005859 C262.921875,49.1005859 262.07959,50.1772461 262.07959,52.0522461 C262.07959,53.9199219 262.921875,55.0039062 264.416016,55.0039062 Z M270.033691,56 L271.293457,56 L271.293457,51.1074219 C271.293457,49.9941406 272.165039,49.1884766 273.366211,49.1884766 C273.615234,49.1884766 274.069336,49.2324219 274.171875,49.2617188 L274.171875,48.0019531 C274.010742,47.9799805 273.74707,47.965332 273.541992,47.965332 C272.494629,47.965332 271.586426,48.5073242 271.352051,49.2763672 L271.234863,49.2763672 L271.234863,48.1044922 L270.033691,48.1044922 L270.033691,56 Z M278.895996,49.0786133 C277.63623,49.0786133 276.757324,50.0014648 276.662109,51.4003906 L281.012695,51.4003906 C280.983398,50.0014648 280.148438,49.0786133 278.895996,49.0786133 Z M280.976074,53.956543 L282.23584,53.956543 C281.85498,55.3115234 280.63916,56.1391602 278.910645,56.1391602 C276.720703,56.1391602 275.351074,54.5571289 275.351074,52.0595703 C275.351074,49.5766602 276.742676,47.965332 278.910645,47.965332 C281.041992,47.965332 282.338379,49.4814453 282.338379,51.9350586 L282.338379,52.418457 L276.662109,52.418457 L276.662109,52.4770508 C276.728027,54.0371094 277.599609,55.0258789 278.939941,55.0258789 C279.958008,55.0258789 280.646484,54.6523438 280.976074,53.956543 Z"/>
    <rect width="81" height="14" x="202.5" y="43.5" stroke="#00BDDF" rx="4"/>
    <rect width="83" height="16" x="201.5" y="42.5" stroke="#B1EDF6" opacity=".523" rx="4"/>
    <rect width="85" height="18" x="200.5" y="41.5" stroke="#DFF8FB" stroke-width="3" opacity=".523" rx="4"/>
    <path fill="#0060DF" d="M348.217285,51.9130859 L348.217285,50.6240234 L343.932617,50.6240234 L343.932617,51.78125 L346.90625,51.78125 L346.90625,52.0375977 C346.90625,53.824707 345.624512,55.0332031 343.734863,55.0332031 C341.61084,55.0332031 340.29248,53.3779297 340.29248,50.7119141 C340.29248,48.0825195 341.632812,46.3979492 343.727539,46.3979492 C345.294922,46.3979492 346.356934,47.1523438 346.811035,48.5805664 L348.151367,48.5805664 C347.770508,46.4858398 346.071289,45.1821289 343.727539,45.1821289 C340.834473,45.1821289 338.9375,47.3720703 338.9375,50.7119141 C338.9375,54.0957031 340.805176,56.2490234 343.727539,56.2490234 C346.430176,56.2490234 348.217285,54.5205078 348.217285,51.9130859 Z M350.414551,56 L351.674316,56 L351.674316,48.1044922 L350.414551,48.1044922 L350.414551,56 Z M351.044434,46.5004883 C351.527832,46.5004883 351.92334,46.1049805 351.92334,45.621582 C351.92334,45.1381836 351.527832,44.7426758 351.044434,44.7426758 C350.561035,44.7426758 350.165527,45.1381836 350.165527,45.621582 C350.165527,46.1049805 350.561035,46.5004883 351.044434,46.5004883 Z M354.604004,46.0610352 L354.604004,48.1044922 L353.32959,48.1044922 L353.32959,49.1591797 L354.604004,49.1591797 L354.604004,53.9492188 C354.604004,55.4580078 355.255859,56.0585938 356.881836,56.0585938 C357.130859,56.0585938 357.372559,56.0292969 357.621582,55.9853516 L357.621582,54.9233398 C357.387207,54.9453125 357.262695,54.9526367 357.035645,54.9526367 C356.215332,54.9526367 355.86377,54.5571289 355.86377,53.6269531 L355.86377,49.1591797 L357.621582,49.1591797 L357.621582,48.1044922 L355.86377,48.1044922 L355.86377,46.0610352 L354.604004,46.0610352 Z M359.599121,56 L360.858887,56 L360.858887,51.3271484 C360.858887,49.9941406 361.635254,49.1005859 363.048828,49.1005859 C364.242676,49.1005859 364.872559,49.7963867 364.872559,51.1953125 L364.872559,56 L366.132324,56 L366.132324,50.8876953 C366.132324,49.034668 365.077637,47.965332 363.407715,47.965332 C362.199219,47.965332 361.371582,48.4780273 360.976074,49.3496094 L360.858887,49.3496094 L360.858887,44.9697266 L359.599121,44.9697266 L359.599121,56 Z M374.818848,48.1044922 L373.559082,48.1044922 L373.559082,52.7773438 C373.559082,54.1616211 372.797363,54.9892578 371.405762,54.9892578 C370.145996,54.9892578 369.618652,54.3300781 369.618652,52.9091797 L369.618652,48.1044922 L368.358887,48.1044922 L368.358887,53.2167969 C368.358887,55.0844727 369.281738,56.1391602 371.054199,56.1391602 C372.262695,56.1391602 373.10498,55.6411133 373.500488,54.762207 L373.617676,54.762207 L373.617676,56 L374.818848,56 L374.818848,48.1044922 Z M381.117676,56.1391602 C380.019043,56.1391602 379.081543,55.6191406 378.583496,54.7402344 L378.466309,54.7402344 L378.466309,56 L377.265137,56 L377.265137,44.9697266 L378.524902,44.9697266 L378.524902,49.3496094 L378.64209,49.3496094 C379.074219,48.5 380.033691,47.965332 381.117676,47.965332 C383.124512,47.965332 384.428223,49.5693359 384.428223,52.0522461 C384.428223,54.5205078 383.117188,56.1391602 381.117676,56.1391602 Z M380.824707,49.1005859 C379.38916,49.1005859 378.495605,50.2285156 378.495605,52.0522461 C378.495605,53.8759766 379.38916,55.0039062 380.824707,55.0039062 C382.267578,55.0039062 383.124512,53.8979492 383.124512,52.0522461 C383.124512,50.206543 382.267578,49.1005859 380.824707,49.1005859 Z"/>
    <path fill="#0060DF" fill-rule="nonzero" d="M404.923135,43.6169148 C404.768961,43.2439241 404.405354,43.0004692 404.001756,43 L399.010535,43 C398.45922,43 398.012291,43.4469291 398.012291,43.9982441 C398.012291,44.5495591 398.45922,44.9964882 399.010535,44.9964882 L401.591995,44.9964882 L398.304777,48.283706 C398.045277,48.5343396 397.941204,48.9054901 398.032559,49.2545057 C398.123913,49.6035212 398.396479,49.8760867 398.745494,49.9674414 C399.09451,50.0587962 399.46566,49.9547232 399.716294,49.6952231 L403.003512,46.4080053 L403.003512,48.9894645 C403.003512,49.5407795 403.450441,49.9877086 404.001756,49.9877086 C404.553071,49.9877086 405,49.5407795 405,48.9894645 L405,43.9982441 C404.999632,43.8673237 404.973515,43.7377543 404.923135,43.6169148 L404.923135,43.6169148 Z"/>
    <path fill="#0060DF" fill-rule="nonzero" d="M404,52 C403.447715,52 403,52.4477153 403,53 L403,55 L393,55 L393,45 L395,45 C395.552285,45 396,44.5522847 396,44 C396,43.4477153 395.552285,43 395,43 L392,43 C391.447715,43 391,43.4477153 391,44 L391,56 C391,56.5522847 391.447715,57 392,57 L404,57 C404.552285,57 405,56.5522847 405,56 L405,53 C405,52.4477153 404.552285,52 404,52 Z"/>
    <rect width="69" height="14" x="337.5" y="43.5" stroke="#00BDDF" rx="4"/>
    <rect width="71" height="16" x="336.5" y="42.5" stroke="#B1EDF6" opacity=".523" rx="4"/>
    <rect width="73" height="18" x="335.5" y="41.5" stroke="#DFF8FB" stroke-width="3" opacity=".523" rx="4"/>
    <rect width="58" height="22" x="66" y="40" fill="#0A84FF" rx="2"/>
    <polygon fill="#0A84FF" points="120 51 124 47 128 51 124 55"/>
    <path fill="#FFF" d="M72.716,50.416 L72.716,47.776 L76.268,47.776 L76.412,46.72 L71.324,46.72 L71.324,55 L72.716,55 L72.716,51.472 L75.836,51.472 L75.836,50.416 L72.716,50.416 Z M80.612,48.496 C82.46,48.496 83.468,49.804 83.468,51.82 C83.468,53.836 82.436,55.156 80.6,55.156 C78.752,55.156 77.732,53.884 77.732,51.832 C77.732,49.852 78.764,48.496 80.612,48.496 Z M80.612,49.54 C79.64,49.54 79.148,50.26 79.148,51.832 C79.148,53.404 79.628,54.124 80.6,54.124 C81.572,54.124 82.052,53.404 82.052,51.82 C82.052,50.26 81.572,49.54 80.612,49.54 Z M88.328,54.052 C87.344,54.052 86.624,53.44 86.624,51.868 C86.624,50.284 87.32,49.576 88.328,49.576 C88.868,49.576 89.384,49.768 89.876,50.128 L90.5,49.252 C89.888,48.76 89.168,48.496 88.304,48.496 C86.348,48.496 85.196,49.936 85.196,51.868 C85.196,53.848 86.324,55.156 88.28,55.156 C89.12,55.156 89.948,54.844 90.512,54.376 L89.888,53.476 C89.42,53.824 88.916,54.052 88.328,54.052 Z M93.812,48.664 L92.468,48.664 L92.468,53.26 C92.468,54.448 93.056,55.156 94.292,55.156 C95.036,55.156 95.816,54.82 96.284,54.184 L96.368,55 L97.532,55 L97.532,48.664 L96.188,48.664 L96.188,53.248 C95.876,53.74 95.3,54.136 94.712,54.136 C94.112,54.136 93.812,53.836 93.812,53.092 L93.812,48.664 Z M101.972,54.124 C101.228,54.124 100.58,53.848 100.088,53.452 L99.368,54.268 C99.944,54.772 100.796,55.156 101.972,55.156 C103.436,55.156 104.768,54.568 104.768,53.188 C104.768,51.988 103.964,51.556 102.728,51.22 C101.456,50.872 101.12,50.692 101.12,50.212 C101.12,49.792 101.456,49.516 102.308,49.516 C103.052,49.516 103.616,49.756 104.12,50.08 L104.684,49.228 C104.12,48.808 103.34,48.496 102.272,48.496 C100.712,48.496 99.74,49.228 99.74,50.32 C99.74,51.424 100.568,51.868 101.828,52.192 C103.136,52.528 103.34,52.768 103.34,53.284 C103.34,53.812 102.812,54.124 101.972,54.124 Z M112.184,52.264 L107.984,52.264 C108.068,53.56 108.8,54.112 109.712,54.112 C110.288,54.112 110.852,53.956 111.368,53.524 L111.956,54.364 C111.368,54.856 110.54,55.156 109.652,55.156 C107.672,55.156 106.592,53.812 106.592,51.832 C106.592,49.936 107.684,48.496 109.448,48.496 C111.164,48.496 112.22,49.696 112.22,51.664 C112.22,51.88 112.208,52.108 112.184,52.264 Z M109.472,49.492 C108.656,49.492 108.068,50.08 107.984,51.34 L110.912,51.34 C110.888,50.152 110.396,49.492 109.472,49.492 Z M119.132,46.12 L119.132,55 L117.944,55 L117.848,54.22 C117.428,54.82 116.816,55.156 116.072,55.156 C114.44,55.156 113.684,53.824 113.684,51.832 C113.684,49.9 114.62,48.496 116.192,48.496 C116.852,48.496 117.38,48.736 117.788,49.18 L117.788,45.964 L119.132,46.12 Z M116.54,49.528 C115.64,49.528 115.112,50.248 115.112,51.832 C115.112,53.452 115.592,54.124 116.432,54.124 C117.032,54.124 117.464,53.728 117.788,53.224 L117.788,50.236 C117.476,49.792 117.056,49.528 116.54,49.528 Z"/>
  </g>
</svg>
