<svg xmlns="http://www.w3.org/2000/svg" width="504" height="100" style="background:#38383d" viewBox="0 0 504 100">
  <g fill="none" fill-rule="evenodd">
    <path fill="#FFF" d="M208.634277,55.8134766 L203.536621,55.8134766 L203.536621,46.4311523 L202.218262,46.4311523 L202.218262,57 L208.634277,57 L208.634277,55.8134766 Z M213.724609,50.0786133 C212.464844,50.0786133 211.585938,51.0014648 211.490723,52.4003906 L215.841309,52.4003906 C215.812012,51.0014648 214.977051,50.0786133 213.724609,50.0786133 Z M215.804688,54.956543 L217.064453,54.956543 C216.683594,56.3115234 215.467773,57.1391602 213.739258,57.1391602 C211.549316,57.1391602 210.179688,55.5571289 210.179688,53.0595703 C210.179688,50.5766602 211.571289,48.965332 213.739258,48.965332 C215.870605,48.965332 217.166992,50.4814453 217.166992,52.9350586 L217.166992,53.418457 L211.490723,53.418457 L211.490723,53.4770508 C211.556641,55.0371094 212.428223,56.0258789 213.768555,56.0258789 C214.786621,56.0258789 215.475098,55.6523438 215.804688,54.956543 Z M221.576172,56.0332031 C222.872559,56.0332031 223.832031,55.1835938 223.832031,54.0556641 L223.832031,53.3305664 L221.708008,53.4697266 C220.506836,53.550293 219.979492,53.9677734 219.979492,54.7587891 C219.979492,55.5644531 220.660645,56.0332031 221.576172,56.0332031 Z M221.341797,57.1391602 C219.811035,57.1391602 218.675781,56.230957 218.675781,54.7880859 C218.675781,53.3745117 219.71582,52.5615234 221.554199,52.4516602 L223.832031,52.3125 L223.832031,51.5947266 C223.832031,50.6206055 223.224121,50.0859375 222.044922,50.0859375 C221.100098,50.0859375 220.440918,50.4448242 220.265137,51.0673828 L218.990723,51.0673828 C219.15918,49.800293 220.404297,48.965332 222.088867,48.965332 C224.015137,48.965332 225.091797,49.9541016 225.091797,51.5947266 L225.091797,57 L223.890625,57 L223.890625,55.8354492 L223.773438,55.8354492 C223.260742,56.6777344 222.396484,57.1391602 221.341797,57.1391602 Z M227.420898,57 L228.680664,57 L228.680664,52.1074219 C228.680664,50.9941406 229.552246,50.1884766 230.753418,50.1884766 C231.002441,50.1884766 231.456543,50.2324219 231.559082,50.2617188 L231.559082,49.0019531 C231.397949,48.9799805 231.134277,48.965332 230.929199,48.965332 C229.881836,48.965332 228.973633,49.5073242 228.739258,50.2763672 L228.62207,50.2763672 L228.62207,49.1044922 L227.420898,49.1044922 L227.420898,57 Z M233.133789,57 L234.393555,57 L234.393555,52.3271484 C234.393555,50.9428711 235.206543,50.1005859 236.466309,50.1005859 C237.726074,50.1005859 238.32666,50.7744141 238.32666,52.1953125 L238.32666,57 L239.586426,57 L239.586426,51.8876953 C239.586426,50.0126953 238.597656,48.965332 236.825195,48.965332 C235.616699,48.965332 234.847656,49.4780273 234.452148,50.3496094 L234.334961,50.3496094 L234.334961,49.1044922 L233.133789,49.1044922 L233.133789,57 Z M246.119629,57 L247.379395,57 L247.379395,52.1074219 C247.379395,50.9941406 248.177734,50.1005859 249.210449,50.1005859 C250.206543,50.1005859 250.858398,50.7011719 250.858398,51.6386719 L250.858398,57 L252.118164,57 L252.118164,51.9243164 C252.118164,50.9208984 252.850586,50.1005859 253.949219,50.1005859 C255.0625,50.1005859 255.611816,50.671875 255.611816,51.8364258 L255.611816,57 L256.871582,57 L256.871582,51.543457 C256.871582,49.8881836 255.970703,48.965332 254.359375,48.965332 C253.268066,48.965332 252.367188,49.5146484 251.942383,50.3496094 L251.825195,50.3496094 C251.458984,49.5292969 250.711914,48.965332 249.642578,48.965332 C248.587891,48.965332 247.796875,49.4707031 247.437988,50.3496094 L247.320801,50.3496094 L247.320801,49.1044922 L246.119629,49.1044922 L246.119629,57 Z M262.416016,57.1391602 C260.16748,57.1391602 258.775879,55.5864258 258.775879,53.0522461 C258.775879,50.5107422 260.16748,48.965332 262.416016,48.965332 C264.664551,48.965332 266.056152,50.5107422 266.056152,53.0522461 C266.056152,55.5864258 264.664551,57.1391602 262.416016,57.1391602 Z M262.416016,56.0039062 C263.910156,56.0039062 264.752441,54.9199219 264.752441,53.0522461 C264.752441,51.1772461 263.910156,50.1005859 262.416016,50.1005859 C260.921875,50.1005859 260.07959,51.1772461 260.07959,53.0522461 C260.07959,54.9199219 260.921875,56.0039062 262.416016,56.0039062 Z M268.033691,57 L269.293457,57 L269.293457,52.1074219 C269.293457,50.9941406 270.165039,50.1884766 271.366211,50.1884766 C271.615234,50.1884766 272.069336,50.2324219 272.171875,50.2617188 L272.171875,49.0019531 C272.010742,48.9799805 271.74707,48.965332 271.541992,48.965332 C270.494629,48.965332 269.586426,49.5073242 269.352051,50.2763672 L269.234863,50.2763672 L269.234863,49.1044922 L268.033691,49.1044922 L268.033691,57 Z M276.895996,50.0786133 C275.63623,50.0786133 274.757324,51.0014648 274.662109,52.4003906 L279.012695,52.4003906 C278.983398,51.0014648 278.148438,50.0786133 276.895996,50.0786133 Z M278.976074,54.956543 L280.23584,54.956543 C279.85498,56.3115234 278.63916,57.1391602 276.910645,57.1391602 C274.720703,57.1391602 273.351074,55.5571289 273.351074,53.0595703 C273.351074,50.5766602 274.742676,48.965332 276.910645,48.965332 C279.041992,48.965332 280.338379,50.4814453 280.338379,52.9350586 L280.338379,53.418457 L274.662109,53.418457 L274.662109,53.4770508 C274.728027,55.0371094 275.599609,56.0258789 276.939941,56.0258789 C277.958008,56.0258789 278.646484,55.6523438 278.976074,54.956543 Z"/>
    <text fill="#B1B1B3" font-family="FiraSans-Regular, Fira Sans" font-size="12">
      <tspan x="73.836" y="55">Normal</tspan>
    </text>
    <path fill="#FFF" d="M348.217285,54.9130859 L348.217285,53.6240234 L343.932617,53.6240234 L343.932617,54.78125 L346.90625,54.78125 L346.90625,55.0375977 C346.90625,56.824707 345.624512,58.0332031 343.734863,58.0332031 C341.61084,58.0332031 340.29248,56.3779297 340.29248,53.7119141 C340.29248,51.0825195 341.632812,49.3979492 343.727539,49.3979492 C345.294922,49.3979492 346.356934,50.1523438 346.811035,51.5805664 L348.151367,51.5805664 C347.770508,49.4858398 346.071289,48.1821289 343.727539,48.1821289 C340.834473,48.1821289 338.9375,50.3720703 338.9375,53.7119141 C338.9375,57.0957031 340.805176,59.2490234 343.727539,59.2490234 C346.430176,59.2490234 348.217285,57.5205078 348.217285,54.9130859 Z M350.414551,59 L351.674316,59 L351.674316,51.1044922 L350.414551,51.1044922 L350.414551,59 Z M351.044434,49.5004883 C351.527832,49.5004883 351.92334,49.1049805 351.92334,48.621582 C351.92334,48.1381836 351.527832,47.7426758 351.044434,47.7426758 C350.561035,47.7426758 350.165527,48.1381836 350.165527,48.621582 C350.165527,49.1049805 350.561035,49.5004883 351.044434,49.5004883 Z M354.604004,49.0610352 L354.604004,51.1044922 L353.32959,51.1044922 L353.32959,52.1591797 L354.604004,52.1591797 L354.604004,56.9492188 C354.604004,58.4580078 355.255859,59.0585938 356.881836,59.0585938 C357.130859,59.0585938 357.372559,59.0292969 357.621582,58.9853516 L357.621582,57.9233398 C357.387207,57.9453125 357.262695,57.9526367 357.035645,57.9526367 C356.215332,57.9526367 355.86377,57.5571289 355.86377,56.6269531 L355.86377,52.1591797 L357.621582,52.1591797 L357.621582,51.1044922 L355.86377,51.1044922 L355.86377,49.0610352 L354.604004,49.0610352 Z M359.599121,59 L360.858887,59 L360.858887,54.3271484 C360.858887,52.9941406 361.635254,52.1005859 363.048828,52.1005859 C364.242676,52.1005859 364.872559,52.7963867 364.872559,54.1953125 L364.872559,59 L366.132324,59 L366.132324,53.8876953 C366.132324,52.034668 365.077637,50.965332 363.407715,50.965332 C362.199219,50.965332 361.371582,51.4780273 360.976074,52.3496094 L360.858887,52.3496094 L360.858887,47.9697266 L359.599121,47.9697266 L359.599121,59 Z M374.818848,51.1044922 L373.559082,51.1044922 L373.559082,55.7773438 C373.559082,57.1616211 372.797363,57.9892578 371.405762,57.9892578 C370.145996,57.9892578 369.618652,57.3300781 369.618652,55.9091797 L369.618652,51.1044922 L368.358887,51.1044922 L368.358887,56.2167969 C368.358887,58.0844727 369.281738,59.1391602 371.054199,59.1391602 C372.262695,59.1391602 373.10498,58.6411133 373.500488,57.762207 L373.617676,57.762207 L373.617676,59 L374.818848,59 L374.818848,51.1044922 Z M381.117676,59.1391602 C380.019043,59.1391602 379.081543,58.6191406 378.583496,57.7402344 L378.466309,57.7402344 L378.466309,59 L377.265137,59 L377.265137,47.9697266 L378.524902,47.9697266 L378.524902,52.3496094 L378.64209,52.3496094 C379.074219,51.5 380.033691,50.965332 381.117676,50.965332 C383.124512,50.965332 384.428223,52.5693359 384.428223,55.0522461 C384.428223,57.5205078 383.117188,59.1391602 381.117676,59.1391602 Z M380.824707,52.1005859 C379.38916,52.1005859 378.495605,53.2285156 378.495605,55.0522461 C378.495605,56.8759766 379.38916,58.0039062 380.824707,58.0039062 C382.267578,58.0039062 383.124512,56.8979492 383.124512,55.0522461 C383.124512,53.206543 382.267578,52.1005859 380.824707,52.1005859 Z"/>
    <g fill="#0060DF" fill-rule="nonzero" transform="translate(391 46)">
      <path d="M13.9231352,0.616914847 C13.7689608,0.243924095 13.4053543,0.000469224868 13.0017559,0 L8.01053546,0 C7.45922048,0 7.01229137,0.446929102 7.01229137,0.99824409 C7.01229137,1.54955908 7.45922048,1.99648818 8.01053546,1.99648818 L10.5919947,1.99648818 L7.30477689,5.28370597 C7.04527677,5.53433957 6.94120382,5.90549014 7.03255857,6.25450565 C7.12391331,6.60352117 7.39647883,6.87608669 7.74549435,6.96744143 C8.09450986,7.05879618 8.46566043,6.95472323 8.71629403,6.69522311 L12.0035118,3.40800532 L12.0035118,5.98946454 C12.0035118,6.54077952 12.4504409,6.98770863 13.0017559,6.98770863 C13.5530709,6.98770863 14,6.54077952 14,5.98946454 L14,0.99824409 C13.9996322,0.86732372 13.9735148,0.737754309 13.9231352,0.616914847 L13.9231352,0.616914847 Z"/>
      <path d="M13,9 C12.4477153,9 12,9.44771525 12,10 L12,12 L2,12 L2,2 L4,2 C4.55228475,2 5,1.55228475 5,1 C5,0.44771525 4.55228475,0 4,0 L1,0 C0.44771525,0 0,0.44771525 0,1 L0,13 C0,13.5522847 0.44771525,14 1,14 L13,14 C13.5522847,14 14,13.5522847 14,13 L14,10 C14,9.44771525 13.5522847,9 13,9 Z"/>
    </g>
    <g fill="#FFF" fill-rule="nonzero" transform="translate(391 46)">
      <path d="M13.9231352,0.616914847 C13.7689608,0.243924095 13.4053543,0.000469224868 13.0017559,0 L8.01053546,0 C7.45922048,0 7.01229137,0.446929102 7.01229137,0.99824409 C7.01229137,1.54955908 7.45922048,1.99648818 8.01053546,1.99648818 L10.5919947,1.99648818 L7.30477689,5.28370597 C7.04527677,5.53433957 6.94120382,5.90549014 7.03255857,6.25450565 C7.12391331,6.60352117 7.39647883,6.87608669 7.74549435,6.96744143 C8.09450986,7.05879618 8.46566043,6.95472323 8.71629403,6.69522311 L12.0035118,3.40800532 L12.0035118,5.98946454 C12.0035118,6.54077952 12.4504409,6.98770863 13.0017559,6.98770863 C13.5530709,6.98770863 14,6.54077952 14,5.98946454 L14,0.99824409 C13.9996322,0.86732372 13.9735148,0.737754309 13.9231352,0.616914847 L13.9231352,0.616914847 Z"/>
      <path d="M13,9 C12.4477153,9 12,9.44771525 12,10 L12,12 L2,12 L2,2 L4,2 C4.55228475,2 5,1.55228475 5,1 C5,0.44771525 4.55228475,0 4,0 L1,0 C0.44771525,0 0,0.44771525 0,1 L0,13 C0,13.5522847 0.44771525,14 1,14 L13,14 C13.5522847,14 14,13.5522847 14,13 L14,10 C14,9.44771525 13.5522847,9 13,9 Z"/>
    </g>
    <rect width="51" height="22" x="70" y="41" fill="#0A84FF" rx="2"/>
    <polygon fill="#0A84FF" points="117 52 121 48 125 52 121 56"/>
    <path fill="#FFF" d="M76.344,49.16 L78.924,56 L80.748,56 L80.748,47.72 L79.5,47.72 L79.5,51.488 C79.5,52.976 79.644,54.26 79.704,54.584 L79.656,54.584 L77.064,47.72 L75.252,47.72 L75.252,56 L76.5,56 L76.5,52.244 C76.5,50.9 76.344,49.448 76.296,49.16 L76.344,49.16 Z M85.212,49.496 C87.06,49.496 88.068,50.804 88.068,52.82 C88.068,54.836 87.036,56.156 85.2,56.156 C83.352,56.156 82.332,54.884 82.332,52.832 C82.332,50.852 83.364,49.496 85.212,49.496 Z M85.212,50.54 C84.24,50.54 83.748,51.26 83.748,52.832 C83.748,54.404 84.228,55.124 85.2,55.124 C86.172,55.124 86.652,54.404 86.652,52.82 C86.652,51.26 86.172,50.54 85.212,50.54 Z M89.844,56 L94.32,56 L94.32,55.016 L92.604,55.016 L92.604,52.448 C92.808,51.572 93.396,50.816 94.212,50.816 C94.5,50.816 94.692,50.852 94.944,50.924 L95.184,49.604 C94.896,49.532 94.68,49.508 94.368,49.508 C93.6,49.508 92.916,49.988 92.58,50.864 L92.436,49.664 L89.844,49.664 L89.844,50.648 L91.248,50.648 L91.248,55.016 L89.844,55.016 L89.844,56 Z M101.436,49.496 C100.824,49.496 100.404,49.82 100.044,50.3 C99.864,49.7 99.444,49.496 98.964,49.496 C98.352,49.496 97.968,49.844 97.608,50.348 L97.512,49.664 L96.492,49.664 L96.492,56 L97.704,56 L97.704,51.176 C98.016,50.72 98.316,50.552 98.64,50.552 C99.012,50.552 99.06,50.816 99.06,51.476 L99.06,56 L100.152,56 L100.152,51.176 C100.464,50.72 100.776,50.552 101.088,50.552 C101.46,50.552 101.508,50.816 101.508,51.476 L101.508,56 L102.708,56 L102.708,51.296 C102.708,49.892 102.156,49.496 101.436,49.496 Z M109.116,51.62 L109.116,54.44 C109.116,54.944 109.26,55.136 109.596,55.244 L109.284,56.156 C108.672,56.084 108.204,55.832 107.976,55.28 C107.508,55.868 106.764,56.156 105.948,56.156 C104.664,56.156 103.872,55.364 103.872,54.188 C103.872,52.856 104.952,52.112 106.884,52.112 L107.784,52.112 L107.784,51.704 C107.784,50.876 107.268,50.552 106.38,50.552 C105.96,50.552 105.336,50.648 104.7,50.876 L104.364,49.928 C105.156,49.628 105.936,49.496 106.584,49.496 C108.288,49.496 109.116,50.288 109.116,51.62 Z M106.356,55.172 C106.908,55.172 107.472,54.872 107.784,54.344 L107.784,52.952 L107.04,52.952 C105.78,52.952 105.288,53.396 105.288,54.14 C105.288,54.812 105.648,55.172 106.356,55.172 Z M114.252,47.12 L111,47.12 L111,48.104 L112.908,48.104 L112.908,54.152 C112.908,55.4 113.652,56.156 114.924,56.156 C115.632,56.156 116.184,56 116.556,55.796 L116.22,54.86 C115.896,54.98 115.572,55.064 115.212,55.064 C114.648,55.064 114.252,54.848 114.252,54.272 L114.252,47.12 Z"/>
  </g>
</svg>
