<svg xmlns="http://www.w3.org/2000/svg" style="background:#f9f9fa" viewBox="0 0 360 100"><path fill="#0060DF" fill-rule="evenodd" d="M149.27 57h-5.45V46.5h1.23v9.39h4.22V57zm7.48-3.45h-5.3c.02.84.24 1.48.67 1.93.43.46 1.02.69 1.78.69.84 0 1.62-.28 2.33-.84v1.13c-.66.48-1.54.72-2.62.72-1.06 0-1.9-.34-2.5-1.03-.6-.68-.9-1.64-.9-2.87a4.1 4.1 0 0 1 .99-2.85 3.18 3.18 0 0 1 2.46-1.1c.98 0 1.74.31 2.28.95.54.63.8 1.51.8 2.64v.63zm-1.23-1.02c-.01-.7-.18-1.23-.5-1.62a1.7 1.7 0 0 0-1.38-.58c-.57 0-1.05.2-1.44.61-.4.4-.64.94-.74 1.6h4.06zm8.41 4.47h-1.2v-1.17h-.03c-.52.9-1.3 1.35-2.3 1.35-.75 0-1.34-.2-1.76-.6-.42-.4-.63-.92-.63-1.57 0-1.4.82-2.22 2.47-2.45l2.25-.31c0-1.28-.52-1.92-1.55-1.92-.9 0-1.71.31-2.44.93v-1.23c.74-.47 1.58-.7 2.55-.7 1.76 0 2.64.93 2.64 2.8V57zm-1.2-3.8l-1.81.26c-.56.07-.98.21-1.26.4-.28.2-.42.56-.42 1.06 0 .37.13.67.39.9.26.23.6.35 1.04.35.6 0 1.09-.21 1.48-.63.39-.42.58-.95.58-1.59v-.74zm7.37-2.48a1.47 1.47 0 0 0-.9-.25c-.52 0-.94.25-1.29.73a3.35 3.35 0 0 0-.51 1.98V57h-1.2v-7.5h1.2v1.55h.02c.18-.53.44-.94.79-1.24.35-.3.74-.44 1.18-.44.31 0 .55.03.71.1v1.25zm7.53 6.28h-1.2v-4.28c0-1.59-.58-2.39-1.74-2.39-.6 0-1.1.23-1.5.68-.38.45-.58 1.02-.58 1.71V57h-1.2v-7.5h1.2v1.25h.03a2.7 2.7 0 0 1 2.46-1.43c.82 0 1.45.27 1.88.8.44.53.65 1.3.65 2.3V57zm17.03 0h-1.2v-4.3c0-.84-.13-1.44-.39-1.8-.26-.38-.69-.57-1.3-.57-.5 0-.94.24-1.3.7a2.69 2.69 0 0 0-.54 1.7V57h-1.2v-4.45c0-1.48-.57-2.22-1.7-2.22-.53 0-.97.23-1.31.67a2.74 2.74 0 0 0-.51 1.72V57H184v-7.5h1.2v1.19h.03c.53-.91 1.3-1.37 2.33-1.37a2.17 2.17 0 0 1 2.12 1.56 2.68 2.68 0 0 1 2.49-1.56c1.65 0 2.48 1.02 2.48 3.06V57zm5.4.18c-1.1 0-2-.35-2.65-1.06a3.9 3.9 0 0 1-1-2.78c0-1.26.35-2.25 1.04-2.95a3.71 3.71 0 0 1 2.79-1.07c1.11 0 1.99.35 2.62 1.04.62.69.94 1.64.94 2.86 0 1.2-.34 2.16-1.02 2.88a3.55 3.55 0 0 1-2.72 1.08zm.09-6.85c-.77 0-1.38.27-1.83.8a3.23 3.23 0 0 0-.68 2.16c0 .9.23 1.6.69 2.1.45.52 1.06.78 1.82.78a2.2 2.2 0 0 0 1.79-.76c.42-.5.63-1.22.63-2.15 0-.93-.21-1.66-.63-2.16a2.19 2.19 0 0 0-1.8-.77zm9.48.39a1.47 1.47 0 0 0-.91-.25c-.51 0-.94.25-1.29.73a3.35 3.35 0 0 0-.51 1.98V57h-1.2v-7.5h1.2v1.55h.03c.17-.53.43-.94.78-1.24.35-.3.74-.44 1.18-.44.31 0 .55.03.72.1v1.25zm7.33 2.83h-5.3c.02.84.25 1.48.68 1.93.43.46 1.02.69 1.77.69.84 0 1.62-.28 2.33-.84v1.13c-.66.48-1.53.72-2.62.72-1.06 0-1.89-.34-2.5-1.03-.6-.68-.9-1.64-.9-2.87a4.1 4.1 0 0 1 .99-2.85 3.18 3.18 0 0 1 2.46-1.1c.99 0 1.75.31 2.28.95.54.63.8 1.51.8 2.64v.63zm-1.23-1.02c0-.7-.17-1.23-.5-1.62a1.7 1.7 0 0 0-1.38-.58c-.56 0-1.04.2-1.44.61-.4.4-.64.94-.73 1.6h4.05z"/></svg>