<svg xmlns="http://www.w3.org/2000/svg" xmlns:xlink="http://www.w3.org/1999/xlink" style="background:#f9f9fa" viewBox="0 0 360 100"><defs><rect id="a" width="360" height="69"/></defs><g fill="none" fill-rule="evenodd"><path fill="#0060DF" d="M167.27 56h-5.45V45.5h1.23v9.39h4.22V56zm7.48-3.45h-5.3c.02.84.24 1.48.67 1.93.43.46 1.02.69 1.78.69.84 0 1.62-.28 2.33-.84v1.13c-.66.48-1.54.72-2.62.72-1.06 0-1.9-.34-2.5-1.03-.6-.68-.9-1.64-.9-2.87a4.1 4.1 0 0 1 .99-2.85 3.18 3.18 0 0 1 2.46-1.1c.98 0 1.74.31 2.28.95.54.63.8 1.51.8 2.64v.63zm-1.23-1.02c-.01-.7-.18-1.23-.5-1.62a1.7 1.7 0 0 0-1.38-.58c-.57 0-1.05.2-1.44.61-.4.4-.64.94-.74 1.6h4.06zm8.41 4.47h-1.2v-1.17h-.03c-.52.9-1.3 1.35-2.3 1.35-.75 0-1.34-.2-1.76-.6-.42-.4-.63-.92-.63-1.57 0-1.4.82-2.22 2.47-2.45l2.25-.31c0-1.28-.52-1.92-1.55-1.92-.9 0-1.71.31-2.44.93v-1.23c.74-.47 1.58-.7 2.55-.7 1.76 0 2.64.93 2.64 2.8V56zm-1.2-3.8l-1.81.26c-.56.07-.98.21-1.26.4-.28.2-.42.56-.42 1.06 0 .37.13.67.39.9.26.23.6.35 1.04.35.6 0 1.09-.21 1.48-.63.39-.42.58-.95.58-1.59v-.74zm7.37-2.48a1.47 1.47 0 0 0-.9-.25c-.52 0-.94.25-1.29.73a3.35 3.35 0 0 0-.51 1.98V56h-1.2v-7.5h1.2v1.55h.02c.18-.53.44-.94.79-1.24.35-.3.74-.44 1.18-.44.31 0 .55.03.71.1v1.25zm7.53 6.28h-1.2v-4.28c0-1.59-.58-2.39-1.74-2.39-.6 0-1.1.23-1.5.68-.38.45-.58 1.02-.58 1.71V56h-1.2v-7.5h1.2v1.25h.03a2.7 2.7 0 0 1 2.46-1.43c.82 0 1.45.27 1.88.8.44.53.65 1.3.65 2.3V56zm17.03 0h-1.2v-4.3c0-.84-.13-1.44-.39-1.8-.26-.38-.69-.57-1.3-.57-.5 0-.94.24-1.3.7a2.69 2.69 0 0 0-.54 1.7V56h-1.2v-4.45c0-1.48-.57-2.22-1.7-2.22-.53 0-.97.23-1.31.67a2.74 2.74 0 0 0-.51 1.72V56H202v-7.5h1.2v1.19h.03c.53-.91 1.3-1.37 2.33-1.37a2.17 2.17 0 0 1 2.12 1.56 2.68 2.68 0 0 1 2.49-1.56c1.65 0 2.48 1.02 2.48 3.06V56zm5.4.18c-1.1 0-2-.35-2.65-1.06a3.9 3.9 0 0 1-1-2.78c0-1.26.35-2.25 1.04-2.95a3.71 3.71 0 0 1 2.79-1.07c1.11 0 1.99.35 2.62 1.04.62.69.94 1.64.94 2.86 0 1.2-.34 2.16-1.02 2.88a3.55 3.55 0 0 1-2.72 1.08zm.09-6.85c-.77 0-1.38.27-1.83.8a3.23 3.23 0 0 0-.68 2.16c0 .9.23 1.6.69 2.1.45.52 1.06.78 1.82.78a2.2 2.2 0 0 0 1.79-.76c.42-.5.63-1.22.63-2.15 0-.93-.21-1.66-.63-2.16a2.19 2.19 0 0 0-1.8-.77zm9.48.39a1.47 1.47 0 0 0-.91-.25c-.51 0-.94.25-1.29.73a3.35 3.35 0 0 0-.51 1.98V56h-1.2v-7.5h1.2v1.55h.03c.17-.53.43-.94.78-1.24.35-.3.74-.44 1.18-.44.31 0 .55.03.72.1v1.25zm7.33 2.83h-5.3c.02.84.25 1.48.68 1.93.43.46 1.02.69 1.77.69.84 0 1.62-.28 2.33-.84v1.13c-.66.48-1.53.72-2.62.72-1.06 0-1.89-.34-2.5-1.03-.6-.68-.9-1.64-.9-2.87a4.1 4.1 0 0 1 .99-2.85 3.18 3.18 0 0 1 2.46-1.1c.99 0 1.75.31 2.28.95.54.63.8 1.51.8 2.64v.63zm-1.23-1.02c0-.7-.17-1.23-.5-1.62a1.7 1.7 0 0 0-1.38-.58c-.56 0-1.04.2-1.44.61-.4.4-.64.94-.73 1.6h4.05z"/><g transform="translate(248 40)"><rect width="55" height="22" x="4" fill="#0A84FF" rx="2"/><polygon fill="#0A84FF" points="0 11 4 7 8 11 4 15"/><path fill="#FFFFFF" d="M12.3 7.96c.12 1.3.19 2.4.19 3.28V15h-1.24V6.72h1.81l2.64 7.04-.13-1.6c-.04-.47-.06-1.03-.06-1.67V6.72h1.24V15h-1.81L12.3 7.96zm11.02 1.43c.5.6.75 1.4.75 2.43 0 1.02-.25 1.84-.76 2.44-.5.6-1.2.9-2.11.9-.91 0-1.62-.3-2.12-.89-.5-.58-.75-1.4-.75-2.44 0-1 .26-1.81.76-2.42a2.6 2.6 0 0 1 2.12-.91c.91 0 1.62.3 2.11.89zm-3.2.71c-.25.38-.37.96-.37 1.73 0 .79.12 1.36.36 1.74.24.37.6.55 1.09.55.49 0 .85-.18 1.1-.56.23-.38.35-.96.35-1.74s-.12-1.35-.36-1.72a1.2 1.2 0 0 0-1.08-.56c-.49 0-.85.19-1.1.56zm11.2-1.44L31.09 11h-.96V9.7c-.44.02-.82.2-1.15.54-.32.34-.58.82-.77 1.45v2.35h1.27V15h-3.55v-.96h.93V9.62h-.93v-.96h1.95l.24 1.47c.25-.55.55-.95.91-1.22s.8-.4 1.33-.4c.32 0 .64.05.96.15zm7.04.24c.22.28.34.74.34 1.4V15h-1.2v-4.52c0-.36-.02-.6-.07-.74-.05-.13-.17-.2-.34-.2-.34 0-.65.21-.94.64V15h-1.09v-4.52c0-.36-.03-.6-.08-.74-.05-.13-.16-.2-.34-.2-.34 0-.65.21-.94.64V15h-1.2V8.66h1.01l.1.69c.2-.28.4-.5.61-.64.2-.14.46-.21.74-.21.56 0 .92.26 1.08.8.2-.26.4-.45.63-.6.22-.13.48-.2.77-.2.39 0 .7.13.92.4zM45.22 14c.08.11.2.2.38.25l-.32.92c-.66-.08-1.1-.38-1.3-.88-.24.29-.53.5-.87.65a2.9 2.9 0 0 1-1.15.23c-.64 0-1.15-.18-1.52-.54a1.89 1.89 0 0 1-.57-1.43c0-.67.26-1.18.79-1.54a3.9 3.9 0 0 1 2.22-.54h.9v-.4c0-.4-.12-.7-.36-.88a1.7 1.7 0 0 0-1.04-.28 6.53 6.53 0 0 0-1.68.32l-.34-.94c.76-.29 1.5-.43 2.22-.43.84 0 1.48.18 1.9.55.42.37.64.89.64 1.57v2.83c0 .24.03.42.1.54zm-2.05-.03c.26-.15.46-.35.61-.6v-1.4h-.74c-.6 0-1.05.1-1.33.3-.28.2-.42.5-.42.88 0 .34.09.6.27.77.18.17.44.26.8.26.28 0 .55-.07.8-.21zm7.08-.69c0 .54.32.8.96.8.32 0 .66-.07 1.01-.21l.34.94c-.44.24-.99.36-1.64.36a2 2 0 0 1-1.48-.54 1.99 1.99 0 0 1-.53-1.47V7.1H47v-.98h3.25v7.15z"/></g><g transform="translate(99 62)"><rect width="104" height="22" y="4" fill="#0A84FF" rx="2"/><polygon fill="#0A84FF" points="15 4 19 0 23 4 19 8"/><polygon fill="#0A84FF" points="81 4 85 0 89 4 85 8"/><path fill="#FFFFFF" d="M33.01 18.45c-.6.37-1.38.55-2.31.55h-2.43v-8.28h2.27c.88 0 1.6.16 2.17.49.57.32.85.86.85 1.61 0 .48-.14.87-.43 1.18-.3.31-.66.51-1.1.6.54.1 1 .3 1.35.61.36.31.54.78.54 1.4 0 .86-.3 1.47-.9 1.84zm-1.24-6.41a1.87 1.87 0 0 0-1.11-.28h-1v2.4h1.08c.48 0 .83-.1 1.06-.3.23-.2.35-.5.35-.93 0-.41-.13-.7-.38-.89zm.27 3.47a1.99 1.99 0 0 0-1.2-.31h-1.18v2.72h1.13c1.12 0 1.68-.44 1.68-1.3 0-.53-.14-.9-.43-1.1zm8.18-2.12c.5.6.75 1.4.75 2.43 0 1.02-.25 1.84-.76 2.44-.5.6-1.2.9-2.11.9-.91 0-1.62-.3-2.12-.89-.5-.58-.75-1.4-.75-2.44 0-1 .26-1.81.76-2.42a2.6 2.6 0 0 1 2.12-.91c.91 0 1.62.3 2.11.89zm-3.2.71c-.25.38-.37.96-.37 1.73 0 .79.12 1.36.36 1.74.24.37.6.55 1.09.55.49 0 .85-.18 1.1-.56.23-.38.35-.96.35-1.74s-.12-1.35-.36-1.72a1.2 1.2 0 0 0-1.08-.56c-.49 0-.85.19-1.1.56zm10.81-3.98V19h-1.19l-.1-.78a2.12 2.12 0 0 1-1.77.94c-.79 0-1.39-.3-1.79-.9-.4-.58-.6-1.4-.6-2.43 0-.65.1-1.22.31-1.73.2-.5.5-.9.87-1.18.38-.28.82-.42 1.33-.42.65 0 1.18.23 1.6.7V9.95l1.34.16zm-3.65 3.98c-.25.38-.37.96-.37 1.73 0 1.54.44 2.3 1.32 2.3.53 0 .98-.3 1.36-.9v-3c-.33-.47-.75-.7-1.25-.7-.46 0-.82.19-1.06.57zm9.15 4.92a4.13 4.13 0 0 1-1.11 1.81c-.49.44-1.15.69-2 .76l-.17-1c.42-.07.75-.17 1.01-.3.26-.13.46-.3.61-.5.15-.2.29-.46.41-.79h-.46l-2.13-6.34h1.43l1.6 5.4 1.61-5.4h1.38l-2.18 6.36zm14.64-8.16a2.22 2.22 0 0 1 1.22 2.03c0 .49-.11.96-.33 1.42a6.8 6.8 0 0 1-1.1 1.53c-.5.55-1.21 1.25-2.13 2.08h3.75L69.24 19h-5.15v-1.02c1.04-1 1.82-1.78 2.33-2.35.51-.56.87-1.04 1.08-1.44.2-.4.31-.8.31-1.21 0-.42-.12-.75-.36-.99a1.33 1.33 0 0 0-.98-.36c-.36 0-.67.07-.92.2s-.5.35-.76.67l-.87-.68c.33-.42.7-.74 1.13-.95.43-.21.93-.32 1.51-.32a3 3 0 0 1 1.41.31zm8.23.8c.48.74.72 1.8.72 3.19a5.9 5.9 0 0 1-.72 3.19 2.34 2.34 0 0 1-2.1 1.12c-.92 0-1.62-.38-2.1-1.12a5.9 5.9 0 0 1-.72-3.2c0-1.38.24-2.44.72-3.18a2.35 2.35 0 0 1 2.1-1.1c.92 0 1.62.36 2.1 1.1zm-3.2.7a6.13 6.13 0 0 0-.36 2.49c0 1.15.12 1.99.37 2.5.25.53.61.79 1.09.79.48 0 .84-.26 1.1-.78.24-.52.36-1.36.36-2.51 0-1.15-.12-1.98-.37-2.5-.25-.5-.61-.77-1.09-.77-.48 0-.84.26-1.1.78zm1.66 1.95c.16.15.23.33.23.55 0 .22-.07.41-.23.56a.77.77 0 0 1-.56.23.75.75 0 0 1-.56-.23.78.78 0 0 1-.22-.56c0-.22.07-.4.22-.55a.75.75 0 0 1 .56-.23c.22 0 .41.08.56.23z"/></g><g transform="translate(0 37)"><mask id="b" fill="white"><use xlink:href="#a"/></mask><path fill="#0C0C0D" d="M-163.41-56.39h-3.03V-47h-1.23v-9.39h-3.03v-1.11h7.29v1.11zm5.4 3.1a1.47 1.47 0 0 0-.91-.24c-.52 0-.94.25-1.29.73a3.35 3.35 0 0 0-.51 1.98V-47h-1.2v-7.5h1.2v1.55h.03c.17-.53.43-.94.78-1.24.35-.3.74-.44 1.18-.44.31 0 .55.03.72.1v1.25zm6.67 6.29h-1.2v-1.17h-.03c-.52.9-1.3 1.35-2.3 1.35-.76 0-1.34-.2-1.76-.6-.43-.4-.64-.92-.64-1.57 0-1.4.83-2.22 2.48-2.45l2.25-.31c0-1.28-.52-1.92-1.55-1.92-.9 0-1.72.31-2.44.93v-1.23c.73-.47 1.58-.7 2.54-.7 1.77 0 2.65.93 2.65 2.8V-47zm-1.2-3.8l-1.81.26c-.56.07-.98.21-1.26.4-.29.2-.43.56-.43 1.06 0 .37.13.67.4.9.26.23.6.35 1.04.35.6 0 1.09-.21 1.47-.63.4-.42.59-.95.59-1.59v-.74zm8.57 3.46a3.9 3.9 0 0 1-2.05.52 3.4 3.4 0 0 1-2.59-1.05c-.65-.7-.98-1.6-.98-2.7 0-1.24.35-2.23 1.06-2.98a3.72 3.72 0 0 1 2.84-1.13c.65 0 1.24.13 1.74.37v1.23a3.05 3.05 0 0 0-1.79-.59c-.77 0-1.4.28-1.88.83-.5.55-.74 1.27-.74 2.16 0 .88.23 1.58.7 2.08.45.51 1.07.77 1.85.77.65 0 1.27-.22 1.84-.66v1.15zm8.05.34h-1.69l-3.3-3.6h-.04v3.6h-1.2v-11.1h1.2v7.04h.03l3.15-3.44h1.57l-3.47 3.62 3.75 3.88zm1.84-9.4a.76.76 0 0 1-.77-.78.75.75 0 0 1 .78-.78.78.78 0 0 1 .78.78c0 .21-.07.4-.23.55a.77.77 0 0 1-.56.23zm.59 9.4h-1.2v-7.5h1.2v7.5zm8.65 0h-1.2v-4.28c0-1.59-.58-2.39-1.74-2.39-.6 0-1.1.23-1.49.68-.4.45-.59 1.02-.59 1.71V-47h-1.2v-7.5h1.2v1.25h.03a2.7 2.7 0 0 1 2.46-1.43c.82 0 1.45.27 1.88.8.44.53.65 1.3.65 2.3V-47zm8.67-.6c0 2.75-1.32 4.13-3.96 4.13-.92 0-1.73-.18-2.43-.53v-1.2a5 5 0 0 0 2.42.7c1.85 0 2.77-.98 2.77-2.94v-.82h-.03a2.8 2.8 0 0 1-2.58 1.44c-.93 0-1.68-.34-2.25-1a4 4 0 0 1-.85-2.69c0-1.27.3-2.29.91-3.04a3.07 3.07 0 0 1 2.52-1.13c1.01 0 1.76.4 2.25 1.22h.03v-1.04h1.2v6.9zm-1.2-2.8v-1.1c0-.6-.2-1.1-.6-1.53-.4-.42-.91-.64-1.51-.64-.74 0-1.32.27-1.74.81-.42.54-.63 1.3-.63 2.27 0 .84.2 1.5.6 2 .4.5.94.76 1.6.76a2.1 2.1 0 0 0 1.64-.72c.43-.48.64-1.1.64-1.84zm8.35-6a.76.76 0 0 1-.77-.78c0-.23.07-.41.23-.56a.75.75 0 0 1 .54-.22.78.78 0 0 1 .8.78c0 .21-.08.4-.23.55a.77.77 0 0 1-.57.23zm.6 9.4h-1.21v-7.5h1.2v7.5zm1.97-.27v-1.29c.65.48 1.37.73 2.16.73 1.05 0 1.58-.36 1.58-1.06 0-.2-.04-.37-.13-.5a1.35 1.35 0 0 0-.37-.38c-.15-.1-.34-.2-.54-.29l-.67-.27a8.63 8.63 0 0 1-.88-.4 2.64 2.64 0 0 1-.63-.45c-.17-.17-.3-.36-.38-.57a2.03 2.03 0 0 1-.13-.76c0-.35.08-.66.24-.93.17-.27.38-.5.65-.68a3 3 0 0 1 .92-.42 4.3 4.3 0 0 1 2.8.2v1.22a3.4 3.4 0 0 0-2.5-.47c-.19.05-.34.13-.47.22a1 1 0 0 0-.3.33.88.88 0 0 0-.1.43c0 .2.03.36.1.49s.17.25.31.35c.14.1.3.2.5.28l.67.27c.33.13.63.26.89.4.26.13.49.28.67.45.19.17.33.36.43.58.1.22.15.48.15.78 0 .37-.08.7-.24.97-.17.27-.39.5-.66.68a3 3 0 0 1-.94.4c-.36.1-.73.14-1.12.14-.78 0-1.45-.15-2.01-.45zm14.4.2c-.28.15-.65.23-1.12.23-1.3 0-1.97-.73-1.97-2.2v-4.43h-1.28v-1.03h1.28v-1.83l1.2-.39v2.22h1.9v1.03h-1.9v4.22c0 .5.1.86.26 1.08.17.21.46.32.85.32.3 0 .57-.08.79-.25v1.03zm7.83.07h-1.2v-4.32c0-1.56-.58-2.35-1.74-2.35a1.9 1.9 0 0 0-1.48.68c-.4.45-.6 1.03-.6 1.74V-47h-1.2v-11.1h1.2v4.85h.03a2.73 2.73 0 0 1 2.46-1.43c1.69 0 2.53 1.02 2.53 3.06V-47zm8.3-3.45h-5.3c.02.84.24 1.48.67 1.93.43.46 1.02.69 1.78.69.84 0 1.62-.28 2.33-.84v1.13c-.66.48-1.54.72-2.62.72-1.06 0-1.9-.34-2.5-1.03-.6-.68-.9-1.64-.9-2.87a4.1 4.1 0 0 1 .99-2.85 3.18 3.18 0 0 1 2.46-1.1c.98 0 1.74.31 2.28.95.54.63.8 1.51.8 2.64v.63zm-1.23-1.02c-.01-.7-.18-1.23-.5-1.62a1.7 1.7 0 0 0-1.38-.58c-.57 0-1.05.2-1.44.61-.4.4-.64.94-.74 1.6h4.06zm12.26 4.13a3.9 3.9 0 0 1-2.05.52 3.4 3.4 0 0 1-2.59-1.05c-.65-.7-.98-1.6-.98-2.7 0-1.24.35-2.23 1.06-2.98a3.72 3.72 0 0 1 2.83-1.13c.66 0 1.24.13 1.75.37v1.23a3.05 3.05 0 0 0-1.79-.59c-.77 0-1.4.28-1.89.83-.49.55-.73 1.27-.73 2.16 0 .88.23 1.58.7 2.08.45.51 1.07.77 1.85.77.65 0 1.27-.22 1.84-.66v1.15zm4.95.52c-1.1 0-1.99-.35-2.65-1.06a3.9 3.9 0 0 1-1-2.78c0-1.26.35-2.25 1.04-2.95a3.71 3.71 0 0 1 2.79-1.07c1.12 0 2 .35 2.62 1.04.63.69.94 1.64.94 2.86 0 1.2-.34 2.16-1.01 2.88a3.55 3.55 0 0 1-2.73 1.08zm.1-6.85c-.78 0-1.39.27-1.84.8a3.23 3.23 0 0 0-.67 2.16c0 .9.22 1.6.68 2.1.45.52 1.06.78 1.82.78a2.2 2.2 0 0 0 1.8-.76c.41-.5.62-1.22.62-2.15 0-.93-.2-1.66-.63-2.16a2.19 2.19 0 0 0-1.79-.77zm6.76 6.67h-1.2v-11.1h1.2V-47zm3.63 0h-1.2v-11.1h1.2V-47zm8.46-3.45h-5.3c.03.84.25 1.48.68 1.93.43.46 1.02.69 1.77.69.85 0 1.62-.28 2.33-.84v1.13c-.66.48-1.53.72-2.61.72-1.06 0-1.9-.34-2.5-1.03-.6-.68-.9-1.64-.9-2.87a4.1 4.1 0 0 1 .98-2.85 3.18 3.18 0 0 1 2.47-1.1c.98 0 1.74.31 2.28.95.53.63.8 1.51.8 2.64v.63zm-1.23-1.02c0-.7-.17-1.23-.5-1.62a1.7 1.7 0 0 0-1.37-.58c-.57 0-1.05.2-1.45.61-.4.4-.64.94-.73 1.6h4.05zm8.16 4.13a3.9 3.9 0 0 1-2.05.52 3.4 3.4 0 0 1-2.59-1.05c-.66-.7-.98-1.6-.98-2.7 0-1.24.35-2.23 1.06-2.98a3.72 3.72 0 0 1 2.83-1.13c.66 0 1.24.13 1.75.37v1.23a3.05 3.05 0 0 0-1.8-.59c-.76 0-1.39.28-1.88.83-.49.55-.73 1.27-.73 2.16 0 .88.23 1.58.69 2.08.46.51 1.08.77 1.86.77.65 0 1.26-.22 1.84-.66v1.15zm5.3.27c-.29.15-.66.23-1.12.23-1.32 0-1.97-.73-1.97-2.2v-4.43h-1.3v-1.03h1.3v-1.83l1.2-.39v2.22h1.89v1.03h-1.9v4.22c0 .5.1.86.26 1.08.17.21.46.32.85.32.3 0 .57-.08.79-.25v1.03zm2.22-9.33a.76.76 0 0 1-.78-.78c0-.23.07-.41.23-.56a.75.75 0 0 1 .55-.22.78.78 0 0 1 .79.78c0 .21-.08.4-.23.55a.77.77 0 0 1-.56.23zm.58 9.4h-1.2v-7.5h1.2v7.5zm5.57.18c-1.11 0-2-.35-2.66-1.06a3.9 3.9 0 0 1-.99-2.78c0-1.26.34-2.25 1.03-2.95a3.71 3.71 0 0 1 2.8-1.07c1.11 0 1.98.35 2.61 1.04.63.69.94 1.64.94 2.86 0 1.2-.33 2.16-1.01 2.88a3.55 3.55 0 0 1-2.72 1.08zm.09-6.85c-.78 0-1.39.27-1.84.8a3.23 3.23 0 0 0-.67 2.16c0 .9.23 1.6.68 2.1.46.52 1.06.78 1.83.78a2.2 2.2 0 0 0 1.79-.76c.41-.5.62-1.22.62-2.15 0-.93-.2-1.66-.62-2.16a2.19 2.19 0 0 0-1.8-.77zM-8.51-47h-1.2v-4.28c0-1.59-.58-2.39-1.75-2.39-.6 0-1.1.23-1.49.68-.39.45-.59 1.02-.59 1.71V-47h-1.2v-7.5h1.2v1.25h.03a2.7 2.7 0 0 1 2.46-1.43c.82 0 1.45.27 1.89.8.43.53.65 1.3.65 2.3V-47zm9.5.18c-1.1 0-1.99-.35-2.65-1.06a3.9 3.9 0 0 1-1-2.78c0-1.26.35-2.25 1.04-2.95a3.71 3.71 0 0 1 2.79-1.07c1.12 0 2 .35 2.62 1.04.63.69.94 1.64.94 2.86 0 1.2-.34 2.16-1.01 2.88a3.55 3.55 0 0 1-2.73 1.08zm.1-6.85c-.78 0-1.39.27-1.84.8a3.23 3.23 0 0 0-.67 2.16c0 .9.22 1.6.68 2.1.45.52 1.06.78 1.82.78a2.2 2.2 0 0 0 1.8-.76c.41-.5.62-1.22.62-2.15 0-.93-.2-1.66-.63-2.16a2.19 2.19 0 0 0-1.79-.77zm9.26-3.38a1.6 1.6 0 0 0-.8-.2c-.83 0-1.25.53-1.25 1.6v1.15h1.75v1.03H8.3V-47H7.1v-6.47H5.82v-1.03H7.1v-1.22c0-.78.23-1.4.68-1.86a2.3 2.3 0 0 1 1.7-.68c.37 0 .66.04.87.13v1.08zm11.07 2.55l-3.45 8.7c-.61 1.55-1.48 2.33-2.6 2.33-.3 0-.56-.03-.77-.1v-1.07c.25.09.5.13.7.13.61 0 1.07-.36 1.37-1.08l.6-1.42-2.93-7.49h1.33l2.03 5.77c.03.07.08.27.15.57h.05c.02-.11.07-.3.15-.55l2.13-5.79h1.24zm4.43 7.68c-1.11 0-2-.35-2.66-1.06a3.9 3.9 0 0 1-1-2.78c0-1.26.35-2.25 1.04-2.95a3.71 3.71 0 0 1 2.8-1.07c1.11 0 1.98.35 2.61 1.04.63.69.94 1.64.94 2.86 0 1.2-.34 2.16-1.01 2.88a3.55 3.55 0 0 1-2.72 1.08zm.08-6.85c-.77 0-1.38.27-1.83.8a3.23 3.23 0 0 0-.67 2.16c0 .9.23 1.6.68 2.1.45.52 1.06.78 1.82.78a2.2 2.2 0 0 0 1.8-.76c.41-.5.62-1.22.62-2.15 0-.93-.2-1.66-.63-2.16a2.19 2.19 0 0 0-1.79-.77zM37.56-47h-1.2v-1.19h-.03c-.5.91-1.27 1.37-2.31 1.37-1.79 0-2.68-1.07-2.68-3.2v-4.48h1.2v4.3c0 1.57.6 2.37 1.8 2.37.6 0 1.08-.22 1.46-.65.37-.44.56-1 .56-1.7v-4.32h1.2v7.5zm6.34-6.28a1.47 1.47 0 0 0-.9-.25c-.52 0-.95.25-1.3.73a3.35 3.35 0 0 0-.51 1.98V-47h-1.2v-7.5h1.2v1.55h.03c.17-.53.43-.94.78-1.24.35-.3.75-.44 1.18-.44.31 0 .55.03.72.1v1.25zm6.64 5.2h-.03V-47h-1.2v-11.1h1.2v4.92h.03c.6-1 1.46-1.5 2.6-1.5.96 0 1.71.34 2.26 1.01.54.67.81 1.57.81 2.7 0 1.26-.3 2.26-.91 3.01a3.05 3.05 0 0 1-2.5 1.14c-1 0-1.75-.42-2.26-1.26zm-.03-3.03v1.05c0 .62.2 1.14.6 1.58a2 2 0 0 0 1.54.65c.73 0 1.3-.28 1.71-.84.42-.56.62-1.33.62-2.32 0-.84-.2-1.5-.58-1.96-.38-.48-.9-.72-1.56-.72-.7 0-1.26.25-1.69.73-.42.49-.64 1.1-.64 1.83zm11.53-2.17a1.47 1.47 0 0 0-.9-.25c-.52 0-.95.25-1.3.73a3.35 3.35 0 0 0-.5 1.98V-47h-1.2v-7.5h1.2v1.55h.02c.17-.53.43-.94.79-1.24.35-.3.74-.44 1.17-.44.32 0 .56.03.72.1v1.25zm4.44 6.46c-1.1 0-2-.35-2.65-1.06a3.9 3.9 0 0 1-1-2.78c0-1.26.35-2.25 1.04-2.95a3.71 3.71 0 0 1 2.79-1.07c1.11 0 1.99.35 2.61 1.04.63.69.95 1.64.95 2.86 0 1.2-.34 2.16-1.02 2.88a3.55 3.55 0 0 1-2.72 1.08zm.09-6.85c-.77 0-1.38.27-1.83.8a3.23 3.23 0 0 0-.68 2.16c0 .9.23 1.6.68 2.1.46.52 1.07.78 1.83.78a2.2 2.2 0 0 0 1.79-.76c.42-.5.63-1.22.63-2.15 0-.93-.21-1.66-.63-2.16a2.19 2.19 0 0 0-1.8-.77zm15.01-.83L79.33-47H78.1l-1.55-5.37a3.5 3.5 0 0 1-.11-.7h-.03c-.02.18-.07.4-.16.69L74.57-47h-1.2l-2.28-7.5h1.26l1.56 5.64c.05.17.08.4.1.67h.06c.01-.21.06-.44.13-.69l1.73-5.62h1.1l1.55 5.65c.05.18.09.41.11.68h.06c0-.2.05-.42.12-.68l1.53-5.65h1.18zm.94 7.23v-1.29c.65.48 1.38.73 2.16.73 1.06 0 1.58-.36 1.58-1.06 0-.2-.04-.37-.13-.5a1.35 1.35 0 0 0-.37-.38c-.15-.1-.33-.2-.54-.29l-.67-.27a8.63 8.63 0 0 1-.88-.4 2.64 2.64 0 0 1-.63-.45c-.16-.17-.3-.36-.38-.57a2.03 2.03 0 0 1-.12-.76c0-.35.08-.66.24-.93.16-.27.37-.5.64-.68a3 3 0 0 1 .92-.42 4.3 4.3 0 0 1 2.8.2v1.22a3.4 3.4 0 0 0-2.5-.47c-.18.05-.34.13-.47.22a1 1 0 0 0-.3.33.88.88 0 0 0-.1.43c0 .2.03.36.1.49s.18.25.31.35c.14.1.3.2.5.28l.67.27c.33.13.63.26.9.4.25.13.48.28.67.45.18.17.32.36.42.58.1.22.15.48.15.78 0 .37-.08.7-.24.97-.17.27-.38.5-.66.68a3 3 0 0 1-.94.4c-.36.1-.73.14-1.12.14-.77 0-1.44-.15-2-.45zm7.43-9.13a.76.76 0 0 1-.77-.78c0-.23.07-.41.23-.56a.75.75 0 0 1 .54-.22.78.78 0 0 1 .8.78c0 .21-.08.4-.24.55a.77.77 0 0 1-.56.23zm.6 9.4h-1.21v-7.5h1.2v7.5zm8.65 0H98v-4.28c0-1.59-.58-2.39-1.75-2.39-.6 0-1.1.23-1.49.68-.39.45-.59 1.02-.59 1.71V-47h-1.2v-7.5h1.2v1.25h.03a2.7 2.7 0 0 1 2.46-1.43c.82 0 1.45.27 1.89.8.43.53.65 1.3.65 2.3V-47zm8.66-.6c0 2.75-1.32 4.13-3.95 4.13-.93 0-1.74-.18-2.43-.53v-1.2a5 5 0 0 0 2.41.7c1.85 0 2.77-.98 2.77-2.94v-.82h-.03a2.8 2.8 0 0 1-2.58 1.44c-.93 0-1.68-.34-2.25-1a4 4 0 0 1-.85-2.69c0-1.27.3-2.29.92-3.04a3.07 3.07 0 0 1 2.51-1.13c1.01 0 1.76.4 2.25 1.22h.03v-1.04h1.2v6.9zm-1.2-2.8v-1.1c0-.6-.2-1.1-.6-1.53-.4-.42-.9-.64-1.5-.64-.75 0-1.33.27-1.75.81-.42.54-.63 1.3-.63 2.27 0 .84.2 1.5.6 2 .4.5.94.76 1.6.76a2.1 2.1 0 0 0 1.65-.72c.42-.48.63-1.1.63-1.84zM120.8-47h-1.2v-1.27h-.03a2.77 2.77 0 0 1-2.57 1.45 2.8 2.8 0 0 1-2.26-1.01 4.13 4.13 0 0 1-.85-2.74c0-1.24.31-2.24.94-2.99a3.1 3.1 0 0 1 2.5-1.12c1.03 0 1.77.4 2.24 1.22h.03v-4.64h1.2V-47zm-1.2-3.4v-1.1c0-.6-.2-1.12-.6-1.54-.4-.42-.9-.63-1.52-.63-.73 0-1.31.27-1.73.81a3.53 3.53 0 0 0-.63 2.23c0 .86.2 1.54.6 2.04.4.5.95.76 1.63.76.67 0 1.2-.25 1.63-.73.41-.48.62-1.1.62-1.83zm9 3.4h-1.2v-1.17h-.03c-.52.9-1.29 1.35-2.3 1.35-.75 0-1.33-.2-1.76-.6-.42-.4-.63-.92-.63-1.57 0-1.4.82-2.22 2.47-2.45l2.25-.31c0-1.28-.51-1.92-1.54-1.92-.9 0-1.72.31-2.45.93v-1.23c.74-.47 1.59-.7 2.55-.7 1.76 0 2.64.93 2.64 2.8V-47zm-1.2-3.8l-1.8.26c-.56.07-.98.21-1.27.4-.28.2-.42.56-.42 1.06 0 .37.13.67.4.9.25.23.6.35 1.04.35.6 0 1.08-.21 1.47-.63.39-.42.58-.95.58-1.59v-.74zm6.95 3.73c-.29.15-.66.23-1.12.23-1.32 0-1.97-.73-1.97-2.2v-4.43h-1.3v-1.03h1.3v-1.83l1.2-.39v2.22h1.89v1.03h-1.9v4.22c0 .5.1.86.26 1.08.17.21.46.32.85.32.3 0 .57-.08.79-.25v1.03zm6.97.07h-1.2v-1.17h-.03c-.52.9-1.3 1.35-2.3 1.35-.76 0-1.34-.2-1.76-.6-.42-.4-.64-.92-.64-1.57 0-1.4.83-2.22 2.48-2.45l2.25-.31c0-1.28-.52-1.92-1.55-1.92-.9 0-1.72.31-2.44.93v-1.23c.73-.47 1.58-.7 2.55-.7 1.76 0 2.64.93 2.64 2.8V-47zm-1.2-3.8l-1.81.26c-.56.07-.98.21-1.26.4-.28.2-.43.56-.43 1.06 0 .37.14.67.4.9.26.23.6.35 1.04.35.6 0 1.09-.21 1.48-.63.38-.42.58-.95.58-1.59v-.74zm12.94 3.8h-1.2v-1.17h-.03c-.52.9-1.3 1.35-2.3 1.35-.75 0-1.34-.2-1.76-.6-.42-.4-.64-.92-.64-1.57 0-1.4.83-2.22 2.48-2.45l2.25-.31c0-1.28-.52-1.92-1.55-1.92-.9 0-1.72.31-2.44.93v-1.23c.73-.47 1.58-.7 2.55-.7 1.76 0 2.64.93 2.64 2.8V-47zm-1.2-3.8l-1.81.26c-.56.07-.98.21-1.26.4-.28.2-.42.56-.42 1.06 0 .37.13.67.39.9.26.23.6.35 1.04.35.6 0 1.09-.21 1.48-.63.38-.42.58-.95.58-1.59v-.74zm8.58 3.46a3.9 3.9 0 0 1-2.06.52 3.4 3.4 0 0 1-2.58-1.05c-.66-.7-.99-1.6-.99-2.7 0-1.24.35-2.23 1.06-2.98a3.72 3.72 0 0 1 2.84-1.13c.66 0 1.24.13 1.74.37v1.23a3.05 3.05 0 0 0-1.79-.59c-.76 0-1.4.28-1.88.83-.5.55-.74 1.27-.74 2.16 0 .88.23 1.58.7 2.08.45.51 1.07.77 1.85.77.65 0 1.27-.22 1.85-.66v1.15zm5.72-5.94a1.47 1.47 0 0 0-.9-.25c-.52 0-.95.25-1.3.73a3.35 3.35 0 0 0-.5 1.98V-47h-1.2v-7.5h1.2v1.55h.02c.17-.53.43-.94.79-1.24.35-.3.74-.44 1.18-.44.3 0 .55.03.71.1v1.25zm4.44 6.46c-1.1 0-2-.35-2.65-1.06a3.9 3.9 0 0 1-1-2.78c0-1.26.35-2.25 1.04-2.95a3.71 3.71 0 0 1 2.79-1.07c1.12 0 1.99.35 2.62 1.04.62.69.94 1.64.94 2.86 0 1.2-.34 2.16-1.02 2.88a3.55 3.55 0 0 1-2.72 1.08zm.09-6.85c-.77 0-1.38.27-1.83.8a3.23 3.23 0 0 0-.68 2.16c0 .9.23 1.6.69 2.1.45.52 1.06.78 1.82.78a2.2 2.2 0 0 0 1.79-.76c.42-.5.63-1.22.63-2.15 0-.93-.21-1.66-.63-2.16a2.19 2.19 0 0 0-1.8-.77zm5.11 6.4v-1.29c.66.48 1.38.73 2.16.73 1.06 0 1.58-.36 1.58-1.06 0-.2-.04-.37-.13-.5a1.35 1.35 0 0 0-.37-.38c-.15-.1-.33-.2-.54-.29l-.67-.27a8.63 8.63 0 0 1-.87-.4 2.64 2.64 0 0 1-.63-.45c-.17-.17-.3-.36-.39-.57a2.03 2.03 0 0 1-.12-.76c0-.35.08-.66.24-.93.16-.27.37-.5.64-.68a3 3 0 0 1 .92-.42 4.3 4.3 0 0 1 2.8.2l.01 1.22a3.4 3.4 0 0 0-2.51-.47c-.18.05-.34.13-.47.22a1 1 0 0 0-.3.33.88.88 0 0 0-.1.43c0 .2.03.36.1.49s.18.25.31.35c.14.1.3.2.5.28l.67.27c.33.13.63.26.9.4.26.13.48.28.67.45.18.17.32.36.42.58.1.22.15.48.15.78 0 .37-.08.7-.24.97-.16.27-.38.5-.66.68a3 3 0 0 1-.94.4c-.36.1-.73.14-1.12.14-.77 0-1.44-.15-2-.45zm6.37 0v-1.29c.65.48 1.37.73 2.16.73 1.05 0 1.58-.36 1.58-1.06 0-.2-.05-.37-.14-.5a1.35 1.35 0 0 0-.36-.38c-.16-.1-.34-.2-.54-.29l-.67-.27a8.63 8.63 0 0 1-.88-.4 2.64 2.64 0 0 1-.63-.45c-.17-.17-.3-.36-.38-.57a2.03 2.03 0 0 1-.13-.76c0-.35.08-.66.24-.93.16-.27.38-.5.65-.68a3 3 0 0 1 .92-.42 4.3 4.3 0 0 1 2.8.2v1.22a3.4 3.4 0 0 0-2.5-.47c-.19.05-.34.13-.47.22a1 1 0 0 0-.3.33.88.88 0 0 0-.1.43c0 .2.03.36.1.49s.17.25.3.35c.15.1.31.2.5.28l.67.27c.34.13.63.26.9.4.26.13.49.28.67.45.19.17.33.36.43.58.1.22.15.48.15.78 0 .37-.08.7-.25.97-.16.27-.38.5-.65.68a3 3 0 0 1-.95.4c-.35.1-.73.14-1.12.14-.77 0-1.44-.15-2-.45zm21.57.27h-1.2v-4.3c0-.84-.13-1.44-.38-1.8-.26-.38-.69-.57-1.3-.57-.5 0-.94.24-1.3.7a2.69 2.69 0 0 0-.54 1.7V-47h-1.2v-4.45c0-1.48-.57-2.22-1.7-2.22-.54 0-.97.23-1.31.67a2.74 2.74 0 0 0-.51 1.72V-47h-1.2v-7.5h1.2v1.19h.02c.54-.91 1.31-1.37 2.33-1.37a2.17 2.17 0 0 1 2.13 1.56 2.68 2.68 0 0 1 2.49-1.56c1.65 0 2.47 1.02 2.47 3.06V-47zm8.34 0h-1.2v-1.19h-.03c-.5.91-1.27 1.37-2.32 1.37-1.78 0-2.68-1.07-2.68-3.2v-4.48h1.2v4.3c0 1.57.6 2.37 1.81 2.37.59 0 1.07-.22 1.45-.65.38-.44.57-1 .57-1.7v-4.32h1.2v7.5zm3.62 0h-1.2v-11.1h1.2V-47zm5.91-.07c-.28.15-.65.23-1.12.23-1.3 0-1.97-.73-1.97-2.2v-4.43h-1.29v-1.03h1.3v-1.83l1.2-.39v2.22h1.88v1.03h-1.88v4.22c0 .5.08.86.25 1.08.17.21.46.32.85.32.3 0 .57-.08.78-.25v1.03zm2.22-9.33a.76.76 0 0 1-.77-.78.75.75 0 0 1 .78-.78.78.78 0 0 1 .78.78c0 .21-.07.4-.23.55a.77.77 0 0 1-.56.23zm.59 9.4h-1.2v-7.5h1.2v7.5zm3.66-1.08h-.03v4.53h-1.2V-54.5h1.2v1.32h.03c.6-1 1.46-1.5 2.6-1.5.96 0 1.72.34 2.26 1.01.54.67.81 1.57.81 2.7 0 1.26-.3 2.26-.91 3.01a3.05 3.05 0 0 1-2.5 1.14 2.5 2.5 0 0 1-2.26-1.26zm-.03-3.03v1.05c0 .62.2 1.14.6 1.58a2 2 0 0 0 1.54.65c.73 0 1.3-.28 1.71-.84.41-.56.62-1.33.62-2.32 0-.84-.2-1.5-.58-1.96-.38-.48-.9-.72-1.57-.72-.7 0-1.26.25-1.68.73-.42.49-.64 1.1-.64 1.83zm8.82 4.11h-1.2v-11.1h1.2V-47zm8.46-3.45h-5.3c.02.84.25 1.48.68 1.93.43.46 1.02.69 1.77.69.85 0 1.62-.28 2.33-.84v1.13c-.66.48-1.53.72-2.61.72-1.06 0-1.9-.34-2.5-1.03-.6-.68-.91-1.64-.91-2.87a4.1 4.1 0 0 1 1-2.85 3.18 3.18 0 0 1 2.46-1.1c.98 0 1.74.31 2.27.95.54.63.81 1.51.81 2.64v.63zm-1.23-1.02c0-.7-.17-1.23-.5-1.62a1.7 1.7 0 0 0-1.37-.58c-.57 0-1.05.2-1.45.61-.4.4-.64.94-.73 1.6h4.05zm16.6-3.03l-2.24 7.5h-1.25l-1.54-5.37a3.5 3.5 0 0 1-.12-.7h-.03c-.02.18-.07.4-.16.69L253.7-47h-1.2l-2.27-7.5h1.26l1.55 5.64c.05.17.08.4.1.67h.06c.01-.21.06-.44.13-.69l1.73-5.62h1.1l1.55 5.65c.05.18.09.41.11.68h.06c0-.2.05-.42.12-.68l1.53-5.65h1.18zm7.42 4.05h-5.3c.03.84.25 1.48.68 1.93.43.46 1.02.69 1.77.69.85 0 1.63-.28 2.33-.84v1.13c-.66.48-1.53.72-2.61.72-1.06 0-1.9-.34-2.5-1.03-.6-.68-.9-1.64-.9-2.87a4.1 4.1 0 0 1 .99-2.85 3.18 3.18 0 0 1 2.46-1.1c.98 0 1.74.31 2.28.95.53.63.8 1.51.8 2.64v.63zm-1.23-1.02c0-.7-.17-1.23-.5-1.62a1.7 1.7 0 0 0-1.37-.58c-.57 0-1.05.2-1.44.61-.4.4-.64.94-.74 1.6h4.05zm4.28 3.39h-.03V-47h-1.2v-11.1h1.2v4.92h.03c.6-1 1.46-1.5 2.6-1.5.96 0 1.7.34 2.25 1.01.55.67.82 1.57.82 2.7 0 1.26-.3 2.26-.92 3.01a3.05 3.05 0 0 1-2.5 1.14c-1 0-1.74-.42-2.25-1.26zm-.03-3.03v1.05c0 .62.2 1.14.6 1.58a2 2 0 0 0 1.54.65c.73 0 1.3-.28 1.71-.84.41-.56.62-1.33.62-2.32 0-.84-.2-1.5-.58-1.96-.39-.48-.9-.72-1.57-.72-.7 0-1.26.25-1.68.73-.43.49-.64 1.1-.64 1.83zm7.16 3.84v-1.29c.66.48 1.38.73 2.16.73 1.06 0 1.59-.36 1.59-1.06 0-.2-.05-.37-.14-.5a1.35 1.35 0 0 0-.36-.38c-.16-.1-.34-.2-.55-.29l-.67-.27a8.63 8.63 0 0 1-.87-.4 2.64 2.64 0 0 1-.63-.45c-.17-.17-.3-.36-.38-.57a2.03 2.03 0 0 1-.13-.76c0-.35.08-.66.24-.93.16-.27.38-.5.65-.68a3 3 0 0 1 .91-.42 4.3 4.3 0 0 1 2.8.2l.01 1.22a3.4 3.4 0 0 0-2.5-.47c-.19.05-.34.13-.47.22a1 1 0 0 0-.3.33.88.88 0 0 0-.11.43c0 .2.03.36.1.49.08.13.18.25.32.35.13.1.3.2.5.28l.66.27c.33.13.63.26.9.4.26.13.48.28.67.45.18.17.33.36.43.58.1.22.15.48.15.78 0 .37-.08.7-.25.97-.16.27-.38.5-.65.68a3 3 0 0 1-.95.4c-.35.1-.73.14-1.12.14-.77 0-1.44-.15-2-.45zm7.44-9.13a.76.76 0 0 1-.78-.78c0-.23.08-.41.23-.56a.75.75 0 0 1 .55-.22.78.78 0 0 1 .79.78c0 .21-.08.4-.23.55a.77.77 0 0 1-.56.23zm.58 9.4h-1.2v-7.5h1.2v7.5zm5.91-.07c-.28.15-.65.23-1.12.23-1.3 0-1.97-.73-1.97-2.2v-4.43h-1.29v-1.03h1.3v-1.83l1.2-.39v2.22h1.88v1.03h-1.88v4.22c0 .5.08.86.25 1.08.17.21.46.32.85.32.3 0 .57-.08.78-.25v1.03zm7.64-3.38h-5.3c.02.84.25 1.48.68 1.93.42.46 1.02.69 1.77.69.84 0 1.62-.28 2.33-.84v1.13c-.66.48-1.53.72-2.62.72-1.06 0-1.89-.34-2.5-1.03-.6-.68-.9-1.64-.9-2.87a4.1 4.1 0 0 1 .99-2.85 3.18 3.18 0 0 1 2.46-1.1c.98 0 1.74.31 2.28.95.54.63.8 1.51.8 2.64v.63zm-1.23-1.02c0-.7-.18-1.23-.5-1.62a1.7 1.7 0 0 0-1.38-.58c-.57 0-1.05.2-1.44.61-.4.4-.64.94-.73 1.6h4.05zm2.59 4.2v-1.29c.65.48 1.37.73 2.16.73 1.05 0 1.58-.36 1.58-1.06 0-.2-.04-.37-.13-.5a1.35 1.35 0 0 0-.37-.38c-.15-.1-.33-.2-.54-.29l-.67-.27a8.63 8.63 0 0 1-.88-.4 2.64 2.64 0 0 1-.63-.45c-.17-.17-.3-.36-.38-.57a2.03 2.03 0 0 1-.13-.76c0-.35.08-.66.25-.93.16-.27.37-.5.64-.68a3 3 0 0 1 .92-.42 4.3 4.3 0 0 1 2.8.2v1.22a3.4 3.4 0 0 0-2.5-.47c-.18.05-.34.13-.47.22a1 1 0 0 0-.3.33.88.88 0 0 0-.1.43c0 .2.03.36.1.49s.17.25.31.35c.14.1.3.2.5.28l.67.27c.33.13.63.26.89.4.26.13.49.28.67.45.19.17.33.36.43.58.1.22.15.48.15.78 0 .37-.08.7-.24.97-.17.27-.39.5-.66.68a3 3 0 0 1-.94.4c-.36.1-.73.14-1.12.14-.78 0-1.44-.15-2.01-.45zm7.24.43a.78.78 0 0 1-.58-.24.8.8 0 0 1-.24-.58.8.8 0 0 1 .24-.58.77.77 0 0 1 .58-.25.8.8 0 0 1 .58.25.8.8 0 0 1 .24.58c0 .23-.08.42-.24.58a.8.8 0 0 1-.58.24zm-471.88 12.45h-3.03V-25h-1.23v-9.39h-3.03v-1.11h7.29v1.11zm5.4 3.1a1.47 1.47 0 0 0-.91-.24c-.52 0-.94.25-1.29.73a3.35 3.35 0 0 0-.51 1.98V-25h-1.2v-7.5h1.2v1.55h.03c.17-.53.43-.94.78-1.24.35-.3.74-.44 1.18-.44.31 0 .55.03.72.1v1.25zm6.67 6.29h-1.2v-1.17h-.03c-.52.9-1.3 1.35-2.3 1.35-.76 0-1.34-.2-1.76-.6-.43-.4-.64-.92-.64-1.57 0-1.4.83-2.22 2.48-2.45l2.25-.31c0-1.28-.52-1.92-1.55-1.92-.9 0-1.72.31-2.44.93v-1.23c.73-.47 1.58-.7 2.54-.7 1.77 0 2.65.93 2.65 2.8V-25zm-1.2-3.8l-1.81.26c-.56.07-.98.21-1.26.4-.29.2-.43.56-.43 1.06 0 .37.13.67.4.9.26.23.6.35 1.04.35.6 0 1.09-.21 1.47-.63.4-.42.59-.95.59-1.59v-.74zm8.57 3.46a3.9 3.9 0 0 1-2.05.52 3.4 3.4 0 0 1-2.59-1.05c-.65-.7-.98-1.6-.98-2.7 0-1.24.35-2.23 1.06-2.98a3.72 3.72 0 0 1 2.84-1.13c.65 0 1.24.13 1.74.37v1.23a3.05 3.05 0 0 0-1.79-.59c-.77 0-1.4.28-1.88.83-.5.55-.74 1.27-.74 2.16 0 .88.23 1.58.7 2.08.45.51 1.07.77 1.85.77.65 0 1.27-.22 1.84-.66v1.15zm8.05.34h-1.69l-3.3-3.6h-.04v3.6h-1.2v-11.1h1.2v7.04h.03l3.15-3.44h1.57l-3.47 3.62 3.75 3.88zm1.84-9.4a.76.76 0 0 1-.77-.78.75.75 0 0 1 .78-.78.78.78 0 0 1 .78.78c0 .21-.07.4-.23.55a.77.77 0 0 1-.56.23zm.59 9.4h-1.2v-7.5h1.2v7.5zm8.65 0h-1.2v-4.28c0-1.59-.58-2.39-1.74-2.39-.6 0-1.1.23-1.49.68-.4.45-.59 1.02-.59 1.71V-25h-1.2v-7.5h1.2v1.25h.03a2.7 2.7 0 0 1 2.46-1.43c.82 0 1.45.27 1.88.8.44.53.65 1.3.65 2.3V-25zm8.67-.6c0 2.75-1.32 4.13-3.96 4.13-.92 0-1.73-.18-2.43-.53v-1.2a5 5 0 0 0 2.42.7c1.85 0 2.77-.98 2.77-2.94v-.82h-.03a2.8 2.8 0 0 1-2.58 1.44c-.93 0-1.68-.34-2.25-1a4 4 0 0 1-.85-2.69c0-1.27.3-2.29.91-3.04a3.07 3.07 0 0 1 2.52-1.13c1.01 0 1.76.4 2.25 1.22h.03v-1.04h1.2v6.9zm-1.2-2.8v-1.1c0-.6-.2-1.1-.6-1.53-.4-.42-.91-.64-1.51-.64-.74 0-1.32.27-1.74.81-.42.54-.63 1.3-.63 2.27 0 .84.2 1.5.6 2 .4.5.94.76 1.6.76a2.1 2.1 0 0 0 1.64-.72c.43-.48.64-1.1.64-1.84zm12.85 3.06a3.9 3.9 0 0 1-2.05.52 3.4 3.4 0 0 1-2.59-1.05c-.65-.7-.98-1.6-.98-2.7 0-1.24.35-2.23 1.06-2.98a3.72 3.72 0 0 1 2.83-1.13c.66 0 1.24.13 1.75.37v1.23a3.05 3.05 0 0 0-1.8-.59c-.76 0-1.39.28-1.88.83-.49.55-.73 1.27-.73 2.16 0 .88.23 1.58.69 2.08.46.51 1.08.77 1.86.77.65 0 1.27-.22 1.84-.66v1.15zm7.19.34h-1.2v-1.17h-.03c-.53.9-1.3 1.35-2.31 1.35-.75 0-1.33-.2-1.75-.6-.43-.4-.64-.92-.64-1.57 0-1.4.83-2.22 2.48-2.45l2.25-.31c0-1.28-.52-1.92-1.55-1.92-.9 0-1.72.31-2.45.93v-1.23c.74-.47 1.6-.7 2.55-.7 1.77 0 2.65.93 2.65 2.8V-25zm-1.2-3.8l-1.81.26c-.56.07-.98.21-1.26.4-.29.2-.43.56-.43 1.06 0 .37.13.67.4.9.26.23.6.35 1.04.35.6 0 1.09-.21 1.47-.63.4-.42.59-.95.59-1.59v-.74zm9.69 3.8h-1.2v-4.28c0-1.59-.59-2.39-1.75-2.39-.6 0-1.1.23-1.49.68-.4.45-.59 1.02-.59 1.71V-25h-1.2v-7.5h1.2v1.25h.03a2.7 2.7 0 0 1 2.46-1.43c.82 0 1.45.27 1.88.8.44.53.66 1.3.66 2.3V-25zm7.6-1.08h-.03V-25h-1.2v-11.1h1.2v4.92h.03c.59-1 1.45-1.5 2.6-1.5.95 0 1.7.34 2.25 1.01.55.67.82 1.57.82 2.7 0 1.26-.3 2.26-.92 3.01a3.05 3.05 0 0 1-2.5 1.14c-1 0-1.74-.42-2.25-1.26zm-.03-3.03v1.05c0 .62.2 1.14.6 1.58a2 2 0 0 0 1.54.65c.73 0 1.3-.28 1.7-.84.42-.56.63-1.33.63-2.32 0-.84-.2-1.5-.58-1.96-.39-.48-.91-.72-1.57-.72-.7 0-1.26.25-1.68.73-.43.49-.64 1.1-.64 1.83zm13.64.66h-5.3c.03.84.25 1.48.68 1.93.43.46 1.02.69 1.77.69.85 0 1.63-.28 2.33-.84v1.13c-.66.48-1.53.72-2.61.72-1.06 0-1.9-.34-2.5-1.03-.6-.68-.9-1.64-.9-2.87a4.1 4.1 0 0 1 .99-2.85 3.18 3.18 0 0 1 2.46-1.1c.98 0 1.74.31 2.28.95.54.63.8 1.51.8 2.64v.63zm-1.23-1.02c0-.7-.17-1.23-.5-1.62a1.7 1.7 0 0 0-1.37-.58c-.57 0-1.05.2-1.44.61-.4.4-.64.94-.74 1.6h4.05zM-55.64-25h-1.2v-1.19h-.03c-.5.91-1.27 1.37-2.31 1.37-1.79 0-2.68-1.07-2.68-3.2v-4.48h1.2v4.3c0 1.57.6 2.37 1.8 2.37.6 0 1.08-.22 1.45-.65.38-.44.57-1 .57-1.7v-4.32h1.2v7.5zm1.97-.27v-1.29c.66.48 1.38.73 2.16.73 1.06 0 1.59-.36 1.59-1.06 0-.2-.05-.37-.14-.5a1.35 1.35 0 0 0-.37-.38c-.15-.1-.33-.2-.54-.29l-.67-.27a8.63 8.63 0 0 1-.87-.4 2.64 2.64 0 0 1-.63-.45c-.17-.17-.3-.36-.38-.57a2.03 2.03 0 0 1-.13-.76c0-.35.08-.66.24-.93.16-.27.38-.5.64-.68a3 3 0 0 1 .92-.42 4.3 4.3 0 0 1 2.8.2l.01 1.22a3.4 3.4 0 0 0-2.5-.47c-.19.05-.35.13-.47.22a1 1 0 0 0-.3.33.88.88 0 0 0-.11.43c0 .2.03.36.1.49.08.13.18.25.32.35.13.1.3.2.5.28l.66.27c.33.13.63.26.9.4.26.13.48.28.67.45.18.17.33.36.43.58.1.22.15.48.15.78 0 .37-.08.7-.25.97-.16.27-.38.5-.65.68a3 3 0 0 1-.95.4c-.36.1-.73.14-1.12.14-.77 0-1.44-.15-2-.45zm12.85-3.18h-5.3c.02.84.25 1.48.68 1.93.43.46 1.02.69 1.77.69.85 0 1.62-.28 2.33-.84v1.13c-.66.48-1.53.72-2.61.72-1.06 0-1.9-.34-2.5-1.03-.6-.68-.91-1.64-.91-2.87a4.1 4.1 0 0 1 1-2.85 3.18 3.18 0 0 1 2.46-1.1c.98 0 1.74.31 2.27.95.54.63.81 1.51.81 2.64v.63zm-1.23-1.02c0-.7-.17-1.23-.5-1.62a1.7 1.7 0 0 0-1.37-.58c-.57 0-1.05.2-1.45.61-.4.4-.64.94-.73 1.6h4.05zM-32.6-25h-1.2v-1.27h-.03a2.77 2.77 0 0 1-2.58 1.45 2.8 2.8 0 0 1-2.26-1.01 4.13 4.13 0 0 1-.85-2.74c0-1.24.32-2.24.94-2.99a3.1 3.1 0 0 1 2.5-1.12c1.03 0 1.78.4 2.25 1.22h.03v-4.64h1.2V-25zm-1.2-3.4v-1.1c0-.6-.2-1.12-.6-1.54-.4-.42-.91-.63-1.53-.63-.73 0-1.3.27-1.73.81a3.53 3.53 0 0 0-.63 2.23c0 .86.2 1.54.6 2.04.41.5.95.76 1.63.76.67 0 1.21-.25 1.63-.73.42-.48.63-1.1.63-1.83zm11.22 3.33c-.29.15-.66.23-1.12.23-1.32 0-1.97-.73-1.97-2.2v-4.43h-1.3v-1.03h1.3v-1.83l1.2-.39v2.22h1.89v1.03h-1.9v4.22c0 .5.1.86.26 1.08.18.21.46.32.85.32.3 0 .57-.08.79-.25v1.03zm4.74.25c-1.11 0-2-.35-2.66-1.06a3.9 3.9 0 0 1-1-2.78c0-1.26.35-2.25 1.04-2.95a3.71 3.71 0 0 1 2.8-1.07c1.11 0 1.98.35 2.61 1.04.63.69.94 1.64.94 2.86 0 1.2-.34 2.16-1.01 2.88a3.55 3.55 0 0 1-2.72 1.08zm.08-6.85c-.77 0-1.38.27-1.83.8a3.23 3.23 0 0 0-.67 2.16c0 .9.23 1.6.68 2.1.46.52 1.06.78 1.82.78a2.2 2.2 0 0 0 1.8-.76c.41-.5.62-1.22.62-2.15 0-.93-.2-1.66-.62-2.16a2.19 2.19 0 0 0-1.8-.77zm10.91 5.59h-.03V-25h-1.2v-11.1h1.2v4.92h.03c.6-1 1.46-1.5 2.6-1.5.96 0 1.7.34 2.25 1.01.55.67.82 1.57.82 2.7 0 1.26-.3 2.26-.92 3.01a3.05 3.05 0 0 1-2.5 1.14c-1 0-1.74-.42-2.25-1.26zm-.03-3.03v1.05c0 .62.2 1.14.6 1.58a2 2 0 0 0 1.54.65c.73 0 1.3-.28 1.71-.84.41-.56.62-1.33.62-2.32 0-.84-.2-1.5-.58-1.96-.39-.48-.9-.72-1.57-.72-.7 0-1.26.25-1.68.73-.43.49-.64 1.1-.64 1.83zM6.8-25H5.6v-1.19h-.03c-.5.91-1.27 1.37-2.31 1.37-1.79 0-2.68-1.07-2.68-3.2v-4.48h1.2v4.3c0 1.57.6 2.37 1.8 2.37.6 0 1.08-.22 1.45-.65.38-.44.57-1 .57-1.7v-4.32h1.2v7.5zm3.04-9.4a.76.76 0 0 1-.77-.78.75.75 0 0 1 .78-.78.78.78 0 0 1 .78.78c0 .21-.07.4-.23.55a.77.77 0 0 1-.56.23zm.59 9.4h-1.2v-7.5h1.2v7.5zm3.63 0h-1.2v-11.1h1.2V-25zm8.83 0h-1.2v-1.27h-.03a2.77 2.77 0 0 1-2.57 1.45 2.8 2.8 0 0 1-2.26-1.01 4.13 4.13 0 0 1-.85-2.74c0-1.24.31-2.24.94-2.99a3.1 3.1 0 0 1 2.5-1.12c1.03 0 1.77.4 2.24 1.22h.03v-4.64h1.2V-25zm-1.2-3.4v-1.1c0-.6-.2-1.12-.6-1.54-.4-.42-.9-.63-1.52-.63-.73 0-1.31.27-1.73.81a3.53 3.53 0 0 0-.63 2.23c0 .86.2 1.54.6 2.04.4.5.95.76 1.63.76.67 0 1.2-.25 1.63-.73.41-.48.62-1.1.62-1.83zM34.8-25h-1.2v-1.17h-.03c-.52.9-1.29 1.35-2.3 1.35-.75 0-1.34-.2-1.76-.6-.42-.4-.63-.92-.63-1.57 0-1.4.82-2.22 2.47-2.45l2.25-.31c0-1.28-.51-1.92-1.54-1.92-.9 0-1.72.31-2.45.93v-1.23c.74-.47 1.59-.7 2.55-.7 1.76 0 2.64.93 2.64 2.8V-25zm-1.2-3.8l-1.8.26c-.56.07-.98.21-1.27.4-.28.2-.42.56-.42 1.06 0 .37.13.67.39.9.26.23.6.35 1.04.35.6 0 1.1-.21 1.48-.63.39-.42.58-.95.58-1.59v-.74zm8.8 2.72h-.02v4.53h-1.2V-32.5h1.2v1.32h.03c.59-1 1.45-1.5 2.59-1.5.97 0 1.72.34 2.26 1.01.54.67.81 1.57.81 2.7 0 1.26-.3 2.26-.91 3.01a3.05 3.05 0 0 1-2.5 1.14 2.5 2.5 0 0 1-2.25-1.26zm-.02-3.03v1.05c0 .62.2 1.14.6 1.58a2 2 0 0 0 1.54.65c.72 0 1.3-.28 1.7-.84.42-.56.62-1.33.62-2.32 0-.84-.19-1.5-.57-1.96-.39-.48-.91-.72-1.57-.72-.7 0-1.26.25-1.69.73-.42.49-.63 1.1-.63 1.83zm11.52-2.17a1.47 1.47 0 0 0-.9-.25c-.52 0-.94.25-1.29.73a3.35 3.35 0 0 0-.52 1.98V-25H50v-7.5h1.2v1.55h.03c.18-.53.44-.94.79-1.24.35-.3.74-.44 1.18-.44.31 0 .55.03.71.1v1.25zm4.44 6.46c-1.1 0-1.99-.35-2.65-1.06a3.9 3.9 0 0 1-1-2.78c0-1.26.35-2.25 1.04-2.95a3.71 3.71 0 0 1 2.79-1.07c1.12 0 1.99.35 2.62 1.04.62.69.94 1.64.94 2.86 0 1.2-.34 2.16-1.02 2.88a3.55 3.55 0 0 1-2.72 1.08zm.1-6.85c-.78 0-1.4.27-1.84.8a3.23 3.23 0 0 0-.67 2.16c0 .9.22 1.6.68 2.1.45.52 1.06.78 1.82.78a2.2 2.2 0 0 0 1.8-.76c.4-.5.62-1.22.62-2.15 0-.93-.21-1.66-.63-2.16a2.19 2.19 0 0 0-1.79-.77zm9.26-3.38a1.6 1.6 0 0 0-.8-.2c-.83 0-1.25.53-1.25 1.6v1.15h1.75v1.03h-1.75V-25h-1.2v-6.47h-1.28v-1.03h1.28v-1.22c0-.78.23-1.4.68-1.86a2.3 2.3 0 0 1 1.7-.68c.37 0 .66.04.87.13v1.08zm1.6.65a.76.76 0 0 1-.77-.78c0-.23.08-.41.23-.56a.75.75 0 0 1 .55-.22.78.78 0 0 1 .79.78c0 .21-.08.4-.23.55a.77.77 0 0 1-.56.23zm.6 9.4h-1.2v-7.5h1.2v7.5zm3.63 0h-1.2v-11.1h1.2V-25zm8.46-3.45h-5.3c.02.84.24 1.48.67 1.93.43.46 1.02.69 1.78.69.84 0 1.62-.28 2.33-.84v1.13c-.66.48-1.53.72-2.62.72-1.06 0-1.9-.34-2.5-1.03-.6-.68-.9-1.64-.9-2.87a4.1 4.1 0 0 1 .99-2.85 3.18 3.18 0 0 1 2.46-1.1c.98 0 1.74.31 2.28.95.54.63.8 1.51.8 2.64v.63zm-1.23-1.02c-.01-.7-.18-1.23-.5-1.62a1.7 1.7 0 0 0-1.38-.58c-.57 0-1.05.2-1.44.61-.4.4-.64.94-.73 1.6h4.05zM93.28-25h-1.2v-1.17h-.03c-.52.9-1.3 1.35-2.3 1.35-.75 0-1.34-.2-1.76-.6-.42-.4-.64-.92-.64-1.57 0-1.4.83-2.22 2.48-2.45l2.25-.31c0-1.28-.52-1.92-1.55-1.92-.9 0-1.72.31-2.44.93v-1.23c.73-.47 1.58-.7 2.55-.7 1.76 0 2.64.93 2.64 2.8V-25zm-1.2-3.8l-1.81.26c-.56.07-.98.21-1.26.4-.28.2-.43.56-.43 1.06 0 .37.14.67.4.9.26.23.6.35 1.04.35.6 0 1.09-.21 1.48-.63.38-.42.58-.95.58-1.59v-.74zm9.69 3.8h-1.2v-4.28c0-1.59-.58-2.39-1.75-2.39-.6 0-1.1.23-1.49.68-.39.45-.59 1.02-.59 1.71V-25h-1.2v-7.5h1.2v1.25h.03a2.7 2.7 0 0 1 2.46-1.43c.82 0 1.45.27 1.89.8.43.53.65 1.3.65 2.3V-25zm8.66 0h-1.2v-1.27h-.03a2.77 2.77 0 0 1-2.58 1.45 2.8 2.8 0 0 1-2.26-1.01 4.13 4.13 0 0 1-.84-2.74c0-1.24.31-2.24.94-2.99a3.1 3.1 0 0 1 2.5-1.12c1.02 0 1.77.4 2.24 1.22h.03v-4.64h1.2V-25zm-1.2-3.4v-1.1c0-.6-.2-1.12-.6-1.54-.4-.42-.9-.63-1.52-.63-.73 0-1.31.27-1.73.81a3.53 3.53 0 0 0-.63 2.23c0 .86.2 1.54.6 2.04.4.5.95.76 1.63.76.67 0 1.2-.25 1.63-.73.41-.48.62-1.1.62-1.83zm14.14 3.4h-1.2v-1.27h-.03a2.77 2.77 0 0 1-2.57 1.45 2.8 2.8 0 0 1-2.26-1.01 4.13 4.13 0 0 1-.85-2.74c0-1.24.31-2.24.94-2.99a3.1 3.1 0 0 1 2.5-1.12c1.03 0 1.78.4 2.24 1.22h.03v-4.64h1.2V-25zm-1.2-3.4v-1.1c0-.6-.2-1.12-.6-1.54-.4-.42-.9-.63-1.52-.63-.73 0-1.3.27-1.73.81a3.53 3.53 0 0 0-.63 2.23c0 .86.2 1.54.6 2.04.4.5.95.76 1.63.76.67 0 1.21-.25 1.63-.73.42-.48.62-1.1.62-1.83zm4.25-6a.76.76 0 0 1-.77-.78.75.75 0 0 1 .78-.78.78.78 0 0 1 .78.78c0 .21-.07.4-.23.55a.77.77 0 0 1-.56.23zm.59 9.4h-1.2v-7.5h1.2v7.5zm1.98-.27v-1.29c.65.48 1.37.73 2.16.73 1.05 0 1.58-.36 1.58-1.06 0-.2-.05-.37-.14-.5a1.35 1.35 0 0 0-.36-.38c-.16-.1-.34-.2-.55-.29l-.67-.27a8.63 8.63 0 0 1-.87-.4 2.64 2.64 0 0 1-.63-.45c-.17-.17-.3-.36-.38-.57a2.03 2.03 0 0 1-.13-.76c0-.35.08-.66.24-.93.16-.27.38-.5.65-.68a3 3 0 0 1 .92-.42 4.3 4.3 0 0 1 2.8.2v1.22a3.4 3.4 0 0 0-2.5-.47c-.19.05-.34.13-.47.22a1 1 0 0 0-.3.33.88.88 0 0 0-.11.43c0 .2.04.36.1.49.08.13.18.25.32.35.13.1.3.2.5.28l.66.27c.33.13.63.26.9.4.26.13.48.28.67.45.19.17.33.36.43.58.1.22.15.48.15.78 0 .37-.08.7-.25.97-.16.27-.38.5-.65.68a3 3 0 0 1-.95.4c-.35.1-.73.14-1.12.14-.77 0-1.44-.15-2-.45zm8.04-.81h-.02v4.53h-1.2V-32.5h1.2v1.32h.02c.6-1 1.46-1.5 2.6-1.5.96 0 1.72.34 2.26 1.01.54.67.81 1.57.81 2.7 0 1.26-.3 2.26-.91 3.01a3.05 3.05 0 0 1-2.5 1.14 2.5 2.5 0 0 1-2.26-1.26zm-.02-3.03v1.05c0 .62.2 1.14.6 1.58a2 2 0 0 0 1.53.65c.73 0 1.3-.28 1.71-.84.42-.56.62-1.33.62-2.32 0-.84-.19-1.5-.58-1.96-.38-.48-.9-.72-1.56-.72-.7 0-1.26.25-1.69.73-.42.49-.63 1.1-.63 1.83zm8.81 4.11h-1.2v-11.1h1.2V-25zm7.8 0h-1.2v-1.17h-.03c-.52.9-1.29 1.35-2.3 1.35-.75 0-1.34-.2-1.76-.6-.42-.4-.63-.92-.63-1.57 0-1.4.82-2.22 2.47-2.45l2.25-.31c0-1.28-.51-1.92-1.54-1.92-.9 0-1.72.31-2.45.93v-1.23c.74-.47 1.59-.7 2.55-.7 1.76 0 2.64.93 2.64 2.8V-25zm-1.2-3.8l-1.8.26c-.56.07-.98.21-1.27.4-.28.2-.42.56-.42 1.06 0 .37.13.67.4.9.25.23.6.35 1.03.35.6 0 1.1-.21 1.48-.63.39-.42.58-.95.58-1.59v-.74zm9.44-3.7l-3.45 8.7c-.62 1.55-1.48 2.33-2.6 2.33-.3 0-.57-.03-.78-.1v-1.07c.26.09.5.13.71.13.6 0 1.06-.36 1.36-1.08l.6-1.42-2.93-7.49h1.34l2.03 5.77.15.57h.04l.15-.55 2.13-5.79h1.25zm10.5 7.16a3.9 3.9 0 0 1-2.04.52 3.4 3.4 0 0 1-2.6-1.05c-.65-.7-.98-1.6-.98-2.7 0-1.24.36-2.23 1.06-2.98a3.72 3.72 0 0 1 2.84-1.13c.66 0 1.24.13 1.74.37v1.23a3.05 3.05 0 0 0-1.79-.59c-.76 0-1.4.28-1.88.83-.5.55-.74 1.27-.74 2.16 0 .88.23 1.58.7 2.08.46.51 1.07.77 1.85.77.66 0 1.27-.22 1.85-.66v1.15zm4.96.52c-1.11 0-2-.35-2.66-1.06a3.9 3.9 0 0 1-.99-2.78c0-1.26.34-2.25 1.03-2.95a3.71 3.71 0 0 1 2.8-1.07c1.11 0 1.98.35 2.61 1.04.63.69.94 1.64.94 2.86 0 1.2-.33 2.16-1.01 2.88a3.55 3.55 0 0 1-2.72 1.08zm.09-6.85c-.78 0-1.39.27-1.84.8a3.23 3.23 0 0 0-.67 2.16c0 .9.23 1.6.68 2.1.46.52 1.06.78 1.83.78a2.2 2.2 0 0 0 1.79-.76c.41-.5.62-1.22.62-2.15 0-.93-.2-1.66-.62-2.16a2.19 2.19 0 0 0-1.8-.77zM189.2-25H188v-4.28c0-1.59-.58-2.39-1.75-2.39-.6 0-1.1.23-1.49.68-.39.45-.59 1.02-.59 1.71V-25h-1.2v-7.5h1.2v1.25h.03a2.7 2.7 0 0 1 2.46-1.43c.82 0 1.45.27 1.89.8.43.53.65 1.3.65 2.3V-25zm5.74-.07c-.28.15-.66.23-1.12.23-1.31 0-1.97-.73-1.97-2.2v-4.43h-1.29v-1.03h1.29v-1.83l1.2-.39v2.22h1.89v1.03h-1.89v4.22c0 .5.09.86.26 1.08.17.21.45.32.85.32.3 0 .56-.08.78-.25v1.03zm7.63-3.38h-5.3c.03.84.25 1.48.68 1.93.43.46 1.02.69 1.77.69.85 0 1.62-.28 2.33-.84v1.13c-.66.48-1.53.72-2.61.72-1.06 0-1.9-.34-2.5-1.03-.6-.68-.9-1.64-.9-2.87a4.1 4.1 0 0 1 .98-2.85 3.18 3.18 0 0 1 2.47-1.1c.98 0 1.74.31 2.28.95.53.63.8 1.51.8 2.64v.63zm-1.23-1.02c0-.7-.17-1.23-.5-1.62a1.7 1.7 0 0 0-1.37-.58c-.57 0-1.05.2-1.45.61-.4.4-.64.94-.73 1.6h4.05zm9.27 4.47h-1.2v-4.28c0-1.59-.58-2.39-1.74-2.39-.6 0-1.1.23-1.5.68-.38.45-.58 1.02-.58 1.71V-25h-1.2v-7.5h1.2v1.25h.03a2.7 2.7 0 0 1 2.46-1.43c.82 0 1.45.27 1.88.8.44.53.65 1.3.65 2.3V-25zm5.75-.07c-.29.15-.66.23-1.12.23-1.32 0-1.97-.73-1.97-2.2v-4.43h-1.3v-1.03h1.3v-1.83l1.2-.39v2.22h1.89v1.03h-1.9v4.22c0 .5.1.86.26 1.08.17.21.46.32.85.32.3 0 .57-.08.79-.25v1.03zm6.94-1.01h-.03V-25h-1.2v-11.1h1.2v4.92h.03c.59-1 1.45-1.5 2.6-1.5.95 0 1.7.34 2.25 1.01.55.67.82 1.57.82 2.7 0 1.26-.3 2.26-.92 3.01a3.05 3.05 0 0 1-2.5 1.14c-1 0-1.74-.42-2.25-1.26zm-.03-3.03v1.05c0 .62.2 1.14.6 1.58a2 2 0 0 0 1.54.65c.73 0 1.3-.28 1.7-.84.42-.56.63-1.33.63-2.32 0-.84-.2-1.5-.58-1.96-.39-.48-.9-.72-1.57-.72-.7 0-1.26.25-1.68.73-.43.49-.64 1.1-.64 1.83zM236.26-25h-1.2v-1.17h-.03c-.53.9-1.3 1.35-2.31 1.35-.75 0-1.33-.2-1.76-.6-.42-.4-.63-.92-.63-1.57 0-1.4.83-2.22 2.48-2.45l2.24-.31c0-1.28-.51-1.92-1.54-1.92-.9 0-1.72.31-2.45.93v-1.23c.74-.47 1.59-.7 2.55-.7 1.76 0 2.65.93 2.65 2.8V-25zm-1.2-3.8l-1.81.26c-.56.07-.98.21-1.26.4-.29.2-.43.56-.43 1.06 0 .37.13.67.4.9.25.23.6.35 1.04.35.6 0 1.08-.21 1.47-.63.4-.42.58-.95.58-1.59v-.74zm3 3.53v-1.29c.66.48 1.38.73 2.17.73 1.05 0 1.58-.36 1.58-1.06 0-.2-.05-.37-.14-.5a1.35 1.35 0 0 0-.36-.38c-.16-.1-.34-.2-.55-.29l-.67-.27a8.63 8.63 0 0 1-.87-.4 2.64 2.64 0 0 1-.63-.45c-.17-.17-.3-.36-.38-.57a2.03 2.03 0 0 1-.13-.76c0-.35.08-.66.24-.93.16-.27.38-.5.65-.68a3 3 0 0 1 .92-.42 4.3 4.3 0 0 1 2.8.2v1.22a3.4 3.4 0 0 0-2.5-.47c-.19.05-.34.13-.47.22a1 1 0 0 0-.3.33.88.88 0 0 0-.11.43c0 .2.04.36.1.49.08.13.18.25.32.35.13.1.3.2.5.28l.66.27c.33.13.63.26.9.4.26.13.48.28.67.45.19.17.33.36.43.58.1.22.15.48.15.78 0 .37-.08.7-.25.97-.16.27-.38.5-.65.68a3 3 0 0 1-.95.4c-.35.1-.73.14-1.12.14-.77 0-1.44-.15-2-.45zm12.85-3.18h-5.3c.03.84.25 1.48.68 1.93.43.46 1.02.69 1.77.69.85 0 1.62-.28 2.33-.84v1.13c-.66.48-1.53.72-2.61.72-1.06 0-1.9-.34-2.5-1.03-.6-.68-.9-1.64-.9-2.87a4.1 4.1 0 0 1 .98-2.85 3.18 3.18 0 0 1 2.47-1.1c.98 0 1.74.31 2.28.95.53.63.8 1.51.8 2.64v.63zm-1.23-1.02c0-.7-.17-1.23-.5-1.62a1.7 1.7 0 0 0-1.37-.58c-.57 0-1.05.2-1.45.61-.4.4-.64.94-.73 1.6h4.05zm9.45 4.47h-1.2v-1.27h-.03a2.77 2.77 0 0 1-2.58 1.45 2.8 2.8 0 0 1-2.26-1.01 4.13 4.13 0 0 1-.84-2.74c0-1.24.3-2.24.93-2.99a3.1 3.1 0 0 1 2.5-1.12c1.03 0 1.78.4 2.25 1.22h.03v-4.64h1.2V-25zm-1.2-3.4v-1.1c0-.6-.2-1.12-.6-1.54-.4-.42-.91-.63-1.53-.63-.73 0-1.3.27-1.72.81a3.53 3.53 0 0 0-.63 2.23c0 .86.2 1.54.6 2.04.4.5.94.76 1.62.76.67 0 1.21-.25 1.63-.73.42-.48.63-1.1.63-1.83zm10.87 3.58c-1.1 0-1.99-.35-2.65-1.06a3.9 3.9 0 0 1-1-2.78c0-1.26.35-2.25 1.04-2.95a3.71 3.71 0 0 1 2.79-1.07c1.12 0 2 .35 2.62 1.04.63.69.94 1.64.94 2.86 0 1.2-.34 2.16-1.01 2.88a3.55 3.55 0 0 1-2.73 1.08zm.1-6.85c-.78 0-1.39.27-1.84.8a3.23 3.23 0 0 0-.67 2.16c0 .9.22 1.6.68 2.1.45.52 1.06.78 1.82.78a2.2 2.2 0 0 0 1.8-.76c.41-.5.62-1.22.62-2.15 0-.93-.2-1.66-.63-2.16a2.19 2.19 0 0 0-1.79-.77zM280.67-25h-1.2v-4.28c0-1.59-.58-2.39-1.74-2.39-.6 0-1.1.23-1.49.68-.4.45-.59 1.02-.59 1.71V-25h-1.2v-7.5h1.2v1.25h.03a2.7 2.7 0 0 1 2.46-1.43c.82 0 1.45.27 1.88.8.44.53.65 1.3.65 2.3V-25zm12.35-7.5l-3.45 8.7c-.62 1.55-1.48 2.33-2.6 2.33-.3 0-.57-.03-.78-.1v-1.07c.26.09.5.13.71.13.6 0 1.06-.36 1.36-1.08l.6-1.42-2.93-7.49h1.34l2.03 5.77.15.57h.04l.15-.55 2.13-5.79h1.25zm4.42 7.68c-1.1 0-2-.35-2.66-1.06a3.9 3.9 0 0 1-.99-2.78c0-1.26.35-2.25 1.03-2.95a3.71 3.71 0 0 1 2.8-1.07c1.11 0 1.99.35 2.61 1.04.63.69.95 1.64.95 2.86 0 1.2-.34 2.16-1.02 2.88a3.55 3.55 0 0 1-2.72 1.08zm.09-6.85c-.77 0-1.38.27-1.83.8a3.23 3.23 0 0 0-.68 2.16c0 .9.23 1.6.68 2.1.46.52 1.07.78 1.83.78a2.2 2.2 0 0 0 1.79-.76c.42-.5.62-1.22.62-2.15 0-.93-.2-1.66-.62-2.16a2.19 2.19 0 0 0-1.8-.77zM309.17-25h-1.2v-1.19h-.03c-.5.91-1.27 1.37-2.32 1.37-1.78 0-2.68-1.07-2.68-3.2v-4.48h1.2v4.3c0 1.57.6 2.37 1.81 2.37.59 0 1.07-.22 1.45-.65.38-.44.57-1 .57-1.7v-4.32h1.2v7.5zm6.33-6.28a1.47 1.47 0 0 0-.9-.25c-.52 0-.95.25-1.29.73a3.35 3.35 0 0 0-.52 1.98V-25h-1.2v-7.5h1.2v1.55h.03c.17-.53.44-.94.79-1.24.35-.3.74-.44 1.18-.44.3 0 .55.03.71.1v1.25zm-484.05 27.2h-.03V-3h-1.2v-11.1h1.2v4.92h.03c.59-1 1.45-1.5 2.59-1.5.96 0 1.71.34 2.26 1.01.54.67.82 1.57.82 2.7 0 1.26-.31 2.26-.92 3.01a3.05 3.05 0 0 1-2.5 1.14c-1 0-1.75-.42-2.25-1.26zm-.03-3.03v1.05c0 .62.2 1.14.6 1.58a2 2 0 0 0 1.54.65c.72 0 1.3-.28 1.7-.84.42-.56.62-1.33.62-2.32 0-.84-.19-1.5-.57-1.96-.39-.48-.91-.72-1.57-.72-.7 0-1.26.25-1.69.73-.42.49-.63 1.1-.63 1.83zm11.53-2.17a1.47 1.47 0 0 0-.91-.25c-.52 0-.94.25-1.29.73a3.35 3.35 0 0 0-.51 1.98V-3h-1.2v-7.5h1.2v1.55h.02c.18-.53.44-.94.79-1.24.35-.3.74-.44 1.18-.44.31 0 .55.03.72.1v1.25zm4.43 6.46c-1.1 0-1.99-.35-2.65-1.06a3.9 3.9 0 0 1-1-2.78c0-1.26.35-2.25 1.04-2.95a3.71 3.71 0 0 1 2.79-1.07c1.12 0 2 .35 2.62 1.04.63.69.94 1.64.94 2.86 0 1.2-.34 2.16-1.02 2.88a3.55 3.55 0 0 1-2.72 1.08zm.1-6.85c-.78 0-1.39.27-1.84.8a3.23 3.23 0 0 0-.67 2.16c0 .9.22 1.6.68 2.1.45.52 1.06.78 1.82.78a2.2 2.2 0 0 0 1.8-.76c.41-.5.62-1.22.62-2.15 0-.93-.21-1.66-.63-2.16a2.19 2.19 0 0 0-1.79-.77zm15-.83l-2.24 7.5h-1.25l-1.54-5.37a3.5 3.5 0 0 1-.12-.7h-.03c-.01.18-.07.4-.15.69L-144.53-3h-1.2l-2.27-7.5h1.26l1.55 5.64c.05.17.08.4.1.67h.06c.02-.21.06-.44.13-.68l1.73-5.63h1.1l1.55 5.65c.05.18.09.41.11.68h.06c.01-.2.05-.42.13-.68l1.52-5.65h1.19zm.94 7.23v-1.29c.66.48 1.38.73 2.16.73 1.06 0 1.59-.36 1.59-1.06 0-.2-.05-.37-.14-.5a1.35 1.35 0 0 0-.37-.38c-.15-.1-.33-.2-.54-.29l-.67-.27a8.63 8.63 0 0 1-.87-.4 2.64 2.64 0 0 1-.63-.45c-.17-.17-.3-.36-.38-.57a2.03 2.03 0 0 1-.13-.76c0-.35.08-.66.24-.93.16-.27.38-.5.64-.68a3 3 0 0 1 .92-.42 4.3 4.3 0 0 1 2.8.2l.01 1.22a3.4 3.4 0 0 0-2.5-.47c-.19.05-.35.13-.47.22a1 1 0 0 0-.3.33.88.88 0 0 0-.11.43c0 .2.03.36.1.49.08.13.18.25.32.35.13.1.3.2.5.28l.66.27c.33.13.63.26.9.4.26.13.48.28.67.45.18.17.33.36.43.58.1.22.15.48.15.78 0 .37-.08.7-.25.97-.16.27-.38.5-.65.68a3 3 0 0 1-.95.4c-.36.1-.73.14-1.12.14-.77 0-1.44-.15-2-.45zm7.44-9.13a.76.76 0 0 1-.78-.78c0-.23.08-.41.23-.56a.75.75 0 0 1 .55-.22.78.78 0 0 1 .79.78c0 .21-.08.4-.23.55a.77.77 0 0 1-.56.23zm.58 9.4h-1.2v-7.5h1.2V-3zm8.66 0h-1.2v-4.28c0-1.59-.58-2.39-1.74-2.39-.6 0-1.1.23-1.5.68-.39.45-.58 1.02-.58 1.71V-3h-1.2v-7.5h1.2v1.25h.03a2.7 2.7 0 0 1 2.46-1.43c.82 0 1.44.27 1.88.8.43.53.65 1.3.65 2.3V-3zm8.67-.6c0 2.75-1.32 4.13-3.96 4.13-.93 0-1.74-.18-2.43-.53v-1.2a5 5 0 0 0 2.42.7c1.84 0 2.76-.98 2.76-2.94v-.82h-.02a2.8 2.8 0 0 1-2.58 1.44c-.94 0-1.69-.34-2.26-1a4 4 0 0 1-.85-2.69c0-1.27.3-2.29.92-3.04a3.07 3.07 0 0 1 2.52-1.13c1 0 1.76.4 2.25 1.22h.02v-1.04h1.2v6.9zm-1.2-2.8v-1.1c0-.6-.2-1.1-.61-1.53-.4-.42-.9-.64-1.5-.64-.75 0-1.33.27-1.75.81-.42.54-.63 1.3-.63 2.27 0 .84.2 1.5.6 2 .4.5.94.76 1.6.76a2.1 2.1 0 0 0 1.65-.72c.42-.48.63-1.1.63-1.84zm13.1 3.4h-1.2v-1.17h-.03c-.52.9-1.29 1.35-2.3 1.35-.75 0-1.33-.2-1.76-.6-.42-.4-.63-.92-.63-1.57 0-1.4.82-2.22 2.48-2.45l2.24-.31c0-1.28-.51-1.92-1.54-1.92-.9 0-1.72.31-2.45.93v-1.23c.74-.47 1.59-.7 2.55-.7 1.76 0 2.64.93 2.64 2.8V-3zm-1.2-3.8l-1.8.26c-.56.07-.98.21-1.27.4-.28.2-.42.56-.42 1.06 0 .37.13.67.4.9.25.23.6.35 1.04.35.6 0 1.08-.21 1.47-.63.39-.42.58-.95.58-1.59v-.74zm9.7 3.8h-1.2v-4.28c0-1.59-.59-2.39-1.75-2.39-.6 0-1.1.23-1.5.68-.38.45-.58 1.02-.58 1.71V-3h-1.2v-7.5h1.2v1.25h.03a2.7 2.7 0 0 1 2.46-1.43c.82 0 1.45.27 1.88.8.44.53.65 1.3.65 2.3V-3zm8.66 0h-1.2v-1.27h-.03a2.77 2.77 0 0 1-2.58 1.45 2.8 2.8 0 0 1-2.26-1.01 4.13 4.13 0 0 1-.85-2.74c0-1.24.32-2.24.94-2.99a3.1 3.1 0 0 1 2.5-1.12c1.03 0 1.78.4 2.25 1.22h.03v-4.64h1.2V-3zm-1.2-3.4v-1.1c0-.6-.2-1.12-.6-1.54-.4-.42-.91-.63-1.53-.63-.73 0-1.3.27-1.73.81a3.53 3.53 0 0 0-.63 2.23c0 .86.2 1.54.6 2.04.41.5.95.76 1.63.76.67 0 1.21-.25 1.63-.73.42-.48.63-1.1.63-1.83zm8.97 2.32h-.03V.45h-1.2V-10.5h1.2v1.32h.03c.59-1 1.45-1.5 2.6-1.5.96 0 1.71.34 2.26 1.01.54.67.8 1.57.8 2.7 0 1.26-.3 2.26-.9 3.01a3.05 3.05 0 0 1-2.51 1.14 2.5 2.5 0 0 1-2.25-1.26zm-.03-3.03v1.05c0 .62.2 1.14.6 1.58a2 2 0 0 0 1.54.65c.73 0 1.3-.28 1.7-.84.42-.56.63-1.33.63-2.32 0-.84-.2-1.5-.58-1.96-.39-.48-.9-.72-1.57-.72-.7 0-1.26.25-1.68.73-.43.49-.64 1.1-.64 1.83zm13.64.66h-5.3c.03.84.25 1.48.68 1.93.43.46 1.02.69 1.78.69.84 0 1.62-.28 2.32-.84v1.13c-.65.48-1.53.72-2.61.72-1.06 0-1.9-.34-2.5-1.03-.6-.68-.9-1.64-.9-2.87a4.1 4.1 0 0 1 .99-2.85 3.18 3.18 0 0 1 2.46-1.1c.98 0 1.74.31 2.28.95.54.63.8 1.51.8 2.64v.63zm-1.23-1.02c0-.7-.17-1.23-.5-1.62a1.7 1.7 0 0 0-1.37-.58c-.57 0-1.05.2-1.44.61-.4.4-.64.94-.74 1.6h4.05zm6.96-1.81a1.47 1.47 0 0 0-.9-.25c-.52 0-.95.25-1.3.73a3.35 3.35 0 0 0-.5 1.98V-3h-1.2v-7.5h1.2v1.55h.02c.17-.53.43-.94.79-1.24.35-.3.74-.44 1.17-.44.32 0 .56.03.72.1v1.25zm.85 6v-1.28c.66.48 1.38.73 2.16.73 1.06 0 1.58-.36 1.58-1.06 0-.2-.04-.37-.13-.5a1.35 1.35 0 0 0-.37-.38c-.15-.1-.33-.2-.54-.29l-.67-.27a8.63 8.63 0 0 1-.87-.4 2.64 2.64 0 0 1-.63-.45c-.17-.17-.3-.36-.39-.57a2.03 2.03 0 0 1-.12-.76c0-.35.08-.66.24-.93.16-.27.37-.5.64-.68a3 3 0 0 1 .92-.42 4.3 4.3 0 0 1 2.8.2l.01 1.22a3.4 3.4 0 0 0-2.51-.47c-.18.05-.34.13-.47.22a1 1 0 0 0-.3.33.88.88 0 0 0-.1.43c0 .2.03.36.1.49s.18.25.31.35c.14.1.3.2.5.28l.67.27c.33.13.63.26.9.4.26.13.48.28.67.45.18.17.32.36.42.58.1.22.16.48.16.78 0 .37-.09.7-.25.97s-.38.5-.66.68a3 3 0 0 1-.94.4c-.36.1-.73.14-1.12.14-.77 0-1.44-.15-2-.45zm9.96.46c-1.11 0-2-.35-2.66-1.06a3.9 3.9 0 0 1-1-2.78c0-1.26.35-2.25 1.04-2.95a3.71 3.71 0 0 1 2.8-1.07c1.11 0 1.98.35 2.61 1.04.63.69.94 1.64.94 2.86 0 1.2-.34 2.16-1.01 2.88a3.55 3.55 0 0 1-2.72 1.08zm.08-6.85c-.77 0-1.38.27-1.83.8a3.23 3.23 0 0 0-.67 2.16c0 .9.23 1.6.68 2.1.45.52 1.06.78 1.82.78a2.2 2.2 0 0 0 1.8-.76c.41-.5.62-1.22.62-2.15 0-.93-.2-1.66-.63-2.16a2.19 2.19 0 0 0-1.79-.77zM-32.37-3h-1.2v-4.28c0-1.59-.59-2.39-1.75-2.39-.6 0-1.1.23-1.49.68-.4.45-.59 1.02-.59 1.71V-3h-1.2v-7.5h1.2v1.25h.03a2.7 2.7 0 0 1 2.46-1.43c.82 0 1.45.27 1.88.8.44.53.66 1.3.66 2.3V-3zm7.63 0h-1.2v-1.17h-.03c-.53.9-1.3 1.35-2.31 1.35-.75 0-1.33-.2-1.75-.6-.43-.4-.64-.92-.64-1.57 0-1.4.83-2.22 2.48-2.45l2.25-.31c0-1.28-.52-1.92-1.55-1.92-.9 0-1.72.31-2.45.93v-1.23c.74-.47 1.6-.7 2.55-.7 1.77 0 2.65.93 2.65 2.8V-3zm-1.2-3.8l-1.81.26c-.56.07-.98.21-1.26.4-.29.2-.43.56-.43 1.06 0 .37.13.67.4.9.26.23.6.35 1.04.35.6 0 1.09-.21 1.47-.63.4-.42.59-.95.59-1.59v-.74zm4.66 3.8h-1.2v-11.1h1.2V-3zm7.16-9.4a.76.76 0 0 1-.78-.78c0-.23.08-.41.23-.56a.75.75 0 0 1 .55-.22.78.78 0 0 1 .79.78c0 .21-.08.4-.23.55a.77.77 0 0 1-.56.23zm.58 9.4h-1.2v-7.5h1.2V-3zm8.66 0h-1.2v-4.28c0-1.59-.58-2.39-1.74-2.39-.6 0-1.1.23-1.5.68-.39.45-.58 1.02-.58 1.71V-3h-1.2v-7.5h1.2v1.25h.03a2.7 2.7 0 0 1 2.46-1.43c.82 0 1.44.27 1.88.8.43.53.65 1.3.65 2.3V-3zM1.1-13.05a1.6 1.6 0 0 0-.8-.2c-.84 0-1.26.53-1.26 1.6v1.15H.8v1.03H-.97V-3h-1.2v-6.47h-1.27v-1.03h1.28v-1.22c0-.78.22-1.4.68-1.86a2.3 2.3 0 0 1 1.7-.68c.36 0 .65.04.87.13v1.08zM5.21-2.82c-1.1 0-1.99-.35-2.65-1.06a3.9 3.9 0 0 1-1-2.78c0-1.26.35-2.25 1.04-2.95a3.71 3.71 0 0 1 2.79-1.07c1.12 0 1.99.35 2.62 1.04.63.69.94 1.64.94 2.86 0 1.2-.34 2.16-1.02 2.88a3.55 3.55 0 0 1-2.72 1.08zm.1-6.85c-.78 0-1.4.27-1.84.8a3.23 3.23 0 0 0-.67 2.16c0 .9.22 1.6.68 2.1.45.52 1.06.78 1.82.78a2.2 2.2 0 0 0 1.8-.76c.41-.5.62-1.22.62-2.15 0-.93-.21-1.66-.63-2.16a2.19 2.19 0 0 0-1.79-.77zm9.47.39a1.47 1.47 0 0 0-.9-.25c-.52 0-.95.25-1.3.73a3.35 3.35 0 0 0-.51 1.98V-3h-1.2v-7.5h1.2v1.55h.03c.17-.53.43-.94.78-1.24.35-.3.75-.44 1.18-.44.31 0 .55.03.72.1v1.25zM26.73-3h-1.2v-4.3c0-.84-.13-1.44-.38-1.8-.26-.38-.7-.57-1.3-.57-.5 0-.94.24-1.3.7a2.69 2.69 0 0 0-.54 1.7V-3h-1.2v-4.45c0-1.48-.57-2.22-1.71-2.22-.53 0-.96.23-1.3.67a2.74 2.74 0 0 0-.52 1.72V-3h-1.2v-7.5h1.2v1.19h.03c.54-.91 1.31-1.37 2.33-1.37a2.17 2.17 0 0 1 2.13 1.56 2.68 2.68 0 0 1 2.49-1.56c1.65 0 2.47 1.02 2.47 3.06V-3zm7.64 0h-1.2v-1.17h-.03c-.52.9-1.3 1.35-2.3 1.35-.75 0-1.34-.2-1.76-.6-.42-.4-.63-.92-.63-1.57 0-1.4.82-2.22 2.47-2.45l2.25-.31c0-1.28-.52-1.92-1.55-1.92-.9 0-1.71.31-2.44.93v-1.23c.74-.47 1.59-.7 2.55-.7 1.76 0 2.64.93 2.64 2.8V-3zm-1.2-3.8l-1.8.26c-.57.07-.99.21-1.27.4-.28.2-.42.56-.42 1.06 0 .37.13.67.39.9.26.23.6.35 1.04.35.6 0 1.09-.21 1.48-.63.39-.42.58-.95.58-1.59v-.74zm6.94 3.73c-.28.15-.65.23-1.12.23-1.31 0-1.97-.73-1.97-2.2v-4.43h-1.29v-1.03h1.3v-1.83l1.2-.39v2.22h1.88v1.03h-1.89v4.22c0 .5.09.86.26 1.08.17.21.45.32.85.32.3 0 .56-.08.78-.25v1.03zm2.22-9.33a.76.76 0 0 1-.77-.78.75.75 0 0 1 .78-.78.78.78 0 0 1 .78.78c0 .21-.07.4-.23.55a.77.77 0 0 1-.56.23zm.59 9.4h-1.2v-7.5h1.2V-3zm5.56.18c-1.1 0-1.99-.35-2.65-1.06a3.9 3.9 0 0 1-1-2.78c0-1.26.35-2.25 1.04-2.95a3.71 3.71 0 0 1 2.8-1.07c1.1 0 1.98.35 2.6 1.04.64.69.95 1.64.95 2.86 0 1.2-.34 2.16-1.01 2.88a3.55 3.55 0 0 1-2.73 1.08zm.1-6.85c-.78 0-1.39.27-1.84.8a3.23 3.23 0 0 0-.67 2.16c0 .9.22 1.6.68 2.1.45.52 1.06.78 1.82.78a2.2 2.2 0 0 0 1.8-.76c.41-.5.62-1.22.62-2.15 0-.93-.2-1.66-.63-2.16a2.19 2.19 0 0 0-1.79-.77zM60.35-3h-1.2v-4.28c0-1.59-.58-2.39-1.74-2.39-.6 0-1.1.23-1.49.68-.4.45-.59 1.02-.59 1.71V-3h-1.2v-7.5h1.2v1.25h.03a2.7 2.7 0 0 1 2.46-1.43c.82 0 1.45.27 1.88.8.44.53.65 1.3.65 2.3V-3zm2.69.16a.78.78 0 0 1-.58-.24.8.8 0 0 1-.24-.58.8.8 0 0 1 .24-.58.77.77 0 0 1 .58-.25.8.8 0 0 1 .58.25.8.8 0 0 1 .24.58c0 .23-.08.42-.24.58a.8.8 0 0 1-.58.24zm-224.99 17.6c0 2.94-1.33 4.42-4 4.42-2.54 0-3.81-1.42-3.81-4.26V8.5h1.23v6.34c0 2.15.9 3.23 2.72 3.23 1.75 0 2.63-1.04 2.63-3.12V8.5h1.23v6.25zm2 3.97v-1.29c.66.48 1.38.73 2.17.73 1.05 0 1.58-.36 1.58-1.06 0-.2-.05-.37-.14-.5a1.35 1.35 0 0 0-.36-.38c-.16-.1-.34-.2-.54-.29l-.67-.27a8.63 8.63 0 0 1-.88-.4 2.64 2.64 0 0 1-.63-.45c-.17-.17-.3-.36-.38-.57a2.03 2.03 0 0 1-.13-.76c0-.35.08-.66.24-.93.16-.27.38-.5.65-.68a3 3 0 0 1 .92-.42 4.3 4.3 0 0 1 2.8.2v1.22a3.4 3.4 0 0 0-2.5-.47c-.19.05-.34.13-.47.22a1 1 0 0 0-.3.33.88.88 0 0 0-.1.43c0 .2.03.36.1.49s.17.25.3.35c.15.1.31.2.5.28l.67.27c.34.13.63.26.9.4.26.13.49.28.67.45.19.17.33.36.43.58.1.22.15.48.15.78 0 .37-.08.7-.25.97-.16.27-.38.5-.65.68a3 3 0 0 1-.95.4c-.35.1-.73.14-1.12.14-.77 0-1.44-.15-2-.45zm12.85-3.18h-5.3c.03.84.25 1.48.68 1.93.43.46 1.02.69 1.77.69.85 0 1.63-.28 2.33-.84v1.13c-.66.48-1.53.72-2.61.72-1.06 0-1.9-.34-2.5-1.03-.6-.68-.9-1.64-.9-2.87a4.1 4.1 0 0 1 .99-2.85 3.18 3.18 0 0 1 2.46-1.1c.98 0 1.74.31 2.28.95.54.63.8 1.51.8 2.64v.63zm-1.23-1.02c0-.7-.17-1.23-.5-1.62a1.7 1.7 0 0 0-1.37-.58c-.57 0-1.05.2-1.44.61-.4.4-.64.94-.74 1.6h4.05zm13.53-4.92h-3.03V19h-1.23V9.61h-3.03V8.5h7.3V9.6zm5.4 3.1a1.47 1.47 0 0 0-.9-.24c-.52 0-.95.25-1.3.73a3.35 3.35 0 0 0-.51 1.98V19h-1.2v-7.5h1.2v1.55h.03c.17-.53.43-.94.78-1.24.35-.3.75-.44 1.18-.44.31 0 .55.03.72.1v1.25zm6.67 6.29h-1.2v-1.17h-.03c-.52.9-1.3 1.35-2.3 1.35-.75 0-1.34-.2-1.76-.6-.42-.4-.63-.92-.63-1.57 0-1.4.82-2.22 2.47-2.45l2.25-.31c0-1.28-.52-1.92-1.55-1.92-.9 0-1.71.31-2.44.93v-1.23c.74-.47 1.59-.7 2.55-.7 1.76 0 2.64.93 2.64 2.8V19zm-1.2-3.8l-1.8.26c-.57.07-.99.21-1.27.4-.28.2-.42.56-.42 1.06 0 .37.13.67.39.9.26.23.6.35 1.04.35.6 0 1.09-.21 1.48-.63.39-.42.58-.95.58-1.59v-.74zm8.58 3.46a3.9 3.9 0 0 1-2.05.52 3.4 3.4 0 0 1-2.6-1.05c-.65-.7-.98-1.6-.98-2.7 0-1.24.36-2.23 1.06-2.98a3.72 3.72 0 0 1 2.84-1.13c.66 0 1.24.13 1.74.37v1.23a3.05 3.05 0 0 0-1.79-.59c-.76 0-1.4.28-1.88.83-.5.55-.74 1.27-.74 2.16 0 .88.23 1.58.7 2.08.46.51 1.07.77 1.85.77.66 0 1.27-.22 1.85-.66v1.15zm8.04.34H-109l-3.3-3.6h-.04V19h-1.2V7.9h1.2v7.04h.03l3.15-3.44h1.58l-3.48 3.62 3.75 3.88zm1.84-9.4a.76.76 0 0 1-.77-.78c0-.23.07-.41.23-.56a.75.75 0 0 1 .54-.22.78.78 0 0 1 .8.78c0 .21-.08.4-.24.55a.77.77 0 0 1-.56.23zm.59 9.4h-1.2v-7.5h1.2V19zm8.66 0h-1.2v-4.28c0-1.59-.58-2.39-1.75-2.39-.6 0-1.1.23-1.49.68-.39.45-.59 1.02-.59 1.71V19h-1.2v-7.5h1.2v1.25h.03a2.7 2.7 0 0 1 2.46-1.43c.82 0 1.45.27 1.89.8.43.53.65 1.3.65 2.3V19zm8.66-.6c0 2.75-1.32 4.13-3.95 4.13-.93 0-1.74-.18-2.43-.53v-1.2a5 5 0 0 0 2.41.7c1.85 0 2.77-.98 2.77-2.94v-.82h-.03a2.8 2.8 0 0 1-2.58 1.44c-.93 0-1.68-.34-2.25-1a4 4 0 0 1-.85-2.69c0-1.27.3-2.29.92-3.04a3.07 3.07 0 0 1 2.51-1.13c1.01 0 1.76.4 2.25 1.22h.03V11.5h1.2v6.9zm-1.2-2.8v-1.1c0-.6-.2-1.1-.6-1.53-.4-.42-.9-.64-1.5-.64-.75 0-1.33.27-1.75.81-.42.54-.63 1.3-.63 2.27 0 .84.2 1.5.6 2 .4.5.94.76 1.6.76a2.1 2.1 0 0 0 1.65-.72c.42-.48.63-1.1.63-1.84zm9.13-.57V19h-1.23V8.5h2.89c1.12 0 2 .27 2.61.82.62.54.93 1.32.93 2.31 0 1-.35 1.81-1.03 2.45-.69.63-1.61.95-2.78.95h-1.39zm0-5.42v4.3h1.3c.84 0 1.5-.19 1.94-.58.44-.38.67-.93.67-1.64 0-1.39-.82-2.08-2.46-2.08h-1.45zm10.92 3.1a1.47 1.47 0 0 0-.9-.24c-.52 0-.94.25-1.29.73a3.35 3.35 0 0 0-.52 1.98V19h-1.2v-7.5h1.2v1.55h.03c.17-.53.44-.94.79-1.24.35-.3.74-.44 1.18-.44.3 0 .55.03.71.1v1.25zm4.44 6.47c-1.1 0-1.99-.35-2.65-1.06a3.9 3.9 0 0 1-1-2.78c0-1.26.35-2.25 1.04-2.95a3.71 3.71 0 0 1 2.79-1.07c1.12 0 1.99.35 2.62 1.04.62.69.94 1.64.94 2.86 0 1.2-.34 2.16-1.02 2.88a3.55 3.55 0 0 1-2.72 1.08zm.1-6.85c-.78 0-1.4.27-1.84.8a3.23 3.23 0 0 0-.67 2.16c0 .9.22 1.6.68 2.1.45.52 1.06.78 1.82.78a2.2 2.2 0 0 0 1.8-.76c.4-.5.62-1.22.62-2.15 0-.93-.21-1.66-.63-2.16a2.19 2.19 0 0 0-1.79-.77zm9.04 6.6c-.29.15-.66.23-1.12.23-1.32 0-1.97-.73-1.97-2.2v-4.43h-1.3V11.5h1.3V9.67l1.2-.39v2.22h1.89v1.03h-1.9v4.22c0 .5.1.86.26 1.08.17.21.46.32.85.32.3 0 .57-.08.79-.25v1.03zm7.63-3.38h-5.3c.02.84.25 1.48.68 1.93.43.46 1.02.69 1.77.69.84 0 1.62-.28 2.33-.84v1.13c-.66.48-1.53.72-2.62.72-1.06 0-1.89-.34-2.5-1.03-.6-.68-.9-1.64-.9-2.87a4.1 4.1 0 0 1 .99-2.85 3.18 3.18 0 0 1 2.46-1.1c.99 0 1.75.31 2.28.95.54.63.8 1.51.8 2.64v.63zm-1.23-1.02c0-.7-.17-1.23-.5-1.62a1.7 1.7 0 0 0-1.38-.58c-.56 0-1.04.2-1.44.61-.4.4-.64.94-.73 1.6h4.05zm8.16 4.13a3.9 3.9 0 0 1-2.05.52 3.4 3.4 0 0 1-2.6-1.05c-.65-.7-.98-1.6-.98-2.7 0-1.24.36-2.23 1.06-2.98a3.72 3.72 0 0 1 2.84-1.13c.66 0 1.24.13 1.74.37v1.23a3.05 3.05 0 0 0-1.79-.59c-.76 0-1.4.28-1.88.83-.5.55-.74 1.27-.74 2.16 0 .88.23 1.58.7 2.08.46.51 1.07.77 1.85.77.66 0 1.27-.22 1.85-.66v1.15zm5.3.27c-.3.15-.66.23-1.13.23-1.31 0-1.97-.73-1.97-2.2v-4.43h-1.29V11.5h1.3V9.67l1.2-.39v2.22h1.88v1.03h-1.89v4.22c0 .5.09.86.26 1.08.17.21.45.32.85.32.3 0 .56-.08.78-.25v1.03zm2.21-9.33a.76.76 0 0 1-.77-.78.75.75 0 0 1 .78-.78.78.78 0 0 1 .78.78c0 .21-.07.4-.23.55a.77.77 0 0 1-.56.23zm.59 9.4h-1.2v-7.5h1.2V19zm5.56.18c-1.1 0-1.99-.35-2.65-1.06a3.9 3.9 0 0 1-1-2.78c0-1.26.35-2.25 1.04-2.95a3.71 3.71 0 0 1 2.79-1.07c1.12 0 2 .35 2.62 1.04.63.69.94 1.64.94 2.86 0 1.2-.34 2.16-1.02 2.88a3.55 3.55 0 0 1-2.72 1.08zm.1-6.85c-.78 0-1.39.27-1.84.8a3.23 3.23 0 0 0-.67 2.16c0 .9.22 1.6.68 2.1.45.52 1.06.78 1.82.78a2.2 2.2 0 0 0 1.8-.76c.41-.5.62-1.22.62-2.15 0-.93-.21-1.66-.63-2.16a2.19 2.19 0 0 0-1.79-.77zM-15.03 19h-1.2v-4.28c0-1.59-.58-2.39-1.74-2.39-.6 0-1.1.23-1.5.68-.38.45-.58 1.02-.58 1.71V19h-1.2v-7.5h1.2v1.25h.03a2.7 2.7 0 0 1 2.46-1.43c.82 0 1.45.27 1.88.8.44.53.65 1.3.65 2.3V19zm9.85-.07c-.28.15-.65.23-1.12.23-1.3 0-1.97-.73-1.97-2.2v-4.43h-1.28V11.5h1.28V9.67l1.2-.39v2.22h1.9v1.03h-1.9v4.22c0 .5.1.86.26 1.08.17.21.46.32.85.32.3 0 .57-.08.78-.25v1.03zm4.74.25c-1.1 0-1.99-.35-2.65-1.06a3.9 3.9 0 0 1-1-2.78c0-1.26.35-2.25 1.04-2.95a3.71 3.71 0 0 1 2.79-1.07c1.12 0 1.99.35 2.62 1.04.63.69.94 1.64.94 2.86 0 1.2-.34 2.16-1.02 2.88a3.55 3.55 0 0 1-2.72 1.08zm.1-6.85c-.78 0-1.39.27-1.84.8a3.23 3.23 0 0 0-.67 2.16c0 .9.22 1.6.68 2.1.45.52 1.06.78 1.82.78a2.2 2.2 0 0 0 1.8-.76c.41-.5.62-1.22.62-2.15 0-.93-.21-1.66-.63-2.16a2.19 2.19 0 0 0-1.79-.77zm10.9 5.59h-.03V19h-1.2V7.9h1.2v4.92h.03c.59-1 1.45-1.5 2.59-1.5.96 0 1.72.34 2.26 1.01.54.67.82 1.57.82 2.7 0 1.26-.3 2.26-.92 3.01a3.05 3.05 0 0 1-2.5 1.14c-1 0-1.74-.42-2.25-1.26zm-.03-3.03v1.05c0 .62.2 1.14.6 1.58a2 2 0 0 0 1.54.65c.72 0 1.3-.28 1.7-.84.42-.56.63-1.33.63-2.32 0-.84-.2-1.5-.58-1.96-.39-.48-.91-.72-1.57-.72-.7 0-1.26.25-1.68.73-.43.49-.64 1.1-.64 1.83zM19.36 19h-1.2V7.9h1.2V19zm5.56.18c-1.1 0-2-.35-2.65-1.06a3.9 3.9 0 0 1-1-2.78c0-1.26.35-2.25 1.04-2.95a3.71 3.71 0 0 1 2.79-1.07c1.12 0 1.99.35 2.62 1.04.62.69.94 1.64.94 2.86 0 1.2-.34 2.16-1.02 2.88a3.55 3.55 0 0 1-2.72 1.08zm.1-6.85c-.78 0-1.4.27-1.84.8a3.23 3.23 0 0 0-.67 2.16c0 .9.22 1.6.68 2.1.45.52 1.06.78 1.82.78a2.2 2.2 0 0 0 1.8-.76c.4-.5.62-1.22.62-2.15 0-.93-.21-1.66-.63-2.16a2.19 2.19 0 0 0-1.79-.77zm10.67 6.33a3.9 3.9 0 0 1-2.05.52 3.4 3.4 0 0 1-2.59-1.05c-.66-.7-.99-1.6-.99-2.7 0-1.24.36-2.23 1.07-2.98a3.72 3.72 0 0 1 2.83-1.13c.66 0 1.24.13 1.74.37v1.23a3.05 3.05 0 0 0-1.78-.59c-.77 0-1.4.28-1.89.83-.49.55-.74 1.27-.74 2.16 0 .88.24 1.58.7 2.08.46.51 1.08.77 1.85.77.66 0 1.27-.22 1.85-.66v1.15zm8.04.34h-1.68l-3.31-3.6h-.03V19h-1.2V7.9h1.2v7.04h.03l3.15-3.44h1.57l-3.48 3.62L43.73 19zm11.57 0H53.6l-3.3-3.6h-.04V19h-1.2V7.9h1.2v7.04h.03l3.15-3.44h1.58l-3.48 3.62L55.3 19zm7.45 0h-1.2v-4.28c0-1.59-.58-2.39-1.74-2.39-.6 0-1.1.23-1.5.68-.39.45-.58 1.02-.58 1.71V19h-1.2v-7.5h1.2v1.25h.03a2.7 2.7 0 0 1 2.46-1.43c.82 0 1.45.27 1.88.8.44.53.65 1.3.65 2.3V19zm5.4.18c-1.1 0-2-.35-2.65-1.06a3.9 3.9 0 0 1-1-2.78c0-1.26.35-2.25 1.04-2.95a3.71 3.71 0 0 1 2.79-1.07c1.11 0 1.99.35 2.61 1.04.63.69.95 1.64.95 2.86 0 1.2-.34 2.16-1.02 2.88a3.55 3.55 0 0 1-2.72 1.08zm.09-6.85c-.77 0-1.38.27-1.83.8a3.23 3.23 0 0 0-.68 2.16c0 .9.23 1.6.68 2.1.46.52 1.07.78 1.83.78a2.2 2.2 0 0 0 1.79-.76c.42-.5.63-1.22.63-2.15 0-.93-.21-1.66-.63-2.16a2.19 2.19 0 0 0-1.8-.77zm15.01-.83L81 19h-1.24l-1.55-5.37a3.5 3.5 0 0 1-.11-.7h-.03c-.02.18-.07.4-.16.69L76.24 19h-1.2l-2.28-7.5h1.26l1.56 5.64c.05.17.08.4.1.67h.06c.01-.21.06-.44.13-.68l1.73-5.63h1.1l1.55 5.65c.05.18.09.41.11.68h.06c0-.2.05-.42.12-.68l1.53-5.65h1.18zm7.62 7.5h-1.2v-4.28c0-1.59-.58-2.39-1.74-2.39-.6 0-1.1.23-1.5.68-.39.45-.58 1.02-.58 1.71V19h-1.2v-7.5h1.2v1.25h.03a2.7 2.7 0 0 1 2.46-1.43c.82 0 1.44.27 1.88.8.43.53.65 1.3.65 2.3V19zm9.85-.07c-.28.15-.66.23-1.12.23-1.31 0-1.97-.73-1.97-2.2v-4.43h-1.29V11.5h1.29V9.67l1.2-.39v2.22h1.9v1.03h-1.9v4.22c0 .5.09.86.26 1.08.17.21.45.32.85.32.3 0 .56-.08.78-.25v1.03zm5.52-6.21a1.47 1.47 0 0 0-.91-.25c-.51 0-.94.25-1.29.73a3.35 3.35 0 0 0-.51 1.98V19h-1.2v-7.5h1.2v1.55h.03c.17-.53.43-.94.78-1.24.35-.3.74-.44 1.18-.44.31 0 .55.03.72.1v1.25zM112.9 19h-1.2v-1.17h-.03c-.52.9-1.3 1.35-2.3 1.35-.76 0-1.34-.2-1.76-.6-.43-.4-.64-.92-.64-1.57 0-1.4.83-2.22 2.48-2.45l2.25-.31c0-1.28-.52-1.92-1.55-1.92-.9 0-1.72.31-2.44.93v-1.23c.73-.47 1.58-.7 2.54-.7 1.77 0 2.65.93 2.65 2.8V19zm-1.2-3.8l-1.81.26c-.56.07-.98.21-1.26.4-.28.2-.43.56-.43 1.06 0 .37.13.67.4.9.26.23.6.35 1.04.35.6 0 1.09-.21 1.48-.63.38-.42.58-.95.58-1.59v-.74zm8.57 3.46a3.9 3.9 0 0 1-2.05.52 3.4 3.4 0 0 1-2.59-1.05c-.65-.7-.98-1.6-.98-2.7 0-1.24.35-2.23 1.06-2.98a3.72 3.72 0 0 1 2.84-1.13c.65 0 1.24.13 1.74.37v1.23a3.05 3.05 0 0 0-1.79-.59c-.76 0-1.4.28-1.88.83-.5.55-.74 1.27-.74 2.16 0 .88.23 1.58.7 2.08.45.51 1.07.77 1.85.77.65 0 1.27-.22 1.84-.66v1.15zm8.05.34h-1.69l-3.3-3.6h-.04V19h-1.2V7.9h1.2v7.04h.03l3.15-3.44h1.58l-3.48 3.62 3.75 3.88zm7.25-3.45h-5.3c.03.84.25 1.48.68 1.93.43.46 1.02.69 1.78.69.84 0 1.62-.28 2.32-.84v1.13c-.65.48-1.53.72-2.61.72-1.06 0-1.9-.34-2.5-1.03-.6-.68-.9-1.64-.9-2.87a4.1 4.1 0 0 1 .99-2.85 3.18 3.18 0 0 1 2.46-1.1c.98 0 1.74.31 2.28.95.54.63.8 1.51.8 2.64v.63zm-1.23-1.02c0-.7-.17-1.23-.5-1.62a1.7 1.7 0 0 0-1.37-.58c-.57 0-1.05.2-1.44.61-.4.4-.64.94-.74 1.6h4.05zm6.96-1.81a1.47 1.47 0 0 0-.9-.25c-.52 0-.95.25-1.3.73a3.35 3.35 0 0 0-.5 1.98V19h-1.2v-7.5h1.2v1.55h.02c.17-.53.43-.94.79-1.24.35-.3.74-.44 1.17-.44.32 0 .56.03.72.1v1.25zm.85 6v-1.28c.66.48 1.38.73 2.16.73 1.06 0 1.58-.36 1.58-1.06 0-.2-.04-.37-.13-.5a1.35 1.35 0 0 0-.37-.38c-.15-.1-.33-.2-.54-.29l-.67-.27a8.63 8.63 0 0 1-.87-.4 2.64 2.64 0 0 1-.63-.45c-.17-.17-.3-.36-.39-.57a2.03 2.03 0 0 1-.12-.76c0-.35.08-.66.24-.93.16-.27.37-.5.64-.68a3 3 0 0 1 .92-.42 4.3 4.3 0 0 1 2.8.2l.01 1.22a3.4 3.4 0 0 0-2.51-.47c-.18.05-.34.13-.47.22a1 1 0 0 0-.3.33.88.88 0 0 0-.1.43c0 .2.03.36.1.49s.18.25.31.35c.14.1.3.2.5.28l.67.27c.33.13.63.26.9.4.26.13.48.28.67.45.18.17.32.36.42.58.1.22.15.48.15.78 0 .37-.08.7-.24.97-.16.27-.38.5-.66.68a3 3 0 0 1-.94.4c-.36.1-.73.14-1.12.14-.77 0-1.44-.15-2-.45z" mask="url(#b)"/></g></g></svg>