<svg xmlns="http://www.w3.org/2000/svg" width="360" height="240" viewBox="0 0 360 240">
  <g fill="#294B7D">
    <path d="M100.850968 159.934194C94.376129 159.934194 89.6664516 158.800645 86.7232258 156.532903 83.78 154.266452 82.3083871 150.226452 82.3083871 144.412903L82.3083871 134.203226C82.3083871 128.987742 80.2483871 126.380645 76.1270968 126.380645L76.1270968 118.433548C80.2483871 118.433548 82.3083871 115.647097 82.3083871 110.072258L82.3083871 100.317419C82.3083871 94.3109677 83.763871 90.0890323 86.6748387 87.6529032 89.5858065 85.2141935 94.3116129 83.9954839 100.851613 83.9954839L100.851613 91.9432258C96.1425806 91.9432258 93.7877419 94.4954839 93.7877419 99.6006452L93.7877419 108.983226C93.7877419 116.027742 91.4335484 120.475484 86.723871 122.325161L86.723871 122.489677C91.4335484 124.256129 93.7877419 128.62129 93.7877419 135.583226L93.7877419 144.316774C93.7877419 147.103871 94.34 149.07871 95.443871 150.243226 96.5470968 151.406452 98.3503226 151.987097 100.851613 151.987097L100.851613 159.934194M122.043226 130.450968C122.043226 132.29871 122.503226 133.70129 123.423226 134.658065 124.342581 135.614839 125.575484 136.094194 127.12 136.094194 127.893548 136.094194 128.665806 136.023226 129.438065 135.88 130.210968 135.736774 130.983226 135.592903 131.755484 135.445806L131.755484 145.199355C130.118065 145.632258 128.385161 145.988387 126.554839 146.268387 124.724516 146.549677 122.82 146.689032 120.842581 146.689032 119.029677 146.689032 117.381935 146.387742 115.896129 145.785806 114.410323 145.183871 113.143226 144.316774 112.094194 143.185806 111.045806 142.053548 110.234194 140.687742 109.659355 139.087742 109.084516 137.487097 108.797419 135.685161 108.797419 133.679355L108.797419 80.463871 122.042581 80.463871 122.042581 130.450968M164.427742 119.316129C164.427742 113.429677 161.911613 110.486452 156.88129 110.486452 154.737419 110.486452 152.881935 111.329677 151.314194 113.017419 149.746452 114.705161 148.790968 116.805161 148.450968 119.316129L164.427742 119.316129zM176.789677 127.263871L148.533548 127.263871C148.993548 133.738065 152.99871 136.976774 160.550323 136.976774 165.370968 136.976774 169.606452 135.726452 173.258065 133.223871L173.258065 143.323871C169.22 145.567742 163.977419 146.689677 157.529032 146.689677 150.483871 146.689677 145.015484 144.730968 141.124516 140.812903 137.234194 136.894194 135.288387 131.430323 135.288387 124.421935 135.288387 117.146452 137.377419 111.385806 141.552258 107.14129 145.729032 102.896129 150.860645 100.774194 156.950323 100.774194 163.269032 100.774194 168.155484 102.647742 171.609032 106.395484 175.062581 110.143871 176.790323 115.227742 176.790323 121.648387L176.790323 127.263871 176.789677 127.263871zM182.087742 144.26129L182.087742 132.34C184.340645 133.903871 186.588387 135.067097 188.827742 135.830968 191.067097 136.594194 193.185161 136.975484 195.181935 136.975484 197.609677 136.975484 199.524516 136.690968 200.927742 136.120645 202.330968 135.550323 203.031613 134.685806 203.031613 133.525806 203.031613 132.671613 202.714194 131.958065 202.079355 131.388387 201.444516 130.818065 200.628387 130.319355 199.630323 129.891613 198.632258 129.463871 197.54 129.079355 196.353548 128.74 195.167097 128.399355 194.027097 128.013548 192.931613 127.58 191.166452 126.927097 189.611613 126.222581 188.267742 125.461935 186.925161 124.703226 185.798065 123.825806 184.888387 122.827742 183.977419 121.829677 183.283226 120.675484 182.805161 119.363871 182.327097 118.054194 182.087742 116.500645 182.087742 114.707742 182.087742 112.26129 182.63871 110.152903 183.736129 108.381935 184.836129 106.610968 186.298065 105.164516 188.123871 104.043226 189.950323 102.92 192.042581 102.094839 194.400645 101.566452 196.76129 101.037419 199.214194 100.773548 201.761935 100.773548 203.748387 100.773548 205.768387 100.927097 207.81871 101.234839 209.870323 101.543226 211.889032 101.991613 213.876129 102.580645L213.876129 113.356129C212.091613 112.399355 210.179355 111.681935 208.136774 111.203871 206.095484 110.725161 204.090968 110.486452 202.12129 110.486452 201.202581 110.486452 200.333548 110.552903 199.514194 110.686452 198.695484 110.82 197.972903 111.014839 197.348387 111.271613 196.723226 111.530323 196.231613 111.86129 195.872903 112.265806 195.513548 112.671613 195.334194 113.130323 195.334194 113.645806 195.334194 114.445806 195.59871 115.130968 196.127097 115.701935 196.656129 116.272258 197.344516 116.764516 198.189677 117.178065 199.036129 117.592258 199.978065 117.962581 201.017419 118.288387 202.056774 118.615484 203.087742 118.948387 204.109032 119.289032 205.956774 119.914839 207.629677 120.598065 209.123871 121.338065 210.618065 122.07871 211.899355 122.947742 212.966452 123.945806 214.032903 124.943226 214.851613 126.114839 215.421935 127.457419 215.992258 128.799355 216.276774 130.396129 216.276774 132.245806 216.276774 134.839355 215.704516 137.052903 214.559355 138.887742 213.414194 140.723871 211.892903 142.218065 209.992903 143.372258 208.092903 144.526452 205.905161 145.368387 203.425161 145.896129 200.945806 146.425161 198.372903 146.689677 195.705806 146.689677 190.801935 146.689032 186.263226 145.88 182.087742 144.26129M220.939355 144.26129L220.939355 132.34C223.192903 133.903871 225.440645 135.067097 227.67871 135.830968 229.919355 136.594194 232.036774 136.975484 234.032903 136.975484 236.460645 136.975484 238.377419 136.690968 239.78 136.120645 241.18129 135.550323 241.883871 134.685806 241.883871 133.525806 241.883871 132.671613 241.566452 131.958065 240.930968 131.388387 240.295484 130.81871 239.48129 130.319355 238.483226 129.891613 237.485161 129.463871 236.391613 129.079355 235.205161 128.74 234.01871 128.399355 232.87871 128.013548 231.783871 127.58 230.018065 126.927097 228.463226 126.222581 227.12 125.461935 225.778065 124.703226 224.650323 123.825806 223.74 122.827742 222.830323 121.829677 222.135484 120.675484 221.657419 119.363871 221.17871 118.054194 220.939355 116.500645 220.939355 114.707742 220.939355 112.26129 221.489032 110.152903 222.588387 108.381935 223.687742 106.610968 225.149677 105.164516 226.976129 104.043226 228.802581 102.92 230.894839 102.094839 233.252903 101.566452 235.613548 101.037419 238.066452 100.773548 240.613548 100.773548 242.60129 100.773548 244.620645 100.927097 246.670323 101.234839 248.721935 101.543226 250.741935 101.991613 252.727742 102.580645L252.727742 113.356129C250.943226 112.399355 249.031613 111.681935 246.988387 111.203871 244.947097 110.725161 242.94129 110.486452 240.974194 110.486452 240.054839 110.486452 239.185161 110.552903 238.366452 110.686452 237.547742 110.82 236.825806 111.014839 236.20129 111.271613 235.574194 111.530323 235.082581 111.86129 234.724516 112.265806 234.364516 112.671613 234.186452 113.130323 234.186452 113.645806 234.186452 114.445806 234.450323 115.130968 234.979355 115.701935 235.508387 116.272258 236.196129 116.764516 237.042581 117.178065 237.887742 117.592258 238.830323 117.962581 239.870323 118.288387 240.908387 118.615484 241.94 118.948387 242.96129 119.289032 244.809677 119.914839 246.48129 120.598065 247.976129 121.338065 249.469677 122.07871 250.750323 122.947742 251.81871 123.945806 252.885161 124.943226 253.703871 126.114839 254.273548 127.457419 254.845161 128.799355 255.128387 130.396129 255.128387 132.245806 255.128387 134.839355 254.555484 137.052903 253.411613 138.887742 252.265806 140.723871 250.743226 142.218065 248.845161 143.372258 246.945161 144.526452 244.755484 145.368387 242.277419 145.896129 239.797419 146.425161 237.225161 146.689677 234.557419 146.689677 229.654839 146.689032 225.116129 145.88 220.939355 144.26129M284.516774 126.380645C280.394839 126.380645 278.335484 129.029677 278.335484 134.327742L278.335484 144.150968C278.335484 150.13871 276.949677 154.267097 274.175484 156.532903 271.401935 158.80129 266.902581 159.934194 260.676129 159.934194L260.676129 151.986452C263.149032 151.986452 264.945161 151.411613 266.062581 150.262581 267.179355 149.112903 267.739355 147.15871 267.739355 144.399355L267.739355 135.32C267.739355 128.532258 269.799355 124.287742 273.920645 122.585806L273.920645 122.407097C269.799355 120.55871 267.739355 115.963871 267.739355 108.624516L267.739355 99.6C267.739355 94.4948387 265.384516 91.9425806 260.676774 91.9425806L260.676774 83.9948387C266.876129 83.9948387 271.368387 85.2135484 274.156129 87.6522581 276.943226 90.0883871 278.336129 94.2516129 278.336129 100.138065L278.336129 110.168387C278.336129 115.677419 280.395484 118.432903 284.517419 118.432903L284.517419 126.380645"/>
  </g>
</svg>
