<svg xmlns="http://www.w3.org/2000/svg" width="360" height="240" viewBox="0 0 360 240">
  <path fill="#CD6799" d="M227.844808,127.42281 C223.180299,127.448869 219.1412,128.569393 215.753568,130.237151 C214.50275,127.761573 213.251932,125.598701 213.043462,123.983061 C212.808934,122.106834 212.522288,120.960251 212.808934,118.719202 C213.095579,116.478153 214.398515,113.298991 214.398515,113.038403 C214.372456,112.803875 214.111869,111.657292 211.427822,111.631233 C208.743775,111.605175 206.42455,112.152407 206.163963,112.855992 C205.903376,113.559578 205.382202,115.175218 205.043439,116.842975 C204.574382,119.292493 199.675345,127.970043 196.887063,132.530317 C195.975008,130.758325 195.193247,129.194802 195.036895,127.943984 C194.802366,126.067757 194.515721,124.921174 194.802366,122.680125 C195.089012,120.439077 196.391948,117.259914 196.391948,116.999327 C196.365889,116.764799 196.105302,115.618216 193.421255,115.592157 C190.737208,115.566098 188.417983,116.113331 188.157396,116.816916 C187.896809,117.520501 187.610163,119.188259 187.036871,120.803898 C186.489639,122.419538 179.974962,136.90818 178.281146,140.686693 C177.421208,142.615037 176.665506,144.152501 176.118273,145.194849 C175.57104,146.237197 176.092214,145.273025 176.040097,145.37726 C175.57104,146.263256 175.310453,146.758372 175.310453,146.758372 L175.310453,146.78443 C174.945631,147.435898 174.55475,148.061307 174.372339,148.061307 C174.242046,148.061307 173.981459,146.315374 174.424457,143.917972 C175.388629,138.888642 177.733913,131.044971 177.707854,130.758325 C177.707854,130.628031 178.150852,129.24692 176.196449,128.543335 C174.294163,127.83975 173.616637,129.012391 173.460285,129.012391 C173.303932,129.012391 173.173639,129.429331 173.173639,129.429331 C173.173639,129.429331 175.284394,120.595429 169.134539,120.595429 C165.27785,120.595429 159.961874,124.790881 157.329944,128.621511 C155.662187,129.533566 152.118203,131.46191 148.365749,133.520548 C146.93252,134.302309 145.447173,135.136188 144.040003,135.89189 L143.753357,135.579186 C136.300567,127.63128 122.51551,122.002599 123.088802,111.318529 C123.297272,107.435781 124.652324,97.194709 149.564449,84.790764 C169.968418,74.6278678 186.307228,77.4161496 189.147627,83.6181221 C193.186727,92.4780828 180.41796,108.947186 159.206171,111.318529 C151.127972,112.230583 146.880402,109.103539 145.811995,107.930897 C144.691471,106.706137 144.535119,106.65402 144.118179,106.888548 C143.440653,107.25337 143.857592,108.347836 144.118179,108.999304 C144.743588,110.641002 147.349459,113.559578 151.77944,115.018865 C155.662187,116.295742 165.147557,116.999327 176.613388,112.569347 C189.460331,107.592133 199.492934,93.7810182 196.5483,82.2370106 C193.551548,70.4845333 174.059635,66.6278445 155.636128,73.1685802 C144.665412,77.0773864 132.782641,83.1751241 124.235385,91.1751474 C114.072489,100.660517 112.456849,108.947186 113.134376,112.386936 C115.505718,124.660587 132.417819,132.660611 139.193084,138.575937 C138.85432,138.758348 138.541616,138.940759 138.25497,139.097111 C134.867338,140.764869 121.968278,147.514074 118.736998,154.65416 C115.088779,162.73236 119.310289,168.543452 122.12463,169.325213 C130.828238,171.748673 139.740316,167.396868 144.561177,160.230724 C149.35598,153.064579 148.782688,143.76162 146.567698,139.514051 L146.489522,139.357699 L149.14751,137.794176 C150.867385,136.777886 152.561201,135.839773 154.046547,135.031953 C153.212668,137.299061 152.613318,139.983108 152.300614,143.891914 C151.935792,148.478246 153.812019,154.419632 156.287596,156.764915 C157.382062,157.781205 158.684997,157.807264 159.492817,157.807264 C162.359275,157.807264 163.66221,155.435921 165.095439,152.595522 C166.867431,149.129714 168.430954,145.116673 168.430954,145.116673 C168.430954,145.116673 166.476551,155.983154 171.818586,155.983154 C173.772989,155.983154 175.727392,153.45546 176.613388,152.152524 L176.613388,152.178583 C176.613388,152.178583 176.665506,152.100407 176.769741,151.917996 C176.97821,151.605291 177.082445,151.42288 177.082445,151.42288 L177.082445,151.370763 C177.864206,150.01571 179.61014,146.914724 182.21601,141.781158 C185.577584,135.162247 188.808864,126.875577 188.808864,126.875577 C188.808864,126.875577 189.121568,128.908157 190.08574,132.243671 C190.659032,134.224133 191.90985,136.387006 192.874022,138.497761 C192.092261,139.592227 191.623204,140.217636 191.623204,140.217636 L191.649263,140.243695 C191.023854,141.077573 190.320269,141.963569 189.590625,142.849565 C186.932637,146.028728 183.753474,149.650888 183.336535,150.693237 C182.841419,151.917996 182.945654,152.830051 183.909827,153.559694 C184.613412,154.080869 185.86423,154.185103 187.193224,154.080869 C189.590625,153.924516 191.258382,153.325166 192.092261,152.960344 C193.395196,152.491287 194.880543,151.787702 196.313772,150.745354 C198.919642,148.81701 200.509224,146.080845 200.352871,142.432626 C200.274695,140.426106 199.623227,138.445644 198.815407,136.569417 C199.049936,136.230654 199.284464,135.89189 199.518993,135.527068 C203.636268,129.507507 206.815431,122.888595 206.815431,122.888595 C206.815431,122.888595 207.128135,124.921174 208.092308,128.256689 C208.587423,129.950505 209.577654,131.800673 210.46365,133.624783 C206.606961,136.777886 204.183501,140.426106 203.349623,142.823507 C201.812159,147.253487 203.010859,149.260008 205.277967,149.729064 C206.294257,149.937534 207.753544,149.468477 208.84801,148.99942 C210.203063,148.556422 211.844761,147.80072 213.356167,146.680195 C215.962037,144.751851 218.463673,142.067804 218.33338,138.445644 C218.255204,136.777886 217.812206,135.136188 217.212855,133.572665 C220.496253,132.217613 224.743822,131.435851 230.137975,132.087319 C241.7341,133.442372 244.027266,140.686693 243.584268,143.709503 C243.14127,146.732313 240.71781,148.40007 239.90999,148.921244 C239.10217,149.41636 238.841583,149.598771 238.919759,149.963593 C239.023994,150.510826 239.388816,150.484767 240.092401,150.380532 C241.056573,150.22418 246.190139,147.904955 246.398608,142.328391 C246.711313,135.162247 239.90999,127.344634 227.844808,127.42281 Z M138.411322,157.572735 C134.580692,161.768187 129.18654,163.357769 126.893373,162.002716 C124.417796,160.569487 125.381968,154.393573 130.098594,149.937534 C132.965052,147.227428 136.691448,144.725792 139.140966,143.188329 C139.688199,142.849565 140.522078,142.35445 141.512309,141.7551 C141.668661,141.650865 141.772896,141.598747 141.772896,141.598747 C141.955307,141.494513 142.163776,141.364219 142.372246,141.233926 C144.118179,147.59225 142.450422,153.168814 138.411322,157.572735 Z M166.424433,138.52382 C165.095439,141.781158 162.281099,150.146004 160.587283,149.676947 C159.127995,149.286066 158.241999,142.9538 160.300637,136.69971 C161.342985,133.546607 163.557976,129.794153 164.860911,128.334865 C166.971666,125.989581 169.264833,125.20782 169.838124,126.171992 C170.515651,127.42281 167.258312,136.491241 166.424433,138.52382 Z M189.538507,149.572712 C188.965216,149.859358 188.444042,150.067828 188.209513,149.911475 C188.027102,149.80724 188.444042,149.41636 188.444042,149.41636 C188.444042,149.41636 191.336558,146.315374 192.483141,144.882145 C193.134609,144.048266 193.91637,143.084094 194.750249,141.989628 L194.750249,142.302333 C194.750249,146.054786 191.154147,148.556422 189.538507,149.572712 Z M207.362664,145.507554 C206.945724,145.194849 206.997842,144.230677 208.405012,141.207867 C208.952245,140.009166 210.203063,138.002646 212.365936,136.10036 C212.626523,136.882121 212.782875,137.637824 212.756816,138.341409 C212.730758,143.031976 209.395243,144.77791 207.362664,145.507554 Z"/>
</svg>
