<?xml version="1.0" encoding="UTF-8"?>
<svg width="300px" height="180px" viewBox="0 0 300 180" version="1.1" xmlns="http://www.w3.org/2000/svg" xmlns:xlink="http://www.w3.org/1999/xlink">
    <defs>
        <rect id="path-1" x="0" y="0" width="300" height="181" rx="0.802139037"></rect>
    </defs>
    <g id="Refresh" stroke="none" stroke-width="1" fill="none" fill-rule="evenodd">
        <g id="button-do">
            <mask id="mask-2" fill="white">
                <use xlink:href="#path-1"></use>
            </mask>
            <use id="Region" fill-opacity="0.5" fill="#D7D7DB" xlink:href="#path-1"></use>
            <polygon id="Path" fill="#FFFFFF" mask="url(#mask-2)" points="29.4812834 -5.60619469 29.4812834 185.021465 316.019745 185.021465 316.019745 -5.60619469"></polygon>
            <path d="M30,-5.60619469 L30,185.021465 L316.538462,185.021465 L316.538462,-5.60619469 L30,-5.60619469 Z M28,-7.60619469 L318.538462,-7.60619469 L318.538462,187.021465 L28,187.021465 L28,-7.60619469 Z" id="Region" fill-opacity="0.8" fill="#0A84FF" fill-rule="nonzero" mask="url(#mask-2)"></path>
            <path d="M47,44 L281,44 C282.656854,44 284,45.3431458 284,47 L284,47 C284,48.6568542 282.656854,50 281,50 L47,50 C45.3431458,50 44,48.6568542 44,47 L44,47 L44,47 C44,45.3431458 45.3431458,44 47,44 L47,44 Z M47,62 L281,62 C282.656854,62 284,63.3431458 284,65 C284,66.6568542 282.656854,68 281,68 L47,68 C45.3431458,68 44,66.6568542 44,65 C44,63.3431458 45.3431458,62 47,62 L47,62 Z M47,80 L197.5625,80 C199.219354,80 200.5625,81.3431458 200.5625,83 C200.5625,84.6568542 199.219354,86 197.5625,86 L47,86 C45.3431458,86 44,84.6568542 44,83 C44,81.3431458 45.3431458,80 47,80 L47,80 Z" id="Combined-Shape" fill="#0A84FF" opacity="0.3" mask="url(#mask-2)"></path>
            <g id="btn" mask="url(#mask-2)">
                <g transform="translate(91.000000, 110.000000)">
                    <rect id="Rectangle-5" fill-opacity="0.8" fill="#0A84FF" x="0" y="0" width="148" height="28" rx="2"></rect>
                    <path d="M45.592,18.28 L44.488,18.28 L44.2,14.548 C44.0799994,13.0839927 44.0120001,11.9600039 43.996,11.176 L42.208,17.344 L41.14,17.344 L39.256,11.164 C39.256,12.164005 39.2040005,13.3199934 39.1,14.632 L38.824,18.28 L37.744,18.28 L38.428,10.012 L39.964,10.012 L41.704,16.024 L43.36,10.012 L44.908,10.012 L45.592,18.28 Z M52.084,17.374 C52.1720004,17.4980006 52.3039991,17.5919997 52.48,17.656 L52.228,18.424 C51.8999984,18.3839998 51.636001,18.2920007 51.436,18.148 C51.235999,18.0039993 51.0880005,17.7800015 50.992,17.476 C50.5679979,18.1080032 49.9400042,18.424 49.108,18.424 C48.4839969,18.424 47.9920018,18.2480018 47.632,17.896 C47.2719982,17.5439982 47.092,17.0840028 47.092,16.516 C47.092,15.8439966 47.3339976,15.3280018 47.818,14.968 C48.3020024,14.6079982 48.9879956,14.428 49.876,14.428 L50.848,14.428 L50.848,13.96 C50.848,13.5119978 50.7400011,13.192001 50.524,13 C50.3079989,12.807999 49.9760022,12.712 49.528,12.712 C49.0639977,12.712 48.4960034,12.8239989 47.824,13.048 L47.548,12.244 C48.3320039,11.9559986 49.0599966,11.812 49.732,11.812 C50.4760037,11.812 51.0319982,11.9939982 51.4,12.358 C51.7680018,12.7220018 51.952,13.2399966 51.952,13.912 L51.952,16.804 C51.952,17.0600013 51.9959996,17.2499994 52.084,17.374 Z M50.848,16.612 L50.848,15.16 L50.02,15.16 C48.8519942,15.16 48.268,15.5919957 48.268,16.456 C48.268,16.8320019 48.3599991,17.115999 48.544,17.308 C48.7280009,17.500001 48.9999982,17.596 49.36,17.596 C49.9920032,17.596 50.4879982,17.2680033 50.848,16.612 Z M55.324,18.28 L54.22,18.28 L54.22,9.412 L55.324,9.28 L55.324,18.28 Z M56.632,14.752 L59.224,18.28 L57.904,18.28 L55.396,14.824 L57.724,11.956 L58.96,11.956 L56.632,14.752 Z M64.996,15.496 L60.964,15.496 C61.0120002,16.1920035 61.1879985,16.7039984 61.492,17.032 C61.7960015,17.3600016 62.1879976,17.524 62.668,17.524 C62.9720015,17.524 63.2519987,17.4800004 63.508,17.392 C63.7640013,17.3039996 64.0319986,17.164001 64.312,16.972 L64.792,17.632 C64.1199966,18.1600026 63.384004,18.424 62.584,18.424 C61.7039956,18.424 61.0180025,18.1360029 60.526,17.56 C60.0339975,16.9839971 59.788,16.192005 59.788,15.184 C59.788,14.5279967 59.8939989,13.9460025 60.106,13.438 C60.3180011,12.9299975 60.621998,12.5320014 61.018,12.244 C61.414002,11.9559986 61.8799973,11.812 62.416,11.812 C63.2560042,11.812 63.8999978,12.0879972 64.348,12.64 C64.7960022,13.1920028 65.02,13.9559951 65.02,14.932 C65.02,15.1160009 65.0120001,15.303999 64.996,15.496 Z M63.928,14.608 C63.928,13.9839969 63.8040012,13.5080016 63.556,13.18 C63.3079988,12.8519984 62.9360025,12.688 62.44,12.688 C61.5359955,12.688 61.0440004,13.3519934 60.964,14.68 L63.928,14.68 L63.928,14.608 Z M74.818,10.882 C75.5740038,11.4620029 75.952,12.5359922 75.952,14.104 C75.952,15.6320076 75.5740038,16.7099969 74.818,17.338 C74.0619962,17.9660031 73.1440054,18.28 72.064,18.28 L70.084,18.28 L70.084,10.012 L71.812,10.012 C73.0600062,10.012 74.0619962,10.3019971 74.818,10.882 Z M71.224,10.924 L71.224,17.38 L72.148,17.38 C72.9160038,17.38 73.5399976,17.1440024 74.02,16.672 C74.5000024,16.1999976 74.74,15.3440062 74.74,14.104 C74.74,13.2319956 74.6160012,12.5620023 74.368,12.094 C74.1199988,11.6259977 73.8040019,11.3140008 73.42,11.158 C73.0359981,11.0019992 72.5840026,10.924 72.064,10.924 L71.224,10.924 Z M82.504,15.496 L78.472,15.496 C78.5200002,16.1920035 78.6959985,16.7039984 79,17.032 C79.3040015,17.3600016 79.6959976,17.524 80.176,17.524 C80.4800015,17.524 80.7599987,17.4800004 81.016,17.392 C81.2720013,17.3039996 81.5399986,17.164001 81.82,16.972 L82.3,17.632 C81.6279966,18.1600026 80.892004,18.424 80.092,18.424 C79.2119956,18.424 78.5260025,18.1360029 78.034,17.56 C77.5419975,16.9839971 77.296,16.192005 77.296,15.184 C77.296,14.5279967 77.4019989,13.9460025 77.614,13.438 C77.8260011,12.9299975 78.129998,12.5320014 78.526,12.244 C78.922002,11.9559986 79.3879973,11.812 79.924,11.812 C80.7640042,11.812 81.4079978,12.0879972 81.856,12.64 C82.3040022,13.1920028 82.528,13.9559951 82.528,14.932 C82.528,15.1160009 82.5200001,15.303999 82.504,15.496 Z M81.436,14.608 C81.436,13.9839969 81.3120012,13.5080016 81.064,13.18 C80.8159988,12.8519984 80.4440025,12.688 79.948,12.688 C79.0439955,12.688 78.5520004,13.3519934 78.472,14.68 L81.436,14.68 L81.436,14.608 Z M85.78,10.39 C85.6359993,10.5380007 85.564,10.7679984 85.564,11.08 L85.564,11.956 L87.1,11.956 L86.98,12.808 L85.564,12.808 L85.564,18.28 L84.46,18.28 L84.46,12.808 L83.332,12.808 L83.332,11.956 L84.46,11.956 L84.46,11.092 C84.46,10.5479973 84.6339983,10.1100017 84.982,9.778 C85.3300017,9.44599834 85.8159969,9.28 86.44,9.28 C86.7280014,9.28 86.9859989,9.30599974 87.214,9.358 C87.4420011,9.41000026 87.6879987,9.49199944 87.952,9.604 L87.604,10.408 C87.2439982,10.2479992 86.8760019,10.168 86.5,10.168 C86.1639983,10.168 85.9240007,10.2419993 85.78,10.39 Z M92.764,17.374 C92.8520004,17.4980006 92.9839991,17.5919997 93.16,17.656 L92.908,18.424 C92.5799984,18.3839998 92.316001,18.2920007 92.116,18.148 C91.915999,18.0039993 91.7680005,17.7800015 91.672,17.476 C91.2479979,18.1080032 90.6200042,18.424 89.788,18.424 C89.1639969,18.424 88.6720018,18.2480018 88.312,17.896 C87.9519982,17.5439982 87.772,17.0840028 87.772,16.516 C87.772,15.8439966 88.0139976,15.3280018 88.498,14.968 C88.9820024,14.6079982 89.6679956,14.428 90.556,14.428 L91.528,14.428 L91.528,13.96 C91.528,13.5119978 91.4200011,13.192001 91.204,13 C90.9879989,12.807999 90.6560022,12.712 90.208,12.712 C89.7439977,12.712 89.1760034,12.8239989 88.504,13.048 L88.228,12.244 C89.0120039,11.9559986 89.7399966,11.812 90.412,11.812 C91.1560037,11.812 91.7119982,11.9939982 92.08,12.358 C92.4480018,12.7220018 92.632,13.2399966 92.632,13.912 L92.632,16.804 C92.632,17.0600013 92.6759996,17.2499994 92.764,17.374 Z M91.528,16.612 L91.528,15.16 L90.7,15.16 C89.5319942,15.16 88.948,15.5919957 88.948,16.456 C88.948,16.8320019 89.0399991,17.115999 89.224,17.308 C89.4080009,17.500001 89.6799982,17.596 90.04,17.596 C90.6720032,17.596 91.1679982,17.2680033 91.528,16.612 Z M99.604,18.28 L98.656,18.28 L98.572,17.296 C98.3319988,17.688002 98.0560016,17.9739991 97.744,18.154 C97.4319984,18.3340009 97.0520022,18.424 96.604,18.424 C96.0519972,18.424 95.6200016,18.2560017 95.308,17.92 C94.9959984,17.5839983 94.84,17.1080031 94.84,16.492 L94.84,11.956 L95.944,11.956 L95.944,16.372 C95.944,16.8040022 96.0199992,17.1099991 96.172,17.29 C96.3240008,17.4700009 96.5719983,17.56 96.916,17.56 C97.5320031,17.56 98.0599978,17.1960036 98.5,16.468 L98.5,11.956 L99.604,11.956 L99.604,18.28 Z M102.178,18.058 C101.941999,17.8139988 101.824,17.4720022 101.824,17.032 L101.824,9.412 L102.928,9.28 L102.928,17.008 C102.928,17.1840009 102.958,17.3119996 103.018,17.392 C103.078,17.4720004 103.179999,17.512 103.324,17.512 C103.476001,17.512 103.611999,17.4880002 103.732,17.44 L104.02,18.208 C103.755999,18.3520007 103.464002,18.424 103.144,18.424 C102.735998,18.424 102.414001,18.3020012 102.178,18.058 Z M108.592,17.992 C108.175998,18.2800014 107.704003,18.424 107.176,18.424 C106.639997,18.424 106.222002,18.2700015 105.922,17.962 C105.621999,17.6539985 105.472,17.2080029 105.472,16.624 L105.472,12.808 L104.368,12.808 L104.368,11.956 L105.472,11.956 L105.472,10.528 L106.576,10.396 L106.576,11.956 L108.076,11.956 L107.956,12.808 L106.576,12.808 L106.576,16.576 C106.576,16.9040016 106.633999,17.1419993 106.75,17.29 C106.866001,17.4380007 107.059999,17.512 107.332,17.512 C107.596001,17.512 107.875999,17.4200009 108.172,17.236 L108.592,17.992 Z" id="Make-Default" fill="#FFFFFF"></path>
                </g>
            </g>
        </g>
    </g>
</svg>