<svg xmlns="http://www.w3.org/2000/svg" xmlns:xlink="http://www.w3.org/1999/xlink" width="350" height="180" viewBox="0 0 350 180">
  <defs>
    <rect id="action-a" width="126" height="24" rx="3"/>
    <rect id="action-c" width="126" height="24" rx="3"/>
  </defs>
  <g fill="none" fill-rule="evenodd">
    <rect width="297.944" height="32" x="26" y="74" fill="#FFE900" fill-rule="nonzero" rx="3"/>
    <g transform="translate(30 78)">
      <rect width="24" height="24"/>
      <path fill="#0C0C0D" fill-opacity=".8" fill-rule="nonzero" d="M18.6929417,16.0118641 L13.7399416,6.1058641 C13.4012155,5.42813595 12.7086031,5 11.9509417,5 C11.1932802,5 10.5006678,5.42813595 10.1619417,6.1058641 L5.20894165,16.0158641 C4.90104188,16.6354894 4.93527706,17.3702439 5.29945943,17.9585541 C5.6636418,18.5468644 6.30603325,18.9051512 6.99794165,18.9058641 L16.9029417,18.9058641 C17.5961777,18.9061872 18.2401412,18.5474994 18.6048048,17.957926 C18.9694684,17.3683526 19.0028183,16.6319873 18.6929417,16.0118641 L18.6929417,16.0118641 Z M10.9509417,8.9058641 C10.9509417,8.35357935 11.3986569,7.9058641 11.9509417,7.9058641 C12.5032264,7.9058641 12.9509417,8.35357935 12.9509417,8.9058641 L12.9509417,12.9058641 C12.9509417,13.4581489 12.5032264,13.9058641 11.9509417,13.9058641 C11.3986569,13.9058641 10.9509417,13.4581489 10.9509417,12.9058641 L10.9509417,8.9058641 Z M11.9509417,17.1558641 C11.2605857,17.1558641 10.7009417,16.59622 10.7009417,15.9058641 C10.7009417,15.2155082 11.2605857,14.6558641 11.9509417,14.6558641 C12.6412976,14.6558641 13.2009417,15.2155082 13.2009417,15.9058641 C13.2009417,16.59622 12.6412976,17.1558641 11.9509417,17.1558641 L11.9509417,17.1558641 Z"/>
    </g>
    <path fill="#3E2800" fill-rule="nonzero" d="M64.8427734,93.9716797 L60.3105469,93.9716797 L60.3105469,90.8232422 L64.6079102,90.8232422 L64.6079102,89.8076172 L60.3105469,89.8076172 L60.3105469,86.8686523 L64.8427734,86.8686523 L64.8427734,85.840332 L59.1679688,85.840332 L59.1679688,95 L64.8427734,95 L64.8427734,93.9716797 Z M66.7724609,95 L67.8642578,95 L67.8642578,90.7597656 C67.8642578,89.7949219 68.5561523,89.0205078 69.4511719,89.0205078 C70.3144531,89.0205078 70.8793945,89.5410156 70.8793945,90.3535156 L70.8793945,95 L71.9711914,95 L71.9711914,90.6010742 C71.9711914,89.7314453 72.605957,89.0205078 73.5581055,89.0205078 C74.5229492,89.0205078 74.9990234,89.515625 74.9990234,90.5249023 L74.9990234,95 L76.0908203,95 L76.0908203,90.2709961 C76.0908203,88.8364258 75.3100586,88.0366211 73.9135742,88.0366211 C72.9677734,88.0366211 72.1870117,88.5126953 71.8188477,89.2363281 L71.7172852,89.2363281 C71.3999023,88.5253906 70.7524414,88.0366211 69.8256836,88.0366211 C68.9116211,88.0366211 68.2260742,88.4746094 67.9150391,89.2363281 L67.8134766,89.2363281 L67.8134766,88.1572266 L66.7724609,88.1572266 L66.7724609,95 Z M80.1914062,94.1621094 C81.3149414,94.1621094 82.1464844,93.4257812 82.1464844,92.4482422 L82.1464844,91.8198242 L80.3056641,91.9404297 C79.2646484,92.0102539 78.8076172,92.3720703 78.8076172,93.0576172 C78.8076172,93.7558594 79.3979492,94.1621094 80.1914062,94.1621094 Z M79.9882812,95.1206055 C78.6616211,95.1206055 77.6777344,94.3334961 77.6777344,93.0830078 C77.6777344,91.8579102 78.5791016,91.1533203 80.1723633,91.0581055 L82.1464844,90.9375 L82.1464844,90.3154297 C82.1464844,89.4711914 81.6196289,89.0078125 80.5976562,89.0078125 C79.7788086,89.0078125 79.2075195,89.3188477 79.0551758,89.8583984 L77.9506836,89.8583984 C78.0966797,88.7602539 79.1757812,88.0366211 80.6357422,88.0366211 C82.3051758,88.0366211 83.2382812,88.8935547 83.2382812,90.3154297 L83.2382812,95 L82.1972656,95 L82.1972656,93.9907227 L82.0957031,93.9907227 C81.6513672,94.7207031 80.9023438,95.1206055 79.9882812,95.1206055 Z M85.2822266,95 L86.3740234,95 L86.3740234,88.1572266 L85.2822266,88.1572266 L85.2822266,95 Z M85.828125,86.7670898 C86.2470703,86.7670898 86.5898438,86.4243164 86.5898438,86.0053711 C86.5898438,85.5864258 86.2470703,85.2436523 85.828125,85.2436523 C85.4091797,85.2436523 85.0664062,85.5864258 85.0664062,86.0053711 C85.0664062,86.4243164 85.4091797,86.7670898 85.828125,86.7670898 Z M88.5195312,95 L89.6113281,95 L89.6113281,85.4404297 L88.5195312,85.4404297 L88.5195312,95 Z M95.4257812,95 L96.5175781,95 L96.5175781,88.1572266 L95.4257812,88.1572266 L95.4257812,95 Z M95.9716797,86.7670898 C96.390625,86.7670898 96.7333984,86.4243164 96.7333984,86.0053711 C96.7333984,85.5864258 96.390625,85.2436523 95.9716797,85.2436523 C95.5527344,85.2436523 95.2099609,85.5864258 95.2099609,86.0053711 C95.2099609,86.4243164 95.5527344,86.7670898 95.9716797,86.7670898 Z M98.440918,90.0297852 C98.440918,91.0200195 99.0249023,91.5722656 100.307129,91.8833008 L101.481445,92.1689453 C102.211426,92.3466797 102.566895,92.6640625 102.566895,93.1337891 C102.566895,93.762207 101.906738,94.2001953 100.986328,94.2001953 C100.110352,94.2001953 99.5644531,93.8320312 99.3803711,93.2543945 L98.2568359,93.2543945 C98.3774414,94.390625 99.4248047,95.1206055 100.948242,95.1206055 C102.503418,95.1206055 103.69043,94.2763672 103.69043,93.0512695 C103.69043,92.0673828 103.068359,91.5087891 101.779785,91.1977539 L100.726074,90.9438477 C99.9199219,90.7470703 99.5390625,90.4550781 99.5390625,89.9853516 C99.5390625,89.3759766 100.173828,88.9633789 100.986328,88.9633789 C101.811523,88.9633789 102.344727,89.3251953 102.490723,89.8710938 L103.569824,89.8710938 C103.423828,88.7475586 102.427246,88.0366211 100.992676,88.0366211 C99.5390625,88.0366211 98.440918,88.8935547 98.440918,90.0297852 Z M109.073242,95 L110.165039,95 L110.165039,90.9501953 C110.165039,89.7504883 110.869629,89.0205078 111.961426,89.0205078 C113.053223,89.0205078 113.57373,89.6044922 113.57373,90.8359375 L113.57373,95 L114.665527,95 L114.665527,90.5693359 C114.665527,88.9443359 113.808594,88.0366211 112.272461,88.0366211 C111.225098,88.0366211 110.558594,88.480957 110.21582,89.2363281 L110.114258,89.2363281 L110.114258,88.1572266 L109.073242,88.1572266 L109.073242,95 Z M119.470703,95.1206055 C117.521973,95.1206055 116.315918,93.7749023 116.315918,91.5786133 C116.315918,89.3759766 117.521973,88.0366211 119.470703,88.0366211 C121.419434,88.0366211 122.625488,89.3759766 122.625488,91.5786133 C122.625488,93.7749023 121.419434,95.1206055 119.470703,95.1206055 Z M119.470703,94.1367188 C120.765625,94.1367188 121.495605,93.1972656 121.495605,91.5786133 C121.495605,89.9536133 120.765625,89.0205078 119.470703,89.0205078 C118.175781,89.0205078 117.445801,89.9536133 117.445801,91.5786133 C117.445801,93.1972656 118.175781,94.1367188 119.470703,94.1367188 Z M124.796387,86.3862305 L124.796387,88.1572266 L123.691895,88.1572266 L123.691895,89.0712891 L124.796387,89.0712891 L124.796387,93.2226562 C124.796387,94.5302734 125.361328,95.0507812 126.770508,95.0507812 C126.986328,95.0507812 127.195801,95.0253906 127.411621,94.9873047 L127.411621,94.0668945 C127.208496,94.0859375 127.100586,94.0922852 126.903809,94.0922852 C126.192871,94.0922852 125.888184,93.7495117 125.888184,92.9433594 L125.888184,89.0712891 L127.411621,89.0712891 L127.411621,88.1572266 L125.888184,88.1572266 L125.888184,86.3862305 L124.796387,86.3862305 Z M138.316895,88.1572266 L137.148926,88.1572266 L135.276367,93.7939453 L135.174805,93.7939453 L133.302246,88.1572266 L132.134277,88.1572266 L134.666992,95 L135.78418,95 L138.316895,88.1572266 Z M142.252441,89.0014648 C141.160645,89.0014648 140.398926,89.8012695 140.316406,91.0136719 L144.086914,91.0136719 C144.061523,89.8012695 143.337891,89.0014648 142.252441,89.0014648 Z M144.055176,93.2290039 L145.146973,93.2290039 C144.816895,94.4033203 143.763184,95.1206055 142.265137,95.1206055 C140.367188,95.1206055 139.180176,93.7495117 139.180176,91.5849609 C139.180176,89.4331055 140.38623,88.0366211 142.265137,88.0366211 C144.112305,88.0366211 145.23584,89.3505859 145.23584,91.4770508 L145.23584,91.8959961 L140.316406,91.8959961 L140.316406,91.9467773 C140.373535,93.2988281 141.128906,94.1557617 142.290527,94.1557617 C143.172852,94.1557617 143.769531,93.8320312 144.055176,93.2290039 Z M146.949707,95 L148.041504,95 L148.041504,90.7597656 C148.041504,89.7949219 148.796875,89.0966797 149.837891,89.0966797 C150.053711,89.0966797 150.447266,89.1347656 150.536133,89.1601562 L150.536133,88.0683594 C150.396484,88.0493164 150.167969,88.0366211 149.990234,88.0366211 C149.08252,88.0366211 148.29541,88.5063477 148.092285,89.1728516 L147.990723,89.1728516 L147.990723,88.1572266 L146.949707,88.1572266 L146.949707,95 Z M152.053223,95 L153.14502,95 L153.14502,88.1572266 L152.053223,88.1572266 L152.053223,95 Z M152.599121,86.7670898 C153.018066,86.7670898 153.36084,86.4243164 153.36084,86.0053711 C153.36084,85.5864258 153.018066,85.2436523 152.599121,85.2436523 C152.180176,85.2436523 151.837402,85.5864258 151.837402,86.0053711 C151.837402,86.4243164 152.180176,86.7670898 152.599121,86.7670898 Z M155.684082,95 L156.775879,95 L156.775879,89.0712891 L158.34375,89.0712891 L158.34375,88.1572266 L156.775879,88.1572266 L156.775879,87.5224609 C156.775879,86.7543945 157.144043,86.4243164 157.797852,86.4243164 C158.013672,86.4243164 158.26123,86.449707 158.407227,86.4814453 L158.407227,85.5673828 C158.140625,85.5229492 157.950195,85.5039062 157.734375,85.5039062 C156.414062,85.5039062 155.684082,86.0878906 155.684082,87.4907227 L155.684082,88.1572266 L154.547852,88.1572266 L154.547852,89.0712891 L155.684082,89.0712891 L155.684082,95 Z M159.956055,95 L161.047852,95 L161.047852,88.1572266 L159.956055,88.1572266 L159.956055,95 Z M160.501953,86.7670898 C160.920898,86.7670898 161.263672,86.4243164 161.263672,86.0053711 C161.263672,85.5864258 160.920898,85.2436523 160.501953,85.2436523 C160.083008,85.2436523 159.740234,85.5864258 159.740234,86.0053711 C159.740234,86.4243164 160.083008,86.7670898 160.501953,86.7670898 Z M165.859375,89.0014648 C164.767578,89.0014648 164.005859,89.8012695 163.92334,91.0136719 L167.693848,91.0136719 C167.668457,89.8012695 166.944824,89.0014648 165.859375,89.0014648 Z M167.662109,93.2290039 L168.753906,93.2290039 C168.423828,94.4033203 167.370117,95.1206055 165.87207,95.1206055 C163.974121,95.1206055 162.787109,93.7495117 162.787109,91.5849609 C162.787109,89.4331055 163.993164,88.0366211 165.87207,88.0366211 C167.719238,88.0366211 168.842773,89.3505859 168.842773,91.4770508 L168.842773,91.8959961 L163.92334,91.8959961 L163.92334,91.9467773 C163.980469,93.2988281 164.73584,94.1557617 165.897461,94.1557617 C166.779785,94.1557617 167.376465,93.8320312 167.662109,93.2290039 Z M173.089355,95.1206055 C171.337402,95.1206055 170.213867,93.7304688 170.213867,91.5786133 C170.213867,89.4331055 171.350098,88.0366211 173.089355,88.0366211 C174.041504,88.0366211 174.847656,88.4873047 175.234863,89.2363281 L175.330078,89.2363281 L175.330078,85.4404297 L176.421875,85.4404297 L176.421875,95 L175.380859,95 L175.380859,93.9082031 L175.279297,93.9082031 C174.847656,94.6699219 174.035156,95.1206055 173.089355,95.1206055 Z M173.343262,89.0205078 C172.099121,89.0205078 171.34375,89.9853516 171.34375,91.5786133 C171.34375,93.1782227 172.092773,94.1367188 173.343262,94.1367188 C174.587402,94.1367188 175.355469,93.1591797 175.355469,91.5786133 C175.355469,90.0107422 174.581055,89.0205078 173.343262,89.0205078 Z"/>
    <g transform="translate(190 78)">
      <rect width="126" height="24" fill="#737373" fill-rule="nonzero" rx="3"/>
      <mask id="action-b" fill="#fff">
        <use xlink:href="#action-a"/>
      </mask>
      <g fill="#D7B600" fill-rule="nonzero" mask="url(#action-b)">
        <rect width="135" height="26" transform="translate(-2 -1)"/>
      </g>
      <g>
        <mask id="action-d" fill="#fff">
          <use xlink:href="#action-c"/>
        </mask>
        <g fill="#3E2800" fill-rule="nonzero" mask="url(#action-d)">
          <path d="M0.817066378,6.76054691 C0.891333955,8.2573242 2.14245698,9.2056641 4.03342375,9.2056641 C6.03293543,9.2056641 7.27263268,8.2059082 7.27263268,6.60058598 C7.27263268,5.34375006 6.56994714,4.64677741 4.89607022,4.26972664 L3.94773039,4.0526368 C2.92512298,3.81840829 2.50808198,3.49277353 2.50808198,2.93862315 C2.50808198,2.23593761 3.13649993,1.77890637 4.08483976,1.77890637 C4.98747647,1.77890637 5.62732021,2.23593761 5.73015224,2.96147471 L7.1412362,2.96147471 C7.07268151,1.54467786 5.82155848,0.5506349 4.09055265,0.5506349 C2.24528901,0.5506349 1.02273044,1.54467786 1.02273044,3.04145518 C1.02273044,4.26972664 1.72541597,5.01240241 3.22219329,5.34946295 L4.29050382,5.59511724 C5.34738857,5.84077154 5.79870692,6.18925786 5.79870692,6.78339847 C5.79870692,7.47465823 5.09602139,7.9716797 4.12483,7.9716797 C3.07937103,7.9716797 2.34812104,7.49750979 2.25671479,6.76054691 L0.817066378,6.76054691 Z M14.2652107,7.72602541 L10.4032967,7.72602541 L10.4032967,5.41801764 L14.0538337,5.41801764 L14.0538337,4.21831062 L10.4032967,4.21831062 L10.4032967,2.03027355 L14.2652107,2.03027355 L14.2652107,0.75629896 L8.92937093,0.75629896 L8.92937093,9 L14.2652107,9 L14.2652107,7.72602541 Z M17.5158454,9 L17.5158454,3.3899415 L17.6129645,3.3899415 L21.657691,9 L22.9316656,9 L22.9316656,0.75629896 L21.5148688,0.75629896 L21.5148688,6.36064457 L21.4177496,6.36064457 L17.3730231,0.75629896 L16.0933357,0.75629896 L16.0933357,9 L17.5158454,9 Z M24.9711675,0.75629896 L28.0618413,0.75629896 C30.5126714,0.75629896 31.940894,2.25307628 31.940894,4.84101569 C31.940894,7.48608401 30.52981,9 28.0618413,9 L24.9711675,9 L24.9711675,0.75629896 Z M26.4450933,2.03027355 L26.4450933,7.72602541 L27.867603,7.72602541 C29.5072026,7.72602541 30.4384038,6.70341801 30.4384038,4.86386725 C30.4384038,3.06430674 29.4843511,2.03027355 27.867603,2.03027355 L26.4450933,2.03027355 Z M40.7044681,9 L43.5552004,0.75629896 L41.9841556,0.75629896 L39.927515,7.28041995 L39.8303958,7.28041995 L37.7566166,0.75629896 L36.1284428,0.75629896 L39.0077396,9 L40.7044681,9 Z M50.3135499,7.72602541 L46.4516359,7.72602541 L46.4516359,5.41801764 L50.102173,5.41801764 L50.102173,4.21831062 L46.4516359,4.21831062 L46.4516359,2.03027355 L50.3135499,2.03027355 L50.3135499,0.75629896 L44.9777102,0.75629896 L44.9777102,9 L50.3135499,9 L50.3135499,7.72602541 Z M53.6156007,1.97885754 L53.6156007,4.73818366 L55.3180421,4.73818366 C56.2549561,4.73818366 56.7919678,4.2354493 56.7919678,3.36137705 C56.7919678,2.50444347 56.2206788,1.97885754 55.2837647,1.97885754 L53.6156007,1.97885754 Z M53.6156007,5.90932622 L53.6156007,9 L52.1416749,9 L52.1416749,0.75629896 L55.4894288,0.75629896 C57.2204346,0.75629896 58.3058838,1.75034192 58.3058838,3.33281259 C58.3058838,4.41826179 57.7345947,5.32661139 56.7519776,5.6808106 L58.5515381,9 L56.8662354,9 L55.2494874,5.90932622 L53.6156007,5.90932622 Z M61.5622314,9 L61.5622314,0.75629896 L60.0883056,0.75629896 L60.0883056,9 L61.5622314,9 Z M65.0699462,9 L65.0699462,5.65795904 L68.526245,5.65795904 L68.526245,4.42968757 L65.0699462,4.42968757 L65.0699462,2.03027355 L68.8518797,2.03027355 L68.8518797,0.75629896 L63.5960204,0.75629896 L63.5960204,9 L65.0699462,9 Z M71.9539793,9 L71.9539793,0.75629896 L70.4800535,0.75629896 L70.4800535,9 L71.9539793,9 Z M77.4269284,9.2056641 C79.329321,9.2056641 80.7232662,8.0687988 80.9175045,6.38349614 L79.4664303,6.38349614 C79.2664792,7.3089844 78.4723874,7.89169924 77.4269284,7.89169924 C76.0215573,7.89169924 75.1474851,6.73769535 75.1474851,4.87529304 C75.1474851,3.01860361 76.0215573,1.86459973 77.4212155,1.86459973 C78.4609616,1.86459973 79.2550534,2.50444347 79.4607174,3.49277353 L80.9117916,3.49277353 C80.7404049,1.77319348 79.2950436,0.5506349 77.4212155,0.5506349 C75.0846433,0.5506349 73.639282,2.20166027 73.639282,4.88100593 C73.639282,7.5489258 75.0903562,9.2056641 77.4269284,9.2056641 Z M87.624438,9 L86.9274654,6.89194339 L83.8939205,6.89194339 L83.1855221,9 L81.6944576,9 L84.6194576,0.75629896 L86.2761958,0.75629896 L89.2069087,9 L87.624438,9 Z M85.3678462,2.32734386 L84.2366939,5.72651373 L86.5846919,5.72651373 L85.4649654,2.32734386 L85.3678462,2.32734386 Z M93.2344965,9 L93.2344965,2.03027355 L95.7767328,2.03027355 L95.7767328,0.75629896 L89.2240474,0.75629896 L89.2240474,2.03027355 L91.7605708,2.03027355 L91.7605708,9 L93.2344965,9 Z M98.793139,9 L98.793139,0.75629896 L97.3192132,0.75629896 L97.3192132,9 L98.793139,9 Z M104.386059,0.5506349 C106.77976,0.5506349 108.276537,2.21308605 108.276537,4.87529304 C108.276537,7.53178713 106.791186,9.2056641 104.386059,9.2056641 C101.963793,9.2056641 100.478442,7.53750002 100.478442,4.87529304 C100.478442,2.21308605 101.992358,0.5506349 104.386059,0.5506349 Z M104.386059,1.85888684 C102.917846,1.85888684 101.986645,3.03002939 101.986645,4.87529304 C101.986645,6.71484379 102.894994,7.89741213 104.386059,7.89741213 C105.854272,7.89741213 106.768334,6.71484379 106.768334,4.87529304 C106.768334,3.03002939 105.848559,1.85888684 104.386059,1.85888684 Z M111.38435,9 L111.38435,3.3899415 L111.481469,3.3899415 L115.526195,9 L116.80017,9 L116.80017,0.75629896 L115.383373,0.75629896 L115.383373,6.36064457 L115.286254,6.36064457 L111.241527,0.75629896 L109.96184,0.75629896 L109.96184,9 L111.38435,9 Z" transform="translate(4 8)"/>
        </g>
      </g>
    </g>
  </g>
</svg>
