<svg xmlns="http://www.w3.org/2000/svg" xmlns:xlink="http://www.w3.org/1999/xlink" width="350" height="180" viewBox="0 0 350 180">
  <defs>
    <rect id="btn-error-a" width="49" height="24" rx="2"/>
    <rect id="btn-error-c" width="49" height="24" rx="2"/>
    <rect id="btn-error-e" width="49" height="24" rx="2"/>
  </defs>
  <g fill="none" fill-rule="evenodd" transform="translate(150.5 36)">
    <mask id="btn-error-b" fill="#fff">
      <use xlink:href="#btn-error-a"/>
    </mask>
    <use fill="#A4000F" xlink:href="#btn-error-a"/>
    <path fill="#FFF" d="M14.0397949,16 L13.2609863,13.7817383 L10.1779785,13.7817383 L9.39916992,16 L8.3840332,16 L11.2414551,8.24951172 L12.1975098,8.24951172 L15.0549316,16 L14.0397949,16 Z M11.6765137,9.50097656 L10.4626465,12.9599609 L12.9763184,12.9599609 L11.7624512,9.50097656 L11.6765137,9.50097656 Z M20.7644043,11.9824219 C20.6032715,10.9511719 19.7438965,10.1079102 18.3366699,10.1079102 C16.7145996,10.1079102 15.6833496,11.2788086 15.6833496,13.0834961 C15.6833496,14.9257812 16.7199707,16.1020508 18.342041,16.1020508 C19.7331543,16.1020508 20.5979004,15.3178711 20.7644043,14.2543945 L19.829834,14.2543945 C19.657959,14.909668 19.1154785,15.2695312 18.3366699,15.2695312 C17.3054199,15.2695312 16.6394043,14.4208984 16.6394043,13.0834961 C16.6394043,11.7729492 17.2946777,10.9404297 18.3366699,10.9404297 C19.1691895,10.9404297 19.6794434,11.4077148 19.829834,11.9824219 L20.7644043,11.9824219 Z M22.6228027,8.71142578 L22.6228027,10.2099609 L21.6882324,10.2099609 L21.6882324,10.9833984 L22.6228027,10.9833984 L22.6228027,14.4960938 C22.6228027,15.6025391 23.1008301,16.0429688 24.2932129,16.0429688 C24.4758301,16.0429688 24.6530762,16.0214844 24.8356934,15.9892578 L24.8356934,15.2104492 C24.6638184,15.2265625 24.5725098,15.2319336 24.4060059,15.2319336 C23.8044434,15.2319336 23.5466309,14.9418945 23.5466309,14.2597656 L23.5466309,10.9833984 L24.8356934,10.9833984 L24.8356934,10.2099609 L23.5466309,10.2099609 L23.5466309,8.71142578 L22.6228027,8.71142578 Z M26.2536621,16 L27.1774902,16 L27.1774902,10.2099609 L26.2536621,10.2099609 L26.2536621,16 Z M26.7155762,9.03369141 C27.0700684,9.03369141 27.3601074,8.74365234 27.3601074,8.38916016 C27.3601074,8.03466797 27.0700684,7.74462891 26.7155762,7.74462891 C26.361084,7.74462891 26.0710449,8.03466797 26.0710449,8.38916016 C26.0710449,8.74365234 26.361084,9.03369141 26.7155762,9.03369141 Z M31.3186035,16.1020508 C29.6696777,16.1020508 28.6491699,14.9633789 28.6491699,13.1049805 C28.6491699,11.2412109 29.6696777,10.1079102 31.3186035,10.1079102 C32.9675293,10.1079102 33.9880371,11.2412109 33.9880371,13.1049805 C33.9880371,14.9633789 32.9675293,16.1020508 31.3186035,16.1020508 Z M31.3186035,15.2695313 C32.4143066,15.2695313 33.0319824,14.4746094 33.0319824,13.1049805 C33.0319824,11.7299805 32.4143066,10.9404297 31.3186035,10.9404297 C30.2229004,10.9404297 29.6052246,11.7299805 29.6052246,13.1049805 C29.6052246,14.4746094 30.2229004,15.2695313 31.3186035,15.2695313 Z M35.4382324,16 L36.3620605,16 L36.3620605,12.5732422 C36.3620605,11.5581055 36.958252,10.9404297 37.8820801,10.9404297 C38.8059082,10.9404297 39.2463379,11.4345703 39.2463379,12.4765625 L39.2463379,16 L40.170166,16 L40.170166,12.2509766 C40.170166,10.8759766 39.4450684,10.1079102 38.1452637,10.1079102 C37.2590332,10.1079102 36.6950684,10.4838867 36.4050293,11.1230469 L36.3190918,11.1230469 L36.3190918,10.2099609 L35.4382324,10.2099609 L35.4382324,16 Z" mask="url(#btn-error-b)"/>
    <g transform="translate(0 40)">
      <mask id="btn-error-d" fill="#fff">
        <use xlink:href="#btn-error-c"/>
      </mask>
      <use fill="#5A0002" xlink:href="#btn-error-c"/>
      <path fill="#FFF" d="M14.0397949,16 L13.2609863,13.7817383 L10.1779785,13.7817383 L9.39916992,16 L8.3840332,16 L11.2414551,8.24951172 L12.1975098,8.24951172 L15.0549316,16 L14.0397949,16 Z M11.6765137,9.50097656 L10.4626465,12.9599609 L12.9763184,12.9599609 L11.7624512,9.50097656 L11.6765137,9.50097656 Z M20.7644043,11.9824219 C20.6032715,10.9511719 19.7438965,10.1079102 18.3366699,10.1079102 C16.7145996,10.1079102 15.6833496,11.2788086 15.6833496,13.0834961 C15.6833496,14.9257812 16.7199707,16.1020508 18.342041,16.1020508 C19.7331543,16.1020508 20.5979004,15.3178711 20.7644043,14.2543945 L19.829834,14.2543945 C19.657959,14.909668 19.1154785,15.2695312 18.3366699,15.2695312 C17.3054199,15.2695312 16.6394043,14.4208984 16.6394043,13.0834961 C16.6394043,11.7729492 17.2946777,10.9404297 18.3366699,10.9404297 C19.1691895,10.9404297 19.6794434,11.4077148 19.829834,11.9824219 L20.7644043,11.9824219 Z M22.6228027,8.71142578 L22.6228027,10.2099609 L21.6882324,10.2099609 L21.6882324,10.9833984 L22.6228027,10.9833984 L22.6228027,14.4960938 C22.6228027,15.6025391 23.1008301,16.0429688 24.2932129,16.0429688 C24.4758301,16.0429688 24.6530762,16.0214844 24.8356934,15.9892578 L24.8356934,15.2104492 C24.6638184,15.2265625 24.5725098,15.2319336 24.4060059,15.2319336 C23.8044434,15.2319336 23.5466309,14.9418945 23.5466309,14.2597656 L23.5466309,10.9833984 L24.8356934,10.9833984 L24.8356934,10.2099609 L23.5466309,10.2099609 L23.5466309,8.71142578 L22.6228027,8.71142578 Z M26.2536621,16 L27.1774902,16 L27.1774902,10.2099609 L26.2536621,10.2099609 L26.2536621,16 Z M26.7155762,9.03369141 C27.0700684,9.03369141 27.3601074,8.74365234 27.3601074,8.38916016 C27.3601074,8.03466797 27.0700684,7.74462891 26.7155762,7.74462891 C26.361084,7.74462891 26.0710449,8.03466797 26.0710449,8.38916016 C26.0710449,8.74365234 26.361084,9.03369141 26.7155762,9.03369141 Z M31.3186035,16.1020508 C29.6696777,16.1020508 28.6491699,14.9633789 28.6491699,13.1049805 C28.6491699,11.2412109 29.6696777,10.1079102 31.3186035,10.1079102 C32.9675293,10.1079102 33.9880371,11.2412109 33.9880371,13.1049805 C33.9880371,14.9633789 32.9675293,16.1020508 31.3186035,16.1020508 Z M31.3186035,15.2695313 C32.4143066,15.2695313 33.0319824,14.4746094 33.0319824,13.1049805 C33.0319824,11.7299805 32.4143066,10.9404297 31.3186035,10.9404297 C30.2229004,10.9404297 29.6052246,11.7299805 29.6052246,13.1049805 C29.6052246,14.4746094 30.2229004,15.2695313 31.3186035,15.2695313 Z M35.4382324,16 L36.3620605,16 L36.3620605,12.5732422 C36.3620605,11.5581055 36.958252,10.9404297 37.8820801,10.9404297 C38.8059082,10.9404297 39.2463379,11.4345703 39.2463379,12.4765625 L39.2463379,16 L40.170166,16 L40.170166,12.2509766 C40.170166,10.8759766 39.4450684,10.1079102 38.1452637,10.1079102 C37.2590332,10.1079102 36.6950684,10.4838867 36.4050293,11.1230469 L36.3190918,11.1230469 L36.3190918,10.2099609 L35.4382324,10.2099609 L35.4382324,16 Z" mask="url(#btn-error-d)"/>
    </g>
    <g transform="translate(0 80)">
      <mask id="btn-error-f" fill="#fff">
        <use xlink:href="#btn-error-e"/>
      </mask>
      <use fill="#3E0200" xlink:href="#btn-error-e"/>
      <path fill="#FFF" d="M14.0397949,16 L13.2609863,13.7817383 L10.1779785,13.7817383 L9.39916992,16 L8.3840332,16 L11.2414551,8.24951172 L12.1975098,8.24951172 L15.0549316,16 L14.0397949,16 Z M11.6765137,9.50097656 L10.4626465,12.9599609 L12.9763184,12.9599609 L11.7624512,9.50097656 L11.6765137,9.50097656 Z M20.7644043,11.9824219 C20.6032715,10.9511719 19.7438965,10.1079102 18.3366699,10.1079102 C16.7145996,10.1079102 15.6833496,11.2788086 15.6833496,13.0834961 C15.6833496,14.9257812 16.7199707,16.1020508 18.342041,16.1020508 C19.7331543,16.1020508 20.5979004,15.3178711 20.7644043,14.2543945 L19.829834,14.2543945 C19.657959,14.909668 19.1154785,15.2695312 18.3366699,15.2695312 C17.3054199,15.2695312 16.6394043,14.4208984 16.6394043,13.0834961 C16.6394043,11.7729492 17.2946777,10.9404297 18.3366699,10.9404297 C19.1691895,10.9404297 19.6794434,11.4077148 19.829834,11.9824219 L20.7644043,11.9824219 Z M22.6228027,8.71142578 L22.6228027,10.2099609 L21.6882324,10.2099609 L21.6882324,10.9833984 L22.6228027,10.9833984 L22.6228027,14.4960938 C22.6228027,15.6025391 23.1008301,16.0429688 24.2932129,16.0429688 C24.4758301,16.0429688 24.6530762,16.0214844 24.8356934,15.9892578 L24.8356934,15.2104492 C24.6638184,15.2265625 24.5725098,15.2319336 24.4060059,15.2319336 C23.8044434,15.2319336 23.5466309,14.9418945 23.5466309,14.2597656 L23.5466309,10.9833984 L24.8356934,10.9833984 L24.8356934,10.2099609 L23.5466309,10.2099609 L23.5466309,8.71142578 L22.6228027,8.71142578 Z M26.2536621,16 L27.1774902,16 L27.1774902,10.2099609 L26.2536621,10.2099609 L26.2536621,16 Z M26.7155762,9.03369141 C27.0700684,9.03369141 27.3601074,8.74365234 27.3601074,8.38916016 C27.3601074,8.03466797 27.0700684,7.74462891 26.7155762,7.74462891 C26.361084,7.74462891 26.0710449,8.03466797 26.0710449,8.38916016 C26.0710449,8.74365234 26.361084,9.03369141 26.7155762,9.03369141 Z M31.3186035,16.1020508 C29.6696777,16.1020508 28.6491699,14.9633789 28.6491699,13.1049805 C28.6491699,11.2412109 29.6696777,10.1079102 31.3186035,10.1079102 C32.9675293,10.1079102 33.9880371,11.2412109 33.9880371,13.1049805 C33.9880371,14.9633789 32.9675293,16.1020508 31.3186035,16.1020508 Z M31.3186035,15.2695313 C32.4143066,15.2695313 33.0319824,14.4746094 33.0319824,13.1049805 C33.0319824,11.7299805 32.4143066,10.9404297 31.3186035,10.9404297 C30.2229004,10.9404297 29.6052246,11.7299805 29.6052246,13.1049805 C29.6052246,14.4746094 30.2229004,15.2695313 31.3186035,15.2695313 Z M35.4382324,16 L36.3620605,16 L36.3620605,12.5732422 C36.3620605,11.5581055 36.958252,10.9404297 37.8820801,10.9404297 C38.8059082,10.9404297 39.2463379,11.4345703 39.2463379,12.4765625 L39.2463379,16 L40.170166,16 L40.170166,12.2509766 C40.170166,10.8759766 39.4450684,10.1079102 38.1452637,10.1079102 C37.2590332,10.1079102 36.6950684,10.4838867 36.4050293,11.1230469 L36.3190918,11.1230469 L36.3190918,10.2099609 L35.4382324,10.2099609 L35.4382324,16 Z" mask="url(#btn-error-f)"/>
    </g>
  </g>
</svg>
