<svg xmlns="http://www.w3.org/2000/svg" xmlns:xlink="http://www.w3.org/1999/xlink" width="350" height="180" style="background:#f9f9fa" viewBox="0 0 350 180">
  <defs>
    <rect id="btn-success-a" width="73" height="24" x="4" y="4" rx="2"/>
    <rect id="btn-success-c" width="73" height="24" x="4" y="4" rx="2"/>
    <rect id="btn-success-e" width="73" height="24" x="4" y="4" rx="2"/>
  </defs>
  <g fill="none" fill-rule="evenodd" transform="translate(134.5 32)">
    <rect width="81" height="32" fill="#30E60B" rx="4"/>
    <mask id="btn-success-b" fill="#fff">
      <use xlink:href="#btn-success-a"/>
    </mask>
    <use fill="#12BC00" xlink:href="#btn-success-a"/>
    <path fill="#003706" d="M17.1057133,20 L17.1057133,14.3899415 L17.2028324,14.3899415 L21.2475589,20 L22.5215335,20 L22.5215335,11.756299 L21.1047366,11.756299 L21.1047366,17.3606446 L21.0076175,17.3606446 L16.962891,11.756299 L15.6832035,11.756299 L15.6832035,20 L17.1057133,20 Z M28.1201662,11.5506349 C30.5138674,11.5506349 32.0106447,13.213086 32.0106447,15.875293 C32.0106447,18.5317871 30.5252931,20.2056641 28.1201662,20.2056641 C25.6979006,20.2056641 24.2125491,18.5375 24.2125491,15.875293 C24.2125491,13.213086 25.7264651,11.5506349 28.1201662,11.5506349 Z M28.1201662,12.8588868 C26.6519534,12.8588868 25.7207522,14.0300294 25.7207522,15.875293 C25.7207522,17.7148438 26.6291018,18.8974121 28.1201662,18.8974121 C29.5883791,18.8974121 30.5024416,17.7148438 30.5024416,15.875293 C30.5024416,14.0300294 29.5826662,12.8588868 28.1201662,12.8588868 Z M35.1698731,12.9788575 L35.1698731,15.7381837 L36.8723145,15.7381837 C37.8092286,15.7381837 38.3462403,15.2354493 38.3462403,14.361377 C38.3462403,13.5044435 37.7749512,12.9788575 36.8380372,12.9788575 L35.1698731,12.9788575 Z M35.1698731,16.9093262 L35.1698731,20 L33.6959474,20 L33.6959474,11.756299 L37.0437012,11.756299 C38.7747071,11.756299 39.8601563,12.7503419 39.8601563,14.3328126 C39.8601563,15.4182618 39.2888672,16.3266114 38.30625,16.6808106 L40.1058106,20 L38.4205078,20 L36.8037598,16.9093262 L35.1698731,16.9093262 Z M50.154785,20 L50.154785,11.756299 L48.4294921,11.756299 L45.9500976,17.7605469 L45.8472655,17.7605469 L43.367871,11.756299 L41.6425781,11.756299 L41.6425781,20 L43.0136718,20 L43.0136718,14.2014161 L43.0936523,14.2014161 L45.3730956,19.6800781 L46.4242675,19.6800781 L48.7037108,14.2014161 L48.7836913,14.2014161 L48.7836913,20 L50.154785,20 Z M57.5072751,20 L56.8103025,17.8919434 L53.7767576,17.8919434 L53.0683592,20 L51.5772947,20 L54.5022947,11.756299 L56.1590329,11.756299 L59.0897458,20 L57.5072751,20 Z M55.2506834,13.3273439 L54.119531,16.7265137 L56.467529,16.7265137 L55.3478025,13.3273439 L55.2506834,13.3273439 Z M65.7624019,18.7088867 L61.9804684,18.7088867 L61.9804684,11.756299 L60.5065426,11.756299 L60.5065426,20 L65.7624019,20 L65.7624019,18.7088867 Z" mask="url(#btn-success-b)"/>
    <g transform="translate(0 40)">
      <rect width="81" height="32" fill="#30E60B" rx="4"/>
      <mask id="btn-success-d" fill="#fff">
        <use xlink:href="#btn-success-c"/>
      </mask>
      <use fill="#058B00" xlink:href="#btn-success-c"/>
      <path fill="#FFF" d="M27.868799,20 L27.868799,11.756299 L26.4005862,11.756299 L26.4005862,15.1668946 L22.390137,15.1668946 L22.390137,11.756299 L20.9162113,11.756299 L20.9162113,20 L22.390137,20 L22.390137,16.4408692 L26.4005862,16.4408692 L26.4005862,20 L27.868799,20 Z M33.4617189,11.5506349 C35.85542,11.5506349 37.3521973,13.213086 37.3521973,15.875293 C37.3521973,18.5317871 35.8668458,20.2056641 33.4617189,20.2056641 C31.0394533,20.2056641 29.5541017,18.5375 29.5541017,15.875293 C29.5541017,13.213086 31.0680177,11.5506349 33.4617189,11.5506349 Z M33.4617189,12.8588868 C31.993506,12.8588868 31.0623048,14.0300294 31.0623048,15.875293 C31.0623048,17.7148438 31.9706544,18.8974121 33.4617189,18.8974121 C34.9299317,18.8974121 35.8439942,17.7148438 35.8439942,15.875293 C35.8439942,14.0300294 34.9242188,12.8588868 33.4617189,12.8588868 Z M42.7337402,20 L45.5844726,11.756299 L44.0134277,11.756299 L41.9567871,18.2804199 L41.8596679,18.2804199 L39.7858887,11.756299 L38.1577149,11.756299 L41.0370117,20 L42.7337402,20 Z M52.3428221,18.7260254 L48.4809081,18.7260254 L48.4809081,16.4180176 L52.1314451,16.4180176 L52.1314451,15.2183106 L48.4809081,15.2183106 L48.4809081,13.0302736 L52.3428221,13.0302736 L52.3428221,11.756299 L47.0069823,11.756299 L47.0069823,20 L52.3428221,20 L52.3428221,18.7260254 Z M55.6448728,12.9788575 L55.6448728,15.7381837 L57.3473142,15.7381837 C58.2842282,15.7381837 58.8212399,15.2354493 58.8212399,14.361377 C58.8212399,13.5044435 58.2499509,12.9788575 57.3130368,12.9788575 L55.6448728,12.9788575 Z M55.6448728,16.9093262 L55.6448728,20 L54.170947,20 L54.170947,11.756299 L57.5187009,11.756299 C59.2497067,11.756299 60.3351559,12.7503419 60.3351559,14.3328126 C60.3351559,15.4182618 59.7638669,16.3266114 58.7812497,16.6808106 L60.5808102,20 L58.8955075,20 L57.2787595,16.9093262 L55.6448728,16.9093262 Z" mask="url(#btn-success-d)"/>
    </g>
    <g transform="translate(0 80)">
      <rect width="81" height="32" fill="#30E60B" rx="4"/>
      <mask id="btn-success-f" fill="#fff">
        <use xlink:href="#btn-success-e"/>
      </mask>
      <use fill="#006504" xlink:href="#btn-success-e"/>
      <path fill="#FFF" d="M14.460645,11.756299 L17.7855472,11.756299 C19.4308597,11.756299 20.5562992,12.8817384 20.5562992,14.5441895 C20.5562992,16.1780762 19.3908695,17.2978028 17.7227054,17.2978028 L15.9345707,17.2978028 L15.9345707,20 L14.460645,20 L14.460645,11.756299 Z M15.9345707,12.9902833 L15.9345707,16.0752442 L17.3913578,16.0752442 C18.4425297,16.0752442 19.0595218,15.5268067 19.0595218,14.5441895 C19.0595218,13.5330079 18.4596683,12.9902833 17.3970707,12.9902833 L15.9345707,12.9902833 Z M23.6526858,12.9788575 L23.6526858,15.7381837 L25.3551272,15.7381837 C26.2920412,15.7381837 26.829053,15.2354493 26.829053,14.361377 C26.829053,13.5044435 26.2577639,12.9788575 25.3208499,12.9788575 L23.6526858,12.9788575 Z M23.6526858,16.9093262 L23.6526858,20 L22.1787601,20 L22.1787601,11.756299 L25.5265139,11.756299 C27.2575197,11.756299 28.3429689,12.7503419 28.3429689,14.3328126 C28.3429689,15.4182618 27.7716799,16.3266114 26.7890627,16.6808106 L28.5886232,20 L26.9033205,20 L25.2865725,16.9093262 L23.6526858,16.9093262 Z M35.4612306,18.7260254 L31.5993166,18.7260254 L31.5993166,16.4180176 L35.2498536,16.4180176 L35.2498536,15.2183106 L31.5993166,15.2183106 L31.5993166,13.0302736 L35.4612306,13.0302736 L35.4612306,11.756299 L30.1253908,11.756299 L30.1253908,20 L35.4612306,20 L35.4612306,18.7260254 Z M36.9123047,17.7605469 C36.9865723,19.2573242 38.2376953,20.2056641 40.1286621,20.2056641 C42.1281738,20.2056641 43.367871,19.2059082 43.367871,17.600586 C43.367871,16.3437501 42.6651855,15.6467774 40.9913086,15.2697266 L40.0429688,15.0526368 C39.0203614,14.8184083 38.6033203,14.4927735 38.6033203,13.9386231 C38.6033203,13.2359376 39.2317383,12.7789064 40.1800781,12.7789064 C41.0827148,12.7789064 41.7225586,13.2359376 41.8253906,13.9614747 L43.2364746,13.9614747 C43.1679199,12.5446779 41.9167969,11.5506349 40.185791,11.5506349 C38.3405274,11.5506349 37.1179688,12.5446779 37.1179688,14.0414552 C37.1179688,15.2697266 37.8206543,16.0124024 39.3174317,16.349463 L40.3857422,16.5951172 C41.4426269,16.8407715 41.8939453,17.1892579 41.8939453,17.7833985 C41.8939453,18.4746582 41.1912598,18.9716797 40.2200684,18.9716797 C39.1746094,18.9716797 38.4433594,18.4975098 38.3519532,17.7605469 L36.9123047,17.7605469 Z M44.6475585,17.7605469 C44.7218261,19.2573242 45.9729491,20.2056641 47.8639159,20.2056641 C49.8634276,20.2056641 51.1031248,19.2059082 51.1031248,17.600586 C51.1031248,16.3437501 50.4004393,15.6467774 48.7265624,15.2697266 L47.7782225,15.0526368 C46.7556151,14.8184083 46.3385741,14.4927735 46.3385741,13.9386231 C46.3385741,13.2359376 46.9669921,12.7789064 47.9153319,12.7789064 C48.8179686,12.7789064 49.4578124,13.2359376 49.5606444,13.9614747 L50.9717283,13.9614747 C50.9031737,12.5446779 49.6520506,11.5506349 47.9210448,11.5506349 C46.0757812,11.5506349 44.8532226,12.5446779 44.8532226,14.0414552 C44.8532226,15.2697266 45.5559081,16.0124024 47.0526854,16.349463 L48.120996,16.5951172 C49.1778807,16.8407715 49.6291991,17.1892579 49.6291991,17.7833985 C49.6291991,18.4746582 48.9265135,18.9716797 47.9553221,18.9716797 C46.9098632,18.9716797 46.1786132,18.4975098 46.0872069,17.7605469 L44.6475585,17.7605469 Z M58.0957028,18.7260254 L54.2337888,18.7260254 L54.2337888,16.4180176 L57.8843259,16.4180176 L57.8843259,15.2183106 L54.2337888,15.2183106 L54.2337888,13.0302736 L58.0957028,13.0302736 L58.0957028,11.756299 L52.7598631,11.756299 L52.7598631,20 L58.0957028,20 L58.0957028,18.7260254 Z M59.9238278,11.756299 L63.0145016,11.756299 C65.4653316,11.756299 66.8935543,13.2530763 66.8935543,15.8410157 C66.8935543,18.486084 65.4824703,20 63.0145016,20 L59.9238278,20 L59.9238278,11.756299 Z M61.3977536,13.0302736 L61.3977536,18.7260254 L62.8202633,18.7260254 C64.4598629,18.7260254 65.391064,17.703418 65.391064,15.8638673 C65.391064,14.0643067 64.4370113,13.0302736 62.8202633,13.0302736 L61.3977536,13.0302736 Z" mask="url(#btn-success-f)"/>
    </g>
  </g>
</svg>
