<svg xmlns="http://www.w3.org/2000/svg" xmlns:xlink="http://www.w3.org/1999/xlink" width="380" height="180" viewBox="0 0 380 180">
  <defs>
    <path id="c-err-a" d="M7.22254109,5.98945674 L11.7593901,1.45260771 C12.0842229,1.11628355 12.0795773,0.581679455 11.7489489,0.251051076 C11.4183205,-0.0795773034 10.8837165,-0.0842228685 10.5473923,0.240609874 L6.01054326,4.77745891 L1.47369422,0.240609874 C1.13737006,-0.0842228685 0.602765966,-0.0795773034 0.272137586,0.251051076 C-0.0584907931,0.581679455 -0.0631363582,1.11628355 0.261696384,1.45260771 L4.79854542,5.98945674 L0.261696384,10.5263058 C0.0388768524,10.7415121 -0.0504852845,11.0602002 0.0279563816,11.359882 C0.106398048,11.6595638 0.340436167,11.893602 0.640118002,11.9720436 C0.939799836,12.0504853 1.25848791,11.9611231 1.47369422,11.7383036 L6.01054326,7.20145458 L10.5473923,11.7383036 C10.8837165,12.0631364 11.4183205,12.0584908 11.7489489,11.7278624 C12.0795773,11.397234 12.0842229,10.8626299 11.7593901,10.5263058 L7.22254109,5.98945674 Z"/>
    <path id="c-err-c" d="M209.535637,76.9233398 L254.535637,76.9233398 C255.640206,76.9233398 256.535637,77.8187703 256.535637,78.9233398 L256.535637,98.9233398 C256.535637,100.027909 255.640206,100.92334 254.535637,100.92334 L209.535637,100.92334 C208.431067,100.92334 207.535637,100.027909 207.535637,98.9233398 L207.535637,78.9233398 C207.535637,77.8187703 208.431067,76.9233398 209.535637,76.9233398 Z"/>
  </defs>
  <g fill="none" fill-rule="evenodd">
    <path fill="#22E800" d="M291.914679 109L342.829358 109C343.933927 109 344.829358 109.895431 344.829358 111L344.829358 141.893416C344.829358 142.997986 343.933927 143.893416 342.829358 143.893416L233 143.893416C231.895431 143.893416 231 142.997986 231 141.893416L231 111C231 109.895431 231.895431 109 233 109L283.914679 109 287.914679 105 291.914679 109zM90.8340002 109L123.334 109C124.43857 109 125.334 109.895431 125.334 111L125.334 142C125.334 143.104569 124.43857 144 123.334 144L50.3340002 144C49.2294307 144 48.3340002 143.104569 48.3340002 142L48.3340002 111C48.3340002 109.895431 49.2294307 109 50.3340002 109L82.8340002 109 86.8340002 105 90.8340002 109z"/>
    <path fill="#002D3E" d="M59.3540002,117.91 L59.4540002,117.11 L54.2140002,117.11 L54.2140002,117.91 L56.3440002,117.91 L56.3440002,124 L57.2940002,124 L57.2940002,117.91 L59.3540002,117.91 Z M65.0740002,121.68 L61.5440002,121.68 C61.6240002,122.85 62.2540002,123.37 63.0540002,123.37 C63.5340002,123.37 64.0040002,123.25 64.4540002,122.88 L64.8740002,123.49 C64.3840002,123.88 63.7140002,124.12 63.0340002,124.12 C61.4640002,124.12 60.5840002,123.01 60.5840002,121.37 C60.5840002,119.78 61.4840002,118.61 62.8840002,118.61 C64.2640002,118.61 65.0940002,119.6 65.0940002,121.21 C65.0940002,121.39 65.0840002,121.56 65.0740002,121.68 Z M62.8840002,119.34 C62.1640002,119.34 61.6140002,119.87 61.5440002,121 L64.2040002,121 C64.1840002,119.91 63.7040002,119.34 62.8840002,119.34 Z M68.8240002,121.8 L70.2040002,124 L71.3140002,124 L69.3840002,121.18 L71.0740002,118.73 L70.0340002,118.73 L68.8640002,120.63 L68.8240002,120.63 L67.6640002,118.73 L66.5840002,118.73 L68.2840002,121.22 L66.3540002,124 L67.3940002,124 L68.7840002,121.8 L68.8240002,121.8 Z M76.8040002,123.1 C76.5340002,123.26 76.1940002,123.36 75.8040002,123.36 C75.1040002,123.36 74.8240002,123.07 74.8240002,122.48 L74.8240002,119.43 L76.5240002,119.43 L76.6340002,118.73 L74.8240002,118.73 L74.8240002,117.43 L73.9040002,117.54 L73.9040002,118.73 L72.7040002,118.73 L72.7040002,119.43 L73.9040002,119.43 L73.9040002,122.49 C73.9040002,123.45 74.5440002,124.12 75.7040002,124.12 C76.2240002,124.12 76.7840002,123.97 77.1540002,123.73 L76.8040002,123.1 Z M87.1940002,123.34 C86.3140002,123.34 85.6740002,122.77 85.6740002,121.39 C85.6740002,120.02 86.3040002,119.37 87.1940002,119.37 C87.6540002,119.37 88.1040002,119.5 88.5340002,119.82 L88.9840002,119.2 C88.4940002,118.79 87.8740002,118.61 87.1940002,118.61 C85.6040002,118.61 84.6840002,119.8 84.6840002,121.39 C84.6840002,123.04 85.5940002,124.12 87.1840002,124.12 C87.7840002,124.12 88.4940002,123.92 88.9840002,123.52 L88.5440002,122.89 C88.1140002,123.21 87.6340002,123.34 87.1940002,123.34 Z M94.1540002,121.36 C94.1540002,119.99 93.7140002,119.35 92.8440002,119.35 C91.9640002,119.35 91.5140002,119.99 91.5140002,121.37 C91.5140002,122.74 91.9540002,123.38 92.8340002,123.38 C93.7140002,123.38 94.1540002,122.74 94.1540002,121.36 Z M90.5340002,121.37 C90.5340002,119.74 91.3440002,118.61 92.8440002,118.61 C94.3440002,118.61 95.1340002,119.69 95.1340002,121.36 C95.1340002,122.99 94.3240002,124.12 92.8340002,124.12 C91.3340002,124.12 90.5340002,123.04 90.5340002,121.37 Z M100.554,123.18 C100.274,123.29 99.9640002,123.36 99.6840002,123.36 C99.1840002,123.36 98.8340002,123.17 98.8340002,122.66 L98.8340002,116.61 L96.3040002,116.61 L96.3040002,117.32 L97.9140002,117.32 L97.9140002,122.58 C97.9140002,123.55 98.5440002,124.12 99.5140002,124.12 C100.014,124.12 100.544,123.98 100.794,123.84 L100.554,123.18 Z M106.154,121.36 C106.154,119.99 105.714,119.35 104.844,119.35 C103.964,119.35 103.514,119.99 103.514,121.37 C103.514,122.74 103.954,123.38 104.834,123.38 C105.714,123.38 106.154,122.74 106.154,121.36 Z M102.534,121.37 C102.534,119.74 103.344,118.61 104.844,118.61 C106.344,118.61 107.134,119.69 107.134,121.36 C107.134,122.99 106.324,124.12 104.834,124.12 C103.334,124.12 102.534,123.04 102.534,121.37 Z M112.354,123.29 L110.884,123.29 L110.884,120.91 C111.064,120.18 111.604,119.51 112.264,119.51 C112.484,119.51 112.644,119.53 112.904,119.6 L113.074,118.69 C112.774,118.63 112.624,118.61 112.374,118.61 C111.754,118.61 111.174,119 110.874,119.74 L110.764,118.73 L108.754,118.73 L108.754,119.44 L109.964,119.44 L109.964,123.29 L108.754,123.29 L108.754,124 L112.354,124 L112.354,123.29 Z M115.994,123.28 C115.994,123.75 116.354,124.12 116.824,124.12 C117.304,124.12 117.664,123.75 117.664,123.28 C117.664,122.83 117.304,122.45 116.824,122.45 C116.354,122.45 115.994,122.83 115.994,123.28 Z M115.994,119.69 C115.994,120.15 116.354,120.53 116.824,120.53 C117.304,120.53 117.664,120.15 117.664,119.69 C117.664,119.23 117.304,118.86 116.824,118.86 C116.354,118.86 115.994,119.23 115.994,119.69 Z M59.7940002,129.11 L58.9240002,129.11 L58.1740002,134.88 L58.1340002,134.88 L57.3940002,129.91 L56.2940002,129.91 L55.3840002,134.91 L55.3440002,134.91 L54.8240002,129.11 L53.8740002,129.11 L54.6940002,136 L55.9440002,136 L56.7940002,130.97 L56.8340002,130.97 L57.5740002,136 L58.7740002,136 L59.7940002,129.11 Z M61.7240002,136 L61.7240002,132.18 C62.0040002,131.77 62.5140002,131.33 63.0840002,131.33 C63.6840002,131.33 63.9540002,131.6 63.9540002,132.23 L63.9540002,136 L64.8740002,136 L64.8740002,132.17 C64.8740002,131.19 64.4140002,130.61 63.3940002,130.61 C62.7740002,130.61 62.1440002,130.9 61.7240002,131.4 L61.7240002,128.52 L60.8040002,128.62 L60.8040002,136 L61.7240002,136 Z M69.5340002,130.73 L67.0540002,130.73 L67.0540002,131.44 L68.6140002,131.44 L68.6140002,135.29 L67.0040002,135.29 L67.0040002,136 L71.0040002,136 L71.0040002,135.29 L69.5340002,135.29 L69.5340002,130.73 Z M69.7240002,128.85 C69.7240002,128.5 69.4540002,128.23 69.0740002,128.23 C68.6940002,128.23 68.4340002,128.5 68.4340002,128.85 C68.4340002,129.21 68.6940002,129.48 69.0740002,129.48 C69.4540002,129.48 69.7240002,129.21 69.7240002,128.85 Z M76.8040002,135.1 C76.5340002,135.26 76.1940002,135.36 75.8040002,135.36 C75.1040002,135.36 74.8240002,135.07 74.8240002,134.48 L74.8240002,131.43 L76.5240002,131.43 L76.6340002,130.73 L74.8240002,130.73 L74.8240002,129.43 L73.9040002,129.54 L73.9040002,130.73 L72.7040002,130.73 L72.7040002,131.43 L73.9040002,131.43 L73.9040002,134.49 C73.9040002,135.45 74.5440002,136.12 75.7040002,136.12 C76.2240002,136.12 76.7840002,135.97 77.1540002,135.73 L76.8040002,135.1 Z M83.0740002,133.68 L79.5440002,133.68 C79.6240002,134.85 80.2540002,135.37 81.0540002,135.37 C81.5340002,135.37 82.0040002,135.25 82.4540002,134.88 L82.8740002,135.49 C82.3840002,135.88 81.7140002,136.12 81.0340002,136.12 C79.4640002,136.12 78.5840002,135.01 78.5840002,133.37 C78.5840002,131.78 79.4840002,130.61 80.8840002,130.61 C82.2640002,130.61 83.0940002,131.6 83.0940002,133.21 C83.0940002,133.39 83.0840002,133.56 83.0740002,133.68 Z M80.8840002,131.34 C80.1640002,131.34 79.6140002,131.87 79.5440002,133 L82.2040002,133 C82.1840002,131.91 81.7040002,131.34 80.8840002,131.34 Z"/>
    <path fill="#F5A623" d="M226.355263,68.8934161 L175.334,68.8934161 C174.229431,68.8934161 173.334,67.9979856 173.334,66.8934161 L173.334,36 C173.334,34.8954305 174.229431,34 175.334,34 L285.163358,34 C286.267928,34 287.163358,34.8954305 287.163358,36 L287.163358,66.8934161 C287.163358,67.9979856 286.267928,68.8934161 285.163358,68.8934161 L234.142095,68.8934161 L234.248679,69 L230.248679,73 L226.248679,69 L226.355263,68.8934161 Z"/>
    <rect width="285" height="32" x="47.5" y="73" fill="#D70022" rx="3"/>
    <g transform="translate(304.5 77)">
      <rect width="24" height="24"/>
      <g transform="translate(6 6)">
        <mask id="c-err-b" fill="#fff">
          <use xlink:href="#c-err-a"/>
        </mask>
        <use fill="#0C0C0D" fill-opacity=".8" fill-rule="nonzero" xlink:href="#c-err-a"/>
        <g fill="#FFF" mask="url(#c-err-b)">
          <rect width="200" height="200" transform="translate(-89 -91)"/>
        </g>
      </g>
    </g>
    <g transform="translate(51.5 77)">
      <rect width="24" height="24"/>
      <path fill="#FFF" d="M8,1 C11.8659932,1 15,4.13400675 15,8 C15,11.8659932 11.8659932,15 8,15 C4.13400675,15 1,11.8659932 1,8 C1,4.13400675 4.13400675,1 8,1 Z M8,4 C8.55228475,4 9,4.44771525 9,5 C9,5.55228475 8.55228475,6 8,6 C7.44771525,6 7,5.55228475 7,5 C7,4.44771525 7.44771525,4 8,4 Z M8,7 C8.55228475,7 9,7.44771525 9,8 L9,11 C9,11.5522847 8.55228475,12 8,12 C7.44771525,12 7,11.5522847 7,11 L7,8 C7,7.44771525 7.44771525,7 8,7 Z" transform="matrix(1 0 0 -1 4 20)"/>
    </g>
    <path fill="#FFF" d="M89.6943359,94 L89.6943359,84.840332 L88.3676758,84.840332 L85.2319336,92.4194336 L85.1303711,92.4194336 L81.9946289,84.840332 L80.6679688,84.840332 L80.6679688,94 L81.734375,94 L81.734375,87.0048828 L81.8105469,87.0048828 L84.6987305,93.9365234 L85.6635742,93.9365234 L88.5517578,87.0048828 L88.6279297,87.0048828 L88.6279297,94 L89.6943359,94 Z M94.6201172,88.0014648 C93.5283203,88.0014648 92.7666016,88.8012695 92.684082,90.0136719 L96.4545898,90.0136719 C96.4291992,88.8012695 95.7055664,88.0014648 94.6201172,88.0014648 Z M96.4228516,92.2290039 L97.5146484,92.2290039 C97.1845703,93.4033203 96.1308594,94.1206055 94.6328125,94.1206055 C92.7348633,94.1206055 91.5478516,92.7495117 91.5478516,90.5849609 C91.5478516,88.4331055 92.7539062,87.0366211 94.6328125,87.0366211 C96.4799805,87.0366211 97.6035156,88.3505859 97.6035156,90.4770508 L97.6035156,90.8959961 L92.684082,90.8959961 L92.684082,90.9467773 C92.7412109,92.2988281 93.496582,93.1557617 94.6582031,93.1557617 C95.5405273,93.1557617 96.137207,92.8320312 96.4228516,92.2290039 Z M99.1586914,89.0297852 C99.1586914,90.0200195 99.7426758,90.5722656 101.024902,90.8833008 L102.199219,91.1689453 C102.929199,91.3466797 103.284668,91.6640625 103.284668,92.1337891 C103.284668,92.762207 102.624512,93.2001953 101.704102,93.2001953 C100.828125,93.2001953 100.282227,92.8320312 100.098145,92.2543945 L98.9746094,92.2543945 C99.0952148,93.390625 100.142578,94.1206055 101.666016,94.1206055 C103.221191,94.1206055 104.408203,93.2763672 104.408203,92.0512695 C104.408203,91.0673828 103.786133,90.5087891 102.497559,90.1977539 L101.443848,89.9438477 C100.637695,89.7470703 100.256836,89.4550781 100.256836,88.9853516 C100.256836,88.3759766 100.891602,87.9633789 101.704102,87.9633789 C102.529297,87.9633789 103.0625,88.3251953 103.208496,88.8710938 L104.287598,88.8710938 C104.141602,87.7475586 103.14502,87.0366211 101.710449,87.0366211 C100.256836,87.0366211 99.1586914,87.8935547 99.1586914,89.0297852 Z M105.836426,89.0297852 C105.836426,90.0200195 106.42041,90.5722656 107.702637,90.8833008 L108.876953,91.1689453 C109.606934,91.3466797 109.962402,91.6640625 109.962402,92.1337891 C109.962402,92.762207 109.302246,93.2001953 108.381836,93.2001953 C107.505859,93.2001953 106.959961,92.8320312 106.775879,92.2543945 L105.652344,92.2543945 C105.772949,93.390625 106.820312,94.1206055 108.34375,94.1206055 C109.898926,94.1206055 111.085938,93.2763672 111.085938,92.0512695 C111.085938,91.0673828 110.463867,90.5087891 109.175293,90.1977539 L108.121582,89.9438477 C107.31543,89.7470703 106.93457,89.4550781 106.93457,88.9853516 C106.93457,88.3759766 107.569336,87.9633789 108.381836,87.9633789 C109.207031,87.9633789 109.740234,88.3251953 109.88623,88.8710938 L110.965332,88.8710938 C110.819336,87.7475586 109.822754,87.0366211 108.388184,87.0366211 C106.93457,87.0366211 105.836426,87.8935547 105.836426,89.0297852 Z M114.907227,93.1621094 C116.030762,93.1621094 116.862305,92.4257812 116.862305,91.4482422 L116.862305,90.8198242 L115.021484,90.9404297 C113.980469,91.0102539 113.523438,91.3720703 113.523438,92.0576172 C113.523438,92.7558594 114.11377,93.1621094 114.907227,93.1621094 Z M114.704102,94.1206055 C113.377441,94.1206055 112.393555,93.3334961 112.393555,92.0830078 C112.393555,90.8579102 113.294922,90.1533203 114.888184,90.0581055 L116.862305,89.9375 L116.862305,89.3154297 C116.862305,88.4711914 116.335449,88.0078125 115.313477,88.0078125 C114.494629,88.0078125 113.92334,88.3188477 113.770996,88.8583984 L112.666504,88.8583984 C112.8125,87.7602539 113.891602,87.0366211 115.351562,87.0366211 C117.020996,87.0366211 117.954102,87.8935547 117.954102,89.3154297 L117.954102,94 L116.913086,94 L116.913086,92.9907227 L116.811523,92.9907227 C116.367188,93.7207031 115.618164,94.1206055 114.704102,94.1206055 Z M122.740234,92.9335938 C124.009766,92.9335938 124.771484,91.96875 124.771484,90.4770508 C124.771484,88.9853516 124.003418,88.0205078 122.740234,88.0205078 C121.470703,88.0205078 120.759766,88.9853516 120.759766,90.4770508 C120.759766,91.96875 121.470703,92.9335938 122.740234,92.9335938 Z M122.791016,96.6279297 C121.140625,96.6279297 120.086914,95.8852539 119.921875,94.7553711 L121.077148,94.7553711 C121.197754,95.3139648 121.807129,95.6757812 122.791016,95.6757812 C124.016113,95.6757812 124.746094,95.0727539 124.746094,94.0634766 L124.746094,92.7177734 L124.644531,92.7177734 C124.212891,93.4731445 123.438477,93.8984375 122.499023,93.8984375 C120.728027,93.8984375 119.629883,92.5273438 119.629883,90.4770508 C119.629883,88.4267578 120.740723,87.0366211 122.499023,87.0366211 C123.45752,87.0366211 124.301758,87.5063477 124.695312,88.2426758 L124.796875,88.2426758 L124.796875,87.1572266 L125.837891,87.1572266 L125.837891,94.1206055 C125.837891,95.6503906 124.657227,96.6279297 122.791016,96.6279297 Z M130.624023,88.0014648 C129.532227,88.0014648 128.770508,88.8012695 128.687988,90.0136719 L132.458496,90.0136719 C132.433105,88.8012695 131.709473,88.0014648 130.624023,88.0014648 Z M132.426758,92.2290039 L133.518555,92.2290039 C133.188477,93.4033203 132.134766,94.1206055 130.636719,94.1206055 C128.73877,94.1206055 127.551758,92.7495117 127.551758,90.5849609 C127.551758,88.4331055 128.757812,87.0366211 130.636719,87.0366211 C132.483887,87.0366211 133.607422,88.3505859 133.607422,90.4770508 L133.607422,90.8959961 L128.687988,90.8959961 L128.687988,90.9467773 C128.745117,92.2988281 129.500488,93.1557617 130.662109,93.1557617 C131.544434,93.1557617 132.141113,92.8320312 132.426758,92.2290039 Z M141.757812,92.9335938 C143.027344,92.9335938 143.789062,91.96875 143.789062,90.4770508 C143.789062,88.9853516 143.020996,88.0205078 141.757812,88.0205078 C140.488281,88.0205078 139.777344,88.9853516 139.777344,90.4770508 C139.777344,91.96875 140.488281,92.9335938 141.757812,92.9335938 Z M141.808594,96.6279297 C140.158203,96.6279297 139.104492,95.8852539 138.939453,94.7553711 L140.094727,94.7553711 C140.215332,95.3139648 140.824707,95.6757812 141.808594,95.6757812 C143.033691,95.6757812 143.763672,95.0727539 143.763672,94.0634766 L143.763672,92.7177734 L143.662109,92.7177734 C143.230469,93.4731445 142.456055,93.8984375 141.516602,93.8984375 C139.745605,93.8984375 138.647461,92.5273438 138.647461,90.4770508 C138.647461,88.4267578 139.758301,87.0366211 141.516602,87.0366211 C142.475098,87.0366211 143.319336,87.5063477 143.712891,88.2426758 L143.814453,88.2426758 L143.814453,87.1572266 L144.855469,87.1572266 L144.855469,94.1206055 C144.855469,95.6503906 143.674805,96.6279297 141.808594,96.6279297 Z M149.724121,94.1206055 C147.775391,94.1206055 146.569336,92.7749023 146.569336,90.5786133 C146.569336,88.3759766 147.775391,87.0366211 149.724121,87.0366211 C151.672852,87.0366211 152.878906,88.3759766 152.878906,90.5786133 C152.878906,92.7749023 151.672852,94.1206055 149.724121,94.1206055 Z M149.724121,93.1367188 C151.019043,93.1367188 151.749023,92.1972656 151.749023,90.5786133 C151.749023,88.9536133 151.019043,88.0205078 149.724121,88.0205078 C148.429199,88.0205078 147.699219,88.9536133 147.699219,90.5786133 C147.699219,92.1972656 148.429199,93.1367188 149.724121,93.1367188 Z M157.322266,88.0014648 C156.230469,88.0014648 155.46875,88.8012695 155.38623,90.0136719 L159.156738,90.0136719 C159.131348,88.8012695 158.407715,88.0014648 157.322266,88.0014648 Z M159.125,92.2290039 L160.216797,92.2290039 C159.886719,93.4033203 158.833008,94.1206055 157.334961,94.1206055 C155.437012,94.1206055 154.25,92.7495117 154.25,90.5849609 C154.25,88.4331055 155.456055,87.0366211 157.334961,87.0366211 C159.182129,87.0366211 160.305664,88.3505859 160.305664,90.4770508 L160.305664,90.8959961 L155.38623,90.8959961 L155.38623,90.9467773 C155.443359,92.2988281 156.19873,93.1557617 157.360352,93.1557617 C158.242676,93.1557617 158.839355,92.8320312 159.125,92.2290039 Z M161.86084,89.0297852 C161.86084,90.0200195 162.444824,90.5722656 163.727051,90.8833008 L164.901367,91.1689453 C165.631348,91.3466797 165.986816,91.6640625 165.986816,92.1337891 C165.986816,92.762207 165.32666,93.2001953 164.40625,93.2001953 C163.530273,93.2001953 162.984375,92.8320312 162.800293,92.2543945 L161.676758,92.2543945 C161.797363,93.390625 162.844727,94.1206055 164.368164,94.1206055 C165.92334,94.1206055 167.110352,93.2763672 167.110352,92.0512695 C167.110352,91.0673828 166.488281,90.5087891 165.199707,90.1977539 L164.145996,89.9438477 C163.339844,89.7470703 162.958984,89.4550781 162.958984,88.9853516 C162.958984,88.3759766 163.59375,87.9633789 164.40625,87.9633789 C165.231445,87.9633789 165.764648,88.3251953 165.910645,88.8710938 L166.989746,88.8710938 C166.84375,87.7475586 165.847168,87.0366211 164.412598,87.0366211 C162.958984,87.0366211 161.86084,87.8935547 161.86084,89.0297852 Z M172.556641,94 L173.648438,94 L173.648438,89.9501953 C173.648438,88.7949219 174.321289,88.0205078 175.546387,88.0205078 C176.581055,88.0205078 177.126953,88.6235352 177.126953,89.8359375 L177.126953,94 L178.21875,94 L178.21875,89.5693359 C178.21875,87.9633789 177.304688,87.0366211 175.857422,87.0366211 C174.810059,87.0366211 174.092773,87.480957 173.75,88.2363281 L173.648438,88.2363281 L173.648438,84.4404297 L172.556641,84.4404297 L172.556641,94 Z M182.941406,88.0014648 C181.849609,88.0014648 181.087891,88.8012695 181.005371,90.0136719 L184.775879,90.0136719 C184.750488,88.8012695 184.026855,88.0014648 182.941406,88.0014648 Z M184.744141,92.2290039 L185.835938,92.2290039 C185.505859,93.4033203 184.452148,94.1206055 182.954102,94.1206055 C181.056152,94.1206055 179.869141,92.7495117 179.869141,90.5849609 C179.869141,88.4331055 181.075195,87.0366211 182.954102,87.0366211 C184.80127,87.0366211 185.924805,88.3505859 185.924805,90.4770508 L185.924805,90.8959961 L181.005371,90.8959961 L181.005371,90.9467773 C181.0625,92.2988281 181.817871,93.1557617 182.979492,93.1557617 C183.861816,93.1557617 184.458496,92.8320312 184.744141,92.2290039 Z M187.638672,94 L188.730469,94 L188.730469,89.7597656 C188.730469,88.7949219 189.48584,88.0966797 190.526855,88.0966797 C190.742676,88.0966797 191.13623,88.1347656 191.225098,88.1601562 L191.225098,87.0683594 C191.085449,87.0493164 190.856934,87.0366211 190.679199,87.0366211 C189.771484,87.0366211 188.984375,87.5063477 188.78125,88.1728516 L188.679688,88.1728516 L188.679688,87.1572266 L187.638672,87.1572266 L187.638672,94 Z M195.128906,88.0014648 C194.037109,88.0014648 193.275391,88.8012695 193.192871,90.0136719 L196.963379,90.0136719 C196.937988,88.8012695 196.214355,88.0014648 195.128906,88.0014648 Z M196.931641,92.2290039 L198.023438,92.2290039 C197.693359,93.4033203 196.639648,94.1206055 195.141602,94.1206055 C193.243652,94.1206055 192.056641,92.7495117 192.056641,90.5849609 C192.056641,88.4331055 193.262695,87.0366211 195.141602,87.0366211 C196.98877,87.0366211 198.112305,88.3505859 198.112305,90.4770508 L198.112305,90.8959961 L193.192871,90.8959961 L193.192871,90.9467773 C193.25,92.2988281 194.005371,93.1557617 195.166992,93.1557617 C196.049316,93.1557617 196.645996,92.8320312 196.931641,92.2290039 Z"/>
    <mask id="c-err-d" fill="#fff">
      <use xlink:href="#c-err-c"/>
    </mask>
    <use fill="#A4000F" xlink:href="#c-err-c"/>
    <path fill="#FFF" d="M221.187125,93 L220.408317,90.7817383 L217.325309,90.7817383 L216.5465,93 L215.531364,93 L218.388785,85.2495117 L219.34484,85.2495117 L222.202262,93 L221.187125,93 Z M218.823844,86.5009766 L217.609977,89.9599609 L220.123649,89.9599609 L218.909782,86.5009766 L218.823844,86.5009766 Z M227.911735,88.9824219 C227.750602,87.9511719 226.891227,87.1079102 225.484,87.1079102 C223.86193,87.1079102 222.83068,88.2788086 222.83068,90.0834961 C222.83068,91.9257812 223.867301,93.1020508 225.489371,93.1020508 C226.880485,93.1020508 227.745231,92.3178711 227.911735,91.2543945 L226.977164,91.2543945 C226.805289,91.909668 226.262809,92.2695312 225.484,92.2695312 C224.45275,92.2695312 223.786735,91.4208984 223.786735,90.0834961 C223.786735,88.7729492 224.442008,87.9404297 225.484,87.9404297 C226.31652,87.9404297 226.826774,88.4077148 226.977164,88.9824219 L227.911735,88.9824219 Z M229.770133,85.7114258 L229.770133,87.2099609 L228.835563,87.2099609 L228.835563,87.9833984 L229.770133,87.9833984 L229.770133,91.4960938 C229.770133,92.6025391 230.24816,93.0429688 231.440543,93.0429688 C231.62316,93.0429688 231.800407,93.0214844 231.983024,92.9892578 L231.983024,92.2104492 C231.811149,92.2265625 231.71984,92.2319336 231.553336,92.2319336 C230.951774,92.2319336 230.693961,91.9418945 230.693961,91.2597656 L230.693961,87.9833984 L231.983024,87.9833984 L231.983024,87.2099609 L230.693961,87.2099609 L230.693961,85.7114258 L229.770133,85.7114258 Z M233.400992,93 L234.324821,93 L234.324821,87.2099609 L233.400992,87.2099609 L233.400992,93 Z M233.862907,86.0336914 C234.217399,86.0336914 234.507438,85.7436523 234.507438,85.3891602 C234.507438,85.034668 234.217399,84.7446289 233.862907,84.7446289 C233.508414,84.7446289 233.218375,85.034668 233.218375,85.3891602 C233.218375,85.7436523 233.508414,86.0336914 233.862907,86.0336914 Z M238.465934,93.1020508 C236.817008,93.1020508 235.7965,91.9633789 235.7965,90.1049805 C235.7965,88.2412109 236.817008,87.1079102 238.465934,87.1079102 C240.11486,87.1079102 241.135367,88.2412109 241.135367,90.1049805 C241.135367,91.9633789 240.11486,93.1020508 238.465934,93.1020508 Z M238.465934,92.2695312 C239.561637,92.2695312 240.179313,91.4746094 240.179313,90.1049805 C240.179313,88.7299805 239.561637,87.9404297 238.465934,87.9404297 C237.370231,87.9404297 236.752555,88.7299805 236.752555,90.1049805 C236.752555,91.4746094 237.370231,92.2695312 238.465934,92.2695312 Z M242.585563,93 L243.509391,93 L243.509391,89.5732422 C243.509391,88.5581055 244.105582,87.9404297 245.02941,87.9404297 C245.953239,87.9404297 246.393668,88.4345703 246.393668,89.4765625 L246.393668,93 L247.317496,93 L247.317496,89.2509766 C247.317496,87.8759766 246.592399,87.1079102 245.292594,87.1079102 C244.406364,87.1079102 243.842399,87.4838867 243.55236,88.1230469 L243.466422,88.1230469 L243.466422,87.2099609 L242.585563,87.2099609 L242.585563,93 Z" mask="url(#c-err-d)"/>
    <path fill="#002D3E" d="M184.4 47.04C184.4 48.54 183.08 49 181.82 49L179.96 49 179.96 42.11 181.66 42.11C182.87 42.11 184.1 42.5 184.1 43.85 184.1 44.74 183.47 45.2 182.81 45.35 183.58 45.48 184.4 45.87 184.4 47.04zM183.21 43.9C183.21 43.11 182.69 42.82 181.86 42.82L180.83 42.82 180.83 45.04 181.94 45.04C182.75 45.04 183.21 44.7 183.21 43.9zM183.48 47.07C183.48 46.02 182.81 45.76 182 45.76L180.83 45.76 180.83 48.28 181.97 48.28C182.64 48.28 183.48 48.09 183.48 47.07zM189.78 47.85C189.78 48.27 189.91 48.43 190.21 48.52L190 49.12C189.55 49.06 189.18 48.85 189.04 48.37 188.66 48.86 188.07 49.11 187.39 49.11 186.33 49.11 185.69 48.47 185.69 47.49 185.69 46.41 186.56 45.8 188.15 45.8L188.93 45.8 188.93 45.37C188.93 44.6 188.46 44.32 187.68 44.32 187.33 44.32 186.85 44.4 186.31 44.59L186.08 43.95C186.73 43.72 187.29 43.62 187.81 43.62 189.12 43.62 189.78 44.28 189.78 45.32L189.78 47.85zM187.6 48.48C188.12 48.48 188.62 48.2 188.93 47.73L188.93 46.38 188.17 46.38C187.01 46.38 186.59 46.8 186.59 47.48 186.59 48.14 186.91 48.48 187.6 48.48zM194.39 48.39C194.92 48.39 195.36 48.2 195.76 47.93L196.16 48.48C195.71 48.87 195 49.11 194.39 49.11 192.81 49.11 191.91 48.04 191.91 46.39 191.91 44.81 192.82 43.62 194.39 43.62 195.07 43.62 195.66 43.83 196.15 44.24L195.74 44.79C195.29 44.49 194.85 44.33 194.38 44.33 193.47 44.33 192.82 45 192.82 46.39 192.82 47.8 193.48 48.39 194.39 48.39zM198.9 41.51L198.9 49 198.06 49 198.06 41.61 198.9 41.51zM202.41 43.73L200.05 46.11 202.69 49 201.58 49 198.99 46.12 201.33 43.73 202.41 43.73zM208.29 43.18L208.54 43.97C208.1 44.11 207.59 44.12 207 44.12 207.62 44.4 207.92 44.85 207.92 45.45 207.92 46.49 207.19 47.24 205.94 47.24 205.59 47.24 205.38 47.21 205.15 47.13 205 47.25 204.88 47.45 204.88 47.64 204.88 47.89 205.04 48.09 205.58 48.09L206.53 48.09C207.59 48.09 208.39 48.7 208.39 49.52 208.39 50.55 207.48 51.12 205.88 51.12 204.2 51.12 203.66 50.6 203.66 49.53L204.42 49.53C204.42 50.15 204.7 50.44 205.88 50.44 207.03 50.44 207.54 50.14 207.54 49.57 207.54 49.07 207.03 48.82 206.36 48.82L205.42 48.82C204.5 48.82 204.09 48.35 204.09 47.82 204.09 47.49 204.29 47.15 204.67 46.9 204.07 46.59 203.79 46.13 203.79 45.45 203.79 44.38 204.64 43.62 205.89 43.62 207.21 43.62 207.67 43.44 208.29 43.18zM205.88 44.24C205.03 44.24 204.65 44.74 204.65 45.45 204.65 46.17 205.04 46.68 205.9 46.68 206.65 46.68 207.05 46.22 207.05 45.44 207.05 44.65 206.66 44.24 205.88 44.24zM213.56 43.62C213.85 43.62 214.07 43.67 214.3 43.73L214.18 45.52 213.5 45.52 213.5 44.39 213.45 44.39C212.64 44.39 212.06 44.97 211.72 46.13L211.72 48.35 212.79 48.35 212.79 49 210.05 49 210.05 48.35 210.88 48.35 210.88 44.38 210.05 44.38 210.05 43.73 211.51 43.73 211.67 44.98C212.07 44.12 212.61 43.62 213.56 43.62zM218.01 43.62C219.49 43.62 220.27 44.7 220.27 46.36 220.27 47.98 219.47 49.11 218 49.11 216.52 49.11 215.73 48.03 215.73 46.37 215.73 44.75 216.53 43.62 218.01 43.62zM218.01 44.31C217.1 44.31 216.64 44.97 216.64 46.37 216.64 47.77 217.09 48.42 218 48.42 218.91 48.42 219.36 47.77 219.36 46.36 219.36 44.97 218.91 44.31 218.01 44.31zM222.84 43.73L222.84 47.47C222.84 48.15 223.12 48.45 223.73 48.45 224.31 48.45 224.87 48.06 225.16 47.61L225.16 43.73 226 43.73 226 49 225.28 49 225.21 48.29C224.79 48.82 224.14 49.11 223.52 49.11 222.5 49.11 222 48.54 222 47.56L222 43.73 222.84 43.73zM228 49L228 43.73 228.72 43.73 228.79 44.47C229.21 43.93 229.91 43.62 230.53 43.62 231.56 43.62 232.01 44.2 232.01 45.18L232.01 49 231.17 49 231.17 45.8C231.17 44.72 231.06 44.29 230.27 44.29 229.65 44.29 229.12 44.75 228.84 45.17L228.84 49 228 49zM237.16 41.51L238 41.61 238 49 237.26 49 237.18 48.31C236.79 48.86 236.26 49.11 235.69 49.11 234.31 49.11 233.68 48.01 233.68 46.37 233.68 44.79 234.45 43.62 235.74 43.62 236.35 43.62 236.8 43.84 237.16 44.25L237.16 41.51zM235.96 44.3C235.09 44.3 234.59 44.98 234.59 46.37 234.59 47.74 235.03 48.44 235.86 48.44 236.46 48.44 236.87 48.04 237.16 47.6L237.16 44.98C236.87 44.55 236.45 44.3 235.96 44.3zM248.39 48.39C248.92 48.39 249.36 48.2 249.76 47.93L250.16 48.48C249.71 48.87 249 49.11 248.39 49.11 246.81 49.11 245.91 48.04 245.91 46.39 245.91 44.81 246.82 43.62 248.39 43.62 249.07 43.62 249.66 43.83 250.15 44.24L249.74 44.79C249.29 44.49 248.85 44.33 248.38 44.33 247.47 44.33 246.82 45 246.82 46.39 246.82 47.8 247.48 48.39 248.39 48.39zM254.01 43.62C255.49 43.62 256.27 44.7 256.27 46.36 256.27 47.98 255.47 49.11 254 49.11 252.52 49.11 251.73 48.03 251.73 46.37 251.73 44.75 252.53 43.62 254.01 43.62zM254.01 44.31C253.1 44.31 252.64 44.97 252.64 46.37 252.64 47.77 253.09 48.42 254 48.42 254.91 48.42 255.36 47.77 255.36 46.36 255.36 44.97 254.91 44.31 254.01 44.31zM260.06 41.61L260.06 47.7C260.06 48.22 260.42 48.41 260.93 48.41 261.24 48.41 261.52 48.34 261.81 48.23L262.03 48.84C261.75 48.99 261.32 49.11 260.78 49.11 259.85 49.11 259.22 48.57 259.22 47.66L259.22 42.28 257.6 42.28 257.6 41.61 260.06 41.61zM266.01 43.62C267.49 43.62 268.27 44.7 268.27 46.36 268.27 47.98 267.47 49.11 266 49.11 264.52 49.11 263.73 48.03 263.73 46.37 263.73 44.75 264.53 43.62 266.01 43.62zM266.01 44.31C265.1 44.31 264.64 44.97 264.64 46.37 264.64 47.77 265.09 48.42 266 48.42 266.91 48.42 267.36 47.77 267.36 46.36 267.36 44.97 266.91 44.31 266.01 44.31zM273.56 43.62C273.85 43.62 274.07 43.67 274.3 43.73L274.18 45.52 273.5 45.52 273.5 44.39 273.45 44.39C272.64 44.39 272.06 44.97 271.72 46.13L271.72 48.35 272.79 48.35 272.79 49 270.05 49 270.05 48.35 270.88 48.35 270.88 44.38 270.05 44.38 270.05 43.73 271.51 43.73 271.67 44.98C272.07 44.12 272.61 43.62 273.56 43.62zM277.19 44.69C277.19 44.25 277.53 43.89 277.99 43.89 278.46 43.89 278.8 44.25 278.8 44.69 278.8 45.14 278.46 45.51 277.99 45.51 277.53 45.51 277.19 45.14 277.19 44.69zM277.19 48.3C277.19 47.86 277.53 47.49 277.99 47.49 278.46 47.49 278.8 47.86 278.8 48.3 278.8 48.76 278.46 49.11 277.99 49.11 277.53 49.11 277.19 48.76 277.19 48.3zM184.37 56.05C184.37 57.08 183.64 57.71 182.69 57.95L184.74 61 183.7 61 181.81 58.05 180.88 58.05 180.88 61 180.02 61 180.02 54.11 181.78 54.11C183.48 54.11 184.37 54.77 184.37 56.05zM183.45 56.05C183.45 55.16 182.94 54.81 181.88 54.81L180.88 54.81 180.88 57.37 181.89 57.37C182.88 57.37 183.45 57 183.45 56.05zM186.67 58.66C186.71 59.88 187.39 60.41 188.2 60.41 188.74 60.41 189.14 60.25 189.61 59.94L190 60.5C189.51 60.88 188.85 61.11 188.2 61.11 186.66 61.11 185.79 60.01 185.79 58.37 185.79 56.78 186.68 55.62 188.08 55.62 189.41 55.62 190.23 56.61 190.23 58.21 190.23 58.39 190.22 58.55 190.21 58.66L186.67 58.66zM188.09 56.31C187.31 56.31 186.74 56.86 186.67 58.02L189.41 58.02C189.39 56.89 188.89 56.31 188.09 56.31zM195.16 53.51L196 53.61 196 61 195.26 61 195.18 60.31C194.79 60.86 194.26 61.11 193.69 61.11 192.31 61.11 191.68 60.01 191.68 58.37 191.68 56.79 192.45 55.62 193.74 55.62 194.35 55.62 194.8 55.84 195.16 56.25L195.16 53.51zM193.96 56.3C193.09 56.3 192.59 56.98 192.59 58.37 192.59 59.74 193.03 60.44 193.86 60.44 194.46 60.44 194.87 60.04 195.16 59.6L195.16 56.98C194.87 56.55 194.45 56.3 193.96 56.3zM198.25 58.23L198.25 57.51 201.75 57.51 201.75 58.23 198.25 58.23zM205.3 61.09L204.52 60.86 207.2 54.81 203.97 54.81 203.97 54.11 208.05 54.11 208.05 54.76 205.3 61.09zM212 54C213.48 54 214.25 55.27 214.25 57.55 214.25 59.84 213.48 61.11 212 61.11 210.52 61.11 209.75 59.84 209.75 57.55 209.75 55.27 210.52 54 212 54zM212 54.68C211.15 54.68 210.63 55.52 210.63 57.55 210.63 59.59 211.15 60.43 212 60.43 212.86 60.43 213.37 59.59 213.37 57.55 213.37 55.52 212.86 54.68 212 54.68zM212 56.9C212.38 56.9 212.66 57.19 212.66 57.55 212.66 57.92 212.38 58.21 212 58.21 211.63 58.21 211.35 57.92 211.35 57.55 211.35 57.19 211.63 56.9 212 56.9zM242.4 123.04C242.4 124.54 241.08 125 239.82 125L237.96 125 237.96 118.11 239.66 118.11C240.87 118.11 242.1 118.5 242.1 119.85 242.1 120.74 241.47 121.2 240.81 121.35 241.58 121.48 242.4 121.87 242.4 123.04zM241.21 119.9C241.21 119.11 240.69 118.82 239.86 118.82L238.83 118.82 238.83 121.04 239.94 121.04C240.75 121.04 241.21 120.7 241.21 119.9zM241.48 123.07C241.48 122.02 240.81 121.76 240 121.76L238.83 121.76 238.83 124.28 239.97 124.28C240.64 124.28 241.48 124.09 241.48 123.07zM247.78 123.85C247.78 124.27 247.91 124.43 248.21 124.52L248 125.12C247.55 125.06 247.18 124.85 247.04 124.37 246.66 124.86 246.07 125.11 245.39 125.11 244.33 125.11 243.69 124.47 243.69 123.49 243.69 122.41 244.56 121.8 246.15 121.8L246.93 121.8 246.93 121.37C246.93 120.6 246.46 120.32 245.68 120.32 245.33 120.32 244.85 120.4 244.31 120.59L244.08 119.95C244.73 119.72 245.29 119.62 245.81 119.62 247.12 119.62 247.78 120.28 247.78 121.32L247.78 123.85zM245.6 124.48C246.12 124.48 246.62 124.2 246.93 123.73L246.93 122.38 246.17 122.38C245.01 122.38 244.59 122.8 244.59 123.48 244.59 124.14 244.91 124.48 245.6 124.48zM252.39 124.39C252.92 124.39 253.36 124.2 253.76 123.93L254.16 124.48C253.71 124.87 253 125.11 252.39 125.11 250.81 125.11 249.91 124.04 249.91 122.39 249.91 120.81 250.82 119.62 252.39 119.62 253.07 119.62 253.66 119.83 254.15 120.24L253.74 120.79C253.29 120.49 252.85 120.33 252.38 120.33 251.47 120.33 250.82 121 250.82 122.39 250.82 123.8 251.48 124.39 252.39 124.39zM256.9 117.51L256.9 125 256.06 125 256.06 117.61 256.9 117.51zM260.41 119.73L258.05 122.11 260.69 125 259.58 125 256.99 122.12 259.33 119.73 260.41 119.73zM266.29 119.18L266.54 119.97C266.1 120.11 265.59 120.12 265 120.12 265.62 120.4 265.92 120.85 265.92 121.45 265.92 122.49 265.19 123.24 263.94 123.24 263.59 123.24 263.38 123.21 263.15 123.13 263 123.25 262.88 123.45 262.88 123.64 262.88 123.89 263.04 124.09 263.58 124.09L264.53 124.09C265.59 124.09 266.39 124.7 266.39 125.52 266.39 126.55 265.48 127.12 263.88 127.12 262.2 127.12 261.66 126.6 261.66 125.53L262.42 125.53C262.42 126.15 262.7 126.44 263.88 126.44 265.03 126.44 265.54 126.14 265.54 125.57 265.54 125.07 265.03 124.82 264.36 124.82L263.42 124.82C262.5 124.82 262.09 124.35 262.09 123.82 262.09 123.49 262.29 123.15 262.67 122.9 262.07 122.59 261.79 122.13 261.79 121.45 261.79 120.38 262.64 119.62 263.89 119.62 265.21 119.62 265.67 119.44 266.29 119.18zM263.88 120.24C263.03 120.24 262.65 120.74 262.65 121.45 262.65 122.17 263.04 122.68 263.9 122.68 264.65 122.68 265.05 122.22 265.05 121.44 265.05 120.65 264.66 120.24 263.88 120.24zM271.56 119.62C271.85 119.62 272.07 119.67 272.3 119.73L272.18 121.52 271.5 121.52 271.5 120.39 271.45 120.39C270.64 120.39 270.06 120.97 269.72 122.13L269.72 124.35 270.79 124.35 270.79 125 268.05 125 268.05 124.35 268.88 124.35 268.88 120.38 268.05 120.38 268.05 119.73 269.51 119.73 269.67 120.98C270.07 120.12 270.61 119.62 271.56 119.62zM276.01 119.62C277.49 119.62 278.27 120.7 278.27 122.36 278.27 123.98 277.47 125.11 276 125.11 274.52 125.11 273.73 124.03 273.73 122.37 273.73 120.75 274.53 119.62 276.01 119.62zM276.01 120.31C275.1 120.31 274.64 120.97 274.64 122.37 274.64 123.77 275.09 124.42 276 124.42 276.91 124.42 277.36 123.77 277.36 122.36 277.36 120.97 276.91 120.31 276.01 120.31zM280.84 119.73L280.84 123.47C280.84 124.15 281.12 124.45 281.73 124.45 282.31 124.45 282.87 124.06 283.16 123.61L283.16 119.73 284 119.73 284 125 283.28 125 283.21 124.29C282.79 124.82 282.14 125.11 281.52 125.11 280.5 125.11 280 124.54 280 123.56L280 119.73 280.84 119.73zM286 125L286 119.73 286.72 119.73 286.79 120.47C287.21 119.93 287.91 119.62 288.53 119.62 289.56 119.62 290.01 120.2 290.01 121.18L290.01 125 289.17 125 289.17 121.8C289.17 120.72 289.06 120.29 288.27 120.29 287.65 120.29 287.12 120.75 286.84 121.17L286.84 125 286 125zM295.16 117.51L296 117.61 296 125 295.26 125 295.18 124.31C294.79 124.86 294.26 125.11 293.69 125.11 292.31 125.11 291.68 124.01 291.68 122.37 291.68 120.79 292.45 119.62 293.74 119.62 294.35 119.62 294.8 119.84 295.16 120.25L295.16 117.51zM293.96 120.3C293.09 120.3 292.59 120.98 292.59 122.37 292.59 123.74 293.03 124.44 293.86 124.44 294.46 124.44 294.87 124.04 295.16 123.6L295.16 120.98C294.87 120.55 294.45 120.3 293.96 120.3zM306.39 124.39C306.92 124.39 307.36 124.2 307.76 123.93L308.16 124.48C307.71 124.87 307 125.11 306.39 125.11 304.81 125.11 303.91 124.04 303.91 122.39 303.91 120.81 304.82 119.62 306.39 119.62 307.07 119.62 307.66 119.83 308.15 120.24L307.74 120.79C307.29 120.49 306.85 120.33 306.38 120.33 305.47 120.33 304.82 121 304.82 122.39 304.82 123.8 305.48 124.39 306.39 124.39zM312.01 119.62C313.49 119.62 314.27 120.7 314.27 122.36 314.27 123.98 313.47 125.11 312 125.11 310.52 125.11 309.73 124.03 309.73 122.37 309.73 120.75 310.53 119.62 312.01 119.62zM312.01 120.31C311.1 120.31 310.64 120.97 310.64 122.37 310.64 123.77 311.09 124.42 312 124.42 312.91 124.42 313.36 123.77 313.36 122.36 313.36 120.97 312.91 120.31 312.01 120.31zM318.06 117.61L318.06 123.7C318.06 124.22 318.42 124.41 318.93 124.41 319.24 124.41 319.52 124.34 319.81 124.23L320.03 124.84C319.75 124.99 319.32 125.11 318.78 125.11 317.85 125.11 317.22 124.57 317.22 123.66L317.22 118.28 315.6 118.28 315.6 117.61 318.06 117.61zM324.01 119.62C325.49 119.62 326.27 120.7 326.27 122.36 326.27 123.98 325.47 125.11 324 125.11 322.52 125.11 321.73 124.03 321.73 122.37 321.73 120.75 322.53 119.62 324.01 119.62zM324.01 120.31C323.1 120.31 322.64 120.97 322.64 122.37 322.64 123.77 323.09 124.42 324 124.42 324.91 124.42 325.36 123.77 325.36 122.36 325.36 120.97 324.91 120.31 324.01 120.31zM331.56 119.62C331.85 119.62 332.07 119.67 332.3 119.73L332.18 121.52 331.5 121.52 331.5 120.39 331.45 120.39C330.64 120.39 330.06 120.97 329.72 122.13L329.72 124.35 330.79 124.35 330.79 125 328.05 125 328.05 124.35 328.88 124.35 328.88 120.38 328.05 120.38 328.05 119.73 329.51 119.73 329.67 120.98C330.07 120.12 330.61 119.62 331.56 119.62zM335.19 120.69C335.19 120.25 335.53 119.89 335.99 119.89 336.46 119.89 336.8 120.25 336.8 120.69 336.8 121.14 336.46 121.51 335.99 121.51 335.53 121.51 335.19 121.14 335.19 120.69zM335.19 124.3C335.19 123.86 335.53 123.49 335.99 123.49 336.46 123.49 336.8 123.86 336.8 124.3 336.8 124.76 336.46 125.11 335.99 125.11 335.53 125.11 335.19 124.76 335.19 124.3zM242.37 132.05C242.37 133.08 241.64 133.71 240.69 133.95L242.74 137 241.7 137 239.81 134.05 238.88 134.05 238.88 137 238.02 137 238.02 130.11 239.78 130.11C241.48 130.11 242.37 130.77 242.37 132.05zM241.45 132.05C241.45 131.16 240.94 130.81 239.88 130.81L238.88 130.81 238.88 133.37 239.89 133.37C240.88 133.37 241.45 133 241.45 132.05zM244.67 134.66C244.71 135.88 245.39 136.41 246.2 136.41 246.74 136.41 247.14 136.25 247.61 135.94L248 136.5C247.51 136.88 246.85 137.11 246.2 137.11 244.66 137.11 243.79 136.01 243.79 134.37 243.79 132.78 244.68 131.62 246.08 131.62 247.41 131.62 248.23 132.61 248.23 134.21 248.23 134.39 248.22 134.55 248.21 134.66L244.67 134.66zM246.09 132.31C245.31 132.31 244.74 132.86 244.67 134.02L247.41 134.02C247.39 132.89 246.89 132.31 246.09 132.31zM253.16 129.51L254 129.61 254 137 253.26 137 253.18 136.31C252.79 136.86 252.26 137.11 251.69 137.11 250.31 137.11 249.68 136.01 249.68 134.37 249.68 132.79 250.45 131.62 251.74 131.62 252.35 131.62 252.8 131.84 253.16 132.25L253.16 129.51zM251.96 132.3C251.09 132.3 250.59 132.98 250.59 134.37 250.59 135.74 251.03 136.44 251.86 136.44 252.46 136.44 252.87 136.04 253.16 135.6L253.16 132.98C252.87 132.55 252.45 132.3 251.96 132.3zM256.25 134.23L256.25 133.51 259.75 133.51 259.75 134.23 256.25 134.23zM264.3 132.52C265.35 132.52 266.25 133.21 266.25 134.68 266.25 136.21 265.28 137.11 264.08 137.11 262.41 137.11 261.79 135.8 261.79 133.75 261.79 131.46 262.74 130 264.35 130 264.89 130 265.33 130.15 265.72 130.41L265.39 130.97C265.07 130.78 264.72 130.68 264.34 130.68 263.28 130.68 262.67 131.76 262.64 133.44 263.07 132.79 263.62 132.52 264.3 132.52zM264.08 136.43C264.95 136.43 265.39 135.77 265.39 134.71 265.39 133.58 264.89 133.2 264.17 133.2 263.51 133.2 262.99 133.6 262.65 134.18 262.68 135.73 263.1 136.43 264.08 136.43zM270 130C271.48 130 272.25 131.27 272.25 133.55 272.25 135.84 271.48 137.11 270 137.11 268.52 137.11 267.75 135.84 267.75 133.55 267.75 131.27 268.52 130 270 130zM270 130.68C269.15 130.68 268.63 131.52 268.63 133.55 268.63 135.59 269.15 136.43 270 136.43 270.86 136.43 271.37 135.59 271.37 133.55 271.37 131.52 270.86 130.68 270 130.68zM270 132.9C270.38 132.9 270.66 133.19 270.66 133.55 270.66 133.92 270.38 134.21 270 134.21 269.63 134.21 269.35 133.92 269.35 133.55 269.35 133.19 269.63 132.9 270 132.9z"/>
  </g>
</svg>
