<svg xmlns="http://www.w3.org/2000/svg" xmlns:xlink="http://www.w3.org/1999/xlink" width="380" height="180" viewBox="0 0 380 180">
  <defs>
    <path id="c-succ-a" d="M7.22254109,5.98945674 L11.7593901,1.45260771 C12.0842229,1.11628355 12.0795773,0.581679455 11.7489489,0.251051076 C11.4183205,-0.0795773034 10.8837165,-0.0842228685 10.5473923,0.240609874 L6.01054326,4.77745891 L1.47369422,0.240609874 C1.13737006,-0.0842228685 0.602765966,-0.0795773034 0.272137586,0.251051076 C-0.0584907931,0.581679455 -0.0631363582,1.11628355 0.261696384,1.45260771 L4.79854542,5.98945674 L0.261696384,10.5263058 C0.0388768524,10.7415121 -0.0504852845,11.0602002 0.0279563816,11.359882 C0.106398048,11.6595638 0.340436167,11.893602 0.640118002,11.9720436 C0.939799836,12.0504853 1.25848791,11.9611231 1.47369422,11.7383036 L6.01054326,7.20145458 L10.5473923,11.7383036 C10.8837165,12.0631364 11.4183205,12.0584908 11.7489489,11.7278624 C12.0795773,11.397234 12.0842229,10.8626299 11.7593901,10.5263058 L7.22254109,5.98945674 Z"/>
    <path id="c-succ-c" d="M3.99375545,11.9989024 C3.72815873,11.9988457 3.47346086,11.8933935 3.28568398,11.7057404 L0.281137443,8.70408197 C-0.0984091032,8.31148617 -0.0929810538,7.68743549 0.293337329,7.30148846 C0.679655711,6.91554142 1.30430684,6.91011859 1.69728038,7.2893003 L3.85754934,9.44749271 L10.1831213,0.419504703 C10.5022164,-0.0272991976 11.1220373,-0.13387488 11.5722906,0.180642683 C12.0225439,0.495160246 12.1351219,1.11334196 11.8246052,1.56613822 L4.81399665,11.5716663 C4.645093,11.8155968 4.376564,11.9720882 4.0808873,11.9989024 C4.05186182,12.0003659 4.02278092,12.0003659 3.99375545,11.9989024 Z"/>
    <rect id="c-succ-e" width="49" height="24" x="207.57" y="77" rx="2"/>
  </defs>
  <g fill="none" fill-rule="evenodd">
    <path fill="#22E800" d="M292.248679,109 L288.248679,105 L284.248679,109 L233.334,109 L233.334,109 C232.229431,109 231.334,109.895431 231.334,111 L231.334,141.893416 C231.334,142.997986 232.229431,143.893416 233.334,143.893416 L233.334,143.893416 L343.163358,143.893416 C344.267928,143.893416 345.163358,142.997986 345.163358,141.893416 L345.163358,111 C345.163358,109.895431 344.267928,109 343.163358,109 L292.248679,109 Z"/>
    <path fill="#002D3E" d="M241.264,122.05 C241.264,121.04 240.614,120.78 239.824,120.78 L238.704,120.78 L238.704,123.23 L239.784,123.23 C240.454,123.23 241.264,123.04 241.264,122.05 Z M240.994,118.91 C240.994,118.15 240.494,117.86 239.674,117.86 L238.704,117.86 L238.704,120.02 L239.754,120.02 C240.554,120.02 240.994,119.69 240.994,118.91 Z M242.264,122.03 C242.264,123.54 240.944,124 239.654,124 L237.754,124 L237.754,117.11 L239.504,117.11 C240.734,117.11 241.964,117.5 241.964,118.85 C241.964,119.73 241.344,120.19 240.764,120.32 L240.764,120.36 C241.454,120.49 242.264,120.89 242.264,122.03 Z M247.654,120.33 L247.654,122.81 C247.654,123.23 247.784,123.39 248.074,123.48 L247.854,124.12 C247.384,124.06 247.014,123.85 246.854,123.38 C246.484,123.88 245.834,124.12 245.194,124.12 C244.134,124.12 243.454,123.47 243.454,122.49 C243.454,121.4 244.364,120.79 245.964,120.79 L246.734,120.79 L246.734,120.38 C246.734,119.64 246.274,119.36 245.504,119.36 C245.154,119.36 244.664,119.44 244.124,119.63 L243.884,118.95 C244.534,118.71 245.124,118.61 245.644,118.61 C246.984,118.61 247.654,119.26 247.654,120.33 Z M245.444,123.43 C245.944,123.43 246.434,123.16 246.734,122.7 L246.734,121.4 L246.014,121.4 C244.884,121.4 244.464,121.81 244.464,122.45 C244.464,123.1 244.784,123.43 245.444,123.43 Z M252.194,123.34 C251.314,123.34 250.674,122.77 250.674,121.39 C250.674,120.02 251.304,119.37 252.194,119.37 C252.654,119.37 253.104,119.5 253.534,119.82 L253.984,119.2 C253.494,118.79 252.874,118.61 252.194,118.61 C250.604,118.61 249.684,119.8 249.684,121.39 C249.684,123.04 250.594,124.12 252.184,124.12 C252.784,124.12 253.494,123.92 253.984,123.52 L253.544,122.89 C253.114,123.21 252.634,123.34 252.194,123.34 Z M256.724,124 L256.724,116.5 L255.804,116.61 L255.804,124 L256.724,124 Z M259.264,124 L260.444,124 L257.934,121.1 L260.184,118.73 L259.034,118.73 L256.814,121.12 L259.264,124 Z M261.534,124.06 L262.244,124.25 C262.194,124.36 262.154,124.5 262.154,124.66 C262.154,125.13 262.604,125.41 263.654,125.41 C264.824,125.41 265.174,125.05 265.174,124.6 C265.174,124.16 264.884,123.93 263.914,123.89 C262.594,123.84 261.874,123.55 261.874,122.82 C261.874,122.49 262.054,122.17 262.404,121.93 C261.874,121.62 261.564,121.1 261.564,120.46 C261.564,119.42 262.374,118.61 263.664,118.61 C264.814,118.61 265.504,118.4 266.084,118.14 L266.354,118.97 C265.914,119.11 265.414,119.13 264.874,119.13 L264.874,119.16 C265.394,119.4 265.714,119.88 265.714,120.47 C265.714,121.49 264.934,122.25 263.684,122.25 C263.444,122.25 263.174,122.22 262.954,122.16 C262.824,122.27 262.734,122.44 262.734,122.57 C262.734,122.89 262.934,123.05 264.034,123.08 C265.364,123.12 266.104,123.59 266.104,124.55 C266.104,125.65 265.004,126.13 263.654,126.13 C261.994,126.13 261.334,125.59 261.334,124.83 C261.334,124.59 261.364,124.32 261.534,124.06 Z M262.504,120.46 C262.504,121.15 262.944,121.64 263.664,121.64 C264.384,121.64 264.804,121.17 264.804,120.45 C264.804,119.7 264.404,119.27 263.664,119.27 C262.934,119.27 262.504,119.78 262.504,120.46 Z M271.354,123.29 L269.884,123.29 L269.884,120.91 C270.064,120.18 270.604,119.51 271.264,119.51 C271.484,119.51 271.644,119.53 271.904,119.6 L272.074,118.69 C271.774,118.63 271.624,118.61 271.374,118.61 C270.754,118.61 270.174,119 269.874,119.74 L269.764,118.73 L267.754,118.73 L267.754,119.44 L268.964,119.44 L268.964,123.29 L267.754,123.29 L267.754,124 L271.354,124 L271.354,123.29 Z M277.154,121.36 C277.154,119.99 276.714,119.35 275.844,119.35 C274.964,119.35 274.514,119.99 274.514,121.37 C274.514,122.74 274.954,123.38 275.834,123.38 C276.714,123.38 277.154,122.74 277.154,121.36 Z M273.534,121.37 C273.534,119.74 274.344,118.61 275.844,118.61 C277.344,118.61 278.134,119.69 278.134,121.36 C278.134,122.99 277.324,124.12 275.834,124.12 C274.334,124.12 273.534,123.04 273.534,121.37 Z M279.804,118.73 L279.804,122.56 C279.804,123.54 280.304,124.12 281.324,124.12 C281.944,124.12 282.594,123.83 283.004,123.3 L283.074,124 L283.864,124 L283.864,118.73 L282.944,118.73 L282.944,122.59 C282.664,123.03 282.124,123.4 281.574,123.4 C280.994,123.4 280.724,123.13 280.724,122.45 L280.724,118.73 L279.804,118.73 Z M286.724,124 L286.724,120.18 C287.004,119.77 287.514,119.33 288.084,119.33 C288.854,119.33 288.954,119.74 288.954,120.77 L288.954,124 L289.874,124 L289.874,120.17 C289.874,119.19 289.414,118.61 288.394,118.61 C287.774,118.61 287.094,118.91 286.664,119.45 L286.594,118.73 L285.804,118.73 L285.804,124 L286.724,124 Z M293.794,119.34 C292.954,119.34 292.474,120 292.474,121.37 C292.474,122.73 292.904,123.39 293.694,123.39 C294.254,123.39 294.664,123.01 294.944,122.58 L294.944,119.99 C294.664,119.58 294.264,119.34 293.794,119.34 Z M293.554,118.61 C294.144,118.61 294.594,118.82 294.944,119.22 L294.944,116.5 L295.864,116.61 L295.864,124 L295.054,124 L294.974,123.32 C294.594,123.86 294.074,124.12 293.484,124.12 C292.114,124.12 291.484,123.01 291.484,121.37 C291.484,119.78 292.254,118.61 293.554,118.61 Z M306.194,123.34 C305.314,123.34 304.674,122.77 304.674,121.39 C304.674,120.02 305.304,119.37 306.194,119.37 C306.654,119.37 307.104,119.5 307.534,119.82 L307.984,119.2 C307.494,118.79 306.874,118.61 306.194,118.61 C304.604,118.61 303.684,119.8 303.684,121.39 C303.684,123.04 304.594,124.12 306.184,124.12 C306.784,124.12 307.494,123.92 307.984,123.52 L307.544,122.89 C307.114,123.21 306.634,123.34 306.194,123.34 Z M313.154,121.36 C313.154,119.99 312.714,119.35 311.844,119.35 C310.964,119.35 310.514,119.99 310.514,121.37 C310.514,122.74 310.954,123.38 311.834,123.38 C312.714,123.38 313.154,122.74 313.154,121.36 Z M309.534,121.37 C309.534,119.74 310.344,118.61 311.844,118.61 C313.344,118.61 314.134,119.69 314.134,121.36 C314.134,122.99 313.324,124.12 311.834,124.12 C310.334,124.12 309.534,123.04 309.534,121.37 Z M319.554,123.18 C319.274,123.29 318.964,123.36 318.684,123.36 C318.184,123.36 317.834,123.17 317.834,122.66 L317.834,116.61 L315.304,116.61 L315.304,117.32 L316.914,117.32 L316.914,122.58 C316.914,123.55 317.544,124.12 318.514,124.12 C319.014,124.12 319.544,123.98 319.794,123.84 L319.554,123.18 Z M325.154,121.36 C325.154,119.99 324.714,119.35 323.844,119.35 C322.964,119.35 322.514,119.99 322.514,121.37 C322.514,122.74 322.954,123.38 323.834,123.38 C324.714,123.38 325.154,122.74 325.154,121.36 Z M321.534,121.37 C321.534,119.74 322.344,118.61 323.844,118.61 C325.344,118.61 326.134,119.69 326.134,121.36 C326.134,122.99 325.324,124.12 323.834,124.12 C322.334,124.12 321.534,123.04 321.534,121.37 Z M331.354,123.29 L329.884,123.29 L329.884,120.91 C330.064,120.18 330.604,119.51 331.264,119.51 C331.484,119.51 331.644,119.53 331.904,119.6 L332.074,118.69 C331.774,118.63 331.624,118.61 331.374,118.61 C330.754,118.61 330.174,119 329.874,119.74 L329.764,118.73 L327.754,118.73 L327.754,119.44 L328.964,119.44 L328.964,123.29 L327.754,123.29 L327.754,124 L331.354,124 L331.354,123.29 Z M334.994,123.28 C334.994,123.75 335.354,124.12 335.824,124.12 C336.304,124.12 336.664,123.75 336.664,123.28 C336.664,122.83 336.304,122.45 335.824,122.45 C335.354,122.45 334.994,122.83 334.994,123.28 Z M334.994,119.69 C334.994,120.15 335.354,120.53 335.824,120.53 C336.304,120.53 336.664,120.15 336.664,119.69 C336.664,119.23 336.304,118.86 335.824,118.86 C335.354,118.86 334.994,119.23 334.994,119.69 Z M239.984,136.12 C240.954,136.12 241.624,135.86 242.254,135.51 L242.254,132.21 L239.904,132.21 L240.014,132.98 L241.314,132.98 L241.314,135.02 C240.934,135.23 240.514,135.34 240.054,135.34 C238.884,135.34 238.274,134.53 238.274,132.55 C238.274,130.47 239.204,129.77 240.174,129.77 C240.754,129.77 241.194,129.95 241.614,130.34 L242.174,129.76 C241.624,129.26 241.094,128.99 240.164,128.99 C238.684,128.99 237.264,130.18 237.264,132.55 C237.264,134.93 238.314,136.12 239.984,136.12 Z M247.354,135.29 L245.884,135.29 L245.884,132.91 C246.064,132.18 246.604,131.51 247.264,131.51 C247.484,131.51 247.644,131.53 247.904,131.6 L248.074,130.69 C247.774,130.63 247.624,130.61 247.374,130.61 C246.754,130.61 246.174,131 245.874,131.74 L245.764,130.73 L243.754,130.73 L243.754,131.44 L244.964,131.44 L244.964,135.29 L243.754,135.29 L243.754,136 L247.354,136 L247.354,135.29 Z M254.074,133.68 L250.544,133.68 C250.624,134.85 251.254,135.37 252.054,135.37 C252.534,135.37 253.004,135.25 253.454,134.88 L253.874,135.49 C253.384,135.88 252.714,136.12 252.034,136.12 C250.464,136.12 249.584,135.01 249.584,133.37 C249.584,131.78 250.484,130.61 251.884,130.61 C253.264,130.61 254.094,131.6 254.094,133.21 C254.094,133.39 254.084,133.56 254.074,133.68 Z M251.884,131.34 C251.164,131.34 250.614,131.87 250.544,133 L253.204,133 C253.184,131.91 252.704,131.34 251.884,131.34 Z M260.074,133.68 L256.544,133.68 C256.624,134.85 257.254,135.37 258.054,135.37 C258.534,135.37 259.004,135.25 259.454,134.88 L259.874,135.49 C259.384,135.88 258.714,136.12 258.034,136.12 C256.464,136.12 255.584,135.01 255.584,133.37 C255.584,131.78 256.484,130.61 257.884,130.61 C259.264,130.61 260.094,131.6 260.094,133.21 C260.094,133.39 260.084,133.56 260.074,133.68 Z M257.884,131.34 C257.164,131.34 256.614,131.87 256.544,133 L259.204,133 C259.184,131.91 258.704,131.34 257.884,131.34 Z M262.724,136 L262.724,132.18 C263.004,131.77 263.514,131.33 264.084,131.33 C264.854,131.33 264.954,131.74 264.954,132.77 L264.954,136 L265.874,136 L265.874,132.17 C265.874,131.19 265.414,130.61 264.394,130.61 C263.774,130.61 263.094,130.91 262.664,131.45 L262.594,130.73 L261.804,130.73 L261.804,136 L262.724,136 Z M271.604,133.26 L271.604,132.48 L268.064,132.48 L268.064,133.26 L271.604,133.26 Z M278.024,133.8 C278.024,132.47 277.224,131.63 276.074,131.63 C275.754,131.63 275.364,131.69 275.004,131.87 L275.004,129.84 L277.644,129.84 L277.754,129.11 L274.124,129.11 L274.124,132.58 L274.844,132.58 C275.154,132.43 275.504,132.35 275.804,132.35 C276.524,132.35 277.064,132.73 277.064,133.79 C277.064,134.75 276.524,135.37 275.634,135.37 C275.074,135.37 274.614,135.18 274.224,134.71 L273.604,135.23 C274.134,135.86 274.854,136.12 275.644,136.12 C277.054,136.12 278.024,135.12 278.024,133.8 Z M281.834,135.39 C282.674,135.39 283.164,134.57 283.164,132.55 C283.164,130.54 282.674,129.72 281.834,129.72 C281.004,129.72 280.504,130.54 280.504,132.55 C280.504,134.57 281.004,135.39 281.834,135.39 Z M281.834,136.12 C280.334,136.12 279.554,134.84 279.554,132.55 C279.554,130.27 280.334,128.99 281.834,128.99 C283.334,128.99 284.114,130.27 284.114,132.55 C284.114,134.84 283.334,136.12 281.834,136.12 Z M281.184,132.55 C281.184,132.19 281.464,131.9 281.834,131.9 C282.214,131.9 282.494,132.19 282.494,132.55 C282.494,132.92 282.214,133.21 281.834,133.21 C281.464,133.21 281.184,132.92 281.184,132.55 Z"/>
    <path fill="#22E800" d="M90.8340002,109 L86.8340002,105 L82.8340002,109 L50.3340002,109 L50.3340002,109 C49.2294307,109 48.3340002,109.895431 48.3340002,111 L48.3340002,142 C48.3340002,143.104569 49.2294307,144 50.3340002,144 L123.334,144 C124.43857,144 125.334,143.104569 125.334,142 L125.334,111 C125.334,109.895431 124.43857,109 123.334,109 L90.8340002,109 Z"/>
    <path fill="#002D3E" d="M59.3540002,117.91 L59.4540002,117.11 L54.2140002,117.11 L54.2140002,117.91 L56.3440002,117.91 L56.3440002,124 L57.2940002,124 L57.2940002,117.91 L59.3540002,117.91 Z M65.0740002,121.68 L61.5440002,121.68 C61.6240002,122.85 62.2540002,123.37 63.0540002,123.37 C63.5340002,123.37 64.0040002,123.25 64.4540002,122.88 L64.8740002,123.49 C64.3840002,123.88 63.7140002,124.12 63.0340002,124.12 C61.4640002,124.12 60.5840002,123.01 60.5840002,121.37 C60.5840002,119.78 61.4840002,118.61 62.8840002,118.61 C64.2640002,118.61 65.0940002,119.6 65.0940002,121.21 C65.0940002,121.39 65.0840002,121.56 65.0740002,121.68 Z M62.8840002,119.34 C62.1640002,119.34 61.6140002,119.87 61.5440002,121 L64.2040002,121 C64.1840002,119.91 63.7040002,119.34 62.8840002,119.34 Z M68.8240002,121.8 L70.2040002,124 L71.3140002,124 L69.3840002,121.18 L71.0740002,118.73 L70.0340002,118.73 L68.8640002,120.63 L68.8240002,120.63 L67.6640002,118.73 L66.5840002,118.73 L68.2840002,121.22 L66.3540002,124 L67.3940002,124 L68.7840002,121.8 L68.8240002,121.8 Z M76.8040002,123.1 C76.5340002,123.26 76.1940002,123.36 75.8040002,123.36 C75.1040002,123.36 74.8240002,123.07 74.8240002,122.48 L74.8240002,119.43 L76.5240002,119.43 L76.6340002,118.73 L74.8240002,118.73 L74.8240002,117.43 L73.9040002,117.54 L73.9040002,118.73 L72.7040002,118.73 L72.7040002,119.43 L73.9040002,119.43 L73.9040002,122.49 C73.9040002,123.45 74.5440002,124.12 75.7040002,124.12 C76.2240002,124.12 76.7840002,123.97 77.1540002,123.73 L76.8040002,123.1 Z M87.1940002,123.34 C86.3140002,123.34 85.6740002,122.77 85.6740002,121.39 C85.6740002,120.02 86.3040002,119.37 87.1940002,119.37 C87.6540002,119.37 88.1040002,119.5 88.5340002,119.82 L88.9840002,119.2 C88.4940002,118.79 87.8740002,118.61 87.1940002,118.61 C85.6040002,118.61 84.6840002,119.8 84.6840002,121.39 C84.6840002,123.04 85.5940002,124.12 87.1840002,124.12 C87.7840002,124.12 88.4940002,123.92 88.9840002,123.52 L88.5440002,122.89 C88.1140002,123.21 87.6340002,123.34 87.1940002,123.34 Z M94.1540002,121.36 C94.1540002,119.99 93.7140002,119.35 92.8440002,119.35 C91.9640002,119.35 91.5140002,119.99 91.5140002,121.37 C91.5140002,122.74 91.9540002,123.38 92.8340002,123.38 C93.7140002,123.38 94.1540002,122.74 94.1540002,121.36 Z M90.5340002,121.37 C90.5340002,119.74 91.3440002,118.61 92.8440002,118.61 C94.3440002,118.61 95.1340002,119.69 95.1340002,121.36 C95.1340002,122.99 94.3240002,124.12 92.8340002,124.12 C91.3340002,124.12 90.5340002,123.04 90.5340002,121.37 Z M100.554,123.18 C100.274,123.29 99.9640002,123.36 99.6840002,123.36 C99.1840002,123.36 98.8340002,123.17 98.8340002,122.66 L98.8340002,116.61 L96.3040002,116.61 L96.3040002,117.32 L97.9140002,117.32 L97.9140002,122.58 C97.9140002,123.55 98.5440002,124.12 99.5140002,124.12 C100.014,124.12 100.544,123.98 100.794,123.84 L100.554,123.18 Z M106.154,121.36 C106.154,119.99 105.714,119.35 104.844,119.35 C103.964,119.35 103.514,119.99 103.514,121.37 C103.514,122.74 103.954,123.38 104.834,123.38 C105.714,123.38 106.154,122.74 106.154,121.36 Z M102.534,121.37 C102.534,119.74 103.344,118.61 104.844,118.61 C106.344,118.61 107.134,119.69 107.134,121.36 C107.134,122.99 106.324,124.12 104.834,124.12 C103.334,124.12 102.534,123.04 102.534,121.37 Z M112.354,123.29 L110.884,123.29 L110.884,120.91 C111.064,120.18 111.604,119.51 112.264,119.51 C112.484,119.51 112.644,119.53 112.904,119.6 L113.074,118.69 C112.774,118.63 112.624,118.61 112.374,118.61 C111.754,118.61 111.174,119 110.874,119.74 L110.764,118.73 L108.754,118.73 L108.754,119.44 L109.964,119.44 L109.964,123.29 L108.754,123.29 L108.754,124 L112.354,124 L112.354,123.29 Z M115.994,123.28 C115.994,123.75 116.354,124.12 116.824,124.12 C117.304,124.12 117.664,123.75 117.664,123.28 C117.664,122.83 117.304,122.45 116.824,122.45 C116.354,122.45 115.994,122.83 115.994,123.28 Z M115.994,119.69 C115.994,120.15 116.354,120.53 116.824,120.53 C117.304,120.53 117.664,120.15 117.664,119.69 C117.664,119.23 117.304,118.86 116.824,118.86 C116.354,118.86 115.994,119.23 115.994,119.69 Z M56.9840002,136.12 C57.9540002,136.12 58.6240002,135.86 59.2540002,135.51 L59.2540002,132.21 L56.9040002,132.21 L57.0140002,132.98 L58.3140002,132.98 L58.3140002,135.02 C57.9340002,135.23 57.5140002,135.34 57.0540002,135.34 C55.8840002,135.34 55.2740002,134.53 55.2740002,132.55 C55.2740002,130.47 56.2040002,129.77 57.1740002,129.77 C57.7540002,129.77 58.1940002,129.95 58.6140002,130.34 L59.1740002,129.76 C58.6240002,129.26 58.0940002,128.99 57.1640002,128.99 C55.6840002,128.99 54.2640002,130.18 54.2640002,132.55 C54.2640002,134.93 55.3140002,136.12 56.9840002,136.12 Z M64.3540002,135.29 L62.8840002,135.29 L62.8840002,132.91 C63.0640002,132.18 63.6040002,131.51 64.2640002,131.51 C64.4840002,131.51 64.6440002,131.53 64.9040002,131.6 L65.0740002,130.69 C64.7740002,130.63 64.6240002,130.61 64.3740002,130.61 C63.7540002,130.61 63.1740002,131 62.8740002,131.74 L62.7640002,130.73 L60.7540002,130.73 L60.7540002,131.44 L61.9640002,131.44 L61.9640002,135.29 L60.7540002,135.29 L60.7540002,136 L64.3540002,136 L64.3540002,135.29 Z M71.0740002,133.68 L67.5440002,133.68 C67.6240002,134.85 68.2540002,135.37 69.0540002,135.37 C69.5340002,135.37 70.0040002,135.25 70.4540002,134.88 L70.8740002,135.49 C70.3840002,135.88 69.7140002,136.12 69.0340002,136.12 C67.4640002,136.12 66.5840002,135.01 66.5840002,133.37 C66.5840002,131.78 67.4840002,130.61 68.8840002,130.61 C70.2640002,130.61 71.0940002,131.6 71.0940002,133.21 C71.0940002,133.39 71.0840002,133.56 71.0740002,133.68 Z M68.8840002,131.34 C68.1640002,131.34 67.6140002,131.87 67.5440002,133 L70.2040002,133 C70.1840002,131.91 69.7040002,131.34 68.8840002,131.34 Z M77.0740002,133.68 L73.5440002,133.68 C73.6240002,134.85 74.2540002,135.37 75.0540002,135.37 C75.5340002,135.37 76.0040002,135.25 76.4540002,134.88 L76.8740002,135.49 C76.3840002,135.88 75.7140002,136.12 75.0340002,136.12 C73.4640002,136.12 72.5840002,135.01 72.5840002,133.37 C72.5840002,131.78 73.4840002,130.61 74.8840002,130.61 C76.2640002,130.61 77.0940002,131.6 77.0940002,133.21 C77.0940002,133.39 77.0840002,133.56 77.0740002,133.68 Z M74.8840002,131.34 C74.1640002,131.34 73.6140002,131.87 73.5440002,133 L76.2040002,133 C76.1840002,131.91 75.7040002,131.34 74.8840002,131.34 Z M79.7240002,136 L79.7240002,132.18 C80.0040002,131.77 80.5140002,131.33 81.0840002,131.33 C81.8540002,131.33 81.9540002,131.74 81.9540002,132.77 L81.9540002,136 L82.8740002,136 L82.8740002,132.17 C82.8740002,131.19 82.4140002,130.61 81.3940002,130.61 C80.7740002,130.61 80.0940002,130.91 79.6640002,131.45 L79.5940002,130.73 L78.8040002,130.73 L78.8040002,136 L79.7240002,136 Z M88.6040002,133.26 L88.6040002,132.48 L85.0640002,132.48 L85.0640002,133.26 L88.6040002,133.26 Z M91.1340002,135.53 C92.9040002,135.06 94.0040002,134.03 94.1240002,132.65 L94.1040002,132.64 C93.8240002,133.09 93.2940002,133.47 92.5340002,133.47 C91.4040002,133.47 90.5440002,132.59 90.5440002,131.26 C90.5440002,129.86 91.6140002,128.99 92.8340002,128.99 C94.2940002,128.99 95.1140002,130.11 95.1140002,131.67 C95.1140002,134.33 93.8640002,135.53 91.3440002,136.22 L91.1340002,135.53 Z M94.1540002,131.8 C94.1440002,130.39 93.7440002,129.72 92.8140002,129.72 C92.0540002,129.72 91.4740002,130.22 91.4740002,131.28 C91.4740002,132.29 92.0340002,132.74 92.7040002,132.74 C93.3740002,132.74 93.8240002,132.38 94.1540002,131.8 Z M98.8340002,135.39 C99.6740002,135.39 100.164,134.57 100.164,132.55 C100.164,130.54 99.6740002,129.72 98.8340002,129.72 C98.0040002,129.72 97.5040002,130.54 97.5040002,132.55 C97.5040002,134.57 98.0040002,135.39 98.8340002,135.39 Z M98.8340002,136.12 C97.3340002,136.12 96.5540002,134.84 96.5540002,132.55 C96.5540002,130.27 97.3340002,128.99 98.8340002,128.99 C100.334,128.99 101.114,130.27 101.114,132.55 C101.114,134.84 100.334,136.12 98.8340002,136.12 Z M98.1840002,132.55 C98.1840002,132.19 98.4640002,131.9 98.8340002,131.9 C99.2140002,131.9 99.4940002,132.19 99.4940002,132.55 C99.4940002,132.92 99.2140002,133.21 98.8340002,133.21 C98.4640002,133.21 98.1840002,132.92 98.1840002,132.55 Z"/>
    <g transform="translate(173 34)">
      <path fill="#F5A623" d="M53.3552631,34.8934161 L53.2486792,35 L57.2486792,39 L61.2486792,35 L61.1420953,34.8934161 L112.163358,34.8934161 C113.267928,34.8934161 114.163358,33.9979856 114.163358,32.8934161 L114.163358,2 C114.163358,0.8954305 113.267928,-2.02906125e-16 112.163358,0 L2.33400024,0 L2.33400024,0 C1.22943074,2.02906125e-16 0.334000243,0.8954305 0.334000243,2 L0.334000243,2 L0.334000243,32.8934161 C0.334000243,33.9979856 1.22943074,34.8934161 2.33400024,34.8934161 L2.33400024,34.8934161 L53.3552631,34.8934161 Z"/>
      <text fill="#002D3E" font-family="FiraMonoOT, Fira Mono OT" font-size="10">
        <tspan x="5.834" y="15">Background color:</tspan> <tspan x="5.834" y="27">Green-60</tspan>
      </text>
    </g>
    <rect width="285" height="32" x="47.5" y="73" fill="#30E60B" rx="3"/>
    <g transform="translate(304.5 77)">
      <rect width="24" height="24"/>
      <g transform="translate(6 6)">
        <mask id="c-succ-b" fill="#fff">
          <use xlink:href="#c-succ-a"/>
        </mask>
        <use fill="#0C0C0D" fill-opacity=".8" fill-rule="nonzero" xlink:href="#c-succ-a"/>
        <g fill="#003706" mask="url(#c-succ-b)">
          <rect width="200" height="200" transform="translate(-89 -91)"/>
        </g>
      </g>
    </g>
    <g transform="translate(51.5 77)">
      <rect width="24" height="24"/>
      <g transform="translate(6 6)">
        <mask id="c-succ-d" fill="#fff">
          <use xlink:href="#c-succ-c"/>
        </mask>
        <use fill="#0C0C0D" fill-opacity=".8" fill-rule="nonzero" xlink:href="#c-succ-c"/>
        <g fill="#003706" mask="url(#c-succ-d)">
          <rect width="200" height="200" transform="translate(-91 -92)"/>
        </g>
      </g>
    </g>
    <path fill="#003706" d="M89.6943359,94 L89.6943359,84.840332 L88.3676758,84.840332 L85.2319336,92.4194336 L85.1303711,92.4194336 L81.9946289,84.840332 L80.6679688,84.840332 L80.6679688,94 L81.734375,94 L81.734375,87.0048828 L81.8105469,87.0048828 L84.6987305,93.9365234 L85.6635742,93.9365234 L88.5517578,87.0048828 L88.6279297,87.0048828 L88.6279297,94 L89.6943359,94 Z M94.6201172,88.0014648 C93.5283203,88.0014648 92.7666016,88.8012695 92.684082,90.0136719 L96.4545898,90.0136719 C96.4291992,88.8012695 95.7055664,88.0014648 94.6201172,88.0014648 Z M96.4228516,92.2290039 L97.5146484,92.2290039 C97.1845703,93.4033203 96.1308594,94.1206055 94.6328125,94.1206055 C92.7348633,94.1206055 91.5478516,92.7495117 91.5478516,90.5849609 C91.5478516,88.4331055 92.7539062,87.0366211 94.6328125,87.0366211 C96.4799805,87.0366211 97.6035156,88.3505859 97.6035156,90.4770508 L97.6035156,90.8959961 L92.684082,90.8959961 L92.684082,90.9467773 C92.7412109,92.2988281 93.496582,93.1557617 94.6582031,93.1557617 C95.5405273,93.1557617 96.137207,92.8320312 96.4228516,92.2290039 Z M99.1586914,89.0297852 C99.1586914,90.0200195 99.7426758,90.5722656 101.024902,90.8833008 L102.199219,91.1689453 C102.929199,91.3466797 103.284668,91.6640625 103.284668,92.1337891 C103.284668,92.762207 102.624512,93.2001953 101.704102,93.2001953 C100.828125,93.2001953 100.282227,92.8320312 100.098145,92.2543945 L98.9746094,92.2543945 C99.0952148,93.390625 100.142578,94.1206055 101.666016,94.1206055 C103.221191,94.1206055 104.408203,93.2763672 104.408203,92.0512695 C104.408203,91.0673828 103.786133,90.5087891 102.497559,90.1977539 L101.443848,89.9438477 C100.637695,89.7470703 100.256836,89.4550781 100.256836,88.9853516 C100.256836,88.3759766 100.891602,87.9633789 101.704102,87.9633789 C102.529297,87.9633789 103.0625,88.3251953 103.208496,88.8710938 L104.287598,88.8710938 C104.141602,87.7475586 103.14502,87.0366211 101.710449,87.0366211 C100.256836,87.0366211 99.1586914,87.8935547 99.1586914,89.0297852 Z M105.836426,89.0297852 C105.836426,90.0200195 106.42041,90.5722656 107.702637,90.8833008 L108.876953,91.1689453 C109.606934,91.3466797 109.962402,91.6640625 109.962402,92.1337891 C109.962402,92.762207 109.302246,93.2001953 108.381836,93.2001953 C107.505859,93.2001953 106.959961,92.8320312 106.775879,92.2543945 L105.652344,92.2543945 C105.772949,93.390625 106.820312,94.1206055 108.34375,94.1206055 C109.898926,94.1206055 111.085938,93.2763672 111.085938,92.0512695 C111.085938,91.0673828 110.463867,90.5087891 109.175293,90.1977539 L108.121582,89.9438477 C107.31543,89.7470703 106.93457,89.4550781 106.93457,88.9853516 C106.93457,88.3759766 107.569336,87.9633789 108.381836,87.9633789 C109.207031,87.9633789 109.740234,88.3251953 109.88623,88.8710938 L110.965332,88.8710938 C110.819336,87.7475586 109.822754,87.0366211 108.388184,87.0366211 C106.93457,87.0366211 105.836426,87.8935547 105.836426,89.0297852 Z M114.907227,93.1621094 C116.030762,93.1621094 116.862305,92.4257812 116.862305,91.4482422 L116.862305,90.8198242 L115.021484,90.9404297 C113.980469,91.0102539 113.523438,91.3720703 113.523438,92.0576172 C113.523438,92.7558594 114.11377,93.1621094 114.907227,93.1621094 Z M114.704102,94.1206055 C113.377441,94.1206055 112.393555,93.3334961 112.393555,92.0830078 C112.393555,90.8579102 113.294922,90.1533203 114.888184,90.0581055 L116.862305,89.9375 L116.862305,89.3154297 C116.862305,88.4711914 116.335449,88.0078125 115.313477,88.0078125 C114.494629,88.0078125 113.92334,88.3188477 113.770996,88.8583984 L112.666504,88.8583984 C112.8125,87.7602539 113.891602,87.0366211 115.351562,87.0366211 C117.020996,87.0366211 117.954102,87.8935547 117.954102,89.3154297 L117.954102,94 L116.913086,94 L116.913086,92.9907227 L116.811523,92.9907227 C116.367188,93.7207031 115.618164,94.1206055 114.704102,94.1206055 Z M122.740234,92.9335938 C124.009766,92.9335938 124.771484,91.96875 124.771484,90.4770508 C124.771484,88.9853516 124.003418,88.0205078 122.740234,88.0205078 C121.470703,88.0205078 120.759766,88.9853516 120.759766,90.4770508 C120.759766,91.96875 121.470703,92.9335938 122.740234,92.9335938 Z M122.791016,96.6279297 C121.140625,96.6279297 120.086914,95.8852539 119.921875,94.7553711 L121.077148,94.7553711 C121.197754,95.3139648 121.807129,95.6757812 122.791016,95.6757812 C124.016113,95.6757812 124.746094,95.0727539 124.746094,94.0634766 L124.746094,92.7177734 L124.644531,92.7177734 C124.212891,93.4731445 123.438477,93.8984375 122.499023,93.8984375 C120.728027,93.8984375 119.629883,92.5273438 119.629883,90.4770508 C119.629883,88.4267578 120.740723,87.0366211 122.499023,87.0366211 C123.45752,87.0366211 124.301758,87.5063477 124.695312,88.2426758 L124.796875,88.2426758 L124.796875,87.1572266 L125.837891,87.1572266 L125.837891,94.1206055 C125.837891,95.6503906 124.657227,96.6279297 122.791016,96.6279297 Z M130.624023,88.0014648 C129.532227,88.0014648 128.770508,88.8012695 128.687988,90.0136719 L132.458496,90.0136719 C132.433105,88.8012695 131.709473,88.0014648 130.624023,88.0014648 Z M132.426758,92.2290039 L133.518555,92.2290039 C133.188477,93.4033203 132.134766,94.1206055 130.636719,94.1206055 C128.73877,94.1206055 127.551758,92.7495117 127.551758,90.5849609 C127.551758,88.4331055 128.757812,87.0366211 130.636719,87.0366211 C132.483887,87.0366211 133.607422,88.3505859 133.607422,90.4770508 L133.607422,90.8959961 L128.687988,90.8959961 L128.687988,90.9467773 C128.745117,92.2988281 129.500488,93.1557617 130.662109,93.1557617 C131.544434,93.1557617 132.141113,92.8320312 132.426758,92.2290039 Z M141.757812,92.9335938 C143.027344,92.9335938 143.789062,91.96875 143.789062,90.4770508 C143.789062,88.9853516 143.020996,88.0205078 141.757812,88.0205078 C140.488281,88.0205078 139.777344,88.9853516 139.777344,90.4770508 C139.777344,91.96875 140.488281,92.9335938 141.757812,92.9335938 Z M141.808594,96.6279297 C140.158203,96.6279297 139.104492,95.8852539 138.939453,94.7553711 L140.094727,94.7553711 C140.215332,95.3139648 140.824707,95.6757812 141.808594,95.6757812 C143.033691,95.6757812 143.763672,95.0727539 143.763672,94.0634766 L143.763672,92.7177734 L143.662109,92.7177734 C143.230469,93.4731445 142.456055,93.8984375 141.516602,93.8984375 C139.745605,93.8984375 138.647461,92.5273438 138.647461,90.4770508 C138.647461,88.4267578 139.758301,87.0366211 141.516602,87.0366211 C142.475098,87.0366211 143.319336,87.5063477 143.712891,88.2426758 L143.814453,88.2426758 L143.814453,87.1572266 L144.855469,87.1572266 L144.855469,94.1206055 C144.855469,95.6503906 143.674805,96.6279297 141.808594,96.6279297 Z M149.724121,94.1206055 C147.775391,94.1206055 146.569336,92.7749023 146.569336,90.5786133 C146.569336,88.3759766 147.775391,87.0366211 149.724121,87.0366211 C151.672852,87.0366211 152.878906,88.3759766 152.878906,90.5786133 C152.878906,92.7749023 151.672852,94.1206055 149.724121,94.1206055 Z M149.724121,93.1367188 C151.019043,93.1367188 151.749023,92.1972656 151.749023,90.5786133 C151.749023,88.9536133 151.019043,88.0205078 149.724121,88.0205078 C148.429199,88.0205078 147.699219,88.9536133 147.699219,90.5786133 C147.699219,92.1972656 148.429199,93.1367188 149.724121,93.1367188 Z M157.322266,88.0014648 C156.230469,88.0014648 155.46875,88.8012695 155.38623,90.0136719 L159.156738,90.0136719 C159.131348,88.8012695 158.407715,88.0014648 157.322266,88.0014648 Z M159.125,92.2290039 L160.216797,92.2290039 C159.886719,93.4033203 158.833008,94.1206055 157.334961,94.1206055 C155.437012,94.1206055 154.25,92.7495117 154.25,90.5849609 C154.25,88.4331055 155.456055,87.0366211 157.334961,87.0366211 C159.182129,87.0366211 160.305664,88.3505859 160.305664,90.4770508 L160.305664,90.8959961 L155.38623,90.8959961 L155.38623,90.9467773 C155.443359,92.2988281 156.19873,93.1557617 157.360352,93.1557617 C158.242676,93.1557617 158.839355,92.8320312 159.125,92.2290039 Z M161.86084,89.0297852 C161.86084,90.0200195 162.444824,90.5722656 163.727051,90.8833008 L164.901367,91.1689453 C165.631348,91.3466797 165.986816,91.6640625 165.986816,92.1337891 C165.986816,92.762207 165.32666,93.2001953 164.40625,93.2001953 C163.530273,93.2001953 162.984375,92.8320312 162.800293,92.2543945 L161.676758,92.2543945 C161.797363,93.390625 162.844727,94.1206055 164.368164,94.1206055 C165.92334,94.1206055 167.110352,93.2763672 167.110352,92.0512695 C167.110352,91.0673828 166.488281,90.5087891 165.199707,90.1977539 L164.145996,89.9438477 C163.339844,89.7470703 162.958984,89.4550781 162.958984,88.9853516 C162.958984,88.3759766 163.59375,87.9633789 164.40625,87.9633789 C165.231445,87.9633789 165.764648,88.3251953 165.910645,88.8710938 L166.989746,88.8710938 C166.84375,87.7475586 165.847168,87.0366211 164.412598,87.0366211 C162.958984,87.0366211 161.86084,87.8935547 161.86084,89.0297852 Z M172.556641,94 L173.648438,94 L173.648438,89.9501953 C173.648438,88.7949219 174.321289,88.0205078 175.546387,88.0205078 C176.581055,88.0205078 177.126953,88.6235352 177.126953,89.8359375 L177.126953,94 L178.21875,94 L178.21875,89.5693359 C178.21875,87.9633789 177.304688,87.0366211 175.857422,87.0366211 C174.810059,87.0366211 174.092773,87.480957 173.75,88.2363281 L173.648438,88.2363281 L173.648438,84.4404297 L172.556641,84.4404297 L172.556641,94 Z M182.941406,88.0014648 C181.849609,88.0014648 181.087891,88.8012695 181.005371,90.0136719 L184.775879,90.0136719 C184.750488,88.8012695 184.026855,88.0014648 182.941406,88.0014648 Z M184.744141,92.2290039 L185.835938,92.2290039 C185.505859,93.4033203 184.452148,94.1206055 182.954102,94.1206055 C181.056152,94.1206055 179.869141,92.7495117 179.869141,90.5849609 C179.869141,88.4331055 181.075195,87.0366211 182.954102,87.0366211 C184.80127,87.0366211 185.924805,88.3505859 185.924805,90.4770508 L185.924805,90.8959961 L181.005371,90.8959961 L181.005371,90.9467773 C181.0625,92.2988281 181.817871,93.1557617 182.979492,93.1557617 C183.861816,93.1557617 184.458496,92.8320312 184.744141,92.2290039 Z M187.638672,94 L188.730469,94 L188.730469,89.7597656 C188.730469,88.7949219 189.48584,88.0966797 190.526855,88.0966797 C190.742676,88.0966797 191.13623,88.1347656 191.225098,88.1601562 L191.225098,87.0683594 C191.085449,87.0493164 190.856934,87.0366211 190.679199,87.0366211 C189.771484,87.0366211 188.984375,87.5063477 188.78125,88.1728516 L188.679688,88.1728516 L188.679688,87.1572266 L187.638672,87.1572266 L187.638672,94 Z M195.128906,88.0014648 C194.037109,88.0014648 193.275391,88.8012695 193.192871,90.0136719 L196.963379,90.0136719 C196.937988,88.8012695 196.214355,88.0014648 195.128906,88.0014648 Z M196.931641,92.2290039 L198.023438,92.2290039 C197.693359,93.4033203 196.639648,94.1206055 195.141602,94.1206055 C193.243652,94.1206055 192.056641,92.7495117 192.056641,90.5849609 C192.056641,88.4331055 193.262695,87.0366211 195.141602,87.0366211 C196.98877,87.0366211 198.112305,88.3505859 198.112305,90.4770508 L198.112305,90.8959961 L193.192871,90.8959961 L193.192871,90.9467773 C193.25,92.2988281 194.005371,93.1557617 195.166992,93.1557617 C196.049316,93.1557617 196.645996,92.8320312 196.931641,92.2290039 Z"/>
    <rect width="1" height="5" x="256.5" y="95" fill="#22E800"/>
    <rect width="1" height="5" x="304.5" y="95" fill="#22E800"/>
    <mask id="c-succ-f" fill="#fff">
      <use xlink:href="#c-succ-e"/>
    </mask>
    <use fill="#12BC00" xlink:href="#c-succ-e"/>
    <path fill="#003706" d="M221.832703,93 L221.053894,90.7817383 L217.970886,90.7817383 L217.192078,93 L216.176941,93 L219.034363,85.2495117 L219.990417,85.2495117 L222.847839,93 L221.832703,93 Z M219.469421,86.5009766 L218.255554,89.9599609 L220.769226,89.9599609 L219.555359,86.5009766 L219.469421,86.5009766 Z M228.557312,88.9824219 C228.396179,87.9511719 227.536804,87.1079102 226.129578,87.1079102 C224.507507,87.1079102 223.476257,88.2788086 223.476257,90.0834961 C223.476257,91.9257812 224.512878,93.1020508 226.134949,93.1020508 C227.526062,93.1020508 228.390808,92.3178711 228.557312,91.2543945 L227.622742,91.2543945 C227.450867,91.909668 226.908386,92.2695312 226.129578,92.2695312 C225.098328,92.2695312 224.432312,91.4208984 224.432312,90.0834961 C224.432312,88.7729492 225.087585,87.9404297 226.129578,87.9404297 C226.962097,87.9404297 227.472351,88.4077148 227.622742,88.9824219 L228.557312,88.9824219 Z M230.41571,85.7114258 L230.41571,87.2099609 L229.48114,87.2099609 L229.48114,87.9833984 L230.41571,87.9833984 L230.41571,91.4960938 C230.41571,92.6025391 230.893738,93.0429688 232.086121,93.0429688 C232.268738,93.0429688 232.445984,93.0214844 232.628601,92.9892578 L232.628601,92.2104492 C232.456726,92.2265625 232.365417,92.2319336 232.198914,92.2319336 C231.597351,92.2319336 231.339539,91.9418945 231.339539,91.2597656 L231.339539,87.9833984 L232.628601,87.9833984 L232.628601,87.2099609 L231.339539,87.2099609 L231.339539,85.7114258 L230.41571,85.7114258 Z M234.04657,93 L234.970398,93 L234.970398,87.2099609 L234.04657,87.2099609 L234.04657,93 Z M234.508484,86.0336914 C234.862976,86.0336914 235.153015,85.7436523 235.153015,85.3891602 C235.153015,85.034668 234.862976,84.7446289 234.508484,84.7446289 C234.153992,84.7446289 233.863953,85.034668 233.863953,85.3891602 C233.863953,85.7436523 234.153992,86.0336914 234.508484,86.0336914 Z M239.111511,93.1020508 C237.462585,93.1020508 236.442078,91.9633789 236.442078,90.1049805 C236.442078,88.2412109 237.462585,87.1079102 239.111511,87.1079102 C240.760437,87.1079102 241.780945,88.2412109 241.780945,90.1049805 C241.780945,91.9633789 240.760437,93.1020508 239.111511,93.1020508 Z M239.111511,92.2695312 C240.207214,92.2695312 240.82489,91.4746094 240.82489,90.1049805 C240.82489,88.7299805 240.207214,87.9404297 239.111511,87.9404297 C238.015808,87.9404297 237.398132,88.7299805 237.398132,90.1049805 C237.398132,91.4746094 238.015808,92.2695312 239.111511,92.2695312 Z M243.23114,93 L244.154968,93 L244.154968,89.5732422 C244.154968,88.5581055 244.75116,87.9404297 245.674988,87.9404297 C246.598816,87.9404297 247.039246,88.4345703 247.039246,89.4765625 L247.039246,93 L247.963074,93 L247.963074,89.2509766 C247.963074,87.8759766 247.237976,87.1079102 245.938171,87.1079102 C245.051941,87.1079102 244.487976,87.4838867 244.197937,88.1230469 L244.112,88.1230469 L244.112,87.2099609 L243.23114,87.2099609 L243.23114,93 Z" mask="url(#c-succ-f)"/>
  </g>
</svg>
