<svg xmlns="http://www.w3.org/2000/svg" xmlns:xlink="http://www.w3.org/1999/xlink" width="350" height="180" viewBox="0 0 350 180">
  <defs>
    <path id="dismissable-a" d="M7.22254109,5.98945674 L11.7593901,1.45260771 C12.0842229,1.11628355 12.0795773,0.581679455 11.7489489,0.251051076 C11.4183205,-0.0795773034 10.8837165,-0.0842228685 10.5473923,0.240609874 L6.01054326,4.77745891 L1.47369422,0.240609874 C1.13737006,-0.0842228685 0.602765966,-0.0795773034 0.272137586,0.251051076 C-0.0584907931,0.581679455 -0.0631363582,1.11628355 0.261696384,1.45260771 L4.79854542,5.98945674 L0.261696384,10.5263058 C0.0388768524,10.7415121 -0.0504852845,11.0602002 0.0279563816,11.359882 C0.106398048,11.6595638 0.340436167,11.893602 0.640118002,11.9720436 C0.939799836,12.0504853 1.25848791,11.9611231 1.47369422,11.7383036 L6.01054326,7.20145458 L10.5473923,11.7383036 C10.8837165,12.0631364 11.4183205,12.0584908 11.7489489,11.7278624 C12.0795773,11.397234 12.0842229,10.8626299 11.7593901,10.5263058 L7.22254109,5.98945674 Z"/>
  </defs>
  <g fill="none" fill-rule="evenodd">
    <rect width="250.359" height="32" x="49.82" y="74" fill="#00FEFF" fill-rule="nonzero" rx="3"/>
    <path fill="#002D3E" fill-rule="nonzero" d="M86.1808398,88.0366211 C87.9264453,88.0366211 89.0563281,89.4267578 89.0563281,91.5786133 C89.0563281,93.7177734 87.9200977,95.1206055 86.1808398,95.1206055 C85.2033008,95.1206055 84.4161914,94.6953125 84.0416797,93.9716797 L83.9401172,93.9716797 L83.9401172,97.2851562 L82.8483203,97.2851562 L82.8483203,88.1572266 L83.8893359,88.1572266 L83.8893359,89.2998047 L83.9908984,89.2998047 C84.4288867,88.5126953 85.2477344,88.0366211 86.1808398,88.0366211 Z M85.9205859,94.1367188 C87.1774219,94.1367188 87.9264453,93.1782227 87.9264453,91.5786133 C87.9264453,89.9790039 87.1774219,89.0205078 85.9269336,89.0205078 C84.6891406,89.0205078 83.9083789,90.0043945 83.9083789,91.5786133 C83.9083789,93.1464844 84.6891406,94.1367188 85.9205859,94.1367188 Z M90.8336719,95 L91.9254688,95 L91.9254688,90.9501953 C91.9254688,89.7949219 92.5983203,89.0205078 93.823418,89.0205078 C94.8580859,89.0205078 95.4039844,89.6235352 95.4039844,90.8359375 L95.4039844,95 L96.4957812,95 L96.4957812,90.5693359 C96.4957812,88.9633789 95.5817188,88.0366211 94.1344531,88.0366211 C93.0870898,88.0366211 92.3698047,88.480957 92.0270312,89.2363281 L91.9254688,89.2363281 L91.9254688,85.4404297 L90.8336719,85.4404297 L90.8336719,95 Z M101.300957,95.1206055 C99.3522266,95.1206055 98.1461719,93.7749023 98.1461719,91.5786133 C98.1461719,89.3759766 99.3522266,88.0366211 101.300957,88.0366211 C103.249687,88.0366211 104.455742,89.3759766 104.455742,91.5786133 C104.455742,93.7749023 103.249687,95.1206055 101.300957,95.1206055 Z M101.300957,94.1367188 C102.595879,94.1367188 103.325859,93.1972656 103.325859,91.5786133 C103.325859,89.9536133 102.595879,89.0205078 101.300957,89.0205078 C100.006035,89.0205078 99.2760547,89.9536133 99.2760547,91.5786133 C99.2760547,93.1972656 100.006035,94.1367188 101.300957,94.1367188 Z M106.626641,86.3862305 L106.626641,88.1572266 L105.522148,88.1572266 L105.522148,89.0712891 L106.626641,89.0712891 L106.626641,93.2226562 C106.626641,94.5302734 107.191582,95.0507812 108.600762,95.0507812 C108.816582,95.0507812 109.026055,95.0253906 109.241875,94.9873047 L109.241875,94.0668945 C109.03875,94.0859375 108.93084,94.0922852 108.734062,94.0922852 C108.023125,94.0922852 107.718437,93.7495117 107.718437,92.9433594 L107.718437,89.0712891 L109.241875,89.0712891 L109.241875,88.1572266 L107.718437,88.1572266 L107.718437,86.3862305 L106.626641,86.3862305 Z M113.609063,95.1206055 C111.660332,95.1206055 110.454277,93.7749023 110.454277,91.5786133 C110.454277,89.3759766 111.660332,88.0366211 113.609063,88.0366211 C115.557793,88.0366211 116.763848,89.3759766 116.763848,91.5786133 C116.763848,93.7749023 115.557793,95.1206055 113.609063,95.1206055 Z M113.609062,94.1367188 C114.903984,94.1367188 115.633965,93.1972656 115.633965,91.5786133 C115.633965,89.9536133 114.903984,89.0205078 113.609062,89.0205078 C112.314141,89.0205078 111.58416,89.9536133 111.58416,91.5786133 C111.58416,93.1972656 112.314141,94.1367188 113.609062,94.1367188 Z M118.477715,95 L119.569512,95 L119.569512,90.9501953 C119.569512,89.7504883 120.274102,89.0205078 121.365898,89.0205078 C122.457695,89.0205078 122.978203,89.6044922 122.978203,90.8359375 L122.978203,95 L124.07,95 L124.07,90.5693359 C124.07,88.9443359 123.213066,88.0366211 121.676934,88.0366211 C120.62957,88.0366211 119.963066,88.480957 119.620293,89.2363281 L119.518731,89.2363281 L119.518731,88.1572266 L118.477715,88.1572266 L118.477715,95 Z M130.963555,89.4458008 C130.112969,89.4458008 129.611504,90.105957 129.611504,91.2167969 C129.611504,92.3212891 130.119316,92.9941406 130.950859,92.9941406 C131.820488,92.9941406 132.379082,92.3022461 132.379082,91.2167969 C132.379082,90.1313477 131.826836,89.4458008 130.963555,89.4458008 Z M131.185723,85.8911133 C134.188164,85.8911133 136.276543,87.8081055 136.276543,90.5629883 C136.276543,92.6323242 135.349785,93.9462891 133.889824,93.9462891 C133.147148,93.9462891 132.569512,93.5019531 132.49334,92.8798828 L132.391777,92.8798828 C132.118828,93.5273438 131.547539,93.8891602 130.804863,93.8891602 C129.484551,93.8891602 128.595879,92.8037109 128.595879,91.1914062 C128.595879,89.6489258 129.503594,88.5698242 130.804863,88.5698242 C131.471367,88.5698242 132.042656,88.9125977 132.290215,89.4648438 L132.391777,89.4648438 L132.391777,88.6904297 L133.350273,88.6904297 L133.350273,92.4165039 C133.350273,92.8608398 133.610527,93.1210938 134.067559,93.1210938 C134.867363,93.1210938 135.381523,92.1118164 135.381523,90.550293 C135.381523,88.2587891 133.642266,86.690918 131.103203,86.690918 C128.62127,86.690918 126.837578,88.5825195 126.837578,91.2231445 C126.837578,93.9335938 128.589531,95.6791992 131.306328,95.6791992 C132.175957,95.6791992 133.032891,95.5585938 133.432793,95.3745117 L133.432793,96.1743164 C132.861504,96.3710938 132.093437,96.4853516 131.293633,96.4853516 C128.018242,96.4853516 125.942559,94.4287109 125.942559,91.1850586 C125.942559,88.0429688 128.075371,85.8911133 131.185723,85.8911133 Z M137.996758,95 L139.088555,95 L139.088555,90.7597656 C139.088555,89.7949219 139.780449,89.0205078 140.675469,89.0205078 C141.53875,89.0205078 142.103691,89.5410156 142.103691,90.3535156 L142.103691,95 L143.195488,95 L143.195488,90.6010742 C143.195488,89.7314453 143.830254,89.0205078 144.782402,89.0205078 C145.747246,89.0205078 146.22332,89.515625 146.22332,90.5249023 L146.22332,95 L147.315117,95 L147.315117,90.2709961 C147.315117,88.8364258 146.534356,88.0366211 145.137871,88.0366211 C144.19207,88.0366211 143.411309,88.5126953 143.043144,89.2363281 L142.941582,89.2363281 C142.624199,88.5253906 141.976738,88.0366211 141.049981,88.0366211 C140.135918,88.0366211 139.450371,88.4746094 139.139336,89.2363281 L139.037773,89.2363281 L139.037773,88.1572266 L137.996758,88.1572266 L137.996758,95 Z M152.120293,95.1206055 C150.171562,95.1206055 148.965508,93.7749023 148.965508,91.5786133 C148.965508,89.3759766 150.171562,88.0366211 152.120293,88.0366211 C154.069023,88.0366211 155.275078,89.3759766 155.275078,91.5786133 C155.275078,93.7749023 154.069023,95.1206055 152.120293,95.1206055 Z M152.120293,94.1367188 C153.415215,94.1367188 154.145195,93.1972656 154.145195,91.5786133 C154.145195,89.9536133 153.415215,89.0205078 152.120293,89.0205078 C150.825371,89.0205078 150.095391,89.9536133 150.095391,91.5786133 C150.095391,93.1972656 150.825371,94.1367188 152.120293,94.1367188 Z M156.639824,95 L161.908379,95 L161.908379,94.0859375 L157.960137,94.0859375 L157.960137,93.984375 L161.889336,88.9760742 L161.889336,88.1572266 L156.646172,88.1572266 L156.646172,89.0712891 L160.588066,89.0712891 L160.588066,89.1728516 L156.639824,94.2001953 L156.639824,95 Z M163.831719,95 L164.923516,95 L164.923516,88.1572266 L163.831719,88.1572266 L163.831719,95 Z M164.377617,86.7670898 C164.796562,86.7670898 165.139336,86.4243164 165.139336,86.0053711 C165.139336,85.5864258 164.796562,85.2436523 164.377617,85.2436523 C163.958672,85.2436523 163.615898,85.5864258 163.615898,86.0053711 C163.615898,86.4243164 163.958672,86.7670898 164.377617,86.7670898 Z M167.069023,95 L168.16082,95 L168.16082,85.4404297 L167.069023,85.4404297 L167.069023,95 Z M170.344414,95 L171.436211,95 L171.436211,85.4404297 L170.344414,85.4404297 L170.344414,95 Z M175.66375,94.1621094 C176.787285,94.1621094 177.618828,93.4257812 177.618828,92.4482422 L177.618828,91.8198242 L175.778008,91.9404297 C174.736992,92.0102539 174.279961,92.3720703 174.279961,93.0576172 C174.279961,93.7558594 174.870293,94.1621094 175.66375,94.1621094 Z M175.460625,95.1206055 C174.133965,95.1206055 173.150078,94.3334961 173.150078,93.0830078 C173.150078,91.8579102 174.051445,91.1533203 175.644707,91.0581055 L177.618828,90.9375 L177.618828,90.3154297 C177.618828,89.4711914 177.091973,89.0078125 176.07,89.0078125 C175.251152,89.0078125 174.679863,89.3188477 174.52752,89.8583984 L173.423027,89.8583984 C173.569023,88.7602539 174.648125,88.0366211 176.108086,88.0366211 C177.77752,88.0366211 178.710625,88.8935547 178.710625,90.3154297 L178.710625,95 L177.669609,95 L177.669609,93.9907227 L177.568047,93.9907227 C177.123711,94.7207031 176.374688,95.1206055 175.460625,95.1206055 Z M181.630547,95.0634766 C182.087578,95.0634766 182.455742,94.6889648 182.455742,94.2382812 C182.455742,93.78125 182.087578,93.4130859 181.630547,93.4130859 C181.179863,93.4130859 180.805352,93.78125 180.805352,94.2382812 C180.805352,94.6889648 181.179863,95.0634766 181.630547,95.0634766 Z M189.996758,90.2519531 C189.806328,89.0332031 188.790703,88.0366211 187.127617,88.0366211 C185.210625,88.0366211 183.991875,89.4204102 183.991875,91.5532227 C183.991875,93.7304688 185.216973,95.1206055 187.133965,95.1206055 C188.778008,95.1206055 189.79998,94.1938477 189.996758,92.9370117 L188.892266,92.9370117 C188.689141,93.7114258 188.048027,94.1367188 187.127617,94.1367188 C185.908867,94.1367188 185.121758,93.1337891 185.121758,91.5532227 C185.121758,90.0043945 185.896172,89.0205078 187.127617,89.0205078 C188.111504,89.0205078 188.714531,89.5727539 188.892266,90.2519531 L189.996758,90.2519531 Z M194.421074,95.1206055 C192.472344,95.1206055 191.266289,93.7749023 191.266289,91.5786133 C191.266289,89.3759766 192.472344,88.0366211 194.421074,88.0366211 C196.369805,88.0366211 197.575859,89.3759766 197.575859,91.5786133 C197.575859,93.7749023 196.369805,95.1206055 194.421074,95.1206055 Z M194.421074,94.1367188 C195.715996,94.1367188 196.445977,93.1972656 196.445977,91.5786133 C196.445977,89.9536133 195.715996,89.0205078 194.421074,89.0205078 C193.126152,89.0205078 192.396172,89.9536133 192.396172,91.5786133 C192.396172,93.1972656 193.126152,94.1367188 194.421074,94.1367188 Z M199.289727,95 L200.381523,95 L200.381523,90.7597656 C200.381523,89.7949219 201.073418,89.0205078 201.968438,89.0205078 C202.831719,89.0205078 203.39666,89.5410156 203.39666,90.3535156 L203.39666,95 L204.488457,95 L204.488457,90.6010742 C204.488457,89.7314453 205.123223,89.0205078 206.075371,89.0205078 C207.040215,89.0205078 207.516289,89.515625 207.516289,90.5249023 L207.516289,95 L208.608086,95 L208.608086,90.2709961 C208.608086,88.8364258 207.827324,88.0366211 206.43084,88.0366211 C205.485039,88.0366211 204.704277,88.5126953 204.336113,89.2363281 L204.234551,89.2363281 C203.917168,88.5253906 203.269707,88.0366211 202.342949,88.0366211 C201.428887,88.0366211 200.74334,88.4746094 200.432305,89.2363281 L200.330742,89.2363281 L200.330742,88.1572266 L199.289727,88.1572266 L199.289727,95 Z M219.932305,90.2519531 C219.741875,89.0332031 218.72625,88.0366211 217.063164,88.0366211 C215.146172,88.0366211 213.927422,89.4204102 213.927422,91.5532227 C213.927422,93.7304688 215.15252,95.1206055 217.069512,95.1206055 C218.713555,95.1206055 219.735527,94.1938477 219.932305,92.9370117 L218.827812,92.9370117 C218.624688,93.7114258 217.983574,94.1367188 217.063164,94.1367188 C215.844414,94.1367188 215.057305,93.1337891 215.057305,91.5532227 C215.057305,90.0043945 215.831719,89.0205078 217.063164,89.0205078 C218.047051,89.0205078 218.650078,89.5727539 218.827812,90.2519531 L219.932305,90.2519531 Z M221.544609,95 L222.636406,95 L222.636406,90.7597656 C222.636406,89.7949219 223.391777,89.0966797 224.432793,89.0966797 C224.648613,89.0966797 225.042168,89.1347656 225.131035,89.1601562 L225.131035,88.0683594 C224.991387,88.0493164 224.762871,88.0366211 224.585137,88.0366211 C223.677422,88.0366211 222.890312,88.5063477 222.687188,89.1728516 L222.585625,89.1728516 L222.585625,88.1572266 L221.544609,88.1572266 L221.544609,95 Z M229.034844,89.0014648 C227.943047,89.0014648 227.181328,89.8012695 227.098809,91.0136719 L230.869316,91.0136719 C230.843926,89.8012695 230.120293,89.0014648 229.034844,89.0014648 Z M230.837578,93.2290039 L231.929375,93.2290039 C231.599297,94.4033203 230.545586,95.1206055 229.047539,95.1206055 C227.14959,95.1206055 225.962578,93.7495117 225.962578,91.5849609 C225.962578,89.4331055 227.168633,88.0366211 229.047539,88.0366211 C230.894707,88.0366211 232.018242,89.3505859 232.018242,91.4770508 L232.018242,91.8959961 L227.098809,91.8959961 L227.098809,91.9467773 C227.155938,93.2988281 227.911309,94.1557617 229.07293,94.1557617 C229.955254,94.1557617 230.551934,93.8320312 230.837578,93.2290039 Z M235.839531,94.1621094 C236.963066,94.1621094 237.794609,93.4257812 237.794609,92.4482422 L237.794609,91.8198242 L235.953789,91.9404297 C234.912773,92.0102539 234.455742,92.3720703 234.455742,93.0576172 C234.455742,93.7558594 235.046074,94.1621094 235.839531,94.1621094 Z M235.636406,95.1206055 C234.309746,95.1206055 233.325859,94.3334961 233.325859,93.0830078 C233.325859,91.8579102 234.227227,91.1533203 235.820488,91.0581055 L237.794609,90.9375 L237.794609,90.3154297 C237.794609,89.4711914 237.267754,89.0078125 236.245781,89.0078125 C235.426934,89.0078125 234.855645,89.3188477 234.703301,89.8583984 L233.598809,89.8583984 C233.744805,88.7602539 234.823906,88.0366211 236.283867,88.0366211 C237.953301,88.0366211 238.886406,88.8935547 238.886406,90.3154297 L238.886406,95 L237.845391,95 L237.845391,93.9907227 L237.743828,93.9907227 C237.299492,94.7207031 236.550469,95.1206055 235.636406,95.1206055 Z M241.361992,86.3862305 L241.361992,88.1572266 L240.2575,88.1572266 L240.2575,89.0712891 L241.361992,89.0712891 L241.361992,93.2226562 C241.361992,94.5302734 241.926934,95.0507812 243.336113,95.0507812 C243.551934,95.0507812 243.761406,95.0253906 243.977227,94.9873047 L243.977227,94.0668945 C243.774102,94.0859375 243.666191,94.0922852 243.469414,94.0922852 C242.758477,94.0922852 242.453789,93.7495117 242.453789,92.9433594 L242.453789,89.0712891 L243.977227,89.0712891 L243.977227,88.1572266 L242.453789,88.1572266 L242.453789,86.3862305 L241.361992,86.3862305 Z M248.261895,89.0014648 C247.170098,89.0014648 246.408379,89.8012695 246.325859,91.0136719 L250.096367,91.0136719 C250.070977,89.8012695 249.347344,89.0014648 248.261895,89.0014648 Z M250.064629,93.2290039 L251.156426,93.2290039 C250.826348,94.4033203 249.772637,95.1206055 248.27459,95.1206055 C246.376641,95.1206055 245.189629,93.7495117 245.189629,91.5849609 C245.189629,89.4331055 246.395684,88.0366211 248.27459,88.0366211 C250.121758,88.0366211 251.245293,89.3505859 251.245293,91.4770508 L251.245293,91.8959961 L246.325859,91.8959961 L246.325859,91.9467773 C246.382988,93.2988281 247.138359,94.1557617 248.29998,94.1557617 C249.182305,94.1557617 249.778984,93.8320312 250.064629,93.2290039 Z M255.491875,95.1206055 C253.739922,95.1206055 252.616387,93.7304688 252.616387,91.5786133 C252.616387,89.4331055 253.752617,88.0366211 255.491875,88.0366211 C256.444023,88.0366211 257.250176,88.4873047 257.637383,89.2363281 L257.732598,89.2363281 L257.732598,85.4404297 L258.824395,85.4404297 L258.824395,95 L257.783379,95 L257.783379,93.9082031 L257.681816,93.9082031 C257.250176,94.6699219 256.437676,95.1206055 255.491875,95.1206055 Z M255.745781,89.0205078 C254.501641,89.0205078 253.74627,89.9853516 253.74627,91.5786133 C253.74627,93.1782227 254.495293,94.1367188 255.745781,94.1367188 C256.989922,94.1367188 257.757988,93.1591797 257.757988,91.5786133 C257.757988,90.0107422 256.983574,89.0205078 255.745781,89.0205078 Z"/>
    <g transform="matrix(1 0 0 -1 53.82 102)">
      <rect width="24" height="24"/>
      <path fill="#0C0C0D" fill-opacity=".8" fill-rule="nonzero" d="M12,5 C15.8659932,5 19,8.13400675 19,12 C19,15.8659932 15.8659932,19 12,19 C8.13400675,19 5,15.8659932 5,12 C5,8.13400675 8.13400675,5 12,5 Z M12,8 C11.4477152,8 11,8.44771525 11,9 C11,9.55228475 11.4477152,10 12,10 C12.5522847,10 13,9.55228475 13,9 C13,8.44771525 12.5522847,8 12,8 Z M12,11 C11.4477152,11 11,11.4477152 11,12 L11,15 C11,15.5522847 11.4477152,16 12,16 C12.5522847,16 13,15.5522847 13,15 L13,12 C13,11.4477152 12.5522847,11 12,11 Z"/>
    </g>
    <g transform="translate(272.179 78)">
      <rect width="24" height="24"/>
      <g transform="translate(6 6)">
        <path fill="#0C0C0D" fill-opacity=".8" fill-rule="nonzero" d="M7.22254109,5.98945674 L11.7593901,1.45260771 C12.0842229,1.11628355 12.0795773,0.581679455 11.7489489,0.251051076 C11.4183205,-0.0795773034 10.8837165,-0.0842228685 10.5473923,0.240609874 L6.01054326,4.77745891 L1.47369422,0.240609874 C1.13737006,-0.0842228685 0.602765966,-0.0795773034 0.272137586,0.251051076 C-0.0584907931,0.581679455 -0.0631363582,1.11628355 0.261696384,1.45260771 L4.79854542,5.98945674 L0.261696384,10.5263058 C0.0388768524,10.7415121 -0.0504852845,11.0602002 0.0279563816,11.359882 C0.106398048,11.6595638 0.340436167,11.893602 0.640118002,11.9720436 C0.939799836,12.0504853 1.25848791,11.9611231 1.47369422,11.7383036 L6.01054326,7.20145458 L10.5473923,11.7383036 C10.8837165,12.0631364 11.4183205,12.0584908 11.7489489,11.7278624 C12.0795773,11.397234 12.0842229,10.8626299 11.7593901,10.5263058 L7.22254109,5.98945674 Z"/>
        <mask id="dismissable-b" fill="#fff">
          <use xlink:href="#dismissable-a"/>
        </mask>
        <g fill="#002D3E" fill-rule="nonzero" mask="url(#dismissable-b)">
          <rect width="200" height="200" transform="translate(-89 -91)"/>
        </g>
      </g>
    </g>
  </g>
</svg>
