<svg xmlns="http://www.w3.org/2000/svg" xmlns:xlink="http://www.w3.org/1999/xlink" width="350" height="180" viewBox="0 0 350 180">
  <defs>
    <path id="generic-a" d="M7.22254109,5.98945674 L11.7593901,1.45260771 C12.0842229,1.11628355 12.0795773,0.581679455 11.7489489,0.251051076 C11.4183205,-0.0795773034 10.8837165,-0.0842228685 10.5473923,0.240609874 L6.01054326,4.77745891 L1.47369422,0.240609874 C1.13737006,-0.0842228685 0.602765966,-0.0795773034 0.272137586,0.251051076 C-0.0584907931,0.581679455 -0.0631363582,1.11628355 0.261696384,1.45260771 L4.79854542,5.98945674 L0.261696384,10.5263058 C0.0388768524,10.7415121 -0.0504852845,11.0602002 0.0279563816,11.359882 C0.106398048,11.6595638 0.340436167,11.893602 0.640118002,11.9720436 C0.939799836,12.0504853 1.25848791,11.9611231 1.47369422,11.7383036 L6.01054326,7.20145458 L10.5473923,11.7383036 C10.8837165,12.0631364 11.4183205,12.0584908 11.7489489,11.7278624 C12.0795773,11.397234 12.0842229,10.8626299 11.7593901,10.5263058 L7.22254109,5.98945674 Z"/>
    <path id="generic-c" d="M7,0 C3.13400675,-6.66133815e-16 4.4408921e-16,3.13400675 0,7 C-4.4408921e-16,10.8659932 3.13400675,14 7,14 C10.8659932,14 14,10.8659932 14,7 C13.9955914,3.13583434 10.8641657,0.00440863597 7,3.77475828e-15 L7,0 Z M7,13 C3.6862915,13 1,10.3137085 1,7 C1,3.6862915 3.6862915,1 7,1 C10.3137085,1 13,3.6862915 13,7 C12.9961426,10.3121094 10.3121094,12.9961426 7,13 Z M7,6 C6.44771525,6 6,6.44771525 6,7 L6,10 C6,10.5522847 6.44771525,11 7,11 C7.55228475,11 8,10.5522847 8,10 L8,7 C8,6.44771525 7.55228475,6 7,6 Z M7,2.812 C6.34388572,2.812 5.812,3.34388572 5.812,4 C5.812,4.65611428 6.34388572,5.188 7,5.188 C7.65611428,5.188 8.188,4.65611428 8.188,4 C8.188,3.68492281 8.06283607,3.38275036 7.84004286,3.15995714 C7.61724964,2.93716393 7.31507719,2.812 7,2.812 L7,2.812 Z"/>
  </defs>
  <g fill="none" fill-rule="evenodd">
    <rect width="350" height="180" fill="none"/>
    <g transform="translate(15 73)">
      <rect width="320" height="32" fill="#EDEDF0" rx="3"/>
      <g transform="translate(292 4)">
        <rect width="24" height="24"/>
        <g transform="translate(6 6)">
          <mask id="generic-b" fill="#fff">
            <use xlink:href="#generic-a"/>
          </mask>
          <use fill="#0C0C0D" fill-opacity=".8" fill-rule="nonzero" xlink:href="#generic-a"/>
          <g fill="#0C0C0D" mask="url(#generic-b)">
            <rect width="200" height="200" transform="translate(-89 -91)"/>
          </g>
        </g>
      </g>
      <g transform="translate(4 4)">
        <rect width="24" height="24"/>
        <g transform="translate(5 5)">
          <mask id="generic-d" fill="#fff">
            <use xlink:href="#generic-c"/>
          </mask>
          <use fill="#0C0C0D" fill-opacity=".8" fill-rule="nonzero" xlink:href="#generic-c"/>
          <g fill="#0C0C0D" mask="url(#generic-d)">
            <rect width="200" height="200" transform="translate(-94.059 -95.048)"/>
          </g>
        </g>
      </g>
      <path fill="#0C0C0D" d="M36.3608398,14.0366211 C38.1064453,14.0366211 39.2363281,15.4267578 39.2363281,17.5786133 C39.2363281,19.7177734 38.1000977,21.1206055 36.3608398,21.1206055 C35.3833008,21.1206055 34.5961914,20.6953125 34.2216797,19.9716797 L34.1201172,19.9716797 L34.1201172,23.2851562 L33.0283203,23.2851562 L33.0283203,14.1572266 L34.0693359,14.1572266 L34.0693359,15.2998047 L34.1708984,15.2998047 C34.6088867,14.5126953 35.4277344,14.0366211 36.3608398,14.0366211 Z M36.1005859,20.1367188 C37.3574219,20.1367188 38.1064453,19.1782227 38.1064453,17.5786133 C38.1064453,15.9790039 37.3574219,15.0205078 36.1069336,15.0205078 C34.8691406,15.0205078 34.0883789,16.0043945 34.0883789,17.5786133 C34.0883789,19.1464844 34.8691406,20.1367188 36.1005859,20.1367188 Z M41.0136719,21 L42.1054688,21 L42.1054688,16.9501953 C42.1054688,15.7949219 42.7783203,15.0205078 44.003418,15.0205078 C45.0380859,15.0205078 45.5839844,15.6235352 45.5839844,16.8359375 L45.5839844,21 L46.6757812,21 L46.6757812,16.5693359 C46.6757812,14.9633789 45.7617188,14.0366211 44.3144531,14.0366211 C43.2670898,14.0366211 42.5498047,14.480957 42.2070312,15.2363281 L42.1054688,15.2363281 L42.1054688,11.4404297 L41.0136719,11.4404297 L41.0136719,21 Z M51.480957,21.1206055 C49.5322266,21.1206055 48.3261719,19.7749023 48.3261719,17.5786133 C48.3261719,15.3759766 49.5322266,14.0366211 51.480957,14.0366211 C53.4296875,14.0366211 54.6357422,15.3759766 54.6357422,17.5786133 C54.6357422,19.7749023 53.4296875,21.1206055 51.480957,21.1206055 Z M51.480957,20.1367188 C52.7758789,20.1367188 53.5058594,19.1972656 53.5058594,17.5786133 C53.5058594,15.9536133 52.7758789,15.0205078 51.480957,15.0205078 C50.1860352,15.0205078 49.4560547,15.9536133 49.4560547,17.5786133 C49.4560547,19.1972656 50.1860352,20.1367188 51.480957,20.1367188 Z M56.8066406,12.3862305 L56.8066406,14.1572266 L55.7021484,14.1572266 L55.7021484,15.0712891 L56.8066406,15.0712891 L56.8066406,19.2226562 C56.8066406,20.5302734 57.371582,21.0507812 58.7807617,21.0507812 C58.996582,21.0507812 59.2060547,21.0253906 59.421875,20.9873047 L59.421875,20.0668945 C59.21875,20.0859375 59.1108398,20.0922852 58.9140625,20.0922852 C58.203125,20.0922852 57.8984375,19.7495117 57.8984375,18.9433594 L57.8984375,15.0712891 L59.421875,15.0712891 L59.421875,14.1572266 L57.8984375,14.1572266 L57.8984375,12.3862305 L56.8066406,12.3862305 Z M63.7890625,21.1206055 C61.840332,21.1206055 60.6342773,19.7749023 60.6342773,17.5786133 C60.6342773,15.3759766 61.840332,14.0366211 63.7890625,14.0366211 C65.737793,14.0366211 66.9438477,15.3759766 66.9438477,17.5786133 C66.9438477,19.7749023 65.737793,21.1206055 63.7890625,21.1206055 Z M63.7890625,20.1367188 C65.0839844,20.1367188 65.8139648,19.1972656 65.8139648,17.5786133 C65.8139648,15.9536133 65.0839844,15.0205078 63.7890625,15.0205078 C62.4941406,15.0205078 61.7641602,15.9536133 61.7641602,17.5786133 C61.7641602,19.1972656 62.4941406,20.1367188 63.7890625,20.1367188 Z M68.6577148,21 L69.7495117,21 L69.7495117,16.9501953 C69.7495117,15.7504883 70.4541016,15.0205078 71.5458984,15.0205078 C72.6376953,15.0205078 73.1582031,15.6044922 73.1582031,16.8359375 L73.1582031,21 L74.25,21 L74.25,16.5693359 C74.25,14.9443359 73.3930664,14.0366211 71.8569336,14.0366211 C70.8095703,14.0366211 70.1430664,14.480957 69.800293,15.2363281 L69.6987305,15.2363281 L69.6987305,14.1572266 L68.6577148,14.1572266 L68.6577148,21 Z M81.1435547,15.4458008 C80.2929688,15.4458008 79.7915039,16.105957 79.7915039,17.2167969 C79.7915039,18.3212891 80.2993164,18.9941406 81.1308594,18.9941406 C82.0004883,18.9941406 82.559082,18.3022461 82.559082,17.2167969 C82.559082,16.1313477 82.0068359,15.4458008 81.1435547,15.4458008 Z M81.3657227,11.8911133 C84.3681641,11.8911133 86.456543,13.8081055 86.456543,16.5629883 C86.456543,18.6323242 85.5297852,19.9462891 84.0698242,19.9462891 C83.3271484,19.9462891 82.7495117,19.5019531 82.6733398,18.8798828 L82.5717773,18.8798828 C82.2988281,19.5273438 81.7275391,19.8891602 80.9848633,19.8891602 C79.6645508,19.8891602 78.7758789,18.8037109 78.7758789,17.1914062 C78.7758789,15.6489258 79.6835938,14.5698242 80.9848633,14.5698242 C81.6513672,14.5698242 82.2226562,14.9125977 82.4702148,15.4648438 L82.5717773,15.4648438 L82.5717773,14.6904297 L83.5302734,14.6904297 L83.5302734,18.4165039 C83.5302734,18.8608398 83.7905273,19.1210938 84.2475586,19.1210938 C85.0473633,19.1210938 85.5615234,18.1118164 85.5615234,16.550293 C85.5615234,14.2587891 83.8222656,12.690918 81.2832031,12.690918 C78.8012695,12.690918 77.0175781,14.5825195 77.0175781,17.2231445 C77.0175781,19.9335938 78.7695312,21.6791992 81.4863281,21.6791992 C82.355957,21.6791992 83.2128906,21.5585938 83.612793,21.3745117 L83.612793,22.1743164 C83.0415039,22.3710938 82.2734375,22.4853516 81.4736328,22.4853516 C78.1982422,22.4853516 76.1225586,20.4287109 76.1225586,17.1850586 C76.1225586,14.0429688 78.2553711,11.8911133 81.3657227,11.8911133 Z M88.1767578,21 L89.2685547,21 L89.2685547,16.7597656 C89.2685547,15.7949219 89.9604492,15.0205078 90.8554688,15.0205078 C91.71875,15.0205078 92.2836914,15.5410156 92.2836914,16.3535156 L92.2836914,21 L93.3754883,21 L93.3754883,16.6010742 C93.3754883,15.7314453 94.0102539,15.0205078 94.9624023,15.0205078 C95.9272461,15.0205078 96.4033203,15.515625 96.4033203,16.5249023 L96.4033203,21 L97.4951172,21 L97.4951172,16.2709961 C97.4951172,14.8364258 96.7143555,14.0366211 95.3178711,14.0366211 C94.3720703,14.0366211 93.5913086,14.5126953 93.2231445,15.2363281 L93.121582,15.2363281 C92.8041992,14.5253906 92.1567383,14.0366211 91.2299805,14.0366211 C90.315918,14.0366211 89.6303711,14.4746094 89.3193359,15.2363281 L89.2177734,15.2363281 L89.2177734,14.1572266 L88.1767578,14.1572266 L88.1767578,21 Z M102.300293,21.1206055 C100.351562,21.1206055 99.1455078,19.7749023 99.1455078,17.5786133 C99.1455078,15.3759766 100.351562,14.0366211 102.300293,14.0366211 C104.249023,14.0366211 105.455078,15.3759766 105.455078,17.5786133 C105.455078,19.7749023 104.249023,21.1206055 102.300293,21.1206055 Z M102.300293,20.1367188 C103.595215,20.1367188 104.325195,19.1972656 104.325195,17.5786133 C104.325195,15.9536133 103.595215,15.0205078 102.300293,15.0205078 C101.005371,15.0205078 100.275391,15.9536133 100.275391,17.5786133 C100.275391,19.1972656 101.005371,20.1367188 102.300293,20.1367188 Z M106.819824,21 L112.088379,21 L112.088379,20.0859375 L108.140137,20.0859375 L108.140137,19.984375 L112.069336,14.9760742 L112.069336,14.1572266 L106.826172,14.1572266 L106.826172,15.0712891 L110.768066,15.0712891 L110.768066,15.1728516 L106.819824,20.2001953 L106.819824,21 Z M114.011719,21 L115.103516,21 L115.103516,14.1572266 L114.011719,14.1572266 L114.011719,21 Z M114.557617,12.7670898 C114.976562,12.7670898 115.319336,12.4243164 115.319336,12.0053711 C115.319336,11.5864258 114.976562,11.2436523 114.557617,11.2436523 C114.138672,11.2436523 113.795898,11.5864258 113.795898,12.0053711 C113.795898,12.4243164 114.138672,12.7670898 114.557617,12.7670898 Z M117.249023,21 L118.34082,21 L118.34082,11.4404297 L117.249023,11.4404297 L117.249023,21 Z M120.524414,21 L121.616211,21 L121.616211,11.4404297 L120.524414,11.4404297 L120.524414,21 Z M125.84375,20.1621094 C126.967285,20.1621094 127.798828,19.4257812 127.798828,18.4482422 L127.798828,17.8198242 L125.958008,17.9404297 C124.916992,18.0102539 124.459961,18.3720703 124.459961,19.0576172 C124.459961,19.7558594 125.050293,20.1621094 125.84375,20.1621094 Z M125.640625,21.1206055 C124.313965,21.1206055 123.330078,20.3334961 123.330078,19.0830078 C123.330078,17.8579102 124.231445,17.1533203 125.824707,17.0581055 L127.798828,16.9375 L127.798828,16.3154297 C127.798828,15.4711914 127.271973,15.0078125 126.25,15.0078125 C125.431152,15.0078125 124.859863,15.3188477 124.70752,15.8583984 L123.603027,15.8583984 C123.749023,14.7602539 124.828125,14.0366211 126.288086,14.0366211 C127.95752,14.0366211 128.890625,14.8935547 128.890625,16.3154297 L128.890625,21 L127.849609,21 L127.849609,19.9907227 L127.748047,19.9907227 C127.303711,20.7207031 126.554688,21.1206055 125.640625,21.1206055 Z M131.810547,21.0634766 C132.267578,21.0634766 132.635742,20.6889648 132.635742,20.2382812 C132.635742,19.78125 132.267578,19.4130859 131.810547,19.4130859 C131.359863,19.4130859 130.985352,19.78125 130.985352,20.2382812 C130.985352,20.6889648 131.359863,21.0634766 131.810547,21.0634766 Z M140.176758,16.2519531 C139.986328,15.0332031 138.970703,14.0366211 137.307617,14.0366211 C135.390625,14.0366211 134.171875,15.4204102 134.171875,17.5532227 C134.171875,19.7304688 135.396973,21.1206055 137.313965,21.1206055 C138.958008,21.1206055 139.97998,20.1938477 140.176758,18.9370117 L139.072266,18.9370117 C138.869141,19.7114258 138.228027,20.1367188 137.307617,20.1367188 C136.088867,20.1367188 135.301758,19.1337891 135.301758,17.5532227 C135.301758,16.0043945 136.076172,15.0205078 137.307617,15.0205078 C138.291504,15.0205078 138.894531,15.5727539 139.072266,16.2519531 L140.176758,16.2519531 Z M144.601074,21.1206055 C142.652344,21.1206055 141.446289,19.7749023 141.446289,17.5786133 C141.446289,15.3759766 142.652344,14.0366211 144.601074,14.0366211 C146.549805,14.0366211 147.755859,15.3759766 147.755859,17.5786133 C147.755859,19.7749023 146.549805,21.1206055 144.601074,21.1206055 Z M144.601074,20.1367188 C145.895996,20.1367188 146.625977,19.1972656 146.625977,17.5786133 C146.625977,15.9536133 145.895996,15.0205078 144.601074,15.0205078 C143.306152,15.0205078 142.576172,15.9536133 142.576172,17.5786133 C142.576172,19.1972656 143.306152,20.1367188 144.601074,20.1367188 Z M149.469727,21 L150.561523,21 L150.561523,16.7597656 C150.561523,15.7949219 151.253418,15.0205078 152.148438,15.0205078 C153.011719,15.0205078 153.57666,15.5410156 153.57666,16.3535156 L153.57666,21 L154.668457,21 L154.668457,16.6010742 C154.668457,15.7314453 155.303223,15.0205078 156.255371,15.0205078 C157.220215,15.0205078 157.696289,15.515625 157.696289,16.5249023 L157.696289,21 L158.788086,21 L158.788086,16.2709961 C158.788086,14.8364258 158.007324,14.0366211 156.61084,14.0366211 C155.665039,14.0366211 154.884277,14.5126953 154.516113,15.2363281 L154.414551,15.2363281 C154.097168,14.5253906 153.449707,14.0366211 152.522949,14.0366211 C151.608887,14.0366211 150.92334,14.4746094 150.612305,15.2363281 L150.510742,15.2363281 L150.510742,14.1572266 L149.469727,14.1572266 L149.469727,21 Z M170.112305,16.2519531 C169.921875,15.0332031 168.90625,14.0366211 167.243164,14.0366211 C165.326172,14.0366211 164.107422,15.4204102 164.107422,17.5532227 C164.107422,19.7304688 165.33252,21.1206055 167.249512,21.1206055 C168.893555,21.1206055 169.915527,20.1938477 170.112305,18.9370117 L169.007812,18.9370117 C168.804688,19.7114258 168.163574,20.1367188 167.243164,20.1367188 C166.024414,20.1367188 165.237305,19.1337891 165.237305,17.5532227 C165.237305,16.0043945 166.011719,15.0205078 167.243164,15.0205078 C168.227051,15.0205078 168.830078,15.5727539 169.007812,16.2519531 L170.112305,16.2519531 Z M171.724609,21 L172.816406,21 L172.816406,16.7597656 C172.816406,15.7949219 173.571777,15.0966797 174.612793,15.0966797 C174.828613,15.0966797 175.222168,15.1347656 175.311035,15.1601562 L175.311035,14.0683594 C175.171387,14.0493164 174.942871,14.0366211 174.765137,14.0366211 C173.857422,14.0366211 173.070312,14.5063477 172.867188,15.1728516 L172.765625,15.1728516 L172.765625,14.1572266 L171.724609,14.1572266 L171.724609,21 Z M179.214844,15.0014648 C178.123047,15.0014648 177.361328,15.8012695 177.278809,17.0136719 L181.049316,17.0136719 C181.023926,15.8012695 180.300293,15.0014648 179.214844,15.0014648 Z M181.017578,19.2290039 L182.109375,19.2290039 C181.779297,20.4033203 180.725586,21.1206055 179.227539,21.1206055 C177.32959,21.1206055 176.142578,19.7495117 176.142578,17.5849609 C176.142578,15.4331055 177.348633,14.0366211 179.227539,14.0366211 C181.074707,14.0366211 182.198242,15.3505859 182.198242,17.4770508 L182.198242,17.8959961 L177.278809,17.8959961 L177.278809,17.9467773 C177.335938,19.2988281 178.091309,20.1557617 179.25293,20.1557617 C180.135254,20.1557617 180.731934,19.8320312 181.017578,19.2290039 Z M186.019531,20.1621094 C187.143066,20.1621094 187.974609,19.4257812 187.974609,18.4482422 L187.974609,17.8198242 L186.133789,17.9404297 C185.092773,18.0102539 184.635742,18.3720703 184.635742,19.0576172 C184.635742,19.7558594 185.226074,20.1621094 186.019531,20.1621094 Z M185.816406,21.1206055 C184.489746,21.1206055 183.505859,20.3334961 183.505859,19.0830078 C183.505859,17.8579102 184.407227,17.1533203 186.000488,17.0581055 L187.974609,16.9375 L187.974609,16.3154297 C187.974609,15.4711914 187.447754,15.0078125 186.425781,15.0078125 C185.606934,15.0078125 185.035645,15.3188477 184.883301,15.8583984 L183.778809,15.8583984 C183.924805,14.7602539 185.003906,14.0366211 186.463867,14.0366211 C188.133301,14.0366211 189.066406,14.8935547 189.066406,16.3154297 L189.066406,21 L188.025391,21 L188.025391,19.9907227 L187.923828,19.9907227 C187.479492,20.7207031 186.730469,21.1206055 185.816406,21.1206055 Z M191.541992,12.3862305 L191.541992,14.1572266 L190.4375,14.1572266 L190.4375,15.0712891 L191.541992,15.0712891 L191.541992,19.2226562 C191.541992,20.5302734 192.106934,21.0507812 193.516113,21.0507812 C193.731934,21.0507812 193.941406,21.0253906 194.157227,20.9873047 L194.157227,20.0668945 C193.954102,20.0859375 193.846191,20.0922852 193.649414,20.0922852 C192.938477,20.0922852 192.633789,19.7495117 192.633789,18.9433594 L192.633789,15.0712891 L194.157227,15.0712891 L194.157227,14.1572266 L192.633789,14.1572266 L192.633789,12.3862305 L191.541992,12.3862305 Z M198.441895,15.0014648 C197.350098,15.0014648 196.588379,15.8012695 196.505859,17.0136719 L200.276367,17.0136719 C200.250977,15.8012695 199.527344,15.0014648 198.441895,15.0014648 Z M200.244629,19.2290039 L201.336426,19.2290039 C201.006348,20.4033203 199.952637,21.1206055 198.45459,21.1206055 C196.556641,21.1206055 195.369629,19.7495117 195.369629,17.5849609 C195.369629,15.4331055 196.575684,14.0366211 198.45459,14.0366211 C200.301758,14.0366211 201.425293,15.3505859 201.425293,17.4770508 L201.425293,17.8959961 L196.505859,17.8959961 L196.505859,17.9467773 C196.562988,19.2988281 197.318359,20.1557617 198.47998,20.1557617 C199.362305,20.1557617 199.958984,19.8320312 200.244629,19.2290039 Z M205.671875,21.1206055 C203.919922,21.1206055 202.796387,19.7304688 202.796387,17.5786133 C202.796387,15.4331055 203.932617,14.0366211 205.671875,14.0366211 C206.624023,14.0366211 207.430176,14.4873047 207.817383,15.2363281 L207.912598,15.2363281 L207.912598,11.4404297 L209.004395,11.4404297 L209.004395,21 L207.963379,21 L207.963379,19.9082031 L207.861816,19.9082031 C207.430176,20.6699219 206.617676,21.1206055 205.671875,21.1206055 Z M205.925781,15.0205078 C204.681641,15.0205078 203.92627,15.9853516 203.92627,17.5786133 C203.92627,19.1782227 204.675293,20.1367188 205.925781,20.1367188 C207.169922,20.1367188 207.937988,19.1591797 207.937988,17.5786133 C207.937988,16.0107422 207.163574,15.0205078 205.925781,15.0205078 Z"/>
    </g>
  </g>
</svg>
