<svg xmlns="http://www.w3.org/2000/svg" xmlns:xlink="http://www.w3.org/1999/xlink" width="350" height="180" viewBox="0 0 350 180">
  <defs>
    <path id="general-a" d="M3.99375545,11.9989024 C3.72815873,11.9988457 3.47346086,11.8933935 3.28568398,11.7057404 L0.281137443,8.70408197 C-0.0984091032,8.31148617 -0.0929810538,7.68743549 0.293337329,7.30148846 C0.679655711,6.91554142 1.30430684,6.91011859 1.69728038,7.2893003 L3.85754934,9.44749271 L10.1831213,0.419504703 C10.5022164,-0.0272991976 11.1220373,-0.13387488 11.5722906,0.180642683 C12.0225439,0.495160246 12.1351219,1.11334196 11.8246052,1.56613822 L4.81399665,11.5716663 C4.645093,11.8155968 4.376564,11.9720882 4.0808873,11.9989024 C4.05186182,12.0003659 4.02278092,12.0003659 3.99375545,11.9989024 Z"/>
  </defs>
  <g fill="none" fill-rule="evenodd">
    <rect width="350" height="180" fill="none"/>
    <g transform="translate(53.32 74)">
      <rect width="243.359" height="32" fill="#30E60B" rx="3"/>
      <path fill="#003706" d="M36.8369141,21 L36.8369141,17.0581055 L40.0869141,11.840332 L38.7856445,11.840332 L36.3164062,15.9091797 L36.2148438,15.9091797 L33.7456055,11.840332 L32.4443359,11.840332 L35.6943359,17.0581055 L35.6943359,21 L36.8369141,21 Z M43.2924805,21.1206055 C41.34375,21.1206055 40.1376953,19.7749023 40.1376953,17.5786133 C40.1376953,15.3759766 41.34375,14.0366211 43.2924805,14.0366211 C45.2412109,14.0366211 46.4472656,15.3759766 46.4472656,17.5786133 C46.4472656,19.7749023 45.2412109,21.1206055 43.2924805,21.1206055 Z M43.2924805,20.1367188 C44.5874023,20.1367188 45.3173828,19.1972656 45.3173828,17.5786133 C45.3173828,15.9536133 44.5874023,15.0205078 43.2924805,15.0205078 C41.9975586,15.0205078 41.2675781,15.9536133 41.2675781,17.5786133 C41.2675781,19.1972656 41.9975586,20.1367188 43.2924805,20.1367188 Z M53.6962891,14.1572266 L52.6044922,14.1572266 L52.6044922,18.2070312 C52.6044922,19.4067383 51.9443359,20.1240234 50.7382812,20.1240234 C49.6464844,20.1240234 49.1894531,19.5527344 49.1894531,18.3212891 L49.1894531,14.1572266 L48.0976562,14.1572266 L48.0976562,18.5878906 C48.0976562,20.206543 48.8974609,21.1206055 50.4335938,21.1206055 C51.480957,21.1206055 52.2109375,20.6889648 52.5537109,19.9272461 L52.6552734,19.9272461 L52.6552734,21 L53.6962891,21 L53.6962891,14.1572266 Z M59.4853516,21 L60.5771484,21 L60.5771484,16.9501953 C60.5771484,15.7949219 61.25,15.0205078 62.4750977,15.0205078 C63.5097656,15.0205078 64.0556641,15.6235352 64.0556641,16.8359375 L64.0556641,21 L65.1474609,21 L65.1474609,16.5693359 C65.1474609,14.9633789 64.2333984,14.0366211 62.7861328,14.0366211 C61.7387695,14.0366211 61.0214844,14.480957 60.6787109,15.2363281 L60.5771484,15.2363281 L60.5771484,11.4404297 L59.4853516,11.4404297 L59.4853516,21 Z M69.2480469,20.1621094 C70.371582,20.1621094 71.203125,19.4257812 71.203125,18.4482422 L71.203125,17.8198242 L69.3623047,17.9404297 C68.3212891,18.0102539 67.8642578,18.3720703 67.8642578,19.0576172 C67.8642578,19.7558594 68.4545898,20.1621094 69.2480469,20.1621094 Z M69.0449219,21.1206055 C67.7182617,21.1206055 66.734375,20.3334961 66.734375,19.0830078 C66.734375,17.8579102 67.6357422,17.1533203 69.2290039,17.0581055 L71.203125,16.9375 L71.203125,16.3154297 C71.203125,15.4711914 70.6762695,15.0078125 69.6542969,15.0078125 C68.8354492,15.0078125 68.2641602,15.3188477 68.1118164,15.8583984 L67.0073242,15.8583984 C67.1533203,14.7602539 68.2324219,14.0366211 69.6923828,14.0366211 C71.3618164,14.0366211 72.2949219,14.8935547 72.2949219,16.3154297 L72.2949219,21 L71.2539062,21 L71.2539062,19.9907227 L71.1523438,19.9907227 C70.7080078,20.7207031 69.9589844,21.1206055 69.0449219,21.1206055 Z M79.6455078,14.1572266 L78.4775391,14.1572266 L76.6049805,19.7939453 L76.503418,19.7939453 L74.6308594,14.1572266 L73.4628906,14.1572266 L75.9956055,21 L77.112793,21 L79.6455078,14.1572266 Z M83.5810547,15.0014648 C82.4892578,15.0014648 81.7275391,15.8012695 81.6450195,17.0136719 L85.4155273,17.0136719 C85.3901367,15.8012695 84.6665039,15.0014648 83.5810547,15.0014648 Z M85.3837891,19.2290039 L86.4755859,19.2290039 C86.1455078,20.4033203 85.0917969,21.1206055 83.59375,21.1206055 C81.6958008,21.1206055 80.5087891,19.7495117 80.5087891,17.5849609 C80.5087891,15.4331055 81.7148438,14.0366211 83.59375,14.0366211 C85.440918,14.0366211 86.5644531,15.3505859 86.5644531,17.4770508 L86.5644531,17.8959961 L81.6450195,17.8959961 L81.6450195,17.9467773 C81.7021484,19.2988281 82.4575195,20.1557617 83.6191406,20.1557617 C84.5014648,20.1557617 85.0981445,19.8320312 85.3837891,19.2290039 Z M94.0546875,20.1621094 C95.1782227,20.1621094 96.0097656,19.4257812 96.0097656,18.4482422 L96.0097656,17.8198242 L94.1689453,17.9404297 C93.1279297,18.0102539 92.6708984,18.3720703 92.6708984,19.0576172 C92.6708984,19.7558594 93.2612305,20.1621094 94.0546875,20.1621094 Z M93.8515625,21.1206055 C92.5249023,21.1206055 91.5410156,20.3334961 91.5410156,19.0830078 C91.5410156,17.8579102 92.4423828,17.1533203 94.0356445,17.0581055 L96.0097656,16.9375 L96.0097656,16.3154297 C96.0097656,15.4711914 95.4829102,15.0078125 94.4609375,15.0078125 C93.6420898,15.0078125 93.0708008,15.3188477 92.918457,15.8583984 L91.8139648,15.8583984 C91.9599609,14.7602539 93.0390625,14.0366211 94.4990234,14.0366211 C96.168457,14.0366211 97.1015625,14.8935547 97.1015625,16.3154297 L97.1015625,21 L96.0605469,21 L96.0605469,19.9907227 L95.9589844,19.9907227 C95.5146484,20.7207031 94.765625,21.1206055 93.8515625,21.1206055 Z M102.789062,21 L103.880859,21 L103.880859,16.9501953 C103.880859,15.7504883 104.585449,15.0205078 105.677246,15.0205078 C106.769043,15.0205078 107.289551,15.6044922 107.289551,16.8359375 L107.289551,21 L108.381348,21 L108.381348,16.5693359 C108.381348,14.9443359 107.524414,14.0366211 105.988281,14.0366211 C104.940918,14.0366211 104.274414,14.480957 103.931641,15.2363281 L103.830078,15.2363281 L103.830078,14.1572266 L102.789062,14.1572266 L102.789062,21 Z M113.104004,15.0014648 C112.012207,15.0014648 111.250488,15.8012695 111.167969,17.0136719 L114.938477,17.0136719 C114.913086,15.8012695 114.189453,15.0014648 113.104004,15.0014648 Z M114.906738,19.2290039 L115.998535,19.2290039 C115.668457,20.4033203 114.614746,21.1206055 113.116699,21.1206055 C111.21875,21.1206055 110.031738,19.7495117 110.031738,17.5849609 C110.031738,15.4331055 111.237793,14.0366211 113.116699,14.0366211 C114.963867,14.0366211 116.087402,15.3505859 116.087402,17.4770508 L116.087402,17.8959961 L111.167969,17.8959961 L111.167969,17.9467773 C111.225098,19.2988281 111.980469,20.1557617 113.14209,20.1557617 C114.024414,20.1557617 114.621094,19.8320312 114.906738,19.2290039 Z M126.408691,14.1572266 L125.310547,14.1572266 L123.964844,19.6289062 L123.863281,19.6289062 L122.333496,14.1572266 L121.286133,14.1572266 L119.756348,19.6289062 L119.654785,19.6289062 L118.309082,14.1572266 L117.20459,14.1572266 L119.121582,21 L120.226074,21 L121.749512,15.7060547 L121.851074,15.7060547 L123.380859,21 L124.491699,21 L126.408691,14.1572266 Z M137.123535,14.1572266 L135.955566,14.1572266 L134.083008,19.7939453 L133.981445,19.7939453 L132.108887,14.1572266 L130.940918,14.1572266 L133.473633,21 L134.59082,21 L137.123535,14.1572266 Z M141.059082,15.0014648 C139.967285,15.0014648 139.205566,15.8012695 139.123047,17.0136719 L142.893555,17.0136719 C142.868164,15.8012695 142.144531,15.0014648 141.059082,15.0014648 Z M142.861816,19.2290039 L143.953613,19.2290039 C143.623535,20.4033203 142.569824,21.1206055 141.071777,21.1206055 C139.173828,21.1206055 137.986816,19.7495117 137.986816,17.5849609 C137.986816,15.4331055 139.192871,14.0366211 141.071777,14.0366211 C142.918945,14.0366211 144.04248,15.3505859 144.04248,17.4770508 L144.04248,17.8959961 L139.123047,17.8959961 L139.123047,17.9467773 C139.180176,19.2988281 139.935547,20.1557617 141.097168,20.1557617 C141.979492,20.1557617 142.576172,19.8320312 142.861816,19.2290039 Z M145.756348,21 L146.848145,21 L146.848145,16.7597656 C146.848145,15.7949219 147.603516,15.0966797 148.644531,15.0966797 C148.860352,15.0966797 149.253906,15.1347656 149.342773,15.1601562 L149.342773,14.0683594 C149.203125,14.0493164 148.974609,14.0366211 148.796875,14.0366211 C147.88916,14.0366211 147.102051,14.5063477 146.898926,15.1728516 L146.797363,15.1728516 L146.797363,14.1572266 L145.756348,14.1572266 L145.756348,21 Z M150.859863,21 L151.95166,21 L151.95166,14.1572266 L150.859863,14.1572266 L150.859863,21 Z M151.405762,12.7670898 C151.824707,12.7670898 152.16748,12.4243164 152.16748,12.0053711 C152.16748,11.5864258 151.824707,11.2436523 151.405762,11.2436523 C150.986816,11.2436523 150.644043,11.5864258 150.644043,12.0053711 C150.644043,12.4243164 150.986816,12.7670898 151.405762,12.7670898 Z M154.490723,21 L155.58252,21 L155.58252,15.0712891 L157.150391,15.0712891 L157.150391,14.1572266 L155.58252,14.1572266 L155.58252,13.5224609 C155.58252,12.7543945 155.950684,12.4243164 156.604492,12.4243164 C156.820312,12.4243164 157.067871,12.449707 157.213867,12.4814453 L157.213867,11.5673828 C156.947266,11.5229492 156.756836,11.5039062 156.541016,11.5039062 C155.220703,11.5039062 154.490723,12.0878906 154.490723,13.4907227 L154.490723,14.1572266 L153.354492,14.1572266 L153.354492,15.0712891 L154.490723,15.0712891 L154.490723,21 Z M158.762695,21 L159.854492,21 L159.854492,14.1572266 L158.762695,14.1572266 L158.762695,21 Z M159.308594,12.7670898 C159.727539,12.7670898 160.070312,12.4243164 160.070312,12.0053711 C160.070312,11.5864258 159.727539,11.2436523 159.308594,11.2436523 C158.889648,11.2436523 158.546875,11.5864258 158.546875,12.0053711 C158.546875,12.4243164 158.889648,12.7670898 159.308594,12.7670898 Z M167.598633,16.2519531 C167.408203,15.0332031 166.392578,14.0366211 164.729492,14.0366211 C162.8125,14.0366211 161.59375,15.4204102 161.59375,17.5532227 C161.59375,19.7304688 162.818848,21.1206055 164.73584,21.1206055 C166.379883,21.1206055 167.401855,20.1938477 167.598633,18.9370117 L166.494141,18.9370117 C166.291016,19.7114258 165.649902,20.1367188 164.729492,20.1367188 C163.510742,20.1367188 162.723633,19.1337891 162.723633,17.5532227 C162.723633,16.0043945 163.498047,15.0205078 164.729492,15.0205078 C165.713379,15.0205078 166.316406,15.5727539 166.494141,16.2519531 L167.598633,16.2519531 Z M171.318359,20.1621094 C172.441895,20.1621094 173.273438,19.4257812 173.273438,18.4482422 L173.273438,17.8198242 L171.432617,17.9404297 C170.391602,18.0102539 169.93457,18.3720703 169.93457,19.0576172 C169.93457,19.7558594 170.524902,20.1621094 171.318359,20.1621094 Z M171.115234,21.1206055 C169.788574,21.1206055 168.804688,20.3334961 168.804688,19.0830078 C168.804688,17.8579102 169.706055,17.1533203 171.299316,17.0581055 L173.273438,16.9375 L173.273438,16.3154297 C173.273438,15.4711914 172.746582,15.0078125 171.724609,15.0078125 C170.905762,15.0078125 170.334473,15.3188477 170.182129,15.8583984 L169.077637,15.8583984 C169.223633,14.7602539 170.302734,14.0366211 171.762695,14.0366211 C173.432129,14.0366211 174.365234,14.8935547 174.365234,16.3154297 L174.365234,21 L173.324219,21 L173.324219,19.9907227 L173.222656,19.9907227 C172.77832,20.7207031 172.029297,21.1206055 171.115234,21.1206055 Z M176.84082,12.3862305 L176.84082,14.1572266 L175.736328,14.1572266 L175.736328,15.0712891 L176.84082,15.0712891 L176.84082,19.2226562 C176.84082,20.5302734 177.405762,21.0507812 178.814941,21.0507812 C179.030762,21.0507812 179.240234,21.0253906 179.456055,20.9873047 L179.456055,20.0668945 C179.25293,20.0859375 179.14502,20.0922852 178.948242,20.0922852 C178.237305,20.0922852 177.932617,19.7495117 177.932617,18.9433594 L177.932617,15.0712891 L179.456055,15.0712891 L179.456055,14.1572266 L177.932617,14.1572266 L177.932617,12.3862305 L176.84082,12.3862305 Z M181.131836,21 L182.223633,21 L182.223633,14.1572266 L181.131836,14.1572266 L181.131836,21 Z M181.677734,12.7670898 C182.09668,12.7670898 182.439453,12.4243164 182.439453,12.0053711 C182.439453,11.5864258 182.09668,11.2436523 181.677734,11.2436523 C181.258789,11.2436523 180.916016,11.5864258 180.916016,12.0053711 C180.916016,12.4243164 181.258789,12.7670898 181.677734,12.7670898 Z M187.117676,21.1206055 C185.168945,21.1206055 183.962891,19.7749023 183.962891,17.5786133 C183.962891,15.3759766 185.168945,14.0366211 187.117676,14.0366211 C189.066406,14.0366211 190.272461,15.3759766 190.272461,17.5786133 C190.272461,19.7749023 189.066406,21.1206055 187.117676,21.1206055 Z M187.117676,20.1367188 C188.412598,20.1367188 189.142578,19.1972656 189.142578,17.5786133 C189.142578,15.9536133 188.412598,15.0205078 187.117676,15.0205078 C185.822754,15.0205078 185.092773,15.9536133 185.092773,17.5786133 C185.092773,19.1972656 185.822754,20.1367188 187.117676,20.1367188 Z M191.986328,21 L193.078125,21 L193.078125,16.9501953 C193.078125,15.7504883 193.782715,15.0205078 194.874512,15.0205078 C195.966309,15.0205078 196.486816,15.6044922 196.486816,16.8359375 L196.486816,21 L197.578613,21 L197.578613,16.5693359 C197.578613,14.9443359 196.72168,14.0366211 195.185547,14.0366211 C194.138184,14.0366211 193.47168,14.480957 193.128906,15.2363281 L193.027344,15.2363281 L193.027344,14.1572266 L191.986328,14.1572266 L191.986328,21 Z M205.970215,15.0014648 C204.878418,15.0014648 204.116699,15.8012695 204.03418,17.0136719 L207.804688,17.0136719 C207.779297,15.8012695 207.055664,15.0014648 205.970215,15.0014648 Z M207.772949,19.2290039 L208.864746,19.2290039 C208.534668,20.4033203 207.480957,21.1206055 205.98291,21.1206055 C204.084961,21.1206055 202.897949,19.7495117 202.897949,17.5849609 C202.897949,15.4331055 204.104004,14.0366211 205.98291,14.0366211 C207.830078,14.0366211 208.953613,15.3505859 208.953613,17.4770508 L208.953613,17.8959961 L204.03418,17.8959961 L204.03418,17.9467773 C204.091309,19.2988281 204.84668,20.1557617 206.008301,20.1557617 C206.890625,20.1557617 207.487305,19.8320312 207.772949,19.2290039 Z M210.66748,21 L211.759277,21 L211.759277,16.7597656 C211.759277,15.7949219 212.451172,15.0205078 213.346191,15.0205078 C214.209473,15.0205078 214.774414,15.5410156 214.774414,16.3535156 L214.774414,21 L215.866211,21 L215.866211,16.6010742 C215.866211,15.7314453 216.500977,15.0205078 217.453125,15.0205078 C218.417969,15.0205078 218.894043,15.515625 218.894043,16.5249023 L218.894043,21 L219.98584,21 L219.98584,16.2709961 C219.98584,14.8364258 219.205078,14.0366211 217.808594,14.0366211 C216.862793,14.0366211 216.082031,14.5126953 215.713867,15.2363281 L215.612305,15.2363281 C215.294922,14.5253906 214.647461,14.0366211 213.720703,14.0366211 C212.806641,14.0366211 212.121094,14.4746094 211.810059,15.2363281 L211.708496,15.2363281 L211.708496,14.1572266 L210.66748,14.1572266 L210.66748,21 Z M224.086426,20.1621094 C225.209961,20.1621094 226.041504,19.4257812 226.041504,18.4482422 L226.041504,17.8198242 L224.200684,17.9404297 C223.159668,18.0102539 222.702637,18.3720703 222.702637,19.0576172 C222.702637,19.7558594 223.292969,20.1621094 224.086426,20.1621094 Z M223.883301,21.1206055 C222.556641,21.1206055 221.572754,20.3334961 221.572754,19.0830078 C221.572754,17.8579102 222.474121,17.1533203 224.067383,17.0581055 L226.041504,16.9375 L226.041504,16.3154297 C226.041504,15.4711914 225.514648,15.0078125 224.492676,15.0078125 C223.673828,15.0078125 223.102539,15.3188477 222.950195,15.8583984 L221.845703,15.8583984 C221.991699,14.7602539 223.070801,14.0366211 224.530762,14.0366211 C226.200195,14.0366211 227.133301,14.8935547 227.133301,16.3154297 L227.133301,21 L226.092285,21 L226.092285,19.9907227 L225.990723,19.9907227 C225.546387,20.7207031 224.797363,21.1206055 223.883301,21.1206055 Z M229.177246,21 L230.269043,21 L230.269043,14.1572266 L229.177246,14.1572266 L229.177246,21 Z M229.723145,12.7670898 C230.14209,12.7670898 230.484863,12.4243164 230.484863,12.0053711 C230.484863,11.5864258 230.14209,11.2436523 229.723145,11.2436523 C229.304199,11.2436523 228.961426,11.5864258 228.961426,12.0053711 C228.961426,12.4243164 229.304199,12.7670898 229.723145,12.7670898 Z M232.414551,21 L233.506348,21 L233.506348,11.4404297 L232.414551,11.4404297 L232.414551,21 Z"/>
      <g transform="translate(4 4)">
        <rect width="24" height="24"/>
        <g transform="translate(6 6)">
          <mask id="general-b" fill="#fff">
            <use xlink:href="#general-a"/>
          </mask>
          <use fill="#0C0C0D" fill-opacity=".8" fill-rule="nonzero" xlink:href="#general-a"/>
          <g fill="#003706" mask="url(#general-b)">
            <rect width="200" height="200" transform="translate(-91 -92)"/>
          </g>
        </g>
      </g>
    </g>
  </g>
</svg>
