<svg xmlns="http://www.w3.org/2000/svg" xmlns:xlink="http://www.w3.org/1999/xlink" width="350" height="180" viewBox="0 0 350 180">
  <defs>
    <path id="height-a" d="M7,0 C3.13400675,-6.66133815e-16 4.4408921e-16,3.13400675 0,7 C-4.4408921e-16,10.8659932 3.13400675,14 7,14 C10.8659932,14 14,10.8659932 14,7 C13.9955914,3.13583434 10.8641657,0.00440863597 7,3.77475828e-15 L7,0 Z M7,13 C3.6862915,13 1,10.3137085 1,7 C1,3.6862915 3.6862915,1 7,1 C10.3137085,1 13,3.6862915 13,7 C12.9961426,10.3121094 10.3121094,12.9961426 7,13 Z M7,6 C6.44771525,6 6,6.44771525 6,7 L6,10 C6,10.5522847 6.44771525,11 7,11 C7.55228475,11 8,10.5522847 8,10 L8,7 C8,6.44771525 7.55228475,6 7,6 Z M7,2.812 C6.34388572,2.812 5.812,3.34388572 5.812,4 C5.812,4.65611428 6.34388572,5.188 7,5.188 C7.65611428,5.188 8.188,4.65611428 8.188,4 C8.188,3.68492281 8.06283607,3.38275036 7.84004286,3.15995714 C7.61724964,2.93716393 7.31507719,2.812 7,2.812 L7,2.812 Z"/>
    <rect id="height-c" width="60" height="24" rx="3"/>
  </defs>
  <g fill="none" fill-rule="evenodd">
    <rect width="350" height="180" fill="none"/>
    <g transform="translate(72 74)">
      <g transform="translate(45)">
        <rect width="161" height="32" fill="#D7D7DB" rx="3"/>
        <g transform="translate(4 4)">
          <rect width="24" height="24"/>
          <g transform="translate(5 5)">
            <mask id="height-b" fill="#fff">
              <use xlink:href="#height-a"/>
            </mask>
            <use fill="#0C0C0D" fill-opacity=".8" fill-rule="nonzero" xlink:href="#height-a"/>
            <g fill="#0C0C0D" mask="url(#height-b)">
              <rect width="200" height="200" transform="translate(-94.059 -95.048)"/>
            </g>
          </g>
        </g>
        <g transform="translate(97 4)">
          <mask id="height-d" fill="#fff">
            <use xlink:href="#height-c"/>
          </mask>
          <use fill="#737373" xlink:href="#height-c"/>
          <g fill="#737373" mask="url(#height-d)">
            <rect width="60" height="24"/>
          </g>
          <g fill="#FFF" mask="url(#height-d)">
            <path d="M6.62685574,11 L5.92988309,8.89194339 L2.89633822,8.89194339 L2.18793979,11 L0.696875364,11 L3.62187532,2.75629896 L5.27861357,2.75629896 L8.20932641,11 L6.62685574,11 Z M4.37026398,4.32734386 L3.23911165,7.72651373 L5.58710966,7.72651373 L4.46738311,4.32734386 L4.37026398,4.32734386 Z M12.6825197,11.2056641 C14.5849122,11.2056641 15.9788575,10.0687988 16.1730958,8.38349614 L14.7220216,8.38349614 C14.5220705,9.3089844 13.7279787,9.89169924 12.6825197,9.89169924 C11.2771486,9.89169924 10.4030764,8.73769535 10.4030764,6.87529304 C10.4030764,5.01860361 11.2771486,3.86459973 12.6768068,3.86459973 C13.7165529,3.86459973 14.5106447,4.50444347 14.7163087,5.49277353 L16.1673829,5.49277353 C15.9959962,3.77319348 14.5506349,2.5506349 12.6768068,2.5506349 C10.3402346,2.5506349 8.89487328,4.20166027 8.89487328,6.88100593 C8.89487328,9.5489258 10.3459475,11.2056641 12.6825197,11.2056641 Z M21.120459,11 L21.120459,4.03027355 L23.6626953,4.03027355 L23.6626953,2.75629896 L17.1100099,2.75629896 L17.1100099,4.03027355 L19.6465333,4.03027355 L19.6465333,11 L21.120459,11 Z M26.6791015,11 L26.6791015,2.75629896 L25.2051757,2.75629896 L25.2051757,11 L26.6791015,11 Z M32.2720213,2.5506349 C34.6657225,2.5506349 36.1624998,4.21308605 36.1624998,6.87529304 C36.1624998,9.53178713 34.6771482,11.2056641 32.2720213,11.2056641 C29.8497557,11.2056641 28.3644042,9.53750002 28.3644042,6.87529304 C28.3644042,4.21308605 29.8783202,2.5506349 32.2720213,2.5506349 Z M32.2720213,3.85888684 C30.8038085,3.85888684 29.8726073,5.03002939 29.8726073,6.87529304 C29.8726073,8.71484379 30.7809569,9.89741213 32.2720213,9.89741213 C33.7402342,9.89741213 34.6542967,8.71484379 34.6542967,6.87529304 C34.6542967,5.03002939 33.7345213,3.85888684 32.2720213,3.85888684 Z M39.2703122,11 L39.2703122,5.3899415 L39.3674314,5.3899415 L43.4121579,11 L44.6861325,11 L44.6861325,2.75629896 L43.2693356,2.75629896 L43.2693356,8.36064457 L43.1722165,8.36064457 L39.12749,2.75629896 L37.8478025,2.75629896 L37.8478025,11 L39.2703122,11 Z" transform="translate(7 5)"/>
          </g>
        </g>
        <path fill="#0C0C0D" d="M42.1943359,21 L42.1943359,11.840332 L40.8676758,11.840332 L37.7319336,19.4194336 L37.6303711,19.4194336 L34.4946289,11.840332 L33.1679688,11.840332 L33.1679688,21 L34.234375,21 L34.234375,14.0048828 L34.3105469,14.0048828 L37.1987305,20.9365234 L38.1635742,20.9365234 L41.0517578,14.0048828 L41.1279297,14.0048828 L41.1279297,21 L42.1943359,21 Z M47.1201172,15.0014648 C46.0283203,15.0014648 45.2666016,15.8012695 45.184082,17.0136719 L48.9545898,17.0136719 C48.9291992,15.8012695 48.2055664,15.0014648 47.1201172,15.0014648 Z M48.9228516,19.2290039 L50.0146484,19.2290039 C49.6845703,20.4033203 48.6308594,21.1206055 47.1328125,21.1206055 C45.2348633,21.1206055 44.0478516,19.7495117 44.0478516,17.5849609 C44.0478516,15.4331055 45.2539062,14.0366211 47.1328125,14.0366211 C48.9799805,14.0366211 50.1035156,15.3505859 50.1035156,17.4770508 L50.1035156,17.8959961 L45.184082,17.8959961 L45.184082,17.9467773 C45.2412109,19.2988281 45.996582,20.1557617 47.1582031,20.1557617 C48.0405273,20.1557617 48.637207,19.8320312 48.9228516,19.2290039 Z M51.6586914,16.0297852 C51.6586914,17.0200195 52.2426758,17.5722656 53.5249023,17.8833008 L54.6992188,18.1689453 C55.4291992,18.3466797 55.784668,18.6640625 55.784668,19.1337891 C55.784668,19.762207 55.1245117,20.2001953 54.2041016,20.2001953 C53.328125,20.2001953 52.7822266,19.8320312 52.5981445,19.2543945 L51.4746094,19.2543945 C51.5952148,20.390625 52.6425781,21.1206055 54.1660156,21.1206055 C55.7211914,21.1206055 56.9082031,20.2763672 56.9082031,19.0512695 C56.9082031,18.0673828 56.2861328,17.5087891 54.9975586,17.1977539 L53.9438477,16.9438477 C53.1376953,16.7470703 52.7568359,16.4550781 52.7568359,15.9853516 C52.7568359,15.3759766 53.3916016,14.9633789 54.2041016,14.9633789 C55.0292969,14.9633789 55.5625,15.3251953 55.7084961,15.8710938 L56.7875977,15.8710938 C56.6416016,14.7475586 55.6450195,14.0366211 54.2104492,14.0366211 C52.7568359,14.0366211 51.6586914,14.8935547 51.6586914,16.0297852 Z M58.3364258,16.0297852 C58.3364258,17.0200195 58.9204102,17.5722656 60.2026367,17.8833008 L61.3769531,18.1689453 C62.1069336,18.3466797 62.4624023,18.6640625 62.4624023,19.1337891 C62.4624023,19.762207 61.8022461,20.2001953 60.8818359,20.2001953 C60.0058594,20.2001953 59.4599609,19.8320312 59.2758789,19.2543945 L58.1523438,19.2543945 C58.2729492,20.390625 59.3203125,21.1206055 60.84375,21.1206055 C62.3989258,21.1206055 63.5859375,20.2763672 63.5859375,19.0512695 C63.5859375,18.0673828 62.9638672,17.5087891 61.675293,17.1977539 L60.621582,16.9438477 C59.8154297,16.7470703 59.4345703,16.4550781 59.4345703,15.9853516 C59.4345703,15.3759766 60.0693359,14.9633789 60.8818359,14.9633789 C61.7070312,14.9633789 62.2402344,15.3251953 62.3862305,15.8710938 L63.465332,15.8710938 C63.3193359,14.7475586 62.3227539,14.0366211 60.8881836,14.0366211 C59.4345703,14.0366211 58.3364258,14.8935547 58.3364258,16.0297852 Z M67.4072266,20.1621094 C68.5307617,20.1621094 69.3623047,19.4257812 69.3623047,18.4482422 L69.3623047,17.8198242 L67.5214844,17.9404297 C66.4804688,18.0102539 66.0234375,18.3720703 66.0234375,19.0576172 C66.0234375,19.7558594 66.6137695,20.1621094 67.4072266,20.1621094 Z M67.2041016,21.1206055 C65.8774414,21.1206055 64.8935547,20.3334961 64.8935547,19.0830078 C64.8935547,17.8579102 65.7949219,17.1533203 67.3881836,17.0581055 L69.3623047,16.9375 L69.3623047,16.3154297 C69.3623047,15.4711914 68.8354492,15.0078125 67.8134766,15.0078125 C66.9946289,15.0078125 66.4233398,15.3188477 66.2709961,15.8583984 L65.1665039,15.8583984 C65.3125,14.7602539 66.3916016,14.0366211 67.8515625,14.0366211 C69.5209961,14.0366211 70.4541016,14.8935547 70.4541016,16.3154297 L70.4541016,21 L69.4130859,21 L69.4130859,19.9907227 L69.3115234,19.9907227 C68.8671875,20.7207031 68.1181641,21.1206055 67.2041016,21.1206055 Z M75.2402344,19.9335938 C76.5097656,19.9335938 77.2714844,18.96875 77.2714844,17.4770508 C77.2714844,15.9853516 76.503418,15.0205078 75.2402344,15.0205078 C73.9707031,15.0205078 73.2597656,15.9853516 73.2597656,17.4770508 C73.2597656,18.96875 73.9707031,19.9335938 75.2402344,19.9335938 Z M75.2910156,23.6279297 C73.640625,23.6279297 72.5869141,22.8852539 72.421875,21.7553711 L73.5771484,21.7553711 C73.6977539,22.3139648 74.3071289,22.6757812 75.2910156,22.6757812 C76.5161133,22.6757812 77.2460938,22.0727539 77.2460938,21.0634766 L77.2460938,19.7177734 L77.1445312,19.7177734 C76.7128906,20.4731445 75.9384766,20.8984375 74.9990234,20.8984375 C73.2280273,20.8984375 72.1298828,19.5273438 72.1298828,17.4770508 C72.1298828,15.4267578 73.2407227,14.0366211 74.9990234,14.0366211 C75.9575195,14.0366211 76.8017578,14.5063477 77.1953125,15.2426758 L77.296875,15.2426758 L77.296875,14.1572266 L78.3378906,14.1572266 L78.3378906,21.1206055 C78.3378906,22.6503906 77.1572266,23.6279297 75.2910156,23.6279297 Z M83.1240234,15.0014648 C82.0322266,15.0014648 81.2705078,15.8012695 81.1879883,17.0136719 L84.9584961,17.0136719 C84.9331055,15.8012695 84.2094727,15.0014648 83.1240234,15.0014648 Z M84.9267578,19.2290039 L86.0185547,19.2290039 C85.6884766,20.4033203 84.6347656,21.1206055 83.1367188,21.1206055 C81.2387695,21.1206055 80.0517578,19.7495117 80.0517578,17.5849609 C80.0517578,15.4331055 81.2578125,14.0366211 83.1367188,14.0366211 C84.9838867,14.0366211 86.1074219,15.3505859 86.1074219,17.4770508 L86.1074219,17.8959961 L81.1879883,17.8959961 L81.1879883,17.9467773 C81.2451172,19.2988281 82.0004883,20.1557617 83.1621094,20.1557617 C84.0444336,20.1557617 84.6411133,19.8320312 84.9267578,19.2290039 Z"/>
      </g>
      <rect width="5" height="1" x="39" fill="#0A84FF"/>
      <rect width="5" height="1" x="39" y="31" fill="#0A84FF"/>
      <rect width="1" height="32" x="41" fill="#0A84FF"/>
      <polygon fill="#0A84FF" points="31 16 35 12 39 16 35 20"/>
      <rect width="35" height="22" y="5" fill="#0A84FF" rx="2"/>
      <path fill="#FFF" d="M6.778,15.14 L6.778,16.004 C6.97000096,15.9799999 7.17399892,15.968 7.39,15.968 C7.64600128,15.968 7.8839989,16.0019997 8.104,16.07 C8.3240011,16.1380003 8.5139992,16.2419993 8.674,16.382 C8.8340008,16.5220007 8.96199952,16.693999 9.058,16.898 C9.15400048,17.102001 9.202,17.3359987 9.202,17.6 C9.202,17.8560013 9.1520005,18.085999 9.052,18.29 C8.9519995,18.494001 8.81800084,18.6659993 8.65,18.806 C8.48199916,18.9460007 8.28600112,19.0539996 8.062,19.13 C7.83799888,19.2060004 7.60200124,19.244 7.354,19.244 C6.76999708,19.244 6.32600152,19.0700017 6.022,18.722 C5.71799848,18.3739983 5.55800008,17.9240028 5.542,17.372 L4.522,17.372 C4.51399996,17.8120022 4.57599934,18.2039983 4.708,18.548 C4.84000066,18.8920017 5.02999876,19.1819988 5.278,19.418 C5.52600124,19.6540012 5.82599824,19.8319994 6.178,19.952 C6.53000176,20.0720006 6.92199784,20.132 7.354,20.132 C7.754002,20.132 8.13199822,20.0780005 8.488,19.97 C8.84400178,19.8619995 9.15399868,19.7000011 9.418,19.484 C9.68200132,19.2679989 9.89199922,18.9980016 10.048,18.674 C10.2040008,18.3499984 10.282,17.9760021 10.282,17.552 C10.282,17.0399974 10.1560013,16.5960019 9.904,16.22 C9.65199874,15.8439981 9.2660026,15.6000006 8.746,15.488 L8.746,15.464 C9.08200168,15.3119992 9.36199888,15.0880015 9.586,14.792 C9.81000112,14.4959985 9.922,14.1560019 9.922,13.772 C9.922,13.379998 9.85600066,13.0400014 9.724,12.752 C9.59199934,12.4639986 9.41000116,12.2280009 9.178,12.044 C8.94599884,11.8599991 8.67200158,11.7220005 8.356,11.63 C8.03999842,11.5379995 7.69800184,11.492 7.33,11.492 C6.90599788,11.492 6.53200162,11.5599993 6.208,11.696 C5.88399838,11.8320007 5.61400108,12.0199988 5.398,12.26 C5.18199892,12.5000012 5.01600058,12.7879983 4.9,13.124 C4.78399942,13.4600017 4.71800008,13.831998 4.702,14.24 L5.722,14.24 C5.722,13.9919988 5.75399968,13.7560011 5.818,13.532 C5.88200032,13.3079989 5.97999934,13.1120008 6.112,12.944 C6.24400066,12.7759992 6.41199898,12.6420005 6.616,12.542 C6.82000102,12.4419995 7.05799864,12.392 7.33,12.392 C7.76200216,12.392 8.12199856,12.5059989 8.41,12.734 C8.69800144,12.9620011 8.842,13.3039977 8.842,13.76 C8.842,13.9840011 8.79800044,14.1839991 8.71,14.36 C8.62199956,14.5360009 8.50400074,14.6819994 8.356,14.798 C8.20799926,14.9140006 8.03600098,15.0019997 7.84,15.062 C7.64399902,15.1220003 7.43800108,15.152 7.222,15.152 L6.886,15.152 C6.85399984,15.152 6.8180002,15.148 6.778,15.14 Z M11.362,14.504 L12.382,14.504 C12.374,14.2479987 12.3999997,13.9940013 12.46,13.742 C12.5200003,13.4899987 12.6179993,13.264001 12.754,13.064 C12.8900007,12.863999 13.0639989,12.7020006 13.276,12.578 C13.4880011,12.4539994 13.7419985,12.392 14.038,12.392 C14.2620011,12.392 14.473999,12.4279996 14.674,12.5 C14.874001,12.5720004 15.0479993,12.6759993 15.196,12.812 C15.3440007,12.9480007 15.4619996,13.1099991 15.55,13.298 C15.6380004,13.4860009 15.682,13.6959988 15.682,13.928 C15.682,14.2240015 15.6360005,14.4839989 15.544,14.708 C15.4519995,14.9320011 15.3160009,15.139999 15.136,15.332 C14.9559991,15.524001 14.7300014,15.7139991 14.458,15.902 C14.1859986,16.0900009 13.8700018,16.2959989 13.51,16.52 C13.2139985,16.6960009 12.9300014,16.883999 12.658,17.084 C12.3859986,17.284001 12.1420011,17.5159987 11.926,17.78 C11.7099989,18.0440013 11.5320007,18.3539982 11.392,18.71 C11.2519993,19.0660018 11.1620002,19.4959975 11.122,20 L16.678,20 L16.678,19.1 L12.31,19.1 C12.3580002,18.8359987 12.4599992,18.602001 12.616,18.398 C12.7720008,18.193999 12.9599989,18.0040009 13.18,17.828 C13.4000011,17.6519991 13.6419987,17.4860008 13.906,17.33 C14.1700013,17.1739992 14.4339987,17.0160008 14.698,16.856 C14.9620013,16.6879992 15.2179988,16.5120009 15.466,16.328 C15.7140012,16.1439991 15.933999,15.9380011 16.126,15.71 C16.318001,15.4819989 16.4719994,15.2240014 16.588,14.936 C16.7040006,14.6479986 16.762,14.3160019 16.762,13.94 C16.762,13.539998 16.6920007,13.1880015 16.552,12.884 C16.4119993,12.5799985 16.2220012,12.326001 15.982,12.122 C15.7419988,11.917999 15.4600016,11.7620005 15.136,11.654 C14.8119984,11.5459995 14.4660018,11.492 14.098,11.492 C13.6499978,11.492 13.2500018,11.5679992 12.898,11.72 C12.5459982,11.8720008 12.2520012,12.0819987 12.016,12.35 C11.7799988,12.6180013 11.6060006,12.9359982 11.494,13.304 C11.3819994,13.6720018 11.3379999,14.0719978 11.362,14.504 Z M18.31,13.796 L19.33,13.796 L19.33,14.636 L19.354,14.636 C19.5220008,14.2919983 19.7859982,14.0420008 20.146,13.886 C20.5060018,13.7299992 20.9019978,13.652 21.334,13.652 C21.8140024,13.652 22.2319982,13.7399991 22.588,13.916 C22.9440018,14.0920009 23.2399988,14.3299985 23.476,14.63 C23.7120012,14.9300015 23.8899994,15.275998 24.01,15.668 C24.1300006,16.060002 24.19,16.4759978 24.19,16.916 C24.19,17.3560022 24.1320006,17.771998 24.016,18.164 C23.8999994,18.556002 23.7240012,18.8979985 23.488,19.19 C23.2519988,19.4820015 22.9560018,19.7119992 22.6,19.88 C22.2439982,20.0480008 21.8300024,20.132 21.358,20.132 C21.2059992,20.132 21.0360009,20.1160002 20.848,20.084 C20.6599991,20.0519998 20.4740009,20.0000004 20.29,19.928 C20.1059991,19.8559996 19.9320008,19.7580006 19.768,19.634 C19.6039992,19.5099994 19.4660006,19.3560009 19.354,19.172 L19.33,19.172 L19.33,22.364 L18.31,22.364 L18.31,13.796 Z M23.11,16.844 C23.11,16.5559986 23.0720004,16.2740014 22.996,15.998 C22.9199996,15.7219986 22.8040008,15.4760011 22.648,15.26 C22.4919992,15.0439989 22.2920012,14.8720006 22.048,14.744 C21.8039988,14.6159994 21.5180016,14.552 21.19,14.552 C20.8459983,14.552 20.5540012,14.6199993 20.314,14.756 C20.0739988,14.8920007 19.8780008,15.0699989 19.726,15.29 C19.5739992,15.5100011 19.4640003,15.7599986 19.396,16.04 C19.3279997,16.3200014 19.294,16.6039986 19.294,16.892 C19.294,17.1960015 19.3299996,17.4899986 19.402,17.774 C19.4740004,18.0580014 19.5879992,18.3079989 19.744,18.524 C19.9000008,18.7400011 20.1019988,18.9139993 20.35,19.046 C20.5980012,19.1780007 20.8979982,19.244 21.25,19.244 C21.6020018,19.244 21.8959988,19.1760007 22.132,19.04 C22.3680012,18.9039993 22.5579993,18.7240011 22.702,18.5 C22.8460007,18.2759989 22.9499997,18.0200014 23.014,17.732 C23.0780003,17.4439986 23.11,17.1480015 23.11,16.844 Z M27.058,16.736 L24.73,20 L25.966,20 L27.694,17.432 L29.422,20 L30.73,20 L28.33,16.652 L30.466,13.796 L29.242,13.796 L27.694,15.968 L26.206,13.796 L24.898,13.796 L27.058,16.736 Z"/>
    </g>
  </g>
</svg>
