<svg xmlns="http://www.w3.org/2000/svg" xmlns:xlink="http://www.w3.org/1999/xlink" width="350" height="180" style="background:none" viewBox="0 0 350 180">
  <defs>
    <path id="i-suc-a" d="M3.99375545,11.9989024 C3.72815873,11.9988457 3.47346086,11.8933935 3.28568398,11.7057404 L0.281137443,8.70408197 C-0.0984091032,8.31148617 -0.0929810538,7.68743549 0.293337329,7.30148846 C0.679655711,6.91554142 1.30430684,6.91011859 1.69728038,7.2893003 L3.85754934,9.44749271 L10.1831213,0.419504703 C10.5022164,-0.0272991976 11.1220373,-0.13387488 11.5722906,0.180642683 C12.0225439,0.495160246 12.1351219,1.11334196 11.8246052,1.56613822 L4.81399665,11.5716663 C4.645093,11.8155968 4.376564,11.9720882 4.0808873,11.9989024 C4.05186182,12.0003659 4.02278092,12.0003659 3.99375545,11.9989024 Z"/>
    <path id="i-suc-c" d="M3.99375545,11.9989024 C3.72815873,11.9988457 3.47346086,11.8933935 3.28568398,11.7057404 L0.281137443,8.70408197 C-0.0984091032,8.31148617 -0.0929810538,7.68743549 0.293337329,7.30148846 C0.679655711,6.91554142 1.30430684,6.91011859 1.69728038,7.2893003 L3.85754934,9.44749271 L10.1831213,0.419504703 C10.5022164,-0.0272991976 11.1220373,-0.13387488 11.5722906,0.180642683 C12.0225439,0.495160246 12.1351219,1.11334196 11.8246052,1.56613822 L4.81399665,11.5716663 C4.645093,11.8155968 4.376564,11.9720882 4.0808873,11.9989024 C4.05186182,12.0003659 4.02278092,12.0003659 3.99375545,11.9989024 Z"/>
  </defs>
  <g fill="none" fill-rule="evenodd" transform="translate(100 73)">
    <g transform="translate(0 .5)">
      <rect width="32" height="32" x=".356" y=".045" fill="#30E60B" rx="3"/>
      <g transform="translate(4.356 4.045)">
        <rect width="24" height="24"/>
        <g transform="translate(6 6)">
          <mask id="i-suc-b" fill="#fff">
            <use xlink:href="#i-suc-a"/>
          </mask>
          <use fill="#0C0C0D" fill-opacity=".8" fill-rule="nonzero" xlink:href="#i-suc-a"/>
          <g fill="#003706" mask="url(#i-suc-b)">
            <rect width="200" height="200" transform="translate(-91 -92)"/>
          </g>
        </g>
      </g>
    </g>
    <g transform="translate(80.672 1)">
      <rect width="32" height="32" x=".356" y=".045" fill="#30E60B" rx="3"/>
      <g transform="translate(4.356 4.045)">
        <rect width="20" height="20" x="2.002" y="2" stroke="#FFF" stroke-opacity=".8" stroke-width="4"/>
        <rect width="20" height="20" x="2.002" y="2" stroke="#00FEFF" stroke-opacity=".2" stroke-width="4"/>
        <g transform="translate(6 6)">
          <mask id="i-suc-d" fill="#fff">
            <use xlink:href="#i-suc-c"/>
          </mask>
          <use fill="#0C0C0D" fill-opacity=".8" fill-rule="nonzero" xlink:href="#i-suc-c"/>
          <g fill="#003706" mask="url(#i-suc-d)">
            <rect width="200" height="200" transform="translate(-91 -92)"/>
          </g>
        </g>
      </g>
    </g>
    <g transform="translate(75 24)">
      <rect width="1" height="5" x="10" fill="#00FEFF" fill-opacity=".5"/>
      <rect width="1" height="5" x="13" fill="#00FEFF" fill-opacity=".5"/>
      <rect width="4" height="1" x="10" y="2" fill="#00FEFF" fill-opacity=".5"/>
      <polygon fill="#00FEFF" fill-opacity=".5" points="8 9 12 5 16 9 12 13"/>
      <rect width="24" height="23" y="9" fill="#00FEFF" fill-opacity=".5" rx="2"/>
      <path fill="#002D3E" d="M9.065,22.35 L9.065,21.62 L8.195,21.62 L8.195,19.82 L7.395,19.82 L7.315,21.62 L5.415,21.62 L7.225,17.53 L6.455,17.21 L4.445,21.69 L4.445,22.35 L7.305,22.35 L7.305,24 L8.195,24 L8.195,22.35 L9.065,22.35 Z M12.735,18.61 C14.135,18.61 14.685,19.7 14.685,21.36 C14.685,22.96 13.975,24.12 12.615,24.12 C12.045,24.12 11.575,23.93 11.235,23.52 L11.235,26.02 L10.315,26.13 L10.315,18.73 L11.105,18.73 L11.175,19.44 C11.565,18.9 12.135,18.61 12.735,18.61 Z M12.395,23.37 C13.235,23.37 13.695,22.74 13.695,21.36 C13.695,19.99 13.295,19.34 12.505,19.34 C11.945,19.34 11.515,19.74 11.235,20.16 L11.235,22.73 C11.505,23.14 11.915,23.37 12.395,23.37 Z M19.905,24 L18.075,21.18 L19.695,18.73 L18.655,18.73 L17.545,20.66 L16.445,18.73 L15.365,18.73 L16.995,21.22 L15.155,24 L16.195,24 L17.505,21.77 L18.795,24 L19.905,24 Z"/>
    </g>
    <g transform="translate(106 6)">
      <rect width="5" height="1" y="3" fill="#FF1AD9"/>
      <rect width="5" height="1" y="18" fill="#FF1AD9"/>
      <rect width="1" height="16" x="2" y="3" fill="#FF1AD9"/>
      <polygon fill="#FF1AD9" points="5 11 9 7 13 11 9 15"/>
      <rect width="35" height="22" x="9" fill="#FF1AD9" rx="2"/>
      <path fill="#FFF" d="M17.434,15 L17.434,6.492 L16.654,6.492 C16.5979997,6.8120016 16.4940008,7.07599896 16.342,7.284 C16.1899992,7.49200104 16.0040011,7.6559994 15.784,7.776 C15.5639989,7.8960006 15.3180014,7.97799978 15.046,8.022 C14.7739986,8.06600022 14.4940014,8.088 14.206,8.088 L14.206,8.904 L16.414,8.904 L16.414,15 L17.434,15 Z M24.802,8.664 C24.7539998,8.27999808 24.6060012,7.97200116 24.358,7.74 C24.1099988,7.50799884 23.782002,7.392 23.374,7.392 C22.9419978,7.392 22.5940013,7.49799894 22.33,7.71 C22.0659987,7.92200106 21.8600007,8.18999838 21.712,8.514 C21.5639993,8.83800162 21.4620003,9.18799812 21.406,9.564 C21.3499997,9.94000188 21.318,10.2919984 21.31,10.62 L21.334,10.644 C21.5740012,10.251998 21.8719982,9.96800088 22.228,9.792 C22.5840018,9.61599912 22.9939977,9.528 23.458,9.528 C23.866002,9.528 24.2319984,9.5979993 24.556,9.738 C24.8800016,9.8780007 25.1519989,10.0719988 25.372,10.32 C25.5920011,10.5680012 25.7619994,10.8599983 25.882,11.196 C26.0020006,11.5320017 26.062,11.895998 26.062,12.288 C26.062,12.6000016 26.0140005,12.9239983 25.918,13.26 C25.8219995,13.5960017 25.6640011,13.9019986 25.444,14.178 C25.2239989,14.4540014 24.9320018,14.6819991 24.568,14.862 C24.2039982,15.0420009 23.7540027,15.132 23.218,15.132 C22.5859968,15.132 22.0780019,15.0040013 21.694,14.748 C21.3099981,14.4919987 21.014001,14.164002 20.806,13.764 C20.597999,13.363998 20.4600003,12.9240024 20.392,12.444 C20.3239997,11.9639976 20.29,11.5000022 20.29,11.052 C20.29,10.4679971 20.3399995,9.90200274 20.44,9.354 C20.5400005,8.80599726 20.7099988,8.32000212 20.95,7.896 C21.1900012,7.47199788 21.509998,7.13200128 21.91,6.876 C22.310002,6.61999872 22.813997,6.492 23.422,6.492 C24.1260035,6.492 24.6859979,6.67799814 25.102,7.05 C25.5180021,7.42200186 25.7579997,7.95999648 25.822,8.664 L24.802,8.664 Z M23.266,10.428 C22.9779986,10.428 22.7260011,10.4779995 22.51,10.578 C22.2939989,10.6780005 22.1100008,10.8139991 21.958,10.986 C21.8059992,11.1580009 21.6920004,11.3619988 21.616,11.598 C21.5399996,11.8340012 21.502,12.0839987 21.502,12.348 C21.502,12.6120013 21.5419996,12.8599988 21.622,13.092 C21.7020004,13.3240012 21.8159993,13.5239992 21.964,13.692 C22.1120007,13.8600008 22.2959989,13.9939995 22.516,14.094 C22.7360011,14.1940005 22.9859986,14.244 23.266,14.244 C23.5460014,14.244 23.7919989,14.1940005 24.004,14.094 C24.2160011,13.9939995 24.3939993,13.8560009 24.538,13.68 C24.6820007,13.5039991 24.7919996,13.3020011 24.868,13.074 C24.9440004,12.8459989 24.982,12.6080012 24.982,12.36 C24.982,12.0959987 24.9480003,11.8460012 24.88,11.61 C24.8119997,11.3739988 24.7060007,11.1700009 24.562,10.998 C24.4179993,10.8259991 24.2380011,10.6880005 24.022,10.584 C23.8059989,10.4799995 23.5540014,10.428 23.266,10.428 Z M27.31,8.796 L28.33,8.796 L28.33,9.636 L28.354,9.636 C28.5220008,9.29199828 28.7859982,9.04200078 29.146,8.886 C29.5060018,8.72999922 29.9019978,8.652 30.334,8.652 C30.8140024,8.652 31.2319982,8.73999912 31.588,8.916 C31.9440018,9.09200088 32.2399988,9.3299985 32.476,9.63 C32.7120012,9.9300015 32.8899994,10.275998 33.01,10.668 C33.1300006,11.060002 33.19,11.4759978 33.19,11.916 C33.19,12.3560022 33.1320006,12.771998 33.016,13.164 C32.8999994,13.556002 32.7240012,13.8979985 32.488,14.19 C32.2519988,14.4820015 31.9560018,14.7119992 31.6,14.88 C31.2439982,15.0480008 30.8300024,15.132 30.358,15.132 C30.2059992,15.132 30.0360009,15.1160002 29.848,15.084 C29.6599991,15.0519998 29.4740009,15.0000004 29.29,14.928 C29.1059991,14.8559996 28.9320008,14.7580006 28.768,14.634 C28.6039992,14.5099994 28.4660006,14.3560009 28.354,14.172 L28.33,14.172 L28.33,17.364 L27.31,17.364 L27.31,8.796 Z M32.11,11.844 C32.11,11.5559986 32.0720004,11.2740014 31.996,10.998 C31.9199996,10.7219986 31.8040008,10.4760011 31.648,10.26 C31.4919992,10.0439989 31.2920012,9.87200064 31.048,9.744 C30.8039988,9.61599936 30.5180016,9.552 30.19,9.552 C29.8459983,9.552 29.5540012,9.61999932 29.314,9.756 C29.0739988,9.89200068 28.8780008,10.0699989 28.726,10.29 C28.5739992,10.5100011 28.4640003,10.7599986 28.396,11.04 C28.3279997,11.3200014 28.294,11.6039986 28.294,11.892 C28.294,12.1960015 28.3299996,12.4899986 28.402,12.774 C28.4740004,13.0580014 28.5879992,13.3079989 28.744,13.524 C28.9000008,13.7400011 29.1019988,13.9139993 29.35,14.046 C29.5980012,14.1780007 29.8979982,14.244 30.25,14.244 C30.6020018,14.244 30.8959988,14.1760007 31.132,14.04 C31.3680012,13.9039993 31.5579993,13.7240011 31.702,13.5 C31.8460007,13.2759989 31.9499997,13.0200014 32.014,12.732 C32.0780003,12.4439986 32.11,12.1480015 32.11,11.844 Z M36.058,11.736 L33.73,15 L34.966,15 L36.694,12.432 L38.422,15 L39.73,15 L37.33,11.652 L39.466,8.796 L38.242,8.796 L36.694,10.968 L35.206,8.796 L33.898,8.796 L36.058,11.736 Z"/>
    </g>
  </g>
</svg>
