<svg xmlns="http://www.w3.org/2000/svg" xmlns:xlink="http://www.w3.org/1999/xlink" width="350" height="180" viewBox="0 0 350 180">
  <defs>
    <path id="i-war-a" d="M13.6929417,11.0118641 L8.73994165,1.1058641 C8.40121551,0.428135952 7.70860308,0 6.95094165,0 C6.19328022,0 5.50066779,0.428135952 5.16194165,1.1058641 L0.208941651,11.0158641 C-0.0989581202,11.6354894 -0.0647229393,12.3702439 0.299459428,12.9585541 C0.663641796,13.5468644 1.30603325,13.9051512 1.99794165,13.9058641 L11.9029417,13.9058641 C12.5961777,13.9061872 13.2401412,13.5474994 13.6048048,12.957926 C13.9694684,12.3683526 14.0028183,11.6319873 13.6929417,11.0118641 L13.6929417,11.0118641 Z M5.95094165,3.9058641 C5.95094165,3.35357935 6.3986569,2.9058641 6.95094165,2.9058641 C7.5032264,2.9058641 7.95094165,3.35357935 7.95094165,3.9058641 L7.95094165,7.9058641 C7.95094165,8.45814885 7.5032264,8.9058641 6.95094165,8.9058641 C6.3986569,8.9058641 5.95094165,8.45814885 5.95094165,7.9058641 L5.95094165,3.9058641 Z M6.95094165,12.1558641 C6.26058571,12.1558641 5.70094165,11.59622 5.70094165,10.9058641 C5.70094165,10.2155082 6.26058571,9.6558641 6.95094165,9.6558641 C7.64129759,9.6558641 8.20094165,10.2155082 8.20094165,10.9058641 C8.20094165,11.59622 7.64129759,12.1558641 6.95094165,12.1558641 L6.95094165,12.1558641 Z"/>
  </defs>
  <g fill="none" fill-rule="evenodd" transform="translate(136 73)">
    <g transform="translate(1 .5)">
      <g transform="translate(6 .5)">
        <rect width="32" height="32" x=".356" y=".045" fill="#FFE900" rx="3"/>
        <g transform="translate(4.356 4.045)">
          <rect width="20" height="20" x="2.002" y="2" stroke="#FFF" stroke-opacity=".8" stroke-width="4"/>
          <rect width="20" height="20" x="2.002" y="2" stroke="#00FEFF" stroke-opacity=".2" stroke-width="4"/>
          <g transform="translate(5 5)">
            <mask id="i-war-b" fill="#fff">
              <use xlink:href="#i-war-a"/>
            </mask>
            <use fill="#0C0C0D" fill-opacity=".8" fill-rule="nonzero" xlink:href="#i-war-a"/>
            <g fill="#3E2800" mask="url(#i-war-b)">
              <rect width="200" height="200" transform="translate(-93 -93)"/>
            </g>
          </g>
        </g>
      </g>
      <rect width="1" height="5" x="10.328" y="23.5" fill="#22E800"/>
      <rect width="1" height="5" x="13.328" y="23.5" fill="#22E800"/>
      <rect width="4" height="1" x="10.328" y="25.5" fill="#22E800"/>
      <polygon fill="#22E800" points="8.328 36.5 12.328 32.5 16.328 36.5 12.328 40.5"/>
      <rect width="24" height="23" x=".328" y="36.5" fill="#22E800" rx="2"/>
      <rect width="5" height="1" x="31.328" y="8.5" fill="#FF1AD9"/>
      <rect width="5" height="1" x="31.328" y="23.5" fill="#FF1AD9"/>
      <rect width="1" height="16" x="33.328" y="8.5" fill="#FF1AD9"/>
      <polygon fill="#FF1AD9" points="36.328 16.5 40.328 12.5 44.328 16.5 40.328 20.5"/>
      <rect width="35" height="22" x="40.328" y="5.5" fill="#FF1AD9" rx="2"/>
      <path fill="#FFF" d="M47.2218593,19.612 L45.1938593,19.612 L45.1938593,20.5 L50.0178593,20.5 L50.0178593,19.612 L48.3258593,19.612 L48.3258593,12.232 L47.3538593,12.232 L44.7138593,13.876 L45.2418593,14.644 L47.2218593,13.444 L47.2218593,19.612 Z M56.5938593,12.58 L56.1138593,13.324 C55.7538593,13.06 55.4058593,12.964 55.0218593,12.964 C53.8818593,12.964 52.8978593,14.08 52.8378593,16.168 C53.3658593,15.472 54.1338593,15.112 54.8418593,15.112 C56.0298593,15.112 57.1698593,15.964 57.1698593,17.8 C57.1698593,19.588 55.9818593,20.644 54.5658593,20.644 C52.5498593,20.644 51.7338593,18.868 51.7338593,16.792 C51.7338593,13.996 53.0178593,12.088 55.0338593,12.088 C55.6098593,12.088 56.1018593,12.232 56.5938593,12.58 Z M54.6378593,15.988 C53.9658593,15.988 53.2698593,16.456 52.8498593,17.104 C52.8858593,18.76 53.4258593,19.768 54.5658593,19.768 C55.5498593,19.768 56.0418593,19.024 56.0418593,17.836 C56.0418593,16.456 55.4058593,15.988 54.6378593,15.988 Z M60.3258593,22.924 L59.2218593,23.056 L59.2218593,14.176 L60.1698593,14.176 L60.2538593,15.04 C60.7218593,14.392 61.3938593,14.032 62.1258593,14.032 C63.8058593,14.032 64.4178593,15.34 64.4178593,17.332 C64.4178593,19.252 63.6138593,20.644 61.9818593,20.644 C61.2978593,20.644 60.7338593,20.416 60.3258593,19.924 L60.3258593,22.924 Z M61.7178593,19.744 C62.7258593,19.744 63.2418593,18.988 63.2418593,17.332 C63.2418593,15.688 62.7978593,14.908 61.8498593,14.908 C61.1778593,14.908 60.6618593,15.388 60.3258593,15.892 L60.3258593,18.976 C60.6498593,19.468 61.1418593,19.744 61.7178593,19.744 Z M68.8458593,17.86 L70.5018593,20.5 L71.8338593,20.5 L69.5178593,17.116 L71.5458593,14.176 L70.2978593,14.176 L68.8938593,16.456 L68.8458593,16.456 L67.4538593,14.176 L66.1578593,14.176 L68.1978593,17.164 L65.8818593,20.5 L67.1298593,20.5 L68.7978593,17.86 L68.8458593,17.86 Z"/>
      <path fill="#003706" d="M8.5978617,49.85 L8.5978617,49.12 L7.7278617,49.12 L7.7278617,47.32 L6.9278617,47.32 L6.8378617,49.12 L4.9878617,49.12 L6.8078617,44.81 L6.0378617,44.49 L4.0178617,49.2 L4.0178617,49.85 L6.8378617,49.85 L6.8378617,51.5 L7.7278617,51.5 L7.7278617,49.85 L8.5978617,49.85 Z M11.2178617,53.52 L10.2978617,53.63 L10.2978617,46.23 L11.0878617,46.23 L11.1578617,46.95 C11.5478617,46.41 12.1078617,46.11 12.7178617,46.11 C14.1178617,46.11 14.6278617,47.2 14.6278617,48.86 C14.6278617,50.46 13.9578617,51.62 12.5978617,51.62 C12.0278617,51.62 11.5578617,51.43 11.2178617,51.02 L11.2178617,53.52 Z M12.3778617,50.87 C13.2178617,50.87 13.6478617,50.24 13.6478617,48.86 C13.6478617,47.49 13.2778617,46.84 12.4878617,46.84 C11.9278617,46.84 11.4978617,47.24 11.2178617,47.66 L11.2178617,50.23 C11.4878617,50.64 11.8978617,50.87 12.3778617,50.87 Z M18.3178617,49.3 L19.6978617,51.5 L20.8078617,51.5 L18.8778617,48.68 L20.5678617,46.23 L19.5278617,46.23 L18.3578617,48.13 L18.3178617,48.13 L17.1578617,46.23 L16.0778617,46.23 L17.7778617,48.72 L15.8478617,51.5 L16.8878617,51.5 L18.2778617,49.3 L18.3178617,49.3 Z"/>
    </g>
  </g>
</svg>
