<?xml version="1.0" encoding="UTF-8"?>
<svg width="380px" height="180px" viewBox="0 0 380 180" version="1.1" xmlns="http://www.w3.org/2000/svg" xmlns:xlink="http://www.w3.org/1999/xlink">
    <!-- Generator: Sketch 48.2 (47327) - http://www.bohemiancoding.com/sketch -->
    <title>s-gen</title>
    <desc>Created with Sketch.</desc>
    <defs>
        <rect id="path-1" x="0" y="0" width="285" height="32" rx="3"></rect>
        <path d="M7.22254109,5.98945674 L11.7593901,1.45260771 C12.0842229,1.11628355 12.0795773,0.581679455 11.7489489,0.251051076 C11.4183205,-0.0795773034 10.8837165,-0.0842228685 10.5473923,0.240609874 L6.01054326,4.77745891 L1.47369422,0.240609874 C1.13737006,-0.0842228685 0.602765966,-0.0795773034 0.272137586,0.251051076 C-0.0584907931,0.581679455 -0.0631363582,1.11628355 0.261696384,1.45260771 L4.79854542,5.98945674 L0.261696384,10.5263058 C0.0388768524,10.7415121 -0.0504852845,11.0602002 0.0279563816,11.359882 C0.106398048,11.6595638 0.340436167,11.893602 0.640118002,11.9720436 C0.939799836,12.0504853 1.25848791,11.9611231 1.47369422,11.7383036 L6.01054326,7.20145458 L10.5473923,11.7383036 C10.8837165,12.0631364 11.4183205,12.0584908 11.7489489,11.7278624 C12.0795773,11.397234 12.0842229,10.8626299 11.7593901,10.5263058 L7.22254109,5.98945674 Z" id="path-2"></path>
        <path d="M7,0 C3.13400675,-6.66133815e-16 4.4408921e-16,3.13400675 0,7 C-4.4408921e-16,10.8659932 3.13400675,14 7,14 C10.8659932,14 14,10.8659932 14,7 C13.9955914,3.13583434 10.8641657,0.00440863597 7,3.77475828e-15 L7,0 Z M7,13 C3.6862915,13 1,10.3137085 1,7 C1,3.6862915 3.6862915,1 7,1 C10.3137085,1 13,3.6862915 13,7 C12.9961426,10.3121094 10.3121094,12.9961426 7,13 Z M7,6 C6.44771525,6 6,6.44771525 6,7 L6,10 C6,10.5522847 6.44771525,11 7,11 C7.55228475,11 8,10.5522847 8,10 L8,7 C8,6.44771525 7.55228475,6 7,6 Z M7,2.812 C6.34388572,2.812 5.812,3.34388572 5.812,4 C5.812,4.65611428 6.34388572,5.188 7,5.188 C7.65611428,5.188 8.188,4.65611428 8.188,4 C8.188,3.68492281 8.06283607,3.38275036 7.84004286,3.15995714 C7.61724964,2.93716393 7.31507719,2.812 7,2.812 L7,2.812 Z" id="path-4"></path>
        <rect id="path-6" x="0.519967212" y="0" width="49" height="24" rx="2"></rect>
    </defs>
    <g id="export" stroke="none" stroke-width="1" fill="none" fill-rule="evenodd">
        <g id="s-gen">
            <g id="Group-3" transform="translate(4.500000, 64.000000)">
                <g id="Group" transform="translate(8.000000, 9.000000)">
                    <g id="message-bar-general-copy-2">
                        <g id="Rectangle">
                            <use fill="#EDEDF0" fill-rule="evenodd" xlink:href="#path-1"></use>
                            <rect stroke-opacity="0.3" stroke="#00FEFF" stroke-width="4" x="2" y="2" width="281" height="28" rx="3"></rect>
                        </g>
                        <g id="Icon-Container" transform="translate(257.000000, 4.000000)">
                            <rect id="Rectangle-2" x="0" y="0" width="24" height="24"></rect>
                            <g id="Icon-/-Stop-/-Web" transform="translate(4.000000, 4.000000)" fill-rule="evenodd" stroke-width="1">
                                <g id="Fill-/-Teal-/-90" transform="translate(2.000000, 2.000000)">
                                    <mask id="mask-3" fill="white">
                                        <use xlink:href="#path-2"></use>
                                    </mask>
                                    <use id="Mask" fill-opacity="0.8" fill="#0C0C0D" fill-rule="nonzero" xlink:href="#path-2"></use>
                                    <g id="Fill-/-Grey-/-90" mask="url(#mask-3)" fill="#0C0C0D">
                                        <g transform="translate(-89.000000, -91.000000)" id="Rectangle">
                                            <rect x="0" y="0" width="200" height="200"></rect>
                                        </g>
                                    </g>
                                </g>
                            </g>
                        </g>
                        <g id="Icon-Container" transform="translate(4.000000, 4.000000)">
                            <rect id="Rectangle-2" x="0" y="0" width="24" height="24"></rect>
                            <g id="Icon-/-Identity-/-Web" transform="translate(4.000000, 4.000000)" fill-rule="evenodd" stroke-width="1">
                                <g id="Fill-/-Yellow-/-90" transform="translate(1.000000, 1.000000)">
                                    <mask id="mask-5" fill="white">
                                        <use xlink:href="#path-4"></use>
                                    </mask>
                                    <use id="Mask" fill-opacity="0.8" fill="#0C0C0D" fill-rule="nonzero" xlink:href="#path-4"></use>
                                    <g id="Fill-/-Grey-/-90" mask="url(#mask-5)" fill="#0C0C0D">
                                        <g transform="translate(-94.058511, -95.048319)" id="Rectangle">
                                            <rect x="0" y="0" width="200" height="200"></rect>
                                        </g>
                                    </g>
                                </g>
                            </g>
                        </g>
                        <path d="M42.1943359,21 L42.1943359,11.840332 L40.8676758,11.840332 L37.7319336,19.4194336 L37.6303711,19.4194336 L34.4946289,11.840332 L33.1679688,11.840332 L33.1679688,21 L34.234375,21 L34.234375,14.0048828 L34.3105469,14.0048828 L37.1987305,20.9365234 L38.1635742,20.9365234 L41.0517578,14.0048828 L41.1279297,14.0048828 L41.1279297,21 L42.1943359,21 Z M47.1201172,15.0014648 C46.0283203,15.0014648 45.2666016,15.8012695 45.184082,17.0136719 L48.9545898,17.0136719 C48.9291992,15.8012695 48.2055664,15.0014648 47.1201172,15.0014648 Z M48.9228516,19.2290039 L50.0146484,19.2290039 C49.6845703,20.4033203 48.6308594,21.1206055 47.1328125,21.1206055 C45.2348633,21.1206055 44.0478516,19.7495117 44.0478516,17.5849609 C44.0478516,15.4331055 45.2539062,14.0366211 47.1328125,14.0366211 C48.9799805,14.0366211 50.1035156,15.3505859 50.1035156,17.4770508 L50.1035156,17.8959961 L45.184082,17.8959961 L45.184082,17.9467773 C45.2412109,19.2988281 45.996582,20.1557617 47.1582031,20.1557617 C48.0405273,20.1557617 48.637207,19.8320312 48.9228516,19.2290039 Z M51.6586914,16.0297852 C51.6586914,17.0200195 52.2426758,17.5722656 53.5249023,17.8833008 L54.6992188,18.1689453 C55.4291992,18.3466797 55.784668,18.6640625 55.784668,19.1337891 C55.784668,19.762207 55.1245117,20.2001953 54.2041016,20.2001953 C53.328125,20.2001953 52.7822266,19.8320312 52.5981445,19.2543945 L51.4746094,19.2543945 C51.5952148,20.390625 52.6425781,21.1206055 54.1660156,21.1206055 C55.7211914,21.1206055 56.9082031,20.2763672 56.9082031,19.0512695 C56.9082031,18.0673828 56.2861328,17.5087891 54.9975586,17.1977539 L53.9438477,16.9438477 C53.1376953,16.7470703 52.7568359,16.4550781 52.7568359,15.9853516 C52.7568359,15.3759766 53.3916016,14.9633789 54.2041016,14.9633789 C55.0292969,14.9633789 55.5625,15.3251953 55.7084961,15.8710938 L56.7875977,15.8710938 C56.6416016,14.7475586 55.6450195,14.0366211 54.2104492,14.0366211 C52.7568359,14.0366211 51.6586914,14.8935547 51.6586914,16.0297852 Z M58.3364258,16.0297852 C58.3364258,17.0200195 58.9204102,17.5722656 60.2026367,17.8833008 L61.3769531,18.1689453 C62.1069336,18.3466797 62.4624023,18.6640625 62.4624023,19.1337891 C62.4624023,19.762207 61.8022461,20.2001953 60.8818359,20.2001953 C60.0058594,20.2001953 59.4599609,19.8320312 59.2758789,19.2543945 L58.1523438,19.2543945 C58.2729492,20.390625 59.3203125,21.1206055 60.84375,21.1206055 C62.3989258,21.1206055 63.5859375,20.2763672 63.5859375,19.0512695 C63.5859375,18.0673828 62.9638672,17.5087891 61.675293,17.1977539 L60.621582,16.9438477 C59.8154297,16.7470703 59.4345703,16.4550781 59.4345703,15.9853516 C59.4345703,15.3759766 60.0693359,14.9633789 60.8818359,14.9633789 C61.7070312,14.9633789 62.2402344,15.3251953 62.3862305,15.8710938 L63.465332,15.8710938 C63.3193359,14.7475586 62.3227539,14.0366211 60.8881836,14.0366211 C59.4345703,14.0366211 58.3364258,14.8935547 58.3364258,16.0297852 Z M67.4072266,20.1621094 C68.5307617,20.1621094 69.3623047,19.4257812 69.3623047,18.4482422 L69.3623047,17.8198242 L67.5214844,17.9404297 C66.4804688,18.0102539 66.0234375,18.3720703 66.0234375,19.0576172 C66.0234375,19.7558594 66.6137695,20.1621094 67.4072266,20.1621094 Z M67.2041016,21.1206055 C65.8774414,21.1206055 64.8935547,20.3334961 64.8935547,19.0830078 C64.8935547,17.8579102 65.7949219,17.1533203 67.3881836,17.0581055 L69.3623047,16.9375 L69.3623047,16.3154297 C69.3623047,15.4711914 68.8354492,15.0078125 67.8134766,15.0078125 C66.9946289,15.0078125 66.4233398,15.3188477 66.2709961,15.8583984 L65.1665039,15.8583984 C65.3125,14.7602539 66.3916016,14.0366211 67.8515625,14.0366211 C69.5209961,14.0366211 70.4541016,14.8935547 70.4541016,16.3154297 L70.4541016,21 L69.4130859,21 L69.4130859,19.9907227 L69.3115234,19.9907227 C68.8671875,20.7207031 68.1181641,21.1206055 67.2041016,21.1206055 Z M75.2402344,19.9335938 C76.5097656,19.9335938 77.2714844,18.96875 77.2714844,17.4770508 C77.2714844,15.9853516 76.503418,15.0205078 75.2402344,15.0205078 C73.9707031,15.0205078 73.2597656,15.9853516 73.2597656,17.4770508 C73.2597656,18.96875 73.9707031,19.9335938 75.2402344,19.9335938 Z M75.2910156,23.6279297 C73.640625,23.6279297 72.5869141,22.8852539 72.421875,21.7553711 L73.5771484,21.7553711 C73.6977539,22.3139648 74.3071289,22.6757812 75.2910156,22.6757812 C76.5161133,22.6757812 77.2460938,22.0727539 77.2460938,21.0634766 L77.2460938,19.7177734 L77.1445312,19.7177734 C76.7128906,20.4731445 75.9384766,20.8984375 74.9990234,20.8984375 C73.2280273,20.8984375 72.1298828,19.5273438 72.1298828,17.4770508 C72.1298828,15.4267578 73.2407227,14.0366211 74.9990234,14.0366211 C75.9575195,14.0366211 76.8017578,14.5063477 77.1953125,15.2426758 L77.296875,15.2426758 L77.296875,14.1572266 L78.3378906,14.1572266 L78.3378906,21.1206055 C78.3378906,22.6503906 77.1572266,23.6279297 75.2910156,23.6279297 Z M83.1240234,15.0014648 C82.0322266,15.0014648 81.2705078,15.8012695 81.1879883,17.0136719 L84.9584961,17.0136719 C84.9331055,15.8012695 84.2094727,15.0014648 83.1240234,15.0014648 Z M84.9267578,19.2290039 L86.0185547,19.2290039 C85.6884766,20.4033203 84.6347656,21.1206055 83.1367188,21.1206055 C81.2387695,21.1206055 80.0517578,19.7495117 80.0517578,17.5849609 C80.0517578,15.4331055 81.2578125,14.0366211 83.1367188,14.0366211 C84.9838867,14.0366211 86.1074219,15.3505859 86.1074219,17.4770508 L86.1074219,17.8959961 L81.1879883,17.8959961 L81.1879883,17.9467773 C81.2451172,19.2988281 82.0004883,20.1557617 83.1621094,20.1557617 C84.0444336,20.1557617 84.6411133,19.8320312 84.9267578,19.2290039 Z M94.2578125,19.9335938 C95.5273438,19.9335938 96.2890625,18.96875 96.2890625,17.4770508 C96.2890625,15.9853516 95.5209961,15.0205078 94.2578125,15.0205078 C92.9882812,15.0205078 92.2773438,15.9853516 92.2773438,17.4770508 C92.2773438,18.96875 92.9882812,19.9335938 94.2578125,19.9335938 Z M94.3085938,23.6279297 C92.6582031,23.6279297 91.6044922,22.8852539 91.4394531,21.7553711 L92.5947266,21.7553711 C92.715332,22.3139648 93.324707,22.6757812 94.3085938,22.6757812 C95.5336914,22.6757812 96.2636719,22.0727539 96.2636719,21.0634766 L96.2636719,19.7177734 L96.1621094,19.7177734 C95.7304688,20.4731445 94.9560547,20.8984375 94.0166016,20.8984375 C92.2456055,20.8984375 91.1474609,19.5273438 91.1474609,17.4770508 C91.1474609,15.4267578 92.2583008,14.0366211 94.0166016,14.0366211 C94.9750977,14.0366211 95.8193359,14.5063477 96.2128906,15.2426758 L96.3144531,15.2426758 L96.3144531,14.1572266 L97.3554688,14.1572266 L97.3554688,21.1206055 C97.3554688,22.6503906 96.1748047,23.6279297 94.3085938,23.6279297 Z M102.224121,21.1206055 C100.275391,21.1206055 99.0693359,19.7749023 99.0693359,17.5786133 C99.0693359,15.3759766 100.275391,14.0366211 102.224121,14.0366211 C104.172852,14.0366211 105.378906,15.3759766 105.378906,17.5786133 C105.378906,19.7749023 104.172852,21.1206055 102.224121,21.1206055 Z M102.224121,20.1367188 C103.519043,20.1367188 104.249023,19.1972656 104.249023,17.5786133 C104.249023,15.9536133 103.519043,15.0205078 102.224121,15.0205078 C100.929199,15.0205078 100.199219,15.9536133 100.199219,17.5786133 C100.199219,19.1972656 100.929199,20.1367188 102.224121,20.1367188 Z M109.822266,15.0014648 C108.730469,15.0014648 107.96875,15.8012695 107.88623,17.0136719 L111.656738,17.0136719 C111.631348,15.8012695 110.907715,15.0014648 109.822266,15.0014648 Z M111.625,19.2290039 L112.716797,19.2290039 C112.386719,20.4033203 111.333008,21.1206055 109.834961,21.1206055 C107.937012,21.1206055 106.75,19.7495117 106.75,17.5849609 C106.75,15.4331055 107.956055,14.0366211 109.834961,14.0366211 C111.682129,14.0366211 112.805664,15.3505859 112.805664,17.4770508 L112.805664,17.8959961 L107.88623,17.8959961 L107.88623,17.9467773 C107.943359,19.2988281 108.69873,20.1557617 109.860352,20.1557617 C110.742676,20.1557617 111.339355,19.8320312 111.625,19.2290039 Z M114.36084,16.0297852 C114.36084,17.0200195 114.944824,17.5722656 116.227051,17.8833008 L117.401367,18.1689453 C118.131348,18.3466797 118.486816,18.6640625 118.486816,19.1337891 C118.486816,19.762207 117.82666,20.2001953 116.90625,20.2001953 C116.030273,20.2001953 115.484375,19.8320312 115.300293,19.2543945 L114.176758,19.2543945 C114.297363,20.390625 115.344727,21.1206055 116.868164,21.1206055 C118.42334,21.1206055 119.610352,20.2763672 119.610352,19.0512695 C119.610352,18.0673828 118.988281,17.5087891 117.699707,17.1977539 L116.645996,16.9438477 C115.839844,16.7470703 115.458984,16.4550781 115.458984,15.9853516 C115.458984,15.3759766 116.09375,14.9633789 116.90625,14.9633789 C117.731445,14.9633789 118.264648,15.3251953 118.410645,15.8710938 L119.489746,15.8710938 C119.34375,14.7475586 118.347168,14.0366211 116.912598,14.0366211 C115.458984,14.0366211 114.36084,14.8935547 114.36084,16.0297852 Z M125.056641,21 L126.148438,21 L126.148438,16.9501953 C126.148438,15.7949219 126.821289,15.0205078 128.046387,15.0205078 C129.081055,15.0205078 129.626953,15.6235352 129.626953,16.8359375 L129.626953,21 L130.71875,21 L130.71875,16.5693359 C130.71875,14.9633789 129.804688,14.0366211 128.357422,14.0366211 C127.310059,14.0366211 126.592773,14.480957 126.25,15.2363281 L126.148438,15.2363281 L126.148438,11.4404297 L125.056641,11.4404297 L125.056641,21 Z M135.441406,15.0014648 C134.349609,15.0014648 133.587891,15.8012695 133.505371,17.0136719 L137.275879,17.0136719 C137.250488,15.8012695 136.526855,15.0014648 135.441406,15.0014648 Z M137.244141,19.2290039 L138.335938,19.2290039 C138.005859,20.4033203 136.952148,21.1206055 135.454102,21.1206055 C133.556152,21.1206055 132.369141,19.7495117 132.369141,17.5849609 C132.369141,15.4331055 133.575195,14.0366211 135.454102,14.0366211 C137.30127,14.0366211 138.424805,15.3505859 138.424805,17.4770508 L138.424805,17.8959961 L133.505371,17.8959961 L133.505371,17.9467773 C133.5625,19.2988281 134.317871,20.1557617 135.479492,20.1557617 C136.361816,20.1557617 136.958496,19.8320312 137.244141,19.2290039 Z M140.138672,21 L141.230469,21 L141.230469,16.7597656 C141.230469,15.7949219 141.98584,15.0966797 143.026855,15.0966797 C143.242676,15.0966797 143.63623,15.1347656 143.725098,15.1601562 L143.725098,14.0683594 C143.585449,14.0493164 143.356934,14.0366211 143.179199,14.0366211 C142.271484,14.0366211 141.484375,14.5063477 141.28125,15.1728516 L141.179688,15.1728516 L141.179688,14.1572266 L140.138672,14.1572266 L140.138672,21 Z M147.628906,15.0014648 C146.537109,15.0014648 145.775391,15.8012695 145.692871,17.0136719 L149.463379,17.0136719 C149.437988,15.8012695 148.714355,15.0014648 147.628906,15.0014648 Z M149.431641,19.2290039 L150.523438,19.2290039 C150.193359,20.4033203 149.139648,21.1206055 147.641602,21.1206055 C145.743652,21.1206055 144.556641,19.7495117 144.556641,17.5849609 C144.556641,15.4331055 145.762695,14.0366211 147.641602,14.0366211 C149.48877,14.0366211 150.612305,15.3505859 150.612305,17.4770508 L150.612305,17.8959961 L145.692871,17.8959961 L145.692871,17.9467773 C145.75,19.2988281 146.505371,20.1557617 147.666992,20.1557617 C148.549316,20.1557617 149.145996,19.8320312 149.431641,19.2290039 Z" id="Message-goes-here" fill="#0C0C0D"></path>
                        <g id="Group" transform="translate(242.000000, 9.000000)">
                            <g id="button-mini">
                                <g id="action-link"></g>
                            </g>
                        </g>
                    </g>
                </g>
                <g id="WIDTH#BED9FC73-1989-4C33-863D-28143B507DBA" transform="translate(8.000000, 0.000000)" fill="#FF1AD9">
                    <rect id="ruler-start" x="0" y="0" width="1" height="5"></rect>
                    <rect id="ruler-end" x="284" y="0" width="1" height="5"></rect>
                    <rect id="ruler-line" x="0" y="2" width="284" height="1"></rect>
                </g>
                <g id="HEIGHT#BED9FC73-1989-4C33-863D-28143B507DBA" transform="translate(297.000000, 9.000000)" fill="#FF1AD9">
                    <rect id="ruler-start" x="0" y="0" width="5" height="1"></rect>
                    <rect id="ruler-end" x="0" y="31" width="5" height="1"></rect>
                    <rect id="ruler-line" x="2" y="0" width="1" height="32"></rect>
                </g>
                <rect id="Rectangle-3" fill-opacity="0.2" fill="#00FEFF" x="217.019321" y="9" width="48.9806789" height="32"></rect>
                <rect id="Rectangle-3" fill-opacity="0.2" fill="#00FEFF" x="161" y="9" width="6" height="32"></rect>
                <rect id="Rectangle-3" fill-opacity="0.2" fill="#00FEFF" x="36" y="9" width="4" height="32"></rect>
                <g id="LEFT#5720096D-773A-4A98-9F85-DE5190E11398#FA81D74B-B041-4163-82D3-CDD1827ECCCD-Copy" transform="translate(28.000000, 9.000000)">
                    <rect id="ruler-start" fill="#22E800" x="8" y="0" width="1" height="32"></rect>
                    <rect id="ruler-end" fill="#22E800" x="11" y="0" width="1" height="32"></rect>
                    <rect id="ruler-line" fill="#22E800" x="8" y="29" width="4" height="1"></rect>
                    <path d="M14,36 L27,36 C28.1045695,36 29,36.8954305 29,38 L29,56 C29,57.1045695 28.1045695,58 27,58 L2,58 C0.8954305,58 1.91162759e-15,57.1045695 1.77635684e-15,56 L1.77635684e-15,38 C1.64108609e-15,36.8954305 0.8954305,36 2,36 L6,36 L10,32 L14,36 Z" id="Combined-Shape" fill="#22E800"></path>
                    <path d="M11.28,47.65 L11.28,48.33 L10.39,48.33 L10.39,50 L9.58,50 L9.58,48.33 L6.72,48.33 L6.72,47.71 L8.74,43 L9.44,43.3 L7.61,47.65 L9.59,47.65 L9.66,45.7 L10.39,45.7 L10.39,47.65 L11.28,47.65 Z M15.36,44.62 C16.76,44.62 17.27,45.71 17.27,47.36 C17.27,48.96 16.61,50.11 15.24,50.11 C14.66,50.11 14.2,49.91 13.84,49.51 L13.84,52.02 L13,52.12 L13,44.73 L13.72,44.73 L13.79,45.47 C14.17,44.93 14.73,44.62 15.36,44.62 Z M15.16,45.3 C14.58,45.3 14.13,45.72 13.84,46.14 L13.84,48.75 C14.12,49.16 14.55,49.41 15.05,49.41 C15.92,49.41 16.36,48.76 16.36,47.36 C16.36,45.99 15.99,45.3 15.16,45.3 Z M19.52,50 L18.56,50 L20.5,47.22 L18.79,44.73 L19.79,44.73 L21.01,46.69 L22.24,44.73 L23.21,44.73 L21.5,47.18 L23.44,50 L22.42,50 L20.97,47.74 L19.52,50 Z" id="label-text" fill="#002D3E"></path>
                </g>
                <g id="LEFT#5720096D-773A-4A98-9F85-DE5190E11398#FA81D74B-B041-4163-82D3-CDD1827ECCCD-Copy-2" transform="translate(0.000000, 9.000000)">
                    <rect id="ruler-start" fill="#22E800" x="8" y="0" width="1" height="32"></rect>
                    <rect id="ruler-end" fill="#22E800" x="11" y="0" width="1" height="32"></rect>
                    <rect id="ruler-line" fill="#22E800" x="8" y="29" width="4" height="1"></rect>
                    <path d="M14,36 L27,36 C28.1045695,36 29,36.8954305 29,38 L29,56 C29,57.1045695 28.1045695,58 27,58 L2,58 C0.8954305,58 1.91162759e-15,57.1045695 1.77635684e-15,56 L1.77635684e-15,38 C1.64108609e-15,36.8954305 0.8954305,36 2,36 L6,36 L10,32 L14,36 Z" id="Combined-Shape" fill="#22E800"></path>
                    <path d="M11.28,47.65 L11.28,48.33 L10.39,48.33 L10.39,50 L9.58,50 L9.58,48.33 L6.72,48.33 L6.72,47.71 L8.74,43 L9.44,43.3 L7.61,47.65 L9.59,47.65 L9.66,45.7 L10.39,45.7 L10.39,47.65 L11.28,47.65 Z M15.36,44.62 C16.76,44.62 17.27,45.71 17.27,47.36 C17.27,48.96 16.61,50.11 15.24,50.11 C14.66,50.11 14.2,49.91 13.84,49.51 L13.84,52.02 L13,52.12 L13,44.73 L13.72,44.73 L13.79,45.47 C14.17,44.93 14.73,44.62 15.36,44.62 Z M15.16,45.3 C14.58,45.3 14.13,45.72 13.84,46.14 L13.84,48.75 C14.12,49.16 14.55,49.41 15.05,49.41 C15.92,49.41 16.36,48.76 16.36,47.36 C16.36,45.99 15.99,45.3 15.16,45.3 Z M19.52,50 L18.56,50 L20.5,47.22 L18.79,44.73 L19.79,44.73 L21.01,46.69 L22.24,44.73 L23.21,44.73 L21.5,47.18 L23.44,50 L22.42,50 L20.97,47.74 L19.52,50 Z" id="4px" fill="#002D3E"></path>
                </g>
                <g id="LEFT#5720096D-773A-4A98-9F85-DE5190E11398#FA81D74B-B041-4163-82D3-CDD1827ECCCD-Copy-3" transform="translate(281.000000, 9.000000)">
                    <rect id="ruler-start" fill="#22E800" x="8" y="0" width="1" height="32"></rect>
                    <rect id="ruler-end" fill="#22E800" x="11" y="0" width="1" height="32"></rect>
                    <rect id="ruler-line" fill="#22E800" x="8" y="29" width="4" height="1"></rect>
                    <path d="M14,36 L27,36 C28.1045695,36 29,36.8954305 29,38 L29,56 C29,57.1045695 28.1045695,58 27,58 L2,58 C0.8954305,58 -1.64108609e-15,57.1045695 -1.77635684e-15,56 L-1.77635684e-15,38 C-1.91162759e-15,36.8954305 0.8954305,36 2,36 L6,36 L10,32 L14,36 Z" id="Combined-Shape" fill="#22E800"></path>
                    <path d="M10.77,49.35 L10.77,48.62 L9.9,48.62 L9.9,46.82 L9.1,46.82 L9.01,48.62 L7.16,48.62 L8.98,44.31 L8.21,43.99 L6.19,48.7 L6.19,49.35 L9.01,49.35 L9.01,51 L9.9,51 L9.9,49.35 L10.77,49.35 Z M13.39,53.02 L12.47,53.13 L12.47,45.73 L13.26,45.73 L13.33,46.45 C13.72,45.91 14.28,45.61 14.89,45.61 C16.29,45.61 16.8,46.7 16.8,48.36 C16.8,49.96 16.13,51.12 14.77,51.12 C14.2,51.12 13.73,50.93 13.39,50.52 L13.39,53.02 Z M14.55,50.37 C15.39,50.37 15.82,49.74 15.82,48.36 C15.82,46.99 15.45,46.34 14.66,46.34 C14.1,46.34 13.67,46.74 13.39,47.16 L13.39,49.73 C13.66,50.14 14.07,50.37 14.55,50.37 Z M20.49,48.8 L21.87,51 L22.98,51 L21.05,48.18 L22.74,45.73 L21.7,45.73 L20.53,47.63 L20.49,47.63 L19.33,45.73 L18.25,45.73 L19.95,48.22 L18.02,51 L19.06,51 L20.45,48.8 L20.49,48.8 Z" id="label-text" fill="#002D3E"></path>
                </g>
                <g id="HORIZONTAL#62278398-B58B-4743-B797-D93934C831A8#3ACD8C7E-0282-48C1-B4D5-4749F53BA927" transform="translate(217.000000, 31.000000)">
                    <rect id="ruler-start" fill="#22E800" x="0" y="0" width="1" height="5"></rect>
                    <rect id="ruler-end" fill="#22E800" x="48" y="0" width="1" height="5"></rect>
                    <rect id="ruler-line" fill="#22E800" x="1" y="2" width="47" height="1"></rect>
                    <path d="M9.5,22.91 L7.74,17.11 L6.72,17.11 L8.99,24 L10.01,24 L12.28,17.11 L11.32,17.11 L9.54,22.91 L9.5,22.91 Z M17.32,20.33 L17.32,22.81 C17.32,23.23 17.45,23.39 17.74,23.48 L17.52,24.12 C17.05,24.06 16.68,23.85 16.52,23.38 C16.15,23.88 15.5,24.12 14.86,24.12 C13.8,24.12 13.12,23.47 13.12,22.49 C13.12,21.4 14.03,20.79 15.63,20.79 L16.4,20.79 L16.4,20.38 C16.4,19.64 15.94,19.36 15.17,19.36 C14.82,19.36 14.33,19.44 13.79,19.63 L13.55,18.95 C14.2,18.71 14.79,18.61 15.31,18.61 C16.65,18.61 17.32,19.26 17.32,20.33 Z M15.11,23.43 C15.61,23.43 16.1,23.16 16.4,22.7 L16.4,21.4 L15.68,21.4 C14.55,21.4 14.13,21.81 14.13,22.45 C14.13,23.1 14.45,23.43 15.11,23.43 Z M23.02,23.29 L21.55,23.29 L21.55,20.91 C21.73,20.18 22.27,19.51 22.93,19.51 C23.15,19.51 23.31,19.53 23.57,19.6 L23.74,18.69 C23.44,18.63 23.29,18.61 23.04,18.61 C22.42,18.61 21.84,19 21.54,19.74 L21.43,18.73 L19.42,18.73 L19.42,19.44 L20.63,19.44 L20.63,23.29 L19.42,23.29 L19.42,24 L23.02,24 L23.02,23.29 Z M28.2,18.73 L25.72,18.73 L25.72,19.44 L27.28,19.44 L27.28,23.29 L25.67,23.29 L25.67,24 L29.67,24 L29.67,23.29 L28.2,23.29 L28.2,18.73 Z M28.39,16.85 C28.39,16.5 28.12,16.23 27.74,16.23 C27.36,16.23 27.1,16.5 27.1,16.85 C27.1,17.21 27.36,17.48 27.74,17.48 C28.12,17.48 28.39,17.21 28.39,16.85 Z M35.74,21.68 L32.21,21.68 C32.29,22.85 32.92,23.37 33.72,23.37 C34.2,23.37 34.67,23.25 35.12,22.88 L35.54,23.49 C35.05,23.88 34.38,24.12 33.7,24.12 C32.13,24.12 31.25,23.01 31.25,21.37 C31.25,19.78 32.15,18.61 33.55,18.61 C34.93,18.61 35.76,19.6 35.76,21.21 C35.76,21.39 35.75,21.56 35.74,21.68 Z M33.55,19.34 C32.83,19.34 32.28,19.87 32.21,21 L34.87,21 C34.85,19.91 34.37,19.34 33.55,19.34 Z M39.25,23.38 C38.63,23.38 38.03,23.16 37.62,22.82 L37.11,23.4 C37.57,23.8 38.28,24.12 39.25,24.12 C40.4,24.12 41.5,23.66 41.5,22.51 C41.5,21.49 40.82,21.18 39.81,20.9 C38.78,20.61 38.46,20.45 38.46,20.01 C38.46,19.59 38.75,19.34 39.57,19.34 C40.14,19.34 40.58,19.51 40.97,19.79 L41.38,19.17 C40.92,18.84 40.31,18.61 39.55,18.61 C38.32,18.61 37.51,19.18 37.51,20.07 C37.51,20.99 38.21,21.33 39.25,21.6 C40.34,21.88 40.51,22.07 40.51,22.58 C40.51,23.07 40.03,23.38 39.25,23.38 Z" id="Varies" fill="#002D3E"></path>
                </g>
                <g id="HORIZONTAL#62278398-B58B-4743-B797-D93934C831A8#A0E825BF-E8DA-43CE-9D96-CEAE6E2AC6FF" transform="translate(160.000000, 8.000000)" fill="#22E800">
                    <rect id="ruler-start" x="0" y="0.973337173" width="1" height="32.0266628"></rect>
                    <rect id="ruler-end" x="7" y="0.973337173" width="1" height="32.0266628"></rect>
                    <rect id="ruler-line" x="0" y="30" width="8" height="1"></rect>
                </g>
            </g>
            <path d="M91.5,56.91 L89.74,51.11 L88.72,51.11 L90.99,58 L92.01,58 L94.28,51.11 L93.32,51.11 L91.54,56.91 L91.5,56.91 Z M99.32,54.33 L99.32,56.81 C99.32,57.23 99.45,57.39 99.74,57.48 L99.52,58.12 C99.05,58.06 98.68,57.85 98.52,57.38 C98.15,57.88 97.5,58.12 96.86,58.12 C95.8,58.12 95.12,57.47 95.12,56.49 C95.12,55.4 96.03,54.79 97.63,54.79 L98.4,54.79 L98.4,54.38 C98.4,53.64 97.94,53.36 97.17,53.36 C96.82,53.36 96.33,53.44 95.79,53.63 L95.55,52.95 C96.2,52.71 96.79,52.61 97.31,52.61 C98.65,52.61 99.32,53.26 99.32,54.33 Z M97.11,57.43 C97.61,57.43 98.1,57.16 98.4,56.7 L98.4,55.4 L97.68,55.4 C96.55,55.4 96.13,55.81 96.13,56.45 C96.13,57.1 96.45,57.43 97.11,57.43 Z M105.02,57.29 L103.55,57.29 L103.55,54.91 C103.73,54.18 104.27,53.51 104.93,53.51 C105.15,53.51 105.31,53.53 105.57,53.6 L105.74,52.69 C105.44,52.63 105.29,52.61 105.04,52.61 C104.42,52.61 103.84,53 103.54,53.74 L103.43,52.73 L101.42,52.73 L101.42,53.44 L102.63,53.44 L102.63,57.29 L101.42,57.29 L101.42,58 L105.02,58 L105.02,57.29 Z M110.2,52.73 L107.72,52.73 L107.72,53.44 L109.28,53.44 L109.28,57.29 L107.67,57.29 L107.67,58 L111.67,58 L111.67,57.29 L110.2,57.29 L110.2,52.73 Z M110.39,50.85 C110.39,50.5 110.12,50.23 109.74,50.23 C109.36,50.23 109.1,50.5 109.1,50.85 C109.1,51.21 109.36,51.48 109.74,51.48 C110.12,51.48 110.39,51.21 110.39,50.85 Z M117.74,55.68 L114.21,55.68 C114.29,56.85 114.92,57.37 115.72,57.37 C116.2,57.37 116.67,57.25 117.12,56.88 L117.54,57.49 C117.05,57.88 116.38,58.12 115.7,58.12 C114.13,58.12 113.25,57.01 113.25,55.37 C113.25,53.78 114.15,52.61 115.55,52.61 C116.93,52.61 117.76,53.6 117.76,55.21 C117.76,55.39 117.75,55.56 117.74,55.68 Z M115.55,53.34 C114.83,53.34 114.28,53.87 114.21,55 L116.87,55 C116.85,53.91 116.37,53.34 115.55,53.34 Z M121.25,57.38 C120.63,57.38 120.03,57.16 119.62,56.82 L119.11,57.4 C119.57,57.8 120.28,58.12 121.25,58.12 C122.4,58.12 123.5,57.66 123.5,56.51 C123.5,55.49 122.82,55.18 121.81,54.9 C120.78,54.61 120.46,54.45 120.46,54.01 C120.46,53.59 120.75,53.34 121.57,53.34 C122.14,53.34 122.58,53.51 122.97,53.79 L123.38,53.17 C122.92,52.84 122.31,52.61 121.55,52.61 C120.32,52.61 119.51,53.18 119.51,54.07 C119.51,54.99 120.21,55.33 121.25,55.6 C122.34,55.88 122.51,56.07 122.51,56.58 C122.51,57.07 122.03,57.38 121.25,57.38 Z M132.39,50.5 L132.39,53.4 C132.77,52.9 133.28,52.61 133.88,52.61 C135.28,52.61 135.85,53.7 135.85,55.36 C135.85,56.96 135.12,58.12 133.76,58.12 C133.16,58.12 132.69,57.91 132.34,57.46 L132.28,58 L131.47,58 L131.47,50.61 L132.39,50.5 Z M133.54,57.39 C134.38,57.39 134.86,56.74 134.86,55.36 C134.86,53.99 134.44,53.34 133.66,53.34 C133.1,53.34 132.67,53.74 132.39,54.16 L132.39,56.73 C132.66,57.14 133.07,57.39 133.54,57.39 Z M141.32,54.33 L141.32,56.81 C141.32,57.23 141.45,57.39 141.74,57.48 L141.52,58.12 C141.05,58.06 140.68,57.85 140.52,57.38 C140.15,57.88 139.5,58.12 138.86,58.12 C137.8,58.12 137.12,57.47 137.12,56.49 C137.12,55.4 138.03,54.79 139.63,54.79 L140.4,54.79 L140.4,54.38 C140.4,53.64 139.94,53.36 139.17,53.36 C138.82,53.36 138.33,53.44 137.79,53.63 L137.55,52.95 C138.2,52.71 138.79,52.61 139.31,52.61 C140.65,52.61 141.32,53.26 141.32,54.33 Z M139.11,57.43 C139.61,57.43 140.1,57.16 140.4,56.7 L140.4,55.4 L139.68,55.4 C138.55,55.4 138.13,55.81 138.13,56.45 C138.13,57.1 138.45,57.43 139.11,57.43 Z M145.25,57.38 C144.63,57.38 144.03,57.16 143.62,56.82 L143.11,57.4 C143.57,57.8 144.28,58.12 145.25,58.12 C146.4,58.12 147.5,57.66 147.5,56.51 C147.5,55.49 146.82,55.18 145.81,54.9 C144.78,54.61 144.46,54.45 144.46,54.01 C144.46,53.59 144.75,53.34 145.57,53.34 C146.14,53.34 146.58,53.51 146.97,53.79 L147.38,53.17 C146.92,52.84 146.31,52.61 145.55,52.61 C144.32,52.61 143.51,53.18 143.51,54.07 C143.51,54.99 144.21,55.33 145.25,55.6 C146.34,55.88 146.51,56.07 146.51,56.58 C146.51,57.07 146.03,57.38 145.25,57.38 Z M153.74,55.68 L150.21,55.68 C150.29,56.85 150.92,57.37 151.72,57.37 C152.2,57.37 152.67,57.25 153.12,56.88 L153.54,57.49 C153.05,57.88 152.38,58.12 151.7,58.12 C150.13,58.12 149.25,57.01 149.25,55.37 C149.25,53.78 150.15,52.61 151.55,52.61 C152.93,52.61 153.76,53.6 153.76,55.21 C153.76,55.39 153.75,55.56 153.74,55.68 Z M151.55,53.34 C150.83,53.34 150.28,53.87 150.21,55 L152.87,55 C152.85,53.91 152.37,53.34 151.55,53.34 Z M157.46,53.34 C156.62,53.34 156.14,54 156.14,55.37 C156.14,56.73 156.57,57.39 157.36,57.39 C157.92,57.39 158.33,57.01 158.61,56.58 L158.61,53.99 C158.33,53.58 157.93,53.34 157.46,53.34 Z M157.22,52.61 C157.81,52.61 158.26,52.82 158.61,53.22 L158.61,50.5 L159.53,50.61 L159.53,58 L158.72,58 L158.64,57.32 C158.26,57.86 157.74,58.12 157.15,58.12 C155.78,58.12 155.15,57.01 155.15,55.37 C155.15,53.78 155.92,52.61 157.22,52.61 Z M170.82,55.36 C170.82,53.99 170.38,53.35 169.51,53.35 C168.63,53.35 168.18,53.99 168.18,55.37 C168.18,56.74 168.62,57.38 169.5,57.38 C170.38,57.38 170.82,56.74 170.82,55.36 Z M167.2,55.37 C167.2,53.74 168.01,52.61 169.51,52.61 C171.01,52.61 171.8,53.69 171.8,55.36 C171.8,56.99 170.99,58.12 169.5,58.12 C168,58.12 167.2,57.04 167.2,55.37 Z M174.39,58 L174.39,54.18 C174.67,53.77 175.18,53.33 175.75,53.33 C176.52,53.33 176.62,53.74 176.62,54.77 L176.62,58 L177.54,58 L177.54,54.17 C177.54,53.19 177.08,52.61 176.06,52.61 C175.44,52.61 174.76,52.91 174.33,53.45 L174.26,52.73 L173.47,52.73 L173.47,58 L174.39,58 Z M186.39,60.02 L185.47,60.13 L185.47,52.73 L186.26,52.73 L186.33,53.45 C186.72,52.91 187.28,52.61 187.89,52.61 C189.29,52.61 189.8,53.7 189.8,55.36 C189.8,56.96 189.13,58.12 187.77,58.12 C187.2,58.12 186.73,57.93 186.39,57.52 L186.39,60.02 Z M187.55,57.37 C188.39,57.37 188.82,56.74 188.82,55.36 C188.82,53.99 188.45,53.34 187.66,53.34 C187.1,53.34 186.67,53.74 186.39,54.16 L186.39,56.73 C186.66,57.14 187.07,57.37 187.55,57.37 Z M195.32,54.33 L195.32,56.81 C195.32,57.23 195.45,57.39 195.74,57.48 L195.52,58.12 C195.05,58.06 194.68,57.85 194.52,57.38 C194.15,57.88 193.5,58.12 192.86,58.12 C191.8,58.12 191.12,57.47 191.12,56.49 C191.12,55.4 192.03,54.79 193.63,54.79 L194.4,54.79 L194.4,54.38 C194.4,53.64 193.94,53.36 193.17,53.36 C192.82,53.36 192.33,53.44 191.79,53.63 L191.55,52.95 C192.2,52.71 192.79,52.61 193.31,52.61 C194.65,52.61 195.32,53.26 195.32,54.33 Z M193.11,57.43 C193.61,57.43 194.1,57.16 194.4,56.7 L194.4,55.4 L193.68,55.4 C192.55,55.4 192.13,55.81 192.13,56.45 C192.13,57.1 192.45,57.43 193.11,57.43 Z M201.02,57.29 L199.55,57.29 L199.55,54.91 C199.73,54.18 200.27,53.51 200.93,53.51 C201.15,53.51 201.31,53.53 201.57,53.6 L201.74,52.69 C201.44,52.63 201.29,52.61 201.04,52.61 C200.42,52.61 199.84,53 199.54,53.74 L199.43,52.73 L197.42,52.73 L197.42,53.44 L198.63,53.44 L198.63,57.29 L197.42,57.29 L197.42,58 L201.02,58 L201.02,57.29 Z M207.74,55.68 L204.21,55.68 C204.29,56.85 204.92,57.37 205.72,57.37 C206.2,57.37 206.67,57.25 207.12,56.88 L207.54,57.49 C207.05,57.88 206.38,58.12 205.7,58.12 C204.13,58.12 203.25,57.01 203.25,55.37 C203.25,53.78 204.15,52.61 205.55,52.61 C206.93,52.61 207.76,53.6 207.76,55.21 C207.76,55.39 207.75,55.56 207.74,55.68 Z M205.55,53.34 C204.83,53.34 204.28,53.87 204.21,55 L206.87,55 C206.85,53.91 206.37,53.34 205.55,53.34 Z M210.39,58 L210.39,54.18 C210.67,53.77 211.18,53.33 211.75,53.33 C212.52,53.33 212.62,53.74 212.62,54.77 L212.62,58 L213.54,58 L213.54,54.17 C213.54,53.19 213.08,52.61 212.06,52.61 C211.44,52.61 210.76,52.91 210.33,53.45 L210.26,52.73 L209.47,52.73 L209.47,58 L210.39,58 Z M219.47,57.1 C219.2,57.26 218.86,57.36 218.47,57.36 C217.77,57.36 217.49,57.07 217.49,56.48 L217.49,53.43 L219.19,53.43 L219.3,52.73 L217.49,52.73 L217.49,51.43 L216.57,51.54 L216.57,52.73 L215.37,52.73 L215.37,53.43 L216.57,53.43 L216.57,56.49 C216.57,57.45 217.21,58.12 218.37,58.12 C218.89,58.12 219.45,57.97 219.82,57.73 L219.47,57.1 Z" id="Varies-based-on-pare" fill="#440027"></path>
            <path d="M311.4,86.128 L309.992,81.488 L309.176,81.488 L310.992,87 L311.808,87 L313.624,81.488 L312.856,81.488 L311.432,86.128 L311.4,86.128 Z M317.656,84.064 L317.656,86.048 C317.656,86.384 317.76,86.512 317.992,86.584 L317.816,87.096 C317.44,87.048 317.144,86.88 317.016,86.504 C316.72,86.904 316.2,87.096 315.688,87.096 C314.84,87.096 314.296,86.576 314.296,85.792 C314.296,84.92 315.024,84.432 316.304,84.432 L316.92,84.432 L316.92,84.104 C316.92,83.512 316.552,83.288 315.936,83.288 C315.656,83.288 315.264,83.352 314.832,83.504 L314.64,82.96 C315.16,82.768 315.632,82.688 316.048,82.688 C317.12,82.688 317.656,83.208 317.656,84.064 Z M315.888,86.544 C316.288,86.544 316.68,86.328 316.92,85.96 L316.92,84.92 L316.344,84.92 C315.44,84.92 315.104,85.248 315.104,85.76 C315.104,86.28 315.36,86.544 315.888,86.544 Z M322.216,86.432 L321.04,86.432 L321.04,84.528 C321.184,83.944 321.616,83.408 322.144,83.408 C322.32,83.408 322.448,83.424 322.656,83.48 L322.792,82.752 C322.552,82.704 322.432,82.688 322.232,82.688 C321.736,82.688 321.272,83 321.032,83.592 L320.944,82.784 L319.336,82.784 L319.336,83.352 L320.304,83.352 L320.304,86.432 L319.336,86.432 L319.336,87 L322.216,87 L322.216,86.432 Z M326.36,82.784 L324.376,82.784 L324.376,83.352 L325.624,83.352 L325.624,86.432 L324.336,86.432 L324.336,87 L327.536,87 L327.536,86.432 L326.36,86.432 L326.36,82.784 Z M326.512,81.28 C326.512,81 326.296,80.784 325.992,80.784 C325.688,80.784 325.48,81 325.48,81.28 C325.48,81.568 325.688,81.784 325.992,81.784 C326.296,81.784 326.512,81.568 326.512,81.28 Z M332.392,85.144 L329.568,85.144 C329.632,86.08 330.136,86.496 330.776,86.496 C331.16,86.496 331.536,86.4 331.896,86.104 L332.232,86.592 C331.84,86.904 331.304,87.096 330.76,87.096 C329.504,87.096 328.8,86.208 328.8,84.896 C328.8,83.624 329.52,82.688 330.64,82.688 C331.744,82.688 332.408,83.48 332.408,84.768 C332.408,84.912 332.4,85.048 332.392,85.144 Z M330.64,83.272 C330.064,83.272 329.624,83.696 329.568,84.6 L331.696,84.6 C331.68,83.728 331.296,83.272 330.64,83.272 Z M335.2,86.504 C334.704,86.504 334.224,86.328 333.896,86.056 L333.488,86.52 C333.856,86.84 334.424,87.096 335.2,87.096 C336.12,87.096 337,86.728 337,85.808 C337,84.992 336.456,84.744 335.648,84.52 C334.824,84.288 334.568,84.16 334.568,83.808 C334.568,83.472 334.8,83.272 335.456,83.272 C335.912,83.272 336.264,83.408 336.576,83.632 L336.904,83.136 C336.536,82.872 336.048,82.688 335.44,82.688 C334.456,82.688 333.808,83.144 333.808,83.856 C333.808,84.592 334.368,84.864 335.2,85.08 C336.072,85.304 336.208,85.456 336.208,85.864 C336.208,86.256 335.824,86.504 335.2,86.504 Z M344.112,81 L344.112,83.32 C344.416,82.92 344.824,82.688 345.304,82.688 C346.424,82.688 346.88,83.56 346.88,84.888 C346.88,86.168 346.296,87.096 345.208,87.096 C344.728,87.096 344.352,86.928 344.072,86.568 L344.024,87 L343.376,87 L343.376,81.088 L344.112,81 Z M345.032,86.512 C345.704,86.512 346.088,85.992 346.088,84.888 C346.088,83.792 345.752,83.272 345.128,83.272 C344.68,83.272 344.336,83.592 344.112,83.928 L344.112,85.984 C344.328,86.312 344.656,86.512 345.032,86.512 Z M351.256,84.064 L351.256,86.048 C351.256,86.384 351.36,86.512 351.592,86.584 L351.416,87.096 C351.04,87.048 350.744,86.88 350.616,86.504 C350.32,86.904 349.8,87.096 349.288,87.096 C348.44,87.096 347.896,86.576 347.896,85.792 C347.896,84.92 348.624,84.432 349.904,84.432 L350.52,84.432 L350.52,84.104 C350.52,83.512 350.152,83.288 349.536,83.288 C349.256,83.288 348.864,83.352 348.432,83.504 L348.24,82.96 C348.76,82.768 349.232,82.688 349.648,82.688 C350.72,82.688 351.256,83.208 351.256,84.064 Z M349.488,86.544 C349.888,86.544 350.28,86.328 350.52,85.96 L350.52,84.92 L349.944,84.92 C349.04,84.92 348.704,85.248 348.704,85.76 C348.704,86.28 348.96,86.544 349.488,86.544 Z M354.4,86.504 C353.904,86.504 353.424,86.328 353.096,86.056 L352.688,86.52 C353.056,86.84 353.624,87.096 354.4,87.096 C355.32,87.096 356.2,86.728 356.2,85.808 C356.2,84.992 355.656,84.744 354.848,84.52 C354.024,84.288 353.768,84.16 353.768,83.808 C353.768,83.472 354,83.272 354.656,83.272 C355.112,83.272 355.464,83.408 355.776,83.632 L356.104,83.136 C355.736,82.872 355.248,82.688 354.64,82.688 C353.656,82.688 353.008,83.144 353.008,83.856 C353.008,84.592 353.568,84.864 354.4,85.08 C355.272,85.304 355.408,85.456 355.408,85.864 C355.408,86.256 355.024,86.504 354.4,86.504 Z M361.192,85.144 L358.368,85.144 C358.432,86.08 358.936,86.496 359.576,86.496 C359.96,86.496 360.336,86.4 360.696,86.104 L361.032,86.592 C360.64,86.904 360.104,87.096 359.56,87.096 C358.304,87.096 357.6,86.208 357.6,84.896 C357.6,83.624 358.32,82.688 359.44,82.688 C360.544,82.688 361.208,83.48 361.208,84.768 C361.208,84.912 361.2,85.048 361.192,85.144 Z M359.44,83.272 C358.864,83.272 358.424,83.696 358.368,84.6 L360.496,84.6 C360.48,83.728 360.096,83.272 359.44,83.272 Z M364.168,83.272 C363.496,83.272 363.112,83.8 363.112,84.896 C363.112,85.984 363.456,86.512 364.088,86.512 C364.536,86.512 364.864,86.208 365.088,85.864 L365.088,83.792 C364.864,83.464 364.544,83.272 364.168,83.272 Z M363.976,82.688 C364.448,82.688 364.808,82.856 365.088,83.176 L365.088,81 L365.824,81.088 L365.824,87 L365.176,87 L365.112,86.456 C364.808,86.888 364.392,87.096 363.92,87.096 C362.824,87.096 362.32,86.208 362.32,84.896 C362.32,83.624 362.936,82.688 363.976,82.688 Z M312.456,93.888 C312.456,92.792 312.104,92.28 311.408,92.28 C310.704,92.28 310.344,92.792 310.344,93.896 C310.344,94.992 310.696,95.504 311.4,95.504 C312.104,95.504 312.456,94.992 312.456,93.888 Z M309.56,93.896 C309.56,92.592 310.208,91.688 311.408,91.688 C312.608,91.688 313.24,92.552 313.24,93.888 C313.24,95.192 312.592,96.096 311.4,96.096 C310.2,96.096 309.56,95.232 309.56,93.896 Z M315.312,96 L315.312,92.944 C315.536,92.616 315.944,92.264 316.4,92.264 C317.016,92.264 317.096,92.592 317.096,93.416 L317.096,96 L317.832,96 L317.832,92.936 C317.832,92.152 317.464,91.688 316.648,91.688 C316.152,91.688 315.608,91.928 315.264,92.36 L315.208,91.784 L314.576,91.784 L314.576,96 L315.312,96 Z M327.376,95.28 C327.16,95.408 326.888,95.488 326.576,95.488 C326.016,95.488 325.792,95.256 325.792,94.784 L325.792,92.344 L327.152,92.344 L327.24,91.784 L325.792,91.784 L325.792,90.744 L325.056,90.832 L325.056,91.784 L324.096,91.784 L324.096,92.344 L325.056,92.344 L325.056,94.792 C325.056,95.56 325.568,96.096 326.496,96.096 C326.912,96.096 327.36,95.976 327.656,95.784 L327.376,95.28 Z M329.712,96 L329.712,92.944 C329.936,92.616 330.344,92.264 330.8,92.264 C331.28,92.264 331.496,92.48 331.496,92.984 L331.496,96 L332.232,96 L332.232,92.936 C332.232,92.152 331.864,91.688 331.048,91.688 C330.552,91.688 330.048,91.92 329.712,92.32 L329.712,90.016 L328.976,90.096 L328.976,96 L329.712,96 Z M337.192,94.144 L334.368,94.144 C334.432,95.08 334.936,95.496 335.576,95.496 C335.96,95.496 336.336,95.4 336.696,95.104 L337.032,95.592 C336.64,95.904 336.104,96.096 335.56,96.096 C334.304,96.096 333.6,95.208 333.6,93.896 C333.6,92.624 334.32,91.688 335.44,91.688 C336.544,91.688 337.208,92.48 337.208,93.768 C337.208,93.912 337.2,94.048 337.192,94.144 Z M335.44,92.272 C334.864,92.272 334.424,92.696 334.368,93.6 L336.496,93.6 C336.48,92.728 336.096,92.272 335.44,92.272 Z M345.288,95.472 C344.584,95.472 344.072,95.016 344.072,93.912 C344.072,92.816 344.576,92.296 345.288,92.296 C345.656,92.296 346.016,92.4 346.36,92.656 L346.72,92.16 C346.328,91.832 345.832,91.688 345.288,91.688 C344.016,91.688 343.28,92.64 343.28,93.912 C343.28,95.232 344.008,96.096 345.28,96.096 C345.76,96.096 346.328,95.936 346.72,95.616 L346.368,95.112 C346.024,95.368 345.64,95.472 345.288,95.472 Z M350.856,93.888 C350.856,92.792 350.504,92.28 349.808,92.28 C349.104,92.28 348.744,92.792 348.744,93.896 C348.744,94.992 349.096,95.504 349.8,95.504 C350.504,95.504 350.856,94.992 350.856,93.888 Z M347.96,93.896 C347.96,92.592 348.608,91.688 349.808,91.688 C351.008,91.688 351.64,92.552 351.64,93.888 C351.64,95.192 350.992,96.096 349.8,96.096 C348.6,96.096 347.96,95.232 347.96,93.896 Z M353.712,96 L353.712,92.944 C353.936,92.616 354.344,92.264 354.8,92.264 C355.416,92.264 355.496,92.592 355.496,93.416 L355.496,96 L356.232,96 L356.232,92.936 C356.232,92.152 355.864,91.688 355.048,91.688 C354.552,91.688 354.008,91.928 353.664,92.36 L353.608,91.784 L352.976,91.784 L352.976,96 L353.712,96 Z M360.976,95.28 C360.76,95.408 360.488,95.488 360.176,95.488 C359.616,95.488 359.392,95.256 359.392,94.784 L359.392,92.344 L360.752,92.344 L360.84,91.784 L359.392,91.784 L359.392,90.744 L358.656,90.832 L358.656,91.784 L357.696,91.784 L357.696,92.344 L358.656,92.344 L358.656,94.792 C358.656,95.56 359.168,96.096 360.096,96.096 C360.512,96.096 360.96,95.976 361.256,95.784 L360.976,95.28 Z M365.992,94.144 L363.168,94.144 C363.232,95.08 363.736,95.496 364.376,95.496 C364.76,95.496 365.136,95.4 365.496,95.104 L365.832,95.592 C365.44,95.904 364.904,96.096 364.36,96.096 C363.104,96.096 362.4,95.208 362.4,93.896 C362.4,92.624 363.12,91.688 364.24,91.688 C365.344,91.688 366.008,92.48 366.008,93.768 C366.008,93.912 366,94.048 365.992,94.144 Z M364.24,92.272 C363.664,92.272 363.224,92.696 363.168,93.6 L365.296,93.6 C365.28,92.728 364.896,92.272 364.24,92.272 Z M368.112,96 L368.112,92.944 C368.336,92.616 368.744,92.264 369.2,92.264 C369.816,92.264 369.896,92.592 369.896,93.416 L369.896,96 L370.632,96 L370.632,92.936 C370.632,92.152 370.264,91.688 369.448,91.688 C368.952,91.688 368.408,91.928 368.064,92.36 L368.008,91.784 L367.376,91.784 L367.376,96 L368.112,96 Z M375.376,95.28 C375.16,95.408 374.888,95.488 374.576,95.488 C374.016,95.488 373.792,95.256 373.792,94.784 L373.792,92.344 L375.152,92.344 L375.24,91.784 L373.792,91.784 L373.792,90.744 L373.056,90.832 L373.056,91.784 L372.096,91.784 L372.096,92.344 L373.056,92.344 L373.056,94.792 C373.056,95.56 373.568,96.096 374.496,96.096 C374.912,96.096 375.36,95.976 375.656,95.784 L375.376,95.28 Z" id="Varies-based-on-the" fill="#440027"></path>
            <g id="Group-4" transform="translate(151.500000, 105.000000)">
                <path d="M21,4 L32,4 C33.1045695,4 34,4.8954305 34,6 L34,24 C34,25.1045695 33.1045695,26 32,26 L2,26 C0.8954305,26 -8.67738547e-17,25.1045695 -2.22044605e-16,24 L-2.22044605e-16,6 C-3.57315355e-16,4.8954305 0.8954305,4 2,4 L13,4 L17,0 L21,4 Z" id="Combined-Shape" fill="#22E800"></path>
                <path d="M6.77,17.35 L6.77,16.62 L5.9,16.62 L5.9,14.82 L5.1,14.82 L5.01,16.62 L3.16,16.62 L4.98,12.31 L4.21,11.99 L2.19,16.7 L2.19,17.35 L5.01,17.35 L5.01,19 L5.9,19 L5.9,17.35 L6.77,17.35 Z M9.39,21.02 L8.47,21.13 L8.47,13.73 L9.26,13.73 L9.33,14.45 C9.72,13.91 10.28,13.61 10.89,13.61 C12.29,13.61 12.8,14.7 12.8,16.36 C12.8,17.96 12.13,19.12 10.77,19.12 C10.2,19.12 9.73,18.93 9.39,18.52 L9.39,21.02 Z M10.55,18.37 C11.39,18.37 11.82,17.74 11.82,16.36 C11.82,14.99 11.45,14.34 10.66,14.34 C10.1,14.34 9.67,14.74 9.39,15.16 L9.39,17.73 C9.66,18.14 10.07,18.37 10.55,18.37 Z M16.49,16.8 L17.87,19 L18.98,19 L17.05,16.18 L18.74,13.73 L17.7,13.73 L16.53,15.63 L16.49,15.63 L15.33,13.73 L14.25,13.73 L15.95,16.22 L14.02,19 L15.06,19 L16.45,16.8 L16.49,16.8 Z M22.95,11.62 L22.05,11.62 L22.2,13.15 L20.81,12.55 L20.54,13.4 L22.02,13.72 L21.01,14.87 L21.76,15.38 L22.51,14.06 L23.31,15.36 L24.04,14.81 L22.99,13.72 L24.46,13.4 L24.19,12.55 L22.79,13.15 L22.95,11.62 Z M30.39,13.89 C30.39,12.79 29.58,11.99 28.32,11.99 C27.47,11.99 26.79,12.38 26.25,13.05 L26.89,13.5 C27.31,12.97 27.7,12.76 28.27,12.76 C28.94,12.76 29.44,13.18 29.44,13.92 C29.44,14.96 28.71,15.91 26.33,18.27 L26.33,19 L30.43,19 L30.54,18.23 L27.41,18.23 C29.44,16.29 30.39,15.09 30.39,13.89 Z" id="4px*2" fill="#002D3E"></path>
            </g>
            <g id="Group-2" transform="translate(172.000000, 77.000000)">
                <mask id="mask-7" fill="white">
                    <use xlink:href="#path-6"></use>
                </mask>
                <use id="Mask" fill-opacity="0.1" fill="#0C0C0D" xlink:href="#path-6"></use>
                <path d="M14.5517633,16.1728519 L13.7729547,13.9545902 L10.6899469,13.9545902 L9.91113829,16.1728519 L8.89600157,16.1728519 L11.7534234,8.42236359 L12.7094781,8.42236359 L15.5669,16.1728519 L14.5517633,16.1728519 Z M12.188482,9.67382843 L10.9746149,13.1328128 L13.4882867,13.1328128 L12.2744195,9.67382843 L12.188482,9.67382843 Z M21.2763727,12.1552737 C21.1152399,11.1240237 20.2558649,10.280762 18.8486383,10.280762 C17.226568,10.280762 16.195318,11.4516605 16.195318,13.256348 C16.195318,15.0986331 17.2319391,16.2749027 18.8540094,16.2749027 C20.2451227,16.2749027 21.1098688,15.490723 21.2763727,14.4272464 L20.3418024,14.4272464 C20.1699274,15.0825198 19.6274469,15.4423831 18.8486383,15.4423831 C17.8173883,15.4423831 17.1513727,14.5937503 17.1513727,13.256348 C17.1513727,11.9458011 17.8066461,11.1132816 18.8486383,11.1132816 C19.6811578,11.1132816 20.1914117,11.5805667 20.3418024,12.1552737 L21.2763727,12.1552737 Z M23.1347711,8.88427765 L23.1347711,10.3828128 L22.2002008,10.3828128 L22.2002008,11.1562503 L23.1347711,11.1562503 L23.1347711,14.6689456 C23.1347711,15.7753909 23.6127984,16.2158206 24.8051813,16.2158206 C24.9877984,16.2158206 25.1650445,16.1943362 25.3476617,16.1621097 L25.3476617,15.3833011 C25.1757867,15.3994144 25.0844781,15.4047855 24.9179742,15.4047855 C24.3164117,15.4047855 24.0585992,15.1147464 24.0585992,14.4326175 L24.0585992,11.1562503 L25.3476617,11.1562503 L25.3476617,10.3828128 L24.0585992,10.3828128 L24.0585992,8.88427765 L23.1347711,8.88427765 Z M26.7656305,16.1728519 L27.6894586,16.1728519 L27.6894586,10.3828128 L26.7656305,10.3828128 L26.7656305,16.1728519 Z M27.2275445,9.20654328 C27.5820367,9.20654328 27.8720758,8.91650422 27.8720758,8.56201203 C27.8720758,8.20751984 27.5820367,7.91748078 27.2275445,7.91748078 C26.8730524,7.91748078 26.5830133,8.20751984 26.5830133,8.56201203 C26.5830133,8.91650422 26.8730524,9.20654328 27.2275445,9.20654328 Z M31.8305719,16.2749027 C30.1816461,16.2749027 29.1611383,15.1362308 29.1611383,13.2778323 C29.1611383,11.4140628 30.1816461,10.280762 31.8305719,10.280762 C33.4794977,10.280762 34.5000055,11.4140628 34.5000055,13.2778323 C34.5000055,15.1362308 33.4794977,16.2749027 31.8305719,16.2749027 Z M31.8305719,15.4423831 C32.926275,15.4423831 33.5439508,14.6474612 33.5439508,13.2778323 C33.5439508,11.9028323 32.926275,11.1132816 31.8305719,11.1132816 C30.7348688,11.1132816 30.117193,11.9028323 30.117193,13.2778323 C30.117193,14.6474612 30.7348688,15.4423831 31.8305719,15.4423831 Z M35.9502008,16.1728519 L36.8740289,16.1728519 L36.8740289,12.7460941 C36.8740289,11.7309573 37.4702203,11.1132816 38.3940484,11.1132816 C39.3178766,11.1132816 39.7583063,11.6074222 39.7583063,12.6494144 L39.7583063,16.1728519 L40.6821344,16.1728519 L40.6821344,12.4238284 C40.6821344,11.0488284 39.9570367,10.280762 38.657232,10.280762 C37.7710016,10.280762 37.2070367,10.6567386 36.9169977,11.2958987 L36.8310602,11.2958987 L36.8310602,10.3828128 L35.9502008,10.3828128 L35.9502008,16.1728519 Z" id="Action" fill="#0C0C0D" mask="url(#mask-7)"></path>
            </g>
        </g>
    </g>
</svg>