<svg xmlns="http://www.w3.org/2000/svg" xmlns:xlink="http://www.w3.org/1999/xlink" width="380" height="180" viewBox="0 0 380 180">
  <defs>
    <rect id="s-gen-a" width="285" height="32" rx="3"/>
    <rect id="s-gen-b" width="49" height="24" x=".52" rx="2"/>
  </defs>
  <g fill="none" fill-rule="evenodd">
    <g transform="translate(4.5 64)">
      <g transform="translate(8 9)">
        <use fill="#EDEDF0" xlink:href="#s-gen-a"/>
        <rect width="281" height="28" x="2" y="2" stroke="#00FEFF" stroke-opacity=".3" stroke-width="4" rx="3"/>
        <path fill="#0C0C0D" d="M42.1943359,21 L42.1943359,11.840332 L40.8676758,11.840332 L37.7319336,19.4194336 L37.6303711,19.4194336 L34.4946289,11.840332 L33.1679688,11.840332 L33.1679688,21 L34.234375,21 L34.234375,14.0048828 L34.3105469,14.0048828 L37.1987305,20.9365234 L38.1635742,20.9365234 L41.0517578,14.0048828 L41.1279297,14.0048828 L41.1279297,21 L42.1943359,21 Z M47.1201172,15.0014648 C46.0283203,15.0014648 45.2666016,15.8012695 45.184082,17.0136719 L48.9545898,17.0136719 C48.9291992,15.8012695 48.2055664,15.0014648 47.1201172,15.0014648 Z M48.9228516,19.2290039 L50.0146484,19.2290039 C49.6845703,20.4033203 48.6308594,21.1206055 47.1328125,21.1206055 C45.2348633,21.1206055 44.0478516,19.7495117 44.0478516,17.5849609 C44.0478516,15.4331055 45.2539062,14.0366211 47.1328125,14.0366211 C48.9799805,14.0366211 50.1035156,15.3505859 50.1035156,17.4770508 L50.1035156,17.8959961 L45.184082,17.8959961 L45.184082,17.9467773 C45.2412109,19.2988281 45.996582,20.1557617 47.1582031,20.1557617 C48.0405273,20.1557617 48.637207,19.8320312 48.9228516,19.2290039 Z M51.6586914,16.0297852 C51.6586914,17.0200195 52.2426758,17.5722656 53.5249023,17.8833008 L54.6992188,18.1689453 C55.4291992,18.3466797 55.784668,18.6640625 55.784668,19.1337891 C55.784668,19.762207 55.1245117,20.2001953 54.2041016,20.2001953 C53.328125,20.2001953 52.7822266,19.8320312 52.5981445,19.2543945 L51.4746094,19.2543945 C51.5952148,20.390625 52.6425781,21.1206055 54.1660156,21.1206055 C55.7211914,21.1206055 56.9082031,20.2763672 56.9082031,19.0512695 C56.9082031,18.0673828 56.2861328,17.5087891 54.9975586,17.1977539 L53.9438477,16.9438477 C53.1376953,16.7470703 52.7568359,16.4550781 52.7568359,15.9853516 C52.7568359,15.3759766 53.3916016,14.9633789 54.2041016,14.9633789 C55.0292969,14.9633789 55.5625,15.3251953 55.7084961,15.8710938 L56.7875977,15.8710938 C56.6416016,14.7475586 55.6450195,14.0366211 54.2104492,14.0366211 C52.7568359,14.0366211 51.6586914,14.8935547 51.6586914,16.0297852 Z M58.3364258,16.0297852 C58.3364258,17.0200195 58.9204102,17.5722656 60.2026367,17.8833008 L61.3769531,18.1689453 C62.1069336,18.3466797 62.4624023,18.6640625 62.4624023,19.1337891 C62.4624023,19.762207 61.8022461,20.2001953 60.8818359,20.2001953 C60.0058594,20.2001953 59.4599609,19.8320312 59.2758789,19.2543945 L58.1523438,19.2543945 C58.2729492,20.390625 59.3203125,21.1206055 60.84375,21.1206055 C62.3989258,21.1206055 63.5859375,20.2763672 63.5859375,19.0512695 C63.5859375,18.0673828 62.9638672,17.5087891 61.675293,17.1977539 L60.621582,16.9438477 C59.8154297,16.7470703 59.4345703,16.4550781 59.4345703,15.9853516 C59.4345703,15.3759766 60.0693359,14.9633789 60.8818359,14.9633789 C61.7070312,14.9633789 62.2402344,15.3251953 62.3862305,15.8710938 L63.465332,15.8710938 C63.3193359,14.7475586 62.3227539,14.0366211 60.8881836,14.0366211 C59.4345703,14.0366211 58.3364258,14.8935547 58.3364258,16.0297852 Z M67.4072266,20.1621094 C68.5307617,20.1621094 69.3623047,19.4257812 69.3623047,18.4482422 L69.3623047,17.8198242 L67.5214844,17.9404297 C66.4804688,18.0102539 66.0234375,18.3720703 66.0234375,19.0576172 C66.0234375,19.7558594 66.6137695,20.1621094 67.4072266,20.1621094 Z M67.2041016,21.1206055 C65.8774414,21.1206055 64.8935547,20.3334961 64.8935547,19.0830078 C64.8935547,17.8579102 65.7949219,17.1533203 67.3881836,17.0581055 L69.3623047,16.9375 L69.3623047,16.3154297 C69.3623047,15.4711914 68.8354492,15.0078125 67.8134766,15.0078125 C66.9946289,15.0078125 66.4233398,15.3188477 66.2709961,15.8583984 L65.1665039,15.8583984 C65.3125,14.7602539 66.3916016,14.0366211 67.8515625,14.0366211 C69.5209961,14.0366211 70.4541016,14.8935547 70.4541016,16.3154297 L70.4541016,21 L69.4130859,21 L69.4130859,19.9907227 L69.3115234,19.9907227 C68.8671875,20.7207031 68.1181641,21.1206055 67.2041016,21.1206055 Z M75.2402344,19.9335938 C76.5097656,19.9335938 77.2714844,18.96875 77.2714844,17.4770508 C77.2714844,15.9853516 76.503418,15.0205078 75.2402344,15.0205078 C73.9707031,15.0205078 73.2597656,15.9853516 73.2597656,17.4770508 C73.2597656,18.96875 73.9707031,19.9335938 75.2402344,19.9335938 Z M75.2910156,23.6279297 C73.640625,23.6279297 72.5869141,22.8852539 72.421875,21.7553711 L73.5771484,21.7553711 C73.6977539,22.3139648 74.3071289,22.6757812 75.2910156,22.6757812 C76.5161133,22.6757812 77.2460938,22.0727539 77.2460938,21.0634766 L77.2460938,19.7177734 L77.1445312,19.7177734 C76.7128906,20.4731445 75.9384766,20.8984375 74.9990234,20.8984375 C73.2280273,20.8984375 72.1298828,19.5273438 72.1298828,17.4770508 C72.1298828,15.4267578 73.2407227,14.0366211 74.9990234,14.0366211 C75.9575195,14.0366211 76.8017578,14.5063477 77.1953125,15.2426758 L77.296875,15.2426758 L77.296875,14.1572266 L78.3378906,14.1572266 L78.3378906,21.1206055 C78.3378906,22.6503906 77.1572266,23.6279297 75.2910156,23.6279297 Z M83.1240234,15.0014648 C82.0322266,15.0014648 81.2705078,15.8012695 81.1879883,17.0136719 L84.9584961,17.0136719 C84.9331055,15.8012695 84.2094727,15.0014648 83.1240234,15.0014648 Z M84.9267578,19.2290039 L86.0185547,19.2290039 C85.6884766,20.4033203 84.6347656,21.1206055 83.1367188,21.1206055 C81.2387695,21.1206055 80.0517578,19.7495117 80.0517578,17.5849609 C80.0517578,15.4331055 81.2578125,14.0366211 83.1367188,14.0366211 C84.9838867,14.0366211 86.1074219,15.3505859 86.1074219,17.4770508 L86.1074219,17.8959961 L81.1879883,17.8959961 L81.1879883,17.9467773 C81.2451172,19.2988281 82.0004883,20.1557617 83.1621094,20.1557617 C84.0444336,20.1557617 84.6411133,19.8320312 84.9267578,19.2290039 Z M94.2578125,19.9335938 C95.5273438,19.9335938 96.2890625,18.96875 96.2890625,17.4770508 C96.2890625,15.9853516 95.5209961,15.0205078 94.2578125,15.0205078 C92.9882812,15.0205078 92.2773438,15.9853516 92.2773438,17.4770508 C92.2773438,18.96875 92.9882812,19.9335938 94.2578125,19.9335938 Z M94.3085938,23.6279297 C92.6582031,23.6279297 91.6044922,22.8852539 91.4394531,21.7553711 L92.5947266,21.7553711 C92.715332,22.3139648 93.324707,22.6757812 94.3085938,22.6757812 C95.5336914,22.6757812 96.2636719,22.0727539 96.2636719,21.0634766 L96.2636719,19.7177734 L96.1621094,19.7177734 C95.7304688,20.4731445 94.9560547,20.8984375 94.0166016,20.8984375 C92.2456055,20.8984375 91.1474609,19.5273438 91.1474609,17.4770508 C91.1474609,15.4267578 92.2583008,14.0366211 94.0166016,14.0366211 C94.9750977,14.0366211 95.8193359,14.5063477 96.2128906,15.2426758 L96.3144531,15.2426758 L96.3144531,14.1572266 L97.3554688,14.1572266 L97.3554688,21.1206055 C97.3554688,22.6503906 96.1748047,23.6279297 94.3085938,23.6279297 Z M102.224121,21.1206055 C100.275391,21.1206055 99.0693359,19.7749023 99.0693359,17.5786133 C99.0693359,15.3759766 100.275391,14.0366211 102.224121,14.0366211 C104.172852,14.0366211 105.378906,15.3759766 105.378906,17.5786133 C105.378906,19.7749023 104.172852,21.1206055 102.224121,21.1206055 Z M102.224121,20.1367188 C103.519043,20.1367188 104.249023,19.1972656 104.249023,17.5786133 C104.249023,15.9536133 103.519043,15.0205078 102.224121,15.0205078 C100.929199,15.0205078 100.199219,15.9536133 100.199219,17.5786133 C100.199219,19.1972656 100.929199,20.1367188 102.224121,20.1367188 Z M109.822266,15.0014648 C108.730469,15.0014648 107.96875,15.8012695 107.88623,17.0136719 L111.656738,17.0136719 C111.631348,15.8012695 110.907715,15.0014648 109.822266,15.0014648 Z M111.625,19.2290039 L112.716797,19.2290039 C112.386719,20.4033203 111.333008,21.1206055 109.834961,21.1206055 C107.937012,21.1206055 106.75,19.7495117 106.75,17.5849609 C106.75,15.4331055 107.956055,14.0366211 109.834961,14.0366211 C111.682129,14.0366211 112.805664,15.3505859 112.805664,17.4770508 L112.805664,17.8959961 L107.88623,17.8959961 L107.88623,17.9467773 C107.943359,19.2988281 108.69873,20.1557617 109.860352,20.1557617 C110.742676,20.1557617 111.339355,19.8320312 111.625,19.2290039 Z M114.36084,16.0297852 C114.36084,17.0200195 114.944824,17.5722656 116.227051,17.8833008 L117.401367,18.1689453 C118.131348,18.3466797 118.486816,18.6640625 118.486816,19.1337891 C118.486816,19.762207 117.82666,20.2001953 116.90625,20.2001953 C116.030273,20.2001953 115.484375,19.8320312 115.300293,19.2543945 L114.176758,19.2543945 C114.297363,20.390625 115.344727,21.1206055 116.868164,21.1206055 C118.42334,21.1206055 119.610352,20.2763672 119.610352,19.0512695 C119.610352,18.0673828 118.988281,17.5087891 117.699707,17.1977539 L116.645996,16.9438477 C115.839844,16.7470703 115.458984,16.4550781 115.458984,15.9853516 C115.458984,15.3759766 116.09375,14.9633789 116.90625,14.9633789 C117.731445,14.9633789 118.264648,15.3251953 118.410645,15.8710938 L119.489746,15.8710938 C119.34375,14.7475586 118.347168,14.0366211 116.912598,14.0366211 C115.458984,14.0366211 114.36084,14.8935547 114.36084,16.0297852 Z M125.056641,21 L126.148438,21 L126.148438,16.9501953 C126.148438,15.7949219 126.821289,15.0205078 128.046387,15.0205078 C129.081055,15.0205078 129.626953,15.6235352 129.626953,16.8359375 L129.626953,21 L130.71875,21 L130.71875,16.5693359 C130.71875,14.9633789 129.804688,14.0366211 128.357422,14.0366211 C127.310059,14.0366211 126.592773,14.480957 126.25,15.2363281 L126.148438,15.2363281 L126.148438,11.4404297 L125.056641,11.4404297 L125.056641,21 Z M135.441406,15.0014648 C134.349609,15.0014648 133.587891,15.8012695 133.505371,17.0136719 L137.275879,17.0136719 C137.250488,15.8012695 136.526855,15.0014648 135.441406,15.0014648 Z M137.244141,19.2290039 L138.335938,19.2290039 C138.005859,20.4033203 136.952148,21.1206055 135.454102,21.1206055 C133.556152,21.1206055 132.369141,19.7495117 132.369141,17.5849609 C132.369141,15.4331055 133.575195,14.0366211 135.454102,14.0366211 C137.30127,14.0366211 138.424805,15.3505859 138.424805,17.4770508 L138.424805,17.8959961 L133.505371,17.8959961 L133.505371,17.9467773 C133.5625,19.2988281 134.317871,20.1557617 135.479492,20.1557617 C136.361816,20.1557617 136.958496,19.8320312 137.244141,19.2290039 Z M140.138672,21 L141.230469,21 L141.230469,16.7597656 C141.230469,15.7949219 141.98584,15.0966797 143.026855,15.0966797 C143.242676,15.0966797 143.63623,15.1347656 143.725098,15.1601562 L143.725098,14.0683594 C143.585449,14.0493164 143.356934,14.0366211 143.179199,14.0366211 C142.271484,14.0366211 141.484375,14.5063477 141.28125,15.1728516 L141.179688,15.1728516 L141.179688,14.1572266 L140.138672,14.1572266 L140.138672,21 Z M147.628906,15.0014648 C146.537109,15.0014648 145.775391,15.8012695 145.692871,17.0136719 L149.463379,17.0136719 C149.437988,15.8012695 148.714355,15.0014648 147.628906,15.0014648 Z M149.431641,19.2290039 L150.523438,19.2290039 C150.193359,20.4033203 149.139648,21.1206055 147.641602,21.1206055 C145.743652,21.1206055 144.556641,19.7495117 144.556641,17.5849609 C144.556641,15.4331055 145.762695,14.0366211 147.641602,14.0366211 C149.48877,14.0366211 150.612305,15.3505859 150.612305,17.4770508 L150.612305,17.8959961 L145.692871,17.8959961 L145.692871,17.9467773 C145.75,19.2988281 146.505371,20.1557617 147.666992,20.1557617 C148.549316,20.1557617 149.145996,19.8320312 149.431641,19.2290039 Z"/>
      </g>
      <g fill="#FF1AD9" transform="translate(8)">
        <rect width="1" height="5"/>
        <rect width="1" height="5" x="284"/>
        <rect width="284" height="1" y="2"/>
      </g>
      <g fill="#FF1AD9" transform="translate(297 9)">
        <rect width="5" height="1"/>
        <rect width="5" height="1" y="31"/>
        <rect width="1" height="32" x="2"/>
      </g>
      <rect width="48.981" height="32" x="217.019" y="9" fill="#00FEFF" fill-opacity=".2"/>
      <rect width="6" height="32" x="161" y="9" fill="#00FEFF" fill-opacity=".2"/>
      <rect width="4" height="32" x="36" y="9" fill="#00FEFF" fill-opacity=".2"/>
      <g transform="translate(28 9)">
        <rect width="1" height="32" x="8" fill="#22E800"/>
        <rect width="1" height="32" x="11" fill="#22E800"/>
        <rect width="4" height="1" x="8" y="29" fill="#22E800"/>
        <path fill="#22E800" d="M14,36 L27,36 C28.1045695,36 29,36.8954305 29,38 L29,56 C29,57.1045695 28.1045695,58 27,58 L2,58 C0.8954305,58 1.91162759e-15,57.1045695 1.77635684e-15,56 L1.77635684e-15,38 C1.64108609e-15,36.8954305 0.8954305,36 2,36 L6,36 L10,32 L14,36 Z"/>
        <path fill="#002D3E" d="M11.28,47.65 L11.28,48.33 L10.39,48.33 L10.39,50 L9.58,50 L9.58,48.33 L6.72,48.33 L6.72,47.71 L8.74,43 L9.44,43.3 L7.61,47.65 L9.59,47.65 L9.66,45.7 L10.39,45.7 L10.39,47.65 L11.28,47.65 Z M15.36,44.62 C16.76,44.62 17.27,45.71 17.27,47.36 C17.27,48.96 16.61,50.11 15.24,50.11 C14.66,50.11 14.2,49.91 13.84,49.51 L13.84,52.02 L13,52.12 L13,44.73 L13.72,44.73 L13.79,45.47 C14.17,44.93 14.73,44.62 15.36,44.62 Z M15.16,45.3 C14.58,45.3 14.13,45.72 13.84,46.14 L13.84,48.75 C14.12,49.16 14.55,49.41 15.05,49.41 C15.92,49.41 16.36,48.76 16.36,47.36 C16.36,45.99 15.99,45.3 15.16,45.3 Z M19.52,50 L18.56,50 L20.5,47.22 L18.79,44.73 L19.79,44.73 L21.01,46.69 L22.24,44.73 L23.21,44.73 L21.5,47.18 L23.44,50 L22.42,50 L20.97,47.74 L19.52,50 Z"/>
      </g>
      <g transform="translate(0 9)">
        <rect width="1" height="32" x="8" fill="#22E800"/>
        <rect width="1" height="32" x="11" fill="#22E800"/>
        <rect width="4" height="1" x="8" y="29" fill="#22E800"/>
        <path fill="#22E800" d="M14,36 L27,36 C28.1045695,36 29,36.8954305 29,38 L29,56 C29,57.1045695 28.1045695,58 27,58 L2,58 C0.8954305,58 1.91162759e-15,57.1045695 1.77635684e-15,56 L1.77635684e-15,38 C1.64108609e-15,36.8954305 0.8954305,36 2,36 L6,36 L10,32 L14,36 Z"/>
        <path fill="#002D3E" d="M11.28,47.65 L11.28,48.33 L10.39,48.33 L10.39,50 L9.58,50 L9.58,48.33 L6.72,48.33 L6.72,47.71 L8.74,43 L9.44,43.3 L7.61,47.65 L9.59,47.65 L9.66,45.7 L10.39,45.7 L10.39,47.65 L11.28,47.65 Z M15.36,44.62 C16.76,44.62 17.27,45.71 17.27,47.36 C17.27,48.96 16.61,50.11 15.24,50.11 C14.66,50.11 14.2,49.91 13.84,49.51 L13.84,52.02 L13,52.12 L13,44.73 L13.72,44.73 L13.79,45.47 C14.17,44.93 14.73,44.62 15.36,44.62 Z M15.16,45.3 C14.58,45.3 14.13,45.72 13.84,46.14 L13.84,48.75 C14.12,49.16 14.55,49.41 15.05,49.41 C15.92,49.41 16.36,48.76 16.36,47.36 C16.36,45.99 15.99,45.3 15.16,45.3 Z M19.52,50 L18.56,50 L20.5,47.22 L18.79,44.73 L19.79,44.73 L21.01,46.69 L22.24,44.73 L23.21,44.73 L21.5,47.18 L23.44,50 L22.42,50 L20.97,47.74 L19.52,50 Z"/>
      </g>
      <g transform="translate(281 9)">
        <rect width="1" height="32" x="8" fill="#22E800"/>
        <rect width="1" height="32" x="11" fill="#22E800"/>
        <rect width="4" height="1" x="8" y="29" fill="#22E800"/>
        <path fill="#22E800" d="M14,36 L27,36 C28.1045695,36 29,36.8954305 29,38 L29,56 C29,57.1045695 28.1045695,58 27,58 L2,58 C0.8954305,58 -1.64108609e-15,57.1045695 -1.77635684e-15,56 L-1.77635684e-15,38 C-1.91162759e-15,36.8954305 0.8954305,36 2,36 L6,36 L10,32 L14,36 Z"/>
        <path fill="#002D3E" d="M10.77,49.35 L10.77,48.62 L9.9,48.62 L9.9,46.82 L9.1,46.82 L9.01,48.62 L7.16,48.62 L8.98,44.31 L8.21,43.99 L6.19,48.7 L6.19,49.35 L9.01,49.35 L9.01,51 L9.9,51 L9.9,49.35 L10.77,49.35 Z M13.39,53.02 L12.47,53.13 L12.47,45.73 L13.26,45.73 L13.33,46.45 C13.72,45.91 14.28,45.61 14.89,45.61 C16.29,45.61 16.8,46.7 16.8,48.36 C16.8,49.96 16.13,51.12 14.77,51.12 C14.2,51.12 13.73,50.93 13.39,50.52 L13.39,53.02 Z M14.55,50.37 C15.39,50.37 15.82,49.74 15.82,48.36 C15.82,46.99 15.45,46.34 14.66,46.34 C14.1,46.34 13.67,46.74 13.39,47.16 L13.39,49.73 C13.66,50.14 14.07,50.37 14.55,50.37 Z M20.49,48.8 L21.87,51 L22.98,51 L21.05,48.18 L22.74,45.73 L21.7,45.73 L20.53,47.63 L20.49,47.63 L19.33,45.73 L18.25,45.73 L19.95,48.22 L18.02,51 L19.06,51 L20.45,48.8 L20.49,48.8 Z"/>
      </g>
      <g transform="translate(217 31)">
        <rect width="1" height="5" fill="#22E800"/>
        <rect width="1" height="5" x="48" fill="#22E800"/>
        <rect width="47" height="1" x="1" y="2" fill="#22E800"/>
        <path fill="#002D3E" d="M9.5,22.91 L7.74,17.11 L6.72,17.11 L8.99,24 L10.01,24 L12.28,17.11 L11.32,17.11 L9.54,22.91 L9.5,22.91 Z M17.32,20.33 L17.32,22.81 C17.32,23.23 17.45,23.39 17.74,23.48 L17.52,24.12 C17.05,24.06 16.68,23.85 16.52,23.38 C16.15,23.88 15.5,24.12 14.86,24.12 C13.8,24.12 13.12,23.47 13.12,22.49 C13.12,21.4 14.03,20.79 15.63,20.79 L16.4,20.79 L16.4,20.38 C16.4,19.64 15.94,19.36 15.17,19.36 C14.82,19.36 14.33,19.44 13.79,19.63 L13.55,18.95 C14.2,18.71 14.79,18.61 15.31,18.61 C16.65,18.61 17.32,19.26 17.32,20.33 Z M15.11,23.43 C15.61,23.43 16.1,23.16 16.4,22.7 L16.4,21.4 L15.68,21.4 C14.55,21.4 14.13,21.81 14.13,22.45 C14.13,23.1 14.45,23.43 15.11,23.43 Z M23.02,23.29 L21.55,23.29 L21.55,20.91 C21.73,20.18 22.27,19.51 22.93,19.51 C23.15,19.51 23.31,19.53 23.57,19.6 L23.74,18.69 C23.44,18.63 23.29,18.61 23.04,18.61 C22.42,18.61 21.84,19 21.54,19.74 L21.43,18.73 L19.42,18.73 L19.42,19.44 L20.63,19.44 L20.63,23.29 L19.42,23.29 L19.42,24 L23.02,24 L23.02,23.29 Z M28.2,18.73 L25.72,18.73 L25.72,19.44 L27.28,19.44 L27.28,23.29 L25.67,23.29 L25.67,24 L29.67,24 L29.67,23.29 L28.2,23.29 L28.2,18.73 Z M28.39,16.85 C28.39,16.5 28.12,16.23 27.74,16.23 C27.36,16.23 27.1,16.5 27.1,16.85 C27.1,17.21 27.36,17.48 27.74,17.48 C28.12,17.48 28.39,17.21 28.39,16.85 Z M35.74,21.68 L32.21,21.68 C32.29,22.85 32.92,23.37 33.72,23.37 C34.2,23.37 34.67,23.25 35.12,22.88 L35.54,23.49 C35.05,23.88 34.38,24.12 33.7,24.12 C32.13,24.12 31.25,23.01 31.25,21.37 C31.25,19.78 32.15,18.61 33.55,18.61 C34.93,18.61 35.76,19.6 35.76,21.21 C35.76,21.39 35.75,21.56 35.74,21.68 Z M33.55,19.34 C32.83,19.34 32.28,19.87 32.21,21 L34.87,21 C34.85,19.91 34.37,19.34 33.55,19.34 Z M39.25,23.38 C38.63,23.38 38.03,23.16 37.62,22.82 L37.11,23.4 C37.57,23.8 38.28,24.12 39.25,24.12 C40.4,24.12 41.5,23.66 41.5,22.51 C41.5,21.49 40.82,21.18 39.81,20.9 C38.78,20.61 38.46,20.45 38.46,20.01 C38.46,19.59 38.75,19.34 39.57,19.34 C40.14,19.34 40.58,19.51 40.97,19.79 L41.38,19.17 C40.92,18.84 40.31,18.61 39.55,18.61 C38.32,18.61 37.51,19.18 37.51,20.07 C37.51,20.99 38.21,21.33 39.25,21.6 C40.34,21.88 40.51,22.07 40.51,22.58 C40.51,23.07 40.03,23.38 39.25,23.38 Z"/>
      </g>
      <g fill="#22E800" transform="translate(160 8)">
        <rect width="1" height="32.027" y=".973"/>
        <rect width="1" height="32.027" x="7" y=".973"/>
        <rect width="8" height="1" y="30"/>
      </g>
    </g>
    <path fill="#440027" d="M91.5 56.91L89.74 51.11 88.72 51.11 90.99 58 92.01 58 94.28 51.11 93.32 51.11 91.54 56.91 91.5 56.91zM99.32 54.33L99.32 56.81C99.32 57.23 99.45 57.39 99.74 57.48L99.52 58.12C99.05 58.06 98.68 57.85 98.52 57.38 98.15 57.88 97.5 58.12 96.86 58.12 95.8 58.12 95.12 57.47 95.12 56.49 95.12 55.4 96.03 54.79 97.63 54.79L98.4 54.79 98.4 54.38C98.4 53.64 97.94 53.36 97.17 53.36 96.82 53.36 96.33 53.44 95.79 53.63L95.55 52.95C96.2 52.71 96.79 52.61 97.31 52.61 98.65 52.61 99.32 53.26 99.32 54.33zM97.11 57.43C97.61 57.43 98.1 57.16 98.4 56.7L98.4 55.4 97.68 55.4C96.55 55.4 96.13 55.81 96.13 56.45 96.13 57.1 96.45 57.43 97.11 57.43zM105.02 57.29L103.55 57.29 103.55 54.91C103.73 54.18 104.27 53.51 104.93 53.51 105.15 53.51 105.31 53.53 105.57 53.6L105.74 52.69C105.44 52.63 105.29 52.61 105.04 52.61 104.42 52.61 103.84 53 103.54 53.74L103.43 52.73 101.42 52.73 101.42 53.44 102.63 53.44 102.63 57.29 101.42 57.29 101.42 58 105.02 58 105.02 57.29zM110.2 52.73L107.72 52.73 107.72 53.44 109.28 53.44 109.28 57.29 107.67 57.29 107.67 58 111.67 58 111.67 57.29 110.2 57.29 110.2 52.73zM110.39 50.85C110.39 50.5 110.12 50.23 109.74 50.23 109.36 50.23 109.1 50.5 109.1 50.85 109.1 51.21 109.36 51.48 109.74 51.48 110.12 51.48 110.39 51.21 110.39 50.85zM117.74 55.68L114.21 55.68C114.29 56.85 114.92 57.37 115.72 57.37 116.2 57.37 116.67 57.25 117.12 56.88L117.54 57.49C117.05 57.88 116.38 58.12 115.7 58.12 114.13 58.12 113.25 57.01 113.25 55.37 113.25 53.78 114.15 52.61 115.55 52.61 116.93 52.61 117.76 53.6 117.76 55.21 117.76 55.39 117.75 55.56 117.74 55.68zM115.55 53.34C114.83 53.34 114.28 53.87 114.21 55L116.87 55C116.85 53.91 116.37 53.34 115.55 53.34zM121.25 57.38C120.63 57.38 120.03 57.16 119.62 56.82L119.11 57.4C119.57 57.8 120.28 58.12 121.25 58.12 122.4 58.12 123.5 57.66 123.5 56.51 123.5 55.49 122.82 55.18 121.81 54.9 120.78 54.61 120.46 54.45 120.46 54.01 120.46 53.59 120.75 53.34 121.57 53.34 122.14 53.34 122.58 53.51 122.97 53.79L123.38 53.17C122.92 52.84 122.31 52.61 121.55 52.61 120.32 52.61 119.51 53.18 119.51 54.07 119.51 54.99 120.21 55.33 121.25 55.6 122.34 55.88 122.51 56.07 122.51 56.58 122.51 57.07 122.03 57.38 121.25 57.38zM132.39 50.5L132.39 53.4C132.77 52.9 133.28 52.61 133.88 52.61 135.28 52.61 135.85 53.7 135.85 55.36 135.85 56.96 135.12 58.12 133.76 58.12 133.16 58.12 132.69 57.91 132.34 57.46L132.28 58 131.47 58 131.47 50.61 132.39 50.5zM133.54 57.39C134.38 57.39 134.86 56.74 134.86 55.36 134.86 53.99 134.44 53.34 133.66 53.34 133.1 53.34 132.67 53.74 132.39 54.16L132.39 56.73C132.66 57.14 133.07 57.39 133.54 57.39zM141.32 54.33L141.32 56.81C141.32 57.23 141.45 57.39 141.74 57.48L141.52 58.12C141.05 58.06 140.68 57.85 140.52 57.38 140.15 57.88 139.5 58.12 138.86 58.12 137.8 58.12 137.12 57.47 137.12 56.49 137.12 55.4 138.03 54.79 139.63 54.79L140.4 54.79 140.4 54.38C140.4 53.64 139.94 53.36 139.17 53.36 138.82 53.36 138.33 53.44 137.79 53.63L137.55 52.95C138.2 52.71 138.79 52.61 139.31 52.61 140.65 52.61 141.32 53.26 141.32 54.33zM139.11 57.43C139.61 57.43 140.1 57.16 140.4 56.7L140.4 55.4 139.68 55.4C138.55 55.4 138.13 55.81 138.13 56.45 138.13 57.1 138.45 57.43 139.11 57.43zM145.25 57.38C144.63 57.38 144.03 57.16 143.62 56.82L143.11 57.4C143.57 57.8 144.28 58.12 145.25 58.12 146.4 58.12 147.5 57.66 147.5 56.51 147.5 55.49 146.82 55.18 145.81 54.9 144.78 54.61 144.46 54.45 144.46 54.01 144.46 53.59 144.75 53.34 145.57 53.34 146.14 53.34 146.58 53.51 146.97 53.79L147.38 53.17C146.92 52.84 146.31 52.61 145.55 52.61 144.32 52.61 143.51 53.18 143.51 54.07 143.51 54.99 144.21 55.33 145.25 55.6 146.34 55.88 146.51 56.07 146.51 56.58 146.51 57.07 146.03 57.38 145.25 57.38zM153.74 55.68L150.21 55.68C150.29 56.85 150.92 57.37 151.72 57.37 152.2 57.37 152.67 57.25 153.12 56.88L153.54 57.49C153.05 57.88 152.38 58.12 151.7 58.12 150.13 58.12 149.25 57.01 149.25 55.37 149.25 53.78 150.15 52.61 151.55 52.61 152.93 52.61 153.76 53.6 153.76 55.21 153.76 55.39 153.75 55.56 153.74 55.68zM151.55 53.34C150.83 53.34 150.28 53.87 150.21 55L152.87 55C152.85 53.91 152.37 53.34 151.55 53.34zM157.46 53.34C156.62 53.34 156.14 54 156.14 55.37 156.14 56.73 156.57 57.39 157.36 57.39 157.92 57.39 158.33 57.01 158.61 56.58L158.61 53.99C158.33 53.58 157.93 53.34 157.46 53.34zM157.22 52.61C157.81 52.61 158.26 52.82 158.61 53.22L158.61 50.5 159.53 50.61 159.53 58 158.72 58 158.64 57.32C158.26 57.86 157.74 58.12 157.15 58.12 155.78 58.12 155.15 57.01 155.15 55.37 155.15 53.78 155.92 52.61 157.22 52.61zM170.82 55.36C170.82 53.99 170.38 53.35 169.51 53.35 168.63 53.35 168.18 53.99 168.18 55.37 168.18 56.74 168.62 57.38 169.5 57.38 170.38 57.38 170.82 56.74 170.82 55.36zM167.2 55.37C167.2 53.74 168.01 52.61 169.51 52.61 171.01 52.61 171.8 53.69 171.8 55.36 171.8 56.99 170.99 58.12 169.5 58.12 168 58.12 167.2 57.04 167.2 55.37zM174.39 58L174.39 54.18C174.67 53.77 175.18 53.33 175.75 53.33 176.52 53.33 176.62 53.74 176.62 54.77L176.62 58 177.54 58 177.54 54.17C177.54 53.19 177.08 52.61 176.06 52.61 175.44 52.61 174.76 52.91 174.33 53.45L174.26 52.73 173.47 52.73 173.47 58 174.39 58zM186.39 60.02L185.47 60.13 185.47 52.73 186.26 52.73 186.33 53.45C186.72 52.91 187.28 52.61 187.89 52.61 189.29 52.61 189.8 53.7 189.8 55.36 189.8 56.96 189.13 58.12 187.77 58.12 187.2 58.12 186.73 57.93 186.39 57.52L186.39 60.02zM187.55 57.37C188.39 57.37 188.82 56.74 188.82 55.36 188.82 53.99 188.45 53.34 187.66 53.34 187.1 53.34 186.67 53.74 186.39 54.16L186.39 56.73C186.66 57.14 187.07 57.37 187.55 57.37zM195.32 54.33L195.32 56.81C195.32 57.23 195.45 57.39 195.74 57.48L195.52 58.12C195.05 58.06 194.68 57.85 194.52 57.38 194.15 57.88 193.5 58.12 192.86 58.12 191.8 58.12 191.12 57.47 191.12 56.49 191.12 55.4 192.03 54.79 193.63 54.79L194.4 54.79 194.4 54.38C194.4 53.64 193.94 53.36 193.17 53.36 192.82 53.36 192.33 53.44 191.79 53.63L191.55 52.95C192.2 52.71 192.79 52.61 193.31 52.61 194.65 52.61 195.32 53.26 195.32 54.33zM193.11 57.43C193.61 57.43 194.1 57.16 194.4 56.7L194.4 55.4 193.68 55.4C192.55 55.4 192.13 55.81 192.13 56.45 192.13 57.1 192.45 57.43 193.11 57.43zM201.02 57.29L199.55 57.29 199.55 54.91C199.73 54.18 200.27 53.51 200.93 53.51 201.15 53.51 201.31 53.53 201.57 53.6L201.74 52.69C201.44 52.63 201.29 52.61 201.04 52.61 200.42 52.61 199.84 53 199.54 53.74L199.43 52.73 197.42 52.73 197.42 53.44 198.63 53.44 198.63 57.29 197.42 57.29 197.42 58 201.02 58 201.02 57.29zM207.74 55.68L204.21 55.68C204.29 56.85 204.92 57.37 205.72 57.37 206.2 57.37 206.67 57.25 207.12 56.88L207.54 57.49C207.05 57.88 206.38 58.12 205.7 58.12 204.13 58.12 203.25 57.01 203.25 55.37 203.25 53.78 204.15 52.61 205.55 52.61 206.93 52.61 207.76 53.6 207.76 55.21 207.76 55.39 207.75 55.56 207.74 55.68zM205.55 53.34C204.83 53.34 204.28 53.87 204.21 55L206.87 55C206.85 53.91 206.37 53.34 205.55 53.34zM210.39 58L210.39 54.18C210.67 53.77 211.18 53.33 211.75 53.33 212.52 53.33 212.62 53.74 212.62 54.77L212.62 58 213.54 58 213.54 54.17C213.54 53.19 213.08 52.61 212.06 52.61 211.44 52.61 210.76 52.91 210.33 53.45L210.26 52.73 209.47 52.73 209.47 58 210.39 58zM219.47 57.1C219.2 57.26 218.86 57.36 218.47 57.36 217.77 57.36 217.49 57.07 217.49 56.48L217.49 53.43 219.19 53.43 219.3 52.73 217.49 52.73 217.49 51.43 216.57 51.54 216.57 52.73 215.37 52.73 215.37 53.43 216.57 53.43 216.57 56.49C216.57 57.45 217.21 58.12 218.37 58.12 218.89 58.12 219.45 57.97 219.82 57.73L219.47 57.1zM311.4 86.128L309.992 81.488 309.176 81.488 310.992 87 311.808 87 313.624 81.488 312.856 81.488 311.432 86.128 311.4 86.128zM317.656 84.064L317.656 86.048C317.656 86.384 317.76 86.512 317.992 86.584L317.816 87.096C317.44 87.048 317.144 86.88 317.016 86.504 316.72 86.904 316.2 87.096 315.688 87.096 314.84 87.096 314.296 86.576 314.296 85.792 314.296 84.92 315.024 84.432 316.304 84.432L316.92 84.432 316.92 84.104C316.92 83.512 316.552 83.288 315.936 83.288 315.656 83.288 315.264 83.352 314.832 83.504L314.64 82.96C315.16 82.768 315.632 82.688 316.048 82.688 317.12 82.688 317.656 83.208 317.656 84.064zM315.888 86.544C316.288 86.544 316.68 86.328 316.92 85.96L316.92 84.92 316.344 84.92C315.44 84.92 315.104 85.248 315.104 85.76 315.104 86.28 315.36 86.544 315.888 86.544zM322.216 86.432L321.04 86.432 321.04 84.528C321.184 83.944 321.616 83.408 322.144 83.408 322.32 83.408 322.448 83.424 322.656 83.48L322.792 82.752C322.552 82.704 322.432 82.688 322.232 82.688 321.736 82.688 321.272 83 321.032 83.592L320.944 82.784 319.336 82.784 319.336 83.352 320.304 83.352 320.304 86.432 319.336 86.432 319.336 87 322.216 87 322.216 86.432zM326.36 82.784L324.376 82.784 324.376 83.352 325.624 83.352 325.624 86.432 324.336 86.432 324.336 87 327.536 87 327.536 86.432 326.36 86.432 326.36 82.784zM326.512 81.28C326.512 81 326.296 80.784 325.992 80.784 325.688 80.784 325.48 81 325.48 81.28 325.48 81.568 325.688 81.784 325.992 81.784 326.296 81.784 326.512 81.568 326.512 81.28zM332.392 85.144L329.568 85.144C329.632 86.08 330.136 86.496 330.776 86.496 331.16 86.496 331.536 86.4 331.896 86.104L332.232 86.592C331.84 86.904 331.304 87.096 330.76 87.096 329.504 87.096 328.8 86.208 328.8 84.896 328.8 83.624 329.52 82.688 330.64 82.688 331.744 82.688 332.408 83.48 332.408 84.768 332.408 84.912 332.4 85.048 332.392 85.144zM330.64 83.272C330.064 83.272 329.624 83.696 329.568 84.6L331.696 84.6C331.68 83.728 331.296 83.272 330.64 83.272zM335.2 86.504C334.704 86.504 334.224 86.328 333.896 86.056L333.488 86.52C333.856 86.84 334.424 87.096 335.2 87.096 336.12 87.096 337 86.728 337 85.808 337 84.992 336.456 84.744 335.648 84.52 334.824 84.288 334.568 84.16 334.568 83.808 334.568 83.472 334.8 83.272 335.456 83.272 335.912 83.272 336.264 83.408 336.576 83.632L336.904 83.136C336.536 82.872 336.048 82.688 335.44 82.688 334.456 82.688 333.808 83.144 333.808 83.856 333.808 84.592 334.368 84.864 335.2 85.08 336.072 85.304 336.208 85.456 336.208 85.864 336.208 86.256 335.824 86.504 335.2 86.504zM344.112 81L344.112 83.32C344.416 82.92 344.824 82.688 345.304 82.688 346.424 82.688 346.88 83.56 346.88 84.888 346.88 86.168 346.296 87.096 345.208 87.096 344.728 87.096 344.352 86.928 344.072 86.568L344.024 87 343.376 87 343.376 81.088 344.112 81zM345.032 86.512C345.704 86.512 346.088 85.992 346.088 84.888 346.088 83.792 345.752 83.272 345.128 83.272 344.68 83.272 344.336 83.592 344.112 83.928L344.112 85.984C344.328 86.312 344.656 86.512 345.032 86.512zM351.256 84.064L351.256 86.048C351.256 86.384 351.36 86.512 351.592 86.584L351.416 87.096C351.04 87.048 350.744 86.88 350.616 86.504 350.32 86.904 349.8 87.096 349.288 87.096 348.44 87.096 347.896 86.576 347.896 85.792 347.896 84.92 348.624 84.432 349.904 84.432L350.52 84.432 350.52 84.104C350.52 83.512 350.152 83.288 349.536 83.288 349.256 83.288 348.864 83.352 348.432 83.504L348.24 82.96C348.76 82.768 349.232 82.688 349.648 82.688 350.72 82.688 351.256 83.208 351.256 84.064zM349.488 86.544C349.888 86.544 350.28 86.328 350.52 85.96L350.52 84.92 349.944 84.92C349.04 84.92 348.704 85.248 348.704 85.76 348.704 86.28 348.96 86.544 349.488 86.544zM354.4 86.504C353.904 86.504 353.424 86.328 353.096 86.056L352.688 86.52C353.056 86.84 353.624 87.096 354.4 87.096 355.32 87.096 356.2 86.728 356.2 85.808 356.2 84.992 355.656 84.744 354.848 84.52 354.024 84.288 353.768 84.16 353.768 83.808 353.768 83.472 354 83.272 354.656 83.272 355.112 83.272 355.464 83.408 355.776 83.632L356.104 83.136C355.736 82.872 355.248 82.688 354.64 82.688 353.656 82.688 353.008 83.144 353.008 83.856 353.008 84.592 353.568 84.864 354.4 85.08 355.272 85.304 355.408 85.456 355.408 85.864 355.408 86.256 355.024 86.504 354.4 86.504zM361.192 85.144L358.368 85.144C358.432 86.08 358.936 86.496 359.576 86.496 359.96 86.496 360.336 86.4 360.696 86.104L361.032 86.592C360.64 86.904 360.104 87.096 359.56 87.096 358.304 87.096 357.6 86.208 357.6 84.896 357.6 83.624 358.32 82.688 359.44 82.688 360.544 82.688 361.208 83.48 361.208 84.768 361.208 84.912 361.2 85.048 361.192 85.144zM359.44 83.272C358.864 83.272 358.424 83.696 358.368 84.6L360.496 84.6C360.48 83.728 360.096 83.272 359.44 83.272zM364.168 83.272C363.496 83.272 363.112 83.8 363.112 84.896 363.112 85.984 363.456 86.512 364.088 86.512 364.536 86.512 364.864 86.208 365.088 85.864L365.088 83.792C364.864 83.464 364.544 83.272 364.168 83.272zM363.976 82.688C364.448 82.688 364.808 82.856 365.088 83.176L365.088 81 365.824 81.088 365.824 87 365.176 87 365.112 86.456C364.808 86.888 364.392 87.096 363.92 87.096 362.824 87.096 362.32 86.208 362.32 84.896 362.32 83.624 362.936 82.688 363.976 82.688zM312.456 93.888C312.456 92.792 312.104 92.28 311.408 92.28 310.704 92.28 310.344 92.792 310.344 93.896 310.344 94.992 310.696 95.504 311.4 95.504 312.104 95.504 312.456 94.992 312.456 93.888zM309.56 93.896C309.56 92.592 310.208 91.688 311.408 91.688 312.608 91.688 313.24 92.552 313.24 93.888 313.24 95.192 312.592 96.096 311.4 96.096 310.2 96.096 309.56 95.232 309.56 93.896zM315.312 96L315.312 92.944C315.536 92.616 315.944 92.264 316.4 92.264 317.016 92.264 317.096 92.592 317.096 93.416L317.096 96 317.832 96 317.832 92.936C317.832 92.152 317.464 91.688 316.648 91.688 316.152 91.688 315.608 91.928 315.264 92.36L315.208 91.784 314.576 91.784 314.576 96 315.312 96zM327.376 95.28C327.16 95.408 326.888 95.488 326.576 95.488 326.016 95.488 325.792 95.256 325.792 94.784L325.792 92.344 327.152 92.344 327.24 91.784 325.792 91.784 325.792 90.744 325.056 90.832 325.056 91.784 324.096 91.784 324.096 92.344 325.056 92.344 325.056 94.792C325.056 95.56 325.568 96.096 326.496 96.096 326.912 96.096 327.36 95.976 327.656 95.784L327.376 95.28zM329.712 96L329.712 92.944C329.936 92.616 330.344 92.264 330.8 92.264 331.28 92.264 331.496 92.48 331.496 92.984L331.496 96 332.232 96 332.232 92.936C332.232 92.152 331.864 91.688 331.048 91.688 330.552 91.688 330.048 91.92 329.712 92.32L329.712 90.016 328.976 90.096 328.976 96 329.712 96zM337.192 94.144L334.368 94.144C334.432 95.08 334.936 95.496 335.576 95.496 335.96 95.496 336.336 95.4 336.696 95.104L337.032 95.592C336.64 95.904 336.104 96.096 335.56 96.096 334.304 96.096 333.6 95.208 333.6 93.896 333.6 92.624 334.32 91.688 335.44 91.688 336.544 91.688 337.208 92.48 337.208 93.768 337.208 93.912 337.2 94.048 337.192 94.144zM335.44 92.272C334.864 92.272 334.424 92.696 334.368 93.6L336.496 93.6C336.48 92.728 336.096 92.272 335.44 92.272zM345.288 95.472C344.584 95.472 344.072 95.016 344.072 93.912 344.072 92.816 344.576 92.296 345.288 92.296 345.656 92.296 346.016 92.4 346.36 92.656L346.72 92.16C346.328 91.832 345.832 91.688 345.288 91.688 344.016 91.688 343.28 92.64 343.28 93.912 343.28 95.232 344.008 96.096 345.28 96.096 345.76 96.096 346.328 95.936 346.72 95.616L346.368 95.112C346.024 95.368 345.64 95.472 345.288 95.472zM350.856 93.888C350.856 92.792 350.504 92.28 349.808 92.28 349.104 92.28 348.744 92.792 348.744 93.896 348.744 94.992 349.096 95.504 349.8 95.504 350.504 95.504 350.856 94.992 350.856 93.888zM347.96 93.896C347.96 92.592 348.608 91.688 349.808 91.688 351.008 91.688 351.64 92.552 351.64 93.888 351.64 95.192 350.992 96.096 349.8 96.096 348.6 96.096 347.96 95.232 347.96 93.896zM353.712 96L353.712 92.944C353.936 92.616 354.344 92.264 354.8 92.264 355.416 92.264 355.496 92.592 355.496 93.416L355.496 96 356.232 96 356.232 92.936C356.232 92.152 355.864 91.688 355.048 91.688 354.552 91.688 354.008 91.928 353.664 92.36L353.608 91.784 352.976 91.784 352.976 96 353.712 96zM360.976 95.28C360.76 95.408 360.488 95.488 360.176 95.488 359.616 95.488 359.392 95.256 359.392 94.784L359.392 92.344 360.752 92.344 360.84 91.784 359.392 91.784 359.392 90.744 358.656 90.832 358.656 91.784 357.696 91.784 357.696 92.344 358.656 92.344 358.656 94.792C358.656 95.56 359.168 96.096 360.096 96.096 360.512 96.096 360.96 95.976 361.256 95.784L360.976 95.28zM365.992 94.144L363.168 94.144C363.232 95.08 363.736 95.496 364.376 95.496 364.76 95.496 365.136 95.4 365.496 95.104L365.832 95.592C365.44 95.904 364.904 96.096 364.36 96.096 363.104 96.096 362.4 95.208 362.4 93.896 362.4 92.624 363.12 91.688 364.24 91.688 365.344 91.688 366.008 92.48 366.008 93.768 366.008 93.912 366 94.048 365.992 94.144zM364.24 92.272C363.664 92.272 363.224 92.696 363.168 93.6L365.296 93.6C365.28 92.728 364.896 92.272 364.24 92.272zM368.112 96L368.112 92.944C368.336 92.616 368.744 92.264 369.2 92.264 369.816 92.264 369.896 92.592 369.896 93.416L369.896 96 370.632 96 370.632 92.936C370.632 92.152 370.264 91.688 369.448 91.688 368.952 91.688 368.408 91.928 368.064 92.36L368.008 91.784 367.376 91.784 367.376 96 368.112 96zM375.376 95.28C375.16 95.408 374.888 95.488 374.576 95.488 374.016 95.488 373.792 95.256 373.792 94.784L373.792 92.344 375.152 92.344 375.24 91.784 373.792 91.784 373.792 90.744 373.056 90.832 373.056 91.784 372.096 91.784 372.096 92.344 373.056 92.344 373.056 94.792C373.056 95.56 373.568 96.096 374.496 96.096 374.912 96.096 375.36 95.976 375.656 95.784L375.376 95.28z"/>
    <path fill="#22E800" d="M19,4 L27,4 C28.1045695,4 29,4.8954305 29,6 L29,24 C29,25.1045695 28.1045695,26 27,26 L2,26 C0.8954305,26 1.3527075e-16,25.1045695 0,24 L0,6 C-1.3527075e-16,4.8954305 0.8954305,4 2,4 L11,4 L15,0 L19,4 Z" transform="translate(153.5 105)"/>
    <g transform="translate(172 77)">
      <mask id="s-gen-c" fill="#fff">
        <use xlink:href="#s-gen-b"/>
      </mask>
      <use fill="#0C0C0D" fill-opacity=".1" xlink:href="#s-gen-b"/>
      <path fill="#0C0C0D" d="M14.5517633,16.1728519 L13.7729547,13.9545902 L10.6899469,13.9545902 L9.91113829,16.1728519 L8.89600157,16.1728519 L11.7534234,8.42236359 L12.7094781,8.42236359 L15.5669,16.1728519 L14.5517633,16.1728519 Z M12.188482,9.67382843 L10.9746149,13.1328128 L13.4882867,13.1328128 L12.2744195,9.67382843 L12.188482,9.67382843 Z M21.2763727,12.1552737 C21.1152399,11.1240237 20.2558649,10.280762 18.8486383,10.280762 C17.226568,10.280762 16.195318,11.4516605 16.195318,13.256348 C16.195318,15.0986331 17.2319391,16.2749027 18.8540094,16.2749027 C20.2451227,16.2749027 21.1098688,15.490723 21.2763727,14.4272464 L20.3418024,14.4272464 C20.1699274,15.0825198 19.6274469,15.4423831 18.8486383,15.4423831 C17.8173883,15.4423831 17.1513727,14.5937503 17.1513727,13.256348 C17.1513727,11.9458011 17.8066461,11.1132816 18.8486383,11.1132816 C19.6811578,11.1132816 20.1914117,11.5805667 20.3418024,12.1552737 L21.2763727,12.1552737 Z M23.1347711,8.88427765 L23.1347711,10.3828128 L22.2002008,10.3828128 L22.2002008,11.1562503 L23.1347711,11.1562503 L23.1347711,14.6689456 C23.1347711,15.7753909 23.6127984,16.2158206 24.8051813,16.2158206 C24.9877984,16.2158206 25.1650445,16.1943362 25.3476617,16.1621097 L25.3476617,15.3833011 C25.1757867,15.3994144 25.0844781,15.4047855 24.9179742,15.4047855 C24.3164117,15.4047855 24.0585992,15.1147464 24.0585992,14.4326175 L24.0585992,11.1562503 L25.3476617,11.1562503 L25.3476617,10.3828128 L24.0585992,10.3828128 L24.0585992,8.88427765 L23.1347711,8.88427765 Z M26.7656305,16.1728519 L27.6894586,16.1728519 L27.6894586,10.3828128 L26.7656305,10.3828128 L26.7656305,16.1728519 Z M27.2275445,9.20654328 C27.5820367,9.20654328 27.8720758,8.91650422 27.8720758,8.56201203 C27.8720758,8.20751984 27.5820367,7.91748078 27.2275445,7.91748078 C26.8730524,7.91748078 26.5830133,8.20751984 26.5830133,8.56201203 C26.5830133,8.91650422 26.8730524,9.20654328 27.2275445,9.20654328 Z M31.8305719,16.2749027 C30.1816461,16.2749027 29.1611383,15.1362308 29.1611383,13.2778323 C29.1611383,11.4140628 30.1816461,10.280762 31.8305719,10.280762 C33.4794977,10.280762 34.5000055,11.4140628 34.5000055,13.2778323 C34.5000055,15.1362308 33.4794977,16.2749027 31.8305719,16.2749027 Z M31.8305719,15.4423831 C32.926275,15.4423831 33.5439508,14.6474612 33.5439508,13.2778323 C33.5439508,11.9028323 32.926275,11.1132816 31.8305719,11.1132816 C30.7348688,11.1132816 30.117193,11.9028323 30.117193,13.2778323 C30.117193,14.6474612 30.7348688,15.4423831 31.8305719,15.4423831 Z M35.9502008,16.1728519 L36.8740289,16.1728519 L36.8740289,12.7460941 C36.8740289,11.7309573 37.4702203,11.1132816 38.3940484,11.1132816 C39.3178766,11.1132816 39.7583063,11.6074222 39.7583063,12.6494144 L39.7583063,16.1728519 L40.6821344,16.1728519 L40.6821344,12.4238284 C40.6821344,11.0488284 39.9570367,10.280762 38.657232,10.280762 C37.7710016,10.280762 37.2070367,10.6567386 36.9169977,11.2958987 L36.8310602,11.2958987 L36.8310602,10.3828128 L35.9502008,10.3828128 L35.9502008,16.1728519 Z" mask="url(#s-gen-c)"/>
    </g>
    <path fill="#002D3E" d="M164.06,117.75 C164.06,118.42 163.63,118.89 162.87,119.31 C163.77,119.68 164.35,120.31 164.35,121.15 C164.35,122.28 163.43,123.11 161.98,123.11 C160.5,123.11 159.65,122.26 159.65,121.17 C159.65,120.33 160.2,119.76 161.04,119.37 C160.3,119.02 159.94,118.57 159.94,117.8 C159.94,116.54 161.09,116 162,116 C163,116 164.06,116.53 164.06,117.75 Z M160.76,117.81 C160.76,118.6 161.34,118.79 162.28,119.1 C162.92,118.73 163.24,118.41 163.24,117.79 C163.24,117.1 162.79,116.66 162,116.66 C161.22,116.66 160.76,117.08 160.76,117.81 Z M163.46,121.17 C163.46,120.24 162.7,119.99 161.61,119.61 C161.05,119.87 160.54,120.31 160.54,121.17 C160.54,121.95 161.03,122.43 161.98,122.43 C162.94,122.43 163.46,121.89 163.46,121.17 Z M168.36,117.62 C169.76,117.62 170.27,118.71 170.27,120.36 C170.27,121.96 169.61,123.11 168.24,123.11 C167.66,123.11 167.2,122.91 166.84,122.51 L166.84,125.02 L166,125.12 L166,117.73 L166.72,117.73 L166.79,118.47 C167.17,117.93 167.73,117.62 168.36,117.62 Z M168.16,118.3 C167.58,118.3 167.13,118.72 166.84,119.14 L166.84,121.75 C167.12,122.16 167.55,122.41 168.05,122.41 C168.92,122.41 169.36,121.76 169.36,120.36 C169.36,118.99 168.99,118.3 168.16,118.3 Z M172.52,123 L171.56,123 L173.5,120.22 L171.79,117.73 L172.79,117.73 L174.01,119.69 L175.24,117.73 L176.21,117.73 L174.5,120.18 L176.44,123 L175.42,123 L173.97,120.74 L172.52,123 Z"/>
    <path fill="#0C0C0D" fill-opacity=".8" fill-rule="nonzero" d="M28.5 82C24.6340068 82 21.5 85.1340068 21.5 89 21.5 92.8659932 24.6340068 96 28.5 96 32.3659932 96 35.5 92.8659932 35.5 89 35.4955914 85.1358343 32.3641657 82.0044086 28.5 82L28.5 82zM28.5 95C25.1862915 95 22.5 92.3137085 22.5 89 22.5 85.6862915 25.1862915 83 28.5 83 31.8137085 83 34.5 85.6862915 34.5 89 34.4961426 92.3121094 31.8121094 94.9961426 28.5 95zM28.5 88C27.9477153 88 27.5 88.4477153 27.5 89L27.5 92C27.5 92.5522847 27.9477153 93 28.5 93 29.0522847 93 29.5 92.5522847 29.5 92L29.5 89C29.5 88.4477153 29.0522847 88 28.5 88zM28.5 84.812C27.8438857 84.812 27.312 85.3438857 27.312 86 27.312 86.6561143 27.8438857 87.188 28.5 87.188 29.1561143 87.188 29.688 86.6561143 29.688 86 29.688 85.6849228 29.5628361 85.3827504 29.3400429 85.1599571 29.1172496 84.9371639 28.8150772 84.812 28.5 84.812L28.5 84.812zM282.722541 88.9894567L287.25939 84.4526077C287.584223 84.1162835 287.579577 83.5816795 287.248949 83.2510511 286.918321 82.9204227 286.383716 82.9157771 286.047392 83.2406099L281.510543 87.7774589 276.973694 83.2406099C276.63737 82.9157771 276.102766 82.9204227 275.772138 83.2510511 275.441509 83.5816795 275.436864 84.1162835 275.761696 84.4526077L280.298545 88.9894567 275.761696 93.5263058C275.538877 93.7415121 275.449515 94.0602002 275.527956 94.359882 275.606398 94.6595638 275.840436 94.893602 276.140118 94.9720436 276.4398 95.0504853 276.758488 94.9611231 276.973694 94.7383036L281.510543 90.2014546 286.047392 94.7383036C286.383716 95.0631364 286.918321 95.0584908 287.248949 94.7278624 287.579577 94.397234 287.584223 93.8626299 287.25939 93.5263058L282.722541 88.9894567z"/>
  </g>
</svg>
