<svg xmlns="http://www.w3.org/2000/svg" xmlns:xlink="http://www.w3.org/1999/xlink" width="610" height="180" viewBox="0 0 610 180">
  <defs>
    <rect id="sizes-one-line-a" width="318" height="32" rx="3"/>
    <path id="sizes-one-line-b" d="M7.22254109,5.98945674 L11.7593901,1.45260771 C12.0842229,1.11628355 12.0795773,0.581679455 11.7489489,0.251051076 C11.4183205,-0.0795773034 10.8837165,-0.0842228685 10.5473923,0.240609874 L6.01054326,4.77745891 L1.47369422,0.240609874 C1.13737006,-0.0842228685 0.602765966,-0.0795773034 0.272137586,0.251051076 C-0.0584907931,0.581679455 -0.0631363582,1.11628355 0.261696384,1.45260771 L4.79854542,5.98945674 L0.261696384,10.5263058 C0.0388768524,10.7415121 -0.0504852845,11.0602002 0.0279563816,11.359882 C0.106398048,11.6595638 0.340436167,11.893602 0.640118002,11.9720436 C0.939799836,12.0504853 1.25848791,11.9611231 1.47369422,11.7383036 L6.01054326,7.20145458 L10.5473923,11.7383036 C10.8837165,12.0631364 11.4183205,12.0584908 11.7489489,11.7278624 C12.0795773,11.397234 12.0842229,10.8626299 11.7593901,10.5263058 L7.22254109,5.98945674 Z"/>
    <path id="sizes-one-line-d" d="M7,0 C3.13400675,-6.66133815e-16 4.4408921e-16,3.13400675 0,7 C-4.4408921e-16,10.8659932 3.13400675,14 7,14 C10.8659932,14 14,10.8659932 14,7 C13.9955914,3.13583434 10.8641657,0.00440863597 7,3.77475828e-15 L7,0 Z M7,13 C3.6862915,13 1,10.3137085 1,7 C1,3.6862915 3.6862915,1 7,1 C10.3137085,1 13,3.6862915 13,7 C12.9961426,10.3121094 10.3121094,12.9961426 7,13 Z M7,6 C6.44771525,6 6,6.44771525 6,7 L6,10 C6,10.5522847 6.44771525,11 7,11 C7.55228475,11 8,10.5522847 8,10 L8,7 C8,6.44771525 7.55228475,6 7,6 Z M7,2.812 C6.34388572,2.812 5.812,3.34388572 5.812,4 C5.812,4.65611428 6.34388572,5.188 7,5.188 C7.65611428,5.188 8.188,4.65611428 8.188,4 C8.188,3.68492281 8.06283607,3.38275036 7.84004286,3.15995714 C7.61724964,2.93716393 7.31507719,2.812 7,2.812 L7,2.812 Z"/>
    <rect id="sizes-one-line-f" width="64" height="24" rx="3"/>
  </defs>
  <g fill="none" fill-rule="evenodd">
    <rect width="610" height="180" fill="#F9F9FA"/>
    <g transform="translate(102.5 47)">
      <g transform="translate(8 26)">
        <rect width="318" height="32" fill="#EDEDF0" rx="3"/>
        <use fill="#EDEDF0" xlink:href="#sizes-one-line-a"/>
        <rect width="314" height="28" x="2" y="2" stroke="#00FEFF" stroke-opacity=".3" stroke-width="4" rx="3"/>
        <g transform="translate(290 4)">
          <rect width="24" height="24"/>
          <g transform="translate(6 6)">
            <mask id="sizes-one-line-c" fill="#fff">
              <use xlink:href="#sizes-one-line-b"/>
            </mask>
            <use fill="#0C0C0D" fill-opacity=".8" fill-rule="nonzero" xlink:href="#sizes-one-line-b"/>
            <g fill="#0C0C0D" mask="url(#sizes-one-line-c)">
              <rect width="200" height="200" transform="translate(-89 -91)"/>
            </g>
          </g>
        </g>
        <g transform="translate(4 4)">
          <rect width="24" height="24"/>
          <g transform="translate(5 5)">
            <mask id="sizes-one-line-e" fill="#fff">
              <use xlink:href="#sizes-one-line-d"/>
            </mask>
            <use fill="#0C0C0D" fill-opacity=".8" fill-rule="nonzero" xlink:href="#sizes-one-line-d"/>
            <g fill="#0C0C0D" mask="url(#sizes-one-line-e)">
              <rect width="200" height="200" transform="translate(-94.059 -95.048)"/>
            </g>
          </g>
        </g>
        <path fill="#0C0C0D" d="M37.2495117,21 L37.2495117,13.4780273 L39.9980469,13.4780273 L39.9980469,11.840332 L32.5839844,11.840332 L32.5839844,13.4780273 L35.3325195,13.4780273 L35.3325195,21 L37.2495117,21 Z M41.5214844,21 L43.3686523,21 L43.3686523,13.9985352 L41.5214844,13.9985352 L41.5214844,21 Z M42.4482422,13.0209961 C43.1083984,13.0209961 43.5400391,12.6337891 43.5400391,12.0878906 C43.5400391,11.5356445 43.1083984,11.1547852 42.4482422,11.1547852 C41.7817383,11.1547852 41.3564453,11.5356445 41.3564453,12.0878906 C41.3564453,12.6337891 41.7817383,13.0209961 42.4482422,13.0209961 Z M45.7617188,12.3354492 L45.7617188,14.0683594 L44.6699219,14.0683594 L44.6699219,15.5219727 L45.7617188,15.5219727 L45.7617188,19.1083984 C45.7617188,20.4731445 46.4345703,21.0253906 48.1357422,21.0253906 C48.4912109,21.0253906 48.8339844,20.9873047 49.0625,20.9428711 L49.0625,19.5336914 C48.8847656,19.5527344 48.7578125,19.559082 48.5166016,19.559082 C47.8881836,19.559082 47.6088867,19.2797852 47.6088867,18.6704102 L47.6088867,15.5219727 L49.0625,15.5219727 L49.0625,14.0683594 L47.6088867,14.0683594 L47.6088867,12.3354492 L45.7617188,12.3354492 Z M50.6621094,21 L52.5092773,21 L52.5092773,11.3261719 L50.6621094,11.3261719 L50.6621094,21 Z M57.4541016,15.2617188 C56.597168,15.2617188 55.9941406,15.8583984 55.9306641,16.7661133 L58.9140625,16.7661133 C58.8759766,15.8393555 58.3173828,15.2617188 57.4541016,15.2617188 Z M58.9521484,19.0068359 L60.6723633,19.0068359 C60.3930664,20.3271484 59.1870117,21.1523438 57.4731445,21.1523438 C55.340332,21.1523438 54.0834961,19.8066406 54.0834961,17.5341797 C54.0834961,15.2553711 55.3657227,13.8461914 57.4477539,13.8461914 C59.5107422,13.8461914 60.7294922,15.1601562 60.7294922,17.3818359 L60.7294922,17.9467773 L55.9243164,17.9467773 L55.9243164,18.0419922 C55.949707,19.0830078 56.559082,19.7304688 57.5239258,19.7304688 C58.2539062,19.7304688 58.7553711,19.4702148 58.9521484,19.0068359 Z M75.1767578,21 L75.1767578,11.840332 L73.8500977,11.840332 L70.7143555,19.4194336 L70.612793,19.4194336 L67.4770508,11.840332 L66.1503906,11.840332 L66.1503906,21 L67.2167969,21 L67.2167969,14.0048828 L67.2929688,14.0048828 L70.1811523,20.9365234 L71.1459961,20.9365234 L74.0341797,14.0048828 L74.1103516,14.0048828 L74.1103516,21 L75.1767578,21 Z M80.1025391,15.0014648 C79.0107422,15.0014648 78.2490234,15.8012695 78.1665039,17.0136719 L81.9370117,17.0136719 C81.9116211,15.8012695 81.1879883,15.0014648 80.1025391,15.0014648 Z M81.9052734,19.2290039 L82.9970703,19.2290039 C82.6669922,20.4033203 81.6132812,21.1206055 80.1152344,21.1206055 C78.2172852,21.1206055 77.0302734,19.7495117 77.0302734,17.5849609 C77.0302734,15.4331055 78.2363281,14.0366211 80.1152344,14.0366211 C81.9624023,14.0366211 83.0859375,15.3505859 83.0859375,17.4770508 L83.0859375,17.8959961 L78.1665039,17.8959961 L78.1665039,17.9467773 C78.2236328,19.2988281 78.9790039,20.1557617 80.140625,20.1557617 C81.0229492,20.1557617 81.6196289,19.8320312 81.9052734,19.2290039 Z M84.6411133,16.0297852 C84.6411133,17.0200195 85.2250977,17.5722656 86.5073242,17.8833008 L87.6816406,18.1689453 C88.4116211,18.3466797 88.7670898,18.6640625 88.7670898,19.1337891 C88.7670898,19.762207 88.1069336,20.2001953 87.1865234,20.2001953 C86.3105469,20.2001953 85.7646484,19.8320312 85.5805664,19.2543945 L84.4570312,19.2543945 C84.5776367,20.390625 85.625,21.1206055 87.1484375,21.1206055 C88.7036133,21.1206055 89.890625,20.2763672 89.890625,19.0512695 C89.890625,18.0673828 89.2685547,17.5087891 87.9799805,17.1977539 L86.9262695,16.9438477 C86.1201172,16.7470703 85.7392578,16.4550781 85.7392578,15.9853516 C85.7392578,15.3759766 86.3740234,14.9633789 87.1865234,14.9633789 C88.0117188,14.9633789 88.5449219,15.3251953 88.690918,15.8710938 L89.7700195,15.8710938 C89.6240234,14.7475586 88.6274414,14.0366211 87.1928711,14.0366211 C85.7392578,14.0366211 84.6411133,14.8935547 84.6411133,16.0297852 Z M91.3188477,16.0297852 C91.3188477,17.0200195 91.902832,17.5722656 93.1850586,17.8833008 L94.359375,18.1689453 C95.0893555,18.3466797 95.4448242,18.6640625 95.4448242,19.1337891 C95.4448242,19.762207 94.784668,20.2001953 93.8642578,20.2001953 C92.9882812,20.2001953 92.4423828,19.8320312 92.2583008,19.2543945 L91.1347656,19.2543945 C91.2553711,20.390625 92.3027344,21.1206055 93.8261719,21.1206055 C95.3813477,21.1206055 96.5683594,20.2763672 96.5683594,19.0512695 C96.5683594,18.0673828 95.9462891,17.5087891 94.6577148,17.1977539 L93.6040039,16.9438477 C92.7978516,16.7470703 92.4169922,16.4550781 92.4169922,15.9853516 C92.4169922,15.3759766 93.0517578,14.9633789 93.8642578,14.9633789 C94.6894531,14.9633789 95.2226562,15.3251953 95.3686523,15.8710938 L96.4477539,15.8710938 C96.3017578,14.7475586 95.3051758,14.0366211 93.8706055,14.0366211 C92.4169922,14.0366211 91.3188477,14.8935547 91.3188477,16.0297852 Z M100.389648,20.1621094 C101.513184,20.1621094 102.344727,19.4257812 102.344727,18.4482422 L102.344727,17.8198242 L100.503906,17.9404297 C99.4628906,18.0102539 99.0058594,18.3720703 99.0058594,19.0576172 C99.0058594,19.7558594 99.5961914,20.1621094 100.389648,20.1621094 Z M100.186523,21.1206055 C98.8598633,21.1206055 97.8759766,20.3334961 97.8759766,19.0830078 C97.8759766,17.8579102 98.7773438,17.1533203 100.370605,17.0581055 L102.344727,16.9375 L102.344727,16.3154297 C102.344727,15.4711914 101.817871,15.0078125 100.795898,15.0078125 C99.9770508,15.0078125 99.4057617,15.3188477 99.253418,15.8583984 L98.1489258,15.8583984 C98.2949219,14.7602539 99.3740234,14.0366211 100.833984,14.0366211 C102.503418,14.0366211 103.436523,14.8935547 103.436523,16.3154297 L103.436523,21 L102.395508,21 L102.395508,19.9907227 L102.293945,19.9907227 C101.849609,20.7207031 101.100586,21.1206055 100.186523,21.1206055 Z M108.222656,19.9335938 C109.492188,19.9335938 110.253906,18.96875 110.253906,17.4770508 C110.253906,15.9853516 109.48584,15.0205078 108.222656,15.0205078 C106.953125,15.0205078 106.242188,15.9853516 106.242188,17.4770508 C106.242188,18.96875 106.953125,19.9335938 108.222656,19.9335938 Z M108.273438,23.6279297 C106.623047,23.6279297 105.569336,22.8852539 105.404297,21.7553711 L106.55957,21.7553711 C106.680176,22.3139648 107.289551,22.6757812 108.273438,22.6757812 C109.498535,22.6757812 110.228516,22.0727539 110.228516,21.0634766 L110.228516,19.7177734 L110.126953,19.7177734 C109.695312,20.4731445 108.920898,20.8984375 107.981445,20.8984375 C106.210449,20.8984375 105.112305,19.5273438 105.112305,17.4770508 C105.112305,15.4267578 106.223145,14.0366211 107.981445,14.0366211 C108.939941,14.0366211 109.78418,14.5063477 110.177734,15.2426758 L110.279297,15.2426758 L110.279297,14.1572266 L111.320312,14.1572266 L111.320312,21.1206055 C111.320312,22.6503906 110.139648,23.6279297 108.273438,23.6279297 Z M116.106445,15.0014648 C115.014648,15.0014648 114.25293,15.8012695 114.17041,17.0136719 L117.940918,17.0136719 C117.915527,15.8012695 117.191895,15.0014648 116.106445,15.0014648 Z M117.90918,19.2290039 L119.000977,19.2290039 C118.670898,20.4033203 117.617188,21.1206055 116.119141,21.1206055 C114.221191,21.1206055 113.03418,19.7495117 113.03418,17.5849609 C113.03418,15.4331055 114.240234,14.0366211 116.119141,14.0366211 C117.966309,14.0366211 119.089844,15.3505859 119.089844,17.4770508 L119.089844,17.8959961 L114.17041,17.8959961 L114.17041,17.9467773 C114.227539,19.2988281 114.98291,20.1557617 116.144531,20.1557617 C117.026855,20.1557617 117.623535,19.8320312 117.90918,19.2290039 Z M127.240234,19.9335938 C128.509766,19.9335938 129.271484,18.96875 129.271484,17.4770508 C129.271484,15.9853516 128.503418,15.0205078 127.240234,15.0205078 C125.970703,15.0205078 125.259766,15.9853516 125.259766,17.4770508 C125.259766,18.96875 125.970703,19.9335938 127.240234,19.9335938 Z M127.291016,23.6279297 C125.640625,23.6279297 124.586914,22.8852539 124.421875,21.7553711 L125.577148,21.7553711 C125.697754,22.3139648 126.307129,22.6757812 127.291016,22.6757812 C128.516113,22.6757812 129.246094,22.0727539 129.246094,21.0634766 L129.246094,19.7177734 L129.144531,19.7177734 C128.712891,20.4731445 127.938477,20.8984375 126.999023,20.8984375 C125.228027,20.8984375 124.129883,19.5273438 124.129883,17.4770508 C124.129883,15.4267578 125.240723,14.0366211 126.999023,14.0366211 C127.95752,14.0366211 128.801758,14.5063477 129.195312,15.2426758 L129.296875,15.2426758 L129.296875,14.1572266 L130.337891,14.1572266 L130.337891,21.1206055 C130.337891,22.6503906 129.157227,23.6279297 127.291016,23.6279297 Z M135.206543,21.1206055 C133.257812,21.1206055 132.051758,19.7749023 132.051758,17.5786133 C132.051758,15.3759766 133.257812,14.0366211 135.206543,14.0366211 C137.155273,14.0366211 138.361328,15.3759766 138.361328,17.5786133 C138.361328,19.7749023 137.155273,21.1206055 135.206543,21.1206055 Z M135.206543,20.1367188 C136.501465,20.1367188 137.231445,19.1972656 137.231445,17.5786133 C137.231445,15.9536133 136.501465,15.0205078 135.206543,15.0205078 C133.911621,15.0205078 133.181641,15.9536133 133.181641,17.5786133 C133.181641,19.1972656 133.911621,20.1367188 135.206543,20.1367188 Z M142.804688,15.0014648 C141.712891,15.0014648 140.951172,15.8012695 140.868652,17.0136719 L144.63916,17.0136719 C144.61377,15.8012695 143.890137,15.0014648 142.804688,15.0014648 Z M144.607422,19.2290039 L145.699219,19.2290039 C145.369141,20.4033203 144.31543,21.1206055 142.817383,21.1206055 C140.919434,21.1206055 139.732422,19.7495117 139.732422,17.5849609 C139.732422,15.4331055 140.938477,14.0366211 142.817383,14.0366211 C144.664551,14.0366211 145.788086,15.3505859 145.788086,17.4770508 L145.788086,17.8959961 L140.868652,17.8959961 L140.868652,17.9467773 C140.925781,19.2988281 141.681152,20.1557617 142.842773,20.1557617 C143.725098,20.1557617 144.321777,19.8320312 144.607422,19.2290039 Z M147.343262,16.0297852 C147.343262,17.0200195 147.927246,17.5722656 149.209473,17.8833008 L150.383789,18.1689453 C151.11377,18.3466797 151.469238,18.6640625 151.469238,19.1337891 C151.469238,19.762207 150.809082,20.2001953 149.888672,20.2001953 C149.012695,20.2001953 148.466797,19.8320312 148.282715,19.2543945 L147.15918,19.2543945 C147.279785,20.390625 148.327148,21.1206055 149.850586,21.1206055 C151.405762,21.1206055 152.592773,20.2763672 152.592773,19.0512695 C152.592773,18.0673828 151.970703,17.5087891 150.682129,17.1977539 L149.628418,16.9438477 C148.822266,16.7470703 148.441406,16.4550781 148.441406,15.9853516 C148.441406,15.3759766 149.076172,14.9633789 149.888672,14.9633789 C150.713867,14.9633789 151.24707,15.3251953 151.393066,15.8710938 L152.472168,15.8710938 C152.326172,14.7475586 151.32959,14.0366211 149.89502,14.0366211 C148.441406,14.0366211 147.343262,14.8935547 147.343262,16.0297852 Z M158.039062,21 L159.130859,21 L159.130859,16.9501953 C159.130859,15.7949219 159.803711,15.0205078 161.028809,15.0205078 C162.063477,15.0205078 162.609375,15.6235352 162.609375,16.8359375 L162.609375,21 L163.701172,21 L163.701172,16.5693359 C163.701172,14.9633789 162.787109,14.0366211 161.339844,14.0366211 C160.29248,14.0366211 159.575195,14.480957 159.232422,15.2363281 L159.130859,15.2363281 L159.130859,11.4404297 L158.039062,11.4404297 L158.039062,21 Z M168.423828,15.0014648 C167.332031,15.0014648 166.570312,15.8012695 166.487793,17.0136719 L170.258301,17.0136719 C170.23291,15.8012695 169.509277,15.0014648 168.423828,15.0014648 Z M170.226562,19.2290039 L171.318359,19.2290039 C170.988281,20.4033203 169.93457,21.1206055 168.436523,21.1206055 C166.538574,21.1206055 165.351562,19.7495117 165.351562,17.5849609 C165.351562,15.4331055 166.557617,14.0366211 168.436523,14.0366211 C170.283691,14.0366211 171.407227,15.3505859 171.407227,17.4770508 L171.407227,17.8959961 L166.487793,17.8959961 L166.487793,17.9467773 C166.544922,19.2988281 167.300293,20.1557617 168.461914,20.1557617 C169.344238,20.1557617 169.940918,19.8320312 170.226562,19.2290039 Z M173.121094,21 L174.212891,21 L174.212891,16.7597656 C174.212891,15.7949219 174.968262,15.0966797 176.009277,15.0966797 C176.225098,15.0966797 176.618652,15.1347656 176.70752,15.1601562 L176.70752,14.0683594 C176.567871,14.0493164 176.339355,14.0366211 176.161621,14.0366211 C175.253906,14.0366211 174.466797,14.5063477 174.263672,15.1728516 L174.162109,15.1728516 L174.162109,14.1572266 L173.121094,14.1572266 L173.121094,21 Z M180.611328,15.0014648 C179.519531,15.0014648 178.757812,15.8012695 178.675293,17.0136719 L182.445801,17.0136719 C182.42041,15.8012695 181.696777,15.0014648 180.611328,15.0014648 Z M182.414062,19.2290039 L183.505859,19.2290039 C183.175781,20.4033203 182.12207,21.1206055 180.624023,21.1206055 C178.726074,21.1206055 177.539062,19.7495117 177.539062,17.5849609 C177.539062,15.4331055 178.745117,14.0366211 180.624023,14.0366211 C182.471191,14.0366211 183.594727,15.3505859 183.594727,17.4770508 L183.594727,17.8959961 L178.675293,17.8959961 L178.675293,17.9467773 C178.732422,19.2988281 179.487793,20.1557617 180.649414,20.1557617 C181.531738,20.1557617 182.128418,19.8320312 182.414062,19.2290039 Z"/>
        <g transform="translate(193 4)">
          <mask id="sizes-one-line-g" fill="#fff">
            <use xlink:href="#sizes-one-line-f"/>
          </mask>
          <use fill="#0060DF" xlink:href="#sizes-one-line-f"/>
          <path fill="#FFF" d="M14.6268557,16 L13.9298831,13.8919434 L10.8963382,13.8919434 L10.1879398,16 L8.69687536,16 L11.6218753,7.75629896 L13.2786136,7.75629896 L16.2093264,16 L14.6268557,16 Z M12.370264,9.32734386 L11.2391117,12.7265137 L13.5871097,12.7265137 L12.4673831,9.32734386 L12.370264,9.32734386 Z M20.6825197,16.2056641 C22.5849122,16.2056641 23.9788575,15.0687988 24.1730958,13.3834961 L22.7220216,13.3834961 C22.5220705,14.3089844 21.7279787,14.8916992 20.6825197,14.8916992 C19.2771486,14.8916992 18.4030764,13.7376953 18.4030764,11.875293 C18.4030764,10.0186036 19.2771486,8.86459973 20.6768068,8.86459973 C21.7165529,8.86459973 22.5106447,9.50444347 22.7163087,10.4927735 L24.1673829,10.4927735 C23.9959962,8.77319348 22.5506349,7.5506349 20.6768068,7.5506349 C18.3402346,7.5506349 16.8948733,9.20166027 16.8948733,11.8810059 C16.8948733,14.5489258 18.3459475,16.2056641 20.6825197,16.2056641 Z M29.120459,16 L29.120459,9.03027355 L31.6626953,9.03027355 L31.6626953,7.75629896 L25.1100099,7.75629896 L25.1100099,9.03027355 L27.6465333,9.03027355 L27.6465333,16 L29.120459,16 Z M34.6791015,16 L34.6791015,7.75629896 L33.2051757,7.75629896 L33.2051757,16 L34.6791015,16 Z M40.2720213,7.5506349 C42.6657225,7.5506349 44.1624998,9.21308605 44.1624998,11.875293 C44.1624998,14.5317871 42.6771482,16.2056641 40.2720213,16.2056641 C37.8497557,16.2056641 36.3644042,14.5375 36.3644042,11.875293 C36.3644042,9.21308605 37.8783202,7.5506349 40.2720213,7.5506349 Z M40.2720213,8.85888684 C38.8038085,8.85888684 37.8726073,10.0300294 37.8726073,11.875293 C37.8726073,13.7148438 38.7809569,14.8974121 40.2720213,14.8974121 C41.7402342,14.8974121 42.6542967,13.7148438 42.6542967,11.875293 C42.6542967,10.0300294 41.7345213,8.85888684 40.2720213,8.85888684 Z M47.2703122,16 L47.2703122,10.3899415 L47.3674314,10.3899415 L51.4121579,16 L52.6861325,16 L52.6861325,7.75629896 L51.2693356,7.75629896 L51.2693356,13.3606446 L51.1722165,13.3606446 L47.12749,7.75629896 L45.8478025,7.75629896 L45.8478025,16 L47.2703122,16 Z" mask="url(#sizes-one-line-g)"/>
        </g>
      </g>
      <g transform="translate(8 17)">
        <rect width="1" height="5" fill="#F50"/>
        <rect width="1" height="5" x="317" fill="#FF1AD9"/>
        <rect width="318" height="1" y="2" fill="#FF1AD9"/>
      </g>
      <g fill="#FF1AD9" transform="translate(330 26)">
        <rect width="5" height="1"/>
        <rect width="5" height="1" y="31"/>
        <rect width="1" height="32" x="2"/>
      </g>
      <text fill="#440027" font-family="FiraSans-Regular, Fira Sans" font-size="10">
        <tspan x="114.63" y="11">Varies based on parent</tspan>
      </text>
      <path fill="#440027" d="M345.628992,37 L347.828992,30.11 L346.868992,30.11 L345.138992,35.97 L343.408992,30.11 L342.388992,30.11 L344.608992,37 L345.628992,37 Z M351.988992,35.77 C351.988992,36.23 352.158992,36.38 352.428992,36.48 L352.218992,37.12 C351.688992,37.06 351.348992,36.85 351.188992,36.33 C350.818992,36.88 350.258992,37.12 349.618992,37.12 C348.568992,37.12 347.938992,36.47 347.938992,35.53 C347.938992,34.4 348.788992,33.79 350.258992,33.79 L351.068992,33.79 L351.068992,33.4 C351.068992,32.64 350.698992,32.36 349.968992,32.36 C349.578992,32.36 349.088992,32.46 348.548992,32.64 L348.318992,31.97 C348.968992,31.73 349.548992,31.61 350.138992,31.61 C351.408992,31.61 351.988992,32.26 351.988992,33.36 L351.988992,35.77 Z M349.828992,36.43 C350.368992,36.43 350.768992,36.16 351.068992,35.61 L351.068992,34.4 L350.378992,34.4 C349.408992,34.4 348.918992,34.76 348.918992,35.48 C348.918992,36.1 349.228992,36.43 349.828992,36.43 Z M356.168992,31.61 C355.528992,31.61 355.038992,32.01 354.758992,32.8 L354.668992,31.73 L353.878992,31.73 L353.878992,37 L354.798992,37 L354.798992,33.99 C355.018992,32.98 355.398992,32.51 356.058992,32.51 C356.248992,32.51 356.358992,32.53 356.518992,32.57 L356.688992,31.67 C356.528992,31.63 356.338992,31.61 356.168992,31.61 Z M358.188992,29.2 C357.808992,29.2 357.548992,29.47 357.548992,29.83 C357.548992,30.18 357.808992,30.45 358.188992,30.45 C358.578992,30.45 358.838992,30.18 358.838992,29.83 C358.838992,29.47 358.578992,29.2 358.188992,29.2 Z M358.658992,37 L358.658992,31.73 L357.738992,31.73 L357.738992,37 L358.658992,37 Z M364.538992,34.21 C364.538992,34.39 364.528992,34.56 364.518992,34.68 L361.158992,34.68 C361.248992,35.9 361.818992,36.37 362.578992,36.37 C363.098992,36.37 363.488992,36.23 363.948992,35.91 L364.348992,36.46 C363.828992,36.87 363.238992,37.12 362.508992,37.12 C361.038992,37.12 360.178992,36.09 360.178992,34.42 C360.178992,32.78 361.008992,31.61 362.368992,31.61 C363.788992,31.61 364.538992,32.6 364.538992,34.21 Z M363.628992,34 L363.628992,33.94 C363.628992,32.91 363.218992,32.34 362.388992,32.34 C361.688992,32.34 361.228992,32.83 361.158992,34 L363.628992,34 Z M367.488992,31.61 C366.398992,31.61 365.588992,32.22 365.588992,33.05 C365.588992,33.8 366.038992,34.29 367.178992,34.59 C368.198992,34.86 368.458992,35.06 368.458992,35.61 C368.458992,36.07 368.018992,36.38 367.328992,36.38 C366.758992,36.38 366.268992,36.19 365.868992,35.85 L365.358992,36.43 C365.818992,36.83 366.458992,37.12 367.348992,37.12 C368.418992,37.12 369.428992,36.62 369.428992,35.52 C369.428992,34.6 368.788992,34.16 367.678992,33.88 C366.828992,33.66 366.548992,33.46 366.548992,33.03 C366.548992,32.61 366.918992,32.34 367.518992,32.34 C368.008992,32.34 368.418992,32.49 368.878992,32.82 L369.278992,32.21 C368.778992,31.83 368.228992,31.61 367.488992,31.61 Z M375.788992,31.61 C376.978992,31.61 377.748992,32.6 377.748992,34.36 C377.748992,36.01 376.958992,37.12 375.678992,37.12 C375.098992,37.12 374.638992,36.86 374.278992,36.42 L374.188992,37 L373.378992,37 L373.378992,29.61 L374.298992,29.5 L374.298992,32.39 C374.658992,31.9 375.148992,31.61 375.788992,31.61 Z M375.458992,36.39 C376.228992,36.39 376.758992,35.8 376.758992,34.36 C376.758992,32.86 376.268992,32.34 375.528992,32.34 C374.948992,32.34 374.568992,32.74 374.298992,33.16 L374.298992,35.68 C374.568992,36.1 374.988992,36.39 375.458992,36.39 Z M382.868992,35.77 C382.868992,36.23 383.038992,36.38 383.308992,36.48 L383.098992,37.12 C382.568992,37.06 382.228992,36.85 382.068992,36.33 C381.698992,36.88 381.138992,37.12 380.498992,37.12 C379.448992,37.12 378.818992,36.47 378.818992,35.53 C378.818992,34.4 379.668992,33.79 381.138992,33.79 L381.948992,33.79 L381.948992,33.4 C381.948992,32.64 381.578992,32.36 380.848992,32.36 C380.458992,32.36 379.968992,32.46 379.428992,32.64 L379.198992,31.97 C379.848992,31.73 380.428992,31.61 381.018992,31.61 C382.288992,31.61 382.868992,32.26 382.868992,33.36 L382.868992,35.77 Z M380.708992,36.43 C381.248992,36.43 381.648992,36.16 381.948992,35.61 L381.948992,34.4 L381.258992,34.4 C380.288992,34.4 379.798992,34.76 379.798992,35.48 C379.798992,36.1 380.108992,36.43 380.708992,36.43 Z M386.188992,31.61 C385.098992,31.61 384.288992,32.22 384.288992,33.05 C384.288992,33.8 384.738992,34.29 385.878992,34.59 C386.898992,34.86 387.158992,35.06 387.158992,35.61 C387.158992,36.07 386.718992,36.38 386.028992,36.38 C385.458992,36.38 384.968992,36.19 384.568992,35.85 L384.058992,36.43 C384.518992,36.83 385.158992,37.12 386.048992,37.12 C387.118992,37.12 388.128992,36.62 388.128992,35.52 C388.128992,34.6 387.488992,34.16 386.378992,33.88 C385.528992,33.66 385.248992,33.46 385.248992,33.03 C385.248992,32.61 385.618992,32.34 386.218992,32.34 C386.708992,32.34 387.118992,32.49 387.578992,32.82 L387.978992,32.21 C387.478992,31.83 386.928992,31.61 386.188992,31.61 Z M393.408992,34.21 C393.408992,34.39 393.398992,34.56 393.388992,34.68 L390.028992,34.68 C390.118992,35.9 390.688992,36.37 391.448992,36.37 C391.968992,36.37 392.358992,36.23 392.818992,35.91 L393.218992,36.46 C392.698992,36.87 392.108992,37.12 391.378992,37.12 C389.908992,37.12 389.048992,36.09 389.048992,34.42 C389.048992,32.78 389.878992,31.61 391.238992,31.61 C392.658992,31.61 393.408992,32.6 393.408992,34.21 Z M392.498992,34 L392.498992,33.94 C392.498992,32.91 392.088992,32.34 391.258992,32.34 C390.558992,32.34 390.098992,32.83 390.028992,34 L392.498992,34 Z M399.008992,29.61 L399.008992,37 L398.198992,37 L398.108992,36.27 C397.768992,36.8 397.238992,37.12 396.588992,37.12 C395.308992,37.12 394.598992,36.03 394.598992,34.39 C394.598992,32.78 395.378992,31.61 396.668992,31.61 C397.288992,31.61 397.738992,31.89 398.088992,32.26 L398.088992,29.5 L399.008992,29.61 Z M396.788992,36.39 C397.378992,36.39 397.738992,36.1 398.088992,35.61 L398.088992,33.03 C397.758992,32.61 397.388992,32.34 396.868992,32.34 C396.078992,32.34 395.588992,33 395.588992,34.37 C395.588992,35.76 396.028992,36.39 396.788992,36.39 Z M340.658992,46.61 C342.158992,46.61 342.998992,47.69 342.998992,49.36 C342.998992,50.99 342.138992,52.12 340.648992,52.12 C339.148992,52.12 338.298992,51.04 338.298992,49.37 C338.298992,47.74 339.158992,46.61 340.658992,46.61 Z M340.658992,47.35 C339.778992,47.35 339.288992,47.99 339.288992,49.37 C339.288992,50.74 339.768992,51.38 340.648992,51.38 C341.528992,51.38 342.008992,50.74 342.008992,49.36 C342.008992,47.99 341.528992,47.35 340.658992,47.35 Z M346.998992,46.61 C346.308992,46.61 345.748992,46.97 345.388992,47.51 L345.308992,46.73 L344.518992,46.73 L344.518992,52 L345.438992,52 L345.438992,48.26 C345.788992,47.7 346.188992,47.33 346.778992,47.33 C347.288992,47.33 347.608992,47.56 347.608992,48.35 L347.608992,52 L348.528992,52 L348.528992,48.22 C348.528992,47.22 347.968992,46.61 346.998992,46.61 Z M355.688992,51.76 L355.338992,51.13 C355.078992,51.29 354.868992,51.36 354.638992,51.36 C354.178992,51.36 354.008992,51.11 354.008992,50.58 L354.008992,47.44 L355.158992,47.44 L355.258992,46.73 L354.008992,46.73 L354.008992,45.43 L353.088992,45.54 L353.088992,46.73 L352.168992,46.73 L352.168992,47.44 L353.088992,47.44 L353.088992,50.62 C353.088992,51.6 353.618992,52.12 354.508992,52.12 C354.958992,52.12 355.338992,52 355.688992,51.76 Z M359.118992,46.61 C358.458992,46.61 357.938992,46.94 357.558992,47.46 L357.558992,44.52 L356.638992,44.62 L356.638992,52 L357.558992,52 L357.558992,48.25 C357.908992,47.7 358.318992,47.33 358.888992,47.33 C359.388992,47.33 359.728992,47.56 359.728992,48.35 L359.728992,52 L360.648992,52 L360.648992,48.22 C360.648992,47.23 360.078992,46.61 359.118992,46.61 Z M366.478992,49.21 C366.478992,49.39 366.468992,49.56 366.458992,49.68 L363.098992,49.68 C363.188992,50.9 363.758992,51.37 364.518992,51.37 C365.038992,51.37 365.428992,51.23 365.888992,50.91 L366.288992,51.46 C365.768992,51.87 365.178992,52.12 364.448992,52.12 C362.978992,52.12 362.118992,51.09 362.118992,49.42 C362.118992,47.78 362.948992,46.61 364.308992,46.61 C365.728992,46.61 366.478992,47.6 366.478992,49.21 Z M365.568992,49 L365.568992,48.94 C365.568992,47.91 365.158992,47.34 364.328992,47.34 C363.628992,47.34 363.168992,47.83 363.098992,49 L365.568992,49 Z M372.568992,46.61 C371.138992,46.61 370.268992,47.73 370.268992,49.41 C370.268992,51.11 371.148992,52.12 372.568992,52.12 C373.178992,52.12 373.708992,51.92 374.178992,51.54 L373.738992,50.91 C373.358992,51.2 373.048992,51.34 372.608992,51.34 C371.778992,51.34 371.258992,50.77 371.258992,49.39 C371.258992,48.02 371.778992,47.37 372.608992,47.37 C373.048992,47.37 373.378992,47.5 373.728992,47.78 L374.178992,47.18 C373.688992,46.77 373.188992,46.61 372.568992,46.61 Z M377.308992,46.61 C378.808992,46.61 379.648992,47.69 379.648992,49.36 C379.648992,50.99 378.788992,52.12 377.298992,52.12 C375.798992,52.12 374.948992,51.04 374.948992,49.37 C374.948992,47.74 375.808992,46.61 377.308992,46.61 Z M377.308992,47.35 C376.428992,47.35 375.938992,47.99 375.938992,49.37 C375.938992,50.74 376.418992,51.38 377.298992,51.38 C378.178992,51.38 378.658992,50.74 378.658992,49.36 C378.658992,47.99 378.178992,47.35 377.308992,47.35 Z M383.648992,46.61 C382.958992,46.61 382.398992,46.97 382.038992,47.51 L381.958992,46.73 L381.168992,46.73 L381.168992,52 L382.088992,52 L382.088992,48.26 C382.438992,47.7 382.838992,47.33 383.428992,47.33 C383.938992,47.33 384.258992,47.56 384.258992,48.35 L384.258992,52 L385.178992,52 L385.178992,48.22 C385.178992,47.22 384.618992,46.61 383.648992,46.61 Z M389.688992,51.76 L389.338992,51.13 C389.078992,51.29 388.868992,51.36 388.638992,51.36 C388.178992,51.36 388.008992,51.11 388.008992,50.58 L388.008992,47.44 L389.158992,47.44 L389.258992,46.73 L388.008992,46.73 L388.008992,45.43 L387.088992,45.54 L387.088992,46.73 L386.168992,46.73 L386.168992,47.44 L387.088992,47.44 L387.088992,50.62 C387.088992,51.6 387.618992,52.12 388.508992,52.12 C388.958992,52.12 389.338992,52 389.688992,51.76 Z M394.518992,49.21 C394.518992,49.39 394.508992,49.56 394.498992,49.68 L391.138992,49.68 C391.228992,50.9 391.798992,51.37 392.558992,51.37 C393.078992,51.37 393.468992,51.23 393.928992,50.91 L394.328992,51.46 C393.808992,51.87 393.218992,52.12 392.488992,52.12 C391.018992,52.12 390.158992,51.09 390.158992,49.42 C390.158992,47.78 390.988992,46.61 392.348992,46.61 C393.768992,46.61 394.518992,47.6 394.518992,49.21 Z M393.608992,49 L393.608992,48.94 C393.608992,47.91 393.198992,47.34 392.368992,47.34 C391.668992,47.34 391.208992,47.83 391.138992,49 L393.608992,49 Z M398.518992,46.61 C397.828992,46.61 397.268992,46.97 396.908992,47.51 L396.828992,46.73 L396.038992,46.73 L396.038992,52 L396.958992,52 L396.958992,48.26 C397.308992,47.7 397.708992,47.33 398.298992,47.33 C398.808992,47.33 399.128992,47.56 399.128992,48.35 L399.128992,52 L400.048992,52 L400.048992,48.22 C400.048992,47.22 399.488992,46.61 398.518992,46.61 Z M404.558992,51.76 L404.208992,51.13 C403.948992,51.29 403.738992,51.36 403.508992,51.36 C403.048992,51.36 402.878992,51.11 402.878992,50.58 L402.878992,47.44 L404.028992,47.44 L404.128992,46.73 L402.878992,46.73 L402.878992,45.43 L401.958992,45.54 L401.958992,46.73 L401.038992,46.73 L401.038992,47.44 L401.958992,47.44 L401.958992,50.62 C401.958992,51.6 402.488992,52.12 403.378992,52.12 C403.828992,52.12 404.208992,52 404.558992,51.76 Z"/>
      <g transform="translate(28 26)">
        <rect width="1" height="32" x="8" fill="#00FEFF" fill-opacity=".5"/>
        <rect width="1" height="32" x="11" fill="#00FEFF" fill-opacity=".5"/>
        <rect width="4" height="1" x="8" y="29" fill="#00FEFF" fill-opacity=".5"/>
        <path fill="#00FEFF" fill-opacity=".5" d="M14,36 L10,32 L6,36 L2,36 L2,36 C0.8954305,36 -1.3527075e-16,36.8954305 -5.91645679e-31,38 L-5.91645679e-31,56 C1.3527075e-16,57.1045695 0.8954305,58 2,58 L27,58 C28.1045695,58 29,57.1045695 29,56 L29,38 C29,36.8954305 28.1045695,36 27,36 L14,36 Z"/>
        <text fill="#002D3E" font-family="FiraSans-Regular, Fira Sans" font-size="10">
          <tspan x="6.545" y="51">4px</tspan>
        </text>
      </g>
      <g transform="translate(0 26)">
        <rect width="1" height="32" x="8" fill="#00FEFF" fill-opacity=".5"/>
        <rect width="1" height="32" x="11" fill="#00FEFF" fill-opacity=".5"/>
        <rect width="4" height="1" x="8" y="29" fill="#00FEFF" fill-opacity=".5"/>
        <path fill="#00FEFF" fill-opacity=".5" d="M14,36 L10,32 L6,36 L2,36 L2,36 C0.8954305,36 -1.3527075e-16,36.8954305 -5.91645679e-31,38 L-5.91645679e-31,56 C1.3527075e-16,57.1045695 0.8954305,58 2,58 L27,58 C28.1045695,58 29,57.1045695 29,56 L29,38 C29,36.8954305 28.1045695,36 27,36 L14,36 Z"/>
        <text fill="#002D3E" font-family="FiraSans-Regular, Fira Sans" font-size="10">
          <tspan x="6.545" y="51">4px</tspan>
        </text>
      </g>
      <g transform="translate(314 26)">
        <rect width="1" height="32" x="8" fill="#00FEFF" fill-opacity=".5"/>
        <rect width="1" height="32" x="11" fill="#00FEFF" fill-opacity=".5"/>
        <rect width="4" height="1" x="8" y="29" fill="#00FEFF" fill-opacity=".5"/>
        <path fill="#00FEFF" fill-opacity=".5" d="M14,36 L10,32 L6,36 L2,36 L2,36 C0.8954305,36 -1.3527075e-16,36.8954305 -5.91645679e-31,38 L-5.91645679e-31,56 C1.3527075e-16,57.1045695 0.8954305,58 2,58 L27,58 C28.1045695,58 29,57.1045695 29,56 L29,38 C29,36.8954305 28.1045695,36 27,36 L14,36 Z"/>
        <text fill="#002D3E" font-family="FiraSans-Regular, Fira Sans" font-size="10">
          <tspan x="6.545" y="51">4px</tspan>
        </text>
      </g>
      <g transform="translate(265 48)">
        <rect width="1" height="5" fill="#00FEFF" fill-opacity=".5"/>
        <rect width="1" height="5" x="32" fill="#00FEFF" fill-opacity=".5"/>
        <rect width="33" height="1" y="2" fill="#00FEFF" fill-opacity=".5"/>
        <text fill="#002D3E" font-family="FiraSans-Regular, Fira Sans" font-size="10">
          <tspan x="2.775" y="24">Varies</tspan>
        </text>
      </g>
      <g transform="translate(36 25)">
        <rect width="1" height="32.027" x="157" y=".973" fill="#00FEFF" fill-opacity=".5"/>
        <rect width="1" height="32.027" x="164" y=".973" fill="#00FEFF" fill-opacity=".5"/>
        <rect width="8" height="1" x="157" y="30" fill="#00FEFF" fill-opacity=".5"/>
        <path fill="#00FEFF" fill-opacity=".5" d="M165,37 L161,33 L157,37 L148,37 L148,37 C146.895431,37 146,37.8954305 146,39 L146,57 C146,58.1045695 146.895431,59 148,59 L173,59 C174.104569,59 175,58.1045695 175,57 L175,39 C175,37.8954305 174.104569,37 173,37 L165,37 Z"/>
        <rect width="7" height="32" x="157" y="1" fill="#00FEFF" fill-opacity=".2"/>
        <rect width="32.61" height="32" x="229" y="1" fill="#00FEFF" fill-opacity=".2"/>
        <rect width="3.381" height="32" y="1" fill="#00FEFF" fill-opacity=".2"/>
        <text fill="#002D3E" font-family="FiraSans-Regular, Fira Sans" font-size="10">
          <tspan x="147.875" y="52">4px*2</tspan>
        </text>
      </g>
    </g>
  </g>
</svg>
