<svg xmlns="http://www.w3.org/2000/svg" xmlns:xlink="http://www.w3.org/1999/xlink" width="350" height="180" viewBox="0 0 350 180">
  <defs>
    <path id="success-a" d="M3.99375545,11.9989024 C3.72815873,11.9988457 3.47346086,11.8933935 3.28568398,11.7057404 L0.281137443,8.70408197 C-0.0984091032,8.31148617 -0.0929810538,7.68743549 0.293337329,7.30148846 C0.679655711,6.91554142 1.30430684,6.91011859 1.69728038,7.2893003 L3.85754934,9.44749271 L10.1831213,0.419504703 C10.5022164,-0.0272991976 11.1220373,-0.13387488 11.5722906,0.180642683 C12.0225439,0.495160246 12.1351219,1.11334196 11.8246052,1.56613822 L4.81399665,11.5716663 C4.645093,11.8155968 4.376564,11.9720882 4.0808873,11.9989024 C4.05186182,12.0003659 4.02278092,12.0003659 3.99375545,11.9989024 Z"/>
  </defs>
  <g fill="none" fill-rule="evenodd">
    <rect width="350" height="180" fill="none"/>
    <g transform="translate(15 74)">
      <rect width="320" height="32" fill="#30E60B" rx="3"/>
      <path fill="#003706" d="M4.39257812,10 L4.39257812,6.05810547 L7.64257812,0.840332031 L6.34130859,0.840332031 L3.87207031,4.90917969 L3.77050781,4.90917969 L1.30126953,0.840332031 L0,0.840332031 L3.25,6.05810547 L3.25,10 L4.39257812,10 Z M10.8481445,10.1206055 C8.89941406,10.1206055 7.69335937,8.77490234 7.69335937,6.57861328 C7.69335937,4.37597656 8.89941406,3.03662109 10.8481445,3.03662109 C12.796875,3.03662109 14.0029297,4.37597656 14.0029297,6.57861328 C14.0029297,8.77490234 12.796875,10.1206055 10.8481445,10.1206055 Z M10.8481445,9.13671875 C12.1430664,9.13671875 12.8730469,8.19726562 12.8730469,6.57861328 C12.8730469,4.95361328 12.1430664,4.02050781 10.8481445,4.02050781 C9.55322266,4.02050781 8.82324219,4.95361328 8.82324219,6.57861328 C8.82324219,8.19726562 9.55322266,9.13671875 10.8481445,9.13671875 Z M21.2519531,3.15722656 L20.1601563,3.15722656 L20.1601563,7.20703125 C20.1601563,8.40673828 19.5,9.12402344 18.2939453,9.12402344 C17.2021484,9.12402344 16.7451172,8.55273438 16.7451172,7.32128906 L16.7451172,3.15722656 L15.6533203,3.15722656 L15.6533203,7.58789062 C15.6533203,9.20654297 16.453125,10.1206055 17.9892578,10.1206055 C19.0366211,10.1206055 19.7666016,9.68896484 20.109375,8.92724609 L20.2109375,8.92724609 L20.2109375,10 L21.2519531,10 L21.2519531,3.15722656 Z M27.0410156,10 L28.1328125,10 L28.1328125,5.95019531 C28.1328125,4.79492188 28.8056641,4.02050781 30.0307617,4.02050781 C31.0654297,4.02050781 31.6113281,4.62353516 31.6113281,5.8359375 L31.6113281,10 L32.703125,10 L32.703125,5.56933594 C32.703125,3.96337891 31.7890625,3.03662109 30.3417969,3.03662109 C29.2944336,3.03662109 28.5771484,3.48095703 28.234375,4.23632812 L28.1328125,4.23632812 L28.1328125,0.440429688 L27.0410156,0.440429688 L27.0410156,10 Z M36.8037109,9.16210938 C37.9272461,9.16210938 38.7587891,8.42578125 38.7587891,7.44824219 L38.7587891,6.81982422 L36.9179688,6.94042969 C35.8769531,7.01025391 35.4199219,7.37207031 35.4199219,8.05761719 C35.4199219,8.75585938 36.0102539,9.16210938 36.8037109,9.16210938 Z M36.6005859,10.1206055 C35.2739258,10.1206055 34.2900391,9.33349609 34.2900391,8.08300781 C34.2900391,6.85791016 35.1914062,6.15332031 36.784668,6.05810547 L38.7587891,5.9375 L38.7587891,5.31542969 C38.7587891,4.47119141 38.2319336,4.0078125 37.2099609,4.0078125 C36.3911133,4.0078125 35.8198242,4.31884766 35.6674805,4.85839844 L34.5629883,4.85839844 C34.7089844,3.76025391 35.7880859,3.03662109 37.2480469,3.03662109 C38.9174805,3.03662109 39.8505859,3.89355469 39.8505859,5.31542969 L39.8505859,10 L38.8095703,10 L38.8095703,8.99072266 L38.7080078,8.99072266 C38.2636719,9.72070312 37.5146484,10.1206055 36.6005859,10.1206055 Z M47.2011719,3.15722656 L46.0332031,3.15722656 L44.1606445,8.79394531 L44.059082,8.79394531 L42.1865234,3.15722656 L41.0185547,3.15722656 L43.5512695,10 L44.668457,10 L47.2011719,3.15722656 Z M51.1367187,4.00146484 C50.0449219,4.00146484 49.2832031,4.80126953 49.2006836,6.01367188 L52.9711914,6.01367188 C52.9458008,4.80126953 52.222168,4.00146484 51.1367187,4.00146484 Z M52.9394531,8.22900391 L54.03125,8.22900391 C53.7011719,9.40332031 52.6474609,10.1206055 51.1494141,10.1206055 C49.2514648,10.1206055 48.0644531,8.74951172 48.0644531,6.58496094 C48.0644531,4.43310547 49.2705078,3.03662109 51.1494141,3.03662109 C52.996582,3.03662109 54.1201172,4.35058594 54.1201172,6.47705078 L54.1201172,6.89599609 L49.2006836,6.89599609 L49.2006836,6.94677734 C49.2578125,8.29882812 50.0131836,9.15576172 51.1748047,9.15576172 C52.0571289,9.15576172 52.6538086,8.83203125 52.9394531,8.22900391 Z M61.6103516,9.16210938 C62.7338867,9.16210938 63.5654297,8.42578125 63.5654297,7.44824219 L63.5654297,6.81982422 L61.7246094,6.94042969 C60.6835937,7.01025391 60.2265625,7.37207031 60.2265625,8.05761719 C60.2265625,8.75585938 60.8168945,9.16210938 61.6103516,9.16210938 Z M61.4072266,10.1206055 C60.0805664,10.1206055 59.0966797,9.33349609 59.0966797,8.08300781 C59.0966797,6.85791016 59.9980469,6.15332031 61.5913086,6.05810547 L63.5654297,5.9375 L63.5654297,5.31542969 C63.5654297,4.47119141 63.0385742,4.0078125 62.0166016,4.0078125 C61.1977539,4.0078125 60.6264648,4.31884766 60.4741211,4.85839844 L59.3696289,4.85839844 C59.515625,3.76025391 60.5947266,3.03662109 62.0546875,3.03662109 C63.7241211,3.03662109 64.6572266,3.89355469 64.6572266,5.31542969 L64.6572266,10 L63.6162109,10 L63.6162109,8.99072266 L63.5146484,8.99072266 C63.0703125,9.72070312 62.3212891,10.1206055 61.4072266,10.1206055 Z M70.3447266,10 L71.4365234,10 L71.4365234,5.95019531 C71.4365234,4.75048828 72.1411133,4.02050781 73.2329102,4.02050781 C74.324707,4.02050781 74.8452148,4.60449219 74.8452148,5.8359375 L74.8452148,10 L75.9370117,10 L75.9370117,5.56933594 C75.9370117,3.94433594 75.0800781,3.03662109 73.5439453,3.03662109 C72.496582,3.03662109 71.8300781,3.48095703 71.4873047,4.23632812 L71.3857422,4.23632812 L71.3857422,3.15722656 L70.3447266,3.15722656 L70.3447266,10 Z M80.659668,4.00146484 C79.5678711,4.00146484 78.8061523,4.80126953 78.7236328,6.01367188 L82.4941406,6.01367188 C82.46875,4.80126953 81.7451172,4.00146484 80.659668,4.00146484 Z M82.4624023,8.22900391 L83.5541992,8.22900391 C83.2241211,9.40332031 82.1704102,10.1206055 80.6723633,10.1206055 C78.7744141,10.1206055 77.5874023,8.74951172 77.5874023,6.58496094 C77.5874023,4.43310547 78.793457,3.03662109 80.6723633,3.03662109 C82.5195312,3.03662109 83.6430664,4.35058594 83.6430664,6.47705078 L83.6430664,6.89599609 L78.7236328,6.89599609 L78.7236328,6.94677734 C78.7807617,8.29882812 79.5361328,9.15576172 80.6977539,9.15576172 C81.5800781,9.15576172 82.1767578,8.83203125 82.4624023,8.22900391 Z M93.9643555,3.15722656 L92.8662109,3.15722656 L91.5205078,8.62890625 L91.4189453,8.62890625 L89.8891602,3.15722656 L88.8417969,3.15722656 L87.3120117,8.62890625 L87.2104492,8.62890625 L85.8647461,3.15722656 L84.7602539,3.15722656 L86.6772461,10 L87.7817383,10 L89.3051758,4.70605469 L89.4067383,4.70605469 L90.9365234,10 L92.0473633,10 L93.9643555,3.15722656 Z M104.679199,3.15722656 L103.51123,3.15722656 L101.638672,8.79394531 L101.537109,8.79394531 L99.6645508,3.15722656 L98.496582,3.15722656 L101.029297,10 L102.146484,10 L104.679199,3.15722656 Z M108.614746,4.00146484 C107.522949,4.00146484 106.76123,4.80126953 106.678711,6.01367188 L110.449219,6.01367188 C110.423828,4.80126953 109.700195,4.00146484 108.614746,4.00146484 Z M110.41748,8.22900391 L111.509277,8.22900391 C111.179199,9.40332031 110.125488,10.1206055 108.627441,10.1206055 C106.729492,10.1206055 105.54248,8.74951172 105.54248,6.58496094 C105.54248,4.43310547 106.748535,3.03662109 108.627441,3.03662109 C110.474609,3.03662109 111.598145,4.35058594 111.598145,6.47705078 L111.598145,6.89599609 L106.678711,6.89599609 L106.678711,6.94677734 C106.73584,8.29882812 107.491211,9.15576172 108.652832,9.15576172 C109.535156,9.15576172 110.131836,8.83203125 110.41748,8.22900391 Z M113.312012,10 L114.403809,10 L114.403809,5.75976562 C114.403809,4.79492188 115.15918,4.09667969 116.200195,4.09667969 C116.416016,4.09667969 116.80957,4.13476562 116.898437,4.16015625 L116.898437,3.06835937 C116.758789,3.04931641 116.530273,3.03662109 116.352539,3.03662109 C115.444824,3.03662109 114.657715,3.50634766 114.45459,4.17285156 L114.353027,4.17285156 L114.353027,3.15722656 L113.312012,3.15722656 L113.312012,10 Z M118.415527,10 L119.507324,10 L119.507324,3.15722656 L118.415527,3.15722656 L118.415527,10 Z M118.961426,1.76708984 C119.380371,1.76708984 119.723145,1.42431641 119.723145,1.00537109 C119.723145,0.586425781 119.380371,0.243652344 118.961426,0.243652344 C118.54248,0.243652344 118.199707,0.586425781 118.199707,1.00537109 C118.199707,1.42431641 118.54248,1.76708984 118.961426,1.76708984 Z M122.046387,10 L123.138184,10 L123.138184,4.07128906 L124.706055,4.07128906 L124.706055,3.15722656 L123.138184,3.15722656 L123.138184,2.52246094 C123.138184,1.75439453 123.506348,1.42431641 124.160156,1.42431641 C124.375977,1.42431641 124.623535,1.44970703 124.769531,1.48144531 L124.769531,0.567382812 C124.50293,0.522949219 124.3125,0.50390625 124.09668,0.50390625 C122.776367,0.50390625 122.046387,1.08789062 122.046387,2.49072266 L122.046387,3.15722656 L120.910156,3.15722656 L120.910156,4.07128906 L122.046387,4.07128906 L122.046387,10 Z M126.318359,10 L127.410156,10 L127.410156,3.15722656 L126.318359,3.15722656 L126.318359,10 Z M126.864258,1.76708984 C127.283203,1.76708984 127.625977,1.42431641 127.625977,1.00537109 C127.625977,0.586425781 127.283203,0.243652344 126.864258,0.243652344 C126.445313,0.243652344 126.102539,0.586425781 126.102539,1.00537109 C126.102539,1.42431641 126.445313,1.76708984 126.864258,1.76708984 Z M135.154297,5.25195312 C134.963867,4.03320312 133.948242,3.03662109 132.285156,3.03662109 C130.368164,3.03662109 129.149414,4.42041016 129.149414,6.55322266 C129.149414,8.73046875 130.374512,10.1206055 132.291504,10.1206055 C133.935547,10.1206055 134.95752,9.19384766 135.154297,7.93701172 L134.049805,7.93701172 C133.84668,8.71142578 133.205566,9.13671875 132.285156,9.13671875 C131.066406,9.13671875 130.279297,8.13378906 130.279297,6.55322266 C130.279297,5.00439453 131.053711,4.02050781 132.285156,4.02050781 C133.269043,4.02050781 133.87207,4.57275391 134.049805,5.25195312 L135.154297,5.25195312 Z M138.874023,9.16210938 C139.997559,9.16210938 140.829102,8.42578125 140.829102,7.44824219 L140.829102,6.81982422 L138.988281,6.94042969 C137.947266,7.01025391 137.490234,7.37207031 137.490234,8.05761719 C137.490234,8.75585938 138.080566,9.16210938 138.874023,9.16210938 Z M138.670898,10.1206055 C137.344238,10.1206055 136.360352,9.33349609 136.360352,8.08300781 C136.360352,6.85791016 137.261719,6.15332031 138.85498,6.05810547 L140.829102,5.9375 L140.829102,5.31542969 C140.829102,4.47119141 140.302246,4.0078125 139.280273,4.0078125 C138.461426,4.0078125 137.890137,4.31884766 137.737793,4.85839844 L136.633301,4.85839844 C136.779297,3.76025391 137.858398,3.03662109 139.318359,3.03662109 C140.987793,3.03662109 141.920898,3.89355469 141.920898,5.31542969 L141.920898,10 L140.879883,10 L140.879883,8.99072266 L140.77832,8.99072266 C140.333984,9.72070312 139.584961,10.1206055 138.670898,10.1206055 Z M144.396484,1.38623047 L144.396484,3.15722656 L143.291992,3.15722656 L143.291992,4.07128906 L144.396484,4.07128906 L144.396484,8.22265625 C144.396484,9.53027344 144.961426,10.0507813 146.370605,10.0507813 C146.586426,10.0507813 146.795898,10.0253906 147.011719,9.98730469 L147.011719,9.06689453 C146.808594,9.0859375 146.700684,9.09228516 146.503906,9.09228516 C145.792969,9.09228516 145.488281,8.74951172 145.488281,7.94335938 L145.488281,4.07128906 L147.011719,4.07128906 L147.011719,3.15722656 L145.488281,3.15722656 L145.488281,1.38623047 L144.396484,1.38623047 Z M148.6875,10 L149.779297,10 L149.779297,3.15722656 L148.6875,3.15722656 L148.6875,10 Z M149.233398,1.76708984 C149.652344,1.76708984 149.995117,1.42431641 149.995117,1.00537109 C149.995117,0.586425781 149.652344,0.243652344 149.233398,0.243652344 C148.814453,0.243652344 148.47168,0.586425781 148.47168,1.00537109 C148.47168,1.42431641 148.814453,1.76708984 149.233398,1.76708984 Z M154.67334,10.1206055 C152.724609,10.1206055 151.518555,8.77490234 151.518555,6.57861328 C151.518555,4.37597656 152.724609,3.03662109 154.67334,3.03662109 C156.62207,3.03662109 157.828125,4.37597656 157.828125,6.57861328 C157.828125,8.77490234 156.62207,10.1206055 154.67334,10.1206055 Z M154.67334,9.13671875 C155.968262,9.13671875 156.698242,8.19726562 156.698242,6.57861328 C156.698242,4.95361328 155.968262,4.02050781 154.67334,4.02050781 C153.378418,4.02050781 152.648438,4.95361328 152.648438,6.57861328 C152.648438,8.19726562 153.378418,9.13671875 154.67334,9.13671875 Z M159.541992,10 L160.633789,10 L160.633789,5.95019531 C160.633789,4.75048828 161.338379,4.02050781 162.430176,4.02050781 C163.521973,4.02050781 164.04248,4.60449219 164.04248,5.8359375 L164.04248,10 L165.134277,10 L165.134277,5.56933594 C165.134277,3.94433594 164.277344,3.03662109 162.741211,3.03662109 C161.693848,3.03662109 161.027344,3.48095703 160.68457,4.23632812 L160.583008,4.23632812 L160.583008,3.15722656 L159.541992,3.15722656 L159.541992,10 Z M173.525879,4.00146484 C172.434082,4.00146484 171.672363,4.80126953 171.589844,6.01367188 L175.360352,6.01367188 C175.334961,4.80126953 174.611328,4.00146484 173.525879,4.00146484 Z M175.328613,8.22900391 L176.42041,8.22900391 C176.090332,9.40332031 175.036621,10.1206055 173.538574,10.1206055 C171.640625,10.1206055 170.453613,8.74951172 170.453613,6.58496094 C170.453613,4.43310547 171.659668,3.03662109 173.538574,3.03662109 C175.385742,3.03662109 176.509277,4.35058594 176.509277,6.47705078 L176.509277,6.89599609 L171.589844,6.89599609 L171.589844,6.94677734 C171.646973,8.29882812 172.402344,9.15576172 173.563965,9.15576172 C174.446289,9.15576172 175.042969,8.83203125 175.328613,8.22900391 Z M178.223145,10 L179.314941,10 L179.314941,5.75976562 C179.314941,4.79492188 180.006836,4.02050781 180.901855,4.02050781 C181.765137,4.02050781 182.330078,4.54101562 182.330078,5.35351562 L182.330078,10 L183.421875,10 L183.421875,5.60107422 C183.421875,4.73144531 184.056641,4.02050781 185.008789,4.02050781 C185.973633,4.02050781 186.449707,4.515625 186.449707,5.52490234 L186.449707,10 L187.541504,10 L187.541504,5.27099609 C187.541504,3.83642578 186.760742,3.03662109 185.364258,3.03662109 C184.418457,3.03662109 183.637695,3.51269531 183.269531,4.23632812 L183.167969,4.23632812 C182.850586,3.52539062 182.203125,3.03662109 181.276367,3.03662109 C180.362305,3.03662109 179.676758,3.47460937 179.365723,4.23632812 L179.26416,4.23632812 L179.26416,3.15722656 L178.223145,3.15722656 L178.223145,10 Z M191.64209,9.16210938 C192.765625,9.16210938 193.597168,8.42578125 193.597168,7.44824219 L193.597168,6.81982422 L191.756348,6.94042969 C190.715332,7.01025391 190.258301,7.37207031 190.258301,8.05761719 C190.258301,8.75585938 190.848633,9.16210938 191.64209,9.16210938 Z M191.438965,10.1206055 C190.112305,10.1206055 189.128418,9.33349609 189.128418,8.08300781 C189.128418,6.85791016 190.029785,6.15332031 191.623047,6.05810547 L193.597168,5.9375 L193.597168,5.31542969 C193.597168,4.47119141 193.070312,4.0078125 192.04834,4.0078125 C191.229492,4.0078125 190.658203,4.31884766 190.505859,4.85839844 L189.401367,4.85839844 C189.547363,3.76025391 190.626465,3.03662109 192.086426,3.03662109 C193.755859,3.03662109 194.688965,3.89355469 194.688965,5.31542969 L194.688965,10 L193.647949,10 L193.647949,8.99072266 L193.546387,8.99072266 C193.102051,9.72070312 192.353027,10.1206055 191.438965,10.1206055 Z M196.73291,10 L197.824707,10 L197.824707,3.15722656 L196.73291,3.15722656 L196.73291,10 Z M197.278809,1.76708984 C197.697754,1.76708984 198.040527,1.42431641 198.040527,1.00537109 C198.040527,0.586425781 197.697754,0.243652344 197.278809,0.243652344 C196.859863,0.243652344 196.51709,0.586425781 196.51709,1.00537109 C196.51709,1.42431641 196.859863,1.76708984 197.278809,1.76708984 Z M199.970215,10 L201.062012,10 L201.062012,0.440429688 L199.970215,0.440429688 L199.970215,10 Z" transform="translate(32 11)"/>
      <g transform="translate(4 4)">
        <rect width="24" height="24"/>
        <g transform="translate(6 6)">
          <mask id="success-b" fill="#fff">
            <use xlink:href="#success-a"/>
          </mask>
          <use fill="#0C0C0D" fill-opacity=".8" fill-rule="nonzero" xlink:href="#success-a"/>
          <g fill="#003706" mask="url(#success-b)">
            <rect width="200" height="200" transform="translate(-91 -92)"/>
          </g>
        </g>
      </g>
    </g>
  </g>
</svg>
