<svg xmlns="http://www.w3.org/2000/svg" xmlns:xlink="http://www.w3.org/1999/xlink" width="380" height="180" viewBox="0 0 380 180">
  <defs>
    <rect id="t-att-a" width="64" height="24" x="131" y="4" rx="3"/>
  </defs>
  <g fill="none" fill-rule="evenodd">
    <rect width="380" height="180" fill="none"/>
    <g transform="translate(91 73)">
      <rect width="197.5" height="32" fill="#00FEFF" rx="3"/>
      <path fill="#002D3E" d="M13.8964844,21 L13.8964844,11.840332 L12.5698242,11.840332 L9.43408203,19.4194336 L9.33251953,19.4194336 L6.19677734,11.840332 L4.87011719,11.840332 L4.87011719,21 L5.93652344,21 L5.93652344,14.0048828 L6.01269531,14.0048828 L8.90087891,20.9365234 L9.86572266,20.9365234 L12.7539062,14.0048828 L12.8300781,14.0048828 L12.8300781,21 L13.8964844,21 Z M18.8222656,15.0014648 C17.7304688,15.0014648 16.96875,15.8012695 16.8862305,17.0136719 L20.6567383,17.0136719 C20.6313477,15.8012695 19.9077148,15.0014648 18.8222656,15.0014648 Z M20.625,19.2290039 L21.7167969,19.2290039 C21.3867188,20.4033203 20.3330078,21.1206055 18.8349609,21.1206055 C16.9370117,21.1206055 15.75,19.7495117 15.75,17.5849609 C15.75,15.4331055 16.9560547,14.0366211 18.8349609,14.0366211 C20.6821289,14.0366211 21.8056641,15.3505859 21.8056641,17.4770508 L21.8056641,17.8959961 L16.8862305,17.8959961 L16.8862305,17.9467773 C16.9433594,19.2988281 17.6987305,20.1557617 18.8603516,20.1557617 C19.7426758,20.1557617 20.3393555,19.8320312 20.625,19.2290039 Z M23.3608398,16.0297852 C23.3608398,17.0200195 23.9448242,17.5722656 25.2270508,17.8833008 L26.4013672,18.1689453 C27.1313477,18.3466797 27.4868164,18.6640625 27.4868164,19.1337891 C27.4868164,19.762207 26.8266602,20.2001953 25.90625,20.2001953 C25.0302734,20.2001953 24.484375,19.8320312 24.300293,19.2543945 L23.1767578,19.2543945 C23.2973633,20.390625 24.3447266,21.1206055 25.8681641,21.1206055 C27.4233398,21.1206055 28.6103516,20.2763672 28.6103516,19.0512695 C28.6103516,18.0673828 27.9882812,17.5087891 26.699707,17.1977539 L25.6459961,16.9438477 C24.8398438,16.7470703 24.4589844,16.4550781 24.4589844,15.9853516 C24.4589844,15.3759766 25.09375,14.9633789 25.90625,14.9633789 C26.7314453,14.9633789 27.2646484,15.3251953 27.4106445,15.8710938 L28.4897461,15.8710938 C28.34375,14.7475586 27.347168,14.0366211 25.9125977,14.0366211 C24.4589844,14.0366211 23.3608398,14.8935547 23.3608398,16.0297852 Z M30.0385742,16.0297852 C30.0385742,17.0200195 30.6225586,17.5722656 31.9047852,17.8833008 L33.0791016,18.1689453 C33.809082,18.3466797 34.1645508,18.6640625 34.1645508,19.1337891 C34.1645508,19.762207 33.5043945,20.2001953 32.5839844,20.2001953 C31.7080078,20.2001953 31.1621094,19.8320312 30.9780273,19.2543945 L29.8544922,19.2543945 C29.9750977,20.390625 31.0224609,21.1206055 32.5458984,21.1206055 C34.1010742,21.1206055 35.2880859,20.2763672 35.2880859,19.0512695 C35.2880859,18.0673828 34.6660156,17.5087891 33.3774414,17.1977539 L32.3237305,16.9438477 C31.5175781,16.7470703 31.1367188,16.4550781 31.1367188,15.9853516 C31.1367188,15.3759766 31.7714844,14.9633789 32.5839844,14.9633789 C33.4091797,14.9633789 33.9423828,15.3251953 34.0883789,15.8710938 L35.1674805,15.8710938 C35.0214844,14.7475586 34.0249023,14.0366211 32.590332,14.0366211 C31.1367188,14.0366211 30.0385742,14.8935547 30.0385742,16.0297852 Z M39.109375,20.1621094 C40.2329102,20.1621094 41.0644531,19.4257812 41.0644531,18.4482422 L41.0644531,17.8198242 L39.2236328,17.9404297 C38.1826172,18.0102539 37.7255859,18.3720703 37.7255859,19.0576172 C37.7255859,19.7558594 38.315918,20.1621094 39.109375,20.1621094 Z M38.90625,21.1206055 C37.5795898,21.1206055 36.5957031,20.3334961 36.5957031,19.0830078 C36.5957031,17.8579102 37.4970703,17.1533203 39.090332,17.0581055 L41.0644531,16.9375 L41.0644531,16.3154297 C41.0644531,15.4711914 40.5375977,15.0078125 39.515625,15.0078125 C38.6967773,15.0078125 38.1254883,15.3188477 37.9731445,15.8583984 L36.8686523,15.8583984 C37.0146484,14.7602539 38.09375,14.0366211 39.5537109,14.0366211 C41.2231445,14.0366211 42.15625,14.8935547 42.15625,16.3154297 L42.15625,21 L41.1152344,21 L41.1152344,19.9907227 L41.0136719,19.9907227 C40.5693359,20.7207031 39.8203125,21.1206055 38.90625,21.1206055 Z M46.9423828,19.9335938 C48.2119141,19.9335938 48.9736328,18.96875 48.9736328,17.4770508 C48.9736328,15.9853516 48.2055664,15.0205078 46.9423828,15.0205078 C45.6728516,15.0205078 44.9619141,15.9853516 44.9619141,17.4770508 C44.9619141,18.96875 45.6728516,19.9335938 46.9423828,19.9335938 Z M46.9931641,23.6279297 C45.3427734,23.6279297 44.2890625,22.8852539 44.1240234,21.7553711 L45.2792969,21.7553711 C45.3999023,22.3139648 46.0092773,22.6757812 46.9931641,22.6757812 C48.2182617,22.6757812 48.9482422,22.0727539 48.9482422,21.0634766 L48.9482422,19.7177734 L48.8466797,19.7177734 C48.4150391,20.4731445 47.640625,20.8984375 46.7011719,20.8984375 C44.9301758,20.8984375 43.8320312,19.5273438 43.8320312,17.4770508 C43.8320312,15.4267578 44.9428711,14.0366211 46.7011719,14.0366211 C47.659668,14.0366211 48.5039062,14.5063477 48.8974609,15.2426758 L48.9990234,15.2426758 L48.9990234,14.1572266 L50.0400391,14.1572266 L50.0400391,21.1206055 C50.0400391,22.6503906 48.859375,23.6279297 46.9931641,23.6279297 Z M54.8261719,15.0014648 C53.734375,15.0014648 52.9726562,15.8012695 52.8901367,17.0136719 L56.6606445,17.0136719 C56.6352539,15.8012695 55.9116211,15.0014648 54.8261719,15.0014648 Z M56.6289062,19.2290039 L57.7207031,19.2290039 C57.390625,20.4033203 56.3369141,21.1206055 54.8388672,21.1206055 C52.940918,21.1206055 51.7539062,19.7495117 51.7539062,17.5849609 C51.7539062,15.4331055 52.9599609,14.0366211 54.8388672,14.0366211 C56.6860352,14.0366211 57.8095703,15.3505859 57.8095703,17.4770508 L57.8095703,17.8959961 L52.8901367,17.8959961 L52.8901367,17.9467773 C52.9472656,19.2988281 53.7026367,20.1557617 54.8642578,20.1557617 C55.746582,20.1557617 56.3432617,19.8320312 56.6289062,19.2290039 Z M65.9599609,19.9335938 C67.2294922,19.9335938 67.9912109,18.96875 67.9912109,17.4770508 C67.9912109,15.9853516 67.2231445,15.0205078 65.9599609,15.0205078 C64.6904297,15.0205078 63.9794922,15.9853516 63.9794922,17.4770508 C63.9794922,18.96875 64.6904297,19.9335938 65.9599609,19.9335938 Z M66.0107422,23.6279297 C64.3603516,23.6279297 63.3066406,22.8852539 63.1416016,21.7553711 L64.296875,21.7553711 C64.4174805,22.3139648 65.0268555,22.6757812 66.0107422,22.6757812 C67.2358398,22.6757812 67.9658203,22.0727539 67.9658203,21.0634766 L67.9658203,19.7177734 L67.8642578,19.7177734 C67.4326172,20.4731445 66.6582031,20.8984375 65.71875,20.8984375 C63.9477539,20.8984375 62.8496094,19.5273438 62.8496094,17.4770508 C62.8496094,15.4267578 63.9604492,14.0366211 65.71875,14.0366211 C66.6772461,14.0366211 67.5214844,14.5063477 67.9150391,15.2426758 L68.0166016,15.2426758 L68.0166016,14.1572266 L69.0576172,14.1572266 L69.0576172,21.1206055 C69.0576172,22.6503906 67.8769531,23.6279297 66.0107422,23.6279297 Z M73.9262695,21.1206055 C71.9775391,21.1206055 70.7714844,19.7749023 70.7714844,17.5786133 C70.7714844,15.3759766 71.9775391,14.0366211 73.9262695,14.0366211 C75.875,14.0366211 77.0810547,15.3759766 77.0810547,17.5786133 C77.0810547,19.7749023 75.875,21.1206055 73.9262695,21.1206055 Z M73.9262695,20.1367188 C75.2211914,20.1367188 75.9511719,19.1972656 75.9511719,17.5786133 C75.9511719,15.9536133 75.2211914,15.0205078 73.9262695,15.0205078 C72.6313477,15.0205078 71.9013672,15.9536133 71.9013672,17.5786133 C71.9013672,19.1972656 72.6313477,20.1367188 73.9262695,20.1367188 Z M81.5244141,15.0014648 C80.4326172,15.0014648 79.6708984,15.8012695 79.5883789,17.0136719 L83.3588867,17.0136719 C83.3334961,15.8012695 82.6098633,15.0014648 81.5244141,15.0014648 Z M83.3271484,19.2290039 L84.4189453,19.2290039 C84.0888672,20.4033203 83.0351562,21.1206055 81.5371094,21.1206055 C79.6391602,21.1206055 78.4521484,19.7495117 78.4521484,17.5849609 C78.4521484,15.4331055 79.6582031,14.0366211 81.5371094,14.0366211 C83.3842773,14.0366211 84.5078125,15.3505859 84.5078125,17.4770508 L84.5078125,17.8959961 L79.5883789,17.8959961 L79.5883789,17.9467773 C79.6455078,19.2988281 80.4008789,20.1557617 81.5625,20.1557617 C82.4448242,20.1557617 83.0415039,19.8320312 83.3271484,19.2290039 Z M86.0629883,16.0297852 C86.0629883,17.0200195 86.6469727,17.5722656 87.9291992,17.8833008 L89.1035156,18.1689453 C89.8334961,18.3466797 90.1889648,18.6640625 90.1889648,19.1337891 C90.1889648,19.762207 89.5288086,20.2001953 88.6083984,20.2001953 C87.7324219,20.2001953 87.1865234,19.8320312 87.0024414,19.2543945 L85.8789062,19.2543945 C85.9995117,20.390625 87.046875,21.1206055 88.5703125,21.1206055 C90.1254883,21.1206055 91.3125,20.2763672 91.3125,19.0512695 C91.3125,18.0673828 90.6904297,17.5087891 89.4018555,17.1977539 L88.3481445,16.9438477 C87.5419922,16.7470703 87.1611328,16.4550781 87.1611328,15.9853516 C87.1611328,15.3759766 87.7958984,14.9633789 88.6083984,14.9633789 C89.4335938,14.9633789 89.9667969,15.3251953 90.112793,15.8710938 L91.1918945,15.8710938 C91.0458984,14.7475586 90.0493164,14.0366211 88.6147461,14.0366211 C87.1611328,14.0366211 86.0629883,14.8935547 86.0629883,16.0297852 Z M96.7587891,21 L97.8505859,21 L97.8505859,16.9501953 C97.8505859,15.7949219 98.5234375,15.0205078 99.7485352,15.0205078 C100.783203,15.0205078 101.329102,15.6235352 101.329102,16.8359375 L101.329102,21 L102.420898,21 L102.420898,16.5693359 C102.420898,14.9633789 101.506836,14.0366211 100.05957,14.0366211 C99.012207,14.0366211 98.2949219,14.480957 97.9521484,15.2363281 L97.8505859,15.2363281 L97.8505859,11.4404297 L96.7587891,11.4404297 L96.7587891,21 Z M107.143555,15.0014648 C106.051758,15.0014648 105.290039,15.8012695 105.20752,17.0136719 L108.978027,17.0136719 C108.952637,15.8012695 108.229004,15.0014648 107.143555,15.0014648 Z M108.946289,19.2290039 L110.038086,19.2290039 C109.708008,20.4033203 108.654297,21.1206055 107.15625,21.1206055 C105.258301,21.1206055 104.071289,19.7495117 104.071289,17.5849609 C104.071289,15.4331055 105.277344,14.0366211 107.15625,14.0366211 C109.003418,14.0366211 110.126953,15.3505859 110.126953,17.4770508 L110.126953,17.8959961 L105.20752,17.8959961 L105.20752,17.9467773 C105.264648,19.2988281 106.02002,20.1557617 107.181641,20.1557617 C108.063965,20.1557617 108.660645,19.8320312 108.946289,19.2290039 Z M111.84082,21 L112.932617,21 L112.932617,16.7597656 C112.932617,15.7949219 113.687988,15.0966797 114.729004,15.0966797 C114.944824,15.0966797 115.338379,15.1347656 115.427246,15.1601562 L115.427246,14.0683594 C115.287598,14.0493164 115.059082,14.0366211 114.881348,14.0366211 C113.973633,14.0366211 113.186523,14.5063477 112.983398,15.1728516 L112.881836,15.1728516 L112.881836,14.1572266 L111.84082,14.1572266 L111.84082,21 Z M119.331055,15.0014648 C118.239258,15.0014648 117.477539,15.8012695 117.39502,17.0136719 L121.165527,17.0136719 C121.140137,15.8012695 120.416504,15.0014648 119.331055,15.0014648 Z M121.133789,19.2290039 L122.225586,19.2290039 C121.895508,20.4033203 120.841797,21.1206055 119.34375,21.1206055 C117.445801,21.1206055 116.258789,19.7495117 116.258789,17.5849609 C116.258789,15.4331055 117.464844,14.0366211 119.34375,14.0366211 C121.190918,14.0366211 122.314453,15.3505859 122.314453,17.4770508 L122.314453,17.8959961 L117.39502,17.8959961 L117.39502,17.9467773 C117.452148,19.2988281 118.20752,20.1557617 119.369141,20.1557617 C120.251465,20.1557617 120.848145,19.8320312 121.133789,19.2290039 Z"/>
      <mask id="t-att-b" fill="#fff">
        <use xlink:href="#t-att-a"/>
      </mask>
      <use fill="#00C8D7" xlink:href="#t-att-a"/>
      <text fill="#002D3E" font-family="SFUIText-Semibold, SF UI Text" font-size="11.7" font-weight="500" mask="url(#t-att-b)">
        <tspan x="139.291" y="20">ACTION</tspan>
      </text>
    </g>
  </g>
</svg>
