<svg xmlns="http://www.w3.org/2000/svg" xmlns:xlink="http://www.w3.org/1999/xlink" width="380" height="180" viewBox="0 0 380 180">
  <defs>
    <rect id="t-succ-a" width="64" height="24" x="201" y="77" rx="3"/>
  </defs>
  <g fill="none" fill-rule="evenodd">
    <rect width="380" height="180" fill="none"/>
    <rect width="197.5" height="32" x="70" y="73" fill="#30E60B" rx="3"/>
    <path fill="#003706" d="M83.8964844,94 L83.8964844,84.840332 L82.5698242,84.840332 L79.434082,92.4194336 L79.3325195,92.4194336 L76.1967773,84.840332 L74.8701172,84.840332 L74.8701172,94 L75.9365234,94 L75.9365234,87.0048828 L76.0126953,87.0048828 L78.9008789,93.9365234 L79.8657227,93.9365234 L82.7539062,87.0048828 L82.8300781,87.0048828 L82.8300781,94 L83.8964844,94 Z M88.8222656,88.0014648 C87.7304688,88.0014648 86.96875,88.8012695 86.8862305,90.0136719 L90.6567383,90.0136719 C90.6313477,88.8012695 89.9077148,88.0014648 88.8222656,88.0014648 Z M90.625,92.2290039 L91.7167969,92.2290039 C91.3867188,93.4033203 90.3330078,94.1206055 88.8349609,94.1206055 C86.9370117,94.1206055 85.75,92.7495117 85.75,90.5849609 C85.75,88.4331055 86.9560547,87.0366211 88.8349609,87.0366211 C90.6821289,87.0366211 91.8056641,88.3505859 91.8056641,90.4770508 L91.8056641,90.8959961 L86.8862305,90.8959961 L86.8862305,90.9467773 C86.9433594,92.2988281 87.6987305,93.1557617 88.8603516,93.1557617 C89.7426758,93.1557617 90.3393555,92.8320312 90.625,92.2290039 Z M93.3608398,89.0297852 C93.3608398,90.0200195 93.9448242,90.5722656 95.2270508,90.8833008 L96.4013672,91.1689453 C97.1313477,91.3466797 97.4868164,91.6640625 97.4868164,92.1337891 C97.4868164,92.762207 96.8266602,93.2001953 95.90625,93.2001953 C95.0302734,93.2001953 94.484375,92.8320312 94.300293,92.2543945 L93.1767578,92.2543945 C93.2973633,93.390625 94.3447266,94.1206055 95.8681641,94.1206055 C97.4233398,94.1206055 98.6103516,93.2763672 98.6103516,92.0512695 C98.6103516,91.0673828 97.9882812,90.5087891 96.699707,90.1977539 L95.6459961,89.9438477 C94.8398438,89.7470703 94.4589844,89.4550781 94.4589844,88.9853516 C94.4589844,88.3759766 95.09375,87.9633789 95.90625,87.9633789 C96.7314453,87.9633789 97.2646484,88.3251953 97.4106445,88.8710938 L98.4897461,88.8710938 C98.34375,87.7475586 97.347168,87.0366211 95.9125977,87.0366211 C94.4589844,87.0366211 93.3608398,87.8935547 93.3608398,89.0297852 Z M100.038574,89.0297852 C100.038574,90.0200195 100.622559,90.5722656 101.904785,90.8833008 L103.079102,91.1689453 C103.809082,91.3466797 104.164551,91.6640625 104.164551,92.1337891 C104.164551,92.762207 103.504395,93.2001953 102.583984,93.2001953 C101.708008,93.2001953 101.162109,92.8320312 100.978027,92.2543945 L99.8544922,92.2543945 C99.9750977,93.390625 101.022461,94.1206055 102.545898,94.1206055 C104.101074,94.1206055 105.288086,93.2763672 105.288086,92.0512695 C105.288086,91.0673828 104.666016,90.5087891 103.377441,90.1977539 L102.32373,89.9438477 C101.517578,89.7470703 101.136719,89.4550781 101.136719,88.9853516 C101.136719,88.3759766 101.771484,87.9633789 102.583984,87.9633789 C103.40918,87.9633789 103.942383,88.3251953 104.088379,88.8710938 L105.16748,88.8710938 C105.021484,87.7475586 104.024902,87.0366211 102.590332,87.0366211 C101.136719,87.0366211 100.038574,87.8935547 100.038574,89.0297852 Z M109.109375,93.1621094 C110.23291,93.1621094 111.064453,92.4257812 111.064453,91.4482422 L111.064453,90.8198242 L109.223633,90.9404297 C108.182617,91.0102539 107.725586,91.3720703 107.725586,92.0576172 C107.725586,92.7558594 108.315918,93.1621094 109.109375,93.1621094 Z M108.90625,94.1206055 C107.57959,94.1206055 106.595703,93.3334961 106.595703,92.0830078 C106.595703,90.8579102 107.49707,90.1533203 109.090332,90.0581055 L111.064453,89.9375 L111.064453,89.3154297 C111.064453,88.4711914 110.537598,88.0078125 109.515625,88.0078125 C108.696777,88.0078125 108.125488,88.3188477 107.973145,88.8583984 L106.868652,88.8583984 C107.014648,87.7602539 108.09375,87.0366211 109.553711,87.0366211 C111.223145,87.0366211 112.15625,87.8935547 112.15625,89.3154297 L112.15625,94 L111.115234,94 L111.115234,92.9907227 L111.013672,92.9907227 C110.569336,93.7207031 109.820312,94.1206055 108.90625,94.1206055 Z M116.942383,92.9335938 C118.211914,92.9335938 118.973633,91.96875 118.973633,90.4770508 C118.973633,88.9853516 118.205566,88.0205078 116.942383,88.0205078 C115.672852,88.0205078 114.961914,88.9853516 114.961914,90.4770508 C114.961914,91.96875 115.672852,92.9335938 116.942383,92.9335938 Z M116.993164,96.6279297 C115.342773,96.6279297 114.289062,95.8852539 114.124023,94.7553711 L115.279297,94.7553711 C115.399902,95.3139648 116.009277,95.6757812 116.993164,95.6757812 C118.218262,95.6757812 118.948242,95.0727539 118.948242,94.0634766 L118.948242,92.7177734 L118.84668,92.7177734 C118.415039,93.4731445 117.640625,93.8984375 116.701172,93.8984375 C114.930176,93.8984375 113.832031,92.5273438 113.832031,90.4770508 C113.832031,88.4267578 114.942871,87.0366211 116.701172,87.0366211 C117.659668,87.0366211 118.503906,87.5063477 118.897461,88.2426758 L118.999023,88.2426758 L118.999023,87.1572266 L120.040039,87.1572266 L120.040039,94.1206055 C120.040039,95.6503906 118.859375,96.6279297 116.993164,96.6279297 Z M124.826172,88.0014648 C123.734375,88.0014648 122.972656,88.8012695 122.890137,90.0136719 L126.660645,90.0136719 C126.635254,88.8012695 125.911621,88.0014648 124.826172,88.0014648 Z M126.628906,92.2290039 L127.720703,92.2290039 C127.390625,93.4033203 126.336914,94.1206055 124.838867,94.1206055 C122.940918,94.1206055 121.753906,92.7495117 121.753906,90.5849609 C121.753906,88.4331055 122.959961,87.0366211 124.838867,87.0366211 C126.686035,87.0366211 127.80957,88.3505859 127.80957,90.4770508 L127.80957,90.8959961 L122.890137,90.8959961 L122.890137,90.9467773 C122.947266,92.2988281 123.702637,93.1557617 124.864258,93.1557617 C125.746582,93.1557617 126.343262,92.8320312 126.628906,92.2290039 Z M135.959961,92.9335938 C137.229492,92.9335938 137.991211,91.96875 137.991211,90.4770508 C137.991211,88.9853516 137.223145,88.0205078 135.959961,88.0205078 C134.69043,88.0205078 133.979492,88.9853516 133.979492,90.4770508 C133.979492,91.96875 134.69043,92.9335938 135.959961,92.9335938 Z M136.010742,96.6279297 C134.360352,96.6279297 133.306641,95.8852539 133.141602,94.7553711 L134.296875,94.7553711 C134.41748,95.3139648 135.026855,95.6757812 136.010742,95.6757812 C137.23584,95.6757812 137.96582,95.0727539 137.96582,94.0634766 L137.96582,92.7177734 L137.864258,92.7177734 C137.432617,93.4731445 136.658203,93.8984375 135.71875,93.8984375 C133.947754,93.8984375 132.849609,92.5273438 132.849609,90.4770508 C132.849609,88.4267578 133.960449,87.0366211 135.71875,87.0366211 C136.677246,87.0366211 137.521484,87.5063477 137.915039,88.2426758 L138.016602,88.2426758 L138.016602,87.1572266 L139.057617,87.1572266 L139.057617,94.1206055 C139.057617,95.6503906 137.876953,96.6279297 136.010742,96.6279297 Z M143.92627,94.1206055 C141.977539,94.1206055 140.771484,92.7749023 140.771484,90.5786133 C140.771484,88.3759766 141.977539,87.0366211 143.92627,87.0366211 C145.875,87.0366211 147.081055,88.3759766 147.081055,90.5786133 C147.081055,92.7749023 145.875,94.1206055 143.92627,94.1206055 Z M143.92627,93.1367188 C145.221191,93.1367188 145.951172,92.1972656 145.951172,90.5786133 C145.951172,88.9536133 145.221191,88.0205078 143.92627,88.0205078 C142.631348,88.0205078 141.901367,88.9536133 141.901367,90.5786133 C141.901367,92.1972656 142.631348,93.1367188 143.92627,93.1367188 Z M151.524414,88.0014648 C150.432617,88.0014648 149.670898,88.8012695 149.588379,90.0136719 L153.358887,90.0136719 C153.333496,88.8012695 152.609863,88.0014648 151.524414,88.0014648 Z M153.327148,92.2290039 L154.418945,92.2290039 C154.088867,93.4033203 153.035156,94.1206055 151.537109,94.1206055 C149.63916,94.1206055 148.452148,92.7495117 148.452148,90.5849609 C148.452148,88.4331055 149.658203,87.0366211 151.537109,87.0366211 C153.384277,87.0366211 154.507812,88.3505859 154.507812,90.4770508 L154.507812,90.8959961 L149.588379,90.8959961 L149.588379,90.9467773 C149.645508,92.2988281 150.400879,93.1557617 151.5625,93.1557617 C152.444824,93.1557617 153.041504,92.8320312 153.327148,92.2290039 Z M156.062988,89.0297852 C156.062988,90.0200195 156.646973,90.5722656 157.929199,90.8833008 L159.103516,91.1689453 C159.833496,91.3466797 160.188965,91.6640625 160.188965,92.1337891 C160.188965,92.762207 159.528809,93.2001953 158.608398,93.2001953 C157.732422,93.2001953 157.186523,92.8320312 157.002441,92.2543945 L155.878906,92.2543945 C155.999512,93.390625 157.046875,94.1206055 158.570312,94.1206055 C160.125488,94.1206055 161.3125,93.2763672 161.3125,92.0512695 C161.3125,91.0673828 160.69043,90.5087891 159.401855,90.1977539 L158.348145,89.9438477 C157.541992,89.7470703 157.161133,89.4550781 157.161133,88.9853516 C157.161133,88.3759766 157.795898,87.9633789 158.608398,87.9633789 C159.433594,87.9633789 159.966797,88.3251953 160.112793,88.8710938 L161.191895,88.8710938 C161.045898,87.7475586 160.049316,87.0366211 158.614746,87.0366211 C157.161133,87.0366211 156.062988,87.8935547 156.062988,89.0297852 Z M166.758789,94 L167.850586,94 L167.850586,89.9501953 C167.850586,88.7949219 168.523438,88.0205078 169.748535,88.0205078 C170.783203,88.0205078 171.329102,88.6235352 171.329102,89.8359375 L171.329102,94 L172.420898,94 L172.420898,89.5693359 C172.420898,87.9633789 171.506836,87.0366211 170.05957,87.0366211 C169.012207,87.0366211 168.294922,87.480957 167.952148,88.2363281 L167.850586,88.2363281 L167.850586,84.4404297 L166.758789,84.4404297 L166.758789,94 Z M177.143555,88.0014648 C176.051758,88.0014648 175.290039,88.8012695 175.20752,90.0136719 L178.978027,90.0136719 C178.952637,88.8012695 178.229004,88.0014648 177.143555,88.0014648 Z M178.946289,92.2290039 L180.038086,92.2290039 C179.708008,93.4033203 178.654297,94.1206055 177.15625,94.1206055 C175.258301,94.1206055 174.071289,92.7495117 174.071289,90.5849609 C174.071289,88.4331055 175.277344,87.0366211 177.15625,87.0366211 C179.003418,87.0366211 180.126953,88.3505859 180.126953,90.4770508 L180.126953,90.8959961 L175.20752,90.8959961 L175.20752,90.9467773 C175.264648,92.2988281 176.02002,93.1557617 177.181641,93.1557617 C178.063965,93.1557617 178.660645,92.8320312 178.946289,92.2290039 Z M181.84082,94 L182.932617,94 L182.932617,89.7597656 C182.932617,88.7949219 183.687988,88.0966797 184.729004,88.0966797 C184.944824,88.0966797 185.338379,88.1347656 185.427246,88.1601562 L185.427246,87.0683594 C185.287598,87.0493164 185.059082,87.0366211 184.881348,87.0366211 C183.973633,87.0366211 183.186523,87.5063477 182.983398,88.1728516 L182.881836,88.1728516 L182.881836,87.1572266 L181.84082,87.1572266 L181.84082,94 Z M189.331055,88.0014648 C188.239258,88.0014648 187.477539,88.8012695 187.39502,90.0136719 L191.165527,90.0136719 C191.140137,88.8012695 190.416504,88.0014648 189.331055,88.0014648 Z M191.133789,92.2290039 L192.225586,92.2290039 C191.895508,93.4033203 190.841797,94.1206055 189.34375,94.1206055 C187.445801,94.1206055 186.258789,92.7495117 186.258789,90.5849609 C186.258789,88.4331055 187.464844,87.0366211 189.34375,87.0366211 C191.190918,87.0366211 192.314453,88.3505859 192.314453,90.4770508 L192.314453,90.8959961 L187.39502,90.8959961 L187.39502,90.9467773 C187.452148,92.2988281 188.20752,93.1557617 189.369141,93.1557617 C190.251465,93.1557617 190.848145,92.8320312 191.133789,92.2290039 Z"/>
    <mask id="t-succ-b" fill="#fff">
      <use xlink:href="#t-succ-a"/>
    </mask>
    <use fill="#12BC00" xlink:href="#t-succ-a"/>
    <text fill="#003706" font-family="SFUIText-Semibold, SF UI Text" font-size="11.7" font-weight="500" mask="url(#t-succ-b)">
      <tspan x="209.291" y="93">ACTION</tspan>
    </text>
  </g>
</svg>
