<svg xmlns="http://www.w3.org/2000/svg" xmlns:xlink="http://www.w3.org/1999/xlink" width="380" height="180" viewBox="0 0 380 180">
  <defs>
    <path id="t-war-a" d="M7.22254109,5.98945674 L11.7593901,1.45260771 C12.0842229,1.11628355 12.0795773,0.581679455 11.7489489,0.251051076 C11.4183205,-0.0795773034 10.8837165,-0.0842228685 10.5473923,0.240609874 L6.01054326,4.77745891 L1.47369422,0.240609874 C1.13737006,-0.0842228685 0.602765966,-0.0795773034 0.272137586,0.251051076 C-0.0584907931,0.581679455 -0.0631363582,1.11628355 0.261696384,1.45260771 L4.79854542,5.98945674 L0.261696384,10.5263058 C0.0388768524,10.7415121 -0.0504852845,11.0602002 0.0279563816,11.359882 C0.106398048,11.6595638 0.340436167,11.893602 0.640118002,11.9720436 C0.939799836,12.0504853 1.25848791,11.9611231 1.47369422,11.7383036 L6.01054326,7.20145458 L10.5473923,11.7383036 C10.8837165,12.0631364 11.4183205,12.0584908 11.7489489,11.7278624 C12.0795773,11.397234 12.0842229,10.8626299 11.7593901,10.5263058 L7.22254109,5.98945674 Z"/>
    <path id="t-war-c" d="M13.6929417,11.0118641 L8.73994165,1.1058641 C8.40121551,0.428135952 7.70860308,0 6.95094165,0 C6.19328022,0 5.50066779,0.428135952 5.16194165,1.1058641 L0.208941651,11.0158641 C-0.0989581202,11.6354894 -0.0647229393,12.3702439 0.299459428,12.9585541 C0.663641796,13.5468644 1.30603325,13.9051512 1.99794165,13.9058641 L11.9029417,13.9058641 C12.5961777,13.9061872 13.2401412,13.5474994 13.6048048,12.957926 C13.9694684,12.3683526 14.0028183,11.6319873 13.6929417,11.0118641 L13.6929417,11.0118641 Z M5.95094165,3.9058641 C5.95094165,3.35357935 6.3986569,2.9058641 6.95094165,2.9058641 C7.5032264,2.9058641 7.95094165,3.35357935 7.95094165,3.9058641 L7.95094165,7.9058641 C7.95094165,8.45814885 7.5032264,8.9058641 6.95094165,8.9058641 C6.3986569,8.9058641 5.95094165,8.45814885 5.95094165,7.9058641 L5.95094165,3.9058641 Z M6.95094165,12.1558641 C6.26058571,12.1558641 5.70094165,11.59622 5.70094165,10.9058641 C5.70094165,10.2155082 6.26058571,9.6558641 6.95094165,9.6558641 C7.64129759,9.6558641 8.20094165,10.2155082 8.20094165,10.9058641 C8.20094165,11.59622 7.64129759,12.1558641 6.95094165,12.1558641 L6.95094165,12.1558641 Z"/>
    <rect id="t-war-e" width="49" height="24" x="160.504" y="4.093" rx="2"/>
  </defs>
  <g fill="none" fill-rule="evenodd">
    <g transform="translate(47 73)">
      <rect width="285" height="32" x=".5" fill="#FFE900" rx="3"/>
      <g transform="translate(257.5 4)">
        <rect width="24" height="24"/>
        <g transform="translate(6 6)">
          <mask id="t-war-b" fill="#fff">
            <use xlink:href="#t-war-a"/>
          </mask>
          <use fill="#0C0C0D" fill-opacity=".8" fill-rule="nonzero" xlink:href="#t-war-a"/>
          <g fill="#3E2800" mask="url(#t-war-b)">
            <rect width="200" height="200" transform="translate(-89 -91)"/>
          </g>
        </g>
      </g>
      <g transform="translate(4.5 4)">
        <rect width="24" height="24"/>
        <g transform="translate(5 5)">
          <mask id="t-war-d" fill="#fff">
            <use xlink:href="#t-war-c"/>
          </mask>
          <use fill="#0C0C0D" fill-opacity=".8" fill-rule="nonzero" xlink:href="#t-war-c"/>
          <g fill="#3E2800" mask="url(#t-war-d)">
            <rect width="200" height="200" transform="translate(-93 -93)"/>
          </g>
        </g>
      </g>
      <path fill="#3E2800" d="M42.6943359,21 L42.6943359,11.840332 L41.3676758,11.840332 L38.2319336,19.4194336 L38.1303711,19.4194336 L34.9946289,11.840332 L33.6679688,11.840332 L33.6679688,21 L34.734375,21 L34.734375,14.0048828 L34.8105469,14.0048828 L37.6987305,20.9365234 L38.6635742,20.9365234 L41.5517578,14.0048828 L41.6279297,14.0048828 L41.6279297,21 L42.6943359,21 Z M47.6201172,15.0014648 C46.5283203,15.0014648 45.7666016,15.8012695 45.684082,17.0136719 L49.4545898,17.0136719 C49.4291992,15.8012695 48.7055664,15.0014648 47.6201172,15.0014648 Z M49.4228516,19.2290039 L50.5146484,19.2290039 C50.1845703,20.4033203 49.1308594,21.1206055 47.6328125,21.1206055 C45.7348633,21.1206055 44.5478516,19.7495117 44.5478516,17.5849609 C44.5478516,15.4331055 45.7539062,14.0366211 47.6328125,14.0366211 C49.4799805,14.0366211 50.6035156,15.3505859 50.6035156,17.4770508 L50.6035156,17.8959961 L45.684082,17.8959961 L45.684082,17.9467773 C45.7412109,19.2988281 46.496582,20.1557617 47.6582031,20.1557617 C48.5405273,20.1557617 49.137207,19.8320312 49.4228516,19.2290039 Z M52.1586914,16.0297852 C52.1586914,17.0200195 52.7426758,17.5722656 54.0249023,17.8833008 L55.1992188,18.1689453 C55.9291992,18.3466797 56.284668,18.6640625 56.284668,19.1337891 C56.284668,19.762207 55.6245117,20.2001953 54.7041016,20.2001953 C53.828125,20.2001953 53.2822266,19.8320312 53.0981445,19.2543945 L51.9746094,19.2543945 C52.0952148,20.390625 53.1425781,21.1206055 54.6660156,21.1206055 C56.2211914,21.1206055 57.4082031,20.2763672 57.4082031,19.0512695 C57.4082031,18.0673828 56.7861328,17.5087891 55.4975586,17.1977539 L54.4438477,16.9438477 C53.6376953,16.7470703 53.2568359,16.4550781 53.2568359,15.9853516 C53.2568359,15.3759766 53.8916016,14.9633789 54.7041016,14.9633789 C55.5292969,14.9633789 56.0625,15.3251953 56.2084961,15.8710938 L57.2875977,15.8710938 C57.1416016,14.7475586 56.1450195,14.0366211 54.7104492,14.0366211 C53.2568359,14.0366211 52.1586914,14.8935547 52.1586914,16.0297852 Z M58.8364258,16.0297852 C58.8364258,17.0200195 59.4204102,17.5722656 60.7026367,17.8833008 L61.8769531,18.1689453 C62.6069336,18.3466797 62.9624023,18.6640625 62.9624023,19.1337891 C62.9624023,19.762207 62.3022461,20.2001953 61.3818359,20.2001953 C60.5058594,20.2001953 59.9599609,19.8320312 59.7758789,19.2543945 L58.6523438,19.2543945 C58.7729492,20.390625 59.8203125,21.1206055 61.34375,21.1206055 C62.8989258,21.1206055 64.0859375,20.2763672 64.0859375,19.0512695 C64.0859375,18.0673828 63.4638672,17.5087891 62.175293,17.1977539 L61.121582,16.9438477 C60.3154297,16.7470703 59.9345703,16.4550781 59.9345703,15.9853516 C59.9345703,15.3759766 60.5693359,14.9633789 61.3818359,14.9633789 C62.2070312,14.9633789 62.7402344,15.3251953 62.8862305,15.8710938 L63.965332,15.8710938 C63.8193359,14.7475586 62.8227539,14.0366211 61.3881836,14.0366211 C59.9345703,14.0366211 58.8364258,14.8935547 58.8364258,16.0297852 Z M67.9072266,20.1621094 C69.0307617,20.1621094 69.8623047,19.4257812 69.8623047,18.4482422 L69.8623047,17.8198242 L68.0214844,17.9404297 C66.9804688,18.0102539 66.5234375,18.3720703 66.5234375,19.0576172 C66.5234375,19.7558594 67.1137695,20.1621094 67.9072266,20.1621094 Z M67.7041016,21.1206055 C66.3774414,21.1206055 65.3935547,20.3334961 65.3935547,19.0830078 C65.3935547,17.8579102 66.2949219,17.1533203 67.8881836,17.0581055 L69.8623047,16.9375 L69.8623047,16.3154297 C69.8623047,15.4711914 69.3354492,15.0078125 68.3134766,15.0078125 C67.4946289,15.0078125 66.9233398,15.3188477 66.7709961,15.8583984 L65.6665039,15.8583984 C65.8125,14.7602539 66.8916016,14.0366211 68.3515625,14.0366211 C70.0209961,14.0366211 70.9541016,14.8935547 70.9541016,16.3154297 L70.9541016,21 L69.9130859,21 L69.9130859,19.9907227 L69.8115234,19.9907227 C69.3671875,20.7207031 68.6181641,21.1206055 67.7041016,21.1206055 Z M75.7402344,19.9335938 C77.0097656,19.9335938 77.7714844,18.96875 77.7714844,17.4770508 C77.7714844,15.9853516 77.003418,15.0205078 75.7402344,15.0205078 C74.4707031,15.0205078 73.7597656,15.9853516 73.7597656,17.4770508 C73.7597656,18.96875 74.4707031,19.9335938 75.7402344,19.9335938 Z M75.7910156,23.6279297 C74.140625,23.6279297 73.0869141,22.8852539 72.921875,21.7553711 L74.0771484,21.7553711 C74.1977539,22.3139648 74.8071289,22.6757812 75.7910156,22.6757812 C77.0161133,22.6757812 77.7460938,22.0727539 77.7460938,21.0634766 L77.7460938,19.7177734 L77.6445312,19.7177734 C77.2128906,20.4731445 76.4384766,20.8984375 75.4990234,20.8984375 C73.7280273,20.8984375 72.6298828,19.5273438 72.6298828,17.4770508 C72.6298828,15.4267578 73.7407227,14.0366211 75.4990234,14.0366211 C76.4575195,14.0366211 77.3017578,14.5063477 77.6953125,15.2426758 L77.796875,15.2426758 L77.796875,14.1572266 L78.8378906,14.1572266 L78.8378906,21.1206055 C78.8378906,22.6503906 77.6572266,23.6279297 75.7910156,23.6279297 Z M83.6240234,15.0014648 C82.5322266,15.0014648 81.7705078,15.8012695 81.6879883,17.0136719 L85.4584961,17.0136719 C85.4331055,15.8012695 84.7094727,15.0014648 83.6240234,15.0014648 Z M85.4267578,19.2290039 L86.5185547,19.2290039 C86.1884766,20.4033203 85.1347656,21.1206055 83.6367188,21.1206055 C81.7387695,21.1206055 80.5517578,19.7495117 80.5517578,17.5849609 C80.5517578,15.4331055 81.7578125,14.0366211 83.6367188,14.0366211 C85.4838867,14.0366211 86.6074219,15.3505859 86.6074219,17.4770508 L86.6074219,17.8959961 L81.6879883,17.8959961 L81.6879883,17.9467773 C81.7451172,19.2988281 82.5004883,20.1557617 83.6621094,20.1557617 C84.5444336,20.1557617 85.1411133,19.8320312 85.4267578,19.2290039 Z M94.7578125,19.9335938 C96.0273438,19.9335938 96.7890625,18.96875 96.7890625,17.4770508 C96.7890625,15.9853516 96.0209961,15.0205078 94.7578125,15.0205078 C93.4882812,15.0205078 92.7773438,15.9853516 92.7773438,17.4770508 C92.7773438,18.96875 93.4882812,19.9335938 94.7578125,19.9335938 Z M94.8085938,23.6279297 C93.1582031,23.6279297 92.1044922,22.8852539 91.9394531,21.7553711 L93.0947266,21.7553711 C93.215332,22.3139648 93.824707,22.6757812 94.8085938,22.6757812 C96.0336914,22.6757812 96.7636719,22.0727539 96.7636719,21.0634766 L96.7636719,19.7177734 L96.6621094,19.7177734 C96.2304688,20.4731445 95.4560547,20.8984375 94.5166016,20.8984375 C92.7456055,20.8984375 91.6474609,19.5273438 91.6474609,17.4770508 C91.6474609,15.4267578 92.7583008,14.0366211 94.5166016,14.0366211 C95.4750977,14.0366211 96.3193359,14.5063477 96.7128906,15.2426758 L96.8144531,15.2426758 L96.8144531,14.1572266 L97.8554688,14.1572266 L97.8554688,21.1206055 C97.8554688,22.6503906 96.6748047,23.6279297 94.8085938,23.6279297 Z M102.724121,21.1206055 C100.775391,21.1206055 99.5693359,19.7749023 99.5693359,17.5786133 C99.5693359,15.3759766 100.775391,14.0366211 102.724121,14.0366211 C104.672852,14.0366211 105.878906,15.3759766 105.878906,17.5786133 C105.878906,19.7749023 104.672852,21.1206055 102.724121,21.1206055 Z M102.724121,20.1367188 C104.019043,20.1367188 104.749023,19.1972656 104.749023,17.5786133 C104.749023,15.9536133 104.019043,15.0205078 102.724121,15.0205078 C101.429199,15.0205078 100.699219,15.9536133 100.699219,17.5786133 C100.699219,19.1972656 101.429199,20.1367188 102.724121,20.1367188 Z M110.322266,15.0014648 C109.230469,15.0014648 108.46875,15.8012695 108.38623,17.0136719 L112.156738,17.0136719 C112.131348,15.8012695 111.407715,15.0014648 110.322266,15.0014648 Z M112.125,19.2290039 L113.216797,19.2290039 C112.886719,20.4033203 111.833008,21.1206055 110.334961,21.1206055 C108.437012,21.1206055 107.25,19.7495117 107.25,17.5849609 C107.25,15.4331055 108.456055,14.0366211 110.334961,14.0366211 C112.182129,14.0366211 113.305664,15.3505859 113.305664,17.4770508 L113.305664,17.8959961 L108.38623,17.8959961 L108.38623,17.9467773 C108.443359,19.2988281 109.19873,20.1557617 110.360352,20.1557617 C111.242676,20.1557617 111.839355,19.8320312 112.125,19.2290039 Z M114.86084,16.0297852 C114.86084,17.0200195 115.444824,17.5722656 116.727051,17.8833008 L117.901367,18.1689453 C118.631348,18.3466797 118.986816,18.6640625 118.986816,19.1337891 C118.986816,19.762207 118.32666,20.2001953 117.40625,20.2001953 C116.530273,20.2001953 115.984375,19.8320312 115.800293,19.2543945 L114.676758,19.2543945 C114.797363,20.390625 115.844727,21.1206055 117.368164,21.1206055 C118.92334,21.1206055 120.110352,20.2763672 120.110352,19.0512695 C120.110352,18.0673828 119.488281,17.5087891 118.199707,17.1977539 L117.145996,16.9438477 C116.339844,16.7470703 115.958984,16.4550781 115.958984,15.9853516 C115.958984,15.3759766 116.59375,14.9633789 117.40625,14.9633789 C118.231445,14.9633789 118.764648,15.3251953 118.910645,15.8710938 L119.989746,15.8710938 C119.84375,14.7475586 118.847168,14.0366211 117.412598,14.0366211 C115.958984,14.0366211 114.86084,14.8935547 114.86084,16.0297852 Z M125.556641,21 L126.648438,21 L126.648438,16.9501953 C126.648438,15.7949219 127.321289,15.0205078 128.546387,15.0205078 C129.581055,15.0205078 130.126953,15.6235352 130.126953,16.8359375 L130.126953,21 L131.21875,21 L131.21875,16.5693359 C131.21875,14.9633789 130.304688,14.0366211 128.857422,14.0366211 C127.810059,14.0366211 127.092773,14.480957 126.75,15.2363281 L126.648438,15.2363281 L126.648438,11.4404297 L125.556641,11.4404297 L125.556641,21 Z M135.941406,15.0014648 C134.849609,15.0014648 134.087891,15.8012695 134.005371,17.0136719 L137.775879,17.0136719 C137.750488,15.8012695 137.026855,15.0014648 135.941406,15.0014648 Z M137.744141,19.2290039 L138.835938,19.2290039 C138.505859,20.4033203 137.452148,21.1206055 135.954102,21.1206055 C134.056152,21.1206055 132.869141,19.7495117 132.869141,17.5849609 C132.869141,15.4331055 134.075195,14.0366211 135.954102,14.0366211 C137.80127,14.0366211 138.924805,15.3505859 138.924805,17.4770508 L138.924805,17.8959961 L134.005371,17.8959961 L134.005371,17.9467773 C134.0625,19.2988281 134.817871,20.1557617 135.979492,20.1557617 C136.861816,20.1557617 137.458496,19.8320312 137.744141,19.2290039 Z M140.638672,21 L141.730469,21 L141.730469,16.7597656 C141.730469,15.7949219 142.48584,15.0966797 143.526855,15.0966797 C143.742676,15.0966797 144.13623,15.1347656 144.225098,15.1601562 L144.225098,14.0683594 C144.085449,14.0493164 143.856934,14.0366211 143.679199,14.0366211 C142.771484,14.0366211 141.984375,14.5063477 141.78125,15.1728516 L141.679688,15.1728516 L141.679688,14.1572266 L140.638672,14.1572266 L140.638672,21 Z M148.128906,15.0014648 C147.037109,15.0014648 146.275391,15.8012695 146.192871,17.0136719 L149.963379,17.0136719 C149.937988,15.8012695 149.214355,15.0014648 148.128906,15.0014648 Z M149.931641,19.2290039 L151.023438,19.2290039 C150.693359,20.4033203 149.639648,21.1206055 148.141602,21.1206055 C146.243652,21.1206055 145.056641,19.7495117 145.056641,17.5849609 C145.056641,15.4331055 146.262695,14.0366211 148.141602,14.0366211 C149.98877,14.0366211 151.112305,15.3505859 151.112305,17.4770508 L151.112305,17.8959961 L146.192871,17.8959961 L146.192871,17.9467773 C146.25,19.2988281 147.005371,20.1557617 148.166992,20.1557617 C149.049316,20.1557617 149.645996,19.8320312 149.931641,19.2290039 Z"/>
      <mask id="t-war-f" fill="#fff">
        <use xlink:href="#t-war-e"/>
      </mask>
      <use fill="#D7B600" xlink:href="#t-war-e"/>
      <path fill="#3E2800" d="M174.767098,20.1693312 L173.988289,17.9510695 L170.905281,17.9510695 L170.126473,20.1693312 L169.111336,20.1693312 L171.968758,12.4188429 L172.924813,12.4188429 L175.782234,20.1693312 L174.767098,20.1693312 Z M172.403817,13.6703078 L171.189949,17.1292921 L173.703621,17.1292921 L172.489754,13.6703078 L172.403817,13.6703078 Z M181.491707,16.1517531 C181.330574,15.1205031 180.471199,14.2772414 179.063973,14.2772414 C177.441902,14.2772414 176.410652,15.4481398 176.410652,17.2528273 C176.410652,19.0951124 177.447274,20.271382 179.069344,20.271382 C180.460457,20.271382 181.325203,19.4872023 181.491707,18.4237257 L180.557137,18.4237257 C180.385262,19.0789992 179.842781,19.4388624 179.063973,19.4388624 C178.032723,19.4388624 177.366707,18.5902296 177.366707,17.2528273 C177.366707,15.9422804 178.021981,15.1097609 179.063973,15.1097609 C179.896492,15.1097609 180.406746,15.577046 180.557137,16.1517531 L181.491707,16.1517531 Z M183.350106,12.880757 L183.350106,14.3792921 L182.415535,14.3792921 L182.415535,15.1527296 L183.350106,15.1527296 L183.350106,18.6654249 C183.350106,19.7718703 183.828133,20.2122999 185.020516,20.2122999 C185.203133,20.2122999 185.380379,20.1908156 185.562996,20.158589 L185.562996,19.3797804 C185.391121,19.3958937 185.299813,19.4012648 185.133309,19.4012648 C184.531746,19.4012648 184.273934,19.1112257 184.273934,18.4290968 L184.273934,15.1527296 L185.562996,15.1527296 L185.562996,14.3792921 L184.273934,14.3792921 L184.273934,12.880757 L183.350106,12.880757 Z M186.980965,20.1693312 L187.904793,20.1693312 L187.904793,14.3792921 L186.980965,14.3792921 L186.980965,20.1693312 Z M187.442879,13.2030226 C187.797371,13.2030226 188.08741,12.9129835 188.08741,12.5584914 C188.08741,12.2039992 187.797371,11.9139601 187.442879,11.9139601 C187.088387,11.9139601 186.798348,12.2039992 186.798348,12.5584914 C186.798348,12.9129835 187.088387,13.2030226 187.442879,13.2030226 Z M192.045906,20.271382 C190.396981,20.271382 189.376473,19.1327101 189.376473,17.2743117 C189.376473,15.4105421 190.396981,14.2772414 192.045906,14.2772414 C193.694832,14.2772414 194.71534,15.4105421 194.71534,17.2743117 C194.71534,19.1327101 193.694832,20.271382 192.045906,20.271382 Z M192.045906,19.4388624 C193.141609,19.4388624 193.759285,18.6439406 193.759285,17.2743117 C193.759285,15.8993117 193.141609,15.1097609 192.045906,15.1097609 C190.950203,15.1097609 190.332527,15.8993117 190.332527,17.2743117 C190.332527,18.6439406 190.950203,19.4388624 192.045906,19.4388624 Z M196.165535,20.1693312 L197.089363,20.1693312 L197.089363,16.7425734 C197.089363,15.7274367 197.685555,15.1097609 198.609383,15.1097609 C199.533211,15.1097609 199.973641,15.6039015 199.973641,16.6458937 L199.973641,20.1693312 L200.897469,20.1693312 L200.897469,16.4203078 C200.897469,15.0453078 200.172371,14.2772414 198.872567,14.2772414 C197.986336,14.2772414 197.422371,14.6532179 197.132332,15.2923781 L197.046395,15.2923781 L197.046395,14.3792921 L196.165535,14.3792921 L196.165535,20.1693312 Z" mask="url(#t-war-f)"/>
    </g>
    <path fill="#F5A623" d="M234.5,70 L231.5,73 L228.5,70 L193,70 C191.895431,70 191,69.1045695 191,68 L191,47 L191,47 C191,45.8954305 191.895431,45 193,45 L193,45 L269,45 C270.104569,45 271,45.8954305 271,47 L271,68 C271,69.1045695 270.104569,70 269,70 L234.5,70 Z"/>
    <path fill="#22E800" d="M126.804856,109 L122.834,105 L118.863144,109 L97.3340002,109 L97.3340002,109 C96.2294307,109 95.3340002,109.895431 95.3340002,111 L95.3340002,132 C95.3340002,133.104569 96.2294307,134 97.3340002,134 L97.3340002,134 L148.334,134 C149.43857,134 150.334,133.104569 150.334,132 L150.334,111 C150.334,109.895431 149.43857,109 148.334,109 L126.804856,109 Z"/>
    <path fill="#002D3E" d="M105.264 122.05C105.264 121.04 104.614 120.78 103.824 120.78L102.704 120.78 102.704 123.23 103.784 123.23C104.454 123.23 105.264 123.04 105.264 122.05zM104.994 118.91C104.994 118.15 104.494 117.86 103.674 117.86L102.704 117.86 102.704 120.02 103.754 120.02C104.554 120.02 104.994 119.69 104.994 118.91zM106.264 122.03C106.264 123.54 104.944 124 103.654 124L101.754 124 101.754 117.11 103.504 117.11C104.734 117.11 105.964 117.5 105.964 118.85 105.964 119.73 105.344 120.19 104.764 120.32L104.764 120.36C105.454 120.49 106.264 120.89 106.264 122.03zM111.154 121.36C111.154 119.99 110.714 119.35 109.844 119.35 108.964 119.35 108.514 119.99 108.514 121.37 108.514 122.74 108.954 123.38 109.834 123.38 110.714 123.38 111.154 122.74 111.154 121.36zM107.534 121.37C107.534 119.74 108.344 118.61 109.844 118.61 111.344 118.61 112.134 119.69 112.134 121.36 112.134 122.99 111.324 124.12 109.834 124.12 108.334 124.12 107.534 123.04 107.534 121.37zM115.794 119.34C114.954 119.34 114.474 120 114.474 121.37 114.474 122.73 114.904 123.39 115.694 123.39 116.254 123.39 116.664 123.01 116.944 122.58L116.944 119.99C116.664 119.58 116.264 119.34 115.794 119.34zM115.554 118.61C116.144 118.61 116.594 118.82 116.944 119.22L116.944 116.5 117.864 116.61 117.864 124 117.054 124 116.974 123.32C116.594 123.86 116.074 124.12 115.484 124.12 114.114 124.12 113.484 123.01 113.484 121.37 113.484 119.78 114.254 118.61 115.554 118.61zM124.254 118.73L123.304 118.73 121.874 123.26 121.834 123.26 120.394 118.73 119.414 118.73 121.234 124 121.544 124C121.264 124.8 120.944 125.23 119.864 125.41L119.994 126.13C121.414 125.99 122.034 125.14 122.414 124.03L124.254 118.73zM129.604 121.26L129.604 120.48 126.064 120.48 126.064 121.26 129.604 121.26zM133.804 123.26L132.114 123.26 132.114 124 136.134 124 136.134 123.26 134.724 123.26 134.724 117.11 133.914 117.11 131.714 118.48 132.154 119.12 133.804 118.12 133.804 123.26zM139.834 123.39C140.674 123.39 141.164 122.57 141.164 120.55 141.164 118.54 140.674 117.72 139.834 117.72 139.004 117.72 138.504 118.54 138.504 120.55 138.504 122.57 139.004 123.39 139.834 123.39zM139.834 124.12C138.334 124.12 137.554 122.84 137.554 120.55 137.554 118.27 138.334 116.99 139.834 116.99 141.334 116.99 142.114 118.27 142.114 120.55 142.114 122.84 141.334 124.12 139.834 124.12zM139.184 120.55C139.184 120.19 139.464 119.9 139.834 119.9 140.214 119.9 140.494 120.19 140.494 120.55 140.494 120.92 140.214 121.21 139.834 121.21 139.464 121.21 139.184 120.92 139.184 120.55zM200.71 59.63L200.32 52.74 199.05 52.74 198.04 57.34 198 57.34 196.94 52.74 195.68 52.74 195.29 59.63 196.17 59.63 196.34 56.1C196.38 55.21 196.36 54.02 196.36 53.79L196.4 53.79 197.54 58.4 198.45 58.4 199.54 53.79 199.57 53.79C199.56 54.01 199.56 55.13 199.61 56.1L199.81 59.63 200.71 59.63zM204.7 54.36L202.22 54.36 202.22 55.07 203.78 55.07 203.78 58.92 202.17 58.92 202.17 59.63 206.17 59.63 206.17 58.92 204.7 58.92 204.7 54.36zM204.89 52.48C204.89 52.13 204.62 51.86 204.24 51.86 203.86 51.86 203.6 52.13 203.6 52.48 203.6 52.84 203.86 53.11 204.24 53.11 204.62 53.11 204.89 52.84 204.89 52.48zM210.36 58.97C209.48 58.97 208.84 58.4 208.84 57.02 208.84 55.65 209.47 55 210.36 55 210.82 55 211.27 55.13 211.7 55.45L212.15 54.83C211.66 54.42 211.04 54.24 210.36 54.24 208.77 54.24 207.85 55.43 207.85 57.02 207.85 58.67 208.76 59.75 210.35 59.75 210.95 59.75 211.66 59.55 212.15 59.15L211.71 58.52C211.28 58.84 210.8 58.97 210.36 58.97zM217.52 58.92L216.05 58.92 216.05 56.54C216.23 55.81 216.77 55.14 217.43 55.14 217.65 55.14 217.81 55.16 218.07 55.23L218.24 54.32C217.94 54.26 217.79 54.24 217.54 54.24 216.92 54.24 216.34 54.63 216.04 55.37L215.93 54.36 213.92 54.36 213.92 55.07 215.13 55.07 215.13 58.92 213.92 58.92 213.92 59.63 217.52 59.63 217.52 58.92zM223.32 56.99C223.32 55.62 222.88 54.98 222.01 54.98 221.13 54.98 220.68 55.62 220.68 57 220.68 58.37 221.12 59.01 222 59.01 222.88 59.01 223.32 58.37 223.32 56.99zM219.7 57C219.7 55.37 220.51 54.24 222.01 54.24 223.51 54.24 224.3 55.32 224.3 56.99 224.3 58.62 223.49 59.75 222 59.75 220.5 59.75 219.7 58.67 219.7 57zM232.89 52.13L232.89 55.03C233.27 54.53 233.78 54.24 234.38 54.24 235.78 54.24 236.35 55.33 236.35 56.99 236.35 58.59 235.62 59.75 234.26 59.75 233.66 59.75 233.19 59.54 232.84 59.09L232.78 59.63 231.97 59.63 231.97 52.24 232.89 52.13zM234.04 59.02C234.88 59.02 235.36 58.37 235.36 56.99 235.36 55.62 234.94 54.97 234.16 54.97 233.6 54.97 233.17 55.37 232.89 55.79L232.89 58.36C233.16 58.77 233.57 59.02 234.04 59.02zM237.97 54.36L237.97 58.19C237.97 59.17 238.47 59.75 239.49 59.75 240.11 59.75 240.76 59.46 241.17 58.93L241.24 59.63 242.03 59.63 242.03 54.36 241.11 54.36 241.11 58.22C240.83 58.66 240.29 59.03 239.74 59.03 239.16 59.03 238.89 58.76 238.89 58.08L238.89 54.36 237.97 54.36zM247.97 58.73C247.7 58.89 247.36 58.99 246.97 58.99 246.27 58.99 245.99 58.7 245.99 58.11L245.99 55.06 247.69 55.06 247.8 54.36 245.99 54.36 245.99 53.06 245.07 53.17 245.07 54.36 243.87 54.36 243.87 55.06 245.07 55.06 245.07 58.12C245.07 59.08 245.71 59.75 246.87 59.75 247.39 59.75 247.95 59.6 248.32 59.36L247.97 58.73zM253.97 58.73C253.7 58.89 253.36 58.99 252.97 58.99 252.27 58.99 251.99 58.7 251.99 58.11L251.99 55.06 253.69 55.06 253.8 54.36 251.99 54.36 251.99 53.06 251.07 53.17 251.07 54.36 249.87 54.36 249.87 55.06 251.07 55.06 251.07 58.12C251.07 59.08 251.71 59.75 252.87 59.75 253.39 59.75 253.95 59.6 254.32 59.36L253.97 58.73zM259.32 56.99C259.32 55.62 258.88 54.98 258.01 54.98 257.13 54.98 256.68 55.62 256.68 57 256.68 58.37 257.12 59.01 258 59.01 258.88 59.01 259.32 58.37 259.32 56.99zM255.7 57C255.7 55.37 256.51 54.24 258.01 54.24 259.51 54.24 260.3 55.32 260.3 56.99 260.3 58.62 259.49 59.75 258 59.75 256.5 59.75 255.7 58.67 255.7 57zM262.89 59.63L262.89 55.81C263.17 55.4 263.68 54.96 264.25 54.96 265.02 54.96 265.12 55.37 265.12 56.4L265.12 59.63 266.04 59.63 266.04 55.8C266.04 54.82 265.58 54.24 264.56 54.24 263.94 54.24 263.26 54.54 262.83 55.08L262.76 54.36 261.97 54.36 261.97 59.63 262.89 59.63z"/>
  </g>
</svg>
