<svg xmlns="http://www.w3.org/2000/svg" xmlns:xlink="http://www.w3.org/1999/xlink" width="500" height="230" viewBox="0 0 500 230">
  <defs>
    <path id="title-a" d="M13.6929417,11.0118641 L8.73994165,1.1058641 C8.40121551,0.428135952 7.70860308,0 6.95094165,0 C6.19328022,0 5.50066779,0.428135952 5.16194165,1.1058641 L0.208941651,11.0158641 C-0.0989581202,11.6354894 -0.0647229393,12.3702439 0.299459428,12.9585541 C0.663641796,13.5468644 1.30603325,13.9051512 1.99794165,13.9058641 L11.9029417,13.9058641 C12.5961777,13.9061872 13.2401412,13.5474994 13.6048048,12.957926 C13.9694684,12.3683526 14.0028183,11.6319873 13.6929417,11.0118641 L13.6929417,11.0118641 Z M5.95094165,3.9058641 C5.95094165,3.35357935 6.3986569,2.9058641 6.95094165,2.9058641 C7.5032264,2.9058641 7.95094165,3.35357935 7.95094165,3.9058641 L7.95094165,7.9058641 C7.95094165,8.45814885 7.5032264,8.9058641 6.95094165,8.9058641 C6.3986569,8.9058641 5.95094165,8.45814885 5.95094165,7.9058641 L5.95094165,3.9058641 Z M6.95094165,12.1558641 C6.26058571,12.1558641 5.70094165,11.59622 5.70094165,10.9058641 C5.70094165,10.2155082 6.26058571,9.6558641 6.95094165,9.6558641 C7.64129759,9.6558641 8.20094165,10.2155082 8.20094165,10.9058641 C8.20094165,11.59622 7.64129759,12.1558641 6.95094165,12.1558641 L6.95094165,12.1558641 Z"/>
    <rect id="title-c" width="60" height="24" rx="3"/>
    <path id="title-e" d="M7.22254109,5.98945674 L11.7593901,1.45260771 C12.0842229,1.11628355 12.0795773,0.581679455 11.7489489,0.251051076 C11.4183205,-0.0795773034 10.8837165,-0.0842228685 10.5473923,0.240609874 L6.01054326,4.77745891 L1.47369422,0.240609874 C1.13737006,-0.0842228685 0.602765966,-0.0795773034 0.272137586,0.251051076 C-0.0584907931,0.581679455 -0.0631363582,1.11628355 0.261696384,1.45260771 L4.79854542,5.98945674 L0.261696384,10.5263058 C0.0388768524,10.7415121 -0.0504852845,11.0602002 0.0279563816,11.359882 C0.106398048,11.6595638 0.340436167,11.893602 0.640118002,11.9720436 C0.939799836,12.0504853 1.25848791,11.9611231 1.47369422,11.7383036 L6.01054326,7.20145458 L10.5473923,11.7383036 C10.8837165,12.0631364 11.4183205,12.0584908 11.7489489,11.7278624 C12.0795773,11.397234 12.0842229,10.8626299 11.7593901,10.5263058 L7.22254109,5.98945674 Z"/>
  </defs>
  <g fill="none" fill-rule="evenodd">
    <rect width="497" height="250" fill="#F9F9FA"/>
    <g transform="translate(20 99)">
      <rect width="457" height="32" fill="#FF0039" rx="3"/>
      <g transform="translate(4 4)">
        <rect width="24" height="24"/>
        <g transform="translate(5 5)">
          <mask id="title-b" fill="#fff">
            <use xlink:href="#title-a"/>
          </mask>
          <use fill="#0C0C0D" fill-opacity=".8" fill-rule="nonzero" xlink:href="#title-a"/>
          <g fill="#FFF" mask="url(#title-b)">
            <rect width="200" height="200" transform="translate(-93 -93)"/>
          </g>
        </g>
      </g>
      <g transform="translate(365 4)">
        <mask id="title-d" fill="#fff">
          <use xlink:href="#title-c"/>
        </mask>
        <use fill="#737373" xlink:href="#title-c"/>
        <g fill="#D70022" mask="url(#title-d)">
          <rect width="60" height="24"/>
        </g>
        <g font-family="SFUIText-Semibold, SF UI Text" font-size="11.7" font-weight="500" mask="url(#title-d)">
          <text transform="translate(7 5)">
            <tspan x="3.756" y="11" fill="#FFF">RETRY</tspan>
          </text>
        </g>
      </g>
      <text fill="#FFF" font-family="SFUIText-Bold, SF UI Text" font-size="13" font-weight="bold">
        <tspan x="32" y="18"> Error loading extensions</tspan> <tspan x="194.392" y="18" font-family="SFUIText-Regular, SF UI Text" font-weight="normal"> Your extension is invalid. </tspan>
      </text>
      <g transform="translate(429 4)">
        <rect width="24" height="24"/>
        <g transform="translate(6 6)">
          <mask id="title-f" fill="#fff">
            <use xlink:href="#title-e"/>
          </mask>
          <use fill="#0C0C0D" fill-opacity=".8" fill-rule="nonzero" xlink:href="#title-e"/>
          <g fill="#FFF" mask="url(#title-f)">
            <rect width="200" height="200" transform="translate(-89 -91)"/>
          </g>
        </g>
      </g>
    </g>
  </g>
</svg>
