<svg xmlns="http://www.w3.org/2000/svg" xmlns:xlink="http://www.w3.org/1999/xlink" width="500" height="230" viewBox="0 0 500 230">
  <defs>
    <path id="title-a" d="M13.6929417,11.0118641 L8.73994165,1.1058641 C8.40121551,0.428135952 7.70860308,0 6.95094165,0 C6.19328022,0 5.50066779,0.428135952 5.16194165,1.1058641 L0.208941651,11.0158641 C-0.0989581202,11.6354894 -0.0647229393,12.3702439 0.299459428,12.9585541 C0.663641796,13.5468644 1.30603325,13.9051512 1.99794165,13.9058641 L11.9029417,13.9058641 C12.5961777,13.9061872 13.2401412,13.5474994 13.6048048,12.957926 C13.9694684,12.3683526 14.0028183,11.6319873 13.6929417,11.0118641 L13.6929417,11.0118641 Z M5.95094165,3.9058641 C5.95094165,3.35357935 6.3986569,2.9058641 6.95094165,2.9058641 C7.5032264,2.9058641 7.95094165,3.35357935 7.95094165,3.9058641 L7.95094165,7.9058641 C7.95094165,8.45814885 7.5032264,8.9058641 6.95094165,8.9058641 C6.3986569,8.9058641 5.95094165,8.45814885 5.95094165,7.9058641 L5.95094165,3.9058641 Z M6.95094165,12.1558641 C6.26058571,12.1558641 5.70094165,11.59622 5.70094165,10.9058641 C5.70094165,10.2155082 6.26058571,9.6558641 6.95094165,9.6558641 C7.64129759,9.6558641 8.20094165,10.2155082 8.20094165,10.9058641 C8.20094165,11.59622 7.64129759,12.1558641 6.95094165,12.1558641 L6.95094165,12.1558641 Z"/>
    <rect id="title-c" width="60" height="24" rx="3"/>
    <path id="title-e" d="M7.22254109,5.98945674 L11.7593901,1.45260771 C12.0842229,1.11628355 12.0795773,0.581679455 11.7489489,0.251051076 C11.4183205,-0.0795773034 10.8837165,-0.0842228685 10.5473923,0.240609874 L6.01054326,4.77745891 L1.47369422,0.240609874 C1.13737006,-0.0842228685 0.602765966,-0.0795773034 0.272137586,0.251051076 C-0.0584907931,0.581679455 -0.0631363582,1.11628355 0.261696384,1.45260771 L4.79854542,5.98945674 L0.261696384,10.5263058 C0.0388768524,10.7415121 -0.0504852845,11.0602002 0.0279563816,11.359882 C0.106398048,11.6595638 0.340436167,11.893602 0.640118002,11.9720436 C0.939799836,12.0504853 1.25848791,11.9611231 1.47369422,11.7383036 L6.01054326,7.20145458 L10.5473923,11.7383036 C10.8837165,12.0631364 11.4183205,12.0584908 11.7489489,11.7278624 C12.0795773,11.397234 12.0842229,10.8626299 11.7593901,10.5263058 L7.22254109,5.98945674 Z"/>
  </defs>
  <g fill="none" fill-rule="evenodd">
    <rect width="500" height="230" fill="none"/>
    <g transform="translate(20 99)">
      <rect width="457" height="32" fill="#FF0039" rx="3"/>
      <g transform="translate(4 4)">
        <rect width="24" height="24"/>
        <g transform="translate(5 5)">
          <mask id="title-b" fill="#fff">
            <use xlink:href="#title-a"/>
          </mask>
          <use fill="#0C0C0D" fill-opacity=".8" fill-rule="nonzero" xlink:href="#title-a"/>
          <g fill="#FFF" mask="url(#title-b)">
            <rect width="200" height="200" transform="translate(-93 -93)"/>
          </g>
        </g>
      </g>
      <g transform="translate(365 4)">
        <mask id="title-d" fill="#fff">
          <use xlink:href="#title-c"/>
        </mask>
        <use fill="#737373" xlink:href="#title-c"/>
        <g fill="#D70022" mask="url(#title-d)">
          <rect width="60" height="24"/>
        </g>
        <g font-family="SFUIText-Semibold, SF UI Text" font-size="11.7" font-weight="500" mask="url(#title-d)">
          <text transform="translate(7 5)">
            <tspan x="3.756" y="11" fill="#FFF">RETRY</tspan>
          </text>
        </g>
      </g>
      <path fill="#FFF" d="M42.5307617,19.3623047 L38.3793945,19.3623047 L38.3793945,17.1342773 L42.2958984,17.1342773 L42.2958984,15.6171875 L38.3793945,15.6171875 L38.3793945,13.4780273 L42.5307617,13.4780273 L42.5307617,11.840332 L36.4624023,11.840332 L36.4624023,21 L42.5307617,21 L42.5307617,19.3623047 Z M44.3652344,21 L46.2124023,21 L46.2124023,17.121582 C46.2124023,16.1376953 46.9042969,15.5410156 47.9135742,15.5410156 C48.2119141,15.5410156 48.6435547,15.5981445 48.7895508,15.6552734 L48.7895508,13.9731445 C48.6308594,13.9160156 48.3198242,13.8842773 48.065918,13.8842773 C47.1772461,13.8842773 46.4536133,14.4174805 46.2695312,15.1157227 L46.1552734,15.1157227 L46.1552734,13.9985352 L44.3652344,13.9985352 L44.3652344,21 Z M50.0844727,21 L51.9316406,21 L51.9316406,17.121582 C51.9316406,16.1376953 52.6235352,15.5410156 53.6328125,15.5410156 C53.9311523,15.5410156 54.362793,15.5981445 54.5087891,15.6552734 L54.5087891,13.9731445 C54.3500977,13.9160156 54.0390625,13.8842773 53.7851562,13.8842773 C52.8964844,13.8842773 52.1728516,14.4174805 51.9887695,15.1157227 L51.8745117,15.1157227 L51.8745117,13.9985352 L50.0844727,13.9985352 L50.0844727,21 Z M58.6855469,21.1523438 C56.5336914,21.1523438 55.2387695,19.7875977 55.2387695,17.4960938 C55.2387695,15.2299805 56.5527344,13.8461914 58.6855469,13.8461914 C60.8183594,13.8461914 62.1323242,15.2236328 62.1323242,17.4960938 C62.1323242,19.7875977 60.8374023,21.1523438 58.6855469,21.1523438 Z M58.6855469,19.6416016 C59.6694336,19.6416016 60.234375,18.8544922 60.234375,17.4960938 C60.234375,16.1503906 59.6630859,15.3569336 58.6855469,15.3569336 C57.7016602,15.3569336 57.1367188,16.1503906 57.1367188,17.4960938 C57.1367188,18.8608398 57.6953125,19.6416016 58.6855469,19.6416016 Z M63.6367188,21 L65.4838867,21 L65.4838867,17.121582 C65.4838867,16.1376953 66.1757812,15.5410156 67.1850586,15.5410156 C67.4833984,15.5410156 67.9150391,15.5981445 68.0610352,15.6552734 L68.0610352,13.9731445 C67.9023438,13.9160156 67.5913086,13.8842773 67.3374023,13.8842773 C66.4487305,13.8842773 65.7250977,14.4174805 65.5410156,15.1157227 L65.4267578,15.1157227 L65.4267578,13.9985352 L63.6367188,13.9985352 L63.6367188,21 Z M72.7075195,21 L74.5546875,21 L74.5546875,11.3261719 L72.7075195,11.3261719 L72.7075195,21 Z M79.5756836,21.1523438 C77.4238281,21.1523438 76.1289062,19.7875977 76.1289062,17.4960938 C76.1289062,15.2299805 77.4428711,13.8461914 79.5756836,13.8461914 C81.7084961,13.8461914 83.0224609,15.2236328 83.0224609,17.4960938 C83.0224609,19.7875977 81.7275391,21.1523438 79.5756836,21.1523438 Z M79.5756836,19.6416016 C80.5595703,19.6416016 81.1245117,18.8544922 81.1245117,17.4960938 C81.1245117,16.1503906 80.5532227,15.3569336 79.5756836,15.3569336 C78.5917969,15.3569336 78.0268555,16.1503906 78.0268555,17.4960938 C78.0268555,18.8608398 78.5854492,19.6416016 79.5756836,19.6416016 Z M87.0532227,19.7177734 C87.9101562,19.7177734 88.5576172,19.171875 88.5576172,18.4609375 L88.5576172,17.9467773 L87.1420898,18.0356445 C86.3486328,18.0927734 85.9614258,18.378418 85.9614258,18.8798828 C85.9614258,19.4003906 86.4121094,19.7177734 87.0532227,19.7177734 Z M86.4438477,21.1079102 C85.0981445,21.1079102 84.1523438,20.2827148 84.1523438,19.0004883 C84.1523438,17.730957 85.1235352,16.9946289 86.862793,16.8930664 L88.5576172,16.7915039 L88.5576172,16.2202148 C88.5576172,15.6362305 88.1386719,15.3061523 87.3769531,15.3061523 C86.7104492,15.3061523 86.2661133,15.534668 86.1137695,15.9536133 L84.4125977,15.9536133 C84.5332031,14.6586914 85.7202148,13.8461914 87.4785156,13.8461914 C89.3320312,13.8461914 90.3793945,14.722168 90.3793945,16.2202148 L90.3793945,21 L88.5893555,21 L88.5893555,20.0859375 L88.4750977,20.0859375 C88.1132812,20.7270508 87.3515625,21.1079102 86.4438477,21.1079102 Z M94.7021484,21.1079102 C92.9375,21.1079102 91.8520508,19.7241211 91.8520508,17.4897461 C91.8520508,15.2617188 92.9438477,13.8842773 94.7021484,13.8842773 C95.6479492,13.8842773 96.4287109,14.3413086 96.7905273,15.1157227 L96.8984375,15.1157227 L96.8984375,11.3261719 L98.7456055,11.3261719 L98.7456055,21 L96.9555664,21 L96.9555664,19.9018555 L96.8413086,19.9018555 C96.4667969,20.6572266 95.6733398,21.1079102 94.7021484,21.1079102 Z M95.3305664,15.4331055 C94.3466797,15.4331055 93.75,16.2138672 93.75,17.4960938 C93.75,18.7910156 94.340332,19.5654297 95.3305664,19.5654297 C96.3208008,19.5654297 96.9174805,18.784668 96.9174805,17.5024414 C96.9174805,16.2265625 96.3144531,15.4331055 95.3305664,15.4331055 Z M100.675293,21 L102.522461,21 L102.522461,13.9985352 L100.675293,13.9985352 L100.675293,21 Z M101.602051,13.0209961 C102.262207,13.0209961 102.693848,12.6337891 102.693848,12.0878906 C102.693848,11.5356445 102.262207,11.1547852 101.602051,11.1547852 C100.935547,11.1547852 100.510254,11.5356445 100.510254,12.0878906 C100.510254,12.6337891 100.935547,13.0209961 101.602051,13.0209961 Z M104.388672,21 L106.23584,21 L106.23584,16.9628906 C106.23584,16.0424805 106.762695,15.4394531 107.619629,15.4394531 C108.495605,15.4394531 108.908203,15.9472656 108.908203,16.9121094 L108.908203,21 L110.755371,21 L110.755371,16.4741211 C110.755371,14.7983398 109.91748,13.8461914 108.362305,13.8461914 C107.327637,13.8461914 106.616699,14.3349609 106.292969,15.1220703 L106.178711,15.1220703 L106.178711,13.9985352 L104.388672,13.9985352 L104.388672,21 Z M115.655762,19.4384766 C116.658691,19.4384766 117.255371,18.6704102 117.255371,17.4389648 C117.255371,16.2075195 116.652344,15.4331055 115.655762,15.4331055 C114.65918,15.4331055 114.081543,16.2075195 114.081543,17.4326172 C114.081543,18.6704102 114.652832,19.4384766 115.655762,19.4384766 Z M115.630371,23.6533203 C113.770508,23.6533203 112.539062,22.8344727 112.424805,21.6030273 L114.25293,21.6030273 C114.348145,22.034668 114.868652,22.3076172 115.668457,22.3076172 C116.658691,22.3076172 117.236328,21.8505859 117.236328,21.0634766 L117.236328,19.7685547 L117.12207,19.7685547 C116.734863,20.5048828 115.998535,20.8984375 115.014648,20.8984375 C113.269043,20.8984375 112.183594,19.5463867 112.183594,17.4389648 C112.183594,15.2680664 113.275391,13.8842773 115.052734,13.8842773 C115.998535,13.8842773 116.804688,14.3540039 117.179199,15.1220703 L117.293457,15.1220703 L117.293457,13.9985352 L119.083496,13.9985352 L119.083496,20.9746094 C119.083496,22.6186523 117.744141,23.6533203 115.630371,23.6533203 Z M127.316406,15.2617188 C126.459473,15.2617188 125.856445,15.8583984 125.792969,16.7661133 L128.776367,16.7661133 C128.738281,15.8393555 128.179688,15.2617188 127.316406,15.2617188 Z M128.814453,19.0068359 L130.534668,19.0068359 C130.255371,20.3271484 129.049316,21.1523438 127.335449,21.1523438 C125.202637,21.1523438 123.945801,19.8066406 123.945801,17.5341797 C123.945801,15.2553711 125.228027,13.8461914 127.310059,13.8461914 C129.373047,13.8461914 130.591797,15.1601562 130.591797,17.3818359 L130.591797,17.9467773 L125.786621,17.9467773 L125.786621,18.0419922 C125.812012,19.0830078 126.421387,19.7304688 127.38623,19.7304688 C128.116211,19.7304688 128.617676,19.4702148 128.814453,19.0068359 Z M134.686035,18.7148438 L135.987305,21 L138.043945,21 L135.828613,17.4580078 L138.024902,13.9985352 L136.006348,13.9985352 L134.768555,16.2963867 L134.654297,16.2963867 L133.416504,13.9985352 L131.296387,13.9985352 L133.505371,17.5405273 L131.309082,21 L133.270508,21 L134.571777,18.7148438 L134.686035,18.7148438 Z M139.897461,12.3354492 L139.897461,14.0683594 L138.805664,14.0683594 L138.805664,15.5219727 L139.897461,15.5219727 L139.897461,19.1083984 C139.897461,20.4731445 140.570312,21.0253906 142.271484,21.0253906 C142.626953,21.0253906 142.969727,20.9873047 143.198242,20.9428711 L143.198242,19.5336914 C143.020508,19.5527344 142.893555,19.559082 142.652344,19.559082 C142.023926,19.559082 141.744629,19.2797852 141.744629,18.6704102 L141.744629,15.5219727 L143.198242,15.5219727 L143.198242,14.0683594 L141.744629,14.0683594 L141.744629,12.3354492 L139.897461,12.3354492 Z M147.711426,15.2617188 C146.854492,15.2617188 146.251465,15.8583984 146.187988,16.7661133 L149.171387,16.7661133 C149.133301,15.8393555 148.574707,15.2617188 147.711426,15.2617188 Z M149.209473,19.0068359 L150.929688,19.0068359 C150.650391,20.3271484 149.444336,21.1523438 147.730469,21.1523438 C145.597656,21.1523438 144.34082,19.8066406 144.34082,17.5341797 C144.34082,15.2553711 145.623047,13.8461914 147.705078,13.8461914 C149.768066,13.8461914 150.986816,15.1601562 150.986816,17.3818359 L150.986816,17.9467773 L146.181641,17.9467773 L146.181641,18.0419922 C146.207031,19.0830078 146.816406,19.7304688 147.78125,19.7304688 C148.51123,19.7304688 149.012695,19.4702148 149.209473,19.0068359 Z M152.497559,21 L154.344727,21 L154.344727,16.9628906 C154.344727,16.0424805 154.871582,15.4394531 155.728516,15.4394531 C156.604492,15.4394531 157.01709,15.9472656 157.01709,16.9121094 L157.01709,21 L158.864258,21 L158.864258,16.4741211 C158.864258,14.7983398 158.026367,13.8461914 156.471191,13.8461914 C155.436523,13.8461914 154.725586,14.3349609 154.401855,15.1220703 L154.287598,15.1220703 L154.287598,13.9985352 L152.497559,13.9985352 L152.497559,21 Z M160.495605,16.0551758 C160.495605,17.1342773 161.155762,17.7817383 162.51416,18.0800781 L163.783691,18.3657227 C164.399414,18.4990234 164.666016,18.7084961 164.666016,19.0512695 C164.666016,19.5019531 164.170898,19.800293 163.453613,19.800293 C162.717285,19.800293 162.266602,19.5273438 162.126953,19.0512695 L160.324219,19.0512695 C160.451172,20.3969727 161.568359,21.1523438 163.415527,21.1523438 C165.25,21.1523438 166.500488,20.2382812 166.500488,18.8417969 C166.500488,17.7944336 165.891113,17.2231445 164.532715,16.9248047 L163.21875,16.6391602 C162.571289,16.4931641 162.272949,16.2836914 162.272949,15.940918 C162.272949,15.496582 162.761719,15.1982422 163.421875,15.1982422 C164.107422,15.1982422 164.532715,15.4775391 164.62793,15.9282227 L166.335449,15.9282227 C166.233887,14.5888672 165.186523,13.8461914 163.40918,13.8461914 C161.663574,13.8461914 160.495605,14.7285156 160.495605,16.0551758 Z M168.030273,21 L169.877441,21 L169.877441,13.9985352 L168.030273,13.9985352 L168.030273,21 Z M168.957031,13.0209961 C169.617188,13.0209961 170.048828,12.6337891 170.048828,12.0878906 C170.048828,11.5356445 169.617188,11.1547852 168.957031,11.1547852 C168.290527,11.1547852 167.865234,11.5356445 167.865234,12.0878906 C167.865234,12.6337891 168.290527,13.0209961 168.957031,13.0209961 Z M174.847656,21.1523438 C172.695801,21.1523438 171.400879,19.7875977 171.400879,17.4960938 C171.400879,15.2299805 172.714844,13.8461914 174.847656,13.8461914 C176.980469,13.8461914 178.294434,15.2236328 178.294434,17.4960938 C178.294434,19.7875977 176.999512,21.1523438 174.847656,21.1523438 Z M174.847656,19.6416016 C175.831543,19.6416016 176.396484,18.8544922 176.396484,17.4960938 C176.396484,16.1503906 175.825195,15.3569336 174.847656,15.3569336 C173.86377,15.3569336 173.298828,16.1503906 173.298828,17.4960938 C173.298828,18.8608398 173.857422,19.6416016 174.847656,19.6416016 Z M179.798828,21 L181.645996,21 L181.645996,16.9628906 C181.645996,16.0424805 182.172852,15.4394531 183.029785,15.4394531 C183.905762,15.4394531 184.318359,15.9472656 184.318359,16.9121094 L184.318359,21 L186.165527,21 L186.165527,16.4741211 C186.165527,14.7983398 185.327637,13.8461914 183.772461,13.8461914 C182.737793,13.8461914 182.026855,14.3349609 181.703125,15.1220703 L181.588867,15.1220703 L181.588867,13.9985352 L179.798828,13.9985352 L179.798828,21 Z M187.796875,16.0551758 C187.796875,17.1342773 188.457031,17.7817383 189.81543,18.0800781 L191.084961,18.3657227 C191.700684,18.4990234 191.967285,18.7084961 191.967285,19.0512695 C191.967285,19.5019531 191.472168,19.800293 190.754883,19.800293 C190.018555,19.800293 189.567871,19.5273438 189.428223,19.0512695 L187.625488,19.0512695 C187.752441,20.3969727 188.869629,21.1523438 190.716797,21.1523438 C192.55127,21.1523438 193.801758,20.2382812 193.801758,18.8417969 C193.801758,17.7944336 193.192383,17.2231445 191.833984,16.9248047 L190.52002,16.6391602 C189.872559,16.4931641 189.574219,16.2836914 189.574219,15.940918 C189.574219,15.496582 190.062988,15.1982422 190.723145,15.1982422 C191.408691,15.1982422 191.833984,15.4775391 191.929199,15.9282227 L193.636719,15.9282227 C193.535156,14.5888672 192.487793,13.8461914 190.710449,13.8461914 C188.964844,13.8461914 187.796875,14.7285156 187.796875,16.0551758 Z M202.897949,21 L202.897949,17.0581055 L206.147949,11.840332 L204.84668,11.840332 L202.377441,15.9091797 L202.275879,15.9091797 L199.806641,11.840332 L198.505371,11.840332 L201.755371,17.0581055 L201.755371,21 L202.897949,21 Z M209.353516,21.1206055 C207.404785,21.1206055 206.19873,19.7749023 206.19873,17.5786133 C206.19873,15.3759766 207.404785,14.0366211 209.353516,14.0366211 C211.302246,14.0366211 212.508301,15.3759766 212.508301,17.5786133 C212.508301,19.7749023 211.302246,21.1206055 209.353516,21.1206055 Z M209.353516,20.1367188 C210.648438,20.1367188 211.378418,19.1972656 211.378418,17.5786133 C211.378418,15.9536133 210.648438,15.0205078 209.353516,15.0205078 C208.058594,15.0205078 207.328613,15.9536133 207.328613,17.5786133 C207.328613,19.1972656 208.058594,20.1367188 209.353516,20.1367188 Z M219.757324,14.1572266 L218.665527,14.1572266 L218.665527,18.2070312 C218.665527,19.4067383 218.005371,20.1240234 216.799316,20.1240234 C215.70752,20.1240234 215.250488,19.5527344 215.250488,18.3212891 L215.250488,14.1572266 L214.158691,14.1572266 L214.158691,18.5878906 C214.158691,20.206543 214.958496,21.1206055 216.494629,21.1206055 C217.541992,21.1206055 218.271973,20.6889648 218.614746,19.9272461 L218.716309,19.9272461 L218.716309,21 L219.757324,21 L219.757324,14.1572266 Z M221.813965,21 L222.905762,21 L222.905762,16.7597656 C222.905762,15.7949219 223.661133,15.0966797 224.702148,15.0966797 C224.917969,15.0966797 225.311523,15.1347656 225.400391,15.1601562 L225.400391,14.0683594 C225.260742,14.0493164 225.032227,14.0366211 224.854492,14.0366211 C223.946777,14.0366211 223.159668,14.5063477 222.956543,15.1728516 L222.85498,15.1728516 L222.85498,14.1572266 L221.813965,14.1572266 L221.813965,21 Z M233.163574,15.0014648 C232.071777,15.0014648 231.310059,15.8012695 231.227539,17.0136719 L234.998047,17.0136719 C234.972656,15.8012695 234.249023,15.0014648 233.163574,15.0014648 Z M234.966309,19.2290039 L236.058105,19.2290039 C235.728027,20.4033203 234.674316,21.1206055 233.17627,21.1206055 C231.27832,21.1206055 230.091309,19.7495117 230.091309,17.5849609 C230.091309,15.4331055 231.297363,14.0366211 233.17627,14.0366211 C235.023438,14.0366211 236.146973,15.3505859 236.146973,17.4770508 L236.146973,17.8959961 L231.227539,17.8959961 L231.227539,17.9467773 C231.284668,19.2988281 232.040039,20.1557617 233.20166,20.1557617 C234.083984,20.1557617 234.680664,19.8320312 234.966309,19.2290039 Z M240.031738,18.4165039 L241.650391,21 L242.945312,21 L240.590332,17.5341797 L242.913574,14.1572266 L241.675781,14.1572266 L240.069824,16.7026367 L239.968262,16.7026367 L238.343262,14.1572266 L237.041992,14.1572266 L239.409668,17.5786133 L237.067383,21 L238.305176,21 L239.930176,18.4165039 L240.031738,18.4165039 Z M244.894043,12.3862305 L244.894043,14.1572266 L243.789551,14.1572266 L243.789551,15.0712891 L244.894043,15.0712891 L244.894043,19.2226562 C244.894043,20.5302734 245.458984,21.0507812 246.868164,21.0507812 C247.083984,21.0507812 247.293457,21.0253906 247.509277,20.9873047 L247.509277,20.0668945 C247.306152,20.0859375 247.198242,20.0922852 247.001465,20.0922852 C246.290527,20.0922852 245.98584,19.7495117 245.98584,18.9433594 L245.98584,15.0712891 L247.509277,15.0712891 L247.509277,14.1572266 L245.98584,14.1572266 L245.98584,12.3862305 L244.894043,12.3862305 Z M251.793945,15.0014648 C250.702148,15.0014648 249.94043,15.8012695 249.85791,17.0136719 L253.628418,17.0136719 C253.603027,15.8012695 252.879395,15.0014648 251.793945,15.0014648 Z M253.59668,19.2290039 L254.688477,19.2290039 C254.358398,20.4033203 253.304688,21.1206055 251.806641,21.1206055 C249.908691,21.1206055 248.72168,19.7495117 248.72168,17.5849609 C248.72168,15.4331055 249.927734,14.0366211 251.806641,14.0366211 C253.653809,14.0366211 254.777344,15.3505859 254.777344,17.4770508 L254.777344,17.8959961 L249.85791,17.8959961 L249.85791,17.9467773 C249.915039,19.2988281 250.67041,20.1557617 251.832031,20.1557617 C252.714355,20.1557617 253.311035,19.8320312 253.59668,19.2290039 Z M256.491211,21 L257.583008,21 L257.583008,16.9501953 C257.583008,15.7504883 258.287598,15.0205078 259.379395,15.0205078 C260.471191,15.0205078 260.991699,15.6044922 260.991699,16.8359375 L260.991699,21 L262.083496,21 L262.083496,16.5693359 C262.083496,14.9443359 261.226562,14.0366211 259.69043,14.0366211 C258.643066,14.0366211 257.976562,14.480957 257.633789,15.2363281 L257.532227,15.2363281 L257.532227,14.1572266 L256.491211,14.1572266 L256.491211,21 Z M263.917969,16.0297852 C263.917969,17.0200195 264.501953,17.5722656 265.78418,17.8833008 L266.958496,18.1689453 C267.688477,18.3466797 268.043945,18.6640625 268.043945,19.1337891 C268.043945,19.762207 267.383789,20.2001953 266.463379,20.2001953 C265.587402,20.2001953 265.041504,19.8320312 264.857422,19.2543945 L263.733887,19.2543945 C263.854492,20.390625 264.901855,21.1206055 266.425293,21.1206055 C267.980469,21.1206055 269.16748,20.2763672 269.16748,19.0512695 C269.16748,18.0673828 268.54541,17.5087891 267.256836,17.1977539 L266.203125,16.9438477 C265.396973,16.7470703 265.016113,16.4550781 265.016113,15.9853516 C265.016113,15.3759766 265.650879,14.9633789 266.463379,14.9633789 C267.288574,14.9633789 267.821777,15.3251953 267.967773,15.8710938 L269.046875,15.8710938 C268.900879,14.7475586 267.904297,14.0366211 266.469727,14.0366211 C265.016113,14.0366211 263.917969,14.8935547 263.917969,16.0297852 Z M270.906738,21 L271.998535,21 L271.998535,14.1572266 L270.906738,14.1572266 L270.906738,21 Z M271.452637,12.7670898 C271.871582,12.7670898 272.214355,12.4243164 272.214355,12.0053711 C272.214355,11.5864258 271.871582,11.2436523 271.452637,11.2436523 C271.033691,11.2436523 270.690918,11.5864258 270.690918,12.0053711 C270.690918,12.4243164 271.033691,12.7670898 271.452637,12.7670898 Z M276.892578,21.1206055 C274.943848,21.1206055 273.737793,19.7749023 273.737793,17.5786133 C273.737793,15.3759766 274.943848,14.0366211 276.892578,14.0366211 C278.841309,14.0366211 280.047363,15.3759766 280.047363,17.5786133 C280.047363,19.7749023 278.841309,21.1206055 276.892578,21.1206055 Z M276.892578,20.1367188 C278.1875,20.1367188 278.91748,19.1972656 278.91748,17.5786133 C278.91748,15.9536133 278.1875,15.0205078 276.892578,15.0205078 C275.597656,15.0205078 274.867676,15.9536133 274.867676,17.5786133 C274.867676,19.1972656 275.597656,20.1367188 276.892578,20.1367188 Z M281.76123,21 L282.853027,21 L282.853027,16.9501953 C282.853027,15.7504883 283.557617,15.0205078 284.649414,15.0205078 C285.741211,15.0205078 286.261719,15.6044922 286.261719,16.8359375 L286.261719,21 L287.353516,21 L287.353516,16.5693359 C287.353516,14.9443359 286.496582,14.0366211 284.960449,14.0366211 C283.913086,14.0366211 283.246582,14.480957 282.903809,15.2363281 L282.802246,15.2363281 L282.802246,14.1572266 L281.76123,14.1572266 L281.76123,21 Z M293.041016,21 L294.132812,21 L294.132812,14.1572266 L293.041016,14.1572266 L293.041016,21 Z M293.586914,12.7670898 C294.005859,12.7670898 294.348633,12.4243164 294.348633,12.0053711 C294.348633,11.5864258 294.005859,11.2436523 293.586914,11.2436523 C293.167969,11.2436523 292.825195,11.5864258 292.825195,12.0053711 C292.825195,12.4243164 293.167969,12.7670898 293.586914,12.7670898 Z M296.056152,16.0297852 C296.056152,17.0200195 296.640137,17.5722656 297.922363,17.8833008 L299.09668,18.1689453 C299.82666,18.3466797 300.182129,18.6640625 300.182129,19.1337891 C300.182129,19.762207 299.521973,20.2001953 298.601562,20.2001953 C297.725586,20.2001953 297.179688,19.8320312 296.995605,19.2543945 L295.87207,19.2543945 C295.992676,20.390625 297.040039,21.1206055 298.563477,21.1206055 C300.118652,21.1206055 301.305664,20.2763672 301.305664,19.0512695 C301.305664,18.0673828 300.683594,17.5087891 299.39502,17.1977539 L298.341309,16.9438477 C297.535156,16.7470703 297.154297,16.4550781 297.154297,15.9853516 C297.154297,15.3759766 297.789062,14.9633789 298.601562,14.9633789 C299.426758,14.9633789 299.959961,15.3251953 300.105957,15.8710938 L301.185059,15.8710938 C301.039062,14.7475586 300.04248,14.0366211 298.60791,14.0366211 C297.154297,14.0366211 296.056152,14.8935547 296.056152,16.0297852 Z M306.713867,21 L307.805664,21 L307.805664,14.1572266 L306.713867,14.1572266 L306.713867,21 Z M307.259766,12.7670898 C307.678711,12.7670898 308.021484,12.4243164 308.021484,12.0053711 C308.021484,11.5864258 307.678711,11.2436523 307.259766,11.2436523 C306.84082,11.2436523 306.498047,11.5864258 306.498047,12.0053711 C306.498047,12.4243164 306.84082,12.7670898 307.259766,12.7670898 Z M309.887695,21 L310.979492,21 L310.979492,16.9501953 C310.979492,15.7504883 311.684082,15.0205078 312.775879,15.0205078 C313.867676,15.0205078 314.388184,15.6044922 314.388184,16.8359375 L314.388184,21 L315.47998,21 L315.47998,16.5693359 C315.47998,14.9443359 314.623047,14.0366211 313.086914,14.0366211 C312.039551,14.0366211 311.373047,14.480957 311.030273,15.2363281 L310.928711,15.2363281 L310.928711,14.1572266 L309.887695,14.1572266 L309.887695,21 Z M322.805176,14.1572266 L321.637207,14.1572266 L319.764648,19.7939453 L319.663086,19.7939453 L317.790527,14.1572266 L316.622559,14.1572266 L319.155273,21 L320.272461,21 L322.805176,14.1572266 Z M326.118652,20.1621094 C327.242188,20.1621094 328.07373,19.4257812 328.07373,18.4482422 L328.07373,17.8198242 L326.23291,17.9404297 C325.191895,18.0102539 324.734863,18.3720703 324.734863,19.0576172 C324.734863,19.7558594 325.325195,20.1621094 326.118652,20.1621094 Z M325.915527,21.1206055 C324.588867,21.1206055 323.60498,20.3334961 323.60498,19.0830078 C323.60498,17.8579102 324.506348,17.1533203 326.099609,17.0581055 L328.07373,16.9375 L328.07373,16.3154297 C328.07373,15.4711914 327.546875,15.0078125 326.524902,15.0078125 C325.706055,15.0078125 325.134766,15.3188477 324.982422,15.8583984 L323.87793,15.8583984 C324.023926,14.7602539 325.103027,14.0366211 326.562988,14.0366211 C328.232422,14.0366211 329.165527,14.8935547 329.165527,16.3154297 L329.165527,21 L328.124512,21 L328.124512,19.9907227 L328.022949,19.9907227 C327.578613,20.7207031 326.82959,21.1206055 325.915527,21.1206055 Z M331.247559,21 L332.339355,21 L332.339355,11.4404297 L331.247559,11.4404297 L331.247559,21 Z M334.484863,21 L335.57666,21 L335.57666,14.1572266 L334.484863,14.1572266 L334.484863,21 Z M335.030762,12.7670898 C335.449707,12.7670898 335.79248,12.4243164 335.79248,12.0053711 C335.79248,11.5864258 335.449707,11.2436523 335.030762,11.2436523 C334.611816,11.2436523 334.269043,11.5864258 334.269043,12.0053711 C334.269043,12.4243164 334.611816,12.7670898 335.030762,12.7670898 Z M340.191406,21.1206055 C338.439453,21.1206055 337.315918,19.7304688 337.315918,17.5786133 C337.315918,15.4331055 338.452148,14.0366211 340.191406,14.0366211 C341.143555,14.0366211 341.949707,14.4873047 342.336914,15.2363281 L342.432129,15.2363281 L342.432129,11.4404297 L343.523926,11.4404297 L343.523926,21 L342.48291,21 L342.48291,19.9082031 L342.381348,19.9082031 C341.949707,20.6699219 341.137207,21.1206055 340.191406,21.1206055 Z M340.445312,15.0205078 C339.201172,15.0205078 338.445801,15.9853516 338.445801,17.5786133 C338.445801,19.1782227 339.194824,20.1367188 340.445312,20.1367188 C341.689453,20.1367188 342.45752,19.1591797 342.45752,17.5786133 C342.45752,16.0107422 341.683105,15.0205078 340.445312,15.0205078 Z M346.54541,21.0634766 C347.002441,21.0634766 347.370605,20.6889648 347.370605,20.2382812 C347.370605,19.78125 347.002441,19.4130859 346.54541,19.4130859 C346.094727,19.4130859 345.720215,19.78125 345.720215,20.2382812 C345.720215,20.6889648 346.094727,21.0634766 346.54541,21.0634766 Z"/>
      <g transform="translate(429 4)">
        <rect width="24" height="24"/>
        <g transform="translate(6 6)">
          <mask id="title-f" fill="#fff">
            <use xlink:href="#title-e"/>
          </mask>
          <use fill="#0C0C0D" fill-opacity=".8" fill-rule="nonzero" xlink:href="#title-e"/>
          <g fill="#FFF" mask="url(#title-f)">
            <rect width="200" height="200" transform="translate(-89 -91)"/>
          </g>
        </g>
      </g>
    </g>
  </g>
</svg>
