<svg xmlns="http://www.w3.org/2000/svg" xmlns:xlink="http://www.w3.org/1999/xlink" width="350" height="180" viewBox="0 0 350 180">
  <defs>
    <path id="warning-a" d="M13.6929417,11.0118641 L8.73994165,1.1058641 C8.40121551,0.428135952 7.70860308,0 6.95094165,0 C6.19328022,0 5.50066779,0.428135952 5.16194165,1.1058641 L0.208941651,11.0158641 C-0.0989581202,11.6354894 -0.0647229393,12.3702439 0.299459428,12.9585541 C0.663641796,13.5468644 1.30603325,13.9051512 1.99794165,13.9058641 L11.9029417,13.9058641 C12.5961777,13.9061872 13.2401412,13.5474994 13.6048048,12.957926 C13.9694684,12.3683526 14.0028183,11.6319873 13.6929417,11.0118641 L13.6929417,11.0118641 Z M5.95094165,3.9058641 C5.95094165,3.35357935 6.3986569,2.9058641 6.95094165,2.9058641 C7.5032264,2.9058641 7.95094165,3.35357935 7.95094165,3.9058641 L7.95094165,7.9058641 C7.95094165,8.45814885 7.5032264,8.9058641 6.95094165,8.9058641 C6.3986569,8.9058641 5.95094165,8.45814885 5.95094165,7.9058641 L5.95094165,3.9058641 Z M6.95094165,12.1558641 C6.26058571,12.1558641 5.70094165,11.59622 5.70094165,10.9058641 C5.70094165,10.2155082 6.26058571,9.6558641 6.95094165,9.6558641 C7.64129759,9.6558641 8.20094165,10.2155082 8.20094165,10.9058641 C8.20094165,11.59622 7.64129759,12.1558641 6.95094165,12.1558641 L6.95094165,12.1558641 Z"/>
    <rect id="warning-c" width="126" height="24" rx="3"/>
  </defs>
  <g fill="none" fill-rule="evenodd">
    <rect width="350" height="180" fill="none"/>
    <g transform="translate(15 74)">
      <rect width="320" height="32" fill="#FFE900" rx="3"/>
      <g transform="translate(4 4)">
        <rect width="24" height="24"/>
        <g transform="translate(5 5)">
          <mask id="warning-b" fill="#fff">
            <use xlink:href="#warning-a"/>
          </mask>
          <use fill="#0C0C0D" fill-opacity=".8" fill-rule="nonzero" xlink:href="#warning-a"/>
          <g fill="#3E2800" mask="url(#warning-b)">
            <rect width="200" height="200" transform="translate(-93 -93)"/>
          </g>
        </g>
      </g>
      <path fill="#3E2800" d="M38.8427734,19.9716797 L34.3105469,19.9716797 L34.3105469,16.8232422 L38.6079102,16.8232422 L38.6079102,15.8076172 L34.3105469,15.8076172 L34.3105469,12.8686523 L38.8427734,12.8686523 L38.8427734,11.840332 L33.1679688,11.840332 L33.1679688,21 L38.8427734,21 L38.8427734,19.9716797 Z M40.7724609,21 L41.8642578,21 L41.8642578,16.7597656 C41.8642578,15.7949219 42.5561523,15.0205078 43.4511719,15.0205078 C44.3144531,15.0205078 44.8793945,15.5410156 44.8793945,16.3535156 L44.8793945,21 L45.9711914,21 L45.9711914,16.6010742 C45.9711914,15.7314453 46.605957,15.0205078 47.5581055,15.0205078 C48.5229492,15.0205078 48.9990234,15.515625 48.9990234,16.5249023 L48.9990234,21 L50.0908203,21 L50.0908203,16.2709961 C50.0908203,14.8364258 49.3100586,14.0366211 47.9135742,14.0366211 C46.9677734,14.0366211 46.1870117,14.5126953 45.8188477,15.2363281 L45.7172852,15.2363281 C45.3999023,14.5253906 44.7524414,14.0366211 43.8256836,14.0366211 C42.9116211,14.0366211 42.2260742,14.4746094 41.9150391,15.2363281 L41.8134766,15.2363281 L41.8134766,14.1572266 L40.7724609,14.1572266 L40.7724609,21 Z M54.1914062,20.1621094 C55.3149414,20.1621094 56.1464844,19.4257812 56.1464844,18.4482422 L56.1464844,17.8198242 L54.3056641,17.9404297 C53.2646484,18.0102539 52.8076172,18.3720703 52.8076172,19.0576172 C52.8076172,19.7558594 53.3979492,20.1621094 54.1914062,20.1621094 Z M53.9882812,21.1206055 C52.6616211,21.1206055 51.6777344,20.3334961 51.6777344,19.0830078 C51.6777344,17.8579102 52.5791016,17.1533203 54.1723633,17.0581055 L56.1464844,16.9375 L56.1464844,16.3154297 C56.1464844,15.4711914 55.6196289,15.0078125 54.5976562,15.0078125 C53.7788086,15.0078125 53.2075195,15.3188477 53.0551758,15.8583984 L51.9506836,15.8583984 C52.0966797,14.7602539 53.1757812,14.0366211 54.6357422,14.0366211 C56.3051758,14.0366211 57.2382812,14.8935547 57.2382812,16.3154297 L57.2382812,21 L56.1972656,21 L56.1972656,19.9907227 L56.0957031,19.9907227 C55.6513672,20.7207031 54.9023438,21.1206055 53.9882812,21.1206055 Z M59.2822266,21 L60.3740234,21 L60.3740234,14.1572266 L59.2822266,14.1572266 L59.2822266,21 Z M59.828125,12.7670898 C60.2470703,12.7670898 60.5898438,12.4243164 60.5898438,12.0053711 C60.5898438,11.5864258 60.2470703,11.2436523 59.828125,11.2436523 C59.4091797,11.2436523 59.0664062,11.5864258 59.0664062,12.0053711 C59.0664062,12.4243164 59.4091797,12.7670898 59.828125,12.7670898 Z M62.5195312,21 L63.6113281,21 L63.6113281,11.4404297 L62.5195312,11.4404297 L62.5195312,21 Z M69.4257812,21 L70.5175781,21 L70.5175781,14.1572266 L69.4257812,14.1572266 L69.4257812,21 Z M69.9716797,12.7670898 C70.390625,12.7670898 70.7333984,12.4243164 70.7333984,12.0053711 C70.7333984,11.5864258 70.390625,11.2436523 69.9716797,11.2436523 C69.5527344,11.2436523 69.2099609,11.5864258 69.2099609,12.0053711 C69.2099609,12.4243164 69.5527344,12.7670898 69.9716797,12.7670898 Z M72.440918,16.0297852 C72.440918,17.0200195 73.0249023,17.5722656 74.3071289,17.8833008 L75.4814453,18.1689453 C76.2114258,18.3466797 76.5668945,18.6640625 76.5668945,19.1337891 C76.5668945,19.762207 75.9067383,20.2001953 74.9863281,20.2001953 C74.1103516,20.2001953 73.5644531,19.8320312 73.3803711,19.2543945 L72.2568359,19.2543945 C72.3774414,20.390625 73.4248047,21.1206055 74.9482422,21.1206055 C76.503418,21.1206055 77.6904297,20.2763672 77.6904297,19.0512695 C77.6904297,18.0673828 77.0683594,17.5087891 75.7797852,17.1977539 L74.7260742,16.9438477 C73.9199219,16.7470703 73.5390625,16.4550781 73.5390625,15.9853516 C73.5390625,15.3759766 74.1738281,14.9633789 74.9863281,14.9633789 C75.8115234,14.9633789 76.3447266,15.3251953 76.4907227,15.8710938 L77.5698242,15.8710938 C77.4238281,14.7475586 76.4272461,14.0366211 74.9926758,14.0366211 C73.5390625,14.0366211 72.440918,14.8935547 72.440918,16.0297852 Z M83.0732422,21 L84.1650391,21 L84.1650391,16.9501953 C84.1650391,15.7504883 84.8696289,15.0205078 85.9614258,15.0205078 C87.0532227,15.0205078 87.5737305,15.6044922 87.5737305,16.8359375 L87.5737305,21 L88.6655273,21 L88.6655273,16.5693359 C88.6655273,14.9443359 87.8085938,14.0366211 86.2724609,14.0366211 C85.2250977,14.0366211 84.5585938,14.480957 84.2158203,15.2363281 L84.1142578,15.2363281 L84.1142578,14.1572266 L83.0732422,14.1572266 L83.0732422,21 Z M93.4707031,21.1206055 C91.5219727,21.1206055 90.315918,19.7749023 90.315918,17.5786133 C90.315918,15.3759766 91.5219727,14.0366211 93.4707031,14.0366211 C95.4194336,14.0366211 96.6254883,15.3759766 96.6254883,17.5786133 C96.6254883,19.7749023 95.4194336,21.1206055 93.4707031,21.1206055 Z M93.4707031,20.1367188 C94.765625,20.1367188 95.4956055,19.1972656 95.4956055,17.5786133 C95.4956055,15.9536133 94.765625,15.0205078 93.4707031,15.0205078 C92.1757812,15.0205078 91.4458008,15.9536133 91.4458008,17.5786133 C91.4458008,19.1972656 92.1757812,20.1367188 93.4707031,20.1367188 Z M98.7963867,12.3862305 L98.7963867,14.1572266 L97.6918945,14.1572266 L97.6918945,15.0712891 L98.7963867,15.0712891 L98.7963867,19.2226562 C98.7963867,20.5302734 99.3613281,21.0507812 100.770508,21.0507812 C100.986328,21.0507812 101.195801,21.0253906 101.411621,20.9873047 L101.411621,20.0668945 C101.208496,20.0859375 101.100586,20.0922852 100.903809,20.0922852 C100.192871,20.0922852 99.8881836,19.7495117 99.8881836,18.9433594 L99.8881836,15.0712891 L101.411621,15.0712891 L101.411621,14.1572266 L99.8881836,14.1572266 L99.8881836,12.3862305 L98.7963867,12.3862305 Z M112.316895,14.1572266 L111.148926,14.1572266 L109.276367,19.7939453 L109.174805,19.7939453 L107.302246,14.1572266 L106.134277,14.1572266 L108.666992,21 L109.78418,21 L112.316895,14.1572266 Z M116.252441,15.0014648 C115.160645,15.0014648 114.398926,15.8012695 114.316406,17.0136719 L118.086914,17.0136719 C118.061523,15.8012695 117.337891,15.0014648 116.252441,15.0014648 Z M118.055176,19.2290039 L119.146973,19.2290039 C118.816895,20.4033203 117.763184,21.1206055 116.265137,21.1206055 C114.367188,21.1206055 113.180176,19.7495117 113.180176,17.5849609 C113.180176,15.4331055 114.38623,14.0366211 116.265137,14.0366211 C118.112305,14.0366211 119.23584,15.3505859 119.23584,17.4770508 L119.23584,17.8959961 L114.316406,17.8959961 L114.316406,17.9467773 C114.373535,19.2988281 115.128906,20.1557617 116.290527,20.1557617 C117.172852,20.1557617 117.769531,19.8320312 118.055176,19.2290039 Z M120.949707,21 L122.041504,21 L122.041504,16.7597656 C122.041504,15.7949219 122.796875,15.0966797 123.837891,15.0966797 C124.053711,15.0966797 124.447266,15.1347656 124.536133,15.1601562 L124.536133,14.0683594 C124.396484,14.0493164 124.167969,14.0366211 123.990234,14.0366211 C123.08252,14.0366211 122.29541,14.5063477 122.092285,15.1728516 L121.990723,15.1728516 L121.990723,14.1572266 L120.949707,14.1572266 L120.949707,21 Z M126.053223,21 L127.14502,21 L127.14502,14.1572266 L126.053223,14.1572266 L126.053223,21 Z M126.599121,12.7670898 C127.018066,12.7670898 127.36084,12.4243164 127.36084,12.0053711 C127.36084,11.5864258 127.018066,11.2436523 126.599121,11.2436523 C126.180176,11.2436523 125.837402,11.5864258 125.837402,12.0053711 C125.837402,12.4243164 126.180176,12.7670898 126.599121,12.7670898 Z M129.684082,21 L130.775879,21 L130.775879,15.0712891 L132.34375,15.0712891 L132.34375,14.1572266 L130.775879,14.1572266 L130.775879,13.5224609 C130.775879,12.7543945 131.144043,12.4243164 131.797852,12.4243164 C132.013672,12.4243164 132.26123,12.449707 132.407227,12.4814453 L132.407227,11.5673828 C132.140625,11.5229492 131.950195,11.5039062 131.734375,11.5039062 C130.414062,11.5039062 129.684082,12.0878906 129.684082,13.4907227 L129.684082,14.1572266 L128.547852,14.1572266 L128.547852,15.0712891 L129.684082,15.0712891 L129.684082,21 Z M133.956055,21 L135.047852,21 L135.047852,14.1572266 L133.956055,14.1572266 L133.956055,21 Z M134.501953,12.7670898 C134.920898,12.7670898 135.263672,12.4243164 135.263672,12.0053711 C135.263672,11.5864258 134.920898,11.2436523 134.501953,11.2436523 C134.083008,11.2436523 133.740234,11.5864258 133.740234,12.0053711 C133.740234,12.4243164 134.083008,12.7670898 134.501953,12.7670898 Z M139.859375,15.0014648 C138.767578,15.0014648 138.005859,15.8012695 137.92334,17.0136719 L141.693848,17.0136719 C141.668457,15.8012695 140.944824,15.0014648 139.859375,15.0014648 Z M141.662109,19.2290039 L142.753906,19.2290039 C142.423828,20.4033203 141.370117,21.1206055 139.87207,21.1206055 C137.974121,21.1206055 136.787109,19.7495117 136.787109,17.5849609 C136.787109,15.4331055 137.993164,14.0366211 139.87207,14.0366211 C141.719238,14.0366211 142.842773,15.3505859 142.842773,17.4770508 L142.842773,17.8959961 L137.92334,17.8959961 L137.92334,17.9467773 C137.980469,19.2988281 138.73584,20.1557617 139.897461,20.1557617 C140.779785,20.1557617 141.376465,19.8320312 141.662109,19.2290039 Z M147.089355,21.1206055 C145.337402,21.1206055 144.213867,19.7304688 144.213867,17.5786133 C144.213867,15.4331055 145.350098,14.0366211 147.089355,14.0366211 C148.041504,14.0366211 148.847656,14.4873047 149.234863,15.2363281 L149.330078,15.2363281 L149.330078,11.4404297 L150.421875,11.4404297 L150.421875,21 L149.380859,21 L149.380859,19.9082031 L149.279297,19.9082031 C148.847656,20.6699219 148.035156,21.1206055 147.089355,21.1206055 Z M147.343262,15.0205078 C146.099121,15.0205078 145.34375,15.9853516 145.34375,17.5786133 C145.34375,19.1782227 146.092773,20.1367188 147.343262,20.1367188 C148.587402,20.1367188 149.355469,19.1591797 149.355469,17.5786133 C149.355469,16.0107422 148.581055,15.0205078 147.343262,15.0205078 Z"/>
      <g transform="translate(160 4)">
        <mask id="warning-d" fill="#fff">
          <use xlink:href="#warning-c"/>
        </mask>
        <use fill="#737373" xlink:href="#warning-c"/>
        <g fill="#D7B600" mask="url(#warning-d)">
          <rect width="135" height="26" transform="translate(-2 -1)"/>
        </g>
        <g fill="#3E2800" mask="url(#warning-d)">
          <path d="M0.817066378,8.76054691 C0.891333955,10.2573242 2.14245698,11.2056641 4.03342375,11.2056641 C6.03293543,11.2056641 7.27263268,10.2059082 7.27263268,8.60058598 C7.27263268,7.34375006 6.56994714,6.64677741 4.89607022,6.26972664 L3.94773039,6.0526368 C2.92512298,5.81840829 2.50808198,5.49277353 2.50808198,4.93862315 C2.50808198,4.23593761 3.13649993,3.77890637 4.08483976,3.77890637 C4.98747647,3.77890637 5.62732021,4.23593761 5.73015224,4.96147471 L7.1412362,4.96147471 C7.07268151,3.54467786 5.82155848,2.5506349 4.09055265,2.5506349 C2.24528901,2.5506349 1.02273044,3.54467786 1.02273044,5.04145518 C1.02273044,6.26972664 1.72541597,7.01240241 3.22219329,7.34946295 L4.29050382,7.59511724 C5.34738857,7.84077154 5.79870692,8.18925786 5.79870692,8.78339847 C5.79870692,9.47465823 5.09602139,9.9716797 4.12483,9.9716797 C3.07937103,9.9716797 2.34812104,9.49750979 2.25671479,8.76054691 L0.817066378,8.76054691 Z M14.2652107,9.72602541 L10.4032967,9.72602541 L10.4032967,7.41801764 L14.0538337,7.41801764 L14.0538337,6.21831062 L10.4032967,6.21831062 L10.4032967,4.03027355 L14.2652107,4.03027355 L14.2652107,2.75629896 L8.92937093,2.75629896 L8.92937093,11 L14.2652107,11 L14.2652107,9.72602541 Z M17.5158454,11 L17.5158454,5.3899415 L17.6129645,5.3899415 L21.657691,11 L22.9316656,11 L22.9316656,2.75629896 L21.5148688,2.75629896 L21.5148688,8.36064457 L21.4177496,8.36064457 L17.3730231,2.75629896 L16.0933357,2.75629896 L16.0933357,11 L17.5158454,11 Z M24.9711675,2.75629896 L28.0618413,2.75629896 C30.5126714,2.75629896 31.940894,4.25307628 31.940894,6.84101569 C31.940894,9.48608401 30.52981,11 28.0618413,11 L24.9711675,11 L24.9711675,2.75629896 Z M26.4450933,4.03027355 L26.4450933,9.72602541 L27.867603,9.72602541 C29.5072026,9.72602541 30.4384038,8.70341801 30.4384038,6.86386725 C30.4384038,5.06430674 29.4843511,4.03027355 27.867603,4.03027355 L26.4450933,4.03027355 Z M40.7044681,11 L43.5552004,2.75629896 L41.9841556,2.75629896 L39.927515,9.28041995 L39.8303958,9.28041995 L37.7566166,2.75629896 L36.1284428,2.75629896 L39.0077396,11 L40.7044681,11 Z M50.3135499,9.72602541 L46.4516359,9.72602541 L46.4516359,7.41801764 L50.102173,7.41801764 L50.102173,6.21831062 L46.4516359,6.21831062 L46.4516359,4.03027355 L50.3135499,4.03027355 L50.3135499,2.75629896 L44.9777102,2.75629896 L44.9777102,11 L50.3135499,11 L50.3135499,9.72602541 Z M53.6156007,3.97885754 L53.6156007,6.73818366 L55.3180421,6.73818366 C56.2549561,6.73818366 56.7919678,6.2354493 56.7919678,5.36137705 C56.7919678,4.50444347 56.2206788,3.97885754 55.2837647,3.97885754 L53.6156007,3.97885754 Z M53.6156007,7.90932622 L53.6156007,11 L52.1416749,11 L52.1416749,2.75629896 L55.4894288,2.75629896 C57.2204346,2.75629896 58.3058838,3.75034192 58.3058838,5.33281259 C58.3058838,6.41826179 57.7345947,7.32661139 56.7519776,7.6808106 L58.5515381,11 L56.8662354,11 L55.2494874,7.90932622 L53.6156007,7.90932622 Z M61.5622314,11 L61.5622314,2.75629896 L60.0883056,2.75629896 L60.0883056,11 L61.5622314,11 Z M65.0699462,11 L65.0699462,7.65795904 L68.526245,7.65795904 L68.526245,6.42968757 L65.0699462,6.42968757 L65.0699462,4.03027355 L68.8518797,4.03027355 L68.8518797,2.75629896 L63.5960204,2.75629896 L63.5960204,11 L65.0699462,11 Z M71.9539793,11 L71.9539793,2.75629896 L70.4800535,2.75629896 L70.4800535,11 L71.9539793,11 Z M77.4269284,11.2056641 C79.329321,11.2056641 80.7232662,10.0687988 80.9175045,8.38349614 L79.4664303,8.38349614 C79.2664792,9.3089844 78.4723874,9.89169924 77.4269284,9.89169924 C76.0215573,9.89169924 75.1474851,8.73769535 75.1474851,6.87529304 C75.1474851,5.01860361 76.0215573,3.86459973 77.4212155,3.86459973 C78.4609616,3.86459973 79.2550534,4.50444347 79.4607174,5.49277353 L80.9117916,5.49277353 C80.7404049,3.77319348 79.2950436,2.5506349 77.4212155,2.5506349 C75.0846433,2.5506349 73.639282,4.20166027 73.639282,6.88100593 C73.639282,9.5489258 75.0903562,11.2056641 77.4269284,11.2056641 Z M87.624438,11 L86.9274654,8.89194339 L83.8939205,8.89194339 L83.1855221,11 L81.6944576,11 L84.6194576,2.75629896 L86.2761958,2.75629896 L89.2069087,11 L87.624438,11 Z M85.3678462,4.32734386 L84.2366939,7.72651373 L86.5846919,7.72651373 L85.4649654,4.32734386 L85.3678462,4.32734386 Z M93.2344965,11 L93.2344965,4.03027355 L95.7767328,4.03027355 L95.7767328,2.75629896 L89.2240474,2.75629896 L89.2240474,4.03027355 L91.7605708,4.03027355 L91.7605708,11 L93.2344965,11 Z M98.793139,11 L98.793139,2.75629896 L97.3192132,2.75629896 L97.3192132,11 L98.793139,11 Z M104.386059,2.5506349 C106.77976,2.5506349 108.276537,4.21308605 108.276537,6.87529304 C108.276537,9.53178713 106.791186,11.2056641 104.386059,11.2056641 C101.963793,11.2056641 100.478442,9.53750002 100.478442,6.87529304 C100.478442,4.21308605 101.992358,2.5506349 104.386059,2.5506349 Z M104.386059,3.85888684 C102.917846,3.85888684 101.986645,5.03002939 101.986645,6.87529304 C101.986645,8.71484379 102.894994,9.89741213 104.386059,9.89741213 C105.854272,9.89741213 106.768334,8.71484379 106.768334,6.87529304 C106.768334,5.03002939 105.848559,3.85888684 104.386059,3.85888684 Z M111.38435,11 L111.38435,5.3899415 L111.481469,5.3899415 L115.526195,11 L116.80017,11 L116.80017,2.75629896 L115.383373,2.75629896 L115.383373,8.36064457 L115.286254,8.36064457 L111.241527,2.75629896 L109.96184,2.75629896 L109.96184,11 L111.38435,11 Z" transform="translate(4 6)"/>
        </g>
      </g>
    </g>
  </g>
</svg>
