<svg xmlns="http://www.w3.org/2000/svg" xmlns:xlink="http://www.w3.org/1999/xlink" viewBox="0 0 360 240"><defs><rect id="a" width="46" height="22" rx="2"/><rect id="c" width="230" height="266" rx="4"/><filter id="d" width="105.7%" height="104.9%" x="-2.8%" y="-2.1%" filterUnits="objectBoundingBox"><feOffset dy="1" in="SourceAlpha" result="shadowOffsetOuter1"/><feGaussianBlur in="shadowOffsetOuter1" result="shadowBlurOuter1" stdDeviation="2"/><feColorMatrix in="shadowBlurOuter1" values="0 0 0 0 0.0470588235 0 0 0 0 0.0470588235 0 0 0 0 0.0509803922 0 0 0 0.103091033 0"/></filter><rect id="f" width="230" height="122"/><rect id="h" width="230" height="144"/><rect id="i" width="46" height="22" rx="2"/><rect id="k" width="46" height="22" rx="2"/></defs><g fill="none" fill-rule="evenodd"><g transform="translate(65 -73)"><g transform="translate(26 133)"><g fill="#B5007F" transform="translate(21)"><rect width="4" height="1" transform="translate(0 4)"/><rect width="1" height="9"/><rect width="1" height="9" transform="translate(3)"/></g><g transform="translate(0 9)"><rect width="8" height="8" fill="#B5007F" transform="rotate(45 11.086 27.935)"/><g transform="translate(0 4)"><mask id="b" fill="white"><use xlink:href="#a"/></mask><use fill="#ED00B5" xlink:href="#a"/><g fill="#B5007F" mask="url(#b)"><rect width="46" height="22"/></g><text fill="#FFFFFF" font-family="FiraMono-Regular, Fira Mono" font-size="12"><tspan x="8.91" y="15">12px</tspan></text></g></g></g><mask id="e" fill="white"><use xlink:href="#c"/></mask><use fill="black" filter="url(#d)" xlink:href="#c"/><use fill="#FFFFFF" xlink:href="#c"/><g mask="url(#e)"><mask id="g" fill="white"><use xlink:href="#f"/></mask><use fill="#D8D8D8" xlink:href="#f"/><g mask="url(#g)"><use fill="#D7D7DB" xlink:href="#h"/></g></g><rect width="229" height="1" x=".5" y="121.5" stroke="#000000" stroke-opacity=".1" mask="url(#e)"/><rect width="34" height="8" x="16" y="139" fill="#D7D7DB" rx="1"/><rect width="14" height="14" x="16" y="240" fill="#D7D7DB" rx="1"/><rect width="40" height="14" x="34" y="240" fill="#D7D7DB" rx="1"/><rect width="198" height="12" x="16" y="157" fill="#4A4A4F" rx="1"/><rect width="198" height="12" x="16" y="175" fill="#4A4A4F" rx="1"/><rect width="198" height="12" x="16" y="195" fill="#737373" rx="1"/><rect width="113" height="12" x="16" y="213" fill="#737373" rx="1"/></g><path fill="#ED00B5" fill-opacity=".2" d="M81-73v266H69a4 4 0 0 1-4-4V-69a4 4 0 0 1 4-4h12z"/><path fill="#ED00B5" fill-opacity=".2" d="M279-73v266h12a4 4 0 0 0 4-4V-69a4 4 0 0 0-4-4h-12z"/><g transform="translate(50 122)"><rect width="8" height="8" fill="#B5007F" transform="rotate(45 11.086 27.935)"/><g transform="translate(0 4)"><mask id="j" fill="white"><use xlink:href="#i"/></mask><use fill="#ED00B5" xlink:href="#i"/><g fill="#B5007F" mask="url(#j)"><rect width="46" height="22"/></g><path fill="#FFFFFF" d="M15.12 14.18V15h-4.77v-.82h2.03V7.84L10.5 8.98l-.45-.71 2.46-1.54h.9v7.45h1.7zm6.14-4.27c.35.2.63.48.84.87a3 3 0 0 1 .31 1.44c0 .59-.11 1.1-.34 1.55a2.48 2.48 0 0 1-2.26 1.36c-.96 0-1.66-.35-2.1-1.04-.43-.7-.65-1.7-.65-2.99 0-.91.12-1.7.37-2.38.24-.68.6-1.2 1.05-1.57a2.56 2.56 0 0 1 1.65-.55c.6 0 1.15.16 1.65.5l-.4.66c-.39-.23-.81-.34-1.26-.34-.63 0-1.12.3-1.48.88-.36.6-.54 1.4-.56 2.43.26-.39.55-.67.88-.84a2.45 2.45 0 0 1 2.3.02zm-.28 3.86c.27-.36.4-.87.4-1.52 0-1.2-.49-1.81-1.46-1.81-.39 0-.73.1-1.04.32-.3.21-.57.5-.79.86.02.93.16 1.62.44 2.05.27.43.7.65 1.28.65.51 0 .9-.19 1.17-.55zm8.66-1.94c0 1-.21 1.8-.63 2.4-.41.6-1.02.9-1.8.9-.7 0-1.26-.24-1.69-.72v3.01l-1 .12V8.68h.86l.08.88c.23-.32.51-.58.84-.75.32-.18.67-.27 1.05-.27 1.52 0 2.29 1.1 2.29 3.3zm-3.42-2.18c-.26.19-.5.43-.7.72v3.13c.17.25.38.44.63.58.25.14.53.21.82.21.53 0 .93-.2 1.19-.6.26-.4.39-1.03.39-1.86 0-.83-.12-1.45-.35-1.86-.23-.4-.6-.61-1.1-.61-.31 0-.6.1-.88.29zM31.2 15l2.32-3.34-2.05-2.98h1.2l1.47 2.35 1.47-2.35h1.17l-2.06 2.94L37.04 15h-1.22l-1.74-2.71L32.34 15h-1.15z" mask="url(#j)"/></g><rect width="5.61" height="5.61" x="20.27" y="1.16" fill="#B5007F" transform="rotate(-45 23.071 3.964)"/></g><g transform="translate(264 113)"><g fill="#B5007F" transform="translate(15)"><rect width="16" height="1" transform="translate(0 4)"/><rect width="1" height="9"/><rect width="1" height="9" transform="translate(15)"/></g><g transform="translate(0 9)"><rect width="8" height="8" fill="#B5007F" transform="rotate(45 11.086 27.935)"/><g transform="translate(0 4)"><mask id="l" fill="white"><use xlink:href="#k"/></mask><use fill="#ED00B5" xlink:href="#k"/><g fill="#B5007F" mask="url(#l)"><rect width="46" height="22"/></g><path fill="#FFFFFF" d="M15.12 14.18V15h-4.77v-.82h2.03V7.84L10.5 8.98l-.45-.71 2.46-1.54h.9v7.45h1.7zm6.14-4.27c.35.2.63.48.84.87a3 3 0 0 1 .31 1.44c0 .59-.11 1.1-.34 1.55a2.48 2.48 0 0 1-2.26 1.36c-.96 0-1.66-.35-2.1-1.04-.43-.7-.65-1.7-.65-2.99 0-.91.12-1.7.37-2.38.24-.68.6-1.2 1.05-1.57a2.56 2.56 0 0 1 1.65-.55c.6 0 1.15.16 1.65.5l-.4.66c-.39-.23-.81-.34-1.26-.34-.63 0-1.12.3-1.48.88-.36.6-.54 1.4-.56 2.43.26-.39.55-.67.88-.84a2.45 2.45 0 0 1 2.3.02zm-.28 3.86c.27-.36.4-.87.4-1.52 0-1.2-.49-1.81-1.46-1.81-.39 0-.73.1-1.04.32-.3.21-.57.5-.79.86.02.93.16 1.62.44 2.05.27.43.7.65 1.28.65.51 0 .9-.19 1.17-.55zm8.66-1.94c0 1-.21 1.8-.63 2.4-.41.6-1.02.9-1.8.9-.7 0-1.26-.24-1.69-.72v3.01l-1 .12V8.68h.86l.08.88c.23-.32.51-.58.84-.75.32-.18.67-.27 1.05-.27 1.52 0 2.29 1.1 2.29 3.3zm-3.42-2.18c-.26.19-.5.43-.7.72v3.13c.17.25.38.44.63.58.25.14.53.21.82.21.53 0 .93-.2 1.19-.6.26-.4.39-1.03.39-1.86 0-.83-.12-1.45-.35-1.86-.23-.4-.6-.61-1.1-.61-.31 0-.6.1-.88.29zM31.2 15l2.32-3.34-2.05-2.98h1.2l1.47 2.35 1.47-2.35h1.17l-2.06 2.94L37.04 15h-1.22l-1.74-2.71L32.34 15h-1.15z" mask="url(#l)"/></g></g></g><path stroke="#B5007F" stroke-linecap="square" d="M65.5 113.5v8m15-8v8m0-4h-15"/></g></svg>