<svg xmlns="http://www.w3.org/2000/svg" id="Layer_1" xmlns:xlink="http://www.w3.org/1999/xlink" viewBox="0 0 1280 720">
  <style>
    .st0{clip-path:url(#SVGID_2_);} .st1{fill:url(#SVGID_3_);} .st2{fill:url(#SVGID_4_);} .st3{fill:url(#_Path__1_);} .st4{fill:url(#SVGID_5_);} .st5{fill:url(#SVGID_6_);} .st6{fill:url(#SVGID_7_);} .st7{fill:url(#SVGID_8_);} .st8{fill:url(#SVGID_9_);} .st9{fill:url(#SVGID_10_);} .st10{opacity:0.5;fill:url(#SVGID_11_);enable-background:new ;} .st11{opacity:0.5;fill:url(#SVGID_12_);enable-background:new ;} .st12{fill:url(#SVGID_13_);} .st13{fill:url(#SVGID_14_);} .st14{fill:url(#SVGID_15_);} .st15{fill:url(#SVGID_16_);} .st16{fill:url(#SVGID_17_);}
  </style>
  <g id="Layer_2">
    <g id="Layer_1-2">
      <defs>
        <path id="SVGID_1_" d="M0 0h1280v720H0z"/>
      </defs>
      <clipPath id="SVGID_2_">
        <use xlink:href="#SVGID_1_" overflow="visible"/>
      </clipPath>
      <g class="st0">
        <radialGradient id="SVGID_3_" cx="-14091.6006" cy="9311.1455" r="1081.84" fx="-14160.6104" fy="9317.8145" gradientTransform="matrix(0.44 -0.62 -0.91 -0.65 15396.3213 -2710.2974)" gradientUnits="userSpaceOnUse">
          <stop offset="0" stop-color="#FFEA00"/>
          <stop offset=".06" stop-color="#FFDE00"/>
          <stop offset=".17" stop-color="#FFBF00"/>
          <stop offset=".31" stop-color="#FF8E00"/>
          <stop offset=".77" stop-color="#FF272D"/>
          <stop offset=".87" stop-color="#E0255A"/>
          <stop offset=".95" stop-color="#CC2477"/>
          <stop offset="1" stop-color="#C42482"/>
        </radialGradient>
        <path d="M161.9 22.2c24.7 84.7 136.2 189.3 295.9 223.8s180.7-58.4 341.5-20c212.2 50.7 424.7 230 424.7 230s262.5 65.7 68.5-134.3C939.3-71.1 267.2 90.9 161.9 22.2z" class="st1"/>
        <radialGradient id="SVGID_4_" cx="-13887.7803" cy="9541.876" r="743.93" gradientTransform="matrix(0.44 -0.62 -0.91 -0.65 15396.3213 -2710.2974)" gradientUnits="userSpaceOnUse">
          <stop offset="0" stop-color="#FFEA00"/>
          <stop offset=".09" stop-color="#FFEA00" stop-opacity=".95"/>
          <stop offset=".24" stop-color="#FFEA00" stop-opacity=".83"/>
          <stop offset=".45" stop-color="#FFEA00" stop-opacity=".63"/>
          <stop offset=".7" stop-color="#FFEA00" stop-opacity=".36"/>
          <stop offset=".99" stop-color="#FFEA00" stop-opacity=".02"/>
          <stop offset="1" stop-color="#FFEA00" stop-opacity="0"/>
        </radialGradient>
        <path d="M161.9 22.2c24.7 84.7 136.2 189.3 295.9 223.8s180.7-58.4 341.5-20c212.2 50.7 424.7 230 424.7 230s262.5 65.7 68.5-134.3C939.3-71.1 267.2 90.9 161.9 22.2z" class="st2"/>
        <radialGradient id="_Path__1_" cx="-7343.4263" cy="9028.9297" r="1898.5" gradientTransform="matrix(0.6715 -1.0305 -1.0221 -0.6661 14393.376 -1127.0095)" gradientUnits="userSpaceOnUse">
          <stop offset="0" stop-color="#00CCDA"/>
          <stop offset=".22" stop-color="#0083FF"/>
          <stop offset=".26" stop-color="#007AF9"/>
          <stop offset=".33" stop-color="#0060E8"/>
          <stop offset=".33" stop-color="#005FE7"/>
          <stop offset=".44" stop-color="#2639AD"/>
          <stop offset=".52" stop-color="#401E84"/>
          <stop offset=".57" stop-color="#4A1475"/>
        </radialGradient>
        <path id="_Path_" d="M1554.2 1766.6c321.3-493 180-1154-315-1476.7S82.3 104.9-238.7 597.4-418.4 1750.9 76.7 2073.6c494.9 323.9 1156.5 185.5 1477.5-307z" class="st3"/>
        <linearGradient id="SVGID_5_" x1="484.6296" x2="25.2897" y1="-499.8911" y2="1002.699" gradientUnits="userSpaceOnUse" gradientTransform="matrix(0.546 -0.8378 -0.8378 -0.546 459.4786 1452.3154)">
          <stop offset="0" stop-color="#000F43" stop-opacity=".4"/>
          <stop offset=".48" stop-color="#001962" stop-opacity=".17"/>
          <stop offset="1" stop-color="#002079" stop-opacity="0"/>
        </linearGradient>
        <path d="M1646.2 874c1.3 27.5-.1 55.8-2.9 84.4-22.7-54.5-48.2-107.7-76.4-159.5-8.6-32.7-17.8-63.5-30.6-92.1-6.4-14-14.7-30.5-24.9-48.9-57.6-108.9-167.7-259.4-316.7-358.7l-.4-.2c-3.7-2.4-7.3-4.9-11.1-7.2-37.6-24.6-77.5-45.7-119.6-61.6l9.3 4.5c-2.5-1-5-2.1-7.5-3 4.6 1.9 8.9 3.9 13.3 5.9 93.6 46.4 173.5 108.9 212.2 186.1.5 1.2 1 2.3 1.5 3.5-82.6-80.8-183.3-155.4-302-202.8 0 0-56.5-24.8-252.3-63.1-112.7-22-227.5-5.6-317.7 16.4-93.8 9.5-164.3 27.7-206.7 35.5-88.5 16.3-143.6 11.3-176.2 2.9-8.9 5.2-169.7 41.6-178.5 47 38.9 86.9 159.9 359.6 398 422.6 107.9 28.6 248.4 14.5 350.7-29.4 6.1-.9 80.4-13.4 198.4 34.6C928 740.4 1005.3 806.5 1102 931.1c76.4 122.2 99.9 323 31.5 452.2-146.2 276.1-363 270.8-363 270.8 97.9-68.9 157.3-176.9 159.5-264.7 2.1-88.6-2-145.6 29.6-169.2 31.3-23.1 14.1-69-34.3-69.4-48.1-.9-133.2 22.9-173.5 114.3-30.9 69.9-18.6 160.4-121 211.6-6.6 3.3-13.4 6.3-20.3 8.9-7.2 3.1 17-14.2 9.4-11.4-19.2 10.4-56.9 26.5-68.5 29.5-1.9.5 12.5-9.7 10.6-9.2-114.2 35.9-151-1.9-176.4-21.9-20.3-16-38.9-48.1-34.7-79.2 13.7-7.4 23.1-11.4 23.1-11.4s-13.2-1.6-20.1-2.4c.2-1.2.9-2 1.1-3.2 10.6-6.4 35.9-19.5 50.2-25.7 19.3-7.7 31.2-6.4 31.2-6.4s.4-5.1-10.2-8c-4.2-1.3-18.4-4.4-39.1 2.1l.7-.8c10.3-5.3 21-9.7 32.1-13.1-11.8-13.4-22.3-30.3-50.2-46.3-19.6-11.4-24.2-15-33.7-16.5-8.2-1.1-7.7-7.4 2.3-8.3-5.7-2.4-11.7-4.2-17.8-5.3l-.5-.4c-18.4-21.2 8.1-190.2 7.4-204.2-.4-19.8-5.9-43.7-16.8-65.7-6.8-14.8-19.5-30.9-43.3-48.3-17.3-12.3-34.5-11.8-134.5 111.4-27.1 33.8-67.1 38-99.2 34.3-6.6-1.2-12.8-2-19-2.9-6.9-1.4-13.7-3.4-20.3-5.9-48-62-76.8-132.6-81.6-211.8-.8-4.6-6.9 12.1-7.7 7.4-.9-5.4 4.6-33.4 5.3-38.9.9-6.7-28.1 12.8-40.9 38.5-13.1 26-13.5 33.1-16.5 49.6-1.9-8.9 2.3-30.5-.3-26.5-13 28.8-19 71.2-19.9 110.2-3.1-1.8-4.6-3.6-7.6-7.4-3 16.5-1.5 62.8 11.3 84.3-3.3-2.7-6.8-5.3-10.5-7.6 1.9 14.3 4.8 29.3 10.5 44.6l.1.8c-79.2 55.4-124.2 120.2-147.1 185-20.3 4.2-15.2 16.1-94.5 4-4.9-.5 4.6.9 0 0-14.8-3.2 17.6 7.5 0 0 6.4 70.9 8.1 159.7 18.4 208.6.9 1.1 12.6-40.9 0 0-4.4 14.3 3.3 18.2 66.9 62.2 4.6 3.6 10.4 6.8 14.5 10.1 14.7 43.2 29.7 75.9 38.9 90.6 32.7 64.8 92.8 151.9 201.4 269.1 0 0-35.9-49.9-67.5-117.9 51.2 72 142.3 168.7 305.5 282.5-4.8-4.4-41.5-39.4-85.4-91.6 108 77.1 253.3 155.2 449.7 193.6 58.1 11.1 147.9 25.5 258.6 22.4 282.7-52.2 543.9-215.3 712.8-474.4 176.7-270.4 216.7-590.4 137.5-879.8z" class="st4"/>
        <radialGradient id="SVGID_6_" cx="-7593.4482" cy="7106.3115" r="640.37" gradientTransform="matrix(0.77 -0.95 -0.95 -0.77 14157.2178 -1480.9163)" gradientUnits="userSpaceOnUse">
          <stop offset="0" stop-color="#FFEA00"/>
          <stop offset=".5" stop-color="#FF272D"/>
          <stop offset="1" stop-color="#C42482"/>
        </radialGradient>
        <path d="M1642.6 1156.8c175.5-352.1-67.5-716.9-195.4-535.1-115 164.5 112.2 701.8 195.4 535.1z" class="st5"/>
        <radialGradient id="SVGID_7_" cx="-7651.3784" cy="7720.3516" r="1069.37" gradientTransform="matrix(0.77 -0.95 -0.95 -0.77 14157.2178 -1480.9163)" gradientUnits="userSpaceOnUse">
          <stop offset="0" stop-color="#FFE900"/>
          <stop offset=".16" stop-color="#FFAF0E"/>
          <stop offset=".32" stop-color="#FF7A1B"/>
          <stop offset=".47" stop-color="#FF4E26"/>
          <stop offset=".62" stop-color="#FF2C2E"/>
          <stop offset=".76" stop-color="#FF1434"/>
          <stop offset=".89" stop-color="#FF0538"/>
          <stop offset="1" stop-color="#FF0039"/>
        </radialGradient>
        <path d="M1393.6 553.1c15.7-310.7-305.7-436.5-305.7-436.5s44.3 152.8 166.8 316.7c121.4 162.3 129.8 306.9 138.9 119.8z" class="st6"/>
        <radialGradient id="SVGID_8_" cx="-7500.1284" cy="6729.0615" r="981.27" gradientTransform="matrix(0.77 -0.95 -0.95 -0.77 14157.2178 -1480.9163)" gradientUnits="userSpaceOnUse">
          <stop offset="0" stop-color="#FF272D"/>
          <stop offset=".5" stop-color="#C42482"/>
          <stop offset=".99" stop-color="#620700"/>
        </radialGradient>
        <path d="M1546 1671.3c304.9-248.7 233.4-679.9 42.4-567.4-173.2 102.7-187 685.5-42.4 567.4z" class="st7"/>
        <radialGradient id="SVGID_9_" cx="903.5859" cy="304.3421" r="1876.78" fx="970.7155" fy="271.1651" gradientTransform="matrix(0.546 -0.8378 -0.8378 -0.546 459.4786 1452.3154)" gradientUnits="userSpaceOnUse">
          <stop offset=".16" stop-color="#FFEA00"/>
          <stop offset=".23" stop-color="#FFDE00"/>
          <stop offset=".37" stop-color="#FFBF00"/>
          <stop offset=".54" stop-color="#FF8E00"/>
          <stop offset=".76" stop-color="#FF272D"/>
          <stop offset=".8" stop-color="#F92433"/>
          <stop offset=".84" stop-color="#E91C45"/>
          <stop offset=".89" stop-color="#CF0E62"/>
          <stop offset=".94" stop-color="#B5007F"/>
        </radialGradient>
        <path d="M-151.6 195.1c-.3-1.2-.5-1.8-.5-1.8 0 .6.2 1.2.5 1.8zm1680.7 413c-5.8-14.7-33.6-47.5-43.1-66.7-53.4-113.8-124.5-160.7-126.1-161.7-145.5-142.5-215.8-184-355.5-245.7-112.5-49.8-305.5-72.2-416.6-55.2C473.3 96.4 526.6 66.2 433 94.5c-96.7 15.2-191.7 29.2-234.9 42.4-311.9 95.4-346 66.4-349.7 58.2.3 1.2.8 2.9 1.4 5.1-11.5-4-21-7.6-21-7.6s39.9 189.3 215.1 337.8c114.4 97 274.8 135 401.9 121.6 107.8-11.4 193.9-42.6 193.9-42.6h-.1c106.6-3.3 215.4 27.6 312.7 91 243.7 158.8 312.5 485.3 153.5 729.2-21.6 33.2-47 64-75.5 91.5-96.9 100.8-198.2 129.4-259.2 136.8-35 4.3-56.7 1.6-56.7 1.6 104.1-79 170.7-198 177.6-292.3 6.8-95.1 5.6-156.1 39.3-183 33.3-26.5 18.1-74.7-31.5-72.7-49.3 1.6-137.9 31.6-184.1 131.7-35.4 76.6-27.5 173-135.3 233.3-6.9 3.9-14 7.4-21.3 10.6-7.5 3.7 18.2-16.1 10.3-12.8-20.3 12.2-59.8 31.4-71.8 35.2-2 .6 13.4-11 11.3-10.4-119.1 44.5-154.8 5.9-179.8-14.2-20-16.1-37.3-49.6-31.4-83.1 14.5-8.6 24.3-13.4 24.3-13.4s-13.4-1-20.5-1.5c.3-1.3 1-2.2 1.3-3.5 11.2-7.4 37.9-22.8 52.8-30.2 20.2-9.2 32.3-8.5 32.3-8.5s.7-5.5-10-8.1c-4.3-1.2-18.7-3.8-40.3 4.4l.7-.9c10.7-6.2 22-11.4 33.6-15.7-11.5-13.7-21.2-31.4-49.1-47.1-19.5-11.2-24-14.9-33.7-15.9-8.4-.8-7.5-7.5 2.8-9-5.8-2.3-11.8-3.9-18-4.7l-.5-.4c-17.7-21.8 18.3-204.4 18.3-219.4.6-21.3-3.8-46.6-13.7-69.6-6.2-15.5-18.4-32.1-41.9-49.5-10.7-7.7-21.6-10-54.9 22.9-20 19.7-48 52.1-89 103.7-29.6 37.7-70.9 44.2-103.5 42-6.8-.9-13-1.5-19.3-2.1-7-1.2-13.8-2.9-20.5-5.3-46-64-71.8-138.1-72.6-222.8-.5-4.9-7.7 13.3-8.2 8.4-.6-5.8 6.5-36 7.5-42 1.3-7.2-29.5 15.2-44 43.4-14.8 28.6-15.6 36.2-19.5 54.1-1.4-9.4 3.9-32.8 1.1-28.4-14.9 31.5-23.3 77.3-26.2 119.2-3.1-1.7-4.5-3.7-7.5-7.5-3.9 17.9-4.8 67.4 7.2 89.8-3.3-2.8-6.8-5.3-10.4-7.6 1.2 15.2 3.4 31.2 8.4 47.3l.1.8c-84.2 63.6-133.8 135.4-160.7 206.1-21 5.6-53.6 15.4-134.3 6.6-5-.3 5.4 8.1.8 7.4-35.6-6.2-85.7-28.5-116.3-50.2 0 0-4.8 32.1 28.9 83.3 6 9.3 9.1 14.8 12.2 20.3.6 2-13.8-12.6-13.3-11.4 3.7 7.5 6.1 22.2 14.4 33.4 6.3 8.1 8.2 14.9 16.7 24l.5 1.2c-3.1-1.7-11.7-8.7-10.3-6.8 13.1 22.3 27.8 43.6 43.9 63.8 29.1 34.7 70.1 79.7 133 123.6 4.5 3.7 10.3 6.8 14.4 10.1 12.8 45.6 26.5 79.8 35.2 95.1 30.2 67.8 87.3 158.1 192.4 278 0 0-34.2-51.6-63.1-122.9 48.8 74.5 137.1 173.5 298.5 286.9-4.6-4.5-40.5-40.1-82.8-93.7 106.8 77 251.7 153.2 451.2 183.9 117.6 17.7 363.7 42.5 658.9-96.5 0 0 110.5-40.7 243.2-148 10.2-7.7 20.4-15.5 30.7-23.6-3.4 2.4-6.9 4.7-10.3 6.8 86.1-72.8 161.2-157.8 222.9-252.3 229.8-352 156.1-548 156.1-548s0 .5.1 1.5c-1.4-8-3.2-16-5.2-23.9 16.2 89.8-62.9 218.8-97.6 263.8 29-96.3 43.5-162.6 71.4-291.9 3.4-15 6.3-30.8 8.8-47.2.3-1.8.5-3.6.8-5.3.5-3.3 1-6.5 1.4-9.8 8.1-58.1 11-123.7 3.6-198.9-15.3-158-81.5-233.4-127.1-280 4 5 12.6 17.9 18 26.5 39.8 64.1 36.3 146.3 24.4 230.4-20.3-56.9-43.6-112.7-70-167-7-34.1-35.4-61.9-47.1-91.9z" class="st8"/>
        <radialGradient id="SVGID_10_" cx="-7240.6362" cy="8516.459" r="918.2" fx="-6685.8384" fy="9248.0908" gradientTransform="matrix(0.6715 -1.0305 -1.0221 -0.6661 14393.376 -1127.0095)" gradientUnits="userSpaceOnUse">
          <stop offset=".28" stop-color="#FFEA00"/>
          <stop offset=".4" stop-color="#FD0"/>
          <stop offset=".63" stop-color="#FFBA00"/>
          <stop offset=".86" stop-color="#FF9100"/>
          <stop offset=".93" stop-color="#FF6711"/>
          <stop offset=".99" stop-color="#FF4A1D"/>
        </radialGradient>
        <path d="M1645.1 864c-19.1-72.8-47.7-145.7-89.6-214-107.5-175.8-292.1-459.5-621.8-545.7-260.6-68.2-441.5-46.4-636.9 3.5-317.4 81.1-437.1 83.5-486.4 51.4 0 0 108 402.9 445.3 478.5s462.5-138.1 834.9-90.7c438.4 55.8 611.7 584.7 556.1 892.4 6.4-16.9 228.4-615.8-52.2-837.8 5.1 4.2 80 69.8 50.6 262.4z" class="st9"/>
        <linearGradient id="SVGID_11_" x1="-9231.0225" x2="-8494.3223" y1="7481.5444" y2="7669.3345" gradientUnits="userSpaceOnUse" gradientTransform="matrix(0.77 -0.95 -0.95 -0.77 14157.2178 -1480.9163)">
          <stop offset="0" stop-color="#C42482"/>
          <stop offset=".47" stop-color="#FF272D"/>
          <stop offset=".65" stop-color="#FF6F1D"/>
          <stop offset=".81" stop-color="#FFAD0E"/>
          <stop offset=".94" stop-color="#FFD405"/>
          <stop offset="1" stop-color="#FFE302"/>
        </linearGradient>
        <path d="M236.4 909.1c-17.1-12.3-34.9-10.8-143.6 126-44.6 56.4-115 43.2-142.9 35 41.5 57.4 93.9 104.1 167.3 145.2 48.2 26.8 117.8 28.1 156.5 32.2 0 0-2.1-6.1-2.7-8.6-10.8-46.8 21-192.3 21.9-207.4.2-17-3.4-85-56.5-122.4z" class="st10"/>
        <radialGradient id="SVGID_12_" cx="-8977.0391" cy="7713.4917" r="398.24" gradientTransform="matrix(0.77 -0.95 -0.95 -0.77 14157.2178 -1480.9163)" gradientUnits="userSpaceOnUse">
          <stop offset=".63" stop-color="#FFE302" stop-opacity="0"/>
          <stop offset=".67" stop-color="#FFE302" stop-opacity=".05"/>
          <stop offset=".75" stop-color="#FFE302" stop-opacity=".19"/>
          <stop offset=".86" stop-color="#FFE302" stop-opacity=".4"/>
          <stop offset=".99" stop-color="#FFE302" stop-opacity=".7"/>
        </radialGradient>
        <path d="M236.4 909.1c-17.1-12.3-34.9-10.8-143.6 126-44.6 56.4-115 43.2-142.9 35 41.5 57.4 93.9 104.1 167.3 145.2 48.2 26.8 117.8 28.1 156.5 32.2 0 0-2.1-6.1-2.7-8.6-10.8-46.8 21-192.3 21.9-207.4.2-17-3.4-85-56.5-122.4z" class="st11"/>
        <linearGradient id="SVGID_13_" x1="-316.7458" x2="-447.6857" y1="1841.2289" y2="2176.7788" gradientUnits="userSpaceOnUse" gradientTransform="matrix(0.6271 -0.7789 -0.7789 -0.6271 1312.2502 2410.3228)">
          <stop offset="0" stop-color="#891551" stop-opacity=".6"/>
          <stop offset="1" stop-color="#C42482" stop-opacity="0"/>
        </linearGradient>
        <path d="M-509.4 1337.4c-5-.3 5.5 8.1.8 7.4-35.6-6.1-85.3-28.2-116-50.6 0 0-4.8 32.1 28.9 83.3 6 9.3 9.1 14.8 12.2 20.3.6 2-13.8-12.6-13.3-11.4 3.7 7.5 6.1 22.2 13.9 33 6.4 8.9 8.7 15.3 17.6 24.7 2.4 2.7-12.2-9.1-10.7-7.2 61.1 107.7 194.4 207.6 191.8 198.7-42.2-172.1 7.9-305.1 7.9-305.1-17.2 6.5-61 16.2-133.1 6.9z" class="st12"/>
        <linearGradient id="SVGID_14_" x1="-403.9566" x2="-178.1566" y1="-239.8919" y2="-496.3619" gradientUnits="userSpaceOnUse" gradientTransform="matrix(0.6271 -0.7789 -0.7789 -0.6271 266.5902 1156.9127)">
          <stop offset=".01" stop-color="#891551" stop-opacity=".5"/>
          <stop offset=".48" stop-color="#FF272D" stop-opacity=".5"/>
          <stop offset="1" stop-color="#FF272D" stop-opacity="0"/>
        </linearGradient>
        <path d="M874.6 1690.9c-151.2 101.2-339.4 205.5-527.3 74.5-247.2-172.8-49.1-367.5-49.1-367.5-3.5 9.9-2.1 43.5 10 63 16.2 22.8 55.1 70.5 137.6 56.6 129.4-21.9 91.8 278.1 530.4 63.1 10.6-5.8-56.6 80.5-101.6 110.3z" class="st13"/>
        <linearGradient id="SVGID_15_" x1="23.3291" x2="23.4891" y1="-685.7141" y2="-506.2741" gradientUnits="userSpaceOnUse" gradientTransform="matrix(0.6271 -0.7789 -0.7789 -0.6271 266.5902 1156.9127)">
          <stop offset="0" stop-color="#C42482"/>
          <stop offset=".08" stop-color="#C42482" stop-opacity=".81"/>
          <stop offset=".21" stop-color="#C42482" stop-opacity=".57"/>
          <stop offset=".33" stop-color="#C42482" stop-opacity=".36"/>
          <stop offset=".45" stop-color="#C42482" stop-opacity=".2"/>
          <stop offset=".56" stop-color="#C42482" stop-opacity=".09"/>
          <stop offset=".67" stop-color="#C42482" stop-opacity=".02"/>
          <stop offset=".77" stop-color="#C42482" stop-opacity="0"/>
        </linearGradient>
        <path d="M716.3 1658.7c99.4-76.8 168.8-196.6 175.7-290.8 4.4-63.2 1.8-149.7 35.9-179.7-33.2 23.6-54.7 43.8-75 71.7-3.2 4.9-7.2 10.8-11.2 15.8-6.9 10.6-13.2 21.5-18.9 32.8-10 19-11.7 46.2-25.2 63-.7.9 3.8-22.4 3.2-20.7-4.2 10.8-10.6 21.5-16.4 33.4-3.8 7.5-6.8 14-11 21.1C656 1623.6 412.2 1714 412.2 1714c40.5 47.6 192.8 30.7 304.1-55.3z" class="st14"/>
        <linearGradient id="SVGID_16_" x1="821.0878" x2="473.6779" y1="220.022" y2="-712.758" gradientUnits="userSpaceOnUse" gradientTransform="matrix(0.546 -0.8378 -0.8378 -0.546 459.4786 1452.3154)">
          <stop offset="0" stop-color="#FF8E00"/>
          <stop offset=".04" stop-color="#FF8E00" stop-opacity=".86"/>
          <stop offset=".09" stop-color="#FF8E00" stop-opacity=".73"/>
          <stop offset=".13" stop-color="#FF8E00" stop-opacity=".63"/>
          <stop offset=".18" stop-color="#FF8E00" stop-opacity=".56"/>
          <stop offset=".23" stop-color="#FF8E00" stop-opacity=".51"/>
          <stop offset=".28" stop-color="#FF8E00" stop-opacity=".5"/>
          <stop offset=".39" stop-color="#FF8E00" stop-opacity=".48"/>
          <stop offset=".53" stop-color="#FF8E00" stop-opacity=".42"/>
          <stop offset=".68" stop-color="#FF8E00" stop-opacity=".31"/>
          <stop offset=".84" stop-color="#FF8E00" stop-opacity=".17"/>
          <stop offset="1" stop-color="#FF8E00" stop-opacity="0"/>
        </linearGradient>
        <path d="M1091.8 546.6c-198.9-25.3-324.3 23-452.1 62.8 20.6-.9 27.2-.1 39.9.2 130.6-23.2 401.4-6.5 596.5 236.6 367.3 457.7-252.2 927.2-355.9 951.2 287.3 150.2 711.6-218 728.3-626.9-49.4-270.9-230.8-582.4-556.7-623.9z" class="st15"/>
        <linearGradient id="SVGID_17_" x1="676.2673" x2="1409.6674" y1="1163.0577" y2="-476.9323" gradientUnits="userSpaceOnUse" gradientTransform="matrix(0.546 -0.8378 -0.8378 -0.546 459.4786 1452.3154)">
          <stop offset="0" stop-color="#FFF14F"/>
          <stop offset=".27" stop-color="#FFEE4C"/>
          <stop offset=".45" stop-color="#FFE643"/>
          <stop offset=".61" stop-color="#FFD834"/>
          <stop offset=".76" stop-color="#FFC41E"/>
          <stop offset=".89" stop-color="#FFAB02"/>
          <stop offset=".9" stop-color="#FFA900"/>
          <stop offset=".95" stop-color="#FFA000"/>
          <stop offset="1" stop-color="#FF9100"/>
        </linearGradient>
        <path d="M1646.2 865.2c-69.1-343.4-250-612.2-559.4-750.1 0 0 155.4 75.8 258.2 239.4-122.2-126.1-298.1-246.1-539.2-279.9C484 29.5 230.4 135 129 172.3c-153.8 56.6-267 47.7-284.7 37.3C-109.8 286.3 56 536 333.8 543.9c260.3 7.4 432.4-135.9 684.9-150.3 465.2-26.4 627.5 471.6 627.5 471.6z" class="st16"/>
      </g>
    </g>
  </g>
</svg>
