<svg xmlns="http://www.w3.org/2000/svg" xmlns:xlink="http://www.w3.org/1999/xlink" width="1280" height="690" viewBox="0 0 1280 690">
  <defs>
    <rect id="hero-welcome-background-a" width="1280" height="690"/>
    <filter id="hero-welcome-background-c" width="100.2%" height="100.2%" x="-.1%" y="0%" filterUnits="objectBoundingBox">
      <feOffset dy="1" in="SourceAlpha" result="shadowOffsetOuter1"/>
      <feGaussianBlur in="shadowOffsetOuter1" result="shadowBlurOuter1" stdDeviation=".5"/>
      <feColorMatrix in="shadowBlurOuter1" result="shadowMatrixOuter1" values="0 0 0 0 0.0470588235   0 0 0 0 0.0470588235   0 0 0 0 0.0509803922  0 0 0 0.1 0"/>
      <feMerge>
        <feMergeNode in="shadowMatrixOuter1"/>
        <feMergeNode in="SourceGraphic"/>
      </feMerge>
    </filter>
    <radialGradient id="hero-welcome-background-d" cx="82.859%" cy="18.698%" r="181.023%" fx="82.859%" fy="18.698%" gradientTransform="matrix(1 0 0 .36288 0 .12)">
      <stop offset="0%" stop-color="#FFDE00"/>
      <stop offset="28%" stop-color="#FFBF00"/>
      <stop offset="42.9%" stop-color="#FF8E00"/>
      <stop offset="76.9%" stop-color="#FF272D"/>
      <stop offset="87.2%" stop-color="#E0255A"/>
      <stop offset="95.3%" stop-color="#CC2477"/>
      <stop offset="100%" stop-color="#C42482"/>
    </radialGradient>
    <radialGradient id="hero-welcome-background-e" cx="70.449%" cy="13.007%" r="109.56%" fx="70.449%" fy="13.007%" gradientTransform="matrix(.99993 -.01161 .01167 .99463 -.001 .009)">
      <stop offset="0%" stop-color="#00CCDA"/>
      <stop offset="22%" stop-color="#0083FF"/>
      <stop offset="26.1%" stop-color="#007AF9"/>
      <stop offset="33%" stop-color="#0060E8"/>
      <stop offset="33.3%" stop-color="#005FE7"/>
      <stop offset="43.8%" stop-color="#2639AD"/>
      <stop offset="52.2%" stop-color="#401E84"/>
      <stop offset="100%" stop-color="#4A1475"/>
    </radialGradient>
    <linearGradient id="hero-welcome-background-f" x1="57.339%" x2="35.146%" y1="75.22%" y2="6.805%">
      <stop offset="0%" stop-color="#000F43" stop-opacity=".4"/>
      <stop offset="48.5%" stop-color="#001962" stop-opacity=".173"/>
      <stop offset="100%" stop-color="#002079" stop-opacity="0"/>
    </linearGradient>
    <radialGradient id="hero-welcome-background-g" cx="130.293%" cy="-15.673%" r="129.094%" fx="130.293%" fy="-15.673%" gradientTransform="matrix(.92332 0 0 1 .1 0)">
      <stop offset="0%" stop-color="#FFEA00"/>
      <stop offset="49.7%" stop-color="#FF272D"/>
      <stop offset="100%" stop-color="#C42482"/>
    </radialGradient>
    <linearGradient id="hero-welcome-background-h" x1="109.638%" x2="58.396%" y1="-16.193%" y2="74.642%">
      <stop offset="0%" stop-color="#FF9714"/>
      <stop offset="100%" stop-color="#FF2530"/>
    </linearGradient>
    <radialGradient id="hero-welcome-background-i" cx="100%" cy="16.872%" r="119.288%" fx="100%" fy="16.872%" gradientTransform="matrix(-.504 .32778 -.17486 -.94475 1.534 0)">
      <stop offset="0%" stop-color="#C6237F"/>
      <stop offset="100%" stop-color="#620500"/>
    </radialGradient>
    <radialGradient id="hero-welcome-background-j" cx="79.667%" cy="34.895%" r="89.668%" fx="79.667%" fy="34.895%" gradientTransform="matrix(1 0 0 .95947 0 .014)">
      <stop offset="0%" stop-color="#FFEA00"/>
      <stop offset="23.1%" stop-color="#FFDE00"/>
      <stop offset="36.5%" stop-color="#FFBF00"/>
      <stop offset="54.1%" stop-color="#FF8E00"/>
      <stop offset="76.3%" stop-color="#FF272D"/>
      <stop offset="79.6%" stop-color="#F92433"/>
      <stop offset="84.1%" stop-color="#E91C45"/>
      <stop offset="89.3%" stop-color="#CF0E62"/>
      <stop offset="100%" stop-color="#B5007F"/>
    </radialGradient>
    <linearGradient id="hero-welcome-background-k" x1="20.213%" x2="33.813%" y1="3.248%" y2="97.268%">
      <stop offset="0%" stop-color="#FFEA00"/>
      <stop offset="38.164%" stop-color="#FD0"/>
      <stop offset="64.693%" stop-color="#FFBA00"/>
      <stop offset="88.066%" stop-color="#FF9100"/>
      <stop offset="100%" stop-color="#FF4A1D"/>
    </linearGradient>
    <linearGradient id="hero-welcome-background-l" x1="-121.603%" x2="143.041%" y1="64.455%" y2="27.48%">
      <stop offset="0%" stop-color="#C42482" stop-opacity=".5"/>
      <stop offset="47.4%" stop-color="#FF272D" stop-opacity=".5"/>
      <stop offset="48.6%" stop-color="#FF2C2C" stop-opacity=".513"/>
      <stop offset="67.5%" stop-color="#FF7A1A" stop-opacity=".72"/>
      <stop offset="82.9%" stop-color="#FFB20D" stop-opacity=".871"/>
      <stop offset="94.2%" stop-color="#FFD605" stop-opacity=".964"/>
      <stop offset="100%" stop-color="#FFE302"/>
    </linearGradient>
    <linearGradient id="hero-welcome-background-m" x1="56.498%" x2="19.49%" y1="94.893%" y2="5.478%">
      <stop offset="0%" stop-color="#891551" stop-opacity=".6"/>
      <stop offset="100%" stop-color="#C42482" stop-opacity="0"/>
    </linearGradient>
    <linearGradient id="hero-welcome-background-n" x1="8.239%" x2="47.914%" y1="6.892%" y2="47.886%">
      <stop offset="0%" stop-color="#891551" stop-opacity=".5"/>
      <stop offset="48.4%" stop-color="#FF272D" stop-opacity=".5"/>
      <stop offset="100%" stop-color="#FF272D" stop-opacity="0"/>
    </linearGradient>
    <linearGradient id="hero-welcome-background-o" x1="47.509%" x2="50%" y1="102.675%" y2="32.97%">
      <stop offset="0%" stop-color="#C42482"/>
      <stop offset="8.3%" stop-color="#C42482" stop-opacity=".81"/>
      <stop offset="20.6%" stop-color="#C42482" stop-opacity=".565"/>
      <stop offset="32.8%" stop-color="#C42482" stop-opacity=".362"/>
      <stop offset="44.7%" stop-color="#C42482" stop-opacity=".204"/>
      <stop offset="56.2%" stop-color="#C42482" stop-opacity=".091"/>
      <stop offset="67.3%" stop-color="#C42482" stop-opacity=".023"/>
      <stop offset="100%" stop-color="#C42482" stop-opacity="0"/>
    </linearGradient>
    <linearGradient id="hero-welcome-background-p" x1="6.334%" x2="58.667%" y1="1.647%" y2="101.667%">
      <stop offset="0%" stop-color="#FFF14F"/>
      <stop offset="26.8%" stop-color="#FFEE4C"/>
      <stop offset="47.997%" stop-color="#FFE421"/>
      <stop offset="64.365%" stop-color="#FD0"/>
      <stop offset="100%" stop-color="#FF9100"/>
    </linearGradient>
    <linearGradient id="hero-welcome-background-q" x1="71.789%" x2="42.746%" y1="7.159%" y2="81.948%">
      <stop offset="0%" stop-color="#FF8E00"/>
      <stop offset="4%" stop-color="#FF8E00" stop-opacity=".858"/>
      <stop offset="8.4%" stop-color="#FF8E00" stop-opacity=".729"/>
      <stop offset="13%" stop-color="#FF8E00" stop-opacity=".628"/>
      <stop offset="17.8%" stop-color="#FF8E00" stop-opacity=".557"/>
      <stop offset="22.7%" stop-color="#FF8E00" stop-opacity=".514"/>
      <stop offset="28.2%" stop-color="#FF8E00" stop-opacity=".5"/>
      <stop offset="38.9%" stop-color="#FF8E00" stop-opacity=".478"/>
      <stop offset="52.4%" stop-color="#FF8E00" stop-opacity=".416"/>
      <stop offset="67.6%" stop-color="#FF8E00" stop-opacity=".314"/>
      <stop offset="83.8%" stop-color="#FF8E00" stop-opacity=".172"/>
      <stop offset="100%" stop-color="#FF8E00" stop-opacity="0"/>
    </linearGradient>
  </defs>
  <g fill="none" fill-rule="evenodd">
    <mask id="hero-welcome-background-b" fill="#fff">
      <use xlink:href="#hero-welcome-background-a"/>
    </mask>
    <g mask="url(#hero-welcome-background-b)">
      <g filter="url(#hero-welcome-background-c)" transform="rotate(-57 805.05 1669.458)">
        <path fill="url(#hero-welcome-background-d)" fill-rule="nonzero" d="M1853.05795,220.259099 C1795.44917,287.339034 1768.61864,438.307379 1827.03332,591.349419 C1885.448,744.391459 1974.98254,711.152201 2030.79428,867.215773 C2104.46337,1073.14184 2070.17283,1349.76839 2070.17283,1349.76839 C2070.17283,1349.76839 2158.73547,1606.23535 2220.45074,1333.81152 C2357.05238,822.116521 1853.05795,346.266125 1853.05795,220.259099 Z"/>
        <path fill="url(#hero-welcome-background-e)" fill-rule="nonzero" d="M1150.08746,2344.66554 C1740.0464,2344.66554 2217.96808,1864.15775 2217.96808,1271.66563 C2217.96808,679.173518 1740.0464,198.668135 1150.66001,198.668135 C561.273628,198.668135 83.356755,679.175924 83.356755,1271.66563 C82.2140577,1864.7303 560.698671,2344.66554 1150.08746,2344.66554 Z"/>
        <path fill="url(#hero-welcome-background-f)" fill-rule="nonzero" d="M1950.2233,1933.28973 C1927.13895,1949.57545 1902.92205,1964.19337 1877.75705,1977.03218 C1911.09285,1928.18744 1941.84747,1877.63021 1969.89453,1825.56826 C1992.65225,1800.38081 2013.49986,1775.89582 2030.48876,1749.42133 C2038.75707,1736.41382 2048.08148,1720.36314 2057.95198,1701.74319 C2117.90389,1593.72823 2184.00953,1418.92442 2185.88355,1239.37181 L2185.88355,1238.93879 C2185.92685,1234.51956 2185.95332,1230.09792 2185.91723,1225.67147 C2186.2275,1180.60086 2181.61983,1135.63091 2172.176,1091.55971 C2172.65713,1095.00224 2173.08053,1098.44236 2173.51355,1101.88248 C2172.9819,1099.23623 2172.53444,1096.56112 2171.9643,1093.91006 C2172.84477,1098.80321 2173.55204,1103.53277 2174.31224,1108.30323 C2186.56676,1212.26944 2177.83896,1313.68081 2134.18071,1388.44448 C2133.49269,1389.53666 2132.78542,1390.55907 2132.09018,1391.62719 C2154.72761,1277.99738 2162.30069,1152.53404 2137.11323,1026.92635 C2137.11323,1026.92635 2127.04066,965.863019 2052.00996,780.486257 C2008.82322,673.787205 1932.12779,586.309523 1864.36704,522.580697 C1804.97085,449.096846 1751.02591,399.782846 1721.28932,368.472942 C1659.1723,303.064953 1633.13805,254.037228 1622.44722,222.046518 C1613.17814,217.398747 1494.6215,102.226896 1485.20327,97.8389386 C1433.45472,178.073123 1270.70817,429.040706 1348.12531,663.524581 C1383.20972,769.788205 1471.93836,880.076529 1564.79754,941.948171 C1568.87517,946.605564 1620.05357,1002.19117 1644.39182,1127.5631 C1669.52153,1257.08963 1656.30955,1358.15939 1604.58746,1507.61938 C1543.75748,1638.74088 1387.91523,1768.36604 1241.994,1781.62614 C930.035252,1809.96744 815.830483,1624.99724 815.830483,1624.99724 C927.299995,1669.56243 1050.54771,1660.24042 1125.49902,1614.03697 C1201.03732,1567.30666 1246.73078,1532.66008 1283.81672,1546.32193 C1320.38303,1559.92123 1349.49173,1520.44646 1323.37088,1479.52346 C1282.13481,1416.01038 1206.94706,1383.27151 1132.36002,1396.35194 C1056.74233,1408.64255 987.475634,1468.54395 888.395365,1410.53101 C881.982657,1406.8098 875.775774,1402.74469 869.801877,1398.35347 C863.27046,1394.05933 891.034394,1404.8897 884.555902,1400.00857 C865.27439,1389.53425 831.149843,1366.70917 822.296946,1358.59001 C820.822266,1357.23802 837.25786,1363.83198 835.783179,1362.47759 C743.140506,1286.18871 754.711819,1234.65427 757.62269,1202.33158 C759.953792,1176.47294 776.781512,1143.33713 805.137243,1129.8966 C818.83277,1137.37105 827.365711,1143.07732 827.365711,1143.07732 C827.365711,1143.07732 821.524724,1131.14274 818.366068,1124.8519 C819.47268,1124.37076 820.531179,1124.49826 821.632979,1124.02915 C832.853063,1129.44434 857.662824,1143.51515 870.725657,1152.0962 C887.738615,1164.09573 893.161014,1174.79618 893.161014,1174.79618 C893.161014,1174.79618 897.640387,1172.33036 894.327768,1161.86566 C893.124929,1157.57393 887.959937,1143.93614 871.10816,1130.17326 L872.161847,1130.29113 C882.248086,1136.03813 891.801955,1142.67279 900.710032,1150.11633 C905.461247,1132.84115 914.006217,1114.80338 912.127382,1082.53601 C910.979873,1059.84806 911.509123,1053.97339 907.510885,1045.21191 C903.931236,1037.68695 909.517221,1034.75202 915.733494,1042.56567 C914.669507,1036.44334 912.886593,1030.46799 910.421756,1024.76365 L910.474681,1024.17666 C918.232994,997.146461 1074.65742,926.840511 1086.04349,918.622713 C1104.75122,905.385793 1120.43828,888.331072 1132.06893,868.584604 C1140.77027,854.720679 1147.31371,835.27077 1148.90868,805.76753 C1149.7627,784.491711 1139.86573,770.322266 981.697194,753.761576 C938.440692,749.501119 913.060785,718.157536 898.638743,689.234065 C896.006931,683.003358 893.3246,677.357231 890.639863,671.715916 C888.077347,665.120959 886.020172,658.340644 884.486138,651.433641 C910.344774,577.163134 953.793731,514.365306 1017.68133,466.918112 C1021.16235,463.747428 1003.7717,467.731231 1007.25031,464.560547 C1011.30869,460.860614 1037.81686,450.181807 1042.82308,447.776129 C1048.93831,444.889315 1016.64448,431.176948 988.137195,434.51603 C959.103063,437.787752 952.937309,441.251929 937.442335,447.821837 C943.872713,441.420327 964.320979,433.029321 959.526462,433.084651 C928.226181,437.88398 889.331174,456.078125 856.082293,476.685166 C856.017509,473.096811 856.701648,469.534369 858.091035,466.225276 C842.59606,472.79759 804.540635,499.394769 793.462486,521.897485 C793.939902,517.584317 794.153603,513.246029 794.102396,508.906822 C782.298476,518.751414 771.649418,529.903266 762.35947,542.148485 L761.779702,542.675329 C671.90837,506.469869 592.821694,504.126739 525.895722,520.360256 C511.254764,505.65675 504.102682,516.405321 470.788848,443.212557 C468.525105,438.805354 472.525748,447.564429 470.788848,443.212557 C465.308713,429.019055 474.130335,462.150057 470.788848,443.212557 C414.775033,487.40968 341.074671,537.498309 305.696765,572.854564 C305.258932,574.264291 346.968583,561.06674 305.696765,572.854564 C291.24345,576.982708 292.224967,585.558951 290.028582,663.067502 C289.499333,668.944574 289.96844,675.52651 289.492116,680.816597 C261.230207,716.82479 241.982374,747.316764 234.702792,763.117259 C198.15332,826.097918 157.899104,924.278463 118.879002,1079.58665 C136.090105,1037.48959 156.840468,996.928036 180.907012,958.338057 C148.459223,1040.77344 117.091583,1170.2254 110.819979,1369.57674 C118.669296,1328.43981 128.734069,1287.7567 140.970346,1247.70508 C133.310037,1413.09431 161.831194,1578.16318 224.543612,1731.39317 C246.986185,1786.29316 284.108208,1869.61142 347.302973,1960.89489 C545.850824,2169.80159 825.900653,2299.85497 1136.00943,2299.85497 C1459.74638,2299.85737 1750.45577,2158.21344 1950.2233,1933.28973 Z"/>
        <path fill="url(#hero-welcome-background-g)" fill-rule="nonzero" d="M1710.67788,2085.02067 C2102.49071,2039.64958 2275.93771,1635.88053 2053.20077,1627.94179 C1852.00667,1621.51141 1525.08942,2106.43121 1710.67788,2085.02067 Z"/>
        <path fill="url(#hero-welcome-background-h)" fill-rule="nonzero" d="M2081.40975,1545.46551 C2350.98044,1388.5816 2280.69374,1049.70332 2280.69374,1049.70332 C2280.69374,1049.70332 2176.65777,1170.55978 2105.98135,1363.21132 C2036.16616,1553.97921 1919.3392,1640.22037 2081.40975,1545.46551 Z"/>
        <path fill="url(#hero-welcome-background-i)" fill-rule="nonzero" d="M1225.63057,2285.54359 C1601.46249,2405.46906 1924.48014,2109.39982 1725.36935,2010.52644 C1544.33965,1921.35756 1047.24952,2228.83694 1225.63057,2285.54359 Z"/>
        <path fill="url(#hero-welcome-background-j)" fill-rule="nonzero" d="M2109.41666,1689.34913 C2118.55824,1676.44748 2130.92342,1635.13717 2141.8452,1616.67118 C2208.19862,1509.56317 2208.66773,1424.16159 2208.66773,1422.20577 C2248.74393,1222.00762 2245.10895,1140.26027 2220.45555,989.080221 C2200.6063,867.352896 2113.83108,692.960461 2038.65844,608.983041 C1961.1956,522.462819 2015.77082,550.652558 1940.76658,487.452982 C1875.02661,414.577768 1811.28575,342.412228 1776.57181,313.390125 C1525.7173,103.670303 1531.38508,59.1243569 1536.21568,51.5296303 C1535.40015,52.422137 1534.20212,53.7476658 1532.67452,55.4821599 C1529.70351,43.6390053 1527.60575,33.679497 1527.60575,33.679497 C1527.60575,33.679497 1390.48209,170.803163 1361.61395,399.342607 C1342.76786,548.545184 1398.6205,704.084318 1479.49219,803.49657 C1521.60398,855.015862 1569.19564,901.800881 1621.42721,943.025915 L1621.42721,942.963367 C1682.53144,1030.7153 1716.16282,1138.99969 1716.16282,1255.48264 C1716.16282,1547.1567 1479.58601,1783.60361 1187.75076,1783.60361 C1147.97736,1783.62422 1108.32786,1779.17057 1069.55016,1770.32667 C931.858756,1744.08553 852.346275,1674.62638 812.691073,1627.47268 C789.964629,1600.44729 780.301019,1580.74719 780.301019,1580.74719 C903.671422,1624.94191 1040.0806,1615.69688 1123.0332,1569.87833 C1206.62812,1523.53294 1257.20751,1489.17745 1298.2556,1502.72382 C1338.71911,1516.21006 1370.93355,1477.06245 1342.03894,1436.48106 C1313.7217,1395.95741 1240.03818,1337.92042 1130.63274,1353.99998 C1046.9416,1366.18955 970.277439,1425.59296 860.619403,1368.06117 C853.557155,1364.39176 846.68866,1360.36091 840.04123,1355.98466 C832.812167,1351.7242 863.539896,1362.46796 856.368569,1357.62533 C835.030202,1347.23761 797.253835,1324.60018 787.462724,1316.55078 C785.829268,1315.21082 804.021008,1321.74945 802.37793,1320.39987 C699.845513,1244.74369 712.646127,1193.63746 715.872142,1161.58179 C718.453435,1135.93726 737.075791,1103.0757 768.457865,1089.74824 C783.613639,1097.16013 793.058332,1102.81829 793.058332,1102.81829 C793.058332,1102.81829 786.591868,1090.98235 783.096418,1084.74443 C784.320908,1084.27772 785.487662,1084.3956 786.704935,1083.9289 C799.123047,1089.29838 826.58146,1103.24409 841.039587,1111.7626 C859.868831,1123.66349 865.870998,1134.27494 865.870998,1134.27494 C865.870998,1134.27494 870.829102,1131.83077 867.160442,1121.45267 C865.820479,1117.19703 860.11421,1103.6723 841.462986,1090.02248 L842.62974,1090.14036 C853.701629,1095.78403 864.271996,1102.36174 874.225919,1109.80197 C879.484732,1092.67114 888.94386,1074.78251 886.862948,1042.78218 C885.59275,1020.28427 886.179735,1014.45532 881.753287,1005.76841 C877.791135,998.310809 883.976134,995.395127 890.851563,1003.15103 C889.661645,997.033846 887.685421,991.09628 884.972085,985.486138 L885.032227,984.903963 C893.620498,958.09749 1066.74514,888.376119 1079.34608,880.225681 C1099.65149,867.479714 1117.01535,850.562768 1130.28632,830.596537 C1139.90904,816.848085 1147.15975,797.559356 1148.92552,768.301496 C1149.51732,755.118378 1145.45894,744.684951 1099.60911,734.706198 C1072.09056,728.716058 1029.51727,722.8871 963.849466,716.726158 C915.976467,712.501786 887.885361,681.420422 871.923685,652.735113 C869.010409,646.554926 866.041802,640.947289 863.070789,635.361304 C860.246524,628.858066 857.9685,622.131016 856.260313,615.249833 C884.907271,540.255142 936.497916,476.217883 1003.67788,432.266721 C1007.52696,429.120093 988.281536,433.072623 992.130621,429.928401 C996.624428,426.259742 1025.96168,415.669946 1031.50436,413.283513 C1038.27153,410.430378 1002.53037,396.828673 970.979897,400.134075 C938.847251,403.379335 932.022342,406.812238 914.872261,413.331626 C921.990663,406.983041 944.620879,398.656988 939.316359,398.71713 C904.67459,403.475562 861.612948,421.520555 824.806069,441.954387 C824.73869,438.371623 825.499394,434.821674 827.028916,431.581102 C809.878835,438.098085 767.760218,464.476348 755.498476,486.791421 C756.025792,482.519071 756.262093,478.215819 756.205745,473.911419 C743.291501,483.536244 731.508789,494.592625 721.082841,506.869212 L720.440525,507.39365 C620.972942,471.488901 533.442335,469.165015 459.371499,485.261409 C443.166849,470.680593 417.113353,448.63255 380.243926,376.043612 C377.739615,371.672494 376.394841,385.076934 374.470298,380.761147 C360.144484,347.531512 351.488853,293.088605 352.910609,255.555212 C352.910609,255.555212 323.277463,269.06069 298.751572,325.464224 C294.197623,335.604159 291.277129,341.197361 288.359042,346.790563 C287.016673,348.421613 291.402225,328.26684 290.702172,329.363829 C286.43931,336.580864 275.411681,346.665468 270.564239,359.718679 C267.23478,369.391911 262.565358,374.809499 259.584723,386.873976 L258.88467,387.980588 C258.644103,384.424995 259.767554,373.351658 258.949624,375.622618 C247.453763,398.848397 237.560952,422.833722 229.340534,447.410466 C216.135766,490.823337 200.763481,549.916421 198.326529,626.789872 C197.739544,632.618831 198.261576,639.145436 197.732327,644.392221 C166.458508,680.10211 145.149009,710.339082 137.092392,726.012076 C96.6601563,788.489949 52.1069931,885.857374 8.91784966,1039.87612 C28.1331792,997.804177 51.1110314,957.55469 77.5710985,919.618664 C41.6567264,1001.37083 6.94038205,1129.74986 0,1327.45332 C8.71776587,1286.54021 19.8612996,1246.18186 33.3715701,1206.59204 C27.1697313,1338.42321 42.5251763,1501.865 125.867497,1686.26746 C175.352301,1794.73228 289.263577,2015.001 567.598156,2186.88912 L567.5741,2186.90596 C567.5741,2186.90596 662.2616,2257.39234 825.02258,2310.21863 C837.050972,2314.58253 849.235733,2318.87907 861.670684,2323.04811 C857.768674,2321.47239 853.994164,2319.81488 850.327911,2318.11166 C958.66309,2350.57051 1071.14283,2367.10212 1184.23607,2367.1875 C1605.6628,2367.54595 1729.95458,2198.30888 1729.95458,2198.30888 C1729.95458,2198.30888 1729.51674,2198.63846 1728.72046,2199.21582 C1734.6673,2193.617 1740.39522,2187.79767 1745.90423,2181.75781 C1679.41368,2244.54602 1527.67311,2248.71265 1470.93519,2244.18276 C1567.69879,2215.76448 1631.37228,2191.72454 1755.22623,2144.3014 C1769.71964,2138.92872 1784.54022,2132.80226 1799.68798,2125.92202 C1801.32624,2125.20031 1802.97894,2124.41847 1804.62443,2123.6703 C1807.62912,2122.2702 1810.60494,2120.94708 1813.63851,2119.4748 C1873.98268,2091.03814 1930.72496,2055.51506 1982.66628,2013.65623 C2107.03985,1914.30171 2134.10132,1817.45632 2148.24671,1753.6024 C2146.27406,1759.72244 2140.12755,1773.99052 2135.80936,1783.23073 C2103.77775,1851.74926 2032.74769,1893.7933 1955.6048,1929.85202 C1992.31373,1881.68708 2026.35541,1831.54652 2057.5767,1779.65589 C2082.75693,1754.67773 2090.61388,1715.60471 2109.41666,1689.34913 Z"/>
        <path fill="url(#hero-welcome-background-k)" fill-rule="nonzero" d="M1958.03213,1926.90506 C2008.74383,1870.99469 2054.28332,1807.04454 2088.77834,1734.52777 C2177.54788,1547.89043 2314.79664,1237.56274 2206.69989,913.455316 C2121.26703,657.291468 2003.96856,517.220846 1855.03542,380.390673 C1613.15889,158.187786 1545.60504,58.9896389 1545.60504,0 C1545.60504,0 1266.33225,311.31643 1387.45093,636.015649 C1508.56962,960.714868 1756.62633,948.811571 1920.73931,1287.65137 C2113.85514,1686.38053 1764.4929,2121.49316 1475.58296,2243.27823 C1493.27191,2239.34975 2117.82691,2098.01615 2150.64999,1740.77532 C2149.90663,1747.34523 2135.83341,1846.15125 1958.03213,1926.90506 Z"/>
        <path fill="url(#hero-welcome-background-l)" fill-rule="nonzero" d="M1148.93274,768.308713 C1149.87817,747.210914 1138.93474,733.041468 964.460509,716.675638 C892.677472,710.047994 865.190192,643.701791 856.811214,615.779083 C831.286966,682.091606 820.74769,751.675853 826.413062,835.843321 C830.286204,890.981469 867.331245,950.163562 885.039444,984.91118 C885.039444,984.91118 888.975133,979.796708 890.791421,977.905845 C924.136528,943.189501 1063.8463,890.293445 1076.97168,882.782917 C1091.43943,873.643745 1146.503,833.41118 1148.93274,768.308713 Z"/>
        <path fill="url(#hero-welcome-background-m)" fill-rule="nonzero" d="M380.852563,376.418898 C378.348252,372.045374 377.003478,385.449814 375.078935,381.136433 C360.75312,347.906798 352.037348,294.050877 354.10142,255.988234 C354.10142,255.988234 324.468274,269.493712 299.942383,325.897247 C295.388434,336.037181 292.46794,341.630383 289.549852,347.223585 C288.207484,348.854635 292.593035,328.699862 291.892983,329.796851 C287.632527,337.013886 276.604897,347.09849 271.815192,359.567121 C267.843417,369.764791 263.758575,375.240115 260.717797,387.886766 C259.781988,391.324481 261.660823,372.675662 260.842893,374.946623 C203.801853,485.186833 192.913753,651.873881 198.925543,644.825243 C320.359375,515.15918 459.520651,484.407393 459.520651,484.407393 C444.7137,473.500048 412.542564,442.007312 380.854969,376.418898 L380.852563,376.418898 Z"/>
        <path fill="url(#hero-welcome-background-n)" fill-rule="nonzero" d="M841.612138,1732.32898 C673.87862,1660.71434 483.185309,1559.70953 490.383098,1330.24871 C500.186238,1028.0498 772.196289,1087.77799 772.196289,1087.77799 C761.93126,1090.27749 734.487281,1109.81881 724.761123,1130.64718 C714.48166,1156.69345 695.726991,1215.50988 752.549114,1277.15299 C841.773318,1373.84201 569.236423,1506.54885 989.900557,1757.247 C1000.5096,1763.02063 891.289396,1753.80688 841.616949,1732.32898 L841.612138,1732.32898 Z"/>
        <path fill="url(#hero-welcome-background-o)" fill-rule="nonzero" d="M782.023485,1581.73352 C900.965034,1623.12802 1039.5273,1615.86769 1122.4823,1570.04673 C1178.01739,1539.13136 1249.26155,1489.61528 1293.09782,1501.83853 C1255.14344,1486.83672 1226.39798,1479.82658 1191.81876,1478.11373 C1185.92966,1478.11373 1178.8714,1477.98864 1172.45786,1477.34392 C1159.79294,1477.30291 1147.13628,1477.99611 1134.55159,1479.42002 C1113.14105,1481.38786 1089.40663,1494.89575 1067.8301,1492.72823 C1066.66335,1492.61035 1088.7595,1483.6492 1086.96246,1484.05576 C1075.53068,1486.43979 1063.11016,1486.9546 1049.98719,1488.58084 C1041.6467,1489.50943 1034.47297,1490.5535 1026.19262,1490.89751 C778.451053,1511.9063 569.072837,1356.62938 569.072837,1356.62938 C551.251572,1416.65106 648.859566,1535.37128 782.025891,1581.73352 L782.023485,1581.73352 Z"/>
        <path fill="url(#hero-welcome-background-p)" fill-rule="nonzero" d="M1957.59189,1928.50243 C2208.17216,1682.4737 2334.95141,1383.4118 2281.3553,1047.97844 C2281.3553,1047.97844 2302.76584,1219.98445 2221.57901,1395.90689 C2260.58227,1224.1583 2265.12178,1010.72411 2161.49719,789.704816 C2023.18752,494.694074 1795.71861,339.462867 1708.87602,274.702006 C1577.29745,176.576791 1522.7535,76.6689691 1521.76958,56.0523056 C1482.4632,136.5872 1363.55774,412.573838 1508.99543,650.254859 C1645.25305,872.93407 1859.8997,939.030083 2010.16559,1143.29142 C2286.99902,1519.58763 1957.59189,1928.50243 1957.59189,1928.50243 Z"/>
        <path fill="url(#hero-welcome-background-q)" fill-rule="nonzero" d="M1921.68955,1288.36345 C1834.11804,1107.45403 1724.81845,1028.54778 1621.42721,943.025915 C1633.4556,959.865663 1636.4194,965.814906 1643.07832,976.705412 C1734.07791,1073.69274 1868.26665,1310.26715 1770.84389,1607.25055 C1587.46144,2166.27006 853.936428,1903.0287 777.034108,1829.08296 C808.144341,2152.62024 1349.67216,2307.44007 1702.258,2097.62883 C1902.89158,1907.70293 2065.19788,1584.83203 1921.68955,1288.36345 Z"/>
      </g>
    </g>
  </g>
</svg>
