<?xml version="1.0" encoding="utf-8"?>
<!-- Generator: Adobe Illustrator 21.1.0, SVG Export Plug-In . SVG Version: 6.00 Build 0)  -->
<svg version="1.1" id="Layer_1" xmlns="http://www.w3.org/2000/svg" xmlns:xlink="http://www.w3.org/1999/xlink" x="0px" y="0px"
	 viewBox="0 0 12 12" style="enable-background:new 0 0 12 12;" xml:space="preserve">
<style type="text/css">
	.st0{fill:#0A84FF;}
</style>
<g>
	<g>
		<path class="st0" d="M6.3,0C5.8,0,5.5,0.3,5.5,0.8s0.3,0.8,0.8,0.8h3.2L5.2,5.7C5,5.9,5,6.2,5,6.4C5.1,6.7,5.3,6.9,5.6,7
			C5.8,7,6.1,7,6.3,6.8l4.2-4.2v3.2c0,0.4,0.3,0.8,0.8,0.8S12,6.2,12,5.8v-5c0-0.1,0-0.2-0.1-0.3l0,0C11.8,0.2,11.6,0,11.3,0H6.3z"
			/>
	</g>
	<g>
		<path class="st0" d="M3,2.2C1.5,2.2,0.2,3.5,0.2,5v4c0,1.5,1.2,2.8,2.8,2.8h4c1.5,0,2.8-1.2,2.8-2.8c0-0.4-0.3-0.8-0.8-0.8
			S8.2,8.6,8.2,9c0,0.7-0.6,1.2-1.2,1.2H3c-0.7,0-1.2-0.6-1.2-1.2V5c0-0.7,0.6-1.2,1.2-1.2c0.4,0,0.8-0.3,0.8-0.8S3.4,2.2,3,2.2z"/>
	</g>
</g>
</svg>
