<svg xmlns="http://www.w3.org/2000/svg" width="12" height="12" viewBox="0 0 12 12">
  <g fill="#0A84FF">
    <path d="M11.92,0.62 C11.7665964,0.246574493 11.4037019,0.00201514517 11,0 L6,0 C5.44771525,7.72046149e-17 5,0.44771525 5,1 C5,1.55228475 5.44771525,2 6,2 L8.59,2 L4.79,5.79 C4.53634142,6.04365857 4.43727647,6.41337399 4.53012195,6.75987804 C4.62296743,7.1063821 4.8936179,7.37703257 5.24012196,7.46987805 C5.58662601,7.56272353 5.95634143,7.46365858 6.21,7.21 L10,3.41 L10,6 C10,6.55228475 10.4477153,7 11,7 C11.5522847,7 12,6.55228475 12,6 L12,1 C11.99842,0.869322743 11.971241,0.740222313 11.92,0.62 L11.92,0.62 Z"/>
    <path d="M9,8 C8.44771525,8 8,8.44771525 8,9 C8,9.55228475 7.55228475,10 7,10 L3,10 C2.44771525,10 2,9.55228475 2,9 L2,5 C2,4.44771525 2.44771525,4 3,4 C3.55228475,4 4,3.55228475 4,3 C4,2.44771525 3.55228475,2 3,2 C1.34314575,2 2.02906125e-16,3.34314575 0,5 L0,9 C2.02906125e-16,10.6568542 1.34314575,12 3,12 L7,12 C8.65685425,12 10,10.6568542 10,9 C10,8.44771525 9.55228475,8 9,8 Z"/>
  </g>
</svg>
