<svg xmlns="http://www.w3.org/2000/svg" xmlns:xlink="http://www.w3.org/1999/xlink" width="300" height="200" viewBox="0 0 300 200">
  <defs>
    <rect id="button-do-a" width="300" height="232"/>
  </defs>
  <g fill="none" fill-rule="evenodd">
    <g opacity=".05">
      <mask id="button-do-b" fill="#fff">
        <use xlink:href="#button-do-a"/>
      </mask>
      <g fill="#000F40" mask="url(#button-do-b)">
        <rect width="354" height="354" transform="translate(-27 -61)"/>
      </g>
    </g>
    <rect width="268" height="200" x="32" fill="#FFF"/>
    <rect width="172" height="8" x="64" y="32" fill="#0784FF" opacity=".3" rx="4"/>
    <rect width="140" height="8" x="64" y="48" fill="#0784FF" opacity=".3" rx="4"/>
    <rect width="128" height="8" x="64" y="80" fill="#0784FF" opacity=".3" rx="4"/>
    <rect width="160" height="8" x="64" y="64" fill="#0784FF" opacity=".3" rx="4"/>
    <rect width="88" height="32" x="64" y="112" fill="#0A84FF" rx="2"/>
    <path fill="#FFF" d="M79.908,123.732 L78.36,123.732 L76.704,129.744 L74.964,123.732 L73.428,123.732 L72.744,132 L73.824,132 L74.1,128.352 C74.196,127.14 74.256,125.856 74.256,124.884 L76.14,131.064 L77.208,131.064 L78.996,124.896 C79.008,125.58 79.092,126.972 79.2,128.268 L79.488,132 L80.592,132 L79.908,123.732 Z M86.952,130.524 C86.952,131.076 87.156,131.256 87.48,131.376 L87.228,132.144 C86.592,132.072 86.184,131.82 85.992,131.196 C85.548,131.856 84.876,132.144 84.108,132.144 C82.848,132.144 82.092,131.364 82.092,130.236 C82.092,128.88 83.112,128.148 84.876,128.148 L85.848,128.148 L85.848,127.68 C85.848,126.768 85.404,126.432 84.528,126.432 C84.06,126.432 83.472,126.552 82.824,126.768 L82.548,125.964 C83.328,125.676 84.024,125.532 84.732,125.532 C86.256,125.532 86.952,126.312 86.952,127.632 L86.952,130.524 Z M84.36,131.316 C85.008,131.316 85.488,130.992 85.848,130.332 L85.848,128.88 L85.02,128.88 C83.856,128.88 83.268,129.312 83.268,130.176 C83.268,130.92 83.64,131.316 84.36,131.316 Z M90.324,123 L89.22,123.132 L89.22,132 L90.324,132 L90.324,123 Z M93.96,125.676 L92.724,125.676 L90.396,128.544 L92.904,132 L94.224,132 L91.632,128.472 L93.96,125.676 Z M100.14,128.652 C100.14,128.868 100.128,129.072 100.116,129.216 L96.084,129.216 C96.192,130.68 96.876,131.244 97.788,131.244 C98.412,131.244 98.88,131.076 99.432,130.692 L99.912,131.352 C99.288,131.844 98.58,132.144 97.704,132.144 C95.94,132.144 94.908,130.908 94.908,128.904 C94.908,126.936 95.904,125.532 97.536,125.532 C99.24,125.532 100.14,126.72 100.14,128.652 Z M99.048,128.4 L99.048,128.328 C99.048,127.092 98.556,126.408 97.56,126.408 C96.72,126.408 96.168,126.996 96.084,128.4 L99.048,128.4 Z M106.932,123.732 C109.044,123.732 111.072,124.392 111.072,127.824 C111.072,131.196 108.972,132 107.184,132 L105.204,132 L105.204,123.732 L106.932,123.732 Z M107.184,124.644 L106.344,124.644 L106.344,131.1 L107.268,131.1 C108.564,131.1 109.86,130.548 109.86,127.824 C109.86,125.028 108.504,124.644 107.184,124.644 Z M117.648,128.652 C117.648,128.868 117.636,129.072 117.624,129.216 L113.592,129.216 C113.7,130.68 114.384,131.244 115.296,131.244 C115.92,131.244 116.388,131.076 116.94,130.692 L117.42,131.352 C116.796,131.844 116.088,132.144 115.212,132.144 C113.448,132.144 112.416,130.908 112.416,128.904 C112.416,126.936 113.412,125.532 115.044,125.532 C116.748,125.532 117.648,126.72 117.648,128.652 Z M116.556,128.4 L116.556,128.328 C116.556,127.092 116.064,126.408 115.068,126.408 C114.228,126.408 113.676,126.996 113.592,128.4 L116.556,128.4 Z M121.62,123.888 C120.924,123.888 120.684,124.188 120.684,124.8 L120.684,125.676 L122.22,125.676 L122.1,126.528 L120.684,126.528 L120.684,132 L119.58,132 L119.58,126.528 L118.452,126.528 L118.452,125.676 L119.58,125.676 L119.58,124.812 C119.58,123.756 120.276,123 121.56,123 C122.16,123 122.568,123.108 123.072,123.324 L122.724,124.128 C122.316,123.948 121.944,123.888 121.62,123.888 Z M127.752,130.524 C127.752,131.076 127.956,131.256 128.28,131.376 L128.028,132.144 C127.392,132.072 126.984,131.82 126.792,131.196 C126.348,131.856 125.676,132.144 124.908,132.144 C123.648,132.144 122.892,131.364 122.892,130.236 C122.892,128.88 123.912,128.148 125.676,128.148 L126.648,128.148 L126.648,127.68 C126.648,126.768 126.204,126.432 125.328,126.432 C124.86,126.432 124.272,126.552 123.624,126.768 L123.348,125.964 C124.128,125.676 124.824,125.532 125.532,125.532 C127.056,125.532 127.752,126.312 127.752,127.632 L127.752,130.524 Z M125.16,131.316 C125.808,131.316 126.288,130.992 126.648,130.332 L126.648,128.88 L125.82,128.88 C124.656,128.88 124.068,129.312 124.068,130.176 C124.068,130.92 124.44,131.316 125.16,131.316 Z M134.724,125.676 L133.62,125.676 L133.62,130.188 C133.236,130.824 132.72,131.28 132.036,131.28 C131.352,131.28 131.064,130.956 131.064,130.092 L131.064,125.676 L129.96,125.676 L129.96,130.212 C129.96,131.448 130.62,132.144 131.724,132.144 C132.624,132.144 133.212,131.784 133.692,131.016 L133.776,132 L134.724,132 L134.724,125.676 Z M138.264,132.144 C138.588,132.144 138.9,132.06 139.14,131.928 L138.852,131.16 C138.732,131.208 138.6,131.232 138.444,131.232 C138.156,131.232 138.048,131.064 138.048,130.728 L138.048,123 L136.944,123.132 L136.944,130.752 C136.944,131.652 137.46,132.144 138.264,132.144 Z M143.292,130.956 C142.98,131.148 142.728,131.232 142.452,131.232 C141.9,131.232 141.696,130.932 141.696,130.296 L141.696,126.528 L143.076,126.528 L143.196,125.676 L141.696,125.676 L141.696,124.116 L140.592,124.248 L140.592,125.676 L139.488,125.676 L139.488,126.528 L140.592,126.528 L140.592,130.344 C140.592,131.52 141.228,132.144 142.296,132.144 C142.836,132.144 143.292,132 143.712,131.712 L143.292,130.956 Z"/>
    <rect width="2" height="200" x="30" fill="#0784FF"/>
  </g>
</svg>
