<svg xmlns="http://www.w3.org/2000/svg" xmlns:xlink="http://www.w3.org/1999/xlink" width="300" height="200" viewBox="0 0 300 200">
  <defs>
    <rect id="navigation-do-a" width="300" height="232"/>
  </defs>
  <g fill="none" fill-rule="evenodd">
    <g opacity=".05">
      <mask id="navigation-do-b" fill="#fff">
        <use xlink:href="#navigation-do-a"/>
      </mask>
      <g fill="#000F40" mask="url(#navigation-do-b)">
        <rect width="354" height="354" transform="translate(-27 -61)"/>
      </g>
    </g>
    <rect width="268" height="200" x="32" fill="#FFF"/>
    <rect width="2" height="200" x="30" fill="#0784FF"/>
    <rect width="16" height="16" x="40" y="28" fill="#0784FF" fill-opacity=".3" rx="8"/>
    <path fill="#000F40" d="M69.592,63.732 L65.2,63.732 L65.2,72 L66.34,72 L66.34,68.364 L69.04,68.364 L69.04,67.464 L66.34,67.464 L66.34,64.644 L69.46,64.644 L69.592,63.732 Z M71.572,62.64 C71.116,62.64 70.804,62.964 70.804,63.396 C70.804,63.816 71.116,64.14 71.572,64.14 C72.04,64.14 72.352,63.816 72.352,63.396 C72.352,62.964 72.04,62.64 71.572,62.64 Z M72.136,65.676 L71.032,65.676 L71.032,72 L72.136,72 L72.136,65.676 Z M75.676,72.144 C76,72.144 76.312,72.06 76.552,71.928 L76.264,71.16 C76.144,71.208 76.012,71.232 75.856,71.232 C75.568,71.232 75.46,71.064 75.46,70.728 L75.46,63 L74.356,63.132 L74.356,70.752 C74.356,71.652 74.872,72.144 75.676,72.144 Z M82.708,68.652 C82.708,68.868 82.696,69.072 82.684,69.216 L78.652,69.216 C78.76,70.68 79.444,71.244 80.356,71.244 C80.98,71.244 81.448,71.076 82,70.692 L82.48,71.352 C81.856,71.844 81.148,72.144 80.272,72.144 C78.508,72.144 77.476,70.908 77.476,68.904 C77.476,66.936 78.472,65.532 80.104,65.532 C81.808,65.532 82.708,66.72 82.708,68.652 Z M81.616,68.4 L81.616,68.328 C81.616,67.092 81.124,66.408 80.128,66.408 C79.288,66.408 78.736,66.996 78.652,68.4 L81.616,68.4 Z M86.248,65.532 C84.94,65.532 83.968,66.264 83.968,67.272 C83.968,68.16 84.508,68.748 85.876,69.108 C87.1,69.432 87.412,69.672 87.412,70.296 C87.412,70.896 86.884,71.256 86.056,71.256 C85.372,71.256 84.784,71.028 84.28,70.644 L83.692,71.316 C84.244,71.796 85.012,72.144 86.08,72.144 C87.364,72.144 88.576,71.544 88.576,70.224 C88.576,69.12 87.808,68.592 86.476,68.256 C85.456,67.992 85.12,67.752 85.12,67.236 C85.12,66.732 85.564,66.408 86.284,66.408 C86.872,66.408 87.364,66.588 87.928,66.948 L88.396,66.252 C87.796,65.796 87.136,65.532 86.248,65.532 Z M97.576,70.524 C97.576,71.076 97.78,71.256 98.104,71.376 L97.852,72.144 C97.216,72.072 96.808,71.82 96.616,71.196 C96.172,71.856 95.5,72.144 94.732,72.144 C93.472,72.144 92.716,71.364 92.716,70.236 C92.716,68.88 93.736,68.148 95.5,68.148 L96.472,68.148 L96.472,67.68 C96.472,66.768 96.028,66.432 95.152,66.432 C94.684,66.432 94.096,66.552 93.448,66.768 L93.172,65.964 C93.952,65.676 94.648,65.532 95.356,65.532 C96.88,65.532 97.576,66.312 97.576,67.632 L97.576,70.524 Z M94.984,71.316 C95.632,71.316 96.112,70.992 96.472,70.332 L96.472,68.88 L95.644,68.88 C94.48,68.88 93.892,69.312 93.892,70.176 C93.892,70.92 94.264,71.316 94.984,71.316 Z M102.82,65.532 C101.992,65.532 101.32,65.964 100.888,66.612 L100.792,65.676 L99.844,65.676 L99.844,72 L100.948,72 L100.948,67.512 C101.368,66.84 101.848,66.396 102.556,66.396 C103.168,66.396 103.552,66.672 103.552,67.62 L103.552,72 L104.656,72 L104.656,67.464 C104.656,66.264 103.984,65.532 102.82,65.532 Z M110.668,63 L111.772,63.132 L111.772,72 L110.8,72 L110.692,71.124 C110.284,71.76 109.648,72.144 108.868,72.144 C107.332,72.144 106.48,70.836 106.48,68.868 C106.48,66.936 107.416,65.532 108.964,65.532 C109.708,65.532 110.248,65.868 110.668,66.312 L110.668,63 Z M109.108,71.268 C109.816,71.268 110.248,70.92 110.668,70.332 L110.668,67.236 C110.272,66.732 109.828,66.408 109.204,66.408 C108.256,66.408 107.668,67.2 107.668,68.844 C107.668,70.512 108.196,71.268 109.108,71.268 Z M121.696,72 L121.072,69.924 L117.94,69.924 L117.316,72 L116.164,72 L118.816,63.732 L120.256,63.732 L122.896,72 L121.696,72 Z M118.216,69 L120.796,69 L119.512,64.68 L118.216,69 Z M127.012,65.532 C128.692,65.532 129.352,66.84 129.352,68.832 C129.352,70.752 128.5,72.144 126.868,72.144 C126.184,72.144 125.62,71.916 125.212,71.424 L125.212,74.424 L124.108,74.556 L124.108,65.676 L125.056,65.676 L125.14,66.528 C125.608,65.88 126.292,65.532 127.012,65.532 Z M126.604,71.244 C127.612,71.244 128.164,70.488 128.164,68.832 C128.164,67.188 127.684,66.408 126.736,66.408 C126.064,66.408 125.548,66.888 125.212,67.392 L125.212,70.476 C125.536,70.968 126.028,71.244 126.604,71.244 Z M134.14,65.532 C135.82,65.532 136.48,66.84 136.48,68.832 C136.48,70.752 135.628,72.144 133.996,72.144 C133.312,72.144 132.748,71.916 132.34,71.424 L132.34,74.424 L131.236,74.556 L131.236,65.676 L132.184,65.676 L132.268,66.528 C132.736,65.88 133.42,65.532 134.14,65.532 Z M133.732,71.244 C134.74,71.244 135.292,70.488 135.292,68.832 C135.292,67.188 134.812,66.408 133.864,66.408 C133.192,66.408 132.676,66.888 132.34,67.392 L132.34,70.476 C132.664,70.968 133.156,71.244 133.732,71.244 Z M139.624,72.144 C139.948,72.144 140.26,72.06 140.5,71.928 L140.212,71.16 C140.092,71.208 139.96,71.232 139.804,71.232 C139.516,71.232 139.408,71.064 139.408,70.728 L139.408,63 L138.304,63.132 L138.304,70.752 C138.304,71.652 138.82,72.144 139.624,72.144 Z M142.42,62.64 C141.964,62.64 141.652,62.964 141.652,63.396 C141.652,63.816 141.964,64.14 142.42,64.14 C142.888,64.14 143.2,63.816 143.2,63.396 C143.2,62.964 142.888,62.64 142.42,62.64 Z M142.984,65.676 L141.88,65.676 L141.88,72 L142.984,72 L142.984,65.676 Z M147.568,65.532 C145.852,65.532 144.808,66.876 144.808,68.892 C144.808,70.932 145.864,72.144 147.568,72.144 C148.3,72.144 148.936,71.904 149.5,71.448 L148.996,70.728 C148.516,71.04 148.144,71.208 147.616,71.208 C146.62,71.208 145.996,70.524 145.996,68.868 C145.996,67.224 146.62,66.444 147.616,66.444 C148.144,66.444 148.54,66.6 148.972,66.912 L149.5,66.216 C148.912,65.724 148.312,65.532 147.568,65.532 Z M155.26,70.524 C155.26,71.076 155.464,71.256 155.788,71.376 L155.536,72.144 C154.9,72.072 154.492,71.82 154.3,71.196 C153.856,71.856 153.184,72.144 152.416,72.144 C151.156,72.144 150.4,71.364 150.4,70.236 C150.4,68.88 151.42,68.148 153.184,68.148 L154.156,68.148 L154.156,67.68 C154.156,66.768 153.712,66.432 152.836,66.432 C152.368,66.432 151.78,66.552 151.132,66.768 L150.856,65.964 C151.636,65.676 152.332,65.532 153.04,65.532 C154.564,65.532 155.26,66.312 155.26,67.632 L155.26,70.524 Z M152.668,71.316 C153.316,71.316 153.796,70.992 154.156,70.332 L154.156,68.88 L153.328,68.88 C152.164,68.88 151.576,69.312 151.576,70.176 C151.576,70.92 151.948,71.316 152.668,71.316 Z M160.3,70.956 C159.988,71.148 159.736,71.232 159.46,71.232 C158.908,71.232 158.704,70.932 158.704,70.296 L158.704,66.528 L160.084,66.528 L160.204,65.676 L158.704,65.676 L158.704,64.116 L157.6,64.248 L157.6,65.676 L156.496,65.676 L156.496,66.528 L157.6,66.528 L157.6,70.344 C157.6,71.52 158.236,72.144 159.304,72.144 C159.844,72.144 160.3,72 160.72,71.712 L160.3,70.956 Z M162.4,62.64 C161.944,62.64 161.632,62.964 161.632,63.396 C161.632,63.816 161.944,64.14 162.4,64.14 C162.868,64.14 163.18,63.816 163.18,63.396 C163.18,62.964 162.868,62.64 162.4,62.64 Z M162.964,65.676 L161.86,65.676 L161.86,72 L162.964,72 L162.964,65.676 Z M167.62,65.532 C169.42,65.532 170.428,66.828 170.428,68.832 C170.428,70.788 169.396,72.144 167.608,72.144 C165.808,72.144 164.788,70.848 164.788,68.844 C164.788,66.888 165.82,65.532 167.62,65.532 Z M167.62,66.42 C166.564,66.42 165.976,67.188 165.976,68.844 C165.976,70.488 166.552,71.256 167.608,71.256 C168.664,71.256 169.24,70.488 169.24,68.832 C169.24,67.188 168.664,66.42 167.62,66.42 Z M175.228,65.532 C174.4,65.532 173.728,65.964 173.296,66.612 L173.2,65.676 L172.252,65.676 L172.252,72 L173.356,72 L173.356,67.512 C173.776,66.84 174.256,66.396 174.964,66.396 C175.576,66.396 175.96,66.672 175.96,67.62 L175.96,72 L177.064,72 L177.064,67.464 C177.064,66.264 176.392,65.532 175.228,65.532 Z M181,65.532 C179.692,65.532 178.72,66.264 178.72,67.272 C178.72,68.16 179.26,68.748 180.628,69.108 C181.852,69.432 182.164,69.672 182.164,70.296 C182.164,70.896 181.636,71.256 180.808,71.256 C180.124,71.256 179.536,71.028 179.032,70.644 L178.444,71.316 C178.996,71.796 179.764,72.144 180.832,72.144 C182.116,72.144 183.328,71.544 183.328,70.224 C183.328,69.12 182.56,68.592 181.228,68.256 C180.208,67.992 179.872,67.752 179.872,67.236 C179.872,66.732 180.316,66.408 181.036,66.408 C181.624,66.408 182.116,66.588 182.68,66.948 L183.148,66.252 C182.548,65.796 181.888,65.532 181,65.532 Z"/>
    <rect width="16" height="16" x="40" y="60" fill="#0784FF" fill-opacity=".3" rx="8"/>
    <rect width="60" height="8" x="64" y="128" fill="#0784FF" fill-opacity=".3" rx="4"/>
    <rect width="16" height="16" x="40" y="92" fill="#0784FF" fill-opacity=".3" rx="8"/>
    <rect width="80" height="8" x="64" y="32" fill="#0784FF" fill-opacity=".3" rx="4"/>
    <rect width="16" height="16" x="40" y="124" fill="#0784FF" fill-opacity=".3" rx="8"/>
    <rect width="100" height="8" x="64" y="160" fill="#0784FF" fill-opacity=".3" rx="4"/>
    <rect width="16" height="16" x="40" y="156" fill="#0784FF" fill-opacity=".3" rx="8"/>
    <rect width="80" height="8" x="64" y="96" fill="#0784FF" fill-opacity=".3" rx="4"/>
  </g>
</svg>
