<svg xmlns="http://www.w3.org/2000/svg" xmlns:xlink="http://www.w3.org/1999/xlink" width="300" height="200" viewBox="0 0 300 200">
  <defs>
    <rect id="navigation-dont-a" width="300" height="232"/>
  </defs>
  <g fill="none" fill-rule="evenodd">
    <g opacity=".05">
      <mask id="navigation-dont-b" fill="#fff">
        <use xlink:href="#navigation-dont-a"/>
      </mask>
      <g fill="#000F40" mask="url(#navigation-dont-b)">
        <rect width="354" height="354" transform="translate(-27 -61)"/>
      </g>
    </g>
    <rect width="268" height="200" x="32" fill="#FFF"/>
    <rect width="16" height="16" x="40" y="28" fill="#0784FF" fill-opacity=".3" rx="8"/>
    <path fill="#000F40" d="M67.312,63 C65.776,63 65.128,63.78 65.128,64.848 L65.128,65.676 L64.12,65.676 L64.12,66.528 L65.128,66.528 L65.128,72 L66.232,72 L66.232,66.528 L68.656,66.528 L68.656,72 L69.76,72 L69.76,65.676 L66.232,65.676 L66.232,64.836 C66.232,64.236 66.46,63.9 67.348,63.9 C67.84,63.9 68.284,64.008 68.68,64.2 L69.064,63.432 C68.548,63.168 68.02,63 67.312,63 Z M73.3,72.144 C73.624,72.144 73.936,72.06 74.176,71.928 L73.888,71.16 C73.768,71.208 73.636,71.232 73.48,71.232 C73.192,71.232 73.084,71.064 73.084,70.728 L73.084,63 L71.98,63.132 L71.98,70.752 C71.98,71.652 72.496,72.144 73.3,72.144 Z M80.332,68.652 C80.332,68.868 80.32,69.072 80.308,69.216 L76.276,69.216 C76.384,70.68 77.068,71.244 77.98,71.244 C78.604,71.244 79.072,71.076 79.624,70.692 L80.104,71.352 C79.48,71.844 78.772,72.144 77.896,72.144 C76.132,72.144 75.1,70.908 75.1,68.904 C75.1,66.936 76.096,65.532 77.728,65.532 C79.432,65.532 80.332,66.72 80.332,68.652 Z M79.24,68.4 L79.24,68.328 C79.24,67.092 78.748,66.408 77.752,66.408 C76.912,66.408 76.36,66.996 76.276,68.4 L79.24,68.4 Z M83.872,65.532 C82.564,65.532 81.592,66.264 81.592,67.272 C81.592,68.16 82.132,68.748 83.5,69.108 C84.724,69.432 85.036,69.672 85.036,70.296 C85.036,70.896 84.508,71.256 83.68,71.256 C82.996,71.256 82.408,71.028 81.904,70.644 L81.316,71.316 C81.868,71.796 82.636,72.144 83.704,72.144 C84.988,72.144 86.2,71.544 86.2,70.224 C86.2,69.12 85.432,68.592 84.1,68.256 C83.08,67.992 82.744,67.752 82.744,67.236 C82.744,66.732 83.188,66.408 83.908,66.408 C84.496,66.408 84.988,66.588 85.552,66.948 L86.02,66.252 C85.42,65.796 84.76,65.532 83.872,65.532 Z M95.2,70.524 C95.2,71.076 95.404,71.256 95.728,71.376 L95.476,72.144 C94.84,72.072 94.432,71.82 94.24,71.196 C93.796,71.856 93.124,72.144 92.356,72.144 C91.096,72.144 90.34,71.364 90.34,70.236 C90.34,68.88 91.36,68.148 93.124,68.148 L94.096,68.148 L94.096,67.68 C94.096,66.768 93.652,66.432 92.776,66.432 C92.308,66.432 91.72,66.552 91.072,66.768 L90.796,65.964 C91.576,65.676 92.272,65.532 92.98,65.532 C94.504,65.532 95.2,66.312 95.2,67.632 L95.2,70.524 Z M92.608,71.316 C93.256,71.316 93.736,70.992 94.096,70.332 L94.096,68.88 L93.268,68.88 C92.104,68.88 91.516,69.312 91.516,70.176 C91.516,70.92 91.888,71.316 92.608,71.316 Z M100.444,65.532 C99.616,65.532 98.944,65.964 98.512,66.612 L98.416,65.676 L97.468,65.676 L97.468,72 L98.572,72 L98.572,67.512 C98.992,66.84 99.472,66.396 100.18,66.396 C100.792,66.396 101.176,66.672 101.176,67.62 L101.176,72 L102.28,72 L102.28,67.464 C102.28,66.264 101.608,65.532 100.444,65.532 Z M108.292,63 L109.396,63.132 L109.396,72 L108.424,72 L108.316,71.124 C107.908,71.76 107.272,72.144 106.492,72.144 C104.956,72.144 104.104,70.836 104.104,68.868 C104.104,66.936 105.04,65.532 106.588,65.532 C107.332,65.532 107.872,65.868 108.292,66.312 L108.292,63 Z M106.732,71.268 C107.44,71.268 107.872,70.92 108.292,70.332 L108.292,67.236 C107.896,66.732 107.452,66.408 106.828,66.408 C105.88,66.408 105.292,67.2 105.292,68.844 C105.292,70.512 105.82,71.268 106.732,71.268 Z M119.116,70.524 C119.116,71.076 119.32,71.256 119.644,71.376 L119.392,72.144 C118.756,72.072 118.348,71.82 118.156,71.196 C117.712,71.856 117.04,72.144 116.272,72.144 C115.012,72.144 114.256,71.364 114.256,70.236 C114.256,68.88 115.276,68.148 117.04,68.148 L118.012,68.148 L118.012,67.68 C118.012,66.768 117.568,66.432 116.692,66.432 C116.224,66.432 115.636,66.552 114.988,66.768 L114.712,65.964 C115.492,65.676 116.188,65.532 116.896,65.532 C118.42,65.532 119.116,66.312 119.116,67.632 L119.116,70.524 Z M116.524,71.316 C117.172,71.316 117.652,70.992 118.012,70.332 L118.012,68.88 L117.184,68.88 C116.02,68.88 115.432,69.312 115.432,70.176 C115.432,70.92 115.804,71.316 116.524,71.316 Z M124.288,65.532 C125.968,65.532 126.628,66.84 126.628,68.832 C126.628,70.752 125.776,72.144 124.144,72.144 C123.46,72.144 122.896,71.916 122.488,71.424 L122.488,74.424 L121.384,74.556 L121.384,65.676 L122.332,65.676 L122.416,66.528 C122.884,65.88 123.568,65.532 124.288,65.532 Z M123.88,71.244 C124.888,71.244 125.44,70.488 125.44,68.832 C125.44,67.188 124.96,66.408 124.012,66.408 C123.34,66.408 122.824,66.888 122.488,67.392 L122.488,70.476 C122.812,70.968 123.304,71.244 123.88,71.244 Z M131.416,65.532 C133.096,65.532 133.756,66.84 133.756,68.832 C133.756,70.752 132.904,72.144 131.272,72.144 C130.588,72.144 130.024,71.916 129.616,71.424 L129.616,74.424 L128.512,74.556 L128.512,65.676 L129.46,65.676 L129.544,66.528 C130.012,65.88 130.696,65.532 131.416,65.532 Z M131.008,71.244 C132.016,71.244 132.568,70.488 132.568,68.832 C132.568,67.188 132.088,66.408 131.14,66.408 C130.468,66.408 129.952,66.888 129.616,67.392 L129.616,70.476 C129.94,70.968 130.432,71.244 131.008,71.244 Z M136.9,72.144 C137.224,72.144 137.536,72.06 137.776,71.928 L137.488,71.16 C137.368,71.208 137.236,71.232 137.08,71.232 C136.792,71.232 136.684,71.064 136.684,70.728 L136.684,63 L135.58,63.132 L135.58,70.752 C135.58,71.652 136.096,72.144 136.9,72.144 Z M139.696,62.64 C139.24,62.64 138.928,62.964 138.928,63.396 C138.928,63.816 139.24,64.14 139.696,64.14 C140.164,64.14 140.476,63.816 140.476,63.396 C140.476,62.964 140.164,62.64 139.696,62.64 Z M140.26,65.676 L139.156,65.676 L139.156,72 L140.26,72 L140.26,65.676 Z M144.844,65.532 C143.128,65.532 142.084,66.876 142.084,68.892 C142.084,70.932 143.14,72.144 144.844,72.144 C145.576,72.144 146.212,71.904 146.776,71.448 L146.272,70.728 C145.792,71.04 145.42,71.208 144.892,71.208 C143.896,71.208 143.272,70.524 143.272,68.868 C143.272,67.224 143.896,66.444 144.892,66.444 C145.42,66.444 145.816,66.6 146.248,66.912 L146.776,66.216 C146.188,65.724 145.588,65.532 144.844,65.532 Z M152.536,70.524 C152.536,71.076 152.74,71.256 153.064,71.376 L152.812,72.144 C152.176,72.072 151.768,71.82 151.576,71.196 C151.132,71.856 150.46,72.144 149.692,72.144 C148.432,72.144 147.676,71.364 147.676,70.236 C147.676,68.88 148.696,68.148 150.46,68.148 L151.432,68.148 L151.432,67.68 C151.432,66.768 150.988,66.432 150.112,66.432 C149.644,66.432 149.056,66.552 148.408,66.768 L148.132,65.964 C148.912,65.676 149.608,65.532 150.316,65.532 C151.84,65.532 152.536,66.312 152.536,67.632 L152.536,70.524 Z M149.944,71.316 C150.592,71.316 151.072,70.992 151.432,70.332 L151.432,68.88 L150.604,68.88 C149.44,68.88 148.852,69.312 148.852,70.176 C148.852,70.92 149.224,71.316 149.944,71.316 Z M157.576,70.956 C157.264,71.148 157.012,71.232 156.736,71.232 C156.184,71.232 155.98,70.932 155.98,70.296 L155.98,66.528 L157.36,66.528 L157.48,65.676 L155.98,65.676 L155.98,64.116 L154.876,64.248 L154.876,65.676 L153.772,65.676 L153.772,66.528 L154.876,66.528 L154.876,70.344 C154.876,71.52 155.512,72.144 156.58,72.144 C157.12,72.144 157.576,72 157.996,71.712 L157.576,70.956 Z M159.676,62.64 C159.22,62.64 158.908,62.964 158.908,63.396 C158.908,63.816 159.22,64.14 159.676,64.14 C160.144,64.14 160.456,63.816 160.456,63.396 C160.456,62.964 160.144,62.64 159.676,62.64 Z M160.24,65.676 L159.136,65.676 L159.136,72 L160.24,72 L160.24,65.676 Z M164.896,65.532 C166.696,65.532 167.704,66.828 167.704,68.832 C167.704,70.788 166.672,72.144 164.884,72.144 C163.084,72.144 162.064,70.848 162.064,68.844 C162.064,66.888 163.096,65.532 164.896,65.532 Z M164.896,66.42 C163.84,66.42 163.252,67.188 163.252,68.844 C163.252,70.488 163.828,71.256 164.884,71.256 C165.94,71.256 166.516,70.488 166.516,68.832 C166.516,67.188 165.94,66.42 164.896,66.42 Z M172.504,65.532 C171.676,65.532 171.004,65.964 170.572,66.612 L170.476,65.676 L169.528,65.676 L169.528,72 L170.632,72 L170.632,67.512 C171.052,66.84 171.532,66.396 172.24,66.396 C172.852,66.396 173.236,66.672 173.236,67.62 L173.236,72 L174.34,72 L174.34,67.464 C174.34,66.264 173.668,65.532 172.504,65.532 Z M178.276,65.532 C176.968,65.532 175.996,66.264 175.996,67.272 C175.996,68.16 176.536,68.748 177.904,69.108 C179.128,69.432 179.44,69.672 179.44,70.296 C179.44,70.896 178.912,71.256 178.084,71.256 C177.4,71.256 176.812,71.028 176.308,70.644 L175.72,71.316 C176.272,71.796 177.04,72.144 178.108,72.144 C179.392,72.144 180.604,71.544 180.604,70.224 C180.604,69.12 179.836,68.592 178.504,68.256 C177.484,67.992 177.148,67.752 177.148,67.236 C177.148,66.732 177.592,66.408 178.312,66.408 C178.9,66.408 179.392,66.588 179.956,66.948 L180.424,66.252 C179.824,65.796 179.164,65.532 178.276,65.532 Z"/>
    <rect width="16" height="16" x="40" y="60" fill="#0784FF" fill-opacity=".3" rx="8"/>
    <rect width="60" height="8" x="64" y="128" fill="#0784FF" fill-opacity=".3" rx="4"/>
    <rect width="16" height="16" x="40" y="92" fill="#0784FF" fill-opacity=".3" rx="8"/>
    <rect width="80" height="8" x="64" y="32" fill="#0784FF" fill-opacity=".3" rx="4"/>
    <rect width="16" height="16" x="40" y="124" fill="#0784FF" fill-opacity=".3" rx="8"/>
    <rect width="100" height="8" x="64" y="160" fill="#0784FF" fill-opacity=".3" rx="4"/>
    <rect width="16" height="16" x="40" y="156" fill="#0784FF" fill-opacity=".3" rx="8"/>
    <rect width="80" height="8" x="64" y="96" fill="#0784FF" fill-opacity=".3" rx="4"/>
    <rect width="2" height="200" x="30" fill="#0784FF"/>
  </g>
</svg>
