<svg xmlns="http://www.w3.org/2000/svg" xmlns:xlink="http://www.w3.org/1999/xlink" viewBox="0 0 360 240"><defs><rect id="a" width="360" height="240"/><polygon id="c" points="512 .04 512 203.96 846 203.96 846 .04"/><rect id="e" width="439" height="31" rx="2"/><filter id="d" width="103.4%" height="148.4%" x="-1.7%" y="-21%" filterUnits="objectBoundingBox"><feMorphology in="SourceAlpha" operator="dilate" radius="1" result="shadowSpreadOuter1"/><feOffset dy="1" in="shadowSpreadOuter1" result="shadowOffsetOuter1"/><feGaussianBlur in="shadowOffsetOuter1" result="shadowBlurOuter1" stdDeviation="2"/><feComposite in="shadowBlurOuter1" in2="SourceAlpha" operator="out" result="shadowBlurOuter1"/><feColorMatrix in="shadowBlurOuter1" values="0 0 0 0 0.0352941176 0 0 0 0 0.0235294118 0 0 0 0 0.0509803922 0 0 0 0.1 0"/></filter></defs><g fill="none" fill-rule="evenodd"><mask id="b" fill="white"><use xlink:href="#a"/></mask><g mask="url(#b)"><g transform="translate(-527 49)"><path fill="#0A75D3" fill-rule="nonzero" d="M512 .04v203.92h334V.04H512zm-1 204.92V-.96h336v205.92H511z"/><g><use fill="#D8D8D8" xlink:href="#c"/><path stroke="#0A75D3" d="M511.5-.46h335v204.92h-335V-.46z"/></g><rect width="360" height="1" x="486" y="73" fill="#080517" fill-opacity=".1"/><rect width="846" height="69" fill="#0C0C0D"/><g transform="translate(741 11)"><path stroke="#F5F5FA" stroke-linecap="round" d="M85 4.8L80.85.64a.5.5 0 0 0-.7.7l4.14 4.15-4.14 4.15a.5.5 0 0 0 .7.7L85 6.21l4.15 4.14a.5.5 0 0 0 .7-.7L85.71 5.5l4.14-4.15a.5.5 0 0 0-.7-.7L85 4.79z"/><rect width="9" height="9" x="40.5" y="1" stroke="#F5F5FA"/><rect width="10" height="1" y="5.52" fill="#F5F5FA"/></g><g transform="translate(0 32)"><rect width="846" height="41" fill="#38383D"/><g fill="#F9F9FA" transform="translate(707 5)"><path d="M124 12h-10a1 1 0 1 1 0-2h10a1 1 0 1 1 0 2zm0 5h-10a1 1 0 1 1 0-2h10a1 1 0 1 1 0 2zm0 5h-10a1 1 0 1 1 0-2h10a1 1 0 1 1 0 2z" opacity=".8"/><rect width="1" height="32" fill-opacity=".1" transform="translate(98)"/><path fill-opacity=".8" d="M84.7 15.3l-5-5a1 1 0 1 0-1.4 1.4l4.29 4.3-4.3 4.3a1 1 0 1 0 1.42 1.4l5-5a1 1 0 0 0 0-1.4m-6 0l-5-5a1 1 0 1 0-1.42 1.4l4.3 4.3-4.3 4.3a1 1 0 1 0 1.42 1.4l5-5a1 1 0 0 0 0-1.4"/><path fill-opacity=".8" d="M50.5 13h-2a.5.5 0 0 1 0-1h2a.5.5 0 0 1 0 1zm-1 4h-1a.5.5 0 0 1 0-1h1a.5.5 0 0 1 0 1zM46 21h-6V11h6v10zm6 0h-5V11h5v10zm0-12a2 2 0 0 1 2 2v10a2 2 0 0 1-2 2H40a2 2 0 0 1-2-2V11c0-1.1.9-2 2-2h12zm-1.5 6h-2a.5.5 0 0 1 0-1h2a.5.5 0 0 1 0 1z"/><path fill-opacity=".8" fill-rule="nonzero" d="M11 11a1 1 0 0 0-1 1v10a1 1 0 0 0 2 0V12a1 1 0 0 0-1-1zm3-1a1 1 0 0 0-1 1v11a1 1 0 0 0 2 0V11a1 1 0 0 0-1-1zm7.94 11.66l-4-11a1 1 0 1 0-1.88.68l4 11a1 1 0 1 0 1.88-.68zM8 9a1 1 0 0 0-1 1v12a1 1 0 0 0 2 0V10a1 1 0 0 0-1-1z"/></g><g transform="translate(201 5)"><use fill="black" filter="url(#d)" xlink:href="#e"/><use fill="#4A4A4F" xlink:href="#e"/><rect width="440" height="32" x="-.5" y="-.5" stroke="#0C0C0D" stroke-opacity=".2" rx="2"/><path fill="#F9F9FA" fill-opacity=".8" fill-rule="nonzero" d="M396 22.5a8 8 0 0 1-8-8v-4c0-1.1.9-2 2-2h12a2 2 0 0 1 2 2v4a8 8 0 0 1-8 8zm3.98-10.03a.99.99 0 0 0-.72.32l-3.28 3.28-3.23-3.23a.98.98 0 0 0-1.67.24 1 1 0 0 0 .2 1.09h-.01l3.3 3.32.7.7a1 1 0 0 0 1.41 0l.71-.7 3.31-3.31a1 1 0 0 0-.72-1.71z" opacity=".8"/><g fill="#F9F9FA" fill-opacity=".8" opacity=".8" transform="translate(360 7.5)"><path d="M8 10a2 2 0 1 1 0-4 2 2 0 0 1 0 4zm6 0a2 2 0 1 1 0-4 2 2 0 0 1 0 4zM2 10a2 2 0 1 1 0-4 2 2 0 0 1 0 4z"/></g><g fill="#F9F9FA" fill-opacity=".8" opacity=".8" transform="translate(416 7.5)"><path d="M8.02 3.56L9.1 5.68l.45.9 1 .16 2.3.4-1.68 1.83-.65.7.15.95.36 2.41-2.09-1.1-.94-.5-.94.5-2.04 1.09.37-2.4.15-.95-.66-.71-1.69-1.82 2.35-.4 1.01-.16.45-.93 1.02-2.1zM8 0a.97.97 0 0 0-.8.65l-2 4.12-4.27.72c-.98.16-1.22.86-.54 1.56l3.02 3.27-.7 4.59c-.1.69.17 1.09.67 1.09.23 0 .45-.07.65-.18L8 13.69l4.02 2.13c.2.1.43.17.65.18.5 0 .78-.4.68-1.1l-.7-4.58 2.99-3.26c.68-.7.44-1.4-.54-1.57l-4.22-.72L8.78.65A.97.97 0 0 0 8 0z"/></g></g></g></g></g><g fill="#ED00B5" mask="url(#b)"><g transform="translate(243 23)"><path d="M4.44 7.57c-.57.42-1.35.63-2.34.63H1.03v3.08H0V3h2.1c1.02 0 1.8.21 2.36.63.55.43.83 1.06.83 1.91 0 .92-.28 1.6-.85 2.02zm-.79-3.32a2.23 2.23 0 0 0-1.42-.41h-1.2v3.54H2.2c.62 0 1.1-.14 1.45-.41.35-.27.53-.74.53-1.4 0-.6-.18-1.04-.53-1.32zm8.02.7l-.15 2.15h-.81V5.74h-.06c-.98 0-1.67.7-2.08 2.1v2.66h1.29v.78h-3.3v-.78h1V5.73h-1v-.78h1.76l.2 1.5c.25-.54.55-.95.91-1.22s.8-.41 1.35-.41c.26 0 .55.04.89.13zm4.48-2.75c.13.13.2.3.2.5 0 .22-.07.39-.2.52a.74.74 0 0 1-.54.2.7.7 0 0 1-.52-.2.69.69 0 0 1-.2-.51c0-.21.06-.38.2-.51a.7.7 0 0 1 .52-.2c.22 0 .4.07.54.2zm.26 8.27h1.78v.8h-4.73v-.8h1.94V5.76h-1.88v-.8h2.9v5.51zm8.54-5.27c.23.25.35.7.35 1.37v4.7h-.93V6.75c0-.44-.03-.74-.08-.9-.06-.15-.2-.23-.41-.23-.4 0-.78.25-1.1.76v4.9h-.94V6.75c0-.44-.03-.74-.08-.9-.06-.15-.2-.23-.41-.23-.41 0-.78.25-1.1.76v4.9h-.93V4.96h.78l.07.75c.2-.28.4-.5.6-.65.22-.15.47-.23.77-.23.6 0 .97.28 1.14.84.2-.27.4-.48.61-.62.22-.15.48-.22.78-.22.36 0 .66.13.88.38zm6.31 5.24c.08.12.22.2.4.26l-.25.72c-.62-.08-1-.38-1.15-.9-.23.29-.51.5-.85.66-.34.15-.72.23-1.13.23-.64 0-1.13-.18-1.5-.53a1.88 1.88 0 0 1-.54-1.42c0-.64.25-1.14.76-1.5.5-.35 1.24-.52 2.19-.52h.93v-.52c0-.45-.12-.77-.38-.97-.26-.2-.63-.29-1.12-.29-.48 0-1.02.1-1.64.32l-.28-.76c.75-.27 1.44-.4 2.08-.4.77 0 1.35.18 1.76.54.4.36.6.86.6 1.5V9.9c0 .24.04.43.12.54zm-1.84-.03c.29-.16.52-.38.7-.66V8.13h-.9c-.68 0-1.16.11-1.46.34-.3.22-.44.55-.44.98 0 .8.4 1.2 1.2 1.2.32 0 .62-.08.9-.24zm9.05-5.46l-.15 2.15h-.81V5.74h-.06c-.98 0-1.67.7-2.08 2.1v2.66h1.29v.78h-3.3v-.78h1V5.73h-1v-.78h1.76l.2 1.5c.25-.54.55-.95.91-1.22s.8-.41 1.35-.41c.26 0 .55.04.89.13zm4.59 6.36c-.25.73-.6 1.31-1.02 1.74-.44.43-1.04.69-1.82.77l-.14-.8c.42-.08.76-.19 1.01-.33.26-.15.45-.34.6-.56.14-.22.27-.5.4-.85h-.34l-2.2-6.33h1.07l1.81 5.56 1.79-5.56h1.04l-2.2 6.36zM56.35 2.2c.13.13.2.3.2.5 0 .22-.07.39-.2.52a.74.74 0 0 1-.54.2.7.7 0 0 1-.52-.2.69.69 0 0 1-.2-.51c0-.21.06-.38.2-.51a.7.7 0 0 1 .52-.2c.22 0 .4.07.54.2zm.26 8.27h1.78v.8h-4.73v-.8h1.94V5.76h-1.88v-.8h2.9v5.51zm8.01-.48l.48.66a3.47 3.47 0 0 1-2.12.76c-.94 0-1.67-.3-2.2-.88A3.45 3.45 0 0 1 60 8.14c0-.63.12-1.2.35-1.7.24-.5.58-.9 1.03-1.19.45-.29.98-.43 1.6-.43.81 0 1.52.25 2.1.74l-.48.66a2.94 2.94 0 0 0-1.64-.55c-.56 0-1.02.21-1.36.63-.34.42-.5 1.04-.5 1.84 0 .81.16 1.41.5 1.81.34.4.8.6 1.38.6.55 0 1.1-.19 1.64-.56zm6.61-4.29c.47.59.7 1.4.7 2.4s-.24 1.8-.71 2.4c-.48.6-1.15.9-2.01.9-.87 0-1.55-.29-2.02-.87a3.74 3.74 0 0 1-.7-2.41c0-1 .23-1.8.7-2.4.48-.6 1.16-.9 2.03-.9.87 0 1.54.3 2.01.88zm-3.25.56a3.4 3.4 0 0 0-.4 1.86c0 .83.13 1.45.4 1.85.27.4.68.61 1.23.61.55 0 .96-.2 1.23-.6.27-.41.4-1.03.4-1.87a3.4 3.4 0 0 0-.4-1.86c-.27-.4-.68-.6-1.22-.6-.55 0-.96.2-1.24.61zm5.53-1.3h.86l.09.88c.24-.32.56-.57.94-.75.38-.18.76-.27 1.14-.27 1.19 0 1.78.62 1.78 1.87v4.59h-1V7.44c0-.48-.03-.84-.09-1.08a.91.91 0 0 0-.3-.56c-.15-.12-.39-.18-.7-.18-.34 0-.67.1-.97.32-.3.2-.55.45-.74.74v4.6H73.5V4.95zM38 14h1v65h-1V14zm0 65h11v1H38v-1z"/></g></g><g fill="#ED00B5" mask="url(#b)"><g transform="translate(53 23)"><path d="M6.08 9.97c-.24.37-.58.65-1.04.86a4.74 4.74 0 0 1-3.26.04 3.6 3.6 0 0 1-1.26-.78l.62-.71c.3.29.64.5 1.01.66.38.15.8.23 1.28.23.55 0 1-.13 1.37-.4.37-.26.55-.64.55-1.14 0-.28-.05-.51-.15-.7-.1-.18-.29-.34-.55-.49a5.47 5.47 0 0 0-1.1-.42 5.87 5.87 0 0 1-2-.93 1.77 1.77 0 0 1-.66-1.45c0-.41.11-.78.33-1.1.23-.34.54-.59.95-.77a4.14 4.14 0 0 1 2.85-.03c.43.16.82.4 1.18.7l-.62.68a2.92 2.92 0 0 0-1.98-.74c-.48 0-.88.1-1.19.3-.31.22-.47.52-.47.92 0 .24.07.44.2.61.12.17.34.33.63.47.3.14.71.3 1.25.44.78.23 1.37.52 1.8.88.41.36.62.9.62 1.6 0 .49-.12.91-.36 1.27zm3.17-.2c.34.35.77.52 1.29.52.31 0 .6-.04.86-.14.26-.09.54-.23.83-.42l.47.67a3.57 3.57 0 0 1-2.16.73c-.91 0-1.62-.3-2.13-.9-.5-.59-.76-1.39-.76-2.39 0-.63.11-1.2.33-1.7.23-.5.55-.89.96-1.17.42-.28.9-.43 1.46-.43.8 0 1.43.28 1.89.84.46.55.69 1.31.69 2.27 0 .19-.01.37-.03.54H8.7c.03.7.21 1.22.55 1.57zm-.03-3.88c-.3.35-.48.86-.52 1.53H12c-.02-.66-.16-1.17-.44-1.52a1.4 1.4 0 0 0-1.15-.53c-.49 0-.89.18-1.19.52zm9.9 3.83l.47.66a3.47 3.47 0 0 1-2.12.76c-.94 0-1.67-.3-2.2-.89a3.45 3.45 0 0 1-.78-2.38c0-.63.12-1.2.36-1.7.23-.51.57-.9 1.02-1.2.45-.28.98-.43 1.6-.43.81 0 1.52.25 2.11.75l-.5.66a2.94 2.94 0 0 0-1.62-.55c-.57 0-1.03.2-1.37.63-.34.42-.5 1.03-.5 1.84 0 .8.16 1.4.5 1.8.34.4.8.6 1.38.6.55 0 1.1-.19 1.64-.55zm6.6-4.3c.47.6.7 1.4.7 2.41 0 1-.23 1.8-.71 2.4-.48.6-1.15.9-2.01.9-.87 0-1.54-.3-2.02-.88a3.74 3.74 0 0 1-.7-2.4c0-1 .23-1.8.71-2.4.48-.6 1.15-.9 2.02-.9.87 0 1.54.29 2.01.88zm-3.24.56a3.4 3.4 0 0 0-.41 1.86c0 .84.13 1.45.4 1.86.27.4.68.6 1.23.6.55 0 .96-.2 1.23-.6.27-.4.4-1.03.4-1.87a3.4 3.4 0 0 0-.4-1.85c-.27-.4-.67-.6-1.22-.6-.55 0-.96.2-1.23.6zM28 4.68h.86l.09.88a2.66 2.66 0 0 1 2.09-1.02c1.18 0 1.77.63 1.77 1.88V11h-1V7.16c0-.47-.03-.83-.08-1.08a.91.91 0 0 0-.31-.55c-.15-.12-.38-.18-.7-.18-.34 0-.66.1-.97.31-.3.2-.55.46-.74.74V11H28V4.68zm11.5-2.55V11h-.89l-.1-.83c-.23.32-.5.56-.8.72-.3.16-.63.24-.98.24-.8 0-1.4-.29-1.8-.87-.41-.59-.61-1.4-.61-2.42 0-.63.1-1.2.3-1.7.2-.5.48-.89.85-1.17a2.1 2.1 0 0 1 1.32-.43c.7 0 1.26.26 1.7.76V2.01l1.01.12zm-3.67 3.85a3.31 3.31 0 0 0-.42 1.86c0 .82.13 1.44.39 1.86.26.42.64.63 1.13.63.6 0 1.12-.34 1.56-1.01V6.18a1.87 1.87 0 0 0-.63-.61 1.6 1.6 0 0 0-.8-.21c-.54 0-.94.2-1.23.62zm10.23 4.19c.08.11.2.2.4.25l-.26.72c-.62-.08-1-.38-1.15-.9-.23.3-.5.51-.85.66-.34.16-.72.23-1.13.23-.63 0-1.13-.17-1.5-.53a1.88 1.88 0 0 1-.54-1.41c0-.65.25-1.15.76-1.5.5-.35 1.24-.53 2.19-.53h.94v-.52c0-.44-.13-.77-.39-.96-.25-.2-.63-.3-1.11-.3-.48 0-1.03.11-1.65.33l-.27-.77c.74-.26 1.43-.4 2.07-.4.77 0 1.36.18 1.76.54.4.36.6.86.6 1.5v3.04c0 .25.05.43.13.55zm-1.85-.03c.29-.16.52-.38.7-.66V7.86h-.9c-.68 0-1.16.1-1.46.33-.3.23-.44.55-.44.99 0 .8.4 1.2 1.21 1.2.31 0 .61-.08.9-.24zm9.05-5.46l-.14 2.14h-.82V5.47h-.06c-.98 0-1.67.7-2.08 2.09v2.66h1.29V11h-3.29v-.78h1V5.46h-1v-.78h1.75l.2 1.5c.25-.55.56-.96.91-1.23.36-.27.8-.4 1.35-.4.26 0 .55.04.89.13zm4.59 6.36c-.25.72-.59 1.3-1.02 1.74-.43.43-1.04.68-1.81.76l-.15-.8c.43-.07.76-.18 1.02-.33.25-.15.45-.33.59-.55.14-.22.28-.5.4-.86h-.34l-2.2-6.32h1.07l1.81 5.55 1.8-5.55h1.04l-2.21 6.36zm13.29-9.12c.14.13.2.3.2.51 0 .21-.06.38-.2.51a.74.74 0 0 1-.54.2.7.7 0 0 1-.52-.2.69.69 0 0 1-.2-.5c0-.22.07-.39.2-.52a.7.7 0 0 1 .52-.2c.22 0 .4.07.54.2zm.26 8.28h1.78v.8h-4.73v-.8h1.95V5.48H68.5v-.8h2.9v5.52zm8.01-.48l.48.66a3.47 3.47 0 0 1-2.12.76c-.94 0-1.67-.3-2.2-.89a3.45 3.45 0 0 1-.78-2.38c0-.63.12-1.2.36-1.7.23-.51.57-.9 1.02-1.2.45-.28.98-.43 1.6-.43.81 0 1.52.25 2.11.75l-.5.66a2.94 2.94 0 0 0-1.62-.55c-.57 0-1.03.2-1.37.63-.34.42-.5 1.03-.5 1.84 0 .8.16 1.4.5 1.8.34.4.8.6 1.38.6.55 0 1.1-.19 1.64-.55zm6.61-4.3c.47.6.7 1.4.7 2.41 0 1-.23 1.8-.71 2.4-.48.6-1.15.9-2.01.9-.87 0-1.54-.3-2.02-.88a3.74 3.74 0 0 1-.7-2.4c0-1 .23-1.8.71-2.4.48-.6 1.15-.9 2.02-.9.87 0 1.54.29 2.01.88zm-3.24.56a3.4 3.4 0 0 0-.41 1.86c0 .84.13 1.45.4 1.86.27.4.68.6 1.23.6.55 0 .96-.2 1.23-.6.27-.4.4-1.03.4-1.87a3.4 3.4 0 0 0-.4-1.85c-.27-.4-.67-.6-1.22-.6-.55 0-.96.2-1.23.6zm5.52-1.3h.86l.09.88a2.66 2.66 0 0 1 2.09-1.02c1.18 0 1.77.63 1.77 1.88V11h-1V7.16c0-.47-.03-.83-.08-1.08a.91.91 0 0 0-.31-.55c-.15-.12-.38-.18-.7-.18-.34 0-.66.1-.97.31-.3.2-.55.46-.74.74V11H88.3V4.68z"/><rect width="1" height="57" x="45" y="15"/></g></g><rect width="16" height="16" x="291" y="94" fill="#FC2DD7" fill-opacity=".25" mask="url(#b)"/><rect width="16" height="16" x="90" y="93.5" fill="#FC2DD7" fill-opacity=".25" mask="url(#b)"/></g></svg>