<svg xmlns="http://www.w3.org/2000/svg" width="300" height="180" style="background:#f9f9fa" viewBox="0 0 300 180">
  <g fill="none" fill-rule="evenodd">
    <path fill="#000" d="M92.7680664,92.6318359 L92.7680664,91.375 C92.9119473,91.5019538 93.0843903,91.6162104 93.2854004,91.7177734 C93.4864105,91.8193364 93.6979969,91.9050289 93.920166,91.9748535 C94.1423351,92.0446781 94.3655588,92.0986326 94.5898438,92.1367188 C94.8141287,92.1748049 95.0214834,92.1938477 95.2119141,92.1938477 C95.8678418,92.1938477 96.3576644,92.0721855 96.6813965,91.8288574 C97.0051286,91.5855294 97.1669922,91.2353538 97.1669922,90.7783203 C97.1669922,90.5328764 97.1130376,90.3191741 97.005127,90.137207 C96.8972163,89.95524 96.7480478,89.7891446 96.5576172,89.638916 C96.3671865,89.4886874 96.141847,89.3448086 95.8815918,89.2072754 C95.6213366,89.0697422 95.3409846,88.9248054 95.0405273,88.7724609 C94.7231429,88.6116528 94.4269219,88.4487313 94.1518555,88.2836914 C93.876789,88.1186515 93.6376963,87.9366872 93.4345703,87.737793 C93.2314443,87.5388987 93.0716965,87.3135592 92.9553223,87.0617676 C92.838948,86.809976 92.7807617,86.5148129 92.7807617,86.1762695 C92.7807617,85.7615539 92.8717439,85.4007991 93.0537109,85.0939941 C93.235678,84.7871892 93.4747707,84.5343434 93.7709961,84.3354492 C94.0672215,84.136555 94.4047019,83.9884445 94.7834473,83.8911133 C95.1621926,83.7937821 95.5483379,83.7451172 95.9418945,83.7451172 C96.8390344,83.7451172 97.4928365,83.8530263 97.9033203,84.0688477 L97.9033203,85.2685547 C97.3658827,84.896157 96.676111,84.7099609 95.8339844,84.7099609 C95.6012358,84.7099609 95.3684907,84.7342934 95.1357422,84.782959 C94.9029936,84.8316246 94.6956389,84.9109695 94.5136719,85.0209961 C94.3317048,85.1310227 94.1835943,85.2727856 94.0693359,85.4462891 C93.9550776,85.6197925 93.8979492,85.831379 93.8979492,86.0810547 C93.8979492,86.3138032 93.9413244,86.5148104 94.0280762,86.684082 C94.1148279,86.8533537 94.2428377,87.0078118 94.4121094,87.1474609 C94.5813811,87.2871101 94.7876778,87.4225254 95.0310059,87.5537109 C95.2743339,87.6848965 95.5546859,87.8287753 95.8720703,87.9853516 C96.1979183,88.1461597 96.5068345,88.3154288 96.7988281,88.4931641 C97.0908218,88.6708993 97.3468413,88.8676747 97.5668945,89.0834961 C97.7869477,89.2993175 97.9615065,89.5384101 98.0905762,89.8007812 C98.2196458,90.0631524 98.2841797,90.3636051 98.2841797,90.7021484 C98.2841797,91.1507184 98.1963713,91.530516 98.020752,91.8415527 C97.8451326,92.1525894 97.6081558,92.4054352 97.3098145,92.6000977 C97.0114731,92.7947601 96.6676452,92.9354651 96.2783203,93.0222168 C95.8889954,93.1089685 95.4785178,93.1523438 95.046875,93.1523438 C94.9029941,93.1523438 94.7252615,93.1407065 94.5136719,93.1174316 C94.3020823,93.0941568 94.0862641,93.060303 93.8662109,93.0158691 C93.6461578,92.9714353 93.4377451,92.9164229 93.2409668,92.8508301 C93.0441885,92.7852373 92.8865566,92.71224 92.7680664,92.6318359 Z M105.184082,90.0102539 L100.594727,90.0102539 C100.611654,90.7338903 100.806313,91.2924785 101.178711,91.6860352 C101.551109,92.0795918 102.063148,92.2763672 102.714844,92.2763672 C103.446944,92.2763672 104.119789,92.0351587 104.733398,91.5527344 L104.733398,92.5302734 C104.162107,92.9449891 103.406743,93.1523438 102.467285,93.1523438 C101.548986,93.1523438 100.827477,92.8571807 100.302734,92.2668457 C99.7779922,91.6765107 99.515625,90.846034 99.515625,89.7753906 C99.515625,88.7639923 99.8023246,87.9398632 100.375732,87.3029785 C100.94914,86.6660938 101.661129,86.3476562 102.511719,86.3476562 C103.362309,86.3476562 104.020343,86.6227186 104.48584,87.1728516 C104.951337,87.7229845 105.184082,88.4868115 105.184082,89.4643555 L105.184082,90.0102539 Z M104.117676,89.1279297 C104.113444,88.5270152 103.968507,88.0594092 103.682861,87.7250977 C103.397215,87.3907861 103.000491,87.2236328 102.492676,87.2236328 C102.001788,87.2236328 101.584963,87.3992495 101.242188,87.7504883 C100.899412,88.101727 100.687826,88.5608696 100.607422,89.1279297 L104.117676,89.1279297 Z M107.799316,93 L106.758301,93 L106.758301,83.3769531 L107.799316,83.3769531 L107.799316,93 Z M115.130859,90.0102539 L110.541504,90.0102539 C110.558431,90.7338903 110.753091,91.2924785 111.125488,91.6860352 C111.497886,92.0795918 112.009925,92.2763672 112.661621,92.2763672 C113.393721,92.2763672 114.066566,92.0351587 114.680176,91.5527344 L114.680176,92.5302734 C114.108884,92.9449891 113.35352,93.1523438 112.414062,93.1523438 C111.495764,93.1523438 110.774254,92.8571807 110.249512,92.2668457 C109.72477,91.6765107 109.462402,90.846034 109.462402,89.7753906 C109.462402,88.7639923 109.749102,87.9398632 110.32251,87.3029785 C110.895918,86.6660938 111.607906,86.3476562 112.458496,86.3476562 C113.309086,86.3476562 113.96712,86.6227186 114.432617,87.1728516 C114.898114,87.7229845 115.130859,88.4868115 115.130859,89.4643555 L115.130859,90.0102539 Z M114.064453,89.1279297 C114.060221,88.5270152 113.915285,88.0594092 113.629639,87.7250977 C113.343993,87.3907861 112.947268,87.2236328 112.439453,87.2236328 C111.948565,87.2236328 111.53174,87.3992495 111.188965,87.7504883 C110.84619,88.101727 110.634603,88.5608696 110.554199,89.1279297 L114.064453,89.1279297 Z M121.135742,92.7016602 C120.636391,93.0021174 120.043949,93.1523438 119.358398,93.1523438 C118.431636,93.1523438 117.683678,92.8508331 117.114502,92.2478027 C116.545326,91.6447724 116.260742,90.8629605 116.260742,89.9023438 C116.260742,88.8317004 116.567543,87.9716016 117.181152,87.3220215 C117.794762,86.6724414 118.613602,86.3476562 119.637695,86.3476562 C120.208987,86.3476562 120.712563,86.4534495 121.148438,86.6650391 L121.148438,87.7314453 C120.666013,87.392902 120.149742,87.2236328 119.599609,87.2236328 C118.935218,87.2236328 118.390383,87.4616675 117.965088,87.9377441 C117.539793,88.4138207 117.327148,89.0390586 117.327148,89.8134766 C117.327148,90.5751991 117.527098,91.1761046 117.927002,91.6162109 C118.326906,92.0563173 118.863278,92.2763672 119.536133,92.2763672 C120.103193,92.2763672 120.636391,92.0880553 121.135742,91.7114258 L121.135742,92.7016602 Z M125.725098,92.9365234 C125.479654,93.0719408 125.155926,93.1396484 124.753906,93.1396484 C123.615554,93.1396484 123.046387,92.5048892 123.046387,91.2353516 L123.046387,87.3886719 L121.929199,87.3886719 L121.929199,86.5 L123.046387,86.5 L123.046387,84.9130859 L124.087402,84.5766602 L124.087402,86.5 L125.725098,86.5 L125.725098,87.3886719 L124.087402,87.3886719 L124.087402,91.0512695 C124.087402,91.4871441 124.161458,91.7981762 124.30957,91.984375 C124.457683,92.1705738 124.703123,92.2636719 125.045898,92.2636719 C125.30827,92.2636719 125.534667,92.1917325 125.725098,92.0478516 L125.725098,92.9365234 Z M133.691406,92.9365234 C133.445962,93.0719408 133.122235,93.1396484 132.720215,93.1396484 C131.581863,93.1396484 131.012695,92.5048892 131.012695,91.2353516 L131.012695,87.3886719 L129.895508,87.3886719 L129.895508,86.5 L131.012695,86.5 L131.012695,84.9130859 L132.053711,84.5766602 L132.053711,86.5 L133.691406,86.5 L133.691406,87.3886719 L132.053711,87.3886719 L132.053711,91.0512695 C132.053711,91.4871441 132.127766,91.7981762 132.275879,91.984375 C132.423992,92.1705738 132.669432,92.2636719 133.012207,92.2636719 C133.274578,92.2636719 133.500976,92.1917325 133.691406,92.0478516 L133.691406,92.9365234 Z M140.477051,93 L139.436035,93 L139.436035,89.2548828 C139.436035,87.9007094 138.932459,87.2236328 137.925293,87.2236328 C137.417478,87.2236328 136.990073,87.4193503 136.643066,87.810791 C136.296059,88.2022318 136.122559,88.7047495 136.122559,89.3183594 L136.122559,93 L135.081543,93 L135.081543,83.3769531 L136.122559,83.3769531 L136.122559,87.5791016 L136.147949,87.5791016 C136.647301,86.7581339 137.358231,86.3476562 138.280762,86.3476562 C139.744962,86.3476562 140.477051,87.2299716 140.477051,88.9946289 L140.477051,93 Z M142.97168,84.8496094 C142.785481,84.8496094 142.626791,84.7861334 142.495605,84.6591797 C142.36442,84.5322259 142.298828,84.3714202 142.298828,84.1767578 C142.298828,83.9820954 142.36442,83.8202318 142.495605,83.6911621 C142.626791,83.5620925 142.785481,83.4975586 142.97168,83.4975586 C143.16211,83.4975586 143.323974,83.5620925 143.457275,83.6911621 C143.590577,83.8202318 143.657227,83.9820954 143.657227,84.1767578 C143.657227,84.3629567 143.590577,84.5216465 143.457275,84.652832 C143.323974,84.7840176 143.16211,84.8496094 142.97168,84.8496094 Z M143.479492,93 L142.438477,93 L142.438477,86.5 L143.479492,86.5 L143.479492,93 Z M145.193359,92.7651367 L145.193359,91.6479492 C145.76042,92.0668966 146.384599,92.2763672 147.065918,92.2763672 C147.979985,92.2763672 148.437012,91.9716827 148.437012,91.3623047 C148.437012,91.1888012 148.397868,91.0417486 148.31958,90.9211426 C148.241292,90.8005365 148.135499,90.6936854 148.002197,90.6005859 C147.868896,90.5074865 147.712322,90.4239099 147.532471,90.3498535 C147.35262,90.2757972 147.159018,90.1985681 146.95166,90.1181641 C146.663898,90.0039057 146.411053,89.8885911 146.193115,89.7722168 C145.975178,89.6558425 145.793214,89.5246589 145.647217,89.3786621 C145.50122,89.2326653 145.391195,89.0665699 145.317139,88.8803711 C145.243082,88.6941722 145.206055,88.4762382 145.206055,88.2265625 C145.206055,87.9218735 145.275878,87.6521008 145.415527,87.4172363 C145.555176,87.1823719 145.741373,86.9855965 145.974121,86.8269043 C146.20687,86.6682121 146.472411,86.5486658 146.770752,86.4682617 C147.069093,86.3878577 147.376952,86.3476562 147.694336,86.3476562 C148.257164,86.3476562 148.76074,86.444986 149.205078,86.6396484 L149.205078,87.6933594 C148.726886,87.3802068 148.176761,87.2236328 147.554688,87.2236328 C147.360025,87.2236328 147.184408,87.2458494 147.027832,87.2902832 C146.871256,87.334717 146.736898,87.397135 146.624756,87.4775391 C146.512613,87.5579431 146.425863,87.6542149 146.364502,87.7663574 C146.303141,87.8784999 146.272461,88.002278 146.272461,88.1376953 C146.272461,88.306967 146.303141,88.4487299 146.364502,88.5629883 C146.425863,88.6772467 146.515787,88.7788081 146.634277,88.8676758 C146.752768,88.9565434 146.896646,89.0369463 147.065918,89.1088867 C147.23519,89.1808272 147.427733,89.2591142 147.643555,89.34375 C147.931317,89.4537766 148.189452,89.5669753 148.417969,89.6833496 C148.646486,89.7997239 148.841145,89.9309075 149.001953,90.0769043 C149.162761,90.2229011 149.286539,90.3911123 149.373291,90.581543 C149.460043,90.7719736 149.503418,90.9983711 149.503418,91.2607422 C149.503418,91.5823584 149.432537,91.8616525 149.290771,92.0986328 C149.149006,92.3356132 148.959637,92.5323885 148.722656,92.6889648 C148.485676,92.8455411 148.212729,92.9619137 147.903809,93.0380859 C147.594888,93.1142582 147.271161,93.1523438 146.932617,93.1523438 C146.263994,93.1523438 145.684247,93.023276 145.193359,92.7651367 Z M157.380859,93.1523438 C156.420243,93.1523438 155.653242,92.8487172 155.079834,92.2414551 C154.506426,91.6341929 154.219727,90.8291066 154.219727,89.8261719 C154.219727,88.7343695 154.518063,87.8816762 155.114746,87.2680664 C155.711429,86.6544566 156.517573,86.3476562 157.533203,86.3476562 C158.502283,86.3476562 159.258705,86.6459931 159.80249,87.2426758 C160.346276,87.8393585 160.618164,88.6666614 160.618164,89.7246094 C160.618164,90.7613984 160.325117,91.5918751 159.739014,92.2160645 C159.15291,92.8402538 158.366867,93.1523438 157.380859,93.1523438 Z M157.457031,87.2236328 C156.788408,87.2236328 156.259442,87.4510882 155.870117,87.9060059 C155.480792,88.3609235 155.286133,88.9882773 155.286133,89.7880859 C155.286133,90.5582721 155.482908,91.1655251 155.876465,91.6098633 C156.270021,92.0542014 156.796872,92.2763672 157.457031,92.2763672 C158.129886,92.2763672 158.647215,92.0584332 159.009033,91.6225586 C159.370851,91.186684 159.551758,90.5667358 159.551758,89.7626953 C159.551758,88.9501913 159.370851,88.3238954 159.009033,87.8837891 C158.647215,87.4436827 158.129886,87.2236328 157.457031,87.2236328 Z M163.347656,92.0605469 L163.322266,92.0605469 L163.322266,95.9897461 L162.28125,95.9897461 L162.28125,86.5 L163.322266,86.5 L163.322266,87.6425781 L163.347656,87.6425781 C163.859703,86.7792926 164.608719,86.3476562 165.594727,86.3476562 C166.432621,86.3476562 167.086423,86.6385876 167.556152,87.220459 C168.025881,87.8023304 168.260742,88.5820264 168.260742,89.5595703 C168.260742,90.6471409 167.996259,91.517819 167.467285,92.1716309 C166.938311,92.8254427 166.214686,93.1523438 165.296387,93.1523438 C164.45426,93.1523438 163.80469,92.7884151 163.347656,92.0605469 Z M163.322266,89.4389648 L163.322266,90.3466797 C163.322266,90.8841173 163.496824,91.340086 163.845947,91.7145996 C164.19507,92.0891132 164.638344,92.2763672 165.175781,92.2763672 C165.806318,92.2763672 166.300373,92.0351587 166.657959,91.5527344 C167.015545,91.0703101 167.194336,90.3995811 167.194336,89.5405273 C167.194336,88.8168909 167.027183,88.2498393 166.692871,87.8393555 C166.35856,87.4288716 165.905765,87.2236328 165.334473,87.2236328 C164.729326,87.2236328 164.242678,87.4341613 163.874512,87.8552246 C163.506346,88.2762879 163.322266,88.804196 163.322266,89.4389648 Z M172.938965,92.9365234 C172.693521,93.0719408 172.369794,93.1396484 171.967773,93.1396484 C170.829421,93.1396484 170.260254,92.5048892 170.260254,91.2353516 L170.260254,87.3886719 L169.143066,87.3886719 L169.143066,86.5 L170.260254,86.5 L170.260254,84.9130859 L171.30127,84.5766602 L171.30127,86.5 L172.938965,86.5 L172.938965,87.3886719 L171.30127,87.3886719 L171.30127,91.0512695 C171.30127,91.4871441 171.375325,91.7981762 171.523438,91.984375 C171.67155,92.1705738 171.91699,92.2636719 172.259766,92.2636719 C172.522137,92.2636719 172.748534,92.1917325 172.938965,92.0478516 L172.938965,92.9365234 Z M174.862305,84.8496094 C174.676106,84.8496094 174.517416,84.7861334 174.38623,84.6591797 C174.255045,84.5322259 174.189453,84.3714202 174.189453,84.1767578 C174.189453,83.9820954 174.255045,83.8202318 174.38623,83.6911621 C174.517416,83.5620925 174.676106,83.4975586 174.862305,83.4975586 C175.052735,83.4975586 175.214599,83.5620925 175.3479,83.6911621 C175.481202,83.8202318 175.547852,83.9820954 175.547852,84.1767578 C175.547852,84.3629567 175.481202,84.5216465 175.3479,84.652832 C175.214599,84.7840176 175.052735,84.8496094 174.862305,84.8496094 Z M175.370117,93 L174.329102,93 L174.329102,86.5 L175.370117,86.5 L175.370117,93 Z M180.194336,93.1523438 C179.233719,93.1523438 178.466718,92.8487172 177.893311,92.2414551 C177.319903,91.6341929 177.033203,90.8291066 177.033203,89.8261719 C177.033203,88.7343695 177.33154,87.8816762 177.928223,87.2680664 C178.524905,86.6544566 179.33105,86.3476562 180.34668,86.3476562 C181.31576,86.3476562 182.072182,86.6459931 182.615967,87.2426758 C183.159752,87.8393585 183.431641,88.6666614 183.431641,89.7246094 C183.431641,90.7613984 183.138593,91.5918751 182.55249,92.2160645 C181.966387,92.8402538 181.180343,93.1523438 180.194336,93.1523438 Z M180.270508,87.2236328 C179.601885,87.2236328 179.072919,87.4510882 178.683594,87.9060059 C178.294269,88.3609235 178.099609,88.9882773 178.099609,89.7880859 C178.099609,90.5582721 178.296385,91.1655251 178.689941,91.6098633 C179.083498,92.0542014 179.610348,92.2763672 180.270508,92.2763672 C180.943363,92.2763672 181.460692,92.0584332 181.82251,91.6225586 C182.184328,91.186684 182.365234,90.5667358 182.365234,89.7626953 C182.365234,88.9501913 182.184328,88.3238954 181.82251,87.8837891 C181.460692,87.4436827 180.943363,87.2236328 180.270508,87.2236328 Z M190.490234,93 L189.449219,93 L189.449219,89.2929688 C189.449219,87.9134046 188.945643,87.2236328 187.938477,87.2236328 C187.417966,87.2236328 186.987388,87.4193503 186.646729,87.810791 C186.306069,88.2022318 186.135742,88.6962861 186.135742,89.2929688 L186.135742,93 L185.094727,93 L185.094727,86.5 L186.135742,86.5 L186.135742,87.5791016 L186.161133,87.5791016 C186.652021,86.7581339 187.362951,86.3476562 188.293945,86.3476562 C189.004886,86.3476562 189.548663,86.5772275 189.925293,87.036377 C190.301922,87.4955264 190.490234,88.1588498 190.490234,89.0263672 L190.490234,93 Z"/>
    <rect width="16" height="16" x="72" y="80" fill="#0060DF" rx="8"/>
    <circle cx="80" cy="88" r="4" fill="#FFF" fill-rule="nonzero"/>
  </g>
</svg>
