<svg xmlns="http://www.w3.org/2000/svg" xmlns:xlink="http://www.w3.org/1999/xlink" viewBox="0 0 360 122"><defs><rect id="a" width="280" height="30" rx="2"/></defs><g fill="none" fill-rule="evenodd" transform="translate(40 46)"><use fill="#FFFFFF" xlink:href="#a"/><rect width="279" height="29" x=".5" y=".5" stroke="#0C0C0D" stroke-opacity=".3" rx="2"/><rect width="30" height="28" x="249" y="1" fill="#0C0C0D" fill-opacity=".1"/><path fill="#0C0C0D" fill-rule="nonzero" d="M14.7 17.72a1 1 0 1 0-1.41-1.41l-4.96 4.95a1 1 0 1 0 1.41 1.41l4.95-4.95zm3.26 1.32a6 6 0 1 0 0-12 6 6 0 0 0 0 12zm0-2a4 4 0 1 1 0-8 4 4 0 0 1 0 8z" opacity=".4"/><path fill="#0C0C0D" fill-opacity=".4" d="M32.84 17.24c.14 1.82 1.69 3 3.93 3 2.42 0 3.95-1.23 3.95-3.17 0-1.55-.88-2.4-3.07-2.95l-1.1-.3c-1.47-.37-2.05-.84-2.05-1.67 0-1.07.94-1.77 2.34-1.77 1.32 0 2.21.64 2.4 1.72h1.32c-.1-1.7-1.63-2.92-3.67-2.92-2.24 0-3.74 1.22-3.74 3.01 0 1.5.83 2.37 2.74 2.85l1.35.35c1.46.37 2.12.94 2.12 1.84 0 1.05-1.05 1.82-2.47 1.82-1.5 0-2.55-.7-2.71-1.81h-1.34zm13.05-4.16c-1.26 0-2.13.92-2.23 2.32h4.35c-.03-1.4-.86-2.32-2.12-2.32zm2.08 4.88h1.26c-.38 1.35-1.6 2.18-3.32 2.18-2.2 0-3.56-1.58-3.56-4.08 0-2.48 1.4-4.1 3.56-4.1 2.13 0 3.43 1.52 3.43 3.98v.48h-5.68v.06c.07 1.56.94 2.55 2.28 2.55 1.02 0 1.7-.38 2.03-1.07zm5.78 1.07c1.3 0 2.25-.85 2.25-1.97v-.73l-2.12.14c-1.2.08-1.73.5-1.73 1.29 0 .8.68 1.27 1.6 1.27zm-.24 1.1c-1.53 0-2.66-.9-2.66-2.34 0-1.42 1.04-2.23 2.87-2.34l2.28-.14v-.72c0-.97-.6-1.5-1.79-1.5-.94 0-1.6.35-1.78.98h-1.27c.17-1.27 1.41-2.1 3.1-2.1 1.92 0 3 .98 3 2.62V20h-1.2v-1.16h-.12a2.73 2.73 0 0 1-2.43 1.3zM59.6 20h1.26v-4.9c0-1.1.87-1.91 2.07-1.91.25 0 .7.04.8.07V12a5.41 5.41 0 0 0-.62-.03c-1.05 0-1.96.54-2.2 1.3h-.1V12.1h-1.21V20zm12.03-5.48c-.22-1.4-1.4-2.55-3.31-2.55-2.22 0-3.62 1.6-3.62 4.05 0 2.52 1.41 4.12 3.62 4.12 1.9 0 3.08-1.07 3.3-2.52h-1.27c-.23.9-.97 1.38-2.03 1.38-1.41 0-2.32-1.15-2.32-2.98 0-1.78.9-2.92 2.32-2.92 1.13 0 1.83.64 2.03 1.42h1.28zM73.55 20h1.26v-4.67c0-1.34.78-2.23 2.19-2.23 1.2 0 1.82.7 1.82 2.1V20h1.26v-5.11c0-1.86-1.05-2.92-2.72-2.92-1.21 0-2.04.5-2.43 1.38h-.12V8.97h-1.26V20zm13.6-9.94v2.04h-1.28v1.06h1.27v4.79c0 1.5.66 2.1 2.28 2.1.25 0 .5-.02.74-.06v-1.07c-.23.03-.36.03-.58.03-.82 0-1.18-.4-1.18-1.32v-4.47h1.76V12.1H88.4v-2.04h-1.26zM92.13 20h1.26v-4.67c0-1.34.78-2.23 2.19-2.23 1.2 0 1.82.7 1.82 2.1V20h1.26v-5.11c0-1.86-1.05-2.92-2.72-2.92-1.21 0-2.04.5-2.43 1.38h-.12V8.97h-1.26V20zm11.98-6.92c-1.26 0-2.14.92-2.23 2.32h4.35c-.03-1.4-.87-2.32-2.12-2.32zm2.08 4.88h1.26c-.38 1.35-1.6 2.18-3.32 2.18-2.2 0-3.56-1.58-3.56-4.08 0-2.48 1.39-4.1 3.56-4.1 2.13 0 3.42 1.52 3.42 3.98v.48h-5.67v.06c.06 1.56.94 2.55 2.28 2.55 1.01 0 1.7-.38 2.03-1.07zm17.5-5.86h-1.26l-1.55 6.32h-.12L119 12.1h-1.2l-1.77 6.32h-.12l-1.55-6.32h-1.27l2.2 7.9h1.28l1.76-6.1h.12l1.76 6.1h1.28l2.22-7.9zm4.55.98c-1.26 0-2.14.92-2.24 2.32h4.35c-.03-1.4-.86-2.32-2.11-2.32zm2.08 4.88h1.26c-.38 1.35-1.6 2.18-3.33 2.18-2.19 0-3.56-1.58-3.56-4.08 0-2.48 1.4-4.1 3.56-4.1 2.13 0 3.43 1.52 3.43 3.98v.48h-5.68v.06c.07 1.56.94 2.55 2.28 2.55 1.02 0 1.7-.38 2.04-1.07zm7.26 2.18c-1.1 0-2.03-.52-2.53-1.4h-.12V20h-1.2V8.97H135v4.38h.12a2.73 2.73 0 0 1 2.47-1.38c2.01 0 3.31 1.6 3.31 4.08 0 2.47-1.3 4.09-3.3 4.09zm-.29-7.04c-1.44 0-2.33 1.13-2.33 2.95 0 1.83.9 2.95 2.33 2.95 1.44 0 2.3-1.1 2.3-2.95 0-1.84-.86-2.95-2.3-2.95z"/><path fill="#0C0C0D" fill-opacity=".8" fill-rule="nonzero" d="M271.7 14.28l-6-6a1 1 0 0 0-1.4 1.41l4.29 4.3H257a1 1 0 1 0 0 2h11.59l-4.3 4.3a1 1 0 1 0 1.42 1.4l6-6a1 1 0 0 0 0-1.4z"/><path stroke="#0C0C0D" stroke-linecap="square" stroke-opacity=".3" d="M248.5 1.47V28.6"/></g></svg>