<svg xmlns="http://www.w3.org/2000/svg" xmlns:xlink="http://www.w3.org/1999/xlink" viewBox="0 0 360 122"><defs><rect id="a" width="280" height="30" rx="2"/></defs><g fill="none" fill-rule="evenodd" transform="translate(40 46)"><use fill="#FFFFFF" xlink:href="#a"/><rect width="279" height="29" x=".5" y=".5" stroke="#0C0C0D" stroke-opacity=".3" rx="2"/><rect width="30" height="28" x="249" y="1" fill="#0C0C0D" fill-opacity=".1"/><path fill="#0C0C0D" fill-rule="nonzero" d="M14.7 17.72a1 1 0 1 0-1.41-1.41l-4.96 4.95a1 1 0 1 0 1.41 1.41l4.95-4.95zm3.26 1.32a6 6 0 1 0 0-12 6 6 0 0 0 0 12zm0-2a4 4 0 1 1 0-8 4 4 0 0 1 0 8z" opacity=".4"/><text fill="#0C0C0D" fill-opacity=".4" font-family="SFUIText-Regular, SF UI Text" font-size="15"><tspan x="32" y="20">Search the web</tspan></text><path fill="#0C0C0D" fill-opacity=".8" fill-rule="nonzero" d="M271.7 14.28l-6-6a1 1 0 0 0-1.4 1.41l4.29 4.3H257a1 1 0 1 0 0 2h11.59l-4.3 4.3a1 1 0 1 0 1.42 1.4l6-6a1 1 0 0 0 0-1.4z"/><path stroke="#0C0C0D" stroke-linecap="square" stroke-opacity=".3" d="M248.5 1.47V28.6"/></g></svg>