<svg xmlns="http://www.w3.org/2000/svg" xmlns:xlink="http://www.w3.org/1999/xlink" viewBox="0 0 360 122"><defs><rect id="a" width="280" height="32" rx="2"/></defs><g fill="none" fill-rule="evenodd" transform="translate(40 46)"><use fill="#FFFFFF" xlink:href="#a"/><rect width="279" height="31" x=".5" y=".5" stroke="#0C0C0D" stroke-opacity=".3" rx="2"/><rect width="30" height="30" x="249" y="1" fill="#0C0C0D" fill-opacity=".1"/><path fill="#0C0C0D" fill-rule="nonzero" d="M14.7 18.72a1 1 0 1 0-1.41-1.41l-4.96 4.95a1 1 0 1 0 1.41 1.41l4.95-4.95zm3.26 1.32a6 6 0 1 0 0-12 6 6 0 0 0 0 12zm0-2a4 4 0 1 1 0-8 4 4 0 0 1 0 8z" opacity=".4"/><path fill="#0C0C0D" fill-opacity=".4" d="M32.89 21.58v-1.45c.16.14.36.27.6.4a4.84 4.84 0 0 0 1.5.47c.26.05.5.07.72.07.75 0 1.32-.14 1.7-.42.37-.28.55-.69.55-1.21 0-.29-.06-.53-.18-.74a2.1 2.1 0 0 0-.52-.58 5.12 5.12 0 0 0-.78-.5l-.97-.5c-.37-.18-.71-.37-1.03-.56-.31-.2-.59-.4-.82-.63a2.41 2.41 0 0 1-.75-1.8c0-.48.1-.9.3-1.25.22-.36.5-.65.83-.88.35-.23.73-.4 1.17-.51.44-.11.88-.17 1.34-.17 1.03 0 1.79.13 2.26.37v1.39a4.1 4.1 0 0 0-2.39-.65c-.26 0-.53.03-.8.09-.27.05-.51.15-.72.27-.21.13-.38.3-.51.5s-.2.44-.2.73c0 .27.05.5.15.7.1.19.25.37.44.53.2.16.44.31.72.47l.97.5c.37.18.73.37 1.07.58.33.2.63.43.88.68.26.25.46.53.6.83.16.3.23.65.23 1.04 0 .52-.1.95-.3 1.31-.2.36-.48.65-.82.88-.35.22-.74.39-1.2.49a6.52 6.52 0 0 1-3.5-.2c-.23-.08-.4-.16-.54-.25zm14.32-3.03h-5.3c.03.84.25 1.48.68 1.93.43.46 1.02.69 1.77.69.85 0 1.62-.28 2.33-.84v1.13c-.66.48-1.53.72-2.61.72-1.06 0-1.9-.34-2.5-1.03-.6-.68-.9-1.64-.9-2.87a4.1 4.1 0 0 1 .98-2.85 3.18 3.18 0 0 1 2.47-1.1c.98 0 1.74.31 2.28.95.53.63.8 1.51.8 2.64v.63zm-1.23-1.02c0-.7-.17-1.23-.5-1.62a1.7 1.7 0 0 0-1.37-.58c-.57 0-1.05.2-1.45.61-.4.4-.64.94-.73 1.6h4.05zM54.4 22h-1.2v-1.17h-.03c-.53.9-1.3 1.35-2.31 1.35-.75 0-1.33-.2-1.75-.6-.43-.4-.64-.92-.64-1.57 0-1.4.83-2.22 2.48-2.45l2.25-.31c0-1.28-.52-1.92-1.55-1.92-.9 0-1.72.31-2.45.93v-1.23c.74-.47 1.6-.7 2.55-.7 1.77 0 2.65.93 2.65 2.8V22zm-1.2-3.8l-1.81.26c-.56.07-.98.21-1.26.4-.29.2-.43.56-.43 1.06 0 .37.13.67.4.9.26.23.6.35 1.04.35.6 0 1.09-.21 1.47-.63.4-.42.59-.95.59-1.59v-.74zm7.37-2.48a1.47 1.47 0 0 0-.9-.25c-.52 0-.95.25-1.3.73a3.35 3.35 0 0 0-.5 1.98V22h-1.2v-7.5h1.2v1.55h.02c.17-.53.43-.94.78-1.24.36-.3.75-.44 1.18-.44.32 0 .56.03.72.1v1.25zm6.22 5.94a3.9 3.9 0 0 1-2.05.52 3.4 3.4 0 0 1-2.59-1.05c-.66-.7-.98-1.6-.98-2.7 0-1.24.35-2.23 1.06-2.98a3.72 3.72 0 0 1 2.83-1.13c.66 0 1.24.13 1.74.37v1.23a3.05 3.05 0 0 0-1.78-.59c-.77 0-1.4.28-1.89.83-.49.55-.73 1.27-.73 2.16 0 .88.23 1.58.69 2.08.46.51 1.08.77 1.85.77.66 0 1.27-.22 1.85-.66v1.15zm8.04.34h-1.2v-4.32c0-1.56-.58-2.35-1.74-2.35a1.9 1.9 0 0 0-1.48.68c-.4.45-.6 1.03-.6 1.74V22h-1.2V10.9h1.2v4.85h.03a2.73 2.73 0 0 1 2.46-1.43c1.69 0 2.53 1.02 2.53 3.06V22zm9.85-.07c-.28.15-.65.23-1.12.23-1.31 0-1.97-.73-1.97-2.2v-4.43H80.3V14.5h1.3v-1.83l1.2-.39v2.22h1.88v1.03H82.8v4.22c0 .5.09.86.26 1.08.17.21.45.32.85.32.3 0 .56-.08.78-.25v1.03zm7.83.07h-1.2v-4.32c0-1.56-.58-2.35-1.74-2.35a1.9 1.9 0 0 0-1.48.68c-.4.45-.6 1.03-.6 1.74V22h-1.2V10.9h1.2v4.85h.03a2.73 2.73 0 0 1 2.46-1.43c1.69 0 2.53 1.02 2.53 3.06V22zm8.3-3.45h-5.3c.02.84.24 1.48.67 1.93.43.46 1.02.69 1.77.69.85 0 1.63-.28 2.33-.84v1.13c-.66.48-1.53.72-2.61.72-1.06 0-1.9-.34-2.5-1.03-.6-.68-.9-1.64-.9-2.87a4.1 4.1 0 0 1 .99-2.85 3.18 3.18 0 0 1 2.46-1.1c.98 0 1.74.31 2.28.95.54.63.8 1.51.8 2.64v.63zm-1.24-1.02c0-.7-.17-1.23-.5-1.62a1.7 1.7 0 0 0-1.37-.58c-.57 0-1.05.2-1.44.61-.4.4-.64.94-.74 1.6h4.05zm16.6-3.03l-2.24 7.5h-1.25l-1.54-5.37a3.5 3.5 0 0 1-.12-.7H111c-.01.18-.06.4-.15.69L109.16 22h-1.2l-2.27-7.5h1.26l1.55 5.64c.05.17.08.4.1.67h.06c.02-.21.06-.44.13-.68l1.73-5.63h1.1l1.55 5.65c.05.18.09.41.11.68h.06c.01-.2.05-.42.13-.68l1.52-5.65h1.19zm7.35 4.05h-5.3c.03.84.25 1.48.68 1.93.43.46 1.02.69 1.77.69.85 0 1.63-.28 2.33-.84v1.13c-.66.48-1.53.72-2.61.72-1.06 0-1.9-.34-2.5-1.03-.6-.68-.9-1.64-.9-2.87a4.1 4.1 0 0 1 .99-2.85 3.18 3.18 0 0 1 2.46-1.1c.98 0 1.74.31 2.28.95.53.63.8 1.51.8 2.64v.63zm-1.23-1.02c0-.7-.17-1.23-.5-1.62a1.7 1.7 0 0 0-1.37-.58c-.57 0-1.05.2-1.44.61-.4.4-.64.94-.74 1.6h4.05zm4.28 3.39h-.03V22h-1.2V10.9h1.2v4.92h.03c.6-1 1.46-1.5 2.6-1.5.96 0 1.7.34 2.25 1.01.55.67.82 1.57.82 2.7 0 1.26-.3 2.26-.92 3.01a3.05 3.05 0 0 1-2.5 1.14c-1 0-1.74-.42-2.25-1.26zm-.03-3.03v1.05c0 .62.2 1.14.6 1.58a2 2 0 0 0 1.54.65c.73 0 1.3-.28 1.71-.84.41-.56.62-1.33.62-2.32 0-.84-.2-1.5-.58-1.96-.39-.48-.9-.72-1.57-.72-.7 0-1.26.25-1.68.73-.43.49-.64 1.1-.64 1.83z"/><path fill="#0C0C0D" fill-opacity=".8" fill-rule="nonzero" d="M271.7 15.28l-6-6a1 1 0 0 0-1.4 1.41l4.29 4.3H257a1 1 0 1 0 0 2h11.59l-4.3 4.3a1 1 0 1 0 1.42 1.4l6-6a1 1 0 0 0 0-1.4z"/><path stroke="#0C0C0D" stroke-linecap="square" stroke-opacity=".3" d="M248.5 1.5v29.07"/></g></svg>