<svg xmlns="http://www.w3.org/2000/svg" xmlns:xlink="http://www.w3.org/1999/xlink" viewBox="0 0 360 121"><defs><rect id="a" width="279" height="32" rx="2"/></defs><g fill="none" fill-rule="evenodd"><g transform="translate(40 24)"><g transform="translate(0 17)"><use fill="#FFFFFF" xlink:href="#a"/><rect width="280" height="33" x="-.5" y="-.5" stroke="#0A84FF" rx="2"/><rect width="283" height="36" x="-2" y="-2" stroke="#0A84FF" stroke-opacity=".3" stroke-width="4" opacity=".52" rx="2"/><path fill="#0A84FF" fill-opacity=".99" d="M229 0h49a1 1 0 0 1 1 1v30a1 1 0 0 1-1 1h-49V0z"/><path stroke="#0A84FF" stroke-linecap="square" d="M228.5.48V31.5"/><g transform="translate(9 4)"><polygon fill="#000000" points="2.344 19.53 1.26 19.53 1.26 4.53 2.344 4.53"/></g></g><path fill="#0C0C0D" d="M3.26 6.56V10H2.19V.9h2.5c.98 0 1.73.23 2.27.7.53.48.8 1.15.8 2.01 0 .87-.3 1.57-.9 2.12-.59.55-1.39.83-2.4.83h-1.2zm0-4.7V5.6h1.12c.73 0 1.3-.16 1.68-.5.39-.34.58-.81.58-1.42 0-1.2-.7-1.8-2.13-1.8H3.26zM13.99 10h-1.04V8.98h-.03a2.18 2.18 0 0 1-2 1.17c-.65 0-1.15-.17-1.52-.51-.36-.34-.55-.8-.55-1.37 0-1.21.72-1.92 2.15-2.12l1.95-.27c0-1.1-.45-1.66-1.34-1.66a3.2 3.2 0 0 0-2.12.8V3.96c.64-.4 1.37-.61 2.2-.61 1.53 0 2.3.8 2.3 2.42V10zm-1.04-3.29l-1.57.22c-.48.07-.85.18-1.1.36-.24.17-.36.47-.36.9a1 1 0 0 0 .34.78c.22.2.53.3.9.3.52 0 .95-.17 1.28-.54.34-.36.5-.82.5-1.37V6.7zm2.6 3.06V8.65c.57.42 1.2.63 1.88.63.91 0 1.37-.3 1.37-.92a.8.8 0 0 0-.12-.44 1.17 1.17 0 0 0-.32-.32c-.13-.1-.29-.18-.47-.25a30.3 30.3 0 0 0-.58-.23 7.48 7.48 0 0 1-.76-.35 2.3 2.3 0 0 1-.54-.4 1.46 1.46 0 0 1-.33-.49c-.08-.19-.11-.4-.11-.65 0-.3.07-.58.2-.81.15-.24.33-.43.57-.6.23-.15.5-.27.8-.35a3.73 3.73 0 0 1 2.43.17v1.05a2.94 2.94 0 0 0-2.18-.4c-.16.04-.3.1-.4.19a.87.87 0 0 0-.26.29.76.76 0 0 0-.1.37c0 .17.03.3.1.42.06.12.15.22.27.3.11.1.26.18.43.25l.58.23c.28.11.54.23.77.34.23.12.42.25.58.4.16.14.29.31.38.5.08.2.13.42.13.68 0 .32-.08.6-.22.84s-.33.43-.57.59a2.6 2.6 0 0 1-.81.35c-.31.07-.64.11-.98.11-.66 0-1.24-.13-1.73-.38zm5.52 0V8.65c.57.42 1.2.63 1.87.63.92 0 1.37-.3 1.37-.92a.8.8 0 0 0-.11-.44 1.17 1.17 0 0 0-.32-.32c-.13-.1-.29-.18-.47-.25a30.3 30.3 0 0 0-.58-.23 7.48 7.48 0 0 1-.76-.35 2.3 2.3 0 0 1-.54-.4 1.46 1.46 0 0 1-.33-.49c-.08-.19-.12-.4-.12-.65 0-.3.07-.58.21-.81.14-.24.33-.43.56-.6.23-.15.5-.27.8-.35a3.73 3.73 0 0 1 2.43.17v1.05a2.94 2.94 0 0 0-2.17-.4c-.16.04-.3.1-.4.19a.87.87 0 0 0-.27.29.76.76 0 0 0-.09.37c0 .17.03.3.1.42.05.12.14.22.26.3.12.1.26.18.43.25l.58.23c.29.11.55.23.78.34.22.12.42.25.58.4.16.14.28.31.37.5.09.2.13.42.13.68 0 .32-.07.6-.21.84-.14.24-.33.43-.57.59a2.6 2.6 0 0 1-.82.35c-.3.07-.63.11-.97.11-.67 0-1.25-.13-1.74-.38zm14.1-6.27L33.22 10h-1.08L30.8 5.35a3.03 3.03 0 0 1-.1-.6h-.02c-.02.15-.06.34-.14.58L29.1 10h-1.04l-1.97-6.5h1.1l1.34 4.89c.04.15.07.34.09.58h.05c0-.18.05-.38.11-.6l1.5-4.87h.95l1.35 4.9c.04.16.07.35.1.58h.04c.01-.16.05-.36.11-.58l1.32-4.9h1.03zm3.92 6.65c-.96 0-1.73-.3-2.3-.9a3.37 3.37 0 0 1-.86-2.42c0-1.1.3-1.95.9-2.56.6-.62 1.4-.92 2.41-.92.97 0 1.73.3 2.27.9.55.59.82 1.42.82 2.47a3.5 3.5 0 0 1-.88 2.5c-.59.62-1.37.93-2.36.93zm.08-5.93c-.67 0-1.2.23-1.59.69A2.8 2.8 0 0 0 37 6.79c0 .77.2 1.38.59 1.82a2 2 0 0 0 1.58.67 1.9 1.9 0 0 0 1.55-.66c.36-.43.54-1.05.54-1.86s-.18-1.44-.54-1.88a1.9 1.9 0 0 0-1.55-.66zm8.21.33c-.18-.14-.44-.2-.78-.2-.45 0-.82.2-1.12.62-.3.42-.45 1-.45 1.72V10H44V3.5h1.04v1.34h.03c.15-.46.37-.81.68-1.07.3-.26.64-.38 1.02-.38.27 0 .48.03.62.08v1.08zM54.06 10h-1.04V8.9h-.03a2.4 2.4 0 0 1-2.23 1.25c-.82 0-1.47-.29-1.96-.87a3.58 3.58 0 0 1-.73-2.38c0-1.07.27-1.93.81-2.58a2.68 2.68 0 0 1 2.16-.97c.9 0 1.55.35 1.95 1.05h.03V.38h1.04V10zm-1.04-2.94V6.1c0-.52-.17-.97-.52-1.33a1.75 1.75 0 0 0-1.32-.55 1.8 1.8 0 0 0-1.5.7c-.36.47-.55 1.11-.55 1.93 0 .75.18 1.34.53 1.78.35.43.82.65 1.4.65s1.05-.21 1.42-.63c.36-.42.54-.95.54-1.59z"/><path fill="#FFFFFF" d="M237.77 37.63v-1.26c.14.13.31.25.52.35a4.2 4.2 0 0 0 1.3.42c.22.03.43.05.62.05.66 0 1.15-.12 1.47-.36.33-.24.49-.6.49-1.05 0-.25-.06-.46-.16-.64-.11-.18-.26-.35-.45-.5-.2-.15-.42-.3-.68-.43l-.84-.44c-.32-.16-.61-.32-.89-.49a3.85 3.85 0 0 1-.72-.54 2.1 2.1 0 0 1-.65-1.56c0-.42.1-.78.27-1.09.19-.3.42-.56.72-.75.3-.2.63-.35 1.01-.45.38-.1.77-.14 1.16-.14.9 0 1.55.1 1.96.32v1.2a3.56 3.56 0 0 0-2.07-.56c-.23 0-.46.02-.7.07-.23.05-.43.13-.62.24-.18.11-.33.25-.44.43-.11.17-.17.38-.17.63 0 .23.04.43.13.6.08.17.21.33.38.47.17.14.38.27.62.4l.84.44c.33.16.64.33.93.5.3.18.55.38.77.6.22.2.4.45.52.71.13.26.2.56.2.9a2.16 2.16 0 0 1-.97 1.9c-.3.2-.65.34-1.04.42a5.65 5.65 0 0 1-3.04-.17c-.2-.06-.35-.14-.47-.22zm12.59.37h-1.05v-3.75c0-1.35-.5-2.03-1.5-2.03-.51 0-.94.2-1.29.6-.35.38-.52.88-.52 1.5V38h-1.04v-9.62H246v4.2h.03a2.36 2.36 0 0 1 2.13-1.23c1.46 0 2.2.88 2.2 2.64V38zm4.67.15c-.96 0-1.72-.3-2.3-.9a3.37 3.37 0 0 1-.86-2.42c0-1.1.3-1.95.9-2.56.6-.62 1.4-.92 2.42-.92.97 0 1.72.3 2.27.9.54.59.81 1.42.81 2.47a3.5 3.5 0 0 1-.88 2.5c-.58.62-1.37.93-2.36.93zm.08-5.93c-.67 0-1.2.23-1.59.69a2.8 2.8 0 0 0-.58 1.88c0 .77.2 1.38.59 1.82a2 2 0 0 0 1.58.67 1.9 1.9 0 0 0 1.55-.66c.36-.43.54-1.05.54-1.86s-.18-1.44-.54-1.88a1.9 1.9 0 0 0-1.55-.66zm13.01-.72l-1.95 6.5h-1.08l-1.33-4.65a3.03 3.03 0 0 1-.1-.6h-.03c-.01.15-.06.34-.13.58L262.04 38H261l-1.97-6.5h1.1l1.34 4.89c.04.15.07.34.09.58h.05c.01-.18.05-.38.11-.6l1.5-4.87h.95l1.35 4.9c.04.16.07.35.1.58h.05c0-.16.04-.36.1-.58l1.32-4.9h1.03z"/></g><path fill="#737373" d="M47.97 88h-1l-.81-2.16h-3.27L42.12 88h-1l2.95-7.7h.94l2.96 7.7zm-2.1-2.97l-1.22-3.28c-.04-.1-.08-.28-.12-.52h-.02c-.03.22-.07.4-.12.52l-1.2 3.28h2.67zm5.8 2.77v-.94c.48.35 1 .53 1.58.53.77 0 1.16-.26 1.16-.78a.67.67 0 0 0-.1-.37.99.99 0 0 0-.27-.27 2.07 2.07 0 0 0-.4-.21l-.49-.2c-.24-.1-.45-.2-.64-.3-.18-.09-.34-.2-.46-.32a1.24 1.24 0 0 1-.28-.43 1.5 1.5 0 0 1-.1-.55c0-.26.07-.49.18-.68.12-.2.28-.37.48-.5.2-.14.42-.24.67-.3a3.16 3.16 0 0 1 2.06.15v.88a2.5 2.5 0 0 0-1.84-.34 1.1 1.1 0 0 0-.34.16.73.73 0 0 0-.22.24.75.75 0 0 0 0 .67c.05.1.13.19.23.26.1.08.22.15.36.2.14.07.3.13.49.2l.66.3c.19.1.35.2.49.33.14.12.24.26.31.42.08.16.11.36.11.58 0 .27-.06.5-.18.7-.12.2-.28.37-.48.5-.2.14-.43.24-.69.3-.26.07-.53.1-.82.1-.57 0-1.06-.11-1.47-.33zm7.55.15c-.2.11-.48.17-.82.17-.97 0-1.45-.54-1.45-1.61v-3.26h-.94v-.75h.94v-1.34l.88-.29v1.63h1.39v.75h-1.39v3.1c0 .37.07.63.2.8.12.15.32.23.61.23.23 0 .42-.06.58-.19v.76zm4.04-4.56a1.08 1.08 0 0 0-.66-.18c-.38 0-.7.18-.95.54-.25.35-.37.83-.37 1.45V88h-.88v-5.5h.88v1.13h.02c.12-.38.31-.69.57-.9.26-.22.55-.33.87-.33.23 0 .4.03.52.08v.91zm3.26 4.74c-.81 0-1.46-.26-1.95-.77a2.85 2.85 0 0 1-.73-2.05c0-.92.26-1.64.76-2.16.5-.52 1.19-.78 2.05-.78.82 0 1.46.25 1.92.76a3 3 0 0 1 .69 2.1c0 .88-.25 1.58-.75 2.1-.5.53-1.16.8-2 .8zm.06-5.02c-.56 0-1.01.2-1.34.58-.33.38-.5.92-.5 1.6 0 .64.17 1.16.5 1.53.34.38.78.57 1.34.57.57 0 1.01-.19 1.32-.56.3-.36.45-.89.45-1.57 0-.69-.15-1.22-.45-1.59a1.6 1.6 0 0 0-1.32-.56zM75.23 88h-.88v-3.14c0-1.16-.43-1.75-1.28-1.75-.44 0-.8.17-1.1.5-.28.33-.42.75-.42 1.25V88h-.89v-5.5h.89v.91h.02a1.99 1.99 0 0 1 1.8-1.04c.6 0 1.06.2 1.38.58.32.4.48.95.48 1.69V88zm6.35-.44c0 2.02-.96 3.03-2.9 3.03a3.9 3.9 0 0 1-1.78-.39v-.88c.62.35 1.21.52 1.77.52 1.36 0 2.03-.72 2.03-2.16v-.6h-.02a2.06 2.06 0 0 1-1.89 1.05c-.68 0-1.23-.25-1.65-.73a2.93 2.93 0 0 1-.63-1.97c0-.94.23-1.68.68-2.23a2.25 2.25 0 0 1 1.84-.83c.74 0 1.3.3 1.65.9h.02v-.77h.88v5.06zm-.88-2.05v-.8c0-.44-.14-.82-.44-1.13-.3-.31-.66-.47-1.1-.47-.55 0-.97.2-1.28.6-.31.4-.46.95-.46 1.66 0 .61.14 1.1.44 1.47.3.36.69.55 1.17.55.5 0 .9-.18 1.2-.53.32-.35.47-.8.47-1.35zm3.47 1.27l-.86 2.64h-.62l.62-2.64h.86zM93.21 88h-.88v-.87h-.02c-.37.67-.93 1-1.7 1-1.3 0-1.96-.78-1.96-2.34V82.5h.87v3.15c0 1.16.45 1.74 1.33 1.74.43 0 .79-.16 1.07-.48.27-.31.41-.73.41-1.24V82.5h.88V88zm6.35 0h-.89v-3.14c0-1.16-.42-1.75-1.27-1.75-.44 0-.8.17-1.1.5-.28.33-.43.75-.43 1.25V88H95v-5.5h.88v.91h.02a1.99 1.99 0 0 1 1.8-1.04c.6 0 1.07.2 1.39.58.32.4.48.95.48 1.69V88zm2.1-6.9a.56.56 0 0 1-.56-.57c0-.16.05-.3.16-.4.11-.12.25-.17.4-.17a.57.57 0 0 1 .59.57c0 .16-.06.3-.17.4a.56.56 0 0 1-.41.17zm.44 6.9h-.88v-5.5h.88V88zm6.47 2.53h-.88v-3.48h-.02c-.38.72-1 1.08-1.88 1.08-.69 0-1.24-.25-1.66-.74a3.01 3.01 0 0 1-.63-2.01c0-.91.23-1.64.7-2.19a2.29 2.29 0 0 1 1.84-.82c.75 0 1.3.3 1.63.9h.02v-.77h.88v8.03zm-.88-5v-.8c0-.46-.14-.84-.44-1.15-.3-.31-.67-.47-1.13-.47-.53 0-.94.2-1.25.59-.31.4-.46.94-.46 1.66 0 .63.14 1.13.44 1.49.3.36.68.54 1.15.54.52 0 .93-.18 1.23-.53.31-.35.46-.8.46-1.34zM114.8 88h-.88v-.87h-.02c-.36.67-.93 1-1.7 1-1.3 0-1.96-.78-1.96-2.34V82.5h.87v3.15c0 1.16.45 1.74 1.34 1.74.43 0 .78-.16 1.06-.48.27-.31.41-.73.41-1.24V82.5h.88V88zm6.2-2.53h-3.88c.01.61.18 1.09.5 1.42.3.33.74.5 1.3.5.61 0 1.18-.2 1.7-.61v.82a3.2 3.2 0 0 1-1.92.53c-.77 0-1.38-.25-1.83-.75-.44-.5-.66-1.2-.66-2.1a3 3 0 0 1 .72-2.1c.49-.54 1.1-.8 1.81-.8.72 0 1.28.22 1.67.69.4.46.6 1.11.6 1.94v.46zm-.9-.75c0-.5-.13-.9-.37-1.18a1.25 1.25 0 0 0-1-.43c-.42 0-.77.15-1.06.45-.3.3-.47.68-.54 1.16h2.97zm6.15 2.49h-.02v3.32h-.88V82.5h.88v.97h.02a2.08 2.08 0 0 1 1.9-1.1c.71 0 1.26.25 1.66.74.4.5.6 1.15.6 1.98a3.4 3.4 0 0 1-.67 2.2c-.45.56-1.06.84-1.84.84-.71 0-1.26-.3-1.65-.92zm-.02-2.22v.76c0 .46.15.85.44 1.16.3.32.67.48 1.13.48.53 0 .95-.2 1.25-.61.3-.41.45-.98.45-1.7 0-.62-.14-1.1-.42-1.45a1.4 1.4 0 0 0-1.15-.52c-.51 0-.92.18-1.23.54-.32.35-.47.8-.47 1.34zm9.52 3.01h-.88v-.86h-.02c-.38.66-.95.99-1.7.99a1.8 1.8 0 0 1-1.28-.44 1.5 1.5 0 0 1-.46-1.15c0-1.03.6-1.63 1.81-1.8l1.65-.23c0-.93-.38-1.4-1.13-1.4a2.7 2.7 0 0 0-1.8.68v-.9a3.4 3.4 0 0 1 1.87-.52c1.3 0 1.94.69 1.94 2.05V88zm-.88-2.78l-1.33.18c-.4.06-.71.16-.92.3-.2.15-.31.4-.31.77 0 .27.1.5.29.66.19.17.44.26.76.26.44 0 .8-.16 1.08-.46.29-.3.43-.7.43-1.16v-.55zm2.2 2.58v-.94c.49.35 1.02.53 1.6.53.77 0 1.15-.26 1.15-.78a.67.67 0 0 0-.1-.37.99.99 0 0 0-.27-.27 2.07 2.07 0 0 0-.4-.21c-.14-.07-.3-.13-.48-.2-.25-.1-.46-.2-.65-.3-.18-.09-.33-.2-.46-.32a1.24 1.24 0 0 1-.28-.43 1.5 1.5 0 0 1-.1-.55c0-.26.07-.49.19-.68.11-.2.27-.37.47-.5.2-.14.42-.24.67-.3a3.16 3.16 0 0 1 2.06.15v.88a2.5 2.5 0 0 0-1.84-.34 1.1 1.1 0 0 0-.34.16.73.73 0 0 0-.22.24.75.75 0 0 0 0 .67c.05.1.13.19.23.26.1.08.22.15.36.2l.5.2.65.3c.19.1.35.2.5.33.13.12.23.26.3.42.08.16.12.36.12.58 0 .27-.06.5-.18.7-.12.2-.29.37-.49.5-.2.14-.43.24-.69.3-.26.07-.53.1-.82.1-.57 0-1.06-.11-1.47-.33zm4.68 0v-.94c.48.35 1 .53 1.58.53.77 0 1.16-.26 1.16-.78a.67.67 0 0 0-.1-.37.99.99 0 0 0-.27-.27 2.07 2.07 0 0 0-.4-.21l-.49-.2c-.24-.1-.45-.2-.64-.3-.18-.09-.34-.2-.46-.32a1.24 1.24 0 0 1-.28-.43 1.5 1.5 0 0 1-.1-.55c0-.26.07-.49.18-.68.12-.2.28-.37.48-.5.2-.14.42-.24.67-.3a3.16 3.16 0 0 1 2.06.15v.88a2.5 2.5 0 0 0-1.84-.34 1.1 1.1 0 0 0-.34.16.73.73 0 0 0-.22.24c-.06.1-.08.2-.08.32 0 .14.02.26.08.36.05.1.12.18.22.25.1.08.23.15.37.2.14.07.3.13.49.2.24.1.46.2.65.3.2.1.36.2.5.33.13.12.24.26.31.42.08.16.11.36.11.58 0 .27-.06.5-.18.7-.12.2-.28.37-.48.5-.2.14-.43.24-.7.3-.25.07-.53.1-.81.1-.57 0-1.06-.11-1.47-.33zm11.92-5.3l-1.64 5.5h-.92l-1.13-3.94a2.57 2.57 0 0 1-.09-.5h-.02c0 .12-.05.29-.11.5L148.53 88h-.88l-1.67-5.5h.93l1.14 4.14c.03.12.06.29.07.49h.04c.01-.16.05-.33.1-.5l1.27-4.13h.8l1.14 4.15c.04.13.07.3.08.5h.05c0-.15.03-.31.09-.5l1.11-4.15h.87zm3.32 5.63c-.8 0-1.46-.26-1.94-.77a2.85 2.85 0 0 1-.73-2.05c0-.92.25-1.64.76-2.16.5-.52 1.18-.78 2.04-.78.82 0 1.46.25 1.92.76a3 3 0 0 1 .7 2.1c0 .88-.25 1.58-.75 2.1-.5.53-1.16.8-2 .8zm.07-5.02c-.57 0-1.01.2-1.34.58-.33.38-.5.92-.5 1.6 0 .64.17 1.16.5 1.53.33.38.78.57 1.34.57.57 0 1-.19 1.31-.56.3-.36.46-.89.46-1.57 0-.69-.15-1.22-.46-1.59a1.6 1.6 0 0 0-1.31-.56zm6.95.28a1.08 1.08 0 0 0-.67-.18c-.37 0-.69.18-.94.54-.25.35-.38.83-.38 1.45V88h-.88v-5.5h.88v1.13h.02c.13-.38.32-.69.58-.9.26-.22.54-.33.86-.33.23 0 .4.03.53.08v.91zm5.65 4.61h-.88v-.93h-.02c-.41.7-1.04 1.06-1.9 1.06-.68 0-1.24-.25-1.65-.74a3.03 3.03 0 0 1-.62-2.01c0-.91.23-1.64.69-2.19a2.27 2.27 0 0 1 1.83-.82c.75 0 1.3.3 1.65.9h.02v-3.41h.88V88zm-.88-2.49v-.8c0-.45-.15-.83-.44-1.14-.3-.3-.67-.46-1.12-.46-.54 0-.96.2-1.27.6-.3.39-.46.93-.46 1.63 0 .63.15 1.13.44 1.5.3.36.7.55 1.2.55.48 0 .88-.18 1.19-.53.3-.36.46-.8.46-1.35zm12.6-3.01l-1.64 5.5h-.92l-1.13-3.94a2.57 2.57 0 0 1-.09-.5h-.02c0 .12-.05.29-.11.5L176.24 88h-.88l-1.67-5.5h.93l1.14 4.14c.03.12.06.29.07.49h.04c.01-.16.05-.33.1-.5l1.27-4.13h.8l1.14 4.15c.04.13.06.3.08.5h.05c0-.15.03-.31.09-.5l1.11-4.15h.87zm1.48-1.4a.56.56 0 0 1-.57-.57c0-.16.05-.3.16-.4.11-.12.25-.17.4-.17a.57.57 0 0 1 .59.57c0 .16-.06.3-.17.4a.56.56 0 0 1-.41.17zm.43 6.9h-.89v-5.5h.89V88zm2.66 0h-.88v-8.14h.88V88zm2.66 0h-.88v-8.14h.88V88zm9.37 0h-1.24l-2.43-2.64h-.02V88h-.88v-8.14h.88v5.16h.02l2.31-2.52h1.16l-2.55 2.65 2.75 2.85zm5.32-2.53h-3.88c0 .61.17 1.09.49 1.42.31.33.75.5 1.3.5.62 0 1.19-.2 1.7-.61v.82a3.2 3.2 0 0 1-1.91.53c-.78 0-1.39-.25-1.83-.75-.45-.5-.67-1.2-.67-2.1a3 3 0 0 1 .73-2.1c.48-.54 1.09-.8 1.8-.8.73 0 1.28.22 1.68.69.4.46.59 1.11.59 1.94v.46zm-.9-.75c0-.5-.13-.9-.37-1.18a1.25 1.25 0 0 0-1-.43c-.42 0-.78.15-1.07.45-.29.3-.47.68-.53 1.16h2.97zm6.65.75h-3.88c.01.61.18 1.09.5 1.42.3.33.74.5 1.3.5.61 0 1.18-.2 1.7-.61v.82a3.2 3.2 0 0 1-1.92.53c-.78 0-1.39-.25-1.83-.75-.44-.5-.67-1.2-.67-2.1a3 3 0 0 1 .73-2.1c.49-.54 1.09-.8 1.81-.8s1.28.22 1.67.69c.4.46.6 1.11.6 1.94v.46zm-.9-.75c0-.5-.13-.9-.37-1.18a1.25 1.25 0 0 0-1-.43c-.42 0-.77.15-1.06.45-.3.3-.47.68-.54 1.16h2.97zm3.14 2.49h-.03v3.32h-.88V82.5h.88v.97h.03a2.08 2.08 0 0 1 1.9-1.1c.7 0 1.26.25 1.66.74.4.5.6 1.15.6 1.98a3.4 3.4 0 0 1-.68 2.2c-.45.56-1.06.84-1.84.84-.7 0-1.26-.3-1.64-.92zm-.03-2.22v.76c0 .46.15.85.45 1.16.3.32.67.48 1.12.48.54 0 .95-.2 1.26-.61.3-.41.45-.98.45-1.7 0-.62-.14-1.1-.42-1.45a1.4 1.4 0 0 0-1.15-.52c-.52 0-.93.18-1.24.54-.31.35-.47.8-.47 1.34zm12.98-2.49l-2.53 6.38c-.45 1.14-1.08 1.7-1.9 1.7-.23 0-.42-.01-.58-.06v-.8c.2.07.37.1.53.1.44 0 .77-.26 1-.79l.43-1.04-2.14-5.49h.97l1.5 4.23.1.42h.04l.1-.4 1.57-4.25h.91zm3.24 5.63c-.8 0-1.46-.26-1.94-.77a2.85 2.85 0 0 1-.73-2.05c0-.92.25-1.64.76-2.16.5-.52 1.18-.78 2.04-.78.82 0 1.46.25 1.92.76a3 3 0 0 1 .7 2.1c0 .88-.25 1.58-.75 2.1-.5.53-1.16.8-2 .8zm.07-5.02c-.57 0-1.01.2-1.34.58-.33.38-.5.92-.5 1.6 0 .64.17 1.16.5 1.53.33.38.78.57 1.34.57.57 0 1-.19 1.31-.56.3-.36.46-.89.46-1.57 0-.69-.15-1.22-.46-1.59a1.6 1.6 0 0 0-1.31-.56zm8.53 4.89h-.88v-.87h-.02c-.37.67-.94 1-1.7 1-1.31 0-1.97-.78-1.97-2.34V82.5h.88v3.15c0 1.16.44 1.74 1.33 1.74.43 0 .78-.16 1.06-.48.28-.31.42-.73.42-1.24V82.5h.88V88zm4.64-4.6a1.08 1.08 0 0 0-.66-.19c-.38 0-.7.18-.94.54-.26.35-.38.83-.38 1.45V88h-.88v-5.5h.88v1.13h.02c.12-.38.32-.69.57-.9.26-.22.55-.33.87-.33.23 0 .4.03.52.08v.91zm8-2.29h-3v2.67h2.78v.8h-2.79V88h-.9v-7.7h3.91v.81zm1.8 0a.56.56 0 0 1-.57-.58c0-.16.05-.3.16-.4.11-.12.25-.17.4-.17a.57.57 0 0 1 .59.57c0 .16-.06.3-.17.4a.56.56 0 0 1-.41.17zm.43 6.89h-.89v-5.5h.89V88zm4.65-4.6a1.08 1.08 0 0 0-.67-.19c-.38 0-.69.18-.94.54-.25.35-.38.83-.38 1.45V88h-.88v-5.5h.88v1.13h.02c.13-.38.32-.69.58-.9.25-.22.54-.33.86-.33.23 0 .4.03.53.08v.91zm5.37 2.07h-3.88c.01.61.18 1.09.5 1.42.3.33.74.5 1.3.5.61 0 1.18-.2 1.7-.61v.82a3.2 3.2 0 0 1-1.92.53c-.77 0-1.38-.25-1.83-.75-.44-.5-.66-1.2-.66-2.1a3 3 0 0 1 .72-2.1c.49-.54 1.1-.8 1.81-.8.72 0 1.28.22 1.67.69.4.46.6 1.11.6 1.94v.46zm-.9-.75c0-.5-.13-.9-.37-1.18a1.25 1.25 0 0 0-1-.43c-.42 0-.77.15-1.06.45-.3.3-.47.68-.54 1.16h2.97zm4.95-4.09c-.17-.1-.36-.14-.58-.14-.62 0-.93.38-.93 1.16v.85h1.3v.75h-1.3V88h-.87v-4.75h-.94v-.75h.94v-.9c0-.57.16-1.02.5-1.36.33-.33.75-.5 1.24-.5.27 0 .49.03.64.1v.8zm3.03 7.5c-.82 0-1.46-.26-1.95-.77a2.85 2.85 0 0 1-.73-2.05c0-.92.25-1.64.76-2.16.5-.52 1.19-.78 2.05-.78.82 0 1.46.25 1.92.76a3 3 0 0 1 .69 2.1c0 .88-.25 1.58-.75 2.1-.5.53-1.16.8-2 .8zm.06-5.02c-.56 0-1.01.2-1.34.58-.33.38-.5.92-.5 1.6 0 .64.17 1.16.5 1.53.34.38.78.57 1.34.57.57 0 1-.19 1.31-.56.31-.36.46-.89.46-1.57 0-.69-.15-1.22-.46-1.59a1.6 1.6 0 0 0-1.3-.56zm8.1-.61l-1.85 2.78 1.82 2.72h-1.03l-1.08-1.78-.24-.42h-.02l-.25.42-1.1 1.78h-1.02l1.88-2.7-1.8-2.8h1.03l1.06 1.88.23.43h.02l1.38-2.31h.97zm8.74 5.5h-.88v-.93h-.02c-.41.7-1.04 1.06-1.9 1.06-.68 0-1.24-.25-1.65-.74a3.03 3.03 0 0 1-.62-2.01c0-.91.23-1.64.69-2.19a2.27 2.27 0 0 1 1.83-.82c.75 0 1.3.3 1.65.9h.02v-3.41h.88V88zm-.88-2.49v-.8c0-.45-.15-.83-.44-1.14-.3-.3-.67-.46-1.12-.46-.54 0-.96.2-1.27.6-.3.39-.46.93-.46 1.63 0 .63.15 1.13.44 1.5.3.36.7.55 1.2.55.49 0 .88-.18 1.19-.53.3-.36.46-.8.46-1.35zm6.6 2.49h-.88v-.86h-.02c-.39.66-.95.99-1.7.99a1.8 1.8 0 0 1-1.28-.44 1.5 1.5 0 0 1-.47-1.15c0-1.03.61-1.63 1.82-1.8l1.65-.23c0-.93-.38-1.4-1.13-1.4a2.7 2.7 0 0 0-1.8.68v-.9a3.4 3.4 0 0 1 1.87-.52c1.3 0 1.94.69 1.94 2.05V88zm-.88-2.78l-1.33.18c-.4.06-.71.16-.92.3-.2.15-.31.4-.31.77 0 .27.1.5.28.66.2.17.45.26.77.26.44 0 .8-.16 1.08-.46.29-.3.43-.7.43-1.16v-.55zm5.1 2.73c-.22.11-.5.17-.83.17-.96 0-1.45-.54-1.45-1.61v-3.26h-.94v-.75h.94v-1.34l.89-.29v1.63h1.38v.75h-1.38v3.1c0 .37.06.63.18.8.13.15.34.23.63.23.22 0 .41-.06.57-.19v.76zm5.1.05h-.88v-.86h-.02c-.38.66-.95.99-1.69.99a1.8 1.8 0 0 1-1.29-.44 1.5 1.5 0 0 1-.46-1.15c0-1.03.6-1.63 1.81-1.8l1.65-.23c0-.93-.37-1.4-1.13-1.4a2.7 2.7 0 0 0-1.8.68v-.9a3.4 3.4 0 0 1 1.88-.52c1.29 0 1.93.69 1.93 2.05V88zm-.88-2.78l-1.32.18c-.41.06-.72.16-.93.3-.2.15-.3.4-.3.77 0 .27.09.5.28.66.19.17.45.26.76.26.44 0 .8-.16 1.09-.46.28-.3.42-.7.42-1.16v-.55zM41.56 101.8v-.94c.48.35 1 .53 1.58.53.78 0 1.16-.26 1.16-.78a.67.67 0 0 0-.1-.37.99.99 0 0 0-.26-.27 2.07 2.07 0 0 0-.4-.21l-.5-.2c-.24-.1-.45-.2-.64-.3-.18-.09-.33-.2-.46-.32a1.24 1.24 0 0 1-.28-.43 1.5 1.5 0 0 1-.1-.55c0-.26.07-.49.19-.68.11-.2.27-.37.47-.5.2-.14.42-.24.67-.3a3.16 3.16 0 0 1 2.06.15v.88a2.5 2.5 0 0 0-1.84-.34 1.1 1.1 0 0 0-.34.16.73.73 0 0 0-.22.24.75.75 0 0 0 0 .67c.05.1.13.19.23.26.1.08.22.15.36.2l.5.2.65.3c.19.1.36.2.5.33.13.12.23.26.3.42.08.16.12.36.12.58 0 .27-.06.5-.18.7-.12.2-.28.37-.49.5-.2.14-.43.24-.69.3-.26.07-.53.1-.82.1-.57 0-1.06-.11-1.47-.33zm8.94.2h-.88v-.86h-.03c-.38.66-.94.99-1.69.99a1.8 1.8 0 0 1-1.28-.44 1.5 1.5 0 0 1-.47-1.15c0-1.03.6-1.63 1.82-1.8l1.65-.23c0-.93-.38-1.4-1.14-1.4a2.7 2.7 0 0 0-1.8.68v-.9a3.4 3.4 0 0 1 1.88-.52c1.29 0 1.94.69 1.94 2.05V102zm-.88-2.78l-1.33.18c-.41.06-.72.16-.93.3-.2.15-.3.4-.3.77 0 .27.09.5.28.66.2.17.45.26.77.26.43 0 .8-.16 1.08-.46.28-.3.43-.7.43-1.16v-.55zm5.25-4.59c-.17-.1-.36-.14-.58-.14-.62 0-.93.38-.93 1.16v.85h1.3v.75h-1.3V102h-.87v-4.75h-.94v-.75h.94v-.9c0-.57.17-1.02.5-1.36.33-.33.75-.5 1.24-.5.27 0 .49.03.64.1v.8zm5.15 4.84h-3.88c.01.61.17 1.09.49 1.42.31.33.75.5 1.3.5.62 0 1.19-.2 1.7-.61v.82a3.2 3.2 0 0 1-1.91.53c-.78 0-1.39-.25-1.83-.75-.45-.5-.67-1.2-.67-2.1a3 3 0 0 1 .73-2.1c.49-.54 1.09-.8 1.8-.8.73 0 1.28.22 1.68.69.4.46.59 1.11.59 1.94v.46zm-.9-.75c0-.5-.13-.9-.37-1.18a1.25 1.25 0 0 0-1-.43c-.42 0-.78.15-1.07.45-.29.3-.47.68-.53 1.16h2.97zm7.96-4.09c-.17-.1-.36-.14-.58-.14-.62 0-.93.38-.93 1.16v.85h1.3v.75h-1.3V102h-.87v-4.75h-.94v-.75h.94v-.9c0-.57.16-1.02.5-1.36.33-.33.75-.5 1.24-.5.27 0 .48.03.64.1v.8zm3.6 2.76a1.08 1.08 0 0 0-.67-.18c-.38 0-.7.18-.94.54-.26.35-.38.83-.38 1.45v2.8h-.88v-5.5h.88v1.13h.02c.12-.38.32-.69.57-.9.26-.22.55-.33.87-.33.23 0 .4.03.53.08v.91zm3.25 4.74c-.81 0-1.46-.26-1.95-.77a2.85 2.85 0 0 1-.72-2.05c0-.92.25-1.64.75-2.16.5-.52 1.19-.78 2.05-.78.82 0 1.46.25 1.92.76a3 3 0 0 1 .69 2.1c0 .88-.25 1.58-.74 2.1-.5.53-1.17.8-2 .8zm.06-5.02c-.56 0-1 .2-1.34.58-.33.38-.5.92-.5 1.6 0 .64.17 1.16.5 1.53.34.38.79.57 1.34.57.57 0 1.01-.19 1.32-.56.3-.36.46-.89.46-1.57 0-.69-.16-1.22-.46-1.59a1.6 1.6 0 0 0-1.32-.56zM85.9 102H85v-3.16c0-.6-.1-1.05-.29-1.32-.18-.27-.5-.4-.94-.4-.38 0-.7.16-.96.5-.27.35-.4.76-.4 1.24V102h-.88v-3.27c0-1.08-.42-1.62-1.25-1.62-.39 0-.7.16-.96.49a2 2 0 0 0-.37 1.26V102h-.88v-5.5h.88v.87h.02c.39-.67.96-1 1.7-1a1.6 1.6 0 0 1 1.56 1.14 1.96 1.96 0 0 1 1.83-1.14c1.21 0 1.82.75 1.82 2.24V102zm5.13-6.9a.56.56 0 0 1-.57-.57c0-.16.05-.3.16-.4.11-.12.25-.17.4-.17a.57.57 0 0 1 .59.57c0 .16-.06.3-.17.4a.56.56 0 0 1-.41.17zm.43 6.9h-.89v-5.5h.89v5.5zm6.34 0h-.88v-3.14c0-1.16-.42-1.75-1.28-1.75-.44 0-.8.17-1.09.5-.29.33-.43.75-.43 1.25V102h-.88v-5.5h.88v.91h.02a1.99 1.99 0 0 1 1.8-1.04c.6 0 1.07.2 1.39.58.31.4.47.95.47 1.69V102zm4.21-.05c-.2.11-.48.17-.82.17-.96 0-1.44-.54-1.44-1.61v-3.26h-.95v-.75h.95v-1.34l.88-.29v1.63H102v.75h-1.38v3.1c0 .37.06.63.19.8.12.15.33.23.62.23.22 0 .41-.06.57-.19v.76zm4.05-4.56a1.08 1.08 0 0 0-.67-.18c-.37 0-.69.18-.94.54-.25.35-.38.83-.38 1.45v2.8h-.88v-5.5h.88v1.13h.02c.13-.38.32-.69.58-.9.26-.22.54-.33.86-.33.23 0 .4.03.53.08v.91zm5.4 4.61h-.88v-.87h-.02c-.36.67-.93 1-1.7 1-1.3 0-1.96-.78-1.96-2.34V96.5h.87v3.15c0 1.16.45 1.74 1.33 1.74.43 0 .79-.16 1.07-.48.27-.31.41-.73.41-1.24V96.5h.88v5.5zm6.47 0h-.88v-.93h-.02c-.4.7-1.04 1.06-1.89 1.06-.69 0-1.24-.25-1.66-.74a3.03 3.03 0 0 1-.62-2.01c0-.91.23-1.64.7-2.19a2.27 2.27 0 0 1 1.82-.82c.76 0 1.3.3 1.65.9h.02v-3.41h.88V102zm-.88-2.49v-.8c0-.45-.14-.83-.44-1.14-.29-.3-.66-.46-1.11-.46-.54 0-.96.2-1.27.6-.3.39-.46.93-.46 1.63 0 .63.14 1.13.44 1.5.3.36.7.55 1.19.55s.89-.18 1.2-.53c.3-.36.45-.8.45-1.35zm7.09-.04h-3.88c0 .61.17 1.09.49 1.42.31.33.75.5 1.3.5.62 0 1.19-.2 1.7-.61v.82a3.2 3.2 0 0 1-1.91.53c-.78 0-1.39-.25-1.83-.75-.45-.5-.67-1.2-.67-2.1a3 3 0 0 1 .73-2.1c.49-.54 1.09-.8 1.8-.8.73 0 1.28.22 1.68.69.4.46.59 1.11.59 1.94v.46zm-.9-.75c0-.5-.13-.9-.37-1.18a1.25 1.25 0 0 0-1-.43c-.42 0-.78.15-1.07.45-.29.3-.47.68-.53 1.16h2.97zm5.1-1.33a1.08 1.08 0 0 0-.67-.18c-.37 0-.69.18-.94.54-.25.35-.38.83-.38 1.45v2.8h-.88v-5.5h.88v1.13h.02c.13-.38.32-.69.58-.9.26-.22.54-.33.86-.33.23 0 .4.03.53.08v.91zm.62 4.41v-.94c.48.35 1.01.53 1.59.53.77 0 1.16-.26 1.16-.78a.67.67 0 0 0-.1-.37.99.99 0 0 0-.27-.27 2.07 2.07 0 0 0-.4-.21l-.5-.2c-.23-.1-.45-.2-.63-.3-.19-.09-.34-.2-.46-.32a1.24 1.24 0 0 1-.28-.43 1.5 1.5 0 0 1-.1-.55c0-.26.06-.49.18-.68.12-.2.28-.37.47-.5.2-.14.42-.24.68-.3a3.16 3.16 0 0 1 2.06.15v.88a2.5 2.5 0 0 0-1.85-.34 1.1 1.1 0 0 0-.34.16.73.73 0 0 0-.22.24.75.75 0 0 0 0 .67c.05.1.13.19.23.26.1.08.22.15.37.2.14.07.3.13.48.2.25.1.47.2.66.3.2.1.36.2.5.33.13.12.24.26.3.42.08.16.12.36.12.58 0 .27-.06.5-.18.7-.12.2-.28.37-.48.5-.2.14-.43.24-.7.3-.26.07-.53.1-.82.1-.56 0-1.05-.11-1.47-.33zm5.3.32a.57.57 0 0 1-.41-.18.58.58 0 0 1-.18-.42c0-.17.06-.31.18-.43a.57.57 0 0 1 .42-.18c.17 0 .31.06.43.18s.18.26.18.43c0 .16-.06.3-.18.42a.59.59 0 0 1-.43.18z"/></g></svg>