<svg xmlns="http://www.w3.org/2000/svg" xmlns:xlink="http://www.w3.org/1999/xlink" viewBox="0 0 360 121"><defs><rect id="a" width="279" height="32" rx="2"/></defs><g fill="none" fill-rule="evenodd"><g transform="translate(40 18)"><g transform="translate(0 23)"><use fill="#FFFFFF" xlink:href="#a"/><rect width="280" height="33" x="-.5" y="-.5" stroke="#0A84FF" rx="2"/><rect width="283" height="36" x="-2" y="-2" stroke="#0A84FF" stroke-opacity=".3" stroke-width="4" opacity=".52" rx="2"/><path fill="#0A84FF" fill-opacity=".99" d="M229 0h49a1 1 0 0 1 1 1v30a1 1 0 0 1-1 1h-49V0z"/><path stroke="#0A84FF" stroke-linecap="square" d="M228.5.48V31.5"/><g font-size="15" transform="translate(9 2)"><text fill="#000000" font-family="SegoeUI, Segoe UI"><tspan x="0" y="16">|</tspan></text></g></g><path fill="#0C0C0D" d="M7.15 7.22c.45.25.8.6 1.04 1.05.25.45.37.96.37 1.53 0 .57-.13 1.07-.38 1.52-.25.44-.6.79-1.04 1.04-.45.25-.96.37-1.53.37h-2.3V16H2.17V6.84h3.46c.57 0 1.08.13 1.52.38zm-1.82 4.5c.65 0 1.16-.17 1.52-.5.36-.34.54-.81.54-1.42 0-.63-.18-1.1-.53-1.44-.36-.34-.87-.5-1.53-.5H3.3v3.86h2.02zM11 15.87c-.35-.17-.62-.4-.82-.71-.2-.3-.3-.67-.3-1.08 0-.6.22-1.08.65-1.43a3.2 3.2 0 0 1 1.85-.6l1.97-.11v-.62c0-.43-.13-.75-.4-.98-.26-.22-.64-.33-1.15-.33-.41 0-.75.07-1.02.22s-.45.36-.52.63h-1.1c.04-.37.18-.69.42-.96.25-.28.56-.49.95-.64a3.6 3.6 0 0 1 1.3-.22c.56 0 1.03.09 1.42.27.39.18.68.44.89.78.2.34.3.75.3 1.23V16H14.4v-1h-.1c-.22.35-.51.63-.88.83-.36.2-.77.3-1.23.3-.44 0-.83-.1-1.19-.26zm2.4-.93c.3-.15.53-.36.7-.62.16-.26.25-.55.25-.87v-.63l-1.84.12c-.52.03-.9.14-1.14.32a.93.93 0 0 0-.36.8c0 .34.13.61.39.8.26.2.59.3 1 .3.36 0 .7-.07 1-.22zM17.62 10c.23-.3.53-.54.92-.71.4-.18.82-.26 1.3-.26.48 0 .9.07 1.27.22s.67.36.9.64c.23.27.36.6.41.97h-1.08a1.1 1.1 0 0 0-.5-.66c-.26-.17-.6-.25-1-.25a2 2 0 0 0-.74.13c-.22.09-.4.21-.52.37a.81.81 0 0 0-.2.53c0 .23.1.42.3.58.19.15.49.28.9.37l1.05.26c.65.15 1.13.38 1.44.68.31.3.47.68.47 1.17 0 .4-.12.76-.36 1.07-.24.32-.57.56-.98.74-.42.17-.89.26-1.4.26-.5 0-.95-.08-1.34-.23-.4-.15-.7-.37-.94-.65a1.78 1.78 0 0 1-.41-.99h1.12c.1.3.28.53.55.7a2 2 0 0 0 1.06.25c.3 0 .57-.05.81-.14.24-.09.43-.21.56-.37.14-.16.2-.35.2-.56 0-.46-.36-.78-1.08-.96l-1.17-.29a3 3 0 0 1-1.42-.67c-.3-.3-.45-.69-.45-1.18 0-.37.11-.71.33-1.02zm6.8 0c.23-.3.54-.54.93-.71.39-.18.82-.26 1.3-.26.47 0 .9.07 1.27.22s.67.36.9.64c.22.27.36.6.4.97h-1.07a1.1 1.1 0 0 0-.5-.66c-.27-.17-.6-.25-1-.25a2 2 0 0 0-.75.13c-.22.09-.39.21-.52.37a.81.81 0 0 0-.19.53c0 .23.1.42.3.58.18.15.48.28.9.37l1.04.26c.66.15 1.14.38 1.45.68.3.3.46.68.46 1.17 0 .4-.11.76-.35 1.07-.24.32-.57.56-.99.74-.41.17-.88.26-1.4.26-.5 0-.95-.08-1.34-.23-.4-.15-.7-.37-.94-.65a1.78 1.78 0 0 1-.4-.99h1.11c.1.3.28.53.56.7a2 2 0 0 0 1.05.25c.3 0 .58-.05.82-.14.24-.09.42-.21.56-.37.13-.16.2-.35.2-.56 0-.46-.36-.78-1.08-.96l-1.18-.29a3 3 0 0 1-1.42-.67c-.3-.3-.44-.69-.44-1.18 0-.37.1-.71.33-1.02zM36.66 16l-1.53-5.3h-.1L33.49 16h-1.1l-1.92-6.84h1.1l1.35 5.47h.1l1.53-5.47h1.05l1.53 5.47h.1l1.35-5.47h1.1L37.76 16h-1.11zm5.62-.3a2.8 2.8 0 0 1-1.1-1.23 4.34 4.34 0 0 1-.38-1.9c0-.72.13-1.35.38-1.88.26-.54.62-.94 1.1-1.23a3.22 3.22 0 0 1 1.68-.42c.65 0 1.2.14 1.68.42.47.29.84.7 1.1 1.23.25.53.37 1.16.37 1.89s-.12 1.36-.38 1.89a2.8 2.8 0 0 1-1.1 1.22 3.2 3.2 0 0 1-1.67.43 3.2 3.2 0 0 1-1.68-.43zm3.18-1.23c.35-.45.52-1.08.52-1.9 0-.8-.17-1.43-.52-1.88a1.8 1.8 0 0 0-1.5-.67 1.8 1.8 0 0 0-1.5.67 2.99 2.99 0 0 0-.53 1.89c0 .81.18 1.44.53 1.89.35.44.85.67 1.5.67a1.8 1.8 0 0 0 1.5-.67zm4.4-5.31v1.01h.1c.08-.22.2-.41.39-.58.18-.18.4-.31.67-.4.26-.1.55-.15.85-.15.2 0 .39 0 .54.03v1.09a4.3 4.3 0 0 0-.7-.06c-.34 0-.65.07-.92.2a1.6 1.6 0 0 0-.87 1.46V16h-1.1V9.16h1.05zm4.93 6.53a2.8 2.8 0 0 1-1-1.24 4.62 4.62 0 0 1-.35-1.87c0-.7.11-1.33.35-1.86.24-.54.57-.95 1-1.25.44-.29.95-.43 1.52-.43.48 0 .9.1 1.29.32.37.21.66.5.86.88h.1v-3.8h1.08V16H58.6v-1.1h-.1a2.3 2.3 0 0 1-.9.9c-.39.21-.82.32-1.29.32-.58 0-1.09-.14-1.52-.43zm.7-5.36c-.3.2-.52.5-.68.88-.16.38-.24.84-.24 1.37 0 .53.07.98.23 1.37.16.38.4.68.7.88.3.2.65.3 1.06.3.42 0 .77-.1 1.07-.3.3-.21.54-.5.7-.89.17-.38.25-.84.25-1.36 0-.52-.08-.97-.25-1.36-.16-.38-.4-.68-.7-.89-.3-.2-.65-.3-1.07-.3-.4 0-.76.1-1.06.3z"/><path fill="#FFFFFF" d="M239.27 42.44a2 2 0 0 0 .81.54 3.27 3.27 0 0 0 2.26 0c.32-.14.58-.33.76-.57.19-.24.28-.5.28-.8 0-.4-.15-.72-.44-.98-.3-.25-.76-.46-1.4-.62l-1.17-.3c-.83-.21-1.43-.52-1.8-.9-.39-.4-.57-.92-.57-1.58 0-.5.13-.96.4-1.36.27-.4.65-.7 1.14-.92a4.12 4.12 0 0 1 1.7-.33c.58 0 1.1.11 1.58.33.47.21.85.51 1.13.9.28.38.44.82.47 1.3h-1.15c-.08-.46-.3-.83-.67-1.1-.36-.26-.83-.4-1.4-.4-.4 0-.76.07-1.07.2-.3.13-.54.3-.7.54-.18.23-.26.5-.26.8 0 .37.14.66.41.88.27.23.73.42 1.36.58l.95.25c.64.16 1.16.36 1.54.58.4.22.67.5.85.82.18.32.27.7.27 1.16 0 .56-.14 1.04-.42 1.46-.27.41-.67.74-1.19.96a4.5 4.5 0 0 1-1.8.34c-.65 0-1.22-.11-1.72-.33-.5-.21-.9-.52-1.2-.91-.29-.4-.45-.85-.49-1.37h1.16c.04.31.17.6.38.83zm8.2-8v3.8h.1c.17-.39.44-.68.8-.9.35-.2.79-.3 1.3-.3.49 0 .9.1 1.26.3.35.2.63.48.82.86a3 3 0 0 1 .29 1.37V44h-1.1v-4.16c0-.6-.13-1.06-.4-1.37-.26-.3-.65-.45-1.17-.45-.4 0-.75.08-1.03.24-.29.16-.5.38-.65.67-.15.3-.22.64-.22 1.02V44h-1.1v-9.56h1.1zm7.7 9.25a2.8 2.8 0 0 1-1.1-1.22 4.34 4.34 0 0 1-.38-1.9c0-.72.12-1.35.38-1.88.25-.54.62-.94 1.1-1.23a3.22 3.22 0 0 1 1.67-.42c.65 0 1.21.14 1.68.42.48.29.84.7 1.1 1.23.25.53.38 1.16.38 1.89s-.13 1.36-.38 1.89a2.8 2.8 0 0 1-1.1 1.22 3.2 3.2 0 0 1-1.68.43 3.2 3.2 0 0 1-1.68-.43zm3.17-1.22c.35-.45.53-1.08.53-1.9 0-.8-.18-1.43-.53-1.88a1.8 1.8 0 0 0-1.5-.67 1.8 1.8 0 0 0-1.5.67 2.99 2.99 0 0 0-.52 1.89c0 .81.17 1.44.52 1.89.36.44.86.67 1.5.67a1.8 1.8 0 0 0 1.5-.67zM267.3 44l-1.53-5.3h-.1l-1.52 5.3h-1.1l-1.93-6.84h1.1l1.35 5.47h.1l1.54-5.47h1.04l1.53 5.47h.1l1.35-5.47h1.1L268.4 44h-1.1z"/></g><path fill="#737373" d="M47.03 88l-.78-2.22h-3.09L42.4 88h-1.02l2.86-7.75h.95L48.04 88h-1.01zm-2.37-6.5l-1.21 3.46h2.51l-1.21-3.46h-.09zm7.6 2.3c0 .83.49 1.3 1.57 1.56l1 .24c.61.15.91.42.91.82 0 .53-.55.9-1.33.9-.74 0-1.2-.3-1.36-.8h-.95c.1.96.98 1.58 2.27 1.58 1.32 0 2.32-.71 2.32-1.75 0-.83-.52-1.3-1.61-1.57l-.9-.21c-.68-.17-1-.42-1-.81 0-.52.54-.87 1.23-.87.7 0 1.15.3 1.27.77h.91c-.12-.95-.96-1.55-2.18-1.55-1.23 0-2.16.72-2.16 1.68zm6.27-3.09v1.5h-.93v.77h.93v3.52c0 1.1.48 1.54 1.67 1.54.18 0 .36-.02.54-.05v-.78a3.9 3.9 0 0 1-.43.02c-.6 0-.85-.29-.85-.97v-3.28h1.28v-.77h-1.28v-1.5h-.93zM62.14 88h.92v-3.59c0-.81.64-1.4 1.52-1.4.19 0 .52.03.6.05v-.93a3.97 3.97 0 0 0-.47-.02c-.76 0-1.43.4-1.6.96h-.09v-.86h-.88V88zm6.57.1c-1.65 0-2.67-1.14-2.67-3s1.02-3 2.67-3 2.67 1.14 2.67 3-1.02 3-2.67 3zm0-.83c1.1 0 1.71-.8 1.71-2.17 0-1.37-.61-2.16-1.71-2.16S67 83.73 67 85.1s.61 2.17 1.7 2.17zm4.12.73h.92v-3.43c0-1.01.6-1.63 1.52-1.63.93 0 1.37.5 1.37 1.54V88h.92v-3.75c0-1.37-.72-2.14-2.02-2.14-.89 0-1.45.37-1.74 1.01h-.09v-.91h-.88V88zm8.76-.9c1.07 0 1.72-.82 1.72-2.08 0-1.26-.65-2.08-1.72-2.08-1.07 0-1.68.82-1.68 2.08 0 1.26.6 2.08 1.68 2.08zm.04 3.12c-1.4 0-2.29-.62-2.43-1.58h.98c.1.47.62.78 1.45.78 1.04 0 1.66-.51 1.66-1.37v-1.13h-.09a2 2 0 0 1-1.81 1c-1.5 0-2.43-1.17-2.43-2.9 0-1.74.94-2.91 2.43-2.91.8 0 1.52.4 1.85 1.02h.09v-.92h.88v5.9c0 1.29-1 2.11-2.58 2.11zm4.9-.25l.85-3.05h-1.03l-.5 3.05h.69zM97 82.21h-.92v3.43c0 1.01-.56 1.62-1.58 1.62-.92 0-1.3-.48-1.3-1.53v-3.52h-.93v3.75c0 1.37.67 2.14 1.97 2.14.89 0 1.5-.36 1.8-1h.08v.9H97v-5.79zM98.74 88h.93v-3.43c0-1.01.6-1.63 1.52-1.63s1.36.5 1.36 1.54V88h.93v-3.75c0-1.37-.73-2.14-2.03-2.14-.88 0-1.45.37-1.74 1.01h-.08v-.91h-.89V88zm6.44 0h.93v-5.79h-.93V88zm.47-6.97c.35 0 .64-.29.64-.64a.65.65 0 0 0-.64-.65.65.65 0 0 0-.65.65c0 .35.3.64.65.64zm4.35 1.08c.8 0 1.51.42 1.86 1.07h.08v-.97h.9v7.72h-.94v-2.8h-.09c-.37.63-1 .97-1.8.97-1.48 0-2.43-1.17-2.43-3 0-1.81.96-3 2.42-3zm.21 5.16c1.06 0 1.72-.83 1.72-2.17 0-1.32-.67-2.16-1.71-2.16-1.06 0-1.68.81-1.68 2.16 0 1.36.62 2.17 1.67 2.17zm9.05-5.06h-.93v3.43c0 1.01-.56 1.62-1.58 1.62-.92 0-1.3-.48-1.3-1.53v-3.52h-.93v3.75c0 1.37.68 2.14 1.98 2.14.88 0 1.5-.36 1.79-1h.09v.9h.88v-5.79zm4.05.71c-.93 0-1.57.68-1.64 1.7h3.19c-.02-1.02-.63-1.7-1.55-1.7zm1.52 3.58h.93c-.28 1-1.18 1.6-2.44 1.6-1.6 0-2.61-1.16-2.61-2.99 0-1.82 1.02-3 2.6-3 1.57 0 2.52 1.11 2.52 2.9v.36h-4.16v.05c.05 1.14.69 1.87 1.67 1.87.75 0 1.25-.28 1.5-.79zm8.38-4.4c1.47 0 2.43 1.18 2.43 3s-.96 3-2.43 3c-.83 0-1.5-.36-1.81-.97h-.09v2.8h-.92v-7.72h.88v.97h.08a2.09 2.09 0 0 1 1.86-1.07zm-.22 5.17c1.06 0 1.7-.81 1.7-2.17 0-1.35-.64-2.16-1.7-2.16-1.05 0-1.7.83-1.7 2.16s.65 2.17 1.7 2.17zm5.88.02c.95 0 1.66-.62 1.66-1.45v-.53l-1.56.1c-.88.06-1.27.37-1.27.95 0 .59.5.93 1.17.93zm-.17.81c-1.12 0-1.95-.66-1.95-1.72 0-1.04.76-1.63 2.1-1.72l1.68-.1v-.52c0-.72-.45-1.11-1.31-1.11-.7 0-1.18.26-1.3.72h-.94c.12-.93 1.03-1.54 2.27-1.54 1.41 0 2.2.72 2.2 1.93V88h-.88v-.85h-.09a2 2 0 0 1-1.78.95zm4.32-4.3c0 .83.5 1.3 1.58 1.56l1 .24c.61.15.92.42.92.82 0 .53-.56.9-1.34.9-.74 0-1.2-.3-1.36-.8h-.95c.1.96.99 1.58 2.28 1.58 1.31 0 2.32-.71 2.32-1.75 0-.83-.53-1.3-1.62-1.57l-.9-.21c-.67-.17-1-.42-1-.81 0-.52.54-.87 1.23-.87.7 0 1.15.3 1.27.77h.91c-.12-.95-.96-1.55-2.18-1.55-1.23 0-2.16.72-2.16 1.68zm5.76 0c0 .83.5 1.3 1.58 1.56l1 .24c.61.15.91.42.91.82 0 .53-.56.9-1.33.9-.75 0-1.2-.3-1.36-.8h-.95c.1.96.98 1.58 2.27 1.58 1.32 0 2.32-.71 2.32-1.75 0-.83-.52-1.3-1.61-1.57l-.9-.21c-.68-.17-1-.42-1-.81 0-.52.54-.87 1.23-.87.7 0 1.14.3 1.27.77h.91c-.12-.95-.97-1.55-2.18-1.55-1.23 0-2.16.72-2.16 1.68zm13.18-1.59h-.93l-1.14 4.63h-.09l-1.3-4.63h-.88l-1.3 4.63h-.08l-1.14-4.63h-.93l1.62 5.79h.94l1.28-4.48h.1L159.4 88h.93l1.63-5.79zm3.61 5.9c-1.65 0-2.67-1.15-2.67-3 0-1.87 1.02-3 2.67-3s2.67 1.13 2.67 3c0 1.85-1.02 3-2.67 3zm0-.84c1.1 0 1.72-.8 1.72-2.17 0-1.37-.62-2.16-1.72-2.16s-1.71.79-1.71 2.16.62 2.17 1.71 2.17zm4.12.73h.93v-3.59c0-.81.63-1.4 1.52-1.4.18 0 .51.03.59.05v-.93a3.97 3.97 0 0 0-.47-.02c-.76 0-1.43.4-1.6.96h-.09v-.86h-.88V88zm6.33.1c-1.48 0-2.43-1.17-2.43-3 0-1.81.96-3 2.43-3 .81 0 1.5.39 1.82 1.02h.08v-3.2h.92V88h-.88v-.92h-.08a2.07 2.07 0 0 1-1.86 1.02zm.22-5.16c-1.05 0-1.7.82-1.7 2.16 0 1.36.64 2.17 1.7 2.17 1.05 0 1.7-.83 1.7-2.17 0-1.32-.65-2.16-1.7-2.16zm14.79-.73h-.93l-1.14 4.63h-.09l-1.3-4.63h-.88l-1.3 4.63h-.08l-1.14-4.63h-.93l1.62 5.79h.93l1.3-4.48h.08l1.3 4.48h.93l1.63-5.79zm1.25 5.79h.93v-5.79h-.93V88zm.46-6.97c.36 0 .65-.29.65-.64a.65.65 0 0 0-.65-.65.65.65 0 0 0-.64.65c0 .35.29.64.64.64zm2.28 6.97h.93v-8.09h-.93V88zm2.77 0h.93v-8.09h-.93V88zm6.89-3.26h-.09v-4.83h-.92V88h.92v-2.2l.56-.51 2.17 2.71h1.17l-2.66-3.3 2.5-2.49h-1.14l-2.51 2.53zm7.22-1.82c-.93 0-1.57.68-1.64 1.7h3.19c-.02-1.02-.63-1.7-1.55-1.7zm1.52 3.58h.93c-.28 1-1.17 1.6-2.44 1.6-1.6 0-2.61-1.16-2.61-2.99 0-1.82 1.02-3 2.6-3 1.57 0 2.52 1.11 2.52 2.9v.36h-4.16v.05c.05 1.14.69 1.87 1.67 1.87.75 0 1.25-.28 1.5-.79zm4.76-3.58c-.92 0-1.57.68-1.64 1.7h3.2c-.03-1.02-.64-1.7-1.56-1.7zm1.53 3.58h.92c-.28 1-1.17 1.6-2.44 1.6-1.6 0-2.6-1.16-2.6-2.99 0-1.82 1.01-3 2.6-3 1.57 0 2.52 1.11 2.52 2.9v.36h-4.17v.05c.05 1.14.7 1.87 1.67 1.87.75 0 1.26-.28 1.5-.79zm5.27-4.4c1.47 0 2.43 1.18 2.43 3s-.96 3-2.43 3c-.83 0-1.5-.36-1.81-.97h-.09v2.8h-.92v-7.72h.88v.97h.08a2.09 2.09 0 0 1 1.86-1.07zm-.22 5.17c1.06 0 1.7-.81 1.7-2.17 0-1.35-.64-2.16-1.7-2.16-1.05 0-1.7.83-1.7 2.16s.65 2.17 1.7 2.17zm7.7 2.82c1.02 0 1.49-.4 1.98-1.74l2.26-6.14h-.98l-1.59 4.76h-.08l-1.6-4.76h-1l2.15 5.8-.1.34c-.25.7-.54.95-1.07.95-.13 0-.27 0-.39-.03v.8l.42.02zm7.86-1.99c-1.65 0-2.67-1.14-2.67-3s1.02-3 2.67-3c1.64 0 2.67 1.14 2.67 3s-1.03 3-2.67 3zm0-.83c1.1 0 1.7-.8 1.7-2.17 0-1.37-.6-2.16-1.7-2.16s-1.72.79-1.72 2.16.62 2.17 1.72 2.17zm8.8-5.06h-.92v3.43c0 1.01-.56 1.62-1.58 1.62-.93 0-1.31-.48-1.31-1.53v-3.52h-.93v3.75c0 1.37.68 2.14 1.98 2.14.88 0 1.5-.36 1.8-1h.08v.9h.88v-5.79zm1.74 5.79h.92v-3.59c0-.81.64-1.4 1.52-1.4.19 0 .52.03.6.05v-.93a3.97 3.97 0 0 0-.47-.02c-.77 0-1.43.4-1.6.96h-.09v-.86h-.88V88zm8.38 0v-3.36h3.43v-.86h-3.43v-2.66h3.74v-.87h-4.7V88h.96zm5.23 0h.92v-5.79h-.92V88zm.46-6.97c.36 0 .65-.29.65-.64a.65.65 0 0 0-.65-.65.65.65 0 0 0-.64.65c0 .35.29.64.64.64zm2.23 6.97h.92v-3.59c0-.81.64-1.4 1.52-1.4.18 0 .51.03.59.05v-.93a3.97 3.97 0 0 0-.46-.02c-.77 0-1.44.4-1.6.96h-.1v-.86h-.87V88zm6.5-5.08c-.93 0-1.57.68-1.64 1.7h3.19c-.02-1.02-.64-1.7-1.56-1.7zm1.52 3.58h.92c-.28 1-1.17 1.6-2.43 1.6-1.61 0-2.62-1.16-2.62-2.99 0-1.82 1.03-3 2.62-3 1.56 0 2.5 1.11 2.5 2.9v.36h-4.15v.05c.04 1.14.68 1.87 1.67 1.87.74 0 1.25-.28 1.49-.79zm2.84 1.5h.92v-5.02h1.33v-.77h-1.33v-.62c0-.63.28-.95.94-.95.17 0 .33 0 .44.02v-.75c-.2-.04-.4-.05-.62-.05-1.1 0-1.68.55-1.68 1.7v.65h-.97v.77h.97V88zm5.97.1c-1.65 0-2.67-1.14-2.67-3s1.02-3 2.67-3 2.67 1.14 2.67 3-1.02 3-2.67 3zm0-.83c1.1 0 1.71-.8 1.71-2.17 0-1.37-.62-2.16-1.71-2.16-1.1 0-1.72.79-1.72 2.16s.62 2.17 1.72 2.17zm6.17-1.46l1.37 2.19h1.1l-2-2.93 1.97-2.86h-1.05l-1.36 2.15h-.08l-1.38-2.15h-1.1l2 2.9-1.98 2.89h1.05l1.37-2.19h.09zm8.97 2.3c-1.48 0-2.43-1.18-2.43-3s.96-3 2.43-3c.81 0 1.5.38 1.82 1.01h.08v-3.2h.92V88h-.88v-.92H301a2.07 2.07 0 0 1-1.86 1.02zm.22-5.17c-1.05 0-1.7.82-1.7 2.16 0 1.36.64 2.17 1.7 2.17 1.05 0 1.7-.83 1.7-2.17 0-1.32-.65-2.16-1.7-2.16zm6.18 4.35c.95 0 1.66-.62 1.66-1.45v-.53l-1.56.1c-.88.06-1.27.37-1.27.95 0 .59.5.93 1.17.93zm-.17.81c-1.12 0-1.96-.66-1.96-1.72 0-1.04.77-1.63 2.12-1.72l1.67-.1v-.52c0-.72-.45-1.11-1.31-1.11-.7 0-1.18.26-1.31.72h-.93c.12-.93 1.03-1.54 2.27-1.54 1.41 0 2.2.72 2.2 1.93V88h-.88v-.85h-.09a2 2 0 0 1-1.78.95zm4.84-7.39v1.5h-.93v.77h.93v3.52c0 1.1.48 1.54 1.68 1.54.18 0 .35-.02.54-.05v-.78a3.9 3.9 0 0 1-.43.02c-.6 0-.86-.29-.86-.97v-3.28h1.29v-.77h-1.3v-1.5h-.92zm5.4 6.58c.95 0 1.65-.62 1.65-1.45v-.53l-1.56.1c-.88.06-1.26.37-1.26.95 0 .59.5.93 1.17.93zm-.17.81c-1.13 0-1.96-.66-1.96-1.72 0-1.04.76-1.63 2.11-1.72l1.67-.1v-.52c0-.72-.44-1.11-1.3-1.11-.7 0-1.19.26-1.31.72h-.94c.12-.93 1.04-1.54 2.27-1.54 1.42 0 2.2.72 2.2 1.93V88h-.88v-.85h-.08a2 2 0 0 1-1.78.95zm-273.7 9.7c0 .83.5 1.3 1.58 1.56l1 .24c.62.15.92.42.92.82 0 .53-.56.9-1.34.9-.74 0-1.2-.3-1.36-.8h-.95c.1.96.99 1.58 2.28 1.58 1.31 0 2.32-.71 2.32-1.75 0-.83-.53-1.3-1.62-1.57l-.9-.21c-.67-.17-1-.42-1-.81 0-.52.54-.87 1.23-.87.7 0 1.15.3 1.27.77h.92c-.13-.95-.97-1.55-2.18-1.55-1.23 0-2.16.72-2.16 1.68zm7.68 3.5c.95 0 1.66-.63 1.66-1.46v-.53l-1.56.1c-.88.06-1.27.37-1.27.95 0 .59.5.93 1.17.93zm-.17.8c-1.12 0-1.96-.66-1.96-1.72 0-1.04.77-1.63 2.12-1.72l1.67-.1v-.52c0-.72-.45-1.11-1.32-1.11-.69 0-1.17.26-1.3.72h-.93c.12-.93 1.03-1.54 2.27-1.54 1.41 0 2.2.72 2.2 1.93V102h-.88v-.85h-.09a2 2 0 0 1-1.78.95zm4.84-.1h.93v-5.02h1.32v-.77h-1.32v-.62c0-.63.28-.95.94-.95.17 0 .33 0 .44.02v-.75c-.2-.04-.4-.05-.62-.05-1.1 0-1.69.55-1.69 1.7v.65h-.96v.77h.96V102zm5.9-5.08c-.92 0-1.56.68-1.63 1.7h3.19c-.02-1.02-.63-1.7-1.55-1.7zm1.53 3.58h.93c-.28 1-1.17 1.6-2.44 1.6-1.6 0-2.61-1.16-2.61-2.99 0-1.82 1.02-3 2.6-3 1.57 0 2.52 1.11 2.52 2.9v.36h-4.16v.05c.05 1.14.69 1.87 1.67 1.87.75 0 1.25-.28 1.5-.79zm5.94 1.5h.93v-5.02h1.32v-.77h-1.32v-.62c0-.63.28-.95.94-.95.17 0 .32 0 .44.02v-.75c-.2-.04-.4-.05-.63-.05-1.1 0-1.68.55-1.68 1.7v.65h-.96v.77h.96V102zm3.6 0h.92v-3.59c0-.81.64-1.4 1.52-1.4.18 0 .52.03.6.05v-.93a3.97 3.97 0 0 0-.47-.02c-.77 0-1.44.4-1.6.96h-.1v-.86h-.87V102zm6.56.1c-1.64 0-2.66-1.14-2.66-3s1.02-3 2.66-3c1.65 0 2.67 1.14 2.67 3s-1.02 3-2.67 3zm0-.83c1.1 0 1.72-.8 1.72-2.17 0-1.37-.62-2.16-1.72-2.16s-1.7.79-1.7 2.16.6 2.17 1.7 2.17zm4.12.73h.93v-3.59c0-.81.58-1.47 1.34-1.47.73 0 1.2.44 1.2 1.13V102h.93v-3.72c0-.74.54-1.34 1.35-1.34s1.22.42 1.22 1.27V102h.92v-4c0-1.22-.66-1.9-1.84-1.9-.8 0-1.46.41-1.78 1.02h-.08a1.67 1.67 0 0 0-1.6-1.01c-.78 0-1.36.37-1.62 1.01h-.08v-.91h-.89V102zm12.7 0h.93v-5.79h-.93V102zm.46-6.97c.36 0 .65-.29.65-.64a.65.65 0 0 0-.65-.65.65.65 0 0 0-.64.65c0 .35.29.64.64.64zm2.23 6.97h.92v-3.43c0-1.01.6-1.63 1.52-1.63s1.37.5 1.37 1.54V102h.92v-3.75c0-1.37-.73-2.14-2.03-2.14-.88 0-1.45.37-1.74 1.01H98v-.91h-.88V102zm6.8-7.29v1.5H103v.77h.93v3.52c0 1.1.48 1.54 1.67 1.54.19 0 .36-.02.55-.05v-.78a3.9 3.9 0 0 1-.43.02c-.6 0-.86-.29-.86-.97v-3.28h1.29v-.77h-1.3v-1.5h-.92zm3.61 7.29h.93v-3.59c0-.81.63-1.4 1.52-1.4.18 0 .51.03.59.05v-.93a3.97 3.97 0 0 0-.47-.02c-.76 0-1.43.4-1.6.96h-.09v-.86h-.88V102zm8.87-5.79h-.92v3.43c0 1.01-.56 1.62-1.58 1.62-.92 0-1.3-.48-1.3-1.53v-3.52h-.93v3.75c0 1.37.67 2.14 1.97 2.14.89 0 1.5-.36 1.8-1h.08v.9h.88v-5.79zm3.89 5.9c-1.48 0-2.44-1.18-2.44-3s.97-3 2.44-3c.8 0 1.49.38 1.81 1.01h.08v-3.2h.93V102h-.88v-.92h-.09a2.07 2.07 0 0 1-1.85 1.02zm.21-5.17c-1.05 0-1.69.82-1.69 2.16 0 1.36.63 2.17 1.7 2.17 1.05 0 1.7-.83 1.7-2.17 0-1.32-.66-2.16-1.7-2.16zm6.71-.02c-.92 0-1.57.68-1.64 1.7h3.2c-.03-1.02-.64-1.7-1.56-1.7zm1.53 3.58h.92c-.28 1-1.17 1.6-2.44 1.6-1.6 0-2.6-1.16-2.6-2.99 0-1.82 1.01-3 2.6-3 1.57 0 2.52 1.11 2.52 2.9v.36h-4.17v.05c.05 1.14.7 1.87 1.67 1.87.75 0 1.26-.28 1.5-.79zm2.45 1.5h.92v-3.59c0-.81.64-1.4 1.52-1.4.18 0 .52.03.6.05v-.93a3.97 3.97 0 0 0-.47-.02c-.77 0-1.44.4-1.6.96h-.1v-.86h-.87V102zm4.05-4.2c0 .83.5 1.3 1.58 1.56l1 .24c.61.15.91.42.91.82 0 .53-.56.9-1.33.9-.75 0-1.2-.3-1.36-.8h-.95c.1.96.98 1.58 2.27 1.58 1.32 0 2.32-.71 2.32-1.75 0-.83-.52-1.3-1.61-1.57l-.9-.21c-.68-.17-1-.42-1-.81 0-.52.54-.87 1.23-.87.7 0 1.14.3 1.27.77h.91c-.12-.95-.97-1.55-2.18-1.55-1.23 0-2.16.72-2.16 1.68zm6.66 4.25a.7.7 0 1 0 0-1.4.7.7 0 0 0 0 1.4z"/></g></svg>