<svg xmlns="http://www.w3.org/2000/svg" xmlns:xlink="http://www.w3.org/1999/xlink" viewBox="0 0 360 315"><defs><path id="b" d="M0 32h302v209a2 2 0 0 1-2 2H2a2 2 0 0 1-2-2V32z"/><filter id="a" width="108.3%" height="111.8%" x="-4.1%" y="-5.5%" filterUnits="objectBoundingBox"><feOffset dy="1" in="SourceAlpha" result="shadowOffsetOuter1"/><feGaussianBlur in="shadowOffsetOuter1" result="shadowBlurOuter1" stdDeviation="4"/><feComposite in="shadowBlurOuter1" in2="SourceAlpha" operator="out" result="shadowBlurOuter1"/><feColorMatrix in="shadowBlurOuter1" values="0 0 0 0 0.0470588235 0 0 0 0 0.0470588235 0 0 0 0 0.0509803922 0 0 0 0.1 0"/></filter><rect id="c" width="300" height="32" rx="2"/></defs><g fill="none" fill-rule="evenodd" transform="translate(29 26)"><g transform="translate(0 21)"><rect width="304" height="36" x="-1" y="-2" stroke="#0A84FF" stroke-opacity=".3" stroke-width="4" opacity=".52" rx="2"/><use fill="black" filter="url(#a)" xlink:href="#b"/><use fill="#FFFFFF" xlink:href="#b"/><path stroke="#0C0C0D" stroke-opacity=".3" d="M.5 32.5V241c0 .83.67 1.5 1.5 1.5h298c.83 0 1.5-.67 1.5-1.5V32.5H.5z"/><g transform="translate(1 32)"><rect width="300" height="30" fill="#0060DF"/><path fill="#FFFFFF" d="M22.45 20H21.4v-3.75c0-1.35-.5-2.03-1.51-2.03-.51 0-.94.2-1.28.6-.35.38-.53.88-.53 1.5V20h-1.04v-9.62h1.04v4.2h.03a2.36 2.36 0 0 1 2.13-1.23c1.47 0 2.2.88 2.2 2.64V20zm4.98-.06a2 2 0 0 1-.98.2c-1.13 0-1.7-.64-1.7-1.9v-3.85h-1.12v-.89h1.12v-1.59l1.04-.33v1.92h1.64v.89h-1.64v3.66c0 .44.07.75.22.93.15.2.4.28.74.28.26 0 .49-.07.68-.21v.89zm4.4 0a2 2 0 0 1-.97.2c-1.14 0-1.7-.64-1.7-1.9v-3.85h-1.12v-.89h1.11v-1.59l1.04-.33v1.92h1.64v.89H30.2v3.66c0 .44.08.75.23.93.14.2.39.28.73.28.26 0 .5-.07.68-.21v.89zm2.46-.88h-.03V23h-1.04V13.5h1.04v1.14h.03a2.46 2.46 0 0 1 2.24-1.3c.84 0 1.5.3 1.97.88.47.58.7 1.36.7 2.34 0 1.09-.26 1.96-.8 2.61-.52.66-1.25.98-2.16.98-.85 0-1.5-.36-1.95-1.09zm-.03-2.62v.9c0 .54.18 1 .53 1.37.35.38.79.57 1.33.57.63 0 1.12-.24 1.48-.73.36-.48.53-1.15.53-2 0-.73-.16-1.3-.5-1.71a1.66 1.66 0 0 0-1.36-.62c-.6 0-1.09.21-1.46.64-.36.42-.55.94-.55 1.58zm6.21 3.33v-1.12c.57.42 1.2.63 1.87.63.92 0 1.37-.3 1.37-.92a.8.8 0 0 0-.11-.44 1.17 1.17 0 0 0-.32-.32c-.13-.1-.3-.18-.47-.25a30.3 30.3 0 0 0-.58-.23 7.48 7.48 0 0 1-.76-.35 2.3 2.3 0 0 1-.55-.4 1.46 1.46 0 0 1-.33-.49c-.07-.19-.1-.4-.1-.65 0-.3.06-.58.2-.81.14-.24.33-.43.56-.6.23-.15.5-.27.8-.35a3.73 3.73 0 0 1 2.43.17v1.05a2.94 2.94 0 0 0-2.18-.4c-.15.04-.29.1-.4.19a.87.87 0 0 0-.26.29.76.76 0 0 0-.1.37c0 .17.04.3.1.42.06.12.15.22.27.3.12.1.26.18.43.25l.58.23c.29.11.55.23.77.34.23.12.43.25.59.4.16.14.28.31.37.5.09.2.13.42.13.68 0 .32-.07.6-.21.84-.14.24-.33.43-.57.59a2.6 2.6 0 0 1-.82.35c-.3.07-.63.11-.97.11-.67 0-1.25-.13-1.74-.38zm6.27-5a.67.67 0 0 1-.5-.21.69.69 0 0 1-.2-.5.68.68 0 0 1 .7-.7c.2 0 .37.07.51.2.14.14.2.3.2.5s-.06.36-.2.5a.7.7 0 0 1-.5.21zm0 5.37a.67.67 0 0 1-.5-.21.69.69 0 0 1-.2-.5c0-.2.07-.36.2-.5.14-.15.3-.22.5-.22s.37.07.51.21c.14.15.2.31.2.5 0 .2-.06.37-.2.51a.7.7 0 0 1-.5.21zm6.57-9.24L48.94 21.5h-.97l4.35-10.61h.99zm5.06 0L54 21.5h-.97L57.4 10.9h.98zm9.15 2.6L65.57 20h-1.08l-1.34-4.65a3.03 3.03 0 0 1-.1-.6h-.03c0 .15-.05.34-.13.58L61.44 20H60.4l-1.97-6.5h1.09l1.35 4.89c.04.15.07.34.08.58H61c.02-.18.06-.38.12-.6l1.5-4.87h.95l1.35 4.9c.04.16.07.35.09.58h.05c0-.16.05-.36.1-.58l1.33-4.9h1.03zm9.4 0L74.95 20h-1.08l-1.34-4.65a3.03 3.03 0 0 1-.1-.6h-.02c-.01.15-.06.34-.14.58L70.83 20H69.8l-1.97-6.5h1.1l1.34 4.89c.04.15.07.34.09.58h.05c.01-.18.05-.38.11-.6l1.5-4.87h.95l1.35 4.9c.04.16.07.35.1.58h.05c0-.16.04-.36.1-.58l1.32-4.9h1.03zm9.39 0L84.36 20h-1.08l-1.34-4.65a3.03 3.03 0 0 1-.1-.6h-.03c-.01.15-.05.34-.13.58L80.23 20h-1.05l-1.96-6.5h1.09l1.34 4.89c.05.15.08.34.1.58h.04c.02-.18.05-.38.12-.6l1.5-4.87h.95l1.34 4.9c.05.16.08.35.1.58h.05c0-.16.04-.36.1-.58l1.33-4.9h1.03zm.92 6.64a.67.67 0 0 1-.5-.21.69.69 0 0 1-.2-.5c0-.2.06-.36.2-.5.14-.15.3-.22.5-.22s.37.07.5.21c.14.15.21.31.21.5 0 .2-.07.37-.2.51a.7.7 0 0 1-.51.21zM98.9 20h-1.04v-3.73c0-.72-.1-1.24-.33-1.56-.22-.33-.6-.49-1.12-.49-.45 0-.82.2-1.13.61-.32.4-.47.9-.47 1.46V20h-1.04v-3.86c0-1.28-.5-1.92-1.48-1.92-.46 0-.83.2-1.13.58-.3.38-.45.88-.45 1.5V20h-1.04v-6.5h1.04v1.03h.03a2.2 2.2 0 0 1 2.02-1.18 1.88 1.88 0 0 1 1.84 1.34c.48-.9 1.2-1.34 2.16-1.34 1.43 0 2.14.88 2.14 2.64V20zm4.69.15c-.96 0-1.73-.3-2.3-.9a3.37 3.37 0 0 1-.86-2.42c0-1.1.3-1.95.9-2.56.59-.62 1.4-.92 2.41-.92.97 0 1.73.3 2.27.9.54.59.81 1.42.81 2.47a3.5 3.5 0 0 1-.87 2.5c-.59.62-1.38.93-2.36.93zm.07-5.93c-.66 0-1.2.23-1.58.69a2.8 2.8 0 0 0-.59 1.88c0 .77.2 1.38.6 1.82a2 2 0 0 0 1.57.67 1.9 1.9 0 0 0 1.56-.66c.36-.43.54-1.05.54-1.86s-.18-1.44-.54-1.88a1.9 1.9 0 0 0-1.56-.66zm9.36-.42l-3.85 5.31H113V20h-5.34v-.32l3.85-5.3h-3.48v-.88h5.01v.3zm1.88-1.95a.66.66 0 0 1-.67-.67c0-.2.06-.36.2-.49.12-.13.28-.2.47-.2a.67.67 0 0 1 .68.69c0 .18-.06.34-.2.47-.13.13-.29.2-.48.2zm.5 8.15h-1.03v-6.5h1.04V20zm3.16 0h-1.05v-9.62h1.05V20zm3.14 0h-1.04v-9.62h1.04V20zm6.76 0h-1.04v-1.02h-.02a2.18 2.18 0 0 1-2 1.17c-.65 0-1.16-.17-1.52-.51-.37-.34-.55-.8-.55-1.37 0-1.21.71-1.92 2.14-2.12l1.95-.27c0-1.1-.44-1.66-1.34-1.66a3.2 3.2 0 0 0-2.12.8v-1.06c.64-.4 1.38-.61 2.21-.61 1.53 0 2.3.8 2.3 2.42V20zm-1.04-3.29l-1.56.22c-.49.07-.85.18-1.1.36-.24.17-.36.47-.36.9a1 1 0 0 0 .33.78c.23.2.53.3.9.3.53 0 .95-.17 1.29-.54.33-.36.5-.82.5-1.37v-.65zm3.37 3.43a.67.67 0 0 1-.5-.21.69.69 0 0 1-.2-.5c0-.2.06-.36.2-.5.14-.15.3-.22.5-.22s.37.07.5.21c.14.15.21.31.21.5 0 .2-.07.37-.2.51a.7.7 0 0 1-.51.21zm5.17.01c-.96 0-1.73-.3-2.3-.9a3.37 3.37 0 0 1-.86-2.42c0-1.1.3-1.95.9-2.56.6-.62 1.4-.92 2.41-.92.97 0 1.73.3 2.27.9.55.59.82 1.42.82 2.47a3.5 3.5 0 0 1-.88 2.5c-.59.62-1.37.93-2.36.93zm.08-5.93c-.67 0-1.2.23-1.59.69a2.8 2.8 0 0 0-.58 1.88c0 .77.2 1.38.59 1.82a2 2 0 0 0 1.58.67 1.9 1.9 0 0 0 1.55-.66c.36-.43.54-1.05.54-1.86s-.18-1.44-.54-1.88a1.9 1.9 0 0 0-1.55-.66zm8.21.33c-.18-.14-.44-.2-.79-.2-.44 0-.81.2-1.11.62-.3.42-.45 1-.45 1.72V20h-1.04v-6.5h1.04v1.34h.03c.15-.46.37-.81.68-1.07.3-.26.64-.38 1.02-.38.27 0 .48.03.62.08v1.08zm6.5 4.93c0 2.39-1.14 3.58-3.42 3.58-.8 0-1.5-.15-2.1-.46v-1.04c.72.4 1.42.61 2.09.61 1.6 0 2.4-.85 2.4-2.55v-.71h-.03a2.43 2.43 0 0 1-2.23 1.24c-.81 0-1.46-.29-1.96-.86a3.46 3.46 0 0 1-.74-2.33c0-1.1.27-1.98.8-2.63a2.66 2.66 0 0 1 2.18-.98c.88 0 1.53.35 1.95 1.05h.03v-.9h1.04v5.98zm-1.03-2.42v-.96c0-.51-.18-.96-.53-1.32a1.72 1.72 0 0 0-1.3-.56 1.8 1.8 0 0 0-1.51.7 3.13 3.13 0 0 0-.55 1.97c0 .72.18 1.3.52 1.74.35.43.82.65 1.4.65s1.05-.21 1.42-.63c.36-.41.55-.94.55-1.59z"/></g><g transform="translate(1 62)"><rect width="300" height="30" fill="#FFFFFF"/><path fill="#0C0C0D" d="M22.4 18.76h-1.05v-3.74c0-1.36-.5-2.03-1.5-2.03-.51 0-.94.2-1.29.58-.35.4-.52.9-.52 1.51v3.68H17V9.14h1.04v4.2h.03a2.36 2.36 0 0 1 2.13-1.23c1.46 0 2.2.88 2.2 2.65v4zm4.97-.06a2 2 0 0 1-.97.2c-1.14 0-1.7-.63-1.7-1.9v-3.85h-1.12v-.89h1.11v-1.58l1.04-.34v1.92h1.64v.9h-1.64v3.65c0 .44.08.75.23.94.14.18.39.28.73.28.27 0 .5-.08.68-.22v.89zm4.4 0a2 2 0 0 1-.96.2c-1.14 0-1.71-.63-1.71-1.9v-3.85h-1.12v-.89h1.12v-1.58l1.04-.34v1.92h1.64v.9h-1.64v3.65c0 .44.07.75.22.94.15.18.4.28.74.28.26 0 .49-.08.68-.22v.89zm2.46-.88h-.02v3.93h-1.04v-9.49h1.04v1.15h.02a2.46 2.46 0 0 1 2.25-1.3c.84 0 1.5.3 1.96.87.47.59.7 1.36.7 2.34 0 1.09-.26 1.96-.79 2.61-.53.66-1.25.99-2.17.99-.84 0-1.49-.37-1.95-1.1zm-.02-2.62v.9c0 .55.17 1 .52 1.38.35.37.8.56 1.33.56.63 0 1.13-.24 1.48-.72.36-.49.54-1.16.54-2.02 0-.72-.17-1.29-.5-1.7a1.66 1.66 0 0 0-1.36-.61c-.6 0-1.1.2-1.46.63-.37.42-.55.95-.55 1.58zm6.2 3.33V17.4c.57.42 1.2.63 1.88.63.91 0 1.37-.3 1.37-.91a.8.8 0 0 0-.12-.45 1.17 1.17 0 0 0-.31-.32c-.14-.09-.3-.17-.47-.25a30.3 30.3 0 0 0-.59-.23 7.48 7.48 0 0 1-.75-.35 2.3 2.3 0 0 1-.55-.39 1.46 1.46 0 0 1-.33-.5c-.07-.18-.11-.4-.11-.65 0-.3.07-.58.2-.81.15-.23.33-.43.57-.59.23-.16.5-.28.8-.36a3.73 3.73 0 0 1 2.43.17v1.06a2.94 2.94 0 0 0-2.18-.4c-.16.04-.29.1-.4.18a.87.87 0 0 0-.26.29.76.76 0 0 0-.1.37c0 .17.04.31.1.43.06.11.15.21.27.3.12.09.26.17.43.24l.58.24c.28.1.54.22.77.34.23.11.42.24.59.39.16.15.28.31.37.5.08.2.13.42.13.68 0 .33-.07.6-.22.84-.14.24-.33.44-.56.6a2.6 2.6 0 0 1-.82.34c-.31.08-.64.12-.97.12-.67 0-1.25-.13-1.74-.4zm6.28-5a.67.67 0 0 1-.5-.2.69.69 0 0 1-.2-.5c0-.2.06-.37.2-.5.14-.14.3-.2.5-.2s.37.06.5.2c.15.13.22.3.22.5 0 .19-.07.35-.21.5a.7.7 0 0 1-.51.2zm0 5.37a.67.67 0 0 1-.5-.2.69.69 0 0 1-.2-.5c0-.2.06-.37.2-.51s.3-.22.5-.22.37.08.5.22c.15.14.22.3.22.5s-.07.36-.21.5a.7.7 0 0 1-.51.21zm6.56-9.24l-4.37 10.61h-.97l4.36-10.61h.98zm5.07 0l-4.37 10.61h-.97l4.35-10.61h.99zm9.14 2.6l-1.94 6.5h-1.08l-1.34-4.65a3.03 3.03 0 0 1-.1-.6h-.03c-.01.15-.06.35-.13.59l-1.46 4.66h-1.04l-1.97-6.5h1.1l1.34 4.89c.04.15.07.34.09.58h.05c.01-.18.05-.38.12-.6l1.5-4.87h.95l1.34 4.9c.04.16.08.35.1.59H65c0-.17.04-.36.1-.59l1.33-4.9h1.02zm9.4 0l-1.95 6.5h-1.08l-1.34-4.65a3.03 3.03 0 0 1-.1-.6h-.03c0 .15-.05.35-.13.59l-1.45 4.66h-1.04l-1.97-6.5h1.09l1.35 4.89c.04.15.07.34.08.58h.06c0-.18.05-.38.11-.6l1.5-4.87h.95l1.35 4.9c.04.16.07.35.1.59h.04c.01-.17.05-.36.11-.59l1.32-4.9h1.03zm9.4 0l-1.96 6.5h-1.07l-1.34-4.65a3.03 3.03 0 0 1-.1-.6h-.03c-.01.15-.06.35-.13.59l-1.46 4.66h-1.04l-1.97-6.5h1.1l1.34 4.89c.04.15.07.34.09.58h.05c.01-.18.05-.38.11-.6l1.5-4.87h.95l1.35 4.9c.04.16.07.35.1.59h.05c0-.17.04-.36.1-.59l1.32-4.9h1.03zm.91 6.64a.67.67 0 0 1-.5-.2.69.69 0 0 1-.2-.5c0-.2.07-.37.2-.51.14-.14.3-.22.5-.22s.37.08.51.22.21.3.21.5-.07.36-.2.5a.7.7 0 0 1-.52.21zm11.69-.14h-1.04v-3.73c0-.72-.11-1.24-.33-1.56-.23-.32-.6-.48-1.13-.48-.44 0-.82.2-1.13.6-.3.41-.46.9-.46 1.47v3.7h-1.05V14.9c0-1.27-.49-1.91-1.47-1.91-.46 0-.84.19-1.13.57-.3.38-.45.88-.45 1.5v3.7h-1.04v-6.5h1.04v1.03h.03a2.2 2.2 0 0 1 2.01-1.18 1.88 1.88 0 0 1 1.85 1.35c.48-.9 1.2-1.35 2.15-1.35 1.43 0 2.15.88 2.15 2.65v4zm4.68.16c-.96 0-1.72-.3-2.3-.92a3.37 3.37 0 0 1-.86-2.41c0-1.1.3-1.95.9-2.56.6-.61 1.4-.92 2.42-.92.97 0 1.72.3 2.27.9.54.6.81 1.42.81 2.48a3.5 3.5 0 0 1-.88 2.49c-.58.62-1.37.94-2.36.94zm.08-5.93c-.67 0-1.2.22-1.59.68a2.8 2.8 0 0 0-.58 1.88c0 .77.2 1.38.59 1.82a2 2 0 0 0 1.58.67 1.9 1.9 0 0 0 1.55-.65c.36-.44.54-1.06.54-1.86 0-.82-.18-1.44-.54-1.88a1.9 1.9 0 0 0-1.55-.66zm9.36-.43l-3.85 5.31h3.8v.9h-5.33v-.33l3.85-5.29h-3.49v-.89h5.02v.3zm1.88-1.95a.66.66 0 0 1-.68-.67c0-.2.07-.36.2-.49s.29-.19.48-.19a.67.67 0 0 1 .68.68c0 .19-.07.34-.2.48-.13.13-.3.2-.48.2zm.5 8.15h-1.04v-6.5h1.04v6.5zm3.15 0h-1.04V9.14h1.04v9.62zm3.15 0h-1.04V9.14h1.04v9.62zm6.76 0h-1.04v-1.01h-.03a2.18 2.18 0 0 1-2 1.17c-.64 0-1.15-.18-1.52-.52-.36-.34-.54-.8-.54-1.36 0-1.22.71-1.93 2.14-2.12l1.95-.28c0-1.1-.45-1.65-1.34-1.65a3.2 3.2 0 0 0-2.12.8v-1.07c.64-.4 1.38-.61 2.2-.61 1.54 0 2.3.8 2.3 2.43v4.22zm-1.04-3.29l-1.57.22c-.48.07-.84.19-1.09.36-.25.17-.37.47-.37.91a1 1 0 0 0 .34.78c.23.2.53.3.9.3.52 0 .95-.18 1.28-.54.34-.37.5-.82.5-1.38v-.65zm6.21-5.42c-.2-.11-.43-.17-.69-.17-.73 0-1.09.46-1.09 1.38v1h1.52v.9h-1.52v5.6h-1.03v-5.6h-1.12v-.9h1.12v-1.05c0-.68.2-1.22.59-1.62a2 2 0 0 1 1.47-.59c.32 0 .57.04.75.11v.94zm1.4.56a.66.66 0 0 1-.68-.67c0-.2.07-.36.2-.49s.29-.19.47-.19a.67.67 0 0 1 .69.68c0 .19-.07.34-.2.48-.13.13-.3.2-.49.2zm.5 8.15h-1.04v-6.5h1.04v6.5zm5.5-5.44c-.18-.14-.45-.21-.79-.21-.44 0-.81.2-1.11.63-.3.41-.45.99-.45 1.7v3.32h-1.04v-6.5h1.04v1.34h.03c.14-.45.37-.81.67-1.07.3-.25.65-.38 1.03-.38.27 0 .47.03.62.09v1.08zm6.18 2.45h-4.59c.02.73.21 1.29.59 1.68.37.4.88.59 1.53.59.73 0 1.4-.24 2.02-.72v.97c-.57.42-1.33.63-2.27.63-.91 0-1.64-.3-2.16-.89a3.62 3.62 0 0 1-.79-2.5c0-1 .29-1.83.86-2.46a2.76 2.76 0 0 1 2.14-.96c.85 0 1.5.28 1.97.83.47.55.7 1.31.7 2.29v.54zm-1.07-.88c0-.6-.14-1.07-.43-1.4-.29-.34-.68-.5-1.19-.5-.5 0-.9.17-1.25.52a2.4 2.4 0 0 0-.64 1.38h3.51zm5.86-4.84c-.2-.11-.44-.17-.7-.17-.72 0-1.09.46-1.09 1.38v1h1.53v.9h-1.53v5.6h-1.03v-5.6h-1.11v-.9h1.1v-1.05c0-.68.2-1.22.6-1.62A2 2 0 0 1 151.2 9c.32 0 .57.04.76.11v.94zm3.57 8.87c-.96 0-1.73-.3-2.3-.92a3.37 3.37 0 0 1-.86-2.41c0-1.1.3-1.95.9-2.56.6-.61 1.4-.92 2.41-.92.97 0 1.73.3 2.27.9.55.6.82 1.42.82 2.48a3.5 3.5 0 0 1-.88 2.49c-.59.62-1.37.94-2.36.94zm.08-5.93c-.67 0-1.2.22-1.59.68a2.8 2.8 0 0 0-.58 1.88c0 .77.2 1.38.59 1.82a2 2 0 0 0 1.58.67 1.9 1.9 0 0 0 1.55-.65c.36-.44.54-1.06.54-1.86 0-.82-.18-1.44-.54-1.88a1.9 1.9 0 0 0-1.55-.66zm9.41-.73l-2.18 3.3 2.14 3.2h-1.2l-1.29-2.1-.28-.5h-.03l-.3.5-1.3 2.1h-1.2l2.22-3.18-2.12-3.32h1.21l1.26 2.22.27.51h.03l1.62-2.73h1.15zm1.58 6.64a.67.67 0 0 1-.5-.2.69.69 0 0 1-.2-.5c0-.2.07-.37.2-.51.14-.14.3-.22.5-.22s.37.08.5.22c.15.14.22.3.22.5s-.07.36-.21.5a.7.7 0 0 1-.5.21zm5.17.02c-.96 0-1.72-.3-2.3-.92a3.37 3.37 0 0 1-.86-2.41c0-1.1.3-1.95.9-2.56.6-.61 1.4-.92 2.42-.92.97 0 1.72.3 2.27.9.54.6.81 1.42.81 2.48a3.5 3.5 0 0 1-.88 2.49c-.58.62-1.37.94-2.36.94zm.08-5.93c-.67 0-1.2.22-1.59.68a2.8 2.8 0 0 0-.58 1.88c0 .77.2 1.38.6 1.82a2 2 0 0 0 1.57.67 1.9 1.9 0 0 0 1.55-.65c.36-.44.55-1.06.55-1.86 0-.82-.19-1.44-.55-1.88a1.9 1.9 0 0 0-1.55-.66zm8.21.33c-.18-.14-.44-.21-.78-.21-.45 0-.82.2-1.12.63-.3.41-.44.99-.44 1.7v3.32h-1.04v-6.5h1.04v1.34h.02c.15-.45.38-.81.68-1.07.3-.25.65-.38 1.02-.38.27 0 .48.03.62.09v1.08zm6.51 4.92c0 2.39-1.14 3.58-3.43 3.58-.8 0-1.5-.15-2.1-.45v-1.05c.73.41 1.43.61 2.1.61 1.59 0 2.39-.85 2.39-2.55v-.7h-.03a2.43 2.43 0 0 1-2.23 1.24c-.8 0-1.46-.3-1.95-.87a3.46 3.46 0 0 1-.74-2.33c0-1.1.26-1.98.8-2.63a2.66 2.66 0 0 1 2.18-.98c.87 0 1.52.35 1.94 1.05h.03v-.9h1.04v5.98zm-1.04-2.42v-.95c0-.52-.17-.96-.52-1.33a1.72 1.72 0 0 0-1.3-.55 1.8 1.8 0 0 0-1.52.7 3.13 3.13 0 0 0-.54 1.96c0 .73.17 1.3.52 1.74.35.43.81.65 1.39.65.58 0 1.06-.2 1.42-.62.37-.42.55-.95.55-1.6z"/></g><g transform="translate(1 92)"><rect width="300" height="30" fill="#FFFFFF"/><path fill="#0C0C0D" d="M22.4 18.76h-1.05v-3.74c0-1.36-.5-2.03-1.5-2.03-.51 0-.94.2-1.29.58-.35.4-.52.9-.52 1.51v3.68H17V9.14h1.04v4.2h.03a2.36 2.36 0 0 1 2.13-1.23c1.46 0 2.2.88 2.2 2.65v4zm4.97-.06a2 2 0 0 1-.97.2c-1.14 0-1.7-.63-1.7-1.9v-3.85h-1.12v-.89h1.11v-1.58l1.04-.34v1.92h1.64v.9h-1.64v3.65c0 .44.08.75.23.94.14.18.39.28.73.28.27 0 .5-.08.68-.22v.89zm4.4 0a2 2 0 0 1-.96.2c-1.14 0-1.71-.63-1.71-1.9v-3.85h-1.12v-.89h1.12v-1.58l1.04-.34v1.92h1.64v.9h-1.64v3.65c0 .44.07.75.22.94.15.18.4.28.74.28.26 0 .49-.08.68-.22v.89zm2.46-.88h-.02v3.93h-1.04v-9.49h1.04v1.15h.02a2.46 2.46 0 0 1 2.25-1.3c.84 0 1.5.3 1.96.87.47.59.7 1.36.7 2.34 0 1.09-.26 1.96-.79 2.61-.53.66-1.25.99-2.17.99-.84 0-1.49-.37-1.95-1.1zm-.02-2.62v.9c0 .55.17 1 .52 1.38.35.37.8.56 1.33.56.63 0 1.13-.24 1.48-.72.36-.49.54-1.16.54-2.02 0-.72-.17-1.29-.5-1.7a1.66 1.66 0 0 0-1.36-.61c-.6 0-1.1.2-1.46.63-.37.42-.55.95-.55 1.58zm6.2 3.33V17.4c.57.42 1.2.63 1.88.63.91 0 1.37-.3 1.37-.91a.8.8 0 0 0-.12-.45 1.17 1.17 0 0 0-.31-.32c-.14-.09-.3-.17-.47-.25a30.3 30.3 0 0 0-.59-.23 7.48 7.48 0 0 1-.75-.35 2.3 2.3 0 0 1-.55-.39 1.46 1.46 0 0 1-.33-.5c-.07-.18-.11-.4-.11-.65 0-.3.07-.58.2-.81.15-.23.33-.43.57-.59.23-.16.5-.28.8-.36a3.73 3.73 0 0 1 2.43.17v1.06a2.94 2.94 0 0 0-2.18-.4c-.16.04-.29.1-.4.18a.87.87 0 0 0-.26.29.76.76 0 0 0-.1.37c0 .17.04.31.1.43.06.11.15.21.27.3.12.09.26.17.43.24l.58.24c.28.1.54.22.77.34.23.11.42.24.59.39.16.15.28.31.37.5.08.2.13.42.13.68 0 .33-.07.6-.22.84-.14.24-.33.44-.56.6a2.6 2.6 0 0 1-.82.34c-.31.08-.64.12-.97.12-.67 0-1.25-.13-1.74-.4zm6.28-5a.67.67 0 0 1-.5-.2.69.69 0 0 1-.2-.5c0-.2.06-.37.2-.5.14-.14.3-.2.5-.2s.37.06.5.2c.15.13.22.3.22.5 0 .19-.07.35-.21.5a.7.7 0 0 1-.51.2zm0 5.37a.67.67 0 0 1-.5-.2.69.69 0 0 1-.2-.5c0-.2.06-.37.2-.51s.3-.22.5-.22.37.08.5.22c.15.14.22.3.22.5s-.07.36-.21.5a.7.7 0 0 1-.51.21zm6.56-9.24l-4.37 10.61h-.97l4.36-10.61h.98zm5.07 0l-4.37 10.61h-.97l4.35-10.61h.99zm9.14 2.6l-1.94 6.5h-1.08l-1.34-4.65a3.03 3.03 0 0 1-.1-.6h-.03c-.01.15-.06.35-.13.59l-1.46 4.66h-1.04l-1.97-6.5h1.1l1.34 4.89c.04.15.07.34.09.58h.05c.01-.18.05-.38.12-.6l1.5-4.87h.95l1.34 4.9c.04.16.08.35.1.59H65c0-.17.04-.36.1-.59l1.33-4.9h1.02zm9.4 0l-1.95 6.5h-1.08l-1.34-4.65a3.03 3.03 0 0 1-.1-.6h-.03c0 .15-.05.35-.13.59l-1.45 4.66h-1.04l-1.97-6.5h1.09l1.35 4.89c.04.15.07.34.08.58h.06c0-.18.05-.38.11-.6l1.5-4.87h.95l1.35 4.9c.04.16.07.35.1.59h.04c.01-.17.05-.36.11-.59l1.32-4.9h1.03zm9.4 0l-1.96 6.5h-1.07l-1.34-4.65a3.03 3.03 0 0 1-.1-.6h-.03c-.01.15-.06.35-.13.59l-1.46 4.66h-1.04l-1.97-6.5h1.1l1.34 4.89c.04.15.07.34.09.58h.05c.01-.18.05-.38.11-.6l1.5-4.87h.95l1.35 4.9c.04.16.07.35.1.59h.05c0-.17.04-.36.1-.59l1.32-4.9h1.03zm.91 6.64a.67.67 0 0 1-.5-.2.69.69 0 0 1-.2-.5c0-.2.07-.37.2-.51.14-.14.3-.22.5-.22s.37.08.51.22.21.3.21.5-.07.36-.2.5a.7.7 0 0 1-.52.21zm11.69-.14h-1.04v-3.73c0-.72-.11-1.24-.33-1.56-.23-.32-.6-.48-1.13-.48-.44 0-.82.2-1.13.6-.3.41-.46.9-.46 1.47v3.7h-1.05V14.9c0-1.27-.49-1.91-1.47-1.91-.46 0-.84.19-1.13.57-.3.38-.45.88-.45 1.5v3.7h-1.04v-6.5h1.04v1.03h.03a2.2 2.2 0 0 1 2.01-1.18 1.88 1.88 0 0 1 1.85 1.35c.48-.9 1.2-1.35 2.15-1.35 1.43 0 2.15.88 2.15 2.65v4zm4.68.16c-.96 0-1.72-.3-2.3-.92a3.37 3.37 0 0 1-.86-2.41c0-1.1.3-1.95.9-2.56.6-.61 1.4-.92 2.42-.92.97 0 1.72.3 2.27.9.54.6.81 1.42.81 2.48a3.5 3.5 0 0 1-.88 2.49c-.58.62-1.37.94-2.36.94zm.08-5.93c-.67 0-1.2.22-1.59.68a2.8 2.8 0 0 0-.58 1.88c0 .77.2 1.38.59 1.82a2 2 0 0 0 1.58.67 1.9 1.9 0 0 0 1.55-.65c.36-.44.54-1.06.54-1.86 0-.82-.18-1.44-.54-1.88a1.9 1.9 0 0 0-1.55-.66zm9.36-.43l-3.85 5.31h3.8v.9h-5.33v-.33l3.85-5.29h-3.49v-.89h5.02v.3zm1.88-1.95a.66.66 0 0 1-.68-.67c0-.2.07-.36.2-.49s.29-.19.48-.19a.67.67 0 0 1 .68.68c0 .19-.07.34-.2.48-.13.13-.3.2-.48.2zm.5 8.15h-1.04v-6.5h1.04v6.5zm3.15 0h-1.04V9.14h1.04v9.62zm3.15 0h-1.04V9.14h1.04v9.62zm6.76 0h-1.04v-1.01h-.03a2.18 2.18 0 0 1-2 1.17c-.64 0-1.15-.18-1.52-.52-.36-.34-.54-.8-.54-1.36 0-1.22.71-1.93 2.14-2.12l1.95-.28c0-1.1-.45-1.65-1.34-1.65a3.2 3.2 0 0 0-2.12.8v-1.07c.64-.4 1.38-.61 2.2-.61 1.54 0 2.3.8 2.3 2.43v4.22zm-1.04-3.29l-1.57.22c-.48.07-.84.19-1.09.36-.25.17-.37.47-.37.91a1 1 0 0 0 .34.78c.23.2.53.3.9.3.52 0 .95-.18 1.28-.54.34-.37.5-.82.5-1.38v-.65zm6.21-5.42c-.2-.11-.43-.17-.69-.17-.73 0-1.09.46-1.09 1.38v1h1.52v.9h-1.52v5.6h-1.03v-5.6h-1.12v-.9h1.12v-1.05c0-.68.2-1.22.59-1.62a2 2 0 0 1 1.47-.59c.32 0 .57.04.75.11v.94zm1.4.56a.66.66 0 0 1-.68-.67c0-.2.07-.36.2-.49s.29-.19.47-.19a.67.67 0 0 1 .69.68c0 .19-.07.34-.2.48-.13.13-.3.2-.49.2zm.5 8.15h-1.04v-6.5h1.04v6.5zm5.5-5.44c-.18-.14-.45-.21-.79-.21-.44 0-.81.2-1.11.63-.3.41-.45.99-.45 1.7v3.32h-1.04v-6.5h1.04v1.34h.03c.14-.45.37-.81.67-1.07.3-.25.65-.38 1.03-.38.27 0 .47.03.62.09v1.08zm6.18 2.45h-4.59c.02.73.21 1.29.59 1.68.37.4.88.59 1.53.59.73 0 1.4-.24 2.02-.72v.97c-.57.42-1.33.63-2.27.63-.91 0-1.64-.3-2.16-.89a3.62 3.62 0 0 1-.79-2.5c0-1 .29-1.83.86-2.46a2.76 2.76 0 0 1 2.14-.96c.85 0 1.5.28 1.97.83.47.55.7 1.31.7 2.29v.54zm-1.07-.88c0-.6-.14-1.07-.43-1.4-.29-.34-.68-.5-1.19-.5-.5 0-.9.17-1.25.52a2.4 2.4 0 0 0-.64 1.38h3.51zm5.86-4.84c-.2-.11-.44-.17-.7-.17-.72 0-1.09.46-1.09 1.38v1h1.53v.9h-1.53v5.6h-1.03v-5.6h-1.11v-.9h1.1v-1.05c0-.68.2-1.22.6-1.62A2 2 0 0 1 151.2 9c.32 0 .57.04.76.11v.94zm3.57 8.87c-.96 0-1.73-.3-2.3-.92a3.37 3.37 0 0 1-.86-2.41c0-1.1.3-1.95.9-2.56.6-.61 1.4-.92 2.41-.92.97 0 1.73.3 2.27.9.55.6.82 1.42.82 2.48a3.5 3.5 0 0 1-.88 2.49c-.59.62-1.37.94-2.36.94zm.08-5.93c-.67 0-1.2.22-1.59.68a2.8 2.8 0 0 0-.58 1.88c0 .77.2 1.38.59 1.82a2 2 0 0 0 1.58.67 1.9 1.9 0 0 0 1.55-.65c.36-.44.54-1.06.54-1.86 0-.82-.18-1.44-.54-1.88a1.9 1.9 0 0 0-1.55-.66zm9.41-.73l-2.18 3.3 2.14 3.2h-1.2l-1.29-2.1-.28-.5h-.03l-.3.5-1.3 2.1h-1.2l2.22-3.18-2.12-3.32h1.21l1.26 2.22.27.51h.03l1.62-2.73h1.15zm1.58 6.64a.67.67 0 0 1-.5-.2.69.69 0 0 1-.2-.5c0-.2.07-.37.2-.51.14-.14.3-.22.5-.22s.37.08.5.22c.15.14.22.3.22.5s-.07.36-.21.5a.7.7 0 0 1-.5.21zm6.89-.44c-.5.3-1.1.46-1.78.46-.93 0-1.67-.3-2.24-.91a3.28 3.28 0 0 1-.86-2.34c0-1.08.31-1.94.92-2.59a3.22 3.22 0 0 1 2.46-.97c.57 0 1.08.1 1.51.32v1.06c-.48-.33-1-.5-1.55-.5-.66 0-1.2.23-1.63.71-.43.48-.64 1.1-.64 1.88 0 .76.2 1.36.6 1.8.4.44.94.66 1.6.66.58 0 1.1-.19 1.6-.57v1zm4.29.46c-.96 0-1.73-.3-2.3-.92a3.37 3.37 0 0 1-.86-2.41c0-1.1.3-1.95.9-2.56.59-.61 1.4-.92 2.41-.92.97 0 1.73.3 2.27.9.55.6.82 1.42.82 2.48a3.5 3.5 0 0 1-.88 2.49c-.59.62-1.37.94-2.36.94zm.08-5.93c-.67 0-1.2.22-1.6.68a2.8 2.8 0 0 0-.57 1.88c0 .77.2 1.38.59 1.82a2 2 0 0 0 1.58.67 1.9 1.9 0 0 0 1.55-.65c.36-.44.54-1.06.54-1.86 0-.82-.18-1.44-.54-1.88a1.9 1.9 0 0 0-1.55-.66zm14.05 5.77h-1.04v-3.73c0-.72-.11-1.24-.33-1.56-.23-.32-.6-.48-1.12-.48-.45 0-.83.2-1.14.6-.3.41-.46.9-.46 1.47v3.7h-1.05V14.9c0-1.27-.49-1.91-1.47-1.91-.46 0-.84.19-1.13.57-.3.38-.45.88-.45 1.5v3.7h-1.04v-6.5h1.04v1.03h.03a2.2 2.2 0 0 1 2.02-1.18 1.88 1.88 0 0 1 1.84 1.35c.48-.9 1.2-1.35 2.15-1.35 1.43 0 2.15.88 2.15 2.65v4z"/></g><g transform="translate(1 122)"><rect width="300" height="30" fill="#FFFFFF"/><path fill="#0C0C0D" d="M22.4 18.62h-1.05v-3.74c0-1.36-.5-2.03-1.5-2.03-.51 0-.94.2-1.29.58-.35.4-.52.9-.52 1.51v3.68H17V9h1.04v4.2h.03a2.36 2.36 0 0 1 2.13-1.23c1.46 0 2.2.88 2.2 2.65v4zm4.97-.06a2 2 0 0 1-.97.2c-1.14 0-1.7-.63-1.7-1.9V13h-1.12v-.89h1.11v-1.58l1.04-.34v1.92h1.64v.9h-1.64v3.65c0 .44.08.75.23.94.14.18.39.28.73.28.27 0 .5-.08.68-.22v.89zm4.4 0a2 2 0 0 1-.96.2c-1.14 0-1.71-.63-1.71-1.9V13h-1.12v-.89h1.12v-1.58l1.04-.34v1.92h1.64v.9h-1.64v3.65c0 .44.07.75.22.94.15.18.4.28.74.28.26 0 .49-.08.68-.22v.89zm2.46-.88h-.02v3.93h-1.04v-9.49h1.04v1.15h.02a2.46 2.46 0 0 1 2.25-1.3c.84 0 1.5.3 1.96.87.47.59.7 1.37.7 2.34 0 1.09-.26 1.96-.79 2.61-.53.66-1.25.99-2.17.99-.84 0-1.49-.37-1.95-1.1zm-.02-2.62v.91c0 .54.17 1 .52 1.37.35.37.8.56 1.33.56.63 0 1.13-.24 1.48-.72.36-.49.54-1.16.54-2.02 0-.72-.17-1.29-.5-1.7a1.66 1.66 0 0 0-1.36-.61c-.6 0-1.1.2-1.46.63-.37.42-.55.95-.55 1.58zm6.2 3.33v-1.12c.57.42 1.2.63 1.88.63.91 0 1.37-.3 1.37-.91a.8.8 0 0 0-.12-.45 1.17 1.17 0 0 0-.31-.32c-.14-.09-.3-.17-.47-.25a30.3 30.3 0 0 0-.59-.23 7.48 7.48 0 0 1-.75-.34 2.3 2.3 0 0 1-.55-.4 1.46 1.46 0 0 1-.33-.5c-.07-.18-.11-.4-.11-.65 0-.3.07-.57.2-.81.15-.23.33-.43.57-.59.23-.16.5-.28.8-.36a3.73 3.73 0 0 1 2.43.17v1.06a2.94 2.94 0 0 0-2.18-.4c-.16.04-.29.1-.4.18a.87.87 0 0 0-.26.29.76.76 0 0 0-.1.37c0 .17.04.31.1.43.06.11.15.21.27.3.12.09.26.17.43.24l.58.24c.28.1.54.22.77.34.23.11.42.24.59.39.16.15.28.31.37.5.08.2.13.42.13.68 0 .33-.07.6-.22.84-.14.24-.33.44-.56.6a2.6 2.6 0 0 1-.82.34c-.31.08-.64.12-.97.12-.67 0-1.25-.13-1.74-.4zm6.28-5a.67.67 0 0 1-.5-.2.69.69 0 0 1-.2-.5c0-.2.06-.37.2-.5.14-.14.3-.2.5-.2s.37.06.5.2c.15.13.22.3.22.5 0 .19-.07.35-.21.5a.7.7 0 0 1-.51.2zm0 5.37a.67.67 0 0 1-.5-.2.69.69 0 0 1-.2-.5c0-.2.06-.37.2-.51s.3-.22.5-.22.37.08.5.22c.15.14.22.3.22.5s-.07.36-.21.5a.7.7 0 0 1-.51.21zm6.56-9.24l-4.37 10.61h-.97l4.36-10.6h.98zm5.07 0l-4.37 10.61h-.97l4.35-10.6h.99zm9.14 2.6l-1.94 6.5h-1.08l-1.34-4.65a3.03 3.03 0 0 1-.1-.6h-.03c-.01.15-.06.35-.13.59l-1.46 4.66h-1.04l-1.97-6.5h1.1l1.34 4.9c.04.14.07.33.09.57h.05c.01-.18.05-.38.12-.6l1.5-4.87h.95l1.34 4.9c.04.16.08.35.1.59H65c0-.17.04-.36.1-.59l1.33-4.9h1.02zm9.4 0l-1.95 6.5h-1.08l-1.34-4.65a3.03 3.03 0 0 1-.1-.6h-.03c0 .15-.05.35-.13.59l-1.45 4.66h-1.04l-1.97-6.5h1.09l1.35 4.9c.04.14.07.33.08.57h.06c0-.18.05-.38.11-.6l1.5-4.87h.95l1.35 4.9c.04.16.07.35.1.59h.04c.01-.17.05-.36.11-.59l1.32-4.9h1.03zm9.4 0l-1.96 6.5h-1.07l-1.34-4.65a3.03 3.03 0 0 1-.1-.6h-.03c-.01.15-.06.35-.13.59l-1.46 4.66h-1.04l-1.97-6.5h1.1l1.34 4.9c.04.14.07.33.09.57h.05c.01-.18.05-.38.11-.6l1.5-4.87h.95l1.35 4.9c.04.16.07.35.1.59h.05c0-.17.04-.36.1-.59l1.32-4.9h1.03zm.91 6.64a.67.67 0 0 1-.5-.2.69.69 0 0 1-.2-.5c0-.2.07-.37.2-.51.14-.14.3-.22.5-.22s.37.08.51.22.21.3.21.5-.07.36-.2.5a.7.7 0 0 1-.52.21zm11.69-.14h-1.04V14.9c0-.72-.11-1.24-.33-1.56-.23-.32-.6-.48-1.13-.48-.44 0-.82.2-1.13.6-.3.41-.46.9-.46 1.47v3.7h-1.05v-3.86c0-1.27-.49-1.91-1.47-1.91-.46 0-.84.19-1.13.57-.3.38-.45.88-.45 1.5v3.7h-1.04v-6.5h1.04v1.03h.03a2.2 2.2 0 0 1 2.01-1.18 1.88 1.88 0 0 1 1.85 1.35c.48-.9 1.2-1.35 2.15-1.35 1.43 0 2.15.88 2.15 2.65v4zm4.68.16c-.96 0-1.72-.3-2.3-.92a3.37 3.37 0 0 1-.86-2.41c0-1.1.3-1.95.9-2.56.6-.61 1.4-.92 2.42-.92.97 0 1.72.3 2.27.9.54.6.81 1.42.81 2.48a3.5 3.5 0 0 1-.88 2.49c-.58.62-1.37.94-2.36.94zm.08-5.93c-.67 0-1.2.22-1.59.68a2.8 2.8 0 0 0-.58 1.88c0 .77.2 1.38.59 1.82a2 2 0 0 0 1.58.67 1.9 1.9 0 0 0 1.55-.65c.36-.44.54-1.06.54-1.86 0-.82-.18-1.44-.54-1.88a1.9 1.9 0 0 0-1.55-.66zm9.36-.43l-3.85 5.31h3.8v.9h-5.33v-.33l3.85-5.29h-3.49v-.89h5.02v.3zm1.7 6.34a.67.67 0 0 1-.5-.2.69.69 0 0 1-.2-.5c0-.2.07-.37.2-.51.14-.14.3-.22.5-.22s.37.08.51.22.21.3.21.5-.07.36-.2.5a.7.7 0 0 1-.52.21zm6.9-.44c-.5.3-1.1.46-1.79.46-.92 0-1.67-.3-2.24-.9a3.28 3.28 0 0 1-.85-2.35c0-1.08.3-1.94.92-2.58a3.22 3.22 0 0 1 2.45-.98c.57 0 1.08.1 1.51.32v1.06c-.48-.33-1-.5-1.54-.5-.67 0-1.21.23-1.64.71-.42.48-.64 1.1-.64 1.88 0 .76.2 1.36.6 1.8.4.44.94.66 1.61.66.57 0 1.1-.19 1.6-.57v1zm4.28.46c-.96 0-1.73-.3-2.3-.92a3.37 3.37 0 0 1-.86-2.41c0-1.1.3-1.95.9-2.56.6-.61 1.4-.92 2.41-.92.97 0 1.73.3 2.27.9.55.6.82 1.42.82 2.48a3.5 3.5 0 0 1-.88 2.49c-.59.62-1.37.94-2.36.94zm.08-5.93c-.67 0-1.2.22-1.59.68a2.8 2.8 0 0 0-.58 1.88c0 .77.2 1.38.59 1.82a2 2 0 0 0 1.58.67 1.9 1.9 0 0 0 1.55-.65c.36-.44.54-1.06.54-1.86 0-.82-.18-1.44-.54-1.88a1.9 1.9 0 0 0-1.55-.66zm14.05 5.77h-1.04V14.9c0-.72-.11-1.24-.33-1.56-.22-.32-.6-.48-1.12-.48-.45 0-.82.2-1.14.6-.3.41-.46.9-.46 1.47v3.7h-1.04v-3.86c0-1.27-.5-1.91-1.48-1.91-.46 0-.84.19-1.13.57-.3.38-.45.88-.45 1.5v3.7h-1.04v-6.5h1.04v1.03h.03a2.2 2.2 0 0 1 2.02-1.18 1.88 1.88 0 0 1 1.84 1.35c.48-.9 1.2-1.35 2.16-1.35 1.43 0 2.14.88 2.14 2.65v4z"/></g><g transform="translate(1 152)"><rect width="300" height="30" fill="#FFFFFF"/><path fill="#0C0C0D" d="M22.4 18.62h-1.05v-3.74c0-1.36-.5-2.03-1.5-2.03-.51 0-.94.2-1.29.58-.35.4-.52.9-.52 1.51v3.68H17V9h1.04v4.2h.03a2.36 2.36 0 0 1 2.13-1.23c1.46 0 2.2.88 2.2 2.65v4zm4.97-.06a2 2 0 0 1-.97.2c-1.14 0-1.7-.63-1.7-1.9V13h-1.12v-.89h1.11v-1.58l1.04-.34v1.92h1.64v.9h-1.64v3.65c0 .44.08.75.23.94.14.18.39.28.73.28.27 0 .5-.08.68-.22v.89zm4.4 0a2 2 0 0 1-.96.2c-1.14 0-1.71-.63-1.71-1.9V13h-1.12v-.89h1.12v-1.58l1.04-.34v1.92h1.64v.9h-1.64v3.65c0 .44.07.75.22.94.15.18.4.28.74.28.26 0 .49-.08.68-.22v.89zm2.46-.88h-.02v3.93h-1.04v-9.49h1.04v1.15h.02a2.46 2.46 0 0 1 2.25-1.3c.84 0 1.5.3 1.96.87.47.59.7 1.37.7 2.34 0 1.09-.26 1.96-.79 2.61-.53.66-1.25.99-2.17.99-.84 0-1.49-.37-1.95-1.1zm-.02-2.62v.91c0 .54.17 1 .52 1.37.35.37.8.56 1.33.56.63 0 1.13-.24 1.48-.72.36-.49.54-1.16.54-2.02 0-.72-.17-1.29-.5-1.7a1.66 1.66 0 0 0-1.36-.61c-.6 0-1.1.2-1.46.63-.37.42-.55.95-.55 1.58zm6.2 3.33v-1.12c.57.42 1.2.63 1.88.63.91 0 1.37-.3 1.37-.91a.8.8 0 0 0-.12-.45 1.17 1.17 0 0 0-.31-.32c-.14-.09-.3-.17-.47-.25a30.3 30.3 0 0 0-.59-.23 7.48 7.48 0 0 1-.75-.34 2.3 2.3 0 0 1-.55-.4 1.46 1.46 0 0 1-.33-.5c-.07-.18-.11-.4-.11-.65 0-.3.07-.57.2-.81.15-.23.33-.43.57-.59.23-.16.5-.28.8-.36a3.73 3.73 0 0 1 2.43.17v1.06a2.94 2.94 0 0 0-2.18-.4c-.16.04-.29.1-.4.18a.87.87 0 0 0-.26.29.76.76 0 0 0-.1.37c0 .17.04.31.1.43.06.11.15.21.27.3.12.09.26.17.43.24l.58.24c.28.1.54.22.77.34.23.11.42.24.59.39.16.15.28.31.37.5.08.2.13.42.13.68 0 .33-.07.6-.22.84-.14.24-.33.44-.56.6a2.6 2.6 0 0 1-.82.34c-.31.08-.64.12-.97.12-.67 0-1.25-.13-1.74-.4zm6.28-5a.67.67 0 0 1-.5-.2.69.69 0 0 1-.2-.5c0-.2.06-.37.2-.5.14-.14.3-.2.5-.2s.37.06.5.2c.15.13.22.3.22.5 0 .19-.07.35-.21.5a.7.7 0 0 1-.51.2zm0 5.37a.67.67 0 0 1-.5-.2.69.69 0 0 1-.2-.5c0-.2.06-.37.2-.51s.3-.22.5-.22.37.08.5.22c.15.14.22.3.22.5s-.07.36-.21.5a.7.7 0 0 1-.51.21zm6.56-9.24l-4.37 10.61h-.97l4.36-10.6h.98zm5.07 0l-4.37 10.61h-.97l4.35-10.6h.99zm9.14 2.6l-1.94 6.5h-1.08l-1.34-4.65a3.03 3.03 0 0 1-.1-.6h-.03c-.01.15-.06.35-.13.59l-1.46 4.66h-1.04l-1.97-6.5h1.1l1.34 4.9c.04.14.07.33.09.57h.05c.01-.18.05-.38.12-.6l1.5-4.87h.95l1.34 4.9c.04.16.08.35.1.59H65c0-.17.04-.36.1-.59l1.33-4.9h1.02zm9.4 0l-1.95 6.5h-1.08l-1.34-4.65a3.03 3.03 0 0 1-.1-.6h-.03c0 .15-.05.35-.13.59l-1.45 4.66h-1.04l-1.97-6.5h1.09l1.35 4.9c.04.14.07.33.08.57h.06c0-.18.05-.38.11-.6l1.5-4.87h.95l1.35 4.9c.04.16.07.35.1.59h.04c.01-.17.05-.36.11-.59l1.32-4.9h1.03zm9.4 0l-1.96 6.5h-1.07l-1.34-4.65a3.03 3.03 0 0 1-.1-.6h-.03c-.01.15-.06.35-.13.59l-1.46 4.66h-1.04l-1.97-6.5h1.1l1.34 4.9c.04.14.07.33.09.57h.05c.01-.18.05-.38.11-.6l1.5-4.87h.95l1.35 4.9c.04.16.07.35.1.59h.05c0-.17.04-.36.1-.59l1.32-4.9h1.03zm.91 6.64a.67.67 0 0 1-.5-.2.69.69 0 0 1-.2-.5c0-.2.07-.37.2-.51.14-.14.3-.22.5-.22s.37.08.51.22.21.3.21.5-.07.36-.2.5a.7.7 0 0 1-.52.21zm11.69-.14h-1.04V14.9c0-.72-.11-1.24-.33-1.56-.23-.32-.6-.48-1.13-.48-.44 0-.82.2-1.13.6-.3.41-.46.9-.46 1.47v3.7h-1.05v-3.86c0-1.27-.49-1.91-1.47-1.91-.46 0-.84.19-1.13.57-.3.38-.45.88-.45 1.5v3.7h-1.04v-6.5h1.04v1.03h.03a2.2 2.2 0 0 1 2.01-1.18 1.88 1.88 0 0 1 1.85 1.35c.48-.9 1.2-1.35 2.15-1.35 1.43 0 2.15.88 2.15 2.65v4zm4.68.16c-.96 0-1.72-.3-2.3-.92a3.37 3.37 0 0 1-.86-2.41c0-1.1.3-1.95.9-2.56.6-.61 1.4-.92 2.42-.92.97 0 1.72.3 2.27.9.54.6.81 1.42.81 2.48a3.5 3.5 0 0 1-.88 2.49c-.58.62-1.37.94-2.36.94zm.08-5.93c-.67 0-1.2.22-1.59.68a2.8 2.8 0 0 0-.58 1.88c0 .77.2 1.38.59 1.82a2 2 0 0 0 1.58.67 1.9 1.9 0 0 0 1.55-.65c.36-.44.54-1.06.54-1.86 0-.82-.18-1.44-.54-1.88a1.9 1.9 0 0 0-1.55-.66zm9.36-.43l-3.85 5.31h3.8v.9h-5.33v-.33l3.85-5.29h-3.49v-.89h5.02v.3zm.95 5.97v-1.12c.57.42 1.19.63 1.87.63.92 0 1.37-.3 1.37-.91a.8.8 0 0 0-.12-.45 1.17 1.17 0 0 0-.31-.32c-.14-.09-.3-.17-.47-.25a30.3 30.3 0 0 0-.58-.23 7.48 7.48 0 0 1-.76-.34 2.3 2.3 0 0 1-.55-.4 1.46 1.46 0 0 1-.33-.5c-.07-.18-.1-.4-.1-.65 0-.3.06-.57.2-.81.14-.23.33-.43.56-.59.23-.16.5-.28.8-.36a3.73 3.73 0 0 1 2.43.17v1.06a2.94 2.94 0 0 0-2.18-.4c-.15.04-.29.1-.4.18a.87.87 0 0 0-.26.29.76.76 0 0 0-.1.37c0 .17.04.31.1.43.06.11.15.21.27.3.12.09.26.17.43.24l.58.24c.29.1.54.22.77.34.23.11.43.24.59.39.16.15.28.31.37.5.09.2.13.42.13.68 0 .33-.07.6-.21.84-.15.24-.34.44-.57.6a2.6 2.6 0 0 1-.82.34c-.31.08-.63.12-.97.12-.67 0-1.25-.13-1.74-.4zm11.3.23h-1.04v-3.74c0-1.36-.5-2.03-1.5-2.03-.52 0-.94.2-1.29.58-.35.4-.52.9-.52 1.51v3.68h-1.04V9h1.04v4.2h.02a2.36 2.36 0 0 1 2.14-1.23c1.46 0 2.2.88 2.2 2.65v4zm4.68.16c-.96 0-1.73-.3-2.3-.92a3.37 3.37 0 0 1-.86-2.41c0-1.1.3-1.95.9-2.56.6-.61 1.4-.92 2.41-.92.97 0 1.73.3 2.27.9.55.6.82 1.42.82 2.48a3.5 3.5 0 0 1-.88 2.49c-.59.62-1.37.94-2.36.94zm.08-5.93c-.67 0-1.2.22-1.59.68a2.8 2.8 0 0 0-.58 1.88c0 .77.2 1.38.59 1.82a2 2 0 0 0 1.58.67 1.9 1.9 0 0 0 1.55-.65c.36-.44.54-1.06.54-1.86 0-.82-.18-1.44-.54-1.88a1.9 1.9 0 0 0-1.55-.66zm5.89 4.83h-.03v3.93h-1.04v-9.49h1.04v1.15h.03a2.46 2.46 0 0 1 2.25-1.3c.83 0 1.49.3 1.96.87.47.59.7 1.37.7 2.34 0 1.09-.26 1.96-.8 2.61-.52.66-1.24.99-2.16.99-.84 0-1.5-.37-1.95-1.1zm-.03-2.62v.91c0 .54.18 1 .53 1.37.35.37.79.56 1.33.56.63 0 1.12-.24 1.48-.72.36-.49.54-1.16.54-2.02 0-.72-.17-1.29-.5-1.7a1.66 1.66 0 0 0-1.36-.61c-.6 0-1.1.2-1.46.63-.37.42-.56.95-.56 1.58zm6.97 3.7a.67.67 0 0 1-.5-.2.69.69 0 0 1-.2-.5c0-.2.06-.37.2-.51s.3-.22.5-.22.37.08.5.22c.14.14.21.3.21.5s-.07.36-.2.5a.7.7 0 0 1-.51.21zm6.88-.44c-.5.3-1.09.46-1.77.46-.93 0-1.68-.3-2.25-.9a3.28 3.28 0 0 1-.85-2.35c0-1.08.3-1.94.92-2.58a3.22 3.22 0 0 1 2.46-.98c.57 0 1.07.1 1.5.32v1.06c-.48-.33-1-.5-1.54-.5-.67 0-1.21.23-1.64.71-.42.48-.63 1.1-.63 1.88 0 .76.2 1.36.6 1.8.4.44.93.66 1.6.66.57 0 1.1-.19 1.6-.57v1zm4.3.46c-.97 0-1.73-.3-2.3-.92a3.37 3.37 0 0 1-.87-2.41c0-1.1.3-1.95.9-2.56.6-.61 1.4-.92 2.42-.92.97 0 1.72.3 2.27.9.54.6.81 1.42.81 2.48a3.5 3.5 0 0 1-.88 2.49c-.58.62-1.37.94-2.35.94zm.07-5.93c-.67 0-1.2.22-1.59.68a2.8 2.8 0 0 0-.58 1.88c0 .77.2 1.38.6 1.82a2 2 0 0 0 1.57.67 1.9 1.9 0 0 0 1.55-.65c.37-.44.55-1.06.55-1.86 0-.82-.18-1.44-.55-1.88a1.9 1.9 0 0 0-1.55-.66zm14.06 5.77h-1.05V14.9c0-.72-.1-1.24-.33-1.56-.22-.32-.6-.48-1.12-.48-.44 0-.82.2-1.13.6-.31.41-.47.9-.47 1.47v3.7H163v-3.86c0-1.27-.5-1.91-1.48-1.91-.46 0-.83.19-1.13.57-.3.38-.44.88-.44 1.5v3.7h-1.04v-6.5h1.04v1.03h.02a2.2 2.2 0 0 1 2.02-1.18 1.88 1.88 0 0 1 1.84 1.35c.48-.9 1.2-1.35 2.16-1.35 1.43 0 2.15.88 2.15 2.65v4z"/></g><g transform="translate(1 182)"><rect width="300" height="30" fill="#FFFFFF"/><path fill="#0C0C0D" d="M22.4 18.62h-1.05v-3.74c0-1.36-.5-2.03-1.5-2.03-.51 0-.94.2-1.29.58-.35.4-.52.9-.52 1.51v3.68H17V9h1.04v4.2h.03a2.36 2.36 0 0 1 2.13-1.23c1.46 0 2.2.88 2.2 2.65v4zm4.97-.06a2 2 0 0 1-.97.2c-1.14 0-1.7-.63-1.7-1.9V13h-1.12v-.89h1.11v-1.58l1.04-.34v1.92h1.64v.9h-1.64v3.65c0 .44.08.75.23.94.14.18.39.28.73.28.27 0 .5-.08.68-.22v.89zm4.4 0a2 2 0 0 1-.96.2c-1.14 0-1.71-.63-1.71-1.9V13h-1.12v-.89h1.12v-1.58l1.04-.34v1.92h1.64v.9h-1.64v3.65c0 .44.07.75.22.94.15.18.4.28.74.28.26 0 .49-.08.68-.22v.89zm2.46-.88h-.02v3.93h-1.04v-9.49h1.04v1.15h.02a2.46 2.46 0 0 1 2.25-1.3c.84 0 1.5.3 1.96.87.47.59.7 1.37.7 2.34 0 1.09-.26 1.96-.79 2.61-.53.66-1.25.99-2.17.99-.84 0-1.49-.37-1.95-1.1zm-.02-2.62v.91c0 .54.17 1 .52 1.37.35.37.8.56 1.33.56.63 0 1.13-.24 1.48-.72.36-.49.54-1.16.54-2.02 0-.72-.17-1.29-.5-1.7a1.66 1.66 0 0 0-1.36-.61c-.6 0-1.1.2-1.46.63-.37.42-.55.95-.55 1.58zm6.2 3.33v-1.12c.57.42 1.2.63 1.88.63.91 0 1.37-.3 1.37-.91a.8.8 0 0 0-.12-.45 1.17 1.17 0 0 0-.31-.32c-.14-.09-.3-.17-.47-.25a30.3 30.3 0 0 0-.59-.23 7.48 7.48 0 0 1-.75-.34 2.3 2.3 0 0 1-.55-.4 1.46 1.46 0 0 1-.33-.5c-.07-.18-.11-.4-.11-.65 0-.3.07-.57.2-.81.15-.23.33-.43.57-.59.23-.16.5-.28.8-.36a3.73 3.73 0 0 1 2.43.17v1.06a2.94 2.94 0 0 0-2.18-.4c-.16.04-.29.1-.4.18a.87.87 0 0 0-.26.29.76.76 0 0 0-.1.37c0 .17.04.31.1.43.06.11.15.21.27.3.12.09.26.17.43.24l.58.24c.28.1.54.22.77.34.23.11.42.24.59.39.16.15.28.31.37.5.08.2.13.42.13.68 0 .33-.07.6-.22.84-.14.24-.33.44-.56.6a2.6 2.6 0 0 1-.82.34c-.31.08-.64.12-.97.12-.67 0-1.25-.13-1.74-.4zm6.28-5a.67.67 0 0 1-.5-.2.69.69 0 0 1-.2-.5c0-.2.06-.37.2-.5.14-.14.3-.2.5-.2s.37.06.5.2c.15.13.22.3.22.5 0 .19-.07.35-.21.5a.7.7 0 0 1-.51.2zm0 5.37a.67.67 0 0 1-.5-.2.69.69 0 0 1-.2-.5c0-.2.06-.37.2-.51s.3-.22.5-.22.37.08.5.22c.15.14.22.3.22.5s-.07.36-.21.5a.7.7 0 0 1-.51.21zm6.56-9.24l-4.37 10.61h-.97l4.36-10.6h.98zm5.07 0l-4.37 10.61h-.97l4.35-10.6h.99zm9.14 2.6l-1.94 6.5h-1.08l-1.34-4.65a3.03 3.03 0 0 1-.1-.6h-.03c-.01.15-.06.35-.13.59l-1.46 4.66h-1.04l-1.97-6.5h1.1l1.34 4.9c.04.14.07.33.09.57h.05c.01-.18.05-.38.12-.6l1.5-4.87h.95l1.34 4.9c.04.16.08.35.1.59H65c0-.17.04-.36.1-.59l1.33-4.9h1.02zm9.4 0l-1.95 6.5h-1.08l-1.34-4.65a3.03 3.03 0 0 1-.1-.6h-.03c0 .15-.05.35-.13.59l-1.45 4.66h-1.04l-1.97-6.5h1.09l1.35 4.9c.04.14.07.33.08.57h.06c0-.18.05-.38.11-.6l1.5-4.87h.95l1.35 4.9c.04.16.07.35.1.59h.04c.01-.17.05-.36.11-.59l1.32-4.9h1.03zm9.4 0l-1.96 6.5h-1.07l-1.34-4.65a3.03 3.03 0 0 1-.1-.6h-.03c-.01.15-.06.35-.13.59l-1.46 4.66h-1.04l-1.97-6.5h1.1l1.34 4.9c.04.14.07.33.09.57h.05c.01-.18.05-.38.11-.6l1.5-4.87h.95l1.35 4.9c.04.16.07.35.1.59h.05c0-.17.04-.36.1-.59l1.32-4.9h1.03zm.91 6.64a.67.67 0 0 1-.5-.2.69.69 0 0 1-.2-.5c0-.2.07-.37.2-.51.14-.14.3-.22.5-.22s.37.08.51.22.21.3.21.5-.07.36-.2.5a.7.7 0 0 1-.52.21zm11.69-.14h-1.04V14.9c0-.72-.11-1.24-.33-1.56-.23-.32-.6-.48-1.13-.48-.44 0-.82.2-1.13.6-.3.41-.46.9-.46 1.47v3.7h-1.05v-3.86c0-1.27-.49-1.91-1.47-1.91-.46 0-.84.19-1.13.57-.3.38-.45.88-.45 1.5v3.7h-1.04v-6.5h1.04v1.03h.03a2.2 2.2 0 0 1 2.01-1.18 1.88 1.88 0 0 1 1.85 1.35c.48-.9 1.2-1.35 2.15-1.35 1.43 0 2.15.88 2.15 2.65v4zm4.68.16c-.96 0-1.72-.3-2.3-.92a3.37 3.37 0 0 1-.86-2.41c0-1.1.3-1.95.9-2.56.6-.61 1.4-.92 2.42-.92.97 0 1.72.3 2.27.9.54.6.81 1.42.81 2.48a3.5 3.5 0 0 1-.88 2.49c-.58.62-1.37.94-2.36.94zm.08-5.93c-.67 0-1.2.22-1.59.68a2.8 2.8 0 0 0-.58 1.88c0 .77.2 1.38.59 1.82a2 2 0 0 0 1.58.67 1.9 1.9 0 0 0 1.55-.65c.36-.44.54-1.06.54-1.86 0-.82-.18-1.44-.54-1.88a1.9 1.9 0 0 0-1.55-.66zm9.36-.43l-3.85 5.31h3.8v.9h-5.33v-.33l3.85-5.29h-3.49v-.89h5.02v.3zm1.88-1.95a.66.66 0 0 1-.68-.67c0-.2.07-.36.2-.49.13-.12.29-.19.48-.19a.67.67 0 0 1 .68.68c0 .19-.07.34-.2.48-.13.13-.3.2-.48.2zm.5 8.15h-1.04v-6.5h1.04v6.5zm3.15 0h-1.04V9h1.04v9.62zm3.15 0h-1.04V9h1.04v9.62zm6.76 0h-1.04v-1.01h-.03a2.18 2.18 0 0 1-2 1.17c-.64 0-1.15-.18-1.52-.52-.36-.34-.54-.8-.54-1.36 0-1.22.71-1.92 2.14-2.12l1.95-.28c0-1.1-.45-1.65-1.34-1.65a3.2 3.2 0 0 0-2.12.8v-1.07c.64-.4 1.38-.6 2.2-.6 1.54 0 2.3.8 2.3 2.42v4.22zm-1.04-3.29l-1.57.22c-.48.07-.84.19-1.09.36-.25.17-.37.47-.37.91a1 1 0 0 0 .34.78c.23.2.53.3.9.3.52 0 .95-.18 1.28-.54.34-.37.5-.82.5-1.38v-.65zm4.07 2.35h-.03v3.93h-1.04v-9.49h1.04v1.15h.03a2.46 2.46 0 0 1 2.25-1.3c.83 0 1.49.3 1.96.87.47.59.7 1.37.7 2.34 0 1.09-.26 1.96-.8 2.61-.52.66-1.24.99-2.16.99-.85 0-1.5-.37-1.95-1.1zm-.03-2.62v.91c0 .54.18 1 .53 1.37.35.37.79.56 1.33.56.63 0 1.12-.24 1.48-.72.36-.49.53-1.16.53-2.02 0-.72-.16-1.29-.5-1.7a1.66 1.66 0 0 0-1.35-.61c-.61 0-1.1.2-1.46.63-.37.42-.56.95-.56 1.58zm10-1.88c-.19-.14-.45-.21-.8-.21-.44 0-.8.2-1.1.63-.3.41-.45.99-.45 1.71v3.31h-1.05v-6.5h1.05v1.34h.02c.15-.45.38-.81.68-1.07.3-.25.65-.38 1.02-.38.27 0 .48.03.62.09v1.08zm3.67 5.6c-.96 0-1.73-.3-2.3-.92a3.37 3.37 0 0 1-.86-2.41c0-1.1.3-1.95.9-2.56.59-.61 1.4-.92 2.41-.92.97 0 1.73.3 2.27.9.54.6.82 1.42.82 2.48a3.5 3.5 0 0 1-.88 2.49c-.59.62-1.37.94-2.36.94zm.08-5.93c-.67 0-1.2.22-1.6.68a2.8 2.8 0 0 0-.58 1.88c0 .77.2 1.38.6 1.82a2 2 0 0 0 1.58.67 1.9 1.9 0 0 0 1.55-.65c.36-.44.54-1.06.54-1.86 0-.82-.18-1.44-.54-1.88a1.9 1.9 0 0 0-1.55-.66zm5.86 5.5c0 1.07-.21 1.89-.64 2.47-.43.57-1.05.86-1.85.86-.3 0-.58-.07-.86-.2v-.97c.31.19.6.28.89.28.95 0 1.42-.75 1.42-2.27v-6.4h1.04v6.23zm-.5-7.88a.66.66 0 0 1-.68-.67c0-.2.07-.36.2-.49.13-.12.29-.19.47-.19a.67.67 0 0 1 .69.68c0 .19-.07.34-.2.48-.13.13-.3.2-.49.2zm7.83 5.16h-4.59c.02.73.21 1.29.59 1.68.37.4.88.59 1.53.59.74 0 1.4-.24 2.02-.72v.97c-.57.42-1.33.63-2.26.63-.92 0-1.64-.3-2.17-.89a3.62 3.62 0 0 1-.79-2.5c0-1 .3-1.83.86-2.46a2.76 2.76 0 0 1 2.14-.96c.85 0 1.5.28 1.97.83.47.55.7 1.31.7 2.29v.54zm-1.06-.88c0-.6-.15-1.07-.44-1.4-.28-.34-.68-.5-1.19-.5-.49 0-.9.17-1.25.52a2.4 2.4 0 0 0-.63 1.38h3.5zm7.07 3.57c-.5.3-1.1.46-1.78.46-.93 0-1.67-.3-2.24-.9a3.28 3.28 0 0 1-.86-2.35c0-1.08.3-1.94.92-2.58a3.22 3.22 0 0 1 2.46-.98c.57 0 1.07.1 1.51.32v1.06c-.48-.33-1-.5-1.55-.5-.66 0-1.2.23-1.63.71-.43.48-.64 1.1-.64 1.88 0 .76.2 1.36.6 1.8.4.44.93.66 1.6.66.57 0 1.1-.19 1.6-.57v1zm4.59.24a2 2 0 0 1-.97.2c-1.14 0-1.71-.63-1.71-1.9V13h-1.12v-.89h1.12v-1.58l1.04-.34v1.92h1.64v.9h-1.64v3.65c0 .44.07.75.22.94.15.18.4.28.74.28.26 0 .49-.08.68-.22v.89zm1-.17v-1.12c.56.42 1.18.63 1.87.63.91 0 1.37-.3 1.37-.91a.8.8 0 0 0-.12-.45 1.17 1.17 0 0 0-.32-.32c-.13-.09-.29-.17-.47-.25a30.3 30.3 0 0 0-.58-.23 7.48 7.48 0 0 1-.76-.34 2.3 2.3 0 0 1-.54-.4 1.46 1.46 0 0 1-.33-.5c-.08-.18-.11-.4-.11-.65 0-.3.07-.57.2-.81.14-.23.33-.43.56-.59.24-.16.5-.28.8-.36a3.73 3.73 0 0 1 2.43.17v1.06a2.94 2.94 0 0 0-2.17-.4c-.16.04-.3.1-.4.18a.87.87 0 0 0-.27.29.76.76 0 0 0-.09.37c0 .17.03.31.1.43.06.11.15.21.26.3.12.09.27.17.44.24l.57.24c.3.1.55.22.78.34.23.11.42.24.58.39.16.15.29.31.37.5.09.2.13.42.13.68 0 .33-.07.6-.2.84-.15.24-.34.44-.58.6a2.6 2.6 0 0 1-.82.34c-.3.08-.63.12-.97.12-.67 0-1.25-.13-1.74-.4zm6.26.37a.67.67 0 0 1-.5-.2.69.69 0 0 1-.2-.5c0-.2.07-.37.2-.51.14-.14.31-.22.5-.22.2 0 .37.08.51.22s.21.3.21.5-.07.36-.2.5a.7.7 0 0 1-.52.21zm6.9-.44c-.5.3-1.1.46-1.79.46-.92 0-1.67-.3-2.24-.9a3.28 3.28 0 0 1-.85-2.35c0-1.08.3-1.94.92-2.58a3.22 3.22 0 0 1 2.45-.98c.58 0 1.08.1 1.51.32v1.06c-.48-.33-1-.5-1.54-.5-.67 0-1.21.23-1.64.71-.42.48-.64 1.1-.64 1.88 0 .76.2 1.36.6 1.8.4.44.94.66 1.61.66.57 0 1.1-.19 1.6-.57v1zm4.28.46c-.96 0-1.72-.3-2.3-.92a3.37 3.37 0 0 1-.86-2.41c0-1.1.3-1.95.9-2.56.6-.61 1.4-.92 2.42-.92.96 0 1.72.3 2.26.9.55.6.82 1.42.82 2.48a3.5 3.5 0 0 1-.88 2.49c-.59.62-1.37.94-2.36.94zm.08-5.93c-.67 0-1.2.22-1.59.68a2.8 2.8 0 0 0-.58 1.88c0 .77.2 1.38.59 1.82a2 2 0 0 0 1.58.67 1.9 1.9 0 0 0 1.55-.65c.36-.44.54-1.06.54-1.86 0-.82-.18-1.44-.54-1.88a1.9 1.9 0 0 0-1.55-.66zm14.05 5.77h-1.04V14.9c0-.72-.1-1.24-.33-1.56-.22-.32-.6-.48-1.12-.48-.45 0-.82.2-1.13.6-.32.41-.47.9-.47 1.47v3.7h-1.04v-3.86c0-1.27-.5-1.91-1.48-1.91-.46 0-.84.19-1.13.57-.3.38-.45.88-.45 1.5v3.7h-1.04v-6.5h1.04v1.03h.03a2.2 2.2 0 0 1 2.02-1.18 1.88 1.88 0 0 1 1.84 1.35c.48-.9 1.2-1.35 2.16-1.35 1.43 0 2.14.88 2.14 2.65v4z"/></g><g transform="translate(1 212)"><rect width="300" height="30" fill="#FFFFFF"/><path fill="#0C0C0D" d="M22.4 18.76h-1.05v-3.74c0-1.36-.5-2.03-1.5-2.03-.51 0-.94.2-1.29.58-.35.4-.52.9-.52 1.51v3.68H17V9.14h1.04v4.2h.03a2.36 2.36 0 0 1 2.13-1.23c1.46 0 2.2.88 2.2 2.65v4zm4.97-.06a2 2 0 0 1-.97.2c-1.14 0-1.7-.63-1.7-1.9v-3.85h-1.12v-.89h1.11v-1.58l1.04-.34v1.92h1.64v.9h-1.64v3.65c0 .44.08.75.23.94.14.18.39.28.73.28.27 0 .5-.08.68-.22v.89zm4.4 0a2 2 0 0 1-.96.2c-1.14 0-1.71-.63-1.71-1.9v-3.85h-1.12v-.89h1.12v-1.58l1.04-.34v1.92h1.64v.9h-1.64v3.65c0 .44.07.75.22.94.15.18.4.28.74.28.26 0 .49-.08.68-.22v.89zm2.46-.88h-.02v3.93h-1.04v-9.49h1.04v1.15h.02a2.46 2.46 0 0 1 2.25-1.3c.84 0 1.5.3 1.96.87.47.59.7 1.36.7 2.34 0 1.09-.26 1.96-.79 2.61-.53.66-1.25.99-2.17.99-.84 0-1.49-.37-1.95-1.1zm-.02-2.62v.9c0 .55.17 1 .52 1.38.35.37.8.56 1.33.56.63 0 1.13-.24 1.48-.72.36-.49.54-1.16.54-2.02 0-.72-.17-1.29-.5-1.7a1.66 1.66 0 0 0-1.36-.61c-.6 0-1.1.2-1.46.63-.37.42-.55.95-.55 1.58zm6.2 3.33V17.4c.57.42 1.2.63 1.88.63.91 0 1.37-.3 1.37-.91a.8.8 0 0 0-.12-.45 1.17 1.17 0 0 0-.31-.32c-.14-.09-.3-.17-.47-.25a30.3 30.3 0 0 0-.59-.23 7.48 7.48 0 0 1-.75-.35 2.3 2.3 0 0 1-.55-.39 1.46 1.46 0 0 1-.33-.5c-.07-.18-.11-.4-.11-.65 0-.3.07-.58.2-.81.15-.23.33-.43.57-.59.23-.16.5-.28.8-.36a3.73 3.73 0 0 1 2.43.17v1.06a2.94 2.94 0 0 0-2.18-.4c-.16.04-.29.1-.4.18a.87.87 0 0 0-.26.29.76.76 0 0 0-.1.37c0 .17.04.31.1.43.06.11.15.21.27.3.12.09.26.17.43.24l.58.24c.28.1.54.22.77.34.23.11.42.24.59.39.16.15.28.31.37.5.08.2.13.42.13.68 0 .33-.07.6-.22.84-.14.24-.33.44-.56.6a2.6 2.6 0 0 1-.82.34c-.31.08-.64.12-.97.12-.67 0-1.25-.13-1.74-.4zm6.28-5a.67.67 0 0 1-.5-.2.69.69 0 0 1-.2-.5c0-.2.06-.37.2-.5.14-.14.3-.2.5-.2s.37.06.5.2c.15.13.22.3.22.5 0 .19-.07.35-.21.5a.7.7 0 0 1-.51.2zm0 5.37a.67.67 0 0 1-.5-.2.69.69 0 0 1-.2-.5c0-.2.06-.37.2-.51s.3-.22.5-.22.37.08.5.22c.15.14.22.3.22.5s-.07.36-.21.5a.7.7 0 0 1-.51.21zm6.56-9.24l-4.37 10.61h-.97l4.36-10.61h.98zm5.07 0l-4.37 10.61h-.97l4.35-10.61h.99zm9.14 2.6l-1.94 6.5h-1.08l-1.34-4.65a3.03 3.03 0 0 1-.1-.6h-.03c-.01.15-.06.35-.13.59l-1.46 4.66h-1.04l-1.97-6.5h1.1l1.34 4.89c.04.15.07.34.09.58h.05c.01-.18.05-.38.12-.6l1.5-4.87h.95l1.34 4.9c.04.16.08.35.1.59H65c0-.17.04-.36.1-.59l1.33-4.9h1.02zm9.4 0l-1.95 6.5h-1.08l-1.34-4.65a3.03 3.03 0 0 1-.1-.6h-.03c0 .15-.05.35-.13.59l-1.45 4.66h-1.04l-1.97-6.5h1.09l1.35 4.89c.04.15.07.34.08.58h.06c0-.18.05-.38.11-.6l1.5-4.87h.95l1.35 4.9c.04.16.07.35.1.59h.04c.01-.17.05-.36.11-.59l1.32-4.9h1.03zm9.4 0l-1.96 6.5h-1.07l-1.34-4.65a3.03 3.03 0 0 1-.1-.6h-.03c-.01.15-.06.35-.13.59l-1.46 4.66h-1.04l-1.97-6.5h1.1l1.34 4.89c.04.15.07.34.09.58h.05c.01-.18.05-.38.11-.6l1.5-4.87h.95l1.35 4.9c.04.16.07.35.1.59h.05c0-.17.04-.36.1-.59l1.32-4.9h1.03zm.91 6.64a.67.67 0 0 1-.5-.2.69.69 0 0 1-.2-.5c0-.2.07-.37.2-.51.14-.14.3-.22.5-.22s.37.08.51.22.21.3.21.5-.07.36-.2.5a.7.7 0 0 1-.52.21zm11.69-.14h-1.04v-3.73c0-.72-.11-1.24-.33-1.56-.23-.32-.6-.48-1.13-.48-.44 0-.82.2-1.13.6-.3.41-.46.9-.46 1.47v3.7h-1.05V14.9c0-1.27-.49-1.91-1.47-1.91-.46 0-.84.19-1.13.57-.3.38-.45.88-.45 1.5v3.7h-1.04v-6.5h1.04v1.03h.03a2.2 2.2 0 0 1 2.01-1.18 1.88 1.88 0 0 1 1.85 1.35c.48-.9 1.2-1.35 2.15-1.35 1.43 0 2.15.88 2.15 2.65v4zm4.68.16c-.96 0-1.72-.3-2.3-.92a3.37 3.37 0 0 1-.86-2.41c0-1.1.3-1.95.9-2.56.6-.61 1.4-.92 2.42-.92.97 0 1.72.3 2.27.9.54.6.81 1.42.81 2.48a3.5 3.5 0 0 1-.88 2.49c-.58.62-1.37.94-2.36.94zm.08-5.93c-.67 0-1.2.22-1.59.68a2.8 2.8 0 0 0-.58 1.88c0 .77.2 1.38.59 1.82a2 2 0 0 0 1.58.67 1.9 1.9 0 0 0 1.55-.65c.36-.44.54-1.06.54-1.86 0-.82-.18-1.44-.54-1.88a1.9 1.9 0 0 0-1.55-.66zm9.36-.43l-3.85 5.31h3.8v.9h-5.33v-.33l3.85-5.29h-3.49v-.89h5.02v.3zm1.88-1.95a.66.66 0 0 1-.68-.67c0-.2.07-.36.2-.49s.29-.19.48-.19a.67.67 0 0 1 .68.68c0 .19-.07.34-.2.48-.13.13-.3.2-.48.2zm.5 8.15h-1.04v-6.5h1.04v6.5zm3.15 0h-1.04V9.14h1.04v9.62zm3.15 0h-1.04V9.14h1.04v9.62zm6.76 0h-1.04v-1.01h-.03a2.18 2.18 0 0 1-2 1.17c-.64 0-1.15-.18-1.52-.52-.36-.34-.54-.8-.54-1.36 0-1.22.71-1.93 2.14-2.12l1.95-.28c0-1.1-.45-1.65-1.34-1.65a3.2 3.2 0 0 0-2.12.8v-1.07c.64-.4 1.38-.61 2.2-.61 1.54 0 2.3.8 2.3 2.43v4.22zm-1.04-3.29l-1.57.22c-.48.07-.84.19-1.09.36-.25.17-.37.47-.37.91a1 1 0 0 0 .34.78c.23.2.53.3.9.3.52 0 .95-.18 1.28-.54.34-.37.5-.82.5-1.38v-.65zm6.21-5.42c-.2-.11-.43-.17-.69-.17-.73 0-1.09.46-1.09 1.38v1h1.52v.9h-1.52v5.6h-1.03v-5.6h-1.12v-.9h1.12v-1.05c0-.68.2-1.22.59-1.62a2 2 0 0 1 1.47-.59c.32 0 .57.04.75.11v.94zm1.4.56a.66.66 0 0 1-.68-.67c0-.2.07-.36.2-.49s.29-.19.47-.19a.67.67 0 0 1 .69.68c0 .19-.07.34-.2.48-.13.13-.3.2-.49.2zm.5 8.15h-1.04v-6.5h1.04v6.5zm5.5-5.44c-.18-.14-.45-.21-.79-.21-.44 0-.81.2-1.11.63-.3.41-.45.99-.45 1.7v3.32h-1.04v-6.5h1.04v1.34h.03c.14-.45.37-.81.67-1.07.3-.25.65-.38 1.03-.38.27 0 .47.03.62.09v1.08zm6.18 2.45h-4.59c.02.73.21 1.29.59 1.68.37.4.88.59 1.53.59.73 0 1.4-.24 2.02-.72v.97c-.57.42-1.33.63-2.27.63-.91 0-1.64-.3-2.16-.89a3.62 3.62 0 0 1-.79-2.5c0-1 .29-1.83.86-2.46a2.76 2.76 0 0 1 2.14-.96c.85 0 1.5.28 1.97.83.47.55.7 1.31.7 2.29v.54zm-1.07-.88c0-.6-.14-1.07-.43-1.4-.29-.34-.68-.5-1.19-.5-.5 0-.9.17-1.25.52a2.4 2.4 0 0 0-.64 1.38h3.51zm5.86-4.84c-.2-.11-.44-.17-.7-.17-.72 0-1.09.46-1.09 1.38v1h1.53v.9h-1.53v5.6h-1.03v-5.6h-1.11v-.9h1.1v-1.05c0-.68.2-1.22.6-1.62A2 2 0 0 1 151.2 9c.32 0 .57.04.76.11v.94zm3.57 8.87c-.96 0-1.73-.3-2.3-.92a3.37 3.37 0 0 1-.86-2.41c0-1.1.3-1.95.9-2.56.6-.61 1.4-.92 2.41-.92.97 0 1.73.3 2.27.9.55.6.82 1.42.82 2.48a3.5 3.5 0 0 1-.88 2.49c-.59.62-1.37.94-2.36.94zm.08-5.93c-.67 0-1.2.22-1.59.68a2.8 2.8 0 0 0-.58 1.88c0 .77.2 1.38.59 1.82a2 2 0 0 0 1.58.67 1.9 1.9 0 0 0 1.55-.65c.36-.44.54-1.06.54-1.86 0-.82-.18-1.44-.54-1.88a1.9 1.9 0 0 0-1.55-.66zm9.41-.73l-2.18 3.3 2.14 3.2h-1.2l-1.29-2.1-.28-.5h-.03l-.3.5-1.3 2.1h-1.2l2.22-3.18-2.12-3.32h1.21l1.26 2.22.27.51h.03l1.62-2.73h1.15zm1.58 6.64a.67.67 0 0 1-.5-.2.69.69 0 0 1-.2-.5c0-.2.07-.37.2-.51.14-.14.3-.22.5-.22s.37.08.5.22c.15.14.22.3.22.5s-.07.36-.21.5a.7.7 0 0 1-.5.21zm3.52-1.08h-.02v3.93h-1.04v-9.49h1.04v1.15h.02a2.46 2.46 0 0 1 2.25-1.3c.84 0 1.5.3 1.96.87.47.59.7 1.36.7 2.34 0 1.09-.26 1.96-.79 2.61-.52.66-1.25.99-2.17.99-.84 0-1.49-.37-1.95-1.1zm-.02-2.62v.9c0 .55.17 1 .52 1.38.35.37.8.56 1.33.56.63 0 1.13-.24 1.48-.72.36-.49.54-1.16.54-2.02 0-.72-.17-1.29-.5-1.7a1.66 1.66 0 0 0-1.36-.61c-.6 0-1.09.2-1.46.63-.37.42-.55.95-.55 1.58zm12 3.56h-1.04v-3.74c0-1.36-.5-2.03-1.52-2.03-.5 0-.93.2-1.28.58-.34.4-.52.9-.52 1.51v3.68h-1.04V9.14h1.04v4.2h.03a2.36 2.36 0 0 1 2.13-1.23c1.46 0 2.2.88 2.2 2.65v4zm4.67.16c-.96 0-1.72-.3-2.3-.92a3.37 3.37 0 0 1-.86-2.41c0-1.1.3-1.95.9-2.56.6-.61 1.4-.92 2.42-.92.97 0 1.72.3 2.27.9.54.6.81 1.42.81 2.48a3.5 3.5 0 0 1-.88 2.49c-.58.62-1.37.94-2.36.94zm.08-5.93c-.67 0-1.2.22-1.59.68a2.8 2.8 0 0 0-.58 1.88c0 .77.2 1.38.59 1.82a2 2 0 0 0 1.58.67 1.9 1.9 0 0 0 1.55-.65c.36-.44.55-1.06.55-1.86 0-.82-.19-1.44-.55-1.88a1.9 1.9 0 0 0-1.55-.66zm7.84 5.7a2 2 0 0 1-.97.21c-1.14 0-1.7-.63-1.7-1.9v-3.85h-1.13v-.89h1.12v-1.58l1.04-.34v1.92h1.64v.9h-1.64v3.65c0 .44.08.75.22.94.15.18.4.28.74.28.26 0 .49-.08.68-.22v.89zm4 .23c-.96 0-1.72-.3-2.3-.92a3.37 3.37 0 0 1-.86-2.41c0-1.1.3-1.95.9-2.56.6-.61 1.4-.92 2.42-.92.97 0 1.72.3 2.27.9.54.6.81 1.42.81 2.48a3.5 3.5 0 0 1-.88 2.49c-.58.62-1.37.94-2.35.94zm.08-5.93c-.67 0-1.2.22-1.59.68a2.8 2.8 0 0 0-.58 1.88c0 .77.2 1.38.6 1.82a2 2 0 0 0 1.57.67 1.9 1.9 0 0 0 1.55-.65c.37-.44.55-1.06.55-1.86 0-.82-.18-1.44-.55-1.88a1.9 1.9 0 0 0-1.55-.66zM209 18.76h-1.04v-3.7c0-1.38-.5-2.07-1.51-2.07-.52 0-.95.2-1.3.58-.33.4-.5.89-.5 1.49v3.7h-1.04v-6.5h1.04v1.08h.02c.5-.82 1.2-1.23 2.13-1.23.72 0 1.26.23 1.64.69.37.46.56 1.12.56 1.99v3.97zm2.32.14a.67.67 0 0 1-.5-.2.69.69 0 0 1-.2-.5c0-.2.07-.37.2-.51.14-.14.31-.22.5-.22.2 0 .37.08.51.22s.21.3.21.5-.07.36-.2.5a.7.7 0 0 1-.52.21zm6.9-.44c-.5.3-1.1.46-1.79.46-.92 0-1.67-.3-2.24-.91a3.28 3.28 0 0 1-.85-2.34c0-1.08.3-1.94.92-2.59a3.22 3.22 0 0 1 2.45-.97c.57 0 1.08.1 1.51.32v1.06c-.48-.33-1-.5-1.54-.5-.67 0-1.21.23-1.64.71-.42.48-.64 1.1-.64 1.88 0 .76.2 1.36.6 1.8.4.44.94.66 1.61.66.57 0 1.1-.19 1.6-.57v1zm4.28.46c-.96 0-1.72-.3-2.3-.92a3.37 3.37 0 0 1-.86-2.41c0-1.1.3-1.95.9-2.56.6-.61 1.4-.92 2.42-.92.96 0 1.72.3 2.26.9.55.6.82 1.42.82 2.48a3.5 3.5 0 0 1-.88 2.49c-.59.62-1.37.94-2.36.94zm.08-5.93c-.67 0-1.2.22-1.59.68a2.8 2.8 0 0 0-.58 1.88c0 .77.2 1.38.59 1.82a2 2 0 0 0 1.58.67 1.9 1.9 0 0 0 1.55-.65c.36-.44.54-1.06.54-1.86 0-.82-.18-1.44-.54-1.88a1.9 1.9 0 0 0-1.55-.66zm14.05 5.77h-1.04v-3.73c0-.72-.11-1.24-.33-1.56-.22-.32-.6-.48-1.12-.48-.45 0-.82.2-1.14.6-.3.41-.46.9-.46 1.47v3.7h-1.04V14.9c0-1.27-.5-1.91-1.48-1.91-.46 0-.84.19-1.13.57-.3.38-.45.88-.45 1.5v3.7h-1.04v-6.5h1.04v1.03h.03a2.2 2.2 0 0 1 2.02-1.18 1.88 1.88 0 0 1 1.84 1.35c.48-.9 1.2-1.35 2.16-1.35 1.43 0 2.14.88 2.14 2.65v4z"/></g><g transform="translate(.618)"><g transform="translate(.382)"><use fill="#FFFFFF" xlink:href="#c"/><rect width="301" height="33" x="-.5" y="-.5" stroke="#0A84FF" rx="2"/></g><path fill="#0C0C0D" d="M18.49 12.18l-2.25 7.5h-1.25l-1.54-5.37a3.5 3.5 0 0 1-.12-.7h-.03c-.01.18-.06.4-.15.68l-1.68 5.39h-1.2L8 12.18h1.26l1.55 5.64c.05.17.09.4.1.67h.06c.02-.22.06-.45.14-.69l1.72-5.62h1.1l1.56 5.65c.04.18.08.4.1.67h.06c.01-.19.06-.41.13-.67l1.52-5.65h1.19zm10.84 0l-2.25 7.5h-1.25L24.3 14.3a3.5 3.5 0 0 1-.12-.7h-.03c-.01.18-.06.4-.15.68l-1.68 5.39h-1.2l-2.27-7.5h1.26l1.55 5.64c.05.17.09.4.1.67h.06c.02-.22.06-.45.14-.69l1.72-5.62h1.1l1.56 5.65c.04.18.08.4.1.67h.06c.01-.19.05-.41.13-.67l1.52-5.65h1.19zm10.84 0l-2.25 7.5h-1.25l-1.54-5.37a3.5 3.5 0 0 1-.12-.7h-.03c-.01.18-.06.4-.15.68l-1.68 5.39h-1.2l-2.27-7.5h1.26l1.55 5.64c.05.17.09.4.1.67h.06c.02-.22.06-.45.14-.69l1.72-5.62h1.1l1.56 5.65c.04.18.08.4.1.67h.06c.01-.19.05-.41.13-.67l1.52-5.65h1.19zm1.06 7.66a.78.78 0 0 1-.57-.24.8.8 0 0 1-.24-.58.8.8 0 0 1 .24-.59.77.77 0 0 1 .57-.24.8.8 0 0 1 .59.24.8.8 0 0 1 .24.59c0 .22-.08.41-.24.58a.8.8 0 0 1-.59.24zm13.48-.16h-1.2v-4.31c0-.83-.13-1.43-.38-1.8-.26-.37-.69-.56-1.3-.56-.5 0-.94.24-1.3.7a2.69 2.69 0 0 0-.54 1.69v4.28h-1.2v-4.46c0-1.47-.57-2.2-1.7-2.2-.54 0-.97.21-1.31.65a2.74 2.74 0 0 0-.51 1.73v4.28h-1.2v-7.5h1.2v1.18h.02c.54-.9 1.31-1.36 2.33-1.36a2.17 2.17 0 0 1 2.13 1.55A2.68 2.68 0 0 1 52.24 12c1.65 0 2.47 1.02 2.47 3.05v4.63zm5.4.17c-1.1 0-1.98-.35-2.65-1.05a3.9 3.9 0 0 1-.99-2.79c0-1.26.35-2.24 1.03-2.95A3.71 3.71 0 0 1 60.3 12c1.11 0 1.99.34 2.61 1.03.63.7.94 1.65.94 2.87 0 1.2-.33 2.15-1.01 2.87a3.55 3.55 0 0 1-2.72 1.08zm.1-6.84c-.77 0-1.38.26-1.83.79a3.23 3.23 0 0 0-.68 2.17c0 .89.23 1.59.68 2.1.46.51 1.07.77 1.83.77A2.2 2.2 0 0 0 62 18.1c.42-.5.62-1.22.62-2.15 0-.94-.2-1.66-.62-2.17a2.19 2.19 0 0 0-1.8-.76z"/><polygon fill="#000000" points="65.344 22.53 64.26 22.53 64.26 7.53 65.344 7.53"/></g></g><path fill="#0C0C0D" d="M8.04 10H6.97V5.85H2.26V10H1.19V.9h1.07v3.99h4.71v-4h1.07V10zm4.96.15c-.96 0-1.73-.3-2.3-.9a3.37 3.37 0 0 1-.86-2.42c0-1.1.3-1.95.9-2.56.6-.62 1.4-.92 2.41-.92.97 0 1.73.3 2.27.9.55.59.82 1.42.82 2.47a3.5 3.5 0 0 1-.88 2.5c-.59.62-1.37.93-2.36.93zm.08-5.93c-.67 0-1.2.23-1.6.69a2.8 2.8 0 0 0-.57 1.88c0 .77.2 1.38.59 1.82a2 2 0 0 0 1.58.67 1.9 1.9 0 0 0 1.55-.66c.36-.43.54-1.05.54-1.86s-.18-1.44-.54-1.88a1.9 1.9 0 0 0-1.55-.66zM27.13 10h-1.04V6.27c0-.72-.11-1.24-.33-1.56-.23-.33-.6-.49-1.12-.49-.45 0-.83.2-1.14.61-.3.4-.46.9-.46 1.46V10h-1.05V6.14c0-1.28-.49-1.92-1.47-1.92-.46 0-.84.2-1.13.58-.3.38-.45.88-.45 1.5V10H17.9V3.5h1.04v1.03h.03a2.2 2.2 0 0 1 2.02-1.18 1.88 1.88 0 0 1 1.84 1.34c.48-.9 1.2-1.34 2.15-1.34 1.43 0 2.15.88 2.15 2.64V10zm7.2-2.99h-4.6c.02.72.21 1.28.59 1.68.37.39.88.59 1.53.59.73 0 1.4-.24 2.02-.73v.98c-.57.41-1.33.62-2.27.62-.91 0-1.63-.3-2.16-.88a3.62 3.62 0 0 1-.79-2.5c0-1 .29-1.83.86-2.47a2.76 2.76 0 0 1 2.14-.95c.85 0 1.5.27 1.97.82.47.55.7 1.32.7 2.3V7zm-1.07-.88c0-.6-.15-1.07-.44-1.4-.29-.34-.68-.5-1.19-.5-.5 0-.9.17-1.25.52a2.4 2.4 0 0 0-.63 1.38h3.5zm7.26 2.93h-.02V13h-1.04V3.5h1.04v1.14h.02a2.46 2.46 0 0 1 2.25-1.3c.84 0 1.5.3 1.96.88.47.58.7 1.36.7 2.34 0 1.09-.26 1.96-.79 2.61-.53.66-1.25.98-2.17.98-.84 0-1.49-.36-1.95-1.09zm-.02-2.62v.9c0 .54.17 1 .52 1.37.35.38.8.57 1.33.57.63 0 1.13-.24 1.48-.73.36-.48.54-1.15.54-2 0-.73-.17-1.3-.5-1.71a1.66 1.66 0 0 0-1.36-.62c-.6 0-1.1.21-1.46.64-.37.42-.55.94-.55 1.58zM51.75 10h-1.04V8.98h-.02a2.18 2.18 0 0 1-2 1.17c-.65 0-1.16-.17-1.52-.51-.37-.34-.55-.8-.55-1.37 0-1.21.71-1.92 2.14-2.12l1.95-.27c0-1.1-.45-1.66-1.34-1.66a3.2 3.2 0 0 0-2.12.8V3.96c.64-.4 1.38-.61 2.21-.61 1.53 0 2.3.8 2.3 2.42V10zm-1.04-3.29l-1.57.22c-.48.07-.84.18-1.09.36-.24.17-.37.47-.37.9a1 1 0 0 0 .34.78c.23.2.53.3.9.3.52 0 .95-.17 1.29-.54.33-.36.5-.82.5-1.37V6.7zm8.55 2.77c0 2.39-1.14 3.58-3.43 3.58-.8 0-1.5-.15-2.1-.46v-1.04c.73.4 1.43.61 2.1.61 1.6 0 2.4-.85 2.4-2.55V8.9h-.03a2.43 2.43 0 0 1-2.24 1.24c-.8 0-1.46-.29-1.95-.86a3.46 3.46 0 0 1-.74-2.33c0-1.1.27-1.98.8-2.63a2.66 2.66 0 0 1 2.18-.98c.87 0 1.52.35 1.95 1.05h.02v-.9h1.04v5.98zm-1.04-2.42V6.1c0-.51-.17-.96-.52-1.32a1.72 1.72 0 0 0-1.3-.56 1.8 1.8 0 0 0-1.52.7 3.13 3.13 0 0 0-.54 1.97c0 .72.17 1.3.52 1.74.35.43.81.65 1.39.65.58 0 1.06-.21 1.42-.63.37-.41.55-.94.55-1.59zm8.37-.05H62c.02.72.22 1.28.59 1.68.37.39.88.59 1.53.59.74 0 1.4-.24 2.02-.73v.98c-.57.41-1.32.62-2.26.62-.92 0-1.64-.3-2.17-.88a3.62 3.62 0 0 1-.79-2.5c0-1 .3-1.83.86-2.47a2.76 2.76 0 0 1 2.14-.95c.85 0 1.51.27 1.98.82.46.55.7 1.32.7 2.3V7zm-1.06-.88c0-.6-.15-1.07-.44-1.4-.28-.34-.68-.5-1.19-.5-.49 0-.9.17-1.25.52a2.4 2.4 0 0 0-.63 1.38h3.5z"/></g></svg>