<svg xmlns="http://www.w3.org/2000/svg" xmlns:xlink="http://www.w3.org/1999/xlink" viewBox="0 0 360 315"><defs><path id="b" d="M1 29h302v210a2 2 0 0 1-2 2H3a2 2 0 0 1-2-2V29z"/><filter id="a" width="108.3%" height="111.8%" x="-4.1%" y="-5.4%" filterUnits="objectBoundingBox"><feOffset dy="1" in="SourceAlpha" result="shadowOffsetOuter1"/><feGaussianBlur in="shadowOffsetOuter1" result="shadowBlurOuter1" stdDeviation="4"/><feComposite in="shadowBlurOuter1" in2="SourceAlpha" operator="out" result="shadowBlurOuter1"/><feColorMatrix in="shadowBlurOuter1" values="0 0 0 0 0.0470588235 0 0 0 0 0.0470588235 0 0 0 0 0.0509803922 0 0 0 0.1 0"/></filter><rect id="c" width="302" height="30" x=".38" rx="2"/></defs><g fill="none" fill-rule="evenodd" transform="translate(28 24)"><g transform="translate(0 22)"><rect width="305" height="33" x="-.5" y="-1.5" stroke="#DFF8FB" stroke-width="3" opacity=".52" rx="2"/><rect width="303" height="31" x=".5" y="-.5" stroke="#B1EDF6" opacity=".52" rx="2"/><use fill="black" filter="url(#a)" xlink:href="#b"/><use fill="#FFFFFF" xlink:href="#b"/><path stroke="#0C0C0D" stroke-opacity=".3" d="M1.5 29.5V239c0 .83.67 1.5 1.5 1.5h298c.83 0 1.5-.67 1.5-1.5V29.5H1.5z"/><g transform="translate(2 29)"><rect width="300" height="30" fill="#0060DF"/><text fill="#FFFFFF" font-family="SFUIText-Regular, SF UI Text" font-size="13"><tspan x="16" y="19">https://www.mozilla.org</tspan></text></g><g transform="translate(2 59)"><rect width="300" height="30" fill="#FFFFFF"/><text fill="#0C0C0D" font-family="SFUIText-Regular, SF UI Text" font-size="13"><tspan x="16" y="19">https://www.mozillafirefox.org</tspan></text></g><g transform="translate(2 89)"><rect width="300" height="30" fill="#FFFFFF"/><text fill="#0C0C0D" font-family="SFUIText-Regular, SF UI Text" font-size="13"><tspan x="16" y="19">https://www.mozillafirefox.com</tspan></text></g><g transform="translate(2 119)"><rect width="300" height="30" fill="#FFFFFF"/><text fill="#0C0C0D" font-family="SFUIText-Regular, SF UI Text" font-size="13"><tspan x="16" y="19">https://www.moz.com</tspan></text></g><g transform="translate(2 149)"><rect width="300" height="30" fill="#FFFFFF"/><text fill="#0C0C0D" font-family="SFUIText-Regular, SF UI Text" font-size="13"><tspan x="16" y="17">https://www.mozshop.com</tspan></text></g><g transform="translate(2 179)"><rect width="300" height="30" fill="#FFFFFF"/><text fill="#0C0C0D" font-family="SFUIText-Regular, SF UI Text" font-size="13"><tspan x="16" y="19">https://www.mozillaprojects.com</tspan></text></g><g transform="translate(2 209)"><rect width="300" height="30" fill="#FFFFFF"/><text fill="#0C0C0D" font-family="SFUIText-Regular, SF UI Text" font-size="13"><tspan x="16" y="19">https://www.mozillafirefox.photon.com</tspan></text></g><g transform="translate(.618)"><use fill="#FFFFFF" xlink:href="#c"/><rect width="301" height="29" x=".88" y=".5" stroke="#00BDDF" rx="2"/><text fill="#0C0C0D" font-family="SFUIText-Regular, SF UI Text" font-size="15"><tspan x="9" y="20">www.mo</tspan></text><text fill="#000000" font-family="SegoeUI, Segoe UI" font-size="15"><tspan x="67" y="19">|</tspan></text></g></g><text fill="#0C0C0D" font-family="SFUIText-Regular, SF UI Text" font-size="13"><tspan x="1" y="12">Home page</tspan></text></g></svg>