<svg xmlns="http://www.w3.org/2000/svg" xmlns:xlink="http://www.w3.org/1999/xlink" viewBox="0 0 360 315"><defs><path id="b" d="M0 32h302v214a2 2 0 0 1-2 2H2a2 2 0 0 1-2-2V32z"/><filter id="a" width="108.3%" height="111.6%" x="-4.1%" y="-5.3%" filterUnits="objectBoundingBox"><feOffset dy="1" in="SourceAlpha" result="shadowOffsetOuter1"/><feGaussianBlur in="shadowOffsetOuter1" result="shadowBlurOuter1" stdDeviation="4"/><feComposite in="shadowBlurOuter1" in2="SourceAlpha" operator="out" result="shadowBlurOuter1"/><feColorMatrix in="shadowBlurOuter1" values="0 0 0 0 0.0470588235 0 0 0 0 0.0470588235 0 0 0 0 0.0509803922 0 0 0 0.1 0"/></filter><rect id="c" width="300" height="32" rx="2"/></defs><g fill="none" fill-rule="evenodd" transform="translate(29 24)"><g transform="translate(0 23)"><rect width="304" height="36" x="-1" y="-2" stroke="#0A84FF" stroke-opacity=".3" stroke-width="4" opacity=".52" rx="2"/><use fill="black" filter="url(#a)" xlink:href="#b"/><use fill="#FFFFFF" xlink:href="#b"/><path stroke="#0C0C0D" stroke-opacity=".3" d="M.5 32.5V246c0 .83.67 1.5 1.5 1.5h298c.83 0 1.5-.67 1.5-1.5V32.5H.5z"/><g transform="translate(1 32)"><rect width="300" height="30" fill="#0060DF"/><path fill="#FFFFFF" d="M18.18 10.44v3.8h.1c.18-.39.44-.68.8-.9.36-.2.8-.3 1.31-.3.49 0 .9.1 1.26.3.35.2.62.48.82.86a3 3 0 0 1 .28 1.37V20h-1.09v-4.16c0-.6-.13-1.06-.4-1.37-.26-.3-.66-.45-1.18-.45-.4 0-.74.08-1.03.24-.28.16-.5.38-.64.67-.15.3-.23.64-.23 1.02V20H17.1v-9.56h1.1zm8.12 2.72h1.52v.91H26.3v3.87c0 .4.08.7.24.88.16.18.42.27.77.27.16 0 .33 0 .5-.02v.92c-.23.04-.45.06-.63.06-.48 0-.86-.06-1.14-.18-.3-.13-.5-.32-.64-.59-.13-.26-.2-.62-.2-1.06v-4.15h-1.1v-.91h1.1v-1.77h1.1v1.77zm4.72 0h1.52v.91h-1.52v3.87c0 .4.08.7.24.88.16.18.42.27.77.27.16 0 .33 0 .51-.02v.92c-.24.04-.45.06-.64.06-.47 0-.85-.06-1.14-.18-.29-.13-.5-.32-.63-.59-.14-.26-.2-.62-.2-1.06v-4.15h-1.1v-.91h1.1v-1.77h1.09v1.77zm8.02.31c.43.3.77.7 1 1.24.24.53.36 1.16.36 1.87 0 .7-.12 1.33-.36 1.86a2.65 2.65 0 0 1-2.52 1.68c-.48 0-.91-.1-1.29-.3-.38-.2-.66-.48-.84-.85h-.1v3.32h-1.1v-9.13h1.04v1.14h.1a2.5 2.5 0 0 1 2.19-1.26c.58 0 1.09.14 1.52.43zm-.7 5.36c.3-.2.53-.5.7-.88.15-.39.23-.84.23-1.37 0-.53-.08-.99-.24-1.37a1.9 1.9 0 0 0-.69-.88c-.3-.2-.65-.3-1.07-.3a1.85 1.85 0 0 0-1.77 1.19c-.17.39-.25.84-.25 1.36 0 .51.08.97.25 1.35a1.83 1.83 0 0 0 1.76 1.2c.42 0 .78-.1 1.08-.3zm3.95-4.82c.22-.3.53-.54.92-.71.39-.18.82-.26 1.3-.26.47 0 .9.07 1.27.22s.67.36.9.64c.22.27.36.6.4.97h-1.07a1.1 1.1 0 0 0-.5-.66c-.27-.17-.6-.25-1-.25a2 2 0 0 0-.75.13c-.22.09-.39.21-.52.37a.81.81 0 0 0-.19.53c0 .23.1.42.3.58.19.15.48.28.9.37l1.04.26c.66.15 1.14.38 1.45.68.31.3.47.68.47 1.17 0 .4-.12.76-.36 1.07-.24.32-.57.56-.99.74-.41.17-.88.26-1.4.26-.5 0-.95-.08-1.34-.23-.4-.15-.7-.37-.94-.65a1.78 1.78 0 0 1-.4-.99h1.12c.09.3.27.53.55.7a2 2 0 0 0 1.05.25c.3 0 .58-.05.82-.14.24-.09.42-.21.56-.37.13-.16.2-.35.2-.56 0-.46-.36-.78-1.08-.96l-1.18-.29a3 3 0 0 1-1.42-.67c-.3-.3-.44-.69-.44-1.18 0-.37.1-.71.33-1.02zm7.12 1.06a.82.82 0 1 1 .82-1.43.82.82 0 0 1-.82 1.43zm0 4.88a.82.82 0 1 1 .82-1.43.82.82 0 0 1-.82 1.43zm5.51-9.11h.97l-2.8 11.22h-.96l2.8-11.22zm4.52 0h.97l-2.8 11.22h-.96l2.8-11.22zM67.4 20l-1.53-5.3h-.1L64.24 20h-1.1l-1.92-6.84h1.1l1.35 5.47h.1l1.53-5.47h1.05l1.53 5.47h.1l1.35-5.47h1.1L68.5 20H67.4zm10.06 0l-1.53-5.3h-.1L74.31 20h-1.1l-1.92-6.84h1.1l1.35 5.47h.1l1.53-5.47h1.05l1.53 5.47h.1l1.34-5.47h1.1L78.58 20h-1.12zm10.07 0L86 14.7h-.1L84.38 20h-1.1l-1.92-6.84h1.1l1.35 5.47h.1l1.53-5.47h1.04l1.53 5.47h.1l1.35-5.47h1.1L88.64 20h-1.1zm4.03-.05a.82.82 0 1 1 .82-1.43.82.82 0 0 1-.82 1.43zm4.4-6.8v1.09h.1c.17-.38.4-.68.74-.89.33-.2.72-.31 1.18-.31.45 0 .83.1 1.16.32.32.22.57.5.73.88h.1c.19-.37.47-.66.84-.88.37-.22.8-.32 1.26-.32.7 0 1.23.19 1.61.58.38.38.57.94.57 1.65V20h-1.1v-4.48c0-.5-.12-.88-.36-1.12-.23-.25-.6-.38-1.08-.38-.3 0-.58.07-.82.21a1.5 1.5 0 0 0-.56.58c-.14.24-.2.5-.2.8V20h-1.1v-4.65c0-.4-.13-.73-.39-.97s-.6-.36-1.03-.36c-.3 0-.56.08-.8.23-.25.16-.44.37-.58.63-.14.27-.21.56-.21.88V20h-1.1v-6.84h1.05zm11.41 6.54a2.8 2.8 0 0 1-1.1-1.22 4.34 4.34 0 0 1-.37-1.9c0-.72.12-1.35.38-1.88.25-.54.61-.94 1.09-1.23a3.22 3.22 0 0 1 1.68-.42c.65 0 1.2.14 1.68.42.48.29.84.7 1.1 1.23.25.53.38 1.16.38 1.89s-.13 1.36-.39 1.89a2.8 2.8 0 0 1-1.1 1.22 3.2 3.2 0 0 1-1.67.43 3.2 3.2 0 0 1-1.68-.43zm3.18-1.22c.35-.45.53-1.08.53-1.9 0-.8-.18-1.43-.53-1.88a1.8 1.8 0 0 0-1.5-.67 1.8 1.8 0 0 0-1.5.67 2.99 2.99 0 0 0-.52 1.89c0 .81.17 1.44.52 1.89.35.44.85.67 1.5.67a1.8 1.8 0 0 0 1.5-.67zm6.97-4.3v-.1h-3.94v-.91h5.24v.82l-3.93 5v.1h3.95V20h-5.27v-.8l3.95-5.03zm3.25-2.63a.73.73 0 0 1-.22-.53c0-.22.07-.4.22-.54a.74.74 0 0 1 .54-.23c.2 0 .39.08.54.23.15.14.22.32.22.54 0 .2-.07.38-.22.53a.73.73 0 0 1-.54.23.73.73 0 0 1-.54-.23zm1.08 1.62V20h-1.09v-6.84h1.1zm3.24-2.72V20H124v-9.56h1.1zm3.28 0V20h-1.1v-9.56h1.1zm2.83 9.43c-.35-.17-.62-.4-.82-.71-.2-.3-.3-.67-.3-1.08 0-.6.22-1.08.65-1.43a3.2 3.2 0 0 1 1.84-.6l1.98-.11v-.62c0-.43-.13-.75-.4-.98-.26-.22-.64-.33-1.15-.33-.41 0-.75.07-1.02.22s-.45.36-.52.63h-1.1c.04-.37.18-.69.42-.96.25-.28.56-.49.95-.64a3.6 3.6 0 0 1 1.3-.22c.56 0 1.03.09 1.42.27.39.18.68.44.89.78.2.34.3.75.3 1.23V20h-1.04v-1h-.1c-.22.35-.51.63-.88.83-.36.2-.77.3-1.23.3-.44 0-.84-.1-1.19-.26zm2.4-.93c.3-.15.53-.36.7-.62.16-.26.25-.55.25-.87v-.63l-1.84.12c-.52.03-.9.14-1.14.32a.93.93 0 0 0-.36.8c0 .34.13.61.39.8.26.2.59.3 1 .3.36 0 .7-.07 1-.22zm4.55 1.01a.82.82 0 1 1 .82-1.43.82.82 0 0 1-.82 1.43zm4.25-.26a2.8 2.8 0 0 1-1.1-1.22 4.34 4.34 0 0 1-.38-1.9c0-.72.13-1.35.38-1.88.26-.54.62-.94 1.1-1.23a3.22 3.22 0 0 1 1.68-.42c.64 0 1.2.14 1.68.42.47.29.84.7 1.1 1.23.24.53.37 1.16.37 1.89s-.13 1.36-.38 1.89a2.8 2.8 0 0 1-1.1 1.22 3.2 3.2 0 0 1-1.67.43 3.2 3.2 0 0 1-1.68-.43zm3.17-1.22c.36-.45.53-1.08.53-1.9 0-.8-.17-1.43-.53-1.88a1.8 1.8 0 0 0-1.5-.67 1.8 1.8 0 0 0-1.5.67 2.99 2.99 0 0 0-.52 1.89c0 .81.18 1.44.53 1.89.35.44.85.67 1.5.67a1.8 1.8 0 0 0 1.5-.67zm4.42-5.31v1.01h.1c.07-.22.2-.41.38-.58.18-.18.4-.31.67-.4.26-.1.55-.15.85-.15.2 0 .39 0 .54.03v1.09a4.3 4.3 0 0 0-.7-.06c-.34 0-.65.07-.92.2a1.6 1.6 0 0 0-.87 1.46V20h-1.1v-6.84H150zm5.1 9.24a2.4 2.4 0 0 1-.98-.66c-.25-.28-.4-.6-.45-.98h1.15a1 1 0 0 0 .54.67c.3.16.7.25 1.17.25.62 0 1.1-.15 1.44-.43.35-.29.52-.68.52-1.19v-1.34h-.1c-.22.37-.51.67-.88.87-.38.2-.8.3-1.27.3-.58 0-1.09-.13-1.52-.42a2.74 2.74 0 0 1-1-1.2 4.33 4.33 0 0 1-.35-1.8c0-.67.12-1.27.36-1.8a2.67 2.67 0 0 1 2.52-1.64c.47 0 .9.12 1.3.33.4.22.69.51.89.88h.1v-1.08h1.04v6.96c0 .5-.12.95-.37 1.33-.25.37-.6.66-1.06.87-.46.2-1 .3-1.62.3-.54 0-1.01-.07-1.43-.22zm3.17-7.22c-.16-.37-.4-.66-.7-.86-.31-.2-.67-.3-1.09-.3-.42 0-.77.1-1.07.3-.3.2-.52.49-.68.86-.15.36-.23.8-.23 1.3s.08.93.23 1.3c.16.37.38.65.68.85.3.2.65.3 1.07.3.42 0 .78-.1 1.09-.3.3-.2.54-.48.7-.85.16-.38.24-.8.24-1.3s-.08-.93-.24-1.3z"/></g><g transform="translate(1 62)"><rect width="300" height="30" fill="#FFFFFF"/><path fill="#0C0C0D" d="M18.18 10.44v3.8h.1c.18-.39.44-.68.8-.9.36-.2.8-.3 1.31-.3.49 0 .9.1 1.26.3.35.2.62.48.82.86a3 3 0 0 1 .28 1.37V20h-1.09v-4.16c0-.6-.13-1.06-.4-1.37-.26-.3-.66-.45-1.18-.45-.4 0-.74.08-1.03.24-.28.16-.5.38-.64.67-.15.3-.23.64-.23 1.02V20H17.1v-9.56h1.1zm8.12 2.72h1.52v.91H26.3v3.87c0 .4.08.7.24.88.16.18.42.27.77.27.16 0 .33 0 .5-.02v.92c-.23.04-.45.06-.63.06-.48 0-.86-.06-1.14-.18-.3-.13-.5-.32-.64-.59-.13-.26-.2-.62-.2-1.06v-4.15h-1.1v-.91h1.1v-1.77h1.1v1.77zm4.72 0h1.52v.91h-1.52v3.87c0 .4.08.7.24.88.16.18.42.27.77.27.16 0 .33 0 .51-.02v.92c-.24.04-.45.06-.64.06-.47 0-.85-.06-1.14-.18-.29-.13-.5-.32-.63-.59-.14-.26-.2-.62-.2-1.06v-4.15h-1.1v-.91h1.1v-1.77h1.09v1.77zm8.02.31c.43.3.77.7 1 1.24.24.53.36 1.16.36 1.87 0 .7-.12 1.33-.36 1.86a2.65 2.65 0 0 1-2.52 1.68c-.48 0-.91-.1-1.29-.3-.38-.2-.66-.48-.84-.85h-.1v3.32h-1.1v-9.13h1.04v1.14h.1a2.5 2.5 0 0 1 2.19-1.26c.58 0 1.09.14 1.52.43zm-.7 5.36c.3-.2.53-.5.7-.88.15-.39.23-.84.23-1.37 0-.53-.08-.99-.24-1.37a1.9 1.9 0 0 0-.69-.88c-.3-.2-.65-.3-1.07-.3a1.85 1.85 0 0 0-1.77 1.19c-.17.39-.25.84-.25 1.36 0 .51.08.97.25 1.35a1.83 1.83 0 0 0 1.76 1.2c.42 0 .78-.1 1.08-.3zm3.95-4.82c.22-.3.53-.54.92-.71.39-.18.82-.26 1.3-.26.47 0 .9.07 1.27.22s.67.36.9.64c.22.27.36.6.4.97h-1.07a1.1 1.1 0 0 0-.5-.66c-.27-.17-.6-.25-1-.25a2 2 0 0 0-.75.13c-.22.09-.39.21-.52.37a.81.81 0 0 0-.19.53c0 .23.1.42.3.58.19.15.48.28.9.37l1.04.26c.66.15 1.14.38 1.45.68.31.3.47.68.47 1.17 0 .4-.12.76-.36 1.07-.24.32-.57.56-.99.74-.41.17-.88.26-1.4.26-.5 0-.95-.08-1.34-.23-.4-.15-.7-.37-.94-.65a1.78 1.78 0 0 1-.4-.99h1.12c.09.3.27.53.55.7a2 2 0 0 0 1.05.25c.3 0 .58-.05.82-.14.24-.09.42-.21.56-.37.13-.16.2-.35.2-.56 0-.46-.36-.78-1.08-.96l-1.18-.29a3 3 0 0 1-1.42-.67c-.3-.3-.44-.69-.44-1.18 0-.37.1-.71.33-1.02zm7.12 1.06a.82.82 0 1 1 .82-1.43.82.82 0 0 1-.82 1.43zm0 4.88a.82.82 0 1 1 .82-1.43.82.82 0 0 1-.82 1.43zm5.51-9.11h.97l-2.8 11.22h-.96l2.8-11.22zm4.52 0h.97l-2.8 11.22h-.96l2.8-11.22zM67.4 20l-1.53-5.3h-.1L64.24 20h-1.1l-1.92-6.84h1.1l1.35 5.47h.1l1.53-5.47h1.05l1.53 5.47h.1l1.35-5.47h1.1L68.5 20H67.4zm10.06 0l-1.53-5.3h-.1L74.31 20h-1.1l-1.92-6.84h1.1l1.35 5.47h.1l1.53-5.47h1.05l1.53 5.47h.1l1.34-5.47h1.1L78.58 20h-1.12zm10.07 0L86 14.7h-.1L84.38 20h-1.1l-1.92-6.84h1.1l1.35 5.47h.1l1.53-5.47h1.04l1.53 5.47h.1l1.35-5.47h1.1L88.64 20h-1.1zm4.03-.05a.82.82 0 1 1 .82-1.43.82.82 0 0 1-.82 1.43zm4.4-6.8v1.09h.1c.17-.38.4-.68.74-.89.33-.2.72-.31 1.18-.31.45 0 .83.1 1.16.32.32.22.57.5.73.88h.1c.19-.37.47-.66.84-.88.37-.22.8-.32 1.26-.32.7 0 1.23.19 1.61.58.38.38.57.94.57 1.65V20h-1.1v-4.48c0-.5-.12-.88-.36-1.12-.23-.25-.6-.38-1.08-.38-.3 0-.58.07-.82.21a1.5 1.5 0 0 0-.56.58c-.14.24-.2.5-.2.8V20h-1.1v-4.65c0-.4-.13-.73-.39-.97s-.6-.36-1.03-.36c-.3 0-.56.08-.8.23-.25.16-.44.37-.58.63-.14.27-.21.56-.21.88V20h-1.1v-6.84h1.05zm11.41 6.54a2.8 2.8 0 0 1-1.1-1.22 4.34 4.34 0 0 1-.37-1.9c0-.72.12-1.35.38-1.88.25-.54.61-.94 1.09-1.23a3.22 3.22 0 0 1 1.68-.42c.65 0 1.2.14 1.68.42.48.29.84.7 1.1 1.23.25.53.38 1.16.38 1.89s-.13 1.36-.39 1.89a2.8 2.8 0 0 1-1.1 1.22 3.2 3.2 0 0 1-1.67.43 3.2 3.2 0 0 1-1.68-.43zm3.18-1.22c.35-.45.53-1.08.53-1.9 0-.8-.18-1.43-.53-1.88a1.8 1.8 0 0 0-1.5-.67 1.8 1.8 0 0 0-1.5.67 2.99 2.99 0 0 0-.52 1.89c0 .81.17 1.44.52 1.89.35.44.85.67 1.5.67a1.8 1.8 0 0 0 1.5-.67zm6.97-4.3v-.1h-3.94v-.91h5.24v.82l-3.93 5v.1h3.95V20h-5.27v-.8l3.95-5.03zm3.25-2.63a.73.73 0 0 1-.22-.53c0-.22.07-.4.22-.54a.74.74 0 0 1 .54-.23c.2 0 .39.08.54.23.15.14.22.32.22.54 0 .2-.07.38-.22.53a.73.73 0 0 1-.54.23.73.73 0 0 1-.54-.23zm1.08 1.62V20h-1.09v-6.84h1.1zm3.24-2.72V20H124v-9.56h1.1zm3.28 0V20h-1.1v-9.56h1.1zm2.83 9.43c-.35-.17-.62-.4-.82-.71-.2-.3-.3-.67-.3-1.08 0-.6.22-1.08.65-1.43a3.2 3.2 0 0 1 1.84-.6l1.98-.11v-.62c0-.43-.13-.75-.4-.98-.26-.22-.64-.33-1.15-.33-.41 0-.75.07-1.02.22s-.45.36-.52.63h-1.1c.04-.37.18-.69.42-.96.25-.28.56-.49.95-.64a3.6 3.6 0 0 1 1.3-.22c.56 0 1.03.09 1.42.27.39.18.68.44.89.78.2.34.3.75.3 1.23V20h-1.04v-1h-.1c-.22.35-.51.63-.88.83-.36.2-.77.3-1.23.3-.44 0-.84-.1-1.19-.26zm2.4-.93c.3-.15.53-.36.7-.62.16-.26.25-.55.25-.87v-.63l-1.84.12c-.52.03-.9.14-1.14.32a.93.93 0 0 0-.36.8c0 .34.13.61.39.8.26.2.59.3 1 .3.36 0 .7-.07 1-.22zm3.38-4.87v-.91h1.14v-.67c0-.68.17-1.19.51-1.5.35-.33.86-.49 1.54-.49.2 0 .42.03.67.07v.91a2.87 2.87 0 0 0-.61-.06c-.68 0-1.02.37-1.02 1.1v.64h1.57v.91h-1.57V20h-1.1v-5.93h-1.13zm5.42-2.53a.73.73 0 0 1-.23-.53c0-.22.08-.4.23-.54a.74.74 0 0 1 .53-.23c.22 0 .4.08.54.23.15.14.23.32.23.54 0 .2-.08.38-.23.53a.73.73 0 0 1-.54.23.73.73 0 0 1-.53-.23zm1.08 1.62V20h-1.1v-6.84h1.1zm3.12 0v1.01h.1c.07-.22.2-.41.38-.58.19-.18.41-.31.68-.4.26-.1.54-.15.84-.15.21 0 .4 0 .55.03v1.09a4.3 4.3 0 0 0-.7-.06c-.34 0-.65.07-.92.2a1.6 1.6 0 0 0-.88 1.46V20h-1.09v-6.84h1.04zm8.34 6.46c-.5.33-1.13.5-1.88.5a2.8 2.8 0 0 1-2.71-1.66 4.38 4.38 0 0 1-.37-1.88c0-.7.13-1.33.38-1.86a2.86 2.86 0 0 1 2.7-1.68c.61 0 1.14.14 1.59.41.45.28.79.68 1.03 1.2.24.51.36 1.12.36 1.83v.42h-4.92v.05c.01.45.1.84.27 1.17.17.33.4.59.69.77.29.18.63.27 1.01.27.44 0 .8-.08 1.1-.24.3-.16.52-.39.66-.7h1.1c-.17.6-.5 1.06-1 1.4zm-2.85-5.37c-.29.17-.51.4-.68.7-.17.3-.27.66-.3 1.06h3.78c-.01-.4-.1-.75-.25-1.05a1.73 1.73 0 0 0-1.59-.96c-.36 0-.68.09-.96.25zm4.98-.18v-.91h1.14v-.67c0-.68.17-1.19.51-1.5.35-.33.86-.49 1.54-.49.2 0 .42.03.67.07v.91a2.87 2.87 0 0 0-.61-.06c-.68 0-1.02.37-1.02 1.1v.64h1.57v.91h-1.57V20h-1.1v-5.93h-1.13zm6.23 5.62a2.8 2.8 0 0 1-1.1-1.22 4.34 4.34 0 0 1-.38-1.9c0-.72.13-1.35.39-1.88.25-.54.61-.94 1.09-1.23a3.22 3.22 0 0 1 1.68-.42c.65 0 1.2.14 1.68.42.48.29.84.7 1.1 1.23.25.53.37 1.16.37 1.89s-.12 1.36-.38 1.89a2.8 2.8 0 0 1-1.1 1.22 3.2 3.2 0 0 1-1.67.43 3.2 3.2 0 0 1-1.68-.43zm3.18-1.22c.35-.45.52-1.08.52-1.9 0-.8-.17-1.43-.52-1.88a1.8 1.8 0 0 0-1.5-.67 1.8 1.8 0 0 0-1.5.67 2.99 2.99 0 0 0-.53 1.89c0 .81.18 1.44.53 1.89.35.44.85.67 1.5.67a1.8 1.8 0 0 0 1.5-.67zm3.75 1.53h-1.24l2.34-3.42-2.36-3.42h1.3l1.62 2.54h.1l1.61-2.54h1.24l-2.33 3.37 2.36 3.47h-1.3l-1.61-2.58h-.1L170.22 20zm6.62-.05a.82.82 0 1 1 .82-1.43.82.82 0 0 1-.82 1.43zm4.25-.26a2.8 2.8 0 0 1-1.1-1.22 4.34 4.34 0 0 1-.38-1.9c0-.72.13-1.35.38-1.88.26-.54.62-.94 1.1-1.23a3.22 3.22 0 0 1 1.68-.42c.65 0 1.2.14 1.68.42.47.29.84.7 1.1 1.23.25.53.37 1.16.37 1.89s-.12 1.36-.38 1.89a2.8 2.8 0 0 1-1.1 1.22 3.2 3.2 0 0 1-1.67.43 3.2 3.2 0 0 1-1.68-.43zm3.18-1.22c.35-.45.52-1.08.52-1.9 0-.8-.17-1.43-.52-1.88a1.8 1.8 0 0 0-1.5-.67 1.8 1.8 0 0 0-1.5.67 2.99 2.99 0 0 0-.53 1.89c0 .81.18 1.44.53 1.89.35.44.85.67 1.5.67a1.8 1.8 0 0 0 1.5-.67zm4.4-5.31v1.01h.11c.07-.22.2-.41.38-.58.18-.18.4-.31.67-.4.26-.1.55-.15.85-.15.2 0 .39 0 .54.03v1.09a4.3 4.3 0 0 0-.7-.06c-.34 0-.65.07-.92.2a1.6 1.6 0 0 0-.87 1.46V20h-1.1v-6.84h1.05zm5.11 9.24a2.4 2.4 0 0 1-.98-.66c-.25-.28-.4-.6-.45-.98h1.15a1 1 0 0 0 .54.67c.3.16.7.25 1.18.25.61 0 1.09-.15 1.43-.43.35-.29.52-.68.52-1.19v-1.34h-.1c-.22.37-.51.67-.88.87-.38.2-.8.3-1.27.3-.58 0-1.09-.13-1.52-.42a2.74 2.74 0 0 1-1-1.2 4.33 4.33 0 0 1-.35-1.8c0-.67.12-1.27.36-1.8a2.67 2.67 0 0 1 2.52-1.64c.47 0 .9.12 1.3.33.4.22.7.51.89.88h.1v-1.08h1.04v6.96c0 .5-.12.95-.37 1.33-.25.37-.6.66-1.06.87-.46.2-1 .3-1.61.3-.55 0-1.02-.07-1.44-.22zm3.17-7.22c-.16-.37-.4-.66-.7-.86-.3-.2-.67-.3-1.08-.3-.42 0-.78.1-1.08.3-.3.2-.52.49-.67.86-.16.36-.24.8-.24 1.3s.08.93.24 1.3c.15.37.38.65.67.85.3.2.66.3 1.08.3.41 0 .78-.1 1.08-.3.3-.2.54-.48.7-.85.17-.38.25-.8.25-1.3s-.08-.93-.25-1.3z"/></g><g transform="translate(1 92)"><rect width="300" height="30" fill="#FFFFFF"/><path fill="#0C0C0D" d="M18.18 10.44v3.8h.1c.18-.39.44-.68.8-.9.36-.2.8-.3 1.31-.3.49 0 .9.1 1.26.3.35.2.62.48.82.86a3 3 0 0 1 .28 1.37V20h-1.09v-4.16c0-.6-.13-1.06-.4-1.37-.26-.3-.66-.45-1.18-.45-.4 0-.74.08-1.03.24-.28.16-.5.38-.64.67-.15.3-.23.64-.23 1.02V20H17.1v-9.56h1.1zm8.12 2.72h1.52v.91H26.3v3.87c0 .4.08.7.24.88.16.18.42.27.77.27.16 0 .33 0 .5-.02v.92c-.23.04-.45.06-.63.06-.48 0-.86-.06-1.14-.18-.3-.13-.5-.32-.64-.59-.13-.26-.2-.62-.2-1.06v-4.15h-1.1v-.91h1.1v-1.77h1.1v1.77zm4.72 0h1.52v.91h-1.52v3.87c0 .4.08.7.24.88.16.18.42.27.77.27.16 0 .33 0 .51-.02v.92c-.24.04-.45.06-.64.06-.47 0-.85-.06-1.14-.18-.29-.13-.5-.32-.63-.59-.14-.26-.2-.62-.2-1.06v-4.15h-1.1v-.91h1.1v-1.77h1.09v1.77zm8.02.31c.43.3.77.7 1 1.24.24.53.36 1.16.36 1.87 0 .7-.12 1.33-.36 1.86a2.65 2.65 0 0 1-2.52 1.68c-.48 0-.91-.1-1.29-.3-.38-.2-.66-.48-.84-.85h-.1v3.32h-1.1v-9.13h1.04v1.14h.1a2.5 2.5 0 0 1 2.19-1.26c.58 0 1.09.14 1.52.43zm-.7 5.36c.3-.2.53-.5.7-.88.15-.39.23-.84.23-1.37 0-.53-.08-.99-.24-1.37a1.9 1.9 0 0 0-.69-.88c-.3-.2-.65-.3-1.07-.3a1.85 1.85 0 0 0-1.77 1.19c-.17.39-.25.84-.25 1.36 0 .51.08.97.25 1.35a1.83 1.83 0 0 0 1.76 1.2c.42 0 .78-.1 1.08-.3zm3.95-4.82c.22-.3.53-.54.92-.71.39-.18.82-.26 1.3-.26.47 0 .9.07 1.27.22s.67.36.9.64c.22.27.36.6.4.97h-1.07a1.1 1.1 0 0 0-.5-.66c-.27-.17-.6-.25-1-.25a2 2 0 0 0-.75.13c-.22.09-.39.21-.52.37a.81.81 0 0 0-.19.53c0 .23.1.42.3.58.19.15.48.28.9.37l1.04.26c.66.15 1.14.38 1.45.68.31.3.47.68.47 1.17 0 .4-.12.76-.36 1.07-.24.32-.57.56-.99.74-.41.17-.88.26-1.4.26-.5 0-.95-.08-1.34-.23-.4-.15-.7-.37-.94-.65a1.78 1.78 0 0 1-.4-.99h1.12c.09.3.27.53.55.7a2 2 0 0 0 1.05.25c.3 0 .58-.05.82-.14.24-.09.42-.21.56-.37.13-.16.2-.35.2-.56 0-.46-.36-.78-1.08-.96l-1.18-.29a3 3 0 0 1-1.42-.67c-.3-.3-.44-.69-.44-1.18 0-.37.1-.71.33-1.02zm7.12 1.06a.82.82 0 1 1 .82-1.43.82.82 0 0 1-.82 1.43zm0 4.88a.82.82 0 1 1 .82-1.43.82.82 0 0 1-.82 1.43zm5.51-9.11h.97l-2.8 11.22h-.96l2.8-11.22zm4.52 0h.97l-2.8 11.22h-.96l2.8-11.22zM67.4 20l-1.53-5.3h-.1L64.24 20h-1.1l-1.92-6.84h1.1l1.35 5.47h.1l1.53-5.47h1.05l1.53 5.47h.1l1.35-5.47h1.1L68.5 20H67.4zm10.06 0l-1.53-5.3h-.1L74.31 20h-1.1l-1.92-6.84h1.1l1.35 5.47h.1l1.53-5.47h1.05l1.53 5.47h.1l1.34-5.47h1.1L78.58 20h-1.12zm10.07 0L86 14.7h-.1L84.38 20h-1.1l-1.92-6.84h1.1l1.35 5.47h.1l1.53-5.47h1.04l1.53 5.47h.1l1.35-5.47h1.1L88.64 20h-1.1zm4.03-.05a.82.82 0 1 1 .82-1.43.82.82 0 0 1-.82 1.43zm4.4-6.8v1.09h.1c.17-.38.4-.68.74-.89.33-.2.72-.31 1.18-.31.45 0 .83.1 1.16.32.32.22.57.5.73.88h.1c.19-.37.47-.66.84-.88.37-.22.8-.32 1.26-.32.7 0 1.23.19 1.61.58.38.38.57.94.57 1.65V20h-1.1v-4.48c0-.5-.12-.88-.36-1.12-.23-.25-.6-.38-1.08-.38-.3 0-.58.07-.82.21a1.5 1.5 0 0 0-.56.58c-.14.24-.2.5-.2.8V20h-1.1v-4.65c0-.4-.13-.73-.39-.97s-.6-.36-1.03-.36c-.3 0-.56.08-.8.23-.25.16-.44.37-.58.63-.14.27-.21.56-.21.88V20h-1.1v-6.84h1.05zm11.41 6.54a2.8 2.8 0 0 1-1.1-1.22 4.34 4.34 0 0 1-.37-1.9c0-.72.12-1.35.38-1.88.25-.54.61-.94 1.09-1.23a3.22 3.22 0 0 1 1.68-.42c.65 0 1.2.14 1.68.42.48.29.84.7 1.1 1.23.25.53.38 1.16.38 1.89s-.13 1.36-.39 1.89a2.8 2.8 0 0 1-1.1 1.22 3.2 3.2 0 0 1-1.67.43 3.2 3.2 0 0 1-1.68-.43zm3.18-1.22c.35-.45.53-1.08.53-1.9 0-.8-.18-1.43-.53-1.88a1.8 1.8 0 0 0-1.5-.67 1.8 1.8 0 0 0-1.5.67 2.99 2.99 0 0 0-.52 1.89c0 .81.17 1.44.52 1.89.35.44.85.67 1.5.67a1.8 1.8 0 0 0 1.5-.67zm6.97-4.3v-.1h-3.94v-.91h5.24v.82l-3.93 5v.1h3.95V20h-5.27v-.8l3.95-5.03zm3.25-2.63a.73.73 0 0 1-.22-.53c0-.22.07-.4.22-.54a.74.74 0 0 1 .54-.23c.2 0 .39.08.54.23.15.14.22.32.22.54 0 .2-.07.38-.22.53a.73.73 0 0 1-.54.23.73.73 0 0 1-.54-.23zm1.08 1.62V20h-1.09v-6.84h1.1zm3.24-2.72V20H124v-9.56h1.1zm3.28 0V20h-1.1v-9.56h1.1zm2.83 9.43c-.35-.17-.62-.4-.82-.71-.2-.3-.3-.67-.3-1.08 0-.6.22-1.08.65-1.43a3.2 3.2 0 0 1 1.84-.6l1.98-.11v-.62c0-.43-.13-.75-.4-.98-.26-.22-.64-.33-1.15-.33-.41 0-.75.07-1.02.22s-.45.36-.52.63h-1.1c.04-.37.18-.69.42-.96.25-.28.56-.49.95-.64a3.6 3.6 0 0 1 1.3-.22c.56 0 1.03.09 1.42.27.39.18.68.44.89.78.2.34.3.75.3 1.23V20h-1.04v-1h-.1c-.22.35-.51.63-.88.83-.36.2-.77.3-1.23.3-.44 0-.84-.1-1.19-.26zm2.4-.93c.3-.15.53-.36.7-.62.16-.26.25-.55.25-.87v-.63l-1.84.12c-.52.03-.9.14-1.14.32a.93.93 0 0 0-.36.8c0 .34.13.61.39.8.26.2.59.3 1 .3.36 0 .7-.07 1-.22zm3.38-4.87v-.91h1.14v-.67c0-.68.17-1.19.51-1.5.35-.33.86-.49 1.54-.49.2 0 .42.03.67.07v.91a2.87 2.87 0 0 0-.61-.06c-.68 0-1.02.37-1.02 1.1v.64h1.57v.91h-1.57V20h-1.1v-5.93h-1.13zm5.42-2.53a.73.73 0 0 1-.23-.53c0-.22.08-.4.23-.54a.74.74 0 0 1 .53-.23c.22 0 .4.08.54.23.15.14.23.32.23.54 0 .2-.08.38-.23.53a.73.73 0 0 1-.54.23.73.73 0 0 1-.53-.23zm1.08 1.62V20h-1.1v-6.84h1.1zm3.12 0v1.01h.1c.07-.22.2-.41.38-.58.19-.18.41-.31.68-.4.26-.1.54-.15.84-.15.21 0 .4 0 .55.03v1.09a4.3 4.3 0 0 0-.7-.06c-.34 0-.65.07-.92.2a1.6 1.6 0 0 0-.88 1.46V20h-1.09v-6.84h1.04zm8.34 6.46c-.5.33-1.13.5-1.88.5a2.8 2.8 0 0 1-2.71-1.66 4.38 4.38 0 0 1-.37-1.88c0-.7.13-1.33.38-1.86a2.86 2.86 0 0 1 2.7-1.68c.61 0 1.14.14 1.59.41.45.28.79.68 1.03 1.2.24.51.36 1.12.36 1.83v.42h-4.92v.05c.01.45.1.84.27 1.17.17.33.4.59.69.77.29.18.63.27 1.01.27.44 0 .8-.08 1.1-.24.3-.16.52-.39.66-.7h1.1c-.17.6-.5 1.06-1 1.4zm-2.85-5.37c-.29.17-.51.4-.68.7-.17.3-.27.66-.3 1.06h3.78c-.01-.4-.1-.75-.25-1.05a1.73 1.73 0 0 0-1.59-.96c-.36 0-.68.09-.96.25zm4.98-.18v-.91h1.14v-.67c0-.68.17-1.19.51-1.5.35-.33.86-.49 1.54-.49.2 0 .42.03.67.07v.91a2.87 2.87 0 0 0-.61-.06c-.68 0-1.02.37-1.02 1.1v.64h1.57v.91h-1.57V20h-1.1v-5.93h-1.13zm6.23 5.62a2.8 2.8 0 0 1-1.1-1.22 4.34 4.34 0 0 1-.38-1.9c0-.72.13-1.35.39-1.88.25-.54.61-.94 1.09-1.23a3.22 3.22 0 0 1 1.68-.42c.65 0 1.2.14 1.68.42.48.29.84.7 1.1 1.23.25.53.37 1.16.37 1.89s-.12 1.36-.38 1.89a2.8 2.8 0 0 1-1.1 1.22 3.2 3.2 0 0 1-1.67.43 3.2 3.2 0 0 1-1.68-.43zm3.18-1.22c.35-.45.52-1.08.52-1.9 0-.8-.17-1.43-.52-1.88a1.8 1.8 0 0 0-1.5-.67 1.8 1.8 0 0 0-1.5.67 2.99 2.99 0 0 0-.53 1.89c0 .81.18 1.44.53 1.89.35.44.85.67 1.5.67a1.8 1.8 0 0 0 1.5-.67zm3.75 1.53h-1.24l2.34-3.42-2.36-3.42h1.3l1.62 2.54h.1l1.61-2.54h1.24l-2.33 3.37 2.36 3.47h-1.3l-1.61-2.58h-.1L170.22 20zm6.62-.05a.82.82 0 1 1 .82-1.43.82.82 0 0 1-.82 1.43zm7.07-5.58c-.3-.23-.7-.35-1.16-.35a1.83 1.83 0 0 0-1.76 1.2c-.17.37-.25.82-.25 1.33 0 .52.09.98.25 1.37.17.39.4.69.7.9.3.21.66.32 1.06.32.46 0 .84-.1 1.15-.31.3-.21.51-.5.61-.9h1.1c-.06.43-.22.8-.46 1.14-.25.33-.57.59-.98.77-.41.19-.88.28-1.41.28a2.87 2.87 0 0 1-2.76-1.68 4.34 4.34 0 0 1-.39-1.89c0-.7.13-1.32.39-1.85.25-.53.62-.94 1.1-1.23a3.11 3.11 0 0 1 1.65-.43c.54 0 1.01.1 1.42.3a2.51 2.51 0 0 1 1.45 1.92h-1.1c-.1-.37-.3-.66-.6-.9zm4.45 5.32a2.8 2.8 0 0 1-1.1-1.22 4.34 4.34 0 0 1-.37-1.9c0-.72.12-1.35.38-1.88.25-.54.62-.94 1.1-1.23a3.22 3.22 0 0 1 1.67-.42c.65 0 1.21.14 1.68.42.48.29.84.7 1.1 1.23.25.53.38 1.16.38 1.89s-.13 1.36-.38 1.89a2.8 2.8 0 0 1-1.1 1.22 3.2 3.2 0 0 1-1.68.43 3.2 3.2 0 0 1-1.68-.43zm3.18-1.22c.35-.45.53-1.08.53-1.9 0-.8-.18-1.43-.53-1.88a1.8 1.8 0 0 0-1.5-.67 1.8 1.8 0 0 0-1.5.67 2.99 2.99 0 0 0-.52 1.89c0 .81.17 1.44.52 1.89.36.44.86.67 1.5.67a1.8 1.8 0 0 0 1.5-.67zm4.41-5.31v1.08h.1c.16-.38.4-.68.73-.89.33-.2.73-.31 1.18-.31.45 0 .84.1 1.16.32.33.22.57.5.74.88h.1c.18-.37.46-.66.84-.88.37-.22.79-.32 1.25-.32.7 0 1.24.19 1.61.58.38.38.57.94.57 1.65V20h-1.1v-4.48c0-.5-.11-.88-.35-1.12-.24-.25-.6-.38-1.08-.38-.31 0-.59.07-.83.21a1.5 1.5 0 0 0-.56.58c-.13.24-.2.5-.2.8V20h-1.1v-4.65c0-.4-.12-.73-.38-.97s-.6-.36-1.04-.36c-.3 0-.56.08-.8.23-.25.16-.44.37-.58.63-.14.27-.2.56-.2.88V20h-1.1v-6.84h1.04z"/></g><g transform="translate(1 122)"><rect width="300" height="30" fill="#FFFFFF"/><path fill="#0C0C0D" d="M18.18 10.44v3.8h.1c.18-.39.44-.68.8-.9.36-.2.8-.3 1.31-.3.49 0 .9.1 1.26.3.35.2.62.48.82.86a3 3 0 0 1 .28 1.37V20h-1.09v-4.16c0-.6-.13-1.06-.4-1.37-.26-.3-.66-.45-1.18-.45-.4 0-.74.08-1.03.24-.28.16-.5.38-.64.67-.15.3-.23.64-.23 1.02V20H17.1v-9.56h1.1zm8.12 2.72h1.52v.91H26.3v3.87c0 .4.08.7.24.88.16.18.42.27.77.27.16 0 .33 0 .5-.02v.92c-.23.04-.45.06-.63.06-.48 0-.86-.06-1.14-.18-.3-.13-.5-.32-.64-.59-.13-.26-.2-.62-.2-1.06v-4.15h-1.1v-.91h1.1v-1.77h1.1v1.77zm4.72 0h1.52v.91h-1.52v3.87c0 .4.08.7.24.88.16.18.42.27.77.27.16 0 .33 0 .51-.02v.92c-.24.04-.45.06-.64.06-.47 0-.85-.06-1.14-.18-.29-.13-.5-.32-.63-.59-.14-.26-.2-.62-.2-1.06v-4.15h-1.1v-.91h1.1v-1.77h1.09v1.77zm8.02.31c.43.3.77.7 1 1.24.24.53.36 1.16.36 1.87 0 .7-.12 1.33-.36 1.86a2.65 2.65 0 0 1-2.52 1.68c-.48 0-.91-.1-1.29-.3-.38-.2-.66-.48-.84-.85h-.1v3.32h-1.1v-9.13h1.04v1.14h.1a2.5 2.5 0 0 1 2.19-1.26c.58 0 1.09.14 1.52.43zm-.7 5.36c.3-.2.53-.5.7-.88.15-.39.23-.84.23-1.37 0-.53-.08-.99-.24-1.37a1.9 1.9 0 0 0-.69-.88c-.3-.2-.65-.3-1.07-.3a1.85 1.85 0 0 0-1.77 1.19c-.17.39-.25.84-.25 1.36 0 .51.08.97.25 1.35a1.83 1.83 0 0 0 1.76 1.2c.42 0 .78-.1 1.08-.3zm3.95-4.82c.22-.3.53-.54.92-.71.39-.18.82-.26 1.3-.26.47 0 .9.07 1.27.22s.67.36.9.64c.22.27.36.6.4.97h-1.07a1.1 1.1 0 0 0-.5-.66c-.27-.17-.6-.25-1-.25a2 2 0 0 0-.75.13c-.22.09-.39.21-.52.37a.81.81 0 0 0-.19.53c0 .23.1.42.3.58.19.15.48.28.9.37l1.04.26c.66.15 1.14.38 1.45.68.31.3.47.68.47 1.17 0 .4-.12.76-.36 1.07-.24.32-.57.56-.99.74-.41.17-.88.26-1.4.26-.5 0-.95-.08-1.34-.23-.4-.15-.7-.37-.94-.65a1.78 1.78 0 0 1-.4-.99h1.12c.09.3.27.53.55.7a2 2 0 0 0 1.05.25c.3 0 .58-.05.82-.14.24-.09.42-.21.56-.37.13-.16.2-.35.2-.56 0-.46-.36-.78-1.08-.96l-1.18-.29a3 3 0 0 1-1.42-.67c-.3-.3-.44-.69-.44-1.18 0-.37.1-.71.33-1.02zm7.12 1.06a.82.82 0 1 1 .82-1.43.82.82 0 0 1-.82 1.43zm0 4.88a.82.82 0 1 1 .82-1.43.82.82 0 0 1-.82 1.43zm5.51-9.11h.97l-2.8 11.22h-.96l2.8-11.22zm4.52 0h.97l-2.8 11.22h-.96l2.8-11.22zM67.4 20l-1.53-5.3h-.1L64.24 20h-1.1l-1.92-6.84h1.1l1.35 5.47h.1l1.53-5.47h1.05l1.53 5.47h.1l1.35-5.47h1.1L68.5 20H67.4zm10.06 0l-1.53-5.3h-.1L74.31 20h-1.1l-1.92-6.84h1.1l1.35 5.47h.1l1.53-5.47h1.05l1.53 5.47h.1l1.34-5.47h1.1L78.58 20h-1.12zm10.07 0L86 14.7h-.1L84.38 20h-1.1l-1.92-6.84h1.1l1.35 5.47h.1l1.53-5.47h1.04l1.53 5.47h.1l1.35-5.47h1.1L88.64 20h-1.1zm4.03-.05a.82.82 0 1 1 .82-1.43.82.82 0 0 1-.82 1.43zm4.4-6.8v1.09h.1c.17-.38.4-.68.74-.89.33-.2.72-.31 1.18-.31.45 0 .83.1 1.16.32.32.22.57.5.73.88h.1c.19-.37.47-.66.84-.88.37-.22.8-.32 1.26-.32.7 0 1.23.19 1.61.58.38.38.57.94.57 1.65V20h-1.1v-4.48c0-.5-.12-.88-.36-1.12-.23-.25-.6-.38-1.08-.38-.3 0-.58.07-.82.21a1.5 1.5 0 0 0-.56.58c-.14.24-.2.5-.2.8V20h-1.1v-4.65c0-.4-.13-.73-.39-.97s-.6-.36-1.03-.36c-.3 0-.56.08-.8.23-.25.16-.44.37-.58.63-.14.27-.21.56-.21.88V20h-1.1v-6.84h1.05zm11.41 6.54a2.8 2.8 0 0 1-1.1-1.22 4.34 4.34 0 0 1-.37-1.9c0-.72.12-1.35.38-1.88.25-.54.61-.94 1.09-1.23a3.22 3.22 0 0 1 1.68-.42c.65 0 1.2.14 1.68.42.48.29.84.7 1.1 1.23.25.53.38 1.16.38 1.89s-.13 1.36-.39 1.89a2.8 2.8 0 0 1-1.1 1.22 3.2 3.2 0 0 1-1.67.43 3.2 3.2 0 0 1-1.68-.43zm3.18-1.22c.35-.45.53-1.08.53-1.9 0-.8-.18-1.43-.53-1.88a1.8 1.8 0 0 0-1.5-.67 1.8 1.8 0 0 0-1.5.67 2.99 2.99 0 0 0-.52 1.89c0 .81.17 1.44.52 1.89.35.44.85.67 1.5.67a1.8 1.8 0 0 0 1.5-.67zm6.97-4.3v-.1h-3.94v-.91h5.24v.82l-3.93 5v.1h3.95V20h-5.27v-.8l3.95-5.03zm3.7 5.78a.82.82 0 1 1 .83-1.43.82.82 0 0 1-.82 1.43zm7.08-5.58c-.3-.23-.7-.35-1.17-.35a1.83 1.83 0 0 0-1.76 1.2c-.16.37-.24.82-.24 1.33 0 .52.08.98.25 1.37.16.39.4.69.7.9.3.21.65.32 1.05.32.47 0 .85-.1 1.16-.31.3-.21.5-.5.6-.9H130a2.47 2.47 0 0 1-1.45 1.9c-.4.2-.88.3-1.4.3a2.87 2.87 0 0 1-2.76-1.68 4.34 4.34 0 0 1-.4-1.9c0-.7.14-1.32.4-1.85.25-.53.61-.94 1.09-1.23a3.11 3.11 0 0 1 1.65-.43c.54 0 1.02.1 1.43.3a2.51 2.51 0 0 1 1.45 1.92h-1.11c-.1-.37-.3-.66-.6-.9zm4.45 5.32a2.8 2.8 0 0 1-1.1-1.22 4.34 4.34 0 0 1-.38-1.9c0-.72.13-1.35.38-1.88.26-.54.62-.94 1.1-1.23a3.22 3.22 0 0 1 1.68-.42c.65 0 1.2.14 1.68.42.47.29.84.7 1.1 1.23.25.53.37 1.16.37 1.89s-.12 1.36-.38 1.89a2.8 2.8 0 0 1-1.1 1.22 3.2 3.2 0 0 1-1.67.43 3.2 3.2 0 0 1-1.68-.43zm3.18-1.22c.35-.45.52-1.08.52-1.9 0-.8-.17-1.43-.52-1.88a1.8 1.8 0 0 0-1.5-.67 1.8 1.8 0 0 0-1.5.67 2.99 2.99 0 0 0-.53 1.89c0 .81.18 1.44.53 1.89.35.44.85.67 1.5.67a1.8 1.8 0 0 0 1.5-.67zm4.4-5.31v1.08h.1c.17-.38.4-.68.74-.89.33-.2.72-.31 1.18-.31.45 0 .83.1 1.16.32.32.22.57.5.73.88h.1c.19-.37.47-.66.84-.88.37-.22.8-.32 1.26-.32.7 0 1.23.19 1.61.58.38.38.57.94.57 1.65V20h-1.1v-4.48c0-.5-.12-.88-.36-1.12-.23-.25-.6-.38-1.08-.38-.3 0-.58.07-.82.21a1.5 1.5 0 0 0-.56.58c-.14.24-.2.5-.2.8V20h-1.1v-4.65c0-.4-.13-.73-.39-.97s-.6-.36-1.03-.36c-.3 0-.56.08-.8.23-.25.16-.44.37-.58.63-.14.27-.21.56-.21.88V20h-1.1v-6.84h1.05z"/></g><g transform="translate(1 152)"><rect width="300" height="30" fill="#FFFFFF"/><path fill="#0C0C0D" d="M18.18 8.44v3.8h.1c.18-.39.44-.68.8-.9.36-.2.8-.3 1.31-.3.49 0 .9.1 1.26.3.35.2.62.48.82.86a3 3 0 0 1 .28 1.37V18h-1.09v-4.16c0-.6-.13-1.06-.4-1.37-.26-.3-.66-.45-1.18-.45-.4 0-.74.08-1.03.24-.28.16-.5.38-.64.67-.15.3-.23.64-.23 1.02V18H17.1V8.44h1.1zm8.12 2.72h1.52v.91H26.3v3.87c0 .4.08.7.24.88.16.18.42.27.77.27.16 0 .33 0 .5-.02v.92c-.23.04-.45.06-.63.06-.48 0-.86-.06-1.14-.18-.3-.13-.5-.32-.64-.59-.13-.26-.2-.62-.2-1.06v-4.15h-1.1v-.91h1.1V9.39h1.1v1.77zm4.72 0h1.52v.91h-1.52v3.87c0 .4.08.7.24.88.16.18.42.27.77.27.16 0 .33 0 .51-.02v.92c-.24.04-.45.06-.64.06-.47 0-.85-.06-1.14-.18-.29-.13-.5-.32-.63-.59-.14-.26-.2-.62-.2-1.06v-4.15h-1.1v-.91h1.1V9.39h1.09v1.77zm8.02.31c.43.3.77.7 1 1.24.24.53.36 1.16.36 1.87 0 .7-.12 1.33-.36 1.86a2.65 2.65 0 0 1-2.52 1.68c-.48 0-.91-.1-1.29-.3-.38-.2-.66-.48-.84-.85h-.1v3.32h-1.1v-9.13h1.04v1.14h.1a2.5 2.5 0 0 1 2.19-1.26c.58 0 1.09.14 1.52.43zm-.7 5.36c.3-.2.53-.5.7-.88.15-.39.23-.84.23-1.37 0-.53-.08-.99-.24-1.37a1.9 1.9 0 0 0-.69-.88c-.3-.2-.65-.3-1.07-.3a1.85 1.85 0 0 0-1.77 1.19c-.17.39-.25.84-.25 1.36 0 .51.08.97.25 1.35a1.83 1.83 0 0 0 1.76 1.2c.42 0 .78-.1 1.08-.3zm3.95-4.82c.22-.3.53-.54.92-.71.39-.18.82-.26 1.3-.26.47 0 .9.07 1.27.22s.67.36.9.64c.22.27.36.6.4.97h-1.07a1.1 1.1 0 0 0-.5-.66c-.27-.17-.6-.25-1-.25a2 2 0 0 0-.75.13c-.22.09-.39.21-.52.37a.81.81 0 0 0-.19.53c0 .23.1.42.3.58.19.15.48.28.9.37l1.04.26c.66.15 1.14.38 1.45.68.31.3.47.68.47 1.17 0 .4-.12.76-.36 1.07-.24.32-.57.56-.99.74-.41.17-.88.26-1.4.26-.5 0-.95-.08-1.34-.23-.4-.15-.7-.37-.94-.65a1.78 1.78 0 0 1-.4-.99h1.12c.09.3.27.53.55.7a2 2 0 0 0 1.05.25c.3 0 .58-.05.82-.14.24-.09.42-.21.56-.37.13-.16.2-.35.2-.56 0-.46-.36-.78-1.08-.96l-1.18-.29a3 3 0 0 1-1.42-.67c-.3-.3-.44-.69-.44-1.18 0-.37.1-.71.33-1.02zm7.12 1.06a.82.82 0 1 1 .82-1.43.82.82 0 0 1-.82 1.43zm0 4.88a.82.82 0 1 1 .82-1.43.82.82 0 0 1-.82 1.43zm5.51-9.11h.97l-2.8 11.22h-.96l2.8-11.22zm4.52 0h.97l-2.8 11.22h-.96l2.8-11.22zM67.4 18l-1.53-5.3h-.1L64.24 18h-1.1l-1.92-6.84h1.1l1.35 5.47h.1l1.53-5.47h1.05l1.53 5.47h.1l1.35-5.47h1.1L68.5 18H67.4zm10.06 0l-1.53-5.3h-.1L74.31 18h-1.1l-1.92-6.84h1.1l1.35 5.47h.1l1.53-5.47h1.05l1.53 5.47h.1l1.34-5.47h1.1L78.58 18h-1.12zm10.07 0L86 12.7h-.1L84.38 18h-1.1l-1.92-6.84h1.1l1.35 5.47h.1l1.53-5.47h1.04l1.53 5.47h.1l1.35-5.47h1.1L88.64 18h-1.1zm4.03-.05a.82.82 0 1 1 .82-1.43.82.82 0 0 1-.82 1.43zm4.4-6.8v1.09h.1c.17-.38.4-.68.74-.89.33-.2.72-.31 1.18-.31.45 0 .83.1 1.16.32.32.22.57.5.73.88h.1c.19-.37.47-.66.84-.88.37-.22.8-.32 1.26-.32.7 0 1.23.19 1.61.58.38.38.57.94.57 1.65V18h-1.1v-4.48c0-.5-.12-.88-.36-1.12-.23-.25-.6-.38-1.08-.38-.3 0-.58.07-.82.21a1.5 1.5 0 0 0-.56.58c-.14.24-.2.5-.2.8V18h-1.1v-4.65c0-.4-.13-.73-.39-.97s-.6-.36-1.03-.36c-.3 0-.56.08-.8.23-.25.16-.44.37-.58.63-.14.27-.21.56-.21.88V18h-1.1v-6.84h1.05zm11.41 6.54a2.8 2.8 0 0 1-1.1-1.22 4.34 4.34 0 0 1-.37-1.9c0-.72.12-1.35.38-1.88.25-.54.61-.94 1.09-1.23a3.22 3.22 0 0 1 1.68-.42c.65 0 1.2.14 1.68.42.48.29.84.7 1.1 1.23.25.53.38 1.16.38 1.89s-.13 1.36-.39 1.89a2.8 2.8 0 0 1-1.1 1.22 3.2 3.2 0 0 1-1.67.43 3.2 3.2 0 0 1-1.68-.43zm3.18-1.22c.35-.45.53-1.08.53-1.9 0-.8-.18-1.43-.53-1.88a1.8 1.8 0 0 0-1.5-.67 1.8 1.8 0 0 0-1.5.67 2.99 2.99 0 0 0-.52 1.89c0 .81.17 1.44.52 1.89.35.44.85.67 1.5.67a1.8 1.8 0 0 0 1.5-.67zm6.97-4.3v-.1h-3.94v-.91h5.24v.82l-3.93 5v.1h3.95V18h-5.27v-.8l3.95-5.03zm3.4-.16c.21-.3.52-.54.9-.71.4-.18.83-.26 1.3-.26.48 0 .9.07 1.28.22.37.15.67.36.9.64.22.27.36.6.4.97h-1.07a1.1 1.1 0 0 0-.5-.66c-.27-.17-.6-.25-1-.25a2 2 0 0 0-.74.13c-.22.09-.4.21-.52.37a.81.81 0 0 0-.2.53c0 .23.1.42.3.58.19.15.49.28.9.37l1.05.26c.65.15 1.13.38 1.44.68.31.3.47.68.47 1.17 0 .4-.12.76-.36 1.07-.24.32-.57.56-.99.74-.41.17-.88.26-1.4.26-.5 0-.95-.08-1.34-.23-.39-.15-.7-.37-.94-.65a1.78 1.78 0 0 1-.4-.99h1.12c.09.3.27.53.55.7a2 2 0 0 0 1.05.25c.3 0 .58-.05.82-.14.24-.09.43-.21.56-.37.14-.16.2-.35.2-.56 0-.46-.36-.78-1.08-.96l-1.18-.29a3 3 0 0 1-1.41-.67c-.3-.3-.45-.69-.45-1.18 0-.37.1-.71.33-1.02zm7.78-3.57v3.8h.1c.17-.39.44-.68.8-.9.35-.2.79-.3 1.3-.3.49 0 .9.1 1.26.3.35.2.63.48.82.86a3 3 0 0 1 .29 1.37V18h-1.1v-4.16c0-.6-.13-1.06-.4-1.37-.26-.3-.66-.45-1.18-.45-.4 0-.74.08-1.02.24-.29.16-.5.38-.65.67-.15.3-.22.64-.22 1.02V18h-1.1V8.44h1.1zm7.7 9.25a2.8 2.8 0 0 1-1.1-1.22 4.34 4.34 0 0 1-.38-1.9c0-.72.12-1.35.38-1.88.25-.54.62-.94 1.09-1.23a3.22 3.22 0 0 1 1.68-.42c.65 0 1.21.14 1.68.42.48.29.84.7 1.1 1.23.25.53.38 1.16.38 1.89s-.13 1.36-.38 1.89a2.8 2.8 0 0 1-1.1 1.22 3.2 3.2 0 0 1-1.68.43 3.2 3.2 0 0 1-1.68-.43zm3.17-1.22c.35-.45.53-1.08.53-1.9 0-.8-.18-1.43-.53-1.88a1.8 1.8 0 0 0-1.5-.67 1.8 1.8 0 0 0-1.5.67 2.99 2.99 0 0 0-.52 1.89c0 .81.17 1.44.52 1.89.35.44.85.67 1.5.67a1.8 1.8 0 0 0 1.5-.67zm8.22-5c.43.3.77.7 1 1.24.24.53.36 1.16.36 1.87 0 .7-.12 1.33-.36 1.86a2.65 2.65 0 0 1-2.52 1.68c-.48 0-.92-.1-1.3-.3-.37-.2-.65-.48-.84-.85h-.1v3.32h-1.09v-9.13h1.04v1.14h.1a2.5 2.5 0 0 1 2.19-1.26c.58 0 1.08.14 1.52.43zm-.7 5.36c.3-.2.53-.5.7-.88.15-.39.23-.84.23-1.37 0-.53-.08-.99-.24-1.37a1.9 1.9 0 0 0-.69-.88c-.3-.2-.66-.3-1.07-.3a1.85 1.85 0 0 0-1.77 1.19c-.17.39-.25.84-.25 1.36 0 .51.08.97.25 1.35a1.83 1.83 0 0 0 1.76 1.2c.42 0 .78-.1 1.08-.3zm4.13 1.12a.82.82 0 1 1 .83-1.43.82.82 0 0 1-.83 1.43zm7.08-5.58c-.3-.23-.7-.35-1.17-.35a1.83 1.83 0 0 0-1.76 1.2c-.16.37-.24.82-.24 1.33 0 .52.08.98.25 1.37.16.39.4.69.7.9.3.21.65.32 1.05.32.47 0 .85-.1 1.16-.31.3-.21.5-.5.6-.9H160a2.47 2.47 0 0 1-1.45 1.9c-.4.2-.88.3-1.41.3a2.87 2.87 0 0 1-2.76-1.68 4.34 4.34 0 0 1-.38-1.9c0-.7.13-1.32.38-1.85.26-.53.62-.94 1.1-1.23a3.11 3.11 0 0 1 1.65-.43c.54 0 1.02.1 1.43.3a2.51 2.51 0 0 1 1.45 1.92h-1.11c-.1-.37-.3-.66-.6-.9zm4.45 5.32a2.8 2.8 0 0 1-1.1-1.22 4.34 4.34 0 0 1-.38-1.9c0-.72.13-1.35.38-1.88.26-.54.62-.94 1.1-1.23a3.22 3.22 0 0 1 1.68-.42c.64 0 1.2.14 1.68.42.47.29.84.7 1.1 1.23.25.53.37 1.16.37 1.89s-.12 1.36-.38 1.89a2.8 2.8 0 0 1-1.1 1.22 3.2 3.2 0 0 1-1.67.43 3.2 3.2 0 0 1-1.68-.43zm3.18-1.22c.35-.45.52-1.08.52-1.9 0-.8-.17-1.43-.52-1.88a1.8 1.8 0 0 0-1.5-.67 1.8 1.8 0 0 0-1.5.67 2.99 2.99 0 0 0-.53 1.89c0 .81.18 1.44.53 1.89.35.44.85.67 1.5.67a1.8 1.8 0 0 0 1.5-.67zm4.4-5.31v1.08h.1c.17-.38.4-.68.74-.89.33-.2.72-.31 1.18-.31.45 0 .83.1 1.16.32.32.22.57.5.73.88h.1c.19-.37.47-.66.84-.88.37-.22.8-.32 1.26-.32.7 0 1.23.19 1.6.58.39.38.57.94.57 1.65V18h-1.09v-4.48c0-.5-.12-.88-.36-1.12-.24-.25-.6-.38-1.08-.38-.3 0-.58.07-.82.21a1.5 1.5 0 0 0-.57.58c-.13.24-.2.5-.2.8V18h-1.09v-4.65c0-.4-.13-.73-.39-.97s-.6-.36-1.04-.36c-.29 0-.56.08-.8.23-.24.16-.43.37-.57.63-.14.27-.21.56-.21.88V18h-1.1v-6.84h1.05z"/></g><g transform="translate(1 182)"><rect width="300" height="30" fill="#FFFFFF"/><path fill="#0C0C0D" d="M18.18 10.44v3.8h.1c.18-.39.44-.68.8-.9.36-.2.8-.3 1.31-.3.49 0 .9.1 1.26.3.35.2.62.48.82.86a3 3 0 0 1 .28 1.37V20h-1.09v-4.16c0-.6-.13-1.06-.4-1.37-.26-.3-.66-.45-1.18-.45-.4 0-.74.08-1.03.24-.28.16-.5.38-.64.67-.15.3-.23.64-.23 1.02V20H17.1v-9.56h1.1zm8.12 2.72h1.52v.91H26.3v3.87c0 .4.08.7.24.88.16.18.42.27.77.27.16 0 .33 0 .5-.02v.92c-.23.04-.45.06-.63.06-.48 0-.86-.06-1.14-.18-.3-.13-.5-.32-.64-.59-.13-.26-.2-.62-.2-1.06v-4.15h-1.1v-.91h1.1v-1.77h1.1v1.77zm4.72 0h1.52v.91h-1.52v3.87c0 .4.08.7.24.88.16.18.42.27.77.27.16 0 .33 0 .51-.02v.92c-.24.04-.45.06-.64.06-.47 0-.85-.06-1.14-.18-.29-.13-.5-.32-.63-.59-.14-.26-.2-.62-.2-1.06v-4.15h-1.1v-.91h1.1v-1.77h1.09v1.77zm8.02.31c.43.3.77.7 1 1.24.24.53.36 1.16.36 1.87 0 .7-.12 1.33-.36 1.86a2.65 2.65 0 0 1-2.52 1.68c-.48 0-.91-.1-1.29-.3-.38-.2-.66-.48-.84-.85h-.1v3.32h-1.1v-9.13h1.04v1.14h.1a2.5 2.5 0 0 1 2.19-1.26c.58 0 1.09.14 1.52.43zm-.7 5.36c.3-.2.53-.5.7-.88.15-.39.23-.84.23-1.37 0-.53-.08-.99-.24-1.37a1.9 1.9 0 0 0-.69-.88c-.3-.2-.65-.3-1.07-.3a1.85 1.85 0 0 0-1.77 1.19c-.17.39-.25.84-.25 1.36 0 .51.08.97.25 1.35a1.83 1.83 0 0 0 1.76 1.2c.42 0 .78-.1 1.08-.3zm3.95-4.82c.22-.3.53-.54.92-.71.39-.18.82-.26 1.3-.26.47 0 .9.07 1.27.22s.67.36.9.64c.22.27.36.6.4.97h-1.07a1.1 1.1 0 0 0-.5-.66c-.27-.17-.6-.25-1-.25a2 2 0 0 0-.75.13c-.22.09-.39.21-.52.37a.81.81 0 0 0-.19.53c0 .23.1.42.3.58.19.15.48.28.9.37l1.04.26c.66.15 1.14.38 1.45.68.31.3.47.68.47 1.17 0 .4-.12.76-.36 1.07-.24.32-.57.56-.99.74-.41.17-.88.26-1.4.26-.5 0-.95-.08-1.34-.23-.4-.15-.7-.37-.94-.65a1.78 1.78 0 0 1-.4-.99h1.12c.09.3.27.53.55.7a2 2 0 0 0 1.05.25c.3 0 .58-.05.82-.14.24-.09.42-.21.56-.37.13-.16.2-.35.2-.56 0-.46-.36-.78-1.08-.96l-1.18-.29a3 3 0 0 1-1.42-.67c-.3-.3-.44-.69-.44-1.18 0-.37.1-.71.33-1.02zm7.12 1.06a.82.82 0 1 1 .82-1.43.82.82 0 0 1-.82 1.43zm0 4.88a.82.82 0 1 1 .82-1.43.82.82 0 0 1-.82 1.43zm5.51-9.11h.97l-2.8 11.22h-.96l2.8-11.22zm4.52 0h.97l-2.8 11.22h-.96l2.8-11.22zM67.4 20l-1.53-5.3h-.1L64.24 20h-1.1l-1.92-6.84h1.1l1.35 5.47h.1l1.53-5.47h1.05l1.53 5.47h.1l1.35-5.47h1.1L68.5 20H67.4zm10.06 0l-1.53-5.3h-.1L74.31 20h-1.1l-1.92-6.84h1.1l1.35 5.47h.1l1.53-5.47h1.05l1.53 5.47h.1l1.34-5.47h1.1L78.58 20h-1.12zm10.07 0L86 14.7h-.1L84.38 20h-1.1l-1.92-6.84h1.1l1.35 5.47h.1l1.53-5.47h1.04l1.53 5.47h.1l1.35-5.47h1.1L88.64 20h-1.1zm4.03-.05a.82.82 0 1 1 .82-1.43.82.82 0 0 1-.82 1.43zm4.4-6.8v1.09h.1c.17-.38.4-.68.74-.89.33-.2.72-.31 1.18-.31.45 0 .83.1 1.16.32.32.22.57.5.73.88h.1c.19-.37.47-.66.84-.88.37-.22.8-.32 1.26-.32.7 0 1.23.19 1.61.58.38.38.57.94.57 1.65V20h-1.1v-4.48c0-.5-.12-.88-.36-1.12-.23-.25-.6-.38-1.08-.38-.3 0-.58.07-.82.21a1.5 1.5 0 0 0-.56.58c-.14.24-.2.5-.2.8V20h-1.1v-4.65c0-.4-.13-.73-.39-.97s-.6-.36-1.03-.36c-.3 0-.56.08-.8.23-.25.16-.44.37-.58.63-.14.27-.21.56-.21.88V20h-1.1v-6.84h1.05zm11.41 6.54a2.8 2.8 0 0 1-1.1-1.22 4.34 4.34 0 0 1-.37-1.9c0-.72.12-1.35.38-1.88.25-.54.61-.94 1.09-1.23a3.22 3.22 0 0 1 1.68-.42c.65 0 1.2.14 1.68.42.48.29.84.7 1.1 1.23.25.53.38 1.16.38 1.89s-.13 1.36-.39 1.89a2.8 2.8 0 0 1-1.1 1.22 3.2 3.2 0 0 1-1.67.43 3.2 3.2 0 0 1-1.68-.43zm3.18-1.22c.35-.45.53-1.08.53-1.9 0-.8-.18-1.43-.53-1.88a1.8 1.8 0 0 0-1.5-.67 1.8 1.8 0 0 0-1.5.67 2.99 2.99 0 0 0-.52 1.89c0 .81.17 1.44.52 1.89.35.44.85.67 1.5.67a1.8 1.8 0 0 0 1.5-.67zm6.97-4.3v-.1h-3.94v-.91h5.24v.82l-3.93 5v.1h3.95V20h-5.27v-.8l3.95-5.03zm3.25-2.63a.73.73 0 0 1-.22-.53c0-.22.07-.4.22-.54a.74.74 0 0 1 .54-.23c.2 0 .39.08.54.23.15.14.22.32.22.54 0 .2-.07.38-.22.53a.73.73 0 0 1-.54.23.73.73 0 0 1-.54-.23zm1.08 1.62V20h-1.09v-6.84h1.1zm3.24-2.72V20H124v-9.56h1.1zm3.28 0V20h-1.1v-9.56h1.1zm2.83 9.43c-.35-.17-.62-.4-.82-.71-.2-.3-.3-.67-.3-1.08 0-.6.22-1.08.65-1.43a3.2 3.2 0 0 1 1.84-.6l1.98-.11v-.62c0-.43-.13-.75-.4-.98-.26-.22-.64-.33-1.15-.33-.41 0-.75.07-1.02.22s-.45.36-.52.63h-1.1c.04-.37.18-.69.42-.96.25-.28.56-.49.95-.64a3.6 3.6 0 0 1 1.3-.22c.56 0 1.03.09 1.42.27.39.18.68.44.89.78.2.34.3.75.3 1.23V20h-1.04v-1h-.1c-.22.35-.51.63-.88.83-.36.2-.77.3-1.23.3-.44 0-.84-.1-1.19-.26zm2.4-.93c.3-.15.53-.36.7-.62.16-.26.25-.55.25-.87v-.63l-1.84.12c-.52.03-.9.14-1.14.32a.93.93 0 0 0-.36.8c0 .34.13.61.39.8.26.2.59.3 1 .3.36 0 .7-.07 1-.22zm8.9-5.47c.44.3.77.7 1.01 1.24.24.53.36 1.16.36 1.87 0 .7-.12 1.33-.36 1.86a2.65 2.65 0 0 1-2.52 1.68c-.48 0-.92-.1-1.3-.3-.37-.2-.65-.48-.84-.85h-.1v3.32h-1.1v-9.13h1.05v1.14h.1a2.5 2.5 0 0 1 2.19-1.26c.58 0 1.08.14 1.52.43zm-.7 5.36c.31-.2.54-.5.7-.88.16-.39.24-.84.24-1.37 0-.53-.08-.99-.24-1.37a1.9 1.9 0 0 0-.69-.88c-.3-.2-.66-.3-1.07-.3a1.85 1.85 0 0 0-1.77 1.19c-.17.39-.25.84-.25 1.36 0 .51.08.97.25 1.35a1.83 1.83 0 0 0 1.76 1.2c.42 0 .77-.1 1.08-.3zm4.82-5.67v1.01h.1c.07-.22.2-.41.38-.58.19-.18.41-.31.67-.4.27-.1.55-.15.85-.15.2 0 .4 0 .55.03v1.09a4.3 4.3 0 0 0-.7-.06c-.34 0-.65.07-.92.2a1.6 1.6 0 0 0-.88 1.46V20h-1.09v-6.84h1.04zm4.85 6.53a2.8 2.8 0 0 1-1.09-1.22 4.34 4.34 0 0 1-.38-1.9c0-.72.13-1.35.38-1.88.25-.54.62-.94 1.1-1.23a3.22 3.22 0 0 1 1.67-.42c.65 0 1.21.14 1.69.42.47.29.83.7 1.09 1.23.25.53.38 1.16.38 1.89s-.13 1.36-.38 1.89a2.8 2.8 0 0 1-1.1 1.22 3.2 3.2 0 0 1-1.68.43 3.2 3.2 0 0 1-1.68-.43zm3.18-1.22c.35-.45.53-1.08.53-1.9 0-.8-.18-1.43-.53-1.88a1.8 1.8 0 0 0-1.5-.67 1.8 1.8 0 0 0-1.5.67 2.99 2.99 0 0 0-.52 1.89c0 .81.17 1.44.53 1.89.35.44.85.67 1.5.67a1.8 1.8 0 0 0 1.5-.67zm3.4-6.93a.73.73 0 0 1-.22-.53c0-.22.08-.4.23-.54a.74.74 0 0 1 .53-.23c.22 0 .4.08.54.23.15.14.23.32.23.54 0 .2-.08.38-.23.53a.73.73 0 0 1-.54.23.73.73 0 0 1-.53-.23zm.58 10.33c-.34.32-.87.48-1.59.48h-.19v-.93h.17c.38 0 .65-.08.8-.25.15-.16.23-.43.23-.81v-7.2h1.09v7.18c0 .7-.17 1.21-.5 1.53zm7.21-2.25c-.5.33-1.13.5-1.88.5a2.8 2.8 0 0 1-2.71-1.66 4.38 4.38 0 0 1-.37-1.88c0-.7.12-1.33.38-1.86a2.86 2.86 0 0 1 2.7-1.68c.61 0 1.14.14 1.59.41.44.28.79.68 1.03 1.2.24.51.35 1.12.35 1.83v.42h-4.91v.05c.01.45.1.84.27 1.17.17.33.4.59.69.77.29.18.62.27 1 .27.45 0 .82-.08 1.11-.24.3-.16.52-.39.66-.7h1.1c-.17.6-.5 1.06-1.01 1.4zm-2.85-5.37c-.29.17-.51.4-.68.7-.17.3-.27.66-.3 1.06h3.78c-.01-.4-.1-.75-.25-1.05a1.73 1.73 0 0 0-1.59-.96c-.36 0-.68.09-.96.25zm9.62.12c-.31-.23-.7-.35-1.17-.35a1.83 1.83 0 0 0-1.76 1.2c-.16.37-.24.82-.24 1.33 0 .52.08.98.24 1.37.17.39.4.69.7.9.3.21.66.32 1.06.32.46 0 .85-.1 1.15-.31.31-.21.51-.5.62-.9h1.1a2.47 2.47 0 0 1-1.45 1.9c-.4.2-.88.3-1.41.3a2.87 2.87 0 0 1-2.76-1.68 4.34 4.34 0 0 1-.38-1.9c0-.7.12-1.32.38-1.85s.62-.94 1.1-1.23a3.11 3.11 0 0 1 1.65-.43c.54 0 1.01.1 1.42.3a2.51 2.51 0 0 1 1.45 1.92h-1.1c-.1-.37-.3-.66-.6-.9zm4.99-1.21h1.52v.91h-1.52v3.87c0 .4.08.7.24.88.16.18.42.27.77.27.16 0 .33 0 .51-.02v.92c-.24.04-.45.06-.64.06-.47 0-.85-.06-1.14-.18-.29-.13-.5-.32-.63-.59-.14-.26-.2-.62-.2-1.06v-4.15h-1.1v-.91h1.1v-1.77h1.09v1.77zm3.22.85c.22-.3.53-.54.92-.71.39-.18.82-.26 1.3-.26.47 0 .9.07 1.27.22s.67.36.9.64c.22.27.36.6.4.97h-1.07a1.1 1.1 0 0 0-.5-.66c-.27-.17-.6-.25-1-.25a2 2 0 0 0-.74.13c-.22.09-.4.21-.52.37a.81.81 0 0 0-.2.53c0 .23.1.42.3.58.19.15.49.28.9.37l1.05.26c.65.15 1.13.38 1.44.68.31.3.47.68.47 1.17 0 .4-.12.76-.36 1.07-.24.32-.57.56-.99.74-.41.17-.88.26-1.4.26-.5 0-.95-.08-1.34-.23-.39-.15-.7-.37-.94-.65a1.78 1.78 0 0 1-.4-.99h1.12c.09.3.27.53.55.7a2 2 0 0 0 1.05.25c.3 0 .58-.05.82-.14.24-.09.42-.21.56-.37.14-.16.2-.35.2-.56 0-.46-.36-.78-1.08-.96l-1.18-.29a3 3 0 0 1-1.42-.67c-.3-.3-.44-.69-.44-1.18 0-.37.1-.71.33-1.02zm7.12 5.94a.82.82 0 1 1 .82-1.43.82.82 0 0 1-.82 1.43zm7.07-5.58c-.3-.23-.7-.35-1.16-.35a1.83 1.83 0 0 0-1.76 1.2c-.17.37-.25.82-.25 1.33 0 .52.09.98.25 1.37.17.39.4.69.7.9.3.21.66.32 1.06.32.46 0 .84-.1 1.15-.31.3-.21.51-.5.61-.9h1.1c-.06.43-.22.8-.46 1.14-.25.33-.57.59-.98.77-.41.19-.88.28-1.42.28a2.87 2.87 0 0 1-2.76-1.68 4.34 4.34 0 0 1-.38-1.89c0-.7.13-1.32.39-1.85.25-.53.62-.94 1.1-1.23a3.11 3.11 0 0 1 1.65-.43c.54 0 1.01.1 1.42.3a2.51 2.51 0 0 1 1.45 1.92h-1.1c-.1-.37-.3-.66-.6-.9zm4.45 5.32a2.8 2.8 0 0 1-1.1-1.22 4.34 4.34 0 0 1-.37-1.9c0-.72.12-1.35.38-1.88.25-.54.62-.94 1.09-1.23a3.22 3.22 0 0 1 1.68-.42c.65 0 1.21.14 1.68.42.48.29.84.7 1.1 1.23.25.53.38 1.16.38 1.89s-.13 1.36-.38 1.89a2.8 2.8 0 0 1-1.1 1.22 3.2 3.2 0 0 1-1.68.43 3.2 3.2 0 0 1-1.68-.43zm3.18-1.22c.35-.45.53-1.08.53-1.9 0-.8-.18-1.43-.53-1.88a1.8 1.8 0 0 0-1.5-.67 1.8 1.8 0 0 0-1.5.67 2.99 2.99 0 0 0-.52 1.89c0 .81.17 1.44.52 1.89.36.44.85.67 1.5.67a1.8 1.8 0 0 0 1.5-.67zm4.41-5.31v1.08h.1c.16-.38.4-.68.73-.89.33-.2.73-.31 1.18-.31.45 0 .84.1 1.16.32.33.22.57.5.74.88h.1c.18-.37.46-.66.84-.88.37-.22.79-.32 1.25-.32.7 0 1.24.19 1.61.58.38.38.57.94.57 1.65V20h-1.1v-4.48c0-.5-.11-.88-.35-1.12-.24-.25-.6-.38-1.08-.38-.31 0-.59.07-.83.21a1.5 1.5 0 0 0-.56.58c-.13.24-.2.5-.2.8V20h-1.1v-4.65c0-.4-.12-.73-.38-.97s-.6-.36-1.04-.36c-.3 0-.56.08-.8.23-.25.16-.44.37-.58.63-.14.27-.2.56-.2.88V20H206v-6.84h1.04z"/></g><g transform="translate(1 217)"><rect width="300" height="30" fill="#FFFFFF"/><path fill="#0C0C0D" d="M18.18 10.44v3.8h.1c.18-.39.44-.68.8-.9.36-.2.8-.3 1.31-.3.49 0 .9.1 1.26.3.35.2.62.48.82.86a3 3 0 0 1 .28 1.37V20h-1.09v-4.16c0-.6-.13-1.06-.4-1.37-.26-.3-.66-.45-1.18-.45-.4 0-.74.08-1.03.24-.28.16-.5.38-.64.67-.15.3-.23.64-.23 1.02V20H17.1v-9.56h1.1zm8.12 2.72h1.52v.91H26.3v3.87c0 .4.08.7.24.88.16.18.42.27.77.27.16 0 .33 0 .5-.02v.92c-.23.04-.45.06-.63.06-.48 0-.86-.06-1.14-.18-.3-.13-.5-.32-.64-.59-.13-.26-.2-.62-.2-1.06v-4.15h-1.1v-.91h1.1v-1.77h1.1v1.77zm4.72 0h1.52v.91h-1.52v3.87c0 .4.08.7.24.88.16.18.42.27.77.27.16 0 .33 0 .51-.02v.92c-.24.04-.45.06-.64.06-.47 0-.85-.06-1.14-.18-.29-.13-.5-.32-.63-.59-.14-.26-.2-.62-.2-1.06v-4.15h-1.1v-.91h1.1v-1.77h1.09v1.77zm8.02.31c.43.3.77.7 1 1.24.24.53.36 1.16.36 1.87 0 .7-.12 1.33-.36 1.86a2.65 2.65 0 0 1-2.52 1.68c-.48 0-.91-.1-1.29-.3-.38-.2-.66-.48-.84-.85h-.1v3.32h-1.1v-9.13h1.04v1.14h.1a2.5 2.5 0 0 1 2.19-1.26c.58 0 1.09.14 1.52.43zm-.7 5.36c.3-.2.53-.5.7-.88.15-.39.23-.84.23-1.37 0-.53-.08-.99-.24-1.37a1.9 1.9 0 0 0-.69-.88c-.3-.2-.65-.3-1.07-.3a1.85 1.85 0 0 0-1.77 1.19c-.17.39-.25.84-.25 1.36 0 .51.08.97.25 1.35a1.83 1.83 0 0 0 1.76 1.2c.42 0 .78-.1 1.08-.3zm3.95-4.82c.22-.3.53-.54.92-.71.39-.18.82-.26 1.3-.26.47 0 .9.07 1.27.22s.67.36.9.64c.22.27.36.6.4.97h-1.07a1.1 1.1 0 0 0-.5-.66c-.27-.17-.6-.25-1-.25a2 2 0 0 0-.75.13c-.22.09-.39.21-.52.37a.81.81 0 0 0-.19.53c0 .23.1.42.3.58.19.15.48.28.9.37l1.04.26c.66.15 1.14.38 1.45.68.31.3.47.68.47 1.17 0 .4-.12.76-.36 1.07-.24.32-.57.56-.99.74-.41.17-.88.26-1.4.26-.5 0-.95-.08-1.34-.23-.4-.15-.7-.37-.94-.65a1.78 1.78 0 0 1-.4-.99h1.12c.09.3.27.53.55.7a2 2 0 0 0 1.05.25c.3 0 .58-.05.82-.14.24-.09.42-.21.56-.37.13-.16.2-.35.2-.56 0-.46-.36-.78-1.08-.96l-1.18-.29a3 3 0 0 1-1.42-.67c-.3-.3-.44-.69-.44-1.18 0-.37.1-.71.33-1.02zm7.12 1.06a.82.82 0 1 1 .82-1.43.82.82 0 0 1-.82 1.43zm0 4.88a.82.82 0 1 1 .82-1.43.82.82 0 0 1-.82 1.43zm5.51-9.11h.97l-2.8 11.22h-.96l2.8-11.22zm4.52 0h.97l-2.8 11.22h-.96l2.8-11.22zM67.4 20l-1.53-5.3h-.1L64.24 20h-1.1l-1.92-6.84h1.1l1.35 5.47h.1l1.53-5.47h1.05l1.53 5.47h.1l1.35-5.47h1.1L68.5 20H67.4zm10.06 0l-1.53-5.3h-.1L74.31 20h-1.1l-1.92-6.84h1.1l1.35 5.47h.1l1.53-5.47h1.05l1.53 5.47h.1l1.34-5.47h1.1L78.58 20h-1.12zm10.07 0L86 14.7h-.1L84.38 20h-1.1l-1.92-6.84h1.1l1.35 5.47h.1l1.53-5.47h1.04l1.53 5.47h.1l1.35-5.47h1.1L88.64 20h-1.1zm4.03-.05a.82.82 0 1 1 .82-1.43.82.82 0 0 1-.82 1.43zm4.4-6.8v1.09h.1c.17-.38.4-.68.74-.89.33-.2.72-.31 1.18-.31.45 0 .83.1 1.16.32.32.22.57.5.73.88h.1c.19-.37.47-.66.84-.88.37-.22.8-.32 1.26-.32.7 0 1.23.19 1.61.58.38.38.57.94.57 1.65V20h-1.1v-4.48c0-.5-.12-.88-.36-1.12-.23-.25-.6-.38-1.08-.38-.3 0-.58.07-.82.21a1.5 1.5 0 0 0-.56.58c-.14.24-.2.5-.2.8V20h-1.1v-4.65c0-.4-.13-.73-.39-.97s-.6-.36-1.03-.36c-.3 0-.56.08-.8.23-.25.16-.44.37-.58.63-.14.27-.21.56-.21.88V20h-1.1v-6.84h1.05zm11.41 6.54a2.8 2.8 0 0 1-1.1-1.22 4.34 4.34 0 0 1-.37-1.9c0-.72.12-1.35.38-1.88.25-.54.61-.94 1.09-1.23a3.22 3.22 0 0 1 1.68-.42c.65 0 1.2.14 1.68.42.48.29.84.7 1.1 1.23.25.53.38 1.16.38 1.89s-.13 1.36-.39 1.89a2.8 2.8 0 0 1-1.1 1.22 3.2 3.2 0 0 1-1.67.43 3.2 3.2 0 0 1-1.68-.43zm3.18-1.22c.35-.45.53-1.08.53-1.9 0-.8-.18-1.43-.53-1.88a1.8 1.8 0 0 0-1.5-.67 1.8 1.8 0 0 0-1.5.67 2.99 2.99 0 0 0-.52 1.89c0 .81.17 1.44.52 1.89.35.44.85.67 1.5.67a1.8 1.8 0 0 0 1.5-.67zm6.97-4.3v-.1h-3.94v-.91h5.24v.82l-3.93 5v.1h3.95V20h-5.27v-.8l3.95-5.03zm3.25-2.63a.73.73 0 0 1-.22-.53c0-.22.07-.4.22-.54a.74.74 0 0 1 .54-.23c.2 0 .39.08.54.23.15.14.22.32.22.54 0 .2-.07.38-.22.53a.73.73 0 0 1-.54.23.73.73 0 0 1-.54-.23zm1.08 1.62V20h-1.09v-6.84h1.1zm3.24-2.72V20H124v-9.56h1.1zm3.28 0V20h-1.1v-9.56h1.1zm2.83 9.43c-.35-.17-.62-.4-.82-.71-.2-.3-.3-.67-.3-1.08 0-.6.22-1.08.65-1.43a3.2 3.2 0 0 1 1.84-.6l1.98-.11v-.62c0-.43-.13-.75-.4-.98-.26-.22-.64-.33-1.15-.33-.41 0-.75.07-1.02.22s-.45.36-.52.63h-1.1c.04-.37.18-.69.42-.96.25-.28.56-.49.95-.64a3.6 3.6 0 0 1 1.3-.22c.56 0 1.03.09 1.42.27.39.18.68.44.89.78.2.34.3.75.3 1.23V20h-1.04v-1h-.1c-.22.35-.51.63-.88.83-.36.2-.77.3-1.23.3-.44 0-.84-.1-1.19-.26zm2.4-.93c.3-.15.53-.36.7-.62.16-.26.25-.55.25-.87v-.63l-1.84.12c-.52.03-.9.14-1.14.32a.93.93 0 0 0-.36.8c0 .34.13.61.39.8.26.2.59.3 1 .3.36 0 .7-.07 1-.22zm3.38-4.87v-.91h1.14v-.67c0-.68.17-1.19.51-1.5.35-.33.86-.49 1.54-.49.2 0 .42.03.67.07v.91a2.87 2.87 0 0 0-.61-.06c-.68 0-1.02.37-1.02 1.1v.64h1.57v.91h-1.57V20h-1.1v-5.93h-1.13zm5.42-2.53a.73.73 0 0 1-.23-.53c0-.22.08-.4.23-.54a.74.74 0 0 1 .53-.23c.22 0 .4.08.54.23.15.14.23.32.23.54 0 .2-.08.38-.23.53a.73.73 0 0 1-.54.23.73.73 0 0 1-.53-.23zm1.08 1.62V20h-1.1v-6.84h1.1zm3.12 0v1.01h.1c.07-.22.2-.41.38-.58.19-.18.41-.31.68-.4.26-.1.54-.15.84-.15.21 0 .4 0 .55.03v1.09a4.3 4.3 0 0 0-.7-.06c-.34 0-.65.07-.92.2a1.6 1.6 0 0 0-.88 1.46V20h-1.09v-6.84h1.04zm8.34 6.46c-.5.33-1.13.5-1.88.5a2.8 2.8 0 0 1-2.71-1.66 4.38 4.38 0 0 1-.37-1.88c0-.7.13-1.33.38-1.86a2.86 2.86 0 0 1 2.7-1.68c.61 0 1.14.14 1.59.41.45.28.79.68 1.03 1.2.24.51.36 1.12.36 1.83v.42h-4.92v.05c.01.45.1.84.27 1.17.17.33.4.59.69.77.29.18.63.27 1.01.27.44 0 .8-.08 1.1-.24.3-.16.52-.39.66-.7h1.1c-.17.6-.5 1.06-1 1.4zm-2.85-5.37c-.29.17-.51.4-.68.7-.17.3-.27.66-.3 1.06h3.78c-.01-.4-.1-.75-.25-1.05a1.73 1.73 0 0 0-1.59-.96c-.36 0-.68.09-.96.25zm4.98-.18v-.91h1.14v-.67c0-.68.17-1.19.51-1.5.35-.33.86-.49 1.54-.49.2 0 .42.03.67.07v.91a2.87 2.87 0 0 0-.61-.06c-.68 0-1.02.37-1.02 1.1v.64h1.57v.91h-1.57V20h-1.1v-5.93h-1.13zm6.23 5.62a2.8 2.8 0 0 1-1.1-1.22 4.34 4.34 0 0 1-.38-1.9c0-.72.13-1.35.39-1.88.25-.54.61-.94 1.09-1.23a3.22 3.22 0 0 1 1.68-.42c.65 0 1.2.14 1.68.42.48.29.84.7 1.1 1.23.25.53.37 1.16.37 1.89s-.12 1.36-.38 1.89a2.8 2.8 0 0 1-1.1 1.22 3.2 3.2 0 0 1-1.67.43 3.2 3.2 0 0 1-1.68-.43zm3.18-1.22c.35-.45.52-1.08.52-1.9 0-.8-.17-1.43-.52-1.88a1.8 1.8 0 0 0-1.5-.67 1.8 1.8 0 0 0-1.5.67 2.99 2.99 0 0 0-.53 1.89c0 .81.18 1.44.53 1.89.35.44.85.67 1.5.67a1.8 1.8 0 0 0 1.5-.67zm3.75 1.53h-1.24l2.34-3.42-2.36-3.42h1.3l1.62 2.54h.1l1.61-2.54h1.24l-2.33 3.37 2.36 3.47h-1.3l-1.61-2.58h-.1L170.22 20zm6.62-.05a.82.82 0 1 1 .82-1.43.82.82 0 0 1-.82 1.43zm8.22-6.48c.43.3.77.7 1 1.24.24.53.36 1.16.36 1.87 0 .7-.12 1.33-.36 1.86a2.65 2.65 0 0 1-2.52 1.68c-.48 0-.92-.1-1.3-.3-.37-.2-.65-.48-.84-.85h-.1v3.32h-1.09v-9.13h1.04v1.14h.1a2.5 2.5 0 0 1 2.19-1.26c.58 0 1.08.14 1.52.43zm-.7 5.36c.3-.2.53-.5.69-.88.16-.39.24-.84.24-1.37 0-.53-.08-.99-.24-1.37a1.9 1.9 0 0 0-.69-.88c-.3-.2-.66-.3-1.07-.3a1.85 1.85 0 0 0-1.77 1.19c-.17.39-.25.84-.25 1.36 0 .51.08.97.25 1.35a1.83 1.83 0 0 0 1.76 1.2c.42 0 .78-.1 1.08-.3zm4.93-8.39v3.8h.1c.17-.39.44-.68.8-.9.35-.2.79-.3 1.3-.3.49 0 .9.1 1.26.3.35.2.63.48.82.86a3 3 0 0 1 .29 1.37V20h-1.1v-4.16c0-.6-.13-1.06-.4-1.37-.26-.3-.65-.45-1.17-.45-.4 0-.75.08-1.03.24-.29.16-.5.38-.65.67-.15.3-.22.64-.22 1.02V20h-1.1v-9.56h1.1zm7.7 9.25a2.8 2.8 0 0 1-1.1-1.22 4.34 4.34 0 0 1-.38-1.9c0-.72.13-1.35.38-1.88.25-.54.62-.94 1.1-1.23a3.22 3.22 0 0 1 1.67-.42c.65 0 1.21.14 1.68.42.48.29.84.7 1.1 1.23.25.53.38 1.16.38 1.89s-.13 1.36-.38 1.89a2.8 2.8 0 0 1-1.1 1.22 3.2 3.2 0 0 1-1.68.43 3.2 3.2 0 0 1-1.68-.43zm3.17-1.22c.35-.45.53-1.08.53-1.9 0-.8-.18-1.43-.53-1.88a1.8 1.8 0 0 0-1.5-.67 1.8 1.8 0 0 0-1.5.67 2.99 2.99 0 0 0-.52 1.89c0 .81.17 1.44.52 1.89.36.44.86.67 1.5.67a1.8 1.8 0 0 0 1.5-.67zm4.92-5.31h1.52v.91h-1.52v3.87c0 .4.08.7.24.88.16.18.42.27.78.27.15 0 .32 0 .5-.02v.92c-.24.04-.45.06-.64.06-.47 0-.85-.06-1.14-.18-.29-.13-.5-.32-.63-.59-.13-.26-.2-.62-.2-1.06v-4.15h-1.1v-.91h1.1v-1.77h1.09v1.77zm4.21 6.53a2.8 2.8 0 0 1-1.1-1.22 4.34 4.34 0 0 1-.37-1.9c0-.72.12-1.35.38-1.88.25-.54.61-.94 1.09-1.23a3.22 3.22 0 0 1 1.68-.42c.65 0 1.2.14 1.68.42.48.29.84.7 1.1 1.23.25.53.38 1.16.38 1.89s-.13 1.36-.39 1.89a2.8 2.8 0 0 1-1.09 1.22 3.2 3.2 0 0 1-1.68.43 3.2 3.2 0 0 1-1.68-.43zm3.18-1.22c.35-.45.53-1.08.53-1.9 0-.8-.18-1.43-.53-1.88a1.8 1.8 0 0 0-1.5-.67 1.8 1.8 0 0 0-1.5.67 2.99 2.99 0 0 0-.52 1.89c0 .81.17 1.44.52 1.89.35.44.85.67 1.5.67a1.8 1.8 0 0 0 1.5-.67zm4.41-5.31v1.08h.1c.18-.4.44-.69.78-.9.34-.2.77-.3 1.28-.3.76 0 1.36.22 1.77.65.41.44.62 1.07.62 1.88V20h-1.09v-4.16c0-.62-.13-1.07-.4-1.37-.26-.3-.67-.45-1.21-.45-.37 0-.68.08-.95.23-.27.16-.48.38-.63.67-.14.3-.22.64-.22 1.03V20h-1.09v-6.84h1.04zm7.03 6.8a.82.82 0 1 1 .83-1.44.82.82 0 0 1-.83 1.43zm7.08-5.6c-.3-.22-.7-.34-1.17-.34a1.83 1.83 0 0 0-1.76 1.2c-.16.37-.24.82-.24 1.33 0 .52.08.98.25 1.37.16.39.4.69.7.9.3.21.65.32 1.05.32.46 0 .85-.1 1.16-.31.3-.21.5-.5.6-.9h1.11a2.47 2.47 0 0 1-1.45 1.9c-.4.2-.88.3-1.41.3a2.87 2.87 0 0 1-2.76-1.68 4.34 4.34 0 0 1-.38-1.9c0-.7.13-1.32.38-1.85.26-.53.62-.94 1.1-1.23a3.11 3.11 0 0 1 1.65-.43c.54 0 1.01.1 1.43.3a2.51 2.51 0 0 1 1.45 1.92h-1.11c-.1-.37-.3-.66-.6-.9zm4.45 5.33a2.8 2.8 0 0 1-1.1-1.22 4.34 4.34 0 0 1-.38-1.9c0-.72.13-1.35.38-1.88.26-.54.62-.94 1.1-1.23a3.22 3.22 0 0 1 1.68-.42c.64 0 1.2.14 1.68.42.47.29.84.7 1.1 1.23.24.53.37 1.16.37 1.89s-.13 1.36-.38 1.89a2.8 2.8 0 0 1-1.1 1.22 3.2 3.2 0 0 1-1.67.43 3.2 3.2 0 0 1-1.68-.43zm3.18-1.22c.35-.45.52-1.08.52-1.9 0-.8-.17-1.43-.53-1.88a1.8 1.8 0 0 0-1.5-.67 1.8 1.8 0 0 0-1.5.67 2.99 2.99 0 0 0-.52 1.89c0 .81.18 1.44.53 1.89.35.44.85.67 1.5.67a1.8 1.8 0 0 0 1.5-.67zm4.4-5.31v1.08h.1c.16-.38.4-.68.74-.89.33-.2.72-.31 1.18-.31.45 0 .83.1 1.16.32.32.22.57.5.73.88h.1c.19-.37.47-.66.84-.88.37-.22.8-.32 1.26-.32.7 0 1.23.19 1.6.58.39.38.57.94.57 1.65V20h-1.09v-4.48c0-.5-.12-.88-.36-1.12-.24-.25-.6-.38-1.08-.38-.3 0-.58.07-.82.21a1.5 1.5 0 0 0-.57.58c-.13.24-.2.5-.2.8V20h-1.09v-4.65c0-.4-.13-.73-.39-.97s-.6-.36-1.04-.36c-.29 0-.56.08-.8.23-.24.16-.43.37-.57.63-.14.27-.21.56-.21.88V20h-1.1v-6.84h1.05z"/></g><g transform="translate(.618)"><g transform="translate(.382)"><use fill="#FFFFFF" xlink:href="#c"/><rect width="301" height="33" x="-.5" y="-.5" stroke="#0A84FF" rx="2"/></g><path fill="#0C0C0D" d="M15.62 20l-1.76-6.1h-.12L11.98 20h-1.27L8.5 12.1h1.27l1.56 6.32h.11l1.77-6.32h1.2l1.77 6.32h.12l1.55-6.32h1.27L16.9 20h-1.29zm11.62 0l-1.76-6.1h-.12L23.6 20h-1.27l-2.22-7.9h1.28l1.55 6.32h.12l1.76-6.32h1.21l1.77 6.32h.11l1.56-6.32h1.26l-2.2 7.9h-1.29zm11.62 0l-1.77-6.1h-.12L35.22 20h-1.28l-2.21-7.9H33l1.56 6.32h.11l1.77-6.32h1.2l1.77 6.32h.12l1.55-6.32h1.27L40.14 20h-1.28zm4.64-.05a.95.95 0 1 1 .95-1.65.95.95 0 0 1-.95 1.65zm5.1-7.85v1.25h.1c.19-.44.47-.78.85-1.02s.84-.36 1.36-.36c.52 0 .97.12 1.34.37.37.25.65.58.85 1.01h.11c.22-.43.54-.76.97-1.01.43-.25.91-.37 1.45-.37.8 0 1.43.22 1.86.67.43.44.65 1.08.65 1.9V20h-1.26v-5.16c0-.58-.14-1.02-.41-1.3-.28-.3-.7-.44-1.25-.44-.36 0-.67.08-.95.25-.28.16-.5.38-.65.66-.15.28-.23.58-.23.91V20h-1.26v-5.36c0-.47-.15-.84-.45-1.12a1.7 1.7 0 0 0-1.2-.42c-.34 0-.65.09-.93.27-.28.18-.5.42-.66.73-.16.3-.24.64-.24 1V20h-1.26v-7.9h1.2zm13.15 7.54c-.55-.32-.97-.8-1.26-1.4a5 5 0 0 1-.44-2.19c0-.84.14-1.57.44-2.18a3.2 3.2 0 0 1 1.26-1.41c.54-.33 1.19-.5 1.94-.5.74 0 1.39.17 1.94.5.54.32.96.8 1.26 1.41.29.61.44 1.34.44 2.18a5 5 0 0 1-.44 2.18c-.3.61-.72 1.09-1.27 1.41-.55.33-1.2.5-1.93.5a3.7 3.7 0 0 1-1.94-.5zm3.66-1.4c.41-.52.61-1.25.61-2.19s-.2-1.66-.6-2.18c-.41-.51-.99-.77-1.73-.77-.75 0-1.33.26-1.73.77-.4.52-.61 1.24-.61 2.18 0 .94.2 1.67.6 2.18.41.52.99.77 1.74.77.74 0 1.32-.25 1.72-.77z"/><text fill="#000000" font-family="SegoeUI, Segoe UI" font-size="15"><tspan x="66" y="18">|</tspan></text></g></g><path fill="#0C0C0D" d="M7.34 11.83H2.3V16H1.17V6.84H2.3v3.96h5.03V6.84h1.14V16H7.34v-4.17zm4.47 3.86a2.8 2.8 0 0 1-1.1-1.22 4.34 4.34 0 0 1-.38-1.9c0-.72.13-1.35.38-1.88.26-.54.62-.94 1.1-1.23a3.22 3.22 0 0 1 1.68-.42c.65 0 1.2.14 1.68.42.47.29.84.7 1.1 1.23.25.53.37 1.16.37 1.89s-.12 1.36-.38 1.89a2.8 2.8 0 0 1-1.1 1.22 3.2 3.2 0 0 1-1.67.43 3.2 3.2 0 0 1-1.68-.43zm3.18-1.22c.35-.45.52-1.08.52-1.9 0-.8-.17-1.43-.52-1.88a1.8 1.8 0 0 0-1.5-.67 1.8 1.8 0 0 0-1.5.67 2.99 2.99 0 0 0-.53 1.89c0 .81.18 1.44.53 1.89.35.44.85.67 1.5.67a1.8 1.8 0 0 0 1.5-.67zm4.4-5.31v1.08h.11c.16-.38.4-.68.73-.89.33-.2.72-.31 1.18-.31.45 0 .84.1 1.16.32.32.22.57.5.73.88h.1c.19-.37.47-.66.84-.88.37-.22.8-.32 1.26-.32.7 0 1.23.19 1.61.58.38.38.57.94.57 1.65V16h-1.1v-4.48c0-.5-.12-.88-.35-1.12-.24-.25-.6-.38-1.09-.38-.3 0-.58.07-.82.21a1.5 1.5 0 0 0-.56.58c-.14.24-.2.5-.2.8V16h-1.1v-4.65c0-.4-.13-.73-.39-.97s-.6-.36-1.03-.36c-.3 0-.56.08-.8.23-.25.16-.44.37-.58.63-.14.27-.21.56-.21.88V16h-1.1V9.16h1.05zm14.9 6.46c-.5.33-1.13.5-1.88.5a2.8 2.8 0 0 1-2.71-1.66 4.38 4.38 0 0 1-.37-1.88c0-.7.12-1.33.37-1.86a2.86 2.86 0 0 1 2.71-1.68 2.69 2.69 0 0 1 2.61 1.6c.24.52.36 1.13.36 1.84v.42h-4.92v.05c.02.45.11.84.28 1.17.17.33.4.59.68.77.3.18.63.27 1.02.27.44 0 .8-.08 1.1-.24.3-.16.52-.39.66-.7h1.1c-.17.6-.5 1.06-1.01 1.4zm-2.86-5.37c-.28.17-.5.4-.68.7-.16.3-.26.66-.29 1.06h3.77c0-.4-.09-.75-.24-1.05a1.73 1.73 0 0 0-1.6-.96c-.35 0-.67.09-.96.25zm14.18-.78c.43.3.77.7 1 1.24.24.53.36 1.16.36 1.87 0 .7-.12 1.33-.35 1.86-.24.54-.58.95-1 1.24-.44.3-.95.44-1.52.44-.49 0-.92-.1-1.3-.3-.37-.2-.66-.48-.84-.85h-.1v3.32h-1.1V9.16h1.05v1.14h.1c.22-.4.52-.7.9-.93a2.5 2.5 0 0 1 1.29-.33c.57 0 1.08.14 1.51.43zm-.7 5.36c.3-.2.54-.5.7-.88.15-.39.23-.84.23-1.37 0-.53-.08-.99-.24-1.37a1.9 1.9 0 0 0-.68-.88c-.3-.2-.66-.3-1.08-.3a1.85 1.85 0 0 0-1.77 1.19c-.16.39-.25.84-.25 1.36 0 .51.09.97.25 1.35a1.83 1.83 0 0 0 1.76 1.2c.42 0 .78-.1 1.08-.3zm4.5 1.04c-.36-.17-.63-.4-.83-.71-.2-.3-.3-.67-.3-1.08 0-.6.22-1.08.65-1.43a3.2 3.2 0 0 1 1.84-.6l1.98-.11v-.62c0-.43-.13-.75-.4-.98-.26-.22-.64-.33-1.15-.33-.41 0-.75.07-1.02.22s-.45.36-.52.63h-1.1c.04-.37.18-.69.42-.96.25-.28.56-.49.95-.64a3.6 3.6 0 0 1 1.3-.22c.56 0 1.03.09 1.42.27.39.18.68.44.89.78.2.34.3.75.3 1.23V16H52.8v-1h-.1c-.22.35-.51.63-.88.83-.36.2-.77.3-1.23.3-.44 0-.83-.1-1.19-.26zm2.38-.93c.3-.15.54-.36.7-.62.17-.26.26-.55.26-.87v-.63l-1.84.12c-.52.03-.9.14-1.14.32a.93.93 0 0 0-.36.8c0 .34.13.61.39.8.26.2.59.3 1 .3.36 0 .7-.07 1-.22zm5.46 3.46a2.4 2.4 0 0 1-1-.66c-.24-.28-.39-.6-.44-.98h1.15a1 1 0 0 0 .54.67c.3.16.7.25 1.18.25.61 0 1.1-.15 1.44-.43.34-.29.51-.68.51-1.19v-1.34h-.1c-.21.37-.5.67-.88.87-.37.2-.8.3-1.26.3-.59 0-1.1-.13-1.53-.42a2.74 2.74 0 0 1-1-1.2 4.33 4.33 0 0 1-.34-1.8c0-.67.11-1.27.35-1.8a2.67 2.67 0 0 1 2.52-1.64c.47 0 .91.12 1.3.33.4.22.7.51.9.88h.1V9.16h1.03v6.96c0 .5-.12.95-.37 1.33-.24.37-.6.66-1.06.87-.46.2-1 .3-1.61.3-.54 0-1.02-.07-1.43-.22zm3.16-7.22c-.16-.37-.4-.66-.7-.86-.3-.2-.67-.3-1.08-.3-.42 0-.78.1-1.08.3-.3.2-.52.49-.67.86-.16.36-.23.8-.23 1.3s.07.93.23 1.3c.15.37.38.65.67.85.3.2.66.3 1.08.3.42 0 .78-.1 1.08-.3.3-.2.54-.48.7-.85.17-.38.25-.8.25-1.3s-.08-.93-.25-1.3zm7.99 4.44c-.5.33-1.13.5-1.88.5a2.8 2.8 0 0 1-2.71-1.66 4.38 4.38 0 0 1-.37-1.88c0-.7.12-1.33.38-1.86a2.86 2.86 0 0 1 2.7-1.68c.61 0 1.14.14 1.59.41.44.28.79.68 1.03 1.2.23.51.35 1.12.35 1.83v.42h-4.92v.05c.02.45.11.84.28 1.17.17.33.4.59.69.77.29.18.62.27 1 .27.45 0 .82-.08 1.11-.24.3-.16.52-.39.66-.7h1.1c-.17.6-.5 1.06-1.01 1.4zm-2.85-5.37c-.29.17-.51.4-.68.7-.17.3-.27.66-.3 1.06h3.78c-.01-.4-.1-.75-.25-1.05a1.73 1.73 0 0 0-1.59-.96c-.36 0-.68.09-.96.25z"/></g></svg>