<svg xmlns="http://www.w3.org/2000/svg" xmlns:xlink="http://www.w3.org/1999/xlink" viewBox="0 0 360 315"><defs><path id="b" d="M1 29h302v210a2 2 0 0 1-2 2H3a2 2 0 0 1-2-2V29z"/><filter id="a" width="108.3%" height="111.8%" x="-4.1%" y="-5.4%" filterUnits="objectBoundingBox"><feOffset dy="1" in="SourceAlpha" result="shadowOffsetOuter1"/><feGaussianBlur in="shadowOffsetOuter1" result="shadowBlurOuter1" stdDeviation="4"/><feComposite in="shadowBlurOuter1" in2="SourceAlpha" operator="out" result="shadowBlurOuter1"/><feColorMatrix in="shadowBlurOuter1" values="0 0 0 0 0.0470588235 0 0 0 0 0.0470588235 0 0 0 0 0.0509803922 0 0 0 0.1 0"/></filter><rect id="c" width="302" height="30" x=".38" rx="2"/></defs><g fill="none" fill-rule="evenodd" transform="translate(28 24)"><g transform="translate(0 22)"><rect width="305" height="33" x="-.5" y="-1.5" stroke="#DFF8FB" stroke-width="3" opacity=".52" rx="2"/><rect width="303" height="31" x=".5" y="-.5" stroke="#B1EDF6" opacity=".52" rx="2"/><use fill="black" filter="url(#a)" xlink:href="#b"/><use fill="#FFFFFF" xlink:href="#b"/><path stroke="#0C0C0D" stroke-opacity=".3" d="M1.5 29.5V239c0 .83.67 1.5 1.5 1.5h298c.83 0 1.5-.67 1.5-1.5V29.5H1.5z"/><g transform="translate(2 29)"><rect width="300" height="30" fill="#0060DF"/><path fill="#FFFFFF" d="M17.1 19h1.08v-4.05c0-1.16.68-1.93 1.9-1.93 1.04 0 1.58.6 1.58 1.82V19h1.1v-4.43c0-1.6-.92-2.53-2.37-2.53-1.04 0-1.76.44-2.1 1.2h-.1v-3.8h-1.1V19zm8.1-8.61v1.77h-1.1v.91h1.1v4.15c0 1.31.57 1.83 1.98 1.83.21 0 .42-.02.64-.06v-.92c-.2.02-.31.02-.5.02-.72 0-1.02-.34-1.02-1.15v-3.87h1.52v-.91H26.3v-1.77h-1.1zm4.73 0v1.77h-1.1v.91h1.1v4.15c0 1.31.56 1.83 1.97 1.83.22 0 .43-.02.64-.06v-.92c-.2.02-.3.02-.5.02-.72 0-1.02-.34-1.02-1.15v-3.87h1.52v-.91h-1.52v-1.77h-1.1zm7.6 1.65c1.74 0 2.87 1.39 2.87 3.54 0 2.14-1.14 3.54-2.88 3.54-.97 0-1.76-.42-2.13-1.15h-.1v3.32h-1.1v-9.13h1.04v1.14h.1a2.47 2.47 0 0 1 2.2-1.26zm-.27 6.1c1.26 0 2.01-.96 2.01-2.56s-.75-2.56-2-2.56c-1.24 0-2.02.98-2.02 2.56 0 1.57.78 2.56 2.01 2.56zm4.7-4.11c0 .99.58 1.54 1.86 1.85l1.18.29c.73.18 1.08.5 1.08.96 0 .63-.66 1.07-1.58 1.07-.88 0-1.42-.37-1.6-.95h-1.13c.12 1.14 1.17 1.87 2.7 1.87 1.55 0 2.74-.84 2.74-2.07 0-.98-.63-1.54-1.92-1.85l-1.05-.26c-.8-.2-1.19-.48-1.19-.95 0-.61.64-1.03 1.45-1.03.83 0 1.36.37 1.5.91h1.08c-.14-1.12-1.14-1.83-2.57-1.83-1.46 0-2.55.85-2.55 1.99zm7.86 5.03a.82.82 0 1 0 0 0zm0-4.88a.82.82 0 1 0 0 0zm3.26 6.88l2.8-11.22h-.96l-2.79 11.22h.95zm4.52 0l2.8-11.22h-.96l-2.79 11.22h.95zm12.82-8.9h-1.1l-1.34 5.47h-.1l-1.53-5.47H65.3l-1.53 5.47h-.1l-1.34-5.47h-1.1l1.9 6.84h1.11l1.53-5.3h.1L67.4 19h1.1l1.92-6.84zm10.07 0h-1.1l-1.34 5.47h-.1l-1.53-5.47h-1.05l-1.53 5.47h-.1l-1.35-5.47h-1.1L73.2 19h1.1l1.52-5.3h.1l1.53 5.3h1.12l1.91-6.84zm10.07 0h-1.1l-1.34 5.47h-.1l-1.54-5.47h-1.04l-1.53 5.47h-.1l-1.35-5.47h-1.1L83.27 19h1.1l1.53-5.3h.1l1.53 5.3h1.11l1.92-6.84zm1.4 6.9a.82.82 0 1 0 0 0zm2.97-.06h1.09v-4.24c0-.97.69-1.74 1.59-1.74.86 0 1.42.52 1.42 1.33V19h1.1v-4.4c0-.87.63-1.58 1.58-1.58.97 0 1.44.5 1.44 1.5V19h1.1v-4.73c0-1.43-.79-2.23-2.18-2.23a2.3 2.3 0 0 0-2.1 1.2h-.1a1.98 1.98 0 0 0-1.89-1.2c-.91 0-1.6.43-1.91 1.2h-.1v-1.08h-1.04V19zm14.12.12c-1.95 0-3.15-1.35-3.15-3.54 0-2.2 1.2-3.54 3.15-3.54s3.16 1.34 3.16 3.54-1.21 3.54-3.16 3.54zm0-.98c1.3 0 2.03-.94 2.03-2.56 0-1.63-.73-2.56-2.03-2.56-1.3 0-2.02.93-2.02 2.56 0 1.62.73 2.56 2.02 2.56zm4.52.86h5.27v-.91h-3.95v-.1l3.93-5.01v-.82h-5.24v.91h3.94v.1l-3.95 5.03v.8zm7.2 0h1.08v-6.84h-1.09V19zm.54-8.23c.42 0 .76-.35.76-.76a.76.76 0 0 0-.76-.77.76.76 0 0 0-.76.77c0 .41.34.76.76.76zM124 19h1.1V9.44H124V19zm3.27 0h1.1V9.44h-1.1V19zm5.32-.84c1.13 0 1.96-.73 1.96-1.71v-.63l-1.84.12c-1.04.07-1.5.43-1.5 1.12 0 .7.59 1.1 1.38 1.1zm-.2.96c-1.33 0-2.31-.79-2.31-2.04 0-1.22.9-1.93 2.5-2.02l1.97-.12v-.62c0-.85-.53-1.31-1.55-1.31-.82 0-1.39.3-1.54.85h-1.1c.14-1.1 1.22-1.82 2.68-1.82 1.67 0 2.6.85 2.6 2.28V19h-1.04v-1h-.1a2.36 2.36 0 0 1-2.1 1.12zm6.17-.06a.82.82 0 1 0 0 0zm5.52.06c-1.95 0-3.16-1.35-3.16-3.54 0-2.2 1.2-3.54 3.16-3.54 1.95 0 3.15 1.34 3.15 3.54s-1.2 3.54-3.15 3.54zm0-.98c1.3 0 2.02-.94 2.02-2.56 0-1.63-.73-2.56-2.02-2.56-1.3 0-2.03.93-2.03 2.56 0 1.62.73 2.56 2.03 2.56zm4.87.86h1.09v-4.24c0-.97.75-1.66 1.8-1.66.2 0 .6.03.7.06v-1.1a4.69 4.69 0 0 0-.55-.02c-.91 0-1.7.47-1.9 1.13h-.1v-1.01h-1.04V19zm7.52-1.07c1.27 0 2.03-.96 2.03-2.45 0-1.5-.76-2.46-2.03-2.46-1.27 0-1.98.97-1.98 2.46s.71 2.45 1.98 2.45zm.05 3.7c-1.65 0-2.7-.74-2.86-1.87h1.15c.12.55.73.92 1.71.92 1.23 0 1.96-.6 1.96-1.62v-1.34h-.1a2.37 2.37 0 0 1-2.15 1.18c-1.77 0-2.87-1.37-2.87-3.42s1.11-3.44 2.87-3.44c.96 0 1.8.47 2.2 1.2h.1v-1.08h1.04v6.96c0 1.53-1.18 2.5-3.05 2.5z"/></g><g transform="translate(2 59)"><rect width="300" height="30" fill="#FFFFFF"/><path fill="#0C0C0D" d="M17.1 19h1.08v-4.05c0-1.16.68-1.93 1.9-1.93 1.04 0 1.58.6 1.58 1.82V19h1.1v-4.43c0-1.6-.92-2.53-2.37-2.53-1.04 0-1.76.44-2.1 1.2h-.1v-3.8h-1.1V19zm8.1-8.61v1.77h-1.1v.91h1.1v4.15c0 1.31.57 1.83 1.98 1.83.21 0 .42-.02.64-.06v-.92c-.2.02-.31.02-.5.02-.72 0-1.02-.34-1.02-1.15v-3.87h1.52v-.91H26.3v-1.77h-1.1zm4.73 0v1.77h-1.1v.91h1.1v4.15c0 1.31.56 1.83 1.97 1.83.22 0 .43-.02.64-.06v-.92c-.2.02-.3.02-.5.02-.72 0-1.02-.34-1.02-1.15v-3.87h1.52v-.91h-1.52v-1.77h-1.1zm7.6 1.65c1.74 0 2.87 1.39 2.87 3.54 0 2.14-1.14 3.54-2.88 3.54-.97 0-1.76-.42-2.13-1.15h-.1v3.32h-1.1v-9.13h1.04v1.14h.1a2.47 2.47 0 0 1 2.2-1.26zm-.27 6.1c1.26 0 2.01-.96 2.01-2.56s-.75-2.56-2-2.56c-1.24 0-2.02.98-2.02 2.56 0 1.57.78 2.56 2.01 2.56zm4.7-4.11c0 .99.58 1.54 1.86 1.85l1.18.29c.73.18 1.08.5 1.08.96 0 .63-.66 1.07-1.58 1.07-.88 0-1.42-.37-1.6-.95h-1.13c.12 1.14 1.17 1.87 2.7 1.87 1.55 0 2.74-.84 2.74-2.07 0-.98-.63-1.54-1.92-1.85l-1.05-.26c-.8-.2-1.19-.48-1.19-.95 0-.61.64-1.03 1.45-1.03.83 0 1.36.37 1.5.91h1.08c-.14-1.12-1.14-1.83-2.57-1.83-1.46 0-2.55.85-2.55 1.99zm7.86 5.03a.82.82 0 1 0 0 0zm0-4.88a.82.82 0 1 0 0 0zm3.26 6.88l2.8-11.22h-.96l-2.79 11.22h.95zm4.52 0l2.8-11.22h-.96l-2.79 11.22h.95zm12.82-8.9h-1.1l-1.34 5.47h-.1l-1.53-5.47H65.3l-1.53 5.47h-.1l-1.34-5.47h-1.1l1.9 6.84h1.11l1.53-5.3h.1L67.4 19h1.1l1.92-6.84zm10.07 0h-1.1l-1.34 5.47h-.1l-1.53-5.47h-1.05l-1.53 5.47h-.1l-1.35-5.47h-1.1L73.2 19h1.1l1.52-5.3h.1l1.53 5.3h1.12l1.91-6.84zm10.07 0h-1.1l-1.34 5.47h-.1l-1.54-5.47h-1.04l-1.53 5.47h-.1l-1.35-5.47h-1.1L83.27 19h1.1l1.53-5.3h.1l1.53 5.3h1.11l1.92-6.84zm1.4 6.9a.82.82 0 1 0 0 0zm2.97-.06h1.09v-4.24c0-.97.69-1.74 1.59-1.74.86 0 1.42.52 1.42 1.33V19h1.1v-4.4c0-.87.63-1.58 1.58-1.58.97 0 1.44.5 1.44 1.5V19h1.1v-4.73c0-1.43-.79-2.23-2.18-2.23a2.3 2.3 0 0 0-2.1 1.2h-.1a1.98 1.98 0 0 0-1.89-1.2c-.91 0-1.6.43-1.91 1.2h-.1v-1.08h-1.04V19zm14.12.12c-1.95 0-3.15-1.35-3.15-3.54 0-2.2 1.2-3.54 3.15-3.54s3.16 1.34 3.16 3.54-1.21 3.54-3.16 3.54zm0-.98c1.3 0 2.03-.94 2.03-2.56 0-1.63-.73-2.56-2.03-2.56-1.3 0-2.02.93-2.02 2.56 0 1.62.73 2.56 2.02 2.56zm4.52.86h5.27v-.91h-3.95v-.1l3.93-5.01v-.82h-5.24v.91h3.94v.1l-3.95 5.03v.8zm7.2 0h1.08v-6.84h-1.09V19zm.54-8.23c.42 0 .76-.35.76-.76a.76.76 0 0 0-.76-.77.76.76 0 0 0-.76.77c0 .41.34.76.76.76zM124 19h1.1V9.44H124V19zm3.27 0h1.1V9.44h-1.1V19zm5.32-.84c1.13 0 1.96-.73 1.96-1.71v-.63l-1.84.12c-1.04.07-1.5.43-1.5 1.12 0 .7.59 1.1 1.38 1.1zm-.2.96c-1.33 0-2.31-.79-2.31-2.04 0-1.22.9-1.93 2.5-2.02l1.97-.12v-.62c0-.85-.53-1.31-1.55-1.31-.82 0-1.39.3-1.54.85h-1.1c.14-1.1 1.22-1.82 2.68-1.82 1.67 0 2.6.85 2.6 2.28V19h-1.04v-1h-.1a2.36 2.36 0 0 1-2.1 1.12zm5.73-.12h1.09v-5.93h1.57v-.91h-1.57v-.64c0-.77.37-1.1 1.02-1.1.22 0 .46.03.6.06v-.91a3.85 3.85 0 0 0-.66-.07c-1.32 0-2.05.59-2.05 2v.66h-1.14v.91h1.14V19zm4.27 0h1.09v-6.84h-1.1V19zm.54-8.23c.42 0 .77-.35.77-.76a.76.76 0 0 0-.77-.77.76.76 0 0 0-.76.77c0 .41.35.76.76.76zm2.63 8.23h1.1v-4.24c0-.97.75-1.66 1.79-1.66.22 0 .61.03.7.06v-1.1a4.69 4.69 0 0 0-.55-.02c-.9 0-1.7.47-1.9 1.13h-.1v-1.01h-1.04V19zm7.5-6c-1.1 0-1.86.8-1.94 2.01h3.77c-.03-1.2-.75-2-1.84-2zm1.8 4.23h1.09c-.33 1.17-1.39 1.9-2.89 1.9-1.9 0-3.08-1.38-3.08-3.55 0-2.15 1.2-3.54 3.08-3.54 1.85 0 2.98 1.31 2.98 3.44v.42h-4.92v.05c.05 1.35.8 2.2 1.97 2.2.88 0 1.48-.32 1.76-.92zM158.2 19h1.09v-5.93h1.57v-.91h-1.57v-.64c0-.77.37-1.1 1.02-1.1.22 0 .46.03.61.06v-.91a3.85 3.85 0 0 0-.67-.07c-1.32 0-2.05.59-2.05 2v.66h-1.14v.91h1.14V19zm6.77.12c-1.95 0-3.16-1.35-3.16-3.54 0-2.2 1.21-3.54 3.16-3.54 1.95 0 3.15 1.34 3.15 3.54s-1.2 3.54-3.15 3.54zm0-.98c1.3 0 2.02-.94 2.02-2.56 0-1.63-.73-2.56-2.02-2.56-1.3 0-2.03.93-2.03 2.56 0 1.62.73 2.56 2.03 2.56zm6.98-1.72l1.61 2.58h1.3l-2.36-3.47 2.33-3.37h-1.24L172 14.7h-.1l-1.63-2.54h-1.3l2.36 3.42L169 19h1.24l1.62-2.58h.1zm5.3 2.64a.82.82 0 1 0 0 0zm5.52.06c-1.95 0-3.16-1.35-3.16-3.54 0-2.2 1.21-3.54 3.16-3.54 1.95 0 3.15 1.34 3.15 3.54s-1.2 3.54-3.15 3.54zm0-.98c1.3 0 2.02-.94 2.02-2.56 0-1.63-.73-2.56-2.02-2.56-1.3 0-2.03.93-2.03 2.56 0 1.62.73 2.56 2.03 2.56zm4.87.86h1.09v-4.24c0-.97.75-1.66 1.8-1.66.21 0 .6.03.7.06v-1.1a4.69 4.69 0 0 0-.55-.02c-.91 0-1.7.47-1.9 1.13h-.1v-1.01h-1.04V19zm7.53-1.07c1.26 0 2.03-.96 2.03-2.45 0-1.5-.77-2.46-2.03-2.46-1.27 0-1.99.97-1.99 2.46s.72 2.45 1.99 2.45zm.05 3.7c-1.65 0-2.7-.74-2.87-1.87h1.15c.12.55.73.92 1.72.92 1.22 0 1.95-.6 1.95-1.62v-1.34h-.1a2.37 2.37 0 0 1-2.15 1.18c-1.77 0-2.87-1.37-2.87-3.42s1.12-3.44 2.87-3.44c.96 0 1.8.47 2.2 1.2h.1v-1.08h1.04v6.96c0 1.53-1.18 2.5-3.04 2.5z"/></g><g transform="translate(2 89)"><rect width="300" height="30" fill="#FFFFFF"/><path fill="#0C0C0D" d="M17.1 19h1.08v-4.05c0-1.16.68-1.93 1.9-1.93 1.04 0 1.58.6 1.58 1.82V19h1.1v-4.43c0-1.6-.92-2.53-2.37-2.53-1.04 0-1.76.44-2.1 1.2h-.1v-3.8h-1.1V19zm8.1-8.61v1.77h-1.1v.91h1.1v4.15c0 1.31.57 1.83 1.98 1.83.21 0 .42-.02.64-.06v-.92c-.2.02-.31.02-.5.02-.72 0-1.02-.34-1.02-1.15v-3.87h1.52v-.91H26.3v-1.77h-1.1zm4.73 0v1.77h-1.1v.91h1.1v4.15c0 1.31.56 1.83 1.97 1.83.22 0 .43-.02.64-.06v-.92c-.2.02-.3.02-.5.02-.72 0-1.02-.34-1.02-1.15v-3.87h1.52v-.91h-1.52v-1.77h-1.1zm7.6 1.65c1.74 0 2.87 1.39 2.87 3.54 0 2.14-1.14 3.54-2.88 3.54-.97 0-1.76-.42-2.13-1.15h-.1v3.32h-1.1v-9.13h1.04v1.14h.1a2.47 2.47 0 0 1 2.2-1.26zm-.27 6.1c1.26 0 2.01-.96 2.01-2.56s-.75-2.56-2-2.56c-1.24 0-2.02.98-2.02 2.56 0 1.57.78 2.56 2.01 2.56zm4.7-4.11c0 .99.58 1.54 1.86 1.85l1.18.29c.73.18 1.08.5 1.08.96 0 .63-.66 1.07-1.58 1.07-.88 0-1.42-.37-1.6-.95h-1.13c.12 1.14 1.17 1.87 2.7 1.87 1.55 0 2.74-.84 2.74-2.07 0-.98-.63-1.54-1.92-1.85l-1.05-.26c-.8-.2-1.19-.48-1.19-.95 0-.61.64-1.03 1.45-1.03.83 0 1.36.37 1.5.91h1.08c-.14-1.12-1.14-1.83-2.57-1.83-1.46 0-2.55.85-2.55 1.99zm7.86 5.03a.82.82 0 1 0 0 0zm0-4.88a.82.82 0 1 0 0 0zm3.26 6.88l2.8-11.22h-.96l-2.79 11.22h.95zm4.52 0l2.8-11.22h-.96l-2.79 11.22h.95zm12.82-8.9h-1.1l-1.34 5.47h-.1l-1.53-5.47H65.3l-1.53 5.47h-.1l-1.34-5.47h-1.1l1.9 6.84h1.11l1.53-5.3h.1L67.4 19h1.1l1.92-6.84zm10.07 0h-1.1l-1.34 5.47h-.1l-1.53-5.47h-1.05l-1.53 5.47h-.1l-1.35-5.47h-1.1L73.2 19h1.1l1.52-5.3h.1l1.53 5.3h1.12l1.91-6.84zm10.07 0h-1.1l-1.34 5.47h-.1l-1.54-5.47h-1.04l-1.53 5.47h-.1l-1.35-5.47h-1.1L83.27 19h1.1l1.53-5.3h.1l1.53 5.3h1.11l1.92-6.84zm1.4 6.9a.82.82 0 1 0 0 0zm2.97-.06h1.09v-4.24c0-.97.69-1.74 1.59-1.74.86 0 1.42.52 1.42 1.33V19h1.1v-4.4c0-.87.63-1.58 1.58-1.58.97 0 1.44.5 1.44 1.5V19h1.1v-4.73c0-1.43-.79-2.23-2.18-2.23a2.3 2.3 0 0 0-2.1 1.2h-.1a1.98 1.98 0 0 0-1.89-1.2c-.91 0-1.6.43-1.91 1.2h-.1v-1.08h-1.04V19zm14.12.12c-1.95 0-3.15-1.35-3.15-3.54 0-2.2 1.2-3.54 3.15-3.54s3.16 1.34 3.16 3.54-1.21 3.54-3.16 3.54zm0-.98c1.3 0 2.03-.94 2.03-2.56 0-1.63-.73-2.56-2.03-2.56-1.3 0-2.02.93-2.02 2.56 0 1.62.73 2.56 2.02 2.56zm4.52.86h5.27v-.91h-3.95v-.1l3.93-5.01v-.82h-5.24v.91h3.94v.1l-3.95 5.03v.8zm7.2 0h1.08v-6.84h-1.09V19zm.54-8.23c.42 0 .76-.35.76-.76a.76.76 0 0 0-.76-.77.76.76 0 0 0-.76.77c0 .41.34.76.76.76zM124 19h1.1V9.44H124V19zm3.27 0h1.1V9.44h-1.1V19zm5.32-.84c1.13 0 1.96-.73 1.96-1.71v-.63l-1.84.12c-1.04.07-1.5.43-1.5 1.12 0 .7.59 1.1 1.38 1.1zm-.2.96c-1.33 0-2.31-.79-2.31-2.04 0-1.22.9-1.93 2.5-2.02l1.97-.12v-.62c0-.85-.53-1.31-1.55-1.31-.82 0-1.39.3-1.54.85h-1.1c.14-1.1 1.22-1.82 2.68-1.82 1.67 0 2.6.85 2.6 2.28V19h-1.04v-1h-.1a2.36 2.36 0 0 1-2.1 1.12zm5.73-.12h1.09v-5.93h1.57v-.91h-1.57v-.64c0-.77.37-1.1 1.02-1.1.22 0 .46.03.6.06v-.91a3.85 3.85 0 0 0-.66-.07c-1.32 0-2.05.59-2.05 2v.66h-1.14v.91h1.14V19zm4.27 0h1.09v-6.84h-1.1V19zm.54-8.23c.42 0 .77-.35.77-.76a.76.76 0 0 0-.77-.77.76.76 0 0 0-.76.77c0 .41.35.76.76.76zm2.63 8.23h1.1v-4.24c0-.97.75-1.66 1.79-1.66.22 0 .61.03.7.06v-1.1a4.69 4.69 0 0 0-.55-.02c-.9 0-1.7.47-1.9 1.13h-.1v-1.01h-1.04V19zm7.5-6c-1.1 0-1.86.8-1.94 2.01h3.77c-.03-1.2-.75-2-1.84-2zm1.8 4.23h1.09c-.33 1.17-1.39 1.9-2.89 1.9-1.9 0-3.08-1.38-3.08-3.55 0-2.15 1.2-3.54 3.08-3.54 1.85 0 2.98 1.31 2.98 3.44v.42h-4.92v.05c.05 1.35.8 2.2 1.97 2.2.88 0 1.48-.32 1.76-.92zM158.2 19h1.09v-5.93h1.57v-.91h-1.57v-.64c0-.77.37-1.1 1.02-1.1.22 0 .46.03.61.06v-.91a3.85 3.85 0 0 0-.67-.07c-1.32 0-2.05.59-2.05 2v.66h-1.14v.91h1.14V19zm6.77.12c-1.95 0-3.16-1.35-3.16-3.54 0-2.2 1.21-3.54 3.16-3.54 1.95 0 3.15 1.34 3.15 3.54s-1.2 3.54-3.15 3.54zm0-.98c1.3 0 2.02-.94 2.02-2.56 0-1.63-.73-2.56-2.02-2.56-1.3 0-2.03.93-2.03 2.56 0 1.62.73 2.56 2.03 2.56zm6.98-1.72l1.61 2.58h1.3l-2.36-3.47 2.33-3.37h-1.24L172 14.7h-.1l-1.63-2.54h-1.3l2.36 3.42L169 19h1.24l1.62-2.58h.1zm5.3 2.64a.82.82 0 1 0 0 0zm8.37-4.8c-.2-1.23-1.2-2.22-2.87-2.22-1.92 0-3.14 1.38-3.14 3.51 0 2.18 1.23 3.57 3.15 3.57 1.64 0 2.66-.93 2.86-2.18h-1.1c-.2.77-.85 1.2-1.77 1.2-1.22 0-2-1-2-2.59 0-1.55.77-2.53 2-2.53.98 0 1.59.55 1.76 1.23h1.1zm4.42 4.86c-1.95 0-3.15-1.35-3.15-3.54 0-2.2 1.2-3.54 3.15-3.54s3.16 1.34 3.16 3.54-1.2 3.54-3.16 3.54zm0-.98c1.3 0 2.03-.94 2.03-2.56 0-1.63-.73-2.56-2.03-2.56-1.3 0-2.02.93-2.02 2.56 0 1.62.73 2.56 2.02 2.56zm4.87.86h1.1v-4.24c0-.97.69-1.74 1.58-1.74.86 0 1.43.52 1.43 1.33V19h1.09v-4.4c0-.87.63-1.58 1.59-1.58.96 0 1.44.5 1.44 1.5V19h1.09v-4.73c0-1.43-.78-2.23-2.18-2.23a2.3 2.3 0 0 0-2.1 1.2h-.1a1.98 1.98 0 0 0-1.89-1.2c-.9 0-1.6.43-1.9 1.2h-.1v-1.08h-1.05V19z"/></g><g transform="translate(2 119)"><rect width="300" height="30" fill="#FFFFFF"/><path fill="#0C0C0D" d="M17.1 19h1.08v-4.05c0-1.16.68-1.93 1.9-1.93 1.04 0 1.58.6 1.58 1.82V19h1.1v-4.43c0-1.6-.92-2.53-2.37-2.53-1.04 0-1.76.44-2.1 1.2h-.1v-3.8h-1.1V19zm8.1-8.61v1.77h-1.1v.91h1.1v4.15c0 1.31.57 1.83 1.98 1.83.21 0 .42-.02.64-.06v-.92c-.2.02-.31.02-.5.02-.72 0-1.02-.34-1.02-1.15v-3.87h1.52v-.91H26.3v-1.77h-1.1zm4.73 0v1.77h-1.1v.91h1.1v4.15c0 1.31.56 1.83 1.97 1.83.22 0 .43-.02.64-.06v-.92c-.2.02-.3.02-.5.02-.72 0-1.02-.34-1.02-1.15v-3.87h1.52v-.91h-1.52v-1.77h-1.1zm7.6 1.65c1.74 0 2.87 1.39 2.87 3.54 0 2.14-1.14 3.54-2.88 3.54-.97 0-1.76-.42-2.13-1.15h-.1v3.32h-1.1v-9.13h1.04v1.14h.1a2.47 2.47 0 0 1 2.2-1.26zm-.27 6.1c1.26 0 2.01-.96 2.01-2.56s-.75-2.56-2-2.56c-1.24 0-2.02.98-2.02 2.56 0 1.57.78 2.56 2.01 2.56zm4.7-4.11c0 .99.58 1.54 1.86 1.85l1.18.29c.73.18 1.08.5 1.08.96 0 .63-.66 1.07-1.58 1.07-.88 0-1.42-.37-1.6-.95h-1.13c.12 1.14 1.17 1.87 2.7 1.87 1.55 0 2.74-.84 2.74-2.07 0-.98-.63-1.54-1.92-1.85l-1.05-.26c-.8-.2-1.19-.48-1.19-.95 0-.61.64-1.03 1.45-1.03.83 0 1.36.37 1.5.91h1.08c-.14-1.12-1.14-1.83-2.57-1.83-1.46 0-2.55.85-2.55 1.99zm7.86 5.03a.82.82 0 1 0 0 0zm0-4.88a.82.82 0 1 0 0 0zm3.26 6.88l2.8-11.22h-.96l-2.79 11.22h.95zm4.52 0l2.8-11.22h-.96l-2.79 11.22h.95zm12.82-8.9h-1.1l-1.34 5.47h-.1l-1.53-5.47H65.3l-1.53 5.47h-.1l-1.34-5.47h-1.1l1.9 6.84h1.11l1.53-5.3h.1L67.4 19h1.1l1.92-6.84zm10.07 0h-1.1l-1.34 5.47h-.1l-1.53-5.47h-1.05l-1.53 5.47h-.1l-1.35-5.47h-1.1L73.2 19h1.1l1.52-5.3h.1l1.53 5.3h1.12l1.91-6.84zm10.07 0h-1.1l-1.34 5.47h-.1l-1.54-5.47h-1.04l-1.53 5.47h-.1l-1.35-5.47h-1.1L83.27 19h1.1l1.53-5.3h.1l1.53 5.3h1.11l1.92-6.84zm1.4 6.9a.82.82 0 1 0 0 0zm2.97-.06h1.09v-4.24c0-.97.69-1.74 1.59-1.74.86 0 1.42.52 1.42 1.33V19h1.1v-4.4c0-.87.63-1.58 1.58-1.58.97 0 1.44.5 1.44 1.5V19h1.1v-4.73c0-1.43-.79-2.23-2.18-2.23a2.3 2.3 0 0 0-2.1 1.2h-.1a1.98 1.98 0 0 0-1.89-1.2c-.91 0-1.6.43-1.91 1.2h-.1v-1.08h-1.04V19zm14.12.12c-1.95 0-3.15-1.35-3.15-3.54 0-2.2 1.2-3.54 3.15-3.54s3.16 1.34 3.16 3.54-1.21 3.54-3.16 3.54zm0-.98c1.3 0 2.03-.94 2.03-2.56 0-1.63-.73-2.56-2.03-2.56-1.3 0-2.02.93-2.02 2.56 0 1.62.73 2.56 2.02 2.56zm4.52.86h5.27v-.91h-3.95v-.1l3.93-5.01v-.82h-5.24v.91h3.94v.1l-3.95 5.03v.8zm8.07.06a.82.82 0 1 0 0 0zm8.36-4.8c-.19-1.23-1.2-2.22-2.87-2.22-1.91 0-3.13 1.38-3.13 3.51 0 2.18 1.22 3.57 3.14 3.57 1.65 0 2.67-.93 2.86-2.18h-1.1c-.2.77-.84 1.2-1.77 1.2-1.21 0-2-1-2-2.59 0-1.55.77-2.53 2-2.53.99 0 1.6.55 1.77 1.23h1.1zm4.43 4.86c-1.95 0-3.16-1.35-3.16-3.54 0-2.2 1.2-3.54 3.16-3.54 1.95 0 3.15 1.34 3.15 3.54s-1.2 3.54-3.15 3.54zm0-.98c1.3 0 2.02-.94 2.02-2.56 0-1.63-.73-2.56-2.02-2.56-1.3 0-2.03.93-2.03 2.56 0 1.62.73 2.56 2.03 2.56zm4.87.86h1.09v-4.24c0-.97.7-1.74 1.59-1.74.86 0 1.42.52 1.42 1.33V19h1.1v-4.4c0-.87.63-1.58 1.58-1.58.97 0 1.44.5 1.44 1.5V19h1.1v-4.73c0-1.43-.79-2.23-2.18-2.23a2.3 2.3 0 0 0-2.1 1.2h-.1a1.98 1.98 0 0 0-1.89-1.2c-.91 0-1.6.43-1.91 1.2h-.1v-1.08h-1.04V19z"/></g><g transform="translate(2 149)"><rect width="300" height="30" fill="#FFFFFF"/><path fill="#0C0C0D" d="M17.1 17h1.08v-4.05c0-1.16.68-1.93 1.9-1.93 1.04 0 1.58.6 1.58 1.82V17h1.1v-4.43c0-1.6-.92-2.53-2.37-2.53-1.04 0-1.76.44-2.1 1.2h-.1v-3.8h-1.1V17zm8.1-8.61v1.77h-1.1v.91h1.1v4.15c0 1.31.57 1.83 1.98 1.83.21 0 .42-.02.64-.06v-.92c-.2.02-.31.02-.5.02-.72 0-1.02-.34-1.02-1.15v-3.87h1.52v-.91H26.3V8.39h-1.1zm4.73 0v1.77h-1.1v.91h1.1v4.15c0 1.31.56 1.83 1.97 1.83.22 0 .43-.02.64-.06v-.92c-.2.02-.3.02-.5.02-.72 0-1.02-.34-1.02-1.15v-3.87h1.52v-.91h-1.52V8.39h-1.1zm7.6 1.65c1.74 0 2.87 1.39 2.87 3.54 0 2.14-1.14 3.54-2.88 3.54-.97 0-1.76-.42-2.13-1.15h-.1v3.32h-1.1v-9.13h1.04v1.14h.1a2.47 2.47 0 0 1 2.2-1.26zm-.27 6.1c1.26 0 2.01-.96 2.01-2.56s-.75-2.56-2-2.56c-1.24 0-2.02.98-2.02 2.56 0 1.57.78 2.56 2.01 2.56zm4.7-4.11c0 .99.58 1.54 1.86 1.85l1.18.29c.73.18 1.08.5 1.08.96 0 .63-.66 1.07-1.58 1.07-.88 0-1.42-.37-1.6-.95h-1.13c.12 1.14 1.17 1.87 2.7 1.87 1.55 0 2.74-.84 2.74-2.07 0-.98-.63-1.54-1.92-1.85l-1.05-.26c-.8-.2-1.19-.48-1.19-.95 0-.61.64-1.03 1.45-1.03.83 0 1.36.37 1.5.91h1.08c-.14-1.12-1.14-1.83-2.57-1.83-1.46 0-2.55.85-2.55 1.99zm7.86 5.03a.82.82 0 1 0 0 0zm0-4.88a.82.82 0 1 0 0 0zm3.26 6.88l2.8-11.22h-.96l-2.79 11.22h.95zm4.52 0l2.8-11.22h-.96l-2.79 11.22h.95zm12.82-8.9h-1.1l-1.34 5.47h-.1l-1.53-5.47H65.3l-1.53 5.47h-.1l-1.34-5.47h-1.1l1.9 6.84h1.11l1.53-5.3h.1L67.4 17h1.1l1.92-6.84zm10.07 0h-1.1l-1.34 5.47h-.1l-1.53-5.47h-1.05l-1.53 5.47h-.1l-1.35-5.47h-1.1L73.2 17h1.1l1.52-5.3h.1l1.53 5.3h1.12l1.91-6.84zm10.07 0h-1.1l-1.34 5.47h-.1l-1.54-5.47h-1.04l-1.53 5.47h-.1l-1.35-5.47h-1.1L83.27 17h1.1l1.53-5.3h.1l1.53 5.3h1.11l1.92-6.84zm1.4 6.9a.82.82 0 1 0 0 0zm2.97-.06h1.09v-4.24c0-.97.69-1.74 1.59-1.74.86 0 1.42.52 1.42 1.33V17h1.1v-4.4c0-.87.63-1.58 1.58-1.58.97 0 1.44.5 1.44 1.5V17h1.1v-4.73c0-1.43-.79-2.23-2.18-2.23a2.3 2.3 0 0 0-2.1 1.2h-.1a1.98 1.98 0 0 0-1.89-1.2c-.91 0-1.6.43-1.91 1.2h-.1v-1.08h-1.04V17zm14.12.12c-1.95 0-3.15-1.35-3.15-3.54 0-2.2 1.2-3.54 3.15-3.54s3.16 1.34 3.16 3.54-1.21 3.54-3.16 3.54zm0-.98c1.3 0 2.03-.94 2.03-2.56 0-1.63-.73-2.56-2.03-2.56-1.3 0-2.02.93-2.02 2.56 0 1.62.73 2.56 2.02 2.56zm4.52.86h5.27v-.91h-3.95v-.1l3.93-5.01v-.82h-5.24v.91h3.94v.1l-3.95 5.03v.8zm7-4.97c0 .99.6 1.54 1.87 1.85l1.18.29c.73.18 1.08.5 1.08.96 0 .63-.66 1.07-1.58 1.07-.87 0-1.42-.37-1.6-.95h-1.13c.12 1.14 1.17 1.87 2.7 1.87 1.55 0 2.74-.84 2.74-2.07 0-.98-.62-1.54-1.91-1.85l-1.06-.26c-.8-.2-1.18-.48-1.18-.95 0-.61.63-1.03 1.44-1.03.83 0 1.36.37 1.5.91h1.09c-.15-1.12-1.15-1.83-2.58-1.83-1.45 0-2.55.85-2.55 1.99zM127.6 17h1.1v-4.05c0-1.16.67-1.93 1.9-1.93 1.03 0 1.57.6 1.57 1.82V17h1.1v-4.43c0-1.6-.92-2.53-2.36-2.53-1.05 0-1.77.44-2.11 1.2h-.1v-3.8h-1.1V17zm10.47.12c-1.95 0-3.15-1.35-3.15-3.54 0-2.2 1.2-3.54 3.15-3.54s3.16 1.34 3.16 3.54-1.2 3.54-3.16 3.54zm0-.98c1.3 0 2.03-.94 2.03-2.56 0-1.63-.73-2.56-2.03-2.56-1.3 0-2.02.93-2.02 2.56 0 1.62.73 2.56 2.02 2.56zm8.2-6.1c1.75 0 2.88 1.39 2.88 3.54 0 2.14-1.14 3.54-2.88 3.54-.97 0-1.76-.42-2.14-1.15h-.1v3.32h-1.09v-9.13h1.04v1.14h.1a2.47 2.47 0 0 1 2.2-1.26zm-.26 6.1c1.26 0 2-.96 2-2.56s-.74-2.56-2-2.56c-1.23 0-2.01.98-2.01 2.56 0 1.57.78 2.56 2.01 2.56zm5.63.92a.82.82 0 1 0 0 0zm8.36-4.8c-.19-1.23-1.2-2.22-2.87-2.22-1.91 0-3.13 1.38-3.13 3.51 0 2.18 1.22 3.57 3.14 3.57 1.64 0 2.67-.93 2.86-2.18h-1.1c-.2.77-.85 1.2-1.77 1.2-1.21 0-2-1-2-2.59 0-1.55.77-2.53 2-2.53.99 0 1.6.55 1.77 1.23h1.1zm4.43 4.86c-1.95 0-3.16-1.35-3.16-3.54 0-2.2 1.2-3.54 3.16-3.54 1.95 0 3.15 1.34 3.15 3.54s-1.2 3.54-3.15 3.54zm0-.98c1.3 0 2.02-.94 2.02-2.56 0-1.63-.73-2.56-2.02-2.56-1.3 0-2.03.93-2.03 2.56 0 1.62.73 2.56 2.03 2.56zm4.87.86h1.09v-4.24c0-.97.69-1.74 1.58-1.74.87 0 1.43.52 1.43 1.33V17h1.1v-4.4c0-.87.63-1.58 1.58-1.58.97 0 1.44.5 1.44 1.5V17h1.1v-4.73c0-1.43-.79-2.23-2.18-2.23a2.3 2.3 0 0 0-2.1 1.2h-.1a1.98 1.98 0 0 0-1.9-1.2c-.9 0-1.59.43-1.9 1.2h-.1v-1.08h-1.04V17z"/></g><g transform="translate(2 179)"><rect width="300" height="30" fill="#FFFFFF"/><path fill="#0C0C0D" d="M17.1 19h1.08v-4.05c0-1.16.68-1.93 1.9-1.93 1.04 0 1.58.6 1.58 1.82V19h1.1v-4.43c0-1.6-.92-2.53-2.37-2.53-1.04 0-1.76.44-2.1 1.2h-.1v-3.8h-1.1V19zm8.1-8.61v1.77h-1.1v.91h1.1v4.15c0 1.31.57 1.83 1.98 1.83.21 0 .42-.02.64-.06v-.92c-.2.02-.31.02-.5.02-.72 0-1.02-.34-1.02-1.15v-3.87h1.52v-.91H26.3v-1.77h-1.1zm4.73 0v1.77h-1.1v.91h1.1v4.15c0 1.31.56 1.83 1.97 1.83.22 0 .43-.02.64-.06v-.92c-.2.02-.3.02-.5.02-.72 0-1.02-.34-1.02-1.15v-3.87h1.52v-.91h-1.52v-1.77h-1.1zm7.6 1.65c1.74 0 2.87 1.39 2.87 3.54 0 2.14-1.14 3.54-2.88 3.54-.97 0-1.76-.42-2.13-1.15h-.1v3.32h-1.1v-9.13h1.04v1.14h.1a2.47 2.47 0 0 1 2.2-1.26zm-.27 6.1c1.26 0 2.01-.96 2.01-2.56s-.75-2.56-2-2.56c-1.24 0-2.02.98-2.02 2.56 0 1.57.78 2.56 2.01 2.56zm4.7-4.11c0 .99.58 1.54 1.86 1.85l1.18.29c.73.18 1.08.5 1.08.96 0 .63-.66 1.07-1.58 1.07-.88 0-1.42-.37-1.6-.95h-1.13c.12 1.14 1.17 1.87 2.7 1.87 1.55 0 2.74-.84 2.74-2.07 0-.98-.63-1.54-1.92-1.85l-1.05-.26c-.8-.2-1.19-.48-1.19-.95 0-.61.64-1.03 1.45-1.03.83 0 1.36.37 1.5.91h1.08c-.14-1.12-1.14-1.83-2.57-1.83-1.46 0-2.55.85-2.55 1.99zm7.86 5.03a.82.82 0 1 0 0 0zm0-4.88a.82.82 0 1 0 0 0zm3.26 6.88l2.8-11.22h-.96l-2.79 11.22h.95zm4.52 0l2.8-11.22h-.96l-2.79 11.22h.95zm12.82-8.9h-1.1l-1.34 5.47h-.1l-1.53-5.47H65.3l-1.53 5.47h-.1l-1.34-5.47h-1.1l1.9 6.84h1.11l1.53-5.3h.1L67.4 19h1.1l1.92-6.84zm10.07 0h-1.1l-1.34 5.47h-.1l-1.53-5.47h-1.05l-1.53 5.47h-.1l-1.35-5.47h-1.1L73.2 19h1.1l1.52-5.3h.1l1.53 5.3h1.12l1.91-6.84zm10.07 0h-1.1l-1.34 5.47h-.1l-1.54-5.47h-1.04l-1.53 5.47h-.1l-1.35-5.47h-1.1L83.27 19h1.1l1.53-5.3h.1l1.53 5.3h1.11l1.92-6.84zm1.4 6.9a.82.82 0 1 0 0 0zm2.97-.06h1.09v-4.24c0-.97.69-1.74 1.59-1.74.86 0 1.42.52 1.42 1.33V19h1.1v-4.4c0-.87.63-1.58 1.58-1.58.97 0 1.44.5 1.44 1.5V19h1.1v-4.73c0-1.43-.79-2.23-2.18-2.23a2.3 2.3 0 0 0-2.1 1.2h-.1a1.98 1.98 0 0 0-1.89-1.2c-.91 0-1.6.43-1.91 1.2h-.1v-1.08h-1.04V19zm14.12.12c-1.95 0-3.15-1.35-3.15-3.54 0-2.2 1.2-3.54 3.15-3.54s3.16 1.34 3.16 3.54-1.21 3.54-3.16 3.54zm0-.98c1.3 0 2.03-.94 2.03-2.56 0-1.63-.73-2.56-2.03-2.56-1.3 0-2.02.93-2.02 2.56 0 1.62.73 2.56 2.02 2.56zm4.52.86h5.27v-.91h-3.95v-.1l3.93-5.01v-.82h-5.24v.91h3.94v.1l-3.95 5.03v.8zm7.2 0h1.08v-6.84h-1.09V19zm.54-8.23c.42 0 .76-.35.76-.76a.76.76 0 0 0-.76-.77.76.76 0 0 0-.76.77c0 .41.34.76.76.76zM124 19h1.1V9.44H124V19zm3.27 0h1.1V9.44h-1.1V19zm5.32-.84c1.13 0 1.96-.73 1.96-1.71v-.63l-1.84.12c-1.04.07-1.5.43-1.5 1.12 0 .7.59 1.1 1.38 1.1zm-.2.96c-1.33 0-2.31-.79-2.31-2.04 0-1.22.9-1.93 2.5-2.02l1.97-.12v-.62c0-.85-.53-1.31-1.55-1.31-.82 0-1.39.3-1.54.85h-1.1c.14-1.1 1.22-1.82 2.68-1.82 1.67 0 2.6.85 2.6 2.28V19h-1.04v-1h-.1a2.36 2.36 0 0 1-2.1 1.12zm8.6-7.08c1.75 0 2.88 1.39 2.88 3.54 0 2.14-1.14 3.54-2.88 3.54-.98 0-1.76-.42-2.14-1.15h-.1v3.32h-1.1v-9.13h1.05v1.14h.1a2.47 2.47 0 0 1 2.2-1.26zm-.26 6.1c1.26 0 2-.96 2-2.56s-.74-2.56-2-2.56c-1.23 0-2.01.98-2.01 2.56 0 1.57.78 2.56 2.01 2.56zm4.85.86h1.1v-4.24c0-.97.75-1.66 1.79-1.66.22 0 .6.03.7.06v-1.1a4.69 4.69 0 0 0-.55-.02c-.9 0-1.7.47-1.9 1.13h-.1v-1.01h-1.04V19zm7.57.12c-1.94 0-3.15-1.35-3.15-3.54 0-2.2 1.2-3.54 3.15-3.54s3.16 1.34 3.16 3.54-1.2 3.54-3.16 3.54zm0-.98c1.3 0 2.03-.94 2.03-2.56 0-1.63-.73-2.56-2.03-2.56-1.3 0-2.02.93-2.02 2.56 0 1.62.73 2.56 2.02 2.56zm5.99-5.98h-1.1v7.2c0 .75-.25 1.06-1.02 1.06h-.17v.93h.2c1.43 0 2.09-.6 2.09-2.01v-7.18zm-.55-1.4c.42 0 .77-.34.77-.75a.76.76 0 0 0-.77-.77.76.76 0 0 0-.76.77c0 .41.34.76.76.76zm5.36 2.24c-1.1 0-1.85.8-1.93 2.01h3.77c-.03-1.2-.75-2-1.84-2zm1.8 4.23h1.1c-.33 1.17-1.39 1.9-2.89 1.9-1.9 0-3.08-1.38-3.08-3.55 0-2.15 1.2-3.54 3.08-3.54 1.85 0 2.97 1.31 2.97 3.44v.42h-4.91v.05c.05 1.35.8 2.2 1.97 2.2.88 0 1.48-.32 1.76-.92zm8.56-2.98c-.19-1.22-1.2-2.21-2.87-2.21-1.92 0-3.13 1.38-3.13 3.51 0 2.18 1.22 3.57 3.14 3.57 1.64 0 2.66-.93 2.86-2.18h-1.1c-.2.77-.85 1.2-1.77 1.2-1.22 0-2-1-2-2.59 0-1.55.77-2.53 2-2.53.99 0 1.59.55 1.77 1.23h1.1zm2.2-3.86v1.77h-1.1v.91h1.1v4.15c0 1.31.56 1.83 1.97 1.83.22 0 .43-.02.64-.06v-.92c-.2.02-.3.02-.5.02-.72 0-1.02-.34-1.02-1.15v-3.87h1.52v-.91h-1.52v-1.77h-1.1zm3.98 3.64c0 .99.58 1.54 1.86 1.85l1.18.29c.73.18 1.08.5 1.08.96 0 .63-.66 1.07-1.58 1.07-.87 0-1.42-.37-1.6-.95h-1.13c.12 1.14 1.17 1.87 2.7 1.87 1.55 0 2.74-.84 2.74-2.07 0-.98-.63-1.54-1.91-1.85l-1.06-.26c-.8-.2-1.19-.48-1.19-.95 0-.61.64-1.03 1.45-1.03.83 0 1.36.37 1.5.91h1.09c-.15-1.12-1.15-1.83-2.58-1.83-1.46 0-2.55.85-2.55 1.99zm7.86 5.03a.82.82 0 1 0 0 0zm8.37-4.8c-.2-1.23-1.2-2.22-2.87-2.22-1.92 0-3.14 1.38-3.14 3.51 0 2.18 1.23 3.57 3.14 3.57 1.65 0 2.67-.93 2.87-2.18h-1.1c-.21.77-.85 1.2-1.77 1.2-1.22 0-2-1-2-2.59 0-1.55.77-2.53 2-2.53.98 0 1.59.55 1.76 1.23h1.1zm4.42 4.86c-1.95 0-3.15-1.35-3.15-3.54 0-2.2 1.2-3.54 3.15-3.54s3.16 1.34 3.16 3.54-1.2 3.54-3.16 3.54zm0-.98c1.3 0 2.03-.94 2.03-2.56 0-1.63-.73-2.56-2.03-2.56-1.3 0-2.02.93-2.02 2.56 0 1.62.73 2.56 2.02 2.56zm4.87.86h1.1v-4.24c0-.97.68-1.74 1.58-1.74.86 0 1.43.52 1.43 1.33V19h1.09v-4.4c0-.87.63-1.58 1.59-1.58.96 0 1.44.5 1.44 1.5V19h1.09v-4.73c0-1.43-.78-2.23-2.18-2.23a2.3 2.3 0 0 0-2.1 1.2h-.1a1.98 1.98 0 0 0-1.89-1.2c-.91 0-1.6.43-1.9 1.2h-.1v-1.08H206V19z"/></g><g transform="translate(2 209)"><rect width="300" height="30" fill="#FFFFFF"/><path fill="#0C0C0D" d="M17.1 19h1.08v-4.05c0-1.16.68-1.93 1.9-1.93 1.04 0 1.58.6 1.58 1.82V19h1.1v-4.43c0-1.6-.92-2.53-2.37-2.53-1.04 0-1.76.44-2.1 1.2h-.1v-3.8h-1.1V19zm8.1-8.61v1.77h-1.1v.91h1.1v4.15c0 1.31.57 1.83 1.98 1.83.21 0 .42-.02.64-.06v-.92c-.2.02-.31.02-.5.02-.72 0-1.02-.34-1.02-1.15v-3.87h1.52v-.91H26.3v-1.77h-1.1zm4.73 0v1.77h-1.1v.91h1.1v4.15c0 1.31.56 1.83 1.97 1.83.22 0 .43-.02.64-.06v-.92c-.2.02-.3.02-.5.02-.72 0-1.02-.34-1.02-1.15v-3.87h1.52v-.91h-1.52v-1.77h-1.1zm7.6 1.65c1.74 0 2.87 1.39 2.87 3.54 0 2.14-1.14 3.54-2.88 3.54-.97 0-1.76-.42-2.13-1.15h-.1v3.32h-1.1v-9.13h1.04v1.14h.1a2.47 2.47 0 0 1 2.2-1.26zm-.27 6.1c1.26 0 2.01-.96 2.01-2.56s-.75-2.56-2-2.56c-1.24 0-2.02.98-2.02 2.56 0 1.57.78 2.56 2.01 2.56zm4.7-4.11c0 .99.58 1.54 1.86 1.85l1.18.29c.73.18 1.08.5 1.08.96 0 .63-.66 1.07-1.58 1.07-.88 0-1.42-.37-1.6-.95h-1.13c.12 1.14 1.17 1.87 2.7 1.87 1.55 0 2.74-.84 2.74-2.07 0-.98-.63-1.54-1.92-1.85l-1.05-.26c-.8-.2-1.19-.48-1.19-.95 0-.61.64-1.03 1.45-1.03.83 0 1.36.37 1.5.91h1.08c-.14-1.12-1.14-1.83-2.57-1.83-1.46 0-2.55.85-2.55 1.99zm7.86 5.03a.82.82 0 1 0 0 0zm0-4.88a.82.82 0 1 0 0 0zm3.26 6.88l2.8-11.22h-.96l-2.79 11.22h.95zm4.52 0l2.8-11.22h-.96l-2.79 11.22h.95zm12.82-8.9h-1.1l-1.34 5.47h-.1l-1.53-5.47H65.3l-1.53 5.47h-.1l-1.34-5.47h-1.1l1.9 6.84h1.11l1.53-5.3h.1L67.4 19h1.1l1.92-6.84zm10.07 0h-1.1l-1.34 5.47h-.1l-1.53-5.47h-1.05l-1.53 5.47h-.1l-1.35-5.47h-1.1L73.2 19h1.1l1.52-5.3h.1l1.53 5.3h1.12l1.91-6.84zm10.07 0h-1.1l-1.34 5.47h-.1l-1.54-5.47h-1.04l-1.53 5.47h-.1l-1.35-5.47h-1.1L83.27 19h1.1l1.53-5.3h.1l1.53 5.3h1.11l1.92-6.84zm1.4 6.9a.82.82 0 1 0 0 0zm2.97-.06h1.09v-4.24c0-.97.69-1.74 1.59-1.74.86 0 1.42.52 1.42 1.33V19h1.1v-4.4c0-.87.63-1.58 1.58-1.58.97 0 1.44.5 1.44 1.5V19h1.1v-4.73c0-1.43-.79-2.23-2.18-2.23a2.3 2.3 0 0 0-2.1 1.2h-.1a1.98 1.98 0 0 0-1.89-1.2c-.91 0-1.6.43-1.91 1.2h-.1v-1.08h-1.04V19zm14.12.12c-1.95 0-3.15-1.35-3.15-3.54 0-2.2 1.2-3.54 3.15-3.54s3.16 1.34 3.16 3.54-1.21 3.54-3.16 3.54zm0-.98c1.3 0 2.03-.94 2.03-2.56 0-1.63-.73-2.56-2.03-2.56-1.3 0-2.02.93-2.02 2.56 0 1.62.73 2.56 2.02 2.56zm4.52.86h5.27v-.91h-3.95v-.1l3.93-5.01v-.82h-5.24v.91h3.94v.1l-3.95 5.03v.8zm7.2 0h1.08v-6.84h-1.09V19zm.54-8.23c.42 0 .76-.35.76-.76a.76.76 0 0 0-.76-.77.76.76 0 0 0-.76.77c0 .41.34.76.76.76zM124 19h1.1V9.44H124V19zm3.27 0h1.1V9.44h-1.1V19zm5.32-.84c1.13 0 1.96-.73 1.96-1.71v-.63l-1.84.12c-1.04.07-1.5.43-1.5 1.12 0 .7.59 1.1 1.38 1.1zm-.2.96c-1.33 0-2.31-.79-2.31-2.04 0-1.22.9-1.93 2.5-2.02l1.97-.12v-.62c0-.85-.53-1.31-1.55-1.31-.82 0-1.39.3-1.54.85h-1.1c.14-1.1 1.22-1.82 2.68-1.82 1.67 0 2.6.85 2.6 2.28V19h-1.04v-1h-.1a2.36 2.36 0 0 1-2.1 1.12zm5.73-.12h1.09v-5.93h1.57v-.91h-1.57v-.64c0-.77.37-1.1 1.02-1.1.22 0 .46.03.6.06v-.91a3.85 3.85 0 0 0-.66-.07c-1.32 0-2.05.59-2.05 2v.66h-1.14v.91h1.14V19zm4.27 0h1.09v-6.84h-1.1V19zm.54-8.23c.42 0 .77-.35.77-.76a.76.76 0 0 0-.77-.77.76.76 0 0 0-.76.77c0 .41.35.76.76.76zm2.63 8.23h1.1v-4.24c0-.97.75-1.66 1.79-1.66.22 0 .61.03.7.06v-1.1a4.69 4.69 0 0 0-.55-.02c-.9 0-1.7.47-1.9 1.13h-.1v-1.01h-1.04V19zm7.5-6c-1.1 0-1.86.8-1.94 2.01h3.77c-.03-1.2-.75-2-1.84-2zm1.8 4.23h1.09c-.33 1.17-1.39 1.9-2.89 1.9-1.9 0-3.08-1.38-3.08-3.55 0-2.15 1.2-3.54 3.08-3.54 1.85 0 2.98 1.31 2.98 3.44v.42h-4.92v.05c.05 1.35.8 2.2 1.97 2.2.88 0 1.48-.32 1.76-.92zM158.2 19h1.09v-5.93h1.57v-.91h-1.57v-.64c0-.77.37-1.1 1.02-1.1.22 0 .46.03.61.06v-.91a3.85 3.85 0 0 0-.67-.07c-1.32 0-2.05.59-2.05 2v.66h-1.14v.91h1.14V19zm6.77.12c-1.95 0-3.16-1.35-3.16-3.54 0-2.2 1.21-3.54 3.16-3.54 1.95 0 3.15 1.34 3.15 3.54s-1.2 3.54-3.15 3.54zm0-.98c1.3 0 2.02-.94 2.02-2.56 0-1.63-.73-2.56-2.02-2.56-1.3 0-2.03.93-2.03 2.56 0 1.62.73 2.56 2.03 2.56zm6.98-1.72l1.61 2.58h1.3l-2.36-3.47 2.33-3.37h-1.24L172 14.7h-.1l-1.63-2.54h-1.3l2.36 3.42L169 19h1.24l1.62-2.58h.1zm5.3 2.64a.82.82 0 1 0 0 0zm6.3-7.02c1.74 0 2.87 1.39 2.87 3.54 0 2.14-1.14 3.54-2.88 3.54-.97 0-1.76-.42-2.14-1.15h-.1v3.32h-1.09v-9.13h1.04v1.14h.1a2.47 2.47 0 0 1 2.2-1.26zm-.27 6.1c1.26 0 2-.96 2-2.56s-.74-2.56-2-2.56c-1.23 0-2.01.98-2.01 2.56 0 1.57.78 2.56 2.01 2.56zm4.92.86h1.09v-4.05c0-1.16.67-1.93 1.9-1.93 1.03 0 1.58.6 1.58 1.82V19h1.09v-4.43c0-1.6-.92-2.53-2.36-2.53-1.05 0-1.77.44-2.11 1.2h-.1v-3.8h-1.1V19zm10.46.12c-1.95 0-3.15-1.35-3.15-3.54 0-2.2 1.2-3.54 3.15-3.54s3.16 1.34 3.16 3.54-1.2 3.54-3.16 3.54zm0-.98c1.3 0 2.03-.94 2.03-2.56 0-1.63-.73-2.56-2.03-2.56-1.3 0-2.02.93-2.02 2.56 0 1.62.73 2.56 2.02 2.56zm5.33-7.75v1.77h-1.1v.91h1.1v4.15c0 1.31.56 1.83 1.97 1.83.22 0 .43-.02.64-.06v-.92c-.2.02-.3.02-.5.02-.71 0-1.02-.34-1.02-1.15v-3.87h1.52v-.91h-1.52v-1.77h-1.1zm6.98 8.73c-1.95 0-3.15-1.35-3.15-3.54 0-2.2 1.2-3.54 3.15-3.54s3.16 1.34 3.16 3.54-1.21 3.54-3.16 3.54zm0-.98c1.3 0 2.03-.94 2.03-2.56 0-1.63-.73-2.56-2.03-2.56-1.3 0-2.02.93-2.02 2.56 0 1.62.73 2.56 2.02 2.56zm4.87.86h1.1v-4.05c0-1.2.7-1.93 1.79-1.93s1.61.58 1.61 1.82V19h1.1v-4.43c0-1.63-.87-2.53-2.4-2.53-1.05 0-1.72.44-2.06 1.2h-.1v-1.08h-1.04V19zm8.49.06a.82.82 0 1 0 0 0zm8.36-4.8c-.19-1.23-1.2-2.22-2.87-2.22-1.91 0-3.13 1.38-3.13 3.51 0 2.18 1.22 3.57 3.14 3.57 1.64 0 2.67-.93 2.86-2.18h-1.1c-.2.77-.85 1.2-1.77 1.2-1.22 0-2-1-2-2.59 0-1.55.77-2.53 2-2.53.99 0 1.59.55 1.77 1.23h1.1zm4.43 4.86c-1.95 0-3.16-1.35-3.16-3.54 0-2.2 1.2-3.54 3.16-3.54 1.95 0 3.15 1.34 3.15 3.54s-1.2 3.54-3.15 3.54zm0-.98c1.3 0 2.02-.94 2.02-2.56 0-1.63-.73-2.56-2.02-2.56-1.3 0-2.03.93-2.03 2.56 0 1.62.73 2.56 2.03 2.56zM242 19h1.09v-4.24c0-.97.69-1.74 1.58-1.74.87 0 1.43.52 1.43 1.33V19h1.1v-4.4c0-.87.63-1.58 1.58-1.58.97 0 1.44.5 1.44 1.5V19h1.1v-4.73c0-1.43-.79-2.23-2.18-2.23a2.3 2.3 0 0 0-2.1 1.2h-.1a1.98 1.98 0 0 0-1.9-1.2c-.9 0-1.6.43-1.9 1.2h-.1v-1.08H242V19z"/></g><g transform="translate(.618)"><use fill="#FFFFFF" xlink:href="#c"/><rect width="301" height="29" x=".88" y=".5" stroke="#00BDDF" rx="2"/><path fill="#0C0C0D" d="M20.12 12.1h-1.27l-1.55 6.32h-.12l-1.76-6.32H14.2l-1.77 6.32h-.11l-1.56-6.32H9.5L11.7 20h1.27l1.76-6.1h.12l1.76 6.1h1.29l2.2-7.9zm11.61 0h-1.26l-1.56 6.32h-.11l-1.77-6.32h-1.2l-1.77 6.32h-.12L22.4 12.1H21.1l2.22 7.9h1.27l1.76-6.1h.12l1.76 6.1h1.28l2.21-7.9zm11.62 0h-1.27l-1.55 6.32h-.12l-1.76-6.32h-1.21l-1.77 6.32h-.11L34 12.1h-1.27l2.21 7.9h1.28l1.75-6.1h.12l1.77 6.1h1.28l2.21-7.9zm1.63 7.97a.95.95 0 1 0 0 0zm3.41-.07h1.26v-4.9c0-1.1.8-2 1.83-2 1 0 1.65.6 1.65 1.54V20h1.26v-5.08c0-1 .73-1.82 1.83-1.82 1.11 0 1.66.57 1.66 1.74V20h1.26v-5.46c0-1.65-.9-2.57-2.51-2.57-1.1 0-2 .54-2.42 1.38h-.11a2.28 2.28 0 0 0-2.19-1.38c-1.05 0-1.84.5-2.2 1.38h-.12V12.1h-1.2V20zm16.3.14c-2.25 0-3.64-1.55-3.64-4.09s1.39-4.08 3.64-4.08c2.24 0 3.64 1.54 3.64 4.08s-1.4 4.09-3.64 4.09zm0-1.14c1.49 0 2.33-1.08 2.33-2.95s-.84-2.95-2.33-2.95c-1.5 0-2.34 1.08-2.34 2.95S63.19 19 64.69 19z"/><text fill="#000000" font-family="SegoeUI, Segoe UI" font-size="15"><tspan x="67" y="19">|</tspan></text></g></g><path fill="#0C0C0D" d="M9.48 16V6.84H8.34v3.96H3.3V6.84H2.17V16H3.3v-4.17h5.03V16h1.14zm5 .12c-1.94 0-3.15-1.35-3.15-3.54 0-2.2 1.21-3.54 3.16-3.54 1.95 0 3.15 1.34 3.15 3.54s-1.2 3.54-3.15 3.54zm0-.98c1.3 0 2.03-.94 2.03-2.56 0-1.63-.73-2.56-2.02-2.56-1.3 0-2.03.93-2.03 2.56 0 1.62.73 2.56 2.03 2.56zm4.88.86h1.09v-4.24c0-.97.7-1.74 1.59-1.74.86 0 1.42.52 1.42 1.33V16h1.1v-4.4c0-.87.63-1.58 1.58-1.58.97 0 1.44.5 1.44 1.5V16h1.1v-4.73c0-1.43-.78-2.23-2.18-2.23a2.3 2.3 0 0 0-2.1 1.2h-.1a1.98 1.98 0 0 0-1.89-1.2c-.91 0-1.6.43-1.91 1.2h-.1V9.16h-1.04V16zm14.04-6c-1.1 0-1.86.8-1.94 2.01h3.77c-.02-1.2-.75-2-1.83-2zm1.8 4.23h1.1c-.34 1.17-1.4 1.9-2.89 1.9-1.9 0-3.08-1.38-3.08-3.55 0-2.15 1.2-3.54 3.08-3.54 1.85 0 2.97 1.31 2.97 3.44v.42h-4.92v.05c.06 1.35.81 2.2 1.98 2.2.88 0 1.48-.32 1.76-.92zm9.9-5.2c1.74 0 2.87 1.4 2.87 3.55 0 2.14-1.13 3.54-2.87 3.54-.98 0-1.77-.42-2.14-1.15h-.1v3.32h-1.1V9.16h1.05v1.14h.1a2.47 2.47 0 0 1 2.19-1.26zm-.26 6.1c1.25 0 2-.95 2-2.55 0-1.6-.75-2.56-2-2.56-1.23 0-2.02.98-2.02 2.56 0 1.57.79 2.56 2.02 2.56zm6.95.03c1.13 0 1.96-.73 1.96-1.71v-.63l-1.84.12c-1.04.07-1.5.43-1.5 1.12 0 .7.59 1.1 1.38 1.1zm-.2.96c-1.33 0-2.31-.79-2.31-2.04 0-1.22.9-1.93 2.5-2.02l1.97-.12v-.62c0-.85-.53-1.31-1.55-1.31-.82 0-1.39.3-1.54.85h-1.1c.14-1.1 1.22-1.82 2.68-1.82 1.67 0 2.6.85 2.6 2.28V16H53.8v-1h-.1a2.36 2.36 0 0 1-2.1 1.12zm8.04-1.19c1.27 0 2.03-.96 2.03-2.45 0-1.5-.77-2.46-2.03-2.46-1.27 0-1.98.97-1.98 2.46s.7 2.45 1.98 2.45zm.05 3.7c-1.65 0-2.7-.74-2.87-1.87h1.15c.12.55.73.92 1.72.92 1.22 0 1.95-.6 1.95-1.62v-1.34h-.1a2.37 2.37 0 0 1-2.14 1.18c-1.78 0-2.87-1.37-2.87-3.42s1.1-3.44 2.87-3.44c.95 0 1.8.47 2.2 1.2h.1V9.16h1.03v6.96c0 1.53-1.18 2.5-3.04 2.5zM67.5 10c-1.1 0-1.85.8-1.94 2.01h3.78c-.03-1.2-.75-2-1.84-2zm1.8 4.23h1.1c-.33 1.17-1.39 1.9-2.89 1.9-1.9 0-3.08-1.38-3.08-3.55 0-2.15 1.2-3.54 3.08-3.54 1.85 0 2.97 1.31 2.97 3.44v.42h-4.92v.05c.06 1.35.82 2.2 1.98 2.2.88 0 1.48-.32 1.76-.92z"/></g></svg>