<svg xmlns="http://www.w3.org/2000/svg" xmlns:xlink="http://www.w3.org/1999/xlink" viewBox="0 0 360 120"><defs><rect id="a" width="279" height="32" rx="2"/></defs><g fill="none" fill-rule="evenodd"><g transform="translate(41 46)"><use fill="#FFFFFF" xlink:href="#a"/><rect width="280" height="33" x="-.5" y="-.5" stroke="#0A84FF" rx="2"/><rect width="283" height="36" x="-2" y="-2" stroke="#0A84FF" stroke-opacity=".3" stroke-width="4" opacity=".52" rx="2"/><path fill="#0C0C0D" fill-rule="nonzero" d="M14.7 17.72a1 1 0 1 0-1.41-1.41l-4.96 4.95a1 1 0 1 0 1.41 1.41l4.95-4.95zm3.26 1.32a6 6 0 1 0 0-12 6 6 0 0 0 0 12zm0-2a4 4 0 1 1 0-8 4 4 0 0 1 0 8z" opacity=".4"/><path fill="#0C0C0D" fill-opacity=".4" d="M32.89 20.58v-1.45c.16.14.36.27.6.4a4.84 4.84 0 0 0 1.5.47c.26.05.5.07.72.07.75 0 1.32-.14 1.7-.42.37-.28.55-.69.55-1.21 0-.29-.06-.53-.18-.74a2.1 2.1 0 0 0-.52-.58 5.12 5.12 0 0 0-.78-.5l-.97-.5c-.37-.18-.71-.37-1.03-.56-.31-.2-.59-.4-.82-.63a2.41 2.41 0 0 1-.75-1.8c0-.48.1-.9.3-1.25.22-.36.5-.65.83-.88.35-.23.73-.4 1.17-.51.44-.11.88-.17 1.34-.17 1.03 0 1.79.13 2.26.37v1.39a4.1 4.1 0 0 0-2.39-.65c-.26 0-.53.03-.8.09-.27.05-.51.15-.72.27-.21.13-.38.3-.51.5s-.2.44-.2.73c0 .27.05.5.15.7.1.19.25.37.44.53.2.16.44.31.72.47l.97.5c.37.18.73.37 1.07.58.33.2.63.43.88.68.26.25.46.53.6.83.16.3.23.65.23 1.04 0 .52-.1.95-.3 1.31-.2.36-.48.65-.82.88-.35.22-.74.39-1.2.49a6.52 6.52 0 0 1-3.5-.2c-.23-.08-.4-.16-.54-.25zm14.32-3.03h-5.3c.03.84.25 1.48.68 1.93.43.46 1.02.69 1.77.69.85 0 1.62-.28 2.33-.84v1.13c-.66.48-1.53.72-2.61.72-1.06 0-1.9-.34-2.5-1.03-.6-.68-.9-1.64-.9-2.87a4.1 4.1 0 0 1 .98-2.85 3.18 3.18 0 0 1 2.47-1.1c.98 0 1.74.31 2.28.95.53.63.8 1.51.8 2.64v.63zm-1.23-1.02c0-.7-.17-1.23-.5-1.62a1.7 1.7 0 0 0-1.37-.58c-.57 0-1.05.2-1.45.61-.4.4-.64.94-.73 1.6h4.05zM54.4 21h-1.2v-1.17h-.03c-.53.9-1.3 1.35-2.31 1.35-.75 0-1.33-.2-1.75-.6-.43-.4-.64-.92-.64-1.57 0-1.4.83-2.22 2.48-2.45l2.25-.31c0-1.28-.52-1.92-1.55-1.92-.9 0-1.72.31-2.45.93v-1.23c.74-.47 1.6-.7 2.55-.7 1.77 0 2.65.93 2.65 2.8V21zm-1.2-3.8l-1.81.26c-.56.07-.98.21-1.26.4-.29.2-.43.56-.43 1.06 0 .37.13.67.4.9.26.23.6.35 1.04.35.6 0 1.09-.21 1.47-.63.4-.42.59-.95.59-1.59v-.74zm7.37-2.48a1.47 1.47 0 0 0-.9-.25c-.52 0-.95.25-1.3.73a3.35 3.35 0 0 0-.5 1.98V21h-1.2v-7.5h1.2v1.55h.02c.17-.53.43-.94.78-1.24.36-.3.75-.44 1.18-.44.32 0 .56.03.72.1v1.25zm6.22 5.94a3.9 3.9 0 0 1-2.05.52 3.4 3.4 0 0 1-2.59-1.05c-.66-.7-.98-1.6-.98-2.7 0-1.24.35-2.23 1.06-2.98a3.72 3.72 0 0 1 2.83-1.13c.66 0 1.24.13 1.74.37v1.23a3.05 3.05 0 0 0-1.78-.59c-.77 0-1.4.28-1.89.83-.49.55-.73 1.27-.73 2.16 0 .88.23 1.58.69 2.08.46.51 1.08.77 1.85.77.66 0 1.27-.22 1.85-.66v1.15zm8.04.34h-1.2v-4.32c0-1.56-.58-2.35-1.74-2.35a1.9 1.9 0 0 0-1.48.68c-.4.45-.6 1.03-.6 1.74V21h-1.2V9.9h1.2v4.85h.03a2.73 2.73 0 0 1 2.46-1.43c1.69 0 2.53 1.02 2.53 3.06V21zm18.99-10.5L90.85 21h-1.44l-2.16-7.68a4.8 4.8 0 0 1-.17-1.07h-.03c-.03.37-.1.72-.2 1.06L84.69 21h-1.43l-3.07-10.5h1.35l2.24 8.05c.09.34.15.7.17 1.06h.04c.02-.26.1-.61.23-1.06l2.32-8.05h1.18l2.22 8.11c.08.28.14.6.18.98h.03c.02-.25.09-.59.2-1l2.14-8.1h1.34zm7.06 7.05h-5.3c.03.84.25 1.48.68 1.93.43.46 1.02.69 1.78.69.84 0 1.62-.28 2.32-.84v1.13c-.65.48-1.53.72-2.61.72-1.06 0-1.9-.34-2.5-1.03-.6-.68-.9-1.64-.9-2.87a4.1 4.1 0 0 1 .99-2.85 3.18 3.18 0 0 1 2.46-1.1c.98 0 1.74.31 2.28.95.54.63.8 1.51.8 2.64v.63zm-1.23-1.02c0-.7-.17-1.23-.5-1.62a1.7 1.7 0 0 0-1.37-.58c-.57 0-1.05.2-1.44.61-.4.4-.64.94-.74 1.6h4.05zm4.28 3.39h-.03V21h-1.2V9.9h1.2v4.92h.03c.6-1 1.46-1.5 2.6-1.5.96 0 1.7.34 2.25 1.01.55.67.82 1.57.82 2.7 0 1.26-.3 2.26-.92 3.01a3.05 3.05 0 0 1-2.5 1.14c-1 0-1.74-.42-2.25-1.26zm-.03-3.03v1.05c0 .62.2 1.14.6 1.58a2 2 0 0 0 1.54.65c.73 0 1.3-.28 1.71-.84.41-.56.62-1.33.62-2.32 0-.84-.2-1.5-.58-1.96-.38-.48-.9-.72-1.57-.72-.7 0-1.26.25-1.68.73-.43.49-.64 1.1-.64 1.83zm7.16 3.84v-1.29c.66.48 1.38.73 2.17.73 1.05 0 1.58-.36 1.58-1.06 0-.2-.05-.37-.14-.5a1.35 1.35 0 0 0-.36-.38c-.16-.1-.34-.2-.55-.29l-.67-.27a8.63 8.63 0 0 1-.87-.4 2.64 2.64 0 0 1-.63-.45c-.17-.17-.3-.36-.38-.57a2.03 2.03 0 0 1-.13-.76c0-.35.08-.66.24-.93.16-.27.38-.5.65-.68a3 3 0 0 1 .92-.42 4.3 4.3 0 0 1 2.8.2v1.22a3.4 3.4 0 0 0-2.5-.47c-.19.05-.34.13-.47.22a1 1 0 0 0-.3.33.88.88 0 0 0-.11.43c0 .2.04.36.1.49.08.13.18.25.32.35.13.1.3.2.5.28l.66.27c.33.13.63.26.9.4.26.13.48.28.67.45.19.17.33.36.43.58.1.22.15.48.15.78 0 .37-.08.7-.25.97-.16.27-.38.5-.65.68a3 3 0 0 1-.95.4c-.35.1-.73.14-1.12.14-.77 0-1.44-.15-2-.45zm7.44-9.13a.76.76 0 0 1-.78-.78c0-.23.08-.41.23-.56a.75.75 0 0 1 .55-.22.78.78 0 0 1 .79.78c0 .21-.08.4-.23.55a.77.77 0 0 1-.56.23zm.58 9.4h-1.2v-7.5h1.2V21zm5.92-.07c-.29.15-.66.23-1.13.23-1.3 0-1.97-.73-1.97-2.2v-4.43h-1.28V13.5h1.28v-1.83l1.2-.39v2.22h1.9v1.03h-1.9v4.22c0 .5.1.86.26 1.08.17.21.46.32.85.32.3 0 .57-.08.79-.25v1.03zm7.51-3.38h-5.3c.02.84.25 1.48.68 1.93.43.46 1.02.69 1.77.69.85 0 1.62-.28 2.33-.84v1.13c-.66.48-1.53.72-2.61.72-1.06 0-1.9-.34-2.5-1.03-.6-.68-.91-1.64-.91-2.87a4.1 4.1 0 0 1 1-2.85 3.18 3.18 0 0 1 2.46-1.1c.98 0 1.74.31 2.27.95.54.63.81 1.51.81 2.64v.63zm-1.23-1.02c0-.7-.17-1.23-.5-1.62a1.7 1.7 0 0 0-1.38-.58c-.56 0-1.04.2-1.44.61-.4.4-.64.94-.73 1.6h4.05zm2.6 4.2v-1.29c.65.48 1.37.73 2.15.73 1.06 0 1.59-.36 1.59-1.06 0-.2-.05-.37-.14-.5a1.35 1.35 0 0 0-.37-.38c-.15-.1-.33-.2-.54-.29l-.67-.27a8.63 8.63 0 0 1-.87-.4 2.64 2.64 0 0 1-.63-.45c-.17-.17-.3-.36-.38-.57a2.03 2.03 0 0 1-.13-.76c0-.35.08-.66.24-.93.16-.27.37-.5.64-.68a3 3 0 0 1 .92-.42 4.3 4.3 0 0 1 2.8.2l.01 1.22a3.4 3.4 0 0 0-2.51-.47c-.18.05-.34.13-.47.22a1 1 0 0 0-.3.33.88.88 0 0 0-.1.43c0 .2.03.36.1.49s.18.25.32.35c.13.1.3.2.5.28l.66.27c.33.13.63.26.9.4.26.13.48.28.67.45.18.17.33.36.43.58.1.22.15.48.15.78 0 .37-.09.7-.25.97s-.38.5-.66.68a3 3 0 0 1-.94.4c-.36.1-.73.14-1.12.14-.77 0-1.44-.15-2-.45z"/><text fill="#000000" font-family="SegoeUI, Segoe UI" font-size="15"><tspan x="31" y="19">|</tspan></text></g><rect width="16" height="16" x="49" y="53" fill="#FFE900" fill-opacity=".5" stroke="#30E60B"/><g transform="translate(28 70)"><rect width="57" height="22" y="4" fill="#30E60B" rx="2"/><polygon fill="#30E60B" points="25 4 29 0 33 4 29 8"/><path fill="#000000" d="M9.36 17.94V19h-5v-1.06h2.01V12.1l-1.82 1.12-.58-.94 2.55-1.56H7.7v7.22h1.66zm6.12-4.09c.35.2.63.5.84.9.2.4.31.89.31 1.45 0 .59-.12 1.1-.35 1.55a2.57 2.57 0 0 1-2.38 1.4c-1 0-1.72-.35-2.19-1.07-.46-.71-.7-1.7-.7-2.93 0-.92.14-1.73.4-2.42.26-.7.63-1.23 1.13-1.6a2.8 2.8 0 0 1 1.75-.58 3 3 0 0 1 1.7.5l-.51.87a2.19 2.19 0 0 0-1.19-.35c-.56 0-1 .26-1.34.79a4.27 4.27 0 0 0-.55 2.16 2.27 2.27 0 0 1 1.9-.97c.43 0 .83.1 1.18.3zm-.55 3.78c.23-.33.35-.79.35-1.37 0-1.14-.42-1.71-1.26-1.71-.32 0-.62.08-.9.26-.27.17-.51.4-.71.71.01.9.14 1.57.37 1.99.23.42.6.63 1.13.63.45 0 .79-.17 1.02-.5zm6.48-3.06l1.75-.75.37 1.16-1.85.38 1.3 1.4-1 .75-.98-1.65-.91 1.68-1.03-.72 1.27-1.46-1.86-.38.37-1.16 1.74.75-.2-1.9h1.24l-.21 1.9zm9.55 3.37V19h-5v-1.06h2.01V12.1l-1.82 1.12-.58-.94 2.55-1.56h1.18v7.22h1.66zm6.12-4.09c.35.2.63.5.84.9.2.4.31.89.31 1.45 0 .59-.12 1.1-.35 1.55a2.57 2.57 0 0 1-2.38 1.4c-1 0-1.72-.35-2.19-1.07-.46-.71-.7-1.7-.7-2.93 0-.92.14-1.73.4-2.42.26-.7.63-1.23 1.13-1.6a2.8 2.8 0 0 1 1.75-.58 3 3 0 0 1 1.7.5l-.51.87a2.19 2.19 0 0 0-1.19-.35c-.56 0-1 .26-1.34.79a4.27 4.27 0 0 0-.55 2.16 2.27 2.27 0 0 1 1.9-.97c.43 0 .83.1 1.18.3zm-.55 3.78c.23-.33.35-.79.35-1.37 0-1.14-.42-1.71-1.26-1.71-.32 0-.62.08-.9.26-.27.17-.51.4-.71.71.01.9.14 1.57.37 1.99.23.42.6.63 1.13.63.45 0 .79-.17 1.02-.5zm8.94-1.81c0 1-.21 1.8-.64 2.42-.42.61-1.03.92-1.81.92-.66 0-1.2-.24-1.6-.7v2.98l-1.35.15v-8.93h1.16l.09.82c.24-.32.51-.56.83-.73.32-.17.65-.25 1.01-.25 1.54 0 2.3 1.1 2.3 3.32zm-3.45-2.04c-.23.17-.43.39-.6.66v2.96c.3.48.72.71 1.24.71.46 0 .81-.18 1.04-.55.24-.37.35-.94.35-1.73 0-.8-.1-1.4-.31-1.76-.2-.36-.52-.54-.95-.54-.28 0-.53.08-.77.25zm4.7 5.22L49 15.66l-2.03-3h1.55l1.3 2.24 1.29-2.24h1.47L50.6 15.6l2.28 3.4h-1.57l-1.56-2.6L48.2 19h-1.48z"/></g></g></svg>