<svg xmlns="http://www.w3.org/2000/svg" xmlns:xlink="http://www.w3.org/1999/xlink" viewBox="0 0 360 120"><defs><rect id="a" width="279" height="30" rx="2"/></defs><g fill="none" fill-rule="evenodd"><g transform="translate(41 45)"><use fill="#FFFFFF" xlink:href="#a"/><rect width="280" height="31" x="-.5" y="-.5" stroke="#0A84FF" rx="2"/><rect width="283" height="34" x="-2" y="-2" stroke="#0A84FF" stroke-opacity=".3" stroke-width="4" opacity=".52" rx="2"/><path fill="#0C0C0D" fill-rule="nonzero" d="M14.7 17.72a1 1 0 1 0-1.41-1.41l-4.96 4.95a1 1 0 1 0 1.41 1.41l4.95-4.95zm3.26 1.32a6 6 0 1 0 0-12 6 6 0 0 0 0 12zm0-2a4 4 0 1 1 0-8 4 4 0 0 1 0 8z" opacity=".4"/><path fill="#0C0C0D" fill-opacity=".4" d="M34.61 19.2c.24.27.56.48.95.63a3.78 3.78 0 0 0 2.6-.02c.38-.15.67-.37.88-.64.21-.28.32-.6.32-.94 0-.45-.17-.82-.51-1.12-.34-.3-.88-.53-1.6-.72l-1.36-.35A4.28 4.28 0 0 1 33.8 15a2.5 2.5 0 0 1-.65-1.8c0-.6.16-1.12.47-1.58.31-.46.75-.8 1.31-1.06a4.75 4.75 0 0 1 1.96-.38c.67 0 1.28.13 1.82.38.55.24.98.6 1.31 1.04.33.44.5.94.54 1.5h-1.32a1.9 1.9 0 0 0-.78-1.27 2.7 2.7 0 0 0-1.62-.45c-.46 0-.87.07-1.23.22-.35.14-.62.35-.82.62-.19.27-.29.58-.29.93 0 .41.16.75.48 1 .31.27.83.49 1.56.68l1.1.29a7 7 0 0 1 1.78.67c.45.25.78.57.98.94.21.37.32.82.32 1.34 0 .64-.17 1.2-.49 1.68-.32.48-.78.85-1.37 1.11a5.2 5.2 0 0 1-2.1.39c-.73 0-1.4-.13-1.97-.37a3.31 3.31 0 0 1-1.37-1.06 2.94 2.94 0 0 1-.58-1.58h1.34c.05.36.2.68.43.96zm13.46 1.36c-.58.39-1.3.58-2.16.58a3.24 3.24 0 0 1-3.13-1.92 5.05 5.05 0 0 1-.43-2.16c0-.82.14-1.54.43-2.16a3.3 3.3 0 0 1 3.13-1.93 3.1 3.1 0 0 1 3.01 1.86 5 5 0 0 1 .42 2.1v.49h-5.68v.06c.02.51.13.97.32 1.35.2.38.46.68.79.88.33.21.72.32 1.17.32.5 0 .93-.1 1.27-.28.34-.18.6-.44.76-.8h1.26a2.74 2.74 0 0 1-1.16 1.61zm-3.29-6.2c-.33.2-.59.47-.78.82-.2.35-.31.76-.34 1.22h4.35c0-.46-.1-.87-.28-1.22a2 2 0 0 0-1.84-1.1c-.41 0-.78.1-1.1.29zm7.36 6.49c-.4-.2-.72-.47-.95-.82a2.23 2.23 0 0 1-.34-1.24 2 2 0 0 1 .74-1.66c.5-.4 1.21-.62 2.13-.68l2.28-.14v-.72c0-.48-.15-.86-.45-1.12-.3-.25-.75-.38-1.34-.38-.47 0-.86.08-1.17.25-.32.17-.52.41-.6.73h-1.28c.05-.42.22-.8.5-1.1.28-.33.64-.57 1.09-.74.45-.18.95-.26 1.5-.26.64 0 1.19.1 1.63.31.45.21.8.51 1.03.9.23.4.35.87.35 1.41V21h-1.2v-1.16h-.12c-.25.42-.59.74-1 .96-.43.23-.9.34-1.43.34-.5 0-.96-.1-1.37-.29zm2.76-1.08c.34-.17.61-.4.8-.7.2-.3.3-.64.3-1.01v-.73l-2.12.14c-.6.04-1.04.16-1.31.37-.28.21-.42.52-.42.92s.15.7.45.93c.3.23.68.34 1.15.34.42 0 .8-.08 1.15-.26zm5.9-6.67v1.18h.1c.09-.26.23-.48.44-.68.22-.2.48-.35.78-.47.3-.1.63-.16.98-.16.24 0 .45 0 .63.03v1.26a4.97 4.97 0 0 0-.8-.07c-.4 0-.76.08-1.07.24a1.84 1.84 0 0 0-1.01 1.68V21h-1.26v-7.9h1.2zm8.85 1.4c-.35-.27-.8-.4-1.34-.4a2.12 2.12 0 0 0-2.04 1.38 3.9 3.9 0 0 0-.28 1.54c0 .6.1 1.13.29 1.58.19.45.46.8.8 1.04.36.24.76.36 1.23.36.53 0 .97-.12 1.33-.35.35-.24.59-.59.7-1.03h1.28a2.85 2.85 0 0 1-1.67 2.2 3.9 3.9 0 0 1-1.64.32 3.31 3.31 0 0 1-3.18-1.94 5 5 0 0 1-.44-2.18c0-.81.15-1.53.44-2.14a3.3 3.3 0 0 1 1.26-1.41c.55-.34 1.19-.5 1.92-.5.62 0 1.16.1 1.64.34a2.9 2.9 0 0 1 1.67 2.22h-1.28c-.1-.42-.34-.76-.69-1.03zm5.16-4.53v4.38h.12c.2-.44.5-.79.92-1.03.4-.24.91-.35 1.5-.35.57 0 1.05.11 1.46.34.4.23.72.56.94 1 .22.44.33.97.33 1.58V21h-1.26v-4.8c0-.7-.15-1.23-.46-1.58-.3-.34-.76-.52-1.36-.52-.46 0-.86.1-1.19.28-.32.18-.57.44-.74.78-.17.33-.26.72-.26 1.17V21h-1.26V9.97h1.26zM88.97 21l-2.88-10.57h1.38l2.1 8.6h.09l2.36-8.6h1.33l2.37 8.6h.09l2.1-8.6h1.38L96.4 21h-1.25l-2.43-8.34h-.09L90.21 21h-1.24zm16.76-.44c-.58.39-1.3.58-2.17.58a3.24 3.24 0 0 1-3.13-1.92 5.05 5.05 0 0 1-.42-2.16c0-.82.14-1.54.43-2.16a3.3 3.3 0 0 1 3.12-1.93 3.1 3.1 0 0 1 3.01 1.86 5 5 0 0 1 .42 2.1v.49h-5.67v.06c.02.51.12.97.32 1.35.19.38.45.68.79.88a2.7 2.7 0 0 0 2.44.04c.34-.18.6-.44.76-.8h1.26a2.74 2.74 0 0 1-1.16 1.61zm-3.3-6.2c-.32.2-.58.47-.78.82-.2.35-.3.76-.33 1.22h4.35c-.01-.46-.1-.87-.28-1.22a2 2 0 0 0-1.84-1.1c-.41 0-.79.1-1.11.29zm8.98 6.4c-.45-.24-.8-.58-1.05-1.02h-.12V21h-1.2V9.97h1.26v4.38h.12c.22-.43.55-.76 1-1.01a3 3 0 0 1 1.48-.37 3.04 3.04 0 0 1 2.9 1.93c.27.61.4 1.33.4 2.15 0 .82-.13 1.53-.4 2.15a3.04 3.04 0 0 1-2.9 1.94c-.55 0-1.05-.12-1.5-.37zm-.04-6.3c-.36.24-.63.58-.81 1.02a4 4 0 0 0-.29 1.57 4 4 0 0 0 .29 1.57c.18.44.45.79.8 1.03.36.23.77.35 1.24.35.48 0 .9-.11 1.24-.35.34-.23.6-.57.79-1.02.18-.44.27-.97.27-1.58 0-.6-.09-1.14-.27-1.58a2.2 2.2 0 0 0-.8-1.02 2.14 2.14 0 0 0-1.23-.35c-.47 0-.88.12-1.23.36zm7.02-.37c.25-.35.6-.62 1.05-.82.45-.2.95-.3 1.5-.3s1.04.08 1.47.26c.43.17.78.41 1.04.73s.42.7.47 1.12h-1.25a1.28 1.28 0 0 0-.58-.76c-.3-.2-.68-.29-1.15-.29-.31 0-.6.05-.85.15-.26.1-.46.24-.6.42a.94.94 0 0 0-.22.61c0 .27.1.5.33.67.22.18.57.33 1.04.44l1.21.3c.76.17 1.31.43 1.67.78.36.34.54.79.54 1.35 0 .47-.14.88-.42 1.24-.27.36-.65.64-1.13.85-.48.2-1.02.3-1.62.3-.58 0-1.1-.09-1.55-.26a2.61 2.61 0 0 1-1.08-.76c-.27-.32-.43-.7-.47-1.13h1.3c.1.34.31.6.63.8.32.2.72.29 1.22.29.35 0 .66-.06.94-.16.28-.1.5-.25.65-.44.15-.18.23-.4.23-.63 0-.54-.42-.91-1.25-1.12l-1.36-.33a3.47 3.47 0 0 1-1.63-.78c-.35-.34-.52-.79-.52-1.35 0-.43.13-.83.39-1.18zm7.69-2.85a.85.85 0 0 1-.26-.62c0-.24.08-.45.26-.62a.85.85 0 0 1 .61-.26c.25 0 .46.09.63.26.17.17.25.38.25.62s-.08.45-.25.62a.84.84 0 0 1-.63.26.85.85 0 0 1-.61-.26zm1.24 1.86V21h-1.26v-7.9h1.26zm4.2 0h1.75v1.06h-1.76v4.47c0 .46.1.8.28 1 .19.22.49.32.9.32.18 0 .37 0 .58-.03V21c-.28.04-.52.07-.74.07-.54 0-.98-.07-1.32-.21a1.4 1.4 0 0 1-.72-.68c-.16-.3-.24-.71-.24-1.22v-4.8h-1.27V13.1h1.27v-2.04h1.26v2.04zm8.87 7.46c-.58.39-1.3.58-2.16.58a3.24 3.24 0 0 1-3.13-1.92 5.05 5.05 0 0 1-.43-2.16c0-.82.15-1.54.44-2.16a3.3 3.3 0 0 1 3.12-1.93 3.1 3.1 0 0 1 3.01 1.86 5 5 0 0 1 .42 2.1v.49h-5.68v.06c.02.51.13.97.32 1.35.2.38.46.68.8.88a2.7 2.7 0 0 0 2.44.04c.34-.18.59-.44.76-.8h1.26a2.74 2.74 0 0 1-1.17 1.61zm-3.29-6.2c-.32.2-.59.47-.78.82-.2.35-.3.76-.34 1.22h4.35c0-.46-.1-.87-.28-1.22a2 2 0 0 0-1.83-1.1c-.42 0-.79.1-1.12.29zm6.74-.27c.25-.35.6-.62 1.06-.82.44-.2.95-.3 1.5-.3.54 0 1.03.08 1.46.26.43.17.78.41 1.04.73s.42.7.47 1.12h-1.24a1.28 1.28 0 0 0-.59-.76c-.3-.2-.68-.29-1.15-.29-.31 0-.6.05-.85.15-.25.1-.45.24-.6.42a.94.94 0 0 0-.22.61c0 .27.11.5.33.67.23.18.57.33 1.04.44l1.22.3c.75.17 1.3.43 1.66.78.36.34.54.79.54 1.35 0 .47-.14.88-.41 1.24-.28.36-.66.64-1.14.85-.48.2-1.02.3-1.61.3-.59 0-1.1-.09-1.55-.26a2.61 2.61 0 0 1-1.09-.76c-.27-.32-.43-.7-.47-1.13h1.3c.1.34.32.6.63.8.32.2.73.29 1.22.29.35 0 .66-.06.94-.16.28-.1.5-.25.65-.44.16-.18.23-.4.23-.63 0-.54-.41-.91-1.25-1.12l-1.35-.33a3.47 3.47 0 0 1-1.64-.78c-.35-.34-.52-.79-.52-1.35 0-.43.13-.83.39-1.18z"/><text fill="#000000" font-family="SegoeUI, Segoe UI" font-size="15"><tspan x="31" y="19">|</tspan></text></g><g transform="translate(28 70)"><rect width="57" height="22" y="4" fill="#30E60B" rx="2"/><polygon fill="#30E60B" points="25 4 29 0 33 4 29 8"/><path fill="#000000" d="M9.36 17.94V19h-5v-1.06h2.01V12.1l-1.82 1.12-.58-.94 2.55-1.56H7.7v7.22h1.66zm6.12-4.09c.35.2.63.5.84.9.2.4.31.89.31 1.45 0 .59-.12 1.1-.35 1.55a2.57 2.57 0 0 1-2.38 1.4c-1 0-1.72-.35-2.19-1.07-.46-.71-.7-1.7-.7-2.93 0-.92.14-1.73.4-2.42.26-.7.63-1.23 1.13-1.6a2.8 2.8 0 0 1 1.75-.58 3 3 0 0 1 1.7.5l-.51.87a2.19 2.19 0 0 0-1.19-.35c-.56 0-1 .26-1.34.79a4.27 4.27 0 0 0-.55 2.16 2.27 2.27 0 0 1 1.9-.97c.43 0 .83.1 1.18.3zm-.55 3.78c.23-.33.35-.79.35-1.37 0-1.14-.42-1.71-1.26-1.71-.32 0-.62.08-.9.26-.27.17-.51.4-.71.71.01.9.14 1.57.37 1.99.23.42.6.63 1.13.63.45 0 .79-.17 1.02-.5zm6.48-3.06l1.75-.75.37 1.16-1.85.38 1.3 1.4-1 .75-.98-1.65-.91 1.68-1.03-.72 1.27-1.46-1.86-.38.37-1.16 1.74.75-.2-1.9h1.24l-.21 1.9zm9.55 3.37V19h-5v-1.06h2.01V12.1l-1.82 1.12-.58-.94 2.55-1.56h1.18v7.22h1.66zm6.12-4.09c.35.2.63.5.84.9.2.4.31.89.31 1.45 0 .59-.12 1.1-.35 1.55a2.57 2.57 0 0 1-2.38 1.4c-1 0-1.72-.35-2.19-1.07-.46-.71-.7-1.7-.7-2.93 0-.92.14-1.73.4-2.42.26-.7.63-1.23 1.13-1.6a2.8 2.8 0 0 1 1.75-.58 3 3 0 0 1 1.7.5l-.51.87a2.19 2.19 0 0 0-1.19-.35c-.56 0-1 .26-1.34.79a4.27 4.27 0 0 0-.55 2.16 2.27 2.27 0 0 1 1.9-.97c.43 0 .83.1 1.18.3zm-.55 3.78c.23-.33.35-.79.35-1.37 0-1.14-.42-1.71-1.26-1.71-.32 0-.62.08-.9.26-.27.17-.51.4-.71.71.01.9.14 1.57.37 1.99.23.42.6.63 1.13.63.45 0 .79-.17 1.02-.5zm8.94-1.81c0 1-.21 1.8-.64 2.42-.42.61-1.03.92-1.81.92-.66 0-1.2-.24-1.6-.7v2.98l-1.35.15v-8.93h1.16l.09.82c.24-.32.51-.56.83-.73.32-.17.65-.25 1.01-.25 1.54 0 2.3 1.1 2.3 3.32zm-3.45-2.04c-.23.17-.43.39-.6.66v2.96c.3.48.72.71 1.24.71.46 0 .81-.18 1.04-.55.24-.37.35-.94.35-1.73 0-.8-.1-1.4-.31-1.76-.2-.36-.52-.54-.95-.54-.28 0-.53.08-.77.25zm4.7 5.22L49 15.66l-2.03-3h1.55l1.3 2.24 1.29-2.24h1.47L50.6 15.6l2.28 3.4h-1.57l-1.56-2.6L48.2 19h-1.48z"/></g><rect width="16" height="16" x="49" y="52" fill="#FFE900" fill-opacity=".5" stroke="#30E60B"/></g></svg>