<svg xmlns="http://www.w3.org/2000/svg" viewBox="0 0 504 100"><g fill="none" fill-rule="evenodd"><g transform="translate(300 36)"><path fill="#00BDDF" fill-rule="nonzero" d="M2 1a1 1 0 0 0-1 1v26a1 1 0 0 0 1 1h174a1 1 0 0 0 1-1V2a1 1 0 0 0-1-1H2zm0-1h174a2 2 0 0 1 2 2v26a2 2 0 0 1-2 2H2a2 2 0 0 1-2-2V2C0 .9.9 0 2 0z"/><path fill="#B1EDF6" fill-rule="nonzero" d="M2 0a2 2 0 0 0-2 2v26c0 1.1.9 2 2 2h174a2 2 0 0 0 2-2V2a2 2 0 0 0-2-2H2zm0-1h174a3 3 0 0 1 3 3v26a3 3 0 0 1-3 3H2a3 3 0 0 1-3-3V2a3 3 0 0 1 3-3z"/><path fill="#DFF8FB" fill-rule="nonzero" d="M2 0a2 2 0 0 0-2 2v26c0 1.1.9 2 2 2h174a2 2 0 0 0 2-2V2a2 2 0 0 0-2-2H2zm0-3h174a5 5 0 0 1 5 5v26a5 5 0 0 1-5 5H2a5 5 0 0 1-5-5V2a5 5 0 0 1 5-5z"/><path fill="#0C0C0D" fill-rule="nonzero" d="M14.7 17.72a1 1 0 1 0-1.41-1.41l-4.96 4.95a1 1 0 1 0 1.41 1.41l4.95-4.95zm3.26 1.32a6 6 0 1 0 0-12 6 6 0 0 0 0 12zm0-2a4 4 0 1 1 0-8 4 4 0 0 1 0 8z" opacity=".4"/><path fill="#0C0C0D" d="M43.12 12.1h-1.27l-1.55 6.32h-.12l-1.76-6.32H37.2l-1.77 6.32h-.11l-1.56-6.32H32.5L34.7 20h1.27l1.76-6.1h.12l1.76 6.1h1.29l2.2-7.9zm11.61 0h-1.26l-1.56 6.32h-.11l-1.77-6.32h-1.2l-1.77 6.32h-.12L45.4 12.1H44.1l2.22 7.9h1.27l1.76-6.1h.12l1.76 6.1h1.28l2.21-7.9zm11.62 0h-1.27l-1.55 6.32h-.12l-1.76-6.32h-1.21l-1.77 6.32h-.11L57 12.1h-1.27l2.21 7.9h1.28l1.75-6.1h.12l1.77 6.1h1.28l2.21-7.9zm1.63 7.97a.95.95 0 1 0 0 0zm3.5-.07h1.26v-6.84h1.8V12.1h-1.8v-.73c0-.88.42-1.27 1.18-1.27.25 0 .53.03.7.07V9.12c-.3-.06-.53-.08-.78-.08-1.52 0-2.36.68-2.36 2.3v.76h-1.31v1.06h1.3V20zm4.93 0h1.26v-7.9H76.4V20zm.63-9.5c.48 0 .88-.4.88-.88s-.4-.88-.88-.88a.88.88 0 0 0 0 1.76zm3.03 9.5h1.26v-4.9c0-1.1.87-1.91 2.07-1.91.25 0 .7.04.8.07V12a5.41 5.41 0 0 0-.62-.03c-1.05 0-1.96.54-2.2 1.3h-.11V12.1h-1.2V20zm8.64-6.92c-1.26 0-2.14.92-2.23 2.32h4.35c-.03-1.4-.87-2.32-2.12-2.32zm2.08 4.88h1.26c-.38 1.35-1.6 2.18-3.32 2.18-2.2 0-3.56-1.58-3.56-4.08 0-2.48 1.39-4.1 3.56-4.1 2.13 0 3.42 1.52 3.42 3.98v.48h-5.67v.06c.06 1.56.94 2.55 2.28 2.55 1.01 0 1.7-.38 2.03-1.07zM94.66 20h1.26v-6.84h1.8V12.1h-1.8v-.73c0-.88.42-1.27 1.18-1.27.25 0 .53.03.7.07V9.12c-.3-.06-.53-.08-.78-.08-1.52 0-2.36.68-2.36 2.3v.76h-1.31v1.06h1.3V20zm7.81.14c-2.24 0-3.64-1.55-3.64-4.09s1.4-4.08 3.64-4.08c2.25 0 3.64 1.54 3.64 4.08s-1.39 4.09-3.64 4.09zm0-1.14c1.5 0 2.34-1.08 2.34-2.95s-.84-2.95-2.34-2.95-2.33 1.08-2.33 2.95.84 2.95 2.33 2.95z"/><polygon fill="#000000" points="107.344 22.53 106.26 22.53 106.26 7.53 107.344 7.53"/><g transform="translate(156 9)"><circle cx="6.5" cy="6.5" r="6.5" fill="#797676"/><g fill="#FFFFFF" fill-rule="nonzero" transform="translate(4 4)"><polygon points="5 -.778 -.778 5 0 5.778 5.778 0"/><polygon points="5.778 5 0 -.778 -.778 0 5 5.778"/></g></g></g><g transform="translate(108 14)"><g transform="translate(0 22)"><path fill="#00BDDF" fill-rule="nonzero" d="M2 1a1 1 0 0 0-1 1v26a1 1 0 0 0 1 1h174a1 1 0 0 0 1-1V2a1 1 0 0 0-1-1H2zm0-1h174a2 2 0 0 1 2 2v26a2 2 0 0 1-2 2H2a2 2 0 0 1-2-2V2C0 .9.9 0 2 0z"/><path fill="#B1EDF6" fill-rule="nonzero" d="M2 0a2 2 0 0 0-2 2v26c0 1.1.9 2 2 2h174a2 2 0 0 0 2-2V2a2 2 0 0 0-2-2H2zm0-1h174a3 3 0 0 1 3 3v26a3 3 0 0 1-3 3H2a3 3 0 0 1-3-3V2a3 3 0 0 1 3-3z"/><path fill="#DFF8FB" fill-rule="nonzero" d="M2 0a2 2 0 0 0-2 2v26c0 1.1.9 2 2 2h174a2 2 0 0 0 2-2V2a2 2 0 0 0-2-2H2zm0-3h174a5 5 0 0 1 5 5v26a5 5 0 0 1-5 5H2a5 5 0 0 1-5-5V2a5 5 0 0 1 5-5z"/><g transform="translate(9 3)"><path fill="#0C0C0D" d="M11.76 17V6.43h-1.53l-3.62 8.75H6.5L2.88 6.43H1.35V17h1.23V8.93h.09l3.33 8H7.1l3.33-8h.1V17h1.22zm5.78.14c-2.25 0-3.64-1.55-3.64-4.09s1.4-4.08 3.64-4.08c2.25 0 3.64 1.54 3.64 4.08s-1.39 4.09-3.64 4.09zm0-1.14c1.5 0 2.34-1.08 2.34-2.95s-.84-2.95-2.34-2.95-2.33 1.08-2.33 2.95.84 2.95 2.33 2.95zm5.22 1h6.08v-1.05h-4.56v-.12l4.53-5.78V9.1h-6.05v1.06h4.55v.12l-4.55 5.8V17zm8.3 0h1.25V9.1h-1.26V17zm.62-9.5a.88.88 0 0 0 0-1.76.88.88 0 0 0 0 1.76zM34.8 17h1.26V5.97h-1.26V17zm3.78 0h1.26V5.97h-1.26V17zm6.14-.97c1.3 0 2.25-.85 2.25-1.97v-.73l-2.12.14c-1.2.08-1.73.5-1.73 1.29 0 .8.68 1.27 1.6 1.27zm-.24 1.1c-1.53 0-2.66-.9-2.66-2.34 0-1.42 1.04-2.23 2.88-2.34l2.27-.14v-.72c0-.97-.6-1.5-1.78-1.5-.95 0-1.6.35-1.78.98h-1.28c.17-1.27 1.42-2.1 3.1-2.1 1.93 0 3 .98 3 2.62V17h-1.2v-1.16h-.12a2.73 2.73 0 0 1-2.43 1.3zm7.56-.13v-4.58h4.68v-1.17h-4.68V7.62h5.1V6.43H50.7V17h1.32zm7.14 0h1.25V9.1h-1.25V17zm.62-9.5a.88.88 0 0 0 0-1.76.88.88 0 0 0 0 1.76zm3.04 9.5h1.26v-4.9c0-1.1.87-1.91 2.07-1.91.25 0 .7.04.8.07V9a5.41 5.41 0 0 0-.62-.03c-1.05 0-1.96.54-2.2 1.3h-.11V9.1h-1.2V17z"/><polygon fill="#000000" points="68.344 19.53 67.26 19.53 67.26 4.53 68.344 4.53"/></g></g><path fill="#0C0C0D" d="M6.84 14.97H2.31v-3.15h4.3v-1.01H2.3V7.87h4.53V6.84H1.17V16h5.67v-1.03zM8.77 16h1.1v-4.24c0-.97.69-1.74 1.58-1.74.86 0 1.43.52 1.43 1.33V16h1.1v-4.4c0-.87.63-1.58 1.58-1.58.96 0 1.44.5 1.44 1.5V16h1.1v-4.73c0-1.43-.79-2.23-2.19-2.23a2.3 2.3 0 0 0-2.1 1.2h-.1a1.98 1.98 0 0 0-1.88-1.2c-.92 0-1.6.43-1.91 1.2h-.1V9.16H8.76V16zm13.42-.84c1.12 0 1.96-.73 1.96-1.71v-.63l-1.84.12c-1.05.07-1.5.43-1.5 1.12 0 .7.59 1.1 1.38 1.1zm-.2.96c-1.33 0-2.31-.79-2.31-2.04 0-1.22.9-1.93 2.5-2.02l1.97-.12v-.62c0-.85-.53-1.31-1.55-1.31-.82 0-1.4.3-1.54.85h-1.1c.14-1.1 1.22-1.82 2.68-1.82 1.67 0 2.6.85 2.6 2.28V16H24.2v-1h-.1a2.36 2.36 0 0 1-2.11 1.12zm5.3-.12h1.08V9.16h-1.09V16zm.54-8.23c.42 0 .76-.35.76-.76a.76.76 0 0 0-.76-.77.76.76 0 0 0-.76.77c0 .41.34.76.76.76zM30.52 16h1.1V6.44h-1.1V16zm8.99-.84c1.12 0 1.95-.73 1.95-1.71v-.63l-1.84.12c-1.04.07-1.5.43-1.5 1.12 0 .7.6 1.1 1.39 1.1zm-.2.96c-1.33 0-2.32-.79-2.32-2.04 0-1.22.9-1.93 2.5-2.02l1.97-.12v-.62c0-.85-.52-1.31-1.55-1.31-.81 0-1.39.3-1.54.85h-1.1c.14-1.1 1.22-1.82 2.68-1.82 1.67 0 2.6.85 2.6 2.28V16h-1.04v-1h-.1a2.36 2.36 0 0 1-2.1 1.12zm7.8 0c-1.76 0-2.88-1.39-2.88-3.54 0-2.15 1.14-3.54 2.88-3.54.95 0 1.75.45 2.14 1.2h.1v-3.8h1.09V16H49.4v-1.1h-.1a2.45 2.45 0 0 1-2.2 1.22zm.25-6.1c-1.24 0-2 .97-2 2.56 0 1.6.75 2.56 2 2.56 1.24 0 2.01-.98 2.01-2.56 0-1.57-.77-2.56-2.01-2.56zm7.73 6.1c-1.75 0-2.87-1.39-2.87-3.54 0-2.15 1.13-3.54 2.87-3.54.95 0 1.76.45 2.15 1.2h.1v-3.8h1.08V16h-1.04v-1.1h-.1a2.45 2.45 0 0 1-2.19 1.22zm.26-6.1c-1.25 0-2 .97-2 2.56 0 1.6.74 2.56 2 2.56 1.24 0 2-.98 2-2.56 0-1.57-.77-2.56-2-2.56zm5.2 5.98h1.09v-4.24c0-.97.75-1.66 1.8-1.66.2 0 .6.03.69.06v-1.1a4.69 4.69 0 0 0-.55-.02c-.9 0-1.69.47-1.9 1.13h-.1V9.16h-1.04V16zm7.67-6c-1.09 0-1.85.8-1.93 2.01h3.77c-.03-1.2-.75-2-1.84-2zm1.8 4.23h1.1c-.33 1.17-1.38 1.9-2.88 1.9-1.9 0-3.09-1.38-3.09-3.55 0-2.15 1.2-3.54 3.09-3.54 1.84 0 2.97 1.31 2.97 3.44v.42h-4.92v.05c.06 1.35.81 2.2 1.97 2.2.89 0 1.48-.32 1.77-.92zm2.74-3.2c0 .99.59 1.54 1.87 1.85l1.17.29c.73.18 1.09.5 1.09.96 0 .63-.66 1.07-1.58 1.07-.88 0-1.42-.37-1.6-.95h-1.13c.12 1.14 1.17 1.87 2.7 1.87 1.55 0 2.73-.84 2.73-2.07 0-.98-.62-1.54-1.9-1.85l-1.06-.26c-.8-.2-1.19-.48-1.19-.95 0-.61.64-1.03 1.45-1.03.82 0 1.36.37 1.5.91h1.08c-.14-1.12-1.14-1.83-2.58-1.83-1.45 0-2.55.85-2.55 1.99zm6.8 0c0 .99.6 1.54 1.87 1.85l1.18.29c.73.18 1.08.5 1.08.96 0 .63-.66 1.07-1.58 1.07-.87 0-1.42-.37-1.6-.95h-1.13c.12 1.14 1.17 1.87 2.7 1.87 1.55 0 2.74-.84 2.74-2.07 0-.98-.62-1.54-1.91-1.85l-1.06-.26c-.8-.2-1.18-.48-1.18-.95 0-.61.63-1.03 1.44-1.03.83 0 1.36.37 1.5.91h1.09c-.15-1.12-1.15-1.83-2.58-1.83-1.45 0-2.55.85-2.55 1.99z"/><g transform="translate(156 31)"><circle cx="6.5" cy="6.5" r="6.5" fill="#797676"/><g fill="#FFFFFF" fill-rule="nonzero" transform="translate(4 4)"><polygon points="5 -.778 -.778 5 0 5.778 5.778 0"/><polygon points="5.778 5 0 -.778 -.778 0 5 5.778"/></g></g></g><g transform="translate(56 38)"><rect width="38" height="22" fill="#0A84FF" rx="2"/><polygon fill="#0A84FF" points="34 11 38 7 42 11 38 15"/><path fill="#FFFFFF" d="M8.88 13H7.5V5.85H5V4.72h6.43l-.15 1.13H8.88V13zm7.35.02a4.13 4.13 0 0 1-1.11 1.81c-.49.44-1.15.69-2 .76l-.17-1c.42-.07.75-.17 1.01-.3.26-.13.46-.3.61-.5.15-.2.29-.46.41-.79h-.46L12.4 6.66h1.43l1.6 5.4 1.61-5.4h1.38l-2.18 6.36zm9.24-3.2c0 1-.21 1.8-.64 2.42-.42.61-1.03.92-1.81.92-.66 0-1.2-.24-1.6-.7v2.98l-1.35.15V6.66h1.16l.09.82c.24-.32.51-.56.83-.73.32-.17.65-.25 1.01-.25 1.54 0 2.3 1.1 2.3 3.32zm-3.45-2.04c-.23.17-.43.39-.6.66v2.96c.3.48.72.71 1.24.71.46 0 .81-.18 1.04-.55.24-.37.35-.94.35-1.73 0-.8-.1-1.4-.31-1.76-.2-.36-.52-.54-.95-.54-.28 0-.53.08-.77.25zm6.9 3.87c.31.3.71.46 1.2.46.29 0 .57-.04.84-.14.27-.09.54-.23.82-.41l.58.82c-.3.24-.65.44-1.05.57-.4.14-.82.2-1.26.2-.97 0-1.72-.3-2.25-.9a3.5 3.5 0 0 1-.8-2.42c0-.63.1-1.2.34-1.7.23-.52.57-.91 1-1.2.45-.29.96-.43 1.54-.43.84 0 1.51.28 2 .84.5.57.74 1.34.74 2.32 0 .24-.01.44-.04.6h-4.2c.04.62.22 1.08.54 1.39zm-.08-3.69a2.3 2.3 0 0 0-.47 1.4h2.94a2.38 2.38 0 0 0-.38-1.39 1.21 1.21 0 0 0-1.03-.48c-.44 0-.79.16-1.06.47z"/></g></g></svg>