<svg xmlns="http://www.w3.org/2000/svg" viewBox="0 0 504 100"><g fill="none" fill-rule="evenodd"><g transform="translate(108 14)"><g transform="translate(0 22)"><path fill="#FF0039" fill-rule="nonzero" d="M2 1a1 1 0 0 0-1 1v26a1 1 0 0 0 1 1h174a1 1 0 0 0 1-1V2a1 1 0 0 0-1-1H2zm0-1h174a2 2 0 0 1 2 2v26a2 2 0 0 1-2 2H2a2 2 0 0 1-2-2V2C0 .9.9 0 2 0z"/><path fill="#0C0C0D" d="M20.76 20V9.43h-1.53l-3.62 8.75h-.11l-3.62-8.75h-1.53V20h1.23v-8.07h.09l3.33 8h1.11l3.33-8h.1V20h1.22zm5.78.14c-2.25 0-3.64-1.55-3.64-4.09s1.4-4.08 3.64-4.08c2.25 0 3.64 1.54 3.64 4.08s-1.39 4.09-3.64 4.09zm0-1.14c1.5 0 2.34-1.08 2.34-2.95s-.84-2.95-2.34-2.95-2.33 1.08-2.33 2.95.84 2.95 2.33 2.95zm5.22 1h6.08v-1.05h-4.56v-.12l4.53-5.78v-.95h-6.05v1.06h4.55v.12l-4.55 5.8V20zm8.3 0h1.25v-7.9h-1.26V20zm.62-9.5a.88.88 0 0 0 0-1.76.88.88 0 0 0 0 1.76zM43.8 20h1.26V8.97h-1.26V20zm3.78 0h1.26V8.97h-1.26V20zm6.14-.97c1.3 0 2.25-.85 2.25-1.97v-.73l-2.12.14c-1.2.08-1.73.5-1.73 1.29 0 .8.68 1.27 1.6 1.27zm-.24 1.1c-1.53 0-2.66-.9-2.66-2.34 0-1.42 1.04-2.23 2.88-2.34l2.27-.14v-.72c0-.97-.6-1.5-1.78-1.5-.95 0-1.6.35-1.78.98h-1.28c.17-1.27 1.42-2.1 3.1-2.1 1.93 0 3 .98 3 2.62V20h-1.2v-1.16h-.12a2.73 2.73 0 0 1-2.43 1.3zm7.56-.13v-4.58h4.68v-1.17h-4.68v-3.63h5.1V9.43H59.7V20h1.32zm7.14 0h1.25v-7.9h-1.25V20zm.62-9.5a.88.88 0 0 0 0-1.76.88.88 0 0 0 0 1.76zm3.04 9.5h1.26v-4.9c0-1.1.87-1.91 2.07-1.91.25 0 .7.04.8.07V12a5.41 5.41 0 0 0-.62-.03c-1.05 0-1.96.54-2.2 1.3h-.11V12.1h-1.2V20z"/></g><path fill="#0C0C0D" d="M6.84 14.97H2.31v-3.15h4.3v-1.01H2.3V7.87h4.53V6.84H1.17V16h5.67v-1.03zM8.77 16h1.1v-4.24c0-.97.69-1.74 1.58-1.74.86 0 1.43.52 1.43 1.33V16h1.1v-4.4c0-.87.63-1.58 1.58-1.58.96 0 1.44.5 1.44 1.5V16h1.1v-4.73c0-1.43-.79-2.23-2.19-2.23a2.3 2.3 0 0 0-2.1 1.2h-.1a1.98 1.98 0 0 0-1.88-1.2c-.92 0-1.6.43-1.91 1.2h-.1V9.16H8.76V16zm13.42-.84c1.12 0 1.96-.73 1.96-1.71v-.63l-1.84.12c-1.05.07-1.5.43-1.5 1.12 0 .7.59 1.1 1.38 1.1zm-.2.96c-1.33 0-2.31-.79-2.31-2.04 0-1.22.9-1.93 2.5-2.02l1.97-.12v-.62c0-.85-.53-1.31-1.55-1.31-.82 0-1.4.3-1.54.85h-1.1c.14-1.1 1.22-1.82 2.68-1.82 1.67 0 2.6.85 2.6 2.28V16H24.2v-1h-.1a2.36 2.36 0 0 1-2.11 1.12zm5.3-.12h1.08V9.16h-1.09V16zm.54-8.23c.42 0 .76-.35.76-.76a.76.76 0 0 0-.76-.77.76.76 0 0 0-.76.77c0 .41.34.76.76.76zM30.52 16h1.1V6.44h-1.1V16zm8.99-.84c1.12 0 1.95-.73 1.95-1.71v-.63l-1.84.12c-1.04.07-1.5.43-1.5 1.12 0 .7.6 1.1 1.39 1.1zm-.2.96c-1.33 0-2.32-.79-2.32-2.04 0-1.22.9-1.93 2.5-2.02l1.97-.12v-.62c0-.85-.52-1.31-1.55-1.31-.81 0-1.39.3-1.54.85h-1.1c.14-1.1 1.22-1.82 2.68-1.82 1.67 0 2.6.85 2.6 2.28V16h-1.04v-1h-.1a2.36 2.36 0 0 1-2.1 1.12zm7.8 0c-1.76 0-2.88-1.39-2.88-3.54 0-2.15 1.14-3.54 2.88-3.54.95 0 1.75.45 2.14 1.2h.1v-3.8h1.09V16H49.4v-1.1h-.1a2.45 2.45 0 0 1-2.2 1.22zm.25-6.1c-1.24 0-2 .97-2 2.56 0 1.6.75 2.56 2 2.56 1.24 0 2.01-.98 2.01-2.56 0-1.57-.77-2.56-2.01-2.56zm7.73 6.1c-1.75 0-2.87-1.39-2.87-3.54 0-2.15 1.13-3.54 2.87-3.54.95 0 1.76.45 2.15 1.2h.1v-3.8h1.08V16h-1.04v-1.1h-.1a2.45 2.45 0 0 1-2.19 1.22zm.26-6.1c-1.25 0-2 .97-2 2.56 0 1.6.74 2.56 2 2.56 1.24 0 2-.98 2-2.56 0-1.57-.77-2.56-2-2.56zm5.2 5.98h1.09v-4.24c0-.97.75-1.66 1.8-1.66.2 0 .6.03.69.06v-1.1a4.69 4.69 0 0 0-.55-.02c-.9 0-1.69.47-1.9 1.13h-.1V9.16h-1.04V16zm7.67-6c-1.09 0-1.85.8-1.93 2.01h3.77c-.03-1.2-.75-2-1.84-2zm1.8 4.23h1.1c-.33 1.17-1.38 1.9-2.88 1.9-1.9 0-3.09-1.38-3.09-3.55 0-2.15 1.2-3.54 3.09-3.54 1.84 0 2.97 1.31 2.97 3.44v.42h-4.92v.05c.06 1.35.81 2.2 1.97 2.2.89 0 1.48-.32 1.77-.92zm2.74-3.2c0 .99.59 1.54 1.87 1.85l1.17.29c.73.18 1.09.5 1.09.96 0 .63-.66 1.07-1.58 1.07-.88 0-1.42-.37-1.6-.95h-1.13c.12 1.14 1.17 1.87 2.7 1.87 1.55 0 2.73-.84 2.73-2.07 0-.98-.62-1.54-1.9-1.85l-1.06-.26c-.8-.2-1.19-.48-1.19-.95 0-.61.64-1.03 1.45-1.03.82 0 1.36.37 1.5.91h1.08c-.14-1.12-1.14-1.83-2.58-1.83-1.45 0-2.55.85-2.55 1.99zm6.8 0c0 .99.6 1.54 1.87 1.85l1.18.29c.73.18 1.08.5 1.08.96 0 .63-.66 1.07-1.58 1.07-.87 0-1.42-.37-1.6-.95h-1.13c.12 1.14 1.17 1.87 2.7 1.87 1.55 0 2.74-.84 2.74-2.07 0-.98-.62-1.54-1.91-1.85l-1.06-.26c-.8-.2-1.18-.48-1.18-.95 0-.61.63-1.03 1.44-1.03.83 0 1.36.37 1.5.91h1.09c-.15-1.12-1.15-1.83-2.58-1.83-1.45 0-2.55.85-2.55 1.99z"/><path fill="#FF0039" d="M4.18 67l2.86-7.75H6.03l-2.28 6.5h-.09l-2.27-6.5H.37L3.23 67h.95zm5.89-.7c.95 0 1.65-.63 1.65-1.46v-.53l-1.56.1c-.88.06-1.27.37-1.27.95 0 .59.5.93 1.18.93zm-.18.8c-1.12 0-1.95-.66-1.95-1.72 0-1.04.76-1.63 2.1-1.72l1.68-.1v-.52c0-.72-.45-1.11-1.31-1.11-.7 0-1.18.26-1.3.72h-.94c.12-.93 1.04-1.54 2.27-1.54 1.41 0 2.2.72 2.2 1.93V67h-.88v-.85h-.08a2 2 0 0 1-1.79.95zm4.52-.1h.92v-8.09h-.92V67zm2.73 0h.93v-5.79h-.93V67zm.47-6.97c.35 0 .64-.29.64-.64a.65.65 0 0 0-.64-.65.65.65 0 0 0-.65.65c0 .35.3.64.65.64zm4.36 7.07c-1.48 0-2.43-1.17-2.43-3 0-1.81.96-3 2.43-3 .8 0 1.5.39 1.82 1.02h.08v-3.2h.92V67h-.88v-.92h-.08a2.07 2.07 0 0 1-1.86 1.02zm.22-5.16c-1.05 0-1.7.82-1.7 2.16 0 1.36.64 2.17 1.7 2.17 1.05 0 1.7-.83 1.7-2.17 0-1.32-.65-2.16-1.7-2.16zm9.81-.02c-.92 0-1.57.68-1.64 1.7h3.2c-.03-1.02-.64-1.7-1.56-1.7zm1.53 3.58h.92c-.28 1-1.17 1.6-2.44 1.6-1.6 0-2.6-1.16-2.6-2.99 0-1.82 1.01-3 2.6-3 1.56 0 2.52 1.11 2.52 2.9v.36h-4.17v.05c.05 1.14.69 1.87 1.67 1.87.75 0 1.25-.28 1.5-.79zm2.45 1.5h.92v-3.59c0-.81.58-1.47 1.34-1.47.73 0 1.21.44 1.21 1.13V67h.92v-3.72c0-.74.54-1.34 1.35-1.34s1.22.42 1.22 1.27V67h.92v-4c0-1.22-.66-1.9-1.84-1.9-.8 0-1.46.41-1.77 1.02h-.09a1.67 1.67 0 0 0-1.6-1.01c-.77 0-1.35.37-1.62 1.01h-.08v-.91h-.88V67zm11.35-.7c.95 0 1.65-.63 1.65-1.46v-.53l-1.55.1c-.88.06-1.27.37-1.27.95 0 .59.5.93 1.17.93zm-.17.8c-1.12 0-1.96-.66-1.96-1.72 0-1.04.77-1.63 2.11-1.72l1.67-.1v-.52c0-.72-.44-1.11-1.3-1.11-.7 0-1.18.26-1.31.72h-.94c.13-.93 1.04-1.54 2.28-1.54 1.4 0 2.2.72 2.2 1.93V67h-.88v-.85h-.09a2 2 0 0 1-1.78.95zm4.48-.1h.92v-5.79h-.92V67zm.46-6.97c.35 0 .64-.29.64-.64a.65.65 0 0 0-.64-.65.65.65 0 0 0-.64.65c0 .35.29.64.64.64zM54.38 67h.92v-8.09h-.92V67zm5.82 0h.92v-3.59c0-.81.64-1.4 1.52-1.4.19 0 .52.03.6.05v-.93a3.97 3.97 0 0 0-.47-.02c-.77 0-1.43.4-1.6.96h-.09v-.86h-.88V67zm6.5-5.08c-.93 0-1.57.68-1.64 1.7h3.19c-.02-1.02-.63-1.7-1.55-1.7zm1.52 3.58h.93c-.28 1-1.17 1.6-2.44 1.6-1.6 0-2.61-1.16-2.61-2.99 0-1.82 1.02-3 2.6-3 1.57 0 2.52 1.11 2.52 2.9v.36h-4.16v.05c.05 1.14.69 1.87 1.67 1.87.75 0 1.25-.28 1.5-.79zm4.59-4.4c.78 0 1.5.43 1.85 1.08h.08v-.97h.9v7.72h-.94v-2.8h-.08c-.38.63-1 .97-1.81.97-1.48 0-2.43-1.17-2.43-3 0-1.81.96-3 2.43-3zm.2 5.17c1.06 0 1.72-.83 1.72-2.17 0-1.32-.66-2.16-1.71-2.16-1.05 0-1.68.81-1.68 2.16 0 1.36.62 2.17 1.67 2.17zm9.05-5.06h-.92v3.43c0 1.01-.56 1.62-1.58 1.62-.93 0-1.31-.48-1.31-1.53v-3.52h-.93v3.75c0 1.37.68 2.14 1.98 2.14.89 0 1.5-.36 1.8-1h.08v.9h.88v-5.79zM83.82 67h.93v-5.79h-.93V67zm.46-6.97c.36 0 .65-.29.65-.64a.65.65 0 0 0-.65-.65.65.65 0 0 0-.64.65c0 .35.29.64.64.64zM86.51 67h.92v-3.59c0-.81.64-1.4 1.52-1.4.18 0 .52.03.6.05v-.93a3.97 3.97 0 0 0-.47-.02c-.77 0-1.43.4-1.6.96h-.1v-.86h-.87V67zm6.5-5.08c-.93 0-1.57.68-1.64 1.7h3.19c-.02-1.02-.64-1.7-1.55-1.7zm1.52 3.58h.93c-.28 1-1.18 1.6-2.44 1.6-1.6 0-2.61-1.16-2.61-2.99 0-1.82 1.02-3 2.6-3 1.57 0 2.52 1.11 2.52 2.9v.36h-4.16v.05c.05 1.14.69 1.87 1.67 1.87.74 0 1.25-.28 1.5-.79zm4.6 1.6c-1.49 0-2.44-1.17-2.44-3 0-1.81.96-3 2.43-3 .8 0 1.5.39 1.82 1.02h.08v-3.2h.92V67h-.88v-.92h-.08a2.07 2.07 0 0 1-1.86 1.02zm.2-5.16c-1.04 0-1.68.82-1.68 2.16 0 1.36.63 2.17 1.69 2.17 1.05 0 1.7-.83 1.7-2.17 0-1.32-.65-2.16-1.7-2.16z"/><g transform="translate(156 31)"><circle cx="6.5" cy="6.5" r="6.5" fill="#797676"/><g fill="#FFFFFF" fill-rule="nonzero" transform="translate(4 4)"><polygon points="5 -.778 -.778 5 0 5.778 5.778 0"/><polygon points="5.778 5 0 -.778 -.778 0 5 5.778"/></g></g></g><g transform="translate(6 39)"><rect width="88" height="22" fill="#0A84FF" rx="2"/><polygon fill="#0A84FF" points="84 11 88 7 92 11 88 15"/><path fill="#FFFFFF" d="M5.95 8.27h3v1.05h-3v2.62H9.6V13H4.56V4.72h4.98l-.16 1.06H5.95v2.5zm4.52-1.6h1.16l.1.82c.26-.32.57-.56.93-.74.35-.17.73-.25 1.12-.25.58 0 1.02.16 1.32.49.3.33.44.79.44 1.39V13H14.2V9.05c0-.39-.02-.7-.07-.9a.77.77 0 0 0-.25-.47c-.13-.1-.32-.15-.58-.15-.29 0-.56.09-.82.26-.26.18-.48.4-.67.66V13h-1.34V6.66zm10.65 6.35c-.32.1-.66.14-1 .14-.73 0-1.28-.19-1.68-.56a2 2 0 0 1-.58-1.52V7.65h-1.4v-.99h1.4V5.25l1.34-.16v1.57h2.15l-.16.99H19.2v3.42c0 .34.09.6.26.76.18.16.46.25.84.25.43 0 .82-.1 1.18-.3l.48.88a3.1 3.1 0 0 1-.84.36zm3.4-1.37c.31.3.71.46 1.2.46.29 0 .57-.04.84-.14.27-.09.54-.23.82-.41l.58.82c-.3.24-.65.44-1.05.57-.4.14-.82.2-1.26.2-.97 0-1.72-.3-2.25-.9a3.5 3.5 0 0 1-.8-2.42c0-.63.1-1.2.34-1.7.23-.52.57-.91 1-1.2.45-.29.96-.43 1.54-.43.84 0 1.51.28 2 .84.5.57.74 1.34.74 2.32 0 .24-.01.44-.04.6h-4.2c.04.62.22 1.08.54 1.39zm-.08-3.69a2.3 2.3 0 0 0-.47 1.4h2.94a2.38 2.38 0 0 0-.38-1.39 1.21 1.21 0 0 0-1.03-.48c-.44 0-.79.16-1.06.47zm10.08-1.3L34.29 9h-.96V7.7c-.44.02-.82.2-1.15.54-.32.34-.58.82-.77 1.45v2.35h1.27V13h-3.55v-.96h.93V7.62h-.93v-.96h1.95l.24 1.47c.25-.55.55-.95.91-1.22s.8-.4 1.33-.4c.32 0 .64.05.96.15zm11.98-.88h-1.8v6.15h1.8V13h-5v-1.07h1.8V5.78h-1.8V4.72h5v1.06zm1.17.88h1.16l.1.83c.26-.32.57-.56.93-.74.35-.17.73-.25 1.12-.25.58 0 1.02.16 1.32.49.3.33.44.79.44 1.39V13H51.4V9.05c0-.39-.02-.7-.07-.9a.77.77 0 0 0-.25-.47c-.13-.1-.32-.15-.58-.15-.29 0-.56.09-.82.26-.26.18-.48.4-.67.66V13h-1.34V6.66zM57.18 13h-1.56l-2.24-6.34h1.45l1.6 5.22 1.61-5.22h1.38L57.18 13zm7.84-1.01c.08.11.2.2.38.25l-.32.92c-.66-.08-1.1-.38-1.3-.88-.24.29-.53.5-.87.65a2.9 2.9 0 0 1-1.15.23c-.64 0-1.15-.18-1.52-.54a1.89 1.89 0 0 1-.57-1.43c0-.67.26-1.18.79-1.54a3.9 3.9 0 0 1 2.22-.54h.9v-.4c0-.4-.12-.7-.36-.88a1.7 1.7 0 0 0-1.04-.28 6.53 6.53 0 0 0-1.68.32l-.34-.94c.76-.29 1.5-.43 2.22-.43.84 0 1.48.18 1.9.55.42.37.64.89.64 1.57v2.83c0 .24.03.42.1.54zm-2.05-.03c.26-.15.46-.35.61-.6v-1.4h-.74c-.6 0-1.05.1-1.33.3-.28.2-.42.5-.42.88 0 .34.09.6.27.77.18.17.44.26.8.26.28 0 .55-.07.8-.21zm6.08-.69c0 .54.32.8.96.8.32 0 .66-.07 1.01-.21l.34.94c-.44.24-.99.36-1.64.36a2 2 0 0 1-1.48-.54 1.99 1.99 0 0 1-.53-1.47V5.1H65.8v-.98h3.25v7.15zm6.58-7.47c.16.17.25.37.25.6a.8.8 0 0 1-.25.6.86.86 0 0 1-.63.25.86.86 0 0 1-.64-.24.81.81 0 0 1-.24-.6c0-.25.09-.45.25-.61a.86.86 0 0 1 .63-.24c.26 0 .47.08.63.24zm.3 8.22h1.72V13H72.7v-.98h1.88V7.65h-1.82v-.99h3.16v5.36zm7.8-7.9V13h-1.19l-.1-.78a2.12 2.12 0 0 1-1.77.94c-.79 0-1.39-.3-1.79-.9-.4-.58-.6-1.4-.6-2.43 0-.65.1-1.22.31-1.73.2-.5.5-.9.87-1.18.38-.28.82-.42 1.33-.42.65 0 1.18.23 1.6.7V3.95l1.34.16zM80.08 8.1c-.25.38-.37.96-.37 1.73 0 1.54.44 2.3 1.32 2.3.53 0 .98-.3 1.36-.9v-3c-.33-.47-.75-.7-1.25-.7-.46 0-.82.19-1.06.57z"/></g><path fill="#0A84FF" d="M24.52 69.17c.14.48.35.93.64 1.35.3.42.69.87 1.19 1.35l-.61.6a8.1 8.1 0 0 1-1.94-2.22 5.54 5.54 0 0 1-.64-2.75c0-1.07.21-1.98.64-2.75a8.1 8.1 0 0 1 1.94-2.22l.61.6c-.5.47-.88.92-1.18 1.34-.29.41-.5.86-.65 1.35a5.96 5.96 0 0 0-.21 1.68c0 .63.07 1.19.21 1.67zm8.25-2.84c.41.5.62 1.17.62 2.02 0 .85-.21 1.53-.63 2.03-.42.5-1 .75-1.76.75s-1.35-.24-1.77-.73a3.04 3.04 0 0 1-.62-2.04c0-.84.21-1.51.64-2.02.42-.5 1-.76 1.76-.76s1.35.25 1.76.75zm-2.68.59c-.2.31-.3.8-.3 1.44 0 .65.1 1.13.3 1.45.2.3.5.46.91.46a1 1 0 0 0 .91-.47c.2-.31.3-.8.3-1.45 0-.65-.1-1.12-.3-1.43a1 1 0 0 0-.9-.47c-.4 0-.71.16-.92.47zm9.3 1.43c0 .83-.18 1.5-.53 2.02-.35.5-.86.76-1.51.76-.55 0-1-.2-1.34-.58v2.48l-1.12.13v-7.44h.97l.07.68c.2-.27.43-.47.7-.61.26-.14.54-.21.84-.21 1.28 0 1.92.92 1.92 2.77zm-2.87-1.7c-.2.14-.36.32-.51.55v2.47c.26.4.6.59 1.04.59.39 0 .68-.15.87-.46.2-.3.29-.79.29-1.44a3.1 3.1 0 0 0-.26-1.47.85.85 0 0 0-.79-.45c-.23 0-.45.07-.64.21zm8.08 4.37c-.27.07-.55.11-.84.11-.6 0-1.06-.15-1.39-.46a1.66 1.66 0 0 1-.49-1.27v-2.86h-1.17v-.82h1.17v-1.18l1.12-.13v1.31h1.79l-.13.82H43v2.85c0 .29.07.5.22.64.15.13.38.2.7.2.35 0 .68-.08.98-.25l.4.74c-.2.13-.43.23-.7.3zm4.92-7.68c.14.13.21.3.21.5s-.07.37-.2.5a.72.72 0 0 1-.53.2.72.72 0 0 1-.53-.2.68.68 0 0 1-.2-.5c0-.2.07-.38.2-.51.14-.13.32-.2.53-.2.21 0 .39.07.52.2zm.25 6.84h1.44V71h-4.13v-.82h1.57v-3.64h-1.52v-.82h2.64v4.46zm7-3.86c.41.5.62 1.18.62 2.03 0 .85-.21 1.53-.63 2.03-.42.5-1 .75-1.76.75s-1.35-.24-1.77-.73a3.04 3.04 0 0 1-.62-2.04c0-.84.21-1.51.63-2.02.43-.5 1.02-.76 1.77-.76.76 0 1.35.25 1.76.75zm-2.68.6c-.2.31-.3.8-.3 1.44 0 .65.1 1.13.3 1.45.2.3.5.46.91.46a1 1 0 0 0 .91-.47c.2-.31.3-.8.3-1.45 0-.65-.1-1.12-.3-1.43a1 1 0 0 0-.9-.47c-.4 0-.71.16-.91.47zm4.8-1.2h.97l.08.69c.22-.27.48-.47.78-.61.3-.15.6-.22.93-.22.49 0 .85.14 1.1.41.25.27.37.66.37 1.16V71H62v-3.29c0-.33-.02-.58-.05-.75a.64.64 0 0 0-.22-.4c-.1-.08-.27-.12-.48-.12-.24 0-.47.07-.69.22-.21.15-.4.33-.55.55V71h-1.12v-5.28zm10.13 4.44c.06.1.16.16.31.21l-.26.76c-.55-.07-.92-.31-1.09-.73-.2.24-.43.42-.73.54-.29.13-.6.19-.95.19-.53 0-.96-.15-1.27-.45-.31-.3-.47-.7-.47-1.19 0-.55.22-.98.66-1.28.43-.3 1.05-.45 1.85-.45h.75v-.34c0-.33-.1-.58-.3-.73a1.4 1.4 0 0 0-.87-.23 5.44 5.44 0 0 0-1.4.27l-.28-.79a5.2 5.2 0 0 1 1.85-.36c.7 0 1.23.15 1.58.46.35.3.53.74.53 1.31v2.36c0 .2.03.35.09.45zm-1.71-.03c.21-.12.38-.29.51-.5v-1.17h-.62c-.5 0-.88.08-1.11.26a.85.85 0 0 0-.35.73c0 .28.07.5.23.64.15.15.37.22.66.22.23 0 .46-.06.68-.18zm5.9-.57c0 .45.27.67.8.67.27 0 .55-.06.84-.18l.28.78c-.37.2-.82.3-1.36.3-.53 0-.94-.15-1.23-.44-.3-.3-.45-.71-.45-1.23v-5.04H70.5v-.82h2.71v5.96zm6.27-3.74a4.66 4.66 0 0 0-.66-1.35 9.12 9.12 0 0 0-1.17-1.34l.61-.6a8.1 8.1 0 0 1 1.94 2.22c.43.77.64 1.68.64 2.75s-.21 1.98-.64 2.75a8.1 8.1 0 0 1-1.94 2.22l-.61-.6c.5-.48.9-.93 1.18-1.35.3-.42.51-.87.65-1.35.14-.48.21-1.04.21-1.67 0-.63-.07-1.2-.22-1.68z"/></g></svg>