<svg xmlns="http://www.w3.org/2000/svg" width="504" height="100" viewBox="0 0 504 100">
  <g fill="none" fill-rule="evenodd">
    <path fill="#0C0C0D" fill-opacity=".5" fill-rule="nonzero" d="M302,37 C301.447715,37 301,37.4477153 301,38 L301,64 C301,64.5522847 301.447715,65 302,65 L476,65 C476.552285,65 477,64.5522847 477,64 L477,38 C477,37.4477153 476.552285,37 476,37 L302,37 Z M302,36 L476,36 C477.104569,36 478,36.8954305 478,38 L478,64 C478,65.1045695 477.104569,66 476,66 L302,66 C300.895431,66 300,65.1045695 300,64 L300,38 C300,36.8954305 300.895431,36 302,36 Z"/>
    <path fill="#0C0C0D" fill-rule="nonzero" d="M9.30537097,10.7195845 C8.91580555,10.3300191 8.91386021,9.70035412 9.30710716,9.30710716 L9.30710716,9.30710716 C9.69763145,8.91658287 10.3298038,8.9155902 10.7195845,9.30537097 L15.6728044,14.2585908 C16.0623698,14.6481562 16.0643151,15.2778212 15.6710682,15.6710682 L15.6710682,15.6710682 C15.2805439,16.0615925 14.6483716,16.0625852 14.2585908,15.6728044 L9.30537097,10.7195845 Z M6.03796923,12.0379692 C2.72426073,12.0379692 0.0379692297,9.35167773 0.0379692297,6.03796923 C0.0379692297,2.72426073 2.72426073,0.0379692297 6.03796923,0.0379692297 C9.35167773,0.0379692297 12.0379692,2.72426073 12.0379692,6.03796923 C12.0379692,7.62926817 11.4058282,9.15539165 10.2806099,10.2806099 C9.15539165,11.4058282 7.62926817,12.0379692 6.03796923,12.0379692 Z M6.03796923,10.0379692 C7.09883519,10.0379692 8.11625084,9.61654187 8.86639635,8.86639635 C9.61654187,8.11625084 10.0379692,7.09883519 10.0379692,6.03796923 C10.0379692,3.82883023 8.24710823,2.03796923 6.03796923,2.03796923 C3.82883023,2.03796923 2.03796923,3.82883023 2.03796923,6.03796923 C2.03796923,8.24710823 3.82883023,10.0379692 6.03796923,10.0379692 Z" opacity=".4" transform="matrix(-1 0 0 1 324 43)"/>
    <path fill="#0C0C0D" fill-opacity=".4" d="M332.842285,53.2387695 C332.981445,55.0625 334.526855,56.2490234 336.768066,56.2490234 C339.185059,56.2490234 340.71582,55.0112305 340.71582,53.0703125 C340.71582,51.5175781 339.836914,50.6679688 337.646973,50.1186523 L336.541016,49.8256836 C335.083496,49.4521484 334.504883,48.9760742 334.504883,48.1484375 C334.504883,47.0791016 335.435059,46.3759766 336.841309,46.3759766 C338.159668,46.3759766 339.053223,47.0205078 339.236328,48.1044922 L340.562012,48.1044922 C340.452148,46.3979492 338.928711,45.1821289 336.885254,45.1821289 C334.651367,45.1821289 333.149902,46.3979492 333.149902,48.1923828 C333.149902,49.6938477 333.977539,50.5581055 335.88916,51.0415039 L337.244141,51.3930664 C338.70166,51.7592773 339.36084,52.3305664 339.36084,53.2314453 C339.36084,54.2788086 338.313477,55.0478516 336.892578,55.0478516 C335.391113,55.0478516 334.336426,54.3447266 334.175293,53.2387695 L332.842285,53.2387695 Z M345.894043,49.0786133 C344.634277,49.0786133 343.755371,50.0014648 343.660156,51.4003906 L348.010742,51.4003906 C347.981445,50.0014648 347.146484,49.0786133 345.894043,49.0786133 Z M347.974121,53.956543 L349.233887,53.956543 C348.853027,55.3115234 347.637207,56.1391602 345.908691,56.1391602 C343.71875,56.1391602 342.349121,54.5571289 342.349121,52.0595703 C342.349121,49.5766602 343.740723,47.965332 345.908691,47.965332 C348.040039,47.965332 349.336426,49.4814453 349.336426,51.9350586 L349.336426,52.418457 L343.660156,52.418457 L343.660156,52.4770508 C343.726074,54.0371094 344.597656,55.0258789 345.937988,55.0258789 C346.956055,55.0258789 347.644531,54.6523438 347.974121,53.956543 Z M353.745605,55.0332031 C355.041992,55.0332031 356.001465,54.1835938 356.001465,53.0556641 L356.001465,52.3305664 L353.877441,52.4697266 C352.67627,52.550293 352.148926,52.9677734 352.148926,53.7587891 C352.148926,54.5644531 352.830078,55.0332031 353.745605,55.0332031 Z M353.51123,56.1391602 C351.980469,56.1391602 350.845215,55.230957 350.845215,53.7880859 C350.845215,52.3745117 351.885254,51.5615234 353.723633,51.4516602 L356.001465,51.3125 L356.001465,50.5947266 C356.001465,49.6206055 355.393555,49.0859375 354.214355,49.0859375 C353.269531,49.0859375 352.610352,49.4448242 352.43457,50.0673828 L351.160156,50.0673828 C351.328613,48.800293 352.57373,47.965332 354.258301,47.965332 C356.18457,47.965332 357.26123,48.9541016 357.26123,50.5947266 L357.26123,56 L356.060059,56 L356.060059,54.8354492 L355.942871,54.8354492 C355.430176,55.6777344 354.565918,56.1391602 353.51123,56.1391602 Z M359.590332,56 L360.850098,56 L360.850098,51.1074219 C360.850098,49.9941406 361.72168,49.1884766 362.922852,49.1884766 C363.171875,49.1884766 363.625977,49.2324219 363.728516,49.2617188 L363.728516,48.0019531 C363.567383,47.9799805 363.303711,47.965332 363.098633,47.965332 C362.05127,47.965332 361.143066,48.5073242 360.908691,49.2763672 L360.791504,49.2763672 L360.791504,48.1044922 L359.590332,48.1044922 L359.590332,56 Z M371.616699,50.5214844 C371.396973,49.1152344 370.225098,47.965332 368.306152,47.965332 C366.094238,47.965332 364.687988,49.5620117 364.687988,52.0229492 C364.687988,54.5351562 366.101562,56.1391602 368.313477,56.1391602 C370.210449,56.1391602 371.389648,55.0698242 371.616699,53.6196289 L370.342285,53.6196289 C370.10791,54.5131836 369.368164,55.0039062 368.306152,55.0039062 C366.899902,55.0039062 365.991699,53.8466797 365.991699,52.0229492 C365.991699,50.2358398 366.885254,49.1005859 368.306152,49.1005859 C369.441406,49.1005859 370.137207,49.737793 370.342285,50.5214844 L371.616699,50.5214844 Z M373.550293,56 L374.810059,56 L374.810059,51.3271484 C374.810059,49.9941406 375.586426,49.1005859 377,49.1005859 C378.193848,49.1005859 378.82373,49.7963867 378.82373,51.1953125 L378.82373,56 L380.083496,56 L380.083496,50.8876953 C380.083496,49.034668 379.028809,47.965332 377.358887,47.965332 C376.150391,47.965332 375.322754,48.4780273 374.927246,49.3496094 L374.810059,49.3496094 L374.810059,44.9697266 L373.550293,44.9697266 L373.550293,56 Z M392.644531,47.6577148 L392.732422,47.6577148 L395.164062,56 L396.40918,56 L399.287598,45.4311523 L397.910645,45.4311523 L395.808594,54.0224609 L395.720703,54.0224609 L393.35498,45.4311523 L392.021973,45.4311523 L389.65625,54.0224609 L389.568359,54.0224609 L387.466309,45.4311523 L386.089355,45.4311523 L388.967773,56 L390.212891,56 L392.644531,47.6577148 Z M403.550293,49.0786133 C402.290527,49.0786133 401.411621,50.0014648 401.316406,51.4003906 L405.666992,51.4003906 C405.637695,50.0014648 404.802734,49.0786133 403.550293,49.0786133 Z M405.630371,53.956543 L406.890137,53.956543 C406.509277,55.3115234 405.293457,56.1391602 403.564941,56.1391602 C401.375,56.1391602 400.005371,54.5571289 400.005371,52.0595703 C400.005371,49.5766602 401.396973,47.965332 403.564941,47.965332 C405.696289,47.965332 406.992676,49.4814453 406.992676,51.9350586 L406.992676,52.418457 L401.316406,52.418457 L401.316406,52.4770508 C401.382324,54.0371094 402.253906,55.0258789 403.594238,55.0258789 C404.612305,55.0258789 405.300781,54.6523438 405.630371,53.956543 Z M412.895996,56.1391602 C411.797363,56.1391602 410.859863,55.6191406 410.361816,54.7402344 L410.244629,54.7402344 L410.244629,56 L409.043457,56 L409.043457,44.9697266 L410.303223,44.9697266 L410.303223,49.3496094 L410.42041,49.3496094 C410.852539,48.5 411.812012,47.965332 412.895996,47.965332 C414.902832,47.965332 416.206543,49.5693359 416.206543,52.0522461 C416.206543,54.5205078 414.895508,56.1391602 412.895996,56.1391602 Z M412.603027,49.1005859 C411.16748,49.1005859 410.273926,50.2285156 410.273926,52.0522461 C410.273926,53.8759766 411.16748,55.0039062 412.603027,55.0039062 C414.045898,55.0039062 414.902832,53.8979492 414.902832,52.0522461 C414.902832,50.206543 414.045898,49.1005859 412.603027,49.1005859 Z M418.000977,50.2651367 C418.000977,51.4077148 418.674805,52.0449219 420.154297,52.4038086 L421.509277,52.7333984 C422.351562,52.9384766 422.761719,53.3046875 422.761719,53.8466797 C422.761719,54.5717773 422,55.0771484 420.937988,55.0771484 C419.927246,55.0771484 419.297363,54.6523438 419.084961,53.9858398 L417.788574,53.9858398 C417.927734,55.296875 419.13623,56.1391602 420.894043,56.1391602 C422.688477,56.1391602 424.058105,55.1650391 424.058105,53.7514648 C424.058105,52.6162109 423.340332,51.9716797 421.853516,51.612793 L420.637695,51.3198242 C419.70752,51.0927734 419.268066,50.7558594 419.268066,50.2138672 C419.268066,49.5107422 420.000488,49.034668 420.937988,49.034668 C421.890137,49.034668 422.505371,49.4521484 422.673828,50.0820312 L423.918945,50.0820312 C423.750488,48.7856445 422.600586,47.965332 420.945312,47.965332 C419.268066,47.965332 418.000977,48.9541016 418.000977,50.2651367 Z M426.064941,56 L427.324707,56 L427.324707,48.1044922 L426.064941,48.1044922 L426.064941,56 Z M426.694824,46.5004883 C427.178223,46.5004883 427.57373,46.1049805 427.57373,45.621582 C427.57373,45.1381836 427.178223,44.7426758 426.694824,44.7426758 C426.211426,44.7426758 425.815918,45.1381836 425.815918,45.621582 C425.815918,46.1049805 426.211426,46.5004883 426.694824,46.5004883 Z M430.254395,46.0610352 L430.254395,48.1044922 L428.97998,48.1044922 L428.97998,49.1591797 L430.254395,49.1591797 L430.254395,53.9492188 C430.254395,55.4580078 430.90625,56.0585938 432.532227,56.0585938 C432.78125,56.0585938 433.022949,56.0292969 433.271973,55.9853516 L433.271973,54.9233398 C433.037598,54.9453125 432.913086,54.9526367 432.686035,54.9526367 C431.865723,54.9526367 431.51416,54.5571289 431.51416,53.6269531 L431.51416,49.1591797 L433.271973,49.1591797 L433.271973,48.1044922 L431.51416,48.1044922 L431.51416,46.0610352 L430.254395,46.0610352 Z M438.21582,49.0786133 C436.956055,49.0786133 436.077148,50.0014648 435.981934,51.4003906 L440.33252,51.4003906 C440.303223,50.0014648 439.468262,49.0786133 438.21582,49.0786133 Z M440.295898,53.956543 L441.555664,53.956543 C441.174805,55.3115234 439.958984,56.1391602 438.230469,56.1391602 C436.040527,56.1391602 434.670898,54.5571289 434.670898,52.0595703 C434.670898,49.5766602 436.0625,47.965332 438.230469,47.965332 C440.361816,47.965332 441.658203,49.4814453 441.658203,51.9350586 L441.658203,52.418457 L435.981934,52.418457 L435.981934,52.4770508 C436.047852,54.0371094 436.919434,55.0258789 438.259766,55.0258789 C439.277832,55.0258789 439.966309,54.6523438 440.295898,53.956543 Z M443.452637,50.2651367 C443.452637,51.4077148 444.126465,52.0449219 445.605957,52.4038086 L446.960938,52.7333984 C447.803223,52.9384766 448.213379,53.3046875 448.213379,53.8466797 C448.213379,54.5717773 447.45166,55.0771484 446.389648,55.0771484 C445.378906,55.0771484 444.749023,54.6523438 444.536621,53.9858398 L443.240234,53.9858398 C443.379395,55.296875 444.587891,56.1391602 446.345703,56.1391602 C448.140137,56.1391602 449.509766,55.1650391 449.509766,53.7514648 C449.509766,52.6162109 448.791992,51.9716797 447.305176,51.612793 L446.089355,51.3198242 C445.15918,51.0927734 444.719727,50.7558594 444.719727,50.2138672 C444.719727,49.5107422 445.452148,49.034668 446.389648,49.034668 C447.341797,49.034668 447.957031,49.4521484 448.125488,50.0820312 L449.370605,50.0820312 C449.202148,48.7856445 448.052246,47.965332 446.396973,47.965332 C444.719727,47.965332 443.452637,48.9541016 443.452637,50.2651367 Z"/>
    <path fill="#0C0C0D" fill-opacity=".5" fill-rule="nonzero" d="M110,37 C109.447715,37 109,37.4477153 109,38 L109,64 C109,64.5522847 109.447715,65 110,65 L284,65 C284.552285,65 285,64.5522847 285,64 L285,38 C285,37.4477153 284.552285,37 284,37 L110,37 Z M110,36 L284,36 C285.104569,36 286,36.8954305 286,38 L286,64 C286,65.1045695 285.104569,66 284,66 L110,66 C108.895431,66 108,65.1045695 108,64 L108,38 C108,36.8954305 108.895431,36 110,36 Z"/>
    <path fill="#0C0C0D" fill-opacity=".4" d="M119.666016,56 L119.666016,51.4223633 L124.346191,51.4223633 L124.346191,50.2504883 L119.666016,50.2504883 L119.666016,46.6176758 L124.763672,46.6176758 L124.763672,45.4311523 L118.347656,45.4311523 L118.347656,56 L119.666016,56 Z M126.799805,56 L128.05957,56 L128.05957,48.1044922 L126.799805,48.1044922 L126.799805,56 Z M127.429688,46.5004883 C127.913086,46.5004883 128.308594,46.1049805 128.308594,45.621582 C128.308594,45.1381836 127.913086,44.7426758 127.429688,44.7426758 C126.946289,44.7426758 126.550781,45.1381836 126.550781,45.621582 C126.550781,46.1049805 126.946289,46.5004883 127.429688,46.5004883 Z M130.461914,56 L131.72168,56 L131.72168,51.1074219 C131.72168,49.9941406 132.593262,49.1884766 133.794434,49.1884766 C134.043457,49.1884766 134.497559,49.2324219 134.600098,49.2617188 L134.600098,48.0019531 C134.438965,47.9799805 134.175293,47.965332 133.970215,47.965332 C132.922852,47.965332 132.014648,48.5073242 131.780273,49.2763672 L131.663086,49.2763672 L131.663086,48.1044922 L130.461914,48.1044922 L130.461914,56 Z M139.104492,49.0786133 C137.844727,49.0786133 136.96582,50.0014648 136.870605,51.4003906 L141.221191,51.4003906 C141.191895,50.0014648 140.356934,49.0786133 139.104492,49.0786133 Z M141.18457,53.956543 L142.444336,53.956543 C142.063477,55.3115234 140.847656,56.1391602 139.119141,56.1391602 C136.929199,56.1391602 135.55957,54.5571289 135.55957,52.0595703 C135.55957,49.5766602 136.951172,47.965332 139.119141,47.965332 C141.250488,47.965332 142.546875,49.4814453 142.546875,51.9350586 L142.546875,52.418457 L136.870605,52.418457 L136.870605,52.4770508 C136.936523,54.0371094 137.808105,55.0258789 139.148438,55.0258789 C140.166504,55.0258789 140.85498,54.6523438 141.18457,53.956543 Z M145.051758,56 L146.311523,56 L146.311523,49.1591797 L148.120605,49.1591797 L148.120605,48.1044922 L146.311523,48.1044922 L146.311523,47.3720703 C146.311523,46.4858398 146.736328,46.1049805 147.490723,46.1049805 C147.739746,46.1049805 148.025391,46.1342773 148.193848,46.1708984 L148.193848,45.1162109 C147.88623,45.0649414 147.666504,45.0429688 147.41748,45.0429688 C145.894043,45.0429688 145.051758,45.7167969 145.051758,47.3354492 L145.051758,48.1044922 L143.740723,48.1044922 L143.740723,49.1591797 L145.051758,49.1591797 L145.051758,56 Z M152.866699,56.1391602 C150.618164,56.1391602 149.226562,54.5864258 149.226562,52.0522461 C149.226562,49.5107422 150.618164,47.965332 152.866699,47.965332 C155.115234,47.965332 156.506836,49.5107422 156.506836,52.0522461 C156.506836,54.5864258 155.115234,56.1391602 152.866699,56.1391602 Z M152.866699,55.0039062 C154.36084,55.0039062 155.203125,53.9199219 155.203125,52.0522461 C155.203125,50.1772461 154.36084,49.1005859 152.866699,49.1005859 C151.372559,49.1005859 150.530273,50.1772461 150.530273,52.0522461 C150.530273,53.9199219 151.372559,55.0039062 152.866699,55.0039062 Z M160.916016,53.019043 L162.783691,56 L164.277832,56 L161.560547,52.0009766 L164.241211,48.1044922 L162.812988,48.1044922 L160.959961,51.0415039 L160.842773,51.0415039 L158.967773,48.1044922 L157.466309,48.1044922 L160.198242,52.0522461 L157.495605,56 L158.923828,56 L160.798828,53.019043 L160.916016,53.019043 Z M171.65332,49.5913086 C170.671875,49.5913086 170.093262,50.3530273 170.093262,51.6347656 C170.093262,52.9091797 170.679199,53.6855469 171.638672,53.6855469 C172.64209,53.6855469 173.286621,52.887207 173.286621,51.6347656 C173.286621,50.3823242 172.649414,49.5913086 171.65332,49.5913086 Z M171.909668,45.4897461 C175.374023,45.4897461 177.783691,47.7016602 177.783691,50.8803711 C177.783691,53.2680664 176.714355,54.7841797 175.029785,54.7841797 C174.172852,54.7841797 173.506348,54.2714844 173.418457,53.5537109 L173.30127,53.5537109 C172.986328,54.3007812 172.327148,54.7182617 171.470215,54.7182617 C169.946777,54.7182617 168.921387,53.4658203 168.921387,51.6054688 C168.921387,49.8256836 169.96875,48.5805664 171.470215,48.5805664 C172.239258,48.5805664 172.898438,48.9760742 173.184082,49.6132812 L173.30127,49.6132812 L173.30127,48.7197266 L174.407227,48.7197266 L174.407227,53.019043 C174.407227,53.5317383 174.70752,53.8320312 175.234863,53.8320312 C176.157715,53.8320312 176.750977,52.6674805 176.750977,50.8657227 C176.750977,48.2216797 174.744141,46.4125977 171.814453,46.4125977 C168.950684,46.4125977 166.892578,48.5952148 166.892578,51.6420898 C166.892578,54.7695312 168.914062,56.7836914 172.048828,56.7836914 C173.052246,56.7836914 174.041016,56.6445312 174.502441,56.4321289 L174.502441,57.3549805 C173.843262,57.5820312 172.957031,57.7138672 172.03418,57.7138672 C168.254883,57.7138672 165.859863,55.3408203 165.859863,51.5981445 C165.859863,47.9726562 168.320801,45.4897461 171.909668,45.4897461 Z M179.768555,56 L181.02832,56 L181.02832,51.1074219 C181.02832,49.9941406 181.82666,49.1005859 182.859375,49.1005859 C183.855469,49.1005859 184.507324,49.7011719 184.507324,50.6386719 L184.507324,56 L185.76709,56 L185.76709,50.9243164 C185.76709,49.9208984 186.499512,49.1005859 187.598145,49.1005859 C188.711426,49.1005859 189.260742,49.671875 189.260742,50.8364258 L189.260742,56 L190.520508,56 L190.520508,50.543457 C190.520508,48.8881836 189.619629,47.965332 188.008301,47.965332 C186.916992,47.965332 186.016113,48.5146484 185.591309,49.3496094 L185.474121,49.3496094 C185.10791,48.5292969 184.36084,47.965332 183.291504,47.965332 C182.236816,47.965332 181.445801,48.4707031 181.086914,49.3496094 L180.969727,49.3496094 L180.969727,48.1044922 L179.768555,48.1044922 L179.768555,56 Z M196.064941,56.1391602 C193.816406,56.1391602 192.424805,54.5864258 192.424805,52.0522461 C192.424805,49.5107422 193.816406,47.965332 196.064941,47.965332 C198.313477,47.965332 199.705078,49.5107422 199.705078,52.0522461 C199.705078,54.5864258 198.313477,56.1391602 196.064941,56.1391602 Z M196.064941,55.0039062 C197.559082,55.0039062 198.401367,53.9199219 198.401367,52.0522461 C198.401367,50.1772461 197.559082,49.1005859 196.064941,49.1005859 C194.570801,49.1005859 193.728516,50.1772461 193.728516,52.0522461 C193.728516,53.9199219 194.570801,55.0039062 196.064941,55.0039062 Z M201.279785,56 L207.358887,56 L207.358887,54.9453125 L202.803223,54.9453125 L202.803223,54.828125 L207.336914,49.0493164 L207.336914,48.1044922 L201.287109,48.1044922 L201.287109,49.1591797 L205.835449,49.1591797 L205.835449,49.2763672 L201.279785,55.0771484 L201.279785,56 Z M209.578125,56 L210.837891,56 L210.837891,48.1044922 L209.578125,48.1044922 L209.578125,56 Z M210.208008,46.5004883 C210.691406,46.5004883 211.086914,46.1049805 211.086914,45.621582 C211.086914,45.1381836 210.691406,44.7426758 210.208008,44.7426758 C209.724609,44.7426758 209.329102,45.1381836 209.329102,45.621582 C209.329102,46.1049805 209.724609,46.5004883 210.208008,46.5004883 Z M213.313477,56 L214.573242,56 L214.573242,44.9697266 L213.313477,44.9697266 L213.313477,56 Z M217.092773,56 L218.352539,56 L218.352539,44.9697266 L217.092773,44.9697266 L217.092773,56 Z M223.230469,55.0332031 C224.526855,55.0332031 225.486328,54.1835938 225.486328,53.0556641 L225.486328,52.3305664 L223.362305,52.4697266 C222.161133,52.550293 221.633789,52.9677734 221.633789,53.7587891 C221.633789,54.5644531 222.314941,55.0332031 223.230469,55.0332031 Z M222.996094,56.1391602 C221.465332,56.1391602 220.330078,55.230957 220.330078,53.7880859 C220.330078,52.3745117 221.370117,51.5615234 223.208496,51.4516602 L225.486328,51.3125 L225.486328,50.5947266 C225.486328,49.6206055 224.878418,49.0859375 223.699219,49.0859375 C222.754395,49.0859375 222.095215,49.4448242 221.919434,50.0673828 L220.64502,50.0673828 C220.813477,48.800293 222.058594,47.965332 223.743164,47.965332 C225.669434,47.965332 226.746094,48.9541016 226.746094,50.5947266 L226.746094,56 L225.544922,56 L225.544922,54.8354492 L225.427734,54.8354492 C224.915039,55.6777344 224.050781,56.1391602 222.996094,56.1391602 Z M230.115234,56.0732422 C230.642578,56.0732422 231.067383,55.6411133 231.067383,55.1210938 C231.067383,54.59375 230.642578,54.1689453 230.115234,54.1689453 C229.595215,54.1689453 229.163086,54.59375 229.163086,55.1210938 C229.163086,55.6411133 229.595215,56.0732422 230.115234,56.0732422 Z M239.768555,50.5214844 C239.548828,49.1152344 238.376953,47.965332 236.458008,47.965332 C234.246094,47.965332 232.839844,49.5620117 232.839844,52.0229492 C232.839844,54.5351562 234.253418,56.1391602 236.465332,56.1391602 C238.362305,56.1391602 239.541504,55.0698242 239.768555,53.6196289 L238.494141,53.6196289 C238.259766,54.5131836 237.52002,55.0039062 236.458008,55.0039062 C235.051758,55.0039062 234.143555,53.8466797 234.143555,52.0229492 C234.143555,50.2358398 235.037109,49.1005859 236.458008,49.1005859 C237.593262,49.1005859 238.289062,49.737793 238.494141,50.5214844 L239.768555,50.5214844 Z M244.873535,56.1391602 C242.625,56.1391602 241.233398,54.5864258 241.233398,52.0522461 C241.233398,49.5107422 242.625,47.965332 244.873535,47.965332 C247.12207,47.965332 248.513672,49.5107422 248.513672,52.0522461 C248.513672,54.5864258 247.12207,56.1391602 244.873535,56.1391602 Z M244.873535,55.0039062 C246.367676,55.0039062 247.209961,53.9199219 247.209961,52.0522461 C247.209961,50.1772461 246.367676,49.1005859 244.873535,49.1005859 C243.379395,49.1005859 242.537109,50.1772461 242.537109,52.0522461 C242.537109,53.9199219 243.379395,55.0039062 244.873535,55.0039062 Z M250.491211,56 L251.750977,56 L251.750977,51.1074219 C251.750977,49.9941406 252.549316,49.1005859 253.582031,49.1005859 C254.578125,49.1005859 255.22998,49.7011719 255.22998,50.6386719 L255.22998,56 L256.489746,56 L256.489746,50.9243164 C256.489746,49.9208984 257.222168,49.1005859 258.320801,49.1005859 C259.434082,49.1005859 259.983398,49.671875 259.983398,50.8364258 L259.983398,56 L261.243164,56 L261.243164,50.543457 C261.243164,48.8881836 260.342285,47.965332 258.730957,47.965332 C257.639648,47.965332 256.73877,48.5146484 256.313965,49.3496094 L256.196777,49.3496094 C255.830566,48.5292969 255.083496,47.965332 254.01416,47.965332 C252.959473,47.965332 252.168457,48.4707031 251.80957,49.3496094 L251.692383,49.3496094 L251.692383,48.1044922 L250.491211,48.1044922 L250.491211,56 Z"/>
    <path fill="#0C0C0D" d="M114.842773,28.9716797 L110.310547,28.9716797 L110.310547,25.8232422 L114.60791,25.8232422 L114.60791,24.8076172 L110.310547,24.8076172 L110.310547,21.8686523 L114.842773,21.8686523 L114.842773,20.840332 L109.167969,20.840332 L109.167969,30 L114.842773,30 L114.842773,28.9716797 Z M116.772461,30 L117.864258,30 L117.864258,25.7597656 C117.864258,24.7949219 118.556152,24.0205078 119.451172,24.0205078 C120.314453,24.0205078 120.879395,24.5410156 120.879395,25.3535156 L120.879395,30 L121.971191,30 L121.971191,25.6010742 C121.971191,24.7314453 122.605957,24.0205078 123.558105,24.0205078 C124.522949,24.0205078 124.999023,24.515625 124.999023,25.5249023 L124.999023,30 L126.09082,30 L126.09082,25.2709961 C126.09082,23.8364258 125.310059,23.0366211 123.913574,23.0366211 C122.967773,23.0366211 122.187012,23.5126953 121.818848,24.2363281 L121.717285,24.2363281 C121.399902,23.5253906 120.752441,23.0366211 119.825684,23.0366211 C118.911621,23.0366211 118.226074,23.4746094 117.915039,24.2363281 L117.813477,24.2363281 L117.813477,23.1572266 L116.772461,23.1572266 L116.772461,30 Z M130.191406,29.1621094 C131.314941,29.1621094 132.146484,28.4257812 132.146484,27.4482422 L132.146484,26.8198242 L130.305664,26.9404297 C129.264648,27.0102539 128.807617,27.3720703 128.807617,28.0576172 C128.807617,28.7558594 129.397949,29.1621094 130.191406,29.1621094 Z M129.988281,30.1206055 C128.661621,30.1206055 127.677734,29.3334961 127.677734,28.0830078 C127.677734,26.8579102 128.579102,26.1533203 130.172363,26.0581055 L132.146484,25.9375 L132.146484,25.3154297 C132.146484,24.4711914 131.619629,24.0078125 130.597656,24.0078125 C129.778809,24.0078125 129.20752,24.3188477 129.055176,24.8583984 L127.950684,24.8583984 C128.09668,23.7602539 129.175781,23.0366211 130.635742,23.0366211 C132.305176,23.0366211 133.238281,23.8935547 133.238281,25.3154297 L133.238281,30 L132.197266,30 L132.197266,28.9907227 L132.095703,28.9907227 C131.651367,29.7207031 130.902344,30.1206055 129.988281,30.1206055 Z M135.282227,30 L136.374023,30 L136.374023,23.1572266 L135.282227,23.1572266 L135.282227,30 Z M135.828125,21.7670898 C136.24707,21.7670898 136.589844,21.4243164 136.589844,21.0053711 C136.589844,20.5864258 136.24707,20.2436523 135.828125,20.2436523 C135.40918,20.2436523 135.066406,20.5864258 135.066406,21.0053711 C135.066406,21.4243164 135.40918,21.7670898 135.828125,21.7670898 Z M138.519531,30 L139.611328,30 L139.611328,20.4404297 L138.519531,20.4404297 L138.519531,30 Z M147.507812,29.1621094 C148.631348,29.1621094 149.462891,28.4257812 149.462891,27.4482422 L149.462891,26.8198242 L147.62207,26.9404297 C146.581055,27.0102539 146.124023,27.3720703 146.124023,28.0576172 C146.124023,28.7558594 146.714355,29.1621094 147.507812,29.1621094 Z M147.304688,30.1206055 C145.978027,30.1206055 144.994141,29.3334961 144.994141,28.0830078 C144.994141,26.8579102 145.895508,26.1533203 147.48877,26.0581055 L149.462891,25.9375 L149.462891,25.3154297 C149.462891,24.4711914 148.936035,24.0078125 147.914062,24.0078125 C147.095215,24.0078125 146.523926,24.3188477 146.371582,24.8583984 L145.26709,24.8583984 C145.413086,23.7602539 146.492188,23.0366211 147.952148,23.0366211 C149.621582,23.0366211 150.554688,23.8935547 150.554688,25.3154297 L150.554688,30 L149.513672,30 L149.513672,28.9907227 L149.412109,28.9907227 C148.967773,29.7207031 148.21875,30.1206055 147.304688,30.1206055 Z M155.105957,30.1206055 C153.354004,30.1206055 152.230469,28.7304688 152.230469,26.5786133 C152.230469,24.4331055 153.366699,23.0366211 155.105957,23.0366211 C156.058105,23.0366211 156.864258,23.4873047 157.251465,24.2363281 L157.34668,24.2363281 L157.34668,20.4404297 L158.438477,20.4404297 L158.438477,30 L157.397461,30 L157.397461,28.9082031 L157.295898,28.9082031 C156.864258,29.6699219 156.051758,30.1206055 155.105957,30.1206055 Z M155.359863,24.0205078 C154.115723,24.0205078 153.360352,24.9853516 153.360352,26.5786133 C153.360352,28.1782227 154.109375,29.1367188 155.359863,29.1367188 C156.604004,29.1367188 157.37207,28.1591797 157.37207,26.5786133 C157.37207,25.0107422 156.597656,24.0205078 155.359863,24.0205078 Z M163.091309,30.1206055 C161.339355,30.1206055 160.21582,28.7304688 160.21582,26.5786133 C160.21582,24.4331055 161.352051,23.0366211 163.091309,23.0366211 C164.043457,23.0366211 164.849609,23.4873047 165.236816,24.2363281 L165.332031,24.2363281 L165.332031,20.4404297 L166.423828,20.4404297 L166.423828,30 L165.382812,30 L165.382812,28.9082031 L165.28125,28.9082031 C164.849609,29.6699219 164.037109,30.1206055 163.091309,30.1206055 Z M163.345215,24.0205078 C162.101074,24.0205078 161.345703,24.9853516 161.345703,26.5786133 C161.345703,28.1782227 162.094727,29.1367188 163.345215,29.1367188 C164.589355,29.1367188 165.357422,28.1591797 165.357422,26.5786133 C165.357422,25.0107422 164.583008,24.0205078 163.345215,24.0205078 Z M168.543945,30 L169.635742,30 L169.635742,25.7597656 C169.635742,24.7949219 170.391113,24.0966797 171.432129,24.0966797 C171.647949,24.0966797 172.041504,24.1347656 172.130371,24.1601562 L172.130371,23.0683594 C171.990723,23.0493164 171.762207,23.0366211 171.584473,23.0366211 C170.676758,23.0366211 169.889648,23.5063477 169.686523,24.1728516 L169.584961,24.1728516 L169.584961,23.1572266 L168.543945,23.1572266 L168.543945,30 Z M176.224609,24.0014648 C175.132812,24.0014648 174.371094,24.8012695 174.288574,26.0136719 L178.059082,26.0136719 C178.033691,24.8012695 177.310059,24.0014648 176.224609,24.0014648 Z M178.027344,28.2290039 L179.119141,28.2290039 C178.789062,29.4033203 177.735352,30.1206055 176.237305,30.1206055 C174.339355,30.1206055 173.152344,28.7495117 173.152344,26.5849609 C173.152344,24.4331055 174.358398,23.0366211 176.237305,23.0366211 C178.084473,23.0366211 179.208008,24.3505859 179.208008,26.4770508 L179.208008,26.8959961 L174.288574,26.8959961 L174.288574,26.9467773 C174.345703,28.2988281 175.101074,29.1557617 176.262695,29.1557617 C177.14502,29.1557617 177.741699,28.8320312 178.027344,28.2290039 Z M180.763184,25.0297852 C180.763184,26.0200195 181.347168,26.5722656 182.629395,26.8833008 L183.803711,27.1689453 C184.533691,27.3466797 184.88916,27.6640625 184.88916,28.1337891 C184.88916,28.762207 184.229004,29.2001953 183.308594,29.2001953 C182.432617,29.2001953 181.886719,28.8320312 181.702637,28.2543945 L180.579102,28.2543945 C180.699707,29.390625 181.74707,30.1206055 183.270508,30.1206055 C184.825684,30.1206055 186.012695,29.2763672 186.012695,28.0512695 C186.012695,27.0673828 185.390625,26.5087891 184.102051,26.1977539 L183.04834,25.9438477 C182.242188,25.7470703 181.861328,25.4550781 181.861328,24.9853516 C181.861328,24.3759766 182.496094,23.9633789 183.308594,23.9633789 C184.133789,23.9633789 184.666992,24.3251953 184.812988,24.8710938 L185.89209,24.8710938 C185.746094,23.7475586 184.749512,23.0366211 183.314941,23.0366211 C181.861328,23.0366211 180.763184,23.8935547 180.763184,25.0297852 Z M187.567871,25.0297852 C187.567871,26.0200195 188.151855,26.5722656 189.434082,26.8833008 L190.608398,27.1689453 C191.338379,27.3466797 191.693848,27.6640625 191.693848,28.1337891 C191.693848,28.762207 191.033691,29.2001953 190.113281,29.2001953 C189.237305,29.2001953 188.691406,28.8320312 188.507324,28.2543945 L187.383789,28.2543945 C187.504395,29.390625 188.551758,30.1206055 190.075195,30.1206055 C191.630371,30.1206055 192.817383,29.2763672 192.817383,28.0512695 C192.817383,27.0673828 192.195312,26.5087891 190.906738,26.1977539 L189.853027,25.9438477 C189.046875,25.7470703 188.666016,25.4550781 188.666016,24.9853516 C188.666016,24.3759766 189.300781,23.9633789 190.113281,23.9633789 C190.938477,23.9633789 191.47168,24.3251953 191.617676,24.8710938 L192.696777,24.8710938 C192.550781,23.7475586 191.554199,23.0366211 190.119629,23.0366211 C188.666016,23.0366211 187.567871,23.8935547 187.567871,25.0297852 Z"/>
    <rect width="44" height="22" x="50" y="38" fill="#0A84FF" rx="2"/>
    <polygon fill="#0A84FF" points="90 49 94 45 98 49 94 53"/>
    <path fill="#FFF" d="M58.944,49.244 L58.944,53 L60.348,53 L60.348,44.72 L58.944,44.72 L58.944,48.08 L56.256,48.08 L56.256,44.72 L54.852,44.72 L54.852,53 L56.256,53 L56.256,49.244 L58.944,49.244 Z M64.812,46.496 C66.66,46.496 67.668,47.804 67.668,49.82 C67.668,51.836 66.636,53.156 64.8,53.156 C62.952,53.156 61.932,51.884 61.932,49.832 C61.932,47.852 62.964,46.496 64.812,46.496 Z M64.812,47.54 C63.84,47.54 63.348,48.26 63.348,49.832 C63.348,51.404 63.828,52.124 64.8,52.124 C65.772,52.124 66.252,51.404 66.252,49.82 C66.252,48.26 65.772,47.54 64.812,47.54 Z M72.792,53 L75.024,46.664 L73.644,46.664 L72.024,51.884 L70.428,46.664 L68.976,46.664 L71.208,53 L72.792,53 Z M81.984,50.264 L77.784,50.264 C77.868,51.56 78.6,52.112 79.512,52.112 C80.088,52.112 80.652,51.956 81.168,51.524 L81.756,52.364 C81.168,52.856 80.34,53.156 79.452,53.156 C77.472,53.156 76.392,51.812 76.392,49.832 C76.392,47.936 77.484,46.496 79.248,46.496 C80.964,46.496 82.02,47.696 82.02,49.664 C82.02,49.88 82.008,50.108 81.984,50.264 Z M79.272,47.492 C78.456,47.492 77.868,48.08 77.784,49.34 L80.712,49.34 C80.688,48.152 80.196,47.492 79.272,47.492 Z M83.844,53 L88.32,53 L88.32,52.016 L86.604,52.016 L86.604,49.448 C86.808,48.572 87.396,47.816 88.212,47.816 C88.5,47.816 88.692,47.852 88.944,47.924 L89.184,46.604 C88.896,46.532 88.68,46.508 88.368,46.508 C87.6,46.508 86.916,46.988 86.58,47.864 L86.436,46.664 L83.844,46.664 L83.844,47.648 L85.248,47.648 L85.248,52.016 L83.844,52.016 L83.844,53 Z"/>
  </g>
</svg>
