<svg xmlns="http://www.w3.org/2000/svg" viewBox="0 0 360 100"><g fill="none" fill-rule="evenodd"><g transform="translate(143 14)"><g fill="#0C0C0D" transform="translate(0 22)"><path fill-opacity=".3" fill-rule="nonzero" d="M2 1a1 1 0 0 0-1 1v26a1 1 0 0 0 1 1h174a1 1 0 0 0 1-1V2a1 1 0 0 0-1-1H2zm0-1h174a2 2 0 0 1 2 2v26a2 2 0 0 1-2 2H2a2 2 0 0 1-2-2V2C0 .9.9 0 2 0z"/><path d="M20.76 20V9.43h-1.53l-3.62 8.75h-.11l-3.62-8.75h-1.53V20h1.23v-8.07h.09l3.33 8h1.11l3.33-8h.1V20h1.22zm5.78.14c-2.25 0-3.64-1.55-3.64-4.09s1.4-4.08 3.64-4.08c2.25 0 3.64 1.54 3.64 4.08s-1.39 4.09-3.64 4.09zm0-1.14c1.5 0 2.34-1.08 2.34-2.95s-.84-2.95-2.34-2.95-2.33 1.08-2.33 2.95.84 2.95 2.33 2.95zm5.22 1h6.08v-1.05h-4.56v-.12l4.53-5.78v-.95h-6.05v1.06h4.55v.12l-4.55 5.8V20zm8.3 0h1.25v-7.9h-1.26V20zm.62-9.5a.88.88 0 0 0 0-1.76.88.88 0 0 0 0 1.76zM43.8 20h1.26V8.97h-1.26V20zm3.78 0h1.26V8.97h-1.26V20zm6.14-.97c1.3 0 2.25-.85 2.25-1.97v-.73l-2.12.14c-1.2.08-1.73.5-1.73 1.29 0 .8.68 1.27 1.6 1.27zm-.24 1.1c-1.53 0-2.66-.9-2.66-2.34 0-1.42 1.04-2.23 2.88-2.34l2.27-.14v-.72c0-.97-.6-1.5-1.78-1.5-.95 0-1.6.35-1.78.98h-1.28c.17-1.27 1.42-2.1 3.1-2.1 1.93 0 3 .98 3 2.62V20h-1.2v-1.16h-.12a2.73 2.73 0 0 1-2.43 1.3zm7.56-.13v-4.58h4.68v-1.17h-4.68v-3.63h5.1V9.43H59.7V20h1.32zm7.14 0h1.25v-7.9h-1.25V20zm.62-9.5a.88.88 0 0 0 0-1.76.88.88 0 0 0 0 1.76zm3.04 9.5h1.26v-4.9c0-1.1.87-1.91 2.07-1.91.25 0 .7.04.8.07V12a5.41 5.41 0 0 0-.62-.03c-1.05 0-1.96.54-2.2 1.3h-.11V12.1h-1.2V20z"/></g><path fill="#0C0C0D" d="M6.84 14.97H2.31v-3.15h4.3v-1.01H2.3V7.87h4.53V6.84H1.17V16h5.67v-1.03zM8.77 16h1.1v-4.24c0-.97.69-1.74 1.58-1.74.86 0 1.43.52 1.43 1.33V16h1.1v-4.4c0-.87.63-1.58 1.58-1.58.96 0 1.44.5 1.44 1.5V16h1.1v-4.73c0-1.43-.79-2.23-2.19-2.23a2.3 2.3 0 0 0-2.1 1.2h-.1a1.98 1.98 0 0 0-1.88-1.2c-.92 0-1.6.43-1.91 1.2h-.1V9.16H8.76V16zm13.42-.84c1.12 0 1.96-.73 1.96-1.71v-.63l-1.84.12c-1.05.07-1.5.43-1.5 1.12 0 .7.59 1.1 1.38 1.1zm-.2.96c-1.33 0-2.31-.79-2.31-2.04 0-1.22.9-1.93 2.5-2.02l1.97-.12v-.62c0-.85-.53-1.31-1.55-1.31-.82 0-1.4.3-1.54.85h-1.1c.14-1.1 1.22-1.82 2.68-1.82 1.67 0 2.6.85 2.6 2.28V16H24.2v-1h-.1a2.36 2.36 0 0 1-2.11 1.12zm5.3-.12h1.08V9.16h-1.09V16zm.54-8.23c.42 0 .76-.35.76-.76a.76.76 0 0 0-.76-.77.76.76 0 0 0-.76.77c0 .41.34.76.76.76zM30.52 16h1.1V6.44h-1.1V16zm8.99-.84c1.12 0 1.95-.73 1.95-1.71v-.63l-1.84.12c-1.04.07-1.5.43-1.5 1.12 0 .7.6 1.1 1.39 1.1zm-.2.96c-1.33 0-2.32-.79-2.32-2.04 0-1.22.9-1.93 2.5-2.02l1.97-.12v-.62c0-.85-.52-1.31-1.55-1.31-.81 0-1.39.3-1.54.85h-1.1c.14-1.1 1.22-1.82 2.68-1.82 1.67 0 2.6.85 2.6 2.28V16h-1.04v-1h-.1a2.36 2.36 0 0 1-2.1 1.12zm7.8 0c-1.76 0-2.88-1.39-2.88-3.54 0-2.15 1.14-3.54 2.88-3.54.95 0 1.75.45 2.14 1.2h.1v-3.8h1.09V16H49.4v-1.1h-.1a2.45 2.45 0 0 1-2.2 1.22zm.25-6.1c-1.24 0-2 .97-2 2.56 0 1.6.75 2.56 2 2.56 1.24 0 2.01-.98 2.01-2.56 0-1.57-.77-2.56-2.01-2.56zm7.73 6.1c-1.75 0-2.87-1.39-2.87-3.54 0-2.15 1.13-3.54 2.87-3.54.95 0 1.76.45 2.15 1.2h.1v-3.8h1.08V16h-1.04v-1.1h-.1a2.45 2.45 0 0 1-2.19 1.22zm.26-6.1c-1.25 0-2 .97-2 2.56 0 1.6.74 2.56 2 2.56 1.24 0 2-.98 2-2.56 0-1.57-.77-2.56-2-2.56zm5.2 5.98h1.09v-4.24c0-.97.75-1.66 1.8-1.66.2 0 .6.03.69.06v-1.1a4.69 4.69 0 0 0-.55-.02c-.9 0-1.69.47-1.9 1.13h-.1V9.16h-1.04V16zm7.67-6c-1.09 0-1.85.8-1.93 2.01h3.77c-.03-1.2-.75-2-1.84-2zm1.8 4.23h1.1c-.33 1.17-1.38 1.9-2.88 1.9-1.9 0-3.09-1.38-3.09-3.55 0-2.15 1.2-3.54 3.09-3.54 1.84 0 2.97 1.31 2.97 3.44v.42h-4.92v.05c.06 1.35.81 2.2 1.97 2.2.89 0 1.48-.32 1.77-.92zm2.74-3.2c0 .99.59 1.54 1.87 1.85l1.17.29c.73.18 1.09.5 1.09.96 0 .63-.66 1.07-1.58 1.07-.88 0-1.42-.37-1.6-.95h-1.13c.12 1.14 1.17 1.87 2.7 1.87 1.55 0 2.73-.84 2.73-2.07 0-.98-.62-1.54-1.9-1.85l-1.06-.26c-.8-.2-1.19-.48-1.19-.95 0-.61.64-1.03 1.45-1.03.82 0 1.36.37 1.5.91h1.08c-.14-1.12-1.14-1.83-2.58-1.83-1.45 0-2.55.85-2.55 1.99zm6.8 0c0 .99.6 1.54 1.87 1.85l1.18.29c.73.18 1.08.5 1.08.96 0 .63-.66 1.07-1.58 1.07-.87 0-1.42-.37-1.6-.95h-1.13c.12 1.14 1.17 1.87 2.7 1.87 1.55 0 2.74-.84 2.74-2.07 0-.98-.62-1.54-1.91-1.85l-1.06-.26c-.8-.2-1.18-.48-1.18-.95 0-.61.63-1.03 1.44-1.03.83 0 1.36.37 1.5.91h1.09c-.15-1.12-1.15-1.83-2.58-1.83-1.45 0-2.55.85-2.55 1.99z"/><g transform="translate(156 31)"><circle cx="6.5" cy="6.5" r="6.5" fill="#797676"/><g fill="#FFFFFF" fill-rule="nonzero" transform="translate(4 4)"><polygon points="5 -.778 -.778 5 0 5.778 5.778 0"/><polygon points="5.778 5 0 -.778 -.778 0 5 5.778"/></g></g></g><g transform="translate(41 39)"><rect width="88" height="22" fill="#0A84FF" rx="2"/><polygon fill="#0A84FF" points="84 11 88 7 92 11 88 15"/><path fill="#FFFFFF" d="M7.4 10.72h3v1.04h-3v2.63h3.65v1.05H6V7.16h4.98l-.16 1.06H7.4v2.5zM12.9 9.1h1.17l.1.83a2.55 2.55 0 0 1 2.05-1c.58 0 1.02.16 1.31.5.3.32.45.78.45 1.38v4.62h-1.35V11.5c0-.4-.02-.7-.06-.91a.77.77 0 0 0-.26-.47c-.13-.1-.32-.15-.58-.15-.28 0-.56.09-.82.27-.26.17-.48.4-.66.66v4.54H12.9V9.11zm11.65 6.36c-.32.09-.65.13-1 .13-.72 0-1.28-.19-1.67-.56a2 2 0 0 1-.59-1.52V10.1h-1.4v-.98h1.4V7.69l1.34-.15V9.1h2.15l-.15.98h-2v3.42c0 .35.1.6.27.76.17.17.45.25.84.25.42 0 .81-.1 1.17-.3l.48.89a3.1 3.1 0 0 1-.84.36zm4.4-1.38c.32.31.72.47 1.2.47.3 0 .57-.05.84-.14.27-.1.54-.23.82-.42l.58.82c-.3.25-.64.44-1.04.58-.4.13-.82.2-1.26.2-.97 0-1.72-.3-2.26-.9a3.5 3.5 0 0 1-.8-2.42c0-.64.11-1.2.34-1.71.24-.51.57-.91 1.01-1.2.44-.29.95-.43 1.54-.43.84 0 1.5.28 2 .85.49.56.73 1.33.73 2.32 0 .24 0 .44-.03.6h-4.2c.04.61.22 1.08.53 1.38zm-.08-3.69a2.3 2.3 0 0 0-.46 1.4h2.94a2.38 2.38 0 0 0-.39-1.38 1.21 1.21 0 0 0-1.03-.48c-.43 0-.78.15-1.06.46zm11.08-1.3l-.23 2.35h-.96v-1.3c-.44.01-.82.19-1.14.53-.33.34-.59.83-.78 1.45v2.35h1.27v.96h-3.55v-.96h.94v-4.41h-.94V9.1h1.96l.24 1.46c.25-.54.55-.95.9-1.22.36-.26.8-.4 1.33-.4.33 0 .65.05.96.16zm12.26 6.34h-1.56l-2.24-6.33h1.45l1.6 5.22 1.62-5.22h1.38l-2.25 6.33zm8.85-1.01c.07.12.2.2.37.26l-.31.91c-.67-.08-1.1-.37-1.31-.88-.23.3-.52.51-.87.66a2.9 2.9 0 0 1-1.15.22c-.64 0-1.14-.18-1.52-.54a1.89 1.89 0 0 1-.56-1.43c0-.66.26-1.17.78-1.53a3.9 3.9 0 0 1 2.23-.54h.9v-.41c0-.4-.12-.7-.36-.88a1.7 1.7 0 0 0-1.05-.27 6.53 6.53 0 0 0-1.68.32l-.33-.95c.76-.29 1.5-.43 2.22-.43.84 0 1.47.18 1.9.55.42.37.63.9.63 1.57v2.84c0 .24.04.41.1.53zM59 14.4c.26-.14.47-.34.62-.6v-1.4h-.75c-.6 0-1.05.1-1.33.3-.28.2-.42.5-.42.88 0 .34.1.6.27.77.18.18.45.27.8.27.28 0 .55-.08.81-.22zm7.09-.68c0 .53.32.8.96.8.32 0 .65-.07 1-.22l.34.94c-.44.24-.98.36-1.63.36a2 2 0 0 1-1.48-.53 1.99 1.99 0 0 1-.54-1.47V7.55h-1.9v-.99h3.25v7.16zm7.57-7.47c.17.16.25.36.25.6a.8.8 0 0 1-.25.6.86.86 0 0 1-.63.24.86.86 0 0 1-.63-.24.81.81 0 0 1-.24-.6c0-.25.08-.45.24-.61a.86.86 0 0 1 .63-.24c.26 0 .47.08.63.25zm.3 8.21h1.73v.98h-4.96v-.98h1.88v-4.37H70.8v-.98h3.17v5.35zm8.8-7.9v8.88H81.6l-.1-.78a2.12 2.12 0 0 1-1.77.94c-.8 0-1.4-.3-1.8-.89-.4-.59-.6-1.4-.6-2.43 0-.65.11-1.23.31-1.73s.5-.9.87-1.18c.38-.29.82-.43 1.34-.43.64 0 1.18.23 1.6.7V6.4l1.34.15zm-3.65 3.98c-.24.38-.36.96-.36 1.74 0 1.53.44 2.3 1.32 2.3.52 0 .98-.3 1.35-.91v-2.99c-.33-.47-.74-.7-1.25-.7-.46 0-.81.18-1.06.56z"/></g></g></svg>