<svg xmlns="http://www.w3.org/2000/svg" xmlns:xlink="http://www.w3.org/1999/xlink" viewBox="0 0 360 100"><defs><rect id="a" width="178" height="32" y="16" rx="2"/></defs><g fill="none" fill-rule="evenodd"><g transform="translate(143 20)"><use fill="#FFFFFF" xlink:href="#a"/><rect width="177" height="31" x=".5" y="16.5" stroke="#0C0C0D" stroke-opacity=".5" rx="2"/><path fill="#0C0C0D" fill-opacity=".4" d="M15.7 28.61h-4.1v3.63h3.8v1.1h-3.8V38h-1.22V27.5h5.33v1.11zm2.46-.01a.76.76 0 0 1-.78-.78c0-.23.07-.41.23-.56a.75.75 0 0 1 .55-.22.78.78 0 0 1 .79.78c0 .21-.08.4-.23.55a.77.77 0 0 1-.56.23zm.58 9.4h-1.2v-7.5h1.2V38zm6.34-6.28a1.47 1.47 0 0 0-.9-.25c-.52 0-.95.25-1.29.73a3.35 3.35 0 0 0-.52 1.98V38h-1.2v-7.5h1.2v1.55h.03c.17-.53.44-.94.79-1.24.35-.3.74-.44 1.18-.44.3 0 .55.03.71.1v1.25zm7.14 2.83h-5.3c.02.84.25 1.48.68 1.93.43.46 1.02.69 1.77.69.84 0 1.62-.28 2.33-.84v1.13c-.66.48-1.53.72-2.62.72-1.06 0-1.89-.34-2.5-1.03-.6-.68-.9-1.64-.9-2.87a4.1 4.1 0 0 1 .99-2.85 3.18 3.18 0 0 1 2.46-1.1c.99 0 1.74.31 2.28.95.54.63.8 1.51.8 2.64v.63zm-1.23-1.02c0-.7-.17-1.23-.5-1.62a1.7 1.7 0 0 0-1.38-.58c-.56 0-1.05.2-1.44.61-.4.4-.64.94-.73 1.6h4.05zm6.75-5.58a1.6 1.6 0 0 0-.8-.2c-.84 0-1.26.53-1.26 1.6v1.15h1.76v1.03h-1.76V38h-1.2v-6.47h-1.27V30.5h1.28v-1.22c0-.78.23-1.4.68-1.86a2.3 2.3 0 0 1 1.7-.68c.36 0 .66.04.87.13v1.08zm4.12 10.23c-1.1 0-1.99-.35-2.65-1.06a3.9 3.9 0 0 1-1-2.78c0-1.26.35-2.25 1.04-2.95a3.71 3.71 0 0 1 2.79-1.07c1.12 0 2 .35 2.62 1.04.63.69.94 1.64.94 2.86 0 1.2-.34 2.16-1.02 2.88a3.55 3.55 0 0 1-2.72 1.08zm.1-6.85c-.78 0-1.39.27-1.84.8a3.23 3.23 0 0 0-.67 2.16c0 .9.22 1.6.68 2.1.45.52 1.06.78 1.82.78a2.2 2.2 0 0 0 1.8-.76c.41-.5.62-1.22.62-2.15 0-.93-.21-1.66-.63-2.16a2.19 2.19 0 0 0-1.79-.77zm10.85-.83l-2.52 3.8 2.48 3.7h-1.4l-1.47-2.43c-.1-.15-.2-.34-.33-.57h-.03l-.34.57L47.7 38H46.3l2.56-3.68-2.45-3.82h1.4l1.45 2.56.31.59h.03l1.88-3.15h1.32zm8.72 4.42h-.04c-.35 1.17-1.05 1.75-2.1 1.75a2 2 0 0 1-1.61-.74c-.41-.5-.62-1.16-.62-2 0-1.1.29-2.02.85-2.75s1.3-1.09 2.22-1.09c.35 0 .67.09.94.27.28.18.46.4.54.68h.02l.08-.84h.91l-.34 4.1c0 1.02.29 1.52.87 1.52.53 0 .97-.28 1.32-.85a4.2 4.2 0 0 0 .52-2.22c0-1.34-.43-2.44-1.28-3.29a4.77 4.77 0 0 0-3.53-1.27 4.7 4.7 0 0 0-3.6 1.52 5.37 5.37 0 0 0-1.41 3.8c0 1.5.45 2.72 1.35 3.64.9.92 2.11 1.38 3.64 1.38 1.2 0 2.24-.2 3.1-.6v.9c-.85.37-1.9.55-3.17.55-1.78 0-3.21-.54-4.3-1.61a5.65 5.65 0 0 1-1.63-4.2c0-1.8.57-3.28 1.71-4.45a5.82 5.82 0 0 1 4.37-1.77c1.66 0 3.04.5 4.13 1.48a4.96 4.96 0 0 1 1.63 3.86c0 1.16-.29 2.12-.86 2.86a2.57 2.57 0 0 1-2.1 1.12c-1.07 0-1.6-.58-1.61-1.75zm-1.31-3.98c-.6 0-1.1.29-1.47.86-.37.58-.56 1.3-.56 2.15 0 .58.13 1.03.38 1.36.25.33.58.5 1 .5.6 0 1.09-.3 1.44-.9.36-.6.53-1.4.53-2.4 0-1.05-.44-1.57-1.32-1.57zM79.2 38H78v-4.3c0-.84-.13-1.44-.39-1.8-.26-.38-.69-.57-1.3-.57-.5 0-.94.24-1.3.7a2.69 2.69 0 0 0-.54 1.7V38h-1.2v-4.45c0-1.48-.57-2.22-1.7-2.22-.53 0-.97.23-1.31.67a2.74 2.74 0 0 0-.51 1.72V38h-1.2v-7.5h1.2v1.19h.03c.53-.91 1.3-1.37 2.33-1.37a2.17 2.17 0 0 1 2.12 1.56 2.68 2.68 0 0 1 2.49-1.56c1.65 0 2.48 1.02 2.48 3.06V38zm5.4.18c-1.1 0-2-.35-2.65-1.06a3.9 3.9 0 0 1-1-2.78c0-1.26.35-2.25 1.04-2.95a3.71 3.71 0 0 1 2.79-1.07c1.11 0 1.99.35 2.61 1.04.63.69.95 1.64.95 2.86 0 1.2-.34 2.16-1.02 2.88a3.55 3.55 0 0 1-2.72 1.08zm.09-6.85c-.77 0-1.38.27-1.83.8a3.23 3.23 0 0 0-.68 2.16c0 .9.23 1.6.68 2.1.46.52 1.07.78 1.83.78a2.2 2.2 0 0 0 1.79-.76c.42-.5.63-1.22.63-2.15 0-.93-.21-1.66-.63-2.16a2.19 2.19 0 0 0-1.8-.77zm10.8-.49l-4.44 6.13h4.39V38h-6.16v-.37l4.44-6.1H89.7V30.5h5.78v.34zm2.16-2.24a.76.76 0 0 1-.77-.78.75.75 0 0 1 .78-.78.78.78 0 0 1 .78.78c0 .21-.07.4-.23.55a.77.77 0 0 1-.56.23zm.59 9.4h-1.2v-7.5h1.2V38zm3.63 0h-1.2V26.9h1.2V38zm3.63 0h-1.2V26.9h1.2V38zm7.8 0h-1.2v-1.17h-.03c-.52.9-1.29 1.35-2.3 1.35-.75 0-1.34-.2-1.76-.6-.42-.4-.63-.92-.63-1.57 0-1.4.82-2.22 2.47-2.45l2.25-.31c0-1.28-.51-1.92-1.54-1.92-.9 0-1.72.31-2.45.93v-1.23c.74-.47 1.59-.7 2.55-.7 1.76 0 2.64.93 2.64 2.8V38zm-1.2-3.8l-1.8.26c-.56.07-.98.21-1.27.4-.28.2-.42.56-.42 1.06 0 .37.13.67.4.9.25.23.6.35 1.03.35.6 0 1.1-.21 1.48-.63.39-.42.58-.95.58-1.59v-.74zm3.88 3.96a.78.78 0 0 1-.57-.24.8.8 0 0 1-.24-.58.8.8 0 0 1 .24-.58.77.77 0 0 1 .57-.25.8.8 0 0 1 .6.25.8.8 0 0 1 .23.58c0 .23-.08.42-.24.58a.8.8 0 0 1-.59.24zm7.95-.5a3.9 3.9 0 0 1-2.05.52 3.4 3.4 0 0 1-2.59-1.05c-.65-.7-.98-1.6-.98-2.7 0-1.24.35-2.23 1.06-2.98a3.72 3.72 0 0 1 2.83-1.13c.66 0 1.24.13 1.75.37v1.23a3.05 3.05 0 0 0-1.8-.59c-.76 0-1.39.28-1.88.83-.49.55-.73 1.27-.73 2.16 0 .88.23 1.58.69 2.08.46.51 1.08.77 1.86.77.65 0 1.27-.22 1.84-.66v1.15zm4.95.52c-1.1 0-2-.35-2.65-1.06a3.9 3.9 0 0 1-1-2.78c0-1.26.35-2.25 1.04-2.95a3.71 3.71 0 0 1 2.79-1.07c1.12 0 1.99.35 2.62 1.04.62.69.94 1.64.94 2.86 0 1.2-.34 2.16-1.02 2.88a3.55 3.55 0 0 1-2.72 1.08zm.1-6.85c-.78 0-1.4.27-1.84.8a3.23 3.23 0 0 0-.67 2.16c0 .9.22 1.6.68 2.1.45.52 1.06.78 1.82.78a2.2 2.2 0 0 0 1.8-.76c.4-.5.62-1.22.62-2.15 0-.93-.21-1.66-.63-2.16a2.19 2.19 0 0 0-1.79-.77zm16.2 6.67h-1.2v-4.3c0-.84-.12-1.44-.38-1.8-.26-.38-.69-.57-1.3-.57-.5 0-.94.24-1.3.7a2.69 2.69 0 0 0-.54 1.7V38h-1.2v-4.45c0-1.48-.57-2.22-1.7-2.22-.53 0-.97.23-1.3.67a2.74 2.74 0 0 0-.52 1.72V38h-1.2v-7.5h1.2v1.19h.03c.53-.91 1.3-1.37 2.33-1.37a2.17 2.17 0 0 1 2.12 1.56 2.68 2.68 0 0 1 2.5-1.56c1.64 0 2.47 1.02 2.47 3.06V38z"/><path fill="#0C0C0D" d="M6.02 10H1.19V.9h4.62v.96H2.26V4.9h3.29v.96H2.26v3.19h3.76V10zm10.84 0h-1.04V6.27c0-.72-.11-1.24-.33-1.56-.23-.33-.6-.49-1.13-.49-.44 0-.82.2-1.13.61-.3.4-.46.9-.46 1.46V10h-1.05V6.14c0-1.28-.49-1.92-1.47-1.92-.46 0-.84.2-1.13.58-.3.38-.45.88-.45 1.5V10H7.63V3.5h1.04v1.03h.03a2.2 2.2 0 0 1 2.01-1.18 1.88 1.88 0 0 1 1.85 1.34c.48-.9 1.2-1.34 2.15-1.34 1.43 0 2.15.88 2.15 2.64V10zm6.62 0h-1.04V8.98h-.03a2.18 2.18 0 0 1-2 1.17c-.64 0-1.15-.17-1.52-.51-.36-.34-.55-.8-.55-1.37 0-1.21.72-1.92 2.15-2.12l1.95-.27c0-1.1-.45-1.66-1.34-1.66a3.2 3.2 0 0 0-2.12.8V3.96c.64-.4 1.37-.61 2.2-.61 1.54 0 2.3.8 2.3 2.42V10zm-1.04-3.29l-1.57.22c-.48.07-.85.18-1.1.36-.24.17-.36.47-.36.9a1 1 0 0 0 .34.78c.23.2.53.3.9.3.52 0 .95-.17 1.28-.54.34-.36.5-.82.5-1.37V6.7zm3.53-4.86a.66.66 0 0 1-.67-.67c0-.2.07-.36.2-.49s.29-.2.47-.2a.67.67 0 0 1 .69.69c0 .18-.07.34-.2.47-.13.13-.3.2-.49.2zm.51 8.15h-1.04V3.5h1.04V10zm3.15 0H28.6V.38h1.04V10zm10.32 0h-1.04V8.98h-.02a2.18 2.18 0 0 1-2 1.17c-.65 0-1.16-.17-1.52-.51-.37-.34-.55-.8-.55-1.37 0-1.21.71-1.92 2.14-2.12l1.95-.27c0-1.1-.45-1.66-1.34-1.66a3.2 3.2 0 0 0-2.12.8V3.96c.64-.4 1.38-.61 2.21-.61 1.53 0 2.3.8 2.3 2.42V10zm-1.04-3.29l-1.57.22c-.48.07-.84.18-1.09.36-.24.17-.37.47-.37.9a1 1 0 0 0 .34.78c.23.2.53.3.9.3.52 0 .95-.17 1.29-.54.33-.36.5-.82.5-1.37V6.7zM47.46 10h-1.04V8.9h-.02a2.4 2.4 0 0 1-2.24 1.25c-.82 0-1.47-.29-1.96-.87a3.58 3.58 0 0 1-.73-2.38c0-1.07.27-1.93.81-2.58a2.68 2.68 0 0 1 2.17-.97c.89 0 1.54.35 1.95 1.05h.02V.38h1.04V10zm-1.04-2.94V6.1c0-.52-.17-.97-.52-1.33a1.75 1.75 0 0 0-1.32-.55 1.8 1.8 0 0 0-1.5.7c-.36.47-.54 1.11-.54 1.93 0 .75.17 1.34.52 1.78.35.43.82.65 1.4.65.59 0 1.06-.21 1.42-.63.36-.42.54-.95.54-1.59zm8.7 2.94h-1.04V8.9h-.03a2.4 2.4 0 0 1-2.23 1.25c-.82 0-1.47-.29-1.96-.87a3.58 3.58 0 0 1-.74-2.38c0-1.07.28-1.93.82-2.58a2.68 2.68 0 0 1 2.16-.97c.9 0 1.54.35 1.95 1.05h.03V.38h1.04V10zm-1.04-2.94V6.1c0-.52-.18-.97-.52-1.33a1.75 1.75 0 0 0-1.33-.55 1.8 1.8 0 0 0-1.5.7c-.36.47-.54 1.11-.54 1.93 0 .75.18 1.34.52 1.78.35.43.82.65 1.41.65.58 0 1.05-.21 1.41-.63.36-.42.55-.95.55-1.59zm6.53-2.5c-.18-.15-.44-.22-.78-.22-.45 0-.82.21-1.12.63-.3.42-.44 1-.44 1.72V10h-1.05V3.5h1.05v1.34h.02c.15-.46.38-.81.68-1.07.3-.26.65-.38 1.02-.38.27 0 .48.03.62.08v1.08zM66.97 7h-4.6c.03.72.22 1.28.6 1.68.36.39.88.59 1.53.59.73 0 1.4-.24 2.02-.73v.98c-.57.41-1.33.62-2.27.62-.92 0-1.64-.3-2.16-.88a3.62 3.62 0 0 1-.8-2.5c0-1 .3-1.83.87-2.47a2.76 2.76 0 0 1 2.14-.95c.85 0 1.5.27 1.97.82.47.55.7 1.32.7 2.3V7zm-1.07-.88c0-.6-.15-1.07-.43-1.4-.29-.34-.69-.5-1.2-.5-.48 0-.9.17-1.24.52a2.4 2.4 0 0 0-.64 1.38h3.51zm2.25 3.64V8.65c.57.42 1.19.63 1.87.63.92 0 1.37-.3 1.37-.92a.8.8 0 0 0-.12-.44 1.17 1.17 0 0 0-.31-.32c-.14-.1-.3-.18-.47-.25a30.3 30.3 0 0 0-.58-.23 7.48 7.48 0 0 1-.76-.35 2.3 2.3 0 0 1-.55-.4 1.46 1.46 0 0 1-.33-.49c-.07-.19-.1-.4-.1-.65 0-.3.06-.58.2-.81.14-.24.33-.43.56-.6.23-.15.5-.27.8-.35a3.73 3.73 0 0 1 2.43.17v1.05a2.94 2.94 0 0 0-2.18-.4c-.15.04-.29.1-.4.19a.87.87 0 0 0-.26.29.76.76 0 0 0-.1.37c0 .17.04.3.1.42.06.12.15.22.27.3.12.1.26.18.43.25l.58.23c.29.11.54.23.77.34.23.12.43.25.59.4.16.14.28.31.37.5.09.2.13.42.13.68 0 .32-.07.6-.21.84-.15.24-.34.43-.57.59a2.6 2.6 0 0 1-.82.35c-.31.07-.63.11-.97.11-.67 0-1.25-.13-1.74-.38zm5.51 0V8.65c.57.42 1.2.63 1.88.63.91 0 1.37-.3 1.37-.92a.8.8 0 0 0-.12-.44 1.17 1.17 0 0 0-.32-.32c-.13-.1-.29-.18-.47-.25a30.3 30.3 0 0 0-.58-.23 7.48 7.48 0 0 1-.76-.35 2.3 2.3 0 0 1-.54-.4 1.46 1.46 0 0 1-.33-.49c-.08-.19-.11-.4-.11-.65 0-.3.07-.58.2-.81.15-.24.33-.43.57-.6.23-.15.5-.27.8-.35a3.73 3.73 0 0 1 2.43.17v1.05a2.94 2.94 0 0 0-2.18-.4c-.16.04-.3.1-.4.19a.87.87 0 0 0-.26.29.76.76 0 0 0-.1.37c0 .17.03.3.1.42.06.12.15.22.27.3.11.1.26.18.43.25l.57.23c.3.11.55.23.78.34.23.12.42.25.58.4.16.14.29.31.37.5.1.2.13.42.13.68 0 .32-.07.6-.2.84-.15.24-.34.43-.58.59a2.6 2.6 0 0 1-.81.35c-.31.07-.64.11-.98.11-.66 0-1.24-.13-1.74-.38z"/></g><g transform="translate(85 40)"><rect width="44" height="22" fill="#0A84FF" rx="2"/><polygon fill="#0A84FF" points="40 11 44 7 48 11 44 15"/><path fill="#FFFFFF" d="M9.1 11.51H6.4v3.77H5V7h1.4v3.37h2.7V7h1.4v8.28H9.1v-3.77zm7.97-1.84c.5.6.75 1.4.75 2.43 0 1.02-.26 1.84-.76 2.44-.5.6-1.2.9-2.11.9-.91 0-1.62-.3-2.12-.89-.5-.58-.75-1.4-.75-2.44 0-1 .25-1.81.76-2.42a2.6 2.6 0 0 1 2.12-.91c.91 0 1.62.3 2.11.89zm-3.2.71c-.25.38-.37.96-.37 1.73 0 .79.12 1.36.36 1.74.24.37.6.55 1.09.55.49 0 .85-.18 1.09-.56.24-.38.36-.96.36-1.74s-.12-1.35-.36-1.72a1.2 1.2 0 0 0-1.08-.56c-.49 0-.85.19-1.1.56zm9.06 4.9h-1.56l-2.25-6.34h1.46l1.6 5.22 1.61-5.22h1.38l-2.24 6.34zm5.54-1.35c.31.3.71.46 1.19.46.3 0 .58-.04.85-.14.26-.09.54-.23.82-.41l.57.82c-.3.24-.64.44-1.04.57-.4.14-.82.2-1.26.2-.97 0-1.72-.3-2.26-.9a3.5 3.5 0 0 1-.8-2.42c0-.63.12-1.2.35-1.7.23-.52.57-.91 1-1.2.45-.29.96-.43 1.54-.43.84 0 1.5.28 2 .84.5.57.74 1.34.74 2.32 0 .24-.01.44-.04.6h-4.2c.04.62.22 1.08.54 1.39zm-.08-3.69a2.3 2.3 0 0 0-.47 1.4h2.94a2.38 2.38 0 0 0-.38-1.39 1.21 1.21 0 0 0-1.04-.48c-.43 0-.78.16-1.05.47zm11.07-1.3l-.22 2.34h-.96v-1.3c-.44.02-.83.2-1.15.54-.32.34-.58.82-.77 1.45v2.35h1.27v.96h-3.55v-.96H35V9.9h-.93v-.96h1.95l.24 1.47c.25-.55.55-.95.9-1.22.36-.27.8-.4 1.33-.4.33 0 .65.05.96.15z"/></g></g></svg>