<svg xmlns="http://www.w3.org/2000/svg" xmlns:xlink="http://www.w3.org/1999/xlink" viewBox="0 0 360 100"><defs><rect id="a" width="178" height="32" rx="2"/></defs><g fill="none" fill-rule="evenodd"><g transform="translate(143 20)"><g transform="translate(0 16)"><use fill="#FFFFFF" xlink:href="#a"/><rect width="177" height="31" x=".5" y=".5" stroke="#FF0039" rx="2"/><g fill="#0C0C0D" transform="translate(10 10)"><path d="M11.08 12H9.86V4.95c0-.55.04-1.23.1-2.04h-.02c-.12.47-.23.81-.32 1.02L6.03 12h-.6L1.85 3.99c-.1-.24-.2-.6-.32-1.08H1.5c.04.42.06 1.1.06 2.06V12H.38V1.5H2l3.23 7.32c.24.56.4.98.48 1.26h.04c.21-.58.38-1 .5-1.29l3.3-7.3h1.53V12zm5.74.18c-1.1 0-2-.35-2.66-1.06a3.9 3.9 0 0 1-.99-2.78c0-1.26.35-2.25 1.04-2.95A3.71 3.71 0 0 1 17 4.32c1.11 0 1.99.35 2.61 1.04.63.69.95 1.64.95 2.86 0 1.2-.34 2.16-1.02 2.88a3.55 3.55 0 0 1-2.72 1.08zm.09-6.85c-.77 0-1.38.27-1.83.8a3.23 3.23 0 0 0-.68 2.16c0 .9.23 1.6.68 2.1.46.52 1.07.78 1.83.78a2.2 2.2 0 0 0 1.79-.76c.42-.5.62-1.22.62-2.15 0-.93-.2-1.66-.62-2.16a2.19 2.19 0 0 0-1.8-.77zm10.8-.49l-4.44 6.13h4.39V12H21.5v-.37l4.44-6.1h-4.02V4.5h5.78v.34zm2.16-2.24a.76.76 0 0 1-.77-.78.75.75 0 0 1 .78-.78.78.78 0 0 1 .78.78c0 .21-.07.4-.23.55a.77.77 0 0 1-.56.23zm.59 9.4h-1.2V4.5h1.2V12zm3.63 0h-1.2V.9h1.2V12zm3.63 0h-1.2V.9h1.2V12zm7.8 0h-1.2v-1.17h-.03c-.52.9-1.29 1.35-2.3 1.35-.75 0-1.34-.2-1.76-.6-.42-.4-.63-.92-.63-1.57 0-1.4.82-2.22 2.47-2.45l2.25-.31c0-1.28-.51-1.92-1.54-1.92-.9 0-1.72.31-2.45.93V5.03c.74-.47 1.59-.7 2.55-.7 1.76 0 2.64.93 2.64 2.8V12zm-1.2-3.8l-1.8.26c-.56.07-.98.21-1.27.4-.28.2-.42.56-.42 1.06 0 .37.13.67.39.9.26.23.61.35 1.04.35.6 0 1.1-.21 1.48-.63.39-.42.58-.95.58-1.59v-.74zm8.96-5.59h-4.1v3.63h3.8v1.1h-3.8V12h-1.23V1.5h5.33V2.6zm2.45-.01a.76.76 0 0 1-.78-.78c0-.23.08-.41.23-.56a.75.75 0 0 1 .55-.22.78.78 0 0 1 .79.78c0 .21-.08.4-.23.55a.77.77 0 0 1-.56.23zm.58 9.4h-1.2V4.5h1.2V12zm6.34-6.28a1.47 1.47 0 0 0-.9-.25c-.52 0-.94.25-1.29.73a3.35 3.35 0 0 0-.52 1.98V12h-1.2V4.5h1.2v1.55h.03c.18-.53.44-.94.79-1.24.35-.3.74-.44 1.18-.44.31 0 .55.03.71.1v1.25z"/></g></g><path fill="#0C0C0D" d="M6.02 10H1.19V.9h4.62v.96H2.26V4.9h3.29v.96H2.26v3.19h3.76V10zm10.84 0h-1.04V6.27c0-.72-.11-1.24-.33-1.56-.23-.33-.6-.49-1.13-.49-.44 0-.82.2-1.13.61-.3.4-.46.9-.46 1.46V10h-1.05V6.14c0-1.28-.49-1.92-1.47-1.92-.46 0-.84.2-1.13.58-.3.38-.45.88-.45 1.5V10H7.63V3.5h1.04v1.03h.03a2.2 2.2 0 0 1 2.01-1.18 1.88 1.88 0 0 1 1.85 1.34c.48-.9 1.2-1.34 2.15-1.34 1.43 0 2.15.88 2.15 2.64V10zm6.62 0h-1.04V8.98h-.03a2.18 2.18 0 0 1-2 1.17c-.64 0-1.15-.17-1.52-.51-.36-.34-.55-.8-.55-1.37 0-1.21.72-1.92 2.15-2.12l1.95-.27c0-1.1-.45-1.66-1.34-1.66a3.2 3.2 0 0 0-2.12.8V3.96c.64-.4 1.37-.61 2.2-.61 1.54 0 2.3.8 2.3 2.42V10zm-1.04-3.29l-1.57.22c-.48.07-.85.18-1.1.36-.24.17-.36.47-.36.9a1 1 0 0 0 .34.78c.23.2.53.3.9.3.52 0 .95-.17 1.28-.54.34-.36.5-.82.5-1.37V6.7zm3.53-4.86a.66.66 0 0 1-.67-.67c0-.2.07-.36.2-.49s.29-.2.47-.2a.67.67 0 0 1 .69.69c0 .18-.07.34-.2.47-.13.13-.3.2-.49.2zm.51 8.15h-1.04V3.5h1.04V10zm3.15 0H28.6V.38h1.04V10zm10.32 0h-1.04V8.98h-.02a2.18 2.18 0 0 1-2 1.17c-.65 0-1.16-.17-1.52-.51-.37-.34-.55-.8-.55-1.37 0-1.21.71-1.92 2.14-2.12l1.95-.27c0-1.1-.45-1.66-1.34-1.66a3.2 3.2 0 0 0-2.12.8V3.96c.64-.4 1.38-.61 2.21-.61 1.53 0 2.3.8 2.3 2.42V10zm-1.04-3.29l-1.57.22c-.48.07-.84.18-1.09.36-.24.17-.37.47-.37.9a1 1 0 0 0 .34.78c.23.2.53.3.9.3.52 0 .95-.17 1.29-.54.33-.36.5-.82.5-1.37V6.7zM47.46 10h-1.04V8.9h-.02a2.4 2.4 0 0 1-2.24 1.25c-.82 0-1.47-.29-1.96-.87a3.58 3.58 0 0 1-.73-2.38c0-1.07.27-1.93.81-2.58a2.68 2.68 0 0 1 2.17-.97c.89 0 1.54.35 1.95 1.05h.02V.38h1.04V10zm-1.04-2.94V6.1c0-.52-.17-.97-.52-1.33a1.75 1.75 0 0 0-1.32-.55 1.8 1.8 0 0 0-1.5.7c-.36.47-.54 1.11-.54 1.93 0 .75.17 1.34.52 1.78.35.43.82.65 1.4.65.59 0 1.06-.21 1.42-.63.36-.42.54-.95.54-1.59zm8.7 2.94h-1.04V8.9h-.03a2.4 2.4 0 0 1-2.23 1.25c-.82 0-1.47-.29-1.96-.87a3.58 3.58 0 0 1-.74-2.38c0-1.07.28-1.93.82-2.58a2.68 2.68 0 0 1 2.16-.97c.9 0 1.54.35 1.95 1.05h.03V.38h1.04V10zm-1.04-2.94V6.1c0-.52-.18-.97-.52-1.33a1.75 1.75 0 0 0-1.33-.55 1.8 1.8 0 0 0-1.5.7c-.36.47-.54 1.11-.54 1.93 0 .75.18 1.34.52 1.78.35.43.82.65 1.41.65.58 0 1.05-.21 1.41-.63.36-.42.55-.95.55-1.59zm6.53-2.5c-.18-.15-.44-.22-.78-.22-.45 0-.82.21-1.12.63-.3.42-.44 1-.44 1.72V10h-1.05V3.5h1.05v1.34h.02c.15-.46.38-.81.68-1.07.3-.26.65-.38 1.02-.38.27 0 .48.03.62.08v1.08zM66.97 7h-4.6c.03.72.22 1.28.6 1.68.36.39.88.59 1.53.59.73 0 1.4-.24 2.02-.73v.98c-.57.41-1.33.62-2.27.62-.92 0-1.64-.3-2.16-.88a3.62 3.62 0 0 1-.8-2.5c0-1 .3-1.83.87-2.47a2.76 2.76 0 0 1 2.14-.95c.85 0 1.5.27 1.97.82.47.55.7 1.32.7 2.3V7zm-1.07-.88c0-.6-.15-1.07-.43-1.4-.29-.34-.69-.5-1.2-.5-.48 0-.9.17-1.24.52a2.4 2.4 0 0 0-.64 1.38h3.51zm2.25 3.64V8.65c.57.42 1.19.63 1.87.63.92 0 1.37-.3 1.37-.92a.8.8 0 0 0-.12-.44 1.17 1.17 0 0 0-.31-.32c-.14-.1-.3-.18-.47-.25a30.3 30.3 0 0 0-.58-.23 7.48 7.48 0 0 1-.76-.35 2.3 2.3 0 0 1-.55-.4 1.46 1.46 0 0 1-.33-.49c-.07-.19-.1-.4-.1-.65 0-.3.06-.58.2-.81.14-.24.33-.43.56-.6.23-.15.5-.27.8-.35a3.73 3.73 0 0 1 2.43.17v1.05a2.94 2.94 0 0 0-2.18-.4c-.15.04-.29.1-.4.19a.87.87 0 0 0-.26.29.76.76 0 0 0-.1.37c0 .17.04.3.1.42.06.12.15.22.27.3.12.1.26.18.43.25l.58.23c.29.11.54.23.77.34.23.12.43.25.59.4.16.14.28.31.37.5.09.2.13.42.13.68 0 .32-.07.6-.21.84-.15.24-.34.43-.57.59a2.6 2.6 0 0 1-.82.35c-.31.07-.63.11-.97.11-.67 0-1.25-.13-1.74-.38zm5.51 0V8.65c.57.42 1.2.63 1.88.63.91 0 1.37-.3 1.37-.92a.8.8 0 0 0-.12-.44 1.17 1.17 0 0 0-.32-.32c-.13-.1-.29-.18-.47-.25a30.3 30.3 0 0 0-.58-.23 7.48 7.48 0 0 1-.76-.35 2.3 2.3 0 0 1-.54-.4 1.46 1.46 0 0 1-.33-.49c-.08-.19-.11-.4-.11-.65 0-.3.07-.58.2-.81.15-.24.33-.43.57-.6.23-.15.5-.27.8-.35a3.73 3.73 0 0 1 2.43.17v1.05a2.94 2.94 0 0 0-2.18-.4c-.16.04-.3.1-.4.19a.87.87 0 0 0-.26.29.76.76 0 0 0-.1.37c0 .17.03.3.1.42.06.12.15.22.27.3.11.1.26.18.43.25l.57.23c.3.11.55.23.78.34.23.12.42.25.58.4.16.14.29.31.37.5.1.2.13.42.13.68 0 .32-.07.6-.2.84-.15.24-.34.43-.58.59a2.6 2.6 0 0 1-.81.35c-.31.07-.64.11-.98.11-.66 0-1.24-.13-1.74-.38z"/><path fill="#FF0039" d="M6.74 53.3L3.88 61H2.9l-2.8-7.7H1.1l2.13 6.1c.07.2.12.43.16.69h.02c.03-.22.09-.45.18-.7l2.17-6.1h.98zm4.92 7.7h-.88v-.86h-.02c-.38.66-.95.99-1.7.99a1.8 1.8 0 0 1-1.28-.44 1.5 1.5 0 0 1-.46-1.15c0-1.03.6-1.63 1.81-1.8l1.65-.23c0-.93-.38-1.4-1.13-1.4a2.7 2.7 0 0 0-1.8.68v-.9a3.4 3.4 0 0 1 1.87-.52c1.3 0 1.94.69 1.94 2.05V61zm-.88-2.78l-1.33.18c-.4.06-.71.16-.92.3-.2.15-.31.4-.31.77 0 .27.1.5.29.66.19.17.44.26.76.26.44 0 .8-.16 1.08-.46.29-.3.43-.7.43-1.16v-.55zM14.2 61h-.88v-8.14h.88V61zm2.24-6.9a.56.56 0 0 1-.57-.57c0-.16.05-.3.16-.4.11-.12.25-.17.4-.17a.57.57 0 0 1 .59.57c0 .16-.06.3-.17.4a.56.56 0 0 1-.41.17zm.43 6.9h-.89v-5.5h.89V61zm6.47 0h-.88v-.93h-.02c-.4.7-1.04 1.06-1.89 1.06-.7 0-1.24-.25-1.66-.74a3.03 3.03 0 0 1-.62-2.01c0-.91.23-1.64.69-2.19a2.27 2.27 0 0 1 1.83-.82c.76 0 1.3.3 1.65.9h.02v-3.41h.88V61zm-.88-2.49v-.8c0-.45-.14-.83-.44-1.14-.3-.3-.66-.46-1.12-.46-.53 0-.96.2-1.26.6-.31.39-.47.93-.47 1.63 0 .63.15 1.13.45 1.5.3.36.69.55 1.19.55.49 0 .89-.18 1.2-.53.3-.36.45-.8.45-1.35zm10.1-.04h-3.88c.01.61.18 1.09.49 1.42.32.33.75.5 1.3.5.62 0 1.19-.2 1.7-.61v.82a3.2 3.2 0 0 1-1.9.53c-.79 0-1.4-.25-1.84-.75-.44-.5-.67-1.2-.67-2.1a3 3 0 0 1 .73-2.1c.49-.54 1.09-.8 1.8-.8.73 0 1.28.22 1.68.69.4.46.59 1.11.59 1.94v.46zm-.9-.75c0-.5-.13-.9-.37-1.18a1.25 1.25 0 0 0-1-.43c-.42 0-.78.15-1.07.45-.29.3-.46.68-.53 1.16h2.97zM41.7 61h-.88v-3.16c0-.6-.1-1.05-.28-1.32-.19-.27-.5-.4-.95-.4-.38 0-.7.16-.96.5-.26.35-.4.76-.4 1.24V61h-.87v-3.27c0-1.08-.42-1.62-1.26-1.62-.38 0-.7.16-.95.49a2 2 0 0 0-.38 1.26V61h-.88v-5.5h.88v.87h.02c.4-.67.96-1 1.71-1a1.6 1.6 0 0 1 1.56 1.14 1.96 1.96 0 0 1 1.83-1.14c1.2 0 1.81.75 1.81 2.24V61zm5.6 0h-.88v-.86h-.02c-.38.66-.95.99-1.7.99a1.8 1.8 0 0 1-1.28-.44 1.5 1.5 0 0 1-.46-1.15c0-1.03.6-1.63 1.81-1.8l1.65-.23c0-.93-.38-1.4-1.13-1.4a2.7 2.7 0 0 0-1.8.68v-.9a3.4 3.4 0 0 1 1.87-.52c1.3 0 1.94.69 1.94 2.05V61zm-.88-2.78l-1.32.18c-.41.06-.72.16-.93.3-.2.15-.31.4-.31.77 0 .27.1.5.29.66.19.17.44.26.76.26.44 0 .8-.16 1.09-.46.28-.3.42-.7.42-1.16v-.55zm3-4.12a.56.56 0 0 1-.58-.57c0-.16.06-.3.17-.4.11-.12.25-.17.4-.17a.57.57 0 0 1 .58.57c0 .16-.05.3-.17.4a.56.56 0 0 1-.4.17zm.42 6.9h-.88v-5.5h.88V61zm2.67 0h-.88v-8.14h.88V61zm7.66-4.6a1.08 1.08 0 0 0-.66-.19c-.38 0-.7.18-.95.54-.25.35-.37.83-.37 1.45V61h-.89v-5.5h.89v1.13h.02c.12-.38.31-.69.57-.9.26-.22.55-.33.87-.33.23 0 .4.03.52.08v.91zm5.38 2.07h-3.88c.01.61.17 1.09.49 1.42.31.33.75.5 1.3.5.62 0 1.19-.2 1.7-.61v.82a3.2 3.2 0 0 1-1.91.53c-.78 0-1.39-.25-1.83-.75-.45-.5-.67-1.2-.67-2.1a3 3 0 0 1 .73-2.1c.49-.54 1.09-.8 1.8-.8.73 0 1.28.22 1.68.69.4.46.59 1.11.59 1.94v.46zm-.9-.75c0-.5-.13-.9-.37-1.18a1.25 1.25 0 0 0-1-.43c-.42 0-.78.15-1.07.45-.29.3-.47.68-.53 1.16h2.97zm6.93 5.81h-.89v-3.48h-.02c-.38.72-1 1.08-1.88 1.08-.69 0-1.24-.25-1.66-.74a3.01 3.01 0 0 1-.63-2.01c0-.91.23-1.64.7-2.19a2.29 2.29 0 0 1 1.84-.82c.75 0 1.3.3 1.63.9h.02v-.77h.89v8.03zm-.89-5v-.8c0-.46-.14-.84-.44-1.15-.3-.31-.67-.47-1.12-.47-.53 0-.95.2-1.26.59-.3.4-.46.94-.46 1.66 0 .63.15 1.13.44 1.49.3.36.68.54 1.15.54.52 0 .93-.18 1.24-.53.3-.35.45-.8.45-1.34zM77.81 61h-.89v-.87h-.02c-.36.67-.93 1-1.7 1-1.3 0-1.96-.78-1.96-2.34V55.5h.88v3.15c0 1.16.44 1.74 1.33 1.74.43 0 .78-.16 1.06-.48.28-.31.41-.73.41-1.24V55.5h.89V61zm2.22-6.9a.56.56 0 0 1-.56-.57c0-.16.05-.3.16-.4.11-.12.25-.17.4-.17a.57.57 0 0 1 .58.57c0 .16-.05.3-.16.4a.56.56 0 0 1-.42.17zm.43 6.9h-.88v-5.5h.88V61zm4.66-4.6a1.08 1.08 0 0 0-.67-.19c-.38 0-.69.18-.94.54-.26.35-.38.83-.38 1.45V61h-.88v-5.5h.88v1.13h.02c.13-.38.32-.69.57-.9.26-.22.55-.33.87-.33.23 0 .4.03.53.08v.91zm5.37 2.07h-3.88c.01.61.18 1.09.5 1.42.3.33.74.5 1.3.5.61 0 1.18-.2 1.7-.61v.82a3.2 3.2 0 0 1-1.92.53c-.77 0-1.38-.25-1.83-.75-.44-.5-.66-1.2-.66-2.1a3 3 0 0 1 .72-2.1c.49-.54 1.1-.8 1.81-.8.72 0 1.28.22 1.67.69.4.46.6 1.11.6 1.94v.46zm-.9-.75c0-.5-.13-.9-.37-1.18a1.25 1.25 0 0 0-1-.43c-.42 0-.77.15-1.06.45-.3.3-.47.68-.54 1.16h2.97zM96.52 61h-.88v-.93h-.02c-.41.7-1.04 1.06-1.9 1.06-.69 0-1.24-.25-1.65-.74a3.03 3.03 0 0 1-.62-2.01c0-.91.23-1.64.69-2.19a2.27 2.27 0 0 1 1.83-.82c.75 0 1.3.3 1.65.9h.02v-3.41h.88V61zm-.88-2.49v-.8c0-.45-.15-.83-.44-1.14-.3-.3-.67-.46-1.12-.46-.54 0-.96.2-1.27.6-.3.39-.46.93-.46 1.63 0 .63.15 1.13.44 1.5.3.36.7.55 1.2.55.48 0 .88-.18 1.19-.53.3-.36.46-.8.46-1.35z"/><g transform="translate(156 25)"><circle cx="6.5" cy="6.5" r="6.5" fill="#797676"/><g stroke="#FFFFFF" stroke-linecap="square" stroke-width="1.1" transform="translate(4 4)"><path d="M5 0L0 5m5 0L0 0"/></g></g></g><g transform="translate(41 41)"><rect width="88" height="22" fill="#0A84FF" rx="2"/><polygon fill="#0A84FF" points="84 11 88 7 92 11 88 15"/><path fill="#FFFFFF" d="M6.4 10.72h3v1.04h-3v2.63h3.65v1.05H5V7.16h4.98l-.16 1.06H6.4v2.5zM10.9 9.1h1.17l.1.83a2.55 2.55 0 0 1 2.05-1c.58 0 1.02.16 1.31.5.3.32.45.78.45 1.38v4.62h-1.35V11.5c0-.4-.02-.7-.06-.91a.77.77 0 0 0-.26-.47c-.13-.1-.32-.15-.58-.15-.28 0-.56.09-.82.27-.26.17-.48.4-.66.66v4.54H10.9V9.11zm10.65 6.36c-.32.09-.65.13-1 .13-.72 0-1.28-.19-1.67-.56a2 2 0 0 1-.59-1.52V10.1h-1.4v-.98h1.4V7.69l1.34-.15V9.1h2.15l-.15.98h-2v3.42c0 .35.1.6.27.76.17.17.45.25.84.25.42 0 .81-.1 1.17-.3l.48.89a3.1 3.1 0 0 1-.84.36zm3.4-1.38c.32.31.72.47 1.2.47.3 0 .57-.05.84-.14.27-.1.54-.23.82-.42l.58.82c-.3.25-.64.44-1.04.58-.4.13-.82.2-1.26.2-.97 0-1.72-.3-2.26-.9a3.5 3.5 0 0 1-.8-2.42c0-.64.11-1.2.34-1.71.24-.51.57-.91 1.01-1.2.44-.29.95-.43 1.54-.43.84 0 1.5.28 2 .85.49.56.73 1.33.73 2.32 0 .24 0 .44-.03.6h-4.2c.04.61.22 1.08.53 1.38zm-.08-3.69a2.3 2.3 0 0 0-.46 1.4h2.94a2.38 2.38 0 0 0-.39-1.38 1.21 1.21 0 0 0-1.03-.48c-.43 0-.78.15-1.06.46zm10.08-1.3l-.23 2.35h-.96v-1.3c-.44.01-.82.19-1.14.53-.33.34-.59.83-.78 1.45v2.35h1.27v.96h-3.55v-.96h.94v-4.41h-.94V9.1h1.96l.24 1.46c.25-.54.55-.95.9-1.22.36-.26.8-.4 1.33-.4.33 0 .65.05.96.16zm11.98-.88h-1.8v6.16h1.8v1.06h-5v-1.06h1.8V8.22h-1.8V7.16h5v1.06zm1.17.89h1.17l.1.83a2.55 2.55 0 0 1 2.05-1c.58 0 1.02.16 1.31.5.3.32.45.78.45 1.38v4.62h-1.35V11.5c0-.4-.02-.7-.06-.91a.77.77 0 0 0-.26-.47c-.13-.1-.32-.15-.58-.15-.28 0-.56.09-.82.27-.26.17-.48.4-.66.66v4.54H48.1V9.11zm9.51 6.33h-1.56l-2.24-6.33h1.45l1.6 5.22 1.62-5.22h1.38l-2.25 6.33zm7.85-1.01c.07.12.2.2.37.26l-.31.91c-.67-.08-1.1-.37-1.31-.88-.23.3-.52.51-.87.66a2.9 2.9 0 0 1-1.15.22c-.64 0-1.14-.18-1.52-.54a1.89 1.89 0 0 1-.56-1.43c0-.66.26-1.17.78-1.53a3.9 3.9 0 0 1 2.23-.54h.9v-.41c0-.4-.12-.7-.36-.88a1.7 1.7 0 0 0-1.05-.27 6.53 6.53 0 0 0-1.68.32l-.33-.95c.76-.29 1.5-.43 2.22-.43.84 0 1.47.18 1.9.55.42.37.63.9.63 1.57v2.84c0 .24.04.41.1.53zm-2.06-.03c.26-.14.47-.34.62-.6v-1.4h-.75c-.6 0-1.05.1-1.33.3-.28.2-.42.5-.42.88 0 .34.1.6.27.77.18.18.45.27.8.27.28 0 .55-.08.81-.22zm6.09-.68c0 .53.32.8.96.8.32 0 .65-.07 1-.22l.34.94c-.44.24-.98.36-1.63.36a2 2 0 0 1-1.48-.53 1.99 1.99 0 0 1-.54-1.47V7.55h-1.9v-.99h3.25v7.16zm6.57-7.47c.17.16.25.36.25.6a.8.8 0 0 1-.25.6.86.86 0 0 1-.63.24.86.86 0 0 1-.63-.24.81.81 0 0 1-.24-.6c0-.25.08-.45.24-.61a.86.86 0 0 1 .63-.24c.26 0 .47.08.63.25zm.3 8.21h1.73v.98h-4.96v-.98h1.88v-4.37H73.2v-.98h3.17v5.35zm7.8-7.9v8.88H83l-.1-.78a2.12 2.12 0 0 1-1.77.94c-.8 0-1.4-.3-1.8-.89-.4-.59-.6-1.4-.6-2.43 0-.65.11-1.23.31-1.73s.5-.9.87-1.18c.38-.29.82-.43 1.34-.43.64 0 1.18.23 1.6.7V6.4l1.34.15zm-3.65 3.98c-.24.38-.36.96-.36 1.74 0 1.53.44 2.3 1.32 2.3.52 0 .98-.3 1.35-.91v-2.99c-.33-.47-.74-.7-1.25-.7-.46 0-.81.18-1.06.56z"/></g><path fill="#0A84FF" d="M59.52 71.17c.14.48.35.93.64 1.35.3.42.69.87 1.19 1.35l-.61.6a8.1 8.1 0 0 1-1.94-2.22 5.54 5.54 0 0 1-.64-2.75c0-1.07.21-1.98.64-2.75a8.1 8.1 0 0 1 1.94-2.22l.61.6c-.5.47-.88.92-1.18 1.34-.29.41-.5.86-.65 1.35a5.96 5.96 0 0 0-.21 1.68c0 .63.07 1.19.21 1.67zm8.25-2.84c.41.5.62 1.17.62 2.02 0 .85-.21 1.53-.63 2.03-.42.5-1 .75-1.76.75s-1.35-.24-1.77-.73a3.04 3.04 0 0 1-.62-2.04c0-.84.21-1.51.64-2.02.42-.5 1-.76 1.76-.76s1.35.25 1.76.75zm-2.67.59c-.2.31-.31.8-.31 1.44 0 .65.1 1.13.3 1.45.2.3.5.46.91.46a1 1 0 0 0 .91-.47c.2-.31.3-.8.3-1.45 0-.65-.1-1.12-.3-1.43a1 1 0 0 0-.9-.47c-.4 0-.71.16-.92.47zm9.29 1.43c0 .83-.18 1.5-.53 2.02-.35.5-.86.76-1.51.76-.55 0-1-.2-1.34-.58v2.48l-1.12.13v-7.44h.97l.07.68c.2-.27.43-.47.7-.61.26-.14.54-.21.84-.21 1.28 0 1.92.92 1.92 2.77zm-2.87-1.7c-.2.14-.36.32-.51.55v2.47c.26.4.6.59 1.04.59.39 0 .68-.15.87-.46.2-.3.29-.79.29-1.44a3.1 3.1 0 0 0-.26-1.47.85.85 0 0 0-.79-.45c-.23 0-.45.07-.64.21zm8.08 4.37c-.27.07-.55.11-.84.11-.6 0-1.06-.15-1.39-.46a1.66 1.66 0 0 1-.49-1.27v-2.86h-1.17v-.82h1.17v-1.18l1.12-.13v1.31h1.79l-.13.82H78v2.85c0 .29.07.5.22.64.15.13.38.2.7.2.35 0 .68-.08.98-.25l.4.74c-.2.13-.43.23-.7.3zm4.93-7.69c.13.14.2.31.2.51s-.07.37-.2.5a.72.72 0 0 1-.53.2.72.72 0 0 1-.53-.2.68.68 0 0 1-.2-.5c0-.2.07-.38.2-.51.14-.13.32-.2.53-.2.21 0 .39.07.53.2zm.24 6.85h1.44V73h-4.13v-.82h1.57v-3.64h-1.52v-.82h2.64v4.46zm7-3.86c.41.5.62 1.18.62 2.03 0 .85-.21 1.53-.63 2.03-.42.5-1 .75-1.76.75s-1.35-.24-1.77-.73a3.04 3.04 0 0 1-.62-2.04c0-.84.21-1.51.64-2.02.42-.5 1-.76 1.76-.76s1.35.25 1.76.75zm-2.67.6c-.2.31-.31.8-.31 1.44 0 .65.1 1.13.3 1.45.2.3.5.46.91.46a1 1 0 0 0 .91-.47c.2-.31.3-.8.3-1.45 0-.65-.1-1.12-.3-1.43a1 1 0 0 0-.9-.47c-.4 0-.71.16-.92.47zm4.79-1.2h.97l.08.69c.22-.27.48-.47.78-.61.3-.15.6-.22.93-.22.49 0 .85.14 1.1.41.25.27.37.66.37 1.16V73H97v-3.29c0-.33-.02-.58-.06-.75a.64.64 0 0 0-.21-.4c-.1-.08-.27-.12-.48-.12-.24 0-.47.07-.69.22-.21.15-.4.33-.55.55V73h-1.12v-5.28zm10.13 4.44c.06.1.16.16.31.21l-.26.76c-.55-.07-.92-.31-1.09-.73-.2.24-.43.42-.73.54-.29.13-.6.19-.95.19-.53 0-.96-.15-1.27-.45-.31-.3-.47-.7-.47-1.19 0-.55.22-.98.66-1.28.43-.3 1.05-.45 1.85-.45h.75v-.34c0-.33-.1-.58-.3-.73a1.4 1.4 0 0 0-.87-.23 5.44 5.44 0 0 0-1.4.27l-.28-.79a5.2 5.2 0 0 1 1.85-.36c.7 0 1.23.15 1.58.46.35.3.53.74.53 1.31v2.36c0 .2.03.35.09.45zm-1.71-.03c.21-.12.38-.29.51-.5v-1.17h-.62c-.5 0-.88.08-1.11.26a.85.85 0 0 0-.35.73c0 .28.07.5.23.64.15.15.37.22.66.22.23 0 .46-.06.68-.18zm5.9-.57c0 .45.27.67.8.67.27 0 .55-.06.84-.18l.28.78c-.37.2-.82.3-1.36.3-.53 0-.94-.15-1.23-.44-.3-.3-.45-.71-.45-1.23v-5.04h-1.59v-.82h2.71v5.96zm6.27-3.74a4.66 4.66 0 0 0-.66-1.35 9.12 9.12 0 0 0-1.17-1.34l.61-.6a8.1 8.1 0 0 1 1.94 2.22c.43.77.64 1.68.64 2.75s-.21 1.98-.64 2.75a8.1 8.1 0 0 1-1.94 2.22l-.61-.6c.5-.48.9-.93 1.18-1.35.3-.42.51-.87.65-1.35.14-.48.21-1.04.21-1.67 0-.63-.07-1.2-.22-1.68z"/></g></svg>