<svg xmlns="http://www.w3.org/2000/svg" viewBox="0 0 504 100"><g fill="none" fill-rule="evenodd"><g transform="translate(300 36)"><g fill="#0C0C0D"><path fill-opacity=".3" fill-rule="nonzero" d="M2 1a1 1 0 0 0-1 1v26a1 1 0 0 0 1 1h174a1 1 0 0 0 1-1V2a1 1 0 0 0-1-1H2zm0-1h174a2 2 0 0 1 2 2v26a2 2 0 0 1-2 2H2a2 2 0 0 1-2-2V2C0 .9.9 0 2 0z"/><path fill-rule="nonzero" d="M14.7 17.72a1 1 0 1 0-1.41-1.41l-4.96 4.95a1 1 0 1 0 1.41 1.41l4.95-4.95zm3.26 1.32a6 6 0 1 0 0-12 6 6 0 0 0 0 12zm0-2a4 4 0 1 1 0-8 4 4 0 0 1 0 8z" opacity=".4"/><path d="M43.12 12.1h-1.27l-1.55 6.32h-.12l-1.76-6.32H37.2l-1.77 6.32h-.11l-1.56-6.32H32.5L34.7 20h1.27l1.76-6.1h.12l1.76 6.1h1.29l2.2-7.9zm11.61 0h-1.26l-1.56 6.32h-.11l-1.77-6.32h-1.2l-1.77 6.32h-.12L45.4 12.1H44.1l2.22 7.9h1.27l1.76-6.1h.12l1.76 6.1h1.28l2.21-7.9zm11.62 0h-1.27l-1.55 6.32h-.12l-1.76-6.32h-1.21l-1.77 6.32h-.11L57 12.1h-1.27l2.21 7.9h1.28l1.75-6.1h.12l1.77 6.1h1.28l2.21-7.9zm1.63 7.97a.95.95 0 1 0 0 0zm3.5-.07h1.26v-6.84h1.8V12.1h-1.8v-.73c0-.88.42-1.27 1.18-1.27.25 0 .53.03.7.07V9.12c-.3-.06-.53-.08-.78-.08-1.52 0-2.36.68-2.36 2.3v.76h-1.31v1.06h1.3V20zm4.93 0h1.26v-7.9H76.4V20zm.63-9.5c.48 0 .88-.4.88-.88s-.4-.88-.88-.88a.88.88 0 0 0 0 1.76zm3.03 9.5h1.26v-4.9c0-1.1.87-1.91 2.07-1.91.25 0 .7.04.8.07V12a5.41 5.41 0 0 0-.62-.03c-1.05 0-1.96.54-2.2 1.3h-.11V12.1h-1.2V20zm8.64-6.92c-1.26 0-2.14.92-2.23 2.32h4.35c-.03-1.4-.87-2.32-2.12-2.32zm2.08 4.88h1.26c-.38 1.35-1.6 2.18-3.32 2.18-2.2 0-3.56-1.58-3.56-4.08 0-2.48 1.39-4.1 3.56-4.1 2.13 0 3.42 1.52 3.42 3.98v.48h-5.67v.06c.06 1.56.94 2.55 2.28 2.55 1.01 0 1.7-.38 2.03-1.07zM94.66 20h1.26v-6.84h1.8V12.1h-1.8v-.73c0-.88.42-1.27 1.18-1.27.25 0 .53.03.7.07V9.12c-.3-.06-.53-.08-.78-.08-1.52 0-2.36.68-2.36 2.3v.76h-1.31v1.06h1.3V20zm7.81.14c-2.24 0-3.64-1.55-3.64-4.09s1.4-4.08 3.64-4.08c2.25 0 3.64 1.54 3.64 4.08s-1.39 4.09-3.64 4.09zm0-1.14c1.5 0 2.34-1.08 2.34-2.95s-.84-2.95-2.34-2.95-2.33 1.08-2.33 2.95.84 2.95 2.33 2.95z"/></g><g transform="translate(156 9)"><circle cx="6.5" cy="6.5" r="6.5" fill="#797676"/><g fill="#FFFFFF" fill-rule="nonzero" transform="translate(4 4)"><polygon points="5 -.778 -.778 5 0 5.778 5.778 0"/><polygon points="5.778 5 0 -.778 -.778 0 5 5.778"/></g></g></g><g transform="translate(108 14)"><g fill="#0C0C0D" transform="translate(0 22)"><path fill-opacity=".3" fill-rule="nonzero" d="M2 1a1 1 0 0 0-1 1v26a1 1 0 0 0 1 1h174a1 1 0 0 0 1-1V2a1 1 0 0 0-1-1H2zm0-1h174a2 2 0 0 1 2 2v26a2 2 0 0 1-2 2H2a2 2 0 0 1-2-2V2C0 .9.9 0 2 0z"/><path d="M20.76 20V9.43h-1.53l-3.62 8.75h-.11l-3.62-8.75h-1.53V20h1.23v-8.07h.09l3.33 8h1.11l3.33-8h.1V20h1.22zm5.78.14c-2.25 0-3.64-1.55-3.64-4.09s1.4-4.08 3.64-4.08c2.25 0 3.64 1.54 3.64 4.08s-1.39 4.09-3.64 4.09zm0-1.14c1.5 0 2.34-1.08 2.34-2.95s-.84-2.95-2.34-2.95-2.33 1.08-2.33 2.95.84 2.95 2.33 2.95zm5.22 1h6.08v-1.05h-4.56v-.12l4.53-5.78v-.95h-6.05v1.06h4.55v.12l-4.55 5.8V20zm8.3 0h1.25v-7.9h-1.26V20zm.62-9.5a.88.88 0 0 0 0-1.76.88.88 0 0 0 0 1.76zM43.8 20h1.26V8.97h-1.26V20zm3.78 0h1.26V8.97h-1.26V20zm6.14-.97c1.3 0 2.25-.85 2.25-1.97v-.73l-2.12.14c-1.2.08-1.73.5-1.73 1.29 0 .8.68 1.27 1.6 1.27zm-.24 1.1c-1.53 0-2.66-.9-2.66-2.34 0-1.42 1.04-2.23 2.88-2.34l2.27-.14v-.72c0-.97-.6-1.5-1.78-1.5-.95 0-1.6.35-1.78.98h-1.28c.17-1.27 1.42-2.1 3.1-2.1 1.93 0 3 .98 3 2.62V20h-1.2v-1.16h-.12a2.73 2.73 0 0 1-2.43 1.3zm7.56-.13v-4.58h4.68v-1.17h-4.68v-3.63h5.1V9.43H59.7V20h1.32zm7.14 0h1.25v-7.9h-1.25V20zm.62-9.5a.88.88 0 0 0 0-1.76.88.88 0 0 0 0 1.76zm3.04 9.5h1.26v-4.9c0-1.1.87-1.91 2.07-1.91.25 0 .7.04.8.07V12a5.41 5.41 0 0 0-.62-.03c-1.05 0-1.96.54-2.2 1.3h-.11V12.1h-1.2V20z"/></g><path fill="#0C0C0D" d="M6.84 14.97H2.31v-3.15h4.3v-1.01H2.3V7.87h4.53V6.84H1.17V16h5.67v-1.03zM8.77 16h1.1v-4.24c0-.97.69-1.74 1.58-1.74.86 0 1.43.52 1.43 1.33V16h1.1v-4.4c0-.87.63-1.58 1.58-1.58.96 0 1.44.5 1.44 1.5V16h1.1v-4.73c0-1.43-.79-2.23-2.19-2.23a2.3 2.3 0 0 0-2.1 1.2h-.1a1.98 1.98 0 0 0-1.88-1.2c-.92 0-1.6.43-1.91 1.2h-.1V9.16H8.76V16zm13.42-.84c1.12 0 1.96-.73 1.96-1.71v-.63l-1.84.12c-1.05.07-1.5.43-1.5 1.12 0 .7.59 1.1 1.38 1.1zm-.2.96c-1.33 0-2.31-.79-2.31-2.04 0-1.22.9-1.93 2.5-2.02l1.97-.12v-.62c0-.85-.53-1.31-1.55-1.31-.82 0-1.4.3-1.54.85h-1.1c.14-1.1 1.22-1.82 2.68-1.82 1.67 0 2.6.85 2.6 2.28V16H24.2v-1h-.1a2.36 2.36 0 0 1-2.11 1.12zm5.3-.12h1.08V9.16h-1.09V16zm.54-8.23c.42 0 .76-.35.76-.76a.76.76 0 0 0-.76-.77.76.76 0 0 0-.76.77c0 .41.34.76.76.76zM30.52 16h1.1V6.44h-1.1V16zm8.99-.84c1.12 0 1.95-.73 1.95-1.71v-.63l-1.84.12c-1.04.07-1.5.43-1.5 1.12 0 .7.6 1.1 1.39 1.1zm-.2.96c-1.33 0-2.32-.79-2.32-2.04 0-1.22.9-1.93 2.5-2.02l1.97-.12v-.62c0-.85-.52-1.31-1.55-1.31-.81 0-1.39.3-1.54.85h-1.1c.14-1.1 1.22-1.82 2.68-1.82 1.67 0 2.6.85 2.6 2.28V16h-1.04v-1h-.1a2.36 2.36 0 0 1-2.1 1.12zm7.8 0c-1.76 0-2.88-1.39-2.88-3.54 0-2.15 1.14-3.54 2.88-3.54.95 0 1.75.45 2.14 1.2h.1v-3.8h1.09V16H49.4v-1.1h-.1a2.45 2.45 0 0 1-2.2 1.22zm.25-6.1c-1.24 0-2 .97-2 2.56 0 1.6.75 2.56 2 2.56 1.24 0 2.01-.98 2.01-2.56 0-1.57-.77-2.56-2.01-2.56zm7.73 6.1c-1.75 0-2.87-1.39-2.87-3.54 0-2.15 1.13-3.54 2.87-3.54.95 0 1.76.45 2.15 1.2h.1v-3.8h1.08V16h-1.04v-1.1h-.1a2.45 2.45 0 0 1-2.19 1.22zm.26-6.1c-1.25 0-2 .97-2 2.56 0 1.6.74 2.56 2 2.56 1.24 0 2-.98 2-2.56 0-1.57-.77-2.56-2-2.56zm5.2 5.98h1.09v-4.24c0-.97.75-1.66 1.8-1.66.2 0 .6.03.69.06v-1.1a4.69 4.69 0 0 0-.55-.02c-.9 0-1.69.47-1.9 1.13h-.1V9.16h-1.04V16zm7.67-6c-1.09 0-1.85.8-1.93 2.01h3.77c-.03-1.2-.75-2-1.84-2zm1.8 4.23h1.1c-.33 1.17-1.38 1.9-2.88 1.9-1.9 0-3.09-1.38-3.09-3.55 0-2.15 1.2-3.54 3.09-3.54 1.84 0 2.97 1.31 2.97 3.44v.42h-4.92v.05c.06 1.35.81 2.2 1.97 2.2.89 0 1.48-.32 1.77-.92zm2.74-3.2c0 .99.59 1.54 1.87 1.85l1.17.29c.73.18 1.09.5 1.09.96 0 .63-.66 1.07-1.58 1.07-.88 0-1.42-.37-1.6-.95h-1.13c.12 1.14 1.17 1.87 2.7 1.87 1.55 0 2.73-.84 2.73-2.07 0-.98-.62-1.54-1.9-1.85l-1.06-.26c-.8-.2-1.19-.48-1.19-.95 0-.61.64-1.03 1.45-1.03.82 0 1.36.37 1.5.91h1.08c-.14-1.12-1.14-1.83-2.58-1.83-1.45 0-2.55.85-2.55 1.99zm6.8 0c0 .99.6 1.54 1.87 1.85l1.18.29c.73.18 1.08.5 1.08.96 0 .63-.66 1.07-1.58 1.07-.87 0-1.42-.37-1.6-.95h-1.13c.12 1.14 1.17 1.87 2.7 1.87 1.55 0 2.74-.84 2.74-2.07 0-.98-.62-1.54-1.91-1.85l-1.06-.26c-.8-.2-1.18-.48-1.18-.95 0-.61.63-1.03 1.44-1.03.83 0 1.36.37 1.5.91h1.09c-.15-1.12-1.15-1.83-2.58-1.83-1.45 0-2.55.85-2.55 1.99z"/><g transform="translate(156 31)"><circle cx="6.5" cy="6.5" r="6.5" fill="#797676"/><g fill="#FFFFFF" fill-rule="nonzero" transform="translate(4 4)"><polygon points="5 -.778 -.778 5 0 5.778 5.778 0"/><polygon points="5.778 5 0 -.778 -.778 0 5 5.778"/></g></g></g><g transform="translate(6 39)"><rect width="88" height="22" fill="#0A84FF" rx="2"/><polygon fill="#0A84FF" points="84 11 88 7 92 11 88 15"/><path fill="#FFFFFF" d="M7.15 8.27h3v1.05h-3v2.62h3.66V13H5.76V4.72h4.98l-.16 1.06H7.15v2.5zm5.52-1.6h1.16l.1.82c.26-.32.57-.56.93-.74.35-.17.73-.25 1.12-.25.58 0 1.02.16 1.32.49.3.33.44.79.44 1.39V13H16.4V9.05c0-.39-.02-.7-.07-.9a.77.77 0 0 0-.25-.47c-.13-.1-.32-.15-.58-.15-.29 0-.56.09-.82.26-.26.18-.48.4-.67.66V13h-1.34V6.66zm11.65 6.35c-.32.1-.66.14-1 .14-.73 0-1.28-.19-1.68-.56a2 2 0 0 1-.58-1.52V7.65h-1.4v-.99h1.4V5.25l1.34-.16v1.57h2.15l-.16.99H22.4v3.42c0 .34.09.6.26.76.18.16.46.25.84.25.43 0 .82-.1 1.18-.3l.48.88a3.1 3.1 0 0 1-.84.36zm4.4-1.37c.31.3.71.46 1.2.46.29 0 .57-.04.84-.14.27-.09.54-.23.82-.41l.58.82c-.3.24-.65.44-1.05.57-.4.14-.82.2-1.26.2-.97 0-1.72-.3-2.25-.9a3.5 3.5 0 0 1-.8-2.42c0-.63.1-1.2.34-1.7.23-.52.57-.91 1-1.2.45-.29.96-.43 1.54-.43.84 0 1.51.28 2 .84.5.57.74 1.34.74 2.32 0 .24-.01.44-.04.6h-4.2c.04.62.22 1.08.54 1.39zm-.08-3.69a2.3 2.3 0 0 0-.47 1.4h2.94a2.38 2.38 0 0 0-.38-1.39 1.21 1.21 0 0 0-1.03-.48c-.44 0-.79.16-1.06.47zm11.08-1.3L39.49 9h-.96V7.7c-.44.02-.82.2-1.15.54-.32.34-.58.82-.77 1.45v2.35h1.27V13h-3.55v-.96h.93V7.62h-.93v-.96h1.95l.24 1.47c.25-.55.55-.95.91-1.22s.8-.4 1.33-.4c.32 0 .64.05.96.15zM51.98 13h-1.56l-2.24-6.34h1.45l1.6 5.22 1.61-5.22h1.38L51.98 13zm8.84-1.01c.08.11.2.2.38.25l-.32.92c-.66-.08-1.1-.38-1.3-.88-.24.29-.53.5-.87.65a2.9 2.9 0 0 1-1.15.23c-.64 0-1.15-.18-1.52-.54a1.89 1.89 0 0 1-.57-1.43c0-.67.26-1.18.79-1.54a3.9 3.9 0 0 1 2.22-.54h.9v-.4c0-.4-.12-.7-.36-.88a1.7 1.7 0 0 0-1.04-.28 6.53 6.53 0 0 0-1.68.32l-.34-.94c.76-.29 1.5-.43 2.22-.43.84 0 1.48.18 1.9.55.42.37.64.89.64 1.57v2.83c0 .24.03.42.1.54zm-2.05-.03c.26-.15.46-.35.61-.6v-1.4h-.74c-.6 0-1.05.1-1.33.3-.28.2-.42.5-.42.88 0 .34.09.6.27.77.18.17.44.26.8.26.28 0 .55-.07.8-.21zm7.08-.69c0 .54.32.8.96.8.32 0 .66-.07 1.01-.21l.34.94c-.44.24-.99.36-1.64.36a2 2 0 0 1-1.48-.54 1.99 1.99 0 0 1-.53-1.47V5.1H62.6v-.98h3.25v7.15zm7.58-7.47c.16.17.25.37.25.6a.8.8 0 0 1-.25.6.86.86 0 0 1-.63.25.86.86 0 0 1-.64-.24.81.81 0 0 1-.24-.6c0-.25.09-.45.25-.61a.86.86 0 0 1 .63-.24c.26 0 .47.08.63.24zm.3 8.22h1.72V13H70.5v-.98h1.88V7.65h-1.82v-.99h3.16v5.36zm8.8-7.9V13h-1.19l-.1-.78a2.12 2.12 0 0 1-1.77.94c-.79 0-1.39-.3-1.79-.9-.4-.58-.6-1.4-.6-2.43 0-.65.1-1.22.31-1.73.2-.5.5-.9.87-1.18.38-.28.82-.42 1.33-.42.65 0 1.18.23 1.6.7V3.95l1.34.16zM78.88 8.1c-.25.38-.37.96-.37 1.73 0 1.54.44 2.3 1.32 2.3.53 0 .98-.3 1.36-.9v-3c-.33-.47-.75-.7-1.25-.7-.46 0-.82.19-1.06.57z"/></g></g></svg>