<svg xmlns="http://www.w3.org/2000/svg" xmlns:xlink="http://www.w3.org/1999/xlink" viewBox="0 0 360 100"><defs><rect id="a" width="178" height="32" rx="2"/></defs><g fill="none" fill-rule="evenodd"><g transform="translate(143 20)"><g transform="translate(0 16)"><use fill="#FFFFFF" xlink:href="#a"/><rect width="179" height="33" x="-.5" y="-.5" stroke="#0A84FF" rx="2"/><rect width="182" height="36" x="-2" y="-2" stroke="#0A84FF" stroke-opacity=".3" stroke-width="4" opacity=".52" rx="2"/><path fill="#0C0C0D" fill-opacity=".4" d="M10.35 11.43h6.41v1.19h-5.1v3.63h4.69v1.17h-4.68V22h-1.32V11.43zm8.46.81a.85.85 0 0 1-.26-.62c0-.24.09-.45.26-.62a.85.85 0 0 1 .62-.26c.24 0 .45.09.62.26.17.17.26.38.26.62s-.09.45-.26.62a.84.84 0 0 1-.62.26.85.85 0 0 1-.62-.26zm1.25 1.86V22H18.8v-7.9h1.26zm3.6 0v1.18h.12c.08-.26.22-.48.44-.68.2-.2.47-.35.77-.47.3-.1.63-.16.98-.16.24 0 .45 0 .63.03v1.26a4.97 4.97 0 0 0-.8-.07c-.4 0-.76.08-1.07.24a1.84 1.84 0 0 0-1 1.68V22h-1.27v-7.9h1.2zm9.62 7.46c-.58.39-1.3.58-2.16.58a3.24 3.24 0 0 1-3.13-1.92 5.05 5.05 0 0 1-.43-2.16c0-.82.14-1.54.44-2.16a3.3 3.3 0 0 1 3.12-1.93 3.1 3.1 0 0 1 3.01 1.86 5 5 0 0 1 .42 2.1v.49h-5.68v.06c.02.51.13.97.32 1.35.2.38.46.68.79.88.33.21.72.32 1.17.32.5 0 .93-.1 1.27-.28.34-.18.6-.44.76-.8h1.26a2.74 2.74 0 0 1-1.16 1.61zM30 15.36c-.33.2-.59.47-.78.82-.2.35-.31.76-.34 1.22h4.35c0-.46-.1-.87-.28-1.22a2 2 0 0 0-1.84-1.1c-.41 0-.78.1-1.1.29zm5.75-.2V14.1h1.31v-.76c0-.8.2-1.38.6-1.74.4-.37.99-.56 1.77-.56.22 0 .48.03.77.08v1.05c-.2-.04-.43-.07-.7-.07-.79 0-1.18.43-1.18 1.27v.73h1.81v1.06h-1.8V22h-1.27v-6.84h-1.3zm7.19 6.48c-.55-.32-.97-.8-1.26-1.4a5 5 0 0 1-.44-2.19c0-.84.14-1.57.44-2.18a3.2 3.2 0 0 1 1.26-1.41c.54-.33 1.19-.5 1.94-.5.74 0 1.4.17 1.94.5.54.32.96.8 1.26 1.41.29.61.44 1.34.44 2.18a5 5 0 0 1-.44 2.18c-.3.61-.72 1.09-1.27 1.41-.55.33-1.2.5-1.93.5a3.7 3.7 0 0 1-1.94-.5zm3.67-1.4c.4-.52.6-1.25.6-2.19s-.2-1.66-.6-2.18c-.41-.51-.99-.77-1.73-.77-.75 0-1.33.26-1.73.77-.4.52-.61 1.24-.61 2.18 0 .94.2 1.67.6 2.18.41.52.99.77 1.74.77.74 0 1.32-.25 1.73-.77zM50.92 22H49.5l2.7-3.95-2.73-3.95h1.5l1.87 2.94h.12l1.85-2.94h1.43L53.56 18l2.72 4h-1.5l-1.86-2.98h-.12L50.92 22zm16.04-9.83a5.1 5.1 0 0 1 2.82 4.71c0 .8-.1 1.48-.33 2.07a3 3 0 0 1-.96 1.36 2.33 2.33 0 0 1-2.24.32c-.23-.1-.42-.25-.57-.44-.14-.2-.23-.4-.26-.64h-.12c-.15.37-.4.66-.7.86-.33.2-.7.3-1.13.3a2.34 2.34 0 0 1-2.23-1.47 3.93 3.93 0 0 1-.32-1.63c0-.59.1-1.11.32-1.57.22-.46.52-.82.9-1.07.4-.26.84-.39 1.33-.39.39 0 .73.1 1.04.28.3.18.53.44.67.75h.12v-.89h1.1v4.3c0 .26.08.46.22.6.15.14.35.21.61.21.3 0 .57-.12.8-.36.23-.25.41-.6.53-1.04.13-.45.2-.97.2-1.56a4.2 4.2 0 0 0-2.37-3.9 5.67 5.67 0 0 0-5.11.11 4.68 4.68 0 0 0-1.75 1.87c-.43.8-.64 1.7-.64 2.7 0 1.03.21 1.93.64 2.7a4.4 4.4 0 0 0 1.8 1.8c.78.42 1.68.63 2.72.63.5 0 .98-.03 1.43-.1.45-.06.8-.14 1.02-.25v.92c-.33.12-.7.2-1.14.27-.42.06-.87.1-1.33.1a6.83 6.83 0 0 1-3.27-.75 5.18 5.18 0 0 1-2.15-2.13c-.5-.93-.75-2-.75-3.24 0-1.2.25-2.26.76-3.18a5.4 5.4 0 0 1 2.14-2.16 6.35 6.35 0 0 1 3.15-.77 6.6 6.6 0 0 1 3.05.68zm-4.45 3.96c-.28.36-.42.87-.42 1.5 0 .64.14 1.14.42 1.5.27.37.65.56 1.13.56a1.52 1.52 0 0 0 1.45-.97c.13-.3.2-.67.2-1.09 0-.41-.07-.77-.2-1.08a1.5 1.5 0 0 0-1.43-.96c-.5 0-.88.18-1.15.54zm10.46-2.03v1.25h.12c.18-.44.46-.78.84-1.02.38-.24.83-.36 1.36-.36.52 0 .96.12 1.34.37.37.25.65.58.84 1.01h.12c.22-.43.54-.76.97-1.01.43-.25.91-.37 1.45-.37.8 0 1.42.22 1.86.67.43.44.65 1.08.65 1.9V22h-1.26v-5.16c0-.58-.14-1.02-.41-1.3-.28-.3-.7-.44-1.25-.44-.36 0-.68.08-.95.25-.28.16-.5.38-.65.66-.16.28-.23.58-.23.91V22H76.5v-5.36c0-.47-.15-.84-.45-1.12a1.7 1.7 0 0 0-1.2-.42c-.34 0-.65.09-.93.27-.28.18-.5.42-.66.73-.16.3-.24.64-.24 1V22h-1.26v-7.9h1.2zm13.16 7.54c-.55-.32-.97-.8-1.27-1.4a5 5 0 0 1-.44-2.19c0-.84.15-1.57.44-2.18a3.2 3.2 0 0 1 1.26-1.41c.55-.33 1.2-.5 1.94-.5.75 0 1.4.17 1.95.5.54.32.96.8 1.26 1.41.29.61.44 1.34.44 2.18a5 5 0 0 1-.44 2.18c-.3.61-.72 1.09-1.27 1.41-.55.33-1.2.5-1.94.5a3.7 3.7 0 0 1-1.93-.5zm3.66-1.4c.4-.52.61-1.25.61-2.19s-.2-1.66-.6-2.18c-.41-.51-.99-.77-1.74-.77-.74 0-1.32.26-1.72.77-.4.52-.61 1.24-.61 2.18 0 .94.2 1.67.6 2.18.41.52.99.77 1.73.77.75 0 1.33-.25 1.73-.77zm8.05-4.96v-.12h-4.55V14.1h6.05v.95l-4.54 5.78v.12h4.56V22h-6.08v-.92l4.56-5.8zm3.75-3.04a.85.85 0 0 1-.26-.62c0-.24.09-.45.26-.62a.85.85 0 0 1 .62-.26c.24 0 .45.09.62.26.17.17.26.38.26.62s-.09.45-.26.62a.84.84 0 0 1-.62.26.85.85 0 0 1-.62-.26zm1.25 1.86V22h-1.26v-7.9h1.26zm3.73-3.13V22h-1.26V10.97h1.26zm3.78 0V22h-1.26V10.97h1.26zm3.28 10.88c-.4-.2-.73-.47-.96-.82a2.23 2.23 0 0 1-.34-1.24 2 2 0 0 1 .75-1.66c.5-.4 1.2-.62 2.13-.68l2.28-.14v-.72c0-.48-.16-.86-.46-1.12-.3-.25-.74-.38-1.33-.38-.47 0-.87.08-1.18.25-.31.17-.51.41-.6.73h-1.27c.05-.42.21-.8.5-1.1.27-.33.64-.57 1.08-.74.45-.18.96-.26 1.51-.26.64 0 1.18.1 1.63.31.45.21.79.51 1.02.9.24.4.36.87.36 1.41V22h-1.2v-1.16h-.12c-.26.42-.6.74-1.01.96-.42.23-.9.34-1.42.34-.51 0-.97-.1-1.37-.29zm2.75-1.08c.35-.17.62-.4.81-.7.2-.3.3-.64.3-1.01v-.73l-2.13.14c-.6.04-1.03.16-1.3.37-.29.21-.43.52-.43.92s.15.7.45.93c.3.23.68.34 1.15.34.43 0 .81-.08 1.15-.26zm5.26 1.18a.95.95 0 1 1 .95-1.65.95.95 0 0 1-.95 1.65zm8.16-6.45c-.35-.27-.8-.4-1.34-.4a2.12 2.12 0 0 0-2.03 1.38 3.9 3.9 0 0 0-.29 1.54c0 .6.1 1.13.29 1.58.19.45.46.8.8 1.04.36.24.76.36 1.23.36.53 0 .97-.12 1.33-.35.35-.24.59-.59.7-1.03h1.28a2.85 2.85 0 0 1-1.67 2.2 3.9 3.9 0 0 1-1.63.32 3.31 3.31 0 0 1-3.18-1.94 5 5 0 0 1-.45-2.18c0-.81.15-1.53.44-2.14a3.3 3.3 0 0 1 1.27-1.41c.54-.34 1.18-.5 1.9-.5.63 0 1.17.1 1.65.34a2.9 2.9 0 0 1 1.67 2.22h-1.28c-.1-.42-.33-.76-.69-1.03zm5.14 6.14c-.55-.32-.97-.8-1.27-1.4a5 5 0 0 1-.44-2.19c0-.84.15-1.57.44-2.18a3.2 3.2 0 0 1 1.26-1.41c.55-.33 1.2-.5 1.94-.5.75 0 1.4.17 1.94.5.55.32.97.8 1.26 1.41.3.61.44 1.34.44 2.18a5 5 0 0 1-.44 2.18c-.29.61-.71 1.09-1.26 1.41-.55.33-1.2.5-1.94.5a3.7 3.7 0 0 1-1.93-.5zm3.66-1.4c.4-.52.61-1.25.61-2.19s-.2-1.66-.6-2.18c-.41-.51-.99-.77-1.74-.77-.74 0-1.32.26-1.72.77-.41.52-.61 1.24-.61 2.18 0 .94.2 1.67.6 2.18.41.52.99.77 1.73.77.75 0 1.33-.25 1.73-.77zm5.1-6.14v1.25h.11c.18-.44.46-.78.84-1.02.38-.24.84-.36 1.36-.36.52 0 .97.12 1.34.37.37.25.66.58.85 1.01h.11c.22-.43.54-.76.97-1.01.43-.25.91-.37 1.45-.37.8 0 1.43.22 1.86.67.44.44.65 1.08.65 1.9V22h-1.26v-5.16c0-.58-.13-1.02-.41-1.3-.28-.3-.7-.44-1.25-.44-.36 0-.67.08-.95.25-.28.16-.5.38-.65.66-.15.28-.23.58-.23.91V22h-1.26v-5.36c0-.47-.15-.84-.45-1.12a1.7 1.7 0 0 0-1.2-.42c-.33 0-.64.09-.92.27-.29.18-.5.42-.67.73-.16.3-.24.64-.24 1V22h-1.26v-7.9h1.2z"/><text fill="#000000" font-family="SegoeUI, Segoe UI" font-size="15"><tspan x="8" y="19">|</tspan></text></g><path fill="#0C0C0D" d="M1.17 10V.84h5.67v1.03H2.31V4.8h4.3v1.01H2.3v3.15h4.53V10H1.17zM9.8 3.16v1.08h.1c.16-.38.4-.68.74-.89.33-.2.72-.31 1.18-.31.44 0 .83.1 1.15.32.33.22.57.5.74.88h.1c.19-.37.46-.66.84-.88.37-.22.79-.32 1.25-.32.7 0 1.24.19 1.62.58.37.38.56.94.56 1.65V10H17V5.52c0-.5-.11-.88-.35-1.12-.24-.25-.6-.38-1.08-.38-.31 0-.59.07-.83.21a1.5 1.5 0 0 0-.56.58c-.13.24-.2.5-.2.8V10h-1.1V5.35c0-.4-.12-.73-.38-.97s-.6-.36-1.04-.36c-.3 0-.56.08-.8.23-.25.16-.44.37-.58.63-.14.27-.2.56-.2.88V10h-1.1V3.16h1.04zm11 6.71c-.36-.17-.64-.4-.83-.71-.2-.3-.3-.67-.3-1.08 0-.6.21-1.08.65-1.43a3.2 3.2 0 0 1 1.84-.6l1.98-.11v-.62c0-.43-.13-.75-.4-.98-.26-.22-.64-.33-1.15-.33-.41 0-.75.07-1.02.22-.28.15-.45.36-.52.63h-1.1c.04-.37.18-.69.42-.96.24-.28.56-.49.95-.64a3.6 3.6 0 0 1 1.3-.22c.56 0 1.03.09 1.41.27.4.18.69.44.9.78.2.34.3.75.3 1.23V10H24.2V9h-.1c-.22.35-.52.63-.88.83-.36.2-.77.3-1.23.3-.44 0-.84-.1-1.19-.26zm2.38-.93c.3-.15.53-.36.7-.62.17-.26.26-.55.26-.87v-.63l-1.84.12c-.52.03-.9.14-1.14.32a.93.93 0 0 0-.36.8c0 .34.13.61.38.8.26.2.6.3 1 .3.37 0 .7-.07 1-.22zm4.1-7.4a.73.73 0 0 1-.22-.53c0-.22.07-.4.22-.54a.74.74 0 0 1 .54-.23c.21 0 .39.08.54.23.15.14.22.32.22.54 0 .2-.07.38-.22.53a.73.73 0 0 1-.54.23.73.73 0 0 1-.54-.23zm1.08 1.62V10h-1.09V3.16h1.1zM31.61.44V10h-1.09V.44h1.1zm6.5 9.43c-.34-.17-.62-.4-.82-.71-.2-.3-.3-.67-.3-1.08 0-.6.22-1.08.65-1.43a3.2 3.2 0 0 1 1.85-.6l1.97-.11v-.62c0-.43-.13-.75-.4-.98-.25-.22-.64-.33-1.15-.33-.4 0-.75.07-1.02.22s-.44.36-.52.63h-1.1c.04-.37.19-.69.43-.96.24-.28.56-.49.94-.64a3.6 3.6 0 0 1 1.31-.22c.55 0 1.02.09 1.41.27.4.18.69.44.89.78.2.34.3.75.3 1.23V10h-1.04V9h-.1c-.22.35-.51.63-.87.83-.37.2-.78.3-1.24.3-.44 0-.83-.1-1.18-.26zm2.4-.93c.3-.15.53-.36.7-.62.17-.26.25-.55.25-.87v-.63l-1.84.12c-.51.03-.9.14-1.13.32a.93.93 0 0 0-.37.8c0 .34.13.61.4.8.25.2.58.3.99.3.37 0 .7-.07 1-.22zm5.08.75a2.8 2.8 0 0 1-1-1.24 4.62 4.62 0 0 1-.36-1.87c0-.7.12-1.33.36-1.86.23-.54.57-.95 1-1.25.44-.29.94-.43 1.52-.43.47 0 .9.1 1.28.32.38.21.67.5.86.88h.1V.44h1.09V10H49.4V8.9h-.1a2.3 2.3 0 0 1-.9.9c-.4.21-.82.32-1.3.32-.57 0-1.08-.14-1.51-.43zm.7-5.36c-.3.2-.53.5-.69.88-.16.38-.24.84-.24 1.37 0 .53.08.98.24 1.37.16.38.39.68.69.88.3.2.66.3 1.07.3.41 0 .77-.1 1.07-.3.3-.21.53-.5.7-.89.16-.38.24-.84.24-1.36 0-.52-.08-.97-.24-1.36-.17-.38-.4-.68-.7-.89-.3-.2-.66-.3-1.07-.3-.41 0-.77.1-1.07.3zm7.28 5.36a2.8 2.8 0 0 1-1-1.24 4.62 4.62 0 0 1-.35-1.87c0-.7.11-1.33.35-1.86.24-.54.57-.95 1-1.25.44-.29.95-.43 1.52-.43.48 0 .9.1 1.29.32.38.21.66.5.86.88h.1V.44h1.08V10h-1.04V8.9h-.1a2.3 2.3 0 0 1-.9.9c-.39.21-.81.32-1.29.32-.58 0-1.09-.14-1.52-.43zm.7-5.36c-.3.2-.52.5-.68.88-.16.38-.24.84-.24 1.37 0 .53.08.98.23 1.37.16.38.4.68.7.88.3.2.65.3 1.07.3.4 0 .76-.1 1.06-.3.3-.21.54-.5.7-.89.17-.38.25-.84.25-1.36 0-.52-.08-.97-.25-1.36-.16-.38-.4-.68-.7-.89-.3-.2-.65-.3-1.06-.3-.42 0-.77.1-1.07.3zm7.31-1.17v1.01h.1c.07-.22.2-.41.38-.58.19-.18.41-.31.68-.4.26-.1.54-.15.84-.15.21 0 .4 0 .55.03v1.09a4.3 4.3 0 0 0-.7-.06c-.34 0-.65.07-.92.2a1.6 1.6 0 0 0-.87 1.46V10h-1.1V3.16h1.04zm8.53 6.46c-.5.33-1.13.5-1.87.5a2.8 2.8 0 0 1-2.71-1.66 4.38 4.38 0 0 1-.38-1.88c0-.7.13-1.33.38-1.86a2.86 2.86 0 0 1 2.7-1.68c.62 0 1.14.14 1.6.41.44.28.78.68 1.02 1.2.24.51.36 1.12.36 1.83v.42h-4.92v.05c.02.45.1.84.27 1.17.17.33.4.59.69.77.29.18.63.27 1.01.27.44 0 .81-.08 1.1-.24.3-.16.52-.39.67-.7h1.09c-.17.6-.5 1.06-1 1.4zm-2.85-5.37c-.28.17-.51.4-.68.7-.17.3-.27.66-.3 1.06h3.78c0-.4-.1-.75-.25-1.05A1.73 1.73 0 0 0 68.22 4c-.36 0-.68.09-.96.25zm5.84-.24c.22-.3.52-.54.91-.71.4-.18.83-.26 1.3-.26.48 0 .9.07 1.27.22.38.15.68.36.9.64.23.27.37.6.41.97h-1.08a1.1 1.1 0 0 0-.5-.66c-.26-.17-.6-.25-1-.25a2 2 0 0 0-.74.13c-.22.09-.4.21-.52.37a.81.81 0 0 0-.19.53c0 .23.1.42.29.58.2.15.5.28.9.37l1.05.26c.65.15 1.14.38 1.45.68.3.3.46.68.46 1.17 0 .4-.12.76-.36 1.07-.24.32-.56.56-.98.74-.42.17-.88.26-1.4.26-.5 0-.95-.08-1.34-.23-.4-.15-.7-.37-.94-.65a1.78 1.78 0 0 1-.41-.99h1.12c.1.3.28.53.55.7a2 2 0 0 0 1.06.25c.3 0 .58-.05.81-.14.24-.09.43-.21.57-.37.13-.16.2-.35.2-.56 0-.46-.36-.78-1.09-.96l-1.17-.29a3 3 0 0 1-1.42-.67c-.3-.3-.45-.69-.45-1.18 0-.37.11-.71.34-1.02zm6.8 0c.22-.3.53-.54.92-.71.39-.18.82-.26 1.3-.26.47 0 .9.07 1.27.22s.67.36.9.64c.22.27.36.6.4.97h-1.07a1.1 1.1 0 0 0-.5-.66c-.27-.17-.6-.25-1-.25a2 2 0 0 0-.74.13c-.22.09-.4.21-.52.37a.81.81 0 0 0-.2.53c0 .23.1.42.3.58.19.15.49.28.9.37l1.05.26c.65.15 1.13.38 1.44.68.31.3.47.68.47 1.17 0 .4-.12.76-.36 1.07-.24.32-.57.56-.99.74-.41.17-.88.26-1.4.26-.5 0-.95-.08-1.34-.23-.39-.15-.7-.37-.94-.65a1.78 1.78 0 0 1-.4-.99h1.12c.09.3.27.53.55.7a2 2 0 0 0 1.05.25c.3 0 .58-.05.82-.14.24-.09.43-.21.56-.37.14-.16.2-.35.2-.56 0-.46-.36-.78-1.08-.96l-1.18-.29a3 3 0 0 1-1.41-.67c-.3-.3-.45-.69-.45-1.18 0-.37.1-.71.33-1.02z"/></g><g transform="translate(43 42)"><rect width="86" height="22" fill="#0A84FF" rx="2"/><polygon fill="#0A84FF" points="82 11 86 7 90 11 86 15"/><path fill="#FFFFFF" d="M9.75 11.13c-.57.44-1.36.66-2.36.66H6.38v2.95H5V6.46h2.3c1.06 0 1.88.22 2.45.66.58.43.87 1.08.87 1.95 0 .93-.3 1.61-.87 2.06zM7.4 7.5H6.38v3.23H7.4c.56 0 1-.13 1.3-.39.31-.25.46-.68.46-1.28 0-1.04-.59-1.56-1.77-1.56zm10.17.9l-.22 2.34h-.96v-1.3c-.44.01-.83.19-1.15.53-.32.34-.58.83-.77 1.45v2.35h1.27v.96h-3.55v-.96h.93V9.37h-.93V8.4h1.95l.24 1.46c.25-.54.55-.95.9-1.22.36-.26.8-.4 1.33-.4.33 0 .65.05.96.16zm3.4 4.98c.32.31.72.47 1.2.47.3 0 .58-.05.85-.14.26-.1.54-.23.82-.42l.57.82c-.3.25-.64.44-1.04.58-.4.13-.82.2-1.26.2-.97 0-1.72-.3-2.26-.9a3.5 3.5 0 0 1-.8-2.42c0-.64.12-1.2.35-1.71.23-.51.57-.91 1-1.2.45-.29.96-.43 1.54-.43.84 0 1.5.28 2 .85.5.56.74 1.33.74 2.32 0 .24-.01.44-.04.6h-4.2c.04.61.22 1.08.54 1.38zM20.9 9.7a2.3 2.3 0 0 0-.47 1.4h2.94a2.38 2.38 0 0 0-.38-1.38 1.21 1.21 0 0 0-1.04-.48c-.43 0-.78.15-1.05.46zm8.93 3.95a.7.7 0 0 0 .37-.62.84.84 0 0 0-.11-.45.98.98 0 0 0-.43-.33c-.22-.1-.54-.2-.97-.31a4.2 4.2 0 0 1-1.57-.68 1.43 1.43 0 0 1-.52-1.2c0-.55.23-.99.68-1.32.46-.33 1.07-.5 1.85-.5a4 4 0 0 1 2.41.73l-.57.85a3.2 3.2 0 0 0-1.8-.56c-.8 0-1.2.23-1.2.7 0 .16.04.29.13.4.1.1.25.2.48.29.22.09.55.2 1 .31.68.2 1.2.43 1.54.71.34.28.5.7.5 1.26 0 .65-.26 1.14-.8 1.47-.53.33-1.2.5-1.99.5-1.05 0-1.92-.3-2.6-.89l.7-.81c.27.2.56.37.89.5.32.12.66.18 1.01.18.42 0 .76-.08 1-.23zm7.2 0a.7.7 0 0 0 .37-.62.84.84 0 0 0-.11-.45.98.98 0 0 0-.43-.33c-.22-.1-.54-.2-.97-.31a4.2 4.2 0 0 1-1.57-.68 1.43 1.43 0 0 1-.52-1.2c0-.55.23-.99.68-1.32.46-.33 1.07-.5 1.85-.5a4 4 0 0 1 2.41.73l-.57.85a3.2 3.2 0 0 0-1.8-.56c-.8 0-1.2.23-1.2.7 0 .16.04.29.13.4.1.1.25.2.48.29.22.09.55.2 1 .31.68.2 1.2.43 1.54.71.34.28.5.7.5 1.26 0 .65-.26 1.14-.8 1.47-.53.33-1.2.5-1.99.5-1.05 0-1.92-.3-2.6-.89l.7-.81c.27.2.56.37.89.5.32.12.66.18 1.01.18.42 0 .76-.08 1-.23zm3.36 1.89L45.46 5l1.06.5-5.08 10.52-1.06-.48zm9.58-5.38h3.12v1.06h-3.12v3.52h-1.39V6.46h5.09l-.14 1.06h-3.56v2.64zm10.01-1.03c.5.6.75 1.41.75 2.43 0 1.03-.26 1.84-.76 2.44-.5.6-1.2.9-2.11.9-.91 0-1.62-.3-2.12-.88-.5-.59-.75-1.4-.75-2.44 0-1.01.25-1.82.76-2.43a2.6 2.6 0 0 1 2.12-.91c.91 0 1.62.3 2.11.9zm-3.2.72c-.25.37-.37.95-.37 1.73s.12 1.36.36 1.73c.24.37.6.56 1.09.56.49 0 .85-.19 1.09-.57.24-.37.36-.95.36-1.74 0-.77-.12-1.35-.36-1.72a1.2 1.2 0 0 0-1.08-.56c-.49 0-.85.2-1.1.57zm10.37 3.4l.6.87a3.58 3.58 0 0 1-2.22.78c-.96 0-1.72-.3-2.26-.9-.54-.59-.82-1.39-.82-2.39 0-.65.13-1.22.38-1.73a2.86 2.86 0 0 1 2.73-1.64c.84 0 1.57.26 2.2.77l-.63.84a2.71 2.71 0 0 0-1.54-.53c-.53 0-.95.19-1.25.57-.3.38-.46.95-.46 1.72 0 .75.15 1.3.46 1.66.3.35.72.53 1.25.53.5 0 1.02-.18 1.56-.54zm3.92-.41c0 .36.07.63.22.8.15.16.38.24.68.24.29 0 .57-.08.83-.25a2 2 0 0 0 .65-.64V8.41h1.34v6.33h-1.16l-.09-.81a2.2 2.2 0 0 1-.87.72c-.36.17-.74.25-1.12.25-.6 0-1.06-.16-1.37-.5-.3-.32-.45-.79-.45-1.4V8.4h1.34v4.44zm9.16.81a.7.7 0 0 0 .37-.62.84.84 0 0 0-.11-.45.98.98 0 0 0-.43-.33c-.22-.1-.54-.2-.97-.31a4.2 4.2 0 0 1-1.57-.68 1.43 1.43 0 0 1-.52-1.2c0-.55.23-.99.68-1.32.46-.33 1.07-.5 1.85-.5a4 4 0 0 1 2.41.73l-.57.85a3.2 3.2 0 0 0-1.8-.56c-.8 0-1.2.23-1.2.7 0 .16.04.29.13.4.1.1.25.2.48.29.22.09.55.2 1 .31.68.2 1.2.43 1.54.71.34.28.5.7.5 1.26 0 .65-.26 1.14-.8 1.47-.53.33-1.2.5-1.99.5-1.05 0-1.92-.3-2.6-.89l.7-.81c.27.2.56.37.89.5.32.12.66.18 1.01.18.42 0 .76-.08 1-.23z"/></g></g></svg>