<svg xmlns="http://www.w3.org/2000/svg" xmlns:xlink="http://www.w3.org/1999/xlink" viewBox="0 0 360 100"><defs><rect id="a" width="178" height="32" rx="2"/></defs><g fill="none" fill-rule="evenodd" transform="translate(91 25)"><g transform="translate(0 16)"><use fill="#FFFFFF" xlink:href="#a"/><rect width="179" height="33" x="-.5" y="-.5" stroke="#0A84FF" rx="2"/><rect width="182" height="36" x="-2" y="-2" stroke="#0A84FF" stroke-opacity=".3" stroke-width="4" opacity=".52" rx="2"/><path fill="#0C0C0D" d="M10.35 11.43h1.53l3.62 8.75h.11l3.62-8.75h1.53V22h-1.23v-8.07h-.09l-3.33 8H15l-3.33-8h-.1V22h-1.22V11.43zM24.6 21.64c-.55-.32-.97-.8-1.26-1.4a5 5 0 0 1-.44-2.19c0-.84.15-1.57.44-2.18a3.2 3.2 0 0 1 1.26-1.41c.55-.33 1.2-.5 1.94-.5.75 0 1.4.17 1.94.5.55.32.97.8 1.26 1.41.3.61.44 1.34.44 2.18a5 5 0 0 1-.44 2.18c-.3.61-.71 1.09-1.26 1.41-.55.33-1.2.5-1.94.5a3.7 3.7 0 0 1-1.94-.5zm3.67-1.4c.4-.52.6-1.25.6-2.19s-.2-1.66-.6-2.18c-.4-.51-.98-.77-1.73-.77s-1.32.26-1.73.77c-.4.52-.6 1.24-.6 2.18 0 .94.2 1.67.6 2.18.4.52.98.77 1.73.77s1.32-.25 1.73-.77zm8.04-4.96v-.12h-4.55V14.1h6.05v.95l-4.53 5.78v.12h4.56V22h-6.08v-.92l4.55-5.8zm3.76-3.04a.85.85 0 0 1-.26-.62c0-.24.08-.45.26-.62a.85.85 0 0 1 .61-.26c.25 0 .46.09.63.26.17.17.25.38.25.62s-.08.45-.25.62a.84.84 0 0 1-.63.26.85.85 0 0 1-.61-.26zm1.24 1.86V22h-1.26v-7.9h1.26zm3.74-3.13V22h-1.26V10.97h1.26zm3.78 0V22h-1.26V10.97h1.26zm3.27 10.88c-.4-.2-.72-.47-.95-.82a2.23 2.23 0 0 1-.34-1.24 2 2 0 0 1 .74-1.66c.5-.4 1.21-.62 2.14-.68l2.27-.14v-.72c0-.48-.15-.86-.45-1.12-.3-.25-.75-.38-1.33-.38-.48 0-.87.08-1.18.25-.32.17-.52.41-.6.73h-1.28c.06-.42.22-.8.5-1.1.28-.33.64-.57 1.1-.74.44-.18.94-.26 1.5-.26.63 0 1.18.1 1.63.31.44.21.79.51 1.02.9.24.4.35.87.35 1.41V22h-1.2v-1.16h-.12c-.25.42-.59.74-1 .96-.43.23-.9.34-1.43.34-.5 0-.96-.1-1.37-.29zm2.76-1.08c.34-.17.61-.4.81-.7.2-.3.3-.64.3-1.01v-.73l-2.13.14c-.6.04-1.03.16-1.31.37s-.42.52-.42.92.15.7.45.93c.3.23.68.34 1.15.34.42 0 .8-.08 1.15-.26zm4.85-9.34h6.42v1.19h-5.1v3.63h4.68v1.17h-4.68V22h-1.32V11.43zm8.47.81a.85.85 0 0 1-.26-.62c0-.24.08-.45.26-.62a.85.85 0 0 1 .61-.26c.25 0 .46.09.63.26.17.17.25.38.25.62s-.08.45-.25.62a.84.84 0 0 1-.63.26.85.85 0 0 1-.61-.26zm1.24 1.86V22h-1.25v-7.9h1.25zm3.6 0v1.18h.13c.07-.26.22-.48.43-.68.21-.2.47-.35.78-.47.3-.1.63-.16.98-.16.23 0 .44 0 .63.03v1.26a4.97 4.97 0 0 0-.8-.07c-.4 0-.76.08-1.08.24a1.84 1.84 0 0 0-1 1.68V22h-1.26v-7.9h1.2z"/><text fill="#000000" font-family="SegoeUI, Segoe UI" font-size="15"><tspan x="75" y="20">|</tspan></text></g><path fill="#0C0C0D" d="M1.17 10V.84h5.67v1.03H2.31V4.8h4.3v1.01H2.3v3.15h4.53V10H1.17zM9.8 3.16v1.08h.1c.16-.38.4-.68.74-.89.33-.2.72-.31 1.18-.31.44 0 .83.1 1.15.32.33.22.57.5.74.88h.1c.19-.37.46-.66.84-.88.37-.22.79-.32 1.25-.32.7 0 1.24.19 1.62.58.37.38.56.94.56 1.65V10H17V5.52c0-.5-.11-.88-.35-1.12-.24-.25-.6-.38-1.08-.38-.31 0-.59.07-.83.21a1.5 1.5 0 0 0-.56.58c-.13.24-.2.5-.2.8V10h-1.1V5.35c0-.4-.12-.73-.38-.97s-.6-.36-1.04-.36c-.3 0-.56.08-.8.23-.25.16-.44.37-.58.63-.14.27-.2.56-.2.88V10h-1.1V3.16h1.04zm11 6.71c-.36-.17-.64-.4-.83-.71-.2-.3-.3-.67-.3-1.08 0-.6.21-1.08.65-1.43a3.2 3.2 0 0 1 1.84-.6l1.98-.11v-.62c0-.43-.13-.75-.4-.98-.26-.22-.64-.33-1.15-.33-.41 0-.75.07-1.02.22-.28.15-.45.36-.52.63h-1.1c.04-.37.18-.69.42-.96.24-.28.56-.49.95-.64a3.6 3.6 0 0 1 1.3-.22c.56 0 1.03.09 1.41.27.4.18.69.44.9.78.2.34.3.75.3 1.23V10H24.2V9h-.1c-.22.35-.52.63-.88.83-.36.2-.77.3-1.23.3-.44 0-.84-.1-1.19-.26zm2.38-.93c.3-.15.53-.36.7-.62.17-.26.26-.55.26-.87v-.63l-1.84.12c-.52.03-.9.14-1.14.32a.93.93 0 0 0-.36.8c0 .34.13.61.38.8.26.2.6.3 1 .3.37 0 .7-.07 1-.22zm4.1-7.4a.73.73 0 0 1-.22-.53c0-.22.07-.4.22-.54a.74.74 0 0 1 .54-.23c.21 0 .39.08.54.23.15.14.22.32.22.54 0 .2-.07.38-.22.53a.73.73 0 0 1-.54.23.73.73 0 0 1-.54-.23zm1.08 1.62V10h-1.09V3.16h1.1zM31.61.44V10h-1.09V.44h1.1zm6.5 9.43c-.34-.17-.62-.4-.82-.71-.2-.3-.3-.67-.3-1.08 0-.6.22-1.08.65-1.43a3.2 3.2 0 0 1 1.85-.6l1.97-.11v-.62c0-.43-.13-.75-.4-.98-.25-.22-.64-.33-1.15-.33-.4 0-.75.07-1.02.22s-.44.36-.52.63h-1.1c.04-.37.19-.69.43-.96.24-.28.56-.49.94-.64a3.6 3.6 0 0 1 1.31-.22c.55 0 1.02.09 1.41.27.4.18.69.44.89.78.2.34.3.75.3 1.23V10h-1.04V9h-.1c-.22.35-.51.63-.87.83-.37.2-.78.3-1.24.3-.44 0-.83-.1-1.18-.26zm2.4-.93c.3-.15.53-.36.7-.62.17-.26.25-.55.25-.87v-.63l-1.84.12c-.51.03-.9.14-1.13.32a.93.93 0 0 0-.37.8c0 .34.13.61.4.8.25.2.58.3.99.3.37 0 .7-.07 1-.22zm5.08.75a2.8 2.8 0 0 1-1-1.24 4.62 4.62 0 0 1-.36-1.87c0-.7.12-1.33.36-1.86.23-.54.57-.95 1-1.25.44-.29.94-.43 1.52-.43.47 0 .9.1 1.28.32.38.21.67.5.86.88h.1V.44h1.09V10H49.4V8.9h-.1a2.3 2.3 0 0 1-.9.9c-.4.21-.82.32-1.3.32-.57 0-1.08-.14-1.51-.43zm.7-5.36c-.3.2-.53.5-.69.88-.16.38-.24.84-.24 1.37 0 .53.08.98.24 1.37.16.38.39.68.69.88.3.2.66.3 1.07.3.41 0 .77-.1 1.07-.3.3-.21.53-.5.7-.89.16-.38.24-.84.24-1.36 0-.52-.08-.97-.24-1.36-.17-.38-.4-.68-.7-.89-.3-.2-.66-.3-1.07-.3-.41 0-.77.1-1.07.3zm7.28 5.36a2.8 2.8 0 0 1-1-1.24 4.62 4.62 0 0 1-.35-1.87c0-.7.11-1.33.35-1.86.24-.54.57-.95 1-1.25.44-.29.95-.43 1.52-.43.48 0 .9.1 1.29.32.38.21.66.5.86.88h.1V.44h1.08V10h-1.04V8.9h-.1a2.3 2.3 0 0 1-.9.9c-.39.21-.81.32-1.29.32-.58 0-1.09-.14-1.52-.43zm.7-5.36c-.3.2-.52.5-.68.88-.16.38-.24.84-.24 1.37 0 .53.08.98.23 1.37.16.38.4.68.7.88.3.2.65.3 1.07.3.4 0 .76-.1 1.06-.3.3-.21.54-.5.7-.89.17-.38.25-.84.25-1.36 0-.52-.08-.97-.25-1.36-.16-.38-.4-.68-.7-.89-.3-.2-.65-.3-1.06-.3-.42 0-.77.1-1.07.3zm7.31-1.17v1.01h.1c.07-.22.2-.41.38-.58.19-.18.41-.31.68-.4.26-.1.54-.15.84-.15.21 0 .4 0 .55.03v1.09a4.3 4.3 0 0 0-.7-.06c-.34 0-.65.07-.92.2a1.6 1.6 0 0 0-.87 1.46V10h-1.1V3.16h1.04zm8.53 6.46c-.5.33-1.13.5-1.87.5a2.8 2.8 0 0 1-2.71-1.66 4.38 4.38 0 0 1-.38-1.88c0-.7.13-1.33.38-1.86a2.86 2.86 0 0 1 2.7-1.68c.62 0 1.14.14 1.6.41.44.28.78.68 1.02 1.2.24.51.36 1.12.36 1.83v.42h-4.92v.05c.02.45.1.84.27 1.17.17.33.4.59.69.77.29.18.63.27 1.01.27.44 0 .81-.08 1.1-.24.3-.16.52-.39.67-.7h1.09c-.17.6-.5 1.06-1 1.4zm-2.85-5.37c-.28.17-.51.4-.68.7-.17.3-.27.66-.3 1.06h3.78c0-.4-.1-.75-.25-1.05A1.73 1.73 0 0 0 68.22 4c-.36 0-.68.09-.96.25zm5.84-.24c.22-.3.52-.54.91-.71.4-.18.83-.26 1.3-.26.48 0 .9.07 1.27.22.38.15.68.36.9.64.23.27.37.6.41.97h-1.08a1.1 1.1 0 0 0-.5-.66c-.26-.17-.6-.25-1-.25a2 2 0 0 0-.74.13c-.22.09-.4.21-.52.37a.81.81 0 0 0-.19.53c0 .23.1.42.29.58.2.15.5.28.9.37l1.05.26c.65.15 1.14.38 1.45.68.3.3.46.68.46 1.17 0 .4-.12.76-.36 1.07-.24.32-.56.56-.98.74-.42.17-.88.26-1.4.26-.5 0-.95-.08-1.34-.23-.4-.15-.7-.37-.94-.65a1.78 1.78 0 0 1-.41-.99h1.12c.1.3.28.53.55.7a2 2 0 0 0 1.06.25c.3 0 .58-.05.81-.14.24-.09.43-.21.57-.37.13-.16.2-.35.2-.56 0-.46-.36-.78-1.09-.96l-1.17-.29a3 3 0 0 1-1.42-.67c-.3-.3-.45-.69-.45-1.18 0-.37.11-.71.34-1.02zm6.8 0c.22-.3.53-.54.92-.71.39-.18.82-.26 1.3-.26.47 0 .9.07 1.27.22s.67.36.9.64c.22.27.36.6.4.97h-1.07a1.1 1.1 0 0 0-.5-.66c-.27-.17-.6-.25-1-.25a2 2 0 0 0-.74.13c-.22.09-.4.21-.52.37a.81.81 0 0 0-.2.53c0 .23.1.42.3.58.19.15.49.28.9.37l1.05.26c.65.15 1.13.38 1.44.68.31.3.47.68.47 1.17 0 .4-.12.76-.36 1.07-.24.32-.57.56-.99.74-.41.17-.88.26-1.4.26-.5 0-.95-.08-1.34-.23-.39-.15-.7-.37-.94-.65a1.78 1.78 0 0 1-.4-.99h1.12c.09.3.27.53.55.7a2 2 0 0 0 1.05.25c.3 0 .58-.05.82-.14.24-.09.43-.21.56-.37.14-.16.2-.35.2-.56 0-.46-.36-.78-1.08-.96l-1.18-.29a3 3 0 0 1-1.41-.67c-.3-.3-.45-.69-.45-1.18 0-.37.1-.71.33-1.02z"/><g transform="translate(156 25)"><circle cx="6.5" cy="6.5" r="6.5" fill="#797676"/><g stroke="#FFFFFF" stroke-linecap="square" stroke-width="1.1" transform="translate(4 4)"><path d="M5 0L0 5m5 0L0 0"/></g></g></g></svg>