<svg xmlns="http://www.w3.org/2000/svg" viewBox="0 0 504 100"><g fill="none" fill-rule="evenodd"><g transform="translate(105 20)"><g transform="translate(0 13)"><path fill="#00BDDF" fill-rule="nonzero" d="M5 4a1 1 0 0 0-1 1v26a1 1 0 0 0 1 1h174a1 1 0 0 0 1-1V5a1 1 0 0 0-1-1H5zm0-1h174a2 2 0 0 1 2 2v26a2 2 0 0 1-2 2H5a2 2 0 0 1-2-2V5c0-1.1.9-2 2-2z"/><path fill="#B1EDF6" fill-rule="nonzero" d="M5 3a2 2 0 0 0-2 2v26c0 1.1.9 2 2 2h174a2 2 0 0 0 2-2V5a2 2 0 0 0-2-2H5zm0-1h174a3 3 0 0 1 3 3v26a3 3 0 0 1-3 3H5a3 3 0 0 1-3-3V5a3 3 0 0 1 3-3z"/><path fill="#DFF8FB" fill-rule="nonzero" d="M5 3a2 2 0 0 0-2 2v26c0 1.1.9 2 2 2h174a2 2 0 0 0 2-2V5a2 2 0 0 0-2-2H5zm0-3h174a5 5 0 0 1 5 5v26a5 5 0 0 1-5 5H5a5 5 0 0 1-5-5V5a5 5 0 0 1 5-5z"/><g transform="translate(12 10)"><path fill="#0C0C0D" fill-opacity=".4" d="M2.67 13V8.42h4.68V7.25H2.67V3.62h5.1V2.43H1.34V13h1.32zm7.13 0h1.26V5.1H9.8V13zm.63-9.5c.48 0 .88-.4.88-.88s-.4-.88-.88-.88-.88.4-.88.88.4.88.88.88zm3.03 9.5h1.26V8.1c0-1.1.87-1.91 2.07-1.91.25 0 .7.04.81.07V5a5.41 5.41 0 0 0-.63-.03c-1.05 0-1.96.54-2.19 1.3h-.12V5.1h-1.2V13zm8.64-6.92c-1.26 0-2.13.92-2.23 2.32h4.35c-.03-1.4-.86-2.32-2.12-2.32zm2.08 4.88h1.26c-.38 1.35-1.6 2.18-3.32 2.18-2.2 0-3.56-1.58-3.56-4.08 0-2.48 1.4-4.1 3.56-4.1 2.13 0 3.43 1.52 3.43 3.98v.48h-5.68v.06c.07 1.56.94 2.55 2.28 2.55 1.02 0 1.7-.38 2.03-1.07zM28.05 13h1.26V6.16h1.81V5.1h-1.8v-.73c0-.88.42-1.27 1.17-1.27.25 0 .54.03.7.07V2.12c-.3-.06-.52-.08-.77-.08-1.53 0-2.37.68-2.37 2.3v.76h-1.3v1.06h1.3V13zm7.82.14c-2.25 0-3.64-1.55-3.64-4.09s1.39-4.08 3.64-4.08S39.5 6.5 39.5 9.05s-1.4 4.09-3.64 4.09zm0-1.14c1.5 0 2.33-1.08 2.33-2.95s-.84-2.95-2.33-2.95c-1.5 0-2.34 1.08-2.34 2.95S34.37 12 35.87 12zm8.05-1.98L45.78 13h1.5l-2.72-4 2.68-3.9h-1.43l-1.85 2.94h-.12L41.97 5.1h-1.5l2.73 3.95L40.5 13h1.42l1.88-2.98h.12zm10.73-3.43c-.98 0-1.56.76-1.56 2.04s.59 2.06 1.55 2.06c1 0 1.65-.8 1.65-2.06 0-1.25-.64-2.04-1.64-2.04zm.26-4.1c3.46 0 5.87 2.21 5.87 5.39 0 2.39-1.07 3.9-2.75 3.9-.86 0-1.52-.5-1.61-1.23h-.12a1.88 1.88 0 0 1-1.83 1.17c-1.52 0-2.55-1.25-2.55-3.11 0-1.78 1.05-3.03 2.55-3.03.77 0 1.43.4 1.71 1.03h.12v-.89h1.1v4.3c0 .51.3.81.83.81.93 0 1.52-1.16 1.52-2.96 0-2.65-2-4.46-4.94-4.46-2.86 0-4.92 2.19-4.92 5.23 0 3.13 2.02 5.14 5.16 5.14 1 0 2-.14 2.45-.35v.92a7.9 7.9 0 0 1-2.47.36c-3.78 0-6.17-2.37-6.17-6.11 0-3.63 2.46-6.11 6.05-6.11zM62.77 13h1.26V8.1c0-1.1.8-2 1.83-2 1 0 1.65.6 1.65 1.54V13h1.26V7.92c0-1 .73-1.82 1.83-1.82 1.11 0 1.66.57 1.66 1.74V13h1.26V7.54c0-1.65-.9-2.57-2.51-2.57-1.1 0-2 .54-2.42 1.38h-.12a2.28 2.28 0 0 0-2.18-1.38c-1.05 0-1.84.5-2.2 1.38h-.12V5.1h-1.2V13zm16.3.14c-2.25 0-3.65-1.55-3.65-4.09s1.4-4.08 3.64-4.08c2.25 0 3.65 1.54 3.65 4.08s-1.4 4.09-3.65 4.09zm0-1.14c1.49 0 2.33-1.08 2.33-2.95s-.84-2.95-2.34-2.95c-1.49 0-2.33 1.08-2.33 2.95S77.57 12 79.06 12zm5.21 1h6.08v-1.05H85.8v-.12l4.54-5.78V5.1h-6.05v1.06h4.55v.12l-4.56 5.8V13zm8.3 0h1.26V5.1h-1.26V13zm.63-9.5c.48 0 .88-.4.88-.88s-.4-.88-.88-.88a.88.88 0 0 0 0 1.76zm3.1 9.5h1.26V1.97h-1.26V13zm3.78 0h1.26V1.97h-1.26V13zm6.14-.97c1.3 0 2.26-.85 2.26-1.97v-.73l-2.13.14c-1.2.08-1.73.5-1.73 1.29 0 .8.68 1.27 1.6 1.27zm-.23 1.1c-1.53 0-2.67-.9-2.67-2.34 0-1.42 1.04-2.23 2.88-2.34l2.28-.14V7.6c0-.97-.61-1.5-1.8-1.5-.94 0-1.6.35-1.77.98h-1.27c.16-1.27 1.4-2.1 3.1-2.1 1.92 0 3 .98 3 2.62V13h-1.2v-1.16h-.12a2.73 2.73 0 0 1-2.43 1.3zm7.12-.06a.95.95 0 1 0 0 0zm9.65-5.55c-.22-1.4-1.4-2.55-3.31-2.55-2.21 0-3.62 1.6-3.62 4.05 0 2.52 1.41 4.12 3.63 4.12 1.9 0 3.07-1.07 3.3-2.52h-1.28c-.23.9-.97 1.38-2.03 1.38-1.4 0-2.32-1.15-2.32-2.98 0-1.78.9-2.92 2.32-2.92 1.13 0 1.83.64 2.03 1.42h1.28zm5.1 5.62c-2.25 0-3.64-1.55-3.64-4.09s1.4-4.08 3.64-4.08c2.25 0 3.64 1.54 3.64 4.08s-1.39 4.09-3.64 4.09zm0-1.14c1.5 0 2.34-1.08 2.34-2.95s-.84-2.95-2.34-2.95-2.33 1.08-2.33 2.95.84 2.95 2.33 2.95zm5.62 1h1.26V8.1c0-1.1.8-2 1.83-2 1 0 1.65.6 1.65 1.54V13h1.26V7.92c0-1 .73-1.82 1.83-1.82 1.11 0 1.66.57 1.66 1.74V13h1.26V7.54c0-1.65-.9-2.57-2.5-2.57-1.1 0-2 .54-2.43 1.38h-.11A2.28 2.28 0 0 0 137 4.97c-1.05 0-1.84.5-2.2 1.38h-.12V5.1h-1.2V13z"/><polygon fill="#000000" points="1.344 15.53 .26 15.53 .26 .53 1.344 .53"/></g></g><path fill="#0C0C0D" d="M9.84 8.97H5.31V5.82h4.3V4.81H5.3V1.87h4.53V.84H4.17V10h5.67V8.97zM11.77 10h1.1V5.76c0-.97.69-1.74 1.58-1.74.86 0 1.43.52 1.43 1.33V10h1.1V5.6c0-.87.63-1.58 1.58-1.58.96 0 1.44.5 1.44 1.5V10h1.1V5.27c0-1.43-.79-2.23-2.19-2.23a2.3 2.3 0 0 0-2.1 1.2h-.1a1.98 1.98 0 0 0-1.88-1.2c-.92 0-1.6.43-1.91 1.2h-.1V3.16h-1.05V10zm13.42-.84c1.12 0 1.96-.73 1.96-1.71v-.63l-1.84.12c-1.05.07-1.5.43-1.5 1.12 0 .7.59 1.1 1.38 1.1zm-.2.96c-1.33 0-2.31-.79-2.31-2.04 0-1.22.9-1.93 2.5-2.02l1.97-.12v-.62c0-.85-.53-1.31-1.55-1.31-.82 0-1.4.3-1.54.85h-1.1c.14-1.1 1.22-1.82 2.68-1.82 1.67 0 2.6.85 2.6 2.28V10H27.2V9h-.1a2.36 2.36 0 0 1-2.11 1.12zm5.3-.12h1.08V3.16h-1.09V10zm.54-8.23c.42 0 .76-.35.76-.76a.76.76 0 0 0-.76-.77.76.76 0 0 0-.76.77c0 .41.34.76.76.76zM33.52 10h1.1V.44h-1.1V10zm8.99-.84c1.12 0 1.95-.73 1.95-1.71v-.63l-1.84.12c-1.04.07-1.5.43-1.5 1.12 0 .7.6 1.1 1.39 1.1zm-.2.96c-1.33 0-2.32-.79-2.32-2.04 0-1.22.9-1.93 2.5-2.02l1.97-.12v-.62c0-.85-.52-1.31-1.55-1.31-.81 0-1.39.3-1.54.85h-1.1c.14-1.1 1.22-1.82 2.68-1.82 1.67 0 2.6.85 2.6 2.28V10h-1.04V9h-.1a2.36 2.36 0 0 1-2.1 1.12zm7.8 0c-1.76 0-2.88-1.39-2.88-3.54 0-2.15 1.14-3.54 2.88-3.54.95 0 1.75.45 2.14 1.2h.1V.44h1.09V10H52.4V8.9h-.1a2.45 2.45 0 0 1-2.2 1.22zm.25-6.1c-1.24 0-2 .97-2 2.56 0 1.6.75 2.56 2 2.56 1.24 0 2.01-.98 2.01-2.56 0-1.57-.77-2.56-2.01-2.56zm7.73 6.1c-1.75 0-2.87-1.39-2.87-3.54 0-2.15 1.13-3.54 2.87-3.54.95 0 1.76.45 2.15 1.2h.1V.44h1.08V10h-1.04V8.9h-.1a2.45 2.45 0 0 1-2.19 1.22zm.26-6.1c-1.25 0-2 .97-2 2.56 0 1.6.74 2.56 2 2.56 1.24 0 2-.98 2-2.56 0-1.57-.77-2.56-2-2.56zm5.2 5.98h1.09V5.76c0-.97.75-1.66 1.8-1.66.2 0 .6.03.69.06v-1.1a4.69 4.69 0 0 0-.55-.02c-.9 0-1.69.47-1.9 1.13h-.1V3.16h-1.04V10zm7.67-6c-1.09 0-1.85.8-1.93 2.01h3.77c-.03-1.2-.75-2-1.84-2zm1.8 4.23h1.1c-.33 1.17-1.38 1.9-2.88 1.9-1.9 0-3.09-1.38-3.09-3.55 0-2.15 1.2-3.54 3.09-3.54 1.84 0 2.97 1.31 2.97 3.44v.42h-4.92v.05c.06 1.35.81 2.2 1.97 2.2.89 0 1.48-.32 1.77-.92zm2.74-3.2c0 .99.59 1.54 1.87 1.85l1.17.29c.73.18 1.09.5 1.09.96 0 .63-.66 1.07-1.58 1.07-.88 0-1.42-.37-1.6-.95h-1.13c.12 1.14 1.17 1.87 2.7 1.87 1.55 0 2.73-.84 2.73-2.07 0-.98-.62-1.54-1.9-1.85l-1.06-.26c-.8-.2-1.19-.48-1.19-.95 0-.61.64-1.03 1.45-1.03.82 0 1.36.37 1.5.91h1.08c-.14-1.12-1.14-1.83-2.58-1.83-1.45 0-2.55.85-2.55 1.99zm6.8 0c0 .99.6 1.54 1.87 1.85l1.18.29c.73.18 1.08.5 1.08.96 0 .63-.66 1.07-1.58 1.07-.87 0-1.42-.37-1.6-.95h-1.13c.12 1.14 1.17 1.87 2.7 1.87 1.55 0 2.74-.84 2.74-2.07 0-.98-.62-1.54-1.91-1.85l-1.06-.26c-.8-.2-1.18-.48-1.18-.95 0-.61.63-1.03 1.44-1.03.83 0 1.36.37 1.5.91h1.09c-.15-1.12-1.15-1.83-2.58-1.83-1.45 0-2.55.85-2.55 1.99z"/></g><g transform="translate(297 33)"><path fill="#00BDDF" fill-rule="nonzero" d="M5 4a1 1 0 0 0-1 1v26a1 1 0 0 0 1 1h174a1 1 0 0 0 1-1V5a1 1 0 0 0-1-1H5zm0-1h174a2 2 0 0 1 2 2v26a2 2 0 0 1-2 2H5a2 2 0 0 1-2-2V5c0-1.1.9-2 2-2z"/><path fill="#B1EDF6" fill-rule="nonzero" d="M5 3a2 2 0 0 0-2 2v26c0 1.1.9 2 2 2h174a2 2 0 0 0 2-2V5a2 2 0 0 0-2-2H5zm0-1h174a3 3 0 0 1 3 3v26a3 3 0 0 1-3 3H5a3 3 0 0 1-3-3V5a3 3 0 0 1 3-3z"/><path fill="#DFF8FB" fill-rule="nonzero" d="M5 3a2 2 0 0 0-2 2v26c0 1.1.9 2 2 2h174a2 2 0 0 0 2-2V5a2 2 0 0 0-2-2H5zm0-3h174a5 5 0 0 1 5 5v26a5 5 0 0 1-5 5H5a5 5 0 0 1-5-5V5a5 5 0 0 1 5-5z"/><path fill="#0C0C0D" fill-rule="nonzero" d="M17.7 20.72a1 1 0 1 0-1.41-1.41l-4.96 4.95a1 1 0 1 0 1.41 1.41l4.95-4.95zm3.26 1.32a6 6 0 1 0 0-12 6 6 0 0 0 0 12zm0-2a4 4 0 1 1 0-8 4 4 0 0 1 0 8z" opacity=".4"/><path fill="#0C0C0D" fill-opacity=".4" d="M35.84 20.24c.14 1.82 1.69 3 3.93 3 2.42 0 3.95-1.23 3.95-3.17 0-1.55-.88-2.4-3.07-2.95l-1.1-.3c-1.47-.37-2.05-.84-2.05-1.67 0-1.07.94-1.77 2.34-1.77 1.32 0 2.21.64 2.4 1.72h1.32c-.1-1.7-1.63-2.92-3.67-2.92-2.24 0-3.74 1.22-3.74 3.01 0 1.5.83 2.37 2.74 2.85l1.35.35c1.46.37 2.12.94 2.12 1.84 0 1.05-1.05 1.82-2.47 1.82-1.5 0-2.55-.7-2.71-1.81h-1.34zm13.05-4.16c-1.26 0-2.13.92-2.23 2.32h4.35c-.03-1.4-.86-2.32-2.12-2.32zm2.08 4.88h1.26c-.38 1.35-1.6 2.18-3.32 2.18-2.2 0-3.56-1.58-3.56-4.08 0-2.48 1.4-4.1 3.56-4.1 2.13 0 3.43 1.52 3.43 3.98v.48h-5.68v.06c.07 1.56.94 2.55 2.28 2.55 1.02 0 1.7-.38 2.03-1.07zm5.78 1.07c1.3 0 2.25-.85 2.25-1.97v-.73l-2.12.14c-1.2.08-1.73.5-1.73 1.29 0 .8.68 1.27 1.6 1.27zm-.24 1.1c-1.53 0-2.66-.9-2.66-2.34 0-1.42 1.04-2.23 2.87-2.34l2.28-.14v-.72c0-.97-.6-1.5-1.79-1.5-.94 0-1.6.35-1.78.98h-1.27c.17-1.27 1.41-2.1 3.1-2.1 1.92 0 3 .98 3 2.62V23h-1.2v-1.16h-.12a2.73 2.73 0 0 1-2.43 1.3zM62.6 23h1.26v-4.9c0-1.1.87-1.91 2.07-1.91.25 0 .7.04.8.07V15a5.41 5.41 0 0 0-.62-.03c-1.05 0-1.96.54-2.2 1.3h-.1V15.1h-1.21V23zm12.03-5.48c-.22-1.4-1.4-2.55-3.31-2.55-2.22 0-3.62 1.6-3.62 4.05 0 2.52 1.41 4.12 3.62 4.12 1.9 0 3.08-1.07 3.3-2.52h-1.27c-.23.9-.97 1.38-2.03 1.38-1.41 0-2.32-1.15-2.32-2.98 0-1.78.9-2.92 2.32-2.92 1.13 0 1.83.64 2.03 1.42h1.28zM76.55 23h1.26v-4.67c0-1.34.78-2.23 2.19-2.23 1.2 0 1.82.7 1.82 2.1V23h1.26v-5.11c0-1.86-1.05-2.92-2.72-2.92-1.21 0-2.04.5-2.43 1.38h-.12v-4.38h-1.26V23zm19.1-8.34h.08L98.16 23h1.25l2.88-10.57h-1.38l-2.1 8.6h-.09l-2.37-8.6h-1.33l-2.36 8.6h-.1l-2.1-8.6H89.1L91.97 23h1.24l2.43-8.34zm10.9 1.42c-1.26 0-2.14.92-2.23 2.32h4.35c-.03-1.4-.87-2.32-2.12-2.32zm2.08 4.88h1.26c-.38 1.35-1.6 2.18-3.33 2.18-2.19 0-3.55-1.58-3.55-4.08 0-2.48 1.39-4.1 3.55-4.1 2.14 0 3.43 1.52 3.43 3.98v.48h-5.67v.06c.06 1.56.93 2.55 2.27 2.55 1.02 0 1.71-.38 2.04-1.07zm7.27 2.18c-1.1 0-2.04-.52-2.54-1.4h-.12V23h-1.2V11.97h1.26v4.38h.12a2.73 2.73 0 0 1 2.48-1.38c2 0 3.3 1.6 3.3 4.08 0 2.47-1.3 4.09-3.3 4.09zm-.3-7.04c-1.43 0-2.33 1.13-2.33 2.95 0 1.83.9 2.95 2.33 2.95 1.45 0 2.3-1.1 2.3-2.95 0-1.84-.85-2.95-2.3-2.95zm5.4 1.17c0 1.14.67 1.77 2.15 2.13l1.36.33c.84.2 1.25.57 1.25 1.12 0 .72-.76 1.23-1.82 1.23-1.01 0-1.64-.43-1.86-1.1h-1.3c.15 1.32 1.36 2.16 3.11 2.16 1.8 0 3.17-.97 3.17-2.39 0-1.13-.72-1.78-2.2-2.14l-1.22-.29c-.93-.23-1.37-.56-1.37-1.1 0-.7.73-1.19 1.67-1.19.95 0 1.57.42 1.73 1.05h1.25c-.17-1.3-1.32-2.11-2.97-2.11-1.68 0-2.95.98-2.95 2.3zm8.06 5.73h1.26v-7.9h-1.26V23zm.63-9.5a.88.88 0 0 0 0-1.76.88.88 0 0 0 0 1.76zm3.56-.44v2.04h-1.27v1.06h1.27v4.79c0 1.5.66 2.1 2.28 2.1.25 0 .5-.02.74-.06v-1.07c-.23.03-.36.03-.58.03-.82 0-1.18-.4-1.18-1.32v-4.47h1.76V15.1h-1.76v-2.04h-1.26zm7.97 3.02c-1.26 0-2.14.92-2.24 2.32h4.35c-.03-1.4-.86-2.32-2.11-2.32zm2.08 4.88h1.26c-.39 1.35-1.6 2.18-3.33 2.18-2.19 0-3.56-1.58-3.56-4.08 0-2.48 1.4-4.1 3.56-4.1 2.13 0 3.43 1.52 3.43 3.98v.48h-5.68v.06c.07 1.56.94 2.55 2.28 2.55 1.02 0 1.7-.38 2.04-1.07zm3.15-3.7c0 1.15.68 1.78 2.16 2.14l1.35.33c.84.2 1.25.57 1.25 1.12 0 .72-.76 1.23-1.82 1.23-1.01 0-1.64-.43-1.85-1.1h-1.3c.14 1.32 1.35 2.16 3.1 2.16 1.8 0 3.17-.97 3.17-2.39 0-1.13-.72-1.78-2.2-2.14l-1.22-.29c-.93-.23-1.37-.56-1.37-1.1 0-.7.73-1.19 1.67-1.19.95 0 1.57.42 1.74 1.05h1.24c-.17-1.3-1.32-2.11-2.97-2.11-1.68 0-2.95.98-2.95 2.3z"/><polygon fill="#000000" points="36.344 25.53 35.26 25.53 35.26 10.53 36.344 10.53"/></g><g transform="translate(8 40)"><rect width="86" height="22" fill="#0A84FF" rx="2"/><polygon fill="#0A84FF" points="82 11 86 7 90 11 86 15"/><path fill="#FFFFFF" d="M9.3 9.38c-.57.45-1.36.67-2.36.67h-1V13H4.54V4.72h2.3c1.06 0 1.88.22 2.45.65.58.44.87 1.09.87 1.95 0 .93-.29 1.62-.87 2.06zM6.94 5.76h-1V9h1.01c.56 0 1-.13 1.3-.38.31-.26.47-.69.47-1.29 0-1.04-.6-1.56-1.78-1.56zm10.18.9L16.89 9h-.96V7.7c-.44.02-.82.2-1.15.54-.32.34-.58.82-.77 1.45v2.35h1.27V13h-3.55v-.96h.93V7.62h-.93v-.96h1.95l.24 1.47c.25-.55.55-.95.91-1.22s.8-.4 1.33-.4c.32 0 .64.05.96.15zm3.4 4.99c.31.3.71.46 1.2.46.29 0 .57-.04.84-.14.27-.09.54-.23.82-.41l.58.82c-.3.24-.65.44-1.05.57-.4.14-.82.2-1.26.2-.97 0-1.72-.3-2.25-.9a3.5 3.5 0 0 1-.8-2.42c0-.63.1-1.2.34-1.7.23-.52.57-.91 1-1.2.45-.29.96-.43 1.54-.43.84 0 1.51.28 2 .84.5.57.74 1.34.74 2.32 0 .24-.01.44-.04.6h-4.2c.04.62.22 1.08.54 1.39zm-.08-3.69a2.3 2.3 0 0 0-.47 1.4h2.94a2.38 2.38 0 0 0-.38-1.39 1.21 1.21 0 0 0-1.03-.48c-.44 0-.79.16-1.06.47zm8.93 3.95a.7.7 0 0 0 .37-.63.84.84 0 0 0-.1-.45.98.98 0 0 0-.44-.32c-.22-.1-.54-.2-.97-.32a4.2 4.2 0 0 1-1.57-.68 1.43 1.43 0 0 1-.52-1.19c0-.55.23-1 .68-1.33.46-.33 1.08-.5 1.85-.5a4 4 0 0 1 2.41.74l-.57.85a3.2 3.2 0 0 0-1.8-.56c-.8 0-1.2.23-1.2.7 0 .15.04.28.14.39.09.1.25.2.47.3.22.08.56.19 1 .31.68.2 1.2.43 1.54.7.34.29.5.7.5 1.27 0 .65-.26 1.14-.8 1.47-.53.33-1.2.5-1.99.5-1.05 0-1.91-.3-2.6-.9l.7-.8c.27.2.56.37.89.49.32.12.66.19 1.01.19.43 0 .76-.08 1-.23zm7.2 0a.7.7 0 0 0 .37-.63.84.84 0 0 0-.1-.45.98.98 0 0 0-.44-.32c-.22-.1-.54-.2-.97-.32a4.2 4.2 0 0 1-1.57-.68 1.43 1.43 0 0 1-.52-1.19c0-.55.23-1 .68-1.33.46-.33 1.08-.5 1.85-.5a4 4 0 0 1 2.41.74l-.57.85a3.2 3.2 0 0 0-1.8-.56c-.8 0-1.2.23-1.2.7 0 .15.04.28.14.39.09.1.25.2.47.3.22.08.56.19 1 .31.68.2 1.2.43 1.54.7.34.29.5.7.5 1.27 0 .65-.26 1.14-.8 1.47-.53.33-1.2.5-1.99.5-1.05 0-1.91-.3-2.6-.9l.7-.8c.27.2.56.37.89.49.32.12.66.19 1.01.19.43 0 .76-.08 1-.23zm3.36 1.88l5.09-10.53 1.05.49L41 14.27l-1.07-.48zm9.59-5.37h3.12v1.05h-3.12V13h-1.4V4.72h5.1l-.15 1.06h-3.55v2.64zm10-1.03c.5.6.75 1.4.75 2.43 0 1.02-.25 1.84-.76 2.44-.5.6-1.2.9-2.11.9-.91 0-1.62-.3-2.12-.89-.5-.58-.75-1.4-.75-2.44 0-1 .26-1.81.76-2.42a2.6 2.6 0 0 1 2.12-.91c.91 0 1.62.3 2.11.89zm-3.2.71c-.25.38-.37.96-.37 1.73 0 .79.12 1.36.36 1.74.24.37.6.55 1.09.55.49 0 .85-.18 1.1-.56.23-.38.35-.96.35-1.74s-.12-1.35-.36-1.72a1.2 1.2 0 0 0-1.08-.56c-.49 0-.85.19-1.1.56zm10.37 3.41l.61.87a3.58 3.58 0 0 1-2.22.78c-.97 0-1.72-.3-2.27-.9-.54-.6-.81-1.4-.81-2.4 0-.64.12-1.22.37-1.73A2.86 2.86 0 0 1 65.1 6.5c.84 0 1.58.25 2.2.76l-.62.84a2.71 2.71 0 0 0-1.55-.52c-.53 0-.95.19-1.25.57-.3.38-.46.95-.46 1.72 0 .75.16 1.3.46 1.65.3.36.72.53 1.25.53.5 0 1.02-.18 1.56-.54zm3.92-.42c0 .37.08.64.22.8.15.16.38.25.68.25.29 0 .57-.09.84-.26a2 2 0 0 0 .64-.63V6.66h1.34V13h-1.16l-.09-.82a2.2 2.2 0 0 1-.87.72c-.36.17-.73.26-1.12.26-.6 0-1.06-.17-1.37-.5-.3-.32-.45-.8-.45-1.4v-4.6h1.34v4.43zm9.16.82a.7.7 0 0 0 .37-.63.84.84 0 0 0-.1-.45.98.98 0 0 0-.44-.32c-.22-.1-.54-.2-.97-.32a4.2 4.2 0 0 1-1.57-.68 1.43 1.43 0 0 1-.52-1.19c0-.55.23-1 .68-1.33.46-.33 1.08-.5 1.85-.5a4 4 0 0 1 2.41.74l-.57.85a3.2 3.2 0 0 0-1.8-.56c-.8 0-1.2.23-1.2.7 0 .15.04.28.14.39.09.1.25.2.47.3.22.08.56.19 1 .31.68.2 1.2.43 1.54.7.34.29.5.7.5 1.27 0 .65-.26 1.14-.8 1.47-.53.33-1.2.5-1.99.5-1.05 0-1.91-.3-2.6-.9l.7-.8c.27.2.56.37.89.49.32.12.66.19 1.01.19.43 0 .76-.08 1-.23z"/></g></g></svg>