<svg xmlns="http://www.w3.org/2000/svg" xmlns:xlink="http://www.w3.org/1999/xlink" viewBox="0 0 360 100"><defs><rect id="a" width="178" height="32" rx="2"/></defs><g fill="none" fill-rule="evenodd"><g transform="translate(92 36)"><use fill="#FFFFFF" xlink:href="#a"/><rect width="179" height="33" x="-.5" y="-.5" stroke="#FF0039" rx="2"/><rect width="182" height="36" x="-2" y="-2" stroke="#FF0039" stroke-opacity=".3" stroke-width="4" opacity=".52" rx="2"/></g><g transform="translate(93 20)"><path fill="#0C0C0D" d="M20.08 38h-1.22v-7.05c0-.55.04-1.23.1-2.04h-.02c-.12.47-.23.81-.32 1.02L15.03 38h-.6l-3.58-8.01c-.1-.24-.2-.6-.32-1.08h-.03c.04.42.06 1.1.06 2.06V38H9.38V27.5H11l3.23 7.32c.24.56.4.98.48 1.26h.04c.21-.58.38-1 .5-1.29l3.3-7.3h1.53V38zm5.74.18c-1.1 0-2-.35-2.66-1.06a3.9 3.9 0 0 1-.99-2.78c0-1.26.35-2.25 1.04-2.95A3.71 3.71 0 0 1 26 30.32c1.11 0 1.99.35 2.61 1.04.63.69.95 1.64.95 2.86 0 1.2-.34 2.16-1.02 2.88a3.55 3.55 0 0 1-2.72 1.08zm.09-6.85c-.77 0-1.38.27-1.83.8a3.23 3.23 0 0 0-.68 2.16c0 .9.23 1.6.68 2.1.46.52 1.07.78 1.83.78a2.2 2.2 0 0 0 1.79-.76c.42-.5.62-1.22.62-2.15 0-.93-.2-1.66-.62-2.16a2.19 2.19 0 0 0-1.8-.77zm10.8-.49l-4.44 6.13h4.39V38H30.5v-.37l4.44-6.1h-4.02V30.5h5.78v.34zm2.16-2.24a.76.76 0 0 1-.77-.78.75.75 0 0 1 .78-.78.78.78 0 0 1 .78.78c0 .21-.07.4-.23.55a.77.77 0 0 1-.56.23zm.59 9.4h-1.2v-7.5h1.2V38zm3.63 0h-1.2V26.9h1.2V38zm3.63 0h-1.2V26.9h1.2V38zm7.8 0h-1.2v-1.17h-.03c-.52.9-1.29 1.35-2.3 1.35-.75 0-1.34-.2-1.76-.6-.42-.4-.63-.92-.63-1.57 0-1.4.82-2.22 2.47-2.45l2.25-.31c0-1.28-.51-1.92-1.54-1.92-.9 0-1.72.31-2.45.93v-1.23c.74-.47 1.59-.7 2.55-.7 1.76 0 2.64.93 2.64 2.8V38zm-1.2-3.8l-1.8.26c-.56.07-.98.21-1.27.4-.28.2-.42.56-.42 1.06 0 .37.13.67.39.9.26.23.61.35 1.04.35.6 0 1.1-.21 1.48-.63.39-.42.58-.95.58-1.59v-.74zm8.96-5.59h-4.1v3.63h3.8v1.1h-3.8V38h-1.23V27.5h5.33v1.11zm2.45-.01a.76.76 0 0 1-.78-.78c0-.23.08-.41.23-.56a.75.75 0 0 1 .55-.22.78.78 0 0 1 .79.78c0 .21-.08.4-.23.55a.77.77 0 0 1-.56.23zm.58 9.4h-1.2v-7.5h1.2V38zm6.34-6.28a1.47 1.47 0 0 0-.9-.25c-.52 0-.94.25-1.29.73a3.35 3.35 0 0 0-.52 1.98V38h-1.2v-7.5h1.2v1.55h.03c.18-.53.44-.94.79-1.24.35-.3.74-.44 1.18-.44.31 0 .55.03.71.1v1.25z"/><path fill="#0C0C0D" d="M5.02 10H.19V.9h4.62v.96H1.26V4.9h3.29v.96H1.26v3.19h3.76V10zm10.84 0h-1.04V6.27c0-.72-.11-1.24-.33-1.56-.23-.33-.6-.49-1.13-.49-.44 0-.82.2-1.13.61-.3.4-.46.9-.46 1.46V10h-1.05V6.14c0-1.28-.49-1.92-1.47-1.92-.46 0-.84.2-1.13.58-.3.38-.45.88-.45 1.5V10H6.63V3.5h1.04v1.03h.03A2.2 2.2 0 0 1 9.7 3.35a1.88 1.88 0 0 1 1.85 1.34c.48-.9 1.2-1.34 2.15-1.34 1.43 0 2.15.88 2.15 2.64V10zm6.62 0h-1.04V8.98h-.03a2.18 2.18 0 0 1-2 1.17c-.64 0-1.15-.17-1.52-.51-.36-.34-.55-.8-.55-1.37 0-1.21.72-1.92 2.15-2.12l1.95-.27c0-1.1-.45-1.66-1.34-1.66a3.2 3.2 0 0 0-2.12.8V3.96c.64-.4 1.37-.61 2.2-.61 1.54 0 2.3.8 2.3 2.42V10zm-1.04-3.29l-1.57.22c-.48.07-.85.18-1.1.36-.24.17-.36.47-.36.9a1 1 0 0 0 .34.78c.23.2.53.3.9.3.52 0 .95-.17 1.28-.54.34-.36.5-.82.5-1.37V6.7zm3.53-4.86a.66.66 0 0 1-.67-.67c0-.2.07-.36.2-.49s.29-.2.47-.2a.67.67 0 0 1 .69.69c0 .18-.07.34-.2.47-.13.13-.3.2-.49.2zm.51 8.15h-1.04V3.5h1.04V10zm3.15 0H27.6V.38h1.04V10zm10.32 0h-1.04V8.98h-.02a2.18 2.18 0 0 1-2 1.17c-.65 0-1.16-.17-1.52-.51-.37-.34-.55-.8-.55-1.37 0-1.21.71-1.92 2.14-2.12l1.95-.27c0-1.1-.45-1.66-1.34-1.66a3.2 3.2 0 0 0-2.12.8V3.96c.64-.4 1.38-.61 2.21-.61 1.53 0 2.3.8 2.3 2.42V10zm-1.04-3.29l-1.57.22c-.48.07-.84.18-1.09.36-.24.17-.37.47-.37.9a1 1 0 0 0 .34.78c.23.2.53.3.9.3.52 0 .95-.17 1.29-.54.33-.36.5-.82.5-1.37V6.7zM46.46 10h-1.04V8.9h-.02a2.4 2.4 0 0 1-2.24 1.25c-.82 0-1.47-.29-1.96-.87a3.58 3.58 0 0 1-.73-2.38c0-1.07.27-1.93.81-2.58a2.68 2.68 0 0 1 2.17-.97c.89 0 1.54.35 1.95 1.05h.02V.38h1.04V10zm-1.04-2.94V6.1c0-.52-.17-.97-.52-1.33a1.75 1.75 0 0 0-1.32-.55 1.8 1.8 0 0 0-1.5.7c-.36.47-.54 1.11-.54 1.93 0 .75.17 1.34.52 1.78.35.43.82.65 1.4.65.59 0 1.06-.21 1.42-.63.36-.42.54-.95.54-1.59zm8.7 2.94h-1.04V8.9h-.03a2.4 2.4 0 0 1-2.23 1.25c-.82 0-1.47-.29-1.96-.87a3.58 3.58 0 0 1-.74-2.38c0-1.07.28-1.93.82-2.58a2.68 2.68 0 0 1 2.16-.97c.9 0 1.54.35 1.95 1.05h.03V.38h1.04V10zm-1.04-2.94V6.1c0-.52-.18-.97-.52-1.33a1.75 1.75 0 0 0-1.33-.55 1.8 1.8 0 0 0-1.5.7c-.36.47-.54 1.11-.54 1.93 0 .75.18 1.34.52 1.78.35.43.82.65 1.41.65.58 0 1.05-.21 1.41-.63.36-.42.55-.95.55-1.59zm6.53-2.5c-.18-.15-.44-.22-.78-.22-.45 0-.82.21-1.12.63-.3.42-.44 1-.44 1.72V10h-1.05V3.5h1.05v1.34h.02c.15-.46.38-.81.68-1.07.3-.26.65-.38 1.02-.38.27 0 .48.03.62.08v1.08zM65.97 7h-4.6c.03.72.22 1.28.6 1.68.36.39.88.59 1.53.59.73 0 1.4-.24 2.02-.73v.98c-.57.41-1.33.62-2.27.62-.92 0-1.64-.3-2.16-.88a3.62 3.62 0 0 1-.8-2.5c0-1 .3-1.83.87-2.47a2.76 2.76 0 0 1 2.14-.95c.85 0 1.5.27 1.97.82.47.55.7 1.32.7 2.3V7zm-1.07-.88c0-.6-.15-1.07-.43-1.4-.29-.34-.69-.5-1.2-.5-.48 0-.9.17-1.24.52a2.4 2.4 0 0 0-.64 1.38h3.51zm2.25 3.64V8.65c.57.42 1.19.63 1.87.63.92 0 1.37-.3 1.37-.92a.8.8 0 0 0-.12-.44 1.17 1.17 0 0 0-.31-.32c-.14-.1-.3-.18-.47-.25a30.3 30.3 0 0 0-.58-.23 7.48 7.48 0 0 1-.76-.35 2.3 2.3 0 0 1-.55-.4 1.46 1.46 0 0 1-.33-.49c-.07-.19-.1-.4-.1-.65 0-.3.06-.58.2-.81.14-.24.33-.43.56-.6.23-.15.5-.27.8-.35a3.73 3.73 0 0 1 2.43.17v1.05a2.94 2.94 0 0 0-2.18-.4c-.15.04-.29.1-.4.19a.87.87 0 0 0-.26.29.76.76 0 0 0-.1.37c0 .17.04.3.1.42.06.12.15.22.27.3.12.1.26.18.43.25l.58.23c.29.11.54.23.77.34.23.12.43.25.59.4.16.14.28.31.37.5.09.2.13.42.13.68 0 .32-.07.6-.21.84-.15.24-.34.43-.57.59a2.6 2.6 0 0 1-.82.35c-.31.07-.63.11-.97.11-.67 0-1.25-.13-1.74-.38zm5.51 0V8.65c.57.42 1.2.63 1.88.63.91 0 1.37-.3 1.37-.92a.8.8 0 0 0-.12-.44 1.17 1.17 0 0 0-.32-.32c-.13-.1-.29-.18-.47-.25a30.3 30.3 0 0 0-.58-.23 7.48 7.48 0 0 1-.76-.35 2.3 2.3 0 0 1-.54-.4 1.46 1.46 0 0 1-.33-.49c-.08-.19-.11-.4-.11-.65 0-.3.07-.58.2-.81.15-.24.33-.43.57-.6.23-.15.5-.27.8-.35a3.73 3.73 0 0 1 2.43.17v1.05a2.94 2.94 0 0 0-2.18-.4c-.16.04-.3.1-.4.19a.87.87 0 0 0-.26.29.76.76 0 0 0-.1.37c0 .17.03.3.1.42.06.12.15.22.27.3.11.1.26.18.43.25l.57.23c.3.11.55.23.78.34.23.12.42.25.58.4.16.14.29.31.37.5.1.2.13.42.13.68 0 .32-.07.6-.2.84-.15.24-.34.43-.58.59a2.6 2.6 0 0 1-.81.35c-.31.07-.64.11-.98.11-.66 0-1.24-.13-1.74-.38z"/><g transform="translate(155 25)"><circle cx="6.5" cy="6.5" r="6.5" fill="#797676"/><g stroke="#FFFFFF" stroke-linecap="square" stroke-width="1.1" transform="translate(4 4)"><path d="M5 0L0 5m5 0L0 0"/></g></g></g><g transform="translate(91 65)"><rect width="112" height="19" y="6" fill="#FF0039" rx="2"/><path fill="#FFFFFF" d="M13.64 11.44l-2.85 7.7h-1L7 11.44h1l2.14 6.1c.06.2.12.43.15.69h.02c.03-.22.1-.45.18-.7l2.18-6.09h.97zm4.92 7.7h-.88v-.86h-.02c-.38.66-.95 1-1.69 1a1.8 1.8 0 0 1-1.29-.44 1.5 1.5 0 0 1-.46-1.16c0-1.03.6-1.62 1.81-1.8l1.65-.22c0-.94-.37-1.4-1.13-1.4a2.7 2.7 0 0 0-1.8.67v-.9a3.4 3.4 0 0 1 1.88-.52c1.29 0 1.93.69 1.93 2.06v3.57zm-.88-2.78l-1.32.18c-.41.06-.72.16-.93.3-.2.15-.3.4-.3.78 0 .27.09.49.28.66.19.17.45.25.76.25.44 0 .8-.15 1.09-.46.28-.3.42-.7.42-1.16v-.55zm3.42 2.78h-.88V11h.88v8.14zm2.24-6.9a.56.56 0 0 1-.57-.56c0-.17.06-.3.17-.41.1-.11.24-.17.4-.17a.57.57 0 0 1 .58.58c0 .15-.06.29-.17.4a.56.56 0 0 1-.41.17zm.43 6.9h-.88v-5.5h.88v5.5zm6.48 0h-.88v-.93h-.03c-.4.7-1.03 1.06-1.89 1.06-.69 0-1.24-.24-1.65-.74a3.03 3.03 0 0 1-.62-2c0-.92.22-1.65.68-2.2a2.27 2.27 0 0 1 1.83-.82c.76 0 1.31.3 1.65.9h.03V11h.88v8.14zm-.88-2.48v-.82c0-.44-.15-.82-.45-1.12-.29-.31-.66-.47-1.11-.47-.54 0-.96.2-1.27.6-.3.39-.46.93-.46 1.63 0 .63.15 1.13.44 1.5.3.37.7.55 1.2.55.48 0 .88-.18 1.19-.53.3-.36.46-.8.46-1.34zm10.1-.05h-3.89c.01.62.18 1.09.5 1.42.3.33.74.5 1.3.5.61 0 1.18-.2 1.7-.61v.83a3.2 3.2 0 0 1-1.92.52c-.77 0-1.38-.25-1.83-.75-.44-.5-.66-1.2-.66-2.1a3 3 0 0 1 .72-2.1c.49-.54 1.1-.8 1.81-.8.72 0 1.28.23 1.67.7.4.46.6 1.1.6 1.93v.46zm-.9-.74c-.01-.51-.14-.9-.38-1.2a1.25 1.25 0 0 0-1-.42c-.42 0-.77.15-1.06.45-.3.3-.47.69-.54 1.17h2.97zm10.03 3.27h-.88v-3.16c0-.6-.09-1.04-.28-1.32-.19-.27-.5-.4-.95-.4-.37 0-.7.17-.96.51-.26.34-.39.76-.39 1.24v3.13h-.88v-3.26c0-1.08-.42-1.63-1.25-1.63-.39 0-.7.17-.96.5a2 2 0 0 0-.37 1.26v3.13h-.89v-5.5h.89v.87h.02c.39-.66.96-1 1.7-1a1.6 1.6 0 0 1 1.56 1.14 1.96 1.96 0 0 1 1.83-1.14c1.2 0 1.81.75 1.81 2.24v3.4zm5.6 0h-.87v-.86h-.03c-.38.66-.94 1-1.69 1a1.8 1.8 0 0 1-1.28-.44 1.5 1.5 0 0 1-.47-1.16c0-1.03.6-1.62 1.82-1.8l1.65-.22c0-.94-.38-1.4-1.14-1.4a2.7 2.7 0 0 0-1.8.67v-.9a3.4 3.4 0 0 1 1.88-.52c1.29 0 1.94.69 1.94 2.06v3.57zm-.87-2.78l-1.33.18c-.4.06-.72.16-.92.3-.21.15-.32.4-.32.78 0 .27.1.49.3.66.18.17.44.25.76.25.43 0 .8-.15 1.08-.46.28-.3.43-.7.43-1.16v-.55zm2.99-4.11a.56.56 0 0 1-.57-.57.55.55 0 0 1 .57-.57.57.57 0 0 1 .58.57c0 .15-.06.29-.17.4a.56.56 0 0 1-.41.17zm.43 6.9h-.88v-5.5h.88v5.5zm2.66 0h-.88V11h.88v8.14zm7.67-4.62a1.08 1.08 0 0 0-.67-.17c-.38 0-.7.17-.94.53-.26.35-.38.84-.38 1.45v2.8h-.88v-5.5h.88v1.14h.02c.13-.4.32-.7.57-.9.26-.23.55-.33.87-.33.23 0 .4.02.53.07v.91zm5.37 2.08h-3.88c.01.62.18 1.09.5 1.42.3.33.74.5 1.3.5.61 0 1.18-.2 1.7-.61v.83a3.2 3.2 0 0 1-1.92.52c-.77 0-1.38-.25-1.83-.75-.44-.5-.66-1.2-.66-2.1a3 3 0 0 1 .72-2.1c.49-.54 1.1-.8 1.81-.8.72 0 1.28.23 1.67.7.4.46.6 1.1.6 1.93v.46zm-.9-.74c0-.51-.13-.9-.37-1.2a1.25 1.25 0 0 0-1-.42c-.42 0-.77.15-1.06.45-.3.3-.47.69-.54 1.17h2.97zm6.93 5.8h-.88V18.2h-.02c-.39.71-1.01 1.07-1.88 1.07-.7 0-1.25-.24-1.67-.74a3.01 3.01 0 0 1-.62-2c0-.92.23-1.65.69-2.2a2.29 2.29 0 0 1 1.84-.82c.76 0 1.3.3 1.64.9h.02v-.77h.88v8.03zm-.88-5v-.8c0-.45-.15-.84-.45-1.15-.3-.3-.67-.47-1.12-.47-.53 0-.95.2-1.26.6-.3.39-.46.94-.46 1.65 0 .63.15 1.13.45 1.49.3.36.68.54 1.15.54.51 0 .92-.18 1.23-.53.3-.35.46-.8.46-1.33zm7.1 2.47h-.87v-.87h-.02c-.37.67-.93 1-1.7 1-1.31 0-1.97-.78-1.97-2.34v-3.29h.88v3.15c0 1.16.44 1.74 1.33 1.74.43 0 .78-.16 1.06-.48.28-.31.42-.73.42-1.24v-3.17h.88v5.5zm2.24-6.9a.56.56 0 0 1-.57-.56c0-.17.05-.3.17-.41.1-.11.24-.17.4-.17a.57.57 0 0 1 .58.58c0 .15-.06.29-.17.4a.56.56 0 0 1-.41.17zm.43 6.9h-.88v-5.5h.88v5.5zm4.65-4.6a1.08 1.08 0 0 0-.67-.18c-.37 0-.69.17-.94.53-.25.35-.38.84-.38 1.45v2.8h-.88v-5.5h.88v1.14h.02c.13-.4.32-.7.58-.9.26-.23.54-.33.86-.33.23 0 .4.02.53.07v.91zm5.38 2.07H93.5c.02.62.18 1.09.5 1.42.31.33.74.5 1.3.5.62 0 1.18-.2 1.7-.61v.83a3.2 3.2 0 0 1-1.91.52c-.78 0-1.4-.25-1.83-.75-.45-.5-.67-1.2-.67-2.1a3 3 0 0 1 .73-2.1c.48-.54 1.08-.8 1.8-.8s1.28.23 1.67.7c.4.46.6 1.1.6 1.93v.46zm-.9-.74c-.01-.51-.13-.9-.37-1.2a1.25 1.25 0 0 0-1.01-.42c-.42 0-.77.15-1.06.45-.29.3-.47.69-.54 1.17h2.97zm6.92 3.27h-.88v-.93h-.02c-.4.7-1.04 1.06-1.9 1.06-.68 0-1.23-.24-1.65-.74a3.03 3.03 0 0 1-.62-2c0-.92.23-1.65.69-2.2a2.27 2.27 0 0 1 1.83-.82c.76 0 1.3.3 1.65.9h.02V11h.88v8.14zm-.88-2.48v-.82c0-.44-.15-.82-.44-1.12-.3-.31-.67-.47-1.12-.47-.53 0-.96.2-1.26.6-.31.39-.47.93-.47 1.63 0 .63.15 1.13.45 1.5.3.37.69.55 1.19.55.49 0 .89-.18 1.2-.53.3-.36.45-.8.45-1.34z"/><rect width="8.02" height="8.02" x="10.56" y="2.56" fill="#FF0039" transform="rotate(-45 14.57 6.57)"/></g></g></svg>