<svg xmlns="http://www.w3.org/2000/svg" width="504" height="100" viewBox="0 0 504 100">
  <g fill="none" fill-rule="evenodd">
    <path fill="#00BDDF" fill-rule="nonzero" d="M302,37 C301.447715,37 301,37.4477153 301,38 L301,64 C301,64.5522847 301.447715,65 302,65 L476,65 C476.552285,65 477,64.5522847 477,64 L477,38 C477,37.4477153 476.552285,37 476,37 L302,37 Z M302,36 L476,36 C477.104569,36 478,36.8954305 478,38 L478,64 C478,65.1045695 477.104569,66 476,66 L302,66 C300.895431,66 300,65.1045695 300,64 L300,38 C300,36.8954305 300.895431,36 302,36 Z"/>
    <path fill="#B1EDF6" fill-rule="nonzero" d="M302,36 C300.895431,36 300,36.8954305 300,38 L300,64 C300,65.1045695 300.895431,66 302,66 L476,66 C477.104569,66 478,65.1045695 478,64 L478,38 C478,36.8954305 477.104569,36 476,36 L302,36 Z M302,35 L476,35 C477.656854,35 479,36.3431458 479,38 L479,64 C479,65.6568542 477.656854,67 476,67 L302,67 C300.343146,67 299,65.6568542 299,64 L299,38 C299,36.3431458 300.343146,35 302,35 Z"/>
    <path fill="#DFF8FB" fill-rule="nonzero" d="M302,36 C300.895431,36 300,36.8954305 300,38 L300,64 C300,65.1045695 300.895431,66 302,66 L476,66 C477.104569,66 478,65.1045695 478,64 L478,38 C478,36.8954305 477.104569,36 476,36 L302,36 Z M302,33 L476,33 C478.761424,33 481,35.2385763 481,38 L481,64 C481,66.7614237 478.761424,69 476,69 L302,69 C299.238576,69 297,66.7614237 297,64 L297,38 C297,35.2385763 299.238576,33 302,33 Z"/>
    <path fill="#0C0C0D" fill-rule="nonzero" d="M9.30537097,10.7195845 C8.91580555,10.3300191 8.91386021,9.70035412 9.30710716,9.30710716 L9.30710716,9.30710716 C9.69763145,8.91658287 10.3298038,8.9155902 10.7195845,9.30537097 L15.6728044,14.2585908 C16.0623698,14.6481562 16.0643151,15.2778212 15.6710682,15.6710682 L15.6710682,15.6710682 C15.2805439,16.0615925 14.6483716,16.0625852 14.2585908,15.6728044 L9.30537097,10.7195845 Z M6.03796923,12.0379692 C2.72426073,12.0379692 0.0379692297,9.35167773 0.0379692297,6.03796923 C0.0379692297,2.72426073 2.72426073,0.0379692297 6.03796923,0.0379692297 C9.35167773,0.0379692297 12.0379692,2.72426073 12.0379692,6.03796923 C12.0379692,7.62926817 11.4058282,9.15539165 10.2806099,10.2806099 C9.15539165,11.4058282 7.62926817,12.0379692 6.03796923,12.0379692 Z M6.03796923,10.0379692 C7.09883519,10.0379692 8.11625084,9.61654187 8.86639635,8.86639635 C9.61654187,8.11625084 10.0379692,7.09883519 10.0379692,6.03796923 C10.0379692,3.82883023 8.24710823,2.03796923 6.03796923,2.03796923 C3.82883023,2.03796923 2.03796923,3.82883023 2.03796923,6.03796923 C2.03796923,8.24710823 3.82883023,10.0379692 6.03796923,10.0379692 Z" opacity=".4" transform="matrix(-1 0 0 1 324 43)"/>
    <path fill="#0C0C0D" d="M343.118164,48.1044922 L341.851074,48.1044922 L340.29834,54.4179688 L340.181152,54.4179688 L338.416016,48.1044922 L337.20752,48.1044922 L335.442383,54.4179688 L335.325195,54.4179688 L333.772461,48.1044922 L332.498047,48.1044922 L334.709961,56 L335.984375,56 L337.742188,49.8916016 L337.859375,49.8916016 L339.624512,56 L340.90625,56 L343.118164,48.1044922 Z M354.734375,48.1044922 L353.467285,48.1044922 L351.914551,54.4179688 L351.797363,54.4179688 L350.032227,48.1044922 L348.82373,48.1044922 L347.058594,54.4179688 L346.941406,54.4179688 L345.388672,48.1044922 L344.114258,48.1044922 L346.326172,56 L347.600586,56 L349.358398,49.8916016 L349.475586,49.8916016 L351.240723,56 L352.522461,56 L354.734375,48.1044922 Z M366.350586,48.1044922 L365.083496,48.1044922 L363.530762,54.4179688 L363.413574,54.4179688 L361.648438,48.1044922 L360.439941,48.1044922 L358.674805,54.4179688 L358.557617,54.4179688 L357.004883,48.1044922 L355.730469,48.1044922 L357.942383,56 L359.216797,56 L360.974609,49.8916016 L361.091797,49.8916016 L362.856934,56 L364.138672,56 L366.350586,48.1044922 Z M367.976562,56.0732422 C368.503906,56.0732422 368.928711,55.6411133 368.928711,55.1210938 C368.928711,54.59375 368.503906,54.1689453 367.976562,54.1689453 C367.456543,54.1689453 367.024414,54.59375 367.024414,55.1210938 C367.024414,55.6411133 367.456543,56.0732422 367.976562,56.0732422 Z M371.477539,56 L372.737305,56 L372.737305,49.1591797 L374.546387,49.1591797 L374.546387,48.1044922 L372.737305,48.1044922 L372.737305,47.3720703 C372.737305,46.4858398 373.162109,46.1049805 373.916504,46.1049805 C374.165527,46.1049805 374.451172,46.1342773 374.619629,46.1708984 L374.619629,45.1162109 C374.312012,45.0649414 374.092285,45.0429688 373.843262,45.0429688 C372.319824,45.0429688 371.477539,45.7167969 371.477539,47.3354492 L371.477539,48.1044922 L370.166504,48.1044922 L370.166504,49.1591797 L371.477539,49.1591797 L371.477539,56 Z M376.406738,56 L377.666504,56 L377.666504,48.1044922 L376.406738,48.1044922 L376.406738,56 Z M377.036621,46.5004883 C377.52002,46.5004883 377.915527,46.1049805 377.915527,45.621582 C377.915527,45.1381836 377.52002,44.7426758 377.036621,44.7426758 C376.553223,44.7426758 376.157715,45.1381836 376.157715,45.621582 C376.157715,46.1049805 376.553223,46.5004883 377.036621,46.5004883 Z M380.068848,56 L381.328613,56 L381.328613,51.1074219 C381.328613,49.9941406 382.200195,49.1884766 383.401367,49.1884766 C383.650391,49.1884766 384.104492,49.2324219 384.207031,49.2617188 L384.207031,48.0019531 C384.045898,47.9799805 383.782227,47.965332 383.577148,47.965332 C382.529785,47.965332 381.621582,48.5073242 381.387207,49.2763672 L381.27002,49.2763672 L381.27002,48.1044922 L380.068848,48.1044922 L380.068848,56 Z M388.711426,49.0786133 C387.45166,49.0786133 386.572754,50.0014648 386.477539,51.4003906 L390.828125,51.4003906 C390.798828,50.0014648 389.963867,49.0786133 388.711426,49.0786133 Z M390.791504,53.956543 L392.05127,53.956543 C391.67041,55.3115234 390.45459,56.1391602 388.726074,56.1391602 C386.536133,56.1391602 385.166504,54.5571289 385.166504,52.0595703 C385.166504,49.5766602 386.558105,47.965332 388.726074,47.965332 C390.857422,47.965332 392.153809,49.4814453 392.153809,51.9350586 L392.153809,52.418457 L386.477539,52.418457 L386.477539,52.4770508 C386.543457,54.0371094 387.415039,55.0258789 388.755371,55.0258789 C389.773438,55.0258789 390.461914,54.6523438 390.791504,53.956543 Z M394.658691,56 L395.918457,56 L395.918457,49.1591797 L397.727539,49.1591797 L397.727539,48.1044922 L395.918457,48.1044922 L395.918457,47.3720703 C395.918457,46.4858398 396.343262,46.1049805 397.097656,46.1049805 C397.34668,46.1049805 397.632324,46.1342773 397.800781,46.1708984 L397.800781,45.1162109 C397.493164,45.0649414 397.273438,45.0429688 397.024414,45.0429688 C395.500977,45.0429688 394.658691,45.7167969 394.658691,47.3354492 L394.658691,48.1044922 L393.347656,48.1044922 L393.347656,49.1591797 L394.658691,49.1591797 L394.658691,56 Z M402.473633,56.1391602 C400.225098,56.1391602 398.833496,54.5864258 398.833496,52.0522461 C398.833496,49.5107422 400.225098,47.965332 402.473633,47.965332 C404.722168,47.965332 406.11377,49.5107422 406.11377,52.0522461 C406.11377,54.5864258 404.722168,56.1391602 402.473633,56.1391602 Z M402.473633,55.0039062 C403.967773,55.0039062 404.810059,53.9199219 404.810059,52.0522461 C404.810059,50.1772461 403.967773,49.1005859 402.473633,49.1005859 C400.979492,49.1005859 400.137207,50.1772461 400.137207,52.0522461 C400.137207,53.9199219 400.979492,55.0039062 402.473633,55.0039062 Z"/>
    <polygon fill="#000" points="407.344 58.53 406.26 58.53 406.26 43.53 407.344 43.53"/>
    <circle cx="462.5" cy="51.5" r="6.5" fill="#797676"/>
    <polygon fill="#FFF" fill-rule="nonzero" points="465 48.222 459.222 54 460 54.778 465.778 49"/>
    <polygon fill="#FFF" fill-rule="nonzero" points="465.778 54 460 48.222 459.222 49 465 54.778"/>
    <path fill="#00BDDF" fill-rule="nonzero" d="M110,37 C109.447715,37 109,37.4477153 109,38 L109,64 C109,64.5522847 109.447715,65 110,65 L284,65 C284.552285,65 285,64.5522847 285,64 L285,38 C285,37.4477153 284.552285,37 284,37 L110,37 Z M110,36 L284,36 C285.104569,36 286,36.8954305 286,38 L286,64 C286,65.1045695 285.104569,66 284,66 L110,66 C108.895431,66 108,65.1045695 108,64 L108,38 C108,36.8954305 108.895431,36 110,36 Z"/>
    <path fill="#B1EDF6" fill-rule="nonzero" d="M110,36 C108.895431,36 108,36.8954305 108,38 L108,64 C108,65.1045695 108.895431,66 110,66 L284,66 C285.104569,66 286,65.1045695 286,64 L286,38 C286,36.8954305 285.104569,36 284,36 L110,36 Z M110,35 L284,35 C285.656854,35 287,36.3431458 287,38 L287,64 C287,65.6568542 285.656854,67 284,67 L110,67 C108.343146,67 107,65.6568542 107,64 L107,38 C107,36.3431458 108.343146,35 110,35 Z"/>
    <path fill="#DFF8FB" fill-rule="nonzero" d="M110,36 C108.895431,36 108,36.8954305 108,38 L108,64 C108,65.1045695 108.895431,66 110,66 L284,66 C285.104569,66 286,65.1045695 286,64 L286,38 C286,36.8954305 285.104569,36 284,36 L110,36 Z M110,33 L284,33 C286.761424,33 289,35.2385763 289,38 L289,64 C289,66.7614237 286.761424,69 284,69 L110,69 C107.238576,69 105,66.7614237 105,64 L105,38 C105,35.2385763 107.238576,33 110,33 Z"/>
    <path fill="#0C0C0D" d="M128.762695,56 L128.762695,45.4311523 L127.231934,45.4311523 L123.61377,54.1762695 L123.496582,54.1762695 L119.878418,45.4311523 L118.347656,45.4311523 L118.347656,56 L119.578125,56 L119.578125,47.9287109 L119.666016,47.9287109 L122.998535,55.9267578 L124.111816,55.9267578 L127.444336,47.9287109 L127.532227,47.9287109 L127.532227,56 L128.762695,56 Z M134.541504,56.1391602 C132.292969,56.1391602 130.901367,54.5864258 130.901367,52.0522461 C130.901367,49.5107422 132.292969,47.965332 134.541504,47.965332 C136.790039,47.965332 138.181641,49.5107422 138.181641,52.0522461 C138.181641,54.5864258 136.790039,56.1391602 134.541504,56.1391602 Z M134.541504,55.0039062 C136.035645,55.0039062 136.87793,53.9199219 136.87793,52.0522461 C136.87793,50.1772461 136.035645,49.1005859 134.541504,49.1005859 C133.047363,49.1005859 132.205078,50.1772461 132.205078,52.0522461 C132.205078,53.9199219 133.047363,55.0039062 134.541504,55.0039062 Z M139.756348,56 L145.835449,56 L145.835449,54.9453125 L141.279785,54.9453125 L141.279785,54.828125 L145.813477,49.0493164 L145.813477,48.1044922 L139.763672,48.1044922 L139.763672,49.1591797 L144.312012,49.1591797 L144.312012,49.2763672 L139.756348,55.0771484 L139.756348,56 Z M148.054688,56 L149.314453,56 L149.314453,48.1044922 L148.054688,48.1044922 L148.054688,56 Z M148.68457,46.5004883 C149.167969,46.5004883 149.563477,46.1049805 149.563477,45.621582 C149.563477,45.1381836 149.167969,44.7426758 148.68457,44.7426758 C148.201172,44.7426758 147.805664,45.1381836 147.805664,45.621582 C147.805664,46.1049805 148.201172,46.5004883 148.68457,46.5004883 Z M151.790039,56 L153.049805,56 L153.049805,44.9697266 L151.790039,44.9697266 L151.790039,56 Z M155.569336,56 L156.829102,56 L156.829102,44.9697266 L155.569336,44.9697266 L155.569336,56 Z M161.707031,55.0332031 C163.003418,55.0332031 163.962891,54.1835938 163.962891,53.0556641 L163.962891,52.3305664 L161.838867,52.4697266 C160.637695,52.550293 160.110352,52.9677734 160.110352,53.7587891 C160.110352,54.5644531 160.791504,55.0332031 161.707031,55.0332031 Z M161.472656,56.1391602 C159.941895,56.1391602 158.806641,55.230957 158.806641,53.7880859 C158.806641,52.3745117 159.84668,51.5615234 161.685059,51.4516602 L163.962891,51.3125 L163.962891,50.5947266 C163.962891,49.6206055 163.35498,49.0859375 162.175781,49.0859375 C161.230957,49.0859375 160.571777,49.4448242 160.395996,50.0673828 L159.121582,50.0673828 C159.290039,48.800293 160.535156,47.965332 162.219727,47.965332 C164.145996,47.965332 165.222656,48.9541016 165.222656,50.5947266 L165.222656,56 L164.021484,56 L164.021484,54.8354492 L163.904297,54.8354492 C163.391602,55.6777344 162.527344,56.1391602 161.472656,56.1391602 Z M169.03125,56 L169.03125,51.4223633 L173.711426,51.4223633 L173.711426,50.2504883 L169.03125,50.2504883 L169.03125,46.6176758 L174.128906,46.6176758 L174.128906,45.4311523 L167.712891,45.4311523 L167.712891,56 L169.03125,56 Z M176.165039,56 L177.424805,56 L177.424805,48.1044922 L176.165039,48.1044922 L176.165039,56 Z M176.794922,46.5004883 C177.27832,46.5004883 177.673828,46.1049805 177.673828,45.621582 C177.673828,45.1381836 177.27832,44.7426758 176.794922,44.7426758 C176.311523,44.7426758 175.916016,45.1381836 175.916016,45.621582 C175.916016,46.1049805 176.311523,46.5004883 176.794922,46.5004883 Z M179.827148,56 L181.086914,56 L181.086914,51.1074219 C181.086914,49.9941406 181.958496,49.1884766 183.159668,49.1884766 C183.408691,49.1884766 183.862793,49.2324219 183.965332,49.2617188 L183.965332,48.0019531 C183.804199,47.9799805 183.540527,47.965332 183.335449,47.965332 C182.288086,47.965332 181.379883,48.5073242 181.145508,49.2763672 L181.02832,49.2763672 L181.02832,48.1044922 L179.827148,48.1044922 L179.827148,56 Z"/>
    <polygon fill="#000" points="185.344 58.53 184.26 58.53 184.26 43.53 185.344 43.53"/>
    <path fill="#0C0C0D" d="M114.842773,28.9716797 L110.310547,28.9716797 L110.310547,25.8232422 L114.60791,25.8232422 L114.60791,24.8076172 L110.310547,24.8076172 L110.310547,21.8686523 L114.842773,21.8686523 L114.842773,20.840332 L109.167969,20.840332 L109.167969,30 L114.842773,30 L114.842773,28.9716797 Z M116.772461,30 L117.864258,30 L117.864258,25.7597656 C117.864258,24.7949219 118.556152,24.0205078 119.451172,24.0205078 C120.314453,24.0205078 120.879395,24.5410156 120.879395,25.3535156 L120.879395,30 L121.971191,30 L121.971191,25.6010742 C121.971191,24.7314453 122.605957,24.0205078 123.558105,24.0205078 C124.522949,24.0205078 124.999023,24.515625 124.999023,25.5249023 L124.999023,30 L126.09082,30 L126.09082,25.2709961 C126.09082,23.8364258 125.310059,23.0366211 123.913574,23.0366211 C122.967773,23.0366211 122.187012,23.5126953 121.818848,24.2363281 L121.717285,24.2363281 C121.399902,23.5253906 120.752441,23.0366211 119.825684,23.0366211 C118.911621,23.0366211 118.226074,23.4746094 117.915039,24.2363281 L117.813477,24.2363281 L117.813477,23.1572266 L116.772461,23.1572266 L116.772461,30 Z M130.191406,29.1621094 C131.314941,29.1621094 132.146484,28.4257812 132.146484,27.4482422 L132.146484,26.8198242 L130.305664,26.9404297 C129.264648,27.0102539 128.807617,27.3720703 128.807617,28.0576172 C128.807617,28.7558594 129.397949,29.1621094 130.191406,29.1621094 Z M129.988281,30.1206055 C128.661621,30.1206055 127.677734,29.3334961 127.677734,28.0830078 C127.677734,26.8579102 128.579102,26.1533203 130.172363,26.0581055 L132.146484,25.9375 L132.146484,25.3154297 C132.146484,24.4711914 131.619629,24.0078125 130.597656,24.0078125 C129.778809,24.0078125 129.20752,24.3188477 129.055176,24.8583984 L127.950684,24.8583984 C128.09668,23.7602539 129.175781,23.0366211 130.635742,23.0366211 C132.305176,23.0366211 133.238281,23.8935547 133.238281,25.3154297 L133.238281,30 L132.197266,30 L132.197266,28.9907227 L132.095703,28.9907227 C131.651367,29.7207031 130.902344,30.1206055 129.988281,30.1206055 Z M135.282227,30 L136.374023,30 L136.374023,23.1572266 L135.282227,23.1572266 L135.282227,30 Z M135.828125,21.7670898 C136.24707,21.7670898 136.589844,21.4243164 136.589844,21.0053711 C136.589844,20.5864258 136.24707,20.2436523 135.828125,20.2436523 C135.40918,20.2436523 135.066406,20.5864258 135.066406,21.0053711 C135.066406,21.4243164 135.40918,21.7670898 135.828125,21.7670898 Z M138.519531,30 L139.611328,30 L139.611328,20.4404297 L138.519531,20.4404297 L138.519531,30 Z M147.507812,29.1621094 C148.631348,29.1621094 149.462891,28.4257812 149.462891,27.4482422 L149.462891,26.8198242 L147.62207,26.9404297 C146.581055,27.0102539 146.124023,27.3720703 146.124023,28.0576172 C146.124023,28.7558594 146.714355,29.1621094 147.507812,29.1621094 Z M147.304688,30.1206055 C145.978027,30.1206055 144.994141,29.3334961 144.994141,28.0830078 C144.994141,26.8579102 145.895508,26.1533203 147.48877,26.0581055 L149.462891,25.9375 L149.462891,25.3154297 C149.462891,24.4711914 148.936035,24.0078125 147.914062,24.0078125 C147.095215,24.0078125 146.523926,24.3188477 146.371582,24.8583984 L145.26709,24.8583984 C145.413086,23.7602539 146.492188,23.0366211 147.952148,23.0366211 C149.621582,23.0366211 150.554688,23.8935547 150.554688,25.3154297 L150.554688,30 L149.513672,30 L149.513672,28.9907227 L149.412109,28.9907227 C148.967773,29.7207031 148.21875,30.1206055 147.304688,30.1206055 Z M155.105957,30.1206055 C153.354004,30.1206055 152.230469,28.7304688 152.230469,26.5786133 C152.230469,24.4331055 153.366699,23.0366211 155.105957,23.0366211 C156.058105,23.0366211 156.864258,23.4873047 157.251465,24.2363281 L157.34668,24.2363281 L157.34668,20.4404297 L158.438477,20.4404297 L158.438477,30 L157.397461,30 L157.397461,28.9082031 L157.295898,28.9082031 C156.864258,29.6699219 156.051758,30.1206055 155.105957,30.1206055 Z M155.359863,24.0205078 C154.115723,24.0205078 153.360352,24.9853516 153.360352,26.5786133 C153.360352,28.1782227 154.109375,29.1367188 155.359863,29.1367188 C156.604004,29.1367188 157.37207,28.1591797 157.37207,26.5786133 C157.37207,25.0107422 156.597656,24.0205078 155.359863,24.0205078 Z M163.091309,30.1206055 C161.339355,30.1206055 160.21582,28.7304688 160.21582,26.5786133 C160.21582,24.4331055 161.352051,23.0366211 163.091309,23.0366211 C164.043457,23.0366211 164.849609,23.4873047 165.236816,24.2363281 L165.332031,24.2363281 L165.332031,20.4404297 L166.423828,20.4404297 L166.423828,30 L165.382812,30 L165.382812,28.9082031 L165.28125,28.9082031 C164.849609,29.6699219 164.037109,30.1206055 163.091309,30.1206055 Z M163.345215,24.0205078 C162.101074,24.0205078 161.345703,24.9853516 161.345703,26.5786133 C161.345703,28.1782227 162.094727,29.1367188 163.345215,29.1367188 C164.589355,29.1367188 165.357422,28.1591797 165.357422,26.5786133 C165.357422,25.0107422 164.583008,24.0205078 163.345215,24.0205078 Z M168.543945,30 L169.635742,30 L169.635742,25.7597656 C169.635742,24.7949219 170.391113,24.0966797 171.432129,24.0966797 C171.647949,24.0966797 172.041504,24.1347656 172.130371,24.1601562 L172.130371,23.0683594 C171.990723,23.0493164 171.762207,23.0366211 171.584473,23.0366211 C170.676758,23.0366211 169.889648,23.5063477 169.686523,24.1728516 L169.584961,24.1728516 L169.584961,23.1572266 L168.543945,23.1572266 L168.543945,30 Z M176.224609,24.0014648 C175.132812,24.0014648 174.371094,24.8012695 174.288574,26.0136719 L178.059082,26.0136719 C178.033691,24.8012695 177.310059,24.0014648 176.224609,24.0014648 Z M178.027344,28.2290039 L179.119141,28.2290039 C178.789062,29.4033203 177.735352,30.1206055 176.237305,30.1206055 C174.339355,30.1206055 173.152344,28.7495117 173.152344,26.5849609 C173.152344,24.4331055 174.358398,23.0366211 176.237305,23.0366211 C178.084473,23.0366211 179.208008,24.3505859 179.208008,26.4770508 L179.208008,26.8959961 L174.288574,26.8959961 L174.288574,26.9467773 C174.345703,28.2988281 175.101074,29.1557617 176.262695,29.1557617 C177.14502,29.1557617 177.741699,28.8320312 178.027344,28.2290039 Z M180.763184,25.0297852 C180.763184,26.0200195 181.347168,26.5722656 182.629395,26.8833008 L183.803711,27.1689453 C184.533691,27.3466797 184.88916,27.6640625 184.88916,28.1337891 C184.88916,28.762207 184.229004,29.2001953 183.308594,29.2001953 C182.432617,29.2001953 181.886719,28.8320312 181.702637,28.2543945 L180.579102,28.2543945 C180.699707,29.390625 181.74707,30.1206055 183.270508,30.1206055 C184.825684,30.1206055 186.012695,29.2763672 186.012695,28.0512695 C186.012695,27.0673828 185.390625,26.5087891 184.102051,26.1977539 L183.04834,25.9438477 C182.242188,25.7470703 181.861328,25.4550781 181.861328,24.9853516 C181.861328,24.3759766 182.496094,23.9633789 183.308594,23.9633789 C184.133789,23.9633789 184.666992,24.3251953 184.812988,24.8710938 L185.89209,24.8710938 C185.746094,23.7475586 184.749512,23.0366211 183.314941,23.0366211 C181.861328,23.0366211 180.763184,23.8935547 180.763184,25.0297852 Z M187.567871,25.0297852 C187.567871,26.0200195 188.151855,26.5722656 189.434082,26.8833008 L190.608398,27.1689453 C191.338379,27.3466797 191.693848,27.6640625 191.693848,28.1337891 C191.693848,28.762207 191.033691,29.2001953 190.113281,29.2001953 C189.237305,29.2001953 188.691406,28.8320312 188.507324,28.2543945 L187.383789,28.2543945 C187.504395,29.390625 188.551758,30.1206055 190.075195,30.1206055 C191.630371,30.1206055 192.817383,29.2763672 192.817383,28.0512695 C192.817383,27.0673828 192.195312,26.5087891 190.906738,26.1977539 L189.853027,25.9438477 C189.046875,25.7470703 188.666016,25.4550781 188.666016,24.9853516 C188.666016,24.3759766 189.300781,23.9633789 190.113281,23.9633789 C190.938477,23.9633789 191.47168,24.3251953 191.617676,24.8710938 L192.696777,24.8710938 C192.550781,23.7475586 191.554199,23.0366211 190.119629,23.0366211 C188.666016,23.0366211 187.567871,23.8935547 187.567871,25.0297852 Z"/>
    <circle cx="270.5" cy="51.5" r="6.5" fill="#797676"/>
    <polygon fill="#FFF" fill-rule="nonzero" points="273 48.222 267.222 54 268 54.778 273.778 49"/>
    <polygon fill="#FFF" fill-rule="nonzero" points="273.778 54 268 48.222 267.222 49 273 54.778"/>
    <g transform="translate(56 38)">
      <rect width="38" height="22" fill="#0A84FF" rx="2"/>
      <polygon fill="#0A84FF" points="34 11 38 7 42 11 38 15"/>
      <text fill="#FFF" font-family="FiraMono-Medium, Fira Mono" font-size="12" font-weight="400">
        <tspan x="4.6" y="15">Type</tspan>
      </text>
    </g>
  </g>
</svg>
