<svg xmlns="http://www.w3.org/2000/svg" viewBox="0 0 360 100"><g fill="none" fill-rule="evenodd"><g fill="#0C0C0D" transform="translate(143 20)"><path fill-opacity=".3" fill-rule="nonzero" d="M2 17a1 1 0 0 0-1 1v26a1 1 0 0 0 1 1h174a1 1 0 0 0 1-1V18a1 1 0 0 0-1-1H2zm0-1h174a2 2 0 0 1 2 2v26a2 2 0 0 1-2 2H2a2 2 0 0 1-2-2V18c0-1.1.9-2 2-2z"/><path fill-opacity=".4" d="M11.67 36v-4.58h4.68v-1.17h-4.68v-3.63h5.1v-1.19h-6.42V36h1.32zm7.13 0h1.26v-7.9H18.8V36zm.63-9.5c.48 0 .88-.4.88-.88s-.4-.88-.88-.88-.88.4-.88.88.4.88.88.88zm3.03 9.5h1.26v-4.9c0-1.1.87-1.91 2.07-1.91.25 0 .7.04.81.07V28a5.41 5.41 0 0 0-.63-.03c-1.05 0-1.96.54-2.19 1.3h-.12V28.1h-1.2V36zm8.64-6.92c-1.26 0-2.13.92-2.23 2.32h4.35c-.03-1.4-.86-2.32-2.12-2.32zm2.08 4.88h1.26c-.38 1.35-1.6 2.18-3.32 2.18-2.2 0-3.56-1.58-3.56-4.08 0-2.48 1.4-4.1 3.56-4.1 2.13 0 3.43 1.52 3.43 3.98v.48h-5.68v.06c.07 1.56.94 2.55 2.28 2.55 1.02 0 1.7-.38 2.03-1.07zM37.05 36h1.26v-6.84h1.81V28.1h-1.8v-.73c0-.88.42-1.27 1.17-1.27.25 0 .54.03.7.07v-1.05c-.3-.06-.52-.08-.77-.08-1.53 0-2.37.68-2.37 2.3v.76h-1.3v1.06h1.3V36zm7.82.14c-2.25 0-3.64-1.55-3.64-4.09s1.39-4.08 3.64-4.08 3.64 1.54 3.64 4.08-1.4 4.09-3.64 4.09zm0-1.14c1.5 0 2.33-1.08 2.33-2.95s-.84-2.95-2.33-2.95c-1.5 0-2.34 1.08-2.34 2.95S43.37 35 44.87 35zm8.05-1.98L54.78 36h1.5l-2.72-4 2.68-3.9h-1.43l-1.85 2.94h-.12l-1.87-2.94h-1.5l2.73 3.95L49.5 36h1.42l1.88-2.98h.12zm10.73-3.43c-.98 0-1.56.76-1.56 2.04s.59 2.06 1.55 2.06c1 0 1.65-.8 1.65-2.06 0-1.25-.64-2.04-1.64-2.04zm.26-4.1c3.46 0 5.87 2.21 5.87 5.39 0 2.39-1.07 3.9-2.75 3.9-.86 0-1.52-.5-1.61-1.23h-.12a1.88 1.88 0 0 1-1.83 1.17c-1.52 0-2.55-1.25-2.55-3.11 0-1.78 1.05-3.03 2.55-3.03.77 0 1.43.4 1.71 1.03h.12v-.89h1.1v4.3c0 .51.3.81.83.81.93 0 1.52-1.16 1.52-2.96 0-2.65-2-4.46-4.94-4.46-2.86 0-4.92 2.19-4.92 5.23 0 3.13 2.02 5.14 5.16 5.14 1 0 2-.14 2.45-.35v.92a7.9 7.9 0 0 1-2.47.36c-3.78 0-6.17-2.37-6.17-6.11 0-3.63 2.46-6.11 6.05-6.11zM71.77 36h1.26v-4.9c0-1.1.8-2 1.83-2 1 0 1.65.6 1.65 1.54V36h1.26v-5.08c0-1 .73-1.82 1.83-1.82 1.11 0 1.66.57 1.66 1.74V36h1.26v-5.46c0-1.65-.9-2.57-2.51-2.57-1.1 0-2 .54-2.42 1.38h-.12a2.28 2.28 0 0 0-2.18-1.38c-1.05 0-1.84.5-2.2 1.38h-.12V28.1h-1.2V36zm16.3.14c-2.25 0-3.65-1.55-3.65-4.09s1.4-4.08 3.64-4.08c2.25 0 3.65 1.54 3.65 4.08s-1.4 4.09-3.65 4.09zm0-1.14c1.49 0 2.33-1.08 2.33-2.95s-.84-2.95-2.34-2.95c-1.49 0-2.33 1.08-2.33 2.95S86.57 35 88.06 35zm5.21 1h6.08v-1.05H94.8v-.12l4.54-5.78v-.95h-6.05v1.06h4.55v.12l-4.56 5.8V36zm8.3 0h1.26v-7.9h-1.26V36zm.63-9.5c.48 0 .88-.4.88-.88s-.4-.88-.88-.88a.88.88 0 0 0 0 1.76zm3.1 9.5h1.26V24.97h-1.26V36zm3.78 0h1.26V24.97h-1.26V36zm6.14-.97c1.3 0 2.26-.85 2.26-1.97v-.73l-2.13.14c-1.2.08-1.73.5-1.73 1.29 0 .8.68 1.27 1.6 1.27zm-.23 1.1c-1.53 0-2.67-.9-2.67-2.34 0-1.42 1.04-2.23 2.88-2.34l2.28-.14v-.72c0-.97-.61-1.5-1.8-1.5-.94 0-1.6.35-1.77.98h-1.27c.16-1.27 1.4-2.1 3.1-2.1 1.92 0 3 .98 3 2.62V36h-1.2v-1.16h-.12a2.73 2.73 0 0 1-2.43 1.3zm7.12-.06a.95.95 0 1 0 0 0zm9.65-5.55c-.22-1.4-1.4-2.55-3.31-2.55-2.21 0-3.62 1.6-3.62 4.05 0 2.52 1.41 4.12 3.63 4.12 1.9 0 3.07-1.07 3.3-2.52h-1.28c-.23.9-.97 1.38-2.03 1.38-1.4 0-2.32-1.15-2.32-2.98 0-1.78.9-2.92 2.32-2.92 1.13 0 1.83.64 2.03 1.42h1.28zm5.1 5.62c-2.25 0-3.64-1.55-3.64-4.09s1.4-4.08 3.64-4.08c2.25 0 3.64 1.54 3.64 4.08s-1.39 4.09-3.64 4.09zm0-1.14c1.5 0 2.34-1.08 2.34-2.95s-.84-2.95-2.34-2.95-2.33 1.08-2.33 2.95.84 2.95 2.33 2.95zm5.62 1h1.26v-4.9c0-1.1.8-2 1.83-2 1 0 1.65.6 1.65 1.54V36h1.26v-5.08c0-1 .73-1.82 1.83-1.82 1.11 0 1.66.57 1.66 1.74V36h1.26v-5.46c0-1.65-.9-2.57-2.5-2.57-1.1 0-2 .54-2.43 1.38h-.11a2.28 2.28 0 0 0-2.19-1.38c-1.05 0-1.84.5-2.2 1.38h-.12V28.1h-1.2V36z"/><path d="M6.84 8.97H2.31V5.82h4.3V4.81H2.3V1.87h4.53V.84H1.17V10h5.67V8.97zM8.77 10h1.1V5.76c0-.97.69-1.74 1.58-1.74.86 0 1.43.52 1.43 1.33V10h1.1V5.6c0-.87.63-1.58 1.58-1.58.96 0 1.44.5 1.44 1.5V10h1.1V5.27c0-1.43-.79-2.23-2.19-2.23a2.3 2.3 0 0 0-2.1 1.2h-.1a1.98 1.98 0 0 0-1.88-1.2c-.92 0-1.6.43-1.91 1.2h-.1V3.16H8.76V10zm13.42-.84c1.12 0 1.96-.73 1.96-1.71v-.63l-1.84.12c-1.05.07-1.5.43-1.5 1.12 0 .7.59 1.1 1.38 1.1zm-.2.96c-1.33 0-2.31-.79-2.31-2.04 0-1.22.9-1.93 2.5-2.02l1.97-.12v-.62c0-.85-.53-1.31-1.55-1.31-.82 0-1.4.3-1.54.85h-1.1c.14-1.1 1.22-1.82 2.68-1.82 1.67 0 2.6.85 2.6 2.28V10H24.2V9h-.1a2.36 2.36 0 0 1-2.11 1.12zm5.3-.12h1.08V3.16h-1.09V10zm.54-8.23c.42 0 .76-.35.76-.76a.76.76 0 0 0-.76-.77.76.76 0 0 0-.76.77c0 .41.34.76.76.76zM30.52 10h1.1V.44h-1.1V10zm8.99-.84c1.12 0 1.95-.73 1.95-1.71v-.63l-1.84.12c-1.04.07-1.5.43-1.5 1.12 0 .7.6 1.1 1.39 1.1zm-.2.96c-1.33 0-2.32-.79-2.32-2.04 0-1.22.9-1.93 2.5-2.02l1.97-.12v-.62c0-.85-.52-1.31-1.55-1.31-.81 0-1.39.3-1.54.85h-1.1c.14-1.1 1.22-1.82 2.68-1.82 1.67 0 2.6.85 2.6 2.28V10h-1.04V9h-.1a2.36 2.36 0 0 1-2.1 1.12zm7.8 0c-1.76 0-2.88-1.39-2.88-3.54 0-2.15 1.14-3.54 2.88-3.54.95 0 1.75.45 2.14 1.2h.1V.44h1.09V10H49.4V8.9h-.1a2.45 2.45 0 0 1-2.2 1.22zm.25-6.1c-1.24 0-2 .97-2 2.56 0 1.6.75 2.56 2 2.56 1.24 0 2.01-.98 2.01-2.56 0-1.57-.77-2.56-2.01-2.56zm7.73 6.1c-1.75 0-2.87-1.39-2.87-3.54 0-2.15 1.13-3.54 2.87-3.54.95 0 1.76.45 2.15 1.2h.1V.44h1.08V10h-1.04V8.9h-.1a2.45 2.45 0 0 1-2.19 1.22zm.26-6.1c-1.25 0-2 .97-2 2.56 0 1.6.74 2.56 2 2.56 1.24 0 2-.98 2-2.56 0-1.57-.77-2.56-2-2.56zm5.2 5.98h1.09V5.76c0-.97.75-1.66 1.8-1.66.2 0 .6.03.69.06v-1.1a4.69 4.69 0 0 0-.55-.02c-.9 0-1.69.47-1.9 1.13h-.1V3.16h-1.04V10zm7.67-6c-1.09 0-1.85.8-1.93 2.01h3.77c-.03-1.2-.75-2-1.84-2zm1.8 4.23h1.1c-.33 1.17-1.38 1.9-2.88 1.9-1.9 0-3.09-1.38-3.09-3.55 0-2.15 1.2-3.54 3.09-3.54 1.84 0 2.97 1.31 2.97 3.44v.42h-4.92v.05c.06 1.35.81 2.2 1.97 2.2.89 0 1.48-.32 1.77-.92zm2.74-3.2c0 .99.59 1.54 1.87 1.85l1.17.29c.73.18 1.09.5 1.09.96 0 .63-.66 1.07-1.58 1.07-.88 0-1.42-.37-1.6-.95h-1.13c.12 1.14 1.17 1.87 2.7 1.87 1.55 0 2.73-.84 2.73-2.07 0-.98-.62-1.54-1.9-1.85l-1.06-.26c-.8-.2-1.19-.48-1.19-.95 0-.61.64-1.03 1.45-1.03.82 0 1.36.37 1.5.91h1.08c-.14-1.12-1.14-1.83-2.58-1.83-1.45 0-2.55.85-2.55 1.99zm6.8 0c0 .99.6 1.54 1.87 1.85l1.18.29c.73.18 1.08.5 1.08.96 0 .63-.66 1.07-1.58 1.07-.87 0-1.42-.37-1.6-.95h-1.13c.12 1.14 1.17 1.87 2.7 1.87 1.55 0 2.74-.84 2.74-2.07 0-.98-.62-1.54-1.91-1.85l-1.06-.26c-.8-.2-1.18-.48-1.18-.95 0-.61.63-1.03 1.44-1.03.83 0 1.36.37 1.5.91h1.09c-.15-1.12-1.15-1.83-2.58-1.83-1.45 0-2.55.85-2.55 1.99z"/></g><g transform="translate(78 38)"><rect width="51" height="22" fill="#0A84FF" rx="2"/><polygon fill="#0A84FF" points="47 11 51 7 55 11 51 15"/><path fill="#FFFFFF" d="M6.04 7.84c.13 1.3.2 2.4.2 3.28v3.76H5V6.6h1.81l2.64 7.04-.14-1.6c-.03-.47-.05-1.03-.05-1.67V6.6h1.24v8.28H8.68L6.04 7.84zm11.03 1.43c.5.6.75 1.4.75 2.43 0 1.02-.26 1.84-.76 2.44-.5.6-1.2.9-2.11.9-.91 0-1.62-.3-2.12-.89-.5-.58-.75-1.4-.75-2.44 0-1 .25-1.81.76-2.42a2.6 2.6 0 0 1 2.12-.91c.91 0 1.62.3 2.11.89zm-3.2.71c-.25.38-.37.96-.37 1.73 0 .79.12 1.36.36 1.74.24.37.6.55 1.09.55.49 0 .85-.18 1.09-.56.24-.38.36-.96.36-1.74s-.12-1.35-.36-1.72a1.2 1.2 0 0 0-1.08-.56c-.49 0-.85.19-1.1.56zm11.2-1.44l-.23 2.34h-.96v-1.3c-.44.02-.83.2-1.15.54-.32.34-.58.82-.77 1.45v2.35h1.27v.96h-3.55v-.96h.93V9.5h-.93v-.96h1.95l.24 1.47c.25-.55.55-.95.9-1.22.36-.27.8-.4 1.33-.4.33 0 .65.05.96.15zm7.04.24c.22.28.33.74.33 1.4v4.7h-1.18v-4.52c0-.36-.03-.6-.08-.74-.05-.13-.17-.2-.34-.2-.34 0-.65.21-.94.64v4.82h-1.1v-4.52c0-.36-.02-.6-.07-.74-.05-.13-.17-.2-.34-.2-.34 0-.65.21-.94.64v4.82h-1.2V8.54h1.01l.1.69c.2-.28.4-.5.6-.64.22-.14.46-.21.75-.21.56 0 .92.26 1.08.8.2-.26.4-.45.63-.6.22-.13.48-.2.76-.2.4 0 .7.13.93.4zm6.86 5.09c.07.11.2.2.37.25l-.3.92c-.67-.08-1.1-.38-1.32-.88-.23.29-.52.5-.87.65a2.9 2.9 0 0 1-1.14.23c-.64 0-1.15-.18-1.53-.54a1.89 1.89 0 0 1-.56-1.43c0-.67.26-1.18.79-1.54a3.9 3.9 0 0 1 2.22-.54h.9v-.4c0-.4-.12-.7-.36-.88a1.7 1.7 0 0 0-1.04-.28 6.53 6.53 0 0 0-1.68.32l-.34-.94c.76-.29 1.5-.43 2.22-.43.84 0 1.47.18 1.9.55.42.37.63.89.63 1.57v2.83c0 .24.04.42.11.54zm-2.06-.03c.26-.15.47-.35.62-.6v-1.4h-.74c-.61 0-1.05.1-1.33.3-.28.2-.42.5-.42.88 0 .34.09.6.27.77.18.17.44.26.8.26.27 0 .54-.07.8-.21zm7.09-.69c0 .54.32.8.96.8.32 0 .66-.07 1-.21l.34.94c-.44.24-.98.36-1.63.36a2 2 0 0 1-1.48-.54 1.99 1.99 0 0 1-.53-1.47V6.98h-1.91V6H44v7.15z"/></g></g></svg>