<svg xmlns="http://www.w3.org/2000/svg" width="504" height="100" viewBox="0 0 504 100">
  <g fill="none" fill-rule="evenodd">
    <path fill="#FF0039" fill-rule="nonzero" d="M110,37 C109.447715,37 109,37.4477153 109,38 L109,64 C109,64.5522847 109.447715,65 110,65 L284,65 C284.552285,65 285,64.5522847 285,64 L285,38 C285,37.4477153 284.552285,37 284,37 L110,37 Z M110,36 L284,36 C285.104569,36 286,36.8954305 286,38 L286,64 C286,65.1045695 285.104569,66 284,66 L110,66 C108.895431,66 108,65.1045695 108,64 L108,38 C108,36.8954305 108.895431,36 110,36 Z"/>
    <path fill="#0C0C0D" d="M128.762695 56L128.762695 45.4311523 127.231934 45.4311523 123.61377 54.1762695 123.496582 54.1762695 119.878418 45.4311523 118.347656 45.4311523 118.347656 56 119.578125 56 119.578125 47.9287109 119.666016 47.9287109 122.998535 55.9267578 124.111816 55.9267578 127.444336 47.9287109 127.532227 47.9287109 127.532227 56 128.762695 56zM134.541504 56.1391602C132.292969 56.1391602 130.901367 54.5864258 130.901367 52.0522461 130.901367 49.5107422 132.292969 47.965332 134.541504 47.965332 136.790039 47.965332 138.181641 49.5107422 138.181641 52.0522461 138.181641 54.5864258 136.790039 56.1391602 134.541504 56.1391602zM134.541504 55.0039062C136.035645 55.0039062 136.87793 53.9199219 136.87793 52.0522461 136.87793 50.1772461 136.035645 49.1005859 134.541504 49.1005859 133.047363 49.1005859 132.205078 50.1772461 132.205078 52.0522461 132.205078 53.9199219 133.047363 55.0039062 134.541504 55.0039062zM139.756348 56L145.835449 56 145.835449 54.9453125 141.279785 54.9453125 141.279785 54.828125 145.813477 49.0493164 145.813477 48.1044922 139.763672 48.1044922 139.763672 49.1591797 144.312012 49.1591797 144.312012 49.2763672 139.756348 55.0771484 139.756348 56zM148.054688 56L149.314453 56 149.314453 48.1044922 148.054688 48.1044922 148.054688 56zM148.68457 46.5004883C149.167969 46.5004883 149.563477 46.1049805 149.563477 45.621582 149.563477 45.1381836 149.167969 44.7426758 148.68457 44.7426758 148.201172 44.7426758 147.805664 45.1381836 147.805664 45.621582 147.805664 46.1049805 148.201172 46.5004883 148.68457 46.5004883zM151.790039 56L153.049805 56 153.049805 44.9697266 151.790039 44.9697266 151.790039 56zM155.569336 56L156.829102 56 156.829102 44.9697266 155.569336 44.9697266 155.569336 56zM161.707031 55.0332031C163.003418 55.0332031 163.962891 54.1835938 163.962891 53.0556641L163.962891 52.3305664 161.838867 52.4697266C160.637695 52.550293 160.110352 52.9677734 160.110352 53.7587891 160.110352 54.5644531 160.791504 55.0332031 161.707031 55.0332031zM161.472656 56.1391602C159.941895 56.1391602 158.806641 55.230957 158.806641 53.7880859 158.806641 52.3745117 159.84668 51.5615234 161.685059 51.4516602L163.962891 51.3125 163.962891 50.5947266C163.962891 49.6206055 163.35498 49.0859375 162.175781 49.0859375 161.230957 49.0859375 160.571777 49.4448242 160.395996 50.0673828L159.121582 50.0673828C159.290039 48.800293 160.535156 47.965332 162.219727 47.965332 164.145996 47.965332 165.222656 48.9541016 165.222656 50.5947266L165.222656 56 164.021484 56 164.021484 54.8354492 163.904297 54.8354492C163.391602 55.6777344 162.527344 56.1391602 161.472656 56.1391602zM169.03125 56L169.03125 51.4223633 173.711426 51.4223633 173.711426 50.2504883 169.03125 50.2504883 169.03125 46.6176758 174.128906 46.6176758 174.128906 45.4311523 167.712891 45.4311523 167.712891 56 169.03125 56zM176.165039 56L177.424805 56 177.424805 48.1044922 176.165039 48.1044922 176.165039 56zM176.794922 46.5004883C177.27832 46.5004883 177.673828 46.1049805 177.673828 45.621582 177.673828 45.1381836 177.27832 44.7426758 176.794922 44.7426758 176.311523 44.7426758 175.916016 45.1381836 175.916016 45.621582 175.916016 46.1049805 176.311523 46.5004883 176.794922 46.5004883zM179.827148 56L181.086914 56 181.086914 51.1074219C181.086914 49.9941406 181.958496 49.1884766 183.159668 49.1884766 183.408691 49.1884766 183.862793 49.2324219 183.965332 49.2617188L183.965332 48.0019531C183.804199 47.9799805 183.540527 47.965332 183.335449 47.965332 182.288086 47.965332 181.379883 48.5073242 181.145508 49.2763672L181.02832 49.2763672 181.02832 48.1044922 179.827148 48.1044922 179.827148 56zM114.842773 28.9716797L110.310547 28.9716797 110.310547 25.8232422 114.60791 25.8232422 114.60791 24.8076172 110.310547 24.8076172 110.310547 21.8686523 114.842773 21.8686523 114.842773 20.840332 109.167969 20.840332 109.167969 30 114.842773 30 114.842773 28.9716797zM116.772461 30L117.864258 30 117.864258 25.7597656C117.864258 24.7949219 118.556152 24.0205078 119.451172 24.0205078 120.314453 24.0205078 120.879395 24.5410156 120.879395 25.3535156L120.879395 30 121.971191 30 121.971191 25.6010742C121.971191 24.7314453 122.605957 24.0205078 123.558105 24.0205078 124.522949 24.0205078 124.999023 24.515625 124.999023 25.5249023L124.999023 30 126.09082 30 126.09082 25.2709961C126.09082 23.8364258 125.310059 23.0366211 123.913574 23.0366211 122.967773 23.0366211 122.187012 23.5126953 121.818848 24.2363281L121.717285 24.2363281C121.399902 23.5253906 120.752441 23.0366211 119.825684 23.0366211 118.911621 23.0366211 118.226074 23.4746094 117.915039 24.2363281L117.813477 24.2363281 117.813477 23.1572266 116.772461 23.1572266 116.772461 30zM130.191406 29.1621094C131.314941 29.1621094 132.146484 28.4257812 132.146484 27.4482422L132.146484 26.8198242 130.305664 26.9404297C129.264648 27.0102539 128.807617 27.3720703 128.807617 28.0576172 128.807617 28.7558594 129.397949 29.1621094 130.191406 29.1621094zM129.988281 30.1206055C128.661621 30.1206055 127.677734 29.3334961 127.677734 28.0830078 127.677734 26.8579102 128.579102 26.1533203 130.172363 26.0581055L132.146484 25.9375 132.146484 25.3154297C132.146484 24.4711914 131.619629 24.0078125 130.597656 24.0078125 129.778809 24.0078125 129.20752 24.3188477 129.055176 24.8583984L127.950684 24.8583984C128.09668 23.7602539 129.175781 23.0366211 130.635742 23.0366211 132.305176 23.0366211 133.238281 23.8935547 133.238281 25.3154297L133.238281 30 132.197266 30 132.197266 28.9907227 132.095703 28.9907227C131.651367 29.7207031 130.902344 30.1206055 129.988281 30.1206055zM135.282227 30L136.374023 30 136.374023 23.1572266 135.282227 23.1572266 135.282227 30zM135.828125 21.7670898C136.24707 21.7670898 136.589844 21.4243164 136.589844 21.0053711 136.589844 20.5864258 136.24707 20.2436523 135.828125 20.2436523 135.40918 20.2436523 135.066406 20.5864258 135.066406 21.0053711 135.066406 21.4243164 135.40918 21.7670898 135.828125 21.7670898zM138.519531 30L139.611328 30 139.611328 20.4404297 138.519531 20.4404297 138.519531 30zM147.507812 29.1621094C148.631348 29.1621094 149.462891 28.4257812 149.462891 27.4482422L149.462891 26.8198242 147.62207 26.9404297C146.581055 27.0102539 146.124023 27.3720703 146.124023 28.0576172 146.124023 28.7558594 146.714355 29.1621094 147.507812 29.1621094zM147.304688 30.1206055C145.978027 30.1206055 144.994141 29.3334961 144.994141 28.0830078 144.994141 26.8579102 145.895508 26.1533203 147.48877 26.0581055L149.462891 25.9375 149.462891 25.3154297C149.462891 24.4711914 148.936035 24.0078125 147.914062 24.0078125 147.095215 24.0078125 146.523926 24.3188477 146.371582 24.8583984L145.26709 24.8583984C145.413086 23.7602539 146.492188 23.0366211 147.952148 23.0366211 149.621582 23.0366211 150.554688 23.8935547 150.554688 25.3154297L150.554688 30 149.513672 30 149.513672 28.9907227 149.412109 28.9907227C148.967773 29.7207031 148.21875 30.1206055 147.304688 30.1206055zM155.105957 30.1206055C153.354004 30.1206055 152.230469 28.7304688 152.230469 26.5786133 152.230469 24.4331055 153.366699 23.0366211 155.105957 23.0366211 156.058105 23.0366211 156.864258 23.4873047 157.251465 24.2363281L157.34668 24.2363281 157.34668 20.4404297 158.438477 20.4404297 158.438477 30 157.397461 30 157.397461 28.9082031 157.295898 28.9082031C156.864258 29.6699219 156.051758 30.1206055 155.105957 30.1206055zM155.359863 24.0205078C154.115723 24.0205078 153.360352 24.9853516 153.360352 26.5786133 153.360352 28.1782227 154.109375 29.1367188 155.359863 29.1367188 156.604004 29.1367188 157.37207 28.1591797 157.37207 26.5786133 157.37207 25.0107422 156.597656 24.0205078 155.359863 24.0205078zM163.091309 30.1206055C161.339355 30.1206055 160.21582 28.7304688 160.21582 26.5786133 160.21582 24.4331055 161.352051 23.0366211 163.091309 23.0366211 164.043457 23.0366211 164.849609 23.4873047 165.236816 24.2363281L165.332031 24.2363281 165.332031 20.4404297 166.423828 20.4404297 166.423828 30 165.382812 30 165.382812 28.9082031 165.28125 28.9082031C164.849609 29.6699219 164.037109 30.1206055 163.091309 30.1206055zM163.345215 24.0205078C162.101074 24.0205078 161.345703 24.9853516 161.345703 26.5786133 161.345703 28.1782227 162.094727 29.1367188 163.345215 29.1367188 164.589355 29.1367188 165.357422 28.1591797 165.357422 26.5786133 165.357422 25.0107422 164.583008 24.0205078 163.345215 24.0205078zM168.543945 30L169.635742 30 169.635742 25.7597656C169.635742 24.7949219 170.391113 24.0966797 171.432129 24.0966797 171.647949 24.0966797 172.041504 24.1347656 172.130371 24.1601562L172.130371 23.0683594C171.990723 23.0493164 171.762207 23.0366211 171.584473 23.0366211 170.676758 23.0366211 169.889648 23.5063477 169.686523 24.1728516L169.584961 24.1728516 169.584961 23.1572266 168.543945 23.1572266 168.543945 30zM176.224609 24.0014648C175.132812 24.0014648 174.371094 24.8012695 174.288574 26.0136719L178.059082 26.0136719C178.033691 24.8012695 177.310059 24.0014648 176.224609 24.0014648zM178.027344 28.2290039L179.119141 28.2290039C178.789062 29.4033203 177.735352 30.1206055 176.237305 30.1206055 174.339355 30.1206055 173.152344 28.7495117 173.152344 26.5849609 173.152344 24.4331055 174.358398 23.0366211 176.237305 23.0366211 178.084473 23.0366211 179.208008 24.3505859 179.208008 26.4770508L179.208008 26.8959961 174.288574 26.8959961 174.288574 26.9467773C174.345703 28.2988281 175.101074 29.1557617 176.262695 29.1557617 177.14502 29.1557617 177.741699 28.8320312 178.027344 28.2290039zM180.763184 25.0297852C180.763184 26.0200195 181.347168 26.5722656 182.629395 26.8833008L183.803711 27.1689453C184.533691 27.3466797 184.88916 27.6640625 184.88916 28.1337891 184.88916 28.762207 184.229004 29.2001953 183.308594 29.2001953 182.432617 29.2001953 181.886719 28.8320312 181.702637 28.2543945L180.579102 28.2543945C180.699707 29.390625 181.74707 30.1206055 183.270508 30.1206055 184.825684 30.1206055 186.012695 29.2763672 186.012695 28.0512695 186.012695 27.0673828 185.390625 26.5087891 184.102051 26.1977539L183.04834 25.9438477C182.242188 25.7470703 181.861328 25.4550781 181.861328 24.9853516 181.861328 24.3759766 182.496094 23.9633789 183.308594 23.9633789 184.133789 23.9633789 184.666992 24.3251953 184.812988 24.8710938L185.89209 24.8710938C185.746094 23.7475586 184.749512 23.0366211 183.314941 23.0366211 181.861328 23.0366211 180.763184 23.8935547 180.763184 25.0297852zM187.567871 25.0297852C187.567871 26.0200195 188.151855 26.5722656 189.434082 26.8833008L190.608398 27.1689453C191.338379 27.3466797 191.693848 27.6640625 191.693848 28.1337891 191.693848 28.762207 191.033691 29.2001953 190.113281 29.2001953 189.237305 29.2001953 188.691406 28.8320312 188.507324 28.2543945L187.383789 28.2543945C187.504395 29.390625 188.551758 30.1206055 190.075195 30.1206055 191.630371 30.1206055 192.817383 29.2763672 192.817383 28.0512695 192.817383 27.0673828 192.195312 26.5087891 190.906738 26.1977539L189.853027 25.9438477C189.046875 25.7470703 188.666016 25.4550781 188.666016 24.9853516 188.666016 24.3759766 189.300781 23.9633789 190.113281 23.9633789 190.938477 23.9633789 191.47168 24.3251953 191.617676 24.8710938L192.696777 24.8710938C192.550781 23.7475586 191.554199 23.0366211 190.119629 23.0366211 188.666016 23.0366211 187.567871 23.8935547 187.567871 25.0297852z"/>
    <path fill="#FF0039" d="M112.184082,81 L115.041504,73.2495117 L114.026367,73.2495117 L111.749023,79.7485352 L111.663086,79.7485352 L109.385742,73.2495117 L108.370605,73.2495117 L111.228027,81 L112.184082,81 Z M118.06543,80.2910156 C119.016113,80.2910156 119.719727,79.6679688 119.719727,78.8408203 L119.719727,78.309082 L118.162109,78.4111328 C117.28125,78.4702148 116.894531,78.7763672 116.894531,79.3564453 C116.894531,79.9472656 117.394043,80.2910156 118.06543,80.2910156 Z M117.893555,81.1020508 C116.770996,81.1020508 115.938477,80.4360352 115.938477,79.3779297 C115.938477,78.3413086 116.701172,77.7451172 118.049316,77.6645508 L119.719727,77.5625 L119.719727,77.0361328 C119.719727,76.3217773 119.273926,75.9296875 118.40918,75.9296875 C117.716309,75.9296875 117.23291,76.1928711 117.104004,76.6494141 L116.169434,76.6494141 C116.292969,75.7202148 117.206055,75.1079102 118.441406,75.1079102 C119.854004,75.1079102 120.643555,75.8330078 120.643555,77.0361328 L120.643555,81 L119.762695,81 L119.762695,80.1459961 L119.676758,80.1459961 C119.300781,80.7636719 118.666992,81.1020508 117.893555,81.1020508 Z M122.405273,81 L123.329102,81 L123.329102,72.9111328 L122.405273,72.9111328 L122.405273,81 Z M125.144531,81 L126.068359,81 L126.068359,75.2099609 L125.144531,75.2099609 L125.144531,81 Z M125.606445,74.0336914 C125.960938,74.0336914 126.250977,73.7436523 126.250977,73.3891602 C126.250977,73.034668 125.960938,72.7446289 125.606445,72.7446289 C125.251953,72.7446289 124.961914,73.034668 124.961914,73.3891602 C124.961914,73.7436523 125.251953,74.0336914 125.606445,74.0336914 Z M129.973145,81.1020508 C128.490723,81.1020508 127.540039,79.9257812 127.540039,78.1049805 C127.540039,76.2895508 128.501465,75.1079102 129.973145,75.1079102 C130.778809,75.1079102 131.460938,75.4892578 131.788574,76.1230469 L131.869141,76.1230469 L131.869141,72.9111328 L132.792969,72.9111328 L132.792969,81 L131.912109,81 L131.912109,80.0761719 L131.826172,80.0761719 C131.460938,80.7207031 130.773438,81.1020508 129.973145,81.1020508 Z M130.187988,75.9404297 C129.135254,75.9404297 128.496094,76.7568359 128.496094,78.1049805 C128.496094,79.4584961 129.129883,80.2695312 130.187988,80.2695312 C131.240723,80.2695312 131.890625,79.4423828 131.890625,78.1049805 C131.890625,76.7783203 131.235352,75.9404297 130.187988,75.9404297 Z M140.000977,75.9243164 C139.077148,75.9243164 138.432617,76.6010742 138.362793,77.6269531 L141.553223,77.6269531 C141.531738,76.6010742 140.919434,75.9243164 140.000977,75.9243164 Z M141.526367,79.5014648 L142.450195,79.5014648 C142.170898,80.4951172 141.279297,81.1020508 140.011719,81.1020508 C138.405762,81.1020508 137.401367,79.9418945 137.401367,78.1103516 C137.401367,76.2895508 138.421875,75.1079102 140.011719,75.1079102 C141.574707,75.1079102 142.525391,76.2197266 142.525391,78.019043 L142.525391,78.3735352 L138.362793,78.3735352 L138.362793,78.4165039 C138.411133,79.5605469 139.050293,80.2856445 140.033203,80.2856445 C140.779785,80.2856445 141.284668,80.0117188 141.526367,79.5014648 Z M143.975586,81 L144.899414,81 L144.899414,77.4121094 C144.899414,76.5957031 145.484863,75.9404297 146.242188,75.9404297 C146.972656,75.9404297 147.450684,76.3808594 147.450684,77.0683594 L147.450684,81 L148.374512,81 L148.374512,77.277832 C148.374512,76.5419922 148.911621,75.9404297 149.717285,75.9404297 C150.533691,75.9404297 150.936523,76.359375 150.936523,77.2133789 L150.936523,81 L151.860352,81 L151.860352,76.9985352 C151.860352,75.784668 151.199707,75.1079102 150.018066,75.1079102 C149.217773,75.1079102 148.557129,75.5107422 148.245605,76.1230469 L148.159668,76.1230469 C147.891113,75.5214844 147.343262,75.1079102 146.559082,75.1079102 C145.785645,75.1079102 145.205566,75.4785156 144.942383,76.1230469 L144.856445,76.1230469 L144.856445,75.2099609 L143.975586,75.2099609 L143.975586,81 Z M155.330078,80.2910156 C156.280762,80.2910156 156.984375,79.6679688 156.984375,78.8408203 L156.984375,78.309082 L155.426758,78.4111328 C154.545898,78.4702148 154.15918,78.7763672 154.15918,79.3564453 C154.15918,79.9472656 154.658691,80.2910156 155.330078,80.2910156 Z M155.158203,81.1020508 C154.035645,81.1020508 153.203125,80.4360352 153.203125,79.3779297 C153.203125,78.3413086 153.96582,77.7451172 155.313965,77.6645508 L156.984375,77.5625 L156.984375,77.0361328 C156.984375,76.3217773 156.538574,75.9296875 155.673828,75.9296875 C154.980957,75.9296875 154.497559,76.1928711 154.368652,76.6494141 L153.434082,76.6494141 C153.557617,75.7202148 154.470703,75.1079102 155.706055,75.1079102 C157.118652,75.1079102 157.908203,75.8330078 157.908203,77.0361328 L157.908203,81 L157.027344,81 L157.027344,80.1459961 L156.941406,80.1459961 C156.56543,80.7636719 155.931641,81.1020508 155.158203,81.1020508 Z M159.637695,81 L160.561523,81 L160.561523,75.2099609 L159.637695,75.2099609 L159.637695,81 Z M160.099609,74.0336914 C160.454102,74.0336914 160.744141,73.7436523 160.744141,73.3891602 C160.744141,73.034668 160.454102,72.7446289 160.099609,72.7446289 C159.745117,72.7446289 159.455078,73.034668 159.455078,73.3891602 C159.455078,73.7436523 159.745117,74.0336914 160.099609,74.0336914 Z M162.376953,81 L163.300781,81 L163.300781,72.9111328 L162.376953,72.9111328 L162.376953,81 Z M168.199219,81 L169.123047,81 L169.123047,77.4121094 C169.123047,76.5957031 169.762207,76.0048828 170.643066,76.0048828 C170.825684,76.0048828 171.158691,76.0371094 171.233887,76.0585938 L171.233887,75.1347656 C171.115723,75.1186523 170.922363,75.1079102 170.771973,75.1079102 C170.003906,75.1079102 169.337891,75.5053711 169.166016,76.0693359 L169.080078,76.0693359 L169.080078,75.2099609 L168.199219,75.2099609 L168.199219,81 Z M174.698242,75.9243164 C173.774414,75.9243164 173.129883,76.6010742 173.060059,77.6269531 L176.250488,77.6269531 C176.229004,76.6010742 175.616699,75.9243164 174.698242,75.9243164 Z M176.223633,79.5014648 L177.147461,79.5014648 C176.868164,80.4951172 175.976562,81.1020508 174.708984,81.1020508 C173.103027,81.1020508 172.098633,79.9418945 172.098633,78.1103516 C172.098633,76.2895508 173.119141,75.1079102 174.708984,75.1079102 C176.271973,75.1079102 177.222656,76.2197266 177.222656,78.019043 L177.222656,78.3735352 L173.060059,78.3735352 L173.060059,78.4165039 C173.108398,79.5605469 173.747559,80.2856445 174.730469,80.2856445 C175.477051,80.2856445 175.981934,80.0117188 176.223633,79.5014648 Z M180.805176,75.1079102 C181.594727,75.1079102 182.314453,75.5268555 182.658203,76.1767578 L182.744141,76.1767578 L182.744141,75.2099609 L183.635742,75.2099609 L183.635742,82.9335938 L182.701172,82.9335938 L182.701172,80.1298828 L182.615234,80.1298828 C182.244629,80.7636719 181.621582,81.1020508 180.805176,81.1020508 C179.328125,81.1020508 178.382812,79.9311523 178.382812,78.1049805 C178.382812,76.2895508 179.338867,75.1079102 180.805176,75.1079102 Z M181.014648,80.2695312 C182.072754,80.2695312 182.728027,79.4370117 182.728027,78.1049805 C182.728027,76.7783203 182.067383,75.9404297 181.02002,75.9404297 C179.967285,75.9404297 179.338867,76.7514648 179.338867,78.1049805 C179.338867,79.4638672 179.961914,80.2695312 181.014648,80.2695312 Z M190.05957,75.2099609 L189.135742,75.2099609 L189.135742,78.6367188 C189.135742,79.6518555 188.577148,80.2587891 187.556641,80.2587891 C186.632812,80.2587891 186.246094,79.7753906 186.246094,78.7333984 L186.246094,75.2099609 L185.322266,75.2099609 L185.322266,78.9589844 C185.322266,80.3286133 185.999023,81.1020508 187.298828,81.1020508 C188.185059,81.1020508 188.802734,80.7368164 189.092773,80.0922852 L189.178711,80.0922852 L189.178711,81 L190.05957,81 L190.05957,75.2099609 Z M191.821289,81 L192.745117,81 L192.745117,75.2099609 L191.821289,75.2099609 L191.821289,81 Z M192.283203,74.0336914 C192.637695,74.0336914 192.927734,73.7436523 192.927734,73.3891602 C192.927734,73.034668 192.637695,72.7446289 192.283203,72.7446289 C191.928711,72.7446289 191.638672,73.034668 191.638672,73.3891602 C191.638672,73.7436523 191.928711,74.0336914 192.283203,74.0336914 Z M194.506836,81 L195.430664,81 L195.430664,77.4121094 C195.430664,76.5957031 196.069824,76.0048828 196.950684,76.0048828 C197.133301,76.0048828 197.466309,76.0371094 197.541504,76.0585938 L197.541504,75.1347656 C197.42334,75.1186523 197.22998,75.1079102 197.07959,75.1079102 C196.311523,75.1079102 195.645508,75.5053711 195.473633,76.0693359 L195.387695,76.0693359 L195.387695,75.2099609 L194.506836,75.2099609 L194.506836,81 Z M201.005859,75.9243164 C200.082031,75.9243164 199.4375,76.6010742 199.367676,77.6269531 L202.558105,77.6269531 C202.536621,76.6010742 201.924316,75.9243164 201.005859,75.9243164 Z M202.53125,79.5014648 L203.455078,79.5014648 C203.175781,80.4951172 202.28418,81.1020508 201.016602,81.1020508 C199.410645,81.1020508 198.40625,79.9418945 198.40625,78.1103516 C198.40625,76.2895508 199.426758,75.1079102 201.016602,75.1079102 C202.57959,75.1079102 203.530273,76.2197266 203.530273,78.019043 L203.530273,78.3735352 L199.367676,78.3735352 L199.367676,78.4165039 C199.416016,79.5605469 200.055176,80.2856445 201.038086,80.2856445 C201.784668,80.2856445 202.289551,80.0117188 202.53125,79.5014648 Z M207.123535,81.1020508 C205.641113,81.1020508 204.69043,79.9257812 204.69043,78.1049805 C204.69043,76.2895508 205.651855,75.1079102 207.123535,75.1079102 C207.929199,75.1079102 208.611328,75.4892578 208.938965,76.1230469 L209.019531,76.1230469 L209.019531,72.9111328 L209.943359,72.9111328 L209.943359,81 L209.0625,81 L209.0625,80.0761719 L208.976562,80.0761719 C208.611328,80.7207031 207.923828,81.1020508 207.123535,81.1020508 Z M207.338379,75.9404297 C206.285645,75.9404297 205.646484,76.7568359 205.646484,78.1049805 C205.646484,79.4584961 206.280273,80.2695312 207.338379,80.2695312 C208.391113,80.2695312 209.041016,79.4423828 209.041016,78.1049805 C209.041016,76.7783203 208.385742,75.9404297 207.338379,75.9404297 Z"/>
    <circle cx="270.5" cy="51.5" r="6.5" fill="#797676"/>
    <polygon fill="#FFF" fill-rule="nonzero" points="273 48.222 267.222 54 268 54.778 273.778 49"/>
    <polygon fill="#FFF" fill-rule="nonzero" points="273.778 54 268 48.222 267.222 49 273 54.778"/>
    <g transform="translate(6 39)">
      <rect width="88" height="22" fill="#0A84FF" rx="2"/>
      <polygon fill="#0A84FF" points="84 11 88 7 92 11 88 15"/>
      <text fill="#FFF" font-family="FiraMono-Medium, Fira Mono" font-size="12" font-weight="400" letter-spacing="-1">
        <tspan x="3.2" y="15">Enter Invali</tspan> <tspan x="77.6" y="15">d</tspan>
      </text>
    </g>
    <path fill="#0A84FF" d="M24.71,69.5 C24.71,67.44 25.42,66.34 26.46,65.02 L25.73,64.53 C24.6,65.87 23.55,67.12 23.55,69.5 C23.55,71.88 24.6,73.13 25.73,74.47 L26.46,73.98 C25.42,72.66 24.71,71.55 24.71,69.5 Z M31.01,67.58 C32.55,67.58 33.39,68.67 33.39,70.35 C33.39,72.03 32.53,73.13 31,73.13 C29.46,73.13 28.61,72.07 28.61,70.36 C28.61,68.71 29.47,67.58 31.01,67.58 Z M31.01,68.45 C30.2,68.45 29.79,69.05 29.79,70.36 C29.79,71.67 30.19,72.27 31,72.27 C31.81,72.27 32.21,71.67 32.21,70.35 C32.21,69.05 31.81,68.45 31.01,68.45 Z M37.47,67.58 C38.86,67.58 39.39,68.67 39.39,70.35 C39.39,71.96 38.69,73.13 37.35,73.13 C36.8,73.13 36.35,72.94 36.01,72.55 L36.01,75.03 L34.89,75.16 L34.89,67.72 L35.87,67.72 L35.94,68.4 C36.34,67.86 36.88,67.58 37.47,67.58 Z M37.16,68.44 C36.66,68.44 36.27,68.79 36.01,69.2 L36.01,71.67 C36.27,72.05 36.62,72.26 37.05,72.26 C37.81,72.26 38.21,71.68 38.21,70.36 C38.21,69 37.86,68.44 37.16,68.44 Z M44.9,71.98 C44.63,72.12 44.3,72.22 43.92,72.22 C43.27,72.22 43.01,71.95 43.01,71.39 L43.01,68.54 L44.66,68.54 L44.79,67.72 L43.01,67.72 L43.01,66.41 L41.88,66.54 L41.88,67.72 L40.71,67.72 L40.71,68.54 L41.88,68.54 L41.88,71.4 C41.88,72.44 42.53,73.13 43.76,73.13 C44.35,73.13 44.92,72.97 45.3,72.72 L44.9,71.98 Z M48.99,65.13 C48.56,65.13 48.26,65.44 48.26,65.83 C48.26,66.24 48.56,66.55 48.99,66.55 C49.43,66.55 49.73,66.24 49.73,65.83 C49.73,65.44 49.43,65.13 48.99,65.13 Z M49.78,72.18 L49.78,67.72 L47.12,67.72 L47.12,68.54 L48.65,68.54 L48.65,72.18 L47.07,72.18 L47.07,73 L51.21,73 L51.21,72.18 L49.78,72.18 Z M55.01,67.58 C56.55,67.58 57.39,68.67 57.39,70.35 C57.39,72.03 56.53,73.13 55,73.13 C53.46,73.13 52.61,72.07 52.61,70.36 C52.61,68.71 53.47,67.58 55.01,67.58 Z M55.01,68.45 C54.2,68.45 53.79,69.05 53.79,70.36 C53.79,71.67 54.19,72.27 55,72.27 C55.81,72.27 56.21,71.67 56.21,70.35 C56.21,69.05 55.81,68.45 55.01,68.45 Z M58.89,67.72 L58.89,73 L60.01,73 L60.01,69.22 C60.3,68.82 60.73,68.44 61.25,68.44 C61.88,68.44 62,68.79 62,69.7 L62,73 L63.12,73 L63.12,69.15 C63.12,68.16 62.64,67.58 61.65,67.58 C61.02,67.58 60.38,67.87 59.94,68.4 L59.86,67.72 L58.89,67.72 Z M68.93,69.35 L68.93,71.7 C68.93,72.12 69.05,72.28 69.33,72.37 L69.07,73.13 C68.56,73.07 68.17,72.86 67.98,72.4 C67.59,72.89 66.97,73.13 66.29,73.13 C65.22,73.13 64.56,72.47 64.56,71.49 C64.56,70.38 65.46,69.76 67.07,69.76 L67.82,69.76 L67.82,69.42 C67.82,68.73 67.39,68.46 66.65,68.46 C66.3,68.46 65.78,68.54 65.25,68.73 L64.97,67.94 C65.63,67.69 66.28,67.58 66.82,67.58 C68.24,67.58 68.93,68.24 68.93,69.35 Z M66.63,72.31 C67.09,72.31 67.56,72.06 67.82,71.62 L67.82,70.46 L67.2,70.46 C66.15,70.46 65.74,70.83 65.74,71.45 C65.74,72.01 66.04,72.31 66.63,72.31 Z M73.21,65.6 L70.5,65.6 L70.5,66.42 L72.09,66.42 L72.09,71.46 C72.09,72.5 72.71,73.13 73.77,73.13 C74.36,73.13 74.82,73 75.13,72.83 L74.85,72.05 C74.58,72.15 74.31,72.22 74.01,72.22 C73.54,72.22 73.21,72.04 73.21,71.56 L73.21,65.6 Z M79.29,69.5 C79.29,71.55 78.58,72.66 77.54,73.98 L78.27,74.47 C79.4,73.13 80.45,71.88 80.45,69.5 C80.45,67.12 79.4,65.87 78.27,64.53 L77.54,65.02 C78.58,66.34 79.29,67.44 79.29,69.5 Z"/>
  </g>
</svg>
