<?xml version="1.0" encoding="utf-8"?>
<!-- Generator: Adobe Illustrator 21.1.0, SVG Export Plug-In . SVG Version: 6.00 Build 0)  -->
<svg version="1.1" id="Layer_1" xmlns="http://www.w3.org/2000/svg" xmlns:xlink="http://www.w3.org/1999/xlink" x="0px" y="0px"
	 viewBox="0 0 504 100" style="enable-background:new 0 0 504 100;" xml:space="preserve">
<style type="text/css">
	.st0{fill:#0C0C0D;fill-opacity:0.3;}
	.st1{opacity:0.4;fill:#0C0C0D;enable-background:new    ;}
	.st2{fill:#0C0C0D;}
	.st3{fill:#797676;}
	.st4{fill:#FFFFFF;}
	.st5{fill:#0A84FF;}
	.st6{enable-background:new    ;}
</style>
<g>
	<path class="st0" d="M302,37c-0.6,0-1,0.4-1,1v26c0,0.6,0.4,1,1,1h174c0.6,0,1-0.4,1-1V38c0-0.6-0.4-1-1-1H302z M302,36h174
		c1.1,0,2,0.9,2,2v26c0,1.1-0.9,2-2,2H302c-1.1,0-2-0.9-2-2V38C300,36.9,300.9,36,302,36z"/>
	<path class="st1" d="M314.7,53.7c0.4-0.4,0.4-1,0-1.4l0,0c-0.4-0.4-1-0.4-1.4,0l-5,5c-0.4,0.4-0.4,1,0,1.4l0,0c0.4,0.4,1,0.4,1.4,0
		L314.7,53.7z M318,55c3.3,0,6-2.7,6-6c0-3.3-2.7-6-6-6c-3.3,0-6,2.7-6,6c0,1.6,0.6,3.1,1.8,4.2C314.8,54.4,316.4,55,318,55z
		 M318,53c-1.1,0-2.1-0.4-2.8-1.2c-0.8-0.8-1.2-1.8-1.2-2.8c0-2.2,1.8-4,4-4s4,1.8,4,4C322,51.2,320.2,53,318,53z"/>
	<path class="st2" d="M343.1,48.1h-1.3l-1.6,6.3h-0.1l-1.8-6.3h-1.2l-1.8,6.3h-0.1l-1.6-6.3h-1.3l2.2,7.9h1.3l1.8-6.1h0.1l1.8,6.1
		h1.3L343.1,48.1z M354.7,48.1h-1.3l-1.6,6.3h-0.1l-1.8-6.3h-1.2l-1.8,6.3h-0.1l-1.6-6.3h-1.3l2.2,7.9h1.3l1.8-6.1h0.1l1.8,6.1h1.3
		L354.7,48.1z M366.4,48.1h-1.3l-1.6,6.3h-0.1l-1.8-6.3h-1.2l-1.8,6.3h-0.1l-1.6-6.3h-1.3l2.2,7.9h1.3l1.8-6.1h0.1l1.8,6.1h1.3
		L366.4,48.1z M368,56.1c0.5,0,1-0.4,1-1c0-0.5-0.4-1-1-1c-0.5,0-1,0.4-1,1C367,55.6,367.5,56.1,368,56.1z M371.5,56h1.3v-6.8h1.8
		v-1.1h-1.8v-0.7c0-0.9,0.4-1.3,1.2-1.3c0.2,0,0.5,0,0.7,0.1v-1.1c-0.3-0.1-0.5-0.1-0.8-0.1c-1.5,0-2.4,0.7-2.4,2.3v0.8h-1.3v1.1
		h1.3V56z M376.4,56h1.3v-7.9h-1.3V56z M377,46.5c0.5,0,0.9-0.4,0.9-0.9s-0.4-0.9-0.9-0.9s-0.9,0.4-0.9,0.9S376.6,46.5,377,46.5z
		 M380.1,56h1.3v-4.9c0-1.1,0.9-1.9,2.1-1.9c0.2,0,0.7,0,0.8,0.1V48c-0.2,0-0.4,0-0.6,0c-1,0-2,0.5-2.2,1.3h-0.1v-1.2h-1.2V56z
		 M388.7,49.1c-1.3,0-2.1,0.9-2.2,2.3h4.4C390.8,50,390,49.1,388.7,49.1z M390.8,54h1.3c-0.4,1.4-1.6,2.2-3.3,2.2
		c-2.2,0-3.6-1.6-3.6-4.1c0-2.5,1.4-4.1,3.6-4.1c2.1,0,3.4,1.5,3.4,4v0.5h-5.7v0.1c0.1,1.6,0.9,2.5,2.3,2.5
		C389.8,55,390.5,54.7,390.8,54z M394.7,56h1.3v-6.8h1.8v-1.1h-1.8v-0.7c0-0.9,0.4-1.3,1.2-1.3c0.2,0,0.5,0,0.7,0.1v-1.1
		c-0.3-0.1-0.5-0.1-0.8-0.1c-1.5,0-2.4,0.7-2.4,2.3v0.8h-1.3v1.1h1.3V56z M402.5,56.1c-2.2,0-3.6-1.6-3.6-4.1c0-2.5,1.4-4.1,3.6-4.1
		s3.6,1.5,3.6,4.1C406.1,54.6,404.7,56.1,402.5,56.1z M402.5,55c1.5,0,2.3-1.1,2.3-3c0-1.9-0.8-3-2.3-3s-2.3,1.1-2.3,3
		C400.1,53.9,401,55,402.5,55z"/>
	<circle class="st3" cx="462.5" cy="51.5" r="6.5"/>
	<polygon class="st4" points="465,48.2 459.2,54 460,54.8 465.8,49 	"/>
	<polygon class="st4" points="465.8,54 460,48.2 459.2,49 465,54.8 	"/>
	<path class="st0" d="M110,37c-0.6,0-1,0.4-1,1v26c0,0.6,0.4,1,1,1h174c0.6,0,1-0.4,1-1V38c0-0.6-0.4-1-1-1H110z M110,36h174
		c1.1,0,2,0.9,2,2v26c0,1.1-0.9,2-2,2H110c-1.1,0-2-0.9-2-2V38C108,36.9,108.9,36,110,36z"/>
	<path class="st2" d="M128.8,56V45.4h-1.5l-3.6,8.7h-0.1l-3.6-8.7h-1.5V56h1.2v-8.1h0.1l3.3,8h1.1l3.3-8h0.1V56H128.8z M134.5,56.1
		c-2.2,0-3.6-1.6-3.6-4.1c0-2.5,1.4-4.1,3.6-4.1s3.6,1.5,3.6,4.1C138.2,54.6,136.8,56.1,134.5,56.1z M134.5,55c1.5,0,2.3-1.1,2.3-3
		c0-1.9-0.8-3-2.3-3s-2.3,1.1-2.3,3C132.2,53.9,133,55,134.5,55z M139.8,56h6.1v-1.1h-4.6v-0.1l4.5-5.8v-0.9h-6v1.1h4.5v0.1
		l-4.6,5.8V56z M148.1,56h1.3v-7.9h-1.3V56z M148.7,46.5c0.5,0,0.9-0.4,0.9-0.9s-0.4-0.9-0.9-0.9s-0.9,0.4-0.9,0.9
		S148.2,46.5,148.7,46.5z M151.8,56h1.3V45h-1.3V56z M155.6,56h1.3V45h-1.3V56z M161.7,55c1.3,0,2.3-0.8,2.3-2v-0.7l-2.1,0.1
		c-1.2,0.1-1.7,0.5-1.7,1.3C160.1,54.6,160.8,55,161.7,55z M161.5,56.1c-1.5,0-2.7-0.9-2.7-2.4c0-1.4,1-2.2,2.9-2.3l2.3-0.1v-0.7
		c0-1-0.6-1.5-1.8-1.5c-0.9,0-1.6,0.4-1.8,1h-1.3c0.2-1.3,1.4-2.1,3.1-2.1c1.9,0,3,1,3,2.6V56H164v-1.2h-0.1
		C163.4,55.7,162.5,56.1,161.5,56.1z M169,56v-4.6h4.7v-1.2H169v-3.6h5.1v-1.2h-6.4V56H169z M176.2,56h1.3v-7.9h-1.3V56z
		 M176.8,46.5c0.5,0,0.9-0.4,0.9-0.9s-0.4-0.9-0.9-0.9s-0.9,0.4-0.9,0.9S176.3,46.5,176.8,46.5z M179.8,56h1.3v-4.9
		c0-1.1,0.9-1.9,2.1-1.9c0.2,0,0.7,0,0.8,0.1V48c-0.2,0-0.4,0-0.6,0c-1,0-2,0.5-2.2,1.3H181v-1.2h-1.2V56z M114.8,29h-4.5v-3.1h4.3
		v-1h-4.3v-2.9h4.5v-1h-5.7V30h5.7V29z M116.8,30h1.1v-4.2c0-1,0.7-1.7,1.6-1.7c0.9,0,1.4,0.5,1.4,1.3V30h1.1v-4.4
		c0-0.9,0.6-1.6,1.6-1.6c1,0,1.4,0.5,1.4,1.5V30h1.1v-4.7c0-1.4-0.8-2.2-2.2-2.2c-0.9,0-1.7,0.5-2.1,1.2h-0.1
		c-0.3-0.7-1-1.2-1.9-1.2c-0.9,0-1.6,0.4-1.9,1.2h-0.1v-1.1h-1V30z M130.2,29.2c1.1,0,2-0.7,2-1.7v-0.6l-1.8,0.1
		c-1,0.1-1.5,0.4-1.5,1.1C128.8,28.8,129.4,29.2,130.2,29.2z M130,30.1c-1.3,0-2.3-0.8-2.3-2c0-1.2,0.9-1.9,2.5-2l2-0.1v-0.6
		c0-0.8-0.5-1.3-1.5-1.3c-0.8,0-1.4,0.3-1.5,0.9H128c0.1-1.1,1.2-1.8,2.7-1.8c1.7,0,2.6,0.9,2.6,2.3V30h-1v-1h-0.1
		C131.7,29.7,130.9,30.1,130,30.1z M135.3,30h1.1v-6.8h-1.1V30z M135.8,21.8c0.4,0,0.8-0.3,0.8-0.8s-0.3-0.8-0.8-0.8
		s-0.8,0.3-0.8,0.8S135.4,21.8,135.8,21.8z M138.5,30h1.1v-9.6h-1.1V30z M147.5,29.2c1.1,0,2-0.7,2-1.7v-0.6l-1.8,0.1
		c-1,0.1-1.5,0.4-1.5,1.1C146.1,28.8,146.7,29.2,147.5,29.2z M147.3,30.1c-1.3,0-2.3-0.8-2.3-2c0-1.2,0.9-1.9,2.5-2l2-0.1v-0.6
		c0-0.8-0.5-1.3-1.5-1.3c-0.8,0-1.4,0.3-1.5,0.9h-1.1c0.1-1.1,1.2-1.8,2.7-1.8c1.7,0,2.6,0.9,2.6,2.3V30h-1v-1h-0.1
		C149,29.7,148.2,30.1,147.3,30.1z M155.1,30.1c-1.8,0-2.9-1.4-2.9-3.5c0-2.1,1.1-3.5,2.9-3.5c1,0,1.8,0.5,2.1,1.2h0.1v-3.8h1.1V30
		h-1v-1.1h-0.1C156.9,29.7,156.1,30.1,155.1,30.1z M155.4,24c-1.2,0-2,1-2,2.6c0,1.6,0.7,2.6,2,2.6c1.2,0,2-1,2-2.6
		C157.4,25,156.6,24,155.4,24z M163.1,30.1c-1.8,0-2.9-1.4-2.9-3.5c0-2.1,1.1-3.5,2.9-3.5c1,0,1.8,0.5,2.1,1.2h0.1v-3.8h1.1V30h-1
		v-1.1h-0.1C164.8,29.7,164,30.1,163.1,30.1z M163.3,24c-1.2,0-2,1-2,2.6c0,1.6,0.7,2.6,2,2.6c1.2,0,2-1,2-2.6
		C165.4,25,164.6,24,163.3,24z M168.5,30h1.1v-4.2c0-1,0.8-1.7,1.8-1.7c0.2,0,0.6,0,0.7,0.1v-1.1c-0.1,0-0.4,0-0.5,0
		c-0.9,0-1.7,0.5-1.9,1.1h-0.1v-1h-1V30z M176.2,24c-1.1,0-1.9,0.8-1.9,2h3.8C178,24.8,177.3,24,176.2,24z M178,28.2h1.1
		c-0.3,1.2-1.4,1.9-2.9,1.9c-1.9,0-3.1-1.4-3.1-3.5c0-2.2,1.2-3.5,3.1-3.5c1.8,0,3,1.3,3,3.4v0.4h-4.9v0.1c0.1,1.4,0.8,2.2,2,2.2
		C177.1,29.2,177.7,28.8,178,28.2z M180.8,25c0,1,0.6,1.5,1.9,1.9l1.2,0.3c0.7,0.2,1.1,0.5,1.1,1c0,0.6-0.7,1.1-1.6,1.1
		c-0.9,0-1.4-0.4-1.6-0.9h-1.1c0.1,1.1,1.2,1.9,2.7,1.9c1.6,0,2.7-0.8,2.7-2.1c0-1-0.6-1.5-1.9-1.9l-1.1-0.3c-0.8-0.2-1.2-0.5-1.2-1
		c0-0.6,0.6-1,1.4-1c0.8,0,1.4,0.4,1.5,0.9h1.1c-0.1-1.1-1.1-1.8-2.6-1.8C181.9,23,180.8,23.9,180.8,25z M187.6,25
		c0,1,0.6,1.5,1.9,1.9l1.2,0.3c0.7,0.2,1.1,0.5,1.1,1c0,0.6-0.7,1.1-1.6,1.1c-0.9,0-1.4-0.4-1.6-0.9h-1.1c0.1,1.1,1.2,1.9,2.7,1.9
		c1.6,0,2.7-0.8,2.7-2.1c0-1-0.6-1.5-1.9-1.9l-1.1-0.3c-0.8-0.2-1.2-0.5-1.2-1c0-0.6,0.6-1,1.4-1c0.8,0,1.4,0.4,1.5,0.9h1.1
		c-0.1-1.1-1.1-1.8-2.6-1.8C188.7,23,187.6,23.9,187.6,25z"/>
	<circle class="st3" cx="270.5" cy="51.5" r="6.5"/>
	<polygon class="st4" points="273,48.2 267.2,54 268,54.8 273.8,49 	"/>
	<polygon class="st4" points="273.8,54 268,48.2 267.2,49 273,54.8 	"/>
	<g transform="translate(6 39)">
		<path class="st5" d="M2,0h84c1.1,0,2,0.9,2,2v18c0,1.1-0.9,2-2,2H2c-1.1,0-2-0.9-2-2V2C0,0.9,0.9,0,2,0z"/>
		<polygon class="st5" points="84,11 88,7 92,11 88,15 		"/>
		<g class="st6">
			<path class="st4" d="M7.1,10.3h3v1h-3v2.6h3.7V15h-5V6.7h5l-0.2,1.1H7.1V10.3z"/>
			<path class="st4" d="M12.7,8.7h1.2l0.1,0.8c0.5-0.6,1.3-1,2.1-1c1.2,0,1.8,0.7,1.8,1.9V15h-1.3v-3.9c0-1.1-0.1-1.5-0.9-1.5
				c-0.6,0-1.2,0.4-1.5,0.9V15h-1.3V8.7z"/>
			<path class="st4" d="M23.3,15.2c-1.5,0-2.3-0.8-2.3-2.1V9.7h-1.4v-1h1.4V7.3l1.3-0.2v1.6h2.1l-0.2,1h-2v3.4c0,0.7,0.3,1,1.1,1
				c0.5,0,0.9-0.1,1.2-0.3l0.5,0.9C24.7,15,24,15.2,23.3,15.2z"/>
			<path class="st4" d="M29.9,14.1c0.6,0,1.1-0.2,1.7-0.6l0.6,0.8c-0.6,0.5-1.4,0.8-2.3,0.8c-2,0-3.1-1.3-3.1-3.3
				c0-1.9,1.1-3.3,2.9-3.3c1.7,0,2.7,1.2,2.7,3.2c0,0.2,0,0.4,0,0.6h-4.2C28.3,13.6,29,14.1,29.9,14.1z M28.2,11.4h2.9
				c0-1.2-0.5-1.9-1.4-1.9C28.9,9.5,28.3,10.1,28.2,11.4z"/>
			<path class="st4" d="M39.7,8.7L39.5,11h-1V9.7c-0.9,0-1.5,0.7-1.9,2V14h1.3v1h-3.5v-1h0.9V9.6h-0.9v-1h2l0.2,1.5
				c0.5-1.1,1.1-1.6,2.2-1.6C39.1,8.5,39.4,8.6,39.7,8.7z"/>
			<path class="st4" d="M52,15h-1.6l-2.2-6.3h1.5l1.6,5.2l1.6-5.2h1.4L52,15z"/>
			<path class="st4" d="M61.2,14.2l-0.3,0.9c-0.6-0.1-1.1-0.3-1.3-0.9c-0.5,0.6-1.2,0.9-2,0.9c-1.3,0-2.1-0.8-2.1-2
				c0-1.3,1.1-2.1,3-2.1h0.9v-0.4c0-0.8-0.5-1.2-1.4-1.2c-0.4,0-1,0.1-1.7,0.3L56,8.9c0.8-0.3,1.6-0.4,2.2-0.4
				c1.7,0,2.5,0.8,2.5,2.1v2.8C60.7,13.9,60.9,14.1,61.2,14.2z M59.4,13.4V12h-0.7c-1.3,0-1.8,0.4-1.8,1.2c0,0.7,0.4,1,1.1,1
				C58.5,14.2,59.1,13.9,59.4,13.4z"/>
			<path class="st4" d="M65.8,13.3c0,0.6,0.4,0.8,1,0.8c0.4,0,0.7-0.1,1-0.2l0.3,0.9c-0.4,0.2-0.9,0.4-1.6,0.4c-1.3,0-2-0.8-2-2v-6
				h-1.9v-1h3.3V13.3z"/>
			<path class="st4" d="M73.7,14h1.7v1h-5v-1h1.9V9.7h-1.8v-1h3.2V14z M73.7,6.4c0,0.5-0.4,0.8-0.9,0.8c-0.5,0-0.9-0.4-0.9-0.8
				c0-0.5,0.3-0.9,0.9-0.9C73.3,5.6,73.7,5.9,73.7,6.4z"/>
			<path class="st4" d="M82.5,6.1V15h-1.2l-0.1-0.8c-0.4,0.6-1,0.9-1.8,0.9c-1.6,0-2.4-1.3-2.4-3.3c0-1.9,0.9-3.3,2.5-3.3
				c0.7,0,1.2,0.2,1.6,0.7V6L82.5,6.1z M78.5,11.8c0,1.6,0.5,2.3,1.3,2.3c0.6,0,1-0.4,1.4-0.9v-3c-0.3-0.4-0.7-0.7-1.2-0.7
				C79,9.5,78.5,10.3,78.5,11.8z"/>
		</g>
	</g>
</g>
</svg>
