<svg xmlns="http://www.w3.org/2000/svg" width="504" height="100" viewBox="0 0 504 100">
  <g fill="none" fill-rule="evenodd">
    <path fill="#00BDDF" fill-rule="nonzero" d="M110,37 C109.447715,37 109,37.4477153 109,38 L109,64 C109,64.5522847 109.447715,65 110,65 L284,65 C284.552285,65 285,64.5522847 285,64 L285,38 C285,37.4477153 284.552285,37 284,37 L110,37 Z M110,36 L284,36 C285.104569,36 286,36.8954305 286,38 L286,64 C286,65.1045695 285.104569,66 284,66 L110,66 C108.895431,66 108,65.1045695 108,64 L108,38 C108,36.8954305 108.895431,36 110,36 Z"/>
    <path fill="#B1EDF6" fill-rule="nonzero" d="M110,36 C108.895431,36 108,36.8954305 108,38 L108,64 C108,65.1045695 108.895431,66 110,66 L284,66 C285.104569,66 286,65.1045695 286,64 L286,38 C286,36.8954305 285.104569,36 284,36 L110,36 Z M110,35 L284,35 C285.656854,35 287,36.3431458 287,38 L287,64 C287,65.6568542 285.656854,67 284,67 L110,67 C108.343146,67 107,65.6568542 107,64 L107,38 C107,36.3431458 108.343146,35 110,35 Z"/>
    <path fill="#DFF8FB" fill-rule="nonzero" d="M110,36 C108.895431,36 108,36.8954305 108,38 L108,64 C108,65.1045695 108.895431,66 110,66 L284,66 C285.104569,66 286,65.1045695 286,64 L286,38 C286,36.8954305 285.104569,36 284,36 L110,36 Z M110,33 L284,33 C286.761424,33 289,35.2385763 289,38 L289,64 C289,66.7614237 286.761424,69 284,69 L110,69 C107.238576,69 105,66.7614237 105,64 L105,38 C105,35.2385763 107.238576,33 110,33 Z"/>
    <g font-size="15" transform="translate(116 39)">
      <text fill="#0C0C0D" fill-opacity=".4" font-family="SFUIText-Regular, SF UI Text">
        <tspan x="1" y="17">Firefox@mozilla.com</tspan>
      </text>
      <text fill="#000" font-family="SegoeUI, Segoe UI">
        <tspan x="0" y="16">|</tspan>
      </text>
    </g>
    <path fill="#0C0C0D" d="M114.842773,28.9716797 L110.310547,28.9716797 L110.310547,25.8232422 L114.60791,25.8232422 L114.60791,24.8076172 L110.310547,24.8076172 L110.310547,21.8686523 L114.842773,21.8686523 L114.842773,20.840332 L109.167969,20.840332 L109.167969,30 L114.842773,30 L114.842773,28.9716797 Z M116.772461,30 L117.864258,30 L117.864258,25.7597656 C117.864258,24.7949219 118.556152,24.0205078 119.451172,24.0205078 C120.314453,24.0205078 120.879395,24.5410156 120.879395,25.3535156 L120.879395,30 L121.971191,30 L121.971191,25.6010742 C121.971191,24.7314453 122.605957,24.0205078 123.558105,24.0205078 C124.522949,24.0205078 124.999023,24.515625 124.999023,25.5249023 L124.999023,30 L126.09082,30 L126.09082,25.2709961 C126.09082,23.8364258 125.310059,23.0366211 123.913574,23.0366211 C122.967773,23.0366211 122.187012,23.5126953 121.818848,24.2363281 L121.717285,24.2363281 C121.399902,23.5253906 120.752441,23.0366211 119.825684,23.0366211 C118.911621,23.0366211 118.226074,23.4746094 117.915039,24.2363281 L117.813477,24.2363281 L117.813477,23.1572266 L116.772461,23.1572266 L116.772461,30 Z M130.191406,29.1621094 C131.314941,29.1621094 132.146484,28.4257812 132.146484,27.4482422 L132.146484,26.8198242 L130.305664,26.9404297 C129.264648,27.0102539 128.807617,27.3720703 128.807617,28.0576172 C128.807617,28.7558594 129.397949,29.1621094 130.191406,29.1621094 Z M129.988281,30.1206055 C128.661621,30.1206055 127.677734,29.3334961 127.677734,28.0830078 C127.677734,26.8579102 128.579102,26.1533203 130.172363,26.0581055 L132.146484,25.9375 L132.146484,25.3154297 C132.146484,24.4711914 131.619629,24.0078125 130.597656,24.0078125 C129.778809,24.0078125 129.20752,24.3188477 129.055176,24.8583984 L127.950684,24.8583984 C128.09668,23.7602539 129.175781,23.0366211 130.635742,23.0366211 C132.305176,23.0366211 133.238281,23.8935547 133.238281,25.3154297 L133.238281,30 L132.197266,30 L132.197266,28.9907227 L132.095703,28.9907227 C131.651367,29.7207031 130.902344,30.1206055 129.988281,30.1206055 Z M135.282227,30 L136.374023,30 L136.374023,23.1572266 L135.282227,23.1572266 L135.282227,30 Z M135.828125,21.7670898 C136.24707,21.7670898 136.589844,21.4243164 136.589844,21.0053711 C136.589844,20.5864258 136.24707,20.2436523 135.828125,20.2436523 C135.40918,20.2436523 135.066406,20.5864258 135.066406,21.0053711 C135.066406,21.4243164 135.40918,21.7670898 135.828125,21.7670898 Z M138.519531,30 L139.611328,30 L139.611328,20.4404297 L138.519531,20.4404297 L138.519531,30 Z M147.507812,29.1621094 C148.631348,29.1621094 149.462891,28.4257812 149.462891,27.4482422 L149.462891,26.8198242 L147.62207,26.9404297 C146.581055,27.0102539 146.124023,27.3720703 146.124023,28.0576172 C146.124023,28.7558594 146.714355,29.1621094 147.507812,29.1621094 Z M147.304688,30.1206055 C145.978027,30.1206055 144.994141,29.3334961 144.994141,28.0830078 C144.994141,26.8579102 145.895508,26.1533203 147.48877,26.0581055 L149.462891,25.9375 L149.462891,25.3154297 C149.462891,24.4711914 148.936035,24.0078125 147.914062,24.0078125 C147.095215,24.0078125 146.523926,24.3188477 146.371582,24.8583984 L145.26709,24.8583984 C145.413086,23.7602539 146.492188,23.0366211 147.952148,23.0366211 C149.621582,23.0366211 150.554688,23.8935547 150.554688,25.3154297 L150.554688,30 L149.513672,30 L149.513672,28.9907227 L149.412109,28.9907227 C148.967773,29.7207031 148.21875,30.1206055 147.304688,30.1206055 Z M155.105957,30.1206055 C153.354004,30.1206055 152.230469,28.7304688 152.230469,26.5786133 C152.230469,24.4331055 153.366699,23.0366211 155.105957,23.0366211 C156.058105,23.0366211 156.864258,23.4873047 157.251465,24.2363281 L157.34668,24.2363281 L157.34668,20.4404297 L158.438477,20.4404297 L158.438477,30 L157.397461,30 L157.397461,28.9082031 L157.295898,28.9082031 C156.864258,29.6699219 156.051758,30.1206055 155.105957,30.1206055 Z M155.359863,24.0205078 C154.115723,24.0205078 153.360352,24.9853516 153.360352,26.5786133 C153.360352,28.1782227 154.109375,29.1367188 155.359863,29.1367188 C156.604004,29.1367188 157.37207,28.1591797 157.37207,26.5786133 C157.37207,25.0107422 156.597656,24.0205078 155.359863,24.0205078 Z M163.091309,30.1206055 C161.339355,30.1206055 160.21582,28.7304688 160.21582,26.5786133 C160.21582,24.4331055 161.352051,23.0366211 163.091309,23.0366211 C164.043457,23.0366211 164.849609,23.4873047 165.236816,24.2363281 L165.332031,24.2363281 L165.332031,20.4404297 L166.423828,20.4404297 L166.423828,30 L165.382812,30 L165.382812,28.9082031 L165.28125,28.9082031 C164.849609,29.6699219 164.037109,30.1206055 163.091309,30.1206055 Z M163.345215,24.0205078 C162.101074,24.0205078 161.345703,24.9853516 161.345703,26.5786133 C161.345703,28.1782227 162.094727,29.1367188 163.345215,29.1367188 C164.589355,29.1367188 165.357422,28.1591797 165.357422,26.5786133 C165.357422,25.0107422 164.583008,24.0205078 163.345215,24.0205078 Z M168.543945,30 L169.635742,30 L169.635742,25.7597656 C169.635742,24.7949219 170.391113,24.0966797 171.432129,24.0966797 C171.647949,24.0966797 172.041504,24.1347656 172.130371,24.1601562 L172.130371,23.0683594 C171.990723,23.0493164 171.762207,23.0366211 171.584473,23.0366211 C170.676758,23.0366211 169.889648,23.5063477 169.686523,24.1728516 L169.584961,24.1728516 L169.584961,23.1572266 L168.543945,23.1572266 L168.543945,30 Z M176.224609,24.0014648 C175.132812,24.0014648 174.371094,24.8012695 174.288574,26.0136719 L178.059082,26.0136719 C178.033691,24.8012695 177.310059,24.0014648 176.224609,24.0014648 Z M178.027344,28.2290039 L179.119141,28.2290039 C178.789062,29.4033203 177.735352,30.1206055 176.237305,30.1206055 C174.339355,30.1206055 173.152344,28.7495117 173.152344,26.5849609 C173.152344,24.4331055 174.358398,23.0366211 176.237305,23.0366211 C178.084473,23.0366211 179.208008,24.3505859 179.208008,26.4770508 L179.208008,26.8959961 L174.288574,26.8959961 L174.288574,26.9467773 C174.345703,28.2988281 175.101074,29.1557617 176.262695,29.1557617 C177.14502,29.1557617 177.741699,28.8320312 178.027344,28.2290039 Z M180.763184,25.0297852 C180.763184,26.0200195 181.347168,26.5722656 182.629395,26.8833008 L183.803711,27.1689453 C184.533691,27.3466797 184.88916,27.6640625 184.88916,28.1337891 C184.88916,28.762207 184.229004,29.2001953 183.308594,29.2001953 C182.432617,29.2001953 181.886719,28.8320312 181.702637,28.2543945 L180.579102,28.2543945 C180.699707,29.390625 181.74707,30.1206055 183.270508,30.1206055 C184.825684,30.1206055 186.012695,29.2763672 186.012695,28.0512695 C186.012695,27.0673828 185.390625,26.5087891 184.102051,26.1977539 L183.04834,25.9438477 C182.242188,25.7470703 181.861328,25.4550781 181.861328,24.9853516 C181.861328,24.3759766 182.496094,23.9633789 183.308594,23.9633789 C184.133789,23.9633789 184.666992,24.3251953 184.812988,24.8710938 L185.89209,24.8710938 C185.746094,23.7475586 184.749512,23.0366211 183.314941,23.0366211 C181.861328,23.0366211 180.763184,23.8935547 180.763184,25.0297852 Z M187.567871,25.0297852 C187.567871,26.0200195 188.151855,26.5722656 189.434082,26.8833008 L190.608398,27.1689453 C191.338379,27.3466797 191.693848,27.6640625 191.693848,28.1337891 C191.693848,28.762207 191.033691,29.2001953 190.113281,29.2001953 C189.237305,29.2001953 188.691406,28.8320312 188.507324,28.2543945 L187.383789,28.2543945 C187.504395,29.390625 188.551758,30.1206055 190.075195,30.1206055 C191.630371,30.1206055 192.817383,29.2763672 192.817383,28.0512695 C192.817383,27.0673828 192.195312,26.5087891 190.906738,26.1977539 L189.853027,25.9438477 C189.046875,25.7470703 188.666016,25.4550781 188.666016,24.9853516 C188.666016,24.3759766 189.300781,23.9633789 190.113281,23.9633789 C190.938477,23.9633789 191.47168,24.3251953 191.617676,24.8710938 L192.696777,24.8710938 C192.550781,23.7475586 191.554199,23.0366211 190.119629,23.0366211 C188.666016,23.0366211 187.567871,23.8935547 187.567871,25.0297852 Z"/>
    <path fill="#00BDDF" fill-rule="nonzero" d="M302,37 C301.447715,37 301,37.4477153 301,38 L301,64 C301,64.5522847 301.447715,65 302,65 L476,65 C476.552285,65 477,64.5522847 477,64 L477,38 C477,37.4477153 476.552285,37 476,37 L302,37 Z M302,36 L476,36 C477.104569,36 478,36.8954305 478,38 L478,64 C478,65.1045695 477.104569,66 476,66 L302,66 C300.895431,66 300,65.1045695 300,64 L300,38 C300,36.8954305 300.895431,36 302,36 Z"/>
    <path fill="#B1EDF6" fill-rule="nonzero" d="M302,36 C300.895431,36 300,36.8954305 300,38 L300,64 C300,65.1045695 300.895431,66 302,66 L476,66 C477.104569,66 478,65.1045695 478,64 L478,38 C478,36.8954305 477.104569,36 476,36 L302,36 Z M302,35 L476,35 C477.656854,35 479,36.3431458 479,38 L479,64 C479,65.6568542 477.656854,67 476,67 L302,67 C300.343146,67 299,65.6568542 299,64 L299,38 C299,36.3431458 300.343146,35 302,35 Z"/>
    <path fill="#DFF8FB" fill-rule="nonzero" d="M302,36 C300.895431,36 300,36.8954305 300,38 L300,64 C300,65.1045695 300.895431,66 302,66 L476,66 C477.104569,66 478,65.1045695 478,64 L478,38 C478,36.8954305 477.104569,36 476,36 L302,36 Z M302,33 L476,33 C478.761424,33 481,35.2385763 481,38 L481,64 C481,66.7614237 478.761424,69 476,69 L302,69 C299.238576,69 297,66.7614237 297,64 L297,38 C297,35.2385763 299.238576,33 302,33 Z"/>
    <path fill="#0C0C0D" fill-rule="nonzero" d="M9.30537097,10.7195845 C8.91580555,10.3300191 8.91386021,9.70035412 9.30710716,9.30710716 L9.30710716,9.30710716 C9.69763145,8.91658287 10.3298038,8.9155902 10.7195845,9.30537097 L15.6728044,14.2585908 C16.0623698,14.6481562 16.0643151,15.2778212 15.6710682,15.6710682 L15.6710682,15.6710682 C15.2805439,16.0615925 14.6483716,16.0625852 14.2585908,15.6728044 L9.30537097,10.7195845 Z M6.03796923,12.0379692 C2.72426073,12.0379692 0.0379692297,9.35167773 0.0379692297,6.03796923 C0.0379692297,2.72426073 2.72426073,0.0379692297 6.03796923,0.0379692297 C9.35167773,0.0379692297 12.0379692,2.72426073 12.0379692,6.03796923 C12.0379692,7.62926817 11.4058282,9.15539165 10.2806099,10.2806099 C9.15539165,11.4058282 7.62926817,12.0379692 6.03796923,12.0379692 Z M6.03796923,10.0379692 C7.09883519,10.0379692 8.11625084,9.61654187 8.86639635,8.86639635 C9.61654187,8.11625084 10.0379692,7.09883519 10.0379692,6.03796923 C10.0379692,3.82883023 8.24710823,2.03796923 6.03796923,2.03796923 C3.82883023,2.03796923 2.03796923,3.82883023 2.03796923,6.03796923 C2.03796923,8.24710823 3.82883023,10.0379692 6.03796923,10.0379692 Z" opacity=".4" transform="matrix(-1 0 0 1 324 43)"/>
    <path fill="#0C0C0D" fill-opacity=".4" d="M332.842285,53.2387695 C332.981445,55.0625 334.526855,56.2490234 336.768066,56.2490234 C339.185059,56.2490234 340.71582,55.0112305 340.71582,53.0703125 C340.71582,51.5175781 339.836914,50.6679688 337.646973,50.1186523 L336.541016,49.8256836 C335.083496,49.4521484 334.504883,48.9760742 334.504883,48.1484375 C334.504883,47.0791016 335.435059,46.3759766 336.841309,46.3759766 C338.159668,46.3759766 339.053223,47.0205078 339.236328,48.1044922 L340.562012,48.1044922 C340.452148,46.3979492 338.928711,45.1821289 336.885254,45.1821289 C334.651367,45.1821289 333.149902,46.3979492 333.149902,48.1923828 C333.149902,49.6938477 333.977539,50.5581055 335.88916,51.0415039 L337.244141,51.3930664 C338.70166,51.7592773 339.36084,52.3305664 339.36084,53.2314453 C339.36084,54.2788086 338.313477,55.0478516 336.892578,55.0478516 C335.391113,55.0478516 334.336426,54.3447266 334.175293,53.2387695 L332.842285,53.2387695 Z M345.894043,49.0786133 C344.634277,49.0786133 343.755371,50.0014648 343.660156,51.4003906 L348.010742,51.4003906 C347.981445,50.0014648 347.146484,49.0786133 345.894043,49.0786133 Z M347.974121,53.956543 L349.233887,53.956543 C348.853027,55.3115234 347.637207,56.1391602 345.908691,56.1391602 C343.71875,56.1391602 342.349121,54.5571289 342.349121,52.0595703 C342.349121,49.5766602 343.740723,47.965332 345.908691,47.965332 C348.040039,47.965332 349.336426,49.4814453 349.336426,51.9350586 L349.336426,52.418457 L343.660156,52.418457 L343.660156,52.4770508 C343.726074,54.0371094 344.597656,55.0258789 345.937988,55.0258789 C346.956055,55.0258789 347.644531,54.6523438 347.974121,53.956543 Z M353.745605,55.0332031 C355.041992,55.0332031 356.001465,54.1835938 356.001465,53.0556641 L356.001465,52.3305664 L353.877441,52.4697266 C352.67627,52.550293 352.148926,52.9677734 352.148926,53.7587891 C352.148926,54.5644531 352.830078,55.0332031 353.745605,55.0332031 Z M353.51123,56.1391602 C351.980469,56.1391602 350.845215,55.230957 350.845215,53.7880859 C350.845215,52.3745117 351.885254,51.5615234 353.723633,51.4516602 L356.001465,51.3125 L356.001465,50.5947266 C356.001465,49.6206055 355.393555,49.0859375 354.214355,49.0859375 C353.269531,49.0859375 352.610352,49.4448242 352.43457,50.0673828 L351.160156,50.0673828 C351.328613,48.800293 352.57373,47.965332 354.258301,47.965332 C356.18457,47.965332 357.26123,48.9541016 357.26123,50.5947266 L357.26123,56 L356.060059,56 L356.060059,54.8354492 L355.942871,54.8354492 C355.430176,55.6777344 354.565918,56.1391602 353.51123,56.1391602 Z M359.590332,56 L360.850098,56 L360.850098,51.1074219 C360.850098,49.9941406 361.72168,49.1884766 362.922852,49.1884766 C363.171875,49.1884766 363.625977,49.2324219 363.728516,49.2617188 L363.728516,48.0019531 C363.567383,47.9799805 363.303711,47.965332 363.098633,47.965332 C362.05127,47.965332 361.143066,48.5073242 360.908691,49.2763672 L360.791504,49.2763672 L360.791504,48.1044922 L359.590332,48.1044922 L359.590332,56 Z M371.616699,50.5214844 C371.396973,49.1152344 370.225098,47.965332 368.306152,47.965332 C366.094238,47.965332 364.687988,49.5620117 364.687988,52.0229492 C364.687988,54.5351562 366.101562,56.1391602 368.313477,56.1391602 C370.210449,56.1391602 371.389648,55.0698242 371.616699,53.6196289 L370.342285,53.6196289 C370.10791,54.5131836 369.368164,55.0039062 368.306152,55.0039062 C366.899902,55.0039062 365.991699,53.8466797 365.991699,52.0229492 C365.991699,50.2358398 366.885254,49.1005859 368.306152,49.1005859 C369.441406,49.1005859 370.137207,49.737793 370.342285,50.5214844 L371.616699,50.5214844 Z M373.550293,56 L374.810059,56 L374.810059,51.3271484 C374.810059,49.9941406 375.586426,49.1005859 377,49.1005859 C378.193848,49.1005859 378.82373,49.7963867 378.82373,51.1953125 L378.82373,56 L380.083496,56 L380.083496,50.8876953 C380.083496,49.034668 379.028809,47.965332 377.358887,47.965332 C376.150391,47.965332 375.322754,48.4780273 374.927246,49.3496094 L374.810059,49.3496094 L374.810059,44.9697266 L373.550293,44.9697266 L373.550293,56 Z M392.644531,47.6577148 L392.732422,47.6577148 L395.164062,56 L396.40918,56 L399.287598,45.4311523 L397.910645,45.4311523 L395.808594,54.0224609 L395.720703,54.0224609 L393.35498,45.4311523 L392.021973,45.4311523 L389.65625,54.0224609 L389.568359,54.0224609 L387.466309,45.4311523 L386.089355,45.4311523 L388.967773,56 L390.212891,56 L392.644531,47.6577148 Z M403.550293,49.0786133 C402.290527,49.0786133 401.411621,50.0014648 401.316406,51.4003906 L405.666992,51.4003906 C405.637695,50.0014648 404.802734,49.0786133 403.550293,49.0786133 Z M405.630371,53.956543 L406.890137,53.956543 C406.509277,55.3115234 405.293457,56.1391602 403.564941,56.1391602 C401.375,56.1391602 400.005371,54.5571289 400.005371,52.0595703 C400.005371,49.5766602 401.396973,47.965332 403.564941,47.965332 C405.696289,47.965332 406.992676,49.4814453 406.992676,51.9350586 L406.992676,52.418457 L401.316406,52.418457 L401.316406,52.4770508 C401.382324,54.0371094 402.253906,55.0258789 403.594238,55.0258789 C404.612305,55.0258789 405.300781,54.6523438 405.630371,53.956543 Z M412.895996,56.1391602 C411.797363,56.1391602 410.859863,55.6191406 410.361816,54.7402344 L410.244629,54.7402344 L410.244629,56 L409.043457,56 L409.043457,44.9697266 L410.303223,44.9697266 L410.303223,49.3496094 L410.42041,49.3496094 C410.852539,48.5 411.812012,47.965332 412.895996,47.965332 C414.902832,47.965332 416.206543,49.5693359 416.206543,52.0522461 C416.206543,54.5205078 414.895508,56.1391602 412.895996,56.1391602 Z M412.603027,49.1005859 C411.16748,49.1005859 410.273926,50.2285156 410.273926,52.0522461 C410.273926,53.8759766 411.16748,55.0039062 412.603027,55.0039062 C414.045898,55.0039062 414.902832,53.8979492 414.902832,52.0522461 C414.902832,50.206543 414.045898,49.1005859 412.603027,49.1005859 Z M418.000977,50.2651367 C418.000977,51.4077148 418.674805,52.0449219 420.154297,52.4038086 L421.509277,52.7333984 C422.351562,52.9384766 422.761719,53.3046875 422.761719,53.8466797 C422.761719,54.5717773 422,55.0771484 420.937988,55.0771484 C419.927246,55.0771484 419.297363,54.6523438 419.084961,53.9858398 L417.788574,53.9858398 C417.927734,55.296875 419.13623,56.1391602 420.894043,56.1391602 C422.688477,56.1391602 424.058105,55.1650391 424.058105,53.7514648 C424.058105,52.6162109 423.340332,51.9716797 421.853516,51.612793 L420.637695,51.3198242 C419.70752,51.0927734 419.268066,50.7558594 419.268066,50.2138672 C419.268066,49.5107422 420.000488,49.034668 420.937988,49.034668 C421.890137,49.034668 422.505371,49.4521484 422.673828,50.0820312 L423.918945,50.0820312 C423.750488,48.7856445 422.600586,47.965332 420.945312,47.965332 C419.268066,47.965332 418.000977,48.9541016 418.000977,50.2651367 Z M426.064941,56 L427.324707,56 L427.324707,48.1044922 L426.064941,48.1044922 L426.064941,56 Z M426.694824,46.5004883 C427.178223,46.5004883 427.57373,46.1049805 427.57373,45.621582 C427.57373,45.1381836 427.178223,44.7426758 426.694824,44.7426758 C426.211426,44.7426758 425.815918,45.1381836 425.815918,45.621582 C425.815918,46.1049805 426.211426,46.5004883 426.694824,46.5004883 Z M430.254395,46.0610352 L430.254395,48.1044922 L428.97998,48.1044922 L428.97998,49.1591797 L430.254395,49.1591797 L430.254395,53.9492188 C430.254395,55.4580078 430.90625,56.0585938 432.532227,56.0585938 C432.78125,56.0585938 433.022949,56.0292969 433.271973,55.9853516 L433.271973,54.9233398 C433.037598,54.9453125 432.913086,54.9526367 432.686035,54.9526367 C431.865723,54.9526367 431.51416,54.5571289 431.51416,53.6269531 L431.51416,49.1591797 L433.271973,49.1591797 L433.271973,48.1044922 L431.51416,48.1044922 L431.51416,46.0610352 L430.254395,46.0610352 Z M438.21582,49.0786133 C436.956055,49.0786133 436.077148,50.0014648 435.981934,51.4003906 L440.33252,51.4003906 C440.303223,50.0014648 439.468262,49.0786133 438.21582,49.0786133 Z M440.295898,53.956543 L441.555664,53.956543 C441.174805,55.3115234 439.958984,56.1391602 438.230469,56.1391602 C436.040527,56.1391602 434.670898,54.5571289 434.670898,52.0595703 C434.670898,49.5766602 436.0625,47.965332 438.230469,47.965332 C440.361816,47.965332 441.658203,49.4814453 441.658203,51.9350586 L441.658203,52.418457 L435.981934,52.418457 L435.981934,52.4770508 C436.047852,54.0371094 436.919434,55.0258789 438.259766,55.0258789 C439.277832,55.0258789 439.966309,54.6523438 440.295898,53.956543 Z M443.452637,50.2651367 C443.452637,51.4077148 444.126465,52.0449219 445.605957,52.4038086 L446.960938,52.7333984 C447.803223,52.9384766 448.213379,53.3046875 448.213379,53.8466797 C448.213379,54.5717773 447.45166,55.0771484 446.389648,55.0771484 C445.378906,55.0771484 444.749023,54.6523438 444.536621,53.9858398 L443.240234,53.9858398 C443.379395,55.296875 444.587891,56.1391602 446.345703,56.1391602 C448.140137,56.1391602 449.509766,55.1650391 449.509766,53.7514648 C449.509766,52.6162109 448.791992,51.9716797 447.305176,51.612793 L446.089355,51.3198242 C445.15918,51.0927734 444.719727,50.7558594 444.719727,50.2138672 C444.719727,49.5107422 445.452148,49.034668 446.389648,49.034668 C447.341797,49.034668 447.957031,49.4521484 448.125488,50.0820312 L449.370605,50.0820312 C449.202148,48.7856445 448.052246,47.965332 446.396973,47.965332 C444.719727,47.965332 443.452637,48.9541016 443.452637,50.2651367 Z"/>
    <polygon fill="#000" points="333.344 58.53 332.26 58.53 332.26 43.53 333.344 43.53"/>
    <g transform="translate(8 40)">
      <rect width="86" height="22" fill="#0A84FF" rx="2"/>
      <polygon fill="#0A84FF" points="82 11 86 7 90 11 86 15"/>
      <text fill="#FFF" font-family="FiraMono-Medium, Fira Mono" font-size="12" font-weight="400">
        <tspan x="3.4" y="15">Press/Focus</tspan>
      </text>
    </g>
  </g>
</svg>
