<?xml version="1.0" encoding="utf-8"?>
<!-- Generator: Adobe Illustrator 21.1.0, SVG Export Plug-In . SVG Version: 6.00 Build 0)  -->
<svg version="1.1" id="Layer_1" xmlns="http://www.w3.org/2000/svg" xmlns:xlink="http://www.w3.org/1999/xlink" x="0px" y="0px"
	 viewBox="0 0 504 100" style="enable-background:new 0 0 504 100;" xml:space="preserve">
<style type="text/css">
	.st0{fill:#FF0039;}
	.st1{fill:#0C0C0D;}
	.st2{fill:#797676;}
	.st3{fill:#FFFFFF;}
	.st4{fill:#0A84FF;}
	.st5{enable-background:new    ;}
</style>
<g>
	<path class="st0" d="M110,37c-0.6,0-1,0.4-1,1v26c0,0.6,0.4,1,1,1h174c0.6,0,1-0.4,1-1V38c0-0.6-0.4-1-1-1H110z M110,36h174
		c1.1,0,2,0.9,2,2v26c0,1.1-0.9,2-2,2H110c-1.1,0-2-0.9-2-2V38C108,36.9,108.9,36,110,36z"/>
	<path class="st1" d="M128.8,56V45.4h-1.5l-3.6,8.7h-0.1l-3.6-8.7h-1.5V56h1.2v-8.1h0.1l3.3,8h1.1l3.3-8h0.1V56H128.8z M134.5,56.1
		c-2.2,0-3.6-1.6-3.6-4.1c0-2.5,1.4-4.1,3.6-4.1s3.6,1.5,3.6,4.1C138.2,54.6,136.8,56.1,134.5,56.1z M134.5,55c1.5,0,2.3-1.1,2.3-3
		c0-1.9-0.8-3-2.3-3s-2.3,1.1-2.3,3C132.2,53.9,133,55,134.5,55z M139.8,56h6.1v-1.1h-4.6v-0.1l4.5-5.8v-0.9h-6v1.1h4.5v0.1
		l-4.6,5.8V56z M148.1,56h1.3v-7.9h-1.3V56z M148.7,46.5c0.5,0,0.9-0.4,0.9-0.9s-0.4-0.9-0.9-0.9s-0.9,0.4-0.9,0.9
		S148.2,46.5,148.7,46.5z M151.8,56h1.3V45h-1.3V56z M155.6,56h1.3V45h-1.3V56z M161.7,55c1.3,0,2.3-0.8,2.3-2v-0.7l-2.1,0.1
		c-1.2,0.1-1.7,0.5-1.7,1.3C160.1,54.6,160.8,55,161.7,55z M161.5,56.1c-1.5,0-2.7-0.9-2.7-2.4c0-1.4,1-2.2,2.9-2.3l2.3-0.1v-0.7
		c0-1-0.6-1.5-1.8-1.5c-0.9,0-1.6,0.4-1.8,1h-1.3c0.2-1.3,1.4-2.1,3.1-2.1c1.9,0,3,1,3,2.6V56H164v-1.2h-0.1
		C163.4,55.7,162.5,56.1,161.5,56.1z M169,56v-4.6h4.7v-1.2H169v-3.6h5.1v-1.2h-6.4V56H169z M176.2,56h1.3v-7.9h-1.3V56z
		 M176.8,46.5c0.5,0,0.9-0.4,0.9-0.9s-0.4-0.9-0.9-0.9s-0.9,0.4-0.9,0.9S176.3,46.5,176.8,46.5z M179.8,56h1.3v-4.9
		c0-1.1,0.9-1.9,2.1-1.9c0.2,0,0.7,0,0.8,0.1V48c-0.2,0-0.4,0-0.6,0c-1,0-2,0.5-2.2,1.3H181v-1.2h-1.2V56z M114.8,29h-4.5v-3.1h4.3
		v-1h-4.3v-2.9h4.5v-1h-5.7V30h5.7V29z M116.8,30h1.1v-4.2c0-1,0.7-1.7,1.6-1.7c0.9,0,1.4,0.5,1.4,1.3V30h1.1v-4.4
		c0-0.9,0.6-1.6,1.6-1.6c1,0,1.4,0.5,1.4,1.5V30h1.1v-4.7c0-1.4-0.8-2.2-2.2-2.2c-0.9,0-1.7,0.5-2.1,1.2h-0.1
		c-0.3-0.7-1-1.2-1.9-1.2c-0.9,0-1.6,0.4-1.9,1.2h-0.1v-1.1h-1V30z M130.2,29.2c1.1,0,2-0.7,2-1.7v-0.6l-1.8,0.1
		c-1,0.1-1.5,0.4-1.5,1.1C128.8,28.8,129.4,29.2,130.2,29.2z M130,30.1c-1.3,0-2.3-0.8-2.3-2c0-1.2,0.9-1.9,2.5-2l2-0.1v-0.6
		c0-0.8-0.5-1.3-1.5-1.3c-0.8,0-1.4,0.3-1.5,0.9H128c0.1-1.1,1.2-1.8,2.7-1.8c1.7,0,2.6,0.9,2.6,2.3V30h-1v-1h-0.1
		C131.7,29.7,130.9,30.1,130,30.1z M135.3,30h1.1v-6.8h-1.1V30z M135.8,21.8c0.4,0,0.8-0.3,0.8-0.8s-0.3-0.8-0.8-0.8
		s-0.8,0.3-0.8,0.8S135.4,21.8,135.8,21.8z M138.5,30h1.1v-9.6h-1.1V30z M147.5,29.2c1.1,0,2-0.7,2-1.7v-0.6l-1.8,0.1
		c-1,0.1-1.5,0.4-1.5,1.1C146.1,28.8,146.7,29.2,147.5,29.2z M147.3,30.1c-1.3,0-2.3-0.8-2.3-2c0-1.2,0.9-1.9,2.5-2l2-0.1v-0.6
		c0-0.8-0.5-1.3-1.5-1.3c-0.8,0-1.4,0.3-1.5,0.9h-1.1c0.1-1.1,1.2-1.8,2.7-1.8c1.7,0,2.6,0.9,2.6,2.3V30h-1v-1h-0.1
		C149,29.7,148.2,30.1,147.3,30.1z M155.1,30.1c-1.8,0-2.9-1.4-2.9-3.5c0-2.1,1.1-3.5,2.9-3.5c1,0,1.8,0.5,2.1,1.2h0.1v-3.8h1.1V30
		h-1v-1.1h-0.1C156.9,29.7,156.1,30.1,155.1,30.1z M155.4,24c-1.2,0-2,1-2,2.6c0,1.6,0.7,2.6,2,2.6c1.2,0,2-1,2-2.6
		C157.4,25,156.6,24,155.4,24z M163.1,30.1c-1.8,0-2.9-1.4-2.9-3.5c0-2.1,1.1-3.5,2.9-3.5c1,0,1.8,0.5,2.1,1.2h0.1v-3.8h1.1V30h-1
		v-1.1h-0.1C164.8,29.7,164,30.1,163.1,30.1z M163.3,24c-1.2,0-2,1-2,2.6c0,1.6,0.7,2.6,2,2.6c1.2,0,2-1,2-2.6
		C165.4,25,164.6,24,163.3,24z M168.5,30h1.1v-4.2c0-1,0.8-1.7,1.8-1.7c0.2,0,0.6,0,0.7,0.1v-1.1c-0.1,0-0.4,0-0.5,0
		c-0.9,0-1.7,0.5-1.9,1.1h-0.1v-1h-1V30z M176.2,24c-1.1,0-1.9,0.8-1.9,2h3.8C178,24.8,177.3,24,176.2,24z M178,28.2h1.1
		c-0.3,1.2-1.4,1.9-2.9,1.9c-1.9,0-3.1-1.4-3.1-3.5c0-2.2,1.2-3.5,3.1-3.5c1.8,0,3,1.3,3,3.4v0.4h-4.9v0.1c0.1,1.4,0.8,2.2,2,2.2
		C177.1,29.2,177.7,28.8,178,28.2z M180.8,25c0,1,0.6,1.5,1.9,1.9l1.2,0.3c0.7,0.2,1.1,0.5,1.1,1c0,0.6-0.7,1.1-1.6,1.1
		c-0.9,0-1.4-0.4-1.6-0.9h-1.1c0.1,1.1,1.2,1.9,2.7,1.9c1.6,0,2.7-0.8,2.7-2.1c0-1-0.6-1.5-1.9-1.9l-1.1-0.3c-0.8-0.2-1.2-0.5-1.2-1
		c0-0.6,0.6-1,1.4-1c0.8,0,1.4,0.4,1.5,0.9h1.1c-0.1-1.1-1.1-1.8-2.6-1.8C181.9,23,180.8,23.9,180.8,25z M187.6,25
		c0,1,0.6,1.5,1.9,1.9l1.2,0.3c0.7,0.2,1.1,0.5,1.1,1c0,0.6-0.7,1.1-1.6,1.1c-0.9,0-1.4-0.4-1.6-0.9h-1.1c0.1,1.1,1.2,1.9,2.7,1.9
		c1.6,0,2.7-0.8,2.7-2.1c0-1-0.6-1.5-1.9-1.9l-1.1-0.3c-0.8-0.2-1.2-0.5-1.2-1c0-0.6,0.6-1,1.4-1c0.8,0,1.4,0.4,1.5,0.9h1.1
		c-0.1-1.1-1.1-1.8-2.6-1.8C188.7,23,187.6,23.9,187.6,25z"/>
	<path class="st0" d="M112.2,81l2.9-7.8h-1l-2.3,6.5h-0.1l-2.3-6.5h-1l2.9,7.8H112.2z M118.1,80.3c1,0,1.7-0.6,1.7-1.5v-0.5
		l-1.6,0.1c-0.9,0.1-1.3,0.4-1.3,0.9C116.9,79.9,117.4,80.3,118.1,80.3z M117.9,81.1c-1.1,0-2-0.7-2-1.7c0-1,0.8-1.6,2.1-1.7
		l1.7-0.1V77c0-0.7-0.4-1.1-1.3-1.1c-0.7,0-1.2,0.3-1.3,0.7h-0.9c0.1-0.9,1-1.5,2.3-1.5c1.4,0,2.2,0.7,2.2,1.9v4h-0.9v-0.9h-0.1
		C119.3,80.8,118.7,81.1,117.9,81.1z M122.4,81h0.9v-8.1h-0.9V81z M125.1,81h0.9v-5.8h-0.9V81z M125.6,74c0.4,0,0.6-0.3,0.6-0.6
		s-0.3-0.6-0.6-0.6S125,73,125,73.4S125.3,74,125.6,74z M130,81.1c-1.5,0-2.4-1.2-2.4-3c0-1.8,1-3,2.4-3c0.8,0,1.5,0.4,1.8,1h0.1
		v-3.2h0.9V81h-0.9v-0.9h-0.1C131.5,80.7,130.8,81.1,130,81.1z M130.2,75.9c-1.1,0-1.7,0.8-1.7,2.2c0,1.4,0.6,2.2,1.7,2.2
		c1.1,0,1.7-0.8,1.7-2.2C131.9,76.8,131.2,75.9,130.2,75.9z M140,75.9c-0.9,0-1.6,0.7-1.6,1.7h3.2C141.5,76.6,140.9,75.9,140,75.9z
		 M141.5,79.5h0.9c-0.3,1-1.2,1.6-2.4,1.6c-1.6,0-2.6-1.2-2.6-3c0-1.8,1-3,2.6-3c1.6,0,2.5,1.1,2.5,2.9v0.4h-4.2v0
		c0,1.1,0.7,1.9,1.7,1.9C140.8,80.3,141.3,80,141.5,79.5z M144,81h0.9v-3.6c0-0.8,0.6-1.5,1.3-1.5c0.7,0,1.2,0.4,1.2,1.1V81h0.9
		v-3.7c0-0.7,0.5-1.3,1.3-1.3c0.8,0,1.2,0.4,1.2,1.3V81h0.9v-4c0-1.2-0.7-1.9-1.8-1.9c-0.8,0-1.5,0.4-1.8,1h-0.1
		c-0.3-0.6-0.8-1-1.6-1c-0.8,0-1.4,0.4-1.6,1h-0.1v-0.9H144V81z M155.3,80.3c1,0,1.7-0.6,1.7-1.5v-0.5l-1.6,0.1
		c-0.9,0.1-1.3,0.4-1.3,0.9C154.2,79.9,154.7,80.3,155.3,80.3z M155.2,81.1c-1.1,0-2-0.7-2-1.7c0-1,0.8-1.6,2.1-1.7l1.7-0.1V77
		c0-0.7-0.4-1.1-1.3-1.1c-0.7,0-1.2,0.3-1.3,0.7h-0.9c0.1-0.9,1-1.5,2.3-1.5c1.4,0,2.2,0.7,2.2,1.9v4H157v-0.9h-0.1
		C156.6,80.8,155.9,81.1,155.2,81.1z M159.6,81h0.9v-5.8h-0.9V81z M160.1,74c0.4,0,0.6-0.3,0.6-0.6s-0.3-0.6-0.6-0.6
		s-0.6,0.3-0.6,0.6S159.7,74,160.1,74z M162.4,81h0.9v-8.1h-0.9V81z M168.2,81h0.9v-3.6c0-0.8,0.6-1.4,1.5-1.4c0.2,0,0.5,0,0.6,0.1
		v-0.9c-0.1,0-0.3,0-0.5,0c-0.8,0-1.4,0.4-1.6,1h-0.1v-0.9h-0.9V81z M174.7,75.9c-0.9,0-1.6,0.7-1.6,1.7h3.2
		C176.2,76.6,175.6,75.9,174.7,75.9z M176.2,79.5h0.9c-0.3,1-1.2,1.6-2.4,1.6c-1.6,0-2.6-1.2-2.6-3c0-1.8,1-3,2.6-3
		c1.6,0,2.5,1.1,2.5,2.9v0.4h-4.2v0c0,1.1,0.7,1.9,1.7,1.9C175.5,80.3,176,80,176.2,79.5z M180.8,75.1c0.8,0,1.5,0.4,1.9,1.1h0.1v-1
		h0.9v7.7h-0.9v-2.8h-0.1c-0.4,0.6-1,1-1.8,1c-1.5,0-2.4-1.2-2.4-3C178.4,76.3,179.3,75.1,180.8,75.1z M181,80.3
		c1.1,0,1.7-0.8,1.7-2.2c0-1.3-0.7-2.2-1.7-2.2c-1.1,0-1.7,0.8-1.7,2.2C179.3,79.5,180,80.3,181,80.3z M190.1,75.2h-0.9v3.4
		c0,1-0.6,1.6-1.6,1.6c-0.9,0-1.3-0.5-1.3-1.5v-3.5h-0.9V79c0,1.4,0.7,2.1,2,2.1c0.9,0,1.5-0.4,1.8-1h0.1V81h0.9V75.2z M191.8,81
		h0.9v-5.8h-0.9V81z M192.3,74c0.4,0,0.6-0.3,0.6-0.6s-0.3-0.6-0.6-0.6s-0.6,0.3-0.6,0.6S191.9,74,192.3,74z M194.5,81h0.9v-3.6
		c0-0.8,0.6-1.4,1.5-1.4c0.2,0,0.5,0,0.6,0.1v-0.9c-0.1,0-0.3,0-0.5,0c-0.8,0-1.4,0.4-1.6,1h-0.1v-0.9h-0.9V81z M201,75.9
		c-0.9,0-1.6,0.7-1.6,1.7h3.2C202.5,76.6,201.9,75.9,201,75.9z M202.5,79.5h0.9c-0.3,1-1.2,1.6-2.4,1.6c-1.6,0-2.6-1.2-2.6-3
		c0-1.8,1-3,2.6-3c1.6,0,2.5,1.1,2.5,2.9v0.4h-4.2v0c0,1.1,0.7,1.9,1.7,1.9C201.8,80.3,202.3,80,202.5,79.5z M207.1,81.1
		c-1.5,0-2.4-1.2-2.4-3c0-1.8,1-3,2.4-3c0.8,0,1.5,0.4,1.8,1h0.1v-3.2h0.9V81h-0.9v-0.9H209C208.6,80.7,207.9,81.1,207.1,81.1z
		 M207.3,75.9c-1.1,0-1.7,0.8-1.7,2.2c0,1.4,0.6,2.2,1.7,2.2c1.1,0,1.7-0.8,1.7-2.2C209,76.8,208.4,75.9,207.3,75.9z"/>
	<circle class="st2" cx="270.5" cy="51.5" r="6.5"/>
	<polygon class="st3" points="273,48.2 267.2,54 268,54.8 273.8,49 	"/>
	<polygon class="st3" points="273.8,54 268,48.2 267.2,49 273,54.8 	"/>
	<g transform="translate(6 39)">
		<path class="st4" d="M2,0h84c1.1,0,2,0.9,2,2v18c0,1.1-0.9,2-2,2H2c-1.1,0-2-0.9-2-2V2C0,0.9,0.9,0,2,0z"/>
		<polygon class="st4" points="84,11 88,7 92,11 88,15 		"/>
		<g class="st5">
			<path class="st3" d="M5.9,10.3h3v1h-3v2.6h3.7V15h-5V6.7h5L9.4,7.8H5.9V10.3z"/>
			<path class="st3" d="M10.5,8.7h1.2l0.1,0.8c0.5-0.6,1.3-1,2.1-1c1.2,0,1.8,0.7,1.8,1.9V15h-1.3v-3.9c0-1.1-0.1-1.5-0.9-1.5
				c-0.6,0-1.2,0.4-1.5,0.9V15h-1.3V8.7z"/>
			<path class="st3" d="M20.1,15.2c-1.5,0-2.3-0.8-2.3-2.1V9.7h-1.4v-1h1.4V7.3l1.3-0.2v1.6h2.1l-0.2,1h-2v3.4c0,0.7,0.3,1,1.1,1
				c0.5,0,0.9-0.1,1.2-0.3l0.5,0.9C21.5,15,20.8,15.2,20.1,15.2z"/>
			<path class="st3" d="M25.7,14.1c0.6,0,1.1-0.2,1.7-0.6l0.6,0.8c-0.6,0.5-1.4,0.8-2.3,0.8c-2,0-3.1-1.3-3.1-3.3
				c0-1.9,1.1-3.3,2.9-3.3c1.7,0,2.7,1.2,2.7,3.2c0,0.2,0,0.4,0,0.6H24C24.1,13.6,24.8,14.1,25.7,14.1z M24,11.4h2.9
				c0-1.2-0.5-1.9-1.4-1.9C24.7,9.5,24.1,10.1,24,11.4z"/>
			<path class="st3" d="M34.5,8.7L34.3,11h-1V9.7c-0.9,0-1.5,0.7-1.9,2V14h1.3v1h-3.5v-1h0.9V9.6h-0.9v-1h2l0.2,1.5
				c0.5-1.1,1.1-1.6,2.2-1.6C34,8.5,34.2,8.6,34.5,8.7z"/>
			<path class="st3" d="M46.5,7.8h-1.8v6.2h1.8V15h-5v-1.1h1.8V7.8h-1.8V6.7h5V7.8z"/>
			<path class="st3" d="M47.7,8.7h1.2L49,9.5c0.5-0.6,1.3-1,2.1-1c1.2,0,1.8,0.7,1.8,1.9V15h-1.3v-3.9c0-1.1-0.1-1.5-0.9-1.5
				c-0.6,0-1.2,0.4-1.5,0.9V15h-1.3V8.7z"/>
			<path class="st3" d="M57.2,15h-1.6l-2.2-6.3h1.5l1.6,5.2l1.6-5.2h1.4L57.2,15z"/>
			<path class="st3" d="M65.4,14.2l-0.3,0.9c-0.6-0.1-1.1-0.3-1.3-0.9c-0.5,0.6-1.2,0.9-2,0.9c-1.3,0-2.1-0.8-2.1-2
				c0-1.3,1.1-2.1,3-2.1h0.9v-0.4c0-0.8-0.5-1.2-1.4-1.2c-0.4,0-1,0.1-1.7,0.3l-0.3-0.9c0.8-0.3,1.6-0.4,2.2-0.4
				c1.7,0,2.5,0.8,2.5,2.1v2.8C64.9,13.9,65.1,14.1,65.4,14.2z M63.6,13.4V12h-0.7c-1.3,0-1.8,0.4-1.8,1.2c0,0.7,0.4,1,1.1,1
				C62.7,14.2,63.3,13.9,63.6,13.4z"/>
			<path class="st3" d="M69.1,13.3c0,0.6,0.4,0.8,1,0.8c0.4,0,0.7-0.1,1-0.2l0.3,0.9c-0.4,0.2-0.9,0.4-1.6,0.4c-1.3,0-2-0.8-2-2v-6
				h-1.9v-1h3.3V13.3z"/>
			<path class="st3" d="M76,14h1.7v1h-5v-1h1.9V9.7h-1.8v-1H76V14z M75.9,6.4c0,0.5-0.4,0.8-0.9,0.8c-0.5,0-0.9-0.4-0.9-0.8
				c0-0.5,0.3-0.9,0.9-0.9C75.6,5.6,75.9,5.9,75.9,6.4z"/>
		</g>
		<g class="st5">
			<path class="st3" d="M83.7,6.1V15h-1.2l-0.1-0.8c-0.4,0.6-1,0.9-1.8,0.9c-1.6,0-2.4-1.3-2.4-3.3c0-1.9,0.9-3.3,2.5-3.3
				c0.7,0,1.2,0.2,1.6,0.7V6L83.7,6.1z M79.7,11.8c0,1.6,0.5,2.3,1.3,2.3c0.6,0,1-0.4,1.4-0.9v-3c-0.3-0.4-0.7-0.7-1.2-0.7
				C80.2,9.5,79.7,10.3,79.7,11.8z"/>
		</g>
	</g>
	<path class="st4" d="M24.7,69.5c0-2.1,0.7-3.2,1.8-4.5l-0.7-0.5c-1.1,1.3-2.2,2.6-2.2,5s1.1,3.6,2.2,5l0.7-0.5
		C25.4,72.7,24.7,71.6,24.7,69.5z M31,67.6c1.5,0,2.4,1.1,2.4,2.8s-0.9,2.8-2.4,2.8c-1.5,0-2.4-1.1-2.4-2.8
		C28.6,68.7,29.5,67.6,31,67.6z M31,68.4c-0.8,0-1.2,0.6-1.2,1.9s0.4,1.9,1.2,1.9s1.2-0.6,1.2-1.9C32.2,69.1,31.8,68.4,31,68.4z
		 M37.5,67.6c1.4,0,1.9,1.1,1.9,2.8c0,1.6-0.7,2.8-2,2.8c-0.5,0-1-0.2-1.3-0.6V75l-1.1,0.1v-7.4h1l0.1,0.7
		C36.3,67.9,36.9,67.6,37.5,67.6z M37.2,68.4c-0.5,0-0.9,0.3-1.2,0.8v2.5c0.3,0.4,0.6,0.6,1,0.6c0.8,0,1.2-0.6,1.2-1.9
		C38.2,69,37.9,68.4,37.2,68.4z M44.9,72c-0.3,0.1-0.6,0.2-1,0.2c-0.6,0-0.9-0.3-0.9-0.8v-2.8h1.7l0.1-0.8H43v-1.3l-1.1,0.1v1.2
		h-1.2v0.8h1.2v2.9c0,1,0.6,1.7,1.9,1.7c0.6,0,1.2-0.2,1.5-0.4L44.9,72z M49,65.1c-0.4,0-0.7,0.3-0.7,0.7c0,0.4,0.3,0.7,0.7,0.7
		c0.4,0,0.7-0.3,0.7-0.7C49.7,65.4,49.4,65.1,49,65.1z M49.8,72.2v-4.5h-2.7v0.8h1.5v3.6h-1.6V73h4.1v-0.8H49.8z M55,67.6
		c1.5,0,2.4,1.1,2.4,2.8s-0.9,2.8-2.4,2.8c-1.5,0-2.4-1.1-2.4-2.8C52.6,68.7,53.5,67.6,55,67.6z M55,68.4c-0.8,0-1.2,0.6-1.2,1.9
		s0.4,1.9,1.2,1.9s1.2-0.6,1.2-1.9C56.2,69.1,55.8,68.4,55,68.4z M58.9,67.7V73H60v-3.8c0.3-0.4,0.7-0.8,1.2-0.8
		c0.6,0,0.8,0.3,0.8,1.3V73h1.1v-3.8c0-1-0.5-1.6-1.5-1.6c-0.6,0-1.3,0.3-1.7,0.8l-0.1-0.7H58.9z M68.9,69.3v2.3
		c0,0.4,0.1,0.6,0.4,0.7l-0.3,0.8c-0.5-0.1-0.9-0.3-1.1-0.7c-0.4,0.5-1,0.7-1.7,0.7c-1.1,0-1.7-0.7-1.7-1.6c0-1.1,0.9-1.7,2.5-1.7
		h0.8v-0.3c0-0.7-0.4-1-1.2-1c-0.3,0-0.9,0.1-1.4,0.3L65,67.9c0.7-0.2,1.3-0.4,1.8-0.4C68.2,67.6,68.9,68.2,68.9,69.3z M66.6,72.3
		c0.5,0,0.9-0.2,1.2-0.7v-1.2h-0.6c-1,0-1.5,0.4-1.5,1C65.7,72,66,72.3,66.6,72.3z M73.2,65.6h-2.7v0.8h1.6v5c0,1,0.6,1.7,1.7,1.7
		c0.6,0,1.1-0.1,1.4-0.3l-0.3-0.8c-0.3,0.1-0.5,0.2-0.8,0.2c-0.5,0-0.8-0.2-0.8-0.7V65.6z M79.3,69.5c0,2.1-0.7,3.2-1.8,4.5l0.7,0.5
		c1.1-1.3,2.2-2.6,2.2-5s-1-3.6-2.2-5L77.5,65C78.6,66.3,79.3,67.4,79.3,69.5z"/>
</g>
</svg>
