<?xml version="1.0" encoding="utf-8"?>
<!-- Generator: Adobe Illustrator 21.1.0, SVG Export Plug-In . SVG Version: 6.00 Build 0)  -->
<svg version="1.1" id="Layer_1" xmlns="http://www.w3.org/2000/svg" xmlns:xlink="http://www.w3.org/1999/xlink" x="0px" y="0px"
	 viewBox="0 0 504 100" style="enable-background:new 0 0 504 100;" xml:space="preserve">
<style type="text/css">
	.st0{fill:#00BDDF;}
	.st1{fill:#B1EDF6;}
	.st2{fill:#DFF8FB;}
	.st3{enable-background:new    ;}
	.st4{fill:#0C0C0D;}
	.st5{opacity:0.4;fill:#0C0C0D;enable-background:new    ;}
	.st6{fill:#0C0C0D;fill-opacity:0.4;}
	.st7{fill:#0A84FF;}
	.st8{fill:#FFFFFF;}
</style>
<g>
	<path class="st0" d="M110,37c-0.6,0-1,0.4-1,1v26c0,0.6,0.4,1,1,1h174c0.6,0,1-0.4,1-1V38c0-0.6-0.4-1-1-1H110z M110,36h174
		c1.1,0,2,0.9,2,2v26c0,1.1-0.9,2-2,2H110c-1.1,0-2-0.9-2-2V38C108,36.9,108.9,36,110,36z"/>
	<path class="st1" d="M110,36c-1.1,0-2,0.9-2,2v26c0,1.1,0.9,2,2,2h174c1.1,0,2-0.9,2-2V38c0-1.1-0.9-2-2-2H110z M110,35h174
		c1.7,0,3,1.3,3,3v26c0,1.7-1.3,3-3,3H110c-1.7,0-3-1.3-3-3V38C107,36.3,108.3,35,110,35z"/>
	<path class="st2" d="M110,36c-1.1,0-2,0.9-2,2v26c0,1.1,0.9,2,2,2h174c1.1,0,2-0.9,2-2V38c0-1.1-0.9-2-2-2H110z M110,33h174
		c2.8,0,5,2.2,5,5v26c0,2.8-2.2,5-5,5H110c-2.8,0-5-2.2-5-5V38C105,35.2,107.2,33,110,33z"/>
	<g transform="translate(116 39)">
		<g class="st3">
			<g>
				<path class="st4" d="M2.3,17V6.4h6.4v1.2H3.7v3.6h4.7v1.2H3.7V17H2.3z"/>
				<path class="st4" d="M10.6,6.6c0-0.5,0.4-0.9,0.9-0.9s0.9,0.4,0.9,0.9c0,0.5-0.4,0.9-0.9,0.9S10.6,7.1,10.6,6.6z M10.8,9.1h1.3
					V17h-1.3V9.1z"/>
				<path class="st4" d="M14.5,9.1h1.2v1.2h0.1C16,9.5,16.9,9,18,9c0.2,0,0.5,0,0.6,0v1.3c-0.1,0-0.6-0.1-0.8-0.1
					c-1.2,0-2.1,0.8-2.1,1.9V17h-1.3V9.1z"/>
				<path class="st4" d="M26.4,15c-0.4,1.4-1.6,2.2-3.3,2.2c-2.2,0-3.6-1.6-3.6-4.1c0-2.5,1.4-4.1,3.6-4.1c2.1,0,3.4,1.5,3.4,4v0.5
					h-5.7v0.1c0.1,1.6,0.9,2.5,2.3,2.5c1,0,1.7-0.4,2-1.1H26.4z M20.9,12.4h4.4c0-1.4-0.9-2.3-2.1-2.3C21.8,10.1,21,11,20.9,12.4z"
					/>
				<path class="st4" d="M29.1,10.2h-1.3V9.1h1.3V8.3c0-1.6,0.8-2.3,2.4-2.3c0.2,0,0.5,0,0.8,0.1v1.1c-0.2,0-0.5-0.1-0.7-0.1
					c-0.8,0-1.2,0.4-1.2,1.3v0.7h1.8v1.1h-1.8V17h-1.3V10.2z"/>
				<path class="st4" d="M33.2,13.1c0-2.5,1.4-4.1,3.6-4.1s3.6,1.5,3.6,4.1c0,2.5-1.4,4.1-3.6,4.1S33.2,15.6,33.2,13.1z M39.2,13.1
					c0-1.9-0.8-3-2.3-3s-2.3,1.1-2.3,3c0,1.9,0.8,3,2.3,3S39.2,14.9,39.2,13.1z"/>
				<path class="st4" d="M44.8,14l-1.9,3h-1.4l2.7-3.9l-2.7-3.9H43l1.9,2.9H45l1.9-2.9h1.4L45.6,13l2.7,4h-1.5l-1.9-3H44.8z"/>
				<path class="st4" d="M61.8,11.9c0,2.4-1.1,3.9-2.8,3.9c-0.9,0-1.5-0.5-1.6-1.2h-0.1c-0.3,0.7-1,1.2-1.8,1.2
					c-1.5,0-2.5-1.3-2.5-3.1c0-1.8,1-3,2.5-3c0.8,0,1.4,0.4,1.7,1h0.1V9.7h1.1V14c0,0.5,0.3,0.8,0.8,0.8c0.9,0,1.5-1.2,1.5-3
					c0-2.6-2-4.5-4.9-4.5c-2.9,0-4.9,2.2-4.9,5.2c0,3.1,2,5.1,5.2,5.1c1,0,2-0.1,2.5-0.4v0.9c-0.7,0.2-1.5,0.4-2.5,0.4
					c-3.8,0-6.2-2.4-6.2-6.1c0-3.6,2.5-6.1,6-6.1C59.4,6.5,61.8,8.7,61.8,11.9z M54.1,12.6c0,1.3,0.6,2.1,1.5,2.1
					c1,0,1.6-0.8,1.6-2.1s-0.6-2-1.6-2C54.7,10.6,54.1,11.4,54.1,12.6z"/>
				<path class="st4" d="M63.8,9.1H65v1.2h0.1C65.4,9.5,66.2,9,67.3,9c1.1,0,1.8,0.6,2.2,1.4h0.1C70,9.5,70.9,9,72,9
					c1.6,0,2.5,0.9,2.5,2.6V17h-1.3v-5.2c0-1.2-0.5-1.7-1.7-1.7c-1.1,0-1.8,0.8-1.8,1.8V17h-1.3v-5.4c0-0.9-0.7-1.5-1.6-1.5
					c-1,0-1.8,0.9-1.8,2V17h-1.3V9.1z"/>
				<path class="st4" d="M76.4,13.1c0-2.5,1.4-4.1,3.6-4.1s3.6,1.5,3.6,4.1c0,2.5-1.4,4.1-3.6,4.1S76.4,15.6,76.4,13.1z M82.4,13.1
					c0-1.9-0.8-3-2.3-3s-2.3,1.1-2.3,3c0,1.9,0.8,3,2.3,3S82.4,14.9,82.4,13.1z"/>
				<path class="st4" d="M85.3,16.1l4.6-5.8v-0.1h-4.5V9.1h6V10l-4.5,5.8v0.1h4.6V17h-6.1V16.1z"/>
				<path class="st4" d="M93.3,6.6c0-0.5,0.4-0.9,0.9-0.9s0.9,0.4,0.9,0.9c0,0.5-0.4,0.9-0.9,0.9S93.3,7.1,93.3,6.6z M93.6,9.1h1.3
					V17h-1.3V9.1z"/>
				<path class="st4" d="M97.3,6h1.3v11h-1.3V6z"/>
				<path class="st4" d="M101.1,6h1.3v11h-1.3V6z"/>
				<path class="st4" d="M104.3,14.8c0-1.4,1-2.2,2.9-2.3l2.3-0.1v-0.7c0-1-0.6-1.5-1.8-1.5c-0.9,0-1.6,0.4-1.8,1h-1.3
					c0.2-1.3,1.4-2.1,3.1-2.1c1.9,0,3,1,3,2.6V17h-1.2v-1.2h-0.1c-0.5,0.8-1.4,1.3-2.4,1.3C105.5,17.1,104.3,16.2,104.3,14.8z
					 M109.5,14.1v-0.7l-2.1,0.1c-1.2,0.1-1.7,0.5-1.7,1.3c0,0.8,0.7,1.3,1.6,1.3C108.5,16,109.5,15.2,109.5,14.1z"/>
				<path class="st4" d="M113.2,16.1c0-0.5,0.4-1,1-1c0.5,0,1,0.4,1,1c0,0.5-0.4,1-1,1C113.6,17.1,113.2,16.6,113.2,16.1z"/>
				<path class="st4" d="M122.5,11.5c-0.2-0.8-0.9-1.4-2-1.4c-1.4,0-2.3,1.1-2.3,2.9c0,1.8,0.9,3,2.3,3c1.1,0,1.8-0.5,2-1.4h1.3
					c-0.2,1.5-1.4,2.5-3.3,2.5c-2.2,0-3.6-1.6-3.6-4.1c0-2.5,1.4-4.1,3.6-4.1c1.9,0,3.1,1.2,3.3,2.6H122.5z"/>
				<path class="st4" d="M125.2,13.1c0-2.5,1.4-4.1,3.6-4.1s3.6,1.5,3.6,4.1c0,2.5-1.4,4.1-3.6,4.1S125.2,15.6,125.2,13.1z
					 M131.2,13.1c0-1.9-0.8-3-2.3-3s-2.3,1.1-2.3,3c0,1.9,0.8,3,2.3,3S131.2,14.9,131.2,13.1z"/>
				<path class="st4" d="M134.5,9.1h1.2v1.2h0.1C136.2,9.5,137,9,138,9c1.1,0,1.8,0.6,2.2,1.4h0.1c0.4-0.8,1.3-1.4,2.4-1.4
					c1.6,0,2.5,0.9,2.5,2.6V17H144v-5.2c0-1.2-0.5-1.7-1.7-1.7c-1.1,0-1.8,0.8-1.8,1.8V17h-1.3v-5.4c0-0.9-0.7-1.5-1.6-1.5
					c-1,0-1.8,0.9-1.8,2V17h-1.3V9.1z"/>
			</g>
		</g>
		<g class="st3">
			<path d="M2.3,19.5H1.3v-15h1.1V19.5z"/>
		</g>
	</g>
	<path class="st4" d="M114.8,29h-4.5v-3.1h4.3v-1h-4.3v-2.9h4.5v-1h-5.7V30h5.7V29z M116.8,30h1.1v-4.2c0-1,0.7-1.7,1.6-1.7
		c0.9,0,1.4,0.5,1.4,1.3V30h1.1v-4.4c0-0.9,0.6-1.6,1.6-1.6c1,0,1.4,0.5,1.4,1.5V30h1.1v-4.7c0-1.4-0.8-2.2-2.2-2.2
		c-0.9,0-1.7,0.5-2.1,1.2h-0.1c-0.3-0.7-1-1.2-1.9-1.2c-0.9,0-1.6,0.4-1.9,1.2h-0.1v-1.1h-1V30z M130.2,29.2c1.1,0,2-0.7,2-1.7v-0.6
		l-1.8,0.1c-1,0.1-1.5,0.4-1.5,1.1C128.8,28.8,129.4,29.2,130.2,29.2z M130,30.1c-1.3,0-2.3-0.8-2.3-2c0-1.2,0.9-1.9,2.5-2l2-0.1
		v-0.6c0-0.8-0.5-1.3-1.5-1.3c-0.8,0-1.4,0.3-1.5,0.9H128c0.1-1.1,1.2-1.8,2.7-1.8c1.7,0,2.6,0.9,2.6,2.3V30h-1v-1h-0.1
		C131.7,29.7,130.9,30.1,130,30.1z M135.3,30h1.1v-6.8h-1.1V30z M135.8,21.8c0.4,0,0.8-0.3,0.8-0.8s-0.3-0.8-0.8-0.8
		s-0.8,0.3-0.8,0.8S135.4,21.8,135.8,21.8z M138.5,30h1.1v-9.6h-1.1V30z M147.5,29.2c1.1,0,2-0.7,2-1.7v-0.6l-1.8,0.1
		c-1,0.1-1.5,0.4-1.5,1.1C146.1,28.8,146.7,29.2,147.5,29.2z M147.3,30.1c-1.3,0-2.3-0.8-2.3-2c0-1.2,0.9-1.9,2.5-2l2-0.1v-0.6
		c0-0.8-0.5-1.3-1.5-1.3c-0.8,0-1.4,0.3-1.5,0.9h-1.1c0.1-1.1,1.2-1.8,2.7-1.8c1.7,0,2.6,0.9,2.6,2.3V30h-1v-1h-0.1
		C149,29.7,148.2,30.1,147.3,30.1z M155.1,30.1c-1.8,0-2.9-1.4-2.9-3.5c0-2.1,1.1-3.5,2.9-3.5c1,0,1.8,0.5,2.1,1.2h0.1v-3.8h1.1V30
		h-1v-1.1h-0.1C156.9,29.7,156.1,30.1,155.1,30.1z M155.4,24c-1.2,0-2,1-2,2.6c0,1.6,0.7,2.6,2,2.6c1.2,0,2-1,2-2.6
		C157.4,25,156.6,24,155.4,24z M163.1,30.1c-1.8,0-2.9-1.4-2.9-3.5c0-2.1,1.1-3.5,2.9-3.5c1,0,1.8,0.5,2.1,1.2h0.1v-3.8h1.1V30h-1
		v-1.1h-0.1C164.8,29.7,164,30.1,163.1,30.1z M163.3,24c-1.2,0-2,1-2,2.6c0,1.6,0.7,2.6,2,2.6c1.2,0,2-1,2-2.6
		C165.4,25,164.6,24,163.3,24z M168.5,30h1.1v-4.2c0-1,0.8-1.7,1.8-1.7c0.2,0,0.6,0,0.7,0.1v-1.1c-0.1,0-0.4,0-0.5,0
		c-0.9,0-1.7,0.5-1.9,1.1h-0.1v-1h-1V30z M176.2,24c-1.1,0-1.9,0.8-1.9,2h3.8C178,24.8,177.3,24,176.2,24z M178,28.2h1.1
		c-0.3,1.2-1.4,1.9-2.9,1.9c-1.9,0-3.1-1.4-3.1-3.5c0-2.2,1.2-3.5,3.1-3.5c1.8,0,3,1.3,3,3.4v0.4h-4.9v0.1c0.1,1.4,0.8,2.2,2,2.2
		C177.1,29.2,177.7,28.8,178,28.2z M180.8,25c0,1,0.6,1.5,1.9,1.9l1.2,0.3c0.7,0.2,1.1,0.5,1.1,1c0,0.6-0.7,1.1-1.6,1.1
		c-0.9,0-1.4-0.4-1.6-0.9h-1.1c0.1,1.1,1.2,1.9,2.7,1.9c1.6,0,2.7-0.8,2.7-2.1c0-1-0.6-1.5-1.9-1.9l-1.1-0.3c-0.8-0.2-1.2-0.5-1.2-1
		c0-0.6,0.6-1,1.4-1c0.8,0,1.4,0.4,1.5,0.9h1.1c-0.1-1.1-1.1-1.8-2.6-1.8C181.9,23,180.8,23.9,180.8,25z M187.6,25
		c0,1,0.6,1.5,1.9,1.9l1.2,0.3c0.7,0.2,1.1,0.5,1.1,1c0,0.6-0.7,1.1-1.6,1.1c-0.9,0-1.4-0.4-1.6-0.9h-1.1c0.1,1.1,1.2,1.9,2.7,1.9
		c1.6,0,2.7-0.8,2.7-2.1c0-1-0.6-1.5-1.9-1.9l-1.1-0.3c-0.8-0.2-1.2-0.5-1.2-1c0-0.6,0.6-1,1.4-1c0.8,0,1.4,0.4,1.5,0.9h1.1
		c-0.1-1.1-1.1-1.8-2.6-1.8C188.7,23,187.6,23.9,187.6,25z"/>
	<path class="st0" d="M302,37c-0.6,0-1,0.4-1,1v26c0,0.6,0.4,1,1,1h174c0.6,0,1-0.4,1-1V38c0-0.6-0.4-1-1-1H302z M302,36h174
		c1.1,0,2,0.9,2,2v26c0,1.1-0.9,2-2,2H302c-1.1,0-2-0.9-2-2V38C300,36.9,300.9,36,302,36z"/>
	<path class="st1" d="M302,36c-1.1,0-2,0.9-2,2v26c0,1.1,0.9,2,2,2h174c1.1,0,2-0.9,2-2V38c0-1.1-0.9-2-2-2H302z M302,35h174
		c1.7,0,3,1.3,3,3v26c0,1.7-1.3,3-3,3H302c-1.7,0-3-1.3-3-3V38C299,36.3,300.3,35,302,35z"/>
	<path class="st2" d="M302,36c-1.1,0-2,0.9-2,2v26c0,1.1,0.9,2,2,2h174c1.1,0,2-0.9,2-2V38c0-1.1-0.9-2-2-2H302z M302,33h174
		c2.8,0,5,2.2,5,5v26c0,2.8-2.2,5-5,5H302c-2.8,0-5-2.2-5-5V38C297,35.2,299.2,33,302,33z"/>
	<path class="st5" d="M314.7,53.7c0.4-0.4,0.4-1,0-1.4l0,0c-0.4-0.4-1-0.4-1.4,0l-5,5c-0.4,0.4-0.4,1,0,1.4l0,0c0.4,0.4,1,0.4,1.4,0
		L314.7,53.7z M318,55c3.3,0,6-2.7,6-6c0-3.3-2.7-6-6-6c-3.3,0-6,2.7-6,6c0,1.6,0.6,3.1,1.8,4.2C314.8,54.4,316.4,55,318,55z
		 M318,53c-1.1,0-2.1-0.4-2.8-1.2c-0.8-0.8-1.2-1.8-1.2-2.8c0-2.2,1.8-4,4-4s4,1.8,4,4C322,51.2,320.2,53,318,53z"/>
	<path class="st6" d="M332.8,53.2c0.1,1.8,1.7,3,3.9,3c2.4,0,3.9-1.2,3.9-3.2c0-1.6-0.9-2.4-3.1-3l-1.1-0.3c-1.5-0.4-2-0.8-2-1.7
		c0-1.1,0.9-1.8,2.3-1.8c1.3,0,2.2,0.6,2.4,1.7h1.3c-0.1-1.7-1.6-2.9-3.7-2.9c-2.2,0-3.7,1.2-3.7,3c0,1.5,0.8,2.4,2.7,2.8l1.4,0.4
		c1.5,0.4,2.1,0.9,2.1,1.8c0,1-1,1.8-2.5,1.8c-1.5,0-2.6-0.7-2.7-1.8H332.8z M345.9,49.1c-1.3,0-2.1,0.9-2.2,2.3h4.4
		C348,50,347.1,49.1,345.9,49.1z M348,54h1.3c-0.4,1.4-1.6,2.2-3.3,2.2c-2.2,0-3.6-1.6-3.6-4.1c0-2.5,1.4-4.1,3.6-4.1
		c2.1,0,3.4,1.5,3.4,4v0.5h-5.7v0.1c0.1,1.6,0.9,2.5,2.3,2.5C347,55,347.6,54.7,348,54z M353.7,55c1.3,0,2.3-0.8,2.3-2v-0.7
		l-2.1,0.1c-1.2,0.1-1.7,0.5-1.7,1.3C352.1,54.6,352.8,55,353.7,55z M353.5,56.1c-1.5,0-2.7-0.9-2.7-2.4c0-1.4,1-2.2,2.9-2.3
		l2.3-0.1v-0.7c0-1-0.6-1.5-1.8-1.5c-0.9,0-1.6,0.4-1.8,1h-1.3c0.2-1.3,1.4-2.1,3.1-2.1c1.9,0,3,1,3,2.6V56h-1.2v-1.2h-0.1
		C355.4,55.7,354.6,56.1,353.5,56.1z M359.6,56h1.3v-4.9c0-1.1,0.9-1.9,2.1-1.9c0.2,0,0.7,0,0.8,0.1V48c-0.2,0-0.4,0-0.6,0
		c-1,0-2,0.5-2.2,1.3h-0.1v-1.2h-1.2V56z M371.6,50.5c-0.2-1.4-1.4-2.6-3.3-2.6c-2.2,0-3.6,1.6-3.6,4.1c0,2.5,1.4,4.1,3.6,4.1
		c1.9,0,3.1-1.1,3.3-2.5h-1.3c-0.2,0.9-1,1.4-2,1.4c-1.4,0-2.3-1.2-2.3-3c0-1.8,0.9-2.9,2.3-2.9c1.1,0,1.8,0.6,2,1.4H371.6z
		 M373.6,56h1.3v-4.7c0-1.3,0.8-2.2,2.2-2.2c1.2,0,1.8,0.7,1.8,2.1V56h1.3v-5.1c0-1.9-1.1-2.9-2.7-2.9c-1.2,0-2,0.5-2.4,1.4h-0.1V45
		h-1.3V56z M392.6,47.7L392.6,47.7l2.5,8.3h1.2l2.9-10.6h-1.4l-2.1,8.6h-0.1l-2.4-8.6H392l-2.4,8.6h-0.1l-2.1-8.6h-1.4L389,56h1.2
		L392.6,47.7z M403.6,49.1c-1.3,0-2.1,0.9-2.2,2.3h4.4C405.6,50,404.8,49.1,403.6,49.1z M405.6,54h1.3c-0.4,1.4-1.6,2.2-3.3,2.2
		c-2.2,0-3.6-1.6-3.6-4.1c0-2.5,1.4-4.1,3.6-4.1c2.1,0,3.4,1.5,3.4,4v0.5h-5.7v0.1c0.1,1.6,0.9,2.5,2.3,2.5
		C404.6,55,405.3,54.7,405.6,54z M412.9,56.1c-1.1,0-2-0.5-2.5-1.4h-0.1V56H409V45h1.3v4.4h0.1c0.4-0.8,1.4-1.4,2.5-1.4
		c2,0,3.3,1.6,3.3,4.1C416.2,54.5,414.9,56.1,412.9,56.1z M412.6,49.1c-1.4,0-2.3,1.1-2.3,3s0.9,3,2.3,3c1.4,0,2.3-1.1,2.3-3
		S414,49.1,412.6,49.1z M418,50.3c0,1.1,0.7,1.8,2.2,2.1l1.4,0.3c0.8,0.2,1.3,0.6,1.3,1.1c0,0.7-0.8,1.2-1.8,1.2
		c-1,0-1.6-0.4-1.9-1.1h-1.3c0.1,1.3,1.3,2.2,3.1,2.2c1.8,0,3.2-1,3.2-2.4c0-1.1-0.7-1.8-2.2-2.1l-1.2-0.3c-0.9-0.2-1.4-0.6-1.4-1.1
		c0-0.7,0.7-1.2,1.7-1.2c1,0,1.6,0.4,1.7,1h1.2c-0.2-1.3-1.3-2.1-3-2.1C419.3,48,418,49,418,50.3z M426.1,56h1.3v-7.9h-1.3V56z
		 M426.7,46.5c0.5,0,0.9-0.4,0.9-0.9s-0.4-0.9-0.9-0.9s-0.9,0.4-0.9,0.9S426.2,46.5,426.7,46.5z M430.3,46.1v2H429v1.1h1.3v4.8
		c0,1.5,0.7,2.1,2.3,2.1c0.2,0,0.5,0,0.7-0.1v-1.1c-0.2,0-0.4,0-0.6,0c-0.8,0-1.2-0.4-1.2-1.3v-4.5h1.8v-1.1h-1.8v-2H430.3z
		 M438.2,49.1c-1.3,0-2.1,0.9-2.2,2.3h4.4C440.3,50,439.5,49.1,438.2,49.1z M440.3,54h1.3c-0.4,1.4-1.6,2.2-3.3,2.2
		c-2.2,0-3.6-1.6-3.6-4.1c0-2.5,1.4-4.1,3.6-4.1c2.1,0,3.4,1.5,3.4,4v0.5H436v0.1c0.1,1.6,0.9,2.5,2.3,2.5
		C439.3,55,440,54.7,440.3,54z M443.5,50.3c0,1.1,0.7,1.8,2.2,2.1l1.4,0.3c0.8,0.2,1.3,0.6,1.3,1.1c0,0.7-0.8,1.2-1.8,1.2
		c-1,0-1.6-0.4-1.9-1.1h-1.3c0.1,1.3,1.3,2.2,3.1,2.2c1.8,0,3.2-1,3.2-2.4c0-1.1-0.7-1.8-2.2-2.1l-1.2-0.3c-0.9-0.2-1.4-0.6-1.4-1.1
		c0-0.7,0.7-1.2,1.7-1.2c1,0,1.6,0.4,1.7,1h1.2c-0.2-1.3-1.3-2.1-3-2.1C444.7,48,443.5,49,443.5,50.3z"/>
	<polygon points="333.3,58.5 332.3,58.5 332.3,43.5 333.3,43.5 	"/>
	<g transform="translate(8 40)">
		<path class="st7" d="M2,0h82c1.1,0,2,0.9,2,2v18c0,1.1-0.9,2-2,2H2c-1.1,0-2-0.9-2-2V2C0,0.9,0.9,0,2,0z"/>
		<polygon class="st7" points="82,11 86,7 90,11 86,15 		"/>
		<g class="st3">
			<path class="st8" d="M6.9,12h-1v3H4.6V6.7h2.3c2.1,0,3.3,0.8,3.3,2.6C10.2,11.3,8.8,12,6.9,12z M6.9,7.8h-1V11h1
				c1,0,1.8-0.4,1.8-1.7C8.7,8.2,8,7.8,6.9,7.8z"/>
			<path class="st8" d="M17.1,8.7L16.9,11h-1V9.7c-0.9,0-1.5,0.7-1.9,2V14h1.3v1h-3.5v-1h0.9V9.6h-0.9v-1h2l0.2,1.5
				c0.5-1.1,1.1-1.6,2.2-1.6C16.5,8.5,16.8,8.6,17.1,8.7z"/>
			<path class="st8" d="M21.7,14.1c0.6,0,1.1-0.2,1.7-0.6l0.6,0.8c-0.6,0.5-1.4,0.8-2.3,0.8c-2,0-3.1-1.3-3.1-3.3
				c0-1.9,1.1-3.3,2.9-3.3c1.7,0,2.7,1.2,2.7,3.2c0,0.2,0,0.4,0,0.6H20C20.1,13.6,20.8,14.1,21.7,14.1z M20,11.4h2.9
				c0-1.2-0.5-1.9-1.4-1.9C20.7,9.5,20.1,10.1,20,11.4z"/>
			<path class="st8" d="M29.7,13.3c0-0.5-0.2-0.8-1.5-1.1c-1.3-0.3-2.1-0.8-2.1-1.9c0-1.1,1-1.8,2.5-1.8c1.1,0,1.8,0.3,2.4,0.7
				l-0.6,0.9c-0.5-0.3-1.1-0.6-1.8-0.6c-0.9,0-1.2,0.3-1.2,0.7c0,0.5,0.3,0.7,1.6,1c1.2,0.3,2.1,0.8,2.1,2c0,1.4-1.3,2-2.8,2
				c-1.2,0-2-0.4-2.6-0.9l0.7-0.8c0.5,0.4,1.2,0.7,1.9,0.7C29.2,14.1,29.7,13.8,29.7,13.3z"/>
			<path class="st8" d="M36.9,13.3c0-0.5-0.2-0.8-1.5-1.1c-1.3-0.3-2.1-0.8-2.1-1.9c0-1.1,1-1.8,2.5-1.8c1.1,0,1.8,0.3,2.4,0.7
				l-0.6,0.9c-0.5-0.3-1.1-0.6-1.8-0.6c-0.9,0-1.2,0.3-1.2,0.7c0,0.5,0.3,0.7,1.6,1c1.2,0.3,2.1,0.8,2.1,2c0,1.4-1.3,2-2.8,2
				c-1.2,0-2-0.4-2.6-0.9l0.7-0.8c0.5,0.4,1.2,0.7,1.9,0.7C36.4,14.1,36.9,13.8,36.9,13.3z"/>
			<path class="st8" d="M39.9,15.8L45,5.3l1.1,0.5L41,16.3L39.9,15.8z"/>
			<path class="st8" d="M49.5,10.4h3.1v1.1h-3.1V15h-1.4V6.7h5.1l-0.1,1.1h-3.5V10.4z"/>
			<path class="st8" d="M60.3,11.8c0,2-1,3.3-2.9,3.3c-1.8,0-2.9-1.3-2.9-3.3c0-2,1-3.3,2.9-3.3C59.3,8.5,60.3,9.8,60.3,11.8z
				 M55.9,11.8c0,1.6,0.5,2.3,1.5,2.3c1,0,1.5-0.7,1.5-2.3c0-1.6-0.5-2.3-1.4-2.3C56.4,9.5,55.9,10.3,55.9,11.8z"/>
			<path class="st8" d="M66.7,13.5l0.6,0.9c-0.6,0.5-1.4,0.8-2.2,0.8c-2,0-3.1-1.3-3.1-3.3c0-1.9,1.2-3.4,3.1-3.4
				c0.9,0,1.6,0.3,2.2,0.8l-0.6,0.8c-0.5-0.3-1-0.5-1.5-0.5c-1,0-1.7,0.7-1.7,2.3c0,1.6,0.7,2.2,1.7,2.2
				C65.7,14.1,66.2,13.8,66.7,13.5z"/>
			<path class="st8" d="M70.6,13.1c0,0.7,0.3,1,0.9,1c0.6,0,1.2-0.4,1.5-0.9V8.7h1.3V15h-1.2l-0.1-0.8c-0.5,0.6-1.2,1-2,1
				c-1.2,0-1.8-0.7-1.8-1.9V8.7h1.3V13.1z"/>
			<path class="st8" d="M80.1,13.3c0-0.5-0.2-0.8-1.5-1.1c-1.3-0.3-2.1-0.8-2.1-1.9c0-1.1,1-1.8,2.5-1.8c1.1,0,1.8,0.3,2.4,0.7
				l-0.6,0.9c-0.5-0.3-1.1-0.6-1.8-0.6c-0.9,0-1.2,0.3-1.2,0.7c0,0.5,0.3,0.7,1.6,1c1.2,0.3,2.1,0.8,2.1,2c0,1.4-1.3,2-2.8,2
				c-1.2,0-2-0.4-2.6-0.9l0.7-0.8c0.5,0.4,1.2,0.7,1.9,0.7C79.6,14.1,80.1,13.8,80.1,13.3z"/>
		</g>
	</g>
</g>
</svg>
