<svg xmlns="http://www.w3.org/2000/svg" viewBox="0 0 504 100"><g fill="none" fill-rule="evenodd"><g transform="translate(297 33)"><path fill="#00BDDF" fill-rule="nonzero" d="M5 4a1 1 0 0 0-1 1v26a1 1 0 0 0 1 1h174a1 1 0 0 0 1-1V5a1 1 0 0 0-1-1H5zm0-1h174a2 2 0 0 1 2 2v26a2 2 0 0 1-2 2H5a2 2 0 0 1-2-2V5c0-1.1.9-2 2-2z"/><path fill="#B1EDF6" fill-rule="nonzero" d="M5 3a2 2 0 0 0-2 2v26c0 1.1.9 2 2 2h174a2 2 0 0 0 2-2V5a2 2 0 0 0-2-2H5zm0-1h174a3 3 0 0 1 3 3v26a3 3 0 0 1-3 3H5a3 3 0 0 1-3-3V5a3 3 0 0 1 3-3z"/><path fill="#DFF8FB" fill-rule="nonzero" d="M5 3a2 2 0 0 0-2 2v26c0 1.1.9 2 2 2h174a2 2 0 0 0 2-2V5a2 2 0 0 0-2-2H5zm0-3h174a5 5 0 0 1 5 5v26a5 5 0 0 1-5 5H5a5 5 0 0 1-5-5V5a5 5 0 0 1 5-5z"/><rect width="74" height="16" x="35" y="10" fill="#B4D7FF"/><g fill="#0C0C0D" transform="translate(11 9)"><path fill-rule="nonzero" d="M6.7 11.72a1 1 0 1 0-1.41-1.41L.32 15.26a1 1 0 1 0 1.41 1.41l4.95-4.95zm3.26 1.32a6 6 0 1 0 0-12 6 6 0 0 0 0 12zm0-2a4 4 0 1 1 0-8 4 4 0 0 1 0 8z" opacity=".4"/><path d="M35.12 6.1h-1.27l-1.55 6.32h-.12L30.42 6.1H29.2l-1.77 6.32h-.11L25.77 6.1H24.5L26.7 14h1.27l1.76-6.1h.12l1.76 6.1h1.29l2.2-7.9zm11.61 0h-1.26l-1.56 6.32h-.11L42.03 6.1h-1.2l-1.77 6.32h-.12L37.4 6.1H36.1l2.22 7.9h1.27l1.76-6.1h.12l1.76 6.1h1.28l2.21-7.9zm11.62 0h-1.27l-1.55 6.32h-.12L53.65 6.1h-1.21l-1.77 6.32h-.11L49 6.1h-1.27l2.21 7.9h1.28l1.75-6.1h.12l1.77 6.1h1.28l2.21-7.9zm1.63 7.97a.95.95 0 1 0 0 0zm3.5-.07h1.26V7.16h1.8V6.1h-1.8v-.73c0-.88.42-1.27 1.18-1.27.25 0 .53.03.7.07V3.12c-.3-.06-.53-.08-.78-.08-1.52 0-2.36.68-2.36 2.3v.76h-1.31v1.06h1.3V14zm4.93 0h1.26V6.1H68.4V14zm.63-9.5c.48 0 .88-.4.88-.88s-.4-.88-.88-.88a.88.88 0 0 0 0 1.76zm3.03 9.5h1.26V9.1c0-1.1.87-1.91 2.07-1.91.25 0 .7.04.8.07V6a5.41 5.41 0 0 0-.62-.03c-1.05 0-1.96.54-2.2 1.3h-.11V6.1h-1.2V14zm8.64-6.92c-1.26 0-2.14.92-2.23 2.32h4.35c-.03-1.4-.87-2.32-2.12-2.32zm2.08 4.88h1.26c-.38 1.35-1.6 2.18-3.32 2.18-2.2 0-3.56-1.58-3.56-4.08 0-2.48 1.39-4.1 3.56-4.1 2.13 0 3.42 1.52 3.42 3.98v.48h-5.67v.06c.06 1.56.94 2.55 2.28 2.55 1.01 0 1.7-.38 2.03-1.07zM86.66 14h1.26V7.16h1.8V6.1h-1.8v-.73c0-.88.42-1.27 1.18-1.27.25 0 .53.03.7.07V3.12c-.3-.06-.53-.08-.78-.08-1.52 0-2.36.68-2.36 2.3v.76h-1.31v1.06h1.3V14zm7.81.14c-2.24 0-3.64-1.55-3.64-4.09s1.4-4.08 3.64-4.08c2.25 0 3.64 1.54 3.64 4.08s-1.39 4.09-3.64 4.09zm0-1.14c1.5 0 2.34-1.08 2.34-2.95s-.84-2.95-2.34-2.95-2.33 1.08-2.33 2.95.84 2.95 2.33 2.95z"/></g><g transform="translate(159 12)"><circle cx="6.5" cy="6.5" r="6.5" fill="#797676"/><g fill="#FFFFFF" fill-rule="nonzero" transform="translate(4 4)"><polygon points="5 -.778 -.778 5 0 5.778 5.778 0"/><polygon points="5.778 5 0 -.778 -.778 0 5 5.778"/></g></g></g><g transform="translate(105 20)"><path fill="#00BDDF" fill-rule="nonzero" d="M5 17a1 1 0 0 0-1 1v26a1 1 0 0 0 1 1h174a1 1 0 0 0 1-1V18a1 1 0 0 0-1-1H5zm0-1h174a2 2 0 0 1 2 2v26a2 2 0 0 1-2 2H5a2 2 0 0 1-2-2V18c0-1.1.9-2 2-2z"/><path fill="#B1EDF6" fill-rule="nonzero" d="M5 16a2 2 0 0 0-2 2v26c0 1.1.9 2 2 2h174a2 2 0 0 0 2-2V18a2 2 0 0 0-2-2H5zm0-1h174a3 3 0 0 1 3 3v26a3 3 0 0 1-3 3H5a3 3 0 0 1-3-3V18a3 3 0 0 1 3-3z"/><path fill="#DFF8FB" fill-rule="nonzero" d="M5 16a2 2 0 0 0-2 2v26c0 1.1.9 2 2 2h174a2 2 0 0 0 2-2V18a2 2 0 0 0-2-2H5zm0-3h174a5 5 0 0 1 5 5v26a5 5 0 0 1-5 5H5a5 5 0 0 1-5-5V18a5 5 0 0 1 5-5z"/><rect width="66" height="16" x="13" y="23" fill="#B4D7FF"/><path fill="#0C0C0D" d="M23.76 36V25.43h-1.53l-3.62 8.75h-.11l-3.62-8.75h-1.53V36h1.23v-8.07h.09l3.33 8h1.11l3.33-8h.1V36h1.22zm5.78.14c-2.25 0-3.64-1.55-3.64-4.09s1.4-4.08 3.64-4.08c2.25 0 3.64 1.54 3.64 4.08s-1.39 4.09-3.64 4.09zm0-1.14c1.5 0 2.34-1.08 2.34-2.95s-.84-2.95-2.34-2.95-2.33 1.08-2.33 2.95.84 2.95 2.33 2.95zm5.22 1h6.08v-1.05h-4.56v-.12l4.53-5.78v-.95h-6.05v1.06h4.55v.12l-4.55 5.8V36zm8.3 0h1.25v-7.9h-1.26V36zm.62-9.5a.88.88 0 0 0 0-1.76.88.88 0 0 0 0 1.76zM46.8 36h1.26V24.97h-1.26V36zm3.78 0h1.26V24.97h-1.26V36zm6.14-.97c1.3 0 2.25-.85 2.25-1.97v-.73l-2.12.14c-1.2.08-1.73.5-1.73 1.29 0 .8.68 1.27 1.6 1.27zm-.24 1.1c-1.53 0-2.66-.9-2.66-2.34 0-1.42 1.04-2.23 2.88-2.34l2.27-.14v-.72c0-.97-.6-1.5-1.78-1.5-.95 0-1.6.35-1.78.98h-1.28c.17-1.27 1.42-2.1 3.1-2.1 1.93 0 3 .98 3 2.62V36h-1.2v-1.16h-.12a2.73 2.73 0 0 1-2.43 1.3zm7.56-.13v-4.58h4.68v-1.17h-4.68v-3.63h5.1v-1.19H62.7V36h1.32zm7.14 0h1.25v-7.9h-1.25V36zm.62-9.5a.88.88 0 0 0 0-1.76.88.88 0 0 0 0 1.76zm3.04 9.5h1.26v-4.9c0-1.1.87-1.91 2.07-1.91.25 0 .7.04.8.07V28a5.41 5.41 0 0 0-.62-.03c-1.05 0-1.96.54-2.2 1.3h-.11V28.1h-1.2V36z"/><path fill="#0C0C0D" d="M9.84 8.97H5.31V5.82h4.3V4.81H5.3V1.87h4.53V.84H4.17V10h5.67V8.97zM11.77 10h1.1V5.76c0-.97.69-1.74 1.58-1.74.86 0 1.43.52 1.43 1.33V10h1.1V5.6c0-.87.63-1.58 1.58-1.58.96 0 1.44.5 1.44 1.5V10h1.1V5.27c0-1.43-.79-2.23-2.19-2.23a2.3 2.3 0 0 0-2.1 1.2h-.1a1.98 1.98 0 0 0-1.88-1.2c-.92 0-1.6.43-1.91 1.2h-.1V3.16h-1.05V10zm13.42-.84c1.12 0 1.96-.73 1.96-1.71v-.63l-1.84.12c-1.05.07-1.5.43-1.5 1.12 0 .7.59 1.1 1.38 1.1zm-.2.96c-1.33 0-2.31-.79-2.31-2.04 0-1.22.9-1.93 2.5-2.02l1.97-.12v-.62c0-.85-.53-1.31-1.55-1.31-.82 0-1.4.3-1.54.85h-1.1c.14-1.1 1.22-1.82 2.68-1.82 1.67 0 2.6.85 2.6 2.28V10H27.2V9h-.1a2.36 2.36 0 0 1-2.11 1.12zm5.3-.12h1.08V3.16h-1.09V10zm.54-8.23c.42 0 .76-.35.76-.76a.76.76 0 0 0-.76-.77.76.76 0 0 0-.76.77c0 .41.34.76.76.76zM33.52 10h1.1V.44h-1.1V10zm8.99-.84c1.12 0 1.95-.73 1.95-1.71v-.63l-1.84.12c-1.04.07-1.5.43-1.5 1.12 0 .7.6 1.1 1.39 1.1zm-.2.96c-1.33 0-2.32-.79-2.32-2.04 0-1.22.9-1.93 2.5-2.02l1.97-.12v-.62c0-.85-.52-1.31-1.55-1.31-.81 0-1.39.3-1.54.85h-1.1c.14-1.1 1.22-1.82 2.68-1.82 1.67 0 2.6.85 2.6 2.28V10h-1.04V9h-.1a2.36 2.36 0 0 1-2.1 1.12zm7.8 0c-1.76 0-2.88-1.39-2.88-3.54 0-2.15 1.14-3.54 2.88-3.54.95 0 1.75.45 2.14 1.2h.1V.44h1.09V10H52.4V8.9h-.1a2.45 2.45 0 0 1-2.2 1.22zm.25-6.1c-1.24 0-2 .97-2 2.56 0 1.6.75 2.56 2 2.56 1.24 0 2.01-.98 2.01-2.56 0-1.57-.77-2.56-2.01-2.56zm7.73 6.1c-1.75 0-2.87-1.39-2.87-3.54 0-2.15 1.13-3.54 2.87-3.54.95 0 1.76.45 2.15 1.2h.1V.44h1.08V10h-1.04V8.9h-.1a2.45 2.45 0 0 1-2.19 1.22zm.26-6.1c-1.25 0-2 .97-2 2.56 0 1.6.74 2.56 2 2.56 1.24 0 2-.98 2-2.56 0-1.57-.77-2.56-2-2.56zm5.2 5.98h1.09V5.76c0-.97.75-1.66 1.8-1.66.2 0 .6.03.69.06v-1.1a4.69 4.69 0 0 0-.55-.02c-.9 0-1.69.47-1.9 1.13h-.1V3.16h-1.04V10zm7.67-6c-1.09 0-1.85.8-1.93 2.01h3.77c-.03-1.2-.75-2-1.84-2zm1.8 4.23h1.1c-.33 1.17-1.38 1.9-2.88 1.9-1.9 0-3.09-1.38-3.09-3.55 0-2.15 1.2-3.54 3.09-3.54 1.84 0 2.97 1.31 2.97 3.44v.42h-4.92v.05c.06 1.35.81 2.2 1.97 2.2.89 0 1.48-.32 1.77-.92zm2.74-3.2c0 .99.59 1.54 1.87 1.85l1.17.29c.73.18 1.09.5 1.09.96 0 .63-.66 1.07-1.58 1.07-.88 0-1.42-.37-1.6-.95h-1.13c.12 1.14 1.17 1.87 2.7 1.87 1.55 0 2.73-.84 2.73-2.07 0-.98-.62-1.54-1.9-1.85l-1.06-.26c-.8-.2-1.19-.48-1.19-.95 0-.61.64-1.03 1.45-1.03.82 0 1.36.37 1.5.91h1.08c-.14-1.12-1.14-1.83-2.58-1.83-1.45 0-2.55.85-2.55 1.99zm6.8 0c0 .99.6 1.54 1.87 1.85l1.18.29c.73.18 1.08.5 1.08.96 0 .63-.66 1.07-1.58 1.07-.87 0-1.42-.37-1.6-.95h-1.13c.12 1.14 1.17 1.87 2.7 1.87 1.55 0 2.74-.84 2.74-2.07 0-.98-.62-1.54-1.91-1.85l-1.06-.26c-.8-.2-1.18-.48-1.18-.95 0-.61.63-1.03 1.44-1.03.83 0 1.36.37 1.5.91h1.09c-.15-1.12-1.15-1.83-2.58-1.83-1.45 0-2.55.85-2.55 1.99z"/><g transform="translate(159 25)"><circle cx="6.5" cy="6.5" r="6.5" fill="#797676"/><g fill="#FFFFFF" fill-rule="nonzero" transform="translate(4 4)"><polygon points="5 -.778 -.778 5 0 5.778 5.778 0"/><polygon points="5.778 5 0 -.778 -.778 0 5 5.778"/></g></g></g><g transform="translate(6 39)"><rect width="88" height="22" fill="#0A84FF" rx="2"/><polygon fill="#0A84FF" points="84 11 88 7 92 11 88 15"/><path fill="#FFFFFF" d="M10.3 9.38c-.57.45-1.36.67-2.36.67h-1V13H5.54V4.72h2.3c1.06 0 1.88.22 2.45.65.58.44.87 1.09.87 1.95 0 .93-.29 1.62-.87 2.06zM7.94 5.76h-1V9h1.01c.56 0 1-.13 1.3-.38.31-.26.47-.69.47-1.29 0-1.04-.6-1.56-1.78-1.56zm10.18.9L17.89 9h-.96V7.7c-.44.02-.82.2-1.15.54-.32.34-.58.82-.77 1.45v2.35h1.27V13h-3.55v-.96h.93V7.62h-.93v-.96h1.95l.24 1.47c.25-.55.55-.95.91-1.22s.8-.4 1.33-.4c.32 0 .64.05.96.15zm3.4 4.99c.31.3.71.46 1.2.46.29 0 .57-.04.84-.14.27-.09.54-.23.82-.41l.58.82c-.3.24-.65.44-1.05.57-.4.14-.82.2-1.26.2-.97 0-1.72-.3-2.25-.9a3.5 3.5 0 0 1-.8-2.42c0-.63.1-1.2.34-1.7.23-.52.57-.91 1-1.2.45-.29.96-.43 1.54-.43.84 0 1.51.28 2 .84.5.57.74 1.34.74 2.32 0 .24-.01.44-.04.6h-4.2c.04.62.22 1.08.54 1.39zm-.08-3.69a2.3 2.3 0 0 0-.47 1.4h2.94a2.38 2.38 0 0 0-.38-1.39 1.21 1.21 0 0 0-1.03-.48c-.44 0-.79.16-1.06.47zm8.93 3.95a.7.7 0 0 0 .37-.63.84.84 0 0 0-.1-.45.98.98 0 0 0-.44-.32c-.22-.1-.54-.2-.97-.32a4.2 4.2 0 0 1-1.57-.68 1.43 1.43 0 0 1-.52-1.19c0-.55.23-1 .68-1.33.46-.33 1.08-.5 1.85-.5a4 4 0 0 1 2.41.74l-.57.85a3.2 3.2 0 0 0-1.8-.56c-.8 0-1.2.23-1.2.7 0 .15.04.28.14.39.09.1.25.2.47.3.22.08.56.19 1 .31.68.2 1.2.43 1.54.7.34.29.5.7.5 1.27 0 .65-.26 1.14-.8 1.47-.53.33-1.2.5-1.99.5-1.05 0-1.91-.3-2.6-.9l.7-.8c.27.2.56.37.89.49.32.12.66.19 1.01.19.43 0 .76-.08 1-.23zm7.2 0a.7.7 0 0 0 .37-.63.84.84 0 0 0-.1-.45.98.98 0 0 0-.44-.32c-.22-.1-.54-.2-.97-.32a4.2 4.2 0 0 1-1.57-.68 1.43 1.43 0 0 1-.52-1.19c0-.55.23-1 .68-1.33.46-.33 1.08-.5 1.85-.5a4 4 0 0 1 2.41.74l-.57.85a3.2 3.2 0 0 0-1.8-.56c-.8 0-1.2.23-1.2.7 0 .15.04.28.14.39.09.1.25.2.47.3.22.08.56.19 1 .31.68.2 1.2.43 1.54.7.34.29.5.7.5 1.27 0 .65-.26 1.14-.8 1.47-.53.33-1.2.5-1.99.5-1.05 0-1.91-.3-2.6-.9l.7-.8c.27.2.56.37.89.49.32.12.66.19 1.01.19.43 0 .76-.08 1-.23zm16.05.08c.08.11.2.2.38.25l-.32.92c-.66-.08-1.1-.38-1.3-.88-.24.29-.53.5-.87.65a2.9 2.9 0 0 1-1.15.23c-.64 0-1.15-.18-1.52-.54a1.89 1.89 0 0 1-.57-1.43c0-.67.26-1.18.79-1.54a3.9 3.9 0 0 1 2.22-.54h.9v-.4c0-.4-.12-.7-.36-.88a1.7 1.7 0 0 0-1.04-.28 6.53 6.53 0 0 0-1.68.32l-.34-.94c.76-.29 1.5-.43 2.22-.43.84 0 1.48.18 1.9.55.42.37.64.89.64 1.57v2.83c0 .24.03.42.1.54zm-2.05-.03c.26-.15.46-.35.61-.6v-1.4h-.74c-.6 0-1.05.1-1.33.3-.28.2-.42.5-.42.88 0 .34.09.6.27.77.18.17.44.26.8.26.28 0 .55-.07.8-.21zm9.99-4.98c-.24.08-.5.13-.79.16-.3.03-.64.04-1.05.04.38.18.67.4.86.66.2.26.3.58.3.96a2 2 0 0 1-1.18 1.86 3 3 0 0 1-1.34.28 2.8 2.8 0 0 1-.86-.11.67.67 0 0 0-.2.23.63.63 0 0 0-.08.3c0 .32.26.48.78.48h1.1a3 3 0 0 1 1.2.22c.36.16.63.37.83.63.2.27.3.57.3.91 0 .63-.28 1.12-.82 1.47-.55.35-1.33.52-2.35.52-.72 0-1.28-.07-1.69-.22a1.6 1.6 0 0 1-.88-.65 2.1 2.1 0 0 1-.25-1.1h1.2c0 .24.04.43.13.57.1.14.26.25.49.32.23.06.57.1 1 .1a3 3 0 0 0 1.39-.24.75.75 0 0 0 .42-.69.67.67 0 0 0-.33-.59 1.65 1.65 0 0 0-.9-.21h-1.09c-.57 0-1-.12-1.29-.35-.29-.23-.44-.52-.44-.87 0-.22.06-.43.18-.63s.3-.37.52-.51c-.38-.2-.65-.45-.82-.73a2 2 0 0 1-.26-1.05 2.08 2.08 0 0 1 1.27-1.96c.4-.19.86-.28 1.37-.28.69 0 1.23-.04 1.64-.15.4-.1.83-.27 1.29-.49l.35 1.12zm-4.23.8c-.21.24-.32.56-.32.96 0 .4.1.73.33.97.22.23.54.35.96.35.4 0 .7-.12.92-.35.2-.23.3-.56.3-1 0-.85-.4-1.28-1.23-1.28-.42 0-.74.12-.96.36zm10.7 4.2c.07.12.19.2.37.26l-.32.92c-.66-.08-1.1-.38-1.3-.88-.24.29-.53.5-.87.65a2.9 2.9 0 0 1-1.15.23c-.64 0-1.15-.18-1.52-.54a1.89 1.89 0 0 1-.57-1.43c0-.67.26-1.18.79-1.54a3.9 3.9 0 0 1 2.22-.54h.9v-.4c0-.4-.12-.7-.36-.88a1.7 1.7 0 0 0-1.04-.28 6.53 6.53 0 0 0-1.68.32l-.34-.94c.76-.29 1.5-.43 2.22-.43.84 0 1.48.18 1.9.55.42.37.64.89.64 1.57v2.83c0 .24.03.42.1.54zm-2.06-.02c.26-.15.46-.35.61-.6v-1.4h-.74c-.6 0-1.05.1-1.33.3-.28.2-.42.5-.42.88 0 .34.09.6.27.77.18.17.44.26.8.26.28 0 .55-.07.8-.21zm7.46-8.16c.16.17.25.37.25.6a.8.8 0 0 1-.25.6.86.86 0 0 1-.63.25.86.86 0 0 1-.64-.24.81.81 0 0 1-.24-.6c0-.25.09-.45.25-.61a.86.86 0 0 1 .63-.24c.26 0 .47.08.63.24zm.3 8.22h1.72V13H70.5v-.98h1.88V7.65h-1.82v-.99h3.16v5.36zm3.74-5.36h1.16l.1.83c.26-.32.57-.56.93-.74.35-.17.73-.25 1.12-.25.58 0 1.02.16 1.32.49.3.33.44.79.44 1.39V13H81.2V9.05c0-.39-.02-.7-.07-.9a.77.77 0 0 0-.25-.47c-.13-.1-.32-.15-.58-.15-.29 0-.56.09-.82.26-.26.18-.48.4-.67.66V13h-1.34V6.66z"/></g></g></svg>