<svg xmlns="http://www.w3.org/2000/svg" xmlns:xlink="http://www.w3.org/1999/xlink" viewBox="0 0 360 100"><defs><rect id="a" width="178" height="30" rx="2"/></defs><g fill="none" fill-rule="evenodd" transform="translate(91 15)"><g transform="translate(0 26)"><use fill="#FFFFFF" xlink:href="#a"/><rect width="179" height="31" x="-.5" y="-.5" stroke="#0A84FF" rx="2"/><rect width="182" height="34" x="-2" y="-2" stroke="#0A84FF" stroke-opacity=".3" stroke-width="4" opacity=".52" rx="2"/><path fill="#0C0C0D" fill-opacity=".4" d="M11.67 20v-4.58h4.68v-1.17h-4.68v-3.63h5.1V9.43h-6.42V20h1.32zm7.13 0h1.26v-7.9H18.8V20zm.63-9.5c.48 0 .88-.4.88-.88s-.4-.88-.88-.88-.88.4-.88.88.4.88.88.88zm3.03 9.5h1.26v-4.9c0-1.1.87-1.91 2.07-1.91.25 0 .7.04.81.07V12a5.41 5.41 0 0 0-.63-.03c-1.05 0-1.96.54-2.19 1.3h-.12V12.1h-1.2V20zm8.64-6.92c-1.26 0-2.13.92-2.23 2.32h4.35c-.03-1.4-.86-2.32-2.12-2.32zm2.08 4.88h1.26c-.38 1.35-1.6 2.18-3.32 2.18-2.2 0-3.56-1.58-3.56-4.08 0-2.48 1.4-4.1 3.56-4.1 2.13 0 3.43 1.52 3.43 3.98v.48h-5.68v.06c.07 1.56.94 2.55 2.28 2.55 1.02 0 1.7-.38 2.03-1.07zM37.05 20h1.26v-6.84h1.81V12.1h-1.8v-.73c0-.88.42-1.27 1.17-1.27.25 0 .54.03.7.07V9.12c-.3-.06-.52-.08-.77-.08-1.53 0-2.37.68-2.37 2.3v.76h-1.3v1.06h1.3V20zm7.82.14c-2.25 0-3.64-1.55-3.64-4.09s1.39-4.08 3.64-4.08 3.64 1.54 3.64 4.08-1.4 4.09-3.64 4.09zm0-1.14c1.5 0 2.33-1.08 2.33-2.95s-.84-2.95-2.33-2.95c-1.5 0-2.34 1.08-2.34 2.95S43.37 19 44.87 19zm8.05-1.98L54.78 20h1.5l-2.72-4 2.68-3.9h-1.43l-1.85 2.94h-.12l-1.87-2.94h-1.5l2.73 3.95L49.5 20h1.42l1.88-2.98h.12zm10.73-3.43c-.98 0-1.56.76-1.56 2.04s.59 2.06 1.55 2.06c1 0 1.65-.8 1.65-2.06 0-1.25-.64-2.04-1.64-2.04zm.26-4.1c3.46 0 5.87 2.21 5.87 5.39 0 2.39-1.07 3.9-2.75 3.9-.86 0-1.52-.5-1.61-1.23h-.12a1.88 1.88 0 0 1-1.83 1.17c-1.52 0-2.55-1.25-2.55-3.11 0-1.78 1.05-3.03 2.55-3.03.77 0 1.43.4 1.71 1.03h.12v-.89h1.1v4.3c0 .51.3.81.83.81.93 0 1.52-1.16 1.52-2.96 0-2.65-2-4.46-4.94-4.46-2.86 0-4.92 2.19-4.92 5.23 0 3.13 2.02 5.14 5.16 5.14 1 0 2-.14 2.45-.35v.92a7.9 7.9 0 0 1-2.47.36c-3.78 0-6.17-2.37-6.17-6.11 0-3.63 2.46-6.11 6.05-6.11zM71.77 20h1.26v-4.9c0-1.1.8-2 1.83-2 1 0 1.65.6 1.65 1.54V20h1.26v-5.08c0-1 .73-1.82 1.83-1.82 1.11 0 1.66.57 1.66 1.74V20h1.26v-5.46c0-1.65-.9-2.57-2.51-2.57-1.1 0-2 .54-2.42 1.38h-.12a2.28 2.28 0 0 0-2.18-1.38c-1.05 0-1.84.5-2.2 1.38h-.12V12.1h-1.2V20zm16.3.14c-2.25 0-3.65-1.55-3.65-4.09s1.4-4.08 3.64-4.08c2.25 0 3.65 1.54 3.65 4.08s-1.4 4.09-3.65 4.09zm0-1.14c1.49 0 2.33-1.08 2.33-2.95s-.84-2.95-2.34-2.95c-1.49 0-2.33 1.08-2.33 2.95S86.57 19 88.06 19zm5.21 1h6.08v-1.05H94.8v-.12l4.54-5.78v-.95h-6.05v1.06h4.55v.12l-4.56 5.8V20zm8.3 0h1.26v-7.9h-1.26V20zm.63-9.5c.48 0 .88-.4.88-.88s-.4-.88-.88-.88a.88.88 0 0 0 0 1.76zm3.1 9.5h1.26V8.97h-1.26V20zm3.78 0h1.26V8.97h-1.26V20zm6.14-.97c1.3 0 2.26-.85 2.26-1.97v-.73l-2.13.14c-1.2.08-1.73.5-1.73 1.29 0 .8.68 1.27 1.6 1.27zm-.23 1.1c-1.53 0-2.67-.9-2.67-2.34 0-1.42 1.04-2.23 2.88-2.34l2.28-.14v-.72c0-.97-.61-1.5-1.8-1.5-.94 0-1.6.35-1.77.98h-1.27c.16-1.27 1.4-2.1 3.1-2.1 1.92 0 3 .98 3 2.62V20h-1.2v-1.16h-.12a2.73 2.73 0 0 1-2.43 1.3zm7.12-.06a.95.95 0 1 0 0 0zm9.65-5.55c-.22-1.4-1.4-2.55-3.31-2.55-2.21 0-3.62 1.6-3.62 4.05 0 2.52 1.41 4.12 3.63 4.12 1.9 0 3.07-1.07 3.3-2.52h-1.28c-.23.9-.97 1.38-2.03 1.38-1.4 0-2.32-1.15-2.32-2.98 0-1.78.9-2.92 2.32-2.92 1.13 0 1.83.64 2.03 1.42h1.28zm5.1 5.62c-2.25 0-3.64-1.55-3.64-4.09s1.4-4.08 3.64-4.08c2.25 0 3.64 1.54 3.64 4.08s-1.39 4.09-3.64 4.09zm0-1.14c1.5 0 2.34-1.08 2.34-2.95s-.84-2.95-2.34-2.95-2.33 1.08-2.33 2.95.84 2.95 2.33 2.95zm5.62 1h1.26v-4.9c0-1.1.8-2 1.83-2 1 0 1.65.6 1.65 1.54V20h1.26v-5.08c0-1 .73-1.82 1.83-1.82 1.11 0 1.66.57 1.66 1.74V20h1.26v-5.46c0-1.65-.9-2.57-2.5-2.57-1.1 0-2 .54-2.43 1.38h-.11a2.28 2.28 0 0 0-2.19-1.38c-1.05 0-1.84.5-2.2 1.38h-.12V12.1h-1.2V20z"/><polygon fill="#000000" points="10.344 22.53 9.26 22.53 9.26 7.53 10.344 7.53"/></g><path fill="#0C0C0D" d="M6.02 16H1.19V6.9h4.62v.96H2.26v3.03h3.29v.96H2.26v3.19h3.76V16zm10.84 0h-1.04v-3.73c0-.72-.11-1.24-.33-1.56-.23-.33-.6-.49-1.13-.49-.44 0-.82.2-1.13.61-.3.4-.46.9-.46 1.46V16h-1.05v-3.86c0-1.28-.49-1.92-1.47-1.92-.46 0-.84.2-1.13.58-.3.38-.45.88-.45 1.5V16H7.63V9.5h1.04v1.03h.03a2.2 2.2 0 0 1 2.01-1.18 1.88 1.88 0 0 1 1.85 1.34c.48-.9 1.2-1.34 2.15-1.34 1.43 0 2.15.88 2.15 2.64V16zm6.62 0h-1.04v-1.02h-.03a2.18 2.18 0 0 1-2 1.17c-.64 0-1.15-.17-1.52-.51-.36-.34-.55-.8-.55-1.37 0-1.21.72-1.92 2.15-2.12l1.95-.27c0-1.1-.45-1.66-1.34-1.66a3.2 3.2 0 0 0-2.12.8V9.96c.64-.4 1.37-.61 2.2-.61 1.54 0 2.3.8 2.3 2.42V16zm-1.04-3.29l-1.57.22c-.48.07-.85.18-1.1.36-.24.17-.36.47-.36.9a1 1 0 0 0 .34.78c.23.2.53.3.9.3.52 0 .95-.17 1.28-.54.34-.36.5-.82.5-1.37v-.65zm3.53-4.86a.66.66 0 0 1-.67-.67c0-.2.07-.36.2-.49s.29-.2.47-.2a.67.67 0 0 1 .69.69c0 .18-.07.34-.2.47-.13.13-.3.2-.49.2zm.51 8.15h-1.04V9.5h1.04V16zm3.15 0H28.6V6.38h1.04V16zm10.32 0h-1.04v-1.02h-.02a2.18 2.18 0 0 1-2 1.17c-.65 0-1.16-.17-1.52-.51-.37-.34-.55-.8-.55-1.37 0-1.21.71-1.92 2.14-2.12l1.95-.27c0-1.1-.45-1.66-1.34-1.66a3.2 3.2 0 0 0-2.12.8V9.96c.64-.4 1.38-.61 2.21-.61 1.53 0 2.3.8 2.3 2.42V16zm-1.04-3.29l-1.57.22c-.48.07-.84.18-1.09.36-.24.17-.37.47-.37.9a1 1 0 0 0 .34.78c.23.2.53.3.9.3.52 0 .95-.17 1.29-.54.33-.36.5-.82.5-1.37v-.65zM47.46 16h-1.04v-1.1h-.02a2.4 2.4 0 0 1-2.24 1.25c-.82 0-1.47-.29-1.96-.87a3.58 3.58 0 0 1-.73-2.38c0-1.07.27-1.93.81-2.58a2.68 2.68 0 0 1 2.17-.97c.89 0 1.54.35 1.95 1.05h.02V6.38h1.04V16zm-1.04-2.94v-.96c0-.52-.17-.97-.52-1.33a1.75 1.75 0 0 0-1.32-.55 1.8 1.8 0 0 0-1.5.7c-.36.47-.54 1.11-.54 1.93 0 .75.17 1.34.52 1.78.35.43.82.65 1.4.65.59 0 1.06-.21 1.42-.63.36-.42.54-.95.54-1.59zm8.7 2.94h-1.04v-1.1h-.03a2.4 2.4 0 0 1-2.23 1.25c-.82 0-1.47-.29-1.96-.87a3.58 3.58 0 0 1-.74-2.38c0-1.07.28-1.93.82-2.58a2.68 2.68 0 0 1 2.16-.97c.9 0 1.54.35 1.95 1.05h.03V6.38h1.04V16zm-1.04-2.94v-.96c0-.52-.18-.97-.52-1.33a1.75 1.75 0 0 0-1.33-.55 1.8 1.8 0 0 0-1.5.7c-.36.47-.54 1.11-.54 1.93 0 .75.18 1.34.52 1.78.35.43.82.65 1.41.65.58 0 1.05-.21 1.41-.63.36-.42.55-.95.55-1.59zm6.53-2.5c-.18-.15-.44-.22-.78-.22-.45 0-.82.21-1.12.63-.3.42-.44 1-.44 1.72V16h-1.05V9.5h1.05v1.34h.02c.15-.46.38-.81.68-1.07.3-.26.65-.38 1.02-.38.27 0 .48.03.62.08v1.08zM66.97 13h-4.6c.03.72.22 1.28.6 1.68.36.39.88.59 1.53.59.73 0 1.4-.24 2.02-.73v.98c-.57.41-1.33.62-2.27.62-.92 0-1.64-.3-2.16-.88a3.62 3.62 0 0 1-.8-2.5c0-1 .3-1.83.87-2.47a2.76 2.76 0 0 1 2.14-.95c.85 0 1.5.27 1.97.82.47.55.7 1.32.7 2.3V13zm-1.07-.88c0-.6-.15-1.07-.43-1.4-.29-.34-.69-.5-1.2-.5-.48 0-.9.17-1.24.52a2.4 2.4 0 0 0-.64 1.38h3.51zm2.25 3.64v-1.12c.57.42 1.19.63 1.87.63.92 0 1.37-.3 1.37-.92a.8.8 0 0 0-.12-.44 1.17 1.17 0 0 0-.31-.32c-.14-.1-.3-.18-.47-.25a30.3 30.3 0 0 0-.58-.23 7.48 7.48 0 0 1-.76-.35 2.3 2.3 0 0 1-.55-.4 1.46 1.46 0 0 1-.33-.49c-.07-.19-.1-.4-.1-.65 0-.3.06-.58.2-.81.14-.24.33-.43.56-.6.23-.15.5-.27.8-.35a3.73 3.73 0 0 1 2.43.17v1.05a2.94 2.94 0 0 0-2.18-.4c-.15.04-.29.1-.4.19a.87.87 0 0 0-.26.29.76.76 0 0 0-.1.37c0 .17.04.3.1.42.06.12.15.22.27.3.12.1.26.18.43.25l.58.23c.29.11.54.23.77.34.23.12.43.25.59.4.16.14.28.31.37.5.09.2.13.42.13.68 0 .32-.07.6-.21.84-.15.24-.34.43-.57.59a2.6 2.6 0 0 1-.82.35c-.31.07-.63.11-.97.11-.67 0-1.25-.13-1.74-.38zm5.51 0v-1.12c.57.42 1.2.63 1.88.63.91 0 1.37-.3 1.37-.92a.8.8 0 0 0-.12-.44 1.17 1.17 0 0 0-.32-.32c-.13-.1-.29-.18-.47-.25a30.3 30.3 0 0 0-.58-.23 7.48 7.48 0 0 1-.76-.35 2.3 2.3 0 0 1-.54-.4 1.46 1.46 0 0 1-.33-.49c-.08-.19-.11-.4-.11-.65 0-.3.07-.58.2-.81.15-.24.33-.43.57-.6.23-.15.5-.27.8-.35a3.73 3.73 0 0 1 2.43.17v1.05a2.94 2.94 0 0 0-2.18-.4c-.16.04-.3.1-.4.19a.87.87 0 0 0-.26.29.76.76 0 0 0-.1.37c0 .17.03.3.1.42.06.12.15.22.27.3.11.1.26.18.43.25l.57.23c.3.11.55.23.78.34.23.12.42.25.58.4.16.14.29.31.37.5.1.2.13.42.13.68 0 .32-.07.6-.2.84-.15.24-.34.43-.58.59a2.6 2.6 0 0 1-.81.35c-.31.07-.64.11-.98.11-.66 0-1.24-.13-1.74-.38z"/></g></svg>