<svg xmlns="http://www.w3.org/2000/svg" width="360" height="122" viewBox="0 0 360 122">
  <g fill="none" fill-rule="evenodd">
    <path fill="#00BDDF" fill-rule="nonzero" d="M77,47 C76.4477153,47 76,47.4477153 76,48 L76,74 C76,74.5522847 76.4477153,75 77,75 L283,75 C283.552285,75 284,74.5522847 284,74 L284,48 C284,47.4477153 283.552285,47 283,47 L77,47 Z M77,46 L283,46 C284.104569,46 285,46.8954305 285,48 L285,74 C285,75.1045695 284.104569,76 283,76 L77,76 C75.8954305,76 75,75.1045695 75,74 L75,48 C75,46.8954305 75.8954305,46 77,46 Z"/>
    <path fill="#B1EDF6" fill-rule="nonzero" d="M77,46 C75.8954305,46 75,46.8954305 75,48 L75,74 C75,75.1045695 75.8954305,76 77,76 L283,76 C284.104569,76 285,75.1045695 285,74 L285,48 C285,46.8954305 284.104569,46 283,46 L77,46 Z M77,45 L283,45 C284.656854,45 286,46.3431458 286,48 L286,74 C286,75.6568542 284.656854,77 283,77 L77,77 C75.3431458,77 74,75.6568542 74,74 L74,48 C74,46.3431458 75.3431458,45 77,45 Z"/>
    <path fill="#DFF8FB" fill-rule="nonzero" d="M77,46 C75.8954305,46 75,46.8954305 75,48 L75,74 C75,75.1045695 75.8954305,76 77,76 L283,76 C284.104569,76 285,75.1045695 285,74 L285,48 C285,46.8954305 284.104569,46 283,46 L77,46 Z M77,43 L283,43 C285.761424,43 288,45.2385763 288,48 L288,74 C288,76.7614237 285.761424,79 283,79 L77,79 C74.2385763,79 72,76.7614237 72,74 L72,48 C72,45.2385763 74.2385763,43 77,43 Z"/>
    <path fill="#0C0C0D" fill-rule="nonzero" d="M9.30537097,10.7195845 C8.91580555,10.3300191 8.91386021,9.70035412 9.30710716,9.30710716 L9.30710716,9.30710716 C9.69763145,8.91658287 10.3298038,8.9155902 10.7195845,9.30537097 L15.6728044,14.2585908 C16.0623698,14.6481562 16.0643151,15.2778212 15.6710682,15.6710682 L15.6710682,15.6710682 C15.2805439,16.0615925 14.6483716,16.0625852 14.2585908,15.6728044 L9.30537097,10.7195845 Z M6.03796923,12.0379692 C2.72426073,12.0379692 0.0379692297,9.35167773 0.0379692297,6.03796923 C0.0379692297,2.72426073 2.72426073,0.0379692297 6.03796923,0.0379692297 C9.35167773,0.0379692297 12.0379692,2.72426073 12.0379692,6.03796923 C12.0379692,7.62926817 11.4058282,9.15539165 10.2806099,10.2806099 C9.15539165,11.4058282 7.62926817,12.0379692 6.03796923,12.0379692 Z M6.03796923,10.0379692 C7.09883519,10.0379692 8.11625084,9.61654187 8.86639635,8.86639635 C9.61654187,8.11625084 10.0379692,7.09883519 10.0379692,6.03796923 C10.0379692,3.82883023 8.24710823,2.03796923 6.03796923,2.03796923 C3.82883023,2.03796923 2.03796923,3.82883023 2.03796923,6.03796923 C2.03796923,8.24710823 3.82883023,10.0379692 6.03796923,10.0379692 Z" opacity=".4" transform="matrix(-1 0 0 1 99 53)"/>
    <path fill="#0C0C0D" fill-opacity=".4" d="M107.842285,63.2387695 C107.981445,65.0625 109.526855,66.2490234 111.768066,66.2490234 C114.185059,66.2490234 115.71582,65.0112305 115.71582,63.0703125 C115.71582,61.5175781 114.836914,60.6679688 112.646973,60.1186523 L111.541016,59.8256836 C110.083496,59.4521484 109.504883,58.9760742 109.504883,58.1484375 C109.504883,57.0791016 110.435059,56.3759766 111.841309,56.3759766 C113.159668,56.3759766 114.053223,57.0205078 114.236328,58.1044922 L115.562012,58.1044922 C115.452148,56.3979492 113.928711,55.1821289 111.885254,55.1821289 C109.651367,55.1821289 108.149902,56.3979492 108.149902,58.1923828 C108.149902,59.6938477 108.977539,60.5581055 110.88916,61.0415039 L112.244141,61.3930664 C113.70166,61.7592773 114.36084,62.3305664 114.36084,63.2314453 C114.36084,64.2788086 113.313477,65.0478516 111.892578,65.0478516 C110.391113,65.0478516 109.336426,64.3447266 109.175293,63.2387695 L107.842285,63.2387695 Z M120.894043,59.0786133 C119.634277,59.0786133 118.755371,60.0014648 118.660156,61.4003906 L123.010742,61.4003906 C122.981445,60.0014648 122.146484,59.0786133 120.894043,59.0786133 Z M122.974121,63.956543 L124.233887,63.956543 C123.853027,65.3115234 122.637207,66.1391602 120.908691,66.1391602 C118.71875,66.1391602 117.349121,64.5571289 117.349121,62.0595703 C117.349121,59.5766602 118.740723,57.965332 120.908691,57.965332 C123.040039,57.965332 124.336426,59.4814453 124.336426,61.9350586 L124.336426,62.418457 L118.660156,62.418457 L118.660156,62.4770508 C118.726074,64.0371094 119.597656,65.0258789 120.937988,65.0258789 C121.956055,65.0258789 122.644531,64.6523438 122.974121,63.956543 Z M128.745605,65.0332031 C130.041992,65.0332031 131.001465,64.1835938 131.001465,63.0556641 L131.001465,62.3305664 L128.877441,62.4697266 C127.67627,62.550293 127.148926,62.9677734 127.148926,63.7587891 C127.148926,64.5644531 127.830078,65.0332031 128.745605,65.0332031 Z M128.51123,66.1391602 C126.980469,66.1391602 125.845215,65.230957 125.845215,63.7880859 C125.845215,62.3745117 126.885254,61.5615234 128.723633,61.4516602 L131.001465,61.3125 L131.001465,60.5947266 C131.001465,59.6206055 130.393555,59.0859375 129.214355,59.0859375 C128.269531,59.0859375 127.610352,59.4448242 127.43457,60.0673828 L126.160156,60.0673828 C126.328613,58.800293 127.57373,57.965332 129.258301,57.965332 C131.18457,57.965332 132.26123,58.9541016 132.26123,60.5947266 L132.26123,66 L131.060059,66 L131.060059,64.8354492 L130.942871,64.8354492 C130.430176,65.6777344 129.565918,66.1391602 128.51123,66.1391602 Z M134.590332,66 L135.850098,66 L135.850098,61.1074219 C135.850098,59.9941406 136.72168,59.1884766 137.922852,59.1884766 C138.171875,59.1884766 138.625977,59.2324219 138.728516,59.2617188 L138.728516,58.0019531 C138.567383,57.9799805 138.303711,57.965332 138.098633,57.965332 C137.05127,57.965332 136.143066,58.5073242 135.908691,59.2763672 L135.791504,59.2763672 L135.791504,58.1044922 L134.590332,58.1044922 L134.590332,66 Z M146.616699,60.5214844 C146.396973,59.1152344 145.225098,57.965332 143.306152,57.965332 C141.094238,57.965332 139.687988,59.5620117 139.687988,62.0229492 C139.687988,64.5351562 141.101562,66.1391602 143.313477,66.1391602 C145.210449,66.1391602 146.389648,65.0698242 146.616699,63.6196289 L145.342285,63.6196289 C145.10791,64.5131836 144.368164,65.0039062 143.306152,65.0039062 C141.899902,65.0039062 140.991699,63.8466797 140.991699,62.0229492 C140.991699,60.2358398 141.885254,59.1005859 143.306152,59.1005859 C144.441406,59.1005859 145.137207,59.737793 145.342285,60.5214844 L146.616699,60.5214844 Z M148.550293,66 L149.810059,66 L149.810059,61.3271484 C149.810059,59.9941406 150.586426,59.1005859 152,59.1005859 C153.193848,59.1005859 153.82373,59.7963867 153.82373,61.1953125 L153.82373,66 L155.083496,66 L155.083496,60.8876953 C155.083496,59.034668 154.028809,57.965332 152.358887,57.965332 C151.150391,57.965332 150.322754,58.4780273 149.927246,59.3496094 L149.810059,59.3496094 L149.810059,54.9697266 L148.550293,54.9697266 L148.550293,66 Z M167.644531,57.6577148 L167.732422,57.6577148 L170.164062,66 L171.40918,66 L174.287598,55.4311523 L172.910645,55.4311523 L170.808594,64.0224609 L170.720703,64.0224609 L168.35498,55.4311523 L167.021973,55.4311523 L164.65625,64.0224609 L164.568359,64.0224609 L162.466309,55.4311523 L161.089355,55.4311523 L163.967773,66 L165.212891,66 L167.644531,57.6577148 Z M178.550293,59.0786133 C177.290527,59.0786133 176.411621,60.0014648 176.316406,61.4003906 L180.666992,61.4003906 C180.637695,60.0014648 179.802734,59.0786133 178.550293,59.0786133 Z M180.630371,63.956543 L181.890137,63.956543 C181.509277,65.3115234 180.293457,66.1391602 178.564941,66.1391602 C176.375,66.1391602 175.005371,64.5571289 175.005371,62.0595703 C175.005371,59.5766602 176.396973,57.965332 178.564941,57.965332 C180.696289,57.965332 181.992676,59.4814453 181.992676,61.9350586 L181.992676,62.418457 L176.316406,62.418457 L176.316406,62.4770508 C176.382324,64.0371094 177.253906,65.0258789 178.594238,65.0258789 C179.612305,65.0258789 180.300781,64.6523438 180.630371,63.956543 Z M187.895996,66.1391602 C186.797363,66.1391602 185.859863,65.6191406 185.361816,64.7402344 L185.244629,64.7402344 L185.244629,66 L184.043457,66 L184.043457,54.9697266 L185.303223,54.9697266 L185.303223,59.3496094 L185.42041,59.3496094 C185.852539,58.5 186.812012,57.965332 187.895996,57.965332 C189.902832,57.965332 191.206543,59.5693359 191.206543,62.0522461 C191.206543,64.5205078 189.895508,66.1391602 187.895996,66.1391602 Z M187.603027,59.1005859 C186.16748,59.1005859 185.273926,60.2285156 185.273926,62.0522461 C185.273926,63.8759766 186.16748,65.0039062 187.603027,65.0039062 C189.045898,65.0039062 189.902832,63.8979492 189.902832,62.0522461 C189.902832,60.206543 189.045898,59.1005859 187.603027,59.1005859 Z M193.000977,60.2651367 C193.000977,61.4077148 193.674805,62.0449219 195.154297,62.4038086 L196.509277,62.7333984 C197.351562,62.9384766 197.761719,63.3046875 197.761719,63.8466797 C197.761719,64.5717773 197,65.0771484 195.937988,65.0771484 C194.927246,65.0771484 194.297363,64.6523438 194.084961,63.9858398 L192.788574,63.9858398 C192.927734,65.296875 194.13623,66.1391602 195.894043,66.1391602 C197.688477,66.1391602 199.058105,65.1650391 199.058105,63.7514648 C199.058105,62.6162109 198.340332,61.9716797 196.853516,61.612793 L195.637695,61.3198242 C194.70752,61.0927734 194.268066,60.7558594 194.268066,60.2138672 C194.268066,59.5107422 195.000488,59.034668 195.937988,59.034668 C196.890137,59.034668 197.505371,59.4521484 197.673828,60.0820312 L198.918945,60.0820312 C198.750488,58.7856445 197.600586,57.965332 195.945312,57.965332 C194.268066,57.965332 193.000977,58.9541016 193.000977,60.2651367 Z M201.064941,66 L202.324707,66 L202.324707,58.1044922 L201.064941,58.1044922 L201.064941,66 Z M201.694824,56.5004883 C202.178223,56.5004883 202.57373,56.1049805 202.57373,55.621582 C202.57373,55.1381836 202.178223,54.7426758 201.694824,54.7426758 C201.211426,54.7426758 200.815918,55.1381836 200.815918,55.621582 C200.815918,56.1049805 201.211426,56.5004883 201.694824,56.5004883 Z M205.254395,56.0610352 L205.254395,58.1044922 L203.97998,58.1044922 L203.97998,59.1591797 L205.254395,59.1591797 L205.254395,63.9492188 C205.254395,65.4580078 205.90625,66.0585938 207.532227,66.0585938 C207.78125,66.0585938 208.022949,66.0292969 208.271973,65.9853516 L208.271973,64.9233398 C208.037598,64.9453125 207.913086,64.9526367 207.686035,64.9526367 C206.865723,64.9526367 206.51416,64.5571289 206.51416,63.6269531 L206.51416,59.1591797 L208.271973,59.1591797 L208.271973,58.1044922 L206.51416,58.1044922 L206.51416,56.0610352 L205.254395,56.0610352 Z M213.21582,59.0786133 C211.956055,59.0786133 211.077148,60.0014648 210.981934,61.4003906 L215.33252,61.4003906 C215.303223,60.0014648 214.468262,59.0786133 213.21582,59.0786133 Z M215.295898,63.956543 L216.555664,63.956543 C216.174805,65.3115234 214.958984,66.1391602 213.230469,66.1391602 C211.040527,66.1391602 209.670898,64.5571289 209.670898,62.0595703 C209.670898,59.5766602 211.0625,57.965332 213.230469,57.965332 C215.361816,57.965332 216.658203,59.4814453 216.658203,61.9350586 L216.658203,62.418457 L210.981934,62.418457 L210.981934,62.4770508 C211.047852,64.0371094 211.919434,65.0258789 213.259766,65.0258789 C214.277832,65.0258789 214.966309,64.6523438 215.295898,63.956543 Z M218.452637,60.2651367 C218.452637,61.4077148 219.126465,62.0449219 220.605957,62.4038086 L221.960938,62.7333984 C222.803223,62.9384766 223.213379,63.3046875 223.213379,63.8466797 C223.213379,64.5717773 222.45166,65.0771484 221.389648,65.0771484 C220.378906,65.0771484 219.749023,64.6523438 219.536621,63.9858398 L218.240234,63.9858398 C218.379395,65.296875 219.587891,66.1391602 221.345703,66.1391602 C223.140137,66.1391602 224.509766,65.1650391 224.509766,63.7514648 C224.509766,62.6162109 223.791992,61.9716797 222.305176,61.612793 L221.089355,61.3198242 C220.15918,61.0927734 219.719727,60.7558594 219.719727,60.2138672 C219.719727,59.5107422 220.452148,59.034668 221.389648,59.034668 C222.341797,59.034668 222.957031,59.4521484 223.125488,60.0820312 L224.370605,60.0820312 C224.202148,58.7856445 223.052246,57.965332 221.396973,57.965332 C219.719727,57.965332 218.452637,58.9541016 218.452637,60.2651367 Z"/>
    <polygon fill="#000" points="108.344 68.53 107.26 68.53 107.26 53.53 108.344 53.53"/>
  </g>
</svg>
