<svg xmlns="http://www.w3.org/2000/svg" width="504" height="120" viewBox="0 0 504 120">
  <g fill="none" fill-rule="evenodd">
    <path fill="#0C0C0D" fill-opacity=".3" fill-rule="nonzero" d="M166,46 C165.447715,46 165,46.4477153 165,47 L165,73 C165,73.5522847 165.447715,74 166,74 L340,74 C340.552285,74 341,73.5522847 341,73 L341,47 C341,46.4477153 340.552285,46 340,46 L166,46 Z M166,45 L340,45 C341.104569,45 342,45.8954305 342,47 L342,73 C342,74.1045695 341.104569,75 340,75 L166,75 C164.895431,75 164,74.1045695 164,73 L164,47 C164,45.8954305 164.895431,45 166,45 Z"/>
    <path fill="#0C0C0D" fill-rule="nonzero" d="M9.30537097,10.7195845 C8.91580555,10.3300191 8.91386021,9.70035412 9.30710716,9.30710716 L9.30710716,9.30710716 C9.69763145,8.91658287 10.3298038,8.9155902 10.7195845,9.30537097 L15.6728044,14.2585908 C16.0623698,14.6481562 16.0643151,15.2778212 15.6710682,15.6710682 L15.6710682,15.6710682 C15.2805439,16.0615925 14.6483716,16.0625852 14.2585908,15.6728044 L9.30537097,10.7195845 Z M6.03796923,12.0379692 C2.72426073,12.0379692 0.0379692297,9.35167773 0.0379692297,6.03796923 C0.0379692297,2.72426073 2.72426073,0.0379692297 6.03796923,0.0379692297 C9.35167773,0.0379692297 12.0379692,2.72426073 12.0379692,6.03796923 C12.0379692,7.62926817 11.4058282,9.15539165 10.2806099,10.2806099 C9.15539165,11.4058282 7.62926817,12.0379692 6.03796923,12.0379692 Z M6.03796923,10.0379692 C7.09883519,10.0379692 8.11625084,9.61654187 8.86639635,8.86639635 C9.61654187,8.11625084 10.0379692,7.09883519 10.0379692,6.03796923 C10.0379692,3.82883023 8.24710823,2.03796923 6.03796923,2.03796923 C3.82883023,2.03796923 2.03796923,3.82883023 2.03796923,6.03796923 C2.03796923,8.24710823 3.82883023,10.0379692 6.03796923,10.0379692 Z" opacity=".4" transform="matrix(-1 0 0 1 188 52)"/>
    <path fill="#0C0C0D" fill-opacity=".4" d="M196.842285,62.2387695 C196.981445,64.0625 198.526855,65.2490234 200.768066,65.2490234 C203.185059,65.2490234 204.71582,64.0112305 204.71582,62.0703125 C204.71582,60.5175781 203.836914,59.6679688 201.646973,59.1186523 L200.541016,58.8256836 C199.083496,58.4521484 198.504883,57.9760742 198.504883,57.1484375 C198.504883,56.0791016 199.435059,55.3759766 200.841309,55.3759766 C202.159668,55.3759766 203.053223,56.0205078 203.236328,57.1044922 L204.562012,57.1044922 C204.452148,55.3979492 202.928711,54.1821289 200.885254,54.1821289 C198.651367,54.1821289 197.149902,55.3979492 197.149902,57.1923828 C197.149902,58.6938477 197.977539,59.5581055 199.88916,60.0415039 L201.244141,60.3930664 C202.70166,60.7592773 203.36084,61.3305664 203.36084,62.2314453 C203.36084,63.2788086 202.313477,64.0478516 200.892578,64.0478516 C199.391113,64.0478516 198.336426,63.3447266 198.175293,62.2387695 L196.842285,62.2387695 Z M209.894043,58.0786133 C208.634277,58.0786133 207.755371,59.0014648 207.660156,60.4003906 L212.010742,60.4003906 C211.981445,59.0014648 211.146484,58.0786133 209.894043,58.0786133 Z M211.974121,62.956543 L213.233887,62.956543 C212.853027,64.3115234 211.637207,65.1391602 209.908691,65.1391602 C207.71875,65.1391602 206.349121,63.5571289 206.349121,61.0595703 C206.349121,58.5766602 207.740723,56.965332 209.908691,56.965332 C212.040039,56.965332 213.336426,58.4814453 213.336426,60.9350586 L213.336426,61.418457 L207.660156,61.418457 L207.660156,61.4770508 C207.726074,63.0371094 208.597656,64.0258789 209.937988,64.0258789 C210.956055,64.0258789 211.644531,63.6523438 211.974121,62.956543 Z M217.745605,64.0332031 C219.041992,64.0332031 220.001465,63.1835938 220.001465,62.0556641 L220.001465,61.3305664 L217.877441,61.4697266 C216.67627,61.550293 216.148926,61.9677734 216.148926,62.7587891 C216.148926,63.5644531 216.830078,64.0332031 217.745605,64.0332031 Z M217.51123,65.1391602 C215.980469,65.1391602 214.845215,64.230957 214.845215,62.7880859 C214.845215,61.3745117 215.885254,60.5615234 217.723633,60.4516602 L220.001465,60.3125 L220.001465,59.5947266 C220.001465,58.6206055 219.393555,58.0859375 218.214355,58.0859375 C217.269531,58.0859375 216.610352,58.4448242 216.43457,59.0673828 L215.160156,59.0673828 C215.328613,57.800293 216.57373,56.965332 218.258301,56.965332 C220.18457,56.965332 221.26123,57.9541016 221.26123,59.5947266 L221.26123,65 L220.060059,65 L220.060059,63.8354492 L219.942871,63.8354492 C219.430176,64.6777344 218.565918,65.1391602 217.51123,65.1391602 Z M223.590332,65 L224.850098,65 L224.850098,60.1074219 C224.850098,58.9941406 225.72168,58.1884766 226.922852,58.1884766 C227.171875,58.1884766 227.625977,58.2324219 227.728516,58.2617188 L227.728516,57.0019531 C227.567383,56.9799805 227.303711,56.965332 227.098633,56.965332 C226.05127,56.965332 225.143066,57.5073242 224.908691,58.2763672 L224.791504,58.2763672 L224.791504,57.1044922 L223.590332,57.1044922 L223.590332,65 Z M235.616699,59.5214844 C235.396973,58.1152344 234.225098,56.965332 232.306152,56.965332 C230.094238,56.965332 228.687988,58.5620117 228.687988,61.0229492 C228.687988,63.5351562 230.101562,65.1391602 232.313477,65.1391602 C234.210449,65.1391602 235.389648,64.0698242 235.616699,62.6196289 L234.342285,62.6196289 C234.10791,63.5131836 233.368164,64.0039062 232.306152,64.0039062 C230.899902,64.0039062 229.991699,62.8466797 229.991699,61.0229492 C229.991699,59.2358398 230.885254,58.1005859 232.306152,58.1005859 C233.441406,58.1005859 234.137207,58.737793 234.342285,59.5214844 L235.616699,59.5214844 Z M237.550293,65 L238.810059,65 L238.810059,60.3271484 C238.810059,58.9941406 239.586426,58.1005859 241,58.1005859 C242.193848,58.1005859 242.82373,58.7963867 242.82373,60.1953125 L242.82373,65 L244.083496,65 L244.083496,59.8876953 C244.083496,58.034668 243.028809,56.965332 241.358887,56.965332 C240.150391,56.965332 239.322754,57.4780273 238.927246,58.3496094 L238.810059,58.3496094 L238.810059,53.9697266 L237.550293,53.9697266 L237.550293,65 Z M256.644531,56.6577148 L256.732422,56.6577148 L259.164062,65 L260.40918,65 L263.287598,54.4311523 L261.910645,54.4311523 L259.808594,63.0224609 L259.720703,63.0224609 L257.35498,54.4311523 L256.021973,54.4311523 L253.65625,63.0224609 L253.568359,63.0224609 L251.466309,54.4311523 L250.089355,54.4311523 L252.967773,65 L254.212891,65 L256.644531,56.6577148 Z M267.550293,58.0786133 C266.290527,58.0786133 265.411621,59.0014648 265.316406,60.4003906 L269.666992,60.4003906 C269.637695,59.0014648 268.802734,58.0786133 267.550293,58.0786133 Z M269.630371,62.956543 L270.890137,62.956543 C270.509277,64.3115234 269.293457,65.1391602 267.564941,65.1391602 C265.375,65.1391602 264.005371,63.5571289 264.005371,61.0595703 C264.005371,58.5766602 265.396973,56.965332 267.564941,56.965332 C269.696289,56.965332 270.992676,58.4814453 270.992676,60.9350586 L270.992676,61.418457 L265.316406,61.418457 L265.316406,61.4770508 C265.382324,63.0371094 266.253906,64.0258789 267.594238,64.0258789 C268.612305,64.0258789 269.300781,63.6523438 269.630371,62.956543 Z M276.895996,65.1391602 C275.797363,65.1391602 274.859863,64.6191406 274.361816,63.7402344 L274.244629,63.7402344 L274.244629,65 L273.043457,65 L273.043457,53.9697266 L274.303223,53.9697266 L274.303223,58.3496094 L274.42041,58.3496094 C274.852539,57.5 275.812012,56.965332 276.895996,56.965332 C278.902832,56.965332 280.206543,58.5693359 280.206543,61.0522461 C280.206543,63.5205078 278.895508,65.1391602 276.895996,65.1391602 Z M276.603027,58.1005859 C275.16748,58.1005859 274.273926,59.2285156 274.273926,61.0522461 C274.273926,62.8759766 275.16748,64.0039062 276.603027,64.0039062 C278.045898,64.0039062 278.902832,62.8979492 278.902832,61.0522461 C278.902832,59.206543 278.045898,58.1005859 276.603027,58.1005859 Z M282.000977,59.2651367 C282.000977,60.4077148 282.674805,61.0449219 284.154297,61.4038086 L285.509277,61.7333984 C286.351562,61.9384766 286.761719,62.3046875 286.761719,62.8466797 C286.761719,63.5717773 286,64.0771484 284.937988,64.0771484 C283.927246,64.0771484 283.297363,63.6523438 283.084961,62.9858398 L281.788574,62.9858398 C281.927734,64.296875 283.13623,65.1391602 284.894043,65.1391602 C286.688477,65.1391602 288.058105,64.1650391 288.058105,62.7514648 C288.058105,61.6162109 287.340332,60.9716797 285.853516,60.612793 L284.637695,60.3198242 C283.70752,60.0927734 283.268066,59.7558594 283.268066,59.2138672 C283.268066,58.5107422 284.000488,58.034668 284.937988,58.034668 C285.890137,58.034668 286.505371,58.4521484 286.673828,59.0820312 L287.918945,59.0820312 C287.750488,57.7856445 286.600586,56.965332 284.945312,56.965332 C283.268066,56.965332 282.000977,57.9541016 282.000977,59.2651367 Z M290.064941,65 L291.324707,65 L291.324707,57.1044922 L290.064941,57.1044922 L290.064941,65 Z M290.694824,55.5004883 C291.178223,55.5004883 291.57373,55.1049805 291.57373,54.621582 C291.57373,54.1381836 291.178223,53.7426758 290.694824,53.7426758 C290.211426,53.7426758 289.815918,54.1381836 289.815918,54.621582 C289.815918,55.1049805 290.211426,55.5004883 290.694824,55.5004883 Z M294.254395,55.0610352 L294.254395,57.1044922 L292.97998,57.1044922 L292.97998,58.1591797 L294.254395,58.1591797 L294.254395,62.9492188 C294.254395,64.4580078 294.90625,65.0585938 296.532227,65.0585938 C296.78125,65.0585938 297.022949,65.0292969 297.271973,64.9853516 L297.271973,63.9233398 C297.037598,63.9453125 296.913086,63.9526367 296.686035,63.9526367 C295.865723,63.9526367 295.51416,63.5571289 295.51416,62.6269531 L295.51416,58.1591797 L297.271973,58.1591797 L297.271973,57.1044922 L295.51416,57.1044922 L295.51416,55.0610352 L294.254395,55.0610352 Z M302.21582,58.0786133 C300.956055,58.0786133 300.077148,59.0014648 299.981934,60.4003906 L304.33252,60.4003906 C304.303223,59.0014648 303.468262,58.0786133 302.21582,58.0786133 Z M304.295898,62.956543 L305.555664,62.956543 C305.174805,64.3115234 303.958984,65.1391602 302.230469,65.1391602 C300.040527,65.1391602 298.670898,63.5571289 298.670898,61.0595703 C298.670898,58.5766602 300.0625,56.965332 302.230469,56.965332 C304.361816,56.965332 305.658203,58.4814453 305.658203,60.9350586 L305.658203,61.418457 L299.981934,61.418457 L299.981934,61.4770508 C300.047852,63.0371094 300.919434,64.0258789 302.259766,64.0258789 C303.277832,64.0258789 303.966309,63.6523438 304.295898,62.956543 Z M307.452637,59.2651367 C307.452637,60.4077148 308.126465,61.0449219 309.605957,61.4038086 L310.960938,61.7333984 C311.803223,61.9384766 312.213379,62.3046875 312.213379,62.8466797 C312.213379,63.5717773 311.45166,64.0771484 310.389648,64.0771484 C309.378906,64.0771484 308.749023,63.6523438 308.536621,62.9858398 L307.240234,62.9858398 C307.379395,64.296875 308.587891,65.1391602 310.345703,65.1391602 C312.140137,65.1391602 313.509766,64.1650391 313.509766,62.7514648 C313.509766,61.6162109 312.791992,60.9716797 311.305176,60.612793 L310.089355,60.3198242 C309.15918,60.0927734 308.719727,59.7558594 308.719727,59.2138672 C308.719727,58.5107422 309.452148,58.034668 310.389648,58.034668 C311.341797,58.034668 311.957031,58.4521484 312.125488,59.0820312 L313.370605,59.0820312 C313.202148,57.7856445 312.052246,56.965332 310.396973,56.965332 C308.719727,56.965332 307.452637,57.9541016 307.452637,59.2651367 Z"/>
    <path fill="#D7B600" d="M168.3,86.12 L166.92,86.12 L166.92,80.1 L165.93,80.1 L163.81,81.4 L164.29,82.19 L165.81,81.25 L165.81,86.12 L164.13,86.12 L164.13,87 L168.3,87 L168.3,86.12 Z M172.41,82.45 C173.48,82.45 174.36,83.2 174.36,84.67 C174.36,86.14 173.4,87.13 172.08,87.13 C170.35,87.13 169.68,85.74 169.68,83.79 C169.68,81.49 170.7,79.96 172.41,79.96 C172.97,79.96 173.44,80.12 173.83,80.38 L173.4,81.1 C173.1,80.91 172.76,80.81 172.41,80.81 C171.48,80.81 170.89,81.74 170.83,83.26 C171.26,82.7 171.81,82.45 172.41,82.45 Z M172.09,86.28 C172.85,86.28 173.22,85.65 173.22,84.72 C173.22,83.66 172.81,83.3 172.18,83.3 C171.63,83.3 171.16,83.61 170.84,84.09 C170.87,85.59 171.21,86.28 172.09,86.28 Z M175.43,87 L176.67,87 L177.96,84.84 L179.25,87 L180.57,87 L178.67,84.17 L180.32,81.72 L179.09,81.72 L178.01,83.58 L176.93,81.72 L175.64,81.72 L177.32,84.22 L175.43,87 Z M186.3,86.12 L184.92,86.12 L184.92,80.1 L183.93,80.1 L181.81,81.4 L182.29,82.19 L183.81,81.25 L183.81,86.12 L182.13,86.12 L182.13,87 L186.3,87 L186.3,86.12 Z M190.41,82.45 C191.48,82.45 192.36,83.2 192.36,84.67 C192.36,86.14 191.4,87.13 190.08,87.13 C188.35,87.13 187.68,85.74 187.68,83.79 C187.68,81.49 188.7,79.96 190.41,79.96 C190.97,79.96 191.44,80.12 191.83,80.38 L191.4,81.1 C191.1,80.91 190.76,80.81 190.41,80.81 C189.48,80.81 188.89,81.74 188.83,83.26 C189.26,82.7 189.81,82.45 190.41,82.45 Z M190.09,86.28 C190.85,86.28 191.22,85.65 191.22,84.72 C191.22,83.66 190.81,83.3 190.18,83.3 C189.63,83.3 189.16,83.61 188.84,84.09 C188.87,85.59 189.21,86.28 190.09,86.28 Z M196.47,81.58 C197.86,81.58 198.39,82.67 198.39,84.35 C198.39,85.96 197.69,87.13 196.35,87.13 C195.8,87.13 195.35,86.94 195.01,86.55 L195.01,89.03 L193.89,89.16 L193.89,81.72 L194.87,81.72 L194.94,82.4 C195.34,81.86 195.88,81.58 196.47,81.58 Z M196.16,82.44 C195.66,82.44 195.27,82.79 195.01,83.2 L195.01,85.67 C195.27,86.05 195.62,86.26 196.05,86.26 C196.81,86.26 197.21,85.68 197.21,84.36 C197.21,83 196.86,82.44 196.16,82.44 Z M199.43,87 L200.67,87 L201.96,84.84 L203.25,87 L204.57,87 L202.67,84.17 L204.32,81.72 L203.09,81.72 L202.01,83.58 L200.93,81.72 L199.64,81.72 L201.32,84.22 L199.43,87 Z"/>
    <rect width="88" height="22" x="327" y="49" fill="#0A84FF" rx="2"/>
    <polygon fill="#0A84FF" points="323 60 327 56 331 60 327 64"/>
    <path fill="#FFF" d="M337.524,61.612 C337.524,63.46 335.928,64 334.296,64 L331.872,64 L331.872,55.72 L334.14,55.72 C335.688,55.72 337.164,56.2 337.164,57.82 C337.164,58.852 336.432,59.428 335.628,59.608 C336.528,59.764 337.524,60.244 337.524,61.612 Z M335.748,57.928 C335.748,57.1 335.208,56.764 334.26,56.764 L333.264,56.764 L333.264,59.152 L334.344,59.152 C335.268,59.152 335.748,58.792 335.748,57.928 Z M336.06,61.6 C336.06,60.496 335.352,60.196 334.44,60.196 L333.264,60.196 L333.264,62.92 L334.392,62.92 C335.184,62.92 336.06,62.704 336.06,61.6 Z M341.712,57.496 C343.56,57.496 344.568,58.804 344.568,60.82 C344.568,62.836 343.536,64.156 341.7,64.156 C339.852,64.156 338.832,62.884 338.832,60.832 C338.832,58.852 339.864,57.496 341.712,57.496 Z M341.712,58.54 C340.74,58.54 340.248,59.26 340.248,60.832 C340.248,62.404 340.728,63.124 341.7,63.124 C342.672,63.124 343.152,62.404 343.152,60.82 C343.152,59.26 342.672,58.54 341.712,58.54 Z M351.432,55.12 L351.432,64 L350.244,64 L350.148,63.22 C349.728,63.82 349.116,64.156 348.372,64.156 C346.74,64.156 345.984,62.824 345.984,60.832 C345.984,58.9 346.92,57.496 348.492,57.496 C349.152,57.496 349.68,57.736 350.088,58.18 L350.088,54.964 L351.432,55.12 Z M348.84,58.528 C347.94,58.528 347.412,59.248 347.412,60.832 C347.412,62.452 347.892,63.124 348.732,63.124 C349.332,63.124 349.764,62.728 350.088,62.224 L350.088,59.236 C349.776,58.792 349.356,58.528 348.84,58.528 Z M359.112,57.664 L357.732,57.664 L356.112,63.064 L354.516,57.664 L353.088,57.664 L355.224,64 L355.68,64 C355.332,64.912 354.936,65.38 353.652,65.584 L353.82,66.592 C355.596,66.448 356.448,65.464 356.928,64.024 L359.112,57.664 Z M370.164,55.552 C368.964,55.552 368.16,56.008 367.524,56.824 L368.388,57.496 C368.88,56.896 369.324,56.632 370.068,56.632 C370.908,56.632 371.4,57.148 371.4,57.976 C371.4,59.188 370.656,60.124 367.692,62.98 L367.692,64 L372.84,64 L372.996,62.908 L369.228,62.908 C371.88,60.52 372.804,59.344 372.804,57.892 C372.804,56.596 371.856,55.552 370.164,55.552 Z M377.7,55.552 C379.56,55.552 380.52,57.112 380.52,59.848 C380.52,62.596 379.56,64.156 377.7,64.156 C375.84,64.156 374.88,62.596 374.88,59.848 C374.88,57.112 375.84,55.552 377.7,55.552 Z M377.7,56.584 C376.764,56.584 376.236,57.52 376.236,59.848 C376.236,62.224 376.776,63.136 377.7,63.136 C378.636,63.136 379.164,62.212 379.164,59.848 C379.164,57.496 378.636,56.584 377.7,56.584 Z M377.7,59.08 C378.156,59.08 378.492,59.428 378.492,59.86 C378.492,60.304 378.156,60.652 377.7,60.652 C377.256,60.652 376.92,60.304 376.92,59.86 C376.92,59.428 377.256,59.08 377.7,59.08 Z M394.956,62.092 L394.956,61.048 L393.972,61.048 L393.972,58.84 L392.82,58.84 L392.688,61.048 L390.648,61.048 L392.76,55.996 L391.62,55.552 L389.244,61.156 L389.244,62.092 L392.676,62.092 L392.676,64 L393.972,64 L393.972,62.092 L394.956,62.092 Z M399.3,55.552 C401.16,55.552 402.12,57.112 402.12,59.848 C402.12,62.596 401.16,64.156 399.3,64.156 C397.44,64.156 396.48,62.596 396.48,59.848 C396.48,57.112 397.44,55.552 399.3,55.552 Z M399.3,56.584 C398.364,56.584 397.836,57.52 397.836,59.848 C397.836,62.224 398.376,63.136 399.3,63.136 C400.236,63.136 400.764,62.212 400.764,59.848 C400.764,57.496 400.236,56.584 399.3,56.584 Z M399.3,59.08 C399.756,59.08 400.092,59.428 400.092,59.86 C400.092,60.304 399.756,60.652 399.3,60.652 C398.856,60.652 398.52,60.304 398.52,59.86 C398.52,59.428 398.856,59.08 399.3,59.08 Z M409.38,55.9 L404.304,64.276 L403.524,63.856 L408.588,55.48 L409.38,55.9 Z M404.808,55.552 C405.9,55.552 406.536,56.392 406.536,57.46 C406.536,58.528 405.9,59.38 404.808,59.38 C403.704,59.38 403.056,58.528 403.056,57.46 C403.056,56.404 403.704,55.552 404.808,55.552 Z M404.808,56.356 C404.352,56.356 404.1,56.728 404.1,57.46 C404.1,58.156 404.352,58.576 404.808,58.576 C405.252,58.576 405.504,58.216 405.504,57.46 C405.504,56.68 405.252,56.356 404.808,56.356 Z M408.216,60.244 C409.32,60.244 409.956,61.084 409.956,62.152 C409.956,63.22 409.32,64.072 408.216,64.072 C407.112,64.072 406.464,63.22 406.464,62.152 C406.464,61.096 407.112,60.244 408.216,60.244 Z M408.216,61.048 C407.772,61.048 407.508,61.408 407.508,62.152 C407.508,62.86 407.76,63.28 408.216,63.28 C408.66,63.28 408.912,62.908 408.912,62.152 C408.912,61.384 408.66,61.048 408.216,61.048 Z"/>
    <rect width="1" height="30" x="155" y="46" fill="#30E60B"/>
    <rect width="5" height="1" x="153" y="46" fill="#30E60B"/>
    <rect width="5" height="1" x="153" y="75" fill="#30E60B"/>
    <rect width="35" height="22" x="113" y="50" fill="#30E60B" rx="2"/>
    <polygon fill="#30E60B" points="144 61 148 57 152 61 148 65"/>
    <path fill="#000" d="M119.24,56.552 C118.28,56.552 117.428,56.876 116.708,57.572 L117.416,58.34 C117.932,57.848 118.436,57.596 119.132,57.596 C119.936,57.596 120.56,58.04 120.56,58.844 C120.56,59.732 119.888,60.152 119.108,60.152 L118.604,60.152 L118.448,61.136 L119.156,61.136 C120.104,61.136 120.752,61.52 120.752,62.588 C120.752,63.524 120.116,64.088 119.084,64.088 C118.424,64.088 117.764,63.836 117.296,63.284 L116.468,64.004 C117.116,64.784 118.112,65.156 119.156,65.156 C120.968,65.156 122.156,64.052 122.156,62.636 C122.156,61.328 121.28,60.704 120.248,60.596 C121.172,60.38 121.892,59.672 121.892,58.64 C121.892,57.512 120.884,56.552 119.24,56.552 Z M126.8,56.552 C128.66,56.552 129.62,58.112 129.62,60.848 C129.62,63.596 128.66,65.156 126.8,65.156 C124.94,65.156 123.98,63.596 123.98,60.848 C123.98,58.112 124.94,56.552 126.8,56.552 Z M126.8,57.584 C125.864,57.584 125.336,58.52 125.336,60.848 C125.336,63.224 125.876,64.136 126.8,64.136 C127.736,64.136 128.264,63.212 128.264,60.848 C128.264,58.496 127.736,57.584 126.8,57.584 Z M126.8,60.08 C127.256,60.08 127.592,60.428 127.592,60.86 C127.592,61.304 127.256,61.652 126.8,61.652 C126.356,61.652 126.02,61.304 126.02,60.86 C126.02,60.428 126.356,60.08 126.8,60.08 Z M134.564,58.496 C136.232,58.496 136.868,59.804 136.868,61.82 C136.868,63.752 136.028,65.156 134.42,65.156 C133.76,65.156 133.22,64.928 132.812,64.46 L132.812,67.436 L131.468,67.592 L131.468,58.664 L132.644,58.664 L132.728,59.48 C133.208,58.832 133.856,58.496 134.564,58.496 Z M134.192,59.528 C133.592,59.528 133.124,59.948 132.812,60.44 L132.812,63.404 C133.124,63.86 133.544,64.112 134.06,64.112 C134.972,64.112 135.452,63.416 135.452,61.832 C135.452,60.2 135.032,59.528 134.192,59.528 Z M138.116,65 L139.604,65 L141.152,62.408 L142.7,65 L144.284,65 L142.004,61.604 L143.984,58.664 L142.508,58.664 L141.212,60.896 L139.916,58.664 L138.368,58.664 L140.384,61.664 L138.116,65 Z"/>
    <rect width="16" height="16" x="172" y="52" fill="#FFE900" fill-opacity=".5"/>
  </g>
</svg>
