<svg xmlns="http://www.w3.org/2000/svg" xmlns:xlink="http://www.w3.org/1999/xlink" viewBox="0 0 360 120"><defs><rect id="a" width="178" height="32" y="20" rx="2"/></defs><g fill="none" fill-rule="evenodd"><g transform="translate(91 35)"><use fill="#FFFFFF" xlink:href="#a"/><rect width="177" height="31" x=".5" y="20.5" stroke="#0C0C0D" stroke-opacity=".3" rx="2"/><path fill="#0C0C0D" d="M14.81 32.86h-3.55v3.15h3.29v.96h-3.29V41h-1.07v-9.1h4.62v.96zm2.12-.01a.66.66 0 0 1-.67-.67c0-.2.07-.36.2-.49s.29-.2.47-.2a.67.67 0 0 1 .69.69c0 .18-.07.34-.2.47-.13.13-.3.2-.49.2zm.51 8.15H16.4v-6.5h1.04V41zm5.5-5.45c-.18-.14-.44-.2-.79-.2-.44 0-.81.2-1.11.62-.3.42-.45 1-.45 1.72V41h-1.04v-6.5h1.04v1.34h.03c.14-.46.37-.81.68-1.07.3-.26.64-.38 1.02-.38.27 0 .48.03.62.08v1.08zm6.35 2.46H24.7c.02.72.22 1.28.59 1.68.37.39.88.59 1.53.59.74 0 1.4-.24 2.02-.73v.98c-.57.41-1.32.62-2.26.62-.92 0-1.64-.3-2.17-.88a3.62 3.62 0 0 1-.79-2.5c0-1 .3-1.83.87-2.47a2.76 2.76 0 0 1 2.13-.95c.85 0 1.51.27 1.98.82.46.55.7 1.32.7 2.3V38zm-1.06-.88c0-.6-.15-1.07-.44-1.4-.28-.34-.68-.5-1.19-.5-.49 0-.9.17-1.25.52a2.4 2.4 0 0 0-.63 1.38h3.5zm5.85-4.84c-.2-.11-.43-.17-.7-.17-.72 0-1.08.46-1.08 1.38v1h1.52v.89H32.3V41h-1.04v-5.61h-1.11v-.89h1.11v-1.05c0-.69.2-1.22.6-1.62a2 2 0 0 1 1.46-.6c.32 0 .57.05.76.12v.94zm3.57 8.86c-.96 0-1.72-.3-2.3-.9a3.37 3.37 0 0 1-.86-2.42c0-1.1.3-1.95.9-2.56.6-.62 1.4-.92 2.42-.92.96 0 1.72.3 2.26.9.55.59.82 1.42.82 2.47a3.5 3.5 0 0 1-.88 2.5c-.58.62-1.37.93-2.36.93zm.08-5.93c-.67 0-1.2.23-1.59.69a2.8 2.8 0 0 0-.58 1.88c0 .77.2 1.38.59 1.82a2 2 0 0 0 1.58.67 1.9 1.9 0 0 0 1.55-.66c.36-.43.54-1.05.54-1.86s-.18-1.44-.54-1.88a1.9 1.9 0 0 0-1.55-.66zm9.57-.72l-2.18 3.29L47.26 41h-1.2l-1.28-2.1-.29-.5h-.03l-.3.5-1.3 2.1h-1.2l2.22-3.19-2.12-3.31h1.21l1.26 2.22.27.5h.03l1.62-2.72h1.15zm7.56 3.83h-.04c-.3 1.01-.91 1.51-1.82 1.51-.58 0-1.04-.2-1.4-.64-.35-.42-.53-1-.53-1.72 0-.96.25-1.75.74-2.39a2.32 2.32 0 0 1 1.92-.95c.3 0 .58.08.82.24.24.16.39.35.46.59h.02l.07-.73h.79l-.3 3.56c0 .88.25 1.31.76 1.31.45 0 .83-.24 1.14-.74.3-.5.45-1.13.45-1.92 0-1.17-.37-2.12-1.1-2.85a4.13 4.13 0 0 0-3.06-1.1c-1.26 0-2.3.43-3.12 1.31a4.65 4.65 0 0 0-1.23 3.3c0 1.3.39 2.35 1.17 3.15.78.8 1.83 1.2 3.16 1.2 1.04 0 1.94-.18 2.68-.52v.78a7 7 0 0 1-2.75.47 5.07 5.07 0 0 1-3.72-1.39 4.9 4.9 0 0 1-1.41-3.65c0-1.55.5-2.83 1.48-3.85a5.04 5.04 0 0 1 3.79-1.53c1.44 0 2.63.43 3.57 1.28a4.3 4.3 0 0 1 1.42 3.35c0 1-.25 1.83-.75 2.48-.5.64-1.1.96-1.82.96-.92 0-1.39-.5-1.4-1.5zm-1.14-3.45c-.53 0-.95.25-1.27.75-.33.5-.49 1.12-.49 1.86 0 .5.11.9.33 1.18.22.29.5.43.87.43.53 0 .94-.26 1.25-.78.3-.52.46-1.22.46-2.08 0-.9-.38-1.36-1.15-1.36zM70.17 41h-1.05v-3.73c0-.72-.1-1.24-.33-1.56-.22-.33-.6-.49-1.12-.49-.44 0-.82.2-1.13.61-.31.4-.47.9-.47 1.46V41h-1.04v-3.86c0-1.28-.5-1.92-1.48-1.92-.46 0-.83.2-1.13.58-.3.38-.44.88-.44 1.5V41h-1.04v-6.5h1.04v1.03H62a2.2 2.2 0 0 1 2.02-1.18 1.88 1.88 0 0 1 1.84 1.34c.48-.9 1.2-1.34 2.16-1.34 1.43 0 2.15.88 2.15 2.64V41zm4.68.15c-.96 0-1.73-.3-2.3-.9a3.37 3.37 0 0 1-.86-2.42c0-1.1.3-1.95.9-2.56.6-.62 1.4-.92 2.41-.92.97 0 1.73.3 2.27.9.55.59.82 1.42.82 2.47a3.5 3.5 0 0 1-.88 2.5c-.59.62-1.37.93-2.36.93zm.08-5.93c-.67 0-1.2.23-1.59.69a2.8 2.8 0 0 0-.58 1.88c0 .77.2 1.38.59 1.82a2 2 0 0 0 1.58.67 1.9 1.9 0 0 0 1.55-.66c.36-.43.54-1.05.54-1.86s-.18-1.44-.54-1.88a1.9 1.9 0 0 0-1.55-.66zm9.35-.42l-3.84 5.31h3.8V41h-5.33v-.32l3.84-5.3h-3.48v-.88h5.01v.3zm1.88-1.95a.66.66 0 0 1-.67-.67c0-.2.06-.36.2-.49.13-.13.29-.2.47-.2a.67.67 0 0 1 .69.69c0 .18-.07.34-.2.47-.14.13-.3.2-.49.2zm.51 8.15h-1.04v-6.5h1.04V41zm3.15 0h-1.04v-9.62h1.04V41zm3.15 0h-1.04v-9.62h1.04V41zm6.76 0h-1.04v-1.02h-.03a2.18 2.18 0 0 1-2 1.17c-.65 0-1.15-.17-1.52-.51-.37-.34-.55-.8-.55-1.37 0-1.21.72-1.92 2.15-2.12l1.95-.27c0-1.1-.45-1.66-1.34-1.66a3.2 3.2 0 0 0-2.12.8v-1.06c.64-.4 1.37-.61 2.2-.61 1.53 0 2.3.8 2.3 2.42V41zm-1.04-3.29l-1.57.22c-.48.07-.85.18-1.1.36-.24.17-.36.47-.36.9a1 1 0 0 0 .34.78c.22.2.53.3.9.3.52 0 .94-.17 1.28-.54.34-.36.5-.82.5-1.37v-.65zm3.36 3.43a.67.67 0 0 1-.5-.21.69.69 0 0 1-.2-.5c0-.2.06-.36.2-.5.14-.15.3-.22.5-.22s.37.07.5.21c.15.15.22.31.22.5 0 .2-.07.37-.21.51a.7.7 0 0 1-.51.21zm6.89-.44c-.5.3-1.1.45-1.78.45-.93 0-1.67-.3-2.24-.9a3.28 3.28 0 0 1-.86-2.35c0-1.07.3-1.93.92-2.58a3.22 3.22 0 0 1 2.46-.97c.57 0 1.07.1 1.51.32v1.06c-.48-.34-1-.5-1.55-.5-.66 0-1.2.23-1.63.7-.43.48-.64 1.1-.64 1.88 0 .77.2 1.37.6 1.8.4.45.94.67 1.6.67.57 0 1.1-.2 1.6-.57v1zm4.29.45c-.96 0-1.73-.3-2.3-.9a3.37 3.37 0 0 1-.86-2.42c0-1.1.3-1.95.9-2.56.59-.62 1.4-.92 2.41-.92.97 0 1.73.3 2.27.9.54.59.82 1.42.82 2.47a3.5 3.5 0 0 1-.88 2.5c-.59.62-1.38.93-2.36.93zm.07-5.93c-.66 0-1.2.23-1.58.69a2.8 2.8 0 0 0-.59 1.88c0 .77.2 1.38.6 1.82a2 2 0 0 0 1.57.67 1.9 1.9 0 0 0 1.56-.66c.36-.43.54-1.05.54-1.86s-.18-1.44-.54-1.88a1.9 1.9 0 0 0-1.56-.66zM127.36 41h-1.04v-3.73c0-.72-.11-1.24-.34-1.56-.22-.33-.6-.49-1.12-.49-.44 0-.82.2-1.13.61-.31.4-.47.9-.47 1.46V41h-1.04v-3.86c0-1.28-.49-1.92-1.48-1.92-.45 0-.83.2-1.13.58-.3.38-.44.88-.44 1.5V41h-1.04v-6.5h1.04v1.03h.03a2.2 2.2 0 0 1 2.01-1.18 1.88 1.88 0 0 1 1.84 1.34c.49-.9 1.2-1.34 2.16-1.34 1.43 0 2.15.88 2.15 2.64V41z" opacity=".4"/><path fill="#0C0C0D" d="M6.02 10H1.19V.9h4.62v.96H2.26V4.9h3.29v.96H2.26v3.19h3.76V10zm10.84 0h-1.04V6.27c0-.72-.11-1.24-.33-1.56-.23-.33-.6-.49-1.13-.49-.44 0-.82.2-1.13.61-.3.4-.46.9-.46 1.46V10h-1.05V6.14c0-1.28-.49-1.92-1.47-1.92-.46 0-.84.2-1.13.58-.3.38-.45.88-.45 1.5V10H7.63V3.5h1.04v1.03h.03a2.2 2.2 0 0 1 2.01-1.18 1.88 1.88 0 0 1 1.85 1.34c.48-.9 1.2-1.34 2.15-1.34 1.43 0 2.15.88 2.15 2.64V10zm6.62 0h-1.04V8.98h-.03a2.18 2.18 0 0 1-2 1.17c-.64 0-1.15-.17-1.52-.51-.36-.34-.55-.8-.55-1.37 0-1.21.72-1.92 2.15-2.12l1.95-.27c0-1.1-.45-1.66-1.34-1.66a3.2 3.2 0 0 0-2.12.8V3.96c.64-.4 1.37-.61 2.2-.61 1.54 0 2.3.8 2.3 2.42V10zm-1.04-3.29l-1.57.22c-.48.07-.85.18-1.1.36-.24.17-.36.47-.36.9a1 1 0 0 0 .34.78c.23.2.53.3.9.3.52 0 .95-.17 1.28-.54.34-.36.5-.82.5-1.37V6.7zm3.53-4.86a.66.66 0 0 1-.67-.67c0-.2.07-.36.2-.49s.29-.2.47-.2a.67.67 0 0 1 .69.69c0 .18-.07.34-.2.47-.13.13-.3.2-.49.2zm.51 8.15h-1.04V3.5h1.04V10zm3.15 0H28.6V.38h1.04V10zm10.32 0h-1.04V8.98h-.02a2.18 2.18 0 0 1-2 1.17c-.65 0-1.16-.17-1.52-.51-.37-.34-.55-.8-.55-1.37 0-1.21.71-1.92 2.14-2.12l1.95-.27c0-1.1-.45-1.66-1.34-1.66a3.2 3.2 0 0 0-2.12.8V3.96c.64-.4 1.38-.61 2.21-.61 1.53 0 2.3.8 2.3 2.42V10zm-1.04-3.29l-1.57.22c-.48.07-.84.18-1.09.36-.24.17-.37.47-.37.9a1 1 0 0 0 .34.78c.23.2.53.3.9.3.52 0 .95-.17 1.29-.54.33-.36.5-.82.5-1.37V6.7zM47.46 10h-1.04V8.9h-.02a2.4 2.4 0 0 1-2.24 1.25c-.82 0-1.47-.29-1.96-.87a3.58 3.58 0 0 1-.73-2.38c0-1.07.27-1.93.81-2.58a2.68 2.68 0 0 1 2.17-.97c.89 0 1.54.35 1.95 1.05h.02V.38h1.04V10zm-1.04-2.94V6.1c0-.52-.17-.97-.52-1.33a1.75 1.75 0 0 0-1.32-.55 1.8 1.8 0 0 0-1.5.7c-.36.47-.54 1.11-.54 1.93 0 .75.17 1.34.52 1.78.35.43.82.65 1.4.65.59 0 1.06-.21 1.42-.63.36-.42.54-.95.54-1.59zm8.7 2.94h-1.04V8.9h-.03a2.4 2.4 0 0 1-2.23 1.25c-.82 0-1.47-.29-1.96-.87a3.58 3.58 0 0 1-.74-2.38c0-1.07.28-1.93.82-2.58a2.68 2.68 0 0 1 2.16-.97c.9 0 1.54.35 1.95 1.05h.03V.38h1.04V10zm-1.04-2.94V6.1c0-.52-.18-.97-.52-1.33a1.75 1.75 0 0 0-1.33-.55 1.8 1.8 0 0 0-1.5.7c-.36.47-.54 1.11-.54 1.93 0 .75.18 1.34.52 1.78.35.43.82.65 1.41.65.58 0 1.05-.21 1.41-.63.36-.42.55-.95.55-1.59zm6.53-2.5c-.18-.15-.44-.22-.78-.22-.45 0-.82.21-1.12.63-.3.42-.44 1-.44 1.72V10h-1.05V3.5h1.05v1.34h.02c.15-.46.38-.81.68-1.07.3-.26.65-.38 1.02-.38.27 0 .48.03.62.08v1.08zM66.97 7h-4.6c.03.72.22 1.28.6 1.68.36.39.88.59 1.53.59.73 0 1.4-.24 2.02-.73v.98c-.57.41-1.33.62-2.27.62-.92 0-1.64-.3-2.16-.88a3.62 3.62 0 0 1-.8-2.5c0-1 .3-1.83.87-2.47a2.76 2.76 0 0 1 2.14-.95c.85 0 1.5.27 1.97.82.47.55.7 1.32.7 2.3V7zm-1.07-.88c0-.6-.15-1.07-.43-1.4-.29-.34-.69-.5-1.2-.5-.48 0-.9.17-1.24.52a2.4 2.4 0 0 0-.64 1.38h3.51zm2.25 3.64V8.65c.57.42 1.19.63 1.87.63.92 0 1.37-.3 1.37-.92a.8.8 0 0 0-.12-.44 1.17 1.17 0 0 0-.31-.32c-.14-.1-.3-.18-.47-.25a30.3 30.3 0 0 0-.58-.23 7.48 7.48 0 0 1-.76-.35 2.3 2.3 0 0 1-.55-.4 1.46 1.46 0 0 1-.33-.49c-.07-.19-.1-.4-.1-.65 0-.3.06-.58.2-.81.14-.24.33-.43.56-.6.23-.15.5-.27.8-.35a3.73 3.73 0 0 1 2.43.17v1.05a2.94 2.94 0 0 0-2.18-.4c-.15.04-.29.1-.4.19a.87.87 0 0 0-.26.29.76.76 0 0 0-.1.37c0 .17.04.3.1.42.06.12.15.22.27.3.12.1.26.18.43.25l.58.23c.29.11.54.23.77.34.23.12.43.25.59.4.16.14.28.31.37.5.09.2.13.42.13.68 0 .32-.07.6-.21.84-.15.24-.34.43-.57.59a2.6 2.6 0 0 1-.82.35c-.31.07-.63.11-.97.11-.67 0-1.25-.13-1.74-.38zm5.51 0V8.65c.57.42 1.2.63 1.88.63.91 0 1.37-.3 1.37-.92a.8.8 0 0 0-.12-.44 1.17 1.17 0 0 0-.32-.32c-.13-.1-.29-.18-.47-.25a30.3 30.3 0 0 0-.58-.23 7.48 7.48 0 0 1-.76-.35 2.3 2.3 0 0 1-.54-.4 1.46 1.46 0 0 1-.33-.49c-.08-.19-.11-.4-.11-.65 0-.3.07-.58.2-.81.15-.24.33-.43.57-.6.23-.15.5-.27.8-.35a3.73 3.73 0 0 1 2.43.17v1.05a2.94 2.94 0 0 0-2.18-.4c-.16.04-.3.1-.4.19a.87.87 0 0 0-.26.29.76.76 0 0 0-.1.37c0 .17.03.3.1.42.06.12.15.22.27.3.11.1.26.18.43.25l.57.23c.3.11.55.23.78.34.23.12.42.25.58.4.16.14.29.31.37.5.1.2.13.42.13.68 0 .32-.07.6-.2.84-.15.24-.34.43-.58.59a2.6 2.6 0 0 1-.81.35c-.31.07-.64.11-.98.11-.66 0-1.24-.13-1.74-.38z"/></g><rect width="59" height="22" x="88" y="10" fill="#0A84FF" rx="2"/><polygon fill="#0A84FF" points="112 32 116 28 120 32 116 36"/><path fill="#FFFFFF" d="M98.01 24.45c-.6.37-1.38.55-2.31.55h-2.43v-8.28h2.27c.88 0 1.6.16 2.17.49.57.32.85.86.85 1.61 0 .48-.14.87-.43 1.18-.3.31-.66.51-1.1.6.54.1 1 .3 1.35.61.36.31.54.78.54 1.4 0 .86-.3 1.47-.9 1.84zm-1.24-6.41a1.87 1.87 0 0 0-1.11-.28h-1v2.4h1.08c.48 0 .83-.1 1.06-.3.23-.2.35-.5.35-.93 0-.41-.13-.7-.38-.89zm.27 3.47a1.99 1.99 0 0 0-1.2-.31h-1.18v2.72h1.13c1.12 0 1.68-.44 1.68-1.3 0-.53-.14-.9-.43-1.1zm8.18-2.12c.5.6.75 1.4.75 2.43 0 1.02-.25 1.84-.76 2.44-.5.6-1.2.9-2.11.9-.91 0-1.62-.3-2.12-.89-.5-.58-.75-1.4-.75-2.44 0-1 .26-1.81.76-2.42a2.6 2.6 0 0 1 2.12-.91c.91 0 1.62.3 2.11.89zm-3.2.71c-.25.38-.37.96-.37 1.73 0 .79.12 1.36.36 1.74.24.37.6.55 1.09.55.49 0 .85-.18 1.1-.56.23-.38.35-.96.35-1.74s-.12-1.35-.36-1.72a1.2 1.2 0 0 0-1.08-.56c-.49 0-.85.19-1.1.56zm10.81-3.98V25h-1.19l-.1-.78a2.12 2.12 0 0 1-1.77.94c-.79 0-1.39-.3-1.79-.9-.4-.58-.6-1.4-.6-2.43 0-.65.1-1.22.31-1.73.2-.5.5-.9.87-1.18.38-.28.82-.42 1.33-.42.65 0 1.18.23 1.6.7v-3.24l1.34.16zm-3.65 3.98c-.25.38-.37.96-.37 1.73 0 1.54.44 2.3 1.32 2.3.53 0 .98-.3 1.36-.9v-3c-.33-.47-.75-.7-1.25-.7-.46 0-.82.19-1.06.57zm9.15 4.92a4.13 4.13 0 0 1-1.11 1.81c-.49.44-1.15.69-2 .76l-.17-1c.42-.07.75-.17 1.01-.3.26-.13.46-.3.61-.5.15-.2.29-.46.41-.79h-.46l-2.13-6.34h1.43l1.6 5.4 1.61-5.4h1.38l-2.18 6.36zm16.33-1.08V25h-5v-1.06h2.01V18.1l-1.82 1.12-.58-.94 2.55-1.56H133v7.22h1.66zm6.54-6.28c.48.74.72 1.8.72 3.19a5.9 5.9 0 0 1-.72 3.19 2.34 2.34 0 0 1-2.1 1.12c-.92 0-1.62-.38-2.1-1.12a5.9 5.9 0 0 1-.72-3.2c0-1.38.24-2.44.72-3.18a2.35 2.35 0 0 1 2.1-1.1c.92 0 1.62.36 2.1 1.1zm-3.2.7a6.13 6.13 0 0 0-.36 2.49c0 1.15.12 1.99.37 2.5.25.53.61.79 1.09.79.48 0 .84-.26 1.1-.78.24-.52.36-1.36.36-2.51 0-1.15-.12-1.98-.37-2.5-.25-.5-.61-.77-1.09-.77-.48 0-.84.26-1.1.78zm1.66 1.95c.16.15.23.33.23.55 0 .22-.07.41-.23.56a.77.77 0 0 1-.56.23.75.75 0 0 1-.56-.23.78.78 0 0 1-.22-.56c0-.22.07-.4.22-.55a.75.75 0 0 1 .56-.23c.22 0 .41.08.56.23z"/><rect width="88" height="22" x="256" y="60" fill="#0A84FF" rx="2"/><polygon fill="#0A84FF" points="252 70 256 66 260 70 256 74"/><path fill="#FFFFFF" d="M266.11 74.45c-.6.37-1.38.55-2.31.55h-2.43v-8.28h2.27c.88 0 1.6.16 2.17.49.57.32.85.86.85 1.61 0 .48-.14.87-.43 1.18-.3.31-.66.51-1.1.6.54.1 1 .3 1.35.61.36.31.54.78.54 1.4 0 .86-.3 1.47-.9 1.84zm-1.24-6.41a1.87 1.87 0 0 0-1.11-.28h-1v2.4h1.08c.48 0 .83-.1 1.06-.3.23-.2.35-.5.35-.93 0-.41-.13-.7-.38-.89zm.27 3.47a1.99 1.99 0 0 0-1.2-.31h-1.18v2.72h1.13c1.12 0 1.68-.44 1.68-1.3 0-.53-.14-.9-.43-1.1zm8.18-2.12c.5.6.75 1.4.75 2.43 0 1.02-.25 1.84-.76 2.44-.5.6-1.2.9-2.11.9-.91 0-1.62-.3-2.12-.89-.5-.58-.75-1.4-.75-2.44 0-1 .26-1.81.76-2.42a2.6 2.6 0 0 1 2.12-.91c.91 0 1.62.3 2.11.89zm-3.2.71c-.25.38-.37.96-.37 1.73 0 .79.12 1.36.36 1.74.24.37.6.55 1.09.55.49 0 .85-.18 1.1-.56.23-.38.35-.96.35-1.74s-.12-1.35-.36-1.72a1.2 1.2 0 0 0-1.08-.56c-.49 0-.85.19-1.1.56zm10.81-3.98V75h-1.19l-.1-.78a2.12 2.12 0 0 1-1.77.94c-.79 0-1.39-.3-1.79-.9-.4-.58-.6-1.4-.6-2.43 0-.65.1-1.22.31-1.73.2-.5.5-.9.87-1.18.38-.28.82-.42 1.33-.42.65 0 1.18.23 1.6.7v-3.24l1.34.16zm-3.65 3.98c-.25.38-.37.96-.37 1.73 0 1.54.44 2.3 1.32 2.3.53 0 .98-.3 1.36-.9v-3c-.33-.47-.75-.7-1.25-.7-.46 0-.82.19-1.06.57zm9.15 4.92a4.13 4.13 0 0 1-1.11 1.81c-.49.44-1.15.69-2 .76l-.17-1c.42-.07.75-.17 1.01-.3.26-.13.46-.3.61-.5.15-.2.29-.46.41-.79h-.46l-2.13-6.34h1.43l1.6 5.4 1.61-5.4h1.38l-2.18 6.36zm14.64-8.16a2.22 2.22 0 0 1 1.22 2.03c0 .49-.11.96-.33 1.42a6.8 6.8 0 0 1-1.1 1.53c-.5.55-1.21 1.25-2.13 2.08h3.75l-.14 1.08h-5.15v-1.02c1.04-1 1.82-1.78 2.33-2.35.51-.56.87-1.04 1.08-1.44.2-.4.31-.8.31-1.21 0-.42-.12-.75-.36-.99a1.33 1.33 0 0 0-.98-.36c-.36 0-.67.07-.92.2s-.5.35-.76.67l-.87-.68c.33-.42.7-.74 1.13-.95.43-.21.93-.32 1.51-.32a3 3 0 0 1 1.41.31zm8.23.8c.48.74.72 1.8.72 3.19a5.9 5.9 0 0 1-.72 3.19 2.34 2.34 0 0 1-2.1 1.12c-.92 0-1.62-.38-2.1-1.12a5.9 5.9 0 0 1-.72-3.2c0-1.38.24-2.44.72-3.18a2.35 2.35 0 0 1 2.1-1.1c.92 0 1.62.36 2.1 1.1zm-3.2.7a6.13 6.13 0 0 0-.36 2.49c0 1.15.12 1.99.37 2.5.25.53.61.79 1.09.79.48 0 .84-.26 1.1-.78.24-.52.36-1.36.36-2.51 0-1.15-.12-1.98-.37-2.5-.25-.5-.61-.77-1.09-.77-.48 0-.84.26-1.1.78zm1.66 1.95c.16.15.23.33.23.55 0 .22-.07.41-.23.56a.77.77 0 0 1-.56.23.75.75 0 0 1-.56-.23.78.78 0 0 1-.22-.56c0-.22.07-.4.22-.55a.75.75 0 0 1 .56-.23c.22 0 .41.08.56.23zm16.7 2.78h-.99V75h-1.3v-1.9h-3.43v-.94l2.38-5.6 1.13.44-2.1 5.05h2.04l.13-2.21h1.15v2.2h.99v1.05zm6.44-5.43c.48.74.72 1.8.72 3.19a5.9 5.9 0 0 1-.72 3.19 2.34 2.34 0 0 1-2.1 1.12c-.92 0-1.62-.38-2.1-1.12a5.9 5.9 0 0 1-.72-3.2c0-1.38.24-2.44.72-3.18a2.35 2.35 0 0 1 2.1-1.1c.92 0 1.62.36 2.1 1.1zm-3.2.7a6.13 6.13 0 0 0-.36 2.49c0 1.15.12 1.99.37 2.5.25.53.61.79 1.09.79.48 0 .84-.26 1.1-.78.24-.52.36-1.36.36-2.51 0-1.15-.12-1.98-.37-2.5-.25-.5-.61-.77-1.09-.77-.48 0-.84.26-1.1.78zm1.66 1.95c.16.15.23.33.23.55 0 .22-.07.41-.23.56a.77.77 0 0 1-.56.23.75.75 0 0 1-.56-.23.78.78 0 0 1-.22-.56c0-.22.07-.4.22-.55a.75.75 0 0 1 .56-.23c.22 0 .41.08.56.23zm9.52-3.41l-5.09 8.38-.77-.42 5.08-8.38.78.42zm-3.3.2c.31.35.47.8.47 1.36 0 .55-.16 1.01-.47 1.37-.31.37-.74.55-1.27.55a1.6 1.6 0 0 1-1.28-.55 2.02 2.02 0 0 1-.47-1.37 2 2 0 0 1 .47-1.36 1.6 1.6 0 0 1 1.28-.55c.53 0 .96.18 1.27.54zm-1.8.54c-.12.19-.18.46-.18.82 0 .35.06.63.19.83.12.2.3.3.52.3.22 0 .4-.1.51-.28.12-.2.18-.47.18-.85 0-.74-.23-1.1-.7-1.1-.22 0-.4.09-.52.28zm5.2 4.14c.32.36.48.82.48 1.37 0 .55-.16 1.01-.47 1.38-.31.36-.74.54-1.27.54a1.6 1.6 0 0 1-1.28-.54 2.02 2.02 0 0 1-.48-1.38 2 2 0 0 1 .48-1.36 1.6 1.6 0 0 1 1.28-.55c.53 0 .96.18 1.27.54zm-1.97 1.37c0 .36.06.64.18.84.13.2.3.29.53.29.46 0 .7-.38.7-1.13 0-.73-.24-1.1-.7-1.1-.48 0-.71.37-.71 1.1z"/><rect width="1" height="32" x="85" y="55" fill="#30E60B"/><rect width="5" height="1" x="83" y="55" fill="#30E60B"/><rect width="5" height="1" x="83" y="86" fill="#30E60B"/><g transform="translate(44 60)"><rect width="35" height="22" fill="#30E60B" rx="2"/><polygon fill="#30E60B" points="31 11 35 7 39 11 35 15"/><path fill="#000000" d="M7.64 6.83c.4.2.71.45.93.77.21.32.32.67.32 1.05 0 .5-.15.92-.46 1.26-.3.35-.7.57-1.18.69.56.05 1.02.25 1.37.6.36.34.54.82.54 1.44 0 .47-.13.9-.38 1.28-.24.38-.6.69-1.05.9a3.9 3.9 0 0 1-3.08.04A3 3 0 0 1 3.46 14l.83-.72c.22.28.49.48.8.62.31.13.64.2.98.2.52 0 .93-.14 1.23-.4.3-.28.45-.65.45-1.11 0-.97-.53-1.45-1.6-1.45h-.71l.15-.99h.5c.42 0 .77-.11 1.05-.33.27-.23.41-.55.41-.98 0-.39-.13-.7-.4-.91-.26-.22-.6-.33-1.03-.33-.33 0-.64.06-.91.18s-.54.3-.8.56l-.71-.77a3.52 3.52 0 0 1 2.53-1.02c.54 0 1 .1 1.4.28zm7.23.03A2.22 2.22 0 0 1 16.1 8.9c0 .49-.11.96-.33 1.42a6.8 6.8 0 0 1-1.1 1.53c-.5.55-1.21 1.25-2.13 2.08h3.75L16.14 15h-5.15v-1.02c1.04-1 1.82-1.78 2.33-2.35.51-.56.87-1.04 1.08-1.44.2-.4.31-.8.31-1.21 0-.42-.12-.75-.36-.99a1.33 1.33 0 0 0-.98-.36c-.36 0-.67.07-.92.2s-.5.35-.76.67l-.87-.68c.33-.42.7-.74 1.13-.95.43-.21.93-.32 1.51-.32a3 3 0 0 1 1.41.31zm9 4.96c0 1-.21 1.8-.64 2.42-.42.61-1.03.92-1.81.92-.66 0-1.2-.24-1.6-.7v2.98l-1.35.15V8.66h1.16l.09.82c.24-.32.51-.56.83-.73.32-.17.65-.25 1.01-.25 1.54 0 2.3 1.1 2.3 3.32zm-3.45-2.04c-.23.17-.43.39-.6.66v2.96c.3.48.72.71 1.24.71.46 0 .81-.18 1.04-.55.24-.37.35-.94.35-1.73 0-.8-.1-1.4-.31-1.76-.2-.36-.52-.54-.95-.54-.28 0-.53.08-.77.25zm4.7 5.22l2.28-3.34-2.03-3h1.55l1.3 2.24 1.29-2.24h1.47L29 11.6l2.28 3.4h-1.57l-1.56-2.6L26.6 15h-1.48z"/></g><g fill="#30E60B" transform="rotate(90 62 107)"><rect width="1" height="9" x="25" y="68"/><rect width="5" height="1" x="23" y="68"/><rect width="5" height="1" x="23" y="76"/><g transform="rotate(90 5 5)"><rect width="1" height="9" x="2"/><rect width="5" height="1"/><rect width="5" height="1" y="9"/></g></g><g transform="translate(93 76)"><rect width="32" height="22" y="3" fill="#30E60B" rx="2"/><polygon fill="#30E60B" points="0 4 4 0 8 4 4 8"/><path fill="#000000" d="M10.84 12.7c-.22.3-.56.57-1.03.84.55.24.98.56 1.27.93a2.2 2.2 0 0 1 .08 2.51c-.23.37-.57.66-1.02.86-.44.21-.96.32-1.56.32-.61 0-1.13-.1-1.57-.32a2.2 2.2 0 0 1-1.33-2.04c0-.94.54-1.65 1.61-2.13-.45-.23-.77-.5-.97-.79-.2-.29-.3-.66-.3-1.12 0-.47.12-.87.37-1.2.24-.34.56-.59.96-.76a3.28 3.28 0 0 1 2.54 0c.39.16.7.4.94.72.23.32.35.71.35 1.17 0 .39-.11.73-.34 1.02zm-3.34-.28c.12.17.28.3.5.41.22.11.52.23.9.37.35-.22.6-.43.76-.65.15-.21.22-.48.22-.79 0-.38-.1-.67-.33-.9a1.3 1.3 0 0 0-.95-.32c-.4 0-.72.1-.95.32a1.2 1.2 0 0 0-.33.91c0 .27.06.48.18.65zm2.4 2.57c-.14-.2-.35-.37-.61-.5-.26-.12-.64-.27-1.13-.45-.73.38-1.1.95-1.1 1.72 0 .43.13.77.4 1.01.25.24.63.37 1.13.37.5 0 .88-.13 1.14-.38.27-.25.4-.58.4-.98 0-.32-.07-.58-.22-.79zm8.77-.17c0 1-.21 1.8-.64 2.42-.42.61-1.03.92-1.81.92-.66 0-1.2-.24-1.6-.7v2.98l-1.35.15v-8.93h1.16l.09.82c.24-.32.51-.56.83-.73.32-.17.65-.25 1.01-.25 1.54 0 2.3 1.1 2.3 3.32zm-3.45-2.04c-.23.17-.43.39-.6.66v2.96c.3.48.72.71 1.24.71.46 0 .81-.18 1.04-.55.24-.37.35-.94.35-1.73 0-.8-.1-1.4-.31-1.76-.2-.36-.52-.54-.95-.54-.28 0-.53.08-.77.25zm4.7 5.22l2.28-3.34-2.03-3h1.55l1.3 2.24 1.29-2.24h1.47L23.8 14.6l2.28 3.4h-1.57l-1.56-2.6L21.4 18h-1.48z"/></g><g transform="translate(175 39)"><rect width="32" height="22" x="4" fill="#30E60B" rx="2"/><polygon fill="#30E60B" points="0 11 4 7 8 11 4 15"/><path fill="#000000" d="M15.46 13.1h-.99V15h-1.3v-1.9H9.75v-.94l2.38-5.6 1.13.44-2.1 5.05h2.04l.13-2.21h1.15v2.2h.99v1.05zm7.2-1.28c0 1-.2 1.8-.63 2.42-.42.61-1.03.92-1.81.92-.66 0-1.2-.24-1.6-.7v2.98l-1.35.15V8.66h1.16l.09.82c.24-.32.51-.56.83-.73.32-.17.65-.25 1.01-.25 1.54 0 2.3 1.1 2.3 3.32zm-3.44-2.04c-.23.17-.43.39-.6.66v2.96c.3.48.72.71 1.24.71.46 0 .81-.18 1.04-.55.24-.37.35-.94.35-1.73 0-.8-.1-1.4-.31-1.76-.2-.36-.52-.54-.95-.54-.28 0-.53.08-.77.25zm4.7 5.22l2.28-3.34-2.03-3h1.55l1.3 2.24 1.29-2.24h1.47L27.8 11.6l2.28 3.4h-1.57l-1.56-2.6L25.4 15h-1.48z"/></g></g></svg>