<svg xmlns="http://www.w3.org/2000/svg" width="360" height="122" viewBox="0 0 360 122">
  <g fill="none" fill-rule="evenodd">
    <path fill="#00BDDF" fill-rule="nonzero" d="M77,47 C76.4477153,47 76,47.4477153 76,48 L76,74 C76,74.5522847 76.4477153,75 77,75 L251,75 C251.552285,75 252,74.5522847 252,74 L252,48 C252,47.4477153 251.552285,47 251,47 L77,47 Z M77,46 L251,46 C252.104569,46 253,46.8954305 253,48 L253,74 C253,75.1045695 252.104569,76 251,76 L77,76 C75.8954305,76 75,75.1045695 75,74 L75,48 C75,46.8954305 75.8954305,46 77,46 Z"/>
    <path fill="#B1EDF6" fill-rule="nonzero" d="M77,46 C75.8954305,46 75,46.8954305 75,48 L75,74 C75,75.1045695 75.8954305,76 77,76 L251,76 C252.104569,76 253,75.1045695 253,74 L253,48 C253,46.8954305 252.104569,46 251,46 L77,46 Z M77,45 L251,45 C252.656854,45 254,46.3431458 254,48 L254,74 C254,75.6568542 252.656854,77 251,77 L77,77 C75.3431458,77 74,75.6568542 74,74 L74,48 C74,46.3431458 75.3431458,45 77,45 Z"/>
    <path fill="#DFF8FB" fill-rule="nonzero" d="M77,46 C75.8954305,46 75,46.8954305 75,48 L75,74 C75,75.1045695 75.8954305,76 77,76 L251,76 C252.104569,76 253,75.1045695 253,74 L253,48 C253,46.8954305 252.104569,46 251,46 L77,46 Z M77,43 L251,43 C253.761424,43 256,45.2385763 256,48 L256,74 C256,76.7614237 253.761424,79 251,79 L77,79 C74.2385763,79 72,76.7614237 72,74 L72,48 C72,45.2385763 74.2385763,43 77,43 Z"/>
    <g font-size="15" transform="translate(83 49)">
      <text fill="#0C0C0D" fill-opacity=".4" font-family="SFUIText-Regular, SF UI Text">
        <tspan x="1" y="17">firefox@mozilla.com</tspan>
      </text>
      <text fill="#000" font-family="SegoeUI, Segoe UI">
        <tspan x="0" y="16">|</tspan>
      </text>
    </g>
    <path fill="#0C0C0D" d="M81.8427734,38.9716797 L77.3105469,38.9716797 L77.3105469,35.8232422 L81.6079102,35.8232422 L81.6079102,34.8076172 L77.3105469,34.8076172 L77.3105469,31.8686523 L81.8427734,31.8686523 L81.8427734,30.840332 L76.1679688,30.840332 L76.1679688,40 L81.8427734,40 L81.8427734,38.9716797 Z M83.7724609,40 L84.8642578,40 L84.8642578,35.7597656 C84.8642578,34.7949219 85.5561523,34.0205078 86.4511719,34.0205078 C87.3144531,34.0205078 87.8793945,34.5410156 87.8793945,35.3535156 L87.8793945,40 L88.9711914,40 L88.9711914,35.6010742 C88.9711914,34.7314453 89.605957,34.0205078 90.5581055,34.0205078 C91.5229492,34.0205078 91.9990234,34.515625 91.9990234,35.5249023 L91.9990234,40 L93.0908203,40 L93.0908203,35.2709961 C93.0908203,33.8364258 92.3100586,33.0366211 90.9135742,33.0366211 C89.9677734,33.0366211 89.1870117,33.5126953 88.8188477,34.2363281 L88.7172852,34.2363281 C88.3999023,33.5253906 87.7524414,33.0366211 86.8256836,33.0366211 C85.9116211,33.0366211 85.2260742,33.4746094 84.9150391,34.2363281 L84.8134766,34.2363281 L84.8134766,33.1572266 L83.7724609,33.1572266 L83.7724609,40 Z M97.1914062,39.1621094 C98.3149414,39.1621094 99.1464844,38.4257812 99.1464844,37.4482422 L99.1464844,36.8198242 L97.3056641,36.9404297 C96.2646484,37.0102539 95.8076172,37.3720703 95.8076172,38.0576172 C95.8076172,38.7558594 96.3979492,39.1621094 97.1914062,39.1621094 Z M96.9882812,40.1206055 C95.6616211,40.1206055 94.6777344,39.3334961 94.6777344,38.0830078 C94.6777344,36.8579102 95.5791016,36.1533203 97.1723633,36.0581055 L99.1464844,35.9375 L99.1464844,35.3154297 C99.1464844,34.4711914 98.6196289,34.0078125 97.5976562,34.0078125 C96.7788086,34.0078125 96.2075195,34.3188477 96.0551758,34.8583984 L94.9506836,34.8583984 C95.0966797,33.7602539 96.1757812,33.0366211 97.6357422,33.0366211 C99.3051758,33.0366211 100.238281,33.8935547 100.238281,35.3154297 L100.238281,40 L99.1972656,40 L99.1972656,38.9907227 L99.0957031,38.9907227 C98.6513672,39.7207031 97.9023438,40.1206055 96.9882812,40.1206055 Z M102.282227,40 L103.374023,40 L103.374023,33.1572266 L102.282227,33.1572266 L102.282227,40 Z M102.828125,31.7670898 C103.24707,31.7670898 103.589844,31.4243164 103.589844,31.0053711 C103.589844,30.5864258 103.24707,30.2436523 102.828125,30.2436523 C102.40918,30.2436523 102.066406,30.5864258 102.066406,31.0053711 C102.066406,31.4243164 102.40918,31.7670898 102.828125,31.7670898 Z M105.519531,40 L106.611328,40 L106.611328,30.4404297 L105.519531,30.4404297 L105.519531,40 Z M114.507812,39.1621094 C115.631348,39.1621094 116.462891,38.4257812 116.462891,37.4482422 L116.462891,36.8198242 L114.62207,36.9404297 C113.581055,37.0102539 113.124023,37.3720703 113.124023,38.0576172 C113.124023,38.7558594 113.714355,39.1621094 114.507812,39.1621094 Z M114.304688,40.1206055 C112.978027,40.1206055 111.994141,39.3334961 111.994141,38.0830078 C111.994141,36.8579102 112.895508,36.1533203 114.48877,36.0581055 L116.462891,35.9375 L116.462891,35.3154297 C116.462891,34.4711914 115.936035,34.0078125 114.914062,34.0078125 C114.095215,34.0078125 113.523926,34.3188477 113.371582,34.8583984 L112.26709,34.8583984 C112.413086,33.7602539 113.492188,33.0366211 114.952148,33.0366211 C116.621582,33.0366211 117.554688,33.8935547 117.554688,35.3154297 L117.554688,40 L116.513672,40 L116.513672,38.9907227 L116.412109,38.9907227 C115.967773,39.7207031 115.21875,40.1206055 114.304688,40.1206055 Z M122.105957,40.1206055 C120.354004,40.1206055 119.230469,38.7304688 119.230469,36.5786133 C119.230469,34.4331055 120.366699,33.0366211 122.105957,33.0366211 C123.058105,33.0366211 123.864258,33.4873047 124.251465,34.2363281 L124.34668,34.2363281 L124.34668,30.4404297 L125.438477,30.4404297 L125.438477,40 L124.397461,40 L124.397461,38.9082031 L124.295898,38.9082031 C123.864258,39.6699219 123.051758,40.1206055 122.105957,40.1206055 Z M122.359863,34.0205078 C121.115723,34.0205078 120.360352,34.9853516 120.360352,36.5786133 C120.360352,38.1782227 121.109375,39.1367188 122.359863,39.1367188 C123.604004,39.1367188 124.37207,38.1591797 124.37207,36.5786133 C124.37207,35.0107422 123.597656,34.0205078 122.359863,34.0205078 Z M130.091309,40.1206055 C128.339355,40.1206055 127.21582,38.7304688 127.21582,36.5786133 C127.21582,34.4331055 128.352051,33.0366211 130.091309,33.0366211 C131.043457,33.0366211 131.849609,33.4873047 132.236816,34.2363281 L132.332031,34.2363281 L132.332031,30.4404297 L133.423828,30.4404297 L133.423828,40 L132.382812,40 L132.382812,38.9082031 L132.28125,38.9082031 C131.849609,39.6699219 131.037109,40.1206055 130.091309,40.1206055 Z M130.345215,34.0205078 C129.101074,34.0205078 128.345703,34.9853516 128.345703,36.5786133 C128.345703,38.1782227 129.094727,39.1367188 130.345215,39.1367188 C131.589355,39.1367188 132.357422,38.1591797 132.357422,36.5786133 C132.357422,35.0107422 131.583008,34.0205078 130.345215,34.0205078 Z M135.543945,40 L136.635742,40 L136.635742,35.7597656 C136.635742,34.7949219 137.391113,34.0966797 138.432129,34.0966797 C138.647949,34.0966797 139.041504,34.1347656 139.130371,34.1601562 L139.130371,33.0683594 C138.990723,33.0493164 138.762207,33.0366211 138.584473,33.0366211 C137.676758,33.0366211 136.889648,33.5063477 136.686523,34.1728516 L136.584961,34.1728516 L136.584961,33.1572266 L135.543945,33.1572266 L135.543945,40 Z M143.224609,34.0014648 C142.132812,34.0014648 141.371094,34.8012695 141.288574,36.0136719 L145.059082,36.0136719 C145.033691,34.8012695 144.310059,34.0014648 143.224609,34.0014648 Z M145.027344,38.2290039 L146.119141,38.2290039 C145.789062,39.4033203 144.735352,40.1206055 143.237305,40.1206055 C141.339355,40.1206055 140.152344,38.7495117 140.152344,36.5849609 C140.152344,34.4331055 141.358398,33.0366211 143.237305,33.0366211 C145.084473,33.0366211 146.208008,34.3505859 146.208008,36.4770508 L146.208008,36.8959961 L141.288574,36.8959961 L141.288574,36.9467773 C141.345703,38.2988281 142.101074,39.1557617 143.262695,39.1557617 C144.14502,39.1557617 144.741699,38.8320312 145.027344,38.2290039 Z M147.763184,35.0297852 C147.763184,36.0200195 148.347168,36.5722656 149.629395,36.8833008 L150.803711,37.1689453 C151.533691,37.3466797 151.88916,37.6640625 151.88916,38.1337891 C151.88916,38.762207 151.229004,39.2001953 150.308594,39.2001953 C149.432617,39.2001953 148.886719,38.8320312 148.702637,38.2543945 L147.579102,38.2543945 C147.699707,39.390625 148.74707,40.1206055 150.270508,40.1206055 C151.825684,40.1206055 153.012695,39.2763672 153.012695,38.0512695 C153.012695,37.0673828 152.390625,36.5087891 151.102051,36.1977539 L150.04834,35.9438477 C149.242188,35.7470703 148.861328,35.4550781 148.861328,34.9853516 C148.861328,34.3759766 149.496094,33.9633789 150.308594,33.9633789 C151.133789,33.9633789 151.666992,34.3251953 151.812988,34.8710938 L152.89209,34.8710938 C152.746094,33.7475586 151.749512,33.0366211 150.314941,33.0366211 C148.861328,33.0366211 147.763184,33.8935547 147.763184,35.0297852 Z M154.567871,35.0297852 C154.567871,36.0200195 155.151855,36.5722656 156.434082,36.8833008 L157.608398,37.1689453 C158.338379,37.3466797 158.693848,37.6640625 158.693848,38.1337891 C158.693848,38.762207 158.033691,39.2001953 157.113281,39.2001953 C156.237305,39.2001953 155.691406,38.8320312 155.507324,38.2543945 L154.383789,38.2543945 C154.504395,39.390625 155.551758,40.1206055 157.075195,40.1206055 C158.630371,40.1206055 159.817383,39.2763672 159.817383,38.0512695 C159.817383,37.0673828 159.195312,36.5087891 157.906738,36.1977539 L156.853027,35.9438477 C156.046875,35.7470703 155.666016,35.4550781 155.666016,34.9853516 C155.666016,34.3759766 156.300781,33.9633789 157.113281,33.9633789 C157.938477,33.9633789 158.47168,34.3251953 158.617676,34.8710938 L159.696777,34.8710938 C159.550781,33.7475586 158.554199,33.0366211 157.119629,33.0366211 C155.666016,33.0366211 154.567871,33.8935547 154.567871,35.0297852 Z"/>
  </g>
</svg>
