<svg xmlns="http://www.w3.org/2000/svg" width="504" height="120" viewBox="0 0 504 120">
  <g fill="none" fill-rule="evenodd">
    <path fill="#0C0C0D" fill-opacity=".3" fill-rule="nonzero" d="M166,56 C165.447715,56 165,56.4477153 165,57 L165,83 C165,83.5522847 165.447715,84 166,84 L340,84 C340.552285,84 341,83.5522847 341,83 L341,57 C341,56.4477153 340.552285,56 340,56 L166,56 Z M166,55 L340,55 C341.104569,55 342,55.8954305 342,57 L342,83 C342,84.1045695 341.104569,85 340,85 L166,85 C164.895431,85 164,84.1045695 164,83 L164,57 C164,55.8954305 164.895431,55 166,55 Z"/>
    <path fill="#0C0C0D" fill-opacity=".4" d="M175.666016,75 L175.666016,70.4223633 L180.346191,70.4223633 L180.346191,69.2504883 L175.666016,69.2504883 L175.666016,65.6176758 L180.763672,65.6176758 L180.763672,64.4311523 L174.347656,64.4311523 L174.347656,75 L175.666016,75 Z M182.799805,75 L184.05957,75 L184.05957,67.1044922 L182.799805,67.1044922 L182.799805,75 Z M183.429688,65.5004883 C183.913086,65.5004883 184.308594,65.1049805 184.308594,64.621582 C184.308594,64.1381836 183.913086,63.7426758 183.429688,63.7426758 C182.946289,63.7426758 182.550781,64.1381836 182.550781,64.621582 C182.550781,65.1049805 182.946289,65.5004883 183.429688,65.5004883 Z M186.461914,75 L187.72168,75 L187.72168,70.1074219 C187.72168,68.9941406 188.593262,68.1884766 189.794434,68.1884766 C190.043457,68.1884766 190.497559,68.2324219 190.600098,68.2617188 L190.600098,67.0019531 C190.438965,66.9799805 190.175293,66.965332 189.970215,66.965332 C188.922852,66.965332 188.014648,67.5073242 187.780273,68.2763672 L187.663086,68.2763672 L187.663086,67.1044922 L186.461914,67.1044922 L186.461914,75 Z M195.104492,68.0786133 C193.844727,68.0786133 192.96582,69.0014648 192.870605,70.4003906 L197.221191,70.4003906 C197.191895,69.0014648 196.356934,68.0786133 195.104492,68.0786133 Z M197.18457,72.956543 L198.444336,72.956543 C198.063477,74.3115234 196.847656,75.1391602 195.119141,75.1391602 C192.929199,75.1391602 191.55957,73.5571289 191.55957,71.0595703 C191.55957,68.5766602 192.951172,66.965332 195.119141,66.965332 C197.250488,66.965332 198.546875,68.4814453 198.546875,70.9350586 L198.546875,71.418457 L192.870605,71.418457 L192.870605,71.4770508 C192.936523,73.0371094 193.808105,74.0258789 195.148438,74.0258789 C196.166504,74.0258789 196.85498,73.6523438 197.18457,72.956543 Z M201.051758,75 L202.311523,75 L202.311523,68.1591797 L204.120605,68.1591797 L204.120605,67.1044922 L202.311523,67.1044922 L202.311523,66.3720703 C202.311523,65.4858398 202.736328,65.1049805 203.490723,65.1049805 C203.739746,65.1049805 204.025391,65.1342773 204.193848,65.1708984 L204.193848,64.1162109 C203.88623,64.0649414 203.666504,64.0429688 203.41748,64.0429688 C201.894043,64.0429688 201.051758,64.7167969 201.051758,66.3354492 L201.051758,67.1044922 L199.740723,67.1044922 L199.740723,68.1591797 L201.051758,68.1591797 L201.051758,75 Z M208.866699,75.1391602 C206.618164,75.1391602 205.226562,73.5864258 205.226562,71.0522461 C205.226562,68.5107422 206.618164,66.965332 208.866699,66.965332 C211.115234,66.965332 212.506836,68.5107422 212.506836,71.0522461 C212.506836,73.5864258 211.115234,75.1391602 208.866699,75.1391602 Z M208.866699,74.0039062 C210.36084,74.0039062 211.203125,72.9199219 211.203125,71.0522461 C211.203125,69.1772461 210.36084,68.1005859 208.866699,68.1005859 C207.372559,68.1005859 206.530273,69.1772461 206.530273,71.0522461 C206.530273,72.9199219 207.372559,74.0039062 208.866699,74.0039062 Z M216.916016,72.019043 L218.783691,75 L220.277832,75 L217.560547,71.0009766 L220.241211,67.1044922 L218.812988,67.1044922 L216.959961,70.0415039 L216.842773,70.0415039 L214.967773,67.1044922 L213.466309,67.1044922 L216.198242,71.0522461 L213.495605,75 L214.923828,75 L216.798828,72.019043 L216.916016,72.019043 Z M227.65332,68.5913086 C226.671875,68.5913086 226.093262,69.3530273 226.093262,70.6347656 C226.093262,71.9091797 226.679199,72.6855469 227.638672,72.6855469 C228.64209,72.6855469 229.286621,71.887207 229.286621,70.6347656 C229.286621,69.3823242 228.649414,68.5913086 227.65332,68.5913086 Z M227.909668,64.4897461 C231.374023,64.4897461 233.783691,66.7016602 233.783691,69.8803711 C233.783691,72.2680664 232.714355,73.7841797 231.029785,73.7841797 C230.172852,73.7841797 229.506348,73.2714844 229.418457,72.5537109 L229.30127,72.5537109 C228.986328,73.3007812 228.327148,73.7182617 227.470215,73.7182617 C225.946777,73.7182617 224.921387,72.4658203 224.921387,70.6054688 C224.921387,68.8256836 225.96875,67.5805664 227.470215,67.5805664 C228.239258,67.5805664 228.898438,67.9760742 229.184082,68.6132812 L229.30127,68.6132812 L229.30127,67.7197266 L230.407227,67.7197266 L230.407227,72.019043 C230.407227,72.5317383 230.70752,72.8320312 231.234863,72.8320312 C232.157715,72.8320312 232.750977,71.6674805 232.750977,69.8657227 C232.750977,67.2216797 230.744141,65.4125977 227.814453,65.4125977 C224.950684,65.4125977 222.892578,67.5952148 222.892578,70.6420898 C222.892578,73.7695312 224.914062,75.7836914 228.048828,75.7836914 C229.052246,75.7836914 230.041016,75.6445312 230.502441,75.4321289 L230.502441,76.3549805 C229.843262,76.5820312 228.957031,76.7138672 228.03418,76.7138672 C224.254883,76.7138672 221.859863,74.3408203 221.859863,70.5981445 C221.859863,66.9726562 224.320801,64.4897461 227.909668,64.4897461 Z M235.768555,75 L237.02832,75 L237.02832,70.1074219 C237.02832,68.9941406 237.82666,68.1005859 238.859375,68.1005859 C239.855469,68.1005859 240.507324,68.7011719 240.507324,69.6386719 L240.507324,75 L241.76709,75 L241.76709,69.9243164 C241.76709,68.9208984 242.499512,68.1005859 243.598145,68.1005859 C244.711426,68.1005859 245.260742,68.671875 245.260742,69.8364258 L245.260742,75 L246.520508,75 L246.520508,69.543457 C246.520508,67.8881836 245.619629,66.965332 244.008301,66.965332 C242.916992,66.965332 242.016113,67.5146484 241.591309,68.3496094 L241.474121,68.3496094 C241.10791,67.5292969 240.36084,66.965332 239.291504,66.965332 C238.236816,66.965332 237.445801,67.4707031 237.086914,68.3496094 L236.969727,68.3496094 L236.969727,67.1044922 L235.768555,67.1044922 L235.768555,75 Z M252.064941,75.1391602 C249.816406,75.1391602 248.424805,73.5864258 248.424805,71.0522461 C248.424805,68.5107422 249.816406,66.965332 252.064941,66.965332 C254.313477,66.965332 255.705078,68.5107422 255.705078,71.0522461 C255.705078,73.5864258 254.313477,75.1391602 252.064941,75.1391602 Z M252.064941,74.0039062 C253.559082,74.0039062 254.401367,72.9199219 254.401367,71.0522461 C254.401367,69.1772461 253.559082,68.1005859 252.064941,68.1005859 C250.570801,68.1005859 249.728516,69.1772461 249.728516,71.0522461 C249.728516,72.9199219 250.570801,74.0039062 252.064941,74.0039062 Z M257.279785,75 L263.358887,75 L263.358887,73.9453125 L258.803223,73.9453125 L258.803223,73.828125 L263.336914,68.0493164 L263.336914,67.1044922 L257.287109,67.1044922 L257.287109,68.1591797 L261.835449,68.1591797 L261.835449,68.2763672 L257.279785,74.0771484 L257.279785,75 Z M265.578125,75 L266.837891,75 L266.837891,67.1044922 L265.578125,67.1044922 L265.578125,75 Z M266.208008,65.5004883 C266.691406,65.5004883 267.086914,65.1049805 267.086914,64.621582 C267.086914,64.1381836 266.691406,63.7426758 266.208008,63.7426758 C265.724609,63.7426758 265.329102,64.1381836 265.329102,64.621582 C265.329102,65.1049805 265.724609,65.5004883 266.208008,65.5004883 Z M269.313477,75 L270.573242,75 L270.573242,63.9697266 L269.313477,63.9697266 L269.313477,75 Z M273.092773,75 L274.352539,75 L274.352539,63.9697266 L273.092773,63.9697266 L273.092773,75 Z M279.230469,74.0332031 C280.526855,74.0332031 281.486328,73.1835938 281.486328,72.0556641 L281.486328,71.3305664 L279.362305,71.4697266 C278.161133,71.550293 277.633789,71.9677734 277.633789,72.7587891 C277.633789,73.5644531 278.314941,74.0332031 279.230469,74.0332031 Z M278.996094,75.1391602 C277.465332,75.1391602 276.330078,74.230957 276.330078,72.7880859 C276.330078,71.3745117 277.370117,70.5615234 279.208496,70.4516602 L281.486328,70.3125 L281.486328,69.5947266 C281.486328,68.6206055 280.878418,68.0859375 279.699219,68.0859375 C278.754395,68.0859375 278.095215,68.4448242 277.919434,69.0673828 L276.64502,69.0673828 C276.813477,67.800293 278.058594,66.965332 279.743164,66.965332 C281.669434,66.965332 282.746094,67.9541016 282.746094,69.5947266 L282.746094,75 L281.544922,75 L281.544922,73.8354492 L281.427734,73.8354492 C280.915039,74.6777344 280.050781,75.1391602 278.996094,75.1391602 Z M286.115234,75.0732422 C286.642578,75.0732422 287.067383,74.6411133 287.067383,74.1210938 C287.067383,73.59375 286.642578,73.1689453 286.115234,73.1689453 C285.595215,73.1689453 285.163086,73.59375 285.163086,74.1210938 C285.163086,74.6411133 285.595215,75.0732422 286.115234,75.0732422 Z M295.768555,69.5214844 C295.548828,68.1152344 294.376953,66.965332 292.458008,66.965332 C290.246094,66.965332 288.839844,68.5620117 288.839844,71.0229492 C288.839844,73.5351562 290.253418,75.1391602 292.465332,75.1391602 C294.362305,75.1391602 295.541504,74.0698242 295.768555,72.6196289 L294.494141,72.6196289 C294.259766,73.5131836 293.52002,74.0039062 292.458008,74.0039062 C291.051758,74.0039062 290.143555,72.8466797 290.143555,71.0229492 C290.143555,69.2358398 291.037109,68.1005859 292.458008,68.1005859 C293.593262,68.1005859 294.289062,68.737793 294.494141,69.5214844 L295.768555,69.5214844 Z M300.873535,75.1391602 C298.625,75.1391602 297.233398,73.5864258 297.233398,71.0522461 C297.233398,68.5107422 298.625,66.965332 300.873535,66.965332 C303.12207,66.965332 304.513672,68.5107422 304.513672,71.0522461 C304.513672,73.5864258 303.12207,75.1391602 300.873535,75.1391602 Z M300.873535,74.0039062 C302.367676,74.0039062 303.209961,72.9199219 303.209961,71.0522461 C303.209961,69.1772461 302.367676,68.1005859 300.873535,68.1005859 C299.379395,68.1005859 298.537109,69.1772461 298.537109,71.0522461 C298.537109,72.9199219 299.379395,74.0039062 300.873535,74.0039062 Z M306.491211,75 L307.750977,75 L307.750977,70.1074219 C307.750977,68.9941406 308.549316,68.1005859 309.582031,68.1005859 C310.578125,68.1005859 311.22998,68.7011719 311.22998,69.6386719 L311.22998,75 L312.489746,75 L312.489746,69.9243164 C312.489746,68.9208984 313.222168,68.1005859 314.320801,68.1005859 C315.434082,68.1005859 315.983398,68.671875 315.983398,69.8364258 L315.983398,75 L317.243164,75 L317.243164,69.543457 C317.243164,67.8881836 316.342285,66.965332 314.730957,66.965332 C313.639648,66.965332 312.73877,67.5146484 312.313965,68.3496094 L312.196777,68.3496094 C311.830566,67.5292969 311.083496,66.965332 310.01416,66.965332 C308.959473,66.965332 308.168457,67.4707031 307.80957,68.3496094 L307.692383,68.3496094 L307.692383,67.1044922 L306.491211,67.1044922 L306.491211,75 Z"/>
    <path fill="#0C0C0D" d="M170.842773,47.9716797 L166.310547,47.9716797 L166.310547,44.8232422 L170.60791,44.8232422 L170.60791,43.8076172 L166.310547,43.8076172 L166.310547,40.8686523 L170.842773,40.8686523 L170.842773,39.840332 L165.167969,39.840332 L165.167969,49 L170.842773,49 L170.842773,47.9716797 Z M172.772461,49 L173.864258,49 L173.864258,44.7597656 C173.864258,43.7949219 174.556152,43.0205078 175.451172,43.0205078 C176.314453,43.0205078 176.879395,43.5410156 176.879395,44.3535156 L176.879395,49 L177.971191,49 L177.971191,44.6010742 C177.971191,43.7314453 178.605957,43.0205078 179.558105,43.0205078 C180.522949,43.0205078 180.999023,43.515625 180.999023,44.5249023 L180.999023,49 L182.09082,49 L182.09082,44.2709961 C182.09082,42.8364258 181.310059,42.0366211 179.913574,42.0366211 C178.967773,42.0366211 178.187012,42.5126953 177.818848,43.2363281 L177.717285,43.2363281 C177.399902,42.5253906 176.752441,42.0366211 175.825684,42.0366211 C174.911621,42.0366211 174.226074,42.4746094 173.915039,43.2363281 L173.813477,43.2363281 L173.813477,42.1572266 L172.772461,42.1572266 L172.772461,49 Z M186.191406,48.1621094 C187.314941,48.1621094 188.146484,47.4257812 188.146484,46.4482422 L188.146484,45.8198242 L186.305664,45.9404297 C185.264648,46.0102539 184.807617,46.3720703 184.807617,47.0576172 C184.807617,47.7558594 185.397949,48.1621094 186.191406,48.1621094 Z M185.988281,49.1206055 C184.661621,49.1206055 183.677734,48.3334961 183.677734,47.0830078 C183.677734,45.8579102 184.579102,45.1533203 186.172363,45.0581055 L188.146484,44.9375 L188.146484,44.3154297 C188.146484,43.4711914 187.619629,43.0078125 186.597656,43.0078125 C185.778809,43.0078125 185.20752,43.3188477 185.055176,43.8583984 L183.950684,43.8583984 C184.09668,42.7602539 185.175781,42.0366211 186.635742,42.0366211 C188.305176,42.0366211 189.238281,42.8935547 189.238281,44.3154297 L189.238281,49 L188.197266,49 L188.197266,47.9907227 L188.095703,47.9907227 C187.651367,48.7207031 186.902344,49.1206055 185.988281,49.1206055 Z M191.282227,49 L192.374023,49 L192.374023,42.1572266 L191.282227,42.1572266 L191.282227,49 Z M191.828125,40.7670898 C192.24707,40.7670898 192.589844,40.4243164 192.589844,40.0053711 C192.589844,39.5864258 192.24707,39.2436523 191.828125,39.2436523 C191.40918,39.2436523 191.066406,39.5864258 191.066406,40.0053711 C191.066406,40.4243164 191.40918,40.7670898 191.828125,40.7670898 Z M194.519531,49 L195.611328,49 L195.611328,39.4404297 L194.519531,39.4404297 L194.519531,49 Z M203.507812,48.1621094 C204.631348,48.1621094 205.462891,47.4257812 205.462891,46.4482422 L205.462891,45.8198242 L203.62207,45.9404297 C202.581055,46.0102539 202.124023,46.3720703 202.124023,47.0576172 C202.124023,47.7558594 202.714355,48.1621094 203.507812,48.1621094 Z M203.304688,49.1206055 C201.978027,49.1206055 200.994141,48.3334961 200.994141,47.0830078 C200.994141,45.8579102 201.895508,45.1533203 203.48877,45.0581055 L205.462891,44.9375 L205.462891,44.3154297 C205.462891,43.4711914 204.936035,43.0078125 203.914062,43.0078125 C203.095215,43.0078125 202.523926,43.3188477 202.371582,43.8583984 L201.26709,43.8583984 C201.413086,42.7602539 202.492188,42.0366211 203.952148,42.0366211 C205.621582,42.0366211 206.554688,42.8935547 206.554688,44.3154297 L206.554688,49 L205.513672,49 L205.513672,47.9907227 L205.412109,47.9907227 C204.967773,48.7207031 204.21875,49.1206055 203.304688,49.1206055 Z M211.105957,49.1206055 C209.354004,49.1206055 208.230469,47.7304688 208.230469,45.5786133 C208.230469,43.4331055 209.366699,42.0366211 211.105957,42.0366211 C212.058105,42.0366211 212.864258,42.4873047 213.251465,43.2363281 L213.34668,43.2363281 L213.34668,39.4404297 L214.438477,39.4404297 L214.438477,49 L213.397461,49 L213.397461,47.9082031 L213.295898,47.9082031 C212.864258,48.6699219 212.051758,49.1206055 211.105957,49.1206055 Z M211.359863,43.0205078 C210.115723,43.0205078 209.360352,43.9853516 209.360352,45.5786133 C209.360352,47.1782227 210.109375,48.1367188 211.359863,48.1367188 C212.604004,48.1367188 213.37207,47.1591797 213.37207,45.5786133 C213.37207,44.0107422 212.597656,43.0205078 211.359863,43.0205078 Z M219.091309,49.1206055 C217.339355,49.1206055 216.21582,47.7304688 216.21582,45.5786133 C216.21582,43.4331055 217.352051,42.0366211 219.091309,42.0366211 C220.043457,42.0366211 220.849609,42.4873047 221.236816,43.2363281 L221.332031,43.2363281 L221.332031,39.4404297 L222.423828,39.4404297 L222.423828,49 L221.382812,49 L221.382812,47.9082031 L221.28125,47.9082031 C220.849609,48.6699219 220.037109,49.1206055 219.091309,49.1206055 Z M219.345215,43.0205078 C218.101074,43.0205078 217.345703,43.9853516 217.345703,45.5786133 C217.345703,47.1782227 218.094727,48.1367188 219.345215,48.1367188 C220.589355,48.1367188 221.357422,47.1591797 221.357422,45.5786133 C221.357422,44.0107422 220.583008,43.0205078 219.345215,43.0205078 Z M224.543945,49 L225.635742,49 L225.635742,44.7597656 C225.635742,43.7949219 226.391113,43.0966797 227.432129,43.0966797 C227.647949,43.0966797 228.041504,43.1347656 228.130371,43.1601562 L228.130371,42.0683594 C227.990723,42.0493164 227.762207,42.0366211 227.584473,42.0366211 C226.676758,42.0366211 225.889648,42.5063477 225.686523,43.1728516 L225.584961,43.1728516 L225.584961,42.1572266 L224.543945,42.1572266 L224.543945,49 Z M232.224609,43.0014648 C231.132812,43.0014648 230.371094,43.8012695 230.288574,45.0136719 L234.059082,45.0136719 C234.033691,43.8012695 233.310059,43.0014648 232.224609,43.0014648 Z M234.027344,47.2290039 L235.119141,47.2290039 C234.789062,48.4033203 233.735352,49.1206055 232.237305,49.1206055 C230.339355,49.1206055 229.152344,47.7495117 229.152344,45.5849609 C229.152344,43.4331055 230.358398,42.0366211 232.237305,42.0366211 C234.084473,42.0366211 235.208008,43.3505859 235.208008,45.4770508 L235.208008,45.8959961 L230.288574,45.8959961 L230.288574,45.9467773 C230.345703,47.2988281 231.101074,48.1557617 232.262695,48.1557617 C233.14502,48.1557617 233.741699,47.8320312 234.027344,47.2290039 Z M236.763184,44.0297852 C236.763184,45.0200195 237.347168,45.5722656 238.629395,45.8833008 L239.803711,46.1689453 C240.533691,46.3466797 240.88916,46.6640625 240.88916,47.1337891 C240.88916,47.762207 240.229004,48.2001953 239.308594,48.2001953 C238.432617,48.2001953 237.886719,47.8320312 237.702637,47.2543945 L236.579102,47.2543945 C236.699707,48.390625 237.74707,49.1206055 239.270508,49.1206055 C240.825684,49.1206055 242.012695,48.2763672 242.012695,47.0512695 C242.012695,46.0673828 241.390625,45.5087891 240.102051,45.1977539 L239.04834,44.9438477 C238.242188,44.7470703 237.861328,44.4550781 237.861328,43.9853516 C237.861328,43.3759766 238.496094,42.9633789 239.308594,42.9633789 C240.133789,42.9633789 240.666992,43.3251953 240.812988,43.8710938 L241.89209,43.8710938 C241.746094,42.7475586 240.749512,42.0366211 239.314941,42.0366211 C237.861328,42.0366211 236.763184,42.8935547 236.763184,44.0297852 Z M243.567871,44.0297852 C243.567871,45.0200195 244.151855,45.5722656 245.434082,45.8833008 L246.608398,46.1689453 C247.338379,46.3466797 247.693848,46.6640625 247.693848,47.1337891 C247.693848,47.762207 247.033691,48.2001953 246.113281,48.2001953 C245.237305,48.2001953 244.691406,47.8320312 244.507324,47.2543945 L243.383789,47.2543945 C243.504395,48.390625 244.551758,49.1206055 246.075195,49.1206055 C247.630371,49.1206055 248.817383,48.2763672 248.817383,47.0512695 C248.817383,46.0673828 248.195312,45.5087891 246.906738,45.1977539 L245.853027,44.9438477 C245.046875,44.7470703 244.666016,44.4550781 244.666016,43.9853516 C244.666016,43.3759766 245.300781,42.9633789 246.113281,42.9633789 C246.938477,42.9633789 247.47168,43.3251953 247.617676,43.8710938 L248.696777,43.8710938 C248.550781,42.7475586 247.554199,42.0366211 246.119629,42.0366211 C244.666016,42.0366211 243.567871,42.8935547 243.567871,44.0297852 Z"/>
    <rect width="59" height="22" x="92" y="33" fill="#0A84FF" rx="2"/>
    <polygon fill="#0A84FF" points="147 44 151 40 155 44 151 48"/>
    <path fill="#FFF" d="M102.924,45.612 C102.924,47.46 101.328,48 99.696,48 L97.272,48 L97.272,39.72 L99.54,39.72 C101.088,39.72 102.564,40.2 102.564,41.82 C102.564,42.852 101.832,43.428 101.028,43.608 C101.928,43.764 102.924,44.244 102.924,45.612 Z M101.148,41.928 C101.148,41.1 100.608,40.764 99.66,40.764 L98.664,40.764 L98.664,43.152 L99.744,43.152 C100.668,43.152 101.148,42.792 101.148,41.928 Z M101.46,45.6 C101.46,44.496 100.752,44.196 99.84,44.196 L98.664,44.196 L98.664,46.92 L99.792,46.92 C100.584,46.92 101.46,46.704 101.46,45.6 Z M107.112,41.496 C108.96,41.496 109.968,42.804 109.968,44.82 C109.968,46.836 108.936,48.156 107.1,48.156 C105.252,48.156 104.232,46.884 104.232,44.832 C104.232,42.852 105.264,41.496 107.112,41.496 Z M107.112,42.54 C106.14,42.54 105.648,43.26 105.648,44.832 C105.648,46.404 106.128,47.124 107.1,47.124 C108.072,47.124 108.552,46.404 108.552,44.82 C108.552,43.26 108.072,42.54 107.112,42.54 Z M116.832,39.12 L116.832,48 L115.644,48 L115.548,47.22 C115.128,47.82 114.516,48.156 113.772,48.156 C112.14,48.156 111.384,46.824 111.384,44.832 C111.384,42.9 112.32,41.496 113.892,41.496 C114.552,41.496 115.08,41.736 115.488,42.18 L115.488,38.964 L116.832,39.12 Z M114.24,42.528 C113.34,42.528 112.812,43.248 112.812,44.832 C112.812,46.452 113.292,47.124 114.132,47.124 C114.732,47.124 115.164,46.728 115.488,46.224 L115.488,43.236 C115.176,42.792 114.756,42.528 114.24,42.528 Z M124.512,41.664 L123.132,41.664 L121.512,47.064 L119.916,41.664 L118.488,41.664 L120.624,48 L121.08,48 C120.732,48.912 120.336,49.38 119.052,49.584 L119.22,50.592 C120.996,50.448 121.848,49.464 122.328,48.024 L124.512,41.664 Z M138.66,46.944 L137.004,46.944 L137.004,39.72 L135.816,39.72 L133.272,41.28 L133.848,42.228 L135.672,41.1 L135.672,46.944 L133.656,46.944 L133.656,48 L138.66,48 L138.66,46.944 Z M143.1,39.552 C144.96,39.552 145.92,41.112 145.92,43.848 C145.92,46.596 144.96,48.156 143.1,48.156 C141.24,48.156 140.28,46.596 140.28,43.848 C140.28,41.112 141.24,39.552 143.1,39.552 Z M143.1,40.584 C142.164,40.584 141.636,41.52 141.636,43.848 C141.636,46.224 142.176,47.136 143.1,47.136 C144.036,47.136 144.564,46.212 144.564,43.848 C144.564,41.496 144.036,40.584 143.1,40.584 Z M143.1,43.08 C143.556,43.08 143.892,43.428 143.892,43.86 C143.892,44.304 143.556,44.652 143.1,44.652 C142.656,44.652 142.32,44.304 142.32,43.86 C142.32,43.428 142.656,43.08 143.1,43.08 Z"/>
    <rect width="88" height="22" x="63" y="60" fill="#0A84FF" rx="2"/>
    <polygon fill="#0A84FF" points="147 71 151 67 155 71 151 75"/>
    <path fill="#FFF" d="M73.524,72.612 C73.524,74.46 71.928,75 70.296,75 L67.872,75 L67.872,66.72 L70.14,66.72 C71.688,66.72 73.164,67.2 73.164,68.82 C73.164,69.852 72.432,70.428 71.628,70.608 C72.528,70.764 73.524,71.244 73.524,72.612 Z M71.748,68.928 C71.748,68.1 71.208,67.764 70.26,67.764 L69.264,67.764 L69.264,70.152 L70.344,70.152 C71.268,70.152 71.748,69.792 71.748,68.928 Z M72.06,72.6 C72.06,71.496 71.352,71.196 70.44,71.196 L69.264,71.196 L69.264,73.92 L70.392,73.92 C71.184,73.92 72.06,73.704 72.06,72.6 Z M77.712,68.496 C79.56,68.496 80.568,69.804 80.568,71.82 C80.568,73.836 79.536,75.156 77.7,75.156 C75.852,75.156 74.832,73.884 74.832,71.832 C74.832,69.852 75.864,68.496 77.712,68.496 Z M77.712,69.54 C76.74,69.54 76.248,70.26 76.248,71.832 C76.248,73.404 76.728,74.124 77.7,74.124 C78.672,74.124 79.152,73.404 79.152,71.82 C79.152,70.26 78.672,69.54 77.712,69.54 Z M87.432,66.12 L87.432,75 L86.244,75 L86.148,74.22 C85.728,74.82 85.116,75.156 84.372,75.156 C82.74,75.156 81.984,73.824 81.984,71.832 C81.984,69.9 82.92,68.496 84.492,68.496 C85.152,68.496 85.68,68.736 86.088,69.18 L86.088,65.964 L87.432,66.12 Z M84.84,69.528 C83.94,69.528 83.412,70.248 83.412,71.832 C83.412,73.452 83.892,74.124 84.732,74.124 C85.332,74.124 85.764,73.728 86.088,73.224 L86.088,70.236 C85.776,69.792 85.356,69.528 84.84,69.528 Z M95.112,68.664 L93.732,68.664 L92.112,74.064 L90.516,68.664 L89.088,68.664 L91.224,75 L91.68,75 C91.332,75.912 90.936,76.38 89.652,76.584 L89.82,77.592 C91.596,77.448 92.448,76.464 92.928,75.024 L95.112,68.664 Z M106.164,66.552 C104.964,66.552 104.16,67.008 103.524,67.824 L104.388,68.496 C104.88,67.896 105.324,67.632 106.068,67.632 C106.908,67.632 107.4,68.148 107.4,68.976 C107.4,70.188 106.656,71.124 103.692,73.98 L103.692,75 L108.84,75 L108.996,73.908 L105.228,73.908 C107.88,71.52 108.804,70.344 108.804,68.892 C108.804,67.596 107.856,66.552 106.164,66.552 Z M113.7,66.552 C115.56,66.552 116.52,68.112 116.52,70.848 C116.52,73.596 115.56,75.156 113.7,75.156 C111.84,75.156 110.88,73.596 110.88,70.848 C110.88,68.112 111.84,66.552 113.7,66.552 Z M113.7,67.584 C112.764,67.584 112.236,68.52 112.236,70.848 C112.236,73.224 112.776,74.136 113.7,74.136 C114.636,74.136 115.164,73.212 115.164,70.848 C115.164,68.496 114.636,67.584 113.7,67.584 Z M113.7,70.08 C114.156,70.08 114.492,70.428 114.492,70.86 C114.492,71.304 114.156,71.652 113.7,71.652 C113.256,71.652 112.92,71.304 112.92,70.86 C112.92,70.428 113.256,70.08 113.7,70.08 Z M130.956,73.092 L130.956,72.048 L129.972,72.048 L129.972,69.84 L128.82,69.84 L128.688,72.048 L126.648,72.048 L128.76,66.996 L127.62,66.552 L125.244,72.156 L125.244,73.092 L128.676,73.092 L128.676,75 L129.972,75 L129.972,73.092 L130.956,73.092 Z M135.3,66.552 C137.16,66.552 138.12,68.112 138.12,70.848 C138.12,73.596 137.16,75.156 135.3,75.156 C133.44,75.156 132.48,73.596 132.48,70.848 C132.48,68.112 133.44,66.552 135.3,66.552 Z M135.3,67.584 C134.364,67.584 133.836,68.52 133.836,70.848 C133.836,73.224 134.376,74.136 135.3,74.136 C136.236,74.136 136.764,73.212 136.764,70.848 C136.764,68.496 136.236,67.584 135.3,67.584 Z M135.3,70.08 C135.756,70.08 136.092,70.428 136.092,70.86 C136.092,71.304 135.756,71.652 135.3,71.652 C134.856,71.652 134.52,71.304 134.52,70.86 C134.52,70.428 134.856,70.08 135.3,70.08 Z M145.38,66.9 L140.304,75.276 L139.524,74.856 L144.588,66.48 L145.38,66.9 Z M140.808,66.552 C141.9,66.552 142.536,67.392 142.536,68.46 C142.536,69.528 141.9,70.38 140.808,70.38 C139.704,70.38 139.056,69.528 139.056,68.46 C139.056,67.404 139.704,66.552 140.808,66.552 Z M140.808,67.356 C140.352,67.356 140.1,67.728 140.1,68.46 C140.1,69.156 140.352,69.576 140.808,69.576 C141.252,69.576 141.504,69.216 141.504,68.46 C141.504,67.68 141.252,67.356 140.808,67.356 Z M144.216,71.244 C145.32,71.244 145.956,72.084 145.956,73.152 C145.956,74.22 145.32,75.072 144.216,75.072 C143.112,75.072 142.464,74.22 142.464,73.152 C142.464,72.096 143.112,71.244 144.216,71.244 Z M144.216,72.048 C143.772,72.048 143.508,72.408 143.508,73.152 C143.508,73.86 143.76,74.28 144.216,74.28 C144.66,74.28 144.912,73.908 144.912,73.152 C144.912,72.384 144.66,72.048 144.216,72.048 Z"/>
    <rect width="5" height="1" x="471" fill="#30E60B"/>
    <rect width="1" height="30" x="349" y="55" fill="#30E60B"/>
    <rect width="5" height="1" x="347" y="55" fill="#30E60B"/>
    <rect width="5" height="1" x="347" y="84" fill="#30E60B"/>
    <rect width="35" height="22" x="357" y="59" fill="#30E60B" rx="2"/>
    <polygon fill="#30E60B" points="353 70 357 66 361 70 357 74"/>
    <path fill="#000" d="M363.24,65.552 C362.28,65.552 361.428,65.876 360.708,66.572 L361.416,67.34 C361.932,66.848 362.436,66.596 363.132,66.596 C363.936,66.596 364.56,67.04 364.56,67.844 C364.56,68.732 363.888,69.152 363.108,69.152 L362.604,69.152 L362.448,70.136 L363.156,70.136 C364.104,70.136 364.752,70.52 364.752,71.588 C364.752,72.524 364.116,73.088 363.084,73.088 C362.424,73.088 361.764,72.836 361.296,72.284 L360.468,73.004 C361.116,73.784 362.112,74.156 363.156,74.156 C364.968,74.156 366.156,73.052 366.156,71.636 C366.156,70.328 365.28,69.704 364.248,69.596 C365.172,69.38 365.892,68.672 365.892,67.64 C365.892,66.512 364.884,65.552 363.24,65.552 Z M370.8,65.552 C372.66,65.552 373.62,67.112 373.62,69.848 C373.62,72.596 372.66,74.156 370.8,74.156 C368.94,74.156 367.98,72.596 367.98,69.848 C367.98,67.112 368.94,65.552 370.8,65.552 Z M370.8,66.584 C369.864,66.584 369.336,67.52 369.336,69.848 C369.336,72.224 369.876,73.136 370.8,73.136 C371.736,73.136 372.264,72.212 372.264,69.848 C372.264,67.496 371.736,66.584 370.8,66.584 Z M370.8,69.08 C371.256,69.08 371.592,69.428 371.592,69.86 C371.592,70.304 371.256,70.652 370.8,70.652 C370.356,70.652 370.02,70.304 370.02,69.86 C370.02,69.428 370.356,69.08 370.8,69.08 Z M378.564,67.496 C380.232,67.496 380.868,68.804 380.868,70.82 C380.868,72.752 380.028,74.156 378.42,74.156 C377.76,74.156 377.22,73.928 376.812,73.46 L376.812,76.436 L375.468,76.592 L375.468,67.664 L376.644,67.664 L376.728,68.48 C377.208,67.832 377.856,67.496 378.564,67.496 Z M378.192,68.528 C377.592,68.528 377.124,68.948 376.812,69.44 L376.812,72.404 C377.124,72.86 377.544,73.112 378.06,73.112 C378.972,73.112 379.452,72.416 379.452,70.832 C379.452,69.2 379.032,68.528 378.192,68.528 Z M382.116,74 L383.604,74 L385.152,71.408 L386.7,74 L388.284,74 L386.004,70.604 L387.984,67.664 L386.508,67.664 L385.212,69.896 L383.916,67.664 L382.368,67.664 L384.384,70.664 L382.116,74 Z"/>
  </g>
</svg>
