<svg xmlns="http://www.w3.org/2000/svg" xmlns:xlink="http://www.w3.org/1999/xlink" viewBox="0 0 360 122"><defs><rect id="a" width="178" height="30" rx="2"/></defs><g fill="none" fill-rule="evenodd" transform="translate(75 24)"><g transform="translate(0 22)"><use fill="#FFFFFF" xlink:href="#a"/><rect width="177" height="29" x=".5" y=".5" stroke="#00BDDF" rx="2"/><rect width="179" height="31" x="-.5" y="-.5" stroke="#B1EDF6" opacity=".52" rx="2"/><rect width="181" height="33" x="-1.5" y="-1.5" stroke="#DFF8FB" stroke-width="3" opacity=".52" rx="2"/><g transform="translate(8 3)"><path fill="#0C0C0D" fill-opacity=".4" d="M2.71 17h1.26v-6.84h1.81V9.1h-1.8v-.73c0-.88.42-1.27 1.17-1.27.25 0 .54.03.7.07V6.12c-.3-.06-.52-.08-.77-.08-1.52 0-2.37.68-2.37 2.3v.76h-1.3v1.06h1.3V17zm4.93 0H8.9V9.1H7.64V17zm.63-9.5a.88.88 0 0 0 0-1.76c-.48 0-.88.4-.88.88s.4.88.88.88zm3.04 9.5h1.25v-4.9c0-1.1.88-1.91 2.08-1.91.25 0 .7.04.8.07V9a5.41 5.41 0 0 0-.63-.03c-1.04 0-1.95.54-2.19 1.3h-.11V9.1h-1.2V17zm8.64-6.92c-1.26 0-2.14.92-2.24 2.32h4.35c-.02-1.4-.86-2.32-2.11-2.32zm2.08 4.88h1.26c-.38 1.35-1.6 2.18-3.33 2.18-2.19 0-3.56-1.58-3.56-4.08 0-2.48 1.4-4.1 3.56-4.1 2.13 0 3.43 1.52 3.43 3.98v.48h-5.68v.06c.07 1.56.94 2.55 2.28 2.55 1.02 0 1.7-.38 2.04-1.07zM25.9 17h1.25v-6.84h1.81V9.1h-1.8v-.73c0-.88.42-1.27 1.17-1.27.25 0 .54.03.7.07V6.12c-.3-.06-.52-.08-.77-.08-1.52 0-2.36.68-2.36 2.3v.76h-1.32v1.06h1.32V17zm7.81.14c-2.25 0-3.64-1.55-3.64-4.09s1.4-4.08 3.64-4.08c2.25 0 3.64 1.54 3.64 4.08s-1.4 4.09-3.64 4.09zm0-1.14c1.5 0 2.34-1.08 2.34-2.95s-.85-2.95-2.34-2.95c-1.5 0-2.34 1.08-2.34 2.95S32.22 16 33.71 16zm8.05-1.98L43.63 17h1.5l-2.73-4 2.68-3.9h-1.42l-1.86 2.94h-.11L39.8 9.1h-1.5l2.73 3.95-2.7 3.95h1.43l1.87-2.98h.12zm10.74-3.43c-.98 0-1.56.76-1.56 2.04s.58 2.06 1.54 2.06c1 0 1.65-.8 1.65-2.06 0-1.25-.64-2.04-1.63-2.04zm.25-4.1c3.47 0 5.88 2.21 5.88 5.39 0 2.39-1.07 3.9-2.76 3.9-.85 0-1.52-.5-1.6-1.23h-.13a1.88 1.88 0 0 1-1.83 1.17c-1.52 0-2.55-1.25-2.55-3.11 0-1.78 1.05-3.03 2.55-3.03.77 0 1.43.4 1.72 1.03h.11v-.89h1.11v4.3c0 .51.3.81.83.81.92 0 1.51-1.16 1.51-2.96 0-2.65-2-4.46-4.93-4.46-2.87 0-4.92 2.19-4.92 5.23 0 3.13 2.02 5.14 5.15 5.14 1 0 2-.14 2.46-.35v.92a7.9 7.9 0 0 1-2.47.36c-3.78 0-6.18-2.37-6.18-6.11 0-3.63 2.46-6.11 6.05-6.11zM60.61 17h1.26v-4.9c0-1.1.8-2 1.83-2 1 0 1.65.6 1.65 1.54V17h1.26v-5.08c0-1 .73-1.82 1.83-1.82 1.11 0 1.66.57 1.66 1.74V17h1.26v-5.46c0-1.65-.9-2.57-2.5-2.57-1.1 0-2 .54-2.43 1.38h-.11a2.28 2.28 0 0 0-2.19-1.38c-1.05 0-1.84.5-2.2 1.38h-.12V9.1h-1.2V17zm16.3.14c-2.25 0-3.64-1.55-3.64-4.09s1.39-4.08 3.64-4.08 3.64 1.54 3.64 4.08-1.4 4.09-3.64 4.09zm0-1.14c1.5 0 2.33-1.08 2.33-2.95s-.84-2.95-2.33-2.95c-1.5 0-2.34 1.08-2.34 2.95S75.41 16 76.91 16zm5.21 1h6.08v-1.05h-4.55v-.12l4.53-5.78V9.1h-6.05v1.06h4.55v.12l-4.56 5.8V17zm8.3 0h1.26V9.1h-1.26V17zm.63-9.5c.48 0 .88-.4.88-.88s-.4-.88-.88-.88-.88.4-.88.88.4.88.88.88zm3.1 9.5h1.27V5.97h-1.26V17zm3.79 0h1.26V5.97h-1.26V17zm6.13-.97c1.3 0 2.26-.85 2.26-1.97v-.73l-2.12.14c-1.2.08-1.73.5-1.73 1.29 0 .8.68 1.27 1.6 1.27zm-.23 1.1c-1.53 0-2.67-.9-2.67-2.34 0-1.42 1.04-2.23 2.88-2.34l2.28-.14v-.72c0-.97-.6-1.5-1.79-1.5-.94 0-1.6.35-1.78.98h-1.27c.17-1.27 1.41-2.1 3.1-2.1 1.92 0 3 .98 3 2.62V17h-1.2v-1.16h-.12a2.73 2.73 0 0 1-2.43 1.3zm7.12-.06a.95.95 0 1 0 0 0zm9.65-5.55c-.22-1.4-1.39-2.55-3.3-2.55-2.22 0-3.63 1.6-3.63 4.05 0 2.52 1.42 4.12 3.63 4.12 1.9 0 3.07-1.07 3.3-2.52h-1.27c-.24.9-.98 1.38-2.04 1.38-1.4 0-2.31-1.15-2.31-2.98 0-1.78.89-2.92 2.31-2.92 1.14 0 1.83.64 2.04 1.42h1.27zm5.1 5.62c-2.24 0-3.63-1.55-3.63-4.09s1.39-4.08 3.64-4.08 3.64 1.54 3.64 4.08-1.4 4.09-3.64 4.09zm0-1.14c1.5 0 2.34-1.08 2.34-2.95s-.84-2.95-2.33-2.95c-1.5 0-2.34 1.08-2.34 2.95s.84 2.95 2.34 2.95zm5.62 1h1.26v-4.9c0-1.1.8-2 1.84-2 1 0 1.64.6 1.64 1.54V17h1.26v-5.08c0-1 .74-1.82 1.83-1.82 1.12 0 1.67.57 1.67 1.74V17h1.26v-5.46c0-1.65-.9-2.57-2.52-2.57-1.09 0-1.99.54-2.41 1.38h-.12a2.28 2.28 0 0 0-2.18-1.38c-1.06 0-1.85.5-2.2 1.38h-.12V9.1h-1.2V17z"/><text fill="#000000" font-family="SegoeUI, Segoe UI" font-size="15"><tspan x="0" y="16">|</tspan></text></g></g><path fill="#0C0C0D" d="M6.84 14.97H2.31v-3.15h4.3v-1.01H2.3V7.87h4.53V6.84H1.17V16h5.67v-1.03zM8.77 16h1.1v-4.24c0-.97.69-1.74 1.58-1.74.86 0 1.43.52 1.43 1.33V16h1.1v-4.4c0-.87.63-1.58 1.58-1.58.96 0 1.44.5 1.44 1.5V16h1.1v-4.73c0-1.43-.79-2.23-2.19-2.23a2.3 2.3 0 0 0-2.1 1.2h-.1a1.98 1.98 0 0 0-1.88-1.2c-.92 0-1.6.43-1.91 1.2h-.1V9.16H8.76V16zm13.42-.84c1.12 0 1.96-.73 1.96-1.71v-.63l-1.84.12c-1.05.07-1.5.43-1.5 1.12 0 .7.59 1.1 1.38 1.1zm-.2.96c-1.33 0-2.31-.79-2.31-2.04 0-1.22.9-1.93 2.5-2.02l1.97-.12v-.62c0-.85-.53-1.31-1.55-1.31-.82 0-1.4.3-1.54.85h-1.1c.14-1.1 1.22-1.82 2.68-1.82 1.67 0 2.6.85 2.6 2.28V16H24.2v-1h-.1a2.36 2.36 0 0 1-2.11 1.12zm5.3-.12h1.08V9.16h-1.09V16zm.54-8.23c.42 0 .76-.35.76-.76a.76.76 0 0 0-.76-.77.76.76 0 0 0-.76.77c0 .41.34.76.76.76zM30.52 16h1.1V6.44h-1.1V16zm8.99-.84c1.12 0 1.95-.73 1.95-1.71v-.63l-1.84.12c-1.04.07-1.5.43-1.5 1.12 0 .7.6 1.1 1.39 1.1zm-.2.96c-1.33 0-2.32-.79-2.32-2.04 0-1.22.9-1.93 2.5-2.02l1.97-.12v-.62c0-.85-.52-1.31-1.55-1.31-.81 0-1.39.3-1.54.85h-1.1c.14-1.1 1.22-1.82 2.68-1.82 1.67 0 2.6.85 2.6 2.28V16h-1.04v-1h-.1a2.36 2.36 0 0 1-2.1 1.12zm7.8 0c-1.76 0-2.88-1.39-2.88-3.54 0-2.15 1.14-3.54 2.88-3.54.95 0 1.75.45 2.14 1.2h.1v-3.8h1.09V16H49.4v-1.1h-.1a2.45 2.45 0 0 1-2.2 1.22zm.25-6.1c-1.24 0-2 .97-2 2.56 0 1.6.75 2.56 2 2.56 1.24 0 2.01-.98 2.01-2.56 0-1.57-.77-2.56-2.01-2.56zm7.73 6.1c-1.75 0-2.87-1.39-2.87-3.54 0-2.15 1.13-3.54 2.87-3.54.95 0 1.76.45 2.15 1.2h.1v-3.8h1.08V16h-1.04v-1.1h-.1a2.45 2.45 0 0 1-2.19 1.22zm.26-6.1c-1.25 0-2 .97-2 2.56 0 1.6.74 2.56 2 2.56 1.24 0 2-.98 2-2.56 0-1.57-.77-2.56-2-2.56zm5.2 5.98h1.09v-4.24c0-.97.75-1.66 1.8-1.66.2 0 .6.03.69.06v-1.1a4.69 4.69 0 0 0-.55-.02c-.9 0-1.69.47-1.9 1.13h-.1V9.16h-1.04V16zm7.67-6c-1.09 0-1.85.8-1.93 2.01h3.77c-.03-1.2-.75-2-1.84-2zm1.8 4.23h1.1c-.33 1.17-1.38 1.9-2.88 1.9-1.9 0-3.09-1.38-3.09-3.55 0-2.15 1.2-3.54 3.09-3.54 1.84 0 2.97 1.31 2.97 3.44v.42h-4.92v.05c.06 1.35.81 2.2 1.97 2.2.89 0 1.48-.32 1.77-.92zm2.74-3.2c0 .99.59 1.54 1.87 1.85l1.17.29c.73.18 1.09.5 1.09.96 0 .63-.66 1.07-1.58 1.07-.88 0-1.42-.37-1.6-.95h-1.13c.12 1.14 1.17 1.87 2.7 1.87 1.55 0 2.73-.84 2.73-2.07 0-.98-.62-1.54-1.9-1.85l-1.06-.26c-.8-.2-1.19-.48-1.19-.95 0-.61.64-1.03 1.45-1.03.82 0 1.36.37 1.5.91h1.08c-.14-1.12-1.14-1.83-2.58-1.83-1.45 0-2.55.85-2.55 1.99zm6.8 0c0 .99.6 1.54 1.87 1.85l1.18.29c.73.18 1.08.5 1.08.96 0 .63-.66 1.07-1.58 1.07-.87 0-1.42-.37-1.6-.95h-1.13c.12 1.14 1.17 1.87 2.7 1.87 1.55 0 2.74-.84 2.74-2.07 0-.98-.62-1.54-1.91-1.85l-1.06-.26c-.8-.2-1.18-.48-1.18-.95 0-.61.63-1.03 1.44-1.03.83 0 1.36.37 1.5.91h1.09c-.15-1.12-1.15-1.83-2.58-1.83-1.45 0-2.55.85-2.55 1.99z"/></g></svg>