<?xml version="1.0" encoding="utf-8"?>
<!-- Generator: Adobe Illustrator 21.1.0, SVG Export Plug-In . SVG Version: 6.00 Build 0)  -->
<svg version="1.1" id="Layer_1" xmlns="http://www.w3.org/2000/svg" xmlns:xlink="http://www.w3.org/1999/xlink" x="0px" y="0px"
	 viewBox="0 0 360 122" style="enable-background:new 0 0 360 122;" xml:space="preserve">
<style type="text/css">
	.st0{fill:#00BDDF;}
	.st1{fill:#B1EDF6;}
	.st2{fill:#DFF8FB;}
	.st3{enable-background:new    ;}
	.st4{fill:#0C0C0D;}
</style>
<g>
	<path class="st0" d="M77,47c-0.6,0-1,0.4-1,1v26c0,0.6,0.4,1,1,1h174c0.6,0,1-0.4,1-1V48c0-0.6-0.4-1-1-1H77z M77,46h174
		c1.1,0,2,0.9,2,2v26c0,1.1-0.9,2-2,2H77c-1.1,0-2-0.9-2-2V48C75,46.9,75.9,46,77,46z"/>
	<path class="st1" d="M77,46c-1.1,0-2,0.9-2,2v26c0,1.1,0.9,2,2,2h174c1.1,0,2-0.9,2-2V48c0-1.1-0.9-2-2-2H77z M77,45h174
		c1.7,0,3,1.3,3,3v26c0,1.7-1.3,3-3,3H77c-1.7,0-3-1.3-3-3V48C74,46.3,75.3,45,77,45z"/>
	<path class="st2" d="M77,46c-1.1,0-2,0.9-2,2v26c0,1.1,0.9,2,2,2h174c1.1,0,2-0.9,2-2V48c0-1.1-0.9-2-2-2H77z M77,43h174
		c2.8,0,5,2.2,5,5v26c0,2.8-2.2,5-5,5H77c-2.8,0-5-2.2-5-5V48C72,45.2,74.2,43,77,43z"/>
	<g transform="translate(83 49)">
		<g class="st3">
			<g>
				<path class="st4" d="M2.7,10.2H1.4V9.1h1.3V8.3C2.7,6.7,3.6,6,5.1,6c0.2,0,0.5,0,0.8,0.1v1.1c-0.2,0-0.5-0.1-0.7-0.1
					C4.4,7.1,4,7.5,4,8.4v0.7h1.8v1.1H4V17H2.7V10.2z"/>
				<path class="st4" d="M7.4,6.6c0-0.5,0.4-0.9,0.9-0.9s0.9,0.4,0.9,0.9c0,0.5-0.4,0.9-0.9,0.9S7.4,7.1,7.4,6.6z M7.6,9.1h1.3V17
					H7.6V9.1z"/>
				<path class="st4" d="M11.3,9.1h1.2v1.2h0.1C12.9,9.5,13.8,9,14.8,9c0.2,0,0.5,0,0.6,0v1.3c-0.1,0-0.6-0.1-0.8-0.1
					c-1.2,0-2.1,0.8-2.1,1.9V17h-1.3V9.1z"/>
				<path class="st4" d="M23.3,15c-0.4,1.4-1.6,2.2-3.3,2.2c-2.2,0-3.6-1.6-3.6-4.1c0-2.5,1.4-4.1,3.6-4.1c2.1,0,3.4,1.5,3.4,4v0.5
					h-5.7v0.1C17.8,15,18.7,16,20,16c1,0,1.7-0.4,2-1.1H23.3z M17.7,12.4h4.4c0-1.4-0.9-2.3-2.1-2.3C18.7,10.1,17.8,11,17.7,12.4z"
					/>
				<path class="st4" d="M25.9,10.2h-1.3V9.1h1.3V8.3c0-1.6,0.8-2.3,2.4-2.3c0.2,0,0.5,0,0.8,0.1v1.1c-0.2,0-0.5-0.1-0.7-0.1
					c-0.8,0-1.2,0.4-1.2,1.3v0.7H29v1.1h-1.8V17h-1.3V10.2z"/>
				<path class="st4" d="M30.1,13.1c0-2.5,1.4-4.1,3.6-4.1s3.6,1.5,3.6,4.1c0,2.5-1.4,4.1-3.6,4.1S30.1,15.6,30.1,13.1z M36,13.1
					c0-1.9-0.8-3-2.3-3s-2.3,1.1-2.3,3c0,1.9,0.8,3,2.3,3S36,14.9,36,13.1z"/>
				<path class="st4" d="M41.6,14l-1.9,3h-1.4l2.7-3.9l-2.7-3.9h1.5l1.9,2.9h0.1l1.9-2.9h1.4L42.4,13l2.7,4h-1.5l-1.9-3H41.6z"/>
				<path class="st4" d="M58.6,11.9c0,2.4-1.1,3.9-2.8,3.9c-0.9,0-1.5-0.5-1.6-1.2h-0.1c-0.3,0.7-1,1.2-1.8,1.2
					c-1.5,0-2.5-1.3-2.5-3.1c0-1.8,1-3,2.5-3c0.8,0,1.4,0.4,1.7,1h0.1V9.7h1.1V14c0,0.5,0.3,0.8,0.8,0.8c0.9,0,1.5-1.2,1.5-3
					c0-2.6-2-4.5-4.9-4.5c-2.9,0-4.9,2.2-4.9,5.2c0,3.1,2,5.1,5.2,5.1c1,0,2-0.1,2.5-0.4v0.9c-0.7,0.2-1.5,0.4-2.5,0.4
					c-3.8,0-6.2-2.4-6.2-6.1c0-3.6,2.5-6.1,6-6.1C56.2,6.5,58.6,8.7,58.6,11.9z M50.9,12.6c0,1.3,0.6,2.1,1.5,2.1
					c1,0,1.6-0.8,1.6-2.1s-0.6-2-1.6-2C51.5,10.6,50.9,11.4,50.9,12.6z"/>
				<path class="st4" d="M60.6,9.1h1.2v1.2h0.1C62.3,9.5,63.1,9,64.1,9c1.1,0,1.8,0.6,2.2,1.4h0.1C66.9,9.5,67.8,9,68.9,9
					c1.6,0,2.5,0.9,2.5,2.6V17h-1.3v-5.2c0-1.2-0.5-1.7-1.7-1.7c-1.1,0-1.8,0.8-1.8,1.8V17h-1.3v-5.4c0-0.9-0.7-1.5-1.6-1.5
					c-1,0-1.8,0.9-1.8,2V17h-1.3V9.1z"/>
				<path class="st4" d="M73.3,13.1c0-2.5,1.4-4.1,3.6-4.1s3.6,1.5,3.6,4.1c0,2.5-1.4,4.1-3.6,4.1S73.3,15.6,73.3,13.1z M79.2,13.1
					c0-1.9-0.8-3-2.3-3s-2.3,1.1-2.3,3c0,1.9,0.8,3,2.3,3S79.2,14.9,79.2,13.1z"/>
				<path class="st4" d="M82.1,16.1l4.6-5.8v-0.1h-4.5V9.1h6V10l-4.5,5.8v0.1h4.6V17h-6.1V16.1z"/>
				<path class="st4" d="M90.2,6.6c0-0.5,0.4-0.9,0.9-0.9s0.9,0.4,0.9,0.9c0,0.5-0.4,0.9-0.9,0.9S90.2,7.1,90.2,6.6z M90.4,9.1h1.3
					V17h-1.3V9.1z"/>
				<path class="st4" d="M94.2,6h1.3v11h-1.3V6z"/>
				<path class="st4" d="M97.9,6h1.3v11h-1.3V6z"/>
				<path class="st4" d="M101.2,14.8c0-1.4,1-2.2,2.9-2.3l2.3-0.1v-0.7c0-1-0.6-1.5-1.8-1.5c-0.9,0-1.6,0.4-1.8,1h-1.3
					c0.2-1.3,1.4-2.1,3.1-2.1c1.9,0,3,1,3,2.6V17h-1.2v-1.2h-0.1c-0.5,0.8-1.4,1.3-2.4,1.3C102.3,17.1,101.2,16.2,101.2,14.8z
					 M106.3,14.1v-0.7l-2.1,0.1c-1.2,0.1-1.7,0.5-1.7,1.3c0,0.8,0.7,1.3,1.6,1.3C105.4,16,106.3,15.2,106.3,14.1z"/>
				<path class="st4" d="M110,16.1c0-0.5,0.4-1,1-1c0.5,0,1,0.4,1,1c0,0.5-0.4,1-1,1C110.4,17.1,110,16.6,110,16.1z"/>
				<path class="st4" d="M119.3,11.5c-0.2-0.8-0.9-1.4-2-1.4c-1.4,0-2.3,1.1-2.3,2.9c0,1.8,0.9,3,2.3,3c1.1,0,1.8-0.5,2-1.4h1.3
					c-0.2,1.5-1.4,2.5-3.3,2.5c-2.2,0-3.6-1.6-3.6-4.1c0-2.5,1.4-4.1,3.6-4.1c1.9,0,3.1,1.2,3.3,2.6H119.3z"/>
				<path class="st4" d="M122.1,13.1c0-2.5,1.4-4.1,3.6-4.1s3.6,1.5,3.6,4.1c0,2.5-1.4,4.1-3.6,4.1S122.1,15.6,122.1,13.1z
					 M128.1,13.1c0-1.9-0.8-3-2.3-3s-2.3,1.1-2.3,3c0,1.9,0.8,3,2.3,3S128.1,14.9,128.1,13.1z"/>
				<path class="st4" d="M131.3,9.1h1.2v1.2h0.1c0.4-0.9,1.2-1.4,2.2-1.4c1.1,0,1.8,0.6,2.2,1.4h0.1c0.4-0.8,1.3-1.4,2.4-1.4
					c1.6,0,2.5,0.9,2.5,2.6V17h-1.3v-5.2c0-1.2-0.5-1.7-1.7-1.7c-1.1,0-1.8,0.8-1.8,1.8V17h-1.3v-5.4c0-0.9-0.7-1.5-1.6-1.5
					c-1,0-1.8,0.9-1.8,2V17h-1.3V9.1z"/>
			</g>
		</g>
		<g class="st3">
			<path d="M2.3,19.5H1.3v-15h1.1V19.5z"/>
		</g>
	</g>
	<path class="st4" d="M81.8,39h-4.5v-3.1h4.3v-1h-4.3v-2.9h4.5v-1h-5.7V40h5.7V39z M83.8,40h1.1v-4.2c0-1,0.7-1.7,1.6-1.7
		c0.9,0,1.4,0.5,1.4,1.3V40H89v-4.4c0-0.9,0.6-1.6,1.6-1.6c1,0,1.4,0.5,1.4,1.5V40h1.1v-4.7c0-1.4-0.8-2.2-2.2-2.2
		c-0.9,0-1.7,0.5-2.1,1.2h-0.1c-0.3-0.7-1-1.2-1.9-1.2c-0.9,0-1.6,0.4-1.9,1.2h-0.1v-1.1h-1V40z M97.2,39.2c1.1,0,2-0.7,2-1.7v-0.6
		l-1.8,0.1c-1,0.1-1.5,0.4-1.5,1.1C95.8,38.8,96.4,39.2,97.2,39.2z M97,40.1c-1.3,0-2.3-0.8-2.3-2c0-1.2,0.9-1.9,2.5-2l2-0.1v-0.6
		c0-0.8-0.5-1.3-1.5-1.3c-0.8,0-1.4,0.3-1.5,0.9H95c0.1-1.1,1.2-1.8,2.7-1.8c1.7,0,2.6,0.9,2.6,2.3V40h-1v-1h-0.1
		C98.7,39.7,97.9,40.1,97,40.1z M102.3,40h1.1v-6.8h-1.1V40z M102.8,31.8c0.4,0,0.8-0.3,0.8-0.8s-0.3-0.8-0.8-0.8s-0.8,0.3-0.8,0.8
		S102.4,31.8,102.8,31.8z M105.5,40h1.1v-9.6h-1.1V40z M114.5,39.2c1.1,0,2-0.7,2-1.7v-0.6l-1.8,0.1c-1,0.1-1.5,0.4-1.5,1.1
		C113.1,38.8,113.7,39.2,114.5,39.2z M114.3,40.1c-1.3,0-2.3-0.8-2.3-2c0-1.2,0.9-1.9,2.5-2l2-0.1v-0.6c0-0.8-0.5-1.3-1.5-1.3
		c-0.8,0-1.4,0.3-1.5,0.9h-1.1c0.1-1.1,1.2-1.8,2.7-1.8c1.7,0,2.6,0.9,2.6,2.3V40h-1v-1h-0.1C116,39.7,115.2,40.1,114.3,40.1z
		 M122.1,40.1c-1.8,0-2.9-1.4-2.9-3.5c0-2.1,1.1-3.5,2.9-3.5c1,0,1.8,0.5,2.1,1.2h0.1v-3.8h1.1V40h-1v-1.1h-0.1
		C123.9,39.7,123.1,40.1,122.1,40.1z M122.4,34c-1.2,0-2,1-2,2.6c0,1.6,0.7,2.6,2,2.6c1.2,0,2-1,2-2.6C124.4,35,123.6,34,122.4,34z
		 M130.1,40.1c-1.8,0-2.9-1.4-2.9-3.5c0-2.1,1.1-3.5,2.9-3.5c1,0,1.8,0.5,2.1,1.2h0.1v-3.8h1.1V40h-1v-1.1h-0.1
		C131.8,39.7,131,40.1,130.1,40.1z M130.3,34c-1.2,0-2,1-2,2.6c0,1.6,0.7,2.6,2,2.6c1.2,0,2-1,2-2.6C132.4,35,131.6,34,130.3,34z
		 M135.5,40h1.1v-4.2c0-1,0.8-1.7,1.8-1.7c0.2,0,0.6,0,0.7,0.1v-1.1c-0.1,0-0.4,0-0.5,0c-0.9,0-1.7,0.5-1.9,1.1h-0.1v-1h-1V40z
		 M143.2,34c-1.1,0-1.9,0.8-1.9,2h3.8C145,34.8,144.3,34,143.2,34z M145,38.2h1.1c-0.3,1.2-1.4,1.9-2.9,1.9c-1.9,0-3.1-1.4-3.1-3.5
		c0-2.2,1.2-3.5,3.1-3.5c1.8,0,3,1.3,3,3.4v0.4h-4.9v0.1c0.1,1.4,0.8,2.2,2,2.2C144.1,39.2,144.7,38.8,145,38.2z M147.8,35
		c0,1,0.6,1.5,1.9,1.9l1.2,0.3c0.7,0.2,1.1,0.5,1.1,1c0,0.6-0.7,1.1-1.6,1.1c-0.9,0-1.4-0.4-1.6-0.9h-1.1c0.1,1.1,1.2,1.9,2.7,1.9
		c1.6,0,2.7-0.8,2.7-2.1c0-1-0.6-1.5-1.9-1.9l-1.1-0.3c-0.8-0.2-1.2-0.5-1.2-1c0-0.6,0.6-1,1.4-1c0.8,0,1.4,0.4,1.5,0.9h1.1
		c-0.1-1.1-1.1-1.8-2.6-1.8C148.9,33,147.8,33.9,147.8,35z M154.6,35c0,1,0.6,1.5,1.9,1.9l1.2,0.3c0.7,0.2,1.1,0.5,1.1,1
		c0,0.6-0.7,1.1-1.6,1.1c-0.9,0-1.4-0.4-1.6-0.9h-1.1c0.1,1.1,1.2,1.9,2.7,1.9c1.6,0,2.7-0.8,2.7-2.1c0-1-0.6-1.5-1.9-1.9l-1.1-0.3
		c-0.8-0.2-1.2-0.5-1.2-1c0-0.6,0.6-1,1.4-1c0.8,0,1.4,0.4,1.5,0.9h1.1c-0.1-1.1-1.1-1.8-2.6-1.8C155.7,33,154.6,33.9,154.6,35z"/>
</g>
</svg>
