<svg xmlns="http://www.w3.org/2000/svg" width="256" height="256" viewBox="0 0 256 256">
  <g fill="none" fill-rule="evenodd">
    <g fill-rule="nonzero" transform="translate(44 32)">
      <path fill="#0A84FF" d="M132,0 L36,0 C16.117749,-1.21743675e-15 2.66453526e-15,16.117749 0,36 L0,156 C2.66453526e-15,175.882251 16.117749,192 36,192 L132,192 C151.882251,192 168,175.882251 168,156 L168,36 C168,16.117749 151.882251,1.21743675e-15 132,0 Z M144,156 C144,162.627417 138.627417,168 132,168 L36,168 C29.372583,168 24,162.627417 24,156 L24,36 C24,29.372583 29.372583,24 36,24 L132,24 C138.627417,24 144,29.372583 144,36 L144,156 Z"/>
      <path fill="#002275" d="M114,60 L54,60 C50.6862915,60 48,57.3137085 48,54 C48,50.6862915 50.6862915,48 54,48 L114,48 C117.313708,48 120,50.6862915 120,54 C120,57.3137085 117.313708,60 114,60 Z M114,84 L54,84 C50.6862915,84 48,81.3137085 48,78 C48,74.6862915 50.6862915,72 54,72 L114,72 C117.313708,72 120,74.6862915 120,78 C120,81.3137085 117.313708,84 114,84 Z M114,108 L54,108 C50.6862915,108 48,105.313708 48,102 C48,98.6862915 50.6862915,96 54,96 L114,96 C117.313708,96 120,98.6862915 120,102 C120,105.313708 117.313708,108 114,108 Z M78,132 L54,132 C50.6862915,132 48,129.313708 48,126 C48,122.686292 50.6862915,120 54,120 L78,120 C81.3137085,120 84,122.686292 84,126 C84,129.313708 81.3137085,132 78,132 Z"/>
    </g>
    <path fill="#45A1FF" fill-opacity=".25" d="M223.996498 48C222.431348 47.9883646 221.103672 46.8491302 220.856415 45.3056 220.53712 42.6255746 219.664263 40.040919 218.293082 37.7152 215.964336 36.3458016 213.376315 35.4740797 210.692801 35.1552 209.149222 34.9059798 208.011182 33.5804808 208.000082 32.0189328 207.988981 30.4573848 209.108062 29.1158824 210.647943 28.8448 213.34859 28.479796 215.947144 27.57192 218.286674 26.176 219.644733 23.8789576 220.517117 21.3283731 220.850007 18.6816 221.103272 17.1407796 222.43304 16.0074834 223.996498 16 225.550125 16.001157 226.879066 17.1152609 227.149397 18.6432 227.516589 21.3138388 228.425919 23.8814793 229.821671 26.1888 232.134198 27.5719689 234.701271 28.477329 237.370686 28.8512 238.901911 29.1300817 240.010979 30.4676034 239.999918 32.0220198 239.988857 33.5764362 238.860867 34.8980807 237.325828 35.1552 234.671573 35.478869 232.113819 36.3506877 229.815263 37.7152 228.422821 40.053603 227.516176 42.6481131 227.149397 45.344 226.88459 46.8770264 225.554191 47.9977532 223.996498 48zM241.998249 58C241.215674 57.9941823 240.551836 57.4245651 240.428208 56.6528 240.26856 55.3127873 239.832132 54.0204595 239.146541 52.8576 237.982168 52.1729008 236.688158 51.7370398 235.3464 51.5776 234.574611 51.4529899 234.005591 50.7902404 234.000041 50.0094664 233.994491 49.2286924 234.554031 48.5579412 235.323971 48.4224 236.674295 48.239898 237.973572 47.78596 239.143337 47.088 239.822366 45.9394788 240.258559 44.6641865 240.425003 43.3408 240.551636 42.5703898 241.21652 42.0037417 241.998249 42 242.775062 42.0005785 243.439533 42.5576304 243.574698 43.3216 243.758294 44.6569194 244.212959 45.9407397 244.910836 47.0944 246.067099 47.7859845 247.350636 48.2386645 248.685343 48.4256 249.450955 48.5650408 250.005489 49.2338017 249.999959 50.0110099 249.994429 50.7882181 249.430433 51.4490403 248.662914 51.5776 247.335786 51.7394345 246.056909 52.1753438 244.907631 52.8576 244.211411 54.0268015 243.758088 55.3240565 243.574698 56.672 243.442295 57.4385132 242.777096 57.9988766 241.998249 58zM29.9982488 32C29.215674 31.9941823 28.5518361 31.4245651 28.4282075 30.6528 28.2685601 29.3127873 27.8321317 28.0204595 27.1465412 26.8576 25.9821679 26.1729008 24.6881576 25.7370398 23.3464005 25.5776 22.574611 25.4529899 22.0055912 24.7902404 22.0000409 24.0094664 21.9944907 23.2286924 22.5540312 22.5579412 23.3239713 22.4224 24.6742949 22.239898 25.9735719 21.78596 27.143337 21.088 27.8223665 19.9394788 28.2585586 18.6641865 28.4250033 17.3408 28.5516359 16.5703898 29.2165199 16.0037417 29.9982488 16 30.7750624 16.0005785 31.439533 16.5576304 31.5746984 17.3216 31.7582944 18.6569194 32.2129593 19.9407397 32.9108355 21.0944 34.0670988 21.7859845 35.3506355 22.2386645 36.6853429 22.4256 37.4509554 22.5650408 38.0054895 23.2338017 37.999959 24.0110099 37.9944285 24.7882181 37.4304333 25.4490403 36.6629138 25.5776 35.3357863 25.7394345 34.0569093 26.1753438 32.9076314 26.8576 32.2114106 28.0268015 31.758088 29.3240565 31.5746984 30.672 31.4422951 31.4385132 30.7770957 31.9988766 29.9982488 32z"/>
    <circle cx="22" cy="72" r="4" fill="#45A1FF" fill-opacity=".25"/>
    <circle cx="30" cy="213" r="4" fill="#45A1FF" fill-opacity=".25"/>
    <circle cx="87" cy="240" r="4" fill="#45A1FF" fill-opacity=".25"/>
    <circle cx="199" cy="244" r="4" fill="#45A1FF" fill-opacity=".25"/>
    <circle cx="224" cy="154" r="4" fill="#45A1FF" fill-opacity=".25"/>
    <circle cx="238" cy="171" r="4" fill="#45A1FF" fill-opacity=".25"/>
  </g>
</svg>
