<svg xmlns="http://www.w3.org/2000/svg" viewBox="0 0 764 175"><g fill="none" fill-rule="evenodd"><path fill="#ED00B5" d="M564.45 74V57.77l-4.38 2.67-1.71-2.58 6.48-4.05h3.39V74h-3.78zm10.57.39l-3.51-1.11 7.02-16.5h-8.52v-2.97h12.48v2.7l-7.47 17.88zm15.5 6.15V58.13h3.36l.21 1.95a5.58 5.58 0 0 1 4.59-2.4c1.04 0 1.93.2 2.68.59.76.39 1.37.94 1.85 1.67a7.9 7.9 0 0 1 1.06 2.65 15.8 15.8 0 0 1-.07 6.8 8.4 8.4 0 0 1-1.22 2.67 5.54 5.54 0 0 1-4.63 2.39c-.82 0-1.56-.14-2.24-.43a4.83 4.83 0 0 1-1.75-1.31v7.41l-3.84.42zm6.75-9.03a2.8 2.8 0 0 0 2.45-1.29c.59-.86.88-2.25.88-4.17 0-2-.26-3.41-.8-4.24a2.54 2.54 0 0 0-2.26-1.25c-.66 0-1.26.21-1.8.63-.54.42-1 .92-1.38 1.5v7.17a3.32 3.32 0 0 0 2.91 1.65zm14.41-3.66L608.5 74h-4.23l5.28-8.37-4.74-7.5h4.38l2.64 5.28h.12l2.61-5.28h4.17l-4.56 7.38 5.28 8.49h-4.44l-3.21-6.15h-.12z"/><path fill="#0C0C0D" d="M568.96 106.69c0-.44-.07-.8-.2-1.08a1.7 1.7 0 0 0-.53-.67 2.05 2.05 0 0 0-.77-.35c-.3-.06-.61-.1-.95-.1h-2.11v4.22h2.04c.28 0 .58-.03.88-.08.3-.05.57-.15.81-.3.25-.14.44-.35.6-.62.15-.26.23-.6.23-1.02zm-.46-5.34c0-.65-.2-1.1-.6-1.38-.4-.27-.94-.4-1.65-.4h-1.85v3.68h1.99c.68 0 1.2-.15 1.56-.45.37-.3.55-.78.55-1.45zm2.16 5.3c0 .65-.13 1.18-.39 1.6-.25.43-.59.78-1 1.04-.43.26-.9.44-1.44.55-.53.1-1.07.16-1.61.16h-3.44V98.29h3.18c.53 0 1.04.04 1.54.13.5.1.95.25 1.35.48.39.23.7.53.94.9.24.39.36.87.36 1.45 0 .37-.06.7-.18.99a2.39 2.39 0 0 1-1.12 1.23c-.25.13-.5.22-.74.27v.07c.3.06.59.15.89.27a2.47 2.47 0 0 1 1.43 1.34c.15.33.23.74.23 1.23zm7.55-1.14c0-1.17-.2-2.03-.59-2.58-.39-.56-.96-.84-1.7-.84a2 2 0 0 0-1.73.84c-.4.55-.6 1.42-.6 2.6 0 1.17.2 2.03.6 2.58.39.56.96.84 1.7.84.76 0 1.33-.28 1.72-.84.4-.55.6-1.42.6-2.6zm-6.3.02c0-.7.08-1.33.26-1.9.19-.58.45-1.08.79-1.5.34-.4.76-.73 1.25-.95.5-.23 1.07-.34 1.7-.34.64 0 1.2.1 1.7.33.49.22.9.53 1.25.94.34.41.6.9.77 1.47.17.57.26 1.22.26 1.93 0 .7-.09 1.33-.27 1.9a4.38 4.38 0 0 1-.78 1.5c-.34.4-.76.73-1.25.95a4 4 0 0 1-1.7.34c-.63 0-1.2-.1-1.7-.33-.5-.22-.91-.53-1.25-.94-.34-.4-.6-.9-.77-1.47a6.57 6.57 0 0 1-.27-1.93zm13.16-3.45c-.72 0-1.27.28-1.67.85-.4.56-.6 1.43-.6 2.6 0 1.19.18 2.06.54 2.6.36.56.88.83 1.56.83.47 0 .9-.14 1.25-.41.37-.28.67-.6.9-.96v-4.4a2.55 2.55 0 0 0-.87-.82c-.35-.2-.72-.3-1.11-.3zm-.41-1.24c1 0 1.8.34 2.4 1.03v-4.62l1.56.19V110h-1.38l-.13-1.16c-.33.47-.71.81-1.15 1.03-.44.22-.91.33-1.42.33-.58 0-1.08-.1-1.51-.33a2.83 2.83 0 0 1-1.07-.94c-.27-.4-.48-.9-.63-1.48a8.07 8.07 0 0 1 .03-3.8c.16-.57.4-1.06.7-1.48a3.06 3.06 0 0 1 2.6-1.33zm10.09 9.21c-.16.48-.35.92-.57 1.33a4.09 4.09 0 0 1-1.97 1.85c-.45.2-.98.33-1.58.4l-.22-1.23c.45-.08.84-.19 1.16-.32.31-.13.58-.29.79-.48.2-.2.38-.42.52-.7.15-.26.27-.56.37-.9h-.53l-2.96-8.96h1.67l2.31 7.7h.07l2.31-7.7h1.62l-3 9.01zm13.83-3.33c0 .5-.1.96-.27 1.38-.19.43-.45.8-.79 1.11-.34.31-.74.55-1.22.73-.48.18-1 .26-1.6.26-.68 0-1.31-.12-1.9-.37a4.14 4.14 0 0 1-1.55-1.19l1.04-.85c.33.4.69.69 1.08.87.39.18.82.27 1.28.27.71 0 1.28-.2 1.68-.6.41-.4.62-.95.62-1.63 0-.78-.2-1.32-.62-1.6a2.8 2.8 0 0 0-1.65-.44h-.73l.19-1.2h.46c.28 0 .55-.05.8-.13a1.8 1.8 0 0 0 1.1-1.01c.1-.25.16-.54.16-.87 0-.55-.17-.97-.51-1.28-.34-.3-.8-.45-1.38-.45-.45 0-.86.07-1.22.23-.37.16-.74.42-1.13.78l-.81-.93a4.65 4.65 0 0 1 4.69-1.1c.42.15.77.37 1.05.63a2.7 2.7 0 0 1 .87 2.02c0 .71-.2 1.29-.62 1.73-.41.44-.92.73-1.5.85l.01.07c.32.03.63.11.93.24.3.12.56.3.79.53a2.65 2.65 0 0 1 .75 1.95zm2.84-2.4c0 .84.05 1.55.14 2.14.09.6.23 1.07.41 1.44a2 2 0 0 0 .68.8c.27.18.59.26.95.26.35 0 .66-.08.93-.25.28-.17.5-.44.68-.8.18-.38.32-.86.42-1.45.1-.59.14-1.3.14-2.14 0-.83-.04-1.53-.14-2.12a5.19 5.19 0 0 0-.42-1.44c-.18-.37-.4-.64-.68-.8a1.73 1.73 0 0 0-.93-.26c-.72 0-1.26.35-1.63 1.06-.36.7-.55 1.9-.55 3.56zm5.99 0c0 1.9-.32 3.36-.95 4.37a3.15 3.15 0 0 1-2.86 1.51c-1.28 0-2.24-.5-2.87-1.5-.63-1.02-.94-2.47-.94-4.38 0-1.9.31-3.36.94-4.36.63-1 1.59-1.5 2.87-1.5s2.23.5 2.86 1.51c.63 1 .95 2.46.95 4.35z"/><path fill="#ED00B5" d="M285.45 74V57.77l-4.38 2.67-1.71-2.58 6.48-4.05h3.39V74h-3.78zm19.06-5.76c0 .86-.16 1.67-.5 2.43a5.61 5.61 0 0 1-1.44 1.98c-.63.56-1.4 1-2.3 1.32-.92.32-1.95.48-3.11.48a8.08 8.08 0 0 1-6.57-2.94l2.28-2.04c.6.7 1.23 1.2 1.9 1.52.68.3 1.41.46 2.21.46 1.08 0 1.94-.3 2.6-.9.65-.6.97-1.43.97-2.49 0-1.2-.32-2.03-.96-2.5a4.44 4.44 0 0 0-2.67-.71h-1.47l.45-2.76h.96a3.5 3.5 0 0 0 2.32-.77c.62-.5.92-1.26.92-2.26 0-.84-.27-1.5-.81-1.97a3.22 3.22 0 0 0-2.19-.7c-.76 0-1.46.14-2.1.44-.64.29-1.28.73-1.92 1.33l-1.95-2.13a8.94 8.94 0 0 1 6.33-2.58 8.2 8.2 0 0 1 2.75.42c.79.28 1.45.65 1.99 1.11a4.79 4.79 0 0 1 1.65 3.6c0 1.26-.35 2.28-1.06 3.08a5.32 5.32 0 0 1-2.72 1.6v.12c.58.06 1.13.2 1.67.42.53.22 1 .53 1.4.95a4.7 4.7 0 0 1 1.37 3.49zm8.69 12.3V58.13h3.36l.21 1.95a5.58 5.58 0 0 1 4.59-2.4c1.04 0 1.93.2 2.69.59.75.39 1.36.94 1.84 1.67a7.9 7.9 0 0 1 1.07 2.65 15.8 15.8 0 0 1-.08 6.8 8.4 8.4 0 0 1-1.21 2.67 5.54 5.54 0 0 1-4.63 2.39c-.83 0-1.57-.14-2.24-.43a4.83 4.83 0 0 1-1.76-1.31v7.41l-3.84.42zm6.75-9.03a2.8 2.8 0 0 0 2.45-1.29c.59-.86.88-2.25.88-4.17 0-2-.26-3.41-.8-4.24a2.54 2.54 0 0 0-2.26-1.25c-.66 0-1.26.21-1.8.63-.54.42-1 .92-1.38 1.5v7.17a3.32 3.32 0 0 0 2.91 1.65zm14.41-3.66L331.18 74h-4.23l5.28-8.37-4.74-7.5h4.38l2.64 5.28h.12l2.61-5.28h4.17l-4.56 7.38 5.28 8.49h-4.44l-3.21-6.15h-.12z"/><path fill="#0C0C0D" d="M287.08 108.47c0-.33-.05-.6-.15-.82a1.3 1.3 0 0 0-.4-.52 1.57 1.57 0 0 0-.59-.26 3.23 3.23 0 0 0-.73-.08h-1.61V110h1.56a4 4 0 0 0 .67-.06c.23-.04.44-.11.62-.22.19-.12.34-.27.46-.48.12-.2.17-.46.17-.78zm-.35-4.09c0-.5-.15-.84-.45-1.05a2.2 2.2 0 0 0-1.26-.31h-1.42v2.82h1.52c.52 0 .92-.12 1.2-.35.27-.23.41-.6.41-1.1zm1.65 4.06c0 .5-.1.9-.29 1.23-.2.32-.45.58-.77.78-.32.2-.69.34-1.1.43-.4.08-.81.12-1.23.12h-2.63v-8.96h2.44c.4 0 .79.04 1.17.1.39.08.73.2 1.03.37.3.17.54.4.72.7.18.29.27.65.27 1.1a1.83 1.83 0 0 1-1 1.7c-.18.1-.37.16-.56.2v.06c.23.04.46.1.69.2.23.1.44.22.63.39s.34.38.46.64c.12.25.17.57.17.94zm5.78-.87c0-.9-.15-1.55-.45-1.98a1.5 1.5 0 0 0-1.3-.64c-.58 0-1.02.22-1.32.64-.31.43-.47 1.09-.47 2 0 .88.16 1.54.46 1.97.3.42.74.63 1.31.63.57 0 1.01-.2 1.32-.63.3-.43.45-1.1.45-2zm-4.82.01c0-.53.07-1.01.2-1.45.14-.45.34-.83.6-1.14.26-.32.58-.56.97-.74a3.1 3.1 0 0 1 1.3-.26c.48 0 .91.09 1.29.26s.7.4.95.72c.26.31.46.68.6 1.12.13.44.2.93.2 1.48 0 .53-.07 1.01-.21 1.45-.14.45-.34.83-.6 1.14-.26.32-.58.56-.95.74-.38.17-.81.26-1.3.26-.48 0-.92-.09-1.3-.26s-.7-.4-.96-.72a3.2 3.2 0 0 1-.6-1.12c-.13-.44-.2-.93-.2-1.48zm10.06-2.64c-.54 0-.97.22-1.27.65a3.5 3.5 0 0 0-.46 2c0 .9.14 1.57.41 1.99.28.42.67.63 1.2.63.36 0 .68-.1.96-.32.27-.21.5-.46.68-.74v-3.36c-.18-.27-.4-.48-.66-.63a1.72 1.72 0 0 0-.86-.22zm-.3-.95c.75 0 1.37.27 1.82.8v-3.54l1.2.14V111h-1.05l-.1-.88c-.26.35-.55.61-.88.78-.34.17-.7.26-1.09.26a2.5 2.5 0 0 1-1.16-.26c-.33-.17-.6-.4-.8-.72a3.45 3.45 0 0 1-.49-1.13 6.17 6.17 0 0 1 .02-2.9c.12-.44.3-.82.53-1.14.24-.31.52-.56.85-.74.34-.19.72-.28 1.14-.28zm7.7 7.05c-.12.36-.26.7-.43 1.01a3.13 3.13 0 0 1-1.5 1.42c-.35.16-.75.26-1.21.3l-.17-.94c.35-.06.64-.14.88-.24a1.95 1.95 0 0 0 1-.9c.12-.2.21-.43.3-.69h-.41l-2.26-6.85h1.27l1.77 5.89h.05l1.77-5.9h1.23l-2.28 6.9zm7.53-.04v-7.38l-1.94 1.2-.56-.83 2.64-1.69h1.05v8.7h-1.2zm3.9-4.34c0 .64.04 1.19.1 1.64.08.45.18.81.32 1.1.15.28.32.48.52.61s.45.2.73.2c.26 0 .5-.07.71-.2.2-.13.38-.33.52-.62.14-.28.25-.64.32-1.1.07-.44.11-1 .11-1.63 0-.63-.04-1.18-.11-1.63a3.97 3.97 0 0 0-.32-1.1 1.46 1.46 0 0 0-.52-.61c-.2-.13-.45-.2-.71-.2-.55 0-.96.27-1.25.81a6.34 6.34 0 0 0-.42 2.73zm4.58 0c0 1.45-.24 2.57-.72 3.34a2.4 2.4 0 0 1-2.2 1.16 2.4 2.4 0 0 1-2.18-1.16 6.36 6.36 0 0 1-.73-3.34c0-1.46.24-2.57.73-3.34a2.41 2.41 0 0 1 2.19-1.15c.98 0 1.7.39 2.19 1.16.48.77.72 1.88.72 3.33z"/><path fill="#737373" d="M285.59 133.12c.47 0 .85-.08 1.16-.24.3-.15.56-.33.79-.53l.64.8a3.74 3.74 0 0 1-2.64 1c-.54 0-1.04-.1-1.5-.3-.46-.2-.85-.49-1.18-.88-.33-.4-.59-.88-.77-1.46a6.49 6.49 0 0 1-.28-2c0-.75.1-1.41.3-1.99.2-.58.46-1.06.8-1.45a3.34 3.34 0 0 1 2.61-1.18 4.76 4.76 0 0 1 1.43.22c.2.08.4.17.57.28l.53.38-.68.8a2.69 2.69 0 0 0-1.77-.67c-.33 0-.64.06-.95.19-.3.13-.56.33-.79.61-.23.28-.4.65-.54 1.11-.13.46-.2 1.03-.2 1.7 0 .66.06 1.2.19 1.66.12.46.3.83.52 1.11.22.29.48.5.78.63.3.14.63.2.98.2zm8.18-.67c0 .28.04.48.12.6.09.11.21.2.39.27l-.29.84c-.3-.05-.56-.14-.78-.29a1.29 1.29 0 0 1-.48-.68c-.24.33-.54.58-.89.73a2.8 2.8 0 0 1-1.15.24c-.7 0-1.24-.2-1.63-.58-.4-.39-.6-.9-.6-1.54 0-.71.28-1.26.83-1.64a4.2 4.2 0 0 1 2.4-.57h.88v-.54c0-.48-.12-.82-.36-1.02-.24-.2-.61-.3-1.12-.3a7 7 0 0 0-1.8.35l-.3-.89a7.32 7.32 0 0 1 2.28-.44c.88 0 1.51.2 1.9.6.4.39.6.94.6 1.64v3.22zm-2.76.8c.33 0 .63-.07.88-.24.26-.16.48-.4.68-.7v-1.69h-.81c-.74 0-1.25.12-1.55.37-.29.25-.43.58-.43 1 0 .42.1.74.3.95.19.21.5.32.93.32zm4.7 3.52v-9.62h1.03l.09.94c.25-.36.55-.63.9-.82.35-.18.73-.28 1.13-.28.45 0 .84.09 1.16.26.33.17.59.4.79.72.2.31.34.69.44 1.13a6.98 6.98 0 0 1-.03 2.9c-.1.44-.28.82-.51 1.14-.23.32-.51.57-.84.75-.34.18-.73.27-1.17.27a2.2 2.2 0 0 1-1.8-.78v3.25l-1.19.14zm2.7-3.59c.55 0 .97-.2 1.26-.63.3-.42.44-1.08.44-1.98 0-.9-.13-1.56-.39-1.98a1.26 1.26 0 0 0-1.16-.65c-.37 0-.69.11-.96.33-.28.21-.51.46-.7.74v3.34a1.75 1.75 0 0 0 1.5.83zm7.93.5c-.21.16-.45.28-.71.36a2.9 2.9 0 0 1-.83.12c-.64 0-1.1-.19-1.4-.55-.3-.36-.44-.84-.44-1.44v-4.11h-1.1v-.91h1.1v-1.55l1.2-.14v1.69h1.72l-.14.9h-1.59v4.1c0 .35.06.6.19.77.12.17.33.25.63.25.29 0 .6-.1.91-.3l.46.82zm2.13-8.91a.8.8 0 0 1-.23.59.83.83 0 0 1-.61.23.8.8 0 0 1-.6-.23.8.8 0 0 1-.23-.59.79.79 0 0 1 .83-.8c.25 0 .45.07.6.23.17.15.24.34.24.57zm-1.44 9.23v-6.85h1.2V134h-1.2zm7.44-3.43c0-.9-.15-1.55-.45-1.98a1.5 1.5 0 0 0-1.3-.64c-.58 0-1.02.22-1.32.64-.31.43-.47 1.09-.47 2 0 .88.16 1.54.46 1.97.3.42.74.63 1.31.63.57 0 1.01-.2 1.32-.63.3-.43.45-1.1.45-2zm-4.82.01c0-.53.07-1.01.2-1.46.14-.44.34-.82.6-1.13.26-.32.58-.56.97-.74a3.1 3.1 0 0 1 1.3-.26c.48 0 .91.09 1.29.26s.7.4.95.72c.26.31.46.68.6 1.12.13.44.2.93.2 1.48 0 .53-.07 1.01-.21 1.45-.14.45-.34.83-.6 1.14-.26.32-.58.56-.95.74-.38.17-.81.26-1.3.26-.48 0-.92-.09-1.3-.26s-.7-.4-.96-.72a3.2 3.2 0 0 1-.6-1.12c-.13-.44-.2-.93-.2-1.48zm8.78 3.42h-1.2v-6.85h1.03l.09.94a2.8 2.8 0 0 1 2.18-1.1c.67 0 1.15.18 1.43.54.29.35.43.85.43 1.5V134h-1.2v-4.9c0-.42-.07-.72-.23-.9-.16-.18-.44-.27-.83-.27-.18 0-.36.03-.53.1-.17.06-.32.15-.46.25a3.45 3.45 0 0 0-.7.75l-.01 4.97zm13.15-6.37c0 .39-.07.77-.2 1.14-.14.37-.35.76-.65 1.17-.3.42-.69.87-1.15 1.37-.47.5-1.04 1.06-1.7 1.69h3.9l-.14 1h-5.13v-.95c.76-.76 1.39-1.4 1.88-1.94.5-.54.89-1 1.17-1.4.29-.39.49-.74.6-1.06.11-.32.17-.64.17-.98 0-.5-.13-.87-.4-1.13-.26-.25-.6-.38-1.03-.38-.36 0-.68.08-.95.23-.27.15-.54.4-.82.72l-.8-.62c.35-.45.74-.78 1.17-1a3.2 3.2 0 0 1 1.47-.32c.4 0 .75.06 1.07.19a2.16 2.16 0 0 1 1.35 1.29c.13.3.19.62.19.98zm2.42 2.03c0 .64.04 1.19.1 1.64.07.45.18.81.32 1.1.15.28.32.48.52.61s.45.2.73.2c.26 0 .5-.07.71-.2.2-.13.38-.33.52-.62.14-.28.24-.64.32-1.1.07-.44.1-1 .1-1.63 0-.63-.03-1.18-.1-1.63a3.97 3.97 0 0 0-.32-1.1 1.46 1.46 0 0 0-.52-.61c-.2-.13-.45-.2-.71-.2-.55 0-.96.27-1.25.81a6.34 6.34 0 0 0-.42 2.73zm4.58 0c0 1.45-.24 2.57-.72 3.34a2.4 2.4 0 0 1-2.2 1.16 2.4 2.4 0 0 1-2.19-1.16 6.36 6.36 0 0 1-.72-3.34c0-1.46.24-2.57.72-3.34a2.41 2.41 0 0 1 2.2-1.15c.97 0 1.7.39 2.19 1.16.48.77.72 1.88.72 3.33z"/><path fill="#ED00B5" d="M424.45 74V57.77l-4.38 2.67-1.71-2.58 6.48-4.05h3.39V74h-3.78zm19.69-6.57c0 1.02-.18 1.96-.54 2.82a6.5 6.5 0 0 1-3.87 3.67c-.92.36-1.95.53-3.09.53-1.38 0-2.6-.25-3.64-.75a8.17 8.17 0 0 1-2.78-2.19l2.37-2.01a4.89 4.89 0 0 0 3.9 1.98c1.16 0 2.06-.37 2.71-1.11.66-.74.98-1.71.98-2.91 0-.72-.08-1.32-.24-1.8a3.03 3.03 0 0 0-.68-1.17c-.29-.3-.62-.51-1.01-.63a4.62 4.62 0 0 0-2.5-.02c-.41.12-.84.29-1.3.53h-2.73V53.81h11.67l-.42 2.85h-7.59v4.92a6.82 6.82 0 0 1 3-.66c.84 0 1.61.14 2.31.43.7.3 1.3.72 1.81 1.28.52.56.91 1.24 1.2 2.05.3.82.44 1.73.44 2.75zm8.66 13.11V58.13h3.36l.21 1.95a5.58 5.58 0 0 1 4.59-2.4c1.04 0 1.93.2 2.69.59.75.39 1.36.94 1.84 1.67a7.9 7.9 0 0 1 1.06 2.65 15.8 15.8 0 0 1-.07 6.8 8.4 8.4 0 0 1-1.22 2.67 5.54 5.54 0 0 1-4.63 2.39c-.82 0-1.56-.14-2.24-.43a4.83 4.83 0 0 1-1.75-1.31v7.41l-3.84.42zm6.75-9.03a2.8 2.8 0 0 0 2.44-1.29c.6-.86.89-2.25.89-4.17 0-2-.26-3.41-.8-4.24a2.54 2.54 0 0 0-2.26-1.25c-.66 0-1.26.21-1.8.63-.54.42-1 .92-1.38 1.5v7.17a3.32 3.32 0 0 0 2.91 1.65zm14.41-3.66L470.78 74h-4.23l5.28-8.37-4.74-7.5h4.38l2.64 5.28h.12l2.61-5.28h4.17l-4.56 7.38 5.28 8.49h-4.44l-3.21-6.15h-.12z"/><path fill="#0C0C0D" d="M427.02 108.08c0-.39-.06-.7-.17-.95a1.5 1.5 0 0 0-.47-.6c-.2-.14-.42-.24-.68-.3a3.73 3.73 0 0 0-.84-.09H423v3.72h1.8c.25 0 .5-.02.77-.07.27-.04.5-.13.72-.26.22-.13.4-.31.53-.55.13-.23.2-.53.2-.9zm-.4-4.72c0-.57-.18-.97-.53-1.21a2.55 2.55 0 0 0-1.45-.36H423v3.25h1.75c.6 0 1.06-.13 1.38-.4.33-.26.49-.68.49-1.28zm1.9 4.69c0 .57-.11 1.04-.34 1.41-.22.38-.52.68-.89.91-.37.23-.79.4-1.26.49-.47.1-.94.14-1.42.14h-3.04v-10.33h2.81c.46 0 .91.03 1.36.11.44.08.84.22 1.18.42.35.2.62.47.83.8.22.34.32.76.32 1.28 0 .33-.05.62-.16.87a2.1 2.1 0 0 1-.99 1.09c-.21.11-.43.19-.65.24v.06c.26.05.52.13.79.23.26.1.5.26.73.45.22.2.4.44.53.74s.2.65.2 1.09zm6.67-1.01a4 4 0 0 0-.52-2.28 1.73 1.73 0 0 0-1.51-.73c-.66 0-1.17.24-1.52.73-.36.49-.53 1.25-.53 2.3 0 1.03.17 1.78.52 2.27.35.5.85.74 1.51.74.67 0 1.17-.24 1.52-.73.35-.5.52-1.26.52-2.3zm-5.57.02c0-.62.08-1.17.24-1.69.16-.5.39-.94.69-1.3.3-.37.67-.65 1.11-.85.44-.2.94-.3 1.5-.3s1.06.1 1.5.29c.43.2.8.47 1.1.83.3.36.52.8.68 1.3.15.5.23 1.07.23 1.7 0 .61-.08 1.17-.24 1.68-.16.51-.39.95-.69 1.31-.3.37-.67.65-1.1.85-.44.2-.93.3-1.5.3-.56 0-1.05-.1-1.5-.3-.44-.19-.8-.46-1.1-.82a3.7 3.7 0 0 1-.69-1.3 5.8 5.8 0 0 1-.23-1.7zm11.62-3.05a1.7 1.7 0 0 0-1.48.75c-.35.5-.52 1.26-.52 2.3 0 1.05.16 1.81.47 2.3.32.48.77.72 1.38.72.42 0 .78-.12 1.1-.36.33-.25.59-.53.8-.85v-3.89a2.25 2.25 0 0 0-.77-.72c-.3-.17-.63-.25-.99-.25zm-.37-1.1c.89 0 1.59.31 2.12.92v-4.08l1.38.17V111h-1.22l-.11-1.02a2.8 2.8 0 0 1-1.02.9c-.38.2-.8.3-1.25.3-.51 0-.95-.1-1.33-.3a2.5 2.5 0 0 1-.94-.82c-.25-.37-.43-.8-.56-1.31a7.12 7.12 0 0 1 .02-3.35c.15-.5.35-.94.62-1.3a3 3 0 0 1 .98-.87 2.7 2.7 0 0 1 1.31-.31zm8.9 8.14c-.14.42-.3.8-.5 1.17a3.6 3.6 0 0 1-1.74 1.63c-.4.18-.85.3-1.39.34l-.19-1.08c.4-.06.74-.16 1.02-.27.28-.12.51-.26.7-.43.18-.17.34-.37.46-.6.13-.24.24-.51.32-.81H448l-2.61-7.9h1.47l2.04 6.79h.06l2.04-6.8h1.43l-2.65 7.95zm12-7.4c0 .45-.08.89-.23 1.31-.16.43-.4.88-.75 1.36-.35.48-.79 1-1.33 1.58-.54.57-1.2 1.21-1.96 1.94H462l-.16 1.16h-5.93v-1.1c.88-.88 1.6-1.62 2.18-2.24.57-.61 1.01-1.15 1.34-1.6.34-.46.56-.87.7-1.23.13-.37.19-.74.19-1.14 0-.57-.15-1-.46-1.3-.3-.29-.7-.44-1.19-.44-.42 0-.78.1-1.1.27a3.6 3.6 0 0 0-.94.83l-.93-.72a3.7 3.7 0 0 1 3.05-1.52c.46 0 .87.07 1.24.22.37.14.69.33.95.58.27.25.47.55.61.9s.21.73.21 1.14zm2.8 2.34c0 .74.04 1.37.12 1.89.07.52.2.94.36 1.27.17.32.37.56.6.71.24.15.51.22.84.22.3 0 .58-.07.82-.22s.44-.39.6-.71c.16-.33.28-.75.37-1.27.08-.52.13-1.15.13-1.89 0-.73-.05-1.35-.13-1.88-.09-.52-.21-.94-.37-1.26a1.69 1.69 0 0 0-.6-.71 1.52 1.52 0 0 0-.82-.23c-.64 0-1.11.31-1.44.94-.32.62-.49 1.67-.49 3.14zm5.28 0c0 1.68-.28 2.96-.84 3.86a2.78 2.78 0 0 1-2.52 1.33 2.78 2.78 0 0 1-2.53-1.34c-.56-.89-.83-2.17-.83-3.85 0-1.68.27-2.96.83-3.85a2.78 2.78 0 0 1 2.53-1.33c1.13 0 1.97.45 2.52 1.34.56.89.84 2.17.84 3.84z"/><path fill="#737373" d="M425.3 132.98c.54 0 .98-.09 1.33-.27.35-.18.65-.38.92-.62l.73.94a4.31 4.31 0 0 1-3.04 1.16c-.63-.01-1.2-.12-1.73-.36a3.65 3.65 0 0 1-1.37-1.02 4.98 4.98 0 0 1-.89-1.68 7.49 7.49 0 0 1-.32-2.3c0-.88.11-1.64.34-2.3.24-.67.54-1.23.94-1.68a3.86 3.86 0 0 1 3.01-1.36 5.5 5.5 0 0 1 1.65.26c.23.08.45.19.65.32s.41.27.61.44l-.78.91a3.1 3.1 0 0 0-2.04-.77c-.38 0-.74.08-1.1.22-.35.15-.65.38-.91.7a3.7 3.7 0 0 0-.62 1.29 7.1 7.1 0 0 0-.24 1.96c0 .76.08 1.4.22 1.92.15.52.35.95.6 1.28.26.33.56.57.91.73.35.15.72.23 1.13.23zm9.44-.76c0 .32.04.54.14.68.1.13.24.24.44.32l-.33.96a2.1 2.1 0 0 1-.9-.33 1.49 1.49 0 0 1-.55-.78c-.29.38-.63.66-1.03.84-.4.18-.85.27-1.33.27-.8 0-1.43-.22-1.88-.67a2.37 2.37 0 0 1-.69-1.77c0-.83.32-1.45.96-1.9a4.84 4.84 0 0 1 2.76-.66h1.03v-.61c0-.56-.14-.95-.43-1.18-.28-.24-.7-.35-1.29-.35a8.08 8.08 0 0 0-2.07.4l-.36-1.02a8.44 8.44 0 0 1 2.65-.5c1 0 1.74.22 2.2.68.45.45.68 1.08.68 1.9v3.72zm-3.19.93c.39 0 .72-.1 1.02-.29.3-.19.55-.46.79-.81v-1.95h-.95c-.85 0-1.44.14-1.78.43-.33.28-.5.66-.5 1.15 0 .49.11.85.34 1.1.22.24.58.37 1.08.37zm5.43 4.04v-11.1h1.18l.1 1.08a3 3 0 0 1 1.05-.93c.4-.22.83-.32 1.3-.32.52 0 .96.1 1.34.29.37.2.67.47.9.83.24.36.4.8.51 1.3a8.05 8.05 0 0 1-.03 3.36c-.13.5-.32.94-.59 1.31-.26.37-.59.66-.97.86-.39.2-.83.31-1.34.31-.89 0-1.57-.3-2.07-.9v3.75l-1.38.16zm3.12-4.13c.63 0 1.1-.25 1.44-.73.34-.49.5-1.25.5-2.29a4.6 4.6 0 0 0-.44-2.29c-.3-.5-.74-.74-1.34-.74-.42 0-.79.12-1.11.38-.32.25-.58.53-.8.85v3.85a2.02 2.02 0 0 0 1.74.96zm9.13.58c-.24.18-.5.32-.81.4-.3.1-.62.14-.96.14-.74 0-1.27-.21-1.61-.63a2.57 2.57 0 0 1-.52-1.67v-4.73h-1.25v-1.06h1.25v-1.78l1.38-.17v1.95h2l-.16 1.05h-1.84v4.73c0 .4.07.7.22.88.14.2.38.29.73.29a2 2 0 0 0 1.05-.34l.53.94zm2.47-10.29c0 .27-.09.5-.27.68a.95.95 0 0 1-.7.27.93.93 0 0 1-.7-.27.93.93 0 0 1-.26-.68.91.91 0 0 1 .96-.93c.29 0 .52.09.7.27.18.18.27.4.27.66zM450.04 134v-7.9h1.38v7.9h-1.38zm8.58-3.96a4 4 0 0 0-.52-2.28 1.73 1.73 0 0 0-1.5-.73c-.67 0-1.17.24-1.53.73-.35.49-.53 1.25-.53 2.3 0 1.03.17 1.78.52 2.28.36.49.86.73 1.52.73s1.16-.24 1.52-.73c.35-.5.52-1.26.52-2.3zm-5.56.02c0-.62.07-1.17.24-1.69.16-.5.38-.94.69-1.3.3-.37.66-.65 1.1-.85.45-.2.94-.3 1.5-.3.57 0 1.06.1 1.5.29.43.2.8.47 1.1.83.3.36.53.8.68 1.3.16.5.24 1.07.24 1.7 0 .61-.08 1.17-.25 1.68-.16.51-.38.95-.69 1.31-.3.37-.66.65-1.1.85-.43.2-.93.3-1.49.3-.56 0-1.06-.1-1.5-.3-.44-.19-.81-.46-1.11-.82a3.7 3.7 0 0 1-.68-1.3 5.8 5.8 0 0 1-.24-1.7zm10.13 3.94h-1.38v-7.9h1.18l.1 1.08a3.22 3.22 0 0 1 2.53-1.27c.77 0 1.31.21 1.64.62.34.41.5.98.5 1.72V134h-1.38v-5.66c0-.48-.1-.82-.28-1.03-.18-.21-.5-.31-.95-.31-.21 0-.41.03-.6.1-.2.08-.38.18-.55.3a3.99 3.99 0 0 0-.82.87V134zm15.38-2.9c0 .45-.08.85-.24 1.23-.16.37-.39.7-.69.97-.3.28-.66.5-1.08.65-.42.15-.89.23-1.41.23-.6 0-1.16-.11-1.67-.33a3.65 3.65 0 0 1-1.38-1.05l.92-.75c.29.35.6.6.95.76.35.17.72.25 1.13.25.64 0 1.13-.18 1.49-.54.36-.35.54-.83.54-1.43 0-.69-.18-1.16-.54-1.42a2.47 2.47 0 0 0-1.45-.38h-.65l.16-1.06h.41c.25 0 .48-.04.7-.12a1.59 1.59 0 0 0 .97-.9c.1-.21.15-.46.15-.75 0-.49-.15-.86-.45-1.13-.3-.27-.71-.4-1.22-.4-.4 0-.76.06-1.08.2-.32.15-.65.37-.99.7l-.72-.83a4.1 4.1 0 0 1 4.14-.97c.37.14.68.32.93.56a2.39 2.39 0 0 1 .76 1.77c0 .64-.18 1.14-.54 1.53-.37.4-.81.64-1.33.76l.01.06c.29.03.56.1.82.2.27.12.5.27.7.48a2.34 2.34 0 0 1 .66 1.72zm2.51-2.11c0 .74.04 1.37.12 1.89.08.52.2.94.37 1.27.16.32.36.56.6.71.23.15.51.22.83.22.31 0 .58-.07.82-.22.25-.15.44-.39.6-.71.17-.33.29-.75.37-1.27.09-.52.13-1.15.13-1.89 0-.73-.04-1.35-.13-1.88-.08-.52-.2-.94-.37-1.26a1.69 1.69 0 0 0-.6-.71 1.52 1.52 0 0 0-.82-.23c-.63 0-1.1.31-1.43.94-.33.62-.49 1.67-.49 3.14zm5.28 0c0 1.68-.28 2.96-.83 3.85a2.78 2.78 0 0 1-2.53 1.34 2.78 2.78 0 0 1-2.53-1.34c-.55-.89-.83-2.17-.83-3.85 0-1.68.28-2.96.83-3.85a2.78 2.78 0 0 1 2.53-1.33c1.13 0 1.97.45 2.53 1.34.55.89.83 2.17.83 3.84z"/><path fill="#ED00B5" d="M145.45 74V57.77l-4.38 2.67-1.71-2.58 6.48-4.05h3.39V74h-3.78zm11.47 0V57.77l-4.38 2.67-1.71-2.58 6.48-4.05h3.39V74h-3.78zm13.64 6.54V58.13h3.36l.21 1.95a5.58 5.58 0 0 1 4.59-2.4c1.04 0 1.93.2 2.69.59.75.39 1.36.94 1.84 1.67a7.9 7.9 0 0 1 1.07 2.65 15.8 15.8 0 0 1-.08 6.8 8.4 8.4 0 0 1-1.21 2.67 5.54 5.54 0 0 1-4.63 2.39c-.83 0-1.57-.14-2.24-.43a4.83 4.83 0 0 1-1.76-1.31v7.41l-3.84.42zm6.75-9.03a2.8 2.8 0 0 0 2.45-1.29c.59-.86.88-2.25.88-4.17 0-2-.26-3.41-.8-4.24a2.54 2.54 0 0 0-2.26-1.25c-.66 0-1.26.21-1.8.63-.54.42-1 .92-1.38 1.5v7.17a3.32 3.32 0 0 0 2.91 1.65zm14.41-3.66L188.54 74h-4.23l5.28-8.37-4.74-7.5h4.38l2.64 5.28h.12l2.61-5.28h4.17l-4.56 7.38 5.28 8.49h-4.44l-3.21-6.15h-.12z"/><path fill="#737373" d="M145.03 134.25c.4 0 .73-.06.98-.2.26-.13.48-.28.67-.45l.54.69a3.16 3.16 0 0 1-2.23.85c-.46 0-.88-.1-1.27-.26a2.68 2.68 0 0 1-1-.75c-.28-.34-.5-.75-.65-1.24a5.5 5.5 0 0 1-.24-1.68c0-.64.09-1.2.26-1.7.16-.48.4-.89.68-1.22a2.83 2.83 0 0 1 2.2-1 4.03 4.03 0 0 1 1.22.2c.17.05.33.13.48.23.15.1.3.2.44.32l-.57.67a2.27 2.27 0 0 0-1.5-.56c-.27 0-.54.05-.8.16-.26.1-.48.28-.67.51-.2.24-.34.56-.46.94a5.2 5.2 0 0 0-.17 1.45c0 .55.06 1.01.16 1.4.1.38.26.7.44.94.19.24.41.42.67.53.25.12.53.17.82.17zm6.93-.56c0 .24.03.4.1.5.07.1.18.18.32.24l-.24.7a1.54 1.54 0 0 1-.66-.24 1.1 1.1 0 0 1-.4-.57c-.21.28-.46.48-.76.61-.3.14-.62.2-.97.2-.59 0-1.05-.16-1.38-.49-.34-.32-.5-.76-.5-1.3 0-.6.23-1.06.7-1.39a3.55 3.55 0 0 1 2.03-.48h.74v-.45c0-.41-.1-.7-.3-.87-.21-.17-.52-.25-.95-.25a5.92 5.92 0 0 0-1.52.3l-.26-.75a6.2 6.2 0 0 1 1.93-.38c.74 0 1.28.17 1.62.5.33.34.5.8.5 1.4v2.72zm-2.34.68c.28 0 .53-.07.75-.2.21-.15.4-.34.57-.6v-1.43h-.69c-.62 0-1.06.1-1.3.31-.25.21-.37.5-.37.84 0 .36.08.63.25.81.16.18.43.27.8.27zm3.98 2.97v-8.14h.87l.07.8c.22-.3.47-.53.77-.7a2 2 0 0 1 .95-.23c.38 0 .71.07.99.22.27.14.5.34.66.6.17.27.3.59.37.96a5.9 5.9 0 0 1-.02 2.46c-.1.37-.24.7-.43.96-.2.28-.43.49-.72.64-.28.15-.6.22-.98.22-.65 0-1.15-.22-1.52-.66v2.75l-1.01.12zm2.29-3.03c.46 0 .81-.18 1.06-.54a3 3 0 0 0 .37-1.67c0-.76-.11-1.32-.33-1.68a1.07 1.07 0 0 0-.98-.55c-.31 0-.58.1-.82.28-.23.18-.43.4-.58.63v2.82c.15.23.33.4.55.53.22.12.46.18.73.18zm6.7.43c-.18.13-.38.23-.6.3-.22.06-.46.1-.7.1-.54 0-.94-.16-1.19-.47-.25-.3-.37-.71-.37-1.22v-3.48h-.92v-.77h.92v-1.3l1.01-.13v1.43h1.46l-.12.77h-1.34v3.47c0 .3.05.5.16.65.1.14.28.2.53.2s.5-.08.77-.25l.39.7zm1.8-7.55c0 .2-.06.36-.2.5a.7.7 0 0 1-.5.2.68.68 0 0 1-.52-.2.68.68 0 0 1-.2-.5.67.67 0 0 1 .71-.68.7.7 0 0 1 .52.2c.13.13.2.29.2.48zm-1.21 7.81v-5.8h1v5.8h-1zm6.3-2.9c0-.76-.13-1.32-.39-1.68a1.27 1.27 0 0 0-1.1-.53c-.49 0-.86.17-1.12.53-.26.36-.4.92-.4 1.69.01.75.14 1.31.4 1.67.25.36.62.54 1.1.54.49 0 .86-.18 1.12-.54.25-.36.38-.92.38-1.68zm-4.09 0c0-.44.06-.85.18-1.22.11-.38.28-.7.5-.97.22-.27.5-.47.82-.62.32-.15.69-.22 1.1-.22.4 0 .77.07 1.1.22.31.14.58.34.8.6.22.27.39.59.5.96.11.37.17.78.17 1.25 0 .44-.06.85-.18 1.23-.11.37-.28.7-.5.96-.22.27-.5.48-.81.62a2.6 2.6 0 0 1-1.1.22c-.4 0-.77-.07-1.1-.21a2.2 2.2 0 0 1-.8-.61 2.7 2.7 0 0 1-.5-.95 4.25 4.25 0 0 1-.18-1.25zm7.43 2.9h-1.01v-5.8h.87l.07.8a2.36 2.36 0 0 1 1.85-.93c.57 0 .97.15 1.21.45.24.3.36.72.36 1.27V135h-1v-4.15c0-.35-.08-.6-.21-.76-.14-.15-.37-.23-.7-.23-.15 0-.3.03-.45.09-.14.05-.27.12-.4.21l-.33.3c-.1.12-.19.23-.26.34v4.2zm8.7 0v-6.25l-1.64 1.03-.48-.7 2.24-1.44h.89V135h-1.01zm3.3-3.67c0 .54.03 1 .09 1.38.06.38.15.7.27.93.12.24.27.41.44.52.17.11.37.17.6.17.24 0 .44-.06.61-.17.18-.1.33-.28.44-.52.12-.24.21-.55.27-.93.06-.38.1-.84.1-1.38 0-.54-.03-1-.1-1.38-.06-.38-.15-.69-.27-.93a1.24 1.24 0 0 0-.44-.52 1.12 1.12 0 0 0-.6-.17c-.46 0-.81.23-1.05.7a5.36 5.36 0 0 0-.36 2.3zm3.87 0c0 1.23-.2 2.17-.6 2.82-.42.66-1.03.98-1.86.98-.83 0-1.45-.32-1.86-.98-.4-.65-.6-1.6-.6-2.82 0-1.24.2-2.18.6-2.83.41-.64 1.03-.97 1.86-.97.83 0 1.44.33 1.85.98.4.65.61 1.6.61 2.82z"/><path fill="#ED00B5" fill-rule="nonzero" d="M352 65v-1h5v1h-5zm8 0v-1h5v1h-5zm8 0v-1h5v1h-5zm8 0v-1h5v1h-5zm8 0v-1h5v1h-5zm8 0v-1h5v1h-5zm8 0v-1h5v1h-5zm8 0v-1h4v1h-4z"/><path fill="#ED00B5" d="M356.84 56l2.91-4.17-2.56-3.73h1.5l1.82 2.93 1.85-2.94h1.45l-2.56 3.68 2.91 4.23h-1.53l-2.18-3.39-2.17 3.39h-1.44zm22.58-1.02V56h-5.95v-1.02H376v-7.93l-2.35 1.42-.56-.88 3.08-1.93h1.1v9.32h2.15zm3.63-1.07c.25-.26.56-.38.93-.38a1.29 1.29 0 0 1 1.32 1.32 1.28 1.28 0 0 1-1.32 1.32c-.37 0-.68-.13-.93-.39a1.27 1.27 0 0 1-.39-.94c0-.37.13-.68.39-.93zm12.04 1.07V56h-5.96v-1.02h2.54v-7.93l-2.36 1.42-.55-.88 3.07-1.93h1.11v9.32h2.15zm7.2-8.3h-4.08v3.26c.3-.17.58-.29.86-.35.29-.07.6-.1.91-.1.86 0 1.55.28 2.06.85.52.58.78 1.37.78 2.39 0 .68-.15 1.28-.43 1.8-.29.52-.7.92-1.22 1.2-.53.3-1.15.44-1.85.44a4.18 4.18 0 0 1-3-1.23l.78-.77c.63.64 1.37.96 2.22.96.7 0 1.23-.21 1.6-.63.39-.42.58-1.02.58-1.81s-.17-1.35-.51-1.7c-.34-.34-.8-.51-1.37-.51-.27 0-.51.02-.73.08a7.8 7.8 0 0 0-.87.27H397v-5.16h5.47l-.18 1.02z"/><path fill="#ED00B5" fill-rule="nonzero" d="M209 65v-1h5v1h-5zm8 0v-1h5v1h-5zm8 0v-1h5v1h-5zm8 0v-1h5v1h-5zm8 0v-1h5v1h-5zm8 0v-1h5v1h-5zm8 0v-1h5v1h-5zm8 0v-1h4v1h-4z"/><path fill="#ED00B5" d="M213.84 56l2.91-4.17-2.56-3.73h1.5l1.82 2.93 1.85-2.94h1.45l-2.56 3.68 2.91 4.23h-1.53l-2.17-3.39-2.18 3.39h-1.44zm22.58-1.02V56h-5.95v-1.02H233v-7.93l-2.35 1.42-.56-.88 3.08-1.93h1.1v9.32h2.15zm3.63-1.07c.25-.26.56-.38.93-.38a1.29 1.29 0 0 1 1.32 1.32 1.28 1.28 0 0 1-1.32 1.32c-.37 0-.68-.13-.93-.39a1.27 1.27 0 0 1-.39-.94c0-.37.13-.68.39-.93zm12.04 1.07V56h-5.96v-1.02h2.54v-7.93l-2.36 1.42-.55-.88 3.07-1.93h1.11v9.32h2.15zm7.2-8.3h-4.08v3.26c.3-.17.58-.29.86-.35.29-.07.6-.1.91-.1.86 0 1.55.28 2.06.85.52.58.78 1.37.78 2.39 0 .68-.15 1.28-.43 1.8-.29.52-.7.92-1.22 1.2-.53.3-1.15.44-1.85.44a4.18 4.18 0 0 1-3-1.23l.78-.77c.63.64 1.37.96 2.22.96.7 0 1.23-.21 1.6-.63.39-.42.58-1.02.58-1.81s-.17-1.35-.51-1.7c-.34-.34-.8-.51-1.37-.51-.27 0-.51.02-.73.08a7.8 7.8 0 0 0-.87.27H254v-5.16h5.47l-.18 1.02z"/><path fill="#ED00B5" fill-rule="nonzero" d="M490 65v-1h5v1h-5zm8 0v-1h5v1h-5zm8 0v-1h5v1h-5zm8 0v-1h5v1h-5zm8 0v-1h5v1h-5zm8 0v-1h5v1h-5zm8 0v-1h5v1h-5zm8 0v-1h4v1h-4z"/><path fill="#ED00B5" d="M494.84 56l2.91-4.17-2.56-3.73h1.5l1.82 2.93 1.85-2.94h1.45l-2.56 3.68 2.91 4.23h-1.53l-2.18-3.39-2.17 3.39h-1.44zm22.58-1.02V56h-5.95v-1.02H514v-7.93l-2.35 1.42-.56-.88 3.08-1.93h1.1v9.32h2.15zm3.63-1.07c.25-.26.56-.38.93-.38a1.29 1.29 0 0 1 1.32 1.32 1.28 1.28 0 0 1-1.32 1.32c-.37 0-.68-.13-.93-.39a1.27 1.27 0 0 1-.39-.94c0-.37.13-.68.39-.93zm12.04 1.07V56h-5.96v-1.02h2.54v-7.93l-2.36 1.42-.55-.88 3.07-1.93h1.11v9.32h2.15zm7.2-8.3h-4.08v3.26c.3-.17.58-.29.86-.35.29-.07.6-.1.91-.1.86 0 1.55.28 2.06.85.52.58.78 1.37.78 2.39 0 .68-.15 1.28-.43 1.8-.29.52-.7.92-1.22 1.2-.53.3-1.15.44-1.85.44a4.18 4.18 0 0 1-3-1.23l.78-.77c.63.64 1.37.96 2.22.96.7 0 1.23-.21 1.6-.63.39-.42.58-1.02.58-1.81s-.17-1.35-.51-1.7c-.34-.34-.8-.51-1.37-.51-.27 0-.51.02-.73.08a7.8 7.8 0 0 0-.87.27H535v-5.16h5.47l-.18 1.02z"/></g></svg>