<svg xmlns="http://www.w3.org/2000/svg" xmlns:xlink="http://www.w3.org/1999/xlink" style="background:#fafafc" viewBox="0 0 764 360"><defs><rect id="a" width="184" height="30" rx="2"/><rect id="b" width="184" height="30" rx="2"/></defs><g fill="none" fill-rule="evenodd"><g transform="translate(114 96)"><path fill="#0C0C0D" d="M8.69 67H6.97l-4.05-4.8c-.16-.19-.25-.3-.28-.37H2.6V67H1.38V56.5H2.6v4.93h.03l.28-.36 3.92-4.57h1.53l-4.5 5.04L8.69 67zm7.25-3.45h-5.3c.03.84.25 1.48.68 1.93.43.46 1.02.69 1.78.69.84 0 1.62-.28 2.32-.84v1.13c-.65.48-1.53.72-2.61.72-1.06 0-1.9-.34-2.5-1.03-.6-.68-.9-1.64-.9-2.87a4.1 4.1 0 0 1 .99-2.85 3.18 3.18 0 0 1 2.46-1.1c.98 0 1.74.31 2.28.95.54.63.8 1.51.8 2.64v.63zm-1.23-1.02c0-.7-.17-1.23-.5-1.62a1.7 1.7 0 0 0-1.37-.58c-.57 0-1.05.2-1.44.61-.4.4-.64.94-.74 1.6h4.05zm9.08 1.02h-5.3c.02.84.25 1.48.68 1.93.43.46 1.02.69 1.77.69.84 0 1.62-.28 2.33-.84v1.13c-.66.48-1.53.72-2.62.72-1.06 0-1.89-.34-2.5-1.03-.6-.68-.9-1.64-.9-2.87a4.1 4.1 0 0 1 1-2.85 3.18 3.18 0 0 1 2.46-1.1c.98 0 1.74.31 2.27.95.54.63.8 1.51.8 2.64v.63zm-1.23-1.02c0-.7-.17-1.23-.5-1.62a1.7 1.7 0 0 0-1.38-.58c-.56 0-1.04.2-1.44.61-.4.4-.64.94-.73 1.6h4.05zm4.28 3.39h-.03v4.53h-1.2V59.5h1.2v1.32h.03c.59-1 1.45-1.5 2.59-1.5.97 0 1.72.34 2.26 1.01.54.67.81 1.57.81 2.7 0 1.26-.3 2.26-.91 3.01a3.05 3.05 0 0 1-2.5 1.14 2.5 2.5 0 0 1-2.25-1.26zm-.03-3.03v1.05c0 .62.2 1.14.6 1.58a2 2 0 0 0 1.54.65c.72 0 1.3-.28 1.7-.84.42-.56.62-1.33.62-2.32 0-.84-.19-1.5-.57-1.96-.39-.48-.91-.72-1.57-.72-.7 0-1.26.25-1.69.73-.42.49-.63 1.1-.63 1.83zm17.22-5.28h-4.1v3.63h3.79v1.1h-3.8V67H38.7V56.5h5.34v1.11zm2.44-.01a.76.76 0 0 1-.77-.78.75.75 0 0 1 .78-.78.78.78 0 0 1 .78.78c0 .21-.07.4-.23.55a.77.77 0 0 1-.56.23zm.59 9.4h-1.2v-7.5h1.2V67zm6.34-6.28a1.47 1.47 0 0 0-.9-.25c-.52 0-.95.25-1.3.73a3.35 3.35 0 0 0-.5 1.98V67h-1.21v-7.5h1.2v1.55h.03c.17-.53.43-.94.78-1.24.36-.3.75-.44 1.18-.44.32 0 .55.03.72.1v1.25zm7.33 2.83h-5.3c.03.84.25 1.48.68 1.93.43.46 1.02.69 1.77.69.85 0 1.62-.28 2.33-.84v1.13c-.66.48-1.53.72-2.61.72-1.06 0-1.9-.34-2.5-1.03-.6-.68-.9-1.64-.9-2.87a4.1 4.1 0 0 1 .98-2.85 3.18 3.18 0 0 1 2.47-1.1c.98 0 1.74.31 2.28.95.53.63.8 1.51.8 2.64v.63zm-1.23-1.02c0-.7-.17-1.23-.5-1.62a1.7 1.7 0 0 0-1.37-.58c-.57 0-1.05.2-1.45.61-.4.4-.64.94-.73 1.6h4.05zm6.75-5.58a1.6 1.6 0 0 0-.8-.2c-.83 0-1.25.53-1.25 1.6v1.15h1.75v1.03H64.2V67H63v-6.47h-1.28V59.5H63v-1.22c0-.78.23-1.4.68-1.86a2.3 2.3 0 0 1 1.7-.68c.37 0 .66.04.87.13v1.08zm4.13 10.23c-1.11 0-2-.35-2.66-1.06a3.9 3.9 0 0 1-.99-2.78c0-1.26.35-2.25 1.03-2.95a3.71 3.71 0 0 1 2.8-1.07c1.11 0 1.99.35 2.61 1.04.63.69.94 1.64.94 2.86 0 1.2-.33 2.16-1.01 2.88a3.55 3.55 0 0 1-2.72 1.08zm.09-6.85c-.78 0-1.39.27-1.83.8a3.23 3.23 0 0 0-.68 2.16c0 .9.23 1.6.68 2.1.46.52 1.06.78 1.83.78a2.2 2.2 0 0 0 1.79-.76c.41-.5.62-1.22.62-2.15 0-.93-.2-1.66-.62-2.16a2.19 2.19 0 0 0-1.8-.77zm11.04-.83L79 63.3l2.48 3.7h-1.4l-1.47-2.43c-.1-.15-.2-.34-.33-.57h-.03l-.35.57L76.4 67h-1.38l2.55-3.68-2.44-3.82h1.4l1.45 2.56.31.59h.03l1.88-3.15h1.32zM93.1 67h-1.2v-1.19h-.03c-.5.91-1.27 1.37-2.31 1.37-1.8 0-2.68-1.07-2.68-3.2V59.5h1.19v4.3c0 1.57.6 2.37 1.82 2.37.58 0 1.06-.22 1.44-.65.38-.44.57-1 .57-1.7V59.5h1.2V67zm3.66-1.08h-.03v4.53h-1.2V59.5h1.2v1.32h.03c.59-1 1.45-1.5 2.59-1.5.97 0 1.72.34 2.26 1.01.54.67.81 1.57.81 2.7 0 1.26-.3 2.26-.91 3.01a3.05 3.05 0 0 1-2.5 1.14 2.5 2.5 0 0 1-2.25-1.26zm-.03-3.03v1.05c0 .62.2 1.14.6 1.58a2 2 0 0 0 1.53.65c.73 0 1.3-.28 1.72-.84.4-.56.61-1.33.61-2.32 0-.84-.19-1.5-.57-1.96-.39-.48-.91-.72-1.57-.72-.7 0-1.26.25-1.69.73-.42.49-.63 1.1-.63 1.83zm15.2 4.04c-.28.15-.66.23-1.12.23-1.31 0-1.97-.73-1.97-2.2v-4.43h-1.29V59.5h1.3v-1.83l1.2-.39v2.22h1.88v1.03h-1.89v4.22c0 .5.09.86.26 1.08.17.21.45.32.85.32.3 0 .56-.08.78-.25v1.03zm4.74.25c-1.1 0-2-.35-2.65-1.06a3.9 3.9 0 0 1-1-2.78c0-1.26.35-2.25 1.04-2.95a3.71 3.71 0 0 1 2.79-1.07c1.11 0 1.99.35 2.61 1.04.63.69.95 1.64.95 2.86 0 1.2-.34 2.16-1.02 2.88a3.55 3.55 0 0 1-2.72 1.08zm.09-6.85c-.77 0-1.38.27-1.83.8a3.23 3.23 0 0 0-.68 2.16c0 .9.23 1.6.68 2.1.46.52 1.07.78 1.83.78a2.2 2.2 0 0 0 1.79-.76c.42-.5.63-1.22.63-2.15 0-.93-.21-1.66-.63-2.16a2.19 2.19 0 0 0-1.8-.77zM132.82 67h-1.2v-1.27h-.03a2.77 2.77 0 0 1-2.57 1.45 2.8 2.8 0 0 1-2.26-1.01 4.13 4.13 0 0 1-.85-2.74c0-1.24.31-2.24.94-2.99a3.1 3.1 0 0 1 2.5-1.12c1.03 0 1.78.4 2.24 1.22h.03V55.9h1.2V67zm-1.2-3.4v-1.1c0-.6-.2-1.12-.6-1.54-.4-.42-.9-.63-1.52-.63-.73 0-1.3.27-1.73.81a3.53 3.53 0 0 0-.63 2.23c0 .86.2 1.54.6 2.04.4.5.95.76 1.63.76.67 0 1.21-.25 1.63-.73.41-.48.62-1.1.62-1.83zm9 3.4h-1.2v-1.17h-.03c-.52.9-1.29 1.35-2.3 1.35-.75 0-1.33-.2-1.76-.6-.42-.4-.63-.92-.63-1.57 0-1.4.82-2.22 2.48-2.45l2.24-.31c0-1.28-.51-1.92-1.54-1.92-.9 0-1.72.31-2.45.93v-1.23c.74-.47 1.59-.7 2.55-.7 1.76 0 2.65.93 2.65 2.8V67zm-1.2-3.8l-1.8.26c-.56.07-.98.21-1.27.4-.28.2-.42.56-.42 1.06 0 .37.13.67.4.9.25.23.6.35 1.04.35.6 0 1.08-.21 1.47-.63.39-.42.58-.95.58-1.59v-.74zm6.95 3.73c-.29.15-.66.23-1.12.23-1.32 0-1.97-.73-1.97-2.2v-4.43h-1.3V59.5h1.3v-1.83l1.2-.39v2.22h1.89v1.03h-1.9v4.22c0 .5.1.86.26 1.08.17.21.46.32.85.32.3 0 .57-.08.79-.25v1.03zm7.63-3.38h-5.3c.02.84.25 1.48.68 1.93.43.46 1.02.69 1.77.69.84 0 1.62-.28 2.33-.84v1.13c-.66.48-1.53.72-2.62.72-1.06 0-1.89-.34-2.5-1.03-.6-.68-.9-1.64-.9-2.87a4.1 4.1 0 0 1 1-2.85 3.18 3.18 0 0 1 2.46-1.1c.98 0 1.74.31 2.27.95.54.63.8 1.51.8 2.64v.63zm-1.23-1.02c0-.7-.17-1.23-.5-1.62a1.7 1.7 0 0 0-1.38-.58c-.56 0-1.04.2-1.44.61-.4.4-.64.94-.73 1.6h4.05zm10.86-5.58a1.6 1.6 0 0 0-.8-.2c-.84 0-1.26.53-1.26 1.6v1.15h1.76v1.03h-1.76V67h-1.2v-6.47h-1.27V59.5h1.28v-1.22c0-.78.23-1.4.68-1.86a2.3 2.3 0 0 1 1.7-.68c.37 0 .66.04.87.13v1.08zm4.12 10.23c-1.1 0-1.99-.35-2.65-1.06a3.9 3.9 0 0 1-1-2.78c0-1.26.35-2.25 1.04-2.95a3.71 3.71 0 0 1 2.79-1.07c1.12 0 2 .35 2.62 1.04.63.69.94 1.64.94 2.86 0 1.2-.34 2.16-1.02 2.88a3.55 3.55 0 0 1-2.72 1.08zm.1-6.85c-.78 0-1.39.27-1.84.8a3.23 3.23 0 0 0-.67 2.16c0 .9.22 1.6.68 2.1.45.52 1.06.78 1.82.78a2.2 2.2 0 0 0 1.8-.76c.41-.5.62-1.22.62-2.15 0-.93-.21-1.66-.63-2.16a2.19 2.19 0 0 0-1.79-.77zm9.47.39a1.47 1.47 0 0 0-.9-.25c-.52 0-.95.25-1.3.73a3.35 3.35 0 0 0-.51 1.98V67h-1.2v-7.5h1.2v1.55h.03c.17-.53.43-.94.78-1.24.35-.3.75-.44 1.18-.44.31 0 .55.03.72.1v1.25zm8.9 6.2c-.3.16-.67.24-1.13.24-1.31 0-1.97-.73-1.97-2.2v-4.43h-1.29V59.5h1.29v-1.83l1.2-.39v2.22h1.9v1.03h-1.9v4.22c0 .5.09.86.26 1.08.17.21.45.32.85.32.3 0 .56-.08.78-.25v1.03zm7.82.08h-1.2v-4.32c0-1.56-.58-2.35-1.74-2.35a1.9 1.9 0 0 0-1.48.68c-.4.45-.6 1.03-.6 1.74V67h-1.2V55.9h1.2v4.85h.03a2.73 2.73 0 0 1 2.46-1.43c1.69 0 2.53 1.02 2.53 3.06V67zm8.3-3.45h-5.3c.02.84.24 1.48.67 1.93.43.46 1.02.69 1.77.69.85 0 1.62-.28 2.33-.84v1.13c-.66.48-1.53.72-2.61.72-1.06 0-1.9-.34-2.5-1.03-.6-.68-.9-1.64-.9-2.87a4.1 4.1 0 0 1 .98-2.85 3.18 3.18 0 0 1 2.47-1.1c.98 0 1.74.31 2.28.95.53.63.8 1.51.8 2.64v.63zm-1.24-1.02c0-.7-.17-1.23-.5-1.62a1.7 1.7 0 0 0-1.37-.58c-.57 0-1.05.2-1.45.61-.4.4-.64.94-.73 1.6h4.05zm8.39 3.39h-.03V67h-1.2V55.9h1.2v4.92h.03c.59-1 1.45-1.5 2.59-1.5.96 0 1.72.34 2.26 1.01.54.67.82 1.57.82 2.7 0 1.26-.3 2.26-.92 3.01a3.05 3.05 0 0 1-2.5 1.14c-1 0-1.74-.42-2.25-1.26zm-.03-3.03v1.05c0 .62.2 1.14.6 1.58a2 2 0 0 0 1.54.65c.72 0 1.3-.28 1.7-.84.42-.56.63-1.33.63-2.32 0-.84-.2-1.5-.58-1.96-.39-.48-.91-.72-1.57-.72-.7 0-1.26.25-1.68.73-.43.49-.64 1.1-.64 1.83zm13.64.66h-5.3c.03.84.25 1.48.68 1.93.43.46 1.02.69 1.77.69.85 0 1.62-.28 2.33-.84v1.13c-.66.48-1.53.72-2.61.72-1.06 0-1.9-.34-2.5-1.03-.6-.68-.9-1.64-.9-2.87a4.1 4.1 0 0 1 .98-2.85 3.18 3.18 0 0 1 2.47-1.1c.98 0 1.74.31 2.28.95.53.63.8 1.51.8 2.64v.63zm-1.23-1.02c0-.7-.17-1.23-.5-1.62a1.7 1.7 0 0 0-1.37-.58c-.57 0-1.05.2-1.45.61-.4.4-.63.94-.73 1.6h4.05zm2.6 4.2v-1.29c.65.48 1.37.73 2.16.73 1.05 0 1.58-.36 1.58-1.06 0-.2-.05-.37-.14-.5a1.35 1.35 0 0 0-.36-.38c-.16-.1-.34-.2-.55-.29l-.67-.27a8.63 8.63 0 0 1-.87-.4 2.64 2.64 0 0 1-.63-.45c-.17-.17-.3-.36-.38-.57a2.03 2.03 0 0 1-.13-.76c0-.35.08-.66.24-.93.16-.27.38-.5.65-.68a3 3 0 0 1 .92-.42 4.3 4.3 0 0 1 2.8.2v1.22a3.4 3.4 0 0 0-2.5-.47c-.19.05-.34.13-.47.22a1 1 0 0 0-.3.33.88.88 0 0 0-.11.43c0 .2.04.36.1.49.08.13.18.25.32.35.13.1.3.2.5.28l.66.27c.33.13.63.26.9.4.26.13.48.28.67.45.19.17.33.36.43.58.1.22.15.48.15.78 0 .37-.08.7-.25.97-.16.27-.38.5-.65.68a3 3 0 0 1-.95.4c-.35.1-.73.14-1.12.14-.77 0-1.44-.15-2-.45zm10.3.2c-.29.15-.66.23-1.13.23-1.31 0-1.97-.73-1.97-2.2v-4.43h-1.29V59.5h1.3v-1.83l1.2-.39v2.22h1.88v1.03h-1.89v4.22c0 .5.09.86.26 1.08.17.21.45.32.85.32.3 0 .56-.08.78-.25v1.03zm6.94-1.01h-.03v4.53h-1.2V59.5h1.2v1.32h.03c.59-1 1.45-1.5 2.59-1.5.97 0 1.72.34 2.26 1.01.54.67.82 1.57.82 2.7 0 1.26-.31 2.26-.92 3.01a3.05 3.05 0 0 1-2.5 1.14 2.5 2.5 0 0 1-2.25-1.26zm-.03-3.03v1.05c0 .62.2 1.14.6 1.58a2 2 0 0 0 1.54.65c.72 0 1.3-.28 1.7-.84.42-.56.63-1.33.63-2.32 0-.84-.2-1.5-.58-1.96-.39-.48-.91-.72-1.57-.72-.7 0-1.26.25-1.69.73-.42.49-.63 1.1-.63 1.83zm13.64.66h-5.3c.03.84.25 1.48.68 1.93.43.46 1.02.69 1.77.69.85 0 1.62-.28 2.33-.84v1.13c-.66.48-1.53.72-2.61.72-1.06 0-1.9-.34-2.5-1.03-.6-.68-.9-1.64-.9-2.87a4.1 4.1 0 0 1 .98-2.85 3.18 3.18 0 0 1 2.47-1.1c.98 0 1.74.31 2.28.95.53.63.8 1.51.8 2.64v.63zm-1.23-1.02c0-.7-.17-1.23-.5-1.62a1.7 1.7 0 0 0-1.37-.58c-.57 0-1.05.2-1.45.61-.4.4-.64.94-.73 1.6h4.05zm6.96-1.81a1.47 1.47 0 0 0-.9-.25c-.52 0-.95.25-1.3.73a3.35 3.35 0 0 0-.51 1.98V67h-1.2v-7.5h1.2v1.55h.03c.17-.53.43-.94.78-1.24.35-.3.75-.44 1.18-.44.31 0 .55.03.72.1v1.25zm5.01-3.77a1.6 1.6 0 0 0-.8-.2c-.84 0-1.26.53-1.26 1.6v1.15h1.76v1.03H264V67h-1.2v-6.47h-1.27V59.5h1.28v-1.22c0-.78.22-1.4.68-1.86a2.3 2.3 0 0 1 1.7-.68c.36 0 .65.04.87.13v1.08zm4.12 10.23c-1.1 0-1.99-.35-2.65-1.06a3.9 3.9 0 0 1-1-2.78c0-1.26.35-2.25 1.04-2.95a3.71 3.71 0 0 1 2.79-1.07c1.12 0 1.99.35 2.62 1.04.62.69.94 1.64.94 2.86 0 1.2-.34 2.16-1.02 2.88a3.55 3.55 0 0 1-2.72 1.08zm.1-6.85c-.78 0-1.4.27-1.84.8a3.23 3.23 0 0 0-.67 2.16c0 .9.22 1.6.68 2.1.45.52 1.06.78 1.82.78a2.2 2.2 0 0 0 1.8-.76c.4-.5.62-1.22.62-2.15 0-.93-.21-1.66-.63-2.16a2.19 2.19 0 0 0-1.79-.77zm9.47.39a1.47 1.47 0 0 0-.91-.25c-.51 0-.94.25-1.29.73a3.35 3.35 0 0 0-.51 1.98V67h-1.2v-7.5h1.2v1.55h.03c.17-.53.43-.94.78-1.24.35-.3.75-.44 1.18-.44.31 0 .55.03.72.1v1.25zM291.7 67h-1.2v-4.3c0-.84-.13-1.44-.38-1.8-.26-.38-.7-.57-1.3-.57-.5 0-.95.24-1.3.7a2.69 2.69 0 0 0-.54 1.7V67h-1.2v-4.45c0-1.48-.57-2.22-1.71-2.22-.53 0-.96.23-1.3.67a2.74 2.74 0 0 0-.52 1.72V67h-1.2v-7.5h1.2v1.19h.03c.53-.91 1.31-1.37 2.33-1.37a2.17 2.17 0 0 1 2.13 1.56 2.68 2.68 0 0 1 2.49-1.56c1.65 0 2.47 1.02 2.47 3.06V67zm7.64 0h-1.2v-1.17h-.03c-.52.9-1.3 1.35-2.3 1.35-.75 0-1.34-.2-1.76-.6-.42-.4-.63-.92-.63-1.57 0-1.4.82-2.22 2.47-2.45l2.25-.31c0-1.28-.52-1.92-1.55-1.92-.9 0-1.71.31-2.44.93v-1.23c.74-.47 1.58-.7 2.55-.7 1.76 0 2.64.93 2.64 2.8V67zm-1.2-3.8l-1.8.26c-.57.07-.99.21-1.27.4-.28.2-.42.56-.42 1.06 0 .37.13.67.39.9.26.23.6.35 1.04.35.6 0 1.09-.21 1.48-.63.39-.42.58-.95.58-1.59v-.74zm9.69 3.8h-1.2v-4.28c0-1.59-.58-2.39-1.74-2.39-.6 0-1.1.23-1.5.68-.39.45-.58 1.02-.58 1.71V67h-1.2v-7.5h1.2v1.25h.02a2.7 2.7 0 0 1 2.47-1.43c.82 0 1.44.27 1.88.8.43.53.65 1.3.65 2.3V67zm7.38-.34a3.9 3.9 0 0 1-2.06.52 3.4 3.4 0 0 1-2.58-1.05c-.66-.7-.99-1.6-.99-2.7 0-1.24.35-2.23 1.06-2.98a3.72 3.72 0 0 1 2.84-1.13c.66 0 1.24.13 1.74.37v1.23a3.05 3.05 0 0 0-1.79-.59c-.76 0-1.4.28-1.88.83-.5.55-.74 1.27-.74 2.16 0 .88.23 1.58.7 2.08.45.51 1.07.77 1.85.77.65 0 1.27-.22 1.85-.66v1.15zm7.84-3.11h-5.3c.02.84.25 1.48.68 1.93.43.46 1.02.69 1.77.69.84 0 1.62-.28 2.33-.84v1.13c-.66.48-1.53.72-2.62.72-1.06 0-1.89-.34-2.5-1.03-.6-.68-.9-1.64-.9-2.87a4.1 4.1 0 0 1 1-2.85 3.18 3.18 0 0 1 2.46-1.1c.98 0 1.74.31 2.27.95.54.63.8 1.51.8 2.64v.63zm-1.23-1.02c0-.7-.17-1.23-.5-1.62a1.7 1.7 0 0 0-1.38-.58c-.56 0-1.04.2-1.44.61-.4.4-.64.94-.73 1.6h4.05zm4.14 2.8l-1.17 3.6h-.85l.85-3.6h1.17zm5.81 1.4v-1.29c.66.48 1.38.73 2.16.73 1.06 0 1.59-.36 1.59-1.06 0-.2-.05-.37-.14-.5a1.35 1.35 0 0 0-.37-.38c-.15-.1-.33-.2-.54-.29l-.67-.27a8.63 8.63 0 0 1-.87-.4 2.64 2.64 0 0 1-.63-.45c-.17-.17-.3-.36-.38-.57a2.03 2.03 0 0 1-.13-.76c0-.35.08-.66.24-.93.16-.27.37-.5.64-.68a3 3 0 0 1 .92-.42 4.3 4.3 0 0 1 2.8.2l.01 1.22a3.4 3.4 0 0 0-2.51-.47c-.18.05-.34.13-.47.22a1 1 0 0 0-.3.33.88.88 0 0 0-.1.43c0 .2.03.36.1.49s.18.25.32.35c.13.1.3.2.5.28l.66.27c.33.13.63.26.9.4.26.13.48.28.67.45.18.17.33.36.43.58.1.22.15.48.15.78 0 .37-.09.7-.25.97s-.38.5-.66.68a3 3 0 0 1-.94.4c-.36.1-.73.14-1.12.14-.77 0-1.44-.15-2-.45zm10.3.2c-.28.15-.66.23-1.12.23-1.31 0-1.97-.73-1.97-2.2v-4.43h-1.29V59.5h1.29v-1.83l1.2-.39v2.22h1.89v1.03h-1.89v4.22c0 .5.09.86.26 1.08.17.21.45.32.85.32.3 0 .56-.08.78-.25v1.03zm6.97.07h-1.2v-1.17h-.03c-.52.9-1.29 1.35-2.3 1.35-.75 0-1.34-.2-1.76-.6-.42-.4-.63-.92-.63-1.57 0-1.4.82-2.22 2.47-2.45l2.25-.31c0-1.28-.51-1.92-1.54-1.92-.9 0-1.72.31-2.45.93v-1.23c.74-.47 1.59-.7 2.55-.7 1.76 0 2.64.93 2.64 2.8V67zm-1.2-3.8l-1.8.26c-.56.07-.98.21-1.27.4-.28.2-.42.56-.42 1.06 0 .37.13.67.39.9.26.23.6.35 1.04.35.6 0 1.1-.21 1.48-.63.39-.42.58-.95.58-1.59v-.74zm4.7 2.72h-.03V67h-1.2V55.9h1.2v4.92h.03c.59-1 1.45-1.5 2.59-1.5.96 0 1.71.34 2.26 1.01.54.67.82 1.57.82 2.7 0 1.26-.31 2.26-.92 3.01a3.05 3.05 0 0 1-2.5 1.14c-1 0-1.75-.42-2.25-1.26zm-.03-3.03v1.05c0 .62.2 1.14.6 1.58a2 2 0 0 0 1.54.65c.72 0 1.3-.28 1.7-.84.42-.56.63-1.33.63-2.32 0-.84-.2-1.5-.58-1.96-.39-.48-.91-.72-1.57-.72-.7 0-1.26.25-1.69.73-.42.49-.63 1.1-.63 1.83zm8.23-5.3a.76.76 0 0 1-.78-.77c0-.23.08-.41.23-.56a.75.75 0 0 1 .55-.22.78.78 0 0 1 .8.78c0 .21-.09.4-.24.55a.77.77 0 0 1-.56.23zm.59 9.41h-1.2v-7.5h1.2V67zm3.63 0h-1.2V55.9h1.2V67zm3.05-9.4a.76.76 0 0 1-.78-.78c0-.23.07-.41.23-.56a.75.75 0 0 1 .55-.22.78.78 0 0 1 .79.78c0 .21-.08.4-.23.55a.77.77 0 0 1-.56.23zm.58 9.4h-1.2v-7.5h1.2V67zm5.91-.07c-.28.15-.65.23-1.12.23-1.31 0-1.97-.73-1.97-2.2v-4.43h-1.29V59.5h1.3v-1.83l1.2-.39v2.22h1.88v1.03h-1.89v4.22c0 .5.09.86.26 1.08.17.21.45.32.85.32.3 0 .56-.08.78-.25v1.03zm7.58-7.43l-3.45 8.7c-.62 1.55-1.48 2.33-2.6 2.33-.31 0-.57-.03-.78-.1v-1.07c.26.09.5.13.7.13.61 0 1.07-.36 1.37-1.08l.6-1.42L375 59.5h1.34l2.02 5.77.16.57h.04l.15-.55 2.13-5.79h1.25zm2.38 5.83l-1.17 3.6h-.86l.86-3.6h1.17zM396.1 67h-1.2v-1.17h-.03c-.52.9-1.29 1.35-2.3 1.35-.75 0-1.34-.2-1.76-.6-.42-.4-.63-.92-.63-1.57 0-1.4.82-2.22 2.47-2.45l2.25-.31c0-1.28-.51-1.92-1.54-1.92-.9 0-1.72.31-2.45.93v-1.23c.74-.47 1.59-.7 2.55-.7 1.76 0 2.64.93 2.64 2.8V67zm-1.2-3.8l-1.8.26c-.56.07-.98.21-1.27.4-.28.2-.42.56-.42 1.06 0 .37.13.67.4.9.25.23.6.35 1.03.35.6 0 1.1-.21 1.48-.63.39-.42.58-.95.58-1.59v-.74zm9.7 3.8h-1.2v-4.28c0-1.59-.59-2.39-1.75-2.39-.6 0-1.1.23-1.5.68-.39.45-.58 1.02-.58 1.71V67h-1.2v-7.5h1.2v1.25h.03a2.7 2.7 0 0 1 2.46-1.43c.82 0 1.45.27 1.88.8.44.53.65 1.3.65 2.3V67zm8.66 0h-1.2v-1.27h-.03a2.77 2.77 0 0 1-2.58 1.45 2.8 2.8 0 0 1-2.26-1.01 4.13 4.13 0 0 1-.85-2.74c0-1.24.32-2.24.94-2.99a3.1 3.1 0 0 1 2.5-1.12c1.03 0 1.78.4 2.25 1.22h.03V55.9h1.2V67zm-1.2-3.4v-1.1c0-.6-.2-1.12-.6-1.54-.4-.42-.91-.63-1.53-.63-.73 0-1.3.27-1.73.81a3.53 3.53 0 0 0-.63 2.23c0 .86.2 1.54.6 2.04.41.5.95.76 1.63.76.67 0 1.21-.25 1.63-.73.42-.48.63-1.1.63-1.83zm7.28 3.13v-1.29c.66.48 1.38.73 2.16.73 1.06 0 1.59-.36 1.59-1.06 0-.2-.05-.37-.14-.5a1.35 1.35 0 0 0-.37-.38c-.15-.1-.33-.2-.54-.29l-.67-.27a8.63 8.63 0 0 1-.87-.4 2.64 2.64 0 0 1-.63-.45c-.17-.17-.3-.36-.38-.57a2.03 2.03 0 0 1-.13-.76c0-.35.08-.66.24-.93.16-.27.38-.5.64-.68a3 3 0 0 1 .92-.42 4.3 4.3 0 0 1 2.8.2l.01 1.22a3.4 3.4 0 0 0-2.51-.47c-.18.05-.34.13-.46.22a1 1 0 0 0-.3.33.88.88 0 0 0-.11.43c0 .2.03.36.1.49.08.13.18.25.32.35.13.1.3.2.5.28l.66.27c.33.13.63.26.9.4.26.13.48.28.67.45.18.17.33.36.43.58.1.22.15.48.15.78 0 .37-.09.7-.25.97s-.38.5-.65.68a3 3 0 0 1-.95.4c-.36.1-.73.14-1.12.14-.77 0-1.44-.15-2-.45zm12.85-3.18h-5.3c.02.84.25 1.48.68 1.93.43.46 1.02.69 1.77.69.85 0 1.62-.28 2.33-.84v1.13c-.66.48-1.53.72-2.61.72-1.06 0-1.9-.34-2.5-1.03-.6-.68-.91-1.64-.91-2.87a4.1 4.1 0 0 1 1-2.85 3.18 3.18 0 0 1 2.46-1.1c.98 0 1.74.31 2.27.95.54.63.81 1.51.81 2.64v.63zm-1.23-1.02c0-.7-.17-1.23-.5-1.62a1.7 1.7 0 0 0-1.38-.58c-.56 0-1.04.2-1.44.61-.4.4-.64.94-.73 1.6h4.05zm8.16 4.13a3.9 3.9 0 0 1-2.05.52 3.4 3.4 0 0 1-2.6-1.05c-.65-.7-.98-1.6-.98-2.7 0-1.24.36-2.23 1.07-2.98a3.72 3.72 0 0 1 2.83-1.13c.66 0 1.24.13 1.74.37v1.23a3.05 3.05 0 0 0-1.78-.59c-.77 0-1.4.28-1.89.83-.49.55-.74 1.27-.74 2.16 0 .88.24 1.58.7 2.08.46.51 1.08.77 1.85.77.66 0 1.27-.22 1.85-.66v1.15zm7.88.34h-1.2v-1.19h-.03c-.5.91-1.27 1.37-2.32 1.37-1.78 0-2.68-1.07-2.68-3.2V59.5h1.2v4.3c0 1.57.6 2.37 1.81 2.37.59 0 1.07-.22 1.45-.65.38-.44.57-1 .57-1.7V59.5h1.2V67zm6.34-6.28a1.47 1.47 0 0 0-.91-.25c-.52 0-.94.25-1.29.73a3.35 3.35 0 0 0-.51 1.98V67h-1.2v-7.5h1.2v1.55h.02c.18-.53.44-.94.79-1.24.35-.3.74-.44 1.18-.44.31 0 .55.03.72.1v1.25zm1.91-3.12a.76.76 0 0 1-.77-.78.75.75 0 0 1 .78-.78.78.78 0 0 1 .79.78c0 .21-.08.4-.24.55a.77.77 0 0 1-.56.23zm.59 9.4h-1.2v-7.5h1.2V67zm5.91-.07c-.28.15-.66.23-1.12.23-1.31 0-1.97-.73-1.97-2.2v-4.43h-1.29V59.5h1.29v-1.83l1.2-.39v2.22h1.9v1.03h-1.9v4.22c0 .5.09.86.26 1.08.17.21.45.32.85.32.3 0 .56-.08.78-.25v1.03zm7.57-7.43l-3.45 8.7c-.61 1.55-1.48 2.33-2.59 2.33-.31 0-.57-.03-.78-.1v-1.07c.26.09.5.13.7.13.61 0 1.07-.36 1.37-1.08l.6-1.42-2.93-7.49h1.33l2.03 5.77.16.57h.04c.03-.11.07-.3.15-.55l2.13-5.79h1.24zm1.71 7.66a.78.78 0 0 1-.57-.24.8.8 0 0 1-.24-.58.8.8 0 0 1 .24-.58.77.77 0 0 1 .57-.25.8.8 0 0 1 .59.25.8.8 0 0 1 .24.58c0 .23-.08.42-.24.58a.8.8 0 0 1-.59.24zM9.18 91.5L5.3 102H3.94L.14 91.5H1.5l2.9 8.32c.1.27.17.58.22.93h.03c.04-.29.12-.6.24-.94l2.97-8.31h1.32zm7.38 7.05h-5.3c.02.84.25 1.48.68 1.93.43.46 1.02.69 1.77.69.85 0 1.62-.28 2.33-.84v1.13c-.66.48-1.53.72-2.61.72-1.06 0-1.9-.34-2.5-1.03-.6-.68-.91-1.64-.91-2.87a4.1 4.1 0 0 1 1-2.85 3.18 3.18 0 0 1 2.46-1.1c.98 0 1.74.31 2.27.95.54.63.81 1.51.81 2.64v.63zm-1.23-1.02c0-.7-.17-1.23-.5-1.62a1.7 1.7 0 0 0-1.38-.58c-.56 0-1.04.2-1.44.61-.4.4-.64.94-.73 1.6h4.05zm6.96-1.81a1.47 1.47 0 0 0-.91-.25c-.51 0-.94.25-1.29.73a3.35 3.35 0 0 0-.51 1.98V102h-1.2v-7.5h1.2v1.55h.03c.17-.53.43-.94.78-1.24.35-.3.75-.44 1.18-.44.31 0 .55.03.72.1v1.25zm.85 6v-1.28c.65.48 1.37.73 2.16.73 1.05 0 1.58-.36 1.58-1.06 0-.2-.05-.37-.14-.5a1.35 1.35 0 0 0-.36-.38c-.16-.1-.34-.2-.54-.29l-.67-.27a8.63 8.63 0 0 1-.88-.4 2.64 2.64 0 0 1-.63-.45c-.17-.17-.3-.36-.38-.57a2.03 2.03 0 0 1-.13-.76c0-.35.08-.66.24-.93.16-.27.38-.5.65-.68a3 3 0 0 1 .92-.42 4.3 4.3 0 0 1 2.8.2v1.22a3.4 3.4 0 0 0-2.5-.47c-.19.05-.34.13-.47.22a1 1 0 0 0-.3.33.88.88 0 0 0-.1.43c0 .2.03.36.1.49s.17.25.31.35c.14.1.3.2.5.28l.66.27c.34.13.63.26.9.4.26.13.49.28.67.45.19.17.33.36.43.58.1.22.15.48.15.78 0 .37-.08.7-.25.97-.16.27-.38.5-.65.68a3 3 0 0 1-.95.4c-.35.1-.73.14-1.12.14-.77 0-1.44-.15-2-.45zm7.43-9.12a.76.76 0 0 1-.78-.78c0-.23.08-.41.23-.56a.75.75 0 0 1 .55-.22.78.78 0 0 1 .8.78c0 .21-.08.4-.24.55a.77.77 0 0 1-.56.23zm.59 9.4h-1.2v-7.5h1.2v7.5zm5.56.18c-1.1 0-1.99-.35-2.65-1.06a3.9 3.9 0 0 1-1-2.78c0-1.26.35-2.25 1.04-2.95a3.71 3.71 0 0 1 2.79-1.07c1.12 0 1.99.35 2.62 1.04.63.69.94 1.64.94 2.86 0 1.2-.34 2.16-1.02 2.88a3.55 3.55 0 0 1-2.72 1.08zm.1-6.85c-.78 0-1.39.27-1.84.8a3.23 3.23 0 0 0-.67 2.16c0 .9.22 1.6.68 2.1.45.52 1.06.78 1.82.78a2.2 2.2 0 0 0 1.8-.76c.41-.5.62-1.22.62-2.15 0-.93-.21-1.66-.63-2.16a2.19 2.19 0 0 0-1.79-.77zM48.6 102h-1.2v-4.28c0-1.59-.58-2.39-1.74-2.39-.6 0-1.1.23-1.5.68-.38.45-.58 1.02-.58 1.71V102h-1.2v-7.5h1.2v1.25h.03a2.7 2.7 0 0 1 2.46-1.43c.82 0 1.45.27 1.88.8.44.53.65 1.3.65 2.3V102zm2.68-6.04a.78.78 0 0 1-.57-.24.8.8 0 0 1-.24-.58c0-.22.08-.41.24-.57a.79.79 0 0 1 .57-.23c.23 0 .43.08.59.23.16.16.24.35.24.57 0 .23-.08.42-.24.58a.8.8 0 0 1-.59.24zm0 6.2a.78.78 0 0 1-.57-.24.8.8 0 0 1-.24-.58.8.8 0 0 1 .24-.58.77.77 0 0 1 .57-.25.8.8 0 0 1 .59.25.8.8 0 0 1 .24.58c0 .23-.08.42-.24.58a.8.8 0 0 1-.59.24zm6.93-.42v-1.27a4 4 0 0 0 2.2.7c.74 0 1.33-.21 1.79-.63.45-.42.68-.98.68-1.67 0-.7-.23-1.23-.7-1.62a3.04 3.04 0 0 0-1.99-.57c-.3 0-.84.02-1.65.08V91.5h5.09v1.08h-3.95v3.08l.9-.03c1.11 0 1.98.28 2.6.84.61.57.92 1.34.92 2.32a3.2 3.2 0 0 1-1 2.46c-.65.62-1.56.93-2.71.93-.97 0-1.7-.15-2.18-.44zm7.85-.13v-1.3c.71.57 1.53.86 2.43.86.73 0 1.32-.19 1.75-.55.44-.37.66-.86.66-1.48 0-1.38-.98-2.06-2.92-2.06h-.88v-1.02h.83c1.74 0 2.6-.64 2.6-1.93 0-1.2-.66-1.8-1.98-1.8-.74 0-1.44.26-2.09.76v-1.17c.67-.4 1.47-.6 2.39-.6.88 0 1.59.24 2.12.7.53.47.8 1.07.8 1.8 0 1.39-.71 2.28-2.12 2.67v.03a2.8 2.8 0 0 1 1.8.8c.46.45.68 1.02.68 1.7 0 .95-.34 1.7-1.02 2.29-.67.58-1.56.87-2.67.87-1 0-1.8-.2-2.38-.57zm8.76.55a.78.78 0 0 1-.58-.24.8.8 0 0 1-.24-.58.8.8 0 0 1 .24-.58.77.77 0 0 1 .58-.25.8.8 0 0 1 .58.25.8.8 0 0 1 .24.58c0 .23-.08.42-.24.58a.8.8 0 0 1-.58.24zm5.56.02a2.76 2.76 0 0 1-2.44-1.34c-.58-.9-.87-2.19-.87-3.88 0-1.85.3-3.26.9-4.21a2.94 2.94 0 0 1 2.64-1.43c2.2 0 3.3 1.8 3.3 5.38 0 1.78-.31 3.14-.93 4.07a2.95 2.95 0 0 1-2.6 1.4zm.16-9.84c-1.5 0-2.24 1.52-2.24 4.56 0 2.84.73 4.27 2.2 4.27 1.45 0 2.18-1.45 2.18-4.34 0-3-.71-4.5-2.14-4.5zM93 104.39h-1.07a9.36 9.36 0 0 1-2.27-6.4c0-2.54.75-4.7 2.27-6.5H93a9.87 9.87 0 0 0-2.3 6.49 9.7 9.7 0 0 0 2.29 6.4zm7-12.77v1.14a3.7 3.7 0 0 0-1.72-.42c-.93 0-1.67.41-2.23 1.24a5.88 5.88 0 0 0-.84 3.34h.03c.49-1 1.29-1.49 2.4-1.49.92 0 1.65.3 2.19.88.54.6.81 1.38.81 2.36 0 1.04-.3 1.88-.93 2.53-.62.65-1.4.98-2.36.98a2.89 2.89 0 0 1-2.49-1.26 6 6 0 0 1-.9-3.54c0-1.84.4-3.31 1.18-4.41a3.65 3.65 0 0 1 3.11-1.65c.74 0 1.32.1 1.75.3zm-2.62 4.83c-.62 0-1.13.2-1.51.63-.39.42-.58.91-.58 1.48 0 .72.19 1.34.57 1.84.39.51.9.77 1.53.77.6 0 1.1-.23 1.46-.67.38-.44.56-1 .56-1.68 0-.74-.18-1.32-.53-1.74a1.86 1.86 0 0 0-1.5-.63zm11.44 2.76h-1.35V102h-1.19v-2.8h-4.93v-.77l4.67-6.93h1.45v6.74h1.35v.97zm-2.54-.97v-4.55l.03-1.08h-.03c-.07.18-.2.44-.4.8l-3.23 4.83h3.63zm8.1.05h-4v-.94h4v.94zm3.4 2.63h-.04V102h-1.2V90.9h1.2v4.92h.03c.6-1 1.46-1.5 2.6-1.5.96 0 1.71.34 2.26 1.01.54.67.81 1.57.81 2.7 0 1.26-.3 2.26-.91 3.01a3.05 3.05 0 0 1-2.5 1.14c-1 0-1.75-.42-2.26-1.26zm-.04-3.03v1.05c0 .62.2 1.14.6 1.58a2 2 0 0 0 1.54.65c.73 0 1.3-.28 1.71-.84.42-.56.62-1.33.62-2.32 0-.84-.2-1.5-.58-1.96-.38-.48-.9-.72-1.56-.72-.7 0-1.26.25-1.69.73-.42.49-.64 1.1-.64 1.83zm8.24-5.3a.76.76 0 0 1-.78-.77c0-.23.08-.41.23-.56a.75.75 0 0 1 .55-.22.78.78 0 0 1 .79.78c0 .21-.08.4-.23.55a.77.77 0 0 1-.56.23zm.58 9.41h-1.2v-7.5h1.2v7.5zm5.91-.07c-.28.15-.65.23-1.12.23-1.31 0-1.97-.73-1.97-2.2v-4.43h-1.29V94.5h1.3v-1.83l1.2-.39v2.22h1.88v1.03h-1.89v4.22c0 .5.09.86.26 1.08.17.21.45.32.85.32.3 0 .56-.08.78-.25v1.03zm1.64 2.46h-1.07a9.7 9.7 0 0 0 2.28-6.41c0-2.47-.76-4.63-2.3-6.48h1.09a9.68 9.68 0 0 1 2.28 6.5c0 2.53-.76 4.66-2.28 6.39z"/><path fill="#0A84FF" d="M157.83 91.5l-2.97 10.5h-1.44l-2.16-7.68a4.8 4.8 0 0 1-.17-1.07h-.03c-.03.37-.1.72-.19 1.06l-2.18 7.69h-1.42l-3.08-10.5h1.36l2.23 8.05c.1.34.15.7.18 1.06h.03c.03-.26.1-.61.23-1.06l2.32-8.05h1.18l2.23 8.11c.07.28.13.6.17.98h.03c.02-.25.09-.59.2-1l2.15-8.1h1.33zm7.62 10.5h-1.2v-4.32c0-1.56-.58-2.35-1.74-2.35a1.9 1.9 0 0 0-1.48.68c-.4.45-.6 1.03-.6 1.74V102h-1.2V90.9h1.2v4.85h.03a2.73 2.73 0 0 1 2.46-1.43c1.69 0 2.53 1.02 2.53 3.06V102zm7.63 0h-1.2v-1.17h-.03c-.52.9-1.29 1.35-2.3 1.35-.75 0-1.33-.2-1.76-.6-.42-.4-.63-.92-.63-1.57 0-1.4.82-2.22 2.47-2.45l2.25-.31c0-1.28-.51-1.92-1.54-1.92-.9 0-1.72.31-2.45.93v-1.23c.74-.47 1.59-.7 2.55-.7 1.76 0 2.64.93 2.64 2.8V102zm-1.2-3.8l-1.8.26c-.56.07-.98.21-1.27.4-.28.2-.42.56-.42 1.06 0 .37.13.67.4.9.25.23.6.35 1.04.35.6 0 1.08-.21 1.47-.63.39-.42.58-.95.58-1.59v-.74zm6.95 3.73c-.29.15-.66.23-1.12.23-1.32 0-1.97-.73-1.97-2.2v-4.43h-1.3V94.5h1.3v-1.83l1.2-.39v2.22h1.89v1.03h-1.9v4.22c0 .5.1.86.26 1.08.17.21.46.32.85.32.3 0 .57-.08.79-.25v1.03zm3.08-10.6l-1.03 3.26h-.86l.81-3.27h1.08zm1.5 10.4v-1.29c.66.48 1.38.73 2.16.73 1.06 0 1.58-.36 1.58-1.06 0-.2-.04-.37-.13-.5a1.35 1.35 0 0 0-.37-.38c-.15-.1-.33-.2-.54-.29l-.67-.27a8.63 8.63 0 0 1-.87-.4 2.64 2.64 0 0 1-.63-.45c-.17-.17-.3-.36-.39-.57a2.03 2.03 0 0 1-.12-.76c0-.35.08-.66.24-.93.16-.27.37-.5.64-.68a3 3 0 0 1 .92-.42 4.3 4.3 0 0 1 2.8.2l.01 1.22a3.4 3.4 0 0 0-2.51-.47c-.18.05-.34.13-.47.22a1 1 0 0 0-.3.33.88.88 0 0 0-.1.43c0 .2.03.36.1.49s.18.25.31.35c.14.1.3.2.5.28l.67.27c.33.13.63.26.9.4.26.13.48.28.67.45.18.17.32.36.42.58.1.22.15.48.15.78 0 .37-.08.7-.24.97-.16.27-.38.5-.66.68a3 3 0 0 1-.94.4c-.36.1-.73.14-1.12.14-.77 0-1.44-.15-2-.45zm17.15.27h-1.2v-4.28c0-1.59-.58-2.39-1.74-2.39-.6 0-1.1.23-1.49.68-.4.45-.59 1.02-.59 1.71V102h-1.2v-7.5h1.2v1.25h.03a2.7 2.7 0 0 1 2.46-1.43c.82 0 1.45.27 1.88.8.44.53.65 1.3.65 2.3V102zm8.3-3.45h-5.3c.02.84.24 1.48.67 1.93.43.46 1.02.69 1.78.69.84 0 1.62-.28 2.33-.84v1.13c-.66.48-1.53.72-2.62.72-1.06 0-1.9-.34-2.5-1.03-.6-.68-.9-1.64-.9-2.87a4.1 4.1 0 0 1 .99-2.85 3.18 3.18 0 0 1 2.46-1.1c.98 0 1.74.31 2.28.95.54.63.8 1.51.8 2.64v.63zm-1.23-1.02c0-.7-.18-1.23-.5-1.62a1.7 1.7 0 0 0-1.38-.58c-.57 0-1.05.2-1.44.61-.4.4-.64.94-.73 1.6h4.05zm12.5-3.03l-2.26 7.5h-1.24l-1.55-5.37a3.5 3.5 0 0 1-.12-.7h-.02c-.02.18-.07.4-.16.69L213.1 102h-1.2l-2.27-7.5h1.26l1.55 5.64c.05.17.09.4.1.67h.07c.01-.21.05-.44.13-.69l1.73-5.62h1.1l1.55 5.65c.05.18.08.41.1.68h.07c0-.2.05-.42.12-.68l1.52-5.65h1.2z"/><g transform="translate(422 81)"><use fill="#FFFFFF" xlink:href="#a"/><rect width="183" height="29" x=".5" y=".5" stroke="#0C0C0D" stroke-opacity=".3" rx="2"/><path fill="#0C0C0D" d="M17.48 19.58v-1.45c.17.14.37.27.6.4a4.84 4.84 0 0 0 1.5.47c.26.05.5.07.72.07.76 0 1.33-.14 1.7-.42.37-.28.56-.69.56-1.21 0-.29-.06-.53-.19-.74a2.1 2.1 0 0 0-.51-.58 5.12 5.12 0 0 0-.78-.5l-.97-.5c-.37-.18-.71-.37-1.03-.56-.32-.2-.6-.4-.83-.63a2.41 2.41 0 0 1-.75-1.8c0-.48.1-.9.31-1.25.21-.36.49-.65.83-.88.34-.23.73-.4 1.17-.51.44-.11.88-.17 1.34-.17 1.03 0 1.79.13 2.26.37v1.39a4.1 4.1 0 0 0-2.39-.65c-.27 0-.54.03-.8.09-.27.05-.51.15-.72.27-.21.13-.38.3-.52.5-.13.2-.2.44-.2.73 0 .27.06.5.16.7.1.19.25.37.44.53.2.16.43.31.71.47l.97.5c.38.18.74.37 1.07.58.34.2.64.43.9.68.24.25.45.53.6.83.14.3.22.65.22 1.04 0 .52-.1.95-.3 1.31-.2.36-.48.65-.83.88-.34.22-.74.39-1.19.49a6.52 6.52 0 0 1-3.5-.2c-.23-.08-.41-.16-.55-.25zm14.53.42h-1.2v-4.32c0-1.56-.58-2.35-1.75-2.35a1.9 1.9 0 0 0-1.48.68c-.4.45-.6 1.03-.6 1.74V20h-1.2V8.9h1.2v4.85h.03a2.73 2.73 0 0 1 2.46-1.43c1.7 0 2.54 1.02 2.54 3.06V20zm5.4.18c-1.11 0-2-.35-2.66-1.06a3.9 3.9 0 0 1-1-2.78c0-1.26.35-2.25 1.04-2.95a3.71 3.71 0 0 1 2.8-1.07c1.1 0 1.98.35 2.6 1.04.64.69.95 1.64.95 2.86 0 1.2-.34 2.16-1.01 2.88a3.55 3.55 0 0 1-2.72 1.08zm.08-6.85c-.77 0-1.38.27-1.83.8a3.23 3.23 0 0 0-.67 2.16c0 .9.23 1.6.68 2.1.45.52 1.06.78 1.82.78a2.2 2.2 0 0 0 1.8-.76c.41-.5.62-1.22.62-2.15 0-.93-.2-1.66-.63-2.16a2.19 2.19 0 0 0-1.79-.77zm15.02-.83L50.26 20H49l-1.54-5.37a3.5 3.5 0 0 1-.12-.7h-.03c-.01.18-.06.4-.15.69L45.49 20h-1.2l-2.27-7.5h1.26l1.55 5.64c.05.17.09.4.1.67H45c.02-.21.06-.44.13-.68l1.73-5.63h1.1l1.55 5.65c.05.18.09.41.11.68h.06c.01-.2.05-.42.13-.68l1.52-5.65h1.19zm13.34 3.25c0 2.95-1.33 4.43-3.99 4.43-2.55 0-3.82-1.42-3.82-4.26V9.5h1.23v6.34c0 2.15.9 3.23 2.72 3.23 1.76 0 2.63-1.04 2.63-3.12V9.5h1.23v6.25zm3.7 3.17h-.04v4.53h-1.2V12.5h1.2v1.32h.03c.6-1 1.46-1.5 2.6-1.5.96 0 1.72.34 2.26 1.01.54.67.81 1.57.81 2.7 0 1.26-.3 2.26-.91 3.01a3.05 3.05 0 0 1-2.5 1.14 2.5 2.5 0 0 1-2.26-1.26zm-.04-3.03v1.05c0 .62.2 1.14.6 1.58a2 2 0 0 0 1.54.65c.73 0 1.3-.28 1.71-.84.42-.56.62-1.33.62-2.32 0-.84-.19-1.5-.58-1.96-.38-.48-.9-.72-1.56-.72-.7 0-1.26.25-1.69.73-.42.49-.64 1.1-.64 1.83zM83.53 20h-1.2v-1.27h-.03a2.77 2.77 0 0 1-2.58 1.45 2.8 2.8 0 0 1-2.25-1.01 4.13 4.13 0 0 1-.85-2.74c0-1.24.31-2.24.94-2.99a3.1 3.1 0 0 1 2.5-1.12c1.02 0 1.77.4 2.24 1.22h.03V8.9h1.2V20zm-1.2-3.4v-1.1c0-.6-.2-1.12-.6-1.54-.4-.42-.9-.63-1.52-.63-.73 0-1.31.27-1.73.81a3.53 3.53 0 0 0-.63 2.23c0 .86.2 1.54.6 2.04.4.5.95.76 1.63.76.67 0 1.2-.25 1.63-.73.41-.48.62-1.1.62-1.83zm9 3.4h-1.2v-1.17h-.03c-.52.9-1.29 1.35-2.3 1.35-.75 0-1.34-.2-1.76-.6-.42-.4-.63-.92-.63-1.57 0-1.4.82-2.22 2.47-2.45l2.25-.31c0-1.28-.51-1.92-1.54-1.92-.9 0-1.72.31-2.45.93v-1.23c.74-.47 1.59-.7 2.55-.7 1.76 0 2.64.93 2.64 2.8V20zm-1.2-3.8l-1.8.26c-.56.07-.98.21-1.27.4-.28.2-.42.56-.42 1.06 0 .37.13.67.4.9.25.23.6.35 1.03.35.6 0 1.1-.21 1.48-.63.39-.42.58-.95.58-1.59v-.74zm6.95 3.73c-.29.15-.66.23-1.12.23-1.32 0-1.98-.73-1.98-2.2v-4.43H92.7V12.5h1.28v-1.83l1.2-.39v2.22h1.9v1.03h-1.9v4.22c0 .5.1.86.26 1.08.17.21.46.32.85.32.3 0 .57-.08.79-.25v1.03zm7.63-3.38h-5.3c.02.84.25 1.48.68 1.93.43.46 1.02.69 1.77.69.84 0 1.62-.28 2.33-.84v1.13c-.66.48-1.53.72-2.62.72-1.06 0-1.89-.34-2.5-1.03-.6-.68-.9-1.64-.9-2.87a4.1 4.1 0 0 1 .99-2.85 3.18 3.18 0 0 1 2.46-1.1c.99 0 1.74.31 2.28.95.54.63.8 1.51.8 2.64v.63zm-1.23-1.02c0-.7-.18-1.23-.5-1.62a1.7 1.7 0 0 0-1.38-.58c-.56 0-1.05.2-1.44.61-.4.4-.64.94-.73 1.6h4.05zm15.2 4.47h-1.22v-4.79h-5.44V20h-1.23V9.5h1.23v4.6h5.44V9.5h1.23V20zm3.22-9.4a.76.76 0 0 1-.78-.78c0-.23.08-.41.23-.56a.75.75 0 0 1 .55-.22.78.78 0 0 1 .79.78c0 .21-.08.4-.23.55a.77.77 0 0 1-.56.23zm.58 9.4h-1.2v-7.5h1.2V20zm1.98-.27v-1.29c.66.48 1.38.73 2.16.73 1.06 0 1.58-.36 1.58-1.06 0-.2-.04-.37-.13-.5a1.35 1.35 0 0 0-.37-.38c-.15-.1-.33-.2-.54-.29l-.67-.27a8.63 8.63 0 0 1-.88-.4 2.64 2.64 0 0 1-.63-.45c-.16-.17-.3-.36-.38-.57a2.03 2.03 0 0 1-.12-.76c0-.35.08-.66.24-.93.16-.27.37-.5.64-.68a3 3 0 0 1 .92-.42 4.3 4.3 0 0 1 2.8.2l.01 1.22a3.4 3.4 0 0 0-2.51-.47c-.18.05-.34.13-.47.22a1 1 0 0 0-.3.33.88.88 0 0 0-.1.43c0 .2.03.36.1.49s.18.25.31.35c.14.1.3.2.5.28l.67.27c.33.13.63.26.9.4.26.13.48.28.67.45.18.17.32.36.42.58.1.22.15.48.15.78 0 .37-.08.7-.24.97-.16.27-.38.5-.66.68a3 3 0 0 1-.94.4c-.36.1-.73.14-1.12.14-.77 0-1.44-.15-2-.45zm10.3.2c-.28.15-.66.23-1.12.23-1.32 0-1.97-.73-1.97-2.2v-4.43h-1.3V12.5h1.3v-1.83l1.2-.39v2.22h1.89v1.03h-1.9v4.22c0 .5.1.86.27 1.08.17.21.45.32.85.32.3 0 .56-.08.78-.25v1.03zm4.74.25c-1.11 0-2-.35-2.66-1.06a3.9 3.9 0 0 1-.99-2.78c0-1.26.34-2.25 1.03-2.95a3.71 3.71 0 0 1 2.8-1.07c1.11 0 1.98.35 2.61 1.04.63.69.94 1.64.94 2.86 0 1.2-.34 2.16-1.01 2.88a3.55 3.55 0 0 1-2.72 1.08zm.09-6.85c-.78 0-1.39.27-1.84.8a3.23 3.23 0 0 0-.67 2.16c0 .9.23 1.6.68 2.1.46.52 1.06.78 1.83.78a2.2 2.2 0 0 0 1.79-.76c.41-.5.62-1.22.62-2.15 0-.93-.2-1.66-.62-2.16a2.19 2.19 0 0 0-1.8-.77zm9.47.39a1.47 1.47 0 0 0-.9-.25c-.52 0-.95.25-1.3.73a3.35 3.35 0 0 0-.5 1.98V20h-1.2v-7.5h1.2v1.55h.02c.17-.53.43-.94.79-1.24.35-.3.74-.44 1.18-.44.3 0 .55.03.71.1v1.25zm7.28-1.22l-3.45 8.7c-.62 1.55-1.48 2.33-2.6 2.33-.3 0-.57-.03-.78-.1v-1.07c.26.09.5.13.71.13.6 0 1.06-.36 1.36-1.08l.6-1.42-2.93-7.49h1.34l2.03 5.77.15.57h.04l.15-.55 2.13-5.79h1.25zm9.24 7.63a.77.77 0 0 1-.57-.23.78.78 0 0 1-.23-.57c0-.23.08-.42.23-.59a.75.75 0 0 1 .57-.24c.22 0 .4.08.57.24a.8.8 0 0 1 .23.59c0 .22-.07.41-.23.57a.78.78 0 0 1-.57.23zm-3.68 0a.79.79 0 0 1-.57-.23.77.77 0 0 1-.24-.57.8.8 0 0 1 .24-.59.77.77 0 0 1 .57-.24c.22 0 .41.08.57.24a.8.8 0 0 1 .24.59c0 .22-.08.41-.24.57a.78.78 0 0 1-.57.23zm-3.67 0a.79.79 0 0 1-.8-.8c0-.23.08-.42.23-.59a.74.74 0 0 1 .57-.24c.22 0 .4.08.56.24a.8.8 0 0 1 .24.59c0 .22-.08.41-.23.57a.78.78 0 0 1-.57.23z"/></g><path fill="#0C0C0D" d="M3.43 8.9v5.8h5.63V16H3.43v7H2V7.6h7.5v1.3H3.44zm9.5.32c-.26 0-.5-.1-.68-.28a.94.94 0 0 1-.3-.71c0-.28.1-.51.3-.7.19-.18.42-.27.68-.27.14 0 .27.03.39.07a.93.93 0 0 1 .53.5c.06.13.08.26.08.4a1 1 0 0 1-.07.39.92.92 0 0 1-.22.31c-.1.1-.2.16-.31.21a1 1 0 0 1-.4.08zM12.26 23V12h1.37v11h-1.37zm10.37-9.6a2.05 2.05 0 0 0-1.24-.35c-.37 0-.69.07-.97.21-.28.14-.52.33-.73.57a3.4 3.4 0 0 0-.54.82 5.73 5.73 0 0 0-.55 2 8.6 8.6 0 0 0-.06.97V23h-1.36V12h1.36v2.35h.04c.13-.4.3-.76.5-1.08.19-.32.42-.58.67-.8a2.85 2.85 0 0 1 2.88-.5v1.44zm2.66 4.35c0 .67.1 1.28.27 1.81.17.54.41 1 .74 1.37.32.37.71.65 1.17.85.47.2.99.3 1.57.3a5.6 5.6 0 0 0 3.5-1.3v1.35a6.4 6.4 0 0 1-5.82.74 4.17 4.17 0 0 1-1.54-1.12c-.42-.5-.75-1.1-.98-1.81a8.03 8.03 0 0 1 .03-4.74c.26-.7.6-1.3 1.05-1.82a4.58 4.58 0 0 1 3.58-1.64c.7 0 1.33.13 1.87.37.55.25 1 .6 1.37 1.06.37.46.65 1.02.85 1.68.19.66.29 1.4.29 2.21v.69h-7.95zm6.53-1.2a4.19 4.19 0 0 0-.82-2.67 2.68 2.68 0 0 0-2.18-.95c-.46 0-.9.09-1.3.25-.4.17-.74.4-1.04.72-.3.3-.55.69-.75 1.13-.2.45-.33.96-.41 1.51h6.5zM41.06 8c-.31-.2-.7-.3-1.2-.3-1.28 0-1.93.85-1.93 2.53V12h2.74v1.2h-2.74V23h-1.37v-9.8h-1.93V12h1.93v-1.85c0-.55.07-1.05.2-1.5.14-.44.35-.83.62-1.15.27-.31.62-.56 1.03-.73.41-.17.88-.26 1.42-.26.52 0 .93.07 1.23.2v1.3zm5.85 15.25c-.82 0-1.55-.14-2.2-.41a4.7 4.7 0 0 1-2.7-2.94 6.94 6.94 0 0 1-.37-2.31c0-.92.13-1.74.38-2.46a4.7 4.7 0 0 1 2.83-3c.67-.27 1.42-.4 2.25-.4.8 0 1.52.13 2.15.4.64.26 1.18.63 1.63 1.13.44.5.78 1.1 1.02 1.8.23.71.35 1.52.35 2.42 0 .86-.12 1.64-.37 2.35a5.3 5.3 0 0 1-1.06 1.82c-.46.5-1.02.9-1.67 1.18-.66.28-1.4.42-2.24.42zm.1-10.33c-.6 0-1.14.1-1.62.32-.5.2-.9.5-1.26.9-.34.4-.61.89-.8 1.46a6.37 6.37 0 0 0-.28 1.97c0 .68.1 1.3.28 1.85.19.56.45 1.03.8 1.42.33.4.75.7 1.23.9.5.22 1.04.33 1.64.33.61 0 1.16-.1 1.63-.31.47-.2.87-.5 1.2-.9.33-.38.58-.86.75-1.43.17-.56.25-1.2.25-1.93 0-1.48-.33-2.61-.99-3.4a3.48 3.48 0 0 0-2.82-1.18zM58.9 17.6L62.5 23h-1.65l-2.23-3.64a104.94 104.94 0 0 1-.54-.88h-.04l-.17.28-.27.45L55.2 23h-1.63l3.72-5.38-3.6-5.62h1.6l2.29 3.86a23.5 23.5 0 0 1 .51.9h.05l.25-.41.25-.43L61.07 12h1.55l-3.72 5.59zm22.94-.78c0 4.3-1.89 6.46-5.67 6.46-3.6 0-5.4-2.07-5.4-6.22V7.6h1.43v9.32c0 1.69.34 2.95 1.02 3.8.68.83 1.73 1.25 3.16 1.25 2.69 0 4.04-1.63 4.04-4.9V7.6h1.42v9.21zm4.96 4.42v6.83h-1.38V12h1.38v2.1h.04a4.37 4.37 0 0 1 3.95-2.36c.7 0 1.33.13 1.89.38a3.9 3.9 0 0 1 1.4 1.08c.39.47.68 1.03.89 1.7.2.67.3 1.41.3 2.25 0 .9-.11 1.73-.34 2.48-.23.75-.56 1.4-.99 1.93a4.49 4.49 0 0 1-3.63 1.7c-1.55 0-2.7-.68-3.47-2.03h-.04zm0-2.8a3.92 3.92 0 0 0 .95 2.57 3.27 3.27 0 0 0 2.5 1.08 3.17 3.17 0 0 0 2.63-1.35c.31-.43.55-.95.72-1.55a7.66 7.66 0 0 0 .02-3.8 3.95 3.95 0 0 0-.67-1.32 2.9 2.9 0 0 0-1.06-.84 3.65 3.65 0 0 0-2.93.03c-.45.21-.84.5-1.16.87-.33.36-.57.79-.75 1.28a4.7 4.7 0 0 0-.25 1.56v1.46zM105.76 23v-1.93h-.05a3.9 3.9 0 0 1-1.56 1.61 4.6 4.6 0 0 1-2.3.58 4.5 4.5 0 0 1-1.88-.38 4.02 4.02 0 0 1-1.44-1.1 5.12 5.12 0 0 1-.93-1.74 7.54 7.54 0 0 1-.33-2.31c0-.9.12-1.7.36-2.44.24-.73.58-1.36 1.02-1.89a4.58 4.58 0 0 1 3.66-1.66c1.58 0 2.72.64 3.4 1.9h.05V6.71h1.37V23h-1.37zm0-6.64a3.6 3.6 0 0 0-.94-2.43 3.21 3.21 0 0 0-2.41-1c-.55 0-1.05.11-1.5.33-.47.21-.86.52-1.18.93-.33.4-.58.9-.77 1.47a6.58 6.58 0 0 0-.27 1.98c0 .7.08 1.32.25 1.87.16.55.4 1.02.7 1.4a3.08 3.08 0 0 0 2.5 1.17c.56 0 1.06-.1 1.5-.3.45-.2.83-.48 1.14-.83.32-.35.56-.76.72-1.24.17-.47.26-.97.26-1.51v-1.84zM117 23v-1.96h-.04a3.88 3.88 0 0 1-3.57 2.21c-.52 0-1-.07-1.43-.22a2.81 2.81 0 0 1-1.77-1.63 3.3 3.3 0 0 1-.24-1.28c0-1 .3-1.79.92-2.38.62-.59 1.55-.97 2.8-1.15l3.33-.49c0-2.1-.82-3.17-2.46-3.17-1.28 0-2.47.47-3.56 1.41v-1.5c.23-.17.49-.32.78-.45a7.16 7.16 0 0 1 2.9-.65c1.23 0 2.15.35 2.78 1.03.63.7.94 1.72.94 3.08V23h-1.38zm-2.83-5.34c-.5.07-.92.16-1.27.27-.35.1-.64.25-.87.43-.23.19-.4.41-.5.68a2.69 2.69 0 0 0 0 1.81c.1.25.24.47.44.65.2.18.44.33.72.43a3.2 3.2 0 0 0 4.06-2.08c.17-.47.25-.96.25-1.5v-1.09l-2.83.4zm12.24 5.21c-.47.24-.98.36-1.54.36-1.78 0-2.67-1.03-2.67-3.08V13.2h-1.93V12h1.93V9.23l1.38-.45V12h2.83v1.2h-2.83v6.74c0 .74.12 1.28.36 1.61.25.33.66.5 1.24.5.43 0 .84-.13 1.23-.4v1.22zm2.93-5.12c0 .67.1 1.28.27 1.81.17.54.41 1 .74 1.37.32.37.71.65 1.17.85.46.2.99.3 1.57.3a5.6 5.6 0 0 0 3.5-1.3v1.35a6.4 6.4 0 0 1-5.82.74 4.17 4.17 0 0 1-1.54-1.12c-.42-.5-.75-1.1-.98-1.81a8.03 8.03 0 0 1 .03-4.74c.25-.7.6-1.3 1.05-1.82a4.58 4.58 0 0 1 3.58-1.64c.7 0 1.33.13 1.87.37.55.25 1 .6 1.37 1.06.37.46.65 1.02.85 1.68.19.66.29 1.4.29 2.21v.69h-7.95zm6.53-1.2a4.19 4.19 0 0 0-.82-2.67 2.68 2.68 0 0 0-2.18-.95c-.46 0-.9.09-1.3.25-.4.17-.74.4-1.04.72-.3.3-.55.69-.75 1.13-.2.45-.33.96-.41 1.51h6.5zm3.49 4.47a4.4 4.4 0 0 0 1.43.78 4.73 4.73 0 0 0 1.52.28c1.64 0 2.45-.62 2.45-1.84 0-.28-.05-.52-.17-.73a1.9 1.9 0 0 0-.5-.55 4.13 4.13 0 0 0-.77-.47c-.3-.14-.64-.3-1.02-.45-.5-.21-.94-.42-1.3-.64a3.97 3.97 0 0 1-.91-.7 2.54 2.54 0 0 1-.7-1.87c0-.5.1-.93.32-1.3.21-.38.5-.7.85-.97.36-.27.77-.47 1.24-.6a5.46 5.46 0 0 1 3.97.33v1.44a4.83 4.83 0 0 0-2.66-.8c-.35 0-.66.05-.94.13-.28.09-.53.21-.73.37a1.58 1.58 0 0 0-.63 1.29 1.56 1.56 0 0 0 .53 1.27c.18.16.42.32.71.47.29.15.64.31 1.06.48.53.22.99.43 1.37.64.39.21.7.44.96.69a2.42 2.42 0 0 1 .74 1.88 2.79 2.79 0 0 1-1.15 2.3c-.37.27-.79.47-1.28.6a5.9 5.9 0 0 1-1.59.2 5.27 5.27 0 0 1-2.8-.69v-1.54z"/><g transform="translate(422 119)"><use fill="#FFFFFF" xlink:href="#b"/><rect width="183" height="29" x=".5" y=".5" stroke="#0C0C0D" stroke-opacity=".3" rx="2"/><path fill="#0C0C0D" d="M39.62 19.56c-.77.41-1.74.62-2.9.62-1.49 0-2.69-.49-3.58-1.45a5.32 5.32 0 0 1-1.35-3.78c0-1.68.5-3.04 1.51-4.08a5.15 5.15 0 0 1 3.85-1.55c1 0 1.82.15 2.47.43v1.31a5.02 5.02 0 0 0-2.49-.63c-1.2 0-2.18.4-2.93 1.21a4.55 4.55 0 0 0-1.12 3.23c0 1.28.35 2.3 1.05 3.06.7.76 1.62 1.14 2.76 1.14 1.05 0 1.96-.23 2.73-.7v1.2zm8.2.44h-1.2v-4.32c0-1.56-.57-2.35-1.74-2.35a1.9 1.9 0 0 0-1.48.68c-.4.45-.6 1.03-.6 1.74V20h-1.2V8.9h1.2v4.85h.03a2.73 2.73 0 0 1 2.46-1.43c1.7 0 2.54 1.02 2.54 3.06V20zm8.3-3.45h-5.3c.02.84.25 1.48.68 1.93.43.46 1.02.69 1.77.69.84 0 1.62-.28 2.33-.84v1.13c-.66.48-1.53.72-2.62.72-1.06 0-1.89-.34-2.5-1.03-.6-.68-.9-1.64-.9-2.87a4.1 4.1 0 0 1 1-2.85 3.18 3.18 0 0 1 2.46-1.1c.98 0 1.74.31 2.27.95.54.63.8 1.51.8 2.64v.63zm-1.23-1.02c0-.7-.17-1.23-.5-1.62a1.7 1.7 0 0 0-1.38-.58c-.56 0-1.04.2-1.44.61-.4.4-.64.94-.73 1.6h4.05zm8.16 4.13a3.9 3.9 0 0 1-2.05.52 3.4 3.4 0 0 1-2.6-1.05c-.65-.7-.98-1.6-.98-2.7 0-1.24.36-2.23 1.06-2.98a3.72 3.72 0 0 1 2.84-1.13c.66 0 1.24.13 1.74.37v1.23a3.05 3.05 0 0 0-1.79-.59c-.76 0-1.39.28-1.88.83-.5.55-.74 1.27-.74 2.16 0 .88.23 1.58.7 2.08.46.51 1.08.77 1.85.77.66 0 1.27-.22 1.85-.66v1.15zm8.04.34H69.4l-3.3-3.6h-.04V20h-1.2V8.9h1.2v7.04h.03l3.15-3.44h1.58l-3.48 3.62L71.09 20zm9.04-10.05a1.6 1.6 0 0 0-.8-.2c-.83 0-1.25.53-1.25 1.6v1.15h1.75v1.03h-1.75V20h-1.2v-6.47H75.6V12.5h1.28v-1.22c0-.78.23-1.4.68-1.86a2.3 2.3 0 0 1 1.7-.68c.37 0 .66.04.87.13v1.08zm4.13 10.23c-1.11 0-2-.35-2.66-1.06a3.9 3.9 0 0 1-.99-2.78c0-1.26.35-2.25 1.03-2.95a3.71 3.71 0 0 1 2.8-1.07c1.11 0 1.99.35 2.61 1.04.63.69.94 1.64.94 2.86 0 1.2-.33 2.16-1.01 2.88a3.55 3.55 0 0 1-2.72 1.08zm.09-6.85c-.78 0-1.39.27-1.83.8a3.23 3.23 0 0 0-.68 2.16c0 .9.23 1.6.68 2.1.46.52 1.06.78 1.83.78a2.2 2.2 0 0 0 1.79-.76c.41-.5.62-1.22.62-2.15 0-.93-.2-1.66-.62-2.16a2.19 2.19 0 0 0-1.8-.77zm9.47.39a1.47 1.47 0 0 0-.9-.25c-.52 0-.95.25-1.29.73a3.35 3.35 0 0 0-.52 1.98V20h-1.2v-7.5h1.2v1.55h.03c.17-.53.44-.94.79-1.24.35-.3.74-.44 1.18-.44.3 0 .55.03.71.1v1.25zm13.26 2.03c0 2.95-1.33 4.43-4 4.43-2.54 0-3.81-1.42-3.81-4.26V9.5h1.23v6.34c0 2.15.9 3.23 2.72 3.23 1.75 0 2.63-1.04 2.63-3.12V9.5h1.23v6.25zm3.7 3.17h-.04v4.53h-1.2V12.5h1.2v1.32h.03c.6-1 1.46-1.5 2.6-1.5.96 0 1.72.34 2.26 1.01.54.67.81 1.57.81 2.7 0 1.26-.3 2.26-.91 3.01a3.05 3.05 0 0 1-2.5 1.14 2.5 2.5 0 0 1-2.26-1.26zm-.04-3.03v1.05c0 .62.2 1.14.6 1.58a2 2 0 0 0 1.54.65c.73 0 1.3-.28 1.71-.84.41-.56.62-1.33.62-2.32 0-.84-.2-1.5-.58-1.96-.38-.48-.9-.72-1.57-.72-.7 0-1.26.25-1.68.73-.42.49-.64 1.1-.64 1.83zM124.76 20h-1.2v-1.27h-.03a2.77 2.77 0 0 1-2.58 1.45 2.8 2.8 0 0 1-2.26-1.01 4.13 4.13 0 0 1-.84-2.74c0-1.24.31-2.24.93-2.99a3.1 3.1 0 0 1 2.5-1.12c1.03 0 1.78.4 2.25 1.22h.03V8.9h1.2V20zm-1.2-3.4v-1.1c0-.6-.2-1.12-.6-1.54-.4-.42-.9-.63-1.52-.63-.74 0-1.31.27-1.73.81a3.53 3.53 0 0 0-.63 2.23c0 .86.2 1.54.6 2.04.4.5.95.76 1.62.76.67 0 1.22-.25 1.63-.73.42-.48.63-1.1.63-1.83zm9 3.4h-1.2v-1.17h-.03c-.52.9-1.29 1.35-2.3 1.35-.75 0-1.34-.2-1.76-.6-.42-.4-.63-.92-.63-1.57 0-1.4.82-2.22 2.47-2.45l2.25-.31c0-1.28-.51-1.92-1.55-1.92-.9 0-1.71.31-2.44.93v-1.23c.74-.47 1.59-.7 2.55-.7 1.76 0 2.64.93 2.64 2.8V20zm-1.2-3.8l-1.8.26c-.57.07-.99.21-1.27.4-.28.2-.42.56-.42 1.06 0 .37.13.67.39.9.26.23.6.35 1.04.35.6 0 1.09-.21 1.48-.63.39-.42.58-.95.58-1.59v-.74zm6.94 3.73c-.28.15-.65.23-1.12.23-1.31 0-1.97-.73-1.97-2.2v-4.43h-1.29V12.5h1.3v-1.83l1.2-.39v2.22h1.88v1.03h-1.89v4.22c0 .5.09.86.26 1.08.17.21.45.32.85.32.3 0 .56-.08.78-.25v1.03zm7.64-3.38h-5.3c.02.84.24 1.48.67 1.93.43.46 1.02.69 1.78.69.84 0 1.62-.28 2.33-.84v1.13c-.66.48-1.54.72-2.62.72-1.06 0-1.9-.34-2.5-1.03-.6-.68-.9-1.64-.9-2.87a4.1 4.1 0 0 1 .99-2.85 3.18 3.18 0 0 1 2.46-1.1c.98 0 1.74.31 2.28.95.54.63.8 1.51.8 2.64v.63zm-1.23-1.02c-.01-.7-.18-1.23-.5-1.62a1.7 1.7 0 0 0-1.38-.58c-.57 0-1.05.2-1.44.61-.4.4-.64.94-.74 1.6h4.06zm2.59 4.2v-1.29c.65.48 1.37.73 2.16.73 1.05 0 1.58-.36 1.58-1.06 0-.2-.04-.37-.13-.5a1.35 1.35 0 0 0-.37-.38c-.15-.1-.34-.2-.54-.29l-.67-.27a8.63 8.63 0 0 1-.88-.4 2.64 2.64 0 0 1-.63-.45c-.17-.17-.3-.36-.38-.57a2.03 2.03 0 0 1-.13-.76c0-.35.08-.66.24-.93.17-.27.38-.5.65-.68a3 3 0 0 1 .92-.42 4.3 4.3 0 0 1 2.8.2v1.22a3.4 3.4 0 0 0-2.5-.47c-.19.05-.34.13-.47.22a1 1 0 0 0-.3.33.88.88 0 0 0-.1.43c0 .2.03.36.1.49s.17.25.31.35c.14.1.3.2.5.28l.66.27c.34.13.63.26.9.4.26.13.49.28.67.45.19.17.33.36.43.58.1.22.15.48.15.78 0 .37-.08.7-.24.97-.17.27-.39.5-.66.68a3 3 0 0 1-.94.4c-.36.1-.73.14-1.13.14-.77 0-1.44-.15-2-.45z"/></g><path fill="#0C0C0D" d="M34.97 130.98h-3.93v3.15h3.62v1.48h-3.62V140H29.3v-10.5h5.67v1.48zm2.53-.05c-.28 0-.52-.1-.71-.28a.9.9 0 0 1-.3-.68c0-.28.1-.51.3-.7a1 1 0 0 1 .71-.28c.29 0 .53.1.73.28.2.19.3.42.3.7a.9.9 0 0 1-.3.67c-.2.2-.44.29-.73.29zm.84 9.07h-1.7v-7.5h1.7v7.5zm6.57-5.88a1.4 1.4 0 0 0-.88-.24c-.5 0-.93.22-1.26.68-.34.45-.51 1.07-.51 1.85V140h-1.7v-7.5h1.7v1.55h.03c.17-.53.42-.94.76-1.24.35-.3.73-.44 1.16-.44.3 0 .54.04.7.14v1.6zm7.55 2.6h-5.1c.01.68.22 1.22.63 1.6.4.37.97.56 1.68.56.8 0 1.54-.24 2.2-.72v1.37c-.68.43-1.58.65-2.7.65-1.1 0-1.97-.34-2.6-1.03a4.09 4.09 0 0 1-.94-2.87 4 4 0 0 1 1.04-2.85c.69-.74 1.54-1.1 2.57-1.1 1.03 0 1.82.32 2.38.98.56.66.84 1.58.84 2.75v.65zm-1.64-1.21c0-.61-.15-1.08-.43-1.42-.28-.34-.67-.51-1.17-.51-.49 0-.9.17-1.24.53-.34.36-.55.82-.63 1.4h3.47zm7.5-5.23c-.23-.13-.49-.2-.78-.2-.83 0-1.24.47-1.24 1.4v1.02h1.74v1.33h-1.73V140h-1.7v-6.17h-1.28v-1.33h1.28v-1.22c0-.79.26-1.41.78-1.87a2.83 2.83 0 0 1 1.94-.68c.42 0 .75.04 1 .14v1.41zm4.26 9.9a3.72 3.72 0 0 1-2.77-1.06 3.8 3.8 0 0 1-1.04-2.78c0-1.26.36-2.25 1.08-2.95.72-.71 1.69-1.07 2.91-1.07a3.6 3.6 0 0 1 2.74 1.04c.65.69.98 1.64.98 2.86 0 1.2-.35 2.16-1.06 2.88a3.8 3.8 0 0 1-2.84 1.08zm.08-6.5c-.67 0-1.2.23-1.58.7-.38.46-.58 1.1-.58 1.91 0 .79.2 1.4.6 1.86.38.45.9.68 1.56.68.67 0 1.18-.22 1.54-.67.36-.44.54-1.08.54-1.9a3 3 0 0 0-.54-1.9 1.86 1.86 0 0 0-1.54-.68zm11.82-1.18l-2.5 3.8 2.47 3.7h-1.97l-1.32-2.32-.3-.54h-.02l-.3.54-1.35 2.32h-1.96l2.55-3.68-2.42-3.82h1.98l1.3 2.44.28.56h.02l1.68-3h1.86zm6.23-1.57c-.28 0-.52-.1-.72-.28a.9.9 0 0 1-.3-.68c0-.28.1-.51.3-.7a1 1 0 0 1 .72-.28c.28 0 .53.1.73.28.2.19.3.42.3.7a.9.9 0 0 1-.3.67c-.2.2-.45.29-.73.29zm.84 9.07h-1.7v-7.5h1.7v7.5zm1.75-.23v-1.58c.63.48 1.33.73 2.1.73 1.03 0 1.54-.3 1.54-.91a.72.72 0 0 0-.13-.44c-.1-.12-.21-.22-.36-.32a2.8 2.8 0 0 0-.53-.25l-.67-.24c-.31-.13-.59-.26-.84-.4-.24-.13-.45-.28-.61-.46a1.76 1.76 0 0 1-.37-.59 2.17 2.17 0 0 1-.12-.77c0-.36.08-.68.25-.95.17-.28.4-.51.69-.7.29-.19.62-.33.98-.42a5.16 5.16 0 0 1 3 .17v1.49a3.14 3.14 0 0 0-2.4-.48c-.17.04-.32.1-.44.18a.9.9 0 0 0-.29.28.67.67 0 0 0-.1.37c0 .16.03.3.1.4.07.12.17.22.3.3.14.09.3.17.49.24l.65.23c.32.13.6.27.86.4.26.14.48.3.66.47a1.82 1.82 0 0 1 .56 1.4c0 .39-.09.72-.26 1a2.2 2.2 0 0 1-.7.7c-.3.2-.64.33-1.02.42-.38.1-.79.14-1.21.14a5.1 5.1 0 0 1-2.13-.41zm17.6.23h-1.7v-1.19h-.03c-.5.91-1.26 1.37-2.3 1.37-1.77 0-2.66-1.07-2.66-3.2v-4.48h1.7v4.3c0 1.35.52 2.03 1.56 2.03.5 0 .92-.19 1.24-.56.33-.37.49-.86.49-1.46v-4.31h1.7v7.5zm3.94-1.1h-.03v4.55h-1.7V132.5h1.7v1.32h.03c.58-1 1.43-1.5 2.55-1.5.95 0 1.7.34 2.22 1 .54.68.8 1.58.8 2.7 0 1.25-.3 2.25-.9 3a2.98 2.98 0 0 1-2.46 1.13c-.96 0-1.7-.42-2.21-1.26zm-.05-2.96v.93c0 .54.18 1 .53 1.39.35.38.79.57 1.33.57.63 0 1.12-.25 1.48-.74.36-.49.54-1.17.54-2.05a2.7 2.7 0 0 0-.5-1.73 1.65 1.65 0 0 0-1.36-.63c-.6 0-1.1.21-1.46.64-.37.43-.56.97-.56 1.62zm15.44 3.98c-.34.17-.77.25-1.31.25-1.46 0-2.19-.7-2.19-2.1v-4.24h-1.25v-1.33h1.25v-1.74l1.7-.48v2.22h1.8v1.33h-1.8v3.75c0 .45.08.76.24.96.16.19.43.28.8.28.3 0 .55-.08.76-.25v1.35zm4.79.26a3.72 3.72 0 0 1-2.78-1.06 3.8 3.8 0 0 1-1.03-2.78c0-1.26.36-2.25 1.08-2.95.72-.71 1.69-1.07 2.91-1.07a3.6 3.6 0 0 1 2.74 1.04c.65.69.98 1.64.98 2.86 0 1.2-.35 2.16-1.06 2.88a3.8 3.8 0 0 1-2.84 1.08zm.08-6.5c-.67 0-1.2.23-1.58.7-.38.46-.58 1.1-.58 1.91 0 .79.2 1.4.59 1.86.39.45.91.68 1.57.68.67 0 1.18-.22 1.54-.67.36-.44.54-1.08.54-1.9a3 3 0 0 0-.54-1.9 1.86 1.86 0 0 0-1.54-.68zm16.5 6.32h-1.7v-1.27h-.04a2.71 2.71 0 0 1-2.52 1.45c-.93 0-1.67-.34-2.22-1.01a4.18 4.18 0 0 1-.83-2.74c0-1.24.3-2.24.92-2.99a3 3 0 0 1 2.45-1.12c1 0 1.74.4 2.2 1.22h.03v-4.64h1.7V140zm-1.69-3.43v-.98c0-.53-.17-.98-.52-1.35a1.73 1.73 0 0 0-1.32-.56c-.64 0-1.14.24-1.5.71a3.17 3.17 0 0 0-.55 1.97c0 .76.18 1.36.53 1.8.35.45.82.67 1.4.67.59 0 1.06-.22 1.42-.64.36-.43.54-.97.54-1.62zm9.66 3.43h-1.65v-1.17h-.03a2.48 2.48 0 0 1-2.28 1.35 2.4 2.4 0 0 1-1.73-.6 2.1 2.1 0 0 1-.63-1.6c0-1.41.82-2.24 2.45-2.47l2.23-.31c0-1.07-.51-1.6-1.53-1.6-.89 0-1.7.3-2.41.91v-1.48c.79-.47 1.7-.7 2.74-.7 1.89 0 2.84.93 2.84 2.8V140zm-1.64-3.68l-1.58.22a2.5 2.5 0 0 0-1.1.35c-.25.17-.37.48-.37.91a1 1 0 0 0 .34.78c.23.2.53.3.91.3.52 0 .95-.18 1.29-.54.34-.36.5-.82.5-1.37v-.65zm7.67 3.6c-.34.17-.77.25-1.32.25-1.45 0-2.18-.7-2.18-2.1v-4.24h-1.25v-1.33h1.25v-1.74l1.7-.48v2.22h1.8v1.33h-1.8v3.75c0 .45.08.76.24.96.16.19.43.28.8.28.3 0 .55-.08.76-.25v1.35zm7.81-3.2h-5.11c.02.68.23 1.22.64 1.6.4.37.97.56 1.68.56.8 0 1.54-.24 2.2-.72v1.37c-.68.43-1.58.65-2.7.65-1.1 0-1.97-.34-2.6-1.03a4.09 4.09 0 0 1-.94-2.87 4 4 0 0 1 1.03-2.85c.7-.74 1.55-1.1 2.58-1.1 1.02 0 1.82.32 2.38.98.56.66.84 1.58.84 2.75v.65zm-1.64-1.21c0-.61-.15-1.08-.43-1.42-.29-.34-.68-.51-1.17-.51-.5 0-.9.17-1.25.53-.34.36-.54.82-.62 1.4h3.47z"/><g transform="translate(0 124.8)"><path fill="#FFBF49" d="M9.95 0A9.03 9.03 0 0 0 .92 9.03l.01.4a1.07 1.07 0 0 0 .14 2.13h.21A9.04 9.04 0 1 0 9.95 0"/><path fill="#323B59" d="M14.44 5.9c.55 0 1 .44 1 .99V9.1c0 .55-.45.12-1 .12s-.99.42-.99-.12V6.89c0-.55.45-1 1-1"/><path fill="#FFA500" d="M13.54 9.66a.31.31 0 0 1-.14-.59 2.36 2.36 0 0 1 2.08-.03.3.3 0 0 1 .14.41.3.3 0 0 1-.41.15 1.75 1.75 0 0 0-1.53.02.28.28 0 0 1-.14.04"/><path fill="#323B59" d="M5.46 5.9c.55 0 .99.44.99.99V9.1c0 .55-.44.12-.99.12s-.99.42-.99-.12V6.89c0-.55.45-1 .99-1"/><path fill="#FFA500" d="M4.56 9.66a.31.31 0 0 1-.14-.59 2.36 2.36 0 0 1 2.07-.03.3.3 0 0 1 .15.41.3.3 0 0 1-.41.15 1.75 1.75 0 0 0-1.53.02.3.3 0 0 1-.14.04"/><path fill="#323B59" d="M16.06 11.62l-.62-.05c-.06.02-.21.06-.45.1-.3.04-.73.15-1.25.2-.51.04-1.12.14-1.76.17-.65.04-1.33.05-2.03.06-.68-.01-1.37-.02-2.02-.07-.65-.03-1.25-.12-1.76-.17-.52-.04-.95-.15-1.25-.2l-.45-.09a30.35 30.35 0 0 0-.7.07.17.17 0 0 0-.04.23l.1.17a7.67 7.67 0 0 0 1.54 1.75c.5.45 1.01.78 1.53 1.06l.41.19c.78-.55 1.68.2 2.64.2.97 0 1.87-.74 2.64-.2.14-.05.28-.1.42-.18a8.34 8.34 0 0 0 3.06-2.82l.1-.18c.02-.02.03-.04.03-.07a.16.16 0 0 0-.14-.17"/><path fill="#FFFFFF" d="M6.17 11.86c.51.05 1.12.14 1.76.17.65.05 1.33.06 2.02.07.7-.01 1.38-.02 2.03-.06.65-.04 1.25-.13 1.76-.17.52-.05.95-.15 1.25-.2.24-.04.4-.08.45-.1l-.9-.05-1.53-.06c-1.02-.03-2.04-.03-3.06-.05-1.02.02-2.04.02-3.05.05l-1.53.06-.9.05c.05.02.21.06.45.1.3.04.73.15 1.25.2"/><path fill="#FFA500" d="M18.96 9.43v-.4c0-2.42-.94-4.6-2.48-6.22A9.27 9.27 0 0 1 3.72 15.57a9.02 9.02 0 0 0 14.87-4l.22-.01c.6 0 1.08-.48 1.08-1.07 0-.55-.4-1-.93-1.06"/><path fill="#FF7664" d="M12.58 15.05h.01c-.77-.55-1.68-.37-2.64-.25-.96-.12-1.87-.3-2.64.25.87.39 1.73.57 2.6.58H10c.86 0 1.73-.2 2.6-.58h-.02"/></g></g><g fill="#ED00B5" transform="translate(22 236)"><path d="M2.54 7.38h3.08v.85H2.54v2.93h3.77V12h-4.8V3.73h4.7l-.13.87H2.54v2.78zm10.4-1.46c.23.25.35.71.35 1.38V12h-.93V7.46c0-.44-.02-.73-.08-.89-.06-.16-.2-.23-.4-.23-.42 0-.78.25-1.11.75V12h-.94V7.46c0-.44-.03-.73-.08-.89-.06-.16-.2-.23-.41-.23-.4 0-.78.25-1.1.75V12H7.3V5.68h.78l.07.74c.2-.28.4-.5.61-.65.21-.15.47-.23.76-.23.6 0 .97.28 1.14.84.2-.27.4-.48.61-.62.22-.14.48-.22.78-.22.36 0 .66.13.89.38zm6.78 2.91c0 1-.2 1.8-.62 2.4-.42.6-1.02.9-1.81.9-.69 0-1.25-.24-1.68-.72v3.01l-1.01.12V5.68h.86l.09.88c.23-.32.5-.58.83-.75.33-.18.68-.27 1.05-.27 1.53 0 2.3 1.1 2.3 3.3zm-3.41-2.18c-.27.19-.5.43-.7.72v3.13c.17.25.38.44.63.58.25.14.52.21.82.21.53 0 .92-.2 1.18-.6.26-.4.4-1.03.4-1.86 0-.83-.12-1.45-.36-1.86-.23-.4-.6-.61-1.09-.61-.32 0-.61.1-.88.29zm6-.1a2.57 2.57 0 0 1 2.03-1c1.18 0 1.77.62 1.77 1.87V12h-1V7.43c0-.38-.1-.65-.27-.82-.18-.18-.46-.26-.84-.26-.33 0-.64.1-.95.31-.3.2-.55.45-.74.73V12H21.3V3.14l1-.1v3.51zm10.35 4.62c.08.11.2.2.4.25l-.26.72c-.62-.08-1-.38-1.15-.9-.23.3-.5.51-.85.66-.34.16-.72.23-1.13.23-.63 0-1.13-.17-1.5-.53a1.88 1.88 0 0 1-.54-1.41c0-.65.25-1.15.76-1.5.5-.35 1.24-.53 2.19-.53h.94v-.52c0-.44-.13-.77-.39-.96-.25-.2-.63-.3-1.11-.3-.48 0-1.03.11-1.65.33l-.27-.77c.74-.26 1.43-.4 2.07-.4.77 0 1.36.18 1.76.54.4.36.6.86.6 1.5v3.04c0 .25.05.43.13.55zm-1.85-.03c.29-.16.52-.38.7-.66V8.86h-.9c-.68 0-1.16.1-1.46.33-.3.23-.44.55-.44.99 0 .8.4 1.2 1.21 1.2.31 0 .61-.08.9-.24zm7.19-.11a.84.84 0 0 0 .42-.73c0-.21-.04-.38-.1-.51a.96.96 0 0 0-.44-.36c-.22-.11-.54-.22-.98-.33a4.76 4.76 0 0 1-1.64-.67c-.35-.26-.52-.65-.52-1.16 0-.53.22-.95.66-1.26a2.95 2.95 0 0 1 1.74-.47c.88 0 1.64.24 2.3.7l-.46.7a3.03 3.03 0 0 0-1.82-.58c-.91 0-1.37.28-1.37.83 0 .19.05.35.15.47.1.12.27.22.5.31.22.1.56.2 1.02.33.69.19 1.2.42 1.54.7.34.29.51.7.51 1.25 0 .63-.25 1.1-.77 1.41-.5.32-1.14.47-1.88.47-1 0-1.82-.28-2.47-.85l.56-.66a3.14 3.14 0 0 0 1.91.68c.48 0 .86-.09 1.14-.27zm6.34-8.1c.14.12.2.3.2.5 0 .21-.06.38-.2.51a.74.74 0 0 1-.54.2.7.7 0 0 1-.52-.2.69.69 0 0 1-.2-.5c0-.22.07-.39.2-.52a.7.7 0 0 1 .52-.2c.22 0 .4.07.54.2zm.26 8.27h1.78v.8h-4.73v-.8h1.95V6.48H41.7v-.8h2.9v5.52zm6.8-.17a.84.84 0 0 0 .42-.73c0-.21-.04-.38-.1-.51a.96.96 0 0 0-.44-.36c-.22-.11-.54-.22-.98-.33a4.76 4.76 0 0 1-1.64-.67c-.35-.26-.52-.65-.52-1.16 0-.53.22-.95.66-1.26a2.95 2.95 0 0 1 1.74-.47c.88 0 1.64.24 2.3.7l-.46.7a3.03 3.03 0 0 0-1.82-.58c-.91 0-1.37.28-1.37.83 0 .19.05.35.15.47.1.12.27.22.5.31.22.1.56.2 1.02.33.69.19 1.2.42 1.54.7.34.29.51.7.51 1.25 0 .63-.25 1.1-.77 1.41-.5.32-1.14.47-1.88.47-1 0-1.82-.28-2.47-.85l.56-.66a3.14 3.14 0 0 0 1.91.68c.48 0 .86-.09 1.14-.27zM57 9h68v1H57V9zm68-9h1v10h-1V0z"/></g><rect width="138" height="18" x="142" y="222" fill="#FC2DD7" fill-opacity=".25"/></g></svg>