<svg xmlns="http://www.w3.org/2000/svg" width="360" height="240" viewBox="0 0 360 240">
  <g fill="none" fill-rule="evenodd">
    <path fill="#4A4A4F" d="M42.8 82.3C41.8799954 82.3 41.0966699 82.1600014 40.45 81.88 39.8033301 81.5999986 39.280002 81.2133358 38.88 80.72 38.479998 80.2266642 38.1900009 79.6500033 38.01 78.99 37.8299991 78.3299967 37.74 77.6200038 37.74 76.86L37.74 68.14 39.1 68.14 39.1 76.68C39.1 77.4400038 39.1899991 78.0966639 39.37 78.65 39.5500009 79.2033361 39.7999984 79.6599982 40.12 80.02 40.4400016 80.3800018 40.8266644 80.6466658 41.28 80.82 41.7333356 80.9933342 42.2399972 81.08 42.8 81.08 43.3600028 81.08 43.8666644 80.9933342 44.32 80.82 44.7733356 80.6466658 45.1599984 80.3800018 45.48 80.02 45.8000016 79.6599982 46.0499991 79.2033361 46.23 78.65 46.4100009 78.0966639 46.5 77.4400038 46.5 76.68L46.5 68.14 47.86 68.14 47.86 76.86C47.86 77.6200038 47.7700009 78.3299967 47.59 78.99 47.4099991 79.6500033 47.120002 80.2266642 46.72 80.72 46.319998 81.2133358 45.7966699 81.5999986 45.15 81.88 44.5033301 82.1600014 43.7200046 82.3 42.8 82.3zM52.62 72.28C52.8466678 72.1066658 53.2099975 71.9233343 53.71 71.73 54.2100025 71.5366657 54.7999966 71.44 55.48 71.44 56.2266704 71.44 56.8899971 71.573332 57.47 71.84 58.0500029 72.106668 58.539998 72.4799976 58.94 72.96 59.340002 73.4400024 59.6433323 74.0099967 59.85 74.67 60.0566677 75.3300033 60.16 76.0533294 60.16 76.84 60.16 77.6800042 60.0366679 78.43333 59.79 79.1 59.5433321 79.76667 59.1966689 80.333331 58.75 80.8 58.3033311 81.266669 57.7700031 81.6233321 57.15 81.87 56.5299969 82.1166679 55.8400038 82.24 55.08 82.24 54.1599954 82.24 53.400003 82.1800006 52.8 82.06 52.199997 81.9399994 51.7066686 81.813334 51.32 81.68L51.32 66.72 52.62 66.48 52.62 72.28zM52.62 80.78C52.820001 80.846667 53.1166647 80.9099997 53.51 80.97 53.9033353 81.0300003 54.4199968 81.06 55.06 81.06 56.1800056 81.06 57.0799966 80.6966703 57.76 79.97 58.4400034 79.2433297 58.78 78.2000068 58.78 76.84 58.78 76.2666638 58.7200006 75.7233359 58.6 75.21 58.4799994 74.6966641 58.286668 74.2500019 58.02 73.87 57.753332 73.4899981 57.4033355 73.1866678 56.97 72.96 56.5366645 72.7333322 56.0000032 72.62 55.36 72.62 55.0533318 72.62 54.7600014 72.6499997 54.48 72.71 54.1999986 72.7700003 53.9400012 72.8466662 53.7 72.94 53.4599988 73.0333338 53.2500009 73.1333328 53.07 73.24 52.8899991 73.3466672 52.7400006 73.4466662 52.62 73.54L52.62 80.78zM70.92 81.64C70.5333314 81.7466672 70.0133366 81.866666 69.36 82 68.7066634 82.133334 67.9066714 82.2 66.96 82.2 66.1866628 82.2 65.5400026 82.0866678 65.02 81.86 64.4999974 81.6333322 64.0800016 81.3133354 63.76 80.9 63.4399984 80.4866646 63.2100007 79.9866696 63.07 79.4 62.9299993 78.8133304 62.86 78.1666702 62.86 77.46L62.86 71.66 64.16 71.66 64.16 77.04C64.16 77.773337 64.2133328 78.3933308 64.32 78.9 64.4266672 79.4066692 64.5999988 79.8166651 64.84 80.13 65.0800012 80.4433349 65.3899981 80.6699993 65.77 80.81 66.1500019 80.9500007 66.6133306 81.02 67.16 81.02 67.7733364 81.02 68.3066644 80.986667 68.76 80.92 69.2133356 80.853333 69.4999994 80.7933336 69.62 80.74L69.62 71.66 70.92 71.66 70.92 81.64zM74.36 72.02C74.7466686 71.9133328 75.2666634 71.793334 75.92 71.66 76.5733366 71.526666 77.3733286 71.46 78.32 71.46 79.1066706 71.46 79.7633307 71.5733322 80.29 71.8 80.8166693 72.0266678 81.2366651 72.3499979 81.55 72.77 81.8633349 73.1900021 82.086666 73.6933304 82.22 74.28 82.353334 74.8666696 82.42 75.5133298 82.42 76.22L82.42 82 81.12 82 81.12 76.64C81.12 75.906663 81.0700005 75.2866692 80.97 74.78 80.8699995 74.2733308 80.7033345 73.8600016 80.47 73.54 80.2366655 73.2199984 79.9300019 72.9900007 79.55 72.85 79.1699981 72.7099993 78.6933362 72.64 78.12 72.64 77.5066636 72.64 76.9766689 72.673333 76.53 72.74 76.0833311 72.806667 75.793334 72.8666664 75.66 72.92L75.66 82 74.36 82 74.36 72.02zM86.96 71.66L91.08 71.66 91.08 72.76 86.96 72.76 86.96 78.26C86.96 78.8466696 87.0099995 79.3233315 87.11 79.69 87.2100005 80.0566685 87.3533324 80.339999 87.54 80.54 87.7266676 80.740001 87.953332 80.873333 88.22 80.94 88.486668 81.006667 88.7799984 81.04 89.1 81.04 89.6466694 81.04 90.086665 80.9766673 90.42 80.85 90.753335 80.7233327 91.0133324 80.6066672 91.2 80.5L91.52 81.58C91.3333324 81.7000006 91.006669 81.8366659 90.54 81.99 90.073331 82.1433341 89.5666694 82.22 89.02 82.22 88.3799968 82.22 87.8433355 82.1366675 87.41 81.97 86.9766645 81.8033325 86.6300013 81.5500017 86.37 81.21 86.1099987 80.8699983 85.9266672 80.4466692 85.82 79.94 85.7133328 79.4333308 85.66 78.8333368 85.66 78.14L85.66 68.62 86.96 68.38 86.96 71.66zM101.42 81.64C101.033331 81.7466672 100.513337 81.866666 99.86 82 99.2066634 82.133334 98.4066714 82.2 97.46 82.2 96.6866628 82.2 96.0400026 82.0866678 95.52 81.86 94.9999974 81.6333322 94.5800016 81.3133354 94.26 80.9 93.9399984 80.4866646 93.7100007 79.9866696 93.57 79.4 93.4299993 78.8133304 93.36 78.1666702 93.36 77.46L93.36 71.66 94.66 71.66 94.66 77.04C94.66 77.773337 94.7133328 78.3933308 94.82 78.9 94.9266672 79.4066692 95.0999988 79.8166651 95.34 80.13 95.5800012 80.4433349 95.8899981 80.6699993 96.27 80.81 96.6500019 80.9500007 97.1133306 81.02 97.66 81.02 98.2733364 81.02 98.8066644 80.986667 99.26 80.92 99.7133356 80.853333 99.9999994 80.7933336 100.12 80.74L100.12 71.66 101.42 71.66 101.42 81.64zM117.38 80.82L117.38 82 109.5 82 109.5 68.14 110.86 68.14 110.86 80.82 117.38 80.82zM120.76 82L119.46 82 119.46 71.66 120.76 71.66 120.76 82zM121.06 68.54C121.06 68.8466682 120.966668 69.0899991 120.78 69.27 120.593332 69.4500009 120.366668 69.54 120.1 69.54 119.833332 69.54 119.606668 69.4500009 119.42 69.27 119.233332 69.0899991 119.14 68.8466682 119.14 68.54 119.14 68.2333318 119.233332 67.9900009 119.42 67.81 119.606668 67.6299991 119.833332 67.54 120.1 67.54 120.366668 67.54 120.593332 67.6299991 120.78 67.81 120.966668 67.9900009 121.06 68.2333318 121.06 68.54zM130.94 80.8C130.86 80.866667 130.740001 80.9433329 130.58 81.03 130.419999 81.1166671 130.223334 81.2066662 129.99 81.3 129.756665 81.3933338 129.490001 81.4699997 129.19 81.53 128.889998 81.5900003 128.553335 81.62 128.18 81.62 127.579997 81.62 127.000003 81.5266676 126.44 81.34 125.879997 81.1533324 125.390002 80.860002 124.97 80.46 124.549998 80.059998 124.213335 79.5433365 123.96 78.91 123.706665 78.2766635 123.58 77.5066712 123.58 76.6 123.58 75.866663 123.693332 75.1866698 123.92 74.56 124.146668 73.9333302 124.469998 73.3900023 124.89 72.93 125.310002 72.4699977 125.82333 72.1100013 126.43 71.85 127.03667 71.5899987 127.719996 71.46 128.48 71.46 129.440005 71.46 130.209997 71.5233327 130.79 71.65 131.370003 71.7766673 131.846665 71.8999994 132.22 72.02L132.22 81.46C132.22 83.0066744 131.820004 84.1099967 131.02 84.77 130.219996 85.4300033 129.013341 85.76 127.4 85.76 126.73333 85.76 126.130003 85.7100005 125.59 85.61 125.049997 85.5099995 124.586669 85.393334 124.2 85.26L124.46 84.08C124.780002 84.2266674 125.216664 84.3533328 125.77 84.46 126.323336 84.5666672 126.879997 84.62 127.44 84.62 128.666673 84.62 129.556664 84.3833357 130.11 83.91 130.663336 83.4366643 130.94 82.6266724 130.94 81.48L130.94 80.8zM130.92 72.92C130.693332 72.853333 130.400002 72.7900003 130.04 72.73 129.679998 72.6699997 129.16667 72.64 128.5 72.64 127.939997 72.64 127.443335 72.7366657 127.01 72.93 126.576664 73.1233343 126.206668 73.3966649 125.9 73.75 125.593332 74.1033351 125.360001 74.5233309 125.2 75.01 125.039999 75.4966691 124.96 76.0333304 124.96 76.62 124.96 77.3000034 125.053332 77.8833309 125.24 78.37 125.426668 78.8566691 125.669999 79.2533318 125.97 79.56 126.270002 79.8666682 126.613331 80.0899993 127 80.23 127.386669 80.3700007 127.779998 80.44 128.18 80.44 128.76667 80.44 129.303331 80.3533342 129.79 80.18 130.276669 80.0066658 130.653332 79.8066678 130.92 79.58L130.92 72.92zM135.66 82L135.66 66.72 136.96 66.48 136.96 71.96C137.386669 71.7999992 137.819998 71.6766671 138.26 71.59 138.700002 71.5033329 139.139998 71.46 139.58 71.46 140.380004 71.46 141.046664 71.5733322 141.58 71.8 142.113336 72.0266678 142.539998 72.3499979 142.86 72.77 143.180002 73.1900021 143.403333 73.6933304 143.53 74.28 143.656667 74.8666696 143.72 75.5133298 143.72 76.22L143.72 82 142.42 82 142.42 76.64C142.42 75.906663 142.37 75.2866692 142.27 74.78 142.169999 74.2733308 142.003334 73.8600016 141.77 73.54 141.536665 73.2199984 141.226669 72.9900007 140.84 72.85 140.453331 72.7099993 139.96667 72.64 139.38 72.64 139.153332 72.64 138.910001 72.6599998 138.65 72.7 138.389999 72.7400002 138.146668 72.7833331 137.92 72.83 137.693332 72.8766669 137.490001 72.9266664 137.31 72.98 137.129999 73.0333336 137.013334 73.0733332 136.96 73.1L136.96 82 135.66 82zM148.26 71.66L152.38 71.66 152.38 72.76 148.26 72.76 148.26 78.26C148.26 78.8466696 148.309999 79.3233315 148.41 79.69 148.51 80.0566685 148.653332 80.339999 148.84 80.54 149.026668 80.740001 149.253332 80.873333 149.52 80.94 149.786668 81.006667 150.079998 81.04 150.4 81.04 150.946669 81.04 151.386665 80.9766673 151.72 80.85 152.053335 80.7233327 152.313332 80.6066672 152.5 80.5L152.82 81.58C152.633332 81.7000006 152.306669 81.8366659 151.84 81.99 151.373331 82.1433341 150.866669 82.22 150.32 82.22 149.679997 82.22 149.143335 82.1366675 148.71 81.97 148.276664 81.8033325 147.930001 81.5500017 147.67 81.21 147.409999 80.8699983 147.226667 80.4466692 147.12 79.94 147.013333 79.4333308 146.96 78.8333368 146.96 78.14L146.96 68.62 148.26 68.38 148.26 71.66zM42.88 113.3C41.9733288 113.3 41.18667 113.160001 40.52 112.88 39.85333 112.599999 39.3066688 112.216669 38.88 111.73 38.4533312 111.243331 38.1366677 110.66667 37.93 110 37.7233323 109.33333 37.62 108.613337 37.62 107.84L37.62 99.14 39.56 99.14 39.56 107.62C39.56 109.006674 39.8666636 110.01333 40.48 110.64 41.0933364 111.26667 41.8933284 111.58 42.88 111.58 43.3733358 111.58 43.8233313 111.503334 44.23 111.35 44.6366687 111.196666 44.9866652 110.960002 45.28 110.64 45.5733348 110.319998 45.7999992 109.910003 45.96 109.41 46.1200008 108.909998 46.2 108.313337 46.2 107.62L46.2 99.14 48.14 99.14 48.14 107.84C48.14 108.613337 48.0366677 109.33333 47.83 110 47.6233323 110.66667 47.3033355 111.243331 46.87 111.73 46.4366645 112.216669 45.8900033 112.599999 45.23 112.88 44.5699967 113.160001 43.7866712 113.3 42.88 113.3zM53.22 103.06C53.4466678 102.913333 53.7899977 102.760001 54.25 102.6 54.7100023 102.439999 55.239997 102.36 55.84 102.36 56.5866704 102.36 57.2499971 102.493332 57.83 102.76 58.4100029 103.026668 58.899998 103.399998 59.3 103.88 59.700002 104.360002 60.0033323 104.93333 60.21 105.6 60.4166677 106.26667 60.52 106.999996 60.52 107.8 60.52 108.640004 60.3966679 109.396663 60.15 110.07 59.9033321 110.743337 59.5533356 111.313331 59.1 111.78 58.6466644 112.246669 58.1000032 112.606665 57.46 112.86 56.8199968 113.113335 56.100004 113.24 55.3 113.24 54.433329 113.24 53.66667 113.180001 53 113.06 52.33333 112.939999 51.7866688 112.820001 51.36 112.7L51.36 97.8 53.22 97.48 53.22 103.06zM53.22 111.38C53.4066676 111.433334 53.6699983 111.483333 54.01 111.53 54.3500017 111.576667 54.7733308 111.6 55.28 111.6 56.280005 111.6 57.079997 111.270003 57.68 110.61 58.280003 109.949997 58.58 109.013339 58.58 107.8 58.58 107.266664 58.5266672 106.766669 58.42 106.3 58.3133328 105.833331 58.1400012 105.430002 57.9 105.09 57.6599988 104.749998 57.3500019 104.483334 56.97 104.29 56.5899981 104.096666 56.133336 104 55.6 104 55.0933308 104 54.6266688 104.086666 54.2 104.26 53.7733312 104.433334 53.4466678 104.613332 53.22 104.8L53.22 111.38zM71.42 112.7C70.9933312 112.806667 70.4300035 112.919999 69.73 113.04 69.0299965 113.160001 68.2200046 113.22 67.3 113.22 66.499996 113.22 65.8266694 113.103334 65.28 112.87 64.7333306 112.636665 64.293335 112.306669 63.96 111.88 63.626665 111.453331 63.3866674 110.950003 63.24 110.37 63.0933326 109.789997 63.02 109.14667 63.02 108.44L63.02 102.6 64.88 102.6 64.88 108.04C64.88 109.306673 65.079998 110.213331 65.48 110.76 65.880002 111.306669 66.5533286 111.58 67.5 111.58 67.700001 111.58 67.9066656 111.573333 68.12 111.56 68.3333344 111.546667 68.5333324 111.53 68.72 111.51 68.9066676 111.49 69.0766659 111.47 69.23 111.45 69.3833341 111.43 69.493333 111.406667 69.56 111.38L69.56 102.6 71.42 102.6 71.42 112.7zM74.62 102.9C75.0466688 102.793333 75.6133298 102.680001 76.32 102.56 77.0266702 102.439999 77.8399954 102.38 78.76 102.38 79.5866708 102.38 80.2733306 102.496666 80.82 102.73 81.3666694 102.963335 81.8033317 103.289998 82.13 103.71 82.4566683 104.130002 82.686666 104.63333 82.82 105.22 82.953334 105.80667 83.02 106.45333 83.02 107.16L83.02 113 81.16 113 81.16 107.56C81.16 106.919997 81.1166671 106.373336 81.03 105.92 80.9433329 105.466664 80.800001 105.100001 80.6 104.82 80.399999 104.539999 80.133335 104.336667 79.8 104.21 79.466665 104.083333 79.0533358 104.02 78.56 104.02 78.359999 104.02 78.1533344 104.026667 77.94 104.04 77.7266656 104.053333 77.5233343 104.07 77.33 104.09 77.1366657 104.11 76.9633341 104.133333 76.81 104.16 76.6566659 104.186667 76.546667 104.206667 76.48 104.22L76.48 113 74.62 113 74.62 102.9zM87.84 102.6L91.78 102.6 91.78 104.16 87.84 104.16 87.84 108.96C87.84 109.480003 87.8799996 109.909998 87.96 110.25 88.0400004 110.590002 88.1599992 110.856666 88.32 111.05 88.4800008 111.243334 88.6799988 111.38 88.92 111.46 89.1600012 111.54 89.4399984 111.58 89.76 111.58 90.3200028 111.58 90.7699983 111.516667 91.11 111.39 91.4500017 111.263333 91.686666 111.173334 91.82 111.12L92.18 112.66C91.9933324 112.753334 91.666669 112.869999 91.2 113.01 90.733331 113.150001 90.200003 113.22 89.6 113.22 88.8933298 113.22 88.3100023 113.130001 87.85 112.95 87.3899977 112.769999 87.0200014 112.500002 86.74 112.14 86.4599986 111.779998 86.2633339 111.336669 86.15 110.81 86.0366661 110.283331 85.98 109.673337 85.98 108.98L85.98 99.7 87.84 99.38 87.84 102.6zM102.42 112.7C101.993331 112.806667 101.430003 112.919999 100.73 113.04 100.029997 113.160001 99.2200046 113.22 98.3 113.22 97.499996 113.22 96.8266694 113.103334 96.28 112.87 95.7333306 112.636665 95.293335 112.306669 94.96 111.88 94.626665 111.453331 94.3866674 110.950003 94.24 110.37 94.0933326 109.789997 94.02 109.14667 94.02 108.44L94.02 102.6 95.88 102.6 95.88 108.04C95.88 109.306673 96.079998 110.213331 96.48 110.76 96.880002 111.306669 97.5533286 111.58 98.5 111.58 98.700001 111.58 98.9066656 111.573333 99.12 111.56 99.3333344 111.546667 99.5333324 111.53 99.72 111.51 99.9066676 111.49 100.076666 111.47 100.23 111.45 100.383334 111.43 100.493333 111.406667 100.56 111.38L100.56 102.6 102.42 102.6 102.42 112.7zM117.14 107.2C117.353334 107.466668 117.623332 107.816665 117.95 108.25 118.276668 108.683335 118.613332 109.163331 118.96 109.69 119.306668 110.216669 119.649998 110.766664 119.99 111.34 120.330002 111.913336 120.619999 112.466664 120.86 113L118.74 113C118.473332 112.493331 118.183335 111.980003 117.87 111.46 117.556665 110.939997 117.240002 110.443336 116.92 109.97 116.599998 109.496664 116.283335 109.053335 115.97 108.64 115.656665 108.226665 115.373335 107.866668 115.12 107.56 114.946666 107.573333 114.770001 107.58 114.59 107.58L112.3 107.58 112.3 113 110.36 113 110.36 99.34C110.906669 99.206666 111.516663 99.1166669 112.19 99.07 112.863337 99.0233331 113.479997 99 114.04 99 115.986676 99 117.469995 99.366663 118.49 100.1 119.510005 100.833337 120.02 101.926659 120.02 103.38 120.02 104.300005 119.776669 105.086663 119.29 105.74 118.803331 106.393337 118.086671 106.879998 117.14 107.2zM114.2 100.7C113.373329 100.7 112.740002 100.72 112.3 100.76L112.3 105.98 113.68 105.98C114.34667 105.98 114.946664 105.946667 115.48 105.88 116.013336 105.813333 116.463332 105.686668 116.83 105.5 117.196669 105.313332 117.479999 105.050002 117.68 104.71 117.880001 104.369998 117.98 103.920003 117.98 103.36 117.98 102.839997 117.880001 102.406668 117.68 102.06 117.479999 101.713332 117.210002 101.440001 116.87 101.24 116.529998 101.039999 116.130002 100.9 115.67 100.82 115.209998 100.74 114.720003 100.7 114.2 100.7zM122.24 107.82C122.24 106.899995 122.373332 106.09667 122.64 105.41 122.906668 104.72333 123.259998 104.153336 123.7 103.7 124.140002 103.246664 124.646664 102.906668 125.22 102.68 125.793336 102.453332 126.379997 102.34 126.98 102.34 128.380007 102.34 129.45333 102.776662 130.2 103.65 130.94667 104.523338 131.32 105.853324 131.32 107.64L131.32 107.95C131.32 108.076667 131.313333 108.193333 131.3 108.3L124.18 108.3C124.26 109.380005 124.573331 110.199997 125.12 110.76 125.666669 111.320003 126.519994 111.6 127.68 111.6 128.333337 111.6 128.883331 111.543334 129.33 111.43 129.776669 111.316666 130.113332 111.206667 130.34 111.1L130.6 112.66C130.373332 112.780001 129.97667 112.906666 129.41 113.04 128.843331 113.173334 128.200004 113.24 127.48 113.24 126.573329 113.24 125.790003 113.103335 125.13 112.83 124.469997 112.556665 123.926669 112.180002 123.5 111.7 123.073331 111.219998 122.756668 110.650003 122.55 109.99 122.343332 109.329997 122.24 108.606671 122.24 107.82zM129.38 106.8C129.393333 105.959996 129.183335 105.270003 128.75 104.73 128.316665 104.189997 127.720004 103.92 126.96 103.92 126.533331 103.92 126.156668 104.003332 125.83 104.17 125.503332 104.336668 125.226668 104.553332 125 104.82 124.773332 105.086668 124.596667 105.393332 124.47 105.74 124.343333 106.086668 124.26 106.439998 124.22 106.8L129.38 106.8zM140.52 111.96C140.359999 112.066667 140.050002 112.203333 139.59 112.37 139.129998 112.536667 138.593336 112.62 137.98 112.62 137.35333 112.62 136.763336 112.520001 136.21 112.32 135.656664 112.119999 135.173335 111.810002 134.76 111.39 134.346665 110.969998 134.020001 110.44667 133.78 109.82 133.539999 109.19333 133.42 108.446671 133.42 107.58 133.42 106.819996 133.533332 106.123336 133.76 105.49 133.986668 104.856663 134.316665 104.310002 134.75 103.85 135.183335 103.389998 135.71333 103.030001 136.34 102.77 136.96667 102.509999 137.673329 102.38 138.46 102.38 139.326671 102.38 140.08333 102.443333 140.73 102.57 141.37667 102.696667 141.919998 102.813333 142.36 102.92L142.36 112.2C142.36 113.800008 141.946671 114.959996 141.12 115.68 140.293329 116.400004 139.040008 116.76 137.36 116.76 136.706663 116.76 136.090003 116.706667 135.51 116.6 134.929997 116.493333 134.426669 116.366667 134 116.22L134.34 114.6C134.713335 114.746667 135.169997 114.876666 135.71 114.99 136.250003 115.103334 136.81333 115.16 137.4 115.16 138.506672 115.16 139.303331 114.940002 139.79 114.5 140.276669 114.059998 140.52 113.360005 140.52 112.4L140.52 111.96zM140.5 104.24C140.313332 104.186666 140.063335 104.136667 139.75 104.09 139.436665 104.043333 139.013336 104.02 138.48 104.02 137.479995 104.02 136.710003 104.346663 136.17 105 135.629997 105.653337 135.36 106.519995 135.36 107.6 135.36 108.200003 135.436666 108.713331 135.59 109.14 135.743334 109.566669 135.949999 109.919999 136.21 110.2 136.470001 110.480001 136.769998 110.686666 137.11 110.82 137.450002 110.953334 137.799998 111.02 138.16 111.02 138.653336 111.02 139.106665 110.950001 139.52 110.81 139.933335 110.669999 140.259999 110.506668 140.5 110.32L140.5 104.24zM153.84 112.7C153.413331 112.806667 152.850004 112.919999 152.15 113.04 151.449996 113.160001 150.640005 113.22 149.72 113.22 148.919996 113.22 148.246669 113.103334 147.7 112.87 147.153331 112.636665 146.713335 112.306669 146.38 111.88 146.046665 111.453331 145.806667 110.950003 145.66 110.37 145.513333 109.789997 145.44 109.14667 145.44 108.44L145.44 102.6 147.3 102.6 147.3 108.04C147.3 109.306673 147.499998 110.213331 147.9 110.76 148.300002 111.306669 148.973329 111.58 149.92 111.58 150.120001 111.58 150.326666 111.573333 150.54 111.56 150.753334 111.546667 150.953332 111.53 151.14 111.51 151.326668 111.49 151.496666 111.47 151.65 111.45 151.803334 111.43 151.913333 111.406667 151.98 111.38L151.98 102.6 153.84 102.6 153.84 112.7zM160.16 113.2C159.013328 113.173333 158.200002 112.926669 157.72 112.46 157.239998 111.993331 157 111.266672 157 110.28L157 97.8 158.86 97.48 158.86 109.98C158.86 110.286668 158.886666 110.539999 158.94 110.74 158.993334 110.940001 159.079999 111.099999 159.2 111.22 159.320001 111.340001 159.479999 111.43 159.68 111.49 159.880001 111.55 160.126665 111.6 160.42 111.64L160.16 113.2zM166.02 111.66C166.460002 111.66 166.849998 111.65 167.19 111.63 167.530002 111.61 167.813332 111.573334 168.04 111.52L168.04 108.42C167.906666 108.353333 167.690002 108.296667 167.39 108.25 167.089999 108.203333 166.726669 108.18 166.3 108.18 166.019999 108.18 165.723335 108.2 165.41 108.24 165.096665 108.28 164.810001 108.363333 164.55 108.49 164.289999 108.616667 164.073334 108.789999 163.9 109.01 163.726666 109.230001 163.64 109.519998 163.64 109.88 163.64 110.54667 163.853331 111.009999 164.28 111.27 164.706669 111.530001 165.286663 111.66 166.02 111.66zM165.86 102.34C166.60667 102.34 167.236664 102.436666 167.75 102.63 168.263336 102.823334 168.676665 103.096665 168.99 103.45 169.303335 103.803335 169.526666 104.223331 169.66 104.71 169.793334 105.196669 169.86 105.73333 169.86 106.32L169.86 112.82C169.699999 112.846667 169.476668 112.883333 169.19 112.93 168.903332 112.976667 168.580002 113.02 168.22 113.06 167.859998 113.1 167.470002 113.136667 167.05 113.17 166.629998 113.203334 166.213335 113.22 165.8 113.22 165.21333 113.22 164.673336 113.160001 164.18 113.04 163.686664 112.919999 163.260002 112.730001 162.9 112.47 162.539998 112.209999 162.260001 111.866669 162.06 111.44 161.859999 111.013331 161.76 110.500003 161.76 109.9 161.76 109.326664 161.876666 108.833335 162.11 108.42 162.343335 108.006665 162.659998 107.673335 163.06 107.42 163.460002 107.166665 163.926664 106.980001 164.46 106.86 164.993336 106.739999 165.55333 106.68 166.14 106.68 166.326668 106.68 166.519999 106.69 166.72 106.71 166.920001 106.73 167.109999 106.756666 167.29 106.79 167.470001 106.823334 167.626666 106.853333 167.76 106.88 167.893334 106.906667 167.986666 106.926667 168.04 106.94L168.04 106.42C168.04 106.113332 168.006667 105.810001 167.94 105.51 167.873333 105.209998 167.753334 104.943334 167.58 104.71 167.406666 104.476665 167.170002 104.290001 166.87 104.15 166.569999 104.009999 166.180002 103.94 165.7 103.94 165.086664 103.94 164.550002 103.983333 164.09 104.07 163.629998 104.156667 163.286668 104.246666 163.06 104.34L162.84 102.8C163.080001 102.693333 163.479997 102.590001 164.04 102.49 164.600003 102.39 165.206663 102.34 165.86 102.34zM176.78 102.38C176.940001 102.38 177.123332 102.39 177.33 102.41 177.536668 102.43 177.739999 102.456666 177.94 102.49 178.140001 102.523334 178.323333 102.556667 178.49 102.59 178.656667 102.623334 178.78 102.653333 178.86 102.68L178.54 104.3C178.393333 104.246666 178.150002 104.183334 177.81 104.11 177.469998 104.036666 177.033336 104 176.5 104 176.153332 104 175.810002 104.036666 175.47 104.11 175.129998 104.183334 174.906667 104.233333 174.8 104.26L174.8 113 172.94 113 172.94 103.04C173.380002 102.879999 173.926663 102.730001 174.58 102.59 175.233337 102.449999 175.966663 102.38 176.78 102.38zM43 144.3C42.0533286 144.3 41.2400034 144.163335 40.56 143.89 39.8799966 143.616665 39.3166689 143.233336 38.87 142.74 38.4233311 142.246664 38.0933344 141.66667 37.88 141 37.6666656 140.33333 37.56 139.600004 37.56 138.8L37.56 130.14 40.1 130.14 40.1 138.56C40.1 139.18667 40.1699993 139.723331 40.31 140.17 40.4500007 140.616669 40.6499987 140.979999 40.91 141.26 41.1700013 141.540001 41.4766649 141.746666 41.83 141.88 42.1833351 142.013334 42.5799978 142.08 43.02 142.08 43.4600022 142.08 43.8599982 142.013334 44.22 141.88 44.5800018 141.746666 44.8899987 141.540001 45.15 141.26 45.4100013 140.979999 45.6099993 140.616669 45.75 140.17 45.8900007 139.723331 45.96 139.18667 45.96 138.56L45.96 130.14 48.5 130.14 48.5 138.8C48.5 139.600004 48.3900011 140.33333 48.17 141 47.9499989 141.66667 47.6166689 142.246664 47.17 142.74 46.7233311 143.233336 46.1533368 143.616665 45.46 143.89 44.7666632 144.163335 43.9466714 144.3 43 144.3zM58.54 138.74C58.54 137.713328 58.3366687 136.900003 57.93 136.3 57.5233313 135.699997 56.8800044 135.4 56 135.4 55.599998 135.4 55.2233351 135.459999 54.87 135.58 54.5166649 135.700001 54.2333344 135.833333 54.02 135.98L54.02 142C54.1933342 142.04 54.4166653 142.076666 54.69 142.11 54.9633347 142.143334 55.2933314 142.16 55.68 142.16 56.5733378 142.16 57.2733308 141.85667 57.78 141.25 58.2866692 140.64333 58.54 139.806672 58.54 138.74zM61.02 138.78C61.02 139.620004 60.8966679 140.376663 60.65 141.05 60.4033321 141.723337 60.0500023 142.299998 59.59 142.78 59.1299977 143.260002 58.5733366 143.626665 57.92 143.88 57.2666634 144.133335 56.5266708 144.26 55.7 144.26 54.899996 144.26 54.1366703 144.200001 53.41 144.08 52.6833297 143.959999 52.0800024 143.826667 51.6 143.68L51.6 128.88 54.02 128.48 54.02 133.9C54.3000014 133.753333 54.6433313 133.620001 55.05 133.5 55.4566687 133.379999 55.9066642 133.32 56.4 133.32 57.133337 133.32 57.7899971 133.449999 58.37 133.71 58.9500029 133.970001 59.4333314 134.339998 59.82 134.82 60.2066686 135.300002 60.5033323 135.876663 60.71 136.55 60.9166677 137.223337 61.02 137.966663 61.02 138.78zM72.1 143.68C71.633331 143.800001 71.0266704 143.923333 70.28 144.05 69.5333296 144.176667 68.7133378 144.24 67.82 144.24 66.9799958 144.24 66.2766695 144.120001 65.71 143.88 65.1433305 143.639999 64.6900017 143.306669 64.35 142.88 64.0099983 142.453331 63.7666674 141.943336 63.62 141.35 63.4733326 140.756664 63.4 140.10667 63.4 139.4L63.4 133.54 65.82 133.54 65.82 139.02C65.82 140.140006 65.9833317 140.939998 66.31 141.42 66.6366683 141.900002 67.2066626 142.14 68.02 142.14 68.3133348 142.14 68.6233317 142.126667 68.95 142.1 69.2766683 142.073333 69.5199992 142.04 69.68 142L69.68 133.54 72.1 133.54 72.1 143.68zM75.18 133.88C75.646669 133.746666 76.2533296 133.620001 77 133.5 77.7466704 133.379999 78.5733288 133.32 79.48 133.32 80.3333376 133.32 81.0466638 133.436666 81.62 133.67 82.1933362 133.903334 82.6499983 134.229998 82.99 134.65 83.3300017 135.070002 83.5699993 135.576664 83.71 136.17 83.8500007 136.763336 83.92 137.41333 83.92 138.12L83.92 144 81.5 144 81.5 138.5C81.5 137.939997 81.4633337 137.463335 81.39 137.07 81.3166663 136.676665 81.1966675 136.356668 81.03 136.11 80.8633325 135.863332 80.6366681 135.683334 80.35 135.57 80.0633319 135.456666 79.7133354 135.4 79.3 135.4 78.9933318 135.4 78.673335 135.42 78.34 135.46 78.006665 135.5 77.7600008 135.533333 77.6 135.56L77.6 144 75.18 144 75.18 133.88zM86.76 130.78L89.18 130.38 89.18 133.54 92.9 133.54 92.9 135.56 89.18 135.56 89.18 139.82C89.18 140.660004 89.313332 141.259998 89.58 141.62 89.846668 141.980002 90.2999968 142.16 90.94 142.16 91.3800022 142.16 91.7699983 142.113334 92.11 142.02 92.4500017 141.926666 92.719999 141.84 92.92 141.76L93.32 143.68C93.0399986 143.800001 92.6733356 143.923333 92.22 144.05 91.7666644 144.176667 91.2333364 144.24 90.62 144.24 89.8733296 144.24 89.2500025 144.140001 88.75 143.94 88.2499975 143.739999 87.8533348 143.450002 87.56 143.07 87.2666652 142.689998 87.0600006 142.230003 86.94 141.69 86.8199994 141.149997 86.76 140.533337 86.76 139.84L86.76 130.78zM103.82 143.68C103.353331 143.800001 102.74667 143.923333 102 144.05 101.25333 144.176667 100.433338 144.24 99.54 144.24 98.6999958 144.24 97.9966695 144.120001 97.43 143.88 96.8633305 143.639999 96.4100017 143.306669 96.07 142.88 95.7299983 142.453331 95.4866674 141.943336 95.34 141.35 95.1933326 140.756664 95.12 140.10667 95.12 139.4L95.12 133.54 97.54 133.54 97.54 139.02C97.54 140.140006 97.7033317 140.939998 98.03 141.42 98.3566683 141.900002 98.9266626 142.14 99.74 142.14 100.033335 142.14 100.343332 142.126667 100.67 142.1 100.996668 142.073333 101.239999 142.04 101.4 142L101.4 133.54 103.82 133.54 103.82 143.68zM114.7 130.14C114.993335 130.646669 115.319998 131.266663 115.68 132 116.040002 132.733337 116.406665 133.503329 116.78 134.31 117.153335 135.116671 117.523331 135.936663 117.89 136.77 118.256668 137.603338 118.593332 138.37333 118.9 139.08 119.206668 138.37333 119.539998 137.603338 119.9 136.77 120.260002 135.936663 120.626665 135.116671 121 134.31 121.373335 133.503329 121.739998 132.733337 122.1 132 122.460002 131.266663 122.786665 130.646669 123.08 130.14L125.36 130.14C125.480001 131.153338 125.593333 132.229994 125.7 133.37 125.806667 134.510006 125.903333 135.676661 125.99 136.87 126.076667 138.063339 126.156666 139.263327 126.23 140.47 126.303334 141.676673 126.366666 142.853328 126.42 144L123.94 144C123.886666 142.386659 123.823334 140.726675 123.75 139.02 123.676666 137.313325 123.566667 135.660008 123.42 134.06 123.273333 134.366668 123.100001 134.733331 122.9 135.16 122.699999 135.586669 122.486668 136.049997 122.26 136.55 122.033332 137.050003 121.803334 137.566664 121.57 138.1 121.336665 138.633336 121.110001 139.149998 120.89 139.65 120.669999 140.150002 120.466668 140.616665 120.28 141.05 120.093332 141.483336 119.933334 141.853332 119.8 142.16L117.92 142.16C117.786666 141.853332 117.626668 141.480002 117.44 141.04 117.253332 140.599998 117.050001 140.130002 116.83 139.63 116.609999 139.129998 116.383334 138.613336 116.15 138.08 115.916665 137.546664 115.686668 137.033336 115.46 136.54 115.233332 136.046664 115.020001 135.583336 114.82 135.15 114.619999 134.716665 114.446667 134.353335 114.3 134.06 114.153333 135.660008 114.043334 137.313325 113.97 139.02 113.896666 140.726675 113.833334 142.386659 113.78 144L111.3 144C111.353334 142.853328 111.416666 141.666673 111.49 140.44 111.563334 139.213327 111.643333 137.996673 111.73 136.79 111.816667 135.583327 111.913333 134.413339 112.02 133.28 112.126667 132.146661 112.239999 131.100005 112.36 130.14L114.7 130.14zM128.66 138.82C128.66 137.899995 128.796665 137.093337 129.07 136.4 129.343335 135.706663 129.706664 135.130002 130.16 134.67 130.613336 134.209998 131.13333 133.863335 131.72 133.63 132.30667 133.396666 132.906664 133.28 133.52 133.28 134.960007 133.28 136.083329 133.726662 136.89 134.62 137.696671 135.513338 138.1 136.846658 138.1 138.62 138.1 138.753334 138.096667 138.903333 138.09 139.07 138.083333 139.236668 138.073333 139.386666 138.06 139.52L131.16 139.52C131.226667 140.360004 131.523331 141.009998 132.05 141.47 132.576669 141.930002 133.339995 142.16 134.34 142.16 134.92667 142.16 135.463331 142.106667 135.95 142 136.436669 141.893333 136.819999 141.780001 137.1 141.66L137.42 143.64C137.286666 143.706667 137.103334 143.776666 136.87 143.85 136.636665 143.923334 136.370002 143.99 136.07 144.05 135.769998 144.11 135.446668 144.16 135.1 144.2 134.753332 144.24 134.400002 144.26 134.04 144.26 133.119995 144.26 132.320003 144.123335 131.64 143.85 130.959997 143.576665 130.400002 143.196669 129.96 142.71 129.519998 142.223331 129.193334 141.650003 128.98 140.99 128.766666 140.329997 128.66 139.606671 128.66 138.82zM135.68 137.74C135.68 137.406665 135.633334 137.090001 135.54 136.79 135.446666 136.489999 135.310001 136.230001 135.13 136.01 134.949999 135.789999 134.730001 135.616667 134.47 135.49 134.209999 135.363333 133.900002 135.3 133.54 135.3 133.166665 135.3 132.840001 135.369999 132.56 135.51 132.279999 135.650001 132.043334 135.833332 131.85 136.06 131.656666 136.286668 131.506667 136.546665 131.4 136.84 131.293333 137.133335 131.22 137.433332 131.18 137.74L135.68 137.74zM142.56 138.74C142.56 139.806672 142.813331 140.64333 143.32 141.25 143.826669 141.85667 144.526662 142.16 145.42 142.16 145.806669 142.16 146.136665 142.143334 146.41 142.11 146.683335 142.076666 146.906666 142.04 147.08 142L147.08 136C146.866666 135.853333 146.583335 135.716667 146.23 135.59 145.876665 135.463333 145.500002 135.4 145.1 135.4 144.219996 135.4 143.576669 135.699997 143.17 136.3 142.763331 136.900003 142.56 137.713328 142.56 138.74zM149.5 143.68C149.019998 143.826667 148.41667 143.959999 147.69 144.08 146.96333 144.200001 146.200004 144.26 145.4 144.26 144.573329 144.26 143.833337 144.133335 143.18 143.88 142.526663 143.626665 141.970002 143.263336 141.51 142.79 141.049998 142.316664 140.696668 141.743337 140.45 141.07 140.203332 140.396663 140.08 139.640004 140.08 138.8 140.08 137.973329 140.183332 137.223337 140.39 136.55 140.596668 135.876663 140.899998 135.300002 141.3 134.82 141.700002 134.339998 142.186664 133.970001 142.76 133.71 143.333336 133.449999 143.99333 133.32 144.74 133.32 145.246669 133.32 145.693331 133.379999 146.08 133.5 146.466669 133.620001 146.799999 133.753333 147.08 133.9L147.08 128.88 149.5 128.48 149.5 143.68zM155.02 144L152.6 144 152.6 133.54 155.02 133.54 155.02 144zM155.28 130.48C155.28 130.933336 155.133335 131.293332 154.84 131.56 154.546665 131.826668 154.200002 131.96 153.8 131.96 153.386665 131.96 153.033335 131.826668 152.74 131.56 152.446665 131.293332 152.3 130.933336 152.3 130.48 152.3 130.013331 152.446665 129.646668 152.74 129.38 153.033335 129.113332 153.386665 128.98 153.8 128.98 154.200002 128.98 154.546665 129.113332 154.84 129.38 155.133335 129.646668 155.28 130.013331 155.28 130.48zM166.68 143.68C166.213331 143.800001 165.60667 143.923333 164.86 144.05 164.11333 144.176667 163.293338 144.24 162.4 144.24 161.559996 144.24 160.85667 144.120001 160.29 143.88 159.72333 143.639999 159.270002 143.306669 158.93 142.88 158.589998 142.453331 158.346667 141.943336 158.2 141.35 158.053333 140.756664 157.98 140.10667 157.98 139.4L157.98 133.54 160.4 133.54 160.4 139.02C160.4 140.140006 160.563332 140.939998 160.89 141.42 161.216668 141.900002 161.786663 142.14 162.6 142.14 162.893335 142.14 163.203332 142.126667 163.53 142.1 163.856668 142.073333 164.099999 142.04 164.26 142L164.26 133.54 166.68 133.54 166.68 143.68zM175.72 138.5C175.72 137.406661 175.583335 136.616669 175.31 136.13 175.036665 135.643331 174.52667 135.4 173.78 135.4 173.513332 135.4 173.220002 135.42 172.9 135.46 172.579998 135.5 172.340001 135.533333 172.18 135.56L172.18 144 169.76 144 169.76 133.88C170.226669 133.746666 170.836663 133.620001 171.59 133.5 172.343337 133.379999 173.139996 133.32 173.98 133.32 174.700004 133.32 175.289998 133.413332 175.75 133.6 176.210002 133.786668 176.593332 134.033332 176.9 134.34 177.046667 134.233333 177.233332 134.120001 177.46 134 177.686668 133.879999 177.939999 133.770001 178.22 133.67 178.500001 133.569999 178.796665 133.486667 179.11 133.42 179.423335 133.353333 179.739998 133.32 180.06 133.32 180.873337 133.32 181.543331 133.436666 182.07 133.67 182.596669 133.903334 183.009998 134.229998 183.31 134.65 183.610001 135.070002 183.816666 135.576664 183.93 136.17 184.043334 136.763336 184.1 137.41333 184.1 138.12L184.1 144 181.68 144 181.68 138.5C181.68 137.406661 181.546668 136.616669 181.28 136.13 181.013332 135.643331 180.500004 135.4 179.74 135.4 179.353331 135.4 178.986668 135.463333 178.64 135.59 178.293332 135.716667 178.033334 135.839999 177.86 135.96 177.966667 136.293335 178.04 136.646665 178.08 137.02 178.12 137.393335 178.14 137.793331 178.14 138.22L178.14 144 175.72 144 175.72 138.5zM43.02 175.28C42.0466618 175.28 41.2066702 175.143335 40.5 174.87 39.7933298 174.596665 39.2100023 174.216669 38.75 173.73 38.2899977 173.243331 37.9500011 172.663337 37.73 171.99 37.5099989 171.316663 37.4 170.573337 37.4 169.76L37.4 161.14 40.52 161.14 40.52 169.5C40.52 170.060003 40.5833327 170.536665 40.71 170.93 40.8366673 171.323335 41.0099989 171.643332 41.23 171.89 41.4500011 172.136668 41.7166651 172.313333 42.03 172.42 42.3433349 172.526667 42.6866648 172.58 43.06 172.58 43.8200038 172.58 44.4366643 172.346669 44.91 171.88 45.3833357 171.413331 45.62 170.620006 45.62 169.5L45.62 161.14 48.74 161.14 48.74 169.76C48.74 170.573337 48.6266678 171.319997 48.4 172 48.1733322 172.680003 47.826669 173.263331 47.36 173.75 46.893331 174.236669 46.3000036 174.613332 45.58 174.88 44.8599964 175.146668 44.0066716 175.28 43.02 175.28zM58.28 169.66C58.28 167.73999 57.5733404 166.78 56.16 166.78 55.8533318 166.78 55.5500015 166.82 55.25 166.9 54.9499985 166.98 54.7066676 167.079999 54.52 167.2L54.52 172.62C54.6666674 172.646667 54.8533322 172.67 55.08 172.69 55.3066678 172.71 55.553332 172.72 55.82 172.72 56.6333374 172.72 57.2466646 172.440003 57.66 171.88 58.0733354 171.319997 58.28 170.580005 58.28 169.66zM61.32 169.74C61.32 170.580004 61.1966679 171.339997 60.95 172.02 60.7033321 172.700003 60.346669 173.279998 59.88 173.76 59.413331 174.240002 58.8400034 174.609999 58.16 174.87 57.4799966 175.130001 56.706671 175.26 55.84 175.26 55.4799982 175.26 55.1033353 175.243334 54.71 175.21 54.3166647 175.176667 53.9300019 175.133334 53.55 175.08 53.1699981 175.026666 52.8066684 174.963334 52.46 174.89 52.1133316 174.816666 51.806668 174.74 51.54 174.66L51.54 159.96 54.52 159.48 54.52 164.72C54.853335 164.573333 55.1999982 164.46 55.56 164.38 55.9200018 164.3 56.3066646 164.26 56.72 164.26 57.4666704 164.26 58.1266638 164.389999 58.7 164.65 59.2733362 164.910001 59.7533314 165.279998 60.14 165.76 60.5266686 166.240002 60.819999 166.816663 61.02 167.49 61.220001 168.163337 61.32 168.913329 61.32 169.74zM72.6 174.64C72.0933308 174.786667 71.440004 174.923333 70.64 175.05 69.839996 175.176667 69.0000044 175.24 68.12 175.24 67.2266622 175.24 66.4833363 175.120001 65.89 174.88 65.2966637 174.639999 64.8266684 174.303336 64.48 173.87 64.1333316 173.436665 63.8866674 172.920003 63.74 172.32 63.5933326 171.719997 63.52 171.060004 63.52 170.34L63.52 164.48 66.5 164.48 66.5 169.98C66.5 170.940005 66.6266654 171.633331 66.88 172.06 67.1333346 172.486669 67.6066632 172.7 68.3 172.7 68.5133344 172.7 68.7399988 172.69 68.98 172.67 69.2200012 172.65 69.4333324 172.626667 69.62 172.6L69.62 164.48 72.6 164.48 72.6 174.64zM75.4 164.84C75.9066692 164.693333 76.559996 164.556667 77.36 164.43 78.160004 164.303333 78.9999956 164.24 79.88 164.24 80.7733378 164.24 81.5166637 164.356665 82.11 164.59 82.7033363 164.823334 83.1733316 165.153331 83.52 165.58 83.8666684 166.006669 84.1133326 166.51333 84.26 167.1 84.4066674 167.68667 84.48 168.339996 84.48 169.06L84.48 175 81.5 175 81.5 169.42C81.5 168.459995 81.3733346 167.780002 81.12 167.38 80.8666654 166.979998 80.3933368 166.78 79.7 166.78 79.4866656 166.78 79.2600012 166.79 79.02 166.81 78.7799988 166.83 78.5666676 166.853333 78.38 166.88L78.38 175 75.4 175 75.4 164.84zM87.08 161.86L90.06 161.38 90.06 164.48 93.64 164.48 93.64 166.96 90.06 166.96 90.06 170.66C90.06 171.28667 90.1699989 171.786665 90.39 172.16 90.6100011 172.533335 91.05333 172.72 91.72 172.72 92.0400016 172.72 92.3699983 172.69 92.71 172.63 93.0500017 172.57 93.3599986 172.486667 93.64 172.38L94.06 174.7C93.6999982 174.846667 93.3000022 174.973333 92.86 175.08 92.4199978 175.186667 91.8800032 175.24 91.24 175.24 90.4266626 175.24 89.753336 175.130001 89.22 174.91 88.686664 174.689999 88.2600016 174.383335 87.94 173.99 87.6199984 173.596665 87.3966673 173.120003 87.27 172.56 87.1433327 171.999997 87.08 171.380003 87.08 170.7L87.08 161.86zM105.04 174.64C104.533331 174.786667 103.880004 174.923333 103.08 175.05 102.279996 175.176667 101.440004 175.24 100.56 175.24 99.6666622 175.24 98.9233363 175.120001 98.33 174.88 97.7366637 174.639999 97.2666684 174.303336 96.92 173.87 96.5733316 173.436665 96.3266674 172.920003 96.18 172.32 96.0333326 171.719997 95.96 171.060004 95.96 170.34L95.96 164.48 98.94 164.48 98.94 169.98C98.94 170.940005 99.0666654 171.633331 99.32 172.06 99.5733346 172.486669 100.046663 172.7 100.74 172.7 100.953334 172.7 101.179999 172.69 101.42 172.67 101.660001 172.65 101.873332 172.626667 102.06 172.6L102.06 164.48 105.04 164.48 105.04 174.64zM117.46 175.18C116.699996 175.18 115.943337 175.156667 115.19 175.11 114.436663 175.063333 113.653337 174.953334 112.84 174.78L112.84 161.34C113.480003 161.219999 114.179996 161.13 114.94 161.07 115.700004 161.01 116.406663 160.98 117.06 160.98 117.940004 160.98 118.749996 161.043333 119.49 161.17 120.230004 161.296667 120.866664 161.513332 121.4 161.82 121.933336 162.126668 122.349998 162.529998 122.65 163.03 122.950001 163.530002 123.1 164.146663 123.1 164.88 123.1 165.986672 122.566672 166.859997 121.5 167.5 122.380004 167.833335 122.979998 168.286664 123.3 168.86 123.620002 169.433336 123.78 170.079996 123.78 170.8 123.78 172.253341 123.250005 173.346663 122.19 174.08 121.129995 174.813337 119.553344 175.18 117.46 175.18zM115.88 168.96L115.88 172.54C116.106668 172.566667 116.353332 172.586667 116.62 172.6 116.886668 172.613333 117.179998 172.62 117.5 172.62 118.433338 172.62 119.186664 172.486668 119.76 172.22 120.333336 171.953332 120.62 171.460004 120.62 170.74 120.62 170.099997 120.380002 169.643335 119.9 169.37 119.419998 169.096665 118.733338 168.96 117.84 168.96L115.88 168.96zM115.88 166.58L117.4 166.58C118.360005 166.58 119.046665 166.456668 119.46 166.21 119.873335 165.963332 120.08 165.566669 120.08 165.02 120.08 164.459997 119.866669 164.066668 119.44 163.84 119.013331 163.613332 118.386671 163.5 117.56 163.5 117.293332 163.5 117.006668 163.503333 116.7 163.51 116.393332 163.516667 116.120001 163.533333 115.88 163.56L115.88 166.58zM135.92 169.72C135.92 170.546671 135.800001 171.30333 135.56 171.99 135.319999 172.67667 134.973336 173.263331 134.52 173.75 134.066664 174.236669 133.523336 174.613332 132.89 174.88 132.256663 175.146668 131.546671 175.28 130.76 175.28 129.986663 175.28 129.283336 175.146668 128.65 174.88 128.016663 174.613332 127.473336 174.236669 127.02 173.75 126.566664 173.263331 126.213335 172.67667 125.96 171.99 125.706665 171.30333 125.58 170.546671 125.58 169.72 125.58 168.893329 125.709999 168.140003 125.97 167.46 126.230001 166.779997 126.589998 166.200002 127.05 165.72 127.510002 165.239998 128.056663 164.866668 128.69 164.6 129.323336 164.333332 130.01333 164.2 130.76 164.2 131.520004 164.2 132.216663 164.333332 132.85 164.6 133.483336 164.866668 134.026664 165.239998 134.48 165.72 134.933336 166.200002 135.286665 166.779997 135.54 167.46 135.793335 168.140003 135.92 168.893329 135.92 169.72zM132.88 169.72C132.88 168.799995 132.696668 168.076669 132.33 167.55 131.963331 167.023331 131.440003 166.76 130.76 166.76 130.079997 166.76 129.553335 167.023331 129.18 167.55 128.806665 168.076669 128.62 168.799995 128.62 169.72 128.62 170.640005 128.806665 171.369997 129.18 171.91 129.553335 172.450003 130.079997 172.72 130.76 172.72 131.440003 172.72 131.963331 172.450003 132.33 171.91 132.696668 171.369997 132.88 170.640005 132.88 169.72zM142.42 175.2C141.553329 175.186667 140.850003 175.093334 140.31 174.92 139.769997 174.746666 139.343335 174.503335 139.03 174.19 138.716665 173.876665 138.503334 173.496669 138.39 173.05 138.276666 172.603331 138.22 172.100003 138.22 171.54L138.22 159.96 141.2 159.48 141.2 170.94C141.2 171.206668 141.22 171.446666 141.26 171.66 141.3 171.873334 141.376666 172.053333 141.49 172.2 141.603334 172.346667 141.766666 172.466666 141.98 172.56 142.193334 172.653334 142.479998 172.713333 142.84 172.74L142.42 175.2zM147.08 169.66C147.08 170.580005 147.286665 171.319997 147.7 171.88 148.113335 172.440003 148.726663 172.72 149.54 172.72 149.806668 172.72 150.053332 172.71 150.28 172.69 150.506668 172.67 150.693333 172.646667 150.84 172.62L150.84 167.2C150.653332 167.079999 150.410001 166.98 150.11 166.9 149.809998 166.82 149.506668 166.78 149.2 166.78 147.78666 166.78 147.08 167.73999 147.08 169.66zM153.82 174.66C153.553332 174.74 153.246668 174.816666 152.9 174.89 152.553332 174.963334 152.190002 175.026666 151.81 175.08 151.429998 175.133334 151.043335 175.176667 150.65 175.21 150.256665 175.243334 149.880002 175.26 149.52 175.26 148.653329 175.26 147.880003 175.133335 147.2 174.88 146.519997 174.626665 145.946669 174.263336 145.48 173.79 145.013331 173.316664 144.656668 172.743337 144.41 172.07 144.163332 171.396663 144.04 170.640004 144.04 169.8 144.04 168.946662 144.146666 168.17667 144.36 167.49 144.573334 166.80333 144.879998 166.220002 145.28 165.74 145.680002 165.259998 146.169997 164.893335 146.75 164.64 147.330003 164.386665 147.99333 164.26 148.74 164.26 149.153335 164.26 149.523332 164.3 149.85 164.38 150.176668 164.46 150.506665 164.573333 150.84 164.72L150.84 159.96 153.82 159.48 153.82 174.66z"/>
  </g>
</svg>
