<svg xmlns="http://www.w3.org/2000/svg" width="300" height="180" style="background:#f9f9fa" viewBox="0 0 300 180">
  <g fill="none" fill-rule="evenodd">
    <path fill="#0060DF" d="M162.345947,87.7319336 L162.409424,87.7319336 L164.523193,95 L165.602295,95 L168.096924,85.840332 L166.903564,85.840332 L165.069092,93.3178711 L165.018311,93.3178711 L162.955322,85.840332 L161.800049,85.840332 L159.737061,93.3178711 L159.686279,93.3178711 L157.851807,85.840332 L156.658447,85.840332 L159.153076,95 L160.232178,95 L162.345947,87.7319336 Z M169.156982,95 L170.261475,95 L170.261475,91.1533203 C170.261475,90.0107422 170.940674,89.2617188 172.038818,89.2617188 C173.073486,89.2617188 173.600342,89.8901367 173.600342,90.9375 L173.600342,95 L174.704834,95 L174.704834,90.734375 C174.704834,89.2617188 173.828857,88.2841797 172.381592,88.2841797 C171.378662,88.2841797 170.655029,88.7158203 170.286865,89.4521484 L170.261475,89.4521484 L170.261475,85.840332 L169.156982,85.840332 L169.156982,95 Z M178.284912,94.1748047 C179.325928,94.1748047 180.125732,93.4448242 180.125732,92.4926758 L180.125732,91.953125 L178.361084,92.0610352 C177.472412,92.1181641 176.9646,92.5117188 176.9646,93.1337891 C176.9646,93.762207 177.491455,94.1748047 178.284912,94.1748047 Z M178.037354,95.1142578 C176.723389,95.1142578 175.841064,94.3208008 175.841064,93.1337891 C175.841064,92.0039062 176.710693,91.2929688 178.234131,91.2041016 L180.125732,91.0961914 L180.125732,90.5439453 C180.125732,89.737793 179.592529,89.2553711 178.678467,89.2553711 C177.827881,89.2553711 177.294678,89.6552734 177.155029,90.3027344 L176.088623,90.3027344 C176.164795,89.1601562 177.142334,88.2841797 178.703857,88.2841797 C180.252686,88.2841797 181.230225,89.1220703 181.230225,90.4360352 L181.230225,95 L180.182861,95 L180.182861,93.8637695 L180.157471,93.8637695 C179.763916,94.6191406 178.926025,95.1142578 178.037354,95.1142578 Z M182.988525,86.8051758 L182.988525,88.3984375 L182.004639,88.3984375 L182.004639,89.3061523 L182.988525,89.3061523 L182.988525,93.2861328 C182.988525,94.5556641 183.458252,95.0507812 184.670654,95.0507812 C184.930908,95.0507812 185.235596,95.0317383 185.368896,95 L185.368896,94.0732422 C185.292725,94.0859375 185.038818,94.1049805 184.911865,94.1049805 C184.346924,94.1049805 184.093018,93.8320312 184.093018,93.2290039 L184.093018,89.3061523 L185.375244,89.3061523 L185.375244,88.3984375 L184.093018,88.3984375 L184.093018,86.8051758 L182.988525,86.8051758 Z M187.374756,89.0712891 L188.244385,85.840332 L187.070068,85.840332 L186.454346,89.0712891 L187.374756,89.0712891 Z M188.707764,90.2202148 C188.707764,91.121582 189.279053,91.7182617 190.440674,92.0166016 L191.602295,92.3149414 C192.344971,92.5117188 192.61792,92.765625 192.61792,93.2353516 C192.61792,93.8320312 192.065674,94.2128906 191.170654,94.2128906 C190.275635,94.2128906 189.755127,93.8447266 189.634521,93.1591797 L188.530029,93.1591797 C188.644287,94.3271484 189.653564,95.1142578 191.10083,95.1142578 C192.643311,95.1142578 193.72876,94.3017578 193.72876,93.152832 C193.72876,92.1816406 193.246338,91.6992188 191.91333,91.362793 L190.891357,91.1152344 C190.142334,90.9248047 189.793213,90.6201172 189.793213,90.1630859 C189.793213,89.5854492 190.326416,89.1855469 191.132568,89.1855469 C191.945068,89.1855469 192.459229,89.5791016 192.5354,90.2138672 L193.589111,90.2138672 C193.53833,89.0966797 192.5354,88.2841797 191.170654,88.2841797 C189.717041,88.2841797 188.707764,89.090332 188.707764,90.2202148 Z M197.537354,95 L198.641846,95 L198.641846,91.1152344 C198.641846,89.9980469 199.321045,89.2617188 200.362061,89.2617188 C201.377686,89.2617188 201.87915,89.8457031 201.87915,90.9121094 L201.87915,95 L202.983643,95 L202.983643,90.715332 C202.983643,89.2172852 202.145752,88.2841797 200.698486,88.2841797 C199.676514,88.2841797 198.971924,88.7412109 198.60376,89.4521484 L198.578369,89.4521484 L198.578369,88.3984375 L197.537354,88.3984375 L197.537354,95 Z M207.033447,89.2426758 C205.998779,89.2426758 205.275146,90.0361328 205.205322,91.1342773 L208.791748,91.1342773 C208.766357,90.0297852 208.074463,89.2426758 207.033447,89.2426758 Z M208.766357,93.1083984 L209.851807,93.1083984 C209.661377,94.2636719 208.544189,95.1142578 207.103271,95.1142578 C205.21167,95.1142578 204.062744,93.800293 204.062744,91.7246094 C204.062744,89.6743164 205.230713,88.2841797 207.05249,88.2841797 C208.836182,88.2841797 209.934326,89.5791016 209.934326,91.5786133 L209.934326,91.9975586 L205.198975,91.9975586 L205.198975,92.0610352 C205.198975,93.3242188 205.94165,94.1557617 207.128662,94.1557617 C207.966553,94.1557617 208.582275,93.7304688 208.766357,93.1083984 Z M219.443115,88.3984375 L218.351318,88.3984375 L217.031006,93.7685547 L217.005615,93.7685547 L215.507568,88.3984375 L214.441162,88.3984375 L212.949463,93.7685547 L212.924072,93.7685547 L211.60376,88.3984375 L210.505615,88.3984375 L212.352783,95 L213.476318,95 L214.96167,89.8901367 L214.987061,89.8901367 L216.47876,95 L217.602295,95 L219.443115,88.3984375 Z"/>
    <path fill="#0C0C0D" d="M64.8815918,95 L63.751709,95 L60.3747559,85.840332 L61.5744629,85.840332 L64.2976074,93.6098633 L64.3356934,93.6098633 L67.0588379,85.840332 L68.2585449,85.840332 L64.8815918,95 Z M70.8928223,89.2426758 C69.8581543,89.2426758 69.1345215,90.0361328 69.0646973,91.1342773 L72.651123,91.1342773 C72.6257324,90.0297852 71.9338379,89.2426758 70.8928223,89.2426758 Z M72.6257324,93.1083984 L73.7111816,93.1083984 C73.520752,94.2636719 72.4035645,95.1142578 70.9626465,95.1142578 C69.0710449,95.1142578 67.9221191,93.800293 67.9221191,91.7246094 C67.9221191,89.6743164 69.0900879,88.2841797 70.9118652,88.2841797 C72.6955566,88.2841797 73.7937012,89.5791016 73.7937012,91.5786133 L73.7937012,91.9975586 L69.0583496,91.9975586 L69.0583496,92.0610352 C69.0583496,93.3242188 69.8010254,94.1557617 70.9880371,94.1557617 C71.8259277,94.1557617 72.4416504,93.7304688 72.6257324,93.1083984 Z M74.904541,95 L76.0090332,95 L76.0090332,90.8867188 C76.0090332,89.9536133 76.567627,89.3378906 77.4245605,89.3378906 C77.6911621,89.3378906 77.9260254,89.3696289 78.0148926,89.4013672 L78.0148926,88.3286133 C77.9260254,88.315918 77.7609863,88.2841797 77.5705566,88.2841797 C76.7961426,88.2841797 76.1867676,88.7475586 75.9709473,89.4775391 L75.9455566,89.4775391 L75.9455566,88.3984375 L74.904541,88.3984375 L74.904541,95 Z M78.7956543,90.2202148 C78.7956543,91.121582 79.3669434,91.7182617 80.5285645,92.0166016 L81.6901855,92.3149414 C82.4328613,92.5117188 82.7058105,92.765625 82.7058105,93.2353516 C82.7058105,93.8320312 82.1535645,94.2128906 81.2585449,94.2128906 C80.3635254,94.2128906 79.8430176,93.8447266 79.7224121,93.1591797 L78.6179199,93.1591797 C78.7321777,94.3271484 79.7414551,95.1142578 81.1887207,95.1142578 C82.7312012,95.1142578 83.8166504,94.3017578 83.8166504,93.152832 C83.8166504,92.1816406 83.3342285,91.6992188 82.0012207,91.362793 L80.979248,91.1152344 C80.2302246,90.9248047 79.8811035,90.6201172 79.8811035,90.1630859 C79.8811035,89.5854492 80.4143066,89.1855469 81.220459,89.1855469 C82.032959,89.1855469 82.5471191,89.5791016 82.623291,90.2138672 L83.677002,90.2138672 C83.6262207,89.0966797 82.623291,88.2841797 81.2585449,88.2841797 C79.8049316,88.2841797 78.7956543,89.090332 78.7956543,90.2202148 Z M85.0163574,95 L86.1208496,95 L86.1208496,88.3984375 L85.0163574,88.3984375 L85.0163574,95 Z M85.5686035,87.2875977 C85.9494629,87.2875977 86.260498,86.9765625 86.260498,86.6020508 C86.260498,86.2211914 85.9494629,85.9165039 85.5686035,85.9165039 C85.1940918,85.9165039 84.8830566,86.2211914 84.8830566,86.6020508 C84.8830566,86.9765625 85.1940918,87.2875977 85.5686035,87.2875977 Z M90.3483887,95.1142578 C88.5202637,95.1142578 87.2888184,93.800293 87.2888184,91.6992188 C87.2888184,89.5917969 88.5202637,88.2841797 90.3483887,88.2841797 C92.170166,88.2841797 93.4016113,89.5917969 93.4016113,91.6992188 C93.4016113,93.800293 92.170166,95.1142578 90.3483887,95.1142578 Z M90.3483887,94.1430664 C91.5163574,94.1430664 92.2780762,93.2543945 92.2780762,91.6992188 C92.2780762,90.144043 91.5163574,89.2553711 90.3483887,89.2553711 C89.1804199,89.2553711 88.4123535,90.144043 88.4123535,91.6992188 C88.4123535,93.2543945 89.1804199,94.1430664 90.3483887,94.1430664 Z M94.5124512,95 L95.6169434,95 L95.6169434,91.1152344 C95.6169434,89.9980469 96.2961426,89.2617188 97.3371582,89.2617188 C98.3527832,89.2617188 98.854248,89.8457031 98.854248,90.9121094 L98.854248,95 L99.9587402,95 L99.9587402,90.715332 C99.9587402,89.2172852 99.1208496,88.2841797 97.673584,88.2841797 C96.6516113,88.2841797 95.9470215,88.7412109 95.5788574,89.4521484 L95.5534668,89.4521484 L95.5534668,88.3984375 L94.5124512,88.3984375 L94.5124512,95 Z M107.201416,95.1523438 C109.112061,95.1523438 110.464111,93.8637695 110.464111,92.0229492 C110.464111,90.2456055 109.19458,88.9570312 107.436279,88.9570312 C106.560303,88.9570312 105.798584,89.2871094 105.385986,89.8393555 L105.360596,89.8393555 L105.639893,86.855957 L109.943604,86.855957 L109.943604,85.840332 L104.700439,85.840332 L104.198975,90.9692383 L105.271729,90.9692383 C105.64624,90.328125 106.376221,89.940918 107.233154,89.940918 C108.451904,89.940918 109.321533,90.8232422 109.321533,92.0546875 C109.321533,93.2861328 108.458252,94.1494141 107.214111,94.1494141 C106.115967,94.1494141 105.284424,93.4765625 105.182861,92.4990234 L104.059326,92.4990234 C104.154541,94.0605469 105.449463,95.1523438 107.201416,95.1523438 Z M112.184326,95 L113.384033,95 L117.459229,86.9003906 L117.459229,85.840332 L111.397217,85.840332 L111.397217,86.855957 L116.329346,86.855957 L116.329346,86.8813477 L112.184326,95 Z M118.278076,95.0634766 C118.684326,95.0634766 119.001709,94.7460938 119.001709,94.3398438 C119.001709,93.9335938 118.684326,93.6162109 118.278076,93.6162109 C117.871826,93.6162109 117.554443,93.9335938 117.554443,94.3398438 C117.554443,94.7460938 117.871826,95.0634766 118.278076,95.0634766 Z M123.876709,95.1523438 C121.737549,95.1523438 120.499756,93.3115234 120.499756,90.4169922 C120.499756,87.5478516 121.750244,85.6879883 123.876709,85.6879883 C126.003174,85.6879883 127.240967,87.5351562 127.240967,90.4106445 C127.240967,93.3051758 126.009521,95.1523438 123.876709,95.1523438 Z M123.876709,94.1557617 C125.304932,94.1557617 126.092041,92.7021484 126.092041,90.4169922 C126.092041,88.1635742 125.292236,86.690918 123.876709,86.690918 C122.461182,86.690918 121.648682,88.1762695 121.648682,90.4106445 C121.648682,92.6958008 122.442139,94.1557617 123.876709,94.1557617 Z M130.706787,94.1748047 C131.747803,94.1748047 132.547607,93.4448242 132.547607,92.4926758 L132.547607,91.953125 L130.782959,92.0610352 C129.894287,92.1181641 129.386475,92.5117188 129.386475,93.1337891 C129.386475,93.762207 129.91333,94.1748047 130.706787,94.1748047 Z M130.459229,95.1142578 C129.145264,95.1142578 128.262939,94.3208008 128.262939,93.1337891 C128.262939,92.0039062 129.132568,91.2929688 130.656006,91.2041016 L132.547607,91.0961914 L132.547607,90.5439453 C132.547607,89.737793 132.014404,89.2553711 131.100342,89.2553711 C130.249756,89.2553711 129.716553,89.6552734 129.576904,90.3027344 L128.510498,90.3027344 C128.58667,89.1601562 129.564209,88.2841797 131.125732,88.2841797 C132.674561,88.2841797 133.6521,89.1220703 133.6521,90.4360352 L133.6521,95 L132.604736,95 L132.604736,93.8637695 L132.579346,93.8637695 C132.185791,94.6191406 131.3479,95.1142578 130.459229,95.1142578 Z M137.098877,95 L138.203369,95 L138.203369,85.840332 L137.086182,85.840332 L134.648682,87.5922852 L134.648682,88.7983398 L137.073486,87.0527344 L137.098877,87.0527344 L137.098877,95 Z"/>
    <g fill="#0060DF" fill-rule="nonzero" transform="translate(224 82)">
      <path d="M14.9231352,1.61691485 C14.7689608,1.2439241 14.4053543,1.00046922 14.0017559,1 L9.01053546,1 C8.45922048,1 8.01229137,1.4469291 8.01229137,1.99824409 C8.01229137,2.54955908 8.45922048,2.99648818 9.01053546,2.99648818 L11.5919947,2.99648818 L8.30477689,6.28370597 C8.04527677,6.53433957 7.94120382,6.90549014 8.03255857,7.25450565 C8.12391331,7.60352117 8.39647883,7.87608669 8.74549435,7.96744143 C9.09450986,8.05879618 9.46566043,7.95472323 9.71629403,7.69522311 L13.0035118,4.40800532 L13.0035118,6.98946454 C13.0035118,7.54077952 13.4504409,7.98770863 14.0017559,7.98770863 C14.5530709,7.98770863 15,7.54077952 15,6.98946454 L15,1.99824409 C14.9996322,1.86732372 14.9735148,1.73775431 14.9231352,1.61691485 L14.9231352,1.61691485 Z"/>
      <path d="M14,10 C13.4477153,10 13,10.4477153 13,11 L13,13 L3,13 L3,3 L5,3 C5.55228475,3 6,2.55228475 6,2 C6,1.44771525 5.55228475,1 5,1 L2,1 C1.44771525,1 1,1.44771525 1,2 L1,14 C1,14.5522847 1.44771525,15 2,15 L14,15 C14.5522847,15 15,14.5522847 15,14 L15,11 C15,10.4477153 14.5522847,10 14,10 Z"/>
    </g>
  </g>
</svg>
