<svg xmlns="http://www.w3.org/2000/svg" xmlns:xlink="http://www.w3.org/1999/xlink" width="360" height="240" style="background:#f9f9fa" viewBox="0 0 360 240">
  <defs>
    <rect id="button-micro-example-b" width="393" height="240" x="-17" y="-16" rx="4"/>
    <filter id="button-micro-example-a" width="106.6%" height="110.8%" x="-3.3%" y="-4.6%" filterUnits="objectBoundingBox">
      <feOffset dy="2" in="SourceAlpha" result="shadowOffsetOuter1"/>
      <feGaussianBlur in="shadowOffsetOuter1" result="shadowBlurOuter1" stdDeviation="4"/>
      <feColorMatrix in="shadowBlurOuter1" values="0 0 0 0 0.0470588235   0 0 0 0 0.0470588235   0 0 0 0 0.0509803922  0 0 0 0.1 0"/>
    </filter>
  </defs>
  <g fill="none" fill-rule="evenodd">
    <use fill="#000" filter="url(#button-micro-example-a)" xlink:href="#button-micro-example-b"/>
    <use fill="#FFF" xlink:href="#button-micro-example-b"/>
    <rect width="296" height="48" x="32" y="-24" fill="#0060DF" rx="4"/>
    <path fill="#FFF" d="M159.44458,1.09228516 C159.569092,2.95996094 161.121826,4.17578125 163.363037,4.17578125 C165.794678,4.17578125 167.318115,2.96728516 167.318115,1.03369141 C167.318115,-0.482421875 166.431885,-1.32470703 164.241943,-1.87402344 L163.135986,-2.16699219 C161.700439,-2.54052734 161.114502,-3.01660156 161.114502,-3.81494141 C161.114502,-4.84765625 162.06665,-5.55810547 163.436279,-5.55810547 C164.813232,-5.55810547 165.72876,-4.86230469 165.845947,-3.72705078 L167.164307,-3.72705078 C167.105713,-5.49951172 165.582275,-6.74462891 163.480225,-6.74462891 C161.282959,-6.74462891 159.744873,-5.51416016 159.744873,-3.75634766 C159.744873,-2.32080078 160.609131,-1.46386719 162.557373,-0.965820313 L163.912354,-0.614257813 C165.333252,-0.248046875 165.955811,0.301269531 165.955811,1.19482422 C165.955811,2.23486328 164.915771,2.98925781 163.487549,2.98925781 C161.97876,2.98925781 160.894775,2.23486328 160.770264,1.09228516 L159.44458,1.09228516 Z M168.724365,4 L169.998779,4 L169.998779,-3.6171875 L168.724365,-3.6171875 L168.724365,4 Z M169.361572,-4.89892578 C169.801025,-4.89892578 170.159912,-5.2578125 170.159912,-5.68994141 C170.159912,-6.12939453 169.801025,-6.48095703 169.361572,-6.48095703 C168.929443,-6.48095703 168.570557,-6.12939453 168.570557,-5.68994141 C168.570557,-5.2578125 168.929443,-4.89892578 169.361572,-4.89892578 Z M174.818115,2.93798828 C176.143799,2.93798828 177.030029,1.83935547 177.030029,0.162109375 C177.030029,-1.51513672 176.143799,-2.62841797 174.818115,-2.62841797 C173.50708,-2.62841797 172.650146,-1.54443359 172.650146,0.162109375 C172.650146,1.86865234 173.50708,2.93798828 174.818115,2.93798828 Z M174.862061,6.87109375 C173.184814,6.87109375 171.859131,5.92626953 171.646729,4.62988281 L172.957764,4.62988281 C173.206787,5.32568359 173.961182,5.78710937 174.91333,5.78710937 C176.231689,5.78710937 177.030029,5.02539062 177.030029,3.89013672 L177.030029,2.68896484 L177.000732,2.68896484 C176.531982,3.51660156 175.631104,4.05859375 174.561768,4.05859375 C172.62085,4.05859375 171.346436,2.52783203 171.346436,0.162109375 C171.346436,-2.22558594 172.62085,-3.74902344 174.591064,-3.74902344 C175.667725,-3.74902344 176.561279,-3.22167969 177.06665,-2.33544922 L177.088623,-2.33544922 L177.088623,-3.6171875 L178.304443,-3.6171875 L178.304443,3.84619141 C178.304443,5.66259766 176.964111,6.87109375 174.862061,6.87109375 Z M179.959717,4 L181.234131,4 L181.234131,-0.482421875 C181.234131,-1.77148438 182.017822,-2.62109375 183.218994,-2.62109375 C184.390869,-2.62109375 184.969482,-1.94726563 184.969482,-0.716796875 L184.969482,4 L186.243896,4 L186.243896,-0.943847656 C186.243896,-2.67236328 185.2771,-3.74902344 183.607178,-3.74902344 C182.427979,-3.74902344 181.61499,-3.22167969 181.190186,-2.40136719 L181.160889,-2.40136719 L181.160889,-3.6171875 L179.959717,-3.6171875 L179.959717,4 Z M191.004639,4 L192.279053,4 L192.279053,-3.6171875 L191.004639,-3.6171875 L191.004639,4 Z M191.641846,-4.89892578 C192.081299,-4.89892578 192.440186,-5.2578125 192.440186,-5.68994141 C192.440186,-6.12939453 192.081299,-6.48095703 191.641846,-6.48095703 C191.209717,-6.48095703 190.85083,-6.12939453 190.85083,-5.68994141 C190.85083,-5.2578125 191.209717,-4.89892578 191.641846,-4.89892578 Z M194.000244,4 L195.274658,4 L195.274658,-0.482421875 C195.274658,-1.77148438 196.05835,-2.62109375 197.259521,-2.62109375 C198.431396,-2.62109375 199.01001,-1.94726563 199.01001,-0.716796875 L199.01001,4 L200.284424,4 L200.284424,-0.943847656 C200.284424,-2.67236328 199.317627,-3.74902344 197.647705,-3.74902344 C196.468506,-3.74902344 195.655518,-3.22167969 195.230713,-2.40136719 L195.201416,-2.40136719 L195.201416,-3.6171875 L194.000244,-3.6171875 L194.000244,4 Z"/>
    <rect width="82" height="24" x="139" y="164" fill="#0060DF" rx="2"/>
    <path fill="#FFF" d="M147,177.74707 C147.091309,179.116699 148.22998,180.008301 149.873535,180.008301 C151.656738,180.008301 152.773926,179.12207 152.773926,177.704102 C152.773926,176.592285 152.124023,175.974609 150.518066,175.571777 L149.707031,175.356934 C148.654297,175.083008 148.224609,174.733887 148.224609,174.148438 C148.224609,173.391113 148.922852,172.870117 149.927246,172.870117 C150.937012,172.870117 151.608398,173.380371 151.694336,174.212891 L152.661133,174.212891 C152.618164,172.913086 151.500977,172 149.959473,172 C148.348145,172 147.220215,172.902344 147.220215,174.191406 C147.220215,175.244141 147.854004,175.872559 149.282715,176.237793 L150.276367,176.495605 C151.318359,176.76416 151.774902,177.166992 151.774902,177.822266 C151.774902,178.584961 151.012207,179.138184 149.964844,179.138184 C148.858398,179.138184 148.063477,178.584961 147.972168,177.74707 L147,177.74707 Z M154.739746,176.774902 L154.739746,172.128906 L153.805176,172.128906 L153.805176,179.879395 L154.739746,179.879395 L154.739746,177.773926 L155.260742,177.279785 L157.333984,179.879395 L158.418945,179.879395 L155.921387,176.705078 L158.34375,174.293457 L157.210449,174.293457 L154.739746,176.774902 Z M159.144043,179.879395 L160.078613,179.879395 L160.078613,174.293457 L159.144043,174.293457 L159.144043,179.879395 Z M159.611328,173.353516 C159.933594,173.353516 160.196777,173.090332 160.196777,172.773438 C160.196777,172.451172 159.933594,172.193359 159.611328,172.193359 C159.294434,172.193359 159.03125,172.451172 159.03125,172.773438 C159.03125,173.090332 159.294434,173.353516 159.611328,173.353516 Z M164.053223,174.196777 C165.476562,174.196777 166.443359,175.335449 166.443359,177.086426 C166.443359,178.837402 165.481934,179.976074 164.074707,179.976074 C163.274414,179.976074 162.629883,179.583984 162.296875,178.97168 L162.275391,178.97168 L162.275391,181.743164 L161.34082,181.743164 L161.34082,174.293457 L162.227051,174.293457 L162.227051,175.23877 L162.248535,175.23877 C162.592285,174.610352 163.242188,174.196777 164.053223,174.196777 Z M163.870605,179.154297 C164.864258,179.154297 165.487305,178.354004 165.487305,177.086426 C165.487305,175.824219 164.864258,175.018555 163.870605,175.018555 C162.914551,175.018555 162.27002,175.845703 162.27002,177.086426 C162.27002,178.33252 162.914551,179.154297 163.870605,179.154297 Z M172.711426,179.879395 L172.711426,172.999023 L175.155273,172.999023 L175.155273,172.128906 L169.300781,172.128906 L169.300781,172.999023 L171.744629,172.999023 L171.744629,179.879395 L172.711426,179.879395 Z M176.079102,179.879395 L177.013672,179.879395 L177.013672,176.624512 C177.013672,175.657715 177.588379,175.023926 178.517578,175.023926 C179.393066,175.023926 179.838867,175.555664 179.838867,176.441895 L179.838867,179.879395 L180.773438,179.879395 L180.773438,176.27002 C180.773438,175.023926 180.032227,174.196777 178.807617,174.196777 C177.958984,174.196777 177.34668,174.562012 177.035156,175.185059 L177.013672,175.185059 L177.013672,172.128906 L176.079102,172.128906 L176.079102,179.879395 Z M182.008789,179.879395 L182.943359,179.879395 L182.943359,174.293457 L182.008789,174.293457 L182.008789,179.879395 Z M182.476074,173.353516 C182.79834,173.353516 183.061523,173.090332 183.061523,172.773438 C183.061523,172.451172 182.79834,172.193359 182.476074,172.193359 C182.15918,172.193359 181.895996,172.451172 181.895996,172.773438 C181.895996,173.090332 182.15918,173.353516 182.476074,173.353516 Z M184.108887,175.834961 C184.108887,176.597656 184.592285,177.102539 185.575195,177.35498 L186.558105,177.607422 C187.186523,177.773926 187.41748,177.98877 187.41748,178.38623 C187.41748,178.891113 186.950195,179.213379 186.192871,179.213379 C185.435547,179.213379 184.995117,178.901855 184.893066,178.321777 L183.958496,178.321777 C184.055176,179.310059 184.90918,179.976074 186.133789,179.976074 C187.438965,179.976074 188.357422,179.288574 188.357422,178.316406 C188.357422,177.494629 187.949219,177.086426 186.821289,176.801758 L185.956543,176.592285 C185.322754,176.431152 185.027344,176.17334 185.027344,175.786621 C185.027344,175.297852 185.478516,174.959473 186.160645,174.959473 C186.848145,174.959473 187.283203,175.29248 187.347656,175.82959 L188.239258,175.82959 C188.196289,174.884277 187.347656,174.196777 186.192871,174.196777 C184.962891,174.196777 184.108887,174.878906 184.108887,175.834961 Z M191.354492,177.74707 C191.445801,179.116699 192.584473,180.008301 194.228027,180.008301 C196.01123,180.008301 197.128418,179.12207 197.128418,177.704102 C197.128418,176.592285 196.478516,175.974609 194.872559,175.571777 L194.061523,175.356934 C193.008789,175.083008 192.579102,174.733887 192.579102,174.148438 C192.579102,173.391113 193.277344,172.870117 194.281738,172.870117 C195.291504,172.870117 195.962891,173.380371 196.048828,174.212891 L197.015625,174.212891 C196.972656,172.913086 195.855469,172 194.313965,172 C192.702637,172 191.574707,172.902344 191.574707,174.191406 C191.574707,175.244141 192.208496,175.872559 193.637207,176.237793 L194.630859,176.495605 C195.672852,176.76416 196.129395,177.166992 196.129395,177.822266 C196.129395,178.584961 195.366699,179.138184 194.319336,179.138184 C193.212891,179.138184 192.417969,178.584961 192.32666,177.74707 L191.354492,177.74707 Z M198.412109,172.945312 L198.412109,174.293457 L197.57959,174.293457 L197.57959,175.061523 L198.412109,175.061523 L198.412109,178.429199 C198.412109,179.503418 198.80957,179.922363 199.835449,179.922363 C200.055664,179.922363 200.313477,179.90625 200.42627,179.879395 L200.42627,179.095215 C200.361816,179.105957 200.146973,179.12207 200.039551,179.12207 C199.561523,179.12207 199.34668,178.891113 199.34668,178.380859 L199.34668,175.061523 L200.431641,175.061523 L200.431641,174.293457 L199.34668,174.293457 L199.34668,172.945312 L198.412109,172.945312 Z M203.503906,175.007812 C202.628418,175.007812 202.016113,175.679199 201.957031,176.608398 L204.991699,176.608398 C204.970215,175.673828 204.384766,175.007812 203.503906,175.007812 Z M204.970215,178.278809 L205.888672,178.278809 C205.727539,179.256348 204.782227,179.976074 203.562988,179.976074 C201.962402,179.976074 200.990234,178.864258 200.990234,177.10791 C200.990234,175.373047 201.978516,174.196777 203.52002,174.196777 C205.029297,174.196777 205.958496,175.29248 205.958496,176.984375 L205.958496,177.338867 L201.95166,177.338867 L201.95166,177.392578 C201.95166,178.461426 202.580078,179.165039 203.584473,179.165039 C204.293457,179.165039 204.814453,178.805176 204.970215,178.278809 Z M209.61084,174.196777 C211.03418,174.196777 212.000977,175.335449 212.000977,177.086426 C212.000977,178.837402 211.039551,179.976074 209.632324,179.976074 C208.832031,179.976074 208.1875,179.583984 207.854492,178.97168 L207.833008,178.97168 L207.833008,181.743164 L206.898438,181.743164 L206.898438,174.293457 L207.784668,174.293457 L207.784668,175.23877 L207.806152,175.23877 C208.149902,174.610352 208.799805,174.196777 209.61084,174.196777 Z M209.428223,179.154297 C210.421875,179.154297 211.044922,178.354004 211.044922,177.086426 C211.044922,175.824219 210.421875,175.018555 209.428223,175.018555 C208.472168,175.018555 207.827637,175.845703 207.827637,177.086426 C207.827637,178.33252 208.472168,179.154297 209.428223,179.154297 Z"/>
    <path fill="#737373" d="M99.6848145,110 L96.2253418,110 L96.2253418,100.840332 L99.6975098,100.840332 C101.265381,100.840332 102.325439,101.754395 102.325439,103.125488 C102.325439,104.077637 101.627197,104.966309 100.744873,105.125 L100.744873,105.175781 C101.989014,105.334473 102.788818,106.210449 102.788818,107.429199 C102.788818,109.041504 101.633545,110 99.6848145,110 Z M97.3679199,101.849609 L97.3679199,104.788574 L99.0817871,104.788574 C100.433838,104.788574 101.170166,104.249023 101.170166,103.258789 C101.170166,102.351074 100.548096,101.849609 99.4372559,101.849609 L97.3679199,101.849609 Z M97.3679199,108.990723 L99.5134277,108.990723 C100.890869,108.990723 101.614502,108.432129 101.614502,107.37207 C101.614502,106.312012 100.865479,105.772461 99.4055176,105.772461 L97.3679199,105.772461 L97.3679199,108.990723 Z M104.458252,112.469238 C105.651611,112.469238 106.19751,112.005859 106.762451,110.463379 L109.358643,103.398438 L108.197021,103.398438 L106.368896,108.895508 L106.349854,108.895508 L104.521729,103.398438 L103.341064,103.398438 L105.778564,110.006348 L105.626221,110.469727 C105.372314,111.237793 105.029541,111.536133 104.413818,111.536133 C104.27417,111.536133 104.102783,111.529785 103.982178,111.504395 L103.982178,112.431152 C104.102783,112.456543 104.324951,112.469238 104.458252,112.469238 Z M116.099854,103.28418 C117.781982,103.28418 118.924561,104.629883 118.924561,106.699219 C118.924561,108.768555 117.78833,110.114258 116.125244,110.114258 C115.179443,110.114258 114.417725,109.650879 114.02417,108.927246 L113.998779,108.927246 L113.998779,112.202637 L112.894287,112.202637 L112.894287,103.398438 L113.94165,103.398438 L113.94165,104.515625 L113.967041,104.515625 C114.373291,103.772949 115.141357,103.28418 116.099854,103.28418 Z M115.884033,109.143066 C117.05835,109.143066 117.794678,108.197266 117.794678,106.699219 C117.794678,105.20752 117.05835,104.255371 115.884033,104.255371 C114.75415,104.255371 113.992432,105.23291 113.992432,106.699219 C113.992432,108.171875 114.75415,109.143066 115.884033,109.143066 Z M120.0354,110 L121.139893,110 L121.139893,105.886719 C121.139893,104.953613 121.698486,104.337891 122.55542,104.337891 C122.822021,104.337891 123.056885,104.369629 123.145752,104.401367 L123.145752,103.328613 C123.056885,103.315918 122.891846,103.28418 122.701416,103.28418 C121.927002,103.28418 121.317627,103.747559 121.101807,104.477539 L121.076416,104.477539 L121.076416,103.398438 L120.0354,103.398438 L120.0354,110 Z M126.459229,110.114258 C124.631104,110.114258 123.399658,108.800293 123.399658,106.699219 C123.399658,104.591797 124.631104,103.28418 126.459229,103.28418 C128.281006,103.28418 129.512451,104.591797 129.512451,106.699219 C129.512451,108.800293 128.281006,110.114258 126.459229,110.114258 Z M126.459229,109.143066 C127.627197,109.143066 128.388916,108.254395 128.388916,106.699219 C128.388916,105.144043 127.627197,104.255371 126.459229,104.255371 C125.29126,104.255371 124.523193,105.144043 124.523193,106.699219 C124.523193,108.254395 125.29126,109.143066 126.459229,109.143066 Z M136.107666,105.562988 C135.968018,104.375977 134.984131,103.28418 133.33374,103.28418 C131.511963,103.28418 130.299561,104.617188 130.299561,106.699219 C130.299561,108.825684 131.518311,110.114258 133.346436,110.114258 C134.844482,110.114258 135.948975,109.1875 136.120361,107.873535 L135.034912,107.873535 C134.844482,108.666992 134.25415,109.143066 133.352783,109.143066 C132.210205,109.143066 131.423096,108.235352 131.423096,106.699219 C131.423096,105.201172 132.19751,104.255371 133.340088,104.255371 C134.311279,104.255371 134.869873,104.845703 135.028564,105.562988 L136.107666,105.562988 Z M139.782959,104.242676 C138.748291,104.242676 138.024658,105.036133 137.954834,106.134277 L141.54126,106.134277 C141.515869,105.029785 140.823975,104.242676 139.782959,104.242676 Z M141.515869,108.108398 L142.601318,108.108398 C142.410889,109.263672 141.293701,110.114258 139.852783,110.114258 C137.961182,110.114258 136.812256,108.800293 136.812256,106.724609 C136.812256,104.674316 137.980225,103.28418 139.802002,103.28418 C141.585693,103.28418 142.683838,104.579102 142.683838,106.578613 L142.683838,106.997559 L137.948486,106.997559 L137.948486,107.061035 C137.948486,108.324219 138.691162,109.155762 139.878174,109.155762 C140.716064,109.155762 141.331787,108.730469 141.515869,108.108398 Z M146.44165,104.242676 C145.406982,104.242676 144.68335,105.036133 144.613525,106.134277 L148.199951,106.134277 C148.174561,105.029785 147.482666,104.242676 146.44165,104.242676 Z M148.174561,108.108398 L149.26001,108.108398 C149.06958,109.263672 147.952393,110.114258 146.511475,110.114258 C144.619873,110.114258 143.470947,108.800293 143.470947,106.724609 C143.470947,104.674316 144.638916,103.28418 146.460693,103.28418 C148.244385,103.28418 149.342529,104.579102 149.342529,106.578613 L149.342529,106.997559 L144.607178,106.997559 L144.607178,107.061035 C144.607178,108.324219 145.349854,109.155762 146.536865,109.155762 C147.374756,109.155762 147.990479,108.730469 148.174561,108.108398 Z M152.954346,110.114258 C151.272217,110.114258 150.129639,108.768555 150.129639,106.699219 C150.129639,104.629883 151.265869,103.28418 152.928955,103.28418 C153.874756,103.28418 154.636475,103.747559 155.030029,104.471191 L155.05542,104.471191 L155.05542,100.840332 L156.159912,100.840332 L156.159912,110 L155.106201,110 L155.106201,108.882812 L155.087158,108.882812 C154.661865,109.644531 153.906494,110.114258 152.954346,110.114258 Z M153.163818,104.255371 C151.99585,104.255371 151.259521,105.20752 151.259521,106.699219 C151.259521,108.197266 151.99585,109.143066 153.163818,109.143066 C154.300049,109.143066 155.061768,108.178223 155.061768,106.699219 C155.061768,105.226562 154.300049,104.255371 153.163818,104.255371 Z M157.70874,110 L158.813232,110 L158.813232,103.398438 L157.70874,103.398438 L157.70874,110 Z M158.260986,102.287598 C158.641846,102.287598 158.952881,101.976562 158.952881,101.602051 C158.952881,101.221191 158.641846,100.916504 158.260986,100.916504 C157.886475,100.916504 157.575439,101.221191 157.575439,101.602051 C157.575439,101.976562 157.886475,102.287598 158.260986,102.287598 Z M160.304932,110 L161.409424,110 L161.409424,106.115234 C161.409424,104.998047 162.088623,104.261719 163.129639,104.261719 C164.145264,104.261719 164.646729,104.845703 164.646729,105.912109 L164.646729,110 L165.751221,110 L165.751221,105.715332 C165.751221,104.217285 164.91333,103.28418 163.466064,103.28418 C162.444092,103.28418 161.739502,103.741211 161.371338,104.452148 L161.345947,104.452148 L161.345947,103.398438 L160.304932,103.398438 L160.304932,110 Z M169.839111,109.07959 C170.988037,109.07959 171.756104,108.127441 171.756104,106.673828 C171.756104,105.220215 170.988037,104.255371 169.839111,104.255371 C168.702881,104.255371 167.960205,105.194824 167.960205,106.673828 C167.960205,108.152832 168.702881,109.07959 169.839111,109.07959 Z M169.877197,112.488281 C168.423584,112.488281 167.274658,111.669434 167.090576,110.545898 L168.226807,110.545898 C168.442627,111.148926 169.096436,111.548828 169.921631,111.548828 C171.064209,111.548828 171.756104,110.888672 171.756104,109.904785 L171.756104,108.86377 L171.730713,108.86377 C171.324463,109.581055 170.543701,110.050781 169.616943,110.050781 C167.934814,110.050781 166.830322,108.724121 166.830322,106.673828 C166.830322,104.604492 167.934814,103.28418 169.642334,103.28418 C170.575439,103.28418 171.349854,103.741211 171.787842,104.509277 L171.806885,104.509277 L171.806885,103.398438 L172.860596,103.398438 L172.860596,109.866699 C172.860596,111.440918 171.698975,112.488281 169.877197,112.488281 Z M175.050537,111.821777 L175.920166,108.59082 L174.74585,108.59082 L174.130127,111.821777 L175.050537,111.821777 Z M180.173096,112.469238 C181.366455,112.469238 181.912354,112.005859 182.477295,110.463379 L185.073486,103.398438 L183.911865,103.398438 L182.08374,108.895508 L182.064697,108.895508 L180.236572,103.398438 L179.055908,103.398438 L181.493408,110.006348 L181.341064,110.469727 C181.087158,111.237793 180.744385,111.536133 180.128662,111.536133 C179.989014,111.536133 179.817627,111.529785 179.697021,111.504395 L179.697021,112.431152 C179.817627,112.456543 180.039795,112.469238 180.173096,112.469238 Z M188.488525,110.114258 C186.6604,110.114258 185.428955,108.800293 185.428955,106.699219 C185.428955,104.591797 186.6604,103.28418 188.488525,103.28418 C190.310303,103.28418 191.541748,104.591797 191.541748,106.699219 C191.541748,108.800293 190.310303,110.114258 188.488525,110.114258 Z M188.488525,109.143066 C189.656494,109.143066 190.418213,108.254395 190.418213,106.699219 C190.418213,105.144043 189.656494,104.255371 188.488525,104.255371 C187.320557,104.255371 186.55249,105.144043 186.55249,106.699219 C186.55249,108.254395 187.320557,109.143066 188.488525,109.143066 Z M198.073486,103.398438 L196.968994,103.398438 L196.968994,107.276855 C196.968994,108.400391 196.321533,109.136719 195.248779,109.136719 C194.226807,109.136719 193.725342,108.559082 193.725342,107.486328 L193.725342,103.398438 L192.62085,103.398438 L192.62085,107.683105 C192.62085,109.181152 193.465088,110.114258 194.906006,110.114258 C195.921631,110.114258 196.607178,109.688965 197.000732,108.927246 L197.026123,108.927246 L197.026123,110 L198.073486,110 L198.073486,103.398438 Z M204.344971,109.174805 C205.385986,109.174805 206.185791,108.444824 206.185791,107.492676 L206.185791,106.953125 L204.421143,107.061035 C203.532471,107.118164 203.024658,107.511719 203.024658,108.133789 C203.024658,108.762207 203.551514,109.174805 204.344971,109.174805 Z M204.097412,110.114258 C202.783447,110.114258 201.901123,109.320801 201.901123,108.133789 C201.901123,107.003906 202.770752,106.292969 204.294189,106.204102 L206.185791,106.096191 L206.185791,105.543945 C206.185791,104.737793 205.652588,104.255371 204.738525,104.255371 C203.887939,104.255371 203.354736,104.655273 203.215088,105.302734 L202.148682,105.302734 C202.224854,104.160156 203.202393,103.28418 204.763916,103.28418 C206.312744,103.28418 207.290283,104.12207 207.290283,105.436035 L207.290283,110 L206.24292,110 L206.24292,108.86377 L206.217529,108.86377 C205.823975,109.619141 204.986084,110.114258 204.097412,110.114258 Z M211.378174,109.07959 C212.5271,109.07959 213.295166,108.127441 213.295166,106.673828 C213.295166,105.220215 212.5271,104.255371 211.378174,104.255371 C210.241943,104.255371 209.499268,105.194824 209.499268,106.673828 C209.499268,108.152832 210.241943,109.07959 211.378174,109.07959 Z M211.41626,112.488281 C209.962646,112.488281 208.813721,111.669434 208.629639,110.545898 L209.765869,110.545898 C209.981689,111.148926 210.635498,111.548828 211.460693,111.548828 C212.603271,111.548828 213.295166,110.888672 213.295166,109.904785 L213.295166,108.86377 L213.269775,108.86377 C212.863525,109.581055 212.082764,110.050781 211.156006,110.050781 C209.473877,110.050781 208.369385,108.724121 208.369385,106.673828 C208.369385,104.604492 209.473877,103.28418 211.181396,103.28418 C212.114502,103.28418 212.888916,103.741211 213.326904,104.509277 L213.345947,104.509277 L213.345947,103.398438 L214.399658,103.398438 L214.399658,109.866699 C214.399658,111.440918 213.238037,112.488281 211.41626,112.488281 Z M215.834229,110 L216.938721,110 L216.938721,105.886719 C216.938721,104.953613 217.497314,104.337891 218.354248,104.337891 C218.62085,104.337891 218.855713,104.369629 218.94458,104.401367 L218.94458,103.328613 C218.855713,103.315918 218.690674,103.28418 218.500244,103.28418 C217.72583,103.28418 217.116455,103.747559 216.900635,104.477539 L216.875244,104.477539 L216.875244,103.398438 L215.834229,103.398438 L215.834229,110 Z M222.169189,104.242676 C221.134521,104.242676 220.410889,105.036133 220.341064,106.134277 L223.92749,106.134277 C223.9021,105.029785 223.210205,104.242676 222.169189,104.242676 Z M223.9021,108.108398 L224.987549,108.108398 C224.797119,109.263672 223.679932,110.114258 222.239014,110.114258 C220.347412,110.114258 219.198486,108.800293 219.198486,106.724609 C219.198486,104.674316 220.366455,103.28418 222.188232,103.28418 C223.971924,103.28418 225.070068,104.579102 225.070068,106.578613 L225.070068,106.997559 L220.334717,106.997559 L220.334717,107.061035 C220.334717,108.324219 221.077393,109.155762 222.264404,109.155762 C223.102295,109.155762 223.718018,108.730469 223.9021,108.108398 Z M228.827881,104.242676 C227.793213,104.242676 227.06958,105.036133 226.999756,106.134277 L230.586182,106.134277 C230.560791,105.029785 229.868896,104.242676 228.827881,104.242676 Z M230.560791,108.108398 L231.64624,108.108398 C231.455811,109.263672 230.338623,110.114258 228.897705,110.114258 C227.006104,110.114258 225.857178,108.800293 225.857178,106.724609 C225.857178,104.674316 227.025146,103.28418 228.846924,103.28418 C230.630615,103.28418 231.72876,104.579102 231.72876,106.578613 L231.72876,106.997559 L226.993408,106.997559 L226.993408,107.061035 C226.993408,108.324219 227.736084,109.155762 228.923096,109.155762 C229.760986,109.155762 230.376709,108.730469 230.560791,108.108398 Z M235.861084,101.805176 L235.861084,103.398438 L234.877197,103.398438 L234.877197,104.306152 L235.861084,104.306152 L235.861084,108.286133 C235.861084,109.555664 236.330811,110.050781 237.543213,110.050781 C237.803467,110.050781 238.108154,110.031738 238.241455,110 L238.241455,109.073242 C238.165283,109.085938 237.911377,109.10498 237.784424,109.10498 C237.219482,109.10498 236.965576,108.832031 236.965576,108.229004 L236.965576,104.306152 L238.247803,104.306152 L238.247803,103.398438 L236.965576,103.398438 L236.965576,101.805176 L235.861084,101.805176 Z M241.967529,110.114258 C240.139404,110.114258 238.907959,108.800293 238.907959,106.699219 C238.907959,104.591797 240.139404,103.28418 241.967529,103.28418 C243.789307,103.28418 245.020752,104.591797 245.020752,106.699219 C245.020752,108.800293 243.789307,110.114258 241.967529,110.114258 Z M241.967529,109.143066 C243.135498,109.143066 243.897217,108.254395 243.897217,106.699219 C243.897217,105.144043 243.135498,104.255371 241.967529,104.255371 C240.799561,104.255371 240.031494,105.144043 240.031494,106.699219 C240.031494,108.254395 240.799561,109.143066 241.967529,109.143066 Z M249.153076,101.805176 L249.153076,103.398438 L248.169189,103.398438 L248.169189,104.306152 L249.153076,104.306152 L249.153076,108.286133 C249.153076,109.555664 249.622803,110.050781 250.835205,110.050781 C251.095459,110.050781 251.400146,110.031738 251.533447,110 L251.533447,109.073242 C251.457275,109.085938 251.203369,109.10498 251.076416,109.10498 C250.511475,109.10498 250.257568,108.832031 250.257568,108.229004 L250.257568,104.306152 L251.539795,104.306152 L251.539795,103.398438 L250.257568,103.398438 L250.257568,101.805176 L249.153076,101.805176 Z M252.77124,110 L253.875732,110 L253.875732,106.15332 C253.875732,105.010742 254.554932,104.261719 255.653076,104.261719 C256.687744,104.261719 257.2146,104.890137 257.2146,105.9375 L257.2146,110 L258.319092,110 L258.319092,105.734375 C258.319092,104.261719 257.443115,103.28418 255.99585,103.28418 C254.99292,103.28418 254.269287,103.71582 253.901123,104.452148 L253.875732,104.452148 L253.875732,100.840332 L252.77124,100.840332 L252.77124,110 Z M262.368896,104.242676 C261.334229,104.242676 260.610596,105.036133 260.540771,106.134277 L264.127197,106.134277 C264.101807,105.029785 263.409912,104.242676 262.368896,104.242676 Z M264.101807,108.108398 L265.187256,108.108398 C264.996826,109.263672 263.879639,110.114258 262.438721,110.114258 C260.547119,110.114258 259.398193,108.800293 259.398193,106.724609 C259.398193,104.674316 260.566162,103.28418 262.387939,103.28418 C264.171631,103.28418 265.269775,104.579102 265.269775,106.578613 L265.269775,106.997559 L260.534424,106.997559 L260.534424,107.061035 C260.534424,108.324219 261.2771,109.155762 262.464111,109.155762 C263.302002,109.155762 263.917725,108.730469 264.101807,108.108398 Z M88.0305176,127 L86.8879395,127 L86.8879395,118.868652 L83.9997559,118.868652 L83.9997559,117.840332 L90.9187012,117.840332 L90.9187012,118.868652 L88.0305176,118.868652 L88.0305176,127 Z M92.8864746,121.242676 C91.8518066,121.242676 91.1281738,122.036133 91.0583496,123.134277 L94.6447754,123.134277 C94.6193848,122.029785 93.9274902,121.242676 92.8864746,121.242676 Z M94.6193848,125.108398 L95.704834,125.108398 C95.5144043,126.263672 94.3972168,127.114258 92.9562988,127.114258 C91.0646973,127.114258 89.9157715,125.800293 89.9157715,123.724609 C89.9157715,121.674316 91.0837402,120.28418 92.9055176,120.28418 C94.689209,120.28418 95.7873535,121.579102 95.7873535,123.578613 L95.7873535,123.997559 L91.052002,123.997559 L91.052002,124.061035 C91.052002,125.324219 91.7946777,126.155762 92.9816895,126.155762 C93.8195801,126.155762 94.4353027,125.730469 94.6193848,125.108398 Z M96.8981934,127 L98.0026855,127 L98.0026855,122.886719 C98.0026855,121.953613 98.5612793,121.337891 99.4182129,121.337891 C99.6848145,121.337891 99.9196777,121.369629 100.008545,121.401367 L100.008545,120.328613 C99.9196777,120.315918 99.7546387,120.28418 99.564209,120.28418 C98.7897949,120.28418 98.1804199,120.747559 97.9645996,121.477539 L97.939209,121.477539 L97.939209,120.398438 L96.8981934,120.398438 L96.8981934,127 Z M100.903564,127 L102.008057,127 L102.008057,122.861328 C102.008057,121.947266 102.642822,121.261719 103.518799,121.261719 C104.337646,121.261719 104.87085,121.782227 104.87085,122.575684 L104.87085,127 L105.975342,127 L105.975342,122.804199 C105.975342,121.90918 106.591064,121.261719 107.467041,121.261719 C108.33667,121.261719 108.838135,121.794922 108.838135,122.696289 L108.838135,127 L109.942627,127 L109.942627,122.442383 C109.942627,121.134766 109.098389,120.28418 107.790771,120.28418 C106.864014,120.28418 106.0896,120.753906 105.721436,121.541016 L105.696045,121.541016 C105.4104,120.741211 104.743896,120.28418 103.842529,120.28418 C102.953857,120.28418 102.281006,120.753906 101.969971,121.452148 L101.94458,121.452148 L101.94458,120.398438 L100.903564,120.398438 L100.903564,127 Z M111.231201,122.220215 C111.231201,123.121582 111.80249,123.718262 112.964111,124.016602 L114.125732,124.314941 C114.868408,124.511719 115.141357,124.765625 115.141357,125.235352 C115.141357,125.832031 114.589111,126.212891 113.694092,126.212891 C112.799072,126.212891 112.278564,125.844727 112.157959,125.15918 L111.053467,125.15918 C111.167725,126.327148 112.177002,127.114258 113.624268,127.114258 C115.166748,127.114258 116.252197,126.301758 116.252197,125.152832 C116.252197,124.181641 115.769775,123.699219 114.436768,123.362793 L113.414795,123.115234 C112.665771,122.924805 112.31665,122.620117 112.31665,122.163086 C112.31665,121.585449 112.849854,121.185547 113.656006,121.185547 C114.468506,121.185547 114.982666,121.579102 115.058838,122.213867 L116.112549,122.213867 C116.061768,121.09668 115.058838,120.28418 113.694092,120.28418 C112.240479,120.28418 111.231201,121.090332 111.231201,122.220215 Z M122.796631,127.114258 C120.968506,127.114258 119.737061,125.800293 119.737061,123.699219 C119.737061,121.591797 120.968506,120.28418 122.796631,120.28418 C124.618408,120.28418 125.849854,121.591797 125.849854,123.699219 C125.849854,125.800293 124.618408,127.114258 122.796631,127.114258 Z M122.796631,126.143066 C123.9646,126.143066 124.726318,125.254395 124.726318,123.699219 C124.726318,122.144043 123.9646,121.255371 122.796631,121.255371 C121.628662,121.255371 120.860596,122.144043 120.860596,123.699219 C120.860596,125.254395 121.628662,126.143066 122.796631,126.143066 Z M127.316162,127 L128.420654,127 L128.420654,121.306152 L129.766357,121.306152 L129.766357,120.398438 L128.414307,120.398438 L128.414307,119.668457 C128.414307,119.014648 128.699951,118.697266 129.296631,118.697266 C129.480713,118.697266 129.664795,118.716309 129.798096,118.735352 L129.798096,117.840332 C129.639404,117.814941 129.372803,117.789551 129.125244,117.789551 C127.906494,117.789551 127.316162,118.392578 127.316162,119.662109 L127.316162,120.398438 L126.395752,120.398438 L126.395752,121.306152 L127.316162,121.306152 L127.316162,127 Z M133.30835,124.47998 C133.41626,126.098633 134.761963,127.152344 136.704346,127.152344 C138.811768,127.152344 140.13208,126.10498 140.13208,124.429199 C140.13208,123.115234 139.364014,122.385254 137.466064,121.90918 L136.507568,121.655273 C135.263428,121.331543 134.755615,120.918945 134.755615,120.227051 C134.755615,119.332031 135.580811,118.716309 136.767822,118.716309 C137.961182,118.716309 138.754639,119.319336 138.856201,120.303223 L139.998779,120.303223 C139.947998,118.76709 138.627686,117.687988 136.805908,117.687988 C134.901611,117.687988 133.568604,118.754395 133.568604,120.277832 C133.568604,121.521973 134.317627,122.264648 136.006104,122.696289 L137.18042,123.000977 C138.411865,123.318359 138.951416,123.794434 138.951416,124.568848 C138.951416,125.470215 138.050049,126.124023 136.812256,126.124023 C135.504639,126.124023 134.565186,125.470215 134.457275,124.47998 L133.30835,124.47998 Z M143.940674,121.242676 C142.906006,121.242676 142.182373,122.036133 142.112549,123.134277 L145.698975,123.134277 C145.673584,122.029785 144.981689,121.242676 143.940674,121.242676 Z M145.673584,125.108398 L146.759033,125.108398 C146.568604,126.263672 145.451416,127.114258 144.010498,127.114258 C142.118896,127.114258 140.969971,125.800293 140.969971,123.724609 C140.969971,121.674316 142.137939,120.28418 143.959717,120.28418 C145.743408,120.28418 146.841553,121.579102 146.841553,123.578613 L146.841553,123.997559 L142.106201,123.997559 L142.106201,124.061035 C142.106201,125.324219 142.848877,126.155762 144.035889,126.155762 C144.873779,126.155762 145.489502,125.730469 145.673584,125.108398 Z M147.952393,127 L149.056885,127 L149.056885,122.886719 C149.056885,121.953613 149.615479,121.337891 150.472412,121.337891 C150.739014,121.337891 150.973877,121.369629 151.062744,121.401367 L151.062744,120.328613 C150.973877,120.315918 150.808838,120.28418 150.618408,120.28418 C149.843994,120.28418 149.234619,120.747559 149.018799,121.477539 L148.993408,121.477539 L148.993408,120.398438 L147.952393,120.398438 L147.952393,127 Z M157.372314,120.398438 L156.223389,120.398438 L154.395264,125.825684 L154.369873,125.825684 L152.548096,120.398438 L151.386475,120.398438 L153.817627,127 L154.94751,127 L157.372314,120.398438 Z M158.292725,127 L159.397217,127 L159.397217,120.398438 L158.292725,120.398438 L158.292725,127 Z M158.844971,119.287598 C159.22583,119.287598 159.536865,118.976562 159.536865,118.602051 C159.536865,118.221191 159.22583,117.916504 158.844971,117.916504 C158.470459,117.916504 158.159424,118.221191 158.159424,118.602051 C158.159424,118.976562 158.470459,119.287598 158.844971,119.287598 Z M166.373291,122.562988 C166.233643,121.375977 165.249756,120.28418 163.599365,120.28418 C161.777588,120.28418 160.565186,121.617188 160.565186,123.699219 C160.565186,125.825684 161.783936,127.114258 163.612061,127.114258 C165.110107,127.114258 166.2146,126.1875 166.385986,124.873535 L165.300537,124.873535 C165.110107,125.666992 164.519775,126.143066 163.618408,126.143066 C162.47583,126.143066 161.688721,125.235352 161.688721,123.699219 C161.688721,122.201172 162.463135,121.255371 163.605713,121.255371 C164.576904,121.255371 165.135498,121.845703 165.294189,122.562988 L166.373291,122.562988 Z M170.048584,121.242676 C169.013916,121.242676 168.290283,122.036133 168.220459,123.134277 L171.806885,123.134277 C171.781494,122.029785 171.0896,121.242676 170.048584,121.242676 Z M171.781494,125.108398 L172.866943,125.108398 C172.676514,126.263672 171.559326,127.114258 170.118408,127.114258 C168.226807,127.114258 167.077881,125.800293 167.077881,123.724609 C167.077881,121.674316 168.24585,120.28418 170.067627,120.28418 C171.851318,120.28418 172.949463,121.579102 172.949463,123.578613 L172.949463,123.997559 L168.214111,123.997559 L168.214111,124.061035 C168.214111,125.324219 168.956787,126.155762 170.143799,126.155762 C170.981689,126.155762 171.597412,125.730469 171.781494,125.108398 Z M178.903564,126.174805 C179.94458,126.174805 180.744385,125.444824 180.744385,124.492676 L180.744385,123.953125 L178.979736,124.061035 C178.091064,124.118164 177.583252,124.511719 177.583252,125.133789 C177.583252,125.762207 178.110107,126.174805 178.903564,126.174805 Z M178.656006,127.114258 C177.342041,127.114258 176.459717,126.320801 176.459717,125.133789 C176.459717,124.003906 177.329346,123.292969 178.852783,123.204102 L180.744385,123.096191 L180.744385,122.543945 C180.744385,121.737793 180.211182,121.255371 179.297119,121.255371 C178.446533,121.255371 177.91333,121.655273 177.773682,122.302734 L176.707275,122.302734 C176.783447,121.160156 177.760986,120.28418 179.32251,120.28418 C180.871338,120.28418 181.848877,121.12207 181.848877,122.436035 L181.848877,127 L180.801514,127 L180.801514,125.86377 L180.776123,125.86377 C180.382568,126.619141 179.544678,127.114258 178.656006,127.114258 Z M183.251709,127 L184.356201,127 L184.356201,123.115234 C184.356201,121.998047 185.0354,121.261719 186.076416,121.261719 C187.092041,121.261719 187.593506,121.845703 187.593506,122.912109 L187.593506,127 L188.697998,127 L188.697998,122.715332 C188.697998,121.217285 187.860107,120.28418 186.412842,120.28418 C185.390869,120.28418 184.686279,120.741211 184.318115,121.452148 L184.292725,121.452148 L184.292725,120.398438 L183.251709,120.398438 L183.251709,127 Z M192.601807,127.114258 C190.919678,127.114258 189.7771,125.768555 189.7771,123.699219 C189.7771,121.629883 190.91333,120.28418 192.576416,120.28418 C193.522217,120.28418 194.283936,120.747559 194.67749,121.471191 L194.702881,121.471191 L194.702881,117.840332 L195.807373,117.840332 L195.807373,127 L194.753662,127 L194.753662,125.882812 L194.734619,125.882812 C194.309326,126.644531 193.553955,127.114258 192.601807,127.114258 Z M192.811279,121.255371 C191.643311,121.255371 190.906982,122.20752 190.906982,123.699219 C190.906982,125.197266 191.643311,126.143066 192.811279,126.143066 C193.94751,126.143066 194.709229,125.178223 194.709229,123.699219 C194.709229,122.226562 193.94751,121.255371 192.811279,121.255371 Z M200.136475,117.840332 L203.405518,117.840332 C205.125732,117.840332 206.338135,119.046387 206.338135,120.779297 C206.338135,122.518555 205.113037,123.730957 203.392822,123.730957 L201.279053,123.730957 L201.279053,127 L200.136475,127 L200.136475,117.840332 Z M201.279053,118.855957 L201.279053,122.715332 L203.107178,122.715332 C204.414795,122.715332 205.163818,121.998047 205.163818,120.779297 C205.163818,119.566895 204.421143,118.855957 203.107178,118.855957 L201.279053,118.855957 Z M207.474365,127 L208.578857,127 L208.578857,122.886719 C208.578857,121.953613 209.137451,121.337891 209.994385,121.337891 C210.260986,121.337891 210.49585,121.369629 210.584717,121.401367 L210.584717,120.328613 C210.49585,120.315918 210.330811,120.28418 210.140381,120.28418 C209.365967,120.28418 208.756592,120.747559 208.540771,121.477539 L208.515381,121.477539 L208.515381,120.398438 L207.474365,120.398438 L207.474365,127 Z M211.536865,127 L212.641357,127 L212.641357,120.398438 L211.536865,120.398438 L211.536865,127 Z M212.089111,119.287598 C212.469971,119.287598 212.781006,118.976562 212.781006,118.602051 C212.781006,118.221191 212.469971,117.916504 212.089111,117.916504 C211.7146,117.916504 211.403564,118.221191 211.403564,118.602051 C211.403564,118.976562 211.7146,119.287598 212.089111,119.287598 Z M219.547607,120.398438 L218.398682,120.398438 L216.570557,125.825684 L216.545166,125.825684 L214.723389,120.398438 L213.561768,120.398438 L215.99292,127 L217.122803,127 L219.547607,120.398438 Z M222.461182,126.174805 C223.502197,126.174805 224.302002,125.444824 224.302002,124.492676 L224.302002,123.953125 L222.537354,124.061035 C221.648682,124.118164 221.140869,124.511719 221.140869,125.133789 C221.140869,125.762207 221.667725,126.174805 222.461182,126.174805 Z M222.213623,127.114258 C220.899658,127.114258 220.017334,126.320801 220.017334,125.133789 C220.017334,124.003906 220.886963,123.292969 222.4104,123.204102 L224.302002,123.096191 L224.302002,122.543945 C224.302002,121.737793 223.768799,121.255371 222.854736,121.255371 C222.00415,121.255371 221.470947,121.655273 221.331299,122.302734 L220.264893,122.302734 C220.341064,121.160156 221.318604,120.28418 222.880127,120.28418 C224.428955,120.28418 225.406494,121.12207 225.406494,122.436035 L225.406494,127 L224.359131,127 L224.359131,125.86377 L224.33374,125.86377 C223.940186,126.619141 223.102295,127.114258 222.213623,127.114258 Z M232.293701,122.562988 C232.154053,121.375977 231.170166,120.28418 229.519775,120.28418 C227.697998,120.28418 226.485596,121.617188 226.485596,123.699219 C226.485596,125.825684 227.704346,127.114258 229.532471,127.114258 C231.030518,127.114258 232.13501,126.1875 232.306396,124.873535 L231.220947,124.873535 C231.030518,125.666992 230.440186,126.143066 229.538818,126.143066 C228.39624,126.143066 227.609131,125.235352 227.609131,123.699219 C227.609131,122.201172 228.383545,121.255371 229.526123,121.255371 C230.497314,121.255371 231.055908,121.845703 231.2146,122.562988 L232.293701,122.562988 Z M233.86792,129.469238 C235.061279,129.469238 235.607178,129.005859 236.172119,127.463379 L238.768311,120.398438 L237.606689,120.398438 L235.778564,125.895508 L235.759521,125.895508 L233.931396,120.398438 L232.750732,120.398438 L235.188232,127.006348 L235.035889,127.469727 C234.781982,128.237793 234.439209,128.536133 233.823486,128.536133 C233.683838,128.536133 233.512451,128.529785 233.391846,128.504395 L233.391846,129.431152 C233.512451,129.456543 233.734619,129.469238 233.86792,129.469238 Z M243.605225,127 L243.605225,119.833496 L243.662354,119.833496 L248.677002,127 L249.787842,127 L249.787842,117.840332 L248.657959,117.840332 L248.657959,125.032227 L248.60083,125.032227 L243.586182,117.840332 L242.475342,117.840332 L242.475342,127 L243.605225,127 Z M254.129639,127.114258 C252.301514,127.114258 251.070068,125.800293 251.070068,123.699219 C251.070068,121.591797 252.301514,120.28418 254.129639,120.28418 C255.951416,120.28418 257.182861,121.591797 257.182861,123.699219 C257.182861,125.800293 255.951416,127.114258 254.129639,127.114258 Z M254.129639,126.143066 C255.297607,126.143066 256.059326,125.254395 256.059326,123.699219 C256.059326,122.144043 255.297607,121.255371 254.129639,121.255371 C252.96167,121.255371 252.193604,122.144043 252.193604,123.699219 C252.193604,125.254395 252.96167,126.143066 254.129639,126.143066 Z M258.64917,118.805176 L258.64917,120.398438 L257.665283,120.398438 L257.665283,121.306152 L258.64917,121.306152 L258.64917,125.286133 C258.64917,126.555664 259.118896,127.050781 260.331299,127.050781 C260.591553,127.050781 260.89624,127.031738 261.029541,127 L261.029541,126.073242 C260.953369,126.085938 260.699463,126.10498 260.57251,126.10498 C260.007568,126.10498 259.753662,125.832031 259.753662,125.229004 L259.753662,121.306152 L261.035889,121.306152 L261.035889,120.398438 L259.753662,120.398438 L259.753662,118.805176 L258.64917,118.805176 Z M262.267334,127 L263.371826,127 L263.371826,120.398438 L262.267334,120.398438 L262.267334,127 Z M262.81958,119.287598 C263.200439,119.287598 263.511475,118.976562 263.511475,118.602051 C263.511475,118.221191 263.200439,117.916504 262.81958,117.916504 C262.445068,117.916504 262.134033,118.221191 262.134033,118.602051 C262.134033,118.976562 262.445068,119.287598 262.81958,119.287598 Z M270.3479,122.562988 C270.208252,121.375977 269.224365,120.28418 267.573975,120.28418 C265.752197,120.28418 264.539795,121.617188 264.539795,123.699219 C264.539795,125.825684 265.758545,127.114258 267.58667,127.114258 C269.084717,127.114258 270.189209,126.1875 270.360596,124.873535 L269.275146,124.873535 C269.084717,125.666992 268.494385,126.143066 267.593018,126.143066 C266.450439,126.143066 265.66333,125.235352 265.66333,123.699219 C265.66333,122.201172 266.437744,121.255371 267.580322,121.255371 C268.551514,121.255371 269.110107,121.845703 269.268799,122.562988 L270.3479,122.562988 Z M274.023193,121.242676 C272.988525,121.242676 272.264893,122.036133 272.195068,123.134277 L275.781494,123.134277 C275.756104,122.029785 275.064209,121.242676 274.023193,121.242676 Z M275.756104,125.108398 L276.841553,125.108398 C276.651123,126.263672 275.533936,127.114258 274.093018,127.114258 C272.201416,127.114258 271.05249,125.800293 271.05249,123.724609 C271.05249,121.674316 272.220459,120.28418 274.042236,120.28418 C275.825928,120.28418 276.924072,121.579102 276.924072,123.578613 L276.924072,123.997559 L272.188721,123.997559 L272.188721,124.061035 C272.188721,125.324219 272.931396,126.155762 274.118408,126.155762 C274.956299,126.155762 275.572021,125.730469 275.756104,125.108398 Z M118.85791,144.114258 C117.029785,144.114258 115.79834,142.800293 115.79834,140.699219 C115.79834,138.591797 117.029785,137.28418 118.85791,137.28418 C120.679688,137.28418 121.911133,138.591797 121.911133,140.699219 C121.911133,142.800293 120.679688,144.114258 118.85791,144.114258 Z M118.85791,143.143066 C120.025879,143.143066 120.787598,142.254395 120.787598,140.699219 C120.787598,139.144043 120.025879,138.255371 118.85791,138.255371 C117.689941,138.255371 116.921875,139.144043 116.921875,140.699219 C116.921875,142.254395 117.689941,143.143066 118.85791,143.143066 Z M123.377441,144 L124.481934,144 L124.481934,138.306152 L125.827637,138.306152 L125.827637,137.398438 L124.475586,137.398438 L124.475586,136.668457 C124.475586,136.014648 124.76123,135.697266 125.35791,135.697266 C125.541992,135.697266 125.726074,135.716309 125.859375,135.735352 L125.859375,134.840332 C125.700684,134.814941 125.434082,134.789551 125.186523,134.789551 C123.967773,134.789551 123.377441,135.392578 123.377441,136.662109 L123.377441,137.398438 L122.457031,137.398438 L122.457031,138.306152 L123.377441,138.306152 L123.377441,144 Z M130.950195,144 L130.950195,140.032715 L135.006348,140.032715 L135.006348,139.01709 L130.950195,139.01709 L130.950195,135.868652 L135.368164,135.868652 L135.368164,134.840332 L129.807617,134.840332 L129.807617,144 L130.950195,144 Z M136.555176,144 L137.659668,144 L137.659668,137.398438 L136.555176,137.398438 L136.555176,144 Z M137.107422,136.287598 C137.488281,136.287598 137.799316,135.976562 137.799316,135.602051 C137.799316,135.221191 137.488281,134.916504 137.107422,134.916504 C136.73291,134.916504 136.421875,135.221191 136.421875,135.602051 C136.421875,135.976562 136.73291,136.287598 137.107422,136.287598 Z M139.151367,144 L140.255859,144 L140.255859,139.886719 C140.255859,138.953613 140.814453,138.337891 141.671387,138.337891 C141.937988,138.337891 142.172852,138.369629 142.261719,138.401367 L142.261719,137.328613 C142.172852,137.315918 142.007812,137.28418 141.817383,137.28418 C141.042969,137.28418 140.433594,137.747559 140.217773,138.477539 L140.192383,138.477539 L140.192383,137.398438 L139.151367,137.398438 L139.151367,144 Z M145.486328,138.242676 C144.45166,138.242676 143.728027,139.036133 143.658203,140.134277 L147.244629,140.134277 C147.219238,139.029785 146.527344,138.242676 145.486328,138.242676 Z M147.219238,142.108398 L148.304688,142.108398 C148.114258,143.263672 146.99707,144.114258 145.556152,144.114258 C143.664551,144.114258 142.515625,142.800293 142.515625,140.724609 C142.515625,138.674316 143.683594,137.28418 145.505371,137.28418 C147.289062,137.28418 148.387207,138.579102 148.387207,140.578613 L148.387207,140.997559 L143.651855,140.997559 L143.651855,141.061035 C143.651855,142.324219 144.394531,143.155762 145.581543,143.155762 C146.419434,143.155762 147.035156,142.730469 147.219238,142.108398 Z M149.853516,144 L150.958008,144 L150.958008,138.306152 L152.303711,138.306152 L152.303711,137.398438 L150.95166,137.398438 L150.95166,136.668457 C150.95166,136.014648 151.237305,135.697266 151.833984,135.697266 C152.018066,135.697266 152.202148,135.716309 152.335449,135.735352 L152.335449,134.840332 C152.176758,134.814941 151.910156,134.789551 151.662598,134.789551 C150.443848,134.789551 149.853516,135.392578 149.853516,136.662109 L149.853516,137.398438 L148.933105,137.398438 L148.933105,138.306152 L149.853516,138.306152 L149.853516,144 Z M155.864746,144.114258 C154.036621,144.114258 152.805176,142.800293 152.805176,140.699219 C152.805176,138.591797 154.036621,137.28418 155.864746,137.28418 C157.686523,137.28418 158.917969,138.591797 158.917969,140.699219 C158.917969,142.800293 157.686523,144.114258 155.864746,144.114258 Z M155.864746,143.143066 C157.032715,143.143066 157.794434,142.254395 157.794434,140.699219 C157.794434,139.144043 157.032715,138.255371 155.864746,138.255371 C154.696777,138.255371 153.928711,139.144043 153.928711,140.699219 C153.928711,142.254395 154.696777,143.143066 155.864746,143.143066 Z M162.237793,141.486328 L163.818359,144 L165.043457,144 L162.847168,140.654785 L165.075195,137.398438 L163.84375,137.398438 L162.275879,139.874023 L162.250488,139.874023 L160.663574,137.398438 L159.432129,137.398438 L161.641113,140.699219 L159.394043,144 L160.619141,144 L162.212402,141.486328 L162.237793,141.486328 Z M174.152344,139.562988 C174.012695,138.375977 173.028809,137.28418 171.378418,137.28418 C169.556641,137.28418 168.344238,138.617188 168.344238,140.699219 C168.344238,142.825684 169.562988,144.114258 171.391113,144.114258 C172.88916,144.114258 173.993652,143.1875 174.165039,141.873535 L173.07959,141.873535 C172.88916,142.666992 172.298828,143.143066 171.397461,143.143066 C170.254883,143.143066 169.467773,142.235352 169.467773,140.699219 C169.467773,139.201172 170.242188,138.255371 171.384766,138.255371 C172.355957,138.255371 172.914551,138.845703 173.073242,139.562988 L174.152344,139.562988 Z M175.237793,144 L176.342285,144 L176.342285,134.840332 L175.237793,134.840332 L175.237793,144 Z M180.569824,144.114258 C178.741699,144.114258 177.510254,142.800293 177.510254,140.699219 C177.510254,138.591797 178.741699,137.28418 180.569824,137.28418 C182.391602,137.28418 183.623047,138.591797 183.623047,140.699219 C183.623047,142.800293 182.391602,144.114258 180.569824,144.114258 Z M180.569824,143.143066 C181.737793,143.143066 182.499512,142.254395 182.499512,140.699219 C182.499512,139.144043 181.737793,138.255371 180.569824,138.255371 C179.401855,138.255371 178.633789,139.144043 178.633789,140.699219 C178.633789,142.254395 179.401855,143.143066 180.569824,143.143066 Z M190.154785,137.398438 L189.050293,137.398438 L189.050293,141.276855 C189.050293,142.400391 188.402832,143.136719 187.330078,143.136719 C186.308105,143.136719 185.806641,142.559082 185.806641,141.486328 L185.806641,137.398438 L184.702148,137.398438 L184.702148,141.683105 C184.702148,143.181152 185.546387,144.114258 186.987305,144.114258 C188.00293,144.114258 188.688477,143.688965 189.082031,142.927246 L189.107422,142.927246 L189.107422,144 L190.154785,144 L190.154785,137.398438 Z M194.083984,144.114258 C192.401855,144.114258 191.259277,142.768555 191.259277,140.699219 C191.259277,138.629883 192.395508,137.28418 194.058594,137.28418 C195.004395,137.28418 195.766113,137.747559 196.159668,138.471191 L196.185059,138.471191 L196.185059,134.840332 L197.289551,134.840332 L197.289551,144 L196.23584,144 L196.23584,142.882812 L196.216797,142.882812 C195.791504,143.644531 195.036133,144.114258 194.083984,144.114258 Z M194.293457,138.255371 C193.125488,138.255371 192.38916,139.20752 192.38916,140.699219 C192.38916,142.197266 193.125488,143.143066 194.293457,143.143066 C195.429688,143.143066 196.191406,142.178223 196.191406,140.699219 C196.191406,139.226562 195.429688,138.255371 194.293457,138.255371 Z M201.333008,139.220215 C201.333008,140.121582 201.904297,140.718262 203.065918,141.016602 L204.227539,141.314941 C204.970215,141.511719 205.243164,141.765625 205.243164,142.235352 C205.243164,142.832031 204.690918,143.212891 203.795898,143.212891 C202.900879,143.212891 202.380371,142.844727 202.259766,142.15918 L201.155273,142.15918 C201.269531,143.327148 202.278809,144.114258 203.726074,144.114258 C205.268555,144.114258 206.354004,143.301758 206.354004,142.152832 C206.354004,141.181641 205.871582,140.699219 204.538574,140.362793 L203.516602,140.115234 C202.767578,139.924805 202.418457,139.620117 202.418457,139.163086 C202.418457,138.585449 202.95166,138.185547 203.757812,138.185547 C204.570312,138.185547 205.084473,138.579102 205.160645,139.213867 L206.214355,139.213867 C206.163574,138.09668 205.160645,137.28418 203.795898,137.28418 C202.342285,137.28418 201.333008,138.090332 201.333008,139.220215 Z M210.143555,138.242676 C209.108887,138.242676 208.385254,139.036133 208.31543,140.134277 L211.901855,140.134277 C211.876465,139.029785 211.18457,138.242676 210.143555,138.242676 Z M211.876465,142.108398 L212.961914,142.108398 C212.771484,143.263672 211.654297,144.114258 210.213379,144.114258 C208.321777,144.114258 207.172852,142.800293 207.172852,140.724609 C207.172852,138.674316 208.34082,137.28418 210.162598,137.28418 C211.946289,137.28418 213.044434,138.579102 213.044434,140.578613 L213.044434,140.997559 L208.309082,140.997559 L208.309082,141.061035 C208.309082,142.324219 209.051758,143.155762 210.23877,143.155762 C211.07666,143.155762 211.692383,142.730469 211.876465,142.108398 Z M214.155273,144 L215.259766,144 L215.259766,139.886719 C215.259766,138.953613 215.818359,138.337891 216.675293,138.337891 C216.941895,138.337891 217.176758,138.369629 217.265625,138.401367 L217.265625,137.328613 C217.176758,137.315918 217.011719,137.28418 216.821289,137.28418 C216.046875,137.28418 215.4375,137.747559 215.22168,138.477539 L215.196289,138.477539 L215.196289,137.398438 L214.155273,137.398438 L214.155273,144 Z M223.575195,137.398438 L222.42627,137.398438 L220.598145,142.825684 L220.572754,142.825684 L218.750977,137.398438 L217.589355,137.398438 L220.020508,144 L221.150391,144 L223.575195,137.398438 Z M224.495605,144 L225.600098,144 L225.600098,137.398438 L224.495605,137.398438 L224.495605,144 Z M225.047852,136.287598 C225.428711,136.287598 225.739746,135.976562 225.739746,135.602051 C225.739746,135.221191 225.428711,134.916504 225.047852,134.916504 C224.67334,134.916504 224.362305,135.221191 224.362305,135.602051 C224.362305,135.976562 224.67334,136.287598 225.047852,136.287598 Z M232.576172,139.562988 C232.436523,138.375977 231.452637,137.28418 229.802246,137.28418 C227.980469,137.28418 226.768066,138.617188 226.768066,140.699219 C226.768066,142.825684 227.986816,144.114258 229.814941,144.114258 C231.312988,144.114258 232.41748,143.1875 232.588867,141.873535 L231.503418,141.873535 C231.312988,142.666992 230.722656,143.143066 229.821289,143.143066 C228.678711,143.143066 227.891602,142.235352 227.891602,140.699219 C227.891602,139.201172 228.666016,138.255371 229.808594,138.255371 C230.779785,138.255371 231.338379,138.845703 231.49707,139.562988 L232.576172,139.562988 Z M236.251465,138.242676 C235.216797,138.242676 234.493164,139.036133 234.42334,140.134277 L238.009766,140.134277 C237.984375,139.029785 237.29248,138.242676 236.251465,138.242676 Z M237.984375,142.108398 L239.069824,142.108398 C238.879395,143.263672 237.762207,144.114258 236.321289,144.114258 C234.429688,144.114258 233.280762,142.800293 233.280762,140.724609 C233.280762,138.674316 234.44873,137.28418 236.270508,137.28418 C238.054199,137.28418 239.152344,138.579102 239.152344,140.578613 L239.152344,140.997559 L234.416992,140.997559 L234.416992,141.061035 C234.416992,142.324219 235.159668,143.155762 236.34668,143.155762 C237.18457,143.155762 237.800293,142.730469 237.984375,142.108398 Z M240.148926,139.220215 C240.148926,140.121582 240.720215,140.718262 241.881836,141.016602 L243.043457,141.314941 C243.786133,141.511719 244.059082,141.765625 244.059082,142.235352 C244.059082,142.832031 243.506836,143.212891 242.611816,143.212891 C241.716797,143.212891 241.196289,142.844727 241.075684,142.15918 L239.971191,142.15918 C240.085449,143.327148 241.094727,144.114258 242.541992,144.114258 C244.084473,144.114258 245.169922,143.301758 245.169922,142.152832 C245.169922,141.181641 244.6875,140.699219 243.354492,140.362793 L242.33252,140.115234 C241.583496,139.924805 241.234375,139.620117 241.234375,139.163086 C241.234375,138.585449 241.767578,138.185547 242.57373,138.185547 C243.38623,138.185547 243.900391,138.579102 243.976562,139.213867 L245.030273,139.213867 C244.979492,138.09668 243.976562,137.28418 242.611816,137.28418 C241.158203,137.28418 240.148926,138.090332 240.148926,139.220215 Z"/>
    <path fill="#0060DF" d="M128.791016 54.1757812C131.127441 54.1757812 132.694824 53.0112305 133.178223 50.9238281L131.845215 50.9238281C131.464355 52.2128906 130.351074 52.9599609 128.79834 52.9599609 126.710938 52.9599609 125.385254 51.3046875 125.385254 48.7119141 125.385254 46.1411133 126.725586 44.4711914 128.791016 44.4711914 130.299805 44.4711914 131.508301 45.3793945 131.845215 46.7636719L133.178223 46.7636719C132.841309 44.6542969 131.09082 43.2553711 128.791016 43.2553711 125.897949 43.2553711 124.030273 45.394043 124.030273 48.7119141 124.030273 52.059082 125.875977 54.1757812 128.791016 54.1757812zM134.533203 54L135.807617 54 135.807617 49.2539062C135.807617 48.1772461 136.452148 47.4667969 137.440918 47.4667969 137.748535 47.4667969 138.019531 47.503418 138.12207 47.5400391L138.12207 46.3022461C138.019531 46.2875977 137.829102 46.2509766 137.609375 46.2509766 136.71582 46.2509766 136.012695 46.7856445 135.763672 47.6279297L135.734375 47.6279297 135.734375 46.3828125 134.533203 46.3828125 134.533203 54zM141.842773 47.3569336C140.648926 47.3569336 139.813965 48.2724609 139.733398 49.5395508L143.871582 49.5395508C143.842285 48.2651367 143.043945 47.3569336 141.842773 47.3569336zM143.842285 51.8173828L145.094727 51.8173828C144.875 53.1503906 143.585938 54.1318359 141.92334 54.1318359 139.740723 54.1318359 138.415039 52.6157227 138.415039 50.2207031 138.415039 47.8549805 139.762695 46.2509766 141.864746 46.2509766 143.922852 46.2509766 145.189941 47.7451172 145.189941 50.0522461L145.189941 50.5356445 139.726074 50.5356445 139.726074 50.6088867C139.726074 52.0664062 140.583008 53.0258789 141.952637 53.0258789 142.919434 53.0258789 143.629883 52.5351562 143.842285 51.8173828zM148.983887 53.0478516C150.185059 53.0478516 151.10791 52.2055664 151.10791 51.1069336L151.10791 50.484375 149.071777 50.6088867C148.046387 50.6748047 147.460449 51.1289062 147.460449 51.8466797 147.460449 52.5717773 148.068359 53.0478516 148.983887 53.0478516zM148.698242 54.1318359C147.182129 54.1318359 146.164062 53.2163086 146.164062 51.8466797 146.164062 50.5429688 147.16748 49.7226562 148.925293 49.6201172L151.10791 49.4956055 151.10791 48.8583984C151.10791 47.9282227 150.492676 47.371582 149.437988 47.371582 148.456543 47.371582 147.841309 47.8330078 147.680176 48.5800781L146.449707 48.5800781C146.537598 47.2617188 147.665527 46.2509766 149.467285 46.2509766 151.254395 46.2509766 152.382324 47.2177734 152.382324 48.7338867L152.382324 54 151.173828 54 151.173828 52.6889648 151.144531 52.6889648C150.69043 53.5605469 149.723633 54.1318359 148.698242 54.1318359zM154.411133 44.5444336L154.411133 46.3828125 153.275879 46.3828125 153.275879 47.4301758 154.411133 47.4301758 154.411133 52.0224609C154.411133 53.4873047 154.953125 54.0585938 156.352051 54.0585938 156.652344 54.0585938 157.003906 54.0366211 157.157715 54L157.157715 52.9306641C157.069824 52.9453125 156.776855 52.9672852 156.630371 52.9672852 155.978516 52.9672852 155.685547 52.6523438 155.685547 51.956543L155.685547 47.4301758 157.165039 47.4301758 157.165039 46.3828125 155.685547 46.3828125 155.685547 44.5444336 154.411133 44.5444336zM161.354492 47.3569336C160.160645 47.3569336 159.325684 48.2724609 159.245117 49.5395508L163.383301 49.5395508C163.354004 48.2651367 162.555664 47.3569336 161.354492 47.3569336zM163.354004 51.8173828L164.606445 51.8173828C164.386719 53.1503906 163.097656 54.1318359 161.435059 54.1318359 159.252441 54.1318359 157.926758 52.6157227 157.926758 50.2207031 157.926758 47.8549805 159.274414 46.2509766 161.376465 46.2509766 163.43457 46.2509766 164.70166 47.7451172 164.70166 50.0522461L164.70166 50.5356445 159.237793 50.5356445 159.237793 50.6088867C159.237793 52.0664062 160.094727 53.0258789 161.464355 53.0258789 162.431152 53.0258789 163.141602 52.5351562 163.354004 51.8173828zM171.571777 53.0478516C172.772949 53.0478516 173.695801 52.2055664 173.695801 51.1069336L173.695801 50.484375 171.659668 50.6088867C170.634277 50.6748047 170.04834 51.1289062 170.04834 51.8466797 170.04834 52.5717773 170.65625 53.0478516 171.571777 53.0478516zM171.286133 54.1318359C169.77002 54.1318359 168.751953 53.2163086 168.751953 51.8466797 168.751953 50.5429688 169.755371 49.7226562 171.513184 49.6201172L173.695801 49.4956055 173.695801 48.8583984C173.695801 47.9282227 173.080566 47.371582 172.025879 47.371582 171.044434 47.371582 170.429199 47.8330078 170.268066 48.5800781L169.037598 48.5800781C169.125488 47.2617188 170.253418 46.2509766 172.055176 46.2509766 173.842285 46.2509766 174.970215 47.2177734 174.970215 48.7338867L174.970215 54 173.761719 54 173.761719 52.6889648 173.732422 52.6889648C173.27832 53.5605469 172.311523 54.1318359 171.286133 54.1318359zM176.588867 54L177.863281 54 177.863281 49.5175781C177.863281 48.2285156 178.646973 47.3789062 179.848145 47.3789062 181.02002 47.3789062 181.598633 48.0527344 181.598633 49.2832031L181.598633 54 182.873047 54 182.873047 49.0561523C182.873047 47.3276367 181.90625 46.2509766 180.236328 46.2509766 179.057129 46.2509766 178.244141 46.7783203 177.819336 47.5986328L177.790039 47.5986328 177.790039 46.3828125 176.588867 46.3828125 176.588867 54zM190.080078 53.0478516C191.28125 53.0478516 192.204102 52.2055664 192.204102 51.1069336L192.204102 50.484375 190.167969 50.6088867C189.142578 50.6748047 188.556641 51.1289062 188.556641 51.8466797 188.556641 52.5717773 189.164551 53.0478516 190.080078 53.0478516zM189.794434 54.1318359C188.27832 54.1318359 187.260254 53.2163086 187.260254 51.8466797 187.260254 50.5429688 188.263672 49.7226562 190.021484 49.6201172L192.204102 49.4956055 192.204102 48.8583984C192.204102 47.9282227 191.588867 47.371582 190.53418 47.371582 189.552734 47.371582 188.9375 47.8330078 188.776367 48.5800781L187.545898 48.5800781C187.633789 47.2617188 188.761719 46.2509766 190.563477 46.2509766 192.350586 46.2509766 193.478516 47.2177734 193.478516 48.7338867L193.478516 54 192.27002 54 192.27002 52.6889648 192.240723 52.6889648C191.786621 53.5605469 190.819824 54.1318359 189.794434 54.1318359zM201.425293 48.8803711C201.26416 47.5107422 200.128906 46.2509766 198.224609 46.2509766 196.122559 46.2509766 194.723633 47.7890625 194.723633 50.1914062 194.723633 52.6450195 196.129883 54.1318359 198.239258 54.1318359 199.967773 54.1318359 201.242188 53.0625 201.439941 51.5463867L200.1875 51.5463867C199.967773 52.4619141 199.286621 53.0112305 198.246582 53.0112305 196.928223 53.0112305 196.02002 51.9638672 196.02002 50.1914062 196.02002 48.4628906 196.913574 47.371582 198.231934 47.371582 199.352539 47.371582 199.99707 48.0527344 200.180176 48.8803711L201.425293 48.8803711zM208.939941 48.8803711C208.778809 47.5107422 207.643555 46.2509766 205.739258 46.2509766 203.637207 46.2509766 202.238281 47.7890625 202.238281 50.1914062 202.238281 52.6450195 203.644531 54.1318359 205.753906 54.1318359 207.482422 54.1318359 208.756836 53.0625 208.95459 51.5463867L207.702148 51.5463867C207.482422 52.4619141 206.80127 53.0112305 205.76123 53.0112305 204.442871 53.0112305 203.534668 51.9638672 203.534668 50.1914062 203.534668 48.4628906 204.428223 47.371582 205.746582 47.371582 206.867188 47.371582 207.511719 48.0527344 207.694824 48.8803711L208.939941 48.8803711zM213.283203 54.1318359C211.173828 54.1318359 209.75293 52.6157227 209.75293 50.1914062 209.75293 47.7597656 211.173828 46.2509766 213.283203 46.2509766 215.385254 46.2509766 216.806152 47.7597656 216.806152 50.1914062 216.806152 52.6157227 215.385254 54.1318359 213.283203 54.1318359zM213.283203 53.0112305C214.630859 53.0112305 215.509766 51.9858398 215.509766 50.1914062 215.509766 48.3969727 214.630859 47.371582 213.283203 47.371582 211.935547 47.371582 211.049316 48.3969727 211.049316 50.1914062 211.049316 51.9858398 211.935547 53.0112305 213.283203 53.0112305zM224.342773 46.3828125L223.068359 46.3828125 223.068359 50.8579102C223.068359 52.1542969 222.321289 53.0039062 221.083496 53.0039062 219.904297 53.0039062 219.325684 52.3374023 219.325684 51.0996094L219.325684 46.3828125 218.05127 46.3828125 218.05127 51.3266602C218.05127 53.0551758 219.025391 54.1318359 220.687988 54.1318359 221.859863 54.1318359 222.650879 53.6411133 223.10498 52.762207L223.134277 52.762207 223.134277 54 224.342773 54 224.342773 46.3828125zM225.990723 54L227.265137 54 227.265137 49.5175781C227.265137 48.2285156 228.048828 47.3789062 229.25 47.3789062 230.421875 47.3789062 231.000488 48.0527344 231.000488 49.2832031L231.000488 54 232.274902 54 232.274902 49.0561523C232.274902 47.3276367 231.308105 46.2509766 229.638184 46.2509766 228.458984 46.2509766 227.645996 46.7783203 227.221191 47.5986328L227.191895 47.5986328 227.191895 46.3828125 225.990723 46.3828125 225.990723 54zM234.303711 44.5444336L234.303711 46.3828125 233.168457 46.3828125 233.168457 47.4301758 234.303711 47.4301758 234.303711 52.0224609C234.303711 53.4873047 234.845703 54.0585938 236.244629 54.0585938 236.544922 54.0585938 236.896484 54.0366211 237.050293 54L237.050293 52.9306641C236.962402 52.9453125 236.669434 52.9672852 236.522949 52.9672852 235.871094 52.9672852 235.578125 52.6523438 235.578125 51.956543L235.578125 47.4301758 237.057617 47.4301758 237.057617 46.3828125 235.578125 46.3828125 235.578125 44.5444336 234.303711 44.5444336zM126.364746 80L126.364746 75.4223633 131.044922 75.4223633 131.044922 74.2504883 126.364746 74.2504883 126.364746 70.6176758 131.462402 70.6176758 131.462402 69.4311523 125.046387 69.4311523 125.046387 80 126.364746 80zM135.629883 80.1318359C133.520508 80.1318359 132.099609 78.6157227 132.099609 76.1914062 132.099609 73.7597656 133.520508 72.2509766 135.629883 72.2509766 137.731934 72.2509766 139.152832 73.7597656 139.152832 76.1914062 139.152832 78.6157227 137.731934 80.1318359 135.629883 80.1318359zM135.629883 79.0112305C136.977539 79.0112305 137.856445 77.9858398 137.856445 76.1914062 137.856445 74.3969727 136.977539 73.371582 135.629883 73.371582 134.282227 73.371582 133.395996 74.3969727 133.395996 76.1914062 133.395996 77.9858398 134.282227 79.0112305 135.629883 79.0112305zM140.43457 80L141.708984 80 141.708984 75.2539062C141.708984 74.1772461 142.353516 73.4667969 143.342285 73.4667969 143.649902 73.4667969 143.920898 73.503418 144.023438 73.5400391L144.023438 72.3022461C143.920898 72.2875977 143.730469 72.2509766 143.510742 72.2509766 142.617188 72.2509766 141.914062 72.7856445 141.665039 73.6279297L141.635742 73.6279297 141.635742 72.3828125 140.43457 72.3828125 140.43457 80zM147.788086 78.9379883C149.11377 78.9379883 150 77.8393555 150 76.1621094 150 74.4848633 149.11377 73.371582 147.788086 73.371582 146.477051 73.371582 145.620117 74.4555664 145.620117 76.1621094 145.620117 77.8686523 146.477051 78.9379883 147.788086 78.9379883zM147.832031 82.8710938C146.154785 82.8710938 144.829102 81.9262695 144.616699 80.6298828L145.927734 80.6298828C146.176758 81.3256836 146.931152 81.7871094 147.883301 81.7871094 149.20166 81.7871094 150 81.0253906 150 79.8901367L150 78.6889648 149.970703 78.6889648C149.501953 79.5166016 148.601074 80.0585938 147.531738 80.0585938 145.59082 80.0585938 144.316406 78.527832 144.316406 76.1621094 144.316406 73.7744141 145.59082 72.2509766 147.561035 72.2509766 148.637695 72.2509766 149.53125 72.7783203 150.036621 73.6645508L150.058594 73.6645508 150.058594 72.3828125 151.274414 72.3828125 151.274414 79.8461914C151.274414 81.6625977 149.934082 82.8710938 147.832031 82.8710938zM156.086426 80.1318359C153.977051 80.1318359 152.556152 78.6157227 152.556152 76.1914062 152.556152 73.7597656 153.977051 72.2509766 156.086426 72.2509766 158.188477 72.2509766 159.609375 73.7597656 159.609375 76.1914062 159.609375 78.6157227 158.188477 80.1318359 156.086426 80.1318359zM156.086426 79.0112305C157.434082 79.0112305 158.312988 77.9858398 158.312988 76.1914062 158.312988 74.3969727 157.434082 73.371582 156.086426 73.371582 154.73877 73.371582 153.852539 74.3969727 153.852539 76.1914062 153.852539 77.9858398 154.73877 79.0112305 156.086426 79.0112305zM161.30127 70.5444336L161.30127 72.3828125 160.166016 72.3828125 160.166016 73.4301758 161.30127 73.4301758 161.30127 78.0224609C161.30127 79.4873047 161.843262 80.0585938 163.242188 80.0585938 163.54248 80.0585938 163.894043 80.0366211 164.047852 80L164.047852 78.9306641C163.959961 78.9453125 163.666992 78.9672852 163.520508 78.9672852 162.868652 78.9672852 162.575684 78.6523438 162.575684 77.956543L162.575684 73.4301758 164.055176 73.4301758 164.055176 72.3828125 162.575684 72.3828125 162.575684 70.5444336 161.30127 70.5444336zM172.185059 72.2509766C174.125977 72.2509766 175.444336 73.8037109 175.444336 76.1914062 175.444336 78.5791016 174.133301 80.1318359 172.214355 80.1318359 171.123047 80.1318359 170.244141 79.597168 169.790039 78.762207L169.760742 78.762207 169.760742 82.5415039 168.486328 82.5415039 168.486328 72.3828125 169.694824 72.3828125 169.694824 73.671875 169.724121 73.671875C170.192871 72.8149414 171.079102 72.2509766 172.185059 72.2509766zM171.936035 79.0112305C173.291016 79.0112305 174.140625 77.9199219 174.140625 76.1914062 174.140625 74.4702148 173.291016 73.371582 171.936035 73.371582 170.632324 73.371582 169.753418 74.4995117 169.753418 76.1914062 169.753418 77.890625 170.632324 79.0112305 171.936035 79.0112305zM179.238281 79.0478516C180.439453 79.0478516 181.362305 78.2055664 181.362305 77.1069336L181.362305 76.484375 179.326172 76.6088867C178.300781 76.6748047 177.714844 77.1289062 177.714844 77.8466797 177.714844 78.5717773 178.322754 79.0478516 179.238281 79.0478516zM178.952637 80.1318359C177.436523 80.1318359 176.418457 79.2163086 176.418457 77.8466797 176.418457 76.5429688 177.421875 75.7226562 179.179688 75.6201172L181.362305 75.4956055 181.362305 74.8583984C181.362305 73.9282227 180.74707 73.371582 179.692383 73.371582 178.710938 73.371582 178.095703 73.8330078 177.93457 74.5800781L176.704102 74.5800781C176.791992 73.2617188 177.919922 72.2509766 179.72168 72.2509766 181.508789 72.2509766 182.636719 73.2177734 182.636719 74.7338867L182.636719 80 181.428223 80 181.428223 78.6889648 181.398926 78.6889648C180.944824 79.5605469 179.978027 80.1318359 178.952637 80.1318359zM184.123535 74.4848633C184.123535 75.5249023 184.782715 76.2133789 186.123047 76.5576172L187.463379 76.9018555C188.320312 77.1289062 188.635254 77.421875 188.635254 77.9638672 188.635254 78.6523438 187.998047 79.0917969 186.965332 79.0917969 185.932617 79.0917969 185.332031 78.6669922 185.192871 77.8759766L183.918457 77.8759766C184.050293 79.2236328 185.214844 80.1318359 186.884766 80.1318359 188.664551 80.1318359 189.916992 79.1943359 189.916992 77.8686523 189.916992 76.7480469 189.360352 76.1914062 187.822266 75.8032227L186.643066 75.5175781C185.778809 75.2978516 185.375977 74.9462891 185.375977 74.4189453 185.375977 73.7524414 185.991211 73.2910156 186.921387 73.2910156 187.858887 73.2910156 188.452148 73.7451172 188.540039 74.4775391L189.755859 74.4775391C189.697266 73.1884766 188.540039 72.2509766 186.965332 72.2509766 185.288086 72.2509766 184.123535 73.1811523 184.123535 74.4848633zM191.103516 74.4848633C191.103516 75.5249023 191.762695 76.2133789 193.103027 76.5576172L194.443359 76.9018555C195.300293 77.1289062 195.615234 77.421875 195.615234 77.9638672 195.615234 78.6523438 194.978027 79.0917969 193.945312 79.0917969 192.912598 79.0917969 192.312012 78.6669922 192.172852 77.8759766L190.898438 77.8759766C191.030273 79.2236328 192.194824 80.1318359 193.864746 80.1318359 195.644531 80.1318359 196.896973 79.1943359 196.896973 77.8686523 196.896973 76.7480469 196.340332 76.1914062 194.802246 75.8032227L193.623047 75.5175781C192.758789 75.2978516 192.355957 74.9462891 192.355957 74.4189453 192.355957 73.7524414 192.971191 73.2910156 193.901367 73.2910156 194.838867 73.2910156 195.432129 73.7451172 195.52002 74.4775391L196.73584 74.4775391C196.677246 73.1884766 195.52002 72.2509766 193.945312 72.2509766 192.268066 72.2509766 191.103516 73.1811523 191.103516 74.4848633zM207.905273 72.3828125L206.645508 72.3828125 205.12207 78.5791016 205.092773 78.5791016 203.364258 72.3828125 202.133789 72.3828125 200.412598 78.5791016 200.383301 78.5791016 198.859863 72.3828125 197.592773 72.3828125 199.724121 80 201.020508 80 202.734375 74.1040039 202.763672 74.1040039 204.484863 80 205.78125 80 207.905273 72.3828125zM212.102051 80.1318359C209.992676 80.1318359 208.571777 78.6157227 208.571777 76.1914062 208.571777 73.7597656 209.992676 72.2509766 212.102051 72.2509766 214.204102 72.2509766 215.625 73.7597656 215.625 76.1914062 215.625 78.6157227 214.204102 80.1318359 212.102051 80.1318359zM212.102051 79.0112305C213.449707 79.0112305 214.328613 77.9858398 214.328613 76.1914062 214.328613 74.3969727 213.449707 73.371582 212.102051 73.371582 210.754395 73.371582 209.868164 74.3969727 209.868164 76.1914062 209.868164 77.9858398 210.754395 79.0112305 212.102051 79.0112305zM216.906738 80L218.181152 80 218.181152 75.2539062C218.181152 74.1772461 218.825684 73.4667969 219.814453 73.4667969 220.12207 73.4667969 220.393066 73.503418 220.495605 73.5400391L220.495605 72.3022461C220.393066 72.2875977 220.202637 72.2509766 219.98291 72.2509766 219.089355 72.2509766 218.38623 72.7856445 218.137207 73.6279297L218.10791 73.6279297 218.10791 72.3828125 216.906738 72.3828125 216.906738 80zM224.047852 80.1318359C222.106934 80.1318359 220.788574 78.5791016 220.788574 76.1914062 220.788574 73.8037109 222.099609 72.2509766 224.018555 72.2509766 225.109863 72.2509766 225.98877 72.7856445 226.442871 73.6206055L226.472168 73.6206055 226.472168 69.4311523 227.746582 69.4311523 227.746582 80 226.530762 80 226.530762 78.7109375 226.508789 78.7109375C226.018066 79.5898438 225.146484 80.1318359 224.047852 80.1318359zM224.289551 73.371582C222.941895 73.371582 222.092285 74.4702148 222.092285 76.1914062 222.092285 77.9199219 222.941895 79.0112305 224.289551 79.0112305 225.600586 79.0112305 226.479492 77.8979492 226.479492 76.1914062 226.479492 74.4921875 225.600586 73.371582 224.289551 73.371582zM229.050293 72.1923828L230.302734 72.1923828C230.383301 71.1450195 231.086426 70.4931641 232.192383 70.4931641 233.283691 70.4931641 233.986816 71.159668 233.986816 72.0678711 233.986816 72.8515625 233.657227 73.3129883 232.807617 73.8330078 231.804199 74.4335938 231.335449 75.0927734 231.342773 76.0595703L231.342773 76.7333984 232.624512 76.7333984 232.624512 76.2573242C232.624512 75.4882812 232.888184 75.078125 233.818359 74.5288086 234.755859 73.9648438 235.349121 73.1518555 235.349121 72.0019531 235.349121 70.4931641 234.089355 69.3505859 232.243652 69.3505859 230.185547 69.3505859 229.130859 70.6103516 229.050293 72.1923828zM231.987305 80.0732422C232.463379 80.0732422 232.822266 79.7070312 232.822266 79.2382812 232.822266 78.762207 232.463379 78.4033203 231.987305 78.4033203 231.518555 78.4033203 231.152344 78.762207 231.152344 79.2382812 231.152344 79.7070312 231.518555 80.0732422 231.987305 80.0732422z"/>
  </g>
</svg>
