<svg xmlns="http://www.w3.org/2000/svg" width="360" height="480" viewBox="0 0 360 480">
  <g fill="none" fill-rule="evenodd">
    <rect width="32" height="32" x="164" y="162" fill="#0C0C0D" fill-opacity=".1" rx="2"/>
    <rect width="32" height="32" x="164" y="226" fill="#0C0C0D" fill-opacity=".2" rx="2"/>
    <path fill="#0C0C0D" fill-opacity=".8" fill-rule="nonzero" d="M14,1.00023652 C13.4477153,1.00023652 13,1.44795177 13,2.00023652 L13,3.14623652 C11.2451486,1.31112962 8.62901259,0.579424873 6.17674822,1.23784734 C3.72448385,1.8962698 1.82667689,3.83994888 1.227,6.30723652 C1.13105647,6.65710583 1.23212494,7.03149649 1.49110116,7.28555359 C1.75007738,7.53961069 2.12633718,7.63348169 2.47430246,7.53084711 C2.82226774,7.42821253 3.0873551,7.14517209 3.167,6.79123652 C3.7150153,4.56683643 5.70908959,3.00268671 8,3.00023652 C9.5652211,2.99778553 11.0381778,3.74039036 11.967,5.00023652 L10,5.00023652 C9.44771525,5.00023652 9,5.44795177 9,6.00023652 C9,6.55252127 9.44771525,7.00023652 10,7.00023652 L14,7.00023652 C14.5522847,7.00023652 15,6.55252127 15,6.00023652 L15,2.00023652 C15,1.44795177 14.5522847,1.00023652 14,1.00023652 Z M14.046,8.48123652 C13.7886025,8.41682778 13.5161594,8.45735517 13.2886541,8.59389582 C13.0611489,8.73043646 12.8972346,8.95179548 12.833,9.20923652 C12.2849847,11.4336366 10.2909104,12.9977863 8,13.0002365 C6.4347789,13.0026875 4.96182223,12.2600827 4.033,11.0002365 L6,11.0002365 C6.55228475,11.0002365 7,10.5525213 7,10.0002365 C7,9.44795177 6.55228475,9.00023652 6,9.00023652 L2,9.00023652 C1.44771525,9.00023652 1,9.44795177 1,10.0002365 L1,14.0002365 C1,14.5525213 1.44771525,15.0002365 2,15.0002365 C2.55228475,15.0002365 3,14.5525213 3,14.0002365 L3,12.8542365 C4.75485137,14.6893434 7.37098741,15.4210482 9.82325178,14.7626257 C12.2755162,14.1042032 14.1733231,12.1605242 14.773,9.69323652 C14.9065558,9.15785201 14.5812153,8.6154687 14.046,8.48123652 Z" transform="translate(172 106)"/>
    <path fill="#0C0C0D" fill-opacity=".8" fill-rule="nonzero" d="M14,1.00023652 C13.4477153,1.00023652 13,1.44795177 13,2.00023652 L13,3.14623652 C11.2451486,1.31112962 8.62901259,0.579424873 6.17674822,1.23784734 C3.72448385,1.8962698 1.82667689,3.83994888 1.227,6.30723652 C1.13105647,6.65710583 1.23212494,7.03149649 1.49110116,7.28555359 C1.75007738,7.53961069 2.12633718,7.63348169 2.47430246,7.53084711 C2.82226774,7.42821253 3.0873551,7.14517209 3.167,6.79123652 C3.7150153,4.56683643 5.70908959,3.00268671 8,3.00023652 C9.5652211,2.99778553 11.0381778,3.74039036 11.967,5.00023652 L10,5.00023652 C9.44771525,5.00023652 9,5.44795177 9,6.00023652 C9,6.55252127 9.44771525,7.00023652 10,7.00023652 L14,7.00023652 C14.5522847,7.00023652 15,6.55252127 15,6.00023652 L15,2.00023652 C15,1.44795177 14.5522847,1.00023652 14,1.00023652 Z M14.046,8.48123652 C13.7886025,8.41682778 13.5161594,8.45735517 13.2886541,8.59389582 C13.0611489,8.73043646 12.8972346,8.95179548 12.833,9.20923652 C12.2849847,11.4336366 10.2909104,12.9977863 8,13.0002365 C6.4347789,13.0026875 4.96182223,12.2600827 4.033,11.0002365 L6,11.0002365 C6.55228475,11.0002365 7,10.5525213 7,10.0002365 C7,9.44795177 6.55228475,9.00023652 6,9.00023652 L2,9.00023652 C1.44771525,9.00023652 1,9.44795177 1,10.0002365 L1,14.0002365 C1,14.5525213 1.44771525,15.0002365 2,15.0002365 C2.55228475,15.0002365 3,14.5525213 3,14.0002365 L3,12.8542365 C4.75485137,14.6893434 7.37098741,15.4210482 9.82325178,14.7626257 C12.2755162,14.1042032 14.1733231,12.1605242 14.773,9.69323652 C14.9065558,9.15785201 14.5812153,8.6154687 14.046,8.48123652 Z" transform="translate(172 170)"/>
    <path fill="#0C0C0D" fill-opacity=".8" fill-rule="nonzero" d="M14,1.00023652 C13.4477153,1.00023652 13,1.44795177 13,2.00023652 L13,3.14623652 C11.2451486,1.31112962 8.62901259,0.579424873 6.17674822,1.23784734 C3.72448385,1.8962698 1.82667689,3.83994888 1.227,6.30723652 C1.13105647,6.65710583 1.23212494,7.03149649 1.49110116,7.28555359 C1.75007738,7.53961069 2.12633718,7.63348169 2.47430246,7.53084711 C2.82226774,7.42821253 3.0873551,7.14517209 3.167,6.79123652 C3.7150153,4.56683643 5.70908959,3.00268671 8,3.00023652 C9.5652211,2.99778553 11.0381778,3.74039036 11.967,5.00023652 L10,5.00023652 C9.44771525,5.00023652 9,5.44795177 9,6.00023652 C9,6.55252127 9.44771525,7.00023652 10,7.00023652 L14,7.00023652 C14.5522847,7.00023652 15,6.55252127 15,6.00023652 L15,2.00023652 C15,1.44795177 14.5522847,1.00023652 14,1.00023652 Z M14.046,8.48123652 C13.7886025,8.41682778 13.5161594,8.45735517 13.2886541,8.59389582 C13.0611489,8.73043646 12.8972346,8.95179548 12.833,9.20923652 C12.2849847,11.4336366 10.2909104,12.9977863 8,13.0002365 C6.4347789,13.0026875 4.96182223,12.2600827 4.033,11.0002365 L6,11.0002365 C6.55228475,11.0002365 7,10.5525213 7,10.0002365 C7,9.44795177 6.55228475,9.00023652 6,9.00023652 L2,9.00023652 C1.44771525,9.00023652 1,9.44795177 1,10.0002365 L1,14.0002365 C1,14.5525213 1.44771525,15.0002365 2,15.0002365 C2.55228475,15.0002365 3,14.5525213 3,14.0002365 L3,12.8542365 C4.75485137,14.6893434 7.37098741,15.4210482 9.82325178,14.7626257 C12.2755162,14.1042032 14.1733231,12.1605242 14.773,9.69323652 C14.9065558,9.15785201 14.5812153,8.6154687 14.046,8.48123652 Z" transform="translate(172 234)"/>
    <path fill="#0C0C0D" fill-opacity=".8" fill-rule="nonzero" d="M13,0.000236514973 C12.4477153,0.000236514973 12,0.447936638 12,1.00020273 L12,2.14616401 C10.2451486,0.311119109 7.62901259,-0.420560916 5.17674822,0.237839301 C2.72448385,0.896239519 0.826676893,2.83985293 0.227,5.3070572 C0.131056469,5.65691469 0.232124937,6.0312927 0.491101158,6.28534122 C0.750077379,6.53938973 1.12633718,6.63325756 1.47430246,6.53062645 C1.82226774,6.42799533 2.0873551,6.14496445 2.167,5.79104085 C2.7150153,3.56671592 4.70908959,2.00261904 7,2.00016894 C8.5652211,1.99771803 10.0381778,2.74029777 10.967,4.00010136 L9,4.00010136 C8.44771525,4.00010136 8,4.44780149 8,5.00006758 C8,5.55233367 8.44771525,6.00003379 9,6.00003379 L13,6.00003379 C13.5522847,6.00003379 14,5.55233367 14,5.00006758 L14,1.00020273 C14,0.447936638 13.5522847,0.000236514973 13,0.000236514973 Z M13.046,7.48098375 C12.7886025,7.41657719 12.5161594,7.4571032 12.2886541,7.59363923 C12.0611489,7.73017527 11.8972346,7.95152681 11.833,8.20895915 C11.2849847,10.4332841 9.29091041,11.997381 7,11.9998311 C5.4347789,12.002282 3.96182223,11.2597022 3.033,9.99989864 L5,9.99989864 C5.55228475,9.99989864 6,9.55219851 6,8.99993242 C6,8.44766633 5.55228475,7.99996621 5,7.99996621 L1,7.99996621 C0.44771525,7.99996621 0,8.44766633 0,8.99993242 L0,12.9997973 C0,13.5520634 0.44771525,13.9997635 1,13.9997635 C1.55228475,13.9997635 2,13.5520634 2,12.9997973 L2,11.853836 C3.75485137,13.6888809 6.37098741,14.4205609 8.82325178,13.7621607 C11.2755162,13.1037605 13.1733231,11.1601471 13.773,8.6929428 C13.9065558,8.15757637 13.5812153,7.61521139 13.046,7.48098375 Z" transform="translate(173 297)"/>
    <path fill="#0A84FF" fill-rule="nonzero" d="M166,290 L166,318 L194,318 L194,290 L166,290 Z M166,288 L194,288 C195.104569,288 196,288.895431 196,290 L196,318 C196,319.104569 195.104569,320 194,320 L166,320 C164.895431,320 164,319.104569 164,318 L164,290 C164,288.895431 164.895431,288 166,288 Z"/>
    <path fill="#0A84FF" fill-opacity=".3" fill-rule="nonzero" d="M166,288 C164.895431,288 164,288.895431 164,290 L164,318 C164,319.104569 164.895431,320 166,320 L194,320 C195.104569,320 196,319.104569 196,318 L196,290 C196,288.895431 195.104569,288 194,288 L166,288 Z M166,286 L194,286 C196.209139,286 198,287.790861 198,290 L198,318 C198,320.209139 196.209139,322 194,322 L166,322 C163.790861,322 162,320.209139 162,318 L162,290 C162,287.790861 163.790861,286 166,286 Z"/>
    <path fill="#0C0C0D" fill-opacity=".4" fill-rule="nonzero" d="M14,1.00023652 C13.4477153,1.00023652 13,1.44795177 13,2.00023652 L13,3.14623652 C11.2451486,1.31112962 8.62901259,0.579424873 6.17674822,1.23784734 C3.72448385,1.8962698 1.82667689,3.83994888 1.227,6.30723652 C1.13105647,6.65710583 1.23212494,7.03149649 1.49110116,7.28555359 C1.75007738,7.53961069 2.12633718,7.63348169 2.47430246,7.53084711 C2.82226774,7.42821253 3.0873551,7.14517209 3.167,6.79123652 C3.7150153,4.56683643 5.70908959,3.00268671 8,3.00023652 C9.5652211,2.99778553 11.0381778,3.74039036 11.967,5.00023652 L10,5.00023652 C9.44771525,5.00023652 9,5.44795177 9,6.00023652 C9,6.55252127 9.44771525,7.00023652 10,7.00023652 L14,7.00023652 C14.5522847,7.00023652 15,6.55252127 15,6.00023652 L15,2.00023652 C15,1.44795177 14.5522847,1.00023652 14,1.00023652 Z M14.046,8.48123652 C13.7886025,8.41682778 13.5161594,8.45735517 13.2886541,8.59389582 C13.0611489,8.73043646 12.8972346,8.95179548 12.833,9.20923652 C12.2849847,11.4336366 10.2909104,12.9977863 8,13.0002365 C6.4347789,13.0026875 4.96182223,12.2600827 4.033,11.0002365 L6,11.0002365 C6.55228475,11.0002365 7,10.5525213 7,10.0002365 C7,9.44795177 6.55228475,9.00023652 6,9.00023652 L2,9.00023652 C1.44771525,9.00023652 1,9.44795177 1,10.0002365 L1,14.0002365 C1,14.5525213 1.44771525,15.0002365 2,15.0002365 C2.55228475,15.0002365 3,14.5525213 3,14.0002365 L3,12.8542365 C4.75485137,14.6893434 7.37098741,15.4210482 9.82325178,14.7626257 C12.2755162,14.1042032 14.1733231,12.1605242 14.773,9.69323652 C14.9065558,9.15785201 14.5812153,8.6154687 14.046,8.48123652 Z" transform="translate(172 358)"/>
  </g>
</svg>
