<svg xmlns="http://www.w3.org/2000/svg" width="300" height="180" viewBox="0 0 300 180">
  <g fill="none" fill-rule="evenodd">
    <rect width="144" height="48" x="78" y="66" fill="#0060DF" rx="4"/>
    <path fill="#FFF" d="M96.7272949,84.4311523 L95.4089355,84.4311523 L95.4089355,91.2939453 C95.4089355,93.5498047 96.9836426,95.1757812 99.6057129,95.1757812 C102.227783,95.1757812 103.80249,93.5498047 103.80249,91.2939453 L103.80249,84.4311523 L102.484131,84.4311523 L102.484131,91.2060547 C102.484131,92.8027344 101.436768,93.9599609 99.6057129,93.9599609 C97.7746582,93.9599609 96.7272949,92.8027344 96.7272949,91.2060547 L96.7272949,84.4311523 Z M109.354248,87.2509766 C111.295166,87.2509766 112.613525,88.8037109 112.613525,91.1914062 C112.613525,93.5791016 111.30249,95.1318359 109.383545,95.1318359 C108.292236,95.1318359 107.41333,94.597168 106.959229,93.762207 L106.929932,93.762207 L106.929932,97.5415039 L105.655518,97.5415039 L105.655518,87.3828125 L106.864014,87.3828125 L106.864014,88.671875 L106.893311,88.671875 C107.362061,87.8149414 108.248291,87.2509766 109.354248,87.2509766 Z M109.105225,94.0112305 C110.460205,94.0112305 111.309814,92.9199219 111.309814,91.1914062 C111.309814,89.4702148 110.460205,88.371582 109.105225,88.371582 C107.801514,88.371582 106.922607,89.4995117 106.922607,91.1914062 C106.922607,92.890625 107.801514,94.0112305 109.105225,94.0112305 Z M116.781006,95.1318359 C114.840088,95.1318359 113.521729,93.5791016 113.521729,91.1914062 C113.521729,88.8037109 114.832764,87.2509766 116.751709,87.2509766 C117.843018,87.2509766 118.721924,87.7856445 119.176025,88.6206055 L119.205322,88.6206055 L119.205322,84.4311523 L120.479736,84.4311523 L120.479736,95 L119.263916,95 L119.263916,93.7109375 L119.241943,93.7109375 C118.751221,94.5898438 117.879639,95.1318359 116.781006,95.1318359 Z M117.022705,88.371582 C115.675049,88.371582 114.825439,89.4702148 114.825439,91.1914062 C114.825439,92.9199219 115.675049,94.0112305 117.022705,94.0112305 C118.33374,94.0112305 119.212646,92.8979492 119.212646,91.1914062 C119.212646,89.4921875 118.33374,88.371582 117.022705,88.371582 Z M124.713135,94.0478516 C125.914307,94.0478516 126.837158,93.2055664 126.837158,92.1069336 L126.837158,91.484375 L124.801025,91.6088867 C123.775635,91.6748047 123.189697,92.1289062 123.189697,92.8466797 C123.189697,93.5717773 123.797607,94.0478516 124.713135,94.0478516 Z M124.42749,95.1318359 C122.911377,95.1318359 121.893311,94.2163086 121.893311,92.8466797 C121.893311,91.5429688 122.896729,90.7226562 124.654541,90.6201172 L126.837158,90.4956055 L126.837158,89.8583984 C126.837158,88.9282227 126.221924,88.371582 125.167236,88.371582 C124.185791,88.371582 123.570557,88.8330078 123.409424,89.5800781 L122.178955,89.5800781 C122.266846,88.2617188 123.394775,87.2509766 125.196533,87.2509766 C126.983643,87.2509766 128.111572,88.2177734 128.111572,89.7338867 L128.111572,95 L126.903076,95 L126.903076,93.6889648 L126.873779,93.6889648 C126.419678,94.5605469 125.452881,95.1318359 124.42749,95.1318359 Z M130.140381,85.5444336 L130.140381,87.3828125 L129.005127,87.3828125 L129.005127,88.4301758 L130.140381,88.4301758 L130.140381,93.0224609 C130.140381,94.4873047 130.682373,95.0585938 132.081299,95.0585938 C132.381592,95.0585938 132.733154,95.0366211 132.886963,95 L132.886963,93.9306641 C132.799072,93.9453125 132.506104,93.9672852 132.359619,93.9672852 C131.707764,93.9672852 131.414795,93.6523438 131.414795,92.956543 L131.414795,88.4301758 L132.894287,88.4301758 L132.894287,87.3828125 L131.414795,87.3828125 L131.414795,85.5444336 L130.140381,85.5444336 Z M137.08374,88.3569336 C135.889893,88.3569336 135.054932,89.2724609 134.974365,90.5395508 L139.112549,90.5395508 C139.083252,89.2651367 138.284912,88.3569336 137.08374,88.3569336 Z M139.083252,92.8173828 L140.335693,92.8173828 C140.115967,94.1503906 138.826904,95.1318359 137.164307,95.1318359 C134.981689,95.1318359 133.656006,93.6157227 133.656006,91.2207031 C133.656006,88.8549805 135.003662,87.2509766 137.105713,87.2509766 C139.163818,87.2509766 140.430908,88.7451172 140.430908,91.0522461 L140.430908,91.5356445 L134.967041,91.5356445 L134.967041,91.6088867 C134.967041,93.0664062 135.823975,94.0258789 137.193604,94.0258789 C138.1604,94.0258789 138.87085,93.5351562 139.083252,92.8173828 Z M144.788818,95 L146.063232,95 L146.063232,90.2246094 C146.063232,89.1699219 146.795654,88.3789062 147.806396,88.3789062 C148.751221,88.3789062 149.366455,88.9794922 149.366455,89.8950195 L149.366455,95 L150.640869,95 L150.640869,90.1586914 C150.640869,89.1259766 151.351318,88.3789062 152.362061,88.3789062 C153.365479,88.3789062 153.944092,88.9941406 153.944092,90.0341797 L153.944092,95 L155.218506,95 L155.218506,89.7412109 C155.218506,88.2324219 154.244385,87.2509766 152.735596,87.2509766 C151.66626,87.2509766 150.772705,87.7929688 150.3479,88.7011719 L150.318604,88.7011719 C149.989014,87.7783203 149.219971,87.2509766 148.179932,87.2509766 C147.154541,87.2509766 146.378174,87.7929688 146.019287,88.5986328 L145.98999,88.5986328 L145.98999,87.3828125 L144.788818,87.3828125 L144.788818,95 Z M157.467041,97.8491211 C158.843994,97.8491211 159.473877,97.3144531 160.125732,95.534668 L163.121338,87.3828125 L161.781006,87.3828125 L159.671631,93.7255859 L159.649658,93.7255859 L157.540283,87.3828125 L156.177979,87.3828125 L158.990479,95.0073242 L158.814697,95.5419922 C158.521729,96.4282227 158.126221,96.7724609 157.415771,96.7724609 C157.254639,96.7724609 157.056885,96.7651367 156.917725,96.7358398 L156.917725,97.8051758 C157.056885,97.8344727 157.313232,97.8491211 157.467041,97.8491211 Z M167.398682,84.4311523 L171.170654,84.4311523 C173.155518,84.4311523 174.554443,85.8227539 174.554443,87.8222656 C174.554443,89.8291016 173.140869,91.2280273 171.156006,91.2280273 L168.717041,91.2280273 L168.717041,95 L167.398682,95 L167.398682,84.4311523 Z M168.717041,85.6030273 L168.717041,90.0561523 L170.826416,90.0561523 C172.335205,90.0561523 173.199463,89.2285156 173.199463,87.8222656 C173.199463,86.4233398 172.342529,85.6030273 170.826416,85.6030273 L168.717041,85.6030273 Z M175.865479,95 L177.139893,95 L177.139893,90.2539062 C177.139893,89.1772461 177.784424,88.4667969 178.773193,88.4667969 C179.080811,88.4667969 179.351807,88.503418 179.454346,88.5400391 L179.454346,87.3022461 C179.351807,87.2875977 179.161377,87.2509766 178.94165,87.2509766 C178.048096,87.2509766 177.344971,87.7856445 177.095947,88.6279297 L177.06665,88.6279297 L177.06665,87.3828125 L175.865479,87.3828125 L175.865479,95 Z M183.277588,95.1318359 C181.168213,95.1318359 179.747314,93.6157227 179.747314,91.1914062 C179.747314,88.7597656 181.168213,87.2509766 183.277588,87.2509766 C185.379639,87.2509766 186.800537,88.7597656 186.800537,91.1914062 C186.800537,93.6157227 185.379639,95.1318359 183.277588,95.1318359 Z M183.277588,94.0112305 C184.625244,94.0112305 185.50415,92.9858398 185.50415,91.1914062 C185.50415,89.3969727 184.625244,88.371582 183.277588,88.371582 C181.929932,88.371582 181.043701,89.3969727 181.043701,91.1914062 C181.043701,92.9858398 181.929932,94.0112305 183.277588,94.0112305 Z M188.492432,95 L189.766846,95 L189.766846,88.4301758 L191.31958,88.4301758 L191.31958,87.3828125 L189.759521,87.3828125 L189.759521,86.5405273 C189.759521,85.7861328 190.089111,85.4199219 190.777588,85.4199219 C190.98999,85.4199219 191.202393,85.4418945 191.356201,85.4638672 L191.356201,84.4311523 C191.173096,84.4018555 190.865479,84.3725586 190.579834,84.3725586 C189.173584,84.3725586 188.492432,85.0683594 188.492432,86.5332031 L188.492432,87.3828125 L187.43042,87.3828125 L187.43042,88.4301758 L188.492432,88.4301758 L188.492432,95 Z M192.703857,95 L193.978271,95 L193.978271,87.3828125 L192.703857,87.3828125 L192.703857,95 Z M193.341064,86.1010742 C193.780518,86.1010742 194.139404,85.7421875 194.139404,85.3100586 C194.139404,84.8706055 193.780518,84.519043 193.341064,84.519043 C192.908936,84.519043 192.550049,84.8706055 192.550049,85.3100586 C192.550049,85.7421875 192.908936,86.1010742 193.341064,86.1010742 Z M195.765381,95 L197.039795,95 L197.039795,84.4311523 L195.765381,84.4311523 L195.765381,95 Z M201.815186,88.3569336 C200.621338,88.3569336 199.786377,89.2724609 199.705811,90.5395508 L203.843994,90.5395508 C203.814697,89.2651367 203.016357,88.3569336 201.815186,88.3569336 Z M203.814697,92.8173828 L205.067139,92.8173828 C204.847412,94.1503906 203.55835,95.1318359 201.895752,95.1318359 C199.713135,95.1318359 198.387451,93.6157227 198.387451,91.2207031 C198.387451,88.8549805 199.735107,87.2509766 201.837158,87.2509766 C203.895264,87.2509766 205.162354,88.7451172 205.162354,91.0522461 L205.162354,91.5356445 L199.698486,91.5356445 L199.698486,91.6088867 C199.698486,93.0664062 200.55542,94.0258789 201.925049,94.0258789 C202.891846,94.0258789 203.602295,93.5351562 203.814697,92.8173828 Z"/>
    <rect width="5" height="1" x="241" y="66" fill="#FF1AD9"/>
    <rect width="5" height="1" x="241" y="113" fill="#FF1AD9"/>
    <rect width="1" height="48" x="243" y="66" fill="#FF1AD9"/>
    <polygon fill="#FF1AD9" points="240 90 244 86 248 90 244 94"/>
    <rect width="35" height="22" x="226" y="79" fill="#FF1AD9" rx="2"/>
    <path fill="#FFF" d="M235.436,91.18 L234.368,91.18 L234.368,88.84 L233.492,88.84 L233.408,91.18 L231.032,91.18 L233.228,85.96 L232.388,85.6 L229.964,91.252 L229.964,91.996 L233.396,91.996 L233.396,94 L234.368,94 L234.368,91.996 L235.436,91.996 L235.436,91.18 Z M242.372,87.7 C242.372,88.504 241.856,89.068 240.944,89.572 C242.024,90.016 242.72,90.772 242.72,91.78 C242.72,93.136 241.616,94.132 239.876,94.132 C238.1,94.132 237.08,93.112 237.08,91.804 C237.08,90.796 237.74,90.112 238.748,89.644 C237.86,89.224 237.428,88.684 237.428,87.76 C237.428,86.248 238.808,85.6 239.9,85.6 C241.1,85.6 242.372,86.236 242.372,87.7 Z M238.412,87.772 C238.412,88.72 239.108,88.948 240.236,89.32 C241.004,88.876 241.388,88.492 241.388,87.748 C241.388,86.92 240.848,86.392 239.9,86.392 C238.964,86.392 238.412,86.896 238.412,87.772 Z M241.652,91.804 C241.652,90.688 240.74,90.388 239.432,89.932 C238.76,90.244 238.148,90.772 238.148,91.804 C238.148,92.74 238.736,93.316 239.876,93.316 C241.028,93.316 241.652,92.668 241.652,91.804 Z M247.532,87.544 C249.212,87.544 249.824,88.852 249.824,90.832 C249.824,92.752 249.032,94.132 247.388,94.132 C246.692,94.132 246.14,93.892 245.708,93.412 L245.708,96.424 L244.7,96.544 L244.7,87.676 L245.564,87.676 L245.648,88.564 C246.104,87.916 246.776,87.544 247.532,87.544 Z M247.292,88.36 C246.596,88.36 246.056,88.864 245.708,89.368 L245.708,92.5 C246.044,92.992 246.56,93.292 247.16,93.292 C248.204,93.292 248.732,92.512 248.732,90.832 C248.732,89.188 248.288,88.36 247.292,88.36 Z M252.524,94 L254.264,91.288 L256.004,94 L257.228,94 L254.9,90.616 L256.952,87.676 L255.788,87.676 L254.312,90.028 L252.848,87.676 L251.648,87.676 L253.7,90.664 L251.372,94 L252.524,94 Z"/>
    <rect width="1" height="5" x="206" y="116" fill="#30E60B"/>
    <rect width="1" height="5" x="221" y="116" fill="#30E60B"/>
    <rect width="16" height="1" x="206" y="118" fill="#30E60B"/>
    <polygon fill="#30E60B" points="210 125 214 121 218 125 214 129"/>
    <rect width="35" height="22" x="196" y="125" fill="#30E60B" rx="2"/>
    <path fill="#003706" d="M203.588,139.184 L203.588,131.732 L202.7,131.732 L200.24,133.268 L200.684,133.976 L202.568,132.836 L202.568,139.184 L200.54,139.184 L200.54,140 L205.304,140 L205.304,139.184 L203.588,139.184 Z M210.26,134.624 C211.52,134.624 212.6,135.452 212.6,137.216 C212.6,139.052 211.436,140.132 209.996,140.132 C207.992,140.132 207.248,138.56 207.248,136.1 C207.248,133.352 208.388,131.6 210.32,131.6 C210.968,131.6 211.496,131.78 211.964,132.092 L211.568,132.764 C211.184,132.536 210.764,132.416 210.308,132.416 C209.036,132.416 208.304,133.712 208.268,135.728 C208.784,134.948 209.444,134.624 210.26,134.624 Z M209.996,139.316 C211.04,139.316 211.568,138.524 211.568,137.252 C211.568,135.896 210.968,135.44 210.104,135.44 C209.312,135.44 208.688,135.92 208.28,136.616 C208.316,138.476 208.82,139.316 209.996,139.316 Z M217.532,133.544 C219.212,133.544 219.824,134.852 219.824,136.832 C219.824,138.752 219.032,140.132 217.388,140.132 C216.692,140.132 216.14,139.892 215.708,139.412 L215.708,142.424 L214.7,142.544 L214.7,133.676 L215.564,133.676 L215.648,134.564 C216.104,133.916 216.776,133.544 217.532,133.544 Z M217.292,134.36 C216.596,134.36 216.056,134.864 215.708,135.368 L215.708,138.5 C216.044,138.992 216.56,139.292 217.16,139.292 C218.204,139.292 218.732,138.512 218.732,136.832 C218.732,135.188 218.288,134.36 217.292,134.36 Z M222.524,140 L224.264,137.288 L226.004,140 L227.228,140 L224.9,136.616 L226.952,133.676 L225.788,133.676 L224.312,136.028 L222.848,133.676 L221.648,133.676 L223.7,136.664 L221.372,140 L222.524,140 Z"/>
    <rect width="1" height="5" x="78" y="116" fill="#30E60B"/>
    <rect width="1" height="5" x="93" y="116" fill="#30E60B"/>
    <rect width="16" height="1" x="78" y="118" fill="#30E60B"/>
    <polygon fill="#30E60B" points="82 125 86 121 90 125 86 129"/>
    <rect width="35" height="22" x="68" y="125" fill="#30E60B" rx="2"/>
    <path fill="#003706" d="M75.588,139.184 L75.588,131.732 L74.7,131.732 L72.24,133.268 L72.684,133.976 L74.568,132.836 L74.568,139.184 L72.54,139.184 L72.54,140 L77.304,140 L77.304,139.184 L75.588,139.184 Z M82.26,134.624 C83.52,134.624 84.6,135.452 84.6,137.216 C84.6,139.052 83.436,140.132 81.996,140.132 C79.992,140.132 79.248,138.56 79.248,136.1 C79.248,133.352 80.388,131.6 82.32,131.6 C82.968,131.6 83.496,131.78 83.964,132.092 L83.568,132.764 C83.184,132.536 82.764,132.416 82.308,132.416 C81.036,132.416 80.304,133.712 80.268,135.728 C80.784,134.948 81.444,134.624 82.26,134.624 Z M81.996,139.316 C83.04,139.316 83.568,138.524 83.568,137.252 C83.568,135.896 82.968,135.44 82.104,135.44 C81.312,135.44 80.688,135.92 80.28,136.616 C80.316,138.476 80.82,139.316 81.996,139.316 Z M89.532,133.544 C91.212,133.544 91.824,134.852 91.824,136.832 C91.824,138.752 91.032,140.132 89.388,140.132 C88.692,140.132 88.14,139.892 87.708,139.412 L87.708,142.424 L86.7,142.544 L86.7,133.676 L87.564,133.676 L87.648,134.564 C88.104,133.916 88.776,133.544 89.532,133.544 Z M89.292,134.36 C88.596,134.36 88.056,134.864 87.708,135.368 L87.708,138.5 C88.044,138.992 88.56,139.292 89.16,139.292 C90.204,139.292 90.732,138.512 90.732,136.832 C90.732,135.188 90.288,134.36 89.292,134.36 Z M94.524,140 L96.264,137.288 L98.004,140 L99.228,140 L96.9,136.616 L98.952,133.676 L97.788,133.676 L96.312,136.028 L94.848,133.676 L93.648,133.676 L95.7,136.664 L93.372,140 L94.524,140 Z"/>
  </g>
</svg>
