<svg xmlns="http://www.w3.org/2000/svg" xmlns:xlink="http://www.w3.org/1999/xlink" width="360" height="240" viewBox="0 0 360 240">
  <defs>
    <polygon id="doorhanger-sizes-b" points="90 65 106 65 115 56 124 65 270 65 270 185 90 185"/>
    <filter id="doorhanger-sizes-a" width="130%" height="141.9%" x="-15%" y="-17.8%" filterUnits="objectBoundingBox">
      <feMorphology in="SourceAlpha" operator="dilate" radius="1" result="shadowSpreadOuter1"/>
      <feOffset dy="4" in="shadowSpreadOuter1" result="shadowOffsetOuter1"/>
      <feGaussianBlur in="shadowOffsetOuter1" result="shadowBlurOuter1" stdDeviation="8"/>
      <feComposite in="shadowBlurOuter1" in2="SourceAlpha" operator="out" result="shadowBlurOuter1"/>
      <feColorMatrix in="shadowBlurOuter1" values="0 0 0 0 0.0470588235   0 0 0 0 0.0470588235   0 0 0 0 0.0509803922  0 0 0 0.1 0"/>
    </filter>
  </defs>
  <g fill="none" fill-rule="evenodd">
    <use fill="#000" filter="url(#doorhanger-sizes-a)" xlink:href="#doorhanger-sizes-b"/>
    <use fill="#FFF" xlink:href="#doorhanger-sizes-b"/>
    <path stroke="#0C0C0D" stroke-opacity=".2" d="M105.792893,64.5 L115,55.2928932 L124.207107,64.5 L270.5,64.5 L270.5,185.5 L89.5,185.5 L89.5,64.5 L105.792893,64.5 Z"/>
    <polygon fill="#ED00B5" points="105 56.983 106 56.983 106 62.069 105 62.069"/>
    <polygon fill="#ED00B5" points="90 56.983 91 56.983 91 62.069 90 62.069"/>
    <polygon fill="#ED00B5" points="90 59 106 59 106 60.017 90 60.017"/>
    <polygon fill="#ED00B5" points="94 53.379 98 49.31 102 53.379 98 57.448" transform="rotate(179.998 98 53.38)"/>
    <rect width="37" height="22.379" x="80" y="31.069" fill="#ED00B5" rx="2" transform="rotate(179.998 98.5 42.259)"/>
    <path fill="#FFF" d="M88.588,45.184 L88.588,37.732 L87.7,37.732 L85.24,39.268 L85.684,39.976 L87.568,38.836 L87.568,45.184 L85.54,45.184 L85.54,46 L90.304,46 L90.304,45.184 L88.588,45.184 Z M95.26,40.624 C96.52,40.624 97.6,41.452 97.6,43.216 C97.6,45.052 96.436,46.132 94.996,46.132 C92.992,46.132 92.248,44.56 92.248,42.1 C92.248,39.352 93.388,37.6 95.32,37.6 C95.968,37.6 96.496,37.78 96.964,38.092 L96.568,38.764 C96.184,38.536 95.764,38.416 95.308,38.416 C94.036,38.416 93.304,39.712 93.268,41.728 C93.784,40.948 94.444,40.624 95.26,40.624 Z M94.996,45.316 C96.04,45.316 96.568,44.524 96.568,43.252 C96.568,41.896 95.968,41.44 95.104,41.44 C94.312,41.44 93.688,41.92 93.28,42.616 C93.316,44.476 93.82,45.316 94.996,45.316 Z M102.532,39.544 C104.212,39.544 104.824,40.852 104.824,42.832 C104.824,44.752 104.032,46.132 102.388,46.132 C101.692,46.132 101.14,45.892 100.708,45.412 L100.708,48.424 L99.7,48.544 L99.7,39.676 L100.564,39.676 L100.648,40.564 C101.104,39.916 101.776,39.544 102.532,39.544 Z M102.292,40.36 C101.596,40.36 101.056,40.864 100.708,41.368 L100.708,44.5 C101.044,44.992 101.56,45.292 102.16,45.292 C103.204,45.292 103.732,44.512 103.732,42.832 C103.732,41.188 103.288,40.36 102.292,40.36 Z M107.524,46 L109.264,43.288 L111.004,46 L112.228,46 L109.9,42.616 L111.952,39.676 L110.788,39.676 L109.312,42.028 L107.848,39.676 L106.648,39.676 L108.7,42.664 L106.372,46 L107.524,46 Z"/>
    <rect width="5" height="1" x="126" y="56" fill="#FF1AD9"/>
    <rect width="5" height="1" x="126" y="64" fill="#FF1AD9"/>
    <rect width="1" height="9" x="128" y="56" fill="#FF1AD9"/>
    <polygon fill="#FF1AD9" points="131 61 135 57 139 61 135 65"/>
    <rect width="30" height="22" x="135" y="50" fill="#FF1AD9" rx="2"/>
    <path fill="#FFF" d="M142.668,56.612 C144.516,56.612 145.368,57.836 145.368,59.804 C145.368,63.332 144.048,64.388 140.964,65.252 L140.724,64.484 C142.932,63.896 144.276,62.96 144.3,60.956 C143.928,61.484 143.28,61.952 142.368,61.976 C140.988,61.988 139.992,60.98 139.992,59.336 C139.992,57.56 141.18,56.612 142.668,56.612 Z M142.548,61.16 C143.328,61.148 143.88,60.716 144.324,60.056 C144.36,58.088 143.82,57.428 142.668,57.428 C141.6,57.428 141.048,58.1 141.048,59.372 C141.048,60.632 141.612,61.172 142.548,61.16 Z M150.432,58.544 C152.112,58.544 152.724,59.852 152.724,61.832 C152.724,63.752 151.932,65.132 150.288,65.132 C149.592,65.132 149.04,64.892 148.608,64.412 L148.608,67.424 L147.6,67.544 L147.6,58.676 L148.464,58.676 L148.548,59.564 C149.004,58.916 149.676,58.544 150.432,58.544 Z M150.192,59.36 C149.496,59.36 148.956,59.864 148.608,60.368 L148.608,63.5 C148.944,63.992 149.46,64.292 150.06,64.292 C151.104,64.292 151.632,63.512 151.632,61.832 C151.632,60.188 151.188,59.36 150.192,59.36 Z M155.424,65 L157.164,62.288 L158.904,65 L160.128,65 L157.8,61.616 L159.852,58.676 L158.688,58.676 L157.212,61.028 L155.748,58.676 L154.548,58.676 L156.6,61.664 L154.272,65 L155.424,65 Z"/>
    <rect width="1" height="5" x="106" y="66" fill="#FF1AD9"/>
    <rect width="1" height="5" x="123" y="66" fill="#FF1AD9"/>
    <rect width="18" height="1" x="106" y="68" fill="#FF1AD9"/>
    <polygon fill="#FF1AD9" points="111 75 115 71 119 75 115 79"/>
    <rect width="37" height="22" x="96" y="75" fill="#FF1AD9" rx="2"/>
    <path fill="#FFF" d="M104.588,89.184 L104.588,81.732 L103.7,81.732 L101.24,83.268 L101.684,83.976 L103.568,82.836 L103.568,89.184 L101.54,89.184 L101.54,90 L106.304,90 L106.304,89.184 L104.588,89.184 Z M113.372,83.7 C113.372,84.504 112.856,85.068 111.944,85.572 C113.024,86.016 113.72,86.772 113.72,87.78 C113.72,89.136 112.616,90.132 110.876,90.132 C109.1,90.132 108.08,89.112 108.08,87.804 C108.08,86.796 108.74,86.112 109.748,85.644 C108.86,85.224 108.428,84.684 108.428,83.76 C108.428,82.248 109.808,81.6 110.9,81.6 C112.1,81.6 113.372,82.236 113.372,83.7 Z M109.412,83.772 C109.412,84.72 110.108,84.948 111.236,85.32 C112.004,84.876 112.388,84.492 112.388,83.748 C112.388,82.92 111.848,82.392 110.9,82.392 C109.964,82.392 109.412,82.896 109.412,83.772 Z M112.652,87.804 C112.652,86.688 111.74,86.388 110.432,85.932 C109.76,86.244 109.148,86.772 109.148,87.804 C109.148,88.74 109.736,89.316 110.876,89.316 C112.028,89.316 112.652,88.668 112.652,87.804 Z M118.532,83.544 C120.212,83.544 120.824,84.852 120.824,86.832 C120.824,88.752 120.032,90.132 118.388,90.132 C117.692,90.132 117.14,89.892 116.708,89.412 L116.708,92.424 L115.7,92.544 L115.7,83.676 L116.564,83.676 L116.648,84.564 C117.104,83.916 117.776,83.544 118.532,83.544 Z M118.292,84.36 C117.596,84.36 117.056,84.864 116.708,85.368 L116.708,88.5 C117.044,88.992 117.56,89.292 118.16,89.292 C119.204,89.292 119.732,88.512 119.732,86.832 C119.732,85.188 119.288,84.36 118.292,84.36 Z M123.524,90 L125.264,87.288 L127.004,90 L128.228,90 L125.9,86.616 L127.952,83.676 L126.788,83.676 L125.312,86.028 L123.848,83.676 L122.648,83.676 L124.7,86.664 L122.372,90 L123.524,90 Z"/>
    <g transform="translate(90 189)">
      <rect width="1" height="5" y="8" fill="#FF1AD9"/>
      <rect width="1" height="5" x="179" y="8" fill="#FF1AD9"/>
      <rect width="180" height="1" y="10" fill="#FF1AD9"/>
      <polygon fill="#FF1AD9" points="86 11 90 7 94 11 90 15"/>
      <rect width="44" height="22" x="68" fill="#FF1AD9" rx="2"/>
      <path fill="#FFF" d="M75.228,6.6 C74.376,6.6 73.584,6.888 72.876,7.56 L73.428,8.172 C73.98,7.668 74.472,7.416 75.18,7.416 C76.056,7.416 76.74,7.908 76.74,8.808 C76.74,9.804 75.972,10.248 75.18,10.248 L74.688,10.248 L74.568,11.052 L75.252,11.052 C76.236,11.052 76.968,11.436 76.968,12.624 C76.968,13.656 76.284,14.304 75.132,14.304 C74.46,14.304 73.764,14.04 73.296,13.488 L72.624,14.04 C73.248,14.796 74.232,15.132 75.156,15.132 C76.872,15.132 78.024,14.052 78.024,12.624 C78.024,11.34 77.112,10.668 76.152,10.596 C77.016,10.428 77.76,9.672 77.76,8.676 C77.76,7.548 76.788,6.6 75.228,6.6 Z M82.428,6.6 C81.312,6.6 80.556,6.996 79.908,7.788 L80.604,8.328 C81.132,7.716 81.576,7.452 82.38,7.452 C83.304,7.452 83.868,8.016 83.868,8.94 C83.868,10.284 83.196,11.196 80.076,14.184 L80.076,15 L84.996,15 L85.116,14.136 L81.228,14.136 C83.952,11.652 84.924,10.428 84.924,8.904 C84.924,7.596 83.988,6.6 82.428,6.6 Z M90,6.6 C91.776,6.6 92.7,8.124 92.7,10.86 C92.7,13.608 91.776,15.132 90,15.132 C88.224,15.132 87.3,13.608 87.3,10.86 C87.3,8.124 88.224,6.6 90,6.6 Z M90,7.416 C88.98,7.416 88.356,8.424 88.356,10.86 C88.356,13.308 88.98,14.316 90,14.316 C91.032,14.316 91.644,13.308 91.644,10.86 C91.644,8.424 91.032,7.416 90,7.416 Z M90,10.08 C90.456,10.08 90.792,10.428 90.792,10.86 C90.792,11.304 90.456,11.652 90,11.652 C89.556,11.652 89.22,11.304 89.22,10.86 C89.22,10.428 89.556,10.08 90,10.08 Z M97.632,8.544 C99.312,8.544 99.924,9.852 99.924,11.832 C99.924,13.752 99.132,15.132 97.488,15.132 C96.792,15.132 96.24,14.892 95.808,14.412 L95.808,17.424 L94.8,17.544 L94.8,8.676 L95.664,8.676 L95.748,9.564 C96.204,8.916 96.876,8.544 97.632,8.544 Z M97.392,9.36 C96.696,9.36 96.156,9.864 95.808,10.368 L95.808,13.5 C96.144,13.992 96.66,14.292 97.26,14.292 C98.304,14.292 98.832,13.512 98.832,11.832 C98.832,10.188 98.388,9.36 97.392,9.36 Z M102.624,15 L104.364,12.288 L106.104,15 L107.328,15 L105,11.616 L107.052,8.676 L105.888,8.676 L104.412,11.028 L102.948,8.676 L101.748,8.676 L103.8,11.664 L101.472,15 L102.624,15 Z"/>
    </g>
    <g transform="translate(274 65)">
      <rect width="5" height="1" x="13" fill="#FF1AD9"/>
      <rect width="5" height="1" x="13" y="119" fill="#FF1AD9"/>
      <rect width="1" height="120" x="15" fill="#FF1AD9"/>
      <polygon fill="#FF1AD9" points="18 56 22 52 26 56 22 60"/>
      <rect width="30" height="22" y="49" fill="#FF1AD9" rx="2"/>
      <path fill="#FFF" d="M7.668,55.612 C9.516,55.612 10.368,56.836 10.368,58.804 C10.368,62.332 9.048,63.388 5.964,64.252 L5.724,63.484 C7.932,62.896 9.276,61.96 9.3,59.956 C8.928,60.484 8.28,60.952 7.368,60.976 C5.988,60.988 4.992,59.98 4.992,58.336 C4.992,56.56 6.18,55.612 7.668,55.612 Z M7.548,60.16 C8.328,60.148 8.88,59.716 9.324,59.056 C9.36,57.088 8.82,56.428 7.668,56.428 C6.6,56.428 6.048,57.1 6.048,58.372 C6.048,59.632 6.612,60.172 7.548,60.16 Z M15,55.6 C16.776,55.6 17.7,57.124 17.7,59.86 C17.7,62.608 16.776,64.132 15,64.132 C13.224,64.132 12.3,62.608 12.3,59.86 C12.3,57.124 13.224,55.6 15,55.6 Z M15,56.416 C13.98,56.416 13.356,57.424 13.356,59.86 C13.356,62.308 13.98,63.316 15,63.316 C16.032,63.316 16.644,62.308 16.644,59.86 C16.644,57.424 16.032,56.416 15,56.416 Z M15,59.08 C15.456,59.08 15.792,59.428 15.792,59.86 C15.792,60.304 15.456,60.652 15,60.652 C14.556,60.652 14.22,60.304 14.22,59.86 C14.22,59.428 14.556,59.08 15,59.08 Z M24.66,55.516 L25.296,55.936 L19.62,64.24 L18.984,63.82 L24.66,55.516 Z M20.592,55.6 C21.72,55.6 22.356,56.488 22.356,57.532 C22.356,58.54 21.72,59.464 20.592,59.464 C19.476,59.464 18.828,58.54 18.828,57.532 C18.828,56.488 19.476,55.6 20.592,55.6 Z M20.592,56.32 C20.112,56.32 19.752,56.716 19.752,57.532 C19.752,58.3 20.1,58.756 20.592,58.756 C21.072,58.756 21.42,58.384 21.42,57.532 C21.42,56.668 21.072,56.32 20.592,56.32 Z M23.832,60.208 C24.96,60.208 25.596,61.096 25.596,62.128 C25.596,63.148 24.96,64.072 23.832,64.072 C22.716,64.072 22.068,63.148 22.068,62.128 C22.068,61.096 22.716,60.208 23.832,60.208 Z M23.832,60.928 C23.352,60.928 22.992,61.288 22.992,62.128 C22.992,62.908 23.34,63.364 23.832,63.364 C24.312,63.364 24.66,62.992 24.66,62.128 C24.66,61.264 24.312,60.928 23.832,60.928 Z"/>
    </g>
  </g>
</svg>
