<?xml version="1.0" encoding="utf-8"?>
<!-- Generator: Adobe Illustrator 21.1.0, SVG Export Plug-In . SVG Version: 6.00 Build 0)  -->
<svg version="1.1" id="Layer_1" xmlns="http://www.w3.org/2000/svg" xmlns:xlink="http://www.w3.org/1999/xlink" x="0px" y="0px"
	 viewBox="0 0 752 322" style="enable-background:new 0 0 752 322;" xml:space="preserve">
<style type="text/css">
	.st0{enable-background:new    ;}
	.st1{fill:#0C0C0D;}
	.st2{fill:#0A84FF;}
	.st3{fill:#FFFFFF;}
</style>
<g transform="translate(-14 12)">
	
		<image style="overflow:visible;enable-background:new    ;" width="5088" height="5088" xlink:href="53C61D11E458BA72.png"  transform="matrix(5.896226e-02 0 0 5.896226e-02 0 0)">
	</image>
	<g class="st0">
		<path class="st1" d="M302.6,195v4h-1.2v-10.5h2.9c1.1,0,2,0.3,2.6,0.8c0.6,0.5,0.9,1.3,0.9,2.3s-0.3,1.8-1,2.4
			c-0.7,0.6-1.6,1-2.8,1H302.6z M302.6,189.6v4.3h1.3c0.8,0,1.5-0.2,1.9-0.6c0.4-0.4,0.7-0.9,0.7-1.6c0-1.4-0.8-2.1-2.5-2.1H302.6z"
			/>
		<path class="st1" d="M310.8,199h-1.2v-11.1h1.2V199z"/>
		<path class="st1" d="M319.3,195.6H314c0,0.8,0.2,1.5,0.7,1.9c0.4,0.5,1,0.7,1.8,0.7c0.8,0,1.6-0.3,2.3-0.8v1.1
			c-0.7,0.5-1.5,0.7-2.6,0.7c-1.1,0-1.9-0.3-2.5-1c-0.6-0.7-0.9-1.6-0.9-2.9c0-1.2,0.3-2.1,1-2.9c0.7-0.7,1.5-1.1,2.5-1.1
			s1.7,0.3,2.3,1s0.8,1.5,0.8,2.6V195.6z M318,194.5c0-0.7-0.2-1.2-0.5-1.6c-0.3-0.4-0.8-0.6-1.4-0.6c-0.6,0-1,0.2-1.4,0.6
			s-0.6,0.9-0.7,1.6H318z"/>
		<path class="st1" d="M326.5,199h-1.2v-1.2h0c-0.5,0.9-1.3,1.3-2.3,1.3c-0.7,0-1.3-0.2-1.8-0.6c-0.4-0.4-0.6-0.9-0.6-1.6
			c0-1.4,0.8-2.2,2.5-2.4l2.2-0.3c0-1.3-0.5-1.9-1.5-1.9c-0.9,0-1.7,0.3-2.4,0.9V192c0.7-0.5,1.6-0.7,2.5-0.7c1.8,0,2.6,0.9,2.6,2.8
			V199z M325.3,195.2l-1.8,0.2c-0.6,0.1-1,0.2-1.3,0.4c-0.3,0.2-0.4,0.5-0.4,1.1c0,0.4,0.1,0.7,0.4,0.9c0.3,0.2,0.6,0.3,1,0.3
			c0.6,0,1.1-0.2,1.5-0.6c0.4-0.4,0.6-0.9,0.6-1.6V195.2z"/>
		<path class="st1" d="M328.3,198.7v-1.3c0.7,0.5,1.4,0.7,2.2,0.7c1.1,0,1.6-0.4,1.6-1.1c0-0.2,0-0.4-0.1-0.5
			c-0.1-0.1-0.2-0.3-0.4-0.4c-0.2-0.1-0.3-0.2-0.5-0.3c-0.2-0.1-0.4-0.2-0.7-0.3c-0.3-0.1-0.6-0.3-0.9-0.4c-0.3-0.1-0.5-0.3-0.6-0.5
			c-0.2-0.2-0.3-0.4-0.4-0.6c-0.1-0.2-0.1-0.5-0.1-0.8c0-0.4,0.1-0.7,0.2-0.9c0.2-0.3,0.4-0.5,0.6-0.7c0.3-0.2,0.6-0.3,0.9-0.4
			c0.3-0.1,0.7-0.1,1.1-0.1c0.6,0,1.2,0.1,1.7,0.3v1.2c-0.6-0.4-1.2-0.5-1.9-0.5c-0.2,0-0.4,0-0.6,0.1c-0.2,0.1-0.3,0.1-0.5,0.2
			s-0.2,0.2-0.3,0.3c-0.1,0.1-0.1,0.3-0.1,0.4c0,0.2,0,0.4,0.1,0.5c0.1,0.1,0.2,0.2,0.3,0.4c0.1,0.1,0.3,0.2,0.5,0.3
			c0.2,0.1,0.4,0.2,0.7,0.3c0.3,0.1,0.6,0.3,0.9,0.4c0.3,0.1,0.5,0.3,0.7,0.5c0.2,0.2,0.3,0.4,0.4,0.6c0.1,0.2,0.1,0.5,0.1,0.8
			c0,0.4-0.1,0.7-0.2,1s-0.4,0.5-0.7,0.7c-0.3,0.2-0.6,0.3-0.9,0.4s-0.7,0.1-1.1,0.1C329.5,199.2,328.8,199,328.3,198.7z"/>
		<path class="st1" d="M341.1,195.6h-5.3c0,0.8,0.2,1.5,0.7,1.9c0.4,0.5,1,0.7,1.8,0.7c0.8,0,1.6-0.3,2.3-0.8v1.1
			c-0.7,0.5-1.5,0.7-2.6,0.7c-1.1,0-1.9-0.3-2.5-1c-0.6-0.7-0.9-1.6-0.9-2.9c0-1.2,0.3-2.1,1-2.9c0.7-0.7,1.5-1.1,2.5-1.1
			s1.7,0.3,2.3,1s0.8,1.5,0.8,2.6V195.6z M339.9,194.5c0-0.7-0.2-1.2-0.5-1.6c-0.3-0.4-0.8-0.6-1.4-0.6c-0.6,0-1,0.2-1.4,0.6
			s-0.6,0.9-0.7,1.6H339.9z"/>
		<path class="st1" d="M352.2,198.7c-0.6,0.3-1.3,0.5-2.1,0.5c-1.1,0-1.9-0.3-2.6-1c-0.7-0.7-1-1.6-1-2.7c0-1.2,0.4-2.2,1.1-3
			c0.7-0.7,1.7-1.1,2.8-1.1c0.7,0,1.2,0.1,1.7,0.4v1.2c-0.6-0.4-1.2-0.6-1.8-0.6c-0.8,0-1.4,0.3-1.9,0.8c-0.5,0.5-0.7,1.3-0.7,2.2
			c0,0.9,0.2,1.6,0.7,2.1c0.5,0.5,1.1,0.8,1.9,0.8c0.7,0,1.3-0.2,1.8-0.7V198.7z"/>
		<path class="st1" d="M360.2,199H359v-4.3c0-1.6-0.6-2.3-1.7-2.3c-0.6,0-1.1,0.2-1.5,0.7c-0.4,0.5-0.6,1-0.6,1.7v4.2H354v-11.1h1.2
			v4.8h0c0.6-0.9,1.4-1.4,2.5-1.4c1.7,0,2.5,1,2.5,3.1V199z"/>
		<path class="st1" d="M368.5,195.6h-5.3c0,0.8,0.2,1.5,0.7,1.9c0.4,0.5,1,0.7,1.8,0.7c0.8,0,1.6-0.3,2.3-0.8v1.1
			c-0.7,0.5-1.5,0.7-2.6,0.7c-1.1,0-1.9-0.3-2.5-1c-0.6-0.7-0.9-1.6-0.9-2.9c0-1.2,0.3-2.1,1-2.9c0.7-0.7,1.5-1.1,2.5-1.1
			s1.7,0.3,2.3,1s0.8,1.5,0.8,2.6V195.6z M367.3,194.5c0-0.7-0.2-1.2-0.5-1.6c-0.3-0.4-0.8-0.6-1.4-0.6c-0.6,0-1,0.2-1.4,0.6
			s-0.6,0.9-0.7,1.6H367.3z"/>
		<path class="st1" d="M375.4,198.7c-0.6,0.3-1.3,0.5-2.1,0.5c-1.1,0-1.9-0.3-2.6-1c-0.7-0.7-1-1.6-1-2.7c0-1.2,0.4-2.2,1.1-3
			c0.7-0.7,1.7-1.1,2.8-1.1c0.7,0,1.2,0.1,1.7,0.4v1.2c-0.6-0.4-1.2-0.6-1.8-0.6c-0.8,0-1.4,0.3-1.9,0.8c-0.5,0.5-0.7,1.3-0.7,2.2
			c0,0.9,0.2,1.6,0.7,2.1c0.5,0.5,1.1,0.8,1.9,0.8c0.7,0,1.3-0.2,1.8-0.7V198.7z"/>
		<path class="st1" d="M383.5,199h-1.7l-3.3-3.6h0v3.6h-1.2v-11.1h1.2v7h0l3.1-3.4h1.6l-3.5,3.6L383.5,199z"/>
		<path class="st1" d="M392.3,198.9c-0.3,0.2-0.7,0.2-1.1,0.2c-1.3,0-2-0.7-2-2.2v-4.4h-1.3v-1h1.3v-1.8l1.2-0.4v2.2h1.9v1h-1.9v4.2
			c0,0.5,0.1,0.9,0.3,1.1s0.5,0.3,0.8,0.3c0.3,0,0.6-0.1,0.8-0.2V198.9z"/>
		<path class="st1" d="M400.1,199h-1.2v-4.3c0-1.6-0.6-2.3-1.7-2.3c-0.6,0-1.1,0.2-1.5,0.7c-0.4,0.5-0.6,1-0.6,1.7v4.2h-1.2v-11.1
			h1.2v4.8h0c0.6-0.9,1.4-1.4,2.5-1.4c1.7,0,2.5,1,2.5,3.1V199z"/>
		<path class="st1" d="M407.7,199h-1.2v-1.2h0c-0.5,0.9-1.3,1.3-2.3,1.3c-0.7,0-1.3-0.2-1.8-0.6c-0.4-0.4-0.6-0.9-0.6-1.6
			c0-1.4,0.8-2.2,2.5-2.4l2.2-0.3c0-1.3-0.5-1.9-1.5-1.9c-0.9,0-1.7,0.3-2.4,0.9V192c0.7-0.5,1.6-0.7,2.5-0.7c1.8,0,2.6,0.9,2.6,2.8
			V199z M406.5,195.2l-1.8,0.2c-0.6,0.1-1,0.2-1.3,0.4c-0.3,0.2-0.4,0.5-0.4,1.1c0,0.4,0.1,0.7,0.4,0.9c0.3,0.2,0.6,0.3,1,0.3
			c0.6,0,1.1-0.2,1.5-0.6c0.4-0.4,0.6-0.9,0.6-1.6V195.2z"/>
		<path class="st1" d="M413.5,198.9c-0.3,0.2-0.7,0.2-1.1,0.2c-1.3,0-2-0.7-2-2.2v-4.4h-1.3v-1h1.3v-1.8l1.2-0.4v2.2h1.9v1h-1.9v4.2
			c0,0.5,0.1,0.9,0.3,1.1c0.2,0.2,0.5,0.3,0.8,0.3c0.3,0,0.6-0.1,0.8-0.2V198.9z"/>
		<path class="st1" d="M422.7,198.9c-0.3,0.2-0.7,0.2-1.1,0.2c-1.3,0-2-0.7-2-2.2v-4.4h-1.3v-1h1.3v-1.8l1.2-0.4v2.2h1.9v1h-1.9v4.2
			c0,0.5,0.1,0.9,0.3,1.1s0.5,0.3,0.8,0.3c0.3,0,0.6-0.1,0.8-0.2V198.9z"/>
		<path class="st1" d="M430.5,199h-1.2v-4.3c0-1.6-0.6-2.3-1.7-2.3c-0.6,0-1.1,0.2-1.5,0.7c-0.4,0.5-0.6,1-0.6,1.7v4.2h-1.2v-11.1
			h1.2v4.8h0c0.6-0.9,1.4-1.4,2.5-1.4c1.7,0,2.5,1,2.5,3.1V199z"/>
		<path class="st1" d="M438.8,195.6h-5.3c0,0.8,0.2,1.5,0.7,1.9c0.4,0.5,1,0.7,1.8,0.7c0.8,0,1.6-0.3,2.3-0.8v1.1
			c-0.7,0.5-1.5,0.7-2.6,0.7c-1.1,0-1.9-0.3-2.5-1c-0.6-0.7-0.9-1.6-0.9-2.9c0-1.2,0.3-2.1,1-2.9c0.7-0.7,1.5-1.1,2.5-1.1
			c1,0,1.7,0.3,2.3,1s0.8,1.5,0.8,2.6V195.6z M437.6,194.5c0-0.7-0.2-1.2-0.5-1.6c-0.3-0.4-0.8-0.6-1.4-0.6c-0.6,0-1,0.2-1.4,0.6
			c-0.4,0.4-0.6,0.9-0.7,1.6H437.6z"/>
		<path class="st1" d="M452.6,194.8c0,2.9-1.3,4.4-4,4.4c-2.5,0-3.8-1.4-3.8-4.3v-6.4h1.2v6.3c0,2.2,0.9,3.2,2.7,3.2
			c1.8,0,2.6-1,2.6-3.1v-6.5h1.2V194.8z"/>
		<path class="st1" d="M462.7,199h-1.5l-1.8-2.9c-0.2-0.3-0.3-0.5-0.5-0.7c-0.2-0.2-0.3-0.4-0.5-0.5c-0.2-0.1-0.3-0.2-0.5-0.3
			c-0.2-0.1-0.4-0.1-0.6-0.1h-1v4.5h-1.2v-10.5h3.1c0.5,0,0.9,0.1,1.3,0.2c0.4,0.1,0.7,0.3,1,0.5c0.3,0.2,0.5,0.5,0.7,0.9
			c0.2,0.3,0.2,0.8,0.2,1.2c0,0.4-0.1,0.7-0.2,1c-0.1,0.3-0.3,0.6-0.5,0.8s-0.4,0.4-0.7,0.6c-0.3,0.2-0.6,0.3-1,0.4v0
			c0.2,0.1,0.3,0.2,0.5,0.3c0.1,0.1,0.3,0.2,0.4,0.4c0.1,0.1,0.2,0.3,0.3,0.5c0.1,0.2,0.2,0.4,0.4,0.6L462.7,199z M456.4,189.6v3.8
			h1.7c0.3,0,0.6,0,0.9-0.1c0.3-0.1,0.5-0.2,0.7-0.4c0.2-0.2,0.3-0.4,0.4-0.6c0.1-0.3,0.2-0.5,0.2-0.8c0-0.6-0.2-1-0.5-1.3
			c-0.4-0.3-0.9-0.5-1.6-0.5H456.4z"/>
		<path class="st1" d="M469.6,199h-5.4v-10.5h1.2v9.4h4.2V199z"/>
		<path class="st1" d="M475.8,189.6c-0.2,0-0.4-0.1-0.5-0.2c-0.2-0.1-0.2-0.3-0.2-0.6s0.1-0.4,0.2-0.6c0.2-0.1,0.3-0.2,0.5-0.2
			c0.2,0,0.4,0.1,0.6,0.2c0.2,0.1,0.2,0.3,0.2,0.6c0,0.2-0.1,0.4-0.2,0.5C476.2,189.5,476,189.6,475.8,189.6z M476.4,199h-1.2v-7.5
			h1.2V199z"/>
		<path class="st1" d="M478.3,198.7v-1.3c0.7,0.5,1.4,0.7,2.2,0.7c1.1,0,1.6-0.4,1.6-1.1c0-0.2,0-0.4-0.1-0.5
			c-0.1-0.1-0.2-0.3-0.4-0.4c-0.2-0.1-0.3-0.2-0.5-0.3c-0.2-0.1-0.4-0.2-0.7-0.3c-0.3-0.1-0.6-0.3-0.9-0.4c-0.3-0.1-0.5-0.3-0.6-0.5
			c-0.2-0.2-0.3-0.4-0.4-0.6c-0.1-0.2-0.1-0.5-0.1-0.8c0-0.4,0.1-0.7,0.2-0.9c0.2-0.3,0.4-0.5,0.6-0.7c0.3-0.2,0.6-0.3,0.9-0.4
			c0.3-0.1,0.7-0.1,1.1-0.1c0.6,0,1.2,0.1,1.7,0.3v1.2c-0.6-0.4-1.2-0.5-1.9-0.5c-0.2,0-0.4,0-0.6,0.1c-0.2,0.1-0.3,0.1-0.5,0.2
			s-0.2,0.2-0.3,0.3c-0.1,0.1-0.1,0.3-0.1,0.4c0,0.2,0,0.4,0.1,0.5c0.1,0.1,0.2,0.2,0.3,0.4c0.1,0.1,0.3,0.2,0.5,0.3
			c0.2,0.1,0.4,0.2,0.7,0.3c0.3,0.1,0.6,0.3,0.9,0.4c0.3,0.1,0.5,0.3,0.7,0.5c0.2,0.2,0.3,0.4,0.4,0.6c0.1,0.2,0.2,0.5,0.2,0.8
			c0,0.4-0.1,0.7-0.2,1s-0.4,0.5-0.7,0.7c-0.3,0.2-0.6,0.3-0.9,0.4c-0.4,0.1-0.7,0.1-1.1,0.1C479.6,199.2,478.9,199,478.3,198.7z"/>
		<path class="st1" d="M494.4,198.7c-0.6,0.3-1.3,0.5-2.1,0.5c-1.1,0-1.9-0.3-2.6-1c-0.7-0.7-1-1.6-1-2.7c0-1.2,0.4-2.2,1.1-3
			c0.7-0.7,1.7-1.1,2.8-1.1c0.7,0,1.2,0.1,1.7,0.4v1.2c-0.6-0.4-1.2-0.6-1.8-0.6c-0.8,0-1.4,0.3-1.9,0.8c-0.5,0.5-0.7,1.3-0.7,2.2
			c0,0.9,0.2,1.6,0.7,2.1c0.5,0.5,1.1,0.8,1.9,0.8c0.7,0,1.3-0.2,1.8-0.7V198.7z"/>
		<path class="st1" d="M499.3,199.2c-1.1,0-2-0.4-2.7-1.1c-0.7-0.7-1-1.6-1-2.8c0-1.3,0.3-2.2,1-3c0.7-0.7,1.6-1.1,2.8-1.1
			c1.1,0,2,0.3,2.6,1c0.6,0.7,0.9,1.6,0.9,2.9c0,1.2-0.3,2.2-1,2.9C501.4,198.8,500.5,199.2,499.3,199.2z M499.4,192.3
			c-0.8,0-1.4,0.3-1.8,0.8c-0.4,0.5-0.7,1.2-0.7,2.2c0,0.9,0.2,1.6,0.7,2.1c0.5,0.5,1.1,0.8,1.8,0.8c0.8,0,1.4-0.3,1.8-0.8
			c0.4-0.5,0.6-1.2,0.6-2.1c0-0.9-0.2-1.7-0.6-2.2C500.8,192.6,500.2,192.3,499.4,192.3z"/>
		<path class="st1" d="M508.9,192.7c-0.2-0.2-0.5-0.2-0.9-0.2c-0.5,0-0.9,0.2-1.3,0.7c-0.3,0.5-0.5,1.1-0.5,2v3.8H505v-7.5h1.2v1.5
			h0c0.2-0.5,0.4-0.9,0.8-1.2c0.4-0.3,0.7-0.4,1.2-0.4c0.3,0,0.6,0,0.7,0.1V192.7z"/>
		<path class="st1" d="M514.1,192.7c-0.2-0.2-0.5-0.2-0.9-0.2c-0.5,0-0.9,0.2-1.3,0.7c-0.3,0.5-0.5,1.1-0.5,2v3.8h-1.2v-7.5h1.2v1.5
			h0c0.2-0.5,0.4-0.9,0.8-1.2c0.4-0.3,0.7-0.4,1.2-0.4c0.3,0,0.6,0,0.7,0.1V192.7z"/>
		<path class="st1" d="M521.4,195.6h-5.3c0,0.8,0.2,1.5,0.7,1.9c0.4,0.5,1,0.7,1.8,0.7c0.8,0,1.6-0.3,2.3-0.8v1.1
			c-0.7,0.5-1.5,0.7-2.6,0.7c-1.1,0-1.9-0.3-2.5-1c-0.6-0.7-0.9-1.6-0.9-2.9c0-1.2,0.3-2.1,1-2.9c0.7-0.7,1.5-1.1,2.5-1.1
			s1.7,0.3,2.3,1s0.8,1.5,0.8,2.6V195.6z M520.2,194.5c0-0.7-0.2-1.2-0.5-1.6c-0.3-0.4-0.8-0.6-1.4-0.6c-0.6,0-1,0.2-1.4,0.6
			s-0.6,0.9-0.7,1.6H520.2z"/>
		<path class="st1" d="M528.4,198.7c-0.6,0.3-1.3,0.5-2.1,0.5c-1.1,0-1.9-0.3-2.6-1c-0.7-0.7-1-1.6-1-2.7c0-1.2,0.4-2.2,1.1-3
			c0.7-0.7,1.7-1.1,2.8-1.1c0.7,0,1.2,0.1,1.7,0.4v1.2c-0.6-0.4-1.2-0.6-1.8-0.6c-0.8,0-1.4,0.3-1.9,0.8c-0.5,0.5-0.7,1.3-0.7,2.2
			c0,0.9,0.2,1.6,0.7,2.1s1.1,0.8,1.9,0.8c0.7,0,1.3-0.2,1.8-0.7V198.7z"/>
		<path class="st1" d="M533.7,198.9c-0.3,0.2-0.7,0.2-1.1,0.2c-1.3,0-2-0.7-2-2.2v-4.4h-1.3v-1h1.3v-1.8l1.2-0.4v2.2h1.9v1h-1.9v4.2
			c0,0.5,0.1,0.9,0.3,1.1c0.2,0.2,0.5,0.3,0.8,0.3c0.3,0,0.6-0.1,0.8-0.2V198.9z"/>
		<path class="st1" d="M544.8,199h-1.2v-1.2h0c-0.5,0.9-1.3,1.3-2.3,1.3c-0.7,0-1.3-0.2-1.8-0.6c-0.4-0.4-0.6-0.9-0.6-1.6
			c0-1.4,0.8-2.2,2.5-2.4l2.2-0.3c0-1.3-0.5-1.9-1.5-1.9c-0.9,0-1.7,0.3-2.4,0.9V192c0.7-0.5,1.6-0.7,2.5-0.7c1.8,0,2.6,0.9,2.6,2.8
			V199z M543.6,195.2l-1.8,0.2c-0.6,0.1-1,0.2-1.3,0.4c-0.3,0.2-0.4,0.5-0.4,1.1c0,0.4,0.1,0.7,0.4,0.9c0.3,0.2,0.6,0.3,1,0.3
			c0.6,0,1.1-0.2,1.5-0.6c0.4-0.4,0.6-0.9,0.6-1.6V195.2z"/>
		<path class="st1" d="M553.2,199H552v-4.3c0-1.6-0.6-2.4-1.7-2.4c-0.6,0-1.1,0.2-1.5,0.7c-0.4,0.5-0.6,1-0.6,1.7v4.3H547v-7.5h1.2
			v1.2h0c0.6-0.9,1.4-1.4,2.5-1.4c0.8,0,1.4,0.3,1.9,0.8c0.4,0.5,0.7,1.3,0.7,2.3V199z"/>
		<path class="st1" d="M561.9,199h-1.2v-1.3h0c-0.6,1-1.4,1.5-2.6,1.5c-0.9,0-1.7-0.3-2.3-1c-0.6-0.7-0.8-1.6-0.8-2.7
			c0-1.2,0.3-2.2,0.9-3c0.6-0.7,1.5-1.1,2.5-1.1c1,0,1.8,0.4,2.2,1.2h0v-4.6h1.2V199z M560.7,195.6v-1.1c0-0.6-0.2-1.1-0.6-1.5
			s-0.9-0.6-1.5-0.6c-0.7,0-1.3,0.3-1.7,0.8s-0.6,1.3-0.6,2.2c0,0.9,0.2,1.5,0.6,2c0.4,0.5,0.9,0.8,1.6,0.8c0.7,0,1.2-0.2,1.6-0.7
			C560.5,197,560.7,196.3,560.7,195.6z"/>
		<path class="st1" d="M571.9,198.9c-0.3,0.2-0.7,0.2-1.1,0.2c-1.3,0-2-0.7-2-2.2v-4.4h-1.3v-1h1.3v-1.8l1.2-0.4v2.2h1.9v1H570v4.2
			c0,0.5,0.1,0.9,0.3,1.1s0.5,0.3,0.8,0.3c0.3,0,0.6-0.1,0.8-0.2V198.9z"/>
		<path class="st1" d="M577.4,192.7c-0.2-0.2-0.5-0.2-0.9-0.2c-0.5,0-0.9,0.2-1.3,0.7c-0.3,0.5-0.5,1.1-0.5,2v3.8h-1.2v-7.5h1.2v1.5
			h0c0.2-0.5,0.4-0.9,0.8-1.2c0.4-0.3,0.7-0.4,1.2-0.4c0.3,0,0.6,0,0.7,0.1V192.7z"/>
		<path class="st1" d="M584.7,191.5l-3.5,8.7c-0.6,1.6-1.5,2.3-2.6,2.3c-0.3,0-0.6,0-0.8-0.1v-1.1c0.3,0.1,0.5,0.1,0.7,0.1
			c0.6,0,1.1-0.4,1.4-1.1l0.6-1.4l-2.9-7.5h1.3l2,5.8c0,0.1,0.1,0.3,0.2,0.6h0c0-0.1,0.1-0.3,0.1-0.6l2.1-5.8H584.7z"/>
		<path class="st1" d="M595.5,199h-1.2v-1.2h0c-0.5,0.9-1.3,1.3-2.3,1.3c-0.7,0-1.3-0.2-1.8-0.6c-0.4-0.4-0.6-0.9-0.6-1.6
			c0-1.4,0.8-2.2,2.5-2.4l2.2-0.3c0-1.3-0.5-1.9-1.5-1.9c-0.9,0-1.7,0.3-2.4,0.9V192c0.7-0.5,1.6-0.7,2.5-0.7c1.8,0,2.6,0.9,2.6,2.8
			V199z M594.3,195.2l-1.8,0.2c-0.6,0.1-1,0.2-1.3,0.4c-0.3,0.2-0.4,0.5-0.4,1.1c0,0.4,0.1,0.7,0.4,0.9c0.3,0.2,0.6,0.3,1,0.3
			c0.6,0,1.1-0.2,1.5-0.6c0.4-0.4,0.6-0.9,0.6-1.6V195.2z"/>
		<path class="st1" d="M604.1,198.4c0,2.8-1.3,4.1-4,4.1c-0.9,0-1.7-0.2-2.4-0.5v-1.2c0.8,0.5,1.7,0.7,2.4,0.7c1.8,0,2.8-1,2.8-2.9
			v-0.8h0c-0.6,1-1.4,1.4-2.6,1.4c-0.9,0-1.7-0.3-2.3-1c-0.6-0.7-0.9-1.6-0.9-2.7c0-1.3,0.3-2.3,0.9-3s1.5-1.1,2.5-1.1
			c1,0,1.8,0.4,2.2,1.2h0v-1h1.2V198.4z M602.9,195.6v-1.1c0-0.6-0.2-1.1-0.6-1.5c-0.4-0.4-0.9-0.6-1.5-0.6c-0.7,0-1.3,0.3-1.7,0.8
			c-0.4,0.5-0.6,1.3-0.6,2.3c0,0.8,0.2,1.5,0.6,2c0.4,0.5,0.9,0.8,1.6,0.8c0.7,0,1.2-0.2,1.6-0.7S602.9,196.4,602.9,195.6z"/>
		<path class="st1" d="M611.9,199h-1.2v-1.2h0c-0.5,0.9-1.3,1.3-2.3,1.3c-0.7,0-1.3-0.2-1.8-0.6c-0.4-0.4-0.6-0.9-0.6-1.6
			c0-1.4,0.8-2.2,2.5-2.4l2.2-0.3c0-1.3-0.5-1.9-1.5-1.9c-0.9,0-1.7,0.3-2.4,0.9V192c0.7-0.5,1.6-0.7,2.5-0.7c1.8,0,2.6,0.9,2.6,2.8
			V199z M610.7,195.2l-1.8,0.2c-0.6,0.1-1,0.2-1.3,0.4c-0.3,0.2-0.4,0.5-0.4,1.1c0,0.4,0.1,0.7,0.4,0.9c0.3,0.2,0.6,0.3,1,0.3
			c0.6,0,1.1-0.2,1.5-0.6c0.4-0.4,0.6-0.9,0.6-1.6V195.2z"/>
		<path class="st1" d="M614.8,189.6c-0.2,0-0.4-0.1-0.5-0.2c-0.2-0.1-0.2-0.3-0.2-0.6s0.1-0.4,0.2-0.6c0.2-0.1,0.3-0.2,0.5-0.2
			c0.2,0,0.4,0.1,0.6,0.2c0.2,0.1,0.2,0.3,0.2,0.6c0,0.2-0.1,0.4-0.2,0.5C615.2,189.5,615,189.6,614.8,189.6z M615.4,199h-1.2v-7.5
			h1.2V199z"/>
		<path class="st1" d="M624.1,199h-1.2v-4.3c0-1.6-0.6-2.4-1.7-2.4c-0.6,0-1.1,0.2-1.5,0.7c-0.4,0.5-0.6,1-0.6,1.7v4.3h-1.2v-7.5
			h1.2v1.2h0c0.6-0.9,1.4-1.4,2.5-1.4c0.8,0,1.4,0.3,1.9,0.8c0.4,0.5,0.7,1.3,0.7,2.3V199z"/>
		<path class="st1" d="M626.7,199.2c-0.2,0-0.4-0.1-0.6-0.2c-0.2-0.2-0.2-0.4-0.2-0.6s0.1-0.4,0.2-0.6c0.2-0.2,0.3-0.2,0.6-0.2
			c0.2,0,0.4,0.1,0.6,0.2c0.2,0.2,0.2,0.4,0.2,0.6s-0.1,0.4-0.2,0.6C627.2,199.1,627,199.2,626.7,199.2z"/>
	</g>
	<g class="st0">
		<path class="st1" d="M317.8,136v-11.1h-13.2V136H303v-23.1h1.6v10.6h13.2v-10.6h1.6V136H317.8z"/>
		<path class="st1" d="M345.7,136v-9.9c0-2.1-0.3-3.5-1-4.4c-0.7-0.8-1.7-1.3-3.1-1.3c-1.3,0-2.4,0.6-3.4,1.7s-1.4,2.5-1.4,4.2v9.7
			h-1.5v-10c0-3.7-1.4-5.5-4.2-5.5c-1.3,0-2.5,0.6-3.4,1.7c-0.9,1.1-1.3,2.6-1.3,4.4v9.5H325v-16.5h1.5v2.7h0.1
			c1.1-2.1,2.8-3.1,5-3.1c1.2,0,2.2,0.3,3.1,1c0.9,0.7,1.4,1.6,1.7,2.7c0.5-1.2,1.3-2.1,2.2-2.8c1-0.7,2-1,3.1-1
			c3.6,0,5.4,2.2,5.4,6.7V136H345.7z"/>
		<path class="st1" d="M372.8,136v-9.9c0-2.1-0.3-3.5-1-4.4c-0.7-0.8-1.7-1.3-3.1-1.3c-1.3,0-2.4,0.6-3.4,1.7s-1.4,2.5-1.4,4.2v9.7
			h-1.5v-10c0-3.7-1.4-5.5-4.2-5.5c-1.3,0-2.5,0.6-3.4,1.7c-0.9,1.1-1.3,2.6-1.3,4.4v9.5h-1.5v-16.5h1.5v2.7h0.1
			c1.1-2.1,2.8-3.1,5-3.1c1.2,0,2.2,0.3,3.1,1c0.9,0.7,1.4,1.6,1.7,2.7c0.5-1.2,1.3-2.1,2.2-2.8c1-0.7,2-1,3.1-1
			c3.6,0,5.4,2.2,5.4,6.7V136H372.8z"/>
		<path class="st1" d="M380.2,136.3c-0.4,0-0.7-0.1-0.9-0.4c-0.2-0.3-0.4-0.6-0.4-0.9c0-0.4,0.1-0.7,0.4-0.9
			c0.2-0.2,0.6-0.4,0.9-0.4s0.7,0.1,0.9,0.4c0.3,0.2,0.4,0.6,0.4,0.9c0,0.4-0.1,0.7-0.4,0.9C380.9,136.2,380.6,136.3,380.2,136.3z"
			/>
		<path class="st1" d="M402.2,114.4V136h-1.6v-21.6h-6.7v-1.5h14.9v1.5H402.2z"/>
		<path class="st1" d="M423.7,136v-9.9c0-2-0.4-3.4-1.1-4.3c-0.7-0.9-1.8-1.4-3.3-1.4c-1.4,0-2.7,0.6-3.7,1.7s-1.6,2.7-1.6,4.8v9.1
			h-1.5v-24.4h1.5v10.9h0.1c1.3-2.2,3.2-3.4,5.7-3.4c1.8,0,3.1,0.6,4.1,1.7s1.4,2.8,1.4,4.9V136H423.7z"/>
		<path class="st1" d="M440,136v-3.3h-0.1c-0.5,1.1-1.3,2-2.3,2.7c-1,0.7-2.1,1-3.3,1c-1.6,0-2.8-0.4-3.7-1.3s-1.4-2-1.4-3.3
			c0-2.9,1.9-4.6,5.7-5.2l5.1-0.8c0-3.5-1.3-5.3-4-5.3c-1.8,0-3.6,0.7-5.3,2.2v-1.8c0.6-0.5,1.4-0.9,2.5-1.2s2-0.5,3-0.5
			c1.7,0,3,0.5,3.9,1.6c0.9,1.1,1.4,2.6,1.4,4.6V136H440z M435.4,127.8c-1.7,0.2-2.9,0.6-3.6,1.2c-0.7,0.6-1,1.5-1,2.7
			c0,1,0.3,1.8,1,2.4c0.6,0.6,1.6,1,2.7,1c1.6,0,2.9-0.6,4-1.8c1.1-1.2,1.6-2.7,1.6-4.6v-1.6L435.4,127.8z"/>
		<path class="st1" d="M452.9,135.8c-0.8,0.4-1.5,0.5-2.2,0.5c-2.4,0-3.7-1.5-3.7-4.4v-11.1h-3v-1.4h3v-4.3c0.2-0.1,0.5-0.2,0.7-0.3
			c0.3-0.1,0.5-0.2,0.7-0.2v4.8h4.4v1.4h-4.4v10.9c0,1.1,0.2,2,0.5,2.5c0.4,0.5,1,0.8,1.8,0.8c0.6,0,1.3-0.2,2-0.6V135.8z"/>
		<path class="st1" d="M475.1,136v-3.3h-0.1c-0.5,1.1-1.3,2-2.3,2.7c-1,0.7-2.1,1-3.3,1c-1.6,0-2.8-0.4-3.7-1.3
			c-0.9-0.9-1.4-2-1.4-3.3c0-2.9,1.9-4.6,5.7-5.2l5.1-0.8c0-3.5-1.3-5.3-4-5.3c-1.8,0-3.6,0.7-5.3,2.2v-1.8c0.6-0.5,1.4-0.9,2.5-1.2
			c1-0.3,2-0.5,3-0.5c1.7,0,3,0.5,3.9,1.6c0.9,1.1,1.4,2.6,1.4,4.6V136H475.1z M470.6,127.8c-1.7,0.2-2.9,0.6-3.6,1.2
			c-0.7,0.6-1,1.5-1,2.7c0,1,0.3,1.8,1,2.4c0.6,0.6,1.6,1,2.7,1c1.6,0,2.9-0.6,4-1.8c1.1-1.2,1.6-2.7,1.6-4.6v-1.6L470.6,127.8z"/>
		<path class="st1" d="M493.3,136v-3h-0.1c-0.5,1-1.3,1.9-2.4,2.5s-2.2,0.9-3.6,0.9c-2,0-3.7-0.7-5-2.2c-1.3-1.5-1.9-3.5-1.9-6.1
			c0-2.7,0.7-4.8,2.1-6.5c1.4-1.6,3.2-2.5,5.5-2.5c2.5,0,4.2,1,5.3,3h0.1v-10.6h1.5V136H493.3z M493.3,126c0-1.5-0.5-2.8-1.5-3.9
			c-1-1.1-2.3-1.6-3.9-1.6c-1.7,0-3.2,0.7-4.3,2c-1.1,1.3-1.7,3.2-1.7,5.5c0,2.3,0.5,4,1.5,5.3c1,1.2,2.3,1.9,3.9,1.9
			c1.9,0,3.3-0.6,4.4-1.7c1-1.2,1.5-2.6,1.5-4.3V126z"/>
		<path class="st1" d="M511.8,136v-3h-0.1c-0.5,1-1.3,1.9-2.4,2.5s-2.2,0.9-3.6,0.9c-2,0-3.7-0.7-5-2.2s-1.9-3.5-1.9-6.1
			c0-2.7,0.7-4.8,2.1-6.5c1.4-1.6,3.2-2.5,5.5-2.5c2.5,0,4.2,1,5.3,3h0.1v-10.6h1.5V136H511.8z M511.8,126c0-1.5-0.5-2.8-1.5-3.9
			c-1-1.1-2.3-1.6-3.9-1.6c-1.7,0-3.2,0.7-4.3,2c-1.1,1.3-1.7,3.2-1.7,5.5c0,2.3,0.5,4,1.5,5.3c1,1.2,2.3,1.9,3.9,1.9
			c1.9,0,3.3-0.6,4.4-1.7c1-1.2,1.5-2.6,1.5-4.3V126z"/>
		<path class="st1" d="M526.3,121c-0.5-0.4-1.1-0.5-1.7-0.5c-1.3,0-2.4,0.7-3.3,2s-1.3,3.2-1.3,5.7v7.8h-1.5v-16.5h1.5v3.7h0.1
			c0.4-1.3,1-2.2,1.8-2.9c0.8-0.7,1.8-1,2.8-1c0.6,0,1.2,0.1,1.6,0.3V121z"/>
		<path class="st1" d="M529.1,127.8c0,2.3,0.5,4,1.6,5.3s2.5,1.9,4.3,1.9c1.8,0,3.7-0.7,5.4-2v1.6c-1.7,1.2-3.6,1.8-5.7,1.8
			c-2.1,0-3.8-0.8-5.2-2.3s-2-3.7-2-6.5c0-2.4,0.7-4.4,2.1-6.1c1.4-1.6,3.1-2.5,5.3-2.5c2.1,0,3.6,0.7,4.7,2.2
			c1.1,1.4,1.6,3.4,1.6,5.9v0.7H529.1z M539.8,126.5c-0.1-1.9-0.5-3.4-1.4-4.4c-0.8-1.1-2-1.6-3.5-1.6c-1.5,0-2.8,0.5-3.8,1.6
			c-1,1-1.6,2.5-1.9,4.5H539.8z"/>
		<path class="st1" d="M544.6,135.3v-1.8c0.6,0.5,1.2,0.9,2,1.1s1.5,0.4,2.1,0.4c2.6,0,3.9-1.1,3.9-3.2c0-0.7-0.3-1.4-0.9-1.9
			s-1.5-1-2.8-1.6c-1.6-0.7-2.7-1.4-3.3-2.1c-0.6-0.7-1-1.6-1-2.7c0-1.3,0.5-2.4,1.5-3.3c1-0.8,2.3-1.2,3.8-1.2
			c1.4,0,2.6,0.3,3.6,0.9v1.7c-1.2-0.8-2.5-1.2-3.8-1.2c-1.1,0-2,0.3-2.6,0.8c-0.7,0.6-1,1.3-1,2.2c0,0.8,0.2,1.4,0.6,1.9
			c0.4,0.5,1.3,1.1,2.8,1.7c1.7,0.8,2.9,1.5,3.5,2.2c0.6,0.7,1,1.5,1,2.6c0,1.3-0.5,2.4-1.5,3.2c-1,0.9-2.3,1.3-4.1,1.3
			C547,136.4,545.6,136,544.6,135.3z"/>
		<path class="st1" d="M557.4,135.3v-1.8c0.6,0.5,1.2,0.9,2,1.1s1.5,0.4,2.1,0.4c2.6,0,3.9-1.1,3.9-3.2c0-0.7-0.3-1.4-0.9-1.9
			c-0.6-0.5-1.5-1-2.8-1.6c-1.6-0.7-2.7-1.4-3.3-2.1c-0.6-0.7-1-1.6-1-2.7c0-1.3,0.5-2.4,1.5-3.3s2.3-1.2,3.8-1.2
			c1.4,0,2.6,0.3,3.6,0.9v1.7c-1.2-0.8-2.5-1.2-3.8-1.2c-1.1,0-2,0.3-2.6,0.8c-0.7,0.6-1,1.3-1,2.2c0,0.8,0.2,1.4,0.6,1.9
			c0.4,0.5,1.3,1.1,2.8,1.7c1.7,0.8,2.9,1.5,3.5,2.2c0.6,0.7,1,1.5,1,2.6c0,1.3-0.5,2.4-1.5,3.2c-1,0.9-2.3,1.3-4.1,1.3
			C559.8,136.4,558.4,136,557.4,135.3z"/>
		<path class="st1" d="M591.8,136v-3h-0.1c-0.5,1-1.3,1.9-2.4,2.5s-2.2,0.9-3.6,0.9c-2,0-3.7-0.7-5-2.2c-1.3-1.5-1.9-3.5-1.9-6.1
			c0-2.7,0.7-4.8,2.1-6.5c1.4-1.6,3.2-2.5,5.5-2.5c2.5,0,4.2,1,5.3,3h0.1v-10.6h1.5V136H591.8z M591.8,126c0-1.5-0.5-2.8-1.5-3.9
			c-1-1.1-2.3-1.6-3.9-1.6c-1.7,0-3.2,0.7-4.3,2c-1.1,1.3-1.7,3.2-1.7,5.5c0,2.3,0.5,4,1.5,5.3c1,1.2,2.3,1.9,3.9,1.9
			c1.9,0,3.3-0.6,4.4-1.7c1-1.2,1.5-2.6,1.5-4.3V126z"/>
		<path class="st1" d="M605.2,136.4c-2.4,0-4.3-0.8-5.7-2.4c-1.4-1.6-2.1-3.6-2.1-6.2c0-2.7,0.7-4.9,2.2-6.4s3.4-2.3,5.8-2.3
			c2.4,0,4.2,0.8,5.6,2.3c1.4,1.5,2,3.7,2,6.4c0,2.6-0.7,4.6-2.1,6.2C609.5,135.6,607.6,136.4,605.2,136.4z M605.3,120.5
			c-1.9,0-3.5,0.7-4.6,2c-1.2,1.3-1.7,3.1-1.7,5.5c0,2.2,0.6,3.9,1.7,5.2s2.7,2,4.6,2c2,0,3.5-0.6,4.6-1.9s1.6-3.1,1.6-5.4
			c0-2.4-0.5-4.2-1.6-5.4S607.3,120.5,605.3,120.5z"/>
		<path class="st1" d="M617.4,127.8c0,2.3,0.5,4,1.6,5.3c1,1.3,2.5,1.9,4.3,1.9c1.8,0,3.7-0.7,5.4-2v1.6c-1.7,1.2-3.6,1.8-5.7,1.8
			c-2.1,0-3.8-0.8-5.2-2.3s-2-3.7-2-6.5c0-2.4,0.7-4.4,2.1-6.1c1.4-1.6,3.2-2.5,5.3-2.5c2.1,0,3.6,0.7,4.7,2.2
			c1.1,1.4,1.6,3.4,1.6,5.9v0.7H617.4z M628.1,126.5c-0.1-1.9-0.5-3.4-1.4-4.4c-0.8-1.1-2-1.6-3.5-1.6c-1.5,0-2.8,0.5-3.8,1.6
			c-1,1-1.6,2.5-1.9,4.5H628.1z"/>
		<path class="st1" d="M632.9,135.3v-1.8c0.6,0.5,1.2,0.9,2,1.1s1.5,0.4,2.1,0.4c2.6,0,3.9-1.1,3.9-3.2c0-0.7-0.3-1.4-0.9-1.9
			c-0.6-0.5-1.5-1-2.8-1.6c-1.6-0.7-2.7-1.4-3.3-2.1c-0.6-0.7-1-1.6-1-2.7c0-1.3,0.5-2.4,1.5-3.3s2.3-1.2,3.8-1.2
			c1.4,0,2.6,0.3,3.6,0.9v1.7c-1.2-0.8-2.5-1.2-3.8-1.2c-1.1,0-2,0.3-2.6,0.8c-0.7,0.6-1,1.3-1,2.2c0,0.8,0.2,1.4,0.6,1.9
			c0.4,0.5,1.3,1.1,2.8,1.7c1.7,0.8,2.9,1.5,3.5,2.2c0.6,0.7,1,1.5,1,2.6c0,1.3-0.5,2.4-1.5,3.2c-1,0.9-2.3,1.3-4.1,1.3
			C635.3,136.4,633.9,136,632.9,135.3z"/>
		<path class="st1" d="M657.8,136v-9.6c0-4-1.4-5.9-4.3-5.9c-1.6,0-2.9,0.6-3.9,1.7c-1,1.2-1.5,2.6-1.5,4.3v9.5h-1.5v-16.5h1.5v3
			h0.1c1.2-2.3,3.1-3.4,5.6-3.4c1.8,0,3.1,0.6,4.1,1.8c0.9,1.2,1.4,2.9,1.4,5.1v10H657.8z"/>
		<path class="st1" d="M664.6,120.1h-1.2l2-7.2h1.7L664.6,120.1z"/>
		<path class="st1" d="M677.8,135.8c-0.8,0.4-1.5,0.5-2.2,0.5c-2.4,0-3.7-1.5-3.7-4.4v-11.1h-3v-1.4h3v-4.3c0.2-0.1,0.5-0.2,0.7-0.3
			c0.3-0.1,0.5-0.2,0.7-0.2v4.8h4.4v1.4h-4.4v10.9c0,1.1,0.2,2,0.5,2.5c0.4,0.5,1,0.8,1.8,0.8c0.6,0,1.3-0.2,2-0.6V135.8z"/>
	</g>
	<g class="st0">
		<path class="st1" d="M302.6,169v-24.4h1.5V169H302.6z"/>
		<path class="st1" d="M316,169.4c-2.4,0-4.3-0.8-5.7-2.4c-1.4-1.6-2.1-3.6-2.1-6.2c0-2.7,0.7-4.9,2.2-6.4c1.5-1.5,3.4-2.3,5.8-2.3
			c2.4,0,4.2,0.8,5.6,2.3s2,3.7,2,6.4c0,2.6-0.7,4.6-2.1,6.2C320.4,168.6,318.4,169.4,316,169.4z M316.1,153.5c-1.9,0-3.5,0.7-4.6,2
			c-1.2,1.3-1.7,3.1-1.7,5.5c0,2.2,0.6,3.9,1.7,5.2s2.7,2,4.6,2c2,0,3.5-0.6,4.6-1.9s1.6-3.1,1.6-5.4c0-2.4-0.5-4.2-1.6-5.4
			C319.6,154.1,318.1,153.5,316.1,153.5z"/>
		<path class="st1" d="M334.5,169.4c-2.4,0-4.3-0.8-5.7-2.4c-1.4-1.6-2.1-3.6-2.1-6.2c0-2.7,0.7-4.9,2.2-6.4
			c1.5-1.5,3.4-2.3,5.8-2.3c2.4,0,4.2,0.8,5.6,2.3s2,3.7,2,6.4c0,2.6-0.7,4.6-2.1,6.2C338.9,168.6,337,169.4,334.5,169.4z
			 M334.7,153.5c-1.9,0-3.5,0.7-4.6,2c-1.2,1.3-1.7,3.1-1.7,5.5c0,2.2,0.6,3.9,1.7,5.2s2.7,2,4.6,2c2,0,3.5-0.6,4.6-1.9
			s1.6-3.1,1.6-5.4c0-2.4-0.5-4.2-1.6-5.4C338.1,154.1,336.6,153.5,334.7,153.5z"/>
		<path class="st1" d="M355.9,169l-7.9-8.2h-0.1v8.2h-1.5v-24.4h1.5v15.7h0.1l7.5-7.8h1.9l-7.8,8l8.5,8.5H355.9z"/>
		<path class="st1" d="M377.9,154c-0.5-0.4-1.1-0.5-1.7-0.5c-1.3,0-2.4,0.7-3.3,2s-1.3,3.2-1.3,5.7v7.8h-1.5v-16.5h1.5v3.7h0.1
			c0.4-1.3,1-2.2,1.8-2.9c0.8-0.7,1.8-1,2.8-1c0.6,0,1.2,0.1,1.6,0.3V154z"/>
		<path class="st1" d="M381.7,148.3c-0.3,0-0.6-0.1-0.9-0.4s-0.4-0.5-0.4-0.9c0-0.4,0.1-0.6,0.4-0.9c0.3-0.2,0.5-0.3,0.8-0.3
			c0.3,0,0.6,0.1,0.9,0.3c0.3,0.2,0.4,0.5,0.4,0.9c0,0.3-0.1,0.6-0.4,0.9S382.1,148.3,381.7,148.3z M381,169v-16.5h1.5V169H381z"/>
		<path class="st1" d="M401,167.8c0,3.1-0.7,5.4-2,6.8c-1.4,1.4-3.5,2.2-6.3,2.2c-1.6,0-3.2-0.4-4.9-1.3v-1.5c1.7,1,3.4,1.4,4.9,1.4
			c4.6,0,6.8-2.4,6.8-7.2V166h-0.1c-1.3,2.2-3.3,3.4-5.9,3.4c-2,0-3.7-0.7-5-2.2c-1.3-1.5-1.9-3.5-1.9-6.2s0.7-4.8,2.1-6.4
			s3.2-2.5,5.5-2.5c2.4,0,4.2,1,5.3,3h0.1v-2.6h1.5V167.8z M399.5,158.8c0-1.5-0.5-2.7-1.5-3.8c-1-1.1-2.3-1.6-3.8-1.6
			c-1.8,0-3.3,0.7-4.4,2s-1.7,3.2-1.7,5.4c0,2.3,0.5,4,1.5,5.3c1,1.3,2.4,1.9,4,1.9c1.8,0,3.2-0.6,4.2-1.7s1.6-2.6,1.6-4.2V158.8z"
			/>
		<path class="st1" d="M417.5,169v-9.9c0-2-0.4-3.4-1.1-4.3c-0.7-0.9-1.8-1.4-3.3-1.4c-1.4,0-2.7,0.6-3.7,1.7s-1.6,2.7-1.6,4.8v9.1
			h-1.5v-24.4h1.5v10.9h0.1c1.3-2.2,3.2-3.4,5.7-3.4c1.8,0,3.1,0.6,4.1,1.7s1.4,2.8,1.4,4.9V169H417.5z"/>
		<path class="st1" d="M430.5,168.8c-0.8,0.4-1.5,0.5-2.2,0.5c-2.4,0-3.7-1.5-3.7-4.4v-11.1h-3v-1.4h3v-4.3c0.2-0.1,0.5-0.2,0.7-0.3
			c0.3-0.1,0.5-0.2,0.7-0.2v4.8h4.4v1.4h-4.4v10.9c0,1.1,0.2,2,0.5,2.5c0.4,0.5,1,0.8,1.8,0.8c0.6,0,1.3-0.2,2-0.6V168.8z"/>
		<path class="st1" d="M434.7,169.3c-0.4,0-0.7-0.1-0.9-0.4c-0.2-0.3-0.4-0.6-0.4-0.9c0-0.4,0.1-0.7,0.4-0.9
			c0.2-0.2,0.6-0.4,0.9-0.4s0.7,0.1,0.9,0.4c0.3,0.2,0.4,0.6,0.4,0.9c0,0.4-0.1,0.7-0.4,0.9C435.4,169.2,435.1,169.3,434.7,169.3z"
			/>
	</g>
</g>
<g transform="translate(288 83)">
	<path class="st2" d="M2,0h76c1.1,0,2,0.9,2,2v18c0,1.1-0.9,2-2,2H2c-1.1,0-2-0.9-2-2V2C0,0.9,0.9,0,2,0z"/>
	<polygon class="st2" points="36,22 40,18 44,22 40,26 	"/>
	<g class="st0">
		<path class="st3" d="M7.4,15h-2V6.7h1.9c2,0,4,0.7,4,4.1C11.2,14.3,9.2,15,7.4,15z M7.5,7.8H6.7v6.2h0.8c1.2,0,2.2-0.6,2.2-3.1
			C9.8,8.2,8.6,7.8,7.5,7.8z"/>
		<path class="st3" d="M16.2,14h1.7v1h-5v-1h1.9V9.7h-1.8v-1h3.2V14z M16.2,6.4c0,0.5-0.4,0.8-0.9,0.8c-0.5,0-0.9-0.4-0.9-0.8
			c0-0.5,0.3-0.9,0.9-0.9C15.8,5.6,16.2,5.9,16.2,6.4z"/>
		<path class="st3" d="M23.6,13.3c0-0.5-0.2-0.8-1.5-1.1c-1.3-0.3-2.1-0.8-2.1-1.9c0-1.1,1-1.8,2.5-1.8c1.1,0,1.8,0.3,2.4,0.7
			l-0.6,0.9c-0.5-0.3-1.1-0.6-1.8-0.6c-0.9,0-1.2,0.3-1.2,0.7c0,0.5,0.3,0.7,1.6,1c1.2,0.3,2.1,0.8,2.1,2c0,1.4-1.3,2-2.8,2
			c-1.2,0-2-0.4-2.6-0.9l0.7-0.8c0.5,0.4,1.2,0.7,1.9,0.7C23.1,14.1,23.6,13.8,23.6,13.3z"/>
		<path class="st3" d="M32.6,11.8c0,1.9-0.8,3.3-2.4,3.3c-0.7,0-1.2-0.2-1.6-0.7v3l-1.3,0.2V8.7h1.2l0.1,0.8c0.5-0.6,1.1-1,1.8-1
			C31.9,8.5,32.6,9.8,32.6,11.8z M28.5,10.4v3c0.3,0.5,0.7,0.7,1.2,0.7c0.9,0,1.4-0.7,1.4-2.3c0-1.6-0.4-2.3-1.3-2.3
			C29.3,9.5,28.8,10,28.5,10.4z"/>
		<path class="st3" d="M37.1,13.3c0,0.6,0.4,0.8,1,0.8c0.4,0,0.7-0.1,1-0.2l0.3,0.9c-0.4,0.2-0.9,0.4-1.6,0.4c-1.3,0-2-0.8-2-2v-6
			h-1.9v-1h3.3V13.3z"/>
		<path class="st3" d="M46.9,14.2l-0.3,0.9c-0.6-0.1-1.1-0.3-1.3-0.9c-0.5,0.6-1.2,0.9-2,0.9c-1.3,0-2.1-0.8-2.1-2
			c0-1.3,1.1-2.1,3-2.1h0.9v-0.4c0-0.8-0.5-1.2-1.4-1.2c-0.4,0-1,0.1-1.7,0.3l-0.3-0.9c0.8-0.3,1.6-0.4,2.2-0.4
			c1.7,0,2.5,0.8,2.5,2.1v2.8C46.4,13.9,46.6,14.1,46.9,14.2z M45.1,13.4V12h-0.7c-1.3,0-1.8,0.4-1.8,1.2c0,0.7,0.4,1,1.1,1
			C44.2,14.2,44.8,13.9,45.1,13.4z"/>
		<path class="st3" d="M52.1,15c-0.5,1.4-1.3,2.4-3.1,2.6l-0.2-1c1.3-0.2,1.7-0.7,2-1.6h-0.5l-2.1-6.3h1.4l1.6,5.4l1.6-5.4h1.4
			L52.1,15z"/>
		<path class="st3" d="M68,8.9c0,1.5-0.9,2.6-3.6,5h3.8L68,15h-5.1v-1c3-2.9,3.7-3.8,3.7-5c0-0.8-0.5-1.3-1.3-1.3
			c-0.7,0-1.2,0.3-1.7,0.9l-0.9-0.7c0.6-0.8,1.4-1.3,2.6-1.3C67,6.6,68,7.6,68,8.9z"/>
		<path class="st3" d="M75.7,10.9c0,2.7-1,4.3-2.8,4.3s-2.8-1.6-2.8-4.3c0-2.7,1-4.3,2.8-4.3S75.7,8.1,75.7,10.9z M71.4,10.9
			c0,2.4,0.5,3.3,1.5,3.3c0.9,0,1.5-0.9,1.5-3.3c0-2.4-0.5-3.3-1.5-3.3S71.4,8.5,71.4,10.9z M73.7,10.9c0,0.4-0.3,0.8-0.8,0.8
			c-0.4,0-0.8-0.3-0.8-0.8c0-0.4,0.3-0.8,0.8-0.8C73.4,10.1,73.7,10.4,73.7,10.9z"/>
	</g>
</g>
</svg>
