<?xml version="1.0" encoding="utf-8"?>
<!-- Generator: Adobe Illustrator 21.1.0, SVG Export Plug-In . SVG Version: 6.00 Build 0)  -->
<svg version="1.1" id="Layer_1" xmlns="http://www.w3.org/2000/svg" xmlns:xlink="http://www.w3.org/1999/xlink" x="0px" y="0px"
	 viewBox="0 0 752 85" style="enable-background:new 0 0 752 85;" xml:space="preserve">
<style type="text/css">
	.st0{enable-background:new    ;}
	.st1{fill:#0C0C0D;}
	.st2{fill:#0A8DFF;}
	.st3{fill:#FFFFFF;}
	.st4{fill:none;stroke:#0C0C0D;stroke-opacity:0.3;}
	.st5{fill:#FFBF49;}
	.st6{fill:#323B59;}
	.st7{fill:#FFA500;}
	.st8{fill:#FF7664;}
	.st9{fill:#0A84FF;}
</style>
<g>
	<g transform="translate(237 -73)">
		<g class="st0">
			<path class="st1" d="M-154.8,90.5l-3.9,10.5h-1.4l-3.8-10.5h1.4l2.9,8.3c0.1,0.3,0.2,0.6,0.2,0.9l0,0c0-0.3,0.1-0.6,0.2-0.9
				l3-8.3H-154.8z"/>
			<path class="st1" d="M-148.4,97.6h-5.3c0,0.8,0.2,1.5,0.7,1.9c0.4,0.5,1,0.7,1.8,0.7s1.6-0.3,2.3-0.8v1.1
				c-0.7,0.5-1.5,0.7-2.6,0.7s-1.9-0.3-2.5-1s-0.9-1.6-0.9-2.9c0-1.2,0.3-2.1,1-2.9c0.7-0.7,1.5-1.1,2.5-1.1s1.7,0.3,2.3,1
				c0.6,0.7,0.8,1.5,0.8,2.6L-148.4,97.6L-148.4,97.6z M-149.6,96.5c0-0.7-0.2-1.2-0.5-1.6c-0.3-0.4-0.8-0.6-1.4-0.6s-1,0.2-1.4,0.6
				c-0.4,0.4-0.6,0.9-0.7,1.6H-149.6z"/>
			<path class="st1" d="M-142.7,94.7c-0.2-0.2-0.5-0.2-0.9-0.2c-0.5,0-0.9,0.2-1.3,0.7c-0.3,0.5-0.5,1.1-0.5,2v3.8h-1.2v-7.5h1.2V95
				l0,0c0.2-0.5,0.4-0.9,0.8-1.2c0.4-0.3,0.7-0.4,1.2-0.4c0.3,0,0.6,0,0.7,0.1C-142.7,93.5-142.7,94.7-142.7,94.7z"/>
			<path class="st1" d="M-141.8,100.7v-1.3c0.7,0.5,1.4,0.7,2.2,0.7c1.1,0,1.6-0.4,1.6-1.1c0-0.2,0-0.4-0.1-0.5
				c-0.1-0.1-0.2-0.3-0.4-0.4s-0.3-0.2-0.5-0.3c-0.2-0.1-0.4-0.2-0.7-0.3c-0.3-0.1-0.6-0.3-0.9-0.4c-0.3-0.1-0.5-0.3-0.6-0.5
				c-0.2-0.2-0.3-0.4-0.4-0.6c-0.1-0.2-0.1-0.5-0.1-0.8c0-0.4,0.1-0.7,0.2-0.9c0.2-0.3,0.4-0.5,0.6-0.7c0.3-0.2,0.6-0.3,0.9-0.4
				s0.7-0.1,1.1-0.1c0.6,0,1.2,0.1,1.7,0.3v1.2c-0.6-0.4-1.2-0.5-1.9-0.5c-0.2,0-0.4,0-0.6,0.1s-0.3,0.1-0.5,0.2s-0.2,0.2-0.3,0.3
				c-0.1,0.1-0.1,0.3-0.1,0.4c0,0.2,0,0.4,0.1,0.5c0.1,0.1,0.2,0.2,0.3,0.4c0.1,0.1,0.3,0.2,0.5,0.3c0.2,0.1,0.4,0.2,0.7,0.3
				c0.3,0.1,0.6,0.3,0.9,0.4c0.3,0.1,0.5,0.3,0.7,0.5s0.3,0.4,0.4,0.6c0.1,0.2,0.1,0.5,0.1,0.8c0,0.4-0.1,0.7-0.2,1
				c-0.1,0.3-0.4,0.5-0.7,0.7c-0.3,0.2-0.6,0.3-0.9,0.4s-0.7,0.1-1.1,0.1C-140.6,101.2-141.2,101-141.8,100.7z"/>
			<path class="st1" d="M-134.4,91.6c-0.2,0-0.4-0.1-0.5-0.2c-0.1-0.1-0.2-0.3-0.2-0.6s0.1-0.4,0.2-0.6c0.2-0.1,0.3-0.2,0.5-0.2
				c0.2,0,0.4,0.1,0.6,0.2s0.2,0.3,0.2,0.6c0,0.2-0.1,0.4-0.2,0.5C-134,91.5-134.2,91.6-134.4,91.6z M-133.8,101h-1.2v-7.5h1.2V101z
				"/>
			<path class="st1" d="M-128.2,101.2c-1.1,0-2-0.4-2.7-1.1c-0.7-0.7-1-1.6-1-2.8c0-1.3,0.3-2.2,1-3c0.7-0.8,1.6-1.1,2.8-1.1
				c1.1,0,2,0.3,2.6,1c0.6,0.7,0.9,1.6,0.9,2.9c0,1.2-0.3,2.2-1,2.9C-126.2,100.8-127.1,101.2-128.2,101.2z M-128.1,94.3
				c-0.8,0-1.4,0.3-1.8,0.8c-0.4,0.5-0.7,1.2-0.7,2.2c0,0.9,0.2,1.6,0.7,2.1s1.1,0.8,1.8,0.8c0.8,0,1.4-0.3,1.8-0.8
				c0.4-0.5,0.6-1.2,0.6-2.1s-0.2-1.7-0.6-2.2C-126.8,94.6-127.4,94.3-128.1,94.3z"/>
			<path class="st1" d="M-116.3,101h-1.2v-4.3c0-1.6-0.6-2.4-1.7-2.4c-0.6,0-1.1,0.2-1.5,0.7c-0.4,0.5-0.6,1-0.6,1.7v4.3h-1.2v-7.5
				h1.2v1.2l0,0c0.6-0.9,1.4-1.4,2.5-1.4c0.8,0,1.4,0.3,1.9,0.8c0.4,0.5,0.7,1.3,0.7,2.3v4.6H-116.3z"/>
			<path class="st1" d="M-113.7,95c-0.2,0-0.4-0.1-0.6-0.2c-0.2-0.2-0.2-0.4-0.2-0.6s0.1-0.4,0.2-0.6c0.2-0.2,0.4-0.2,0.6-0.2
				s0.4,0.1,0.6,0.2s0.2,0.3,0.2,0.6s-0.1,0.4-0.2,0.6C-113.2,94.9-113.4,95-113.7,95z M-113.7,101.2c-0.2,0-0.4-0.1-0.6-0.2
				c-0.2-0.2-0.2-0.4-0.2-0.6s0.1-0.4,0.2-0.6c0.2-0.2,0.4-0.2,0.6-0.2s0.4,0.1,0.6,0.2c0.2,0.2,0.2,0.4,0.2,0.6s-0.1,0.4-0.2,0.6
				C-113.2,101.1-113.4,101.2-113.7,101.2z"/>
			<path class="st1" d="M-100.8,97.8c0,0.5-0.1,1-0.3,1.4s-0.4,0.8-0.8,1.1c-0.3,0.3-0.7,0.5-1.2,0.7s-1,0.2-1.5,0.2
				c-1,0-1.7-0.1-2.2-0.4v-1.3c0.7,0.5,1.4,0.7,2.2,0.7c0.4,0,0.7-0.1,1-0.2s0.6-0.3,0.8-0.5c0.2-0.2,0.4-0.4,0.5-0.7
				c0.1-0.3,0.2-0.6,0.2-0.9c0-0.7-0.2-1.2-0.7-1.6s-1.1-0.6-2-0.6c-0.1,0-0.3,0-0.4,0c-0.1,0-0.3,0-0.5,0c-0.2,0-0.3,0-0.5,0
				c-0.1,0-0.3,0-0.4,0l0.4-5.3h4.9v1.1h-3.8l-0.2,3.1c0.2,0,0.3,0,0.5,0c0.2,0,0.3,0,0.5,0c0.6,0,1.1,0.1,1.5,0.2
				c0.4,0.1,0.8,0.4,1.1,0.6c0.3,0.3,0.5,0.6,0.7,1C-100.9,96.9-100.8,97.3-100.8,97.8z"/>
			<path class="st1" d="M-92.9,98c0,0.5-0.1,0.9-0.3,1.3c-0.2,0.4-0.4,0.7-0.8,1c-0.3,0.3-0.7,0.5-1.2,0.6s-1,0.2-1.5,0.2
				c-1,0-1.8-0.2-2.4-0.6v-1.3c0.7,0.6,1.5,0.8,2.4,0.8c0.4,0,0.7,0,1-0.1s0.5-0.2,0.8-0.4c0.2-0.2,0.4-0.4,0.5-0.6s0.2-0.5,0.2-0.8
				c0-1.4-1-2.1-2.9-2.1H-98v-1h0.8c1.7,0,2.6-0.6,2.6-1.9c0-1.2-0.7-1.8-2-1.8c-0.7,0-1.4,0.2-2.1,0.7v-1.2
				c0.7-0.4,1.5-0.6,2.4-0.6c0.4,0,0.8,0.1,1.2,0.2c0.4,0.1,0.7,0.3,0.9,0.5c0.3,0.2,0.5,0.5,0.6,0.8s0.2,0.6,0.2,1
				c0,1.4-0.7,2.3-2.1,2.7l0,0c0.4,0,0.7,0.1,1,0.3c0.3,0.1,0.6,0.3,0.8,0.5c0.2,0.2,0.4,0.5,0.5,0.8C-92.9,97.4-92.9,97.7-92.9,98z
				"/>
			<path class="st1" d="M-90.1,101.2c-0.2,0-0.4-0.1-0.6-0.2c-0.2-0.2-0.2-0.4-0.2-0.6s0.1-0.4,0.2-0.6c0.2-0.2,0.4-0.2,0.6-0.2
				s0.4,0.1,0.6,0.2c0.2,0.2,0.2,0.4,0.2,0.6s-0.1,0.4-0.2,0.6C-89.7,101.1-89.9,101.2-90.1,101.2z"/>
			<path class="st1" d="M-81,95.7c0,0.9-0.1,1.7-0.2,2.3s-0.4,1.3-0.7,1.7c-0.3,0.5-0.7,0.8-1.1,1.1c-0.4,0.2-0.9,0.4-1.5,0.4
				c-0.5,0-1-0.1-1.4-0.3c-0.4-0.2-0.8-0.6-1-1c-0.3-0.4-0.5-1-0.6-1.6s-0.2-1.4-0.2-2.2c0-0.9,0.1-1.7,0.2-2.4
				c0.2-0.7,0.4-1.3,0.7-1.8c0.3-0.5,0.7-0.8,1.1-1.1c0.4-0.2,0.9-0.4,1.5-0.4C-82.1,90.3-81,92.1-81,95.7z M-82.3,95.8
				c0-3-0.7-4.5-2.1-4.5c-1.5,0-2.2,1.5-2.2,4.6c0,2.8,0.7,4.3,2.2,4.3C-83,100.2-82.3,98.7-82.3,95.8z"/>
			<path class="st1" d="M-72,103.4h-1c-1.5-1.7-2.3-3.9-2.3-6.4s0.8-4.7,2.3-6.5h1.1c-1.5,1.9-2.3,4-2.3,6.5
				C-74.2,99.4-73.5,101.6-72,103.4z"/>
			<path class="st1" d="M-64.3,97.7c0,0.5-0.1,1-0.2,1.4s-0.4,0.8-0.7,1.1s-0.6,0.6-1,0.7c-0.4,0.2-0.8,0.3-1.3,0.3s-1-0.1-1.4-0.3
				c-0.4-0.2-0.8-0.5-1.1-0.9c-0.3-0.4-0.5-0.9-0.7-1.5s-0.2-1.3-0.2-2c0-0.9,0.1-1.7,0.3-2.5c0.2-0.7,0.5-1.4,0.9-1.9
				s0.8-0.9,1.4-1.2s1.1-0.4,1.8-0.4c0.7,0,1.3,0.1,1.7,0.3v1.1c-0.5-0.3-1.1-0.4-1.7-0.4c-0.5,0-0.9,0.1-1.3,0.3s-0.7,0.5-1,0.9
				s-0.5,0.8-0.6,1.4c-0.1,0.5-0.2,1.1-0.2,1.8l0,0c0.5-0.9,1.3-1.3,2.4-1.3c0.5,0,0.9,0.1,1.2,0.2c0.4,0.2,0.7,0.4,0.9,0.7
				c0.3,0.3,0.5,0.6,0.6,1C-64.4,96.7-64.3,97.2-64.3,97.7z M-65.5,97.8c0-0.4,0-0.7-0.1-1s-0.2-0.5-0.4-0.7
				c-0.2-0.2-0.4-0.4-0.6-0.5c-0.3-0.1-0.5-0.2-0.9-0.2c-0.3,0-0.6,0.1-0.8,0.2s-0.5,0.3-0.7,0.5s-0.3,0.4-0.4,0.7
				c-0.1,0.3-0.2,0.5-0.2,0.8c0,0.4,0.1,0.7,0.2,1s0.2,0.6,0.4,0.8s0.4,0.4,0.7,0.6c0.3,0.1,0.5,0.2,0.9,0.2c0.3,0,0.6-0.1,0.8-0.2
				c0.2-0.1,0.5-0.3,0.6-0.5s0.3-0.5,0.4-0.7C-65.6,98.5-65.5,98.2-65.5,97.8z"/>
			<path class="st1" d="M-57.5,90.5v6.9h1.3v1.1h-1.3v2.5h-1.2v-2.5h-4.9v-1c0.5-0.5,0.9-1.1,1.4-1.7s0.9-1.2,1.3-1.8
				s0.8-1.2,1.2-1.8c0.4-0.6,0.7-1.2,0.9-1.7H-57.5z M-62.3,97.4h3.6v-5.1c-0.4,0.6-0.7,1.2-1,1.7s-0.6,1-0.9,1.4s-0.6,0.8-0.8,1.1
				S-62,97.1-62.3,97.4z"/>
			<path class="st1" d="M-50.6,97.3h-4v-0.9h4V97.3z"/>
			<path class="st1" d="M-47.2,99.9L-47.2,99.9v1.1h-1.2V89.9h1.2v4.9l0,0c0.6-1,1.5-1.5,2.6-1.5c1,0,1.7,0.3,2.3,1
				c0.5,0.7,0.8,1.6,0.8,2.7c0,1.3-0.3,2.3-0.9,3c-0.6,0.8-1.4,1.1-2.5,1.1C-45.9,101.2-46.7,100.8-47.2,99.9z M-47.2,96.9v1
				c0,0.6,0.2,1.1,0.6,1.6c0.4,0.4,0.9,0.6,1.5,0.6c0.7,0,1.3-0.3,1.7-0.8s0.6-1.3,0.6-2.3c0-0.8-0.2-1.5-0.6-2s-0.9-0.7-1.6-0.7
				s-1.3,0.2-1.7,0.7C-47,95.5-47.2,96.2-47.2,96.9z"/>
			<path class="st1" d="M-39,91.6c-0.2,0-0.4-0.1-0.5-0.2s-0.2-0.3-0.2-0.6s0.1-0.4,0.2-0.6c0.2-0.1,0.3-0.2,0.5-0.2
				s0.4,0.1,0.6,0.2s0.2,0.3,0.2,0.6c0,0.2-0.1,0.4-0.2,0.5C-38.6,91.5-38.8,91.6-39,91.6z M-38.4,101h-1.2v-7.5h1.2V101z"/>
			<path class="st1" d="M-32.5,100.9c-0.3,0.2-0.7,0.2-1.1,0.2c-1.3,0-2-0.7-2-2.2v-4.4h-1.3v-1h1.3v-1.8l1.2-0.4v2.2h1.9v1h-1.9
				v4.2c0,0.5,0.1,0.9,0.3,1.1s0.5,0.3,0.8,0.3s0.6-0.1,0.8-0.2V100.9z"/>
			<path class="st1" d="M-30.8,103.4h-1.1c1.5-1.8,2.3-4,2.3-6.4c0-2.5-0.8-4.6-2.3-6.5h1.1c1.5,1.8,2.3,4,2.3,6.5
				C-28.6,99.5-29.3,101.7-30.8,103.4z"/>
		</g>
		<g class="st0">
			<path class="st2" d="M-6.2,89.5l-3,10.5h-1.4l-2.2-7.7c-0.1-0.3-0.1-0.7-0.2-1.1l0,0c0,0.4-0.1,0.7-0.2,1.1l-2.2,7.7h-1.4
				l-3.1-10.5h1.4l2.2,8.1c0.1,0.3,0.2,0.7,0.2,1.1l0,0c0-0.3,0.1-0.6,0.2-1.1l2.3-8.1h1.2l2.2,8.1c0.1,0.3,0.1,0.6,0.2,1l0,0
				c0-0.3,0.1-0.6,0.2-1l2.1-8.1H-6.2z"/>
			<path class="st2" d="M1.5,100H0.3v-4.3c0-1.6-0.6-2.3-1.7-2.3c-0.6,0-1.1,0.2-1.5,0.7s-0.6,1-0.6,1.7v4.2h-1.2V88.9h1.2v4.8l0,0
				c0.6-0.9,1.4-1.4,2.5-1.4c1.7,0,2.5,1,2.5,3.1V100z"/>
			<path class="st2" d="M9.1,100H7.9v-1.2l0,0c-0.5,0.9-1.3,1.3-2.3,1.3c-0.7,0-1.3-0.2-1.8-0.6c-0.4-0.4-0.6-0.9-0.6-1.6
				c0-1.4,0.8-2.2,2.5-2.4l2.2-0.3c0-1.3-0.5-1.9-1.5-1.9c-0.9,0-1.7,0.3-2.4,0.9V93c0.7-0.5,1.6-0.7,2.5-0.7c1.8,0,2.6,0.9,2.6,2.8
				V100z M7.9,96.2l-1.8,0.2c-0.6,0.1-1,0.2-1.3,0.4c-0.3,0.2-0.4,0.5-0.4,1.1c0,0.4,0.1,0.7,0.4,0.9c0.3,0.2,0.6,0.3,1,0.3
				c0.6,0,1.1-0.2,1.5-0.6s0.6-0.9,0.6-1.6V96.2z"/>
			<path class="st2" d="M14.8,99.9c-0.3,0.2-0.7,0.2-1.1,0.2c-1.3,0-2-0.7-2-2.2v-4.4h-1.3v-1h1.3v-1.8l1.2-0.4v2.2h1.9v1h-1.9v4.2
				c0,0.5,0.1,0.9,0.3,1.1s0.5,0.3,0.8,0.3s0.6-0.1,0.8-0.2V99.9z"/>
			<path class="st2" d="M17.9,89.3l-1,3.3H16l0.8-3.3H17.9z"/>
			<path class="st2" d="M19.4,99.7v-1.3c0.7,0.5,1.4,0.7,2.2,0.7c1.1,0,1.6-0.4,1.6-1.1c0-0.2,0-0.4-0.1-0.5s-0.2-0.3-0.4-0.4
				s-0.3-0.2-0.5-0.3c-0.2-0.1-0.4-0.2-0.7-0.3c-0.3-0.1-0.6-0.3-0.9-0.4c-0.3-0.1-0.5-0.3-0.6-0.5c-0.2-0.2-0.3-0.4-0.4-0.6
				c-0.1-0.2-0.1-0.5-0.1-0.8c0-0.4,0.1-0.7,0.2-0.9c0.2-0.3,0.4-0.5,0.6-0.7c0.3-0.2,0.6-0.3,0.9-0.4c0.3-0.1,0.7-0.1,1.1-0.1
				c0.7,0,1.2,0.1,1.7,0.3v1.2c-0.6-0.4-1.2-0.5-1.9-0.5c-0.2,0-0.4,0-0.6,0.1c-0.2,0.1-0.3,0.1-0.5,0.2c-0.1,0.1-0.2,0.2-0.3,0.3
				c-0.1,0.1-0.1,0.3-0.1,0.4c0,0.2,0,0.4,0.1,0.5s0.2,0.2,0.3,0.4c0.1,0.1,0.3,0.2,0.5,0.3c0.2,0.1,0.4,0.2,0.7,0.3
				c0.3,0.1,0.6,0.3,0.9,0.4c0.3,0.1,0.5,0.3,0.7,0.5s0.3,0.4,0.4,0.6c0.1,0.2,0.2,0.5,0.2,0.8c0,0.4-0.1,0.7-0.2,1
				c-0.2,0.3-0.4,0.5-0.7,0.7s-0.6,0.3-0.9,0.4s-0.7,0.1-1.1,0.1C20.6,100.2,20,100,19.4,99.7z"/>
			<path class="st2" d="M36.6,100h-1.2v-4.3c0-1.6-0.6-2.4-1.7-2.4c-0.6,0-1.1,0.2-1.5,0.7s-0.6,1-0.6,1.7v4.3h-1.2v-7.5h1.2v1.2
				l0,0c0.6-0.9,1.4-1.4,2.5-1.4c0.8,0,1.4,0.3,1.9,0.8c0.4,0.5,0.7,1.3,0.7,2.3L36.6,100L36.6,100z"/>
			<path class="st2" d="M44.9,96.6h-5.3c0,0.8,0.2,1.5,0.7,1.9c0.4,0.5,1,0.7,1.8,0.7s1.6-0.3,2.3-0.8v1.1c-0.7,0.5-1.5,0.7-2.6,0.7
				s-1.9-0.3-2.5-1s-0.9-1.6-0.9-2.9c0-1.2,0.3-2.1,1-2.9c0.7-0.7,1.5-1.1,2.5-1.1s1.7,0.3,2.3,1s0.8,1.5,0.8,2.6v0.7H44.9z
				 M43.6,95.5c0-0.7-0.2-1.2-0.5-1.6s-0.8-0.6-1.4-0.6c-0.6,0-1,0.2-1.4,0.6s-0.6,0.9-0.7,1.6H43.6z"/>
			<path class="st2" d="M56.1,92.5l-2.2,7.5h-1.2l-1.5-5.4c-0.1-0.2-0.1-0.4-0.1-0.7l0,0c0,0.2-0.1,0.4-0.2,0.7l-1.7,5.4H48
				l-2.3-7.5H47l1.6,5.6c0,0.2,0.1,0.4,0.1,0.7h0.1c0-0.2,0.1-0.4,0.1-0.7l1.7-5.6h1.1l1.6,5.7c0,0.2,0.1,0.4,0.1,0.7h0.1
				c0-0.2,0.1-0.4,0.1-0.7l1.5-5.7H56.1z"/>
		</g>
		<g transform="translate(422 81)">
			<g>
				<path id="emphasis-a" class="st3" d="M-162,0H18c1.1,0,2,0.9,2,2v26c0,1.1-0.9,2-2,2h-180c-1.1,0-2-0.9-2-2V2
					C-164,0.9-163.1,0-162,0z"/>
			</g>
			<path class="st4" d="M-161.5,0.5h179c1.1,0,2,0.9,2,2v25c0,1.1-0.9,2-2,2h-179c-1.1,0-2-0.9-2-2v-25
				C-163.5,1.4-162.6,0.5-161.5,0.5z"/>
			<g class="st0">
				<path class="st1" d="M-146.5,19.6v-1.5c0.2,0.1,0.4,0.3,0.6,0.4c0.2,0.1,0.5,0.2,0.7,0.3c0.3,0.1,0.5,0.1,0.8,0.2
					c0.3,0.1,0.5,0.1,0.7,0.1c0.8,0,1.3-0.1,1.7-0.4s0.6-0.7,0.6-1.2c0-0.3-0.1-0.5-0.2-0.7c-0.1-0.2-0.3-0.4-0.5-0.6
					c-0.2-0.2-0.5-0.3-0.8-0.5c-0.3-0.2-0.6-0.3-1-0.5c-0.4-0.2-0.7-0.4-1-0.6c-0.3-0.2-0.6-0.4-0.8-0.6c-0.2-0.2-0.4-0.5-0.6-0.8
					c-0.1-0.3-0.2-0.6-0.2-1c0-0.5,0.1-0.9,0.3-1.2c0.2-0.4,0.5-0.6,0.8-0.9c0.3-0.2,0.7-0.4,1.2-0.5c0.4-0.1,0.9-0.2,1.3-0.2
					c1,0,1.8,0.1,2.3,0.4v1.4c-0.6-0.4-1.4-0.6-2.4-0.6c-0.3,0-0.5,0-0.8,0.1s-0.5,0.1-0.7,0.3c-0.2,0.1-0.4,0.3-0.5,0.5
					s-0.2,0.4-0.2,0.7s0,0.5,0.1,0.7c0.1,0.2,0.2,0.4,0.4,0.5s0.4,0.3,0.7,0.5s0.6,0.3,1,0.5s0.7,0.4,1.1,0.6
					c0.4,0.2,0.6,0.4,0.9,0.7c0.3,0.2,0.5,0.5,0.6,0.8c0.1,0.3,0.2,0.6,0.2,1c0,0.5-0.1,1-0.3,1.3c-0.2,0.4-0.5,0.7-0.8,0.9
					c-0.3,0.2-0.7,0.4-1.2,0.5c-0.4,0.1-0.9,0.2-1.4,0.2c-0.2,0-0.4,0-0.6,0s-0.5-0.1-0.7-0.1c-0.3-0.1-0.5-0.1-0.7-0.2
					C-146.2,19.8-146.4,19.7-146.5,19.6z"/>
				<path class="st1" d="M-132,20h-1.2v-4.3c0-1.6-0.6-2.3-1.7-2.3c-0.6,0-1.1,0.2-1.5,0.7c-0.4,0.5-0.6,1-0.6,1.7V20h-1.2V8.9h1.2
					v4.8l0,0c0.6-0.9,1.4-1.4,2.5-1.4c1.7,0,2.5,1,2.5,3.1V20z"/>
				<path class="st1" d="M-126.6,20.2c-1.1,0-2-0.4-2.7-1.1s-1-1.6-1-2.8c0-1.3,0.3-2.2,1-3s1.6-1.1,2.8-1.1c1.1,0,2,0.3,2.6,1
					s0.9,1.6,0.9,2.9c0,1.2-0.3,2.2-1,2.9C-124.6,19.8-125.5,20.2-126.6,20.2z M-126.5,13.3c-0.8,0-1.4,0.3-1.8,0.8
					c-0.4,0.5-0.7,1.2-0.7,2.2c0,0.9,0.2,1.6,0.7,2.1s1.1,0.8,1.8,0.8c0.8,0,1.4-0.3,1.8-0.8c0.4-0.5,0.6-1.2,0.6-2.1
					s-0.2-1.7-0.6-2.2C-125.1,13.6-125.7,13.3-126.5,13.3z"/>
				<path class="st1" d="M-111.5,12.5l-2.2,7.5h-1.3l-1.5-5.4c-0.1-0.2-0.1-0.4-0.1-0.7l0,0c0,0.2-0.1,0.4-0.2,0.7l-1.7,5.4h-1.2
					l-2.3-7.5h1.3l1.6,5.6c0,0.2,0.1,0.4,0.1,0.7l0,0c0-0.2,0.1-0.4,0.1-0.7l1.7-5.6h1.2l1.6,5.7c0,0.2,0.1,0.4,0.1,0.7h0.1
					c0-0.2,0.1-0.4,0.1-0.7l1.5-5.7C-112.6,12.5-111.5,12.5-111.5,12.5z"/>
				<path class="st1" d="M-98.1,15.8c0,2.9-1.3,4.4-4,4.4c-2.5,0-3.8-1.4-3.8-4.3V9.5h1.2v6.3c0,2.2,0.9,3.2,2.7,3.2
					c1.8,0,2.6-1,2.6-3.1V9.5h1.2L-98.1,15.8L-98.1,15.8z"/>
				<path class="st1" d="M-94.5,18.9L-94.5,18.9v4.5h-1.2V12.5h1.2v1.3l0,0c0.6-1,1.5-1.5,2.6-1.5c1,0,1.7,0.3,2.3,1
					c0.5,0.7,0.8,1.6,0.8,2.7c0,1.3-0.3,2.3-0.9,3c-0.6,0.8-1.4,1.1-2.5,1.1C-93.2,20.2-93.9,19.8-94.5,18.9z M-94.5,15.9v1
					c0,0.6,0.2,1.1,0.6,1.6c0.4,0.4,0.9,0.6,1.5,0.6c0.7,0,1.3-0.3,1.7-0.8C-90.2,17.8-90,17-90,16c0-0.8-0.2-1.5-0.6-2
					s-0.9-0.7-1.6-0.7s-1.3,0.2-1.7,0.7C-94.3,14.5-94.5,15.2-94.5,15.9z"/>
				<path class="st1" d="M-80.5,20h-1.2v-1.3l0,0c-0.6,1-1.4,1.5-2.6,1.5c-0.9,0-1.7-0.3-2.3-1c-0.6-0.7-0.8-1.6-0.8-2.7
					c0-1.2,0.3-2.2,0.9-3c0.6-0.7,1.5-1.1,2.5-1.1s1.8,0.4,2.2,1.2l0,0V8.9h1.2V20H-80.5z M-81.7,16.6v-1.1c0-0.6-0.2-1.1-0.6-1.5
					s-0.9-0.6-1.5-0.6c-0.7,0-1.3,0.3-1.7,0.8s-0.6,1.3-0.6,2.2s0.2,1.5,0.6,2s0.9,0.8,1.6,0.8s1.2-0.2,1.6-0.7
					C-81.9,18-81.7,17.3-81.7,16.6z"/>
				<path class="st1" d="M-72.7,20h-1.2v-1.2l0,0c-0.5,0.9-1.3,1.3-2.3,1.3c-0.7,0-1.3-0.2-1.8-0.6c-0.4-0.4-0.6-0.9-0.6-1.6
					c0-1.4,0.8-2.2,2.5-2.4l2.2-0.3c0-1.3-0.5-1.9-1.5-1.9c-0.9,0-1.7,0.3-2.4,0.9V13c0.7-0.5,1.6-0.7,2.5-0.7
					c1.8,0,2.6,0.9,2.6,2.8C-72.7,15.1-72.7,20-72.7,20z M-73.9,16.2l-1.8,0.2c-0.6,0.1-1,0.2-1.3,0.4c-0.3,0.2-0.4,0.5-0.4,1.1
					c0,0.4,0.1,0.7,0.4,0.9c0.3,0.2,0.6,0.3,1,0.3c0.6,0,1.1-0.2,1.5-0.6s0.6-0.9,0.6-1.6C-73.9,16.9-73.9,16.2-73.9,16.2z"/>
				<path class="st1" d="M-66.9,19.9c-0.3,0.2-0.7,0.2-1.1,0.2c-1.3,0-2-0.7-2-2.2v-4.4h-1.3v-1h1.3v-1.8l1.2-0.4v2.2h1.9v1h-1.9
					v4.2c0,0.5,0.1,0.9,0.3,1.1s0.5,0.3,0.8,0.3s0.6-0.1,0.8-0.2C-66.9,18.9-66.9,19.9-66.9,19.9z"/>
				<path class="st1" d="M-59.3,16.6h-5.3c0,0.8,0.2,1.5,0.7,1.9c0.4,0.5,1,0.7,1.8,0.7s1.6-0.3,2.3-0.8v1.1
					c-0.7,0.5-1.5,0.7-2.6,0.7s-1.9-0.3-2.5-1s-0.9-1.6-0.9-2.9c0-1.2,0.3-2.1,1-2.9c0.7-0.7,1.5-1.1,2.5-1.1s1.7,0.3,2.3,1
					s0.8,1.5,0.8,2.6v0.7H-59.3z M-60.5,15.5c0-0.7-0.2-1.2-0.5-1.6c-0.3-0.4-0.8-0.6-1.4-0.6s-1,0.2-1.4,0.6s-0.6,0.9-0.7,1.6
					H-60.5z"/>
				<path class="st1" d="M-45.3,20h-1.2v-4.8H-52V20h-1.2V9.5h1.2v4.6h5.4V9.5h1.2L-45.3,20L-45.3,20z"/>
				<path class="st1" d="M-42.1,10.6c-0.2,0-0.4-0.1-0.5-0.2s-0.2-0.3-0.2-0.6s0.1-0.4,0.2-0.6c0.2-0.1,0.3-0.2,0.5-0.2
					s0.4,0.1,0.6,0.2c0.2,0.1,0.2,0.3,0.2,0.6c0,0.2-0.1,0.4-0.2,0.5C-41.7,10.5-41.9,10.6-42.1,10.6z M-41.5,20h-1.2v-7.5h1.2V20z"
					/>
				<path class="st1" d="M-39.5,19.7v-1.3c0.7,0.5,1.4,0.7,2.2,0.7c1.1,0,1.6-0.4,1.6-1.1c0-0.2,0-0.4-0.1-0.5s-0.2-0.3-0.4-0.4
					c-0.2-0.1-0.3-0.2-0.5-0.3c-0.2-0.1-0.4-0.2-0.7-0.3c-0.3-0.1-0.6-0.3-0.9-0.4s-0.5-0.3-0.6-0.5c-0.2-0.2-0.3-0.4-0.4-0.6
					c-0.1-0.2-0.1-0.5-0.1-0.8c0-0.4,0.1-0.7,0.2-0.9c0.2-0.3,0.4-0.5,0.6-0.7c0.3-0.2,0.6-0.3,0.9-0.4c0.3-0.1,0.7-0.1,1.1-0.1
					c0.6,0,1.2,0.1,1.7,0.3v1.2c-0.6-0.4-1.2-0.5-1.9-0.5c-0.2,0-0.4,0-0.6,0.1s-0.3,0.1-0.5,0.2c-0.1,0.1-0.2,0.2-0.3,0.3
					c-0.1,0.1-0.1,0.3-0.1,0.4c0,0.2,0,0.4,0.1,0.5s0.2,0.2,0.3,0.4c0.1,0.1,0.3,0.2,0.5,0.3s0.4,0.2,0.7,0.3
					c0.3,0.1,0.6,0.3,0.9,0.4c0.3,0.1,0.5,0.3,0.7,0.5s0.3,0.4,0.4,0.6c0.1,0.2,0.1,0.5,0.1,0.8c0,0.4-0.1,0.7-0.2,1
					c-0.2,0.3-0.4,0.5-0.7,0.7s-0.6,0.3-0.9,0.4s-0.7,0.1-1.1,0.1C-38.3,20.2-39,20-39.5,19.7z"/>
				<path class="st1" d="M-29.2,19.9c-0.3,0.2-0.7,0.2-1.1,0.2c-1.3,0-2-0.7-2-2.2v-4.4h-1.3v-1h1.3v-1.8l1.2-0.4v2.2h1.9v1h-1.9
					v4.2c0,0.5,0.1,0.9,0.3,1.1s0.5,0.3,0.8,0.3s0.6-0.1,0.8-0.2V19.9z"/>
				<path class="st1" d="M-24.5,20.2c-1.1,0-2-0.4-2.7-1.1s-1-1.6-1-2.8c0-1.3,0.3-2.2,1-3s1.6-1.1,2.8-1.1c1.1,0,2,0.3,2.6,1
					s0.9,1.6,0.9,2.9c0,1.2-0.3,2.2-1,2.9C-22.5,19.8-23.4,20.2-24.5,20.2z M-24.4,13.3c-0.8,0-1.4,0.3-1.8,0.8
					c-0.4,0.5-0.7,1.2-0.7,2.2c0,0.9,0.2,1.6,0.7,2.1s1.1,0.8,1.8,0.8c0.8,0,1.4-0.3,1.8-0.8c0.4-0.5,0.6-1.2,0.6-2.1
					s-0.2-1.7-0.6-2.2C-23,13.6-23.6,13.3-24.4,13.3z"/>
				<path class="st1" d="M-14.9,13.7c-0.2-0.2-0.5-0.2-0.9-0.2c-0.5,0-0.9,0.2-1.3,0.7c-0.3,0.5-0.5,1.1-0.5,2V20h-1.2v-7.5h1.2V14
					l0,0c0.2-0.5,0.4-0.9,0.8-1.2c0.4-0.3,0.7-0.4,1.2-0.4c0.3,0,0.6,0,0.7,0.1V13.7z"/>
				<path class="st1" d="M-7.7,12.5l-3.5,8.7c-0.6,1.6-1.5,2.3-2.6,2.3c-0.3,0-0.6,0-0.8-0.1v-1.1c0.3,0.1,0.5,0.1,0.7,0.1
					c0.6,0,1.1-0.4,1.4-1.1l0.6-1.4l-2.9-7.5h1.3l2,5.8c0,0.1,0.1,0.3,0.2,0.6l0,0c0-0.1,0.1-0.3,0.1-0.6l2.1-5.8L-7.7,12.5
					L-7.7,12.5z"/>
				<path class="st1" d="M-5.8,20.1c-0.2,0-0.4-0.1-0.6-0.2s-0.2-0.3-0.2-0.6s0.1-0.4,0.2-0.6c0.2-0.2,0.3-0.2,0.6-0.2
					c0.2,0,0.4,0.1,0.6,0.2C-5,18.9-5,19.1-5,19.3s-0.1,0.4-0.2,0.6S-5.5,20.1-5.8,20.1z M-2.1,20.1c-0.2,0-0.4-0.1-0.6-0.2
					c-0.2-0.2-0.2-0.3-0.2-0.6s0.1-0.4,0.2-0.6c0.2-0.2,0.4-0.2,0.6-0.2c0.2,0,0.4,0.1,0.6,0.2c0.2,0.2,0.2,0.4,0.2,0.6
					s-0.1,0.4-0.2,0.6C-1.7,20.1-1.9,20.1-2.1,20.1z M1.6,20.1c-0.2,0-0.4-0.1-0.6-0.2c-0.2-0.2-0.2-0.3-0.2-0.6s0.1-0.4,0.2-0.6
					c0.2-0.2,0.3-0.2,0.6-0.2c0.2,0,0.4,0.1,0.6,0.2c0.2,0.2,0.2,0.4,0.2,0.6s-0.1,0.4-0.2,0.6C2,20.1,1.8,20.1,1.6,20.1z"/>
			</g>
		</g>
		<g transform="translate(422 119)">
			<g>
				<path id="emphasis-b" class="st3" d="M-162,0H18c1.1,0,2,0.9,2,2v26c0,1.1-0.9,2-2,2h-180c-1.1,0-2-0.9-2-2V2
					C-164,0.9-163.1,0-162,0z"/>
			</g>
			<path class="st4" d="M-161.5,0.5h179c1.1,0,2,0.9,2,2v25c0,1.1-0.9,2-2,2h-179c-1.1,0-2-0.9-2-2v-25
				C-163.5,1.4-162.6,0.5-161.5,0.5z"/>
			<g class="st0">
				<path class="st1" d="M-124.4,19.6c-0.8,0.4-1.7,0.6-2.9,0.6c-1.5,0-2.7-0.5-3.6-1.4c-0.9-1-1.3-2.2-1.3-3.8c0-1.7,0.5-3,1.5-4.1
					s2.3-1.6,3.8-1.6c1,0,1.8,0.1,2.5,0.4V11c-0.8-0.4-1.6-0.6-2.5-0.6c-1.2,0-2.2,0.4-2.9,1.2s-1.1,1.9-1.1,3.2s0.4,2.3,1.1,3.1
					s1.6,1.1,2.8,1.1c1.1,0,2-0.2,2.7-0.7L-124.4,19.6L-124.4,19.6z"/>
				<path class="st1" d="M-116.2,20h-1.2v-4.3c0-1.6-0.6-2.3-1.7-2.3c-0.6,0-1.1,0.2-1.5,0.7c-0.4,0.5-0.6,1-0.6,1.7V20h-1.2V8.9
					h1.2v4.8l0,0c0.6-0.9,1.4-1.4,2.5-1.4c1.7,0,2.5,1,2.5,3.1V20z"/>
				<path class="st1" d="M-107.9,16.6h-5.3c0,0.8,0.2,1.5,0.7,1.9c0.4,0.5,1,0.7,1.8,0.7c0.8,0,1.6-0.3,2.3-0.8v1.1
					c-0.7,0.5-1.5,0.7-2.6,0.7s-1.9-0.3-2.5-1s-0.9-1.6-0.9-2.9c0-1.2,0.3-2.1,1-2.9c0.7-0.7,1.5-1.1,2.5-1.1s1.7,0.3,2.3,1
					c0.6,0.7,0.8,1.5,0.8,2.6L-107.9,16.6L-107.9,16.6z M-109.1,15.5c0-0.7-0.2-1.2-0.5-1.6c-0.3-0.4-0.8-0.6-1.4-0.6
					c-0.6,0-1,0.2-1.4,0.6s-0.6,0.9-0.7,1.6H-109.1z"/>
				<path class="st1" d="M-101,19.7c-0.6,0.3-1.3,0.5-2.1,0.5c-1.1,0-1.9-0.3-2.6-1s-1-1.6-1-2.7c0-1.2,0.4-2.2,1.1-3
					c0.7-0.7,1.7-1.1,2.8-1.1c0.7,0,1.2,0.1,1.7,0.4V14c-0.6-0.4-1.2-0.6-1.8-0.6c-0.8,0-1.4,0.3-1.9,0.8s-0.7,1.3-0.7,2.2
					c0,0.9,0.2,1.6,0.7,2.1s1.1,0.8,1.9,0.8c0.7,0,1.3-0.2,1.8-0.7L-101,19.7L-101,19.7z"/>
				<path class="st1" d="M-92.9,20h-1.7l-3.3-3.6l0,0V20h-1.2V8.9h1.2v7l0,0l3.1-3.4h1.6l-3.5,3.6L-92.9,20z"/>
				<path class="st1" d="M-83.9,10c-0.2-0.1-0.5-0.2-0.8-0.2c-0.8,0-1.3,0.5-1.3,1.6v1.2h1.8v1H-86V20h-1.2v-6.5h-1.3v-1h1.3v-1.2
					c0-0.8,0.2-1.4,0.7-1.9s1-0.7,1.7-0.7c0.4,0,0.7,0,0.9,0.1C-83.9,8.8-83.9,10-83.9,10z"/>
				<path class="st1" d="M-79.7,20.2c-1.1,0-2-0.4-2.7-1.1s-1-1.6-1-2.8c0-1.3,0.3-2.2,1-3s1.6-1.1,2.8-1.1c1.1,0,2,0.3,2.6,1
					c0.7,0.8,1,1.8,1,3s-0.3,2.2-1,2.9S-78.6,20.2-79.7,20.2z M-79.7,13.3c-0.8,0-1.4,0.3-1.8,0.8s-0.7,1.2-0.7,2.2
					c0,0.9,0.2,1.6,0.7,2.1s1.1,0.8,1.8,0.8c0.8,0,1.4-0.3,1.8-0.8s0.6-1.2,0.6-2.1s-0.2-1.7-0.6-2.2
					C-78.3,13.6-78.9,13.3-79.7,13.3z"/>
				<path class="st1" d="M-70.2,13.7c-0.2-0.2-0.5-0.2-0.9-0.2c-0.5,0-0.9,0.2-1.3,0.7c-0.3,0.5-0.5,1.1-0.5,2V20h-1.2v-7.5h1.2V14
					l0,0c0.2-0.5,0.4-0.9,0.8-1.2s0.7-0.4,1.2-0.4c0.3,0,0.6,0,0.7,0.1C-70.2,12.5-70.2,13.7-70.2,13.7z"/>
				<path class="st1" d="M-56.9,15.8c0,2.9-1.3,4.4-4,4.4c-2.5,0-3.8-1.4-3.8-4.3V9.5h1.2v6.3c0,2.2,0.9,3.2,2.7,3.2
					c1.8,0,2.6-1,2.6-3.1V9.5h1.2v6.3H-56.9z"/>
				<path class="st1" d="M-53.2,18.9L-53.2,18.9v4.5h-1.2V12.5h1.2v1.3l0,0c0.6-1,1.5-1.5,2.6-1.5c1,0,1.7,0.3,2.3,1
					c0.5,0.7,0.8,1.6,0.8,2.7c0,1.3-0.3,2.3-0.9,3c-0.6,0.8-1.4,1.1-2.5,1.1C-52,20.2-52.7,19.8-53.2,18.9z M-53.3,15.9v1
					c0,0.6,0.2,1.1,0.6,1.6c0.4,0.4,0.9,0.6,1.5,0.6c0.7,0,1.3-0.3,1.7-0.8c0.4-0.6,0.6-1.3,0.6-2.3c0-0.8-0.2-1.5-0.6-2
					s-0.9-0.7-1.6-0.7s-1.3,0.2-1.7,0.7C-53,14.5-53.3,15.2-53.3,15.9z"/>
				<path class="st1" d="M-39.2,20h-1.2v-1.3l0,0c-0.6,1-1.4,1.5-2.6,1.5c-0.9,0-1.7-0.3-2.3-1c-0.6-0.7-0.8-1.6-0.8-2.7
					c0-1.2,0.3-2.2,0.9-3c0.6-0.7,1.5-1.1,2.5-1.1s1.8,0.4,2.2,1.2l0,0V8.9h1.2V20H-39.2z M-40.4,16.6v-1.1c0-0.6-0.2-1.1-0.6-1.5
					s-0.9-0.6-1.5-0.6c-0.7,0-1.3,0.3-1.7,0.8s-0.6,1.3-0.6,2.2s0.2,1.5,0.6,2s0.9,0.8,1.6,0.8s1.2-0.2,1.6-0.7
					C-40.6,18-40.4,17.3-40.4,16.6z"/>
				<path class="st1" d="M-31.4,20h-1.2v-1.2l0,0c-0.5,0.9-1.3,1.3-2.3,1.3c-0.7,0-1.3-0.2-1.8-0.6c-0.4-0.4-0.6-0.9-0.6-1.6
					c0-1.4,0.8-2.2,2.5-2.4l2.2-0.3c0-1.3-0.5-1.9-1.5-1.9c-0.9,0-1.7,0.3-2.4,0.9V13c0.7-0.5,1.6-0.7,2.5-0.7
					c1.8,0,2.6,0.9,2.6,2.8V20z M-32.6,16.2l-1.8,0.2c-0.6,0.1-1,0.2-1.3,0.4c-0.3,0.2-0.4,0.5-0.4,1.1c0,0.4,0.1,0.7,0.4,0.9
					c0.3,0.2,0.6,0.3,1,0.3c0.6,0,1.1-0.2,1.5-0.6s0.6-0.9,0.6-1.6V16.2z"/>
				<path class="st1" d="M-25.7,19.9c-0.3,0.2-0.7,0.2-1.1,0.2c-1.3,0-2-0.7-2-2.2v-4.4h-1.3v-1h1.3v-1.8l1.2-0.4v2.2h1.9v1h-1.9
					v4.2c0,0.5,0.1,0.9,0.3,1.1s0.5,0.3,0.8,0.3s0.6-0.1,0.8-0.2V19.9z"/>
				<path class="st1" d="M-18.1,16.6h-5.3c0,0.8,0.2,1.5,0.7,1.9c0.4,0.5,1,0.7,1.8,0.7s1.6-0.3,2.3-0.8v1.1
					c-0.7,0.5-1.5,0.7-2.6,0.7s-1.9-0.3-2.5-1s-0.9-1.6-0.9-2.9c0-1.2,0.3-2.1,1-2.9c0.7-0.7,1.5-1.1,2.5-1.1s1.7,0.3,2.3,1
					s0.8,1.5,0.8,2.6v0.7H-18.1z M-19.3,15.5c0-0.7-0.2-1.2-0.5-1.6c-0.3-0.4-0.8-0.6-1.4-0.6c-0.6,0-1,0.2-1.4,0.6
					s-0.6,0.9-0.7,1.6H-19.3z"/>
				<path class="st1" d="M-16.7,19.7v-1.3c0.7,0.5,1.4,0.7,2.2,0.7c1.1,0,1.6-0.4,1.6-1.1c0-0.2,0-0.4-0.1-0.5s-0.2-0.3-0.4-0.4
					s-0.3-0.2-0.5-0.3c-0.2-0.1-0.4-0.2-0.7-0.3c-0.3-0.1-0.6-0.3-0.9-0.4c-0.3-0.1-0.5-0.3-0.6-0.5c-0.2-0.2-0.3-0.4-0.4-0.6
					c-0.1-0.2-0.1-0.5-0.1-0.8c0-0.4,0.1-0.7,0.2-0.9c0.2-0.3,0.4-0.5,0.6-0.7c0.3-0.2,0.6-0.3,0.9-0.4c0.3-0.1,0.7-0.1,1.1-0.1
					c0.6,0,1.2,0.1,1.7,0.3v1.2c-0.6-0.4-1.2-0.5-1.9-0.5c-0.2,0-0.4,0-0.6,0.1c-0.2,0.1-0.3,0.1-0.5,0.2c-0.1,0.1-0.2,0.2-0.3,0.3
					s-0.1,0.3-0.1,0.4c0,0.2,0,0.4,0.1,0.5s0.2,0.2,0.3,0.4c0.1,0.1,0.3,0.2,0.5,0.3s0.4,0.2,0.7,0.3s0.6,0.3,0.9,0.4
					c0.3,0.1,0.5,0.3,0.7,0.5s0.3,0.4,0.4,0.6c0.1,0.2,0.1,0.5,0.1,0.8c0,0.4-0.1,0.7-0.2,1c-0.2,0.3-0.4,0.5-0.7,0.7
					s-0.6,0.3-0.9,0.4s-0.7,0.1-1.1,0.1C-15.5,20.2-16.1,20-16.7,19.7z"/>
			</g>
		</g>
		<g class="st0">
			<path class="st1" d="M-128.7,130.4h-3.7v2.6h3.4v1.9h-3.4v4.1h-2.4v-10.5h6.1V130.4z"/>
			<path class="st1" d="M-126.1,130.3c-0.4,0-0.7-0.1-1-0.3c-0.2-0.2-0.4-0.5-0.4-0.9c0-0.3,0.1-0.6,0.4-0.8s0.6-0.3,1-0.3
				s0.7,0.1,1,0.3c0.2,0.2,0.4,0.5,0.4,0.8c0,0.4-0.1,0.6-0.4,0.9C-125.3,130.2-125.7,130.3-126.1,130.3z M-124.9,139h-2.3v-7.5h2.3
				V139z"/>
			<path class="st1" d="M-118.1,133.6c-0.3-0.2-0.6-0.2-1-0.2c-0.5,0-0.9,0.2-1.2,0.6c-0.3,0.4-0.4,0.9-0.4,1.5v3.6h-2.3v-7.5h2.3
				v1.4l0,0c0.4-1,1-1.5,2-1.5c0.2,0,0.4,0,0.6,0.1C-118.1,131.6-118.1,133.6-118.1,133.6z"/>
			<path class="st1" d="M-110.3,135.9h-4.9c0.1,1.1,0.8,1.6,2.1,1.6c0.8,0,1.6-0.2,2.2-0.6v1.7c-0.7,0.4-1.6,0.6-2.7,0.6
				c-1.2,0-2.2-0.3-2.8-1c-0.7-0.7-1-1.6-1-2.8s0.4-2.2,1.1-3s1.6-1.1,2.7-1.1c1.1,0,1.9,0.3,2.5,1c0.6,0.6,0.9,1.5,0.9,2.6v1
				H-110.3z M-112.5,134.5c0-1.1-0.4-1.6-1.3-1.6c-0.4,0-0.7,0.2-1,0.5c-0.3,0.3-0.4,0.7-0.5,1.2L-112.5,134.5L-112.5,134.5z"/>
			<path class="st1" d="M-104,129.7c-0.3-0.1-0.6-0.2-0.9-0.2c-0.7,0-1.1,0.4-1.1,1.2v0.8h1.7v1.7h-1.7v5.8h-2.3v-5.8h-1.3v-1.7h1.3
				v-0.9c0-0.9,0.3-1.5,0.8-2.1c0.6-0.5,1.3-0.8,2.3-0.8c0.5,0,0.9,0,1.2,0.1V129.7z"/>
			<path class="st1" d="M-99.6,139.2c-1.2,0-2.2-0.4-2.9-1.1c-0.7-0.7-1.1-1.7-1.1-2.9s0.4-2.2,1.1-2.9s1.7-1.1,3-1.1
				c1.2,0,2.2,0.4,2.9,1.1c0.7,0.7,1.1,1.6,1.1,2.8s-0.4,2.2-1.1,3C-97.3,138.8-98.3,139.2-99.6,139.2z M-99.6,133.1
				c-0.5,0-1,0.2-1.3,0.6c-0.3,0.4-0.5,0.9-0.5,1.6c0,1.4,0.6,2.2,1.7,2.2c1.1,0,1.7-0.7,1.7-2.2C-97.9,133.8-98.4,133.1-99.6,133.1
				z"/>
			<path class="st1" d="M-87.1,131.5l-2.5,3.6l2.5,3.9h-2.7l-1.1-2c-0.1-0.2-0.2-0.4-0.3-0.7l0,0c-0.1,0.2-0.2,0.4-0.3,0.7l-1.1,2
				h-2.7l2.5-3.7l-2.4-3.8h2.7l1.1,2.1c0.1,0.3,0.2,0.5,0.3,0.7l0,0c0.1-0.2,0.2-0.5,0.3-0.7l1.1-2.1H-87.1z"/>
			<path class="st1" d="M-80.7,130.3c-0.4,0-0.7-0.1-1-0.3c-0.2-0.2-0.4-0.5-0.4-0.9c0-0.3,0.1-0.6,0.4-0.8s0.6-0.3,1-0.3
				s0.7,0.1,1,0.3c0.2,0.2,0.4,0.5,0.4,0.8c0,0.4-0.1,0.6-0.4,0.9C-80,130.2-80.3,130.3-80.7,130.3z M-79.6,139h-2.3v-7.5h2.3V139z"
				/>
			<path class="st1" d="M-78.1,138.8v-1.9c0.4,0.2,0.8,0.4,1.1,0.5c0.4,0.1,0.7,0.2,1.1,0.2s0.7-0.1,1-0.2c0.2-0.1,0.4-0.3,0.4-0.5
				c0-0.1-0.1-0.3-0.2-0.4c-0.1-0.1-0.2-0.2-0.4-0.3c-0.2-0.1-0.4-0.1-0.6-0.2s-0.4-0.1-0.6-0.2c-0.3-0.1-0.6-0.2-0.8-0.4
				c-0.2-0.1-0.4-0.3-0.6-0.5s-0.3-0.4-0.4-0.6c-0.1-0.2-0.1-0.5-0.1-0.8c0-0.4,0.1-0.8,0.3-1.1c0.2-0.3,0.4-0.6,0.7-0.7
				c0.3-0.2,0.7-0.3,1-0.4c0.4-0.1,0.8-0.1,1.2-0.1c0.3,0,0.7,0,1,0.1s0.7,0.1,1,0.2v1.8c-0.3-0.2-0.6-0.3-0.9-0.4
				c-0.3-0.1-0.7-0.1-1-0.1c-0.2,0-0.3,0-0.4,0s-0.3,0.1-0.4,0.1c-0.1,0.1-0.2,0.1-0.2,0.2c-0.1,0.1-0.1,0.2-0.1,0.3s0,0.3,0.1,0.4
				s0.2,0.2,0.3,0.3c0.1,0.1,0.3,0.1,0.5,0.2c0.2,0.1,0.3,0.1,0.5,0.2c0.3,0.1,0.6,0.2,0.8,0.4s0.5,0.3,0.6,0.4
				c0.2,0.2,0.3,0.4,0.4,0.6c0.1,0.2,0.1,0.5,0.1,0.8c0,0.4-0.1,0.8-0.3,1.1c-0.2,0.3-0.4,0.6-0.8,0.8c-0.3,0.2-0.7,0.3-1.1,0.4
				c-0.4,0.1-0.9,0.1-1.3,0.1C-76.7,139.2-77.4,139.1-78.1,138.8z"/>
			<path class="st1" d="M-59.8,139h-2.3v-1.1l0,0c-0.6,0.9-1.3,1.3-2.3,1.3c-1.7,0-2.6-1.1-2.6-3.2v-4.5h2.3v4.3
				c0,1.1,0.4,1.6,1.3,1.6c0.4,0,0.7-0.1,1-0.4c0.2-0.3,0.4-0.7,0.4-1.2v-4.3h2.3v7.5H-59.8z"/>
			<path class="st1" d="M-55.5,138.1L-55.5,138.1v4.3h-2.3v-10.9h2.3v1.1l0,0c0.6-0.9,1.4-1.3,2.4-1.3s1.7,0.3,2.3,1
				c0.5,0.7,0.8,1.6,0.8,2.7c0,1.3-0.3,2.3-0.9,3s-1.4,1.1-2.5,1.1C-54.3,139.2-55,138.8-55.5,138.1z M-55.5,135.1v0.6
				c0,0.5,0.1,0.9,0.4,1.3s0.6,0.5,1.1,0.5s0.9-0.2,1.2-0.6c0.3-0.4,0.4-1,0.4-1.7c0-1.3-0.5-2-1.5-2c-0.5,0-0.9,0.2-1.2,0.5
				C-55.4,134-55.5,134.5-55.5,135.1z"/>
			<path class="st1" d="M-39.8,138.9c-0.3,0.2-0.9,0.3-1.5,0.3c-1.6,0-2.4-0.8-2.4-2.5v-3.4h-1.2v-1.7h1.2V130l2.3-0.7v2.3h1.7v1.7
				h-1.7v3c0,0.8,0.3,1.2,0.9,1.2c0.2,0,0.5-0.1,0.8-0.2v1.6H-39.8z"/>
			<path class="st1" d="M-35,139.2c-1.2,0-2.2-0.4-2.9-1.1c-0.7-0.7-1.1-1.7-1.1-2.9s0.4-2.2,1.1-2.9s1.7-1.1,3-1.1
				c1.2,0,2.2,0.4,2.9,1.1c0.7,0.7,1.1,1.6,1.1,2.8s-0.4,2.2-1.1,3C-32.8,138.8-33.8,139.2-35,139.2z M-35,133.1
				c-0.5,0-1,0.2-1.3,0.6s-0.5,0.9-0.5,1.6c0,1.4,0.6,2.2,1.7,2.2c1.1,0,1.7-0.7,1.7-2.2C-33.3,133.8-33.9,133.1-35,133.1z"/>
			<path class="st1" d="M-18,139h-2.3v-1l0,0c-0.5,0.8-1.3,1.2-2.3,1.2c-0.9,0-1.7-0.3-2.3-1s-0.9-1.6-0.9-2.8s0.3-2.2,0.9-3
				s1.5-1.1,2.5-1.1s1.6,0.3,2,1l0,0v-4.5h2.3V139H-18z M-20.2,135.4v-0.6c0-0.5-0.1-0.9-0.4-1.2s-0.7-0.5-1.1-0.5
				c-0.5,0-0.9,0.2-1.2,0.6c-0.3,0.4-0.4,1-0.4,1.7s0.1,1.2,0.4,1.5s0.7,0.5,1.2,0.5s0.9-0.2,1.1-0.6
				C-20.4,136.5-20.2,136-20.2,135.4z"/>
			<path class="st1" d="M-9.8,139H-12v-1.1l0,0c-0.5,0.8-1.2,1.3-2.2,1.3c-0.7,0-1.3-0.2-1.7-0.6c-0.4-0.4-0.6-1-0.6-1.7
				c0-1.5,0.9-2.3,2.6-2.5l2-0.3c0-0.8-0.4-1.2-1.3-1.2c-0.9,0-1.7,0.3-2.5,0.8V132c0.3-0.2,0.8-0.3,1.3-0.4
				c0.6-0.1,1.1-0.2,1.5-0.2c2.1,0,3.2,1.1,3.2,3.2v4.4H-9.8z M-11.9,136v-0.5l-1.4,0.2c-0.8,0.1-1.1,0.4-1.1,1
				c0,0.3,0.1,0.5,0.3,0.6c0.2,0.2,0.4,0.3,0.7,0.3c0.4,0,0.8-0.2,1.1-0.5C-12.1,136.8-11.9,136.4-11.9,136z"/>
			<path class="st1" d="M-3.4,138.9c-0.3,0.2-0.9,0.3-1.5,0.3c-1.6,0-2.4-0.8-2.4-2.5v-3.4h-1.2v-1.7h1.2V130l2.3-0.7v2.3h1.7v1.7
				H-5v3c0,0.8,0.3,1.2,0.9,1.2c0.2,0,0.5-0.1,0.8-0.2v1.6H-3.4z"/>
			<path class="st1" d="M4.6,135.9h-4.9c0.1,1.1,0.8,1.6,2.1,1.6c0.8,0,1.6-0.2,2.2-0.6v1.7c-0.7,0.4-1.6,0.6-2.7,0.6
				c-1.2,0-2.2-0.3-2.8-1c-0.7-0.7-1-1.6-1-2.8s0.4-2.2,1.1-3s1.6-1.1,2.7-1.1c1.1,0,1.9,0.3,2.5,1s0.9,1.5,0.9,2.6v1H4.6z
				 M2.4,134.5c0-1.1-0.4-1.6-1.3-1.6c-0.4,0-0.7,0.2-1,0.5s-0.4,0.7-0.5,1.2L2.4,134.5L2.4,134.5z"/>
		</g>
		<g transform="translate(0 124.8)">
			<path class="st5" d="M-154,0c-5,0-9,4-9,9c0,0.1,0,0.3,0,0.4c-0.6,0.1-1,0.5-1,1.1s0.5,1.1,1.1,1.1h0.2c1.1,3.7,4.5,6.4,8.7,6.4
				c5,0,9-4,9-9S-149.1,0-154,0"/>
			<path class="st6" d="M-149.6,5.9c0.5,0,1,0.4,1,1v2.2c0,0.5-0.4,0.1-1,0.1c-0.5,0-1,0.4-1-0.1V6.9
				C-150.5,6.3-150.1,5.9-149.6,5.9"/>
			<path class="st7" d="M-150.5,9.7c-0.1,0-0.2-0.1-0.3-0.2c-0.1-0.2,0-0.3,0.1-0.4c0.7-0.3,1.4-0.3,2.1,0c0.2,0.1,0.2,0.3,0.1,0.4
				c-0.1,0.2-0.3,0.2-0.4,0.1c-0.5-0.2-1-0.2-1.5,0C-150.4,9.6-150.4,9.7-150.5,9.7"/>
			<path class="st6" d="M-158.5,5.9c0.5,0,1,0.4,1,1v2.2c0,0.5-0.4,0.1-1,0.1c-0.5,0-1,0.4-1-0.1V6.9
				C-159.5,6.3-159.1,5.9-158.5,5.9"/>
			<path class="st7" d="M-159.4,9.7c-0.1,0-0.2-0.1-0.3-0.2c-0.1-0.2,0-0.3,0.1-0.4c0.7-0.3,1.4-0.3,2.1,0c0.2,0.1,0.2,0.3,0.1,0.4
				c0,0.1-0.2,0.2-0.4,0.1C-158.3,9.4-158.8,9.4-159.4,9.7L-159.4,9.7"/>
			<path class="st6" d="M-147.9,11.6c-0.2,0-0.4,0-0.6,0c-0.1,0-0.2,0.1-0.4,0.1c-0.3,0-0.7,0.1-1.2,0.2c-0.5,0-1.1,0.1-1.8,0.2
				c-0.6,0-1.3,0.1-2,0.1c-0.7,0-1.4,0-2-0.1c-0.6,0-1.2-0.1-1.8-0.2c-0.5,0-0.9-0.2-1.2-0.2c-0.2,0-0.4-0.1-0.5-0.1
				c-0.2,0-0.4,0-0.6,0c0,0,0,0-0.1,0c-0.1,0-0.1,0.2,0,0.2l-0.1,0.2c0.3,0.4,0.5,0.7,0.8,1c0.3,0.3,0.5,0.5,0.8,0.8
				c0.5,0.4,1,0.8,1.5,1.1c0.1,0,0.3,0.1,0.4,0.1c0.8-0.5,1.7,0.2,2.6,0.2c1,0,1.9-0.7,2.6-0.2c0.1-0.1,0.3-0.1,0.4-0.2
				c0.5-0.3,1-0.6,1.5-1.1c0.3-0.2,0.5-0.5,0.8-0.8s0.5-0.6,0.8-1L-147.9,11.6C-147.9,11.7-147.9,11.7-147.9,11.6
				C-147.8,11.7-147.9,11.6-147.9,11.6"/>
			<path class="st3" d="M-157.8,11.9c0.5,0,1.1,0.1,1.8,0.2c0.6,0,1.3,0.1,2,0.1s1.4,0,2-0.1c0.6,0,1.2-0.1,1.8-0.2
				c0.5,0,0.9-0.2,1.2-0.2c0.2,0,0.4-0.1,0.4-0.1c-0.3,0-0.6,0-0.9-0.1l-1.5,0c-1,0-2,0-3.1,0c-1,0-2,0-3.1,0l-1.5,0.1
				c-0.3,0-0.6,0-0.9,0.1c0.1,0,0.2,0.1,0.4,0.1C-158.8,11.7-158.3,11.8-157.8,11.9"/>
			<path class="st7" d="M-145,9.4c0-0.1,0-0.3,0-0.4c0-2.4-0.9-4.6-2.5-6.2c0.9,1.4,1.4,3.1,1.4,4.9c0,5.1-4.2,9.3-9.3,9.3
				c-1.8,0-3.4-0.5-4.9-1.4c1.6,1.5,3.8,2.4,6.2,2.4c4.1,0,7.6-2.7,8.7-6.5h0.2c0.6,0,1.1-0.5,1.1-1.1C-144.1,9.9-144.5,9.5-145,9.4
				"/>
			<path class="st8" d="M-151.4,15.1L-151.4,15.1c-0.8-0.5-1.7-0.4-2.6-0.3l0,0l0,0c-1-0.1-1.9-0.3-2.6,0.2l0,0l0,0
				c0.9,0.4,1.7,0.6,2.6,0.6l0,0l0,0l0,0l0,0C-153.1,15.6-152.3,15.4-151.4,15.1L-151.4,15.1"/>
		</g>
	</g>
	<g transform="translate(410 51)">
		<path class="st9" d="M-158,0h105c1.1,0,2,0.9,2,2v18c0,1.1-0.9,2-2,2h-105c-1.1,0-2-0.9-2-2V2C-160,0.9-159.1,0-158,0z"/>
		<polygon class="st9" points="-164,11 -160,7 -156,11 -160,15 		"/>
		<g class="st0">
			<path class="st3" d="M-153.2,10.3h3v1h-3v2.6h3.7V15h-5V6.7h5l-0.2,1.1h-3.4L-153.2,10.3L-153.2,10.3z"/>
			<path class="st3" d="M-142,10.3V15h-1.2v-4.5c0-0.7,0-0.9-0.4-0.9c-0.3,0-0.6,0.2-0.9,0.6V15h-1.1v-4.5c0-0.7,0-0.9-0.4-0.9
				c-0.3,0-0.6,0.2-0.9,0.6V15h-1.2V8.7h1l0.1,0.7c0.4-0.5,0.7-0.9,1.4-0.9c0.5,0,0.9,0.2,1.1,0.8c0.4-0.5,0.8-0.8,1.4-0.8
				C-142.5,8.5-142,8.9-142,10.3z"/>
			<path class="st3" d="M-135,11.8c0,1.9-0.8,3.3-2.4,3.3c-0.7,0-1.2-0.2-1.6-0.7v3l-1.3,0.2V8.7h1.2l0.1,0.8c0.5-0.6,1.1-1,1.8-1
				C-135.7,8.5-135,9.8-135,11.8z M-139.1,10.4v3c0.3,0.5,0.7,0.7,1.2,0.7c0.9,0,1.4-0.7,1.4-2.3s-0.4-2.3-1.3-2.3
				C-138.3,9.5-138.8,10-139.1,10.4z"/>
			<path class="st3" d="M-131.9,9.4c0.5-0.6,1.2-0.9,2-0.9c1.2,0,1.8,0.7,1.8,1.9V15h-1.3v-4.4c0-0.8-0.3-1.1-0.9-1.1
				c-0.6,0-1.1,0.5-1.5,0.9V15h-1.3V6.1l1.2-0.1V9.4z"/>
			<path class="st3" d="M-120.7,14.2l-0.3,1c-0.6-0.1-1.1-0.3-1.3-0.9c-0.5,0.6-1.2,0.9-2,0.9c-1.3,0-2.1-0.8-2.1-2
				c0-1.3,1.1-2.1,3-2.1h0.9v-0.4c0-0.8-0.5-1.2-1.4-1.2c-0.4,0-1,0.1-1.7,0.3l-0.3-0.9c0.8-0.3,1.6-0.4,2.2-0.4
				c1.7,0,2.5,0.8,2.5,2.1v2.8C-121.2,13.9-121,14.1-120.7,14.2z M-122.5,13.4V12h-0.7c-1.3,0-1.8,0.4-1.8,1.2c0,0.7,0.4,1,1.1,1
				C-123.4,14.2-122.8,13.9-122.5,13.4z"/>
			<path class="st3" d="M-115.2,13.3c0-0.5-0.2-0.8-1.5-1.1c-1.3-0.3-2.1-0.8-2.1-1.9s1-1.8,2.5-1.8c1.1,0,1.8,0.3,2.4,0.7l-0.6,0.9
				c-0.5-0.3-1.1-0.6-1.8-0.6c-0.9,0-1.2,0.3-1.2,0.7c0,0.5,0.3,0.7,1.6,1c1.2,0.3,2.1,0.8,2.1,2c0,1.4-1.3,2-2.8,2
				c-1.2,0-2-0.4-2.6-0.9l0.7-0.8c0.5,0.4,1.2,0.7,1.9,0.7C-115.7,14.1-115.2,13.8-115.2,13.3z"/>
			<path class="st3" d="M-108.2,14h1.7v1h-5v-1h1.9V9.7h-1.8v-1h3.2C-108.2,8.7-108.2,14-108.2,14z M-108.2,6.4
				c0,0.5-0.4,0.8-0.9,0.8s-0.9-0.4-0.9-0.8c0-0.5,0.3-0.9,0.9-0.9C-108.6,5.6-108.2,5.9-108.2,6.4z"/>
			<path class="st3" d="M-100.8,13.3c0-0.5-0.2-0.8-1.5-1.1c-1.3-0.3-2.1-0.8-2.1-1.9s1-1.8,2.5-1.8c1.1,0,1.8,0.3,2.4,0.7l-0.5,0.9
				c-0.5-0.3-1.1-0.6-1.8-0.6c-0.9,0-1.2,0.3-1.2,0.7c0,0.5,0.3,0.7,1.6,1c1.2,0.3,2.1,0.8,2.1,2c0,1.4-1.3,2-2.8,2
				c-1.2,0-2-0.4-2.6-0.9l0.7-0.8c0.5,0.4,1.2,0.7,1.9,0.7C-101.3,14.1-100.8,13.8-100.8,13.3z"/>
			<path class="st3" d="M-86.4,13.3c0-0.5-0.2-0.8-1.5-1.1s-2.1-0.8-2.1-1.9s1-1.8,2.5-1.8c1.1,0,1.8,0.3,2.4,0.7l-0.6,0.9
				c-0.5-0.3-1.1-0.6-1.8-0.6c-0.9,0-1.2,0.3-1.2,0.7c0,0.5,0.3,0.7,1.6,1c1.2,0.3,2.1,0.8,2.1,2c0,1.4-1.3,2-2.8,2
				c-1.2,0-2-0.4-2.6-0.9l0.7-0.8c0.5,0.4,1.2,0.7,1.9,0.7C-86.9,14.1-86.4,13.8-86.4,13.3z"/>
			<path class="st3" d="M-79.4,15.2c-1.5,0-2.3-0.8-2.3-2.1V9.7H-83v-1h1.4V7.3l1.3-0.2v1.6h2.1l-0.2,1h-2v3.4c0,0.7,0.3,1,1.1,1
				c0.5,0,0.9-0.1,1.2-0.3l0.5,0.9C-78,15-78.7,15.2-79.4,15.2z"/>
			<path class="st3" d="M-72.3,15c-0.5,1.4-1.3,2.4-3.1,2.6l-0.2-1c1.3-0.2,1.7-0.7,2-1.6H-74l-2.1-6.3h1.4l1.6,5.4l1.6-5.4h1.4
				L-72.3,15z"/>
			<path class="st3" d="M-65.7,13.3c0,0.6,0.4,0.8,1,0.8c0.4,0,0.7-0.1,1-0.2l0.3,0.9c-0.4,0.2-0.9,0.4-1.6,0.4c-1.3,0-2-0.8-2-2v-6
				h-1.9v-1h3.3v7.1H-65.7z"/>
			<path class="st3" d="M-58.4,14.1c0.6,0,1.1-0.2,1.7-0.6l0.6,0.8c-0.6,0.5-1.4,0.8-2.3,0.8c-2,0-3.1-1.3-3.1-3.3
				c0-1.9,1.1-3.3,2.9-3.3c1.7,0,2.7,1.2,2.7,3.2c0,0.2,0,0.4,0,0.6h-4.2C-60,13.6-59.3,14.1-58.4,14.1z M-60.1,11.4h2.9
				c0-1.2-0.5-1.9-1.4-1.9C-59.4,9.5-60,10.1-60.1,11.4z"/>
		</g>
	</g>
</g>
</svg>
