<?xml version="1.0" encoding="utf-8"?>
<!-- Generator: Adobe Illustrator 21.1.0, SVG Export Plug-In . SVG Version: 6.00 Build 0)  -->
<svg version="1.1" id="Layer_1" xmlns="http://www.w3.org/2000/svg" xmlns:xlink="http://www.w3.org/1999/xlink" x="0px" y="0px"
	 viewBox="0 0 752 85" style="enable-background:new 0 0 752 85;" xml:space="preserve">
<style type="text/css">
	.st0{enable-background:new    ;}
	.st1{fill:#0C0C0D;}
	.st2{fill:#0A8DFF;}
	.st3{fill:#FFFFFF;}
	.st4{fill:none;stroke:#0C0C0D;stroke-opacity:0.3;}
	.st5{fill:#FFBF49;}
	.st6{fill:#323B59;}
	.st7{fill:#FFA500;}
	.st8{fill:#FF7664;}
	.st9{fill:#0A84FF;}
</style>
<g>
	<g transform="translate(237 -73)">
		<g class="st0">
			<path class="st1" d="M9.2,90.5L5.3,101H3.9L0.1,90.5h1.4l2.9,8.3c0.1,0.3,0.2,0.6,0.2,0.9h0c0-0.3,0.1-0.6,0.2-0.9l3-8.3H9.2z"/>
			<path class="st1" d="M15.6,97.6h-5.3c0,0.8,0.2,1.5,0.7,1.9c0.4,0.5,1,0.7,1.8,0.7c0.8,0,1.6-0.3,2.3-0.8v1.1
				c-0.7,0.5-1.5,0.7-2.6,0.7c-1.1,0-1.9-0.3-2.5-1c-0.6-0.7-0.9-1.6-0.9-2.9c0-1.2,0.3-2.1,1-2.9c0.7-0.7,1.5-1.1,2.5-1.1
				s1.7,0.3,2.3,1s0.8,1.5,0.8,2.6V97.6z M14.4,96.5c0-0.7-0.2-1.2-0.5-1.6c-0.3-0.4-0.8-0.6-1.4-0.6c-0.6,0-1,0.2-1.4,0.6
				s-0.6,0.9-0.7,1.6H14.4z"/>
			<path class="st1" d="M21.3,94.7c-0.2-0.2-0.5-0.2-0.9-0.2c-0.5,0-0.9,0.2-1.3,0.7c-0.3,0.5-0.5,1.1-0.5,2v3.8h-1.2v-7.5h1.2V95h0
				c0.2-0.5,0.4-0.9,0.8-1.2c0.4-0.3,0.7-0.4,1.2-0.4c0.3,0,0.6,0,0.7,0.1V94.7z"/>
			<path class="st1" d="M22.2,100.7v-1.3c0.7,0.5,1.4,0.7,2.2,0.7c1.1,0,1.6-0.4,1.6-1.1c0-0.2,0-0.4-0.1-0.5
				c-0.1-0.1-0.2-0.3-0.4-0.4c-0.2-0.1-0.3-0.2-0.5-0.3c-0.2-0.1-0.4-0.2-0.7-0.3c-0.3-0.1-0.6-0.3-0.9-0.4
				c-0.3-0.1-0.5-0.3-0.6-0.5c-0.2-0.2-0.3-0.4-0.4-0.6c-0.1-0.2-0.1-0.5-0.1-0.8c0-0.4,0.1-0.7,0.2-0.9c0.2-0.3,0.4-0.5,0.6-0.7
				c0.3-0.2,0.6-0.3,0.9-0.4c0.3-0.1,0.7-0.1,1.1-0.1c0.6,0,1.2,0.1,1.7,0.3v1.2c-0.6-0.4-1.2-0.5-1.9-0.5c-0.2,0-0.4,0-0.6,0.1
				c-0.2,0.1-0.3,0.1-0.5,0.2s-0.2,0.2-0.3,0.3c-0.1,0.1-0.1,0.3-0.1,0.4c0,0.2,0,0.4,0.1,0.5c0.1,0.1,0.2,0.2,0.3,0.4
				c0.1,0.1,0.3,0.2,0.5,0.3c0.2,0.1,0.4,0.2,0.7,0.3c0.3,0.1,0.6,0.3,0.9,0.4c0.3,0.1,0.5,0.3,0.7,0.5c0.2,0.2,0.3,0.4,0.4,0.6
				c0.1,0.2,0.1,0.5,0.1,0.8c0,0.4-0.1,0.7-0.2,1s-0.4,0.5-0.7,0.7c-0.3,0.2-0.6,0.3-0.9,0.4s-0.7,0.1-1.1,0.1
				C23.4,101.2,22.8,101,22.2,100.7z"/>
			<path class="st1" d="M29.6,91.6c-0.2,0-0.4-0.1-0.5-0.2s-0.2-0.3-0.2-0.6s0.1-0.4,0.2-0.6c0.2-0.1,0.3-0.2,0.5-0.2
				c0.2,0,0.4,0.1,0.6,0.2c0.2,0.1,0.2,0.3,0.2,0.6c0,0.2-0.1,0.4-0.2,0.5C30,91.5,29.8,91.6,29.6,91.6z M30.2,101H29v-7.5h1.2V101z
				"/>
			<path class="st1" d="M35.8,101.2c-1.1,0-2-0.4-2.7-1.1c-0.7-0.7-1-1.6-1-2.8c0-1.3,0.3-2.2,1-3s1.6-1.1,2.8-1.1
				c1.1,0,2,0.3,2.6,1c0.6,0.7,0.9,1.6,0.9,2.9c0,1.2-0.3,2.2-1,2.9C37.8,100.8,36.9,101.2,35.8,101.2z M35.9,94.3
				c-0.8,0-1.4,0.3-1.8,0.8c-0.4,0.5-0.7,1.2-0.7,2.2c0,0.9,0.2,1.6,0.7,2.1c0.5,0.5,1.1,0.8,1.8,0.8c0.8,0,1.4-0.3,1.8-0.8
				c0.4-0.5,0.6-1.2,0.6-2.1c0-0.9-0.2-1.7-0.6-2.2C37.2,94.6,36.6,94.3,35.9,94.3z"/>
			<path class="st1" d="M47.7,101h-1.2v-4.3c0-1.6-0.6-2.4-1.7-2.4c-0.6,0-1.1,0.2-1.5,0.7c-0.4,0.5-0.6,1-0.6,1.7v4.3h-1.2v-7.5
				h1.2v1.2h0c0.6-0.9,1.4-1.4,2.5-1.4c0.8,0,1.4,0.3,1.9,0.8c0.4,0.5,0.7,1.3,0.7,2.3V101z"/>
			<path class="st1" d="M50.3,95c-0.2,0-0.4-0.1-0.6-0.2c-0.2-0.2-0.2-0.4-0.2-0.6s0.1-0.4,0.2-0.6c0.2-0.2,0.4-0.2,0.6-0.2
				c0.2,0,0.4,0.1,0.6,0.2s0.2,0.3,0.2,0.6s-0.1,0.4-0.2,0.6C50.8,94.9,50.6,95,50.3,95z M50.3,101.2c-0.2,0-0.4-0.1-0.6-0.2
				c-0.2-0.2-0.2-0.4-0.2-0.6s0.1-0.4,0.2-0.6c0.2-0.2,0.4-0.2,0.6-0.2c0.2,0,0.4,0.1,0.6,0.2c0.2,0.2,0.2,0.4,0.2,0.6
				s-0.1,0.4-0.2,0.6C50.8,101.1,50.6,101.2,50.3,101.2z"/>
			<path class="st1" d="M63.2,97.8c0,0.5-0.1,1-0.3,1.4s-0.4,0.8-0.8,1.1c-0.3,0.3-0.7,0.5-1.2,0.7s-1,0.2-1.5,0.2
				c-1,0-1.7-0.1-2.2-0.4v-1.3c0.7,0.5,1.4,0.7,2.2,0.7c0.4,0,0.7-0.1,1-0.2s0.6-0.3,0.8-0.5s0.4-0.4,0.5-0.7
				c0.1-0.3,0.2-0.6,0.2-0.9c0-0.7-0.2-1.2-0.7-1.6c-0.5-0.4-1.1-0.6-2-0.6c-0.1,0-0.3,0-0.4,0s-0.3,0-0.5,0c-0.2,0-0.3,0-0.5,0
				c-0.1,0-0.3,0-0.4,0l0.4-5.3h4.9v1.1h-3.8l-0.2,3.1c0.2,0,0.3,0,0.5,0c0.2,0,0.3,0,0.5,0c0.6,0,1.1,0.1,1.5,0.2s0.8,0.4,1.1,0.6
				c0.3,0.3,0.5,0.6,0.7,1C63.1,96.9,63.2,97.3,63.2,97.8z"/>
			<path class="st1" d="M71.1,98c0,0.5-0.1,0.9-0.3,1.3c-0.2,0.4-0.4,0.7-0.8,1c-0.3,0.3-0.7,0.5-1.2,0.6s-1,0.2-1.5,0.2
				c-1,0-1.8-0.2-2.4-0.6v-1.3c0.7,0.6,1.5,0.8,2.4,0.8c0.4,0,0.7,0,1-0.1c0.3-0.1,0.5-0.2,0.8-0.4c0.2-0.2,0.4-0.4,0.5-0.6
				s0.2-0.5,0.2-0.8c0-1.4-1-2.1-2.9-2.1h-0.9v-1h0.8c1.7,0,2.6-0.6,2.6-1.9c0-1.2-0.7-1.8-2-1.8c-0.7,0-1.4,0.2-2.1,0.7v-1.2
				c0.7-0.4,1.5-0.6,2.4-0.6c0.4,0,0.8,0.1,1.2,0.2c0.4,0.1,0.7,0.3,0.9,0.5c0.3,0.2,0.5,0.5,0.6,0.8c0.1,0.3,0.2,0.6,0.2,1
				c0,1.4-0.7,2.3-2.1,2.7v0c0.4,0,0.7,0.1,1,0.3c0.3,0.1,0.6,0.3,0.8,0.5c0.2,0.2,0.4,0.5,0.5,0.8C71.1,97.4,71.1,97.7,71.1,98z"/>
			<path class="st1" d="M73.9,101.2c-0.2,0-0.4-0.1-0.6-0.2c-0.2-0.2-0.2-0.4-0.2-0.6s0.1-0.4,0.2-0.6c0.2-0.2,0.4-0.2,0.6-0.2
				c0.2,0,0.4,0.1,0.6,0.2c0.2,0.2,0.2,0.4,0.2,0.6s-0.1,0.4-0.2,0.6C74.3,101.1,74.1,101.2,73.9,101.2z"/>
			<path class="st1" d="M83,95.7c0,0.9-0.1,1.7-0.2,2.3s-0.4,1.3-0.7,1.7c-0.3,0.5-0.7,0.8-1.1,1.1c-0.4,0.2-0.9,0.4-1.5,0.4
				c-0.5,0-1-0.1-1.4-0.3c-0.4-0.2-0.8-0.6-1-1c-0.3-0.4-0.5-1-0.6-1.6c-0.1-0.6-0.2-1.4-0.2-2.2c0-0.9,0.1-1.7,0.2-2.4
				c0.2-0.7,0.4-1.3,0.7-1.8c0.3-0.5,0.7-0.8,1.1-1.1c0.4-0.2,0.9-0.4,1.5-0.4C81.9,90.3,83,92.1,83,95.7z M81.7,95.8
				c0-3-0.7-4.5-2.1-4.5c-1.5,0-2.2,1.5-2.2,4.6c0,2.8,0.7,4.3,2.2,4.3C81,100.2,81.7,98.7,81.7,95.8z"/>
			<path class="st1" d="M92,103.4H91c-1.5-1.7-2.3-3.9-2.3-6.4c0-2.5,0.8-4.7,2.3-6.5h1.1c-1.5,1.9-2.3,4-2.3,6.5
				C89.8,99.4,90.5,101.6,92,103.4z"/>
			<path class="st1" d="M99.7,97.7c0,0.5-0.1,1-0.2,1.4s-0.4,0.8-0.7,1.1s-0.6,0.6-1,0.7c-0.4,0.2-0.8,0.3-1.3,0.3
				c-0.5,0-1-0.1-1.4-0.3c-0.4-0.2-0.8-0.5-1.1-0.9c-0.3-0.4-0.5-0.9-0.7-1.5s-0.2-1.3-0.2-2c0-0.9,0.1-1.7,0.3-2.5
				c0.2-0.7,0.5-1.4,0.9-1.9c0.4-0.5,0.8-0.9,1.4-1.2s1.1-0.4,1.8-0.4c0.7,0,1.3,0.1,1.7,0.3v1.1c-0.5-0.3-1.1-0.4-1.7-0.4
				c-0.5,0-0.9,0.1-1.3,0.3s-0.7,0.5-1,0.9c-0.3,0.4-0.5,0.8-0.6,1.4c-0.1,0.5-0.2,1.1-0.2,1.8h0c0.5-0.9,1.3-1.3,2.4-1.3
				c0.5,0,0.9,0.1,1.2,0.2c0.4,0.2,0.7,0.4,0.9,0.7c0.3,0.3,0.5,0.6,0.6,1C99.6,96.7,99.7,97.2,99.7,97.7z M98.5,97.8
				c0-0.4,0-0.7-0.1-1s-0.2-0.5-0.4-0.7c-0.2-0.2-0.4-0.4-0.6-0.5c-0.3-0.1-0.5-0.2-0.9-0.2c-0.3,0-0.6,0.1-0.8,0.2
				s-0.5,0.3-0.7,0.5c-0.2,0.2-0.3,0.4-0.4,0.7c-0.1,0.3-0.2,0.5-0.2,0.8c0,0.4,0.1,0.7,0.2,1c0.1,0.3,0.2,0.6,0.4,0.8
				s0.4,0.4,0.7,0.6c0.3,0.1,0.5,0.2,0.9,0.2c0.3,0,0.6-0.1,0.8-0.2c0.2-0.1,0.5-0.3,0.6-0.5s0.3-0.5,0.4-0.7
				C98.4,98.5,98.5,98.2,98.5,97.8z"/>
			<path class="st1" d="M106.5,90.5v6.9h1.3v1.1h-1.3v2.5h-1.2v-2.5h-4.9v-1c0.5-0.5,0.9-1.1,1.4-1.7c0.5-0.6,0.9-1.2,1.3-1.8
				s0.8-1.2,1.2-1.8c0.4-0.6,0.7-1.2,0.9-1.7H106.5z M101.7,97.4h3.6v-5.1c-0.4,0.6-0.7,1.2-1,1.7s-0.6,1-0.9,1.4
				c-0.3,0.4-0.6,0.8-0.8,1.1S102,97.1,101.7,97.4z"/>
			<path class="st1" d="M113.4,97.3h-4v-0.9h4V97.3z"/>
			<path class="st1" d="M116.8,99.9L116.8,99.9l0,1.1h-1.2V89.9h1.2v4.9h0c0.6-1,1.5-1.5,2.6-1.5c1,0,1.7,0.3,2.3,1
				c0.5,0.7,0.8,1.6,0.8,2.7c0,1.3-0.3,2.3-0.9,3c-0.6,0.8-1.4,1.1-2.5,1.1C118.1,101.2,117.3,100.8,116.8,99.9z M116.8,96.9v1
				c0,0.6,0.2,1.1,0.6,1.6c0.4,0.4,0.9,0.6,1.5,0.6c0.7,0,1.3-0.3,1.7-0.8s0.6-1.3,0.6-2.3c0-0.8-0.2-1.5-0.6-2
				c-0.4-0.5-0.9-0.7-1.6-0.7c-0.7,0-1.3,0.2-1.7,0.7C117,95.5,116.8,96.2,116.8,96.9z"/>
			<path class="st1" d="M125,91.6c-0.2,0-0.4-0.1-0.5-0.2s-0.2-0.3-0.2-0.6s0.1-0.4,0.2-0.6c0.2-0.1,0.3-0.2,0.5-0.2
				c0.2,0,0.4,0.1,0.6,0.2c0.2,0.1,0.2,0.3,0.2,0.6c0,0.2-0.1,0.4-0.2,0.5C125.4,91.5,125.2,91.6,125,91.6z M125.6,101h-1.2v-7.5
				h1.2V101z"/>
			<path class="st1" d="M131.5,100.9c-0.3,0.2-0.7,0.2-1.1,0.2c-1.3,0-2-0.7-2-2.2v-4.4h-1.3v-1h1.3v-1.8l1.2-0.4v2.2h1.9v1h-1.9
				v4.2c0,0.5,0.1,0.9,0.3,1.1s0.5,0.3,0.8,0.3c0.3,0,0.6-0.1,0.8-0.2V100.9z"/>
			<path class="st1" d="M133.2,103.4h-1.1c1.5-1.8,2.3-4,2.3-6.4c0-2.5-0.8-4.6-2.3-6.5h1.1c1.5,1.8,2.3,4,2.3,6.5
				C135.4,99.5,134.7,101.7,133.2,103.4z"/>
		</g>
		<g class="st0">
			<path class="st2" d="M157.8,89.5l-3,10.5h-1.4l-2.2-7.7c-0.1-0.3-0.1-0.7-0.2-1.1h0c0,0.4-0.1,0.7-0.2,1.1l-2.2,7.7h-1.4
				l-3.1-10.5h1.4l2.2,8.1c0.1,0.3,0.2,0.7,0.2,1.1h0c0-0.3,0.1-0.6,0.2-1.1l2.3-8.1h1.2l2.2,8.1c0.1,0.3,0.1,0.6,0.2,1h0
				c0-0.3,0.1-0.6,0.2-1l2.1-8.1H157.8z"/>
			<path class="st2" d="M165.5,100h-1.2v-4.3c0-1.6-0.6-2.3-1.7-2.3c-0.6,0-1.1,0.2-1.5,0.7c-0.4,0.5-0.6,1-0.6,1.7v4.2h-1.2V88.9
				h1.2v4.8h0c0.6-0.9,1.4-1.4,2.5-1.4c1.7,0,2.5,1,2.5,3.1V100z"/>
			<path class="st2" d="M173.1,100h-1.2v-1.2h0c-0.5,0.9-1.3,1.3-2.3,1.3c-0.7,0-1.3-0.2-1.8-0.6c-0.4-0.4-0.6-0.9-0.6-1.6
				c0-1.4,0.8-2.2,2.5-2.4l2.2-0.3c0-1.3-0.5-1.9-1.5-1.9c-0.9,0-1.7,0.3-2.4,0.9V93c0.7-0.5,1.6-0.7,2.5-0.7c1.8,0,2.6,0.9,2.6,2.8
				V100z M171.9,96.2l-1.8,0.2c-0.6,0.1-1,0.2-1.3,0.4c-0.3,0.2-0.4,0.5-0.4,1.1c0,0.4,0.1,0.7,0.4,0.9c0.3,0.2,0.6,0.3,1,0.3
				c0.6,0,1.1-0.2,1.5-0.6c0.4-0.4,0.6-0.9,0.6-1.6V96.2z"/>
			<path class="st2" d="M178.8,99.9c-0.3,0.2-0.7,0.2-1.1,0.2c-1.3,0-2-0.7-2-2.2v-4.4h-1.3v-1h1.3v-1.8l1.2-0.4v2.2h1.9v1h-1.9v4.2
				c0,0.5,0.1,0.9,0.3,1.1s0.5,0.3,0.8,0.3c0.3,0,0.6-0.1,0.8-0.2V99.9z"/>
			<path class="st2" d="M181.9,89.3l-1,3.3H180l0.8-3.3H181.9z"/>
			<path class="st2" d="M183.4,99.7v-1.3c0.7,0.5,1.4,0.7,2.2,0.7c1.1,0,1.6-0.4,1.6-1.1c0-0.2,0-0.4-0.1-0.5
				c-0.1-0.1-0.2-0.3-0.4-0.4s-0.3-0.2-0.5-0.3c-0.2-0.1-0.4-0.2-0.7-0.3c-0.3-0.1-0.6-0.3-0.9-0.4c-0.3-0.1-0.5-0.3-0.6-0.5
				c-0.2-0.2-0.3-0.4-0.4-0.6c-0.1-0.2-0.1-0.5-0.1-0.8c0-0.4,0.1-0.7,0.2-0.9c0.2-0.3,0.4-0.5,0.6-0.7c0.3-0.2,0.6-0.3,0.9-0.4
				c0.3-0.1,0.7-0.1,1.1-0.1c0.7,0,1.2,0.1,1.7,0.3v1.2c-0.6-0.4-1.2-0.5-1.9-0.5c-0.2,0-0.4,0-0.6,0.1c-0.2,0.1-0.3,0.1-0.5,0.2
				c-0.1,0.1-0.2,0.2-0.3,0.3c-0.1,0.1-0.1,0.3-0.1,0.4c0,0.2,0,0.4,0.1,0.5c0.1,0.1,0.2,0.2,0.3,0.4c0.1,0.1,0.3,0.2,0.5,0.3
				c0.2,0.1,0.4,0.2,0.7,0.3c0.3,0.1,0.6,0.3,0.9,0.4c0.3,0.1,0.5,0.3,0.7,0.5c0.2,0.2,0.3,0.4,0.4,0.6c0.1,0.2,0.2,0.5,0.2,0.8
				c0,0.4-0.1,0.7-0.2,1c-0.2,0.3-0.4,0.5-0.7,0.7c-0.3,0.2-0.6,0.3-0.9,0.4s-0.7,0.1-1.1,0.1C184.6,100.2,184,100,183.4,99.7z"/>
			<path class="st2" d="M200.6,100h-1.2v-4.3c0-1.6-0.6-2.4-1.7-2.4c-0.6,0-1.1,0.2-1.5,0.7c-0.4,0.5-0.6,1-0.6,1.7v4.3h-1.2v-7.5
				h1.2v1.2h0c0.6-0.9,1.4-1.4,2.5-1.4c0.8,0,1.4,0.3,1.9,0.8c0.4,0.5,0.7,1.3,0.7,2.3V100z"/>
			<path class="st2" d="M208.9,96.6h-5.3c0,0.8,0.2,1.5,0.7,1.9c0.4,0.5,1,0.7,1.8,0.7c0.8,0,1.6-0.3,2.3-0.8v1.1
				c-0.7,0.5-1.5,0.7-2.6,0.7c-1.1,0-1.9-0.3-2.5-1c-0.6-0.7-0.9-1.6-0.9-2.9c0-1.2,0.3-2.1,1-2.9c0.7-0.7,1.5-1.1,2.5-1.1
				s1.7,0.3,2.3,1s0.8,1.5,0.8,2.6V96.6z M207.6,95.5c0-0.7-0.2-1.2-0.5-1.6c-0.3-0.4-0.8-0.6-1.4-0.6c-0.6,0-1,0.2-1.4,0.6
				s-0.6,0.9-0.7,1.6H207.6z"/>
			<path class="st2" d="M220.1,92.5l-2.2,7.5h-1.2l-1.5-5.4c-0.1-0.2-0.1-0.4-0.1-0.7h0c0,0.2-0.1,0.4-0.2,0.7l-1.7,5.4h-1.2
				l-2.3-7.5h1.3l1.6,5.6c0,0.2,0.1,0.4,0.1,0.7h0.1c0-0.2,0.1-0.4,0.1-0.7l1.7-5.6h1.1l1.6,5.7c0,0.2,0.1,0.4,0.1,0.7h0.1
				c0-0.2,0.1-0.4,0.1-0.7l1.5-5.7H220.1z"/>
		</g>
		<g transform="translate(422 81)">
			<g>
				<path id="emphasis-a" class="st3" d="M2,0h180c1.1,0,2,0.9,2,2v26c0,1.1-0.9,2-2,2H2c-1.1,0-2-0.9-2-2V2C0,0.9,0.9,0,2,0z"/>
			</g>
			<path class="st4" d="M2.5,0.5h179c1.1,0,2,0.9,2,2v25c0,1.1-0.9,2-2,2H2.5c-1.1,0-2-0.9-2-2v-25C0.5,1.4,1.4,0.5,2.5,0.5z"/>
			<g class="st0">
				<path class="st1" d="M17.5,19.6v-1.5c0.2,0.1,0.4,0.3,0.6,0.4c0.2,0.1,0.5,0.2,0.7,0.3c0.3,0.1,0.5,0.1,0.8,0.2s0.5,0.1,0.7,0.1
					c0.8,0,1.3-0.1,1.7-0.4c0.4-0.3,0.6-0.7,0.6-1.2c0-0.3-0.1-0.5-0.2-0.7c-0.1-0.2-0.3-0.4-0.5-0.6c-0.2-0.2-0.5-0.3-0.8-0.5
					c-0.3-0.2-0.6-0.3-1-0.5c-0.4-0.2-0.7-0.4-1-0.6c-0.3-0.2-0.6-0.4-0.8-0.6c-0.2-0.2-0.4-0.5-0.6-0.8c-0.1-0.3-0.2-0.6-0.2-1
					c0-0.5,0.1-0.9,0.3-1.2c0.2-0.4,0.5-0.6,0.8-0.9c0.3-0.2,0.7-0.4,1.2-0.5c0.4-0.1,0.9-0.2,1.3-0.2c1,0,1.8,0.1,2.3,0.4v1.4
					c-0.6-0.4-1.4-0.6-2.4-0.6c-0.3,0-0.5,0-0.8,0.1c-0.3,0.1-0.5,0.1-0.7,0.3c-0.2,0.1-0.4,0.3-0.5,0.5s-0.2,0.4-0.2,0.7
					c0,0.3,0,0.5,0.1,0.7c0.1,0.2,0.2,0.4,0.4,0.5s0.4,0.3,0.7,0.5c0.3,0.2,0.6,0.3,1,0.5c0.4,0.2,0.7,0.4,1.1,0.6s0.6,0.4,0.9,0.7
					c0.3,0.2,0.5,0.5,0.6,0.8c0.1,0.3,0.2,0.6,0.2,1c0,0.5-0.1,1-0.3,1.3c-0.2,0.4-0.5,0.7-0.8,0.9c-0.3,0.2-0.7,0.4-1.2,0.5
					c-0.4,0.1-0.9,0.2-1.4,0.2c-0.2,0-0.4,0-0.6,0c-0.2,0-0.5-0.1-0.7-0.1c-0.3-0.1-0.5-0.1-0.7-0.2C17.8,19.8,17.6,19.7,17.5,19.6z
					"/>
				<path class="st1" d="M32,20h-1.2v-4.3c0-1.6-0.6-2.3-1.7-2.3c-0.6,0-1.1,0.2-1.5,0.7c-0.4,0.5-0.6,1-0.6,1.7V20h-1.2V8.9H27v4.8
					h0c0.6-0.9,1.4-1.4,2.5-1.4c1.7,0,2.5,1,2.5,3.1V20z"/>
				<path class="st1" d="M37.4,20.2c-1.1,0-2-0.4-2.7-1.1c-0.7-0.7-1-1.6-1-2.8c0-1.3,0.3-2.2,1-3s1.6-1.1,2.8-1.1
					c1.1,0,2,0.3,2.6,1c0.6,0.7,0.9,1.6,0.9,2.9c0,1.2-0.3,2.2-1,2.9C39.4,19.8,38.5,20.2,37.4,20.2z M37.5,13.3
					c-0.8,0-1.4,0.3-1.8,0.8c-0.4,0.5-0.7,1.2-0.7,2.2c0,0.9,0.2,1.6,0.7,2.1c0.5,0.5,1.1,0.8,1.8,0.8c0.8,0,1.4-0.3,1.8-0.8
					c0.4-0.5,0.6-1.2,0.6-2.1c0-0.9-0.2-1.7-0.6-2.2C38.9,13.6,38.3,13.3,37.5,13.3z"/>
				<path class="st1" d="M52.5,12.5L50.3,20H49l-1.5-5.4c-0.1-0.2-0.1-0.4-0.1-0.7h0c0,0.2-0.1,0.4-0.2,0.7L45.5,20h-1.2L42,12.5
					h1.3l1.6,5.6c0,0.2,0.1,0.4,0.1,0.7H45c0-0.2,0.1-0.4,0.1-0.7l1.7-5.6H48l1.6,5.7c0,0.2,0.1,0.4,0.1,0.7h0.1
					c0-0.2,0.1-0.4,0.1-0.7l1.5-5.7H52.5z"/>
				<path class="st1" d="M65.9,15.8c0,2.9-1.3,4.4-4,4.4c-2.5,0-3.8-1.4-3.8-4.3V9.5h1.2v6.3c0,2.2,0.9,3.2,2.7,3.2
					c1.8,0,2.6-1,2.6-3.1V9.5h1.2V15.8z"/>
				<path class="st1" d="M69.5,18.9L69.5,18.9l0,4.5h-1.2V12.5h1.2v1.3h0c0.6-1,1.5-1.5,2.6-1.5c1,0,1.7,0.3,2.3,1
					c0.5,0.7,0.8,1.6,0.8,2.7c0,1.3-0.3,2.3-0.9,3c-0.6,0.8-1.4,1.1-2.5,1.1C70.8,20.2,70.1,19.8,69.5,18.9z M69.5,15.9v1
					c0,0.6,0.2,1.1,0.6,1.6c0.4,0.4,0.9,0.6,1.5,0.6c0.7,0,1.3-0.3,1.7-0.8C73.8,17.8,74,17,74,16c0-0.8-0.2-1.5-0.6-2
					c-0.4-0.5-0.9-0.7-1.6-0.7c-0.7,0-1.3,0.2-1.7,0.7C69.7,14.5,69.5,15.2,69.5,15.9z"/>
				<path class="st1" d="M83.5,20h-1.2v-1.3h0c-0.6,1-1.4,1.5-2.6,1.5c-0.9,0-1.7-0.3-2.3-1c-0.6-0.7-0.8-1.6-0.8-2.7
					c0-1.2,0.3-2.2,0.9-3c0.6-0.7,1.5-1.1,2.5-1.1c1,0,1.8,0.4,2.2,1.2h0V8.9h1.2V20z M82.3,16.6v-1.1c0-0.6-0.2-1.1-0.6-1.5
					s-0.9-0.6-1.5-0.6c-0.7,0-1.3,0.3-1.7,0.8s-0.6,1.3-0.6,2.2c0,0.9,0.2,1.5,0.6,2c0.4,0.5,0.9,0.8,1.6,0.8c0.7,0,1.2-0.2,1.6-0.7
					C82.1,18,82.3,17.3,82.3,16.6z"/>
				<path class="st1" d="M91.3,20h-1.2v-1.2h0c-0.5,0.9-1.3,1.3-2.3,1.3c-0.7,0-1.3-0.2-1.8-0.6c-0.4-0.4-0.6-0.9-0.6-1.6
					c0-1.4,0.8-2.2,2.5-2.4l2.2-0.3c0-1.3-0.5-1.9-1.5-1.9c-0.9,0-1.7,0.3-2.4,0.9V13c0.7-0.5,1.6-0.7,2.5-0.7
					c1.8,0,2.6,0.9,2.6,2.8V20z M90.1,16.2l-1.8,0.2c-0.6,0.1-1,0.2-1.3,0.4c-0.3,0.2-0.4,0.5-0.4,1.1c0,0.4,0.1,0.7,0.4,0.9
					c0.3,0.2,0.6,0.3,1,0.3c0.6,0,1.1-0.2,1.5-0.6c0.4-0.4,0.6-0.9,0.6-1.6V16.2z"/>
				<path class="st1" d="M97.1,19.9c-0.3,0.2-0.7,0.2-1.1,0.2c-1.3,0-2-0.7-2-2.2v-4.4h-1.3v-1H94v-1.8l1.2-0.4v2.2h1.9v1h-1.9v4.2
					c0,0.5,0.1,0.9,0.3,1.1s0.5,0.3,0.8,0.3c0.3,0,0.6-0.1,0.8-0.2V19.9z"/>
				<path class="st1" d="M104.7,16.6h-5.3c0,0.8,0.2,1.5,0.7,1.9c0.4,0.5,1,0.7,1.8,0.7c0.8,0,1.6-0.3,2.3-0.8v1.1
					c-0.7,0.5-1.5,0.7-2.6,0.7c-1.1,0-1.9-0.3-2.5-1c-0.6-0.7-0.9-1.6-0.9-2.9c0-1.2,0.3-2.1,1-2.9c0.7-0.7,1.5-1.1,2.5-1.1
					s1.7,0.3,2.3,1s0.8,1.5,0.8,2.6V16.6z M103.5,15.5c0-0.7-0.2-1.2-0.5-1.6c-0.3-0.4-0.8-0.6-1.4-0.6c-0.6,0-1,0.2-1.4,0.6
					s-0.6,0.9-0.7,1.6H103.5z"/>
				<path class="st1" d="M118.7,20h-1.2v-4.8H112V20h-1.2V9.5h1.2v4.6h5.4V9.5h1.2V20z"/>
				<path class="st1" d="M121.9,10.6c-0.2,0-0.4-0.1-0.5-0.2s-0.2-0.3-0.2-0.6s0.1-0.4,0.2-0.6c0.2-0.1,0.3-0.2,0.5-0.2
					c0.2,0,0.4,0.1,0.6,0.2c0.2,0.1,0.2,0.3,0.2,0.6c0,0.2-0.1,0.4-0.2,0.5C122.3,10.5,122.1,10.6,121.9,10.6z M122.5,20h-1.2v-7.5
					h1.2V20z"/>
				<path class="st1" d="M124.5,19.7v-1.3c0.7,0.5,1.4,0.7,2.2,0.7c1.1,0,1.6-0.4,1.6-1.1c0-0.2,0-0.4-0.1-0.5
					c-0.1-0.1-0.2-0.3-0.4-0.4c-0.2-0.1-0.3-0.2-0.5-0.3c-0.2-0.1-0.4-0.2-0.7-0.3c-0.3-0.1-0.6-0.3-0.9-0.4
					c-0.3-0.1-0.5-0.3-0.6-0.5c-0.2-0.2-0.3-0.4-0.4-0.6c-0.1-0.2-0.1-0.5-0.1-0.8c0-0.4,0.1-0.7,0.2-0.9c0.2-0.3,0.4-0.5,0.6-0.7
					c0.3-0.2,0.6-0.3,0.9-0.4c0.3-0.1,0.7-0.1,1.1-0.1c0.6,0,1.2,0.1,1.7,0.3v1.2c-0.6-0.4-1.2-0.5-1.9-0.5c-0.2,0-0.4,0-0.6,0.1
					c-0.2,0.1-0.3,0.1-0.5,0.2c-0.1,0.1-0.2,0.2-0.3,0.3c-0.1,0.1-0.1,0.3-0.1,0.4c0,0.2,0,0.4,0.1,0.5c0.1,0.1,0.2,0.2,0.3,0.4
					c0.1,0.1,0.3,0.2,0.5,0.3c0.2,0.1,0.4,0.2,0.7,0.3c0.3,0.1,0.6,0.3,0.9,0.4c0.3,0.1,0.5,0.3,0.7,0.5c0.2,0.2,0.3,0.4,0.4,0.6
					c0.1,0.2,0.1,0.5,0.1,0.8c0,0.4-0.1,0.7-0.2,1c-0.2,0.3-0.4,0.5-0.7,0.7c-0.3,0.2-0.6,0.3-0.9,0.4s-0.7,0.1-1.1,0.1
					C125.7,20.2,125,20,124.5,19.7z"/>
				<path class="st1" d="M134.8,19.9c-0.3,0.2-0.7,0.2-1.1,0.2c-1.3,0-2-0.7-2-2.2v-4.4h-1.3v-1h1.3v-1.8l1.2-0.4v2.2h1.9v1h-1.9
					v4.2c0,0.5,0.1,0.9,0.3,1.1s0.5,0.3,0.8,0.3c0.3,0,0.6-0.1,0.8-0.2V19.9z"/>
				<path class="st1" d="M139.5,20.2c-1.1,0-2-0.4-2.7-1.1c-0.7-0.7-1-1.6-1-2.8c0-1.3,0.3-2.2,1-3s1.6-1.1,2.8-1.1
					c1.1,0,2,0.3,2.6,1c0.6,0.7,0.9,1.6,0.9,2.9c0,1.2-0.3,2.2-1,2.9C141.5,19.8,140.6,20.2,139.5,20.2z M139.6,13.3
					c-0.8,0-1.4,0.3-1.8,0.8c-0.4,0.5-0.7,1.2-0.7,2.2c0,0.9,0.2,1.6,0.7,2.1c0.5,0.5,1.1,0.8,1.8,0.8c0.8,0,1.4-0.3,1.8-0.8
					c0.4-0.5,0.6-1.2,0.6-2.1c0-0.9-0.2-1.7-0.6-2.2C141,13.6,140.4,13.3,139.6,13.3z"/>
				<path class="st1" d="M149.1,13.7c-0.2-0.2-0.5-0.2-0.9-0.2c-0.5,0-0.9,0.2-1.3,0.7c-0.3,0.5-0.5,1.1-0.5,2V20h-1.2v-7.5h1.2V14
					h0c0.2-0.5,0.4-0.9,0.8-1.2c0.4-0.3,0.7-0.4,1.2-0.4c0.3,0,0.6,0,0.7,0.1V13.7z"/>
				<path class="st1" d="M156.3,12.5l-3.5,8.7c-0.6,1.6-1.5,2.3-2.6,2.3c-0.3,0-0.6,0-0.8-0.1v-1.1c0.3,0.1,0.5,0.1,0.7,0.1
					c0.6,0,1.1-0.4,1.4-1.1l0.6-1.4l-2.9-7.5h1.3l2,5.8c0,0.1,0.1,0.3,0.2,0.6h0c0-0.1,0.1-0.3,0.1-0.6l2.1-5.8H156.3z"/>
				<path class="st1" d="M158.2,20.1c-0.2,0-0.4-0.1-0.6-0.2s-0.2-0.3-0.2-0.6s0.1-0.4,0.2-0.6c0.2-0.2,0.3-0.2,0.6-0.2
					c0.2,0,0.4,0.1,0.6,0.2c0.2,0.2,0.2,0.4,0.2,0.6s-0.1,0.4-0.2,0.6S158.5,20.1,158.2,20.1z M161.9,20.1c-0.2,0-0.4-0.1-0.6-0.2
					c-0.2-0.2-0.2-0.3-0.2-0.6s0.1-0.4,0.2-0.6c0.2-0.2,0.4-0.2,0.6-0.2c0.2,0,0.4,0.1,0.6,0.2c0.2,0.2,0.2,0.4,0.2,0.6
					s-0.1,0.4-0.2,0.6C162.3,20.1,162.1,20.1,161.9,20.1z M165.6,20.1c-0.2,0-0.4-0.1-0.6-0.2c-0.2-0.2-0.2-0.3-0.2-0.6
					s0.1-0.4,0.2-0.6c0.2-0.2,0.3-0.2,0.6-0.2c0.2,0,0.4,0.1,0.6,0.2c0.2,0.2,0.2,0.4,0.2,0.6s-0.1,0.4-0.2,0.6
					C166,20.1,165.8,20.1,165.6,20.1z"/>
			</g>
		</g>
		<g transform="translate(422 119)">
			<g>
				<path id="emphasis-b" class="st3" d="M2,0h180c1.1,0,2,0.9,2,2v26c0,1.1-0.9,2-2,2H2c-1.1,0-2-0.9-2-2V2C0,0.9,0.9,0,2,0z"/>
			</g>
			<path class="st4" d="M2.5,0.5h179c1.1,0,2,0.9,2,2v25c0,1.1-0.9,2-2,2H2.5c-1.1,0-2-0.9-2-2v-25C0.5,1.4,1.4,0.5,2.5,0.5z"/>
			<g class="st0">
				<path class="st1" d="M39.6,19.6c-0.8,0.4-1.7,0.6-2.9,0.6c-1.5,0-2.7-0.5-3.6-1.4c-0.9-1-1.3-2.2-1.3-3.8c0-1.7,0.5-3,1.5-4.1
					s2.3-1.6,3.8-1.6c1,0,1.8,0.1,2.5,0.4v1.3c-0.8-0.4-1.6-0.6-2.5-0.6c-1.2,0-2.2,0.4-2.9,1.2c-0.7,0.8-1.1,1.9-1.1,3.2
					c0,1.3,0.4,2.3,1.1,3.1c0.7,0.8,1.6,1.1,2.8,1.1c1.1,0,2-0.2,2.7-0.7V19.6z"/>
				<path class="st1" d="M47.8,20h-1.2v-4.3c0-1.6-0.6-2.3-1.7-2.3c-0.6,0-1.1,0.2-1.5,0.7c-0.4,0.5-0.6,1-0.6,1.7V20h-1.2V8.9h1.2
					v4.8h0c0.6-0.9,1.4-1.4,2.5-1.4c1.7,0,2.5,1,2.5,3.1V20z"/>
				<path class="st1" d="M56.1,16.6h-5.3c0,0.8,0.2,1.5,0.7,1.9c0.4,0.5,1,0.7,1.8,0.7c0.8,0,1.6-0.3,2.3-0.8v1.1
					c-0.7,0.5-1.5,0.7-2.6,0.7c-1.1,0-1.9-0.3-2.5-1c-0.6-0.7-0.9-1.6-0.9-2.9c0-1.2,0.3-2.1,1-2.9c0.7-0.7,1.5-1.1,2.5-1.1
					s1.7,0.3,2.3,1s0.8,1.5,0.8,2.6V16.6z M54.9,15.5c0-0.7-0.2-1.2-0.5-1.6c-0.3-0.4-0.8-0.6-1.4-0.6c-0.6,0-1,0.2-1.4,0.6
					s-0.6,0.9-0.7,1.6H54.9z"/>
				<path class="st1" d="M63,19.7c-0.6,0.3-1.3,0.5-2.1,0.5c-1.1,0-1.9-0.3-2.6-1c-0.7-0.7-1-1.6-1-2.7c0-1.2,0.4-2.2,1.1-3
					c0.7-0.7,1.7-1.1,2.8-1.1c0.7,0,1.2,0.1,1.7,0.4v1.2c-0.6-0.4-1.2-0.6-1.8-0.6c-0.8,0-1.4,0.3-1.9,0.8c-0.5,0.5-0.7,1.3-0.7,2.2
					c0,0.9,0.2,1.6,0.7,2.1c0.5,0.5,1.1,0.8,1.9,0.8c0.7,0,1.3-0.2,1.8-0.7V19.7z"/>
				<path class="st1" d="M71.1,20h-1.7l-3.3-3.6h0V20h-1.2V8.9h1.2v7h0l3.1-3.4h1.6l-3.5,3.6L71.1,20z"/>
				<path class="st1" d="M80.1,10c-0.2-0.1-0.5-0.2-0.8-0.2c-0.8,0-1.3,0.5-1.3,1.6v1.2h1.8v1h-1.8V20h-1.2v-6.5h-1.3v-1h1.3v-1.2
					c0-0.8,0.2-1.4,0.7-1.9c0.5-0.5,1-0.7,1.7-0.7c0.4,0,0.7,0,0.9,0.1V10z"/>
				<path class="st1" d="M84.3,20.2c-1.1,0-2-0.4-2.7-1.1c-0.7-0.7-1-1.6-1-2.8c0-1.3,0.3-2.2,1-3s1.6-1.1,2.8-1.1
					c1.1,0,2,0.3,2.6,1C87.7,14,88,15,88,16.2c0,1.2-0.3,2.2-1,2.9C86.3,19.8,85.4,20.2,84.3,20.2z M84.3,13.3
					c-0.8,0-1.4,0.3-1.8,0.8c-0.4,0.5-0.7,1.2-0.7,2.2c0,0.9,0.2,1.6,0.7,2.1c0.5,0.5,1.1,0.8,1.8,0.8c0.8,0,1.4-0.3,1.8-0.8
					c0.4-0.5,0.6-1.2,0.6-2.1c0-0.9-0.2-1.7-0.6-2.2C85.7,13.6,85.1,13.3,84.3,13.3z"/>
				<path class="st1" d="M93.8,13.7c-0.2-0.2-0.5-0.2-0.9-0.2c-0.5,0-0.9,0.2-1.3,0.7c-0.3,0.5-0.5,1.1-0.5,2V20h-1.2v-7.5h1.2V14h0
					c0.2-0.5,0.4-0.9,0.8-1.2c0.4-0.3,0.7-0.4,1.2-0.4c0.3,0,0.6,0,0.7,0.1V13.7z"/>
				<path class="st1" d="M107.1,15.8c0,2.9-1.3,4.4-4,4.4c-2.5,0-3.8-1.4-3.8-4.3V9.5h1.2v6.3c0,2.2,0.9,3.2,2.7,3.2
					c1.8,0,2.6-1,2.6-3.1V9.5h1.2V15.8z"/>
				<path class="st1" d="M110.8,18.9L110.8,18.9l0,4.5h-1.2V12.5h1.2v1.3h0c0.6-1,1.5-1.5,2.6-1.5c1,0,1.7,0.3,2.3,1
					c0.5,0.7,0.8,1.6,0.8,2.7c0,1.3-0.3,2.3-0.9,3c-0.6,0.8-1.4,1.1-2.5,1.1C112,20.2,111.3,19.8,110.8,18.9z M110.7,15.9v1
					c0,0.6,0.2,1.1,0.6,1.6c0.4,0.4,0.9,0.6,1.5,0.6c0.7,0,1.3-0.3,1.7-0.8c0.4-0.6,0.6-1.3,0.6-2.3c0-0.8-0.2-1.5-0.6-2
					c-0.4-0.5-0.9-0.7-1.6-0.7c-0.7,0-1.3,0.2-1.7,0.7C111,14.5,110.7,15.2,110.7,15.9z"/>
				<path class="st1" d="M124.8,20h-1.2v-1.3h0c-0.6,1-1.4,1.5-2.6,1.5c-0.9,0-1.7-0.3-2.3-1c-0.6-0.7-0.8-1.6-0.8-2.7
					c0-1.2,0.3-2.2,0.9-3c0.6-0.7,1.5-1.1,2.5-1.1c1,0,1.8,0.4,2.2,1.2h0V8.9h1.2V20z M123.6,16.6v-1.1c0-0.6-0.2-1.1-0.6-1.5
					s-0.9-0.6-1.5-0.6c-0.7,0-1.3,0.3-1.7,0.8s-0.6,1.3-0.6,2.2c0,0.9,0.2,1.5,0.6,2c0.4,0.5,0.9,0.8,1.6,0.8c0.7,0,1.2-0.2,1.6-0.7
					C123.4,18,123.6,17.3,123.6,16.6z"/>
				<path class="st1" d="M132.6,20h-1.2v-1.2h0c-0.5,0.9-1.3,1.3-2.3,1.3c-0.7,0-1.3-0.2-1.8-0.6c-0.4-0.4-0.6-0.9-0.6-1.6
					c0-1.4,0.8-2.2,2.5-2.4l2.2-0.3c0-1.3-0.5-1.9-1.5-1.9c-0.9,0-1.7,0.3-2.4,0.9V13c0.7-0.5,1.6-0.7,2.5-0.7
					c1.8,0,2.6,0.9,2.6,2.8V20z M131.4,16.2l-1.8,0.2c-0.6,0.1-1,0.2-1.3,0.4c-0.3,0.2-0.4,0.5-0.4,1.1c0,0.4,0.1,0.7,0.4,0.9
					c0.3,0.2,0.6,0.3,1,0.3c0.6,0,1.1-0.2,1.5-0.6c0.4-0.4,0.6-0.9,0.6-1.6V16.2z"/>
				<path class="st1" d="M138.3,19.9c-0.3,0.2-0.7,0.2-1.1,0.2c-1.3,0-2-0.7-2-2.2v-4.4h-1.3v-1h1.3v-1.8l1.2-0.4v2.2h1.9v1h-1.9
					v4.2c0,0.5,0.1,0.9,0.3,1.1s0.5,0.3,0.8,0.3c0.3,0,0.6-0.1,0.8-0.2V19.9z"/>
				<path class="st1" d="M145.9,16.6h-5.3c0,0.8,0.2,1.5,0.7,1.9c0.4,0.5,1,0.7,1.8,0.7c0.8,0,1.6-0.3,2.3-0.8v1.1
					c-0.7,0.5-1.5,0.7-2.6,0.7c-1.1,0-1.9-0.3-2.5-1c-0.6-0.7-0.9-1.6-0.9-2.9c0-1.2,0.3-2.1,1-2.9c0.7-0.7,1.5-1.1,2.5-1.1
					s1.7,0.3,2.3,1s0.8,1.5,0.8,2.6V16.6z M144.7,15.5c0-0.7-0.2-1.2-0.5-1.6c-0.3-0.4-0.8-0.6-1.4-0.6c-0.6,0-1,0.2-1.4,0.6
					s-0.6,0.9-0.7,1.6H144.7z"/>
				<path class="st1" d="M147.3,19.7v-1.3c0.7,0.5,1.4,0.7,2.2,0.7c1.1,0,1.6-0.4,1.6-1.1c0-0.2,0-0.4-0.1-0.5
					c-0.1-0.1-0.2-0.3-0.4-0.4c-0.2-0.1-0.3-0.2-0.5-0.3c-0.2-0.1-0.4-0.2-0.7-0.3c-0.3-0.1-0.6-0.3-0.9-0.4
					c-0.3-0.1-0.5-0.3-0.6-0.5c-0.2-0.2-0.3-0.4-0.4-0.6c-0.1-0.2-0.1-0.5-0.1-0.8c0-0.4,0.1-0.7,0.2-0.9c0.2-0.3,0.4-0.5,0.6-0.7
					c0.3-0.2,0.6-0.3,0.9-0.4c0.3-0.1,0.7-0.1,1.1-0.1c0.6,0,1.2,0.1,1.7,0.3v1.2c-0.6-0.4-1.2-0.5-1.9-0.5c-0.2,0-0.4,0-0.6,0.1
					c-0.2,0.1-0.3,0.1-0.5,0.2c-0.1,0.1-0.2,0.2-0.3,0.3c-0.1,0.1-0.1,0.3-0.1,0.4c0,0.2,0,0.4,0.1,0.5c0.1,0.1,0.2,0.2,0.3,0.4
					c0.1,0.1,0.3,0.2,0.5,0.3c0.2,0.1,0.4,0.2,0.7,0.3c0.3,0.1,0.6,0.3,0.9,0.4c0.3,0.1,0.5,0.3,0.7,0.5c0.2,0.2,0.3,0.4,0.4,0.6
					c0.1,0.2,0.1,0.5,0.1,0.8c0,0.4-0.1,0.7-0.2,1c-0.2,0.3-0.4,0.5-0.7,0.7c-0.3,0.2-0.6,0.3-0.9,0.4s-0.7,0.1-1.1,0.1
					C148.5,20.2,147.9,20,147.3,19.7z"/>
			</g>
		</g>
		<g class="st0">
			<path class="st1" d="M35.3,130.4h-3.7v2.6H35v1.9h-3.4v4.1h-2.4v-10.5h6.1V130.4z"/>
			<path class="st1" d="M37.9,130.3c-0.4,0-0.7-0.1-1-0.3c-0.2-0.2-0.4-0.5-0.4-0.9c0-0.3,0.1-0.6,0.4-0.8s0.6-0.3,1-0.3
				c0.4,0,0.7,0.1,1,0.3c0.2,0.2,0.4,0.5,0.4,0.8c0,0.4-0.1,0.6-0.4,0.9C38.7,130.2,38.3,130.3,37.9,130.3z M39.1,139h-2.3v-7.5h2.3
				V139z"/>
			<path class="st1" d="M45.9,133.6c-0.3-0.2-0.6-0.2-1-0.2c-0.5,0-0.9,0.2-1.2,0.6c-0.3,0.4-0.4,0.9-0.4,1.5v3.6H41v-7.5h2.3v1.4h0
				c0.4-1,1-1.5,2-1.5c0.2,0,0.4,0,0.6,0.1V133.6z"/>
			<path class="st1" d="M53.7,135.9h-4.9c0.1,1.1,0.8,1.6,2.1,1.6c0.8,0,1.6-0.2,2.2-0.6v1.7c-0.7,0.4-1.6,0.6-2.7,0.6
				c-1.2,0-2.2-0.3-2.8-1c-0.7-0.7-1-1.6-1-2.8c0-1.2,0.4-2.2,1.1-3s1.6-1.1,2.7-1.1c1.1,0,1.9,0.3,2.5,1c0.6,0.6,0.9,1.5,0.9,2.6
				V135.9z M51.5,134.5c0-1.1-0.4-1.6-1.3-1.6c-0.4,0-0.7,0.2-1,0.5c-0.3,0.3-0.4,0.7-0.5,1.2H51.5z"/>
			<path class="st1" d="M60,129.7c-0.3-0.1-0.6-0.2-0.9-0.2c-0.7,0-1.1,0.4-1.1,1.2v0.8h1.7v1.7H58v5.8h-2.3v-5.8h-1.3v-1.7h1.3
				v-0.9c0-0.9,0.3-1.5,0.8-2.1c0.6-0.5,1.3-0.8,2.3-0.8c0.5,0,0.9,0,1.2,0.1V129.7z"/>
			<path class="st1" d="M64.4,139.2c-1.2,0-2.2-0.4-2.9-1.1c-0.7-0.7-1.1-1.7-1.1-2.9c0-1.2,0.4-2.2,1.1-2.9c0.7-0.7,1.7-1.1,3-1.1
				c1.2,0,2.2,0.4,2.9,1.1c0.7,0.7,1.1,1.6,1.1,2.8c0,1.2-0.4,2.2-1.1,3C66.7,138.8,65.7,139.2,64.4,139.2z M64.4,133.1
				c-0.5,0-1,0.2-1.3,0.6s-0.5,0.9-0.5,1.6c0,1.4,0.6,2.2,1.7,2.2c1.1,0,1.7-0.7,1.7-2.2C66.1,133.8,65.6,133.1,64.4,133.1z"/>
			<path class="st1" d="M76.9,131.5l-2.5,3.6l2.5,3.9h-2.7l-1.1-2c-0.1-0.2-0.2-0.4-0.3-0.7h0c-0.1,0.2-0.2,0.4-0.3,0.7l-1.1,2h-2.7
				l2.5-3.7l-2.4-3.8h2.7l1.1,2.1c0.1,0.3,0.2,0.5,0.3,0.7h0c0.1-0.2,0.2-0.5,0.3-0.7l1.1-2.1H76.9z"/>
			<path class="st1" d="M83.3,130.3c-0.4,0-0.7-0.1-1-0.3c-0.2-0.2-0.4-0.5-0.4-0.9c0-0.3,0.1-0.6,0.4-0.8s0.6-0.3,1-0.3
				c0.4,0,0.7,0.1,1,0.3c0.2,0.2,0.4,0.5,0.4,0.8c0,0.4-0.1,0.6-0.4,0.9C84,130.2,83.7,130.3,83.3,130.3z M84.4,139h-2.3v-7.5h2.3
				V139z"/>
			<path class="st1" d="M85.9,138.8v-1.9c0.4,0.2,0.8,0.4,1.1,0.5c0.4,0.1,0.7,0.2,1.1,0.2c0.4,0,0.7-0.1,1-0.2
				c0.2-0.1,0.4-0.3,0.4-0.5c0-0.1-0.1-0.3-0.2-0.4c-0.1-0.1-0.2-0.2-0.4-0.3c-0.2-0.1-0.4-0.1-0.6-0.2s-0.4-0.1-0.6-0.2
				c-0.3-0.1-0.6-0.2-0.8-0.4c-0.2-0.1-0.4-0.3-0.6-0.5c-0.2-0.2-0.3-0.4-0.4-0.6c-0.1-0.2-0.1-0.5-0.1-0.8c0-0.4,0.1-0.8,0.3-1.1
				c0.2-0.3,0.4-0.6,0.7-0.7c0.3-0.2,0.7-0.3,1-0.4c0.4-0.1,0.8-0.1,1.2-0.1c0.3,0,0.7,0,1,0.1c0.3,0.1,0.7,0.1,1,0.2v1.8
				c-0.3-0.2-0.6-0.3-0.9-0.4c-0.3-0.1-0.7-0.1-1-0.1c-0.2,0-0.3,0-0.4,0c-0.1,0-0.3,0.1-0.4,0.1c-0.1,0.1-0.2,0.1-0.2,0.2
				c-0.1,0.1-0.1,0.2-0.1,0.3c0,0.1,0,0.3,0.1,0.4s0.2,0.2,0.3,0.3c0.1,0.1,0.3,0.1,0.5,0.2c0.2,0.1,0.3,0.1,0.5,0.2
				c0.3,0.1,0.6,0.2,0.8,0.4s0.5,0.3,0.6,0.4c0.2,0.2,0.3,0.4,0.4,0.6c0.1,0.2,0.1,0.5,0.1,0.8c0,0.4-0.1,0.8-0.3,1.1
				c-0.2,0.3-0.4,0.6-0.8,0.8c-0.3,0.2-0.7,0.3-1.1,0.4c-0.4,0.1-0.9,0.1-1.3,0.1C87.3,139.2,86.6,139.1,85.9,138.8z"/>
			<path class="st1" d="M104.2,139h-2.3v-1.1h0c-0.6,0.9-1.3,1.3-2.3,1.3c-1.7,0-2.6-1.1-2.6-3.2v-4.5h2.3v4.3
				c0,1.1,0.4,1.6,1.3,1.6c0.4,0,0.7-0.1,1-0.4c0.2-0.3,0.4-0.7,0.4-1.2v-4.3h2.3V139z"/>
			<path class="st1" d="M108.5,138.1L108.5,138.1l0,4.3h-2.3v-10.9h2.3v1.1h0c0.6-0.9,1.4-1.3,2.4-1.3c1,0,1.7,0.3,2.3,1
				c0.5,0.7,0.8,1.6,0.8,2.7c0,1.3-0.3,2.3-0.9,3s-1.4,1.1-2.5,1.1C109.7,139.2,109,138.8,108.5,138.1z M108.5,135.1v0.6
				c0,0.5,0.1,0.9,0.4,1.3s0.6,0.5,1.1,0.5c0.5,0,0.9-0.2,1.2-0.6c0.3-0.4,0.4-1,0.4-1.7c0-1.3-0.5-2-1.5-2c-0.5,0-0.9,0.2-1.2,0.5
				C108.6,134,108.5,134.5,108.5,135.1z"/>
			<path class="st1" d="M124.2,138.9c-0.3,0.2-0.9,0.3-1.5,0.3c-1.6,0-2.4-0.8-2.4-2.5v-3.4h-1.2v-1.7h1.2v-1.6l2.3-0.7v2.3h1.7v1.7
				h-1.7v3c0,0.8,0.3,1.2,0.9,1.2c0.2,0,0.5-0.1,0.8-0.2V138.9z"/>
			<path class="st1" d="M129,139.2c-1.2,0-2.2-0.4-2.9-1.1c-0.7-0.7-1.1-1.7-1.1-2.9c0-1.2,0.4-2.2,1.1-2.9c0.7-0.7,1.7-1.1,3-1.1
				c1.2,0,2.2,0.4,2.9,1.1c0.7,0.7,1.1,1.6,1.1,2.8c0,1.2-0.4,2.2-1.1,3C131.2,138.8,130.2,139.2,129,139.2z M129,133.1
				c-0.5,0-1,0.2-1.3,0.6s-0.5,0.9-0.5,1.6c0,1.4,0.6,2.2,1.7,2.2c1.1,0,1.7-0.7,1.7-2.2C130.7,133.8,130.1,133.1,129,133.1z"/>
			<path class="st1" d="M146,139h-2.3v-1h0c-0.5,0.8-1.3,1.2-2.3,1.2c-0.9,0-1.7-0.3-2.3-1c-0.6-0.7-0.9-1.6-0.9-2.8
				c0-1.2,0.3-2.2,0.9-3s1.5-1.1,2.5-1.1c1,0,1.6,0.3,2,1h0v-4.5h2.3V139z M143.8,135.4v-0.6c0-0.5-0.1-0.9-0.4-1.2
				s-0.7-0.5-1.1-0.5c-0.5,0-0.9,0.2-1.2,0.6c-0.3,0.4-0.4,1-0.4,1.7c0,0.7,0.1,1.2,0.4,1.5s0.7,0.5,1.2,0.5c0.5,0,0.9-0.2,1.1-0.6
				C143.6,136.5,143.8,136,143.8,135.4z"/>
			<path class="st1" d="M154.2,139H152v-1.1h0c-0.5,0.8-1.2,1.3-2.2,1.3c-0.7,0-1.3-0.2-1.7-0.6c-0.4-0.4-0.6-1-0.6-1.7
				c0-1.5,0.9-2.3,2.6-2.5l2-0.3c0-0.8-0.4-1.2-1.3-1.2c-0.9,0-1.7,0.3-2.5,0.8v-1.7c0.3-0.2,0.8-0.3,1.3-0.4
				c0.6-0.1,1.1-0.2,1.5-0.2c2.1,0,3.2,1.1,3.2,3.2V139z M152.1,136v-0.5l-1.4,0.2c-0.8,0.1-1.1,0.4-1.1,1c0,0.3,0.1,0.5,0.3,0.6
				c0.2,0.2,0.4,0.3,0.7,0.3c0.4,0,0.8-0.2,1.1-0.5C151.9,136.8,152.1,136.4,152.1,136z"/>
			<path class="st1" d="M160.6,138.9c-0.3,0.2-0.9,0.3-1.5,0.3c-1.6,0-2.4-0.8-2.4-2.5v-3.4h-1.2v-1.7h1.2v-1.6l2.3-0.7v2.3h1.7v1.7
				h-1.7v3c0,0.8,0.3,1.2,0.9,1.2c0.2,0,0.5-0.1,0.8-0.2V138.9z"/>
			<path class="st1" d="M168.6,135.9h-4.9c0.1,1.1,0.8,1.6,2.1,1.6c0.8,0,1.6-0.2,2.2-0.6v1.7c-0.7,0.4-1.6,0.6-2.7,0.6
				c-1.2,0-2.2-0.3-2.8-1c-0.7-0.7-1-1.6-1-2.8c0-1.2,0.4-2.2,1.1-3s1.6-1.1,2.7-1.1c1.1,0,1.9,0.3,2.5,1s0.9,1.5,0.9,2.6V135.9z
				 M166.4,134.5c0-1.1-0.4-1.6-1.3-1.6c-0.4,0-0.7,0.2-1,0.5c-0.3,0.3-0.4,0.7-0.5,1.2H166.4z"/>
		</g>
		<g transform="translate(0 124.8)">
			<path class="st5" d="M10,0c-5,0-9,4-9,9c0,0.1,0,0.3,0,0.4C0.4,9.5,0,9.9,0,10.5c0,0.6,0.5,1.1,1.1,1.1h0.2
				C2.4,15.3,5.8,18,10,18c5,0,9-4,9-9C19,4,14.9,0,10,0"/>
			<path class="st6" d="M14.4,5.9c0.5,0,1,0.4,1,1v2.2c0,0.5-0.4,0.1-1,0.1c-0.5,0-1,0.4-1-0.1V6.9C13.5,6.3,13.9,5.9,14.4,5.9"/>
			<path class="st7" d="M13.5,9.7c-0.1,0-0.2-0.1-0.3-0.2c-0.1-0.2,0-0.3,0.1-0.4c0.7-0.3,1.4-0.3,2.1,0c0.2,0.1,0.2,0.3,0.1,0.4
				c-0.1,0.2-0.3,0.2-0.4,0.1c-0.5-0.2-1-0.2-1.5,0C13.6,9.6,13.6,9.7,13.5,9.7"/>
			<path class="st6" d="M5.5,5.9c0.5,0,1,0.4,1,1v2.2c0,0.5-0.4,0.1-1,0.1c-0.5,0-1,0.4-1-0.1V6.9C4.5,6.3,4.9,5.9,5.5,5.9"/>
			<path class="st7" d="M4.6,9.7c-0.1,0-0.2-0.1-0.3-0.2c-0.1-0.2,0-0.3,0.1-0.4c0.7-0.3,1.4-0.3,2.1,0c0.2,0.1,0.2,0.3,0.1,0.4
				C6.6,9.6,6.4,9.7,6.2,9.6c-0.5-0.2-1-0.2-1.5,0C4.7,9.6,4.6,9.7,4.6,9.7"/>
			<path class="st6" d="M16.1,11.6c-0.2,0-0.4,0-0.6,0c-0.1,0-0.2,0.1-0.4,0.1c-0.3,0-0.7,0.1-1.2,0.2c-0.5,0-1.1,0.1-1.8,0.2
				c-0.6,0-1.3,0.1-2,0.1c-0.7,0-1.4,0-2-0.1c-0.6,0-1.2-0.1-1.8-0.2c-0.5,0-0.9-0.2-1.2-0.2c-0.2,0-0.4-0.1-0.5-0.1
				c-0.2,0-0.4,0-0.6,0c0,0,0,0-0.1,0c-0.1,0-0.1,0.2,0,0.2L3.8,12c0.3,0.4,0.5,0.7,0.8,1c0.3,0.3,0.5,0.5,0.8,0.8
				c0.5,0.4,1,0.8,1.5,1.1C7,14.9,7.2,15,7.3,15c0.8-0.5,1.7,0.2,2.6,0.2c1,0,1.9-0.7,2.6-0.2c0.1-0.1,0.3-0.1,0.4-0.2
				c0.5-0.3,1-0.6,1.5-1.1c0.3-0.2,0.5-0.5,0.8-0.8c0.3-0.3,0.5-0.6,0.8-1l0.1-0.2c0,0,0,0,0-0.1C16.2,11.7,16.1,11.6,16.1,11.6"/>
			<path class="st3" d="M6.2,11.9c0.5,0,1.1,0.1,1.8,0.2c0.6,0,1.3,0.1,2,0.1c0.7,0,1.4,0,2-0.1c0.6,0,1.2-0.1,1.8-0.2
				c0.5,0,0.9-0.2,1.2-0.2c0.2,0,0.4-0.1,0.4-0.1c-0.3,0-0.6,0-0.9-0.1L13,11.5c-1,0-2,0-3.1,0c-1,0-2,0-3.1,0l-1.5,0.1
				c-0.3,0-0.6,0-0.9,0.1c0.1,0,0.2,0.1,0.4,0.1C5.2,11.7,5.7,11.8,6.2,11.9"/>
			<path class="st7" d="M19,9.4c0-0.1,0-0.3,0-0.4c0-2.4-0.9-4.6-2.5-6.2c0.9,1.4,1.4,3.1,1.4,4.9c0,5.1-4.2,9.3-9.3,9.3
				c-1.8,0-3.4-0.5-4.9-1.4C5.3,17.1,7.5,18,9.9,18c4.1,0,7.6-2.7,8.7-6.5h0.2c0.6,0,1.1-0.5,1.1-1.1C19.9,9.9,19.5,9.5,19,9.4"/>
			<path class="st8" d="M12.6,15.1C12.6,15.1,12.6,15.1,12.6,15.1c-0.8-0.5-1.7-0.4-2.6-0.3h0h0c-1-0.1-1.9-0.3-2.6,0.2c0,0,0,0,0,0
				c0,0,0,0,0,0c0.9,0.4,1.7,0.6,2.6,0.6c0,0,0,0,0,0h0h0c0,0,0,0,0,0C10.9,15.6,11.7,15.4,12.6,15.1C12.6,15.1,12.6,15.1,12.6,15.1
				"/>
		</g>
	</g>
	<g transform="translate(410 51)">
		<path class="st9" d="M6,0h105c1.1,0,2,0.9,2,2v18c0,1.1-0.9,2-2,2H6c-1.1,0-2-0.9-2-2V2C4,0.9,4.9,0,6,0z"/>
		<polygon class="st9" points="0,11 4,7 8,11 4,15 		"/>
		<g class="st0">
			<path class="st3" d="M10.8,10.3h3v1h-3v2.6h3.7V15h-5V6.7h5l-0.2,1.1h-3.4V10.3z"/>
			<path class="st3" d="M22,10.3V15h-1.2v-4.5c0-0.7,0-0.9-0.4-0.9c-0.3,0-0.6,0.2-0.9,0.6V15h-1.1v-4.5c0-0.7,0-0.9-0.4-0.9
				c-0.3,0-0.6,0.2-0.9,0.6V15h-1.2V8.7h1l0.1,0.7c0.4-0.5,0.7-0.9,1.4-0.9c0.5,0,0.9,0.2,1.1,0.8c0.4-0.5,0.8-0.8,1.4-0.8
				C21.5,8.5,22,8.9,22,10.3z"/>
			<path class="st3" d="M29,11.8c0,1.9-0.8,3.3-2.4,3.3c-0.7,0-1.2-0.2-1.6-0.7v3l-1.3,0.2V8.7h1.2l0.1,0.8c0.5-0.6,1.1-1,1.8-1
				C28.3,8.5,29,9.8,29,11.8z M24.9,10.4v3c0.3,0.5,0.7,0.7,1.2,0.7c0.9,0,1.4-0.7,1.4-2.3c0-1.6-0.4-2.3-1.3-2.3
				C25.7,9.5,25.2,10,24.9,10.4z"/>
			<path class="st3" d="M32.1,9.4c0.5-0.6,1.2-0.9,2-0.9c1.2,0,1.8,0.7,1.8,1.9V15h-1.3v-4.4c0-0.8-0.3-1.1-0.9-1.1
				c-0.6,0-1.1,0.5-1.5,0.9V15h-1.3V6.1L32.1,6V9.4z"/>
			<path class="st3" d="M43.3,14.2L43,15.2c-0.6-0.1-1.1-0.3-1.3-0.9c-0.5,0.6-1.2,0.9-2,0.9c-1.3,0-2.1-0.8-2.1-2
				c0-1.3,1.1-2.1,3-2.1h0.9v-0.4c0-0.8-0.5-1.2-1.4-1.2c-0.4,0-1,0.1-1.7,0.3l-0.3-0.9c0.8-0.3,1.6-0.4,2.2-0.4
				c1.7,0,2.5,0.8,2.5,2.1v2.8C42.8,13.9,43,14.1,43.3,14.2z M41.5,13.4V12h-0.7c-1.3,0-1.8,0.4-1.8,1.2c0,0.7,0.4,1,1.1,1
				C40.6,14.2,41.2,13.9,41.5,13.4z"/>
			<path class="st3" d="M48.8,13.3c0-0.5-0.2-0.8-1.5-1.1c-1.3-0.3-2.1-0.8-2.1-1.9c0-1.1,1-1.8,2.5-1.8c1.1,0,1.8,0.3,2.4,0.7
				l-0.6,0.9c-0.5-0.3-1.1-0.6-1.8-0.6c-0.9,0-1.2,0.3-1.2,0.7c0,0.5,0.3,0.7,1.6,1c1.2,0.3,2.1,0.8,2.1,2c0,1.4-1.3,2-2.8,2
				c-1.2,0-2-0.4-2.6-0.9l0.7-0.8c0.5,0.4,1.2,0.7,1.9,0.7C48.3,14.1,48.8,13.8,48.8,13.3z"/>
			<path class="st3" d="M55.8,14h1.7v1h-5v-1h1.9V9.7h-1.8v-1h3.2V14z M55.8,6.4c0,0.5-0.4,0.8-0.9,0.8c-0.5,0-0.9-0.4-0.9-0.8
				c0-0.5,0.3-0.9,0.9-0.9C55.4,5.6,55.8,5.9,55.8,6.4z"/>
			<path class="st3" d="M63.2,13.3c0-0.5-0.2-0.8-1.5-1.1c-1.3-0.3-2.1-0.8-2.1-1.9c0-1.1,1-1.8,2.5-1.8c1.1,0,1.8,0.3,2.4,0.7
				L64,10.1c-0.5-0.3-1.1-0.6-1.8-0.6c-0.9,0-1.2,0.3-1.2,0.7c0,0.5,0.3,0.7,1.6,1c1.2,0.3,2.1,0.8,2.1,2c0,1.4-1.3,2-2.8,2
				c-1.2,0-2-0.4-2.6-0.9l0.7-0.8c0.5,0.4,1.2,0.7,1.9,0.7C62.7,14.1,63.2,13.8,63.2,13.3z"/>
			<path class="st3" d="M77.6,13.3c0-0.5-0.2-0.8-1.5-1.1c-1.3-0.3-2.1-0.8-2.1-1.9c0-1.1,1-1.8,2.5-1.8c1.1,0,1.8,0.3,2.4,0.7
				l-0.6,0.9c-0.5-0.3-1.1-0.6-1.8-0.6c-0.9,0-1.2,0.3-1.2,0.7c0,0.5,0.3,0.7,1.6,1c1.2,0.3,2.1,0.8,2.1,2c0,1.4-1.3,2-2.8,2
				c-1.2,0-2-0.4-2.6-0.9l0.7-0.8c0.5,0.4,1.2,0.7,1.9,0.7C77.1,14.1,77.6,13.8,77.6,13.3z"/>
			<path class="st3" d="M84.6,15.2c-1.5,0-2.3-0.8-2.3-2.1V9.7H81v-1h1.4V7.3l1.3-0.2v1.6h2.1l-0.2,1h-2v3.4c0,0.7,0.3,1,1.1,1
				c0.5,0,0.9-0.1,1.2-0.3l0.5,0.9C86,15,85.3,15.2,84.6,15.2z"/>
			<path class="st3" d="M91.7,15c-0.5,1.4-1.3,2.4-3.1,2.6l-0.2-1c1.3-0.2,1.7-0.7,2-1.6H90l-2.1-6.3h1.4l1.6,5.4l1.6-5.4h1.4
				L91.7,15z"/>
			<path class="st3" d="M98.3,13.3c0,0.6,0.4,0.8,1,0.8c0.4,0,0.7-0.1,1-0.2l0.3,0.9c-0.4,0.2-0.9,0.4-1.6,0.4c-1.3,0-2-0.8-2-2v-6
				h-1.9v-1h3.3V13.3z"/>
			<path class="st3" d="M105.6,14.1c0.6,0,1.1-0.2,1.7-0.6l0.6,0.8c-0.6,0.5-1.4,0.8-2.3,0.8c-2,0-3.1-1.3-3.1-3.3
				c0-1.9,1.1-3.3,2.9-3.3c1.7,0,2.7,1.2,2.7,3.2c0,0.2,0,0.4,0,0.6h-4.2C104,13.6,104.7,14.1,105.6,14.1z M103.9,11.4h2.9
				c0-1.2-0.5-1.9-1.4-1.9C104.6,9.5,104,10.1,103.9,11.4z"/>
		</g>
	</g>
</g>
</svg>
