<?xml version="1.0" encoding="utf-8"?>
<!-- Generator: Adobe Illustrator 21.1.0, SVG Export Plug-In . SVG Version: 6.00 Build 0)  -->
<svg version="1.1" id="Layer_1" xmlns="http://www.w3.org/2000/svg" xmlns:xlink="http://www.w3.org/1999/xlink" x="0px" y="0px"
	 viewBox="0 0 752 147" style="enable-background:new 0 0 752 147;" xml:space="preserve">
<style type="text/css">
	.st0{filter:url(#Adobe_OpacityMaskFilter);}
	.st1{fill:#FFFFFF;}
	.st2{fill:#0A84FF;}
	.st3{enable-background:new    ;}
</style>
<g>
	<g transform="translate(14)">
		<defs>
			<filter id="Adobe_OpacityMaskFilter" filterUnits="userSpaceOnUse" x="-135" y="-2115" width="1366" height="2673">
				<feColorMatrix  type="matrix" values="1 0 0 0 0  0 1 0 0 0  0 0 1 0 0  0 0 0 1 0"/>
			</filter>
		</defs>
		<mask maskUnits="userSpaceOnUse" x="-135" y="-2115" width="1366" height="2673" id="pairing2-b">
			<g class="st0">
				<path id="pairing2-a" class="st1" d="M2,0h720c1.1,0,2,0.9,2,2v143c0,1.1-0.9,2-2,2H2c-1.1,0-2-0.9-2-2V2C0,0.9,0.9,0,2,0z"/>
			</g>
		</mask>
		<g style="mask:url(#pairing2-b);enable-background:new    ;">
			
				<image style="overflow:visible;" width="1366" height="2673" xlink:href="AB9FDE3A4659D329.png"  transform="matrix(1 0 0 1 -135 -2115)">
			</image>
		</g>
	</g>
	<g transform="translate(150 22)">
		<path class="st2" d="M2,0h63c1.1,0,2,0.9,2,2v18c0,1.1-0.9,2-2,2H2c-1.1,0-2-0.9-2-2V2C0,0.9,0.9,0,2,0z"/>
		<polygon class="st2" points="63,11 67,7 71,11 67,15 		"/>
		<g class="st3">
			<path class="st1" d="M9,15H7.6V7.9H5.1V6.7h6.4l-0.1,1.1H9V15z"/>
			<path class="st1" d="M16.4,14h1.7v1h-5v-1h1.9V9.7h-1.8v-1h3.2V14z M16.4,6.4c0,0.5-0.4,0.8-0.9,0.8c-0.5,0-0.9-0.4-0.9-0.8
				c0-0.5,0.3-0.9,0.9-0.9C16,5.6,16.4,5.9,16.4,6.4z"/>
			<path class="st1" d="M23.6,15.2c-1.5,0-2.3-0.8-2.3-2.1V9.7H20v-1h1.4V7.3l1.3-0.2v1.6h2.1l-0.2,1h-2v3.4c0,0.7,0.3,1,1.1,1
				c0.5,0,0.9-0.1,1.2-0.3l0.5,0.9C25,15,24.3,15.2,23.6,15.2z"/>
			<path class="st1" d="M30.1,13.3c0,0.6,0.4,0.8,1,0.8c0.4,0,0.7-0.1,1-0.2l0.3,0.9c-0.4,0.2-0.9,0.4-1.6,0.4c-1.3,0-2-0.8-2-2v-6
				h-1.9v-1h3.3V13.3z"/>
			<path class="st1" d="M37.4,14.1c0.6,0,1.1-0.2,1.7-0.6l0.6,0.8c-0.6,0.5-1.4,0.8-2.3,0.8c-2,0-3.1-1.3-3.1-3.3
				c0-1.9,1.1-3.3,2.9-3.3c1.7,0,2.7,1.2,2.7,3.2c0,0.2,0,0.4,0,0.6h-4.2C35.8,13.6,36.5,14.1,37.4,14.1z M35.7,11.4h2.9
				c0-1.2-0.5-1.9-1.4-1.9C36.4,9.5,35.8,10.1,35.7,11.4z"/>
			<path class="st1" d="M53.8,8.7c0,1-0.7,1.7-1.6,1.9c1,0.1,1.9,0.7,1.9,2c0,1.4-1.2,2.5-3,2.5c-1,0-2-0.4-2.7-1.2l0.8-0.7
				c0.5,0.6,1.1,0.8,1.8,0.8c1,0,1.7-0.6,1.7-1.5c0-1.1-0.7-1.5-1.6-1.5h-0.7l0.2-1H51c0.8,0,1.5-0.4,1.5-1.3c0-0.8-0.6-1.2-1.4-1.2
				c-0.7,0-1.2,0.3-1.7,0.7l-0.7-0.8c0.7-0.7,1.6-1,2.5-1C52.8,6.6,53.8,7.5,53.8,8.7z"/>
			<path class="st1" d="M61.5,10.9c0,2.7-1,4.3-2.8,4.3s-2.8-1.6-2.8-4.3c0-2.7,1-4.3,2.8-4.3S61.5,8.1,61.5,10.9z M57.2,10.9
				c0,2.4,0.5,3.3,1.5,3.3c0.9,0,1.5-0.9,1.5-3.3c0-2.4-0.5-3.3-1.5-3.3S57.2,8.5,57.2,10.9z M59.5,10.9c0,0.4-0.3,0.8-0.8,0.8
				c-0.4,0-0.8-0.3-0.8-0.8c0-0.4,0.3-0.8,0.8-0.8C59.2,10.1,59.5,10.4,59.5,10.9z"/>
		</g>
	</g>
	<g transform="translate(158 69)">
		<path class="st2" d="M2,0h55c1.1,0,2,0.9,2,2v18c0,1.1-0.9,2-2,2H2c-1.1,0-2-0.9-2-2V2C0,0.9,0.9,0,2,0z"/>
		<polygon class="st2" points="55,11 59,7 63,11 59,15 		"/>
		<g class="st3">
			<path class="st1" d="M7.7,15H5.3V6.7h2.3c1.5,0,3,0.5,3,2.1c0,1-0.7,1.6-1.5,1.8c0.9,0.2,1.9,0.6,1.9,2C10.9,14.5,9.3,15,7.7,15z
				 M7.7,7.8h-1v2.4h1.1c0.9,0,1.4-0.4,1.4-1.2C9.1,8.1,8.6,7.8,7.7,7.8z M7.8,11.2H6.7v2.7h1.1c0.8,0,1.7-0.2,1.7-1.3
				C9.5,11.5,8.8,11.2,7.8,11.2z"/>
			<path class="st1" d="M18,11.8c0,2-1,3.3-2.9,3.3c-1.8,0-2.9-1.3-2.9-3.3c0-2,1-3.3,2.9-3.3C17,8.5,18,9.8,18,11.8z M13.6,11.8
				c0,1.6,0.5,2.3,1.5,2.3c1,0,1.5-0.7,1.5-2.3c0-1.6-0.5-2.3-1.4-2.3C14.1,9.5,13.6,10.3,13.6,11.8z"/>
			<path class="st1" d="M24.8,6.1V15h-1.2l-0.1-0.8c-0.4,0.6-1,0.9-1.8,0.9c-1.6,0-2.4-1.3-2.4-3.3c0-1.9,0.9-3.3,2.5-3.3
				c0.7,0,1.2,0.2,1.6,0.7V6L24.8,6.1z M20.8,11.8c0,1.6,0.5,2.3,1.3,2.3c0.6,0,1-0.4,1.4-0.9v-3c-0.3-0.4-0.7-0.7-1.2-0.7
				C21.3,9.5,20.8,10.3,20.8,11.8z"/>
			<path class="st1" d="M30.3,15c-0.5,1.4-1.3,2.4-3.1,2.6l-0.2-1c1.3-0.2,1.7-0.7,2-1.6h-0.5l-2.1-6.3h1.4l1.6,5.4l1.6-5.4h1.4
				L30.3,15z"/>
			<path class="st1" d="M46.2,8.9c0,1.5-0.9,2.6-3.6,5h3.8L46.2,15h-5.1v-1c3-2.9,3.7-3.8,3.7-5c0-0.8-0.5-1.3-1.3-1.3
				c-0.7,0-1.2,0.3-1.7,0.9l-0.9-0.7c0.6-0.8,1.4-1.3,2.6-1.3C45.2,6.6,46.2,7.6,46.2,8.9z"/>
			<path class="st1" d="M53.9,10.9c0,2.7-1,4.3-2.8,4.3s-2.8-1.6-2.8-4.3c0-2.7,1-4.3,2.8-4.3S53.9,8.1,53.9,10.9z M49.6,10.9
				c0,2.4,0.5,3.3,1.5,3.3c0.9,0,1.5-0.9,1.5-3.3c0-2.4-0.5-3.3-1.5-3.3S49.6,8.5,49.6,10.9z M51.9,10.9c0,0.4-0.3,0.8-0.8,0.8
				c-0.4,0-0.8-0.3-0.8-0.8c0-0.4,0.3-0.8,0.8-0.8C51.6,10.1,51.9,10.4,51.9,10.9z"/>
		</g>
	</g>
	<g transform="translate(165 96)">
		<path class="st2" d="M2,0h77c1.1,0,2,0.9,2,2v18c0,1.1-0.9,2-2,2H2c-1.1,0-2-0.9-2-2V2C0,0.9,0.9,0,2,0z"/>
		<polygon class="st2" points="77,11 81,7 85,11 81,15 		"/>
		<g class="st3">
			<path class="st1" d="M11.3,7.4l-0.7,0.9c-0.5-0.4-1.1-0.6-1.7-0.6c-1.2,0-2.3,0.9-2.3,3.2c0,2.3,1,3.2,2.3,3.2
				c0.9,0,1.4-0.3,1.9-0.7l0.7,0.9c-0.6,0.5-1.4,1-2.6,1c-2.1,0-3.7-1.5-3.7-4.3c0-2.8,1.7-4.3,3.7-4.3C9.9,6.6,10.6,6.9,11.3,7.4z"
				/>
			<path class="st1" d="M18.1,14.2l-0.3,0.9c-0.6-0.1-1.1-0.3-1.3-0.9c-0.5,0.6-1.2,0.9-2,0.9c-1.3,0-2.1-0.8-2.1-2
				c0-1.3,1.1-2.1,3-2.1h0.9v-0.4c0-0.8-0.5-1.2-1.4-1.2c-0.4,0-1,0.1-1.7,0.3l-0.3-0.9c0.8-0.3,1.6-0.4,2.2-0.4
				c1.7,0,2.5,0.8,2.5,2.1v2.8C17.6,13.9,17.8,14.1,18.1,14.2z M16.3,13.4V12h-0.7c-1.3,0-1.8,0.4-1.8,1.2c0,0.7,0.4,1,1.1,1
				C15.4,14.2,16,13.9,16.3,13.4z"/>
			<path class="st1" d="M25.4,11.8c0,1.9-0.8,3.3-2.4,3.3c-0.7,0-1.2-0.2-1.6-0.7v3L20,17.6V8.7h1.2l0.1,0.8c0.5-0.6,1.1-1,1.8-1
				C24.7,8.5,25.4,9.8,25.4,11.8z M21.3,10.4v3c0.3,0.5,0.7,0.7,1.2,0.7c0.9,0,1.4-0.7,1.4-2.3c0-1.6-0.4-2.3-1.3-2.3
				C22.1,9.5,21.6,10,21.3,10.4z"/>
			<path class="st1" d="M30.6,15.2c-1.5,0-2.3-0.8-2.3-2.1V9.7H27v-1h1.4V7.3l1.3-0.2v1.6h2.1l-0.2,1h-2v3.4c0,0.7,0.3,1,1.1,1
				c0.5,0,0.9-0.1,1.2-0.3l0.5,0.9C32,15,31.3,15.2,30.6,15.2z"/>
			<path class="st1" d="M37.8,14h1.7v1h-5v-1h1.9V9.7h-1.8v-1h3.2V14z M37.8,6.4c0,0.5-0.4,0.8-0.9,0.8c-0.5,0-0.9-0.4-0.9-0.8
				c0-0.5,0.3-0.9,0.9-0.9C37.4,5.6,37.8,5.9,37.8,6.4z"/>
			<path class="st1" d="M47,11.8c0,2-1,3.3-2.9,3.3c-1.8,0-2.9-1.3-2.9-3.3c0-2,1-3.3,2.9-3.3C46,8.5,47,9.8,47,11.8z M42.6,11.8
				c0,1.6,0.5,2.3,1.5,2.3c1,0,1.5-0.7,1.5-2.3c0-1.6-0.5-2.3-1.4-2.3C43.1,9.5,42.6,10.3,42.6,11.8z"/>
			<path class="st1" d="M48.8,8.7h1.2L50,9.5c0.5-0.6,1.3-1,2.1-1c1.2,0,1.8,0.7,1.8,1.9V15h-1.3v-3.9c0-1.1-0.1-1.5-0.9-1.5
				c-0.6,0-1.2,0.4-1.5,0.9V15h-1.3V8.7z"/>
			<path class="st1" d="M68,8.9c0,1.5-0.9,2.6-3.6,5h3.8L68,15h-5.1v-1c3-2.9,3.7-3.8,3.7-5c0-0.8-0.5-1.3-1.3-1.3
				c-0.7,0-1.2,0.3-1.7,0.9l-0.9-0.7c0.6-0.8,1.4-1.3,2.6-1.3C67,6.6,68,7.6,68,8.9z"/>
			<path class="st1" d="M75.7,10.9c0,2.7-1,4.3-2.8,4.3s-2.8-1.6-2.8-4.3c0-2.7,1-4.3,2.8-4.3S75.7,8.1,75.7,10.9z M71.4,10.9
				c0,2.4,0.5,3.3,1.5,3.3c0.9,0,1.5-0.9,1.5-3.3c0-2.4-0.5-3.3-1.5-3.3S71.4,8.5,71.4,10.9z M73.7,10.9c0,0.4-0.3,0.8-0.8,0.8
				c-0.4,0-0.8-0.3-0.8-0.8c0-0.4,0.3-0.8,0.8-0.8C73.4,10.1,73.7,10.4,73.7,10.9z"/>
		</g>
	</g>
</g>
</svg>
