<?xml version="1.0" encoding="utf-8"?>
<!-- Generator: Adobe Illustrator 21.1.0, SVG Export Plug-In . SVG Version: 6.00 Build 0)  -->
<svg version="1.1" id="Layer_1" xmlns="http://www.w3.org/2000/svg" xmlns:xlink="http://www.w3.org/1999/xlink" x="0px" y="0px"
	 viewBox="0 0 752 147" style="enable-background:new 0 0 752 147;" xml:space="preserve">
<style type="text/css">
	.st0{enable-background:new    ;}
	.st1{fill:#0C0C0D;}
	.st2{fill:#FFFFFF;}
	.st3{fill:none;stroke:#0C0C0D;stroke-opacity:0.3;}
	.st4{fill:#FCB912;}
	.st5{fill:#FAEE5C;}
	.st6{fill:#80D2EB;}
	.st7{fill:#00BFE7;}
	.st8{fill:#0A84FF;}
</style>
<g>
	<g transform="translate(237 18)">
		<g class="st0">
			<path class="st1" d="M-71.5,9.6v6.3h5.7v1h-5.7V24h-1V8.6h7.2v1H-71.5z"/>
			<path class="st1" d="M-62,10.2c-0.2,0-0.4-0.1-0.6-0.2c-0.2-0.2-0.2-0.4-0.2-0.6c0-0.2,0.1-0.4,0.3-0.6c0.2-0.1,0.4-0.2,0.6-0.2
				c0.2,0,0.4,0.1,0.6,0.2c0.2,0.1,0.3,0.3,0.3,0.6c0,0.2-0.1,0.4-0.2,0.6C-61.6,10.1-61.8,10.2-62,10.2z M-62.5,24V13h1v11H-62.5z"
				/>
			<path class="st1" d="M-58,24V7.7h1V24H-58z"/>
			<path class="st1" d="M-53.3,18.5c0,1.5,0.3,2.7,1,3.5s1.7,1.3,2.9,1.3c1.2,0,2.4-0.5,3.6-1.4V23c-1.1,0.8-2.4,1.2-3.8,1.2
				s-2.6-0.5-3.4-1.5c-0.9-1-1.3-2.5-1.3-4.3c0-1.6,0.5-3,1.4-4.1s2.1-1.6,3.6-1.6c1.4,0,2.4,0.5,3.1,1.4s1.1,2.3,1.1,3.9v0.4h-8.2
				V18.5z M-46.1,17.6c0-1.3-0.3-2.3-0.9-3s-1.3-1.1-2.3-1.1s-1.9,0.3-2.6,1c-0.7,0.7-1.1,1.7-1.3,3h7.1V17.6z"/>
			<path class="st1" d="M-43,23.5v-1.2c0.4,0.3,0.8,0.6,1.4,0.8c0.5,0.2,1,0.3,1.4,0.3c1.7,0,2.6-0.7,2.6-2.1c0-0.5-0.2-0.9-0.6-1.2
				c-0.4-0.3-1-0.7-1.8-1.1c-1.1-0.5-1.8-0.9-2.2-1.4s-0.6-1.1-0.6-1.8c0-0.9,0.3-1.6,1-2.2c0.7-0.6,1.5-0.8,2.5-0.8
				c0.9,0,1.8,0.2,2.4,0.6v1.1c-0.8-0.5-1.7-0.8-2.5-0.8c-0.7,0-1.3,0.2-1.8,0.6c-0.4,0.4-0.7,0.9-0.7,1.5c0,0.5,0.1,0.9,0.4,1.3
				c0.3,0.3,0.9,0.7,1.8,1.1c1.1,0.5,1.9,1,2.4,1.4c0.4,0.4,0.6,1,0.6,1.8c0,0.9-0.3,1.6-1,2.2s-1.6,0.9-2.7,0.9
				C-41.4,24.3-42.2,24-43,23.5z"/>
			<path class="st1" d="M-21.2,24v-2.2l0,0c-0.4,0.8-0.9,1.4-1.5,1.8c-0.7,0.4-1.4,0.7-2.2,0.7c-1,0-1.9-0.3-2.5-0.9
				s-0.9-1.3-0.9-2.2c0-1.9,1.3-3.1,3.8-3.5l3.4-0.5c0-2.4-0.9-3.5-2.7-3.5c-1.2,0-2.4,0.5-3.5,1.5V14c0.4-0.3,1-0.6,1.7-0.8
				s1.4-0.3,2-0.3c1.1,0,2,0.4,2.6,1.1c0.6,0.7,0.9,1.7,0.9,3.1V24H-21.2z M-24.3,18.5c-1.2,0.2-2,0.4-2.4,0.8
				c-0.5,0.4-0.7,1-0.7,1.8c0,0.7,0.2,1.2,0.6,1.6c0.4,0.4,1,0.6,1.8,0.6c1.1,0,1.9-0.4,2.6-1.2c0.7-0.8,1.1-1.8,1.1-3V18
				L-24.3,18.5z"/>
			<path class="st1" d="M-9.5,24v-6.4c0-2.6-1-4-2.9-4c-1.1,0-1.9,0.4-2.6,1.2c-0.7,0.8-1,1.7-1,2.9V24h-1V13h1v2l0,0
				c0.8-1.5,2.1-2.3,3.8-2.3c1.2,0,2.1,0.4,2.7,1.2s0.9,1.9,0.9,3.4V24H-9.5z"/>
			<path class="st1" d="M2.6,24v-2l0,0c-0.4,0.7-0.9,1.2-1.6,1.7c-0.7,0.4-1.5,0.6-2.4,0.6c-1.4,0-2.5-0.5-3.3-1.5
				c-0.9-1-1.3-2.4-1.3-4.1c0-1.8,0.5-3.2,1.4-4.3s2.1-1.6,3.6-1.6c1.6,0,2.8,0.7,3.5,2l0,0v-7h1V24H2.6z M2.6,17.3
				c0-1-0.3-1.9-1-2.6C1,14,0.1,13.6-1,13.6c-1.2,0-2.1,0.4-2.9,1.3C-4.7,15.8-5,17-5,18.5s0.3,2.7,1,3.5s1.5,1.2,2.6,1.2
				c1.3,0,2.2-0.4,2.9-1.2c0.7-0.8,1-1.7,1-2.8L2.6,17.3L2.6,17.3z"/>
			<path class="st1" d="M23.4,24l-1.8-4.8h-6.7L13.2,24H12l5.8-15.4h1L24.6,24H23.4z M18.7,11.1c-0.1-0.2-0.1-0.4-0.2-0.6
				c-0.1-0.2-0.1-0.4-0.2-0.5l0,0c-0.1,0.5-0.2,0.9-0.4,1.1l-2.6,7.1h5.9L18.7,11.1z"/>
			<path class="st1" d="M28,22L28,22v7h-1V13h1v2.3l0,0c0.4-0.8,1-1.4,1.7-1.9c0.7-0.4,1.5-0.7,2.4-0.7c1.4,0,2.5,0.5,3.3,1.4
				c0.8,1,1.2,2.3,1.2,3.9c0,1.8-0.4,3.3-1.3,4.5c-0.9,1.1-2.1,1.7-3.6,1.7C30,24.3,28.8,23.5,28,22z M28,18v1.4c0,1.1,0.3,2,1,2.8
				s1.6,1.2,2.7,1.2s2-0.5,2.7-1.4c0.7-1,1.1-2.2,1.1-3.8c0-1.4-0.3-2.5-1-3.3s-1.5-1.2-2.6-1.2c-1.3,0-2.3,0.4-3,1.3
				C28.4,15.8,28,16.8,28,18z"/>
			<path class="st1" d="M40.4,22L40.4,22v7h-1V13h1v2.3l0,0c0.4-0.8,1-1.4,1.7-1.9c0.7-0.4,1.5-0.7,2.4-0.7c1.4,0,2.5,0.5,3.3,1.4
				c0.8,1,1.2,2.3,1.2,3.9c0,1.8-0.4,3.3-1.3,4.5c-0.9,1.1-2.1,1.7-3.6,1.7C42.4,24.3,41.2,23.5,40.4,22z M40.3,18v1.4
				c0,1.1,0.3,2,1,2.8s1.6,1.2,2.7,1.2s2-0.5,2.7-1.4c0.7-1,1.1-2.2,1.1-3.8c0-1.4-0.3-2.5-1-3.3s-1.5-1.2-2.6-1.2
				c-1.3,0-2.3,0.4-3,1.3C40.7,15.8,40.3,16.8,40.3,18z"/>
			<path class="st1" d="M51.7,24V7.7h1V24H51.7z"/>
			<path class="st1" d="M56.7,10.2c-0.2,0-0.4-0.1-0.6-0.2c-0.2-0.2-0.2-0.4-0.2-0.6c0-0.2,0.1-0.4,0.3-0.6c0.2-0.1,0.4-0.2,0.6-0.2
				c0.2,0,0.4,0.1,0.6,0.2c0.2,0.1,0.3,0.3,0.3,0.6c0,0.2-0.1,0.4-0.2,0.6C57.1,10.1,56.9,10.2,56.7,10.2z M56.2,24V13h1v11H56.2z"
				/>
			<path class="st1" d="M67.8,23.5C67,24,66,24.3,64.9,24.3c-1.5,0-2.7-0.5-3.6-1.5c-0.9-1-1.4-2.4-1.4-4c0-1.7,0.5-3.2,1.5-4.3
				s2.4-1.7,4-1.7c0.8,0,1.7,0.2,2.4,0.5v1.1c-0.8-0.5-1.7-0.7-2.6-0.7c-1.3,0-2.3,0.5-3.1,1.4s-1.2,2.1-1.2,3.6
				c0,1.4,0.4,2.6,1.1,3.4c0.7,0.9,1.7,1.3,2.9,1.3c1.1,0,2.1-0.3,2.9-0.9L67.8,23.5L67.8,23.5z"/>
			<path class="st1" d="M77,24v-2.2l0,0c-0.4,0.8-0.9,1.4-1.5,1.8c-0.7,0.4-1.4,0.7-2.2,0.7c-1,0-1.9-0.3-2.5-0.9s-0.9-1.3-0.9-2.2
				c0-1.9,1.3-3.1,3.8-3.5l3.4-0.5c0-2.4-0.9-3.5-2.7-3.5c-1.2,0-2.4,0.5-3.5,1.5V14c0.4-0.3,1-0.6,1.7-0.8s1.4-0.3,2-0.3
				c1.1,0,2,0.4,2.6,1.1c0.6,0.7,0.9,1.7,0.9,3.1V24H77z M74,18.5c-1.2,0.2-2,0.4-2.4,0.8c-0.5,0.4-0.7,1-0.7,1.8
				c0,0.7,0.2,1.2,0.7,1.6c0.4,0.4,1,0.6,1.8,0.6c1.1,0,1.9-0.4,2.6-1.2c0.7-0.8,1.1-1.8,1.1-3V18L74,18.5z"/>
			<path class="st1" d="M85.7,23.8c-0.5,0.2-1,0.4-1.5,0.4c-1.6,0-2.4-1-2.4-2.9v-7.4h-2V13h2v-2.9C82,10,82.1,10,82.3,9.9
				c0.2,0,0.3-0.1,0.5-0.2V13h2.9v0.9h-2.9v7.3c0,0.8,0.1,1.3,0.4,1.6c0.2,0.3,0.6,0.5,1.2,0.5c0.4,0,0.8-0.1,1.3-0.4V23.8z"/>
			<path class="st1" d="M88.3,10.2c-0.2,0-0.4-0.1-0.6-0.2s-0.2-0.4-0.2-0.6c0-0.2,0.1-0.4,0.3-0.6c0.2-0.1,0.4-0.2,0.6-0.2
				c0.2,0,0.4,0.1,0.6,0.2c0.2,0.1,0.3,0.3,0.3,0.6c0,0.2-0.1,0.4-0.2,0.6S88.6,10.2,88.3,10.2z M87.8,24V13h1v11H87.8z"/>
			<path class="st1" d="M96.8,24.3c-1.6,0-2.9-0.5-3.8-1.6c-0.9-1.1-1.4-2.4-1.4-4.1c0-1.8,0.5-3.3,1.5-4.3s2.3-1.5,3.9-1.5
				c1.6,0,2.8,0.5,3.7,1.5s1.4,2.4,1.4,4.3c0,1.7-0.5,3.1-1.4,4.2C99.7,23.7,98.4,24.3,96.8,24.3z M96.8,13.6
				c-1.3,0-2.3,0.4-3.1,1.3c-0.8,0.9-1.2,2.1-1.2,3.6c0,1.4,0.4,2.6,1.1,3.5s1.8,1.3,3.1,1.3s2.3-0.4,3.1-1.3
				c0.7-0.9,1.1-2.1,1.1-3.6c0-1.6-0.4-2.8-1.1-3.6C99.2,14.1,98.2,13.6,96.8,13.6z"/>
			<path class="st1" d="M112.2,24v-6.4c0-2.6-1-4-2.9-4c-1.1,0-1.9,0.4-2.6,1.2c-0.7,0.8-1,1.7-1,2.9V24h-1V13h1v2l0,0
				c0.8-1.5,2.1-2.3,3.8-2.3c1.2,0,2.1,0.4,2.7,1.2c0.6,0.8,0.9,1.9,0.9,3.4V24H112.2z"/>
			<path class="st1" d="M115.9,23.5v-1.2c0.4,0.3,0.8,0.6,1.4,0.8s1,0.3,1.4,0.3c1.7,0,2.6-0.7,2.6-2.1c0-0.5-0.2-0.9-0.6-1.2
				s-1-0.7-1.8-1.1c-1.1-0.5-1.8-0.9-2.2-1.4s-0.6-1.1-0.6-1.8c0-0.9,0.3-1.6,1-2.2c0.7-0.6,1.5-0.8,2.5-0.8c0.9,0,1.8,0.2,2.4,0.6
				v1.1c-0.8-0.5-1.7-0.8-2.5-0.8c-0.7,0-1.3,0.2-1.8,0.6c-0.4,0.4-0.7,0.9-0.7,1.5c0,0.5,0.1,0.9,0.4,1.3c0.3,0.3,0.9,0.7,1.8,1.1
				c1.1,0.5,1.9,1,2.4,1.4c0.4,0.4,0.6,1,0.6,1.8c0,0.9-0.3,1.6-1,2.2s-1.6,0.9-2.7,0.9C117.5,24.3,116.6,24,115.9,23.5z"/>
		</g>
		<g transform="translate(0 50)">
			<g class="st0">
				<path class="st1" d="M-72.9,18V6.1h3.3c4.2,0,6.3,1.9,6.3,5.8c0,1.8-0.6,3.3-1.7,4.4c-1.3,1.1-2.8,1.7-4.8,1.7H-72.9z
					 M-71.5,7.4v9.4h1.8c1.6,0,2.8-0.4,3.6-1.3c0.9-0.8,1.3-2,1.3-3.6c0-3-1.6-4.6-4.9-4.6h-1.8V7.4z"/>
				<path class="st1" d="M-57.6,18.2c-1.3,0-2.3-0.4-3-1.2c-0.8-0.8-1.1-1.8-1.1-3.2s0.4-2.5,1.2-3.3c0.8-0.8,1.8-1.2,3.2-1.2
					c1.3,0,2.3,0.4,3,1.2c0.7,0.8,1.1,1.9,1.1,3.2c0,1.4-0.4,2.4-1.1,3.3C-55.3,17.8-56.4,18.2-57.6,18.2z M-57.5,10.4
					c-0.9,0-1.6,0.3-2.1,0.9s-0.8,1.4-0.8,2.5c0,1,0.3,1.8,0.8,2.4c0.5,0.6,1.2,0.9,2.1,0.9s1.6-0.3,2-0.9c0.5-0.6,0.7-1.4,0.7-2.4
					c0-1.1-0.2-1.9-0.7-2.5C-56,10.7-56.7,10.4-57.5,10.4z"/>
				<path class="st1" d="M-40.5,9.5l-2.6,8.5h-1.4l-1.8-6.1c-0.1-0.2-0.1-0.5-0.1-0.8l0,0c0,0.2-0.1,0.5-0.2,0.8l-1.9,6.1h-1.4
					l-2.6-8.5h1.4l1.8,6.4c0.1,0.2,0.1,0.4,0.1,0.8h0.1c0-0.2,0.1-0.5,0.1-0.8l2-6.4h1.2l1.8,6.4c0.1,0.2,0.1,0.5,0.1,0.8h0.1
					c0-0.2,0.1-0.5,0.1-0.8l1.7-6.4C-42,9.5-40.5,9.5-40.5,9.5z"/>
				<path class="st1" d="M-31.9,18h-1.4v-4.8c0-1.8-0.7-2.7-2-2.7c-0.7,0-1.2,0.3-1.7,0.8c-0.4,0.5-0.7,1.2-0.7,1.9V18h-1.4V9.5h1.4
					v1.4l0,0c0.6-1.1,1.6-1.6,2.8-1.6c0.9,0,1.6,0.3,2.1,0.9s0.7,1.5,0.7,2.6V18H-31.9z"/>
				<path class="st1" d="M-28,18h-1.4V5.4h1.4V18z"/>
				<path class="st1" d="M-21.7,18.2c-1.3,0-2.3-0.4-3-1.2c-0.8-0.8-1.1-1.8-1.1-3.2s0.4-2.5,1.2-3.3s1.8-1.2,3.2-1.2
					c1.3,0,2.3,0.4,3,1.2s1.1,1.9,1.1,3.2c0,1.4-0.4,2.4-1.1,3.3C-19.3,17.8-20.4,18.2-21.7,18.2z M-21.6,10.4
					c-0.9,0-1.6,0.3-2.1,0.9s-0.8,1.4-0.8,2.5c0,1,0.3,1.8,0.8,2.4c0.5,0.6,1.2,0.9,2.1,0.9c0.9,0,1.6-0.3,2-0.9
					c0.5-0.6,0.7-1.4,0.7-2.4c0-1.1-0.2-1.9-0.7-2.5C-20,10.7-20.7,10.4-21.6,10.4z"/>
				<path class="st1" d="M-9.2,18h-1.3v-1.3l0,0c-0.6,1-1.5,1.5-2.6,1.5c-0.8,0-1.5-0.2-2-0.7c-0.5-0.4-0.7-1-0.7-1.8
					c0-1.6,0.9-2.5,2.8-2.8l2.5-0.4c0-1.4-0.6-2.2-1.8-2.2c-1,0-1.9,0.3-2.8,1V9.9c0.8-0.5,1.8-0.8,2.9-0.8c2,0,3,1.1,3,3.2V18z
					 M-10.5,13.7l-2.1,0.3c-0.6,0.1-1.1,0.2-1.4,0.5c-0.3,0.2-0.5,0.6-0.5,1.2c0,0.4,0.1,0.8,0.4,1c0.3,0.3,0.7,0.4,1.2,0.4
					c0.7,0,1.2-0.2,1.7-0.7c0.4-0.5,0.7-1.1,0.7-1.8V13.7z"/>
				<path class="st1" d="M0.6,18h-1.4v-1.4l0,0c-0.6,1.1-1.6,1.6-2.9,1.6c-1.1,0-1.9-0.4-2.6-1.1c-0.6-0.8-1-1.8-1-3.1
					c0-1.4,0.4-2.5,1.1-3.4c0.7-0.8,1.7-1.3,2.8-1.3c1.2,0,2,0.5,2.5,1.4l0,0V5.4h1.4L0.6,18L0.6,18z M-0.7,14.2v-1.3
					c0-0.7-0.2-1.3-0.7-1.7s-1-0.7-1.7-0.7c-0.8,0-1.5,0.3-2,0.9s-0.7,1.5-0.7,2.5s0.2,1.8,0.7,2.3c0.5,0.6,1.1,0.9,1.8,0.9
					c0.8,0,1.4-0.3,1.8-0.8C-1,15.7-0.7,15-0.7,14.2z"/>
				<path class="st1" d="M2.9,17.7v-1.5C3.6,16.7,4.5,17,5.3,17c1.2,0,1.8-0.4,1.8-1.2c0-0.2-0.1-0.4-0.2-0.6
					c-0.1-0.2-0.2-0.3-0.4-0.4c-0.2-0.1-0.4-0.2-0.6-0.3s-0.5-0.2-0.8-0.3c-0.4-0.1-0.7-0.3-1-0.5s-0.5-0.3-0.7-0.5S3.1,12.8,3,12.5
					c-0.1-0.2-0.1-0.5-0.1-0.9s0.1-0.8,0.3-1.1c0.2-0.3,0.4-0.6,0.7-0.8c0.3-0.2,0.7-0.4,1-0.5C5.3,9.1,5.7,9,6.1,9
					c0.7,0,1.4,0.1,2,0.4v1.4c-0.6-0.4-1.3-0.6-2.2-0.6c-0.3,0-0.5,0-0.7,0.1s-0.4,0.1-0.5,0.2c-0.1,0.1-0.3,0.2-0.3,0.4
					c-0.1,0.1-0.1,0.3-0.1,0.5s0,0.4,0.1,0.6c0.1,0.2,0.2,0.3,0.4,0.4c0.2,0.1,0.3,0.2,0.6,0.3c0.2,0.1,0.5,0.2,0.8,0.3
					c0.4,0.1,0.7,0.3,1,0.4s0.6,0.3,0.8,0.5c0.2,0.2,0.4,0.4,0.5,0.7c0.1,0.2,0.2,0.5,0.2,0.9s-0.1,0.8-0.3,1.1
					c-0.2,0.3-0.4,0.6-0.7,0.8c-0.3,0.2-0.7,0.4-1.1,0.5S5.8,18,5.3,18C4.3,18.2,3.5,18,2.9,17.7z"/>
			</g>
			<g transform="translate(0 33)">
				<g class="st0">
					<path class="st1" d="M-45.6,15.6v-1.5c0.2,0.1,0.4,0.3,0.6,0.4c0.2,0.1,0.5,0.2,0.7,0.3c0.3,0.1,0.5,0.1,0.8,0.2
						s0.5,0.1,0.7,0.1c0.8,0,1.3-0.1,1.7-0.4c0.4-0.3,0.6-0.7,0.6-1.2c0-0.3-0.1-0.5-0.2-0.7c-0.1-0.2-0.3-0.4-0.5-0.6
						c-0.2-0.2-0.5-0.3-0.8-0.5s-0.6-0.3-1-0.5s-0.7-0.4-1-0.6c-0.3-0.2-0.6-0.4-0.8-0.6c-0.2-0.2-0.4-0.5-0.6-0.8
						c-0.1-0.3-0.2-0.6-0.2-1c0-0.5,0.1-0.9,0.3-1.2c0.2-0.5,0.5-0.8,0.8-1s0.7-0.4,1.2-0.5c0.4-0.1,0.9-0.2,1.3-0.2
						c1,0,1.8,0.1,2.3,0.4v1.4c-0.6-0.4-1.4-0.6-2.4-0.6c-0.3,0-0.5,0-0.8,0.1s-0.5,0.1-0.7,0.3C-43.8,7-44,7.2-44.1,7.4
						s-0.2,0.3-0.2,0.6s0,0.5,0.1,0.7c0.1,0.2,0.2,0.4,0.4,0.5s0.4,0.3,0.7,0.5s0.6,0.3,1,0.5s0.7,0.4,1.1,0.6s0.6,0.4,0.9,0.7
						c0.3,0.2,0.5,0.5,0.6,0.8s0.2,0.6,0.2,1c0,0.5-0.1,1-0.3,1.3c-0.2,0.4-0.5,0.7-0.8,0.9s-0.7,0.4-1.2,0.5
						c-0.4,0.1-0.9,0.2-1.4,0.2c-0.2,0-0.4,0-0.6,0s-0.5-0.1-0.7-0.1c-0.3-0.1-0.5-0.1-0.7-0.2C-45.3,15.8-45.5,15.7-45.6,15.6z"/>
					<path class="st1" d="M-31.9,16h-1.2v-1.2l0,0c-0.5,0.9-1.3,1.3-2.3,1.3c-0.7,0-1.3-0.2-1.8-0.6c-0.4-0.4-0.6-0.9-0.6-1.6
						c0-1.4,0.8-2.2,2.5-2.4l2.2-0.3c0-1.3-0.5-1.9-1.5-1.9c-0.9,0-1.7,0.3-2.4,0.9V9c0.7-0.5,1.6-0.7,2.5-0.7
						c1.8,0,2.6,0.9,2.6,2.8V16z M-33.1,12.2l-1.8,0.2c-0.6,0.1-1,0.2-1.3,0.4s-0.4,0.5-0.4,1.1c0,0.4,0.1,0.7,0.4,0.9
						c0.3,0.2,0.6,0.3,1,0.3c0.6,0,1.1-0.2,1.5-0.6c0.4-0.4,0.6-0.9,0.6-1.6V12.2z"/>
					<path class="st1" d="M-23.8,8.5l-3,7.5H-28l-2.8-7.5h1.3l1.9,5.4c0.1,0.4,0.2,0.8,0.3,1l0,0c0-0.4,0.1-0.7,0.2-1l2-5.5h1.3V8.5
						z"/>
					<path class="st1" d="M-16.5,12.6h-5.3c0,0.8,0.2,1.5,0.7,1.9c0.4,0.5,1,0.7,1.8,0.7s1.6-0.3,2.3-0.8v1.1
						c-0.7,0.5-1.5,0.7-2.6,0.7s-1.9-0.3-2.5-1s-0.9-1.6-0.9-2.9c0-1.2,0.3-2.1,1-2.9c0.7-0.7,1.5-1.1,2.5-1.1s1.7,0.3,2.3,1
						s0.8,1.5,0.8,2.6L-16.5,12.6L-16.5,12.6z M-17.7,11.5c0-0.7-0.2-1.2-0.5-1.6c-0.3-0.4-0.8-0.6-1.4-0.6c-0.6,0-1,0.2-1.4,0.6
						s-0.6,0.9-0.7,1.6H-17.7z"/>
					<path class="st1" d="M-6.8,6C-7,5.9-7.3,5.8-7.6,5.8c-0.8,0-1.3,0.5-1.3,1.6v1.2h1.8v1h-1.8V16h-1.2V9.5h-1.3v-1h1.3V7.3
						c0-0.8,0.2-1.4,0.7-1.9s1-0.7,1.7-0.7c0.4,0,0.7,0,0.9,0.1C-6.8,4.8-6.8,6-6.8,6z"/>
					<path class="st1" d="M-5.2,6.6c-0.2,0-0.4-0.1-0.5-0.2S-6,6-6,5.8s0.1-0.4,0.2-0.6C-5.6,5.1-5.5,5-5.2,5C-5,5-4.8,5.1-4.6,5.2
						s0.2,0.3,0.2,0.6c0,0.2-0.1,0.4-0.2,0.5C-4.8,6.5-5,6.6-5.2,6.6z M-4.6,16h-1.2V8.5h1.2V16z"/>
					<path class="st1" d="M-1,16h-1.2V4.9H-1V16z"/>
					<path class="st1" d="M7.4,12.6H2.1c0,0.8,0.2,1.5,0.7,1.9c0.4,0.5,1,0.7,1.8,0.7s1.6-0.3,2.3-0.8v1.1c-0.7,0.5-1.5,0.7-2.6,0.7
						s-1.9-0.3-2.5-1s-0.9-1.6-0.9-2.9c0-1.2,0.3-2.1,1-2.9c0.7-0.7,1.5-1.1,2.5-1.1s1.7,0.3,2.3,1s0.8,1.5,0.8,2.6v0.7H7.4z
						 M6.2,11.5c0-0.7-0.2-1.2-0.5-1.6C5.4,9.5,4.9,9.3,4.3,9.3s-1,0.2-1.4,0.6s-0.6,0.9-0.7,1.6H6.2z"/>
					<path class="st1" d="M8.8,15.7v-1.3c0.7,0.5,1.4,0.7,2.2,0.7c1.1,0,1.6-0.4,1.6-1.1c0-0.2,0-0.4-0.1-0.5s-0.2-0.3-0.4-0.4
						c-0.2-0.1-0.3-0.2-0.5-0.3s-0.4-0.2-0.7-0.3c-0.3-0.1-0.6-0.3-0.9-0.4c-0.3-0.1-0.5-0.3-0.6-0.5C9.2,11.4,9.1,11.2,9,11
						c-0.1-0.2-0.1-0.5-0.1-0.8c0-0.4,0.1-0.7,0.2-0.9C9.3,9,9.5,8.8,9.7,8.6c0.3-0.2,0.6-0.3,0.9-0.4c0.3-0.1,0.7-0.1,1.1-0.1
						c0.6,0,1.2,0.1,1.7,0.3v1.2c-0.6-0.4-1.2-0.5-1.9-0.5c-0.2,0-0.4,0-0.6,0.1s-0.3,0.1-0.5,0.2s-0.2,0.2-0.3,0.3
						C10,9.8,10,10,10,10.1c0,0.2,0,0.4,0.1,0.5s0.2,0.2,0.3,0.4c0.1,0.1,0.3,0.2,0.5,0.3s0.4,0.2,0.7,0.3c0.3,0.1,0.6,0.3,0.9,0.4
						c0.3,0.1,0.5,0.3,0.7,0.5s0.3,0.4,0.4,0.6c0.1,0.2,0.1,0.5,0.1,0.8c0,0.4-0.1,0.7-0.2,1s-0.4,0.5-0.7,0.7
						c-0.3,0.2-0.6,0.3-0.9,0.4s-0.7,0.1-1.1,0.1C10,16.2,9.4,16,8.8,15.7z"/>
					<path class="st1" d="M23.2,15.9c-0.3,0.2-0.7,0.2-1.1,0.2c-1.3,0-2-0.7-2-2.2V9.5h-1.3v-1h1.3V6.7l1.2-0.4v2.2h1.9v1h-1.9v4.2
						c0,0.5,0.1,0.9,0.3,1.1s0.5,0.3,0.8,0.3s0.6-0.1,0.8-0.2C23.2,14.9,23.2,15.9,23.2,15.9z"/>
					<path class="st1" d="M28,16.2c-1.1,0-2-0.4-2.7-1.1c-0.7-0.7-1-1.6-1-2.8c0-1.3,0.3-2.2,1-3s1.6-1.1,2.8-1.1c1.1,0,2,0.3,2.6,1
						s0.9,1.6,0.9,2.9c0,1.2-0.3,2.2-1,2.9C30,15.8,29.1,16.2,28,16.2z M28,9.3c-0.8,0-1.4,0.3-1.8,0.8s-0.7,1.2-0.7,2.2
						c0,0.9,0.2,1.6,0.7,2.1c0.5,0.5,1.1,0.8,1.8,0.8c0.8,0,1.4-0.3,1.8-0.8s0.6-1.2,0.6-2.1c0-0.9-0.2-1.7-0.6-2.2
						C29.4,9.6,28.8,9.3,28,9.3z"/>
				</g>
				<g transform="translate(0 2)">
					<g>
						<rect id="title2-a" x="-74.5" class="st2" width="20" height="20"/>
					</g>
					<rect x="-74" y="0.5" class="st3" width="19" height="19"/>
				</g>
			</g>
			<g transform="translate(0 67)">
				<g class="st0">
					<path class="st1" d="M-37,16h-1.4l-1.1-2.9H-44l-1,2.9h-1.4l4-10.5h1.3L-37,16z M-39.9,11.9l-1.6-4.4c-0.1-0.1-0.1-0.4-0.2-0.7
						l0,0c0,0.3-0.1,0.5-0.2,0.7l-1.6,4.4H-39.9z"/>
					<path class="st1" d="M-34.4,16h-1.2V4.9h1.2V16z"/>
					<path class="st1" d="M-22.5,8.5l-2.3,7.5H-26l-1.5-5.4c-0.1-0.2-0.1-0.4-0.1-0.7l0,0c0,0.2-0.1,0.4-0.2,0.7l-1.7,5.4h-1.2
						L-33,8.5h1.3l1.6,5.6c0,0.2,0.1,0.4,0.1,0.7h0.1c0-0.2,0.1-0.4,0.1-0.7l1.7-5.6h1.1l1.6,5.7c0,0.2,0.1,0.4,0.1,0.7h0.1
						c0-0.2,0.1-0.4,0.1-0.7l1.5-5.7H-22.5z"/>
					<path class="st1" d="M-15.8,16H-17v-1.2l0,0c-0.5,0.9-1.3,1.3-2.3,1.3c-0.7,0-1.3-0.2-1.8-0.6c-0.4-0.4-0.6-0.9-0.6-1.6
						c0-1.4,0.8-2.2,2.5-2.4l2.2-0.3c0-1.3-0.5-1.9-1.5-1.9c-0.9,0-1.7,0.3-2.4,0.9V9c0.7-0.5,1.6-0.7,2.5-0.7
						c1.8,0,2.6,0.9,2.6,2.8V16z M-17,12.2l-1.8,0.2c-0.6,0.1-1,0.2-1.3,0.4s-0.4,0.5-0.4,1.1c0,0.4,0.1,0.7,0.4,0.9
						c0.3,0.2,0.6,0.3,1,0.3c0.6,0,1.1-0.2,1.5-0.6c0.4-0.4,0.6-0.9,0.6-1.6V12.2z"/>
					<path class="st1" d="M-7.5,8.5l-3.4,8.7c-0.6,1.6-1.5,2.3-2.6,2.3c-0.3,0-0.6,0-0.8-0.1v-1.1c0.3,0.1,0.5,0.1,0.7,0.1
						c0.6,0,1.1-0.4,1.4-1.1l0.6-1.4l-2.9-7.5h1.3l2,5.8c0,0.1,0.1,0.3,0.2,0.6l0,0c0-0.1,0.1-0.3,0.1-0.6l2.1-5.8h1.3V8.5z"/>
					<path class="st1" d="M-6.7,15.7v-1.3c0.7,0.5,1.4,0.7,2.2,0.7c1.1,0,1.6-0.4,1.6-1.1c0-0.2,0-0.4-0.1-0.5s-0.2-0.3-0.4-0.4
						c-0.2-0.1-0.3-0.2-0.5-0.3s-0.4-0.2-0.7-0.3c-0.3-0.1-0.6-0.3-0.9-0.4C-5.8,12-6,11.8-6.1,11.6c-0.2-0.2-0.3-0.4-0.4-0.6
						c-0.1-0.2-0.1-0.5-0.1-0.8c0-0.4,0.1-0.7,0.2-0.9C-6.2,9-6,8.8-5.8,8.6c0.3-0.2,0.6-0.3,0.9-0.4c0.3-0.1,0.7-0.1,1.1-0.1
						c0.6,0,1.2,0.1,1.7,0.3v1.2C-2.7,9.2-3.3,9.1-4,9.1c-0.2,0-0.4,0-0.6,0.1s-0.3,0.1-0.5,0.2s-0.2,0.2-0.3,0.3
						c-0.1,0.1-0.1,0.3-0.1,0.4c0,0.2,0,0.4,0.1,0.5s0.2,0.2,0.3,0.4c0.1,0.1,0.3,0.2,0.5,0.3s0.4,0.2,0.7,0.3
						c0.3,0.1,0.6,0.3,0.9,0.4c0.3,0.1,0.5,0.3,0.7,0.5s0.3,0.4,0.4,0.6c0.1,0.2,0.1,0.5,0.1,0.8c0,0.4-0.1,0.7-0.2,1
						s-0.4,0.5-0.7,0.7C-3,15.8-3.3,15.9-3.6,16s-0.7,0.1-1.1,0.1C-5.5,16.2-6.1,16-6.7,15.7z"/>
					<path class="st1" d="M9.6,16H8.4v-1.2l0,0c-0.5,0.9-1.3,1.3-2.3,1.3c-0.7,0-1.3-0.2-1.8-0.6c-0.4-0.4-0.6-0.9-0.6-1.6
						c0-1.4,0.8-2.2,2.5-2.4l2.2-0.3c0-1.3-0.5-1.9-1.5-1.9c-0.9,0-1.7,0.3-2.4,0.9V9C5.2,8.5,6.1,8.3,7,8.3c1.8,0,2.6,0.9,2.6,2.8
						C9.6,11.1,9.6,16,9.6,16z M8.4,12.2l-1.8,0.2c-0.6,0.1-1,0.2-1.3,0.4s-0.4,0.5-0.4,1.1c0,0.4,0.1,0.7,0.4,0.9s0.6,0.3,1,0.3
						c0.6,0,1.1-0.2,1.5-0.6c0.4-0.4,0.6-0.9,0.6-1.6C8.4,12.9,8.4,12.2,8.4,12.2z"/>
					<path class="st1" d="M11.4,15.7v-1.3c0.7,0.5,1.4,0.7,2.2,0.7c1.1,0,1.6-0.4,1.6-1.1c0-0.2,0-0.4-0.1-0.5s-0.2-0.3-0.4-0.4
						c-0.2-0.1-0.3-0.2-0.5-0.3s-0.4-0.2-0.7-0.3c-0.3-0.1-0.6-0.3-0.9-0.4c-0.3-0.1-0.5-0.3-0.6-0.5c-0.2-0.2-0.3-0.4-0.4-0.6
						c-0.1-0.2-0.1-0.5-0.1-0.8c0-0.4,0.1-0.7,0.2-0.9c0.2-0.3,0.4-0.5,0.6-0.7c0.3-0.2,0.6-0.3,0.9-0.4c0.3-0.1,0.7-0.1,1.1-0.1
						c0.6,0,1.2,0.1,1.7,0.3v1.2c-0.6-0.4-1.2-0.5-1.9-0.5c-0.2,0-0.4,0-0.6,0.1S13.2,9.3,13,9.4s-0.2,0.2-0.3,0.3
						c-0.1,0.1-0.1,0.3-0.1,0.4c0,0.2,0,0.4,0.1,0.5s0.2,0.2,0.3,0.4c0.1,0.1,0.3,0.2,0.5,0.3s0.4,0.2,0.7,0.3
						c0.3,0.1,0.6,0.3,0.9,0.4c0.3,0.1,0.5,0.3,0.7,0.5s0.3,0.4,0.4,0.6c0.1,0.2,0.1,0.5,0.1,0.8c0,0.4-0.1,0.7-0.2,1
						s-0.4,0.5-0.7,0.7c-0.2,0.2-0.5,0.4-0.9,0.4s-0.7,0.1-1.1,0.1C12.6,16.2,12,16,11.4,15.7z"/>
					<path class="st1" d="M24.4,16h-1.7l-3.2-3.6l0,0V16h-1.2V4.9h1.2v7l0,0l3.1-3.4h1.6l-3.5,3.6L24.4,16z"/>
					<path class="st1" d="M35.8,8.5l-3.4,8.7c-0.6,1.6-1.5,2.3-2.6,2.3c-0.3,0-0.6,0-0.8-0.1v-1.1c0.3,0.1,0.5,0.1,0.7,0.1
						c0.6,0,1.1-0.4,1.4-1.1l0.6-1.4l-2.9-7.5h1.3l2,5.8c0,0.1,0.1,0.3,0.2,0.6l0,0c0-0.1,0.1-0.3,0.1-0.6l2.1-5.8h1.3V8.5z"/>
					<path class="st1" d="M40.2,16.2c-1.1,0-2-0.4-2.7-1.1c-0.7-0.7-1-1.6-1-2.8c0-1.3,0.3-2.2,1-3s1.6-1.1,2.8-1.1
						c1.1,0,2,0.3,2.6,1s0.9,1.6,0.9,2.9c0,1.2-0.3,2.2-1,2.9C42.2,15.8,41.3,16.2,40.2,16.2z M40.3,9.3c-0.8,0-1.4,0.3-1.8,0.8
						s-0.7,1.2-0.7,2.2c0,0.9,0.2,1.6,0.7,2.1c0.5,0.5,1.1,0.8,1.8,0.8c0.8,0,1.4-0.3,1.8-0.8s0.6-1.2,0.6-2.1
						c0-0.9-0.2-1.7-0.6-2.2C41.6,9.6,41,9.3,40.3,9.3z"/>
					<path class="st1" d="M51.9,16h-1.2v-1.2l0,0c-0.5,0.9-1.3,1.4-2.3,1.4c-1.8,0-2.7-1.1-2.7-3.2V8.5h1.2v4.3
						c0,1.6,0.6,2.4,1.8,2.4c0.6,0,1.1-0.2,1.4-0.6c0.4-0.4,0.6-1,0.6-1.7V8.5h1.2V16z"/>
					<path class="st1" d="M67.9,8.5L65.7,16h-1.2L63,10.6c-0.1-0.2-0.1-0.4-0.1-0.7l0,0c0,0.2-0.1,0.4-0.2,0.7L61,16h-1.2l-2.3-7.5
						h1.3l1.6,5.6c0,0.2,0.1,0.4,0.1,0.7h0.1c0-0.2,0.1-0.4,0.1-0.7l1.7-5.6h1.1l1.6,5.7c0,0.2,0.1,0.4,0.1,0.7h0.1
						c0-0.2,0.1-0.4,0.1-0.7l1.5-5.7H67.9z"/>
					<path class="st1" d="M75.5,16h-1.2v-4.3c0-1.6-0.6-2.3-1.7-2.3c-0.6,0-1.1,0.2-1.5,0.7s-0.6,1-0.6,1.7V16h-1.2V4.9h1.2v4.8l0,0
						c0.6-0.9,1.4-1.4,2.5-1.4c1.7,0,2.5,1,2.5,3.1V16z"/>
					<path class="st1" d="M83.8,12.6h-5.3c0,0.8,0.2,1.5,0.7,1.9c0.4,0.5,1,0.7,1.8,0.7s1.6-0.3,2.3-0.8v1.1
						c-0.7,0.5-1.5,0.7-2.6,0.7s-1.9-0.3-2.5-1s-0.9-1.6-0.9-2.9c0-1.2,0.3-2.1,1-2.9c0.7-0.7,1.5-1.1,2.5-1.1s1.7,0.3,2.3,1
						s0.8,1.5,0.8,2.6v0.7H83.8z M82.6,11.5c0-0.7-0.2-1.2-0.5-1.6c-0.3-0.4-0.8-0.6-1.4-0.6c-0.6,0-1,0.2-1.4,0.6s-0.6,0.9-0.7,1.6
						H82.6z"/>
					<path class="st1" d="M89.5,9.7c-0.2-0.2-0.5-0.2-0.9-0.2c-0.5,0-0.9,0.2-1.3,0.7s-0.5,1.1-0.5,2V16h-1.2V8.5h1.2V10l0,0
						c0.2-0.5,0.4-0.9,0.8-1.2c0.4-0.3,0.7-0.4,1.2-0.4c0.3,0,0.6,0,0.7,0.1V9.7z"/>
					<path class="st1" d="M96.8,12.6h-5.3c0,0.8,0.2,1.5,0.7,1.9c0.4,0.5,1,0.7,1.8,0.7s1.6-0.3,2.3-0.8v1.1
						c-0.7,0.5-1.5,0.7-2.6,0.7s-1.9-0.3-2.5-1s-0.9-1.6-0.9-2.9c0-1.2,0.3-2.1,1-2.9c0.7-0.7,1.5-1.1,2.5-1.1s1.7,0.3,2.3,1
						s0.8,1.5,0.8,2.6v0.7H96.8z M95.6,11.5c0-0.7-0.2-1.2-0.5-1.6s-0.8-0.6-1.4-0.6c-0.6,0-1,0.2-1.4,0.6c-0.4,0.4-0.6,0.9-0.7,1.6
						H95.6z"/>
					<path class="st1" d="M106.3,15.9c-0.3,0.2-0.7,0.2-1.1,0.2c-1.3,0-2-0.7-2-2.2V9.5h-1.3v-1h1.3V6.7l1.2-0.4v2.2h1.9v1h-1.9v4.2
						c0,0.5,0.1,0.9,0.3,1.1c0.2,0.2,0.5,0.3,0.8,0.3s0.6-0.1,0.8-0.2V15.9z"/>
					<path class="st1" d="M111,16.2c-1.1,0-2-0.4-2.7-1.1c-0.7-0.7-1-1.6-1-2.8c0-1.3,0.3-2.2,1-3s1.6-1.1,2.8-1.1
						c1.1,0,2,0.3,2.6,1s0.9,1.6,0.9,2.9c0,1.2-0.3,2.2-1,2.9C113,15.8,112.1,16.2,111,16.2z M111.1,9.3c-0.8,0-1.4,0.3-1.8,0.8
						c-0.4,0.5-0.7,1.2-0.7,2.2c0,0.9,0.2,1.6,0.7,2.1c0.5,0.5,1.1,0.8,1.8,0.8c0.8,0,1.4-0.3,1.8-0.8c0.4-0.5,0.6-1.2,0.6-2.1
						c0-0.9-0.2-1.7-0.6-2.2S111.9,9.3,111.1,9.3z"/>
					<path class="st1" d="M120.3,15.7v-1.3c0.7,0.5,1.4,0.7,2.2,0.7c1.1,0,1.6-0.4,1.6-1.1c0-0.2,0-0.4-0.1-0.5s-0.2-0.3-0.4-0.4
						c-0.2-0.1-0.3-0.2-0.5-0.3s-0.4-0.2-0.7-0.3s-0.6-0.3-0.9-0.4c-0.3-0.1-0.5-0.3-0.6-0.5c-0.2-0.2-0.3-0.4-0.4-0.6
						c-0.1-0.2-0.1-0.5-0.1-0.8c0-0.4,0.1-0.7,0.2-0.9c0.2-0.3,0.4-0.5,0.6-0.7c0.3-0.2,0.6-0.3,0.9-0.4c0.3-0.1,0.7-0.1,1.1-0.1
						c0.6,0,1.2,0.1,1.7,0.3v1.2c-0.6-0.4-1.2-0.5-1.9-0.5c-0.2,0-0.4,0-0.6,0.1c-0.2,0.1-0.3,0.1-0.5,0.2s-0.2,0.2-0.3,0.3
						s-0.1,0.3-0.1,0.4c0,0.2,0,0.4,0.1,0.5s0.2,0.2,0.3,0.4c0.1,0.1,0.3,0.2,0.5,0.3s0.4,0.2,0.7,0.3s0.6,0.3,0.9,0.4
						c0.3,0.1,0.5,0.3,0.7,0.5s0.3,0.4,0.4,0.6c0.1,0.2,0.2,0.5,0.2,0.8c0,0.4-0.1,0.7-0.2,1s-0.4,0.5-0.7,0.7s-0.6,0.3-0.9,0.4
						c-0.4,0.1-0.7,0.1-1.1,0.1C121.5,16.2,120.9,16,120.3,15.7z"/>
					<path class="st1" d="M132.5,16h-1.2v-1.2l0,0c-0.5,0.9-1.3,1.3-2.3,1.3c-0.7,0-1.3-0.2-1.8-0.6c-0.4-0.4-0.6-0.9-0.6-1.6
						c0-1.4,0.8-2.2,2.5-2.4l2.2-0.3c0-1.3-0.5-1.9-1.5-1.9c-0.9,0-1.7,0.3-2.4,0.9V9c0.7-0.5,1.6-0.7,2.5-0.7
						c1.8,0,2.6,0.9,2.6,2.8V16z M131.3,12.2l-1.8,0.2c-0.6,0.1-1,0.2-1.3,0.4s-0.4,0.5-0.4,1.1c0,0.4,0.1,0.7,0.4,0.9
						c0.3,0.2,0.6,0.3,1,0.3c0.6,0,1.1-0.2,1.5-0.6c0.4-0.4,0.6-0.9,0.6-1.6V12.2z"/>
					<path class="st1" d="M140.6,8.5l-3,7.5h-1.1l-2.8-7.5h1.3l1.9,5.4c0.1,0.4,0.2,0.8,0.3,1l0,0c0-0.4,0.1-0.7,0.2-1l2-5.5h1.2
						V8.5z"/>
					<path class="st1" d="M148,12.6h-5.3c0,0.8,0.2,1.5,0.7,1.9c0.4,0.5,1,0.7,1.8,0.7s1.6-0.3,2.3-0.8v1.1
						c-0.7,0.5-1.5,0.7-2.6,0.7s-1.9-0.3-2.5-1s-0.9-1.6-0.9-2.9c0-1.2,0.3-2.1,1-2.9c0.7-0.7,1.5-1.1,2.5-1.1s1.7,0.3,2.3,1
						s0.8,1.5,0.8,2.6v0.7H148z M146.7,11.5c0-0.7-0.2-1.2-0.5-1.6c-0.3-0.4-0.8-0.6-1.4-0.6c-0.6,0-1,0.2-1.4,0.6s-0.6,0.9-0.7,1.6
						H146.7z"/>
					<path class="st1" d="M157.6,6c-0.2-0.1-0.5-0.2-0.8-0.2c-0.8,0-1.3,0.5-1.3,1.6v1.2h1.8v1h-1.8V16h-1.2V9.5H153v-1h1.3V7.3
						c0-0.8,0.2-1.4,0.7-1.9s1-0.7,1.7-0.7c0.4,0,0.7,0,0.9,0.1L157.6,6L157.6,6z"/>
					<path class="st1" d="M159.2,6.6c-0.2,0-0.4-0.1-0.5-0.2s-0.2-0.3-0.2-0.6s0.1-0.4,0.2-0.6c0.2-0.1,0.3-0.2,0.5-0.2
						s0.4,0.1,0.6,0.2c0.2,0.1,0.2,0.3,0.2,0.6c0,0.2-0.1,0.4-0.2,0.5C159.6,6.5,159.4,6.6,159.2,6.6z M159.8,16h-1.2V8.5h1.2V16z"
						/>
					<path class="st1" d="M163.4,16h-1.2V4.9h1.2V16z"/>
					<path class="st1" d="M171.9,12.6h-5.3c0,0.8,0.2,1.5,0.7,1.9c0.4,0.5,1,0.7,1.8,0.7s1.6-0.3,2.3-0.8v1.1
						c-0.7,0.5-1.5,0.7-2.6,0.7s-1.9-0.3-2.5-1s-0.9-1.6-0.9-2.9c0-1.2,0.3-2.1,1-2.9c0.7-0.7,1.5-1.1,2.5-1.1s1.7,0.3,2.3,1
						s0.8,1.5,0.8,2.6v0.7H171.9z M170.6,11.5c0-0.7-0.2-1.2-0.5-1.6s-0.8-0.6-1.4-0.6c-0.6,0-1,0.2-1.4,0.6
						c-0.4,0.4-0.6,0.9-0.7,1.6H170.6z"/>
					<path class="st1" d="M173.2,15.7v-1.3c0.7,0.5,1.4,0.7,2.2,0.7c1.1,0,1.6-0.4,1.6-1.1c0-0.2,0-0.4-0.1-0.5s-0.2-0.3-0.4-0.4
						c-0.2-0.1-0.3-0.2-0.5-0.3s-0.4-0.2-0.7-0.3s-0.6-0.3-0.9-0.4c-0.3-0.1-0.5-0.3-0.6-0.5c-0.2-0.2-0.3-0.4-0.4-0.6
						c-0.1-0.2-0.1-0.5-0.1-0.8c0-0.4,0.1-0.7,0.2-0.9c0.2-0.3,0.4-0.5,0.6-0.7c0.3-0.2,0.6-0.3,0.9-0.4c0.3-0.1,0.7-0.1,1.1-0.1
						c0.6,0,1.2,0.1,1.7,0.3v1.2c-0.6-0.4-1.2-0.5-1.9-0.5c-0.2,0-0.4,0-0.6,0.1c-0.2,0.1-0.3,0.1-0.5,0.2s-0.2,0.2-0.3,0.3
						s-0.1,0.3-0.1,0.4c0,0.2,0,0.4,0.1,0.5s0.2,0.2,0.3,0.4c0.1,0.1,0.3,0.2,0.5,0.3s0.4,0.2,0.7,0.3s0.6,0.3,0.9,0.4
						c0.3,0.1,0.5,0.3,0.7,0.5s0.3,0.4,0.4,0.6c0.1,0.2,0.2,0.5,0.2,0.8c0,0.4-0.1,0.7-0.2,1s-0.4,0.5-0.7,0.7s-0.6,0.3-0.9,0.4
						c-0.4,0.1-0.7,0.1-1.1,0.1C174.5,16.2,173.8,16,173.2,15.7z"/>
				</g>
				<g transform="translate(0 2)">
					<g>
						<rect id="title2-b" x="-74.5" class="st2" width="20" height="20"/>
					</g>
					<rect x="-74" y="0.5" class="st3" width="19" height="19"/>
				</g>
			</g>
			<g transform="translate(115 30)">
				<g>
					<path id="title2-c" class="st2" d="M-72.5,0h388c1.1,0,2,0.9,2,2v26c0,1.1-0.9,2-2,2h-388c-1.1,0-2-0.9-2-2V2
						C-74.5,0.9-73.6,0-72.5,0z"/>
				</g>
				<path class="st3" d="M-72,0.5h387c1.1,0,2,0.9,2,2v25c0,1.1-0.9,2-2,2H-72c-1.1,0-2-0.9-2-2v-25C-74,1.4-73.1,0.5-72,0.5z"/>
				<g class="st0">
					<path class="st1" d="M-42.1,20V9.5h2.9c3.7,0,5.6,1.7,5.6,5.1c0,1.6-0.5,2.9-1.5,3.9s-2.4,1.5-4.1,1.5H-42.1z M-40.9,10.6v8.3
						h1.6c1.4,0,2.4-0.4,3.2-1.1S-35,16-35,14.7c0-2.7-1.4-4-4.3-4h-1.6V10.6z"/>
					<path class="st1" d="M-28.6,20.2c-1.1,0-2-0.4-2.7-1.1c-0.7-0.7-1-1.6-1-2.8c0-1.3,0.3-2.2,1-3c0.7-0.8,1.6-1.1,2.8-1.1
						c1.1,0,2,0.3,2.6,1s0.9,1.6,0.9,2.9c0,1.2-0.3,2.2-1,2.9C-26.6,19.8-27.5,20.2-28.6,20.2z M-28.5,13.3c-0.8,0-1.4,0.3-1.8,0.8
						s-0.7,1.2-0.7,2.2c0,0.9,0.2,1.6,0.7,2.1s1.1,0.8,1.8,0.8c0.8,0,1.4-0.3,1.8-0.8s0.6-1.2,0.6-2.1s-0.2-1.7-0.6-2.2
						C-27.2,13.6-27.8,13.3-28.5,13.3z"/>
					<path class="st1" d="M-13.5,12.5l-2.3,7.5H-17l-1.5-5.4c-0.1-0.2-0.1-0.4-0.1-0.7l0,0c0,0.2-0.1,0.4-0.2,0.7l-1.7,5.4h-1.2
						l-2.3-7.5h1.3l1.6,5.6c0,0.2,0.1,0.4,0.1,0.7h0.1c0-0.2,0.1-0.4,0.1-0.7l1.7-5.6h1.1l1.6,5.7c0,0.2,0.1,0.4,0.1,0.7h0.1
						c0-0.2,0.1-0.4,0.1-0.7l1.5-5.7C-14.6,12.5-13.5,12.5-13.5,12.5z"/>
					<path class="st1" d="M-5.9,20h-1.2v-4.3c0-1.6-0.6-2.4-1.7-2.4c-0.6,0-1.1,0.2-1.5,0.7s-0.6,1-0.6,1.7V20h-1.2v-7.5h1.2v1.2
						l0,0c0.6-0.9,1.4-1.4,2.5-1.4c0.8,0,1.4,0.3,1.9,0.8c0.4,0.5,0.7,1.3,0.7,2.3V20H-5.9z"/>
					<path class="st1" d="M-2.4,20h-1.2V8.9h1.2V20z"/>
					<path class="st1" d="M3.1,20.2c-1.1,0-2-0.4-2.7-1.1s-1-1.6-1-2.8c0-1.3,0.3-2.2,1-3s1.6-1.1,2.8-1.1c1.1,0,2,0.3,2.6,1
						s0.9,1.6,0.9,2.9c0,1.2-0.3,2.2-1,2.9C5.2,19.8,4.3,20.2,3.1,20.2z M3.2,13.3c-0.8,0-1.4,0.3-1.8,0.8c-0.4,0.5-0.7,1.2-0.7,2.2
						c0,0.9,0.2,1.6,0.7,2.1s1.1,0.8,1.8,0.8c0.8,0,1.4-0.3,1.8-0.8c0.4-0.5,0.6-1.2,0.6-2.1S5.4,14.6,5,14.1
						C4.6,13.6,4,13.3,3.2,13.3z"/>
					<path class="st1" d="M14.1,20h-1.2v-1.2l0,0c-0.5,0.9-1.3,1.3-2.3,1.3c-0.7,0-1.3-0.2-1.8-0.6c-0.4-0.4-0.6-0.9-0.6-1.6
						c0-1.4,0.8-2.2,2.5-2.4l2.2-0.3c0-1.3-0.5-1.9-1.5-1.9c-0.9,0-1.7,0.3-2.4,0.9V13c0.7-0.5,1.6-0.7,2.5-0.7
						c1.8,0,2.6,0.9,2.6,2.8C14.1,15.1,14.1,20,14.1,20z M12.9,16.2l-1.8,0.2c-0.6,0.1-1,0.2-1.3,0.4c-0.3,0.2-0.4,0.5-0.4,1.1
						c0,0.4,0.1,0.7,0.4,0.9c0.3,0.2,0.6,0.3,1,0.3c0.6,0,1.1-0.2,1.5-0.6s0.6-0.9,0.6-1.6C12.9,16.9,12.9,16.2,12.9,16.2z"/>
					<path class="st1" d="M22.8,20h-1.2v-1.3l0,0c-0.6,1-1.4,1.5-2.6,1.5c-0.9,0-1.7-0.3-2.3-1c-0.6-0.7-0.8-1.6-0.8-2.7
						c0-1.2,0.3-2.2,0.9-3c0.6-0.7,1.5-1.1,2.5-1.1s1.8,0.4,2.2,1.2l0,0V8.9h1.2V20H22.8z M21.6,16.6v-1.1c0-0.6-0.2-1.1-0.6-1.5
						s-0.9-0.6-1.5-0.6c-0.7,0-1.3,0.3-1.7,0.8s-0.6,1.3-0.6,2.2s0.2,1.5,0.6,2s0.9,0.8,1.6,0.8s1.2-0.2,1.6-0.7
						C21.4,18,21.6,17.3,21.6,16.6z"/>
					<path class="st1" d="M24.8,19.7v-1.3c0.7,0.5,1.4,0.7,2.2,0.7c1.1,0,1.6-0.4,1.6-1.1c0-0.2,0-0.4-0.1-0.5s-0.2-0.3-0.4-0.4
						c-0.2-0.1-0.3-0.2-0.5-0.3c-0.2-0.1-0.4-0.2-0.7-0.3c-0.3-0.1-0.6-0.3-0.9-0.4s-0.5-0.3-0.6-0.5c-0.2-0.2-0.3-0.4-0.4-0.6
						c-0.1-0.2-0.1-0.5-0.1-0.8c0-0.4,0.1-0.7,0.2-0.9c0.2-0.3,0.4-0.5,0.6-0.7c0.3-0.2,0.6-0.3,0.9-0.4c0.3-0.1,0.7-0.1,1.1-0.1
						c0.6,0,1.2,0.1,1.7,0.3v1.2c-0.6-0.4-1.2-0.5-1.9-0.5c-0.2,0-0.4,0-0.6,0.1s-0.3,0.1-0.5,0.2c-0.1,0.1-0.2,0.2-0.3,0.3
						C26,13.8,26,14,26,14.1c0,0.2,0,0.4,0.1,0.5s0.2,0.2,0.3,0.4c0.1,0.1,0.3,0.2,0.5,0.3s0.4,0.2,0.7,0.3c0.3,0.1,0.6,0.3,0.9,0.4
						c0.3,0.1,0.5,0.3,0.7,0.5s0.3,0.4,0.4,0.6s0.1,0.5,0.1,0.8c0,0.4-0.1,0.7-0.2,1c-0.2,0.3-0.4,0.5-0.7,0.7
						c-0.3,0.2-0.6,0.3-0.9,0.4s-0.7,0.1-1.1,0.1C26,20.2,25.3,20,24.8,19.7z"/>
				</g>
			</g>
			<g transform="translate(124 37)">
				<polygon class="st4" points="-73.8,2 -73.8,14 -59.2,14 -59.2,2.7 -65.8,2.7 -66.5,2 				"/>
				<polygon class="st5" points="-65.8,3.3 -66.5,4.7 -73.2,4.7 -73.2,13.3 -59.8,13.3 -59.8,3.3 				"/>
				<polygon class="st6" points="-64.8,14.3 -64.8,11 -68.2,11 -68.2,14.3 -70.8,14.3 -70.8,8.3 -62.2,8.3 -62.2,14.3 				"/>
				<path class="st7" d="M-71.2,8v6.7h3.3v-3.3h2.7v3.3h3.3V8H-71.2z M-70.5,8.7h8V14h-2v-2.7v-0.7h-0.7h-2.6h-0.7v0.7V14h-2V8.7z"
					/>
			</g>
		</g>
	</g>
	<g transform="translate(157 68)">
		<path class="st8" d="M-72.5,0h63c1.1,0,2,0.9,2,2v18c0,1.1-0.9,2-2,2h-63c-1.1,0-2-0.9-2-2V2C-74.5,0.9-73.6,0-72.5,0z"/>
		<polygon class="st8" points="-11.5,11 -7.5,7 -3.5,11 -7.5,15 		"/>
		<g class="st0">
			<path class="st2" d="M-65.5,15h-1.4V7.9h-2.5V6.7h6.4l-0.1,1.1h-2.4V15z"/>
			<path class="st2" d="M-58.1,14h1.7v1h-5v-1h1.9V9.7h-1.8v-1h3.2V14z M-58.1,6.4c0,0.5-0.4,0.8-0.9,0.8s-0.9-0.4-0.9-0.8
				c0-0.5,0.3-0.9,0.9-0.9C-58.5,5.6-58.1,5.9-58.1,6.4z"/>
			<path class="st2" d="M-50.9,15.2c-1.5,0-2.3-0.8-2.3-2.1V9.7h-1.3v-1h1.4V7.3l1.3-0.2v1.6h2.1l-0.2,1h-2v3.4c0,0.7,0.3,1,1.1,1
				c0.5,0,0.9-0.1,1.2-0.3l0.5,0.9C-49.5,15-50.2,15.2-50.9,15.2z"/>
			<path class="st2" d="M-44.4,13.3c0,0.6,0.4,0.8,1,0.8c0.4,0,0.7-0.1,1-0.2l0.3,0.9c-0.4,0.2-0.9,0.4-1.6,0.4c-1.3,0-2-0.8-2-2v-6
				h-1.9v-1h3.3L-44.4,13.3L-44.4,13.3z"/>
			<path class="st2" d="M-37.1,14.1c0.6,0,1.1-0.2,1.7-0.6l0.6,0.8c-0.6,0.5-1.4,0.8-2.3,0.8c-2,0-3.1-1.3-3.1-3.3
				c0-1.9,1.1-3.3,2.9-3.3c1.7,0,2.7,1.2,2.7,3.2c0,0.2,0,0.4,0,0.6h-4.2C-38.7,13.6-38,14.1-37.1,14.1z M-38.8,11.4h2.9
				c0-1.2-0.5-1.9-1.4-1.9C-38.1,9.5-38.7,10.1-38.8,11.4z"/>
			<path class="st2" d="M-20.7,8.9c0,1.5-0.9,2.6-3.6,5h3.8l-0.2,1.1h-5.1v-1c3-2.9,3.7-3.8,3.7-5c0-0.8-0.5-1.3-1.3-1.3
				c-0.7,0-1.2,0.3-1.7,0.9L-26,7.9c0.7-0.9,1.5-1.3,2.7-1.3C-21.7,6.6-20.7,7.6-20.7,8.9z"/>
			<path class="st2" d="M-13,10.9c0,2.7-1,4.3-2.8,4.3s-2.8-1.6-2.8-4.3s1-4.3,2.8-4.3S-13,8.1-13,10.9z M-17.3,10.9
				c0,2.4,0.5,3.3,1.5,3.3c0.9,0,1.5-0.9,1.5-3.3s-0.5-3.3-1.5-3.3S-17.3,8.5-17.3,10.9z M-15,10.9c0,0.4-0.3,0.8-0.8,0.8
				c-0.4,0-0.8-0.3-0.8-0.8c0-0.4,0.3-0.8,0.8-0.8C-15.3,10.1-15,10.4-15,10.9z"/>
		</g>
	</g>
	<g transform="translate(157 21)">
		<path class="st8" d="M-72.5,0h63c1.1,0,2,0.9,2,2v18c0,1.1-0.9,2-2,2h-63c-1.1,0-2-0.9-2-2V2C-74.5,0.9-73.6,0-72.5,0z"/>
		<polygon class="st8" points="-11.5,11 -7.5,7 -3.5,11 -7.5,15 		"/>
		<g class="st0">
			<path class="st2" d="M-65.5,15h-1.4V7.9h-2.5V6.7h6.4l-0.1,1.1h-2.4V15z"/>
			<path class="st2" d="M-58.1,14h1.7v1h-5v-1h1.9V9.7h-1.8v-1h3.2V14z M-58.1,6.4c0,0.5-0.4,0.8-0.9,0.8s-0.9-0.4-0.9-0.8
				c0-0.5,0.3-0.9,0.9-0.9C-58.5,5.6-58.1,5.9-58.1,6.4z"/>
			<path class="st2" d="M-50.9,15.2c-1.5,0-2.3-0.8-2.3-2.1V9.7h-1.3v-1h1.4V7.3l1.3-0.2v1.6h2.1l-0.2,1h-2v3.4c0,0.7,0.3,1,1.1,1
				c0.5,0,0.9-0.1,1.2-0.3l0.5,0.9C-49.5,15-50.2,15.2-50.9,15.2z"/>
			<path class="st2" d="M-44.4,13.3c0,0.6,0.4,0.8,1,0.8c0.4,0,0.7-0.1,1-0.2l0.3,0.9c-0.4,0.2-0.9,0.4-1.6,0.4c-1.3,0-2-0.8-2-2v-6
				h-1.9v-1h3.3L-44.4,13.3L-44.4,13.3z"/>
			<path class="st2" d="M-37.1,14.1c0.6,0,1.1-0.2,1.7-0.6l0.6,0.8c-0.6,0.5-1.4,0.8-2.3,0.8c-2,0-3.1-1.3-3.1-3.3
				c0-1.9,1.1-3.3,2.9-3.3c1.7,0,2.7,1.2,2.7,3.2c0,0.2,0,0.4,0,0.6h-4.2C-38.7,13.6-38,14.1-37.1,14.1z M-38.8,11.4h2.9
				c0-1.2-0.5-1.9-1.4-1.9C-38.1,9.5-38.7,10.1-38.8,11.4z"/>
			<path class="st2" d="M-20.7,8.7c0,1-0.7,1.7-1.6,1.9c1,0.1,1.9,0.7,1.9,2c0,1.4-1.2,2.5-3,2.5c-1,0-2-0.4-2.7-1.2l0.8-0.7
				c0.5,0.6,1.1,0.8,1.8,0.8c1,0,1.7-0.6,1.7-1.5c0-1.1-0.7-1.5-1.6-1.5h-0.7l0.2-1h0.4c0.8,0,1.5-0.4,1.5-1.3
				c0-0.8-0.6-1.2-1.4-1.2c-0.7,0-1.2,0.3-1.7,0.7l-0.7-0.8c0.7-0.7,1.6-1,2.5-1C-21.7,6.6-20.7,7.5-20.7,8.7z"/>
			<path class="st2" d="M-13,10.9c0,2.7-1,4.3-2.8,4.3s-2.8-1.6-2.8-4.3s1-4.3,2.8-4.3S-13,8.1-13,10.9z M-17.3,10.9
				c0,2.4,0.5,3.3,1.5,3.3c0.9,0,1.5-0.9,1.5-3.3s-0.5-3.3-1.5-3.3S-17.3,8.5-17.3,10.9z M-15,10.9c0,0.4-0.3,0.8-0.8,0.8
				c-0.4,0-0.8-0.3-0.8-0.8c0-0.4,0.3-0.8,0.8-0.8C-15.3,10.1-15,10.4-15,10.9z"/>
		</g>
	</g>
</g>
</svg>
