<?xml version="1.0" encoding="utf-8"?>
<!-- Generator: Adobe Illustrator 21.1.0, SVG Export Plug-In . SVG Version: 6.00 Build 0)  -->
<svg version="1.1" id="Layer_1" xmlns="http://www.w3.org/2000/svg" xmlns:xlink="http://www.w3.org/1999/xlink" x="0px" y="0px"
	 viewBox="0 0 752 147" style="enable-background:new 0 0 752 147;" xml:space="preserve">
<style type="text/css">
	.st0{enable-background:new    ;}
	.st1{fill:#0C0C0D;}
	.st2{fill:#FFFFFF;}
	.st3{fill:none;stroke:#0C0C0D;stroke-opacity:0.3;}
	.st4{fill:#FCB912;}
	.st5{fill:#FAEE5C;}
	.st6{fill:#80D2EB;}
	.st7{fill:#00BFE7;}
	.st8{fill:#0A84FF;}
</style>
<g>
	<g transform="translate(237 18)">
		<g class="st0">
			<path class="st1" d="M3,9.6v6.3h5.7v1H3V24H2V8.6h7.2v1H3z"/>
			<path class="st1" d="M12.5,10.2c-0.2,0-0.4-0.1-0.6-0.2c-0.2-0.2-0.2-0.4-0.2-0.6c0-0.2,0.1-0.4,0.3-0.6c0.2-0.1,0.4-0.2,0.6-0.2
				c0.2,0,0.4,0.1,0.6,0.2c0.2,0.1,0.3,0.3,0.3,0.6c0,0.2-0.1,0.4-0.2,0.6C12.9,10.1,12.7,10.2,12.5,10.2z M12,24V13h1v11H12z"/>
			<path class="st1" d="M16.5,24V7.7h1V24H16.5z"/>
			<path class="st1" d="M21.2,18.5c0,1.5,0.3,2.7,1,3.5s1.7,1.3,2.9,1.3c1.2,0,2.4-0.5,3.6-1.4v1.1c-1.1,0.8-2.4,1.2-3.8,1.2
				c-1.4,0-2.6-0.5-3.4-1.5c-0.9-1-1.3-2.5-1.3-4.3c0-1.6,0.5-3,1.4-4.1c0.9-1.1,2.1-1.6,3.6-1.6c1.4,0,2.4,0.5,3.1,1.4
				s1.1,2.3,1.1,3.9v0.4H21.2z M28.4,17.6c0-1.3-0.3-2.3-0.9-3c-0.6-0.7-1.3-1.1-2.3-1.1c-1,0-1.9,0.3-2.6,1c-0.7,0.7-1.1,1.7-1.3,3
				H28.4z"/>
			<path class="st1" d="M31.5,23.5v-1.2c0.4,0.3,0.8,0.6,1.4,0.8c0.5,0.2,1,0.3,1.4,0.3c1.7,0,2.6-0.7,2.6-2.1
				c0-0.5-0.2-0.9-0.6-1.2c-0.4-0.3-1-0.7-1.8-1.1c-1.1-0.5-1.8-0.9-2.2-1.4c-0.4-0.5-0.6-1.1-0.6-1.8c0-0.9,0.3-1.6,1-2.2
				c0.7-0.6,1.5-0.8,2.5-0.8c0.9,0,1.8,0.2,2.4,0.6v1.1c-0.8-0.5-1.7-0.8-2.5-0.8c-0.7,0-1.3,0.2-1.8,0.6c-0.4,0.4-0.7,0.9-0.7,1.5
				c0,0.5,0.1,0.9,0.4,1.3c0.3,0.3,0.9,0.7,1.8,1.1c1.1,0.5,1.9,1,2.4,1.4c0.4,0.4,0.6,1,0.6,1.8c0,0.9-0.3,1.6-1,2.2
				c-0.7,0.6-1.6,0.9-2.7,0.9C33.1,24.3,32.3,24,31.5,23.5z"/>
			<path class="st1" d="M53.3,24v-2.2h0c-0.4,0.8-0.9,1.4-1.5,1.8c-0.7,0.4-1.4,0.7-2.2,0.7c-1,0-1.9-0.3-2.5-0.9
				c-0.6-0.6-0.9-1.3-0.9-2.2c0-1.9,1.3-3.1,3.8-3.5l3.4-0.5c0-2.4-0.9-3.5-2.7-3.5c-1.2,0-2.4,0.5-3.5,1.5v-1.2
				c0.4-0.3,1-0.6,1.7-0.8s1.4-0.3,2-0.3c1.1,0,2,0.4,2.6,1.1c0.6,0.7,0.9,1.7,0.9,3.1V24H53.3z M50.2,18.5c-1.2,0.2-2,0.4-2.4,0.8
				c-0.5,0.4-0.7,1-0.7,1.8c0,0.7,0.2,1.2,0.6,1.6c0.4,0.4,1,0.6,1.8,0.6c1.1,0,1.9-0.4,2.6-1.2c0.7-0.8,1.1-1.8,1.1-3v-1.1
				L50.2,18.5z"/>
			<path class="st1" d="M65,24v-6.4c0-2.6-1-4-2.9-4c-1.1,0-1.9,0.4-2.6,1.2c-0.7,0.8-1,1.7-1,2.9V24h-1V13h1v2h0
				c0.8-1.5,2.1-2.3,3.8-2.3c1.2,0,2.1,0.4,2.7,1.2c0.6,0.8,0.9,1.9,0.9,3.4V24H65z"/>
			<path class="st1" d="M77.1,24v-2h0c-0.4,0.7-0.9,1.2-1.6,1.7c-0.7,0.4-1.5,0.6-2.4,0.6c-1.4,0-2.5-0.5-3.3-1.5
				c-0.9-1-1.3-2.4-1.3-4.1c0-1.8,0.5-3.2,1.4-4.3c0.9-1.1,2.1-1.6,3.6-1.6c1.6,0,2.8,0.7,3.5,2h0v-7h1V24H77.1z M77.1,17.3
				c0-1-0.3-1.9-1-2.6c-0.6-0.7-1.5-1.1-2.6-1.1c-1.2,0-2.1,0.4-2.9,1.3c-0.8,0.9-1.1,2.1-1.1,3.6c0,1.5,0.3,2.7,1,3.5
				c0.7,0.8,1.5,1.2,2.6,1.2c1.3,0,2.2-0.4,2.9-1.2c0.7-0.8,1-1.7,1-2.8V17.3z"/>
			<path class="st1" d="M97.9,24l-1.8-4.8h-6.7L87.7,24h-1.2l5.8-15.4h1L99.1,24H97.9z M93.2,11.1c-0.1-0.2-0.1-0.4-0.2-0.6
				c-0.1-0.2-0.1-0.4-0.2-0.5h0c-0.1,0.5-0.2,0.9-0.4,1.1l-2.6,7.1h5.9L93.2,11.1z"/>
			<path class="st1" d="M102.5,22L102.5,22l0,7h-1V13h1v2.3h0c0.4-0.8,1-1.4,1.7-1.9c0.7-0.4,1.5-0.7,2.4-0.7c1.4,0,2.5,0.5,3.3,1.4
				c0.8,1,1.2,2.3,1.2,3.9c0,1.8-0.4,3.3-1.3,4.5c-0.9,1.1-2.1,1.7-3.6,1.7C104.5,24.3,103.3,23.5,102.5,22z M102.5,18v1.4
				c0,1.1,0.3,2,1,2.8c0.7,0.8,1.6,1.2,2.7,1.2c1.1,0,2-0.5,2.7-1.4c0.7-1,1.1-2.2,1.1-3.8c0-1.4-0.3-2.5-1-3.3s-1.5-1.2-2.6-1.2
				c-1.3,0-2.3,0.4-3,1.3C102.9,15.8,102.5,16.8,102.5,18z"/>
			<path class="st1" d="M114.9,22L114.9,22l0,7h-1V13h1v2.3h0c0.4-0.8,1-1.4,1.7-1.9c0.7-0.4,1.5-0.7,2.4-0.7c1.4,0,2.5,0.5,3.3,1.4
				c0.8,1,1.2,2.3,1.2,3.9c0,1.8-0.4,3.3-1.3,4.5c-0.9,1.1-2.1,1.7-3.6,1.7C116.9,24.3,115.7,23.5,114.9,22z M114.8,18v1.4
				c0,1.1,0.3,2,1,2.8c0.7,0.8,1.6,1.2,2.7,1.2c1.1,0,2-0.5,2.7-1.4c0.7-1,1.1-2.2,1.1-3.8c0-1.4-0.3-2.5-1-3.3s-1.5-1.2-2.6-1.2
				c-1.3,0-2.3,0.4-3,1.3C115.2,15.8,114.8,16.8,114.8,18z"/>
			<path class="st1" d="M126.2,24V7.7h1V24H126.2z"/>
			<path class="st1" d="M131.2,10.2c-0.2,0-0.4-0.1-0.6-0.2c-0.2-0.2-0.2-0.4-0.2-0.6c0-0.2,0.1-0.4,0.3-0.6
				c0.2-0.1,0.4-0.2,0.6-0.2c0.2,0,0.4,0.1,0.6,0.2c0.2,0.1,0.3,0.3,0.3,0.6c0,0.2-0.1,0.4-0.2,0.6
				C131.6,10.1,131.4,10.2,131.2,10.2z M130.7,24V13h1v11H130.7z"/>
			<path class="st1" d="M142.3,23.5c-0.8,0.5-1.8,0.8-2.9,0.8c-1.5,0-2.7-0.5-3.6-1.5c-0.9-1-1.4-2.4-1.4-4c0-1.7,0.5-3.2,1.5-4.3
				c1-1.1,2.4-1.7,4-1.7c0.8,0,1.7,0.2,2.4,0.5v1.1c-0.8-0.5-1.7-0.7-2.6-0.7c-1.3,0-2.3,0.5-3.1,1.4c-0.8,0.9-1.2,2.1-1.2,3.6
				c0,1.4,0.4,2.6,1.1,3.4c0.7,0.9,1.7,1.3,2.9,1.3c1.1,0,2.1-0.3,2.9-0.9V23.5z"/>
			<path class="st1" d="M151.5,24v-2.2h0c-0.4,0.8-0.9,1.4-1.5,1.8c-0.7,0.4-1.4,0.7-2.2,0.7c-1,0-1.9-0.3-2.5-0.9
				c-0.6-0.6-0.9-1.3-0.9-2.2c0-1.9,1.3-3.1,3.8-3.5l3.4-0.5c0-2.4-0.9-3.5-2.7-3.5c-1.2,0-2.4,0.5-3.5,1.5v-1.2
				c0.4-0.3,1-0.6,1.7-0.8c0.7-0.2,1.4-0.3,2-0.3c1.1,0,2,0.4,2.6,1.1c0.6,0.7,0.9,1.7,0.9,3.1V24H151.5z M148.5,18.5
				c-1.2,0.2-2,0.4-2.4,0.8c-0.5,0.4-0.7,1-0.7,1.8c0,0.7,0.2,1.2,0.7,1.6c0.4,0.4,1,0.6,1.8,0.6c1.1,0,1.9-0.4,2.6-1.2
				c0.7-0.8,1.1-1.8,1.1-3v-1.1L148.5,18.5z"/>
			<path class="st1" d="M160.2,23.8c-0.5,0.2-1,0.4-1.5,0.4c-1.6,0-2.4-1-2.4-2.9v-7.4h-2V13h2v-2.9c0.2-0.1,0.3-0.1,0.5-0.2
				c0.2,0,0.3-0.1,0.5-0.2V13h2.9v0.9h-2.9v7.3c0,0.8,0.1,1.3,0.4,1.6c0.2,0.3,0.6,0.5,1.2,0.5c0.4,0,0.8-0.1,1.3-0.4V23.8z"/>
			<path class="st1" d="M162.8,10.2c-0.2,0-0.4-0.1-0.6-0.2S162,9.6,162,9.4c0-0.2,0.1-0.4,0.3-0.6c0.2-0.1,0.4-0.2,0.6-0.2
				c0.2,0,0.4,0.1,0.6,0.2c0.2,0.1,0.3,0.3,0.3,0.6c0,0.2-0.1,0.4-0.2,0.6S163.1,10.2,162.8,10.2z M162.3,24V13h1v11H162.3z"/>
			<path class="st1" d="M171.3,24.3c-1.6,0-2.9-0.5-3.8-1.6c-0.9-1.1-1.4-2.4-1.4-4.1c0-1.8,0.5-3.3,1.5-4.3c1-1,2.3-1.5,3.9-1.5
				c1.6,0,2.8,0.5,3.7,1.5s1.4,2.4,1.4,4.3c0,1.7-0.5,3.1-1.4,4.2C174.2,23.7,172.9,24.3,171.3,24.3z M171.3,13.6
				c-1.3,0-2.3,0.4-3.1,1.3c-0.8,0.9-1.2,2.1-1.2,3.6c0,1.4,0.4,2.6,1.1,3.5s1.8,1.3,3.1,1.3c1.3,0,2.3-0.4,3.1-1.3
				c0.7-0.9,1.1-2.1,1.1-3.6c0-1.6-0.4-2.8-1.1-3.6C173.7,14.1,172.7,13.6,171.3,13.6z"/>
			<path class="st1" d="M186.7,24v-6.4c0-2.6-1-4-2.9-4c-1.1,0-1.9,0.4-2.6,1.2c-0.7,0.8-1,1.7-1,2.9V24h-1V13h1v2h0
				c0.8-1.5,2.1-2.3,3.8-2.3c1.2,0,2.1,0.4,2.7,1.2c0.6,0.8,0.9,1.9,0.9,3.4V24H186.7z"/>
			<path class="st1" d="M190.4,23.5v-1.2c0.4,0.3,0.8,0.6,1.4,0.8s1,0.3,1.4,0.3c1.7,0,2.6-0.7,2.6-2.1c0-0.5-0.2-0.9-0.6-1.2
				s-1-0.7-1.8-1.1c-1.1-0.5-1.8-0.9-2.2-1.4c-0.4-0.5-0.6-1.1-0.6-1.8c0-0.9,0.3-1.6,1-2.2c0.7-0.6,1.5-0.8,2.5-0.8
				c0.9,0,1.8,0.2,2.4,0.6v1.1c-0.8-0.5-1.7-0.8-2.5-0.8c-0.7,0-1.3,0.2-1.8,0.6c-0.4,0.4-0.7,0.9-0.7,1.5c0,0.5,0.1,0.9,0.4,1.3
				c0.3,0.3,0.9,0.7,1.8,1.1c1.1,0.5,1.9,1,2.4,1.4c0.4,0.4,0.6,1,0.6,1.8c0,0.9-0.3,1.6-1,2.2c-0.7,0.6-1.6,0.9-2.7,0.9
				C192,24.3,191.1,24,190.4,23.5z"/>
		</g>
		<g transform="translate(0 50)">
			<g class="st0">
				<path class="st1" d="M1.6,18V6.1h3.3c4.2,0,6.3,1.9,6.3,5.8c0,1.8-0.6,3.3-1.7,4.4C8.2,17.4,6.7,18,4.7,18H1.6z M3,7.4v9.4h1.8
					c1.6,0,2.8-0.4,3.6-1.3c0.9-0.8,1.3-2,1.3-3.6c0-3-1.6-4.6-4.9-4.6H3z"/>
				<path class="st1" d="M16.9,18.2c-1.3,0-2.3-0.4-3-1.2c-0.8-0.8-1.1-1.8-1.1-3.2c0-1.4,0.4-2.5,1.2-3.3c0.8-0.8,1.8-1.2,3.2-1.2
					c1.3,0,2.3,0.4,3,1.2c0.7,0.8,1.1,1.9,1.1,3.2c0,1.4-0.4,2.4-1.1,3.3C19.2,17.8,18.1,18.2,16.9,18.2z M17,10.4
					c-0.9,0-1.6,0.3-2.1,0.9s-0.8,1.4-0.8,2.5c0,1,0.3,1.8,0.8,2.4c0.5,0.6,1.2,0.9,2.1,0.9c0.9,0,1.6-0.3,2-0.9
					c0.5-0.6,0.7-1.4,0.7-2.4c0-1.1-0.2-1.9-0.7-2.5C18.5,10.7,17.8,10.4,17,10.4z"/>
				<path class="st1" d="M34,9.5L31.4,18H30l-1.8-6.1c-0.1-0.2-0.1-0.5-0.1-0.8h0c0,0.2-0.1,0.5-0.2,0.8L26,18h-1.4l-2.6-8.5h1.4
					l1.8,6.4c0.1,0.2,0.1,0.4,0.1,0.8h0.1c0-0.2,0.1-0.5,0.1-0.8l2-6.4h1.2l1.8,6.4c0.1,0.2,0.1,0.5,0.1,0.8h0.1
					c0-0.2,0.1-0.5,0.1-0.8l1.7-6.4H34z"/>
				<path class="st1" d="M42.6,18h-1.4v-4.8c0-1.8-0.7-2.7-2-2.7c-0.7,0-1.2,0.3-1.7,0.8c-0.4,0.5-0.7,1.2-0.7,1.9V18h-1.4V9.5h1.4
					v1.4h0c0.6-1.1,1.6-1.6,2.8-1.6c0.9,0,1.6,0.3,2.1,0.9s0.7,1.5,0.7,2.6V18z"/>
				<path class="st1" d="M46.5,18h-1.4V5.4h1.4V18z"/>
				<path class="st1" d="M52.8,18.2c-1.3,0-2.3-0.4-3-1.2c-0.8-0.8-1.1-1.8-1.1-3.2c0-1.4,0.4-2.5,1.2-3.3c0.8-0.8,1.8-1.2,3.2-1.2
					c1.3,0,2.3,0.4,3,1.2c0.7,0.8,1.1,1.9,1.1,3.2c0,1.4-0.4,2.4-1.1,3.3C55.2,17.8,54.1,18.2,52.8,18.2z M52.9,10.4
					c-0.9,0-1.6,0.3-2.1,0.9s-0.8,1.4-0.8,2.5c0,1,0.3,1.8,0.8,2.4c0.5,0.6,1.2,0.9,2.1,0.9c0.9,0,1.6-0.3,2-0.9
					c0.5-0.6,0.7-1.4,0.7-2.4c0-1.1-0.2-1.9-0.7-2.5C54.5,10.7,53.8,10.4,52.9,10.4z"/>
				<path class="st1" d="M65.3,18H64v-1.3h0c-0.6,1-1.5,1.5-2.6,1.5c-0.8,0-1.5-0.2-2-0.7c-0.5-0.4-0.7-1-0.7-1.8
					c0-1.6,0.9-2.5,2.8-2.8l2.5-0.4c0-1.4-0.6-2.2-1.8-2.2c-1,0-1.9,0.3-2.8,1v-1.4c0.8-0.5,1.8-0.8,2.9-0.8c2,0,3,1.1,3,3.2V18z
					 M64,13.7L61.9,14c-0.6,0.1-1.1,0.2-1.4,0.5c-0.3,0.2-0.5,0.6-0.5,1.2c0,0.4,0.1,0.8,0.4,1c0.3,0.3,0.7,0.4,1.2,0.4
					c0.7,0,1.2-0.2,1.7-0.7c0.4-0.5,0.7-1.1,0.7-1.8V13.7z"/>
				<path class="st1" d="M75.1,18h-1.4v-1.4h0c-0.6,1.1-1.6,1.6-2.9,1.6c-1.1,0-1.9-0.4-2.6-1.1c-0.6-0.8-1-1.8-1-3.1
					c0-1.4,0.4-2.5,1.1-3.4c0.7-0.8,1.7-1.3,2.8-1.3c1.2,0,2,0.5,2.5,1.4h0V5.4h1.4V18z M73.8,14.2v-1.3c0-0.7-0.2-1.3-0.7-1.7
					s-1-0.7-1.7-0.7c-0.8,0-1.5,0.3-2,0.9s-0.7,1.5-0.7,2.5c0,1,0.2,1.8,0.7,2.3c0.5,0.6,1.1,0.9,1.8,0.9c0.8,0,1.4-0.3,1.8-0.8
					C73.5,15.7,73.8,15,73.8,14.2z"/>
				<path class="st1" d="M77.4,17.7v-1.5c0.7,0.5,1.6,0.8,2.4,0.8c1.2,0,1.8-0.4,1.8-1.2c0-0.2-0.1-0.4-0.2-0.6
					c-0.1-0.2-0.2-0.3-0.4-0.4c-0.2-0.1-0.4-0.2-0.6-0.3c-0.2-0.1-0.5-0.2-0.8-0.3c-0.4-0.1-0.7-0.3-1-0.5c-0.3-0.2-0.5-0.3-0.7-0.5
					c-0.2-0.2-0.3-0.4-0.4-0.7c-0.1-0.2-0.1-0.5-0.1-0.9c0-0.4,0.1-0.8,0.3-1.1c0.2-0.3,0.4-0.6,0.7-0.8c0.3-0.2,0.7-0.4,1-0.5
					c0.4-0.1,0.8-0.2,1.2-0.2c0.7,0,1.4,0.1,2,0.4v1.4c-0.6-0.4-1.3-0.6-2.2-0.6c-0.3,0-0.5,0-0.7,0.1c-0.2,0.1-0.4,0.1-0.5,0.2
					c-0.1,0.1-0.3,0.2-0.3,0.4c-0.1,0.1-0.1,0.3-0.1,0.5c0,0.2,0,0.4,0.1,0.6c0.1,0.2,0.2,0.3,0.4,0.4c0.2,0.1,0.3,0.2,0.6,0.3
					c0.2,0.1,0.5,0.2,0.8,0.3c0.4,0.1,0.7,0.3,1,0.4s0.6,0.3,0.8,0.5c0.2,0.2,0.4,0.4,0.5,0.7c0.1,0.2,0.2,0.5,0.2,0.9
					c0,0.4-0.1,0.8-0.3,1.1c-0.2,0.3-0.4,0.6-0.7,0.8c-0.3,0.2-0.7,0.4-1.1,0.5s-0.8,0.1-1.3,0.1C78.8,18.2,78,18,77.4,17.7z"/>
			</g>
			<g transform="translate(0 33)">
				<g class="st0">
					<path class="st1" d="M28.9,15.6v-1.5c0.2,0.1,0.4,0.3,0.6,0.4c0.2,0.1,0.5,0.2,0.7,0.3c0.3,0.1,0.5,0.1,0.8,0.2
						s0.5,0.1,0.7,0.1c0.8,0,1.3-0.1,1.7-0.4c0.4-0.3,0.6-0.7,0.6-1.2c0-0.3-0.1-0.5-0.2-0.7c-0.1-0.2-0.3-0.4-0.5-0.6
						c-0.2-0.2-0.5-0.3-0.8-0.5c-0.3-0.2-0.6-0.3-1-0.5c-0.4-0.2-0.7-0.4-1-0.6c-0.3-0.2-0.6-0.4-0.8-0.6c-0.2-0.2-0.4-0.5-0.6-0.8
						c-0.1-0.3-0.2-0.6-0.2-1c0-0.5,0.1-0.9,0.3-1.2C29.4,6.5,29.7,6.2,30,6c0.3-0.2,0.7-0.4,1.2-0.5c0.4-0.1,0.9-0.2,1.3-0.2
						c1,0,1.8,0.1,2.3,0.4v1.4c-0.6-0.4-1.4-0.6-2.4-0.6c-0.3,0-0.5,0-0.8,0.1c-0.3,0.1-0.5,0.1-0.7,0.3c-0.2,0.1-0.4,0.3-0.5,0.5
						S30.2,7.7,30.2,8c0,0.3,0,0.5,0.1,0.7s0.2,0.4,0.4,0.5s0.4,0.3,0.7,0.5s0.6,0.3,1,0.5c0.4,0.2,0.7,0.4,1.1,0.6s0.6,0.4,0.9,0.7
						c0.3,0.2,0.5,0.5,0.6,0.8s0.2,0.6,0.2,1c0,0.5-0.1,1-0.3,1.3c-0.2,0.4-0.5,0.7-0.8,0.9c-0.3,0.2-0.7,0.4-1.2,0.5
						c-0.4,0.1-0.9,0.2-1.4,0.2c-0.2,0-0.4,0-0.6,0c-0.2,0-0.5-0.1-0.7-0.1c-0.3-0.1-0.5-0.1-0.7-0.2C29.2,15.8,29,15.7,28.9,15.6z"
						/>
					<path class="st1" d="M42.6,16h-1.2v-1.2h0c-0.5,0.9-1.3,1.3-2.3,1.3c-0.7,0-1.3-0.2-1.8-0.6c-0.4-0.4-0.6-0.9-0.6-1.6
						c0-1.4,0.8-2.2,2.5-2.4l2.2-0.3c0-1.3-0.5-1.9-1.5-1.9c-0.9,0-1.7,0.3-2.4,0.9V9c0.7-0.5,1.6-0.7,2.5-0.7
						c1.8,0,2.6,0.9,2.6,2.8V16z M41.4,12.2l-1.8,0.2c-0.6,0.1-1,0.2-1.3,0.4c-0.3,0.2-0.4,0.5-0.4,1.1c0,0.4,0.1,0.7,0.4,0.9
						c0.3,0.2,0.6,0.3,1,0.3c0.6,0,1.1-0.2,1.5-0.6c0.4-0.4,0.6-0.9,0.6-1.6V12.2z"/>
					<path class="st1" d="M50.7,8.5l-3,7.5h-1.2l-2.8-7.5H45l1.9,5.4c0.1,0.4,0.2,0.8,0.3,1h0c0-0.4,0.1-0.7,0.2-1l2-5.5H50.7z"/>
					<path class="st1" d="M58,12.6h-5.3c0,0.8,0.2,1.5,0.7,1.9c0.4,0.5,1,0.7,1.8,0.7c0.8,0,1.6-0.3,2.3-0.8v1.1
						c-0.7,0.5-1.5,0.7-2.6,0.7c-1.1,0-1.9-0.3-2.5-1c-0.6-0.7-0.9-1.6-0.9-2.9c0-1.2,0.3-2.1,1-2.9c0.7-0.7,1.5-1.1,2.5-1.1
						s1.7,0.3,2.3,1s0.8,1.5,0.8,2.6V12.6z M56.8,11.5c0-0.7-0.2-1.2-0.5-1.6c-0.3-0.4-0.8-0.6-1.4-0.6c-0.6,0-1,0.2-1.4,0.6
						s-0.6,0.9-0.7,1.6H56.8z"/>
					<path class="st1" d="M67.7,6c-0.2-0.1-0.5-0.2-0.8-0.2c-0.8,0-1.3,0.5-1.3,1.6v1.2h1.8v1h-1.8V16h-1.2V9.5h-1.3v-1h1.3V7.3
						c0-0.8,0.2-1.4,0.7-1.9c0.5-0.5,1-0.7,1.7-0.7c0.4,0,0.7,0,0.9,0.1V6z"/>
					<path class="st1" d="M69.3,6.6c-0.2,0-0.4-0.1-0.5-0.2S68.5,6,68.5,5.8s0.1-0.4,0.2-0.6C68.9,5.1,69,5,69.3,5
						c0.2,0,0.4,0.1,0.6,0.2c0.2,0.1,0.2,0.3,0.2,0.6c0,0.2-0.1,0.4-0.2,0.5C69.7,6.5,69.5,6.6,69.3,6.6z M69.9,16h-1.2V8.5h1.2V16z
						"/>
					<path class="st1" d="M73.5,16h-1.2V4.9h1.2V16z"/>
					<path class="st1" d="M81.9,12.6h-5.3c0,0.8,0.2,1.5,0.7,1.9c0.4,0.5,1,0.7,1.8,0.7c0.8,0,1.6-0.3,2.3-0.8v1.1
						c-0.7,0.5-1.5,0.7-2.6,0.7c-1.1,0-1.9-0.3-2.5-1c-0.6-0.7-0.9-1.6-0.9-2.9c0-1.2,0.3-2.1,1-2.9c0.7-0.7,1.5-1.1,2.5-1.1
						s1.7,0.3,2.3,1s0.8,1.5,0.8,2.6V12.6z M80.7,11.5c0-0.7-0.2-1.2-0.5-1.6c-0.3-0.4-0.8-0.6-1.4-0.6c-0.6,0-1,0.2-1.4,0.6
						s-0.6,0.9-0.7,1.6H80.7z"/>
					<path class="st1" d="M83.3,15.7v-1.3c0.7,0.5,1.4,0.7,2.2,0.7c1.1,0,1.6-0.4,1.6-1.1c0-0.2,0-0.4-0.1-0.5
						c-0.1-0.1-0.2-0.3-0.4-0.4c-0.2-0.1-0.3-0.2-0.5-0.3c-0.2-0.1-0.4-0.2-0.7-0.3c-0.3-0.1-0.6-0.3-0.9-0.4
						c-0.3-0.1-0.5-0.3-0.6-0.5c-0.2-0.2-0.3-0.4-0.4-0.6c-0.1-0.2-0.1-0.5-0.1-0.8c0-0.4,0.1-0.7,0.2-0.9c0.2-0.3,0.4-0.5,0.6-0.7
						c0.3-0.2,0.6-0.3,0.9-0.4c0.3-0.1,0.7-0.1,1.1-0.1c0.6,0,1.2,0.1,1.7,0.3v1.2c-0.6-0.4-1.2-0.5-1.9-0.5c-0.2,0-0.4,0-0.6,0.1
						c-0.2,0.1-0.3,0.1-0.5,0.2s-0.2,0.2-0.3,0.3c-0.1,0.1-0.1,0.3-0.1,0.4c0,0.2,0,0.4,0.1,0.5c0.1,0.1,0.2,0.2,0.3,0.4
						c0.1,0.1,0.3,0.2,0.5,0.3c0.2,0.1,0.4,0.2,0.7,0.3c0.3,0.1,0.6,0.3,0.9,0.4c0.3,0.1,0.5,0.3,0.7,0.5c0.2,0.2,0.3,0.4,0.4,0.6
						c0.1,0.2,0.1,0.5,0.1,0.8c0,0.4-0.1,0.7-0.2,1s-0.4,0.5-0.7,0.7c-0.3,0.2-0.6,0.3-0.9,0.4s-0.7,0.1-1.1,0.1
						C84.5,16.2,83.9,16,83.3,15.7z"/>
					<path class="st1" d="M97.7,15.9c-0.3,0.2-0.7,0.2-1.1,0.2c-1.3,0-2-0.7-2-2.2V9.5h-1.3v-1h1.3V6.7l1.2-0.4v2.2h1.9v1h-1.9v4.2
						c0,0.5,0.1,0.9,0.3,1.1s0.5,0.3,0.8,0.3c0.3,0,0.6-0.1,0.8-0.2V15.9z"/>
					<path class="st1" d="M102.5,16.2c-1.1,0-2-0.4-2.7-1.1c-0.7-0.7-1-1.6-1-2.8c0-1.3,0.3-2.2,1-3s1.6-1.1,2.8-1.1
						c1.1,0,2,0.3,2.6,1c0.6,0.7,0.9,1.6,0.9,2.9c0,1.2-0.3,2.2-1,2.9C104.5,15.8,103.6,16.2,102.5,16.2z M102.5,9.3
						c-0.8,0-1.4,0.3-1.8,0.8c-0.4,0.5-0.7,1.2-0.7,2.2c0,0.9,0.2,1.6,0.7,2.1c0.5,0.5,1.1,0.8,1.8,0.8c0.8,0,1.4-0.3,1.8-0.8
						c0.4-0.5,0.6-1.2,0.6-2.1c0-0.9-0.2-1.7-0.6-2.2C103.9,9.6,103.3,9.3,102.5,9.3z"/>
				</g>
				<g transform="translate(0 2)">
					<g>
						<rect id="title2-a" class="st2" width="20" height="20"/>
					</g>
					<rect x="0.5" y="0.5" class="st3" width="19" height="19"/>
				</g>
			</g>
			<g transform="translate(0 67)">
				<g class="st0">
					<path class="st1" d="M37.5,16h-1.4L35,13.1h-4.5l-1,2.9h-1.4l4-10.5h1.3L37.5,16z M34.6,11.9L33,7.5c-0.1-0.1-0.1-0.4-0.2-0.7
						h0c0,0.3-0.1,0.5-0.2,0.7L31,11.9H34.6z"/>
					<path class="st1" d="M40.1,16h-1.2V4.9h1.2V16z"/>
					<path class="st1" d="M52,8.5L49.7,16h-1.2l-1.5-5.4c-0.1-0.2-0.1-0.4-0.1-0.7h0c0,0.2-0.1,0.4-0.2,0.7L45,16h-1.2l-2.3-7.5h1.3
						l1.6,5.6c0,0.2,0.1,0.4,0.1,0.7h0.1c0-0.2,0.1-0.4,0.1-0.7l1.7-5.6h1.1l1.6,5.7c0,0.2,0.1,0.4,0.1,0.7h0.1
						c0-0.2,0.1-0.4,0.1-0.7l1.5-5.7H52z"/>
					<path class="st1" d="M58.7,16h-1.2v-1.2h0c-0.5,0.9-1.3,1.3-2.3,1.3c-0.7,0-1.3-0.2-1.8-0.6c-0.4-0.4-0.6-0.9-0.6-1.6
						c0-1.4,0.8-2.2,2.5-2.4l2.2-0.3c0-1.3-0.5-1.9-1.5-1.9c-0.9,0-1.7,0.3-2.4,0.9V9c0.7-0.5,1.6-0.7,2.5-0.7
						c1.8,0,2.6,0.9,2.6,2.8V16z M57.5,12.2l-1.8,0.2c-0.6,0.1-1,0.2-1.3,0.4c-0.3,0.2-0.4,0.5-0.4,1.1c0,0.4,0.1,0.7,0.4,0.9
						c0.3,0.2,0.6,0.3,1,0.3c0.6,0,1.1-0.2,1.5-0.6c0.4-0.4,0.6-0.9,0.6-1.6V12.2z"/>
					<path class="st1" d="M67,8.5l-3.4,8.7c-0.6,1.6-1.5,2.3-2.6,2.3c-0.3,0-0.6,0-0.8-0.1v-1.1c0.3,0.1,0.5,0.1,0.7,0.1
						c0.6,0,1.1-0.4,1.4-1.1l0.6-1.4l-2.9-7.5h1.3l2,5.8c0,0.1,0.1,0.3,0.2,0.6h0c0-0.1,0.1-0.3,0.1-0.6l2.1-5.8H67z"/>
					<path class="st1" d="M67.8,15.7v-1.3c0.7,0.5,1.4,0.7,2.2,0.7c1.1,0,1.6-0.4,1.6-1.1c0-0.2,0-0.4-0.1-0.5
						c-0.1-0.1-0.2-0.3-0.4-0.4c-0.2-0.1-0.3-0.2-0.5-0.3c-0.2-0.1-0.4-0.2-0.7-0.3c-0.3-0.1-0.6-0.3-0.9-0.4
						c-0.3-0.1-0.5-0.3-0.6-0.5c-0.2-0.2-0.3-0.4-0.4-0.6c-0.1-0.2-0.1-0.5-0.1-0.8c0-0.4,0.1-0.7,0.2-0.9c0.2-0.3,0.4-0.5,0.6-0.7
						c0.3-0.2,0.6-0.3,0.9-0.4c0.3-0.1,0.7-0.1,1.1-0.1c0.6,0,1.2,0.1,1.7,0.3v1.2c-0.6-0.4-1.2-0.5-1.9-0.5c-0.2,0-0.4,0-0.6,0.1
						c-0.2,0.1-0.3,0.1-0.5,0.2s-0.2,0.2-0.3,0.3c-0.1,0.1-0.1,0.3-0.1,0.4c0,0.2,0,0.4,0.1,0.5c0.1,0.1,0.2,0.2,0.3,0.4
						c0.1,0.1,0.3,0.2,0.5,0.3c0.2,0.1,0.4,0.2,0.7,0.3c0.3,0.1,0.6,0.3,0.9,0.4c0.3,0.1,0.5,0.3,0.7,0.5c0.2,0.2,0.3,0.4,0.4,0.6
						c0.1,0.2,0.1,0.5,0.1,0.8c0,0.4-0.1,0.7-0.2,1s-0.4,0.5-0.7,0.7c-0.3,0.2-0.6,0.3-0.9,0.4s-0.7,0.1-1.1,0.1
						C69,16.2,68.4,16,67.8,15.7z"/>
					<path class="st1" d="M84.1,16h-1.2v-1.2h0c-0.5,0.9-1.3,1.3-2.3,1.3c-0.7,0-1.3-0.2-1.8-0.6c-0.4-0.4-0.6-0.9-0.6-1.6
						c0-1.4,0.8-2.2,2.5-2.4l2.2-0.3c0-1.3-0.5-1.9-1.5-1.9c-0.9,0-1.7,0.3-2.4,0.9V9c0.7-0.5,1.6-0.7,2.5-0.7
						c1.8,0,2.6,0.9,2.6,2.8V16z M82.9,12.2l-1.8,0.2c-0.6,0.1-1,0.2-1.3,0.4c-0.3,0.2-0.4,0.5-0.4,1.1c0,0.4,0.1,0.7,0.4,0.9
						c0.3,0.2,0.6,0.3,1,0.3c0.6,0,1.1-0.2,1.5-0.6c0.4-0.4,0.6-0.9,0.6-1.6V12.2z"/>
					<path class="st1" d="M85.9,15.7v-1.3c0.7,0.5,1.4,0.7,2.2,0.7c1.1,0,1.6-0.4,1.6-1.1c0-0.2,0-0.4-0.1-0.5
						c-0.1-0.1-0.2-0.3-0.4-0.4c-0.2-0.1-0.3-0.2-0.5-0.3c-0.2-0.1-0.4-0.2-0.7-0.3c-0.3-0.1-0.6-0.3-0.9-0.4
						c-0.3-0.1-0.5-0.3-0.6-0.5c-0.2-0.2-0.3-0.4-0.4-0.6c-0.1-0.2-0.1-0.5-0.1-0.8c0-0.4,0.1-0.7,0.2-0.9c0.2-0.3,0.4-0.5,0.6-0.7
						c0.3-0.2,0.6-0.3,0.9-0.4c0.3-0.1,0.7-0.1,1.1-0.1c0.6,0,1.2,0.1,1.7,0.3v1.2c-0.6-0.4-1.2-0.5-1.9-0.5c-0.2,0-0.4,0-0.6,0.1
						c-0.2,0.1-0.3,0.1-0.5,0.2s-0.2,0.2-0.3,0.3c-0.1,0.1-0.1,0.3-0.1,0.4c0,0.2,0,0.4,0.1,0.5c0.1,0.1,0.2,0.2,0.3,0.4
						c0.1,0.1,0.3,0.2,0.5,0.3c0.2,0.1,0.4,0.2,0.7,0.3c0.3,0.1,0.6,0.3,0.9,0.4c0.3,0.1,0.5,0.3,0.7,0.5c0.2,0.2,0.3,0.4,0.4,0.6
						c0.1,0.2,0.1,0.5,0.1,0.8c0,0.4-0.1,0.7-0.2,1s-0.4,0.5-0.7,0.7C89.7,15.8,89.4,16,89,16s-0.7,0.1-1.1,0.1
						C87.1,16.2,86.5,16,85.9,15.7z"/>
					<path class="st1" d="M98.9,16h-1.7L94,12.4h0V16h-1.2V4.9h1.2v7h0l3.1-3.4h1.6l-3.5,3.6L98.9,16z"/>
					<path class="st1" d="M110.3,8.5l-3.4,8.7c-0.6,1.6-1.5,2.3-2.6,2.3c-0.3,0-0.6,0-0.8-0.1v-1.1c0.3,0.1,0.5,0.1,0.7,0.1
						c0.6,0,1.1-0.4,1.4-1.1l0.6-1.4l-2.9-7.5h1.3l2,5.8c0,0.1,0.1,0.3,0.2,0.6h0c0-0.1,0.1-0.3,0.1-0.6l2.1-5.8H110.3z"/>
					<path class="st1" d="M114.7,16.2c-1.1,0-2-0.4-2.7-1.1c-0.7-0.7-1-1.6-1-2.8c0-1.3,0.3-2.2,1-3s1.6-1.1,2.8-1.1
						c1.1,0,2,0.3,2.6,1c0.6,0.7,0.9,1.6,0.9,2.9c0,1.2-0.3,2.2-1,2.9C116.7,15.8,115.8,16.2,114.7,16.2z M114.8,9.3
						c-0.8,0-1.4,0.3-1.8,0.8c-0.4,0.5-0.7,1.2-0.7,2.2c0,0.9,0.2,1.6,0.7,2.1c0.5,0.5,1.1,0.8,1.8,0.8c0.8,0,1.4-0.3,1.8-0.8
						c0.4-0.5,0.6-1.2,0.6-2.1c0-0.9-0.2-1.7-0.6-2.2C116.1,9.6,115.5,9.3,114.8,9.3z"/>
					<path class="st1" d="M126.4,16h-1.2v-1.2h0c-0.5,0.9-1.3,1.4-2.3,1.4c-1.8,0-2.7-1.1-2.7-3.2V8.5h1.2v4.3
						c0,1.6,0.6,2.4,1.8,2.4c0.6,0,1.1-0.2,1.4-0.6c0.4-0.4,0.6-1,0.6-1.7V8.5h1.2V16z"/>
					<path class="st1" d="M142.4,8.5l-2.2,7.5h-1.2l-1.5-5.4c-0.1-0.2-0.1-0.4-0.1-0.7h0c0,0.2-0.1,0.4-0.2,0.7l-1.7,5.4h-1.2
						l-2.3-7.5h1.3l1.6,5.6c0,0.2,0.1,0.4,0.1,0.7h0.1c0-0.2,0.1-0.4,0.1-0.7l1.7-5.6h1.1l1.6,5.7c0,0.2,0.1,0.4,0.1,0.7h0.1
						c0-0.2,0.1-0.4,0.1-0.7l1.5-5.7H142.4z"/>
					<path class="st1" d="M150,16h-1.2v-4.3c0-1.6-0.6-2.3-1.7-2.3c-0.6,0-1.1,0.2-1.5,0.7c-0.4,0.5-0.6,1-0.6,1.7V16h-1.2V4.9h1.2
						v4.8h0c0.6-0.9,1.4-1.4,2.5-1.4c1.7,0,2.5,1,2.5,3.1V16z"/>
					<path class="st1" d="M158.3,12.6H153c0,0.8,0.2,1.5,0.7,1.9c0.4,0.5,1,0.7,1.8,0.7c0.8,0,1.6-0.3,2.3-0.8v1.1
						c-0.7,0.5-1.5,0.7-2.6,0.7c-1.1,0-1.9-0.3-2.5-1c-0.6-0.7-0.9-1.6-0.9-2.9c0-1.2,0.3-2.1,1-2.9c0.7-0.7,1.5-1.1,2.5-1.1
						s1.7,0.3,2.3,1s0.8,1.5,0.8,2.6V12.6z M157.1,11.5c0-0.7-0.2-1.2-0.5-1.6c-0.3-0.4-0.8-0.6-1.4-0.6c-0.6,0-1,0.2-1.4,0.6
						s-0.6,0.9-0.7,1.6H157.1z"/>
					<path class="st1" d="M164,9.7c-0.2-0.2-0.5-0.2-0.9-0.2c-0.5,0-0.9,0.2-1.3,0.7s-0.5,1.1-0.5,2V16h-1.2V8.5h1.2V10h0
						c0.2-0.5,0.4-0.9,0.8-1.2c0.4-0.3,0.7-0.4,1.2-0.4c0.3,0,0.6,0,0.7,0.1V9.7z"/>
					<path class="st1" d="M171.3,12.6h-5.3c0,0.8,0.2,1.5,0.7,1.9c0.4,0.5,1,0.7,1.8,0.7c0.8,0,1.6-0.3,2.3-0.8v1.1
						c-0.7,0.5-1.5,0.7-2.6,0.7c-1.1,0-1.9-0.3-2.5-1c-0.6-0.7-0.9-1.6-0.9-2.9c0-1.2,0.3-2.1,1-2.9c0.7-0.7,1.5-1.1,2.5-1.1
						c1,0,1.7,0.3,2.3,1s0.8,1.5,0.8,2.6V12.6z M170.1,11.5c0-0.7-0.2-1.2-0.5-1.6s-0.8-0.6-1.4-0.6c-0.6,0-1,0.2-1.4,0.6
						c-0.4,0.4-0.6,0.9-0.7,1.6H170.1z"/>
					<path class="st1" d="M180.8,15.9c-0.3,0.2-0.7,0.2-1.1,0.2c-1.3,0-2-0.7-2-2.2V9.5h-1.3v-1h1.3V6.7l1.2-0.4v2.2h1.9v1h-1.9v4.2
						c0,0.5,0.1,0.9,0.3,1.1c0.2,0.2,0.5,0.3,0.8,0.3c0.3,0,0.6-0.1,0.8-0.2V15.9z"/>
					<path class="st1" d="M185.5,16.2c-1.1,0-2-0.4-2.7-1.1c-0.7-0.7-1-1.6-1-2.8c0-1.3,0.3-2.2,1-3s1.6-1.1,2.8-1.1
						c1.1,0,2,0.3,2.6,1c0.6,0.7,0.9,1.6,0.9,2.9c0,1.2-0.3,2.2-1,2.9C187.5,15.8,186.6,16.2,185.5,16.2z M185.6,9.3
						c-0.8,0-1.4,0.3-1.8,0.8c-0.4,0.5-0.7,1.2-0.7,2.2c0,0.9,0.2,1.6,0.7,2.1c0.5,0.5,1.1,0.8,1.8,0.8c0.8,0,1.4-0.3,1.8-0.8
						c0.4-0.5,0.6-1.2,0.6-2.1c0-0.9-0.2-1.7-0.6-2.2S186.4,9.3,185.6,9.3z"/>
					<path class="st1" d="M194.8,15.7v-1.3c0.7,0.5,1.4,0.7,2.2,0.7c1.1,0,1.6-0.4,1.6-1.1c0-0.2,0-0.4-0.1-0.5
						c-0.1-0.1-0.2-0.3-0.4-0.4c-0.2-0.1-0.3-0.2-0.5-0.3c-0.2-0.1-0.4-0.2-0.7-0.3c-0.3-0.1-0.6-0.3-0.9-0.4
						c-0.3-0.1-0.5-0.3-0.6-0.5c-0.2-0.2-0.3-0.4-0.4-0.6c-0.1-0.2-0.1-0.5-0.1-0.8c0-0.4,0.1-0.7,0.2-0.9c0.2-0.3,0.4-0.5,0.6-0.7
						c0.3-0.2,0.6-0.3,0.9-0.4c0.3-0.1,0.7-0.1,1.1-0.1c0.6,0,1.2,0.1,1.7,0.3v1.2c-0.6-0.4-1.2-0.5-1.9-0.5c-0.2,0-0.4,0-0.6,0.1
						c-0.2,0.1-0.3,0.1-0.5,0.2s-0.2,0.2-0.3,0.3c-0.1,0.1-0.1,0.3-0.1,0.4c0,0.2,0,0.4,0.1,0.5c0.1,0.1,0.2,0.2,0.3,0.4
						c0.1,0.1,0.3,0.2,0.5,0.3c0.2,0.1,0.4,0.2,0.7,0.3c0.3,0.1,0.6,0.3,0.9,0.4c0.3,0.1,0.5,0.3,0.7,0.5c0.2,0.2,0.3,0.4,0.4,0.6
						c0.1,0.2,0.2,0.5,0.2,0.8c0,0.4-0.1,0.7-0.2,1s-0.4,0.5-0.7,0.7c-0.3,0.2-0.6,0.3-0.9,0.4c-0.4,0.1-0.7,0.1-1.1,0.1
						C196,16.2,195.4,16,194.8,15.7z"/>
					<path class="st1" d="M207,16h-1.2v-1.2h0c-0.5,0.9-1.3,1.3-2.3,1.3c-0.7,0-1.3-0.2-1.8-0.6c-0.4-0.4-0.6-0.9-0.6-1.6
						c0-1.4,0.8-2.2,2.5-2.4l2.2-0.3c0-1.3-0.5-1.9-1.5-1.9c-0.9,0-1.7,0.3-2.4,0.9V9c0.7-0.5,1.6-0.7,2.5-0.7
						c1.8,0,2.6,0.9,2.6,2.8V16z M205.8,12.2l-1.8,0.2c-0.6,0.1-1,0.2-1.3,0.4c-0.3,0.2-0.4,0.5-0.4,1.1c0,0.4,0.1,0.7,0.4,0.9
						c0.3,0.2,0.6,0.3,1,0.3c0.6,0,1.1-0.2,1.5-0.6c0.4-0.4,0.6-0.9,0.6-1.6V12.2z"/>
					<path class="st1" d="M215.1,8.5l-3,7.5H211l-2.8-7.5h1.3l1.9,5.4c0.1,0.4,0.2,0.8,0.3,1h0c0-0.4,0.1-0.7,0.2-1l2-5.5H215.1z"/>
					<path class="st1" d="M222.5,12.6h-5.3c0,0.8,0.2,1.5,0.7,1.9c0.4,0.5,1,0.7,1.8,0.7c0.8,0,1.6-0.3,2.3-0.8v1.1
						c-0.7,0.5-1.5,0.7-2.6,0.7c-1.1,0-1.9-0.3-2.5-1c-0.6-0.7-0.9-1.6-0.9-2.9c0-1.2,0.3-2.1,1-2.9c0.7-0.7,1.5-1.1,2.5-1.1
						s1.7,0.3,2.3,1s0.8,1.5,0.8,2.6V12.6z M221.2,11.5c0-0.7-0.2-1.2-0.5-1.6c-0.3-0.4-0.8-0.6-1.4-0.6c-0.6,0-1,0.2-1.4,0.6
						s-0.6,0.9-0.7,1.6H221.2z"/>
					<path class="st1" d="M232.1,6c-0.2-0.1-0.5-0.2-0.8-0.2c-0.8,0-1.3,0.5-1.3,1.6v1.2h1.8v1H230V16h-1.2V9.5h-1.3v-1h1.3V7.3
						c0-0.8,0.2-1.4,0.7-1.9c0.5-0.5,1-0.7,1.7-0.7c0.4,0,0.7,0,0.9,0.1V6z"/>
					<path class="st1" d="M233.7,6.6c-0.2,0-0.4-0.1-0.5-0.2s-0.2-0.3-0.2-0.6s0.1-0.4,0.2-0.6c0.2-0.1,0.3-0.2,0.5-0.2
						c0.2,0,0.4,0.1,0.6,0.2c0.2,0.1,0.2,0.3,0.2,0.6c0,0.2-0.1,0.4-0.2,0.5C234.1,6.5,233.9,6.6,233.7,6.6z M234.3,16h-1.2V8.5h1.2
						V16z"/>
					<path class="st1" d="M237.9,16h-1.2V4.9h1.2V16z"/>
					<path class="st1" d="M246.4,12.6h-5.3c0,0.8,0.2,1.5,0.7,1.9c0.4,0.5,1,0.7,1.8,0.7c0.8,0,1.6-0.3,2.3-0.8v1.1
						c-0.7,0.5-1.5,0.7-2.6,0.7c-1.1,0-1.9-0.3-2.5-1c-0.6-0.7-0.9-1.6-0.9-2.9c0-1.2,0.3-2.1,1-2.9c0.7-0.7,1.5-1.1,2.5-1.1
						c1,0,1.7,0.3,2.3,1s0.8,1.5,0.8,2.6V12.6z M245.1,11.5c0-0.7-0.2-1.2-0.5-1.6s-0.8-0.6-1.4-0.6c-0.6,0-1,0.2-1.4,0.6
						c-0.4,0.4-0.6,0.9-0.7,1.6H245.1z"/>
					<path class="st1" d="M247.7,15.7v-1.3c0.7,0.5,1.4,0.7,2.2,0.7c1.1,0,1.6-0.4,1.6-1.1c0-0.2,0-0.4-0.1-0.5
						c-0.1-0.1-0.2-0.3-0.4-0.4c-0.2-0.1-0.3-0.2-0.5-0.3c-0.2-0.1-0.4-0.2-0.7-0.3c-0.3-0.1-0.6-0.3-0.9-0.4
						c-0.3-0.1-0.5-0.3-0.6-0.5c-0.2-0.2-0.3-0.4-0.4-0.6c-0.1-0.2-0.1-0.5-0.1-0.8c0-0.4,0.1-0.7,0.2-0.9c0.2-0.3,0.4-0.5,0.6-0.7
						c0.3-0.2,0.6-0.3,0.9-0.4c0.3-0.1,0.7-0.1,1.1-0.1c0.6,0,1.2,0.1,1.7,0.3v1.2c-0.6-0.4-1.2-0.5-1.9-0.5c-0.2,0-0.4,0-0.6,0.1
						c-0.2,0.1-0.3,0.1-0.5,0.2s-0.2,0.2-0.3,0.3c-0.1,0.1-0.1,0.3-0.1,0.4c0,0.2,0,0.4,0.1,0.5c0.1,0.1,0.2,0.2,0.3,0.4
						c0.1,0.1,0.3,0.2,0.5,0.3c0.2,0.1,0.4,0.2,0.7,0.3c0.3,0.1,0.6,0.3,0.9,0.4c0.3,0.1,0.5,0.3,0.7,0.5c0.2,0.2,0.3,0.4,0.4,0.6
						c0.1,0.2,0.2,0.5,0.2,0.8c0,0.4-0.1,0.7-0.2,1s-0.4,0.5-0.7,0.7c-0.3,0.2-0.6,0.3-0.9,0.4c-0.4,0.1-0.7,0.1-1.1,0.1
						C249,16.2,248.3,16,247.7,15.7z"/>
				</g>
				<g transform="translate(0 2)">
					<g>
						<rect id="title2-b" class="st2" width="20" height="20"/>
					</g>
					<rect x="0.5" y="0.5" class="st3" width="19" height="19"/>
				</g>
			</g>
			<g transform="translate(115 30)">
				<g>
					<path id="title2-c" class="st2" d="M2,0h388c1.1,0,2,0.9,2,2v26c0,1.1-0.9,2-2,2H2c-1.1,0-2-0.9-2-2V2C0,0.9,0.9,0,2,0z"/>
				</g>
				<path class="st3" d="M2.5,0.5h387c1.1,0,2,0.9,2,2v25c0,1.1-0.9,2-2,2H2.5c-1.1,0-2-0.9-2-2v-25C0.5,1.4,1.4,0.5,2.5,0.5z"/>
				<g class="st0">
					<path class="st1" d="M12.4,20V9.5h2.9c3.7,0,5.6,1.7,5.6,5.1c0,1.6-0.5,2.9-1.5,3.9c-1,1-2.4,1.5-4.1,1.5H12.4z M13.6,10.6v8.3
						h1.6c1.4,0,2.4-0.4,3.2-1.1s1.1-1.8,1.1-3.1c0-2.7-1.4-4-4.3-4H13.6z"/>
					<path class="st1" d="M25.9,20.2c-1.1,0-2-0.4-2.7-1.1c-0.7-0.7-1-1.6-1-2.8c0-1.3,0.3-2.2,1-3s1.6-1.1,2.8-1.1
						c1.1,0,2,0.3,2.6,1c0.6,0.7,0.9,1.6,0.9,2.9c0,1.2-0.3,2.2-1,2.9C27.9,19.8,27,20.2,25.9,20.2z M26,13.3
						c-0.8,0-1.4,0.3-1.8,0.8c-0.4,0.5-0.7,1.2-0.7,2.2c0,0.9,0.2,1.6,0.7,2.1c0.5,0.5,1.1,0.8,1.8,0.8c0.8,0,1.4-0.3,1.8-0.8
						c0.4-0.5,0.6-1.2,0.6-2.1c0-0.9-0.2-1.7-0.6-2.2C27.3,13.6,26.7,13.3,26,13.3z"/>
					<path class="st1" d="M41,12.5L38.7,20h-1.2l-1.5-5.4c-0.1-0.2-0.1-0.4-0.1-0.7h0c0,0.2-0.1,0.4-0.2,0.7L34,20h-1.2l-2.3-7.5
						h1.3l1.6,5.6c0,0.2,0.1,0.4,0.1,0.7h0.1c0-0.2,0.1-0.4,0.1-0.7l1.7-5.6h1.1l1.6,5.7c0,0.2,0.1,0.4,0.1,0.7h0.1
						c0-0.2,0.1-0.4,0.1-0.7l1.5-5.7H41z"/>
					<path class="st1" d="M48.6,20h-1.2v-4.3c0-1.6-0.6-2.4-1.7-2.4c-0.6,0-1.1,0.2-1.5,0.7c-0.4,0.5-0.6,1-0.6,1.7V20h-1.2v-7.5
						h1.2v1.2h0c0.6-0.9,1.4-1.4,2.5-1.4c0.8,0,1.4,0.3,1.9,0.8c0.4,0.5,0.7,1.3,0.7,2.3V20z"/>
					<path class="st1" d="M52.1,20h-1.2V8.9h1.2V20z"/>
					<path class="st1" d="M57.6,20.2c-1.1,0-2-0.4-2.7-1.1c-0.7-0.7-1-1.6-1-2.8c0-1.3,0.3-2.2,1-3s1.6-1.1,2.8-1.1
						c1.1,0,2,0.3,2.6,1c0.6,0.7,0.9,1.6,0.9,2.9c0,1.2-0.3,2.2-1,2.9C59.7,19.8,58.8,20.2,57.6,20.2z M57.7,13.3
						c-0.8,0-1.4,0.3-1.8,0.8c-0.4,0.5-0.7,1.2-0.7,2.2c0,0.9,0.2,1.6,0.7,2.1c0.5,0.5,1.1,0.8,1.8,0.8c0.8,0,1.4-0.3,1.8-0.8
						c0.4-0.5,0.6-1.2,0.6-2.1c0-0.9-0.2-1.7-0.6-2.2C59.1,13.6,58.5,13.3,57.7,13.3z"/>
					<path class="st1" d="M68.6,20h-1.2v-1.2h0c-0.5,0.9-1.3,1.3-2.3,1.3c-0.7,0-1.3-0.2-1.8-0.6c-0.4-0.4-0.6-0.9-0.6-1.6
						c0-1.4,0.8-2.2,2.5-2.4l2.2-0.3c0-1.3-0.5-1.9-1.5-1.9c-0.9,0-1.7,0.3-2.4,0.9V13c0.7-0.5,1.6-0.7,2.5-0.7
						c1.8,0,2.6,0.9,2.6,2.8V20z M67.4,16.2l-1.8,0.2c-0.6,0.1-1,0.2-1.3,0.4c-0.3,0.2-0.4,0.5-0.4,1.1c0,0.4,0.1,0.7,0.4,0.9
						c0.3,0.2,0.6,0.3,1,0.3c0.6,0,1.1-0.2,1.5-0.6c0.4-0.4,0.6-0.9,0.6-1.6V16.2z"/>
					<path class="st1" d="M77.3,20h-1.2v-1.3h0c-0.6,1-1.4,1.5-2.6,1.5c-0.9,0-1.7-0.3-2.3-1c-0.6-0.7-0.8-1.6-0.8-2.7
						c0-1.2,0.3-2.2,0.9-3c0.6-0.7,1.5-1.1,2.5-1.1c1,0,1.8,0.4,2.2,1.2h0V8.9h1.2V20z M76.1,16.6v-1.1c0-0.6-0.2-1.1-0.6-1.5
						s-0.9-0.6-1.5-0.6c-0.7,0-1.3,0.3-1.7,0.8s-0.6,1.3-0.6,2.2c0,0.9,0.2,1.5,0.6,2c0.4,0.5,0.9,0.8,1.6,0.8
						c0.7,0,1.2-0.2,1.6-0.7C75.9,18,76.1,17.3,76.1,16.6z"/>
					<path class="st1" d="M79.3,19.7v-1.3c0.7,0.5,1.4,0.7,2.2,0.7c1.1,0,1.6-0.4,1.6-1.1c0-0.2,0-0.4-0.1-0.5
						c-0.1-0.1-0.2-0.3-0.4-0.4c-0.2-0.1-0.3-0.2-0.5-0.3c-0.2-0.1-0.4-0.2-0.7-0.3c-0.3-0.1-0.6-0.3-0.9-0.4
						c-0.3-0.1-0.5-0.3-0.6-0.5c-0.2-0.2-0.3-0.4-0.4-0.6c-0.1-0.2-0.1-0.5-0.1-0.8c0-0.4,0.1-0.7,0.2-0.9c0.2-0.3,0.4-0.5,0.6-0.7
						c0.3-0.2,0.6-0.3,0.9-0.4c0.3-0.1,0.7-0.1,1.1-0.1c0.6,0,1.2,0.1,1.7,0.3v1.2c-0.6-0.4-1.2-0.5-1.9-0.5c-0.2,0-0.4,0-0.6,0.1
						c-0.2,0.1-0.3,0.1-0.5,0.2c-0.1,0.1-0.2,0.2-0.3,0.3c-0.1,0.1-0.1,0.3-0.1,0.4c0,0.2,0,0.4,0.1,0.5c0.1,0.1,0.2,0.2,0.3,0.4
						c0.1,0.1,0.3,0.2,0.5,0.3c0.2,0.1,0.4,0.2,0.7,0.3c0.3,0.1,0.6,0.3,0.9,0.4c0.3,0.1,0.5,0.3,0.7,0.5c0.2,0.2,0.3,0.4,0.4,0.6
						c0.1,0.2,0.1,0.5,0.1,0.8c0,0.4-0.1,0.7-0.2,1c-0.2,0.3-0.4,0.5-0.7,0.7c-0.3,0.2-0.6,0.3-0.9,0.4s-0.7,0.1-1.1,0.1
						C80.5,20.2,79.8,20,79.3,19.7z"/>
				</g>
			</g>
			<g transform="translate(124 37)">
				<polygon class="st4" points="0.7,2 0.7,14 15.3,14 15.3,2.7 8.7,2.7 8,2 				"/>
				<polygon class="st5" points="8.7,3.3 8,4.7 1.3,4.7 1.3,13.3 14.7,13.3 14.7,3.3 				"/>
				<polygon class="st6" points="9.7,14.3 9.7,11 6.3,11 6.3,14.3 3.7,14.3 3.7,8.3 12.3,8.3 12.3,14.3 				"/>
				<path class="st7" d="M3.3,8v6.7h3.3v-3.3h2.7v3.3h3.3V8H3.3z M4,8.7h8V14h-2v-2.7v-0.7H9.3H6.7H6v0.7V14H4V8.7z"/>
			</g>
		</g>
	</g>
	<g transform="translate(157 68)">
		<path class="st8" d="M2,0h63c1.1,0,2,0.9,2,2v18c0,1.1-0.9,2-2,2H2c-1.1,0-2-0.9-2-2V2C0,0.9,0.9,0,2,0z"/>
		<polygon class="st8" points="63,11 67,7 71,11 67,15 		"/>
		<g class="st0">
			<path class="st2" d="M9,15H7.6V7.9H5.1V6.7h6.4l-0.1,1.1H9V15z"/>
			<path class="st2" d="M16.4,14h1.7v1h-5v-1h1.9V9.7h-1.8v-1h3.2V14z M16.4,6.4c0,0.5-0.4,0.8-0.9,0.8c-0.5,0-0.9-0.4-0.9-0.8
				c0-0.5,0.3-0.9,0.9-0.9C16,5.6,16.4,5.9,16.4,6.4z"/>
			<path class="st2" d="M23.6,15.2c-1.5,0-2.3-0.8-2.3-2.1V9.7H20v-1h1.4V7.3l1.3-0.2v1.6h2.1l-0.2,1h-2v3.4c0,0.7,0.3,1,1.1,1
				c0.5,0,0.9-0.1,1.2-0.3l0.5,0.9C25,15,24.3,15.2,23.6,15.2z"/>
			<path class="st2" d="M30.1,13.3c0,0.6,0.4,0.8,1,0.8c0.4,0,0.7-0.1,1-0.2l0.3,0.9c-0.4,0.2-0.9,0.4-1.6,0.4c-1.3,0-2-0.8-2-2v-6
				h-1.9v-1h3.3V13.3z"/>
			<path class="st2" d="M37.4,14.1c0.6,0,1.1-0.2,1.7-0.6l0.6,0.8c-0.6,0.5-1.4,0.8-2.3,0.8c-2,0-3.1-1.3-3.1-3.3
				c0-1.9,1.1-3.3,2.9-3.3c1.7,0,2.7,1.2,2.7,3.2c0,0.2,0,0.4,0,0.6h-4.2C35.8,13.6,36.5,14.1,37.4,14.1z M35.7,11.4h2.9
				c0-1.2-0.5-1.9-1.4-1.9C36.4,9.5,35.8,10.1,35.7,11.4z"/>
			<path class="st2" d="M53.8,8.9c0,1.5-0.9,2.6-3.6,5H54L53.8,15h-5.1v-1c3-2.9,3.7-3.8,3.7-5c0-0.8-0.5-1.3-1.3-1.3
				c-0.7,0-1.2,0.3-1.7,0.9l-0.9-0.7C49.2,7,50,6.6,51.2,6.6C52.8,6.6,53.8,7.6,53.8,8.9z"/>
			<path class="st2" d="M61.5,10.9c0,2.7-1,4.3-2.8,4.3s-2.8-1.6-2.8-4.3c0-2.7,1-4.3,2.8-4.3S61.5,8.1,61.5,10.9z M57.2,10.9
				c0,2.4,0.5,3.3,1.5,3.3c0.9,0,1.5-0.9,1.5-3.3c0-2.4-0.5-3.3-1.5-3.3S57.2,8.5,57.2,10.9z M59.5,10.9c0,0.4-0.3,0.8-0.8,0.8
				c-0.4,0-0.8-0.3-0.8-0.8c0-0.4,0.3-0.8,0.8-0.8C59.2,10.1,59.5,10.4,59.5,10.9z"/>
		</g>
	</g>
	<g transform="translate(157 21)">
		<path class="st8" d="M2,0h63c1.1,0,2,0.9,2,2v18c0,1.1-0.9,2-2,2H2c-1.1,0-2-0.9-2-2V2C0,0.9,0.9,0,2,0z"/>
		<polygon class="st8" points="63,11 67,7 71,11 67,15 		"/>
		<g class="st0">
			<path class="st2" d="M9,15H7.6V7.9H5.1V6.7h6.4l-0.1,1.1H9V15z"/>
			<path class="st2" d="M16.4,14h1.7v1h-5v-1h1.9V9.7h-1.8v-1h3.2V14z M16.4,6.4c0,0.5-0.4,0.8-0.9,0.8c-0.5,0-0.9-0.4-0.9-0.8
				c0-0.5,0.3-0.9,0.9-0.9C16,5.6,16.4,5.9,16.4,6.4z"/>
			<path class="st2" d="M23.6,15.2c-1.5,0-2.3-0.8-2.3-2.1V9.7H20v-1h1.4V7.3l1.3-0.2v1.6h2.1l-0.2,1h-2v3.4c0,0.7,0.3,1,1.1,1
				c0.5,0,0.9-0.1,1.2-0.3l0.5,0.9C25,15,24.3,15.2,23.6,15.2z"/>
			<path class="st2" d="M30.1,13.3c0,0.6,0.4,0.8,1,0.8c0.4,0,0.7-0.1,1-0.2l0.3,0.9c-0.4,0.2-0.9,0.4-1.6,0.4c-1.3,0-2-0.8-2-2v-6
				h-1.9v-1h3.3V13.3z"/>
			<path class="st2" d="M37.4,14.1c0.6,0,1.1-0.2,1.7-0.6l0.6,0.8c-0.6,0.5-1.4,0.8-2.3,0.8c-2,0-3.1-1.3-3.1-3.3
				c0-1.9,1.1-3.3,2.9-3.3c1.7,0,2.7,1.2,2.7,3.2c0,0.2,0,0.4,0,0.6h-4.2C35.8,13.6,36.5,14.1,37.4,14.1z M35.7,11.4h2.9
				c0-1.2-0.5-1.9-1.4-1.9C36.4,9.5,35.8,10.1,35.7,11.4z"/>
			<path class="st2" d="M53.8,8.7c0,1-0.7,1.7-1.6,1.9c1,0.1,1.9,0.7,1.9,2c0,1.4-1.2,2.5-3,2.5c-1,0-2-0.4-2.7-1.2l0.8-0.7
				c0.5,0.6,1.1,0.8,1.8,0.8c1,0,1.7-0.6,1.7-1.5c0-1.1-0.7-1.5-1.6-1.5h-0.7l0.2-1H51c0.8,0,1.5-0.4,1.5-1.3c0-0.8-0.6-1.2-1.4-1.2
				c-0.7,0-1.2,0.3-1.7,0.7l-0.7-0.8c0.7-0.7,1.6-1,2.5-1C52.8,6.6,53.8,7.5,53.8,8.7z"/>
			<path class="st2" d="M61.5,10.9c0,2.7-1,4.3-2.8,4.3s-2.8-1.6-2.8-4.3c0-2.7,1-4.3,2.8-4.3S61.5,8.1,61.5,10.9z M57.2,10.9
				c0,2.4,0.5,3.3,1.5,3.3c0.9,0,1.5-0.9,1.5-3.3c0-2.4-0.5-3.3-1.5-3.3S57.2,8.5,57.2,10.9z M59.5,10.9c0,0.4-0.3,0.8-0.8,0.8
				c-0.4,0-0.8-0.3-0.8-0.8c0-0.4,0.3-0.8,0.8-0.8C59.2,10.1,59.5,10.4,59.5,10.9z"/>
		</g>
	</g>
</g>
</svg>
