<svg xmlns="http://www.w3.org/2000/svg" width="367" height="414" style="background:#fff" viewBox="0 0 367 414">
  <g fill="none" fill-rule="evenodd">
    <path fill="#0C0C0D" d="M138.926 261.204L137.535 261.204 137.535 265 136.3 265 136.3 256.043 138.653 256.043C140.889 256.043 142.059 256.901 142.059 258.578 142.059 259.839 141.409 260.593 140.122 260.983L142.54 265 141.071 265 138.926 261.204zM138.783 260.255C140.031 260.255 140.746 259.787 140.746 258.578 140.746 257.46 140.109 257.005 138.64 257.005L137.535 257.005 137.535 260.255 138.783 260.255zM148.949 261.373C148.949 261.607 148.936 261.828 148.923 261.984L144.555 261.984C144.672 263.57 145.413 264.181 146.401 264.181 147.077 264.181 147.584 263.999 148.182 263.583L148.702 264.298C148.026 264.831 147.259 265.156 146.31 265.156 144.399 265.156 143.281 263.817 143.281 261.646 143.281 259.514 144.36 257.993 146.128 257.993 147.974 257.993 148.949 259.28 148.949 261.373zM147.766 261.1L147.766 261.022C147.766 259.683 147.233 258.942 146.154 258.942 145.244 258.942 144.646 259.579 144.555 261.1L147.766 261.1zM156.45 258.461C155.878 258.643 155.228 258.669 154.448 258.669 155.254 259.033 155.657 259.605 155.657 260.398 155.657 261.75 154.682 262.725 153.044 262.725 152.732 262.725 152.459 262.686 152.173 262.595 151.978 262.738 151.835 262.985 151.835 263.232 151.835 263.544 152.03 263.791 152.732 263.791L153.824 263.791C155.228 263.791 156.164 264.597 156.164 265.689 156.164 267.015 155.072 267.769 152.953 267.769 150.717 267.769 150.015 267.08 150.015 265.689L151.094 265.689C151.094 266.469 151.445 266.833 152.953 266.833 154.435 266.833 154.955 266.456 154.955 265.767 154.955 265.117 154.435 264.792 153.577 264.792L152.498 264.792C151.276 264.792 150.73 264.181 150.73 263.492 150.73 263.05 150.99 262.608 151.484 262.283 150.691 261.867 150.327 261.269 150.327 260.385 150.327 258.981 151.458 257.993 152.966 257.993 154.669 258.032 155.293 257.746 156.099 257.382L156.45 258.461zM152.966 258.851C152.043 258.851 151.549 259.488 151.549 260.385 151.549 261.295 152.056 261.932 152.992 261.932 153.928 261.932 154.435 261.36 154.435 260.372 154.435 259.371 153.941 258.851 152.966 258.851zM162.781 265L162.781 258.149 161.585 258.149 161.585 263.037C161.169 263.726 160.61 264.22 159.869 264.22 159.128 264.22 158.816 263.869 158.816 262.933L158.816 258.149 157.62 258.149 157.62 263.063C157.62 264.402 158.335 265.156 159.531 265.156 160.506 265.156 161.143 264.766 161.663 263.934L161.754 265 162.781 265zM166.382 263.622L166.382 255.25 165.186 255.393 165.186 263.648C165.186 264.636 165.68 265.156 166.551 265.156 166.902 265.156 167.24 265.078 167.565 264.922L167.253 264.09C167.123 264.142 166.98 264.168 166.811 264.168 166.499 264.168 166.382 263.986 166.382 263.622zM173.675 263.401C173.675 263.999 173.896 264.194 174.247 264.324L173.974 265.156C173.285 265.078 172.843 264.805 172.635 264.129 172.154 264.844 171.426 265.156 170.594 265.156 169.229 265.156 168.41 264.311 168.41 263.089 168.41 261.62 169.515 260.827 171.426 260.827L172.479 260.827 172.479 260.32C172.479 259.332 171.998 258.968 171.049 258.968 170.542 258.968 169.905 259.098 169.203 259.332L168.904 258.461C169.749 258.149 170.503 257.993 171.27 257.993 172.921 257.993 173.675 258.838 173.675 260.268L173.675 263.401zM170.867 264.259C171.569 264.259 172.089 263.908 172.479 263.193L172.479 261.62 171.582 261.62C170.321 261.62 169.684 262.088 169.684 263.024 169.684 263.83 170.087 264.259 170.867 264.259zM179.109 257.993C178.277 257.993 177.64 258.513 177.276 259.54L177.159 258.149 176.132 258.149 176.132 265 177.328 265 177.328 261.087C177.614 259.774 178.108 259.163 178.966 259.163 179.213 259.163 179.356 259.189 179.564 259.241L179.785 258.071C179.577 258.019 179.33 257.993 179.109 257.993zM187.559 265L187.559 256.303 186.506 256.303 183.815 257.967 184.335 258.812 186.363 257.577 186.363 265 187.559 265zM191.914 256.173C190.978 256.173 190.172 256.511 189.431 257.2L190.055 257.915C190.64 257.369 191.16 257.135 191.849 257.135 192.72 257.135 193.292 257.642 193.292 258.461 193.292 259.475 192.577 259.995 191.719 259.995L191.277 259.995 191.134 260.918 191.784 260.918C192.837 260.918 193.513 261.282 193.513 262.478 193.513 263.505 192.85 264.181 191.758 264.181 191.056 264.181 190.458 263.921 189.912 263.31L189.184 263.986C189.847 264.779 190.757 265.156 191.797 265.156 193.604 265.156 194.761 264.012 194.761 262.491 194.761 261.178 193.89 260.489 192.798 260.385 193.773 260.151 194.488 259.488 194.488 258.383 194.488 257.213 193.578 256.173 191.914 256.173zM199.857 257.993C201.677 257.993 202.392 259.41 202.392 261.568 202.392 263.648 201.469 265.156 199.701 265.156 198.96 265.156 198.349 264.909 197.907 264.376L197.907 267.626 196.711 267.769 196.711 258.149 197.738 258.149 197.829 259.072C198.336 258.37 199.077 257.993 199.857 257.993zM199.415 264.181C200.507 264.181 201.105 263.362 201.105 261.568 201.105 259.787 200.585 258.942 199.558 258.942 198.83 258.942 198.271 259.462 197.907 260.008L197.907 263.349C198.258 263.882 198.791 264.181 199.415 264.181zM209.178 265L206.799 261.334 208.905 258.149 207.553 258.149 206.11 260.658 204.68 258.149 203.276 258.149 205.395 261.386 203.003 265 204.355 265 206.058 262.101 207.735 265 209.178 265zM147.172 154L146.203 142.287 144.01 142.287 141.664 150.804 139.199 142.287 137.023 142.287 136.054 154 137.584 154 137.975 148.832C138.111 147.115 138.196 145.296 138.196 143.919L140.865 152.674 142.378 152.674 144.911 143.936C144.928 144.905 145.047 146.877 145.2 148.713L145.608 154 147.172 154zM156.828 149.257C156.828 149.563 156.811 149.852 156.794 150.056L151.082 150.056C151.235 152.13 152.204 152.929 153.496 152.929 154.38 152.929 155.043 152.691 155.825 152.147L156.505 153.082C155.621 153.779 154.618 154.204 153.377 154.204 150.878 154.204 149.416 152.453 149.416 149.614 149.416 146.826 150.827 144.837 153.139 144.837 155.553 144.837 156.828 146.52 156.828 149.257zM155.281 148.9L155.281 148.798C155.281 147.047 154.584 146.078 153.173 146.078 151.983 146.078 151.201 146.911 151.082 148.9L155.281 148.9zM166.348 141.437L166.348 154 164.971 154 164.818 152.759C164.24 153.66 163.339 154.204 162.234 154.204 160.058 154.204 158.851 152.351 158.851 149.563 158.851 146.826 160.177 144.837 162.37 144.837 163.424 144.837 164.189 145.313 164.784 145.942L164.784 141.25 166.348 141.437zM162.574 152.963C163.577 152.963 164.189 152.47 164.784 151.637L164.784 147.251C164.223 146.537 163.594 146.078 162.71 146.078 161.367 146.078 160.534 147.2 160.534 149.529 160.534 151.892 161.282 152.963 162.574 152.963zM170.343 140.74C169.697 140.74 169.255 141.199 169.255 141.811 169.255 142.406 169.697 142.865 170.343 142.865 171.006 142.865 171.448 142.406 171.448 141.811 171.448 141.199 171.006 140.74 170.343 140.74zM171.142 154L171.142 145.041 169.578 145.041 169.578 154 171.142 154zM181.036 154L181.036 145.041 179.472 145.041 179.472 151.433C178.928 152.334 178.197 152.98 177.228 152.98 176.259 152.98 175.851 152.521 175.851 151.297L175.851 145.041 174.287 145.041 174.287 151.467C174.287 153.218 175.222 154.204 176.786 154.204 178.061 154.204 178.894 153.694 179.574 152.606L179.693 154 181.036 154zM193.259 144.837C192.052 144.837 191.236 145.483 190.59 146.452 190.25 145.432 189.434 144.837 188.329 144.837 187.156 144.837 186.34 145.449 185.745 146.35L185.609 145.041 184.266 145.041 184.266 154 185.83 154 185.83 147.642C186.425 146.69 186.969 146.061 187.938 146.061 188.618 146.061 189.196 146.452 189.196 147.795L189.196 154 190.76 154 190.76 147.642C191.372 146.69 191.899 146.061 192.868 146.061 193.548 146.061 194.126 146.452 194.126 147.795L194.126 154 195.69 154 195.69 147.574C195.69 145.891 194.721 144.837 193.259 144.837zM205.819609 154L207.31375 154 207.31375 142.021973 205.82791 142.021973 205.346465 142.366455C205.0255 142.596111 204.654735 142.863117 204.23416 143.16748 203.813585 143.471844 203.442821 143.73885 203.121855 143.968506L202.64041 144.312988 202.64041 145.890137 203.101104 145.558105C203.408234 145.33675 203.762397 145.079429 204.163604 144.786133 204.56481 144.492837 204.918973 144.235515 205.226104 144.01416L205.686797 143.682129 205.819609 143.682129 205.819609 154zM210.990996 154L212.559844 154 217.888945 143.408203 217.888945 142.021973 209.961699 142.021973 209.961699 143.358398 216.369902 143.358398 216.369902 143.474609 215.979766 144.234131C215.719673 144.740481 215.386262 145.393469 214.979521 146.193115 214.572781 146.992761 214.139761 147.840816 213.680449 148.737305 213.221137 149.633794 212.788117 150.481848 212.381377 151.281494 211.974637 152.08114 211.641225 152.734128 211.381133 153.240479L210.990996 154zM224.156035 144.894043C225.296015 144.894043 226.207708 145.314612 226.891143 146.155762 227.574577 146.996912 227.916289 148.120273 227.916289 149.525879 227.916289 150.925951 227.574577 152.047929 226.891143 152.891846 226.207708 153.735763 225.296015 154.157715 224.156035 154.157715 223.519639 154.157715 222.955191 154.024904 222.462676 153.759277 221.97016 153.493651 221.602163 153.125653 221.358672 152.655273L221.225859 152.655273 221.225859 156.988281 219.798125 156.988281 219.798125 145.051758 221.159453 145.051758 221.159453 146.545898 221.292266 146.545898C221.580027 146.031247 221.977078 145.62728 222.483428 145.333984 222.989778 145.040689 223.547308 144.894043 224.156035 144.894043zM223.815703 152.871094C224.640252 152.871094 225.283556 152.575036 225.745635 151.98291 226.207714 151.390785 226.43875 150.571783 226.43875 149.525879 226.43875 148.479975 226.207714 147.660973 225.745635 147.068848 225.283556 146.476722 224.643018 146.180664 223.824004 146.180664 223.016057 146.180664 222.374136 146.480873 221.898223 147.081299 221.422309 147.681725 221.184355 148.496577 221.184355 149.525879 221.184355 150.549647 221.422309 151.363115 221.898223 151.966309 222.374136 152.569502 223.01329 152.871094 223.815703 152.871094zM232.523223 150.621582L234.639922 154 236.333281 154 233.253691 149.467773 236.291777 145.051758 234.673125 145.051758 232.573027 148.380371 232.440215 148.380371 230.315215 145.051758 228.613555 145.051758 231.709746 149.525879 228.646758 154 230.26541 154 232.39041 150.621582 232.523223 150.621582z"/>
    <path fill="#737373" d="M138.926,308.204 L137.535,308.204 L137.535,312 L136.3,312 L136.3,303.043 L138.653,303.043 C140.889,303.043 142.059,303.901 142.059,305.578 C142.059,306.839 141.409,307.593 140.122,307.983 L142.54,312 L141.071,312 L138.926,308.204 Z M138.783,307.255 C140.031,307.255 140.746,306.787 140.746,305.578 C140.746,304.46 140.109,304.005 138.64,304.005 L137.535,304.005 L137.535,307.255 L138.783,307.255 Z M148.949,308.373 C148.949,308.607 148.936,308.828 148.923,308.984 L144.555,308.984 C144.672,310.57 145.413,311.181 146.401,311.181 C147.077,311.181 147.584,310.999 148.182,310.583 L148.702,311.298 C148.026,311.831 147.259,312.156 146.31,312.156 C144.399,312.156 143.281,310.817 143.281,308.646 C143.281,306.514 144.36,304.993 146.128,304.993 C147.974,304.993 148.949,306.28 148.949,308.373 Z M147.766,308.1 L147.766,308.022 C147.766,306.683 147.233,305.942 146.154,305.942 C145.244,305.942 144.646,306.579 144.555,308.1 L147.766,308.1 Z M156.45,305.461 C155.878,305.643 155.228,305.669 154.448,305.669 C155.254,306.033 155.657,306.605 155.657,307.398 C155.657,308.75 154.682,309.725 153.044,309.725 C152.732,309.725 152.459,309.686 152.173,309.595 C151.978,309.738 151.835,309.985 151.835,310.232 C151.835,310.544 152.03,310.791 152.732,310.791 L153.824,310.791 C155.228,310.791 156.164,311.597 156.164,312.689 C156.164,314.015 155.072,314.769 152.953,314.769 C150.717,314.769 150.015,314.08 150.015,312.689 L151.094,312.689 C151.094,313.469 151.445,313.833 152.953,313.833 C154.435,313.833 154.955,313.456 154.955,312.767 C154.955,312.117 154.435,311.792 153.577,311.792 L152.498,311.792 C151.276,311.792 150.73,311.181 150.73,310.492 C150.73,310.05 150.99,309.608 151.484,309.283 C150.691,308.867 150.327,308.269 150.327,307.385 C150.327,305.981 151.458,304.993 152.966,304.993 C154.669,305.032 155.293,304.746 156.099,304.382 L156.45,305.461 Z M152.966,305.851 C152.043,305.851 151.549,306.488 151.549,307.385 C151.549,308.295 152.056,308.932 152.992,308.932 C153.928,308.932 154.435,308.36 154.435,307.372 C154.435,306.371 153.941,305.851 152.966,305.851 Z M162.781,312 L162.781,305.149 L161.585,305.149 L161.585,310.037 C161.169,310.726 160.61,311.22 159.869,311.22 C159.128,311.22 158.816,310.869 158.816,309.933 L158.816,305.149 L157.62,305.149 L157.62,310.063 C157.62,311.402 158.335,312.156 159.531,312.156 C160.506,312.156 161.143,311.766 161.663,310.934 L161.754,312 L162.781,312 Z M166.382,310.622 L166.382,302.25 L165.186,302.393 L165.186,310.648 C165.186,311.636 165.68,312.156 166.551,312.156 C166.902,312.156 167.24,312.078 167.565,311.922 L167.253,311.09 C167.123,311.142 166.98,311.168 166.811,311.168 C166.499,311.168 166.382,310.986 166.382,310.622 Z M173.675,310.401 C173.675,310.999 173.896,311.194 174.247,311.324 L173.974,312.156 C173.285,312.078 172.843,311.805 172.635,311.129 C172.154,311.844 171.426,312.156 170.594,312.156 C169.229,312.156 168.41,311.311 168.41,310.089 C168.41,308.62 169.515,307.827 171.426,307.827 L172.479,307.827 L172.479,307.32 C172.479,306.332 171.998,305.968 171.049,305.968 C170.542,305.968 169.905,306.098 169.203,306.332 L168.904,305.461 C169.749,305.149 170.503,304.993 171.27,304.993 C172.921,304.993 173.675,305.838 173.675,307.268 L173.675,310.401 Z M170.867,311.259 C171.569,311.259 172.089,310.908 172.479,310.193 L172.479,308.62 L171.582,308.62 C170.321,308.62 169.684,309.088 169.684,310.024 C169.684,310.83 170.087,311.259 170.867,311.259 Z M179.109,304.993 C178.277,304.993 177.64,305.513 177.276,306.54 L177.159,305.149 L176.132,305.149 L176.132,312 L177.328,312 L177.328,308.087 C177.614,306.774 178.108,306.163 178.966,306.163 C179.213,306.163 179.356,306.189 179.564,306.241 L179.785,305.071 C179.577,305.019 179.33,304.993 179.109,304.993 Z M187.559,312 L187.559,303.303 L186.506,303.303 L183.815,304.967 L184.335,305.812 L186.363,304.577 L186.363,312 L187.559,312 Z M191.914,303.173 C190.978,303.173 190.172,303.511 189.431,304.2 L190.055,304.915 C190.64,304.369 191.16,304.135 191.849,304.135 C192.72,304.135 193.292,304.642 193.292,305.461 C193.292,306.475 192.577,306.995 191.719,306.995 L191.277,306.995 L191.134,307.918 L191.784,307.918 C192.837,307.918 193.513,308.282 193.513,309.478 C193.513,310.505 192.85,311.181 191.758,311.181 C191.056,311.181 190.458,310.921 189.912,310.31 L189.184,310.986 C189.847,311.779 190.757,312.156 191.797,312.156 C193.604,312.156 194.761,311.012 194.761,309.491 C194.761,308.178 193.89,307.489 192.798,307.385 C193.773,307.151 194.488,306.488 194.488,305.383 C194.488,304.213 193.578,303.173 191.914,303.173 Z M199.857,304.993 C201.677,304.993 202.392,306.41 202.392,308.568 C202.392,310.648 201.469,312.156 199.701,312.156 C198.96,312.156 198.349,311.909 197.907,311.376 L197.907,314.626 L196.711,314.769 L196.711,305.149 L197.738,305.149 L197.829,306.072 C198.336,305.37 199.077,304.993 199.857,304.993 Z M199.415,311.181 C200.507,311.181 201.105,310.362 201.105,308.568 C201.105,306.787 200.585,305.942 199.558,305.942 C198.83,305.942 198.271,306.462 197.907,307.008 L197.907,310.349 C198.258,310.882 198.791,311.181 199.415,311.181 Z M209.178,312 L206.799,308.334 L208.905,305.149 L207.553,305.149 L206.11,307.658 L204.68,305.149 L203.276,305.149 L205.395,308.386 L203.003,312 L204.355,312 L206.058,309.101 L207.735,312 L209.178,312 Z"/>
    <path fill="#0C0C0D" d="M140.252,181.268 C141.292,181.45 142.319,181.931 142.319,183.452 C142.319,185.35 140.85,186 138.77,186 L136.3,186 L136.3,177.043 L138.419,177.043 C140.629,177.043 141.929,177.745 141.929,179.305 C141.929,180.41 141.123,181.086 140.252,181.268 Z M137.535,178.018 L137.535,180.839 L138.887,180.839 C139.888,180.839 140.668,180.345 140.668,179.396 C140.668,178.291 139.875,178.018 138.549,178.018 L137.535,178.018 Z M138.77,185.012 C140.07,185.012 141.019,184.752 141.019,183.452 C141.019,182.191 140.083,181.788 139.004,181.788 L137.535,181.788 L137.535,185.012 L138.77,185.012 Z M146.713,178.993 C148.663,178.993 149.755,180.397 149.755,182.568 C149.755,184.687 148.637,186.156 146.7,186.156 C144.75,186.156 143.645,184.752 143.645,182.581 C143.645,180.462 144.763,178.993 146.713,178.993 Z M146.713,179.955 C145.569,179.955 144.932,180.787 144.932,182.581 C144.932,184.362 145.556,185.194 146.7,185.194 C147.844,185.194 148.468,184.362 148.468,182.568 C148.468,180.787 147.844,179.955 146.713,179.955 Z M152.862,184.622 L152.862,176.25 L151.666,176.393 L151.666,184.648 C151.666,185.636 152.16,186.156 153.031,186.156 C153.382,186.156 153.72,186.078 154.045,185.922 L153.733,185.09 C153.603,185.142 153.46,185.168 153.291,185.168 C152.979,185.168 152.862,184.986 152.862,184.622 Z M160.714,176.393 L160.714,186 L159.661,186 L159.544,185.051 C159.102,185.74 158.413,186.156 157.568,186.156 C155.904,186.156 154.981,184.739 154.981,182.607 C154.981,180.514 155.995,178.993 157.672,178.993 C158.478,178.993 159.063,179.357 159.518,179.838 L159.518,176.25 L160.714,176.393 Z M157.828,185.207 C158.595,185.207 159.063,184.83 159.518,184.193 L159.518,180.839 C159.089,180.293 158.608,179.942 157.932,179.942 C156.905,179.942 156.268,180.8 156.268,182.581 C156.268,184.388 156.84,185.207 157.828,185.207 Z M169.593,186 L169.593,177.303 L168.54,177.303 L165.849,178.967 L166.369,179.812 L168.397,178.577 L168.397,186 L169.593,186 Z M173.948,177.173 C173.012,177.173 172.206,177.511 171.465,178.2 L172.089,178.915 C172.674,178.369 173.194,178.135 173.883,178.135 C174.754,178.135 175.326,178.642 175.326,179.461 C175.326,180.475 174.611,180.995 173.753,180.995 L173.311,180.995 L173.168,181.918 L173.818,181.918 C174.871,181.918 175.547,182.282 175.547,183.478 C175.547,184.505 174.884,185.181 173.792,185.181 C173.09,185.181 172.492,184.921 171.946,184.31 L171.218,184.986 C171.881,185.779 172.791,186.156 173.831,186.156 C175.638,186.156 176.795,185.012 176.795,183.491 C176.795,182.178 175.924,181.489 174.832,181.385 C175.807,181.151 176.522,180.488 176.522,179.383 C176.522,178.213 175.612,177.173 173.948,177.173 Z M181.891,178.993 C183.711,178.993 184.426,180.41 184.426,182.568 C184.426,184.648 183.503,186.156 181.735,186.156 C180.994,186.156 180.383,185.909 179.941,185.376 L179.941,188.626 L178.745,188.769 L178.745,179.149 L179.772,179.149 L179.863,180.072 C180.37,179.37 181.111,178.993 181.891,178.993 Z M181.449,185.181 C182.541,185.181 183.139,184.362 183.139,182.568 C183.139,180.787 182.619,179.942 181.592,179.942 C180.864,179.942 180.305,180.462 179.941,181.008 L179.941,184.349 C180.292,184.882 180.825,185.181 181.449,185.181 Z M191.212,186 L188.833,182.334 L190.939,179.149 L189.587,179.149 L188.144,181.658 L186.714,179.149 L185.31,179.149 L187.429,182.386 L185.037,186 L186.389,186 L188.092,183.101 L189.769,186 L191.212,186 Z"/>
    <path fill="#737373" d="M138.322,333.788 L137.145,333.788 L137.145,337 L136.1,337 L136.1,329.421 L138.091,329.421 C139.983,329.421 140.973,330.147 140.973,331.566 C140.973,332.633 140.423,333.271 139.334,333.601 L141.38,337 L140.137,337 L138.322,333.788 Z M138.201,332.985 C139.257,332.985 139.862,332.589 139.862,331.566 C139.862,330.62 139.323,330.235 138.08,330.235 L137.145,330.235 L137.145,332.985 L138.201,332.985 Z M146.803,333.931 C146.803,334.129 146.792,334.316 146.781,334.448 L143.085,334.448 C143.184,335.79 143.811,336.307 144.647,336.307 C145.219,336.307 145.648,336.153 146.154,335.801 L146.594,336.406 C146.022,336.857 145.373,337.132 144.57,337.132 C142.953,337.132 142.007,335.999 142.007,334.162 C142.007,332.358 142.92,331.071 144.416,331.071 C145.978,331.071 146.803,332.16 146.803,333.931 Z M145.802,333.7 L145.802,333.634 C145.802,332.501 145.351,331.874 144.438,331.874 C143.668,331.874 143.162,332.413 143.085,333.7 L145.802,333.7 Z M153.15,331.467 C152.666,331.621 152.116,331.643 151.456,331.643 C152.138,331.951 152.479,332.435 152.479,333.106 C152.479,334.25 151.654,335.075 150.268,335.075 C150.004,335.075 149.773,335.042 149.531,334.965 C149.366,335.086 149.245,335.295 149.245,335.504 C149.245,335.768 149.41,335.977 150.004,335.977 L150.928,335.977 C152.116,335.977 152.908,336.659 152.908,337.583 C152.908,338.705 151.984,339.343 150.191,339.343 C148.299,339.343 147.705,338.76 147.705,337.583 L148.618,337.583 C148.618,338.243 148.915,338.551 150.191,338.551 C151.445,338.551 151.885,338.232 151.885,337.649 C151.885,337.099 151.445,336.824 150.719,336.824 L149.806,336.824 C148.772,336.824 148.31,336.307 148.31,335.724 C148.31,335.35 148.53,334.976 148.948,334.701 C148.277,334.349 147.969,333.843 147.969,333.095 C147.969,331.907 148.926,331.071 150.202,331.071 C151.643,331.104 152.171,330.862 152.853,330.554 L153.15,331.467 Z M150.202,331.797 C149.421,331.797 149.003,332.336 149.003,333.095 C149.003,333.865 149.432,334.404 150.224,334.404 C151.016,334.404 151.445,333.92 151.445,333.084 C151.445,332.237 151.027,331.797 150.202,331.797 Z M158.507,337 L158.507,331.203 L157.495,331.203 L157.495,335.339 C157.143,335.922 156.67,336.34 156.043,336.34 C155.416,336.34 155.152,336.043 155.152,335.251 L155.152,331.203 L154.14,331.203 L154.14,335.361 C154.14,336.494 154.745,337.132 155.757,337.132 C156.582,337.132 157.121,336.802 157.561,336.098 L157.638,337 L158.507,337 Z M161.554,335.834 L161.554,328.75 L160.542,328.871 L160.542,335.856 C160.542,336.692 160.96,337.132 161.697,337.132 C161.994,337.132 162.28,337.066 162.555,336.934 L162.291,336.23 C162.181,336.274 162.06,336.296 161.917,336.296 C161.653,336.296 161.554,336.142 161.554,335.834 Z M167.725,335.647 C167.725,336.153 167.912,336.318 168.209,336.428 L167.978,337.132 C167.395,337.066 167.021,336.835 166.845,336.263 C166.438,336.868 165.822,337.132 165.118,337.132 C163.963,337.132 163.27,336.417 163.27,335.383 C163.27,334.14 164.205,333.469 165.822,333.469 L166.713,333.469 L166.713,333.04 C166.713,332.204 166.306,331.896 165.503,331.896 C165.074,331.896 164.535,332.006 163.941,332.204 L163.688,331.467 C164.403,331.203 165.041,331.071 165.69,331.071 C167.087,331.071 167.725,331.786 167.725,332.996 L167.725,335.647 Z M165.349,336.373 C165.943,336.373 166.383,336.076 166.713,335.471 L166.713,334.14 L165.954,334.14 C164.887,334.14 164.348,334.536 164.348,335.328 C164.348,336.01 164.689,336.373 165.349,336.373 Z M172.323,331.071 C171.619,331.071 171.08,331.511 170.772,332.38 L170.673,331.203 L169.804,331.203 L169.804,337 L170.816,337 L170.816,333.689 C171.058,332.578 171.476,332.061 172.202,332.061 C172.411,332.061 172.532,332.083 172.708,332.127 L172.895,331.137 C172.719,331.093 172.51,331.071 172.323,331.071 Z M179.473,337 L179.473,329.641 L178.582,329.641 L176.305,331.049 L176.745,331.764 L178.461,330.719 L178.461,337 L179.473,337 Z M184.236,337 L184.236,329.641 L183.345,329.641 L181.068,331.049 L181.508,331.764 L183.224,330.719 L183.224,337 L184.236,337 Z M189.153,331.071 C190.693,331.071 191.298,332.27 191.298,334.096 C191.298,335.856 190.517,337.132 189.021,337.132 C188.394,337.132 187.877,336.923 187.503,336.472 L187.503,339.222 L186.491,339.343 L186.491,331.203 L187.36,331.203 L187.437,331.984 C187.866,331.39 188.493,331.071 189.153,331.071 Z M188.779,336.307 C189.703,336.307 190.209,335.614 190.209,334.096 C190.209,332.589 189.769,331.874 188.9,331.874 C188.284,331.874 187.811,332.314 187.503,332.776 L187.503,335.603 C187.8,336.054 188.251,336.307 188.779,336.307 Z M197.04,337 L195.027,333.898 L196.809,331.203 L195.665,331.203 L194.444,333.326 L193.234,331.203 L192.046,331.203 L193.839,333.942 L191.815,337 L192.959,337 L194.4,334.547 L195.819,337 L197.04,337 Z"/>
    <path fill="#0C0C0D" d="M141.435 65.261L141.435 45.263 138.3 45.263 138.3 68 150.411 68 150.774 65.261 141.435 65.261zM156.054 42.26C154.8 42.26 153.942 43.151 153.942 44.339 153.942 45.494 154.8 46.385 156.054 46.385 157.341 46.385 158.199 45.494 158.199 44.339 158.199 43.151 157.341 42.26 156.054 42.26zM157.605 68L157.605 50.609 154.569 50.609 154.569 68 157.605 68zM177.9 51.401C176.448 51.863 174.798 51.929 172.818 51.929 174.864 52.853 175.887 54.305 175.887 56.318 175.887 59.75 173.412 62.225 169.254 62.225 168.462 62.225 167.769 62.126 167.043 61.895 166.548 62.258 166.185 62.885 166.185 63.512 166.185 64.304 166.68 64.931 168.462 64.931L171.234 64.931C174.798 64.931 177.174 66.977 177.174 69.749 177.174 73.115 174.402 75.029 169.023 75.029 163.347 75.029 161.565 73.28 161.565 69.749L164.304 69.749C164.304 71.729 165.195 72.653 169.023 72.653 172.785 72.653 174.105 71.696 174.105 69.947 174.105 68.297 172.785 67.472 170.607 67.472L167.868 67.472C164.766 67.472 163.38 65.921 163.38 64.172 163.38 63.05 164.04 61.928 165.294 61.103 163.281 60.047 162.357 58.529 162.357 56.285 162.357 52.721 165.228 50.213 169.056 50.213 173.379 50.312 174.963 49.586 177.009 48.662L177.9 51.401zM169.056 52.391C166.713 52.391 165.459 54.008 165.459 56.285 165.459 58.595 166.746 60.212 169.122 60.212 171.498 60.212 172.785 58.76 172.785 56.252 172.785 53.711 171.531 52.391 169.056 52.391zM189.219 50.213C187.041 50.213 185.325 51.302 184.071 53.018L184.071 43.316 181.035 43.646 181.035 68 184.071 68 184.071 55.625C185.226 53.81 186.579 52.589 188.46 52.589 190.11 52.589 191.232 53.348 191.232 55.955L191.232 68 194.268 68 194.268 55.526C194.268 52.259 192.387 50.213 189.219 50.213zM209.151 67.208L207.996 65.129C207.138 65.657 206.445 65.888 205.686 65.888 204.168 65.888 203.607 65.063 203.607 63.314L203.607 52.952 207.402 52.952 207.732 50.609 203.607 50.609 203.607 46.319 200.571 46.682 200.571 50.609 197.535 50.609 197.535 52.952 200.571 52.952 200.571 63.446C200.571 66.68 202.32 68.396 205.257 68.396 206.742 68.396 207.996 68 209.151 67.208zM225.321 45.593C222.945 45.593 220.899 46.451 219.018 48.2L220.602 50.015C222.087 48.629 223.407 48.035 225.156 48.035 227.367 48.035 228.819 49.322 228.819 51.401 228.819 53.975 227.004 55.295 224.826 55.295L223.704 55.295 223.341 57.638 224.991 57.638C227.664 57.638 229.38 58.562 229.38 61.598 229.38 64.205 227.697 65.921 224.925 65.921 223.143 65.921 221.625 65.261 220.239 63.71L218.391 65.426C220.074 67.439 222.384 68.396 225.024 68.396 229.611 68.396 232.548 65.492 232.548 61.631 232.548 58.298 230.337 56.549 227.565 56.285 230.04 55.691 231.855 54.008 231.855 51.203 231.855 48.233 229.545 45.593 225.321 45.593zM241.788 45.593C239.412 45.593 237.366 46.451 235.485 48.2L237.069 50.015C238.554 48.629 239.874 48.035 241.623 48.035 243.834 48.035 245.286 49.322 245.286 51.401 245.286 53.975 243.471 55.295 241.293 55.295L240.171 55.295 239.808 57.638 241.458 57.638C244.131 57.638 245.847 58.562 245.847 61.598 245.847 64.205 244.164 65.921 241.392 65.921 239.61 65.921 238.092 65.261 236.706 63.71L234.858 65.426C236.541 67.439 238.851 68.396 241.491 68.396 246.078 68.396 249.015 65.492 249.015 61.631 249.015 58.298 246.804 56.549 244.032 56.285 246.507 55.691 248.322 54.008 248.322 51.203 248.322 48.233 246.012 45.593 241.788 45.593zM261.951 50.213C266.571 50.213 268.386 53.81 268.386 59.288 268.386 64.568 266.043 68.396 261.555 68.396 259.674 68.396 258.123 67.769 257.001 66.416L257.001 74.666 253.965 75.029 253.965 50.609 256.572 50.609 256.803 52.952C258.09 51.17 259.971 50.213 261.951 50.213zM260.829 65.921C263.601 65.921 265.119 63.842 265.119 59.288 265.119 54.767 263.799 52.622 261.192 52.622 259.344 52.622 257.925 53.942 257.001 55.328L257.001 63.809C257.892 65.162 259.245 65.921 260.829 65.921zM285.612 68L279.573 58.694 284.919 50.609 281.487 50.609 277.824 56.978 274.194 50.609 270.63 50.609 276.009 58.826 269.937 68 273.369 68 277.692 60.641 281.949 68 285.612 68zM139.53 232.62L137.925 232.62 137.925 237 136.5 237 136.5 226.665 139.215 226.665C141.795 226.665 143.145 227.655 143.145 229.59 143.145 231.045 142.395 231.915 140.91 232.365L143.7 237 142.005 237 139.53 232.62zM139.365 231.525C140.805 231.525 141.63 230.985 141.63 229.59 141.63 228.3 140.895 227.775 139.2 227.775L137.925 227.775 137.925 231.525 139.365 231.525zM151.095 232.815C151.095 233.085 151.08 233.34 151.065 233.52L146.025 233.52C146.16 235.35 147.015 236.055 148.155 236.055 148.935 236.055 149.52 235.845 150.21 235.365L150.81 236.19C150.03 236.805 149.145 237.18 148.05 237.18 145.845 237.18 144.555 235.635 144.555 233.13 144.555 230.67 145.8 228.915 147.84 228.915 149.97 228.915 151.095 230.4 151.095 232.815zM149.73 232.5L149.73 232.41C149.73 230.865 149.115 230.01 147.87 230.01 146.82 230.01 146.13 230.745 146.025 232.5L149.73 232.5zM159.75 229.455C159.09 229.665 158.34 229.695 157.44 229.695 158.37 230.115 158.835 230.775 158.835 231.69 158.835 233.25 157.71 234.375 155.82 234.375 155.46 234.375 155.145 234.33 154.815 234.225 154.59 234.39 154.425 234.675 154.425 234.96 154.425 235.32 154.65 235.605 155.46 235.605L156.72 235.605C158.34 235.605 159.42 236.535 159.42 237.795 159.42 239.325 158.16 240.195 155.715 240.195 153.135 240.195 152.325 239.4 152.325 237.795L153.57 237.795C153.57 238.695 153.975 239.115 155.715 239.115 157.425 239.115 158.025 238.68 158.025 237.885 158.025 237.135 157.425 236.76 156.435 236.76L155.19 236.76C153.78 236.76 153.15 236.055 153.15 235.26 153.15 234.75 153.45 234.24 154.02 233.865 153.105 233.385 152.685 232.695 152.685 231.675 152.685 230.055 153.99 228.915 155.73 228.915 157.695 228.96 158.415 228.63 159.345 228.21L159.75 229.455zM155.73 229.905C154.665 229.905 154.095 230.64 154.095 231.675 154.095 232.725 154.68 233.46 155.76 233.46 156.84 233.46 157.425 232.8 157.425 231.66 157.425 230.505 156.855 229.905 155.73 229.905zM167.055 237L167.055 229.095 165.675 229.095 165.675 234.735C165.195 235.53 164.55 236.1 163.695 236.1 162.84 236.1 162.48 235.695 162.48 234.615L162.48 229.095 161.1 229.095 161.1 234.765C161.1 236.31 161.925 237.18 163.305 237.18 164.43 237.18 165.165 236.73 165.765 235.77L165.87 237 167.055 237zM171.21 235.41L171.21 225.75 169.83 225.915 169.83 235.44C169.83 236.58 170.4 237.18 171.405 237.18 171.81 237.18 172.2 237.09 172.575 236.91L172.215 235.95C172.065 236.01 171.9 236.04 171.705 236.04 171.345 236.04 171.21 235.83 171.21 235.41zM179.625 235.155C179.625 235.845 179.88 236.07 180.285 236.22L179.97 237.18C179.175 237.09 178.665 236.775 178.425 235.995 177.87 236.82 177.03 237.18 176.07 237.18 174.495 237.18 173.55 236.205 173.55 234.795 173.55 233.1 174.825 232.185 177.03 232.185L178.245 232.185 178.245 231.6C178.245 230.46 177.69 230.04 176.595 230.04 176.01 230.04 175.275 230.19 174.465 230.46L174.12 229.455C175.095 229.095 175.965 228.915 176.85 228.915 178.755 228.915 179.625 229.89 179.625 231.54L179.625 235.155zM176.385 236.145C177.195 236.145 177.795 235.74 178.245 234.915L178.245 233.1 177.21 233.1C175.755 233.1 175.02 233.64 175.02 234.72 175.02 235.65 175.485 236.145 176.385 236.145zM185.895 228.915C184.935 228.915 184.2 229.515 183.78 230.7L183.645 229.095 182.46 229.095 182.46 237 183.84 237 183.84 232.485C184.17 230.97 184.74 230.265 185.73 230.265 186.015 230.265 186.18 230.295 186.42 230.355L186.675 229.005C186.435 228.945 186.15 228.915 185.895 228.915zM195.645 237L195.645 226.965 194.43 226.965 191.325 228.885 191.925 229.86 194.265 228.435 194.265 237 195.645 237zM203.595 228.045L203.79 226.965 198.36 226.965 198.36 232.02 199.44 232.02C199.92 231.795 200.325 231.675 200.865 231.675 201.9 231.675 202.695 232.215 202.695 233.76 202.695 235.23 201.9 236.055 200.64 236.055 199.77 236.055 199.125 235.74 198.525 235.095L197.685 235.905C198.465 236.7 199.38 237.18 200.655 237.18 202.74 237.18 204.135 235.785 204.135 233.79 204.135 231.795 202.98 230.61 201.285 230.61 200.745 230.61 200.205 230.73 199.68 231L199.68 228.045 203.595 228.045zM209.865 228.915C211.965 228.915 212.79 230.55 212.79 233.04 212.79 235.44 211.725 237.18 209.685 237.18 208.83 237.18 208.125 236.895 207.615 236.28L207.615 240.03 206.235 240.195 206.235 229.095 207.42 229.095 207.525 230.16C208.11 229.35 208.965 228.915 209.865 228.915zM209.355 236.055C210.615 236.055 211.305 235.11 211.305 233.04 211.305 230.985 210.705 230.01 209.52 230.01 208.68 230.01 208.035 230.61 207.615 231.24L207.615 235.095C208.02 235.71 208.635 236.055 209.355 236.055zM220.62 237L217.875 232.77 220.305 229.095 218.745 229.095 217.08 231.99 215.43 229.095 213.81 229.095 216.255 232.83 213.495 237 215.055 237 217.02 233.655 218.955 237 220.62 237zM139.29 123.174L139.29 109.842 137.2 109.842 137.2 125 145.274 125 145.516 123.174 139.29 123.174zM149.036 107.84C148.2 107.84 147.628 108.434 147.628 109.226 147.628 109.996 148.2 110.59 149.036 110.59 149.894 110.59 150.466 109.996 150.466 109.226 150.466 108.434 149.894 107.84 149.036 107.84zM150.07 125L150.07 113.406 148.046 113.406 148.046 125 150.07 125zM163.6 113.934C162.632 114.242 161.532 114.286 160.212 114.286 161.576 114.902 162.258 115.87 162.258 117.212 162.258 119.5 160.608 121.15 157.836 121.15 157.308 121.15 156.846 121.084 156.362 120.93 156.032 121.172 155.79 121.59 155.79 122.008 155.79 122.536 156.12 122.954 157.308 122.954L159.156 122.954C161.532 122.954 163.116 124.318 163.116 126.166 163.116 128.41 161.268 129.686 157.682 129.686 153.898 129.686 152.71 128.52 152.71 126.166L154.536 126.166C154.536 127.486 155.13 128.102 157.682 128.102 160.19 128.102 161.07 127.464 161.07 126.298 161.07 125.198 160.19 124.648 158.738 124.648L156.912 124.648C154.844 124.648 153.92 123.614 153.92 122.448 153.92 121.7 154.36 120.952 155.196 120.402 153.854 119.698 153.238 118.686 153.238 117.19 153.238 114.814 155.152 113.142 157.704 113.142 160.586 113.208 161.642 112.724 163.006 112.108L163.6 113.934zM157.704 114.594C156.142 114.594 155.306 115.672 155.306 117.19 155.306 118.73 156.164 119.808 157.748 119.808 159.332 119.808 160.19 118.84 160.19 117.168 160.19 115.474 159.354 114.594 157.704 114.594zM171.146 113.142C169.694 113.142 168.55 113.868 167.714 115.012L167.714 108.544 165.69 108.764 165.69 125 167.714 125 167.714 116.75C168.484 115.54 169.386 114.726 170.64 114.726 171.74 114.726 172.488 115.232 172.488 116.97L172.488 125 174.512 125 174.512 116.684C174.512 114.506 173.258 113.142 171.146 113.142zM184.434 124.472L183.664 123.086C183.092 123.438 182.63 123.592 182.124 123.592 181.112 123.592 180.738 123.042 180.738 121.876L180.738 114.968 183.268 114.968 183.488 113.406 180.738 113.406 180.738 110.546 178.714 110.788 178.714 113.406 176.69 113.406 176.69 114.968 178.714 114.968 178.714 121.964C178.714 124.12 179.88 125.264 181.838 125.264 182.828 125.264 183.664 125 184.434 124.472zM195.28 110.062C193.432 110.062 192.002 110.81 190.814 112.284L192.178 113.34C193.124 112.218 193.938 111.734 195.17 111.734 196.6 111.734 197.59 112.636 197.59 114.176 197.59 116.574 196.314 117.982 191.122 123.394L191.122 125 199.812 125 200.054 123.306 193.432 123.306C197.942 118.796 199.702 116.838 199.702 114.088 199.702 111.8 197.986 110.062 195.28 110.062zM206.17 110.062C204.322 110.062 202.892 110.81 201.704 112.284L203.068 113.34C204.014 112.218 204.828 111.734 206.06 111.734 207.49 111.734 208.48 112.636 208.48 114.176 208.48 116.574 207.204 117.982 202.012 123.394L202.012 125 210.702 125 210.944 123.306 204.322 123.306C208.832 118.796 210.592 116.838 210.592 114.088 210.592 111.8 208.876 110.062 206.17 110.062zM219.458 113.142C222.538 113.142 223.748 115.54 223.748 119.192 223.748 122.712 222.186 125.264 219.194 125.264 217.94 125.264 216.906 124.846 216.158 123.944L216.158 129.444 214.134 129.686 214.134 113.406 215.872 113.406 216.026 114.968C216.884 113.78 218.138 113.142 219.458 113.142zM218.71 123.614C220.558 123.614 221.57 122.228 221.57 119.192 221.57 116.178 220.69 114.748 218.952 114.748 217.72 114.748 216.774 115.628 216.158 116.552L216.158 122.206C216.752 123.108 217.654 123.614 218.71 123.614zM235.232 125L231.206 118.796 234.77 113.406 232.482 113.406 230.04 117.652 227.62 113.406 225.244 113.406 228.83 118.884 224.782 125 227.07 125 229.952 120.094 232.79 125 235.232 125z"/>
    <rect width="226" height="26" x="70.5" y="373" fill="#EBEBED" rx="4"/>
    <path fill="#737373" d="M89.16 384.72L90.69 384.39 90.41 383.56 88.99 384.19 89.14 382.61 88.24 382.61 88.39 384.18 86.97 383.57 86.7 384.39 88.22 384.72 87.19 385.89 87.91 386.41 88.69 385.07 89.48 386.41 90.2 385.88 89.16 384.72zM96.61 387.79L96.61 383.11 95.65 383.11 95.65 387.72C95.65 388.79 95.18 389.32 94.19 389.32 93.21 389.32 92.74 388.79 92.74 387.72L92.74 383.11 91.79 383.11 91.79 387.79C91.79 389.16 92.62 390.12 94.19 390.12 95.74 390.12 96.61 389.16 96.61 387.79zM99.89 384.61C98.8 384.61 97.99 385.22 97.99 386.05 97.99 386.8 98.44 387.29 99.58 387.59 100.6 387.86 100.86 388.06 100.86 388.61 100.86 389.07 100.42 389.38 99.73 389.38 99.16 389.38 98.67 389.19 98.27 388.85L97.76 389.43C98.22 389.83 98.86 390.12 99.75 390.12 100.82 390.12 101.83 389.62 101.83 388.52 101.83 387.6 101.19 387.16 100.08 386.88 99.23 386.66 98.95 386.46 98.95 386.03 98.95 385.61 99.32 385.34 99.92 385.34 100.41 385.34 100.82 385.49 101.28 385.82L101.68 385.21C101.18 384.83 100.63 384.61 99.89 384.61zM107.11 387.21C107.11 387.39 107.1 387.56 107.09 387.68L103.73 387.68C103.82 388.9 104.39 389.37 105.15 389.37 105.67 389.37 106.06 389.23 106.52 388.91L106.92 389.46C106.4 389.87 105.81 390.12 105.08 390.12 103.61 390.12 102.75 389.09 102.75 387.42 102.75 385.78 103.58 384.61 104.94 384.61 106.36 384.61 107.11 385.6 107.11 387.21zM106.2 387L106.2 386.94C106.2 385.91 105.79 385.34 104.96 385.34 104.26 385.34 103.8 385.83 103.73 387L106.2 387zM113.03 382.99C111.76 382.99 110.86 383.73 110.86 384.79 110.86 385.86 111.56 386.37 112.9 386.78 114.07 387.14 114.39 387.44 114.39 388.11 114.39 388.94 113.72 389.34 112.91 389.34 112.16 389.34 111.6 389.07 111.13 388.62L110.58 389.23C111.15 389.79 111.93 390.12 112.92 390.12 114.47 390.12 115.38 389.28 115.38 388.08 115.38 386.76 114.44 386.33 113.34 385.99 112.1 385.61 111.83 385.33 111.83 384.75 111.83 384.09 112.38 383.77 113.07 383.77 113.64 383.77 114.12 383.95 114.62 384.39L115.16 383.79C114.58 383.27 113.98 382.99 113.03 382.99zM120.71 387.21C120.71 387.39 120.7 387.56 120.69 387.68L117.33 387.68C117.42 388.9 117.99 389.37 118.75 389.37 119.27 389.37 119.66 389.23 120.12 388.91L120.52 389.46C120 389.87 119.41 390.12 118.68 390.12 117.21 390.12 116.35 389.09 116.35 387.42 116.35 385.78 117.18 384.61 118.54 384.61 119.96 384.61 120.71 385.6 120.71 387.21zM119.8 387L119.8 386.94C119.8 385.91 119.39 385.34 118.56 385.34 117.86 385.34 117.4 385.83 117.33 387L119.8 387zM127.52 384.61C126.81 384.61 126.33 384.99 125.95 385.56 125.75 384.96 125.27 384.61 124.62 384.61 123.93 384.61 123.45 384.97 123.1 385.5L123.02 384.73 122.23 384.73 122.23 390 123.15 390 123.15 386.26C123.5 385.7 123.82 385.33 124.39 385.33 124.79 385.33 125.13 385.56 125.13 386.35L125.13 390 126.05 390 126.05 386.26C126.41 385.7 126.72 385.33 127.29 385.33 127.69 385.33 128.03 385.56 128.03 386.35L128.03 390 128.95 390 128.95 386.22C128.95 385.23 128.38 384.61 127.52 384.61zM131.25 382.2C130.87 382.2 130.61 382.47 130.61 382.83 130.61 383.18 130.87 383.45 131.25 383.45 131.64 383.45 131.9 383.18 131.9 382.83 131.9 382.47 131.64 382.2 131.25 382.2zM131.72 390L131.72 384.73 130.8 384.73 130.8 390 131.72 390zM136.71 386.36C137.51 386.5 138.3 386.87 138.3 388.04 138.3 389.5 137.17 390 135.57 390L133.67 390 133.67 383.11 135.3 383.11C137 383.11 138 383.65 138 384.85 138 385.7 137.38 386.22 136.71 386.36zM134.62 383.86L134.62 386.03 135.66 386.03C136.43 386.03 137.03 385.65 137.03 384.92 137.03 384.07 136.42 383.86 135.4 383.86L134.62 383.86zM135.57 389.24C136.57 389.24 137.3 389.04 137.3 388.04 137.3 387.07 136.58 386.76 135.75 386.76L134.62 386.76 134.62 389.24 135.57 389.24zM141.68 384.61C143.18 384.61 144.02 385.69 144.02 387.36 144.02 388.99 143.16 390.12 141.67 390.12 140.17 390.12 139.32 389.04 139.32 387.37 139.32 385.74 140.18 384.61 141.68 384.61zM141.68 385.35C140.8 385.35 140.31 385.99 140.31 387.37 140.31 388.74 140.79 389.38 141.67 389.38 142.55 389.38 143.03 388.74 143.03 387.36 143.03 385.99 142.55 385.35 141.68 385.35zM146.41 388.94L146.41 382.5 145.49 382.61 145.49 388.96C145.49 389.72 145.87 390.12 146.54 390.12 146.81 390.12 147.07 390.06 147.32 389.94L147.08 389.3C146.98 389.34 146.87 389.36 146.74 389.36 146.5 389.36 146.41 389.22 146.41 388.94zM152.55 382.61L152.55 390 151.74 390 151.65 389.27C151.31 389.8 150.78 390.12 150.13 390.12 148.85 390.12 148.14 389.03 148.14 387.39 148.14 385.78 148.92 384.61 150.21 384.61 150.83 384.61 151.28 384.89 151.63 385.26L151.63 382.5 152.55 382.61zM150.33 389.39C150.92 389.39 151.28 389.1 151.63 388.61L151.63 386.03C151.3 385.61 150.93 385.34 150.41 385.34 149.62 385.34 149.13 386 149.13 387.37 149.13 388.76 149.57 389.39 150.33 389.39zM158.89 383.24C158.31 383.24 158.11 383.49 158.11 384L158.11 384.73 159.39 384.73 159.29 385.44 158.11 385.44 158.11 390 157.19 390 157.19 385.44 156.25 385.44 156.25 384.73 157.19 384.73 157.19 384.01C157.19 383.13 157.77 382.5 158.84 382.5 159.34 382.5 159.68 382.59 160.1 382.77L159.81 383.44C159.47 383.29 159.16 383.24 158.89 383.24zM162.43 384.61C163.93 384.61 164.77 385.69 164.77 387.36 164.77 388.99 163.91 390.12 162.42 390.12 160.92 390.12 160.07 389.04 160.07 387.37 160.07 385.74 160.93 384.61 162.43 384.61zM162.43 385.35C161.55 385.35 161.06 385.99 161.06 387.37 161.06 388.74 161.54 389.38 162.42 389.38 163.3 389.38 163.78 388.74 163.78 387.36 163.78 385.99 163.3 385.35 162.43 385.35zM168.58 384.61C167.94 384.61 167.45 385.01 167.17 385.8L167.08 384.73 166.29 384.73 166.29 390 167.21 390 167.21 386.99C167.43 385.98 167.81 385.51 168.47 385.51 168.66 385.51 168.77 385.53 168.93 385.57L169.1 384.67C168.94 384.63 168.75 384.61 168.58 384.61zM176.78 387.21C176.78 387.39 176.77 387.56 176.76 387.68L173.4 387.68C173.49 388.9 174.06 389.37 174.82 389.37 175.34 389.37 175.73 389.23 176.19 388.91L176.59 389.46C176.07 389.87 175.48 390.12 174.75 390.12 173.28 390.12 172.42 389.09 172.42 387.42 172.42 385.78 173.25 384.61 174.61 384.61 176.03 384.61 176.78 385.6 176.78 387.21zM175.87 387L175.87 386.94C175.87 385.91 175.46 385.34 174.63 385.34 173.93 385.34 173.47 385.83 173.4 387L175.87 387zM183.59 384.61C182.88 384.61 182.4 384.99 182.02 385.56 181.82 384.96 181.34 384.61 180.69 384.61 180 384.61 179.52 384.97 179.17 385.5L179.09 384.73 178.3 384.73 178.3 390 179.22 390 179.22 386.26C179.57 385.7 179.89 385.33 180.46 385.33 180.86 385.33 181.2 385.56 181.2 386.35L181.2 390 182.12 390 182.12 386.26C182.48 385.7 182.79 385.33 183.36 385.33 183.76 385.33 184.1 385.56 184.1 386.35L184.1 390 185.02 390 185.02 386.22C185.02 385.23 184.45 384.61 183.59 384.61zM189.29 384.61C190.69 384.61 191.24 385.7 191.24 387.36 191.24 388.96 190.53 390.12 189.17 390.12 188.6 390.12 188.13 389.93 187.79 389.52L187.79 392.02 186.87 392.13 186.87 384.73 187.66 384.73 187.73 385.44C188.12 384.9 188.69 384.61 189.29 384.61zM188.95 389.37C189.79 389.37 190.25 388.74 190.25 387.36 190.25 385.99 189.85 385.34 189.06 385.34 188.5 385.34 188.07 385.74 187.79 386.16L187.79 388.73C188.06 389.14 188.47 389.37 188.95 389.37zM195.29 384.61C194.63 384.61 194.11 384.94 193.73 385.46L193.73 382.52 192.81 382.62 192.81 390 193.73 390 193.73 386.25C194.08 385.7 194.49 385.33 195.06 385.33 195.56 385.33 195.9 385.56 195.9 386.35L195.9 390 196.82 390 196.82 386.22C196.82 385.23 196.25 384.61 195.29 384.61zM202.22 388.77C202.22 389.23 202.39 389.38 202.66 389.48L202.45 390.12C201.92 390.06 201.58 389.85 201.42 389.33 201.05 389.88 200.49 390.12 199.85 390.12 198.8 390.12 198.17 389.47 198.17 388.53 198.17 387.4 199.02 386.79 200.49 386.79L201.3 386.79 201.3 386.4C201.3 385.64 200.93 385.36 200.2 385.36 199.81 385.36 199.32 385.46 198.78 385.64L198.55 384.97C199.2 384.73 199.78 384.61 200.37 384.61 201.64 384.61 202.22 385.26 202.22 386.36L202.22 388.77zM200.06 389.43C200.6 389.43 201 389.16 201.3 388.61L201.3 387.4 200.61 387.4C199.64 387.4 199.15 387.76 199.15 388.48 199.15 389.1 199.46 389.43 200.06 389.43zM205.54 384.61C204.45 384.61 203.64 385.22 203.64 386.05 203.64 386.8 204.09 387.29 205.23 387.59 206.25 387.86 206.51 388.06 206.51 388.61 206.51 389.07 206.07 389.38 205.38 389.38 204.81 389.38 204.32 389.19 203.92 388.85L203.41 389.43C203.87 389.83 204.51 390.12 205.4 390.12 206.47 390.12 207.48 389.62 207.48 388.52 207.48 387.6 206.84 387.16 205.73 386.88 204.88 386.66 204.6 386.46 204.6 386.03 204.6 385.61 204.97 385.34 205.57 385.34 206.06 385.34 206.47 385.49 206.93 385.82L207.33 385.21C206.83 384.83 206.28 384.61 205.54 384.61zM209.23 382.2C208.85 382.2 208.59 382.47 208.59 382.83 208.59 383.18 208.85 383.45 209.23 383.45 209.62 383.45 209.88 383.18 209.88 382.83 209.88 382.47 209.62 382.2 209.23 382.2zM209.7 390L209.7 384.73 208.78 384.73 208.78 390 209.7 390zM214.69 385.43L214.69 384.73 211.13 384.73 211.13 385.51 213.64 385.51 210.9 389.31 210.9 390 214.61 390 214.72 389.23 211.94 389.23 214.69 385.43zM219.95 387.21C219.95 387.39 219.94 387.56 219.93 387.68L216.57 387.68C216.66 388.9 217.23 389.37 217.99 389.37 218.51 389.37 218.9 389.23 219.36 388.91L219.76 389.46C219.24 389.87 218.65 390.12 217.92 390.12 216.45 390.12 215.59 389.09 215.59 387.42 215.59 385.78 216.42 384.61 217.78 384.61 219.2 384.61 219.95 385.6 219.95 387.21zM219.04 387L219.04 386.94C219.04 385.91 218.63 385.34 217.8 385.34 217.1 385.34 216.64 385.83 216.57 387L219.04 387zM225.55 382.61L225.55 390 224.74 390 224.65 389.27C224.31 389.8 223.78 390.12 223.13 390.12 221.85 390.12 221.14 389.03 221.14 387.39 221.14 385.78 221.92 384.61 223.21 384.61 223.83 384.61 224.28 384.89 224.63 385.26L224.63 382.5 225.55 382.61zM223.33 389.39C223.92 389.39 224.28 389.1 224.63 388.61L224.63 386.03C224.3 385.61 223.93 385.34 223.41 385.34 222.62 385.34 222.13 386 222.13 387.37 222.13 388.76 222.57 389.39 223.33 389.39zM231.89 383.24C231.31 383.24 231.11 383.49 231.11 384L231.11 384.73 232.39 384.73 232.29 385.44 231.11 385.44 231.11 390 230.19 390 230.19 385.44 229.25 385.44 229.25 384.73 230.19 384.73 230.19 384.01C230.19 383.13 230.77 382.5 231.84 382.5 232.34 382.5 232.68 382.59 233.1 382.77L232.81 383.44C232.47 383.29 232.16 383.24 231.89 383.24zM235.43 384.61C236.93 384.61 237.77 385.69 237.77 387.36 237.77 388.99 236.91 390.12 235.42 390.12 233.92 390.12 233.07 389.04 233.07 387.37 233.07 385.74 233.93 384.61 235.43 384.61zM235.43 385.35C234.55 385.35 234.06 385.99 234.06 387.37 234.06 388.74 234.54 389.38 235.42 389.38 236.3 389.38 236.78 388.74 236.78 387.36 236.78 385.99 236.3 385.35 235.43 385.35zM241.77 384.61C241.08 384.61 240.52 384.97 240.16 385.51L240.08 384.73 239.29 384.73 239.29 390 240.21 390 240.21 386.26C240.56 385.7 240.96 385.33 241.55 385.33 242.06 385.33 242.38 385.56 242.38 386.35L242.38 390 243.3 390 243.3 386.22C243.3 385.22 242.74 384.61 241.77 384.61zM247.81 389.76L247.46 389.13C247.2 389.29 246.99 389.36 246.76 389.36 246.3 389.36 246.13 389.11 246.13 388.58L246.13 385.44 247.28 385.44 247.38 384.73 246.13 384.73 246.13 383.43 245.21 383.54 245.21 384.73 244.29 384.73 244.29 385.44 245.21 385.44 245.21 388.62C245.21 389.6 245.74 390.12 246.63 390.12 247.08 390.12 247.46 390 247.81 389.76zM252.84 384.61C251.75 384.61 250.94 385.22 250.94 386.05 250.94 386.8 251.39 387.29 252.53 387.59 253.55 387.86 253.81 388.06 253.81 388.61 253.81 389.07 253.37 389.38 252.68 389.38 252.11 389.38 251.62 389.19 251.22 388.85L250.71 389.43C251.17 389.83 251.81 390.12 252.7 390.12 253.77 390.12 254.78 389.62 254.78 388.52 254.78 387.6 254.14 387.16 253.03 386.88 252.18 386.66 251.9 386.46 251.9 386.03 251.9 385.61 252.27 385.34 252.87 385.34 253.36 385.34 253.77 385.49 254.23 385.82L254.63 385.21C254.13 384.83 253.58 384.61 252.84 384.61zM258.74 389.76L258.39 389.13C258.13 389.29 257.92 389.36 257.69 389.36 257.23 389.36 257.06 389.11 257.06 388.58L257.06 385.44 258.21 385.44 258.31 384.73 257.06 384.73 257.06 383.43 256.14 383.54 256.14 384.73 255.22 384.73 255.22 385.44 256.14 385.44 256.14 388.62C256.14 389.6 256.67 390.12 257.56 390.12 258.01 390.12 258.39 390 258.74 389.76zM261.8 390.03L263.56 384.73 262.61 384.73 261.23 389.33 259.82 384.73 258.84 384.73 260.61 390 260.92 390C260.62 390.82 260.32 391.23 259.25 391.41L259.35 392.13C260.81 391.97 261.43 391.15 261.8 390.03zM265.48 388.94L265.48 382.5 264.56 382.61 264.56 388.96C264.56 389.72 264.94 390.12 265.61 390.12 265.88 390.12 266.14 390.06 266.39 389.94L266.15 389.3C266.05 389.34 265.94 389.36 265.81 389.36 265.57 389.36 265.48 389.22 265.48 388.94zM271.52 387.21C271.52 387.39 271.51 387.56 271.5 387.68L268.14 387.68C268.23 388.9 268.8 389.37 269.56 389.37 270.08 389.37 270.47 389.23 270.93 388.91L271.33 389.46C270.81 389.87 270.22 390.12 269.49 390.12 268.02 390.12 267.16 389.09 267.16 387.42 267.16 385.78 267.99 384.61 269.35 384.61 270.77 384.61 271.52 385.6 271.52 387.21zM270.61 387L270.61 386.94C270.61 385.91 270.2 385.34 269.37 385.34 268.67 385.34 268.21 385.83 268.14 387L270.61 387zM66.28 64.11C68.04 64.11 69.73 64.66 69.73 67.52 69.73 70.33 67.98 71 66.49 71L64.84 71 64.84 64.11 66.28 64.11zM65.79 64.87L65.79 70.25 66.56 70.25C67.64 70.25 68.72 69.79 68.72 67.52 68.72 65.19 67.59 64.87 66.49 64.87L65.79 64.87zM71.68 63.2C71.3 63.2 71.04 63.47 71.04 63.83 71.04 64.18 71.3 64.45 71.68 64.45 72.07 64.45 72.33 64.18 72.33 63.83 72.33 63.47 72.07 63.2 71.68 63.2zM72.15 71L72.15 65.73 71.23 65.73 71.23 71 72.15 71zM75.48 65.61C74.39 65.61 73.58 66.22 73.58 67.05 73.58 67.8 74.03 68.29 75.17 68.59 76.19 68.86 76.45 69.06 76.45 69.61 76.45 70.07 76.01 70.38 75.32 70.38 74.75 70.38 74.26 70.19 73.86 69.85L73.35 70.43C73.81 70.83 74.45 71.12 75.34 71.12 76.41 71.12 77.42 70.62 77.42 69.52 77.42 68.6 76.78 68.16 75.67 67.88 74.82 67.66 74.54 67.46 74.54 67.03 74.54 66.61 74.91 66.34 75.51 66.34 76 66.34 76.41 66.49 76.87 66.82L77.27 66.21C76.77 65.83 76.22 65.61 75.48 65.61zM81.14 65.61C82.54 65.61 83.09 66.7 83.09 68.36 83.09 69.96 82.38 71.12 81.02 71.12 80.45 71.12 79.98 70.93 79.64 70.52L79.64 73.02 78.72 73.13 78.72 65.73 79.51 65.73 79.58 66.44C79.97 65.9 80.54 65.61 81.14 65.61zM80.8 70.37C81.64 70.37 82.1 69.74 82.1 68.36 82.1 66.99 81.7 66.34 80.91 66.34 80.35 66.34 79.92 66.74 79.64 67.16L79.64 69.73C79.91 70.14 80.32 70.37 80.8 70.37zM85.53 69.94L85.53 63.5 84.61 63.61 84.61 69.96C84.61 70.72 84.99 71.12 85.66 71.12 85.93 71.12 86.19 71.06 86.44 70.94L86.2 70.3C86.1 70.34 85.99 70.36 85.86 70.36 85.62 70.36 85.53 70.22 85.53 69.94zM91.14 69.77C91.14 70.23 91.31 70.38 91.58 70.48L91.37 71.12C90.84 71.06 90.5 70.85 90.34 70.33 89.97 70.88 89.41 71.12 88.77 71.12 87.72 71.12 87.09 70.47 87.09 69.53 87.09 68.4 87.94 67.79 89.41 67.79L90.22 67.79 90.22 67.4C90.22 66.64 89.85 66.36 89.12 66.36 88.73 66.36 88.24 66.46 87.7 66.64L87.47 65.97C88.12 65.73 88.7 65.61 89.29 65.61 90.56 65.61 91.14 66.26 91.14 67.36L91.14 69.77zM88.98 70.43C89.52 70.43 89.92 70.16 90.22 69.61L90.22 68.4 89.53 68.4C88.56 68.4 88.07 68.76 88.07 69.48 88.07 70.1 88.38 70.43 88.98 70.43zM95.14 71.03L96.9 65.73 95.95 65.73 94.57 70.33 93.16 65.73 92.18 65.73 93.95 71 94.26 71C93.96 71.82 93.66 72.23 92.59 72.41L92.69 73.13C94.15 72.97 94.77 72.15 95.14 71.03zM73.83 233.36C74.63 233.5 75.42 233.87 75.42 235.04 75.42 236.5 74.29 237 72.69 237L70.79 237 70.79 230.11 72.42 230.11C74.12 230.11 75.12 230.65 75.12 231.85 75.12 232.7 74.5 233.22 73.83 233.36zM71.74 230.86L71.74 233.03 72.78 233.03C73.55 233.03 74.15 232.65 74.15 231.92 74.15 231.07 73.54 230.86 72.52 230.86L71.74 230.86zM72.69 236.24C73.69 236.24 74.42 236.04 74.42 235.04 74.42 234.07 73.7 233.76 72.87 233.76L71.74 233.76 71.74 236.24 72.69 236.24zM78.8 231.61C80.3 231.61 81.14 232.69 81.14 234.36 81.14 235.99 80.28 237.12 78.79 237.12 77.29 237.12 76.44 236.04 76.44 234.37 76.44 232.74 77.3 231.61 78.8 231.61zM78.8 232.35C77.92 232.35 77.43 232.99 77.43 234.37 77.43 235.74 77.91 236.38 78.79 236.38 79.67 236.38 80.15 235.74 80.15 234.36 80.15 232.99 79.67 232.35 78.8 232.35zM86.74 229.61L86.74 237 85.93 237 85.84 236.27C85.5 236.8 84.97 237.12 84.32 237.12 83.04 237.12 82.33 236.03 82.33 234.39 82.33 232.78 83.11 231.61 84.4 231.61 85.02 231.61 85.47 231.89 85.82 232.26L85.82 229.5 86.74 229.61zM84.52 236.39C85.11 236.39 85.47 236.1 85.82 235.61L85.82 233.03C85.49 232.61 85.12 232.34 84.6 232.34 83.81 232.34 83.32 233 83.32 234.37 83.32 235.76 83.76 236.39 84.52 236.39zM90.75 237.03L92.51 231.73 91.56 231.73 90.18 236.33 88.77 231.73 87.79 231.73 89.56 237 89.87 237C89.57 237.82 89.27 238.23 88.2 238.41L88.3 239.13C89.76 238.97 90.38 238.15 90.75 237.03zM95.27 231.72L96.8 231.39 96.52 230.56 95.1 231.19 95.25 229.61 94.35 229.61 94.5 231.18 93.08 230.57 92.81 231.39 94.33 231.72 93.3 232.89 94.02 233.41 94.8 232.07 95.59 233.41 96.31 232.88 95.27 231.72zM81.94 120.92L82.04 120.11 77.12 120.11 77.12 120.92 79.08 120.92 79.08 127 80.03 127 80.03 120.92 81.94 120.92zM83.54 119.2C83.16 119.2 82.9 119.47 82.9 119.83 82.9 120.18 83.16 120.45 83.54 120.45 83.93 120.45 84.19 120.18 84.19 119.83 84.19 119.47 83.93 119.2 83.54 119.2zM84.01 127L84.01 121.73 83.09 121.73 83.09 127 84.01 127zM88.57 126.76L88.22 126.13C87.96 126.29 87.75 126.36 87.52 126.36 87.06 126.36 86.89 126.11 86.89 125.58L86.89 122.44 88.04 122.44 88.14 121.73 86.89 121.73 86.89 120.43 85.97 120.54 85.97 121.73 85.05 121.73 85.05 122.44 85.97 122.44 85.97 125.62C85.97 126.6 86.5 127.12 87.39 127.12 87.84 127.12 88.22 127 88.57 126.76zM90.39 125.94L90.39 119.5 89.47 119.61 89.47 125.96C89.47 126.72 89.85 127.12 90.52 127.12 90.79 127.12 91.05 127.06 91.3 126.94L91.06 126.3C90.96 126.34 90.85 126.36 90.72 126.36 90.48 126.36 90.39 126.22 90.39 125.94zM96.43 124.21C96.43 124.39 96.42 124.56 96.41 124.68L93.05 124.68C93.14 125.9 93.71 126.37 94.47 126.37 94.99 126.37 95.38 126.23 95.84 125.91L96.24 126.46C95.72 126.87 95.13 127.12 94.4 127.12 92.93 127.12 92.07 126.09 92.07 124.42 92.07 122.78 92.9 121.61 94.26 121.61 95.68 121.61 96.43 122.6 96.43 124.21zM95.52 124L95.52 123.94C95.52 122.91 95.11 122.34 94.28 122.34 93.58 122.34 93.12 122.83 93.05 124L95.52 124zM60.572791 304.972772C59.012791 304.972772 57.712791 306.202772 57.712791 308.532772 57.712791 310.852772 58.922791 312.102772 60.592791 312.102772 61.522791 312.102772 62.192791 311.722772 62.562791 311.332772L62.082791 310.722772C61.692791 311.012772 61.272791 311.302772 60.622791 311.302772 59.552791 311.302772 58.722791 310.522772 58.722791 308.532772 58.722791 306.452772 59.592791 305.752772 60.632791 305.752772 61.112791 305.752772 61.532791 305.912772 61.962791 306.262772L62.482791 305.652772C61.932791 305.212772 61.442791 304.972772 60.572791 304.972772zM67.262791 310.752772C67.262791 311.212772 67.432791 311.362772 67.702791 311.462772L67.492791 312.102772C66.962791 312.042772 66.622791 311.832772 66.462791 311.312772 66.092791 311.862772 65.532791 312.102772 64.892791 312.102772 63.842791 312.102772 63.212791 311.452772 63.212791 310.512772 63.212791 309.382772 64.062791 308.772772 65.532791 308.772772L66.342791 308.772772 66.342791 308.382772C66.342791 307.622772 65.972791 307.342772 65.242791 307.342772 64.852791 307.342772 64.362791 307.442772 63.822791 307.622772L63.592791 306.952772C64.242791 306.712772 64.822791 306.592772 65.412791 306.592772 66.682791 306.592772 67.262791 307.242772 67.262791 308.342772L67.262791 310.752772zM65.102791 311.412772C65.642791 311.412772 66.042791 311.142772 66.342791 310.592772L66.342791 309.382772 65.652791 309.382772C64.682791 309.382772 64.192791 309.742772 64.192791 310.462772 64.192791 311.082772 64.502791 311.412772 65.102791 311.412772zM71.572791 306.592772C72.972791 306.592772 73.522791 307.682772 73.522791 309.342772 73.522791 310.942772 72.812791 312.102772 71.452791 312.102772 70.882791 312.102772 70.412791 311.912772 70.072791 311.502772L70.072791 314.002772 69.152791 314.112772 69.152791 306.712772 69.942791 306.712772 70.012791 307.422772C70.402791 306.882772 70.972791 306.592772 71.572791 306.592772zM71.232791 311.352772C72.072791 311.352772 72.532791 310.722772 72.532791 309.342772 72.532791 307.972772 72.132791 307.322772 71.342791 307.322772 70.782791 307.322772 70.352791 307.722772 70.072791 308.142772L70.072791 310.712772C70.342791 311.122772 70.752791 311.352772 71.232791 311.352772zM77.752791 311.742772L77.402791 311.112772C77.142791 311.272772 76.932791 311.342772 76.702791 311.342772 76.242791 311.342772 76.072791 311.092772 76.072791 310.562772L76.072791 307.422772 77.222791 307.422772 77.322791 306.712772 76.072791 306.712772 76.072791 305.412772 75.152791 305.522772 75.152791 306.712772 74.232791 306.712772 74.232791 307.422772 75.152791 307.422772 75.152791 310.602772C75.152791 311.582772 75.682791 312.102772 76.572791 312.102772 77.022791 312.102772 77.402791 311.982772 77.752791 311.742772zM79.152791 304.182772C78.772791 304.182772 78.512791 304.452772 78.512791 304.812772 78.512791 305.162772 78.772791 305.432772 79.152791 305.432772 79.542791 305.432772 79.802791 305.162772 79.802791 304.812772 79.802791 304.452772 79.542791 304.182772 79.152791 304.182772zM79.622791 311.982772L79.622791 306.712772 78.702791 306.712772 78.702791 311.982772 79.622791 311.982772zM83.502791 306.592772C85.002791 306.592772 85.842791 307.672772 85.842791 309.342772 85.842791 310.972772 84.982791 312.102772 83.492791 312.102772 81.992791 312.102772 81.142791 311.022772 81.142791 309.352772 81.142791 307.722772 82.002791 306.592772 83.502791 306.592772zM83.502791 307.332772C82.622791 307.332772 82.132791 307.972772 82.132791 309.352772 82.132791 310.722772 82.612791 311.362772 83.492791 311.362772 84.372791 311.362772 84.852791 310.722772 84.852791 309.342772 84.852791 307.972772 84.372791 307.332772 83.502791 307.332772zM89.842791 306.592772C89.152791 306.592772 88.592791 306.952772 88.232791 307.492772L88.152791 306.712772 87.362791 306.712772 87.362791 311.982772 88.282791 311.982772 88.282791 308.242772C88.632791 307.682772 89.032791 307.312772 89.622791 307.312772 90.132791 307.312772 90.452791 307.542772 90.452791 308.332772L90.452791 311.982772 91.372791 311.982772 91.372791 308.202772C91.372791 307.202772 90.812791 306.592772 89.842791 306.592772zM94.932791 306.702772L96.462791 306.372772 96.182791 305.542772 94.762791 306.172772 94.912791 304.592772 94.012791 304.592772 94.162791 306.162772 92.742791 305.552772 92.472791 306.372772 93.992791 306.702772 92.962791 307.872772 93.682791 308.392772 94.462791 307.052772 95.252791 308.392772 95.972791 307.862772 94.932791 306.702772z"/>
  </g>
</svg>
