<svg xmlns="http://www.w3.org/2000/svg" width="640" height="128" viewBox="0 0 640 128">
  <defs>
    <linearGradient id="typeface-segoe-a" x1="0%" y1="50%" y2="50%">
      <stop offset="0%" stop-color="#F9F9FA" stop-opacity="0"/>
      <stop offset="100%" stop-color="#F9F9FA"/>
    </linearGradient>
  </defs>
  <g fill="none" fill-rule="evenodd">
    <path fill="#000F40" d="M39.8183594,75 L35.2304688,75 L32.9628906,68.5839844 L23.0488281,68.5839844 L20.8691406,75 L16.2988281,75 L25.7382812,49.7929688 L30.4492188,49.7929688 L39.8183594,75 Z M31.8554688,65.1738281 L28.3574219,55.1191406 C28.2519526,54.791014 28.1406256,54.2636755 28.0234375,53.5371094 L27.953125,53.5371094 C27.8476557,54.2050815 27.7304694,54.7324199 27.6015625,55.1191406 L24.1386719,65.1738281 L31.8554688,65.1738281 Z M56.640625,75 L52.6855469,75 L52.6855469,72.1875 L52.6152344,72.1875 C51.3730407,74.3437608 49.5507933,75.421875 47.1484375,75.421875 C45.3788974,75.421875 43.9931691,74.9414111 42.9912109,73.9804688 C41.9892528,73.0195264 41.4882812,71.7480548 41.4882812,70.1660156 C41.4882812,66.7675611 43.4452929,64.7871122 47.359375,64.2246094 L52.703125,63.46875 C52.703125,60.9023309 51.4843872,59.6191406 49.046875,59.6191406 C46.902333,59.6191406 44.9687586,60.3574145 43.2460938,61.8339844 L43.2460938,58.265625 C45.1445407,57.1406194 47.3359251,56.578125 49.8203125,56.578125 C54.3672102,56.578125 56.640625,58.8163839 56.640625,63.2929688 L56.640625,75 Z M52.703125,66.1582031 L48.9238281,66.6855469 C47.7519473,66.8378914 46.8701201,67.1220682 46.2783203,67.5380859 C45.6865205,67.9541036 45.390625,68.6835885 45.390625,69.7265625 C45.390625,70.4882851 45.6630832,71.1123023 46.2080078,71.5986328 C46.7529324,72.0849634 47.4824173,72.328125 48.3964844,72.328125 C49.6386781,72.328125 50.6669881,71.8916059 51.4814453,71.0185547 C52.2959025,70.1455034 52.703125,69.0468816 52.703125,67.7226562 L52.703125,66.1582031 Z M71.96875,75 L71.96875,49.7929688 L79.9667969,49.7929688 C82.4043091,49.7929688 84.3349538,50.3261665 85.7587891,51.3925781 C87.1826243,52.4589897 87.8945312,53.8476477 87.8945312,55.5585938 C87.8945312,56.9882884 87.4902384,58.2304635 86.6816406,59.2851562 C85.8730428,60.339849 84.7539134,61.0898415 83.3242188,61.5351562 L83.3242188,61.6054688 C85.0586024,61.8046885 86.4443308,62.4462836 87.4814453,63.5302734 C88.5185599,64.6142632 89.0371094,66.0234288 89.0371094,67.7578125 C89.0371094,69.9140733 88.1875085,71.6601496 86.4882812,72.9960938 C84.789054,74.3320379 82.6445442,75 80.0546875,75 L71.96875,75 Z M76.1347656,53.1503906 L76.1347656,60.3222656 L78.8417969,60.3222656 C80.2949291,60.3222656 81.4345662,59.9794956 82.2607422,59.2939453 C83.0869182,58.608395 83.5,57.6386781 83.5,56.3847656 C83.5,54.2285048 82.0586082,53.1503906 79.1757812,53.1503906 L76.1347656,53.1503906 Z M76.1347656,63.6796875 L76.1347656,71.6601562 L79.703125,71.6601562 C81.2617265,71.6601562 82.4658161,71.2998083 83.3154297,70.5791016 C84.1650433,69.8583948 84.5898438,68.8652407 84.5898438,67.5996094 C84.5898438,64.9863151 82.779315,63.6796875 79.1582031,63.6796875 L76.1347656,63.6796875 Z M97.4042969,72.3984375 L97.3339844,72.3984375 L97.3339844,75 L93.2558594,75 L93.2558594,48.3515625 L97.3339844,48.3515625 L97.3339844,60.1640625 L97.4042969,60.1640625 C98.7988351,57.7734255 100.837877,56.578125 103.521484,56.578125 C105.794933,56.578125 107.573236,57.383781 108.856445,58.9951172 C110.139655,60.6064534 110.78125,62.7656115 110.78125,65.4726562 C110.78125,68.4843901 110.060554,70.8954988 108.619141,72.7060547 C107.177727,74.5166106 105.208997,75.421875 102.712891,75.421875 C100.369129,75.421875 98.5996154,74.4140726 97.4042969,72.3984375 Z M97.2988281,65.2441406 L97.2988281,67.4765625 C97.2988281,68.7890691 97.7177692,69.9023392 98.5556641,70.8164062 C99.3935589,71.7304733 100.457025,72.1875 101.746094,72.1875 C103.25782,72.1875 104.444332,71.5986387 105.305664,70.4208984 C106.166996,69.2431582 106.597656,67.5996199 106.597656,65.4902344 C106.597656,63.7206943 106.196293,62.3349659 105.393555,61.3330078 C104.590816,60.3310497 103.503913,59.8300781 102.132812,59.8300781 C100.67968,59.8300781 99.5107466,60.345698 98.6259766,61.3769531 C97.7412065,62.4082083 97.2988281,63.6972579 97.2988281,65.2441406 Z M142.878906,73.9453125 C140.980459,74.9296924 138.619155,75.421875 135.794922,75.421875 C132.138654,75.421875 129.208995,74.2675897 127.005859,71.9589844 C124.802723,69.6503791 123.701172,66.6211125 123.701172,62.8710938 C123.701172,58.8398236 124.940417,55.5820437 127.418945,53.0976562 C129.897473,50.6132688 133.029278,49.3710938 136.814453,49.3710938 C139.251965,49.3710938 141.273429,49.7167934 142.878906,50.4082031 L142.878906,54.5566406 C141.179679,53.5488231 139.304698,53.0449219 137.253906,53.0449219 C134.523424,53.0449219 132.311532,53.91796 130.618164,55.6640625 C128.924796,57.410165 128.078125,59.7421729 128.078125,62.6601562 C128.078125,65.4375139 128.869133,67.6494058 130.451172,69.2958984 C132.033211,70.942391 134.113268,71.765625 136.691406,71.765625 C139.070324,71.765625 141.132804,71.2031306 142.878906,70.078125 L142.878906,73.9453125 Z M160.087891,74.1738281 C158.646477,75.0058635 156.941416,75.421875 154.972656,75.421875 C152.300768,75.421875 150.144539,74.5869224 148.503906,72.9169922 C146.863273,71.247062 146.042969,69.0820446 146.042969,66.421875 C146.042969,63.4570164 146.924796,61.0752043 148.688477,59.2763672 C150.452157,57.4775301 152.810532,56.578125 155.763672,56.578125 C157.404305,56.578125 158.851556,56.8652315 160.105469,57.4394531 L160.105469,61.2363281 C158.851556,60.2988234 157.515632,59.8300781 156.097656,59.8300781 C154.374991,59.8300781 152.962896,60.4130801 151.861328,61.5791016 C150.75976,62.745123 150.208984,64.2714749 150.208984,66.1582031 C150.208984,68.0214937 150.727534,69.4921821 151.764648,70.5703125 C152.801763,71.6484429 154.193351,72.1875 155.939453,72.1875 C157.404304,72.1875 158.787103,71.6660208 160.087891,70.6230469 L160.087891,74.1738281 Z M174.484375,75 L174.484375,49.7929688 L181.761719,49.7929688 C191.054734,49.7929688 195.701172,53.8886309 195.701172,62.0800781 C195.701172,65.9707226 194.412122,69.0966679 191.833984,71.4580078 C189.255846,73.8193477 185.79885,75 181.462891,75 L174.484375,75 Z M178.650391,53.34375 L178.650391,71.4667969 L181.990234,71.4667969 C184.931655,71.4667969 187.219718,70.6582112 188.854492,69.0410156 C190.489266,67.42382 191.306641,65.1386866 191.306641,62.1855469 C191.306641,56.2909862 188.253937,53.34375 182.148438,53.34375 L178.650391,53.34375 Z M216.214844,75 L212.136719,75 L212.136719,71.9414062 L212.066406,71.9414062 C210.7539,74.2617304 208.732436,75.421875 206.001953,75.421875 C203.787098,75.421875 202.014655,74.616219 200.68457,73.0048828 C199.354486,71.3935466 198.689453,69.1992326 198.689453,66.421875 C198.689453,63.4452976 199.424797,61.0605558 200.895508,59.2675781 C202.366218,57.4746004 204.32616,56.578125 206.775391,56.578125 C209.201184,56.578125 210.964838,57.5507715 212.066406,59.4960938 L212.136719,59.4960938 L212.136719,48.3515625 L216.214844,48.3515625 L216.214844,75 Z M212.189453,66.7734375 L212.189453,64.4179688 C212.189453,63.1406186 211.773442,62.0566451 210.941406,61.1660156 C210.109371,60.2753862 209.048835,59.8300781 207.759766,59.8300781 C206.236321,59.8300781 205.03809,60.3984318 204.165039,61.5351562 C203.291988,62.6718807 202.855469,64.2480368 202.855469,66.2636719 C202.855469,68.091806 203.27441,69.5361275 204.112305,70.5966797 C204.9502,71.6572319 206.078118,72.1875 207.496094,72.1875 C208.890632,72.1875 210.02148,71.6748098 210.888672,70.6494141 C211.755864,69.6240183 212.189453,68.332039 212.189453,66.7734375 Z M246.044922,75 L231.894531,75 L231.894531,49.7929688 L245.482422,49.7929688 L245.482422,53.34375 L236.078125,53.34375 L236.078125,60.4804688 L244.744141,60.4804688 L244.744141,64.0136719 L236.078125,64.0136719 L236.078125,71.4667969 L246.044922,71.4667969 L246.044922,75 Z M265.310547,67.1074219 L253.041016,67.1074219 C253.087891,68.7714927 253.600581,70.054683 254.579102,70.9570312 C255.557622,71.8593795 256.902335,72.3105469 258.613281,72.3105469 C260.535166,72.3105469 262.29882,71.7363339 263.904297,70.5878906 L263.904297,73.875 C262.263664,74.9062552 260.095717,75.421875 257.400391,75.421875 C254.75194,75.421875 252.674812,74.6045004 251.168945,72.9697266 C249.663078,71.3349528 248.910156,69.0351711 248.910156,66.0703125 C248.910156,63.2695172 249.73925,60.9873135 251.397461,59.2236328 C253.055672,57.4599521 255.115222,56.578125 257.576172,56.578125 C260.037122,56.578125 261.9414,57.3691327 263.289062,58.9511719 C264.636725,60.533211 265.310547,62.7304547 265.310547,65.5429688 L265.310547,67.1074219 Z M261.373047,64.2246094 C261.361328,62.7597583 261.015628,61.6201213 260.335938,60.8056641 C259.656247,59.9912069 258.718756,59.5839844 257.523438,59.5839844 C256.351557,59.5839844 255.358403,60.0117145 254.543945,60.8671875 C253.729488,61.7226605 253.228517,62.84179 253.041016,64.2246094 L261.373047,64.2246094 Z M293.154297,53.34375 L283.732422,53.34375 L283.732422,60.9199219 L292.416016,60.9199219 L292.416016,64.453125 L283.732422,64.453125 L283.732422,75 L279.548828,75 L279.548828,49.7929688 L293.154297,49.7929688 L293.154297,53.34375 Z M307.603516,51.6738281 C307.052732,51.3574203 306.425785,51.1992188 305.722656,51.1992188 C303.742178,51.1992188 302.751953,52.3183482 302.751953,54.5566406 L302.751953,57 L306.935547,57 L306.935547,60.1992188 L302.769531,60.1992188 L302.769531,75 L298.691406,75 L298.691406,60.1992188 L295.615234,60.1992188 L295.615234,57 L298.691406,57 L298.691406,54.0820312 C298.691406,52.1835843 299.312494,50.6865289 300.554688,49.5908203 C301.796881,48.4951117 303.3496,47.9472656 305.212891,47.9472656 C306.220708,47.9472656 307.017575,48.0585926 307.603516,48.28125 L307.603516,51.6738281 Z M339.859375,73.2773438 C337.234362,74.7070384 334.310563,75.421875 331.087891,75.421875 C327.361309,75.421875 324.343762,74.2617304 322.035156,71.9414062 C319.726551,69.6210821 318.572266,66.5508004 318.572266,62.7304688 C318.572266,58.8281055 319.834948,55.6259891 322.360352,53.1240234 C324.885755,50.6220578 328.093731,49.3710938 331.984375,49.3710938 C334.78517,49.3710938 337.140615,49.7812459 339.050781,50.6015625 L339.050781,54.9082031 C337.117178,53.6191342 334.814466,52.9746094 332.142578,52.9746094 C329.458971,52.9746094 327.258798,53.8593662 325.541992,55.6289062 C323.825187,57.3984463 322.966797,59.6894391 322.966797,62.5019531 C322.966797,65.3964988 323.705071,67.6728433 325.181641,69.3310547 C326.658211,70.9892661 328.662097,71.8183594 331.193359,71.8183594 C332.927743,71.8183594 334.427728,71.4843783 335.693359,70.8164062 L335.693359,64.8222656 L330.384766,64.8222656 L330.384766,61.3066406 L339.859375,61.3066406 L339.859375,73.2773438 Z M361.216797,73.5585938 C361.216797,80.1680018 357.894564,83.4726562 351.25,83.4726562 C348.906238,83.4726562 346.861337,83.0800821 345.115234,82.2949219 L345.115234,78.5683594 C347.083994,79.693365 348.953116,80.2558594 350.722656,80.2558594 C355.000021,80.2558594 357.138672,78.1523648 357.138672,73.9453125 L357.138672,71.9765625 L357.068359,71.9765625 C355.720696,74.273449 353.693373,75.421875 350.986328,75.421875 C348.794911,75.421875 347.028327,74.6220783 345.686523,73.0224609 C344.34472,71.4228436 343.673828,69.2754041 343.673828,66.5800781 C343.673828,63.5214691 344.394524,61.0898528 345.835938,59.2851562 C347.277351,57.4804597 349.2578,56.578125 351.777344,56.578125 C354.156262,56.578125 355.919916,57.5507715 357.068359,59.4960938 L357.138672,59.4960938 L357.138672,57 L361.216797,57 L361.216797,73.5585938 Z M357.173828,66.7558594 L357.173828,64.4179688 C357.173828,63.1523374 356.754887,62.0712935 355.916992,61.1748047 C355.079097,60.2783158 354.033209,59.8300781 352.779297,59.8300781 C351.232414,59.8300781 350.022465,60.4013615 349.149414,61.5439453 C348.276363,62.6865292 347.839844,64.2831929 347.839844,66.3339844 C347.839844,68.1035245 348.258785,69.5185494 349.09668,70.5791016 C349.934575,71.6396537 351.044915,72.1699219 352.427734,72.1699219 C353.833991,72.1699219 354.976558,71.663091 355.855469,70.6494141 C356.734379,69.6357371 357.173828,68.3378985 357.173828,66.7558594 Z M397.128906,75 L392.927734,75 L392.927734,64.0664062 L381.0625,64.0664062 L381.0625,75 L376.878906,75 L376.878906,49.7929688 L381.0625,49.7929688 L381.0625,60.3925781 L392.927734,60.3925781 L392.927734,49.7929688 L397.128906,49.7929688 L397.128906,75 Z M418.890625,75 L414.8125,75 L414.8125,65.15625 C414.8125,61.5937322 413.623059,59.8125 411.244141,59.8125 C410.048822,59.8125 409.04102,60.3281198 408.220703,61.359375 C407.400387,62.3906302 406.990234,63.7089763 406.990234,65.3144531 L406.990234,75 L402.894531,75 L402.894531,48.3515625 L406.990234,48.3515625 L406.990234,59.9882812 L407.060547,59.9882812 C408.419929,57.7148324 410.365222,56.578125 412.896484,56.578125 C416.892598,56.578125 418.890625,59.0214599 418.890625,63.9082031 L418.890625,75 Z M438.490234,75 L434.183594,75 L434.183594,49.7929688 L438.490234,49.7929688 L438.490234,75 Z M446.294922,53.2207031 C445.62695,53.2207031 445.055666,53.0039084 444.581055,52.5703125 C444.106443,52.1367166 443.869141,51.5859408 443.869141,50.9179688 C443.869141,50.2499967 444.106443,49.6933616 444.581055,49.2480469 C445.055666,48.8027321 445.62695,48.5800781 446.294922,48.5800781 C446.986332,48.5800781 447.572263,48.8027321 448.052734,49.2480469 C448.533206,49.6933616 448.773438,50.2499967 448.773438,50.9179688 C448.773438,51.5507844 448.533206,52.0927712 448.052734,52.5439453 C447.572263,52.9951194 446.986332,53.2207031 446.294922,53.2207031 Z M448.316406,75 L444.238281,75 L444.238281,57 L448.316406,57 L448.316406,75 Z M472.275391,65.9648438 C472.275391,68.9531399 471.537117,71.2763589 470.060547,72.9345703 C468.583977,74.5927817 466.615247,75.421875 464.154297,75.421875 C463.005854,75.421875 462.062504,75.2871107 461.324219,75.0175781 L461.324219,71.0800781 C461.992191,71.5371117 462.85351,71.765625 463.908203,71.765625 C466.69728,71.765625 468.091797,69.6093966 468.091797,65.296875 L468.091797,49.7929688 L472.275391,49.7929688 L472.275391,65.9648438 Z M481.890625,74.2441406 C481.890625,77.1972804 481.269537,79.4736248 480.027344,81.0732422 C478.78515,82.6728596 477.009777,83.4726562 474.701172,83.4726562 C473.845699,83.4726562 473.013676,83.2851581 472.205078,82.9101562 L472.205078,79.4121094 C472.966801,79.9394558 473.687497,80.203125 474.367188,80.203125 C476.664074,80.203125 477.8125,78.1758015 477.8125,74.1210938 L477.8125,57 L481.890625,57 L481.890625,74.2441406 Z M479.886719,53.2207031 C479.218747,53.2207031 478.647463,53.0039084 478.172852,52.5703125 C477.69824,52.1367166 477.460938,51.5859408 477.460938,50.9179688 C477.460938,50.2499967 477.69824,49.6933616 478.172852,49.2480469 C478.647463,48.8027321 479.218747,48.5800781 479.886719,48.5800781 C480.56641,48.5800781 481.146482,48.8027321 481.626953,49.2480469 C482.107424,49.6933616 482.347656,50.2499967 482.347656,50.9179688 C482.347656,51.5507844 482.107424,52.0927712 481.626953,52.5439453 C481.146482,52.9951194 480.56641,53.2207031 479.886719,53.2207031 Z M516.642578,75 L511.193359,75 L502.421875,63.46875 C502.093748,63.0351541 501.894532,62.7421883 501.824219,62.5898438 L501.753906,62.5898438 L501.753906,75 L497.570312,75 L497.570312,49.7929688 L501.753906,49.7929688 L501.753906,61.640625 L501.824219,61.640625 C501.964844,61.3828112 502.164061,61.0957047 502.421875,60.7792969 L510.876953,49.7929688 L515.886719,49.7929688 L505.990234,61.8867188 L516.642578,75 Z M535.433594,75 L530.265625,75 L523.269531,66.3515625 L523.199219,66.3515625 L523.199219,75 L519.103516,75 L519.103516,48.3515625 L523.199219,48.3515625 L523.199219,65.2441406 L523.269531,65.2441406 L529.878906,57 L534.783203,57 L527.347656,65.6835938 L535.433594,75 Z M562.310547,75 L548.353516,75 L548.353516,49.7929688 L552.537109,49.7929688 L552.537109,71.4667969 L562.310547,71.4667969 L562.310547,75 Z M569.587891,75 L565.492188,75 L565.492188,48.3515625 L569.587891,48.3515625 L569.587891,75 Z M612.320312,75 L608.171875,75 L608.171875,58.6875 C608.171875,57.3515558 608.253905,55.7168065 608.417969,53.7832031 L608.347656,53.7832031 C608.089842,54.8847711 607.861329,55.6757788 607.662109,56.15625 L600.138672,75 L597.255859,75 L589.714844,56.296875 C589.503905,55.746091 589.281251,54.9082088 589.046875,53.7832031 L588.976562,53.7832031 C589.070313,54.7910207 589.117188,56.4374886 589.117188,58.7226562 L589.117188,75 L585.25,75 L585.25,49.7929688 L591.138672,49.7929688 L597.765625,66.5800781 C598.269534,67.8691471 598.597655,68.830075 598.75,69.4628906 L598.837891,69.4628906 C599.271487,68.1386653 599.623046,67.1543001 599.892578,66.5097656 L606.642578,49.7929688 L612.320312,49.7929688 L612.320312,75 Z M644.980469,75 L640.902344,75 L640.902344,65.1914062 C640.902344,63.3046781 640.635745,61.9394573 640.102539,61.0957031 C639.569333,60.2519489 638.669928,59.8300781 637.404297,59.8300781 C636.337885,59.8300781 635.432621,60.3632759 634.688477,61.4296875 C633.944332,62.4960991 633.572266,63.7734301 633.572266,65.2617188 L633.572266,75 L629.476562,75 L629.476562,64.8574219 C629.476562,61.5058426 628.292981,59.8300781 625.925781,59.8300781 C624.824213,59.8300781 623.918949,60.3339793 623.209961,61.3417969 C622.500973,62.3496144 622.146484,63.656242 622.146484,65.2617188 L622.146484,75 L618.068359,75 L618.068359,57 L622.146484,57 L622.146484,59.8476562 L622.216797,59.8476562 C623.517585,57.6679579 625.410144,56.578125 627.894531,56.578125 C629.136725,56.578125 630.223628,56.920895 631.155273,57.6064453 C632.086919,58.2919956 632.722655,59.1914007 633.0625,60.3046875 C634.398444,57.8203001 636.390612,56.578125 639.039062,56.578125 C643.00002,56.578125 644.980469,59.0214599 644.980469,63.9082031 L644.980469,75 Z M681.683594,75 L677.113281,75 L665.072266,56.4726562 C664.767577,56.0039039 664.515626,55.5175806 664.316406,55.0136719 L664.210938,55.0136719 C664.304688,55.5527371 664.351562,56.7070224 664.351562,58.4765625 L664.351562,75 L660.308594,75 L660.308594,49.7929688 L665.177734,49.7929688 L676.814453,67.8808594 C677.306643,68.6308631 677.623046,69.146483 677.763672,69.4277344 L677.833984,69.4277344 C677.716796,68.7597623 677.658203,67.6289142 677.658203,66.0351562 L677.658203,49.7929688 L681.683594,49.7929688 L681.683594,75 Z M703.498047,75 L699.419922,75 L699.419922,64.8574219 C699.419922,61.4941238 698.230481,59.8125 695.851562,59.8125 C694.609369,59.8125 693.583988,60.2783157 692.775391,61.2099609 C691.966793,62.1416062 691.5625,63.3163992 691.5625,64.734375 L691.5625,75 L687.466797,75 L687.466797,57 L691.5625,57 L691.5625,59.9882812 L691.632812,59.9882812 C692.980475,57.7148324 694.925769,56.578125 697.46875,56.578125 C699.425791,56.578125 700.919917,57.2138608 701.951172,58.4853516 C702.982427,59.7568423 703.498047,61.593738 703.498047,63.9960938 L703.498047,75 Z M729.214844,75.421875 C725.582013,75.421875 722.672862,74.2441524 720.487305,71.8886719 C718.301747,69.5331913 717.208984,66.4687689 717.208984,62.6953125 C717.208984,58.6406047 718.322254,55.4062621 720.548828,52.9921875 C722.775402,50.5781129 725.798809,49.3710938 729.619141,49.3710938 C733.158221,49.3710938 736.008778,50.542957 738.170898,52.8867188 C740.333019,55.2304805 741.414062,58.2949029 741.414062,62.0800781 C741.414062,66.1933799 740.306652,69.4453005 738.091797,71.8359375 C735.876942,74.2265745 732.917987,75.421875 729.214844,75.421875 Z M729.408203,53.0449219 C727.099598,53.0449219 725.221687,53.9062414 723.774414,55.6289062 C722.327141,57.3515711 721.603516,59.6191266 721.603516,62.4316406 C721.603516,65.2324359 722.306634,67.4882727 723.712891,69.1992188 C725.119148,70.9101648 726.958973,71.765625 729.232422,71.765625 C731.646496,71.765625 733.550774,70.95118 734.945312,69.3222656 C736.339851,67.6933512 737.037109,65.4140771 737.037109,62.484375 C737.037109,59.4726412 736.360358,57.1464926 735.006836,55.5058594 C733.653314,53.8652262 731.787121,53.0449219 729.408203,53.0449219 Z M753.560547,75.421875 C750.783189,75.421875 748.565438,74.5810631 746.907227,72.8994141 C745.249015,71.217765 744.419922,68.9882951 744.419922,66.2109375 C744.419922,63.1874849 745.284171,60.8261804 747.012695,59.1269531 C748.74122,57.4277259 751.070298,56.578125 754,56.578125 C756.812514,56.578125 759.003898,57.4042886 760.574219,59.0566406 C762.144539,60.7089926 762.929688,62.9999854 762.929688,65.9296875 C762.929688,68.8007956 762.083016,71.1005773 760.389648,72.8291016 C758.696281,74.5576258 756.419936,75.421875 753.560547,75.421875 Z M753.753906,59.8300781 C752.160148,59.8300781 750.900395,60.3867132 749.974609,61.5 C749.048823,62.6132868 748.585938,64.1484277 748.585938,66.1054688 C748.585938,67.9921969 749.054683,69.4775336 749.992188,70.5615234 C750.929692,71.6455132 752.183586,72.1875 753.753906,72.1875 C755.359383,72.1875 756.592769,71.6543022 757.454102,70.5878906 C758.315434,69.521479 758.746094,68.0039161 758.746094,66.0351562 C758.746094,64.0546776 758.315434,62.525396 757.454102,61.4472656 C756.592769,60.3691352 755.359383,59.8300781 753.753906,59.8300781 Z M781.597656,65.859375 L781.597656,75 L777.431641,75 L777.431641,49.7929688 L785.078125,49.7929688 C787.972671,49.7929688 790.216789,50.4667901 791.810547,51.8144531 C793.404305,53.1621161 794.201172,55.0605346 794.201172,57.5097656 C794.201172,59.9589966 793.369149,61.9628828 791.705078,63.5214844 C790.041007,65.0800859 787.79103,65.859375 784.955078,65.859375 L781.597656,65.859375 Z M781.597656,53.2382812 L781.597656,62.4492188 L784.304688,62.4492188 C786.097665,62.4492188 787.462886,62.0332073 788.400391,61.2011719 C789.337895,60.3691365 789.806641,59.1972732 789.806641,57.6855469 C789.806641,54.7206883 788.084002,53.2382812 784.638672,53.2382812 L781.597656,53.2382812 Z M802.164062,72.3457031 L802.09375,72.3457031 L802.09375,83.2792969 L798.015625,83.2792969 L798.015625,57 L802.09375,57 L802.09375,60.1640625 L802.164062,60.1640625 C803.558601,57.7734255 805.597643,56.578125 808.28125,56.578125 C810.566418,56.578125 812.34765,57.3808513 813.625,58.9863281 C814.90235,60.5918049 815.541016,62.7480333 815.541016,65.4550781 C815.541016,68.4550931 814.82032,70.8574129 813.378906,72.6621094 C811.937493,74.4668059 809.968762,75.3691406 807.472656,75.3691406 C805.17577,75.3691406 803.406256,74.3613382 802.164062,72.3457031 Z M802.058594,65.2441406 L802.058594,67.4765625 C802.058594,68.7890691 802.477535,69.9023392 803.31543,70.8164062 C804.153325,71.7304733 805.21679,72.1875 806.505859,72.1875 C808.017586,72.1875 809.204097,71.5986387 810.06543,70.4208984 C810.926762,69.2431582 811.357422,67.5996199 811.357422,65.4902344 C811.357422,63.7206943 810.956059,62.3349659 810.15332,61.3330078 C809.350582,60.3310497 808.263679,59.8300781 806.892578,59.8300781 C805.439446,59.8300781 804.270512,60.345698 803.385742,61.3769531 C802.500972,62.4082083 802.058594,63.6972579 802.058594,65.2441406 Z M840.449219,75.421875 C838.632803,75.421875 836.986336,75.1113312 835.509766,74.4902344 C834.033196,73.8691375 832.773443,72.999029 831.730469,71.8798828 C830.687495,70.7607366 829.878909,69.4218828 829.304688,67.8632812 C828.730466,66.3046797 828.443359,64.5820407 828.443359,62.6953125 C828.443359,60.6796774 828.733396,58.8515707 829.313477,57.2109375 C829.893558,55.5703043 830.719721,54.1699277 831.791992,53.0097656 C832.864263,51.8496036 834.167961,50.9531282 835.703125,50.3203125 C837.238289,49.6874968 838.955069,49.3710938 840.853516,49.3710938 C842.611337,49.3710938 844.21679,49.6816375 845.669922,50.3027344 C847.123054,50.9238312 848.365229,51.7939397 849.396484,52.9130859 C850.42774,54.0322322 851.227536,55.371086 851.795898,56.9296875 C852.364261,58.488289 852.648438,60.2050688 852.648438,62.0800781 C852.648438,64.5644655 852.232426,66.7412016 851.400391,68.6103516 C850.568355,70.4795015 849.396492,71.9824162 847.884766,73.1191406 L855.197266,78.3925781 L848.833984,78.3925781 L844.333984,74.8945312 C843.736325,75.0585946 843.115238,75.1874995 842.470703,75.28125 C841.826169,75.3750005 841.152347,75.421875 840.449219,75.421875 Z M840.642578,53.0449219 C839.494135,53.0449219 838.442388,53.2705056 837.487305,53.7216797 C836.532222,54.1728538 835.708988,54.8115193 835.017578,55.6376953 C834.326168,56.4638713 833.790041,57.4511661 833.40918,58.5996094 C833.028318,59.7480526 832.837891,61.0253836 832.837891,62.4316406 C832.837891,63.8261788 833.022459,65.0976505 833.391602,66.2460938 C833.760744,67.394537 834.279294,68.3759725 834.947266,69.1904297 C835.615238,70.0048869 836.417964,70.6376931 837.355469,71.0888672 C838.292973,71.5400413 839.330072,71.765625 840.466797,71.765625 C841.673834,71.765625 842.757808,71.5546896 843.71875,71.1328125 C844.679692,70.7109354 845.497067,70.1044961 846.170898,69.3134766 C846.84473,68.522457 847.363279,67.5527401 847.726562,66.4042969 C848.089846,65.2558536 848.271484,63.9492261 848.271484,62.484375 C848.271484,60.9843675 848.095705,59.6484434 847.744141,58.4765625 C847.392576,57.3046816 846.888675,56.3173868 846.232422,55.5146484 C845.576169,54.71191 844.776372,54.0996115 843.833008,53.6777344 C842.889644,53.2558573 841.826178,53.0449219 840.642578,53.0449219 Z M873.179688,83.2792969 L869.101562,83.2792969 L869.101562,71.90625 L869.03125,71.90625 C867.800775,74.2500117 865.79103,75.421875 863.001953,75.421875 C860.787098,75.421875 859.008796,74.616219 857.666992,73.0048828 C856.325189,71.3935466 855.654297,69.1992326 855.654297,66.421875 C855.654297,63.4335788 856.389641,61.0459074 857.860352,59.2587891 C859.331062,57.4716708 861.308581,56.578125 863.792969,56.578125 C866.207043,56.578125 867.95312,57.5507715 869.03125,59.4960938 L869.101562,59.4960938 L869.101562,57 L873.179688,57 L873.179688,83.2792969 Z M869.154297,66.8085938 L869.154297,64.4882812 C869.154297,63.1874935 868.735356,62.085942 867.897461,61.1835938 C867.059566,60.2812455 865.9961,59.8300781 864.707031,59.8300781 C863.195305,59.8300781 862.002934,60.3955022 861.129883,61.5263672 C860.256832,62.6572322 859.820312,64.2538959 859.820312,66.3164062 C859.820312,68.1445404 860.242183,69.5800729 861.085938,70.6230469 C861.929692,71.6660208 863.019525,72.1875 864.355469,72.1875 C865.82032,72.1875 866.986324,71.6777395 867.853516,70.6582031 C868.720707,69.6386668 869.154297,68.3554765 869.154297,66.8085938 Z M908.335938,75 L903.449219,75 L899.423828,68.25 C899.060545,67.6289031 898.706056,67.098635 898.360352,66.6591797 C898.014647,66.2197244 897.663088,65.8593764 897.305664,65.578125 C896.94824,65.2968736 896.558596,65.0917975 896.136719,64.9628906 C895.714842,64.8339837 895.240237,64.7695312 894.712891,64.7695312 L893.025391,64.7695312 L893.025391,75 L888.859375,75 L888.859375,49.7929688 L897.15625,49.7929688 C898.33985,49.7929688 899.429683,49.9335923 900.425781,50.2148438 C901.42188,50.4960952 902.289059,50.9208956 903.027344,51.4892578 C903.765629,52.05762 904.342771,52.7665973 904.758789,53.6162109 C905.174807,54.4658246 905.382812,55.4589787 905.382812,56.5957031 C905.382812,57.4863326 905.250978,58.3037072 904.987305,59.0478516 C904.723631,59.7919959 904.348635,60.4540987 903.862305,61.0341797 C903.375974,61.6142607 902.790042,62.1093729 902.104492,62.5195312 C901.418942,62.9296896 900.648442,63.2460926 899.792969,63.46875 L899.792969,63.5390625 C900.250002,63.7968763 900.648436,64.0810531 900.988281,64.3916016 C901.328127,64.70215 901.650389,65.0214827 901.955078,65.3496094 C902.259767,65.677736 902.561522,66.0498026 902.860352,66.4658203 C903.159181,66.881838 903.490233,67.3652316 903.853516,67.9160156 L908.335938,75 Z M893.025391,53.1855469 L893.025391,61.3769531 L896.505859,61.3769531 C897.150394,61.3769531 897.745114,61.2773447 898.290039,61.078125 C898.834964,60.8789053 899.306639,60.5917987 899.705078,60.2167969 C900.103518,59.841795 900.414061,59.3847683 900.636719,58.8457031 C900.859376,58.3066379 900.970703,57.7031283 900.970703,57.0351562 C900.970703,55.828119 900.589848,54.884769 899.828125,54.2050781 C899.066402,53.5253872 897.97071,53.1855469 896.541016,53.1855469 L893.025391,53.1855469 Z M921.255859,60.8847656 C920.763669,60.4980449 920.054692,60.3046875 919.128906,60.3046875 C917.921869,60.3046875 916.914067,60.8496039 916.105469,61.9394531 C915.296871,63.0293023 914.892578,64.5117094 914.892578,66.3867188 L914.892578,75 L910.814453,75 L910.814453,57 L914.892578,57 L914.892578,60.7089844 L914.962891,60.7089844 C915.36133,59.443353 915.973629,58.4560582 916.799805,57.7470703 C917.625981,57.0380824 918.548823,56.6835938 919.568359,56.6835938 C920.306644,56.6835938 920.869139,56.7949208 921.255859,57.0175781 L921.255859,60.8847656 Z M933.332031,73.9980469 L933.332031,69.6914062 C933.718752,70.0429705 934.178708,70.3593736 934.711914,70.640625 C935.24512,70.9218764 935.810544,71.1591787 936.408203,71.3525391 C937.005862,71.5458994 937.603513,71.695312 938.201172,71.8007812 C938.798831,71.9062505 939.349607,71.9589844 939.853516,71.9589844 C941.611337,71.9589844 942.920894,71.6660186 943.782227,71.0800781 C944.643559,70.4941377 945.074219,69.6445368 945.074219,68.53125 C945.074219,67.9335908 944.930665,67.4150413 944.643555,66.9755859 C944.356444,66.5361306 943.955081,66.1347674 943.439453,65.7714844 C942.923826,65.4082013 942.317386,65.059572 941.620117,64.7255859 C940.922848,64.3915999 940.175785,64.0429706 939.378906,63.6796875 C938.523433,63.222654 937.726566,62.759768 936.988281,62.2910156 C936.249996,61.8222633 935.608401,61.3037138 935.063477,60.7353516 C934.518552,60.1669893 934.090822,59.5253942 933.780273,58.8105469 C933.469725,58.0956996 933.314453,57.2578173 933.314453,56.296875 C933.314453,55.1132753 933.581052,54.0849653 934.114258,53.2119141 C934.647464,52.3388628 935.350582,51.6181669 936.223633,51.0498047 C937.096684,50.4814425 938.089838,50.0595717 939.203125,49.7841797 C940.316412,49.5087877 941.453119,49.3710938 942.613281,49.3710938 C945.250013,49.3710938 947.171869,49.6699189 948.378906,50.2675781 L948.378906,54.3984375 C946.949212,53.3671823 945.109386,52.8515625 942.859375,52.8515625 C942.238278,52.8515625 941.62012,52.9101557 941.004883,53.0273438 C940.389645,53.1445318 939.83887,53.3378893 939.352539,53.6074219 C938.866209,53.8769545 938.470705,54.2226541 938.166016,54.6445312 C937.861327,55.0664084 937.708984,55.5761689 937.708984,56.1738281 C937.708984,56.7363309 937.826171,57.2226542 938.060547,57.6328125 C938.294923,58.0429708 938.637693,58.4179671 939.088867,58.7578125 C939.540041,59.0976579 940.090817,59.4287093 940.741211,59.7509766 C941.391605,60.0732438 942.144527,60.4218731 943,60.796875 C943.878911,61.2539085 944.708004,61.7343725 945.487305,62.2382812 C946.266605,62.74219 946.952145,63.2988251 947.543945,63.9082031 C948.135745,64.5175812 948.60449,65.1943322 948.950195,65.9384766 C949.2959,66.6826209 949.46875,67.5292921 949.46875,68.4785156 C949.46875,69.7558658 949.21094,70.83398 948.695312,71.7128906 C948.179685,72.5918013 947.485356,73.3066379 946.612305,73.8574219 C945.739253,74.4082059 944.734381,74.8066394 943.597656,75.0527344 C942.460932,75.2988294 941.259772,75.421875 939.994141,75.421875 C939.572264,75.421875 939.053714,75.3896488 938.438477,75.3251953 C937.823239,75.2607419 937.193363,75.1669928 936.548828,75.0439453 C935.904294,74.9208978 935.294925,74.7714853 934.720703,74.5957031 C934.146482,74.419921 933.683596,74.2207042 933.332031,73.9980469 Z M952.509766,74.4375 L952.509766,70.6582031 C954.033211,71.8183652 955.714835,72.3984375 957.554688,72.3984375 C960.015637,72.3984375 961.246094,71.6718823 961.246094,70.21875 C961.246094,69.8085917 961.140626,69.4599624 960.929688,69.1728516 C960.718749,68.8857408 960.434572,68.6308605 960.077148,68.4082031 C959.719725,68.1855458 959.297854,67.986329 958.811523,67.8105469 C958.325193,67.6347647 957.783206,67.435548 957.185547,67.2128906 C956.447262,66.9199204 955.78223,66.6093766 955.19043,66.28125 C954.59863,65.9531234 954.106447,65.5810568 953.713867,65.1650391 C953.321287,64.7490214 953.025392,64.2773464 952.826172,63.75 C952.626952,63.2226536 952.527344,62.6074254 952.527344,61.9042969 C952.527344,61.037105 952.73242,60.2724642 953.142578,59.6103516 C953.552736,58.9482389 954.103512,58.3916038 954.794922,57.9404297 C955.486332,57.4892556 956.27148,57.1494152 957.150391,56.9208984 C958.029301,56.6923817 958.937495,56.578125 959.875,56.578125 C961.539071,56.578125 963.027337,56.8300756 964.339844,57.3339844 L964.339844,60.9023438 C963.074212,60.0351519 961.621102,59.6015625 959.980469,59.6015625 C959.464841,59.6015625 958.999026,59.6542963 958.583008,59.7597656 C958.16699,59.8652349 957.812501,60.0117178 957.519531,60.1992188 C957.226561,60.3867197 956.998048,60.6123034 956.833984,60.8759766 C956.669921,61.1396498 956.587891,61.4296859 956.587891,61.7460938 C956.587891,62.1328144 956.669921,62.4609362 956.833984,62.7304688 C956.998048,63.0000013 957.241209,63.2373037 957.563477,63.4423828 C957.885744,63.647462 958.272459,63.8349601 958.723633,64.0048828 C959.174807,64.1748055 959.693356,64.359374 960.279297,64.5585938 C961.052738,64.8750016 961.747067,65.197264 962.362305,65.5253906 C962.977542,65.8535173 963.501951,66.2255839 963.935547,66.6416016 C964.369143,67.0576193 964.703124,67.5380832 964.9375,68.0830078 C965.171876,68.6279324 965.289062,69.2753869 965.289062,70.0253906 C965.289062,70.9394577 965.078127,71.7363247 964.65625,72.4160156 C964.234373,73.0957065 963.671879,73.6582009 962.96875,74.1035156 C962.265621,74.5488304 961.454106,74.8798817 960.53418,75.0966797 C959.614253,75.3134776 958.644536,75.421875 957.625,75.421875 C955.65624,75.421875 953.951179,75.0937533 952.509766,74.4375 Z M995.681641,53.34375 L988.439453,53.34375 L988.439453,75 L984.255859,75 L984.255859,53.34375 L977.03125,53.34375 L977.03125,49.7929688 L995.681641,49.7929688 L995.681641,53.34375 Z M1008.4082,74.8066406 C1007.61132,75.2050801 1006.56251,75.4042969 1005.26172,75.4042969 C1001.76951,75.4042969 1000.02344,73.7285324 1000.02344,70.3769531 L1000.02344,60.1992188 L997.017578,60.1992188 L997.017578,57 L1000.02344,57 L1000.02344,52.8339844 L1004.10156,51.6738281 L1004.10156,57 L1008.4082,57 L1008.4082,60.1992188 L1004.10156,60.1992188 L1004.10156,69.1992188 C1004.10156,70.2656303 1004.29492,71.0273415 1004.68164,71.484375 C1005.06836,71.9414085 1005.71289,72.1699219 1006.61523,72.1699219 C1007.30664,72.1699219 1007.90429,71.9707051 1008.4082,71.5722656 L1008.4082,74.8066406 Z M1041.66602,64.8046875 C1041.66602,71.8828479 1038.31449,75.421875 1031.61133,75.421875 C1025.18942,75.421875 1021.97852,72.0176122 1021.97852,65.2089844 L1021.97852,49.7929688 L1026.16211,49.7929688 L1026.16211,64.3476562 C1026.16211,69.2929935 1028.08397,71.765625 1031.92773,71.765625 C1035.63088,71.765625 1037.48242,69.3808832 1037.48242,64.6113281 L1037.48242,49.7929688 L1041.66602,49.7929688 L1041.66602,64.8046875 Z M1062.83008,75 L1058.75195,75 L1058.75195,72.1523438 L1058.68164,72.1523438 C1057.49804,74.3320421 1055.65822,75.421875 1053.16211,75.421875 C1048.90818,75.421875 1046.78125,72.867213 1046.78125,67.7578125 L1046.78125,57 L1050.85938,57 L1050.85938,67.3359375 C1050.85938,70.5703287 1052.10741,72.1875 1054.60352,72.1875 C1055.81055,72.1875 1056.80371,71.742192 1057.58301,70.8515625 C1058.36231,69.960933 1058.75195,68.7949291 1058.75195,67.3535156 L1058.75195,57 L1062.83008,57 L1062.83008,75 Z M1098.25,49.7929688 L1089.19727,75 L1084.52148,75 L1075.62695,49.7929688 L1080.19727,49.7929688 L1086.41992,68.9179688 C1086.61914,69.5273468 1086.77148,70.2363241 1086.87695,71.0449219 L1086.94727,71.0449219 C1087.0293,70.3769498 1087.19922,69.6562539 1087.45703,68.8828125 L1093.82031,49.7929688 L1098.25,49.7929688 Z M1116.63672,57 L1109.67578,75 L1105.26367,75 L1098.63672,57 L1103.06641,57 L1107.05664,69.5859375 C1107.36133,70.5117234 1107.54883,71.320309 1107.61914,72.0117188 L1107.67188,72.0117188 C1107.77734,71.1445269 1107.94141,70.3593785 1108.16406,69.65625 L1112.34766,57 L1116.63672,57 Z M1161.02148,49.7929688 L1154.11328,75 L1149.38477,75 L1144.58594,57.3691406 C1144.38672,56.6191369 1144.26367,55.7988326 1144.2168,54.9082031 L1144.14648,54.9082031 C1144.08789,55.7402385 1143.94727,56.5488242 1143.72461,57.3339844 L1138.9082,75 L1134.07422,75 L1127.02539,49.7929688 L1131.61328,49.7929688 L1136.18359,68.25 C1136.37109,69.0234414 1136.48828,69.832027 1136.53516,70.6757812 L1136.62305,70.6757812 C1136.66992,70.078122 1136.83398,69.2695363 1137.11523,68.25 L1142.2832,49.7929688 L1146.58984,49.7929688 L1151.37109,68.390625 C1151.53516,69.0234407 1151.6582,69.7734332 1151.74023,70.640625 L1151.81055,70.640625 C1151.8457,70.0546846 1151.98047,69.2812548 1152.21484,68.3203125 L1156.69727,49.7929688 L1161.02148,49.7929688 Z M1188.26758,57 L1182.95898,75 L1178.6875,75 L1175.41797,62.8007812 C1175.28906,62.3320289 1175.20703,61.8046904 1175.17188,61.21875 L1175.10156,61.21875 C1175.07812,61.6171895 1174.97266,62.1328093 1174.78516,62.765625 L1171.23438,75 L1167.05078,75 L1161.75977,57 L1165.97852,57 L1169.24805,69.9726562 C1169.35352,70.3593769 1169.42383,70.8749968 1169.45898,71.5195312 L1169.58203,71.5195312 C1169.61719,71.0273413 1169.71094,70.5000028 1169.86328,69.9375 L1173.50195,57 L1177.33398,57 L1180.56836,70.0253906 C1180.67383,70.4355489 1180.75,70.9511688 1180.79688,71.5722656 L1180.91992,71.5722656 C1180.94336,71.1386697 1181.03125,70.6230499 1181.18359,70.0253906 L1184.38281,57 L1188.26758,57 Z M1220.48828,75 L1215.47852,75 L1210.31055,65.7539062 C1210.1582,65.4726548 1209.98828,65.0742213 1209.80078,64.5585938 L1209.73047,64.5585938 C1209.625,64.8164075 1209.44922,65.2148411 1209.20312,65.7539062 L1203.87695,75 L1198.83203,75 L1207.09375,62.3261719 L1199.5,49.7929688 L1204.61523,49.7929688 L1209.16797,58.3007812 C1209.46094,58.8632841 1209.72461,59.4257784 1209.95898,59.9882812 L1210.01172,59.9882812 C1210.35156,59.2499963 1210.64453,58.6640647 1210.89062,58.2304688 L1215.61914,49.7929688 L1220.33008,49.7929688 L1212.56055,62.2910156 L1220.48828,75 Z M1238.52344,57 L1232.5293,66.1054688 L1238.45312,75 L1233.72461,75 L1230.56055,69.4277344 C1230.36133,69.0878889 1230.12695,68.6542995 1229.85742,68.1269531 L1229.78711,68.1269531 C1229.74023,68.2324224 1229.49414,68.6660118 1229.04883,69.4277344 L1225.83203,75 L1221.12109,75 L1227.23828,66.1757812 L1221.4375,57 L1226.18359,57 L1229.29492,62.8535156 C1229.5293,63.2871115 1229.75781,63.7324196 1229.98047,64.1894531 L1230.0332,64.1894531 L1234.05859,57 L1238.52344,57 Z M1269.42578,49.7929688 L1261.16406,65.8417969 L1261.16406,75 L1256.98047,75 L1256.98047,65.9296875 L1248.92969,49.7929688 L1253.69336,49.7929688 L1258.65039,60.6035156 C1258.70898,60.7324225 1258.88476,61.2187458 1259.17773,62.0625 L1259.23047,62.0625 C1259.33594,61.6874981 1259.5293,61.2011749 1259.81055,60.6035156 L1264.99609,49.7929688 L1269.42578,49.7929688 Z M1287.77734,57 L1279.65625,77.8828125 C1277.96874,81.6093936 1275.60158,83.4726562 1272.55469,83.4726562 C1271.69921,83.4726562 1270.98438,83.3964851 1270.41016,83.2441406 L1270.41016,79.8515625 C1271.05469,80.0625011 1271.64062,80.1679688 1272.16797,80.1679688 C1273.69141,80.1679688 1274.82812,79.4179763 1275.57812,77.9179688 L1276.79102,74.9648438 L1269.63672,57 L1274.1543,57 L1278.44336,70.078125 C1278.49023,70.2421883 1278.5957,70.6757777 1278.75977,71.3789062 L1278.84766,71.3789062 C1278.90625,71.1093737 1279.01172,70.6875029 1279.16406,70.1132812 L1283.66406,57 L1287.77734,57 Z M1318.0293,51.6210938 L1304.21289,71.4667969 L1317.85352,71.4667969 L1317.85352,75 L1298.35938,75 L1298.35938,73.0839844 L1312.22852,53.34375 L1299.43164,53.34375 L1299.43164,49.7929688 L1318.0293,49.7929688 L1318.0293,51.6210938 Z M1334.79883,58.7050781 L1325.07812,71.8183594 L1334.76367,71.8183594 L1334.76367,75 L1319.36523,75 L1319.36523,73.4707031 L1329.29688,60.1816406 L1320.31445,60.1816406 L1320.31445,57 L1334.79883,57 L1334.79883,58.7050781 Z"/>
    <rect width="128" height="128" x="512" fill="url(#typeface-segoe-a)"/>
  </g>
</svg>
