<svg xmlns="http://www.w3.org/2000/svg" width="316" height="302" style="background:#fff" viewBox="0 0 316 302">
  <g fill="none" fill-rule="evenodd">
    <rect width="234" height="364" fill="#0060DF" transform="translate(81.983)"/>
    <path fill="#FFF" d="M109.764648,51 L109.764648,28.9248047 L117.901855,28.9248047 L117.901855,27.7485352 L100.338379,27.7485352 L100.338379,28.9248047 L108.491699,28.9248047 L108.491699,51 L109.764648,51 Z M120.254395,51 L121.495117,51 L121.495117,41.0581055 C121.495117,37.5615234 123.76709,35.1445312 127.054199,35.1445312 C130.164062,35.1445312 132.210449,37.1264648 132.210449,40.3491211 L132.210449,51 L133.451172,51 L133.451172,40.2041016 C133.451172,36.449707 131.001953,34.0166016 127.328125,34.0166016 C124.508301,34.0166016 122.316895,35.5634766 121.543457,37.9160156 L121.495117,37.9160156 L121.495117,27.7485352 L120.254395,27.7485352 L120.254395,51 Z M137.22168,51 L138.462402,51 L138.462402,34.2421875 L137.22168,34.2421875 L137.22168,51 Z M137.850098,30.1171875 C138.381836,30.1171875 138.833008,29.6821289 138.833008,29.1342773 C138.833008,28.5864258 138.381836,28.1674805 137.850098,28.1674805 C137.302246,28.1674805 136.851074,28.5864258 136.851074,29.1342773 C136.851074,29.6821289 137.302246,30.1171875 137.850098,30.1171875 Z M142.32959,51 L143.586426,51 L143.586426,41.0258789 C143.586426,37.5615234 145.777832,35.1445312 149.048828,35.1445312 C152.158691,35.1445312 154.205078,37.0942383 154.205078,40.3330078 L154.205078,51 L155.461914,51 L155.461914,40.1879883 C155.461914,36.4013672 153.028809,34.0166016 149.338867,34.0166016 C146.486816,34.0166016 144.327637,35.5634766 143.538086,37.9160156 L143.505859,37.9160156 L143.505859,34.2421875 L142.32959,34.2421875 L142.32959,51 Z M169.625488,39.4951172 L172.251953,39.4951172 C176.570312,39.4951172 179.164551,41.4448242 179.164551,44.699707 C179.164551,47.8740234 176.376953,50.1943359 172.622559,50.1943359 C168.964844,50.1943359 166.177246,48.019043 166.080566,45.1508789 L164.839844,45.1508789 C164.92041,48.6796875 168.175293,51.3383789 172.622559,51.3383789 C177.085938,51.3383789 180.453613,48.534668 180.453613,44.6674805 C180.453613,41.3803711 178.117188,39.140625 174.507812,38.9150391 L174.507812,38.8505859 C177.553223,38.2866211 179.438477,36.1757812 179.438477,33.2915039 C179.438477,29.9077148 176.441406,27.4101562 172.445312,27.4101562 C168.497559,27.4101562 165.564941,29.8916016 165.371582,33.355957 L166.612305,33.355957 C166.805664,30.5844727 169.23877,28.5541992 172.396973,28.5541992 C175.780762,28.5541992 178.165527,30.6166992 178.165527,33.4042969 C178.165527,36.3208008 175.732422,38.3671875 172.219727,38.3671875 L169.625488,38.3671875 L169.625488,39.4951172 Z M188.091309,39.4951172 L190.717773,39.4951172 C195.036133,39.4951172 197.630371,41.4448242 197.630371,44.699707 C197.630371,47.8740234 194.842773,50.1943359 191.088379,50.1943359 C187.430664,50.1943359 184.643066,48.019043 184.546387,45.1508789 L183.305664,45.1508789 C183.38623,48.6796875 186.641113,51.3383789 191.088379,51.3383789 C195.551758,51.3383789 198.919434,48.534668 198.919434,44.6674805 C198.919434,41.3803711 196.583008,39.140625 192.973633,38.9150391 L192.973633,38.8505859 C196.019043,38.2866211 197.904297,36.1757812 197.904297,33.2915039 C197.904297,29.9077148 194.907227,27.4101562 190.911133,27.4101562 C186.963379,27.4101562 184.030762,29.8916016 183.837402,33.355957 L185.078125,33.355957 C185.271484,30.5844727 187.70459,28.5541992 190.862793,28.5541992 C194.246582,28.5541992 196.631348,30.6166992 196.631348,33.4042969 C196.631348,36.3208008 194.198242,38.3671875 190.685547,38.3671875 L188.091309,38.3671875 L188.091309,39.4951172 Z M209.699219,34.0166016 C213.904785,34.0166016 216.805176,37.5131836 216.805176,42.6210938 C216.805176,47.7451172 213.920898,51.2255859 209.715332,51.2255859 C206.621582,51.2255859 204.269043,49.2114258 203.511719,46.6010742 L203.479492,46.6010742 L203.479492,56.4946289 L202.222656,56.4946289 L202.222656,34.2421875 L203.398926,34.2421875 L203.398926,38.7055664 L203.447266,38.7055664 C204.20459,36.0629883 206.621582,34.0166016 209.699219,34.0166016 Z M209.554199,50.0976562 C213.099121,50.0976562 215.532227,47.0683594 215.532227,42.637207 C215.532227,38.1899414 213.099121,35.1445312 209.554199,35.1445312 C205.960938,35.1445312 203.463379,38.222168 203.463379,42.6210938 C203.463379,47.0361328 205.960938,50.0976562 209.554199,50.0976562 Z M224.73291,43.4750977 L230.08252,51 L231.532715,51 L225.441895,42.4599609 L231.564941,34.2421875 L230.098633,34.2421875 L224.765137,41.5415039 L224.716797,41.5415039 L219.383301,34.2421875 L217.900879,34.2421875 L224.007812,42.4921875 L217.868652,51 L219.318848,51 L224.68457,43.4750977 L224.73291,43.4750977 Z"/>
    <path fill="#0C0C0D" d="M19.263 42.017C21.629 42.017 23.865 42.745 23.865 46.463 23.865 50.103 21.642 51 19.497 51L17.053 51 17.053 42.017 19.263 42.017zM18.769 43.304L18.769 49.713 19.614 49.713C20.953 49.713 22.058 49.115 22.058 46.463 22.058 43.759 20.888 43.304 19.562 43.304L18.769 43.304zM26.244 40.639C25.633 40.639 25.204 41.081 25.204 41.653 25.204 42.212 25.633 42.654 26.244 42.654 26.868 42.654 27.297 42.212 27.297 41.653 27.297 41.081 26.868 40.639 26.244 40.639zM27.089 51L27.089 44.123 25.425 44.123 25.425 51 27.089 51zM31.262 43.928C29.663 43.928 28.61 44.786 28.61 45.93 28.61 46.944 29.234 47.62 30.651 48.01 31.938 48.374 32.211 48.556 32.211 49.154 32.211 49.635 31.73 49.96 30.976 49.96 30.287 49.96 29.65 49.687 29.13 49.271L28.285 50.22C28.922 50.792 29.845 51.195 31.028 51.195 32.601 51.195 33.927 50.441 33.927 49.011 33.927 47.789 33.134 47.217 31.73 46.84 30.56 46.515 30.287 46.307 30.287 45.852 30.287 45.436 30.664 45.163 31.366 45.163 31.938 45.163 32.484 45.358 33.056 45.748L33.706 44.747C33.056 44.24 32.25 43.928 31.262 43.928zM38.815 43.928C40.635 43.928 41.389 45.345 41.389 47.542 41.389 49.648 40.414 51.195 38.672 51.195 37.97 51.195 37.372 50.948 36.943 50.441L36.943 53.652 35.279 53.834 35.279 44.123 36.735 44.123 36.826 44.968C37.372 44.253 38.113 43.928 38.815 43.928zM38.204 49.921C39.114 49.921 39.647 49.219 39.647 47.555 39.647 45.813 39.179 45.176 38.321 45.176 37.749 45.176 37.268 45.579 36.943 46.112L36.943 49.206C37.268 49.687 37.684 49.921 38.204 49.921zM44.626 49.323L44.626 41.185 42.962 41.367 42.962 49.44C42.962 50.584 43.547 51.195 44.574 51.195 45.003 51.195 45.419 51.104 45.757 50.961L45.406 49.791C45.289 49.83 45.146 49.856 45.016 49.856 44.743 49.856 44.626 49.7 44.626 49.323zM51.945 49.18C51.945 49.739 52.127 49.934 52.465 50.064L52.114 51.169C51.36 51.104 50.866 50.831 50.593 50.168 50.112 50.896 49.358 51.195 48.539 51.195 47.161 51.195 46.316 50.324 46.316 49.076 46.316 47.581 47.447 46.775 49.449 46.775L50.307 46.775 50.307 46.385C50.307 45.488 49.904 45.189 49.02 45.189 48.552 45.189 47.889 45.319 47.2 45.553L46.81 44.422C47.655 44.097 48.526 43.928 49.306 43.928 51.139 43.928 51.945 44.773 51.945 46.294L51.945 49.18zM48.981 49.986C49.566 49.986 49.995 49.687 50.307 49.141L50.307 47.75 49.618 47.75C48.539 47.75 48.006 48.14 48.006 48.946 48.006 49.609 48.344 49.986 48.981 49.986zM57.158 51.026L59.394 44.123 57.678 44.123 56.118 49.895 54.623 44.123 52.855 44.123 55.039 51 55.611 51C55.221 51.975 54.779 52.417 53.414 52.625L53.583 53.834C55.624 53.678 56.638 52.638 57.158 51.026zM22.643 91.382L22.825 90.017 16.156 90.017 16.156 91.382 18.574 91.382 18.574 99 20.303 99 20.303 91.382 22.643 91.382zM24.97 88.639C24.359 88.639 23.93 89.081 23.93 89.653 23.93 90.212 24.359 90.654 24.97 90.654 25.594 90.654 26.023 90.212 26.023 89.653 26.023 89.081 25.594 88.639 24.97 88.639zM25.815 99L25.815 92.123 24.151 92.123 24.151 99 25.815 99zM31.756 98.675L31.171 97.596C30.872 97.778 30.612 97.856 30.352 97.856 29.845 97.856 29.624 97.583 29.624 96.907L29.624 93.319 31.054 93.319 31.223 92.123 29.624 92.123 29.624 90.407 27.96 90.602 27.96 92.123 26.881 92.123 26.881 93.319 27.96 93.319 27.96 96.946C27.96 98.415 28.675 99.182 30.027 99.195 30.638 99.195 31.262 99.026 31.756 98.675zM34.291 97.323L34.291 89.185 32.627 89.367 32.627 97.44C32.627 98.584 33.212 99.195 34.239 99.195 34.668 99.195 35.084 99.104 35.422 98.961L35.071 97.791C34.954 97.83 34.811 97.856 34.681 97.856 34.408 97.856 34.291 97.7 34.291 97.323zM42.039 95.399C42.039 95.62 42.013 95.893 42 96.075L37.684 96.075C37.801 97.479 38.464 97.934 39.374 97.934 39.985 97.934 40.492 97.739 41.09 97.323L41.779 98.272C41.103 98.818 40.271 99.195 39.231 99.195 37.099 99.195 35.955 97.778 35.955 95.607 35.955 93.514 37.06 91.928 39.01 91.928 40.934 91.928 42.039 93.228 42.039 95.399zM40.388 94.996L40.388 94.918C40.388 93.787 39.985 93.111 39.049 93.111 38.269 93.111 37.775 93.631 37.684 94.996L40.388 94.996zM21.46 187.242C22.487 187.437 23.514 187.918 23.514 189.413 23.514 191.389 21.941 192 19.757 192L17.053 192 17.053 183.017 19.406 183.017C21.72 183.017 23.124 183.667 23.124 185.305 23.124 186.423 22.318 187.06 21.46 187.242zM18.769 184.278L18.769 186.709 19.822 186.709C20.758 186.709 21.369 186.293 21.369 185.448 21.369 184.538 20.745 184.278 19.575 184.278L18.769 184.278zM19.77 190.713C20.901 190.713 21.72 190.479 21.72 189.348 21.72 188.269 20.953 187.905 19.952 187.905L18.769 187.905 18.769 190.713 19.77 190.713zM27.778 184.928C29.806 184.928 31.002 186.306 31.002 188.555 31.002 190.726 29.793 192.195 27.765 192.195 25.737 192.195 24.528 190.817 24.528 188.555 24.528 186.397 25.737 184.928 27.778 184.928zM27.778 186.189C26.803 186.189 26.283 186.93 26.283 188.555 26.283 190.206 26.79 190.934 27.765 190.934 28.74 190.934 29.247 190.193 29.247 188.555 29.247 186.917 28.74 186.189 27.778 186.189zM38.347 182.367L38.347 192 36.878 192 36.761 191.129C36.345 191.753 35.682 192.195 34.798 192.195 33.082 192.195 32.185 190.752 32.185 188.568 32.185 186.449 33.238 184.928 34.98 184.928 35.682 184.928 36.254 185.24 36.683 185.669L36.683 182.185 38.347 182.367zM35.266 190.934C35.877 190.934 36.293 190.635 36.683 190.05L36.683 186.904C36.319 186.462 35.942 186.176 35.383 186.176 34.512 186.176 33.94 186.904 33.94 188.555 33.94 190.323 34.447 190.934 35.266 190.934zM43.677 192.026L45.913 185.123 44.197 185.123 42.637 190.895 41.142 185.123 39.374 185.123 41.558 192 42.13 192C41.74 192.975 41.298 193.417 39.933 193.625L40.102 194.834C42.143 194.678 43.157 193.638 43.677 192.026zM20.459 239.822C18.275 239.822 16.559 241.473 16.559 244.489 16.559 247.544 18.184 249.195 20.511 249.195 21.733 249.195 22.669 248.662 23.215 248.103L22.409 247.063C21.889 247.453 21.356 247.817 20.589 247.817 19.302 247.817 18.366 246.855 18.366 244.489 18.366 242.058 19.328 241.148 20.563 241.148 21.187 241.148 21.72 241.369 22.227 241.798L23.111 240.771C22.383 240.16 21.642 239.822 20.459 239.822zM29.468 247.18C29.468 247.739 29.65 247.934 29.988 248.064L29.637 249.169C28.883 249.104 28.389 248.831 28.116 248.168 27.635 248.896 26.881 249.195 26.062 249.195 24.684 249.195 23.839 248.324 23.839 247.076 23.839 245.581 24.97 244.775 26.972 244.775L27.83 244.775 27.83 244.385C27.83 243.488 27.427 243.189 26.543 243.189 26.075 243.189 25.412 243.319 24.723 243.553L24.333 242.422C25.178 242.097 26.049 241.928 26.829 241.928 28.662 241.928 29.468 242.773 29.468 244.294L29.468 247.18zM26.504 247.986C27.089 247.986 27.518 247.687 27.83 247.141L27.83 245.75 27.141 245.75C26.062 245.75 25.529 246.14 25.529 246.946 25.529 247.609 25.867 247.986 26.504 247.986zM35.019 241.928C36.839 241.928 37.593 243.345 37.593 245.542 37.593 247.648 36.618 249.195 34.876 249.195 34.174 249.195 33.576 248.948 33.147 248.441L33.147 251.652 31.483 251.834 31.483 242.123 32.939 242.123 33.03 242.968C33.576 242.253 34.317 241.928 35.019 241.928zM34.408 247.921C35.318 247.921 35.851 247.219 35.851 245.555 35.851 243.813 35.383 243.176 34.525 243.176 33.953 243.176 33.472 243.579 33.147 244.112L33.147 247.206C33.472 247.687 33.888 247.921 34.408 247.921zM43.17 248.675L42.585 247.596C42.286 247.778 42.026 247.856 41.766 247.856 41.259 247.856 41.038 247.583 41.038 246.907L41.038 243.319 42.468 243.319 42.637 242.123 41.038 242.123 41.038 240.407 39.374 240.602 39.374 242.123 38.295 242.123 38.295 243.319 39.374 243.319 39.374 246.946C39.374 248.415 40.089 249.182 41.441 249.195 42.052 249.195 42.676 249.026 43.17 248.675zM44.925 238.639C44.314 238.639 43.885 239.081 43.885 239.653 43.885 240.212 44.314 240.654 44.925 240.654 45.549 240.654 45.978 240.212 45.978 239.653 45.978 239.081 45.549 238.639 44.925 238.639zM45.77 249L45.77 242.123 44.106 242.123 44.106 249 45.77 249zM50.58 241.928C52.608 241.928 53.804 243.306 53.804 245.555 53.804 247.726 52.595 249.195 50.567 249.195 48.539 249.195 47.33 247.817 47.33 245.555 47.33 243.397 48.539 241.928 50.58 241.928zM50.58 243.189C49.605 243.189 49.085 243.93 49.085 245.555 49.085 247.206 49.592 247.934 50.567 247.934 51.542 247.934 52.049 247.193 52.049 245.555 52.049 243.917 51.542 243.189 50.58 243.189zM59.03 241.928C58.159 241.928 57.47 242.331 56.937 243.02L56.807 242.123 55.364 242.123 55.364 249 57.028 249 57.028 244.216C57.431 243.579 57.873 243.176 58.471 243.176 58.991 243.176 59.316 243.423 59.316 244.281L59.316 249 60.98 249 60.98 244.021C60.98 242.708 60.265 241.928 59.03 241.928z"/>
    <path fill="#FFF" d="M111.214844 97.6679688L103.458984 97.6679688 103.458984 83.4990234 101.987305 83.4990234 101.987305 99 111.214844 99 111.214844 97.6679688zM114.115234 99L115.522461 99 115.522461 87.4306641 114.115234 87.4306641 114.115234 99zM114.813477 84.8525391C115.393555 84.8525391 115.866211 84.3798828 115.866211 83.7998047 115.866211 83.2304688 115.393555 82.7578125 114.813477 82.7578125 114.244141 82.7578125 113.771484 83.2304688 113.771484 83.7998047 113.771484 84.3798828 114.244141 84.8525391 114.813477 84.8525391zM123.783203 97.625C126.103516 97.625 127.542969 95.8310547 127.542969 93.0917969 127.542969 90.3417969 126.071289 88.5048828 123.783203 88.5048828 121.473633 88.5048828 120.077148 90.3203125 120.077148 93.0703125 120.077148 95.8095703 121.473633 97.625 123.783203 97.625zM123.901367 103.339844C121.248047 103.339844 119.486328 102.158203 119.185547 100.353516L120.678711 100.353516C120.936523 101.416992 122.139648 102.104492 123.901367 102.104492 126.135742 102.104492 127.521484 100.933594 127.521484 99.0644531L127.521484 96.4648438 127.381836 96.4648438C126.694336 97.9902344 125.276367 98.8818359 123.503906 98.8818359 120.52832 98.8818359 118.626953 96.5400391 118.626953 93.0703125 118.626953 89.6005859 120.539062 87.2373047 123.503906 87.2373047 125.276367 87.2373047 126.8125 88.2148438 127.446289 89.71875L127.575195 89.71875 127.575195 87.4306641 128.928711 87.4306641 128.928711 99.171875C128.928711 101.685547 126.941406 103.339844 123.901367 103.339844zM132.65625 99L134.063477 99 134.063477 92.125C134.063477 89.9980469 135.427734 88.5048828 137.619141 88.5048828 139.552734 88.5048828 140.605469 89.6542969 140.605469 91.8349609L140.605469 99 142.012695 99 142.012695 91.4804688C142.012695 88.8056641 140.46582 87.2373047 137.995117 87.2373047 136.147461 87.2373047 134.81543 88.0859375 134.192383 89.5146484L134.063477 89.5146484 134.063477 82.8222656 132.65625 82.8222656 132.65625 99zM146.277344 84.4228516L146.277344 87.4306641 144.386719 87.4306641 144.386719 88.6230469 146.277344 88.6230469 146.277344 96.1210938C146.277344 98.2265625 147.158203 99.0644531 149.371094 99.0644531 149.618164 99.0644531 150.112305 99.0322266 150.359375 98.9892578L150.359375 97.7861328C150.123047 97.8076172 149.74707 97.8183594 149.521484 97.8183594 148.22168 97.8183594 147.68457 97.2167969 147.68457 95.7988281L147.68457 88.6230469 150.359375 88.6230469 150.359375 87.4306641 147.68457 87.4306641 147.68457 84.4228516 146.277344 84.4228516zM159.092773 87.7744141L159.092773 87.7851562 160.521484 87.7851562 160.521484 87.7744141C160.542969 85.8193359 161.928711 84.4658203 163.926758 84.4658203 165.828125 84.4658203 167.299805 85.8085938 167.299805 87.5380859 167.299805 88.8701172 166.751953 89.7939453 164.592773 92.1142578L159.178711 97.96875 159.178711 99 169.158203 99 169.158203 97.6679688 161.294922 97.6679688 161.294922 97.5390625 165.484375 93.0703125C168.030273 90.3525391 168.771484 89.0957031 168.771484 87.484375 168.771484 85.0458984 166.6875 83.1767578 163.958984 83.1767578 161.155273 83.1767578 159.114258 85.0996094 159.092773 87.7744141zM172.219727 87.7744141L172.219727 87.7851562 173.648438 87.7851562 173.648438 87.7744141C173.669922 85.8193359 175.055664 84.4658203 177.053711 84.4658203 178.955078 84.4658203 180.426758 85.8085938 180.426758 87.5380859 180.426758 88.8701172 179.878906 89.7939453 177.719727 92.1142578L172.305664 97.96875 172.305664 99 182.285156 99 182.285156 97.6679688 174.421875 97.6679688 174.421875 97.5390625 178.611328 93.0703125C181.157227 90.3525391 181.898438 89.0957031 181.898438 87.484375 181.898438 85.0458984 179.814453 83.1767578 177.085938 83.1767578 174.282227 83.1767578 172.241211 85.0996094 172.219727 87.7744141zM190.964844 87.2373047C193.897461 87.2373047 195.831055 89.6113281 195.831055 93.2099609 195.831055 96.8085938 193.886719 99.1933594 190.964844 99.1933594 189.170898 99.1933594 187.709961 98.2910156 187.06543 96.7978516L186.936523 96.7978516 186.936523 102.834961 185.529297 102.834961 185.529297 87.4306641 186.87207 87.4306641 186.87207 89.7939453 187.000977 89.7939453C187.709961 88.2148438 189.203125 87.2373047 190.964844 87.2373047zM190.65332 97.9150391C192.941406 97.9150391 194.380859 96.0996094 194.380859 93.2207031 194.380859 90.3310547 192.941406 88.5048828 190.664062 88.5048828 188.397461 88.5048828 186.893555 90.3740234 186.893555 93.2099609 186.893555 96.0458984 188.397461 97.9150391 190.65332 97.9150391zM202.297852 94.2734375L205.445312 99 207.131836 99 203.02832 93.1240234 207.088867 87.4306641 205.466797 87.4306641 202.34082 92.0498047 202.211914 92.0498047 199.064453 87.4306641 197.367188 87.4306641 201.481445 93.1777344 197.399414 99 199.010742 99 202.168945 94.2734375 202.297852 94.2734375zM100.929688 127.746094C101.037598 129.920898 102.855469 131.298828 105.603027 131.298828 108.508301 131.298828 110.30957 129.846191 110.30957 127.513672 110.30957 125.6875 109.288574 124.674805 106.856445 124.126953L105.478516 123.811523C103.992676 123.471191 103.386719 122.998047 103.386719 122.192871 103.386719 121.171875 104.299805 120.507812 105.677734 120.507812 106.989258 120.507812 107.918945 121.171875 108.068359 122.226074L110.118652 122.226074C110.019043 120.16748 108.201172 118.723145 105.686035 118.723145 103.004883 118.723145 101.228516 120.16748 101.228516 122.342285 101.228516 124.126953 102.249512 125.206055 104.424316 125.695801L105.976562 126.052734C107.512207 126.409668 108.167969 126.916016 108.167969 127.779297 108.167969 128.783691 107.146973 129.505859 105.73584 129.505859 104.216797 129.505859 103.154297 128.816895 103.021484 127.746094L100.929688 127.746094zM116.311035 123.371582C115.08252 123.371582 114.219238 124.251465 114.12793 125.57959L118.402832 125.57959C118.361328 124.234863 117.547852 123.371582 116.311035 123.371582zM118.419434 128.501465L120.370117 128.501465C119.97998 130.15332 118.477539 131.182617 116.335938 131.182617 113.663086 131.182617 112.052734 129.414551 112.052734 126.492676 112.052734 123.570801 113.687988 121.736328 116.319336 121.736328 118.90918 121.736328 120.461426 123.45459 120.461426 126.318359L120.461426 126.982422 114.119629 126.982422 114.119629 127.090332C114.169434 128.601074 115.041016 129.547363 116.394043 129.547363 117.415039 129.547363 118.120605 129.173828 118.419434 128.501465zM122.52832 131L124.586914 131 124.586914 125.47998C124.586914 124.367676 125.342285 123.529297 126.363281 123.529297 127.375977 123.529297 128.006836 124.135254 128.006836 125.131348L128.006836 131 130.007324 131 130.007324 125.347168C130.007324 124.30957 130.712891 123.529297 131.783691 123.529297 132.887695 123.529297 133.443848 124.110352 133.443848 125.280762L133.443848 131 135.494141 131 135.494141 124.757812C135.494141 122.873535 134.398438 121.736328 132.580566 121.736328 131.318848 121.736328 130.272949 122.39209 129.824707 123.388184L129.683594 123.388184C129.301758 122.367188 128.430176 121.736328 127.176758 121.736328 125.973145 121.736328 125.043457 122.350586 124.65332 123.388184L124.512207 123.388184 124.512207 121.918945 122.52832 121.918945 122.52832 131zM137.959473 131L140.009766 131 140.009766 121.918945 137.959473 121.918945 137.959473 131zM138.980469 120.441406C139.73584 120.441406 140.250488 119.959961 140.250488 119.304199 140.250488 118.648438 139.73584 118.166992 138.980469 118.166992 138.233398 118.166992 137.710449 118.648438 137.710449 119.304199 137.710449 119.959961 138.233398 120.441406 138.980469 120.441406zM147.60498 131.149414C146.334961 131.149414 145.280762 130.560059 144.766113 129.563965L144.625 129.563965 144.625 131 142.641113 131 142.641113 118.407715 144.699707 118.407715 144.699707 123.363281 144.84082 123.363281C145.313965 122.375488 146.359863 121.769531 147.60498 121.769531 149.904297 121.769531 151.332031 123.554199 151.332031 126.459473 151.332031 129.348145 149.895996 131.149414 147.60498 131.149414zM146.95752 123.520996C145.554688 123.520996 144.666504 124.649902 144.666504 126.459473 144.666504 128.269043 145.546387 129.397949 146.95752 129.397949 148.368652 129.397949 149.215332 128.285645 149.215332 126.459473 149.215332 124.633301 148.360352 123.520996 146.95752 123.520996zM157.316895 131.182617C154.594238 131.182617 152.950684 129.40625 152.950684 126.459473 152.950684 123.529297 154.619141 121.736328 157.316895 121.736328 160.022949 121.736328 161.683105 123.520996 161.683105 126.459473 161.683105 129.40625 160.03125 131.182617 157.316895 131.182617zM157.316895 129.456055C158.75293 129.456055 159.566406 128.360352 159.566406 126.459473 159.566406 124.566895 158.744629 123.462891 157.316895 123.462891 155.880859 123.462891 155.059082 124.566895 155.059082 126.459473 155.059082 128.360352 155.880859 129.456055 157.316895 129.456055zM163.841309 131L165.899902 131 165.899902 118.407715 163.841309 118.407715 163.841309 131zM171.785156 131.149414C169.48584 131.149414 168.049805 129.339844 168.049805 126.451172 168.049805 123.579102 169.494141 121.769531 171.785156 121.769531 173.030273 121.769531 174.05957 122.367188 174.541016 123.363281L174.682129 123.363281 174.682129 118.407715 176.740723 118.407715 176.740723 131 174.748535 131 174.748535 129.563965 174.607422 129.563965C174.092773 130.560059 173.046875 131.149414 171.785156 131.149414zM172.424316 123.520996C171.021484 123.520996 170.158203 124.633301 170.158203 126.459473 170.158203 128.293945 171.013184 129.397949 172.424316 129.397949 173.84375 129.397949 174.707031 128.285645 174.707031 126.459473 174.707031 124.649902 173.835449 123.520996 172.424316 123.520996zM186.751465 131L188.893066 131 188.893066 119.021973 186.759766 119.021973 183.630371 121.213379 183.630371 123.271973 186.610352 121.180176 186.751465 121.180176 186.751465 131zM192.819336 131L195.060547 131 200.182129 120.848145 200.182129 119.021973 191.848145 119.021973 191.848145 120.823242 198.023926 120.823242 198.023926 120.956055 192.819336 131zM207.320801 121.769531C209.620117 121.769531 211.064453 123.545898 211.064453 126.459473 211.064453 129.356445 209.636719 131.149414 207.345703 131.149414 206.04248 131.149414 205.038086 130.584961 204.573242 129.62207L204.432129 129.62207 204.432129 134.021484 202.373535 134.021484 202.373535 121.918945 204.357422 121.918945 204.357422 123.421387 204.498535 123.421387C205.021484 122.39209 206.075684 121.769531 207.320801 121.769531zM206.67334 129.397949C208.101074 129.397949 208.947754 128.293945 208.947754 126.459473 208.947754 124.625 208.092773 123.520996 206.681641 123.520996 205.278809 123.520996 204.398926 124.649902 204.390625 126.459473 204.398926 128.277344 205.270508 129.397949 206.67334 129.397949zM216.202637 127.870605L218.062012 131 220.38623 131 217.422852 126.409668 220.353027 121.918945 218.086914 121.918945 216.293945 125.040039 216.152832 125.040039 214.343262 121.918945 211.960938 121.918945 214.924316 126.492676 211.98584 131 214.202148 131 216.061523 127.870605 216.202637 127.870605z"/>
    <path fill="#FFF" d="M3.5418731,14 L3.5418731,5.80419922 L3.6590606,5.80419922 L9.39392388,14 L10.6756622,14 L10.6756622,3.43115234 L9.37195122,3.43115234 L9.37195122,11.65625 L9.25476372,11.65625 L3.51990044,3.43115234 L2.23816216,3.43115234 L2.23816216,14 L3.5418731,14 Z M16.4544708,14.1391602 C14.2059356,14.1391602 12.814334,12.5864258 12.814334,10.0522461 C12.814334,7.51074219 14.2059356,5.96533203 16.4544708,5.96533203 C18.7030059,5.96533203 20.0946075,7.51074219 20.0946075,10.0522461 C20.0946075,12.5864258 18.7030059,14.1391602 16.4544708,14.1391602 Z M16.4544708,13.0039062 C17.9486114,13.0039062 18.7908965,11.9199219 18.7908965,10.0522461 C18.7908965,8.17724609 17.9486114,7.10058594 16.4544708,7.10058594 C14.9603301,7.10058594 14.118045,8.17724609 14.118045,10.0522461 C14.118045,11.9199219 14.9603301,13.0039062 16.4544708,13.0039062 Z M22.0721465,14 L23.3319122,14 L23.3319122,9.10742188 C23.3319122,7.99414062 24.2034942,7.18847656 25.4046661,7.18847656 C25.6536895,7.18847656 26.1077911,7.23242188 26.2103301,7.26171875 L26.2103301,6.00195312 C26.0491973,5.97998047 25.7855254,5.96533203 25.5804473,5.96533203 C24.533084,5.96533203 23.6248809,6.50732422 23.3905059,7.27636719 L23.2733184,7.27636719 L23.2733184,6.10449219 L22.0721465,6.10449219 L22.0721465,14 Z M27.9315215,14 L29.1912872,14 L29.1912872,9.10742188 C29.1912872,7.99414062 29.989627,7.10058594 31.0223418,7.10058594 C32.0184356,7.10058594 32.6702911,7.70117188 32.6702911,8.63867188 L32.6702911,14 L33.9300567,14 L33.9300567,8.92431641 C33.9300567,7.92089844 34.6624786,7.10058594 35.7611114,7.10058594 C36.8743926,7.10058594 37.423709,7.671875 37.423709,8.83642578 L37.423709,14 L38.6834747,14 L38.6834747,8.54345703 C38.6834747,6.88818359 37.7825958,5.96533203 36.1712676,5.96533203 C35.079959,5.96533203 34.1790801,6.51464844 33.7542754,7.34960938 L33.6370879,7.34960938 C33.270877,6.52929688 32.5238067,5.96533203 31.4544708,5.96533203 C30.3997833,5.96533203 29.6087676,6.47070312 29.2498809,7.34960938 L29.1326934,7.34960938 L29.1326934,6.10449219 L27.9315215,6.10449219 L27.9315215,14 Z M43.41492,13.0332031 C44.7113067,13.0332031 45.6707793,12.1835938 45.6707793,11.0556641 L45.6707793,10.3305664 L43.5467559,10.4697266 C42.345584,10.550293 41.8182403,10.9677734 41.8182403,11.7587891 C41.8182403,12.5644531 42.4993926,13.0332031 43.41492,13.0332031 Z M43.180545,14.1391602 C41.6497833,14.1391602 40.5145293,13.230957 40.5145293,11.7880859 C40.5145293,10.3745117 41.5545684,9.56152344 43.3929473,9.45166016 L45.6707793,9.3125 L45.6707793,8.59472656 C45.6707793,7.62060547 45.0628692,7.0859375 43.88367,7.0859375 C42.9388458,7.0859375 42.2796661,7.44482422 42.1038848,8.06738281 L40.8294708,8.06738281 C40.9979278,6.80029297 42.243045,5.96533203 43.9276153,5.96533203 C45.8538848,5.96533203 46.930545,6.95410156 46.930545,8.59472656 L46.930545,14 L45.7293731,14 L45.7293731,12.8354492 L45.6121856,12.8354492 C45.0994903,13.6777344 44.2352325,14.1391602 43.180545,14.1391602 Z M49.3328887,14 L50.5926543,14 L50.5926543,2.96972656 L49.3328887,2.96972656 L49.3328887,14 Z M59.7918731,14 L61.1102325,14 L61.1102325,3.43115234 L59.7991973,3.43115234 L56.9866973,5.45263672 L56.9866973,6.84423828 L59.6746856,4.89599609 L59.7918731,4.89599609 L59.7918731,14 Z M67.7459747,14.2490234 C69.9359161,14.2490234 71.4373809,12.7841797 71.4373809,10.6381836 C71.4373809,8.55810547 70.0311309,7.10058594 68.024295,7.10058594 C67.0501739,7.10058594 66.3031036,7.40087891 65.7904083,8.00146484 L65.6732208,8.00146484 L65.9735137,4.61035156 L70.836795,4.61035156 L70.836795,3.43115234 L64.9407989,3.43115234 L64.3621856,9.42236328 L65.5999786,9.42236328 C66.0321075,8.66796875 66.8231231,8.23583984 67.7825958,8.23583984 C69.1668731,8.23583984 70.1190215,9.22460938 70.1190215,10.6748047 C70.1190215,12.125 69.1741973,13.0917969 67.7606231,13.0917969 C66.5155059,13.0917969 65.6073028,12.3300781 65.4901153,11.1875 L64.1937286,11.1875 C64.3109161,13.0112305 65.7464629,14.2490234 67.7459747,14.2490234 Z M77.3919708,5.96533203 C79.4061309,5.96533203 80.7098418,7.56933594 80.7098418,10.0522461 C80.7098418,12.5205078 79.3988067,14.1391602 77.3919708,14.1391602 C76.2640411,14.1391602 75.3558379,13.6484375 74.923709,12.8134766 L74.8065215,12.8134766 L74.8065215,16.6367188 L73.5467559,16.6367188 L73.5467559,6.10449219 L74.7479278,6.10449219 L74.7479278,7.42285156 L74.8651153,7.42285156 C75.3704864,6.51464844 76.3153106,5.96533203 77.3919708,5.96533203 Z M77.0916778,13.0039062 C78.5418731,13.0039062 79.4061309,11.8979492 79.4061309,10.0522461 C79.4061309,8.20654297 78.5418731,7.10058594 77.099002,7.10058594 C75.6707793,7.10058594 74.7699004,8.23583984 74.7699004,10.0522461 C74.7699004,11.8613281 75.6707793,13.0039062 77.0916778,13.0039062 Z M85.1190215,11.019043 L86.9866973,14 L88.4808379,14 L85.7635528,10.0009766 L88.4442168,6.10449219 L87.0159942,6.10449219 L85.1629668,9.04150391 L85.0457793,9.04150391 L83.1707793,6.10449219 L81.6693145,6.10449219 L84.4012481,10.0522461 L81.6986114,14 L83.126834,14 L85.001834,11.019043 L85.1190215,11.019043 Z" transform="translate(99 178)"/>
    <path fill="#FFF" d="M2.5677985,12 L2.5677985,4.89697266 L2.669361,4.89697266 L7.63957584,12 L8.75041569,12 L8.75041569,2.84033203 L7.62053287,2.84033203 L7.62053287,9.96875 L7.51897037,9.96875 L2.54875553,2.84033203 L1.43791569,2.84033203 L1.43791569,12 L2.5677985,12 Z M13.7587165,12.1206055 C11.809986,12.1206055 10.6039313,10.7749023 10.6039313,8.57861328 C10.6039313,6.37597656 11.809986,5.03662109 13.7587165,5.03662109 C15.7074469,5.03662109 16.9135016,6.37597656 16.9135016,8.57861328 C16.9135016,10.7749023 15.7074469,12.1206055 13.7587165,12.1206055 Z M13.7587165,11.1367188 C15.0536383,11.1367188 15.7836188,10.1972656 15.7836188,8.57861328 C15.7836188,6.95361328 15.0536383,6.02050781 13.7587165,6.02050781 C12.4637946,6.02050781 11.7338141,6.95361328 11.7338141,8.57861328 C11.7338141,10.1972656 12.4637946,11.1367188 13.7587165,11.1367188 Z M18.6273688,12 L19.7191657,12 L19.7191657,7.75976562 C19.7191657,6.79492188 20.4745368,6.09667969 21.5155524,6.09667969 C21.7313727,6.09667969 22.1249274,6.13476562 22.2137946,6.16015625 L22.2137946,5.06835938 C22.0741462,5.04931641 21.8456305,5.03662109 21.6678962,5.03662109 C20.7601813,5.03662109 19.9730719,5.50634766 19.7699469,6.17285156 L19.6683844,6.17285156 L19.6683844,5.15722656 L18.6273688,5.15722656 L18.6273688,12 Z M23.7054938,12 L24.7972907,12 L24.7972907,7.75976562 C24.7972907,6.79492188 25.4891852,6.02050781 26.3842047,6.02050781 C27.247486,6.02050781 27.8124274,6.54101562 27.8124274,7.35351562 L27.8124274,12 L28.9042243,12 L28.9042243,7.60107422 C28.9042243,6.73144531 29.5389899,6.02050781 30.4911383,6.02050781 C31.4559821,6.02050781 31.9320563,6.515625 31.9320563,7.52490234 L31.9320563,12 L33.0238532,12 L33.0238532,7.27099609 C33.0238532,5.83642578 32.2430915,5.03662109 30.8466071,5.03662109 C29.9008063,5.03662109 29.1200446,5.51269531 28.7518805,6.23632812 L28.650318,6.23632812 C28.3329352,5.52539062 27.6854743,5.03662109 26.7587165,5.03662109 C25.844654,5.03662109 25.1591071,5.47460938 24.8480719,6.23632812 L24.7465094,6.23632812 L24.7465094,5.15722656 L23.7054938,5.15722656 L23.7054938,12 Z M37.1244391,11.1621094 C38.2479743,11.1621094 39.0795172,10.4257812 39.0795172,9.44824219 L39.0795172,8.81982422 L37.2386969,8.94042969 C36.1976813,9.01025391 35.7406501,9.37207031 35.7406501,10.0576172 C35.7406501,10.7558594 36.3309821,11.1621094 37.1244391,11.1621094 Z M36.9213141,12.1206055 C35.594654,12.1206055 34.6107672,11.3334961 34.6107672,10.0830078 C34.6107672,8.85791016 35.5121344,8.15332031 37.1053962,8.05810547 L39.0795172,7.9375 L39.0795172,7.31542969 C39.0795172,6.47119141 38.5526618,6.0078125 37.5306891,6.0078125 C36.7118415,6.0078125 36.1405524,6.31884766 35.9882087,6.85839844 L34.8837165,6.85839844 C35.0297126,5.76025391 36.1088141,5.03662109 37.5687751,5.03662109 C39.2382087,5.03662109 40.1713141,5.89355469 40.1713141,7.31542969 L40.1713141,12 L39.1302985,12 L39.1302985,10.9907227 L39.028736,10.9907227 C38.5844001,11.7207031 37.8353766,12.1206055 36.9213141,12.1206055 Z M42.2533454,12 L43.3451422,12 L43.3451422,2.44042969 L42.2533454,2.44042969 L42.2533454,12 Z M51.3177985,12 L52.4603766,12 L52.4603766,2.84033203 L51.3241462,2.84033203 L48.8866462,4.59228516 L48.8866462,5.79833984 L51.216236,4.10986328 L51.3177985,4.10986328 L51.3177985,12 Z M57.0624274,7.77880859 L58.2240485,7.77880859 C59.525318,7.77880859 60.3314704,8.43896484 60.3314704,9.49902344 C60.3314704,10.5019531 59.4745368,11.2192383 58.2684821,11.2192383 C57.087818,11.2192383 56.2626227,10.5908203 56.1610602,9.61328125 L55.056568,9.61328125 C55.1390876,11.1811523 56.4213141,12.2158203 58.2811774,12.2158203 C60.0902594,12.2158203 61.5057868,11.0415039 61.5057868,9.53076172 C61.5057868,8.28027344 60.7504157,7.41699219 59.5062751,7.25830078 L59.5062751,7.15673828 C60.5092047,6.91552734 61.1122321,6.11572266 61.1122321,5.02392578 C61.1122321,3.69091797 59.8363532,2.62451172 58.2367438,2.62451172 C56.4911383,2.62451172 55.3549079,3.60205078 55.2406501,5.18896484 L56.3514899,5.18896484 C56.4467047,4.20507812 57.1385993,3.62109375 58.1923102,3.62109375 C59.2460212,3.62109375 59.950611,4.24316406 59.950611,5.17626953 C59.950611,6.12841797 59.2142829,6.80126953 58.1732672,6.80126953 L57.0624274,6.80126953 L57.0624274,7.77880859 Z M66.6791266,5.03662109 C68.4247321,5.03662109 69.5546149,6.42675781 69.5546149,8.57861328 C69.5546149,10.7177734 68.4183844,12.1206055 66.6791266,12.1206055 C65.7015876,12.1206055 64.9144782,11.6953125 64.5399665,10.9716797 L64.438404,10.9716797 L64.438404,14.2851562 L63.3466071,14.2851562 L63.3466071,5.15722656 L64.3876227,5.15722656 L64.3876227,6.29980469 L64.4891852,6.29980469 C64.9271735,5.51269531 65.7460212,5.03662109 66.6791266,5.03662109 Z M66.4188727,11.1367188 C67.6757087,11.1367188 68.4247321,10.1782227 68.4247321,8.57861328 C68.4247321,6.97900391 67.6757087,6.02050781 66.4252204,6.02050781 C65.1874274,6.02050781 64.4066657,7.00439453 64.4066657,8.57861328 C64.4066657,10.1464844 65.1874274,11.1367188 66.4188727,11.1367188 Z M73.375904,9.41650391 L74.9945563,12 L76.2894782,12 L73.9344977,8.53417969 L76.2577399,5.15722656 L75.0199469,5.15722656 L73.4139899,7.70263672 L73.3124274,7.70263672 L71.6874274,5.15722656 L70.3861579,5.15722656 L72.7538337,8.57861328 L70.4115485,12 L71.6493415,12 L73.2743415,9.41650391 L73.375904,9.41650391 Z" transform="translate(100 206)"/>
    <g fill="#FFF" transform="translate(100 237)">
      <path d="M2.5677985 12L2.5677985 4.89697266 2.669361 4.89697266 7.63957584 12 8.75041569 12 8.75041569 2.84033203 7.62053287 2.84033203 7.62053287 9.96875 7.51897037 9.96875 2.54875553 2.84033203 1.43791569 2.84033203 1.43791569 12 2.5677985 12zM13.7587165 12.1206055C11.809986 12.1206055 10.6039313 10.7749023 10.6039313 8.57861328 10.6039313 6.37597656 11.809986 5.03662109 13.7587165 5.03662109 15.7074469 5.03662109 16.9135016 6.37597656 16.9135016 8.57861328 16.9135016 10.7749023 15.7074469 12.1206055 13.7587165 12.1206055zM13.7587165 11.1367188C15.0536383 11.1367188 15.7836188 10.1972656 15.7836188 8.57861328 15.7836188 6.95361328 15.0536383 6.02050781 13.7587165 6.02050781 12.4637946 6.02050781 11.7338141 6.95361328 11.7338141 8.57861328 11.7338141 10.1972656 12.4637946 11.1367188 13.7587165 11.1367188zM18.6273688 12L19.7191657 12 19.7191657 7.75976562C19.7191657 6.79492188 20.4745368 6.09667969 21.5155524 6.09667969 21.7313727 6.09667969 22.1249274 6.13476562 22.2137946 6.16015625L22.2137946 5.06835938C22.0741462 5.04931641 21.8456305 5.03662109 21.6678962 5.03662109 20.7601813 5.03662109 19.9730719 5.50634766 19.7699469 6.17285156L19.6683844 6.17285156 19.6683844 5.15722656 18.6273688 5.15722656 18.6273688 12zM23.7054938 12L24.7972907 12 24.7972907 7.75976562C24.7972907 6.79492188 25.4891852 6.02050781 26.3842047 6.02050781 27.247486 6.02050781 27.8124274 6.54101562 27.8124274 7.35351562L27.8124274 12 28.9042243 12 28.9042243 7.60107422C28.9042243 6.73144531 29.5389899 6.02050781 30.4911383 6.02050781 31.4559821 6.02050781 31.9320563 6.515625 31.9320563 7.52490234L31.9320563 12 33.0238532 12 33.0238532 7.27099609C33.0238532 5.83642578 32.2430915 5.03662109 30.8466071 5.03662109 29.9008063 5.03662109 29.1200446 5.51269531 28.7518805 6.23632812L28.650318 6.23632812C28.3329352 5.52539062 27.6854743 5.03662109 26.7587165 5.03662109 25.844654 5.03662109 25.1591071 5.47460938 24.8480719 6.23632812L24.7465094 6.23632812 24.7465094 5.15722656 23.7054938 5.15722656 23.7054938 12zM37.1244391 11.1621094C38.2479743 11.1621094 39.0795172 10.4257812 39.0795172 9.44824219L39.0795172 8.81982422 37.2386969 8.94042969C36.1976813 9.01025391 35.7406501 9.37207031 35.7406501 10.0576172 35.7406501 10.7558594 36.3309821 11.1621094 37.1244391 11.1621094zM36.9213141 12.1206055C35.594654 12.1206055 34.6107672 11.3334961 34.6107672 10.0830078 34.6107672 8.85791016 35.5121344 8.15332031 37.1053962 8.05810547L39.0795172 7.9375 39.0795172 7.31542969C39.0795172 6.47119141 38.5526618 6.0078125 37.5306891 6.0078125 36.7118415 6.0078125 36.1405524 6.31884766 35.9882087 6.85839844L34.8837165 6.85839844C35.0297126 5.76025391 36.1088141 5.03662109 37.5687751 5.03662109 39.2382087 5.03662109 40.1713141 5.89355469 40.1713141 7.31542969L40.1713141 12 39.1302985 12 39.1302985 10.9907227 39.028736 10.9907227C38.5844001 11.7207031 37.8353766 12.1206055 36.9213141 12.1206055zM42.2533454 12L43.3451422 12 43.3451422 2.44042969 42.2533454 2.44042969 42.2533454 12zM51.3177985 12L52.4603766 12 52.4603766 2.84033203 51.3241462 2.84033203 48.8866462 4.59228516 48.8866462 5.79833984 51.216236 4.10986328 51.3177985 4.10986328 51.3177985 12zM57.0624274 7.77880859L58.2240485 7.77880859C59.525318 7.77880859 60.3314704 8.43896484 60.3314704 9.49902344 60.3314704 10.5019531 59.4745368 11.2192383 58.2684821 11.2192383 57.087818 11.2192383 56.2626227 10.5908203 56.1610602 9.61328125L55.056568 9.61328125C55.1390876 11.1811523 56.4213141 12.2158203 58.2811774 12.2158203 60.0902594 12.2158203 61.5057868 11.0415039 61.5057868 9.53076172 61.5057868 8.28027344 60.7504157 7.41699219 59.5062751 7.25830078L59.5062751 7.15673828C60.5092047 6.91552734 61.1122321 6.11572266 61.1122321 5.02392578 61.1122321 3.69091797 59.8363532 2.62451172 58.2367438 2.62451172 56.4911383 2.62451172 55.3549079 3.60205078 55.2406501 5.18896484L56.3514899 5.18896484C56.4467047 4.20507812 57.1385993 3.62109375 58.1923102 3.62109375 59.2460212 3.62109375 59.950611 4.24316406 59.950611 5.17626953 59.950611 6.12841797 59.2142829 6.80126953 58.1732672 6.80126953L57.0624274 6.80126953 57.0624274 7.77880859zM66.6791266 5.03662109C68.4247321 5.03662109 69.5546149 6.42675781 69.5546149 8.57861328 69.5546149 10.7177734 68.4183844 12.1206055 66.6791266 12.1206055 65.7015876 12.1206055 64.9144782 11.6953125 64.5399665 10.9716797L64.438404 10.9716797 64.438404 14.2851562 63.3466071 14.2851562 63.3466071 5.15722656 64.3876227 5.15722656 64.3876227 6.29980469 64.4891852 6.29980469C64.9271735 5.51269531 65.7460212 5.03662109 66.6791266 5.03662109zM66.4188727 11.1367188C67.6757087 11.1367188 68.4247321 10.1782227 68.4247321 8.57861328 68.4247321 6.97900391 67.6757087 6.02050781 66.4252204 6.02050781 65.1874274 6.02050781 64.4066657 7.00439453 64.4066657 8.57861328 64.4066657 10.1464844 65.1874274 11.1367188 66.4188727 11.1367188zM73.375904 9.41650391L74.9945563 12 76.2894782 12 73.9344977 8.53417969 76.2577399 5.15722656 75.0199469 5.15722656 73.4139899 7.70263672 73.3124274 7.70263672 71.6874274 5.15722656 70.3861579 5.15722656 72.7538337 8.57861328 70.4115485 12 71.6493415 12 73.2743415 9.41650391 73.375904 9.41650391zM2.21428287 35L2.21428287 28.9897461 2.30022037 28.9897461 6.50578678 35 7.44572819 35 7.44572819 27.2495117 6.4896735 27.2495117 6.4896735 33.28125 6.403736 33.28125 2.19816959 27.2495117 1.25822819 27.2495117 1.25822819 35 2.21428287 35zM11.6835212 35.1020508C10.0345954 35.1020508 9.01408756 33.9633789 9.01408756 32.1049805 9.01408756 30.2412109 10.0345954 29.1079102 11.6835212 29.1079102 13.3324469 29.1079102 14.3529547 30.2412109 14.3529547 32.1049805 14.3529547 33.9633789 13.3324469 35.1020508 11.6835212 35.1020508zM11.6835212 34.2695312C12.7792243 34.2695312 13.3969001 33.4746094 13.3969001 32.1049805 13.3969001 30.7299805 12.7792243 29.9404297 11.6835212 29.9404297 10.587818 29.9404297 9.97014225 30.7299805 9.97014225 32.1049805 9.97014225 33.4746094 10.587818 34.2695312 11.6835212 34.2695312zM15.8031501 35L16.7269782 35 16.7269782 31.4121094C16.7269782 30.5957031 17.3661383 30.0048828 18.2469977 30.0048828 18.4296149 30.0048828 18.7626227 30.0371094 18.837818 30.0585938L18.837818 29.1347656C18.719654 29.1186523 18.5262946 29.1079102 18.375904 29.1079102 17.6078376 29.1079102 16.9418219 29.5053711 16.7699469 30.0693359L16.6840094 30.0693359 16.6840094 29.2099609 15.8031501 29.2099609 15.8031501 35zM20.1000251 35L21.0238532 35 21.0238532 31.4121094C21.0238532 30.5957031 21.6093024 29.9404297 22.3666266 29.9404297 23.0970954 29.9404297 23.5751227 30.3808594 23.5751227 31.0683594L23.5751227 35 24.4989508 35 24.4989508 31.277832C24.4989508 30.5419922 25.0360602 29.9404297 25.8417243 29.9404297 26.6581305 29.9404297 27.0609626 30.359375 27.0609626 31.2133789L27.0609626 35 27.9847907 35 27.9847907 30.9985352C27.9847907 29.784668 27.3241462 29.1079102 26.1425055 29.1079102 25.3422126 29.1079102 24.681568 29.5107422 24.3700446 30.1230469L24.2841071 30.1230469C24.0155524 29.5214844 23.4677008 29.1079102 22.6835212 29.1079102 21.9100837 29.1079102 21.3300055 29.4785156 21.0668219 30.1230469L20.9808844 30.1230469 20.9808844 29.2099609 20.1000251 29.2099609 20.1000251 35zM31.4545172 34.2910156C32.4052008 34.2910156 33.1088141 33.6679688 33.1088141 32.8408203L33.1088141 32.309082 31.5511969 32.4111328C30.6703376 32.4702148 30.2836188 32.7763672 30.2836188 33.3564453 30.2836188 33.9472656 30.7831305 34.2910156 31.4545172 34.2910156zM31.2826422 35.1020508C30.1600837 35.1020508 29.3275641 34.4360352 29.3275641 33.3779297 29.3275641 32.3413086 30.0902594 31.7451172 31.438404 31.6645508L33.1088141 31.5625 33.1088141 31.0361328C33.1088141 30.3217773 32.6630133 29.9296875 31.7982672 29.9296875 31.1053962 29.9296875 30.6219977 30.1928711 30.4930915 30.6494141L29.5585212 30.6494141C29.6820563 29.7202148 30.5951422 29.1079102 31.8304938 29.1079102 33.2430915 29.1079102 34.0326422 29.8330078 34.0326422 31.0361328L34.0326422 35 33.1517829 35 33.1517829 34.1459961 33.0658454 34.1459961C32.6898688 34.7636719 32.0560797 35.1020508 31.2826422 35.1020508zM35.794361 35L36.7181891 35 36.7181891 26.9111328 35.794361 26.9111328 35.794361 35zM43.4642829 35L44.4310797 35 44.4310797 27.2495117 43.469654 27.2495117 41.407154 28.7319336 41.407154 29.7524414 43.3783454 28.3237305 43.4642829 28.3237305 43.4642829 35zM48.5936774 35L49.5604743 35 49.5604743 27.2495117 48.5990485 27.2495117 46.5365485 28.7319336 46.5365485 29.7524414 48.5077399 28.3237305 48.5936774 28.3237305 48.5936774 35zM54.6952399 29.1079102C56.1722907 29.1079102 57.1283454 30.2841797 57.1283454 32.1049805 57.1283454 33.9150391 56.1669196 35.1020508 54.6952399 35.1020508 53.8680915 35.1020508 53.2020758 34.7421875 52.8851813 34.1298828L52.7992438 34.1298828 52.7992438 36.9335938 51.8754157 36.9335938 51.8754157 29.2099609 52.7562751 29.2099609 52.7562751 30.1767578 52.8422126 30.1767578C53.212818 29.5107422 53.9056891 29.1079102 54.6952399 29.1079102zM54.4750251 34.2695312C55.5385016 34.2695312 56.1722907 33.4584961 56.1722907 32.1049805 56.1722907 30.7514648 55.5385016 29.9404297 54.4803962 29.9404297 53.4330329 29.9404297 52.7723883 30.7729492 52.7723883 32.1049805 52.7723883 33.4316406 53.4330329 34.2695312 54.4750251 34.2695312zM60.3617438 32.8139648L61.7313727 35 62.8270758 35 60.8344001 32.0673828 62.8002204 29.2099609 61.7528571 29.2099609 60.3939704 31.3637695 60.3080329 31.3637695 58.9330329 29.2099609 57.8319587 29.2099609 59.8353766 32.1049805 57.853443 35 58.9008063 35 60.2758063 32.8139648 60.3617438 32.8139648z"/>
    </g>
    <path fill="#FFF" d="M105.224121,157 L101.11084,157 L101.11084,147.840332 L105.116211,147.840332 C106.893555,147.840332 107.953613,148.709961 107.953613,150.125488 C107.953613,151.09668 107.236328,151.940918 106.296875,152.080566 L106.296875,152.194824 C107.509277,152.283691 108.391602,153.197754 108.391602,154.378418 C108.391602,155.984375 107.179199,157 105.224121,157 Z M103.027832,149.306641 L103.027832,151.63623 L104.46875,151.63623 C105.503418,151.63623 106.068359,151.210938 106.068359,150.474609 C106.068359,149.744629 105.541504,149.306641 104.627441,149.306641 L103.027832,149.306641 Z M103.027832,155.533691 L104.735352,155.533691 C105.839844,155.533691 106.436523,155.070312 106.436523,154.213379 C106.436523,153.375488 105.820801,152.931152 104.690918,152.931152 L103.027832,152.931152 L103.027832,155.533691 Z M113.044434,157.152344 C110.892578,157.152344 109.597656,155.787598 109.597656,153.496094 C109.597656,151.22998 110.911621,149.846191 113.044434,149.846191 C115.177246,149.846191 116.491211,151.223633 116.491211,153.496094 C116.491211,155.787598 115.196289,157.152344 113.044434,157.152344 Z M113.044434,155.641602 C114.02832,155.641602 114.593262,154.854492 114.593262,153.496094 C114.593262,152.150391 114.021973,151.356934 113.044434,151.356934 C112.060547,151.356934 111.495605,152.150391 111.495605,153.496094 C111.495605,154.86084 112.054199,155.641602 113.044434,155.641602 Z M118.059082,157 L119.90625,157 L119.90625,147.326172 L118.059082,147.326172 L118.059082,157 Z M124.330566,157.10791 C122.565918,157.10791 121.480469,155.724121 121.480469,153.489746 C121.480469,151.261719 122.572266,149.884277 124.330566,149.884277 C125.276367,149.884277 126.057129,150.341309 126.418945,151.115723 L126.526855,151.115723 L126.526855,147.326172 L128.374023,147.326172 L128.374023,157 L126.583984,157 L126.583984,155.901855 L126.469727,155.901855 C126.095215,156.657227 125.301758,157.10791 124.330566,157.10791 Z M124.958984,151.433105 C123.975098,151.433105 123.378418,152.213867 123.378418,153.496094 C123.378418,154.791016 123.96875,155.56543 124.958984,155.56543 C125.949219,155.56543 126.545898,154.784668 126.545898,153.502441 C126.545898,152.226562 125.942871,151.433105 124.958984,151.433105 Z M135.85791,157 L137.774902,157 L137.774902,147.840332 L135.864258,147.840332 L133.496582,149.47168 L133.496582,151.255371 L135.743652,149.706543 L135.85791,149.706543 L135.85791,157 Z M142.54834,153.026367 L143.68457,153.026367 C144.712891,153.026367 145.341309,153.521484 145.341309,154.321289 C145.341309,155.102051 144.674805,155.641602 143.716309,155.641602 C142.732422,155.641602 142.078613,155.152832 142.021484,154.378418 L140.187012,154.378418 C140.269531,156.10498 141.65332,157.234863 143.697266,157.234863 C145.785645,157.234863 147.296387,156.073242 147.296387,154.467285 C147.296387,153.26123 146.509277,152.42334 145.252441,152.283691 L145.252441,152.169434 C146.274414,151.959961 146.940918,151.134766 146.940918,150.074707 C146.940918,148.633789 145.588867,147.605469 143.709961,147.605469 C141.710449,147.605469 140.421875,148.697266 140.358398,150.430176 L142.129395,150.430176 C142.180176,149.636719 142.770508,149.135254 143.65918,149.135254 C144.554199,149.135254 145.125488,149.60498 145.125488,150.341309 C145.125488,151.090332 144.535156,151.598145 143.665527,151.598145 L142.54834,151.598145 L142.54834,153.026367 Z M153.053711,149.884277 C154.824707,149.884277 155.910156,151.22998 155.910156,153.496094 C155.910156,155.755859 154.837402,157.10791 153.085449,157.10791 C152.08252,157.10791 151.314453,156.669922 150.97168,155.927246 L150.857422,155.927246 L150.857422,159.323242 L149.010254,159.323242 L149.010254,149.998535 L150.800293,149.998535 L150.800293,151.147461 L150.914551,151.147461 C151.29541,150.360352 152.088867,149.884277 153.053711,149.884277 Z M152.425293,155.56543 C153.421875,155.56543 154.012207,154.791016 154.012207,153.496094 C154.012207,152.213867 153.415527,151.433105 152.431641,151.433105 C151.447754,151.433105 150.838379,152.220215 150.838379,153.502441 C150.838379,154.784668 151.447754,155.56543 152.425293,155.56543 Z M159.902832,154.714844 L161.204102,157 L163.260742,157 L161.04541,153.458008 L163.241699,149.998535 L161.223145,149.998535 L159.985352,152.296387 L159.871094,152.296387 L158.633301,149.998535 L156.513184,149.998535 L158.722168,153.540527 L156.525879,157 L158.487305,157 L159.788574,154.714844 L159.902832,154.714844 Z"/>
  </g>
</svg>
