<svg xmlns="http://www.w3.org/2000/svg" width="400" height="400" style="background:#f2f3f5" viewBox="0 0 400 400">
  <g fill="none" fill-rule="evenodd" transform="translate(99 65)">
    <path fill="#0C0C0D" d="M59.9213867 113.526855L59.9213867 111.493164C60.1040048 111.659181 60.3212064 111.808593 60.572998 111.941406 60.8247897 112.074219 61.0917955 112.186279 61.3740234 112.277588 61.6562514 112.368897 61.9384752 112.439453 62.2207031 112.489258 62.5029311 112.539063 62.7630196 112.563965 63.0009766 112.563965 63.8310588 112.563965 64.4494609 112.42562 64.8562012 112.148926 65.2629415 111.872232 65.4663086 111.471031 65.4663086 110.945312 65.4663086 110.663085 65.3985196 110.418214 65.2629395 110.210693 65.1273593 110.003173 64.9378267 109.81364 64.6943359 109.64209 64.4508451 109.47054 64.164471 109.305909 63.8352051 109.148193 63.5059391 108.990478 63.1531594 108.825847 62.7768555 108.654297 62.3728821 108.438475 61.9965838 108.21989 61.6479492 107.998535 61.2993147 107.77718 60.9963392 107.532309 60.7390137 107.263916 60.4816882 106.995523 60.2797045 106.692547 60.1330566 106.35498 59.9864088 106.017414 59.9130859 105.621747 59.9130859 105.167969 59.9130859 104.609047 60.0389799 104.123456 60.2907715 103.711182 60.5425631 103.298907 60.874591 102.958579 61.2868652 102.690186 61.6991394 102.421792 62.1681289 102.222576 62.6938477 102.092529 63.2195664 101.962483 63.7563449 101.897461 64.3041992 101.897461 65.5493226 101.897461 66.4568656 102.038573 67.0268555 102.320801L67.0268555 104.271484C66.3517219 103.784503 65.4829155 103.541016 64.4204102 103.541016 64.1271144 103.541016 63.8352065 103.568685 63.5446777 103.624023 63.2541489 103.679362 62.9940604 103.77067 62.7644043 103.897949 62.5347482 104.025229 62.3479825 104.188476 62.2041016 104.387695 62.0602206 104.586915 61.9882812 104.827635 61.9882812 105.109863 61.9882812 105.37549 62.0436192 105.605142 62.1542969 105.798828 62.2649745 105.992514 62.4268381 106.169596 62.6398926 106.330078 62.852947 106.490561 63.1130356 106.646891 63.420166 106.799072 63.7272965 106.951254 64.082843 107.115885 64.4868164 107.292969 64.9018575 107.50879 65.2933738 107.735676 65.661377 107.973633 66.0293801 108.21159 66.3531073 108.474445 66.6325684 108.762207 66.9120294 109.049969 67.1333813 109.369546 67.2966309 109.720947 67.4598804 110.072349 67.5415039 110.472166 67.5415039 110.92041 67.5415039 111.523603 67.4197603 112.032713 67.1762695 112.447754 66.9327787 112.862795 66.6049011 113.200357 66.192627 113.460449 65.7803528 113.720542 65.3058295 113.908691 64.769043 114.024902 64.2322564 114.141114 63.6650421 114.199219 63.0673828 114.199219 62.8681631 114.199219 62.6232925 114.184001 62.3327637 114.153564 62.0422349 114.123128 61.7447932 114.078858 61.4404297 114.020752 61.1360662 113.962646 60.8483086 113.89209 60.5771484 113.809082 60.3059882 113.726074 60.0874032 113.631999 59.9213867 113.526855zM76.7055664 110.272949L70.9116211 110.272949C70.9337566 111.05876 71.1758603 111.664711 71.6379395 112.09082 72.1000186 112.516929 72.735022 112.72998 73.5429688 112.72998 74.4505254 112.72998 75.2833621 112.458824 76.0415039 111.916504L76.0415039 113.46875C75.2667604 113.955732 74.2430077 114.199219 72.9702148 114.199219 71.7195575 114.199219 70.7386917 113.813236 70.0275879 113.04126 69.3164841 112.269283 68.9609375 111.183275 68.9609375 109.783203 68.9609375 108.460605 69.3524538 107.382898 70.135498 106.550049 70.9185423 105.7172 71.8911075 105.300781 73.0532227 105.300781 74.2153378 105.300781 75.1145802 105.674313 75.7509766 106.421387 76.387373 107.168461 76.7055664 108.206048 76.7055664 109.53418L76.7055664 110.272949zM74.8461914 108.911621C74.8406575 108.219886 74.6774105 107.681724 74.3564453 107.297119 74.0354802 106.912514 73.5927763 106.720215 73.0283203 106.720215 72.4749321 106.720215 72.0059427 106.922199 71.6213379 107.326172 71.2367331 107.730145 71.0001632 108.258623 70.9116211 108.911621L74.8461914 108.911621zM91.2485352 114L89.3227539 114 89.3227539 109.368164C89.3227539 108.477209 89.19686 107.832522 88.9450684 107.434082 88.6932767 107.035643 88.2685577 106.836426 87.6708984 106.836426 87.1673152 106.836426 86.7398292 107.088214 86.3884277 107.591797 86.0370262 108.09538 85.8613281 108.698564 85.8613281 109.401367L85.8613281 114 83.9272461 114 83.9272461 109.210449C83.9272461 107.627759 83.3683324 106.836426 82.2504883 106.836426 81.7303034 106.836426 81.3028174 107.074379 80.9680176 107.550293 80.6332177 108.026207 80.4658203 108.643225 80.4658203 109.401367L80.4658203 114 78.5400391 114 78.5400391 105.5 80.4658203 105.5 80.4658203 106.844727 80.4990234 106.844727C81.1132843 105.815425 82.0069928 105.300781 83.1801758 105.300781 83.7667673 105.300781 84.2800271 105.462645 84.7199707 105.786377 85.1599143 106.110109 85.4601229 106.534828 85.6206055 107.060547 86.251468 105.887364 87.1922138 105.300781 88.4428711 105.300781 90.3133232 105.300781 91.2485352 106.454578 91.2485352 108.762207L91.2485352 114zM94.5688477 103.715332C94.2534164 103.715332 93.9836437 103.612957 93.7595215 103.408203 93.5353993 103.203449 93.4233398 102.943361 93.4233398 102.62793 93.4233398 102.312498 93.5353993 102.049643 93.7595215 101.839355 93.9836437 101.629068 94.2534164 101.523926 94.5688477 101.523926 94.8953467 101.523926 95.1720366 101.629068 95.3989258 101.839355 95.6258149 102.049643 95.7392578 102.312498 95.7392578 102.62793 95.7392578 102.926759 95.6258149 103.182698 95.3989258 103.395752 95.1720366 103.608806 94.8953467 103.715332 94.5688477 103.715332zM95.5234375 114L93.5976562 114 93.5976562 105.5 95.5234375 105.5 95.5234375 114zM98.2543945 114L98.2543945 102.09668 102.03125 102.09668C103.182297 102.09668 104.093991 102.348468 104.766357 102.852051 105.438724 103.355634 105.774902 104.011389 105.774902 104.819336 105.774902 105.49447 105.583986 106.081052 105.202148 106.579102 104.820311 107.077151 104.291833 107.431314 103.616699 107.641602L103.616699 107.674805C104.435714 107.768881 105.090085 108.071856 105.579834 108.58374 106.069583 109.095624 106.314453 109.761064 106.314453 110.580078 106.314453 111.598312 105.913253 112.422848 105.11084 113.053711 104.308427 113.684573 103.295742 114 102.072754 114L98.2543945 114zM100.22168 103.682129L100.22168 107.068848 101.5 107.068848C102.186201 107.068848 102.724363 106.906984 103.114502 106.583252 103.504641 106.25952 103.699707 105.801598 103.699707 105.209473 103.699707 104.191238 103.01905 103.682129 101.657715 103.682129L100.22168 103.682129zM100.22168 108.654297L100.22168 112.422852 101.906738 112.422852C102.642745 112.422852 103.211342 112.252687 103.612549 111.912354 104.013755 111.57202 104.214355 111.10303 104.214355 110.505371 104.214355 109.271315 103.359384 108.654297 101.649414 108.654297L100.22168 108.654297zM112.075195 114.199219C110.763665 114.199219 109.716394 113.802169 108.93335 113.008057 108.150305 112.213945 107.758789 111.161139 107.758789 109.849609 107.758789 108.421868 108.166907 107.306807 108.983154 106.504395 109.799402 105.701982 110.899244 105.300781 112.282715 105.300781 113.610846 105.300781 114.645667 105.690914 115.387207 106.471191 116.128747 107.251469 116.499512 108.333326 116.499512 109.716797 116.499512 111.072598 116.099695 112.158606 115.300049 112.974854 114.500403 113.791101 113.425462 114.199219 112.075195 114.199219zM112.166504 106.836426C111.413896 106.836426 110.819013 107.099281 110.381836 107.625 109.944659 108.150719 109.726074 108.875646 109.726074 109.799805 109.726074 110.69076 109.947426 111.392169 110.390137 111.904053 110.832847 112.415937 111.424964 112.671875 112.166504 112.671875 112.924646 112.671875 113.507078 112.420087 113.913818 111.916504 114.320559 111.412921 114.523926 110.696294 114.523926 109.766602 114.523926 108.831376 114.320559 108.109215 113.913818 107.600098 113.507078 107.090981 112.924646 106.836426 112.166504 106.836426zM120.392578 114L118.458496 114 118.458496 101.416016 120.392578 101.416016 120.392578 114zM130.627441 114L128.70166 114 128.70166 112.555664 128.668457 112.555664C128.048662 113.651373 127.094082 114.199219 125.804688 114.199219 124.758784 114.199219 123.921797 113.81877 123.293701 113.057861 122.665606 112.296953 122.351562 111.260749 122.351562 109.949219 122.351562 108.543613 122.698808 107.417485 123.393311 106.570801 124.087813 105.724117 125.013341 105.300781 126.169922 105.300781 127.315435 105.300781 128.148272 105.760087 128.668457 106.678711L128.70166 106.678711 128.70166 101.416016 130.627441 101.416016 130.627441 114zM128.726562 110.115234L128.726562 109.00293C128.726562 108.399737 128.530113 107.88786 128.137207 107.467285 127.744301 107.04671 127.243493 106.836426 126.634766 106.836426 125.915361 106.836426 125.34953 107.104815 124.937256 107.641602 124.524982 108.178388 124.318848 108.922684 124.318848 109.874512 124.318848 110.737797 124.516681 111.419838 124.912354 111.920654 125.308026 112.421471 125.840654 112.671875 126.510254 112.671875 127.168786 112.671875 127.702797 112.429771 128.112305 111.945557 128.521812 111.461342 128.726562 110.851241 128.726562 110.115234zM141.66748 101.831055L141.66748 114 139.741699 114 139.741699 104.188477C139.393065 104.437501 139.01815 104.649169 138.616943 104.823486 138.215737 104.997804 137.757815 105.151367 137.243164 105.28418L137.243164 103.640625C137.564129 103.535481 137.874022 103.424805 138.172852 103.308594 138.471681 103.192382 138.766356 103.062338 139.056885 102.918457 139.347414 102.774576 139.640705 102.614096 139.936768 102.437012 140.23283 102.259928 140.538573 102.057944 140.854004 101.831055L141.66748 101.831055zM151.935547 103.05957C151.437498 103.972661 150.967125 104.876053 150.524414 105.769775 150.081704 106.663497 149.680503 107.561356 149.320801 108.463379 148.961098 109.365402 148.648439 110.274328 148.382812 111.190186 148.117186 112.106043 147.912436 113.042638 147.768555 114L145.751465 114C145.884278 113.147782 146.073811 112.296961 146.320068 111.44751 146.566326 110.598059 146.855467 109.748621 147.1875 108.89917 147.519533 108.049719 147.891681 107.196131 148.303955 106.338379 148.716229 105.480627 149.154783 104.614588 149.619629 103.740234L143.983398 103.740234 143.983398 102.09668 151.935547 102.09668 151.935547 103.05957zM155.729004 112.746582L155.695801 112.746582 155.695801 117.909668 153.77002 117.909668 153.77002 105.5 155.695801 105.5 155.695801 106.994141 155.729004 106.994141C156.387536 105.865229 157.350417 105.300781 158.617676 105.300781 159.696783 105.300781 160.53792 105.679846 161.141113 106.437988 161.744306 107.19613 162.045898 108.214349 162.045898 109.492676 162.045898 110.90935 161.70557 112.043778 161.024902 112.895996 160.344235 113.748214 159.414557 114.174316 158.23584 114.174316 157.151199 114.174316 156.315595 113.69841 155.729004 112.746582zM155.679199 109.393066L155.679199 110.447266C155.679199 111.06706 155.877033 111.592771 156.272705 112.024414 156.668378 112.456057 157.17057 112.671875 157.779297 112.671875 158.493168 112.671875 159.053465 112.393802 159.460205 111.837646 159.866945 111.281491 160.070312 110.505376 160.070312 109.509277 160.070312 108.673661 159.88078 108.019289 159.501709 107.546143 159.122638 107.072996 158.609378 106.836426 157.961914 106.836426 157.275713 106.836426 156.723716 107.079913 156.305908 107.566895 155.8881 108.053876 155.679199 108.662594 155.679199 109.393066zM170.853027 105.5L168.022461 109.799805 170.819824 114 168.586914 114 167.092773 111.368652C166.998697 111.20817 166.888021 111.003419 166.760742 110.754395L166.727539 110.754395C166.705404 110.804199 166.589194 111.00895 166.378906 111.368652L164.859863 114 162.635254 114 165.523926 109.833008 162.784668 105.5 165.025879 105.5 166.495117 108.26416C166.605795 108.468914 166.713704 108.679198 166.818848 108.89502L166.84375 108.89502 168.744629 105.5 170.853027 105.5zM60.0410156 142L60.0410156 132.897461 63.3544922 132.897461C64.3701223 132.897461 65.1508762 133.083657 65.6967773 133.456055 66.2426785 133.828452 66.515625 134.353187 66.515625 135.030273 66.515625 135.521161 66.3495297 135.950682 66.017334 136.318848 65.6851383 136.687014 65.2609075 136.943033 64.7446289 137.086914L64.7446289 137.112305C65.3920931 137.192709 65.9094219 137.431801 66.2966309 137.82959 66.6838398 138.227378 66.8774414 138.711911 66.8774414 139.283203 66.8774414 140.116866 66.5791045 140.778074 65.9824219 141.266846 65.3857392 141.755618 64.5711315 142 63.5385742 142L60.0410156 142zM62.0913086 134.408203L62.0913086 136.566406 62.9926758 136.566406C63.415855 136.566406 63.7491036 136.463787 63.9924316 136.258545 64.2357597 136.053303 64.3574219 135.770835 64.3574219 135.411133 64.3574219 134.74251 63.8580779 134.408203 62.859375 134.408203L62.0913086 134.408203zM62.0913086 138.089844L62.0913086 140.489258 63.2021484 140.489258C63.6761091 140.489258 64.0474433 140.379233 64.3161621 140.15918 64.5848809 139.939127 64.7192383 139.638674 64.7192383 139.257812 64.7192383 138.893878 64.5869968 138.608237 64.3225098 138.400879 64.0580228 138.193521 63.6888045 138.089844 63.2148438 138.089844L62.0913086 138.089844zM71.2763672 142.158691C70.1930284 142.158691 69.3413931 141.855065 68.7214355 141.247803 68.101478 140.640541 67.7915039 139.816411 67.7915039 138.775391 67.7915039 137.700515 68.1131153 136.859459 68.7563477 136.252197 69.39958 135.644935 70.2692002 135.341309 71.3652344 135.341309 72.4443413 135.341309 73.290687 135.644935 73.9042969 136.252197 74.5179067 136.859459 74.824707 137.66243 74.824707 138.661133 74.824707 139.74024 74.5083853 140.592933 73.8757324 141.219238 73.2430795 141.845543 72.3766331 142.158691 71.2763672 142.158691zM71.3271484 136.877441C70.8531877 136.877441 70.4850274 137.040363 70.2226562 137.366211 69.9602851 137.692059 69.8291016 138.153317 69.8291016 138.75 69.8291016 139.998379 70.3326773 140.622559 71.3398438 140.622559 72.3004605 140.622559 72.7807617 139.981452 72.7807617 138.699219 72.7807617 137.484694 72.2962288 136.877441 71.3271484 136.877441zM78.1318359 142L76.1259766 142 76.1259766 132.376953 78.1318359 132.376953 78.1318359 142zM86.1806641 142L84.1748047 142 84.1748047 141.10498 84.1494141 141.10498C83.6923805 141.807458 83.0216516 142.158691 82.137207 142.158691 81.324703 142.158691 80.6709009 141.871992 80.1757812 141.298584 79.6806616 140.725176 79.4331055 139.924322 79.4331055 138.895996 79.4331055 137.821121 79.706052 136.959964 80.2519531 136.3125 80.7978543 135.665036 81.5130164 135.341309 82.3974609 135.341309 83.2353558 135.341309 83.8193343 135.641761 84.1494141 136.242676L84.1748047 136.242676 84.1748047 132.376953 86.1806641 132.376953 86.1806641 142zM84.2128906 138.838867L84.2128906 138.350098C84.2128906 137.926918 84.0901705 137.575685 83.8447266 137.296387 83.5992826 137.017088 83.2797871 136.877441 82.8862305 136.877441 82.4418923 136.877441 82.0948906 137.052 81.8452148 137.401123 81.5955391 137.750246 81.4707031 138.229489 81.4707031 138.838867 81.4707031 139.410159 81.5913074 139.850259 81.8325195 140.15918 82.0737317 140.468101 82.4080382 140.622559 82.8354492 140.622559 83.2417013 140.622559 83.572834 140.459637 83.8288574 140.133789 84.0848808 139.807941 84.2128906 139.376305 84.2128906 138.838867zM95.8925781 132.694336L95.8925781 142 93.8930664 142 93.8930664 134.954102C93.7830398 135.051433 93.6529142 135.143473 93.5026855 135.230225 93.3524569 135.316976 93.1927092 135.395263 93.0234375 135.465088 92.8541658 135.534912 92.6785491 135.594157 92.496582 135.642822 92.314615 135.691488 92.1347665 135.7264 91.9570312 135.747559L91.9570312 134.059082C92.4775417 133.906738 92.9684222 133.712078 93.4296875 133.475098 93.8909528 133.238117 94.3077781 132.977866 94.6801758 132.694336L95.8925781 132.694336zM98.831543 141.70166L98.831543 139.956055C99.440921 140.400393 100.151851 140.622559 100.964355 140.622559 101.476402 140.622559 101.875243 140.512534 102.160889 140.29248 102.446535 140.072427 102.589355 139.765627 102.589355 139.37207 102.589355 138.965818 102.412681 138.65267 102.059326 138.432617 101.705972 138.212564 101.220381 138.102539 100.602539 138.102539L99.7583008 138.102539 99.7583008 136.566406 100.539062 136.566406C101.723964 136.566406 102.316406 136.172855 102.316406 135.385742 102.316406 134.645179 101.861495 134.274902 100.95166 134.274902 100.342282 134.274902 99.7498401 134.471678 99.1743164 134.865234L99.1743164 133.227539C99.813317 132.905923 100.558101 132.745117 101.408691 132.745117 102.339686 132.745117 103.064369 132.954588 103.582764 133.373535 104.101158 133.792483 104.360352 134.33626 104.360352 135.004883 104.360352 136.194016 103.75733 136.938801 102.55127 137.239258L102.55127 137.270996C103.194502 137.3514 103.702309 137.585203 104.074707 137.972412 104.447105 138.359621 104.633301 138.834633 104.633301 139.397461 104.633301 140.248051 104.322269 140.920896 103.700195 141.416016 103.078122 141.911135 102.219081 142.158691 101.123047 142.158691 100.183589 142.158691 99.4197621 142.006349 98.831543 141.70166zM108.441895 141.244629L108.416504 141.244629 108.416504 144.989746 106.410645 144.989746 106.410645 135.5 108.416504 135.5 108.416504 136.477539 108.441895 136.477539C108.937014 135.720048 109.633134 135.341309 110.530273 135.341309 111.3724 135.341309 112.023028 135.630124 112.482178 136.207764 112.941327 136.785403 113.170898 137.571447 113.170898 138.565918 113.170898 139.649257 112.903242 140.518877 112.36792 141.174805 111.832598 141.830732 111.12061 142.158691 110.231934 142.158691 109.449052 142.158691 108.852378 141.854007 108.441895 141.244629zM108.384766 138.578613L108.384766 139.099121C108.384766 139.547691 108.503254 139.913736 108.740234 140.197266 108.977215 140.480796 109.288247 140.622559 109.67334 140.622559 110.130373 140.622559 110.484781 140.445884 110.736572 140.092529 110.988364 139.739175 111.114258 139.238773 111.114258 138.591309 111.114258 137.448725 110.669926 136.877441 109.78125 136.877441 109.370766 136.877441 109.035402 137.032957 108.775146 137.343994 108.514891 137.655031 108.384766 138.066566 108.384766 138.578613zM120.489746 135.5L118.344238 138.648438 120.477051 142 118.166504 142 117.227051 140.248047C117.150879 140.108398 117.059896 139.911622 116.954102 139.657715L116.928711 139.657715C116.865234 139.83545 116.778484 140.025878 116.668457 140.229004L115.722656 142 113.418457 142 115.614746 138.762695 113.551758 135.5 115.875 135.5 116.801758 137.321777C116.92448 137.562989 117.01123 137.766112 117.062012 137.931152L117.087402 137.931152C117.155111 137.732258 117.246093 137.524903 117.360352 137.309082L118.306152 135.5 120.489746 135.5z"/>
    <path fill="#737373" d="M4.28,18.11 C6.04,18.11 7.73,18.66 7.73,21.52 C7.73,24.33 5.98,25 4.49,25 L2.84,25 L2.84,18.11 L4.28,18.11 Z M4.49,18.87 L3.79,18.87 L3.79,24.25 L4.56,24.25 C5.64,24.25 6.72,23.79 6.72,21.52 C6.72,19.19 5.59,18.87 4.49,18.87 Z M9.68,17.2 C9.3,17.2 9.04,17.47 9.04,17.83 C9.04,18.18 9.3,18.45 9.68,18.45 C10.07,18.45 10.33,18.18 10.33,17.83 C10.33,17.47 10.07,17.2 9.68,17.2 Z M10.15,19.73 L9.23,19.73 L9.23,25 L10.15,25 L10.15,19.73 Z M13.48,19.61 C12.39,19.61 11.58,20.22 11.58,21.06 C11.58,21.8 12.03,22.29 13.17,22.59 C14.19,22.86 14.45,23.06 14.45,23.58 C14.45,24.08 14.01,24.38 13.32,24.38 C12.75,24.38 12.26,24.19 11.84,23.87 L11.35,24.43 C11.81,24.83 12.45,25.12 13.34,25.12 C14.41,25.12 15.42,24.62 15.42,23.52 C15.42,22.6 14.78,22.16 13.67,21.88 C12.82,21.66 12.54,21.46 12.54,21.03 C12.54,20.61 12.91,20.34 13.51,20.34 C14,20.34 14.41,20.49 14.88,20.79 L15.27,20.21 C14.77,19.83 14.22,19.61 13.48,19.61 Z M19.14,19.61 C20.54,19.61 21.09,20.7 21.09,22.36 C21.09,23.96 20.38,25.12 19.02,25.12 C18.45,25.12 17.98,24.93 17.64,24.52 L17.64,27.02 L16.72,27.13 L16.72,19.73 L17.51,19.73 L17.58,20.44 C17.97,19.9 18.54,19.61 19.14,19.61 Z M18.8,24.37 C19.64,24.37 20.1,23.74 20.1,22.36 C20.1,20.99 19.7,20.34 18.91,20.34 C18.35,20.34 17.92,20.74 17.64,21.16 L17.64,23.73 C17.91,24.14 18.32,24.37 18.8,24.37 Z M23.71,25.12 C23.98,25.12 24.24,25.05 24.44,24.94 L24.2,24.3 C24.1,24.34 23.99,24.36 23.86,24.36 C23.62,24.36 23.53,24.22 23.53,23.94 L23.53,17.5 L22.61,17.61 L22.61,23.96 C22.61,24.71 23.04,25.12 23.71,25.12 Z M29.14,23.77 C29.14,24.23 29.31,24.38 29.58,24.48 L29.37,25.12 C28.84,25.06 28.5,24.85 28.34,24.33 C27.97,24.88 27.41,25.12 26.77,25.12 C25.72,25.12 25.09,24.47 25.09,23.53 C25.09,22.4 25.94,21.79 27.41,21.79 L28.22,21.79 L28.22,21.4 C28.22,20.64 27.85,20.36 27.12,20.36 C26.73,20.36 26.24,20.46 25.7,20.64 L25.47,19.97 C26.12,19.73 26.7,19.61 27.29,19.61 C28.56,19.61 29.14,20.26 29.14,21.36 L29.14,23.77 Z M26.98,24.43 C27.52,24.43 27.92,24.16 28.22,23.61 L28.22,22.4 L27.53,22.4 C26.56,22.4 26.07,22.76 26.07,23.48 C26.07,24.1 26.38,24.43 26.98,24.43 Z M34.9,19.73 L33.95,19.73 L32.57,24.33 L31.16,19.73 L30.18,19.73 L31.95,25 L32.26,25 C31.96,25.82 31.66,26.23 30.59,26.41 L30.69,27.13 C32.15,26.97 32.77,26.15 33.14,25.03 L34.9,19.73 Z"/>
    <path fill="#0C0C0D" d="M61.9648438,25 L61.9648438,1.89355469 L63.5600586,1.89355469 L63.5600586,23.5498047 L72.8251953,23.5498047 L72.8251953,25 L61.9648438,25 Z M77.4819336,4.34277344 C77.1596664,4.34277344 76.8750012,4.22461056 76.6279297,3.98828125 C76.3808581,3.75195194 76.2573242,3.4511737 76.2573242,3.0859375 C76.2573242,2.73144354 76.3835437,2.4440929 76.6359863,2.22387695 C76.888429,2.00366101 77.1704086,1.89355469 77.4819336,1.89355469 C77.8149431,1.89355469 78.1076648,2.00097549 78.3601074,2.21582031 C78.6125501,2.43066514 78.7387695,2.7207013 78.7387695,3.0859375 C78.7387695,3.42968922 78.6152356,3.72509642 78.3681641,3.97216797 C78.1210925,4.21923952 77.8256853,4.34277344 77.4819336,4.34277344 Z M76.7568359,25 L76.7568359,8.5 L78.2392578,8.5 L78.2392578,25 L76.7568359,25 Z M96.7211914,23.7753906 C96.7211914,26.8798983 96.0444404,29.1518483 94.690918,30.5913086 C93.3373956,32.0307689 91.2319479,32.7504883 88.3745117,32.7504883 C86.78466,32.7504883 85.1464928,32.3315472 83.4599609,31.4936523 L83.4599609,29.9467773 C85.200204,30.9135791 86.8491133,31.3969727 88.4067383,31.3969727 C92.9614486,31.3969727 95.2387695,28.9907467 95.2387695,24.1782227 L95.2387695,22.0351562 L95.1743164,22.0351562 C93.8745052,24.2802847 91.8925914,25.402832 89.2285156,25.402832 C87.198232,25.402832 85.5412662,24.6669995 84.2575684,23.1953125 C82.9738705,21.7236255 82.3320312,19.6718882 82.3320312,17.0400391 C82.3320312,14.40819 83.0248954,12.259774 84.4106445,10.5947266 C85.7963936,8.92967917 87.6225473,8.09716797 89.8891602,8.09716797 C92.3169067,8.09716797 94.0786078,9.10155246 95.1743164,11.1103516 L95.2387695,11.1103516 L95.2387695,8.5 L96.7211914,8.5 L96.7211914,23.7753906 Z M95.2387695,14.8325195 C95.2387695,13.3715747 94.7473194,12.1093803 93.7644043,11.0458984 C92.7814892,9.98241656 91.5004962,9.45068359 89.9213867,9.45068359 C88.105948,9.45068359 86.6450251,10.1328057 85.5385742,11.4970703 C84.4321234,12.8613349 83.8789062,14.6660044 83.8789062,16.9111328 C83.8789062,19.1670035 84.3864695,20.920648 85.4016113,22.1721191 C86.4167531,23.4235902 87.7568276,24.0493164 89.421875,24.0493164 C91.1943448,24.0493164 92.6069283,23.4746151 93.659668,22.3251953 C94.7124076,21.1757755 95.2387695,19.768563 95.2387695,18.1035156 L95.2387695,14.8325195 Z M113.221191,25 L113.221191,15.1064453 C113.221191,13.1513574 112.866703,11.7199752 112.157715,10.8122559 C111.448727,9.90453648 110.342293,9.45068359 108.838379,9.45068359 C107.420403,9.45068359 106.174322,10.0039007 105.100098,11.1103516 C104.025874,12.2168024 103.48877,13.8012592 103.48877,15.8637695 L103.48877,25 L102.006348,25 L102.006348,0.572265625 L103.48877,0.572265625 L103.48877,11.4648438 L103.553223,11.4648438 C104.853034,9.21971534 106.74364,8.09716797 109.225098,8.09716797 C111.00831,8.09716797 112.367183,8.67186925 113.301758,9.82128906 C114.236333,10.9707089 114.703613,12.6196182 114.703613,14.7680664 L114.703613,25 L113.221191,25 Z M126.192383,24.7744141 C125.418941,25.1396503 124.693851,25.3222656 124.01709,25.3222656 C121.578601,25.3222656 120.359375,23.8613427 120.359375,20.9394531 L120.359375,9.85351562 L117.394531,9.85351562 L117.394531,8.5 L120.359375,8.5 L120.359375,4.21386719 C120.595704,4.12792926 120.842772,4.04199262 121.100586,3.95605469 C121.3584,3.880859 121.605468,3.8002934 121.841797,3.71435547 L121.841797,8.5 L126.192383,8.5 L126.192383,9.85351562 L121.841797,9.85351562 L121.841797,20.7460937 C121.841797,21.8847713 122.021727,22.709226 122.381592,23.2194824 C122.741457,23.7297389 123.35107,23.9848633 124.210449,23.9848633 C124.822757,23.9848633 125.483395,23.7861348 126.192383,23.3886719 L126.192383,24.7744141 Z M137.713379,24.1782227 L137.713379,22.4863281 C139.475106,23.5283255 141.134758,24.0493164 142.692383,24.0493164 C144.550791,24.0493164 146.006342,23.5739794 147.059082,22.623291 C148.111822,21.6726027 148.638184,20.4292069 148.638184,18.8930664 C148.638184,17.1850501 148.033942,15.8906294 146.825439,15.0097656 C145.616937,14.1289018 143.895519,13.6884766 141.661133,13.6884766 L139.888672,13.6884766 L139.888672,12.3349609 L141.467773,12.3349609 C143.530284,12.3349609 145.101313,11.8972212 146.180908,11.0217285 C147.260503,10.1462359 147.800293,8.90821113 147.800293,7.30761719 C147.800293,5.92186807 147.408207,4.83423246 146.624023,4.04467773 C145.83984,3.25512301 144.695808,2.86035156 143.191895,2.86035156 C141.741692,2.86035156 140.221688,3.36522933 138.631836,4.375 L138.631836,2.79589844 C140.372079,1.93651914 141.967278,1.50683594 143.41748,1.50683594 C145.243661,1.50683594 146.691157,2.00097162 147.76001,2.98925781 C148.828863,3.977544 149.363281,5.28807777 149.363281,6.92089844 C149.363281,10.0468906 147.864761,12.0341754 144.867676,12.8828125 L144.867676,12.9472656 C146.479012,13.1083992 147.768062,13.7072702 148.734863,14.7438965 C149.701665,15.7805228 150.185059,17.088371 150.185059,18.6674805 C150.185059,20.6870218 149.486823,22.3144469 148.090332,23.5498047 C146.693841,24.7851624 144.8838,25.402832 142.660156,25.402832 C140.941398,25.402832 139.292488,24.994633 137.713379,24.1782227 Z M154.712891,24.1782227 L154.712891,22.4863281 C156.474618,23.5283255 158.13427,24.0493164 159.691895,24.0493164 C161.550302,24.0493164 163.005854,23.5739794 164.058594,22.623291 C165.111333,21.6726027 165.637695,20.4292069 165.637695,18.8930664 C165.637695,17.1850501 165.033453,15.8906294 163.824951,15.0097656 C162.616449,14.1289018 160.895031,13.6884766 158.660645,13.6884766 L156.888184,13.6884766 L156.888184,12.3349609 L158.467285,12.3349609 C160.529795,12.3349609 162.100825,11.8972212 163.18042,11.0217285 C164.260015,10.1462359 164.799805,8.90821113 164.799805,7.30761719 C164.799805,5.92186807 164.407719,4.83423246 163.623535,4.04467773 C162.839352,3.25512301 161.69532,2.86035156 160.191406,2.86035156 C158.741204,2.86035156 157.221199,3.36522933 155.631348,4.375 L155.631348,2.79589844 C157.371591,1.93651914 158.96679,1.50683594 160.416992,1.50683594 C162.243173,1.50683594 163.690668,2.00097162 164.759521,2.98925781 C165.828374,3.977544 166.362793,5.28807777 166.362793,6.92089844 C166.362793,10.0468906 164.864273,12.0341754 161.867188,12.8828125 L161.867188,12.9472656 C163.478524,13.1083992 164.767573,13.7072702 165.734375,14.7438965 C166.701177,15.7805228 167.18457,17.088371 167.18457,18.6674805 C167.18457,20.6870218 166.486335,22.3144469 165.089844,23.5498047 C163.693352,24.7851624 161.883312,25.402832 159.659668,25.402832 C157.940909,25.402832 156.292,24.994633 154.712891,24.1782227 Z M174.048828,22.0673828 L173.984375,22.0673828 L173.984375,32.5893555 L172.501953,32.5893555 L172.501953,8.5 L173.984375,8.5 L173.984375,11.8999023 L174.048828,11.8999023 C174.639651,10.6860291 175.48559,9.7487826 176.58667,9.08813477 C177.68775,8.42748693 178.898919,8.09716797 180.220215,8.09716797 C182.314952,8.09716797 183.950434,8.81957285 185.126709,10.2644043 C186.302984,11.7092357 186.891113,13.6723509 186.891113,16.1538086 C186.891113,18.9145646 186.217048,21.1462317 184.868896,22.848877 C183.520745,24.5515222 181.740245,25.402832 179.527344,25.402832 C177.056628,25.402832 175.230475,24.2910267 174.048828,22.0673828 Z M173.984375,15.9282227 L173.984375,18.0068359 C173.984375,19.6611411 174.505366,21.0817812 175.547363,22.2687988 C176.589361,23.4558165 177.958976,24.0493164 179.65625,24.0493164 C181.342782,24.0493164 182.712397,23.3269115 183.765137,21.8820801 C184.817876,20.4372486 185.344238,18.538586 185.344238,16.1860352 C185.344238,14.1235248 184.860845,12.4853576 183.894043,11.2714844 C182.927241,10.0576111 181.638192,9.45068359 180.026855,9.45068359 C178.103994,9.45068359 176.616216,10.0952084 175.563477,11.3842773 C174.510737,12.6733463 173.984375,14.1879796 173.984375,15.9282227 Z M196.091797,16.9111328 L201.473633,25 L199.588379,25 L195.237793,18.0390625 L195.17334,18.0390625 L194.593262,18.9575195 C194.518066,19.0864264 194.426758,19.2314445 194.319336,19.3925781 L190.677734,25 L188.873047,25 L194.383789,16.9433594 L188.969727,8.5 L190.709961,8.5 L194.383789,14.4135742 C194.856448,15.1762733 195.141113,15.6489249 195.237793,15.831543 L195.302246,15.831543 L196.124023,14.4780273 L199.958984,8.5 L201.699219,8.5 L196.091797,16.9111328 Z"/>
    <path fill="#737373" d="M20.04,75.11 L15.12,75.11 L15.12,75.92 L17.08,75.92 L17.08,82 L18.03,82 L18.03,75.92 L19.94,75.92 L20.04,75.11 Z M21.54,74.2 C21.16,74.2 20.9,74.47 20.9,74.83 C20.9,75.18 21.16,75.45 21.54,75.45 C21.93,75.45 22.19,75.18 22.19,74.83 C22.19,74.47 21.93,74.2 21.54,74.2 Z M22.01,76.73 L21.09,76.73 L21.09,82 L22.01,82 L22.01,76.73 Z M26.22,81.13 C25.96,81.29 25.75,81.36 25.52,81.36 C25.06,81.36 24.89,81.11 24.89,80.58 L24.89,77.44 L26.04,77.44 L26.14,76.73 L24.89,76.73 L24.89,75.43 L23.97,75.54 L23.97,76.73 L23.05,76.73 L23.05,77.44 L23.97,77.44 L23.97,80.62 C23.97,81.6 24.5,82.12 25.39,82.12 C25.84,82.12 26.22,82 26.57,81.76 L26.22,81.13 Z M28.57,82.12 C28.84,82.12 29.1,82.05 29.3,81.94 L29.06,81.3 C28.96,81.34 28.85,81.36 28.72,81.36 C28.48,81.36 28.39,81.22 28.39,80.94 L28.39,74.5 L27.47,74.61 L27.47,80.96 C27.47,81.71 27.9,82.12 28.57,82.12 Z M34.43,79.21 C34.43,79.39 34.42,79.56 34.41,79.68 L31.05,79.68 C31.14,80.9 31.71,81.37 32.47,81.37 C32.99,81.37 33.38,81.23 33.84,80.91 L34.24,81.46 C33.72,81.87 33.13,82.12 32.4,82.12 C30.93,82.12 30.07,81.09 30.07,79.42 C30.07,77.78 30.9,76.61 32.26,76.61 C33.68,76.61 34.43,77.6 34.43,79.21 Z M33.52,79 L33.52,78.94 C33.52,77.91 33.11,77.34 32.28,77.34 C31.58,77.34 31.12,77.83 31.05,79 L33.52,79 Z"/>
    <path fill="#0C0C0D" d="M60.3964844 79.7441406C60.6542982 79.937501 60.9389633 80.1111646 61.2504883 80.2651367 61.5620133 80.4191088 61.880695 80.5480138 62.206543 80.6518555 62.532391 80.7556971 62.8600244 80.8344724 63.1894531 80.8881836 63.5188819 80.9418948 63.8339829 80.96875 64.1347656 80.96875 65.3020892 80.96875 66.1757783 80.7431663 66.7558594 80.2919922 67.3359404 79.8408181 67.6259766 79.1927126 67.6259766 78.3476562 67.6259766 77.9394511 67.5579434 77.5831721 67.421875 77.2788086 67.2858066 76.9744451 67.0745457 76.68978 66.7880859 76.4248047 66.5016262 76.1598294 66.1399761 75.8966484 65.703125 75.6352539 65.2662739 75.3738594 64.750654 75.0784522 64.15625 74.7490234 63.4973925 74.3909487 62.9334333 74.0525732 62.4643555 73.7338867 61.9952776 73.4152002 61.6121434 73.0893571 61.3149414 72.7563477 61.0177394 72.4233382 60.7993171 72.0634785 60.659668 71.6767578 60.5200188 71.2900371 60.4501953 70.8496118 60.4501953 70.3554688 60.4501953 69.7324188 60.582681 69.1738306 60.8476562 68.6796875 61.1126315 68.1855444 61.4707009 67.7648129 61.921875 67.4174805 62.3730491 67.070148 62.9012014 66.8033863 63.5063477 66.6171875 64.1114939 66.4309887 64.7578091 66.3378906 65.4453125 66.3378906 66.655605 66.3378906 67.6689412 66.5061832 68.4853516 66.8427734L68.4853516 68.421875C67.5758418 67.8990859 66.5087952 67.6376953 65.2841797 67.6376953 64.8258441 67.6376953 64.3943705 67.6931961 63.9897461 67.8041992 63.5851217 67.9152024 63.230633 68.0781239 62.9262695 68.2929688 62.621906 68.5078136 62.3819996 68.7745752 62.206543 69.0932617 62.0310864 69.4119482 61.9433594 69.78255 61.9433594 70.2050781 61.9433594 70.6061218 62.0024408 70.9516587 62.1206055 71.2416992 62.2387701 71.5317397 62.4285469 71.8056628 62.6899414 72.0634766 62.9513359 72.3212904 63.2950825 72.5773099 63.7211914 72.831543 64.1473003 73.085776 64.6682912 73.3776025 65.2841797 73.7070312 65.9287142 74.050783 66.490883 74.3855778 66.9707031 74.7114258 67.4505232 75.0372738 67.8497705 75.3774396 68.168457 75.7319336 68.4871435 76.0864276 68.7252596 76.4624004 68.8828125 76.8598633 69.0403654 77.2573262 69.1191406 77.6995418 69.1191406 78.1865234 69.1191406 78.8597039 68.9938164 79.4523086 68.7431641 79.9643555 68.4925118 80.4764023 68.1416038 80.9007145 67.6904297 81.2373047 67.2392556 81.5738949 66.7021516 81.8281241 66.0791016 82 65.4560516 82.1718759 64.7721391 82.2578125 64.0273438 82.2578125 63.7838529 82.2578125 63.4938168 82.2381187 63.1572266 82.1987305 62.8206363 82.1593423 62.4804705 82.1020512 62.1367188 82.0268555 61.792967 81.9516598 61.4653336 81.8621424 61.1538086 81.7583008 60.8422836 81.6544591 60.5898447 81.5416673 60.3964844 81.4199219L60.3964844 79.7441406zM72.7392578 76.7470703C72.7464193 77.4202508 72.8359366 78.0253879 73.0078125 78.5625 73.1796884 79.0996121 73.4267562 79.5543601 73.7490234 79.9267578 74.0712907 80.2991555 74.4633766 80.5838206 74.925293 80.7807617 75.3872093 80.9777028 75.9082002 81.0761719 76.4882812 81.0761719 77.7272197 81.0761719 78.8981065 80.642908 80.0009766 79.7763672L80.0009766 81.1298828C78.9482369 81.8818397 77.6735101 82.2578125 76.1767578 82.2578125 75.4391239 82.2578125 74.7695343 82.1289075 74.1679688 81.8710938 73.5664032 81.61328 73.0543641 81.2390975 72.6318359 80.7485352 72.2093078 80.2579728 71.8834647 79.654626 71.6542969 78.9384766 71.4251291 78.2223271 71.3105469 77.4059291 71.3105469 76.4892578 71.3105469 75.665686 71.4358711 74.9029983 71.6865234 74.2011719 71.9371757 73.4993454 72.284503 72.8924179 72.7285156 72.3803711 73.1725283 71.8683243 73.6988902 71.4672866 74.3076172 71.1772461 74.9163442 70.8872056 75.5823532 70.7421875 76.3056641 70.7421875 77.014652 70.7421875 77.6412733 70.8657214 78.1855469 71.112793 78.7298204 71.3598645 79.1863588 71.7125628 79.5551758 72.1708984 79.9239927 72.6292341 80.2050772 73.1878222 80.3984375 73.8466797 80.5917978 74.5055371 80.6884766 75.24316 80.6884766 76.0595703L80.6884766 76.7470703 72.7392578 76.7470703zM79.2705078 75.5439453C79.2490233 74.3981063 78.9768906 73.5100943 78.4541016 72.8798828 77.9313125 72.2496713 77.2044317 71.9345703 76.2734375 71.9345703 75.8079404 71.9345703 75.3764668 72.0169263 74.9790039 72.1816406 74.581541 72.346355 74.2324234 72.5844711 73.9316406 72.8959961 73.6308579 73.2075211 73.3819997 73.5870746 73.1850586 74.034668 72.9881175 74.4822614 72.8502608 74.9853488 72.7714844 75.5439453L79.2705078 75.5439453zM97.2099609 82L97.2099609 75.5332031C97.2099609 74.8743457 97.1598312 74.3175478 97.0595703 73.862793 96.9593094 73.4080381 96.8035492 73.0374363 96.5922852 72.7509766 96.3810211 72.4645168 96.1124691 72.2568366 95.7866211 72.1279297 95.4607731 71.9990228 95.0722679 71.9345703 94.6210938 71.9345703 94.2200501 71.9345703 93.8404966 72.0294587 93.4824219 72.2192383 93.1243472 72.4090179 92.8110365 72.6704085 92.5424805 73.003418 92.2739244 73.3364274 92.0626635 73.7285134 91.9086914 74.1796875 91.7547193 74.6308616 91.6777344 75.1178359 91.6777344 75.640625L91.6777344 82 90.3027344 82 90.3027344 75.3935547C90.3027344 73.0875536 89.4183031 71.9345703 87.6494141 71.9345703 87.2412089 71.9345703 86.8616554 72.025878 86.5107422 72.2084961 86.159829 72.3911142 85.8536797 72.6471338 85.5922852 72.9765625 85.3308906 73.3059912 85.1267911 73.7016578 84.9799805 74.1635742 84.8331698 74.6254906 84.7597656 75.1357394 84.7597656 75.6943359L84.7597656 82 83.3847656 82 83.3847656 71 84.7597656 71 84.7597656 72.7832031 84.8027344 72.7832031C85.5761757 71.4225192 86.7040942 70.7421875 88.1865234 70.7421875 88.5732441 70.7421875 88.9384748 70.8012689 89.2822266 70.9194336 89.6259783 71.0375982 89.9339179 71.2023101 90.2060547 71.4135742 90.4781915 71.6248383 90.7127269 71.8772772 90.909668 72.1708984 91.1066091 72.4645197 91.2552078 72.7867821 91.3554688 73.1376953 91.7421894 72.3570925 92.2452769 71.7626974 92.8647461 71.3544922 93.4842153 70.946287 94.1842409 70.7421875 94.9648438 70.7421875 97.3782673 70.7421875 98.5849609 72.2317559 98.5849609 75.2109375L98.5849609 82 97.2099609 82zM102.570312 68.2177734C102.305337 68.2177734 102.076173 68.1246754 101.882812 67.9384766 101.689452 67.7522777 101.592773 67.515952 101.592773 67.2294922 101.592773 66.9501939 101.689452 66.7192392 101.882812 66.5366211 102.076173 66.354003 102.305337 66.2626953 102.570312 66.2626953 102.706381 66.2626953 102.835286 66.2859698 102.957031 66.3325195 103.078777 66.3790692 103.184407 66.4453121 103.273926 66.53125 103.363444 66.6171879 103.435058 66.7192377 103.48877 66.8374023 103.542481 66.955567 103.569336 67.0862623 103.569336 67.2294922 103.569336 67.3655606 103.544271 67.4944655 103.494141 67.6162109 103.44401 67.7379563 103.372396 67.8435868 103.279297 67.9331055 103.186197 68.0226241 103.080567 68.0924477 102.962402 68.1425781 102.844238 68.1927086 102.713542 68.2177734 102.570312 68.2177734zM101.893555 82L101.893555 71 103.268555 71 103.268555 82 101.893555 82zM107.039062 82L107.039062 66.5957031 108.467773 66.5957031 108.467773 80.7001953 114.655273 80.7001953 114.655273 82 107.039062 82zM117.706055 68.2177734C117.441079 68.2177734 117.211915 68.1246754 117.018555 67.9384766 116.825194 67.7522777 116.728516 67.515952 116.728516 67.2294922 116.728516 66.9501939 116.825194 66.7192392 117.018555 66.5366211 117.211915 66.354003 117.441079 66.2626953 117.706055 66.2626953 117.842123 66.2626953 117.971028 66.2859698 118.092773 66.3325195 118.214519 66.3790692 118.320149 66.4453121 118.409668 66.53125 118.499187 66.6171879 118.570801 66.7192377 118.624512 66.8374023 118.678223 66.955567 118.705078 67.0862623 118.705078 67.2294922 118.705078 67.3655606 118.680013 67.4944655 118.629883 67.6162109 118.579752 67.7379563 118.508138 67.8435868 118.415039 67.9331055 118.32194 68.0226241 118.216309 68.0924477 118.098145 68.1425781 117.97998 68.1927086 117.849285 68.2177734 117.706055 68.2177734zM117.029297 82L117.029297 71 118.404297 71 118.404297 82 117.029297 82zM131.037109 81.1513672C131.037109 83.192393 130.57341 84.705236 129.645996 85.6899414 128.718583 86.6746469 127.288096 87.1669922 125.354492 87.1669922 124.151361 87.1669922 123.012701 86.8984402 121.938477 86.3613281L121.938477 84.9648438C123.134446 85.6308627 124.273107 85.9638672 125.354492 85.9638672 128.226251 85.9638672 129.662109 84.4456532 129.662109 81.4091797L129.662109 80.0878906 129.619141 80.0878906C128.774084 81.5345124 127.485035 82.2578125 125.751953 82.2578125 125.071611 82.2578125 124.450361 82.1324882 123.888184 81.8818359 123.326006 81.6311836 122.844403 81.2695336 122.443359 80.796875 122.042316 80.3242164 121.730795 79.7495151 121.508789 79.0727539 121.286783 78.3959927 121.175781 77.6315147 121.175781 76.7792969 121.175781 75.8769486 121.293944 75.0551795 121.530273 74.3139648 121.766603 73.5727502 122.103188 72.9371771 122.540039 72.4072266 122.97689 71.877276 123.505042 71.4672866 124.124512 71.1772461 124.743981 70.8872056 125.440426 70.7421875 126.213867 70.7421875 127.767911 70.7421875 128.902991 71.3723895 129.619141 72.6328125L129.662109 72.6328125 129.662109 71 131.037109 71 131.037109 81.1513672zM129.662109 75.3183594C129.662109 74.8600238 129.579753 74.4267599 129.415039 74.0185547 129.250325 73.6103495 129.02116 73.2522802 128.727539 72.9443359 128.433918 72.6363917 128.0848 72.3911142 127.680176 72.2084961 127.275551 72.025878 126.829755 71.9345703 126.342773 71.9345703 125.769854 71.9345703 125.252444 72.0455718 124.790527 72.2675781 124.328611 72.4895844 123.934735 72.8046855 123.608887 73.2128906 123.283039 73.6210958 123.03239 74.1170218 122.856934 74.7006836 122.681477 75.2843454 122.59375 75.9414026 122.59375 76.671875 122.59375 77.3450554 122.676106 77.9537733 122.84082 78.4980469 123.005535 79.0423204 123.23828 79.5042299 123.539062 79.8837891 123.839845 80.2633483 124.203286 80.5569651 124.629395 80.7646484 125.055503 80.9723318 125.529945 81.0761719 126.052734 81.0761719 126.597008 81.0761719 127.091144 80.9777028 127.535156 80.7807617 127.979169 80.5838206 128.358722 80.3116879 128.673828 79.9643555 128.988934 79.617023 129.232421 79.208824 129.404297 78.7397461 129.576173 78.2706682 129.662109 77.7640001 129.662109 77.2197266L129.662109 75.3183594zM142.004883 82L142.004883 75.5332031C142.004883 74.3014261 141.78288 73.3937204 141.338867 72.8100586 140.894855 72.2263968 140.203781 71.9345703 139.265625 71.9345703 138.821612 71.9345703 138.399091 72.0240876 137.998047 72.203125 137.597003 72.3821624 137.246095 72.6399723 136.945312 72.9765625 136.64453 73.3131527 136.404623 73.7231421 136.225586 74.206543 136.046549 74.6899438 135.957031 75.2359996 135.957031 75.8447266L135.957031 82 134.582031 82 134.582031 65.7148438 135.957031 65.7148438 135.957031 72.9013672 136 72.9013672C136.859379 71.4619069 138.091138 70.7421875 139.695312 70.7421875 140.919928 70.7421875 141.840166 71.1181603 142.456055 71.8701172 143.071943 72.6220741 143.379883 73.732089 143.379883 75.2001953L143.379883 82 142.004883 82zM151.415039 81.8710938C150.94238 82.1074231 150.426761 82.2255859 149.868164 82.2255859 148.092114 82.2255859 147.204102 81.2015076 147.204102 79.1533203L147.204102 72.203125 145.270508 72.203125 145.270508 71 147.204102 71 147.204102 68.2285156 148.579102 67.7773438 148.579102 71 151.415039 71 151.415039 72.203125 148.579102 72.203125 148.579102 78.9384766C148.579102 79.683272 148.700845 80.220376 148.944336 80.5498047 149.187827 80.8792334 149.599606 81.0439453 150.179688 81.0439453 150.609377 81.0439453 151.021157 80.9150404 151.415039 80.6572266L151.415039 81.8710938zM166.432617 70.5488281C166.432617 70.0618465 166.359213 69.630373 166.212402 69.2543945 166.065592 68.8784161 165.859702 68.5633151 165.594727 68.309082 165.329751 68.054849 165.01107 67.8632819 164.638672 67.734375 164.266274 67.6054681 163.854494 67.5410156 163.40332 67.5410156 162.715817 67.5410156 162.055179 67.7039372 161.421387 68.0297852 160.787594 68.3556331 160.191409 68.7906874 159.632812 69.3349609L159.632812 67.8095703C160.177086 67.3440732 160.771481 66.9824232 161.416016 66.7246094 162.06055 66.4667956 162.787431 66.3378906 163.59668 66.3378906 163.725587 66.3378906 163.849121 66.345052 163.967285 66.359375 164.08545 66.373698 164.201822 66.3951821 164.316406 66.4238281 164.846357 66.4811201 165.32796 66.6153961 165.76123 66.8266602 166.194501 67.0379242 166.565103 67.3118473 166.873047 67.6484375 167.180991 67.9850277 167.419107 68.384275 167.587402 68.8461914 167.755697 69.3081078 167.839844 69.8219373 167.839844 70.3876953 167.839844 71.0465528 167.753907 71.6373672 167.582031 72.1601562 167.410155 72.6829453 167.164878 73.1645486 166.846191 73.6049805 166.527505 74.0454124 166.144371 74.4607728 165.696777 74.8510742 165.249184 75.2413756 164.749677 75.6334616 164.198242 76.0273438 163.582354 76.4713564 163.054201 76.8634423 162.61377 77.2036133 162.173338 77.5437843 161.808107 77.867837 161.518066 78.1757812 161.228026 78.4837255 161.007813 78.7916651 160.857422 79.0996094 160.70703 79.4075536 160.610352 79.7513002 160.567383 80.1308594 160.531575 80.2311203 160.508301 80.3313797 160.497559 80.4316406 160.486816 80.5319015 160.481445 80.642903 160.481445 80.7646484L168.151367 80.7646484 168.151367 82 159.03125 82 159.03125 81.2587891C159.03125 80.5712856 159.111816 79.9751002 159.272949 79.4702148 159.434083 78.9653295 159.686522 78.492678 160.030273 78.0522461 160.374025 77.6118142 160.81445 77.1731793 161.351562 76.7363281 161.888675 76.299477 162.533199 75.808922 163.285156 75.2646484 163.793622 74.8922507 164.24479 74.5323911 164.638672 74.1850586 165.032554 73.8377261 165.361978 73.4796568 165.626953 73.1108398 165.891928 72.7420229 166.092447 72.349937 166.228516 71.9345703 166.364584 71.5192037 166.432617 71.0572942 166.432617 70.5488281zM178.023438 70.5488281C178.023438 70.0618465 177.950033 69.630373 177.803223 69.2543945 177.656412 68.8784161 177.450522 68.5633151 177.185547 68.309082 176.920572 68.054849 176.60189 67.8632819 176.229492 67.734375 175.857094 67.6054681 175.445315 67.5410156 174.994141 67.5410156 174.306637 67.5410156 173.645999 67.7039372 173.012207 68.0297852 172.378415 68.3556331 171.782229 68.7906874 171.223633 69.3349609L171.223633 67.8095703C171.767906 67.3440732 172.362301 66.9824232 173.006836 66.7246094 173.65137 66.4667956 174.378251 66.3378906 175.1875 66.3378906 175.316407 66.3378906 175.439941 66.345052 175.558105 66.359375 175.67627 66.373698 175.792643 66.3951821 175.907227 66.4238281 176.437177 66.4811201 176.91878 66.6153961 177.352051 66.8266602 177.785321 67.0379242 178.155923 67.3118473 178.463867 67.6484375 178.771811 67.9850277 179.009928 68.384275 179.178223 68.8461914 179.346518 69.3081078 179.430664 69.8219373 179.430664 70.3876953 179.430664 71.0465528 179.344727 71.6373672 179.172852 72.1601562 179.000976 72.6829453 178.755698 73.1645486 178.437012 73.6049805 178.118325 74.0454124 177.735191 74.4607728 177.287598 74.8510742 176.840004 75.2413756 176.340498 75.6334616 175.789062 76.0273438 175.173174 76.4713564 174.645022 76.8634423 174.20459 77.2036133 173.764158 77.5437843 173.398927 77.867837 173.108887 78.1757812 172.818846 78.4837255 172.598634 78.7916651 172.448242 79.0996094 172.297851 79.4075536 172.201172 79.7513002 172.158203 80.1308594 172.122396 80.2311203 172.099121 80.3313797 172.088379 80.4316406 172.077637 80.5319015 172.072266 80.642903 172.072266 80.7646484L179.742188 80.7646484 179.742188 82 170.62207 82 170.62207 81.2587891C170.62207 80.5712856 170.702636 79.9751002 170.86377 79.4702148 171.024903 78.9653295 171.277342 78.492678 171.621094 78.0522461 171.964845 77.6118142 172.405271 77.1731793 172.942383 76.7363281 173.479495 76.299477 174.12402 75.808922 174.875977 75.2646484 175.384443 74.8922507 175.83561 74.5323911 176.229492 74.1850586 176.623374 73.8377261 176.952798 73.4796568 177.217773 73.1108398 177.482749 72.7420229 177.683268 72.349937 177.819336 71.9345703 177.955404 71.5192037 178.023438 71.0572942 178.023438 70.5488281zM184.264648 80.2275391L184.264648 87.0595703 182.889648 87.0595703 182.889648 71 184.264648 71 184.264648 73.1054688 184.307617 73.1054688C184.715822 72.3391889 185.261878 71.7537455 185.945801 71.3491211 186.629723 70.9444967 187.401363 70.7421875 188.260742 70.7421875 188.962569 70.7421875 189.59098 70.8693021 190.145996 71.1235352 190.701012 71.3777682 191.170083 71.7376279 191.553223 72.203125 191.936363 72.6686221 192.229979 73.2343717 192.434082 73.9003906 192.638185 74.5664096 192.740234 75.3147745 192.740234 76.1455078 192.740234 77.0550176 192.625652 77.8839481 192.396484 78.6323242 192.167317 79.3807004 191.837893 80.0234348 191.408203 80.5605469 190.978513 81.0976589 190.457523 81.5148097 189.845215 81.8120117 189.232907 82.1092137 188.543624 82.2578125 187.777344 82.2578125 186.230461 82.2578125 185.073897 81.5810615 184.307617 80.2275391L184.264648 80.2275391zM184.264648 77.4238281C184.264648 77.9251327 184.348795 78.3959939 184.51709 78.8364258 184.685385 79.2768577 184.91992 79.6635726 185.220703 79.996582 185.521486 80.3295915 185.884926 80.5927725 186.311035 80.7861328 186.737144 80.9794932 187.208005 81.0761719 187.723633 81.0761719 188.275068 81.0761719 188.772784 80.9597993 189.216797 80.7270508 189.66081 80.4943022 190.038573 80.1630881 190.350098 79.7333984 190.661623 79.3037088 190.901529 78.7845083 191.069824 78.1757812 191.238119 77.5670542 191.322266 76.8867225 191.322266 76.1347656 191.322266 75.4902312 191.24349 74.9083685 191.085938 74.3891602 190.928385 73.8699518 190.704591 73.4277362 190.414551 73.0625 190.12451 72.6972638 189.773602 72.4179697 189.361816 72.2246094 188.95003 72.031249 188.489911 71.9345703 187.981445 71.9345703 187.408526 71.9345703 186.892906 72.0402008 186.43457 72.2514648 185.976235 72.4627289 185.585939 72.7509747 185.263672 73.1162109 184.941405 73.4814471 184.694337 73.90934 184.522461 74.3999023 184.350585 74.8904647 184.264648 75.4114556 184.264648 75.9628906L184.264648 77.4238281zM199.121094 76.5859375L202.730469 82 201.076172 82 198.841797 78.3583984C198.755859 78.22233 198.668132 78.082683 198.578613 77.9394531 198.489095 77.7962232 198.397787 77.6422534 198.304688 77.4775391L198.261719 77.4775391C198.225911 77.549154 198.170411 77.6440424 198.095215 77.762207 198.020019 77.8803717 197.928711 78.0289705 197.821289 78.2080078L195.415039 82 193.792969 82 197.509766 76.6181641 193.911133 71 195.511719 71 197.799805 74.8564453C197.914389 75.0498057 198.014648 75.2234693 198.100586 75.3774414 198.186524 75.5314135 198.258138 75.6585281 198.31543 75.7587891L198.358398 75.7587891C198.451498 75.6227207 198.537435 75.484864 198.616211 75.3452148 198.694987 75.2055657 198.777343 75.0641283 198.863281 74.9208984L201.291016 71 202.837891 71 199.121094 76.5859375zM67.53125 221L66.2236328 221 61.5390625 213.744629C61.4205723 213.562662 61.3232426 213.372234 61.2470703 213.17334L61.2089844 213.17334C61.2428387 213.368002 61.2597656 213.784828 61.2597656 214.423828L61.2597656 221 60.1933594 221 60.1933594 211.897461 61.5771484 211.897461 66.1347656 219.038574C66.3251963 219.3348 66.4479164 219.537923 66.5029297 219.647949L66.5283203 219.647949C66.4860024 219.385578 66.4648438 218.939131 66.4648438 218.308594L66.4648438 211.897461 67.53125 211.897461 67.53125 221zM72.4951172 221.152344C71.5345004 221.152344 70.7674996 220.848717 70.1940918 220.241455 69.620684 219.634193 69.3339844 218.829107 69.3339844 217.826172 69.3339844 216.73437 69.6323212 215.881676 70.2290039 215.268066 70.8256866 214.654457 71.6318309 214.347656 72.6474609 214.347656 73.6165413 214.347656 74.3729628 214.645993 74.916748 215.242676 75.4605333 215.839358 75.7324219 216.666661 75.7324219 217.724609 75.7324219 218.761398 75.4393747 219.591875 74.8532715 220.216064 74.2671683 220.840254 73.4811247 221.152344 72.4951172 221.152344zM72.5712891 215.223633C71.9026659 215.223633 71.3736999 215.451088 70.984375 215.906006 70.5950501 216.360923 70.4003906 216.988277 70.4003906 217.788086 70.4003906 218.558272 70.597166 219.165525 70.9907227 219.609863 71.3842793 220.054201 71.9111295 220.276367 72.5712891 220.276367 73.244144 220.276367 73.7614728 220.058433 74.123291 219.622559 74.4851092 219.186684 74.6660156 218.566736 74.6660156 217.762695 74.6660156 216.950191 74.4851092 216.323895 74.123291 215.883789 73.7614728 215.443683 73.244144 215.223633 72.5712891 215.223633zM80.7851562 215.553711C80.6031892 215.414062 80.340822 215.344238 79.9980469 215.344238 79.5537087 215.344238 79.1823745 215.553709 78.8840332 215.972656 78.5856919 216.391604 78.4365234 216.962887 78.4365234 217.686523L78.4365234 221 77.3955078 221 77.3955078 214.5 78.4365234 214.5 78.4365234 215.839355 78.4619141 215.839355C78.6100268 215.382322 78.8364243 215.025799 79.1411133 214.769775 79.4458023 214.513752 79.7864565 214.385742 80.1630859 214.385742 80.4339206 214.385742 80.6412753 214.415364 80.7851562 214.474609L80.7851562 215.553711zM91.1445312 221L90.1035156 221 90.1035156 217.267578C90.1035156 216.548173 89.9924328 216.027671 89.7702637 215.706055 89.5480946 215.384438 89.1746446 215.223633 88.6499023 215.223633 88.2055642 215.223633 87.8278824 215.426756 87.5168457 215.833008 87.205809 216.23926 87.050293 216.725909 87.050293 217.292969L87.050293 221 86.0092773 221 86.0092773 217.140625C86.0092773 215.862624 85.516281 215.223633 84.5302734 215.223633 84.0732399 215.223633 83.6966161 215.415119 83.4003906 215.798096 83.1041652 216.181073 82.9560547 216.679359 82.9560547 217.292969L82.9560547 221 81.9150391 221 81.9150391 214.5 82.9560547 214.5 82.9560547 215.52832 82.9814453 215.52832C83.4427106 214.741207 84.1155555 214.347656 85 214.347656 85.4443382 214.347656 85.8315413 214.471434 86.1616211 214.718994 86.4917009 214.966554 86.7180983 215.291339 86.8408203 215.693359 87.3232446 214.796219 88.0426384 214.347656 88.9990234 214.347656 90.4293691 214.347656 91.1445312 215.229972 91.1445312 216.994629L91.1445312 221zM97.7651367 221L96.7241211 221 96.7241211 219.984375 96.6987305 219.984375C96.2459287 220.763025 95.5794315 221.152344 94.6992188 221.152344 94.0517546 221.152344 93.5450051 220.980959 93.1789551 220.638184 92.8129051 220.295408 92.6298828 219.840498 92.6298828 219.273438 92.6298828 218.058913 93.3450449 217.352215 94.7753906 217.15332L96.7241211 216.880371C96.7241211 215.775873 96.2776737 215.223633 95.3847656 215.223633 94.6018841 215.223633 93.8951854 215.490232 93.2646484 216.023438L93.2646484 214.957031C93.903649 214.550779 94.6399698 214.347656 95.4736328 214.347656 97.0013097 214.347656 97.7651367 215.155916 97.7651367 216.772461L97.7651367 221zM96.7241211 217.711914L95.15625 217.927734C94.6738257 217.995443 94.3098971 218.114989 94.0644531 218.286377 93.8190092 218.457765 93.6962891 218.761391 93.6962891 219.197266 93.6962891 219.51465 93.8094878 219.773843 94.0358887 219.974854 94.2622895 220.175864 94.5638002 220.276367 94.9404297 220.276367 95.4567083 220.276367 95.883055 220.095461 96.2194824 219.733643 96.5559099 219.371824 96.7241211 218.91374 96.7241211 218.359375L96.7241211 217.711914zM100.767578 221L99.7265625 221 99.7265625 211.376953 100.767578 211.376953 100.767578 221zM109.978027 221L108.937012 221 108.937012 213.135254C108.856608 213.215658 108.739177 213.307698 108.584717 213.411377 108.430256 213.515056 108.256756 213.617675 108.064209 213.719238 107.871662 213.820801 107.668539 213.916015 107.454834 214.004883 107.241128 214.09375 107.032716 214.163574 106.82959 214.214355L106.82959 213.160645C107.058107 213.097168 107.300373 213.011475 107.556396 212.903564 107.81242 212.795654 108.064208 212.675049 108.311768 212.541748 108.559327 212.408447 108.79313 212.2688 109.013184 212.122803 109.233237 211.976806 109.423665 211.833985 109.584473 211.694336L109.978027 211.694336 109.978027 221zM118.439453 218.422852C118.439453 218.833335 118.362224 219.206785 118.207764 219.543213 118.053303 219.87964 117.835369 220.167398 117.553955 220.406494 117.272541 220.64559 116.935061 220.830729 116.541504 220.961914 116.147947 221.0931 115.714195 221.158691 115.240234 221.158691 114.372717 221.158691 113.682945 220.993654 113.170898 220.663574L113.170898 219.546387C113.784508 220.028811 114.486975 220.27002 115.27832 220.27002 115.595705 220.27002 115.882404 220.229818 116.138428 220.149414 116.394451 220.06901 116.614501 219.952637 116.798584 219.800293 116.982667 219.647948 117.12443 219.463868 117.223877 219.248047 117.323324 219.032225 117.373047 218.788901 117.373047 218.518066 117.373047 217.328933 116.526701 216.734375 114.833984 216.734375L114.078613 216.734375 114.078613 215.852051 114.795898 215.852051C116.293953 215.852051 117.042969 215.293463 117.042969 214.17627 117.042969 213.143712 116.471685 212.627441 115.329102 212.627441 114.685869 212.627441 114.082848 212.84326 113.52002 213.274902L113.52002 212.265625C114.099775 211.918618 114.789547 211.745117 115.589355 211.745117 115.970217 211.745117 116.315103 211.798014 116.624023 211.903809 116.932944 212.009603 117.197427 212.157714 117.41748 212.348145 117.637534 212.538575 117.807861 212.767089 117.928467 213.033691 118.049073 213.300294 118.109375 213.594399 118.109375 213.916016 118.109375 215.113613 117.504238 215.883787 116.293945 216.226562L116.293945 216.251953C116.602866 216.285807 116.888508 216.360921 117.150879 216.477295 117.41325 216.593669 117.639647 216.744953 117.830078 216.931152 118.020509 217.117351 118.169677 217.336343 118.277588 217.588135 118.385499 217.839926 118.439453 218.118163 118.439453 218.422852zM121.518066 220.060547L121.492676 220.060547 121.492676 223.989746 120.45166 223.989746 120.45166 214.5 121.492676 214.5 121.492676 215.642578 121.518066 215.642578C122.030113 214.779293 122.779129 214.347656 123.765137 214.347656 124.603032 214.347656 125.256834 214.638588 125.726562 215.220459 126.196291 215.80233 126.431152 216.582026 126.431152 217.55957 126.431152 218.647141 126.166669 219.517819 125.637695 220.171631 125.108721 220.825443 124.385096 221.152344 123.466797 221.152344 122.62467 221.152344 121.9751 220.788415 121.518066 220.060547zM121.492676 217.438965L121.492676 218.34668C121.492676 218.884117 121.667235 219.340086 122.016357 219.7146 122.36548 220.089113 122.808754 220.276367 123.346191 220.276367 123.976728 220.276367 124.470783 220.035159 124.828369 219.552734 125.185956 219.07031 125.364746 218.399581 125.364746 217.540527 125.364746 216.816891 125.197593 216.249839 124.863281 215.839355 124.52897 215.428872 124.076175 215.223633 123.504883 215.223633 122.899737 215.223633 122.413088 215.434161 122.044922 215.855225 121.676756 216.276288 121.492676 216.804196 121.492676 217.438965zM132.842285 214.5L130.658691 217.788086 132.804199 221 131.591797 221 130.315918 218.892578C130.235514 218.761393 130.1403 218.596355 130.030273 218.397461L130.004883 218.397461C129.983724 218.435547 129.884278 218.600584 129.706543 218.892578L128.405273 221 127.205566 221 129.420898 217.813477 127.300781 214.5 128.513184 214.5 129.77002 216.72168C129.863119 216.88672 129.954101 217.055989 130.042969 217.229492L130.068359 217.229492 131.693359 214.5 132.842285 214.5z"/>
    <path fill="#737373" d="M3.3 260.99C1.74 260.99.44 262.22.44 264.55.44 266.87 1.65 268.12 3.32 268.12 4.25 268.12 4.92 267.74 5.29 267.35L4.81 266.74C4.42 267.03 4 267.32 3.35 267.32 2.28 267.32 1.45 266.54 1.45 264.55 1.45 262.47 2.32 261.77 3.36 261.77 3.84 261.77 4.26 261.93 4.69 262.28L5.21 261.67C4.66 261.23 4.17 260.99 3.3 260.99zM9.99 266.77C9.99 267.23 10.16 267.38 10.43 267.48L10.22 268.12C9.69 268.06 9.35 267.85 9.19 267.33 8.82 267.88 8.26 268.12 7.62 268.12 6.57 268.12 5.94 267.47 5.94 266.53 5.94 265.4 6.79 264.79 8.26 264.79L9.07 264.79 9.07 264.4C9.07 263.64 8.7 263.36 7.97 263.36 7.58 263.36 7.09 263.46 6.55 263.64L6.32 262.97C6.97 262.73 7.55 262.61 8.14 262.61 9.41 262.61 9.99 263.26 9.99 264.36L9.99 266.77zM7.83 267.43C8.37 267.43 8.77 267.16 9.07 266.61L9.07 265.4 8.38 265.4C7.41 265.4 6.92 265.76 6.92 266.48 6.92 267.1 7.23 267.43 7.83 267.43zM14.3 262.61C15.7 262.61 16.25 263.7 16.25 265.36 16.25 266.96 15.54 268.12 14.18 268.12 13.61 268.12 13.14 267.93 12.8 267.52L12.8 270.02 11.88 270.13 11.88 262.73 12.67 262.73 12.74 263.44C13.13 262.9 13.7 262.61 14.3 262.61zM13.96 267.37C14.8 267.37 15.26 266.74 15.26 265.36 15.26 263.99 14.86 263.34 14.07 263.34 13.51 263.34 13.08 263.74 12.8 264.16L12.8 266.73C13.07 267.14 13.48 267.37 13.96 267.37zM20.13 267.13C19.87 267.29 19.66 267.36 19.43 267.36 18.97 267.36 18.8 267.11 18.8 266.58L18.8 263.44 19.95 263.44 20.05 262.73 18.8 262.73 18.8 261.43 17.88 261.54 17.88 262.73 16.96 262.73 16.96 263.44 17.88 263.44 17.88 266.62C17.88 267.6 18.41 268.12 19.3 268.12 19.75 268.12 20.13 268 20.48 267.76L20.13 267.13zM21.88 260.2C21.5 260.2 21.24 260.47 21.24 260.83 21.24 261.18 21.5 261.45 21.88 261.45 22.27 261.45 22.53 261.18 22.53 260.83 22.53 260.47 22.27 260.2 21.88 260.2zM22.35 262.73L21.43 262.73 21.43 268 22.35 268 22.35 262.73zM26.23 262.61C27.73 262.61 28.57 263.69 28.57 265.36 28.57 266.99 27.71 268.12 26.22 268.12 24.72 268.12 23.87 267.04 23.87 265.37 23.87 263.74 24.73 262.61 26.23 262.61zM26.23 263.35C25.35 263.35 24.86 263.99 24.86 265.37 24.86 266.74 25.34 267.38 26.22 267.38 27.1 267.38 27.58 266.74 27.58 265.36 27.58 263.99 27.1 263.35 26.23 263.35zM32.57 262.61C31.88 262.61 31.32 262.97 30.96 263.51L30.88 262.73 30.09 262.73 30.09 268 31.01 268 31.01 264.26C31.36 263.7 31.76 263.33 32.35 263.33 32.86 263.33 33.18 263.56 33.18 264.35L33.18 268 34.1 268 34.1 264.22C34.1 263.22 33.54 262.61 32.57 262.61zM66.21875 268L65.1123047 268 61.1484375 261.86084C61.0481766 261.706868 60.9658206 261.545737 60.9013672 261.377441L60.8691406 261.377441C60.8977866 261.542156 60.9121094 261.894854 60.9121094 262.435547L60.9121094 268 60.0097656 268 60.0097656 260.297852 61.1806641 260.297852 65.0371094 266.340332C65.198243 266.590984 65.3020831 266.762858 65.3486328 266.855957L65.3701172 266.855957C65.3343097 266.633951 65.3164062 266.256188 65.3164062 265.722656L65.3164062 260.297852 66.21875 260.297852 66.21875 268zM70.4189453 268.128906C69.6061157 268.128906 68.9571151 267.871992 68.4719238 267.358154 67.9867326 266.844317 67.7441406 266.16309 67.7441406 265.314453 67.7441406 264.39062 67.9965795 263.669111 68.5014648 263.149902 69.0063502 262.630694 69.6884723 262.371094 70.5478516 262.371094 71.3678426 262.371094 72.0078916 262.623533 72.4680176 263.128418 72.9281436 263.633303 73.1582031 264.333329 73.1582031 265.228516 73.1582031 266.105799 72.9102401 266.80851 72.4143066 267.33667 71.9183732 267.86483 71.2532594 268.128906 70.4189453 268.128906zM70.4833984 263.112305C69.9176404 263.112305 69.4700537 263.304767 69.140625 263.689697 68.8111963 264.074628 68.6464844 264.605465 68.6464844 265.282227 68.6464844 265.933923 68.8129866 266.447752 69.1459961 266.82373 69.4790056 267.199709 69.9248019 267.387695 70.4833984 267.387695 71.0527372 267.387695 71.490477 267.20329 71.7966309 266.834473 72.1027847 266.465656 72.2558594 265.941084 72.2558594 265.260742 72.2558594 264.573239 72.1027847 264.043296 71.7966309 263.670898 71.490477 263.298501 71.0527372 263.112305 70.4833984 263.112305zM77.4335938 263.391602C77.2796216 263.273437 77.0576186 263.214355 76.7675781 263.214355 76.3915997 263.214355 76.0773938 263.3916 75.8249512 263.746094 75.5725085 264.100588 75.4462891 264.583981 75.4462891 265.196289L75.4462891 268 74.5654297 268 74.5654297 262.5 75.4462891 262.5 75.4462891 263.633301 75.4677734 263.633301C75.5930996 263.24658 75.7846667 262.944907 76.0424805 262.728271 76.3002943 262.511636 76.5885401 262.40332 76.9072266 262.40332 77.1363944 262.40332 77.3118483 262.428385 77.4335938 262.478516L77.4335938 263.391602zM86.1992188 268L85.3183594 268 85.3183594 264.841797C85.3183594 264.23307 85.2243662 263.792645 85.036377 263.520508 84.8483877 263.248371 84.5323915 263.112305 84.0883789 263.112305 83.7124005 263.112305 83.3928236 263.284178 83.1296387 263.62793 82.8664538 263.971681 82.7348633 264.383461 82.7348633 264.863281L82.7348633 268 81.8540039 268 81.8540039 264.734375C81.8540039 263.652989 81.4368531 263.112305 80.6025391 263.112305 80.2158184 263.112305 79.8971367 263.274331 79.6464844 263.598389 79.3958321 263.922446 79.2705078 264.344073 79.2705078 264.863281L79.2705078 268 78.3896484 268 78.3896484 262.5 79.2705078 262.5 79.2705078 263.370117 79.2919922 263.370117C79.6822936 262.704098 80.2516239 262.371094 81 262.371094 81.3759784 262.371094 81.7036119 262.475829 81.9829102 262.685303 82.2622084 262.894776 82.4537755 263.169595 82.5576172 263.509766 82.9658224 262.750647 83.5745402 262.371094 84.3837891 262.371094 85.5940816 262.371094 86.1992188 263.117668 86.1992188 264.61084L86.1992188 268zM91.8012695 268L90.9204102 268 90.9204102 267.140625 90.8989258 267.140625C90.5157858 267.799482 89.9518266 268.128906 89.2070312 268.128906 88.6591769 268.128906 88.2303889 267.983888 87.9206543 267.693848 87.6109197 267.403807 87.4560547 267.018883 87.4560547 266.539062 87.4560547 265.511388 88.0611919 264.913412 89.2714844 264.745117L90.9204102 264.51416C90.9204102 263.579585 90.542647 263.112305 89.7871094 263.112305 89.1246712 263.112305 88.5266954 263.337888 87.9931641 263.789062L87.9931641 262.886719C88.5338569 262.542967 89.1568975 262.371094 89.8623047 262.371094 91.1549544 262.371094 91.8012695 263.055006 91.8012695 264.422852L91.8012695 268zM90.9204102 265.217773L89.59375 265.400391C89.1855448 265.457683 88.8776052 265.558837 88.6699219 265.703857 88.4622385 265.848878 88.3583984 266.105792 88.3583984 266.474609 88.3583984 266.743165 88.454182 266.962483 88.645752 267.132568 88.8373219 267.302654 89.0924463 267.387695 89.4111328 267.387695 89.847984 267.387695 90.2087388 267.234621 90.4934082 266.928467 90.7780776 266.622313 90.9204102 266.234703 90.9204102 265.765625L90.9204102 265.217773zM94.3417969 268L93.4609375 268 93.4609375 259.857422 94.3417969 259.857422 94.3417969 268zM102.135254 268L101.254395 268 101.254395 261.345215C101.18636 261.413249 101.086996 261.491129 100.956299 261.578857 100.825602 261.666586 100.678793 261.753418 100.515869 261.839355 100.352945 261.925293 100.181072 262.005859 100.000244 262.081055 99.8194164 262.15625 99.6430673 262.215332 99.4711914 262.258301L99.4711914 261.366699C99.6645517 261.312988 99.8695464 261.240479 100.086182 261.14917 100.302817 261.057861 100.515868 260.955811 100.725342 260.843018 100.934816 260.730224 101.132649 260.612061 101.318848 260.488525 101.505047 260.36499 101.666178 260.244141 101.802246 260.125977L102.135254 260.125977 102.135254 268zM108.064941 268L107.184082 268 107.184082 261.345215C107.116048 261.413249 107.016684 261.491129 106.885986 261.578857 106.755289 261.666586 106.608481 261.753418 106.445557 261.839355 106.282633 261.925293 106.110759 262.005859 105.929932 262.081055 105.749104 262.15625 105.572755 262.215332 105.400879 262.258301L105.400879 261.366699C105.594239 261.312988 105.799234 261.240479 106.015869 261.14917 106.232504 261.057861 106.445556 260.955811 106.655029 260.843018 106.864503 260.730224 107.062336 260.612061 107.248535 260.488525 107.434734 260.36499 107.595865 260.244141 107.731934 260.125977L108.064941 260.125977 108.064941 268zM111.899902 267.205078L111.878418 267.205078 111.878418 270.529785 110.997559 270.529785 110.997559 262.5 111.878418 262.5 111.878418 263.466797 111.899902 263.466797C112.333173 262.736324 112.966955 262.371094 113.80127 262.371094 114.510257 262.371094 115.063475 262.617266 115.460938 263.109619 115.8584 263.601972 116.057129 264.261715 116.057129 265.088867 116.057129 266.009119 115.833336 266.745847 115.385742 267.299072 114.938149 267.852298 114.32585 268.128906 113.548828 268.128906 112.836259 268.128906 112.286623 267.820967 111.899902 267.205078zM111.878418 264.986816L111.878418 265.754883C111.878418 266.209638 112.026122 266.595457 112.321533 266.912354 112.616945 267.22925 112.992022 267.387695 113.446777 267.387695 113.980309 267.387695 114.398355 267.183596 114.700928 266.775391 115.003501 266.367185 115.154785 265.799646 115.154785 265.072754 115.154785 264.460446 115.013348 263.980633 114.730469 263.633301 114.44759 263.285968 114.064456 263.112305 113.581055 263.112305 113.069008 263.112305 112.657228 263.290444 112.345703 263.646729 112.034178 264.003013 111.878418 264.449704 111.878418 264.986816zM121.481934 262.5L119.634277 265.282227 121.449707 268 120.423828 268 119.344238 266.216797C119.276204 266.105794 119.195638 265.966147 119.102539 265.797852L119.081055 265.797852C119.063151 265.830078 118.979005 265.969725 118.828613 266.216797L117.727539 268 116.712402 268 118.586914 265.303711 116.792969 262.5 117.818848 262.5 118.882324 264.379883C118.961101 264.519532 119.038086 264.66276 119.113281 264.80957L119.134766 264.80957 120.509766 262.5 121.481934 262.5zM16.22 188.36C17.02 188.5 17.81 188.87 17.81 190.04 17.81 191.5 16.68 192 15.08 192L13.18 192 13.18 185.11 14.81 185.11C16.51 185.11 17.51 185.65 17.51 186.85 17.51 187.7 16.89 188.22 16.22 188.36zM14.91 185.86L14.13 185.86 14.13 188.03 15.17 188.03C15.94 188.03 16.54 187.65 16.54 186.92 16.54 186.07 15.93 185.86 14.91 185.86zM15.08 191.24C16.08 191.24 16.81 191.04 16.81 190.04 16.81 189.07 16.09 188.76 15.26 188.76L14.13 188.76 14.13 191.24 15.08 191.24zM21.19 186.61C22.69 186.61 23.53 187.69 23.53 189.36 23.53 190.99 22.67 192.12 21.18 192.12 19.68 192.12 18.83 191.04 18.83 189.37 18.83 187.74 19.69 186.61 21.19 186.61zM21.19 187.35C20.31 187.35 19.82 187.99 19.82 189.37 19.82 190.74 20.3 191.38 21.18 191.38 22.06 191.38 22.54 190.74 22.54 189.36 22.54 187.99 22.06 187.35 21.19 187.35zM28.21 184.5L29.13 184.61 29.13 192 28.32 192 28.23 191.27C27.89 191.8 27.36 192.12 26.71 192.12 25.43 192.12 24.72 191.03 24.72 189.39 24.72 187.78 25.5 186.61 26.79 186.61 27.41 186.61 27.86 186.89 28.21 187.26L28.21 184.5zM26.91 191.39C27.5 191.39 27.86 191.1 28.21 190.61L28.21 188.03C27.88 187.61 27.51 187.34 26.99 187.34 26.2 187.34 25.71 188 25.71 189.37 25.71 190.76 26.15 191.39 26.91 191.39zM34.9 186.73L33.95 186.73 32.57 191.33 31.16 186.73 30.18 186.73 31.95 192 32.26 192C31.96 192.82 31.66 193.23 30.59 193.41L30.69 194.13C32.15 193.97 32.77 193.15 33.14 192.03L34.9 186.73z"/>
    <path fill="#0C0C0D" d="M68.84375,192 L67.3349609,192 L61.9296875,183.628418 C61.7929681,183.418456 61.6806645,183.198732 61.5927734,182.969238 L61.5488281,182.969238 C61.5878908,183.193849 61.6074219,183.674801 61.6074219,184.412109 L61.6074219,192 L60.3769531,192 L60.3769531,181.49707 L61.9736328,181.49707 L67.2324219,189.736816 C67.4521495,190.078615 67.5937497,190.312988 67.6572266,190.439941 L67.6865234,190.439941 C67.6376951,190.137206 67.6132812,189.622074 67.6132812,188.894531 L67.6132812,181.49707 L68.84375,181.49707 L68.84375,192 Z M74.5712891,192.175781 C73.4628851,192.175781 72.5778842,191.825443 71.9162598,191.124756 C71.2546354,190.424069 70.9238281,189.495123 70.9238281,188.337891 C70.9238281,187.078119 71.268063,186.094242 71.956543,185.38623 C72.645023,184.678219 73.5751895,184.324219 74.7470703,184.324219 C75.86524,184.324219 76.738034,184.668454 77.3654785,185.356934 C77.9929231,186.045414 78.3066406,186.999994 78.3066406,188.220703 C78.3066406,189.416998 77.9685092,190.375241 77.2922363,191.095459 C76.6159634,191.815677 75.7089901,192.175781 74.5712891,192.175781 Z M74.6591797,185.334961 C73.8876915,185.334961 73.277346,185.597409 72.828125,186.122314 C72.378904,186.647219 72.1542969,187.371089 72.1542969,188.293945 C72.1542969,189.182622 72.3813454,189.883298 72.8354492,190.395996 C73.2895531,190.908694 73.8974571,191.165039 74.6591797,191.165039 C75.4355508,191.165039 76.0324686,190.913577 76.4499512,190.410645 C76.8674337,189.907712 77.0761719,189.192387 77.0761719,188.264648 C77.0761719,187.327144 76.8674337,186.604495 76.4499512,186.09668 C76.0324686,185.588865 75.4355508,185.334961 74.6591797,185.334961 Z M84.1367188,185.71582 C83.9267568,185.554687 83.6240254,185.474121 83.2285156,185.474121 C82.7158177,185.474121 82.2873552,185.715818 81.9431152,186.199219 C81.5988752,186.68262 81.4267578,187.341793 81.4267578,188.176758 L81.4267578,192 L80.2255859,192 L80.2255859,184.5 L81.4267578,184.5 L81.4267578,186.04541 L81.4560547,186.04541 C81.626954,185.518064 81.8881818,185.106691 82.2397461,184.811279 C82.5913104,184.515868 82.9843728,184.368164 83.4189453,184.368164 C83.7314469,184.368164 83.9707023,184.402343 84.1367188,184.470703 L84.1367188,185.71582 Z M96.0898438,192 L94.8886719,192 L94.8886719,187.693359 C94.8886719,186.863277 94.7604993,186.262697 94.5041504,185.891602 C94.2478015,185.520506 93.8168976,185.334961 93.2114258,185.334961 C92.6987279,185.334961 92.2629412,185.569334 91.9040527,186.038086 C91.5451642,186.506838 91.3657227,187.068356 91.3657227,187.722656 L91.3657227,192 L90.1645508,192 L90.1645508,187.546875 C90.1645508,186.072258 89.5957088,185.334961 88.4580078,185.334961 C87.9306614,185.334961 87.4960955,185.555906 87.1542969,185.997803 C86.8124983,186.439699 86.6416016,187.014645 86.6416016,187.722656 L86.6416016,192 L85.4404297,192 L85.4404297,184.5 L86.6416016,184.5 L86.6416016,185.686523 L86.6708984,185.686523 C87.2031277,184.778316 87.9794871,184.324219 89,184.324219 C89.5126979,184.324219 89.9594708,184.46704 90.340332,184.752686 C90.7211933,185.038332 90.9824212,185.413084 91.1240234,185.876953 C91.6806668,184.841792 92.5107367,184.324219 93.6142578,184.324219 C95.2646567,184.324219 96.0898438,185.342275 96.0898438,187.378418 L96.0898438,192 Z M103.729004,192 L102.527832,192 L102.527832,190.828125 L102.498535,190.828125 C101.976072,191.726567 101.207036,192.175781 100.191406,192.175781 C99.4443322,192.175781 98.8596213,191.978029 98.4372559,191.58252 C98.0148905,191.18701 97.8037109,190.662113 97.8037109,190.007812 C97.8037109,188.606438 98.628898,187.791017 100.279297,187.561523 L102.527832,187.246582 C102.527832,185.972162 102.0127,185.334961 100.982422,185.334961 C100.079097,185.334961 99.2636755,185.642575 98.5361328,186.257812 L98.5361328,185.027344 C99.2734412,184.558591 100.123042,184.324219 101.084961,184.324219 C102.847665,184.324219 103.729004,185.256827 103.729004,187.12207 L103.729004,192 Z M102.527832,188.206055 L100.71875,188.455078 C100.162107,188.533204 99.7421889,188.671142 99.4589844,188.868896 C99.1757798,189.066651 99.0341797,189.41699 99.0341797,189.919922 C99.0341797,190.286135 99.1647936,190.585204 99.4260254,190.817139 C99.6872572,191.049073 100.035154,191.165039 100.469727,191.165039 C101.065433,191.165039 101.557371,190.956301 101.945557,190.538818 C102.333742,190.121336 102.527832,189.592777 102.527832,188.953125 L102.527832,188.206055 Z M107.193359,192 L105.992188,192 L105.992188,180.896484 L107.193359,180.896484 L107.193359,192 Z M117.820801,192 L116.619629,192 L116.619629,182.925293 C116.526855,183.018067 116.391358,183.124267 116.213135,183.243896 C116.034911,183.363526 115.834718,183.481933 115.612549,183.599121 C115.39038,183.716309 115.156007,183.826171 114.909424,183.928711 C114.662841,184.031251 114.422364,184.111816 114.187988,184.17041 L114.187988,182.95459 C114.451661,182.881347 114.7312,182.782471 115.026611,182.657959 C115.322023,182.533447 115.612547,182.394288 115.898193,182.240479 C116.183839,182.086669 116.453612,181.925538 116.70752,181.75708 C116.961427,181.588622 117.181151,181.423829 117.366699,181.262695 L117.820801,181.262695 L117.820801,192 Z M127.701172,188.791992 C127.701172,189.30469 127.613282,189.768553 127.4375,190.183594 C127.261718,190.598635 127.011476,190.955077 126.686768,191.25293 C126.362059,191.550783 125.970217,191.780273 125.51123,191.941406 C125.052244,192.10254 124.541995,192.183105 123.980469,192.183105 C123.003901,192.183105 122.278811,192.036623 121.805176,191.743652 L121.805176,190.469238 C122.51807,190.928225 123.248043,191.157715 123.995117,191.157715 C124.375978,191.157715 124.718993,191.101563 125.02417,190.989258 C125.329347,190.876953 125.589354,190.720704 125.804199,190.520508 C126.019044,190.320311 126.183837,190.078615 126.298584,189.79541 C126.413331,189.512206 126.470703,189.20215 126.470703,188.865234 C126.470703,188.181637 126.241213,187.645754 125.782227,187.257568 C125.32324,186.869383 124.656743,186.675293 123.782715,186.675293 C123.641113,186.675293 123.492188,186.677734 123.335938,186.682617 C123.179687,186.6875 123.023438,186.693603 122.867188,186.700928 C122.710937,186.708252 122.55835,186.716797 122.409424,186.726562 C122.260497,186.736328 122.125001,186.748535 122.00293,186.763184 L122.361816,181.49707 L127.217773,181.49707 L127.217773,182.581055 L123.401855,182.581055 L123.189453,185.664551 C123.345704,185.654785 123.511718,185.64624 123.6875,185.638916 C123.863282,185.631592 124.019531,185.62793 124.15625,185.62793 C124.712893,185.62793 125.210935,185.701171 125.650391,185.847656 C126.089846,185.994141 126.462157,186.20288 126.767334,186.473877 C127.072511,186.744874 127.304443,187.076902 127.463135,187.469971 C127.621827,187.863039 127.701172,188.303708 127.701172,188.791992 Z M131.13623,190.916016 L131.106934,190.916016 L131.106934,195.449707 L129.905762,195.449707 L129.905762,184.5 L131.106934,184.5 L131.106934,185.818359 L131.13623,185.818359 C131.727054,184.822261 132.591303,184.324219 133.729004,184.324219 C134.695806,184.324219 135.450193,184.659909 135.992188,185.331299 C136.534182,186.002689 136.805176,186.902338 136.805176,188.030273 C136.805176,189.285163 136.500003,190.289791 135.889648,191.044189 C135.279294,191.798588 134.444341,192.175781 133.384766,192.175781 C132.413081,192.175781 131.663577,191.755864 131.13623,190.916016 Z M131.106934,187.891113 L131.106934,188.938477 C131.106934,189.558597 131.308348,190.084715 131.711182,190.516846 C132.114016,190.948977 132.625485,191.165039 133.245605,191.165039 C133.973148,191.165039 134.543211,190.886722 134.955811,190.330078 C135.36841,189.773435 135.574707,188.999517 135.574707,188.008301 C135.574707,187.173336 135.381838,186.519045 134.996094,186.04541 C134.61035,185.571775 134.087894,185.334961 133.428711,185.334961 C132.730465,185.334961 132.168947,185.577878 131.744141,186.063721 C131.319334,186.549563 131.106934,187.158688 131.106934,187.891113 Z M144.202637,184.5 L141.683105,188.293945 L144.158691,192 L142.759766,192 L141.287598,189.568359 C141.194824,189.416991 141.084962,189.226564 140.958008,188.99707 L140.928711,188.99707 C140.904297,189.041016 140.789552,189.231444 140.584473,189.568359 L139.083008,192 L137.69873,192 L140.254883,188.323242 L137.808594,184.5 L139.20752,184.5 L140.657715,187.063477 C140.765137,187.253907 140.870117,187.449218 140.972656,187.649414 L141.001953,187.649414 L142.876953,184.5 L144.202637,184.5 Z"/>
  </g>
</svg>
