<svg xmlns="http://www.w3.org/2000/svg" width="400" height="400" style="background:#f2f3f5" viewBox="0 0 400 400">
  <g fill="none" fill-rule="evenodd" transform="translate(109 64)">
    <path fill="#0C0C0D" d="M54.7586798 211.855957L54.7586798 215.359863 57.0120978 215.359863C58.1864142 215.359863 58.8529181 214.731445 58.8529181 213.60791 58.8529181 212.509766 58.1419806 211.855957 56.9613165 211.855957L54.7586798 211.855957zM54.7586798 216.375488L54.7586798 220 53.6161017 220 53.6161017 210.840332 57.1136603 210.840332C58.8783087 210.840332 60.0335821 211.919434 60.0335821 213.569824 60.0335821 214.845703 59.3416876 215.835938 58.1927618 216.197754L60.312879 220 58.9735236 220 57.0120978 216.375488 54.7586798 216.375488zM64.5086798 214.001465C63.4168829 214.001465 62.6551642 214.80127 62.5726446 216.013672L66.3431525 216.013672C66.3177618 214.80127 65.594129 214.001465 64.5086798 214.001465zM66.3114142 218.229004L67.4032111 218.229004C67.0731329 219.40332 66.019422 220.120605 64.5213751 220.120605 62.6234259 220.120605 61.4364142 218.749512 61.4364142 216.584961 61.4364142 214.433105 62.6424689 213.036621 64.5213751 213.036621 66.3685431 213.036621 67.4920782 214.350586 67.4920782 216.477051L67.4920782 216.895996 62.5726446 216.895996 62.5726446 216.946777C62.6297736 218.298828 63.3851446 219.155762 64.5467657 219.155762 65.42909 219.155762 66.0257696 218.832031 66.3114142 218.229004zM71.9735236 218.933594C73.2430548 218.933594 74.0047736 217.96875 74.0047736 216.477051 74.0047736 214.985352 73.2367071 214.020508 71.9735236 214.020508 70.7039923 214.020508 69.9930548 214.985352 69.9930548 216.477051 69.9930548 217.96875 70.7039923 218.933594 71.9735236 218.933594zM72.0243048 222.62793C70.3739142 222.62793 69.3202032 221.885254 69.1551642 220.755371L70.3104376 220.755371C70.4310431 221.313965 71.0404181 221.675781 72.0243048 221.675781 73.2494025 221.675781 73.9793829 221.072754 73.9793829 220.063477L73.9793829 218.717773 73.8778204 218.717773C73.4461798 219.473145 72.6717657 219.898438 71.7323126 219.898438 69.9613165 219.898438 68.863172 218.527344 68.863172 216.477051 68.863172 214.426758 69.9740118 213.036621 71.7323126 213.036621 72.6908087 213.036621 73.535047 213.506348 73.9286017 214.242676L74.0301642 214.242676 74.0301642 213.157227 75.0711798 213.157227 75.0711798 220.120605C75.0711798 221.650391 73.8905157 222.62793 72.0243048 222.62793zM82.6629767 213.157227L81.5711798 213.157227 81.5711798 217.207031C81.5711798 218.406738 80.9110236 219.124023 79.7049689 219.124023 78.613172 219.124023 78.1561407 218.552734 78.1561407 217.321289L78.1561407 213.157227 77.0643439 213.157227 77.0643439 217.587891C77.0643439 219.206543 77.8641486 220.120605 79.4002814 220.120605 80.4476446 220.120605 81.1776251 219.688965 81.5203986 218.927246L81.6219611 218.927246 81.6219611 220 82.6629767 220 82.6629767 213.157227zM84.7830939 220L85.8748907 220 85.8748907 210.44043 84.7830939 210.44043 84.7830939 220zM90.1024298 219.162109C91.225965 219.162109 92.0575079 218.425781 92.0575079 217.448242L92.0575079 216.819824 90.2166876 216.94043C89.175672 217.010254 88.7186407 217.37207 88.7186407 218.057617 88.7186407 218.755859 89.3089728 219.162109 90.1024298 219.162109zM89.8993048 220.120605C88.5726446 220.120605 87.5887579 219.333496 87.5887579 218.083008 87.5887579 216.85791 88.4901251 216.15332 90.0833868 216.058105L92.0575079 215.9375 92.0575079 215.31543C92.0575079 214.471191 91.5306525 214.007812 90.5086798 214.007812 89.6898321 214.007812 89.1185431 214.318848 88.9661993 214.858398L87.8617071 214.858398C88.0077032 213.760254 89.0868048 213.036621 90.5467657 213.036621 92.2161993 213.036621 93.1493048 213.893555 93.1493048 215.31543L93.1493048 220 92.1082892 220 92.1082892 218.990723 92.0067267 218.990723C91.5623907 219.720703 90.8133673 220.120605 89.8993048 220.120605zM95.1678595 220L96.2596564 220 96.2596564 215.759766C96.2596564 214.794922 97.0150275 214.09668 98.0560431 214.09668 98.2718634 214.09668 98.6654181 214.134766 98.7542853 214.160156L98.7542853 213.068359C98.6146368 213.049316 98.3861212 213.036621 98.2083868 213.036621 97.300672 213.036621 96.5135626 213.506348 96.3104376 214.172852L96.2088751 214.172852 96.2088751 213.157227 95.1678595 213.157227 95.1678595 220zM105.97157 220L107.114149 220 107.114149 210.840332 105.977918 210.840332 103.540418 212.592285 103.540418 213.79834 105.870008 212.109863 105.97157 212.109863 105.97157 220zM111.716199 215.778809L112.87782 215.778809C114.17909 215.778809 114.985242 216.438965 114.985242 217.499023 114.985242 218.501953 114.128309 219.219238 112.922254 219.219238 111.74159 219.219238 110.916395 218.59082 110.814832 217.613281L109.71034 217.613281C109.792859 219.181152 111.075086 220.21582 112.934949 220.21582 114.744031 220.21582 116.159559 219.041504 116.159559 217.530762 116.159559 216.280273 115.404188 215.416992 114.160047 215.258301L114.160047 215.156738C115.162977 214.915527 115.766004 214.115723 115.766004 213.023926 115.766004 211.690918 114.490125 210.624512 112.890516 210.624512 111.14491 210.624512 110.00868 211.602051 109.894422 213.188965L111.005262 213.188965C111.100477 212.205078 111.792371 211.621094 112.846082 211.621094 113.899793 211.621094 114.604383 212.243164 114.604383 213.17627 114.604383 214.128418 113.868055 214.80127 112.827039 214.80127L111.716199 214.80127 111.716199 215.778809zM121.332899 213.036621C123.078504 213.036621 124.208387 214.426758 124.208387 216.578613 124.208387 218.717773 123.072156 220.120605 121.332899 220.120605 120.355359 220.120605 119.56825 219.695312 119.193738 218.97168L119.092176 218.97168 119.092176 222.285156 118.000379 222.285156 118.000379 213.157227 119.041395 213.157227 119.041395 214.299805 119.142957 214.299805C119.580945 213.512695 120.399793 213.036621 121.332899 213.036621zM121.072645 219.136719C122.329481 219.136719 123.078504 218.178223 123.078504 216.578613 123.078504 214.979004 122.329481 214.020508 121.078992 214.020508 119.841199 214.020508 119.060438 215.004395 119.060438 216.578613 119.060438 218.146484 119.841199 219.136719 121.072645 219.136719zM128.029676 217.416504L129.648328 220 130.94325 220 128.58827 216.53418 130.911512 213.157227 129.673719 213.157227 128.067762 215.702637 127.966199 215.702637 126.341199 213.157227 125.03993 213.157227 127.407606 216.578613 125.06532 220 126.303113 220 127.928113 217.416504 128.029676 217.416504zM53.3778204 108.746094C53.4857306 110.920898 55.3036017 112.298828 58.0511603 112.298828 60.9564337 112.298828 62.7577032 110.846191 62.7577032 108.513672 62.7577032 106.6875 61.7367071 105.674805 59.3045782 105.126953L57.9266486 104.811523C56.4408087 104.471191 55.8348517 103.998047 55.8348517 103.192871 55.8348517 102.171875 56.7479376 101.507812 58.1258673 101.507812 59.4373907 101.507812 60.3670782 102.171875 60.5164923 103.226074L62.5667853 103.226074C62.4671759 101.16748 60.6493048 99.7231445 58.1341681 99.7231445 55.4530157 99.7231445 53.6766486 101.16748 53.6766486 103.342285 53.6766486 105.126953 54.6976446 106.206055 56.8724493 106.695801L58.4246954 107.052734C59.96034 107.409668 60.6161017 107.916016 60.6161017 108.779297 60.6161017 109.783691 59.5951056 110.505859 58.1839728 110.505859 56.6649298 110.505859 55.6024298 109.816895 55.4696173 108.746094L53.3778204 108.746094zM68.7591681 104.371582C67.5306525 104.371582 66.6673712 105.251465 66.5760626 106.57959L70.850965 106.57959C70.8094611 105.234863 69.9959845 104.371582 68.7591681 104.371582zM70.8675665 109.501465L72.8182501 109.501465C72.4281134 111.15332 70.925672 112.182617 68.7840704 112.182617 66.1112189 112.182617 64.5008673 110.414551 64.5008673 107.492676 64.5008673 104.570801 66.1361212 102.736328 68.7674689 102.736328 71.3573126 102.736328 72.9095587 104.45459 72.9095587 107.318359L72.9095587 107.982422 66.5677618 107.982422 66.5677618 108.090332C66.6175665 109.601074 67.4891486 110.547363 68.8421759 110.547363 69.863172 110.547363 70.5687384 110.173828 70.8675665 109.501465zM74.9764532 112L77.035047 112 77.035047 106.47998C77.035047 105.367676 77.7904181 104.529297 78.8114142 104.529297 79.8241095 104.529297 80.4549689 105.135254 80.4549689 106.131348L80.4549689 112 82.4554571 112 82.4554571 106.347168C82.4554571 105.30957 83.1610236 104.529297 84.2318243 104.529297 85.3358282 104.529297 85.8919806 105.110352 85.8919806 106.280762L85.8919806 112 87.9422736 112 87.9422736 105.757812C87.9422736 103.873535 86.8465704 102.736328 85.0286993 102.736328 83.7669806 102.736328 82.7210821 103.39209 82.27284 104.388184L82.1317267 104.388184C81.7498907 103.367188 80.8783087 102.736328 79.6248907 102.736328 78.4212775 102.736328 77.49159 103.350586 77.1014532 104.388184L76.96034 104.388184 76.96034 102.918945 74.9764532 102.918945 74.9764532 112zM90.4076056 112L92.4578986 112 92.4578986 102.918945 90.4076056 102.918945 90.4076056 112zM91.4286017 101.441406C92.1839728 101.441406 92.6986212 100.959961 92.6986212 100.304199 92.6986212 99.6484375 92.1839728 99.1669922 91.4286017 99.1669922 90.6815314 99.1669922 90.1585821 99.6484375 90.1585821 100.304199 90.1585821 100.959961 90.6815314 101.441406 91.4286017 101.441406zM100.343641 112L95.2220587 112 95.2220587 100.021973 100.22743 100.021973C102.501844 100.021973 103.871473 101.16748 103.871473 103.010254 103.871473 104.271973 102.941785 105.384277 101.738172 105.575195L101.738172 105.724609C103.348524 105.874023 104.460828 107.036133 104.460828 108.59668 104.460828 110.696777 102.900281 112 100.343641 112zM97.3636603 101.723633L97.3636603 105.060547 99.4305548 105.060547C100.949598 105.060547 101.754774 104.471191 101.754774 103.39209 101.754774 102.337891 100.999402 101.723633 99.7044806 101.723633L97.3636603 101.723633zM97.3636603 110.29834L99.8538946 110.29834C101.431043 110.29834 102.269422 109.650879 102.269422 108.430664 102.269422 107.235352 101.406141 106.604492 99.7708868 106.604492L97.3636603 106.604492 97.3636603 110.29834zM110.487195 112.182617C107.764539 112.182617 106.120984 110.40625 106.120984 107.459473 106.120984 104.529297 107.789442 102.736328 110.487195 102.736328 113.19325 102.736328 114.853406 104.520996 114.853406 107.459473 114.853406 110.40625 113.201551 112.182617 110.487195 112.182617zM110.487195 110.456055C111.923231 110.456055 112.736707 109.360352 112.736707 107.459473 112.736707 105.566895 111.91493 104.462891 110.487195 104.462891 109.05116 104.462891 108.229383 105.566895 108.229383 107.459473 108.229383 109.360352 109.05116 110.456055 110.487195 110.456055zM117.011609 112L119.070203 112 119.070203 99.4077148 117.011609 99.4077148 117.011609 112zM124.955457 112.149414C122.656141 112.149414 121.220106 110.339844 121.220106 107.451172 121.220106 104.579102 122.664442 102.769531 124.955457 102.769531 126.200574 102.769531 127.229871 103.367188 127.711317 104.363281L127.85243 104.363281 127.85243 99.4077148 129.911024 99.4077148 129.911024 112 127.918836 112 127.918836 110.563965 127.777723 110.563965C127.263074 111.560059 126.217176 112.149414 124.955457 112.149414zM125.594617 104.520996C124.191785 104.520996 123.328504 105.633301 123.328504 107.459473 123.328504 109.293945 124.183484 110.397949 125.594617 110.397949 127.014051 110.397949 127.877332 109.285645 127.877332 107.459473 127.877332 105.649902 127.00575 104.520996 125.594617 104.520996zM139.921766 112L142.063367 112 142.063367 100.021973 139.930067 100.021973 136.800672 102.213379 136.800672 104.271973 139.780652 102.180176 139.921766 102.180176 139.921766 112zM145.989637 112L148.230848 112 153.35243 101.848145 153.35243 100.021973 145.018445 100.021973 145.018445 101.823242 151.194227 101.823242 151.194227 101.956055 145.989637 112zM160.491102 102.769531C162.790418 102.769531 164.234754 104.545898 164.234754 107.459473 164.234754 110.356445 162.80702 112.149414 160.516004 112.149414 159.212781 112.149414 158.208387 111.584961 157.743543 110.62207L157.60243 110.62207 157.60243 115.021484 155.543836 115.021484 155.543836 102.918945 157.527723 102.918945 157.527723 104.421387 157.668836 104.421387C158.191785 103.39209 159.245984 102.769531 160.491102 102.769531zM159.843641 110.397949C161.271375 110.397949 162.118055 109.293945 162.118055 107.459473 162.118055 105.625 161.263074 104.520996 159.851942 104.520996 158.449109 104.520996 157.569227 105.649902 157.560926 107.459473 157.569227 109.277344 158.440809 110.397949 159.843641 110.397949zM169.372938 108.870605L171.232313 112 173.556531 112 170.593152 107.409668 173.523328 102.918945 171.257215 102.918945 169.464246 106.040039 169.323133 106.040039 167.513563 102.918945 165.131238 102.918945 168.094617 107.492676 165.156141 112 167.372449 112 169.231824 108.870605 169.372938 108.870605zM57.672254 141L53.5589728 141 53.5589728 131.840332 57.5643439 131.840332C59.3416876 131.840332 60.4017462 132.709961 60.4017462 134.125488 60.4017462 135.09668 59.6844611 135.940918 58.7450079 136.080566L58.7450079 136.194824C59.9574103 136.283691 60.8397345 137.197754 60.8397345 138.378418 60.8397345 139.984375 59.6273321 141 57.672254 141zM55.475965 133.306641L55.475965 135.63623 56.9168829 135.63623C57.9515509 135.63623 58.5164923 135.210938 58.5164923 134.474609 58.5164923 133.744629 57.9896368 133.306641 57.0755743 133.306641L55.475965 133.306641zM55.475965 139.533691L57.1834845 139.533691C58.2879767 139.533691 58.8846564 139.070312 58.8846564 138.213379 58.8846564 137.375488 58.2689337 136.931152 57.1390509 136.931152L55.475965 136.931152 55.475965 139.533691zM65.4925665 141.152344C63.3407111 141.152344 62.0457892 139.787598 62.0457892 137.496094 62.0457892 135.22998 63.359754 133.846191 65.4925665 133.846191 67.625379 133.846191 68.9393439 135.223633 68.9393439 137.496094 68.9393439 139.787598 67.644422 141.152344 65.4925665 141.152344zM65.4925665 139.641602C66.4764532 139.641602 67.0413946 138.854492 67.0413946 137.496094 67.0413946 136.150391 66.4701056 135.356934 65.4925665 135.356934 64.5086798 135.356934 63.9437384 136.150391 63.9437384 137.496094 63.9437384 138.86084 64.5023321 139.641602 65.4925665 139.641602zM70.507215 141L72.3543829 141 72.3543829 131.326172 70.507215 131.326172 70.507215 141zM76.7786993 141.10791C75.0140509 141.10791 73.9286017 139.724121 73.9286017 137.489746 73.9286017 135.261719 75.0203986 133.884277 76.7786993 133.884277 77.7245001 133.884277 78.5052618 134.341309 78.8670782 135.115723L78.9749884 135.115723 78.9749884 131.326172 80.8221564 131.326172 80.8221564 141 79.0321173 141 79.0321173 139.901855 78.9178595 139.901855C78.5433478 140.657227 77.7498907 141.10791 76.7786993 141.10791zM77.4071173 135.433105C76.4232306 135.433105 75.8265509 136.213867 75.8265509 137.496094 75.8265509 138.791016 76.4168829 139.56543 77.4071173 139.56543 78.3973517 139.56543 78.9940314 138.784668 78.9940314 137.502441 78.9940314 136.226562 78.391004 135.433105 77.4071173 135.433105zM88.3060431 141L90.2230353 141 90.2230353 131.840332 88.3123907 131.840332 85.944715 133.47168 85.944715 135.255371 88.1917853 133.706543 88.3060431 133.706543 88.3060431 141zM94.9964728 137.026367L96.1327032 137.026367C97.1610236 137.026367 97.7894415 137.521484 97.7894415 138.321289 97.7894415 139.102051 97.1229376 139.641602 96.1644415 139.641602 95.1805548 139.641602 94.5267462 139.152832 94.4696173 138.378418L92.6351446 138.378418C92.7176642 140.10498 94.1014532 141.234863 96.1453986 141.234863 98.2337775 141.234863 99.7445196 140.073242 99.7445196 138.467285 99.7445196 137.26123 98.9574103 136.42334 97.7005743 136.283691L97.7005743 136.169434C98.722547 135.959961 99.3890509 135.134766 99.3890509 134.074707 99.3890509 132.633789 98.0370001 131.605469 96.1580939 131.605469 94.1585821 131.605469 92.8700079 132.697266 92.8065314 134.430176L94.5775275 134.430176C94.6283087 133.636719 95.2186407 133.135254 96.1073126 133.135254 97.0023321 133.135254 97.5736212 133.60498 97.5736212 134.341309 97.5736212 135.090332 96.9832892 135.598145 96.1136603 135.598145L94.9964728 135.598145 94.9964728 137.026367zM105.501844 133.884277C107.27284 133.884277 108.358289 135.22998 108.358289 137.496094 108.358289 139.755859 107.285535 141.10791 105.533582 141.10791 104.530652 141.10791 103.762586 140.669922 103.419813 139.927246L103.305555 139.927246 103.305555 143.323242 101.458387 143.323242 101.458387 133.998535 103.248426 133.998535 103.248426 135.147461 103.362684 135.147461C103.743543 134.360352 104.537 133.884277 105.501844 133.884277zM104.873426 139.56543C105.870008 139.56543 106.46034 138.791016 106.46034 137.496094 106.46034 136.213867 105.86366 135.433105 104.879774 135.433105 103.895887 135.433105 103.286512 136.220215 103.286512 137.502441 103.286512 138.784668 103.895887 139.56543 104.873426 139.56543zM112.350965 138.714844L113.652234 141 115.708875 141 113.493543 137.458008 115.689832 133.998535 113.671277 133.998535 112.433484 136.296387 112.319227 136.296387 111.081434 133.998535 108.961317 133.998535 111.170301 137.540527 108.974012 141 110.935438 141 112.236707 138.714844 112.350965 138.714844z"/>
    <path fill="#737373" d="M54.4032111,262.108887 L54.4032111,265.07373 L56.3099493,265.07373 C57.3036017,265.07373 57.8675665,264.541992 57.8675665,263.591309 C57.8675665,262.662109 57.266004,262.108887 56.2669806,262.108887 L54.4032111,262.108887 Z M54.4032111,265.933105 L54.4032111,269 L53.4364142,269 L53.4364142,261.249512 L56.3958868,261.249512 C57.8890509,261.249512 58.86659,262.162598 58.86659,263.559082 C58.86659,264.638672 58.2811407,265.476562 57.3089728,265.782715 L59.1029181,269 L57.9696173,269 L56.3099493,265.933105 L54.4032111,265.933105 Z M62.6532111,263.924316 C61.7293829,263.924316 61.0848517,264.601074 61.0150275,265.626953 L64.2054571,265.626953 C64.1839728,264.601074 63.5716681,263.924316 62.6532111,263.924316 Z M64.1786017,267.501465 L65.1024298,267.501465 C64.8231329,268.495117 63.9315314,269.102051 62.6639532,269.102051 C61.0579962,269.102051 60.0536017,267.941895 60.0536017,266.110352 C60.0536017,264.289551 61.0741095,263.10791 62.6639532,263.10791 C64.2269415,263.10791 65.1776251,264.219727 65.1776251,266.019043 L65.1776251,266.373535 L61.0150275,266.373535 L61.0150275,266.416504 C61.0633673,267.560547 61.7025275,268.285645 62.6854376,268.285645 C63.4320196,268.285645 63.9369025,268.011719 64.1786017,267.501465 Z M68.9696173,268.097656 C70.0438361,268.097656 70.6883673,267.28125 70.6883673,266.019043 C70.6883673,264.756836 70.038465,263.94043 68.9696173,263.94043 C67.8953986,263.94043 67.2938361,264.756836 67.2938361,266.019043 C67.2938361,267.28125 67.8953986,268.097656 68.9696173,268.097656 Z M69.0125861,271.223633 C67.6161017,271.223633 66.7245001,270.595215 66.5848517,269.63916 L67.5623907,269.63916 C67.6644415,270.111816 68.1800665,270.417969 69.0125861,270.417969 C70.0492071,270.417969 70.6668829,269.907715 70.6668829,269.053711 L70.6668829,267.915039 L70.5809454,267.915039 C70.2157111,268.554199 69.5604376,268.914062 68.7655157,268.914062 C67.2669806,268.914062 66.3377814,267.753906 66.3377814,266.019043 C66.3377814,264.28418 67.2777228,263.10791 68.7655157,263.10791 C69.5765509,263.10791 70.2909064,263.505371 70.6239142,264.128418 L70.7098517,264.128418 L70.7098517,263.209961 L71.5907111,263.209961 L71.5907111,269.102051 C71.5907111,270.396484 70.5916876,271.223633 69.0125861,271.223633 Z M78.0145392,263.209961 L77.0907111,263.209961 L77.0907111,266.636719 C77.0907111,267.651855 76.5321173,268.258789 75.5116095,268.258789 C74.5877814,268.258789 74.2010626,267.775391 74.2010626,266.733398 L74.2010626,263.209961 L73.2772345,263.209961 L73.2772345,266.958984 C73.2772345,268.328613 73.9539923,269.102051 75.253797,269.102051 C76.1400275,269.102051 76.7577032,268.736816 77.0477423,268.092285 L77.1336798,268.092285 L77.1336798,269 L78.0145392,269 L78.0145392,263.209961 Z M79.8084845,269 L80.7323126,269 L80.7323126,260.911133 L79.8084845,260.911133 L79.8084845,269 Z M84.3094611,268.291016 C85.2601446,268.291016 85.9637579,267.667969 85.9637579,266.84082 L85.9637579,266.309082 L84.4061407,266.411133 C83.5252814,266.470215 83.1385626,266.776367 83.1385626,267.356445 C83.1385626,267.947266 83.6380743,268.291016 84.3094611,268.291016 Z M84.1375861,269.102051 C83.0150275,269.102051 82.1825079,268.436035 82.1825079,267.37793 C82.1825079,266.341309 82.9452032,265.745117 84.2933478,265.664551 L85.9637579,265.5625 L85.9637579,265.036133 C85.9637579,264.321777 85.5179571,263.929688 84.6532111,263.929688 C83.96034,263.929688 83.4769415,264.192871 83.3480353,264.649414 L82.413465,264.649414 C82.5370001,263.720215 83.4500861,263.10791 84.6854376,263.10791 C86.0980353,263.10791 86.8875861,263.833008 86.8875861,265.036133 L86.8875861,269 L86.0067267,269 L86.0067267,268.145996 L85.9207892,268.145996 C85.5448126,268.763672 84.9110236,269.102051 84.1375861,269.102051 Z M88.5955939,269 L89.519422,269 L89.519422,265.412109 C89.519422,264.595703 90.1585821,264.004883 91.0394415,264.004883 C91.2220587,264.004883 91.5550665,264.037109 91.6302618,264.058594 L91.6302618,263.134766 C91.5120978,263.118652 91.3187384,263.10791 91.1683478,263.10791 C90.4002814,263.10791 89.7342657,263.505371 89.5623907,264.069336 L89.4764532,264.069336 L89.4764532,263.209961 L88.5955939,263.209961 L88.5955939,269 Z M97.7371954,269 L98.7039923,269 L98.7039923,261.249512 L97.7425665,261.249512 L95.6800665,262.731934 L95.6800665,263.752441 L97.6512579,262.32373 L97.7371954,262.32373 L97.7371954,269 Z M102.86659,269 L103.833387,269 L103.833387,261.249512 L102.871961,261.249512 L100.809461,262.731934 L100.809461,263.752441 L102.780652,262.32373 L102.86659,262.32373 L102.86659,269 Z M108.968152,263.10791 C110.445203,263.10791 111.401258,264.28418 111.401258,266.10498 C111.401258,267.915039 110.439832,269.102051 108.968152,269.102051 C108.141004,269.102051 107.474988,268.742188 107.158094,268.129883 L107.072156,268.129883 L107.072156,270.933594 L106.148328,270.933594 L106.148328,263.209961 L107.029188,263.209961 L107.029188,264.176758 L107.115125,264.176758 C107.485731,263.510742 108.178602,263.10791 108.968152,263.10791 Z M108.747938,268.269531 C109.811414,268.269531 110.445203,267.458496 110.445203,266.10498 C110.445203,264.751465 109.811414,263.94043 108.753309,263.94043 C107.705945,263.94043 107.045301,264.772949 107.045301,266.10498 C107.045301,267.431641 107.705945,268.269531 108.747938,268.269531 Z M114.634656,266.813965 L116.004285,269 L117.099988,269 L115.107313,266.067383 L117.073133,263.209961 L116.02577,263.209961 L114.666883,265.36377 L114.580945,265.36377 L113.205945,263.209961 L112.104871,263.209961 L114.108289,266.10498 L112.126356,269 L113.173719,269 L114.548719,266.813965 L114.634656,266.813965 Z"/>
    <path fill="#0C0C0D" d="M60.7646484 24L60.7646484 1.92480469 68.9018555 1.92480469 68.9018555.748535156 51.3383789.748535156 51.3383789 1.92480469 59.4916992 1.92480469 59.4916992 24 60.7646484 24zM71.2543945 24L72.4951172 24 72.4951172 14.0581055C72.4951172 10.5615234 74.7670898 8.14453125 78.0541992 8.14453125 81.1640625 8.14453125 83.2104492 10.1264648 83.2104492 13.3491211L83.2104492 24 84.4511719 24 84.4511719 13.2041016C84.4511719 9.44970703 82.0019531 7.01660156 78.328125 7.01660156 75.5083008 7.01660156 73.3168945 8.56347656 72.543457 10.9160156L72.4951172 10.9160156 72.4951172.748535156 71.2543945.748535156 71.2543945 24zM88.2216797 24L89.4624023 24 89.4624023 7.2421875 88.2216797 7.2421875 88.2216797 24zM88.8500977 3.1171875C89.3818359 3.1171875 89.8330078 2.68212891 89.8330078 2.13427734 89.8330078 1.58642578 89.3818359 1.16748047 88.8500977 1.16748047 88.3022461 1.16748047 87.8510742 1.58642578 87.8510742 2.13427734 87.8510742 2.68212891 88.3022461 3.1171875 88.8500977 3.1171875zM93.3295898 24L94.5864258 24 94.5864258 14.0258789C94.5864258 10.5615234 96.777832 8.14453125 100.048828 8.14453125 103.158691 8.14453125 105.205078 10.0942383 105.205078 13.3330078L105.205078 24 106.461914 24 106.461914 13.1879883C106.461914 9.40136719 104.028809 7.01660156 100.338867 7.01660156 97.4868164 7.01660156 95.3276367 8.56347656 94.5380859 10.9160156L94.5058594 10.9160156 94.5058594 7.2421875 93.3295898 7.2421875 93.3295898 24zM120.625488 12.4951172L123.251953 12.4951172C127.570312 12.4951172 130.164551 14.4448242 130.164551 17.699707 130.164551 20.8740234 127.376953 23.1943359 123.622559 23.1943359 119.964844 23.1943359 117.177246 21.019043 117.080566 18.1508789L115.839844 18.1508789C115.92041 21.6796875 119.175293 24.3383789 123.622559 24.3383789 128.085938 24.3383789 131.453613 21.534668 131.453613 17.6674805 131.453613 14.3803711 129.117188 12.140625 125.507812 11.9150391L125.507812 11.8505859C128.553223 11.2866211 130.438477 9.17578125 130.438477 6.29150391 130.438477 2.90771484 127.441406.41015625 123.445312.41015625 119.497559.41015625 116.564941 2.89160156 116.371582 6.35595703L117.612305 6.35595703C117.805664 3.58447266 120.23877 1.55419922 123.396973 1.55419922 126.780762 1.55419922 129.165527 3.61669922 129.165527 6.40429688 129.165527 9.32080078 126.732422 11.3671875 123.219727 11.3671875L120.625488 11.3671875 120.625488 12.4951172zM139.091309 12.4951172L141.717773 12.4951172C146.036133 12.4951172 148.630371 14.4448242 148.630371 17.699707 148.630371 20.8740234 145.842773 23.1943359 142.088379 23.1943359 138.430664 23.1943359 135.643066 21.019043 135.546387 18.1508789L134.305664 18.1508789C134.38623 21.6796875 137.641113 24.3383789 142.088379 24.3383789 146.551758 24.3383789 149.919434 21.534668 149.919434 17.6674805 149.919434 14.3803711 147.583008 12.140625 143.973633 11.9150391L143.973633 11.8505859C147.019043 11.2866211 148.904297 9.17578125 148.904297 6.29150391 148.904297 2.90771484 145.907227.41015625 141.911133.41015625 137.963379.41015625 135.030762 2.89160156 134.837402 6.35595703L136.078125 6.35595703C136.271484 3.58447266 138.70459 1.55419922 141.862793 1.55419922 145.246582 1.55419922 147.631348 3.61669922 147.631348 6.40429688 147.631348 9.32080078 145.198242 11.3671875 141.685547 11.3671875L139.091309 11.3671875 139.091309 12.4951172zM160.699219 7.01660156C164.904785 7.01660156 167.805176 10.5131836 167.805176 15.6210938 167.805176 20.7451172 164.920898 24.2255859 160.715332 24.2255859 157.621582 24.2255859 155.269043 22.2114258 154.511719 19.6010742L154.479492 19.6010742 154.479492 29.4946289 153.222656 29.4946289 153.222656 7.2421875 154.398926 7.2421875 154.398926 11.7055664 154.447266 11.7055664C155.20459 9.06298828 157.621582 7.01660156 160.699219 7.01660156zM160.554199 23.0976562C164.099121 23.0976562 166.532227 20.0683594 166.532227 15.637207 166.532227 11.1899414 164.099121 8.14453125 160.554199 8.14453125 156.960938 8.14453125 154.463379 11.222168 154.463379 15.6210938 154.463379 20.0361328 156.960938 23.0976562 160.554199 23.0976562zM175.73291 16.4750977L181.08252 24 182.532715 24 176.441895 15.4599609 182.564941 7.2421875 181.098633 7.2421875 175.765137 14.5415039 175.716797 14.5415039 170.383301 7.2421875 168.900879 7.2421875 175.007812 15.4921875 168.868652 24 170.318848 24 175.68457 16.4750977 175.73291 16.4750977zM55.1141486 181.603027L55.1141486 185.645996 57.7142462 185.645996C59.0692267 185.645996 59.8382696 184.920898 59.8382696 183.624512 59.8382696 182.357422 59.0179571 181.603027 57.6556525 181.603027L55.1141486 181.603027zM55.1141486 186.817871L55.1141486 191 53.7957892 191 53.7957892 180.431152 57.8314337 180.431152C59.8675665 180.431152 61.2005743 181.67627 61.2005743 183.580566 61.2005743 185.052734 60.4022345 186.195312 59.0765509 186.612793L61.52284 191 59.9774298 191 57.7142462 186.817871 55.1141486 186.817871zM66.3641486 184.078613C65.1043829 184.078613 64.2254767 185.001465 64.1302618 186.400391L68.4808478 186.400391C68.4515509 185.001465 67.61659 184.078613 66.3641486 184.078613zM68.4442267 188.956543L69.7039923 188.956543C69.3231329 190.311523 68.1073126 191.13916 66.378797 191.13916 64.1888556 191.13916 62.8192267 189.557129 62.8192267 187.05957 62.8192267 184.57666 64.2108282 182.965332 66.378797 182.965332 68.5101446 182.965332 69.8065314 184.481445 69.8065314 186.935059L69.8065314 187.418457 64.1302618 187.418457 64.1302618 187.477051C64.1961798 189.037109 65.0677618 190.025879 66.4080939 190.025879 67.4261603 190.025879 68.1146368 189.652344 68.4442267 188.956543zM74.9774298 189.769531C76.4422736 189.769531 77.3211798 188.65625 77.3211798 186.935059 77.3211798 185.213867 76.4349493 184.100586 74.9774298 184.100586 73.5125861 184.100586 72.6922736 185.213867 72.6922736 186.935059 72.6922736 188.65625 73.5125861 189.769531 74.9774298 189.769531zM75.0360236 194.032227C73.1317267 194.032227 71.9159064 193.175293 71.7254767 191.871582L73.0584845 191.871582C73.1976446 192.516113 73.9007696 192.933594 75.0360236 192.933594 76.4495978 192.933594 77.2918829 192.237793 77.2918829 191.073242L77.2918829 189.520508 77.1746954 189.520508C76.6766486 190.39209 75.7830939 190.882812 74.6991095 190.882812 72.6556525 190.882812 71.3885626 189.300781 71.3885626 186.935059 71.3885626 184.569336 72.6703009 182.965332 74.6991095 182.965332 75.8050665 182.965332 76.7791876 183.507324 77.2332892 184.356934L77.3504767 184.356934 77.3504767 183.104492 78.5516486 183.104492 78.5516486 191.13916C78.5516486 192.904297 77.1893439 194.032227 75.0360236 194.032227zM87.3114142 183.104492L86.0516486 183.104492 86.0516486 187.777344C86.0516486 189.161621 85.2899298 189.989258 83.8983282 189.989258 82.6385626 189.989258 82.1112189 189.330078 82.1112189 187.90918L82.1112189 183.104492 80.8514532 183.104492 80.8514532 188.216797C80.8514532 190.084473 81.7743048 191.13916 83.5467657 191.13916 84.7552618 191.13916 85.597547 190.641113 85.9930548 189.762207L86.1102423 189.762207 86.1102423 191 87.3114142 191 87.3114142 183.104492zM89.7577032 191L91.0174689 191 91.0174689 179.969727 89.7577032 179.969727 89.7577032 191zM95.8953986 190.033203C97.1917853 190.033203 98.1512579 189.183594 98.1512579 188.055664L98.1512579 187.330566 96.0272345 187.469727C94.8260626 187.550293 94.2987189 187.967773 94.2987189 188.758789 94.2987189 189.564453 94.9798712 190.033203 95.8953986 190.033203zM95.6610236 191.13916C94.1302618 191.13916 92.9950079 190.230957 92.9950079 188.788086 92.9950079 187.374512 94.035047 186.561523 95.8734259 186.45166L98.1512579 186.3125 98.1512579 185.594727C98.1512579 184.620605 97.5433478 184.085938 96.3641486 184.085938 95.4193243 184.085938 94.7601446 184.444824 94.5843634 185.067383L93.3099493 185.067383C93.4784064 183.800293 94.7235236 182.965332 96.4080939 182.965332 98.3343634 182.965332 99.4110236 183.954102 99.4110236 185.594727L99.4110236 191 98.2098517 191 98.2098517 189.835449 98.0926642 189.835449C97.5799689 190.677734 96.7157111 191.13916 95.6610236 191.13916zM101.740125 191L102.999891 191 102.999891 186.107422C102.999891 184.994141 103.871473 184.188477 105.072645 184.188477 105.321668 184.188477 105.77577 184.232422 105.878309 184.261719L105.878309 183.001953C105.717176 182.97998 105.453504 182.965332 105.248426 182.965332 104.201063 182.965332 103.292859 183.507324 103.058484 184.276367L102.941297 184.276367 102.941297 183.104492 101.740125 183.104492 101.740125 191zM114.205945 191L115.524305 191 115.524305 180.431152 114.21327 180.431152 111.40077 182.452637 111.40077 183.844238 114.088758 181.895996 114.205945 181.895996 114.205945 191zM122.160047 191.249023C124.349988 191.249023 125.851453 189.78418 125.851453 187.638184 125.851453 185.558105 124.445203 184.100586 122.438367 184.100586 121.464246 184.100586 120.717176 184.400879 120.204481 185.001465L120.087293 185.001465 120.387586 181.610352 125.250867 181.610352 125.250867 180.431152 119.354871 180.431152 118.776258 186.422363 120.014051 186.422363C120.44618 185.667969 121.237195 185.23584 122.196668 185.23584 123.580945 185.23584 124.533094 186.224609 124.533094 187.674805 124.533094 189.125 123.58827 190.091797 122.174695 190.091797 120.929578 190.091797 120.021375 189.330078 119.904188 188.1875L118.607801 188.1875C118.724988 190.01123 120.160535 191.249023 122.160047 191.249023zM131.806043 182.965332C133.820203 182.965332 135.123914 184.569336 135.123914 187.052246 135.123914 189.520508 133.812879 191.13916 131.806043 191.13916 130.678113 191.13916 129.76991 190.648438 129.337781 189.813477L129.220594 189.813477 129.220594 193.636719 127.960828 193.636719 127.960828 183.104492 129.162 183.104492 129.162 184.422852 129.279188 184.422852C129.784559 183.514648 130.729383 182.965332 131.806043 182.965332zM131.50575 190.003906C132.955945 190.003906 133.820203 188.897949 133.820203 187.052246 133.820203 185.206543 132.955945 184.100586 131.513074 184.100586 130.084852 184.100586 129.183973 185.23584 129.183973 187.052246 129.183973 188.861328 130.084852 190.003906 131.50575 190.003906zM139.533094 188.019043L141.40077 191 142.89491 191 140.177625 187.000977 142.858289 183.104492 141.430067 183.104492 139.577039 186.041504 139.459852 186.041504 137.584852 183.104492 136.083387 183.104492 138.81532 187.052246 136.112684 191 137.540906 191 139.415906 188.019043 139.533094 188.019043zM63.1258673 79.6679688L55.3592657 79.6679688 55.3592657 65.4990234 53.8983282 65.4990234 53.8983282 81 63.1258673 81 63.1258673 79.6679688zM65.0702032 81L66.4989142 81 66.4989142 69.828125 65.0702032 69.828125 65.0702032 81zM65.7791876 67.5722656C66.3055548 67.5722656 66.7352423 67.1533203 66.7352423 66.6269531 66.7352423 66.1113281 66.3055548 65.6923828 65.7791876 65.6923828 65.2635626 65.6923828 64.8338751 66.1113281 64.8338751 66.6269531 64.8338751 67.1533203 65.2635626 67.5722656 65.7791876 67.5722656zM73.4598517 79.7861328C75.6082892 79.7861328 77.0584845 78.0029297 77.0584845 75.3818359 77.0584845 72.7714844 75.6082892 70.9667969 73.4598517 70.9667969 71.3543829 70.9667969 69.9471564 72.7392578 69.9471564 75.3925781 69.9471564 78.0351562 71.3543829 79.7861328 73.4598517 79.7861328zM73.5995001 85.1357422C71.1610236 85.1357422 69.3241095 83.7929688 69.0125861 82.03125L70.4842657 82.03125C70.8495001 83.1269531 72.0418829 83.9111328 73.6639532 83.9111328 75.7586798 83.9111328 77.0584845 82.6972656 77.0584845 80.8710938L77.0584845 78.6259766 77.0262579 78.6259766C76.4246954 80.0654297 74.9852423 81.0537109 73.2020392 81.0537109 70.3875861 81.0537109 68.4862189 78.7763672 68.4862189 75.3818359 68.4862189 71.9765625 70.3983282 69.6992188 73.2342657 69.6992188 75.0174689 69.6992188 76.4461798 70.6767578 77.1014532 72.1376953L77.1336798 72.1376953 77.1336798 69.828125 78.4871954 69.828125 78.4871954 80.8173828C78.4871954 83.4169922 76.5858282 85.1357422 73.5995001 85.1357422zM81.0330939 81L82.4618048 81 82.4618048 74.4902344C82.4618048 72.3847656 83.7616095 70.9667969 85.7703986 70.9667969 87.6610236 70.9667969 88.7459845 72.1376953 88.7459845 74.0820312L88.7459845 81 90.1746954 81 90.1746954 73.8349609C90.1746954 71.3427734 88.6278204 69.6992188 86.1786017 69.6992188 84.3953986 69.6992188 83.1063361 70.515625 82.4940314 71.9228516L82.4618048 71.9228516 82.4618048 65.4990234 81.0330939 65.4990234 81.0330939 81zM93.1717657 67.0351562L93.1717657 69.828125 91.5067267 69.828125 91.5067267 71.0097656 93.1717657 71.0097656 93.1717657 78.25C93.1717657 80.2587891 93.9237189 81.0537109 95.7928595 81.0537109 96.0936407 81.0537109 96.6952032 81.0322266 96.8455939 80.9892578L96.8455939 79.7861328C96.7596564 79.796875 96.222547 79.8183594 96.0721564 79.8183594 95.0409064 79.8183594 94.5897345 79.3349609 94.5897345 78.1748047L94.5897345 71.0097656 96.7918829 71.0097656 96.7918829 69.828125 94.5897345 69.828125 94.5897345 67.0351562 93.1717657 67.0351562zM103.172742 69.8388672L103.172742 69.8496094 104.590711 69.8496094 104.590711 69.8388672C104.612195 67.9482422 106.105359 66.5410156 108.092664 66.5410156 109.994031 66.5410156 111.497938 67.8730469 111.497938 69.5703125 111.497938 70.9238281 110.939344 71.8476562 108.726453 74.1787109L103.247938 79.96875 103.247938 81 113.356336 81 113.356336 79.6894531 105.299695 79.6894531 105.299695 79.6464844 109.618055 75.1347656C112.19618 72.4599609 112.958875 71.1816406 112.958875 69.484375 112.958875 67.1103516 110.842664 65.2519531 108.135633 65.2519531 105.299695 65.2519531 103.194227 67.1962891 103.172742 69.8388672zM115.547742 69.8388672L115.547742 69.8496094 116.965711 69.8496094 116.965711 69.8388672C116.987195 67.9482422 118.480359 66.5410156 120.467664 66.5410156 122.369031 66.5410156 123.872938 67.8730469 123.872938 69.5703125 123.872938 70.9238281 123.314344 71.8476562 121.101453 74.1787109L115.622938 79.96875 115.622938 81 125.731336 81 125.731336 79.6894531 117.674695 79.6894531 117.674695 79.6464844 121.993055 75.1347656C124.57118 72.4599609 125.333875 71.1816406 125.333875 69.484375 125.333875 67.1103516 123.217664 65.2519531 120.510633 65.2519531 117.674695 65.2519531 115.569227 67.1962891 115.547742 69.8388672zM133.143445 69.6992188C135.968641 69.6992188 137.902234 71.9980469 137.902234 75.4140625 137.902234 78.8300781 135.979383 81.1289062 133.175672 81.1289062 131.381727 81.1289062 129.985242 80.1513672 129.372938 78.7011719L129.329969 78.7011719 129.329969 84.6953125 127.912 84.6953125 127.912 69.828125 129.254774 69.828125 129.254774 72.1376953 129.297742 72.1376953C129.888563 70.7197266 131.381727 69.6992188 133.143445 69.6992188zM132.896375 79.8613281C135.023328 79.8613281 136.452039 78.0888672 136.452039 75.4140625 136.452039 72.75 135.023328 70.9667969 132.896375 70.9667969 130.780164 70.9667969 129.329969 72.7822266 129.329969 75.4140625 129.329969 78.0458984 130.780164 79.8613281 132.896375 79.8613281zM143.38075 76.4130859L146.442274 81 148.042859 81 144.175672 75.328125 148.075086 69.828125 146.4745 69.828125 143.423719 74.3076172 143.391492 74.3076172 140.329969 69.828125 138.718641 69.828125 142.59657 75.3818359 138.675672 81 140.265516 81 143.348524 76.4130859 143.38075 76.4130859z"/>
    <path fill="#737373" d="M4.28 19.11C6.04 19.11 7.73 19.66 7.73 22.52 7.73 25.33 5.98 26 4.49 26L2.84 26 2.84 19.11 4.28 19.11zM4.49 19.87L3.79 19.87 3.79 25.25 4.56 25.25C5.64 25.25 6.72 24.79 6.72 22.52 6.72 20.19 5.59 19.87 4.49 19.87zM9.68 18.2C9.3 18.2 9.04 18.47 9.04 18.83 9.04 19.18 9.3 19.45 9.68 19.45 10.07 19.45 10.33 19.18 10.33 18.83 10.33 18.47 10.07 18.2 9.68 18.2zM10.15 20.73L9.23 20.73 9.23 26 10.15 26 10.15 20.73zM13.48 20.61C12.39 20.61 11.58 21.22 11.58 22.06 11.58 22.8 12.03 23.29 13.17 23.59 14.19 23.86 14.45 24.06 14.45 24.58 14.45 25.08 14.01 25.38 13.32 25.38 12.75 25.38 12.26 25.19 11.84 24.87L11.35 25.43C11.81 25.83 12.45 26.12 13.34 26.12 14.41 26.12 15.42 25.62 15.42 24.52 15.42 23.6 14.78 23.16 13.67 22.88 12.82 22.66 12.54 22.46 12.54 22.03 12.54 21.61 12.91 21.34 13.51 21.34 14 21.34 14.41 21.49 14.88 21.79L15.27 21.21C14.77 20.83 14.22 20.61 13.48 20.61zM19.14 20.61C20.54 20.61 21.09 21.7 21.09 23.36 21.09 24.96 20.38 26.12 19.02 26.12 18.45 26.12 17.98 25.93 17.64 25.52L17.64 28.02 16.72 28.13 16.72 20.73 17.51 20.73 17.58 21.44C17.97 20.9 18.54 20.61 19.14 20.61zM18.8 25.37C19.64 25.37 20.1 24.74 20.1 23.36 20.1 21.99 19.7 21.34 18.91 21.34 18.35 21.34 17.92 21.74 17.64 22.16L17.64 24.73C17.91 25.14 18.32 25.37 18.8 25.37zM23.71 26.12C23.98 26.12 24.24 26.05 24.44 25.94L24.2 25.3C24.1 25.34 23.99 25.36 23.86 25.36 23.62 25.36 23.53 25.22 23.53 24.94L23.53 18.5 22.61 18.61 22.61 24.96C22.61 25.71 23.04 26.12 23.71 26.12zM29.14 24.77C29.14 25.23 29.31 25.38 29.58 25.48L29.37 26.12C28.84 26.06 28.5 25.85 28.34 25.33 27.97 25.88 27.41 26.12 26.77 26.12 25.72 26.12 25.09 25.47 25.09 24.53 25.09 23.4 25.94 22.79 27.41 22.79L28.22 22.79 28.22 22.4C28.22 21.64 27.85 21.36 27.12 21.36 26.73 21.36 26.24 21.46 25.7 21.64L25.47 20.97C26.12 20.73 26.7 20.61 27.29 20.61 28.56 20.61 29.14 21.26 29.14 22.36L29.14 24.77zM26.98 25.43C27.52 25.43 27.92 25.16 28.22 24.61L28.22 23.4 27.53 23.4C26.56 23.4 26.07 23.76 26.07 24.48 26.07 25.1 26.38 25.43 26.98 25.43zM34.9 20.73L33.95 20.73 32.57 25.33 31.16 20.73 30.18 20.73 31.95 26 32.26 26C31.96 26.82 31.66 27.23 30.59 27.41L30.69 28.13C32.15 27.97 32.77 27.15 33.14 26.03L34.9 20.73zM20.04 76.11L15.12 76.11 15.12 76.92 17.08 76.92 17.08 83 18.03 83 18.03 76.92 19.94 76.92 20.04 76.11zM21.54 75.2C21.16 75.2 20.9 75.47 20.9 75.83 20.9 76.18 21.16 76.45 21.54 76.45 21.93 76.45 22.19 76.18 22.19 75.83 22.19 75.47 21.93 75.2 21.54 75.2zM22.01 77.73L21.09 77.73 21.09 83 22.01 83 22.01 77.73zM26.22 82.13C25.96 82.29 25.75 82.36 25.52 82.36 25.06 82.36 24.89 82.11 24.89 81.58L24.89 78.44 26.04 78.44 26.14 77.73 24.89 77.73 24.89 76.43 23.97 76.54 23.97 77.73 23.05 77.73 23.05 78.44 23.97 78.44 23.97 81.62C23.97 82.6 24.5 83.12 25.39 83.12 25.84 83.12 26.22 83 26.57 82.76L26.22 82.13zM28.57 83.12C28.84 83.12 29.1 83.05 29.3 82.94L29.06 82.3C28.96 82.34 28.85 82.36 28.72 82.36 28.48 82.36 28.39 82.22 28.39 81.94L28.39 75.5 27.47 75.61 27.47 81.96C27.47 82.71 27.9 83.12 28.57 83.12zM34.43 80.21C34.43 80.39 34.42 80.56 34.41 80.68L31.05 80.68C31.14 81.9 31.71 82.37 32.47 82.37 32.99 82.37 33.38 82.23 33.84 81.91L34.24 82.46C33.72 82.87 33.13 83.12 32.4 83.12 30.93 83.12 30.07 82.09 30.07 80.42 30.07 78.78 30.9 77.61 32.26 77.61 33.68 77.61 34.43 78.6 34.43 80.21zM33.52 80L33.52 79.94C33.52 78.91 33.11 78.34 32.28 78.34 31.58 78.34 31.12 78.83 31.05 80L33.52 80zM3.3 261.99C1.74 261.99.44 263.22.44 265.55.44 267.87 1.65 269.12 3.32 269.12 4.25 269.12 4.92 268.74 5.29 268.35L4.81 267.74C4.42 268.03 4 268.32 3.35 268.32 2.28 268.32 1.45 267.54 1.45 265.55 1.45 263.47 2.32 262.77 3.36 262.77 3.84 262.77 4.26 262.93 4.69 263.28L5.21 262.67C4.66 262.23 4.17 261.99 3.3 261.99zM9.99 267.77C9.99 268.23 10.16 268.38 10.43 268.48L10.22 269.12C9.69 269.06 9.35 268.85 9.19 268.33 8.82 268.88 8.26 269.12 7.62 269.12 6.57 269.12 5.94 268.47 5.94 267.53 5.94 266.4 6.79 265.79 8.26 265.79L9.07 265.79 9.07 265.4C9.07 264.64 8.7 264.36 7.97 264.36 7.58 264.36 7.09 264.46 6.55 264.64L6.32 263.97C6.97 263.73 7.55 263.61 8.14 263.61 9.41 263.61 9.99 264.26 9.99 265.36L9.99 267.77zM7.83 268.43C8.37 268.43 8.77 268.16 9.07 267.61L9.07 266.4 8.38 266.4C7.41 266.4 6.92 266.76 6.92 267.48 6.92 268.1 7.23 268.43 7.83 268.43zM14.3 263.61C15.7 263.61 16.25 264.7 16.25 266.36 16.25 267.96 15.54 269.12 14.18 269.12 13.61 269.12 13.14 268.93 12.8 268.52L12.8 271.02 11.88 271.13 11.88 263.73 12.67 263.73 12.74 264.44C13.13 263.9 13.7 263.61 14.3 263.61zM13.96 268.37C14.8 268.37 15.26 267.74 15.26 266.36 15.26 264.99 14.86 264.34 14.07 264.34 13.51 264.34 13.08 264.74 12.8 265.16L12.8 267.73C13.07 268.14 13.48 268.37 13.96 268.37zM20.13 268.13C19.87 268.29 19.66 268.36 19.43 268.36 18.97 268.36 18.8 268.11 18.8 267.58L18.8 264.44 19.95 264.44 20.05 263.73 18.8 263.73 18.8 262.43 17.88 262.54 17.88 263.73 16.96 263.73 16.96 264.44 17.88 264.44 17.88 267.62C17.88 268.6 18.41 269.12 19.3 269.12 19.75 269.12 20.13 269 20.48 268.76L20.13 268.13zM21.88 261.2C21.5 261.2 21.24 261.47 21.24 261.83 21.24 262.18 21.5 262.45 21.88 262.45 22.27 262.45 22.53 262.18 22.53 261.83 22.53 261.47 22.27 261.2 21.88 261.2zM22.35 263.73L21.43 263.73 21.43 269 22.35 269 22.35 263.73zM26.23 263.61C27.73 263.61 28.57 264.69 28.57 266.36 28.57 267.99 27.71 269.12 26.22 269.12 24.72 269.12 23.87 268.04 23.87 266.37 23.87 264.74 24.73 263.61 26.23 263.61zM26.23 264.35C25.35 264.35 24.86 264.99 24.86 266.37 24.86 267.74 25.34 268.38 26.22 268.38 27.1 268.38 27.58 267.74 27.58 266.36 27.58 264.99 27.1 264.35 26.23 264.35zM32.57 263.61C31.88 263.61 31.32 263.97 30.96 264.51L30.88 263.73 30.09 263.73 30.09 269 31.01 269 31.01 265.26C31.36 264.7 31.76 264.33 32.35 264.33 32.86 264.33 33.18 264.56 33.18 265.35L33.18 269 34.1 269 34.1 265.22C34.1 264.22 33.54 263.61 32.57 263.61zM16.22 189.36C17.02 189.5 17.81 189.87 17.81 191.04 17.81 192.5 16.68 193 15.08 193L13.18 193 13.18 186.11 14.81 186.11C16.51 186.11 17.51 186.65 17.51 187.85 17.51 188.7 16.89 189.22 16.22 189.36zM14.91 186.86L14.13 186.86 14.13 189.03 15.17 189.03C15.94 189.03 16.54 188.65 16.54 187.92 16.54 187.07 15.93 186.86 14.91 186.86zM15.08 192.24C16.08 192.24 16.81 192.04 16.81 191.04 16.81 190.07 16.09 189.76 15.26 189.76L14.13 189.76 14.13 192.24 15.08 192.24zM21.19 187.61C22.69 187.61 23.53 188.69 23.53 190.36 23.53 191.99 22.67 193.12 21.18 193.12 19.68 193.12 18.83 192.04 18.83 190.37 18.83 188.74 19.69 187.61 21.19 187.61zM21.19 188.35C20.31 188.35 19.82 188.99 19.82 190.37 19.82 191.74 20.3 192.38 21.18 192.38 22.06 192.38 22.54 191.74 22.54 190.36 22.54 188.99 22.06 188.35 21.19 188.35zM28.21 185.5L29.13 185.61 29.13 193 28.32 193 28.23 192.27C27.89 192.8 27.36 193.12 26.71 193.12 25.43 193.12 24.72 192.03 24.72 190.39 24.72 188.78 25.5 187.61 26.79 187.61 27.41 187.61 27.86 187.89 28.21 188.26L28.21 185.5zM26.91 192.39C27.5 192.39 27.86 192.1 28.21 191.61L28.21 189.03C27.88 188.61 27.51 188.34 26.99 188.34 26.2 188.34 25.71 189 25.71 190.37 25.71 191.76 26.15 192.39 26.91 192.39zM34.9 187.73L33.95 187.73 32.57 192.33 31.16 187.73 30.18 187.73 31.95 193 32.26 193C31.96 193.82 31.66 194.23 30.59 194.41L30.69 195.13C32.15 194.97 32.77 194.15 33.14 193.03L34.9 187.73z"/>
  </g>
</svg>
