<svg xmlns="http://www.w3.org/2000/svg" width="316" height="302" style="background:#fff" viewBox="0 0 316 302">
  <g fill="none" fill-rule="evenodd">
    <rect width="234" height="364" fill="#0A84FF" transform="translate(81.983)"/>
    <path fill="#FFF" d="M102.964844,51 L102.964844,27.8935547 L104.560059,27.8935547 L104.560059,49.5498047 L113.825195,49.5498047 L113.825195,51 L102.964844,51 Z M118.481934,30.3427734 C118.159666,30.3427734 117.875001,30.2246106 117.62793,29.9882812 C117.380858,29.7519519 117.257324,29.4511737 117.257324,29.0859375 C117.257324,28.7314435 117.383544,28.4440929 117.635986,28.223877 C117.888429,28.003661 118.170409,27.8935547 118.481934,27.8935547 C118.814943,27.8935547 119.107665,28.0009755 119.360107,28.2158203 C119.61255,28.4306651 119.73877,28.7207013 119.73877,29.0859375 C119.73877,29.4296892 119.615236,29.7250964 119.368164,29.972168 C119.121093,30.2192395 118.825685,30.3427734 118.481934,30.3427734 Z M117.756836,51 L117.756836,34.5 L119.239258,34.5 L119.239258,51 L117.756836,51 Z M137.721191,49.7753906 C137.721191,52.8798983 137.04444,55.1518483 135.690918,56.5913086 C134.337396,58.0307689 132.231948,58.7504883 129.374512,58.7504883 C127.78466,58.7504883 126.146493,58.3315472 124.459961,57.4936523 L124.459961,55.9467773 C126.200204,56.9135791 127.849113,57.3969727 129.406738,57.3969727 C133.961449,57.3969727 136.23877,54.9907467 136.23877,50.1782227 L136.23877,48.0351562 L136.174316,48.0351562 C134.874505,50.2802847 132.892591,51.402832 130.228516,51.402832 C128.198232,51.402832 126.541266,50.6669995 125.257568,49.1953125 C123.973871,47.7236255 123.332031,45.6718882 123.332031,43.0400391 C123.332031,40.40819 124.024895,38.259774 125.410645,36.5947266 C126.796394,34.9296792 128.622547,34.097168 130.88916,34.097168 C133.316907,34.097168 135.078608,35.1015525 136.174316,37.1103516 L136.23877,37.1103516 L136.23877,34.5 L137.721191,34.5 L137.721191,49.7753906 Z M136.23877,40.8325195 C136.23877,39.3715747 135.747319,38.1093803 134.764404,37.0458984 C133.781489,35.9824166 132.500496,35.4506836 130.921387,35.4506836 C129.105948,35.4506836 127.645025,36.1328057 126.538574,37.4970703 C125.432123,38.8613349 124.878906,40.6660044 124.878906,42.9111328 C124.878906,45.1670035 125.38647,46.920648 126.401611,48.1721191 C127.416753,49.4235902 128.756828,50.0493164 130.421875,50.0493164 C132.194345,50.0493164 133.606928,49.4746151 134.659668,48.3251953 C135.712408,47.1757755 136.23877,45.768563 136.23877,44.1035156 L136.23877,40.8325195 Z M154.221191,51 L154.221191,41.1064453 C154.221191,39.1513574 153.866703,37.7199752 153.157715,36.8122559 C152.448727,35.9045365 151.342293,35.4506836 149.838379,35.4506836 C148.420403,35.4506836 147.174322,36.0039007 146.100098,37.1103516 C145.025874,38.2168024 144.48877,39.8012592 144.48877,41.8637695 L144.48877,51 L143.006348,51 L143.006348,26.5722656 L144.48877,26.5722656 L144.48877,37.4648438 L144.553223,37.4648438 C145.853034,35.2197153 147.74364,34.097168 150.225098,34.097168 C152.00831,34.097168 153.367183,34.6718693 154.301758,35.8212891 C155.236333,36.9707089 155.703613,38.6196182 155.703613,40.7680664 L155.703613,51 L154.221191,51 Z M167.192383,50.7744141 C166.418941,51.1396503 165.693851,51.3222656 165.01709,51.3222656 C162.578601,51.3222656 161.359375,49.8613427 161.359375,46.9394531 L161.359375,35.8535156 L158.394531,35.8535156 L158.394531,34.5 L161.359375,34.5 L161.359375,30.2138672 C161.595704,30.1279293 161.842772,30.0419926 162.100586,29.9560547 C162.3584,29.880859 162.605468,29.8002934 162.841797,29.7143555 L162.841797,34.5 L167.192383,34.5 L167.192383,35.8535156 L162.841797,35.8535156 L162.841797,46.7460938 C162.841797,47.8847713 163.021727,48.709226 163.381592,49.2194824 C163.741457,49.7297389 164.35107,49.9848633 165.210449,49.9848633 C165.822757,49.9848633 166.483395,49.7861348 167.192383,49.3886719 L167.192383,50.7744141 Z M178.713379,50.1782227 L178.713379,48.4863281 C180.475106,49.5283255 182.134758,50.0493164 183.692383,50.0493164 C185.550791,50.0493164 187.006342,49.5739794 188.059082,48.623291 C189.111822,47.6726027 189.638184,46.4292069 189.638184,44.8930664 C189.638184,43.1850501 189.033942,41.8906294 187.825439,41.0097656 C186.616937,40.1289018 184.895519,39.6884766 182.661133,39.6884766 L180.888672,39.6884766 L180.888672,38.3349609 L182.467773,38.3349609 C184.530284,38.3349609 186.101313,37.8972212 187.180908,37.0217285 C188.260503,36.1462359 188.800293,34.9082111 188.800293,33.3076172 C188.800293,31.9218681 188.408207,30.8342325 187.624023,30.0446777 C186.83984,29.255123 185.695808,28.8603516 184.191895,28.8603516 C182.741692,28.8603516 181.221688,29.3652293 179.631836,30.375 L179.631836,28.7958984 C181.372079,27.9365191 182.967278,27.5068359 184.41748,27.5068359 C186.243661,27.5068359 187.691157,28.0009716 188.76001,28.9892578 C189.828863,29.977544 190.363281,31.2880778 190.363281,32.9208984 C190.363281,36.0468906 188.864761,38.0341754 185.867676,38.8828125 L185.867676,38.9472656 C187.479012,39.1083992 188.768062,39.7072702 189.734863,40.7438965 C190.701665,41.7805228 191.185059,43.088371 191.185059,44.6674805 C191.185059,46.6870218 190.486823,48.3144469 189.090332,49.5498047 C187.693841,50.7851624 185.8838,51.402832 183.660156,51.402832 C181.941398,51.402832 180.292488,50.994633 178.713379,50.1782227 Z M195.712891,50.1782227 L195.712891,48.4863281 C197.474618,49.5283255 199.13427,50.0493164 200.691895,50.0493164 C202.550302,50.0493164 204.005854,49.5739794 205.058594,48.623291 C206.111333,47.6726027 206.637695,46.4292069 206.637695,44.8930664 C206.637695,43.1850501 206.033453,41.8906294 204.824951,41.0097656 C203.616449,40.1289018 201.895031,39.6884766 199.660645,39.6884766 L197.888184,39.6884766 L197.888184,38.3349609 L199.467285,38.3349609 C201.529795,38.3349609 203.100825,37.8972212 204.18042,37.0217285 C205.260015,36.1462359 205.799805,34.9082111 205.799805,33.3076172 C205.799805,31.9218681 205.407719,30.8342325 204.623535,30.0446777 C203.839352,29.255123 202.69532,28.8603516 201.191406,28.8603516 C199.741204,28.8603516 198.221199,29.3652293 196.631348,30.375 L196.631348,28.7958984 C198.371591,27.9365191 199.96679,27.5068359 201.416992,27.5068359 C203.243173,27.5068359 204.690668,28.0009716 205.759521,28.9892578 C206.828374,29.977544 207.362793,31.2880778 207.362793,32.9208984 C207.362793,36.0468906 205.864273,38.0341754 202.867188,38.8828125 L202.867188,38.9472656 C204.478524,39.1083992 205.767573,39.7072702 206.734375,40.7438965 C207.701177,41.7805228 208.18457,43.088371 208.18457,44.6674805 C208.18457,46.6870218 207.486335,48.3144469 206.089844,49.5498047 C204.693352,50.7851624 202.883312,51.402832 200.659668,51.402832 C198.940909,51.402832 197.292,50.994633 195.712891,50.1782227 Z M215.048828,48.0673828 L214.984375,48.0673828 L214.984375,58.5893555 L213.501953,58.5893555 L213.501953,34.5 L214.984375,34.5 L214.984375,37.8999023 L215.048828,37.8999023 C215.639651,36.6860291 216.48559,35.7487826 217.58667,35.0881348 C218.68775,34.4274869 219.898919,34.097168 221.220215,34.097168 C223.314952,34.097168 224.950434,34.8195729 226.126709,36.2644043 C227.302984,37.7092357 227.891113,39.6723509 227.891113,42.1538086 C227.891113,44.9145646 227.217048,47.1462317 225.868896,48.848877 C224.520745,50.5515222 222.740245,51.402832 220.527344,51.402832 C218.056628,51.402832 216.230475,50.2910267 215.048828,48.0673828 Z M214.984375,41.9282227 L214.984375,44.0068359 C214.984375,45.6611411 215.505366,47.0817812 216.547363,48.2687988 C217.589361,49.4558165 218.958976,50.0493164 220.65625,50.0493164 C222.342782,50.0493164 223.712397,49.3269115 224.765137,47.8820801 C225.817876,46.4372486 226.344238,44.538586 226.344238,42.1860352 C226.344238,40.1235248 225.860845,38.4853576 224.894043,37.2714844 C223.927241,36.0576111 222.638192,35.4506836 221.026855,35.4506836 C219.103994,35.4506836 217.616216,36.0952084 216.563477,37.3842773 C215.510737,38.6733463 214.984375,40.1879796 214.984375,41.9282227 Z M237.091797,42.9111328 L242.473633,51 L240.588379,51 L236.237793,44.0390625 L236.17334,44.0390625 L235.593262,44.9575195 C235.518066,45.0864264 235.426758,45.2314445 235.319336,45.3925781 L231.677734,51 L229.873047,51 L235.383789,42.9433594 L229.969727,34.5 L231.709961,34.5 L235.383789,40.4135742 C235.856448,41.1762733 236.141113,41.6489249 236.237793,41.831543 L236.302246,41.831543 L237.124023,40.4780273 L240.958984,34.5 L242.699219,34.5 L237.091797,42.9111328 Z"/>
    <path fill="#0C0C0D" d="M19.263 42.017C21.629 42.017 23.865 42.745 23.865 46.463 23.865 50.103 21.642 51 19.497 51L17.053 51 17.053 42.017 19.263 42.017zM18.769 43.304L18.769 49.713 19.614 49.713C20.953 49.713 22.058 49.115 22.058 46.463 22.058 43.759 20.888 43.304 19.562 43.304L18.769 43.304zM26.244 40.639C25.633 40.639 25.204 41.081 25.204 41.653 25.204 42.212 25.633 42.654 26.244 42.654 26.868 42.654 27.297 42.212 27.297 41.653 27.297 41.081 26.868 40.639 26.244 40.639zM27.089 51L27.089 44.123 25.425 44.123 25.425 51 27.089 51zM31.262 43.928C29.663 43.928 28.61 44.786 28.61 45.93 28.61 46.944 29.234 47.62 30.651 48.01 31.938 48.374 32.211 48.556 32.211 49.154 32.211 49.635 31.73 49.96 30.976 49.96 30.287 49.96 29.65 49.687 29.13 49.271L28.285 50.22C28.922 50.792 29.845 51.195 31.028 51.195 32.601 51.195 33.927 50.441 33.927 49.011 33.927 47.789 33.134 47.217 31.73 46.84 30.56 46.515 30.287 46.307 30.287 45.852 30.287 45.436 30.664 45.163 31.366 45.163 31.938 45.163 32.484 45.358 33.056 45.748L33.706 44.747C33.056 44.24 32.25 43.928 31.262 43.928zM38.815 43.928C40.635 43.928 41.389 45.345 41.389 47.542 41.389 49.648 40.414 51.195 38.672 51.195 37.97 51.195 37.372 50.948 36.943 50.441L36.943 53.652 35.279 53.834 35.279 44.123 36.735 44.123 36.826 44.968C37.372 44.253 38.113 43.928 38.815 43.928zM38.204 49.921C39.114 49.921 39.647 49.219 39.647 47.555 39.647 45.813 39.179 45.176 38.321 45.176 37.749 45.176 37.268 45.579 36.943 46.112L36.943 49.206C37.268 49.687 37.684 49.921 38.204 49.921zM44.626 49.323L44.626 41.185 42.962 41.367 42.962 49.44C42.962 50.584 43.547 51.195 44.574 51.195 45.003 51.195 45.419 51.104 45.757 50.961L45.406 49.791C45.289 49.83 45.146 49.856 45.016 49.856 44.743 49.856 44.626 49.7 44.626 49.323zM51.945 49.18C51.945 49.739 52.127 49.934 52.465 50.064L52.114 51.169C51.36 51.104 50.866 50.831 50.593 50.168 50.112 50.896 49.358 51.195 48.539 51.195 47.161 51.195 46.316 50.324 46.316 49.076 46.316 47.581 47.447 46.775 49.449 46.775L50.307 46.775 50.307 46.385C50.307 45.488 49.904 45.189 49.02 45.189 48.552 45.189 47.889 45.319 47.2 45.553L46.81 44.422C47.655 44.097 48.526 43.928 49.306 43.928 51.139 43.928 51.945 44.773 51.945 46.294L51.945 49.18zM48.981 49.986C49.566 49.986 49.995 49.687 50.307 49.141L50.307 47.75 49.618 47.75C48.539 47.75 48.006 48.14 48.006 48.946 48.006 49.609 48.344 49.986 48.981 49.986zM57.158 51.026L59.394 44.123 57.678 44.123 56.118 49.895 54.623 44.123 52.855 44.123 55.039 51 55.611 51C55.221 51.975 54.779 52.417 53.414 52.625L53.583 53.834C55.624 53.678 56.638 52.638 57.158 51.026zM22.643 91.382L22.825 90.017 16.156 90.017 16.156 91.382 18.574 91.382 18.574 99 20.303 99 20.303 91.382 22.643 91.382zM24.97 88.639C24.359 88.639 23.93 89.081 23.93 89.653 23.93 90.212 24.359 90.654 24.97 90.654 25.594 90.654 26.023 90.212 26.023 89.653 26.023 89.081 25.594 88.639 24.97 88.639zM25.815 99L25.815 92.123 24.151 92.123 24.151 99 25.815 99zM31.756 98.675L31.171 97.596C30.872 97.778 30.612 97.856 30.352 97.856 29.845 97.856 29.624 97.583 29.624 96.907L29.624 93.319 31.054 93.319 31.223 92.123 29.624 92.123 29.624 90.407 27.96 90.602 27.96 92.123 26.881 92.123 26.881 93.319 27.96 93.319 27.96 96.946C27.96 98.415 28.675 99.182 30.027 99.195 30.638 99.195 31.262 99.026 31.756 98.675zM34.291 97.323L34.291 89.185 32.627 89.367 32.627 97.44C32.627 98.584 33.212 99.195 34.239 99.195 34.668 99.195 35.084 99.104 35.422 98.961L35.071 97.791C34.954 97.83 34.811 97.856 34.681 97.856 34.408 97.856 34.291 97.7 34.291 97.323zM42.039 95.399C42.039 95.62 42.013 95.893 42 96.075L37.684 96.075C37.801 97.479 38.464 97.934 39.374 97.934 39.985 97.934 40.492 97.739 41.09 97.323L41.779 98.272C41.103 98.818 40.271 99.195 39.231 99.195 37.099 99.195 35.955 97.778 35.955 95.607 35.955 93.514 37.06 91.928 39.01 91.928 40.934 91.928 42.039 93.228 42.039 95.399zM40.388 94.996L40.388 94.918C40.388 93.787 39.985 93.111 39.049 93.111 38.269 93.111 37.775 93.631 37.684 94.996L40.388 94.996zM21.46 187.242C22.487 187.437 23.514 187.918 23.514 189.413 23.514 191.389 21.941 192 19.757 192L17.053 192 17.053 183.017 19.406 183.017C21.72 183.017 23.124 183.667 23.124 185.305 23.124 186.423 22.318 187.06 21.46 187.242zM18.769 184.278L18.769 186.709 19.822 186.709C20.758 186.709 21.369 186.293 21.369 185.448 21.369 184.538 20.745 184.278 19.575 184.278L18.769 184.278zM19.77 190.713C20.901 190.713 21.72 190.479 21.72 189.348 21.72 188.269 20.953 187.905 19.952 187.905L18.769 187.905 18.769 190.713 19.77 190.713zM27.778 184.928C29.806 184.928 31.002 186.306 31.002 188.555 31.002 190.726 29.793 192.195 27.765 192.195 25.737 192.195 24.528 190.817 24.528 188.555 24.528 186.397 25.737 184.928 27.778 184.928zM27.778 186.189C26.803 186.189 26.283 186.93 26.283 188.555 26.283 190.206 26.79 190.934 27.765 190.934 28.74 190.934 29.247 190.193 29.247 188.555 29.247 186.917 28.74 186.189 27.778 186.189zM38.347 182.367L38.347 192 36.878 192 36.761 191.129C36.345 191.753 35.682 192.195 34.798 192.195 33.082 192.195 32.185 190.752 32.185 188.568 32.185 186.449 33.238 184.928 34.98 184.928 35.682 184.928 36.254 185.24 36.683 185.669L36.683 182.185 38.347 182.367zM35.266 190.934C35.877 190.934 36.293 190.635 36.683 190.05L36.683 186.904C36.319 186.462 35.942 186.176 35.383 186.176 34.512 186.176 33.94 186.904 33.94 188.555 33.94 190.323 34.447 190.934 35.266 190.934zM43.677 192.026L45.913 185.123 44.197 185.123 42.637 190.895 41.142 185.123 39.374 185.123 41.558 192 42.13 192C41.74 192.975 41.298 193.417 39.933 193.625L40.102 194.834C42.143 194.678 43.157 193.638 43.677 192.026zM20.459 239.822C18.275 239.822 16.559 241.473 16.559 244.489 16.559 247.544 18.184 249.195 20.511 249.195 21.733 249.195 22.669 248.662 23.215 248.103L22.409 247.063C21.889 247.453 21.356 247.817 20.589 247.817 19.302 247.817 18.366 246.855 18.366 244.489 18.366 242.058 19.328 241.148 20.563 241.148 21.187 241.148 21.72 241.369 22.227 241.798L23.111 240.771C22.383 240.16 21.642 239.822 20.459 239.822zM29.468 247.18C29.468 247.739 29.65 247.934 29.988 248.064L29.637 249.169C28.883 249.104 28.389 248.831 28.116 248.168 27.635 248.896 26.881 249.195 26.062 249.195 24.684 249.195 23.839 248.324 23.839 247.076 23.839 245.581 24.97 244.775 26.972 244.775L27.83 244.775 27.83 244.385C27.83 243.488 27.427 243.189 26.543 243.189 26.075 243.189 25.412 243.319 24.723 243.553L24.333 242.422C25.178 242.097 26.049 241.928 26.829 241.928 28.662 241.928 29.468 242.773 29.468 244.294L29.468 247.18zM26.504 247.986C27.089 247.986 27.518 247.687 27.83 247.141L27.83 245.75 27.141 245.75C26.062 245.75 25.529 246.14 25.529 246.946 25.529 247.609 25.867 247.986 26.504 247.986zM35.019 241.928C36.839 241.928 37.593 243.345 37.593 245.542 37.593 247.648 36.618 249.195 34.876 249.195 34.174 249.195 33.576 248.948 33.147 248.441L33.147 251.652 31.483 251.834 31.483 242.123 32.939 242.123 33.03 242.968C33.576 242.253 34.317 241.928 35.019 241.928zM34.408 247.921C35.318 247.921 35.851 247.219 35.851 245.555 35.851 243.813 35.383 243.176 34.525 243.176 33.953 243.176 33.472 243.579 33.147 244.112L33.147 247.206C33.472 247.687 33.888 247.921 34.408 247.921zM43.17 248.675L42.585 247.596C42.286 247.778 42.026 247.856 41.766 247.856 41.259 247.856 41.038 247.583 41.038 246.907L41.038 243.319 42.468 243.319 42.637 242.123 41.038 242.123 41.038 240.407 39.374 240.602 39.374 242.123 38.295 242.123 38.295 243.319 39.374 243.319 39.374 246.946C39.374 248.415 40.089 249.182 41.441 249.195 42.052 249.195 42.676 249.026 43.17 248.675zM44.925 238.639C44.314 238.639 43.885 239.081 43.885 239.653 43.885 240.212 44.314 240.654 44.925 240.654 45.549 240.654 45.978 240.212 45.978 239.653 45.978 239.081 45.549 238.639 44.925 238.639zM45.77 249L45.77 242.123 44.106 242.123 44.106 249 45.77 249zM50.58 241.928C52.608 241.928 53.804 243.306 53.804 245.555 53.804 247.726 52.595 249.195 50.567 249.195 48.539 249.195 47.33 247.817 47.33 245.555 47.33 243.397 48.539 241.928 50.58 241.928zM50.58 243.189C49.605 243.189 49.085 243.93 49.085 245.555 49.085 247.206 49.592 247.934 50.567 247.934 51.542 247.934 52.049 247.193 52.049 245.555 52.049 243.917 51.542 243.189 50.58 243.189zM59.03 241.928C58.159 241.928 57.47 242.331 56.937 243.02L56.807 242.123 55.364 242.123 55.364 249 57.028 249 57.028 244.216C57.431 243.579 57.873 243.176 58.471 243.176 58.991 243.176 59.316 243.423 59.316 244.281L59.316 249 60.98 249 60.98 244.021C60.98 242.708 60.265 241.928 59.03 241.928z"/>
    <path fill="#FFF" d="M101.396484 96.7441406C101.654298 96.937501 101.938963 97.1111646 102.250488 97.2651367 102.562013 97.4191088 102.880695 97.5480138 103.206543 97.6518555 103.532391 97.7556971 103.860024 97.8344724 104.189453 97.8881836 104.518882 97.9418948 104.833983 97.96875 105.134766 97.96875 106.302089 97.96875 107.175778 97.7431663 107.755859 97.2919922 108.33594 96.8408181 108.625977 96.1927126 108.625977 95.3476562 108.625977 94.9394511 108.557943 94.5831721 108.421875 94.2788086 108.285807 93.9744451 108.074546 93.68978 107.788086 93.4248047 107.501626 93.1598294 107.139976 92.8966484 106.703125 92.6352539 106.266274 92.3738594 105.750654 92.0784522 105.15625 91.7490234 104.497393 91.3909487 103.933433 91.0525732 103.464355 90.7338867 102.995278 90.4152002 102.612143 90.0893571 102.314941 89.7563477 102.017739 89.4233382 101.799317 89.0634785 101.659668 88.6767578 101.520019 88.2900371 101.450195 87.8496118 101.450195 87.3554688 101.450195 86.7324188 101.582681 86.1738306 101.847656 85.6796875 102.112632 85.1855444 102.470701 84.7648129 102.921875 84.4174805 103.373049 84.070148 103.901201 83.8033863 104.506348 83.6171875 105.111494 83.4309887 105.757809 83.3378906 106.445312 83.3378906 107.655605 83.3378906 108.668941 83.5061832 109.485352 83.8427734L109.485352 85.421875C108.575842 84.8990859 107.508795 84.6376953 106.28418 84.6376953 105.825844 84.6376953 105.394371 84.6931961 104.989746 84.8041992 104.585122 84.9152024 104.230633 85.0781239 103.92627 85.2929688 103.621906 85.5078136 103.382 85.7745752 103.206543 86.0932617 103.031086 86.4119482 102.943359 86.78255 102.943359 87.2050781 102.943359 87.6061218 103.002441 87.9516587 103.120605 88.2416992 103.23877 88.5317397 103.428547 88.8056628 103.689941 89.0634766 103.951336 89.3212904 104.295083 89.5773099 104.721191 89.831543 105.1473 90.085776 105.668291 90.3776025 106.28418 90.7070312 106.928714 91.050783 107.490883 91.3855778 107.970703 91.7114258 108.450523 92.0372738 108.849771 92.3774396 109.168457 92.7319336 109.487144 93.0864276 109.72526 93.4624004 109.882812 93.8598633 110.040365 94.2573262 110.119141 94.6995418 110.119141 95.1865234 110.119141 95.8597039 109.993816 96.4523086 109.743164 96.9643555 109.492512 97.4764023 109.141604 97.9007145 108.69043 98.2373047 108.239256 98.5738949 107.702152 98.8281241 107.079102 99 106.456052 99.1718759 105.772139 99.2578125 105.027344 99.2578125 104.783853 99.2578125 104.493817 99.2381187 104.157227 99.1987305 103.820636 99.1593423 103.48047 99.1020512 103.136719 99.0268555 102.792967 98.9516598 102.465334 98.8621424 102.153809 98.7583008 101.842284 98.6544591 101.589845 98.5416673 101.396484 98.4199219L101.396484 96.7441406zM113.739258 93.7470703C113.746419 94.4202508 113.835937 95.0253879 114.007812 95.5625 114.179688 96.0996121 114.426756 96.5543601 114.749023 96.9267578 115.071291 97.2991555 115.463377 97.5838206 115.925293 97.7807617 116.387209 97.9777028 116.9082 98.0761719 117.488281 98.0761719 118.72722 98.0761719 119.898106 97.642908 121.000977 96.7763672L121.000977 98.1298828C119.948237 98.8818397 118.67351 99.2578125 117.176758 99.2578125 116.439124 99.2578125 115.769534 99.1289075 115.167969 98.8710938 114.566403 98.61328 114.054364 98.2390975 113.631836 97.7485352 113.209308 97.2579728 112.883465 96.654626 112.654297 95.9384766 112.425129 95.2223271 112.310547 94.4059291 112.310547 93.4892578 112.310547 92.665686 112.435871 91.9029983 112.686523 91.2011719 112.937176 90.4993454 113.284503 89.8924179 113.728516 89.3803711 114.172528 88.8683243 114.69889 88.4672866 115.307617 88.1772461 115.916344 87.8872056 116.582353 87.7421875 117.305664 87.7421875 118.014652 87.7421875 118.641273 87.8657214 119.185547 88.112793 119.72982 88.3598645 120.186359 88.7125628 120.555176 89.1708984 120.923993 89.6292341 121.205077 90.1878222 121.398438 90.8466797 121.591798 91.5055371 121.688477 92.24316 121.688477 93.0595703L121.688477 93.7470703 113.739258 93.7470703zM120.270508 92.5439453C120.249023 91.3981062 119.976891 90.5100943 119.454102 89.8798828 118.931312 89.2496713 118.204432 88.9345703 117.273438 88.9345703 116.80794 88.9345703 116.376467 89.0169263 115.979004 89.1816406 115.581541 89.346355 115.232423 89.5844711 114.931641 89.8959961 114.630858 90.2075211 114.382 90.5870746 114.185059 91.034668 113.988118 91.4822614 113.850261 91.9853488 113.771484 92.5439453L120.270508 92.5439453zM138.209961 99L138.209961 92.5332031C138.209961 91.8743457 138.159831 91.3175478 138.05957 90.862793 137.959309 90.4080381 137.803549 90.0374363 137.592285 89.7509766 137.381021 89.4645168 137.112469 89.2568366 136.786621 89.1279297 136.460773 88.9990228 136.072268 88.9345703 135.621094 88.9345703 135.22005 88.9345703 134.840497 89.0294587 134.482422 89.2192383 134.124347 89.4090179 133.811036 89.6704085 133.54248 90.003418 133.273924 90.3364274 133.062664 90.7285134 132.908691 91.1796875 132.754719 91.6308616 132.677734 92.1178359 132.677734 92.640625L132.677734 99 131.302734 99 131.302734 92.3935547C131.302734 90.0875536 130.418303 88.9345703 128.649414 88.9345703 128.241209 88.9345703 127.861655 89.025878 127.510742 89.2084961 127.159829 89.3911142 126.85368 89.6471338 126.592285 89.9765625 126.330891 90.3059912 126.126791 90.7016578 125.97998 91.1635742 125.83317 91.6254906 125.759766 92.1357394 125.759766 92.6943359L125.759766 99 124.384766 99 124.384766 88 125.759766 88 125.759766 89.7832031 125.802734 89.7832031C126.576176 88.4225192 127.704094 87.7421875 129.186523 87.7421875 129.573244 87.7421875 129.938475 87.8012689 130.282227 87.9194336 130.625978 88.0375982 130.933918 88.2023101 131.206055 88.4135742 131.478191 88.6248383 131.712727 88.8772772 131.909668 89.1708984 132.106609 89.4645197 132.255208 89.7867821 132.355469 90.1376953 132.742189 89.3570925 133.245277 88.7626974 133.864746 88.3544922 134.484215 87.946287 135.184241 87.7421875 135.964844 87.7421875 138.378267 87.7421875 139.584961 89.2317559 139.584961 92.2109375L139.584961 99 138.209961 99zM143.570312 85.2177734C143.305337 85.2177734 143.076173 85.1246754 142.882812 84.9384766 142.689452 84.7522777 142.592773 84.515952 142.592773 84.2294922 142.592773 83.9501939 142.689452 83.7192392 142.882812 83.5366211 143.076173 83.354003 143.305337 83.2626953 143.570312 83.2626953 143.706381 83.2626953 143.835286 83.2859698 143.957031 83.3325195 144.078777 83.3790692 144.184407 83.4453121 144.273926 83.53125 144.363444 83.6171879 144.435058 83.7192377 144.48877 83.8374023 144.542481 83.955567 144.569336 84.0862623 144.569336 84.2294922 144.569336 84.3655606 144.544271 84.4944655 144.494141 84.6162109 144.44401 84.7379563 144.372396 84.8435868 144.279297 84.9331055 144.186197 85.0226241 144.080567 85.0924477 143.962402 85.1425781 143.844238 85.1927086 143.713542 85.2177734 143.570312 85.2177734zM142.893555 99L142.893555 88 144.268555 88 144.268555 99 142.893555 99zM147.813477 99L147.813477 82.7148438 149.188477 82.7148438 149.188477 99 147.813477 99zM153.410156 85.2177734C153.145181 85.2177734 152.916017 85.1246754 152.722656 84.9384766 152.529296 84.7522777 152.432617 84.515952 152.432617 84.2294922 152.432617 83.9501939 152.529296 83.7192392 152.722656 83.5366211 152.916017 83.354003 153.145181 83.2626953 153.410156 83.2626953 153.546225 83.2626953 153.67513 83.2859698 153.796875 83.3325195 153.91862 83.3790692 154.024251 83.4453121 154.11377 83.53125 154.203288 83.6171879 154.274902 83.7192377 154.328613 83.8374023 154.382324 83.955567 154.40918 84.0862623 154.40918 84.2294922 154.40918 84.3655606 154.384115 84.4944655 154.333984 84.6162109 154.283854 84.7379563 154.21224 84.8435868 154.119141 84.9331055 154.026041 85.0226241 153.920411 85.0924477 153.802246 85.1425781 153.684081 85.1927086 153.553386 85.2177734 153.410156 85.2177734zM152.733398 99L152.733398 88 154.108398 88 154.108398 99 152.733398 99zM166.741211 98.1513672C166.741211 100.192393 166.277511 101.705236 165.350098 102.689941 164.422684 103.674647 162.992197 104.166992 161.058594 104.166992 159.855463 104.166992 158.716802 103.89844 157.642578 103.361328L157.642578 101.964844C158.838548 102.630863 159.977208 102.963867 161.058594 102.963867 163.930353 102.963867 165.366211 101.445653 165.366211 98.4091797L165.366211 97.0878906 165.323242 97.0878906C164.478186 98.5345124 163.189136 99.2578125 161.456055 99.2578125 160.775713 99.2578125 160.154462 99.1324882 159.592285 98.8818359 159.030108 98.6311836 158.548505 98.2695336 158.147461 97.796875 157.746417 97.3242164 157.434897 96.7495151 157.212891 96.0727539 156.990884 95.3959927 156.879883 94.6315147 156.879883 93.7792969 156.879883 92.8769486 156.998046 92.0551795 157.234375 91.3139648 157.470704 90.5727502 157.807289 89.9371771 158.244141 89.4072266 158.680992 88.877276 159.209144 88.4672866 159.828613 88.1772461 160.448083 87.8872056 161.144527 87.7421875 161.917969 87.7421875 163.472013 87.7421875 164.607093 88.3723895 165.323242 89.6328125L165.366211 89.6328125 165.366211 88 166.741211 88 166.741211 98.1513672zM165.366211 92.3183594C165.366211 91.8600237 165.283855 91.4267599 165.119141 91.0185547 164.954426 90.6103495 164.725262 90.2522802 164.431641 89.9443359 164.138019 89.6363917 163.788902 89.3911142 163.384277 89.2084961 162.979653 89.025878 162.533857 88.9345703 162.046875 88.9345703 161.473955 88.9345703 160.956545 89.0455718 160.494629 89.2675781 160.032713 89.4895844 159.638836 89.8046855 159.312988 90.2128906 158.98714 90.6210958 158.736492 91.1170218 158.561035 91.7006836 158.385579 92.2843454 158.297852 92.9414026 158.297852 93.671875 158.297852 94.3450554 158.380208 94.9537733 158.544922 95.4980469 158.709636 96.0423204 158.942381 96.5042299 159.243164 96.8837891 159.543947 97.2633483 159.907387 97.5569651 160.333496 97.7646484 160.759605 97.9723318 161.234047 98.0761719 161.756836 98.0761719 162.301109 98.0761719 162.795245 97.9777028 163.239258 97.7807617 163.68327 97.5838206 164.062824 97.3116879 164.37793 96.9643555 164.693035 96.617023 164.936523 96.208824 165.108398 95.7397461 165.280274 95.2706682 165.366211 94.7640001 165.366211 94.2197266L165.366211 92.3183594zM177.708984 99L177.708984 92.5332031C177.708984 91.3014261 177.486981 90.3937204 177.042969 89.8100586 176.598956 89.2263968 175.907882 88.9345703 174.969727 88.9345703 174.525714 88.9345703 174.103192 89.0240876 173.702148 89.203125 173.301105 89.3821624 172.950197 89.6399723 172.649414 89.9765625 172.348631 90.3131527 172.108725 90.7231421 171.929688 91.206543 171.75065 91.6899438 171.661133 92.2359996 171.661133 92.8447266L171.661133 99 170.286133 99 170.286133 82.7148438 171.661133 82.7148438 171.661133 89.9013672 171.704102 89.9013672C172.563481 88.4619069 173.795239 87.7421875 175.399414 87.7421875 176.62403 87.7421875 177.544268 88.1181603 178.160156 88.8701172 178.776045 89.6220741 179.083984 90.732089 179.083984 92.2001953L179.083984 99 177.708984 99zM187.119141 98.8710938C186.646482 99.1074231 186.130862 99.2255859 185.572266 99.2255859 183.796215 99.2255859 182.908203 98.2015076 182.908203 96.1533203L182.908203 89.203125 180.974609 89.203125 180.974609 88 182.908203 88 182.908203 85.2285156 184.283203 84.7773438 184.283203 88 187.119141 88 187.119141 89.203125 184.283203 89.203125 184.283203 95.9384766C184.283203 96.683272 184.404947 97.220376 184.648438 97.5498047 184.891928 97.8792334 185.303708 98.0439453 185.883789 98.0439453 186.313479 98.0439453 186.725258 97.9150404 187.119141 97.6572266L187.119141 98.8710938zM202.136719 87.5488281C202.136719 87.0618465 202.063315 86.630373 201.916504 86.2543945 201.769693 85.8784161 201.563803 85.5633151 201.298828 85.309082 201.033853 85.054849 200.715171 84.8632819 200.342773 84.734375 199.970376 84.6054681 199.558596 84.5410156 199.107422 84.5410156 198.419918 84.5410156 197.759281 84.7039372 197.125488 85.0297852 196.491696 85.3556331 195.895511 85.7906874 195.336914 86.3349609L195.336914 84.8095703C195.881188 84.3440732 196.475583 83.9824232 197.120117 83.7246094 197.764652 83.4667956 198.491532 83.3378906 199.300781 83.3378906 199.429688 83.3378906 199.553222 83.345052 199.671387 83.359375 199.789551 83.373698 199.905924 83.3951821 200.020508 83.4238281 200.550458 83.4811201 201.032062 83.6153961 201.465332 83.8266602 201.898602 84.0379242 202.269204 84.3118473 202.577148 84.6484375 202.885093 84.9850277 203.123209 85.384275 203.291504 85.8461914 203.459799 86.3081078 203.543945 86.8219373 203.543945 87.3876953 203.543945 88.0465528 203.458009 88.6373672 203.286133 89.1601562 203.114257 89.6829453 202.868979 90.1645486 202.550293 90.6049805 202.231606 91.0454124 201.848472 91.4607728 201.400879 91.8510742 200.953286 92.2413756 200.453779 92.6334616 199.902344 93.0273438 199.286455 93.4713564 198.758303 93.8634423 198.317871 94.2036133 197.877439 94.5437843 197.512208 94.867837 197.222168 95.1757812 196.932127 95.4837255 196.711915 95.7916651 196.561523 96.0996094 196.411132 96.4075536 196.314453 96.7513002 196.271484 97.1308594 196.235677 97.2311203 196.212402 97.3313797 196.20166 97.4316406 196.190918 97.5319015 196.185547 97.642903 196.185547 97.7646484L203.855469 97.7646484 203.855469 99 194.735352 99 194.735352 98.2587891C194.735352 97.5712856 194.815917 96.9751002 194.977051 96.4702148 195.138184 95.9653295 195.390623 95.492678 195.734375 95.0522461 196.078127 94.6118142 196.518552 94.1731793 197.055664 93.7363281 197.592776 93.299477 198.237301 92.808922 198.989258 92.2646484 199.497724 91.8922507 199.948891 91.5323911 200.342773 91.1850586 200.736656 90.8377261 201.066079 90.4796568 201.331055 90.1108398 201.59603 89.7420229 201.796549 89.349937 201.932617 88.9345703 202.068686 88.5192037 202.136719 88.0572942 202.136719 87.5488281zM213.727539 87.5488281C213.727539 87.0618465 213.654135 86.630373 213.507324 86.2543945 213.360514 85.8784161 213.154624 85.5633151 212.889648 85.309082 212.624673 85.054849 212.305991 84.8632819 211.933594 84.734375 211.561196 84.6054681 211.149416 84.5410156 210.698242 84.5410156 210.010739 84.5410156 209.350101 84.7039372 208.716309 85.0297852 208.082516 85.3556331 207.486331 85.7906874 206.927734 86.3349609L206.927734 84.8095703C207.472008 84.3440732 208.066403 83.9824232 208.710938 83.7246094 209.355472 83.4667956 210.082353 83.3378906 210.891602 83.3378906 211.020508 83.3378906 211.144042 83.345052 211.262207 83.359375 211.380372 83.373698 211.496744 83.3951821 211.611328 83.4238281 212.141279 83.4811201 212.622882 83.6153961 213.056152 83.8266602 213.489423 84.0379242 213.860025 84.3118473 214.167969 84.6484375 214.475913 84.9850277 214.714029 85.384275 214.882324 85.8461914 215.050619 86.3081078 215.134766 86.8219373 215.134766 87.3876953 215.134766 88.0465528 215.048829 88.6373672 214.876953 89.1601562 214.705077 89.6829453 214.4598 90.1645486 214.141113 90.6049805 213.822427 91.0454124 213.439293 91.4607728 212.991699 91.8510742 212.544106 92.2413756 212.044599 92.6334616 211.493164 93.0273438 210.877276 93.4713564 210.349123 93.8634423 209.908691 94.2036133 209.46826 94.5437843 209.103029 94.867837 208.812988 95.1757812 208.522948 95.4837255 208.302735 95.7916651 208.152344 96.0996094 208.001952 96.4075536 207.905274 96.7513002 207.862305 97.1308594 207.826497 97.2311203 207.803223 97.3313797 207.79248 97.4316406 207.781738 97.5319015 207.776367 97.642903 207.776367 97.7646484L215.446289 97.7646484 215.446289 99 206.326172 99 206.326172 98.2587891C206.326172 97.5712856 206.406737 96.9751002 206.567871 96.4702148 206.729005 95.9653295 206.981444 95.492678 207.325195 95.0522461 207.668947 94.6118142 208.109372 94.1731793 208.646484 93.7363281 209.183596 93.299477 209.828121 92.808922 210.580078 92.2646484 211.088544 91.8922507 211.539712 91.5323911 211.933594 91.1850586 212.327476 90.8377261 212.6569 90.4796568 212.921875 90.1108398 213.18685 89.7420229 213.387369 89.349937 213.523438 88.9345703 213.659506 88.5192037 213.727539 88.0572942 213.727539 87.5488281zM219.96875 97.2275391L219.96875 104.05957 218.59375 104.05957 218.59375 88 219.96875 88 219.96875 90.1054688 220.011719 90.1054688C220.419924 89.3391889 220.96598 88.7537455 221.649902 88.3491211 222.333825 87.9444967 223.105464 87.7421875 223.964844 87.7421875 224.66667 87.7421875 225.295082 87.8693021 225.850098 88.1235352 226.405113 88.3777682 226.874184 88.7376279 227.257324 89.203125 227.640464 89.6686221 227.934081 90.2343717 228.138184 90.9003906 228.342286 91.5664096 228.444336 92.3147745 228.444336 93.1455078 228.444336 94.0550176 228.329754 94.8839481 228.100586 95.6323242 227.871418 96.3807004 227.541994 97.0234348 227.112305 97.5605469 226.682615 98.0976589 226.161624 98.5148097 225.549316 98.8120117 224.937009 99.1092137 224.247725 99.2578125 223.481445 99.2578125 221.934563 99.2578125 220.777999 98.5810615 220.011719 97.2275391L219.96875 97.2275391zM219.96875 94.4238281C219.96875 94.9251327 220.052896 95.3959939 220.221191 95.8364258 220.389487 96.2768577 220.624022 96.6635726 220.924805 96.996582 221.225587 97.3295915 221.589028 97.5927725 222.015137 97.7861328 222.441246 97.9794932 222.912107 98.0761719 223.427734 98.0761719 223.979169 98.0761719 224.476886 97.9597993 224.920898 97.7270508 225.364911 97.4943022 225.742674 97.1630881 226.054199 96.7333984 226.365724 96.3037088 226.605631 95.7845083 226.773926 95.1757812 226.942221 94.5670542 227.026367 93.8867225 227.026367 93.1347656 227.026367 92.4902312 226.947592 91.9083685 226.790039 91.3891602 226.632486 90.8699518 226.408693 90.4277362 226.118652 90.0625 225.828612 89.6972638 225.477704 89.4179697 225.065918 89.2246094 224.654132 89.031249 224.194013 88.9345703 223.685547 88.9345703 223.112627 88.9345703 222.597008 89.0402008 222.138672 89.2514648 221.680336 89.4627289 221.290041 89.7509747 220.967773 90.1162109 220.645506 90.4814471 220.398438 90.90934 220.226562 91.3999023 220.054687 91.8904647 219.96875 92.4114556 219.96875 92.9628906L219.96875 94.4238281zM234.825195 93.5859375L238.43457 99 236.780273 99 234.545898 95.3583984C234.459961 95.22233 234.372234 95.082683 234.282715 94.9394531 234.193196 94.7962232 234.101888 94.6422534 234.008789 94.4775391L233.96582 94.4775391C233.930013 94.549154 233.874512 94.6440424 233.799316 94.762207 233.724121 94.8803717 233.632813 95.0289705 233.525391 95.2080078L231.119141 99 229.49707 99 233.213867 93.6181641 229.615234 88 231.21582 88 233.503906 91.8564453C233.61849 92.0498057 233.71875 92.2234693 233.804688 92.3774414 233.890625 92.5314135 233.962239 92.6585281 234.019531 92.7587891L234.0625 92.7587891C234.155599 92.6227207 234.241536 92.484864 234.320312 92.3452148 234.399089 92.2055657 234.481445 92.0641283 234.567383 91.9208984L236.995117 88 238.541992 88 234.825195 93.5859375zM100.921387 130.526855L100.921387 128.493164C101.104005 128.659181 101.321206 128.808593 101.572998 128.941406 101.82479 129.074219 102.091795 129.186279 102.374023 129.277588 102.656251 129.368897 102.938475 129.439453 103.220703 129.489258 103.502931 129.539063 103.76302 129.563965 104.000977 129.563965 104.831059 129.563965 105.449461 129.42562 105.856201 129.148926 106.262941 128.872232 106.466309 128.471031 106.466309 127.945312 106.466309 127.663085 106.39852 127.418214 106.262939 127.210693 106.127359 127.003173 105.937827 126.81364 105.694336 126.64209 105.450845 126.47054 105.164471 126.305909 104.835205 126.148193 104.505939 125.990478 104.153159 125.825847 103.776855 125.654297 103.372882 125.438475 102.996584 125.21989 102.647949 124.998535 102.299315 124.77718 101.996339 124.532309 101.739014 124.263916 101.481688 123.995523 101.279705 123.692547 101.133057 123.35498 100.986409 123.017414 100.913086 122.621747 100.913086 122.167969 100.913086 121.609047 101.03898 121.123456 101.290771 120.711182 101.542563 120.298907 101.874591 119.958579 102.286865 119.690186 102.699139 119.421792 103.168129 119.222576 103.693848 119.092529 104.219566 118.962483 104.756345 118.897461 105.304199 118.897461 106.549323 118.897461 107.456866 119.038573 108.026855 119.320801L108.026855 121.271484C107.351722 120.784503 106.482915 120.541016 105.42041 120.541016 105.127114 120.541016 104.835207 120.568685 104.544678 120.624023 104.254149 120.679362 103.99406 120.77067 103.764404 120.897949 103.534748 121.025229 103.347982 121.188476 103.204102 121.387695 103.060221 121.586915 102.988281 121.827635 102.988281 122.109863 102.988281 122.37549 103.043619 122.605142 103.154297 122.798828 103.264975 122.992514 103.426838 123.169596 103.639893 123.330078 103.852947 123.490561 104.113036 123.646891 104.420166 123.799072 104.727296 123.951254 105.082843 124.115885 105.486816 124.292969 105.901858 124.50879 106.293374 124.735676 106.661377 124.973633 107.02938 125.21159 107.353107 125.474445 107.632568 125.762207 107.912029 126.049969 108.133381 126.369546 108.296631 126.720947 108.45988 127.072349 108.541504 127.472166 108.541504 127.92041 108.541504 128.523603 108.41976 129.032713 108.17627 129.447754 107.932779 129.862795 107.604901 130.200357 107.192627 130.460449 106.780353 130.720542 106.30583 130.908691 105.769043 131.024902 105.232256 131.141114 104.665042 131.199219 104.067383 131.199219 103.868163 131.199219 103.623292 131.184001 103.332764 131.153564 103.042235 131.123128 102.744793 131.078858 102.44043 131.020752 102.136066 130.962646 101.848309 130.89209 101.577148 130.809082 101.305988 130.726074 101.087403 130.631999 100.921387 130.526855zM117.705566 127.272949L111.911621 127.272949C111.933757 128.05876 112.17586 128.664711 112.637939 129.09082 113.100019 129.516929 113.735022 129.72998 114.542969 129.72998 115.450525 129.72998 116.283362 129.458824 117.041504 128.916504L117.041504 130.46875C116.26676 130.955732 115.243008 131.199219 113.970215 131.199219 112.719558 131.199219 111.738692 130.813236 111.027588 130.04126 110.316484 129.269283 109.960938 128.183275 109.960938 126.783203 109.960938 125.460605 110.352454 124.382898 111.135498 123.550049 111.918542 122.7172 112.891107 122.300781 114.053223 122.300781 115.215338 122.300781 116.11458 122.674313 116.750977 123.421387 117.387373 124.168461 117.705566 125.206048 117.705566 126.53418L117.705566 127.272949zM115.846191 125.911621C115.840658 125.219886 115.67741 124.681724 115.356445 124.297119 115.03548 123.912514 114.592776 123.720215 114.02832 123.720215 113.474932 123.720215 113.005943 123.922199 112.621338 124.326172 112.236733 124.730145 112.000163 125.258623 111.911621 125.911621L115.846191 125.911621zM132.248535 131L130.322754 131 130.322754 126.368164C130.322754 125.477209 130.19686 124.832522 129.945068 124.434082 129.693277 124.035643 129.268558 123.836426 128.670898 123.836426 128.167315 123.836426 127.739829 124.088214 127.388428 124.591797 127.037026 125.09538 126.861328 125.698564 126.861328 126.401367L126.861328 131 124.927246 131 124.927246 126.210449C124.927246 124.627759 124.368332 123.836426 123.250488 123.836426 122.730303 123.836426 122.302817 124.074379 121.968018 124.550293 121.633218 125.026207 121.46582 125.643225 121.46582 126.401367L121.46582 131 119.540039 131 119.540039 122.5 121.46582 122.5 121.46582 123.844727 121.499023 123.844727C122.113284 122.815425 123.006993 122.300781 124.180176 122.300781 124.766767 122.300781 125.280027 122.462645 125.719971 122.786377 126.159914 123.110109 126.460123 123.534828 126.620605 124.060547 127.251468 122.887364 128.192214 122.300781 129.442871 122.300781 131.313323 122.300781 132.248535 123.454578 132.248535 125.762207L132.248535 131zM135.568848 120.715332C135.253416 120.715332 134.983644 120.612957 134.759521 120.408203 134.535399 120.203449 134.42334 119.943361 134.42334 119.62793 134.42334 119.312498 134.535399 119.049643 134.759521 118.839355 134.983644 118.629068 135.253416 118.523926 135.568848 118.523926 135.895347 118.523926 136.172037 118.629068 136.398926 118.839355 136.625815 119.049643 136.739258 119.312498 136.739258 119.62793 136.739258 119.926759 136.625815 120.182698 136.398926 120.395752 136.172037 120.608806 135.895347 120.715332 135.568848 120.715332zM136.523438 131L134.597656 131 134.597656 122.5 136.523438 122.5 136.523438 131zM140.997559 129.771484L140.964355 129.771484 140.964355 131 139.038574 131 139.038574 118.416016 140.964355 118.416016 140.964355 123.994141 140.997559 123.994141C141.656091 122.865229 142.618972 122.300781 143.88623 122.300781 144.959804 122.300781 145.799558 122.68123 146.405518 123.442139 147.011478 124.203047 147.314453 125.22265 147.314453 126.500977 147.314453 127.923184 146.974124 129.061763 146.293457 129.916748 145.61279 130.771733 144.683111 131.199219 143.504395 131.199219 142.397618 131.199219 141.562015 130.723312 140.997559 129.771484zM140.947754 126.393066L140.947754 127.447266C140.947754 128.06706 141.145587 128.592771 141.54126 129.024414 141.936932 129.456057 142.439125 129.671875 143.047852 129.671875 143.761722 129.671875 144.322019 129.393802 144.72876 128.837646 145.1355 128.281491 145.338867 127.505376 145.338867 126.509277 145.338867 125.673661 145.149335 125.019289 144.770264 124.546143 144.391193 124.072996 143.877933 123.836426 143.230469 123.836426 142.544267 123.836426 141.992271 124.079913 141.574463 124.566895 141.156655 125.053876 140.947754 125.662594 140.947754 126.393066zM153.050293 131.199219C151.738763 131.199219 150.691492 130.802169 149.908447 130.008057 149.125403 129.213945 148.733887 128.161139 148.733887 126.849609 148.733887 125.421868 149.142004 124.306807 149.958252 123.504395 150.7745 122.701982 151.874342 122.300781 153.257812 122.300781 154.585944 122.300781 155.620765 122.690914 156.362305 123.471191 157.103845 124.251469 157.474609 125.333326 157.474609 126.716797 157.474609 128.072598 157.074792 129.158606 156.275146 129.974854 155.475501 130.791101 154.40056 131.199219 153.050293 131.199219zM153.141602 123.836426C152.388994 123.836426 151.79411 124.099281 151.356934 124.625 150.919757 125.150719 150.701172 125.875646 150.701172 126.799805 150.701172 127.69076 150.922524 128.392169 151.365234 128.904053 151.807945 129.415937 152.400061 129.671875 153.141602 129.671875 153.899743 129.671875 154.482176 129.420087 154.888916 128.916504 155.295656 128.412921 155.499023 127.696294 155.499023 126.766602 155.499023 125.831376 155.295656 125.109215 154.888916 124.600098 154.482176 124.090981 153.899743 123.836426 153.141602 123.836426zM161.367676 131L159.433594 131 159.433594 118.416016 161.367676 118.416016 161.367676 131zM171.602539 131L169.676758 131 169.676758 129.555664 169.643555 129.555664C169.02376 130.651373 168.06918 131.199219 166.779785 131.199219 165.733881 131.199219 164.896894 130.81877 164.268799 130.057861 163.640703 129.296953 163.32666 128.260749 163.32666 126.949219 163.32666 125.543613 163.673906 124.417485 164.368408 123.570801 165.06291 122.724117 165.988438 122.300781 167.14502 122.300781 168.290533 122.300781 169.12337 122.760087 169.643555 123.678711L169.676758 123.678711 169.676758 118.416016 171.602539 118.416016 171.602539 131zM169.70166 127.115234L169.70166 126.00293C169.70166 125.399737 169.50521 124.88786 169.112305 124.467285 168.719399 124.04671 168.21859 123.836426 167.609863 123.836426 166.890459 123.836426 166.324628 124.104815 165.912354 124.641602 165.500079 125.178388 165.293945 125.922684 165.293945 126.874512 165.293945 127.737797 165.491779 128.419838 165.887451 128.920654 166.283124 129.421471 166.815752 129.671875 167.485352 129.671875 168.143884 129.671875 168.677895 129.429771 169.087402 128.945557 169.49691 128.461342 169.70166 127.851241 169.70166 127.115234zM182.642578 118.831055L182.642578 131 180.716797 131 180.716797 121.188477C180.368162 121.437501 179.993247 121.649169 179.592041 121.823486 179.190835 121.997804 178.732913 122.151367 178.218262 122.28418L178.218262 120.640625C178.539227 120.535481 178.84912 120.424805 179.147949 120.308594 179.446779 120.192382 179.741454 120.062338 180.031982 119.918457 180.322511 119.774576 180.615803 119.614096 180.911865 119.437012 181.207928 119.259928 181.51367 119.057944 181.829102 118.831055L182.642578 118.831055zM192.910645 120.05957C192.412595 120.972661 191.942222 121.876053 191.499512 122.769775 191.056801 123.663497 190.655601 124.561356 190.295898 125.463379 189.936196 126.365402 189.623536 127.274328 189.35791 128.190186 189.092284 129.106043 188.887533 130.042638 188.743652 131L186.726562 131C186.859376 130.147782 187.048908 129.296961 187.295166 128.44751 187.541424 127.598059 187.830565 126.748621 188.162598 125.89917 188.494631 125.049719 188.866779 124.196131 189.279053 123.338379 189.691327 122.480627 190.12988 121.614588 190.594727 120.740234L184.958496 120.740234 184.958496 119.09668 192.910645 119.09668 192.910645 120.05957zM196.704102 129.746582L196.670898 129.746582 196.670898 134.909668 194.745117 134.909668 194.745117 122.5 196.670898 122.5 196.670898 123.994141 196.704102 123.994141C197.362634 122.865229 198.325514 122.300781 199.592773 122.300781 200.67188 122.300781 201.513018 122.679846 202.116211 123.437988 202.719404 124.19613 203.020996 125.214349 203.020996 126.492676 203.020996 127.90935 202.680667 129.043778 202 129.895996 201.319333 130.748214 200.389654 131.174316 199.210938 131.174316 198.126297 131.174316 197.290693 130.69841 196.704102 129.746582zM196.654297 126.393066L196.654297 127.447266C196.654297 128.06706 196.85213 128.592771 197.247803 129.024414 197.643475 129.456057 198.145668 129.671875 198.754395 129.671875 199.468265 129.671875 200.028562 129.393802 200.435303 128.837646 200.842043 128.281491 201.04541 127.505376 201.04541 126.509277 201.04541 125.673661 200.855878 125.019289 200.476807 124.546143 200.097736 124.072996 199.584476 123.836426 198.937012 123.836426 198.25081 123.836426 197.698814 124.079913 197.281006 124.566895 196.863198 125.053876 196.654297 125.662594 196.654297 126.393066zM211.828125 122.5L208.997559 126.799805 211.794922 131 209.562012 131 208.067871 128.368652C207.973795 128.20817 207.863119 128.003419 207.73584 127.754395L207.702637 127.754395C207.680501 127.804199 207.564291 128.00895 207.354004 128.368652L205.834961 131 203.610352 131 206.499023 126.833008 203.759766 122.5 206.000977 122.5 207.470215 125.26416C207.580892 125.468914 207.688802 125.679198 207.793945 125.89502L207.818848 125.89502 209.719727 122.5 211.828125 122.5z"/>
    <path fill="#FFF" d="M10.7342559,16 L9.22546685,16 L3.82019341,7.62841797 C3.68347398,7.41845598 3.57117041,7.19873162 3.48327935,6.96923828 L3.43933404,6.96923828 C3.47839673,7.19384878 3.49792779,7.674801 3.49792779,8.41210938 L3.49792779,16 L2.26745904,16 L2.26745904,5.49707031 L3.86413872,5.49707031 L9.12292779,13.7368164 C9.34265545,14.078615 9.48425559,14.3129876 9.54773247,14.4399414 L9.57702935,14.4399414 C9.52820098,14.1372055 9.50378716,13.622074 9.50378716,12.8945312 L9.50378716,5.49707031 L10.7342559,5.49707031 L10.7342559,16 Z M16.461795,16.1757812 C15.353391,16.1757812 14.4683901,15.825443 13.8067657,15.1247559 C13.1451413,14.4240688 12.814334,13.495123 12.814334,12.3378906 C12.814334,11.0781187 13.1585689,10.0942418 13.8470489,9.38623047 C14.5355289,8.67821912 15.4656954,8.32421875 16.6375762,8.32421875 C17.7557459,8.32421875 18.6285399,8.66845359 19.2559844,9.35693359 C19.883429,10.0454136 20.1971465,10.9999939 20.1971465,12.2207031 C20.1971465,13.4169982 19.8590152,14.3752405 19.1827422,15.095459 C18.5064693,15.8156774 17.599496,16.1757812 16.461795,16.1757812 Z M16.5496856,9.33496094 C15.7781974,9.33496094 15.1678519,9.59740948 14.7186309,10.1223145 C14.2694099,10.6472194 14.0448028,11.3710891 14.0448028,12.2939453 C14.0448028,13.1826216 14.2718513,13.8832982 14.7259551,14.3959961 C15.180059,14.908694 15.787963,15.1650391 16.5496856,15.1650391 C17.3260567,15.1650391 17.9229745,14.9135767 18.3404571,14.4106445 C18.7579396,13.9077123 18.9666778,13.1923875 18.9666778,12.2646484 C18.9666778,11.3271437 18.7579396,10.6044947 18.3404571,10.0966797 C17.9229745,9.58886465 17.3260567,9.33496094 16.5496856,9.33496094 Z M26.0272247,9.71582031 C25.8172627,9.55468669 25.5145313,9.47412109 25.1190215,9.47412109 C24.6063237,9.47412109 24.1778611,9.7158179 23.8336211,10.1992188 C23.4893811,10.6826196 23.3172637,11.3417927 23.3172637,12.1767578 L23.3172637,16 L22.1160918,16 L22.1160918,8.5 L23.3172637,8.5 L23.3172637,10.0454102 L23.3465606,10.0454102 C23.5174599,9.51806377 23.7786877,9.10669093 24.130252,8.8112793 C24.4818163,8.51586766 24.8748787,8.36816406 25.3094512,8.36816406 C25.6219528,8.36816406 25.8612082,8.40234341 26.0272247,8.47070312 L26.0272247,9.71582031 Z M37.9803497,16 L36.7791778,16 L36.7791778,11.6933594 C36.7791778,10.8632771 36.6510052,10.2626972 36.3946563,9.89160156 C36.1383074,9.52050596 35.7074035,9.33496094 35.1019317,9.33496094 C34.5892338,9.33496094 34.1534472,9.56933359 33.7945586,10.0380859 C33.4356701,10.5068383 33.2562286,11.0683561 33.2562286,11.7226562 L33.2562286,16 L32.0550567,16 L32.0550567,11.546875 C32.0550567,10.0722583 31.4862147,9.33496094 30.3485137,9.33496094 C29.8211673,9.33496094 29.3866014,9.55590599 29.0448028,9.99780273 C28.7030042,10.4396995 28.5321075,11.0146449 28.5321075,11.7226562 L28.5321075,16 L27.3309356,16 L27.3309356,8.5 L28.5321075,8.5 L28.5321075,9.68652344 L28.5614043,9.68652344 C29.0936336,8.77831577 29.869993,8.32421875 30.8905059,8.32421875 C31.4032038,8.32421875 31.8499767,8.46703959 32.2308379,8.75268555 C32.6116992,9.03833151 32.8729271,9.41308362 33.0145293,9.87695312 C33.5711728,8.8417917 34.4012426,8.32421875 35.5047637,8.32421875 C37.1551626,8.32421875 37.9803497,9.34227498 37.9803497,11.378418 L37.9803497,16 Z M45.6195098,16 L44.4183379,16 L44.4183379,14.828125 L44.3890411,14.828125 C43.8665775,15.726567 43.0975422,16.1757812 42.0819122,16.1757812 C41.3348381,16.1757812 40.7501272,15.9780293 40.3277618,15.5825195 C39.9053964,15.1870097 39.6942168,14.6621126 39.6942168,14.0078125 C39.6942168,12.6064383 40.5194039,11.7910168 42.1698028,11.5615234 L44.4183379,11.246582 C44.4183379,9.9721616 43.9032064,9.33496094 42.8729278,9.33496094 C41.969603,9.33496094 41.1541814,9.64257505 40.4266387,10.2578125 L40.4266387,9.02734375 C41.1639471,8.55859141 42.013548,8.32421875 42.9754668,8.32421875 C44.738171,8.32421875 45.6195098,9.25682661 45.6195098,11.1220703 L45.6195098,16 Z M44.4183379,12.2060547 L42.6092559,12.4550781 C42.0526125,12.5332035 41.6326948,12.6711416 41.3494903,12.8688965 C41.0662857,13.0666514 40.9246856,13.4169897 40.9246856,13.9199219 C40.9246856,14.2861346 41.0552995,14.5852039 41.3165313,14.8171387 C41.5777631,15.0490734 41.92566,15.1650391 42.3602325,15.1650391 C42.9559386,15.1650391 43.447877,14.9563009 43.8360626,14.5388184 C44.2242481,14.1213358 44.4183379,13.5927766 44.4183379,12.953125 L44.4183379,12.2060547 Z M49.0838653,16 L47.8826934,16 L47.8826934,4.89648438 L49.0838653,4.89648438 L49.0838653,16 Z M59.7113067,16 L58.5101348,16 L58.5101348,6.92529297 C58.4173609,7.01806687 58.2818642,7.12426698 58.1036407,7.24389648 C57.9254171,7.36352599 57.7252238,7.48193301 57.5030547,7.59912109 C57.2808857,7.71630918 57.046513,7.82617136 56.7999297,7.92871094 C56.5533465,8.03125051 56.3128704,8.11181611 56.0784942,8.17041016 L56.0784942,6.95458984 C56.3421674,6.88134729 56.6217056,6.78247133 56.9171172,6.65795898 C57.2125289,6.53344664 57.5030533,6.39428788 57.7886993,6.24047852 C58.0743452,6.08666915 58.3441179,5.92553795 58.5980254,5.75708008 C58.851933,5.5886222 59.0716573,5.42382893 59.2572051,5.26269531 L59.7113067,5.26269531 L59.7113067,16 Z M69.5916778,12.7919922 C69.5916778,13.3046901 69.503788,13.7685526 69.3280059,14.1835937 C69.1522238,14.5986349 68.9019821,14.9550766 68.5772735,15.2529297 C68.2525648,15.5507827 67.8607231,15.7802726 67.4017364,15.9414062 C66.9427497,16.1025399 66.4325009,16.1831055 65.8709747,16.1831055 C64.8944073,16.1831055 64.1693169,16.0366226 63.6956817,15.7436523 L63.6956817,14.4692383 C64.4085759,14.928225 65.1385491,15.1577148 65.8856231,15.1577148 C66.2664844,15.1577148 66.6094985,15.1015631 66.9146758,14.9892578 C67.2198531,14.8769526 67.4798603,14.7207041 67.6947051,14.5205078 C67.90955,14.3203115 68.0743432,14.0786147 68.1890899,13.7954102 C68.3038366,13.5122056 68.361209,13.2021501 68.361209,12.8652344 C68.361209,12.1816372 68.1317191,11.6457539 67.6727325,11.2575684 C67.2137458,10.8693828 66.5472486,10.675293 65.6732208,10.675293 C65.5316185,10.675293 65.3826942,10.6777344 65.2264434,10.6826172 C65.0701926,10.6875 64.9139442,10.6936035 64.7576934,10.7009277 C64.6014426,10.708252 64.4488563,10.7167968 64.2999297,10.7265625 C64.1510032,10.7363282 64.0155065,10.7485351 63.8934356,10.7631836 L64.2523223,5.49707031 L69.1082793,5.49707031 L69.1082793,6.58105469 L65.2923614,6.58105469 L65.079959,9.66455078 C65.2362098,9.65478511 65.4022238,9.64624027 65.5780059,9.63891602 C65.753788,9.63159176 65.9100365,9.62792969 66.0467559,9.62792969 C66.6033993,9.62792969 67.1014412,9.70117114 67.5408965,9.84765625 C67.9803519,9.99414136 68.3526626,10.2028795 68.6578399,10.473877 C68.9630172,10.7448744 69.1949485,11.0769023 69.3536407,11.4699707 C69.5123329,11.8630391 69.5916778,12.3037085 69.5916778,12.7919922 Z M73.0267364,14.9160156 L72.9974395,14.9160156 L72.9974395,19.449707 L71.7962676,19.449707 L71.7962676,8.5 L72.9974395,8.5 L72.9974395,9.81835938 L73.0267364,9.81835938 C73.6175596,8.82226064 74.4818088,8.32421875 75.6195098,8.32421875 C76.5863115,8.32421875 77.3406985,8.65990875 77.8826934,9.33129883 C78.4246883,10.0026889 78.6956817,10.9023381 78.6956817,12.0302734 C78.6956817,13.2851625 78.390509,14.2897911 77.7801543,15.0441895 C77.1697997,15.7985878 76.3348471,16.1757812 75.2752715,16.1757812 C74.303587,16.1757812 73.5540828,15.7558636 73.0267364,14.9160156 Z M72.9974395,11.8911133 L72.9974395,12.9384766 C72.9974395,13.5585969 73.1988535,14.0847146 73.6016876,14.5168457 C74.0045216,14.9489768 74.5159911,15.1650391 75.1361114,15.1650391 C75.8636541,15.1650391 76.4337167,14.8867215 76.8463165,14.3300781 C77.2589162,13.7734347 77.4652129,12.9995167 77.4652129,12.0083008 C77.4652129,11.1733357 77.2723438,10.5190453 76.8865997,10.0454102 C76.5008555,9.57177498 75.9783998,9.33496094 75.3192168,9.33496094 C74.6209712,9.33496094 74.0594533,9.57787843 73.6346465,10.0637207 C73.2098397,10.549563 72.9974395,11.1586877 72.9974395,11.8911133 Z M86.0931426,8.5 L83.5736114,12.2939453 L86.0491973,16 L84.6502715,16 L83.1781036,13.5683594 C83.0853297,13.4169914 82.9754675,13.2265636 82.8485137,12.9970703 L82.8192168,12.9970703 C82.7948027,13.0410158 82.6800577,13.2314436 82.4749786,13.5683594 L80.9735137,16 L79.5892364,16 L82.1453887,12.3232422 L79.6990997,8.5 L81.0980254,8.5 L82.5482208,11.0634766 C82.6556432,11.2539072 82.7606226,11.4492177 82.8631622,11.6494141 L82.892459,11.6494141 L84.767459,8.5 L86.0931426,8.5 Z" transform="translate(99 176)"/>
    <path fill="#FFF" d="M8.80119694,14 L7.49357975,14 L2.80900944,6.74462891 C2.69051926,6.56266185 2.5931895,6.37223407 2.51701725,6.17333984 L2.47893131,6.17333984 C2.51278565,6.36800228 2.52971256,6.78482753 2.52971256,7.42382812 L2.52971256,14 L1.46330631,14 L1.46330631,4.89746094 L2.84709537,4.89746094 L7.40471256,12.0385742 C7.5951432,12.3347997 7.71786333,12.5379226 7.77287662,12.6479492 L7.79826725,12.6479492 C7.75594933,12.3855781 7.73479069,11.9391308 7.73479069,11.3085938 L7.73479069,4.89746094 L8.80119694,4.89746094 L8.80119694,14 Z M13.7650641,14.1523438 C12.8044473,14.1523438 12.0374465,13.8487172 11.4640387,13.2414551 C10.8906309,12.6341929 10.6039313,11.8291066 10.6039313,10.8261719 C10.6039313,9.73436954 10.9022682,8.88167625 11.4989508,8.26806641 C12.0956335,7.65445657 12.9017778,7.34765625 13.9174079,7.34765625 C14.8864882,7.34765625 15.6429097,7.64599311 16.186695,8.24267578 C16.7304803,8.83935845 17.0023688,9.66666138 17.0023688,10.7246094 C17.0023688,11.7613984 16.7093216,12.5918751 16.1232184,13.2160645 C15.5371152,13.8402538 14.7510717,14.1523438 13.7650641,14.1523438 Z M13.841236,8.22363281 C13.1726129,8.22363281 12.6436468,8.45108822 12.2543219,8.90600586 C11.8649971,9.3609235 11.6703376,9.98827725 11.6703376,10.7880859 C11.6703376,11.5582721 11.8671129,12.1655251 12.2606696,12.6098633 C12.6542262,13.0542014 13.1810764,13.2763672 13.841236,13.2763672 C14.5140909,13.2763672 15.0314197,13.0584332 15.393238,12.6225586 C15.7550562,12.186684 15.9359626,11.5667358 15.9359626,10.7626953 C15.9359626,9.95019125 15.7550562,9.32389543 15.393238,8.88378906 C15.0314197,8.4436827 14.5140909,8.22363281 13.841236,8.22363281 Z M22.0551032,8.55371094 C21.8731361,8.4140618 21.610769,8.34423828 21.2679938,8.34423828 C20.8236557,8.34423828 20.4523215,8.55370884 20.1539801,8.97265625 C19.8556388,9.39160366 19.7064704,9.96288701 19.7064704,10.6865234 L19.7064704,14 L18.6654547,14 L18.6654547,7.5 L19.7064704,7.5 L19.7064704,8.83935547 L19.731861,8.83935547 C19.8799737,8.38232193 20.1063712,8.02579881 20.4110602,7.76977539 C20.7157492,7.51375198 21.0564034,7.38574219 21.4330329,7.38574219 C21.7038676,7.38574219 21.9112223,7.41536429 22.0551032,7.47460938 L22.0551032,8.55371094 Z M32.4144782,14 L31.3734626,14 L31.3734626,10.2675781 C31.3734626,9.54817349 31.2623797,9.02767088 31.0402106,8.70605469 C30.8180415,8.3844385 30.4445915,8.22363281 29.9198493,8.22363281 C29.4755111,8.22363281 29.0978293,8.42675578 28.7867926,8.83300781 C28.4757559,9.23925984 28.3202399,9.72590862 28.3202399,10.2929688 L28.3202399,14 L27.2792243,14 L27.2792243,10.140625 C27.2792243,8.86262382 26.7862279,8.22363281 25.8002204,8.22363281 C25.3431868,8.22363281 24.966563,8.41511853 24.6703376,8.7980957 C24.3741121,9.18107288 24.2260016,9.67935891 24.2260016,10.2929688 L24.2260016,14 L23.184986,14 L23.184986,7.5 L24.2260016,7.5 L24.2260016,8.52832031 L24.2513922,8.52832031 C24.7126576,7.741207 25.3855024,7.34765625 26.2699469,7.34765625 C26.7142851,7.34765625 27.1014883,7.47143431 27.431568,7.71899414 C27.7616478,7.96655397 27.9880453,8.29133914 28.1107672,8.69335938 C28.5931915,7.79621947 29.3125854,7.34765625 30.2689704,7.34765625 C31.6993161,7.34765625 32.4144782,8.22997165 32.4144782,9.99462891 L32.4144782,14 Z M39.0350837,14 L37.994068,14 L37.994068,12.984375 L37.9686774,12.984375 C37.5158757,13.7630247 36.8493784,14.1523438 35.9691657,14.1523438 C35.3217015,14.1523438 34.814952,13.9809587 34.448902,13.6381836 C34.082852,13.2954084 33.8998297,12.8404976 33.8998297,12.2734375 C33.8998297,11.0589132 34.6149919,10.3522145 36.0453376,10.1533203 L37.994068,9.88037109 C37.994068,8.77587338 37.5476207,8.22363281 36.6547126,8.22363281 C35.871831,8.22363281 35.1651324,8.49023171 34.5345954,9.0234375 L34.5345954,7.95703125 C35.173596,7.55077922 35.9099167,7.34765625 36.7435797,7.34765625 C38.2712567,7.34765625 39.0350837,8.1559164 39.0350837,9.77246094 L39.0350837,14 Z M37.994068,10.7119141 L36.4261969,10.9277344 C35.9437726,10.995443 35.579844,11.1149894 35.3344001,11.286377 C35.0889561,11.4577645 34.966236,11.761391 34.966236,12.1972656 C34.966236,12.51465 35.0794347,12.7738434 35.3058356,12.9748535 C35.5322365,13.1758636 35.8337471,13.2763672 36.2103766,13.2763672 C36.7266552,13.2763672 37.1530019,13.0954608 37.4894294,12.7336426 C37.8258568,12.3718244 37.994068,11.9137398 37.994068,11.359375 L37.994068,10.7119141 Z M42.0375251,14 L40.9965094,14 L40.9965094,4.37695312 L42.0375251,4.37695312 L42.0375251,14 Z M51.2479743,14 L50.2069587,14 L50.2069587,6.13525391 C50.1265546,6.21565795 50.0091241,6.30769805 49.8546637,6.41137695 C49.7002033,6.51505586 49.5267025,6.61767527 49.3341559,6.71923828 C49.1416094,6.82080129 48.9384864,6.91601518 48.7247809,7.00488281 C48.5110754,7.09375044 48.3026628,7.16357396 48.0995368,7.21435547 L48.0995368,6.16064453 C48.3280535,6.09716765 48.57032,6.01147515 48.8263434,5.90356445 C49.0823668,5.79565376 49.3341547,5.67504949 49.5817145,5.54174805 C49.8292743,5.4084466 50.0630773,5.26879956 50.2831305,5.12280273 C50.5031837,4.97680591 50.6936115,4.83398507 50.8544196,4.69433594 L51.2479743,4.69433594 L51.2479743,14 Z M59.7094001,11.4228516 C59.7094001,11.8333354 59.632171,12.2067854 59.4777106,12.5432129 C59.3232502,12.8796404 59.1053162,13.1673979 58.823902,13.4064941 C58.5424878,13.6455904 58.2050075,13.8307285 57.8114508,13.9619141 C57.4178942,14.0930996 56.984142,14.1586914 56.5101813,14.1586914 C55.642664,14.1586914 54.9528922,13.993654 54.4408454,13.6635742 L54.4408454,12.5463867 C55.0544552,13.028811 55.7569221,13.2700195 56.5482672,13.2700195 C56.8656516,13.2700195 57.1523513,13.2298181 57.4083747,13.1494141 C57.6643981,13.06901 57.884448,12.9526375 58.0685309,12.800293 C58.2526139,12.6479485 58.3943768,12.4638683 58.4938239,12.2480469 C58.593271,12.0322255 58.6429938,11.7889011 58.6429938,11.5180664 C58.6429938,10.3289329 57.7966481,9.734375 56.1039313,9.734375 L55.3485602,9.734375 L55.3485602,8.85205078 L56.0658454,8.85205078 C57.5638997,8.85205078 58.3129157,8.29346262 58.3129157,7.17626953 C58.3129157,6.14371229 57.7416323,5.62744141 56.5990485,5.62744141 C55.9558161,5.62744141 55.3527948,5.84325956 54.7899665,6.27490234 L54.7899665,5.265625 C55.369722,4.91861806 56.0594937,4.74511719 56.8593024,4.74511719 C57.2401637,4.74511719 57.5850496,4.79801379 57.8939704,4.90380859 C58.2028912,5.00960339 58.4673742,5.15771389 58.6874274,5.34814453 C58.9074806,5.53857517 59.0778077,5.76708851 59.1984137,6.03369141 C59.3190198,6.3002943 59.3793219,6.59439943 59.3793219,6.91601562 C59.3793219,8.11361276 58.7741848,8.88378735 57.5638922,9.2265625 L57.5638922,9.25195312 C57.8728131,9.28580746 58.1584547,9.36092064 58.4208258,9.47729492 C58.6831969,9.5936692 58.9095944,9.7449535 59.1000251,9.93115234 C59.2904557,10.1173512 59.4396241,10.3363431 59.5475348,10.5881348 C59.6554455,10.8399264 59.7094001,11.1181625 59.7094001,11.4228516 Z M62.7880133,13.0605469 L62.7626227,13.0605469 L62.7626227,16.9897461 L61.7216071,16.9897461 L61.7216071,7.5 L62.7626227,7.5 L62.7626227,8.64257812 L62.7880133,8.64257812 C63.3000602,7.77929256 64.0490761,7.34765625 65.0350837,7.34765625 C65.8729785,7.34765625 66.5267805,7.63858759 66.9965094,8.22045898 C67.4662383,8.80233038 67.7010993,9.58202636 67.7010993,10.5595703 C67.7010993,11.6471409 67.4366162,12.517819 66.9076422,13.1716309 C66.3786682,13.8254427 65.6550427,14.1523438 64.7367438,14.1523438 C63.8946172,14.1523438 63.2450469,13.7884151 62.7880133,13.0605469 Z M62.7626227,10.4389648 L62.7626227,11.3466797 C62.7626227,11.8841173 62.9371815,12.340086 63.2863044,12.7145996 C63.6354272,13.0891132 64.0787008,13.2763672 64.6161383,13.2763672 C65.2466753,13.2763672 65.7407297,13.0351587 66.0983161,12.5527344 C66.4559025,12.0703101 66.634693,11.3995811 66.634693,10.5405273 C66.634693,9.81689091 66.4675398,9.24983929 66.1332282,8.83935547 C65.7989166,8.42887165 65.3461217,8.22363281 64.7748297,8.22363281 C64.1696835,8.22363281 63.6830347,8.43416131 63.3148688,8.85522461 C62.9467029,9.27628791 62.7626227,9.80419604 62.7626227,10.4389648 Z M74.1122321,7.5 L71.9286383,10.7880859 L74.0741462,14 L72.8617438,14 L71.5858649,11.8925781 C71.5054609,11.7613926 71.410247,11.5963552 71.3002204,11.3974609 L71.2748297,11.3974609 C71.2536708,11.4355471 71.1542252,11.6005845 70.9764899,11.8925781 L69.6752204,14 L68.4755133,14 L70.6908454,10.8134766 L68.5707282,7.5 L69.7831305,7.5 L71.0399665,9.72167969 C71.1330659,9.88671958 71.2240481,10.0559887 71.3129157,10.2294922 L71.3383063,10.2294922 L72.9633063,7.5 L74.1122321,7.5 Z" transform="translate(100 204)"/>
    <g fill="#FFF" transform="translate(100 235)">
      <path d="M8.80119694 14L7.49357975 14 2.80900944 6.74462891C2.69051926 6.56266185 2.5931895 6.37223407 2.51701725 6.17333984L2.47893131 6.17333984C2.51278565 6.36800228 2.52971256 6.78482753 2.52971256 7.42382812L2.52971256 14 1.46330631 14 1.46330631 4.89746094 2.84709537 4.89746094 7.40471256 12.0385742C7.5951432 12.3347997 7.71786333 12.5379226 7.77287662 12.6479492L7.79826725 12.6479492C7.75594933 12.3855781 7.73479069 11.9391308 7.73479069 11.3085938L7.73479069 4.89746094 8.80119694 4.89746094 8.80119694 14zM13.7650641 14.1523438C12.8044473 14.1523438 12.0374465 13.8487172 11.4640387 13.2414551 10.8906309 12.6341929 10.6039313 11.8291066 10.6039313 10.8261719 10.6039313 9.73436954 10.9022682 8.88167625 11.4989508 8.26806641 12.0956335 7.65445657 12.9017778 7.34765625 13.9174079 7.34765625 14.8864882 7.34765625 15.6429097 7.64599311 16.186695 8.24267578 16.7304803 8.83935845 17.0023688 9.66666138 17.0023688 10.7246094 17.0023688 11.7613984 16.7093216 12.5918751 16.1232184 13.2160645 15.5371152 13.8402538 14.7510717 14.1523438 13.7650641 14.1523438zM13.841236 8.22363281C13.1726129 8.22363281 12.6436468 8.45108822 12.2543219 8.90600586 11.8649971 9.3609235 11.6703376 9.98827725 11.6703376 10.7880859 11.6703376 11.5582721 11.8671129 12.1655251 12.2606696 12.6098633 12.6542262 13.0542014 13.1810764 13.2763672 13.841236 13.2763672 14.5140909 13.2763672 15.0314197 13.0584332 15.393238 12.6225586 15.7550562 12.186684 15.9359626 11.5667358 15.9359626 10.7626953 15.9359626 9.95019125 15.7550562 9.32389543 15.393238 8.88378906 15.0314197 8.4436827 14.5140909 8.22363281 13.841236 8.22363281zM22.0551032 8.55371094C21.8731361 8.4140618 21.610769 8.34423828 21.2679938 8.34423828 20.8236557 8.34423828 20.4523215 8.55370884 20.1539801 8.97265625 19.8556388 9.39160366 19.7064704 9.96288701 19.7064704 10.6865234L19.7064704 14 18.6654547 14 18.6654547 7.5 19.7064704 7.5 19.7064704 8.83935547 19.731861 8.83935547C19.8799737 8.38232193 20.1063712 8.02579881 20.4110602 7.76977539 20.7157492 7.51375198 21.0564034 7.38574219 21.4330329 7.38574219 21.7038676 7.38574219 21.9112223 7.41536429 22.0551032 7.47460938L22.0551032 8.55371094zM32.4144782 14L31.3734626 14 31.3734626 10.2675781C31.3734626 9.54817349 31.2623797 9.02767088 31.0402106 8.70605469 30.8180415 8.3844385 30.4445915 8.22363281 29.9198493 8.22363281 29.4755111 8.22363281 29.0978293 8.42675578 28.7867926 8.83300781 28.4757559 9.23925984 28.3202399 9.72590862 28.3202399 10.2929688L28.3202399 14 27.2792243 14 27.2792243 10.140625C27.2792243 8.86262382 26.7862279 8.22363281 25.8002204 8.22363281 25.3431868 8.22363281 24.966563 8.41511853 24.6703376 8.7980957 24.3741121 9.18107288 24.2260016 9.67935891 24.2260016 10.2929688L24.2260016 14 23.184986 14 23.184986 7.5 24.2260016 7.5 24.2260016 8.52832031 24.2513922 8.52832031C24.7126576 7.741207 25.3855024 7.34765625 26.2699469 7.34765625 26.7142851 7.34765625 27.1014883 7.47143431 27.431568 7.71899414 27.7616478 7.96655397 27.9880453 8.29133914 28.1107672 8.69335938 28.5931915 7.79621947 29.3125854 7.34765625 30.2689704 7.34765625 31.6993161 7.34765625 32.4144782 8.22997165 32.4144782 9.99462891L32.4144782 14zM39.0350837 14L37.994068 14 37.994068 12.984375 37.9686774 12.984375C37.5158757 13.7630247 36.8493784 14.1523438 35.9691657 14.1523438 35.3217015 14.1523438 34.814952 13.9809587 34.448902 13.6381836 34.082852 13.2954084 33.8998297 12.8404976 33.8998297 12.2734375 33.8998297 11.0589132 34.6149919 10.3522145 36.0453376 10.1533203L37.994068 9.88037109C37.994068 8.77587338 37.5476207 8.22363281 36.6547126 8.22363281 35.871831 8.22363281 35.1651324 8.49023171 34.5345954 9.0234375L34.5345954 7.95703125C35.173596 7.55077922 35.9099167 7.34765625 36.7435797 7.34765625 38.2712567 7.34765625 39.0350837 8.1559164 39.0350837 9.77246094L39.0350837 14zM37.994068 10.7119141L36.4261969 10.9277344C35.9437726 10.995443 35.579844 11.1149894 35.3344001 11.286377 35.0889561 11.4577645 34.966236 11.761391 34.966236 12.1972656 34.966236 12.51465 35.0794347 12.7738434 35.3058356 12.9748535 35.5322365 13.1758636 35.8337471 13.2763672 36.2103766 13.2763672 36.7266552 13.2763672 37.1530019 13.0954608 37.4894294 12.7336426 37.8258568 12.3718244 37.994068 11.9137398 37.994068 11.359375L37.994068 10.7119141zM42.0375251 14L40.9965094 14 40.9965094 4.37695312 42.0375251 4.37695312 42.0375251 14zM51.2479743 14L50.2069587 14 50.2069587 6.13525391C50.1265546 6.21565795 50.0091241 6.30769805 49.8546637 6.41137695 49.7002033 6.51505586 49.5267025 6.61767527 49.3341559 6.71923828 49.1416094 6.82080129 48.9384864 6.91601518 48.7247809 7.00488281 48.5110754 7.09375044 48.3026628 7.16357396 48.0995368 7.21435547L48.0995368 6.16064453C48.3280535 6.09716765 48.57032 6.01147515 48.8263434 5.90356445 49.0823668 5.79565376 49.3341547 5.67504949 49.5817145 5.54174805 49.8292743 5.4084466 50.0630773 5.26879956 50.2831305 5.12280273 50.5031837 4.97680591 50.6936115 4.83398507 50.8544196 4.69433594L51.2479743 4.69433594 51.2479743 14zM59.7094001 11.4228516C59.7094001 11.8333354 59.632171 12.2067854 59.4777106 12.5432129 59.3232502 12.8796404 59.1053162 13.1673979 58.823902 13.4064941 58.5424878 13.6455904 58.2050075 13.8307285 57.8114508 13.9619141 57.4178942 14.0930996 56.984142 14.1586914 56.5101813 14.1586914 55.642664 14.1586914 54.9528922 13.993654 54.4408454 13.6635742L54.4408454 12.5463867C55.0544552 13.028811 55.7569221 13.2700195 56.5482672 13.2700195 56.8656516 13.2700195 57.1523513 13.2298181 57.4083747 13.1494141 57.6643981 13.06901 57.884448 12.9526375 58.0685309 12.800293 58.2526139 12.6479485 58.3943768 12.4638683 58.4938239 12.2480469 58.593271 12.0322255 58.6429938 11.7889011 58.6429938 11.5180664 58.6429938 10.3289329 57.7966481 9.734375 56.1039313 9.734375L55.3485602 9.734375 55.3485602 8.85205078 56.0658454 8.85205078C57.5638997 8.85205078 58.3129157 8.29346262 58.3129157 7.17626953 58.3129157 6.14371229 57.7416323 5.62744141 56.5990485 5.62744141 55.9558161 5.62744141 55.3527948 5.84325956 54.7899665 6.27490234L54.7899665 5.265625C55.369722 4.91861806 56.0594937 4.74511719 56.8593024 4.74511719 57.2401637 4.74511719 57.5850496 4.79801379 57.8939704 4.90380859 58.2028912 5.00960339 58.4673742 5.15771389 58.6874274 5.34814453 58.9074806 5.53857517 59.0778077 5.76708851 59.1984137 6.03369141 59.3190198 6.3002943 59.3793219 6.59439943 59.3793219 6.91601562 59.3793219 8.11361276 58.7741848 8.88378735 57.5638922 9.2265625L57.5638922 9.25195312C57.8728131 9.28580746 58.1584547 9.36092064 58.4208258 9.47729492 58.6831969 9.5936692 58.9095944 9.7449535 59.1000251 9.93115234 59.2904557 10.1173512 59.4396241 10.3363431 59.5475348 10.5881348 59.6554455 10.8399264 59.7094001 11.1181625 59.7094001 11.4228516zM62.7880133 13.0605469L62.7626227 13.0605469 62.7626227 16.9897461 61.7216071 16.9897461 61.7216071 7.5 62.7626227 7.5 62.7626227 8.64257812 62.7880133 8.64257812C63.3000602 7.77929256 64.0490761 7.34765625 65.0350837 7.34765625 65.8729785 7.34765625 66.5267805 7.63858759 66.9965094 8.22045898 67.4662383 8.80233038 67.7010993 9.58202636 67.7010993 10.5595703 67.7010993 11.6471409 67.4366162 12.517819 66.9076422 13.1716309 66.3786682 13.8254427 65.6550427 14.1523438 64.7367438 14.1523438 63.8946172 14.1523438 63.2450469 13.7884151 62.7880133 13.0605469zM62.7626227 10.4389648L62.7626227 11.3466797C62.7626227 11.8841173 62.9371815 12.340086 63.2863044 12.7145996 63.6354272 13.0891132 64.0787008 13.2763672 64.6161383 13.2763672 65.2466753 13.2763672 65.7407297 13.0351587 66.0983161 12.5527344 66.4559025 12.0703101 66.634693 11.3995811 66.634693 10.5405273 66.634693 9.81689091 66.4675398 9.24983929 66.1332282 8.83935547 65.7989166 8.42887165 65.3461217 8.22363281 64.7748297 8.22363281 64.1696835 8.22363281 63.6830347 8.43416131 63.3148688 8.85522461 62.9467029 9.27628791 62.7626227 9.80419604 62.7626227 10.4389648zM74.1122321 7.5L71.9286383 10.7880859 74.0741462 14 72.8617438 14 71.5858649 11.8925781C71.5054609 11.7613926 71.410247 11.5963552 71.3002204 11.3974609L71.2748297 11.3974609C71.2536708 11.4355471 71.1542252 11.6005845 70.9764899 11.8925781L69.6752204 14 68.4755133 14 70.6908454 10.8134766 68.5707282 7.5 69.7831305 7.5 71.0399665 9.72167969C71.1330659 9.88671958 71.2240481 10.0559887 71.3129157 10.2294922L71.3383063 10.2294922 72.9633063 7.5 74.1122321 7.5zM7.48869694 37L6.38225162 37 2.41838444 30.8608398C2.31812352 30.7068677 2.23576757 30.5457365 2.17131412 30.3774414L2.13908756 30.3774414C2.16773354 30.5421558 2.18205631 30.8948541 2.18205631 31.4355469L2.18205631 37 1.27971256 37 1.27971256 29.2978516 2.450611 29.2978516 6.30705631 35.340332C6.46818993 35.5909843 6.57203004 35.7628576 6.61857975 35.855957L6.64006412 35.855957C6.60425665 35.6339507 6.58635319 35.2561876 6.58635319 34.7226562L6.58635319 29.2978516 7.48869694 29.2978516 7.48869694 37zM11.6888922 37.1289062C10.8760627 37.1289062 10.227062 36.8719915 9.74187076 36.3581543 9.25667954 35.8443171 9.01408756 35.1630902 9.01408756 34.3144531 9.01408756 33.3906204 9.26652644 32.6691107 9.77141178 32.1499023 10.2762971 31.630694 10.9584192 31.3710938 11.8177985 31.3710938 12.6377896 31.3710938 13.2778385 31.6235326 13.7379645 32.128418 14.1980905 32.6333033 14.4281501 33.3333289 14.4281501 34.2285156 14.4281501 35.1057987 14.180187 35.8085097 13.6842536 36.3366699 13.1883201 36.8648301 12.5232063 37.1289062 11.6888922 37.1289062zM11.7533454 32.1123047C11.1875873 32.1123047 10.7400007 32.304767 10.4105719 32.6896973 10.0811432 33.0746276 9.91643131 33.6054654 9.91643131 34.2822266 9.91643131 34.9339225 10.0829336 35.447752 10.415943 35.8237305 10.7489525 36.1997089 11.1947488 36.3876953 11.7533454 36.3876953 12.3226842 36.3876953 12.7604239 36.2032896 13.0665778 35.8344727 13.3727317 35.4656557 13.5258063 34.9410841 13.5258063 34.2607422 13.5258063 33.5732388 13.3727317 33.0432961 13.0665778 32.6708984 12.7604239 32.2985007 12.3226842 32.1123047 11.7533454 32.1123047zM18.7035407 32.3916016C18.5495686 32.2734369 18.3275656 32.2143555 18.0375251 32.2143555 17.6615466 32.2143555 17.3473408 32.3915998 17.0948981 32.7460938 16.8424554 33.1005877 16.716236 33.5839813 16.716236 34.1962891L16.716236 37 15.8353766 37 15.8353766 31.5 16.716236 31.5 16.716236 32.6333008 16.7377204 32.6333008C16.8630465 32.2465801 17.0546136 31.9449067 17.3124274 31.7282715 17.5702412 31.5116363 17.858487 31.4033203 18.1771735 31.4033203 18.4063413 31.4033203 18.5817953 31.4283852 18.7035407 31.4785156L18.7035407 32.3916016zM27.4691657 37L26.5883063 37 26.5883063 33.8417969C26.5883063 33.2330699 26.4943131 32.7926446 26.3063239 32.5205078 26.1183347 32.248371 25.8023385 32.1123047 25.3583258 32.1123047 24.9823474 32.1123047 24.6627705 32.284178 24.3995856 32.6279297 24.1364007 32.9716814 24.0048102 33.3834611 24.0048102 33.8632812L24.0048102 37 23.1239508 37 23.1239508 33.734375C23.1239508 32.6529894 22.7068001 32.1123047 21.872486 32.1123047 21.4857653 32.1123047 21.1670836 32.2743311 20.9164313 32.5983887 20.665779 32.9224463 20.5404547 33.3440729 20.5404547 33.8632812L20.5404547 37 19.6595954 37 19.6595954 31.5 20.5404547 31.5 20.5404547 32.3701172 20.5619391 32.3701172C20.9522406 31.7040982 21.5215708 31.3710938 22.2699469 31.3710938 22.6459254 31.3710938 22.9735588 31.475829 23.2528571 31.6853027 23.5321554 31.8947764 23.7237225 32.1695947 23.8275641 32.5097656 24.2357693 31.7506472 24.8444872 31.3710938 25.653736 31.3710938 26.8640285 31.3710938 27.4691657 32.1176683 27.4691657 33.6108398L27.4691657 37zM33.0712165 37L32.1903571 37 32.1903571 36.140625 32.1688727 36.140625C31.7857328 36.7994825 31.2217736 37.1289062 30.4769782 37.1289062 29.9291239 37.1289062 29.5003359 36.9838882 29.1906012 36.6938477 28.8808666 36.4038071 28.7260016 36.0188826 28.7260016 35.5390625 28.7260016 34.5113881 29.3311388 33.9134123 30.5414313 33.7451172L32.1903571 33.5141602C32.1903571 32.5795852 31.8125939 32.1123047 31.0570563 32.1123047 30.3946181 32.1123047 29.7966423 32.3378884 29.263111 32.7890625L29.263111 31.8867188C29.8038038 31.542967 30.4268444 31.3710938 31.1322516 31.3710938 32.4249013 31.3710938 33.0712165 32.0550062 33.0712165 33.4228516L33.0712165 37zM32.1903571 34.2177734L30.8636969 34.4003906C30.4554918 34.4576826 30.1475521 34.5588372 29.9398688 34.7038574 29.7321855 34.8488777 29.6283454 35.1057924 29.6283454 35.4746094 29.6283454 35.7431654 29.7241289 35.9624829 29.9156989 36.1325684 30.1072689 36.3026538 30.3623933 36.3876953 30.6810797 36.3876953 31.1179309 36.3876953 31.4786857 36.2346207 31.7633551 35.9284668 32.0480245 35.6223129 32.1903571 35.2347029 32.1903571 34.765625L32.1903571 34.2177734zM35.6117438 37L34.7308844 37 34.7308844 28.8574219 35.6117438 28.8574219 35.6117438 37zM43.4052008 37L42.5243415 37 42.5243415 30.3452148C42.4563073 30.413249 42.356943 30.4911291 42.2262458 30.5788574 42.0955485 30.6665857 41.9487401 30.7534175 41.7858161 30.8393555 41.6228921 30.9252934 41.4510188 31.005859 41.2701911 31.0810547 41.0893633 31.1562504 40.9130142 31.2153318 40.7411383 31.2583008L40.7411383 30.3666992C40.9344987 30.312988 41.1394934 30.240479 41.3561286 30.1491699 41.5727638 30.0578609 41.785815 29.9558111 41.9952887 29.8430176 42.2047624 29.730224 42.4025957 29.6120612 42.5887946 29.4885254 42.7749934 29.3649896 42.9361246 29.2441412 43.072193 29.1259766L43.4052008 29.1259766 43.4052008 37zM49.3348883 37L48.454029 37 48.454029 30.3452148C48.3859948 30.413249 48.2866305 30.4911291 48.1559333 30.5788574 48.025236 30.6665857 47.8784276 30.7534175 47.7155036 30.8393555 47.5525796 30.9252934 47.3807063 31.005859 47.1998786 31.0810547 47.0190508 31.1562504 46.8427017 31.2153318 46.6708258 31.2583008L46.6708258 30.3666992C46.8641862 30.312988 47.0691809 30.240479 47.2858161 30.1491699 47.5024513 30.0578609 47.7155025 29.9558111 47.9249762 29.8430176 48.1344499 29.730224 48.3322832 29.6120612 48.5184821 29.4885254 48.7046809 29.3649896 48.8658121 29.2441412 49.0018805 29.1259766L49.3348883 29.1259766 49.3348883 37zM53.1698493 36.2050781L53.1483649 36.2050781 53.1483649 39.5297852 52.2675055 39.5297852 52.2675055 31.5 53.1483649 31.5 53.1483649 32.4667969 53.1698493 32.4667969C53.6031197 31.7363245 54.2369024 31.3710938 55.0712165 31.3710938 55.7802044 31.3710938 56.3334215 31.6172664 56.7308844 32.1096191 57.1283474 32.6019719 57.3270758 33.2617146 57.3270758 34.0888672 57.3270758 35.0091192 57.1032825 35.7458468 56.6556891 36.2990723 56.2080957 36.8522977 55.5957972 37.1289062 54.8187751 37.1289062 54.1062064 37.1289062 53.55657 36.8209666 53.1698493 36.2050781zM53.1483649 33.9868164L53.1483649 34.7548828C53.1483649 35.2096377 53.2960685 35.5954574 53.5914801 35.9123535 53.8868918 36.2292496 54.2619694 36.3876953 54.7167243 36.3876953 55.2502556 36.3876953 55.6683015 36.1835958 55.9708747 35.7753906 56.2734478 35.3671855 56.4247321 34.7996456 56.4247321 34.0727539 56.4247321 33.4604462 56.2832947 32.9806332 56.0004157 32.6333008 55.7175367 32.2859683 55.3344025 32.1123047 54.8510016 32.1123047 54.3389548 32.1123047 53.9271751 32.2904442 53.6156501 32.6467285 53.3041251 33.0030128 53.1483649 33.4497043 53.1483649 33.9868164zM62.7518805 31.5L60.9042243 34.2822266 62.719654 37 61.6937751 37 60.6141852 35.2167969C60.546151 35.1057937 60.4655854 34.9661467 60.372486 34.7978516L60.3510016 34.7978516C60.3330979 34.8300783 60.2489516 34.9697253 60.0985602 35.2167969L58.997486 37 57.9823493 37 59.856861 34.3037109 58.0629157 31.5 59.0887946 31.5 60.1522712 33.3798828C60.2310476 33.5195319 60.3080325 33.6627597 60.3832282 33.8095703L60.4047126 33.8095703 61.7797126 31.5 62.7518805 31.5z"/>
    </g>
    <path fill="#FFF" d="M101.041016,157 L101.041016,147.897461 L104.354492,147.897461 C105.370122,147.897461 106.150876,148.083657 106.696777,148.456055 C107.242679,148.828452 107.515625,149.353187 107.515625,150.030273 C107.515625,150.521161 107.34953,150.950682 107.017334,151.318848 C106.685138,151.687014 106.260908,151.943033 105.744629,152.086914 L105.744629,152.112305 C106.392093,152.192709 106.909422,152.431801 107.296631,152.82959 C107.68384,153.227378 107.877441,153.711911 107.877441,154.283203 C107.877441,155.116866 107.579105,155.778074 106.982422,156.266846 C106.385739,156.755618 105.571131,157 104.538574,157 L101.041016,157 Z M103.091309,149.408203 L103.091309,151.566406 L103.992676,151.566406 C104.415855,151.566406 104.749104,151.463787 104.992432,151.258545 C105.23576,151.053303 105.357422,150.770835 105.357422,150.411133 C105.357422,149.74251 104.858078,149.408203 103.859375,149.408203 L103.091309,149.408203 Z M103.091309,153.089844 L103.091309,155.489258 L104.202148,155.489258 C104.676109,155.489258 105.047443,155.379233 105.316162,155.15918 C105.584881,154.939127 105.719238,154.638674 105.719238,154.257812 C105.719238,153.893878 105.586997,153.608237 105.32251,153.400879 C105.058023,153.193521 104.688804,153.089844 104.214844,153.089844 L103.091309,153.089844 Z M112.276367,157.158691 C111.193028,157.158691 110.341393,156.855065 109.721436,156.247803 C109.101478,155.640541 108.791504,154.816411 108.791504,153.775391 C108.791504,152.700515 109.113115,151.859459 109.756348,151.252197 C110.39958,150.644935 111.2692,150.341309 112.365234,150.341309 C113.444341,150.341309 114.290687,150.644935 114.904297,151.252197 C115.517907,151.859459 115.824707,152.66243 115.824707,153.661133 C115.824707,154.74024 115.508385,155.592933 114.875732,156.219238 C114.24308,156.845543 113.376633,157.158691 112.276367,157.158691 Z M112.327148,151.877441 C111.853188,151.877441 111.485027,152.040363 111.222656,152.366211 C110.960285,152.692059 110.829102,153.153317 110.829102,153.75 C110.829102,154.998379 111.332677,155.622559 112.339844,155.622559 C113.300461,155.622559 113.780762,154.981452 113.780762,153.699219 C113.780762,152.484694 113.296229,151.877441 112.327148,151.877441 Z M119.131836,157 L117.125977,157 L117.125977,147.376953 L119.131836,147.376953 L119.131836,157 Z M127.180664,157 L125.174805,157 L125.174805,156.10498 L125.149414,156.10498 C124.692381,156.807458 124.021652,157.158691 123.137207,157.158691 C122.324703,157.158691 121.670901,156.871992 121.175781,156.298584 C120.680662,155.725176 120.433105,154.924322 120.433105,153.895996 C120.433105,152.821121 120.706052,151.959964 121.251953,151.3125 C121.797854,150.665036 122.513016,150.341309 123.397461,150.341309 C124.235356,150.341309 124.819334,150.641761 125.149414,151.242676 L125.174805,151.242676 L125.174805,147.376953 L127.180664,147.376953 L127.180664,157 Z M125.212891,153.838867 L125.212891,153.350098 C125.212891,152.926918 125.09017,152.575685 124.844727,152.296387 C124.599283,152.017088 124.279787,151.877441 123.88623,151.877441 C123.441892,151.877441 123.094891,152.052 122.845215,152.401123 C122.595539,152.750246 122.470703,153.229489 122.470703,153.838867 C122.470703,154.410159 122.591307,154.850259 122.83252,155.15918 C123.073732,155.468101 123.408038,155.622559 123.835449,155.622559 C124.241701,155.622559 124.572834,155.459637 124.828857,155.133789 C125.084881,154.807941 125.212891,154.376305 125.212891,153.838867 Z M136.892578,147.694336 L136.892578,157 L134.893066,157 L134.893066,149.954102 C134.78304,150.051433 134.652914,150.143473 134.502686,150.230225 C134.352457,150.316976 134.192709,150.395263 134.023438,150.465088 C133.854166,150.534912 133.678549,150.594157 133.496582,150.642822 C133.314615,150.691488 133.134767,150.7264 132.957031,150.747559 L132.957031,149.059082 C133.477542,148.906738 133.968422,148.712078 134.429688,148.475098 C134.890953,148.238117 135.307778,147.977866 135.680176,147.694336 L136.892578,147.694336 Z M139.831543,156.70166 L139.831543,154.956055 C140.440921,155.400393 141.151851,155.622559 141.964355,155.622559 C142.476402,155.622559 142.875243,155.512534 143.160889,155.29248 C143.446535,155.072427 143.589355,154.765627 143.589355,154.37207 C143.589355,153.965818 143.412681,153.65267 143.059326,153.432617 C142.705972,153.212564 142.220381,153.102539 141.602539,153.102539 L140.758301,153.102539 L140.758301,151.566406 L141.539062,151.566406 C142.723964,151.566406 143.316406,151.172855 143.316406,150.385742 C143.316406,149.645179 142.861495,149.274902 141.95166,149.274902 C141.342282,149.274902 140.74984,149.471678 140.174316,149.865234 L140.174316,148.227539 C140.813317,147.905923 141.558101,147.745117 142.408691,147.745117 C143.339686,147.745117 144.064369,147.954588 144.582764,148.373535 C145.101158,148.792483 145.360352,149.33626 145.360352,150.004883 C145.360352,151.194016 144.75733,151.938801 143.55127,152.239258 L143.55127,152.270996 C144.194502,152.3514 144.702309,152.585203 145.074707,152.972412 C145.447105,153.359621 145.633301,153.834633 145.633301,154.397461 C145.633301,155.248051 145.322269,155.920896 144.700195,156.416016 C144.078122,156.911135 143.219081,157.158691 142.123047,157.158691 C141.183589,157.158691 140.419762,157.006349 139.831543,156.70166 Z M149.441895,156.244629 L149.416504,156.244629 L149.416504,159.989746 L147.410645,159.989746 L147.410645,150.5 L149.416504,150.5 L149.416504,151.477539 L149.441895,151.477539 C149.937014,150.720048 150.633134,150.341309 151.530273,150.341309 C152.3724,150.341309 153.023028,150.630124 153.482178,151.207764 C153.941327,151.785403 154.170898,152.571447 154.170898,153.565918 C154.170898,154.649257 153.903242,155.518877 153.36792,156.174805 C152.832598,156.830732 152.12061,157.158691 151.231934,157.158691 C150.449052,157.158691 149.852378,156.854007 149.441895,156.244629 Z M149.384766,153.578613 L149.384766,154.099121 C149.384766,154.547691 149.503254,154.913736 149.740234,155.197266 C149.977215,155.480796 150.288247,155.622559 150.67334,155.622559 C151.130373,155.622559 151.484781,155.445884 151.736572,155.092529 C151.988364,154.739175 152.114258,154.238773 152.114258,153.591309 C152.114258,152.448725 151.669926,151.877441 150.78125,151.877441 C150.370766,151.877441 150.035402,152.032957 149.775146,152.343994 C149.514891,152.655031 149.384766,153.066566 149.384766,153.578613 Z M161.489746,150.5 L159.344238,153.648438 L161.477051,157 L159.166504,157 L158.227051,155.248047 C158.150879,155.108398 158.059896,154.911622 157.954102,154.657715 L157.928711,154.657715 C157.865234,154.83545 157.778484,155.025878 157.668457,155.229004 L156.722656,157 L154.418457,157 L156.614746,153.762695 L154.551758,150.5 L156.875,150.5 L157.801758,152.321777 C157.92448,152.562989 158.01123,152.766112 158.062012,152.931152 L158.087402,152.931152 C158.155111,152.732258 158.246093,152.524903 158.360352,152.309082 L159.306152,150.5 L161.489746,150.5 Z"/>
  </g>
</svg>
