<svg xmlns="http://www.w3.org/2000/svg" width="640" height="128" viewBox="0 0 640 128">
  <defs>
    <linearGradient id="typeface-sf-a" x1="0%" y1="50%" y2="50%">
      <stop offset="0%" stop-color="#F9F9FA" stop-opacity="0"/>
      <stop offset="100%" stop-color="#F9F9FA"/>
    </linearGradient>
  </defs>
  <g fill="none" fill-rule="evenodd">
    <path fill="#000F40" d="M35.4941406,75 L33.3496094,68.5136719 L24.015625,68.5136719 L21.8359375,75 L17.2480469,75 L26.2480469,49.6347656 L31.3457031,49.6347656 L40.3632812,75 L35.4941406,75 Z M28.5507812,54.46875 L25.0703125,64.9277344 L32.2949219,64.9277344 L28.8496094,54.46875 L28.5507812,54.46875 Z M50.6113281,71.8886719 C53.2480469,71.8886719 55.2167969,70.1835938 55.2167969,67.9511719 L55.2167969,66.421875 L50.875,66.703125 C48.4316406,66.8613281 47.2890625,67.7402344 47.2890625,69.3046875 C47.2890625,70.921875 48.6777344,71.8886719 50.6113281,71.8886719 Z M49.328125,75.3164062 C45.6191406,75.3164062 42.9648438,73.0664062 42.9648438,69.5507812 C42.9648438,66.0703125 45.5839844,64.0664062 50.2597656,63.7851562 L55.2167969,63.4863281 L55.2167969,61.8691406 C55.2167969,59.9882812 53.9511719,58.9335938 51.5957031,58.9335938 C49.5917969,58.9335938 48.2207031,59.6367188 47.8164062,60.9375 L43.703125,60.9375 C44.0546875,57.5449219 47.2363281,55.3828125 51.8066406,55.3828125 C56.7460938,55.3828125 59.5234375,57.7910156 59.5234375,61.8691406 L59.5234375,75 L55.3222656,75 L55.3222656,72.3632812 L55.0234375,72.3632812 C53.9511719,74.2265625 51.8417969,75.3164062 49.328125,75.3164062 Z M85.6621094,75 L74.8164062,75 L74.8164062,49.6347656 L85.4160156,49.6347656 C90.2324219,49.6347656 93.1328125,52.0605469 93.1328125,55.9628906 C93.1328125,58.6347656 91.1640625,60.9902344 88.6152344,61.3945312 L88.6152344,61.7109375 C92.0253906,62.0273438 94.3808594,64.4882812 94.3808594,67.7929688 C94.3808594,72.2402344 91.0761719,75 85.6621094,75 Z M79.3515625,53.2382812 L79.3515625,60.3046875 L83.7285156,60.3046875 C86.9453125,60.3046875 88.6503906,59.0566406 88.6503906,56.7714844 C88.6503906,54.5390625 87.0507812,53.2382812 84.3085938,53.2382812 L79.3515625,53.2382812 Z M79.3515625,71.3964844 L84.625,71.3964844 C87.9648437,71.3964844 89.7402344,70.0253906 89.7402344,67.4414062 C89.7402344,64.9101562 87.9121094,63.5742188 84.4492187,63.5742188 L79.3515625,63.5742188 L79.3515625,71.3964844 Z M109.533203,75.3164062 C106.84375,75.3164062 104.611328,74.0683594 103.521484,71.9589844 L103.222656,71.9589844 L103.222656,75 L99.0214844,75 L99.0214844,48.3339844 L103.380859,48.3339844 L103.380859,58.828125 L103.679688,58.828125 C104.681641,56.7363281 106.896484,55.453125 109.533203,55.453125 C114.402344,55.453125 117.425781,59.2324219 117.425781,65.3847656 C117.425781,71.5019531 114.384766,75.3164062 109.533203,75.3164062 Z M108.162109,59.1621094 C105.191406,59.1621094 103.310547,61.5527344 103.310547,65.3847656 C103.310547,69.2167969 105.173828,71.6074219 108.162109,71.6074219 C111.150391,71.6074219 112.943359,69.2519531 112.943359,65.3847656 C112.943359,61.5175781 111.132812,59.1621094 108.162109,59.1621094 Z M142.439453,75.6328125 C148.292969,75.6328125 152.582031,72.1347656 153.179688,66.9492188 L148.714844,66.9492188 C148.099609,69.796875 145.65625,71.5898438 142.439453,71.5898438 C138.115234,71.5898438 135.425781,68.0390625 135.425781,62.3085938 C135.425781,56.5957031 138.115234,53.0449219 142.421875,53.0449219 C145.621094,53.0449219 148.064453,55.0136719 148.697266,58.0546875 L153.162109,58.0546875 C152.634766,52.7636719 148.1875,49.0019531 142.421875,49.0019531 C135.232422,49.0019531 130.785156,54.0820312 130.785156,62.3261719 C130.785156,70.5351562 135.25,75.6328125 142.439453,75.6328125 Z M174.361328,62.2382812 C173.904297,58.1953125 170.916016,55.3828125 165.976562,55.3828125 C160.193359,55.3828125 156.800781,59.0917969 156.800781,65.3320312 C156.800781,71.6601562 160.210938,75.3867188 165.994141,75.3867188 C170.863281,75.3867188 173.886719,72.6796875 174.361328,68.6542969 L170.212891,68.6542969 C169.755859,70.6582031 168.244141,71.7304688 165.976562,71.7304688 C163.005859,71.7304688 161.212891,69.375 161.212891,65.3320312 C161.212891,61.3417969 162.988281,59.0390625 165.976562,59.0390625 C168.367188,59.0390625 169.808594,60.375 170.212891,62.2382812 L174.361328,62.2382812 Z M188.582031,49.6347656 L198.091797,49.6347656 C205.632812,49.6347656 210.027344,54.2402344 210.027344,62.203125 C210.027344,70.3417969 205.685547,75 198.091797,75 L188.582031,75 L188.582031,49.6347656 Z M193.117188,53.5546875 L193.117188,71.0800781 L197.494141,71.0800781 C202.539062,71.0800781 205.404297,67.9335938 205.404297,62.2734375 C205.404297,56.7363281 202.46875,53.5546875 197.494141,53.5546875 L193.117188,53.5546875 Z M221.699219,75.3164062 C216.830078,75.3164062 213.789062,71.484375 213.789062,65.3671875 C213.789062,59.2851562 216.847656,55.453125 221.699219,55.453125 C224.335938,55.453125 226.515625,56.71875 227.535156,58.828125 L227.833984,58.828125 L227.833984,48.3339844 L232.193359,48.3339844 L232.193359,75 L227.974609,75 L227.974609,71.9589844 L227.675781,71.9589844 C226.585938,74.0683594 224.371094,75.3164062 221.699219,75.3164062 Z M223.052734,59.1621094 C220.082031,59.1621094 218.253906,61.5175781 218.253906,65.3847656 C218.253906,69.2695312 220.064453,71.6074219 223.052734,71.6074219 C226.058594,71.6074219 227.886719,69.2519531 227.886719,65.3847656 C227.886719,61.5527344 226.041016,59.1621094 223.052734,59.1621094 Z M264.167969,71.0800781 L252.285156,71.0800781 L252.285156,63.9785156 L263.517578,63.9785156 L263.517578,60.2871094 L252.285156,60.2871094 L252.285156,53.5546875 L264.167969,53.5546875 L264.167969,49.6347656 L247.75,49.6347656 L247.75,75 L264.167969,75 L264.167969,71.0800781 Z M277.404297,58.8457031 C274.802734,58.8457031 272.974609,60.7089844 272.78125,63.5214844 L281.833984,63.5214844 C281.746094,60.6738281 280.023438,58.8457031 277.404297,58.8457031 Z M281.869141,69.7089844 L286,69.7089844 C285.173828,73.2070312 281.992187,75.3867188 277.457031,75.3867188 C271.796875,75.3867188 268.386719,71.6425781 268.386719,65.4550781 C268.386719,59.2675781 271.849609,55.3828125 277.421875,55.3828125 C282.90625,55.3828125 286.193359,59.0214844 286.193359,65.0859375 L286.193359,66.4921875 L272.763672,66.4921875 L272.763672,66.7207031 C272.869141,69.9199219 274.714844,71.9238281 277.580078,71.9238281 C279.742187,71.9238281 281.236328,71.1328125 281.869141,69.7089844 Z M305.160156,75 L305.160156,64.7167969 L315.794922,64.7167969 L315.794922,60.9375 L305.160156,60.9375 L305.160156,53.5546875 L316.796875,53.5546875 L316.796875,49.6347656 L300.625,49.6347656 L300.625,75 L305.160156,75 Z M322.755859,75 L327.097656,75 L327.097656,59.3730469 L331.228516,59.3730469 L331.228516,55.8925781 L327.044922,55.8925781 L327.044922,54.3457031 C327.044922,52.5703125 327.923828,51.796875 329.734375,51.796875 C330.384766,51.796875 331.035156,51.8671875 331.404297,51.9375 L331.404297,48.6855469 C330.648438,48.5625 330.068359,48.4921875 329.207031,48.4921875 C324.970703,48.4921875 322.755859,50.109375 322.755859,54.0117188 L322.755859,55.8925781 L319.609375,55.8925781 L319.609375,59.3730469 L322.755859,59.3730469 L322.755859,75 Z M367.421875,64.8398438 L367.421875,61.6582031 L356.892578,61.6582031 L356.892578,65.2089844 L362.992188,65.2089844 L362.974609,65.7363281 C362.904297,69.234375 360.267578,71.5898438 356.400391,71.5898438 C351.882812,71.5898438 349.052734,68.0390625 349.052734,62.2734375 C349.052734,56.578125 351.830078,53.0449219 356.259766,53.0449219 C359.511719,53.0449219 361.779297,54.6445312 362.693359,57.5273438 L367.210938,57.5273438 C366.402344,52.3417969 362.113281,49.0019531 356.259766,49.0019531 C349.035156,49.0019531 344.412109,54.1875 344.412109,62.3085938 C344.412109,70.5351562 348.982422,75.6328125 356.330078,75.6328125 C363.097656,75.6328125 367.421875,71.4316406 367.421875,64.8398438 Z M380.482422,71.1679688 C383.523438,71.1679688 385.351562,68.8476562 385.351562,65.1738281 C385.351562,61.5 383.505859,59.1621094 380.482422,59.1621094 C377.441406,59.1621094 375.71875,61.5 375.71875,65.1738281 C375.71875,68.8476562 377.441406,71.1679688 380.482422,71.1679688 Z M380.482422,82.3125 C375.542969,82.3125 372.308594,80.1328125 371.957031,76.828125 L376.333984,76.828125 C376.615234,78.1464844 378.162109,78.9902344 380.552734,78.9902344 C383.541016,78.9902344 385.28125,77.5839844 385.28125,75.1757812 L385.28125,71.5371094 L384.982422,71.5371094 C383.875,73.59375 381.783203,74.71875 379.111328,74.71875 C374.259766,74.71875 371.236328,70.9570312 371.236328,65.1738281 C371.236328,59.2851562 374.277344,55.453125 379.181641,55.453125 C381.800781,55.453125 384.085938,56.7539062 385.140625,58.8457031 L385.439453,58.8457031 L385.439453,55.7695312 L389.640625,55.7695312 L389.640625,75.0703125 C389.640625,79.5175781 386.089844,82.3125 380.482422,82.3125 Z M426.431641,75 L426.431641,49.6347656 L421.914062,49.6347656 L421.914062,60.1289062 L409.574219,60.1289062 L409.574219,49.6347656 L405.039062,49.6347656 L405.039062,75 L409.574219,75 L409.574219,64.0488281 L421.914062,64.0488281 L421.914062,75 L426.431641,75 Z M432.408203,75 L436.767578,75 L436.767578,63.8378906 C436.767578,61.078125 438.367188,59.2148438 441.232422,59.2148438 C443.763672,59.2148438 445.099609,60.7089844 445.099609,63.6269531 L445.099609,75 L449.458984,75 L449.458984,62.5898438 C449.458984,58.0195312 446.962891,55.4179688 442.849609,55.4179688 C439.984375,55.4179688 437.927734,56.71875 437.013672,58.8808594 L436.697266,58.8808594 L436.697266,48.3339844 L432.408203,48.3339844 L432.408203,75 Z M469.216797,75 L469.216797,49.6347656 L464.681641,49.6347656 L464.681641,75 L469.216797,75 Z M475.070312,75 L479.412109,75 L479.412109,55.7695312 L475.070312,55.7695312 L475.070312,75 Z M477.232422,52.640625 C478.832031,52.640625 479.921875,51.6210938 479.921875,50.2324219 C479.921875,48.84375 478.832031,47.8242188 477.232422,47.8242188 C475.650391,47.8242188 474.542969,48.84375 474.542969,50.2324219 C474.542969,51.6210938 475.650391,52.640625 477.232422,52.640625 Z M493.123047,68.0917969 C493.123047,72.6796875 496.392578,75.6328125 501.244141,75.6328125 C506.341797,75.6328125 509.417969,72.6445312 509.417969,67.4238281 L509.417969,49.6347656 L504.882812,49.6347656 L504.882812,67.3886719 C504.882812,70.1132812 503.564453,71.5546875 501.191406,71.5546875 C499.029297,71.5546875 497.587891,70.1835938 497.552734,68.0917969 L493.123047,68.0917969 Z M519.613281,55.7695312 L515.271484,55.7695312 L515.271484,75.6503906 C515.271484,77.390625 514.585938,78.1113281 512.652344,78.1113281 C512.564453,78.1113281 512.142578,78.09375 512.089844,78.09375 L512.089844,81.5214844 C512.212891,81.5390625 512.916016,81.5742188 513.144531,81.5742188 C517.451172,81.5742188 519.613281,79.6582031 519.613281,75.7207031 L519.613281,55.7695312 Z M517.433594,52.640625 C519.033203,52.640625 520.123047,51.6210938 520.123047,50.2324219 C520.123047,48.84375 519.033203,47.8242188 517.433594,47.8242188 C515.851562,47.8242188 514.744141,48.84375 514.744141,50.2324219 C514.744141,51.6210938 515.851562,52.640625 517.433594,52.640625 Z M539.599609,75 L539.599609,66.9140625 L542.306641,63.8027344 L550.322266,75 L555.859375,75 L545.523438,60.6914062 L555.103516,49.6347656 L549.900391,49.6347656 L539.898438,61.3066406 L539.599609,61.3066406 L539.599609,49.6347656 L535.064453,49.6347656 L535.064453,75 L539.599609,75 Z M564.314453,63.609375 L564.015625,63.609375 L564.015625,48.3339844 L559.65625,48.3339844 L559.65625,75 L564.015625,75 L564.015625,68.3027344 L565.5625,66.7558594 L571.732422,75 L577.005859,75 L568.814453,64.0136719 L576.478516,55.7695312 L571.416016,55.7695312 L564.314453,63.609375 Z M606.589844,71.0273438 L594.953125,71.0273438 L594.953125,49.6347656 L590.417969,49.6347656 L590.417969,75 L606.589844,75 L606.589844,71.0273438 Z M611.195312,75 L615.554688,75 L615.554688,48.3339844 L611.195312,48.3339844 L611.195312,75 Z M657.302734,75 L657.302734,49.6347656 L651.994141,49.6347656 L644.365234,68.109375 L644.048828,68.109375 L636.419922,49.6347656 L631.111328,49.6347656 L631.111328,75 L635.330078,75 L635.330078,57.1582031 L635.576172,57.1582031 L642.589844,74.015625 L645.824219,74.015625 L652.837891,57.1582031 L653.083984,57.1582031 L653.083984,75 L657.302734,75 Z M663.103516,75 L667.462891,75 L667.462891,63.3105469 C667.462891,60.9550781 669.0625,59.1796875 671.224609,59.1796875 C673.369141,59.1796875 674.705078,60.4628906 674.705078,62.5722656 L674.705078,75 L678.941406,75 L678.941406,63.0292969 C678.941406,60.8320312 680.435547,59.1796875 682.703125,59.1796875 C685.041016,59.1796875 686.21875,60.4101562 686.21875,62.8886719 L686.21875,75 L690.560547,75 L690.560547,61.78125 C690.560547,57.7910156 688.240234,55.3828125 684.390625,55.3828125 C681.71875,55.3828125 679.503906,56.7714844 678.554688,58.8808594 L678.255859,58.8808594 C677.447266,56.71875 675.601562,55.3828125 672.947266,55.3828125 C670.398438,55.3828125 668.429688,56.6835938 667.603516,58.8808594 L667.304688,58.8808594 L667.304688,55.7695312 L663.103516,55.7695312 L663.103516,75 Z M710.160156,75 L710.160156,57.7382812 L710.458984,57.7382812 L722.904297,75 L726.824219,75 L726.824219,49.6347656 L722.464844,49.6347656 L722.464844,66.8789062 L722.166016,66.8789062 L709.720703,49.6347656 L705.783203,49.6347656 L705.783203,75 L710.160156,75 Z M732.642578,75 L737.001953,75 L737.001953,63.8027344 C737.001953,60.9726562 738.636719,59.1796875 741.238281,59.1796875 C743.892578,59.1796875 745.123047,60.65625 745.123047,63.5917969 L745.123047,75 L749.482422,75 L749.482422,62.5546875 C749.482422,57.9667969 747.144531,55.3828125 742.855469,55.3828125 C739.990234,55.3828125 738.056641,56.7011719 737.142578,58.8457031 L736.84375,58.8457031 L736.84375,55.7695312 L732.642578,55.7695312 L732.642578,75 Z M775.65625,49.0019531 C783.021484,49.0019531 787.626953,54.1171875 787.626953,62.3085938 C787.626953,70.4824219 783.056641,75.6328125 775.65625,75.6328125 C768.203125,75.6328125 763.632812,70.5 763.632812,62.3085938 C763.632812,54.1171875 768.291016,49.0019531 775.65625,49.0019531 Z M775.65625,53.0273438 C771.138672,53.0273438 768.273438,56.6308594 768.273438,62.3085938 C768.273438,67.96875 771.068359,71.6074219 775.65625,71.6074219 C780.173828,71.6074219 782.986328,67.96875 782.986328,62.3085938 C782.986328,56.6308594 780.15625,53.0273438 775.65625,53.0273438 Z M800.652344,75.3867188 C794.886719,75.3867188 791.40625,71.625 791.40625,65.3847656 C791.40625,59.1796875 794.939453,55.3828125 800.652344,55.3828125 C806.382812,55.3828125 809.898438,59.1621094 809.898438,65.3847656 C809.898438,71.625 806.400391,75.3867188 800.652344,75.3867188 Z M800.652344,71.7304688 C803.693359,71.7304688 805.416016,69.4101562 805.416016,65.3847656 C805.416016,61.3769531 803.675781,59.0390625 800.652344,59.0390625 C797.611328,59.0390625 795.871094,61.3769531 795.871094,65.3847656 C795.871094,69.4101562 797.611328,71.7304688 800.652344,71.7304688 Z M824.347656,49.6347656 L834.578125,49.6347656 C839.640625,49.6347656 843.103516,53.0976562 843.103516,58.2128906 C843.103516,63.2402344 839.517578,66.6855469 834.384766,66.6855469 L828.882812,66.6855469 L828.882812,75 L824.347656,75 L824.347656,49.6347656 Z M828.882812,53.4316406 L828.882812,62.9238281 L833.365234,62.9238281 C836.599609,62.9238281 838.498047,61.2363281 838.498047,58.2128906 C838.498047,55.1015625 836.652344,53.4316406 833.382812,53.4316406 L828.882812,53.4316406 Z M858.115234,55.453125 C862.984375,55.453125 866.042969,59.2148438 866.042969,65.3847656 C866.042969,71.5195312 863.019531,75.3164062 858.167969,75.3164062 C855.408203,75.3164062 853.28125,74.1210938 852.296875,72.0820312 L851.998047,72.0820312 L851.998047,81.3984375 L847.638672,81.3984375 L847.638672,55.7695312 L851.839844,55.7695312 L851.839844,58.9511719 L852.138672,58.9511719 C853.246094,56.7714844 855.478516,55.453125 858.115234,55.453125 Z M856.744141,71.6074219 C859.767578,71.6074219 861.560547,69.2695312 861.560547,65.3847656 C861.560547,61.5 859.75,59.1621094 856.761719,59.1621094 C853.791016,59.1621094 851.927734,61.5527344 851.910156,65.3847656 C851.927734,69.234375 853.773438,71.6074219 856.744141,71.6074219 Z M891.425781,75.6328125 C884.007812,75.6328125 879.402344,70.5703125 879.402344,62.3261719 C879.402344,54.0996094 884.060547,49.0019531 891.425781,49.0019531 C898.755859,49.0019531 903.396484,54.1171875 903.396484,62.3261719 C903.396484,67.0546875 901.884766,70.7988281 899.212891,72.9433594 L902.376953,77.6191406 L897.824219,77.6191406 L895.890625,74.9296875 C894.554688,75.3867188 893.025391,75.6328125 891.425781,75.6328125 Z M891.425781,71.6074219 C892.164062,71.6074219 892.884766,71.5019531 893.570312,71.3085938 L890.529297,66.984375 L894.888672,66.984375 L896.488281,68.9882812 C897.947266,67.6347656 898.755859,65.2792969 898.755859,62.3261719 C898.755859,56.6308594 895.890625,53.0273438 891.425781,53.0273438 C886.908203,53.0273438 884.042969,56.6132812 884.042969,62.3261719 C884.042969,68.0390625 886.908203,71.6074219 891.425781,71.6074219 Z M915.103516,55.453125 C917.705078,55.453125 919.990234,56.8066406 921.044922,58.9511719 L921.34375,58.9511719 L921.34375,55.7695312 L925.580078,55.7695312 L925.580078,81.3984375 L921.185547,81.3984375 L921.185547,72.0820312 L920.886719,72.0820312 C919.779297,74.1386719 917.757812,75.3164062 915.033203,75.3164062 C910.181641,75.3164062 907.175781,71.484375 907.175781,65.3671875 C907.175781,59.3027344 910.251953,55.453125 915.103516,55.453125 Z M916.404297,71.6074219 C919.410156,71.6074219 921.273438,69.234375 921.273438,65.3847656 C921.273438,61.5527344 919.392578,59.1621094 916.421875,59.1621094 C913.433594,59.1621094 911.640625,61.5 911.640625,65.3847656 C911.640625,69.2871094 913.416016,71.6074219 916.404297,71.6074219 Z M945.496094,53.3964844 L945.496094,61.8867188 L950.734375,61.8867188 C953.617188,61.8867188 955.269531,60.3398438 955.269531,57.6503906 C955.269531,55.0136719 953.511719,53.3964844 950.628906,53.3964844 L945.496094,53.3964844 Z M945.496094,65.4902344 L945.496094,75 L940.960938,75 L940.960938,49.6347656 L951.261719,49.6347656 C956.587891,49.6347656 959.927734,52.6933594 959.927734,57.5625 C959.927734,60.9023438 958.169922,63.6972656 955.146484,64.7871094 L960.683594,75 L955.498047,75 L950.523438,65.4902344 L945.496094,65.4902344 Z M964.955078,75 L969.314453,75 L969.314453,63.890625 C969.314453,61.2011719 971.283203,59.4433594 974.113281,59.4433594 C974.851562,59.4433594 976.011719,59.5664062 976.345703,59.6894531 L976.345703,55.6464844 C975.941406,55.5234375 975.167969,55.453125 974.535156,55.453125 C972.056641,55.453125 969.982422,56.859375 969.455078,58.7578125 L969.15625,58.7578125 L969.15625,55.7695312 L964.955078,55.7695312 L964.955078,75 Z M988.808594,68.109375 C989.037109,72.7148438 992.886719,75.6328125 998.705078,75.6328125 C1004.85742,75.6328125 1008.67187,72.5566406 1008.67187,67.6171875 C1008.67187,63.75 1006.50977,61.6054688 1001.35937,60.4453125 L998.441406,59.7773438 C995.294922,59.0566406 994.011719,58.0546875 994.011719,56.3496094 C994.011719,54.1875 995.945312,52.78125 998.863281,52.78125 C1001.64062,52.78125 1003.60937,54.1875 1003.92578,56.4199219 L1008.26758,56.4199219 C1008.05664,52.0605469 1004.20703,49.0019531 998.880859,49.0019531 C993.203125,49.0019531 989.441406,52.0605469 989.441406,56.6660156 C989.441406,60.4453125 991.603516,62.7304688 996.208984,63.7675781 L999.496094,64.5234375 C1002.74805,65.2792969 1004.13672,66.3515625 1004.13672,68.1796875 C1004.13672,70.3066406 1001.97461,71.8359375 998.986328,71.8359375 C995.769531,71.8359375 993.519531,70.3769531 993.238281,68.109375 L988.808594,68.109375 Z M1012.87305,61.2714844 C1012.87305,64.171875 1014.61328,65.8769531 1018.30469,66.7207031 L1021.71484,67.5117188 C1023.54297,67.9160156 1024.36914,68.6015625 1024.36914,69.6914062 C1024.36914,71.1152344 1022.83984,72.0820312 1020.64258,72.0820312 C1018.46289,72.0820312 1017.10937,71.2382812 1016.6875,69.8144531 L1012.38086,69.8144531 C1012.71484,73.3125 1015.73828,75.3867188 1020.53711,75.3867188 C1025.33594,75.3867188 1028.72852,72.9257812 1028.72852,69.234375 C1028.72852,66.4042969 1027.02344,64.8222656 1023.34961,63.9960938 L1019.95703,63.2226562 C1018.02344,62.7832031 1017.10937,62.1152344 1017.10937,61.0253906 C1017.10937,59.6367188 1018.60352,58.6875 1020.58984,58.6875 C1022.62891,58.6875 1023.91211,59.5488281 1024.22852,60.9023438 L1028.32422,60.9023438 C1028.00781,57.4042969 1025.14258,55.3828125 1020.57227,55.3828125 C1016.03711,55.3828125 1012.87305,57.7910156 1012.87305,61.2714844 Z M1054.04102,75 L1054.04102,53.5546875 L1061.86328,53.5546875 L1061.86328,49.6347656 L1041.70117,49.6347656 L1041.70117,53.5546875 L1049.50586,53.5546875 L1049.50586,75 L1054.04102,75 Z M1067.54102,51.0585938 L1067.54102,55.8925781 L1064.5,55.8925781 L1064.5,59.3730469 L1067.54102,59.3730469 L1067.54102,69.8671875 C1067.54102,73.59375 1069.29883,75.0878906 1073.71094,75.0878906 C1074.55469,75.0878906 1075.36328,75 1075.99609,74.8769531 L1075.99609,71.4667969 C1075.46875,71.5195312 1075.13477,71.5546875 1074.51953,71.5546875 C1072.69141,71.5546875 1071.88281,70.7109375 1071.88281,68.8125 L1071.88281,59.3730469 L1075.99609,59.3730469 L1075.99609,55.8925781 L1071.88281,55.8925781 L1071.88281,51.0585938 L1067.54102,51.0585938 Z M1094.99805,49.6347656 L1090.48047,49.6347656 L1090.48047,66.2636719 C1090.48047,71.8007812 1094.48828,75.6328125 1100.9043,75.6328125 C1107.32031,75.6328125 1111.32812,71.8007812 1111.32812,66.2636719 L1111.32812,49.6347656 L1106.79297,49.6347656 L1106.79297,65.8417969 C1106.79297,69.2695312 1104.66602,71.5722656 1100.9043,71.5722656 C1097.14258,71.5722656 1094.99805,69.2695312 1094.99805,65.8417969 L1094.99805,49.6347656 Z M1133.91602,55.7695312 L1129.55664,55.7695312 L1129.55664,66.9667969 C1129.55664,69.8144531 1128.00977,71.5546875 1125.17969,71.5546875 C1122.57812,71.5546875 1121.36523,70.1132812 1121.36523,67.1777344 L1121.36523,55.7695312 L1117.00586,55.7695312 L1117.00586,68.2675781 C1117.00586,72.7675781 1119.4668,75.3867188 1123.66797,75.3867188 C1126.60352,75.3867188 1128.48438,74.1386719 1129.41602,71.9414062 L1129.71484,71.9414062 L1129.71484,75 L1133.91602,75 L1133.91602,55.7695312 Z M1161.51367,75 L1170.28516,49.6347656 L1165.45117,49.6347656 L1159.12305,69.7089844 L1158.82422,69.7089844 L1152.44336,49.6347656 L1147.43359,49.6347656 L1156.29297,75 L1161.51367,75 Z M1190.5,55.7695312 L1185.89453,55.7695312 L1181.48242,70.640625 L1181.18359,70.640625 L1176.73633,55.7695312 L1172.06055,55.7695312 L1178.89844,75 L1183.69727,75 L1190.5,55.7695312 Z M1218.85352,57.0351562 L1219.11719,57.0351562 L1224.28516,75 L1228.53906,75 L1235.3418,49.6347656 L1230.64844,49.6347656 L1226.30664,68.5136719 L1226.06055,68.5136719 L1220.99805,49.6347656 L1216.97266,49.6347656 L1211.98047,68.5136719 L1211.7168,68.5136719 L1207.375,49.6347656 L1202.64648,49.6347656 L1209.44922,75 L1213.7207,75 L1218.85352,57.0351562 Z M1264.96094,55.7695312 L1260.61914,55.7695312 L1257.4375,70.1308594 L1257.13867,70.1308594 L1253.41211,55.7695312 L1249.24609,55.7695312 L1245.55469,70.1308594 L1245.25586,70.1308594 L1242.05664,55.7695312 L1237.66211,55.7695312 L1242.86523,75 L1247.40039,75 L1251.12695,61.1484375 L1251.42578,61.1484375 L1255.16992,75 L1259.75781,75 L1264.96094,55.7695312 Z M1277.24805,75 L1282.1875,75 L1288.16406,65.8945312 L1288.46289,65.8945312 L1294.35156,75 L1299.58984,75 L1291.22266,62.3261719 L1299.73047,49.6347656 L1294.63281,49.6347656 L1288.76172,58.9511719 L1288.46289,58.9511719 L1282.67969,49.6347656 L1277.31836,49.6347656 L1285.54492,62.2207031 L1277.24805,75 Z M1311.4375,68.3730469 L1315.375,75 L1320.29688,75 L1314.02148,65.2792969 L1320.22656,55.7695312 L1315.42773,55.7695312 L1311.63086,62.3789062 L1311.33203,62.3789062 L1307.5,55.7695312 L1302.45508,55.7695312 L1308.73047,65.4550781 L1302.50781,75 L1307.20117,75 L1311.13867,68.3730469 L1311.4375,68.3730469 Z M1345.75,75 L1345.75,65.0859375 L1354.64453,49.6347656 L1349.66992,49.6347656 L1343.64062,60.4804688 L1343.3418,60.4804688 L1337.29492,49.6347656 L1332.32031,49.6347656 L1341.21484,65.0859375 L1341.21484,75 L1345.75,75 Z M1359.39062,81.9785156 C1363.69727,81.9785156 1365.75391,80.3964844 1367.38867,75.6152344 L1374.33203,55.7695312 L1369.72656,55.7695312 L1365.24414,70.78125 L1364.94531,70.78125 L1360.44531,55.7695312 L1355.66406,55.7695312 L1362.53711,75.0878906 L1362.30859,75.9316406 C1361.74609,77.7070312 1360.70898,78.4101562 1358.86328,78.4101562 C1358.56445,78.4101562 1357.91406,78.3925781 1357.66797,78.3398438 L1357.66797,81.9082031 C1357.94922,81.9609375 1359.12695,81.9785156 1359.39062,81.9785156 Z M1387.42773,75 L1406.71094,75 L1406.71094,71.0800781 L1393.08789,71.0800781 L1393.08789,70.78125 L1406.37695,52.7285156 L1406.37695,49.6347656 L1387.79688,49.6347656 L1387.79688,53.5546875 L1400.76953,53.5546875 L1400.76953,53.8535156 L1387.42773,71.90625 L1387.42773,75 Z M1411.36914,75 L1426.94336,75 L1426.94336,71.484375 L1416.94141,71.484375 L1416.94141,71.1855469 L1426.78516,58.7402344 L1426.78516,55.7695312 L1411.45703,55.7695312 L1411.45703,59.2851562 L1421.58203,59.2851562 L1421.58203,59.5839844 L1411.36914,72.2753906 L1411.36914,75 Z"/>
    <rect width="128" height="128" x="512" fill="url(#typeface-sf-a)"/>
  </g>
</svg>
