<svg xmlns="http://www.w3.org/2000/svg" style="background:#fff" viewBox="0 0 752 447"><g fill="none" fill-rule="evenodd"><path fill="#0C0C0D" d="M196.53 293.23a31.17 31.17 0 0 1 1.18 1.62l.67 1.07c.22.37.4.73.56 1.08h-1.38a19.9 19.9 0 0 0-2.35-3.54l-.34.02h-1.5V297h-1.25v-8.88c.35-.09.75-.14 1.19-.17.44-.03.84-.05 1.2-.05 1.27 0 2.23.24 2.9.72.66.47.99 1.18.99 2.13 0 .6-.16 1.1-.48 1.53a2.8 2.8 0 0 1-1.4.95zM194.6 289c-.53 0-.94.02-1.23.04v3.4h.9c.43 0 .82-.02 1.17-.07.34-.04.64-.12.87-.25.24-.12.43-.29.56-.5.13-.23.2-.52.2-.89 0-.33-.07-.62-.2-.84-.13-.23-.3-.4-.53-.53a2.3 2.3 0 0 0-.78-.28c-.3-.05-.62-.07-.96-.07zm5.23 4.63c0-.6.09-1.12.26-1.56.17-.45.4-.82.69-1.12.29-.29.61-.51.99-.66.37-.15.75-.22 1.14-.22.91 0 1.6.28 2.1.85.48.57.72 1.43.72 2.6v.2l-.01.22h-4.63c.05.7.26 1.24.61 1.6.36.37.91.55 1.67.55a4.43 4.43 0 0 0 1.72-.32l.17 1c-.14.09-.4.17-.77.26a5.5 5.5 0 0 1-1.25.13c-.6 0-1.1-.1-1.53-.27a2.85 2.85 0 0 1-1.68-1.85 4.7 4.7 0 0 1-.2-1.4zm4.64-.66c.01-.55-.13-1-.4-1.35a1.41 1.41 0 0 0-1.17-.52 1.6 1.6 0 0 0-1.28.58c-.14.18-.26.38-.34.6-.08.23-.14.46-.16.69h3.35zm7.24 3.35a3.23 3.23 0 0 1-1.65.43c-.4 0-.79-.06-1.15-.2a2.5 2.5 0 0 1-.94-.6 2.92 2.92 0 0 1-.64-1.02c-.16-.4-.23-.89-.23-1.45a4 4 0 0 1 .22-1.36 2.95 2.95 0 0 1 1.68-1.77c.4-.17.86-.25 1.37-.25.57 0 1.06.04 1.48.12.42.08.77.16 1.06.23v6.03c0 1.04-.27 1.8-.8 2.26-.55.47-1.36.7-2.45.7a6.64 6.64 0 0 1-2.19-.35l.23-1.05a5.63 5.63 0 0 0 1.98.36c.72 0 1.24-.14 1.56-.42.31-.3.47-.75.47-1.37v-.29zm-.01-5.01a3.98 3.98 0 0 0-1.31-.15c-.65 0-1.15.22-1.5.64-.36.42-.53.99-.53 1.69 0 .39.05.72.15 1 .1.28.23.5.4.69.17.18.36.32.59.4.22.09.44.13.68.13a2.74 2.74 0 0 0 1.52-.45v-3.95zm8.67 5.5c-.28.06-.64.14-1.1.22-.45.07-.98.11-1.58.11-.52 0-.96-.07-1.31-.22a2.12 2.12 0 0 1-.86-.65c-.22-.28-.37-.6-.47-.98-.1-.38-.14-.8-.14-1.25v-3.8h1.2v3.54c0 .82.14 1.4.4 1.76.26.36.7.54 1.31.54a6.46 6.46 0 0 0 1.34-.13v-5.71h1.21v6.56zm4.1.32c-.74-.02-1.27-.18-1.58-.48-.31-.3-.47-.78-.47-1.42v-8.11l1.21-.2v8.12c0 .2.02.36.06.5.03.12.09.22.16.3.08.08.19.14.32.18.13.04.29.07.48.1l-.17 1.01zm3.82-1c.28 0 .54 0 .76-.02.22-.01.4-.04.55-.07v-2.02a1.55 1.55 0 0 0-.42-.1 4.7 4.7 0 0 0-1.29-.01c-.2.02-.39.08-.56.16-.17.08-.3.2-.42.34a.89.89 0 0 0-.17.56c0 .44.14.74.42.9.27.17.65.26 1.13.26zm-.1-6.06c.48 0 .89.06 1.22.19.34.13.6.3.8.53.21.23.36.5.44.82.09.32.13.67.13 1.05v4.22a124.62 124.62 0 0 1-1.06.16 24.39 24.39 0 0 1-1.58.1c-.38 0-.73-.04-1.05-.11-.32-.08-.6-.2-.83-.37a1.7 1.7 0 0 1-.55-.67c-.13-.28-.2-.61-.2-1 0-.38.08-.7.24-.97.15-.27.35-.48.61-.65.26-.16.57-.28.91-.36a4.96 4.96 0 0 1 2.33.05v-.34c0-.2-.02-.4-.07-.59a1.18 1.18 0 0 0-.7-.88c-.19-.1-.44-.14-.75-.14a5.71 5.71 0 0 0-1.72.26l-.14-1a6.74 6.74 0 0 1 1.96-.3zm7.1.03a3.76 3.76 0 0 1 .74.07 11.33 11.33 0 0 1 .6.12l-.2 1.06a4.05 4.05 0 0 0-2.44-.03V297h-1.2v-6.47a6.85 6.85 0 0 1 2.5-.43zm5.69-.25c.49-.2.97-.44 1.44-.73.47-.3.9-.68 1.28-1.13h.86V297h-1.2v-7.33a5.32 5.32 0 0 1-1.44.87c-.2.09-.39.16-.57.22l-.38-.91zm9.06 6.27c.77 0 1.32-.16 1.65-.46.34-.3.5-.71.5-1.22 0-.33-.07-.6-.2-.83-.14-.23-.32-.4-.55-.54a2.39 2.39 0 0 0-.79-.29c-.3-.05-.6-.08-.91-.08h-.31v-1h.42c.22 0 .44-.01.67-.06.23-.04.44-.12.63-.23.2-.11.35-.27.47-.46.12-.2.18-.44.18-.74a1.25 1.25 0 0 0-.97-1.3 2.75 2.75 0 0 0-1.65.11 4.6 4.6 0 0 0-.73.39l-.47-.93a4.13 4.13 0 0 1 1.58-.63 3.87 3.87 0 0 1 1.96.1c.34.13.63.29.86.5.22.21.39.47.5.76.12.29.17.6.17.94 0 .47-.13.87-.4 1.2-.27.34-.6.59-.98.76.24.07.46.17.68.3.22.13.4.3.57.5a2.54 2.54 0 0 1 .53 1.55c0 .4-.06.76-.2 1.1-.13.32-.34.61-.62.86-.28.24-.64.43-1.06.57a4.88 4.88 0 0 1-2.2.15 6.8 6.8 0 0 1-1.56-.41l.24-1.06a4.05 4.05 0 0 0 1.99.44zm10.12-2.49c0-.79-.2-1.4-.58-1.82a2.02 2.02 0 0 0-1.56-.63 7.14 7.14 0 0 0-1.34.13v4.26c.15.12.36.24.64.35a2.4 2.4 0 0 0 1.8-.02c.24-.12.44-.3.6-.52.16-.22.27-.48.34-.78.07-.3.1-.62.1-.97zm1.26 0c0 .51-.06.99-.2 1.42-.13.43-.33.8-.59 1.12-.26.31-.58.55-.95.73-.38.17-.81.26-1.3.26a3.14 3.14 0 0 1-1.7-.46v2.7h-1.21v-8.95c.29-.07.64-.15 1.07-.23.43-.08.93-.12 1.5-.12.51 0 .98.08 1.4.24a3 3 0 0 1 1.74 1.82c.16.44.24.93.24 1.47zm5.53 3.37a10.31 10.31 0 0 0-.8-1.36 27.68 27.68 0 0 0-1.02-1.42 22.71 22.71 0 0 0-1.8 2.78h-1.26c.3-.59.67-1.19 1.09-1.8.42-.61.84-1.2 1.25-1.75l-2.23-3.21h1.36l1.62 2.37 1.62-2.37h1.29l-2.19 3.13c.42.57.85 1.16 1.28 1.8.44.62.81 1.23 1.12 1.83h-1.33zm-71.98-117.78c.25.43.52.96.83 1.58a95.12 95.12 0 0 1 1.88 4.05l.86 1.97.85-1.97a89.23 89.23 0 0 1 1.87-4.05c.3-.62.58-1.15.83-1.58h1.94a112.6 112.6 0 0 1 .53 5.72 259.92 259.92 0 0 1 .37 6.06h-2.1c-.05-1.37-.1-2.78-.17-4.23a87.23 87.23 0 0 0-.28-4.22 135.84 135.84 0 0 0-3.08 6.89h-1.6a119.19 119.19 0 0 1-.92-2.15 686.4 686.4 0 0 1-1.17-2.63 761 761 0 0 0-.98-2.1 87.23 87.23 0 0 0-.28 4.2 428.3 428.3 0 0 0-.16 4.24h-2.11a229.19 229.19 0 0 1 .61-9.11c.1-.97.19-1.85.29-2.67h1.99zm11.86 7.38c0-.79.12-1.47.35-2.06.23-.59.54-1.08.93-1.47a4.1 4.1 0 0 1 2.86-1.18c1.22 0 2.17.38 2.86 1.14.69.76 1.03 1.89 1.03 3.4a9.66 9.66 0 0 1-.04.76h-5.86c.06.72.3 1.27.76 1.66.44.4 1.1.59 1.94.59a6.4 6.4 0 0 0 2.35-.43l.27 1.68a6.6 6.6 0 0 1-1.97.48c-.3.03-.6.05-.9.05-.79 0-1.46-.12-2.04-.35a3.8 3.8 0 0 1-2.26-2.43 5.97 5.97 0 0 1-.28-1.84zm5.97-.92c0-.28-.04-.55-.12-.8-.08-.26-.2-.48-.35-.67a1.65 1.65 0 0 0-1.35-.6 1.84 1.84 0 0 0-1.43.64c-.17.2-.3.41-.39.66-.09.25-.15.5-.18.77h3.82zm5.85.85c0 .9.21 1.62.65 2.13a2.2 2.2 0 0 0 1.78.78 7.1 7.1 0 0 0 1.41-.14v-5.1a3.19 3.19 0 0 0-1.68-.51c-.75 0-1.3.25-1.64.77-.35.5-.52 1.2-.52 2.07zm5.9 4.2a12.18 12.18 0 0 1-3.49.5c-.7 0-1.33-.12-1.88-.33a3.93 3.93 0 0 1-2.32-2.4 6.5 6.5 0 0 1-.05-3.84c.17-.56.43-1.05.77-1.46.34-.41.75-.73 1.24-.95a4.04 4.04 0 0 1 1.68-.33c.43 0 .81.05 1.14.16.33.1.61.21.85.33v-4.26l2.06-.34v12.92zm4.69.27h-2.06v-8.9h2.06v8.9zm.22-11.5c0 .4-.12.7-.37.93-.25.22-.55.34-.89.34a1.3 1.3 0 0 1-.9-.34 1.18 1.18 0 0 1-.37-.92c0-.4.12-.71.37-.94.25-.22.55-.34.9-.34.34 0 .64.12.89.34.25.23.37.54.37.94zm9.7 11.23c-.4.1-.92.2-1.56.31-.63.11-1.33.16-2.09.16-.71 0-1.3-.1-1.8-.3-.47-.2-.86-.49-1.15-.85-.29-.36-.5-.8-.62-1.3a6.9 6.9 0 0 1-.18-1.66v-4.98h2.05v4.66c0 .95.14 1.63.42 2.04.28.4.76.6 1.45.6a9.74 9.74 0 0 0 1.41-.11v-7.2h2.06v8.63zm7.68-4.4c0-.93-.12-1.6-.35-2.02-.24-.41-.67-.62-1.3-.62a16.54 16.54 0 0 0-1.36.14V191h-2.06v-8.6a13.71 13.71 0 0 1 3.59-.48c.6 0 1.1.08 1.5.24.4.16.72.37.98.63a4.01 4.01 0 0 1 1.12-.57c.24-.09.49-.16.76-.21a4.24 4.24 0 0 1 2.52.21c.44.2.8.48 1.05.83.25.36.43.79.52 1.3.1.5.15 1.05.15 1.65v5h-2.06v-4.68c0-.92-.11-1.6-.34-2.01-.23-.41-.66-.62-1.3-.62a3.05 3.05 0 0 0-1.6.48c.08.28.15.58.18.9.03.31.05.65.05 1.02V191h-2.06v-4.68zm13.82-4.66c.65-.26 1.31-.6 1.98-1 .66-.41 1.25-.9 1.76-1.45h1.44V191h-2.06v-9.03c-.3.24-.69.47-1.15.7-.47.23-.91.41-1.34.56l-.63-1.56zM271.4 191c.07-.86.22-1.77.46-2.72a24 24 0 0 1 2.01-5.31c.42-.79.83-1.45 1.24-1.98h-5.43v-1.77h7.87v1.56c-.37.42-.78 1-1.22 1.72a22.26 22.26 0 0 0-2.29 5.39 15.43 15.43 0 0 0-.53 3.11h-2.11zm14.25-4.4c0-.92-.21-1.63-.62-2.14-.42-.52-1.08-.77-2-.77-.2 0-.4 0-.6.03-.22.01-.42.05-.63.1v5.09a3.19 3.19 0 0 0 1.69.5c.75 0 1.3-.25 1.64-.76.34-.5.52-1.2.52-2.05zm2.1-.04c0 .68-.08 1.3-.26 1.87a4.36 4.36 0 0 1-.76 1.47c-.32.4-.74.72-1.23.95-.5.22-1.05.34-1.67.34a4.13 4.13 0 0 1-2.03-.5v3.46h-2.05V182.4c.42-.12.93-.22 1.54-.33.62-.1 1.26-.15 1.94-.15.7 0 1.33.11 1.89.33a3.93 3.93 0 0 1 2.32 2.38c.2.58.31 1.22.31 1.93zm5.07-1.54l1.89-2.91h2.16l-2.93 4.2c.61.8 1.2 1.6 1.76 2.4.56.81 1.02 1.58 1.39 2.29h-2.23a9.3 9.3 0 0 0-.4-.74 45.15 45.15 0 0 0-1.11-1.76c-.2-.3-.4-.57-.6-.83a28.04 28.04 0 0 0-2.1 3.33h-2.11a14 14 0 0 1 .6-1.09 34.21 34.21 0 0 1 1.61-2.39l.86-1.14-2.94-4.27h2.26l1.89 2.9z"/><path fill="#737373" d="M196.53 340.23a31.17 31.17 0 0 1 1.18 1.62l.67 1.07c.22.37.4.73.56 1.08h-1.38a19.9 19.9 0 0 0-2.35-3.54l-.34.02h-1.5V344h-1.25v-8.88c.35-.09.75-.14 1.19-.17.44-.03.84-.05 1.2-.05 1.27 0 2.23.24 2.9.72.66.47.99 1.18.99 2.13 0 .6-.16 1.1-.48 1.53a2.8 2.8 0 0 1-1.4.95zM194.6 336c-.53 0-.94.02-1.23.04v3.4h.9c.43 0 .82-.02 1.17-.07.34-.04.64-.12.87-.25.24-.12.43-.29.56-.5.13-.23.2-.52.2-.89 0-.33-.07-.62-.2-.84-.13-.23-.3-.4-.53-.53a2.3 2.3 0 0 0-.78-.28c-.3-.05-.62-.07-.96-.07zm5.23 4.63c0-.6.09-1.12.26-1.56.17-.45.4-.82.69-1.12.29-.29.61-.51.99-.66.37-.15.75-.22 1.14-.22.91 0 1.6.28 2.1.85.48.57.72 1.43.72 2.6v.2l-.01.22h-4.63c.05.7.26 1.24.61 1.6.36.37.91.55 1.67.55a4.43 4.43 0 0 0 1.72-.32l.17 1c-.14.09-.4.17-.77.26a5.5 5.5 0 0 1-1.25.13c-.6 0-1.1-.1-1.53-.27a2.85 2.85 0 0 1-1.68-1.85 4.7 4.7 0 0 1-.2-1.4zm4.64-.66c.01-.55-.13-1-.4-1.35a1.41 1.41 0 0 0-1.17-.52 1.6 1.6 0 0 0-1.28.58c-.14.18-.26.38-.34.6-.08.23-.14.46-.16.69h3.35zm7.24 3.35a3.23 3.23 0 0 1-1.65.43c-.4 0-.79-.06-1.15-.2a2.5 2.5 0 0 1-.94-.6 2.92 2.92 0 0 1-.64-1.02c-.16-.4-.23-.89-.23-1.45a4 4 0 0 1 .22-1.36 2.95 2.95 0 0 1 1.68-1.77c.4-.17.86-.25 1.37-.25.57 0 1.06.04 1.48.12.42.08.77.16 1.06.23v6.03c0 1.04-.27 1.8-.8 2.26-.55.47-1.36.7-2.45.7a6.64 6.64 0 0 1-2.19-.35l.23-1.05a5.63 5.63 0 0 0 1.98.36c.72 0 1.24-.14 1.56-.42.31-.3.47-.75.47-1.37v-.29zm-.01-5.01a3.98 3.98 0 0 0-1.31-.15c-.65 0-1.15.22-1.5.64-.36.42-.53.99-.53 1.69 0 .39.05.72.15 1 .1.28.23.5.4.69.17.18.36.32.59.4.22.09.44.13.68.13a2.74 2.74 0 0 0 1.52-.45v-3.95zm8.67 5.5c-.28.06-.64.14-1.1.22-.45.07-.98.11-1.58.11-.52 0-.96-.07-1.31-.22a2.12 2.12 0 0 1-.86-.65c-.22-.28-.37-.6-.47-.98-.1-.38-.14-.8-.14-1.25v-3.8h1.2v3.54c0 .82.14 1.4.4 1.76.26.36.7.54 1.31.54a6.46 6.46 0 0 0 1.34-.13v-5.71h1.21v6.56zm4.1.32c-.74-.02-1.27-.18-1.58-.48-.31-.3-.47-.78-.47-1.42v-8.11l1.21-.2v8.12c0 .2.02.36.06.5.03.12.09.22.16.3.08.08.19.14.32.18.13.04.29.07.48.1l-.17 1.01zm3.82-1c.28 0 .54 0 .76-.02.22-.01.4-.04.55-.07v-2.02a1.55 1.55 0 0 0-.42-.1 4.7 4.7 0 0 0-1.29-.01c-.2.02-.39.08-.56.16-.17.08-.3.2-.42.34a.89.89 0 0 0-.17.56c0 .44.14.74.42.9.27.17.65.26 1.13.26zm-.1-6.06c.48 0 .89.06 1.22.19.34.13.6.3.8.53.21.23.36.5.44.82.09.32.13.67.13 1.05v4.22a124.62 124.62 0 0 1-1.06.16 24.39 24.39 0 0 1-1.58.1c-.38 0-.73-.04-1.05-.11-.32-.08-.6-.2-.83-.37a1.7 1.7 0 0 1-.55-.67c-.13-.28-.2-.61-.2-1 0-.38.08-.7.24-.97.15-.27.35-.48.61-.65.26-.16.57-.28.91-.36a4.96 4.96 0 0 1 2.33.05v-.34c0-.2-.02-.4-.07-.59a1.18 1.18 0 0 0-.7-.88c-.19-.1-.44-.14-.75-.14a5.71 5.71 0 0 0-1.72.26l-.14-1a6.74 6.74 0 0 1 1.96-.3zm7.1.03a3.76 3.76 0 0 1 .74.07 11.33 11.33 0 0 1 .6.12l-.2 1.06a4.05 4.05 0 0 0-2.44-.03V344h-1.2v-6.47a6.85 6.85 0 0 1 2.5-.43zm5.69-.25c.49-.2.97-.44 1.44-.73.47-.3.9-.68 1.28-1.13h.86V344h-1.2v-7.33a5.32 5.32 0 0 1-1.44.87c-.2.09-.39.16-.57.22l-.38-.91zm9.06 6.27c.77 0 1.32-.16 1.65-.46.34-.3.5-.71.5-1.22 0-.33-.07-.6-.2-.83-.14-.23-.32-.4-.55-.54a2.39 2.39 0 0 0-.79-.29c-.3-.05-.6-.08-.91-.08h-.31v-1h.42c.22 0 .44-.01.67-.06.23-.04.44-.12.63-.23.2-.11.35-.27.47-.46.12-.2.18-.44.18-.74a1.25 1.25 0 0 0-.97-1.3 2.75 2.75 0 0 0-1.65.11 4.6 4.6 0 0 0-.73.39l-.47-.93a4.13 4.13 0 0 1 1.58-.63 3.87 3.87 0 0 1 1.96.1c.34.13.63.29.86.5.22.21.39.47.5.76.12.29.17.6.17.94 0 .47-.13.87-.4 1.2-.27.34-.6.59-.98.76.24.07.46.17.68.3.22.13.4.3.57.5a2.54 2.54 0 0 1 .53 1.55c0 .4-.06.76-.2 1.1-.13.32-.34.61-.62.86-.28.24-.64.43-1.06.57a4.88 4.88 0 0 1-2.2.15 6.8 6.8 0 0 1-1.56-.41l.24-1.06a4.05 4.05 0 0 0 1.99.44zm10.12-2.49c0-.79-.2-1.4-.58-1.82a2.02 2.02 0 0 0-1.56-.63 7.14 7.14 0 0 0-1.34.13v4.26c.15.12.36.24.64.35a2.4 2.4 0 0 0 1.8-.02c.24-.12.44-.3.6-.52.16-.22.27-.48.34-.78.07-.3.1-.62.1-.97zm1.26 0c0 .51-.06.99-.2 1.42-.13.43-.33.8-.59 1.12-.26.31-.58.55-.95.73-.38.17-.81.26-1.3.26a3.14 3.14 0 0 1-1.7-.46v2.7h-1.21v-8.95c.29-.07.64-.15 1.07-.23.43-.08.93-.12 1.5-.12.51 0 .98.08 1.4.24a3 3 0 0 1 1.74 1.82c.16.44.24.93.24 1.47zm5.53 3.37a10.31 10.31 0 0 0-.8-1.36 27.68 27.68 0 0 0-1.02-1.42 22.71 22.71 0 0 0-1.8 2.78h-1.26c.3-.59.67-1.19 1.09-1.8.42-.61.84-1.2 1.25-1.75l-2.23-3.21h1.36l1.62 2.37 1.62-2.37h1.29l-2.19 3.13c.42.57.85 1.16 1.28 1.8.44.62.81 1.23 1.12 1.83h-1.33z"/><path fill="#0C0C0D" d="M195.04 219.12c-.5 0-.98-.02-1.47-.05-.5-.03-1-.1-1.53-.21v-8.74a17.58 17.58 0 0 1 2.74-.23c.58 0 1.1.04 1.58.12.48.08.9.22 1.24.42.35.2.62.46.82.79.2.32.29.73.29 1.2 0 .72-.35 1.29-1.04 1.7.57.22.96.52 1.17.89.2.37.31.8.31 1.26 0 .94-.34 1.66-1.03 2.13-.7.48-1.72.72-3.08.72zm-1.02-4.05v2.33a7.22 7.22 0 0 0 1.05.05c.6 0 1.1-.08 1.47-.26.37-.17.56-.5.56-.96 0-.42-.16-.71-.47-.89a2.74 2.74 0 0 0-1.34-.27h-1.27zm0-1.54h.98c.63 0 1.07-.08 1.34-.24.27-.16.4-.42.4-.78 0-.36-.13-.62-.41-.76a2.67 2.67 0 0 0-1.22-.22 25.82 25.82 0 0 0-1.1.03v1.97zm13.02 2.04c0 .54-.08 1.03-.23 1.47a3.04 3.04 0 0 1-1.74 1.88c-.4.18-.87.26-1.38.26-.5 0-.96-.08-1.37-.26a3.04 3.04 0 0 1-1.06-.73c-.3-.32-.53-.7-.7-1.15a4.23 4.23 0 0 1-.24-1.47c0-.54.09-1.03.25-1.47a3.15 3.15 0 0 1 1.77-1.86c.41-.17.86-.26 1.35-.26.5 0 .94.09 1.36.26a3.08 3.08 0 0 1 1.74 1.86c.17.44.25.93.25 1.47zm-1.97 0c0-.6-.12-1.07-.36-1.41a1.17 1.17 0 0 0-1.02-.52c-.44 0-.79.18-1.03.52a2.4 2.4 0 0 0-.36 1.4c0 .6.12 1.08.36 1.43.24.35.59.53 1.03.53.44 0 .78-.18 1.02-.53.24-.35.36-.82.36-1.42zm6.2 3.56c-.57 0-1.02-.07-1.37-.18a2.03 2.03 0 0 1-.84-.48c-.2-.2-.34-.45-.41-.74a4 4 0 0 1-.11-.98v-7.53l1.93-.3v7.44c0 .17.02.33.04.47a.8.8 0 0 0 .15.35c.08.1.18.17.32.23s.33.1.56.12l-.27 1.6zm3.03-3.6c0 .6.13 1.08.4 1.44.27.37.67.55 1.2.55a5.5 5.5 0 0 0 .84-.07v-3.52a2.29 2.29 0 0 0-1.07-.27c-.91 0-1.37.62-1.37 1.87zm4.38 3.25a7.5 7.5 0 0 1-1.31.27 13.82 13.82 0 0 1-1.49.12 4.3 4.3 0 0 1-1.5-.25 3.03 3.03 0 0 1-1.82-1.82 5.05 5.05 0 0 1-.03-2.98c.14-.45.34-.83.6-1.14.26-.31.57-.55.95-.71.38-.17.81-.25 1.3-.25a3.04 3.04 0 0 1 1.36.3v-3.1l1.94-.3v9.86zm4.94-6.92a13.33 13.33 0 0 0 1.58-.8c.26-.16.51-.33.75-.5.24-.18.45-.37.64-.57h1.36V219H226v-6.49a5.9 5.9 0 0 1-.87.48c-.32.14-.63.26-.94.37l-.58-1.5zm9.44 7.33a6.4 6.4 0 0 1-1.5-.16 8.16 8.16 0 0 1-1.13-.34l.38-1.61c.22.1.5.2.86.3.35.11.79.16 1.3.16.6 0 1.04-.1 1.32-.33s.42-.53.42-.91c0-.24-.05-.44-.15-.6-.1-.16-.24-.29-.41-.39-.18-.1-.38-.16-.62-.2-.24-.04-.5-.06-.76-.06H232v-1.56h.86c.2 0 .38-.02.56-.05.17-.04.33-.1.47-.18.14-.08.25-.2.33-.34.08-.14.13-.32.13-.54a.85.85 0 0 0-.38-.72c-.1-.08-.23-.14-.37-.18a1.65 1.65 0 0 0-.44-.06c-.37 0-.72.06-1.03.17-.32.11-.6.25-.87.42l-.69-1.42a6.6 6.6 0 0 1 1.11-.53 5.64 5.64 0 0 1 1.53-.28c.53 0 .99.07 1.38.2.38.12.7.3.95.52.25.23.44.5.56.81.12.3.18.64.18 1s-.1.7-.3 1.04c-.2.34-.46.59-.8.76.47.2.83.48 1.08.85.26.38.39.83.39 1.36 0 .42-.07.8-.21 1.15-.14.35-.36.66-.65.91-.3.26-.67.46-1.13.6-.45.14-1 .22-1.61.22zm9.7-3.56c0-.6-.13-1.07-.4-1.43-.27-.36-.66-.54-1.2-.54a5.5 5.5 0 0 0-.84.06v3.5a2.29 2.29 0 0 0 1.07.27c.92 0 1.38-.62 1.38-1.86zm1.98-.05c0 .53-.06 1.01-.2 1.44-.12.44-.31.81-.56 1.12-.26.31-.57.56-.94.73a3.47 3.47 0 0 1-2.72-.04v2.58h-1.94v-9.01a7.5 7.5 0 0 1 1.31-.28 13.82 13.82 0 0 1 1.49-.11c.56 0 1.07.08 1.5.25.45.17.82.4 1.13.71.3.31.53.69.7 1.13.15.44.23.93.23 1.48zm3.98-1.34l1.35-2.08h2l-2.34 3.3c.52.64 1 1.27 1.42 1.89.43.61.76 1.16 1.01 1.65h-2.07l-.27-.49a11.89 11.89 0 0 0-1.18-1.82 9 9 0 0 0-.78 1.15 107.92 107.92 0 0 0-.66 1.16h-1.98c.1-.22.25-.47.43-.77a28.86 28.86 0 0 1 1.95-2.75 183.02 183.02 0 0 1-2.32-3.32h2.09l1.35 2.08z"/><path fill="#737373" d="M195.68 366.81a26.38 26.38 0 0 1 1 1.37l.56.9c.19.32.35.63.48.92h-1.16a16.83 16.83 0 0 0-2-3c-.1.02-.19.02-.29.02h-1.26V370h-1.06v-7.51c.3-.08.63-.13 1-.15.37-.03.71-.04 1.02-.04 1.07 0 1.89.2 2.45.6.56.4.84 1.01.84 1.8 0 .52-.13.95-.4 1.3-.27.37-.66.63-1.19.81zm-1.62-3.57c-.46 0-.8 0-1.05.03v2.87h.76c.37 0 .7-.02 1-.06.29-.03.53-.1.73-.2.2-.1.36-.25.47-.44.11-.19.17-.43.17-.74 0-.29-.06-.53-.17-.72-.1-.19-.26-.34-.44-.45-.2-.1-.41-.18-.66-.23a4.72 4.72 0 0 0-.81-.06zm4.42 3.91c0-.5.07-.95.22-1.32.15-.38.34-.7.58-.94.25-.25.52-.44.84-.57.31-.12.64-.18.97-.18.77 0 1.36.24 1.77.72.4.48.61 1.2.61 2.2v.36h-3.92c.04.59.21 1.04.51 1.35.3.3.77.46 1.41.46a3.75 3.75 0 0 0 1.47-.28l.14.86a4.65 4.65 0 0 1-1.72.32c-.5 0-.93-.07-1.29-.22a2.41 2.41 0 0 1-1.42-1.57 3.98 3.98 0 0 1-.17-1.19zm3.93-.56c0-.46-.11-.84-.35-1.14a1.2 1.2 0 0 0-.98-.44 1.35 1.35 0 0 0-1.08.5c-.13.14-.22.3-.3.5-.06.19-.1.38-.13.58h2.84zm6.12 2.84a2.73 2.73 0 0 1-1.4.36c-.34 0-.66-.05-.97-.16-.3-.11-.57-.28-.8-.52-.22-.23-.4-.51-.53-.86-.14-.34-.2-.75-.2-1.23 0-.42.06-.8.19-1.15a2.5 2.5 0 0 1 1.42-1.5c.34-.14.73-.21 1.16-.21.48 0 .9.03 1.25.1l.9.2v5.1c0 .88-.23 1.52-.69 1.91-.45.4-1.14.6-2.06.6a5.62 5.62 0 0 1-1.85-.3l.19-.89a4.77 4.77 0 0 0 1.68.3c.6 0 1.04-.11 1.31-.36.27-.24.4-.62.4-1.15v-.24zm0-4.25a3.37 3.37 0 0 0-1.12-.12c-.55 0-.97.18-1.27.54-.3.36-.44.84-.44 1.43 0 .33.04.61.12.85.09.23.2.43.34.58.15.15.31.27.5.34s.38.11.58.11a2.32 2.32 0 0 0 1.28-.38v-3.35zm7.33 4.65a7.99 7.99 0 0 1-2.27.29c-.44 0-.8-.06-1.1-.2a1.8 1.8 0 0 1-.73-.54 2.21 2.21 0 0 1-.4-.83 4.33 4.33 0 0 1-.12-1.06v-3.21h1.02v3c0 .69.11 1.19.33 1.49.22.3.6.45 1.11.45a5.47 5.47 0 0 0 1.14-.11v-4.83h1.02v5.56zm3.48.28c-.63-.01-1.08-.15-1.35-.4-.26-.26-.4-.66-.4-1.2v-6.87l1.03-.18v6.88c0 .17.02.3.04.42.03.1.08.2.15.26.06.07.15.12.26.15l.4.08-.13.86zm3.22-.85a11.09 11.09 0 0 0 1.11-.07v-1.7c-.07-.05-.2-.08-.36-.1a3.98 3.98 0 0 0-1.09 0 1.5 1.5 0 0 0-.47.13c-.14.07-.26.16-.36.29a.75.75 0 0 0-.14.47c0 .37.12.63.35.77.24.14.56.21.96.21zm-.09-5.12c.41 0 .76.05 1.04.16.28.1.51.25.68.45.17.2.3.42.37.69.07.27.11.56.11.89v3.57a105.42 105.42 0 0 1-.9.13 20.63 20.63 0 0 1-1.33.1c-.32 0-.62-.04-.9-.1a2 2 0 0 1-.7-.32c-.2-.14-.35-.33-.46-.57a1.98 1.98 0 0 1-.16-.84c0-.32.06-.6.19-.82.13-.23.3-.41.52-.55.22-.14.48-.24.77-.3a4.2 4.2 0 0 1 1.97.04v-.29c0-.17-.02-.33-.05-.5-.04-.16-.1-.31-.2-.44a1 1 0 0 0-.4-.3 1.53 1.53 0 0 0-.64-.12 4.83 4.83 0 0 0-1.45.22l-.12-.85a5.7 5.7 0 0 1 1.66-.25zm6 .02a3.18 3.18 0 0 1 .65.06 9.59 9.59 0 0 1 .5.1l-.18.9a3.43 3.43 0 0 0-2.05-.03V370h-1.02v-5.48a6.95 6.95 0 0 1 2.1-.36zm4.82-.21c.42-.16.83-.37 1.23-.62a5 5 0 0 0 1.08-.95h.73V370h-1.02v-6.2l-.33.25a4.5 4.5 0 0 1-.89.48c-.16.08-.32.14-.48.19l-.32-.77zm6.2 0c.43-.16.83-.37 1.23-.62a5 5 0 0 0 1.09-.95h.72V370h-1.02v-6.2l-.32.25a4.5 4.5 0 0 1-.9.48c-.16.08-.32.14-.47.19l-.32-.77zm10.04 3.2c0-.67-.16-1.18-.5-1.54a1.7 1.7 0 0 0-1.31-.54 6.04 6.04 0 0 0-1.14.11v3.61c.13.1.3.2.54.3a2.03 2.03 0 0 0 1.53-.02c.2-.1.37-.25.5-.44.14-.19.23-.4.3-.66.05-.25.08-.53.08-.82zm1.07 0c0 .43-.06.83-.17 1.2-.12.37-.28.68-.5.95-.22.26-.5.47-.81.61a2.6 2.6 0 0 1-1.1.22 2.66 2.66 0 0 1-1.44-.38v2.29h-1.02v-7.58l.9-.2c.37-.07.79-.1 1.27-.1.44 0 .83.07 1.19.2a2.55 2.55 0 0 1 1.47 1.54c.14.37.2.79.2 1.25zm4.67 2.85a8.73 8.73 0 0 0-.68-1.15 23.42 23.42 0 0 0-.86-1.2 19.22 19.22 0 0 0-1.53 2.35h-1.05c.25-.5.56-1 .92-1.52.35-.52.7-1.01 1.06-1.48l-1.9-2.72h1.16l1.37 2 1.37-2h1.09l-1.85 2.65 1.08 1.51c.37.54.69 1.05.94 1.56h-1.12z"/><path fill="#0C0C0D" d="M206.97 100.05V102h-13V79.13h2.24v20.92h10.76zm5.58 1.95h-2.15V84.94h2.15V102zm.5-22.2a1.56 1.56 0 0 1-1.58 1.65c-.45 0-.82-.16-1.13-.45-.31-.3-.46-.7-.46-1.2 0-.52.15-.92.46-1.21.3-.3.68-.45 1.12-.45.44 0 .81.15 1.12.45.31.3.46.7.46 1.2zm16.3 20.22c-.14.11-.33.24-.6.38a7.55 7.55 0 0 1-3.96.97c-.99 0-1.94-.15-2.87-.46-.92-.3-1.73-.8-2.42-1.45a7.12 7.12 0 0 1-1.67-2.56 10.28 10.28 0 0 1-.63-3.81c0-1.21.19-2.33.56-3.37.38-1.03.91-1.93 1.6-2.69a7.26 7.26 0 0 1 2.54-1.78 8.5 8.5 0 0 1 3.39-.64 18.56 18.56 0 0 1 6.17.92v15.58c0 2.55-.66 4.37-1.98 5.46-1.32 1.09-3.31 1.63-5.97 1.63a16.47 16.47 0 0 1-5.28-.82l.42-1.95a9.8 9.8 0 0 0 2.17.63c.9.18 1.83.26 2.75.26 2.03 0 3.5-.39 4.4-1.17.92-.78 1.38-2.12 1.38-4v-1.13zm-.04-13a12.73 12.73 0 0 0-3.99-.46c-.92 0-1.74.16-2.46.47a5.2 5.2 0 0 0-1.83 1.36c-.5.58-.9 1.27-1.16 2.08-.26.8-.4 1.68-.4 2.65 0 1.13.16 2.09.47 2.89.3.8.71 1.46 1.2 1.96.5.51 1.07.88 1.7 1.1.64.24 1.3.36 1.95.36.97 0 1.86-.15 2.66-.43.8-.29 1.42-.62 1.86-1V87.03zm7.82 14.98V76.79l2.15-.4v9.04c.7-.26 1.42-.46 2.14-.6.73-.15 1.46-.22 2.18-.22 1.32 0 2.42.19 3.3.56.88.37 1.59.9 2.11 1.6.53.7.9 1.52 1.1 2.5.22.96.32 2.03.32 3.2V102h-2.14v-8.84c0-1.21-.08-2.24-.25-3.07a5.12 5.12 0 0 0-.82-2.05 3.2 3.2 0 0 0-1.54-1.14 7.95 7.95 0 0 0-3.61-.25 24.35 24.35 0 0 0-2.21.47c-.3.09-.5.15-.58.2V102h-2.15zm20.8-17.06h6.8v1.81h-6.8v9.08c0 .97.08 1.75.24 2.36.17.6.4 1.07.71 1.4.3.33.68.55 1.12.66.44.11.93.17 1.45.17a6.25 6.25 0 0 0 3.47-.9l.53 1.79c-.31.2-.85.42-1.62.67a8 8 0 0 1-2.5.38 7.45 7.45 0 0 1-2.66-.4 3.84 3.84 0 0 1-1.72-1.26 5.14 5.14 0 0 1-.9-2.1c-.18-.84-.27-1.82-.27-2.97v-15.7l2.14-.4v5.4zm23.2 15.58c2.08 0 3.58-.44 4.48-1.3a4.65 4.65 0 0 0 1.35-3.52c0-.97-.18-1.77-.54-2.41a4.23 4.23 0 0 0-1.49-1.54 6.6 6.6 0 0 0-2.17-.82c-.83-.17-1.7-.25-2.63-.25h-.33V88.9h.76c.6 0 1.2-.06 1.83-.18.63-.12 1.2-.35 1.72-.68a4.1 4.1 0 0 0 1.29-1.32c.34-.55.5-1.25.5-2.11 0-.73-.11-1.35-.35-1.87a3.24 3.24 0 0 0-.98-1.23c-.4-.31-.88-.54-1.42-.68a6.6 6.6 0 0 0-1.7-.21c-1.19 0-2.1.16-2.77.5-.66.32-1.2.63-1.62.91l-.92-1.68a8.27 8.27 0 0 1 2.05-1.09c.46-.17.97-.32 1.53-.44a8.69 8.69 0 0 1 1.83-.18c1.15 0 2.13.14 2.96.42.82.3 1.5.7 2.06 1.2.55.53.95 1.14 1.22 1.86.26.71.4 1.49.4 2.32 0 1.35-.36 2.44-1.08 3.29a6 6 0 0 1-2.75 1.83c.61.15 1.21.39 1.8.7a5.8 5.8 0 0 1 2.69 3.02c.28.71.42 1.54.42 2.48 0 .97-.17 1.86-.5 2.68a5.91 5.91 0 0 1-1.53 2.12 7.07 7.07 0 0 1-2.55 1.42c-1.04.34-2.25.52-3.63.52a12.4 12.4 0 0 1-3.6-.5 11.07 11.07 0 0 1-1.88-.73l.56-1.91a9.13 9.13 0 0 0 1.77.71 10.98 10.98 0 0 0 3.22.45zm18.6 0c2.1 0 3.6-.44 4.5-1.3a4.65 4.65 0 0 0 1.35-3.52 4.23 4.23 0 0 0-2.03-3.94 6.6 6.6 0 0 0-2.18-.83c-.83-.17-1.7-.25-2.63-.25h-.32V88.9h.75c.6 0 1.2-.06 1.84-.18.62-.12 1.2-.35 1.71-.68a4.1 4.1 0 0 0 1.29-1.32c.34-.55.51-1.25.51-2.11 0-.73-.12-1.35-.36-1.87a3.24 3.24 0 0 0-.98-1.23c-.4-.31-.88-.54-1.42-.68a6.6 6.6 0 0 0-1.7-.21c-1.18 0-2.1.16-2.77.5-.66.32-1.2.63-1.61.91l-.93-1.68a8.27 8.27 0 0 1 2.05-1.09c.46-.17.97-.32 1.53-.44a8.69 8.69 0 0 1 1.83-.18c1.15 0 2.13.14 2.96.42.82.3 1.51.7 2.06 1.2.55.53.96 1.14 1.22 1.86.27.71.4 1.49.4 2.32 0 1.35-.36 2.44-1.08 3.29a6 6 0 0 1-2.75 1.83c.62.15 1.21.39 1.8.7a5.8 5.8 0 0 1 2.69 3.02c.28.71.43 1.54.43 2.48 0 .97-.17 1.86-.52 2.68a5.91 5.91 0 0 1-1.51 2.12 7.07 7.07 0 0 1-2.56 1.42c-1.04.34-2.24.52-3.63.52a12.4 12.4 0 0 1-3.6-.5 11.07 11.07 0 0 1-1.88-.73l.56-1.91a9.13 9.13 0 0 0 1.77.71 10.98 10.98 0 0 0 3.22.45zm15.84-1.59a7.21 7.21 0 0 0 3.07 1.37 6.91 6.91 0 0 0 4.11-.4c.72-.36 1.3-.85 1.74-1.48a6.3 6.3 0 0 0 .95-2.21c.2-.85.3-1.74.3-2.7 0-2.24-.56-3.96-1.68-5.16a5.81 5.81 0 0 0-4.46-1.8c-1.06 0-1.9.06-2.56.15-.65.1-1.13.2-1.47.32v11.91zm0 9.17h-2.14V85.53a19.3 19.3 0 0 1 2.44-.62c1-.2 2.25-.3 3.76-.3 1.26 0 2.4.2 3.42.6 1.02.42 1.9 1 2.64 1.78.74.77 1.3 1.7 1.72 2.8.4 1.1.6 2.34.6 3.73 0 1.3-.16 2.49-.5 3.58a7.98 7.98 0 0 1-1.5 2.8 6.91 6.91 0 0 1-2.43 1.84c-.96.44-2.05.66-3.29.66a8.08 8.08 0 0 1-4.72-1.39v7.1zm22.15-13.82c-.49.64-.97 1.3-1.45 2.01-.49.7-.96 1.4-1.4 2.08a50.1 50.1 0 0 0-2.2 3.63h-2.21c.9-1.7 1.85-3.27 2.84-4.74.99-1.46 2-2.9 3.03-4.3l-5.54-8.02h2.5l4.43 6.53 4.49-6.53h2.34l-5.45 7.89a170.87 170.87 0 0 1 3.07 4.27 47.93 47.93 0 0 1 2.9 4.9h-2.3a50.67 50.67 0 0 0-2.2-3.63 88.21 88.21 0 0 0-2.85-4.1zM197.37 264.65a35.97 35.97 0 0 1 1.37 1.87c.26.4.52.8.77 1.24.26.43.47.84.66 1.24h-1.6a22.95 22.95 0 0 0-2.07-3.27l-.64-.81-.4.01h-1.72V269h-1.45v-10.25c.41-.1.87-.16 1.37-.2.5-.03.97-.05 1.39-.05 1.46 0 2.57.27 3.34.82.76.56 1.15 1.37 1.15 2.47 0 .69-.19 1.27-.55 1.76-.37.5-.9.86-1.62 1.1zm-2.2-4.88c-.62 0-1.1.02-1.42.05v3.92h1.03c.5 0 .95-.03 1.35-.08.4-.05.74-.14 1.01-.29.28-.14.49-.33.64-.59.15-.25.22-.59.22-1.01 0-.39-.07-.71-.22-.97a1.67 1.67 0 0 0-.6-.62 2.66 2.66 0 0 0-.9-.31 6.43 6.43 0 0 0-1.11-.1zm6.03 5.35c0-.7.1-1.3.3-1.81.2-.52.46-.94.8-1.29.33-.34.7-.59 1.13-.76.44-.17.87-.25 1.32-.25 1.06 0 1.86.32 2.42.98.56.65.84 1.65.84 2.99v.23l-.01.27h-5.34c.06.8.29 1.42.7 1.84.41.42 1.05.63 1.92.63a5.12 5.12 0 0 0 2-.38l.19 1.18a6.34 6.34 0 0 1-2.34.44 4.6 4.6 0 0 1-1.76-.32 3.29 3.29 0 0 1-1.94-2.13 5.42 5.42 0 0 1-.23-1.63zm5.36-.77a2.34 2.34 0 0 0-.48-1.55c-.32-.4-.77-.61-1.34-.61a1.84 1.84 0 0 0-1.47.68c-.17.2-.3.42-.4.69-.1.26-.16.52-.19.79h3.88zm8.35 3.87a3.73 3.73 0 0 1-1.9.5c-.48 0-.92-.08-1.33-.23a2.88 2.88 0 0 1-1.09-.7c-.31-.31-.55-.7-.74-1.18a4.7 4.7 0 0 1-.26-1.68c0-.57.08-1.09.25-1.56a3.4 3.4 0 0 1 1.94-2.04c.47-.2 1-.3 1.59-.3.65 0 1.21.05 1.7.15l1.22.26v6.96c0 1.2-.31 2.07-.93 2.61-.62.54-1.56.81-2.82.81a7.67 7.67 0 0 1-2.52-.4l.25-1.22a6.5 6.5 0 0 0 2.3.42c.83 0 1.43-.16 1.8-.5.36-.33.54-.85.54-1.57v-.33zm-.01-5.79a4.6 4.6 0 0 0-1.52-.17c-.75 0-1.33.25-1.73.74-.4.49-.61 1.14-.61 1.95 0 .45.06.83.17 1.16.12.32.27.58.47.79.2.21.42.36.67.47.26.1.52.14.79.14a3.16 3.16 0 0 0 1.76-.52v-4.56zm10 6.34a10.9 10.9 0 0 1-3.09.39c-.6 0-1.1-.08-1.52-.26a2.45 2.45 0 0 1-.98-.74c-.26-.32-.43-.7-.55-1.13a5.9 5.9 0 0 1-.16-1.45v-4.38h1.4v4.08c0 .95.14 1.63.44 2.04.3.41.81.62 1.52.62a7.46 7.46 0 0 0 1.54-.15v-6.59h1.4v7.57zm4.74.38c-.86-.02-1.47-.2-1.83-.55-.36-.36-.54-.9-.54-1.64v-9.36l1.4-.24v9.38c0 .23.02.41.06.56.03.16.1.27.19.37.09.08.21.15.36.2.15.04.33.08.56.11l-.2 1.17zm4.4-1.15c.33 0 .62-.01.87-.03.26-.01.47-.04.64-.08v-2.32c-.1-.06-.26-.1-.49-.13a5.42 5.42 0 0 0-1.48-.01c-.24.03-.45.1-.65.19-.2.1-.35.22-.49.39-.13.16-.19.38-.19.65 0 .5.16.85.48 1.04.32.2.75.3 1.3.3zm-.13-7c.57 0 1.04.08 1.42.22.39.15.7.35.93.62.24.26.4.58.5.94.1.37.16.77.16 1.21v4.88a143.78 143.78 0 0 1-1.23.18 28.14 28.14 0 0 1-1.82.12c-.44 0-.84-.05-1.22-.14a2.72 2.72 0 0 1-.96-.43c-.27-.2-.47-.45-.63-.77a2.7 2.7 0 0 1-.22-1.15c0-.44.09-.8.26-1.12.18-.3.41-.55.72-.75.3-.19.64-.32 1.05-.42a5.73 5.73 0 0 1 2.68.06v-.38c0-.24-.03-.46-.08-.69a1.56 1.56 0 0 0-.26-.6c-.14-.17-.31-.31-.54-.42-.22-.1-.51-.16-.88-.16a6.59 6.59 0 0 0-1.97.3l-.17-1.15a7.77 7.77 0 0 1 2.26-.35zm8.2.04a4.34 4.34 0 0 1 .86.08 13.08 13.08 0 0 1 .7.14l-.24 1.22a4.68 4.68 0 0 0-2.81-.04V269h-1.4v-7.47a7.9 7.9 0 0 1 2.88-.5zm6.56-.29c.58-.22 1.13-.5 1.67-.85a6.82 6.82 0 0 0 1.48-1.3h1V269h-1.4v-8.46a6.14 6.14 0 0 1-1.66 1c-.22.1-.44.19-.65.26l-.44-1.05zm10.06 1.86c1.5.06 2.61.39 3.32.99.7.6 1.06 1.41 1.06 2.44 0 .47-.08.89-.24 1.28-.15.39-.39.72-.7 1-.32.29-.71.5-1.2.67a5.43 5.43 0 0 1-2.5.18 7.1 7.1 0 0 1-1.76-.49l.28-1.21c.17.08.44.18.83.31.38.14.85.2 1.42.2.45 0 .82-.05 1.13-.15.3-.1.55-.23.74-.4.19-.18.33-.37.41-.6a2.49 2.49 0 0 0-.07-1.72c-.13-.3-.35-.54-.69-.75-.33-.2-.76-.35-1.31-.45-.56-.1-1.25-.16-2.09-.16a34.26 34.26 0 0 0 .24-2.64 51.68 51.68 0 0 0 .13-2.5h5.01v1.18h-3.79a54.87 54.87 0 0 1-.1 1.4 192.98 192.98 0 0 1-.13 1.42zm12.08 2.5c0-.9-.22-1.6-.67-2.1a2.33 2.33 0 0 0-1.8-.73c-.42 0-.75.02-.98.05-.24.03-.42.06-.56.1v4.92c.17.14.41.27.73.4a2.76 2.76 0 0 0 2.08-.02c.28-.14.51-.34.7-.6.18-.25.3-.55.38-.9.08-.34.13-.71.13-1.12zm1.46 0a5.5 5.5 0 0 1-.23 1.64c-.16.5-.38.93-.69 1.29-.3.36-.66.64-1.1.84-.43.2-.93.3-1.49.3a3.62 3.62 0 0 1-1.96-.53v3.13h-1.4v-10.34c.33-.08.74-.17 1.24-.26a9.2 9.2 0 0 1 1.72-.14c.6 0 1.13.09 1.62.28a3.47 3.47 0 0 1 2.01 2.1c.19.5.28 1.06.28 1.7zm6.38 3.89a11.9 11.9 0 0 0-.94-1.57 31.93 31.93 0 0 0-1.16-1.64 26.2 26.2 0 0 0-2.09 3.21h-1.44c.35-.68.77-1.37 1.25-2.08.49-.7.97-1.37 1.45-2.02l-2.58-3.7h1.57l1.87 2.73 1.87-2.73h1.49l-2.52 3.62c.48.65.97 1.33 1.47 2.06.5.72.93 1.43 1.29 2.12h-1.54zm-77-111.3v1.3h-8.67v-15.25h1.5v13.95h7.17zm3.72 1.3h-1.43v-11.37h1.43V159zm.33-14.8a1.04 1.04 0 0 1-1.06 1.1c-.3 0-.54-.1-.75-.3-.2-.2-.3-.47-.3-.8 0-.34.1-.61.3-.8.2-.2.46-.3.75-.3.3 0 .54.1.75.3.2.19.3.46.3.8zm10.86 13.48a6.28 6.28 0 0 1-1.92.8 6.01 6.01 0 0 1-3.03-.2 4.27 4.27 0 0 1-2.72-2.68 6.85 6.85 0 0 1-.42-2.54c0-.8.12-1.55.37-2.24a4.84 4.84 0 0 1 2.76-2.98 5.67 5.67 0 0 1 2.26-.43 12.37 12.37 0 0 1 4.11.61v10.39c0 1.7-.44 2.91-1.32 3.64-.88.72-2.2 1.09-3.98 1.09a10.98 10.98 0 0 1-3.52-.55l.29-1.3a9.68 9.68 0 0 0 3.28.6c1.34 0 2.32-.27 2.93-.79.61-.52.91-1.41.91-2.67v-.75zm-.02-8.67a8.48 8.48 0 0 0-2.66-.3c-.62 0-1.16.1-1.64.31-.48.22-.88.52-1.22.9-.34.4-.6.86-.77 1.4a5.65 5.65 0 0 0-.26 1.76c0 .75.1 1.4.3 1.93.2.53.48.97.8 1.3a3 3 0 0 0 1.14.74c.43.16.86.23 1.3.23.64 0 1.23-.1 1.77-.28.53-.2.95-.41 1.24-.66V149zm5.22 9.99v-16.8l1.43-.27v6.03a9.05 9.05 0 0 1 2.88-.55c.88 0 1.61.12 2.2.37.58.25 1.05.6 1.4 1.07.36.46.6 1.01.74 1.66.14.64.21 1.35.21 2.13V159h-1.43v-5.9c0-.8-.05-1.48-.16-2.04a3.41 3.41 0 0 0-.55-1.37c-.26-.35-.6-.6-1.03-.75a5.3 5.3 0 0 0-2.4-.16 16.23 16.23 0 0 0-1.48.3c-.2.06-.33.1-.38.13V159h-1.43zm13.86-11.37h4.53v1.2h-4.53v6.06c0 .64.05 1.17.16 1.57.11.4.27.71.47.93.2.22.46.37.75.44.3.08.62.11.97.11a4.17 4.17 0 0 0 2.31-.59l.35 1.19c-.2.13-.56.28-1.08.45-.5.17-1.07.25-1.67.25-.7 0-1.3-.09-1.77-.27a2.56 2.56 0 0 1-1.14-.84 3.43 3.43 0 0 1-.6-1.4 9.73 9.73 0 0 1-.18-1.98v-10.47l1.43-.26v3.6zm20.32-.1c0 .58-.1 1.12-.3 1.63-.2.5-.48.99-.83 1.46-.34.47-.74.92-1.18 1.36l-1.34 1.32c-.38.37-.75.74-1.1 1.11-.37.38-.7.75-.98 1.13-.28.37-.51.74-.68 1.1a2.5 2.5 0 0 0-.25 1.06v.05h7.2V159h-8.79v-.16l-.02-.37c0-.69.13-1.33.38-1.92.25-.6.56-1.16.95-1.69.4-.52.82-1.02 1.3-1.47a286.07 286.07 0 0 0 2.42-2.34c.33-.33.62-.67.87-1.03.25-.35.45-.72.6-1.12.14-.4.21-.83.21-1.3 0-1.02-.27-1.76-.82-2.2a3.19 3.19 0 0 0-2.08-.68 4.11 4.11 0 0 0-2.21.59 4.55 4.55 0 0 0-1.11.84l-.75-.99a5.06 5.06 0 0 1 1.33-1.03 5.17 5.17 0 0 1 2.72-.7c1.48 0 2.6.36 3.34 1.08a4.02 4.02 0 0 1 1.12 3.03zm12.41 0c0 .58-.1 1.12-.3 1.63-.21.5-.49.99-.83 1.46-.35.47-.74.92-1.18 1.36l-1.34 1.32-1.11 1.11c-.36.38-.68.75-.97 1.13-.29.37-.51.74-.68 1.1a2.5 2.5 0 0 0-.25 1.06v.05h7.19V159h-8.78v-.16c-.02-.09-.02-.2-.02-.37 0-.69.12-1.33.37-1.92.25-.6.57-1.16.96-1.69.39-.52.82-1.02 1.3-1.47a286.07 286.07 0 0 0 2.42-2.34c.33-.33.62-.67.87-1.03.25-.35.45-.72.6-1.12.14-.4.21-.83.21-1.3 0-1.02-.27-1.76-.82-2.2a3.19 3.19 0 0 0-2.08-.68 4.11 4.11 0 0 0-2.21.59 4.55 4.55 0 0 0-1.11.84l-.75-.99a5.06 5.06 0 0 1 1.33-1.03 5.17 5.17 0 0 1 2.72-.7c1.48 0 2.6.36 3.34 1.08a4.02 4.02 0 0 1 1.12 3.03zm5.7 9.42a4.8 4.8 0 0 0 2.05.92 4.6 4.6 0 0 0 2.73-.27 3.1 3.1 0 0 0 1.16-.99c.3-.42.5-.9.64-1.47.13-.57.2-1.16.2-1.8 0-1.49-.38-2.64-1.13-3.44a3.88 3.88 0 0 0-2.97-1.2c-.7 0-1.27.04-1.7.1-.43.07-.76.14-.98.21v7.94zm0 6.12h-1.43v-15.05a12.86 12.86 0 0 1 4.14-.61c.83 0 1.6.13 2.27.4a4.92 4.92 0 0 1 2.9 3.05c.28.73.41 1.56.41 2.49 0 .86-.11 1.66-.34 2.38a5.32 5.32 0 0 1-1 1.87 4.6 4.6 0 0 1-1.62 1.22c-.63.3-1.36.44-2.18.44a5.39 5.39 0 0 1-3.15-.92v4.73zm14.76-9.22l-.97 1.34a92.83 92.83 0 0 0-1.76 2.7c-.25.42-.46.79-.63 1.11h-1.48c.6-1.13 1.23-2.18 1.9-3.16a91.2 91.2 0 0 1 2.02-2.87l-3.7-5.34h1.67l2.95 4.35 3-4.35h1.56l-3.63 5.25a113.91 113.91 0 0 1 2.04 2.85 31.96 31.96 0 0 1 1.94 3.27h-1.54a33.78 33.78 0 0 0-2.41-3.8l-.96-1.35z"/><rect width="226" height="26" x="473" y="351" fill="#EBEBED" rx="4"/><path fill="#737373" d="M491.66 362.72l1.53-.33-.28-.83-1.42.63.15-1.58h-.9l.15 1.57-1.42-.61-.27.82 1.52.33-1.03 1.17.72.52.78-1.34.79 1.34.72-.53-1.04-1.16zm7.45 3.07v-4.68h-.96v4.61c0 1.07-.47 1.6-1.46 1.6-.98 0-1.45-.53-1.45-1.6v-4.61h-.95v4.68c0 1.37.83 2.33 2.4 2.33 1.55 0 2.42-.96 2.42-2.33zm3.28-3.18c-1.09 0-1.9.61-1.9 1.44 0 .75.45 1.24 1.59 1.54 1.02.27 1.28.47 1.28 1.02 0 .46-.44.77-1.13.77a2.2 2.2 0 0 1-1.46-.53l-.51.58c.46.4 1.1.69 1.99.69 1.07 0 2.08-.5 2.08-1.6 0-.92-.64-1.36-1.75-1.64-.85-.22-1.13-.42-1.13-.85 0-.42.37-.69.97-.69.49 0 .9.15 1.36.48l.4-.61a2.8 2.8 0 0 0-1.79-.6zm7.22 2.6l-.02.47h-3.36c.09 1.22.66 1.69 1.42 1.69.52 0 .91-.14 1.37-.46l.4.55c-.52.41-1.11.66-1.84.66-1.47 0-2.33-1.03-2.33-2.7 0-1.64.83-2.81 2.19-2.81 1.42 0 2.17.99 2.17 2.6zm-.91-.21v-.06c0-1.03-.41-1.6-1.24-1.6-.7 0-1.16.49-1.23 1.66h2.47zm6.83-4.01c-1.27 0-2.17.74-2.17 1.8 0 1.07.7 1.58 2.04 1.99 1.17.36 1.49.66 1.49 1.33 0 .83-.67 1.23-1.48 1.23-.75 0-1.31-.27-1.78-.72l-.55.61c.57.56 1.35.89 2.34.89 1.55 0 2.46-.84 2.46-2.04 0-1.32-.94-1.75-2.04-2.09-1.24-.38-1.51-.66-1.51-1.24 0-.66.55-.98 1.24-.98.57 0 1.05.18 1.55.62l.54-.6a2.9 2.9 0 0 0-2.13-.8zm7.68 4.22l-.02.47h-3.36c.09 1.22.66 1.69 1.42 1.69.52 0 .91-.14 1.37-.46l.4.55c-.52.41-1.11.66-1.84.66-1.47 0-2.33-1.03-2.33-2.7 0-1.64.83-2.81 2.19-2.81 1.42 0 2.17.99 2.17 2.6zm-.91-.21v-.06c0-1.03-.41-1.6-1.24-1.6-.7 0-1.16.49-1.23 1.66h2.47zm7.72-2.39c-.71 0-1.19.38-1.57.95-.2-.6-.68-.95-1.33-.95-.69 0-1.17.36-1.52.89l-.08-.77h-.79V368h.92v-3.74c.35-.56.67-.93 1.24-.93.4 0 .74.23.74 1.02V368h.92v-3.74c.36-.56.67-.93 1.24-.93.4 0 .74.23.74 1.02V368h.92v-3.78c0-.99-.57-1.61-1.43-1.61zm3.73-2.41a.61.61 0 0 0-.64.63c0 .35.26.62.64.62.39 0 .65-.27.65-.62 0-.36-.26-.63-.65-.63zm.47 7.8v-5.27h-.92V368h.92zm4.99-3.64c.8.14 1.59.51 1.59 1.68 0 1.46-1.13 1.96-2.73 1.96h-1.9v-6.89h1.63c1.7 0 2.7.54 2.7 1.74 0 .85-.62 1.37-1.29 1.51zm-2.09-2.5v2.17h1.04c.77 0 1.37-.38 1.37-1.11 0-.85-.61-1.06-1.63-1.06h-.78zm.95 5.38c1 0 1.73-.2 1.73-1.2 0-.97-.72-1.28-1.55-1.28h-1.13v2.48h.95zm6.11-4.63c1.5 0 2.34 1.08 2.34 2.75 0 1.63-.86 2.76-2.35 2.76-1.5 0-2.35-1.08-2.35-2.75 0-1.63.86-2.76 2.36-2.76zm0 .74c-.88 0-1.37.64-1.37 2.02 0 1.37.48 2.01 1.36 2.01.88 0 1.36-.64 1.36-2.02 0-1.37-.48-2.01-1.35-2.01zm4.73 3.59v-6.44l-.92.11v6.35c0 .76.38 1.16 1.05 1.16.27 0 .53-.06.78-.18l-.24-.64a.9.9 0 0 1-.34.06c-.24 0-.33-.14-.33-.42zm6.14-6.33V368h-.81l-.09-.73c-.34.53-.87.85-1.52.85-1.28 0-1.99-1.09-1.99-2.73 0-1.61.78-2.78 2.07-2.78.62 0 1.07.28 1.42.65v-2.76l.92.11zm-2.22 6.78c.59 0 .95-.29 1.3-.78v-2.58c-.33-.42-.7-.69-1.22-.69-.79 0-1.28.66-1.28 2.03 0 1.39.44 2.02 1.2 2.02zm8.56-6.15c-.58 0-.78.25-.78.76v.73h1.28l-.1.71h-1.18V368h-.92v-4.56h-.94v-.71h.94v-.72c0-.88.58-1.51 1.65-1.51.5 0 .84.09 1.26.27l-.29.67c-.34-.15-.65-.2-.92-.2zm3.54 1.37c1.5 0 2.34 1.08 2.34 2.75 0 1.63-.86 2.76-2.35 2.76-1.5 0-2.35-1.08-2.35-2.75 0-1.63.86-2.76 2.36-2.76zm0 .74c-.88 0-1.37.64-1.37 2.02 0 1.37.48 2.01 1.36 2.01.88 0 1.36-.64 1.36-2.02 0-1.37-.48-2.01-1.35-2.01zm6.15-.74c-.64 0-1.13.4-1.41 1.19l-.09-1.07h-.79V368h.92v-3.01c.22-1.01.6-1.48 1.26-1.48.19 0 .3.02.46.06l.17-.9a2.24 2.24 0 0 0-.52-.06zm8.2 2.6l-.02.47h-3.36c.09 1.22.66 1.69 1.42 1.69.52 0 .91-.14 1.37-.46l.4.55c-.52.41-1.11.66-1.84.66-1.47 0-2.33-1.03-2.33-2.7 0-1.64.83-2.81 2.19-2.81 1.42 0 2.17.99 2.17 2.6zm-.91-.21v-.06c0-1.03-.41-1.6-1.24-1.6-.7 0-1.16.49-1.23 1.66h2.47zm7.72-2.39c-.71 0-1.19.38-1.57.95-.2-.6-.68-.95-1.33-.95-.69 0-1.17.36-1.52.89l-.08-.77h-.79V368h.92v-3.74c.35-.56.67-.93 1.24-.93.4 0 .74.23.74 1.02V368h.92v-3.74c.36-.56.67-.93 1.24-.93.4 0 .74.23.74 1.02V368h.92v-3.78c0-.99-.57-1.61-1.43-1.61zm5.7 0c1.4 0 1.95 1.09 1.95 2.75 0 1.6-.71 2.76-2.07 2.76a1.7 1.7 0 0 1-1.38-.6v2.5l-.92.11v-7.4h.79l.07.71c.39-.54.96-.83 1.56-.83zm-.34 4.76c.84 0 1.3-.63 1.3-2.01 0-1.37-.4-2.02-1.19-2.02-.56 0-.99.4-1.27.82v2.57c.27.41.68.64 1.16.64zm6.34-4.76a1.9 1.9 0 0 0-1.56.85v-2.94l-.92.1V368h.92v-3.75c.35-.55.76-.92 1.33-.92.5 0 .84.23.84 1.02V368h.92v-3.78c0-.99-.57-1.61-1.53-1.61zm6.93 4.16c0 .46.17.61.44.71l-.21.64c-.53-.06-.87-.27-1.03-.79a1.8 1.8 0 0 1-1.57.79c-1.05 0-1.68-.65-1.68-1.59 0-1.13.85-1.74 2.32-1.74h.81v-.39c0-.76-.37-1.04-1.1-1.04-.39 0-.88.1-1.42.28l-.23-.67a5.16 5.16 0 0 1 1.82-.36c1.27 0 1.85.65 1.85 1.75v2.41zm-2.16.66c.54 0 .94-.27 1.24-.82v-1.21h-.69c-.97 0-1.46.36-1.46 1.08 0 .62.31.95.91.95zm5.48-4.82c-1.09 0-1.9.61-1.9 1.44 0 .75.45 1.24 1.59 1.54 1.02.27 1.28.47 1.28 1.02 0 .46-.44.77-1.13.77a2.2 2.2 0 0 1-1.46-.53l-.51.58c.46.4 1.1.69 1.99.69 1.07 0 2.08-.5 2.08-1.6 0-.92-.64-1.36-1.75-1.64-.85-.22-1.13-.42-1.13-.85 0-.42.37-.69.97-.69.49 0 .9.15 1.36.48l.4-.61a2.8 2.8 0 0 0-1.79-.6zm3.69-2.41a.61.61 0 0 0-.64.63c0 .35.26.62.64.62.39 0 .65-.27.65-.62 0-.36-.26-.63-.65-.63zm.47 7.8v-5.27h-.92V368h.92zm4.99-4.57v-.7h-3.56v.78h2.51l-2.74 3.8v.69h3.71l.11-.77h-2.78l2.75-3.8zm5.26 1.78l-.02.47h-3.36c.09 1.22.66 1.69 1.42 1.69.52 0 .91-.14 1.37-.46l.4.55c-.52.41-1.11.66-1.84.66-1.47 0-2.33-1.03-2.33-2.7 0-1.64.83-2.81 2.19-2.81 1.42 0 2.17.99 2.17 2.6zm-.91-.21v-.06c0-1.03-.41-1.6-1.24-1.6-.7 0-1.16.49-1.23 1.66h2.47zm6.51-4.39V368h-.81l-.09-.73c-.34.53-.87.85-1.52.85-1.28 0-1.99-1.09-1.99-2.73 0-1.61.78-2.78 2.07-2.78.62 0 1.07.28 1.42.65v-2.76l.92.11zm-2.22 6.78c.59 0 .95-.29 1.3-.78v-2.58c-.33-.42-.7-.69-1.22-.69-.79 0-1.28.66-1.28 2.03 0 1.39.44 2.02 1.2 2.02zm8.56-6.15c-.58 0-.78.25-.78.76v.73h1.28l-.1.71h-1.18V368h-.92v-4.56h-.94v-.71h.94v-.72c0-.88.58-1.51 1.65-1.51.5 0 .84.09 1.26.27l-.29.67c-.34-.15-.65-.2-.92-.2zm3.54 1.37c1.5 0 2.34 1.08 2.34 2.75 0 1.63-.86 2.76-2.35 2.76-1.5 0-2.35-1.08-2.35-2.75 0-1.63.86-2.76 2.36-2.76zm0 .74c-.88 0-1.37.64-1.37 2.02 0 1.37.48 2.01 1.36 2.01.88 0 1.36-.64 1.36-2.02 0-1.37-.48-2.01-1.35-2.01zm6.34-.74c-.69 0-1.25.36-1.61.9l-.08-.78h-.79V368h.92v-3.74c.35-.56.75-.93 1.34-.93.51 0 .83.23.83 1.02V368h.92v-3.78c0-1-.56-1.61-1.53-1.61zm6.04 5.15l-.35-.63c-.26.16-.47.23-.7.23-.46 0-.63-.25-.63-.78v-3.14h1.15l.1-.71h-1.25v-1.3l-.92.11v1.19h-.92v.71h.92v3.18c0 .98.53 1.5 1.42 1.5a2 2 0 0 0 1.18-.36zm5.03-5.15c-1.09 0-1.9.61-1.9 1.44 0 .75.45 1.24 1.59 1.54 1.02.27 1.28.47 1.28 1.02 0 .46-.44.77-1.13.77a2.2 2.2 0 0 1-1.46-.53l-.51.58c.46.4 1.1.69 1.99.69 1.07 0 2.08-.5 2.08-1.6 0-.92-.64-1.36-1.75-1.64-.85-.22-1.13-.42-1.13-.85 0-.42.37-.69.97-.69.49 0 .9.15 1.36.48l.4-.61a2.8 2.8 0 0 0-1.79-.6zm5.9 5.15l-.35-.63c-.26.16-.47.23-.7.23-.46 0-.63-.25-.63-.78v-3.14h1.15l.1-.71h-1.25v-1.3l-.92.11v1.19h-.92v.71h.92v3.18c0 .98.53 1.5 1.42 1.5a2 2 0 0 0 1.18-.36zm3.06.27l1.76-5.3h-.95l-1.38 4.6-1.41-4.6h-.98l1.77 5.27h.31c-.3.82-.6 1.23-1.67 1.41l.1.72c1.46-.16 2.08-.98 2.45-2.1zm3.68-1.09v-6.44l-.92.11v6.35c0 .76.38 1.16 1.05 1.16.27 0 .53-.06.78-.18l-.24-.64a.9.9 0 0 1-.34.06c-.24 0-.33-.14-.33-.42zm6.04-1.73l-.02.47h-3.36c.09 1.22.66 1.69 1.42 1.69.52 0 .91-.14 1.37-.46l.4.55c-.52.41-1.11.66-1.84.66-1.47 0-2.33-1.03-2.33-2.7 0-1.64.83-2.81 2.19-2.81 1.42 0 2.17.99 2.17 2.6zm-.91-.21v-.06c0-1.03-.41-1.6-1.24-1.6-.7 0-1.16.49-1.23 1.66h2.47zm-556.2-27.01c-1.56 0-2.86 1.23-2.86 3.56 0 2.32 1.21 3.57 2.88 3.57.93 0 1.6-.38 1.97-.77l-.48-.61c-.39.29-.81.58-1.46.58-1.07 0-1.9-.78-1.9-2.77 0-2.08.87-2.78 1.91-2.78.48 0 .9.16 1.33.51l.52-.61a2.72 2.72 0 0 0-1.91-.68zm6.69 5.78c0 .46.17.61.44.71l-.21.64c-.53-.06-.87-.27-1.03-.79a1.8 1.8 0 0 1-1.57.79c-1.05 0-1.68-.65-1.68-1.59 0-1.13.85-1.74 2.32-1.74h.81v-.39c0-.76-.37-1.04-1.1-1.04-.39 0-.88.1-1.42.28l-.23-.67a5.16 5.16 0 0 1 1.82-.36c1.27 0 1.85.65 1.85 1.75v2.41zm-2.16.66c.54 0 .94-.27 1.24-.82v-1.21h-.69c-.97 0-1.46.36-1.46 1.08 0 .62.31.95.91.95zm6.47-4.82c1.4 0 1.95 1.09 1.95 2.75 0 1.6-.71 2.76-2.07 2.76a1.7 1.7 0 0 1-1.38-.6v2.5l-.92.11v-7.4h.79l.07.71c.39-.54.96-.83 1.56-.83zm-.34 4.76c.84 0 1.3-.63 1.3-2.01 0-1.37-.4-2.02-1.19-2.02-.56 0-.99.4-1.27.82v2.57c.27.41.68.64 1.16.64zm6.52.39l-.35-.63c-.26.16-.47.23-.7.23-.46 0-.63-.25-.63-.78v-3.14h1.15l.1-.71h-1.25v-1.3l-.92.11v1.19h-.92v.71h.92v3.18c0 .98.53 1.5 1.42 1.5a2 2 0 0 0 1.18-.36zm1.4-7.56a.61.61 0 0 0-.64.63c0 .35.26.62.64.62.39 0 .65-.27.65-.62 0-.36-.26-.63-.65-.63zm.47 7.8v-5.27h-.92V345h.92zm3.88-5.39c1.5 0 2.34 1.08 2.34 2.75 0 1.63-.86 2.76-2.35 2.76-1.5 0-2.35-1.08-2.35-2.75 0-1.63.86-2.76 2.36-2.76zm0 .74c-.88 0-1.37.64-1.37 2.02 0 1.37.48 2.01 1.36 2.01.88 0 1.36-.64 1.36-2.02 0-1.37-.48-2.01-1.35-2.01zm6.34-.74c-.69 0-1.25.36-1.61.9l-.08-.78h-.79V345h.92v-3.74c.35-.56.75-.93 1.34-.93.51 0 .83.23.83 1.02V345h.92v-3.78c0-1-.56-1.61-1.53-1.61zm5.09.11l1.53-.33-.28-.83-1.42.63.15-1.58h-.9l.15 1.57-1.42-.61-.27.82 1.52.33-1.03 1.17.72.52.78-1.34.79 1.34.72-.53-1.04-1.16zM122.28 97.11c1.76 0 3.45.55 3.45 3.41 0 2.81-1.75 3.48-3.24 3.48h-1.65v-6.89h1.44zm-.49.76v5.38h.77c1.08 0 2.16-.46 2.16-2.73 0-2.33-1.13-2.65-2.23-2.65h-.7zm5.89-1.67a.61.61 0 0 0-.64.63c0 .35.26.62.64.62.39 0 .65-.27.65-.62 0-.36-.26-.63-.65-.63zm.47 7.8v-5.27h-.92V104h.92zm3.33-5.39c-1.09 0-1.9.61-1.9 1.44 0 .75.45 1.24 1.59 1.54 1.02.27 1.28.47 1.28 1.02 0 .46-.44.77-1.13.77a2.2 2.2 0 0 1-1.46-.53l-.51.58c.46.4 1.1.69 1.99.69 1.07 0 2.08-.5 2.08-1.6 0-.92-.64-1.36-1.75-1.64-.85-.22-1.13-.42-1.13-.85 0-.42.37-.69.97-.69.49 0 .9.15 1.36.48l.4-.61a2.8 2.8 0 0 0-1.79-.6zm5.66 0c1.4 0 1.95 1.09 1.95 2.75 0 1.6-.71 2.76-2.07 2.76a1.7 1.7 0 0 1-1.38-.6v2.5l-.92.11v-7.4h.79l.07.71c.39-.54.96-.83 1.56-.83zm-.34 4.76c.84 0 1.3-.63 1.3-2.01 0-1.37-.4-2.02-1.19-2.02-.56 0-.99.4-1.27.82v2.57c.27.41.68.64 1.16.64zm4.73-.43V96.5l-.92.11v6.35c0 .76.38 1.16 1.05 1.16.27 0 .53-.06.78-.18l-.24-.64a.9.9 0 0 1-.34.06c-.24 0-.33-.14-.33-.42zm5.61-.17c0 .46.17.61.44.71l-.21.64c-.53-.06-.87-.27-1.03-.79a1.8 1.8 0 0 1-1.57.79c-1.05 0-1.68-.65-1.68-1.59 0-1.13.85-1.74 2.32-1.74h.81v-.39c0-.76-.37-1.04-1.1-1.04-.39 0-.88.1-1.42.28l-.23-.67a5.16 5.16 0 0 1 1.82-.36c1.27 0 1.85.65 1.85 1.75v2.41zm-2.16.66c.54 0 .94-.27 1.24-.82v-1.21h-.69c-.97 0-1.46.36-1.46 1.08 0 .62.31.95.91.95zm6.16.6l1.76-5.3h-.95l-1.38 4.6-1.41-4.6h-.98l1.77 5.27h.31c-.3.82-.6 1.23-1.67 1.41l.1.72c1.46-.16 2.08-.98 2.45-2.1zm-21.31 162.33c.8.14 1.59.51 1.59 1.68 0 1.46-1.13 1.96-2.73 1.96h-1.9v-6.89h1.63c1.7 0 2.7.54 2.7 1.74 0 .85-.62 1.37-1.29 1.51zm-2.09-2.5v2.17h1.04c.77 0 1.37-.38 1.37-1.11 0-.85-.61-1.06-1.63-1.06h-.78zm.95 5.38c1 0 1.73-.2 1.73-1.2 0-.97-.72-1.28-1.55-1.28h-1.13v2.48h.95zm6.11-4.63c1.5 0 2.34 1.08 2.34 2.75 0 1.63-.86 2.76-2.35 2.76-1.5 0-2.35-1.08-2.35-2.75 0-1.63.86-2.76 2.36-2.76zm0 .74c-.88 0-1.37.64-1.37 2.02 0 1.37.48 2.01 1.36 2.01.88 0 1.36-.64 1.36-2.02 0-1.37-.48-2.01-1.35-2.01zm7.94-2.74V270h-.81l-.09-.73c-.34.53-.87.85-1.52.85-1.28 0-1.99-1.09-1.99-2.73 0-1.61.78-2.78 2.07-2.78.62 0 1.07.28 1.42.65v-2.76l.92.11zm-2.22 6.78c.59 0 .95-.29 1.3-.78v-2.58c-.33-.42-.7-.69-1.22-.69-.79 0-1.28.66-1.28 2.03 0 1.39.44 2.02 1.2 2.02zm6.23.64l1.76-5.3h-.95l-1.38 4.6-1.41-4.6h-.98l1.77 5.27h.31c-.3.82-.6 1.23-1.67 1.41l.1.72c1.46-.16 2.08-.98 2.45-2.1zm4.52-5.31l1.53-.33-.28-.83-1.42.63.15-1.58h-.9l.15 1.57-1.42-.61-.27.82 1.52.33-1.03 1.17.72.52.78-1.34.79 1.34.72-.53-1.04-1.16zm-13.33-110.8l.1-.81h-4.92v.81h1.96V160h.95v-6.08h1.91zm1.6-1.72a.61.61 0 0 0-.64.63c0 .35.26.62.64.62.39 0 .65-.27.65-.62 0-.36-.26-.63-.65-.63zm.47 7.8v-5.27h-.92V160h.92zm4.56-.24l-.35-.63c-.26.16-.47.23-.7.23-.46 0-.63-.25-.63-.78v-3.14h1.15l.1-.71h-1.25v-1.3l-.92.11v1.19h-.92v.71h.92v3.18c0 .98.53 1.5 1.42 1.5a2 2 0 0 0 1.18-.36zm1.82-.82v-6.44l-.92.11v6.35c0 .76.38 1.16 1.05 1.16.27 0 .53-.06.78-.18l-.24-.64a.9.9 0 0 1-.34.06c-.24 0-.33-.14-.33-.42zm6.04-1.73l-.02.47h-3.36c.09 1.22.66 1.69 1.42 1.69.52 0 .91-.14 1.37-.46l.4.55c-.52.41-1.11.66-1.84.66-1.47 0-2.33-1.03-2.33-2.7 0-1.64.83-2.81 2.19-2.81 1.42 0 2.17.99 2.17 2.6zm-.91-.21v-.06c0-1.03-.41-1.6-1.24-1.6-.7 0-1.16.49-1.23 1.66h2.47z"/></g></svg>