<svg xmlns="http://www.w3.org/2000/svg" width="316" height="215" viewBox="0 0 316 215">
  <g fill="none" fill-rule="evenodd">
    <rect width="316" height="321" fill="#002275"/>
    <path fill="#FFF" d="M29.13 40.194L23.388 40.194 22.244 44 20.132 44 24.994 28.842 27.634 28.842 32.474 44 30.274 44 29.13 40.194zM28.624 38.5L26.27 30.58 23.894 38.5 28.624 38.5zM47.324 35.992C49.084 36.3 50.822 37.114 50.822 39.688 50.822 42.9 48.336 44 44.816 44L40.636 44 40.636 28.842 44.222 28.842C47.962 28.842 50.162 30.03 50.162 32.67 50.162 34.54 48.798 35.684 47.324 35.992zM42.726 30.492L42.726 35.266 45.014 35.266C46.708 35.266 48.028 34.43 48.028 32.824 48.028 30.954 46.686 30.492 44.442 30.492L42.726 30.492zM44.816 42.328C47.016 42.328 48.622 41.888 48.622 39.688 48.622 37.554 47.038 36.872 45.212 36.872L42.726 36.872 42.726 42.328 44.816 42.328zM65.144 28.578C61.712 28.578 58.852 31.284 58.852 36.41 58.852 41.514 61.514 44.264 65.188 44.264 67.234 44.264 68.708 43.428 69.522 42.57L68.466 41.228C67.608 41.866 66.684 42.504 65.254 42.504 62.9 42.504 61.074 40.788 61.074 36.41 61.074 31.834 62.988 30.294 65.276 30.294 66.332 30.294 67.256 30.646 68.202 31.416L69.346 30.074C68.136 29.106 67.058 28.578 65.144 28.578zM81.16 28.842C85.032 28.842 88.75 30.052 88.75 36.344 88.75 42.526 84.9 44 81.622 44L77.992 44 77.992 28.842 81.16 28.842zM80.082 30.514L80.082 42.35 81.776 42.35C84.152 42.35 86.528 41.338 86.528 36.344 86.528 31.218 84.042 30.514 81.622 30.514L80.082 30.514zM105.954 30.514L106.196 28.842 97.99 28.842 97.99 44 106.372 44 106.372 42.328 100.08 42.328 100.08 37.136 105.184 37.136 105.184 35.464 100.08 35.464 100.08 30.514 105.954 30.514zM123.4 30.514L123.642 28.842 115.59 28.842 115.59 44 117.68 44 117.68 37.334 122.63 37.334 122.63 35.684 117.68 35.684 117.68 30.514 123.4 30.514zM137.766 28.578C134.356 28.578 131.232 31.306 131.232 36.41 131.232 41.646 133.674 44.264 137.436 44.264 139.57 44.264 141.154 43.736 142.54 42.922L142.54 35.596 137.546 35.596 137.788 37.29 140.472 37.29 140.472 41.844C139.614 42.35 138.602 42.548 137.59 42.548 134.928 42.548 133.454 40.766 133.454 36.41 133.454 31.944 135.632 30.294 137.81 30.294 139.174 30.294 140.076 30.668 141.132 31.526L142.364 30.25C141.066 29.172 139.812 28.578 137.766 28.578zM160.404 36.894L160.404 44 162.494 44 162.494 28.842 160.404 28.842 160.404 35.178 154.024 35.178 154.024 28.842 151.934 28.842 151.934 44 154.024 44 154.024 36.894 160.404 36.894zM174.836 44L174.836 28.842 172.724 28.842 172.724 44 174.836 44zM187.486 41.888L187.486 28.842 185.396 28.842 185.396 41.8C185.396 43.824 184.978 44.704 182.976 45.496L183.526 47.014C185.968 46.244 187.486 45.056 187.486 41.888zM199.696 44L199.696 28.842 197.606 28.842 197.606 44 199.696 44zM202.204 35.772L207.946 28.842 205.57 28.842 199.806 35.904 205.79 44 208.364 44 202.204 35.772zM218.484 42.174L218.484 28.842 216.394 28.842 216.394 44 224.468 44 224.71 42.174 218.484 42.174zM246.732 44L245.478 28.842 242.64 28.842 239.604 39.864 236.414 28.842 233.598 28.842 232.344 44 234.324 44 234.83 37.312C235.006 35.09 235.116 32.736 235.116 30.954L238.57 42.284 240.528 42.284 243.806 30.976C243.828 32.23 243.982 34.782 244.18 37.158L244.708 44 246.732 44zM267.148 44L267.148 28.842 265.19 28.842 265.19 37.114C265.19 38.962 265.432 41.382 265.476 41.734L259.25 28.842 256.522 28.842 256.522 44 258.48 44 258.48 37.048C258.48 34.232 258.304 32.384 258.194 31.13L264.354 44 267.148 44zM27.612 58.578C31.418 58.578 34.014 61.328 34.014 66.432 34.014 71.448 31.418 74.264 27.612 74.264 23.828 74.264 21.21 71.536 21.21 66.454 21.21 61.46 23.828 58.578 27.612 58.578zM27.612 60.294C25.082 60.294 23.432 62.076 23.432 66.454 23.432 70.832 25.148 72.548 27.612 72.548 30.164 72.548 31.792 70.832 31.792 66.432 31.792 62.076 30.208 60.294 27.612 60.294zM47.236 58.842C50.888 58.842 53.132 60.338 53.132 63.528 53.132 67.004 50.602 68.434 47.258 68.434L45.344 68.434 45.344 74 43.254 74 43.254 58.842 47.236 58.842zM47.17 66.784C49.414 66.784 50.91 66.124 50.91 63.55 50.91 61.284 49.458 60.47 47.214 60.47L45.344 60.47 45.344 66.784 47.17 66.784zM70.204 73.142C71.942 73.142 73.24 73.758 74.318 74.506L72.954 76.266C71.238 74.726 69.984 74.22 67.234 74.22 63.494 74.22 60.876 71.536 60.876 66.454 60.876 61.46 63.494 58.578 67.278 58.578 71.084 58.578 73.68 61.328 73.68 66.432 73.68 70.15 72.36 72.02 70.204 73.142zM63.098 66.454C63.098 70.832 64.814 72.548 67.278 72.548 69.83 72.548 71.458 70.832 71.458 66.432 71.458 62.076 69.874 60.294 67.278 60.294 64.748 60.294 63.098 62.076 63.098 66.454zM87.298 67.576L84.944 67.576 84.944 74 82.854 74 82.854 58.842 86.836 58.842C90.62 58.842 92.6 60.294 92.6 63.132 92.6 65.266 91.5 66.542 89.322 67.202L93.414 74 90.928 74 87.298 67.576zM87.056 65.97C89.168 65.97 90.378 65.178 90.378 63.132 90.378 61.24 89.3 60.47 86.814 60.47L84.944 60.47 84.944 65.97 87.056 65.97zM105.734 58.578C102.94 58.578 100.96 60.206 100.96 62.538 100.96 64.892 102.5 66.014 105.448 66.916 108.022 67.708 108.726 68.368 108.726 69.842 108.726 71.668 107.252 72.548 105.47 72.548 103.82 72.548 102.588 71.954 101.554 70.964L100.344 72.306C101.598 73.538 103.314 74.264 105.492 74.264 108.902 74.264 110.904 72.416 110.904 69.776 110.904 66.872 108.836 65.926 106.416 65.178 103.688 64.342 103.094 63.726 103.094 62.45 103.094 60.998 104.304 60.294 105.822 60.294 107.076 60.294 108.132 60.69 109.232 61.658L110.42 60.338C109.144 59.194 107.824 58.578 105.734 58.578zM128.548 60.624L128.768 58.842 117.944 58.842 117.944 60.624 122.256 60.624 122.256 74 124.346 74 124.346 60.624 128.548 60.624zM147.402 69.138L147.402 58.842 145.29 58.842 145.29 68.984C145.29 71.338 144.256 72.504 142.078 72.504 139.922 72.504 138.888 71.338 138.888 68.984L138.888 58.842 136.798 58.842 136.798 69.138C136.798 72.152 138.624 74.264 142.078 74.264 145.488 74.264 147.402 72.152 147.402 69.138zM162.472 74L167.312 58.842 165.2 58.842 161.394 71.734 157.588 58.842 155.344 58.842 160.228 74 162.472 74zM187.816 74L190.896 58.842 188.982 58.842 186.452 72.174 183.46 58.842 181.238 58.842 178.312 72.174 175.87 58.842 173.824 58.842 176.904 74 179.522 74 182.338 61.306 185.132 74 187.816 74zM209.046 74L204.426 65.816 208.54 58.842 206.296 58.842 203.216 64.54 200.158 58.842 197.782 58.842 201.94 65.926 197.386 74 199.63 74 203.172 67.29 206.67 74 209.046 74zM222.092 68.17L226.976 58.842 224.798 58.842 221.102 66.344 217.406 58.842 215.096 58.842 219.98 68.192 219.98 74 222.092 74 222.092 68.17zM243.41 60.536L243.41 58.842 234.368 58.842 234.368 60.602 241.144 60.602 233.576 72.328 233.576 74 243.168 74 243.41 72.218 235.908 72.218 243.41 60.536zM29.9 111.294C29.9 112.306 30.274 112.636 30.868 112.856L30.406 114.264C29.24 114.132 28.492 113.67 28.14 112.526 27.326 113.736 26.094 114.264 24.686 114.264 22.376 114.264 20.99 112.834 20.99 110.766 20.99 108.28 22.86 106.938 26.094 106.938L27.876 106.938 27.876 106.08C27.876 104.408 27.062 103.792 25.456 103.792 24.598 103.792 23.52 104.012 22.332 104.408L21.826 102.934C23.256 102.406 24.532 102.142 25.83 102.142 28.624 102.142 29.9 103.572 29.9 105.992L29.9 111.294zM25.148 112.746C26.336 112.746 27.216 112.152 27.876 110.942L27.876 108.28 26.358 108.28C24.224 108.28 23.146 109.072 23.146 110.656 23.146 112.02 23.828 112.746 25.148 112.746zM45.19 102.142C47.808 102.142 49.502 104.32 49.502 108.192 49.502 111.822 47.764 114.264 44.948 114.264 43.672 114.264 42.66 113.692 41.868 112.724L41.67 114 39.888 114 39.888 97.742 41.912 97.5 41.912 103.858C42.704 102.78 43.782 102.142 45.19 102.142zM44.464 112.658C46.158 112.658 47.324 111.36 47.324 108.192 47.324 104.892 46.246 103.748 44.618 103.748 43.342 103.748 42.506 104.628 41.912 105.552L41.912 111.096C42.506 112.02 43.43 112.658 44.464 112.658zM63.01 102.142C59.864 102.142 57.95 104.606 57.95 108.302 57.95 112.042 59.886 114.264 63.01 114.264 64.352 114.264 65.518 113.824 66.552 112.988L65.584 111.602C64.748 112.24 64.066 112.548 63.098 112.548 61.272 112.548 60.128 111.294 60.128 108.258 60.128 105.244 61.272 103.814 63.098 103.814 64.066 103.814 64.792 104.1 65.562 104.716L66.552 103.396C65.474 102.494 64.374 102.142 63.01 102.142zM84.108 97.742L84.108 114 82.326 114 82.128 112.394C81.38 113.56 80.214 114.264 78.784 114.264 75.968 114.264 74.406 111.866 74.406 108.258 74.406 104.716 76.122 102.142 78.96 102.142 80.324 102.142 81.314 102.758 82.084 103.572L82.084 97.5 84.108 97.742zM79.224 112.658C80.522 112.658 81.314 112.02 82.084 110.942L82.084 105.266C81.358 104.342 80.544 103.748 79.4 103.748 77.662 103.748 76.584 105.2 76.584 108.214 76.584 111.272 77.552 112.658 79.224 112.658zM102.874 107.862C102.874 108.258 102.852 108.632 102.83 108.896L95.438 108.896C95.636 111.58 96.89 112.614 98.562 112.614 99.706 112.614 100.564 112.306 101.576 111.602L102.456 112.812C101.312 113.714 100.014 114.264 98.408 114.264 95.174 114.264 93.282 111.998 93.282 108.324 93.282 104.716 95.108 102.142 98.1 102.142 101.224 102.142 102.874 104.32 102.874 107.862zM100.872 107.4L100.872 107.268C100.872 105.002 99.97 103.748 98.144 103.748 96.604 103.748 95.592 104.826 95.438 107.4L100.872 107.4zM115.986 99.128C116.58 99.128 117.262 99.238 118.01 99.568L118.648 98.094C117.724 97.698 116.976 97.5 115.876 97.5 113.522 97.5 112.246 98.886 112.246 100.822L112.246 102.406 110.178 102.406 110.178 103.968 112.246 103.968 112.246 114 114.27 114 114.27 103.968 116.866 103.968 117.086 102.406 114.27 102.406 114.27 100.8C114.27 99.678 114.71 99.128 115.986 99.128zM134.598 102.934C133.63 103.242 132.53 103.286 131.21 103.286 132.574 103.902 133.256 104.87 133.256 106.212 133.256 108.5 131.606 110.15 128.834 110.15 128.306 110.15 127.844 110.084 127.36 109.93 127.03 110.172 126.788 110.59 126.788 111.008 126.788 111.536 127.118 111.954 128.306 111.954L130.154 111.954C132.53 111.954 134.114 113.318 134.114 115.166 134.114 117.41 132.266 118.686 128.68 118.686 124.896 118.686 123.708 117.52 123.708 115.166L125.534 115.166C125.534 116.486 126.128 117.102 128.68 117.102 131.188 117.102 132.068 116.464 132.068 115.298 132.068 114.198 131.188 113.648 129.736 113.648L127.91 113.648C125.842 113.648 124.918 112.614 124.918 111.448 124.918 110.7 125.358 109.952 126.194 109.402 124.852 108.698 124.236 107.686 124.236 106.19 124.236 103.814 126.15 102.142 128.702 102.142 131.584 102.208 132.64 101.724 134.004 101.108L134.598 102.934zM128.702 103.594C127.14 103.594 126.304 104.672 126.304 106.19 126.304 107.73 127.162 108.808 128.746 108.808 130.33 108.808 131.188 107.84 131.188 106.168 131.188 104.474 130.352 103.594 128.702 103.594zM147.974 102.142C146.522 102.142 145.378 102.868 144.542 104.012L144.542 97.544 142.518 97.764 142.518 114 144.542 114 144.542 105.75C145.312 104.54 146.214 103.726 147.468 103.726 148.568 103.726 149.316 104.232 149.316 105.97L149.316 114 151.34 114 151.34 105.684C151.34 103.506 150.086 102.142 147.974 102.142zM162.23 96.84C161.394 96.84 160.822 97.434 160.822 98.226 160.822 98.996 161.394 99.59 162.23 99.59 163.088 99.59 163.66 98.996 163.66 98.226 163.66 97.434 163.088 96.84 162.23 96.84zM163.264 114L163.264 102.406 161.24 102.406 161.24 114 163.264 114zM174.242 96.84C173.406 96.84 172.834 97.434 172.834 98.226 172.834 98.996 173.406 99.59 174.242 99.59 175.1 99.59 175.672 98.996 175.672 98.226 175.672 97.434 175.1 96.84 174.242 96.84zM175.254 113.296L175.254 102.406 173.23 102.406 173.23 113.428C173.23 115.914 172.504 116.486 170.986 117.19L171.58 118.664C174.044 117.564 175.254 116.574 175.254 113.296zM187.288 114L187.288 97.5 185.264 97.742 185.264 114 187.288 114zM189.686 107.532L193.954 102.406 191.688 102.406 187.42 107.664 192.018 114 194.438 114 189.686 107.532zM204.272 111.668L204.272 97.5 202.248 97.742 202.248 111.712C202.248 113.384 203.084 114.264 204.558 114.264 205.152 114.264 205.724 114.132 206.274 113.868L205.746 112.46C205.526 112.548 205.284 112.592 204.998 112.592 204.47 112.592 204.272 112.284 204.272 111.668zM226.272 102.142C224.71 102.142 223.654 102.978 222.818 104.232 222.378 102.912 221.322 102.142 219.892 102.142 218.374 102.142 217.318 102.934 216.548 104.1L216.372 102.406 214.634 102.406 214.634 114 216.658 114 216.658 105.772C217.428 104.54 218.132 103.726 219.386 103.726 220.266 103.726 221.014 104.232 221.014 105.97L221.014 114 223.038 114 223.038 105.772C223.83 104.54 224.512 103.726 225.766 103.726 226.646 103.726 227.394 104.232 227.394 105.97L227.394 114 229.418 114 229.418 105.684C229.418 103.506 228.164 102.142 226.272 102.142zM244.774 102.142C243.256 102.142 242.024 102.934 241.232 104.122L241.056 102.406 239.318 102.406 239.318 114 241.342 114 241.342 105.772C242.112 104.54 242.992 103.726 244.29 103.726 245.412 103.726 246.116 104.232 246.116 105.97L246.116 114 248.14 114 248.14 105.684C248.14 103.484 246.908 102.142 244.774 102.142zM262.396 102.142C265.696 102.142 267.544 104.518 267.544 108.192 267.544 111.778 265.652 114.264 262.374 114.264 259.074 114.264 257.204 111.888 257.204 108.214 257.204 104.628 259.096 102.142 262.396 102.142zM262.396 103.77C260.46 103.77 259.382 105.178 259.382 108.214 259.382 111.228 260.438 112.636 262.374 112.636 264.31 112.636 265.366 111.228 265.366 108.192 265.366 105.178 264.31 103.77 262.396 103.77zM282.042 102.142C285.122 102.142 286.332 104.54 286.332 108.192 286.332 111.712 284.77 114.264 281.778 114.264 280.524 114.264 279.49 113.846 278.742 112.944L278.742 118.444 276.718 118.686 276.718 102.406 278.456 102.406 278.61 103.968C279.468 102.78 280.722 102.142 282.042 102.142zM281.294 112.614C283.142 112.614 284.154 111.228 284.154 108.192 284.154 105.178 283.274 103.748 281.536 103.748 280.304 103.748 279.358 104.628 278.742 105.552L278.742 111.206C279.336 112.108 280.238 112.614 281.294 112.614zM30.956 132.406L30.956 148.686 28.932 148.444 28.932 142.46C28.184 143.582 27.04 144.264 25.632 144.264 22.816 144.264 21.254 141.866 21.254 138.258 21.254 134.716 22.97 132.142 25.808 132.142 27.238 132.142 28.272 132.824 29.064 133.704L29.218 132.406 30.956 132.406zM26.072 142.658C27.37 142.658 28.162 142.02 28.932 140.942L28.932 135.266C28.206 134.342 27.392 133.748 26.248 133.748 24.51 133.748 23.432 135.2 23.432 138.214 23.432 141.272 24.4 142.658 26.072 142.658zM46.004 132.142C44.596 132.142 43.518 133.022 42.902 134.76L42.704 132.406 40.966 132.406 40.966 144 42.99 144 42.99 137.378C43.474 135.156 44.31 134.122 45.762 134.122 46.18 134.122 46.422 134.166 46.774 134.254L47.148 132.274C46.796 132.186 46.378 132.142 46.004 132.142zM58.434 132.142C56.036 132.142 54.254 133.484 54.254 135.31 54.254 136.96 55.244 138.038 57.752 138.698 59.996 139.292 60.568 139.732 60.568 140.942 60.568 141.954 59.6 142.636 58.082 142.636 56.828 142.636 55.75 142.218 54.87 141.47L53.748 142.746C54.76 143.626 56.168 144.264 58.126 144.264 60.48 144.264 62.702 143.164 62.702 140.744 62.702 138.72 61.294 137.752 58.852 137.136 56.982 136.652 56.366 136.212 56.366 135.266 56.366 134.342 57.18 133.748 58.5 133.748 59.578 133.748 60.48 134.078 61.492 134.804L62.372 133.462C61.272 132.626 60.062 132.142 58.434 132.142zM77.244 143.472L76.474 142.086C75.902 142.438 75.44 142.592 74.934 142.592 73.922 142.592 73.548 142.042 73.548 140.876L73.548 133.968 76.078 133.968 76.298 132.406 73.548 132.406 73.548 129.546 71.524 129.788 71.524 132.406 69.5 132.406 69.5 133.968 71.524 133.968 71.524 140.964C71.524 143.12 72.69 144.264 74.648 144.264 75.638 144.264 76.474 144 77.244 143.472zM93.788 144L93.788 132.406 91.764 132.406 91.764 140.678C91.06 141.844 90.114 142.68 88.86 142.68 87.606 142.68 87.078 142.086 87.078 140.502L87.078 132.406 85.054 132.406 85.054 140.722C85.054 142.988 86.264 144.264 88.288 144.264 89.938 144.264 91.016 143.604 91.896 142.196L92.05 144 93.788 144zM108.374 144L112.312 132.406 110.178 132.406 107.164 142.196 104.128 132.406 101.928 132.406 105.932 144 108.374 144zM131.056 144L133.696 132.406 131.76 132.406 129.648 142.592 127.47 132.406 125.204 132.406 122.916 142.592 120.826 132.406 118.802 132.406 121.508 144 124.192 144 126.282 134.232 128.306 144 131.056 144zM150.526 144L146.5 137.796 150.064 132.406 147.776 132.406 145.334 136.652 142.914 132.406 140.538 132.406 144.124 137.884 140.076 144 142.364 144 145.246 139.094 148.084 144 150.526 144zM163.198 144.066L167.07 132.406 164.98 132.406 161.944 142.526 158.842 132.406 156.686 132.406 160.58 144 161.262 144C160.602 145.804 159.942 146.706 157.588 147.102L157.808 148.686C161.02 148.334 162.384 146.53 163.198 144.066zM182.008 133.946L182.008 132.406 174.176 132.406 174.176 134.122 179.698 134.122 173.67 142.482 173.67 144 181.832 144 182.074 142.306 175.958 142.306 182.008 133.946zM27.106 182L27.106 167.282 25.324 167.282 20.77 170.098 21.65 171.528 25.082 169.438 25.082 182 27.106 182zM40.372 167.062C38.524 167.062 37.094 167.81 35.906 169.284L37.27 170.34C38.216 169.218 39.03 168.734 40.262 168.734 41.692 168.734 42.682 169.636 42.682 171.176 42.682 173.574 41.406 174.982 36.214 180.394L36.214 182 44.904 182 45.146 180.306 38.524 180.306C43.034 175.796 44.794 173.838 44.794 171.088 44.794 168.8 43.078 167.062 40.372 167.062zM57.026 167.062C55.442 167.062 54.078 167.634 52.824 168.8L53.88 170.01C54.87 169.086 55.75 168.69 56.916 168.69 58.39 168.69 59.358 169.548 59.358 170.934 59.358 172.65 58.148 173.53 56.696 173.53L55.948 173.53 55.706 175.092 56.806 175.092C58.588 175.092 59.732 175.708 59.732 177.732 59.732 179.47 58.61 180.614 56.762 180.614 55.574 180.614 54.562 180.174 53.638 179.14L52.406 180.284C53.528 181.626 55.068 182.264 56.828 182.264 59.886 182.264 61.844 180.328 61.844 177.754 61.844 175.532 60.37 174.366 58.522 174.19 60.172 173.794 61.382 172.672 61.382 170.802 61.382 168.822 59.842 167.062 57.026 167.062zM79.928 178.37L79.928 176.764 78.014 176.764 78.014 172.804 76.254 172.804 76.078 176.764 71.898 176.764 75.88 167.766 74.186 167.062 69.764 176.918 69.764 178.37 76.056 178.37 76.056 182 78.014 182 78.014 178.37 79.928 178.37zM95.658 168.866L95.944 167.282 87.98 167.282 87.98 174.696 89.564 174.696C90.268 174.366 90.862 174.19 91.654 174.19 93.172 174.19 94.338 174.982 94.338 177.248 94.338 179.404 93.172 180.614 91.324 180.614 90.048 180.614 89.102 180.152 88.222 179.206L86.99 180.394C88.134 181.56 89.476 182.264 91.346 182.264 94.404 182.264 96.45 180.218 96.45 177.292 96.45 174.366 94.756 172.628 92.27 172.628 91.478 172.628 90.686 172.804 89.916 173.2L89.916 168.866 95.658 168.866zM110.046 172.32C112.202 172.32 114.116 173.86 114.116 177.006 114.116 180.218 112.026 182.264 109.43 182.264 105.844 182.264 104.48 179.316 104.48 175.092 104.48 170.274 106.57 167.062 110.046 167.062 111.234 167.062 112.224 167.392 113.082 167.964L112.29 169.306C111.608 168.888 110.838 168.668 110.024 168.668 107.89 168.668 106.614 170.89 106.504 174.256 107.472 172.892 108.66 172.32 110.046 172.32zM109.43 180.658C111.168 180.658 112.07 179.228 112.07 177.072 112.07 174.74 111.08 173.926 109.694 173.926 108.374 173.926 107.274 174.74 106.526 175.95 106.614 179.162 107.472 180.658 109.43 180.658zM129.934 168.8L129.934 167.282 121.376 167.282 121.376 168.932 127.888 168.932 122.586 181.604 124.434 182.22 129.934 168.8zM144.454 174.102C146.478 174.916 147.556 176.214 147.556 178.062 147.556 180.526 145.444 182.264 142.452 182.264 139.416 182.264 137.414 180.526 137.414 178.106 137.414 176.214 138.514 175.07 140.318 174.278 138.734 173.486 138.03 172.364 138.03 170.846 138.03 168.36 140.252 167.062 142.496 167.062 144.696 167.062 146.962 168.272 146.962 170.78 146.962 172.276 146.126 173.266 144.454 174.102zM142.496 168.58C140.978 168.58 140.01 169.394 140.01 170.868 140.01 172.386 141.044 172.936 142.738 173.486L143.112 173.618C144.432 172.87 144.982 172.1 144.982 170.846 144.982 169.482 144.102 168.58 142.496 168.58zM142.474 180.658C144.322 180.658 145.444 179.624 145.444 178.084 145.444 176.5 144.608 175.796 142.232 174.982L141.682 174.784C140.23 175.488 139.526 176.5 139.526 178.106 139.526 179.712 140.648 180.658 142.474 180.658zM160.074 167.062C163.242 167.062 164.826 169.328 164.826 172.782 164.826 178.876 162.406 180.922 156.994 182.484L156.532 180.966C160.228 179.91 162.582 178.216 162.736 174.894 162.098 175.884 160.932 176.654 159.436 176.654 157.148 176.654 155.366 174.85 155.366 171.924 155.366 168.844 157.522 167.062 160.074 167.062zM159.854 175.07C161.108 175.07 162.054 174.366 162.78 173.244 162.846 169.922 161.944 168.668 160.118 168.668 158.402 168.668 157.412 169.856 157.412 171.968 157.412 174.08 158.424 175.07 159.854 175.07zM177.894 167.062C181.194 167.062 182.822 169.79 182.822 174.652 182.822 179.536 181.194 182.264 177.894 182.264 174.594 182.264 172.966 179.536 172.966 174.652 172.966 169.768 174.594 167.062 177.894 167.062zM177.894 168.668C176.046 168.668 175.078 170.34 175.078 174.652 175.078 178.986 176.046 180.658 177.894 180.658 179.72 180.658 180.71 178.986 180.71 174.652 180.71 170.34 179.72 168.668 177.894 168.668z"/>
  </g>
</svg>
