<svg xmlns="http://www.w3.org/2000/svg" width="316" height="207" viewBox="0 0 316 207">
  <g fill="none" fill-rule="evenodd">
    <rect width="316" height="321" fill="#000F40"/>
    <path fill="#FFF" d="M30.4521484 39.9179688L23.8994141 39.9179688 22.4277344 44 20.3007812 44 26.2734375 28.359375 28.078125 28.359375 34.0615234 44 31.9453125 44 30.4521484 39.9179688zM24.5224609 38.2207031L29.8398438 38.2207031 27.1757812 30.9052734 24.5224609 38.2207031zM41.6132812 44L41.6132812 28.359375 46.7265625 28.359375C48.4238366 28.359375 49.7003538 28.7102829 50.5561523 29.4121094 51.4119509 30.1139358 51.8398438 31.1523369 51.8398438 32.5273438 51.8398438 33.2578162 51.6321635 33.9041313 51.2167969 34.4663086 50.8014302 35.0284859 50.2356807 35.4635401 49.5195312 35.7714844 50.3645876 36.0078137 51.0323869 36.4571907 51.5229492 37.1196289 52.0135116 37.7820671 52.2587891 38.57161 52.2587891 39.4882812 52.2587891 40.8919341 51.804041 41.9947877 50.8945312 42.796875 49.9850215 43.5989623 48.6995526 44 47.0380859 44L41.6132812 44zM43.6757812 36.6845703L43.6757812 42.3134766 47.0810547 42.3134766C48.0406949 42.3134766 48.7980115 42.0646184 49.3530273 41.5668945 49.9080431 41.0691707 50.1855469 40.3834679 50.1855469 39.5097656 50.1855469 37.6262927 49.1614686 36.6845703 47.1132812 36.6845703L43.6757812 36.6845703zM43.6757812 35.0302734L46.7910156 35.0302734C47.6933639 35.0302734 48.4148736 34.8046898 48.9555664 34.3535156 49.4962592 33.9023415 49.7666016 33.2900429 49.7666016 32.5166016 49.7666016 31.6572223 49.515953 31.0323913 49.0146484 30.6420898 48.5133438 30.2517884 47.7506562 30.0566406 46.7265625 30.0566406L43.6757812 30.0566406 43.6757812 35.0302734zM72.2607422 39.0371094C72.0673818 40.6914145 71.4568736 41.9679317 70.4291992 42.8666992 69.4015248 43.7654667 68.0354903 44.2148438 66.3310547 44.2148438 64.4833892 44.2148438 63.0027725 43.5524155 61.8891602 42.2275391 60.7755478 40.9026626 60.21875 39.1302194 60.21875 36.9101562L60.21875 35.40625C60.21875 33.9524667 60.4783503 32.6741592 60.9975586 31.5712891 61.5167669 30.468419 62.2525994 29.621585 63.2050781 29.0307617 64.1575568 28.4399385 65.2604104 28.1445312 66.5136719 28.1445312 68.1751385 28.1445312 69.5071564 28.608231 70.5097656 29.5356445 71.5123748 30.463058 72.0960278 31.7467366 72.2607422 33.3867188L70.1875 33.3867188C70.0084626 32.1406188 69.6199574 31.238284 69.0219727 30.6796875 68.4239879 30.121091 67.587896 29.8417969 66.5136719 29.8417969 65.195957 29.8417969 64.1629269 30.3287712 63.4145508 31.3027344 62.6661746 32.2766976 62.2919922 33.6624259 62.2919922 35.4599609L62.2919922 36.9746094C62.2919922 38.6718835 62.6464808 40.0218049 63.3554688 41.0244141 64.0644567 42.0270232 65.0563087 42.5283203 66.3310547 42.5283203 67.4768938 42.5283203 68.355954 42.26872 68.9682617 41.7495117 69.5805695 41.2303034 69.9869782 40.3261783 70.1875 39.0371094L72.2607422 39.0371094zM80.5214844 44L80.5214844 28.359375 84.9365234 28.359375C86.2972073 28.359375 87.5003203 28.6601532 88.5458984 29.2617188 89.5914766 29.8632843 90.3989229 30.71907 90.9682617 31.8291016 91.5376005 32.9391332 91.8258463 34.21386 91.8330078 35.6533203L91.8330078 36.6523438C91.8330078 38.1276115 91.5483427 39.4202418 90.9790039 40.5302734 90.4096651 41.640305 89.5968477 42.49251 88.5405273 43.0869141 87.484207 43.6813181 86.2542388 43.985677 84.8505859 44L80.5214844 44zM82.5839844 30.0566406L82.5839844 42.3134766 84.7539062 42.3134766C86.3437579 42.3134766 87.5808875 41.8193409 88.465332 40.8310547 89.3497766 39.8427685 89.7919922 38.435556 89.7919922 36.609375L89.7919922 35.6962891C89.7919922 33.9202385 89.3748414 32.5398812 88.5405273 31.5551758 87.7062133 30.5704703 86.5227941 30.0709636 84.9902344 30.0566406L82.5839844 30.0566406zM109.235352 36.7705078L102.457031 36.7705078 102.457031 42.3134766 110.331055 42.3134766 110.331055 44 100.394531 44 100.394531 28.359375 110.223633 28.359375 110.223633 30.0566406 102.457031 30.0566406 102.457031 35.0839844 109.235352 35.0839844 109.235352 36.7705078zM126.970703 37.0927734L120.407227 37.0927734 120.407227 44 118.344727 44 118.344727 28.359375 128.03418 28.359375 128.03418 30.0566406 120.407227 30.0566406 120.407227 35.40625 126.970703 35.40625 126.970703 37.0927734zM147.499023 41.9482422C146.969073 42.7073606 146.22966 43.2749005 145.280762 43.6508789 144.331864 44.0268573 143.22722 44.2148438 141.966797 44.2148438 140.692051 44.2148438 139.560552 43.9158559 138.572266 43.3178711 137.583979 42.7198863 136.819501 41.8694717 136.278809 40.7666016 135.738116 39.6637315 135.460612 38.3854239 135.446289 36.9316406L135.446289 35.5673828C135.446289 33.2112512 135.995925 31.3850976 137.095215 30.0888672 138.194504 28.7926367 139.739573 28.1445312 141.730469 28.1445312 143.363289 28.1445312 144.677404 28.561682 145.672852 29.3959961 146.668299 30.2303102 147.277017 31.4137293 147.499023 32.9462891L145.436523 32.9462891C145.049803 30.8766173 143.818044 29.8417969 141.741211 29.8417969 140.359043 29.8417969 139.31169 30.3269808 138.599121 31.2973633 137.886552 32.2677457 137.526693 33.6731679 137.519531 35.5136719L137.519531 36.7919922C137.519531 38.5465583 137.920569 39.9412383 138.722656 40.9760742 139.524744 42.0109101 140.609694 42.5283203 141.977539 42.5283203 142.75098 42.5283203 143.427731 42.4423837 144.007812 42.2705078 144.587894 42.098632 145.067706 41.8085958 145.447266 41.4003906L145.447266 37.8876953 141.827148 37.8876953 141.827148 36.2119141 147.499023 36.2119141 147.499023 41.9482422zM168.40332 44L166.330078 44 166.330078 36.7705078 158.445312 36.7705078 158.445312 44 156.382812 44 156.382812 28.359375 158.445312 28.359375 158.445312 35.0839844 166.330078 35.0839844 166.330078 28.359375 168.40332 28.359375 168.40332 44zM179.725586 44L177.663086 44 177.663086 28.359375 179.725586 28.359375 179.725586 44zM195.495117 28.359375L197.568359 28.359375 197.568359 39.4345703C197.568359 40.9313226 197.118982 42.1022093 196.220215 42.9472656 195.321447 43.7923219 194.123705 44.2148438 192.626953 44.2148438 191.072909 44.2148438 189.862635 43.8173868 188.996094 43.0224609 188.129553 42.2275351 187.696289 41.1139395 187.696289 39.6816406L189.758789 39.6816406C189.758789 40.5768274 190.004067 41.2750626 190.494629 41.7763672 190.985191 42.2776718 191.695959 42.5283203 192.626953 42.5283203 193.479171 42.5283203 194.168454 42.2597683 194.694824 41.7226562 195.221194 41.1855442 195.487956 40.4335986 195.495117 39.4667969L195.495117 28.359375zM210.501953 36.7275391L208.589844 38.7148438 208.589844 44 206.527344 44 206.527344 28.359375 208.589844 28.359375 208.589844 36.09375 215.540039 28.359375 218.032227 28.359375 211.876953 35.2666016 218.515625 44 216.044922 44 210.501953 36.7275391zM227.839844 42.3134766L235.251953 42.3134766 235.251953 44 225.766602 44 225.766602 28.359375 227.839844 28.359375 227.839844 42.3134766zM245.714844 28.359375L250.828125 41.1210938 255.941406 28.359375 258.616211 28.359375 258.616211 44 256.553711 44 256.553711 37.9091797 256.74707 31.3349609 251.612305 44 250.033203 44 244.90918 31.3671875 245.113281 37.9091797 245.113281 44 243.050781 44 243.050781 28.359375 245.714844 28.359375zM279.724609 44L277.651367 44 269.777344 31.9472656 269.777344 44 267.704102 44 267.704102 28.359375 269.777344 28.359375 277.672852 40.4658203 277.672852 28.359375 279.724609 28.359375 279.724609 44zM33.8466797 66.6845703C33.8466797 68.2171301 33.5888698 69.554519 33.0732422 70.6967773 32.5576146 71.8390357 31.8271532 72.7109345 30.8818359 73.3125 29.9365187 73.9140655 28.8336652 74.2148438 27.5732422 74.2148438 26.3414652 74.2148438 25.2493537 73.9122752 24.296875 73.3071289 23.3443963 72.7019827 22.6049831 71.8390356 22.0786133 70.7182617 21.5522435 69.5974879 21.2819011 68.2994865 21.2675781 66.8242188L21.2675781 65.6962891C21.2675781 64.1923753 21.5289687 62.8639381 22.0517578 61.7109375 22.5745469 60.5579369 23.3139601 59.675296 24.2700195 59.0629883 25.226079 58.4506805 26.3199808 58.1445312 27.5517578 58.1445312 28.8050193 58.1445312 29.9096632 58.4470998 30.8657227 59.0522461 31.8217821 59.6573923 32.5576146 60.5346622 33.0732422 61.684082 33.5888698 62.8335018 33.8466797 64.1708908 33.8466797 65.6962891L33.8466797 66.6845703zM31.7949219 65.6748047C31.7949219 63.8199777 31.4225298 62.3966521 30.6777344 61.4047852 29.932939 60.4129182 28.8909572 59.9169922 27.5517578 59.9169922 26.2483659 59.9169922 25.2224972 60.4129182 24.4741211 61.4047852 23.725745 62.3966521 23.3408204 63.7734287 23.3193359 65.5351562L23.3193359 66.6845703C23.3193359 68.4821053 23.6970991 69.8946889 24.4526367 70.9223633 25.2081744 71.9500377 26.2483658 72.4638672 27.5732422 72.4638672 28.9052801 72.4638672 29.9365198 71.9786832 30.6669922 71.0083008 31.3974646 70.0379183 31.7734374 68.646819 31.7949219 66.8349609L31.7949219 65.6748047zM44.4492188 67.8769531L44.4492188 74 42.3867188 74 42.3867188 58.359375 48.1552734 58.359375C49.8668705 58.359375 51.2078402 58.7962196 52.1782227 59.6699219 53.1486051 60.5436242 53.6337891 61.7001881 53.6337891 63.1396484 53.6337891 64.6578852 53.1593472 65.8269816 52.2104492 66.6469727 51.2615512 67.4669637 49.9026781 67.8769531 48.1337891 67.8769531L44.4492188 67.8769531zM44.4492188 66.1904297L48.1552734 66.1904297C49.2581435 66.1904297 50.1031872 65.9308294 50.6904297 65.4116211 51.2776722 64.8924128 51.5712891 64.1422575 51.5712891 63.1611328 51.5712891 62.2301386 51.2776722 61.4853544 50.6904297 60.9267578 50.1031872 60.3681613 49.2975312 60.0781251 48.2734375 60.0566406L44.4492188 60.0566406 44.4492188 66.1904297zM73.6572266 66.6845703C73.6572266 68.1956456 73.4173201 69.4972276 72.9375 70.5893555 72.4576799 71.6814833 71.7845095 72.5354787 70.9179688 73.1513672L73.7109375 75.3427734 72.3037109 76.6425781 69.0058594 74.0214844C68.4902318 74.1503913 67.9459664 74.2148438 67.3730469 74.2148438 66.1412699 74.2148438 65.0491584 73.9122752 64.0966797 73.3071289 63.144201 72.7019827 62.4047878 71.8390356 61.878418 70.7182617 61.3520481 69.5974879 61.0817058 68.2994865 61.0673828 66.8242188L61.0673828 65.6962891C61.0673828 64.1923753 61.3287734 62.8639381 61.8515625 61.7109375 62.3743516 60.5579369 63.1137648 59.675296 64.0698242 59.0629883 65.0258837 58.4506805 66.1197855 58.1445312 67.3515625 58.1445312 68.6119855 58.1445312 69.7202101 58.4488902 70.6762695 59.0576172 71.632329 59.6663442 72.3681615 60.5418237 72.8837891 61.684082 73.3994166 62.8263403 73.6572266 64.1601486 73.6572266 65.6855469L73.6572266 66.6845703zM71.5947266 65.6748047C71.5947266 63.8343007 71.2277055 62.4145558 70.4936523 61.4155273 69.7595992 60.4164989 68.7122464 59.9169922 67.3515625 59.9169922 66.0553321 59.9169922 65.0330441 60.4129182 64.284668 61.4047852 63.5362918 62.3966521 63.1513673 63.7734287 63.1298828 65.5351562L63.1298828 66.6845703C63.1298828 68.4749438 63.5040653 69.885737 64.2524414 70.9169922 65.0008175 71.9482473 66.041009 72.4638672 67.3730469 72.4638672 68.7050848 72.4638672 69.7363245 71.9786832 70.4667969 71.0083008 71.1972693 70.0379183 71.5732421 68.646819 71.5947266 66.8349609L71.5947266 65.6748047zM88.0195312 67.6728516L84.3457031 67.6728516 84.3457031 74 82.2724609 74 82.2724609 58.359375 87.4501953 58.359375C89.2119229 58.359375 90.5672153 58.7604127 91.5161133 59.5625 92.4650113 60.3645873 92.9394531 61.5318934 92.9394531 63.0644531 92.9394531 64.0384163 92.6762722 64.8870407 92.1499023 65.6103516 91.6235325 66.3336625 90.8912807 66.8743472 89.953125 67.2324219L93.6269531 73.8710938 93.6269531 74 91.4140625 74 88.0195312 67.6728516zM84.3457031 65.9863281L87.5146484 65.9863281C88.5387421 65.9863281 89.3533498 65.7213568 89.9584961 65.1914062 90.5636423 64.6614557 90.8662109 63.9524784 90.8662109 63.0644531 90.8662109 62.0976514 90.5779651 61.3564479 90.0014648 60.8408203 89.4249646 60.3251927 88.5924534 60.0638021 87.5039062 60.0566406L84.3457031 60.0566406 84.3457031 65.9863281zM105.883789 67.0283203C104.1149 66.5198542 102.827641 65.8950232 102.021973 65.1538086 101.216305 64.412594 100.813477 63.4977268 100.813477 62.4091797 100.813477 61.1774027 101.305822 60.1586954 102.290527 59.3530273 103.275233 58.5473593 104.555331 58.1445312 106.130859 58.1445312 107.205083 58.1445312 108.162919 58.3522115 109.004395 58.7675781 109.84587 59.1829448 110.497556 59.7558557 110.959473 60.4863281 111.421389 61.2168005 111.652344 62.0152951 111.652344 62.8818359L109.579102 62.8818359C109.579102 61.9365187 109.278323 61.1935248 108.676758 60.652832 108.075192 60.1121392 107.226568 59.8417969 106.130859 59.8417969 105.113927 59.8417969 104.320804 60.0655902 103.751465 60.5131836 103.182126 60.960777 102.897461 61.5820273 102.897461 62.3769531 102.897461 63.0143261 103.167803 63.5532205 103.708496 63.9936523 104.249189 64.4340842 105.169427 64.8369122 106.469238 65.2021484 107.769049 65.5673846 108.785966 65.9702126 109.52002 66.4106445 110.254073 66.8510764 110.798338 67.3649059 111.152832 67.9521484 111.507326 68.539391 111.68457 69.2304648 111.68457 70.0253906 111.68457 71.2929751 111.190435 72.3081017 110.202148 73.0708008 109.213862 73.8334999 107.892586 74.2148438 106.238281 74.2148438 105.164057 74.2148438 104.161463 74.0089539 103.230469 73.597168 102.299475 73.1853821 101.581545 72.6214229 101.07666 71.9052734 100.571775 71.189124 100.319336 70.3763066 100.319336 69.4667969L102.392578 69.4667969C102.392578 70.4121141 102.741696 71.1586887 103.439941 71.706543 104.138187 72.2543973 105.070958 72.5283203 106.238281 72.5283203 107.326828 72.5283203 108.16113 72.3063173 108.741211 71.8623047 109.321292 71.4182921 109.611328 70.8131549 109.611328 70.046875 109.611328 69.2805951 109.342776 68.6879904 108.805664 68.269043 108.268552 67.8500956 107.294603 67.4365255 105.883789 67.0283203zM130.150391 60.0566406L125.123047 60.0566406 125.123047 74 123.071289 74 123.071289 60.0566406 118.054688 60.0566406 118.054688 58.359375 130.150391 58.359375 130.150391 60.0566406zM148.498047 58.359375L148.498047 68.9941406C148.490885 70.4694084 148.027186 71.6761021 147.106934 72.6142578 146.186682 73.5524135 144.93881 74.0787755 143.363281 74.1933594L142.81543 74.2148438C141.103833 74.2148438 139.739588 73.7529343 138.722656 72.8291016 137.705724 71.9052688 137.190104 70.6341227 137.175781 69.015625L137.175781 58.359375 139.216797 58.359375 139.216797 68.9511719C139.216797 70.0826879 139.528317 70.9617482 140.151367 71.5883789 140.774417 72.2150096 141.662429 72.5283203 142.81543 72.5283203 143.982753 72.5283203 144.876136 72.2168 145.495605 71.59375 146.115075 70.9707 146.424805 70.0934301 146.424805 68.9619141L146.424805 58.359375 148.498047 58.359375zM162.376953 71.2607422L166.845703 58.359375 169.101562 58.359375 163.300781 74 161.474609 74 155.68457 58.359375 157.929688 58.359375 162.376953 71.2607422zM180.015625 69.0693359L180.316406 71.1318359 180.756836 69.2734375 183.850586 58.359375 185.59082 58.359375 188.609375 69.2734375 189.039062 71.1640625 189.37207 69.0585938 191.799805 58.359375 193.873047 58.359375 190.081055 74 188.201172 74 184.978516 62.6025391 184.731445 61.4101562 184.484375 62.6025391 181.143555 74 179.263672 74 175.482422 58.359375 177.544922 58.359375 180.015625 69.0693359zM206.709961 64.3535156L210.458984 58.359375 212.886719 58.359375 207.945312 66.1152344 213.004883 74 210.555664 74 206.709961 67.8984375 202.842773 74 200.404297 74 205.474609 66.1152344 200.522461 58.359375 202.939453 58.359375 206.709961 64.3535156zM225.616211 66.2119141L229.698242 58.359375 232.040039 58.359375 226.647461 68.1669922 226.647461 74 224.584961 74 224.584961 68.1669922 219.192383 58.359375 221.555664 58.359375 225.616211 66.2119141zM241.052734 72.3134766L250.000977 72.3134766 250.000977 74 238.614258 74 238.614258 72.453125 247.186523 60.0566406 238.753906 60.0566406 238.753906 58.359375 249.657227 58.359375 249.657227 59.8740234 241.052734 72.3134766zM28.6796875 114C28.5651036 113.770832 28.4720056 113.362633 28.4003906 112.775391 27.4765579 113.735031 26.3737043 114.214844 25.0917969 114.214844 23.9459578 114.214844 23.0060258 113.890791 22.2719727 113.242676 21.5379195 112.594561 21.1708984 111.772791 21.1708984 110.777344 21.1708984 109.567051 21.6310175 108.627119 22.5512695 107.95752 23.4715215 107.28792 24.7659422 106.953125 26.4345703 106.953125L28.3681641 106.953125 28.3681641 106.040039C28.3681641 105.345374 28.1604838 104.792157 27.7451172 104.380371 27.3297505 103.968585 26.717452 103.762695 25.9082031 103.762695 25.1992152 103.762695 24.6048201 103.94173 24.125 104.299805 23.6451799 104.657879 23.4052734 105.091143 23.4052734 105.599609L21.4072266 105.599609C21.4072266 105.019528 21.6131164 104.45915 22.0249023 103.918457 22.4366883 103.377764 22.9952764 102.949871 23.7006836 102.634766 24.4060908 102.31966 25.1813109 102.162109 26.0263672 102.162109 27.3655666 102.162109 28.4147097 102.496904 29.1738281 103.166504 29.9329465 103.836104 30.3268228 104.758132 30.3554688 105.932617L30.3554688 111.282227C30.3554688 112.349289 30.4915351 113.197914 30.7636719 113.828125L30.7636719 114 28.6796875 114zM25.3818359 112.485352C26.0048859 112.485352 26.5957003 112.32422 27.1542969 112.001953 27.7128934 111.679686 28.1175118 111.260745 28.3681641 110.745117L28.3681641 108.360352 26.8105469 108.360352C24.3756389 108.360352 23.1582031 109.07291 23.1582031 110.498047 23.1582031 111.121097 23.3658833 111.608071 23.78125 111.958984 24.1966167 112.309898 24.73014 112.485352 25.3818359 112.485352zM48.7568359 108.317383C48.7568359 110.093433 48.3486369 111.52034 47.5322266 112.598145 46.7158162 113.675949 45.6201241 114.214844 44.2451172 114.214844 42.7770109 114.214844 41.6419311 113.695643 40.8398438 112.657227L40.7431641 114 38.9169922 114 38.9169922 97.5 40.9042969 97.5 40.9042969 103.655273C41.7063842 102.659826 42.8128185 102.162109 44.2236328 102.162109 45.6344472 102.162109 46.7426718 102.695633 47.5483398 103.762695 48.3540079 104.829758 48.7568359 106.290681 48.7568359 108.145508L48.7568359 108.317383zM46.7695312 108.091797C46.7695312 106.738274 46.5081406 105.692712 45.9853516 104.955078 45.4625625 104.217444 44.7106169 103.848633 43.7294922 103.848633 42.4189388 103.848633 41.4772164 104.457351 40.9042969 105.674805L40.9042969 110.702148C41.5130239 111.919602 42.4619076 112.52832 43.7509766 112.52832 44.7034553 112.52832 45.4446588 112.159509 45.9746094 111.421875 46.5045599 110.684241 46.7695312 109.574226 46.7695312 108.091797zM61.3681641 112.592773C62.077152 112.592773 62.6966119 112.377932 63.2265625 111.948242 63.7565131 111.518553 64.0501299 110.981449 64.1074219 110.336914L65.9873047 110.336914C65.9514972 111.002933 65.7223328 111.636716 65.2998047 112.238281 64.8772765 112.839847 64.3133173 113.31966 63.6079102 113.677734 62.902503 114.035809 62.1559284 114.214844 61.3681641 114.214844 59.7854739 114.214844 58.5268601 113.686691 57.5922852 112.630371 56.6577102 111.574051 56.1904297 110.129241 56.1904297 108.295898L56.1904297 107.962891C56.1904297 106.831375 56.3981099 105.8252 56.8134766 104.944336 57.2288432 104.063472 57.8250287 103.37956 58.6020508 102.892578 59.3790729 102.405597 60.2975207 102.162109 61.3574219 102.162109 62.6608138 102.162109 63.7439735 102.552405 64.6069336 103.333008 65.4698936 104.113611 65.9300127 105.126947 65.9873047 106.373047L64.1074219 106.373047C64.0501299 105.62109 63.7654648 105.00342 63.253418 104.52002 62.7413711 104.036619 62.1093788 103.794922 61.3574219 103.794922 60.3476512 103.794922 59.5652697 104.158362 59.0102539 104.885254 58.4552381 105.612146 58.1777344 106.663079 58.1777344 108.038086L58.1777344 108.414062C58.1777344 109.753262 58.4534478 110.784502 59.0048828 111.507812 59.5563179 112.231123 60.3440704 112.592773 61.3681641 112.592773zM73.1845703 108.091797C73.1845703 106.308585 73.6070921 104.874517 74.4521484 103.789551 75.2972047 102.704584 76.403639 102.162109 77.7714844 102.162109 79.1321683 102.162109 80.209957 102.6276 81.0048828 103.558594L81.0048828 97.5 82.9921875 97.5 82.9921875 114 81.1660156 114 81.0693359 112.753906C80.2744101 113.727869 79.1679758 114.214844 77.75 114.214844 76.4036391 114.214844 75.3061566 113.663417 74.4575195 112.560547 73.6088825 111.457677 73.1845703 110.018238 73.1845703 108.242188L73.1845703 108.091797zM75.171875 108.317383C75.171875 109.635098 75.4440077 110.666337 75.9882812 111.411133 76.5325548 112.155928 77.2845004 112.52832 78.2441406 112.52832 79.5045636 112.52832 80.4248018 111.962571 81.0048828 110.831055L81.0048828 105.492188C80.4104788 104.396479 79.497402 103.848633 78.265625 103.848633 77.2916618 103.848633 76.5325548 104.224606 75.9882812 104.976562 75.4440077 105.728519 75.171875 106.842115 75.171875 108.317383zM96.3447266 114.214844C94.7691979 114.214844 93.4873096 113.697434 92.4990234 112.662598 91.5107372 111.627762 91.0166016 110.243824 91.0166016 108.510742L91.0166016 108.145508C91.0166016 106.992507 91.2368142 105.963058 91.6772461 105.057129 92.117678 104.1512 92.7335572 103.442223 93.5249023 102.930176 94.3162474 102.418129 95.1738235 102.162109 96.0976563 102.162109 97.6087315 102.162109 98.7831989 102.659826 99.6210938 103.655273 100.458989 104.650721 100.87793 106.075837 100.87793 107.930664L100.87793 108.757812 93.0039063 108.757812C93.0325522 109.903652 93.3673471 110.829261 94.0083008 111.534668 94.6492545 112.240075 95.4638622 112.592773 96.4521484 112.592773 97.1539749 112.592773 97.74837 112.449546 98.2353516 112.163086 98.7223332 111.876626 99.1484357 111.497073 99.5136719 111.024414L100.727539 111.969727C99.7535759 113.466479 98.292653 114.214844 96.3447266 114.214844zM96.0976563 103.794922C95.2955689 103.794922 94.6223986 104.086748 94.078125 104.67041 93.5338514 105.254072 93.1972663 106.07226 93.0683594 107.125L98.890625 107.125 98.890625 106.974609C98.833333 105.964839 98.5612004 105.182457 98.0742188 104.627441 97.5872371 104.072426 96.9283896 103.794922 96.0976563 103.794922zM109.600586 114L109.600586 103.913086 107.763672 103.913086 107.763672 102.376953 109.600586 102.376953 109.600586 101.18457C109.600586 99.9384703 109.93359 98.9752638 110.599609 98.2949219 111.265628 97.6145799 112.207351 97.2744141 113.424805 97.2744141 113.88314 97.2744141 114.337888 97.3352858 114.789063 97.4570312L114.681641 99.0683594C114.34505 99.0039059 113.986981 98.9716797 113.607422 98.9716797 112.962887 98.9716797 112.465171 99.1596661 112.114258 99.5356445 111.763345 99.911623 111.587891 100.450517 111.587891 101.152344L111.587891 102.376953 114.069336 102.376953 114.069336 103.913086 111.587891 103.913086 111.587891 114 109.600586 114zM121.234375 108.091797C121.234375 106.279939 121.653316 104.83871 122.491211 103.768066 123.329106 102.697423 124.439121 102.162109 125.821289 102.162109 127.239265 102.162109 128.345699 102.663406 129.140625 103.666016L129.237305 102.376953 131.052734 102.376953 131.052734 113.720703C131.052734 115.224617 130.606938 116.409826 129.715332 117.276367 128.823726 118.142908 127.625984 118.576172 126.12207 118.576172 125.284175 118.576172 124.464197 118.397137 123.662109 118.039062 122.860022 117.680988 122.247723 117.190433 121.825195 116.567383L122.856445 115.375C123.708663 116.42774 124.750645 116.954102 125.982422 116.954102 126.949224 116.954102 127.70296 116.681969 128.243652 116.137695 128.784345 115.593422 129.054688 114.827153 129.054688 113.838867L129.054688 112.839844C128.259762 113.756515 127.174812 114.214844 125.799805 114.214844 124.439121 114.214844 123.338058 113.666998 122.496582 112.571289 121.655106 111.47558 121.234375 109.982431 121.234375 108.091797zM123.232422 108.317383C123.232422 109.627936 123.500974 110.657386 124.038086 111.405762 124.575198 112.154138 125.327144 112.52832 126.293945 112.52832 127.547207 112.52832 128.467445 111.95899 129.054688 110.820312L129.054688 105.513672C128.44596 104.40364 127.532884 103.848633 126.31543 103.848633 125.348628 103.848633 124.593102 104.224606 124.048828 104.976562 123.504555 105.728519 123.232422 106.842115 123.232422 108.317383zM141.483398 103.78418C142.364262 102.702794 143.510084 102.162109 144.920898 102.162109 147.377291 102.162109 148.616211 103.547838 148.637695 106.319336L148.637695 114 146.650391 114 146.650391 106.308594C146.643229 105.470699 146.451662 104.851239 146.075684 104.450195 145.699705 104.049152 145.114262 103.848633 144.319336 103.848633 143.674801 103.848633 143.109052 104.020506 142.62207 104.364258 142.135089 104.70801 141.755535 105.159177 141.483398 105.717773L141.483398 114 139.496094 114 139.496094 97.5 141.483398 97.5 141.483398 103.78418zM159.21875 114L157.231445 114 157.231445 102.376953 159.21875 102.376953 159.21875 114zM157.070312 99.2939453C157.070312 98.9716781 157.168782 98.6995454 157.365723 98.4775391 157.562664 98.2555327 157.85449 98.1445312 158.241211 98.1445312 158.627932 98.1445312 158.921548 98.2555327 159.12207 98.4775391 159.322592 98.6995454 159.422852 98.9716781 159.422852 99.2939453 159.422852 99.6162125 159.322592 99.8847646 159.12207 100.099609 158.921548 100.314454 158.627932 100.421875 158.241211 100.421875 157.85449 100.421875 157.562664 100.314454 157.365723 100.099609 157.168782 99.8847646 157.070312 99.6162125 157.070312 99.2939453zM169.896484 102.376953L169.896484 115.342773C169.896484 117.57716 168.883148 118.694336 166.856445 118.694336 166.419594 118.694336 166.014976 118.629883 165.642578 118.500977L165.642578 116.911133C165.871746 116.968425 166.172524 116.99707 166.544922 116.99707 166.988935 116.99707 167.32731 116.877117 167.560059 116.637207 167.792807 116.397297 167.90918 115.980146 167.90918 115.385742L167.90918 102.376953 169.896484 102.376953zM167.705078 99.2939453C167.705078 98.9788396 167.803547 98.7084972 168.000488 98.4829102 168.197429 98.2573231 168.485675 98.1445312 168.865234 98.1445312 169.251955 98.1445312 169.545572 98.2555327 169.746094 98.4775391 169.946616 98.6995454 170.046875 98.9716781 170.046875 99.2939453 170.046875 99.6162125 169.946616 99.8847646 169.746094 100.099609 169.545572 100.314454 169.251955 100.421875 168.865234 100.421875 168.478514 100.421875 168.188478 100.314454 167.995117 100.099609 167.801757 99.8847646 167.705078 99.6162125 167.705078 99.2939453zM181.788086 108.618164L180.541992 109.917969 180.541992 114 178.554688 114 178.554688 97.5 180.541992 97.5 180.541992 107.479492 181.605469 106.201172 185.225586 102.376953 187.642578 102.376953 183.120117 107.232422 188.168945 114 185.837891 114 181.788086 108.618164zM197.299805 114L195.3125 114 195.3125 97.5 197.299805 97.5 197.299805 114zM207.794922 102.376953L207.848633 103.666016C208.700851 102.663406 209.850253 102.162109 211.296875 102.162109 212.922534 102.162109 214.028968 102.78515 214.616211 104.03125 215.002932 103.472653 215.506019 103.021486 216.125488 102.677734 216.744958 102.333983 217.477209 102.162109 218.322266 102.162109 220.871758 102.162109 222.167969 103.512031 222.210938 106.211914L222.210938 114 220.223633 114 220.223633 106.330078C220.223633 105.499345 220.033856 104.878095 219.654297 104.466309 219.274738 104.054523 218.637374 103.848633 217.742188 103.848633 217.004554 103.848633 216.392255 104.068845 215.905273 104.509277 215.418292 104.949709 215.135417 105.542314 215.056641 106.287109L215.056641 114 213.058594 114 213.058594 106.383789C213.058594 104.693676 212.231454 103.848633 210.577148 103.848633 209.273757 103.848633 208.382164 104.40364 207.902344 105.513672L207.902344 114 205.915039 114 205.915039 102.376953 207.794922 102.376953zM232.53418 102.376953L232.598633 103.837891C233.486658 102.720698 234.646803 102.162109 236.079102 102.162109 238.535494 102.162109 239.774414 103.547838 239.795898 106.319336L239.795898 114 237.808594 114 237.808594 106.308594C237.801432 105.470699 237.609865 104.851239 237.233887 104.450195 236.857908 104.049152 236.272465 103.848633 235.477539 103.848633 234.833005 103.848633 234.267255 104.020506 233.780273 104.364258 233.293292 104.70801 232.913738 105.159177 232.641602 105.717773L232.641602 114 230.654297 114 230.654297 102.376953 232.53418 102.376953zM247.712891 108.081055C247.712891 106.942377 247.936684 105.918299 248.384277 105.008789 248.831871 104.099279 249.454911 103.397463 250.253418 102.90332 251.051925 102.409177 251.963211 102.162109 252.987305 102.162109 254.569995 102.162109 255.850093 102.709955 256.827637 103.805664 257.805181 104.901373 258.293945 106.358715 258.293945 108.177734L258.293945 108.317383C258.293945 109.448899 258.077313 110.464025 257.644043 111.362793 257.210773 112.26156 256.591313 112.961586 255.785645 113.462891 254.979976 113.964195 254.054367 114.214844 253.008789 114.214844 251.43326 114.214844 250.156743 113.666998 249.179199 112.571289 248.201655 111.47558 247.712891 110.0254 247.712891 108.220703L247.712891 108.081055zM249.710938 108.317383C249.710938 109.606452 250.009925 110.641272 250.60791 111.421875 251.205895 112.202478 252.00618 112.592773 253.008789 112.592773 254.01856 112.592773 254.820635 112.197107 255.415039 111.405762 256.009443 110.614417 256.306641 109.506192 256.306641 108.081055 256.306641 106.806309 256.004072 105.773279 255.398926 104.981934 254.79378 104.190588 253.989914 103.794922 252.987305 103.794922 252.00618 103.794922 251.214847 104.185217 250.613281 104.96582 250.011716 105.746423 249.710938 106.8636 249.710938 108.317383zM276.050781 108.317383C276.050781 110.086272 275.646163 111.511388 274.836914 112.592773 274.027665 113.674159 272.931973 114.214844 271.549805 114.214844 270.13899 114.214844 269.028975 113.767257 268.219727 112.87207L268.219727 118.46875 266.232422 118.46875 266.232422 102.376953 268.047852 102.376953 268.144531 103.666016C268.95378 102.663406 270.078118 102.162109 271.517578 102.162109 272.914069 102.162109 274.018713 102.688471 274.831543 103.741211 275.644373 104.793951 276.050781 106.258454 276.050781 108.134766L276.050781 108.317383zM274.063477 108.091797C274.063477 106.781243 273.784182 105.746423 273.225586 104.987305 272.666989 104.228186 271.900721 103.848633 270.926758 103.848633 269.723627 103.848633 268.821292 104.382156 268.219727 105.449219L268.219727 111.00293C268.814131 112.062831 269.723627 112.592773 270.948242 112.592773 271.900721 112.592773 272.658038 112.21501 273.220215 111.459473 273.782392 110.703935 274.063477 109.581388 274.063477 108.091797zM21.0205078 138.091797C21.0205078 136.265616 21.4394489 134.820806 22.2773438 133.757324 23.1152386 132.693842 24.2395763 132.162109 25.6503906 132.162109 27.0253975 132.162109 28.1103476 132.624019 28.9052734 133.547852L28.9912109 132.376953 30.8173828 132.376953 30.8173828 148.46875 28.8300781 148.46875 28.8300781 142.925781C28.0279908 143.785161 26.9609442 144.214844 25.6289062 144.214844 24.2252534 144.214844 23.1062867 143.668788 22.2719727 142.57666 21.4376586 141.484532 21.0205078 140.036142 21.0205078 138.231445L21.0205078 138.091797zM23.0078125 138.317383C23.0078125 139.649421 23.2888969 140.694983 23.8510742 141.454102 24.4132515 142.21322 25.1705682 142.592773 26.1230469 142.592773 27.3046934 142.592773 28.2070281 142.069992 28.8300781 141.024414L28.8300781 135.331055C28.1998666 134.306961 27.3046933 133.794922 26.1445312 133.794922 25.184891 133.794922 24.4222033 134.176266 23.8564453 134.938965 23.2906873 135.701664 23.0078125 136.827792 23.0078125 138.317383zM45.0722656 134.160156C44.7714829 134.110026 44.4456398 134.084961 44.0947266 134.084961 42.7913346 134.084961 41.9069034 134.639968 41.4414062 135.75L41.4414062 144 39.4541016 144 39.4541016 132.376953 41.3876953 132.376953 41.4199219 133.719727C42.0716178 132.68131 42.9954367 132.162109 44.1914062 132.162109 44.5781269 132.162109 44.8717438 132.212239 45.0722656 132.3125L45.0722656 134.160156zM59.1123047 140.916992C59.1123047 140.37988 58.9099955 139.962729 58.5053711 139.665527 58.1007467 139.368325 57.3953501 139.112306 56.3891602 138.897461 55.3829702 138.682616 54.5844756 138.424806 53.9936523 138.124023 53.4028291 137.823241 52.9659845 137.465171 52.6831055 137.049805 52.4002265 136.634438 52.2587891 136.140302 52.2587891 135.567383 52.2587891 134.614904 52.6616171 133.809248 53.4672852 133.150391 54.2729532 132.491533 55.3024026 132.162109 56.5556641 132.162109 57.873379 132.162109 58.942216 132.502275 59.762207 133.182617 60.5821981 133.862959 60.9921875 134.733068 60.9921875 135.792969L58.9941406 135.792969C58.9941406 135.248695 58.7631859 134.779624 58.3012695 134.385742 57.8393532 133.99186 57.2574905 133.794922 56.5556641 133.794922 55.8323532 133.794922 55.2666036 133.952472 54.8583984 134.267578 54.4501933 134.582684 54.2460938 134.994464 54.2460938 135.50293 54.2460938 135.98275 54.4358705 136.3444 54.8154297 136.587891 55.1949889 136.831381 55.8806917 137.064126 56.8725586 137.286133 57.8644255 137.508139 58.6682912 137.77311 59.2841797 138.081055 59.9000682 138.388999 60.3566066 138.759601 60.6538086 139.192871 60.9510106 139.626141 61.0996094 140.154294 61.0996094 140.777344 61.0996094 141.81576 60.6842489 142.648272 59.8535156 143.274902 59.0227823 143.901533 57.9449936 144.214844 56.6201172 144.214844 55.6891229 144.214844 54.8655635 144.050132 54.1494141 143.720703 53.4332646 143.391274 52.8728861 142.931155 52.4682617 142.340332 52.0636373 141.749509 51.8613281 141.110355 51.8613281 140.422852L53.8486328 140.422852C53.8844403 141.088871 54.1512019 141.617023 54.6489258 142.007324 55.1466496 142.397626 55.8037069 142.592773 56.6201172 142.592773 57.3720741 142.592773 57.9754209 142.440594 58.4301758 142.13623 58.8849307 141.831867 59.1123047 141.425458 59.1123047 140.916992zM71.8310547 129.5625L71.8310547 132.376953 74.0009766 132.376953 74.0009766 133.913086 71.8310547 133.913086 71.8310547 141.121094C71.8310547 141.586591 71.9277334 141.935708 72.1210938 142.168457 72.3144541 142.401206 72.6438779 142.517578 73.109375 142.517578 73.3385428 142.517578 73.6536438 142.47461 74.0546875 142.388672L74.0546875 144C73.5318984 144.14323 73.02344 144.214844 72.5292969 144.214844 71.6412716 144.214844 70.9716819 143.946292 70.5205078 143.40918 70.0693337 142.872068 69.84375 142.10938 69.84375 141.121094L69.84375 133.913086 67.7275391 133.913086 67.7275391 132.376953 69.84375 132.376953 69.84375 129.5625 71.8310547 129.5625zM88.9433594 142.850586C88.169918 143.760096 87.0348382 144.214844 85.5380859 144.214844 84.2991475 144.214844 83.3556348 143.854984 82.7075195 143.135254 82.0594043 142.415524 81.7317709 141.350267 81.7246094 139.939453L81.7246094 132.376953 83.7119141 132.376953 83.7119141 139.885742C83.7119141 141.64747 84.4280527 142.52832 85.8603516 142.52832 87.3785883 142.52832 88.3883438 141.962571 88.8896484 140.831055L88.8896484 132.376953 90.8769531 132.376953 90.8769531 144 88.9863281 144 88.9433594 142.850586zM103.176758 141.303711L106.055664 132.376953 108.085938 132.376953 103.917969 144 102.40332 144 98.1923828 132.376953 100.222656 132.376953 103.176758 141.303711zM125.735352 141.260742L127.969727 132.376953 129.957031 132.376953 126.573242 144 124.961914 144 122.136719 135.191406 119.386719 144 117.775391 144 114.402344 132.376953 116.378906 132.376953 118.666992 141.078125 121.374023 132.376953 122.974609 132.376953 125.735352 141.260742zM141.322266 136.620117L143.900391 132.376953 146.220703 132.376953 142.417969 138.124023 146.338867 144 144.040039 144 141.354492 139.649414 138.668945 144 136.359375 144 140.280273 138.124023 136.477539 132.376953 138.776367 132.376953 141.322266 136.620117zM157.575195 141.088867L160.282227 132.376953 162.40918 132.376953 157.736328 145.793945C157.013017 147.727549 155.863615 148.694336 154.288086 148.694336L153.912109 148.662109 153.170898 148.522461 153.170898 146.911133 153.708008 146.954102C154.381188 146.954102 154.90576 146.818035 155.281738 146.545898 155.657717 146.273762 155.967447 145.776045 156.210938 145.052734L156.651367 143.871094 152.504883 132.376953 154.674805 132.376953 157.575195 141.088867zM171.49707 142.37793L178.296875 142.37793 178.296875 144 169.069336 144 169.069336 142.539062 175.482422 134.020508 169.166016 134.020508 169.166016 132.376953 177.974609 132.376953 177.974609 133.78418 171.49707 142.37793zM27.8310547 182L25.8330078 182 25.8330078 168.754883 21.8261719 170.226562 21.8261719 168.421875 27.5195312 166.28418 27.8310547 166.28418 27.8310547 182zM49.3476562 182L39.0996094 182 39.0996094 180.571289 44.5136719 174.555664C45.3157592 173.646154 45.8689763 172.906741 46.1733398 172.337402 46.4777033 171.768064 46.6298828 171.17904 46.6298828 170.570312 46.6298828 169.753902 46.382815 169.084313 45.8886719 168.561523 45.3945288 168.038734 44.7356812 167.777344 43.9121094 167.777344 42.9238232 167.777344 42.1557645 168.058428 41.6079102 168.620605 41.0600559 169.182783 40.7861328 169.965164 40.7861328 170.967773L38.7988281 170.967773C38.7988281 169.528313 39.2625279 168.364588 40.1899414 167.476562 41.1173549 166.588537 42.3580651 166.144531 43.9121094 166.144531 45.3658927 166.144531 46.5152953 166.525875 47.3603516 167.288574 48.2054079 168.051273 48.6279297 169.0664 48.6279297 170.333984 48.6279297 171.873706 47.6468197 173.707021 45.6845703 175.833984L41.4951172 180.37793 49.3476562 180.37793 49.3476562 182zM59.7890625 173.212891L61.2822266 173.212891C62.2203823 173.198568 62.9580051 172.9515 63.4951172 172.47168 64.0322292 171.99186 64.3007812 171.343754 64.3007812 170.527344 64.3007812 168.694001 63.3877044 167.777344 61.5615234 167.777344 60.7021441 167.777344 60.0164414 168.022621 59.5043945 168.513184 58.9923477 169.003746 58.7363281 169.653642 58.7363281 170.462891L56.7490234 170.462891C56.7490234 169.223952 57.2019811 168.194503 58.1079102 167.374512 59.0138392 166.554521 60.1650321 166.144531 61.5615234 166.144531 63.0367912 166.144531 64.1933552 166.534827 65.03125 167.31543 65.8691448 168.096033 66.2880859 169.180983 66.2880859 170.570312 66.2880859 171.250654 66.0678733 171.909502 65.6274414 172.546875 65.1870095 173.184248 64.5872434 173.66048 63.828125 173.975586 64.6875043 174.247723 65.3517229 174.69889 65.8208008 175.329102 66.2898786 175.959313 66.5244141 176.729162 66.5244141 177.638672 66.5244141 179.042325 66.0660853 180.15592 65.1494141 180.979492 64.2327428 181.803064 63.0403719 182.214844 61.5722656 182.214844 60.1041593 182.214844 58.9099981 181.817387 57.9897461 181.022461 57.0694941 180.227535 56.609375 179.178392 56.609375 177.875L58.6074219 177.875C58.6074219 178.698572 58.8759739 179.357419 59.4130859 179.851562 59.950198 180.345706 60.6699174 180.592773 61.5722656 180.592773 62.5319058 180.592773 63.265948 180.342125 63.7744141 179.84082 64.2828801 179.339516 64.5371094 178.619796 64.5371094 177.681641 64.5371094 176.772131 64.2578153 176.073896 63.6992188 175.586914 63.1406222 175.099932 62.3349662 174.849284 61.2822266 174.834961L59.7890625 174.834961 59.7890625 173.212891zM83.0888672 176.74707L85.2587891 176.74707 85.2587891 178.369141 83.0888672 178.369141 83.0888672 182 81.0908203 182 81.0908203 178.369141 73.96875 178.369141 73.96875 177.198242 80.9726562 166.359375 83.0888672 166.359375 83.0888672 176.74707zM76.2246094 176.74707L81.0908203 176.74707 81.0908203 169.077148 80.8544922 169.506836 76.2246094 176.74707zM93.4121094 174.158203L94.2070312 166.359375 102.220703 166.359375 102.220703 168.196289 95.8935547 168.196289 95.4208984 172.460938C96.1871783 172.009763 97.0572868 171.78418 98.03125 171.78418 99.4563873 171.78418 100.587886 172.255041 101.425781 173.196777 102.263676 174.138514 102.682617 175.41145 102.682617 177.015625 102.682617 178.626961 102.247563 179.896317 101.377441 180.82373 100.50732 181.751144 99.2916745 182.214844 97.7304688 182.214844 96.3483004 182.214844 95.220382 181.83171 94.3466797 181.06543 93.4729774 180.29915 92.975261 179.239265 92.8535156 177.885742L94.7333984 177.885742C94.8551438 178.780929 95.1738255 179.45589 95.6894531 179.910645 96.2050807 180.365399 96.8854124 180.592773 97.7304688 180.592773 98.6543015 180.592773 99.3793919 180.277672 99.9057617 179.647461 100.432132 179.017249 100.695312 178.147141 100.695312 177.037109 100.695312 175.991531 100.410647 175.151859 99.8413086 174.518066 99.2719698 173.884274 98.5146532 173.567383 97.5693359 173.567383 96.7027951 173.567383 96.0224634 173.75716 95.5283203 174.136719L95.0019531 174.566406 93.4121094 174.158203zM118.097656 166.348633L118.097656 168.035156 117.732422 168.035156C116.185539 168.063802 114.953781 168.522131 114.037109 169.410156 113.120438 170.298182 112.590496 171.547844 112.447266 173.15918 113.270837 172.213862 114.395175 171.741211 115.820312 171.741211 117.180996 171.741211 118.267737 172.221024 119.080566 173.180664 119.893396 174.140304 120.299805 175.379224 120.299805 176.897461 120.299805 178.508797 119.86117 179.797847 118.983887 180.764648 118.106604 181.73145 116.930346 182.214844 115.455078 182.214844 113.958326 182.214844 112.744471 181.640142 111.813477 180.490723 110.882482 179.341303 110.416992 177.860686 110.416992 176.048828L110.416992 175.286133C110.416992 172.407212 111.031081 170.206876 112.259277 168.685059 113.487474 167.163241 115.315418 166.38444 117.743164 166.348633L118.097656 166.348633zM115.487305 173.395508C114.806963 173.395508 114.180341 173.599607 113.607422 174.007812 113.034502 174.416018 112.637045 174.928057 112.415039 175.543945L112.415039 176.274414C112.415039 177.563483 112.705075 178.601884 113.285156 179.389648 113.865237 180.177413 114.588537 180.571289 115.455078 180.571289 116.350265 180.571289 117.053871 180.241865 117.565918 179.583008 118.077965 178.92415 118.333984 178.061203 118.333984 176.994141 118.333984 175.919917 118.074384 175.051598 117.555176 174.38916 117.035967 173.726722 116.346684 173.395508 115.487305 173.395508zM138.196289 167.476562L131.71875 182 129.634766 182 136.09082 167.992188 127.625977 167.992188 127.625977 166.359375 138.196289 166.359375 138.196289 167.476562zM155.383789 170.441406C155.383789 171.222009 155.177899 171.916664 154.766113 172.525391 154.354327 173.134118 153.79753 173.61035 153.095703 173.954102 153.912113 174.305015 154.558429 174.817054 155.034668 175.490234 155.510907 176.163415 155.749023 176.926103 155.749023 177.77832 155.749023 179.131843 155.292485 180.209631 154.379395 181.011719 153.466304 181.813806 152.264981 182.214844 150.775391 182.214844 149.271477 182.214844 148.066574 181.812016 147.160645 181.006348 146.254716 180.20068 145.801758 179.124681 145.801758 177.77832 145.801758 176.933264 146.032713 176.170576 146.494629 175.490234 146.956545 174.809892 147.595699 174.294273 148.412109 173.943359 147.717444 173.599608 147.169598 173.123375 146.768555 172.514648 146.367511 171.905921 146.166992 171.214848 146.166992 170.441406 146.166992 169.123691 146.589514 168.078129 147.43457 167.304688 148.279627 166.531246 149.393222 166.144531 150.775391 166.144531 152.150397 166.144531 153.262203 166.531246 154.11084 167.304688 154.959477 168.078129 155.383789 169.123691 155.383789 170.441406zM153.761719 177.735352C153.761719 176.861649 153.484215 176.149091 152.929199 175.597656 152.374183 175.046221 151.649093 174.770508 150.753906 174.770508 149.858719 174.770508 149.14079 175.042641 148.600098 175.586914 148.059405 176.131188 147.789062 176.847326 147.789062 177.735352 147.789062 178.623377 148.052243 179.321612 148.578613 179.830078 149.104983 180.338544 149.837235 180.592773 150.775391 180.592773 151.706385 180.592773 152.436846 180.336754 152.966797 179.824707 153.496747 179.31266 153.761719 178.616215 153.761719 177.735352zM150.775391 167.777344C149.994788 167.777344 149.362795 168.019041 148.879395 168.502441 148.395994 168.985842 148.154297 169.642899 148.154297 170.473633 148.154297 171.268559 148.392413 171.911293 148.868652 172.401855 149.344892 172.892418 149.980465 173.137695 150.775391 173.137695 151.570316 173.137695 152.20589 172.892418 152.682129 172.401855 153.158368 171.911293 153.396484 171.268559 153.396484 170.473633 153.396484 169.678707 153.149417 169.030601 152.655273 168.529297 152.16113 168.027992 151.534509 167.777344 150.775391 167.777344zM171.314453 175.125C170.899086 175.619143 170.40316 176.0166 169.82666 176.317383 169.25016 176.618166 168.618167 176.768555 167.930664 176.768555 167.028316 176.768555 166.242354 176.546552 165.572754 176.102539 164.903154 175.658526 164.385744 175.033695 164.020508 174.228027 163.655272 173.422359 163.472656 172.532557 163.472656 171.558594 163.472656 170.513016 163.671385 169.571293 164.068848 168.733398 164.466311 167.895504 165.03027 167.25456 165.760742 166.810547 166.491215 166.366534 167.34342 166.144531 168.317383 166.144531 169.864266 166.144531 171.083492 166.722813 171.975098 167.879395 172.866704 169.035976 173.3125 170.613271 173.3125 172.611328L173.3125 173.191406C173.3125 176.235041 172.710944 178.456861 171.507812 179.856934 170.304681 181.257006 168.48927 181.974935 166.061523 182.010742L165.674805 182.010742 165.674805 180.334961 166.09375 180.334961C167.733732 180.306315 168.994136 179.878422 169.875 179.05127 170.755864 178.224117 171.235677 176.915374 171.314453 175.125zM168.25293 175.125C168.918949 175.125 169.533038 174.9209 170.095215 174.512695 170.657392 174.10449 171.067382 173.599612 171.325195 172.998047L171.325195 172.203125C171.325195 170.899733 171.042321 169.839848 170.476562 169.023438 169.910804 168.207027 169.194666 167.798828 168.328125 167.798828 167.454423 167.798828 166.752607 168.133623 166.222656 168.803223 165.692706 169.472822 165.427734 170.355463 165.427734 171.451172 165.427734 172.518235 165.683754 173.397295 166.195801 174.088379 166.707848 174.779463 167.39355 175.125 168.25293 175.125zM191.305664 175.329102C191.305664 177.656587 190.908207 179.386062 190.113281 180.517578 189.318355 181.649094 188.075855 182.214844 186.385742 182.214844 184.717114 182.214844 183.481775 181.661627 182.679688 180.555176 181.8776 179.448725 181.46224 177.796235 181.433594 175.597656L181.433594 172.944336C181.433594 170.645496 181.831051 168.937506 182.625977 167.820312 183.420902 166.703119 184.666984 166.144531 186.364258 166.144531 188.047209 166.144531 189.286129 166.683426 190.081055 167.76123 190.875981 168.839035 191.28418 170.502267 191.305664 172.750977L191.305664 175.329102zM189.318359 172.611328C189.318359 170.928377 189.082034 169.70199 188.609375 168.932129 188.136716 168.162268 187.388351 167.777344 186.364258 167.777344 185.347326 167.777344 184.606122 168.160478 184.140625 168.926758 183.675128 169.693038 183.435221 170.871086 183.420898 172.460938L183.420898 175.640625C183.420898 177.330738 183.666176 178.578609 184.156738 179.384277 184.647301 180.189945 185.390295 180.592773 186.385742 180.592773 187.366867 180.592773 188.095538 180.21322 188.571777 179.454102 189.048017 178.694983 189.296875 177.499032 189.318359 175.866211L189.318359 172.611328z"/>
  </g>
</svg>
