<svg xmlns="http://www.w3.org/2000/svg" width="400" height="400" style="background:#f2f3f5" viewBox="0 0 400 400">
  <g fill="none" fill-rule="evenodd" transform="translate(97 63)">
    <path fill="#0C0C0D" d="M57.9731329 218.23C58.1118003 218.403334 58.2872985 218.630832 58.4996329 218.9125 58.7119673 219.194168 58.9307985 219.506165 59.1561329 219.8485 59.3814674 220.190835 59.6046318 220.548331 59.8256329 220.921 60.046634 221.293669 60.2351321 221.653332 60.3911329 222L59.0131329 222C58.8397987 221.670665 58.6513006 221.337002 58.4476329 220.999 58.2439652 220.660998 58.038134 220.338168 57.8301329 220.0305 57.6221319 219.722832 57.4163006 219.434668 57.2126329 219.166 57.0089652 218.897332 56.8248004 218.663334 56.6601329 218.464 56.5474657 218.472667 56.4326335 218.477 56.3156329 218.477L54.8271329 218.477 54.8271329 222 53.5661329 222 53.5661329 213.121C53.921468 213.034333 54.3179641 212.975833 54.7556329 212.9455 55.1933018 212.915167 55.5941311 212.9 55.9581329 212.9 57.2234726 212.9 58.1876296 213.138331 58.8506329 213.615 59.5136362 214.091669 59.8451329 214.802329 59.8451329 215.747 59.8451329 216.345003 59.6869678 216.856331 59.3706329 217.281 59.054298 217.705669 58.5884693 218.021999 57.9731329 218.23zM56.0621329 214.005C55.5247969 214.005 55.1131344 214.018 54.8271329 214.044L54.8271329 217.437 55.7241329 217.437C56.1574684 217.437 56.5474645 217.415334 56.8941329 217.372 57.2408013 217.328666 57.5332984 217.246334 57.7716329 217.125 58.0099675 217.003666 58.1941323 216.832501 58.3241329 216.6115 58.4541336 216.390499 58.5191329 216.098002 58.5191329 215.734 58.5191329 215.395998 58.4541336 215.114334 58.3241329 214.889 58.1941323 214.663666 58.018634 214.486001 57.7976329 214.356 57.5766318 214.225999 57.3166344 214.135 57.0176329 214.083 56.7186314 214.031 56.4001346 214.005 56.0621329 214.005zM61.2881329 218.633C61.2881329 218.034997 61.3747987 217.512836 61.5481329 217.0665 61.7214671 216.620164 61.9511315 216.249668 62.2371329 215.955 62.5231344 215.660332 62.8524644 215.439334 63.2251329 215.292 63.5978015 215.144666 63.979131 215.071 64.3691329 215.071 65.2791375 215.071 65.9767972 215.35483 66.4621329 215.9225 66.9474687 216.49017 67.1901329 217.354661 67.1901329 218.516L67.1901329 218.7175C67.1901329 218.799834 67.1857996 218.875666 67.1771329 218.945L62.5491329 218.945C62.6011332 219.647004 62.8047978 220.179998 63.1601329 220.544 63.515468 220.908002 64.0701292 221.09 64.8241329 221.09 65.2488017 221.09 65.6062981 221.053167 65.8966329 220.9795 66.1869677 220.905833 66.4057989 220.834334 66.5531329 220.765L66.7221329 221.779C66.5747989 221.857 66.3169681 221.939333 65.9486329 222.026 65.5802978 222.112667 65.1621353 222.156 64.6941329 222.156 64.1047966 222.156 63.5956351 222.067168 63.1666329 221.8895 62.7376308 221.711832 62.3844676 221.467002 62.1071329 221.155 61.8297982 220.842998 61.6239669 220.472502 61.4896329 220.0435 61.3552989 219.614498 61.2881329 219.144336 61.2881329 218.633zM65.9291329 217.97C65.9377996 217.423997 65.801301 216.975502 65.5196329 216.6245 65.2379649 216.273498 64.8501354 216.098 64.3561329 216.098 64.0787982 216.098 63.8339673 216.152166 63.6216329 216.2605 63.4092985 216.368834 63.229467 216.509666 63.0821329 216.683 62.9347989 216.856334 62.8199667 217.055666 62.7376329 217.281 62.6552992 217.506334 62.6011331 217.735999 62.5751329 217.97L65.9291329 217.97zM73.1701329 221.324C73.0661324 221.393334 72.8646344 221.482166 72.5656329 221.5905 72.2666314 221.698834 71.9178016 221.753 71.5191329 221.753 71.1117976 221.753 70.7283014 221.688001 70.3686329 221.558 70.0089645 221.427999 69.6948009 221.226501 69.4261329 220.9535 69.1574649 220.680499 68.9451337 220.340335 68.7891329 219.933 68.6331321 219.525665 68.5551329 219.040336 68.5551329 218.477 68.5551329 217.982998 68.6287989 217.530169 68.7761329 217.1185 68.923467 216.706831 69.1379649 216.351501 69.4196329 216.0525 69.701301 215.753499 70.0457976 215.519501 70.4531329 215.3505 70.8604683 215.181499 71.319797 215.097 71.8311329 215.097 72.3944691 215.097 72.8862975 215.138166 73.3066329 215.2205 73.7269684 215.302834 74.0801315 215.378666 74.3661329 215.448L74.3661329 221.48C74.3661329 222.520005 74.0974689 223.273998 73.5601329 223.742 73.0227969 224.210002 72.2081384 224.444 71.1161329 224.444 70.6914641 224.444 70.2906348 224.409334 69.9136329 224.34 69.536631 224.270666 69.2094676 224.188334 68.9321329 224.093L69.1531329 223.04C69.3958008 223.135334 69.6926312 223.219833 70.0436329 223.2935 70.3946347 223.367167 70.7607977 223.404 71.1421329 223.404 71.8614699 223.404 72.379298 223.261001 72.6956329 222.975 73.0119678 222.688999 73.1701329 222.234003 73.1701329 221.61L73.1701329 221.324zM73.1571329 216.306C73.035799 216.271333 72.8733006 216.238833 72.6696329 216.2085 72.4659652 216.178167 72.1908013 216.163 71.8441329 216.163 71.1941297 216.163 70.6936347 216.375331 70.3426329 216.8 69.9916312 217.224669 69.8161329 217.787996 69.8161329 218.49 69.8161329 218.880002 69.8659658 219.213665 69.9656329 219.491 70.0653001 219.768335 70.1996321 219.997999 70.3686329 220.18 70.5376338 220.362001 70.7326318 220.496333 70.9536329 220.583 71.174634 220.669667 71.4021318 220.713 71.6361329 220.713 71.9568012 220.713 72.2514649 220.6675 72.5201329 220.5765 72.7888009 220.4855 73.0011321 220.379334 73.1571329 220.258L73.1571329 216.306zM81.8281329 221.805C81.5507982 221.874334 81.1846352 221.948 80.7296329 222.026 80.2746307 222.104 79.7481359 222.143 79.1501329 222.143 78.6301303 222.143 78.192468 222.067167 77.8371329 221.9155 77.4817978 221.763833 77.1958007 221.549335 76.9791329 221.272 76.7624652 220.994665 76.6064667 220.667502 76.5111329 220.2905 76.4157991 219.913498 76.3681329 219.495336 76.3681329 219.036L76.3681329 215.24 77.5771329 215.24 77.5771329 218.776C77.5771329 219.599337 77.7071316 220.188665 77.9671329 220.544 78.2271342 220.899335 78.6647965 221.077 79.2801329 221.077 79.4101336 221.077 79.5444656 221.072667 79.6831329 221.064 79.8218003 221.055333 79.951799 221.0445 80.0731329 221.0315 80.1944669 221.0185 80.3049658 221.0055 80.4046329 220.9925 80.5043001 220.9795 80.5757994 220.964333 80.6191329 220.947L80.6191329 215.24 81.8281329 215.24 81.8281329 221.805zM85.9361329 222.13C85.1907959 222.112667 84.6621345 221.952335 84.3501329 221.649 84.0381314 221.345665 83.8821329 220.873337 83.8821329 220.232L83.8821329 212.12 85.0911329 211.912 85.0911329 220.037C85.0911329 220.236334 85.1084661 220.400999 85.1431329 220.531 85.1777998 220.661001 85.2341325 220.765 85.3121329 220.843 85.3901333 220.921 85.4941323 220.9795 85.6241329 221.0185 85.7541336 221.0575 85.9144653 221.09 86.1051329 221.116L85.9361329 222.13zM89.7451329 221.129C90.0311344 221.129 90.2846318 221.1225 90.5056329 221.1095 90.726634 221.0965 90.9107989 221.072667 91.0581329 221.038L91.0581329 219.023C90.9714658 218.979666 90.8306339 218.942833 90.6356329 218.9125 90.440632 218.882167 90.2044676 218.867 89.9271329 218.867 89.745132 218.867 89.5523006 218.88 89.3486329 218.906 89.1449652 218.932 88.9586338 218.986166 88.7896329 219.0685 88.6206321 219.150834 88.4798002 219.263499 88.3671329 219.4065 88.2544657 219.549501 88.1981329 219.737999 88.1981329 219.972 88.1981329 220.405336 88.3367982 220.706499 88.6141329 220.8755 88.8914676 221.044501 89.2684639 221.129 89.7451329 221.129zM89.6411329 215.071C90.1264687 215.071 90.5359646 215.133833 90.8696329 215.2595 91.2033013 215.385167 91.4719652 215.562832 91.6756329 215.7925 91.8793006 216.022168 92.0244658 216.295165 92.1111329 216.6115 92.1978 216.927835 92.2411329 217.276665 92.2411329 217.658L92.2411329 221.883C92.1371324 221.900333 91.9919672 221.924167 91.8056329 221.9545 91.6192987 221.984833 91.4091341 222.013 91.1751329 222.039 90.9411318 222.065 90.6876343 222.088833 90.4146329 222.1105 90.1416316 222.132167 89.8708009 222.143 89.6021329 222.143 89.2207977 222.143 88.8698012 222.104 88.5491329 222.026 88.2284647 221.948 87.9511341 221.824501 87.7171329 221.6555 87.4831318 221.486499 87.3011336 221.263335 87.1711329 220.986 87.0411323 220.708665 86.9761329 220.375002 86.9761329 219.985 86.9761329 219.612331 87.0519655 219.291668 87.2036329 219.023 87.3553004 218.754332 87.5611316 218.537667 87.8211329 218.373 88.0811342 218.208333 88.3844645 218.087 88.7311329 218.009 89.0778013 217.931 89.4417977 217.892 89.8231329 217.892 89.9444669 217.892 90.0701323 217.8985 90.2001329 217.9115 90.3301336 217.9245 90.4536323 217.941833 90.5706329 217.9635 90.6876335 217.985167 90.7894658 218.004667 90.8761329 218.022 90.9628 218.039333 91.0234661 218.052333 91.0581329 218.061L91.0581329 217.723C91.0581329 217.523666 91.0364665 217.326501 90.9931329 217.1315 90.9497994 216.936499 90.8718002 216.763167 90.7591329 216.6115 90.6464657 216.459833 90.4926339 216.3385 90.2976329 216.2475 90.102632 216.1565 89.8491345 216.111 89.5371329 216.111 89.1384643 216.111 88.7896344 216.139166 88.4906329 216.1955 88.1916314 216.251834 87.968467 216.310333 87.8211329 216.371L87.6781329 215.37C87.8341337 215.300666 88.0941311 215.2335 88.4581329 215.1685 88.8221347 215.1035 89.2164641 215.071 89.6411329 215.071zM96.7391329 215.097C96.8431334 215.097 96.9622989 215.1035 97.0966329 215.1165 97.2309669 215.1295 97.3631323 215.146833 97.4931329 215.1685 97.6231336 215.190167 97.7422991 215.211833 97.8506329 215.2335 97.9589668 215.255167 98.0391327 215.274667 98.0911329 215.292L97.8831329 216.345C97.7877991 216.310333 97.629634 216.269167 97.4086329 216.2215 97.1876318 216.173833 96.9038013 216.15 96.5571329 216.15 96.3317985 216.15 96.108634 216.173833 95.8876329 216.2215 95.6666318 216.269167 95.5214666 216.301667 95.4521329 216.319L95.4521329 222 94.2431329 222 94.2431329 215.526C94.5291344 215.421999 94.8844641 215.3245 95.3091329 215.2335 95.7338017 215.1425 96.2104636 215.097 96.7391329 215.097zM102.433133 214.85C102.927135 214.659332 103.408131 214.414501 103.876133 214.1155 104.344135 213.816499 104.773131 213.441669 105.163133 212.991L106.021133 212.991 106.021133 222 104.812133 222 104.812133 214.668C104.708132 214.763334 104.5803 214.862999 104.428633 214.967 104.276966 215.071001 104.1123 215.170666 103.934633 215.266 103.756965 215.361334 103.570634 215.452333 103.375633 215.539 103.180632 215.625667 102.992134 215.699333 102.810133 215.76L102.433133 214.85zM111.494133 221.116C112.26547 221.116 112.817965 220.964335 113.151633 220.661 113.485301 220.357665 113.652133 219.950336 113.652133 219.439 113.652133 219.109665 113.5828 218.832334 113.444133 218.607 113.305466 218.381666 113.123467 218.201834 112.898133 218.0675 112.672798 217.933166 112.410634 217.837834 112.111633 217.7815 111.812631 217.725166 111.507134 217.697 111.195133 217.697L110.883133 217.697 110.883133 216.709 111.312133 216.709C111.528801 216.709 111.751965 216.687334 111.981633 216.644 112.211301 216.600666 112.421465 216.522667 112.612133 216.41 112.802801 216.297333 112.958799 216.143501 113.080133 215.9485 113.201467 215.753499 113.262133 215.508668 113.262133 215.214 113.262133 214.971332 113.2188 214.763334 113.132133 214.59 113.045466 214.416666 112.930634 214.273667 112.787633 214.161 112.644632 214.048333 112.479967 213.968167 112.293633 213.9205 112.107299 213.872833 111.910134 213.849 111.702133 213.849 111.286131 213.849 110.932968 213.909666 110.642633 214.031 110.352298 214.152334 110.107467 214.277999 109.908133 214.408L109.440133 213.485C109.544133 213.415666 109.676299 213.339834 109.836633 213.2575 109.996967 213.175166 110.176799 213.099334 110.376133 213.03 110.575467 212.960666 110.789965 212.902167 111.019633 212.8545 111.249301 212.806833 111.489798 212.783 111.741133 212.783 112.217802 212.783 112.629465 212.841499 112.976133 212.9585 113.322801 213.075501 113.608798 213.240166 113.834133 213.4525 114.059467 213.664834 114.228466 213.916165 114.341133 214.2065 114.4538 214.496835 114.510133 214.810998 114.510133 215.149 114.510133 215.617002 114.375801 216.017832 114.107133 216.3515 113.838465 216.685168 113.513468 216.938666 113.132133 217.112 113.366134 217.181334 113.591465 217.280999 113.808133 217.411 114.024801 217.541001 114.213299 217.705666 114.373633 217.905 114.533967 218.104334 114.663966 218.333999 114.763633 218.594 114.8633 218.854001 114.913133 219.144332 114.913133 219.465 114.913133 219.855002 114.845967 220.216832 114.711633 220.5505 114.577299 220.884168 114.369301 221.172332 114.087633 221.415 113.805965 221.657668 113.452802 221.848333 113.028133 221.987 112.603464 222.125667 112.100802 222.195 111.520133 222.195 111.294798 222.195 111.062967 222.177667 110.824633 222.143 110.586298 222.108333 110.363134 222.065 110.155133 222.013 109.947132 221.961 109.765134 221.909 109.609133 221.857 109.453132 221.805 109.340467 221.761667 109.271133 221.727L109.505133 220.674C109.652467 220.743334 109.897298 220.834333 110.239633 220.947 110.581968 221.059667 111.00013 221.116 111.494133 221.116zM121.621133 218.633C121.621133 217.844329 121.426135 217.237669 121.036133 216.813 120.646131 216.388331 120.126136 216.176 119.476133 216.176 119.112131 216.176 118.828301 216.189 118.624633 216.215 118.420965 216.241 118.258467 216.271333 118.137133 216.306L118.137133 220.57C118.284467 220.691334 118.496798 220.808333 118.774133 220.921 119.051468 221.033667 119.354798 221.09 119.684133 221.09 120.030801 221.09 120.327632 221.027167 120.574633 220.9015 120.821634 220.775833 121.023132 220.602501 121.179133 220.3815 121.335134 220.160499 121.447799 219.900501 121.517133 219.6015 121.586467 219.302499 121.621133 218.979668 121.621133 218.633zM122.882133 218.633C122.882133 219.144336 122.814967 219.616665 122.680633 220.05 122.546299 220.483336 122.349134 220.855998 122.089133 221.168 121.829132 221.480002 121.510635 221.722666 121.133633 221.896 120.756631 222.069334 120.325469 222.156 119.840133 222.156 119.450131 222.156 119.105634 222.104001 118.806633 222 118.507631 221.895999 118.284467 221.796334 118.137133 221.701L118.137133 224.405 116.928133 224.405 116.928133 215.448C117.214134 215.378666 117.571631 215.302834 118.000633 215.2205 118.429635 215.138166 118.925797 215.097 119.489133 215.097 120.009136 215.097 120.477131 215.179333 120.893133 215.344 121.309135 215.508667 121.664465 215.742665 121.959133 216.046 122.253801 216.349335 122.481299 216.719831 122.641633 217.1575 122.801967 217.595169 122.882133 218.086997 122.882133 218.633zM128.407133 222C128.311799 221.809332 128.1948 221.597001 128.056133 221.363 127.917466 221.128999 127.7658 220.888501 127.601133 220.6415 127.436465 220.394499 127.267467 220.149668 127.094133 219.907 126.920799 219.664332 126.7518 219.434668 126.587133 219.218 126.422465 219.434668 126.253467 219.666499 126.080133 219.9135 125.906799 220.160501 125.739967 220.407499 125.579633 220.6545 125.419299 220.901501 125.2698 221.141999 125.131133 221.376 124.992466 221.610001 124.875467 221.817999 124.780133 222L123.532133 222C123.835468 221.410664 124.197297 220.810503 124.617633 220.1995 125.037968 219.588497 125.456131 219.005669 125.872133 218.451L123.636133 215.24 125.001133 215.24 126.613133 217.606 128.238133 215.24 129.525133 215.24 127.341133 218.373C127.757135 218.936336 128.183964 219.532164 128.621633 220.1605 129.059302 220.788836 129.429798 221.401997 129.733133 222L128.407133 222zM56.4261329 102.219C56.6754675 102.649669 56.9531314 103.176664 57.2591329 103.8 57.5651345 104.423336 57.876798 105.07783 58.1941329 105.7635 58.5114678 106.44917 58.8259647 107.146163 59.1376329 107.8545 59.4493012 108.562837 59.735465 109.21733 59.9961329 109.818 60.2568009 109.21733 60.5401314 108.562837 60.8461329 107.8545 61.1521345 107.146163 61.463798 106.44917 61.7811329 105.7635 62.0984678 105.07783 62.4101314 104.423336 62.7161329 103.8 63.0221345 103.176664 63.2997983 102.649669 63.5491329 102.219L65.4871329 102.219C65.5891334 103.080338 65.6854658 103.995495 65.7761329 104.9645 65.8668 105.933505 65.9489659 106.925162 66.0226329 107.9395 66.0963 108.953838 66.1642993 109.973828 66.2266329 110.9995 66.2889666 112.025172 66.3427994 113.025328 66.3881329 114L64.2801329 114C64.2347994 112.62866 64.1809666 111.217674 64.1186329 109.767 64.0562993 108.316326 63.9628002 106.911007 63.8381329 105.551 63.7134656 105.811668 63.5661338 106.123332 63.3961329 106.486 63.2261321 106.848668 63.0448006 107.242498 62.8521329 107.6675 62.6594653 108.092502 62.4639673 108.531664 62.2656329 108.985 62.0672986 109.438336 61.8746339 109.877498 61.6876329 110.3025 61.500632 110.727502 61.3278004 111.124165 61.1691329 111.4925 61.0104655 111.860835 60.8744668 112.175332 60.7611329 112.436L59.1631329 112.436C59.049799 112.175332 58.9138004 111.858002 58.7551329 111.484 58.5964655 111.109998 58.4236339 110.710502 58.2366329 110.2855 58.049632 109.860498 57.8569673 109.421336 57.6586329 108.968 57.4602986 108.514664 57.2648006 108.078335 57.0721329 107.659 56.8794653 107.239665 56.6981338 106.845835 56.5281329 106.4775 56.3581321 106.109165 56.2108002 105.800335 56.0861329 105.551 55.9614656 106.911007 55.8679666 108.316326 55.8056329 109.767 55.7432993 111.217674 55.6894665 112.62866 55.6441329 114L53.5361329 114C53.5814665 113.025328 53.6352993 112.016672 53.6976329 110.974 53.7599666 109.931328 53.8279659 108.897172 53.9016329 107.8715 53.9753 106.845828 54.0574658 105.851338 54.1481329 104.888 54.2388 103.924662 54.3351324 103.035004 54.4371329 102.219L56.4261329 102.219zM68.2921329 109.597C68.2921329 108.814996 68.4082984 108.129336 68.6406329 107.54 68.8729674 106.950664 69.1817977 106.460502 69.5671329 106.0695 69.9524682 105.678498 70.3944638 105.383834 70.8931329 105.1855 71.3918021 104.987166 71.901797 104.888 72.4231329 104.888 73.647139 104.888 74.6019628 105.267663 75.2876329 106.027 75.973303 106.786337 76.3161329 107.919659 76.3161329 109.427 76.3161329 109.540334 76.3132996 109.667833 76.3076329 109.8095 76.3019662 109.951167 76.2934663 110.078666 76.2821329 110.192L70.4171329 110.192C70.4737999 110.906004 70.725964 111.458498 71.1736329 111.8495 71.6213018 112.240502 72.2701287 112.436 73.1201329 112.436 73.6188021 112.436 74.0749642 112.390667 74.4886329 112.3 74.9023017 112.209333 75.2281317 112.113001 75.4661329 112.011L75.7381329 113.694C75.624799 113.750667 75.4689673 113.810166 75.2706329 113.8725 75.0722986 113.934834 74.8456342 113.9915 74.5906329 114.0425 74.3356317 114.0935 74.0608011 114.136 73.7661329 114.17 73.4714648 114.204 73.1711345 114.221 72.8651329 114.221 72.083129 114.221 71.4031358 114.104834 70.8251329 113.8725 70.24713 113.640166 69.7711348 113.317169 69.3971329 112.9035 69.0231311 112.489831 68.7454672 112.002503 68.5641329 111.4415 68.3827987 110.880497 68.2921329 110.26567 68.2921329 109.597zM74.2591329 108.679C74.2591329 108.395665 74.2194667 108.126501 74.1401329 107.8715 74.0607992 107.616499 73.9446337 107.395501 73.7916329 107.2085 73.6386322 107.021499 73.451634 106.874167 73.2306329 106.7665 73.0096318 106.658833 72.7461345 106.605 72.4401329 106.605 72.122798 106.605 71.8451341 106.664499 71.6071329 106.7835 71.3691317 106.902501 71.1679671 107.058332 71.0036329 107.251 70.8392988 107.443668 70.7118 107.664665 70.6211329 107.914 70.5304658 108.163335 70.4681331 108.418332 70.4341329 108.679L74.2591329 108.679zM80.1071329 109.529C80.1071329 110.435671 80.3224641 111.146831 80.7531329 111.6625 81.1838017 112.178169 81.7787958 112.436 82.5381329 112.436 82.8668012 112.436 83.1472984 112.421833 83.3796329 112.3935 83.6119674 112.365167 83.8017989 112.334 83.9491329 112.3L83.9491329 107.2C83.7677987 107.075333 83.5269678 106.959167 83.2266329 106.8515 82.9262981 106.743833 82.6061346 106.69 82.2661329 106.69 81.5181292 106.69 80.9713013 106.944997 80.6256329 107.455 80.2799645 107.965003 80.1071329 108.656329 80.1071329 109.529zM86.0061329 113.728C85.5981309 113.852667 85.0853027 113.965999 84.4676329 114.068 83.8499632 114.170001 83.2011363 114.221 82.5211329 114.221 81.8184627 114.221 81.189469 114.113334 80.6341329 113.898 80.0787968 113.682666 79.6056349 113.373835 79.2146329 112.9715 78.823631 112.569165 78.5233006 112.081836 78.3136329 111.5095 78.1039652 110.937164 77.9991329 110.294004 77.9991329 109.58 77.9991329 108.87733 78.0869654 108.239836 78.2626329 107.6675 78.4383005 107.095164 78.6961312 106.605002 79.0361329 106.197 79.3761346 105.788998 79.7897972 105.474501 80.2771329 105.2535 80.7644687 105.032499 81.3254631 104.922 81.9601329 104.922 82.3908017 104.922 82.7704646 104.972999 83.0991329 105.075 83.4278012 105.177001 83.7111317 105.290333 83.9491329 105.415L83.9491329 101.148 86.0061329 100.808 86.0061329 113.728zM90.6981329 114L88.6411329 114 88.6411329 105.109 90.6981329 105.109 90.6981329 114zM90.9191329 102.508C90.9191329 102.893335 90.7944675 103.199332 90.5451329 103.426 90.2957983 103.652668 90.0011346 103.766 89.6611329 103.766 89.3097978 103.766 89.0094675 103.652668 88.7601329 103.426 88.5107983 103.199332 88.3861329 102.893335 88.3861329 102.508 88.3861329 102.111331 88.5107983 101.799668 88.7601329 101.573 89.0094675 101.346332 89.3097978 101.233 89.6611329 101.233 90.0011346 101.233 90.2957983 101.346332 90.5451329 101.573 90.7944675 101.799668 90.9191329 102.111331 90.9191329 102.508zM100.609133 113.728C100.212464 113.830001 99.6968028 113.934833 99.0621329 114.0425 98.4274631 114.150167 97.7304701 114.204 96.9711329 114.204 96.2571294 114.204 95.659302 114.102001 95.1776329 113.898 94.6959639 113.693999 94.3106344 113.410668 94.0216329 113.048 93.7326315 112.685332 93.5258002 112.251836 93.4011329 111.7475 93.2764656 111.243164 93.2141329 110.69067 93.2141329 110.09L93.2141329 105.109 95.2711329 105.109 95.2711329 109.767C95.2711329 110.719005 95.4099649 111.398998 95.6876329 111.807 95.965301 112.215002 96.4497961 112.419 97.1411329 112.419 97.3904675 112.419 97.6539649 112.407667 97.9316329 112.385 98.209301 112.362333 98.4161322 112.334 98.5521329 112.3L98.5521329 105.109 100.609133 105.109 100.609133 113.728zM108.293133 109.325C108.293133 108.395662 108.176967 107.724169 107.944633 107.3105 107.712298 106.896831 107.278803 106.69 106.644133 106.69 106.417465 106.69 106.168134 106.707 105.896133 106.741 105.624132 106.775 105.420134 106.803333 105.284133 106.826L105.284133 114 103.227133 114 103.227133 105.398C103.623802 105.284666 104.142296 105.177001 104.782633 105.075 105.422969 104.972999 106.100129 104.922 106.814133 104.922 107.426136 104.922 107.927631 105.001333 108.318633 105.16 108.709635 105.318667 109.035465 105.528332 109.296133 105.789 109.4208 105.698333 109.579465 105.602001 109.772133 105.5 109.964801 105.397999 110.180132 105.3045 110.418133 105.2195 110.656134 105.1345 110.908298 105.063667 111.174633 105.007 111.440968 104.950333 111.710132 104.922 111.982133 104.922 112.67347 104.922 113.242964 105.021166 113.690633 105.2195 114.138302 105.417834 114.489632 105.695498 114.744633 106.0525 114.999634 106.409502 115.175299 106.840164 115.271633 107.3445 115.367967 107.848836 115.416133 108.40133 115.416133 109.002L115.416133 114 113.359133 114 113.359133 109.325C113.359133 108.395662 113.245801 107.724169 113.019133 107.3105 112.792465 106.896831 112.356136 106.69 111.710133 106.69 111.381465 106.69 111.069801 106.743833 110.775133 106.8515 110.480465 106.959167 110.259467 107.063999 110.112133 107.166 110.2028 107.449335 110.265133 107.749665 110.299133 108.067 110.333133 108.384335 110.350133 108.724332 110.350133 109.087L110.350133 114 108.293133 114 108.293133 109.325zM122.114133 104.667C122.77147 104.406332 123.43163 104.072002 124.094633 103.664 124.757636 103.255998 125.34413 102.774336 125.854133 102.219L127.299133 102.219 127.299133 114 125.242133 114 125.242133 104.973C124.936131 105.211001 124.550802 105.443332 124.086133 105.67 123.621464 105.896668 123.173802 106.083666 122.743133 106.231L122.114133 104.667zM132.858133 114C132.926133 113.138662 133.079132 112.232005 133.317133 111.28 133.555134 110.327995 133.846965 109.401505 134.192633 108.5005 134.538301 107.599495 134.917964 106.755171 135.331633 105.9675 135.745302 105.179829 136.156131 104.519669 136.564133 103.987L131.141133 103.987 131.141133 102.219 139.012133 102.219 139.012133 103.783C138.638131 104.202335 138.230135 104.774663 137.788133 105.5 137.346131 106.225337 136.926802 107.044162 136.530133 107.9565 136.133464 108.868838 135.790634 109.846328 135.501633 110.889 135.212631 111.931672 135.034133 112.968662 134.966133 114L132.858133 114zM147.104133 109.597C147.104133 108.678995 146.897302 107.965003 146.483633 107.455 146.069964 106.944997 145.404138 106.69 144.486133 106.69 144.293465 106.69 144.092301 106.6985 143.882633 106.7155 143.672965 106.7325 143.466134 106.769333 143.262133 106.826L143.262133 111.909C143.443467 112.033667 143.684298 112.149833 143.984633 112.2575 144.284968 112.365167 144.605131 112.419 144.945133 112.419 145.693137 112.419 146.239965 112.164003 146.585633 111.654 146.931301 111.143997 147.104133 110.458338 147.104133 109.597zM149.212133 109.563C149.212133 110.243003 149.1243 110.866331 148.948633 111.433 148.772965 111.99967 148.520801 112.486998 148.192133 112.895 147.863465 113.303002 147.452635 113.620332 146.959633 113.847 146.46663 114.073668 145.908469 114.187 145.285133 114.187 144.865797 114.187 144.480468 114.136001 144.129133 114.034 143.777798 113.931999 143.488801 113.818667 143.262133 113.694L143.262133 117.145 141.205133 117.145 141.205133 105.398C141.624468 105.284666 142.14013 105.177001 142.752133 105.075 143.364136 104.972999 144.01013 104.922 144.690133 104.922 145.392803 104.922 146.021797 105.029666 146.577133 105.245 147.132469 105.460334 147.605631 105.769165 147.996633 106.1715 148.387635 106.573835 148.687965 107.061164 148.897633 107.6335 149.107301 108.205836 149.212133 108.848996 149.212133 109.563zM154.278133 108.016L156.165133 105.109 158.324133 105.109 155.400133 109.308C156.012136 110.101337 156.59863 110.903163 157.159633 111.7135 157.720636 112.523837 158.182464 113.285996 158.545133 114L156.318133 114C156.216132 113.784666 156.082967 113.538168 155.918633 113.2605 155.754299 112.982832 155.578634 112.693835 155.391633 112.3935 155.204632 112.093165 155.009134 111.795668 154.805133 111.501 154.601132 111.206332 154.402801 110.928668 154.210133 110.668 153.813464 111.178003 153.425301 111.74183 153.045633 112.3595 152.665964 112.97717 152.351468 113.523998 152.102133 114L149.994133 114C150.164134 113.659998 150.368132 113.297335 150.606133 112.912 150.844134 112.526665 151.099132 112.132835 151.371133 111.7305 151.643134 111.328165 151.923631 110.925835 152.212633 110.5235 152.501634 110.121165 152.787798 109.738668 153.071133 109.376L150.130133 105.109 152.391133 105.109 154.278133 108.016zM56.4911329 143.117C55.9971305 143.117 55.505302 143.101833 55.0156329 143.0715 54.5259638 143.041167 54.0168022 142.969667 53.4881329 142.857L53.4881329 134.121C53.904135 134.043 54.3591305 133.9845 54.8531329 133.9455 55.3471354 133.9065 55.8064641 133.887 56.2311329 133.887 56.8031358 133.887 57.3296305 133.928166 57.8106329 134.0105 58.2916353 134.092834 58.7054645 134.233666 59.0521329 134.433 59.3988013 134.632334 59.669632 134.894498 59.8646329 135.2195 60.0596339 135.544502 60.1571329 135.945331 60.1571329 136.422 60.1571329 137.141337 59.8104697 137.708998 59.1171329 138.125 59.6891358 138.341668 60.0791319 138.636331 60.2871329 139.009 60.495134 139.381669 60.5991329 139.801998 60.5991329 140.27 60.5991329 141.214671 60.2546364 141.925331 59.5656329 142.402 58.8766295 142.878669 57.8518064 143.117 56.4911329 143.117zM55.4641329 139.074L55.4641329 141.401C55.611467 141.418333 55.7717987 141.431333 55.9451329 141.44 56.1184671 141.448667 56.3091319 141.453 56.5171329 141.453 57.1238026 141.453 57.6134644 141.366334 57.9861329 141.193 58.3588015 141.019666 58.5451329 140.699002 58.5451329 140.231 58.5451329 139.814998 58.3891345 139.518168 58.0771329 139.3405 57.7651314 139.162832 57.3188025 139.074 56.7381329 139.074L55.4641329 139.074zM55.4641329 137.527L56.4521329 137.527C57.076136 137.527 57.5224649 137.446834 57.7911329 137.2865 58.0598009 137.126166 58.1941329 136.868335 58.1941329 136.513 58.1941329 136.148998 58.0554676 135.893334 57.7781329 135.746 57.5007982 135.598666 57.0934689 135.525 56.5561329 135.525 56.3827987 135.525 56.1964673 135.527167 55.9971329 135.5315 55.7977986 135.535833 55.6201337 135.546667 55.4641329 135.564L55.4641329 137.527zM68.4901329 139.568C68.4901329 140.105336 68.4121337 140.597164 68.2561329 141.0435 68.1001321 141.489836 67.8748011 141.871165 67.5801329 142.1875 67.2854648 142.503835 66.9323017 142.748666 66.5206329 142.922 66.1089642 143.095334 65.6474688 143.182 65.1361329 143.182 64.6334637 143.182 64.1763017 143.095334 63.7646329 142.922 63.3529642 142.748666 62.9998011 142.503835 62.7051329 142.1875 62.4104648 141.871165 62.1808004 141.489836 62.0161329 141.0435 61.8514654 140.597164 61.7691329 140.105336 61.7691329 139.568 61.7691329 139.030664 61.8536321 138.541002 62.0226329 138.099 62.1916338 137.656998 62.4256314 137.280002 62.7246329 136.968 63.0236344 136.655998 63.3789642 136.413334 63.7906329 136.24 64.2023017 136.066666 64.6507972 135.98 65.1361329 135.98 65.6301354 135.98 66.0829642 136.066666 66.4946329 136.24 66.9063017 136.413334 67.2594648 136.655998 67.5541329 136.968 67.8488011 137.280002 68.0784654 137.656998 68.2431329 138.099 68.4078004 138.541002 68.4901329 139.030664 68.4901329 139.568zM66.5141329 139.568C66.5141329 138.969997 66.3949675 138.499835 66.1566329 138.1575 65.9182984 137.815165 65.5781351 137.644 65.1361329 137.644 64.6941307 137.644 64.3518008 137.815165 64.1091329 138.1575 63.866465 138.499835 63.7451329 138.969997 63.7451329 139.568 63.7451329 140.166003 63.866465 140.640498 64.1091329 140.9915 64.3518008 141.342502 64.6941307 141.518 65.1361329 141.518 65.5781351 141.518 65.9182984 141.342502 66.1566329 140.9915 66.3949675 140.640498 66.5141329 140.166003 66.5141329 139.568zM72.7151329 143.13C72.1517968 143.121333 71.6946347 143.060667 71.3436329 142.948 70.9926312 142.835333 70.7153006 142.677168 70.5116329 142.4735 70.3079652 142.269832 70.1693 142.022835 70.0956329 141.7325 70.0219659 141.442165 69.9851329 141.115002 69.9851329 140.751L69.9851329 133.224 71.9221329 132.912 71.9221329 140.361C71.9221329 140.534334 71.9351328 140.690333 71.9611329 140.829 71.9871331 140.967667 72.0369659 141.084666 72.1106329 141.18 72.1843 141.275334 72.2904656 141.353333 72.4291329 141.414 72.5678003 141.474667 72.7541318 141.513667 72.9881329 141.531L72.7151329 143.13zM75.7441329 139.529C75.7441329 140.127003 75.8784649 140.607998 76.1471329 140.972 76.4158009 141.336002 76.8144636 141.518 77.3431329 141.518 77.5164671 141.518 77.6767989 141.5115 77.8241329 141.4985 77.971467 141.4855 78.0927991 141.470333 78.1881329 141.453L78.1881329 137.93C78.066799 137.852 77.9086339 137.787 77.7136329 137.735 77.518632 137.683 77.3214673 137.657 77.1221329 137.657 76.2034617 137.657 75.7441329 138.280994 75.7441329 139.529zM80.1251329 142.779C79.9517987 142.831 79.7524674 142.880833 79.5271329 142.9285 79.3017985 142.976167 79.0656342 143.017333 78.8186329 143.052 78.5716317 143.086667 78.3203009 143.114833 78.0646329 143.1365 77.808965 143.158167 77.5641341 143.169 77.3301329 143.169 76.7667968 143.169 76.2641351 143.086667 75.8221329 142.922 75.3801307 142.757333 75.0074678 142.521168 74.7041329 142.2135 74.4007981 141.905832 74.1689671 141.533169 74.0086329 141.0955 73.8482988 140.657831 73.7681329 140.166003 73.7681329 139.62 73.7681329 139.065331 73.8374656 138.564836 73.9761329 138.1185 74.1148003 137.672164 74.3141316 137.293002 74.5741329 136.981 74.8341342 136.668998 75.152631 136.430667 75.5296329 136.266 75.9066348 136.101333 76.3377972 136.019 76.8231329 136.019 77.0918009 136.019 77.3322985 136.045 77.5446329 136.097 77.7569673 136.149 77.9714652 136.222666 78.1881329 136.318L78.1881329 133.224 80.1251329 132.912 80.1251329 142.779zM85.0651329 135.863C85.3164675 135.758999 85.5786316 135.639834 85.8516329 135.5055 86.1246343 135.371166 86.3911316 135.223834 86.6511329 135.0635 86.9111342 134.903166 87.1602984 134.734168 87.3986329 134.5565 87.6369675 134.378832 87.8514653 134.190334 88.0421329 133.991L89.3941329 133.991 89.3941329 143 87.4571329 143 87.4571329 136.513C87.1971316 136.686334 86.9068012 136.844499 86.5861329 136.9875 86.2654647 137.130501 85.9534678 137.253999 85.6501329 137.358L85.0651329 135.863zM94.5031329 143.195C94.2691318 143.195 94.0221342 143.179833 93.7621329 143.1495 93.5021316 143.119167 93.2508008 143.078 93.0081329 143.026 92.765465 142.974 92.5444673 142.917667 92.3451329 142.857 92.1457986 142.796333 91.9898002 142.74 91.8771329 142.688L92.2541329 141.076C92.4794674 141.171334 92.7676312 141.273166 93.1186329 141.3815 93.4696347 141.489834 93.9051303 141.544 94.4251329 141.544 95.0231359 141.544 95.4607982 141.431334 95.7381329 141.206 96.0154676 140.980666 96.1541329 140.677335 96.1541329 140.296 96.1541329 140.061999 96.1043001 139.864834 96.0046329 139.7045 95.9049658 139.544166 95.7684671 139.414167 95.5951329 139.3145 95.4217987 139.214833 95.2159675 139.1455 94.9776329 139.1065 94.7392984 139.0675 94.4858009 139.048 94.2171329 139.048L93.4631329 139.048 93.4631329 137.488 94.3211329 137.488C94.5118005 137.488 94.6959654 137.470667 94.8736329 137.436 95.0513005 137.401333 95.2094656 137.342834 95.3481329 137.2605 95.4868003 137.178166 95.5972992 137.065501 95.6796329 136.9225 95.7619667 136.779499 95.8031329 136.599668 95.8031329 136.383 95.8031329 136.218333 95.7684666 136.075334 95.6991329 135.954 95.6297992 135.832666 95.5409668 135.733 95.4326329 135.655 95.3242991 135.577 95.1986336 135.5185 95.0556329 135.4795 94.9126322 135.4405 94.767467 135.421 94.6201329 135.421 94.2474644 135.421 93.9029678 135.477333 93.5866329 135.59 93.270298 135.702667 92.9821342 135.841333 92.7221329 136.006L92.0331329 134.589C92.1718003 134.502333 92.3342987 134.411334 92.5206329 134.316 92.7069672 134.220666 92.9127985 134.134 93.1381329 134.056 93.3634674 133.978 93.603965 133.913 93.8596329 133.861 94.1153009 133.809 94.3861315 133.783 94.6721329 133.783 95.2008022 133.783 95.6579643 133.845833 96.0436329 133.9715 96.4293015 134.097167 96.7477983 134.274832 96.9991329 134.5045 97.2504675 134.734168 97.436799 135.002832 97.5581329 135.3105 97.6794669 135.618168 97.7401329 135.953998 97.7401329 136.318 97.7401329 136.673335 97.6404673 137.017832 97.4411329 137.3515 97.2417986 137.685168 96.9731346 137.938666 96.6351329 138.112 97.1031353 138.302668 97.464965 138.586498 97.7206329 138.9635 97.9763009 139.340502 98.1041329 139.793331 98.1041329 140.322 98.1041329 140.738002 98.0348003 141.121498 97.8961329 141.4725 97.7574656 141.823502 97.5408011 142.126832 97.2461329 142.3825 96.9514648 142.638168 96.5766352 142.837499 96.1216329 142.9805 95.6666307 143.123501 95.127136 143.195 94.5031329 143.195zM104.214133 139.633C104.214133 139.034997 104.079801 138.556168 103.811133 138.1965 103.542465 137.836832 103.143802 137.657 102.615133 137.657 102.441799 137.657 102.281467 137.6635 102.134133 137.6765 101.986799 137.6895 101.865467 137.704667 101.770133 137.722L101.770133 141.219C101.891467 141.297 102.049632 141.362 102.244633 141.414 102.439634 141.466 102.636799 141.492 102.836133 141.492 103.754804 141.492 104.214133 140.87234 104.214133 139.633zM106.190133 139.581C106.190133 140.109669 106.125134 140.590665 105.995133 141.024 105.865132 141.457336 105.674468 141.829998 105.423133 142.142 105.171798 142.454002 104.859801 142.696666 104.487133 142.87 104.114464 143.043334 103.685469 143.13 103.200133 143.13 102.931465 143.13 102.680134 143.104 102.446133 143.052 102.212132 143 101.986801 142.926334 101.770133 142.831L101.770133 145.405 99.8331329 145.405 99.8331329 136.396C100.006467 136.344 100.205798 136.294167 100.431133 136.2465 100.656467 136.198833 100.892632 136.157667 101.139633 136.123 101.386634 136.088333 101.637965 136.060167 101.893633 136.0385 102.149301 136.016833 102.394132 136.006 102.628133 136.006 103.191469 136.006 103.694131 136.090499 104.136133 136.2595 104.578135 136.428501 104.950798 136.666832 105.254133 136.9745 105.557468 137.282168 105.789299 137.656998 105.949633 138.099 106.109967 138.541002 106.190133 139.034997 106.190133 139.581zM110.168133 138.242L111.520133 136.162 113.522133 136.162 111.182133 139.451C111.702136 140.101003 112.174464 140.733664 112.599133 141.349 113.023802 141.964336 113.361798 142.514664 113.613133 143L111.533133 143 111.273133 142.5125C111.169132 142.317499 111.052134 142.113834 110.922133 141.9015 110.792132 141.689166 110.655634 141.476834 110.512633 141.2645 110.369632 141.052166 110.2288 140.859334 110.090133 140.686 109.960132 140.850667 109.827967 141.032666 109.693633 141.232 109.559299 141.431334 109.431467 141.632832 109.310133 141.8365 109.188799 142.040168 109.069634 142.241666 108.952633 142.441 108.835632 142.640334 108.7338 142.826666 108.647133 143L106.671133 143C106.775133 142.783332 106.918132 142.527668 107.100133 142.233 107.282134 141.938332 107.479299 141.632835 107.691633 141.3165 107.903967 141.000165 108.127132 140.683835 108.361133 140.3675 108.595134 140.051165 108.824798 139.754335 109.050133 139.477 108.660131 138.930997 108.270135 138.378503 107.880133 137.8195 107.490131 137.260497 107.104468 136.708003 106.723133 136.162L108.816133 136.162 110.168133 138.242z"/>
    <path fill="#737373" d="M57.1231329,267.81 C57.2404668,267.956667 57.3889654,268.149165 57.5686329,268.3875 C57.7483005,268.625835 57.9334653,268.889832 58.1241329,269.1795 C58.3148005,269.469168 58.503632,269.771665 58.6906329,270.087 C58.8776339,270.402335 59.0371323,270.706665 59.1691329,271 L58.0031329,271 C57.8564655,270.721332 57.6969671,270.439001 57.5246329,270.153 C57.3522987,269.866999 57.1781338,269.593835 57.0021329,269.3335 C56.826132,269.073165 56.6519671,268.829334 56.4796329,268.602 C56.3072987,268.374666 56.151467,268.176668 56.0121329,268.008 C55.9167991,268.015333 55.8196334,268.019 55.7206329,268.019 L54.4611329,268.019 L54.4611329,271 L53.3941329,271 L53.3941329,263.487 C53.6948011,263.413666 54.0302977,263.364167 54.4006329,263.3385 C54.7709681,263.312833 55.1101314,263.3 55.4181329,263.3 C56.4888049,263.3 57.3046301,263.501665 57.8656329,263.905 C58.4266357,264.308335 58.7071329,264.909663 58.7071329,265.709 C58.7071329,266.215003 58.5733009,266.647665 58.3056329,267.007 C58.0379649,267.366335 57.6438022,267.633999 57.1231329,267.81 Z M55.5061329,264.235 C55.051464,264.235 54.7031341,264.246 54.4611329,264.268 L54.4611329,267.139 L55.2201329,267.139 C55.5868014,267.139 55.9167981,267.120667 56.2101329,267.084 C56.5034677,267.047333 56.7509653,266.977667 56.9526329,266.875 C57.1543006,266.772333 57.3101324,266.627501 57.4201329,266.4405 C57.5301335,266.253499 57.5851329,266.006002 57.5851329,265.698 C57.5851329,265.411999 57.5301335,265.173668 57.4201329,264.983 C57.3101324,264.792332 57.1616339,264.642001 56.9746329,264.532 C56.787632,264.421999 56.5676342,264.345 56.3146329,264.301 C56.0616317,264.257 55.7921344,264.235 55.5061329,264.235 Z M59.9281329,268.151 C59.9281329,267.644997 60.0014655,267.203169 60.1481329,266.8255 C60.2948003,266.447831 60.4891317,266.134335 60.7311329,265.885 C60.9731341,265.635665 61.251798,265.448667 61.5671329,265.324 C61.8824678,265.199333 62.2051313,265.137 62.5351329,265.137 C63.3051368,265.137 63.8954642,265.377164 64.3061329,265.8575 C64.7168016,266.337836 64.9221329,267.069328 64.9221329,268.052 L64.9221329,268.2225 C64.9221329,268.292167 64.9184663,268.356333 64.9111329,268.415 L60.9951329,268.415 C61.0391331,269.009003 61.2114648,269.459998 61.5121329,269.768 C61.8128011,270.076002 62.2821297,270.23 62.9201329,270.23 C63.2794681,270.23 63.581965,270.198834 63.8276329,270.1365 C64.0733008,270.074166 64.2584656,270.013667 64.3831329,269.955 L64.5261329,270.813 C64.4014656,270.879 64.1833012,270.948666 63.8716329,271.022 C63.5599647,271.095334 63.2061349,271.132 62.8101329,271.132 C62.3114638,271.132 61.8806347,271.056834 61.5176329,270.9065 C61.1546311,270.756166 60.8558008,270.549001 60.6211329,270.285 C60.3864651,270.020999 60.2123002,269.707502 60.0986329,269.3445 C59.9849657,268.981498 59.9281329,268.583669 59.9281329,268.151 Z M63.8551329,267.59 C63.8624663,267.127998 63.7469675,266.748501 63.5086329,266.4515 C63.2702984,266.154499 62.942135,266.006 62.5241329,266.006 C62.2894651,266.006 62.0823005,266.051833 61.9026329,266.1435 C61.7229654,266.235167 61.5708002,266.354333 61.4461329,266.501 C61.3214656,266.647667 61.2242999,266.816332 61.1546329,267.007 C61.0849659,267.197668 61.039133,267.391999 61.0171329,267.59 L63.8551329,267.59 Z M69.9821329,270.428 C69.8941325,270.486667 69.7236342,270.561833 69.4706329,270.6535 C69.2176317,270.745167 68.9224679,270.791 68.5851329,270.791 C68.2404645,270.791 67.9159678,270.736001 67.6116329,270.626 C67.3072981,270.515999 67.0414674,270.345501 66.8141329,270.1145 C66.5867985,269.883499 66.4071336,269.595668 66.2751329,269.251 C66.1431323,268.906332 66.0771329,268.495669 66.0771329,268.019 C66.0771329,267.600998 66.1394656,267.217835 66.2641329,266.8695 C66.3888002,266.521165 66.5702984,266.220501 66.8086329,265.9675 C67.0469675,265.714499 67.3384645,265.516501 67.6831329,265.3735 C68.0278013,265.230499 68.4164641,265.159 68.8491329,265.159 C69.325802,265.159 69.7419645,265.193833 70.0976329,265.2635 C70.4533014,265.333167 70.7521317,265.397333 70.9941329,265.456 L70.9941329,270.56 C70.9941329,271.440004 70.7668019,272.077998 70.3121329,272.474 C69.857464,272.870002 69.1681375,273.068 68.2441329,273.068 C67.8847978,273.068 67.5456345,273.038667 67.2266329,272.98 C66.9076313,272.921333 66.6308008,272.851667 66.3961329,272.771 L66.5831329,271.88 C66.7884673,271.960667 67.0396314,272.032166 67.3366329,272.0945 C67.6336344,272.156834 67.9434646,272.188 68.2661329,272.188 C68.8748026,272.188 69.3129649,272.067001 69.5806329,271.825 C69.8483009,271.582999 69.9821329,271.198003 69.9821329,270.67 L69.9821329,270.428 Z M69.9711329,266.182 C69.8684657,266.152667 69.7309671,266.125167 69.5586329,266.0995 C69.3862987,266.073833 69.1534677,266.061 68.8601329,266.061 C68.3101302,266.061 67.8866344,266.240665 67.5896329,266.6 C67.2926314,266.959335 67.1441329,267.435997 67.1441329,268.03 C67.1441329,268.360002 67.1862992,268.642332 67.2706329,268.877 C67.3549667,269.111668 67.4686322,269.305999 67.6116329,269.46 C67.7546336,269.614001 67.919632,269.727666 68.1066329,269.801 C68.2936339,269.874334 68.4861319,269.911 68.6841329,269.911 C68.9554676,269.911 69.2047985,269.8725 69.4321329,269.7955 C69.6594674,269.7185 69.8391323,269.628667 69.9711329,269.526 L69.9711329,266.182 Z M77.3081329,270.835 C77.0734651,270.893667 76.7636349,270.956 76.3786329,271.022 C75.993631,271.088 75.5481355,271.121 75.0421329,271.121 C74.6021307,271.121 74.2318011,271.056834 73.9311329,270.9285 C73.6304648,270.800166 73.3884672,270.618668 73.2051329,270.384 C73.0217987,270.149332 72.8898,269.872502 72.8091329,269.5535 C72.7284659,269.234498 72.6881329,268.880669 72.6881329,268.492 L72.6881329,265.28 L73.7111329,265.28 L73.7111329,268.272 C73.7111329,268.96867 73.8211318,269.467332 74.0411329,269.768 C74.261134,270.068668 74.6314637,270.219 75.1521329,270.219 C75.2621335,270.219 75.375799,270.215333 75.4931329,270.208 C75.6104668,270.200667 75.7204657,270.1915 75.8231329,270.1805 C75.9258001,270.1695 76.0192992,270.1585 76.1036329,270.1475 C76.1879667,270.1365 76.2484661,270.123667 76.2851329,270.109 L76.2851329,265.28 L77.3081329,265.28 L77.3081329,270.835 Z M80.7841329,271.11 C80.1534631,271.095333 79.7061342,270.959668 79.4421329,270.703 C79.1781316,270.446332 79.0461329,270.046669 79.0461329,269.504 L79.0461329,262.64 L80.0691329,262.464 L80.0691329,269.339 C80.0691329,269.507668 80.0837994,269.646999 80.1131329,269.757 C80.1424664,269.867001 80.1901326,269.955 80.2561329,270.021 C80.3221333,270.087 80.4101324,270.1365 80.5201329,270.1695 C80.6301335,270.2025 80.7657988,270.23 80.9271329,270.252 L80.7841329,271.11 Z M84.0071329,270.263 C84.2491341,270.263 84.463632,270.2575 84.6506329,270.2465 C84.8376339,270.2355 84.9934656,270.215333 85.1181329,270.186 L85.1181329,268.481 C85.0447992,268.444333 84.9256338,268.413167 84.7606329,268.3875 C84.5956321,268.361833 84.3958008,268.349 84.1611329,268.349 C84.0071322,268.349 83.8439671,268.36 83.6716329,268.382 C83.4992987,268.404 83.3416336,268.449833 83.1986329,268.5195 C83.0556322,268.589167 82.9364667,268.684499 82.8411329,268.8055 C82.7457991,268.926501 82.6981329,269.085999 82.6981329,269.284 C82.6981329,269.650668 82.8154651,269.905499 83.0501329,270.0485 C83.2848008,270.191501 83.6037976,270.263 84.0071329,270.263 Z M83.9191329,265.137 C84.3298016,265.137 84.6762982,265.190166 84.9586329,265.2965 C85.2409677,265.402834 85.4682987,265.553166 85.6406329,265.7475 C85.8129671,265.941834 85.9357992,266.172832 86.0091329,266.4405 C86.0824666,266.708168 86.1191329,267.003332 86.1191329,267.326 L86.1191329,270.901 C86.0311325,270.915667 85.9083004,270.935833 85.7506329,270.9615 C85.5929655,270.987167 85.4151339,271.011 85.2171329,271.033 C85.0191319,271.055 84.8046341,271.075167 84.5736329,271.0935 C84.3426318,271.111833 84.1134674,271.121 83.8861329,271.121 C83.5634646,271.121 83.2664676,271.088 82.9951329,271.022 C82.7237982,270.956 82.4891339,270.851501 82.2911329,270.7085 C82.0931319,270.565499 81.9391335,270.376668 81.8291329,270.142 C81.7191324,269.907332 81.6641329,269.625002 81.6641329,269.295 C81.6641329,268.979665 81.728299,268.708334 81.8566329,268.481 C81.9849669,268.253666 82.1591318,268.070334 82.3791329,267.931 C82.599134,267.791666 82.8557981,267.689 83.1491329,267.623 C83.4424677,267.557 83.7504646,267.524 84.0731329,267.524 C84.1758001,267.524 84.2821324,267.5295 84.3921329,267.5405 C84.5021335,267.5515 84.6066324,267.566167 84.7056329,267.5845 C84.8046334,267.602833 84.8907992,267.619333 84.9641329,267.634 C85.0374666,267.648667 85.0887994,267.659667 85.1181329,267.667 L85.1181329,267.381 C85.1181329,267.212332 85.0997998,267.045501 85.0631329,266.8805 C85.0264661,266.715499 84.9604667,266.568834 84.8651329,266.4405 C84.7697991,266.312166 84.6396338,266.2095 84.4746329,266.1325 C84.3096321,266.0555 84.0951342,266.017 83.8311329,266.017 C83.4937979,266.017 83.1986342,266.040833 82.9456329,266.0885 C82.6926317,266.136167 82.5038002,266.185666 82.3791329,266.237 L82.2581329,265.39 C82.3901336,265.331333 82.6101314,265.2745 82.9181329,265.2195 C83.2261345,265.1645 83.5597978,265.137 83.9191329,265.137 Z M89.9251329,265.159 C90.0131334,265.159 90.1139657,265.1645 90.2276329,265.1755 C90.3413002,265.1865 90.4531324,265.201167 90.5631329,265.2195 C90.6731335,265.237833 90.7739658,265.256167 90.8656329,265.2745 C90.9573001,265.292833 91.0251327,265.309333 91.0691329,265.324 L90.8931329,266.215 C90.8124659,266.185667 90.6786339,266.150834 90.4916329,266.1105 C90.304632,266.070166 90.0644677,266.05 89.7711329,266.05 C89.5804653,266.05 89.3916339,266.070166 89.2046329,266.1105 C89.017632,266.150834 88.8947999,266.178333 88.8361329,266.193 L88.8361329,271 L87.8131329,271 L87.8131329,265.522 C88.0551341,265.434 88.3557978,265.3515 88.7151329,265.2745 C89.0744681,265.1975 89.4777974,265.159 89.9251329,265.159 Z M94.7431329,264.95 C95.161135,264.788666 95.5681309,264.581501 95.9641329,264.3285 C96.3601349,264.075499 96.7231313,263.758335 97.0531329,263.377 L97.7791329,263.377 L97.7791329,271 L96.7561329,271 L96.7561329,264.796 C96.6681325,264.876667 96.5599669,264.961 96.4316329,265.049 C96.303299,265.137 96.163967,265.221333 96.0136329,265.302 C95.8632988,265.382667 95.7056338,265.459666 95.5406329,265.533 C95.3756321,265.606334 95.2161337,265.668666 95.0621329,265.72 L94.7431329,264.95 Z M100.947133,264.95 C101.365135,264.788666 101.772131,264.581501 102.168133,264.3285 C102.564135,264.075499 102.927131,263.758335 103.257133,263.377 L103.983133,263.377 L103.983133,271 L102.960133,271 L102.960133,264.796 C102.872132,264.876667 102.763967,264.961 102.635633,265.049 C102.507299,265.137 102.367967,265.221333 102.217633,265.302 C102.067299,265.382667 101.909634,265.459666 101.744633,265.533 C101.579632,265.606334 101.420134,265.668666 101.266133,265.72 L100.947133,264.95 Z M110.979133,268.151 C110.979133,267.483663 110.814135,266.970335 110.484133,266.611 C110.154131,266.251665 109.714136,266.072 109.164133,266.072 C108.856131,266.072 108.615967,266.083 108.443633,266.105 C108.271299,266.127 108.1338,266.152667 108.031133,266.182 L108.031133,269.79 C108.1558,269.892667 108.335465,269.991666 108.570133,270.087 C108.804801,270.182334 109.061465,270.23 109.340133,270.23 C109.633468,270.23 109.884632,270.176834 110.093633,270.0705 C110.302634,269.964166 110.473132,269.817501 110.605133,269.6305 C110.737134,269.443499 110.832466,269.223501 110.891133,268.9705 C110.9498,268.717499 110.979133,268.444335 110.979133,268.151 Z M112.046133,268.151 C112.046133,268.583669 111.9893,268.983331 111.875633,269.35 C111.761966,269.716668 111.595134,270.031999 111.375133,270.296 C111.155132,270.560001 110.885635,270.765333 110.566633,270.912 C110.247631,271.058667 109.882802,271.132 109.472133,271.132 C109.142131,271.132 108.850634,271.088 108.597633,271 C108.344632,270.912 108.1558,270.827667 108.031133,270.747 L108.031133,273.035 L107.008133,273.035 L107.008133,265.456 C107.250134,265.397333 107.552631,265.333167 107.915633,265.2635 C108.278635,265.193833 108.698464,265.159 109.175133,265.159 C109.615135,265.159 110.011131,265.228666 110.363133,265.368 C110.715135,265.507334 111.015798,265.705332 111.265133,265.962 C111.514468,266.218668 111.706966,266.532165 111.842633,266.9025 C111.9783,267.272835 112.046133,267.688998 112.046133,268.151 Z M116.721133,271 C116.640466,270.838666 116.541467,270.659001 116.424133,270.461 C116.306799,270.262999 116.178467,270.059501 116.039133,269.8505 C115.899799,269.641499 115.7568,269.434334 115.610133,269.229 C115.463466,269.023666 115.320467,268.829334 115.181133,268.646 C115.041799,268.829334 114.8988,269.025499 114.752133,269.2345 C114.605466,269.443501 114.4643,269.652499 114.328633,269.8615 C114.192966,270.070501 114.066467,270.273999 113.949133,270.472 C113.831799,270.670001 113.7328,270.845999 113.652133,271 L112.596133,271 C112.852801,270.501331 113.158964,269.993503 113.514633,269.4765 C113.870301,268.959497 114.224131,268.466336 114.576133,267.997 L112.684133,265.28 L113.839133,265.28 L115.203133,267.282 L116.578133,265.28 L117.667133,265.28 L115.819133,267.931 C116.171135,268.407669 116.532298,268.911831 116.902633,269.4435 C117.272968,269.975169 117.586465,270.493997 117.843133,271 L116.721133,271 Z"/>
    <path fill="#0C0C0D" d="M66.972 24.053L66.972 26 53.97 26 53.97 3.131 56.214 3.131 56.214 24.053 66.972 24.053zM72.549 26L70.404 26 70.404 8.939 72.549 8.939 72.549 26zM73.044 3.791C73.044 4.29700253 72.8900015 4.69849852 72.582 4.9955 72.2739985 5.29250149 71.9000022 5.441 71.46 5.441 71.0199978 5.441 70.6460015 5.29250149 70.338 4.9955 70.0299985 4.69849852 69.876 4.29700253 69.876 3.791 69.876 3.28499747 70.0299985 2.88350149 70.338 2.5865 70.6460015 2.28949852 71.0199978 2.141 71.46 2.141 71.9000022 2.141 72.2739985 2.28949852 72.582 2.5865 72.8900015 2.88350149 73.044 3.28499747 73.044 3.791zM89.346 24.02C89.2139993 24.1300006 89.0160013 24.2564993 88.752 24.3995 88.4879987 24.5425007 88.1635019 24.6909992 87.7785 24.845 87.3934981 24.9990008 86.9535025 25.1254995 86.4585 25.2245 85.9634975 25.3235005 85.4080031 25.373 84.792 25.373 83.801995 25.373 82.8450046 25.2190015 81.921 24.911 80.9969954 24.6029985 80.1885035 24.1190033 79.4955 23.459 78.8024965 22.7989967 78.2470021 21.9465052 77.829 20.9015 77.4109979 19.8564948 77.202 18.5860075 77.202 17.09 77.202 15.879994 77.3889981 14.7580052 77.763 13.724 78.1370019 12.6899948 78.6704965 11.7935038 79.3635 11.0345 80.0565035 10.2754962 80.903495 9.68150215 81.9045 9.2525 82.905505 8.82349786 84.0329937 8.609 85.287 8.609 86.8710079 8.609 88.1414952 8.71349896 89.0985 8.9225 90.0555048 9.13150105 90.8419969 9.33499901 91.458 9.533L91.458 25.109C91.458 27.6610128 90.7980066 29.4814946 89.478 30.5705 88.1579934 31.6595054 86.1670133 32.204 83.505 32.204 82.4049945 32.204 81.4095045 32.1215008 80.5185 31.9565 79.6274955 31.7914992 78.8630032 31.5990011 78.225 31.379L78.654 29.432C79.1820026 29.6740012 79.9024954 29.8829991 80.8155 30.059 81.7285046 30.2350009 82.6469954 30.323 83.571 30.323 85.5950101 30.323 87.0634954 29.9325039 87.9765 29.1515 88.8895046 28.3704961 89.346 27.0340095 89.346 25.142L89.346 24.02zM89.313 11.018C88.9389981 10.9079995 88.455003 10.8035005 87.861 10.7045 87.266997 10.6054995 86.4200055 10.556 85.32 10.556 84.3959954 10.556 83.5765036 10.7154984 82.8615 11.0345 82.1464964 11.3535016 81.5360025 11.8044971 81.03 12.3875 80.5239975 12.9705029 80.1390013 13.663496 79.875 14.4665 79.6109987 15.269504 79.479 16.1549952 79.479 17.123 79.479 18.2450056 79.6329985 19.207496 79.941 20.0105 80.2490015 20.813504 80.6504975 21.4679975 81.1455 21.974 81.6405025 22.4800025 82.2069968 22.8484988 82.845 23.0795 83.4830032 23.3105012 84.1319967 23.426 84.792 23.426 85.7600048 23.426 86.645496 23.2830014 87.4485 22.997 88.251504 22.7109986 88.8729978 22.3810019 89.313 22.007L89.313 11.018zM97.134 26L97.134.788 99.279.392 99.279 9.434C99.9830035 9.16999868 100.697996 8.96650072 101.424 8.8235 102.150004 8.68049929 102.875996 8.609 103.602 8.609 104.922007 8.609 106.021996 8.79599813 106.902 9.17 107.782004 9.54400187 108.485997 10.0774965 109.014 10.7705 109.542003 11.4635035 109.910499 12.2939952 110.1195 13.262 110.328501 14.2300048 110.433 15.2969942 110.433 16.463L110.433 26 108.288 26 108.288 17.156C108.288 15.945994 108.205501 14.9230042 108.0405 14.087 107.875499 13.2509958 107.600502 12.5690026 107.2155 12.041 106.830498 11.5129974 106.319003 11.1335012 105.681 10.9025 105.042997 10.6714988 104.240005 10.556 103.272 10.556 102.897998 10.556 102.496502 10.5889997 102.0675 10.655 101.638498 10.7210003 101.237002 10.7924996 100.863 10.8695 100.488998 10.9465004 100.153501 11.0289996 99.8565 11.117 99.5594985 11.2050004 99.3670004 11.2709998 99.279 11.315L99.279 26 97.134 26zM117.924 8.939L124.722 8.939 124.722 10.754 117.924 10.754 117.924 19.829C117.924 20.7970048 118.006499 21.583497 118.1715 22.1885 118.336501 22.793503 118.572998 23.2609984 118.881 23.591 119.189002 23.9210017 119.562998 24.1409995 120.003 24.251 120.443002 24.3610006 120.926997 24.416 121.455 24.416 122.357005 24.416 123.082997 24.311501 123.633 24.1025 124.183003 23.893499 124.611998 23.7010009 124.92 23.525L125.448 25.307C125.139998 25.505001 124.601004 25.7304987 123.831 25.9835 123.060996 26.2365013 122.225005 26.363 121.323 26.363 120.266995 26.363 119.381504 26.2255014 118.6665 25.9505 117.951496 25.6754986 117.379502 25.2575028 116.9505 24.6965 116.521498 24.1354972 116.219001 23.4370042 116.043 22.601 115.866999 21.7649958 115.779 20.7750057 115.779 19.631L115.779 3.923 117.924 3.527 117.924 8.939zM141.123 24.515C143.21301 24.515 144.708995 24.0805043 145.611 23.2115 146.513005 22.3424957 146.964 21.1710074 146.964 19.697 146.964 18.7289952 146.782502 17.9260032 146.4195 17.288 146.056498 16.6499968 145.561503 16.1385019 144.9345 15.7535 144.307497 15.3684981 143.581504 15.0935008 142.7565 14.9285 141.931496 14.7634992 141.057005 14.681 140.133 14.681L139.803 14.681 139.803 12.899 140.562 12.899C141.156003 12.899 141.766497 12.8385006 142.3935 12.7175 143.020503 12.5964994 143.592497 12.3710017 144.1095 12.041 144.626503 11.7109984 145.055498 11.2710028 145.3965 10.721 145.737502 10.1709973 145.908 9.46700429 145.908 8.609 145.908 7.88299637 145.787001 7.26150259 145.545 6.7445 145.302999 6.22749742 144.978502 5.81500154 144.5715 5.507 144.164498 5.19899846 143.691503 4.97350072 143.1525 4.8305 142.613497 4.68749929 142.047003 4.616 141.453 4.616 140.264994 4.616 139.341003 4.78099835 138.681 5.111 138.020997 5.44100165 137.482002 5.74899857 137.064 6.035L136.14 4.352C136.360001 4.19799923 136.640498 4.02200099 136.9815 3.824 137.322502 3.62599901 137.723998 3.43900088 138.186 3.263 138.648002 3.08699912 139.159497 2.93850061 139.7205 2.8175 140.281503 2.6964994 140.891997 2.636 141.552 2.636 142.696006 2.636 143.680496 2.77899857 144.5055 3.065 145.330504 3.35100143 146.017997 3.75249742 146.568 4.2695 147.118003 4.78650259 147.524999 5.40249643 147.789 6.1175 148.053001 6.83250358 148.185 7.60799582 148.185 8.444 148.185 9.78600671 147.827504 10.8804958 147.1125 11.7275 146.397496 12.5745042 145.479006 13.1849981 144.357 13.559 144.973003 13.7130008 145.572497 13.9494984 146.1555 14.2685 146.738503 14.5875016 147.260998 14.9944975 147.723 15.4895 148.185002 15.9845025 148.558999 16.5839965 148.845 17.288 149.131001 17.9920035 149.274 18.8169953 149.274 19.763 149.274 20.7310048 149.103502 21.6219959 148.7625 22.436 148.421498 23.2500041 147.915503 23.959497 147.2445 24.5645 146.573497 25.169503 145.721005 25.6424983 144.687 25.9835 143.652995 26.3245017 142.443007 26.495 141.057 26.495 140.330996 26.495 139.665503 26.4455005 139.0605 26.3465 138.455497 26.2474995 137.922002 26.1320007 137.46 26 136.997998 25.8679993 136.607502 25.7360007 136.2885 25.604 135.969498 25.4719993 135.733001 25.3620004 135.579 25.274L136.14 23.36C136.272001 23.4480004 136.491998 23.5579993 136.8 23.69 137.108002 23.8220007 137.476498 23.9484994 137.9055 24.0695 138.334502 24.1905006 138.818497 24.2949996 139.3575 24.383 139.896503 24.4710004 140.484997 24.515 141.123 24.515zM159.735 24.515C161.82501 24.515 163.320995 24.0805043 164.223 23.2115 165.125005 22.3424957 165.576 21.1710074 165.576 19.697 165.576 18.7289952 165.394502 17.9260032 165.0315 17.288 164.668498 16.6499968 164.173503 16.1385019 163.5465 15.7535 162.919497 15.3684981 162.193504 15.0935008 161.3685 14.9285 160.543496 14.7634992 159.669005 14.681 158.745 14.681L158.415 14.681 158.415 12.899 159.174 12.899C159.768003 12.899 160.378497 12.8385006 161.0055 12.7175 161.632503 12.5964994 162.204497 12.3710017 162.7215 12.041 163.238503 11.7109984 163.667498 11.2710028 164.0085 10.721 164.349502 10.1709973 164.52 9.46700429 164.52 8.609 164.52 7.88299637 164.399001 7.26150259 164.157 6.7445 163.914999 6.22749742 163.590502 5.81500154 163.1835 5.507 162.776498 5.19899846 162.303503 4.97350072 161.7645 4.8305 161.225497 4.68749929 160.659003 4.616 160.065 4.616 158.876994 4.616 157.953003 4.78099835 157.293 5.111 156.632997 5.44100165 156.094002 5.74899857 155.676 6.035L154.752 4.352C154.972001 4.19799923 155.252498 4.02200099 155.5935 3.824 155.934502 3.62599901 156.335998 3.43900088 156.798 3.263 157.260002 3.08699912 157.771497 2.93850061 158.3325 2.8175 158.893503 2.6964994 159.503997 2.636 160.164 2.636 161.308006 2.636 162.292496 2.77899857 163.1175 3.065 163.942504 3.35100143 164.629997 3.75249742 165.18 4.2695 165.730003 4.78650259 166.136999 5.40249643 166.401 6.1175 166.665001 6.83250358 166.797 7.60799582 166.797 8.444 166.797 9.78600671 166.439504 10.8804958 165.7245 11.7275 165.009496 12.5745042 164.091006 13.1849981 162.969 13.559 163.585003 13.7130008 164.184497 13.9494984 164.7675 14.2685 165.350503 14.5875016 165.872998 14.9944975 166.335 15.4895 166.797002 15.9845025 167.170999 16.5839965 167.457 17.288 167.743001 17.9920035 167.886 18.8169953 167.886 19.763 167.886 20.7310048 167.715502 21.6219959 167.3745 22.436 167.033498 23.2500041 166.527503 23.959497 165.8565 24.5645 165.185497 25.169503 164.333005 25.6424983 163.299 25.9835 162.264995 26.3245017 161.055007 26.495 159.669 26.495 158.942996 26.495 158.277503 26.4455005 157.6725 26.3465 157.067497 26.2474995 156.534002 26.1320007 156.072 26 155.609998 25.8679993 155.219502 25.7360007 154.9005 25.604 154.581498 25.4719993 154.345001 25.3620004 154.191 25.274L154.752 23.36C154.884001 23.4480004 155.103998 23.5579993 155.412 23.69 155.720002 23.8220007 156.088498 23.9484994 156.5175 24.0695 156.946502 24.1905006 157.430497 24.2949996 157.9695 24.383 158.508503 24.4710004 159.096997 24.515 159.735 24.515zM175.575 22.931C175.773001 23.0850008 176.020499 23.2499991 176.3175 23.426 176.614501 23.6020009 176.960998 23.7669992 177.357 23.921 177.753002 24.0750008 178.181998 24.2014995 178.644 24.3005 179.106002 24.3995005 179.589997 24.449 180.096 24.449 181.152005 24.449 182.037496 24.2675018 182.7525 23.9045 183.467504 23.5414982 184.044998 23.0465031 184.485 22.4195 184.925002 21.7924969 185.243999 21.0555042 185.442 20.2085 185.640001 19.3614958 185.739 18.4650047 185.739 17.519 185.739 15.2749888 185.178006 13.553506 184.056 12.3545 182.933994 11.155494 181.449009 10.556 179.601 10.556 178.544995 10.556 177.692503 10.6054995 177.0435 10.7045 176.394497 10.8035005 175.905002 10.9079995 175.575 11.018L175.575 22.931zM175.575 32.105L173.43 32.105 173.43 9.533C174.068003 9.3129989 174.881995 9.10400099 175.872 8.906 176.862005 8.70799901 178.115992 8.609 179.634 8.609 180.888006 8.609 182.026495 8.81249797 183.0495 9.2195 184.072505 9.62650204 184.952496 10.2149962 185.6895 10.985 186.426504 11.7550039 186.998498 12.6899945 187.4055 13.79 187.812502 14.8900055 188.016 16.1329931 188.016 17.519 188.016 18.8170065 187.845502 20.0104946 187.5045 21.0995 187.163498 22.1885054 186.663003 23.1234961 186.003 23.9045 185.342997 24.6855039 184.534505 25.2959978 183.5775 25.736 182.620495 26.1760022 181.526006 26.396 180.294 26.396 179.171994 26.396 178.198504 26.2365016 177.3735 25.9175 176.548496 25.5984984 175.949002 25.2960014 175.575 25.01L175.575 32.105zM197.718 18.278C197.233998 18.9160032 196.750002 19.5869965 196.266 20.291 195.781998 20.9950035 195.314502 21.6879966 194.8635 22.37 194.412498 23.0520034 194.000002 23.7064969 193.626 24.3335 193.251998 24.9605031 192.933001 25.5159976 192.669 26L190.458 26C191.360005 24.3059915 192.305995 22.7275073 193.296 21.2645 194.286005 19.8014927 195.297995 18.366007 196.332 16.958L190.788 8.939 193.296 8.939 197.718 15.473 202.206 8.939 204.549 8.939 199.104 16.826C199.566002 17.4420031 200.060997 18.1129964 200.589 18.839 201.117003 19.5650036 201.644997 20.3184961 202.173 21.0995 202.701003 21.8805039 203.212498 22.6889958 203.7075 23.525 204.202502 24.3610042 204.658998 25.1859959 205.077 26L202.767 26C202.502999 25.5159976 202.184002 24.9605031 201.81 24.3335 201.435998 23.7064969 201.023502 23.0520034 200.5725 22.37 200.121498 21.6879966 199.648502 20.9950035 199.1535 20.291 198.658498 19.5869965 198.180002 18.9160032 197.718 18.278zM58.8231329 188.65C58.9831337 188.850001 59.1856317 189.112498 59.4306329 189.4375 59.6756342 189.762502 59.9281316 190.122498 60.1881329 190.5175 60.4481342 190.912502 60.7056317 191.324998 60.9606329 191.755 61.2156342 192.185002 61.433132 192.599998 61.6131329 193L60.0231329 193C59.8231319 192.619998 59.6056341 192.235002 59.3706329 191.845 59.1356318 191.454998 58.8981341 191.082502 58.6581329 190.7275 58.4181317 190.372498 58.1806341 190.040002 57.9456329 189.73 57.7106318 189.419998 57.4981339 189.150001 57.3081329 188.92 57.1781323 188.93 57.0456336 188.935 56.9106329 188.935L55.1931329 188.935 55.1931329 193 53.7381329 193 53.7381329 182.755C54.148135 182.655 54.6056304 182.5875 55.1106329 182.5525 55.6156355 182.5175 56.0781308 182.5 56.4981329 182.5 57.9581402 182.5 59.0706291 182.774997 59.8356329 183.325 60.6006368 183.875003 60.9831329 184.694995 60.9831329 185.785 60.9831329 186.475003 60.8006348 187.064998 60.4356329 187.555 60.0706311 188.045002 59.5331365 188.409999 58.8231329 188.65zM56.6181329 183.775C55.9981298 183.775 55.5231346 183.79 55.1931329 183.82L55.1931329 187.735 56.2281329 187.735C56.7281354 187.735 57.1781309 187.71 57.5781329 187.66 57.9781349 187.61 58.3156316 187.515001 58.5906329 187.375 58.8656343 187.234999 59.0781322 187.037501 59.2281329 186.7825 59.3781337 186.527499 59.4531329 186.190002 59.4531329 185.77 59.4531329 185.379998 59.3781337 185.055001 59.2281329 184.795 59.0781322 184.534999 58.8756342 184.330001 58.6206329 184.18 58.3656317 184.029999 58.0656347 183.925 57.7206329 183.865 57.3756312 183.805 57.0081349 183.775 56.6181329 183.775zM62.6481329 189.115C62.6481329 188.424997 62.7481319 187.822503 62.9481329 187.3075 63.1481339 186.792497 63.4131313 186.365002 63.7431329 186.025 64.0731346 185.684998 64.4531308 185.430001 64.8831329 185.26 65.3131351 185.089999 65.7531307 185.005 66.2031329 185.005 67.2531382 185.005 68.0581301 185.332497 68.6181329 185.9875 69.1781357 186.642503 69.4581329 187.639993 69.4581329 188.98L69.4581329 189.2125C69.4581329 189.3075 69.453133 189.395 69.4431329 189.475L64.1031329 189.475C64.1631332 190.285004 64.3981309 190.899998 64.8081329 191.32 65.218135 191.740002 65.8581286 191.95 66.7281329 191.95 67.2181354 191.95 67.6306313 191.9075 67.9656329 191.8225 68.3006346 191.7375 68.5531321 191.655 68.7231329 191.575L68.9181329 192.745C68.7481321 192.835 68.4506351 192.93 68.0256329 193.03 67.6006308 193.130001 67.1181356 193.18 66.5781329 193.18 65.8981295 193.18 65.3106354 193.077501 64.8156329 192.8725 64.3206305 192.667499 63.9131345 192.385002 63.5931329 192.025 63.2731313 191.664998 63.0356337 191.237502 62.8806329 190.7425 62.7256322 190.247498 62.6481329 189.705003 62.6481329 189.115zM68.0031329 188.35C68.013133 187.719997 67.8556346 187.202502 67.5306329 186.7975 67.2056313 186.392498 66.7581358 186.19 66.1881329 186.19 65.8681313 186.19 65.5856342 186.252499 65.3406329 186.3775 65.0956317 186.502501 64.8881338 186.664999 64.7181329 186.865 64.5481321 187.065001 64.4156334 187.294999 64.3206329 187.555 64.2256325 187.815001 64.1631331 188.079999 64.1331329 188.35L68.0031329 188.35zM76.3581329 192.22C76.2381323 192.3 76.0056347 192.402499 75.6606329 192.5275 75.3156312 192.652501 74.9131352 192.715 74.4531329 192.715 73.9831306 192.715 73.540635 192.640001 73.1256329 192.49 72.7106309 192.339999 72.3481345 192.107502 72.0381329 191.7925 71.7281314 191.477498 71.4831338 191.085002 71.3031329 190.615 71.123132 190.144998 71.0331329 189.585003 71.0331329 188.935 71.0331329 188.364997 71.1181321 187.842502 71.2881329 187.3675 71.4581338 186.892498 71.7056313 186.482502 72.0306329 186.1375 72.3556346 185.792498 72.7531306 185.522501 73.2231329 185.3275 73.6931353 185.132499 74.22313 185.035 74.8131329 185.035 75.4631362 185.035 76.0306305 185.0825 76.5156329 185.1775 77.0006354 185.2725 77.4081313 185.36 77.7381329 185.44L77.7381329 192.4C77.7381329 193.600006 77.428136 194.469997 76.8081329 195.01 76.1881298 195.550003 75.2481392 195.82 73.9881329 195.82 73.4981305 195.82 73.0356351 195.78 72.6006329 195.7 72.1656308 195.62 71.7881345 195.525001 71.4681329 195.415L71.7231329 194.2C72.0031343 194.310001 72.3456309 194.4075 72.7506329 194.4925 73.155635 194.5775 73.5781307 194.62 74.0181329 194.62 74.8481371 194.62 75.4456311 194.455002 75.8106329 194.125 76.1756348 193.794998 76.3581329 193.270004 76.3581329 192.55L76.3581329 192.22zM76.3431329 186.43C76.2031322 186.39 76.0156341 186.3525 75.7806329 186.3175 75.5456318 186.2825 75.2281349 186.265 74.8281329 186.265 74.0781292 186.265 73.500635 186.509998 73.0956329 187 72.6906309 187.490002 72.4881329 188.139996 72.4881329 188.95 72.4881329 189.400002 72.5456324 189.784998 72.6606329 190.105 72.7756335 190.425002 72.930632 190.689999 73.1256329 190.9 73.3206339 191.110001 73.5456317 191.265 73.8006329 191.365 74.0556342 191.465001 74.3181316 191.515 74.5881329 191.515 74.9581348 191.515 75.2981314 191.462501 75.6081329 191.3575 75.9181345 191.252499 76.163132 191.130001 76.3431329 190.99L76.3431329 186.43zM86.3481329 192.775C86.0281313 192.855 85.6056356 192.94 85.0806329 193.03 84.5556303 193.12 83.9481364 193.165 83.2581329 193.165 82.6581299 193.165 82.153135 193.077501 81.7431329 192.9025 81.3331309 192.727499 81.0031342 192.480002 80.7531329 192.16 80.5031317 191.839998 80.3231335 191.462502 80.2131329 191.0275 80.1031324 190.592498 80.0481329 190.110003 80.0481329 189.58L80.0481329 185.2 81.4431329 185.2 81.4431329 189.28C81.4431329 190.230005 81.5931314 190.909998 81.8931329 191.32 82.1931344 191.730002 82.6981294 191.935 83.4081329 191.935 83.5581337 191.935 83.7131321 191.93 83.8731329 191.92 84.0331337 191.91 84.1831322 191.8975 84.3231329 191.8825 84.4631336 191.8675 84.5906324 191.8525 84.7056329 191.8375 84.8206335 191.8225 84.9031327 191.805 84.9531329 191.785L84.9531329 185.2 86.3481329 185.2 86.3481329 192.775zM91.0881329 193.15C90.2281286 193.13 89.6181347 192.945002 89.2581329 192.595 88.8981311 192.244998 88.7181329 191.700004 88.7181329 190.96L88.7181329 181.6 90.1131329 181.36 90.1131329 190.735C90.1131329 190.965001 90.1331327 191.154999 90.1731329 191.305 90.2131331 191.455001 90.2781325 191.575 90.3681329 191.665 90.4581334 191.755 90.5781322 191.8225 90.7281329 191.8675 90.8781337 191.9125 91.0631318 191.95 91.2831329 191.98L91.0881329 193.15zM95.4831329 191.995C95.8131346 191.995 96.1056317 191.9875 96.3606329 191.9725 96.6156342 191.9575 96.8281321 191.93 96.9981329 191.89L96.9981329 189.565C96.8981324 189.515 96.7356341 189.4725 96.5106329 189.4375 96.2856318 189.4025 96.0131345 189.385 95.6931329 189.385 95.4831319 189.385 95.2606341 189.4 95.0256329 189.43 94.7906318 189.46 94.5756339 189.5225 94.3806329 189.6175 94.185632 189.7125 94.0231336 189.842499 93.8931329 190.0075 93.7631323 190.172501 93.6981329 190.389999 93.6981329 190.66 93.6981329 191.160003 93.8581313 191.507499 94.1781329 191.7025 94.4981345 191.897501 94.9331302 191.995 95.4831329 191.995zM95.3631329 185.005C95.9231357 185.005 96.395631 185.077499 96.7806329 185.2225 97.1656349 185.367501 97.4756318 185.572499 97.7106329 185.8375 97.9456341 186.102501 98.1131324 186.417498 98.2131329 186.7825 98.3131334 187.147502 98.3631329 187.549998 98.3631329 187.99L98.3631329 192.865C98.2431323 192.885 98.075634 192.9125 97.8606329 192.9475 97.6456319 192.9825 97.4031343 193.015 97.1331329 193.045 96.8631316 193.075 96.5706345 193.1025 96.2556329 193.1275 95.9406314 193.1525 95.6281345 193.165 95.3181329 193.165 94.8781307 193.165 94.4731348 193.12 94.1031329 193.03 93.7331311 192.94 93.4131343 192.797501 93.1431329 192.6025 92.8731316 192.407499 92.6631337 192.150002 92.5131329 191.83 92.3631322 191.509998 92.2881329 191.125002 92.2881329 190.675 92.2881329 190.244998 92.3756321 189.875002 92.5506329 189.565 92.7256338 189.254998 92.9631314 189.005001 93.2631329 188.815 93.5631344 188.624999 93.9131309 188.485 94.3131329 188.395 94.7131349 188.305 95.1331307 188.26 95.5731329 188.26 95.7131336 188.26 95.8581322 188.2675 96.0081329 188.2825 96.1581337 188.2975 96.3006323 188.3175 96.4356329 188.3425 96.5706336 188.3675 96.6881324 188.39 96.7881329 188.41 96.8881334 188.43 96.9581327 188.445 96.9981329 188.455L96.9981329 188.065C96.9981329 187.834999 96.9731332 187.607501 96.9231329 187.3825 96.8731327 187.157499 96.7831336 186.957501 96.6531329 186.7825 96.5231323 186.607499 96.3456341 186.467501 96.1206329 186.3625 95.8956318 186.257499 95.6031347 186.205 95.2431329 186.205 94.7831306 186.205 94.3806347 186.2375 94.0356329 186.3025 93.6906312 186.3675 93.4331338 186.435 93.2631329 186.505L93.0981329 185.35C93.2781338 185.27 93.5781308 185.1925 93.9981329 185.1175 94.418135 185.0425 94.8731305 185.005 95.3631329 185.005zM103.553133 185.035C103.673134 185.035 103.810632 185.0425 103.965633 185.0575 104.120634 185.0725 104.273132 185.0925 104.423133 185.1175 104.573134 185.1425 104.710632 185.1675 104.835633 185.1925 104.960634 185.2175 105.053133 185.24 105.113133 185.26L104.873133 186.475C104.763132 186.435 104.580634 186.3875 104.325633 186.3325 104.070632 186.2775 103.743135 186.25 103.343133 186.25 103.083132 186.25 102.825634 186.2775 102.570633 186.3325 102.315632 186.3875 102.148133 186.425 102.068133 186.445L102.068133 193 100.673133 193 100.673133 185.53C101.003135 185.409999 101.41313 185.297501 101.903133 185.1925 102.393135 185.087499 102.94313 185.035 103.553133 185.035zM110.123133 184.75C110.693136 184.529999 111.24813 184.247502 111.788133 183.9025 112.328136 183.557498 112.823131 183.125003 113.273133 182.605L114.263133 182.605 114.263133 193 112.868133 193 112.868133 184.54C112.748132 184.650001 112.600634 184.764999 112.425633 184.885 112.250632 185.005001 112.060634 185.119999 111.855633 185.23 111.650632 185.340001 111.435634 185.445 111.210633 185.545 110.985632 185.645001 110.768134 185.73 110.558133 185.8L110.123133 184.75zM120.173133 186.61C121.68314 186.67 122.790629 186.999997 123.495633 187.6 124.200636 188.200003 124.553133 189.014995 124.553133 190.045 124.553133 190.505002 124.475634 190.929998 124.320633 191.32 124.165632 191.710002 123.930635 192.044999 123.615633 192.325 123.300631 192.605001 122.903135 192.824999 122.423133 192.985 121.943131 193.145001 121.373136 193.225 120.713133 193.225 120.453132 193.225 120.188134 193.205 119.918133 193.165 119.648132 193.125 119.398134 193.075 119.168133 193.015 118.938132 192.955 118.733134 192.895 118.553133 192.835 118.373132 192.775 118.243133 192.725 118.163133 192.685L118.433133 191.47C118.603134 191.55 118.880631 191.654999 119.265633 191.785 119.650635 191.915001 120.12313 191.98 120.683133 191.98 121.133135 191.98 121.510631 191.930001 121.815633 191.83 122.120634 191.73 122.368132 191.595001 122.558133 191.425 122.748134 191.254999 122.885633 191.057501 122.970633 190.8325 123.055633 190.607499 123.098133 190.370001 123.098133 190.12 123.098133 189.739998 123.033134 189.402501 122.903133 189.1075 122.773132 188.812499 122.543135 188.565001 122.213133 188.365 121.883131 188.164999 121.443136 188.012501 120.893133 187.9075 120.34313 187.802499 119.648137 187.75 118.808133 187.75 118.868133 187.259998 118.915633 186.800002 118.950633 186.37 118.985633 185.939998 119.018133 185.520002 119.048133 185.11 119.078133 184.699998 119.103133 184.292502 119.123133 183.8875 119.143133 183.482498 119.163133 183.055002 119.183133 182.605L124.193133 182.605 124.193133 183.79 120.398133 183.79C120.388133 183.940001 120.373133 184.142499 120.353133 184.3975 120.333133 184.652501 120.313133 184.917499 120.293133 185.1925 120.273133 185.467501 120.253133 185.734999 120.233133 185.995 120.213133 186.255001 120.193133 186.459999 120.173133 186.61zM132.263133 189.115C132.263133 188.204995 132.038135 187.505002 131.588133 187.015 131.138131 186.524998 130.538137 186.28 129.788133 186.28 129.368131 186.28 129.040634 186.295 128.805633 186.325 128.570632 186.355 128.383134 186.39 128.243133 186.43L128.243133 191.35C128.413134 191.490001 128.658131 191.624999 128.978133 191.755 129.298135 191.885001 129.648131 191.95 130.028133 191.95 130.428135 191.95 130.770632 191.877501 131.055633 191.7325 131.340634 191.587499 131.573132 191.387501 131.753133 191.1325 131.933134 190.877499 132.063133 190.577502 132.143133 190.2325 132.223133 189.887498 132.263133 189.515002 132.263133 189.115zM133.718133 189.115C133.718133 189.705003 133.640634 190.249998 133.485633 190.75 133.330632 191.250003 133.103134 191.679998 132.803133 192.04 132.503131 192.400002 132.135635 192.679999 131.700633 192.88 131.265631 193.080001 130.768136 193.18 130.208133 193.18 129.758131 193.18 129.360635 193.120001 129.015633 193 128.670631 192.879999 128.413134 192.765001 128.243133 192.655L128.243133 195.775 126.848133 195.775 126.848133 185.44C127.178135 185.36 127.59063 185.2725 128.085633 185.1775 128.580635 185.0825 129.15313 185.035 129.803133 185.035 130.403136 185.035 130.943131 185.129999 131.423133 185.32 131.903135 185.510001 132.313131 185.779998 132.653133 186.13 132.993135 186.480002 133.255632 186.907497 133.440633 187.4125 133.625634 187.917503 133.718133 188.484997 133.718133 189.115zM140.093133 193C139.983132 192.779999 139.848134 192.535001 139.688133 192.265 139.528132 191.994999 139.353134 191.717501 139.163133 191.4325 138.973132 191.147499 138.778134 190.865001 138.578133 190.585 138.378132 190.304999 138.183134 190.040001 137.993133 189.79 137.803132 190.040001 137.608134 190.307499 137.408133 190.5925 137.208132 190.877501 137.015634 191.162499 136.830633 191.4475 136.645632 191.732501 136.473134 192.009999 136.313133 192.28 136.153132 192.550001 136.018133 192.789999 135.908133 193L134.468133 193C134.818135 192.319997 135.235631 191.627504 135.720633 190.9225 136.205635 190.217496 136.688131 189.545003 137.168133 188.905L134.588133 185.2 136.163133 185.2 138.023133 187.93 139.898133 185.2 141.383133 185.2 138.863133 188.815C139.343135 189.465003 139.83563 190.152496 140.340633 190.8775 140.845635 191.602504 141.273131 192.309997 141.623133 193L140.093133 193zM63.0961329 81.702L63.0961329 83 54.4281329 83 54.4281329 67.754 55.9241329 67.754 55.9241329 81.702 63.0961329 81.702zM66.8141329 83L65.3841329 83 65.3841329 71.626 66.8141329 71.626 66.8141329 83zM67.1441329 68.194C67.1441329 68.531335 67.0414673 68.798999 66.8361329 68.997 66.6307986 69.195001 66.3814677 69.294 66.0881329 69.294 65.7947981 69.294 65.5454673 69.195001 65.3401329 68.997 65.1347986 68.798999 65.0321329 68.531335 65.0321329 68.194 65.0321329 67.856665 65.1347986 67.589001 65.3401329 67.391 65.5454673 67.192999 65.7947981 67.094 66.0881329 67.094 66.3814677 67.094 66.6307986 67.192999 66.8361329 67.391 67.0414673 67.589001 67.1441329 67.856665 67.1441329 68.194zM78.0121329 81.68C77.9241325 81.7533337 77.7921338 81.8376662 77.6161329 81.933 77.440132 82.0283338 77.2238009 82.1273328 76.9671329 82.23 76.710465 82.3326672 76.4171346 82.4169997 76.0871329 82.483 75.7571313 82.5490003 75.3868016 82.582 74.9761329 82.582 74.3161296 82.582 73.678136 82.4793344 73.0621329 82.274 72.4461298 82.0686656 71.9071352 81.7460022 71.4451329 81.306 70.9831306 80.8659978 70.612801 80.2976701 70.3341329 79.601 70.0554649 78.9043298 69.9161329 78.0573383 69.9161329 77.06 69.9161329 76.2533293 70.0407983 75.5053368 70.2901329 74.816 70.5394675 74.1266632 70.8951306 73.5290025 71.3571329 73.023 71.8191352 72.5169975 72.3837963 72.1210014 73.0511329 71.835 73.7184696 71.5489986 74.4701287 71.406 75.3061329 71.406 76.3621382 71.406 77.2091297 71.475666 77.8471329 71.615 78.4851361 71.754334 79.0094642 71.8899993 79.4201329 72.022L79.4201329 82.406C79.4201329 84.1073418 78.9801373 85.3209964 78.1001329 86.047 77.2201285 86.7730036 75.8928085 87.136 74.1181329 87.136 73.3847959 87.136 72.7211359 87.0810005 72.1271329 86.971 71.53313 86.8609994 71.0234684 86.7326674 70.5981329 86.586L70.8841329 85.288C71.2361347 85.4493341 71.7164632 85.5886661 72.3251329 85.706 72.9338026 85.8233339 73.5461298 85.882 74.1621329 85.882 75.511473 85.882 76.4904632 85.6216693 77.0991329 85.101 77.7078026 84.5803307 78.0121329 83.6893396 78.0121329 82.428L78.0121329 81.68zM77.9901329 73.012C77.7407983 72.9386663 77.4181349 72.8690003 77.0221329 72.803 76.6261309 72.7369997 76.0614699 72.704 75.3281329 72.704 74.7121298 72.704 74.165802 72.8103323 73.6891329 73.023 73.2124639 73.2356677 72.8054679 73.5363314 72.4681329 73.925 72.1307979 74.3136686 71.8741338 74.775664 71.6981329 75.311 71.522132 75.846336 71.4341329 76.4366634 71.4341329 77.082 71.4341329 77.8300037 71.5367986 78.471664 71.7421329 79.007 71.9474673 79.542336 72.2151313 79.978665 72.5451329 80.316 72.8751346 80.653335 73.2527975 80.8989992 73.6781329 81.053 74.1034684 81.2070008 74.5361307 81.284 74.9761329 81.284 75.6214695 81.284 76.2117969 81.1886676 76.7471329 80.998 77.2824689 80.8073324 77.6967981 80.5873346 77.9901329 80.338L77.9901329 73.012zM83.2041329 83L83.2041329 66.192 84.6341329 65.928 84.6341329 71.956C85.1034686 71.7799991 85.5801305 71.6443338 86.0641329 71.549 86.5481353 71.4536662 87.0321305 71.406 87.5161329 71.406 88.3961373 71.406 89.1294633 71.5306654 89.7161329 71.78 90.3028025 72.0293346 90.7721312 72.3849977 91.1241329 72.847 91.4761347 73.3090023 91.7217989 73.8626634 91.8611329 74.508 92.000467 75.1533366 92.0701329 75.8646628 92.0701329 76.642L92.0701329 83 90.6401329 83 90.6401329 77.104C90.6401329 76.2973293 90.5851335 75.6153361 90.4751329 75.058 90.3651324 74.5006639 90.1818009 74.0460018 89.9251329 73.694 89.668465 73.3419982 89.3274684 73.0890008 88.9021329 72.935 88.4767975 72.7809992 87.9414695 72.704 87.2961329 72.704 87.0467983 72.704 86.7791344 72.7259998 86.4931329 72.77 86.2071315 72.8140002 85.9394675 72.8616664 85.6901329 72.913 85.4407983 72.9643336 85.2171339 73.019333 85.0191329 73.078 84.8211319 73.136667 84.6927999 73.1806665 84.6341329 73.21L84.6341329 83 83.2041329 83zM97.0641329 71.626L101.596133 71.626 101.596133 72.836 97.0641329 72.836 97.0641329 78.886C97.0641329 79.5313366 97.1191324 80.0556646 97.2291329 80.459 97.3391335 80.8623353 97.4967986 81.1739989 97.7021329 81.394 97.9074673 81.6140011 98.1567981 81.7606663 98.4501329 81.834 98.7434677 81.9073337 99.0661312 81.944 99.4181329 81.944 100.019469 81.944 100.503464 81.874334 100.870133 81.735 101.236801 81.595666 101.522799 81.4673339 101.728133 81.35L102.080133 82.538C101.874799 82.6700007 101.515469 82.8203325 101.002133 82.989 100.488797 83.1576675 99.9314693 83.242 99.3301329 83.242 98.6261294 83.242 98.035802 83.1503342 97.5591329 82.967 97.0824639 82.7836657 96.7011344 82.5050019 96.4151329 82.131 96.1291315 81.7569981 95.9274668 81.2913361 95.8101329 80.734 95.692799 80.1766639 95.6341329 79.5166705 95.6341329 78.754L95.6341329 68.282 97.0641329 68.018 97.0641329 71.626zM117.392133 71.538C117.392133 72.1100029 117.289467 72.6489975 117.084133 73.155 116.878799 73.6610025 116.603801 74.1486643 116.259133 74.618 115.914465 75.0873357 115.522135 75.5419978 115.082133 75.982 114.642131 76.4220022 114.194802 76.8619978 113.740133 77.302 113.358798 77.6686685 112.988468 78.0389981 112.629133 78.413 112.269798 78.7870019 111.947134 79.1609981 111.661133 79.535 111.375131 79.9090019 111.1478 80.2756649 110.979133 80.635 110.810465 80.9943351 110.726133 81.3499982 110.726133 81.702L110.726133 81.746 117.920133 81.746 117.920133 83 109.142133 83C109.142133 82.9706665 109.138466 82.9156671 109.131133 82.835 109.1238 82.7543329 109.120133 82.6333341 109.120133 82.472 109.120133 81.7826632 109.244798 81.141003 109.494133 80.547 109.743468 79.952997 110.062464 79.3920026 110.451133 78.864 110.839802 78.3359974 111.272464 77.8446689 111.749133 77.39 112.225802 76.9353311 112.684131 76.4953355 113.124133 76.07 113.490801 75.7179982 113.839131 75.3770016 114.169133 75.047 114.499135 74.7169983 114.788798 74.3760018 115.038133 74.024 115.287468 73.6719982 115.485466 73.298002 115.632133 72.902 115.7788 72.505998 115.852133 72.0733357 115.852133 71.604 115.852133 70.5773282 115.577136 69.8403356 115.027133 69.393 114.47713 68.9456644 113.784137 68.722 112.948133 68.722 112.478797 68.722 112.060801 68.7806661 111.694133 68.898 111.327464 69.0153339 111.008468 69.1509992 110.737133 69.305 110.465798 69.4590008 110.234801 69.6166659 110.044133 69.778 109.853465 69.9393341 109.714133 70.0639996 109.626133 70.152L108.878133 69.162C108.966133 69.0593328 109.123798 68.909001 109.351133 68.711 109.578467 68.512999 109.864465 68.3186676 110.209133 68.128 110.553801 67.9373324 110.953464 67.772334 111.408133 67.633 111.862802 67.493666 112.368797 67.424 112.926133 67.424 114.407474 67.424 115.522129 67.7869964 116.270133 68.513 117.018137 69.2390036 117.392133 70.2473269 117.392133 71.538zM129.800133 71.538C129.800133 72.1100029 129.697467 72.6489975 129.492133 73.155 129.286799 73.6610025 129.011801 74.1486643 128.667133 74.618 128.322465 75.0873357 127.930135 75.5419978 127.490133 75.982 127.050131 76.4220022 126.602802 76.8619978 126.148133 77.302 125.766798 77.6686685 125.396468 78.0389981 125.037133 78.413 124.677798 78.7870019 124.355134 79.1609981 124.069133 79.535 123.783131 79.9090019 123.5558 80.2756649 123.387133 80.635 123.218465 80.9943351 123.134133 81.3499982 123.134133 81.702L123.134133 81.746 130.328133 81.746 130.328133 83 121.550133 83C121.550133 82.9706665 121.546466 82.9156671 121.539133 82.835 121.5318 82.7543329 121.528133 82.6333341 121.528133 82.472 121.528133 81.7826632 121.652798 81.141003 121.902133 80.547 122.151468 79.952997 122.470464 79.3920026 122.859133 78.864 123.247802 78.3359974 123.680464 77.8446689 124.157133 77.39 124.633802 76.9353311 125.092131 76.4953355 125.532133 76.07 125.898801 75.7179982 126.247131 75.3770016 126.577133 75.047 126.907135 74.7169983 127.196798 74.3760018 127.446133 74.024 127.695468 73.6719982 127.893466 73.298002 128.040133 72.902 128.1868 72.505998 128.260133 72.0733357 128.260133 71.604 128.260133 70.5773282 127.985136 69.8403356 127.435133 69.393 126.88513 68.9456644 126.192137 68.722 125.356133 68.722 124.886797 68.722 124.468801 68.7806661 124.102133 68.898 123.735464 69.0153339 123.416468 69.1509992 123.145133 69.305 122.873798 69.4590008 122.642801 69.6166659 122.452133 69.778 122.261465 69.9393341 122.122133 70.0639996 122.034133 70.152L121.286133 69.162C121.374133 69.0593328 121.531798 68.909001 121.759133 68.711 121.986467 68.512999 122.272465 68.3186676 122.617133 68.128 122.961801 67.9373324 123.361464 67.772334 123.816133 67.633 124.270802 67.493666 124.776797 67.424 125.334133 67.424 126.815474 67.424 127.930129 67.7869964 128.678133 68.513 129.426137 69.2390036 129.800133 70.2473269 129.800133 71.538zM135.498133 80.954C135.630134 81.0566672 135.795132 81.1666661 135.993133 81.284 136.191134 81.4013339 136.422132 81.5113328 136.686133 81.614 136.950134 81.7166672 137.236131 81.8009997 137.544133 81.867 137.852134 81.9330003 138.174798 81.966 138.512133 81.966 139.216136 81.966 139.806464 81.8450012 140.283133 81.603 140.759802 81.3609988 141.144798 81.0310021 141.438133 80.613 141.731468 80.1949979 141.944132 79.7036695 142.076133 79.139 142.208134 78.5743305 142.274133 77.9766698 142.274133 77.346 142.274133 75.8499925 141.900137 74.7023373 141.152133 73.903 140.404129 73.1036627 139.414139 72.704 138.182133 72.704 137.478129 72.704 136.909802 72.7369997 136.477133 72.803 136.044464 72.8690003 135.718134 72.9386663 135.498133 73.012L135.498133 80.954zM135.498133 87.07L134.068133 87.07 134.068133 72.022C134.493468 71.8753326 135.03613 71.7360007 135.696133 71.604 136.356136 71.4719993 137.192128 71.406 138.204133 71.406 139.040137 71.406 139.79913 71.5416653 140.481133 71.813 141.163136 72.0843347 141.749797 72.4766641 142.241133 72.99 142.732469 73.5033359 143.113798 74.126663 143.385133 74.86 143.656468 75.593337 143.792133 76.4219954 143.792133 77.346 143.792133 78.2113377 143.678467 79.0069964 143.451133 79.733 143.223798 80.4590036 142.890135 81.0823307 142.450133 81.603 142.010131 82.1236693 141.471136 82.5306652 140.833133 82.824 140.19513 83.1173348 139.46547 83.264 138.644133 83.264 137.896129 83.264 137.247136 83.1576677 136.697133 82.945 136.14713 82.7323323 135.747468 82.5306676 135.498133 82.34L135.498133 87.07zM150.260133 77.852C149.937465 78.2773355 149.614801 78.7246643 149.292133 79.194 148.969465 79.6633357 148.657801 80.1253311 148.357133 80.58 148.056465 81.0346689 147.781468 81.4709979 147.532133 81.889 147.282798 82.3070021 147.070134 82.6773317 146.894133 83L145.420133 83C146.021469 81.870661 146.65213 80.8183382 147.312133 79.843 147.972136 78.8676618 148.646796 77.9106714 149.336133 76.972L145.640133 71.626 147.312133 71.626 150.260133 75.982 153.252133 71.626 154.814133 71.626 151.184133 76.884C151.492134 77.2946687 151.822131 77.7419976 152.174133 78.226 152.526135 78.7100024 152.878131 79.2123307 153.230133 79.733 153.582135 80.2536693 153.923131 80.7926639 154.253133 81.35 154.583135 81.9073361 154.887465 82.4573306 155.166133 83L153.626133 83C153.450132 82.6773317 153.237468 82.3070021 152.988133 81.889 152.738798 81.4709979 152.463801 81.0346689 152.163133 80.58 151.862465 80.1253311 151.547135 79.6633357 151.217133 79.194 150.887131 78.7246643 150.568134 78.2773355 150.260133 77.852z"/>
    <path fill="#737373" d="M4.28 21.11C6.04 21.11 7.73 21.66 7.73 24.52 7.73 27.33 5.98 28 4.49 28L2.84 28 2.84 21.11 4.28 21.11zM4.49 21.87L3.79 21.87 3.79 27.25 4.56 27.25C5.64 27.25 6.72 26.79 6.72 24.52 6.72 22.19 5.59 21.87 4.49 21.87zM9.68 20.2C9.3 20.2 9.04 20.47 9.04 20.83 9.04 21.18 9.3 21.45 9.68 21.45 10.07 21.45 10.33 21.18 10.33 20.83 10.33 20.47 10.07 20.2 9.68 20.2zM10.15 22.73L9.23 22.73 9.23 28 10.15 28 10.15 22.73zM13.48 22.61C12.39 22.61 11.58 23.22 11.58 24.06 11.58 24.8 12.03 25.29 13.17 25.59 14.19 25.86 14.45 26.06 14.45 26.58 14.45 27.08 14.01 27.38 13.32 27.38 12.75 27.38 12.26 27.19 11.84 26.87L11.35 27.43C11.81 27.83 12.45 28.12 13.34 28.12 14.41 28.12 15.42 27.62 15.42 26.52 15.42 25.6 14.78 25.16 13.67 24.88 12.82 24.66 12.54 24.46 12.54 24.03 12.54 23.61 12.91 23.34 13.51 23.34 14 23.34 14.41 23.49 14.88 23.79L15.27 23.21C14.77 22.83 14.22 22.61 13.48 22.61zM19.14 22.61C20.54 22.61 21.09 23.7 21.09 25.36 21.09 26.96 20.38 28.12 19.02 28.12 18.45 28.12 17.98 27.93 17.64 27.52L17.64 30.02 16.72 30.13 16.72 22.73 17.51 22.73 17.58 23.44C17.97 22.9 18.54 22.61 19.14 22.61zM18.8 27.37C19.64 27.37 20.1 26.74 20.1 25.36 20.1 23.99 19.7 23.34 18.91 23.34 18.35 23.34 17.92 23.74 17.64 24.16L17.64 26.73C17.91 27.14 18.32 27.37 18.8 27.37zM23.71 28.12C23.98 28.12 24.24 28.05 24.44 27.94L24.2 27.3C24.1 27.34 23.99 27.36 23.86 27.36 23.62 27.36 23.53 27.22 23.53 26.94L23.53 20.5 22.61 20.61 22.61 26.96C22.61 27.71 23.04 28.12 23.71 28.12zM29.14 26.77C29.14 27.23 29.31 27.38 29.58 27.48L29.37 28.12C28.84 28.06 28.5 27.85 28.34 27.33 27.97 27.88 27.41 28.12 26.77 28.12 25.72 28.12 25.09 27.47 25.09 26.53 25.09 25.4 25.94 24.79 27.41 24.79L28.22 24.79 28.22 24.4C28.22 23.64 27.85 23.36 27.12 23.36 26.73 23.36 26.24 23.46 25.7 23.64L25.47 22.97C26.12 22.73 26.7 22.61 27.29 22.61 28.56 22.61 29.14 23.26 29.14 24.36L29.14 26.77zM26.98 27.43C27.52 27.43 27.92 27.16 28.22 26.61L28.22 25.4 27.53 25.4C26.56 25.4 26.07 25.76 26.07 26.48 26.07 27.1 26.38 27.43 26.98 27.43zM34.9 22.73L33.95 22.73 32.57 27.33 31.16 22.73 30.18 22.73 31.95 28 32.26 28C31.96 28.82 31.66 29.23 30.59 29.41L30.69 30.13C32.15 29.97 32.77 29.15 33.14 28.03L34.9 22.73zM20.04 78.11L15.12 78.11 15.12 78.92 17.08 78.92 17.08 85 18.03 85 18.03 78.92 19.94 78.92 20.04 78.11zM21.54 77.2C21.16 77.2 20.9 77.47 20.9 77.83 20.9 78.18 21.16 78.45 21.54 78.45 21.93 78.45 22.19 78.18 22.19 77.83 22.19 77.47 21.93 77.2 21.54 77.2zM22.01 79.73L21.09 79.73 21.09 85 22.01 85 22.01 79.73zM26.22 84.13C25.96 84.29 25.75 84.36 25.52 84.36 25.06 84.36 24.89 84.11 24.89 83.58L24.89 80.44 26.04 80.44 26.14 79.73 24.89 79.73 24.89 78.43 23.97 78.54 23.97 79.73 23.05 79.73 23.05 80.44 23.97 80.44 23.97 83.62C23.97 84.6 24.5 85.12 25.39 85.12 25.84 85.12 26.22 85 26.57 84.76L26.22 84.13zM28.57 85.12C28.84 85.12 29.1 85.05 29.3 84.94L29.06 84.3C28.96 84.34 28.85 84.36 28.72 84.36 28.48 84.36 28.39 84.22 28.39 83.94L28.39 77.5 27.47 77.61 27.47 83.96C27.47 84.71 27.9 85.12 28.57 85.12zM34.43 82.21C34.43 82.39 34.42 82.56 34.41 82.68L31.05 82.68C31.14 83.9 31.71 84.37 32.47 84.37 32.99 84.37 33.38 84.23 33.84 83.91L34.24 84.46C33.72 84.87 33.13 85.12 32.4 85.12 30.93 85.12 30.07 84.09 30.07 82.42 30.07 80.78 30.9 79.61 32.26 79.61 33.68 79.61 34.43 80.6 34.43 82.21zM33.52 82L33.52 81.94C33.52 80.91 33.11 80.34 32.28 80.34 31.58 80.34 31.12 80.83 31.05 82L33.52 82zM3.3 263.99C1.74 263.99.44 265.22.44 267.55.44 269.87 1.65 271.12 3.32 271.12 4.25 271.12 4.92 270.74 5.29 270.35L4.81 269.74C4.42 270.03 4 270.32 3.35 270.32 2.28 270.32 1.45 269.54 1.45 267.55 1.45 265.47 2.32 264.77 3.36 264.77 3.84 264.77 4.26 264.93 4.69 265.28L5.21 264.67C4.66 264.23 4.17 263.99 3.3 263.99zM9.99 269.77C9.99 270.23 10.16 270.38 10.43 270.48L10.22 271.12C9.69 271.06 9.35 270.85 9.19 270.33 8.82 270.88 8.26 271.12 7.62 271.12 6.57 271.12 5.94 270.47 5.94 269.53 5.94 268.4 6.79 267.79 8.26 267.79L9.07 267.79 9.07 267.4C9.07 266.64 8.7 266.36 7.97 266.36 7.58 266.36 7.09 266.46 6.55 266.64L6.32 265.97C6.97 265.73 7.55 265.61 8.14 265.61 9.41 265.61 9.99 266.26 9.99 267.36L9.99 269.77zM7.83 270.43C8.37 270.43 8.77 270.16 9.07 269.61L9.07 268.4 8.38 268.4C7.41 268.4 6.92 268.76 6.92 269.48 6.92 270.1 7.23 270.43 7.83 270.43zM14.3 265.61C15.7 265.61 16.25 266.7 16.25 268.36 16.25 269.96 15.54 271.12 14.18 271.12 13.61 271.12 13.14 270.93 12.8 270.52L12.8 273.02 11.88 273.13 11.88 265.73 12.67 265.73 12.74 266.44C13.13 265.9 13.7 265.61 14.3 265.61zM13.96 270.37C14.8 270.37 15.26 269.74 15.26 268.36 15.26 266.99 14.86 266.34 14.07 266.34 13.51 266.34 13.08 266.74 12.8 267.16L12.8 269.73C13.07 270.14 13.48 270.37 13.96 270.37zM20.13 270.13C19.87 270.29 19.66 270.36 19.43 270.36 18.97 270.36 18.8 270.11 18.8 269.58L18.8 266.44 19.95 266.44 20.05 265.73 18.8 265.73 18.8 264.43 17.88 264.54 17.88 265.73 16.96 265.73 16.96 266.44 17.88 266.44 17.88 269.62C17.88 270.6 18.41 271.12 19.3 271.12 19.75 271.12 20.13 271 20.48 270.76L20.13 270.13zM21.88 263.2C21.5 263.2 21.24 263.47 21.24 263.83 21.24 264.18 21.5 264.45 21.88 264.45 22.27 264.45 22.53 264.18 22.53 263.83 22.53 263.47 22.27 263.2 21.88 263.2zM22.35 265.73L21.43 265.73 21.43 271 22.35 271 22.35 265.73zM26.23 265.61C27.73 265.61 28.57 266.69 28.57 268.36 28.57 269.99 27.71 271.12 26.22 271.12 24.72 271.12 23.87 270.04 23.87 268.37 23.87 266.74 24.73 265.61 26.23 265.61zM26.23 266.35C25.35 266.35 24.86 266.99 24.86 268.37 24.86 269.74 25.34 270.38 26.22 270.38 27.1 270.38 27.58 269.74 27.58 268.36 27.58 266.99 27.1 266.35 26.23 266.35zM32.57 265.61C31.88 265.61 31.32 265.97 30.96 266.51L30.88 265.73 30.09 265.73 30.09 271 31.01 271 31.01 267.26C31.36 266.7 31.76 266.33 32.35 266.33 32.86 266.33 33.18 266.56 33.18 267.35L33.18 271 34.1 271 34.1 267.22C34.1 266.22 33.54 265.61 32.57 265.61zM16.22 191.36C17.02 191.5 17.81 191.87 17.81 193.04 17.81 194.5 16.68 195 15.08 195L13.18 195 13.18 188.11 14.81 188.11C16.51 188.11 17.51 188.65 17.51 189.85 17.51 190.7 16.89 191.22 16.22 191.36zM14.91 188.86L14.13 188.86 14.13 191.03 15.17 191.03C15.94 191.03 16.54 190.65 16.54 189.92 16.54 189.07 15.93 188.86 14.91 188.86zM15.08 194.24C16.08 194.24 16.81 194.04 16.81 193.04 16.81 192.07 16.09 191.76 15.26 191.76L14.13 191.76 14.13 194.24 15.08 194.24zM21.19 189.61C22.69 189.61 23.53 190.69 23.53 192.36 23.53 193.99 22.67 195.12 21.18 195.12 19.68 195.12 18.83 194.04 18.83 192.37 18.83 190.74 19.69 189.61 21.19 189.61zM21.19 190.35C20.31 190.35 19.82 190.99 19.82 192.37 19.82 193.74 20.3 194.38 21.18 194.38 22.06 194.38 22.54 193.74 22.54 192.36 22.54 190.99 22.06 190.35 21.19 190.35zM28.21 187.5L29.13 187.61 29.13 195 28.32 195 28.23 194.27C27.89 194.8 27.36 195.12 26.71 195.12 25.43 195.12 24.72 194.03 24.72 192.39 24.72 190.78 25.5 189.61 26.79 189.61 27.41 189.61 27.86 189.89 28.21 190.26L28.21 187.5zM26.91 194.39C27.5 194.39 27.86 194.1 28.21 193.61L28.21 191.03C27.88 190.61 27.51 190.34 26.99 190.34 26.2 190.34 25.71 191 25.71 192.37 25.71 193.76 26.15 194.39 26.91 194.39zM34.9 189.73L33.95 189.73 32.57 194.33 31.16 189.73 30.18 189.73 31.95 195 32.26 195C31.96 195.82 31.66 196.23 30.59 196.41L30.69 197.13C32.15 196.97 32.77 196.15 33.14 195.03L34.9 189.73z"/>
  </g>
</svg>
