<svg xmlns="http://www.w3.org/2000/svg" width="640" height="128" viewBox="0 0 640 128">
  <defs>
    <linearGradient id="typeface-fira-a" x1="0%" y1="50%" y2="50%">
      <stop offset="0%" stop-color="#F9F9FA" stop-opacity="0"/>
      <stop offset="100%" stop-color="#F9F9FA"/>
    </linearGradient>
  </defs>
  <g fill="none" fill-rule="evenodd">
    <path fill="#000F40" d="M30.544,69.24 L22.3,69.24 L20.752,75 L15.82,75 L23.56,50.124 L29.428,50.124 L37.132,75 L32.092,75 L30.544,69.24 Z M29.572,65.64 L26.404,53.76 L23.236,65.64 L29.572,65.64 Z M53.836,69.96 C53.836,71.508 54.34,72.048 55.276,72.408 L54.304,75.468 C52.216,75.288 50.848,74.532 50.092,72.696 C48.76,74.712 46.672,75.54 44.404,75.54 C40.588,75.54 38.248,73.128 38.248,69.672 C38.248,65.532 41.38,63.3 46.924,63.3 L49.3,63.3 L49.3,62.22 C49.3,59.736 48.184,58.908 45.736,58.908 C44.44,58.908 42.604,59.268 40.696,59.916 L39.616,56.784 C41.956,55.884 44.368,55.416 46.528,55.416 C51.604,55.416 53.836,57.756 53.836,61.968 L53.836,69.96 Z M45.628,72.192 C47.248,72.192 48.436,71.364 49.3,69.852 L49.3,66 L47.392,66 C44.404,66 42.928,67.08 42.928,69.312 C42.928,71.148 43.864,72.192 45.628,72.192 Z M80.764,61.824 C83.608,62.364 86.452,63.696 86.452,67.836 C86.452,73.308 82.096,75 76.048,75 L68.56,75 L68.56,50.124 L75.076,50.124 C81.484,50.124 85.372,51.924 85.372,56.46 C85.372,59.556 83.14,61.32 80.764,61.824 Z M73.312,53.616 L73.312,60.348 L76.228,60.348 C78.82,60.348 80.512,59.196 80.512,56.856 C80.512,54.336 78.784,53.616 75.544,53.616 L73.312,53.616 Z M76.084,71.436 C79.216,71.436 81.484,70.788 81.484,67.656 C81.484,64.668 79.36,63.66 76.588,63.66 L73.312,63.66 L73.312,71.436 L76.084,71.436 Z M100.276,55.416 C104.812,55.416 107.404,59.088 107.404,65.46 C107.404,71.4 104.56,75.54 99.88,75.54 C97.792,75.54 96.064,74.604 94.84,73.056 L94.552,75 L90.484,75 L90.484,48.324 L95.092,47.82 L95.092,58.116 C96.316,56.424 98.152,55.416 100.276,55.416 Z M98.656,72.084 C100.96,72.084 102.58,70.248 102.58,65.46 C102.58,60.384 101.068,58.872 98.872,58.872 C97.216,58.872 95.992,59.988 95.092,61.464 L95.092,69.888 C95.92,71.256 97.18,72.084 98.656,72.084 Z M130.516,49.584 C124.468,49.584 119.716,54.156 119.716,62.508 C119.716,70.968 124.216,75.54 130.66,75.54 C134.044,75.54 136.636,74.064 138.148,72.516 L135.916,69.636 C134.476,70.716 133,71.724 130.876,71.724 C127.312,71.724 124.72,69.06 124.72,62.508 C124.72,55.776 127.384,53.256 130.804,53.256 C132.532,53.256 134.008,53.868 135.412,55.056 L137.86,52.212 C135.844,50.52 133.792,49.584 130.516,49.584 Z M148.696,55.416 C143.224,55.416 139.804,59.556 139.804,65.64 C139.804,71.724 143.224,75.54 148.732,75.54 C151.18,75.54 153.16,74.748 154.888,73.344 L152.764,70.32 C151.432,71.328 150.424,71.796 148.984,71.796 C146.392,71.796 144.7,70.176 144.7,65.568 C144.7,60.996 146.32,59.052 148.984,59.052 C150.424,59.052 151.576,59.484 152.8,60.456 L154.888,57.648 C153.088,56.1 151.18,55.416 148.696,55.416 Z M173.5,50.124 C180.052,50.124 186.244,52.14 186.244,62.436 C186.244,72.516 180.088,75 174.148,75 L167.38,75 L167.38,50.124 L173.5,50.124 Z M172.132,53.688 L172.132,71.436 L174.472,71.436 C178.18,71.436 181.24,69.78 181.24,62.436 C181.24,54.948 178,53.688 174.328,53.688 L172.132,53.688 Z M206.584,48.324 L206.584,75 L202.516,75 L202.192,72.588 C201.04,74.316 199.204,75.54 196.756,75.54 C192.004,75.54 189.52,71.544 189.52,65.496 C189.52,59.628 192.436,55.416 197.26,55.416 C199.204,55.416 200.788,56.28 201.976,57.468 L201.976,47.82 L206.584,48.324 Z M198.052,72.048 C199.744,72.048 200.896,71.22 201.976,69.6 L201.976,60.888 C200.968,59.664 199.924,58.872 198.376,58.872 C195.964,58.872 194.38,60.888 194.38,65.46 C194.38,70.356 195.784,72.048 198.052,72.048 Z M235.204,53.652 L235.708,50.124 L221.272,50.124 L221.272,75 L235.852,75 L235.852,71.436 L226.024,71.436 L226.024,64.128 L234.016,64.128 L234.016,60.6 L226.024,60.6 L226.024,53.652 L235.204,53.652 Z M255.832,65.028 C255.832,65.64 255.76,66.396 255.724,66.9 L243.772,66.9 C244.096,70.788 245.932,72.048 248.452,72.048 C250.144,72.048 251.548,71.508 253.204,70.356 L255.112,72.984 C253.24,74.496 250.936,75.54 248.056,75.54 C242.152,75.54 238.984,71.616 238.984,65.604 C238.984,59.808 242.044,55.416 247.444,55.416 C252.772,55.416 255.832,59.016 255.832,65.028 Z M251.26,63.912 L251.26,63.696 C251.26,60.564 250.144,58.692 247.552,58.692 C245.392,58.692 244.024,60.132 243.772,63.912 L251.26,63.912 Z M282.796,53.652 L283.3,50.124 L269.224,50.124 L269.224,75 L273.976,75 L273.976,64.632 L281.644,64.632 L281.644,61.104 L273.976,61.104 L273.976,53.652 L282.796,53.652 Z M294.388,51.312 C295.288,51.312 296.368,51.492 297.52,52.032 L298.852,48.936 C297.376,48.252 295.828,47.82 293.92,47.82 C289.528,47.82 287.224,50.412 287.224,53.868 L287.224,55.956 L284.128,55.956 L284.128,59.268 L287.224,59.268 L287.224,75 L291.832,75 L291.832,59.268 L295.9,59.268 L296.404,55.956 L291.832,55.956 L291.832,53.94 C291.832,52.14 292.516,51.312 294.388,51.312 Z M318.292,49.584 C312.172,49.584 306.952,54.12 306.952,62.544 C306.952,71.076 310.84,75.54 317.752,75.54 C321.136,75.54 324.088,74.604 326.5,73.092 L326.5,60.924 L317.572,60.924 L318.076,64.452 L321.82,64.452 L321.82,70.932 C320.632,71.616 319.264,71.904 317.86,71.904 C313.972,71.904 311.956,69.348 311.956,62.544 C311.956,55.848 314.98,53.184 318.508,53.184 C320.632,53.184 322.036,53.832 323.692,55.2 L326.284,52.5 C324.196,50.7 321.82,49.584 318.292,49.584 Z M347.704,56.964 C346.264,57.468 344.464,57.612 342.196,57.612 C344.5,58.656 345.652,60.132 345.652,62.508 C345.652,66.216 342.772,68.916 337.984,68.916 C337.156,68.916 336.436,68.844 335.716,68.628 C335.248,68.952 334.924,69.456 334.924,70.032 C334.924,70.716 335.32,71.364 337.228,71.364 L340.144,71.364 C344.356,71.364 347.092,73.632 347.092,76.764 C347.092,80.58 343.816,82.848 337.588,82.848 C330.82,82.848 328.912,80.688 328.912,76.872 L333.052,76.872 C333.052,78.78 333.88,79.608 337.66,79.608 C341.368,79.608 342.448,78.6 342.448,77.088 C342.448,75.684 341.332,74.82 339.208,74.82 L336.328,74.82 C332.512,74.82 330.892,73.128 330.892,71.148 C330.892,69.816 331.72,68.484 333.124,67.62 C330.784,66.396 329.776,64.704 329.776,62.256 C329.776,58.116 333.052,55.416 337.66,55.416 C342.16,55.524 344.248,54.516 346.552,53.292 L347.704,56.964 Z M337.732,58.548 C335.644,58.548 334.42,59.988 334.42,62.184 C334.42,64.488 335.68,65.928 337.804,65.928 C340,65.928 341.188,64.56 341.188,62.148 C341.188,59.736 340.036,58.548 337.732,58.548 Z M373.228,63.876 L373.228,75 L378.016,75 L378.016,50.124 L373.228,50.124 L373.228,60.096 L364.372,60.096 L364.372,50.124 L359.62,50.124 L359.62,75 L364.372,75 L364.372,63.876 L373.228,63.876 Z M393.82,55.416 C391.516,55.416 389.752,56.424 388.276,58.224 L388.276,47.892 L383.668,48.36 L383.668,75 L388.276,75 L388.276,61.716 C389.392,59.988 390.652,58.872 392.272,58.872 C393.676,58.872 394.612,59.556 394.612,61.932 L394.612,75 L399.22,75 L399.22,61.212 C399.22,57.612 397.204,55.416 393.82,55.416 Z M418.516,75 L418.516,50.124 L413.728,50.124 L413.728,75 L418.516,75 Z M426.472,46.308 C424.78,46.308 423.592,47.532 423.592,49.116 C423.592,50.664 424.78,51.888 426.472,51.888 C428.2,51.888 429.388,50.664 429.388,49.116 C429.388,47.532 428.2,46.308 426.472,46.308 Z M428.812,75 L428.812,55.956 L424.204,55.956 L424.204,75 L428.812,75 Z M449.044,71.364 L449.044,50.124 L444.256,50.124 L444.256,71.184 C444.256,74.316 443.716,75.9 440.476,77.16 L441.736,80.58 C445.84,79.248 449.044,77.16 449.044,71.364 Z M456.856,46.308 C455.164,46.308 453.976,47.532 453.976,49.116 C453.976,50.664 455.164,51.888 456.856,51.888 C458.584,51.888 459.772,50.664 459.772,49.116 C459.772,47.532 458.584,46.308 456.856,46.308 Z M459.16,73.308 L459.16,55.956 L454.552,55.956 L454.552,73.596 C454.552,77.34 453.22,78.312 450.736,79.464 L452.212,82.812 C456.496,81.084 459.16,79.14 459.16,73.308 Z M478.6,75 L478.6,50.124 L473.848,50.124 L473.848,75 L478.6,75 Z M483.964,61.392 L492.568,50.124 L487.42,50.124 L478.816,61.716 L487.6,75 L493.252,75 L483.964,61.392 Z M500.38,75 L500.38,47.82 L495.772,48.324 L495.772,75 L500.38,75 Z M505.456,64.344 L511.792,55.956 L506.932,55.956 L500.56,64.596 L507.112,75 L512.404,75 L505.456,64.344 Z M528.892,71.112 L528.892,50.124 L524.14,50.124 L524.14,75 L538.324,75 L538.864,71.112 L528.892,71.112 Z M546.64,70.356 L546.64,47.82 L542.032,48.324 L542.032,70.68 C542.032,73.848 543.652,75.54 546.496,75.54 C547.684,75.54 548.836,75.288 549.772,74.892 L548.8,71.652 C548.476,71.76 548.08,71.832 547.72,71.832 C546.964,71.832 546.64,71.4 546.64,70.356 Z M585.556,75 L583.612,50.124 L577.42,50.124 L573.244,67.548 L568.816,50.124 L562.696,50.124 L560.716,75 L565.324,75 L565.936,64.74 C566.152,61.176 566.224,57.756 566.08,54.408 L570.904,72.3 L575.404,72.3 L579.94,54.444 C579.868,57.072 580.048,60.924 580.264,64.596 L580.912,75 L585.556,75 Z M610.432,55.416 C607.912,55.416 606.148,56.64 604.708,58.62 C603.988,56.604 602.332,55.416 600.1,55.416 C597.688,55.416 595.96,56.532 594.592,58.44 L594.232,55.956 L590.236,55.956 L590.236,75 L594.844,75 L594.844,61.752 C595.888,59.988 596.86,58.872 598.48,58.872 C599.596,58.872 600.568,59.556 600.568,61.932 L600.568,75 L605.176,75 L605.176,61.752 C606.22,59.988 607.192,58.872 608.776,58.872 C609.928,58.872 610.864,59.556 610.864,61.932 L610.864,75 L615.472,75 L615.472,61.212 C615.472,57.612 613.456,55.416 610.432,55.416 Z M648.34,75 L648.34,50.124 L644.02,50.124 L644.02,61.788 C644.02,65.316 644.452,68.916 644.668,70.284 L635.992,50.124 L629.98,50.124 L629.98,75 L634.3,75 L634.3,64.848 C634.3,60.24 633.904,57.072 633.652,54.876 L642.184,75 L648.34,75 Z M664.18,55.416 C661.768,55.416 659.86,56.532 658.384,58.44 L658.024,55.956 L654.028,55.956 L654.028,75 L658.636,75 L658.636,61.752 C659.752,59.988 660.976,58.872 662.632,58.872 C664.072,58.872 664.972,59.556 664.972,61.932 L664.972,75 L669.58,75 L669.58,61.212 C669.58,57.576 667.6,55.416 664.18,55.416 Z M693.628,49.584 C700.288,49.584 704.5,54.228 704.5,62.544 C704.5,70.752 700.288,75.54 693.628,75.54 C686.968,75.54 682.72,70.896 682.72,62.58 C682.72,54.408 686.968,49.584 693.628,49.584 Z M693.628,53.22 C689.92,53.22 687.724,55.884 687.724,62.58 C687.724,69.276 689.992,71.904 693.628,71.904 C697.336,71.904 699.496,69.276 699.496,62.544 C699.496,55.884 697.372,53.22 693.628,53.22 Z M716.596,55.416 C722.212,55.416 725.524,59.232 725.524,65.46 C725.524,71.472 722.176,75.54 716.56,75.54 C710.944,75.54 707.596,71.724 707.596,65.46 C707.596,59.484 710.944,55.416 716.596,55.416 Z M716.596,58.908 C713.896,58.908 712.456,60.96 712.456,65.46 C712.456,70.032 713.86,72.048 716.56,72.048 C719.26,72.048 720.664,69.996 720.664,65.46 C720.664,60.924 719.26,58.908 716.596,58.908 Z M746.332,50.124 C752.596,50.124 756.412,52.68 756.412,58.044 C756.412,63.768 752.272,66.324 746.656,66.324 L743.74,66.324 L743.74,75 L738.988,75 L738.988,50.124 L746.332,50.124 Z M746.296,62.76 C749.464,62.76 751.444,61.68 751.444,58.044 C751.444,54.912 749.536,53.616 746.296,53.616 L743.74,53.616 L743.74,62.76 L746.296,62.76 Z M769.912,55.416 C774.952,55.416 777.04,59.34 777.04,65.424 C777.04,71.256 774.34,75.54 769.516,75.54 C767.572,75.54 765.916,74.856 764.728,73.452 L764.728,82.344 L760.12,82.848 L760.12,55.956 L764.152,55.956 L764.404,58.296 C765.916,56.316 767.968,55.416 769.912,55.416 Z M768.22,72.012 C770.74,72.012 772.216,70.068 772.216,65.46 C772.216,60.636 770.92,58.872 768.544,58.872 C766.96,58.872 765.628,59.988 764.728,61.464 L764.728,70.032 C765.628,71.364 766.78,72.012 768.22,72.012 Z M805.336,73.488 C808.432,73.488 810.556,74.388 812.428,75.72 L809.476,79.572 C806.956,77.016 804.616,75.432 800.008,75.432 C793.6,75.432 789.352,70.896 789.352,62.58 C789.352,54.408 793.6,49.584 800.26,49.584 C806.92,49.584 811.132,54.228 811.132,62.544 C811.132,68.628 808.648,71.724 805.336,73.488 Z M794.356,62.58 C794.356,69.276 796.624,71.904 800.26,71.904 C803.968,71.904 806.128,69.276 806.128,62.544 C806.128,55.884 804.004,53.22 800.26,53.22 C796.552,53.22 794.356,55.884 794.356,62.58 Z M831.22,55.956 L831.22,82.848 L826.612,82.344 L826.612,72.876 C825.46,74.46 823.696,75.54 821.392,75.54 C816.64,75.54 814.156,71.544 814.156,65.496 C814.156,59.628 817.072,55.416 821.896,55.416 C823.948,55.416 825.604,56.316 826.972,57.828 L827.224,55.956 L831.22,55.956 Z M822.688,72.048 C824.38,72.048 825.532,71.22 826.612,69.6 L826.612,60.888 C825.604,59.664 824.56,58.872 823.012,58.872 C820.6,58.872 819.016,60.888 819.016,65.46 C819.016,70.356 820.42,72.048 822.688,72.048 Z M853.684,65.028 L850.66,65.028 L850.66,75 L845.908,75 L845.908,50.124 L853.324,50.124 C859.84,50.124 863.188,52.5 863.188,57.432 C863.188,60.816 861.532,62.832 858.148,64.164 L864.664,75 L859.192,75 L853.684,65.028 Z M850.66,61.608 L853.612,61.608 C856.564,61.608 858.22,60.42 858.22,57.432 C858.22,54.732 856.672,53.58 853.216,53.58 L850.66,53.58 L850.66,61.608 Z M877.156,55.452 C874.924,55.452 873.088,56.964 872.188,59.7 L871.756,55.956 L867.76,55.956 L867.76,75 L872.368,75 L872.368,64.848 C873.088,61.644 874.276,59.952 876.58,59.952 C877.228,59.952 877.696,60.024 878.272,60.168 L879.064,55.704 C878.452,55.524 877.84,55.452 877.156,55.452 Z M898.252,49.584 C893.356,49.584 889.792,52.32 889.792,56.46 C889.792,60.24 892.06,62.328 897.28,63.948 C901.168,65.136 902.212,66.072 902.212,68.16 C902.212,70.572 900.304,71.868 897.64,71.868 C895.048,71.868 893.032,70.932 891.304,69.312 L888.784,72.12 C890.836,74.136 893.788,75.54 897.748,75.54 C903.688,75.54 907.18,72.372 907.18,67.908 C907.18,63.228 904.156,61.428 899.8,60.06 C895.66,58.764 894.688,57.972 894.688,56.172 C894.688,54.228 896.308,53.22 898.54,53.22 C900.592,53.22 902.32,53.868 904.048,55.38 L906.46,52.644 C904.3,50.664 901.888,49.584 898.252,49.584 Z M917.116,55.416 C912.688,55.416 909.772,57.792 909.772,60.96 C909.772,63.768 911.5,65.64 915.424,66.72 C918.988,67.728 919.744,68.232 919.744,69.888 C919.744,71.22 918.412,72.12 916.324,72.12 C914.416,72.12 912.652,71.364 911.212,70.212 L908.872,72.84 C910.636,74.424 913.192,75.54 916.468,75.54 C920.824,75.54 924.496,73.452 924.496,69.492 C924.496,66.108 922.3,64.524 918.412,63.48 C915.172,62.58 914.416,62.004 914.416,60.744 C914.416,59.592 915.46,58.836 917.404,58.836 C918.988,58.836 920.5,59.376 922.084,60.456 L923.884,57.684 C922.084,56.28 919.852,55.416 917.116,55.416 Z M952.864,53.904 L946.384,53.904 L946.384,75 L941.596,75 L941.596,53.904 L934.9,53.904 L934.9,50.124 L953.368,50.124 L952.864,53.904 Z M966.868,74.1 C965.5,75.072 963.772,75.54 962.08,75.54 C958.336,75.504 956.356,73.38 956.356,69.312 L956.356,59.268 L953.368,59.268 L953.368,55.956 L956.356,55.956 L956.356,51.744 L960.964,51.204 L960.964,55.956 L965.392,55.956 L964.924,59.268 L960.964,59.268 L960.964,69.204 C960.964,71.076 961.576,71.832 962.98,71.832 C963.7,71.832 964.42,71.616 965.248,71.112 L966.868,74.1 Z M996.748,66.864 L996.748,50.124 L991.96,50.124 L991.96,66.612 C991.96,70.104 990.556,71.832 987.46,71.832 C984.4,71.832 982.996,70.104 982.996,66.612 L982.996,50.124 L978.244,50.124 L978.244,66.864 C978.244,71.976 981.34,75.54 987.46,75.54 C993.544,75.54 996.748,71.868 996.748,66.864 Z M1017.304,75 L1017.304,55.956 L1012.696,55.956 L1012.696,69.348 C1011.688,71.004 1010.392,72.048 1008.844,72.048 C1007.26,72.048 1006.504,71.292 1006.504,69.06 L1006.504,55.956 L1001.896,55.956 L1001.896,69.636 C1001.896,73.308 1003.768,75.54 1007.224,75.54 C1009.816,75.54 1011.652,74.496 1013.056,72.336 L1013.308,75 L1017.304,75 Z M1042.144,75 L1036.492,75 L1028.896,50.124 L1034.008,50.124 L1039.408,70.788 L1044.664,50.124 L1049.524,50.124 L1042.144,75 Z M1061.26,75 L1055.752,75 L1049.452,55.956 L1054.456,55.956 L1058.524,71.292 L1062.7,55.956 L1067.452,55.956 L1061.26,75 Z M1101.508,75 L1106.08,50.124 L1101.58,50.124 L1098.124,71.22 L1094.128,50.124 L1089.088,50.124 L1085.02,71.22 L1081.852,50.124 L1077.136,50.124 L1081.636,75 L1087.648,75 L1091.536,55.164 L1095.316,75 L1101.508,75 Z M1128.544,75 L1132.684,55.956 L1128.256,55.956 L1125.412,71.616 L1122.388,55.956 L1117.672,55.956 L1114.36,71.616 L1111.696,55.956 L1107.088,55.956 L1111.3,75 L1116.952,75 L1119.904,60.06 L1122.784,75 L1128.544,75 Z M1162.348,75 L1157.056,75 L1152.088,64.812 L1147.156,75 L1142.08,75 L1149.28,61.752 L1142.656,50.124 L1147.948,50.124 L1152.16,58.728 L1156.552,50.124 L1161.628,50.124 L1154.968,61.572 L1162.348,75 Z M1180.06,75 L1174.732,75 L1170.808,67.44 L1166.92,75 L1161.844,75 L1168.18,64.956 L1162.492,55.956 L1167.748,55.956 L1170.988,62.436 L1174.192,55.956 L1179.196,55.956 L1173.688,64.812 L1180.06,75 Z M1201.696,65.568 L1201.696,75 L1196.872,75 L1196.872,65.604 L1188.88,50.124 L1194.136,50.124 L1199.392,61.68 L1204.648,50.124 L1209.688,50.124 L1201.696,65.568 Z M1220.884,75.072 C1219.444,79.536 1216.636,82.416 1210.984,82.848 L1210.516,79.5 C1214.296,78.924 1215.52,77.7 1216.6,75 L1215.016,75 L1208.968,55.956 L1213.864,55.956 L1218.004,71.94 L1222.324,55.956 L1227.076,55.956 L1220.884,75.072 Z M1253.968,53.796 L1253.968,50.124 L1238.128,50.124 L1238.128,53.904 L1248.64,53.904 L1236.94,71.364 L1236.94,75 L1253.572,75 L1254.076,71.112 L1242.484,71.112 L1253.968,53.796 Z M1270.492,59.268 L1270.492,55.956 L1256.776,55.956 L1256.776,59.556 L1265.236,59.556 L1255.984,71.688 L1255.984,75 L1270.204,75 L1270.672,71.4 L1261.276,71.4 L1270.492,59.268 Z"/>
    <rect width="128" height="128" x="512" fill="url(#typeface-fira-a)"/>
  </g>
</svg>
