<svg xmlns="http://www.w3.org/2000/svg" width="367" height="414" style="background:#fff" viewBox="0 0 367 414">
  <g fill="none" fill-rule="evenodd" transform="translate(0 44)">
    <path fill="#0C0C0D" d="M136.310547 210.855957L136.310547 214.359863 138.563965 214.359863C139.738281 214.359863 140.404785 213.731445 140.404785 212.60791 140.404785 211.509766 139.693848 210.855957 138.513184 210.855957L136.310547 210.855957zM136.310547 215.375488L136.310547 219 135.167969 219 135.167969 209.840332 138.665527 209.840332C140.430176 209.840332 141.585449 210.919434 141.585449 212.569824 141.585449 213.845703 140.893555 214.835938 139.744629 215.197754L141.864746 219 140.525391 219 138.563965 215.375488 136.310547 215.375488zM146.060547 213.001465C144.96875 213.001465 144.207031 213.80127 144.124512 215.013672L147.89502 215.013672C147.869629 213.80127 147.145996 213.001465 146.060547 213.001465zM147.863281 217.229004L148.955078 217.229004C148.625 218.40332 147.571289 219.120605 146.073242 219.120605 144.175293 219.120605 142.988281 217.749512 142.988281 215.584961 142.988281 213.433105 144.194336 212.036621 146.073242 212.036621 147.92041 212.036621 149.043945 213.350586 149.043945 215.477051L149.043945 215.895996 144.124512 215.895996 144.124512 215.946777C144.181641 217.298828 144.937012 218.155762 146.098633 218.155762 146.980957 218.155762 147.577637 217.832031 147.863281 217.229004zM153.525391 217.933594C154.794922 217.933594 155.556641 216.96875 155.556641 215.477051 155.556641 213.985352 154.788574 213.020508 153.525391 213.020508 152.255859 213.020508 151.544922 213.985352 151.544922 215.477051 151.544922 216.96875 152.255859 217.933594 153.525391 217.933594zM153.576172 221.62793C151.925781 221.62793 150.87207 220.885254 150.707031 219.755371L151.862305 219.755371C151.98291 220.313965 152.592285 220.675781 153.576172 220.675781 154.80127 220.675781 155.53125 220.072754 155.53125 219.063477L155.53125 217.717773 155.429688 217.717773C154.998047 218.473145 154.223633 218.898438 153.28418 218.898438 151.513184 218.898438 150.415039 217.527344 150.415039 215.477051 150.415039 213.426758 151.525879 212.036621 153.28418 212.036621 154.242676 212.036621 155.086914 212.506348 155.480469 213.242676L155.582031 213.242676 155.582031 212.157227 156.623047 212.157227 156.623047 219.120605C156.623047 220.650391 155.442383 221.62793 153.576172 221.62793zM164.214844 212.157227L163.123047 212.157227 163.123047 216.207031C163.123047 217.406738 162.462891 218.124023 161.256836 218.124023 160.165039 218.124023 159.708008 217.552734 159.708008 216.321289L159.708008 212.157227 158.616211 212.157227 158.616211 216.587891C158.616211 218.206543 159.416016 219.120605 160.952148 219.120605 161.999512 219.120605 162.729492 218.688965 163.072266 217.927246L163.173828 217.927246 163.173828 219 164.214844 219 164.214844 212.157227zM166.334961 219L167.426758 219 167.426758 209.44043 166.334961 209.44043 166.334961 219zM171.654297 218.162109C172.777832 218.162109 173.609375 217.425781 173.609375 216.448242L173.609375 215.819824 171.768555 215.94043C170.727539 216.010254 170.270508 216.37207 170.270508 217.057617 170.270508 217.755859 170.86084 218.162109 171.654297 218.162109zM171.451172 219.120605C170.124512 219.120605 169.140625 218.333496 169.140625 217.083008 169.140625 215.85791 170.041992 215.15332 171.635254 215.058105L173.609375 214.9375 173.609375 214.31543C173.609375 213.471191 173.08252 213.007812 172.060547 213.007812 171.241699 213.007812 170.67041 213.318848 170.518066 213.858398L169.413574 213.858398C169.55957 212.760254 170.638672 212.036621 172.098633 212.036621 173.768066 212.036621 174.701172 212.893555 174.701172 214.31543L174.701172 219 173.660156 219 173.660156 217.990723 173.558594 217.990723C173.114258 218.720703 172.365234 219.120605 171.451172 219.120605zM176.719727 219L177.811523 219 177.811523 214.759766C177.811523 213.794922 178.566895 213.09668 179.60791 213.09668 179.82373 213.09668 180.217285 213.134766 180.306152 213.160156L180.306152 212.068359C180.166504 212.049316 179.937988 212.036621 179.760254 212.036621 178.852539 212.036621 178.06543 212.506348 177.862305 213.172852L177.760742 213.172852 177.760742 212.157227 176.719727 212.157227 176.719727 219zM187.523438 219L188.666016 219 188.666016 209.840332 187.529785 209.840332 185.092285 211.592285 185.092285 212.79834 187.421875 211.109863 187.523438 211.109863 187.523438 219zM193.268066 214.778809L194.429688 214.778809C195.730957 214.778809 196.537109 215.438965 196.537109 216.499023 196.537109 217.501953 195.680176 218.219238 194.474121 218.219238 193.293457 218.219238 192.468262 217.59082 192.366699 216.613281L191.262207 216.613281C191.344727 218.181152 192.626953 219.21582 194.486816 219.21582 196.295898 219.21582 197.711426 218.041504 197.711426 216.530762 197.711426 215.280273 196.956055 214.416992 195.711914 214.258301L195.711914 214.156738C196.714844 213.915527 197.317871 213.115723 197.317871 212.023926 197.317871 210.690918 196.041992 209.624512 194.442383 209.624512 192.696777 209.624512 191.560547 210.602051 191.446289 212.188965L192.557129 212.188965C192.652344 211.205078 193.344238 210.621094 194.397949 210.621094 195.45166 210.621094 196.15625 211.243164 196.15625 212.17627 196.15625 213.128418 195.419922 213.80127 194.378906 213.80127L193.268066 213.80127 193.268066 214.778809zM202.884766 212.036621C204.630371 212.036621 205.760254 213.426758 205.760254 215.578613 205.760254 217.717773 204.624023 219.120605 202.884766 219.120605 201.907227 219.120605 201.120117 218.695312 200.745605 217.97168L200.644043 217.97168 200.644043 221.285156 199.552246 221.285156 199.552246 212.157227 200.593262 212.157227 200.593262 213.299805 200.694824 213.299805C201.132812 212.512695 201.95166 212.036621 202.884766 212.036621zM202.624512 218.136719C203.881348 218.136719 204.630371 217.178223 204.630371 215.578613 204.630371 213.979004 203.881348 213.020508 202.630859 213.020508 201.393066 213.020508 200.612305 214.004395 200.612305 215.578613 200.612305 217.146484 201.393066 218.136719 202.624512 218.136719zM209.581543 216.416504L211.200195 219 212.495117 219 210.140137 215.53418 212.463379 212.157227 211.225586 212.157227 209.619629 214.702637 209.518066 214.702637 207.893066 212.157227 206.591797 212.157227 208.959473 215.578613 206.617188 219 207.85498 219 209.47998 216.416504 209.581543 216.416504zM134.929688 109.746094C135.037598 111.920898 136.855469 113.298828 139.603027 113.298828 142.508301 113.298828 144.30957 111.846191 144.30957 109.513672 144.30957 107.6875 143.288574 106.674805 140.856445 106.126953L139.478516 105.811523C137.992676 105.471191 137.386719 104.998047 137.386719 104.192871 137.386719 103.171875 138.299805 102.507812 139.677734 102.507812 140.989258 102.507812 141.918945 103.171875 142.068359 104.226074L144.118652 104.226074C144.019043 102.16748 142.201172 100.723145 139.686035 100.723145 137.004883 100.723145 135.228516 102.16748 135.228516 104.342285 135.228516 106.126953 136.249512 107.206055 138.424316 107.695801L139.976562 108.052734C141.512207 108.409668 142.167969 108.916016 142.167969 109.779297 142.167969 110.783691 141.146973 111.505859 139.73584 111.505859 138.216797 111.505859 137.154297 110.816895 137.021484 109.746094L134.929688 109.746094zM150.311035 105.371582C149.08252 105.371582 148.219238 106.251465 148.12793 107.57959L152.402832 107.57959C152.361328 106.234863 151.547852 105.371582 150.311035 105.371582zM152.419434 110.501465L154.370117 110.501465C153.97998 112.15332 152.477539 113.182617 150.335938 113.182617 147.663086 113.182617 146.052734 111.414551 146.052734 108.492676 146.052734 105.570801 147.687988 103.736328 150.319336 103.736328 152.90918 103.736328 154.461426 105.45459 154.461426 108.318359L154.461426 108.982422 148.119629 108.982422 148.119629 109.090332C148.169434 110.601074 149.041016 111.547363 150.394043 111.547363 151.415039 111.547363 152.120605 111.173828 152.419434 110.501465zM156.52832 113L158.586914 113 158.586914 107.47998C158.586914 106.367676 159.342285 105.529297 160.363281 105.529297 161.375977 105.529297 162.006836 106.135254 162.006836 107.131348L162.006836 113 164.007324 113 164.007324 107.347168C164.007324 106.30957 164.712891 105.529297 165.783691 105.529297 166.887695 105.529297 167.443848 106.110352 167.443848 107.280762L167.443848 113 169.494141 113 169.494141 106.757812C169.494141 104.873535 168.398438 103.736328 166.580566 103.736328 165.318848 103.736328 164.272949 104.39209 163.824707 105.388184L163.683594 105.388184C163.301758 104.367188 162.430176 103.736328 161.176758 103.736328 159.973145 103.736328 159.043457 104.350586 158.65332 105.388184L158.512207 105.388184 158.512207 103.918945 156.52832 103.918945 156.52832 113zM171.959473 113L174.009766 113 174.009766 103.918945 171.959473 103.918945 171.959473 113zM172.980469 102.441406C173.73584 102.441406 174.250488 101.959961 174.250488 101.304199 174.250488 100.648438 173.73584 100.166992 172.980469 100.166992 172.233398 100.166992 171.710449 100.648438 171.710449 101.304199 171.710449 101.959961 172.233398 102.441406 172.980469 102.441406zM181.895508 113L176.773926 113 176.773926 101.021973 181.779297 101.021973C184.053711 101.021973 185.42334 102.16748 185.42334 104.010254 185.42334 105.271973 184.493652 106.384277 183.290039 106.575195L183.290039 106.724609C184.900391 106.874023 186.012695 108.036133 186.012695 109.59668 186.012695 111.696777 184.452148 113 181.895508 113zM178.915527 102.723633L178.915527 106.060547 180.982422 106.060547C182.501465 106.060547 183.306641 105.471191 183.306641 104.39209 183.306641 103.337891 182.55127 102.723633 181.256348 102.723633L178.915527 102.723633zM178.915527 111.29834L181.405762 111.29834C182.98291 111.29834 183.821289 110.650879 183.821289 109.430664 183.821289 108.235352 182.958008 107.604492 181.322754 107.604492L178.915527 107.604492 178.915527 111.29834zM192.039062 113.182617C189.316406 113.182617 187.672852 111.40625 187.672852 108.459473 187.672852 105.529297 189.341309 103.736328 192.039062 103.736328 194.745117 103.736328 196.405273 105.520996 196.405273 108.459473 196.405273 111.40625 194.753418 113.182617 192.039062 113.182617zM192.039062 111.456055C193.475098 111.456055 194.288574 110.360352 194.288574 108.459473 194.288574 106.566895 193.466797 105.462891 192.039062 105.462891 190.603027 105.462891 189.78125 106.566895 189.78125 108.459473 189.78125 110.360352 190.603027 111.456055 192.039062 111.456055zM198.563477 113L200.62207 113 200.62207 100.407715 198.563477 100.407715 198.563477 113zM206.507324 113.149414C204.208008 113.149414 202.771973 111.339844 202.771973 108.451172 202.771973 105.579102 204.216309 103.769531 206.507324 103.769531 207.752441 103.769531 208.781738 104.367188 209.263184 105.363281L209.404297 105.363281 209.404297 100.407715 211.462891 100.407715 211.462891 113 209.470703 113 209.470703 111.563965 209.32959 111.563965C208.814941 112.560059 207.769043 113.149414 206.507324 113.149414zM207.146484 105.520996C205.743652 105.520996 204.880371 106.633301 204.880371 108.459473 204.880371 110.293945 205.735352 111.397949 207.146484 111.397949 208.565918 111.397949 209.429199 110.285645 209.429199 108.459473 209.429199 106.649902 208.557617 105.520996 207.146484 105.520996zM221.473633 113L223.615234 113 223.615234 101.021973 221.481934 101.021973 218.352539 103.213379 218.352539 105.271973 221.33252 103.180176 221.473633 103.180176 221.473633 113zM227.541504 113L229.782715 113 234.904297 102.848145 234.904297 101.021973 226.570312 101.021973 226.570312 102.823242 232.746094 102.823242 232.746094 102.956055 227.541504 113zM242.042969 103.769531C244.342285 103.769531 245.786621 105.545898 245.786621 108.459473 245.786621 111.356445 244.358887 113.149414 242.067871 113.149414 240.764648 113.149414 239.760254 112.584961 239.29541 111.62207L239.154297 111.62207 239.154297 116.021484 237.095703 116.021484 237.095703 103.918945 239.07959 103.918945 239.07959 105.421387 239.220703 105.421387C239.743652 104.39209 240.797852 103.769531 242.042969 103.769531zM241.395508 111.397949C242.823242 111.397949 243.669922 110.293945 243.669922 108.459473 243.669922 106.625 242.814941 105.520996 241.403809 105.520996 240.000977 105.520996 239.121094 106.649902 239.112793 108.459473 239.121094 110.277344 239.992676 111.397949 241.395508 111.397949zM250.924805 109.870605L252.78418 113 255.108398 113 252.14502 108.409668 255.075195 103.918945 252.809082 103.918945 251.016113 107.040039 250.875 107.040039 249.06543 103.918945 246.683105 103.918945 249.646484 108.492676 246.708008 113 248.924316 113 250.783691 109.870605 250.924805 109.870605z"/>
    <path fill="#737373" d="M136.310547,257.855957 L136.310547,261.359863 L138.563965,261.359863 C139.738281,261.359863 140.404785,260.731445 140.404785,259.60791 C140.404785,258.509766 139.693848,257.855957 138.513184,257.855957 L136.310547,257.855957 Z M136.310547,262.375488 L136.310547,266 L135.167969,266 L135.167969,256.840332 L138.665527,256.840332 C140.430176,256.840332 141.585449,257.919434 141.585449,259.569824 C141.585449,260.845703 140.893555,261.835938 139.744629,262.197754 L141.864746,266 L140.525391,266 L138.563965,262.375488 L136.310547,262.375488 Z M146.060547,260.001465 C144.96875,260.001465 144.207031,260.80127 144.124512,262.013672 L147.89502,262.013672 C147.869629,260.80127 147.145996,260.001465 146.060547,260.001465 Z M147.863281,264.229004 L148.955078,264.229004 C148.625,265.40332 147.571289,266.120605 146.073242,266.120605 C144.175293,266.120605 142.988281,264.749512 142.988281,262.584961 C142.988281,260.433105 144.194336,259.036621 146.073242,259.036621 C147.92041,259.036621 149.043945,260.350586 149.043945,262.477051 L149.043945,262.895996 L144.124512,262.895996 L144.124512,262.946777 C144.181641,264.298828 144.937012,265.155762 146.098633,265.155762 C146.980957,265.155762 147.577637,264.832031 147.863281,264.229004 Z M153.525391,264.933594 C154.794922,264.933594 155.556641,263.96875 155.556641,262.477051 C155.556641,260.985352 154.788574,260.020508 153.525391,260.020508 C152.255859,260.020508 151.544922,260.985352 151.544922,262.477051 C151.544922,263.96875 152.255859,264.933594 153.525391,264.933594 Z M153.576172,268.62793 C151.925781,268.62793 150.87207,267.885254 150.707031,266.755371 L151.862305,266.755371 C151.98291,267.313965 152.592285,267.675781 153.576172,267.675781 C154.80127,267.675781 155.53125,267.072754 155.53125,266.063477 L155.53125,264.717773 L155.429688,264.717773 C154.998047,265.473145 154.223633,265.898438 153.28418,265.898438 C151.513184,265.898438 150.415039,264.527344 150.415039,262.477051 C150.415039,260.426758 151.525879,259.036621 153.28418,259.036621 C154.242676,259.036621 155.086914,259.506348 155.480469,260.242676 L155.582031,260.242676 L155.582031,259.157227 L156.623047,259.157227 L156.623047,266.120605 C156.623047,267.650391 155.442383,268.62793 153.576172,268.62793 Z M164.214844,259.157227 L163.123047,259.157227 L163.123047,263.207031 C163.123047,264.406738 162.462891,265.124023 161.256836,265.124023 C160.165039,265.124023 159.708008,264.552734 159.708008,263.321289 L159.708008,259.157227 L158.616211,259.157227 L158.616211,263.587891 C158.616211,265.206543 159.416016,266.120605 160.952148,266.120605 C161.999512,266.120605 162.729492,265.688965 163.072266,264.927246 L163.173828,264.927246 L163.173828,266 L164.214844,266 L164.214844,259.157227 Z M166.334961,266 L167.426758,266 L167.426758,256.44043 L166.334961,256.44043 L166.334961,266 Z M171.654297,265.162109 C172.777832,265.162109 173.609375,264.425781 173.609375,263.448242 L173.609375,262.819824 L171.768555,262.94043 C170.727539,263.010254 170.270508,263.37207 170.270508,264.057617 C170.270508,264.755859 170.86084,265.162109 171.654297,265.162109 Z M171.451172,266.120605 C170.124512,266.120605 169.140625,265.333496 169.140625,264.083008 C169.140625,262.85791 170.041992,262.15332 171.635254,262.058105 L173.609375,261.9375 L173.609375,261.31543 C173.609375,260.471191 173.08252,260.007812 172.060547,260.007812 C171.241699,260.007812 170.67041,260.318848 170.518066,260.858398 L169.413574,260.858398 C169.55957,259.760254 170.638672,259.036621 172.098633,259.036621 C173.768066,259.036621 174.701172,259.893555 174.701172,261.31543 L174.701172,266 L173.660156,266 L173.660156,264.990723 L173.558594,264.990723 C173.114258,265.720703 172.365234,266.120605 171.451172,266.120605 Z M176.719727,266 L177.811523,266 L177.811523,261.759766 C177.811523,260.794922 178.566895,260.09668 179.60791,260.09668 C179.82373,260.09668 180.217285,260.134766 180.306152,260.160156 L180.306152,259.068359 C180.166504,259.049316 179.937988,259.036621 179.760254,259.036621 C178.852539,259.036621 178.06543,259.506348 177.862305,260.172852 L177.760742,260.172852 L177.760742,259.157227 L176.719727,259.157227 L176.719727,266 Z M187.523438,266 L188.666016,266 L188.666016,256.840332 L187.529785,256.840332 L185.092285,258.592285 L185.092285,259.79834 L187.421875,258.109863 L187.523438,258.109863 L187.523438,266 Z M193.268066,261.778809 L194.429688,261.778809 C195.730957,261.778809 196.537109,262.438965 196.537109,263.499023 C196.537109,264.501953 195.680176,265.219238 194.474121,265.219238 C193.293457,265.219238 192.468262,264.59082 192.366699,263.613281 L191.262207,263.613281 C191.344727,265.181152 192.626953,266.21582 194.486816,266.21582 C196.295898,266.21582 197.711426,265.041504 197.711426,263.530762 C197.711426,262.280273 196.956055,261.416992 195.711914,261.258301 L195.711914,261.156738 C196.714844,260.915527 197.317871,260.115723 197.317871,259.023926 C197.317871,257.690918 196.041992,256.624512 194.442383,256.624512 C192.696777,256.624512 191.560547,257.602051 191.446289,259.188965 L192.557129,259.188965 C192.652344,258.205078 193.344238,257.621094 194.397949,257.621094 C195.45166,257.621094 196.15625,258.243164 196.15625,259.17627 C196.15625,260.128418 195.419922,260.80127 194.378906,260.80127 L193.268066,260.80127 L193.268066,261.778809 Z M202.884766,259.036621 C204.630371,259.036621 205.760254,260.426758 205.760254,262.578613 C205.760254,264.717773 204.624023,266.120605 202.884766,266.120605 C201.907227,266.120605 201.120117,265.695312 200.745605,264.97168 L200.644043,264.97168 L200.644043,268.285156 L199.552246,268.285156 L199.552246,259.157227 L200.593262,259.157227 L200.593262,260.299805 L200.694824,260.299805 C201.132812,259.512695 201.95166,259.036621 202.884766,259.036621 Z M202.624512,265.136719 C203.881348,265.136719 204.630371,264.178223 204.630371,262.578613 C204.630371,260.979004 203.881348,260.020508 202.630859,260.020508 C201.393066,260.020508 200.612305,261.004395 200.612305,262.578613 C200.612305,264.146484 201.393066,265.136719 202.624512,265.136719 Z M209.581543,263.416504 L211.200195,266 L212.495117,266 L210.140137,262.53418 L212.463379,259.157227 L211.225586,259.157227 L209.619629,261.702637 L209.518066,261.702637 L207.893066,259.157227 L206.591797,259.157227 L208.959473,262.578613 L206.617188,266 L207.85498,266 L209.47998,263.416504 L209.581543,263.416504 Z"/>
    <path fill="#0C0C0D" d="M139.224121,142 L135.11084,142 L135.11084,132.840332 L139.116211,132.840332 C140.893555,132.840332 141.953613,133.709961 141.953613,135.125488 C141.953613,136.09668 141.236328,136.940918 140.296875,137.080566 L140.296875,137.194824 C141.509277,137.283691 142.391602,138.197754 142.391602,139.378418 C142.391602,140.984375 141.179199,142 139.224121,142 Z M137.027832,134.306641 L137.027832,136.63623 L138.46875,136.63623 C139.503418,136.63623 140.068359,136.210938 140.068359,135.474609 C140.068359,134.744629 139.541504,134.306641 138.627441,134.306641 L137.027832,134.306641 Z M137.027832,140.533691 L138.735352,140.533691 C139.839844,140.533691 140.436523,140.070312 140.436523,139.213379 C140.436523,138.375488 139.820801,137.931152 138.690918,137.931152 L137.027832,137.931152 L137.027832,140.533691 Z M147.044434,142.152344 C144.892578,142.152344 143.597656,140.787598 143.597656,138.496094 C143.597656,136.22998 144.911621,134.846191 147.044434,134.846191 C149.177246,134.846191 150.491211,136.223633 150.491211,138.496094 C150.491211,140.787598 149.196289,142.152344 147.044434,142.152344 Z M147.044434,140.641602 C148.02832,140.641602 148.593262,139.854492 148.593262,138.496094 C148.593262,137.150391 148.021973,136.356934 147.044434,136.356934 C146.060547,136.356934 145.495605,137.150391 145.495605,138.496094 C145.495605,139.86084 146.054199,140.641602 147.044434,140.641602 Z M152.059082,142 L153.90625,142 L153.90625,132.326172 L152.059082,132.326172 L152.059082,142 Z M158.330566,142.10791 C156.565918,142.10791 155.480469,140.724121 155.480469,138.489746 C155.480469,136.261719 156.572266,134.884277 158.330566,134.884277 C159.276367,134.884277 160.057129,135.341309 160.418945,136.115723 L160.526855,136.115723 L160.526855,132.326172 L162.374023,132.326172 L162.374023,142 L160.583984,142 L160.583984,140.901855 L160.469727,140.901855 C160.095215,141.657227 159.301758,142.10791 158.330566,142.10791 Z M158.958984,136.433105 C157.975098,136.433105 157.378418,137.213867 157.378418,138.496094 C157.378418,139.791016 157.96875,140.56543 158.958984,140.56543 C159.949219,140.56543 160.545898,139.784668 160.545898,138.502441 C160.545898,137.226562 159.942871,136.433105 158.958984,136.433105 Z M169.85791,142 L171.774902,142 L171.774902,132.840332 L169.864258,132.840332 L167.496582,134.47168 L167.496582,136.255371 L169.743652,134.706543 L169.85791,134.706543 L169.85791,142 Z M176.54834,138.026367 L177.68457,138.026367 C178.712891,138.026367 179.341309,138.521484 179.341309,139.321289 C179.341309,140.102051 178.674805,140.641602 177.716309,140.641602 C176.732422,140.641602 176.078613,140.152832 176.021484,139.378418 L174.187012,139.378418 C174.269531,141.10498 175.65332,142.234863 177.697266,142.234863 C179.785645,142.234863 181.296387,141.073242 181.296387,139.467285 C181.296387,138.26123 180.509277,137.42334 179.252441,137.283691 L179.252441,137.169434 C180.274414,136.959961 180.940918,136.134766 180.940918,135.074707 C180.940918,133.633789 179.588867,132.605469 177.709961,132.605469 C175.710449,132.605469 174.421875,133.697266 174.358398,135.430176 L176.129395,135.430176 C176.180176,134.636719 176.770508,134.135254 177.65918,134.135254 C178.554199,134.135254 179.125488,134.60498 179.125488,135.341309 C179.125488,136.090332 178.535156,136.598145 177.665527,136.598145 L176.54834,136.598145 L176.54834,138.026367 Z M187.053711,134.884277 C188.824707,134.884277 189.910156,136.22998 189.910156,138.496094 C189.910156,140.755859 188.837402,142.10791 187.085449,142.10791 C186.08252,142.10791 185.314453,141.669922 184.97168,140.927246 L184.857422,140.927246 L184.857422,144.323242 L183.010254,144.323242 L183.010254,134.998535 L184.800293,134.998535 L184.800293,136.147461 L184.914551,136.147461 C185.29541,135.360352 186.088867,134.884277 187.053711,134.884277 Z M186.425293,140.56543 C187.421875,140.56543 188.012207,139.791016 188.012207,138.496094 C188.012207,137.213867 187.415527,136.433105 186.431641,136.433105 C185.447754,136.433105 184.838379,137.220215 184.838379,138.502441 C184.838379,139.784668 185.447754,140.56543 186.425293,140.56543 Z M193.902832,139.714844 L195.204102,142 L197.260742,142 L195.04541,138.458008 L197.241699,134.998535 L195.223145,134.998535 L193.985352,137.296387 L193.871094,137.296387 L192.633301,134.998535 L190.513184,134.998535 L192.722168,138.540527 L190.525879,142 L192.487305,142 L193.788574,139.714844 L193.902832,139.714844 Z"/>
    <path fill="#737373" d="M135.955078,286.108887 L135.955078,289.07373 L137.861816,289.07373 C138.855469,289.07373 139.419434,288.541992 139.419434,287.591309 C139.419434,286.662109 138.817871,286.108887 137.818848,286.108887 L135.955078,286.108887 Z M135.955078,289.933105 L135.955078,293 L134.988281,293 L134.988281,285.249512 L137.947754,285.249512 C139.440918,285.249512 140.418457,286.162598 140.418457,287.559082 C140.418457,288.638672 139.833008,289.476562 138.86084,289.782715 L140.654785,293 L139.521484,293 L137.861816,289.933105 L135.955078,289.933105 Z M144.205078,287.924316 C143.28125,287.924316 142.636719,288.601074 142.566895,289.626953 L145.757324,289.626953 C145.73584,288.601074 145.123535,287.924316 144.205078,287.924316 Z M145.730469,291.501465 L146.654297,291.501465 C146.375,292.495117 145.483398,293.102051 144.21582,293.102051 C142.609863,293.102051 141.605469,291.941895 141.605469,290.110352 C141.605469,288.289551 142.625977,287.10791 144.21582,287.10791 C145.778809,287.10791 146.729492,288.219727 146.729492,290.019043 L146.729492,290.373535 L142.566895,290.373535 L142.566895,290.416504 C142.615234,291.560547 143.254395,292.285645 144.237305,292.285645 C144.983887,292.285645 145.48877,292.011719 145.730469,291.501465 Z M150.521484,292.097656 C151.595703,292.097656 152.240234,291.28125 152.240234,290.019043 C152.240234,288.756836 151.590332,287.94043 150.521484,287.94043 C149.447266,287.94043 148.845703,288.756836 148.845703,290.019043 C148.845703,291.28125 149.447266,292.097656 150.521484,292.097656 Z M150.564453,295.223633 C149.167969,295.223633 148.276367,294.595215 148.136719,293.63916 L149.114258,293.63916 C149.216309,294.111816 149.731934,294.417969 150.564453,294.417969 C151.601074,294.417969 152.21875,293.907715 152.21875,293.053711 L152.21875,291.915039 L152.132812,291.915039 C151.767578,292.554199 151.112305,292.914062 150.317383,292.914062 C148.818848,292.914062 147.889648,291.753906 147.889648,290.019043 C147.889648,288.28418 148.82959,287.10791 150.317383,287.10791 C151.128418,287.10791 151.842773,287.505371 152.175781,288.128418 L152.261719,288.128418 L152.261719,287.209961 L153.142578,287.209961 L153.142578,293.102051 C153.142578,294.396484 152.143555,295.223633 150.564453,295.223633 Z M159.566406,287.209961 L158.642578,287.209961 L158.642578,290.636719 C158.642578,291.651855 158.083984,292.258789 157.063477,292.258789 C156.139648,292.258789 155.75293,291.775391 155.75293,290.733398 L155.75293,287.209961 L154.829102,287.209961 L154.829102,290.958984 C154.829102,292.328613 155.505859,293.102051 156.805664,293.102051 C157.691895,293.102051 158.30957,292.736816 158.599609,292.092285 L158.685547,292.092285 L158.685547,293 L159.566406,293 L159.566406,287.209961 Z M161.360352,293 L162.28418,293 L162.28418,284.911133 L161.360352,284.911133 L161.360352,293 Z M165.861328,292.291016 C166.812012,292.291016 167.515625,291.667969 167.515625,290.84082 L167.515625,290.309082 L165.958008,290.411133 C165.077148,290.470215 164.69043,290.776367 164.69043,291.356445 C164.69043,291.947266 165.189941,292.291016 165.861328,292.291016 Z M165.689453,293.102051 C164.566895,293.102051 163.734375,292.436035 163.734375,291.37793 C163.734375,290.341309 164.49707,289.745117 165.845215,289.664551 L167.515625,289.5625 L167.515625,289.036133 C167.515625,288.321777 167.069824,287.929688 166.205078,287.929688 C165.512207,287.929688 165.028809,288.192871 164.899902,288.649414 L163.965332,288.649414 C164.088867,287.720215 165.001953,287.10791 166.237305,287.10791 C167.649902,287.10791 168.439453,287.833008 168.439453,289.036133 L168.439453,293 L167.558594,293 L167.558594,292.145996 L167.472656,292.145996 C167.09668,292.763672 166.462891,293.102051 165.689453,293.102051 Z M170.147461,293 L171.071289,293 L171.071289,289.412109 C171.071289,288.595703 171.710449,288.004883 172.591309,288.004883 C172.773926,288.004883 173.106934,288.037109 173.182129,288.058594 L173.182129,287.134766 C173.063965,287.118652 172.870605,287.10791 172.720215,287.10791 C171.952148,287.10791 171.286133,287.505371 171.114258,288.069336 L171.02832,288.069336 L171.02832,287.209961 L170.147461,287.209961 L170.147461,293 Z M179.289062,293 L180.255859,293 L180.255859,285.249512 L179.294434,285.249512 L177.231934,286.731934 L177.231934,287.752441 L179.203125,286.32373 L179.289062,286.32373 L179.289062,293 Z M184.418457,293 L185.385254,293 L185.385254,285.249512 L184.423828,285.249512 L182.361328,286.731934 L182.361328,287.752441 L184.33252,286.32373 L184.418457,286.32373 L184.418457,293 Z M190.52002,287.10791 C191.99707,287.10791 192.953125,288.28418 192.953125,290.10498 C192.953125,291.915039 191.991699,293.102051 190.52002,293.102051 C189.692871,293.102051 189.026855,292.742188 188.709961,292.129883 L188.624023,292.129883 L188.624023,294.933594 L187.700195,294.933594 L187.700195,287.209961 L188.581055,287.209961 L188.581055,288.176758 L188.666992,288.176758 C189.037598,287.510742 189.730469,287.10791 190.52002,287.10791 Z M190.299805,292.269531 C191.363281,292.269531 191.99707,291.458496 191.99707,290.10498 C191.99707,288.751465 191.363281,287.94043 190.305176,287.94043 C189.257812,287.94043 188.597168,288.772949 188.597168,290.10498 C188.597168,291.431641 189.257812,292.269531 190.299805,292.269531 Z M196.186523,290.813965 L197.556152,293 L198.651855,293 L196.65918,290.067383 L198.625,287.209961 L197.577637,287.209961 L196.21875,289.36377 L196.132812,289.36377 L194.757812,287.209961 L193.656738,287.209961 L195.660156,290.10498 L193.678223,293 L194.725586,293 L196.100586,290.813965 L196.186523,290.813965 Z"/>
    <path fill="#0C0C0D" d="M143.764648 24L143.764648 1.92480469 151.901855 1.92480469 151.901855.748535156 134.338379.748535156 134.338379 1.92480469 142.491699 1.92480469 142.491699 24 143.764648 24zM154.254395 24L155.495117 24 155.495117 14.0581055C155.495117 10.5615234 157.76709 8.14453125 161.054199 8.14453125 164.164062 8.14453125 166.210449 10.1264648 166.210449 13.3491211L166.210449 24 167.451172 24 167.451172 13.2041016C167.451172 9.44970703 165.001953 7.01660156 161.328125 7.01660156 158.508301 7.01660156 156.316895 8.56347656 155.543457 10.9160156L155.495117 10.9160156 155.495117.748535156 154.254395.748535156 154.254395 24zM171.22168 24L172.462402 24 172.462402 7.2421875 171.22168 7.2421875 171.22168 24zM171.850098 3.1171875C172.381836 3.1171875 172.833008 2.68212891 172.833008 2.13427734 172.833008 1.58642578 172.381836 1.16748047 171.850098 1.16748047 171.302246 1.16748047 170.851074 1.58642578 170.851074 2.13427734 170.851074 2.68212891 171.302246 3.1171875 171.850098 3.1171875zM176.32959 24L177.586426 24 177.586426 14.0258789C177.586426 10.5615234 179.777832 8.14453125 183.048828 8.14453125 186.158691 8.14453125 188.205078 10.0942383 188.205078 13.3330078L188.205078 24 189.461914 24 189.461914 13.1879883C189.461914 9.40136719 187.028809 7.01660156 183.338867 7.01660156 180.486816 7.01660156 178.327637 8.56347656 177.538086 10.9160156L177.505859 10.9160156 177.505859 7.2421875 176.32959 7.2421875 176.32959 24zM203.625488 12.4951172L206.251953 12.4951172C210.570312 12.4951172 213.164551 14.4448242 213.164551 17.699707 213.164551 20.8740234 210.376953 23.1943359 206.622559 23.1943359 202.964844 23.1943359 200.177246 21.019043 200.080566 18.1508789L198.839844 18.1508789C198.92041 21.6796875 202.175293 24.3383789 206.622559 24.3383789 211.085938 24.3383789 214.453613 21.534668 214.453613 17.6674805 214.453613 14.3803711 212.117188 12.140625 208.507812 11.9150391L208.507812 11.8505859C211.553223 11.2866211 213.438477 9.17578125 213.438477 6.29150391 213.438477 2.90771484 210.441406.41015625 206.445312.41015625 202.497559.41015625 199.564941 2.89160156 199.371582 6.35595703L200.612305 6.35595703C200.805664 3.58447266 203.23877 1.55419922 206.396973 1.55419922 209.780762 1.55419922 212.165527 3.61669922 212.165527 6.40429688 212.165527 9.32080078 209.732422 11.3671875 206.219727 11.3671875L203.625488 11.3671875 203.625488 12.4951172zM222.091309 12.4951172L224.717773 12.4951172C229.036133 12.4951172 231.630371 14.4448242 231.630371 17.699707 231.630371 20.8740234 228.842773 23.1943359 225.088379 23.1943359 221.430664 23.1943359 218.643066 21.019043 218.546387 18.1508789L217.305664 18.1508789C217.38623 21.6796875 220.641113 24.3383789 225.088379 24.3383789 229.551758 24.3383789 232.919434 21.534668 232.919434 17.6674805 232.919434 14.3803711 230.583008 12.140625 226.973633 11.9150391L226.973633 11.8505859C230.019043 11.2866211 231.904297 9.17578125 231.904297 6.29150391 231.904297 2.90771484 228.907227.41015625 224.911133.41015625 220.963379.41015625 218.030762 2.89160156 217.837402 6.35595703L219.078125 6.35595703C219.271484 3.58447266 221.70459 1.55419922 224.862793 1.55419922 228.246582 1.55419922 230.631348 3.61669922 230.631348 6.40429688 230.631348 9.32080078 228.198242 11.3671875 224.685547 11.3671875L222.091309 11.3671875 222.091309 12.4951172zM243.699219 7.01660156C247.904785 7.01660156 250.805176 10.5131836 250.805176 15.6210938 250.805176 20.7451172 247.920898 24.2255859 243.715332 24.2255859 240.621582 24.2255859 238.269043 22.2114258 237.511719 19.6010742L237.479492 19.6010742 237.479492 29.4946289 236.222656 29.4946289 236.222656 7.2421875 237.398926 7.2421875 237.398926 11.7055664 237.447266 11.7055664C238.20459 9.06298828 240.621582 7.01660156 243.699219 7.01660156zM243.554199 23.0976562C247.099121 23.0976562 249.532227 20.0683594 249.532227 15.637207 249.532227 11.1899414 247.099121 8.14453125 243.554199 8.14453125 239.960938 8.14453125 237.463379 11.222168 237.463379 15.6210938 237.463379 20.0361328 239.960938 23.0976562 243.554199 23.0976562zM258.73291 16.4750977L264.08252 24 265.532715 24 259.441895 15.4599609 265.564941 7.2421875 264.098633 7.2421875 258.765137 14.5415039 258.716797 14.5415039 253.383301 7.2421875 251.900879 7.2421875 258.007812 15.4921875 251.868652 24 253.318848 24 258.68457 16.4750977 258.73291 16.4750977zM136.666016 181.603027L136.666016 185.645996 139.266113 185.645996C140.621094 185.645996 141.390137 184.920898 141.390137 183.624512 141.390137 182.357422 140.569824 181.603027 139.20752 181.603027L136.666016 181.603027zM136.666016 186.817871L136.666016 191 135.347656 191 135.347656 180.431152 139.383301 180.431152C141.419434 180.431152 142.752441 181.67627 142.752441 183.580566 142.752441 185.052734 141.954102 186.195312 140.628418 186.612793L143.074707 191 141.529297 191 139.266113 186.817871 136.666016 186.817871zM147.916016 184.078613C146.65625 184.078613 145.777344 185.001465 145.682129 186.400391L150.032715 186.400391C150.003418 185.001465 149.168457 184.078613 147.916016 184.078613zM149.996094 188.956543L151.255859 188.956543C150.875 190.311523 149.65918 191.13916 147.930664 191.13916 145.740723 191.13916 144.371094 189.557129 144.371094 187.05957 144.371094 184.57666 145.762695 182.965332 147.930664 182.965332 150.062012 182.965332 151.358398 184.481445 151.358398 186.935059L151.358398 187.418457 145.682129 187.418457 145.682129 187.477051C145.748047 189.037109 146.619629 190.025879 147.959961 190.025879 148.978027 190.025879 149.666504 189.652344 149.996094 188.956543zM156.529297 189.769531C157.994141 189.769531 158.873047 188.65625 158.873047 186.935059 158.873047 185.213867 157.986816 184.100586 156.529297 184.100586 155.064453 184.100586 154.244141 185.213867 154.244141 186.935059 154.244141 188.65625 155.064453 189.769531 156.529297 189.769531zM156.587891 194.032227C154.683594 194.032227 153.467773 193.175293 153.277344 191.871582L154.610352 191.871582C154.749512 192.516113 155.452637 192.933594 156.587891 192.933594 158.001465 192.933594 158.84375 192.237793 158.84375 191.073242L158.84375 189.520508 158.726562 189.520508C158.228516 190.39209 157.334961 190.882812 156.250977 190.882812 154.20752 190.882812 152.94043 189.300781 152.94043 186.935059 152.94043 184.569336 154.222168 182.965332 156.250977 182.965332 157.356934 182.965332 158.331055 183.507324 158.785156 184.356934L158.902344 184.356934 158.902344 183.104492 160.103516 183.104492 160.103516 191.13916C160.103516 192.904297 158.741211 194.032227 156.587891 194.032227zM168.863281 183.104492L167.603516 183.104492 167.603516 187.777344C167.603516 189.161621 166.841797 189.989258 165.450195 189.989258 164.19043 189.989258 163.663086 189.330078 163.663086 187.90918L163.663086 183.104492 162.40332 183.104492 162.40332 188.216797C162.40332 190.084473 163.326172 191.13916 165.098633 191.13916 166.307129 191.13916 167.149414 190.641113 167.544922 189.762207L167.662109 189.762207 167.662109 191 168.863281 191 168.863281 183.104492zM171.30957 191L172.569336 191 172.569336 179.969727 171.30957 179.969727 171.30957 191zM177.447266 190.033203C178.743652 190.033203 179.703125 189.183594 179.703125 188.055664L179.703125 187.330566 177.579102 187.469727C176.37793 187.550293 175.850586 187.967773 175.850586 188.758789 175.850586 189.564453 176.531738 190.033203 177.447266 190.033203zM177.212891 191.13916C175.682129 191.13916 174.546875 190.230957 174.546875 188.788086 174.546875 187.374512 175.586914 186.561523 177.425293 186.45166L179.703125 186.3125 179.703125 185.594727C179.703125 184.620605 179.095215 184.085938 177.916016 184.085938 176.971191 184.085938 176.312012 184.444824 176.13623 185.067383L174.861816 185.067383C175.030273 183.800293 176.275391 182.965332 177.959961 182.965332 179.88623 182.965332 180.962891 183.954102 180.962891 185.594727L180.962891 191 179.761719 191 179.761719 189.835449 179.644531 189.835449C179.131836 190.677734 178.267578 191.13916 177.212891 191.13916zM183.291992 191L184.551758 191 184.551758 186.107422C184.551758 184.994141 185.42334 184.188477 186.624512 184.188477 186.873535 184.188477 187.327637 184.232422 187.430176 184.261719L187.430176 183.001953C187.269043 182.97998 187.005371 182.965332 186.800293 182.965332 185.75293 182.965332 184.844727 183.507324 184.610352 184.276367L184.493164 184.276367 184.493164 183.104492 183.291992 183.104492 183.291992 191zM195.757812 191L197.076172 191 197.076172 180.431152 195.765137 180.431152 192.952637 182.452637 192.952637 183.844238 195.640625 181.895996 195.757812 181.895996 195.757812 191zM203.711914 191.249023C205.901855 191.249023 207.40332 189.78418 207.40332 187.638184 207.40332 185.558105 205.99707 184.100586 203.990234 184.100586 203.016113 184.100586 202.269043 184.400879 201.756348 185.001465L201.63916 185.001465 201.939453 181.610352 206.802734 181.610352 206.802734 180.431152 200.906738 180.431152 200.328125 186.422363 201.565918 186.422363C201.998047 185.667969 202.789062 185.23584 203.748535 185.23584 205.132812 185.23584 206.084961 186.224609 206.084961 187.674805 206.084961 189.125 205.140137 190.091797 203.726562 190.091797 202.481445 190.091797 201.573242 189.330078 201.456055 188.1875L200.159668 188.1875C200.276855 190.01123 201.712402 191.249023 203.711914 191.249023zM213.35791 182.965332C215.37207 182.965332 216.675781 184.569336 216.675781 187.052246 216.675781 189.520508 215.364746 191.13916 213.35791 191.13916 212.22998 191.13916 211.321777 190.648438 210.889648 189.813477L210.772461 189.813477 210.772461 193.636719 209.512695 193.636719 209.512695 183.104492 210.713867 183.104492 210.713867 184.422852 210.831055 184.422852C211.336426 183.514648 212.28125 182.965332 213.35791 182.965332zM213.057617 190.003906C214.507812 190.003906 215.37207 188.897949 215.37207 187.052246 215.37207 185.206543 214.507812 184.100586 213.064941 184.100586 211.636719 184.100586 210.73584 185.23584 210.73584 187.052246 210.73584 188.861328 211.636719 190.003906 213.057617 190.003906zM221.084961 188.019043L222.952637 191 224.446777 191 221.729492 187.000977 224.410156 183.104492 222.981934 183.104492 221.128906 186.041504 221.011719 186.041504 219.136719 183.104492 217.635254 183.104492 220.367188 187.052246 217.664551 191 219.092773 191 220.967773 188.019043 221.084961 188.019043zM144.677734 79.6679688L136.911133 79.6679688 136.911133 65.4990234 135.450195 65.4990234 135.450195 81 144.677734 81 144.677734 79.6679688zM146.62207 81L148.050781 81 148.050781 69.828125 146.62207 69.828125 146.62207 81zM147.331055 67.5722656C147.857422 67.5722656 148.287109 67.1533203 148.287109 66.6269531 148.287109 66.1113281 147.857422 65.6923828 147.331055 65.6923828 146.81543 65.6923828 146.385742 66.1113281 146.385742 66.6269531 146.385742 67.1533203 146.81543 67.5722656 147.331055 67.5722656zM155.011719 79.7861328C157.160156 79.7861328 158.610352 78.0029297 158.610352 75.3818359 158.610352 72.7714844 157.160156 70.9667969 155.011719 70.9667969 152.90625 70.9667969 151.499023 72.7392578 151.499023 75.3925781 151.499023 78.0351562 152.90625 79.7861328 155.011719 79.7861328zM155.151367 85.1357422C152.712891 85.1357422 150.875977 83.7929688 150.564453 82.03125L152.036133 82.03125C152.401367 83.1269531 153.59375 83.9111328 155.21582 83.9111328 157.310547 83.9111328 158.610352 82.6972656 158.610352 80.8710938L158.610352 78.6259766 158.578125 78.6259766C157.976562 80.0654297 156.537109 81.0537109 154.753906 81.0537109 151.939453 81.0537109 150.038086 78.7763672 150.038086 75.3818359 150.038086 71.9765625 151.950195 69.6992188 154.786133 69.6992188 156.569336 69.6992188 157.998047 70.6767578 158.65332 72.1376953L158.685547 72.1376953 158.685547 69.828125 160.039062 69.828125 160.039062 80.8173828C160.039062 83.4169922 158.137695 85.1357422 155.151367 85.1357422zM162.584961 81L164.013672 81 164.013672 74.4902344C164.013672 72.3847656 165.313477 70.9667969 167.322266 70.9667969 169.212891 70.9667969 170.297852 72.1376953 170.297852 74.0820312L170.297852 81 171.726562 81 171.726562 73.8349609C171.726562 71.3427734 170.179688 69.6992188 167.730469 69.6992188 165.947266 69.6992188 164.658203 70.515625 164.045898 71.9228516L164.013672 71.9228516 164.013672 65.4990234 162.584961 65.4990234 162.584961 81zM174.723633 67.0351562L174.723633 69.828125 173.058594 69.828125 173.058594 71.0097656 174.723633 71.0097656 174.723633 78.25C174.723633 80.2587891 175.475586 81.0537109 177.344727 81.0537109 177.645508 81.0537109 178.24707 81.0322266 178.397461 80.9892578L178.397461 79.7861328C178.311523 79.796875 177.774414 79.8183594 177.624023 79.8183594 176.592773 79.8183594 176.141602 79.3349609 176.141602 78.1748047L176.141602 71.0097656 178.34375 71.0097656 178.34375 69.828125 176.141602 69.828125 176.141602 67.0351562 174.723633 67.0351562zM184.724609 69.8388672L184.724609 69.8496094 186.142578 69.8496094 186.142578 69.8388672C186.164062 67.9482422 187.657227 66.5410156 189.644531 66.5410156 191.545898 66.5410156 193.049805 67.8730469 193.049805 69.5703125 193.049805 70.9238281 192.491211 71.8476562 190.27832 74.1787109L184.799805 79.96875 184.799805 81 194.908203 81 194.908203 79.6894531 186.851562 79.6894531 186.851562 79.6464844 191.169922 75.1347656C193.748047 72.4599609 194.510742 71.1816406 194.510742 69.484375 194.510742 67.1103516 192.394531 65.2519531 189.6875 65.2519531 186.851562 65.2519531 184.746094 67.1962891 184.724609 69.8388672zM197.099609 69.8388672L197.099609 69.8496094 198.517578 69.8496094 198.517578 69.8388672C198.539062 67.9482422 200.032227 66.5410156 202.019531 66.5410156 203.920898 66.5410156 205.424805 67.8730469 205.424805 69.5703125 205.424805 70.9238281 204.866211 71.8476562 202.65332 74.1787109L197.174805 79.96875 197.174805 81 207.283203 81 207.283203 79.6894531 199.226562 79.6894531 199.226562 79.6464844 203.544922 75.1347656C206.123047 72.4599609 206.885742 71.1816406 206.885742 69.484375 206.885742 67.1103516 204.769531 65.2519531 202.0625 65.2519531 199.226562 65.2519531 197.121094 67.1962891 197.099609 69.8388672zM214.695312 69.6992188C217.520508 69.6992188 219.454102 71.9980469 219.454102 75.4140625 219.454102 78.8300781 217.53125 81.1289062 214.727539 81.1289062 212.933594 81.1289062 211.537109 80.1513672 210.924805 78.7011719L210.881836 78.7011719 210.881836 84.6953125 209.463867 84.6953125 209.463867 69.828125 210.806641 69.828125 210.806641 72.1376953 210.849609 72.1376953C211.44043 70.7197266 212.933594 69.6992188 214.695312 69.6992188zM214.448242 79.8613281C216.575195 79.8613281 218.003906 78.0888672 218.003906 75.4140625 218.003906 72.75 216.575195 70.9667969 214.448242 70.9667969 212.332031 70.9667969 210.881836 72.7822266 210.881836 75.4140625 210.881836 78.0458984 212.332031 79.8613281 214.448242 79.8613281zM224.932617 76.4130859L227.994141 81 229.594727 81 225.727539 75.328125 229.626953 69.828125 228.026367 69.828125 224.975586 74.3076172 224.943359 74.3076172 221.881836 69.828125 220.270508 69.828125 224.148438 75.3818359 220.227539 81 221.817383 81 224.900391 76.4130859 224.932617 76.4130859z"/>
    <g transform="translate(65.5 329)">
      <rect width="226" height="26" fill="#EBEBED" rx="4"/>
      <path fill="#737373" d="M18.66,11.72 L20.19,11.39 L19.91,10.56 L18.49,11.19 L18.64,9.61 L17.74,9.61 L17.89,11.18 L16.47,10.57 L16.2,11.39 L17.72,11.72 L16.69,12.89 L17.41,13.41 L18.19,12.07 L18.98,13.41 L19.7,12.88 L18.66,11.72 Z M26.11,14.79 L26.11,10.11 L25.15,10.11 L25.15,14.72 C25.15,15.79 24.68,16.32 23.69,16.32 C22.71,16.32 22.24,15.79 22.24,14.72 L22.24,10.11 L21.29,10.11 L21.29,14.79 C21.29,16.16 22.12,17.12 23.69,17.12 C25.24,17.12 26.11,16.16 26.11,14.79 Z M29.39,11.61 C28.3,11.61 27.49,12.22 27.49,13.05 C27.49,13.8 27.94,14.29 29.08,14.59 C30.1,14.86 30.36,15.06 30.36,15.61 C30.36,16.07 29.92,16.38 29.23,16.38 C28.66,16.38 28.17,16.19 27.77,15.85 L27.26,16.43 C27.72,16.83 28.36,17.12 29.25,17.12 C30.32,17.12 31.33,16.62 31.33,15.52 C31.33,14.6 30.69,14.16 29.58,13.88 C28.73,13.66 28.45,13.46 28.45,13.03 C28.45,12.61 28.82,12.34 29.42,12.34 C29.91,12.34 30.32,12.49 30.78,12.82 L31.18,12.21 C30.68,11.83 30.13,11.61 29.39,11.61 Z M36.61,14.21 C36.61,14.39 36.6,14.56 36.59,14.68 L33.23,14.68 C33.32,15.9 33.89,16.37 34.65,16.37 C35.17,16.37 35.56,16.23 36.02,15.91 L36.42,16.46 C35.9,16.87 35.31,17.12 34.58,17.12 C33.11,17.12 32.25,16.09 32.25,14.42 C32.25,12.78 33.08,11.61 34.44,11.61 C35.86,11.61 36.61,12.6 36.61,14.21 Z M35.7,14 L35.7,13.94 C35.7,12.91 35.29,12.34 34.46,12.34 C33.76,12.34 33.3,12.83 33.23,14 L35.7,14 Z M42.53,9.99 C41.26,9.99 40.36,10.73 40.36,11.79 C40.36,12.86 41.06,13.37 42.4,13.78 C43.57,14.14 43.89,14.44 43.89,15.11 C43.89,15.94 43.22,16.34 42.41,16.34 C41.66,16.34 41.1,16.07 40.63,15.62 L40.08,16.23 C40.65,16.79 41.43,17.12 42.42,17.12 C43.97,17.12 44.88,16.28 44.88,15.08 C44.88,13.76 43.94,13.33 42.84,12.99 C41.6,12.61 41.33,12.33 41.33,11.75 C41.33,11.09 41.88,10.77 42.57,10.77 C43.14,10.77 43.62,10.95 44.12,11.39 L44.66,10.79 C44.08,10.27 43.48,9.99 42.53,9.99 Z M50.21,14.21 C50.21,14.39 50.2,14.56 50.19,14.68 L46.83,14.68 C46.92,15.9 47.49,16.37 48.25,16.37 C48.77,16.37 49.16,16.23 49.62,15.91 L50.02,16.46 C49.5,16.87 48.91,17.12 48.18,17.12 C46.71,17.12 45.85,16.09 45.85,14.42 C45.85,12.78 46.68,11.61 48.04,11.61 C49.46,11.61 50.21,12.6 50.21,14.21 Z M49.3,14 L49.3,13.94 C49.3,12.91 48.89,12.34 48.06,12.34 C47.36,12.34 46.9,12.83 46.83,14 L49.3,14 Z M57.02,11.61 C56.31,11.61 55.83,11.99 55.45,12.56 C55.25,11.96 54.77,11.61 54.12,11.61 C53.43,11.61 52.95,11.97 52.6,12.5 L52.52,11.73 L51.73,11.73 L51.73,17 L52.65,17 L52.65,13.26 C53,12.7 53.32,12.33 53.89,12.33 C54.29,12.33 54.63,12.56 54.63,13.35 L54.63,17 L55.55,17 L55.55,13.26 C55.91,12.7 56.22,12.33 56.79,12.33 C57.19,12.33 57.53,12.56 57.53,13.35 L57.53,17 L58.45,17 L58.45,13.22 C58.45,12.23 57.88,11.61 57.02,11.61 Z M60.75,9.2 C60.37,9.2 60.11,9.47 60.11,9.83 C60.11,10.18 60.37,10.45 60.75,10.45 C61.14,10.45 61.4,10.18 61.4,9.83 C61.4,9.47 61.14,9.2 60.75,9.2 Z M61.22,17 L61.22,11.73 L60.3,11.73 L60.3,17 L61.22,17 Z M66.21,13.36 C67.01,13.5 67.8,13.87 67.8,15.04 C67.8,16.5 66.67,17 65.07,17 L63.17,17 L63.17,10.11 L64.8,10.11 C66.5,10.11 67.5,10.65 67.5,11.85 C67.5,12.7 66.88,13.22 66.21,13.36 Z M64.12,10.86 L64.12,13.03 L65.16,13.03 C65.93,13.03 66.53,12.65 66.53,11.92 C66.53,11.07 65.92,10.86 64.9,10.86 L64.12,10.86 Z M65.07,16.24 C66.07,16.24 66.8,16.04 66.8,15.04 C66.8,14.07 66.08,13.76 65.25,13.76 L64.12,13.76 L64.12,16.24 L65.07,16.24 Z M71.18,11.61 C72.68,11.61 73.52,12.69 73.52,14.36 C73.52,15.99 72.66,17.12 71.17,17.12 C69.67,17.12 68.82,16.04 68.82,14.37 C68.82,12.74 69.68,11.61 71.18,11.61 Z M71.18,12.35 C70.3,12.35 69.81,12.99 69.81,14.37 C69.81,15.74 70.29,16.38 71.17,16.38 C72.05,16.38 72.53,15.74 72.53,14.36 C72.53,12.99 72.05,12.35 71.18,12.35 Z M75.91,15.94 L75.91,9.5 L74.99,9.61 L74.99,15.96 C74.99,16.72 75.37,17.12 76.04,17.12 C76.31,17.12 76.57,17.06 76.82,16.94 L76.58,16.3 C76.48,16.34 76.37,16.36 76.24,16.36 C76,16.36 75.91,16.22 75.91,15.94 Z M82.05,9.61 L82.05,17 L81.24,17 L81.15,16.27 C80.81,16.8 80.28,17.12 79.63,17.12 C78.35,17.12 77.64,16.03 77.64,14.39 C77.64,12.78 78.42,11.61 79.71,11.61 C80.33,11.61 80.78,11.89 81.13,12.26 L81.13,9.5 L82.05,9.61 Z M79.83,16.39 C80.42,16.39 80.78,16.1 81.13,15.61 L81.13,13.03 C80.8,12.61 80.43,12.34 79.91,12.34 C79.12,12.34 78.63,13 78.63,14.37 C78.63,15.76 79.07,16.39 79.83,16.39 Z M88.39,10.24 C87.81,10.24 87.61,10.49 87.61,11 L87.61,11.73 L88.89,11.73 L88.79,12.44 L87.61,12.44 L87.61,17 L86.69,17 L86.69,12.44 L85.75,12.44 L85.75,11.73 L86.69,11.73 L86.69,11.01 C86.69,10.13 87.27,9.5 88.34,9.5 C88.84,9.5 89.18,9.59 89.6,9.77 L89.31,10.44 C88.97,10.29 88.66,10.24 88.39,10.24 Z M91.93,11.61 C93.43,11.61 94.27,12.69 94.27,14.36 C94.27,15.99 93.41,17.12 91.92,17.12 C90.42,17.12 89.57,16.04 89.57,14.37 C89.57,12.74 90.43,11.61 91.93,11.61 Z M91.93,12.35 C91.05,12.35 90.56,12.99 90.56,14.37 C90.56,15.74 91.04,16.38 91.92,16.38 C92.8,16.38 93.28,15.74 93.28,14.36 C93.28,12.99 92.8,12.35 91.93,12.35 Z M98.08,11.61 C97.44,11.61 96.95,12.01 96.67,12.8 L96.58,11.73 L95.79,11.73 L95.79,17 L96.71,17 L96.71,13.99 C96.93,12.98 97.31,12.51 97.97,12.51 C98.16,12.51 98.27,12.53 98.43,12.57 L98.6,11.67 C98.44,11.63 98.25,11.61 98.08,11.61 Z M106.28,14.21 C106.28,14.39 106.27,14.56 106.26,14.68 L102.9,14.68 C102.99,15.9 103.56,16.37 104.32,16.37 C104.84,16.37 105.23,16.23 105.69,15.91 L106.09,16.46 C105.57,16.87 104.98,17.12 104.25,17.12 C102.78,17.12 101.92,16.09 101.92,14.42 C101.92,12.78 102.75,11.61 104.11,11.61 C105.53,11.61 106.28,12.6 106.28,14.21 Z M105.37,14 L105.37,13.94 C105.37,12.91 104.96,12.34 104.13,12.34 C103.43,12.34 102.97,12.83 102.9,14 L105.37,14 Z M113.09,11.61 C112.38,11.61 111.9,11.99 111.52,12.56 C111.32,11.96 110.84,11.61 110.19,11.61 C109.5,11.61 109.02,11.97 108.67,12.5 L108.59,11.73 L107.8,11.73 L107.8,17 L108.72,17 L108.72,13.26 C109.07,12.7 109.39,12.33 109.96,12.33 C110.36,12.33 110.7,12.56 110.7,13.35 L110.7,17 L111.62,17 L111.62,13.26 C111.98,12.7 112.29,12.33 112.86,12.33 C113.26,12.33 113.6,12.56 113.6,13.35 L113.6,17 L114.52,17 L114.52,13.22 C114.52,12.23 113.95,11.61 113.09,11.61 Z M118.79,11.61 C120.19,11.61 120.74,12.7 120.74,14.36 C120.74,15.96 120.03,17.12 118.67,17.12 C118.1,17.12 117.63,16.93 117.29,16.52 L117.29,19.02 L116.37,19.13 L116.37,11.73 L117.16,11.73 L117.23,12.44 C117.62,11.9 118.19,11.61 118.79,11.61 Z M118.45,16.37 C119.29,16.37 119.75,15.74 119.75,14.36 C119.75,12.99 119.35,12.34 118.56,12.34 C118,12.34 117.57,12.74 117.29,13.16 L117.29,15.73 C117.56,16.14 117.97,16.37 118.45,16.37 Z M124.79,11.61 C124.13,11.61 123.61,11.94 123.23,12.46 L123.23,9.52 L122.31,9.62 L122.31,17 L123.23,17 L123.23,13.25 C123.58,12.7 123.99,12.33 124.56,12.33 C125.06,12.33 125.4,12.56 125.4,13.35 L125.4,17 L126.32,17 L126.32,13.22 C126.32,12.23 125.75,11.61 124.79,11.61 Z M131.72,15.77 C131.72,16.23 131.89,16.38 132.16,16.48 L131.95,17.12 C131.42,17.06 131.08,16.85 130.92,16.33 C130.55,16.88 129.99,17.12 129.35,17.12 C128.3,17.12 127.67,16.47 127.67,15.53 C127.67,14.4 128.52,13.79 129.99,13.79 L130.8,13.79 L130.8,13.4 C130.8,12.64 130.43,12.36 129.7,12.36 C129.31,12.36 128.82,12.46 128.28,12.64 L128.05,11.97 C128.7,11.73 129.28,11.61 129.87,11.61 C131.14,11.61 131.72,12.26 131.72,13.36 L131.72,15.77 Z M129.56,16.43 C130.1,16.43 130.5,16.16 130.8,15.61 L130.8,14.4 L130.11,14.4 C129.14,14.4 128.65,14.76 128.65,15.48 C128.65,16.1 128.96,16.43 129.56,16.43 Z M135.04,11.61 C133.95,11.61 133.14,12.22 133.14,13.05 C133.14,13.8 133.59,14.29 134.73,14.59 C135.75,14.86 136.01,15.06 136.01,15.61 C136.01,16.07 135.57,16.38 134.88,16.38 C134.31,16.38 133.82,16.19 133.42,15.85 L132.91,16.43 C133.37,16.83 134.01,17.12 134.9,17.12 C135.97,17.12 136.98,16.62 136.98,15.52 C136.98,14.6 136.34,14.16 135.23,13.88 C134.38,13.66 134.1,13.46 134.1,13.03 C134.1,12.61 134.47,12.34 135.07,12.34 C135.56,12.34 135.97,12.49 136.43,12.82 L136.83,12.21 C136.33,11.83 135.78,11.61 135.04,11.61 Z M138.73,9.2 C138.35,9.2 138.09,9.47 138.09,9.83 C138.09,10.18 138.35,10.45 138.73,10.45 C139.12,10.45 139.38,10.18 139.38,9.83 C139.38,9.47 139.12,9.2 138.73,9.2 Z M139.2,17 L139.2,11.73 L138.28,11.73 L138.28,17 L139.2,17 Z M144.19,12.43 L144.19,11.73 L140.63,11.73 L140.63,12.51 L143.14,12.51 L140.4,16.31 L140.4,17 L144.11,17 L144.22,16.23 L141.44,16.23 L144.19,12.43 Z M149.45,14.21 C149.45,14.39 149.44,14.56 149.43,14.68 L146.07,14.68 C146.16,15.9 146.73,16.37 147.49,16.37 C148.01,16.37 148.4,16.23 148.86,15.91 L149.26,16.46 C148.74,16.87 148.15,17.12 147.42,17.12 C145.95,17.12 145.09,16.09 145.09,14.42 C145.09,12.78 145.92,11.61 147.28,11.61 C148.7,11.61 149.45,12.6 149.45,14.21 Z M148.54,14 L148.54,13.94 C148.54,12.91 148.13,12.34 147.3,12.34 C146.6,12.34 146.14,12.83 146.07,14 L148.54,14 Z M155.05,9.61 L155.05,17 L154.24,17 L154.15,16.27 C153.81,16.8 153.28,17.12 152.63,17.12 C151.35,17.12 150.64,16.03 150.64,14.39 C150.64,12.78 151.42,11.61 152.71,11.61 C153.33,11.61 153.78,11.89 154.13,12.26 L154.13,9.5 L155.05,9.61 Z M152.83,16.39 C153.42,16.39 153.78,16.1 154.13,15.61 L154.13,13.03 C153.8,12.61 153.43,12.34 152.91,12.34 C152.12,12.34 151.63,13 151.63,14.37 C151.63,15.76 152.07,16.39 152.83,16.39 Z M161.39,10.24 C160.81,10.24 160.61,10.49 160.61,11 L160.61,11.73 L161.89,11.73 L161.79,12.44 L160.61,12.44 L160.61,17 L159.69,17 L159.69,12.44 L158.75,12.44 L158.75,11.73 L159.69,11.73 L159.69,11.01 C159.69,10.13 160.27,9.5 161.34,9.5 C161.84,9.5 162.18,9.59 162.6,9.77 L162.31,10.44 C161.97,10.29 161.66,10.24 161.39,10.24 Z M164.93,11.61 C166.43,11.61 167.27,12.69 167.27,14.36 C167.27,15.99 166.41,17.12 164.92,17.12 C163.42,17.12 162.57,16.04 162.57,14.37 C162.57,12.74 163.43,11.61 164.93,11.61 Z M164.93,12.35 C164.05,12.35 163.56,12.99 163.56,14.37 C163.56,15.74 164.04,16.38 164.92,16.38 C165.8,16.38 166.28,15.74 166.28,14.36 C166.28,12.99 165.8,12.35 164.93,12.35 Z M171.27,11.61 C170.58,11.61 170.02,11.97 169.66,12.51 L169.58,11.73 L168.79,11.73 L168.79,17 L169.71,17 L169.71,13.26 C170.06,12.7 170.46,12.33 171.05,12.33 C171.56,12.33 171.88,12.56 171.88,13.35 L171.88,17 L172.8,17 L172.8,13.22 C172.8,12.22 172.24,11.61 171.27,11.61 Z M177.31,16.76 L176.96,16.13 C176.7,16.29 176.49,16.36 176.26,16.36 C175.8,16.36 175.63,16.11 175.63,15.58 L175.63,12.44 L176.78,12.44 L176.88,11.73 L175.63,11.73 L175.63,10.43 L174.71,10.54 L174.71,11.73 L173.79,11.73 L173.79,12.44 L174.71,12.44 L174.71,15.62 C174.71,16.6 175.24,17.12 176.13,17.12 C176.58,17.12 176.96,17 177.31,16.76 Z M182.34,11.61 C181.25,11.61 180.44,12.22 180.44,13.05 C180.44,13.8 180.89,14.29 182.03,14.59 C183.05,14.86 183.31,15.06 183.31,15.61 C183.31,16.07 182.87,16.38 182.18,16.38 C181.61,16.38 181.12,16.19 180.72,15.85 L180.21,16.43 C180.67,16.83 181.31,17.12 182.2,17.12 C183.27,17.12 184.28,16.62 184.28,15.52 C184.28,14.6 183.64,14.16 182.53,13.88 C181.68,13.66 181.4,13.46 181.4,13.03 C181.4,12.61 181.77,12.34 182.37,12.34 C182.86,12.34 183.27,12.49 183.73,12.82 L184.13,12.21 C183.63,11.83 183.08,11.61 182.34,11.61 Z M188.24,16.76 L187.89,16.13 C187.63,16.29 187.42,16.36 187.19,16.36 C186.73,16.36 186.56,16.11 186.56,15.58 L186.56,12.44 L187.71,12.44 L187.81,11.73 L186.56,11.73 L186.56,10.43 L185.64,10.54 L185.64,11.73 L184.72,11.73 L184.72,12.44 L185.64,12.44 L185.64,15.62 C185.64,16.6 186.17,17.12 187.06,17.12 C187.51,17.12 187.89,17 188.24,16.76 Z M191.3,17.03 L193.06,11.73 L192.11,11.73 L190.73,16.33 L189.32,11.73 L188.34,11.73 L190.11,17 L190.42,17 C190.12,17.82 189.82,18.23 188.75,18.41 L188.85,19.13 C190.31,18.97 190.93,18.15 191.3,17.03 Z M194.98,15.94 L194.98,9.5 L194.06,9.61 L194.06,15.96 C194.06,16.72 194.44,17.12 195.11,17.12 C195.38,17.12 195.64,17.06 195.89,16.94 L195.65,16.3 C195.55,16.34 195.44,16.36 195.31,16.36 C195.07,16.36 194.98,16.22 194.98,15.94 Z M201.02,14.21 C201.02,14.39 201.01,14.56 201,14.68 L197.64,14.68 C197.73,15.9 198.3,16.37 199.06,16.37 C199.58,16.37 199.97,16.23 200.43,15.91 L200.83,16.46 C200.31,16.87 199.72,17.12 198.99,17.12 C197.52,17.12 196.66,16.09 196.66,14.42 C196.66,12.78 197.49,11.61 198.85,11.61 C200.27,11.61 201.02,12.6 201.02,14.21 Z M200.11,14 L200.11,13.94 C200.11,12.91 199.7,12.34 198.87,12.34 C198.17,12.34 197.71,12.83 197.64,14 L200.11,14 Z"/>
    </g>
    <path fill="#737373" d="M59.91 260.99C58.35 260.99 57.05 262.22 57.05 264.55 57.05 266.87 58.26 268.12 59.93 268.12 60.86 268.12 61.53 267.74 61.9 267.35L61.42 266.74C61.03 267.03 60.61 267.32 59.96 267.32 58.89 267.32 58.06 266.54 58.06 264.55 58.06 262.47 58.93 261.77 59.97 261.77 60.45 261.77 60.87 261.93 61.3 262.28L61.82 261.67C61.27 261.23 60.78 260.99 59.91 260.99zM66.6 266.77C66.6 267.23 66.77 267.38 67.04 267.48L66.83 268.12C66.3 268.06 65.96 267.85 65.8 267.33 65.43 267.88 64.87 268.12 64.23 268.12 63.18 268.12 62.55 267.47 62.55 266.53 62.55 265.4 63.4 264.79 64.87 264.79L65.68 264.79 65.68 264.4C65.68 263.64 65.31 263.36 64.58 263.36 64.19 263.36 63.7 263.46 63.16 263.64L62.93 262.97C63.58 262.73 64.16 262.61 64.75 262.61 66.02 262.61 66.6 263.26 66.6 264.36L66.6 266.77zM64.44 267.43C64.98 267.43 65.38 267.16 65.68 266.61L65.68 265.4 64.99 265.4C64.02 265.4 63.53 265.76 63.53 266.48 63.53 267.1 63.84 267.43 64.44 267.43zM70.91 262.61C72.31 262.61 72.86 263.7 72.86 265.36 72.86 266.96 72.15 268.12 70.79 268.12 70.22 268.12 69.75 267.93 69.41 267.52L69.41 270.02 68.49 270.13 68.49 262.73 69.28 262.73 69.35 263.44C69.74 262.9 70.31 262.61 70.91 262.61zM70.57 267.37C71.41 267.37 71.87 266.74 71.87 265.36 71.87 263.99 71.47 263.34 70.68 263.34 70.12 263.34 69.69 263.74 69.41 264.16L69.41 266.73C69.68 267.14 70.09 267.37 70.57 267.37zM77.09 267.76L76.74 267.13C76.48 267.29 76.27 267.36 76.04 267.36 75.58 267.36 75.41 267.11 75.41 266.58L75.41 263.44 76.56 263.44 76.66 262.73 75.41 262.73 75.41 261.43 74.49 261.54 74.49 262.73 73.57 262.73 73.57 263.44 74.49 263.44 74.49 266.62C74.49 267.6 75.02 268.12 75.91 268.12 76.36 268.12 76.74 268 77.09 267.76zM78.49 260.2C78.11 260.2 77.85 260.47 77.85 260.83 77.85 261.18 78.11 261.45 78.49 261.45 78.88 261.45 79.14 261.18 79.14 260.83 79.14 260.47 78.88 260.2 78.49 260.2zM78.96 268L78.96 262.73 78.04 262.73 78.04 268 78.96 268zM82.84 262.61C84.34 262.61 85.18 263.69 85.18 265.36 85.18 266.99 84.32 268.12 82.83 268.12 81.33 268.12 80.48 267.04 80.48 265.37 80.48 263.74 81.34 262.61 82.84 262.61zM82.84 263.35C81.96 263.35 81.47 263.99 81.47 265.37 81.47 266.74 81.95 267.38 82.83 267.38 83.71 267.38 84.19 266.74 84.19 265.36 84.19 263.99 83.71 263.35 82.84 263.35zM89.18 262.61C88.49 262.61 87.93 262.97 87.57 263.51L87.49 262.73 86.7 262.73 86.7 268 87.62 268 87.62 264.26C87.97 263.7 88.37 263.33 88.96 263.33 89.47 263.33 89.79 263.56 89.79 264.35L89.79 268 90.71 268 90.71 264.22C90.71 263.22 90.15 262.61 89.18 262.61zM94.27 262.72L95.8 262.39 95.52 261.56 94.1 262.19 94.25 260.61 93.35 260.61 93.5 262.18 92.08 261.57 91.81 262.39 93.33 262.72 92.3 263.89 93.02 264.41 93.8 263.07 94.59 264.41 95.31 263.88 94.27 262.72zM65.28 20.11C67.04 20.11 68.73 20.66 68.73 23.52 68.73 26.33 66.98 27 65.49 27L63.84 27 63.84 20.11 65.28 20.11zM64.79 20.87L64.79 26.25 65.56 26.25C66.64 26.25 67.72 25.79 67.72 23.52 67.72 21.19 66.59 20.87 65.49 20.87L64.79 20.87zM70.68 19.2C70.3 19.2 70.04 19.47 70.04 19.83 70.04 20.18 70.3 20.45 70.68 20.45 71.07 20.45 71.33 20.18 71.33 19.83 71.33 19.47 71.07 19.2 70.68 19.2zM71.15 27L71.15 21.73 70.23 21.73 70.23 27 71.15 27zM74.48 21.61C73.39 21.61 72.58 22.22 72.58 23.05 72.58 23.8 73.03 24.29 74.17 24.59 75.19 24.86 75.45 25.06 75.45 25.61 75.45 26.07 75.01 26.38 74.32 26.38 73.75 26.38 73.26 26.19 72.86 25.85L72.35 26.43C72.81 26.83 73.45 27.12 74.34 27.12 75.41 27.12 76.42 26.62 76.42 25.52 76.42 24.6 75.78 24.16 74.67 23.88 73.82 23.66 73.54 23.46 73.54 23.03 73.54 22.61 73.91 22.34 74.51 22.34 75 22.34 75.41 22.49 75.87 22.82L76.27 22.21C75.77 21.83 75.22 21.61 74.48 21.61zM80.14 21.61C81.54 21.61 82.09 22.7 82.09 24.36 82.09 25.96 81.38 27.12 80.02 27.12 79.45 27.12 78.98 26.93 78.64 26.52L78.64 29.02 77.72 29.13 77.72 21.73 78.51 21.73 78.58 22.44C78.97 21.9 79.54 21.61 80.14 21.61zM79.8 26.37C80.64 26.37 81.1 25.74 81.1 24.36 81.1 22.99 80.7 22.34 79.91 22.34 79.35 22.34 78.92 22.74 78.64 23.16L78.64 25.73C78.91 26.14 79.32 26.37 79.8 26.37zM84.53 25.94L84.53 19.5 83.61 19.61 83.61 25.96C83.61 26.72 83.99 27.12 84.66 27.12 84.93 27.12 85.19 27.06 85.44 26.94L85.2 26.3C85.1 26.34 84.99 26.36 84.86 26.36 84.62 26.36 84.53 26.22 84.53 25.94zM90.14 25.77C90.14 26.23 90.31 26.38 90.58 26.48L90.37 27.12C89.84 27.06 89.5 26.85 89.34 26.33 88.97 26.88 88.41 27.12 87.77 27.12 86.72 27.12 86.09 26.47 86.09 25.53 86.09 24.4 86.94 23.79 88.41 23.79L89.22 23.79 89.22 23.4C89.22 22.64 88.85 22.36 88.12 22.36 87.73 22.36 87.24 22.46 86.7 22.64L86.47 21.97C87.12 21.73 87.7 21.61 88.29 21.61 89.56 21.61 90.14 22.26 90.14 23.36L90.14 25.77zM87.98 26.43C88.52 26.43 88.92 26.16 89.22 25.61L89.22 24.4 88.53 24.4C87.56 24.4 87.07 24.76 87.07 25.48 87.07 26.1 87.38 26.43 87.98 26.43zM94.14 27.03L95.9 21.73 94.95 21.73 93.57 26.33 92.16 21.73 91.18 21.73 92.95 27 93.26 27C92.96 27.82 92.66 28.23 91.59 28.41L91.69 29.13C93.15 28.97 93.77 28.15 94.14 27.03zM72.83 189.36C73.63 189.5 74.42 189.87 74.42 191.04 74.42 192.5 73.29 193 71.69 193L69.79 193 69.79 186.11 71.42 186.11C73.12 186.11 74.12 186.65 74.12 187.85 74.12 188.7 73.5 189.22 72.83 189.36zM70.74 186.86L70.74 189.03 71.78 189.03C72.55 189.03 73.15 188.65 73.15 187.92 73.15 187.07 72.54 186.86 71.52 186.86L70.74 186.86zM71.69 192.24C72.69 192.24 73.42 192.04 73.42 191.04 73.42 190.07 72.7 189.76 71.87 189.76L70.74 189.76 70.74 192.24 71.69 192.24zM77.8 187.61C79.3 187.61 80.14 188.69 80.14 190.36 80.14 191.99 79.28 193.12 77.79 193.12 76.29 193.12 75.44 192.04 75.44 190.37 75.44 188.74 76.3 187.61 77.8 187.61zM77.8 188.35C76.92 188.35 76.43 188.99 76.43 190.37 76.43 191.74 76.91 192.38 77.79 192.38 78.67 192.38 79.15 191.74 79.15 190.36 79.15 188.99 78.67 188.35 77.8 188.35zM85.74 185.61L85.74 193 84.93 193 84.84 192.27C84.5 192.8 83.97 193.12 83.32 193.12 82.04 193.12 81.33 192.03 81.33 190.39 81.33 188.78 82.11 187.61 83.4 187.61 84.02 187.61 84.47 187.89 84.82 188.26L84.82 185.5 85.74 185.61zM83.52 192.39C84.11 192.39 84.47 192.1 84.82 191.61L84.82 189.03C84.49 188.61 84.12 188.34 83.6 188.34 82.81 188.34 82.32 189 82.32 190.37 82.32 191.76 82.76 192.39 83.52 192.39zM89.75 193.03L91.51 187.73 90.56 187.73 89.18 192.33 87.77 187.73 86.79 187.73 88.56 193 88.87 193C88.57 193.82 88.27 194.23 87.2 194.41L87.3 195.13C88.76 194.97 89.38 194.15 89.75 193.03zM94.27 187.72L95.8 187.39 95.52 186.56 94.1 187.19 94.25 185.61 93.35 185.61 93.5 187.18 92.08 186.57 91.81 187.39 93.33 187.72 92.3 188.89 93.02 189.41 93.8 188.07 94.59 189.41 95.31 188.88 94.27 187.72zM80.94 76.92L81.04 76.11 76.12 76.11 76.12 76.92 78.08 76.92 78.08 83 79.03 83 79.03 76.92 80.94 76.92zM82.54 75.2C82.16 75.2 81.9 75.47 81.9 75.83 81.9 76.18 82.16 76.45 82.54 76.45 82.93 76.45 83.19 76.18 83.19 75.83 83.19 75.47 82.93 75.2 82.54 75.2zM83.01 83L83.01 77.73 82.09 77.73 82.09 83 83.01 83zM87.57 82.76L87.22 82.13C86.96 82.29 86.75 82.36 86.52 82.36 86.06 82.36 85.89 82.11 85.89 81.58L85.89 78.44 87.04 78.44 87.14 77.73 85.89 77.73 85.89 76.43 84.97 76.54 84.97 77.73 84.05 77.73 84.05 78.44 84.97 78.44 84.97 81.62C84.97 82.6 85.5 83.12 86.39 83.12 86.84 83.12 87.22 83 87.57 82.76zM89.39 81.94L89.39 75.5 88.47 75.61 88.47 81.96C88.47 82.72 88.85 83.12 89.52 83.12 89.79 83.12 90.05 83.06 90.3 82.94L90.06 82.3C89.96 82.34 89.85 82.36 89.72 82.36 89.48 82.36 89.39 82.22 89.39 81.94zM95.43 80.21C95.43 80.39 95.42 80.56 95.41 80.68L92.05 80.68C92.14 81.9 92.71 82.37 93.47 82.37 93.99 82.37 94.38 82.23 94.84 81.91L95.24 82.46C94.72 82.87 94.13 83.12 93.4 83.12 91.93 83.12 91.07 82.09 91.07 80.42 91.07 78.78 91.9 77.61 93.26 77.61 94.68 77.61 95.43 78.6 95.43 80.21zM94.52 80L94.52 79.94C94.52 78.91 94.11 78.34 93.28 78.34 92.58 78.34 92.12 78.83 92.05 80L94.52 80z"/>
  </g>
</svg>
