<svg xmlns="http://www.w3.org/2000/svg" width="300" height="300" viewBox="0 0 300 300">
  <g fill="none">
    <rect width="234" height="364" x="86.827" fill="#F9F9FA"/>
    <path fill="#000F40" d="M114.608648,51 L114.608648,28.9248047 L122.745855,28.9248047 L122.745855,27.7485352 L105.182379,27.7485352 L105.182379,28.9248047 L113.335699,28.9248047 L113.335699,51 L114.608648,51 Z M125.098395,51 L126.339117,51 L126.339117,41.0581055 C126.339117,37.5615234 128.61109,35.1445312 131.898199,35.1445312 C135.008062,35.1445312 137.054449,37.1264648 137.054449,40.3491211 L137.054449,51 L138.295172,51 L138.295172,40.2041016 C138.295172,36.449707 135.845953,34.0166016 132.172125,34.0166016 C129.352301,34.0166016 127.160895,35.5634766 126.387457,37.9160156 L126.339117,37.9160156 L126.339117,27.7485352 L125.098395,27.7485352 L125.098395,51 Z M142.06568,51 L143.306402,51 L143.306402,34.2421875 L142.06568,34.2421875 L142.06568,51 Z M142.694098,30.1171875 C143.225836,30.1171875 143.677008,29.6821289 143.677008,29.1342773 C143.677008,28.5864258 143.225836,28.1674805 142.694098,28.1674805 C142.146246,28.1674805 141.695074,28.5864258 141.695074,29.1342773 C141.695074,29.6821289 142.146246,30.1171875 142.694098,30.1171875 Z M147.17359,51 L148.430426,51 L148.430426,41.0258789 C148.430426,37.5615234 150.621832,35.1445312 153.892828,35.1445312 C157.002691,35.1445312 159.049078,37.0942383 159.049078,40.3330078 L159.049078,51 L160.305914,51 L160.305914,40.1879883 C160.305914,36.4013672 157.872809,34.0166016 154.182867,34.0166016 C151.330816,34.0166016 149.171637,35.5634766 148.382086,37.9160156 L148.349859,37.9160156 L148.349859,34.2421875 L147.17359,34.2421875 L147.17359,51 Z M174.469488,39.4951172 L177.095953,39.4951172 C181.414312,39.4951172 184.008551,41.4448242 184.008551,44.699707 C184.008551,47.8740234 181.220953,50.1943359 177.466559,50.1943359 C173.808844,50.1943359 171.021246,48.019043 170.924566,45.1508789 L169.683844,45.1508789 C169.76441,48.6796875 173.019293,51.3383789 177.466559,51.3383789 C181.929938,51.3383789 185.297613,48.534668 185.297613,44.6674805 C185.297613,41.3803711 182.961188,39.140625 179.351812,38.9150391 L179.351812,38.8505859 C182.397223,38.2866211 184.282477,36.1757812 184.282477,33.2915039 C184.282477,29.9077148 181.285406,27.4101562 177.289312,27.4101562 C173.341559,27.4101562 170.408941,29.8916016 170.215582,33.355957 L171.456305,33.355957 C171.649664,30.5844727 174.08277,28.5541992 177.240973,28.5541992 C180.624762,28.5541992 183.009527,30.6166992 183.009527,33.4042969 C183.009527,36.3208008 180.576422,38.3671875 177.063727,38.3671875 L174.469488,38.3671875 L174.469488,39.4951172 Z M192.935309,39.4951172 L195.561773,39.4951172 C199.880133,39.4951172 202.474371,41.4448242 202.474371,44.699707 C202.474371,47.8740234 199.686773,50.1943359 195.932379,50.1943359 C192.274664,50.1943359 189.487066,48.019043 189.390387,45.1508789 L188.149664,45.1508789 C188.23023,48.6796875 191.485113,51.3383789 195.932379,51.3383789 C200.395758,51.3383789 203.763434,48.534668 203.763434,44.6674805 C203.763434,41.3803711 201.427008,39.140625 197.817633,38.9150391 L197.817633,38.8505859 C200.863043,38.2866211 202.748297,36.1757812 202.748297,33.2915039 C202.748297,29.9077148 199.751227,27.4101562 195.755133,27.4101562 C191.807379,27.4101562 188.874762,29.8916016 188.681402,33.355957 L189.922125,33.355957 C190.115484,30.5844727 192.54859,28.5541992 195.706793,28.5541992 C199.090582,28.5541992 201.475348,30.6166992 201.475348,33.4042969 C201.475348,36.3208008 199.042242,38.3671875 195.529547,38.3671875 L192.935309,38.3671875 L192.935309,39.4951172 Z M214.543219,34.0166016 C218.748785,34.0166016 221.649176,37.5131836 221.649176,42.6210938 C221.649176,47.7451172 218.764898,51.2255859 214.559332,51.2255859 C211.465582,51.2255859 209.113043,49.2114258 208.355719,46.6010742 L208.323492,46.6010742 L208.323492,56.4946289 L207.066656,56.4946289 L207.066656,34.2421875 L208.242926,34.2421875 L208.242926,38.7055664 L208.291266,38.7055664 C209.04859,36.0629883 211.465582,34.0166016 214.543219,34.0166016 Z M214.398199,50.0976562 C217.943121,50.0976562 220.376227,47.0683594 220.376227,42.637207 C220.376227,38.1899414 217.943121,35.1445312 214.398199,35.1445312 C210.804938,35.1445312 208.307379,38.222168 208.307379,42.6210938 C208.307379,47.0361328 210.804938,50.0976562 214.398199,50.0976562 Z M229.57691,43.4750977 L234.92652,51 L236.376715,51 L230.285895,42.4599609 L236.408941,34.2421875 L234.942633,34.2421875 L229.609137,41.5415039 L229.560797,41.5415039 L224.227301,34.2421875 L222.744879,34.2421875 L228.851812,42.4921875 L222.712652,51 L224.162848,51 L229.52857,43.4750977 L229.57691,43.4750977 Z"/>
    <path fill="#0C0C0D" d="M24.107,42.017 C26.473,42.017 28.709,42.745 28.709,46.463 C28.709,50.103 26.486,51 24.341,51 L21.897,51 L21.897,42.017 L24.107,42.017 Z M23.613,43.304 L23.613,49.713 L24.458,49.713 C25.797,49.713 26.902,49.115 26.902,46.463 C26.902,43.759 25.732,43.304 24.406,43.304 L23.613,43.304 Z M31.088,40.639 C30.477,40.639 30.048,41.081 30.048,41.653 C30.048,42.212 30.477,42.654 31.088,42.654 C31.712,42.654 32.141,42.212 32.141,41.653 C32.141,41.081 31.712,40.639 31.088,40.639 Z M31.933,51 L31.933,44.123 L30.269,44.123 L30.269,51 L31.933,51 Z M36.106,43.928 C34.507,43.928 33.454,44.786 33.454,45.93 C33.454,46.944 34.078,47.62 35.495,48.01 C36.782,48.374 37.055,48.556 37.055,49.154 C37.055,49.635 36.574,49.96 35.82,49.96 C35.131,49.96 34.494,49.687 33.974,49.271 L33.129,50.22 C33.766,50.792 34.689,51.195 35.872,51.195 C37.445,51.195 38.771,50.441 38.771,49.011 C38.771,47.789 37.978,47.217 36.574,46.84 C35.404,46.515 35.131,46.307 35.131,45.852 C35.131,45.436 35.508,45.163 36.21,45.163 C36.782,45.163 37.328,45.358 37.9,45.748 L38.55,44.747 C37.9,44.24 37.094,43.928 36.106,43.928 Z M43.659,43.928 C45.479,43.928 46.233,45.345 46.233,47.542 C46.233,49.648 45.258,51.195 43.516,51.195 C42.814,51.195 42.216,50.948 41.787,50.441 L41.787,53.652 L40.123,53.834 L40.123,44.123 L41.579,44.123 L41.67,44.968 C42.216,44.253 42.957,43.928 43.659,43.928 Z M43.048,49.921 C43.958,49.921 44.491,49.219 44.491,47.555 C44.491,45.813 44.023,45.176 43.165,45.176 C42.593,45.176 42.112,45.579 41.787,46.112 L41.787,49.206 C42.112,49.687 42.528,49.921 43.048,49.921 Z M49.47,49.323 L49.47,41.185 L47.806,41.367 L47.806,49.44 C47.806,50.584 48.391,51.195 49.418,51.195 C49.847,51.195 50.263,51.104 50.601,50.961 L50.25,49.791 C50.133,49.83 49.99,49.856 49.86,49.856 C49.587,49.856 49.47,49.7 49.47,49.323 Z M56.789,49.18 C56.789,49.739 56.971,49.934 57.309,50.064 L56.958,51.169 C56.204,51.104 55.71,50.831 55.437,50.168 C54.956,50.896 54.202,51.195 53.383,51.195 C52.005,51.195 51.16,50.324 51.16,49.076 C51.16,47.581 52.291,46.775 54.293,46.775 L55.151,46.775 L55.151,46.385 C55.151,45.488 54.748,45.189 53.864,45.189 C53.396,45.189 52.733,45.319 52.044,45.553 L51.654,44.422 C52.499,44.097 53.37,43.928 54.15,43.928 C55.983,43.928 56.789,44.773 56.789,46.294 L56.789,49.18 Z M53.825,49.986 C54.41,49.986 54.839,49.687 55.151,49.141 L55.151,47.75 L54.462,47.75 C53.383,47.75 52.85,48.14 52.85,48.946 C52.85,49.609 53.188,49.986 53.825,49.986 Z M62.002,51.026 L64.238,44.123 L62.522,44.123 L60.962,49.895 L59.467,44.123 L57.699,44.123 L59.883,51 L60.455,51 C60.065,51.975 59.623,52.417 58.258,52.625 L58.427,53.834 C60.468,53.678 61.482,52.638 62.002,51.026 Z M27.487,91.382 L27.669,90.017 L21,90.017 L21,91.382 L23.418,91.382 L23.418,99 L25.147,99 L25.147,91.382 L27.487,91.382 Z M29.814,88.639 C29.203,88.639 28.774,89.081 28.774,89.653 C28.774,90.212 29.203,90.654 29.814,90.654 C30.438,90.654 30.867,90.212 30.867,89.653 C30.867,89.081 30.438,88.639 29.814,88.639 Z M30.659,99 L30.659,92.123 L28.995,92.123 L28.995,99 L30.659,99 Z M36.6,98.675 L36.015,97.596 C35.716,97.778 35.456,97.856 35.196,97.856 C34.689,97.856 34.468,97.583 34.468,96.907 L34.468,93.319 L35.898,93.319 L36.067,92.123 L34.468,92.123 L34.468,90.407 L32.804,90.602 L32.804,92.123 L31.725,92.123 L31.725,93.319 L32.804,93.319 L32.804,96.946 C32.804,98.415 33.519,99.182 34.871,99.195 C35.482,99.195 36.106,99.026 36.6,98.675 Z M39.135,97.323 L39.135,89.185 L37.471,89.367 L37.471,97.44 C37.471,98.584 38.056,99.195 39.083,99.195 C39.512,99.195 39.928,99.104 40.266,98.961 L39.915,97.791 C39.798,97.83 39.655,97.856 39.525,97.856 C39.252,97.856 39.135,97.7 39.135,97.323 Z M46.883,95.399 C46.883,95.62 46.857,95.893 46.844,96.075 L42.528,96.075 C42.645,97.479 43.308,97.934 44.218,97.934 C44.829,97.934 45.336,97.739 45.934,97.323 L46.623,98.272 C45.947,98.818 45.115,99.195 44.075,99.195 C41.943,99.195 40.799,97.778 40.799,95.607 C40.799,93.514 41.904,91.928 43.854,91.928 C45.778,91.928 46.883,93.228 46.883,95.399 Z M45.232,94.996 L45.232,94.918 C45.232,93.787 44.829,93.111 43.893,93.111 C43.113,93.111 42.619,93.631 42.528,94.996 L45.232,94.996 Z M26.304,187.242 C27.331,187.437 28.358,187.918 28.358,189.413 C28.358,191.389 26.785,192 24.601,192 L21.897,192 L21.897,183.017 L24.25,183.017 C26.564,183.017 27.968,183.667 27.968,185.305 C27.968,186.423 27.162,187.06 26.304,187.242 Z M23.613,184.278 L23.613,186.709 L24.666,186.709 C25.602,186.709 26.213,186.293 26.213,185.448 C26.213,184.538 25.589,184.278 24.419,184.278 L23.613,184.278 Z M24.614,190.713 C25.745,190.713 26.564,190.479 26.564,189.348 C26.564,188.269 25.797,187.905 24.796,187.905 L23.613,187.905 L23.613,190.713 L24.614,190.713 Z M32.622,184.928 C34.65,184.928 35.846,186.306 35.846,188.555 C35.846,190.726 34.637,192.195 32.609,192.195 C30.581,192.195 29.372,190.817 29.372,188.555 C29.372,186.397 30.581,184.928 32.622,184.928 Z M32.622,186.189 C31.647,186.189 31.127,186.93 31.127,188.555 C31.127,190.206 31.634,190.934 32.609,190.934 C33.584,190.934 34.091,190.193 34.091,188.555 C34.091,186.917 33.584,186.189 32.622,186.189 Z M43.191,182.367 L43.191,192 L41.722,192 L41.605,191.129 C41.189,191.753 40.526,192.195 39.642,192.195 C37.926,192.195 37.029,190.752 37.029,188.568 C37.029,186.449 38.082,184.928 39.824,184.928 C40.526,184.928 41.098,185.24 41.527,185.669 L41.527,182.185 L43.191,182.367 Z M40.11,190.934 C40.721,190.934 41.137,190.635 41.527,190.05 L41.527,186.904 C41.163,186.462 40.786,186.176 40.227,186.176 C39.356,186.176 38.784,186.904 38.784,188.555 C38.784,190.323 39.291,190.934 40.11,190.934 Z M48.521,192.026 L50.757,185.123 L49.041,185.123 L47.481,190.895 L45.986,185.123 L44.218,185.123 L46.402,192 L46.974,192 C46.584,192.975 46.142,193.417 44.777,193.625 L44.946,194.834 C46.987,194.678 48.001,193.638 48.521,192.026 Z M25.303,239.822 C23.119,239.822 21.403,241.473 21.403,244.489 C21.403,247.544 23.028,249.195 25.355,249.195 C26.577,249.195 27.513,248.662 28.059,248.103 L27.253,247.063 C26.733,247.453 26.2,247.817 25.433,247.817 C24.146,247.817 23.21,246.855 23.21,244.489 C23.21,242.058 24.172,241.148 25.407,241.148 C26.031,241.148 26.564,241.369 27.071,241.798 L27.955,240.771 C27.227,240.16 26.486,239.822 25.303,239.822 Z M34.312,247.18 C34.312,247.739 34.494,247.934 34.832,248.064 L34.481,249.169 C33.727,249.104 33.233,248.831 32.96,248.168 C32.479,248.896 31.725,249.195 30.906,249.195 C29.528,249.195 28.683,248.324 28.683,247.076 C28.683,245.581 29.814,244.775 31.816,244.775 L32.674,244.775 L32.674,244.385 C32.674,243.488 32.271,243.189 31.387,243.189 C30.919,243.189 30.256,243.319 29.567,243.553 L29.177,242.422 C30.022,242.097 30.893,241.928 31.673,241.928 C33.506,241.928 34.312,242.773 34.312,244.294 L34.312,247.18 Z M31.348,247.986 C31.933,247.986 32.362,247.687 32.674,247.141 L32.674,245.75 L31.985,245.75 C30.906,245.75 30.373,246.14 30.373,246.946 C30.373,247.609 30.711,247.986 31.348,247.986 Z M39.863,241.928 C41.683,241.928 42.437,243.345 42.437,245.542 C42.437,247.648 41.462,249.195 39.72,249.195 C39.018,249.195 38.42,248.948 37.991,248.441 L37.991,251.652 L36.327,251.834 L36.327,242.123 L37.783,242.123 L37.874,242.968 C38.42,242.253 39.161,241.928 39.863,241.928 Z M39.252,247.921 C40.162,247.921 40.695,247.219 40.695,245.555 C40.695,243.813 40.227,243.176 39.369,243.176 C38.797,243.176 38.316,243.579 37.991,244.112 L37.991,247.206 C38.316,247.687 38.732,247.921 39.252,247.921 Z M48.014,248.675 L47.429,247.596 C47.13,247.778 46.87,247.856 46.61,247.856 C46.103,247.856 45.882,247.583 45.882,246.907 L45.882,243.319 L47.312,243.319 L47.481,242.123 L45.882,242.123 L45.882,240.407 L44.218,240.602 L44.218,242.123 L43.139,242.123 L43.139,243.319 L44.218,243.319 L44.218,246.946 C44.218,248.415 44.933,249.182 46.285,249.195 C46.896,249.195 47.52,249.026 48.014,248.675 Z M49.769,238.639 C49.158,238.639 48.729,239.081 48.729,239.653 C48.729,240.212 49.158,240.654 49.769,240.654 C50.393,240.654 50.822,240.212 50.822,239.653 C50.822,239.081 50.393,238.639 49.769,238.639 Z M50.614,249 L50.614,242.123 L48.95,242.123 L48.95,249 L50.614,249 Z M55.424,241.928 C57.452,241.928 58.648,243.306 58.648,245.555 C58.648,247.726 57.439,249.195 55.411,249.195 C53.383,249.195 52.174,247.817 52.174,245.555 C52.174,243.397 53.383,241.928 55.424,241.928 Z M55.424,243.189 C54.449,243.189 53.929,243.93 53.929,245.555 C53.929,247.206 54.436,247.934 55.411,247.934 C56.386,247.934 56.893,247.193 56.893,245.555 C56.893,243.917 56.386,243.189 55.424,243.189 Z M63.874,241.928 C63.003,241.928 62.314,242.331 61.781,243.02 L61.651,242.123 L60.208,242.123 L60.208,249 L61.872,249 L61.872,244.216 C62.275,243.579 62.717,243.176 63.315,243.176 C63.835,243.176 64.16,243.423 64.16,244.281 L64.16,249 L65.824,249 L65.824,244.021 C65.824,242.708 65.109,241.928 63.874,241.928 Z"/>
    <path fill="#000F40" d="M116.058844 97.6679688L108.302984 97.6679688 108.302984 83.4990234 106.831305 83.4990234 106.831305 99 116.058844 99 116.058844 97.6679688zM118.959234 99L120.366461 99 120.366461 87.4306641 118.959234 87.4306641 118.959234 99zM119.657477 84.8525391C120.237555 84.8525391 120.710211 84.3798828 120.710211 83.7998047 120.710211 83.2304688 120.237555 82.7578125 119.657477 82.7578125 119.088141 82.7578125 118.615484 83.2304688 118.615484 83.7998047 118.615484 84.3798828 119.088141 84.8525391 119.657477 84.8525391zM128.627203 97.625C130.947516 97.625 132.386969 95.8310547 132.386969 93.0917969 132.386969 90.3417969 130.915289 88.5048828 128.627203 88.5048828 126.317633 88.5048828 124.921148 90.3203125 124.921148 93.0703125 124.921148 95.8095703 126.317633 97.625 128.627203 97.625zM128.745367 103.339844C126.092047 103.339844 124.330328 102.158203 124.029547 100.353516L125.522711 100.353516C125.780523 101.416992 126.983648 102.104492 128.745367 102.104492 130.979742 102.104492 132.365484 100.933594 132.365484 99.0644531L132.365484 96.4648438 132.225836 96.4648438C131.538336 97.9902344 130.120367 98.8818359 128.347906 98.8818359 125.37232 98.8818359 123.470953 96.5400391 123.470953 93.0703125 123.470953 89.6005859 125.383062 87.2373047 128.347906 87.2373047 130.120367 87.2373047 131.6565 88.2148438 132.290289 89.71875L132.419195 89.71875 132.419195 87.4306641 133.772711 87.4306641 133.772711 99.171875C133.772711 101.685547 131.785406 103.339844 128.745367 103.339844zM137.50025 99L138.907477 99 138.907477 92.125C138.907477 89.9980469 140.271734 88.5048828 142.463141 88.5048828 144.396734 88.5048828 145.449469 89.6542969 145.449469 91.8349609L145.449469 99 146.856695 99 146.856695 91.4804688C146.856695 88.8056641 145.30982 87.2373047 142.839117 87.2373047 140.991461 87.2373047 139.65943 88.0859375 139.036383 89.5146484L138.907477 89.5146484 138.907477 82.8222656 137.50025 82.8222656 137.50025 99zM151.121344 84.4228516L151.121344 87.4306641 149.230719 87.4306641 149.230719 88.6230469 151.121344 88.6230469 151.121344 96.1210938C151.121344 98.2265625 152.002203 99.0644531 154.215094 99.0644531 154.462164 99.0644531 154.956305 99.0322266 155.203375 98.9892578L155.203375 97.7861328C154.967047 97.8076172 154.59107 97.8183594 154.365484 97.8183594 153.06568 97.8183594 152.52857 97.2167969 152.52857 95.7988281L152.52857 88.6230469 155.203375 88.6230469 155.203375 87.4306641 152.52857 87.4306641 152.52857 84.4228516 151.121344 84.4228516zM163.936773 87.7744141L163.936773 87.7851562 165.365484 87.7851562 165.365484 87.7744141C165.386969 85.8193359 166.772711 84.4658203 168.770758 84.4658203 170.672125 84.4658203 172.143805 85.8085938 172.143805 87.5380859 172.143805 88.8701172 171.595953 89.7939453 169.436773 92.1142578L164.022711 97.96875 164.022711 99 174.002203 99 174.002203 97.6679688 166.138922 97.6679688 166.138922 97.5390625 170.328375 93.0703125C172.874273 90.3525391 173.615484 89.0957031 173.615484 87.484375 173.615484 85.0458984 171.5315 83.1767578 168.802984 83.1767578 165.999273 83.1767578 163.958258 85.0996094 163.936773 87.7744141zM177.063727 87.7744141L177.063727 87.7851562 178.492438 87.7851562 178.492438 87.7744141C178.513922 85.8193359 179.899664 84.4658203 181.897711 84.4658203 183.799078 84.4658203 185.270758 85.8085938 185.270758 87.5380859 185.270758 88.8701172 184.722906 89.7939453 182.563727 92.1142578L177.149664 97.96875 177.149664 99 187.129156 99 187.129156 97.6679688 179.265875 97.6679688 179.265875 97.5390625 183.455328 93.0703125C186.001227 90.3525391 186.742438 89.0957031 186.742438 87.484375 186.742438 85.0458984 184.658453 83.1767578 181.929938 83.1767578 179.126227 83.1767578 177.085211 85.0996094 177.063727 87.7744141zM195.808844 87.2373047C198.741461 87.2373047 200.675055 89.6113281 200.675055 93.2099609 200.675055 96.8085938 198.730719 99.1933594 195.808844 99.1933594 194.014898 99.1933594 192.553961 98.2910156 191.90943 96.7978516L191.780523 96.7978516 191.780523 102.834961 190.373297 102.834961 190.373297 87.4306641 191.71607 87.4306641 191.71607 89.7939453 191.844977 89.7939453C192.553961 88.2148438 194.047125 87.2373047 195.808844 87.2373047zM195.49732 97.9150391C197.785406 97.9150391 199.224859 96.0996094 199.224859 93.2207031 199.224859 90.3310547 197.785406 88.5048828 195.508062 88.5048828 193.241461 88.5048828 191.737555 90.3740234 191.737555 93.2099609 191.737555 96.0458984 193.241461 97.9150391 195.49732 97.9150391zM207.141852 94.2734375L210.289312 99 211.975836 99 207.87232 93.1240234 211.932867 87.4306641 210.310797 87.4306641 207.18482 92.0498047 207.055914 92.0498047 203.908453 87.4306641 202.211188 87.4306641 206.325445 93.1777344 202.243414 99 203.854742 99 207.012945 94.2734375 207.141852 94.2734375zM105.773688 127.746094C105.881598 129.920898 107.699469 131.298828 110.447027 131.298828 113.352301 131.298828 115.15357 129.846191 115.15357 127.513672 115.15357 125.6875 114.132574 124.674805 111.700445 124.126953L110.322516 123.811523C108.836676 123.471191 108.230719 122.998047 108.230719 122.192871 108.230719 121.171875 109.143805 120.507812 110.521734 120.507812 111.833258 120.507812 112.762945 121.171875 112.912359 122.226074L114.962652 122.226074C114.863043 120.16748 113.045172 118.723145 110.530035 118.723145 107.848883 118.723145 106.072516 120.16748 106.072516 122.342285 106.072516 124.126953 107.093512 125.206055 109.268316 125.695801L110.820562 126.052734C112.356207 126.409668 113.011969 126.916016 113.011969 127.779297 113.011969 128.783691 111.990973 129.505859 110.57984 129.505859 109.060797 129.505859 107.998297 128.816895 107.865484 127.746094L105.773688 127.746094zM121.155035 123.371582C119.92652 123.371582 119.063238 124.251465 118.97193 125.57959L123.246832 125.57959C123.205328 124.234863 122.391852 123.371582 121.155035 123.371582zM123.263434 128.501465L125.214117 128.501465C124.82398 130.15332 123.321539 131.182617 121.179938 131.182617 118.507086 131.182617 116.896734 129.414551 116.896734 126.492676 116.896734 123.570801 118.531988 121.736328 121.163336 121.736328 123.75318 121.736328 125.305426 123.45459 125.305426 126.318359L125.305426 126.982422 118.963629 126.982422 118.963629 127.090332C119.013434 128.601074 119.885016 129.547363 121.238043 129.547363 122.259039 129.547363 122.964605 129.173828 123.263434 128.501465zM127.37232 131L129.430914 131 129.430914 125.47998C129.430914 124.367676 130.186285 123.529297 131.207281 123.529297 132.219977 123.529297 132.850836 124.135254 132.850836 125.131348L132.850836 131 134.851324 131 134.851324 125.347168C134.851324 124.30957 135.556891 123.529297 136.627691 123.529297 137.731695 123.529297 138.287848 124.110352 138.287848 125.280762L138.287848 131 140.338141 131 140.338141 124.757812C140.338141 122.873535 139.242438 121.736328 137.424566 121.736328 136.162848 121.736328 135.116949 122.39209 134.668707 123.388184L134.527594 123.388184C134.145758 122.367188 133.274176 121.736328 132.020758 121.736328 130.817145 121.736328 129.887457 122.350586 129.49732 123.388184L129.356207 123.388184 129.356207 121.918945 127.37232 121.918945 127.37232 131zM142.803473 131L144.853766 131 144.853766 121.918945 142.803473 121.918945 142.803473 131zM143.824469 120.441406C144.57984 120.441406 145.094488 119.959961 145.094488 119.304199 145.094488 118.648438 144.57984 118.166992 143.824469 118.166992 143.077398 118.166992 142.554449 118.648438 142.554449 119.304199 142.554449 119.959961 143.077398 120.441406 143.824469 120.441406zM152.44898 131.149414C151.178961 131.149414 150.124762 130.560059 149.610113 129.563965L149.469 129.563965 149.469 131 147.485113 131 147.485113 118.407715 149.543707 118.407715 149.543707 123.363281 149.68482 123.363281C150.157965 122.375488 151.203863 121.769531 152.44898 121.769531 154.748297 121.769531 156.176031 123.554199 156.176031 126.459473 156.176031 129.348145 154.739996 131.149414 152.44898 131.149414zM151.80152 123.520996C150.398688 123.520996 149.510504 124.649902 149.510504 126.459473 149.510504 128.269043 150.390387 129.397949 151.80152 129.397949 153.212652 129.397949 154.059332 128.285645 154.059332 126.459473 154.059332 124.633301 153.204352 123.520996 151.80152 123.520996zM162.160895 131.182617C159.438238 131.182617 157.794684 129.40625 157.794684 126.459473 157.794684 123.529297 159.463141 121.736328 162.160895 121.736328 164.866949 121.736328 166.527105 123.520996 166.527105 126.459473 166.527105 129.40625 164.87525 131.182617 162.160895 131.182617zM162.160895 129.456055C163.59693 129.456055 164.410406 128.360352 164.410406 126.459473 164.410406 124.566895 163.588629 123.462891 162.160895 123.462891 160.724859 123.462891 159.903082 124.566895 159.903082 126.459473 159.903082 128.360352 160.724859 129.456055 162.160895 129.456055zM168.685309 131L170.743902 131 170.743902 118.407715 168.685309 118.407715 168.685309 131zM176.629156 131.149414C174.32984 131.149414 172.893805 129.339844 172.893805 126.451172 172.893805 123.579102 174.338141 121.769531 176.629156 121.769531 177.874273 121.769531 178.90357 122.367188 179.385016 123.363281L179.526129 123.363281 179.526129 118.407715 181.584723 118.407715 181.584723 131 179.592535 131 179.592535 129.563965 179.451422 129.563965C178.936773 130.560059 177.890875 131.149414 176.629156 131.149414zM177.268316 123.520996C175.865484 123.520996 175.002203 124.633301 175.002203 126.459473 175.002203 128.293945 175.857184 129.397949 177.268316 129.397949 178.68775 129.397949 179.551031 128.285645 179.551031 126.459473 179.551031 124.649902 178.679449 123.520996 177.268316 123.520996zM191.595465 131L193.737066 131 193.737066 119.021973 191.603766 119.021973 188.474371 121.213379 188.474371 123.271973 191.454352 121.180176 191.595465 121.180176 191.595465 131zM197.663336 131L199.904547 131 205.026129 120.848145 205.026129 119.021973 196.692145 119.021973 196.692145 120.823242 202.867926 120.823242 202.867926 120.956055 197.663336 131zM212.164801 121.769531C214.464117 121.769531 215.908453 123.545898 215.908453 126.459473 215.908453 129.356445 214.480719 131.149414 212.189703 131.149414 210.88648 131.149414 209.882086 130.584961 209.417242 129.62207L209.276129 129.62207 209.276129 134.021484 207.217535 134.021484 207.217535 121.918945 209.201422 121.918945 209.201422 123.421387 209.342535 123.421387C209.865484 122.39209 210.919684 121.769531 212.164801 121.769531zM211.51734 129.397949C212.945074 129.397949 213.791754 128.293945 213.791754 126.459473 213.791754 124.625 212.936773 123.520996 211.525641 123.520996 210.122809 123.520996 209.242926 124.649902 209.234625 126.459473 209.242926 128.277344 210.114508 129.397949 211.51734 129.397949zM221.046637 127.870605L222.906012 131 225.23023 131 222.266852 126.409668 225.197027 121.918945 222.930914 121.918945 221.137945 125.040039 220.996832 125.040039 219.187262 121.918945 216.804938 121.918945 219.768316 126.492676 216.82984 131 219.046148 131 220.905523 127.870605 221.046637 127.870605zM107.385873 192L107.385873 183.804199 107.503061 183.804199 113.237924 192 114.519662 192 114.519662 181.431152 113.215951 181.431152 113.215951 189.65625 113.098764 189.65625 107.3639 181.431152 106.082162 181.431152 106.082162 192 107.385873 192zM120.298471 192.13916C118.049936 192.13916 116.658334 190.586426 116.658334 188.052246 116.658334 185.510742 118.049936 183.965332 120.298471 183.965332 122.547006 183.965332 123.938607 185.510742 123.938607 188.052246 123.938607 190.586426 122.547006 192.13916 120.298471 192.13916zM120.298471 191.003906C121.792611 191.003906 122.634896 189.919922 122.634896 188.052246 122.634896 186.177246 121.792611 185.100586 120.298471 185.100586 118.80433 185.100586 117.962045 186.177246 117.962045 188.052246 117.962045 189.919922 118.80433 191.003906 120.298471 191.003906zM125.916146 192L127.175912 192 127.175912 187.107422C127.175912 185.994141 128.047494 185.188477 129.248666 185.188477 129.497689 185.188477 129.951791 185.232422 130.05433 185.261719L130.05433 184.001953C129.893197 183.97998 129.629525 183.965332 129.424447 183.965332 128.377084 183.965332 127.468881 184.507324 127.234506 185.276367L127.117318 185.276367 127.117318 184.104492 125.916146 184.104492 125.916146 192zM131.775521 192L133.035287 192 133.035287 187.107422C133.035287 185.994141 133.833627 185.100586 134.866342 185.100586 135.862436 185.100586 136.514291 185.701172 136.514291 186.638672L136.514291 192 137.774057 192 137.774057 186.924316C137.774057 185.920898 138.506479 185.100586 139.605111 185.100586 140.718393 185.100586 141.267709 185.671875 141.267709 186.836426L141.267709 192 142.527475 192 142.527475 186.543457C142.527475 184.888184 141.626596 183.965332 140.015268 183.965332 138.923959 183.965332 138.02308 184.514648 137.598275 185.349609L137.481088 185.349609C137.114877 184.529297 136.367807 183.965332 135.298471 183.965332 134.243783 183.965332 133.452768 184.470703 133.093881 185.349609L132.976693 185.349609 132.976693 184.104492 131.775521 184.104492 131.775521 192zM147.25892 191.033203C148.555307 191.033203 149.514779 190.183594 149.514779 189.055664L149.514779 188.330566 147.390756 188.469727C146.189584 188.550293 145.66224 188.967773 145.66224 189.758789 145.66224 190.564453 146.343393 191.033203 147.25892 191.033203zM147.024545 192.13916C145.493783 192.13916 144.358529 191.230957 144.358529 189.788086 144.358529 188.374512 145.398568 187.561523 147.236947 187.45166L149.514779 187.3125 149.514779 186.594727C149.514779 185.620605 148.906869 185.085938 147.72767 185.085938 146.782846 185.085938 146.123666 185.444824 145.947885 186.067383L144.673471 186.067383C144.841928 184.800293 146.087045 183.965332 147.771615 183.965332 149.697885 183.965332 150.774545 184.954102 150.774545 186.594727L150.774545 192 149.573373 192 149.573373 190.835449 149.456186 190.835449C148.94349 191.677734 148.079232 192.13916 147.024545 192.13916zM153.176889 192L154.436654 192 154.436654 180.969727 153.176889 180.969727 153.176889 192zM163.635873 192L164.954232 192 164.954232 181.431152 163.643197 181.431152 160.830697 183.452637 160.830697 184.844238 163.518686 182.895996 163.635873 182.895996 163.635873 192zM171.589975 192.249023C173.779916 192.249023 175.281381 190.78418 175.281381 188.638184 175.281381 186.558105 173.875131 185.100586 171.868295 185.100586 170.894174 185.100586 170.147104 185.400879 169.634408 186.001465L169.517221 186.001465 169.817514 182.610352 174.680795 182.610352 174.680795 181.431152 168.784799 181.431152 168.206186 187.422363 169.443979 187.422363C169.876107 186.667969 170.667123 186.23584 171.626596 186.23584 173.010873 186.23584 173.963021 187.224609 173.963021 188.674805 173.963021 190.125 173.018197 191.091797 171.604623 191.091797 170.359506 191.091797 169.451303 190.330078 169.334115 189.1875L168.037729 189.1875C168.154916 191.011231 169.590463 192.249023 171.589975 192.249023zM181.235971 183.965332C183.250131 183.965332 184.553842 185.569336 184.553842 188.052246 184.553842 190.520508 183.242807 192.13916 181.235971 192.13916 180.108041 192.13916 179.199838 191.648438 178.767709 190.813477L178.650521 190.813477 178.650521 194.636719 177.390756 194.636719 177.390756 184.104492 178.591928 184.104492 178.591928 185.422852 178.709115 185.422852C179.214486 184.514648 180.159311 183.965332 181.235971 183.965332zM180.935678 191.003906C182.385873 191.003906 183.250131 189.897949 183.250131 188.052246 183.250131 186.206543 182.385873 185.100586 180.943002 185.100586 179.514779 185.100586 178.6139 186.23584 178.6139 188.052246 178.6139 189.861328 179.514779 191.003906 180.935678 191.003906zM188.963021 189.019043L190.830697 192 192.324838 192 189.607553 188.000977 192.288217 184.104492 190.859994 184.104492 189.006967 187.041504 188.889779 187.041504 187.014779 184.104492 185.513314 184.104492 188.245248 188.052246 185.542611 192 186.970834 192 188.845834 189.019043 188.963021 189.019043zM107.411799 218L107.411799 210.896973 107.513361 210.896973 112.483576 218 113.594416 218 113.594416 208.840332 112.464533 208.840332 112.464533 215.96875 112.36297 215.96875 107.392756 208.840332 106.281916 208.840332 106.281916 218 107.411799 218zM118.602717 218.120605C116.653986 218.120605 115.447931 216.774902 115.447931 214.578613 115.447931 212.375977 116.653986 211.036621 118.602717 211.036621 120.551447 211.036621 121.757502 212.375977 121.757502 214.578613 121.757502 216.774902 120.551447 218.120605 118.602717 218.120605zM118.602716 217.136719C119.897638 217.136719 120.627619 216.197266 120.627619 214.578613 120.627619 212.953613 119.897638 212.020508 118.602716 212.020508 117.307795 212.020508 116.577814 212.953613 116.577814 214.578613 116.577814 216.197266 117.307795 217.136719 118.602716 217.136719zM123.471369 218L124.563166 218 124.563166 213.759766C124.563166 212.794922 125.318537 212.09668 126.359552 212.09668 126.575373 212.09668 126.968927 212.134766 127.057795 212.160156L127.057795 211.068359C126.918146 211.049316 126.689631 211.036621 126.511896 211.036621 125.604181 211.036621 124.817072 211.506348 124.613947 212.172852L124.512384 212.172852 124.512384 211.157227 123.471369 211.157227 123.471369 218zM128.549494 218L129.641291 218 129.641291 213.759766C129.641291 212.794922 130.333185 212.020508 131.228205 212.020508 132.091486 212.020508 132.656427 212.541016 132.656427 213.353516L132.656427 218 133.748224 218 133.748224 213.601074C133.748224 212.731445 134.38299 212.020508 135.335138 212.020508 136.299982 212.020508 136.776056 212.515625 136.776056 213.524902L136.776056 218 137.867853 218 137.867853 213.270996C137.867853 211.836426 137.087092 211.036621 135.690607 211.036621 134.744806 211.036621 133.964045 211.512695 133.59588 212.236328L133.494318 212.236328C133.176935 211.525391 132.529474 211.036621 131.602717 211.036621 130.688654 211.036621 130.003107 211.474609 129.692072 212.236328L129.590509 212.236328 129.590509 211.157227 128.549494 211.157227 128.549494 218zM141.968439 217.162109C143.091974 217.162109 143.923517 216.425781 143.923517 215.448242L143.923517 214.819824 142.082697 214.94043C141.041681 215.010254 140.58465 215.37207 140.58465 216.057617 140.58465 216.755859 141.174982 217.162109 141.968439 217.162109zM141.765314 218.120605C140.438654 218.120605 139.454767 217.333496 139.454767 216.083008 139.454767 214.85791 140.356134 214.15332 141.949396 214.058105L143.923517 213.9375 143.923517 213.31543C143.923517 212.471191 143.396662 212.007812 142.374689 212.007812 141.555842 212.007812 140.984552 212.318848 140.832209 212.858398L139.727717 212.858398C139.873713 211.760254 140.952814 211.036621 142.412775 211.036621 144.082209 211.036621 145.015314 211.893555 145.015314 213.31543L145.015314 218 143.974299 218 143.974299 216.990723 143.872736 216.990723C143.4284 217.720703 142.679377 218.120605 141.765314 218.120605zM147.097345 218L148.189142 218 148.189142 208.44043 147.097345 208.44043 147.097345 218zM156.161799 218L157.304377 218 157.304377 208.840332 156.168146 208.840332 153.730646 210.592285 153.730646 211.79834 156.060236 210.109863 156.161799 210.109863 156.161799 218zM161.906427 213.778809L163.068049 213.778809C164.369318 213.778809 165.17547 214.438965 165.17547 215.499023 165.17547 216.501953 164.318537 217.219238 163.112482 217.219238 161.931818 217.219238 161.106623 216.59082 161.00506 215.613281L159.900568 215.613281C159.983088 217.181152 161.265314 218.21582 163.125177 218.21582 164.934259 218.21582 166.349787 217.041504 166.349787 215.530762 166.349787 214.280273 165.594416 213.416992 164.350275 213.258301L164.350275 213.156738C165.353205 212.915527 165.956232 212.115723 165.956232 211.023926 165.956232 209.690918 164.680353 208.624512 163.080744 208.624512 161.335138 208.624512 160.198908 209.602051 160.08465 211.188965L161.19549 211.188965C161.290705 210.205078 161.982599 209.621094 163.03631 209.621094 164.090021 209.621094 164.794611 210.243164 164.794611 211.17627 164.794611 212.128418 164.058283 212.80127 163.017267 212.80127L161.906427 212.80127 161.906427 213.778809zM171.523127 211.036621C173.268732 211.036621 174.398615 212.426758 174.398615 214.578613 174.398615 216.717773 173.262384 218.120605 171.523127 218.120605 170.545588 218.120605 169.758478 217.695312 169.383967 216.97168L169.282404 216.97168 169.282404 220.285156 168.190607 220.285156 168.190607 211.157227 169.231623 211.157227 169.231623 212.299805 169.333185 212.299805C169.771174 211.512695 170.590021 211.036621 171.523127 211.036621zM171.262873 217.136719C172.519709 217.136719 173.268732 216.178223 173.268732 214.578613 173.268732 212.979004 172.519709 212.020508 171.26922 212.020508 170.031427 212.020508 169.250666 213.004395 169.250666 214.578613 169.250666 216.146484 170.031427 217.136719 171.262873 217.136719zM178.219904 215.416504L179.838556 218 181.133478 218 178.778498 214.53418 181.10174 211.157227 179.863947 211.157227 178.25799 213.702637 178.156427 213.702637 176.531427 211.157227 175.230158 211.157227 177.597834 214.578613 175.255549 218 176.493342 218 178.118342 215.416504 178.219904 215.416504zM107.411799 249L107.411799 241.896973 107.513361 241.896973 112.483576 249 113.594416 249 113.594416 239.840332 112.464533 239.840332 112.464533 246.96875 112.36297 246.96875 107.392756 239.840332 106.281916 239.840332 106.281916 249 107.411799 249zM118.602716 249.120606C116.653986 249.120606 115.447931 247.774902 115.447931 245.578613 115.447931 243.375977 116.653986 242.036621 118.602716 242.036621 120.551447 242.036621 121.757502 243.375977 121.757502 245.578613 121.757502 247.774902 120.551447 249.120606 118.602716 249.120606zM118.602716 248.136719C119.897638 248.136719 120.627619 247.197266 120.627619 245.578613 120.627619 243.953613 119.897638 243.020508 118.602716 243.020508 117.307795 243.020508 116.577814 243.953613 116.577814 245.578613 116.577814 247.197266 117.307795 248.136719 118.602716 248.136719zM123.471369 249L124.563166 249 124.563166 244.759766C124.563166 243.794922 125.318537 243.09668 126.359552 243.09668 126.575373 243.09668 126.968927 243.134766 127.057795 243.160156L127.057795 242.068359C126.918146 242.049316 126.689631 242.036621 126.511896 242.036621 125.604181 242.036621 124.817072 242.506348 124.613947 243.172852L124.512384 243.172852 124.512384 242.157227 123.471369 242.157227 123.471369 249zM128.549494 249L129.641291 249 129.641291 244.759766C129.641291 243.794922 130.333185 243.020508 131.228205 243.020508 132.091486 243.020508 132.656427 243.541016 132.656427 244.353516L132.656427 249 133.748224 249 133.748224 244.601074C133.748224 243.731445 134.38299 243.020508 135.335138 243.020508 136.299982 243.020508 136.776056 243.515625 136.776056 244.524902L136.776056 249 137.867853 249 137.867853 244.270996C137.867853 242.836426 137.087092 242.036621 135.690607 242.036621 134.744806 242.036621 133.964045 242.512695 133.59588 243.236328L133.494318 243.236328C133.176935 242.525391 132.529474 242.036621 131.602717 242.036621 130.688654 242.036621 130.003107 242.474609 129.692072 243.236328L129.590509 243.236328 129.590509 242.157227 128.549494 242.157227 128.549494 249zM141.968439 248.162109C143.091974 248.162109 143.923517 247.425781 143.923517 246.448242L143.923517 245.819824 142.082697 245.94043C141.041681 246.010254 140.58465 246.37207 140.58465 247.057617 140.58465 247.755859 141.174982 248.162109 141.968439 248.162109zM141.765314 249.120606C140.438654 249.120606 139.454767 248.333496 139.454767 247.083008 139.454767 245.85791 140.356134 245.15332 141.949396 245.058105L143.923517 244.9375 143.923517 244.31543C143.923517 243.471191 143.396662 243.007812 142.374689 243.007812 141.555842 243.007812 140.984552 243.318848 140.832209 243.858398L139.727717 243.858398C139.873713 242.760254 140.952814 242.036621 142.412775 242.036621 144.082209 242.036621 145.015314 242.893555 145.015314 244.31543L145.015314 249 143.974299 249 143.974299 247.990723 143.872736 247.990723C143.4284 248.720703 142.679377 249.120606 141.765314 249.120606zM147.097345 249L148.189142 249 148.189142 239.44043 147.097345 239.44043 147.097345 249zM156.161799 249L157.304377 249 157.304377 239.840332 156.168146 239.840332 153.730646 241.592285 153.730646 242.79834 156.060236 241.109863 156.161799 241.109863 156.161799 249zM161.906427 244.778809L163.068049 244.778809C164.369318 244.778809 165.17547 245.438965 165.17547 246.499023 165.17547 247.501953 164.318537 248.219238 163.112482 248.219238 161.931818 248.219238 161.106623 247.59082 161.00506 246.613281L159.900568 246.613281C159.983088 248.181152 161.265314 249.21582 163.125177 249.21582 164.934259 249.21582 166.349787 248.041504 166.349787 246.530762 166.349787 245.280273 165.594416 244.416992 164.350275 244.258301L164.350275 244.156738C165.353205 243.915527 165.956232 243.115723 165.956232 242.023926 165.956232 240.690918 164.680353 239.624512 163.080744 239.624512 161.335138 239.624512 160.198908 240.602051 160.08465 242.188965L161.19549 242.188965C161.290705 241.205078 161.982599 240.621094 163.03631 240.621094 164.090021 240.621094 164.794611 241.243164 164.794611 242.17627 164.794611 243.128418 164.058283 243.80127 163.017267 243.80127L161.906427 243.80127 161.906427 244.778809zM171.523127 242.036621C173.268732 242.036621 174.398615 243.426758 174.398615 245.578613 174.398615 247.717773 173.262384 249.120606 171.523127 249.120606 170.545588 249.120606 169.758478 248.695312 169.383967 247.97168L169.282404 247.97168 169.282404 251.285156 168.190607 251.285156 168.190607 242.157227 169.231623 242.157227 169.231623 243.299805 169.333185 243.299805C169.771174 242.512695 170.590021 242.036621 171.523127 242.036621zM171.262873 248.136719C172.519709 248.136719 173.268732 247.178223 173.268732 245.578613 173.268732 243.979004 172.519709 243.020508 171.26922 243.020508 170.031427 243.020508 169.250666 244.004395 169.250666 245.578613 169.250666 247.146484 170.031427 248.136719 171.262873 248.136719zM178.219904 246.416504L179.838556 249 181.133478 249 178.778498 245.53418 181.10174 242.157227 179.863947 242.157227 178.25799 244.702637 178.156427 244.702637 176.531427 242.157227 175.230158 242.157227 177.597834 245.578613 175.255548 249 176.493341 249 178.118341 246.416504 178.219904 246.416504zM107.058283 272L107.058283 265.989746 107.14422 265.989746 111.349787 272 112.289728 272 112.289728 264.249512 111.333674 264.249512 111.333674 270.28125 111.247736 270.28125 107.04217 264.249512 106.102228 264.249512 106.102228 272 107.058283 272zM116.527521 272.102051C114.878595 272.102051 113.858088 270.963379 113.858088 269.104981 113.858088 267.241211 114.878595 266.10791 116.527521 266.10791 118.176447 266.10791 119.196955 267.241211 119.196955 269.104981 119.196955 270.963379 118.176447 272.102051 116.527521 272.102051zM116.527521 271.269531C117.623224 271.269531 118.2409 270.474609 118.2409 269.104981 118.2409 267.729981 117.623224 266.94043 116.527521 266.94043 115.431818 266.94043 114.814142 267.729981 114.814142 269.104981 114.814142 270.474609 115.431818 271.269531 116.527521 271.269531zM120.64715 272L121.570978 272 121.570978 268.412109C121.570978 267.595703 122.210138 267.004883 123.090998 267.004883 123.273615 267.004883 123.606623 267.037109 123.681818 267.058594L123.681818 266.134766C123.563654 266.118652 123.370295 266.10791 123.219904 266.10791 122.451838 266.10791 121.785822 266.505371 121.613947 267.069336L121.528009 267.069336 121.528009 266.209961 120.64715 266.209961 120.64715 272zM124.944025 272L125.867853 272 125.867853 268.412109C125.867853 267.595703 126.453302 266.94043 127.210627 266.94043 127.941095 266.94043 128.419123 267.380859 128.419123 268.068359L128.419123 272 129.342951 272 129.342951 268.277832C129.342951 267.541992 129.88006 266.94043 130.685724 266.94043 131.50213 266.94043 131.904963 267.359375 131.904963 268.213379L131.904963 272 132.828791 272 132.828791 267.998535C132.828791 266.784668 132.168146 266.10791 130.986505 266.10791 130.186213 266.10791 129.525568 266.510742 129.214045 267.123047L129.128107 267.123047C128.859552 266.521484 128.311701 266.10791 127.527521 266.10791 126.754084 266.10791 126.174006 266.478516 125.910822 267.123047L125.824884 267.123047 125.824884 266.209961 124.944025 266.209961 124.944025 272zM136.298517 271.291016C137.249201 271.291016 137.952814 270.667969 137.952814 269.84082L137.952814 269.309082 136.395197 269.411133C135.514338 269.470215 135.127619 269.776367 135.127619 270.356445 135.127619 270.947266 135.62713 271.291016 136.298517 271.291016zM136.126642 272.102051C135.004084 272.102051 134.171564 271.436035 134.171564 270.37793 134.171564 269.341309 134.934259 268.745117 136.282404 268.664551L137.952814 268.5625 137.952814 268.036133C137.952814 267.321777 137.507013 266.929688 136.642267 266.929688 135.949396 266.929688 135.465998 267.192871 135.337091 267.649414L134.402521 267.649414C134.526056 266.720215 135.439142 266.10791 136.674494 266.10791 138.087091 266.10791 138.876642 266.833008 138.876642 268.036133L138.876642 272 137.995783 272 137.995783 271.145996 137.909845 271.145996C137.533869 271.763672 136.90008 272.102051 136.126642 272.102051zM140.638361 272L141.562189 272 141.562189 263.911133 140.638361 263.911133 140.638361 272zM148.308283 272L149.27508 272 149.27508 264.249512 148.313654 264.249512 146.251154 265.731934 146.251154 266.752441 148.222345 265.323731 148.308283 265.323731 148.308283 272zM153.437677 272L154.404474 272 154.404474 264.249512 153.443049 264.249512 151.380549 265.731934 151.380549 266.752441 153.35174 265.323731 153.437677 265.323731 153.437677 272zM159.53924 266.10791C161.016291 266.10791 161.972345 267.28418 161.972345 269.104981 161.972345 270.915039 161.01092 272.102051 159.53924 272.102051 158.712091 272.102051 158.046076 271.742188 157.729181 271.129883L157.643244 271.129883 157.643244 273.933594 156.719416 273.933594 156.719416 266.209961 157.600275 266.209961 157.600275 267.176758 157.686213 267.176758C158.056818 266.510742 158.749689 266.10791 159.53924 266.10791zM159.319025 271.269531C160.382502 271.269531 161.016291 270.458496 161.016291 269.104981 161.016291 267.751465 160.382502 266.94043 159.324396 266.94043 158.277033 266.94043 157.616388 267.772949 157.616388 269.104981 157.616388 270.431641 158.277033 271.269531 159.319025 271.269531zM165.205744 269.813965L166.575373 272 167.671076 272 165.6784 269.067383 167.64422 266.209961 166.596857 266.209961 165.23797 268.363769 165.152033 268.363769 163.777033 266.209961 162.675959 266.209961 164.679377 269.104981 162.697443 272 163.744806 272 165.119806 269.813965 165.205744 269.813965zM110.068121 157L105.95484 157 105.95484 147.840332 109.960211 147.840332C111.737555 147.840332 112.797613 148.709961 112.797613 150.125488 112.797613 151.09668 112.080328 151.940918 111.140875 152.080566L111.140875 152.194824C112.353277 152.283691 113.235602 153.197754 113.235602 154.378418 113.235602 155.984375 112.023199 157 110.068121 157zM107.871832 149.306641L107.871832 151.63623 109.31275 151.63623C110.347418 151.63623 110.912359 151.210938 110.912359 150.474609 110.912359 149.744629 110.385504 149.306641 109.471441 149.306641L107.871832 149.306641zM107.871832 155.533691L109.579352 155.533691C110.683844 155.533691 111.280523 155.070312 111.280523 154.213379 111.280523 153.375488 110.664801 152.931152 109.534918 152.931152L107.871832 152.931152 107.871832 155.533691zM117.888434 157.152344C115.736578 157.152344 114.441656 155.787598 114.441656 153.496094 114.441656 151.22998 115.755621 149.846191 117.888434 149.846191 120.021246 149.846191 121.335211 151.223633 121.335211 153.496094 121.335211 155.787598 120.040289 157.152344 117.888434 157.152344zM117.888434 155.641602C118.87232 155.641602 119.437262 154.854492 119.437262 153.496094 119.437262 152.150391 118.865973 151.356934 117.888434 151.356934 116.904547 151.356934 116.339605 152.150391 116.339605 153.496094 116.339605 154.86084 116.898199 155.641602 117.888434 155.641602zM122.903082 157L124.75025 157 124.75025 147.326172 122.903082 147.326172 122.903082 157zM129.174566 157.10791C127.409918 157.10791 126.324469 155.724121 126.324469 153.489746 126.324469 151.261719 127.416266 149.884277 129.174566 149.884277 130.120367 149.884277 130.901129 150.341309 131.262945 151.115723L131.370855 151.115723 131.370855 147.326172 133.218023 147.326172 133.218023 157 131.427984 157 131.427984 155.901855 131.313727 155.901855C130.939215 156.657227 130.145758 157.10791 129.174566 157.10791zM129.802984 151.433105C128.819098 151.433105 128.222418 152.213867 128.222418 153.496094 128.222418 154.791016 128.81275 155.56543 129.802984 155.56543 130.793219 155.56543 131.389898 154.784668 131.389898 153.502441 131.389898 152.226562 130.786871 151.433105 129.802984 151.433105zM140.70191 157L142.618902 157 142.618902 147.840332 140.708258 147.840332 138.340582 149.47168 138.340582 151.255371 140.587652 149.706543 140.70191 149.706543 140.70191 157zM147.39234 153.026367L148.52857 153.026367C149.556891 153.026367 150.185309 153.521484 150.185309 154.321289 150.185309 155.102051 149.518805 155.641602 148.560309 155.641602 147.576422 155.641602 146.922613 155.152832 146.865484 154.378418L145.031012 154.378418C145.113531 156.10498 146.49732 157.234863 148.541266 157.234863 150.629645 157.234863 152.140387 156.073242 152.140387 154.467285 152.140387 153.26123 151.353277 152.42334 150.096441 152.283691L150.096441 152.169434C151.118414 151.959961 151.784918 151.134766 151.784918 150.074707 151.784918 148.633789 150.432867 147.605469 148.553961 147.605469 146.554449 147.605469 145.265875 148.697266 145.202398 150.430176L146.973395 150.430176C147.024176 149.636719 147.614508 149.135254 148.50318 149.135254 149.398199 149.135254 149.969488 149.60498 149.969488 150.341309 149.969488 151.090332 149.379156 151.598145 148.509527 151.598145L147.39234 151.598145 147.39234 153.026367zM157.897711 149.884277C159.668707 149.884277 160.754156 151.22998 160.754156 153.496094 160.754156 155.755859 159.681402 157.10791 157.929449 157.10791 156.92652 157.10791 156.158453 156.669922 155.81568 155.927246L155.701422 155.927246 155.701422 159.323242 153.854254 159.323242 153.854254 149.998535 155.644293 149.998535 155.644293 151.147461 155.758551 151.147461C156.13941 150.360352 156.932867 149.884277 157.897711 149.884277zM157.269293 155.56543C158.265875 155.56543 158.856207 154.791016 158.856207 153.496094 158.856207 152.213867 158.259527 151.433105 157.275641 151.433105 156.291754 151.433105 155.682379 152.220215 155.682379 153.502441 155.682379 154.784668 156.291754 155.56543 157.269293 155.56543zM164.746832 154.714844L166.048102 157 168.104742 157 165.88941 153.458008 168.085699 149.998535 166.067145 149.998535 164.829352 152.296387 164.715094 152.296387 163.477301 149.998535 161.357184 149.998535 163.566168 153.540527 161.369879 157 163.331305 157 164.632574 154.714844 164.746832 154.714844z"/>
  </g>
</svg>
