<svg xmlns="http://www.w3.org/2000/svg" width="640" height="128" viewBox="0 0 640 128">
  <defs>
    <linearGradient id="typeface-roboto-a" x1="0%" y1="50%" y2="50%">
      <stop offset="0%" stop-color="#F9F9FA" stop-opacity="0"/>
      <stop offset="100%" stop-color="#F9F9FA"/>
    </linearGradient>
  </defs>
  <g fill="none" fill-rule="evenodd">
    <path fill="#000F40" d="M32.9277344,69.0410156 L23.0136719,69.0410156 L20.9394531,75 L16.3164062,75 L25.984375,49.40625 L29.9746094,49.40625 L39.6601562,75 L35.0195312,75 L32.9277344,69.0410156 Z M24.2617188,65.4550781 L31.6796875,65.4550781 L27.9707031,54.8378906 L24.2617188,65.4550781 Z M53.5117188,75 C53.3242178,74.6367169 53.160157,74.044926 53.0195312,73.2246094 C51.6601495,74.6425852 49.9961036,75.3515625 48.0273438,75.3515625 C46.1171779,75.3515625 44.5585998,74.8066461 43.3515625,73.7167969 C42.1445252,72.6269477 41.5410156,71.2793049 41.5410156,69.6738281 C41.5410156,67.6464742 42.2939378,66.0908257 43.7998047,65.0068359 C45.3056716,63.9228461 47.4589704,63.3808594 50.2597656,63.3808594 L52.8789062,63.3808594 L52.8789062,62.1328125 C52.8789062,61.1484326 52.6035184,60.3603545 52.0527344,59.7685547 C51.5019504,59.1767549 50.6640681,58.8808594 49.5390625,58.8808594 C48.5664014,58.8808594 47.7695344,59.124021 47.1484375,59.6103516 C46.5273406,60.0966821 46.2167969,60.71484 46.2167969,61.4648438 L41.9453125,61.4648438 C41.9453125,60.4218698 42.2910122,59.4462936 42.9824219,58.5380859 C43.6738316,57.6298783 44.6142519,56.9179713 45.8037109,56.4023438 C46.99317,55.8867162 48.3203052,55.6289062 49.7851562,55.6289062 C52.0117299,55.6289062 53.7871028,56.188471 55.1113281,57.3076172 C56.4355535,58.4267634 57.1152342,59.9999899 57.1503906,62.0273438 L57.1503906,70.6054688 C57.1503906,72.3164148 57.3906226,73.6816355 57.8710938,74.7011719 L57.8710938,75 L53.5117188,75 Z M48.8183594,71.9238281 C49.6621136,71.9238281 50.456051,71.7187521 51.2001953,71.3085938 C51.9443397,70.8984354 52.5039044,70.3476597 52.8789062,69.65625 L52.8789062,66.0703125 L50.5761719,66.0703125 C48.9941327,66.0703125 47.8046915,66.3457004 47.0078125,66.8964844 C46.2109335,67.4472684 45.8125,68.2265575 45.8125,69.234375 C45.8125,70.0546916 46.0849582,70.7080054 46.6298828,71.1943359 C47.1748074,71.6806665 47.9042923,71.9238281 48.8183594,71.9238281 Z M71.0019531,75 L71.0019531,49.40625 L79.7734375,49.40625 C82.6679832,49.40625 84.8710862,49.9863223 86.3828125,51.1464844 C87.8945388,52.3066464 88.6503906,54.0351448 88.6503906,56.3320312 C88.6503906,57.5039121 88.3339875,58.5585891 87.7011719,59.4960938 C87.0683562,60.4335984 86.1425842,61.1601537 84.9238281,61.6757812 C86.3066475,62.0507831 87.3759728,62.7568308 88.1318359,63.7939453 C88.8876991,64.8310599 89.265625,66.0761646 89.265625,67.5292969 C89.265625,69.9316526 88.4951249,71.7773373 86.9541016,73.0664062 C85.4130782,74.3554752 83.2070456,75 80.3359375,75 L71.0019531,75 Z M75.4492188,63.4511719 L75.4492188,71.4492188 L80.3886719,71.4492188 C81.7832101,71.4492188 82.8730429,71.1035191 83.6582031,70.4121094 C84.4433633,69.7206997 84.8359375,68.7597718 84.8359375,67.5292969 C84.8359375,64.8691273 83.4765761,63.5097659 80.7578125,63.4511719 L75.4492188,63.4511719 Z M75.4492188,60.1816406 L79.8085938,60.1816406 C81.1914132,60.1816406 82.272457,59.8681672 83.0517578,59.2412109 C83.8310586,58.6142547 84.2207031,57.7265682 84.2207031,56.578125 C84.2207031,55.3124937 83.8603552,54.3984403 83.1396484,53.8359375 C82.4189417,53.2734347 81.2968826,52.9921875 79.7734375,52.9921875 L75.4492188,52.9921875 L75.4492188,60.1816406 Z M109.990234,65.6835938 C109.990234,68.6367335 109.331061,70.9863194 108.012695,72.7324219 C106.694329,74.4785244 104.880871,75.3515625 102.572266,75.3515625 C100.345692,75.3515625 98.6113343,74.5488362 97.3691406,72.9433594 L97.1582031,75 L93.2910156,75 L93.2910156,48 L97.5625,48 L97.5625,57.8085938 C98.7929749,56.3554615 100.451161,55.6289062 102.537109,55.6289062 C104.857433,55.6289062 106.679681,56.4902258 108.003906,58.2128906 C109.328132,59.9355555 109.990234,62.3437345 109.990234,65.4375 L109.990234,65.6835938 Z M105.71875,65.3144531 C105.71875,63.2519428 105.355472,61.7050833 104.628906,60.6738281 C103.90234,59.642573 102.847663,59.1269531 101.464844,59.1269531 C99.613272,59.1269531 98.3125038,59.9355388 97.5625,61.5527344 L97.5625,69.3925781 C98.3242226,71.0449301 99.6367094,71.8710938 101.5,71.8710938 C102.835944,71.8710938 103.867184,71.3730519 104.59375,70.3769531 C105.320316,69.3808544 105.695312,67.8750101 105.71875,65.859375 L105.71875,65.3144531 Z M142.474609,66.6679688 C142.216796,69.3984512 141.208993,71.5283127 139.451172,73.0576172 C137.693351,74.5869217 135.355483,75.3515625 132.4375,75.3515625 C130.398427,75.3515625 128.602547,74.8681689 127.049805,73.9013672 C125.497063,72.9345655 124.298832,71.5605558 123.455078,69.7792969 C122.611324,67.998038 122.171875,65.9296993 122.136719,63.5742188 L122.136719,61.1835938 C122.136719,58.7695192 122.564449,56.6425873 123.419922,54.8027344 C124.275395,52.9628814 125.502922,51.5449269 127.102539,50.5488281 C128.702156,49.5527294 130.550771,49.0546875 132.648438,49.0546875 C135.47267,49.0546875 137.746085,49.8222579 139.46875,51.3574219 C141.191415,52.8925858 142.193358,55.0605329 142.474609,57.8613281 L138.044922,57.8613281 C137.833983,56.0214752 137.297856,54.69434 136.436523,53.8798828 C135.575191,53.0654256 134.312508,52.6582031 132.648438,52.6582031 C130.714834,52.6582031 129.229497,53.3642508 128.192383,54.7763672 C127.155268,56.1884836 126.625,58.259752 126.601562,60.9902344 L126.601562,63.2578125 C126.601562,66.0234513 127.096675,68.1328052 128.086914,69.5859375 C129.077153,71.0390698 130.527334,71.765625 132.4375,71.765625 C134.183602,71.765625 135.496089,71.3730508 136.375,70.5878906 C137.253911,69.8027304 137.810546,68.4961029 138.044922,66.6679688 L142.474609,66.6679688 Z M153.847656,71.9414062 C154.914068,71.9414062 155.798825,71.6308625 156.501953,71.0097656 C157.205082,70.3886688 157.580078,69.6210983 157.626953,68.7070312 L161.652344,68.7070312 C161.605469,69.8906309 161.236332,70.9951121 160.544922,72.0205078 C159.853512,73.0459036 158.916022,73.8574189 157.732422,74.4550781 C156.548822,75.0527374 155.271491,75.3515625 153.900391,75.3515625 C151.240221,75.3515625 149.130867,74.490243 147.572266,72.7675781 C146.013664,71.0449133 145.234375,68.6660308 145.234375,65.6308594 L145.234375,65.1914062 C145.234375,62.2968605 146.007805,59.9795009 147.554688,58.2392578 C149.10157,56.4990147 151.210924,55.6289062 153.882812,55.6289062 C156.144543,55.6289062 157.987298,56.2880793 159.411133,57.6064453 C160.834968,58.9248113 161.582031,60.6562393 161.652344,62.8007812 L157.626953,62.8007812 C157.580078,61.7109321 157.208011,60.8144566 156.510742,60.1113281 C155.813473,59.4081996 154.925787,59.0566406 153.847656,59.0566406 C152.464837,59.0566406 151.398441,59.5576122 150.648438,60.5595703 C149.898434,61.5615284 149.517578,63.0820211 149.505859,65.1210938 L149.505859,65.8066406 C149.505859,67.8691509 149.877926,69.4072215 150.62207,70.4208984 C151.366215,71.4345754 152.441399,71.9414062 153.847656,71.9414062 Z M174.255859,75 L174.255859,49.40625 L181.814453,49.40625 C184.076183,49.40625 186.082999,49.9101512 187.834961,50.9179688 C189.586923,51.9257863 190.943355,53.3554595 191.904297,55.2070312 C192.865239,57.058603 193.345703,59.1796755 193.345703,61.5703125 L193.345703,62.8535156 C193.345703,65.279309 192.86231,67.4121002 191.895508,69.2519531 C190.928706,71.0918061 189.551767,72.5097606 187.764648,73.5058594 C185.97753,74.5019581 183.929699,75 181.621094,75 L174.255859,75 Z M178.703125,52.9921875 L178.703125,71.4492188 L181.603516,71.4492188 C183.935559,71.4492188 185.72558,70.7197339 186.973633,69.2607422 C188.221686,67.8017505 188.857422,65.7070449 188.880859,62.9765625 L188.880859,61.5527344 C188.880859,58.7753767 188.27735,56.6543042 187.070312,55.1894531 C185.863275,53.7246021 184.11134,52.9921875 181.814453,52.9921875 L178.703125,52.9921875 Z M196.5625,65.3496094 C196.5625,62.4199072 197.242181,60.0673917 198.601562,58.2919922 C199.960944,56.5165927 201.783192,55.6289062 204.068359,55.6289062 C206.083994,55.6289062 207.712884,56.3320242 208.955078,57.7382812 L208.955078,48 L213.226562,48 L213.226562,75 L209.359375,75 L209.148438,73.03125 C207.871087,74.5781327 206.166026,75.3515625 204.033203,75.3515625 C201.806629,75.3515625 200.00489,74.4550871 198.62793,72.6621094 C197.25097,70.8691317 196.5625,68.431656 196.5625,65.3496094 Z M200.833984,65.71875 C200.833984,67.6523534 201.206051,69.1611274 201.950195,70.2451172 C202.69434,71.329107 203.751946,71.8710938 205.123047,71.8710938 C206.869149,71.8710938 208.14648,71.0918047 208.955078,69.5332031 L208.955078,61.4121094 C208.169918,59.8886643 206.904306,59.1269531 205.158203,59.1269531 C203.775384,59.1269531 202.708988,59.6747992 201.958984,60.7705078 C201.208981,61.8662164 200.833984,63.515614 200.833984,65.71875 Z M242.019531,63.5742188 L231.507812,63.5742188 L231.507812,71.4492188 L243.794922,71.4492188 L243.794922,75 L227.060547,75 L227.060547,49.40625 L243.671875,49.40625 L243.671875,52.9921875 L231.507812,52.9921875 L231.507812,60.0585938 L242.019531,60.0585938 L242.019531,63.5742188 Z M255.044922,75.3515625 C252.337877,75.3515625 250.143563,74.499032 248.461914,72.7939453 C246.780265,71.0888587 245.939453,68.8183736 245.939453,65.9824219 L245.939453,65.4550781 C245.939453,63.5566311 246.30566,61.860359 247.038086,60.3662109 C247.770511,58.8720628 248.798822,57.7089885 250.123047,56.8769531 C251.447272,56.0449177 252.92382,55.6289062 254.552734,55.6289062 C257.142591,55.6289062 259.143548,56.4550699 260.555664,58.1074219 C261.96778,59.7597739 262.673828,62.0976411 262.673828,65.1210938 L262.673828,66.84375 L250.246094,66.84375 C250.375001,68.4140704 250.899409,69.6562454 251.819336,70.5703125 C252.739262,71.4843796 253.896477,71.9414062 255.291016,71.9414062 C257.248057,71.9414062 258.841791,71.1503985 260.072266,69.5683594 L262.375,71.765625 C261.613277,72.9023494 260.596686,73.7841766 259.325195,74.4111328 C258.053705,75.0380891 256.626961,75.3515625 255.044922,75.3515625 Z M254.535156,59.0566406 C253.363275,59.0566406 252.416996,59.4667928 251.696289,60.2871094 C250.975582,61.107426 250.515626,62.2499927 250.316406,63.7148438 L258.455078,63.7148438 L258.455078,63.3984375 C258.361328,61.9687429 257.980472,60.887699 257.3125,60.1552734 C256.644528,59.4228479 255.718756,59.0566406 254.535156,59.0566406 Z M290.113281,64.1542969 L279.8125,64.1542969 L279.8125,75 L275.365234,75 L275.365234,49.40625 L291.625,49.40625 L291.625,52.9921875 L279.8125,52.9921875 L279.8125,60.6035156 L290.113281,60.6035156 L290.113281,64.1542969 Z M296.230469,75 L296.230469,59.1445312 L293.330078,59.1445312 L293.330078,55.9804688 L296.230469,55.9804688 L296.230469,54.2402344 C296.230469,52.1308488 296.8164,50.5019589 297.988281,49.3535156 C299.160162,48.2050724 300.800771,47.6308594 302.910156,47.6308594 C303.66016,47.6308594 304.457027,47.7363271 305.300781,47.9472656 L305.195312,51.2871094 C304.72656,51.1933589 304.181644,51.1464844 303.560547,51.1464844 C301.521474,51.1464844 300.501953,52.195302 300.501953,54.2929688 L300.501953,55.9804688 L304.369141,55.9804688 L304.369141,59.1445312 L300.501953,59.1445312 L300.501953,75 L296.230469,75 Z M336.484375,71.6777344 C335.558589,72.8847717 334.275399,73.798825 332.634766,74.4199219 C330.994132,75.0410187 329.13087,75.3515625 327.044922,75.3515625 C324.90038,75.3515625 323.001961,74.8652392 321.349609,73.8925781 C319.697257,72.919917 318.422856,71.5283294 317.526367,69.7177734 C316.629878,67.9072175 316.164063,65.7949339 316.128906,63.3808594 L316.128906,61.3769531 C316.128906,57.5097463 317.054678,54.4892687 318.90625,52.3154297 C320.757822,50.1415907 323.34178,49.0546875 326.658203,49.0546875 C329.505874,49.0546875 331.76757,49.7578055 333.443359,51.1640625 C335.119149,52.5703195 336.126951,54.597643 336.466797,57.2460938 L332.107422,57.2460938 C331.615232,54.1640471 329.82814,52.6230469 326.746094,52.6230469 C324.753896,52.6230469 323.239263,53.3408131 322.202148,54.7763672 C321.165034,56.2119212 320.628906,58.3183455 320.59375,61.0957031 L320.59375,63.0644531 C320.59375,65.830092 321.176752,67.9775314 322.342773,69.5068359 C323.508795,71.0361405 325.128896,71.8007812 327.203125,71.8007812 C329.476574,71.8007812 331.093745,71.2851614 332.054688,70.2539062 L332.054688,65.2441406 L326.78125,65.2441406 L326.78125,61.8691406 L336.484375,61.8691406 L336.484375,71.6777344 Z M340.210938,65.3496094 C340.210938,62.3964696 340.905266,60.0380948 342.293945,58.2744141 C343.682624,56.5107334 345.525379,55.6289062 347.822266,55.6289062 C349.990245,55.6289062 351.695306,56.3847581 352.9375,57.8964844 L353.130859,55.9804688 L356.980469,55.9804688 L356.980469,74.4199219 C356.980469,76.9160281 356.204109,78.8847584 354.651367,80.3261719 C353.098625,81.7675853 351.003919,82.4882812 348.367188,82.4882812 C346.972649,82.4882812 345.610358,82.1982451 344.280273,81.6181641 C342.950189,81.038083 341.939457,80.2793016 341.248047,79.3417969 L343.269531,76.7753906 C344.582038,78.3339922 346.199209,79.1132812 348.121094,79.1132812 C349.53907,79.1132812 350.658199,78.729496 351.478516,77.9619141 C352.298832,77.1943321 352.708984,76.0664137 352.708984,74.578125 L352.708984,73.2949219 C351.478509,74.6660225 349.837901,75.3515625 347.787109,75.3515625 C345.560536,75.3515625 343.741218,74.4668057 342.329102,72.6972656 C340.916985,70.9277255 340.210938,68.4785313 340.210938,65.3496094 Z M344.464844,65.71875 C344.464844,67.6289158 344.854488,69.1318305 345.633789,70.2275391 C346.41309,71.3232477 347.494134,71.8710938 348.876953,71.8710938 C350.599618,71.8710938 351.876949,71.1328199 352.708984,69.65625 L352.708984,61.2890625 C351.900387,59.847649 350.634774,59.1269531 348.912109,59.1269531 C347.505852,59.1269531 346.41309,59.6835882 345.633789,60.796875 C344.854488,61.9101618 344.464844,63.5507704 344.464844,65.71875 Z M391.064453,75 L386.634766,75 L386.634766,63.6269531 L375.191406,63.6269531 L375.191406,75 L370.744141,75 L370.744141,49.40625 L375.191406,49.40625 L375.191406,60.0585938 L386.634766,60.0585938 L386.634766,49.40625 L391.064453,49.40625 L391.064453,75 Z M400.117188,58.0546875 C401.511726,56.4374919 403.27538,55.6289062 405.408203,55.6289062 C409.462911,55.6289062 411.519531,57.9433362 411.578125,62.5722656 L411.578125,75 L407.306641,75 L407.306641,62.7304688 C407.306641,61.4179622 407.022464,60.4892605 406.454102,59.9443359 C405.885739,59.3994113 405.050787,59.1269531 403.949219,59.1269531 C402.238273,59.1269531 400.960942,59.8886643 400.117188,61.4121094 L400.117188,75 L395.845703,75 L395.845703,48 L400.117188,48 L400.117188,58.0546875 Z M429.964844,75 L425.535156,75 L425.535156,49.40625 L429.964844,49.40625 L429.964844,75 Z M439.5625,75 L435.291016,75 L435.291016,55.9804688 L439.5625,55.9804688 L439.5625,75 Z M435.027344,51.0410156 C435.027344,50.3847623 435.235349,49.8398459 435.651367,49.40625 C436.067385,48.9726541 436.662106,48.7558594 437.435547,48.7558594 C438.208988,48.7558594 438.806639,48.9726541 439.228516,49.40625 C439.650393,49.8398459 439.861328,50.3847623 439.861328,51.0410156 C439.861328,51.6855501 439.650393,52.2216775 439.228516,52.6494141 C438.806639,53.0771506 438.208988,53.2910156 437.435547,53.2910156 C436.662106,53.2910156 436.067385,53.0771506 435.651367,52.6494141 C435.235349,52.2216775 435.027344,51.6855501 435.027344,51.0410156 Z M464.066406,49.40625 L468.496094,49.40625 L468.496094,67.3535156 C468.496094,69.8027466 467.731453,71.7480397 466.202148,73.1894531 C464.672844,74.6308666 462.654309,75.3515625 460.146484,75.3515625 C457.474596,75.3515625 455.412117,74.6777411 453.958984,73.3300781 C452.505852,71.9824151 451.779297,70.1074339 451.779297,67.7050781 L456.208984,67.7050781 C456.208984,69.0644599 456.545895,70.0869106 457.219727,70.7724609 C457.893558,71.4580112 458.869134,71.8007812 460.146484,71.8007812 C461.341803,71.8007812 462.293942,71.4052774 463.00293,70.6142578 C463.711918,69.8232382 464.066406,68.7304757 464.066406,67.3359375 L464.066406,49.40625 Z M477.619141,55.9804688 L477.619141,76.6875 C477.619141,78.6328222 477.135747,80.1181589 476.168945,81.1435547 C475.202144,82.1689504 473.787119,82.6816406 471.923828,82.6816406 C471.138668,82.6816406 470.382816,82.5820322 469.65625,82.3828125 L469.65625,79.0078125 C470.101565,79.1132818 470.605466,79.1660156 471.167969,79.1660156 C472.585945,79.1660156 473.3125,78.3925859 473.347656,76.8457031 L473.347656,55.9804688 L477.619141,55.9804688 Z M472.978516,51.0410156 C472.978516,50.3847623 473.186521,49.8398459 473.602539,49.40625 C474.018557,48.9726541 474.613277,48.7558594 475.386719,48.7558594 C476.16016,48.7558594 476.75781,48.9726541 477.179688,49.40625 C477.601565,49.8398459 477.8125,50.3847623 477.8125,51.0410156 C477.8125,51.6855501 477.601565,52.2216775 477.179688,52.6494141 C476.75781,53.0771506 476.16016,53.2910156 475.386719,53.2910156 C474.613277,53.2910156 474.018557,53.0771506 473.602539,52.6494141 C473.186521,52.2216775 472.978516,51.6855501 472.978516,51.0410156 Z M498.90625,63.9433594 L496.005859,67.0195312 L496.005859,75 L491.558594,75 L491.558594,49.40625 L496.005859,49.40625 L496.005859,61.4121094 L498.466797,58.3710938 L505.955078,49.40625 L511.333984,49.40625 L501.824219,60.7441406 L511.878906,75 L506.605469,75 L498.90625,63.9433594 Z M520.017578,66.84375 L518.119141,68.7949219 L518.119141,75 L513.847656,75 L513.847656,48 L518.119141,48 L518.119141,63.5742188 L519.455078,61.9042969 L524.710938,55.9804688 L529.84375,55.9804688 L522.777344,63.9082031 L530.599609,75 L525.660156,75 L520.017578,66.84375 Z M546.455078,71.4492188 L558.074219,71.4492188 L558.074219,75 L542.007812,75 L542.007812,49.40625 L546.455078,49.40625 L546.455078,71.4492188 Z M565.615234,75 L561.34375,75 L561.34375,48 L565.615234,48 L565.615234,75 Z M585.408203,49.40625 L592.791016,69.0234375 L600.15625,49.40625 L605.904297,49.40625 L605.904297,75 L601.474609,75 L601.474609,66.5625 L601.914062,55.2773438 L594.355469,75 L591.173828,75 L583.632812,55.2949219 L584.072266,66.5625 L584.072266,75 L579.642578,75 L579.642578,49.40625 L585.408203,49.40625 Z M614.763672,55.9804688 L614.886719,57.9667969 C616.222663,56.4081953 618.05077,55.6289062 620.371094,55.6289062 C622.914075,55.6289062 624.654292,56.6015528 625.591797,58.546875 C626.974616,56.6015528 628.919909,55.6289062 631.427734,55.6289062 C633.525401,55.6289062 635.086909,56.2089786 636.112305,57.3691406 C637.1377,58.5293027 637.662109,60.2402231 637.685547,62.5019531 L637.685547,75 L633.414062,75 L633.414062,62.625 C633.414062,61.4179627 633.150393,60.5332059 632.623047,59.9707031 C632.0957,59.4082003 631.222662,59.1269531 630.003906,59.1269531 C629.031245,59.1269531 628.237308,59.3876927 627.62207,59.9091797 C627.006833,60.4306667 626.576173,61.113277 626.330078,61.9570312 L626.347656,75 L622.076172,75 L622.076172,62.484375 C622.017578,60.2460826 620.875011,59.1269531 618.648438,59.1269531 C616.937491,59.1269531 615.724613,59.8242118 615.009766,61.21875 L615.009766,75 L610.738281,75 L610.738281,55.9804688 L614.763672,55.9804688 Z M671.751953,75 L667.304688,75 L655.896484,56.8417969 L655.896484,75 L651.449219,75 L651.449219,49.40625 L655.896484,49.40625 L667.339844,67.6347656 L667.339844,49.40625 L671.751953,49.40625 L671.751953,75 Z M680.558594,55.9804688 L680.681641,58.1777344 C682.087898,56.4785071 683.933582,55.6289062 686.21875,55.6289062 C690.179707,55.6289062 692.195312,57.8964617 692.265625,62.4316406 L692.265625,75 L687.994141,75 L687.994141,62.6777344 C687.994141,61.4706971 687.733401,60.5771513 687.211914,59.9970703 C686.690427,59.4169893 685.837897,59.1269531 684.654297,59.1269531 C682.931632,59.1269531 681.648442,59.9062422 680.804688,61.4648438 L680.804688,75 L676.533203,75 L676.533203,55.9804688 L680.558594,55.9804688 Z M726.419922,62.8710938 C726.419922,65.3789188 725.986332,67.5790921 725.119141,69.4716797 C724.251949,71.3642673 723.012703,72.8173777 721.401367,73.8310547 C719.790031,74.8447316 717.935557,75.3515625 715.837891,75.3515625 C713.763662,75.3515625 711.915047,74.8447316 710.291992,73.8310547 C708.668937,72.8173777 707.415043,71.3730563 706.530273,69.4980469 C705.645503,67.6230375 705.197266,65.4609497 705.185547,63.0117188 L705.185547,61.5703125 C705.185547,59.0742063 705.627925,56.8711033 706.512695,54.9609375 C707.397465,53.0507717 708.6455,51.5888723 710.256836,50.5751953 C711.868172,49.5615184 713.716786,49.0546875 715.802734,49.0546875 C717.888682,49.0546875 719.737297,49.5556591 721.348633,50.5576172 C722.959969,51.5595753 724.205074,53.0009672 725.083984,54.8818359 C725.962895,56.7627047 726.408203,58.9511594 726.419922,61.4472656 L726.419922,62.8710938 Z M721.972656,61.5351562 C721.972656,58.6992046 721.436529,56.5253982 720.364258,55.0136719 C719.291987,53.5019456 717.771494,52.7460938 715.802734,52.7460938 C713.88085,52.7460938 712.377935,53.4990159 711.293945,55.0048828 C710.209956,56.5107497 709.65625,58.6406112 709.632812,61.3945312 L709.632812,62.8710938 C709.632812,65.6836078 710.180659,67.8574142 711.276367,69.3925781 C712.372076,70.9277421 713.892568,71.6953125 715.837891,71.6953125 C717.80665,71.6953125 719.321284,70.94532 720.381836,69.4453125 C721.442388,67.945305 721.972656,65.7539207 721.972656,62.8710938 L721.972656,61.5351562 Z M729.636719,65.3144531 C729.636719,63.4511626 730.005856,61.7724684 730.744141,60.2783203 C731.482426,58.7841722 732.519525,57.6357462 733.855469,56.8330078 C735.191413,56.0302694 736.726554,55.6289062 738.460938,55.6289062 C741.027357,55.6289062 743.110344,56.4550699 744.709961,58.1074219 C746.309578,59.7597739 747.173827,61.9511582 747.302734,64.6816406 L747.320312,65.6835938 C747.320312,67.5586031 746.959965,69.2343676 746.239258,70.7109375 C745.518551,72.1875074 744.487311,73.3300741 743.145508,74.1386719 C741.803704,74.9472697 740.253915,75.3515625 738.496094,75.3515625 C735.812487,75.3515625 733.665047,74.4580167 732.053711,72.6708984 C730.442375,70.8837801 729.636719,68.501968 729.636719,65.5253906 L729.636719,65.3144531 Z M733.908203,65.6835938 C733.908203,67.6406348 734.312496,69.172846 735.121094,70.2802734 C735.929692,71.3877008 737.05468,71.9414062 738.496094,71.9414062 C739.937507,71.9414062 741.059566,71.3789119 741.862305,70.2539062 C742.665043,69.1289006 743.066406,67.4824327 743.066406,65.3144531 C743.066406,63.3925685 742.653324,61.8691463 741.827148,60.7441406 C741.000972,59.619135 739.878913,59.0566406 738.460938,59.0566406 C737.066399,59.0566406 735.958988,59.610346 735.138672,60.7177734 C734.318355,61.8252008 733.908203,63.4804577 733.908203,65.6835938 Z M764.757812,65.4902344 L764.757812,75 L760.310547,75 L760.310547,49.40625 L770.101562,49.40625 C772.960952,49.40625 775.231437,50.1503832 776.913086,51.6386719 C778.594735,53.1269606 779.435547,55.0956909 779.435547,57.5449219 C779.435547,60.0527469 778.612313,62.0038993 776.96582,63.3984375 C775.319328,64.7929757 773.013687,65.4902344 770.048828,65.4902344 L764.757812,65.4902344 Z M764.757812,61.921875 L770.101562,61.921875 C771.683602,61.921875 772.890621,61.5498084 773.722656,60.8056641 C774.554692,60.0615197 774.970703,58.9863352 774.970703,57.5800781 C774.970703,56.1972587 774.548832,55.0927776 773.705078,54.2666016 C772.861324,53.4404256 771.701179,53.0156251 770.224609,52.9921875 L764.757812,52.9921875 L764.757812,61.921875 Z M799.5625,65.6835938 C799.5625,68.6250147 798.894538,70.9716709 797.558594,72.7236328 C796.22265,74.4755947 794.429699,75.3515625 792.179688,75.3515625 C790.09374,75.3515625 788.423834,74.6660225 787.169922,73.2949219 L787.169922,82.3125 L782.898438,82.3125 L782.898438,55.9804688 L786.835938,55.9804688 L787.011719,57.9140625 C788.265631,56.3906174 789.970692,55.6289062 792.126953,55.6289062 C794.447277,55.6289062 796.266595,56.4931554 797.584961,58.2216797 C798.903327,59.950204 799.5625,62.349594 799.5625,65.4199219 L799.5625,65.6835938 Z M795.308594,65.3144531 C795.308594,63.4160061 794.930668,61.9101618 794.174805,60.796875 C793.418942,59.6835882 792.337898,59.1269531 790.931641,59.1269531 C789.185538,59.1269531 787.931644,59.847649 787.169922,61.2890625 L787.169922,69.7265625 C787.943363,71.2031324 789.208976,71.9414062 790.966797,71.9414062 C792.326179,71.9414062 793.389645,71.3935602 794.157227,70.2978516 C794.924809,69.202143 795.308594,67.5410268 795.308594,65.3144531 Z M832.890625,62.8710938 C832.890625,65.2968871 832.50684,67.3974521 831.739258,69.1728516 C830.971676,70.9482511 829.896491,72.3574167 828.513672,73.4003906 L832.908203,76.828125 L830.025391,79.4296875 L824.576172,75.1230469 C823.861325,75.2753914 823.093754,75.3515625 822.273438,75.3515625 C820.210927,75.3515625 818.368172,74.8447316 816.745117,73.8310547 C815.122062,72.8173777 813.868168,71.3730563 812.983398,69.4980469 C812.098628,67.6230375 811.650391,65.4609497 811.638672,63.0117188 L811.638672,61.5703125 C811.638672,59.0742063 812.08105,56.8711033 812.96582,54.9609375 C813.85059,53.0507717 815.098625,51.5888723 816.709961,50.5751953 C818.321297,49.5615184 820.164052,49.0546875 822.238281,49.0546875 C824.347667,49.0546875 826.208,49.5556591 827.819336,50.5576172 C829.430672,51.5595753 830.675777,53.0009672 831.554688,54.8818359 C832.433598,56.7627047 832.878906,58.9511594 832.890625,61.4472656 L832.890625,62.8710938 Z M828.425781,61.5351562 C828.425781,58.6523293 827.886724,56.4668043 826.808594,54.9785156 C825.730463,53.4902269 824.207041,52.7460938 822.238281,52.7460938 C820.328115,52.7460938 818.83106,53.4990159 817.74707,55.0048828 C816.663081,56.5107497 816.109375,58.6347519 816.085938,61.3769531 L816.085938,62.8710938 C816.085938,65.6367326 816.627924,67.7988203 817.711914,69.3574219 C818.795904,70.9160234 820.316396,71.6953125 822.273438,71.6953125 C824.253916,71.6953125 825.774409,70.94532 826.834961,69.4453125 C827.895513,67.945305 828.425781,65.7539207 828.425781,62.8710938 L828.425781,61.5351562 Z M836.195312,65.3320312 C836.195312,62.3554539 836.874993,59.9941494 838.234375,58.2480469 C839.593757,56.5019444 841.433582,55.6289062 843.753906,55.6289062 C845.875011,55.6289062 847.556634,56.3730394 848.798828,57.8613281 L849.044922,55.9804688 L852.841797,55.9804688 L852.841797,82.3125 L848.570312,82.3125 L848.570312,73.3828125 C847.328119,74.6953191 845.710947,75.3515625 843.71875,75.3515625 C841.445301,75.3515625 839.623054,74.4638761 838.251953,72.6884766 C836.880853,70.9130771 836.195312,68.4609531 836.195312,65.3320312 Z M840.466797,65.7011719 C840.466797,67.6464941 840.850582,69.172846 841.618164,70.2802734 C842.385746,71.3877008 843.449212,71.9414062 844.808594,71.9414062 C846.496102,71.9414062 847.749996,71.2207103 848.570312,69.7792969 L848.570312,61.1308594 C847.749996,59.74804 846.507821,59.0566406 844.84375,59.0566406 C843.484368,59.0566406 842.415043,59.6015571 841.635742,60.6914062 C840.856441,61.7812554 840.466797,63.4511606 840.466797,65.7011719 Z M876.220703,65.1386719 L871.263672,65.1386719 L871.263672,75 L866.816406,75 L866.816406,49.40625 L875.816406,49.40625 C878.769546,49.40625 881.04882,50.0683528 882.654297,51.3925781 C884.259774,52.7168035 885.0625,54.6328 885.0625,57.140625 C885.0625,58.8515711 884.649418,60.2841739 883.823242,61.4384766 C882.997066,62.5927792 881.845711,63.4804656 880.369141,64.1015625 L886.117188,74.7714844 L886.117188,75 L881.353516,75 L876.220703,65.1386719 Z M871.263672,61.5703125 L875.833984,61.5703125 C877.333992,61.5703125 878.505855,61.1923866 879.349609,60.4365234 C880.193364,59.6806603 880.615234,58.6464909 880.615234,57.3339844 C880.615234,55.9628838 880.22559,54.9023475 879.446289,54.1523438 C878.666988,53.40234 877.503914,53.0156251 875.957031,52.9921875 L871.263672,52.9921875 L871.263672,61.5703125 Z M898.826172,59.8828125 C898.263669,59.789062 897.683597,59.7421875 897.085938,59.7421875 C895.128896,59.7421875 893.81055,60.49218 893.130859,61.9921875 L893.130859,75 L888.859375,75 L888.859375,55.9804688 L892.9375,55.9804688 L893.042969,58.1074219 C894.074224,56.4550699 895.503897,55.6289062 897.332031,55.6289062 C897.941409,55.6289062 898.445311,55.7109367 898.84375,55.875 L898.826172,59.8828125 Z M924.279297,68.4082031 C924.279297,67.2831975 923.883793,66.4160187 923.092773,65.8066406 C922.301754,65.1972626 920.87501,64.5820344 918.8125,63.9609375 C916.74999,63.3398406 915.109381,62.6484413 913.890625,61.8867188 C911.558582,60.4218677 910.392578,58.5117305 910.392578,56.15625 C910.392578,54.0937397 911.23339,52.3945379 912.915039,51.0585938 C914.596688,49.7226496 916.779283,49.0546875 919.462891,49.0546875 C921.24415,49.0546875 922.832024,49.3828092 924.226562,50.0390625 C925.621101,50.6953158 926.716793,51.6298767 927.513672,52.8427734 C928.310551,54.0556701 928.708984,55.4003832 928.708984,56.8769531 L924.279297,56.8769531 C924.279297,55.5410089 923.860356,54.495121 923.022461,53.7392578 C922.184566,52.9833947 920.986336,52.6054688 919.427734,52.6054688 C917.974602,52.6054688 916.846684,52.9160125 916.043945,53.5371094 C915.241207,54.1582062 914.839844,55.0253851 914.839844,56.1386719 C914.839844,57.0761766 915.273433,57.8583953 916.140625,58.4853516 C917.007817,59.1123078 918.43749,59.7216767 920.429688,60.3134766 C922.421885,60.9052764 924.021478,61.5790978 925.228516,62.3349609 C926.435553,63.0908241 927.32031,63.9580029 927.882812,64.9365234 C928.445315,65.915044 928.726562,67.0605403 928.726562,68.3730469 C928.726562,70.50587 927.909188,72.2021421 926.274414,73.4619141 C924.63964,74.721686 922.421889,75.3515625 919.621094,75.3515625 C917.769522,75.3515625 916.067391,75.0087925 914.514648,74.3232422 C912.961906,73.6376919 911.754887,72.6914123 910.893555,71.484375 C910.032222,70.2773377 909.601562,68.8711018 909.601562,67.265625 L914.048828,67.265625 C914.048828,68.7187573 914.529292,69.843746 915.490234,70.640625 C916.451177,71.437504 917.828116,71.8359375 919.621094,71.8359375 C921.167976,71.8359375 922.331051,71.5224641 923.110352,70.8955078 C923.889652,70.2685516 924.279297,69.4394583 924.279297,68.4082031 Z M942.876953,69.8320312 C942.876953,69.0703087 942.56348,68.4902364 941.936523,68.0917969 C941.309567,67.6933574 940.269539,67.3417984 938.816406,67.0371094 C937.363274,66.7324204 936.150395,66.3457055 935.177734,65.8769531 C933.044911,64.845698 931.978516,63.3515723 931.978516,61.3945312 C931.978516,59.753898 932.669915,58.382818 934.052734,57.28125 C935.435554,56.179682 937.193349,55.6289062 939.326172,55.6289062 C941.599621,55.6289062 943.436516,56.1914006 944.836914,57.3164062 C946.237312,58.4414119 946.9375,59.9003817 946.9375,61.6933594 L942.666016,61.6933594 C942.666016,60.8730428 942.361331,60.1904324 941.751953,59.6455078 C941.142575,59.1005832 940.333989,58.828125 939.326172,58.828125 C938.388667,58.828125 937.624026,59.0449197 937.032227,59.4785156 C936.440427,59.9121115 936.144531,60.4921839 936.144531,61.21875 C936.144531,61.8750033 936.419919,62.3847638 936.970703,62.7480469 C937.521487,63.1113299 938.634757,63.4775372 940.310547,63.8466797 C941.986337,64.2158222 943.301753,64.6552709 944.256836,65.1650391 C945.211919,65.6748072 945.920896,66.2871058 946.383789,67.0019531 C946.846682,67.7168004 947.078125,68.5839793 947.078125,69.6035156 C947.078125,71.3144617 946.369148,72.70019 944.951172,73.7607422 C943.533196,74.8212944 941.675793,75.3515625 939.378906,75.3515625 C937.820305,75.3515625 936.431647,75.0703153 935.212891,74.5078125 C933.994135,73.9453097 933.044925,73.1718799 932.365234,72.1875 C931.685543,71.2031201 931.345703,70.1425838 931.345703,69.0058594 L935.494141,69.0058594 C935.552735,70.0136769 935.93359,70.7900363 936.636719,71.3349609 C937.339847,71.8798855 938.271479,72.1523438 939.431641,72.1523438 C940.556646,72.1523438 941.412106,71.9384787 941.998047,71.5107422 C942.583987,71.0830057 942.876953,70.523441 942.876953,69.8320312 Z M977.611328,52.9921875 L969.630859,52.9921875 L969.630859,75 L965.21875,75 L965.21875,52.9921875 L957.308594,52.9921875 L957.308594,49.40625 L977.611328,49.40625 L977.611328,52.9921875 Z M985.908203,51.3574219 L985.908203,55.9804688 L989.265625,55.9804688 L989.265625,59.1445312 L985.908203,59.1445312 L985.908203,69.7617188 C985.908203,70.4882849 986.051756,71.0126937 986.338867,71.3349609 C986.625978,71.6572282 987.138668,71.8183594 987.876953,71.8183594 C988.369143,71.8183594 988.867185,71.7597662 989.371094,71.6425781 L989.371094,74.9472656 C988.398433,75.2167982 987.460942,75.3515625 986.558594,75.3515625 C983.277327,75.3515625 981.636719,73.5410337 981.636719,69.9199219 L981.636719,59.1445312 L978.507812,59.1445312 L978.507812,55.9804688 L981.636719,55.9804688 L981.636719,51.3574219 L985.908203,51.3574219 Z M1020.625,49.40625 L1020.625,66.5097656 C1020.625,69.2285292 1019.75489,71.381828 1018.01465,72.9697266 C1016.27441,74.5576251 1013.95705,75.3515625 1011.0625,75.3515625 C1008.1328,75.3515625 1005.80665,74.5693438 1004.08398,73.0048828 C1002.36132,71.4404219 1001.5,69.2695451 1001.5,66.4921875 L1001.5,49.40625 L1005.92969,49.40625 L1005.92969,66.5273438 C1005.92969,68.2382898 1006.36328,69.5449174 1007.23047,70.4472656 C1008.09766,71.3496139 1009.37499,71.8007812 1011.0625,71.8007812 C1014.48439,71.8007812 1016.19531,69.9961118 1016.19531,66.3867188 L1016.19531,49.40625 L1020.625,49.40625 Z M1036.48047,73.1367188 C1035.22656,74.6132886 1033.44532,75.3515625 1031.13672,75.3515625 C1029.07421,75.3515625 1027.5127,74.7480529 1026.45215,73.5410156 C1025.3916,72.3339783 1024.86133,70.5879021 1024.86133,68.3027344 L1024.86133,55.9804688 L1029.13281,55.9804688 L1029.13281,68.25 C1029.13281,70.6640746 1030.13476,71.8710938 1032.13867,71.8710938 C1034.2129,71.8710938 1035.61328,71.1269606 1036.33984,69.6386719 L1036.33984,55.9804688 L1040.61133,55.9804688 L1040.61133,75 L1036.58594,75 L1036.48047,73.1367188 Z M1063.35742,69.4277344 L1069.86133,49.40625 L1074.74805,49.40625 L1065.53711,75 L1061.23047,75 L1052.05469,49.40625 L1056.92383,49.40625 L1063.35742,69.4277344 Z M1083.73047,69.5859375 L1087.75586,55.9804688 L1092.16797,55.9804688 L1085.57617,75 L1081.86719,75 L1075.22266,55.9804688 L1079.65234,55.9804688 L1083.73047,69.5859375 Z M1124.2832,68.671875 L1128.2207,49.40625 L1132.63281,49.40625 L1126.72656,75 L1122.47266,75 L1117.60352,56.3144531 L1112.62891,75 L1108.35742,75 L1102.45117,49.40625 L1106.86328,49.40625 L1110.83594,68.6367188 L1115.72266,49.40625 L1119.44922,49.40625 L1124.2832,68.671875 Z M1152.17969,69.1113281 L1155.20312,55.9804688 L1159.36914,55.9804688 L1154.18359,75 L1150.66797,75 L1146.58984,61.9394531 L1142.58203,75 L1139.06641,75 L1133.86328,55.9804688 L1138.0293,55.9804688 L1141.10547,68.9707031 L1145.00781,55.9804688 L1148.22461,55.9804688 L1152.17969,69.1113281 Z M1180.41016,58.6523438 L1185.78906,49.40625 L1190.92188,49.40625 L1183.1875,62.0976562 L1191.09766,75 L1185.91211,75 L1180.41016,65.6132812 L1174.89062,75 L1169.72266,75 L1177.65039,62.0976562 L1169.89844,49.40625 L1175.03125,49.40625 L1180.41016,58.6523438 Z M1200.80078,62.2382812 L1204.42188,55.9804688 L1209.16797,55.9804688 L1203.34961,65.3496094 L1209.36133,75 L1204.65039,75 L1200.85352,68.4960938 L1197.07422,75 L1192.32812,75 L1198.33984,65.3496094 L1192.53906,55.9804688 L1197.25,55.9804688 L1200.80078,62.2382812 Z M1229.80469,61.5351562 L1235.69336,49.40625 L1240.61523,49.40625 L1232.03711,65.578125 L1232.03711,75 L1227.57227,75 L1227.57227,65.578125 L1218.97656,49.40625 L1223.91602,49.40625 L1229.80469,61.5351562 Z M1249.28125,68.8828125 L1253.14844,55.9804688 L1257.70117,55.9804688 L1250.14258,77.8828125 C1248.98242,81.0820472 1247.01369,82.6816406 1244.23633,82.6816406 C1243.61523,82.6816406 1242.92969,82.5761729 1242.17969,82.3652344 L1242.17969,79.0605469 L1242.98828,79.1132812 C1244.06641,79.1132812 1244.87793,78.9169942 1245.42285,78.5244141 C1245.96778,78.131834 1246.39844,77.4726609 1246.71484,76.546875 L1247.33008,74.9121094 L1240.65039,55.9804688 L1245.25586,55.9804688 L1249.28125,68.8828125 Z M1273.71484,71.4492188 L1287.39062,71.4492188 L1287.39062,75 L1268.33594,75 L1268.33594,72.1171875 L1281.57227,52.9921875 L1268.42383,52.9921875 L1268.42383,49.40625 L1286.96875,49.40625 L1286.96875,52.21875 L1273.71484,71.4492188 Z M1295.35352,71.5898438 L1305.47852,71.5898438 L1305.47852,75 L1290.04492,75 L1290.04492,72.2050781 L1299.69531,59.4257812 L1290.2207,59.4257812 L1290.2207,55.9804688 L1305.10938,55.9804688 L1305.10938,58.6875 L1295.35352,71.5898438 Z"/>
    <rect width="128" height="128" x="512" fill="url(#typeface-roboto-a)"/>
  </g>
</svg>
