<svg xmlns="http://www.w3.org/2000/svg" width="367" height="414" style="background:#fff" viewBox="0 0 367 414">
  <g fill="none" fill-rule="evenodd">
    <g transform="translate(64 38)">
      <path fill="#0C0C0D" d="M73.3041992 218.855957L73.3041992 222.359863 75.5576172 222.359863C76.1458363 222.359863 76.5996892 222.208579 76.9191895 221.906006 77.2386897 221.603433 77.3984375 221.170738 77.3984375 220.60791 77.3984375 220.057777 77.2312842 219.628257 76.8969727 219.319336 76.5626611 219.010415 76.0992868 218.855957 75.5068359 218.855957L73.3041992 218.855957zM73.3041992 223.375488L73.3041992 227 72.1616211 227 72.1616211 217.840332 75.6591797 217.840332C76.5436242 217.840332 77.2513808 218.088946 77.7824707 218.586182 78.3135606 219.083417 78.5791016 219.744625 78.5791016 220.569824 78.5791016 221.208825 78.41618 221.761065 78.090332 222.226562 77.764484 222.69206 77.313805 223.015787 76.7382812 223.197754L78.8583984 227 77.519043 227 75.5576172 223.375488 73.3041992 223.375488zM82.9780273 221.001465C82.4321262 221.001465 81.983563 221.185545 81.6323242 221.553711 81.2810855 221.921877 81.0843101 222.408526 81.0419922 223.013672L84.8125 223.013672C84.7998046 222.408526 84.6263038 221.921877 84.2919922 221.553711 83.9576806 221.185545 83.5196967 221.001465 82.9780273 221.001465zM84.7807617 225.229004L85.8725586 225.229004C85.7075187 225.817223 85.3732122 226.279539 84.8696289 226.615967 84.3660457 226.952394 83.7397498 227.120605 82.9907227 227.120605 82.0428012 227.120605 81.2916694 226.802168 80.7373047 226.165283 80.1829399 225.528399 79.9057617 224.6683 79.9057617 223.584961 79.9057617 222.510086 80.1850558 221.649987 80.7436523 221.004639 81.3022489 220.35929 82.0512648 220.036621 82.9907227 220.036621 83.9132533 220.036621 84.6389948 220.344479 85.1679688 220.960205 85.6969427 221.575931 85.9614258 222.414871 85.9614258 223.477051L85.9614258 223.895996 81.0419922 223.895996 81.0419922 223.946777C81.0716147 224.623864 81.2631004 225.161294 81.6164551 225.559082 81.9698097 225.95687 82.4363578 226.155762 83.0161133 226.155762 83.4562196 226.155762 83.82438 226.076417 84.1206055 225.917725 84.4168309 225.759032 84.6368808 225.529461 84.7807617 225.229004zM90.3666992 225.933594C91.001468 225.933594 91.4986961 225.71037 91.8583984 225.263916 92.2181008 224.817462 92.3979492 224.221846 92.3979492 223.477051 92.3979492 222.732255 92.2170428 222.13664 91.8552246 221.690186 91.4934064 221.243731 90.9972362 221.020508 90.3666992 221.020508 89.7319304 221.020508 89.2431658 221.243731 88.9003906 221.690186 88.5576155 222.13664 88.3862305 222.732255 88.3862305 223.477051 88.3862305 224.221846 88.5576155 224.817462 88.9003906 225.263916 89.2431658 225.71037 89.7319304 225.933594 90.3666992 225.933594zM90.4174805 229.62793C89.592281 229.62793 88.9289576 229.457603 88.4274902 229.116943 87.9260229 228.776284 87.6329757 228.322431 87.5483398 227.755371L88.7036133 227.755371C88.7628584 228.034669 88.940591 228.257893 89.2368164 228.425049 89.5330418 228.592205 89.9265926 228.675781 90.4174805 228.675781 91.0310903 228.675781 91.5103336 228.53296 91.8552246 228.247314 92.2001157 227.961668 92.3725586 227.56706 92.3725586 227.063477L92.3725586 225.717773 92.2709961 225.717773C92.0551747 226.094403 91.7610696 226.385334 91.3886719 226.590576 91.0162742 226.795818 90.5952172 226.898438 90.1254883 226.898438 89.2410438 226.898438 88.5417506 226.584232 88.0275879 225.955811 87.5134252 225.327389 87.2563477 224.501144 87.2563477 223.477051 87.2563477 222.452957 87.5144831 221.623538 88.0307617 220.98877 88.5470403 220.354001 89.2452755 220.036621 90.1254883 220.036621 90.6036808 220.036621 91.0406067 220.145588 91.4362793 220.363525 91.8319518 220.581463 92.1271149 220.87451 92.3217773 221.242676L92.4233398 221.242676 92.4233398 220.157227 93.4643555 220.157227 93.4643555 227.120605C93.4643555 227.88656 93.190351 228.495929 92.642334 228.94873 92.0943169 229.401532 91.3527065 229.62793 90.4174805 229.62793zM100.97998 220.157227L99.8881836 220.157227 99.8881836 224.207031C99.8881836 224.807946 99.7284358 225.277668 99.4089355 225.616211 99.0894353 225.954754 98.6271189 226.124023 98.0219727 226.124023 97.4760715 226.124023 97.0814628 225.976971 96.8381348 225.682861 96.5948067 225.388752 96.4731445 224.934899 96.4731445 224.321289L96.4731445 220.157227 95.3813477 220.157227 95.3813477 224.587891C95.3813477 225.396163 95.579181 226.020343 95.9748535 226.460449 96.3705261 226.900556 96.9513308 227.120605 97.7172852 227.120605 98.2420274 227.120605 98.684243 227.016928 99.0439453 226.80957 99.4036476 226.602213 99.6681307 226.308107 99.8374023 225.927246L99.9389648 225.927246 99.9389648 227 100.97998 227 100.97998 220.157227zM103.023926 227L104.115723 227 104.115723 217.44043 103.023926 217.44043 103.023926 227zM108.26709 226.162109C108.829918 226.162109 109.296466 225.99813 109.666748 225.670166 110.03703 225.342202 110.222168 224.934898 110.222168 224.448242L110.222168 223.819824 108.381348 223.94043C107.382645 224.008138 106.883301 224.38053 106.883301 225.057617 106.883301 225.404624 107.014484 225.675455 107.276855 225.870117 107.539227 226.06478 107.869301 226.162109 108.26709 226.162109zM108.063965 227.120605C107.399574 227.120605 106.848391 226.937583 106.4104 226.571533 105.97241 226.205483 105.753418 225.709313 105.753418 225.083008 105.753418 223.830397 106.584953 223.155437 108.248047 223.058105L110.222168 222.9375 110.222168 222.31543C110.222168 221.443681 109.705897 221.007812 108.67334 221.007812 108.262856 221.007812 107.922202 221.081868 107.651367 221.22998 107.380533 221.378093 107.207032 221.587564 107.130859 221.858398L106.026367 221.858398C106.098308 221.308265 106.381833 220.867108 106.876953 220.534912 107.372073 220.202716 107.983558 220.036621 108.711426 220.036621 109.545089 220.036621 110.187254 220.238686 110.637939 220.642822 111.088625 221.046958 111.313965 221.604489 111.313965 222.31543L111.313965 227 110.272949 227 110.272949 225.990723 110.171387 225.990723C109.951334 226.354657 109.659344 226.633951 109.29541 226.828613 108.931476 227.023276 108.520998 227.120605 108.063965 227.120605zM113.256348 227L114.348145 227 114.348145 222.759766C114.348145 222.277341 114.517414 221.879559 114.855957 221.566406 115.1945 221.253254 115.624021 221.09668 116.144531 221.09668 116.254558 221.09668 116.387857 221.104085 116.544434 221.118896 116.70101 221.133708 116.800456 221.147461 116.842773 221.160156L116.842773 220.068359C116.775065 220.059896 116.689372 220.05249 116.585693 220.046143 116.482014 220.039795 116.385743 220.036621 116.296875 220.036621 115.844073 220.036621 115.439943 220.142414 115.084473 220.354004 114.729002 220.565594 114.500489 220.83854 114.398926 221.172852L114.297363 221.172852 114.297363 220.157227 113.256348 220.157227 113.256348 227zM123.907715 227L125.050293 227 125.050293 217.840332 123.914062 217.840332 123.545898 218.10376C123.300455 218.279379 123.016929 218.48356 122.695312 218.716309 122.373696 218.949057 122.09017 219.153238 121.844727 219.328857L121.476562 219.592285 121.476562 220.79834 121.828857 220.544434C122.063722 220.375162 122.334553 220.178387 122.641357 219.954102 122.948162 219.729817 123.218993 219.533041 123.453857 219.36377L123.806152 219.109863 123.907715 219.109863 123.907715 227zM129.576172 222.778809L130.737793 222.778809C131.389489 222.778809 131.903644 222.933267 132.280273 223.242188 132.656903 223.551108 132.845215 223.970049 132.845215 224.499023 132.845215 224.998375 132.652671 225.40991 132.267578 225.733643 131.882485 226.057375 131.387373 226.219238 130.782227 226.219238 130.194007 226.219238 129.708417 226.073244 129.325439 225.78125 128.942462 225.489256 128.725586 225.099937 128.674805 224.613281L127.570312 224.613281C127.61263 225.396163 127.927894 226.025632 128.516113 226.501709 129.104332 226.977786 129.863928 227.21582 130.794922 227.21582 131.700525 227.21582 132.464352 226.956627 133.086426 226.438232 133.708499 225.919838 134.019531 225.284021 134.019531 224.530762 134.019531 223.904457 133.841799 223.389244 133.486328 222.985107 133.130858 222.580971 132.642093 222.338705 132.02002 222.258301L132.02002 222.156738C132.523603 222.034016 132.917154 221.784344 133.200684 221.407715 133.484214 221.031085 133.625977 220.569827 133.625977 220.023926 133.625977 219.355303 133.346682 218.788251 132.788086 218.322754 132.229489 217.857257 131.550297 217.624512 130.750488 217.624512 129.878739 217.624512 129.176272 217.853025 128.643066 218.310059 128.109861 218.767092 127.81364 219.393388 127.754395 220.188965L128.865234 220.188965C128.911784 219.698077 129.099038 219.314048 129.427002 219.036865 129.754966 218.759683 130.181312 218.621094 130.706055 218.621094 131.235029 218.621094 131.660317 218.763915 131.981934 219.049561 132.30355 219.335207 132.464355 219.710772 132.464355 220.17627 132.464355 220.65023 132.29826 221.039549 131.966064 221.344238 131.633869 221.648927 131.207522 221.80127 130.687012 221.80127L129.576172 221.80127 129.576172 222.778809zM139.116699 220.036621C139.988448 220.036621 140.685626 220.358232 141.208252 221.001465 141.730878 221.644697 141.992188 222.503738 141.992188 223.578613 141.992188 224.649257 141.730878 225.50724 141.208252 226.152588 140.685626 226.797936 139.988448 227.120605 139.116699 227.120605 138.630043 227.120605 138.198407 227.019044 137.821777 226.815918 137.445148 226.612792 137.163738 226.331382 136.977539 225.97168L136.875977 225.97168 136.875977 229.285156 135.78418 229.285156 135.78418 220.157227 136.825195 220.157227 136.825195 221.299805 136.926758 221.299805C137.146811 220.906248 137.450438 220.597332 137.837646 220.373047 138.224855 220.148762 138.651202 220.036621 139.116699 220.036621zM138.856445 226.136719C139.486982 226.136719 139.978921 225.910321 140.332275 225.45752 140.68563 225.004718 140.862305 224.378422 140.862305 223.578613 140.862305 222.778805 140.68563 222.152509 140.332275 221.699707 139.978921 221.246905 139.489098 221.020508 138.862793 221.020508 138.244951 221.020508 137.754071 221.250079 137.390137 221.709229 137.026203 222.168378 136.844238 222.7915 136.844238 223.578613 136.844238 224.361495 137.026203 224.983559 137.390137 225.444824 137.754071 225.90609 138.242835 226.136719 138.856445 226.136719zM145.737305 224.416504L147.355957 227 148.650879 227 146.295898 223.53418 148.619141 220.157227 147.381348 220.157227 145.775391 222.702637 145.673828 222.702637 144.048828 220.157227 142.747559 220.157227 145.115234 223.578613 142.772949 227 144.010742 227 145.635742 224.416504 145.737305 224.416504zM84.3227539 116L84.3227539 104.021973 82.5878906 104.021973 78.4873047 113.933105 78.3544922 113.933105 74.2539062 104.021973 72.519043 104.021973 72.519043 116 73.9135742 116 73.9135742 106.852539 74.0131836 106.852539 77.7900391 115.916992 79.0517578 115.916992 82.8286133 106.852539 82.9282227 106.852539 82.9282227 116 84.3227539 116zM90.3740234 108.155762C89.6601527 108.155762 89.07357 108.396482 88.6142578 108.87793 88.1549456 109.359377 87.897624 109.995764 87.8422852 110.787109L92.7729492 110.787109C92.7563476 109.995764 92.5294618 109.359377 92.0922852 108.87793 91.6551085 108.396482 91.0823603 108.155762 90.3740234 108.155762zM92.7314453 113.684082L94.1591797 113.684082C93.9433583 114.453292 93.5061882 115.057859 92.8476562 115.497803 92.1891243 115.937746 91.3701221 116.157715 90.390625 116.157715 89.1510355 116.157715 88.1687862 115.741296 87.4438477 114.908447 86.7189091 114.075598 86.3564453 112.950853 86.3564453 111.53418 86.3564453 110.128574 86.721676 109.003829 87.4521484 108.159912 88.1826208 107.315995 89.1621032 106.894043 90.390625 106.894043 91.5970112 106.894043 92.5460577 107.296627 93.237793 108.101807 93.9295282 108.906986 94.2753906 110.004062 94.2753906 111.393066L94.2753906 111.940918 87.8422852 111.940918 87.8422852 112.007324C87.8810223 112.892745 88.1314267 113.595538 88.5935059 114.115723 89.055585 114.635908 89.6656863 114.895996 90.4238281 114.895996 90.9993518 114.895996 91.4807923 114.792237 91.8681641 114.584717 92.2555358 114.377196 92.5432933 114.076988 92.7314453 113.684082zM99.4384766 116.157715C98.292963 116.157715 97.3798862 115.737146 96.6992188 114.895996 96.0185513 114.054846 95.6782227 112.931485 95.6782227 111.525879 95.6782227 110.120273 96.0213182 108.996912 96.7075195 108.155762 97.3937209 107.314612 98.3040308 106.894043 99.4384766 106.894043 100.063805 106.894043 100.624102 107.032388 101.119385 107.309082 101.614667 107.585776 101.989582 107.970375 102.244141 108.462891L102.368652 108.462891 102.368652 103.499023 103.796387 103.499023 103.796387 116 102.435059 116 102.435059 114.572266 102.302246 114.572266C102.020018 115.070315 101.627118 115.459064 101.123535 115.738525 100.619952 116.017986 100.058271 116.157715 99.4384766 116.157715zM99.7705078 108.180664C98.9570272 108.180664 98.3178734 108.478106 97.8530273 109.072998 97.3881813 109.66789 97.1557617 110.485509 97.1557617 111.525879 97.1557617 112.571783 97.3867978 113.390785 97.848877 113.98291 98.3109561 114.575036 98.9514933 114.871094 99.7705078 114.871094 100.583988 114.871094 101.225909 114.572269 101.696289 113.974609 102.166669 113.37695 102.401855 112.560715 102.401855 111.525879 102.401855 110.502111 102.165286 109.688642 101.692139 109.085449 101.218992 108.482256 100.578455 108.180664 99.7705078 108.180664zM106.211914 116L107.639648 116 107.639648 107.051758 106.211914 107.051758 106.211914 116zM106.925781 105.233887C107.202475 105.233887 107.437662 105.135662 107.631348 104.939209 107.825034 104.742756 107.921875 104.508953 107.921875 104.237793 107.921875 103.961099 107.825034 103.725912 107.631348 103.532227 107.437662 103.338541 107.202475 103.241699 106.925781 103.241699 106.654621 103.241699 106.420818 103.338541 106.224365 103.532227 106.027912 103.725912 105.929688 103.961099 105.929688 104.237793 105.929688 104.508953 106.027912 104.742756 106.224365 104.939209 106.420818 105.135662 106.654621 105.233887 106.925781 105.233887zM117.210449 107.051758L115.782715 107.051758 115.782715 112.347656C115.782715 113.133467 115.573814 113.747719 115.156006 114.19043 114.738198 114.63314 114.13363 114.854492 113.342285 114.854492 112.628414 114.854492 112.112388 114.662193 111.794189 114.277588 111.475991 113.892983 111.316895 113.299483 111.316895 112.49707L111.316895 107.051758 109.88916 107.051758 109.88916 112.845703C109.88916 113.902675 110.147865 114.71891 110.665283 115.294434 111.182701 115.869957 111.942215 116.157715 112.943848 116.157715 113.630049 116.157715 114.208331 116.022137 114.678711 115.750977 115.149091 115.479816 115.494953 115.095217 115.716309 114.597168L115.849121 114.597168 115.849121 116 117.210449 116 117.210449 107.051758zM119.509766 116L120.9375 116 120.9375 110.455078C120.9375 109.824216 121.136717 109.287437 121.535156 108.844727 121.933596 108.402016 122.426104 108.180664 123.012695 108.180664 123.577151 108.180664 124.029539 108.338377 124.369873 108.653809 124.710207 108.96924 124.880371 109.392575 124.880371 109.923828L124.880371 116 126.308105 116 126.308105 110.247559C126.308105 109.677569 126.499022 109.190594 126.880859 108.786621 127.262697 108.382648 127.763506 108.180664 128.383301 108.180664 129.014163 108.180664 129.48592 108.343911 129.798584 108.67041 130.111248 108.996909 130.267578 109.489417 130.267578 110.147949L130.267578 116 131.695312 116 131.695312 109.815918C131.695312 108.875158 131.449058 108.152997 130.956543 107.649414 130.464027 107.145831 129.761235 106.894043 128.848145 106.894043 128.22835 106.894043 127.677737 107.036538 127.196289 107.321533 126.714841 107.606528 126.352378 107.986977 126.108887 108.462891L125.976074 108.462891C125.771321 107.998045 125.460044 107.620363 125.042236 107.329834 124.624428 107.039305 124.111168 106.894043 123.502441 106.894043 122.904782 106.894043 122.390139 107.031004 121.958496 107.304932 121.526853 107.578859 121.20866 107.964841 121.003906 108.462891L120.871094 108.462891 120.871094 107.051758 119.509766 107.051758 119.509766 116zM141.174805 116L142.668945 116 142.668945 104.021973 141.183105 104.021973 140.70166 104.366455C140.380695 104.596111 140.00993 104.863117 139.589355 105.16748 139.16878 105.471844 138.798016 105.73885 138.477051 105.968506L137.995605 106.312988 137.995605 107.890137 138.456299 107.558105C138.763429 107.33675 139.117592 107.079429 139.518799 106.786133 139.920005 106.492837 140.274168 106.235515 140.581299 106.01416L141.041992 105.682129 141.174805 105.682129 141.174805 116zM146.346191 116L147.915039 116 153.244141 105.408203 153.244141 104.021973 145.316895 104.021973 145.316895 105.358398 151.725098 105.358398 151.725098 105.474609 151.334961 106.234131C151.074868 106.740481 150.741457 107.393469 150.334717 108.193115 149.927976 108.992761 149.494957 109.840816 149.035645 110.737305 148.576332 111.633794 148.143313 112.481848 147.736572 113.281494 147.329832 114.08114 146.996421 114.734128 146.736328 115.240479L146.346191 116zM159.51123 106.894043C160.65121 106.894043 161.562903 107.314612 162.246338 108.155762 162.929772 108.996912 163.271484 110.120273 163.271484 111.525879 163.271484 112.925951 162.929772 114.047929 162.246338 114.891846 161.562903 115.735763 160.65121 116.157715 159.51123 116.157715 158.874834 116.157715 158.310387 116.024904 157.817871 115.759277 157.325356 115.493651 156.957358 115.125653 156.713867 114.655273L156.581055 114.655273 156.581055 118.988281 155.15332 118.988281 155.15332 107.051758 156.514648 107.051758 156.514648 108.545898 156.647461 108.545898C156.935223 108.031247 157.332273 107.62728 157.838623 107.333984 158.344973 107.040689 158.902503 106.894043 159.51123 106.894043zM159.170898 114.871094C159.995447 114.871094 160.638751 114.575036 161.10083 113.98291 161.562909 113.390785 161.793945 112.571783 161.793945 111.525879 161.793945 110.479975 161.562909 109.660973 161.10083 109.068848 160.638751 108.476722 159.998214 108.180664 159.179199 108.180664 158.371252 108.180664 157.729332 108.480873 157.253418 109.081299 156.777504 109.681725 156.539551 110.496577 156.539551 111.525879 156.539551 112.549647 156.777504 113.363115 157.253418 113.966309 157.729332 114.569502 158.368486 114.871094 159.170898 114.871094zM167.878418 112.621582L169.995117 116 171.688477 116 168.608887 111.467773 171.646973 107.051758 170.02832 107.051758 167.928223 110.380371 167.79541 110.380371 165.67041 107.051758 163.96875 107.051758 167.064941 111.525879 164.001953 116 165.620605 116 167.745605 112.621582 167.878418 112.621582z"/>
      <path fill="#737373" d="M73.3041992,265.855957 L73.3041992,269.359863 L75.5576172,269.359863 C76.1458363,269.359863 76.5996892,269.208579 76.9191895,268.906006 C77.2386897,268.603433 77.3984375,268.170738 77.3984375,267.60791 C77.3984375,267.057777 77.2312842,266.628257 76.8969727,266.319336 C76.5626611,266.010415 76.0992868,265.855957 75.5068359,265.855957 L73.3041992,265.855957 Z M73.3041992,270.375488 L73.3041992,274 L72.1616211,274 L72.1616211,264.840332 L75.6591797,264.840332 C76.5436242,264.840332 77.2513808,265.088946 77.7824707,265.586182 C78.3135606,266.083417 78.5791016,266.744625 78.5791016,267.569824 C78.5791016,268.208825 78.41618,268.761065 78.090332,269.226562 C77.764484,269.69206 77.313805,270.015787 76.7382812,270.197754 L78.8583984,274 L77.519043,274 L75.5576172,270.375488 L73.3041992,270.375488 Z M82.9780273,268.001465 C82.4321262,268.001465 81.983563,268.185545 81.6323242,268.553711 C81.2810855,268.921877 81.0843101,269.408526 81.0419922,270.013672 L84.8125,270.013672 C84.7998046,269.408526 84.6263038,268.921877 84.2919922,268.553711 C83.9576806,268.185545 83.5196967,268.001465 82.9780273,268.001465 Z M84.7807617,272.229004 L85.8725586,272.229004 C85.7075187,272.817223 85.3732122,273.279539 84.8696289,273.615967 C84.3660457,273.952394 83.7397498,274.120605 82.9907227,274.120605 C82.0428012,274.120605 81.2916694,273.802168 80.7373047,273.165283 C80.1829399,272.528399 79.9057617,271.6683 79.9057617,270.584961 C79.9057617,269.510086 80.1850558,268.649987 80.7436523,268.004639 C81.3022489,267.35929 82.0512648,267.036621 82.9907227,267.036621 C83.9132533,267.036621 84.6389948,267.344479 85.1679688,267.960205 C85.6969427,268.575931 85.9614258,269.414871 85.9614258,270.477051 L85.9614258,270.895996 L81.0419922,270.895996 L81.0419922,270.946777 C81.0716147,271.623864 81.2631004,272.161294 81.6164551,272.559082 C81.9698097,272.95687 82.4363578,273.155762 83.0161133,273.155762 C83.4562196,273.155762 83.82438,273.076417 84.1206055,272.917725 C84.4168309,272.759032 84.6368808,272.529461 84.7807617,272.229004 Z M90.3666992,272.933594 C91.001468,272.933594 91.4986961,272.71037 91.8583984,272.263916 C92.2181008,271.817462 92.3979492,271.221846 92.3979492,270.477051 C92.3979492,269.732255 92.2170428,269.13664 91.8552246,268.690186 C91.4934064,268.243731 90.9972362,268.020508 90.3666992,268.020508 C89.7319304,268.020508 89.2431658,268.243731 88.9003906,268.690186 C88.5576155,269.13664 88.3862305,269.732255 88.3862305,270.477051 C88.3862305,271.221846 88.5576155,271.817462 88.9003906,272.263916 C89.2431658,272.71037 89.7319304,272.933594 90.3666992,272.933594 Z M90.4174805,276.62793 C89.592281,276.62793 88.9289576,276.457603 88.4274902,276.116943 C87.9260229,275.776284 87.6329757,275.322431 87.5483398,274.755371 L88.7036133,274.755371 C88.7628584,275.034669 88.940591,275.257893 89.2368164,275.425049 C89.5330418,275.592205 89.9265926,275.675781 90.4174805,275.675781 C91.0310903,275.675781 91.5103336,275.53296 91.8552246,275.247314 C92.2001157,274.961668 92.3725586,274.56706 92.3725586,274.063477 L92.3725586,272.717773 L92.2709961,272.717773 C92.0551747,273.094403 91.7610696,273.385334 91.3886719,273.590576 C91.0162742,273.795818 90.5952172,273.898438 90.1254883,273.898438 C89.2410438,273.898438 88.5417506,273.584232 88.0275879,272.955811 C87.5134252,272.327389 87.2563477,271.501144 87.2563477,270.477051 C87.2563477,269.452957 87.5144831,268.623538 88.0307617,267.98877 C88.5470403,267.354001 89.2452755,267.036621 90.1254883,267.036621 C90.6036808,267.036621 91.0406067,267.145588 91.4362793,267.363525 C91.8319518,267.581463 92.1271149,267.87451 92.3217773,268.242676 L92.4233398,268.242676 L92.4233398,267.157227 L93.4643555,267.157227 L93.4643555,274.120605 C93.4643555,274.88656 93.190351,275.495929 92.642334,275.94873 C92.0943169,276.401532 91.3527065,276.62793 90.4174805,276.62793 Z M100.97998,267.157227 L99.8881836,267.157227 L99.8881836,271.207031 C99.8881836,271.807946 99.7284358,272.277668 99.4089355,272.616211 C99.0894353,272.954754 98.6271189,273.124023 98.0219727,273.124023 C97.4760715,273.124023 97.0814628,272.976971 96.8381348,272.682861 C96.5948067,272.388752 96.4731445,271.934899 96.4731445,271.321289 L96.4731445,267.157227 L95.3813477,267.157227 L95.3813477,271.587891 C95.3813477,272.396163 95.579181,273.020343 95.9748535,273.460449 C96.3705261,273.900556 96.9513308,274.120605 97.7172852,274.120605 C98.2420274,274.120605 98.684243,274.016928 99.0439453,273.80957 C99.4036476,273.602213 99.6681307,273.308107 99.8374023,272.927246 L99.9389648,272.927246 L99.9389648,274 L100.97998,274 L100.97998,267.157227 Z M103.023926,274 L104.115723,274 L104.115723,264.44043 L103.023926,264.44043 L103.023926,274 Z M108.26709,273.162109 C108.829918,273.162109 109.296466,272.99813 109.666748,272.670166 C110.03703,272.342202 110.222168,271.934898 110.222168,271.448242 L110.222168,270.819824 L108.381348,270.94043 C107.382645,271.008138 106.883301,271.38053 106.883301,272.057617 C106.883301,272.404624 107.014484,272.675455 107.276855,272.870117 C107.539227,273.06478 107.869301,273.162109 108.26709,273.162109 Z M108.063965,274.120605 C107.399574,274.120605 106.848391,273.937583 106.4104,273.571533 C105.97241,273.205483 105.753418,272.709313 105.753418,272.083008 C105.753418,270.830397 106.584953,270.155437 108.248047,270.058105 L110.222168,269.9375 L110.222168,269.31543 C110.222168,268.443681 109.705897,268.007812 108.67334,268.007812 C108.262856,268.007812 107.922202,268.081868 107.651367,268.22998 C107.380533,268.378093 107.207032,268.587564 107.130859,268.858398 L106.026367,268.858398 C106.098308,268.308265 106.381833,267.867108 106.876953,267.534912 C107.372073,267.202716 107.983558,267.036621 108.711426,267.036621 C109.545089,267.036621 110.187254,267.238686 110.637939,267.642822 C111.088625,268.046958 111.313965,268.604489 111.313965,269.31543 L111.313965,274 L110.272949,274 L110.272949,272.990723 L110.171387,272.990723 C109.951334,273.354657 109.659344,273.633951 109.29541,273.828613 C108.931476,274.023276 108.520998,274.120605 108.063965,274.120605 Z M113.256348,274 L114.348145,274 L114.348145,269.759766 C114.348145,269.277341 114.517414,268.879559 114.855957,268.566406 C115.1945,268.253254 115.624021,268.09668 116.144531,268.09668 C116.254558,268.09668 116.387857,268.104085 116.544434,268.118896 C116.70101,268.133708 116.800456,268.147461 116.842773,268.160156 L116.842773,267.068359 C116.775065,267.059896 116.689372,267.05249 116.585693,267.046143 C116.482014,267.039795 116.385743,267.036621 116.296875,267.036621 C115.844073,267.036621 115.439943,267.142414 115.084473,267.354004 C114.729002,267.565594 114.500489,267.83854 114.398926,268.172852 L114.297363,268.172852 L114.297363,267.157227 L113.256348,267.157227 L113.256348,274 Z M123.907715,274 L125.050293,274 L125.050293,264.840332 L123.914062,264.840332 L123.545898,265.10376 C123.300455,265.279379 123.016929,265.48356 122.695312,265.716309 C122.373696,265.949057 122.09017,266.153238 121.844727,266.328857 L121.476562,266.592285 L121.476562,267.79834 L121.828857,267.544434 C122.063722,267.375162 122.334553,267.178387 122.641357,266.954102 C122.948162,266.729817 123.218993,266.533041 123.453857,266.36377 L123.806152,266.109863 L123.907715,266.109863 L123.907715,274 Z M129.576172,269.778809 L130.737793,269.778809 C131.389489,269.778809 131.903644,269.933267 132.280273,270.242188 C132.656903,270.551108 132.845215,270.970049 132.845215,271.499023 C132.845215,271.998375 132.652671,272.40991 132.267578,272.733643 C131.882485,273.057375 131.387373,273.219238 130.782227,273.219238 C130.194007,273.219238 129.708417,273.073244 129.325439,272.78125 C128.942462,272.489256 128.725586,272.099937 128.674805,271.613281 L127.570312,271.613281 C127.61263,272.396163 127.927894,273.025632 128.516113,273.501709 C129.104332,273.977786 129.863928,274.21582 130.794922,274.21582 C131.700525,274.21582 132.464352,273.956627 133.086426,273.438232 C133.708499,272.919838 134.019531,272.284021 134.019531,271.530762 C134.019531,270.904457 133.841799,270.389244 133.486328,269.985107 C133.130858,269.580971 132.642093,269.338705 132.02002,269.258301 L132.02002,269.156738 C132.523603,269.034016 132.917154,268.784344 133.200684,268.407715 C133.484214,268.031085 133.625977,267.569827 133.625977,267.023926 C133.625977,266.355303 133.346682,265.788251 132.788086,265.322754 C132.229489,264.857257 131.550297,264.624512 130.750488,264.624512 C129.878739,264.624512 129.176272,264.853025 128.643066,265.310059 C128.109861,265.767092 127.81364,266.393388 127.754395,267.188965 L128.865234,267.188965 C128.911784,266.698077 129.099038,266.314048 129.427002,266.036865 C129.754966,265.759683 130.181312,265.621094 130.706055,265.621094 C131.235029,265.621094 131.660317,265.763915 131.981934,266.049561 C132.30355,266.335207 132.464355,266.710772 132.464355,267.17627 C132.464355,267.65023 132.29826,268.039549 131.966064,268.344238 C131.633869,268.648927 131.207522,268.80127 130.687012,268.80127 L129.576172,268.80127 L129.576172,269.778809 Z M139.116699,267.036621 C139.988448,267.036621 140.685626,267.358232 141.208252,268.001465 C141.730878,268.644697 141.992188,269.503738 141.992188,270.578613 C141.992188,271.649257 141.730878,272.50724 141.208252,273.152588 C140.685626,273.797936 139.988448,274.120605 139.116699,274.120605 C138.630043,274.120605 138.198407,274.019044 137.821777,273.815918 C137.445148,273.612792 137.163738,273.331382 136.977539,272.97168 L136.875977,272.97168 L136.875977,276.285156 L135.78418,276.285156 L135.78418,267.157227 L136.825195,267.157227 L136.825195,268.299805 L136.926758,268.299805 C137.146811,267.906248 137.450438,267.597332 137.837646,267.373047 C138.224855,267.148762 138.651202,267.036621 139.116699,267.036621 Z M138.856445,273.136719 C139.486982,273.136719 139.978921,272.910321 140.332275,272.45752 C140.68563,272.004718 140.862305,271.378422 140.862305,270.578613 C140.862305,269.778805 140.68563,269.152509 140.332275,268.699707 C139.978921,268.246905 139.489098,268.020508 138.862793,268.020508 C138.244951,268.020508 137.754071,268.250079 137.390137,268.709229 C137.026203,269.168378 136.844238,269.7915 136.844238,270.578613 C136.844238,271.361495 137.026203,271.983559 137.390137,272.444824 C137.754071,272.90609 138.242835,273.136719 138.856445,273.136719 Z M145.737305,271.416504 L147.355957,274 L148.650879,274 L146.295898,270.53418 L148.619141,267.157227 L147.381348,267.157227 L145.775391,269.702637 L145.673828,269.702637 L144.048828,267.157227 L142.747559,267.157227 L145.115234,270.578613 L142.772949,274 L144.010742,274 L145.635742,271.416504 L145.737305,271.416504 Z"/>
      <path fill="#0C0C0D" d="M75.7353516,148 L72.1616211,148 L72.1616211,138.840332 L75.6655273,138.840332 C76.507654,138.840332 77.1699195,139.045571 77.6523438,139.456055 C78.134768,139.866539 78.3759766,140.423011 78.3759766,141.125488 C78.3759766,141.599449 78.2225764,142.026854 77.9157715,142.407715 C77.6089666,142.788576 77.2355165,143.019205 76.7954102,143.099609 L76.7954102,143.201172 C77.4217154,143.281576 77.9189435,143.521727 78.2871094,143.921631 C78.6552753,144.321535 78.8393555,144.824053 78.8393555,145.429199 C78.8393555,146.23324 78.565351,146.862709 78.017334,147.317627 C77.4693169,147.772545 76.7086637,148 75.7353516,148 Z M73.3041992,139.849609 L73.3041992,142.788574 L75.1323242,142.788574 C75.8263381,142.788574 76.3478986,142.665854 76.6970215,142.42041 C77.0461443,142.174966 77.2207031,141.808922 77.2207031,141.322266 C77.2207031,140.856769 77.0630712,140.494956 76.7478027,140.236816 C76.4325342,139.978677 75.9913765,139.849609 75.4243164,139.849609 L73.3041992,139.849609 Z M73.3041992,146.990723 L75.5639648,146.990723 C76.2537469,146.990723 76.7763654,146.853191 77.1318359,146.578125 C77.4873065,146.303059 77.6650391,145.901044 77.6650391,145.37207 C77.6650391,144.843096 77.4799009,144.444256 77.1096191,144.175537 C76.7393373,143.906818 76.1881547,143.772461 75.4560547,143.772461 L73.3041992,143.772461 L73.3041992,146.990723 Z M83.3017578,148.120605 C82.3284457,148.120605 81.559329,147.804284 80.9943848,147.171631 C80.4294405,146.538978 80.1469727,145.674647 80.1469727,144.578613 C80.1469727,143.478347 80.4294405,142.612959 80.9943848,141.982422 C81.559329,141.351885 82.3284457,141.036621 83.3017578,141.036621 C84.27507,141.036621 85.0441866,141.351885 85.6091309,141.982422 C86.1740751,142.612959 86.456543,143.478347 86.456543,144.578613 C86.456543,145.674647 86.1740751,146.538978 85.6091309,147.171631 C85.0441866,147.804284 84.27507,148.120605 83.3017578,148.120605 Z M83.3017578,147.136719 C83.949222,147.136719 84.448566,146.912437 84.7998047,146.463867 C85.1510434,146.015297 85.3266602,145.386886 85.3266602,144.578613 C85.3266602,143.766109 85.1510434,143.13664 84.7998047,142.690186 C84.448566,142.243731 83.949222,142.020508 83.3017578,142.020508 C82.6542936,142.020508 82.1549497,142.243731 81.8037109,142.690186 C81.4524722,143.13664 81.2768555,143.766109 81.2768555,144.578613 C81.2768555,145.386886 81.4524722,146.015297 81.8037109,146.463867 C82.1549497,146.912437 82.6542936,147.136719 83.3017578,147.136719 Z M88.1577148,148 L89.2495117,148 L89.2495117,138.44043 L88.1577148,138.44043 L88.1577148,148 Z M93.8261719,148.120605 C92.9501909,148.120605 92.2519557,147.798994 91.7314453,147.155762 C91.2109349,146.512529 90.9506836,145.653488 90.9506836,144.578613 C90.9506836,143.503738 91.2130508,142.644697 91.737793,142.001465 C92.2625352,141.358232 92.9586545,141.036621 93.8261719,141.036621 C94.3043644,141.036621 94.7328269,141.142414 95.1115723,141.354004 C95.4903176,141.565594 95.7770173,141.859699 95.9716797,142.236328 L96.0668945,142.236328 L96.0668945,138.44043 L97.1586914,138.44043 L97.1586914,148 L96.1176758,148 L96.1176758,146.908203 L96.0161133,146.908203 C95.8002919,147.289064 95.4998392,147.586343 95.1147461,147.800049 C94.729653,148.013754 94.3001326,148.120605 93.8261719,148.120605 Z M94.0800781,142.020508 C93.4580047,142.020508 92.9692401,142.247963 92.6137695,142.702881 C92.258299,143.157798 92.0805664,143.783036 92.0805664,144.578613 C92.0805664,145.378422 92.2572411,146.004718 92.6105957,146.45752 C92.9639503,146.910321 93.4537729,147.136719 94.0800781,147.136719 C94.7021515,147.136719 95.1930321,146.908205 95.5527344,146.451172 C95.9124367,145.994138 96.0922852,145.369958 96.0922852,144.578613 C96.0922852,143.795732 95.9113788,143.173668 95.5495605,142.712402 C95.1877423,142.251137 94.6979198,142.020508 94.0800781,142.020508 Z M104.979004,148 L106.121582,148 L106.121582,138.840332 L104.985352,138.840332 L104.617188,139.10376 C104.371744,139.279379 104.088218,139.48356 103.766602,139.716309 C103.444985,139.949057 103.16146,140.153238 102.916016,140.328857 L102.547852,140.592285 L102.547852,141.79834 L102.900146,141.544434 C103.135011,141.375162 103.405842,141.178387 103.712646,140.954102 C104.019451,140.729817 104.290282,140.533041 104.525146,140.36377 L104.877441,140.109863 L104.979004,140.109863 L104.979004,148 Z M110.647461,143.778809 L111.809082,143.778809 C112.460778,143.778809 112.974933,143.933267 113.351562,144.242188 C113.728192,144.551108 113.916504,144.970049 113.916504,145.499023 C113.916504,145.998375 113.72396,146.40991 113.338867,146.733643 C112.953774,147.057375 112.458662,147.219238 111.853516,147.219238 C111.265297,147.219238 110.779706,147.073244 110.396729,146.78125 C110.013751,146.489256 109.796875,146.099937 109.746094,145.613281 L108.641602,145.613281 C108.683919,146.396163 108.999183,147.025632 109.587402,147.501709 C110.175621,147.977786 110.935217,148.21582 111.866211,148.21582 C112.771814,148.21582 113.535641,147.956627 114.157715,147.438232 C114.779788,146.919838 115.09082,146.284021 115.09082,145.530762 C115.09082,144.904457 114.913088,144.389244 114.557617,143.985107 C114.202147,143.580971 113.713382,143.338705 113.091309,143.258301 L113.091309,143.156738 C113.594892,143.034016 113.988443,142.784344 114.271973,142.407715 C114.555503,142.031085 114.697266,141.569827 114.697266,141.023926 C114.697266,140.355303 114.417972,139.788251 113.859375,139.322754 C113.300778,138.857257 112.621586,138.624512 111.821777,138.624512 C110.950028,138.624512 110.247561,138.853025 109.714355,139.310059 C109.18115,139.767092 108.884929,140.393388 108.825684,141.188965 L109.936523,141.188965 C109.983073,140.698077 110.170327,140.314048 110.498291,140.036865 C110.826255,139.759683 111.252602,139.621094 111.777344,139.621094 C112.306318,139.621094 112.731606,139.763915 113.053223,140.049561 C113.374839,140.335207 113.535645,140.710772 113.535645,141.17627 C113.535645,141.65023 113.369549,142.039549 113.037354,142.344238 C112.705158,142.648927 112.278811,142.80127 111.758301,142.80127 L110.647461,142.80127 L110.647461,143.778809 Z M120.187988,141.036621 C121.059737,141.036621 121.756915,141.358232 122.279541,142.001465 C122.802167,142.644697 123.063477,143.503738 123.063477,144.578613 C123.063477,145.649257 122.802167,146.50724 122.279541,147.152588 C121.756915,147.797936 121.059737,148.120605 120.187988,148.120605 C119.701332,148.120605 119.269696,148.019044 118.893066,147.815918 C118.516437,147.612792 118.235027,147.331382 118.048828,146.97168 L117.947266,146.97168 L117.947266,150.285156 L116.855469,150.285156 L116.855469,141.157227 L117.896484,141.157227 L117.896484,142.299805 L117.998047,142.299805 C118.2181,141.906248 118.521727,141.597332 118.908936,141.373047 C119.296145,141.148762 119.722491,141.036621 120.187988,141.036621 Z M119.927734,147.136719 C120.558271,147.136719 121.05021,146.910321 121.403564,146.45752 C121.756919,146.004718 121.933594,145.378422 121.933594,144.578613 C121.933594,143.778805 121.756919,143.152509 121.403564,142.699707 C121.05021,142.246905 120.560387,142.020508 119.934082,142.020508 C119.31624,142.020508 118.82536,142.250079 118.461426,142.709229 C118.097492,143.168378 117.915527,143.7915 117.915527,144.578613 C117.915527,145.361495 118.097492,145.983559 118.461426,146.444824 C118.82536,146.90609 119.314125,147.136719 119.927734,147.136719 Z M126.808594,145.416504 L128.427246,148 L129.722168,148 L127.367188,144.53418 L129.69043,141.157227 L128.452637,141.157227 L126.84668,143.702637 L126.745117,143.702637 L125.120117,141.157227 L123.818848,141.157227 L126.186523,144.578613 L123.844238,148 L125.082031,148 L126.707031,145.416504 L126.808594,145.416504 Z"/>
      <path fill="#737373" d="M72.949707,292.108887 L72.949707,295.07373 L74.8564453,295.07373 C75.3541692,295.07373 75.7381985,294.945721 76.0085449,294.689697 C76.2788913,294.433674 76.4140625,294.067548 76.4140625,293.591309 C76.4140625,293.125811 76.2726251,292.762371 75.9897461,292.500977 C75.7068671,292.239582 75.3147812,292.108887 74.8134766,292.108887 L72.949707,292.108887 Z M72.949707,295.933105 L72.949707,299 L71.9829102,299 L71.9829102,291.249512 L74.9423828,291.249512 C75.690759,291.249512 76.2896299,291.459877 76.7390137,291.880615 C77.1883974,292.301353 77.4130859,292.860836 77.4130859,293.559082 C77.4130859,294.099775 77.2752292,294.567055 76.9995117,294.960938 C76.7237942,295.35482 76.3424504,295.628743 75.8554688,295.782715 L77.6494141,299 L76.5161133,299 L74.8564453,295.933105 L72.949707,295.933105 Z M81.2641602,293.924316 C80.8022438,293.924316 80.4226903,294.080077 80.1254883,294.391602 C79.8282863,294.703127 79.661784,295.114906 79.6259766,295.626953 L82.8164062,295.626953 C82.805664,295.114906 82.6588556,294.703127 82.3759766,294.391602 C82.0930975,294.080077 81.7224958,293.924316 81.2641602,293.924316 Z M82.7895508,297.501465 L83.7133789,297.501465 C83.5737298,297.999189 83.290855,298.390379 82.8647461,298.675049 C82.4386372,298.959718 81.9086946,299.102051 81.2749023,299.102051 C80.472815,299.102051 79.8372419,298.832604 79.3681641,298.293701 C78.8990862,297.754799 78.6645508,297.027023 78.6645508,296.110352 C78.6645508,295.200842 78.9008765,294.473066 79.3735352,293.927002 C79.8461938,293.380938 80.4799765,293.10791 81.2749023,293.10791 C82.0555052,293.10791 82.6695941,293.368406 83.1171875,293.889404 C83.5647809,294.410403 83.7885742,295.120275 83.7885742,296.019043 L83.7885742,296.373535 L79.6259766,296.373535 L79.6259766,296.416504 C79.6510418,296.989423 79.8130682,297.444171 80.1120605,297.780762 C80.4110529,298.117352 80.8058244,298.285645 81.2963867,298.285645 C81.6687844,298.285645 81.9803047,298.218507 82.230957,298.084229 C82.4816093,297.949951 82.6678054,297.755698 82.7895508,297.501465 Z M87.6450195,298.097656 C88.1821316,298.097656 88.6028631,297.908775 88.9072266,297.531006 C89.2115901,297.153237 89.3637695,296.649254 89.3637695,296.019043 C89.3637695,295.388831 89.2106949,294.884849 88.904541,294.50708 C88.5983871,294.129311 88.1785508,293.94043 87.6450195,293.94043 C87.1079075,293.94043 86.6943374,294.129311 86.4042969,294.50708 C86.1142564,294.884849 85.9692383,295.388831 85.9692383,296.019043 C85.9692383,296.649254 86.1142564,297.153237 86.4042969,297.531006 C86.6943374,297.908775 87.1079075,298.097656 87.6450195,298.097656 Z M87.6879883,301.223633 C86.9897426,301.223633 86.4284689,301.07951 86.0041504,300.79126 C85.5798319,300.50301 85.3318688,300.11898 85.2602539,299.63916 L86.237793,299.63916 C86.2879234,299.875489 86.4383125,300.064371 86.6889648,300.205811 C86.9396171,300.34725 87.2726216,300.417969 87.6879883,300.417969 C88.2071966,300.417969 88.6127101,300.29712 88.904541,300.05542 C89.1963719,299.813719 89.3422852,299.47982 89.3422852,299.053711 L89.3422852,297.915039 L89.2563477,297.915039 C89.0737296,298.233726 88.8248714,298.479898 88.5097656,298.653564 C88.1946599,298.827231 87.8383809,298.914062 87.440918,298.914062 C86.6925418,298.914062 86.1008323,298.648196 85.6657715,298.116455 C85.2307107,297.584714 85.0131836,296.885584 85.0131836,296.019043 C85.0131836,295.152502 85.2316059,294.450686 85.668457,293.913574 C86.1053082,293.376462 86.6961226,293.10791 87.440918,293.10791 C87.8455424,293.10791 88.215249,293.200113 88.5500488,293.384521 C88.8848487,293.56893 89.134602,293.816893 89.2993164,294.128418 L89.3852539,294.128418 L89.3852539,293.209961 L90.2661133,293.209961 L90.2661133,299.102051 C90.2661133,299.750166 90.0342634,300.265786 89.5705566,300.648926 C89.1068499,301.032066 88.4793334,301.223633 87.6879883,301.223633 Z M96.7543945,293.209961 L95.8305664,293.209961 L95.8305664,296.636719 C95.8305664,297.145185 95.6953952,297.542642 95.4250488,297.829102 C95.1547024,298.115561 94.7635117,298.258789 94.2514648,298.258789 C93.7895485,298.258789 93.4556488,298.13436 93.2497559,297.885498 C93.0438629,297.636636 92.940918,297.252607 92.940918,296.733398 L92.940918,293.209961 L92.0170898,293.209961 L92.0170898,296.958984 C92.0170898,297.642907 92.1844873,298.171059 92.5192871,298.543457 C92.854087,298.915855 93.3455371,299.102051 93.9936523,299.102051 C94.437665,299.102051 94.8118474,299.014324 95.1162109,298.838867 C95.4205744,298.663411 95.6443678,298.414552 95.7875977,298.092285 L95.8735352,298.092285 L95.8735352,299 L96.7543945,299 L96.7543945,293.209961 Z M98.612793,299 L99.5366211,299 L99.5366211,290.911133 L98.612793,290.911133 L98.612793,299 Z M103.178223,298.291016 C103.654462,298.291016 104.049233,298.152264 104.362549,297.874756 C104.675864,297.597248 104.83252,297.252606 104.83252,296.84082 L104.83252,296.309082 L103.274902,296.411133 C102.429846,296.468425 102.007324,296.783526 102.007324,297.356445 C102.007324,297.650067 102.118326,297.879231 102.340332,298.043945 C102.562338,298.20866 102.841632,298.291016 103.178223,298.291016 Z M103.006348,299.102051 C102.44417,299.102051 101.977785,298.947186 101.607178,298.637451 C101.23657,298.327717 101.05127,297.90788 101.05127,297.37793 C101.05127,296.318029 101.754876,295.746908 103.162109,295.664551 L104.83252,295.5625 L104.83252,295.036133 C104.83252,294.298499 104.395675,293.929688 103.521973,293.929688 C103.17464,293.929688 102.886394,293.99235 102.657227,294.117676 C102.428059,294.243002 102.28125,294.420246 102.216797,294.649414 L101.282227,294.649414 C101.343099,294.183917 101.583006,293.81063 102.001953,293.529541 C102.420901,293.248452 102.938311,293.10791 103.554199,293.10791 C104.259606,293.10791 104.802977,293.278888 105.184326,293.62085 C105.565676,293.962811 105.756348,294.434567 105.756348,295.036133 L105.756348,299 L104.875488,299 L104.875488,298.145996 L104.789551,298.145996 C104.603352,298.45394 104.356284,298.690266 104.04834,298.85498 C103.740396,299.019695 103.393068,299.102051 103.006348,299.102051 Z M107.528809,299 L108.452637,299 L108.452637,295.412109 C108.452637,295.003904 108.595864,294.667319 108.882324,294.402344 C109.168784,294.137368 109.532224,294.004883 109.972656,294.004883 C110.065756,294.004883 110.178548,294.011149 110.311035,294.023682 C110.443523,294.036214 110.527669,294.047852 110.563477,294.058594 L110.563477,293.134766 C110.506185,293.127604 110.433676,293.121338 110.345947,293.115967 C110.258219,293.110596 110.176758,293.10791 110.101562,293.10791 C109.718423,293.10791 109.376466,293.197427 109.075684,293.376465 C108.774901,293.555502 108.581543,293.786457 108.495605,294.069336 L108.409668,294.069336 L108.409668,293.209961 L107.528809,293.209961 L107.528809,299 Z M116.799316,299 L117.766113,299 L117.766113,291.249512 L116.804688,291.249512 L116.493164,291.472412 C116.285481,291.621013 116.045574,291.793782 115.773438,291.990723 C115.501301,292.187664 115.261394,292.360432 115.053711,292.509033 L114.742188,292.731934 L114.742188,293.752441 L115.040283,293.537598 C115.239015,293.394368 115.468179,293.227866 115.727783,293.038086 C115.987387,292.848306 116.216552,292.681804 116.415283,292.538574 L116.713379,292.32373 L116.799316,292.32373 L116.799316,299 Z M121.993164,299 L122.959961,299 L122.959961,291.249512 L121.998535,291.249512 L121.687012,291.472412 C121.479328,291.621013 121.239422,291.793782 120.967285,291.990723 C120.695148,292.187664 120.455242,292.360432 120.247559,292.509033 L119.936035,292.731934 L119.936035,293.752441 L120.234131,293.537598 C120.432862,293.394368 120.662027,293.227866 120.921631,293.038086 C121.181235,292.848306 121.410399,292.681804 121.609131,292.538574 L121.907227,292.32373 L121.993164,292.32373 L121.993164,299 Z M128.15918,293.10791 C128.896814,293.10791 129.486733,293.380043 129.928955,293.924316 C130.371177,294.46859 130.592285,295.195471 130.592285,296.10498 C130.592285,297.010909 130.371177,297.736895 129.928955,298.282959 C129.486733,298.829023 128.896814,299.102051 128.15918,299.102051 C127.747394,299.102051 127.382163,299.016114 127.063477,298.844238 C126.74479,298.672362 126.506674,298.434246 126.349121,298.129883 L126.263184,298.129883 L126.263184,300.933594 L125.339355,300.933594 L125.339355,293.209961 L126.220215,293.209961 L126.220215,294.176758 L126.306152,294.176758 C126.492351,293.843748 126.749266,293.582358 127.076904,293.392578 C127.404543,293.202799 127.765298,293.10791 128.15918,293.10791 Z M127.938965,298.269531 C128.472496,298.269531 128.888752,298.077964 129.187744,297.694824 C129.486737,297.311684 129.63623,296.781742 129.63623,296.10498 C129.63623,295.428219 129.486737,294.898277 129.187744,294.515137 C128.888752,294.131997 128.474287,293.94043 127.944336,293.94043 C127.421547,293.94043 127.006186,294.134682 126.698242,294.523193 C126.390298,294.911704 126.236328,295.438962 126.236328,296.10498 C126.236328,296.767419 126.390298,297.293781 126.698242,297.684082 C127.006186,298.074383 127.419757,298.269531 127.938965,298.269531 Z M133.890137,296.813965 L135.259766,299 L136.355469,299 L134.362793,296.067383 L136.328613,293.209961 L135.28125,293.209961 L133.922363,295.36377 L133.836426,295.36377 L132.461426,293.209961 L131.360352,293.209961 L133.36377,296.10498 L131.381836,299 L132.429199,299 L133.804199,296.813965 L133.890137,296.813965 Z"/>
      <path fill="#0C0C0D" d="M87.3549805 27.3896484L76.1401367 27.3896484 76.1401367 6.74853516 73.2397461 6.74853516 73.2397461 30 87.3549805 30 87.3549805 27.3896484zM90.3520508 30L93.1557617 30 93.1557617 12.6298828 90.3520508 12.6298828 90.3520508 30zM91.7539062 9.82617188C92.2480493 9.82617188 92.6669905 9.65161307 93.0107422 9.30249023 93.3544939 8.9533674 93.5263672 8.53711179 93.5263672 8.05371094 93.5263672 7.55956784 93.3544939 7.14062672 93.0107422 6.796875 92.6669905 6.45312328 92.2480493 6.28125 91.7539062 6.28125 91.2705054 6.28125 90.8542498 6.45312328 90.505127 6.796875 90.1560041 7.14062672 89.9814453 7.55956784 89.9814453 8.05371094 89.9814453 8.53711179 90.1560041 8.9533674 90.505127 9.30249023 90.8542498 9.65161307 91.2705054 9.82617188 91.7539062 9.82617188zM104.14502 27.5024414C105.670418 27.5024414 106.903071 26.9250546 107.843018 25.7702637 108.782964 24.6154727 109.25293 23.108896 109.25293 21.2504883 109.25293 19.3813383 108.782964 17.866705 107.843018 16.706543 106.903071 15.5463809 105.670418 14.9663086 104.14502 14.9663086 102.630364 14.9663086 101.416508 15.5383244 100.503418 16.682373 99.5903275 17.8264217 99.1337891 19.3491116 99.1337891 21.2504883 99.1337891 23.1411227 99.5903275 24.655756 100.503418 25.7944336 101.416508 26.9331112 102.630364 27.5024414 104.14502 27.5024414zM104.241699 36.5419922C102.361807 36.5419922 100.739753 36.0612841 99.3754883 35.0998535 98.0112236 34.1384229 97.2055676 32.9218824 96.9584961 31.4501953L99.8588867 31.4501953C100.138185 32.2558634 100.686031 32.9030737 101.502441 33.3918457 102.318852 33.8806177 103.274897 34.125 104.370605 34.125 105.885261 34.125 107.077632 33.722172 107.947754 32.9165039 108.817875 32.1108358 109.25293 31.0527409 109.25293 29.7421875L109.25293 27.019043 109.188477 27.019043C108.640622 27.9643602 107.877935 28.6975072 106.900391 29.2185059 105.922847 29.7395046 104.827155 30 103.613281 30 101.411122 30 99.6359931 29.1970295 98.2878418 27.5910645 96.9396905 25.9850994 96.265625 23.8715951 96.265625 21.2504883 96.265625 18.5971547 96.942376 16.4702228 98.2958984 14.8696289 99.6494208 13.269035 101.443348 12.46875 103.677734 12.46875 104.90235 12.46875 106.006099 12.7265599 106.989014 13.2421875 107.971929 13.7578151 108.753415 14.4936476 109.333496 15.449707L109.381836 15.449707 109.381836 12.6298828 112.056641 12.6298828 112.056641 29.6455078C112.056641 31.7187604 111.350349 33.3864683 109.937744 34.6486816 108.525139 35.910895 106.626477 36.5419922 104.241699 36.5419922zM116.020508 30L118.824219 30 118.824219 20.0097656C118.824219 18.4843674 119.248531 17.2624558 120.097168 16.3439941 120.945805 15.4255325 122.100579 14.9663086 123.561523 14.9663086 124.93653 14.9663086 125.973141 15.36108 126.671387 16.1506348 127.369632 16.9401895 127.71875 18.0278251 127.71875 19.4135742L127.71875 30 130.522461 30 130.522461 18.9140625C130.522461 16.9804591 129.9773 15.4228575 128.886963 14.2412109 127.796625 13.0595644 126.300791 12.46875 124.399414 12.46875 123.067376 12.46875 121.9502 12.7185034 121.047852 13.2180176 120.145503 13.7175318 119.425784 14.4614208 118.888672 15.449707L118.824219 15.449707 118.824219 5.73339844 116.020508 5.73339844 116.020508 30zM135.163086 8.71435547L135.163086 12.6298828 132.746094 12.6298828 132.746094 14.9501953 135.163086 14.9501953 135.163086 25.4882812C135.163086 27.1533286 135.498776 28.343014 136.170166 29.057373 136.841556 29.7717321 137.961418 30.1289062 139.529785 30.1289062 139.862795 30.1289062 140.203856 30.1154786 140.552979 30.088623 140.902101 30.0617674 141.162597 30.0268557 141.334473 29.9838867L141.334473 27.6152344C141.237792 27.6259766 141.055177 27.6420897 140.786621 27.6635742 140.518065 27.6850587 140.297852 27.6958008 140.125977 27.6958008 139.384762 27.6958008 138.839601 27.5078144 138.490479 27.1318359 138.141356 26.7558575 137.966797 26.1704141 137.966797 25.3754883L137.966797 14.9501953 141.350586 14.9501953 141.350586 12.6298828 137.966797 12.6298828 137.966797 8.71435547 135.163086 8.71435547zM157.077148 19.2685547L159.993652 19.2685547C161.6587 19.2685547 162.971919 19.6633261 163.93335 20.4528809 164.89478 21.2424356 165.375488 22.3247002 165.375488 23.699707 165.375488 24.9135803 164.878667 25.9125937 163.88501 26.6967773 162.891352 27.480961 161.626473 27.8730469 160.090332 27.8730469 158.532707 27.8730469 157.281255 27.4997596 156.335938 26.7531738 155.39062 26.0065881 154.853516 25.0371153 154.724609 23.8447266L151.937012 23.8447266C152.044434 25.7675877 152.828606 27.338617 154.289551 28.5578613 155.750496 29.7771057 157.694812 30.3867188 160.122559 30.3867188 162.399914 30.3867188 164.336174 29.7556215 165.931396 28.4934082 167.526619 27.2311949 168.324219 25.6010842 168.324219 23.6030273 168.324219 21.9702067 167.803228 20.6462453 166.76123 19.6311035 165.719233 18.6159617 164.317392 18.054688 162.555664 17.9472656L162.555664 17.8828125C164.005867 17.6249987 165.163326 17.0046436 166.028076 16.0217285 166.892827 15.0388134 167.325195 13.8169018 167.325195 12.355957 167.325195 10.6049717 166.629646 9.1682185 165.238525 8.0456543 163.847405 6.92309009 162.109874 6.36181641 160.025879 6.36181641 157.845204 6.36181641 156.070075 6.94725977 154.700439 8.11816406 153.330804 9.28906835 152.56543 10.8627831 152.404297 12.8393555L155.191895 12.8393555C155.320801 11.6254822 155.804195 10.6613805 156.64209 9.94702148 157.479985 9.23266244 158.564935 8.87548828 159.896973 8.87548828 161.36866 8.87548828 162.488522 9.23266244 163.256592 9.94702148 164.024662 10.6613805 164.408691 11.593256 164.408691 12.7426758 164.408691 13.9135801 163.987065 14.8857383 163.143799 15.6591797 162.300533 16.4326211 161.207526 16.8193359 159.864746 16.8193359L157.077148 16.8193359 157.077148 19.2685547zM176.606445 19.2685547L179.522949 19.2685547C181.187997 19.2685547 182.501216 19.6633261 183.462646 20.4528809 184.424077 21.2424356 184.904785 22.3247002 184.904785 23.699707 184.904785 24.9135803 184.407964 25.9125937 183.414307 26.6967773 182.420649 27.480961 181.155769 27.8730469 179.619629 27.8730469 178.062004 27.8730469 176.810552 27.4997596 175.865234 26.7531738 174.919917 26.0065881 174.382813 25.0371153 174.253906 23.8447266L171.466309 23.8447266C171.573731 25.7675877 172.357903 27.338617 173.818848 28.5578613 175.279792 29.7771057 177.224109 30.3867188 179.651855 30.3867188 181.929211 30.3867188 183.865471 29.7556215 185.460693 28.4934082 187.055916 27.2311949 187.853516 25.6010842 187.853516 23.6030273 187.853516 21.9702067 187.332525 20.6462453 186.290527 19.6311035 185.24853 18.6159617 183.846688 18.054688 182.084961 17.9472656L182.084961 17.8828125C183.535164 17.6249987 184.692623 17.0046436 185.557373 16.0217285 186.422123 15.0388134 186.854492 13.8169018 186.854492 12.355957 186.854492 10.6049717 186.158943 9.1682185 184.767822 8.0456543 183.376702 6.92309009 181.639171 6.36181641 179.555176 6.36181641 177.374501 6.36181641 175.599372 6.94725977 174.229736 8.11816406 172.860101 9.28906835 172.094727 10.8627831 171.933594 12.8393555L174.721191 12.8393555C174.850098 11.6254822 175.333492 10.6613805 176.171387 9.94702148 177.009282 9.23266244 178.094232 8.87548828 179.42627 8.87548828 180.897957 8.87548828 182.017818 9.23266244 182.785889 9.94702148 183.553959 10.6613805 183.937988 11.593256 183.937988 12.7426758 183.937988 13.9135801 183.516362 14.8857383 182.673096 15.6591797 181.82983 16.4326211 180.736823 16.8193359 179.394043 16.8193359L176.606445 16.8193359 176.606445 19.2685547zM199.76123 12.46875C201.974132 12.46875 203.76806 13.279777 205.143066 14.9018555 206.518073 16.5239339 207.205566 18.6616078 207.205566 21.3149414 207.205566 23.968275 206.523444 26.1059489 205.15918 27.7280273 203.794915 29.3501058 202.017101 30.1611328 199.825684 30.1611328 198.590326 30.1611328 197.494634 29.9006374 196.538574 29.3796387 195.582515 28.85864 194.830569 28.125493 194.282715 27.1801758L194.218262 27.1801758 194.218262 35.8007812 191.414551 35.8007812 191.414551 12.6298828 194.073242 12.6298828 194.073242 15.449707 194.137695 15.449707C194.642581 14.5473588 195.405268 13.8249539 196.425781 13.2824707 197.446294 12.7399875 198.558099 12.46875 199.76123 12.46875zM199.245605 27.6635742C200.781746 27.6635742 202.0144 27.0861874 202.943604 25.9313965 203.872807 24.7766056 204.337402 23.2378026 204.337402 21.3149414 204.337402 19.3920802 203.872807 17.8532773 202.943604 16.6984863 202.0144 15.5436954 200.781746 14.9663086 199.245605 14.9663086 197.752434 14.9663086 196.538579 15.551752 195.604004 16.7226563 194.669429 17.8935605 194.202148 19.424307 194.202148 21.3149414 194.202148 23.2055759 194.669429 24.7363223 195.604004 25.9072266 196.538579 27.0781309 197.752434 27.6635742 199.245605 27.6635742zM215.922852 23.3452148L220.128418 30 223.254395 30 217.453613 21.2021484 223.334961 12.6298828 220.208984 12.6298828 216.019531 19.1879883 215.955078 19.1879883 211.717285 12.6298828 208.591309 12.6298828 214.44043 21.3149414 208.494629 30 211.620605 30 215.858398 23.3452148 215.922852 23.3452148zM73.6586914 189.603027L73.6586914 193.645996 76.2587891 193.645996C76.9375034 193.645996 77.4611798 193.471437 77.829834 193.122314 78.1984882 192.773192 78.3828125 192.273929 78.3828125 191.624512 78.3828125 190.989743 78.1899433 190.494142 77.8041992 190.137695 77.4184551 189.781248 76.8837925 189.603027 76.2001953 189.603027L73.6586914 189.603027zM73.6586914 194.817871L73.6586914 199 72.340332 199 72.340332 188.431152 76.3759766 188.431152C77.3964895 188.431152 78.2131317 188.718015 78.8259277 189.291748 79.4387238 189.865481 79.7451172 190.628413 79.7451172 191.580566 79.7451172 192.317875 79.5571308 192.955075 79.1811523 193.492188 78.8051739 194.0293 78.2851596 194.402831 77.6210938 194.612793L80.0673828 199 78.5219727 199 76.2587891 194.817871 73.6586914 194.817871zM84.6743164 192.078613C84.0444304 192.078613 83.5268575 192.291014 83.121582 192.71582 82.7163066 193.140627 82.4892581 193.702145 82.4404297 194.400391L86.7910156 194.400391C86.7763671 193.702145 86.5761738 193.140627 86.1904297 192.71582 85.8046856 192.291014 85.2993195 192.078613 84.6743164 192.078613zM86.7543945 196.956543L88.0141602 196.956543C87.8237295 197.635257 87.4379912 198.168699 86.8569336 198.556885 86.275876 198.94507 85.553227 199.13916 84.6889648 199.13916 83.5952094 199.13916 82.7285188 198.771732 82.0888672 198.036865 81.4492156 197.301998 81.1293945 196.309577 81.1293945 195.05957 81.1293945 193.81933 81.4516569 192.826908 82.0961914 192.082275 82.7407259 191.337643 83.604975 190.965332 84.6889648 190.965332 85.7534233 190.965332 86.5908173 191.320553 87.2011719 192.031006 87.8115265 192.741459 88.1166992 193.709467 88.1166992 194.935059L88.1166992 195.418457 82.4404297 195.418457 82.4404297 195.477051C82.4746095 196.258305 82.6955546 196.878416 83.1032715 197.337402 83.5109884 197.796389 84.0493131 198.025879 84.7182617 198.025879 85.2260768 198.025879 85.6508772 197.934327 85.9926758 197.751221 86.3344744 197.568114 86.5883781 197.303224 86.7543945 196.956543zM93.0532227 197.769531C93.7856482 197.769531 94.3593729 197.511965 94.7744141 196.996826 95.1894552 196.481687 95.3969727 195.794438 95.3969727 194.935059 95.3969727 194.075679 95.1882345 193.38843 94.770752 192.873291 94.3532694 192.358152 93.7807654 192.100586 93.0532227 192.100586 92.3207971 192.100586 91.7568379 192.358152 91.3613281 192.873291 90.9658183 193.38843 90.7680664 194.075679 90.7680664 194.935059 90.7680664 195.794438 90.9658183 196.481687 91.3613281 196.996826 91.7568379 197.511965 92.3207971 197.769531 93.0532227 197.769531zM93.1118164 202.032227C92.1596632 202.032227 91.39429 201.835695 90.8156738 201.442627 90.2370577 201.049559 89.8989263 200.525882 89.8012695 199.871582L91.1342773 199.871582C91.2026371 200.193849 91.4077131 200.451415 91.7495117 200.644287 92.0913103 200.837159 92.5454073 200.933594 93.1118164 200.933594 93.8198278 200.933594 94.3728007 200.7688 94.770752 200.439209 95.1687032 200.109617 95.3676758 199.6543 95.3676758 199.073242L95.3676758 197.520508 95.2504883 197.520508C95.0014636 197.95508 94.6621115 198.29077 94.2324219 198.527588 93.8027322 198.764405 93.3168972 198.882812 92.7749023 198.882812 91.7543894 198.882812 90.9475127 198.520267 90.354248 197.795166 89.7609834 197.070065 89.4643555 196.116705 89.4643555 194.935059 89.4643555 193.753412 89.7622041 192.79639 90.3579102 192.063965 90.9536163 191.331539 91.7592723 190.965332 92.7749023 190.965332 93.3266629 190.965332 93.8308083 191.091063 94.2873535 191.342529 94.7438988 191.593995 95.0844715 191.932127 95.309082 192.356934L95.4262695 192.356934 95.4262695 191.104492 96.6274414 191.104492 96.6274414 199.13916C96.6274414 200.022954 96.3112825 200.726072 95.6789551 201.248535 95.0466277 201.770999 94.1909234 202.032227 93.1118164 202.032227zM105.152832 191.104492L103.893066 191.104492 103.893066 195.777344C103.893066 196.470707 103.708742 197.012693 103.340088 197.40332 102.971434 197.793947 102.437992 197.989258 101.739746 197.989258 101.10986 197.989258 100.654542 197.819582 100.373779 197.480225 100.093016 197.140867 99.9526367 196.617191 99.9526367 195.90918L99.9526367 191.104492 98.6928711 191.104492 98.6928711 196.216797C98.6928711 197.149419 98.9211403 197.869626 99.3776855 198.377441 99.8342308 198.885256 100.50439 199.13916 101.388184 199.13916 101.993655 199.13916 102.503904 199.019532 102.918945 198.780273 103.333986 198.541014 103.639159 198.201662 103.834473 197.762207L103.95166 197.762207 103.95166 199 105.152832 199 105.152832 191.104492zM107.364746 199L108.624512 199 108.624512 187.969727 107.364746 187.969727 107.364746 199zM113.268066 198.033203C113.917484 198.033203 114.455808 197.843996 114.883057 197.465576 115.310305 197.087156 115.523926 196.61719 115.523926 196.055664L115.523926 195.330566 113.399902 195.469727C112.247553 195.547852 111.671387 195.977535 111.671387 196.758789 111.671387 197.159182 111.822752 197.471679 112.125488 197.696289 112.428224 197.9209 112.80908 198.033203 113.268066 198.033203zM113.033691 199.13916C112.267086 199.13916 111.631106 198.927981 111.125732 198.505615 110.620359 198.08325 110.367676 197.510746 110.367676 196.788086 110.367676 195.342766 111.327139 194.563965 113.246094 194.45166L115.523926 194.3125 115.523926 193.594727C115.523926 192.588862 114.928229 192.085938 113.736816 192.085938 113.263181 192.085938 112.870119 192.171386 112.557617 192.342285 112.245116 192.513184 112.044922 192.754881 111.957031 193.067383L110.682617 193.067383C110.765625 192.432614 111.092771 191.923586 111.664062 191.540283 112.235354 191.156981 112.940914 190.965332 113.780762 190.965332 114.742681 190.965332 115.48364 191.198484 116.003662 191.664795 116.523684 192.131106 116.783691 192.77441 116.783691 193.594727L116.783691 199 115.58252 199 115.58252 197.835449 115.465332 197.835449C115.211425 198.255373 114.874514 198.577636 114.45459 198.802246 114.034666 199.026857 113.561038 199.13916 113.033691 199.13916zM118.878418 199L120.138184 199 120.138184 194.107422C120.138184 193.550778 120.333494 193.091799 120.724121 192.730469 121.114748 192.369139 121.610349 192.188477 122.210938 192.188477 122.337891 192.188477 122.491698 192.197021 122.672363 192.214111 122.853028 192.231201 122.967773 192.24707 123.016602 192.261719L123.016602 191.001953C122.938476 190.992187 122.8396 190.983643 122.719971 190.976318 122.600341 190.968994 122.489258 190.965332 122.386719 190.965332 121.864255 190.965332 121.397951 191.087401 120.987793 191.331543 120.577635 191.575685 120.313965 191.890623 120.196777 192.276367L120.07959 192.276367 120.07959 191.104492 118.878418 191.104492 118.878418 199zM130.875488 199L132.193848 199 132.193848 188.431152 130.882812 188.431152 130.458008 188.735107C130.174803 188.937745 129.847658 189.173339 129.476562 189.441895 129.105467 189.710451 128.778322 189.946044 128.495117 190.148682L128.070312 190.452637 128.070312 191.844238 128.476807 191.55127C128.747804 191.355956 129.060301 191.128908 129.414307 190.870117 129.768312 190.611327 130.080809 190.384278 130.351807 190.188965L130.758301 189.895996 130.875488 189.895996 130.875488 199zM138.595215 199.249023C139.68897 199.249023 140.577633 198.915775 141.26123 198.249268 141.944828 197.58276 142.286621 196.712408 142.286621 195.638184 142.286621 194.598139 141.969241 193.748538 141.334473 193.089355 140.699704 192.430172 139.8794 192.100586 138.873535 192.100586 138.385251 192.100586 137.955568 192.175048 137.584473 192.323975 137.213377 192.472901 136.898439 192.698729 136.639648 193.001465L136.522461 193.001465 136.822754 189.610352 141.686035 189.610352 141.686035 188.431152 135.790039 188.431152 135.211426 194.422363 136.449219 194.422363C136.664064 194.046385 136.961912 193.75464 137.342773 193.547119 137.723635 193.339599 138.153318 193.23584 138.631836 193.23584 139.325199 193.23584 139.887937 193.460447 140.320068 193.909668 140.752199 194.358889 140.968262 194.947262 140.968262 195.674805 140.968262 196.397465 140.752199 196.980955 140.320068 197.425293 139.887937 197.869631 139.317875 198.091797 138.609863 198.091797 137.989743 198.091797 137.470949 197.917238 137.053467 197.568115 136.635984 197.218992 136.39795 196.758792 136.339355 196.1875L135.042969 196.1875C135.101563 197.100591 135.458005 197.839109 136.112305 198.403076 136.766605 198.967044 137.594233 199.249023 138.595215 199.249023zM148.006836 190.965332C149.0127 190.965332 149.817136 191.336422 150.420166 192.078613 151.023196 192.820804 151.324707 193.812006 151.324707 195.052246 151.324707 196.287604 151.023196 197.277584 150.420166 198.022217 149.817136 198.766849 149.0127 199.13916 148.006836 199.13916 147.44531 199.13916 146.947268 199.021974 146.512695 198.787598 146.078123 198.553221 145.753419 198.228518 145.538574 197.813477L145.421387 197.813477 145.421387 201.636719 144.161621 201.636719 144.161621 191.104492 145.362793 191.104492 145.362793 192.422852 145.47998 192.422852C145.733888 191.968748 146.084226 191.612306 146.531006 191.353516 146.977785 191.094725 147.469724 190.965332 148.006836 190.965332zM147.706543 198.003906C148.434086 198.003906 149.001707 197.742678 149.409424 197.220215 149.817141 196.697751 150.020996 195.975102 150.020996 195.052246 150.020996 194.12939 149.817141 193.406741 149.409424 192.884277 149.001707 192.361814 148.436527 192.100586 147.713867 192.100586 147.000973 192.100586 146.434572 192.365476 146.014648 192.895264 145.594724 193.425051 145.384766 194.144038 145.384766 195.052246 145.384766 195.955571 145.594724 196.673337 146.014648 197.205566 146.434572 197.737796 146.998532 198.003906 147.706543 198.003906zM155.499512 196.019043L157.367188 199 158.861328 199 156.144043 195.000977 158.824707 191.104492 157.396484 191.104492 155.543457 194.041504 155.42627 194.041504 153.55127 191.104492 152.049805 191.104492 154.781738 195.052246 152.079102 199 153.507324 199 155.382324 196.019043 155.499512 196.019043zM81.9033203 85.2597656L74.4267578 85.2597656 74.4267578 71.4990234 72.4931641 71.4990234 72.4931641 87 81.9033203 87 81.9033203 85.2597656zM84.2451172 87L86.1142578 87 86.1142578 75.4199219 84.2451172 75.4199219 84.2451172 87zM85.1796875 73.5507812C85.5091162 73.5507812 85.7884103 73.4344087 86.0175781 73.2016602 86.2467459 72.9689116 86.3613281 72.6914079 86.3613281 72.3691406 86.3613281 72.0397119 86.2467459 71.7604178 86.0175781 71.53125 85.7884103 71.3020822 85.5091162 71.1875 85.1796875 71.1875 84.8574203 71.1875 84.5799165 71.3020822 84.347168 71.53125 84.1144194 71.7604178 83.9980469 72.0397119 83.9980469 72.3691406 83.9980469 72.6914079 84.1144194 72.9689116 84.347168 73.2016602 84.5799165 73.4344087 84.8574203 73.5507812 85.1796875 73.5507812zM93.7841797 85.3349609C94.8011119 85.3349609 95.622881 84.9500364 96.2495117 84.1801758 96.8761425 83.4103152 97.1894531 82.4059307 97.1894531 81.1669922 97.1894531 79.9208922 96.8761425 78.9111367 96.2495117 78.1376953 95.622881 77.3642539 94.8011119 76.9775391 93.7841797 76.9775391 92.774409 76.9775391 91.9651723 77.3588829 91.3564453 78.121582 90.7477183 78.8842812 90.4433594 79.8994077 90.4433594 81.1669922 90.4433594 82.4274152 90.7477183 83.4371707 91.3564453 84.1962891 91.9651723 84.9554074 92.774409 85.3349609 93.7841797 85.3349609zM93.8486328 91.3613281C92.5953713 91.3613281 91.5140019 91.0408561 90.6044922 90.3999023 89.6949824 89.7589486 89.1578784 88.9479216 88.9931641 87.9667969L90.9267578 87.9667969C91.1129567 88.5039089 91.4781874 88.9353825 92.0224609 89.2612305 92.5667345 89.5870785 93.2040979 89.75 93.9345703 89.75 94.944341 89.75 95.7392549 89.481448 96.3193359 88.9443359 96.899417 88.4072239 97.1894531 87.7018273 97.1894531 86.828125L97.1894531 85.0126953 97.1464844 85.0126953C96.7812482 85.6429068 96.2727897 86.1316714 95.6210938 86.4790039 94.9693978 86.8263364 94.2389363 87 93.4296875 87 91.9615812 87 90.778162 86.4646863 89.8793945 85.394043 88.980627 84.3233996 88.53125 82.9143968 88.53125 81.1669922 88.53125 79.3981031 88.9824174 77.9801486 89.8847656 76.9130859 90.7871139 75.8460233 91.9830655 75.3125 93.4726562 75.3125 94.2890666 75.3125 95.0248991 75.4843733 95.6801758 75.828125 96.3354525 76.1718767 96.8564434 76.6624317 97.2431641 77.2998047L97.2753906 77.2998047 97.2753906 75.4199219 99.0585938 75.4199219 99.0585938 86.7636719C99.0585938 88.1458402 98.5877326 89.2576455 97.6459961 90.0991211 96.7042596 90.9405967 95.4384845 91.3613281 93.8486328 91.3613281zM102.044922 87L103.914062 87 103.914062 80.3398438C103.914062 79.3229116 104.196937 78.5083038 104.762695 77.8959961 105.328453 77.2836883 106.098302 76.9775391 107.072266 76.9775391 107.988937 76.9775391 108.680011 77.24072 109.145508 77.7670898 109.611005 78.2934597 109.84375 79.0185501 109.84375 79.9423828L109.84375 87 111.712891 87 111.712891 79.609375C111.712891 78.3203061 111.34945 77.281905 110.622559 76.4941406 109.895667 75.7063763 108.898444 75.3125 107.630859 75.3125 106.742834 75.3125 105.99805 75.4790022 105.396484 75.8120117 104.794919 76.1450212 104.315106 76.6409472 103.957031 77.2998047L103.914062 77.2998047 103.914062 70.8222656 102.044922 70.8222656 102.044922 87zM115.150391 72.8095703L115.150391 75.4199219 113.539062 75.4199219 113.539062 76.9667969 115.150391 76.9667969 115.150391 83.9921875C115.150391 85.1022191 115.374184 85.8953427 115.821777 86.371582 116.269371 86.8478214 117.015945 87.0859375 118.061523 87.0859375 118.28353 87.0859375 118.510904 87.0769858 118.743652 87.059082 118.976401 87.0411783 119.150065 87.0179038 119.264648 86.9892578L119.264648 85.4101562C119.200195 85.4173177 119.078451 85.4280598 118.899414 85.4423828 118.720377 85.4567058 118.573568 85.4638672 118.458984 85.4638672 117.964841 85.4638672 117.601401 85.3385429 117.368652 85.0878906 117.135904 84.8372383 117.019531 84.4469428 117.019531 83.9169922L117.019531 76.9667969 119.275391 76.9667969 119.275391 75.4199219 117.019531 75.4199219 117.019531 72.8095703 115.150391 72.8095703zM127.192383 75.9677734L127.192383 75.9785156 129.061523 75.9785156 129.061523 75.9677734C129.061523 75.1012326 129.365882 74.3779326 129.974609 73.7978516 130.583336 73.2177705 131.342443 72.9277344 132.251953 72.9277344 133.104171 72.9277344 133.829261 73.189125 134.427246 73.7119141 135.025231 74.2347031 135.324219 74.8684859 135.324219 75.6132812 135.324219 76.2578157 135.155926 76.8629529 134.819336 77.4287109 134.482746 77.994469 133.791672 78.8251898 132.746094 79.9208984L127.289062 85.6679688 127.289062 87 137.515625 87 137.515625 85.28125 129.963867 85.28125 129.963867 85.2382812 133.884766 81.1884766C135.180996 79.8492772 136.067218 78.7822305 136.543457 77.9873047 137.019696 77.1923788 137.257812 76.361658 137.257812 75.4951172 137.257812 74.3063092 136.77979 73.3001343 135.82373 72.4765625 134.867671 71.6529907 133.694994 71.2412109 132.305664 71.2412109 130.844719 71.2412109 129.627284 71.690588 128.65332 72.5893555 127.679357 73.488123 127.192383 74.614251 127.192383 75.9677734zM139.986328 75.9677734L139.986328 75.9785156 141.855469 75.9785156 141.855469 75.9677734C141.855469 75.1012326 142.159828 74.3779326 142.768555 73.7978516 143.377282 73.2177705 144.136389 72.9277344 145.045898 72.9277344 145.898116 72.9277344 146.623207 73.189125 147.221191 73.7119141 147.819176 74.2347031 148.118164 74.8684859 148.118164 75.6132812 148.118164 76.2578157 147.949871 76.8629529 147.613281 77.4287109 147.276691 77.994469 146.585617 78.8251898 145.540039 79.9208984L140.083008 85.6679688 140.083008 87 150.30957 87 150.30957 85.28125 142.757812 85.28125 142.757812 85.2382812 146.678711 81.1884766C147.974941 79.8492772 148.861163 78.7822305 149.337402 77.9873047 149.813642 77.1923788 150.051758 76.361658 150.051758 75.4951172 150.051758 74.3063092 149.573735 73.3001343 148.617676 72.4765625 147.661616 71.6529907 146.488939 71.2412109 145.099609 71.2412109 143.638665 71.2412109 142.421229 71.690588 141.447266 72.5893555 140.473302 73.488123 139.986328 74.614251 139.986328 75.9677734zM158.452148 75.3125C159.927416 75.3125 161.123368 75.8531847 162.040039 76.9345703 162.95671 78.0159559 163.415039 79.4410719 163.415039 81.2099609 163.415039 82.97885 162.960291 84.4039659 162.050781 85.4853516 161.141271 86.5667372 159.956062 87.1074219 158.495117 87.1074219 157.671545 87.1074219 156.941084 86.9337582 156.303711 86.5864258 155.666338 86.2390933 155.165041 85.7503287 154.799805 85.1201172L154.756836 85.1201172 154.756836 90.8671875 152.887695 90.8671875 152.887695 75.4199219 154.660156 75.4199219 154.660156 77.2998047 154.703125 77.2998047C155.039715 76.6982392 155.548174 76.2166359 156.228516 75.8549805 156.908858 75.493325 157.650061 75.3125 158.452148 75.3125zM158.108398 85.4423828C159.132492 85.4423828 159.954261 85.0574583 160.57373 84.2875977 161.1932 83.517737 161.50293 82.4918684 161.50293 81.2099609 161.50293 79.9280535 161.1932 78.9021848 160.57373 78.1323242 159.954261 77.3624636 159.132492 76.9775391 158.108398 76.9775391 157.112951 76.9775391 156.303714 77.3678346 155.680664 78.1484375 155.057614 78.9290404 154.746094 79.949538 154.746094 81.2099609 154.746094 82.4703839 155.057614 83.4908815 155.680664 84.2714844 156.303714 85.0520872 157.112951 85.4423828 158.108398 85.4423828zM169.570312 82.5634766L172.374023 87 174.458008 87 170.59082 81.1347656 174.511719 75.4199219 172.427734 75.4199219 169.634766 79.7919922 169.591797 79.7919922 166.766602 75.4199219 164.682617 75.4199219 168.582031 81.2099609 164.618164 87 166.702148 87 169.527344 82.5634766 169.570312 82.5634766z"/>
      <g transform="translate(6.5 335)">
        <rect width="226" height="26" fill="#EBEBED" rx="4"/>
        <text fill="#737373" font-family="FiraSans-Regular, Fira Sans" font-size="10">
          <tspan x="16" y="18">*Use SemiBold for emphasized font style</tspan>
        </text>
      </g>
      <path fill="#737373" d="M2.28 26.11C4.04 26.11 5.73 26.66 5.73 29.52 5.73 32.33 3.98 33 2.49 33L.84 33 .84 26.11 2.28 26.11zM1.79 26.87L1.79 32.25 2.56 32.25C3.64 32.25 4.72 31.79 4.72 29.52 4.72 27.19 3.59 26.87 2.49 26.87L1.79 26.87zM7.68 25.2C7.3 25.2 7.04 25.47 7.04 25.83 7.04 26.18 7.3 26.45 7.68 26.45 8.07 26.45 8.33 26.18 8.33 25.83 8.33 25.47 8.07 25.2 7.68 25.2zM8.15 33L8.15 27.73 7.23 27.73 7.23 33 8.15 33zM11.48 27.61C10.39 27.61 9.58 28.22 9.58 29.05 9.58 29.8 10.03 30.29 11.17 30.59 12.19 30.86 12.45 31.06 12.45 31.61 12.45 32.07 12.01 32.38 11.32 32.38 10.75 32.38 10.26 32.19 9.86 31.85L9.35 32.43C9.81 32.83 10.45 33.12 11.34 33.12 12.41 33.12 13.42 32.62 13.42 31.52 13.42 30.6 12.78 30.16 11.67 29.88 10.82 29.66 10.54 29.46 10.54 29.03 10.54 28.61 10.91 28.34 11.51 28.34 12 28.34 12.41 28.49 12.87 28.82L13.27 28.21C12.77 27.83 12.22 27.61 11.48 27.61zM17.14 27.61C18.54 27.61 19.09 28.7 19.09 30.36 19.09 31.96 18.38 33.12 17.02 33.12 16.45 33.12 15.98 32.93 15.64 32.52L15.64 35.02 14.72 35.13 14.72 27.73 15.51 27.73 15.58 28.44C15.97 27.9 16.54 27.61 17.14 27.61zM16.8 32.37C17.64 32.37 18.1 31.74 18.1 30.36 18.1 28.99 17.7 28.34 16.91 28.34 16.35 28.34 15.92 28.74 15.64 29.16L15.64 31.73C15.91 32.14 16.32 32.37 16.8 32.37zM21.53 31.94L21.53 25.5 20.61 25.61 20.61 31.96C20.61 32.72 20.99 33.12 21.66 33.12 21.93 33.12 22.19 33.06 22.44 32.94L22.2 32.3C22.1 32.34 21.99 32.36 21.86 32.36 21.62 32.36 21.53 32.22 21.53 31.94zM27.14 31.77C27.14 32.23 27.31 32.38 27.58 32.48L27.37 33.12C26.84 33.06 26.5 32.85 26.34 32.33 25.97 32.88 25.41 33.12 24.77 33.12 23.72 33.12 23.09 32.47 23.09 31.53 23.09 30.4 23.94 29.79 25.41 29.79L26.22 29.79 26.22 29.4C26.22 28.64 25.85 28.36 25.12 28.36 24.73 28.36 24.24 28.46 23.7 28.64L23.47 27.97C24.12 27.73 24.7 27.61 25.29 27.61 26.56 27.61 27.14 28.26 27.14 29.36L27.14 31.77zM24.98 32.43C25.52 32.43 25.92 32.16 26.22 31.61L26.22 30.4 25.53 30.4C24.56 30.4 24.07 30.76 24.07 31.48 24.07 32.1 24.38 32.43 24.98 32.43zM31.14 33.03L32.9 27.73 31.95 27.73 30.57 32.33 29.16 27.73 28.18 27.73 29.95 33 30.26 33C29.96 33.82 29.66 34.23 28.59 34.41L28.69 35.13C30.15 34.97 30.77 34.15 31.14 33.03zM9.83 195.36C10.63 195.5 11.42 195.87 11.42 197.04 11.42 198.5 10.29 199 8.69 199L6.79 199 6.79 192.11 8.42 192.11C10.12 192.11 11.12 192.65 11.12 193.85 11.12 194.7 10.5 195.22 9.83 195.36zM7.74 192.86L7.74 195.03 8.78 195.03C9.55 195.03 10.15 194.65 10.15 193.92 10.15 193.07 9.54 192.86 8.52 192.86L7.74 192.86zM8.69 198.24C9.69 198.24 10.42 198.04 10.42 197.04 10.42 196.07 9.7 195.76 8.87 195.76L7.74 195.76 7.74 198.24 8.69 198.24zM14.8 193.61C16.3 193.61 17.14 194.69 17.14 196.36 17.14 197.99 16.28 199.12 14.79 199.12 13.29 199.12 12.44 198.04 12.44 196.37 12.44 194.74 13.3 193.61 14.8 193.61zM14.8 194.35C13.92 194.35 13.43 194.99 13.43 196.37 13.43 197.74 13.91 198.38 14.79 198.38 15.67 198.38 16.15 197.74 16.15 196.36 16.15 194.99 15.67 194.35 14.8 194.35zM22.74 191.61L22.74 199 21.93 199 21.84 198.27C21.5 198.8 20.97 199.12 20.32 199.12 19.04 199.12 18.33 198.03 18.33 196.39 18.33 194.78 19.11 193.61 20.4 193.61 21.02 193.61 21.47 193.89 21.82 194.26L21.82 191.5 22.74 191.61zM20.52 198.39C21.11 198.39 21.47 198.1 21.82 197.61L21.82 195.03C21.49 194.61 21.12 194.34 20.6 194.34 19.81 194.34 19.32 195 19.32 196.37 19.32 197.76 19.76 198.39 20.52 198.39zM26.75 199.03L28.51 193.73 27.56 193.73 26.18 198.33 24.77 193.73 23.79 193.73 25.56 199 25.87 199C25.57 199.82 25.27 200.23 24.2 200.41L24.3 201.13C25.76 200.97 26.38 200.15 26.75 199.03zM31.27 193.72L32.8 193.39 32.52 192.56 31.1 193.19 31.25 191.61 30.35 191.61 30.5 193.18 29.08 192.57 28.81 193.39 30.33 193.72 29.3 194.89 30.02 195.41 30.8 194.07 31.59 195.41 32.31 194.88 31.27 193.72zM17.94 82.92L18.04 82.11 13.12 82.11 13.12 82.92 15.08 82.92 15.08 89 16.03 89 16.03 82.92 17.94 82.92zM19.54 81.2C19.16 81.2 18.9 81.47 18.9 81.83 18.9 82.18 19.16 82.45 19.54 82.45 19.93 82.45 20.19 82.18 20.19 81.83 20.19 81.47 19.93 81.2 19.54 81.2zM20.01 89L20.01 83.73 19.09 83.73 19.09 89 20.01 89zM24.57 88.76L24.22 88.13C23.96 88.29 23.75 88.36 23.52 88.36 23.06 88.36 22.89 88.11 22.89 87.58L22.89 84.44 24.04 84.44 24.14 83.73 22.89 83.73 22.89 82.43 21.97 82.54 21.97 83.73 21.05 83.73 21.05 84.44 21.97 84.44 21.97 87.62C21.97 88.6 22.5 89.12 23.39 89.12 23.84 89.12 24.22 89 24.57 88.76zM26.39 87.94L26.39 81.5 25.47 81.61 25.47 87.96C25.47 88.72 25.85 89.12 26.52 89.12 26.79 89.12 27.05 89.06 27.3 88.94L27.06 88.3C26.96 88.34 26.85 88.36 26.72 88.36 26.48 88.36 26.39 88.22 26.39 87.94zM32.43 86.21C32.43 86.39 32.42 86.56 32.41 86.68L29.05 86.68C29.14 87.9 29.71 88.37 30.47 88.37 30.99 88.37 31.38 88.23 31.84 87.91L32.24 88.46C31.72 88.87 31.13 89.12 30.4 89.12 28.93 89.12 28.07 88.09 28.07 86.42 28.07 84.78 28.9 83.61 30.26 83.61 31.68 83.61 32.43 84.6 32.43 86.21zM31.52 86L31.52 85.94C31.52 84.91 31.11 84.34 30.28 84.34 29.58 84.34 29.12 84.83 29.05 86L31.52 86z"/>
    </g>
    <path fill="#737373" d="M60.572791,304.972772 C59.012791,304.972772 57.712791,306.202772 57.712791,308.532772 C57.712791,310.852772 58.922791,312.102772 60.592791,312.102772 C61.522791,312.102772 62.192791,311.722772 62.562791,311.332772 L62.082791,310.722772 C61.692791,311.012772 61.272791,311.302772 60.622791,311.302772 C59.552791,311.302772 58.722791,310.522772 58.722791,308.532772 C58.722791,306.452772 59.592791,305.752772 60.632791,305.752772 C61.112791,305.752772 61.532791,305.912772 61.962791,306.262772 L62.482791,305.652772 C61.932791,305.212772 61.442791,304.972772 60.572791,304.972772 Z M67.262791,310.752772 C67.262791,311.212772 67.432791,311.362772 67.702791,311.462772 L67.492791,312.102772 C66.962791,312.042772 66.622791,311.832772 66.462791,311.312772 C66.092791,311.862772 65.532791,312.102772 64.892791,312.102772 C63.842791,312.102772 63.212791,311.452772 63.212791,310.512772 C63.212791,309.382772 64.062791,308.772772 65.532791,308.772772 L66.342791,308.772772 L66.342791,308.382772 C66.342791,307.622772 65.972791,307.342772 65.242791,307.342772 C64.852791,307.342772 64.362791,307.442772 63.822791,307.622772 L63.592791,306.952772 C64.242791,306.712772 64.822791,306.592772 65.412791,306.592772 C66.682791,306.592772 67.262791,307.242772 67.262791,308.342772 L67.262791,310.752772 Z M65.102791,311.412772 C65.642791,311.412772 66.042791,311.142772 66.342791,310.592772 L66.342791,309.382772 L65.652791,309.382772 C64.682791,309.382772 64.192791,309.742772 64.192791,310.462772 C64.192791,311.082772 64.502791,311.412772 65.102791,311.412772 Z M71.572791,306.592772 C72.972791,306.592772 73.522791,307.682772 73.522791,309.342772 C73.522791,310.942772 72.812791,312.102772 71.452791,312.102772 C70.882791,312.102772 70.412791,311.912772 70.072791,311.502772 L70.072791,314.002772 L69.152791,314.112772 L69.152791,306.712772 L69.942791,306.712772 L70.012791,307.422772 C70.402791,306.882772 70.972791,306.592772 71.572791,306.592772 Z M71.232791,311.352772 C72.072791,311.352772 72.532791,310.722772 72.532791,309.342772 C72.532791,307.972772 72.132791,307.322772 71.342791,307.322772 C70.782791,307.322772 70.352791,307.722772 70.072791,308.142772 L70.072791,310.712772 C70.342791,311.122772 70.752791,311.352772 71.232791,311.352772 Z M77.752791,311.742772 L77.402791,311.112772 C77.142791,311.272772 76.932791,311.342772 76.702791,311.342772 C76.242791,311.342772 76.072791,311.092772 76.072791,310.562772 L76.072791,307.422772 L77.222791,307.422772 L77.322791,306.712772 L76.072791,306.712772 L76.072791,305.412772 L75.152791,305.522772 L75.152791,306.712772 L74.232791,306.712772 L74.232791,307.422772 L75.152791,307.422772 L75.152791,310.602772 C75.152791,311.582772 75.682791,312.102772 76.572791,312.102772 C77.022791,312.102772 77.402791,311.982772 77.752791,311.742772 Z M79.152791,304.182772 C78.772791,304.182772 78.512791,304.452772 78.512791,304.812772 C78.512791,305.162772 78.772791,305.432772 79.152791,305.432772 C79.542791,305.432772 79.802791,305.162772 79.802791,304.812772 C79.802791,304.452772 79.542791,304.182772 79.152791,304.182772 Z M79.622791,311.982772 L79.622791,306.712772 L78.702791,306.712772 L78.702791,311.982772 L79.622791,311.982772 Z M83.502791,306.592772 C85.002791,306.592772 85.842791,307.672772 85.842791,309.342772 C85.842791,310.972772 84.982791,312.102772 83.492791,312.102772 C81.992791,312.102772 81.142791,311.022772 81.142791,309.352772 C81.142791,307.722772 82.002791,306.592772 83.502791,306.592772 Z M83.502791,307.332772 C82.622791,307.332772 82.132791,307.972772 82.132791,309.352772 C82.132791,310.722772 82.612791,311.362772 83.492791,311.362772 C84.372791,311.362772 84.852791,310.722772 84.852791,309.342772 C84.852791,307.972772 84.372791,307.332772 83.502791,307.332772 Z M89.842791,306.592772 C89.152791,306.592772 88.592791,306.952772 88.232791,307.492772 L88.152791,306.712772 L87.362791,306.712772 L87.362791,311.982772 L88.282791,311.982772 L88.282791,308.242772 C88.632791,307.682772 89.032791,307.312772 89.622791,307.312772 C90.132791,307.312772 90.452791,307.542772 90.452791,308.332772 L90.452791,311.982772 L91.372791,311.982772 L91.372791,308.202772 C91.372791,307.202772 90.812791,306.592772 89.842791,306.592772 Z M94.932791,306.702772 L96.462791,306.372772 L96.182791,305.542772 L94.762791,306.172772 L94.912791,304.592772 L94.012791,304.592772 L94.162791,306.162772 L92.742791,305.552772 L92.472791,306.372772 L93.992791,306.702772 L92.962791,307.872772 L93.682791,308.392772 L94.462791,307.052772 L95.252791,308.392772 L95.972791,307.862772 L94.932791,306.702772 Z"/>
  </g>
</svg>
