<svg xmlns="http://www.w3.org/2000/svg" width="300" height="300" viewBox="0 0 300 300">
  <g fill="none">
    <rect width="234" height="364" x="86.827" fill="#F9F9FA"/>
    <path fill="#000F40" d="M110.19,49.548 L110.19,28.428 L108.639,28.428 L108.639,51 L119.463,51 L119.694,49.548 L110.19,49.548 Z M124.611,26.448 C123.885,26.448 123.423,26.976 123.423,27.603 C123.423,28.23 123.885,28.758 124.611,28.758 C125.337,28.758 125.799,28.23 125.799,27.603 C125.799,26.976 125.337,26.448 124.611,26.448 Z M125.37,51 L125.37,33.774 L123.852,33.774 L123.852,51 L125.37,51 Z M145.038,33.972 C143.949,34.302 142.497,34.434 140.352,34.467 C142.101,35.292 143.256,36.777 143.256,39.285 C143.256,42.618 140.946,44.895 137.151,44.895 C136.326,44.895 135.534,44.763 134.874,44.532 C133.983,45.027 133.422,45.786 133.422,46.644 C133.422,47.733 134.148,48.558 136.326,48.558 L139.164,48.558 C142.53,48.558 144.543,50.307 144.543,52.815 C144.543,55.851 142.2,57.699 137.283,57.699 C132.234,57.699 130.188,56.247 130.188,52.848 L131.64,52.848 C131.673,55.422 133.026,56.379 137.283,56.379 C141.375,56.379 142.992,55.059 142.992,52.914 C142.992,51 141.474,49.911 138.933,49.911 L136.128,49.911 C133.356,49.911 131.937,48.591 131.937,46.941 C131.937,45.786 132.663,44.796 133.818,44.07 C131.871,43.047 130.947,41.529 130.947,39.186 C130.947,35.754 133.356,33.444 137.118,33.444 C141.87,33.477 142.992,33.081 144.543,32.454 L145.038,33.972 Z M137.151,34.665 C133.983,34.665 132.498,36.546 132.498,39.186 C132.498,42.123 134.379,43.707 137.118,43.707 C140.055,43.707 141.705,42.09 141.705,39.252 C141.705,36.48 140.22,34.665 137.151,34.665 Z M156.456,33.444 C153.915,33.444 152.001,34.797 150.549,36.81 L150.549,26.547 L149.031,26.745 L149.031,51 L150.549,51 L150.549,38.427 C152.034,36.249 153.75,34.698 156.225,34.698 C158.469,34.698 159.657,36.018 159.657,38.922 L159.657,51 L161.175,51 L161.175,38.724 C161.175,35.424 159.558,33.444 156.456,33.444 Z M175.794,50.307 L175.167,49.218 C174.309,49.713 173.418,50.01 172.395,50.01 C170.58,50.01 169.722,48.954 169.722,46.842 L169.722,35.061 L174.078,35.061 L174.276,33.774 L169.722,33.774 L169.722,29.418 L168.204,29.583 L168.204,33.774 L165.333,33.774 L165.333,35.061 L168.204,35.061 L168.204,46.941 C168.204,49.878 169.755,51.363 172.23,51.363 C173.616,51.363 174.771,50.967 175.794,50.307 Z M192.261,28.725 C189.852,28.725 188.037,29.55 186.387,31.167 L187.212,32.124 C188.829,30.639 190.314,30.045 192.195,30.045 C194.868,30.045 196.617,31.629 196.617,34.236 C196.617,37.404 194.274,38.79 191.931,38.79 L190.875,38.79 L190.677,40.044 L192.063,40.044 C195.132,40.044 197.178,41.463 197.178,44.895 C197.178,47.931 195.264,50.01 191.898,50.01 C189.918,50.01 188.334,49.416 186.75,47.7 L185.76,48.558 C187.41,50.406 189.39,51.363 191.931,51.363 C196.089,51.363 198.762,48.657 198.762,44.862 C198.762,41.331 196.518,39.417 193.746,39.318 C196.221,38.955 198.168,37.206 198.168,34.17 C198.168,31.068 195.957,28.725 192.261,28.725 Z M208.167,28.725 C205.758,28.725 203.943,29.55 202.293,31.167 L203.118,32.124 C204.735,30.639 206.22,30.045 208.101,30.045 C210.774,30.045 212.523,31.629 212.523,34.236 C212.523,37.404 210.18,38.79 207.837,38.79 L206.781,38.79 L206.583,40.044 L207.969,40.044 C211.038,40.044 213.084,41.463 213.084,44.895 C213.084,47.931 211.17,50.01 207.804,50.01 C205.824,50.01 204.24,49.416 202.656,47.7 L201.666,48.558 C203.316,50.406 205.296,51.363 207.837,51.363 C211.995,51.363 214.668,48.657 214.668,44.862 C214.668,41.331 212.424,39.417 209.652,39.318 C212.127,38.955 214.074,37.206 214.074,34.17 C214.074,31.068 211.863,28.725 208.167,28.725 Z M227.274,33.444 C231.399,33.444 233.511,36.678 233.511,42.288 C233.511,47.799 231.267,51.363 227.043,51.363 C224.799,51.363 223.05,50.241 221.994,48.855 L221.994,57.435 L220.476,57.699 L220.476,33.774 L221.796,33.774 L221.895,36.381 C223.149,34.632 224.964,33.444 227.274,33.444 Z M226.812,50.01 C230.112,50.01 231.894,47.37 231.894,42.288 C231.894,37.239 230.244,34.731 227.076,34.731 C224.766,34.731 223.281,36.018 221.994,37.767 L221.994,47.238 C223.116,48.921 224.733,50.01 226.812,50.01 Z M249.615,51 L243.51,41.76 L248.823,33.774 L247.074,33.774 L242.619,40.869 L238.164,33.774 L236.382,33.774 L241.662,41.826 L235.59,51 L237.339,51 L242.553,42.75 L247.8,51 L249.615,51 Z"/>
    <path fill="#000" d="M24.107,42.017 C26.473,42.017 28.709,42.745 28.709,46.463 C28.709,50.103 26.486,51 24.341,51 L21.897,51 L21.897,42.017 L24.107,42.017 Z M23.613,43.304 L23.613,49.713 L24.458,49.713 C25.797,49.713 26.902,49.115 26.902,46.463 C26.902,43.759 25.732,43.304 24.406,43.304 L23.613,43.304 Z M31.088,40.639 C30.477,40.639 30.048,41.081 30.048,41.653 C30.048,42.212 30.477,42.654 31.088,42.654 C31.712,42.654 32.141,42.212 32.141,41.653 C32.141,41.081 31.712,40.639 31.088,40.639 Z M31.933,51 L31.933,44.123 L30.269,44.123 L30.269,51 L31.933,51 Z M36.106,43.928 C34.507,43.928 33.454,44.786 33.454,45.93 C33.454,46.944 34.078,47.62 35.495,48.01 C36.782,48.374 37.055,48.556 37.055,49.154 C37.055,49.635 36.574,49.96 35.82,49.96 C35.131,49.96 34.494,49.687 33.974,49.271 L33.129,50.22 C33.766,50.792 34.689,51.195 35.872,51.195 C37.445,51.195 38.771,50.441 38.771,49.011 C38.771,47.789 37.978,47.217 36.574,46.84 C35.404,46.515 35.131,46.307 35.131,45.852 C35.131,45.436 35.508,45.163 36.21,45.163 C36.782,45.163 37.328,45.358 37.9,45.748 L38.55,44.747 C37.9,44.24 37.094,43.928 36.106,43.928 Z M43.659,43.928 C45.479,43.928 46.233,45.345 46.233,47.542 C46.233,49.648 45.258,51.195 43.516,51.195 C42.814,51.195 42.216,50.948 41.787,50.441 L41.787,53.652 L40.123,53.834 L40.123,44.123 L41.579,44.123 L41.67,44.968 C42.216,44.253 42.957,43.928 43.659,43.928 Z M43.048,49.921 C43.958,49.921 44.491,49.219 44.491,47.555 C44.491,45.813 44.023,45.176 43.165,45.176 C42.593,45.176 42.112,45.579 41.787,46.112 L41.787,49.206 C42.112,49.687 42.528,49.921 43.048,49.921 Z M49.47,49.323 L49.47,41.185 L47.806,41.367 L47.806,49.44 C47.806,50.584 48.391,51.195 49.418,51.195 C49.847,51.195 50.263,51.104 50.601,50.961 L50.25,49.791 C50.133,49.83 49.99,49.856 49.86,49.856 C49.587,49.856 49.47,49.7 49.47,49.323 Z M56.789,49.18 C56.789,49.739 56.971,49.934 57.309,50.064 L56.958,51.169 C56.204,51.104 55.71,50.831 55.437,50.168 C54.956,50.896 54.202,51.195 53.383,51.195 C52.005,51.195 51.16,50.324 51.16,49.076 C51.16,47.581 52.291,46.775 54.293,46.775 L55.151,46.775 L55.151,46.385 C55.151,45.488 54.748,45.189 53.864,45.189 C53.396,45.189 52.733,45.319 52.044,45.553 L51.654,44.422 C52.499,44.097 53.37,43.928 54.15,43.928 C55.983,43.928 56.789,44.773 56.789,46.294 L56.789,49.18 Z M53.825,49.986 C54.41,49.986 54.839,49.687 55.151,49.141 L55.151,47.75 L54.462,47.75 C53.383,47.75 52.85,48.14 52.85,48.946 C52.85,49.609 53.188,49.986 53.825,49.986 Z M62.002,51.026 L64.238,44.123 L62.522,44.123 L60.962,49.895 L59.467,44.123 L57.699,44.123 L59.883,51 L60.455,51 C60.065,51.975 59.623,52.417 58.258,52.625 L58.427,53.834 C60.468,53.678 61.482,52.638 62.002,51.026 Z M27.487,91.382 L27.669,90.017 L21,90.017 L21,91.382 L23.418,91.382 L23.418,99 L25.147,99 L25.147,91.382 L27.487,91.382 Z M29.814,88.639 C29.203,88.639 28.774,89.081 28.774,89.653 C28.774,90.212 29.203,90.654 29.814,90.654 C30.438,90.654 30.867,90.212 30.867,89.653 C30.867,89.081 30.438,88.639 29.814,88.639 Z M30.659,99 L30.659,92.123 L28.995,92.123 L28.995,99 L30.659,99 Z M36.6,98.675 L36.015,97.596 C35.716,97.778 35.456,97.856 35.196,97.856 C34.689,97.856 34.468,97.583 34.468,96.907 L34.468,93.319 L35.898,93.319 L36.067,92.123 L34.468,92.123 L34.468,90.407 L32.804,90.602 L32.804,92.123 L31.725,92.123 L31.725,93.319 L32.804,93.319 L32.804,96.946 C32.804,98.415 33.519,99.182 34.871,99.195 C35.482,99.195 36.106,99.026 36.6,98.675 Z M39.135,97.323 L39.135,89.185 L37.471,89.367 L37.471,97.44 C37.471,98.584 38.056,99.195 39.083,99.195 C39.512,99.195 39.928,99.104 40.266,98.961 L39.915,97.791 C39.798,97.83 39.655,97.856 39.525,97.856 C39.252,97.856 39.135,97.7 39.135,97.323 Z M46.883,95.399 C46.883,95.62 46.857,95.893 46.844,96.075 L42.528,96.075 C42.645,97.479 43.308,97.934 44.218,97.934 C44.829,97.934 45.336,97.739 45.934,97.323 L46.623,98.272 C45.947,98.818 45.115,99.195 44.075,99.195 C41.943,99.195 40.799,97.778 40.799,95.607 C40.799,93.514 41.904,91.928 43.854,91.928 C45.778,91.928 46.883,93.228 46.883,95.399 Z M45.232,94.996 L45.232,94.918 C45.232,93.787 44.829,93.111 43.893,93.111 C43.113,93.111 42.619,93.631 42.528,94.996 L45.232,94.996 Z M26.304,187.242 C27.331,187.437 28.358,187.918 28.358,189.413 C28.358,191.389 26.785,192 24.601,192 L21.897,192 L21.897,183.017 L24.25,183.017 C26.564,183.017 27.968,183.667 27.968,185.305 C27.968,186.423 27.162,187.06 26.304,187.242 Z M23.613,184.278 L23.613,186.709 L24.666,186.709 C25.602,186.709 26.213,186.293 26.213,185.448 C26.213,184.538 25.589,184.278 24.419,184.278 L23.613,184.278 Z M24.614,190.713 C25.745,190.713 26.564,190.479 26.564,189.348 C26.564,188.269 25.797,187.905 24.796,187.905 L23.613,187.905 L23.613,190.713 L24.614,190.713 Z M32.622,184.928 C34.65,184.928 35.846,186.306 35.846,188.555 C35.846,190.726 34.637,192.195 32.609,192.195 C30.581,192.195 29.372,190.817 29.372,188.555 C29.372,186.397 30.581,184.928 32.622,184.928 Z M32.622,186.189 C31.647,186.189 31.127,186.93 31.127,188.555 C31.127,190.206 31.634,190.934 32.609,190.934 C33.584,190.934 34.091,190.193 34.091,188.555 C34.091,186.917 33.584,186.189 32.622,186.189 Z M43.191,182.367 L43.191,192 L41.722,192 L41.605,191.129 C41.189,191.753 40.526,192.195 39.642,192.195 C37.926,192.195 37.029,190.752 37.029,188.568 C37.029,186.449 38.082,184.928 39.824,184.928 C40.526,184.928 41.098,185.24 41.527,185.669 L41.527,182.185 L43.191,182.367 Z M40.11,190.934 C40.721,190.934 41.137,190.635 41.527,190.05 L41.527,186.904 C41.163,186.462 40.786,186.176 40.227,186.176 C39.356,186.176 38.784,186.904 38.784,188.555 C38.784,190.323 39.291,190.934 40.11,190.934 Z M48.521,192.026 L50.757,185.123 L49.041,185.123 L47.481,190.895 L45.986,185.123 L44.218,185.123 L46.402,192 L46.974,192 C46.584,192.975 46.142,193.417 44.777,193.625 L44.946,194.834 C46.987,194.678 48.001,193.638 48.521,192.026 Z M25.303,239.822 C23.119,239.822 21.403,241.473 21.403,244.489 C21.403,247.544 23.028,249.195 25.355,249.195 C26.577,249.195 27.513,248.662 28.059,248.103 L27.253,247.063 C26.733,247.453 26.2,247.817 25.433,247.817 C24.146,247.817 23.21,246.855 23.21,244.489 C23.21,242.058 24.172,241.148 25.407,241.148 C26.031,241.148 26.564,241.369 27.071,241.798 L27.955,240.771 C27.227,240.16 26.486,239.822 25.303,239.822 Z M34.312,247.18 C34.312,247.739 34.494,247.934 34.832,248.064 L34.481,249.169 C33.727,249.104 33.233,248.831 32.96,248.168 C32.479,248.896 31.725,249.195 30.906,249.195 C29.528,249.195 28.683,248.324 28.683,247.076 C28.683,245.581 29.814,244.775 31.816,244.775 L32.674,244.775 L32.674,244.385 C32.674,243.488 32.271,243.189 31.387,243.189 C30.919,243.189 30.256,243.319 29.567,243.553 L29.177,242.422 C30.022,242.097 30.893,241.928 31.673,241.928 C33.506,241.928 34.312,242.773 34.312,244.294 L34.312,247.18 Z M31.348,247.986 C31.933,247.986 32.362,247.687 32.674,247.141 L32.674,245.75 L31.985,245.75 C30.906,245.75 30.373,246.14 30.373,246.946 C30.373,247.609 30.711,247.986 31.348,247.986 Z M39.863,241.928 C41.683,241.928 42.437,243.345 42.437,245.542 C42.437,247.648 41.462,249.195 39.72,249.195 C39.018,249.195 38.42,248.948 37.991,248.441 L37.991,251.652 L36.327,251.834 L36.327,242.123 L37.783,242.123 L37.874,242.968 C38.42,242.253 39.161,241.928 39.863,241.928 Z M39.252,247.921 C40.162,247.921 40.695,247.219 40.695,245.555 C40.695,243.813 40.227,243.176 39.369,243.176 C38.797,243.176 38.316,243.579 37.991,244.112 L37.991,247.206 C38.316,247.687 38.732,247.921 39.252,247.921 Z M48.014,248.675 L47.429,247.596 C47.13,247.778 46.87,247.856 46.61,247.856 C46.103,247.856 45.882,247.583 45.882,246.907 L45.882,243.319 L47.312,243.319 L47.481,242.123 L45.882,242.123 L45.882,240.407 L44.218,240.602 L44.218,242.123 L43.139,242.123 L43.139,243.319 L44.218,243.319 L44.218,246.946 C44.218,248.415 44.933,249.182 46.285,249.195 C46.896,249.195 47.52,249.026 48.014,248.675 Z M49.769,238.639 C49.158,238.639 48.729,239.081 48.729,239.653 C48.729,240.212 49.158,240.654 49.769,240.654 C50.393,240.654 50.822,240.212 50.822,239.653 C50.822,239.081 50.393,238.639 49.769,238.639 Z M50.614,249 L50.614,242.123 L48.95,242.123 L48.95,249 L50.614,249 Z M55.424,241.928 C57.452,241.928 58.648,243.306 58.648,245.555 C58.648,247.726 57.439,249.195 55.411,249.195 C53.383,249.195 52.174,247.817 52.174,245.555 C52.174,243.397 53.383,241.928 55.424,241.928 Z M55.424,243.189 C54.449,243.189 53.929,243.93 53.929,245.555 C53.929,247.206 54.436,247.934 55.411,247.934 C56.386,247.934 56.893,247.193 56.893,245.555 C56.893,243.917 56.386,243.189 55.424,243.189 Z M63.874,241.928 C63.003,241.928 62.314,242.331 61.781,243.02 L61.651,242.123 L60.208,242.123 L60.208,249 L61.872,249 L61.872,244.216 C62.275,243.579 62.717,243.176 63.315,243.176 C63.835,243.176 64.16,243.423 64.16,244.281 L64.16,249 L65.824,249 L65.824,244.021 C65.824,242.708 65.109,241.928 63.874,241.928 Z"/>
    <path fill="#000F40" d="M108.408,98.032 L108.408,83.952 L107.374,83.952 L107.374,99 L114.59,99 L114.744,98.032 L108.408,98.032 Z M118.022,82.632 C117.538,82.632 117.23,82.984 117.23,83.402 C117.23,83.82 117.538,84.172 118.022,84.172 C118.506,84.172 118.814,83.82 118.814,83.402 C118.814,82.984 118.506,82.632 118.022,82.632 Z M118.528,99 L118.528,87.516 L117.516,87.516 L117.516,99 L118.528,99 Z M131.64,87.648 C130.914,87.868 129.946,87.956 128.516,87.978 C129.682,88.528 130.452,89.518 130.452,91.19 C130.452,93.412 128.912,94.93 126.382,94.93 C125.832,94.93 125.304,94.842 124.864,94.688 C124.27,95.018 123.896,95.524 123.896,96.096 C123.896,96.822 124.38,97.372 125.832,97.372 L127.724,97.372 C129.968,97.372 131.31,98.538 131.31,100.21 C131.31,102.234 129.748,103.466 126.47,103.466 C123.104,103.466 121.74,102.498 121.74,100.232 L122.708,100.232 C122.73,101.948 123.632,102.586 126.47,102.586 C129.198,102.586 130.276,101.706 130.276,100.276 C130.276,99 129.264,98.274 127.57,98.274 L125.7,98.274 C123.852,98.274 122.906,97.394 122.906,96.294 C122.906,95.524 123.39,94.864 124.16,94.38 C122.862,93.698 122.246,92.686 122.246,91.124 C122.246,88.836 123.852,87.296 126.36,87.296 C129.528,87.318 130.276,87.054 131.31,86.636 L131.64,87.648 Z M126.382,88.11 C124.27,88.11 123.28,89.364 123.28,91.124 C123.28,93.082 124.534,94.138 126.36,94.138 C128.318,94.138 129.418,93.06 129.418,91.168 C129.418,89.32 128.428,88.11 126.382,88.11 Z M139.252,87.296 C137.558,87.296 136.282,88.198 135.314,89.54 L135.314,82.698 L134.302,82.83 L134.302,99 L135.314,99 L135.314,90.618 C136.304,89.166 137.448,88.132 139.098,88.132 C140.594,88.132 141.386,89.012 141.386,90.948 L141.386,99 L142.398,99 L142.398,90.816 C142.398,88.616 141.32,87.296 139.252,87.296 Z M152.144,98.538 L151.726,97.812 C151.154,98.142 150.56,98.34 149.878,98.34 C148.668,98.34 148.096,97.636 148.096,96.228 L148.096,88.374 L151,88.374 L151.132,87.516 L148.096,87.516 L148.096,84.612 L147.084,84.722 L147.084,87.516 L145.17,87.516 L145.17,88.374 L147.084,88.374 L147.084,96.294 C147.084,98.252 148.118,99.242 149.768,99.242 C150.692,99.242 151.462,98.978 152.144,98.538 Z M163.232,84.15 C161.494,84.15 160.24,84.81 159.096,86.196 L159.822,86.724 C160.68,85.668 161.714,85.03 163.188,85.03 C164.948,85.03 166.07,86.174 166.07,88 C166.07,90.64 164.794,92.18 159.272,98.12 L159.272,99 L167.368,99 L167.522,98.076 L160.482,98.076 C165.52,92.686 167.126,90.904 167.126,87.934 C167.126,85.778 165.674,84.15 163.232,84.15 Z M173.638,84.15 C171.9,84.15 170.646,84.81 169.502,86.196 L170.228,86.724 C171.086,85.668 172.12,85.03 173.594,85.03 C175.354,85.03 176.476,86.174 176.476,88 C176.476,90.64 175.2,92.18 169.678,98.12 L169.678,99 L177.774,99 L177.928,98.076 L170.888,98.076 C175.926,92.686 177.532,90.904 177.532,87.934 C177.532,85.778 176.08,84.15 173.638,84.15 Z M186.068,87.296 C188.818,87.296 190.226,89.452 190.226,93.192 C190.226,96.866 188.73,99.242 185.914,99.242 C184.418,99.242 183.252,98.494 182.548,97.57 L182.548,103.29 L181.536,103.466 L181.536,87.516 L182.416,87.516 L182.482,89.254 C183.318,88.088 184.528,87.296 186.068,87.296 Z M185.76,98.34 C187.96,98.34 189.148,96.58 189.148,93.192 C189.148,89.826 188.048,88.154 185.936,88.154 C184.396,88.154 183.406,89.012 182.548,90.178 L182.548,96.492 C183.296,97.614 184.374,98.34 185.76,98.34 Z M200.962,99 L196.892,92.84 L200.434,87.516 L199.268,87.516 L196.298,92.246 L193.328,87.516 L192.14,87.516 L195.66,92.884 L191.612,99 L192.778,99 L196.254,93.5 L199.752,99 L200.962,99 Z M109.672,118.964 C107.292,118.964 105.558,120.273 105.558,122.279 C105.558,124.064 106.578,125.084 109.128,125.883 C110.913,126.427 111.372,126.835 111.372,127.77 C111.372,128.807 110.556,129.385 109.349,129.385 C108.142,129.385 107.19,128.943 106.374,128.195 L105.065,129.623 C106.034,130.575 107.462,131.272 109.417,131.272 C112.273,131.272 113.973,129.759 113.973,127.6 C113.973,125.424 112.613,124.54 110.488,123.86 C108.567,123.265 108.125,122.925 108.125,122.109 C108.125,121.276 108.822,120.834 109.842,120.834 C110.794,120.834 111.61,121.14 112.426,121.837 L113.633,120.443 C112.613,119.491 111.423,118.964 109.672,118.964 Z M123.255,126.291 C123.255,126.597 123.221,126.971 123.204,127.226 L117.577,127.226 C117.747,128.96 118.563,129.47 119.719,129.47 C120.484,129.47 121.13,129.232 121.912,128.688 L122.915,130.048 C122.031,130.762 120.909,131.272 119.498,131.272 C116.608,131.272 115.095,129.368 115.095,126.546 C115.095,123.826 116.557,121.718 119.192,121.718 C121.742,121.718 123.255,123.418 123.255,126.291 Z M120.858,125.713 L120.858,125.611 C120.858,124.251 120.399,123.367 119.243,123.367 C118.291,123.367 117.696,124.013 117.577,125.713 L120.858,125.713 Z M134.781,121.718 C133.625,121.718 132.792,122.245 132.078,123.18 C131.738,122.245 130.956,121.718 129.936,121.718 C128.797,121.718 127.981,122.228 127.318,123.112 L127.131,121.99 L125.04,121.99 L125.04,131 L127.454,131 L127.454,124.778 C127.896,123.979 128.338,123.52 129.001,123.52 C129.494,123.52 129.885,123.809 129.885,124.846 L129.885,131 L132.299,131 L132.299,124.778 C132.758,123.979 133.2,123.52 133.863,123.52 C134.339,123.52 134.747,123.809 134.747,124.846 L134.747,131 L137.161,131 L137.161,124.438 C137.161,122.738 136.192,121.718 134.781,121.718 Z M140.646,117.349 C139.779,117.349 139.184,117.961 139.184,118.76 C139.184,119.559 139.779,120.171 140.646,120.171 C141.513,120.171 142.125,119.559 142.125,118.76 C142.125,117.961 141.513,117.349 140.646,117.349 Z M141.87,131 L141.87,121.99 L139.456,121.99 L139.456,131 L141.87,131 Z M149.078,121.718 C151.254,121.718 152.461,123.486 152.461,126.495 C152.461,129.283 151.118,131.272 148.891,131.272 C147.888,131.272 147.089,130.847 146.528,130.116 L146.392,131 L144.25,131 L144.25,118.403 L146.664,118.131 L146.664,122.959 C147.208,122.194 148.109,121.718 149.078,121.718 Z M148.228,129.487 C149.231,129.487 149.945,128.688 149.945,126.495 C149.945,124.149 149.282,123.503 148.33,123.503 C147.616,123.503 147.055,123.979 146.664,124.659 L146.664,128.518 C147.038,129.13 147.582,129.487 148.228,129.487 Z M158.173,121.718 C160.859,121.718 162.474,123.503 162.474,126.495 C162.474,129.351 160.859,131.272 158.156,131.272 C155.47,131.272 153.838,129.487 153.838,126.495 C153.838,123.622 155.453,121.718 158.173,121.718 Z M158.173,123.52 C156.966,123.52 156.354,124.438 156.354,126.495 C156.354,128.569 156.966,129.47 158.156,129.47 C159.346,129.47 159.958,128.552 159.958,126.495 C159.958,124.421 159.346,123.52 158.173,123.52 Z M166.639,128.637 L166.639,118.131 L164.225,118.403 L164.225,128.858 C164.225,130.422 165.041,131.272 166.469,131.272 C167.047,131.272 167.642,131.153 168.101,130.966 L167.608,129.249 C167.472,129.317 167.285,129.351 167.115,129.351 C166.792,129.351 166.639,129.147 166.639,128.637 Z M176.975,118.403 L176.975,131 L174.85,131 L174.714,129.895 C174.17,130.677 173.337,131.272 172.13,131.272 C169.869,131.272 168.713,129.368 168.713,126.495 C168.713,123.707 170.107,121.718 172.402,121.718 C173.269,121.718 174.017,122.092 174.561,122.619 L174.561,118.131 L176.975,118.403 Z M172.861,129.47 C173.575,129.47 174.102,129.096 174.561,128.382 L174.561,124.353 C174.119,123.826 173.677,123.503 173.014,123.503 C171.943,123.503 171.229,124.387 171.229,126.495 C171.229,128.756 171.875,129.47 172.861,129.47 Z M188.552,131 L188.552,119.542 L186.427,119.542 L182.619,121.837 L183.673,123.469 L186.189,121.922 L186.189,131 L188.552,131 Z M197.562,121.208 L197.562,119.542 L190.337,119.542 L190.337,121.378 L195.063,121.378 L191.153,130.524 L193.346,131.255 L197.562,121.208 Z M203.937,121.718 C206.317,121.718 207.32,123.571 207.32,126.478 C207.32,129.232 206.011,131.272 203.75,131.272 C202.849,131.272 202.084,130.949 201.523,130.303 L201.523,134.468 L199.109,134.74 L199.109,121.99 L201.234,121.99 L201.353,123.044 C202.067,122.126 203.053,121.718 203.937,121.718 Z M203.036,129.47 C204.141,129.47 204.804,128.603 204.804,126.495 C204.804,124.234 204.226,123.503 203.189,123.503 C202.509,123.503 201.931,123.979 201.523,124.659 L201.523,128.586 C201.914,129.181 202.407,129.47 203.036,129.47 Z M216.415,131 L213.457,126.172 L215.99,121.99 L213.406,121.99 L212.029,124.982 L210.618,121.99 L207.898,121.99 L210.55,126.257 L207.592,131 L210.244,131 L211.927,127.515 L213.644,131 L216.415,131 Z M109.264506,187.62 L107.659506,187.62 L107.659506,192 L106.234506,192 L106.234506,181.665 L108.949506,181.665 C111.529506,181.665 112.879506,182.655 112.879506,184.59 C112.879506,186.045 112.129506,186.915 110.644506,187.365 L113.434506,192 L111.739506,192 L109.264506,187.62 Z M109.099506,186.525 C110.539506,186.525 111.364506,185.985 111.364506,184.59 C111.364506,183.3 110.629506,182.775 108.934506,182.775 L107.659506,182.775 L107.659506,186.525 L109.099506,186.525 Z M120.829506,187.815 C120.829506,188.085 120.814506,188.34 120.799506,188.52 L115.759506,188.52 C115.894506,190.35 116.749506,191.055 117.889506,191.055 C118.669506,191.055 119.254506,190.845 119.944506,190.365 L120.544506,191.19 C119.764506,191.805 118.879506,192.18 117.784506,192.18 C115.579506,192.18 114.289506,190.635 114.289506,188.13 C114.289506,185.67 115.534506,183.915 117.574506,183.915 C119.704506,183.915 120.829506,185.4 120.829506,187.815 Z M119.464506,187.5 L119.464506,187.41 C119.464506,185.865 118.849506,185.01 117.604506,185.01 C116.554506,185.01 115.864506,185.745 115.759506,187.5 L119.464506,187.5 Z M129.484506,184.455 C128.824506,184.665 128.074506,184.695 127.174506,184.695 C128.104506,185.115 128.569506,185.775 128.569506,186.69 C128.569506,188.25 127.444506,189.375 125.554506,189.375 C125.194506,189.375 124.879506,189.33 124.549506,189.225 C124.324506,189.39 124.159506,189.675 124.159506,189.96 C124.159506,190.32 124.384506,190.605 125.194506,190.605 L126.454506,190.605 C128.074506,190.605 129.154506,191.535 129.154506,192.795 C129.154506,194.325 127.894506,195.195 125.449506,195.195 C122.869506,195.195 122.059506,194.4 122.059506,192.795 L123.304506,192.795 C123.304506,193.695 123.709506,194.115 125.449506,194.115 C127.159506,194.115 127.759506,193.68 127.759506,192.885 C127.759506,192.135 127.159506,191.76 126.169506,191.76 L124.924506,191.76 C123.514506,191.76 122.884506,191.055 122.884506,190.26 C122.884506,189.75 123.184506,189.24 123.754506,188.865 C122.839506,188.385 122.419506,187.695 122.419506,186.675 C122.419506,185.055 123.724506,183.915 125.464506,183.915 C127.429506,183.96 128.149506,183.63 129.079506,183.21 L129.484506,184.455 Z M125.464506,184.905 C124.399506,184.905 123.829506,185.64 123.829506,186.675 C123.829506,187.725 124.414506,188.46 125.494506,188.46 C126.574506,188.46 127.159506,187.8 127.159506,186.66 C127.159506,185.505 126.589506,184.905 125.464506,184.905 Z M136.789506,192 L136.789506,184.095 L135.409506,184.095 L135.409506,189.735 C134.929506,190.53 134.284506,191.1 133.429506,191.1 C132.574506,191.1 132.214506,190.695 132.214506,189.615 L132.214506,184.095 L130.834506,184.095 L130.834506,189.765 C130.834506,191.31 131.659506,192.18 133.039506,192.18 C134.164506,192.18 134.899506,191.73 135.499506,190.77 L135.604506,192 L136.789506,192 Z M140.944506,190.41 L140.944506,180.75 L139.564506,180.915 L139.564506,190.44 C139.564506,191.58 140.134506,192.18 141.139506,192.18 C141.544506,192.18 141.934506,192.09 142.309506,191.91 L141.949506,190.95 C141.799506,191.01 141.634506,191.04 141.439506,191.04 C141.079506,191.04 140.944506,190.83 140.944506,190.41 Z M149.359506,190.155 C149.359506,190.845 149.614506,191.07 150.019506,191.22 L149.704506,192.18 C148.909506,192.09 148.399506,191.775 148.159506,190.995 C147.604506,191.82 146.764506,192.18 145.804506,192.18 C144.229506,192.18 143.284506,191.205 143.284506,189.795 C143.284506,188.1 144.559506,187.185 146.764506,187.185 L147.979506,187.185 L147.979506,186.6 C147.979506,185.46 147.424506,185.04 146.329506,185.04 C145.744506,185.04 145.009506,185.19 144.199506,185.46 L143.854506,184.455 C144.829506,184.095 145.699506,183.915 146.584506,183.915 C148.489506,183.915 149.359506,184.89 149.359506,186.54 L149.359506,190.155 Z M146.119506,191.145 C146.929506,191.145 147.529506,190.74 147.979506,189.915 L147.979506,188.1 L146.944506,188.1 C145.489506,188.1 144.754506,188.64 144.754506,189.72 C144.754506,190.65 145.219506,191.145 146.119506,191.145 Z M155.629506,183.915 C154.669506,183.915 153.934506,184.515 153.514506,185.7 L153.379506,184.095 L152.194506,184.095 L152.194506,192 L153.574506,192 L153.574506,187.485 C153.904506,185.97 154.474506,185.265 155.464506,185.265 C155.749506,185.265 155.914506,185.295 156.154506,185.355 L156.409506,184.005 C156.169506,183.945 155.884506,183.915 155.629506,183.915 Z M165.379506,192 L165.379506,181.965 L164.164506,181.965 L161.059506,183.885 L161.659506,184.86 L163.999506,183.435 L163.999506,192 L165.379506,192 Z M173.329506,183.045 L173.524506,181.965 L168.094506,181.965 L168.094506,187.02 L169.174506,187.02 C169.654506,186.795 170.059506,186.675 170.599506,186.675 C171.634506,186.675 172.429506,187.215 172.429506,188.76 C172.429506,190.23 171.634506,191.055 170.374506,191.055 C169.504506,191.055 168.859506,190.74 168.259506,190.095 L167.419506,190.905 C168.199506,191.7 169.114506,192.18 170.389506,192.18 C172.474506,192.18 173.869506,190.785 173.869506,188.79 C173.869506,186.795 172.714506,185.61 171.019506,185.61 C170.479506,185.61 169.939506,185.73 169.414506,186 L169.414506,183.045 L173.329506,183.045 Z M179.599506,183.915 C181.699506,183.915 182.524506,185.55 182.524506,188.04 C182.524506,190.44 181.459506,192.18 179.419506,192.18 C178.564506,192.18 177.859506,191.895 177.349506,191.28 L177.349506,195.03 L175.969506,195.195 L175.969506,184.095 L177.154506,184.095 L177.259506,185.16 C177.844506,184.35 178.699506,183.915 179.599506,183.915 Z M179.089506,191.055 C180.349506,191.055 181.039506,190.11 181.039506,188.04 C181.039506,185.985 180.439506,185.01 179.254506,185.01 C178.414506,185.01 177.769506,185.61 177.349506,186.24 L177.349506,190.095 C177.754506,190.71 178.369506,191.055 179.089506,191.055 Z M190.354506,192 L187.609506,187.77 L190.039506,184.095 L188.479506,184.095 L186.814506,186.99 L185.164506,184.095 L183.544506,184.095 L185.989506,187.83 L183.229506,192 L184.789506,192 L186.754506,188.655 L188.689506,192 L190.354506,192 Z M109.039947,214.204 L107.648947,214.204 L107.648947,218 L106.413947,218 L106.413947,209.043 L108.766947,209.043 C111.002947,209.043 112.172947,209.901 112.172947,211.578 C112.172947,212.839 111.522947,213.593 110.235947,213.983 L112.653947,218 L111.184947,218 L109.039947,214.204 Z M108.896947,213.255 C110.144947,213.255 110.859947,212.787 110.859947,211.578 C110.859947,210.46 110.222947,210.005 108.753947,210.005 L107.648947,210.005 L107.648947,213.255 L108.896947,213.255 Z M119.062947,214.373 C119.062947,214.607 119.049947,214.828 119.036947,214.984 L114.668947,214.984 C114.785947,216.57 115.526947,217.181 116.514947,217.181 C117.190947,217.181 117.697947,216.999 118.295947,216.583 L118.815947,217.298 C118.139947,217.831 117.372947,218.156 116.423947,218.156 C114.512947,218.156 113.394947,216.817 113.394947,214.646 C113.394947,212.514 114.473947,210.993 116.241947,210.993 C118.087947,210.993 119.062947,212.28 119.062947,214.373 Z M117.879947,214.1 L117.879947,214.022 C117.879947,212.683 117.346947,211.942 116.267947,211.942 C115.357947,211.942 114.759947,212.579 114.668947,214.1 L117.879947,214.1 Z M126.563947,211.461 C125.991947,211.643 125.341947,211.669 124.561947,211.669 C125.367947,212.033 125.770947,212.605 125.770947,213.398 C125.770947,214.75 124.795947,215.725 123.157947,215.725 C122.845947,215.725 122.572947,215.686 122.286947,215.595 C122.091947,215.738 121.948947,215.985 121.948947,216.232 C121.948947,216.544 122.143947,216.791 122.845947,216.791 L123.937947,216.791 C125.341947,216.791 126.277947,217.597 126.277947,218.689 C126.277947,220.015 125.185947,220.769 123.066947,220.769 C120.830947,220.769 120.128947,220.08 120.128947,218.689 L121.207947,218.689 C121.207947,219.469 121.558947,219.833 123.066947,219.833 C124.548947,219.833 125.068947,219.456 125.068947,218.767 C125.068947,218.117 124.548947,217.792 123.690947,217.792 L122.611947,217.792 C121.389947,217.792 120.843947,217.181 120.843947,216.492 C120.843947,216.05 121.103947,215.608 121.597947,215.283 C120.804947,214.867 120.440947,214.269 120.440947,213.385 C120.440947,211.981 121.571947,210.993 123.079947,210.993 C124.782947,211.032 125.406947,210.746 126.212947,210.382 L126.563947,211.461 Z M123.079947,211.851 C122.156947,211.851 121.662947,212.488 121.662947,213.385 C121.662947,214.295 122.169947,214.932 123.105947,214.932 C124.041947,214.932 124.548947,214.36 124.548947,213.372 C124.548947,212.371 124.054947,211.851 123.079947,211.851 Z M132.894947,218 L132.894947,211.149 L131.698947,211.149 L131.698947,216.037 C131.282947,216.726 130.723947,217.22 129.982947,217.22 C129.241947,217.22 128.929947,216.869 128.929947,215.933 L128.929947,211.149 L127.733947,211.149 L127.733947,216.063 C127.733947,217.402 128.448947,218.156 129.644947,218.156 C130.619947,218.156 131.256947,217.766 131.776947,216.934 L131.867947,218 L132.894947,218 Z M136.495947,216.622 L136.495947,208.25 L135.299947,208.393 L135.299947,216.648 C135.299947,217.636 135.793947,218.156 136.664947,218.156 C137.015947,218.156 137.353947,218.078 137.678947,217.922 L137.366947,217.09 C137.236947,217.142 137.093947,217.168 136.924947,217.168 C136.612947,217.168 136.495947,216.986 136.495947,216.622 Z M143.788947,216.401 C143.788947,216.999 144.009947,217.194 144.360947,217.324 L144.087947,218.156 C143.398947,218.078 142.956947,217.805 142.748947,217.129 C142.267947,217.844 141.539947,218.156 140.707947,218.156 C139.342947,218.156 138.523947,217.311 138.523947,216.089 C138.523947,214.62 139.628947,213.827 141.539947,213.827 L142.592947,213.827 L142.592947,213.32 C142.592947,212.332 142.111947,211.968 141.162947,211.968 C140.655947,211.968 140.018947,212.098 139.316947,212.332 L139.017947,211.461 C139.862947,211.149 140.616947,210.993 141.383947,210.993 C143.034947,210.993 143.788947,211.838 143.788947,213.268 L143.788947,216.401 Z M140.980947,217.259 C141.682947,217.259 142.202947,216.908 142.592947,216.193 L142.592947,214.62 L141.695947,214.62 C140.434947,214.62 139.797947,215.088 139.797947,216.024 C139.797947,216.83 140.200947,217.259 140.980947,217.259 Z M149.222947,210.993 C148.390947,210.993 147.753947,211.513 147.389947,212.54 L147.272947,211.149 L146.245947,211.149 L146.245947,218 L147.441947,218 L147.441947,214.087 C147.727947,212.774 148.221947,212.163 149.079947,212.163 C149.326947,212.163 149.469947,212.189 149.677947,212.241 L149.898947,211.071 C149.690947,211.019 149.443947,210.993 149.222947,210.993 Z M157.672947,218 L157.672947,209.303 L156.619947,209.303 L153.928947,210.967 L154.448947,211.812 L156.476947,210.577 L156.476947,218 L157.672947,218 Z M162.027947,209.173 C161.091947,209.173 160.285947,209.511 159.544947,210.2 L160.168947,210.915 C160.753947,210.369 161.273947,210.135 161.962947,210.135 C162.833947,210.135 163.405947,210.642 163.405947,211.461 C163.405947,212.475 162.690947,212.995 161.832947,212.995 L161.390947,212.995 L161.247947,213.918 L161.897947,213.918 C162.950947,213.918 163.626947,214.282 163.626947,215.478 C163.626947,216.505 162.963947,217.181 161.871947,217.181 C161.169947,217.181 160.571947,216.921 160.025947,216.31 L159.297947,216.986 C159.960947,217.779 160.870947,218.156 161.910947,218.156 C163.717947,218.156 164.874947,217.012 164.874947,215.491 C164.874947,214.178 164.003947,213.489 162.911947,213.385 C163.886947,213.151 164.601947,212.488 164.601947,211.383 C164.601947,210.213 163.691947,209.173 162.027947,209.173 Z M169.970947,210.993 C171.790947,210.993 172.505947,212.41 172.505947,214.568 C172.505947,216.648 171.582947,218.156 169.814947,218.156 C169.073947,218.156 168.462947,217.909 168.020947,217.376 L168.020947,220.626 L166.824947,220.769 L166.824947,211.149 L167.851947,211.149 L167.942947,212.072 C168.449947,211.37 169.190947,210.993 169.970947,210.993 Z M169.528947,217.181 C170.620947,217.181 171.218947,216.362 171.218947,214.568 C171.218947,212.787 170.698947,211.942 169.671947,211.942 C168.943947,211.942 168.384947,212.462 168.020947,213.008 L168.020947,216.349 C168.371947,216.882 168.904947,217.181 169.528947,217.181 Z M179.291947,218 L176.912947,214.334 L179.018947,211.149 L177.666947,211.149 L176.223947,213.658 L174.793947,211.149 L173.389947,211.149 L175.508947,214.386 L173.116947,218 L174.468947,218 L176.171947,215.101 L177.848947,218 L179.291947,218 Z M109.039947,245.204 L107.648947,245.204 L107.648947,249 L106.413947,249 L106.413947,240.043 L108.766947,240.043 C111.002947,240.043 112.172947,240.901 112.172947,242.578 C112.172947,243.839 111.522947,244.593 110.235947,244.983 L112.653947,249 L111.184947,249 L109.039947,245.204 Z M108.896947,244.255 C110.144947,244.255 110.859947,243.787 110.859947,242.578 C110.859947,241.46 110.222947,241.005 108.753947,241.005 L107.648947,241.005 L107.648947,244.255 L108.896947,244.255 Z M119.062947,245.373 C119.062947,245.607 119.049947,245.828 119.036947,245.984 L114.668947,245.984 C114.785947,247.57 115.526947,248.181 116.514947,248.181 C117.190947,248.181 117.697947,247.999 118.295947,247.583 L118.815947,248.298 C118.139947,248.831 117.372947,249.156 116.423947,249.156 C114.512947,249.156 113.394947,247.817 113.394947,245.646 C113.394947,243.514 114.473947,241.993 116.241947,241.993 C118.087947,241.993 119.062947,243.28 119.062947,245.373 Z M117.879947,245.1 L117.879947,245.022 C117.879947,243.683 117.346947,242.942 116.267947,242.942 C115.357947,242.942 114.759947,243.579 114.668947,245.1 L117.879947,245.1 Z M126.563947,242.461 C125.991947,242.643 125.341947,242.669 124.561947,242.669 C125.367947,243.033 125.770947,243.605 125.770947,244.398 C125.770947,245.75 124.795947,246.725 123.157947,246.725 C122.845947,246.725 122.572947,246.686 122.286947,246.595 C122.091947,246.738 121.948947,246.985 121.948947,247.232 C121.948947,247.544 122.143947,247.791 122.845947,247.791 L123.937947,247.791 C125.341947,247.791 126.277947,248.597 126.277947,249.689 C126.277947,251.015 125.185947,251.769 123.066947,251.769 C120.830947,251.769 120.128947,251.08 120.128947,249.689 L121.207947,249.689 C121.207947,250.469 121.558947,250.833 123.066947,250.833 C124.548947,250.833 125.068947,250.456 125.068947,249.767 C125.068947,249.117 124.548947,248.792 123.690947,248.792 L122.611947,248.792 C121.389947,248.792 120.843947,248.181 120.843947,247.492 C120.843947,247.05 121.103947,246.608 121.597947,246.283 C120.804947,245.867 120.440947,245.269 120.440947,244.385 C120.440947,242.981 121.571947,241.993 123.079947,241.993 C124.782947,242.032 125.406947,241.746 126.212947,241.382 L126.563947,242.461 Z M123.079947,242.851 C122.156947,242.851 121.662947,243.488 121.662947,244.385 C121.662947,245.295 122.169947,245.932 123.105947,245.932 C124.041947,245.932 124.548947,245.36 124.548947,244.372 C124.548947,243.371 124.054947,242.851 123.079947,242.851 Z M132.894947,249 L132.894947,242.149 L131.698947,242.149 L131.698947,247.037 C131.282947,247.726 130.723947,248.22 129.982947,248.22 C129.241947,248.22 128.929947,247.869 128.929947,246.933 L128.929947,242.149 L127.733947,242.149 L127.733947,247.063 C127.733947,248.402 128.448947,249.156 129.644947,249.156 C130.619947,249.156 131.256947,248.766 131.776947,247.934 L131.867947,249 L132.894947,249 Z M136.495947,247.622 L136.495947,239.25 L135.299947,239.393 L135.299947,247.648 C135.299947,248.636 135.793947,249.156 136.664947,249.156 C137.015947,249.156 137.353947,249.078 137.678947,248.922 L137.366947,248.09 C137.236947,248.142 137.093947,248.168 136.924947,248.168 C136.612947,248.168 136.495947,247.986 136.495947,247.622 Z M143.788947,247.401 C143.788947,247.999 144.009947,248.194 144.360947,248.324 L144.087947,249.156 C143.398947,249.078 142.956947,248.805 142.748947,248.129 C142.267947,248.844 141.539947,249.156 140.707947,249.156 C139.342947,249.156 138.523947,248.311 138.523947,247.089 C138.523947,245.62 139.628947,244.827 141.539947,244.827 L142.592947,244.827 L142.592947,244.32 C142.592947,243.332 142.111947,242.968 141.162947,242.968 C140.655947,242.968 140.018947,243.098 139.316947,243.332 L139.017947,242.461 C139.862947,242.149 140.616947,241.993 141.383947,241.993 C143.034947,241.993 143.788947,242.838 143.788947,244.268 L143.788947,247.401 Z M140.980947,248.259 C141.682947,248.259 142.202947,247.908 142.592947,247.193 L142.592947,245.62 L141.695947,245.62 C140.434947,245.62 139.797947,246.088 139.797947,247.024 C139.797947,247.83 140.200947,248.259 140.980947,248.259 Z M149.222947,241.993 C148.390947,241.993 147.753947,242.513 147.389947,243.54 L147.272947,242.149 L146.245947,242.149 L146.245947,249 L147.441947,249 L147.441947,245.087 C147.727947,243.774 148.221947,243.163 149.079947,243.163 C149.326947,243.163 149.469947,243.189 149.677947,243.241 L149.898947,242.071 C149.690947,242.019 149.443947,241.993 149.222947,241.993 Z M157.672947,249 L157.672947,240.303 L156.619947,240.303 L153.928947,241.967 L154.448947,242.812 L156.476947,241.577 L156.476947,249 L157.672947,249 Z M162.027947,240.173 C161.091947,240.173 160.285947,240.511 159.544947,241.2 L160.168947,241.915 C160.753947,241.369 161.273947,241.135 161.962947,241.135 C162.833947,241.135 163.405947,241.642 163.405947,242.461 C163.405947,243.475 162.690947,243.995 161.832947,243.995 L161.390947,243.995 L161.247947,244.918 L161.897947,244.918 C162.950947,244.918 163.626947,245.282 163.626947,246.478 C163.626947,247.505 162.963947,248.181 161.871947,248.181 C161.169947,248.181 160.571947,247.921 160.025947,247.31 L159.297947,247.986 C159.960947,248.779 160.870947,249.156 161.910947,249.156 C163.717947,249.156 164.874947,248.012 164.874947,246.491 C164.874947,245.178 164.003947,244.489 162.911947,244.385 C163.886947,244.151 164.601947,243.488 164.601947,242.383 C164.601947,241.213 163.691947,240.173 162.027947,240.173 Z M169.970947,241.993 C171.790947,241.993 172.505947,243.41 172.505947,245.568 C172.505947,247.648 171.582947,249.156 169.814947,249.156 C169.073947,249.156 168.462947,248.909 168.020947,248.376 L168.020947,251.626 L166.824947,251.769 L166.824947,242.149 L167.851947,242.149 L167.942947,243.072 C168.449947,242.37 169.190947,241.993 169.970947,241.993 Z M169.528947,248.181 C170.620947,248.181 171.218947,247.362 171.218947,245.568 C171.218947,243.787 170.698947,242.942 169.671947,242.942 C168.943947,242.942 168.384947,243.462 168.020947,244.008 L168.020947,247.349 C168.371947,247.882 168.904947,248.181 169.528947,248.181 Z M179.291947,249 L176.912947,245.334 L179.018947,242.149 L177.666947,242.149 L176.223947,244.658 L174.793947,242.149 L173.389947,242.149 L175.508947,245.386 L173.116947,249 L174.468947,249 L176.171947,246.101 L177.848947,249 L179.291947,249 Z M108.435947,268.788 L107.258947,268.788 L107.258947,272 L106.213947,272 L106.213947,264.421 L108.204947,264.421 C110.096947,264.421 111.086947,265.147 111.086947,266.566 C111.086947,267.633 110.536947,268.271 109.447947,268.601 L111.493947,272 L110.250947,272 L108.435947,268.788 Z M108.314947,267.985 C109.370947,267.985 109.975947,267.589 109.975947,266.566 C109.975947,265.62 109.436947,265.235 108.193947,265.235 L107.258947,265.235 L107.258947,267.985 L108.314947,267.985 Z M116.916947,268.931 C116.916947,269.129 116.905947,269.316 116.894947,269.448 L113.198947,269.448 C113.297947,270.79 113.924947,271.307 114.760947,271.307 C115.332947,271.307 115.761947,271.153 116.267947,270.801 L116.707947,271.406 C116.135947,271.857 115.486947,272.132 114.683947,272.132 C113.066947,272.132 112.120947,270.999 112.120947,269.162 C112.120947,267.358 113.033947,266.071 114.529947,266.071 C116.091947,266.071 116.916947,267.16 116.916947,268.931 Z M115.915947,268.7 L115.915947,268.634 C115.915947,267.501 115.464947,266.874 114.551947,266.874 C113.781947,266.874 113.275947,267.413 113.198947,268.7 L115.915947,268.7 Z M123.263947,266.467 C122.779947,266.621 122.229947,266.643 121.569947,266.643 C122.251947,266.951 122.592947,267.435 122.592947,268.106 C122.592947,269.25 121.767947,270.075 120.381947,270.075 C120.117947,270.075 119.886947,270.042 119.644947,269.965 C119.479947,270.086 119.358947,270.295 119.358947,270.504 C119.358947,270.768 119.523947,270.977 120.117947,270.977 L121.041947,270.977 C122.229947,270.977 123.021947,271.659 123.021947,272.583 C123.021947,273.705 122.097947,274.343 120.304947,274.343 C118.412947,274.343 117.818947,273.76 117.818947,272.583 L118.731947,272.583 C118.731947,273.243 119.028947,273.551 120.304947,273.551 C121.558947,273.551 121.998947,273.232 121.998947,272.649 C121.998947,272.099 121.558947,271.824 120.832947,271.824 L119.919947,271.824 C118.885947,271.824 118.423947,271.307 118.423947,270.724 C118.423947,270.35 118.643947,269.976 119.061947,269.701 C118.390947,269.349 118.082947,268.843 118.082947,268.095 C118.082947,266.907 119.039947,266.071 120.315947,266.071 C121.756947,266.104 122.284947,265.862 122.966947,265.554 L123.263947,266.467 Z M120.315947,266.797 C119.534947,266.797 119.116947,267.336 119.116947,268.095 C119.116947,268.865 119.545947,269.404 120.337947,269.404 C121.129947,269.404 121.558947,268.92 121.558947,268.084 C121.558947,267.237 121.140947,266.797 120.315947,266.797 Z M128.620947,272 L128.620947,266.203 L127.608947,266.203 L127.608947,270.339 C127.256947,270.922 126.783947,271.34 126.156947,271.34 C125.529947,271.34 125.265947,271.043 125.265947,270.251 L125.265947,266.203 L124.253947,266.203 L124.253947,270.361 C124.253947,271.494 124.858947,272.132 125.870947,272.132 C126.695947,272.132 127.234947,271.802 127.674947,271.098 L127.751947,272 L128.620947,272 Z M131.667947,270.834 L131.667947,263.75 L130.655947,263.871 L130.655947,270.856 C130.655947,271.692 131.073947,272.132 131.810947,272.132 C132.107947,272.132 132.393947,272.066 132.668947,271.934 L132.404947,271.23 C132.294947,271.274 132.173947,271.296 132.030947,271.296 C131.766947,271.296 131.667947,271.142 131.667947,270.834 Z M137.838947,270.647 C137.838947,271.153 138.025947,271.318 138.322947,271.428 L138.091947,272.132 C137.508947,272.066 137.134947,271.835 136.958947,271.263 C136.551947,271.868 135.935947,272.132 135.231947,272.132 C134.076947,272.132 133.383947,271.417 133.383947,270.383 C133.383947,269.14 134.318947,268.469 135.935947,268.469 L136.826947,268.469 L136.826947,268.04 C136.826947,267.204 136.419947,266.896 135.616947,266.896 C135.187947,266.896 134.648947,267.006 134.054947,267.204 L133.801947,266.467 C134.516947,266.203 135.154947,266.071 135.803947,266.071 C137.200947,266.071 137.838947,266.786 137.838947,267.996 L137.838947,270.647 Z M135.462947,271.373 C136.056947,271.373 136.496947,271.076 136.826947,270.471 L136.826947,269.14 L136.067947,269.14 C135.000947,269.14 134.461947,269.536 134.461947,270.328 C134.461947,271.01 134.802947,271.373 135.462947,271.373 Z M142.436947,266.071 C141.732947,266.071 141.193947,266.511 140.885947,267.38 L140.786947,266.203 L139.917947,266.203 L139.917947,272 L140.929947,272 L140.929947,268.689 C141.171947,267.578 141.589947,267.061 142.315947,267.061 C142.524947,267.061 142.645947,267.083 142.821947,267.127 L143.008947,266.137 C142.832947,266.093 142.623947,266.071 142.436947,266.071 Z M149.586947,272 L149.586947,264.641 L148.695947,264.641 L146.418947,266.049 L146.858947,266.764 L148.574947,265.719 L148.574947,272 L149.586947,272 Z M154.349947,272 L154.349947,264.641 L153.458947,264.641 L151.181947,266.049 L151.621947,266.764 L153.337947,265.719 L153.337947,272 L154.349947,272 Z M159.266947,266.071 C160.806947,266.071 161.411947,267.27 161.411947,269.096 C161.411947,270.856 160.630947,272.132 159.134947,272.132 C158.507947,272.132 157.990947,271.923 157.616947,271.472 L157.616947,274.222 L156.604947,274.343 L156.604947,266.203 L157.473947,266.203 L157.550947,266.984 C157.979947,266.39 158.606947,266.071 159.266947,266.071 Z M158.892947,271.307 C159.816947,271.307 160.322947,270.614 160.322947,269.096 C160.322947,267.589 159.882947,266.874 159.013947,266.874 C158.397947,266.874 157.924947,267.314 157.616947,267.776 L157.616947,270.603 C157.913947,271.054 158.364947,271.307 158.892947,271.307 Z M167.153947,272 L165.140947,268.898 L166.922947,266.203 L165.778947,266.203 L164.557947,268.326 L163.347947,266.203 L162.159947,266.203 L163.952947,268.942 L161.928947,272 L163.072947,272 L164.513947,269.547 L165.932947,272 L167.153947,272 Z M110.486,152.229 C111.487,152.424 112.514,152.918 112.514,154.374 C112.514,156.428 110.85,157 108.588,157 L105.689,157 L105.689,147.991 L108.237,147.991 C110.655,147.991 112.137,148.602 112.137,150.292 C112.137,151.436 111.318,152.034 110.486,152.229 Z M107.821,149.499 L107.821,151.592 L108.614,151.592 C109.498,151.592 109.966,151.254 109.966,150.5 C109.966,149.746 109.472,149.499 108.445,149.499 L107.821,149.499 Z M108.601,155.453 C109.602,155.453 110.317,155.245 110.317,154.257 C110.317,153.347 109.68,153.009 108.757,153.009 L107.821,153.009 L107.821,155.453 L108.601,155.453 Z M116.661,149.876 C118.767,149.876 120.041,151.228 120.041,153.555 C120.041,155.765 118.767,157.221 116.661,157.221 C114.568,157.221 113.281,155.869 113.281,153.542 C113.281,151.332 114.555,149.876 116.661,149.876 Z M116.661,151.384 C115.829,151.384 115.413,152.047 115.413,153.542 C115.413,155.076 115.829,155.713 116.661,155.713 C117.493,155.713 117.909,155.05 117.909,153.555 C117.909,152.021 117.493,151.384 116.661,151.384 Z M123.252,155.063 L123.252,147.133 L121.198,147.354 L121.198,155.271 C121.198,156.545 121.874,157.221 123.018,157.221 C123.499,157.221 123.993,157.13 124.344,156.987 L123.941,155.531 C123.85,155.57 123.707,155.596 123.603,155.596 C123.382,155.596 123.252,155.453 123.252,155.063 Z M131.182,147.354 L131.182,157 L129.362,157 L129.258,156.194 C128.855,156.766 128.231,157.221 127.295,157.221 C125.54,157.221 124.669,155.765 124.669,153.529 C124.669,151.397 125.748,149.876 127.529,149.876 C128.166,149.876 128.725,150.123 129.128,150.526 L129.128,147.133 L131.182,147.354 Z M127.945,155.713 C128.426,155.713 128.803,155.453 129.128,154.933 L129.128,151.956 C128.816,151.592 128.517,151.371 128.062,151.371 C127.321,151.371 126.801,151.995 126.801,153.542 C126.801,155.258 127.269,155.713 127.945,155.713 Z M140.035,157 L140.035,148.212 L138.202,148.212 L135.238,150.006 L136.135,151.371 L138.02,150.214 L138.02,157 L140.035,157 Z M144.208,148.03 C143.038,148.03 142.063,148.433 141.244,149.213 L142.258,150.318 C142.778,149.811 143.324,149.551 143.974,149.551 C144.689,149.551 145.144,149.928 145.144,150.565 C145.144,151.293 144.663,151.709 143.883,151.709 L143.376,151.709 L143.155,153.126 L143.883,153.126 C144.806,153.126 145.313,153.464 145.313,154.387 C145.313,155.193 144.754,155.661 143.948,155.661 C143.259,155.661 142.726,155.401 142.18,154.803 L141.049,155.895 C141.738,156.727 142.739,157.221 144.065,157.221 C146.236,157.221 147.419,155.986 147.419,154.517 C147.419,153.126 146.509,152.476 145.417,152.359 C146.496,152.047 147.133,151.332 147.133,150.266 C147.133,149.031 146.106,148.03 144.208,148.03 Z M152.528,149.876 C154.348,149.876 155.141,151.293 155.141,153.529 C155.141,155.661 154.101,157.221 152.398,157.221 C151.722,157.221 151.15,156.987 150.721,156.506 L150.721,159.665 L148.667,159.886 L148.667,150.097 L150.474,150.097 L150.578,150.864 C151.15,150.149 151.891,149.876 152.528,149.876 Z M151.774,155.713 C152.541,155.713 153.009,155.102 153.009,153.555 C153.009,151.839 152.593,151.384 151.878,151.384 C151.423,151.384 151.02,151.683 150.721,152.19 L150.721,155.102 C151.007,155.518 151.345,155.713 151.774,155.713 Z M162.148,157 L159.925,153.308 L161.81,150.097 L159.626,150.097 L158.703,152.307 L157.741,150.097 L155.44,150.097 L157.442,153.373 L155.219,157 L157.455,157 L158.625,154.413 L159.821,157 L162.148,157 Z"/>
  </g>
</svg>
