<svg xmlns="http://www.w3.org/2000/svg" width="316" height="215" viewBox="0 0 316 215">
  <g fill="none" fill-rule="evenodd">
    <rect width="316" height="321" fill="#0060DF"/>
    <path fill="#FFF" d="M32.0527344 44L30.4951172 39.5634766 24.3291016 39.5634766 22.7714844 44 20.7412109 44 26.4560547 28.4990234 28.3681641 28.4990234 34.0830078 44 32.0527344 44zM27.3261719 31.0019531L24.8984375 37.9199219 29.9257812 37.9199219 27.4980469 31.0019531 27.3261719 31.0019531zM49.0576172 44L43.0097656 44 43.0097656 28.4990234 48.9394531 28.4990234C51.7861328 28.4990234 53.5263672 29.9921875 53.5263672 32.3662109 53.5263672 33.9775391 52.3447266 35.4384766 50.8515625 35.7070312L50.8515625 35.8789062C52.9677734 36.1474609 54.3105469 37.5976562 54.3105469 39.6494141 54.3105469 42.3779297 52.3554688 44 49.0576172 44zM44.9433594 30.2070312L44.9433594 35.1806641 48.0371094 35.1806641C50.3789062 35.1806641 51.5712891 34.3427734 51.5712891 32.6992188 51.5712891 31.1201172 50.4541016 30.2070312 48.53125 30.2070312L44.9433594 30.2070312zM44.9433594 42.2919922L48.7675781 42.2919922C51.0986328 42.2919922 52.3232422 41.3466797 52.3232422 39.5527344 52.3232422 37.7587891 51.0556641 36.8457031 48.5849609 36.8457031L44.9433594 36.8457031 44.9433594 42.2919922zM69.9189453 44.3652344C73.2167969 44.3652344 75.6660156 42.5283203 76.1816406 39.6816406L74.2158203 39.6816406C73.7216797 41.4755859 72.078125 42.5820312 69.9189453 42.5820312 66.9326172 42.5820312 65.0634766 40.1435547 65.0634766 36.2548828 65.0634766 32.3662109 66.9326172 29.9169922 69.9082031 29.9169922 72.0458984 29.9169922 73.7001953 31.1738281 74.2158203 33.171875L76.1816406 33.171875C75.7197266 30.1855469 73.1738281 28.1337891 69.9082031 28.1337891 65.6972656 28.1337891 63.0761719 31.2490234 63.0761719 36.2548828 63.0761719 41.25 65.7080078 44.3652344 69.9189453 44.3652344zM85.6347656 28.4990234L90.9521484 28.4990234C95.5498047 28.4990234 98.2675781 31.3671875 98.2675781 36.2441406 98.2675781 41.1318359 95.5605469 44 90.9521484 44L85.6347656 44 85.6347656 28.4990234zM87.5683594 30.2392578L87.5683594 42.2597656 90.8232422 42.2597656C94.2822266 42.2597656 96.2910156 40.046875 96.2910156 36.265625 96.2910156 32.4736328 94.2607422 30.2392578 90.8232422 30.2392578L87.5683594 30.2392578zM117.420898 42.2597656L109.750977 42.2597656 109.750977 36.9316406 117.023438 36.9316406 117.023438 35.2128906 109.750977 35.2128906 109.750977 30.2392578 117.420898 30.2392578 117.420898 28.4990234 107.817383 28.4990234 107.817383 44 117.420898 44 117.420898 42.2597656zM129.06543 44L129.06543 37.2861328 135.929688 37.2861328 135.929688 35.5673828 129.06543 35.5673828 129.06543 30.2392578 136.541992 30.2392578 136.541992 28.4990234 127.131836 28.4990234 127.131836 44 129.06543 44zM158.939453 38.0058594L158.939453 36.1152344 152.655273 36.1152344 152.655273 37.8125 157.016602 37.8125 157.016602 38.1884766C157.016602 40.8095703 155.136719 42.5820312 152.365234 42.5820312 149.25 42.5820312 147.316406 40.1542969 147.316406 36.2441406 147.316406 32.3876953 149.282227 29.9169922 152.354492 29.9169922 154.65332 29.9169922 156.210938 31.0234375 156.876953 33.1181641L158.842773 33.1181641C158.28418 30.0458984 155.791992 28.1337891 152.354492 28.1337891 148.111328 28.1337891 145.329102 31.3457031 145.329102 36.2441406 145.329102 41.2070312 148.068359 44.3652344 152.354492 44.3652344 156.318359 44.3652344 158.939453 41.8300781 158.939453 38.0058594zM180.939453 44L180.939453 28.4990234 179.005859 28.4990234 179.005859 35.2021484 170.498047 35.2021484 170.498047 28.4990234 168.564453 28.4990234 168.564453 44 170.498047 44 170.498047 36.9423828 179.005859 36.9423828 179.005859 44 180.939453 44zM193.035156 44L193.035156 28.4990234 191.101562 28.4990234 191.101562 44 193.035156 44zM202.144531 40.3798828C202.144531 42.7539062 203.970703 44.3652344 206.570312 44.3652344 209.374023 44.3652344 211.082031 42.6357422 211.082031 39.6816406L211.082031 28.4990234 209.148438 28.4990234 209.148438 39.6708984C209.148438 41.5722656 208.213867 42.5820312 206.55957 42.5820312 205.098633 42.5820312 204.110352 41.6796875 204.067383 40.3798828L202.144531 40.3798828zM223.177734 44L223.177734 38.5859375 225.036133 36.5341797 230.632812 44 233.135742 44 226.368164 35.1914062 232.566406 28.4990234 230.138672 28.4990234 223.349609 36.0292969 223.177734 36.0292969 223.177734 28.4990234 221.244141 28.4990234 221.244141 44 223.177734 44zM251.354492 42.2597656L243.87793 42.2597656 243.87793 28.4990234 241.944336 28.4990234 241.944336 44 251.354492 44 251.354492 42.2597656zM275.921875 44L275.921875 28.4990234 273.676758 28.4990234 268.370117 41.3251953 268.198242 41.3251953 262.891602 28.4990234 260.646484 28.4990234 260.646484 44 262.451172 44 262.451172 32.1621094 262.580078 32.1621094 267.467773 43.8925781 269.100586 43.8925781 273.988281 32.1621094 274.117188 32.1621094 274.117188 44 275.921875 44zM23.8886719 74L23.8886719 61.9794922 24.0605469 61.9794922 32.4716797 74 34.3515625 74 34.3515625 58.4990234 32.4394531 58.4990234 32.4394531 70.5625 32.2675781 70.5625 23.8564453 58.4990234 21.9765625 58.4990234 21.9765625 74 23.8886719 74zM51.0341797 58.1337891C55.4384766 58.1337891 58.1240234 61.2705078 58.1240234 66.2441406 58.1240234 71.1962891 55.4599609 74.3652344 51.0341797 74.3652344 46.5869141 74.3652344 43.9121094 71.2070312 43.9121094 66.2441406 43.9121094 61.2597656 46.6513672 58.1337891 51.0341797 58.1337891zM51.0341797 59.9169922C47.8759766 59.9169922 45.8994141 62.3662109 45.8994141 66.2441406 45.8994141 70.0898438 47.8115234 72.5820312 51.0341797 72.5820312 54.2138672 72.5820312 56.1367188 70.0898438 56.1367188 66.2441406 56.1367188 62.3662109 54.203125 59.9169922 51.0341797 59.9169922zM67.6845703 58.4990234L73.5390625 58.4990234C76.4716797 58.4990234 78.5019531 60.5615234 78.5019531 63.515625 78.5019531 66.4160156 76.4287109 68.4677734 73.5175781 68.4677734L69.6181641 68.4677734 69.6181641 74 67.6845703 74 67.6845703 58.4990234zM69.6181641 60.2177734L69.6181641 66.7490234 73.0341797 66.7490234C75.2363281 66.7490234 76.5146484 65.5673828 76.5146484 63.515625 76.5146484 61.3886719 75.2792969 60.2177734 73.0341797 60.2177734L69.6181641 60.2177734zM94.3896484 74.3652344C89.9746094 74.3652344 87.2675781 71.2822266 87.2675781 66.2548828 87.2675781 61.2490234 90.0068359 58.1337891 94.3896484 58.1337891 98.7509766 58.1337891 101.479492 61.2597656 101.479492 66.2548828 101.479492 69.3378906 100.491211 71.7548828 98.7294922 73.0224609L100.695312 75.7509766 98.5253906 75.7509766 97.1611328 73.8925781C96.3339844 74.2041016 95.3886719 74.3652344 94.3896484 74.3652344zM94.4003906 72.5820312C94.9697266 72.5820312 95.5175781 72.5068359 96.0546875 72.3457031L94.0029297 69.5634766 96.1943359 69.5634766 97.6015625 71.4326172C98.8154297 70.4658203 99.4921875 68.6181641 99.4921875 66.2548828 99.4921875 62.3662109 97.5263672 59.9169922 94.3896484 59.9169922 91.2314453 59.9169922 89.2548828 62.3554688 89.2548828 66.2548828 89.2548828 70.1650391 91.2207031 72.5820312 94.4003906 72.5820312zM112.973633 60.2177734L112.973633 66.1474609 116.787109 66.1474609C118.774414 66.1474609 119.902344 65.0839844 119.902344 63.1826172 119.902344 61.3242188 118.699219 60.2177734 116.701172 60.2177734L112.973633 60.2177734zM112.973633 67.8662109L112.973633 74 111.040039 74 111.040039 58.4990234 116.958984 58.4990234C119.945312 58.4990234 121.900391 60.3251953 121.900391 63.1181641 121.900391 65.2773438 120.729492 66.953125 118.785156 67.5654297L122.373047 74 120.106445 74 116.787109 67.8662109 112.973633 67.8662109zM130.880859 69.9501953C131.084961 72.625 133.351562 74.3652344 136.638672 74.3652344 140.183594 74.3652344 142.428711 72.5498047 142.428711 69.703125 142.428711 67.4257812 141.139648 66.1796875 137.927734 65.3740234L136.305664 64.9443359C134.167969 64.3964844 133.319336 63.6982422 133.319336 62.484375 133.319336 60.9160156 134.683594 59.8847656 136.746094 59.8847656 138.679688 59.8847656 139.990234 60.8300781 140.258789 62.4199219L142.203125 62.4199219C142.041992 59.9169922 139.807617 58.1337891 136.810547 58.1337891 133.53418 58.1337891 131.332031 59.9169922 131.332031 62.5488281 131.332031 64.7509766 132.545898 66.0185547 135.349609 66.7275391L137.336914 67.2431641C139.474609 67.7802734 140.441406 68.6181641 140.441406 69.9394531 140.441406 71.4755859 138.905273 72.6035156 136.821289 72.6035156 134.619141 72.6035156 133.072266 71.5722656 132.835938 69.9501953L130.880859 69.9501953zM157.811523 74L157.811523 60.2392578 162.806641 60.2392578 162.806641 58.4990234 150.882812 58.4990234 150.882812 60.2392578 155.87793 60.2392578 155.87793 74 157.811523 74zM173.989258 58.4990234L172.055664 58.4990234 172.055664 68.671875C172.055664 71.9804688 174.365234 74.3652344 178.210938 74.3652344 182.056641 74.3652344 184.366211 71.9804688 184.366211 68.671875L184.366211 58.4990234 182.432617 58.4990234 182.432617 68.5429688C182.432617 70.8847656 180.896484 72.5820312 178.210938 72.5820312 175.525391 72.5820312 173.989258 70.8847656 173.989258 68.5429688L173.989258 58.4990234zM200.973633 74L206.688477 58.4990234 204.658203 58.4990234 200.103516 71.4970703 199.931641 71.4970703 195.376953 58.4990234 193.34668 58.4990234 199.061523 74 200.973633 74zM224.219727 61.7646484L224.348633 61.7646484 227.915039 74 229.741211 74 233.962891 58.4990234 231.943359 58.4990234 228.860352 71.0996094 228.731445 71.0996094 225.261719 58.4990234 223.306641 58.4990234 219.836914 71.0996094 219.708008 71.0996094 216.625 58.4990234 214.605469 58.4990234 218.827148 74 220.65332 74 224.219727 61.7646484zM242.105469 74L244.296875 74 248.432617 67.8876953 248.604492 67.8876953 252.665039 74 254.985352 74 249.732422 66.2871094 255.103516 58.4990234 252.901367 58.4990234 248.754883 64.6650391 248.583008 64.6650391 244.500977 58.4990234 242.169922 58.4990234 247.412109 66.2011719 242.105469 74zM270.464844 74L270.464844 67.3291016 275.964844 58.4990234 273.762695 58.4990234 269.583984 65.3847656 269.412109 65.3847656 265.233398 58.4990234 263.03125 58.4990234 268.53125 67.3291016 268.53125 74 270.464844 74zM284.472656 74L295.93457 74 295.93457 72.2597656 287.018555 72.2597656 287.018555 72.0878906 295.751953 59.8740234 295.751953 58.4990234 284.773438 58.4990234 284.773438 60.2392578 293.249023 60.2392578 293.249023 60.4111328 284.472656 72.625 284.472656 74zM25.3066406 112.582031C27.2080078 112.582031 28.6152344 111.335938 28.6152344 109.681641L28.6152344 108.618164 25.5 108.822266C23.7382812 108.94043 22.9648438 109.552734 22.9648438 110.712891 22.9648438 111.894531 23.9638672 112.582031 25.3066406 112.582031zM24.9628906 114.204102C22.7177734 114.204102 21.0527344 112.87207 21.0527344 110.755859 21.0527344 108.682617 22.578125 107.490234 25.2744141 107.329102L28.6152344 107.125 28.6152344 106.072266C28.6152344 104.643555 27.7236328 103.859375 25.9941406 103.859375 24.6083984 103.859375 23.6416016 104.385742 23.3837891 105.298828L21.5146484 105.298828C21.7617188 103.44043 23.5878906 102.21582 26.0585938 102.21582 28.8837891 102.21582 30.4628906 103.666016 30.4628906 106.072266L30.4628906 114 28.7011719 114 28.7011719 112.291992 28.5292969 112.291992C27.7773438 113.527344 26.5097656 114.204102 24.9628906 114.204102zM45.8457031 114.204102C44.234375 114.204102 42.859375 113.441406 42.1289062 112.152344L41.9570312 112.152344 41.9570312 114 40.1953125 114 40.1953125 97.8222656 42.0429688 97.8222656 42.0429688 104.246094 42.2148438 104.246094C42.8486328 103 44.2558594 102.21582 45.8457031 102.21582 48.7890625 102.21582 50.7011719 104.568359 50.7011719 108.209961 50.7011719 111.830078 48.7783203 114.204102 45.8457031 114.204102zM45.4160156 103.880859C43.3105469 103.880859 42 105.535156 42 108.209961 42 110.884766 43.3105469 112.539062 45.4160156 112.539062 47.5322266 112.539062 48.7890625 110.916992 48.7890625 108.209961 48.7890625 105.50293 47.5322266 103.880859 45.4160156 103.880859zM69.3925781 105.964844C69.0703125 103.902344 67.3515625 102.21582 64.5371094 102.21582 61.2929688 102.21582 59.2304688 104.557617 59.2304688 108.166992 59.2304688 111.851562 61.3037109 114.204102 64.5478516 114.204102 67.3300781 114.204102 69.0595703 112.635742 69.3925781 110.508789L67.5234375 110.508789C67.1796875 111.819336 66.0947266 112.539062 64.5371094 112.539062 62.4746094 112.539062 61.1425781 110.841797 61.1425781 108.166992 61.1425781 105.545898 62.453125 103.880859 64.5371094 103.880859 66.2021484 103.880859 67.2226562 104.81543 67.5234375 105.964844L69.3925781 105.964844zM82.6162109 114.204102C79.6513672 114.204102 77.75 111.851562 77.75 108.209961 77.75 104.579102 79.6728516 102.21582 82.6162109 102.21582 84.2275391 102.21582 85.5917969 102.978516 86.2470703 104.246094L86.4082031 104.246094 86.4082031 97.8222656 88.2558594 97.8222656 88.2558594 114 86.4941406 114 86.4941406 112.152344 86.3222656 112.152344C85.5917969 113.441406 84.2167969 114.204102 82.6162109 114.204102zM83.0458984 103.880859C80.9404297 103.880859 79.6621094 105.513672 79.6621094 108.209961 79.6621094 110.916992 80.9296875 112.539062 83.0458984 112.539062 85.1513672 112.539062 86.4511719 110.884766 86.4511719 108.209961 86.4511719 105.556641 85.140625 103.880859 83.0458984 103.880859zM102.671875 103.848633C100.824219 103.848633 99.5351562 105.202148 99.3955078 107.253906L105.776367 107.253906C105.733398 105.202148 104.508789 103.848633 102.671875 103.848633zM105.722656 111.00293L107.570312 111.00293C107.011719 112.990234 105.228516 114.204102 102.693359 114.204102 99.4814453 114.204102 97.4726562 111.883789 97.4726562 108.220703 97.4726562 104.579102 99.5136719 102.21582 102.693359 102.21582 105.819336 102.21582 107.720703 104.439453 107.720703 108.038086L107.720703 108.74707 99.3955078 108.74707 99.3955078 108.833008C99.4921875 111.121094 100.770508 112.571289 102.736328 112.571289 104.229492 112.571289 105.239258 112.023438 105.722656 111.00293zM117.603516 114L119.451172 114 119.451172 103.966797 122.104492 103.966797 122.104492 102.419922 119.451172 102.419922 119.451172 101.345703C119.451172 100.045898 120.074219 99.4873047 121.180664 99.4873047 121.545898 99.4873047 121.964844 99.5302734 122.211914 99.5839844L122.211914 98.0371094C121.760742 97.9619141 121.438477 97.9296875 121.073242 97.9296875 118.838867 97.9296875 117.603516 98.9179688 117.603516 101.291992L117.603516 102.419922 115.680664 102.419922 115.680664 103.966797 117.603516 103.966797 117.603516 114zM135.682617 112.195312C137.831055 112.195312 139.120117 110.5625 139.120117 108.038086 139.120117 105.513672 137.820312 103.880859 135.682617 103.880859 133.53418 103.880859 132.331055 105.513672 132.331055 108.038086 132.331055 110.5625 133.53418 112.195312 135.682617 112.195312zM135.768555 118.447266C132.975586 118.447266 131.192383 117.19043 130.913086 115.27832L132.868164 115.27832C133.072266 116.223633 134.103516 116.835938 135.768555 116.835938 137.841797 116.835938 139.077148 115.81543 139.077148 114.107422L139.077148 111.830078 138.905273 111.830078C138.174805 113.108398 136.864258 113.828125 135.274414 113.828125 132.277344 113.828125 130.418945 111.507812 130.418945 108.038086 130.418945 104.568359 132.298828 102.21582 135.274414 102.21582 136.896484 102.21582 138.325195 103.010742 138.991211 104.256836L139.163086 104.256836 139.163086 102.419922 140.924805 102.419922 140.924805 114.204102C140.924805 116.792969 138.926758 118.447266 135.768555 118.447266zM150.72168 114L152.569336 114 152.569336 107.146484C152.569336 105.191406 153.708008 103.880859 155.78125 103.880859 157.532227 103.880859 158.456055 104.901367 158.456055 106.953125L158.456055 114 160.303711 114 160.303711 106.501953C160.303711 103.78418 158.756836 102.21582 156.307617 102.21582 154.535156 102.21582 153.321289 102.967773 152.741211 104.246094L152.569336 104.246094 152.569336 97.8222656 150.72168 97.8222656 150.72168 114zM169.928711 114L171.776367 114 171.776367 102.419922 169.928711 102.419922 169.928711 114zM170.852539 100.067383C171.561523 100.067383 172.141602 99.4873047 172.141602 98.7783203 172.141602 98.0693359 171.561523 97.4892578 170.852539 97.4892578 170.143555 97.4892578 169.563477 98.0693359 169.563477 98.7783203 169.563477 99.4873047 170.143555 100.067383 170.852539 100.067383zM183.399414 102.419922L181.551758 102.419922 181.551758 114.601562C181.551758 115.879883 181.12207 116.395508 179.811523 116.395508L179.532227 116.395508 179.532227 117.974609 179.854492 117.974609C182.282227 117.974609 183.399414 116.954102 183.399414 114.569336L183.399414 102.419922zM182.475586 100.067383C183.18457 100.067383 183.764648 99.4873047 183.764648 98.7783203 183.764648 98.0693359 183.18457 97.4892578 182.475586 97.4892578 181.766602 97.4892578 181.186523 98.0693359 181.186523 98.7783203 181.186523 99.4873047 181.766602 100.067383 182.475586 100.067383zM195.258789 107.479492L195.086914 107.479492 195.086914 97.8222656 193.239258 97.8222656 193.239258 114 195.086914 114 195.086914 109.606445 196.193359 108.575195 200.533203 114 202.885742 114 197.568359 107.382812 202.552734 102.419922 200.286133 102.419922 195.258789 107.479492zM211.393555 114L213.241211 114 213.241211 97.8222656 211.393555 97.8222656 211.393555 114zM223.038086 114L224.885742 114 224.885742 106.824219C224.885742 105.191406 226.056641 103.880859 227.571289 103.880859 229.032227 103.880859 229.988281 104.761719 229.988281 106.136719L229.988281 114 231.835938 114 231.835938 106.555664C231.835938 105.083984 232.910156 103.880859 234.521484 103.880859 236.154297 103.880859 236.959961 104.71875 236.959961 106.426758L236.959961 114 238.807617 114 238.807617 105.99707C238.807617 103.569336 237.486328 102.21582 235.123047 102.21582 233.522461 102.21582 232.201172 103.021484 231.578125 104.246094L231.40625 104.246094C230.869141 103.042969 229.773438 102.21582 228.205078 102.21582 226.658203 102.21582 225.498047 102.957031 224.97168 104.246094L224.799805 104.246094 224.799805 102.419922 223.038086 102.419922 223.038086 114zM248.389648 114L250.237305 114 250.237305 107.146484C250.237305 105.116211 251.429688 103.880859 253.277344 103.880859 255.125 103.880859 256.005859 104.869141 256.005859 106.953125L256.005859 114 257.853516 114 257.853516 106.501953C257.853516 103.751953 256.40332 102.21582 253.803711 102.21582 252.03125 102.21582 250.90332 102.967773 250.323242 104.246094L250.151367 104.246094 250.151367 102.419922 248.389648 102.419922 248.389648 114zM272.194336 114.204102C268.896484 114.204102 266.855469 111.926758 266.855469 108.209961 266.855469 104.482422 268.896484 102.21582 272.194336 102.21582 275.492188 102.21582 277.533203 104.482422 277.533203 108.209961 277.533203 111.926758 275.492188 114.204102 272.194336 114.204102zM272.194336 112.539062C274.385742 112.539062 275.621094 110.949219 275.621094 108.209961 275.621094 105.459961 274.385742 103.880859 272.194336 103.880859 270.00293 103.880859 268.767578 105.459961 268.767578 108.209961 268.767578 110.949219 270.00293 112.539062 272.194336 112.539062zM292.282227 102.21582C295.236328 102.21582 297.148438 104.568359 297.148438 108.209961 297.148438 111.830078 295.225586 114.204102 292.282227 114.204102 290.62793 114.204102 289.295898 113.484375 288.662109 112.259766L288.490234 112.259766 288.490234 117.867188 286.642578 117.867188 286.642578 102.419922 288.404297 102.419922 288.404297 104.353516 288.576172 104.353516C289.317383 103.021484 290.703125 102.21582 292.282227 102.21582zM291.841797 112.539062C293.96875 112.539062 295.236328 110.916992 295.236328 108.209961 295.236328 105.50293 293.96875 103.880859 291.852539 103.880859 289.757812 103.880859 288.436523 105.545898 288.436523 108.209961 288.436523 110.863281 289.757812 112.539062 291.841797 112.539062zM26.0048828 132.21582C27.5839844 132.21582 29.0234375 133.053711 29.7109375 134.353516L29.8828125 134.353516 29.8828125 132.419922 31.6660156 132.419922 31.6660156 147.867188 29.796875 147.867188 29.796875 142.259766 29.625 142.259766C28.8837891 143.527344 27.6376953 144.204102 26.0048828 144.204102 23.0507812 144.204102 21.1601562 141.862305 21.1601562 138.209961 21.1601562 134.579102 23.0722656 132.21582 26.0048828 132.21582zM26.4238281 142.539062C28.5400391 142.539062 29.8505859 140.874023 29.8505859 138.209961 29.8505859 135.556641 28.5292969 133.880859 26.4345703 133.880859 24.3291016 133.880859 23.0722656 135.50293 23.0722656 138.209961 23.0722656 140.927734 24.3183594 142.539062 26.4238281 142.539062zM41.3554688 144L43.203125 144 43.203125 136.824219C43.203125 135.191406 44.4814453 134.009766 46.2431641 134.009766 46.6083984 134.009766 47.2744141 134.074219 47.4248047 134.117188L47.4248047 132.269531C47.1884766 132.237305 46.8017578 132.21582 46.5009766 132.21582 44.9648438 132.21582 43.6328125 133.010742 43.2890625 134.138672L43.1171875 134.138672 43.1171875 132.419922 41.3554688 132.419922 41.3554688 144zM55.6748047 135.588867C55.6748047 137.264648 56.6630859 138.199219 58.8330078 138.725586L60.8203125 139.208984C62.0556641 139.509766 62.6572266 140.046875 62.6572266 140.841797 62.6572266 141.905273 61.5400391 142.646484 59.9824219 142.646484 58.5 142.646484 57.5761719 142.023438 57.2646484 141.045898L55.3632812 141.045898C55.5673828 142.96875 57.3398438 144.204102 59.9179688 144.204102 62.5498047 144.204102 64.5585938 142.775391 64.5585938 140.702148 64.5585938 139.037109 63.5058594 138.091797 61.3251953 137.56543L59.5419922 137.135742C58.1777344 136.802734 57.5332031 136.308594 57.5332031 135.513672 57.5332031 134.482422 58.6074219 133.78418 59.9824219 133.78418 61.3789062 133.78418 62.28125 134.396484 62.5283203 135.320312L64.3544922 135.320312C64.1074219 133.418945 62.4208984 132.21582 59.9931641 132.21582 57.5332031 132.21582 55.6748047 133.666016 55.6748047 135.588867zM74.4414062 129.422852L74.4414062 132.419922 72.5722656 132.419922 72.5722656 133.966797 74.4414062 133.966797 74.4414062 140.992188C74.4414062 143.205078 75.3974609 144.085938 77.7822266 144.085938 78.1474609 144.085938 78.5019531 144.042969 78.8671875 143.978516L78.8671875 142.420898C78.5234375 142.453125 78.3408203 142.463867 78.0078125 142.463867 76.8046875 142.463867 76.2890625 141.883789 76.2890625 140.519531L76.2890625 133.966797 78.8671875 133.966797 78.8671875 132.419922 76.2890625 132.419922 76.2890625 129.422852 74.4414062 129.422852zM97.2363281 132.419922L95.3886719 132.419922 95.3886719 139.273438C95.3886719 141.303711 94.2714844 142.517578 92.2304688 142.517578 90.3828125 142.517578 89.609375 141.550781 89.609375 139.466797L89.609375 132.419922 87.7617188 132.419922 87.7617188 139.917969C87.7617188 142.657227 89.1152344 144.204102 91.7148438 144.204102 93.4873047 144.204102 94.7226562 143.473633 95.3027344 142.18457L95.4746094 142.18457 95.4746094 144 97.2363281 144 97.2363281 132.419922zM116.378906 132.419922L114.402344 132.419922 111.233398 141.958984 111.061523 141.958984 107.892578 132.419922 105.916016 132.419922 110.202148 144 112.092773 144 116.378906 132.419922zM139.625 132.419922L137.766602 132.419922 135.489258 141.679688 135.317383 141.679688 132.728516 132.419922 130.956055 132.419922 128.367188 141.679688 128.195312 141.679688 125.917969 132.419922 124.048828 132.419922 127.292969 144 129.162109 144 131.740234 135.041016 131.912109 135.041016 134.500977 144 136.380859 144 139.625 132.419922zM152.408203 139.62793L155.147461 144 157.338867 144 153.353516 138.134766 157.285156 132.419922 155.19043 132.419922 152.472656 136.727539 152.300781 136.727539 149.550781 132.419922 147.348633 132.419922 151.355469 138.209961 147.391602 144 149.486328 144 152.236328 139.62793 152.408203 139.62793zM167.060547 148.189453C169.112305 148.189453 170.036133 147.394531 171.024414 144.708984L175.546875 132.419922 173.581055 132.419922 170.412109 141.948242 170.240234 141.948242 167.060547 132.419922 165.0625 132.419922 169.348633 144.010742 169.133789 144.698242C168.650391 146.094727 168.070312 146.599609 167.006836 146.599609 166.749023 146.599609 166.458984 146.588867 166.233398 146.545898L166.233398 148.125C166.491211 148.167969 166.813477 148.189453 167.060547 148.189453zM183.958008 144L192.874023 144 192.874023 142.453125 186.192383 142.453125 186.192383 142.28125 192.841797 133.805664 192.841797 132.419922 183.96875 132.419922 183.96875 133.966797 190.639648 133.966797 190.639648 134.138672 183.958008 142.646484 183.958008 144zM25.4355469 182L27.3691406 182 27.3691406 166.499023 25.4462891 166.499023 21.3212891 169.463867 21.3212891 171.504883 25.2636719 168.647461 25.4355469 168.647461 25.4355469 182zM38.1005859 170.860352L38.1005859 170.871094 39.9697266 170.871094 39.9697266 170.860352C39.9697266 169.03418 41.1943359 167.820312 43.0097656 167.820312 44.7177734 167.820312 46.0390625 169.012695 46.0390625 170.55957 46.0390625 171.805664 45.5556641 172.643555 43.5576172 174.813477L38.1972656 180.667969 38.1972656 182 48.2304688 182 48.2304688 180.259766 40.96875 180.259766 40.96875 180.087891 44.6962891 176.081055C47.2421875 173.352539 47.9726562 172.095703 47.9726562 170.484375 47.9726562 168.024414 45.8457031 166.133789 43.0634766 166.133789 40.1845703 166.133789 38.1005859 168.110352 38.1005859 170.860352zM60.8632812 174.856445L62.8291016 174.856445C65.03125 174.856445 66.3955078 175.973633 66.3955078 177.767578 66.3955078 179.464844 64.9453125 180.678711 62.9042969 180.678711 60.90625 180.678711 59.5097656 179.615234 59.3378906 177.960938L57.46875 177.960938C57.6083984 180.614258 59.7783203 182.365234 62.9257812 182.365234 65.9873047 182.365234 68.3828125 180.37793 68.3828125 177.821289 68.3828125 175.705078 67.1044922 174.244141 64.9990234 173.975586L64.9990234 173.803711C66.6962891 173.395508 67.7167969 172.041992 67.7167969 170.194336 67.7167969 167.938477 65.5576172 166.133789 62.8505859 166.133789 59.8964844 166.133789 57.9736328 167.788086 57.7802734 170.473633L59.6601562 170.473633C59.8212891 168.808594 60.9921875 167.820312 62.7753906 167.820312 64.5585938 167.820312 65.7509766 168.873047 65.7509766 170.452148 65.7509766 172.063477 64.5048828 173.202148 62.7431641 173.202148L60.8632812 173.202148 60.8632812 174.856445zM84.7753906 182L84.7753906 178.788086 77.2236328 178.788086 77.2236328 177.026367C78.609375 174.566406 81.0693359 170.677734 83.8623047 166.499023L86.6660156 166.499023 86.6660156 177.058594 88.8681641 177.058594 88.8681641 178.788086 86.6660156 178.788086 86.6660156 182 84.7753906 182zM79.2001953 176.94043L79.2001953 177.069336 84.7861328 177.069336 84.7861328 168.292969 84.6572266 168.292969C83.0673828 170.602539 81.0478516 173.803711 79.2001953 176.94043zM103.176758 182.365234C106.388672 182.365234 108.59082 180.216797 108.59082 177.069336 108.59082 174.018555 106.52832 171.880859 103.584961 171.880859 102.15625 171.880859 101.060547 172.321289 100.308594 173.202148L100.136719 173.202148 100.577148 168.228516 107.709961 168.228516 107.709961 166.499023 99.0625 166.499023 98.2138672 175.286133 100.029297 175.286133C100.663086 174.179688 101.823242 173.545898 103.230469 173.545898 105.260742 173.545898 106.657227 174.996094 106.657227 177.123047 106.657227 179.25 105.271484 180.667969 103.198242 180.667969 101.37207 180.667969 100.040039 179.550781 99.8681641 177.875L97.9667969 177.875C98.1386719 180.549805 100.244141 182.365234 103.176758 182.365234zM123.361328 182.354492C121.030273 182.354492 119.24707 181.108398 118.280273 178.831055 117.775391 177.649414 117.52832 176.220703 117.52832 174.512695 117.52832 169.18457 119.698242 166.133789 123.490234 166.133789 126.12207 166.133789 128.077148 167.691406 128.571289 170.183594L126.583984 170.183594C126.165039 168.733398 124.994141 167.852539 123.46875 167.852539 120.944336 167.852539 119.515625 170.086914 119.408203 174.211914L119.580078 174.211914C120.342773 172.708008 121.857422 171.827148 123.705078 171.827148 126.65918 171.827148 128.796875 174.007812 128.796875 177.015625 128.796875 180.130859 126.541016 182.354492 123.361328 182.354492zM123.339844 180.657227C125.327148 180.657227 126.841797 179.110352 126.841797 177.080078 126.841797 174.963867 125.413086 173.50293 123.361328 173.50293 121.30957 173.50293 119.837891 174.963867 119.837891 177.015625 119.837891 179.088867 121.352539 180.657227 123.339844 180.657227zM138.754883 182L140.785156 182 147.681641 168.292969 147.681641 166.499023 137.422852 166.499023 137.422852 168.228516 145.71582 168.228516 145.71582 168.378906 138.754883 182zM162.151367 182.365234C158.864258 182.365234 156.56543 180.506836 156.56543 177.853516 156.56543 175.833984 157.84375 174.265625 159.788086 173.900391L159.788086 173.728516C158.208984 173.298828 157.199219 171.956055 157.199219 170.269531 157.199219 167.852539 159.250977 166.133789 162.151367 166.133789 165.051758 166.133789 167.103516 167.852539 167.103516 170.269531 167.103516 171.966797 166.115234 173.288086 164.514648 173.728516L164.514648 173.900391C166.458984 174.265625 167.737305 175.833984 167.737305 177.853516 167.737305 180.506836 165.438477 182.365234 162.151367 182.365234zM162.151367 180.710938C164.299805 180.710938 165.782227 179.486328 165.782227 177.713867 165.782227 175.941406 164.299805 174.716797 162.151367 174.716797 160.00293 174.716797 158.520508 175.941406 158.520508 177.713867 158.520508 179.486328 160.00293 180.710938 162.151367 180.710938zM162.151367 173.083984C163.977539 173.083984 165.202148 172.03125 165.202148 170.452148 165.202148 168.851562 163.988281 167.788086 162.151367 167.788086 160.314453 167.788086 159.100586 168.851562 159.100586 170.452148 159.100586 172.03125 160.325195 173.083984 162.151367 173.083984zM182.067383 182.354492C179.435547 182.354492 177.480469 180.796875 176.986328 178.304688L178.973633 178.304688C179.392578 179.754883 180.563477 180.635742 182.088867 180.635742 184.613281 180.635742 186.041992 178.401367 186.149414 174.276367L185.977539 174.276367C185.214844 175.780273 183.700195 176.661133 181.852539 176.661133 178.898438 176.661133 176.760742 174.480469 176.760742 171.472656 176.760742 168.357422 179.016602 166.133789 182.196289 166.133789 184.516602 166.133789 186.310547 167.369141 187.277344 169.657227 187.782227 170.838867 188.029297 172.267578 188.029297 173.975586 188.029297 179.303711 185.859375 182.354492 182.067383 182.354492zM182.196289 174.985352C184.248047 174.985352 185.719727 173.524414 185.719727 171.472656 185.719727 169.399414 184.205078 167.831055 182.217773 167.831055 180.230469 167.831055 178.71582 169.37793 178.71582 171.408203 178.71582 173.524414 180.144531 174.985352 182.196289 174.985352zM202.552734 182.365234C199.061523 182.365234 197.052734 179.400391 197.052734 174.244141 197.052734 169.130859 199.083008 166.133789 202.552734 166.133789 206.000977 166.133789 208.03125 169.141602 208.03125 174.276367 208.03125 179.421875 206.033203 182.365234 202.552734 182.365234zM202.552734 180.678711C204.84082 180.678711 206.086914 178.401367 206.086914 174.244141 206.086914 170.129883 204.819336 167.831055 202.552734 167.831055 200.286133 167.831055 198.99707 170.151367 198.99707 174.244141 198.99707 178.390625 200.264648 180.678711 202.552734 180.678711z"/>
  </g>
</svg>
