<svg xmlns="http://www.w3.org/2000/svg" width="300" height="300" viewBox="0 0 300 300">
  <g fill="none" transform="translate(21)">
    <rect width="234" height="364" x="65.983" fill="#F9F9FA"/>
    <path fill="#000F40" d="M86.964844,51 L86.964844,27.8935547 L88.560059,27.8935547 L88.560059,49.5498047 L97.825195,49.5498047 L97.825195,51 L86.964844,51 Z M102.481934,30.3427734 C102.159666,30.3427734 101.875001,30.2246106 101.62793,29.9882812 C101.380858,29.7519519 101.257324,29.4511737 101.257324,29.0859375 C101.257324,28.7314435 101.383544,28.4440929 101.635986,28.223877 C101.888429,28.003661 102.170409,27.8935547 102.481934,27.8935547 C102.814943,27.8935547 103.107665,28.0009755 103.360107,28.2158203 C103.61255,28.4306651 103.73877,28.7207013 103.73877,29.0859375 C103.73877,29.4296892 103.615236,29.7250964 103.368164,29.972168 C103.121093,30.2192395 102.825685,30.3427734 102.481934,30.3427734 Z M101.756836,51 L101.756836,34.5 L103.239258,34.5 L103.239258,51 L101.756836,51 Z M121.721191,49.7753906 C121.721191,52.8798983 121.04444,55.1518483 119.690918,56.5913086 C118.337396,58.0307689 116.231948,58.7504883 113.374512,58.7504883 C111.78466,58.7504883 110.146493,58.3315472 108.459961,57.4936523 L108.459961,55.9467773 C110.200204,56.9135791 111.849113,57.3969727 113.406738,57.3969727 C117.961449,57.3969727 120.23877,54.9907467 120.23877,50.1782227 L120.23877,48.0351562 L120.174316,48.0351562 C118.874505,50.2802847 116.892591,51.402832 114.228516,51.402832 C112.198232,51.402832 110.541266,50.6669995 109.257568,49.1953125 C107.973871,47.7236255 107.332031,45.6718882 107.332031,43.0400391 C107.332031,40.40819 108.024895,38.259774 109.410645,36.5947266 C110.796394,34.9296792 112.622547,34.097168 114.88916,34.097168 C117.316907,34.097168 119.078608,35.1015525 120.174316,37.1103516 L120.23877,37.1103516 L120.23877,34.5 L121.721191,34.5 L121.721191,49.7753906 Z M120.23877,40.8325195 C120.23877,39.3715747 119.747319,38.1093803 118.764404,37.0458984 C117.781489,35.9824166 116.500496,35.4506836 114.921387,35.4506836 C113.105948,35.4506836 111.645025,36.1328057 110.538574,37.4970703 C109.432123,38.8613349 108.878906,40.6660044 108.878906,42.9111328 C108.878906,45.1670035 109.38647,46.920648 110.401611,48.1721191 C111.416753,49.4235902 112.756828,50.0493164 114.421875,50.0493164 C116.194345,50.0493164 117.606928,49.4746151 118.659668,48.3251953 C119.712408,47.1757755 120.23877,45.768563 120.23877,44.1035156 L120.23877,40.8325195 Z M138.221191,51 L138.221191,41.1064453 C138.221191,39.1513574 137.866703,37.7199752 137.157715,36.8122559 C136.448727,35.9045365 135.342293,35.4506836 133.838379,35.4506836 C132.420403,35.4506836 131.174322,36.0039007 130.100098,37.1103516 C129.025874,38.2168024 128.48877,39.8012592 128.48877,41.8637695 L128.48877,51 L127.006348,51 L127.006348,26.5722656 L128.48877,26.5722656 L128.48877,37.4648438 L128.553223,37.4648438 C129.853034,35.2197153 131.74364,34.097168 134.225098,34.097168 C136.00831,34.097168 137.367183,34.6718693 138.301758,35.8212891 C139.236333,36.9707089 139.703613,38.6196182 139.703613,40.7680664 L139.703613,51 L138.221191,51 Z M151.192383,50.7744141 C150.418941,51.1396503 149.693851,51.3222656 149.01709,51.3222656 C146.578601,51.3222656 145.359375,49.8613427 145.359375,46.9394531 L145.359375,35.8535156 L142.394531,35.8535156 L142.394531,34.5 L145.359375,34.5 L145.359375,30.2138672 C145.595704,30.1279293 145.842772,30.0419926 146.100586,29.9560547 C146.3584,29.880859 146.605468,29.8002934 146.841797,29.7143555 L146.841797,34.5 L151.192383,34.5 L151.192383,35.8535156 L146.841797,35.8535156 L146.841797,46.7460938 C146.841797,47.8847713 147.021727,48.709226 147.381592,49.2194824 C147.741457,49.7297389 148.35107,49.9848633 149.210449,49.9848633 C149.822757,49.9848633 150.483395,49.7861348 151.192383,49.3886719 L151.192383,50.7744141 Z M162.713379,50.1782227 L162.713379,48.4863281 C164.475106,49.5283255 166.134758,50.0493164 167.692383,50.0493164 C169.550791,50.0493164 171.006342,49.5739794 172.059082,48.623291 C173.111822,47.6726027 173.638184,46.4292069 173.638184,44.8930664 C173.638184,43.1850501 173.033942,41.8906294 171.825439,41.0097656 C170.616937,40.1289018 168.895519,39.6884766 166.661133,39.6884766 L164.888672,39.6884766 L164.888672,38.3349609 L166.467773,38.3349609 C168.530284,38.3349609 170.101313,37.8972212 171.180908,37.0217285 C172.260503,36.1462359 172.800293,34.9082111 172.800293,33.3076172 C172.800293,31.9218681 172.408207,30.8342325 171.624023,30.0446777 C170.83984,29.255123 169.695808,28.8603516 168.191895,28.8603516 C166.741692,28.8603516 165.221688,29.3652293 163.631836,30.375 L163.631836,28.7958984 C165.372079,27.9365191 166.967278,27.5068359 168.41748,27.5068359 C170.243661,27.5068359 171.691157,28.0009716 172.76001,28.9892578 C173.828863,29.977544 174.363281,31.2880778 174.363281,32.9208984 C174.363281,36.0468906 172.864761,38.0341754 169.867676,38.8828125 L169.867676,38.9472656 C171.479012,39.1083992 172.768062,39.7072702 173.734863,40.7438965 C174.701665,41.7805228 175.185059,43.088371 175.185059,44.6674805 C175.185059,46.6870218 174.486823,48.3144469 173.090332,49.5498047 C171.693841,50.7851624 169.8838,51.402832 167.660156,51.402832 C165.941398,51.402832 164.292488,50.994633 162.713379,50.1782227 Z M179.712891,50.1782227 L179.712891,48.4863281 C181.474618,49.5283255 183.13427,50.0493164 184.691895,50.0493164 C186.550302,50.0493164 188.005854,49.5739794 189.058594,48.623291 C190.111333,47.6726027 190.637695,46.4292069 190.637695,44.8930664 C190.637695,43.1850501 190.033453,41.8906294 188.824951,41.0097656 C187.616449,40.1289018 185.895031,39.6884766 183.660645,39.6884766 L181.888184,39.6884766 L181.888184,38.3349609 L183.467285,38.3349609 C185.529795,38.3349609 187.100825,37.8972212 188.18042,37.0217285 C189.260015,36.1462359 189.799805,34.9082111 189.799805,33.3076172 C189.799805,31.9218681 189.407719,30.8342325 188.623535,30.0446777 C187.839352,29.255123 186.69532,28.8603516 185.191406,28.8603516 C183.741204,28.8603516 182.221199,29.3652293 180.631348,30.375 L180.631348,28.7958984 C182.371591,27.9365191 183.96679,27.5068359 185.416992,27.5068359 C187.243173,27.5068359 188.690668,28.0009716 189.759521,28.9892578 C190.828374,29.977544 191.362793,31.2880778 191.362793,32.9208984 C191.362793,36.0468906 189.864273,38.0341754 186.867188,38.8828125 L186.867188,38.9472656 C188.478524,39.1083992 189.767573,39.7072702 190.734375,40.7438965 C191.701177,41.7805228 192.18457,43.088371 192.18457,44.6674805 C192.18457,46.6870218 191.486335,48.3144469 190.089844,49.5498047 C188.693352,50.7851624 186.883312,51.402832 184.659668,51.402832 C182.940909,51.402832 181.292,50.994633 179.712891,50.1782227 Z M199.048828,48.0673828 L198.984375,48.0673828 L198.984375,58.5893555 L197.501953,58.5893555 L197.501953,34.5 L198.984375,34.5 L198.984375,37.8999023 L199.048828,37.8999023 C199.639651,36.6860291 200.48559,35.7487826 201.58667,35.0881348 C202.68775,34.4274869 203.898919,34.097168 205.220215,34.097168 C207.314952,34.097168 208.950434,34.8195729 210.126709,36.2644043 C211.302984,37.7092357 211.891113,39.6723509 211.891113,42.1538086 C211.891113,44.9145646 211.217048,47.1462317 209.868896,48.848877 C208.520745,50.5515222 206.740245,51.402832 204.527344,51.402832 C202.056628,51.402832 200.230475,50.2910267 199.048828,48.0673828 Z M198.984375,41.9282227 L198.984375,44.0068359 C198.984375,45.6611411 199.505366,47.0817812 200.547363,48.2687988 C201.589361,49.4558165 202.958976,50.0493164 204.65625,50.0493164 C206.342782,50.0493164 207.712397,49.3269115 208.765137,47.8820801 C209.817876,46.4372486 210.344238,44.538586 210.344238,42.1860352 C210.344238,40.1235248 209.860845,38.4853576 208.894043,37.2714844 C207.927241,36.0576111 206.638192,35.4506836 205.026855,35.4506836 C203.103994,35.4506836 201.616216,36.0952084 200.563477,37.3842773 C199.510737,38.6733463 198.984375,40.1879796 198.984375,41.9282227 Z M221.091797,42.9111328 L226.473633,51 L224.588379,51 L220.237793,44.0390625 L220.17334,44.0390625 L219.593262,44.9575195 C219.518066,45.0864264 219.426758,45.2314445 219.319336,45.3925781 L215.677734,51 L213.873047,51 L219.383789,42.9433594 L213.969727,34.5 L215.709961,34.5 L219.383789,40.4135742 C219.856448,41.1762733 220.141113,41.6489249 220.237793,41.831543 L220.302246,41.831543 L221.124023,40.4780273 L224.958984,34.5 L226.699219,34.5 L221.091797,42.9111328 Z"/>
    <path fill="#0C0C0D" d="M3.263,42.017 C5.629,42.017 7.865,42.745 7.865,46.463 C7.865,50.103 5.642,51 3.497,51 L1.053,51 L1.053,42.017 L3.263,42.017 Z M2.769,43.304 L2.769,49.713 L3.614,49.713 C4.953,49.713 6.058,49.115 6.058,46.463 C6.058,43.759 4.888,43.304 3.562,43.304 L2.769,43.304 Z M10.244,40.639 C9.633,40.639 9.204,41.081 9.204,41.653 C9.204,42.212 9.633,42.654 10.244,42.654 C10.868,42.654 11.297,42.212 11.297,41.653 C11.297,41.081 10.868,40.639 10.244,40.639 Z M11.089,51 L11.089,44.123 L9.425,44.123 L9.425,51 L11.089,51 Z M15.262,43.928 C13.663,43.928 12.61,44.786 12.61,45.93 C12.61,46.944 13.234,47.62 14.651,48.01 C15.938,48.374 16.211,48.556 16.211,49.154 C16.211,49.635 15.73,49.96 14.976,49.96 C14.287,49.96 13.65,49.687 13.13,49.271 L12.285,50.22 C12.922,50.792 13.845,51.195 15.028,51.195 C16.601,51.195 17.927,50.441 17.927,49.011 C17.927,47.789 17.134,47.217 15.73,46.84 C14.56,46.515 14.287,46.307 14.287,45.852 C14.287,45.436 14.664,45.163 15.366,45.163 C15.938,45.163 16.484,45.358 17.056,45.748 L17.706,44.747 C17.056,44.24 16.25,43.928 15.262,43.928 Z M22.815,43.928 C24.635,43.928 25.389,45.345 25.389,47.542 C25.389,49.648 24.414,51.195 22.672,51.195 C21.97,51.195 21.372,50.948 20.943,50.441 L20.943,53.652 L19.279,53.834 L19.279,44.123 L20.735,44.123 L20.826,44.968 C21.372,44.253 22.113,43.928 22.815,43.928 Z M22.204,49.921 C23.114,49.921 23.647,49.219 23.647,47.555 C23.647,45.813 23.179,45.176 22.321,45.176 C21.749,45.176 21.268,45.579 20.943,46.112 L20.943,49.206 C21.268,49.687 21.684,49.921 22.204,49.921 Z M28.626,49.323 L28.626,41.185 L26.962,41.367 L26.962,49.44 C26.962,50.584 27.547,51.195 28.574,51.195 C29.003,51.195 29.419,51.104 29.757,50.961 L29.406,49.791 C29.289,49.83 29.146,49.856 29.016,49.856 C28.743,49.856 28.626,49.7 28.626,49.323 Z M35.945,49.18 C35.945,49.739 36.127,49.934 36.465,50.064 L36.114,51.169 C35.36,51.104 34.866,50.831 34.593,50.168 C34.112,50.896 33.358,51.195 32.539,51.195 C31.161,51.195 30.316,50.324 30.316,49.076 C30.316,47.581 31.447,46.775 33.449,46.775 L34.307,46.775 L34.307,46.385 C34.307,45.488 33.904,45.189 33.02,45.189 C32.552,45.189 31.889,45.319 31.2,45.553 L30.81,44.422 C31.655,44.097 32.526,43.928 33.306,43.928 C35.139,43.928 35.945,44.773 35.945,46.294 L35.945,49.18 Z M32.981,49.986 C33.566,49.986 33.995,49.687 34.307,49.141 L34.307,47.75 L33.618,47.75 C32.539,47.75 32.006,48.14 32.006,48.946 C32.006,49.609 32.344,49.986 32.981,49.986 Z M41.158,51.026 L43.394,44.123 L41.678,44.123 L40.118,49.895 L38.623,44.123 L36.855,44.123 L39.039,51 L39.611,51 C39.221,51.975 38.779,52.417 37.414,52.625 L37.583,53.834 C39.624,53.678 40.638,52.638 41.158,51.026 Z M6.643,91.382 L6.825,90.017 L0.156,90.017 L0.156,91.382 L2.574,91.382 L2.574,99 L4.303,99 L4.303,91.382 L6.643,91.382 Z M8.97,88.639 C8.359,88.639 7.93,89.081 7.93,89.653 C7.93,90.212 8.359,90.654 8.97,90.654 C9.594,90.654 10.023,90.212 10.023,89.653 C10.023,89.081 9.594,88.639 8.97,88.639 Z M9.815,99 L9.815,92.123 L8.151,92.123 L8.151,99 L9.815,99 Z M15.756,98.675 L15.171,97.596 C14.872,97.778 14.612,97.856 14.352,97.856 C13.845,97.856 13.624,97.583 13.624,96.907 L13.624,93.319 L15.054,93.319 L15.223,92.123 L13.624,92.123 L13.624,90.407 L11.96,90.602 L11.96,92.123 L10.881,92.123 L10.881,93.319 L11.96,93.319 L11.96,96.946 C11.96,98.415 12.675,99.182 14.027,99.195 C14.638,99.195 15.262,99.026 15.756,98.675 Z M18.291,97.323 L18.291,89.185 L16.627,89.367 L16.627,97.44 C16.627,98.584 17.212,99.195 18.239,99.195 C18.668,99.195 19.084,99.104 19.422,98.961 L19.071,97.791 C18.954,97.83 18.811,97.856 18.681,97.856 C18.408,97.856 18.291,97.7 18.291,97.323 Z M26.039,95.399 C26.039,95.62 26.013,95.893 26,96.075 L21.684,96.075 C21.801,97.479 22.464,97.934 23.374,97.934 C23.985,97.934 24.492,97.739 25.09,97.323 L25.779,98.272 C25.103,98.818 24.271,99.195 23.231,99.195 C21.099,99.195 19.955,97.778 19.955,95.607 C19.955,93.514 21.06,91.928 23.01,91.928 C24.934,91.928 26.039,93.228 26.039,95.399 Z M24.388,94.996 L24.388,94.918 C24.388,93.787 23.985,93.111 23.049,93.111 C22.269,93.111 21.775,93.631 21.684,94.996 L24.388,94.996 Z M5.46,187.242 C6.487,187.437 7.514,187.918 7.514,189.413 C7.514,191.389 5.941,192 3.757,192 L1.053,192 L1.053,183.017 L3.406,183.017 C5.72,183.017 7.124,183.667 7.124,185.305 C7.124,186.423 6.318,187.06 5.46,187.242 Z M2.769,184.278 L2.769,186.709 L3.822,186.709 C4.758,186.709 5.369,186.293 5.369,185.448 C5.369,184.538 4.745,184.278 3.575,184.278 L2.769,184.278 Z M3.77,190.713 C4.901,190.713 5.72,190.479 5.72,189.348 C5.72,188.269 4.953,187.905 3.952,187.905 L2.769,187.905 L2.769,190.713 L3.77,190.713 Z M11.778,184.928 C13.806,184.928 15.002,186.306 15.002,188.555 C15.002,190.726 13.793,192.195 11.765,192.195 C9.737,192.195 8.528,190.817 8.528,188.555 C8.528,186.397 9.737,184.928 11.778,184.928 Z M11.778,186.189 C10.803,186.189 10.283,186.93 10.283,188.555 C10.283,190.206 10.79,190.934 11.765,190.934 C12.74,190.934 13.247,190.193 13.247,188.555 C13.247,186.917 12.74,186.189 11.778,186.189 Z M22.347,182.367 L22.347,192 L20.878,192 L20.761,191.129 C20.345,191.753 19.682,192.195 18.798,192.195 C17.082,192.195 16.185,190.752 16.185,188.568 C16.185,186.449 17.238,184.928 18.98,184.928 C19.682,184.928 20.254,185.24 20.683,185.669 L20.683,182.185 L22.347,182.367 Z M19.266,190.934 C19.877,190.934 20.293,190.635 20.683,190.05 L20.683,186.904 C20.319,186.462 19.942,186.176 19.383,186.176 C18.512,186.176 17.94,186.904 17.94,188.555 C17.94,190.323 18.447,190.934 19.266,190.934 Z M27.677,192.026 L29.913,185.123 L28.197,185.123 L26.637,190.895 L25.142,185.123 L23.374,185.123 L25.558,192 L26.13,192 C25.74,192.975 25.298,193.417 23.933,193.625 L24.102,194.834 C26.143,194.678 27.157,193.638 27.677,192.026 Z M4.459,239.822 C2.275,239.822 0.559,241.473 0.559,244.489 C0.559,247.544 2.184,249.195 4.511,249.195 C5.733,249.195 6.669,248.662 7.215,248.103 L6.409,247.063 C5.889,247.453 5.356,247.817 4.589,247.817 C3.302,247.817 2.366,246.855 2.366,244.489 C2.366,242.058 3.328,241.148 4.563,241.148 C5.187,241.148 5.72,241.369 6.227,241.798 L7.111,240.771 C6.383,240.16 5.642,239.822 4.459,239.822 Z M13.468,247.18 C13.468,247.739 13.65,247.934 13.988,248.064 L13.637,249.169 C12.883,249.104 12.389,248.831 12.116,248.168 C11.635,248.896 10.881,249.195 10.062,249.195 C8.684,249.195 7.839,248.324 7.839,247.076 C7.839,245.581 8.97,244.775 10.972,244.775 L11.83,244.775 L11.83,244.385 C11.83,243.488 11.427,243.189 10.543,243.189 C10.075,243.189 9.412,243.319 8.723,243.553 L8.333,242.422 C9.178,242.097 10.049,241.928 10.829,241.928 C12.662,241.928 13.468,242.773 13.468,244.294 L13.468,247.18 Z M10.504,247.986 C11.089,247.986 11.518,247.687 11.83,247.141 L11.83,245.75 L11.141,245.75 C10.062,245.75 9.529,246.14 9.529,246.946 C9.529,247.609 9.867,247.986 10.504,247.986 Z M19.019,241.928 C20.839,241.928 21.593,243.345 21.593,245.542 C21.593,247.648 20.618,249.195 18.876,249.195 C18.174,249.195 17.576,248.948 17.147,248.441 L17.147,251.652 L15.483,251.834 L15.483,242.123 L16.939,242.123 L17.03,242.968 C17.576,242.253 18.317,241.928 19.019,241.928 Z M18.408,247.921 C19.318,247.921 19.851,247.219 19.851,245.555 C19.851,243.813 19.383,243.176 18.525,243.176 C17.953,243.176 17.472,243.579 17.147,244.112 L17.147,247.206 C17.472,247.687 17.888,247.921 18.408,247.921 Z M27.17,248.675 L26.585,247.596 C26.286,247.778 26.026,247.856 25.766,247.856 C25.259,247.856 25.038,247.583 25.038,246.907 L25.038,243.319 L26.468,243.319 L26.637,242.123 L25.038,242.123 L25.038,240.407 L23.374,240.602 L23.374,242.123 L22.295,242.123 L22.295,243.319 L23.374,243.319 L23.374,246.946 C23.374,248.415 24.089,249.182 25.441,249.195 C26.052,249.195 26.676,249.026 27.17,248.675 Z M28.925,238.639 C28.314,238.639 27.885,239.081 27.885,239.653 C27.885,240.212 28.314,240.654 28.925,240.654 C29.549,240.654 29.978,240.212 29.978,239.653 C29.978,239.081 29.549,238.639 28.925,238.639 Z M29.77,249 L29.77,242.123 L28.106,242.123 L28.106,249 L29.77,249 Z M34.58,241.928 C36.608,241.928 37.804,243.306 37.804,245.555 C37.804,247.726 36.595,249.195 34.567,249.195 C32.539,249.195 31.33,247.817 31.33,245.555 C31.33,243.397 32.539,241.928 34.58,241.928 Z M34.58,243.189 C33.605,243.189 33.085,243.93 33.085,245.555 C33.085,247.206 33.592,247.934 34.567,247.934 C35.542,247.934 36.049,247.193 36.049,245.555 C36.049,243.917 35.542,243.189 34.58,243.189 Z M43.03,241.928 C42.159,241.928 41.47,242.331 40.937,243.02 L40.807,242.123 L39.364,242.123 L39.364,249 L41.028,249 L41.028,244.216 C41.431,243.579 41.873,243.176 42.471,243.176 C42.991,243.176 43.316,243.423 43.316,244.281 L43.316,249 L44.98,249 L44.98,244.021 C44.98,242.708 44.265,241.928 43.03,241.928 Z"/>
    <path fill="#000F40" d="M85.396484 96.7441406C85.654298 96.937501 85.938963 97.1111646 86.250488 97.2651367 86.562013 97.4191088 86.880695 97.5480138 87.206543 97.6518555 87.532391 97.7556971 87.860024 97.8344724 88.189453 97.8881836 88.518882 97.9418948 88.833983 97.96875 89.134766 97.96875 90.302089 97.96875 91.175778 97.7431663 91.755859 97.2919922 92.33594 96.8408181 92.625977 96.1927126 92.625977 95.3476562 92.625977 94.9394511 92.557943 94.5831721 92.421875 94.2788086 92.285807 93.9744451 92.074546 93.68978 91.788086 93.4248047 91.501626 93.1598294 91.139976 92.8966484 90.703125 92.6352539 90.266274 92.3738594 89.750654 92.0784522 89.15625 91.7490234 88.497393 91.3909487 87.933433 91.0525732 87.464355 90.7338867 86.995278 90.4152002 86.612143 90.0893571 86.314941 89.7563477 86.017739 89.4233382 85.799317 89.0634785 85.659668 88.6767578 85.520019 88.2900371 85.450195 87.8496118 85.450195 87.3554688 85.450195 86.7324188 85.582681 86.1738306 85.847656 85.6796875 86.112632 85.1855444 86.470701 84.7648129 86.921875 84.4174805 87.373049 84.070148 87.901201 83.8033863 88.506348 83.6171875 89.111494 83.4309887 89.757809 83.3378906 90.445312 83.3378906 91.655605 83.3378906 92.668941 83.5061832 93.485352 83.8427734L93.485352 85.421875C92.575842 84.8990859 91.508795 84.6376953 90.28418 84.6376953 89.825844 84.6376953 89.394371 84.6931961 88.989746 84.8041992 88.585122 84.9152024 88.230633 85.0781239 87.92627 85.2929688 87.621906 85.5078136 87.382 85.7745752 87.206543 86.0932617 87.031086 86.4119482 86.943359 86.78255 86.943359 87.2050781 86.943359 87.6061218 87.002441 87.9516587 87.120605 88.2416992 87.23877 88.5317397 87.428547 88.8056628 87.689941 89.0634766 87.951336 89.3212904 88.295083 89.5773099 88.721191 89.831543 89.1473 90.085776 89.668291 90.3776025 90.28418 90.7070312 90.928714 91.050783 91.490883 91.3855778 91.970703 91.7114258 92.450523 92.0372738 92.849771 92.3774396 93.168457 92.7319336 93.487144 93.0864276 93.72526 93.4624004 93.882812 93.8598633 94.040365 94.2573262 94.119141 94.6995418 94.119141 95.1865234 94.119141 95.8597039 93.993816 96.4523086 93.743164 96.9643555 93.492512 97.4764023 93.141604 97.9007145 92.69043 98.2373047 92.239256 98.5738949 91.702152 98.8281241 91.079102 99 90.456052 99.1718759 89.772139 99.2578125 89.027344 99.2578125 88.783853 99.2578125 88.493817 99.2381187 88.157227 99.1987305 87.820636 99.1593423 87.48047 99.1020512 87.136719 99.0268555 86.792967 98.9516598 86.465334 98.8621424 86.153809 98.7583008 85.842284 98.6544591 85.589845 98.5416673 85.396484 98.4199219L85.396484 96.7441406zM97.739258 93.7470703C97.746419 94.4202508 97.835937 95.0253879 98.007812 95.5625 98.179688 96.0996121 98.426756 96.5543601 98.749023 96.9267578 99.071291 97.2991555 99.463377 97.5838206 99.925293 97.7807617 100.387209 97.9777028 100.9082 98.0761719 101.488281 98.0761719 102.72722 98.0761719 103.898106 97.642908 105.000977 96.7763672L105.000977 98.1298828C103.948237 98.8818397 102.67351 99.2578125 101.176758 99.2578125 100.439124 99.2578125 99.769534 99.1289075 99.167969 98.8710938 98.566403 98.61328 98.054364 98.2390975 97.631836 97.7485352 97.209308 97.2579728 96.883465 96.654626 96.654297 95.9384766 96.425129 95.2223271 96.310547 94.4059291 96.310547 93.4892578 96.310547 92.665686 96.435871 91.9029983 96.686523 91.2011719 96.937176 90.4993454 97.284503 89.8924179 97.728516 89.3803711 98.172528 88.8683243 98.69889 88.4672866 99.307617 88.1772461 99.916344 87.8872056 100.582353 87.7421875 101.305664 87.7421875 102.014652 87.7421875 102.641273 87.8657214 103.185547 88.112793 103.72982 88.3598645 104.186359 88.7125628 104.555176 89.1708984 104.923993 89.6292341 105.205077 90.1878222 105.398438 90.8466797 105.591798 91.5055371 105.688477 92.24316 105.688477 93.0595703L105.688477 93.7470703 97.739258 93.7470703zM104.270508 92.5439453C104.249023 91.3981062 103.976891 90.5100943 103.454102 89.8798828 102.931312 89.2496713 102.204432 88.9345703 101.273438 88.9345703 100.80794 88.9345703 100.376467 89.0169263 99.979004 89.1816406 99.581541 89.346355 99.232423 89.5844711 98.931641 89.8959961 98.630858 90.2075211 98.382 90.5870746 98.185059 91.034668 97.988118 91.4822614 97.850261 91.9853488 97.771484 92.5439453L104.270508 92.5439453zM122.209961 99L122.209961 92.5332031C122.209961 91.8743457 122.159831 91.3175478 122.05957 90.862793 121.959309 90.4080381 121.803549 90.0374363 121.592285 89.7509766 121.381021 89.4645168 121.112469 89.2568366 120.786621 89.1279297 120.460773 88.9990228 120.072268 88.9345703 119.621094 88.9345703 119.22005 88.9345703 118.840497 89.0294587 118.482422 89.2192383 118.124347 89.4090179 117.811036 89.6704085 117.54248 90.003418 117.273924 90.3364274 117.062664 90.7285134 116.908691 91.1796875 116.754719 91.6308616 116.677734 92.1178359 116.677734 92.640625L116.677734 99 115.302734 99 115.302734 92.3935547C115.302734 90.0875536 114.418303 88.9345703 112.649414 88.9345703 112.241209 88.9345703 111.861655 89.025878 111.510742 89.2084961 111.159829 89.3911142 110.85368 89.6471338 110.592285 89.9765625 110.330891 90.3059912 110.126791 90.7016578 109.97998 91.1635742 109.83317 91.6254906 109.759766 92.1357394 109.759766 92.6943359L109.759766 99 108.384766 99 108.384766 88 109.759766 88 109.759766 89.7832031 109.802734 89.7832031C110.576176 88.4225192 111.704094 87.7421875 113.186523 87.7421875 113.573244 87.7421875 113.938475 87.8012689 114.282227 87.9194336 114.625978 88.0375982 114.933918 88.2023101 115.206055 88.4135742 115.478191 88.6248383 115.712727 88.8772772 115.909668 89.1708984 116.106609 89.4645197 116.255208 89.7867821 116.355469 90.1376953 116.742189 89.3570925 117.245277 88.7626974 117.864746 88.3544922 118.484215 87.946287 119.184241 87.7421875 119.964844 87.7421875 122.378267 87.7421875 123.584961 89.2317559 123.584961 92.2109375L123.584961 99 122.209961 99zM127.570312 85.2177734C127.305337 85.2177734 127.076173 85.1246754 126.882812 84.9384766 126.689452 84.7522777 126.592773 84.515952 126.592773 84.2294922 126.592773 83.9501939 126.689452 83.7192392 126.882812 83.5366211 127.076173 83.354003 127.305337 83.2626953 127.570312 83.2626953 127.706381 83.2626953 127.835286 83.2859698 127.957031 83.3325195 128.078777 83.3790692 128.184407 83.4453121 128.273926 83.53125 128.363444 83.6171879 128.435058 83.7192377 128.48877 83.8374023 128.542481 83.955567 128.569336 84.0862623 128.569336 84.2294922 128.569336 84.3655606 128.544271 84.4944655 128.494141 84.6162109 128.44401 84.7379563 128.372396 84.8435868 128.279297 84.9331055 128.186197 85.0226241 128.080567 85.0924477 127.962402 85.1425781 127.844238 85.1927086 127.713542 85.2177734 127.570312 85.2177734zM126.893555 99L126.893555 88 128.268555 88 128.268555 99 126.893555 99zM131.813477 99L131.813477 82.7148438 133.188477 82.7148438 133.188477 99 131.813477 99zM137.410156 85.2177734C137.145181 85.2177734 136.916017 85.1246754 136.722656 84.9384766 136.529296 84.7522777 136.432617 84.515952 136.432617 84.2294922 136.432617 83.9501939 136.529296 83.7192392 136.722656 83.5366211 136.916017 83.354003 137.145181 83.2626953 137.410156 83.2626953 137.546225 83.2626953 137.67513 83.2859698 137.796875 83.3325195 137.91862 83.3790692 138.024251 83.4453121 138.11377 83.53125 138.203288 83.6171879 138.274902 83.7192377 138.328613 83.8374023 138.382324 83.955567 138.40918 84.0862623 138.40918 84.2294922 138.40918 84.3655606 138.384115 84.4944655 138.333984 84.6162109 138.283854 84.7379563 138.21224 84.8435868 138.119141 84.9331055 138.026041 85.0226241 137.920411 85.0924477 137.802246 85.1425781 137.684081 85.1927086 137.553386 85.2177734 137.410156 85.2177734zM136.733398 99L136.733398 88 138.108398 88 138.108398 99 136.733398 99zM150.741211 98.1513672C150.741211 100.192393 150.277511 101.705236 149.350098 102.689941 148.422684 103.674647 146.992197 104.166992 145.058594 104.166992 143.855463 104.166992 142.716802 103.89844 141.642578 103.361328L141.642578 101.964844C142.838548 102.630863 143.977208 102.963867 145.058594 102.963867 147.930353 102.963867 149.366211 101.445653 149.366211 98.4091797L149.366211 97.0878906 149.323242 97.0878906C148.478186 98.5345124 147.189136 99.2578125 145.456055 99.2578125 144.775713 99.2578125 144.154462 99.1324882 143.592285 98.8818359 143.030108 98.6311836 142.548505 98.2695336 142.147461 97.796875 141.746417 97.3242164 141.434897 96.7495151 141.212891 96.0727539 140.990884 95.3959927 140.879883 94.6315147 140.879883 93.7792969 140.879883 92.8769486 140.998046 92.0551795 141.234375 91.3139648 141.470704 90.5727502 141.807289 89.9371771 142.244141 89.4072266 142.680992 88.877276 143.209144 88.4672866 143.828613 88.1772461 144.448083 87.8872056 145.144527 87.7421875 145.917969 87.7421875 147.472013 87.7421875 148.607093 88.3723895 149.323242 89.6328125L149.366211 89.6328125 149.366211 88 150.741211 88 150.741211 98.1513672zM149.366211 92.3183594C149.366211 91.8600237 149.283855 91.4267599 149.119141 91.0185547 148.954426 90.6103495 148.725262 90.2522802 148.431641 89.9443359 148.138019 89.6363917 147.788902 89.3911142 147.384277 89.2084961 146.979653 89.025878 146.533857 88.9345703 146.046875 88.9345703 145.473955 88.9345703 144.956545 89.0455718 144.494629 89.2675781 144.032713 89.4895844 143.638836 89.8046855 143.312988 90.2128906 142.98714 90.6210958 142.736492 91.1170218 142.561035 91.7006836 142.385579 92.2843454 142.297852 92.9414026 142.297852 93.671875 142.297852 94.3450554 142.380208 94.9537733 142.544922 95.4980469 142.709636 96.0423204 142.942381 96.5042299 143.243164 96.8837891 143.543947 97.2633483 143.907387 97.5569651 144.333496 97.7646484 144.759605 97.9723318 145.234047 98.0761719 145.756836 98.0761719 146.301109 98.0761719 146.795245 97.9777028 147.239258 97.7807617 147.68327 97.5838206 148.062824 97.3116879 148.37793 96.9643555 148.693035 96.617023 148.936523 96.208824 149.108398 95.7397461 149.280274 95.2706682 149.366211 94.7640001 149.366211 94.2197266L149.366211 92.3183594zM161.708984 99L161.708984 92.5332031C161.708984 91.3014261 161.486981 90.3937204 161.042969 89.8100586 160.598956 89.2263968 159.907882 88.9345703 158.969727 88.9345703 158.525714 88.9345703 158.103192 89.0240876 157.702148 89.203125 157.301105 89.3821624 156.950197 89.6399723 156.649414 89.9765625 156.348631 90.3131527 156.108725 90.7231421 155.929688 91.206543 155.75065 91.6899438 155.661133 92.2359996 155.661133 92.8447266L155.661133 99 154.286133 99 154.286133 82.7148438 155.661133 82.7148438 155.661133 89.9013672 155.704102 89.9013672C156.563481 88.4619069 157.795239 87.7421875 159.399414 87.7421875 160.62403 87.7421875 161.544268 88.1181603 162.160156 88.8701172 162.776045 89.6220741 163.083984 90.732089 163.083984 92.2001953L163.083984 99 161.708984 99zM171.119141 98.8710938C170.646482 99.1074231 170.130862 99.2255859 169.572266 99.2255859 167.796215 99.2255859 166.908203 98.2015076 166.908203 96.1533203L166.908203 89.203125 164.974609 89.203125 164.974609 88 166.908203 88 166.908203 85.2285156 168.283203 84.7773438 168.283203 88 171.119141 88 171.119141 89.203125 168.283203 89.203125 168.283203 95.9384766C168.283203 96.683272 168.404947 97.220376 168.648438 97.5498047 168.891928 97.8792334 169.303708 98.0439453 169.883789 98.0439453 170.313479 98.0439453 170.725258 97.9150404 171.119141 97.6572266L171.119141 98.8710938zM186.136719 87.5488281C186.136719 87.0618465 186.063315 86.630373 185.916504 86.2543945 185.769693 85.8784161 185.563803 85.5633151 185.298828 85.309082 185.033853 85.054849 184.715171 84.8632819 184.342773 84.734375 183.970376 84.6054681 183.558596 84.5410156 183.107422 84.5410156 182.419918 84.5410156 181.759281 84.7039372 181.125488 85.0297852 180.491696 85.3556331 179.895511 85.7906874 179.336914 86.3349609L179.336914 84.8095703C179.881188 84.3440732 180.475583 83.9824232 181.120117 83.7246094 181.764652 83.4667956 182.491532 83.3378906 183.300781 83.3378906 183.429688 83.3378906 183.553222 83.345052 183.671387 83.359375 183.789551 83.373698 183.905924 83.3951821 184.020508 83.4238281 184.550458 83.4811201 185.032062 83.6153961 185.465332 83.8266602 185.898602 84.0379242 186.269204 84.3118473 186.577148 84.6484375 186.885093 84.9850277 187.123209 85.384275 187.291504 85.8461914 187.459799 86.3081078 187.543945 86.8219373 187.543945 87.3876953 187.543945 88.0465528 187.458009 88.6373672 187.286133 89.1601562 187.114257 89.6829453 186.868979 90.1645486 186.550293 90.6049805 186.231606 91.0454124 185.848472 91.4607728 185.400879 91.8510742 184.953286 92.2413756 184.453779 92.6334616 183.902344 93.0273438 183.286455 93.4713564 182.758303 93.8634423 182.317871 94.2036133 181.877439 94.5437843 181.512208 94.867837 181.222168 95.1757812 180.932127 95.4837255 180.711915 95.7916651 180.561523 96.0996094 180.411132 96.4075536 180.314453 96.7513002 180.271484 97.1308594 180.235677 97.2311203 180.212402 97.3313797 180.20166 97.4316406 180.190918 97.5319015 180.185547 97.642903 180.185547 97.7646484L187.855469 97.7646484 187.855469 99 178.735352 99 178.735352 98.2587891C178.735352 97.5712856 178.815917 96.9751002 178.977051 96.4702148 179.138184 95.9653295 179.390623 95.492678 179.734375 95.0522461 180.078127 94.6118142 180.518552 94.1731793 181.055664 93.7363281 181.592776 93.299477 182.237301 92.808922 182.989258 92.2646484 183.497724 91.8922507 183.948891 91.5323911 184.342773 91.1850586 184.736656 90.8377261 185.066079 90.4796568 185.331055 90.1108398 185.59603 89.7420229 185.796549 89.349937 185.932617 88.9345703 186.068686 88.5192037 186.136719 88.0572942 186.136719 87.5488281zM197.727539 87.5488281C197.727539 87.0618465 197.654135 86.630373 197.507324 86.2543945 197.360514 85.8784161 197.154624 85.5633151 196.889648 85.309082 196.624673 85.054849 196.305991 84.8632819 195.933594 84.734375 195.561196 84.6054681 195.149416 84.5410156 194.698242 84.5410156 194.010739 84.5410156 193.350101 84.7039372 192.716309 85.0297852 192.082516 85.3556331 191.486331 85.7906874 190.927734 86.3349609L190.927734 84.8095703C191.472008 84.3440732 192.066403 83.9824232 192.710938 83.7246094 193.355472 83.4667956 194.082353 83.3378906 194.891602 83.3378906 195.020508 83.3378906 195.144042 83.345052 195.262207 83.359375 195.380372 83.373698 195.496744 83.3951821 195.611328 83.4238281 196.141279 83.4811201 196.622882 83.6153961 197.056152 83.8266602 197.489423 84.0379242 197.860025 84.3118473 198.167969 84.6484375 198.475913 84.9850277 198.714029 85.384275 198.882324 85.8461914 199.050619 86.3081078 199.134766 86.8219373 199.134766 87.3876953 199.134766 88.0465528 199.048829 88.6373672 198.876953 89.1601562 198.705077 89.6829453 198.4598 90.1645486 198.141113 90.6049805 197.822427 91.0454124 197.439293 91.4607728 196.991699 91.8510742 196.544106 92.2413756 196.044599 92.6334616 195.493164 93.0273438 194.877276 93.4713564 194.349123 93.8634423 193.908691 94.2036133 193.46826 94.5437843 193.103029 94.867837 192.812988 95.1757812 192.522948 95.4837255 192.302735 95.7916651 192.152344 96.0996094 192.001952 96.4075536 191.905274 96.7513002 191.862305 97.1308594 191.826497 97.2311203 191.803223 97.3313797 191.79248 97.4316406 191.781738 97.5319015 191.776367 97.642903 191.776367 97.7646484L199.446289 97.7646484 199.446289 99 190.326172 99 190.326172 98.2587891C190.326172 97.5712856 190.406737 96.9751002 190.567871 96.4702148 190.729005 95.9653295 190.981444 95.492678 191.325195 95.0522461 191.668947 94.6118142 192.109372 94.1731793 192.646484 93.7363281 193.183596 93.299477 193.828121 92.808922 194.580078 92.2646484 195.088544 91.8922507 195.539712 91.5323911 195.933594 91.1850586 196.327476 90.8377261 196.6569 90.4796568 196.921875 90.1108398 197.18685 89.7420229 197.387369 89.349937 197.523438 88.9345703 197.659506 88.5192037 197.727539 88.0572942 197.727539 87.5488281zM203.96875 97.2275391L203.96875 104.05957 202.59375 104.05957 202.59375 88 203.96875 88 203.96875 90.1054688 204.011719 90.1054688C204.419924 89.3391889 204.96598 88.7537455 205.649902 88.3491211 206.333825 87.9444967 207.105464 87.7421875 207.964844 87.7421875 208.66667 87.7421875 209.295082 87.8693021 209.850098 88.1235352 210.405113 88.3777682 210.874184 88.7376279 211.257324 89.203125 211.640464 89.6686221 211.934081 90.2343717 212.138184 90.9003906 212.342286 91.5664096 212.444336 92.3147745 212.444336 93.1455078 212.444336 94.0550176 212.329754 94.8839481 212.100586 95.6323242 211.871418 96.3807004 211.541994 97.0234348 211.112305 97.5605469 210.682615 98.0976589 210.161624 98.5148097 209.549316 98.8120117 208.937009 99.1092137 208.247725 99.2578125 207.481445 99.2578125 205.934563 99.2578125 204.777999 98.5810615 204.011719 97.2275391L203.96875 97.2275391zM203.96875 94.4238281C203.96875 94.9251327 204.052896 95.3959939 204.221191 95.8364258 204.389487 96.2768577 204.624022 96.6635726 204.924805 96.996582 205.225587 97.3295915 205.589028 97.5927725 206.015137 97.7861328 206.441246 97.9794932 206.912107 98.0761719 207.427734 98.0761719 207.979169 98.0761719 208.476886 97.9597993 208.920898 97.7270508 209.364911 97.4943022 209.742674 97.1630881 210.054199 96.7333984 210.365724 96.3037088 210.605631 95.7845083 210.773926 95.1757812 210.942221 94.5670542 211.026367 93.8867225 211.026367 93.1347656 211.026367 92.4902312 210.947592 91.9083685 210.790039 91.3891602 210.632486 90.8699518 210.408693 90.4277362 210.118652 90.0625 209.828612 89.6972638 209.477704 89.4179697 209.065918 89.2246094 208.654132 89.031249 208.194013 88.9345703 207.685547 88.9345703 207.112627 88.9345703 206.597008 89.0402008 206.138672 89.2514648 205.680336 89.4627289 205.290041 89.7509747 204.967773 90.1162109 204.645506 90.4814471 204.398438 90.90934 204.226562 91.3999023 204.054687 91.8904647 203.96875 92.4114556 203.96875 92.9628906L203.96875 94.4238281zM218.825195 93.5859375L222.43457 99 220.780273 99 218.545898 95.3583984C218.459961 95.22233 218.372234 95.082683 218.282715 94.9394531 218.193196 94.7962232 218.101888 94.6422534 218.008789 94.4775391L217.96582 94.4775391C217.930013 94.549154 217.874512 94.6440424 217.799316 94.762207 217.724121 94.8803717 217.632813 95.0289705 217.525391 95.2080078L215.119141 99 213.49707 99 217.213867 93.6181641 213.615234 88 215.21582 88 217.503906 91.8564453C217.61849 92.0498057 217.71875 92.2234693 217.804688 92.3774414 217.890625 92.5314135 217.962239 92.6585281 218.019531 92.7587891L218.0625 92.7587891C218.155599 92.6227207 218.241536 92.484864 218.320312 92.3452148 218.399089 92.2055657 218.481445 92.0641283 218.567383 91.9208984L220.995117 88 222.541992 88 218.825195 93.5859375zM84.921387 130.526855L84.921387 128.493164C85.104005 128.659181 85.321206 128.808593 85.572998 128.941406 85.82479 129.074219 86.091795 129.186279 86.374023 129.277588 86.656251 129.368897 86.938475 129.439453 87.220703 129.489258 87.502931 129.539063 87.76302 129.563965 88.000977 129.563965 88.831059 129.563965 89.449461 129.42562 89.856201 129.148926 90.262941 128.872232 90.466309 128.471031 90.466309 127.945312 90.466309 127.663085 90.39852 127.418214 90.262939 127.210693 90.127359 127.003173 89.937827 126.81364 89.694336 126.64209 89.450845 126.47054 89.164471 126.305909 88.835205 126.148193 88.505939 125.990478 88.153159 125.825847 87.776855 125.654297 87.372882 125.438475 86.996584 125.21989 86.647949 124.998535 86.299315 124.77718 85.996339 124.532309 85.739014 124.263916 85.481688 123.995523 85.279705 123.692547 85.133057 123.35498 84.986409 123.017414 84.913086 122.621747 84.913086 122.167969 84.913086 121.609047 85.03898 121.123456 85.290771 120.711182 85.542563 120.298907 85.874591 119.958579 86.286865 119.690186 86.699139 119.421792 87.168129 119.222576 87.693848 119.092529 88.219566 118.962483 88.756345 118.897461 89.304199 118.897461 90.549323 118.897461 91.456866 119.038573 92.026855 119.320801L92.026855 121.271484C91.351722 120.784503 90.482915 120.541016 89.42041 120.541016 89.127114 120.541016 88.835207 120.568685 88.544678 120.624023 88.254149 120.679362 87.99406 120.77067 87.764404 120.897949 87.534748 121.025229 87.347982 121.188476 87.204102 121.387695 87.060221 121.586915 86.988281 121.827635 86.988281 122.109863 86.988281 122.37549 87.043619 122.605142 87.154297 122.798828 87.264975 122.992514 87.426838 123.169596 87.639893 123.330078 87.852947 123.490561 88.113036 123.646891 88.420166 123.799072 88.727296 123.951254 89.082843 124.115885 89.486816 124.292969 89.901858 124.50879 90.293374 124.735676 90.661377 124.973633 91.02938 125.21159 91.353107 125.474445 91.632568 125.762207 91.912029 126.049969 92.133381 126.369546 92.296631 126.720947 92.45988 127.072349 92.541504 127.472166 92.541504 127.92041 92.541504 128.523603 92.41976 129.032713 92.17627 129.447754 91.932779 129.862795 91.604901 130.200357 91.192627 130.460449 90.780353 130.720542 90.30583 130.908691 89.769043 131.024902 89.232256 131.141114 88.665042 131.199219 88.067383 131.199219 87.868163 131.199219 87.623292 131.184001 87.332764 131.153564 87.042235 131.123128 86.744793 131.078858 86.44043 131.020752 86.136066 130.962646 85.848309 130.89209 85.577148 130.809082 85.305988 130.726074 85.087403 130.631999 84.921387 130.526855zM101.705566 127.272949L95.911621 127.272949C95.933757 128.05876 96.17586 128.664711 96.637939 129.09082 97.100019 129.516929 97.735022 129.72998 98.542969 129.72998 99.450525 129.72998 100.283362 129.458824 101.041504 128.916504L101.041504 130.46875C100.26676 130.955732 99.243008 131.199219 97.970215 131.199219 96.719558 131.199219 95.738692 130.813236 95.027588 130.04126 94.316484 129.269283 93.960938 128.183275 93.960938 126.783203 93.960938 125.460605 94.352454 124.382898 95.135498 123.550049 95.918542 122.7172 96.891107 122.300781 98.053223 122.300781 99.215338 122.300781 100.11458 122.674313 100.750977 123.421387 101.387373 124.168461 101.705566 125.206048 101.705566 126.53418L101.705566 127.272949zM99.846191 125.911621C99.840658 125.219886 99.67741 124.681724 99.356445 124.297119 99.03548 123.912514 98.592776 123.720215 98.02832 123.720215 97.474932 123.720215 97.005943 123.922199 96.621338 124.326172 96.236733 124.730145 96.000163 125.258623 95.911621 125.911621L99.846191 125.911621zM116.248535 131L114.322754 131 114.322754 126.368164C114.322754 125.477209 114.19686 124.832522 113.945068 124.434082 113.693277 124.035643 113.268558 123.836426 112.670898 123.836426 112.167315 123.836426 111.739829 124.088214 111.388428 124.591797 111.037026 125.09538 110.861328 125.698564 110.861328 126.401367L110.861328 131 108.927246 131 108.927246 126.210449C108.927246 124.627759 108.368332 123.836426 107.250488 123.836426 106.730303 123.836426 106.302817 124.074379 105.968018 124.550293 105.633218 125.026207 105.46582 125.643225 105.46582 126.401367L105.46582 131 103.540039 131 103.540039 122.5 105.46582 122.5 105.46582 123.844727 105.499023 123.844727C106.113284 122.815425 107.006993 122.300781 108.180176 122.300781 108.766767 122.300781 109.280027 122.462645 109.719971 122.786377 110.159914 123.110109 110.460123 123.534828 110.620605 124.060547 111.251468 122.887364 112.192214 122.300781 113.442871 122.300781 115.313323 122.300781 116.248535 123.454578 116.248535 125.762207L116.248535 131zM119.568848 120.715332C119.253416 120.715332 118.983644 120.612957 118.759521 120.408203 118.535399 120.203449 118.42334 119.943361 118.42334 119.62793 118.42334 119.312498 118.535399 119.049643 118.759521 118.839355 118.983644 118.629068 119.253416 118.523926 119.568848 118.523926 119.895347 118.523926 120.172037 118.629068 120.398926 118.839355 120.625815 119.049643 120.739258 119.312498 120.739258 119.62793 120.739258 119.926759 120.625815 120.182698 120.398926 120.395752 120.172037 120.608806 119.895347 120.715332 119.568848 120.715332zM120.523438 131L118.597656 131 118.597656 122.5 120.523438 122.5 120.523438 131zM124.997559 129.771484L124.964355 129.771484 124.964355 131 123.038574 131 123.038574 118.416016 124.964355 118.416016 124.964355 123.994141 124.997559 123.994141C125.656091 122.865229 126.618972 122.300781 127.88623 122.300781 128.959804 122.300781 129.799558 122.68123 130.405518 123.442139 131.011478 124.203047 131.314453 125.22265 131.314453 126.500977 131.314453 127.923184 130.974124 129.061763 130.293457 129.916748 129.61279 130.771733 128.683111 131.199219 127.504395 131.199219 126.397618 131.199219 125.562015 130.723312 124.997559 129.771484zM124.947754 126.393066L124.947754 127.447266C124.947754 128.06706 125.145587 128.592771 125.54126 129.024414 125.936932 129.456057 126.439125 129.671875 127.047852 129.671875 127.761722 129.671875 128.322019 129.393802 128.72876 128.837646 129.1355 128.281491 129.338867 127.505376 129.338867 126.509277 129.338867 125.673661 129.149335 125.019289 128.770264 124.546143 128.391193 124.072996 127.877933 123.836426 127.230469 123.836426 126.544267 123.836426 125.992271 124.079913 125.574463 124.566895 125.156655 125.053876 124.947754 125.662594 124.947754 126.393066zM137.050293 131.199219C135.738763 131.199219 134.691492 130.802169 133.908447 130.008057 133.125403 129.213945 132.733887 128.161139 132.733887 126.849609 132.733887 125.421868 133.142004 124.306807 133.958252 123.504395 134.7745 122.701982 135.874342 122.300781 137.257812 122.300781 138.585944 122.300781 139.620765 122.690914 140.362305 123.471191 141.103845 124.251469 141.474609 125.333326 141.474609 126.716797 141.474609 128.072598 141.074792 129.158606 140.275146 129.974854 139.475501 130.791101 138.40056 131.199219 137.050293 131.199219zM137.141602 123.836426C136.388994 123.836426 135.79411 124.099281 135.356934 124.625 134.919757 125.150719 134.701172 125.875646 134.701172 126.799805 134.701172 127.69076 134.922524 128.392169 135.365234 128.904053 135.807945 129.415937 136.400061 129.671875 137.141602 129.671875 137.899743 129.671875 138.482176 129.420087 138.888916 128.916504 139.295656 128.412921 139.499023 127.696294 139.499023 126.766602 139.499023 125.831376 139.295656 125.109215 138.888916 124.600098 138.482176 124.090981 137.899743 123.836426 137.141602 123.836426zM145.367676 131L143.433594 131 143.433594 118.416016 145.367676 118.416016 145.367676 131zM155.602539 131L153.676758 131 153.676758 129.555664 153.643555 129.555664C153.02376 130.651373 152.06918 131.199219 150.779785 131.199219 149.733881 131.199219 148.896894 130.81877 148.268799 130.057861 147.640703 129.296953 147.32666 128.260749 147.32666 126.949219 147.32666 125.543613 147.673906 124.417485 148.368408 123.570801 149.06291 122.724117 149.988438 122.300781 151.14502 122.300781 152.290533 122.300781 153.12337 122.760087 153.643555 123.678711L153.676758 123.678711 153.676758 118.416016 155.602539 118.416016 155.602539 131zM153.70166 127.115234L153.70166 126.00293C153.70166 125.399737 153.50521 124.88786 153.112305 124.467285 152.719399 124.04671 152.21859 123.836426 151.609863 123.836426 150.890459 123.836426 150.324628 124.104815 149.912354 124.641602 149.500079 125.178388 149.293945 125.922684 149.293945 126.874512 149.293945 127.737797 149.491779 128.419838 149.887451 128.920654 150.283124 129.421471 150.815752 129.671875 151.485352 129.671875 152.143884 129.671875 152.677895 129.429771 153.087402 128.945557 153.49691 128.461342 153.70166 127.851241 153.70166 127.115234zM166.642578 118.831055L166.642578 131 164.716797 131 164.716797 121.188477C164.368162 121.437501 163.993247 121.649169 163.592041 121.823486 163.190835 121.997804 162.732913 122.151367 162.218262 122.28418L162.218262 120.640625C162.539227 120.535481 162.84912 120.424805 163.147949 120.308594 163.446779 120.192382 163.741454 120.062338 164.031982 119.918457 164.322511 119.774576 164.615803 119.614096 164.911865 119.437012 165.207928 119.259928 165.51367 119.057944 165.829102 118.831055L166.642578 118.831055zM176.910645 120.05957C176.412595 120.972661 175.942222 121.876053 175.499512 122.769775 175.056801 123.663497 174.655601 124.561356 174.295898 125.463379 173.936196 126.365402 173.623536 127.274328 173.35791 128.190186 173.092284 129.106043 172.887533 130.042638 172.743652 131L170.726562 131C170.859376 130.147782 171.048908 129.296961 171.295166 128.44751 171.541424 127.598059 171.830565 126.748621 172.162598 125.89917 172.494631 125.049719 172.866779 124.196131 173.279053 123.338379 173.691327 122.480627 174.12988 121.614588 174.594727 120.740234L168.958496 120.740234 168.958496 119.09668 176.910645 119.09668 176.910645 120.05957zM180.704102 129.746582L180.670898 129.746582 180.670898 134.909668 178.745117 134.909668 178.745117 122.5 180.670898 122.5 180.670898 123.994141 180.704102 123.994141C181.362634 122.865229 182.325514 122.300781 183.592773 122.300781 184.67188 122.300781 185.513018 122.679846 186.116211 123.437988 186.719404 124.19613 187.020996 125.214349 187.020996 126.492676 187.020996 127.90935 186.680667 129.043778 186 129.895996 185.319333 130.748214 184.389654 131.174316 183.210938 131.174316 182.126297 131.174316 181.290693 130.69841 180.704102 129.746582zM180.654297 126.393066L180.654297 127.447266C180.654297 128.06706 180.85213 128.592771 181.247803 129.024414 181.643475 129.456057 182.145668 129.671875 182.754395 129.671875 183.468265 129.671875 184.028562 129.393802 184.435303 128.837646 184.842043 128.281491 185.04541 127.505376 185.04541 126.509277 185.04541 125.673661 184.855878 125.019289 184.476807 124.546143 184.097736 124.072996 183.584476 123.836426 182.937012 123.836426 182.25081 123.836426 181.698814 124.079913 181.281006 124.566895 180.863198 125.053876 180.654297 125.662594 180.654297 126.393066zM195.828125 122.5L192.997559 126.799805 195.794922 131 193.562012 131 192.067871 128.368652C191.973795 128.20817 191.863119 128.003419 191.73584 127.754395L191.702637 127.754395C191.680501 127.804199 191.564291 128.00895 191.354004 128.368652L189.834961 131 187.610352 131 190.499023 126.833008 187.759766 122.5 190.000977 122.5 191.470215 125.26416C191.580892 125.468914 191.688802 125.679198 191.793945 125.89502L191.818848 125.89502 193.719727 122.5 195.828125 122.5zM93.7342559 192L92.2254669 192 86.8201934 183.628418C86.683474 183.418456 86.5711704 183.198732 86.4832794 182.969238L86.439334 182.969238C86.4783967 183.193849 86.4979278 183.674801 86.4979278 184.412109L86.4979278 192 85.267459 192 85.267459 181.49707 86.8641387 181.49707 92.1229278 189.736816C92.3426555 190.078615 92.4842556 190.312988 92.5477325 190.439941L92.5770294 190.439941C92.528201 190.137205 92.5037872 189.622074 92.5037872 188.894531L92.5037872 181.49707 93.7342559 181.49707 93.7342559 192zM99.461795 192.175781C98.353391 192.175781 97.4683901 191.825443 96.8067657 191.124756 96.1451413 190.424069 95.814334 189.495123 95.814334 188.337891 95.814334 187.078119 96.1585689 186.094242 96.8470489 185.38623 97.5355289 184.678219 98.4656954 184.324219 99.6375762 184.324219 100.755746 184.324219 101.62854 184.668454 102.255984 185.356934 102.883429 186.045414 103.197147 186.999994 103.197147 188.220703 103.197147 189.416998 102.859015 190.37524 102.182742 191.095459 101.506469 191.815677 100.599496 192.175781 99.461795 192.175781zM99.5496856 185.334961C98.7781974 185.334961 98.1678519 185.597409 97.7186309 186.122314 97.2694099 186.647219 97.0448028 187.371089 97.0448028 188.293945 97.0448028 189.182622 97.2718513 189.883298 97.7259551 190.395996 98.180059 190.908694 98.787963 191.165039 99.5496856 191.165039 100.326057 191.165039 100.922975 190.913577 101.340457 190.410644 101.75794 189.907712 101.966678 189.192387 101.966678 188.264648 101.966678 187.327144 101.75794 186.604495 101.340457 186.09668 100.922975 185.588865 100.326057 185.334961 99.5496856 185.334961zM109.027225 185.71582C108.817263 185.554687 108.514531 185.474121 108.119022 185.474121 107.606324 185.474121 107.177861 185.715818 106.833621 186.199219 106.489381 186.68262 106.317264 187.341793 106.317264 188.176758L106.317264 192 105.116092 192 105.116092 184.5 106.317264 184.5 106.317264 186.04541 106.346561 186.04541C106.51746 185.518064 106.778688 185.106691 107.130252 184.811279 107.481816 184.515868 107.874879 184.368164 108.309451 184.368164 108.621953 184.368164 108.861208 184.402343 109.027225 184.470703L109.027225 185.71582zM120.98035 192L119.779178 192 119.779178 187.693359C119.779178 186.863277 119.651005 186.262697 119.394656 185.891602 119.138307 185.520506 118.707403 185.334961 118.101932 185.334961 117.589234 185.334961 117.153447 185.569334 116.794559 186.038086 116.43567 186.506838 116.256229 187.068356 116.256229 187.722656L116.256229 192 115.055057 192 115.055057 187.546875C115.055057 186.072258 114.486215 185.334961 113.348514 185.334961 112.821167 185.334961 112.386601 185.555906 112.044803 185.997803 111.703004 186.439699 111.532107 187.014645 111.532107 187.722656L111.532107 192 110.330936 192 110.330936 184.5 111.532107 184.5 111.532107 185.686523 111.561404 185.686523C112.093634 184.778316 112.869993 184.324219 113.890506 184.324219 114.403204 184.324219 114.849977 184.46704 115.230838 184.752686 115.611699 185.038332 115.872927 185.413084 116.014529 185.876953 116.571173 184.841792 117.401243 184.324219 118.504764 184.324219 120.155163 184.324219 120.98035 185.342275 120.98035 187.378418L120.98035 192zM128.61951 192L127.418338 192 127.418338 190.828125 127.389041 190.828125C126.866578 191.726567 126.097542 192.175781 125.081912 192.175781 124.334838 192.175781 123.750127 191.978029 123.327762 191.582519 122.905396 191.18701 122.694217 190.662113 122.694217 190.007812 122.694217 188.606438 123.519404 187.791017 125.169803 187.561523L127.418338 187.246582C127.418338 185.972162 126.903206 185.334961 125.872928 185.334961 124.969603 185.334961 124.154181 185.642575 123.426639 186.257812L123.426639 185.027344C124.163947 184.558591 125.013548 184.324219 125.975467 184.324219 127.738171 184.324219 128.61951 185.256827 128.61951 187.12207L128.61951 192zM127.418338 188.206055L125.609256 188.455078C125.052612 188.533203 124.632695 188.671142 124.34949 188.868897 124.066286 189.066651 123.924686 189.41699 123.924686 189.919922 123.924686 190.286135 124.055299 190.585204 124.316531 190.817139 124.577763 191.049073 124.92566 191.165039 125.360232 191.165039 125.955939 191.165039 126.447877 190.956301 126.836063 190.538818 127.224248 190.121336 127.418338 189.592777 127.418338 188.953125L127.418338 188.206055zM132.083865 192L130.882693 192 130.882693 180.896484 132.083865 180.896484 132.083865 192zM142.711307 192L141.510135 192 141.510135 182.925293C141.417361 183.018067 141.281864 183.124267 141.103641 183.243896 140.925417 183.363526 140.725224 183.481933 140.503055 183.599121 140.280886 183.716309 140.046513 183.826171 139.79993 183.928711 139.553347 184.031251 139.31287 184.111816 139.078494 184.17041L139.078494 182.95459C139.342167 182.881347 139.621706 182.782471 139.917117 182.657959 140.212529 182.533447 140.503053 182.394288 140.788699 182.240479 141.074345 182.086669 141.344118 181.925538 141.598025 181.75708 141.851933 181.588622 142.071657 181.423829 142.257205 181.262695L142.711307 181.262695 142.711307 192zM152.591678 188.791992C152.591678 189.30469 152.503788 189.768553 152.328006 190.183594 152.152224 190.598635 151.901982 190.955077 151.577273 191.25293 151.252565 191.550783 150.860723 191.780273 150.401736 191.941406 149.94275 192.10254 149.432501 192.183105 148.870975 192.183105 147.894407 192.183105 147.169317 192.036623 146.695682 191.743652L146.695682 190.469238C147.408576 190.928225 148.138549 191.157715 148.885623 191.157715 149.266484 191.157715 149.609499 191.101563 149.914676 190.989258 150.219853 190.876953 150.47986 190.720704 150.694705 190.520508 150.90955 190.320312 151.074343 190.078615 151.18909 189.79541 151.303837 189.512206 151.361209 189.20215 151.361209 188.865234 151.361209 188.181637 151.131719 187.645754 150.672732 187.257568 150.213746 186.869383 149.547249 186.675293 148.673221 186.675293 148.531619 186.675293 148.382694 186.677734 148.226443 186.682617 148.070193 186.6875 147.913944 186.693603 147.757693 186.700928 147.601443 186.708252 147.448856 186.716797 147.29993 186.726562 147.151003 186.736328 147.015507 186.748535 146.893436 186.763184L147.252322 181.49707 152.108279 181.49707 152.108279 182.581055 148.292361 182.581055 148.079959 185.664551C148.23621 185.654785 148.402224 185.64624 148.578006 185.638916 148.753788 185.631592 148.910037 185.62793 149.046756 185.62793 149.603399 185.62793 150.101441 185.701171 150.540897 185.847656 150.980352 185.994141 151.352663 186.202879 151.65784 186.473877 151.963017 186.744874 152.194949 187.076902 152.353641 187.469971 152.512333 187.863039 152.591678 188.303708 152.591678 188.791992zM156.026736 190.916016L155.997439 190.916016 155.997439 195.449707 154.796268 195.449707 154.796268 184.5 155.997439 184.5 155.997439 185.818359 156.026736 185.818359C156.61756 184.822261 157.481809 184.324219 158.61951 184.324219 159.586311 184.324219 160.340699 184.659909 160.882693 185.331299 161.424688 186.002689 161.695682 186.902338 161.695682 188.030273 161.695682 189.285162 161.390509 190.289791 160.780154 191.044189 160.1698 191.798588 159.334847 192.175781 158.275272 192.175781 157.303587 192.175781 156.554083 191.755864 156.026736 190.916016zM155.997439 187.891113L155.997439 188.938477C155.997439 189.558597 156.198853 190.084715 156.601688 190.516846 157.004522 190.948977 157.515991 191.165039 158.136111 191.165039 158.863654 191.165039 159.433717 190.886721 159.846317 190.330078 160.258916 189.773435 160.465213 188.999517 160.465213 188.008301 160.465213 187.173336 160.272344 186.519045 159.8866 186.04541 159.500856 185.571775 158.9784 185.334961 158.319217 185.334961 157.620971 185.334961 157.059453 185.577878 156.634647 186.063721 156.20984 186.549563 155.997439 187.158688 155.997439 187.891113zM169.093143 184.5L166.573611 188.293945 169.049197 192 167.650271 192 166.178104 189.568359C166.08533 189.416991 165.975467 189.226564 165.848514 188.99707L165.819217 188.99707C165.794803 189.041016 165.680058 189.231444 165.474979 189.568359L163.973514 192 162.589236 192 165.145389 188.323242 162.6991 184.5 164.098025 184.5 165.548221 187.063477C165.655643 187.253907 165.760623 187.449218 165.863162 187.649414L165.892459 187.649414 167.767459 184.5 169.093143 184.5zM92.8011969 218L91.4935798 218 86.8090094 210.744629C86.6905193 210.562662 86.5931895 210.372234 86.5170173 210.17334L86.4789313 210.17334C86.5127857 210.368002 86.5297126 210.784828 86.5297126 211.423828L86.5297126 218 85.4633063 218 85.4633063 208.897461 86.8470954 208.897461 91.4047126 216.038574C91.5951432 216.3348 91.7178633 216.537923 91.7728766 216.647949L91.7982673 216.647949C91.7559493 216.385578 91.7347907 215.939131 91.7347907 215.308594L91.7347907 208.897461 92.8011969 208.897461 92.8011969 218zM97.7650641 218.152344C96.8044473 218.152344 96.0374465 217.848717 95.4640387 217.241455 94.8906309 216.634193 94.6039313 215.829107 94.6039313 214.826172 94.6039313 213.73437 94.9022682 212.881676 95.4989508 212.268066 96.0956335 211.654457 96.9017778 211.347656 97.9174079 211.347656 98.8864882 211.347656 99.6429097 211.645993 100.186695 212.242676 100.73048 212.839358 101.002369 213.666661 101.002369 214.724609 101.002369 215.761398 100.709322 216.591875 100.123218 217.216064 99.5371152 217.840254 98.7510717 218.152344 97.7650641 218.152344zM97.841236 212.223633C97.1726129 212.223633 96.6436468 212.451088 96.2543219 212.906006 95.8649971 213.360923 95.6703376 213.988277 95.6703376 214.788086 95.6703376 215.558272 95.8671129 216.165525 96.2606696 216.609863 96.6542262 217.054201 97.1810764 217.276367 97.841236 217.276367 98.5140909 217.276367 99.0314197 217.058433 99.393238 216.622559 99.7550562 216.186684 99.9359626 215.566736 99.9359626 214.762695 99.9359626 213.950191 99.7550562 213.323895 99.393238 212.883789 99.0314197 212.443683 98.5140909 212.223633 97.841236 212.223633zM106.055103 212.553711C105.873136 212.414062 105.610769 212.344238 105.267994 212.344238 104.823656 212.344238 104.452322 212.553709 104.15398 212.972656 103.855639 213.391604 103.70647 213.962887 103.70647 214.686523L103.70647 218 102.665455 218 102.665455 211.5 103.70647 211.5 103.70647 212.839355 103.731861 212.839355C103.879974 212.382322 104.106371 212.025799 104.41106 211.769775 104.715749 211.513752 105.056403 211.385742 105.433033 211.385742 105.703868 211.385742 105.911222 211.415364 106.055103 211.474609L106.055103 212.553711zM116.414478 218L115.373463 218 115.373463 214.267578C115.373463 213.548173 115.26238 213.027671 115.040211 212.706055 114.818042 212.384438 114.444592 212.223633 113.919849 212.223633 113.475511 212.223633 113.097829 212.426756 112.786793 212.833008 112.475756 213.23926 112.32024 213.725909 112.32024 214.292969L112.32024 218 111.279224 218 111.279224 214.140625C111.279224 212.862624 110.786228 212.223633 109.80022 212.223633 109.343187 212.223633 108.966563 212.415119 108.670338 212.798096 108.374112 213.181073 108.226002 213.679359 108.226002 214.292969L108.226002 218 107.184986 218 107.184986 211.5 108.226002 211.5 108.226002 212.52832 108.251392 212.52832C108.712658 211.741207 109.385502 211.347656 110.269947 211.347656 110.714285 211.347656 111.101488 211.471434 111.431568 211.718994 111.761648 211.966554 111.988045 212.291339 112.110767 212.693359 112.593192 211.796219 113.312585 211.347656 114.26897 211.347656 115.699316 211.347656 116.414478 212.229972 116.414478 213.994629L116.414478 218zM123.035084 218L121.994068 218 121.994068 216.984375 121.968677 216.984375C121.515876 217.763025 120.849378 218.152344 119.969166 218.152344 119.321702 218.152344 118.814952 217.980959 118.448902 217.638184 118.082852 217.295408 117.89983 216.840498 117.89983 216.273438 117.89983 215.058913 118.614992 214.352215 120.045338 214.15332L121.994068 213.880371C121.994068 212.775873 121.547621 212.223633 120.654713 212.223633 119.871831 212.223633 119.165132 212.490232 118.534595 213.023438L118.534595 211.957031C119.173596 211.550779 119.909917 211.347656 120.74358 211.347656 122.271257 211.347656 123.035084 212.155916 123.035084 213.772461L123.035084 218zM121.994068 214.711914L120.426197 214.927734C119.943773 214.995443 119.579844 215.114989 119.3344 215.286377 119.088956 215.457764 118.966236 215.761391 118.966236 216.197266 118.966236 216.51465 119.079435 216.773843 119.305836 216.974853 119.532237 217.175864 119.833747 217.276367 120.210377 217.276367 120.726655 217.276367 121.153002 217.095461 121.489429 216.733643 121.825857 216.371824 121.994068 215.91374 121.994068 215.359375L121.994068 214.711914zM126.037525 218L124.996509 218 124.996509 208.376953 126.037525 208.376953 126.037525 218zM135.247974 218L134.206959 218 134.206959 210.135254C134.126555 210.215658 134.009124 210.307698 133.854664 210.411377 133.700203 210.515056 133.526702 210.617675 133.334156 210.719238 133.141609 210.820801 132.938486 210.916015 132.724781 211.004883 132.511075 211.09375 132.302663 211.163574 132.099537 211.214355L132.099537 210.160645C132.328054 210.097168 132.57032 210.011475 132.826343 209.903564 133.082367 209.795654 133.334155 209.675049 133.581715 209.541748 133.829274 209.408447 134.063077 209.2688 134.28313 209.122803 134.503184 208.976806 134.693612 208.833985 134.85442 208.694336L135.247974 208.694336 135.247974 218zM143.7094 215.422852C143.7094 215.833335 143.632171 216.206785 143.477711 216.543213 143.32325 216.87964 143.105316 217.167398 142.823902 217.406494 142.542488 217.64559 142.205008 217.830728 141.811451 217.961914 141.417894 218.0931 140.984142 218.158691 140.510181 218.158691 139.642664 218.158691 138.952892 217.993654 138.440845 217.663574L138.440845 216.546387C139.054455 217.028811 139.756922 217.270019 140.548267 217.270019 140.865652 217.270019 141.152351 217.229818 141.408375 217.149414 141.664398 217.06901 141.884448 216.952637 142.068531 216.800293 142.252614 216.647948 142.394377 216.463868 142.493824 216.248047 142.593271 216.032225 142.642994 215.788901 142.642994 215.518066 142.642994 214.328933 141.796648 213.734375 140.103931 213.734375L139.34856 213.734375 139.34856 212.852051 140.065845 212.852051C141.5639 212.852051 142.312916 212.293463 142.312916 211.17627 142.312916 210.143712 141.741632 209.627441 140.599049 209.627441 139.955816 209.627441 139.352795 209.84326 138.789966 210.274902L138.789966 209.265625C139.369722 208.918618 140.059494 208.745117 140.859302 208.745117 141.240164 208.745117 141.58505 208.798014 141.89397 208.903809 142.202891 209.009603 142.467374 209.157714 142.687427 209.348145 142.907481 209.538575 143.077808 209.767089 143.198414 210.033691 143.31902 210.300294 143.379322 210.594399 143.379322 210.916016 143.379322 212.113613 142.774185 212.883787 141.563892 213.226562L141.563892 213.251953C141.872813 213.285807 142.158455 213.360921 142.420826 213.477295 142.683197 213.593669 142.909594 213.744953 143.100025 213.931152 143.290456 214.117351 143.439624 214.336343 143.547535 214.588135 143.655446 214.839926 143.7094 215.118162 143.7094 215.422852zM146.788013 217.060547L146.762623 217.060547 146.762623 220.989746 145.721607 220.989746 145.721607 211.5 146.762623 211.5 146.762623 212.642578 146.788013 212.642578C147.30006 211.779293 148.049076 211.347656 149.035084 211.347656 149.872979 211.347656 150.526781 211.638588 150.996509 212.220459 151.466238 212.80233 151.701099 213.582026 151.701099 214.55957 151.701099 215.647141 151.436616 216.517819 150.907642 217.171631 150.378668 217.825443 149.655043 218.152344 148.736744 218.152344 147.894617 218.152344 147.245047 217.788415 146.788013 217.060547zM146.762623 214.438965L146.762623 215.34668C146.762623 215.884117 146.937182 216.340086 147.286304 216.7146 147.635427 217.089113 148.078701 217.276367 148.616138 217.276367 149.246675 217.276367 149.74073 217.035159 150.098316 216.552734 150.455903 216.07031 150.634693 215.399581 150.634693 214.540527 150.634693 213.816891 150.46754 213.249839 150.133228 212.839355 149.798917 212.428872 149.346122 212.223633 148.77483 212.223633 148.169684 212.223633 147.683035 212.434161 147.314869 212.855225 146.946703 213.276288 146.762623 213.804196 146.762623 214.438965zM158.112232 211.5L155.928638 214.788086 158.074146 218 156.861744 218 155.585865 215.892578C155.505461 215.761393 155.410247 215.596355 155.30022 215.397461L155.27483 215.397461C155.253671 215.435547 155.154225 215.600584 154.97649 215.892578L153.67522 218 152.475513 218 154.690845 214.813477 152.570728 211.5 153.78313 211.5 155.039967 213.72168C155.133066 213.88672 155.224048 214.055989 155.312916 214.229492L155.338306 214.229492 156.963306 211.5 158.112232 211.5z"/>
    <path fill="#000F40" d="M7.80119694,10 L6.49357975,10 L1.80900944,2.74462891 C1.69051926,2.56266185 1.5931895,2.37223407 1.51701725,2.17333984 L1.47893131,2.17333984 C1.51278565,2.36800228 1.52971256,2.78482753 1.52971256,3.42382812 L1.52971256,10 L0.46330631,10 L0.46330631,0.89746094 L1.84709537,0.89746094 L6.40471256,8.0385742 C6.5951432,8.3347997 6.71786333,8.5379226 6.77287662,8.6479492 L6.79826725,8.6479492 C6.75594933,8.3855781 6.73479069,7.9391308 6.73479069,7.3085938 L6.73479069,0.89746094 L7.80119694,0.89746094 L7.80119694,10 Z M12.7650641,10.1523438 C11.8044473,10.1523438 11.0374465,9.8487172 10.4640387,9.2414551 C9.8906309,8.6341929 9.6039313,7.8291066 9.6039313,6.8261719 C9.6039313,5.73436954 9.9022682,4.88167625 10.4989508,4.26806641 C11.0956335,3.65445657 11.9017778,3.34765625 12.9174079,3.34765625 C13.8864882,3.34765625 14.6429097,3.64599311 15.186695,4.24267578 C15.7304803,4.83935845 16.0023688,5.66666138 16.0023688,6.7246094 C16.0023688,7.7613984 15.7093216,8.5918751 15.1232184,9.2160645 C14.5371152,9.8402538 13.7510717,10.1523438 12.7650641,10.1523438 Z M12.841236,4.22363281 C12.1726129,4.22363281 11.6436468,4.45108822 11.2543219,4.90600586 C10.8649971,5.3609235 10.6703376,5.98827725 10.6703376,6.7880859 C10.6703376,7.5582721 10.8671129,8.1655251 11.2606696,8.6098633 C11.6542262,9.0542014 12.1810764,9.2763672 12.841236,9.2763672 C13.5140909,9.2763672 14.0314197,9.0584332 14.393238,8.6225586 C14.7550562,8.186684 14.9359626,7.5667358 14.9359626,6.7626953 C14.9359626,5.95019125 14.7550562,5.32389543 14.393238,4.88378906 C14.0314197,4.4436827 13.5140909,4.22363281 12.841236,4.22363281 Z M21.0551032,4.55371094 C20.8731361,4.4140618 20.610769,4.34423828 20.2679938,4.34423828 C19.8236557,4.34423828 19.4523215,4.55370884 19.1539801,4.97265625 C18.8556388,5.39160366 18.7064704,5.96288701 18.7064704,6.6865234 L18.7064704,10 L17.6654547,10 L17.6654547,3.5 L18.7064704,3.5 L18.7064704,4.83935547 L18.731861,4.83935547 C18.8799737,4.38232193 19.1063712,4.02579881 19.4110602,3.76977539 C19.7157492,3.51375198 20.0564034,3.38574219 20.4330329,3.38574219 C20.7038676,3.38574219 20.9112223,3.41536429 21.0551032,3.47460938 L21.0551032,4.55371094 Z M31.4144782,10 L30.3734626,10 L30.3734626,6.2675781 C30.3734626,5.54817349 30.2623797,5.02767088 30.0402106,4.70605469 C29.8180415,4.3844385 29.4445915,4.22363281 28.9198493,4.22363281 C28.4755111,4.22363281 28.0978293,4.42675578 27.7867926,4.83300781 C27.4757559,5.23925984 27.3202399,5.72590862 27.3202399,6.2929688 L27.3202399,10 L26.2792243,10 L26.2792243,6.140625 C26.2792243,4.86262382 25.7862279,4.22363281 24.8002204,4.22363281 C24.3431868,4.22363281 23.966563,4.41511853 23.6703376,4.7980957 C23.3741121,5.18107288 23.2260016,5.67935891 23.2260016,6.2929688 L23.2260016,10 L22.184986,10 L22.184986,3.5 L23.2260016,3.5 L23.2260016,4.52832031 L23.2513922,4.52832031 C23.7126576,3.741207 24.3855024,3.34765625 25.2699469,3.34765625 C25.7142851,3.34765625 26.1014883,3.47143431 26.431568,3.71899414 C26.7616478,3.96655397 26.9880453,4.29133914 27.1107672,4.69335938 C27.5931915,3.79621947 28.3125854,3.34765625 29.2689704,3.34765625 C30.6993161,3.34765625 31.4144782,4.22997165 31.4144782,5.99462891 L31.4144782,10 Z M38.0350837,10 L36.994068,10 L36.994068,8.984375 L36.9686774,8.984375 C36.5158757,9.7630247 35.8493784,10.1523438 34.9691657,10.1523438 C34.3217015,10.1523438 33.814952,9.9809587 33.448902,9.6381836 C33.082852,9.2954084 32.8998297,8.8404976 32.8998297,8.2734375 C32.8998297,7.0589132 33.6149919,6.3522145 35.0453376,6.1533203 L36.994068,5.88037109 C36.994068,4.77587338 36.5476207,4.22363281 35.6547126,4.22363281 C34.871831,4.22363281 34.1651324,4.49023171 33.5345954,5.0234375 L33.5345954,3.95703125 C34.173596,3.55077922 34.9099167,3.34765625 35.7435797,3.34765625 C37.2712567,3.34765625 38.0350837,4.1559164 38.0350837,5.77246094 L38.0350837,10 Z M36.994068,6.7119141 L35.4261969,6.9277344 C34.9437726,6.995443 34.579844,7.1149894 34.3344001,7.286377 C34.0889561,7.4577645 33.966236,7.761391 33.966236,8.1972656 C33.966236,8.51465 34.0794347,8.7738434 34.3058356,8.9748535 C34.5322365,9.1758636 34.8337471,9.2763672 35.2103766,9.2763672 C35.7266552,9.2763672 36.1530019,9.0954608 36.4894294,8.7336426 C36.8258568,8.3718244 36.994068,7.9137398 36.994068,7.359375 L36.994068,6.7119141 Z M41.0375251,10 L39.9965094,10 L39.9965094,0.37695312 L41.0375251,0.37695312 L41.0375251,10 Z M50.2479743,10 L49.2069587,10 L49.2069587,2.13525391 C49.1265546,2.21565795 49.0091241,2.30769805 48.8546637,2.41137695 C48.7002033,2.51505586 48.5267025,2.61767527 48.3341559,2.71923828 C48.1416094,2.82080129 47.9384864,2.91601518 47.7247809,3.00488281 C47.5110754,3.09375044 47.3026628,3.16357396 47.0995368,3.21435547 L47.0995368,2.16064453 C47.3280535,2.09716765 47.57032,2.01147515 47.8263434,1.90356445 C48.0823668,1.79565376 48.3341547,1.67504949 48.5817145,1.54174805 C48.8292743,1.4084466 49.0630773,1.26879956 49.2831305,1.12280273 C49.5031837,0.97680591 49.6936115,0.83398507 49.8544196,0.69433594 L50.2479743,0.69433594 L50.2479743,10 Z M58.7094001,7.4228516 C58.7094001,7.8333354 58.632171,8.2067854 58.4777106,8.5432129 C58.3232502,8.8796404 58.1053162,9.1673979 57.823902,9.4064941 C57.5424878,9.6455904 57.2050075,9.8307285 56.8114508,9.9619141 C56.4178942,10.0930996 55.984142,10.1586914 55.5101813,10.1586914 C54.642664,10.1586914 53.9528922,9.993654 53.4408454,9.6635742 L53.4408454,8.5463867 C54.0544552,9.028811 54.7569221,9.2700195 55.5482672,9.2700195 C55.8656516,9.2700195 56.1523513,9.2298181 56.4083747,9.1494141 C56.6643981,9.06901 56.884448,8.9526375 57.0685309,8.800293 C57.2526139,8.6479485 57.3943768,8.4638683 57.4938239,8.2480469 C57.593271,8.0322255 57.6429938,7.7889011 57.6429938,7.5180664 C57.6429938,6.3289329 56.7966481,5.734375 55.1039313,5.734375 L54.3485602,5.734375 L54.3485602,4.85205078 L55.0658454,4.85205078 C56.5638997,4.85205078 57.3129157,4.29346262 57.3129157,3.17626953 C57.3129157,2.14371229 56.7416323,1.62744141 55.5990485,1.62744141 C54.9558161,1.62744141 54.3527948,1.84325956 53.7899665,2.27490234 L53.7899665,1.265625 C54.369722,0.91861806 55.0594937,0.74511719 55.8593024,0.74511719 C56.2401637,0.74511719 56.5850496,0.79801379 56.8939704,0.90380859 C57.2028912,1.00960339 57.4673742,1.15771389 57.6874274,1.34814453 C57.9074806,1.53857517 58.0778077,1.76708851 58.1984137,2.03369141 C58.3190198,2.3002943 58.3793219,2.59439943 58.3793219,2.91601562 C58.3793219,4.11361276 57.7741848,4.88378735 56.5638922,5.2265625 L56.5638922,5.25195312 C56.8728131,5.28580746 57.1584547,5.36092064 57.4208258,5.47729492 C57.6831969,5.5936692 57.9095944,5.7449535 58.1000251,5.93115234 C58.2904557,6.1173512 58.4396241,6.3363431 58.5475348,6.5881348 C58.6554455,6.8399264 58.7094001,7.1181625 58.7094001,7.4228516 Z M61.7880133,9.0605469 L61.7626227,9.0605469 L61.7626227,12.9897461 L60.7216071,12.9897461 L60.7216071,3.5 L61.7626227,3.5 L61.7626227,4.64257812 L61.7880133,4.64257812 C62.3000602,3.77929256 63.0490761,3.34765625 64.0350837,3.34765625 C64.8729785,3.34765625 65.5267805,3.63858759 65.9965094,4.22045898 C66.4662383,4.80233038 66.7010993,5.58202636 66.7010993,6.5595703 C66.7010993,7.6471409 66.4366162,8.517819 65.9076422,9.1716309 C65.3786682,9.8254427 64.6550427,10.1523438 63.7367438,10.1523438 C62.8946172,10.1523438 62.2450469,9.7884151 61.7880133,9.0605469 Z M61.7626227,6.4389648 L61.7626227,7.3466797 C61.7626227,7.8841173 61.9371815,8.340086 62.2863044,8.7145996 C62.6354272,9.0891132 63.0787008,9.2763672 63.6161383,9.2763672 C64.2466753,9.2763672 64.7407297,9.0351587 65.0983161,8.5527344 C65.4559025,8.0703101 65.634693,7.3995811 65.634693,6.5405273 C65.634693,5.81689091 65.4675398,5.24983929 65.1332282,4.83935547 C64.7989166,4.42887165 64.3461217,4.22363281 63.7748297,4.22363281 C63.1696835,4.22363281 62.6830347,4.43416131 62.3148688,4.85522461 C61.9467029,5.27628791 61.7626227,5.80419604 61.7626227,6.4389648 Z M73.1122321,3.5 L70.9286383,6.7880859 L73.0741462,10 L71.8617438,10 L70.5858649,7.8925781 C70.5054609,7.7613926 70.410247,7.5963552 70.3002204,7.3974609 L70.2748297,7.3974609 C70.2536708,7.4355471 70.1542252,7.6005845 69.9764899,7.8925781 L68.6752204,10 L67.4755133,10 L69.6908454,6.8134766 L67.5707282,3.5 L68.7831305,3.5 L70.0399665,5.72167969 C70.1330659,5.88671958 70.2240481,6.0559887 70.3129157,6.2294922 L70.3383063,6.2294922 L71.9633063,3.5 L73.1122321,3.5 Z M6.48869694,33 L5.38225162,33 L1.41838444,26.8608398 C1.31812352,26.7068677 1.23576757,26.5457365 1.17131412,26.3774414 L1.13908756,26.3774414 C1.16773354,26.5421558 1.18205631,26.8948541 1.18205631,27.4355469 L1.18205631,33 L0.27971256,33 L0.27971256,25.2978516 L1.450611,25.2978516 L5.30705631,31.340332 C5.46818993,31.5909843 5.57203004,31.7628576 5.61857975,31.855957 L5.64006412,31.855957 C5.60425665,31.6339507 5.58635319,31.2561876 5.58635319,30.7226562 L5.58635319,25.2978516 L6.48869694,25.2978516 L6.48869694,33 Z M10.6888922,33.1289062 C9.8760627,33.1289062 9.227062,32.8719915 8.74187076,32.3581543 C8.25667954,31.8443171 8.01408756,31.1630902 8.01408756,30.3144531 C8.01408756,29.3906204 8.26652644,28.6691107 8.77141178,28.1499023 C9.2762971,27.630694 9.9584192,27.3710938 10.8177985,27.3710938 C11.6377896,27.3710938 12.2778385,27.6235326 12.7379645,28.128418 C13.1980905,28.6333033 13.4281501,29.3333289 13.4281501,30.2285156 C13.4281501,31.1057987 13.180187,31.8085097 12.6842536,32.3366699 C12.1883201,32.8648301 11.5232063,33.1289062 10.6888922,33.1289062 Z M10.7533454,28.1123047 C10.1875873,28.1123047 9.7400007,28.304767 9.4105719,28.6896973 C9.0811432,29.0746276 8.91643131,29.6054654 8.91643131,30.2822266 C8.91643131,30.9339225 9.0829336,31.447752 9.415943,31.8237305 C9.7489525,32.1997089 10.1947488,32.3876953 10.7533454,32.3876953 C11.3226842,32.3876953 11.7604239,32.2032896 12.0665778,31.8344727 C12.3727317,31.4656557 12.5258063,30.9410841 12.5258063,30.2607422 C12.5258063,29.5732388 12.3727317,29.0432961 12.0665778,28.6708984 C11.7604239,28.2985007 11.3226842,28.1123047 10.7533454,28.1123047 Z M17.7035407,28.3916016 C17.5495686,28.2734369 17.3275656,28.2143555 17.0375251,28.2143555 C16.6615466,28.2143555 16.3473408,28.3915998 16.0948981,28.7460938 C15.8424554,29.1005877 15.716236,29.5839813 15.716236,30.1962891 L15.716236,33 L14.8353766,33 L14.8353766,27.5 L15.716236,27.5 L15.716236,28.6333008 L15.7377204,28.6333008 C15.8630465,28.2465801 16.0546136,27.9449067 16.3124274,27.7282715 C16.5702412,27.5116363 16.858487,27.4033203 17.1771735,27.4033203 C17.4063413,27.4033203 17.5817953,27.4283852 17.7035407,27.4785156 L17.7035407,28.3916016 Z M26.4691657,33 L25.5883063,33 L25.5883063,29.8417969 C25.5883063,29.2330699 25.4943131,28.7926446 25.3063239,28.5205078 C25.1183347,28.248371 24.8023385,28.1123047 24.3583258,28.1123047 C23.9823474,28.1123047 23.6627705,28.284178 23.3995856,28.6279297 C23.1364007,28.9716814 23.0048102,29.3834611 23.0048102,29.8632812 L23.0048102,33 L22.1239508,33 L22.1239508,29.734375 C22.1239508,28.6529894 21.7068001,28.1123047 20.872486,28.1123047 C20.4857653,28.1123047 20.1670836,28.2743311 19.9164313,28.5983887 C19.665779,28.9224463 19.5404547,29.3440729 19.5404547,29.8632812 L19.5404547,33 L18.6595954,33 L18.6595954,27.5 L19.5404547,27.5 L19.5404547,28.3701172 L19.5619391,28.3701172 C19.9522406,27.7040982 20.5215708,27.3710938 21.2699469,27.3710938 C21.6459254,27.3710938 21.9735588,27.475829 22.2528571,27.6853027 C22.5321554,27.8947764 22.7237225,28.1695947 22.8275641,28.5097656 C23.2357693,27.7506472 23.8444872,27.3710938 24.653736,27.3710938 C25.8640285,27.3710938 26.4691657,28.1176683 26.4691657,29.6108398 L26.4691657,33 Z M32.0712165,33 L31.1903571,33 L31.1903571,32.140625 L31.1688727,32.140625 C30.7857328,32.7994825 30.2217736,33.1289062 29.4769782,33.1289062 C28.9291239,33.1289062 28.5003359,32.9838882 28.1906012,32.6938477 C27.8808666,32.4038071 27.7260016,32.0188826 27.7260016,31.5390625 C27.7260016,30.5113881 28.3311388,29.9134123 29.5414313,29.7451172 L31.1903571,29.5141602 C31.1903571,28.5795852 30.8125939,28.1123047 30.0570563,28.1123047 C29.3946181,28.1123047 28.7966423,28.3378884 28.263111,28.7890625 L28.263111,27.8867188 C28.8038038,27.542967 29.4268444,27.3710938 30.1322516,27.3710938 C31.4249013,27.3710938 32.0712165,28.0550062 32.0712165,29.4228516 L32.0712165,33 Z M31.1903571,30.2177734 L29.8636969,30.4003906 C29.4554918,30.4576826 29.1475521,30.5588372 28.9398688,30.7038574 C28.7321855,30.8488777 28.6283454,31.1057924 28.6283454,31.4746094 C28.6283454,31.7431654 28.7241289,31.9624829 28.9156989,32.1325684 C29.1072689,32.3026538 29.3623933,32.3876953 29.6810797,32.3876953 C30.1179309,32.3876953 30.4786857,32.2346207 30.7633551,31.9284668 C31.0480245,31.6223129 31.1903571,31.2347029 31.1903571,30.765625 L31.1903571,30.2177734 Z M34.6117438,33 L33.7308844,33 L33.7308844,24.8574219 L34.6117438,24.8574219 L34.6117438,33 Z M42.4052008,33 L41.5243415,33 L41.5243415,26.3452148 C41.4563073,26.413249 41.356943,26.4911291 41.2262458,26.5788574 C41.0955485,26.6665857 40.9487401,26.7534175 40.7858161,26.8393555 C40.6228921,26.9252934 40.4510188,27.005859 40.2701911,27.0810547 C40.0893633,27.1562504 39.9130142,27.2153318 39.7411383,27.2583008 L39.7411383,26.3666992 C39.9344987,26.312988 40.1394934,26.240479 40.3561286,26.1491699 C40.5727638,26.0578609 40.785815,25.9558111 40.9952887,25.8430176 C41.2047624,25.730224 41.4025957,25.6120612 41.5887946,25.4885254 C41.7749934,25.3649896 41.9361246,25.2441412 42.072193,25.1259766 L42.4052008,25.1259766 L42.4052008,33 Z M48.3348883,33 L47.454029,33 L47.454029,26.3452148 C47.3859948,26.413249 47.2866305,26.4911291 47.1559333,26.5788574 C47.025236,26.6665857 46.8784276,26.7534175 46.7155036,26.8393555 C46.5525796,26.9252934 46.3807063,27.005859 46.1998786,27.0810547 C46.0190508,27.1562504 45.8427017,27.2153318 45.6708258,27.2583008 L45.6708258,26.3666992 C45.8641862,26.312988 46.0691809,26.240479 46.2858161,26.1491699 C46.5024513,26.0578609 46.7155025,25.9558111 46.9249762,25.8430176 C47.1344499,25.730224 47.3322832,25.6120612 47.5184821,25.4885254 C47.7046809,25.3649896 47.8658121,25.2441412 48.0018805,25.1259766 L48.3348883,25.1259766 L48.3348883,33 Z M52.1698493,32.2050781 L52.1483649,32.2050781 L52.1483649,35.5297852 L51.2675055,35.5297852 L51.2675055,27.5 L52.1483649,27.5 L52.1483649,28.4667969 L52.1698493,28.4667969 C52.6031197,27.7363245 53.2369024,27.3710938 54.0712165,27.3710938 C54.7802044,27.3710938 55.3334215,27.6172664 55.7308844,28.1096191 C56.1283474,28.6019719 56.3270758,29.2617146 56.3270758,30.0888672 C56.3270758,31.0091192 56.1032825,31.7458468 55.6556891,32.2990723 C55.2080957,32.8522977 54.5957972,33.1289062 53.8187751,33.1289062 C53.1062064,33.1289062 52.55657,32.8209666 52.1698493,32.2050781 Z M52.1483649,29.9868164 L52.1483649,30.7548828 C52.1483649,31.2096377 52.2960685,31.5954574 52.5914801,31.9123535 C52.8868918,32.2292496 53.2619694,32.3876953 53.7167243,32.3876953 C54.2502556,32.3876953 54.6683015,32.1835958 54.9708747,31.7753906 C55.2734478,31.3671855 55.4247321,30.7996456 55.4247321,30.0727539 C55.4247321,29.4604462 55.2832947,28.9806332 55.0004157,28.6333008 C54.7175367,28.2859683 54.3344025,28.1123047 53.8510016,28.1123047 C53.3389548,28.1123047 52.9271751,28.2904442 52.6156501,28.6467285 C52.3041251,29.0030128 52.1483649,29.4497043 52.1483649,29.9868164 Z M61.7518805,27.5 L59.9042243,30.2822266 L61.719654,33 L60.6937751,33 L59.6141852,31.2167969 C59.546151,31.1057937 59.4655854,30.9661467 59.372486,30.7978516 L59.3510016,30.7978516 C59.3330979,30.8300783 59.2489516,30.9697253 59.0985602,31.2167969 L57.997486,33 L56.9823493,33 L58.856861,30.3037109 L57.0629157,27.5 L58.0887946,27.5 L59.1522712,29.3798828 C59.2310476,29.5195319 59.3080325,29.6627597 59.3832282,29.8095703 L59.4047126,29.8095703 L60.7797126,27.5 L61.7518805,27.5 Z" transform="translate(85 239)"/>
    <path fill="#000F40" d="M85.041016,157 L85.041016,147.897461 L88.354492,147.897461 C89.370122,147.897461 90.150876,148.083657 90.696777,148.456055 C91.242679,148.828452 91.515625,149.353187 91.515625,150.030273 C91.515625,150.521161 91.34953,150.950682 91.017334,151.318848 C90.685138,151.687014 90.260908,151.943033 89.744629,152.086914 L89.744629,152.112305 C90.392093,152.192709 90.909422,152.431801 91.296631,152.82959 C91.68384,153.227378 91.877441,153.711911 91.877441,154.283203 C91.877441,155.116866 91.579105,155.778074 90.982422,156.266846 C90.385739,156.755618 89.571131,157 88.538574,157 L85.041016,157 Z M87.091309,149.408203 L87.091309,151.566406 L87.992676,151.566406 C88.415855,151.566406 88.749104,151.463787 88.992432,151.258545 C89.23576,151.053303 89.357422,150.770835 89.357422,150.411133 C89.357422,149.74251 88.858078,149.408203 87.859375,149.408203 L87.091309,149.408203 Z M87.091309,153.089844 L87.091309,155.489258 L88.202148,155.489258 C88.676109,155.489258 89.047443,155.379233 89.316162,155.15918 C89.584881,154.939127 89.719238,154.638674 89.719238,154.257812 C89.719238,153.893878 89.586997,153.608237 89.32251,153.400879 C89.058023,153.193521 88.688804,153.089844 88.214844,153.089844 L87.091309,153.089844 Z M96.276367,157.158691 C95.193028,157.158691 94.341393,156.855065 93.721436,156.247803 C93.101478,155.640541 92.791504,154.816411 92.791504,153.775391 C92.791504,152.700515 93.113115,151.859459 93.756348,151.252197 C94.39958,150.644935 95.2692,150.341309 96.365234,150.341309 C97.444341,150.341309 98.290687,150.644935 98.904297,151.252197 C99.517907,151.859459 99.824707,152.66243 99.824707,153.661133 C99.824707,154.74024 99.508385,155.592933 98.875732,156.219238 C98.24308,156.845543 97.376633,157.158691 96.276367,157.158691 Z M96.327148,151.877441 C95.853188,151.877441 95.485027,152.040363 95.222656,152.366211 C94.960285,152.692059 94.829102,153.153317 94.829102,153.75 C94.829102,154.998379 95.332677,155.622559 96.339844,155.622559 C97.300461,155.622559 97.780762,154.981452 97.780762,153.699219 C97.780762,152.484694 97.296229,151.877441 96.327148,151.877441 Z M103.131836,157 L101.125977,157 L101.125977,147.376953 L103.131836,147.376953 L103.131836,157 Z M111.180664,157 L109.174805,157 L109.174805,156.10498 L109.149414,156.10498 C108.692381,156.807458 108.021652,157.158691 107.137207,157.158691 C106.324703,157.158691 105.670901,156.871992 105.175781,156.298584 C104.680662,155.725176 104.433105,154.924322 104.433105,153.895996 C104.433105,152.821121 104.706052,151.959964 105.251953,151.3125 C105.797854,150.665036 106.513016,150.341309 107.397461,150.341309 C108.235356,150.341309 108.819334,150.641761 109.149414,151.242676 L109.174805,151.242676 L109.174805,147.376953 L111.180664,147.376953 L111.180664,157 Z M109.212891,153.838867 L109.212891,153.350098 C109.212891,152.926918 109.09017,152.575685 108.844727,152.296387 C108.599283,152.017088 108.279787,151.877441 107.88623,151.877441 C107.441892,151.877441 107.094891,152.052 106.845215,152.401123 C106.595539,152.750246 106.470703,153.229489 106.470703,153.838867 C106.470703,154.410159 106.591307,154.850259 106.83252,155.15918 C107.073732,155.468101 107.408038,155.622559 107.835449,155.622559 C108.241701,155.622559 108.572834,155.459637 108.828857,155.133789 C109.084881,154.807941 109.212891,154.376305 109.212891,153.838867 Z M120.892578,147.694336 L120.892578,157 L118.893066,157 L118.893066,149.954102 C118.78304,150.051433 118.652914,150.143473 118.502686,150.230225 C118.352457,150.316976 118.192709,150.395263 118.023438,150.465088 C117.854166,150.534912 117.678549,150.594157 117.496582,150.642822 C117.314615,150.691488 117.134767,150.7264 116.957031,150.747559 L116.957031,149.059082 C117.477542,148.906738 117.968422,148.712078 118.429688,148.475098 C118.890953,148.238117 119.307778,147.977866 119.680176,147.694336 L120.892578,147.694336 Z M123.831543,156.70166 L123.831543,154.956055 C124.440921,155.400393 125.151851,155.622559 125.964355,155.622559 C126.476402,155.622559 126.875243,155.512534 127.160889,155.29248 C127.446535,155.072427 127.589355,154.765627 127.589355,154.37207 C127.589355,153.965818 127.412681,153.65267 127.059326,153.432617 C126.705972,153.212564 126.220381,153.102539 125.602539,153.102539 L124.758301,153.102539 L124.758301,151.566406 L125.539062,151.566406 C126.723964,151.566406 127.316406,151.172855 127.316406,150.385742 C127.316406,149.645179 126.861495,149.274902 125.95166,149.274902 C125.342282,149.274902 124.74984,149.471678 124.174316,149.865234 L124.174316,148.227539 C124.813317,147.905923 125.558101,147.745117 126.408691,147.745117 C127.339686,147.745117 128.064369,147.954588 128.582764,148.373535 C129.101158,148.792483 129.360352,149.33626 129.360352,150.004883 C129.360352,151.194016 128.75733,151.938801 127.55127,152.239258 L127.55127,152.270996 C128.194502,152.3514 128.702309,152.585203 129.074707,152.972412 C129.447105,153.359621 129.633301,153.834633 129.633301,154.397461 C129.633301,155.248051 129.322269,155.920896 128.700195,156.416016 C128.078122,156.911135 127.219081,157.158691 126.123047,157.158691 C125.183589,157.158691 124.419762,157.006349 123.831543,156.70166 Z M133.441895,156.244629 L133.416504,156.244629 L133.416504,159.989746 L131.410645,159.989746 L131.410645,150.5 L133.416504,150.5 L133.416504,151.477539 L133.441895,151.477539 C133.937014,150.720048 134.633134,150.341309 135.530273,150.341309 C136.3724,150.341309 137.023028,150.630124 137.482178,151.207764 C137.941327,151.785403 138.170898,152.571447 138.170898,153.565918 C138.170898,154.649257 137.903242,155.518877 137.36792,156.174805 C136.832598,156.830732 136.12061,157.158691 135.231934,157.158691 C134.449052,157.158691 133.852378,156.854007 133.441895,156.244629 Z M133.384766,153.578613 L133.384766,154.099121 C133.384766,154.547691 133.503254,154.913736 133.740234,155.197266 C133.977215,155.480796 134.288247,155.622559 134.67334,155.622559 C135.130373,155.622559 135.484781,155.445884 135.736572,155.092529 C135.988364,154.739175 136.114258,154.238773 136.114258,153.591309 C136.114258,152.448725 135.669926,151.877441 134.78125,151.877441 C134.370766,151.877441 134.035402,152.032957 133.775146,152.343994 C133.514891,152.655031 133.384766,153.066566 133.384766,153.578613 Z M145.489746,150.5 L143.344238,153.648438 L145.477051,157 L143.166504,157 L142.227051,155.248047 C142.150879,155.108398 142.059896,154.911622 141.954102,154.657715 L141.928711,154.657715 C141.865234,154.83545 141.778484,155.025878 141.668457,155.229004 L140.722656,157 L138.418457,157 L140.614746,153.762695 L138.551758,150.5 L140.875,150.5 L141.801758,152.321777 C141.92448,152.562989 142.01123,152.766112 142.062012,152.931152 L142.087402,152.931152 C142.155111,152.732258 142.246093,152.524903 142.360352,152.309082 L143.306152,150.5 L145.489746,150.5 Z"/>
  </g>
</svg>
