<svg xmlns="http://www.w3.org/2000/svg" width="640" height="128" viewBox="0 0 640 128">
  <defs>
    <linearGradient id="typeface-ubuntu-a" x1="0%" y1="50%" y2="50%">
      <stop offset="0%" stop-color="#F9F9FA" stop-opacity="0"/>
      <stop offset="100%" stop-color="#F9F9FA"/>
    </linearGradient>
  </defs>
  <g fill="none" fill-rule="evenodd">
    <path fill="#000F40" d="M35.548,75 C35.2119983,74.0159951 34.8640018,73.0440048 34.504,72.084 C34.1439982,71.1239952 33.7960017,70.140005 33.46,69.132 L22.948,69.132 C22.6119983,70.140005 22.2700017,71.1299951 21.922,72.102 C21.5739983,73.0740049 21.2320017,74.0399952 20.896,75 L16.18,75 C17.1160047,72.3359867 18.0039958,69.8760113 18.844,67.62 C19.6840042,65.3639887 20.505996,63.2280101 21.31,61.212 C22.114004,59.1959899 22.911996,57.2760091 23.704,55.452 C24.496004,53.6279909 25.3119958,51.8280089 26.152,50.052 L30.436,50.052 C31.2760042,51.8280089 32.091996,53.6279909 32.884,55.452 C33.676004,57.2760091 34.473996,59.1959899 35.278,61.212 C36.082004,63.2280101 36.9099957,65.3639887 37.762,67.62 C38.6140043,69.8760113 39.5079953,72.3359867 40.444,75 L35.548,75 Z M28.204,54.876 C27.6519972,56.1480064 27.0220035,57.6959909 26.314,59.52 C25.6059965,61.3440091 24.8680038,63.3239893 24.1,65.46 L32.308,65.46 C31.5399962,63.3239893 30.7960036,61.3320092 30.076,59.484 C29.3559964,57.6359908 28.7320026,56.1000061 28.204,54.876 Z M50.02,71.94 C51.3640067,71.94 52.3839965,71.8680007 53.08,71.724 L53.08,66.9 C52.8399988,66.8279996 52.4920023,66.7560004 52.036,66.684 C51.5799977,66.6119996 51.0760028,66.576 50.524,66.576 C50.0439976,66.576 49.5580025,66.6119996 49.066,66.684 C48.5739975,66.7560004 48.130002,66.887999 47.734,67.08 C47.337998,67.272001 47.0200012,67.5419983 46.78,67.89 C46.5399988,68.2380017 46.42,68.6759974 46.42,69.204 C46.42,70.2360052 46.7439968,70.949998 47.392,71.346 C48.0400032,71.742002 48.9159945,71.94 50.02,71.94 Z M49.66,55.704 C51.1000072,55.704 52.3119951,55.8839982 53.296,56.244 C54.2800049,56.6040018 55.0659971,57.1079968 55.654,57.756 C56.2420029,58.4040032 56.6619987,59.1899954 56.914,60.114 C57.1660013,61.0380046 57.292,62.0519945 57.292,63.156 L57.292,74.568 C56.6199966,74.7120007 55.6060068,74.885999 54.25,75.09 C52.8939932,75.294001 51.3640085,75.396 49.66,75.396 C48.5319944,75.396 47.5000047,75.2880011 46.564,75.072 C45.6279953,74.8559989 44.8300033,74.5080024 44.17,74.028 C43.5099967,73.5479976 42.9940019,72.9240038 42.622,72.156 C42.2499981,71.3879962 42.064,70.4400056 42.064,69.312 C42.064,68.2319946 42.2739979,67.3200037 42.694,66.576 C43.1140021,65.8319963 43.6839964,65.2260023 44.404,64.758 C45.1240036,64.2899977 45.9579953,63.954001 46.906,63.75 C47.8540047,63.545999 48.8439948,63.444 49.876,63.444 C50.3560024,63.444 50.8599974,63.4739997 51.388,63.534 C51.9160026,63.5940003 52.479997,63.6959993 53.08,63.84 L53.08,63.12 C53.08,62.6159975 53.0200006,62.1360023 52.9,61.68 C52.7799994,61.2239977 52.5700015,60.8220017 52.27,60.474 C51.9699985,60.1259983 51.5740025,59.856001 51.082,59.664 C50.5899975,59.471999 49.9720037,59.376 49.228,59.376 C48.219995,59.376 47.2960042,59.4479993 46.456,59.592 C45.6159958,59.7360007 44.9320026,59.903999 44.404,60.096 L43.864,56.568 C44.4160028,56.375999 45.2199947,56.184001 46.276,55.992 C47.3320053,55.799999 48.459994,55.704 49.66,55.704 Z M78.748,75.288 C77.4279934,75.288 76.0960067,75.2460004 74.752,75.162 C73.4079933,75.0779996 72.232005,74.9040013 71.224,74.64 L71.224,50.412 C71.7520026,50.3159995 72.315997,50.2260004 72.916,50.142 C73.516003,50.0579996 74.1279969,49.9920002 74.752,49.944 C75.3760031,49.8959998 75.9939969,49.8600001 76.606,49.836 C77.2180031,49.8119999 77.7999972,49.8 78.352,49.8 C79.8640076,49.8 81.2679935,49.9139989 82.564,50.142 C83.8600065,50.3700011 84.9819953,50.7479974 85.93,51.276 C86.8780047,51.8040026 87.6159974,52.4999957 88.144,53.364 C88.6720026,54.2280043 88.936,55.2959936 88.936,56.568 C88.936,57.7440059 88.6540028,58.7519958 88.09,59.592 C87.5259972,60.4320042 86.740005,61.1039975 85.732,61.608 C87.2440076,62.1120025 88.3599964,62.8559951 89.08,63.84 C89.8000036,64.8240049 90.16,66.0719924 90.16,67.584 C90.16,70.1520128 89.2240094,72.0779936 87.352,73.362 C85.4799906,74.6460064 82.6120193,75.288 78.748,75.288 Z M75.688,63.768 L75.688,71.364 C76.1920025,71.4120002 76.7319971,71.4479999 77.308,71.472 C77.8840029,71.4960001 78.4119976,71.508 78.892,71.508 C79.8280047,71.508 80.697996,71.4480006 81.502,71.328 C82.306004,71.2079994 83.0019971,70.9980015 83.59,70.698 C84.1780029,70.3979985 84.6459983,69.9960025 84.994,69.492 C85.3420017,68.9879975 85.516,68.340004 85.516,67.548 C85.516,66.1319929 85.0000052,65.1480028 83.968,64.596 C82.9359948,64.0439972 81.5080091,63.768 79.684,63.768 L75.688,63.768 Z M75.688,60.204 L78.892,60.204 C80.6200086,60.204 81.9759951,59.9580025 82.96,59.466 C83.9440049,58.9739975 84.436,58.0920064 84.436,56.82 C84.436,55.619994 83.9260051,54.7680025 82.906,54.264 C81.8859949,53.7599975 80.5600082,53.508 78.928,53.508 C78.2319965,53.508 77.6140027,53.5199999 77.074,53.544 C76.5339973,53.5680001 76.0720019,53.6039998 75.688,53.652 L75.688,60.204 Z M107.152,65.532 C107.152,63.6839908 106.786004,62.2200054 106.054,61.14 C105.321996,60.0599946 104.164008,59.52 102.58,59.52 C101.859996,59.52 101.182003,59.6279989 100.546,59.844 C99.9099968,60.0600011 99.4000019,60.2999987 99.016,60.564 L99.016,71.4 C99.3280016,71.4720004 99.7299975,71.5379997 100.222,71.598 C100.714002,71.6580003 101.307997,71.688 102.004,71.688 C103.612008,71.688 104.871995,71.1420055 105.784,70.05 C106.696005,68.9579945 107.152,67.4520096 107.152,65.532 Z M111.616,65.604 C111.616,67.1160076 111.394002,68.4779939 110.95,69.69 C110.505998,70.9020061 109.870004,71.9399957 109.042,72.804 C108.213996,73.6680043 107.212006,74.3279977 106.036,74.784 C104.859994,75.2400023 103.528007,75.468 102.04,75.468 C100.599993,75.468 99.2260065,75.3600011 97.918,75.144 C96.6099935,74.9279989 95.5240043,74.6880013 94.66,74.424 L94.66,47.784 L99.016,47.064 L99.016,56.82 C99.5200025,56.5559987 100.137996,56.3160011 100.87,56.1 C101.602004,55.8839989 102.411996,55.776 103.3,55.776 C104.620007,55.776 105.801995,56.0099977 106.846,56.478 C107.890005,56.9460023 108.759997,57.6119957 109.456,58.476 C110.152003,59.3400043 110.685998,60.3779939 111.058,61.59 C111.430002,62.8020061 111.616,64.1399927 111.616,65.604 Z M135.808,75.54 C133.935991,75.54 132.256007,75.2520029 130.768,74.676 C129.279993,74.0999971 128.020005,73.2540056 126.988,72.138 C125.955995,71.0219944 125.164003,69.660008 124.612,68.052 C124.059997,66.443992 123.784,64.5960104 123.784,62.508 C123.784,60.4199896 124.101997,58.572008 124.738,56.964 C125.374003,55.355992 126.243994,53.9940056 127.348,52.878 C128.452006,51.7619944 129.747993,50.9160029 131.236,50.34 C132.724007,49.7639971 134.319991,49.476 136.024,49.476 C137.056005,49.476 137.991996,49.5539992 138.832,49.71 C139.672004,49.8660008 140.403997,50.039999 141.028,50.232 C141.652003,50.424001 142.167998,50.6279989 142.576,50.844 C142.984002,51.0600011 143.271999,51.2159995 143.44,51.312 L142.108,55.02 C141.531997,54.6599982 140.710005,54.3180016 139.642,53.994 C138.573995,53.6699984 137.416006,53.508 136.168,53.508 C135.087995,53.508 134.080005,53.6939981 133.144,54.066 C132.207995,54.4380019 131.398003,54.9959963 130.714,55.74 C130.029997,56.4840037 129.496002,57.4199944 129.112,58.548 C128.727998,59.6760056 128.536,60.9839926 128.536,62.472 C128.536,63.7920066 128.685998,65.0039945 128.986,66.108 C129.286001,67.2120055 129.747997,68.165996 130.372,68.97 C130.996003,69.774004 131.787995,70.3979978 132.748,70.842 C133.708005,71.2860022 134.859993,71.508 136.204,71.508 C137.812008,71.508 139.119995,71.3460016 140.128,71.022 C141.136005,70.6979984 141.915997,70.3920014 142.468,70.104 L143.692,73.812 C143.403999,74.004001 143.014002,74.195999 142.522,74.388 C142.029998,74.580001 141.448003,74.7659991 140.776,74.946 C140.103997,75.1260009 139.348004,75.2699995 138.508,75.378 C137.667996,75.4860005 136.768005,75.54 135.808,75.54 Z M145.96,65.604 C145.96,64.211993 146.175998,62.9100061 146.608,61.698 C147.040002,60.4859939 147.657996,59.4360044 148.462,58.548 C149.266004,57.6599956 150.243994,56.9640025 151.396,56.46 C152.548006,55.9559975 153.843993,55.704 155.284,55.704 C157.060009,55.704 158.739992,56.0279968 160.324,56.676 L159.388,60.24 C158.883997,60.0239989 158.314003,59.8440007 157.678,59.7 C157.041997,59.5559993 156.364004,59.484 155.644,59.484 C153.939991,59.484 152.644004,60.0179947 151.756,61.086 C150.867996,62.1540053 150.424,63.6599903 150.424,65.604 C150.424,67.4760094 150.843996,68.9579945 151.684,70.05 C152.524004,71.1420055 153.93999,71.688 155.932,71.688 C156.676004,71.688 157.407996,71.6160007 158.128,71.472 C158.848004,71.3279993 159.471997,71.1480011 160,70.932 L160.612,74.532 C160.131998,74.7720012 159.406005,74.987999 158.434,75.18 C157.461995,75.372001 156.460005,75.468 155.428,75.468 C153.819992,75.468 152.422006,75.2220025 151.234,74.73 C150.045994,74.2379975 149.062004,73.5540044 148.282,72.678 C147.501996,71.8019956 146.920002,70.7580061 146.536,69.546 C146.151998,68.3339939 145.96,67.0200071 145.96,65.604 Z M177.136,71.256 C177.400001,71.2800001 177.747998,71.2979999 178.18,71.31 C178.612002,71.3220001 179.199996,71.328 179.944,71.328 C182.992015,71.328 185.265993,70.5540077 186.766,69.006 C188.266007,67.4579923 189.016,65.2920139 189.016,62.508 C189.016,59.6759858 188.284007,57.5040076 186.82,55.992 C185.355993,54.4799924 183.088015,53.724 180.016,53.724 C178.671993,53.724 177.712003,53.7599996 177.136,53.832 L177.136,71.256 Z M193.768,62.508 C193.768,64.6680108 193.432003,66.545992 192.76,68.142 C192.087997,69.738008 191.134006,71.0699947 189.898,72.138 C188.661994,73.2060053 187.174009,73.9979974 185.434,74.514 C183.693991,75.0300026 181.768011,75.288 179.656,75.288 C178.647995,75.288 177.508006,75.2460004 176.236,75.162 C174.963994,75.0779996 173.752006,74.9040013 172.6,74.64 L172.6,50.412 C173.752006,50.1479987 174.975994,49.9800004 176.272,49.908 C177.568006,49.8359996 178.719995,49.8 179.728,49.8 C181.81601,49.8 183.723991,50.0459975 185.452,50.538 C187.180009,51.0300025 188.661994,51.7979948 189.898,52.842 C191.134006,53.8860052 192.087997,55.205992 192.76,56.802 C193.432003,58.398008 193.768,60.299989 193.768,62.508 Z M201.94,65.532 C201.94,67.4520096 202.395995,68.9579945 203.308,70.05 C204.220005,71.1420055 205.479992,71.688 207.088,71.688 C207.784003,71.688 208.377998,71.6580003 208.87,71.598 C209.362002,71.5379997 209.763998,71.4720004 210.076,71.4 L210.076,60.6 C209.691998,60.3359987 209.182003,60.0900011 208.546,59.862 C207.909997,59.6339989 207.232004,59.52 206.512,59.52 C204.927992,59.52 203.770004,60.0599946 203.038,61.14 C202.305996,62.2200054 201.94,63.6839908 201.94,65.532 Z M214.432,74.424 C213.567996,74.6880013 212.482007,74.9279989 211.174,75.144 C209.865993,75.3600011 208.492007,75.468 207.052,75.468 C205.563993,75.468 204.232006,75.2400023 203.056,74.784 C201.879994,74.3279977 200.878004,73.6740043 200.05,72.822 C199.221996,71.9699957 198.586002,70.9380061 198.142,69.726 C197.697998,68.5139939 197.476,67.1520076 197.476,65.64 C197.476,64.1519926 197.661998,62.8020061 198.034,61.59 C198.406002,60.3779939 198.951996,59.3400043 199.672,58.476 C200.392004,57.6119957 201.267995,56.9460023 202.3,56.478 C203.332005,56.0099977 204.519993,55.776 205.864,55.776 C206.776005,55.776 207.579997,55.8839989 208.276,56.1 C208.972003,56.3160011 209.571997,56.5559987 210.076,56.82 L210.076,47.784 L214.432,47.064 L214.432,74.424 Z M228.58,75 L228.58,50.052 L244.6,50.052 L244.6,53.904 L233.116,53.904 L233.116,60.06 L243.34,60.06 L243.34,63.84 L233.116,63.84 L233.116,71.148 L245.464,71.148 L245.464,75 L228.58,75 Z M247.912,65.676 C247.912,64.0199917 248.157998,62.5680062 248.65,61.32 C249.142002,60.0719938 249.795996,59.0340041 250.612,58.206 C251.428004,57.3779959 252.363995,56.7540021 253.42,56.334 C254.476005,55.9139979 255.555994,55.704 256.66,55.704 C259.252013,55.704 261.273993,56.507992 262.726,58.116 C264.178007,59.724008 264.904,62.123984 264.904,65.316 C264.904,65.5560012 264.898,65.8259985 264.886,66.126 C264.874,66.4260015 264.856,66.6959988 264.832,66.936 L252.412,66.936 C252.532001,68.4480076 253.065995,69.6179959 254.014,70.446 C254.962005,71.2740041 256.335991,71.688 258.136,71.688 C259.192005,71.688 260.157996,71.592001 261.034,71.4 C261.910004,71.207999 262.599997,71.0040011 263.104,70.788 L263.68,74.352 C263.439999,74.4720006 263.110002,74.5979993 262.69,74.73 C262.269998,74.8620007 261.790003,74.9819995 261.25,75.09 C260.709997,75.1980005 260.128003,75.2879996 259.504,75.36 C258.879997,75.4320004 258.244003,75.468 257.596,75.468 C255.939992,75.468 254.500006,75.2220025 253.276,74.73 C252.051994,74.2379975 251.044004,73.5540044 250.252,72.678 C249.459996,71.8019956 248.872002,70.7700059 248.488,69.582 C248.103998,68.3939941 247.912,67.0920071 247.912,65.676 Z M260.548,63.732 C260.548,63.131997 260.464001,62.5620027 260.296,62.022 C260.127999,61.4819973 259.882002,61.014002 259.558,60.618 C259.233998,60.221998 258.838002,59.9100011 258.37,59.682 C257.901998,59.4539989 257.344003,59.34 256.696,59.34 C256.023997,59.34 255.436003,59.4659987 254.932,59.718 C254.427997,59.9700013 254.002002,60.299998 253.654,60.708 C253.305998,61.116002 253.036001,61.5839974 252.844,62.112 C252.651999,62.6400026 252.52,63.1799972 252.448,63.732 L260.548,63.732 Z M278.116,75 L278.116,50.052 L293.884,50.052 L293.884,53.904 L282.652,53.904 L282.652,60.276 L292.624,60.276 L292.624,64.128 L282.652,64.128 L282.652,75 L278.116,75 Z M305.404,47.064 C306.412005,47.064 307.299996,47.1539991 308.068,47.334 C308.836004,47.5140009 309.411998,47.6759993 309.796,47.82 L308.968,51.42 C308.559998,51.227999 308.086003,51.0720006 307.546,50.952 C307.005997,50.8319994 306.424003,50.772 305.8,50.772 C305.103997,50.772 304.516002,50.873999 304.036,51.078 C303.555998,51.282001 303.172001,51.5639982 302.884,51.924 C302.595999,52.2840018 302.392001,52.7219974 302.272,53.238 C302.151999,53.7540026 302.092,54.311997 302.092,54.912 L302.092,56.172 L308.932,56.172 L308.932,59.808 L302.092,59.808 L302.092,75 L297.736,75 L297.736,54.84 C297.736,52.4159879 298.371994,50.5140069 299.644,49.134 C300.916006,47.7539931 302.835987,47.064 305.404,47.064 Z M332.404,53.472 C329.835987,53.472 327.874007,54.269992 326.518,55.866 C325.161993,57.462008 324.484,59.6759858 324.484,62.508 C324.484,63.8520067 324.645998,65.0819944 324.97,66.198 C325.294002,67.3140056 325.773997,68.267996 326.41,69.06 C327.046003,69.852004 327.837995,70.4699978 328.786,70.914 C329.734005,71.3580022 330.843994,71.58 332.116,71.58 C332.908004,71.58 333.591997,71.5500003 334.168,71.49 C334.744003,71.4299997 335.199998,71.3520005 335.536,71.256 L335.536,62.292 L340.072,62.292 L340.072,74.28 C339.447997,74.5200012 338.392007,74.7839986 336.904,75.072 C335.415993,75.3600014 333.70001,75.504 331.756,75.504 C329.955991,75.504 328.312007,75.2160029 326.824,74.64 C325.335993,74.0639971 324.070005,73.2240055 323.026,72.12 C321.981995,71.0159945 321.172003,69.660008 320.596,68.052 C320.019997,66.443992 319.732,64.5960104 319.732,62.508 C319.732,60.4199896 320.049997,58.572008 320.686,56.964 C321.322003,55.355992 322.191994,53.9940056 323.296,52.878 C324.400006,51.7619944 325.695993,50.9160029 327.184,50.34 C328.672007,49.7639971 330.255992,49.476 331.936,49.476 C333.088006,49.476 334.113995,49.5539992 335.014,49.71 C335.914005,49.8660008 336.687997,50.039999 337.336,50.232 C337.984003,50.424001 338.517998,50.6279989 338.938,50.844 C339.358002,51.0600011 339.651999,51.2159995 339.82,51.312 L338.452,55.02 C337.731996,54.5879978 336.838005,54.2220015 335.77,53.922 C334.701995,53.6219985 333.580006,53.472 332.404,53.472 Z M348.532,65.1 C348.532,66.9480092 348.933996,68.2979957 349.738,69.15 C350.542004,70.0020043 351.579994,70.428 352.852,70.428 C353.548003,70.428 354.201997,70.332001 354.814,70.14 C355.426003,69.947999 355.923998,69.7200013 356.308,69.456 L356.308,59.7 C355.995998,59.6279996 355.612002,59.5620003 355.156,59.502 C354.699998,59.4419997 354.124003,59.412 353.428,59.412 C351.843992,59.412 350.632004,59.9339948 349.792,60.978 C348.951996,62.0220052 348.532,63.3959915 348.532,65.1 Z M360.664,73.092 C360.664,76.092015 359.902008,78.287993 358.378,79.68 C356.853992,81.072007 354.520016,81.768 351.376,81.768 C350.223994,81.768 349.102005,81.672001 348.01,81.48 C346.917995,81.287999 345.928004,81.0360016 345.04,80.724 L345.832,77.016 C346.576004,77.3280016 347.421995,77.579999 348.37,77.772 C349.318005,77.964001 350.343994,78.06 351.448,78.06 C353.200009,78.06 354.447996,77.7000036 355.192,76.98 C355.936004,76.2599964 356.308,75.1920071 356.308,73.776 L356.308,73.056 C355.875998,73.2720011 355.306004,73.4879989 354.598,73.704 C353.889996,73.9200011 353.080005,74.028 352.168,74.028 C350.967994,74.028 349.870005,73.8360019 348.874,73.452 C347.877995,73.0679981 347.026004,72.5040037 346.318,71.76 C345.609996,71.0159963 345.058002,70.0860056 344.662,68.97 C344.265998,67.8539944 344.068,66.5640073 344.068,65.1 C344.068,63.7319932 344.277998,62.4720058 344.698,61.32 C345.118002,60.1679942 345.729996,59.1840041 346.534,58.368 C347.338004,57.5519959 348.315994,56.9160023 349.468,56.46 C350.620006,56.0039977 351.927993,55.776 353.392,55.776 C354.808007,55.776 356.151994,55.8839989 357.424,56.1 C358.696006,56.3160011 359.775996,56.5439988 360.664,56.784 L360.664,73.092 Z M390.184,50.052 L394.72,50.052 L394.72,75 L390.184,75 L390.184,63.948 L379.348,63.948 L379.348,75 L374.812,75 L374.812,50.052 L379.348,50.052 L379.348,60.024 L390.184,60.024 L390.184,50.052 Z M400.48,75 L400.48,47.784 L404.836,47.064 L404.836,56.388 C405.316002,56.2199992 405.873997,56.0760006 406.51,55.956 C407.146003,55.8359994 407.775997,55.776 408.4,55.776 C409.912008,55.776 411.165995,55.9859979 412.162,56.406 C413.158005,56.8260021 413.955997,57.4139962 414.556,58.17 C415.156003,58.9260038 415.581999,59.8319947 415.834,60.888 C416.086001,61.9440053 416.212,63.1199935 416.212,64.416 L416.212,75 L411.856,75 L411.856,65.1 C411.856,64.091995 411.790001,63.2340035 411.658,62.526 C411.525999,61.8179965 411.310001,61.2420022 411.01,60.798 C410.709998,60.3539978 410.308003,60.030001 409.804,59.826 C409.299997,59.621999 408.676004,59.52 407.932,59.52 C407.355997,59.52 406.768003,59.5799994 406.168,59.7 C405.567997,59.8200006 405.124001,59.9279995 404.836,60.024 L404.836,75 L400.48,75 Z M430.036,50.052 L434.572,50.052 L434.572,75 L430.036,75 L430.036,50.052 Z M444.724,75 L440.368,75 L440.368,56.172 L444.724,56.172 L444.724,75 Z M445.192,50.664 C445.192,51.4800041 444.928003,52.1279976 444.4,52.608 C443.871997,53.0880024 443.248004,53.328 442.528,53.328 C441.783996,53.328 441.148003,53.0880024 440.62,52.608 C440.091997,52.1279976 439.828,51.4800041 439.828,50.664 C439.828,49.8239958 440.091997,49.1640024 440.62,48.684 C441.148003,48.2039976 441.783996,47.964 442.528,47.964 C443.248004,47.964 443.871997,48.2039976 444.4,48.684 C444.928003,49.1640024 445.192,49.8239958 445.192,50.664 Z M471.544,66.792 C471.544,68.0160061 471.412001,69.1559947 471.148,70.212 C470.883999,71.2680053 470.422003,72.191996 469.762,72.984 C469.101997,73.776004 468.214006,74.3999977 467.098,74.856 C465.981994,75.3120023 464.572009,75.54 462.868,75.54 C461.283992,75.54 459.910006,75.3180022 458.746,74.874 C457.581994,74.4299978 456.688003,73.9560025 456.064,73.452 L457.684,69.888 C458.284003,70.296002 459.021996,70.6859981 459.898,71.058 C460.774004,71.4300019 461.667995,71.616 462.58,71.616 C464.116008,71.616 465.231997,71.2320038 465.928,70.464 C466.624003,69.6959962 466.972,68.3760094 466.972,66.504 L466.972,50.052 L471.544,50.052 L471.544,66.792 Z M474.712,81.696 C474.399998,81.696 473.962003,81.6660003 473.398,81.606 C472.833997,81.5459997 472.336002,81.4320008 471.904,81.264 L472.48,77.7 C473.008003,77.8680008 473.643996,77.952 474.388,77.952 C475.396005,77.952 476.103998,77.6580029 476.512,77.07 C476.920002,76.4819971 477.124,75.6000059 477.124,74.424 L477.124,56.172 L481.48,56.172 L481.48,74.496 C481.48,76.9440122 480.898006,78.7559941 479.734,79.932 C478.569994,81.1080059 476.896011,81.696 474.712,81.696 Z M481.948,50.664 C481.948,51.4800041 481.684003,52.1279976 481.156,52.608 C480.627997,53.0880024 480.004004,53.328 479.284,53.328 C478.539996,53.328 477.904003,53.0880024 477.376,52.608 C476.847997,52.1279976 476.584,51.4800041 476.584,50.664 C476.584,49.8239958 476.847997,49.1640024 477.376,48.684 C477.904003,48.2039976 478.539996,47.964 479.284,47.964 C480.004004,47.964 480.627997,48.2039976 481.156,48.684 C481.684003,49.1640024 481.948,49.8239958 481.948,50.664 Z M510.532,75 C509.907997,74.0399952 509.188004,73.0320053 508.372,71.976 C507.555996,70.9199947 506.698004,69.9000049 505.798,68.916 C504.897995,67.9319951 503.968005,66.9960044 503.008,66.108 C502.047995,65.2199956 501.100005,64.4520032 500.164,63.804 L500.164,75 L495.628,75 L495.628,50.052 L500.164,50.052 L500.164,60.348 C500.956004,59.555996 501.783996,58.7100045 502.648,57.81 C503.512004,56.9099955 504.369996,55.9980046 505.222,55.074 C506.074004,54.1499954 506.883996,53.2560043 507.652,52.392 C508.420004,51.5279957 509.115997,50.7480035 509.74,50.052 L515.176,50.052 C514.383996,50.9640046 513.544004,51.9119951 512.656,52.896 C511.767996,53.8800049 510.856005,54.869995 509.92,55.866 C508.983995,56.862005 508.042005,57.8519951 507.094,58.836 C506.145995,59.8200049 505.216005,60.7559956 504.304,61.644 C505.312005,62.4120038 506.337995,63.3059949 507.382,64.326 C508.426005,65.3460051 509.451995,66.4379942 510.46,67.602 C511.468005,68.7660058 512.433995,69.9779937 513.358,71.238 C514.282005,72.4980063 515.127996,73.7519938 515.896,75 L510.532,75 Z M523.204,63.516 C523.756003,62.9399971 524.343997,62.3220033 524.968,61.662 C525.592003,61.0019967 526.203997,60.3420033 526.804,59.682 C527.404003,59.0219967 527.973997,58.3860031 528.514,57.774 C529.054003,57.1619969 529.515998,56.6280023 529.9,56.172 L535.048,56.172 C533.847994,57.5160067 532.582007,58.9079928 531.25,60.348 C529.917993,61.7880072 528.580007,63.1919932 527.236,64.56 C527.956004,65.160003 528.711996,65.8859957 529.504,66.738 C530.296004,67.5900043 531.063996,68.4959952 531.808,69.456 C532.552004,70.4160048 533.247997,71.3759952 533.896,72.336 C534.544003,73.2960048 535.083998,74.1839959 535.516,75 L530.476,75 C530.043998,74.2559963 529.546003,73.4760041 528.982,72.66 C528.417997,71.8439959 527.812003,71.0520038 527.164,70.284 C526.515997,69.5159962 525.856003,68.7900034 525.184,68.106 C524.511997,67.4219966 523.852003,66.8400024 523.204,66.36 L523.204,75 L518.848,75 L518.848,47.784 L523.204,47.064 L523.204,63.516 Z M563.056,71.076 L563.056,75 L547.288,75 L547.288,50.052 L551.824,50.052 L551.824,71.076 L563.056,71.076 Z M572.848,75.36 C571.551994,75.3359999 570.478004,75.1920013 569.626,74.928 C568.773996,74.6639987 568.096003,74.2860025 567.592,73.794 C567.087997,73.3019975 566.734001,72.6900037 566.53,71.958 C566.325999,71.2259963 566.224,70.3920047 566.224,69.456 L566.224,47.784 L570.58,47.064 L570.58,68.628 C570.58,69.1560026 570.622,69.5999982 570.706,69.96 C570.79,70.3200018 570.939999,70.6259987 571.156,70.878 C571.372001,71.1300013 571.665998,71.3219993 572.038,71.454 C572.410002,71.5860007 572.883997,71.6879996 573.46,71.76 L572.848,75.36 Z M591.028,50.052 C591.556003,50.9640046 592.143997,52.0799934 592.792,53.4 C593.440003,54.7200066 594.099997,56.1059927 594.772,57.558 C595.444003,59.0100073 596.109997,60.4859925 596.77,61.986 C597.430003,63.4860075 598.035997,64.8719936 598.588,66.144 C599.140003,64.8719936 599.739997,63.4860075 600.388,61.986 C601.036003,60.4859925 601.695997,59.0100073 602.368,57.558 C603.040003,56.1059927 603.699997,54.7200066 604.348,53.4 C604.996003,52.0799934 605.583997,50.9640046 606.112,50.052 L610.216,50.052 C610.432001,51.8760091 610.635999,53.8139897 610.828,55.866 C611.020001,57.9180103 611.193999,60.0179893 611.35,62.166 C611.506001,64.3140107 611.649999,66.4739891 611.782,68.646 C611.914001,70.8180109 612.028,72.9359897 612.124,75 L607.66,75 C607.564,72.0959855 607.450001,69.1080154 607.318,66.036 C607.185999,62.9639846 606.988001,59.9880144 606.724,57.108 C606.459999,57.6600028 606.148002,58.3199962 605.788,59.088 C605.427998,59.8560038 605.044002,60.6899955 604.636,61.59 C604.227998,62.4900045 603.814002,63.4199952 603.394,64.38 C602.973998,65.3400048 602.566002,66.2699955 602.17,67.17 C601.773998,68.0700045 601.408002,68.9099961 601.072,69.69 C600.735998,70.4700039 600.448001,71.1359972 600.208,71.688 L596.824,71.688 C596.583999,71.1359972 596.296002,70.464004 595.96,69.672 C595.623998,68.879996 595.258002,68.0340045 594.862,67.134 C594.465998,66.2339955 594.058002,65.3040048 593.638,64.344 C593.217998,63.3839952 592.804002,62.4600044 592.396,61.572 C591.987998,60.6839956 591.604002,59.8500039 591.244,59.07 C590.883998,58.2899961 590.572001,57.6360026 590.308,57.108 C590.043999,59.9880144 589.846001,62.9639846 589.714,66.036 C589.581999,69.1080154 589.468,72.0959855 589.372,75 L584.908,75 C585.004,72.9359897 585.117999,70.800011 585.25,68.592 C585.382001,66.383989 585.525999,64.1940109 585.682,62.022 C585.838001,59.8499891 586.011999,57.7440102 586.204,55.704 C586.396001,53.6639898 586.599999,51.7800086 586.816,50.052 L591.028,50.052 Z M627.928,65.1 C627.928,63.1319902 627.682002,61.7100044 627.19,60.834 C626.697998,59.9579956 625.780007,59.52 624.436,59.52 C623.955998,59.52 623.428003,59.5559996 622.852,59.628 C622.275997,59.7000004 621.844001,59.7599998 621.556,59.808 L621.556,75 L617.2,75 L617.2,56.784 C618.040004,56.5439988 619.137993,56.3160011 620.494,56.1 C621.850007,55.8839989 623.283992,55.776 624.796,55.776 C626.092006,55.776 627.153996,55.9439983 627.982,56.28 C628.810004,56.6160017 629.499997,57.0599972 630.052,57.612 C630.316001,57.419999 630.651998,57.2160011 631.06,57 C631.468002,56.7839989 631.923997,56.5860009 632.428,56.406 C632.932003,56.2259991 633.465997,56.0760006 634.03,55.956 C634.594003,55.8359994 635.163997,55.776 635.74,55.776 C637.204007,55.776 638.409995,55.9859979 639.358,56.406 C640.306005,56.8260021 641.049997,57.4139962 641.59,58.17 C642.130003,58.9260038 642.501999,59.8379947 642.706,60.906 C642.910001,61.9740053 643.012,63.1439936 643.012,64.416 L643.012,75 L638.656,75 L638.656,65.1 C638.656,63.1319902 638.416002,61.7100044 637.936,60.834 C637.455998,59.9579956 636.532007,59.52 635.164,59.52 C634.467997,59.52 633.808003,59.6339989 633.184,59.862 C632.559997,60.0900011 632.092002,60.3119989 631.78,60.528 C631.972001,61.128003 632.104,61.7639966 632.176,62.436 C632.248,63.1080034 632.284,63.8279962 632.284,64.596 L632.284,75 L627.928,75 L627.928,65.1 Z M673.756,75 C672.939996,73.6319932 672.028005,72.1620079 671.02,70.59 C670.011995,69.0179921 668.968005,67.434008 667.888,65.838 C666.807995,64.241992 665.710006,62.6940075 664.594,61.194 C663.477994,59.6939925 662.416005,58.344006 661.408,57.144 L661.408,75 L656.944,75 L656.944,50.052 L660.652,50.052 C661.612005,51.060005 662.643994,52.2539931 663.748,53.634 C664.852006,55.0140069 665.961994,56.4479926 667.078,57.936 C668.194006,59.4240074 669.273995,60.9179925 670.318,62.418 C671.362005,63.9180075 672.291996,65.3159935 673.108,66.612 L673.108,50.052 L677.608,50.052 L677.608,75 L673.756,75 Z M683.368,56.784 C684.208004,56.5439988 685.299993,56.3160011 686.644,56.1 C687.988007,55.8839989 689.475992,55.776 691.108,55.776 C692.644008,55.776 693.927995,55.9859979 694.96,56.406 C695.992005,56.8260021 696.813997,57.4139962 697.426,58.17 C698.038003,58.9260038 698.469999,59.8379947 698.722,60.906 C698.974001,61.9740053 699.1,63.1439936 699.1,64.416 L699.1,75 L694.744,75 L694.744,65.1 C694.744,64.091995 694.678001,63.2340035 694.546,62.526 C694.413999,61.8179965 694.198001,61.2420022 693.898,60.798 C693.597999,60.3539978 693.190003,60.030001 692.674,59.826 C692.157997,59.621999 691.528004,59.52 690.784,59.52 C690.231997,59.52 689.656003,59.5559996 689.056,59.628 C688.455997,59.7000004 688.012001,59.7599998 687.724,59.808 L687.724,75 L683.368,75 L683.368,56.784 Z M716.74,62.508 C716.74,63.8760068 716.907998,65.1179944 717.244,66.234 C717.580002,67.3500056 718.065997,68.2979961 718.702,69.078 C719.338003,69.8580039 720.111995,70.4639978 721.024,70.896 C721.936005,71.3280022 722.967994,71.544 724.12,71.544 C725.248006,71.544 726.267995,71.3280022 727.18,70.896 C728.092005,70.4639978 728.865997,69.8580039 729.502,69.078 C730.138003,68.2979961 730.623998,67.3500056 730.96,66.234 C731.296002,65.1179944 731.464,63.8760068 731.464,62.508 C731.464,61.1399932 731.296002,59.8980056 730.96,58.782 C730.623998,57.6659944 730.138003,56.7180039 729.502,55.938 C728.865997,55.1579961 728.092005,54.5520022 727.18,54.12 C726.267995,53.6879978 725.248006,53.472 724.12,53.472 C722.967994,53.472 721.936005,53.6879978 721.024,54.12 C720.111995,54.5520022 719.338003,55.163996 718.702,55.956 C718.065997,56.748004 717.580002,57.6959945 717.244,58.8 C716.907998,59.9040055 716.74,61.1399932 716.74,62.508 Z M736.216,62.508 C736.216,64.6440107 735.898003,66.5279918 735.262,68.16 C734.625997,69.7920082 733.762005,71.1539945 732.67,72.246 C731.577995,73.3380055 730.300007,74.1599972 728.836,74.712 C727.371993,75.2640028 725.812008,75.54 724.156,75.54 C722.499992,75.54 720.934007,75.2640028 719.458,74.712 C717.981993,74.1599972 716.698005,73.3380055 715.606,72.246 C714.513995,71.1539945 713.644003,69.7920082 712.996,68.16 C712.347997,66.5279918 712.024,64.6440107 712.024,62.508 C712.024,60.3719893 712.347997,58.4940081 712.996,56.874 C713.644003,55.2539919 714.525994,53.8920055 715.642,52.788 C716.758006,51.6839945 718.047993,50.8560028 719.512,50.304 C720.976007,49.7519972 722.523992,49.476 724.156,49.476 C725.788008,49.476 727.335993,49.7519972 728.8,50.304 C730.264007,50.8560028 731.541995,51.6839945 732.634,52.788 C733.726005,53.8920055 734.595997,55.2539919 735.244,56.874 C735.892003,58.4940081 736.216,60.3719893 736.216,62.508 Z M757.996,65.568 C757.996,67.0560074 757.780002,68.4119939 757.348,69.636 C756.915998,70.8600061 756.304004,71.9039957 755.512,72.768 C754.719996,73.6320043 753.766006,74.3039976 752.65,74.784 C751.533994,75.2640024 750.304007,75.504 748.96,75.504 C747.615993,75.504 746.392006,75.2640024 745.288,74.784 C744.183994,74.3039976 743.236004,73.6320043 742.444,72.768 C741.651996,71.9039957 741.034002,70.8600061 740.59,69.636 C740.145998,68.4119939 739.924,67.0560074 739.924,65.568 C739.924,64.0799926 740.145998,62.7300061 740.59,61.518 C741.034002,60.3059939 741.657996,59.2680043 742.462,58.404 C743.266004,57.5399957 744.219994,56.8740023 745.324,56.406 C746.428006,55.9379977 747.639993,55.704 748.96,55.704 C750.280007,55.704 751.497994,55.9379977 752.614,56.406 C753.730006,56.8740023 754.683996,57.5399957 755.476,58.404 C756.268004,59.2680043 756.885998,60.3059939 757.33,61.518 C757.774002,62.7300061 757.996,64.0799926 757.996,65.568 Z M753.532,65.568 C753.532,63.6959906 753.130004,62.2140055 752.326,61.122 C751.521996,60.0299945 750.400007,59.484 748.96,59.484 C747.519993,59.484 746.398004,60.0299945 745.594,61.122 C744.789996,62.2140055 744.388,63.6959906 744.388,65.568 C744.388,67.4640095 744.789996,68.9639945 745.594,70.068 C746.398004,71.1720055 747.519993,71.724 748.96,71.724 C750.400007,71.724 751.521996,71.1720055 752.326,70.068 C753.130004,68.9639945 753.532,67.4640095 753.532,65.568 Z M778.156,49.8 C781.780018,49.8 784.55799,50.4599934 786.49,51.78 C788.42201,53.1000066 789.388,55.163986 789.388,57.972 C789.388,59.4360073 789.130003,60.6899948 788.614,61.734 C788.097997,62.7780052 787.348005,63.6299967 786.364,64.29 C785.379995,64.9500033 784.180007,65.4359984 782.764,65.748 C781.347993,66.0600016 779.728009,66.216 777.904,66.216 L775.636,66.216 L775.636,75 L771.1,75 L771.1,50.412 C772.156005,50.1719988 773.325994,50.0100004 774.61,49.926 C775.894006,49.8419996 777.075995,49.8 778.156,49.8 Z M778.48,53.724 C777.327994,53.724 776.380004,53.7599996 775.636,53.832 L775.636,62.328 L777.832,62.328 C780.016011,62.328 781.695994,62.0220031 782.872,61.41 C784.048006,60.7979969 784.636,59.6400085 784.636,57.936 C784.636,57.1199959 784.480002,56.4360028 784.168,55.884 C783.855998,55.3319972 783.424003,54.9000016 782.872,54.588 C782.319997,54.2759984 781.666004,54.0540007 780.91,53.922 C780.153996,53.7899993 779.344004,53.724 778.48,53.724 Z M805.804,65.676 C805.804,63.7319903 805.366004,62.2200054 804.49,61.14 C803.613996,60.0599946 802.20401,59.52 800.26,59.52 C799.851998,59.52 799.426002,59.5379998 798.982,59.574 C798.537998,59.6100002 798.100002,59.6879994 797.668,59.808 L797.668,70.572 C798.052002,70.8360013 798.561997,71.0819989 799.198,71.31 C799.834003,71.5380011 800.511996,71.652 801.232,71.652 C802.816008,71.652 803.973996,71.1120054 804.706,70.032 C805.438004,68.9519946 805.804,67.5000091 805.804,65.676 Z M810.268,65.604 C810.268,67.0440072 810.082002,68.363994 809.71,69.564 C809.337998,70.764006 808.804003,71.7959957 808.108,72.66 C807.411997,73.5240043 806.542005,74.1959976 805.498,74.676 C804.453995,75.1560024 803.272007,75.396 801.952,75.396 C801.063996,75.396 800.248004,75.2880011 799.504,75.072 C798.759996,74.8559989 798.148002,74.6160013 797.668,74.352 L797.668,81.66 L793.312,81.66 L793.312,56.784 C794.200004,56.5439988 795.291994,56.3160011 796.588,56.1 C797.884006,55.8839989 799.251993,55.776 800.692,55.776 C802.180007,55.776 803.511994,56.0039977 804.688,56.46 C805.864006,56.9160023 806.865996,57.5699957 807.694,58.422 C808.522004,59.2740043 809.157998,60.3059939 809.602,61.518 C810.046002,62.7300061 810.268,64.0919924 810.268,65.604 Z M827.08,62.508 C827.08,63.8760068 827.247998,65.1179944 827.584,66.234 C827.920002,67.3500056 828.405997,68.2979961 829.042,69.078 C829.678003,69.8580039 830.451995,70.4639978 831.364,70.896 C832.276005,71.3280022 833.307994,71.544 834.46,71.544 C835.588006,71.544 836.607995,71.3280022 837.52,70.896 C838.432005,70.4639978 839.205997,69.8580039 839.842,69.078 C840.478003,68.2979961 840.963998,67.3500056 841.3,66.234 C841.636002,65.1179944 841.804,63.8760068 841.804,62.508 C841.804,61.1399932 841.636002,59.8980056 841.3,58.782 C840.963998,57.6659944 840.478003,56.7180039 839.842,55.938 C839.205997,55.1579961 838.432005,54.5520022 837.52,54.12 C836.607995,53.6879978 835.588006,53.472 834.46,53.472 C833.307994,53.472 832.276005,53.6879978 831.364,54.12 C830.451995,54.5520022 829.678003,55.163996 829.042,55.956 C828.405997,56.748004 827.920002,57.6959945 827.584,58.8 C827.247998,59.9040055 827.08,61.1399932 827.08,62.508 Z M846.556,62.508 C846.556,64.308009 846.328002,65.9279928 845.872,67.368 C845.415998,68.8080072 844.780004,70.0619947 843.964,71.13 C843.147996,72.1980053 842.194005,73.0679966 841.102,73.74 C840.009995,74.4120034 838.816006,74.8919986 837.52,75.18 C837.592,75.6840025 837.843998,76.1159982 838.276,76.476 C838.708002,76.8360018 839.253997,77.1359988 839.914,77.376 C840.574003,77.6160012 841.329996,77.8139992 842.182,77.97 C843.034004,78.1260008 843.927995,78.2399996 844.864,78.312 L843.856,81.732 C840.759985,81.4919988 838.300009,80.8980047 836.476,79.95 C834.651991,79.0019953 833.488003,77.4960103 832.984,75.432 C831.495993,75.2879993 830.110006,74.9040031 828.826,74.28 C827.541994,73.6559969 826.420005,72.8040054 825.46,71.724 C824.499995,70.6439946 823.744003,69.3360077 823.192,67.8 C822.639997,66.2639923 822.364,64.50001 822.364,62.508 C822.364,60.3719893 822.687997,58.4940081 823.336,56.874 C823.984003,55.2539919 824.865994,53.8920055 825.982,52.788 C827.098006,51.6839945 828.387993,50.8560028 829.852,50.304 C831.316007,49.7519972 832.863992,49.476 834.496,49.476 C836.128008,49.476 837.675993,49.7519972 839.14,50.304 C840.604007,50.8560028 841.881995,51.6839945 842.974,52.788 C844.066005,53.8920055 844.935997,55.2539919 845.584,56.874 C846.232003,58.4940081 846.556,60.3719893 846.556,62.508 Z M854.728,65.676 C854.728,67.5000091 855.093996,68.9519946 855.826,70.032 C856.558004,71.1120054 857.715992,71.652 859.3,71.652 C860.020004,71.652 860.697997,71.5380011 861.334,71.31 C861.970003,71.0819989 862.479998,70.8360013 862.864,70.572 L862.864,59.808 C862.551998,59.7359996 862.162002,59.6700003 861.694,59.61 C861.225998,59.5499997 860.620004,59.52 859.876,59.52 C858.267992,59.52 857.008005,60.0659945 856.096,61.158 C855.183995,62.2500055 854.728,63.7559904 854.728,65.676 Z M850.264,65.604 C850.264,64.1159926 850.485998,62.7660061 850.93,61.554 C851.374002,60.3419939 852.009996,59.3100043 852.838,58.458 C853.666004,57.6059957 854.667994,56.9460023 855.844,56.478 C857.020006,56.0099977 858.351993,55.776 859.84,55.776 C861.328007,55.776 862.719994,55.8839989 864.016,56.1 C865.312006,56.3160011 866.379996,56.5439988 867.22,56.784 L867.22,81.66 L862.864,81.66 L862.864,74.352 C862.359997,74.6160013 861.742004,74.8559989 861.01,75.072 C860.277996,75.2880011 859.468004,75.396 858.58,75.396 C857.235993,75.396 856.048005,75.1620023 855.016,74.694 C853.983995,74.2259977 853.120003,73.5600043 852.424,72.696 C851.727997,71.8319957 851.194002,70.800006 850.822,69.6 C850.449998,68.399994 850.264,67.0680073 850.264,65.604 Z M888.244,49.8 C891.844018,49.8 894.59799,50.4599934 896.506,51.78 C898.41401,53.1000066 899.368,55.1159864 899.368,57.828 C899.368,61.2120169 897.700017,63.503994 894.364,64.704 C894.820002,65.2560028 895.335997,65.927996 895.912,66.72 C896.488003,67.512004 897.075997,68.3699954 897.676,69.294 C898.276003,70.2180046 898.851997,71.1659951 899.404,72.138 C899.956003,73.1100049 900.447998,74.0639953 900.88,75 L895.804,75 C895.347998,74.1359957 894.856003,73.2660044 894.328,72.39 C893.799997,71.5139956 893.266003,70.6620041 892.726,69.834 C892.185997,69.0059959 891.652003,68.2260037 891.124,67.494 C890.595997,66.7619963 890.104002,66.1080029 889.648,65.532 C889.311998,65.5560001 889.024001,65.568 888.784,65.568 L885.904,65.568 L885.904,75 L881.368,75 L881.368,50.412 C882.472006,50.1719988 883.647994,50.0100004 884.896,49.926 C886.144006,49.8419996 887.259995,49.8 888.244,49.8 Z M888.568,53.724 C887.607995,53.724 886.720004,53.7599996 885.904,53.832 L885.904,61.896 L887.884,61.896 C888.988006,61.896 889.959996,61.8360006 890.8,61.716 C891.640004,61.5959994 892.341997,61.3800016 892.906,61.068 C893.470003,60.7559984 893.895999,60.3360026 894.184,59.808 C894.472001,59.2799974 894.616,58.6080041 894.616,57.792 C894.616,57.0239962 894.472001,56.3760026 894.184,55.848 C893.895999,55.3199974 893.482003,54.9000016 892.942,54.588 C892.401997,54.2759984 891.760004,54.0540007 891.016,53.922 C890.271996,53.7899993 889.456004,53.724 888.568,53.724 Z M914.92,60.096 C914.559998,59.9759994 914.062003,59.8500007 913.426,59.718 C912.789997,59.5859993 912.052004,59.52 911.212,59.52 C910.731998,59.52 910.222003,59.5679995 909.682,59.664 C909.141997,59.7600005 908.764001,59.8439996 908.548,59.916 L908.548,75 L904.192,75 L904.192,57.072 C905.032004,56.7599984 906.081994,56.4660014 907.342,56.19 C908.602006,55.9139986 909.999992,55.776 911.536,55.776 C911.824001,55.776 912.159998,55.7939998 912.544,55.83 C912.928002,55.8660002 913.311998,55.9139997 913.696,55.974 C914.080002,56.0340003 914.451998,56.1059996 914.812,56.19 C915.172002,56.2740004 915.459999,56.3519996 915.676,56.424 L914.92,60.096 Z M933.352,71.616 C934.984008,71.616 936.171996,71.3400028 936.916,70.788 C937.660004,70.2359972 938.032,69.456005 938.032,68.448 C938.032,67.847997 937.906001,67.3320022 937.654,66.9 C937.401999,66.4679978 937.042002,66.0780017 936.574,65.73 C936.105998,65.3819983 935.536003,65.0580015 934.864,64.758 C934.191997,64.4579985 933.424004,64.1640014 932.56,63.876 C931.695996,63.5639984 930.862004,63.2220019 930.058,62.85 C929.253996,62.4779981 928.546003,62.0160028 927.934,61.464 C927.321997,60.9119972 926.830002,60.2520038 926.458,59.484 C926.085998,58.7159962 925.9,57.7920054 925.9,56.712 C925.9,54.4559887 926.679992,52.6860064 928.24,51.402 C929.800008,50.1179936 931.923987,49.476 934.612,49.476 C936.172008,49.476 937.557994,49.6499983 938.77,49.998 C939.982006,50.3460017 940.935997,50.723998 941.632,51.132 L940.228,54.804 C939.411996,54.3479977 938.518005,54.0000012 937.546,53.76 C936.573995,53.5199988 935.572005,53.4 934.54,53.4 C933.315994,53.4 932.362003,53.6519975 931.678,54.156 C930.993997,54.6600025 930.652,55.3679954 930.652,56.28 C930.652,56.8320028 930.765999,57.305998 930.994,57.702 C931.222001,58.098002 931.545998,58.4519984 931.966,58.764 C932.386002,59.0760016 932.877997,59.3639987 933.442,59.628 C934.006003,59.8920013 934.623997,60.1439988 935.296,60.384 C936.472006,60.8160022 937.521995,61.2539978 938.446,61.698 C939.370005,62.1420022 940.149997,62.6699969 940.786,63.282 C941.422003,63.8940031 941.907998,64.6139959 942.244,65.442 C942.580002,66.2700041 942.748,67.2719941 942.748,68.448 C942.748,70.7040113 941.950008,72.4499938 940.354,73.686 C938.757992,74.9220062 936.424015,75.54 933.352,75.54 C932.319995,75.54 931.378004,75.4740007 930.526,75.342 C929.673996,75.2099993 928.918003,75.048001 928.258,74.856 C927.597997,74.663999 927.028002,74.466001 926.548,74.262 C926.067998,74.057999 925.684001,73.8720008 925.396,73.704 L926.728,69.996 C927.376003,70.3560018 928.251994,70.7159982 929.356,71.076 C930.460006,71.4360018 931.791992,71.616 933.352,71.616 Z M951.244,71.868 C952.396006,71.868 953.235997,71.7300014 953.764,71.454 C954.292003,71.1779986 954.556,70.7040034 954.556,70.032 C954.556,69.4079969 954.274003,68.892002 953.71,68.484 C953.145997,68.075998 952.216006,67.6320024 950.92,67.152 C950.127996,66.8639986 949.402003,66.5580016 948.742,66.234 C948.081997,65.9099984 947.512002,65.5320022 947.032,65.1 C946.551998,64.6679978 946.174001,64.1460031 945.898,63.534 C945.621999,62.9219969 945.484,62.1720044 945.484,61.284 C945.484,59.5559914 946.119994,58.194005 947.392,57.198 C948.664006,56.201995 950.391989,55.704 952.576,55.704 C953.680006,55.704 954.735995,55.805999 955.744,56.01 C956.752005,56.214001 957.507997,56.411999 958.012,56.604 L957.22,60.132 C956.739998,59.9159989 956.128004,59.7180009 955.384,59.538 C954.639996,59.3579991 953.776005,59.268 952.792,59.268 C951.903996,59.268 951.184003,59.4179985 950.632,59.718 C950.079997,60.0180015 949.804,60.4799969 949.804,61.104 C949.804,61.4160016 949.857999,61.6919988 949.966,61.932 C950.074001,62.1720012 950.259999,62.393999 950.524,62.598 C950.788001,62.802001 951.135998,63.005999 951.568,63.21 C952.000002,63.414001 952.527997,63.6239989 953.152,63.84 C954.184005,64.2240019 955.059996,64.6019981 955.78,64.974 C956.500004,65.3460019 957.093998,65.7659977 957.562,66.234 C958.030002,66.7020023 958.371999,67.235997 958.588,67.836 C958.804001,68.436003 958.912,69.1559958 958.912,69.996 C958.912,71.796009 958.246007,73.1579954 956.914,74.082 C955.581993,75.0060046 953.680012,75.468 951.208,75.468 C949.551992,75.468 948.220005,75.3300014 947.212,75.054 C946.203995,74.7779986 945.496002,74.5560008 945.088,74.388 L945.844,70.752 C946.492003,71.0160013 947.265996,71.2679988 948.166,71.508 C949.066005,71.7480012 950.091994,71.868 951.244,71.868 Z M988.972,50.052 L988.972,53.976 L981.304,53.976 L981.304,75 L976.732,75 L976.732,53.976 L969.064,53.976 L969.064,50.052 L988.972,50.052 Z M991.996,51.204 L996.352,50.484 L996.352,56.172 L1003.048,56.172 L1003.048,59.808 L996.352,59.808 L996.352,67.476 C996.352,68.9880076 996.591998,70.0679968 997.072,70.716 C997.552002,71.3640032 998.367994,71.688 999.52,71.688 C1000.312,71.688 1001.014,71.6040008 1001.626,71.436 C1002.238,71.2679992 1002.724,71.1120007 1003.084,70.968 L1003.804,74.424 C1003.3,74.6400011 1002.64,74.8619989 1001.824,75.09 C1001.008,75.3180011 1000.04801,75.432 998.944,75.432 C997.599993,75.432 996.478005,75.2520018 995.578,74.892 C994.677996,74.5319982 993.964003,74.0100034 993.436,73.326 C992.907997,72.6419966 992.536001,71.8140049 992.32,70.842 C992.103999,69.8699951 991.996,68.7600062 991.996,67.512 L991.996,51.204 Z M1025.476,75.54 C1023.77199,75.54 1022.30801,75.2940025 1021.084,74.802 C1019.85999,74.3099975 1018.846,73.6200044 1018.042,72.732 C1017.238,71.8439956 1016.644,70.800006 1016.26,69.6 C1015.876,68.399994 1015.684,67.0800072 1015.684,65.64 L1015.684,50.052 L1020.256,50.052 L1020.256,65.208 C1020.256,66.3360056 1020.382,67.301996 1020.634,68.106 C1020.886,68.910004 1021.246,69.5639975 1021.714,70.068 C1022.182,70.5720025 1022.734,70.9439988 1023.37,71.184 C1024.006,71.4240012 1024.72,71.544 1025.512,71.544 C1026.304,71.544 1027.024,71.4240012 1027.672,71.184 C1028.32,70.9439988 1028.878,70.5720025 1029.346,70.068 C1029.814,69.5639975 1030.174,68.910004 1030.426,68.106 C1030.678,67.301996 1030.804,66.3360056 1030.804,65.208 L1030.804,50.052 L1035.376,50.052 L1035.376,65.64 C1035.376,67.0800072 1035.178,68.399994 1034.782,69.6 C1034.386,70.800006 1033.786,71.8439956 1032.982,72.732 C1032.178,73.6200044 1031.15201,74.3099975 1029.904,74.802 C1028.65599,75.2940025 1027.18001,75.54 1025.476,75.54 Z M1056.4,74.424 C1055.56,74.6400011 1054.46801,74.8619989 1053.124,75.09 C1051.77999,75.3180011 1050.30401,75.432 1048.696,75.432 C1047.18399,75.432 1045.91801,75.2160022 1044.898,74.784 C1043.87799,74.3519978 1043.062,73.7520038 1042.45,72.984 C1041.838,72.2159962 1041.4,71.2980053 1041.136,70.23 C1040.872,69.1619947 1040.74,67.9920064 1040.74,66.72 L1040.74,56.172 L1045.096,56.172 L1045.096,66.036 C1045.096,68.0520101 1045.39,69.4919957 1045.978,70.356 C1046.566,71.2200043 1047.59199,71.652 1049.056,71.652 C1049.584,71.652 1050.142,71.6280002 1050.73,71.58 C1051.318,71.5319998 1051.756,71.4720004 1052.044,71.4 L1052.044,56.172 L1056.4,56.172 L1056.4,74.424 Z M1077.676,75 C1075.87599,71.1119806 1074.14201,67.0440212 1072.474,62.796 C1070.80599,58.5479788 1069.25201,54.3000212 1067.812,50.052 L1072.816,50.052 C1073.392,51.7320084 1073.98,53.4479912 1074.58,55.2 C1075.18,56.9520088 1075.78,58.6739915 1076.38,60.366 C1076.98,62.0580085 1077.58,63.6959921 1078.18,65.28 C1078.78,66.8640079 1079.368,68.3159934 1079.944,69.636 C1080.496,68.3159934 1081.072,66.8700079 1081.672,65.298 C1082.272,63.7259921 1082.878,62.0880085 1083.49,60.384 C1084.102,58.6799915 1084.708,56.9520088 1085.308,55.2 C1085.908,53.4479912 1086.484,51.7320084 1087.036,50.052 L1091.896,50.052 C1090.43199,54.3000212 1088.87201,58.5479788 1087.216,62.796 C1085.55999,67.0440212 1083.83201,71.1119806 1082.032,75 L1077.676,75 Z M1099.744,75 C1098.54399,72.5279876 1097.31401,69.690016 1096.054,66.486 C1094.79399,63.281984 1093.64801,59.8440184 1092.616,56.172 L1097.26,56.172 C1097.524,57.2280053 1097.83,58.3619939 1098.178,59.574 C1098.526,60.7860061 1098.898,61.9979939 1099.294,63.21 C1099.69,64.4220061 1100.098,65.5979943 1100.518,66.738 C1100.938,67.8780057 1101.328,68.9039954 1101.688,69.816 C1102.048,68.9039954 1102.432,67.8780057 1102.84,66.738 C1103.248,65.5979943 1103.65,64.4220061 1104.046,63.21 C1104.442,61.9979939 1104.82,60.7860061 1105.18,59.574 C1105.54,58.3619939 1105.852,57.2280053 1106.116,56.172 L1110.616,56.172 C1109.58399,59.8440184 1108.43801,63.281984 1107.178,66.486 C1105.91799,69.690016 1104.68801,72.5279876 1103.488,75 L1099.744,75 Z M1138.444,52.86 C1138.828,54.1560065 1139.236,55.505993 1139.668,56.91 C1140.1,58.314007 1140.55,59.717993 1141.018,61.122 C1141.486,62.526007 1141.954,63.9059932 1142.422,65.262 C1142.89,66.6180068 1143.34,67.895994 1143.772,69.096 C1144.132,67.7999935 1144.48,66.3900076 1144.816,64.866 C1145.152,63.3419924 1145.488,61.7580082 1145.824,60.114 C1146.16,58.4699918 1146.49,56.7960085 1146.814,55.092 C1147.138,53.3879915 1147.444,51.7080083 1147.732,50.052 L1152.412,50.052 C1151.572,54.5640226 1150.63601,58.9019792 1149.604,63.066 C1148.57199,67.2300208 1147.42001,71.207981 1146.148,75 L1141.828,75 C1139.95599,70.1519758 1138.14401,64.8600287 1136.392,59.124 C1135.504,62.0280145 1134.604,64.7879869 1133.692,67.404 C1132.78,70.0200131 1131.868,72.5519878 1130.956,75 L1126.636,75 C1125.33999,71.207981 1124.18201,67.2300208 1123.162,63.066 C1122.14199,58.9019792 1121.212,54.5640226 1120.372,50.052 L1125.232,50.052 C1125.52,51.6840082 1125.826,53.3519915 1126.15,55.056 C1126.474,56.7600085 1126.81,58.4339918 1127.158,60.078 C1127.506,61.7220082 1127.86,63.3119923 1128.22,64.848 C1128.58,66.3840077 1128.94,67.7999935 1129.3,69.096 C1129.756,67.8719939 1130.218,66.5820068 1130.686,65.226 C1131.154,63.8699932 1131.616,62.490007 1132.072,61.086 C1132.528,59.681993 1132.966,58.284007 1133.386,56.892 C1133.806,55.499993 1134.196,54.1560065 1134.556,52.86 L1138.444,52.86 Z M1167.244,63.156 C1166.692,65.2680106 1166.098,67.32599 1165.462,69.33 C1164.826,71.33401 1164.196,73.2239911 1163.572,75 L1160.008,75 C1159.528,73.8959945 1159.024,72.6360071 1158.496,71.22 C1157.968,69.8039929 1157.44,68.292008 1156.912,66.684 C1156.384,65.075992 1155.856,63.3840089 1155.328,61.608 C1154.8,59.8319911 1154.284,58.0200092 1153.78,56.172 L1158.388,56.172 C1158.604,57.180005 1158.856,58.2659942 1159.144,59.43 C1159.432,60.5940058 1159.732,61.7819939 1160.044,62.994 C1160.356,64.2060061 1160.68,65.3879942 1161.016,66.54 C1161.352,67.6920058 1161.688,68.7479952 1162.024,69.708 C1162.384,68.6039945 1162.738,67.4640059 1163.086,66.288 C1163.434,65.1119941 1163.764,63.9360059 1164.076,62.76 C1164.388,61.5839941 1164.682,60.4380056 1164.958,59.322 C1165.234,58.2059944 1165.48,57.1560049 1165.696,56.172 L1169.044,56.172 C1169.26,57.1560049 1169.5,58.2059944 1169.764,59.322 C1170.028,60.4380056 1170.31,61.5839941 1170.61,62.76 C1170.91,63.9360059 1171.234,65.1119941 1171.582,66.288 C1171.93,67.4640059 1172.284,68.6039945 1172.644,69.708 C1172.956,68.7479952 1173.28,67.6920058 1173.616,66.54 C1173.952,65.3879942 1174.282,64.2060061 1174.606,62.994 C1174.93,61.7819939 1175.236,60.5940058 1175.524,59.43 C1175.812,58.2659942 1176.064,57.180005 1176.28,56.172 L1180.78,56.172 C1180.276,58.0200092 1179.76,59.8319911 1179.232,61.608 C1178.704,63.3840089 1178.176,65.075992 1177.648,66.684 C1177.12,68.292008 1176.592,69.8039929 1176.064,71.22 C1175.536,72.6360071 1175.02,73.8959945 1174.516,75 L1170.988,75 C1170.364,73.2239911 1169.722,71.33401 1169.062,69.33 C1168.402,67.32599 1167.796,65.2680106 1167.244,63.156 Z M1207.492,75 C1206.796,73.5839929 1205.92001,72.0240085 1204.864,70.32 C1203.80799,68.6159915 1202.70401,66.9720079 1201.552,65.388 C1201.072,66.0120031 1200.55,66.7559957 1199.986,67.62 C1199.422,68.4840043 1198.858,69.3659955 1198.294,70.266 C1197.73,71.1660045 1197.208,72.0359958 1196.728,72.876 C1196.248,73.7160042 1195.864,74.4239971 1195.576,75 L1190.428,75 C1191.50801,72.9599898 1192.75599,70.8660107 1194.172,68.718 C1195.58801,66.5699893 1197.12399,64.3200118 1198.78,61.968 L1190.788,50.052 L1196.188,50.052 L1201.696,58.584 L1207.132,50.052 L1212.316,50.052 L1204.432,61.932 C1206.25601,64.4040124 1207.86999,66.743989 1209.274,68.952 C1210.67801,71.160011 1211.86,73.1759909 1212.82,75 L1207.492,75 Z M1223.512,62.328 L1227.508,56.172 L1232.08,56.172 L1225.888,65.064 C1227.18401,66.7440084 1228.42599,68.4419914 1229.614,70.158 C1230.80201,71.8740086 1231.78,73.4879924 1232.548,75 L1227.832,75 C1227.616,74.5439977 1227.334,74.0220029 1226.986,73.434 C1226.638,72.8459971 1226.266,72.2340032 1225.87,71.598 C1225.474,70.9619968 1225.06,70.3320031 1224.628,69.708 C1224.196,69.0839969 1223.776,68.4960028 1223.368,67.944 C1222.528,69.0240054 1221.706,70.2179935 1220.902,71.526 C1220.098,72.8340065 1219.432,73.991995 1218.904,75 L1214.44,75 C1214.8,74.2799964 1215.232,73.5120041 1215.736,72.696 C1216.24,71.8799959 1216.78,71.0460043 1217.356,70.194 C1217.932,69.3419957 1218.526,68.4900043 1219.138,67.638 C1219.75,66.7859957 1220.356,65.9760038 1220.956,65.208 L1214.728,56.172 L1219.516,56.172 L1223.512,62.328 Z M1252.78,61.104 C1253.86001,59.303991 1254.91599,57.4800092 1255.948,55.632 C1256.98001,53.7839908 1257.916,51.9240094 1258.756,50.052 L1263.796,50.052 C1262.45199,52.5960127 1261.05401,55.1219875 1259.602,57.63 C1258.14999,60.1380125 1256.59601,62.6639873 1254.94,65.208 L1254.94,75 L1250.404,75 L1250.404,65.28 C1248.74799,62.7119872 1247.18801,60.1680126 1245.724,57.648 C1244.25999,55.1279874 1242.85601,52.5960127 1241.512,50.052 L1246.84,50.052 C1247.68,51.9240094 1248.60399,53.7839908 1249.612,55.632 C1250.62001,57.4800092 1251.67599,59.303991 1252.78,61.104 Z M1281.724,56.172 C1279.77999,63.3240358 1277.52401,69.803971 1274.956,75.612 C1274.476,76.6920054 1273.984,77.6159962 1273.48,78.384 C1272.976,79.1520038 1272.412,79.7879975 1271.788,80.292 C1271.164,80.7960025 1270.468,81.1619989 1269.7,81.39 C1268.932,81.6180011 1268.04401,81.732 1267.036,81.732 C1266.364,81.732 1265.698,81.6600007 1265.038,81.516 C1264.378,81.3719993 1263.88,81.2160008 1263.544,81.048 L1264.336,77.556 C1265.2,77.8920017 1266.052,78.06 1266.892,78.06 C1268.02001,78.06 1268.902,77.7900027 1269.538,77.25 C1270.174,76.7099973 1270.732,75.8760056 1271.212,74.748 C1269.84399,72.1079868 1268.53001,69.2280156 1267.27,66.108 C1266.00999,62.9879844 1264.888,59.6760175 1263.904,56.172 L1268.548,56.172 C1268.788,57.180005 1269.082,58.2719941 1269.43,59.448 C1269.778,60.6240059 1270.156,61.8179939 1270.564,63.03 C1270.972,64.2420061 1271.404,65.447994 1271.86,66.648 C1272.316,67.848006 1272.772,68.9639948 1273.228,69.996 C1273.996,67.8599893 1274.716,65.5860121 1275.388,63.174 C1276.06,60.7619879 1276.672,58.4280113 1277.224,56.172 L1281.724,56.172 Z M1310.2,53.4 C1309.408,54.2640043 1308.44801,55.3859931 1307.32,56.766 C1306.19199,58.1460069 1305.02801,59.6459919 1303.828,61.266 C1302.62799,62.8860081 1301.44601,64.5539914 1300.282,66.27 C1299.11799,67.9860086 1298.092,69.6119923 1297.204,71.148 L1310.596,71.148 L1310.596,75 L1291.732,75 L1291.732,72.156 C1292.212,71.2679956 1292.77,70.3020052 1293.406,69.258 C1294.042,68.2139948 1294.72,67.1400055 1295.44,66.036 C1296.16,64.9319945 1296.91,63.8160056 1297.69,62.688 C1298.47,61.5599944 1299.244,60.4740052 1300.012,59.43 C1300.78,58.3859948 1301.53,57.3900047 1302.262,56.442 C1302.994,55.4939953 1303.684,54.6480037 1304.332,53.904 L1292.344,53.904 L1292.344,50.052 L1310.2,50.052 L1310.2,53.4 Z M1327.768,59.232 C1327.288,59.7360025 1326.658,60.4439954 1325.878,61.356 C1325.098,62.2680046 1324.264,63.2819944 1323.376,64.398 C1322.488,65.5140056 1321.594,66.6779939 1320.694,67.89 C1319.794,69.1020061 1318.984,70.2599945 1318.264,71.364 L1327.984,71.364 L1327.984,75 L1313.008,75 L1313.008,72.3 C1313.536,71.3399952 1314.196,70.2960056 1314.988,69.168 C1315.78,68.0399944 1316.596,66.9060057 1317.436,65.766 C1318.276,64.6259943 1319.11,63.5400052 1319.938,62.508 C1320.766,61.4759948 1321.504,60.5760038 1322.152,59.808 L1313.476,59.808 L1313.476,56.172 L1327.768,56.172 L1327.768,59.232 Z"/>
    <rect width="128" height="128" x="512" fill="url(#typeface-ubuntu-a)"/>
  </g>
</svg>
