<svg xmlns="http://www.w3.org/2000/svg" width="367" height="414" style="background:#fff" viewBox="0 0 367 414">
  <g fill="none" fill-rule="evenodd">
    <path fill="#0C0C0D" d="M53.6782227 52.8769531L43.8491211 52.8769531 41.6416016 59 38.4511719 59 47.4101562 35.5390625 50.1171875 35.5390625 59.0922852 59 55.9179688 59 53.6782227 52.8769531zM44.7836914 50.3310547L52.7597656 50.3310547 48.7636719 39.3579102 44.7836914 50.3310547zM70.4199219 59L70.4199219 35.5390625 78.0898438 35.5390625C80.6357549 35.5390625 82.5505307 36.0654244 83.8342285 37.1181641 85.1179263 38.1709037 85.7597656 39.7285053 85.7597656 41.7910156 85.7597656 42.8867242 85.4482453 43.856197 84.8251953 44.6994629 84.2021453 45.5427288 83.353521 46.1953102 82.2792969 46.6572266 83.5468813 47.0117205 84.5485803 47.685786 85.2844238 48.6794434 86.0202674 49.6731007 86.3881836 50.857415 86.3881836 52.2324219 86.3881836 54.3379012 85.7060615 55.9921815 84.3417969 57.1953125 82.9775322 58.3984435 81.0493289 59 78.5571289 59L70.4199219 59zM73.5136719 48.0268555L73.5136719 56.4702148 78.621582 56.4702148C80.0610424 56.4702148 81.1970173 56.0969276 82.029541 55.3503418 82.8620647 54.603756 83.2783203 53.5752019 83.2783203 52.2646484 83.2783203 49.439439 81.7422029 48.0268555 78.6699219 48.0268555L73.5136719 48.0268555zM73.5136719 45.5454102L78.1865234 45.5454102C79.5400458 45.5454102 80.6223104 45.2070346 81.4333496 44.5302734 82.2443888 43.8535122 82.6499023 42.9350644 82.6499023 41.7749023 82.6499023 40.4858334 82.2739295 39.5485869 81.5219727 38.9631348 80.7700158 38.3776826 79.6259842 38.0849609 78.0898438 38.0849609L73.5136719 38.0849609 73.5136719 45.5454102zM116.391113 51.5556641C116.101073 54.0371218 115.18531 55.9518976 113.643799 57.3000488 112.102287 58.6482001 110.053235 59.3222656 107.496582 59.3222656 104.725084 59.3222656 102.504159 58.3286232 100.83374 56.3413086 99.1633217 54.353994 98.328125 51.6953292 98.328125 48.3652344L98.328125 46.109375C98.328125 43.9287 98.7175254 42.0112387 99.4963379 40.3569336 100.27515 38.7026284 101.378899 37.4323775 102.807617 36.5461426 104.236335 35.6599077 105.890616 35.2167969 107.770508 35.2167969 110.262708 35.2167969 112.260735 35.9123466 113.764648 37.3034668 115.268562 38.694587 116.144042 40.6201049 116.391113 43.0800781L113.28125 43.0800781C113.012694 41.2109282 112.429936 39.8574261 111.532959 39.0195312 110.635982 38.1816364 109.381844 37.7626953 107.770508 37.7626953 105.793935 37.7626953 104.24439 38.4931568 103.121826 39.9541016 101.999262 41.4150464 101.437988 43.4936389 101.437988 46.1899414L101.437988 48.4619141C101.437988 51.0078252 101.969721 53.0327073 103.033203 54.5366211 104.096685 56.0405349 105.584463 56.7924805 107.496582 56.7924805 109.215341 56.7924805 110.533931 56.4030801 111.452393 55.6242676 112.370854 54.8454551 112.980467 53.4892675 113.28125 51.5556641L116.391113 51.5556641zM128.782227 59L128.782227 35.5390625 135.404785 35.5390625C137.445811 35.5390625 139.25048 35.9902299 140.818848 36.8925781 142.387215 37.7949264 143.598384 39.078605 144.452393 40.7436523 145.306401 42.4086997 145.738769 44.32079 145.749512 46.4799805L145.749512 47.9785156C145.749512 50.1914173 145.322514 52.1303628 144.468506 53.7954102 143.614498 55.4604575 142.395272 56.7387651 140.810791 57.6303711 139.22631 58.5219771 137.381358 58.9785155 135.275879 59L128.782227 59zM131.875977 38.0849609L131.875977 56.4702148 135.130859 56.4702148C137.515637 56.4702148 139.371331 55.7290113 140.697998 54.246582 142.024665 52.7641527 142.687988 50.653334 142.687988 47.9140625L142.687988 46.5444336C142.687988 43.8803578 142.062262 41.8098218 140.810791 40.3327637 139.55932 38.8557055 137.784191 38.1064454 135.485352 38.0849609L131.875977 38.0849609zM171.853027 48.1557617L161.685547 48.1557617 161.685547 56.4702148 173.496582 56.4702148 173.496582 59 158.591797 59 158.591797 35.5390625 173.335449 35.5390625 173.335449 38.0849609 161.685547 38.0849609 161.685547 45.6259766 171.853027 45.6259766 171.853027 48.1557617zM198.456055 48.6391602L188.61084 48.6391602 188.61084 59 185.51709 59 185.51709 35.5390625 200.05127 35.5390625 200.05127 38.0849609 188.61084 38.0849609 188.61084 46.109375 198.456055 46.109375 198.456055 48.6391602zM229.248535 55.9223633C228.453609 57.0610408 227.34449 57.9123507 225.921143 58.4763184 224.497796 59.040286 222.84083 59.3222656 220.950195 59.3222656 219.038076 59.3222656 217.340828 58.8737838 215.858398 57.9768066 214.375969 57.0798295 213.229252 55.8042075 212.418213 54.1499023 211.607174 52.4955972 211.190918 50.5781359 211.169434 48.3974609L211.169434 46.3510742C211.169434 42.8168769 211.993888 40.0776464 213.642822 38.1333008 215.291756 36.1889551 217.60936 35.2167969 220.595703 35.2167969 223.044934 35.2167969 225.016106 35.842523 226.509277 37.0939941 228.002449 38.3454652 228.915526 40.120594 229.248535 42.4194336L226.154785 42.4194336C225.574704 39.3149259 223.727066 37.7626953 220.611816 37.7626953 218.538564 37.7626953 216.967535 38.4904712 215.898682 39.9460449 214.829829 41.4016186 214.290039 43.5097518 214.279297 46.2705078L214.279297 48.1879883C214.279297 50.8198374 214.880853 52.9118575 216.083984 54.4641113 217.287115 56.0163652 218.914541 56.7924805 220.966309 56.7924805 222.126471 56.7924805 223.141597 56.6635755 224.011719 56.4057617 224.88184 56.1479479 225.60156 55.7128937 226.170898 55.1005859L226.170898 49.831543 220.740723 49.831543 220.740723 47.3178711 229.248535 47.3178711 229.248535 55.9223633zM260.60498 59L257.495117 59 257.495117 48.1557617 245.667969 48.1557617 245.667969 59 242.574219 59 242.574219 35.5390625 245.667969 35.5390625 245.667969 45.6259766 257.495117 45.6259766 257.495117 35.5390625 260.60498 35.5390625 260.60498 59zM277.588379 59L274.494629 59 274.494629 35.5390625 277.588379 35.5390625 277.588379 59zM302.552246 35.5390625L305.662109 35.5390625 305.662109 52.1518555C305.662109 54.3969839 304.988044 56.153314 303.639893 57.4208984 302.291741 58.6884829 300.495128 59.3222656 298.25 59.3222656 295.918934 59.3222656 294.103522 58.7260802 292.803711 57.5336914 291.5039 56.3413026 290.854004 54.6709092 290.854004 52.5224609L293.947754 52.5224609C293.947754 53.8652411 294.31567 54.9125939 295.051514 55.6645508 295.787357 56.4165077 296.853509 56.7924805 298.25 56.7924805 299.528327 56.7924805 300.562252 56.3896525 301.351807 55.5839844 302.141361 54.7783163 302.541504 53.6503979 302.552246 52.2001953L302.552246 35.5390625zM46.6850586 87.0913086L43.8168945 90.0722656 43.8168945 98 40.7231445 98 40.7231445 74.5390625 43.8168945 74.5390625 43.8168945 86.140625 54.2421875 74.5390625 57.9804688 74.5390625 48.7475586 84.8999023 58.7055664 98 54.9995117 98 46.6850586 87.0913086zM72.6918945 95.4702148L83.8100586 95.4702148 83.8100586 98 69.5820312 98 69.5820312 74.5390625 72.6918945 74.5390625 72.6918945 95.4702148zM99.5043945 74.5390625L107.174316 93.6816406 114.844238 74.5390625 118.856445 74.5390625 118.856445 98 115.762695 98 115.762695 88.8637695 116.052734 79.0024414 108.350586 98 105.981934 98 98.2958984 79.0507812 98.6020508 88.8637695 98.6020508 98 95.5083008 98 95.5083008 74.5390625 99.5043945 74.5390625zM150.519043 98L147.40918 98 135.598145 79.9208984 135.598145 98 132.488281 98 132.488281 74.5390625 135.598145 74.5390625 147.441406 92.6987305 147.441406 74.5390625 150.519043 74.5390625 150.519043 98zM182.22998 87.0268555C182.22998 89.3256951 181.843266 91.3317785 181.069824 93.045166 180.296383 94.7585535 179.200691 96.0664017 177.782715 96.96875 176.364739 97.8710983 174.710459 98.3222656 172.819824 98.3222656 170.972159 98.3222656 169.333992 97.8684127 167.905273 96.9606934 166.476555 96.052974 165.367436 94.7585533 164.577881 93.0773926 163.788326 91.3962318 163.382813 89.4492298 163.361328 87.2363281L163.361328 85.5444336C163.361328 83.2885629 163.753414 81.2959071 164.537598 79.5664062 165.321781 77.8369054 166.430901 76.512944 167.86499 75.5944824 169.299079 74.6760208 170.939932 74.2167969 172.787598 74.2167969 174.66749 74.2167969 176.324456 74.6706498 177.758545 75.5783691 179.192634 76.4860885 180.296383 77.8019933 181.069824 79.526123 181.843266 81.2502528 182.22998 83.2563362 182.22998 85.5444336L182.22998 87.0268555zM179.152344 85.512207C179.152344 82.7299666 178.593756 80.5949781 177.476562 79.1071777 176.359369 77.6193773 174.796397 76.8754883 172.787598 76.8754883 170.83251 76.8754883 169.293707 77.6193773 168.171143 79.1071777 167.048578 80.5949781 166.471192 82.660143 166.438965 85.3027344L166.438965 87.0268555C166.438965 89.723158 167.00561 91.8420333 168.138916 93.3835449 169.272222 94.9250565 170.83251 95.6958008 172.819824 95.6958008 174.817881 95.6958008 176.364741 94.9680249 177.460449 93.5124512 178.556158 92.0568775 179.120117 89.9702284 179.152344 87.2524414L179.152344 85.512207zM198.133789 88.8154297L198.133789 98 195.040039 98 195.040039 74.5390625 203.692871 74.5390625C206.260267 74.5390625 208.271721 75.1943294 209.727295 76.5048828 211.182869 77.8154362 211.910645 79.5502822 211.910645 81.7094727 211.910645 83.9868278 211.198982 85.7404724 209.775635 86.970459 208.352288 88.2004456 206.313978 88.8154297 203.660645 88.8154297L198.133789 88.8154297zM198.133789 86.2856445L203.692871 86.2856445C205.347176 86.2856445 206.614742 85.8962441 207.495605 85.1174316 208.376469 84.3386192 208.816895 83.2133863 208.816895 81.7416992 208.816895 80.3452079 208.376469 79.2280315 207.495605 78.3901367 206.614742 77.5522419 205.406258 77.1171877 203.870117 77.0849609L198.133789 77.0849609 198.133789 86.2856445zM241.945801 87.0268555C241.945801 89.2934684 241.585941 91.2458414 240.866211 92.8840332 240.146481 94.522225 239.136725 95.803218 237.836914 96.7270508L242.026367 100.01416 239.915527 101.963867 234.96875 98.0322266C234.195309 98.2255869 233.378911 98.3222656 232.519531 98.3222656 230.671866 98.3222656 229.033699 97.8684127 227.60498 96.9606934 226.176262 96.052974 225.067143 94.7585533 224.277588 93.0773926 223.488033 91.3962318 223.08252 89.4492298 223.061035 87.2363281L223.061035 85.5444336C223.061035 83.2885629 223.453121 81.2959071 224.237305 79.5664062 225.021488 77.8369054 226.130608 76.512944 227.564697 75.5944824 228.998786 74.6760208 230.639639 74.2167969 232.487305 74.2167969 234.377939 74.2167969 236.040276 74.6733353 237.474365 75.5864258 238.908454 76.4995163 240.012203 77.8127356 240.785645 79.526123 241.559086 81.2395105 241.945801 83.2402229 241.945801 85.5283203L241.945801 87.0268555zM238.852051 85.512207C238.852051 82.751451 238.301519 80.6218337 237.200439 79.123291 236.09936 77.6247484 234.528331 76.8754883 232.487305 76.8754883 230.542959 76.8754883 229.009527 77.6193773 227.886963 79.1071777 226.764399 80.5949781 226.187012 82.660143 226.154785 85.3027344L226.154785 87.0268555C226.154785 89.7124158 226.716059 91.8286055 227.838623 93.3754883 228.961187 94.922371 230.521474 95.6958008 232.519531 95.6958008 234.517588 95.6958008 236.064448 94.9680249 237.160156 93.5124512 238.255865 92.0568775 238.819824 89.9702284 238.852051 87.2524414L238.852051 85.512207zM263.489258 88.5092773L257.978516 88.5092773 257.978516 98 254.868652 98 254.868652 74.5390625 262.635254 74.5390625C265.277845 74.5390625 267.310784 75.140619 268.734131 76.34375 270.157478 77.546881 270.869141 79.2978401 270.869141 81.5966797 270.869141 83.0576245 270.474369 84.330561 269.684814 85.4155273 268.89526 86.5004937 267.796882 87.3115208 266.389648 87.8486328L271.900391 97.8066406 271.900391 98 268.581055 98 263.489258 88.5092773zM257.978516 85.9794922L262.731934 85.9794922C264.268074 85.9794922 265.489986 85.5820352 266.397705 84.7871094 267.305424 83.9921835 267.759277 82.9287176 267.759277 81.5966797 267.759277 80.1464771 267.326909 79.0346718 266.462158 78.2612305 265.597408 77.4877891 264.348641 77.0957032 262.71582 77.0849609L257.978516 77.0849609 257.978516 85.9794922zM290.285645 87.5424805C287.632311 86.7797813 285.701422 85.8425349 284.49292 84.7307129 283.284418 83.6188909 282.680176 82.2465902 282.680176 80.6137695 282.680176 78.766104 283.418694 77.2380432 284.895752 76.029541 286.37281 74.8210389 288.292957 74.2167969 290.65625 74.2167969 292.267586 74.2167969 293.704339 74.5283172 294.966553 75.1513672 296.228766 75.7744172 297.206295 76.6337836 297.89917 77.7294922 298.592044 78.8252008 298.938477 80.0229427 298.938477 81.3227539L295.828613 81.3227539C295.828613 79.9047781 295.377446 78.7902873 294.475098 77.979248 293.572749 77.1682088 292.299813 76.7626953 290.65625 76.7626953 289.130852 76.7626953 287.941166 77.0983853 287.087158 77.7697754 286.23315 78.4411655 285.806152 79.3730409 285.806152 80.5654297 285.806152 81.5214892 286.211666 82.3298307 287.022705 82.9904785 287.833744 83.6511264 289.214102 84.2553684 291.163818 84.8032227 293.113535 85.351077 294.638911 85.955319 295.73999 86.6159668 296.84107 87.2766146 297.657468 88.0473589 298.189209 88.9282227 298.72095 89.8090864 298.986816 90.8456972 298.986816 92.0380859 298.986816 93.9394626 298.245613 95.4621525 296.763184 96.6062012 295.280754 97.7502499 293.298841 98.3222656 290.817383 98.3222656 289.206047 98.3222656 287.702155 98.0134308 286.305664 97.395752 284.909173 96.7780731 283.832279 95.9321343 283.074951 94.8579102 282.317623 93.783686 281.938965 92.5644599 281.938965 91.2001953L285.048828 91.2001953C285.048828 92.6181712 285.572505 93.738033 286.619873 94.5598145 287.667242 95.3815959 289.066397 95.7924805 290.817383 95.7924805 292.450203 95.7924805 293.701656 95.459476 294.571777 94.793457 295.441899 94.1274381 295.876953 93.2197323 295.876953 92.0703125 295.876953 90.9208927 295.474125 90.0319856 294.668457 89.4035645 293.862789 88.7751433 292.401866 88.1547882 290.285645 87.5424805zM56.9331055 116.084961L49.3920898 116.084961 49.3920898 137 46.3144531 137 46.3144531 116.084961 38.7895508 116.084961 38.7895508 113.539062 56.9331055 113.539062 56.9331055 116.084961zM84.4545898 113.539062L84.4545898 129.491211C84.4438476 131.704113 83.7482979 133.514153 82.3679199 134.921387 80.9875419 136.32862 79.1157345 137.118163 76.7524414 137.290039L75.9306641 137.322266C73.3632684 137.322266 71.3169022 136.629401 69.7915039 135.243652 68.2661057 133.857903 67.4926759 131.951184 67.4711914 129.523438L67.4711914 113.539062 70.5327148 113.539062 70.5327148 129.426758C70.5327148 131.124032 70.9999953 132.442622 71.9345703 133.382568 72.8691453 134.322514 74.2011632 134.79248 75.9306641 134.79248 77.6816494 134.79248 79.0217239 134.3252 79.9509277 133.390625 80.8801316 132.45605 81.3447266 131.140145 81.3447266 129.442871L81.3447266 113.539062 84.4545898 113.539062zM105.272949 132.891113L111.976074 113.539062 115.359863 113.539062 106.658691 137 103.919434 137 95.234375 113.539062 98.6020508 113.539062 105.272949 132.891113zM131.730957 129.604004L132.182129 132.697754 132.842773 129.910156 137.483398 113.539062 140.09375 113.539062 144.621582 129.910156 145.266113 132.746094 145.765625 129.587891 149.407227 113.539062 152.51709 113.539062 146.829102 137 144.009277 137 139.175293 119.903809 138.804688 118.115234 138.434082 119.903809 133.422852 137 130.603027 137 124.931152 113.539062 128.024902 113.539062 131.730957 129.604004zM171.772461 122.530273L177.395996 113.539062 181.037598 113.539062 173.625488 125.172852 181.214844 137 177.541016 137 171.772461 127.847656 165.97168 137 162.313965 137 169.919434 125.172852 162.491211 113.539062 166.116699 113.539062 171.772461 122.530273zM200.131836 125.317871L206.254883 113.539062 209.767578 113.539062 201.678711 128.250488 201.678711 137 198.584961 137 198.584961 128.250488 190.496094 113.539062 194.041016 113.539062 200.131836 125.317871zM223.286621 134.470215L236.708984 134.470215 236.708984 137 219.628906 137 219.628906 134.679688 232.487305 116.084961 219.838379 116.084961 219.838379 113.539062 236.193359 113.539062 236.193359 115.811035 223.286621 134.470215zM251.758789 130.377441L249.067871 130.377441 248.858398 113.539062 251.984375 113.539062 251.758789 130.377441zM248.745605 135.501465C248.745605 135.018064 248.893309 134.61255 249.188721 134.284912 249.484132 133.957274 249.921872 133.793457 250.501953 133.793457 251.082034 133.793457 251.522459 133.957274 251.823242 134.284912 252.124025 134.61255 252.274414 135.018064 252.274414 135.501465 252.274414 135.984866 252.124025 136.385008 251.823242 136.701904 251.522459 137.0188 251.082034 137.177246 250.501953 137.177246 249.921872 137.177246 249.484132 137.0188 249.188721 136.701904 248.893309 136.385008 248.745605 135.984866 248.745605 135.501465zM260.411621 130.393555C260.433106 129.115228 260.578124 128.105472 260.84668 127.364258 261.115236 126.623043 261.663082 125.801274 262.490234 124.898926L264.601074 122.723633C265.503422 121.70312 265.95459 120.607428 265.95459 119.436523 265.95459 118.308588 265.659183 117.425052 265.068359 116.785889 264.477536 116.146725 263.61817 115.827148 262.490234 115.827148 261.394526 115.827148 260.513675 116.117185 259.847656 116.697266 259.181637 117.277347 258.848633 118.056147 258.848633 119.033691L255.867676 119.033691C255.88916 117.293448 256.509515 115.888921 257.72876 114.820068 258.948004 113.751215 260.535146 113.216797 262.490234 113.216797 264.520518 113.216797 266.102289 113.761957 267.235596 114.852295 268.368902 115.942632 268.935547 117.438467 268.935547 119.339844 268.935547 121.219736 268.065438 123.072745 266.325195 124.898926L264.568848 126.63916C263.784664 127.509282 263.392578 128.760734 263.392578 130.393555L260.411621 130.393555zM260.282715 135.501465C260.282715 135.018064 260.430418 134.61255 260.72583 134.284912 261.021242 133.957274 261.458981 133.793457 262.039062 133.793457 262.619144 133.793457 263.059569 133.957274 263.360352 134.284912 263.661134 134.61255 263.811523 135.018064 263.811523 135.501465 263.811523 135.984866 263.661134 136.385008 263.360352 136.701904 263.059569 137.0188 262.619144 137.177246 262.039062 137.177246 261.458981 137.177246 261.021242 137.0188 260.72583 136.701904 260.430418 136.385008 260.282715 135.984866 260.282715 135.501465zM273.092773 139.01416L270.530762 139.01416 280.327637 113.539062 282.873535 113.539062 273.092773 139.01416zM286.160645 135.437012C286.160645 134.921384 286.313719 134.491701 286.619873 134.147949 286.926027 133.804197 287.385251 133.632324 287.997559 133.632324 288.609866 133.632324 289.074461 133.804197 289.391357 134.147949 289.708254 134.491701 289.866699 134.921384 289.866699 135.437012 289.866699 135.931155 289.708254 136.344725 289.391357 136.677734 289.074461 137.010744 288.609866 137.177246 287.997559 137.177246 287.385251 137.177246 286.926027 137.010744 286.619873 136.677734 286.313719 136.344725 286.160645 135.931155 286.160645 135.437012zM294.68457 141.672852L292.992676 140.512695C294.002446 139.105462 294.528808 137.655281 294.571777 136.162109L294.571777 133.471191 297.488281 133.471191 297.488281 135.807617C297.488281 136.892584 297.222415 137.977534 296.690674 139.0625 296.158933 140.147466 295.490238 141.017575 294.68457 141.672852zM301.162109 135.437012C301.162109 134.921384 301.315184 134.491701 301.621338 134.147949 301.927492 133.804197 302.386716 133.632324 302.999023 133.632324 303.611331 133.632324 304.075926 133.804197 304.392822 134.147949 304.709718 134.491701 304.868164 134.921384 304.868164 135.437012 304.868164 135.931155 304.709718 136.344725 304.392822 136.677734 304.075926 137.010744 303.611331 137.177246 302.999023 137.177246 302.386716 137.177246 301.927492 137.010744 301.621338 136.677734 301.315184 136.344725 301.162109 135.931155 301.162109 135.437012zM301.178223 121.208984C301.178223 120.693357 301.331297 120.263674 301.637451 119.919922 301.943605 119.57617 302.402829 119.404297 303.015137 119.404297 303.627444 119.404297 304.092039 119.57617 304.408936 119.919922 304.725832 120.263674 304.884277 120.693357 304.884277 121.208984 304.884277 121.703127 304.725832 122.116698 304.408936 122.449707 304.092039 122.782717 303.627444 122.949219 303.015137 122.949219 302.402829 122.949219 301.943605 122.782717 301.637451 122.449707 301.331297 122.116698 301.178223 121.703127 301.178223 121.208984zM308.783691 121.208984C308.783691 120.693357 308.936766 120.263674 309.24292 119.919922 309.549074 119.57617 310.008298 119.404297 310.620605 119.404297 311.232913 119.404297 311.697508 119.57617 312.014404 119.919922 312.3313 120.263674 312.489746 120.693357 312.489746 121.208984 312.489746 121.703127 312.3313 122.116698 312.014404 122.449707 311.697508 122.782717 311.232913 122.949219 310.620605 122.949219 310.008298 122.949219 309.549074 122.782717 309.24292 122.449707 308.936766 122.116698 308.783691 121.703127 308.783691 121.208984zM309.347656 141.672852L307.655762 140.512695C308.665532 139.105462 309.191894 137.655281 309.234863 136.162109L309.234863 133.471191 312.151367 133.471191 312.151367 135.807617C312.151367 136.892584 311.885501 137.977534 311.35376 139.0625 310.822019 140.147466 310.153324 141.017575 309.347656 141.672852zM51.0195312 195C50.8476554 194.656248 50.7080083 194.04395 50.6005859 193.163086 49.2148368 194.602546 47.5605565 195.322266 45.6376953 195.322266 43.9189367 195.322266 42.5090387 194.836187 41.407959 193.864014 40.3068793 192.891841 39.7563477 191.659187 39.7563477 190.166016 39.7563477 188.350577 40.4465263 186.940679 41.8269043 185.936279 43.2072823 184.93188 45.1489133 184.429688 47.6518555 184.429688L50.5522461 184.429688 50.5522461 183.060059C50.5522461 182.018061 50.2407258 181.188236 49.6176758 180.570557 48.9946258 179.952878 48.0761779 179.644043 46.8623047 179.644043 45.7988228 179.644043 44.9072302 179.912595 44.1875 180.449707 43.4677698 180.986819 43.1079102 181.636715 43.1079102 182.399414L40.1108398 182.399414C40.1108398 181.529293 40.4196746 180.688725 41.0373535 179.877686 41.6550324 179.066646 42.4929146 178.424807 43.5510254 177.952148 44.6091361 177.47949 45.7719663 177.243164 47.0395508 177.243164 49.0483499 177.243164 50.6220646 177.745356 51.7607422 178.749756 52.8994198 179.754155 53.4902342 181.137198 53.5332031 182.898926L53.5332031 190.92334C53.5332031 192.523934 53.7373026 193.79687 54.1455078 194.742188L54.1455078 195 51.0195312 195zM46.0727539 192.728027C47.0073289 192.728027 47.8935505 192.486331 48.7314453 192.00293 49.5693401 191.519529 50.1762677 190.891117 50.5522461 190.117676L50.5522461 186.540527 48.2158203 186.540527C44.5634583 186.540527 42.7373047 187.609364 42.7373047 189.74707 42.7373047 190.681645 43.048825 191.412107 43.671875 191.938477 44.294925 192.464846 45.09521 192.728027 46.0727539 192.728027zM83.015625 186.476074C83.015625 189.14015 82.4033264 191.280509 81.1787109 192.897217 79.9540954 194.513924 78.3105572 195.322266 76.2480469 195.322266 74.0458874 195.322266 72.3432677 194.543465 71.1401367 192.98584L70.9951172 195 68.2558594 195 68.2558594 170.25 71.2368164 170.25 71.2368164 179.48291C72.4399474 177.989739 74.0995988 177.243164 76.2158203 177.243164 78.3320418 177.243164 79.9943787 178.043449 81.2028809 179.644043 82.411383 181.244637 83.015625 183.436021 83.015625 186.218262L83.015625 186.476074zM80.034668 186.137695C80.034668 184.107412 79.642582 182.539068 78.8583984 181.432617 78.0742148 180.326166 76.9462964 179.772949 75.4746094 179.772949 73.5087792 179.772949 72.0961957 180.686026 71.2368164 182.512207L71.2368164 190.053223C72.1499069 191.879404 73.5732325 192.79248 75.5068359 192.79248 76.935554 192.79248 78.0473593 192.239263 78.8422852 191.132812 79.637211 190.026362 80.034668 188.361339 80.034668 186.137695zM103.249023 192.88916C104.312505 192.88916 105.241695 192.566898 106.036621 191.922363 106.831547 191.277829 107.271972 190.472173 107.35791 189.505371L110.177734 189.505371C110.124023 190.5044 109.780277 191.455074 109.146484 192.357422 108.512692 193.25977 107.666753 193.97949 106.608643 194.516602 105.550532 195.053714 104.43067 195.322266 103.249023 195.322266 100.874988 195.322266 98.9870676 194.530037 97.5852051 192.945557 96.1833426 191.361076 95.4824219 189.193861 95.4824219 186.443848L95.4824219 185.944336C95.4824219 184.247062 95.7939422 182.7378 96.4169922 181.416504 97.0400422 180.095208 97.9343203 179.06934 99.0998535 178.338867 100.265387 177.608395 101.643058 177.243164 103.23291 177.243164 105.187998 177.243164 106.812738 177.828607 108.107178 178.999512 109.401618 180.170416 110.091796 181.69042 110.177734 183.55957L107.35791 183.55957C107.271972 182.431635 106.844975 181.505131 106.076904 180.780029 105.308834 180.054928 104.360845 179.692383 103.23291 179.692383 101.718254 179.692383 100.544682 180.237543 99.7121582 181.327881 98.8796345 182.418218 98.4633789 183.994619 98.4633789 186.057129L98.4633789 186.621094C98.4633789 188.629893 98.876949 190.176752 99.7041016 191.261719 100.531254 192.346685 101.712883 192.88916 103.249023 192.88916zM120.973633 186.137695C120.973633 183.462877 121.607416 181.311776 122.875 179.684326 124.142584 178.056877 125.802236 177.243164 127.854004 177.243164 129.89503 177.243164 131.511713 177.941399 132.704102 179.337891L132.704102 170.25 135.685059 170.25 135.685059 195 132.945801 195 132.800781 193.130859C131.608392 194.591804 129.948741 195.322266 127.821777 195.322266 125.802236 195.322266 124.156012 194.495125 122.883057 192.84082 121.610101 191.186515 120.973633 189.027357 120.973633 186.363281L120.973633 186.137695zM123.95459 186.476074C123.95459 188.452647 124.362789 189.999506 125.179199 191.116699 125.99561 192.233892 127.123528 192.79248 128.562988 192.79248 130.453623 192.79248 131.83398 191.943856 132.704102 190.246582L132.704102 182.238281C131.812496 180.594718 130.44288 179.772949 128.595215 179.772949 127.13427 179.772949 125.99561 180.336908 125.179199 181.464844 124.362789 182.592779 123.95459 184.263173 123.95459 186.476074zM155.713867 195.322266C153.350574 195.322266 151.427742 194.54615 149.945312 192.993896 148.462883 191.441643 147.72168 189.365736 147.72168 186.766113L147.72168 186.218262C147.72168 184.488761 148.051999 182.944587 148.712646 181.585693 149.373294 180.2268 150.297113 179.163334 151.484131 178.395264 152.671149 177.627193 153.957513 177.243164 155.343262 177.243164 157.609875 177.243164 159.371576 177.989739 160.628418 179.48291 161.88526 180.976082 162.513672 183.113756 162.513672 185.895996L162.513672 187.136719 150.702637 187.136719C150.745606 188.855477 151.247798 190.243891 152.209229 191.302002 153.170659 192.360113 154.392571 192.88916 155.875 192.88916 156.92774 192.88916 157.819332 192.674319 158.549805 192.244629 159.280277 191.814939 159.919431 191.245609 160.467285 190.536621L162.288086 191.95459C160.827141 194.199718 158.635757 195.322266 155.713867 195.322266zM155.343262 179.692383C154.140131 179.692383 153.130375 180.130123 152.313965 181.005615 151.497555 181.881108 150.992677 183.108391 150.799316 184.6875L159.532715 184.6875 159.532715 184.461914C159.446777 182.947258 159.038578 181.773686 158.308105 180.941162 157.577633 180.108638 156.589362 179.692383 155.343262 179.692383zM175.597656 195L175.597656 179.869629 172.842285 179.869629 172.842285 177.56543 175.597656 177.56543 175.597656 175.776855C175.597656 173.907705 176.097163 172.462896 177.096191 171.442383 178.09522 170.42187 179.507803 169.911621 181.333984 169.911621 182.021488 169.911621 182.70361 170.002929 183.380371 170.185547L183.219238 172.602539C182.714353 172.505859 182.177249 172.45752 181.60791 172.45752 180.641108 172.45752 179.894534 172.739499 179.368164 173.303467 178.841794 173.867434 178.578613 174.675776 178.578613 175.728516L178.578613 177.56543 182.300781 177.56543 182.300781 179.869629 178.578613 179.869629 178.578613 195 175.597656 195zM193.04834 186.137695C193.04834 183.419908 193.676752 181.258065 194.933594 179.6521 196.190436 178.046135 197.855458 177.243164 199.928711 177.243164 202.055675 177.243164 203.715326 177.99511 204.907715 179.499023L205.052734 177.56543 207.775879 177.56543 207.775879 194.581055C207.775879 196.836925 207.107184 198.61474 205.769775 199.914551 204.432366 201.214362 202.635753 201.864258 200.379883 201.864258 199.123041 201.864258 197.893072 201.595706 196.689941 201.058594 195.48681 200.521482 194.568363 199.785649 193.93457 198.851074L195.481445 197.0625C196.759772 198.641609 198.322745 199.431152 200.17041 199.431152 201.620613 199.431152 202.751217 199.022953 203.562256 198.206543 204.373295 197.390133 204.778809 196.24073 204.778809 194.758301L204.778809 193.259766C203.58642 194.634772 201.958995 195.322266 199.896484 195.322266 197.855459 195.322266 196.203864 194.500496 194.94165 192.856934 193.679437 191.213371 193.04834 188.973647 193.04834 186.137695zM196.04541 186.476074C196.04541 188.441904 196.448238 189.986078 197.253906 191.108643 198.059574 192.231207 199.187493 192.79248 200.637695 192.79248 202.517588 192.79248 203.897945 191.938485 204.778809 190.230469L204.778809 182.270508C203.865718 180.60546 202.496103 179.772949 200.669922 179.772949 199.219719 179.772949 198.08643 180.336908 197.27002 181.464844 196.453609 182.592779 196.04541 184.263173 196.04541 186.476074zM223.421875 179.67627C224.743171 178.054191 226.461903 177.243164 228.578125 177.243164 232.262714 177.243164 234.121094 179.321757 234.15332 183.479004L234.15332 195 231.172363 195 231.172363 183.462891C231.161621 182.206048 230.87427 181.276858 230.310303 180.675293 229.746335 180.073727 228.86817 179.772949 227.675781 179.772949 226.70898 179.772949 225.860355 180.030759 225.129883 180.546387 224.39941 181.062014 223.83008 181.738765 223.421875 182.57666L223.421875 195 220.440918 195 220.440918 170.25 223.421875 170.25 223.421875 179.67627zM250.024902 195L247.043945 195 247.043945 177.56543 250.024902 177.56543 250.024902 195zM246.802246 172.940918C246.802246 172.457517 246.94995 172.049318 247.245361 171.716309 247.540773 171.383299 247.978513 171.216797 248.558594 171.216797 249.138675 171.216797 249.5791 171.383299 249.879883 171.716309 250.180666 172.049318 250.331055 172.457517 250.331055 172.940918 250.331055 173.424319 250.180666 173.827147 249.879883 174.149414 249.5791 174.471681 249.138675 174.632812 248.558594 174.632812 247.978513 174.632812 247.540773 174.471681 247.245361 174.149414 246.94995 173.827147 246.802246 173.424319 246.802246 172.940918zM266.041504 177.56543L266.041504 197.01416C266.041504 200.365739 264.5215 202.041504 261.481445 202.041504 260.826169 202.041504 260.219241 201.944825 259.660645 201.751465L259.660645 199.366699C260.004396 199.452637 260.455564 199.495605 261.01416 199.495605 261.680179 199.495605 262.187742 199.315676 262.536865 198.955811 262.885988 198.595945 263.060547 197.970219 263.060547 197.078613L263.060547 177.56543 266.041504 177.56543zM262.754395 172.940918C262.754395 172.468259 262.902098 172.062746 263.19751 171.724365 263.492921 171.385985 263.92529 171.216797 264.494629 171.216797 265.07471 171.216797 265.515135 171.383299 265.815918 171.716309 266.116701 172.049318 266.26709 172.457517 266.26709 172.940918 266.26709 173.424319 266.116701 173.827147 265.815918 174.149414 265.515135 174.471681 265.07471 174.632812 264.494629 174.632812 263.914548 174.632812 263.479494 174.471681 263.189453 174.149414 262.899413 173.827147 262.754395 173.424319 262.754395 172.940918zM283.878906 186.927246L282.009766 188.876953 282.009766 195 279.028809 195 279.028809 170.25 282.009766 170.25 282.009766 185.219238 283.60498 183.301758 289.035156 177.56543 292.660645 177.56543 285.876953 184.848633 293.450195 195 289.953613 195 283.878906 186.927246zM307.146484 195L304.165527 195 304.165527 170.25 307.146484 170.25 307.146484 195zM43.0595703 216.56543L43.1401367 218.499023C44.4184634 216.99511 46.1425673 216.243164 48.3125 216.243164 50.7509888 216.243164 52.4106401 217.177725 53.2915039 219.046875 53.8715849 218.20898 54.6262161 217.532229 55.5554199 217.016602 56.4846238 216.500974 57.5830015 216.243164 58.8505859 216.243164 62.6748238 216.243164 64.6191403 218.268046 64.6835938 222.317871L64.6835938 234 61.7026367 234 61.7026367 222.495117C61.7026367 221.249017 61.4179716 220.317142 60.8486328 219.699463 60.279294 219.081784 59.3232489 218.772949 57.9804688 218.772949 56.8740179 218.772949 55.9555701 219.103268 55.2250977 219.763916 54.4946253 220.424564 54.0703131 221.313471 53.9521484 222.430664L53.9521484 234 50.9550781 234 50.9550781 222.575684C50.9550781 220.040515 49.7143679 218.772949 47.2329102 218.772949 45.2778223 218.772949 43.9404333 219.60546 43.2207031 221.270508L43.2207031 234 40.2397461 234 40.2397461 216.56543 43.0595703 216.56543zM80.168457 216.56543L80.2651367 218.756836C81.5971746 217.081046 83.3373916 216.243164 85.4858398 216.243164 89.1704286 216.243164 91.0288084 218.321757 91.0610352 222.479004L91.0610352 234 88.0800781 234 88.0800781 222.462891C88.0693359 221.206048 87.7819852 220.276858 87.2180176 219.675293 86.6540499 219.073727 85.7758849 218.772949 84.5834961 218.772949 83.6166944 218.772949 82.7680701 219.030759 82.0375977 219.546387 81.3071253 220.062014 80.737795 220.738765 80.3295898 221.57666L80.3295898 234 77.3486328 234 77.3486328 216.56543 80.168457 216.56543zM102.936523 225.121582C102.936523 223.413566 103.272213 221.877448 103.943604 220.513184 104.614994 219.148919 105.549555 218.096195 106.747314 217.35498 107.945074 216.613766 109.312004 216.243164 110.848145 216.243164 113.22218 216.243164 115.142327 217.064933 116.608643 218.708496 118.074959 220.352059 118.808105 222.538072 118.808105 225.266602L118.808105 225.476074C118.808105 227.173348 118.483158 228.696038 117.833252 230.044189 117.183346 231.392341 116.254156 232.442379 115.045654 233.194336 113.837152 233.946293 112.448738 234.322266 110.880371 234.322266 108.517078 234.322266 106.602302 233.500496 105.135986 231.856934 103.66967 230.213371 102.936523 228.038099 102.936523 225.331055L102.936523 225.121582zM105.933594 225.476074C105.933594 227.409678 106.382076 228.961908 107.279053 230.132812 108.17603 231.303717 109.376457 231.88916 110.880371 231.88916 112.395027 231.88916 113.59814 231.29566 114.489746 230.108643 115.381352 228.921625 115.827148 227.259288 115.827148 225.121582 115.827148 223.209463 115.373296 221.659918 114.465576 220.4729 113.557857 219.285883 112.352058 218.692383 110.848145 218.692383 109.376457 218.692383 108.189458 219.277826 107.287109 220.44873 106.384761 221.619635 105.933594 223.295399 105.933594 225.476074zM145.443359 225.476074C145.443359 228.129408 144.836432 230.267082 143.622559 231.88916 142.408685 233.511239 140.765147 234.322266 138.691895 234.322266 136.575673 234.322266 134.910651 233.650886 133.696777 232.308105L133.696777 240.703125 130.71582 240.703125 130.71582 216.56543 133.438965 216.56543 133.583984 218.499023C134.797858 216.99511 136.484364 216.243164 138.643555 216.243164 140.738292 216.243164 142.395258 217.032707 143.614502 218.611816 144.833746 220.190926 145.443359 222.387681 145.443359 225.202148L145.443359 225.476074zM142.462402 225.137695C142.462402 223.171865 142.043461 221.619635 141.205566 220.480957 140.367672 219.342279 139.218269 218.772949 137.757324 218.772949 135.952628 218.772949 134.599126 219.573234 133.696777 221.173828L133.696777 229.504395C134.588383 231.094246 135.952628 231.88916 137.789551 231.88916 139.218269 231.88916 140.354244 231.322515 141.19751 230.189209 142.040776 229.055903 142.462402 227.372081 142.462402 225.137695zM156.674316 225.137695C156.674316 222.398424 157.302728 220.231209 158.55957 218.635986 159.816413 217.040764 161.502919 216.243164 163.619141 216.243164 165.681651 216.243164 167.309076 216.936028 168.501465 218.321777L168.630371 216.56543 171.369629 216.56543 171.369629 240.703125 168.388672 240.703125 168.388672 232.388672C167.185541 233.677741 165.584971 234.322266 163.586914 234.322266 161.481435 234.322266 159.802985 233.503182 158.551514 231.86499 157.300043 230.226798 156.674316 228.054213 156.674316 225.347168L156.674316 225.137695zM159.655273 225.476074C159.655273 227.474131 160.0769 229.042475 160.920166 230.181152 161.763432 231.31983 162.899407 231.88916 164.328125 231.88916 166.100595 231.88916 167.454097 231.104988 168.388672 229.536621L168.388672 220.996582C167.443355 219.460442 166.100595 218.692383 164.360352 218.692383 162.920891 218.692383 161.77686 219.264399 160.928223 220.408447 160.079586 221.552496 159.655273 223.241688 159.655273 225.476074zM192.751953 219.240234C192.300779 219.165039 191.812014 219.127441 191.285645 219.127441 189.330557 219.127441 188.00391 219.959953 187.305664 221.625L187.305664 234 184.324707 234 184.324707 216.56543 187.225098 216.56543 187.273438 218.57959C188.250981 217.021965 189.63671 216.243164 191.430664 216.243164 192.010745 216.243164 192.45117 216.318359 192.751953 216.46875L192.751953 219.240234zM213.812012 229.375488C213.812012 228.56982 213.508548 227.944094 212.901611 227.498291 212.294675 227.052488 211.23658 226.668459 209.727295 226.346191 208.21801 226.023924 207.020268 225.637209 206.134033 225.186035 205.247798 224.734861 204.592531 224.197757 204.168213 223.574707 203.743894 222.951657 203.531738 222.210454 203.531738 221.351074 203.531738 219.922356 204.13598 218.713872 205.344482 217.725586 206.552985 216.7373 208.097159 216.243164 209.977051 216.243164 211.953623 216.243164 213.556879 216.753413 214.786865 217.773926 216.016852 218.794439 216.631836 220.099601 216.631836 221.689453L213.634766 221.689453C213.634766 220.873043 213.288334 220.169437 212.595459 219.578613 211.902584 218.98779 211.02979 218.692383 209.977051 218.692383 208.892084 218.692383 208.04346 218.928709 207.431152 219.401367 206.818845 219.874026 206.512695 220.491695 206.512695 221.254395 206.512695 221.974125 206.79736 222.5166 207.366699 222.881836 207.936038 223.247072 208.964592 223.59619 210.452393 223.929199 211.940193 224.262209 213.145991 224.659666 214.069824 225.121582 214.993657 225.583498 215.678465 226.139401 216.124268 226.789307 216.570071 227.439212 216.792969 228.231441 216.792969 229.166016 216.792969 230.723641 216.169928 231.972407 214.923828 232.912354 213.677728 233.8523 212.061045 234.322266 210.07373 234.322266 208.677239 234.322266 207.4419 234.075198 206.367676 233.581055 205.293452 233.086912 204.452884 232.396733 203.845947 231.510498 203.239011 230.624263 202.935547 229.665532 202.935547 228.634277L205.916504 228.634277C205.970215 229.633306 206.370358 230.425534 207.116943 231.010986 207.863529 231.596438 208.849115 231.88916 210.07373 231.88916 211.201666 231.88916 212.106686 231.660891 212.788818 231.204346 213.470951 230.7478 213.812012 230.138187 213.812012 229.375488zM232.890137 212.34375L232.890137 216.56543 236.14502 216.56543 236.14502 218.869629 232.890137 218.869629 232.890137 229.681641C232.890137 230.379886 233.035155 230.903563 233.325195 231.252686 233.615236 231.601808 234.109372 231.776367 234.807617 231.776367 235.151369 231.776367 235.62402 231.711915 236.225586 231.583008L236.225586 234C235.441402 234.214845 234.678715 234.322266 233.9375 234.322266 232.605462 234.322266 231.601078 233.919438 230.924316 233.11377 230.247555 232.308101 229.90918 231.16407 229.90918 229.681641L229.90918 218.869629 226.734863 218.869629 226.734863 216.56543 229.90918 216.56543 229.90918 212.34375 232.890137 212.34375zM258.558594 232.275879C257.398432 233.640144 255.695812 234.322266 253.450684 234.322266 251.592276 234.322266 250.177007 233.782476 249.204834 232.702881 248.232661 231.623286 247.741211 230.025401 247.730469 227.90918L247.730469 216.56543 250.711426 216.56543 250.711426 227.828613C250.711426 230.471205 251.785634 231.79248 253.934082 231.79248 256.211437 231.79248 257.72607 230.943856 258.478027 229.246582L258.478027 216.56543 261.458984 216.56543 261.458984 234 258.623047 234 258.558594 232.275879zM279.908691 229.955566L284.227051 216.56543 287.272461 216.56543 281.020508 234 278.748535 234 272.432129 216.56543 275.477539 216.56543 279.908691 229.955566zM55.6923828 268.891113L59.0439453 255.56543 62.0249023 255.56543 56.9492188 273 54.5322266 273 50.2944336 259.787109 46.1694336 273 43.7524414 273 38.6928711 255.56543 41.6577148 255.56543 45.0898438 268.617188 49.1503906 255.56543 51.5512695 255.56543 55.6923828 268.891113zM79.0727539 261.930176L82.9399414 255.56543 86.4204102 255.56543 80.7163086 264.186035 86.5976562 273 83.1494141 273 79.1210938 266.474121 75.0927734 273 71.628418 273 77.5097656 264.186035 71.8056641 255.56543 75.2539062 255.56543 79.0727539 261.930176zM103.452148 268.633301L107.512695 255.56543 110.703125 255.56543 103.693848 275.690918C102.608881 278.591323 100.884777 280.041504 98.5214844 280.041504L97.9575195 279.993164 96.8457031 279.783691 96.8457031 277.366699 97.6513672 277.431152C98.6611379 277.431152 99.4479952 277.227053 100.011963 276.818848 100.575931 276.410642 101.040526 275.664068 101.405762 274.579102L102.066406 272.806641 95.8466797 255.56543 99.1015625 255.56543 103.452148 268.633301zM124.334961 270.566895L134.534668 270.566895 134.534668 273 120.693359 273 120.693359 270.808594 130.312988 258.030762 120.838379 258.030762 120.838379 255.56543 134.05127 255.56543 134.05127 257.67627 124.334961 270.566895zM49.746582 346L46.7495117 346 46.7495117 326.132324 40.7392578 328.339844 40.7392578 325.632812 49.2792969 322.42627 49.746582 322.42627 49.746582 346zM82.0214844 346L66.6494141 346 66.6494141 343.856934 74.7705078 334.833496C75.9736388 333.469231 76.8034645 332.360112 77.2600098 331.506104 77.716555 330.652095 77.9448242 329.768559 77.9448242 328.855469 77.9448242 327.630853 77.5742225 326.626469 76.8330078 325.842285 76.0917932 325.058102 75.1035218 324.666016 73.8681641 324.666016 72.3857348 324.666016 71.2336467 325.087642 70.4118652 325.930908 69.5900838 326.774174 69.1791992 327.947746 69.1791992 329.45166L66.1982422 329.45166C66.1982422 327.29247 66.8937919 325.546882 68.2849121 324.214844 69.6760323 322.882806 71.5370977 322.216797 73.8681641 322.216797 76.048839 322.216797 77.7729429 322.788813 79.0405273 323.932861 80.3081118 325.07691 80.9418945 326.5996 80.9418945 328.500977 80.9418945 330.810558 79.4702296 333.560531 76.5268555 336.750977L70.2426758 343.566895 82.0214844 343.566895 82.0214844 346zM97.6835938 332.819336L99.9233398 332.819336C101.330573 332.797851 102.437008 332.42725 103.242676 331.70752 104.048344 330.987789 104.451172 330.015631 104.451172 328.791016 104.451172 326.041002 103.081557 324.666016 100.342285 324.666016 99.0532162 324.666016 98.024662 325.033932 97.2565918 325.769775 96.4885216 326.505619 96.1044922 327.480463 96.1044922 328.694336L93.1235352 328.694336C93.1235352 326.835928 93.8029717 325.291754 95.1618652 324.061768 96.5207587 322.831781 98.2475481 322.216797 100.342285 322.216797 102.555187 322.216797 104.290033 322.80224 105.546875 323.973145 106.803717 325.144049 107.432129 326.771474 107.432129 328.855469 107.432129 329.875982 107.10181 330.864253 106.441162 331.820312 105.780514 332.776372 104.880865 333.49072 103.742188 333.963379 105.031256 334.371584 106.027584 335.048335 106.731201 335.993652 107.434818 336.93897 107.786621 338.093743 107.786621 339.458008 107.786621 341.563487 107.099128 343.233881 105.724121 344.469238 104.349114 345.704596 102.560558 346.322266 100.358398 346.322266 98.156239 346.322266 96.3649971 345.72608 94.9846191 344.533691 93.6042411 343.341303 92.9140625 341.767588 92.9140625 339.8125L95.9111328 339.8125C95.9111328 341.047858 96.3139608 342.036129 97.1196289 342.777344 97.925297 343.518558 99.004876 343.88916 100.358398 343.88916 101.797859 343.88916 102.898922 343.513187 103.661621 342.76123 104.42432 342.009274 104.805664 340.929695 104.805664 339.522461 104.805664 338.158196 104.386723 337.110843 103.548828 336.380371 102.710933 335.649899 101.502449 335.273926 99.9233398 335.252441L97.6835938 335.252441 97.6835938 332.819336zM132.633301 338.120605L135.888184 338.120605 135.888184 340.553711 132.633301 340.553711 132.633301 346 129.63623 346 129.63623 340.553711 118.953125 340.553711 118.953125 338.797363 129.458984 322.539062 132.633301 322.539062 132.633301 338.120605zM122.336914 338.120605L129.63623 338.120605 129.63623 326.615723 129.281738 327.260254 122.336914 338.120605zM148.118164 334.237305L149.310547 322.539062 161.331055 322.539062 161.331055 325.294434 151.840332 325.294434 151.131348 331.691406C152.280767 331.014645 153.58593 330.67627 155.046875 330.67627 157.184581 330.67627 158.88183 331.382561 160.138672 332.795166 161.395514 334.207771 162.023926 336.117175 162.023926 338.523438 162.023926 340.940442 161.371344 342.844475 160.066162 344.235596 158.76098 345.626716 156.937512 346.322266 154.595703 346.322266 152.522451 346.322266 150.830573 345.747564 149.52002 344.598145 148.209466 343.448725 147.462892 341.858897 147.280273 339.828613L150.100098 339.828613C150.282716 341.171393 150.760738 342.183834 151.53418 342.865967 152.307621 343.548099 153.328119 343.88916 154.595703 343.88916 155.981452 343.88916 157.069088 343.416509 157.858643 342.471191 158.648197 341.525874 159.042969 340.220711 159.042969 338.555664 159.042969 336.987297 158.615971 335.727788 157.761963 334.7771 156.907955 333.826411 155.77198 333.351074 154.354004 333.351074 153.054193 333.351074 152.033695 333.635739 151.29248 334.205078L150.50293 334.849609 148.118164 334.237305zM185.146484 322.522949L185.146484 325.052734 184.598633 325.052734C182.278309 325.095703 180.430671 325.783196 179.055664 327.115234 177.680657 328.447272 176.885743 330.321765 176.670898 332.73877 177.906256 331.320794 179.592763 330.611816 181.730469 330.611816 183.771495 330.611816 185.401605 331.331536 186.62085 332.770996 187.840094 334.210456 188.449707 336.068836 188.449707 338.346191 188.449707 340.763196 187.791755 342.69677 186.47583 344.146973 185.159906 345.597175 183.395519 346.322266 181.182617 346.322266 178.937489 346.322266 177.116706 345.460214 175.720215 343.736084 174.323723 342.011954 173.625488 339.791029 173.625488 337.073242L173.625488 335.929199C173.625488 331.610818 174.546622 328.310314 176.388916 326.027588 178.23121 323.744862 180.973126 322.57666 184.614746 322.522949L185.146484 322.522949zM181.230957 333.093262C180.210444 333.093262 179.270512 333.399411 178.411133 334.011719 177.551754 334.624026 176.955568 335.392085 176.622559 336.315918L176.622559 337.411621C176.622559 339.345225 177.057613 340.902826 177.927734 342.084473 178.797856 343.266119 179.882806 343.856934 181.182617 343.856934 182.525397 343.856934 183.580807 343.362798 184.348877 342.374512 185.116947 341.386226 185.500977 340.091805 185.500977 338.491211 185.500977 336.879875 185.111576 335.577398 184.332764 334.58374 183.553951 333.590083 182.520026 333.093262 181.230957 333.093262zM215.294434 324.214844L205.578125 346 202.452148 346 212.13623 324.988281 199.438965 324.988281 199.438965 322.539062 215.294434 322.539062 215.294434 324.214844zM241.075684 328.662109C241.075684 329.833014 240.766849 330.874995 240.14917 331.788086 239.531491 332.701176 238.696294 333.415525 237.643555 333.931152 238.86817 334.457522 239.837643 335.225581 240.552002 336.235352 241.266361 337.245122 241.623535 338.389154 241.623535 339.66748 241.623535 341.697764 240.938728 343.314447 239.569092 344.517578 238.199456 345.720709 236.397472 346.322266 234.163086 346.322266 231.907215 346.322266 230.09986 345.718024 228.740967 344.509521 227.382073 343.301019 226.702637 341.687022 226.702637 339.66748 226.702637 338.399896 227.049069 337.255864 227.741943 336.235352 228.434818 335.214839 229.393549 334.441409 230.618164 333.915039 229.576167 333.399411 228.754398 332.685063 228.152832 331.771973 227.551267 330.858882 227.250488 329.822271 227.250488 328.662109 227.250488 326.685537 227.884271 325.117193 229.151855 323.957031 230.41944 322.796869 232.089833 322.216797 234.163086 322.216797 236.225596 322.216797 237.893304 322.796869 239.16626 323.957031 240.439215 325.117193 241.075684 326.685537 241.075684 328.662109zM238.642578 339.603027C238.642578 338.292474 238.226323 337.223637 237.393799 336.396484 236.561275 335.569332 235.47364 335.155762 234.130859 335.155762 232.788079 335.155762 231.711186 335.563961 230.900146 336.380371 230.089107 337.196781 229.683594 338.270989 229.683594 339.603027 229.683594 340.935065 230.078365 341.982418 230.86792 342.745117 231.657475 343.507816 232.755852 343.88916 234.163086 343.88916 235.559577 343.88916 236.655269 343.505131 237.450195 342.737061 238.245121 341.96899 238.642578 340.924323 238.642578 339.603027zM234.163086 324.666016C232.992182 324.666016 232.044193 325.028561 231.319092 325.753662 230.593991 326.478763 230.231445 327.464349 230.231445 328.710449 230.231445 329.902838 230.588619 330.86694 231.302979 331.602783 232.017338 332.338627 232.970697 332.706543 234.163086 332.706543 235.355475 332.706543 236.308834 332.338627 237.023193 331.602783 237.737552 330.86694 238.094727 329.902838 238.094727 328.710449 238.094727 327.51806 237.724125 326.545902 236.98291 325.793945 236.241696 325.041988 235.301764 324.666016 234.163086 324.666016zM264.97168 335.6875C264.34863 336.428715 263.604741 337.0249 262.73999 337.476074 261.87524 337.927248 260.927251 338.152832 259.895996 338.152832 258.542474 338.152832 257.36353 337.819828 256.359131 337.153809 255.354731 336.48779 254.578616 335.550543 254.030762 334.342041 253.482907 333.133539 253.208984 331.798835 253.208984 330.337891 253.208984 328.769523 253.507077 327.35694 254.103271 326.100098 254.699466 324.843255 255.545405 323.881839 256.641113 323.21582 257.736822 322.549801 259.015129 322.216797 260.476074 322.216797 262.796398 322.216797 264.625237 323.08422 265.962646 324.819092 267.300056 326.553964 267.96875 328.919907 267.96875 331.916992L267.96875 332.787109C267.96875 337.352562 267.066415 340.685292 265.261719 342.7854 263.457022 344.885509 260.733905 345.962402 257.092285 346.016113L256.512207 346.016113 256.512207 343.502441 257.140625 343.502441C259.600598 343.459472 261.491204 342.817633 262.8125 341.576904 264.133796 340.336175 264.853515 338.37306 264.97168 335.6875zM260.379395 335.6875C261.378423 335.6875 262.299556 335.381351 263.142822 334.769043 263.986088 334.156735 264.601072 333.399419 264.987793 332.49707L264.987793 331.304688C264.987793 329.3496 264.563481 327.759772 263.714844 326.535156 262.866207 325.310541 261.791999 324.698242 260.492188 324.698242 259.181634 324.698242 258.12891 325.200434 257.333984 326.204834 256.539059 327.209234 256.141602 328.533195 256.141602 330.176758 256.141602 331.777352 256.525631 333.095942 257.293701 334.132568 258.061771 335.169195 259.090326 335.6875 260.379395 335.6875zM294.958496 335.993652C294.958496 339.484881 294.362311 342.079093 293.169922 343.776367 291.977533 345.473641 290.113782 346.322266 287.578613 346.322266 285.075671 346.322266 283.222662 345.49244 282.019531 343.832764 280.8164 342.173087 280.19336 339.694352 280.150391 336.396484L280.150391 332.416504C280.150391 328.968244 280.746576 326.406258 281.938965 324.730469 283.131354 323.054679 285.000476 322.216797 287.546387 322.216797 290.070813 322.216797 291.929193 323.025138 293.121582 324.641846 294.313971 326.258553 294.926269 328.753401 294.958496 332.126465L294.958496 335.993652zM291.977539 331.916992C291.977539 329.392566 291.62305 327.552984 290.914062 326.398193 290.205075 325.243402 289.082527 324.666016 287.546387 324.666016 286.020988 324.666016 284.909183 325.240717 284.210938 326.390137 283.512692 327.539557 283.152832 329.306629 283.131348 331.691406L283.131348 336.460938C283.131348 338.996106 283.499264 340.867914 284.235107 342.076416 284.970951 343.284918 286.085442 343.88916 287.578613 343.88916 289.0503 343.88916 290.143307 343.31983 290.857666 342.181152 291.572025 341.042475 291.945312 339.248547 291.977539 336.799316L291.977539 331.916992z"/>
  </g>
</svg>
