<svg xmlns="http://www.w3.org/2000/svg" width="316" height="302" style="background:#fff" viewBox="0 0 316 302">
  <g fill="none" fill-rule="evenodd">
    <rect width="234" height="364" fill="#002275" transform="translate(81.983)"/>
    <path fill="#FFF" d="M105.346,49.548 L105.346,28.428 L103.795,28.428 L103.795,51 L114.619,51 L114.85,49.548 L105.346,49.548 Z M119.767,26.448 C119.041,26.448 118.579,26.976 118.579,27.603 C118.579,28.23 119.041,28.758 119.767,28.758 C120.493,28.758 120.955,28.23 120.955,27.603 C120.955,26.976 120.493,26.448 119.767,26.448 Z M120.526,51 L120.526,33.774 L119.008,33.774 L119.008,51 L120.526,51 Z M140.194,33.972 C139.105,34.302 137.653,34.434 135.508,34.467 C137.257,35.292 138.412,36.777 138.412,39.285 C138.412,42.618 136.102,44.895 132.307,44.895 C131.482,44.895 130.69,44.763 130.03,44.532 C129.139,45.027 128.578,45.786 128.578,46.644 C128.578,47.733 129.304,48.558 131.482,48.558 L134.32,48.558 C137.686,48.558 139.699,50.307 139.699,52.815 C139.699,55.851 137.356,57.699 132.439,57.699 C127.39,57.699 125.344,56.247 125.344,52.848 L126.796,52.848 C126.829,55.422 128.182,56.379 132.439,56.379 C136.531,56.379 138.148,55.059 138.148,52.914 C138.148,51 136.63,49.911 134.089,49.911 L131.284,49.911 C128.512,49.911 127.093,48.591 127.093,46.941 C127.093,45.786 127.819,44.796 128.974,44.07 C127.027,43.047 126.103,41.529 126.103,39.186 C126.103,35.754 128.512,33.444 132.274,33.444 C137.026,33.477 138.148,33.081 139.699,32.454 L140.194,33.972 Z M132.307,34.665 C129.139,34.665 127.654,36.546 127.654,39.186 C127.654,42.123 129.535,43.707 132.274,43.707 C135.211,43.707 136.861,42.09 136.861,39.252 C136.861,36.48 135.376,34.665 132.307,34.665 Z M151.612,33.444 C149.071,33.444 147.157,34.797 145.705,36.81 L145.705,26.547 L144.187,26.745 L144.187,51 L145.705,51 L145.705,38.427 C147.19,36.249 148.906,34.698 151.381,34.698 C153.625,34.698 154.813,36.018 154.813,38.922 L154.813,51 L156.331,51 L156.331,38.724 C156.331,35.424 154.714,33.444 151.612,33.444 Z M170.95,50.307 L170.323,49.218 C169.465,49.713 168.574,50.01 167.551,50.01 C165.736,50.01 164.878,48.954 164.878,46.842 L164.878,35.061 L169.234,35.061 L169.432,33.774 L164.878,33.774 L164.878,29.418 L163.36,29.583 L163.36,33.774 L160.489,33.774 L160.489,35.061 L163.36,35.061 L163.36,46.941 C163.36,49.878 164.911,51.363 167.386,51.363 C168.772,51.363 169.927,50.967 170.95,50.307 Z M187.417,28.725 C185.008,28.725 183.193,29.55 181.543,31.167 L182.368,32.124 C183.985,30.639 185.47,30.045 187.351,30.045 C190.024,30.045 191.773,31.629 191.773,34.236 C191.773,37.404 189.43,38.79 187.087,38.79 L186.031,38.79 L185.833,40.044 L187.219,40.044 C190.288,40.044 192.334,41.463 192.334,44.895 C192.334,47.931 190.42,50.01 187.054,50.01 C185.074,50.01 183.49,49.416 181.906,47.7 L180.916,48.558 C182.566,50.406 184.546,51.363 187.087,51.363 C191.245,51.363 193.918,48.657 193.918,44.862 C193.918,41.331 191.674,39.417 188.902,39.318 C191.377,38.955 193.324,37.206 193.324,34.17 C193.324,31.068 191.113,28.725 187.417,28.725 Z M203.323,28.725 C200.914,28.725 199.099,29.55 197.449,31.167 L198.274,32.124 C199.891,30.639 201.376,30.045 203.257,30.045 C205.93,30.045 207.679,31.629 207.679,34.236 C207.679,37.404 205.336,38.79 202.993,38.79 L201.937,38.79 L201.739,40.044 L203.125,40.044 C206.194,40.044 208.24,41.463 208.24,44.895 C208.24,47.931 206.326,50.01 202.96,50.01 C200.98,50.01 199.396,49.416 197.812,47.7 L196.822,48.558 C198.472,50.406 200.452,51.363 202.993,51.363 C207.151,51.363 209.824,48.657 209.824,44.862 C209.824,41.331 207.58,39.417 204.808,39.318 C207.283,38.955 209.23,37.206 209.23,34.17 C209.23,31.068 207.019,28.725 203.323,28.725 Z M222.43,33.444 C226.555,33.444 228.667,36.678 228.667,42.288 C228.667,47.799 226.423,51.363 222.199,51.363 C219.955,51.363 218.206,50.241 217.15,48.855 L217.15,57.435 L215.632,57.699 L215.632,33.774 L216.952,33.774 L217.051,36.381 C218.305,34.632 220.12,33.444 222.43,33.444 Z M221.968,50.01 C225.268,50.01 227.05,47.37 227.05,42.288 C227.05,37.239 225.4,34.731 222.232,34.731 C219.922,34.731 218.437,36.018 217.15,37.767 L217.15,47.238 C218.272,48.921 219.889,50.01 221.968,50.01 Z M244.771,51 L238.666,41.76 L243.979,33.774 L242.23,33.774 L237.775,40.869 L233.32,33.774 L231.538,33.774 L236.818,41.826 L230.746,51 L232.495,51 L237.709,42.75 L242.956,51 L244.771,51 Z"/>
    <path fill="#0C0C0D" d="M19.263 42.017C21.629 42.017 23.865 42.745 23.865 46.463 23.865 50.103 21.642 51 19.497 51L17.053 51 17.053 42.017 19.263 42.017zM18.769 43.304L18.769 49.713 19.614 49.713C20.953 49.713 22.058 49.115 22.058 46.463 22.058 43.759 20.888 43.304 19.562 43.304L18.769 43.304zM26.244 40.639C25.633 40.639 25.204 41.081 25.204 41.653 25.204 42.212 25.633 42.654 26.244 42.654 26.868 42.654 27.297 42.212 27.297 41.653 27.297 41.081 26.868 40.639 26.244 40.639zM27.089 51L27.089 44.123 25.425 44.123 25.425 51 27.089 51zM31.262 43.928C29.663 43.928 28.61 44.786 28.61 45.93 28.61 46.944 29.234 47.62 30.651 48.01 31.938 48.374 32.211 48.556 32.211 49.154 32.211 49.635 31.73 49.96 30.976 49.96 30.287 49.96 29.65 49.687 29.13 49.271L28.285 50.22C28.922 50.792 29.845 51.195 31.028 51.195 32.601 51.195 33.927 50.441 33.927 49.011 33.927 47.789 33.134 47.217 31.73 46.84 30.56 46.515 30.287 46.307 30.287 45.852 30.287 45.436 30.664 45.163 31.366 45.163 31.938 45.163 32.484 45.358 33.056 45.748L33.706 44.747C33.056 44.24 32.25 43.928 31.262 43.928zM38.815 43.928C40.635 43.928 41.389 45.345 41.389 47.542 41.389 49.648 40.414 51.195 38.672 51.195 37.97 51.195 37.372 50.948 36.943 50.441L36.943 53.652 35.279 53.834 35.279 44.123 36.735 44.123 36.826 44.968C37.372 44.253 38.113 43.928 38.815 43.928zM38.204 49.921C39.114 49.921 39.647 49.219 39.647 47.555 39.647 45.813 39.179 45.176 38.321 45.176 37.749 45.176 37.268 45.579 36.943 46.112L36.943 49.206C37.268 49.687 37.684 49.921 38.204 49.921zM44.626 49.323L44.626 41.185 42.962 41.367 42.962 49.44C42.962 50.584 43.547 51.195 44.574 51.195 45.003 51.195 45.419 51.104 45.757 50.961L45.406 49.791C45.289 49.83 45.146 49.856 45.016 49.856 44.743 49.856 44.626 49.7 44.626 49.323zM51.945 49.18C51.945 49.739 52.127 49.934 52.465 50.064L52.114 51.169C51.36 51.104 50.866 50.831 50.593 50.168 50.112 50.896 49.358 51.195 48.539 51.195 47.161 51.195 46.316 50.324 46.316 49.076 46.316 47.581 47.447 46.775 49.449 46.775L50.307 46.775 50.307 46.385C50.307 45.488 49.904 45.189 49.02 45.189 48.552 45.189 47.889 45.319 47.2 45.553L46.81 44.422C47.655 44.097 48.526 43.928 49.306 43.928 51.139 43.928 51.945 44.773 51.945 46.294L51.945 49.18zM48.981 49.986C49.566 49.986 49.995 49.687 50.307 49.141L50.307 47.75 49.618 47.75C48.539 47.75 48.006 48.14 48.006 48.946 48.006 49.609 48.344 49.986 48.981 49.986zM57.158 51.026L59.394 44.123 57.678 44.123 56.118 49.895 54.623 44.123 52.855 44.123 55.039 51 55.611 51C55.221 51.975 54.779 52.417 53.414 52.625L53.583 53.834C55.624 53.678 56.638 52.638 57.158 51.026zM22.643 91.382L22.825 90.017 16.156 90.017 16.156 91.382 18.574 91.382 18.574 99 20.303 99 20.303 91.382 22.643 91.382zM24.97 88.639C24.359 88.639 23.93 89.081 23.93 89.653 23.93 90.212 24.359 90.654 24.97 90.654 25.594 90.654 26.023 90.212 26.023 89.653 26.023 89.081 25.594 88.639 24.97 88.639zM25.815 99L25.815 92.123 24.151 92.123 24.151 99 25.815 99zM31.756 98.675L31.171 97.596C30.872 97.778 30.612 97.856 30.352 97.856 29.845 97.856 29.624 97.583 29.624 96.907L29.624 93.319 31.054 93.319 31.223 92.123 29.624 92.123 29.624 90.407 27.96 90.602 27.96 92.123 26.881 92.123 26.881 93.319 27.96 93.319 27.96 96.946C27.96 98.415 28.675 99.182 30.027 99.195 30.638 99.195 31.262 99.026 31.756 98.675zM34.291 97.323L34.291 89.185 32.627 89.367 32.627 97.44C32.627 98.584 33.212 99.195 34.239 99.195 34.668 99.195 35.084 99.104 35.422 98.961L35.071 97.791C34.954 97.83 34.811 97.856 34.681 97.856 34.408 97.856 34.291 97.7 34.291 97.323zM42.039 95.399C42.039 95.62 42.013 95.893 42 96.075L37.684 96.075C37.801 97.479 38.464 97.934 39.374 97.934 39.985 97.934 40.492 97.739 41.09 97.323L41.779 98.272C41.103 98.818 40.271 99.195 39.231 99.195 37.099 99.195 35.955 97.778 35.955 95.607 35.955 93.514 37.06 91.928 39.01 91.928 40.934 91.928 42.039 93.228 42.039 95.399zM40.388 94.996L40.388 94.918C40.388 93.787 39.985 93.111 39.049 93.111 38.269 93.111 37.775 93.631 37.684 94.996L40.388 94.996zM21.46 187.242C22.487 187.437 23.514 187.918 23.514 189.413 23.514 191.389 21.941 192 19.757 192L17.053 192 17.053 183.017 19.406 183.017C21.72 183.017 23.124 183.667 23.124 185.305 23.124 186.423 22.318 187.06 21.46 187.242zM18.769 184.278L18.769 186.709 19.822 186.709C20.758 186.709 21.369 186.293 21.369 185.448 21.369 184.538 20.745 184.278 19.575 184.278L18.769 184.278zM19.77 190.713C20.901 190.713 21.72 190.479 21.72 189.348 21.72 188.269 20.953 187.905 19.952 187.905L18.769 187.905 18.769 190.713 19.77 190.713zM27.778 184.928C29.806 184.928 31.002 186.306 31.002 188.555 31.002 190.726 29.793 192.195 27.765 192.195 25.737 192.195 24.528 190.817 24.528 188.555 24.528 186.397 25.737 184.928 27.778 184.928zM27.778 186.189C26.803 186.189 26.283 186.93 26.283 188.555 26.283 190.206 26.79 190.934 27.765 190.934 28.74 190.934 29.247 190.193 29.247 188.555 29.247 186.917 28.74 186.189 27.778 186.189zM38.347 182.367L38.347 192 36.878 192 36.761 191.129C36.345 191.753 35.682 192.195 34.798 192.195 33.082 192.195 32.185 190.752 32.185 188.568 32.185 186.449 33.238 184.928 34.98 184.928 35.682 184.928 36.254 185.24 36.683 185.669L36.683 182.185 38.347 182.367zM35.266 190.934C35.877 190.934 36.293 190.635 36.683 190.05L36.683 186.904C36.319 186.462 35.942 186.176 35.383 186.176 34.512 186.176 33.94 186.904 33.94 188.555 33.94 190.323 34.447 190.934 35.266 190.934zM43.677 192.026L45.913 185.123 44.197 185.123 42.637 190.895 41.142 185.123 39.374 185.123 41.558 192 42.13 192C41.74 192.975 41.298 193.417 39.933 193.625L40.102 194.834C42.143 194.678 43.157 193.638 43.677 192.026zM20.459 239.822C18.275 239.822 16.559 241.473 16.559 244.489 16.559 247.544 18.184 249.195 20.511 249.195 21.733 249.195 22.669 248.662 23.215 248.103L22.409 247.063C21.889 247.453 21.356 247.817 20.589 247.817 19.302 247.817 18.366 246.855 18.366 244.489 18.366 242.058 19.328 241.148 20.563 241.148 21.187 241.148 21.72 241.369 22.227 241.798L23.111 240.771C22.383 240.16 21.642 239.822 20.459 239.822zM29.468 247.18C29.468 247.739 29.65 247.934 29.988 248.064L29.637 249.169C28.883 249.104 28.389 248.831 28.116 248.168 27.635 248.896 26.881 249.195 26.062 249.195 24.684 249.195 23.839 248.324 23.839 247.076 23.839 245.581 24.97 244.775 26.972 244.775L27.83 244.775 27.83 244.385C27.83 243.488 27.427 243.189 26.543 243.189 26.075 243.189 25.412 243.319 24.723 243.553L24.333 242.422C25.178 242.097 26.049 241.928 26.829 241.928 28.662 241.928 29.468 242.773 29.468 244.294L29.468 247.18zM26.504 247.986C27.089 247.986 27.518 247.687 27.83 247.141L27.83 245.75 27.141 245.75C26.062 245.75 25.529 246.14 25.529 246.946 25.529 247.609 25.867 247.986 26.504 247.986zM35.019 241.928C36.839 241.928 37.593 243.345 37.593 245.542 37.593 247.648 36.618 249.195 34.876 249.195 34.174 249.195 33.576 248.948 33.147 248.441L33.147 251.652 31.483 251.834 31.483 242.123 32.939 242.123 33.03 242.968C33.576 242.253 34.317 241.928 35.019 241.928zM34.408 247.921C35.318 247.921 35.851 247.219 35.851 245.555 35.851 243.813 35.383 243.176 34.525 243.176 33.953 243.176 33.472 243.579 33.147 244.112L33.147 247.206C33.472 247.687 33.888 247.921 34.408 247.921zM43.17 248.675L42.585 247.596C42.286 247.778 42.026 247.856 41.766 247.856 41.259 247.856 41.038 247.583 41.038 246.907L41.038 243.319 42.468 243.319 42.637 242.123 41.038 242.123 41.038 240.407 39.374 240.602 39.374 242.123 38.295 242.123 38.295 243.319 39.374 243.319 39.374 246.946C39.374 248.415 40.089 249.182 41.441 249.195 42.052 249.195 42.676 249.026 43.17 248.675zM44.925 238.639C44.314 238.639 43.885 239.081 43.885 239.653 43.885 240.212 44.314 240.654 44.925 240.654 45.549 240.654 45.978 240.212 45.978 239.653 45.978 239.081 45.549 238.639 44.925 238.639zM45.77 249L45.77 242.123 44.106 242.123 44.106 249 45.77 249zM50.58 241.928C52.608 241.928 53.804 243.306 53.804 245.555 53.804 247.726 52.595 249.195 50.567 249.195 48.539 249.195 47.33 247.817 47.33 245.555 47.33 243.397 48.539 241.928 50.58 241.928zM50.58 243.189C49.605 243.189 49.085 243.93 49.085 245.555 49.085 247.206 49.592 247.934 50.567 247.934 51.542 247.934 52.049 247.193 52.049 245.555 52.049 243.917 51.542 243.189 50.58 243.189zM59.03 241.928C58.159 241.928 57.47 242.331 56.937 243.02L56.807 242.123 55.364 242.123 55.364 249 57.028 249 57.028 244.216C57.431 243.579 57.873 243.176 58.471 243.176 58.991 243.176 59.316 243.423 59.316 244.281L59.316 249 60.98 249 60.98 244.021C60.98 242.708 60.265 241.928 59.03 241.928z"/>
    <path fill="#FFF" d="M103.564 98.032L103.564 83.952 102.53 83.952 102.53 99 109.746 99 109.9 98.032 103.564 98.032zM113.178 82.632C112.694 82.632 112.386 82.984 112.386 83.402 112.386 83.82 112.694 84.172 113.178 84.172 113.662 84.172 113.97 83.82 113.97 83.402 113.97 82.984 113.662 82.632 113.178 82.632zM113.684 99L113.684 87.516 112.672 87.516 112.672 99 113.684 99zM126.796 87.648C126.07 87.868 125.102 87.956 123.672 87.978 124.838 88.528 125.608 89.518 125.608 91.19 125.608 93.412 124.068 94.93 121.538 94.93 120.988 94.93 120.46 94.842 120.02 94.688 119.426 95.018 119.052 95.524 119.052 96.096 119.052 96.822 119.536 97.372 120.988 97.372L122.88 97.372C125.124 97.372 126.466 98.538 126.466 100.21 126.466 102.234 124.904 103.466 121.626 103.466 118.26 103.466 116.896 102.498 116.896 100.232L117.864 100.232C117.886 101.948 118.788 102.586 121.626 102.586 124.354 102.586 125.432 101.706 125.432 100.276 125.432 99 124.42 98.274 122.726 98.274L120.856 98.274C119.008 98.274 118.062 97.394 118.062 96.294 118.062 95.524 118.546 94.864 119.316 94.38 118.018 93.698 117.402 92.686 117.402 91.124 117.402 88.836 119.008 87.296 121.516 87.296 124.684 87.318 125.432 87.054 126.466 86.636L126.796 87.648zM121.538 88.11C119.426 88.11 118.436 89.364 118.436 91.124 118.436 93.082 119.69 94.138 121.516 94.138 123.474 94.138 124.574 93.06 124.574 91.168 124.574 89.32 123.584 88.11 121.538 88.11zM134.408 87.296C132.714 87.296 131.438 88.198 130.47 89.54L130.47 82.698 129.458 82.83 129.458 99 130.47 99 130.47 90.618C131.46 89.166 132.604 88.132 134.254 88.132 135.75 88.132 136.542 89.012 136.542 90.948L136.542 99 137.554 99 137.554 90.816C137.554 88.616 136.476 87.296 134.408 87.296zM147.3 98.538L146.882 97.812C146.31 98.142 145.716 98.34 145.034 98.34 143.824 98.34 143.252 97.636 143.252 96.228L143.252 88.374 146.156 88.374 146.288 87.516 143.252 87.516 143.252 84.612 142.24 84.722 142.24 87.516 140.326 87.516 140.326 88.374 142.24 88.374 142.24 96.294C142.24 98.252 143.274 99.242 144.924 99.242 145.848 99.242 146.618 98.978 147.3 98.538zM158.388 84.15C156.65 84.15 155.396 84.81 154.252 86.196L154.978 86.724C155.836 85.668 156.87 85.03 158.344 85.03 160.104 85.03 161.226 86.174 161.226 88 161.226 90.64 159.95 92.18 154.428 98.12L154.428 99 162.524 99 162.678 98.076 155.638 98.076C160.676 92.686 162.282 90.904 162.282 87.934 162.282 85.778 160.83 84.15 158.388 84.15zM168.794 84.15C167.056 84.15 165.802 84.81 164.658 86.196L165.384 86.724C166.242 85.668 167.276 85.03 168.75 85.03 170.51 85.03 171.632 86.174 171.632 88 171.632 90.64 170.356 92.18 164.834 98.12L164.834 99 172.93 99 173.084 98.076 166.044 98.076C171.082 92.686 172.688 90.904 172.688 87.934 172.688 85.778 171.236 84.15 168.794 84.15zM181.224 87.296C183.974 87.296 185.382 89.452 185.382 93.192 185.382 96.866 183.886 99.242 181.07 99.242 179.574 99.242 178.408 98.494 177.704 97.57L177.704 103.29 176.692 103.466 176.692 87.516 177.572 87.516 177.638 89.254C178.474 88.088 179.684 87.296 181.224 87.296zM180.916 98.34C183.116 98.34 184.304 96.58 184.304 93.192 184.304 89.826 183.204 88.154 181.092 88.154 179.552 88.154 178.562 89.012 177.704 90.178L177.704 96.492C178.452 97.614 179.53 98.34 180.916 98.34zM196.118 99L192.048 92.84 195.59 87.516 194.424 87.516 191.454 92.246 188.484 87.516 187.296 87.516 190.816 92.884 186.768 99 187.934 99 191.41 93.5 194.908 99 196.118 99zM104.828 118.964C102.448 118.964 100.714 120.273 100.714 122.279 100.714 124.064 101.734 125.084 104.284 125.883 106.069 126.427 106.528 126.835 106.528 127.77 106.528 128.807 105.712 129.385 104.505 129.385 103.298 129.385 102.346 128.943 101.53 128.195L100.221 129.623C101.19 130.575 102.618 131.272 104.573 131.272 107.429 131.272 109.129 129.759 109.129 127.6 109.129 125.424 107.769 124.54 105.644 123.86 103.723 123.265 103.281 122.925 103.281 122.109 103.281 121.276 103.978 120.834 104.998 120.834 105.95 120.834 106.766 121.14 107.582 121.837L108.789 120.443C107.769 119.491 106.579 118.964 104.828 118.964zM118.411 126.291C118.411 126.597 118.377 126.971 118.36 127.226L112.733 127.226C112.903 128.96 113.719 129.47 114.875 129.47 115.64 129.47 116.286 129.232 117.068 128.688L118.071 130.048C117.187 130.762 116.065 131.272 114.654 131.272 111.764 131.272 110.251 129.368 110.251 126.546 110.251 123.826 111.713 121.718 114.348 121.718 116.898 121.718 118.411 123.418 118.411 126.291zM116.014 125.713L116.014 125.611C116.014 124.251 115.555 123.367 114.399 123.367 113.447 123.367 112.852 124.013 112.733 125.713L116.014 125.713zM129.937 121.718C128.781 121.718 127.948 122.245 127.234 123.18 126.894 122.245 126.112 121.718 125.092 121.718 123.953 121.718 123.137 122.228 122.474 123.112L122.287 121.99 120.196 121.99 120.196 131 122.61 131 122.61 124.778C123.052 123.979 123.494 123.52 124.157 123.52 124.65 123.52 125.041 123.809 125.041 124.846L125.041 131 127.455 131 127.455 124.778C127.914 123.979 128.356 123.52 129.019 123.52 129.495 123.52 129.903 123.809 129.903 124.846L129.903 131 132.317 131 132.317 124.438C132.317 122.738 131.348 121.718 129.937 121.718zM135.802 117.349C134.935 117.349 134.34 117.961 134.34 118.76 134.34 119.559 134.935 120.171 135.802 120.171 136.669 120.171 137.281 119.559 137.281 118.76 137.281 117.961 136.669 117.349 135.802 117.349zM137.026 131L137.026 121.99 134.612 121.99 134.612 131 137.026 131zM144.234 121.718C146.41 121.718 147.617 123.486 147.617 126.495 147.617 129.283 146.274 131.272 144.047 131.272 143.044 131.272 142.245 130.847 141.684 130.116L141.548 131 139.406 131 139.406 118.403 141.82 118.131 141.82 122.959C142.364 122.194 143.265 121.718 144.234 121.718zM143.384 129.487C144.387 129.487 145.101 128.688 145.101 126.495 145.101 124.149 144.438 123.503 143.486 123.503 142.772 123.503 142.211 123.979 141.82 124.659L141.82 128.518C142.194 129.13 142.738 129.487 143.384 129.487zM153.329 121.718C156.015 121.718 157.63 123.503 157.63 126.495 157.63 129.351 156.015 131.272 153.312 131.272 150.626 131.272 148.994 129.487 148.994 126.495 148.994 123.622 150.609 121.718 153.329 121.718zM153.329 123.52C152.122 123.52 151.51 124.438 151.51 126.495 151.51 128.569 152.122 129.47 153.312 129.47 154.502 129.47 155.114 128.552 155.114 126.495 155.114 124.421 154.502 123.52 153.329 123.52zM161.795 128.637L161.795 118.131 159.381 118.403 159.381 128.858C159.381 130.422 160.197 131.272 161.625 131.272 162.203 131.272 162.798 131.153 163.257 130.966L162.764 129.249C162.628 129.317 162.441 129.351 162.271 129.351 161.948 129.351 161.795 129.147 161.795 128.637zM172.131 118.403L172.131 131 170.006 131 169.87 129.895C169.326 130.677 168.493 131.272 167.286 131.272 165.025 131.272 163.869 129.368 163.869 126.495 163.869 123.707 165.263 121.718 167.558 121.718 168.425 121.718 169.173 122.092 169.717 122.619L169.717 118.131 172.131 118.403zM168.017 129.47C168.731 129.47 169.258 129.096 169.717 128.382L169.717 124.353C169.275 123.826 168.833 123.503 168.17 123.503 167.099 123.503 166.385 124.387 166.385 126.495 166.385 128.756 167.031 129.47 168.017 129.47zM183.708 131L183.708 119.542 181.583 119.542 177.775 121.837 178.829 123.469 181.345 121.922 181.345 131 183.708 131zM192.718 121.208L192.718 119.542 185.493 119.542 185.493 121.378 190.219 121.378 186.309 130.524 188.502 131.255 192.718 121.208zM199.093 121.718C201.473 121.718 202.476 123.571 202.476 126.478 202.476 129.232 201.167 131.272 198.906 131.272 198.005 131.272 197.24 130.949 196.679 130.303L196.679 134.468 194.265 134.74 194.265 121.99 196.39 121.99 196.509 123.044C197.223 122.126 198.209 121.718 199.093 121.718zM198.192 129.47C199.297 129.47 199.96 128.603 199.96 126.495 199.96 124.234 199.382 123.503 198.345 123.503 197.665 123.503 197.087 123.979 196.679 124.659L196.679 128.586C197.07 129.181 197.563 129.47 198.192 129.47zM211.571 131L208.613 126.172 211.146 121.99 208.562 121.99 207.185 124.982 205.774 121.99 203.054 121.99 205.706 126.257 202.748 131 205.4 131 207.083 127.515 208.8 131 211.571 131z"/>
    <path fill="#FFF" d="M5.42050591,11.62 L3.81550591,11.62 L3.81550591,16 L2.39050591,16 L2.39050591,5.665 L5.10550591,5.665 C7.68550591,5.665 9.03550591,6.655 9.03550591,8.59 C9.03550591,10.045 8.28550591,10.915 6.80050591,11.365 L9.59050591,16 L7.89550591,16 L5.42050591,11.62 Z M5.25550591,10.525 C6.69550591,10.525 7.52050591,9.985 7.52050591,8.59 C7.52050591,7.3 6.78550591,6.775 5.09050591,6.775 L3.81550591,6.775 L3.81550591,10.525 L5.25550591,10.525 Z M16.9855059,11.815 C16.9855059,12.085 16.9705059,12.34 16.9555059,12.52 L11.9155059,12.52 C12.0505059,14.35 12.9055059,15.055 14.0455059,15.055 C14.8255059,15.055 15.4105059,14.845 16.1005059,14.365 L16.7005059,15.19 C15.9205059,15.805 15.0355059,16.18 13.9405059,16.18 C11.7355059,16.18 10.4455059,14.635 10.4455059,12.13 C10.4455059,9.67 11.6905059,7.915 13.7305059,7.915 C15.8605059,7.915 16.9855059,9.4 16.9855059,11.815 Z M15.6205059,11.5 L15.6205059,11.41 C15.6205059,9.865 15.0055059,9.01 13.7605059,9.01 C12.7105059,9.01 12.0205059,9.745 11.9155059,11.5 L15.6205059,11.5 Z M25.6405059,8.455 C24.9805059,8.665 24.2305059,8.695 23.3305059,8.695 C24.2605059,9.115 24.7255059,9.775 24.7255059,10.69 C24.7255059,12.25 23.6005059,13.375 21.7105059,13.375 C21.3505059,13.375 21.0355059,13.33 20.7055059,13.225 C20.4805059,13.39 20.3155059,13.675 20.3155059,13.96 C20.3155059,14.32 20.5405059,14.605 21.3505059,14.605 L22.6105059,14.605 C24.2305059,14.605 25.3105059,15.535 25.3105059,16.795 C25.3105059,18.325 24.0505059,19.195 21.6055059,19.195 C19.0255059,19.195 18.2155059,18.4 18.2155059,16.795 L19.4605059,16.795 C19.4605059,17.695 19.8655059,18.115 21.6055059,18.115 C23.3155059,18.115 23.9155059,17.68 23.9155059,16.885 C23.9155059,16.135 23.3155059,15.76 22.3255059,15.76 L21.0805059,15.76 C19.6705059,15.76 19.0405059,15.055 19.0405059,14.26 C19.0405059,13.75 19.3405059,13.24 19.9105059,12.865 C18.9955059,12.385 18.5755059,11.695 18.5755059,10.675 C18.5755059,9.055 19.8805059,7.915 21.6205059,7.915 C23.5855059,7.96 24.3055059,7.63 25.2355059,7.21 L25.6405059,8.455 Z M21.6205059,8.905 C20.5555059,8.905 19.9855059,9.64 19.9855059,10.675 C19.9855059,11.725 20.5705059,12.46 21.6505059,12.46 C22.7305059,12.46 23.3155059,11.8 23.3155059,10.66 C23.3155059,9.505 22.7455059,8.905 21.6205059,8.905 Z M32.9455059,16 L32.9455059,8.095 L31.5655059,8.095 L31.5655059,13.735 C31.0855059,14.53 30.4405059,15.1 29.5855059,15.1 C28.7305059,15.1 28.3705059,14.695 28.3705059,13.615 L28.3705059,8.095 L26.9905059,8.095 L26.9905059,13.765 C26.9905059,15.31 27.8155059,16.18 29.1955059,16.18 C30.3205059,16.18 31.0555059,15.73 31.6555059,14.77 L31.7605059,16 L32.9455059,16 Z M37.1005059,14.41 L37.1005059,4.75 L35.7205059,4.915 L35.7205059,14.44 C35.7205059,15.58 36.2905059,16.18 37.2955059,16.18 C37.7005059,16.18 38.0905059,16.09 38.4655059,15.91 L38.1055059,14.95 C37.9555059,15.01 37.7905059,15.04 37.5955059,15.04 C37.2355059,15.04 37.1005059,14.83 37.1005059,14.41 Z M45.5155059,14.155 C45.5155059,14.845 45.7705059,15.07 46.1755059,15.22 L45.8605059,16.18 C45.0655059,16.09 44.5555059,15.775 44.3155059,14.995 C43.7605059,15.82 42.9205059,16.18 41.9605059,16.18 C40.3855059,16.18 39.4405059,15.205 39.4405059,13.795 C39.4405059,12.1 40.7155059,11.185 42.9205059,11.185 L44.1355059,11.185 L44.1355059,10.6 C44.1355059,9.46 43.5805059,9.04 42.4855059,9.04 C41.9005059,9.04 41.1655059,9.19 40.3555059,9.46 L40.0105059,8.455 C40.9855059,8.095 41.8555059,7.915 42.7405059,7.915 C44.6455059,7.915 45.5155059,8.89 45.5155059,10.54 L45.5155059,14.155 Z M42.2755059,15.145 C43.0855059,15.145 43.6855059,14.74 44.1355059,13.915 L44.1355059,12.1 L43.1005059,12.1 C41.6455059,12.1 40.9105059,12.64 40.9105059,13.72 C40.9105059,14.65 41.3755059,15.145 42.2755059,15.145 Z M51.7855059,7.915 C50.8255059,7.915 50.0905059,8.515 49.6705059,9.7 L49.5355059,8.095 L48.3505059,8.095 L48.3505059,16 L49.7305059,16 L49.7305059,11.485 C50.0605059,9.97 50.6305059,9.265 51.6205059,9.265 C51.9055059,9.265 52.0705059,9.295 52.3105059,9.355 L52.5655059,8.005 C52.3255059,7.945 52.0405059,7.915 51.7855059,7.915 Z M61.5355059,16 L61.5355059,5.965 L60.3205059,5.965 L57.2155059,7.885 L57.8155059,8.86 L60.1555059,7.435 L60.1555059,16 L61.5355059,16 Z M69.4855059,7.045 L69.6805059,5.965 L64.2505059,5.965 L64.2505059,11.02 L65.3305059,11.02 C65.8105059,10.795 66.2155059,10.675 66.7555059,10.675 C67.7905059,10.675 68.5855059,11.215 68.5855059,12.76 C68.5855059,14.23 67.7905059,15.055 66.5305059,15.055 C65.6605059,15.055 65.0155059,14.74 64.4155059,14.095 L63.5755059,14.905 C64.3555059,15.7 65.2705059,16.18 66.5455059,16.18 C68.6305059,16.18 70.0255059,14.785 70.0255059,12.79 C70.0255059,10.795 68.8705059,9.61 67.1755059,9.61 C66.6355059,9.61 66.0955059,9.73 65.5705059,10 L65.5705059,7.045 L69.4855059,7.045 Z M75.7555059,7.915 C77.8555059,7.915 78.6805059,9.55 78.6805059,12.04 C78.6805059,14.44 77.6155059,16.18 75.5755059,16.18 C74.7205059,16.18 74.0155059,15.895 73.5055059,15.28 L73.5055059,19.03 L72.1255059,19.195 L72.1255059,8.095 L73.3105059,8.095 L73.4155059,9.16 C74.0005059,8.35 74.8555059,7.915 75.7555059,7.915 Z M75.2455059,15.055 C76.5055059,15.055 77.1955059,14.11 77.1955059,12.04 C77.1955059,9.985 76.5955059,9.01 75.4105059,9.01 C74.5705059,9.01 73.9255059,9.61 73.5055059,10.24 L73.5055059,14.095 C73.9105059,14.71 74.5255059,15.055 75.2455059,15.055 Z M86.5105059,16 L83.7655059,11.77 L86.1955059,8.095 L84.6355059,8.095 L82.9705059,10.99 L81.3205059,8.095 L79.7005059,8.095 L82.1455059,11.83 L79.3855059,16 L80.9455059,16 L82.9105059,12.655 L84.8455059,16 L86.5105059,16 Z" transform="translate(99 176)"/>
    <path fill="#FFF" d="M4.19594694,10.204 L2.80494694,10.204 L2.80494694,14 L1.56994694,14 L1.56994694,5.043 L3.92294694,5.043 C6.15894694,5.043 7.32894694,5.901 7.32894694,7.578 C7.32894694,8.839 6.67894694,9.593 5.39194694,9.983 L7.80994694,14 L6.34094694,14 L4.19594694,10.204 Z M4.05294694,9.255 C5.30094694,9.255 6.01594694,8.787 6.01594694,7.578 C6.01594694,6.46 5.37894694,6.005 3.90994694,6.005 L2.80494694,6.005 L2.80494694,9.255 L4.05294694,9.255 Z M14.2189469,10.373 C14.2189469,10.607 14.2059469,10.828 14.1929469,10.984 L9.82494694,10.984 C9.94194694,12.57 10.6829469,13.181 11.6709469,13.181 C12.3469469,13.181 12.8539469,12.999 13.4519469,12.583 L13.9719469,13.298 C13.2959469,13.831 12.5289469,14.156 11.5799469,14.156 C9.66894694,14.156 8.55094694,12.817 8.55094694,10.646 C8.55094694,8.514 9.62994694,6.993 11.3979469,6.993 C13.2439469,6.993 14.2189469,8.28 14.2189469,10.373 Z M13.0359469,10.1 L13.0359469,10.022 C13.0359469,8.683 12.5029469,7.942 11.4239469,7.942 C10.5139469,7.942 9.91594694,8.579 9.82494694,10.1 L13.0359469,10.1 Z M21.7199469,7.461 C21.1479469,7.643 20.4979469,7.669 19.7179469,7.669 C20.5239469,8.033 20.9269469,8.605 20.9269469,9.398 C20.9269469,10.75 19.9519469,11.725 18.3139469,11.725 C18.0019469,11.725 17.7289469,11.686 17.4429469,11.595 C17.2479469,11.738 17.1049469,11.985 17.1049469,12.232 C17.1049469,12.544 17.2999469,12.791 18.0019469,12.791 L19.0939469,12.791 C20.4979469,12.791 21.4339469,13.597 21.4339469,14.689 C21.4339469,16.015 20.3419469,16.769 18.2229469,16.769 C15.9869469,16.769 15.2849469,16.08 15.2849469,14.689 L16.3639469,14.689 C16.3639469,15.469 16.7149469,15.833 18.2229469,15.833 C19.7049469,15.833 20.2249469,15.456 20.2249469,14.767 C20.2249469,14.117 19.7049469,13.792 18.8469469,13.792 L17.7679469,13.792 C16.5459469,13.792 15.9999469,13.181 15.9999469,12.492 C15.9999469,12.05 16.2599469,11.608 16.7539469,11.283 C15.9609469,10.867 15.5969469,10.269 15.5969469,9.385 C15.5969469,7.981 16.7279469,6.993 18.2359469,6.993 C19.9389469,7.032 20.5629469,6.746 21.3689469,6.382 L21.7199469,7.461 Z M18.2359469,7.851 C17.3129469,7.851 16.8189469,8.488 16.8189469,9.385 C16.8189469,10.295 17.3259469,10.932 18.2619469,10.932 C19.1979469,10.932 19.7049469,10.36 19.7049469,9.372 C19.7049469,8.371 19.2109469,7.851 18.2359469,7.851 Z M28.0509469,14 L28.0509469,7.149 L26.8549469,7.149 L26.8549469,12.037 C26.4389469,12.726 25.8799469,13.22 25.1389469,13.22 C24.3979469,13.22 24.0859469,12.869 24.0859469,11.933 L24.0859469,7.149 L22.8899469,7.149 L22.8899469,12.063 C22.8899469,13.402 23.6049469,14.156 24.8009469,14.156 C25.7759469,14.156 26.4129469,13.766 26.9329469,12.934 L27.0239469,14 L28.0509469,14 Z M31.6519469,12.622 L31.6519469,4.25 L30.4559469,4.393 L30.4559469,12.648 C30.4559469,13.636 30.9499469,14.156 31.8209469,14.156 C32.1719469,14.156 32.5099469,14.078 32.8349469,13.922 L32.5229469,13.09 C32.3929469,13.142 32.2499469,13.168 32.0809469,13.168 C31.7689469,13.168 31.6519469,12.986 31.6519469,12.622 Z M38.9449469,12.401 C38.9449469,12.999 39.1659469,13.194 39.5169469,13.324 L39.2439469,14.156 C38.5549469,14.078 38.1129469,13.805 37.9049469,13.129 C37.4239469,13.844 36.6959469,14.156 35.8639469,14.156 C34.4989469,14.156 33.6799469,13.311 33.6799469,12.089 C33.6799469,10.62 34.7849469,9.827 36.6959469,9.827 L37.7489469,9.827 L37.7489469,9.32 C37.7489469,8.332 37.2679469,7.968 36.3189469,7.968 C35.8119469,7.968 35.1749469,8.098 34.4729469,8.332 L34.1739469,7.461 C35.0189469,7.149 35.7729469,6.993 36.5399469,6.993 C38.1909469,6.993 38.9449469,7.838 38.9449469,9.268 L38.9449469,12.401 Z M36.1369469,13.259 C36.8389469,13.259 37.3589469,12.908 37.7489469,12.193 L37.7489469,10.62 L36.8519469,10.62 C35.5909469,10.62 34.9539469,11.088 34.9539469,12.024 C34.9539469,12.83 35.3569469,13.259 36.1369469,13.259 Z M44.3789469,6.993 C43.5469469,6.993 42.9099469,7.513 42.5459469,8.54 L42.4289469,7.149 L41.4019469,7.149 L41.4019469,14 L42.5979469,14 L42.5979469,10.087 C42.8839469,8.774 43.3779469,8.163 44.2359469,8.163 C44.4829469,8.163 44.6259469,8.189 44.8339469,8.241 L45.0549469,7.071 C44.8469469,7.019 44.5999469,6.993 44.3789469,6.993 Z M52.8289469,14 L52.8289469,5.303 L51.7759469,5.303 L49.0849469,6.967 L49.6049469,7.812 L51.6329469,6.577 L51.6329469,14 L52.8289469,14 Z M57.1839469,5.173 C56.2479469,5.173 55.4419469,5.511 54.7009469,6.2 L55.3249469,6.915 C55.9099469,6.369 56.4299469,6.135 57.1189469,6.135 C57.9899469,6.135 58.5619469,6.642 58.5619469,7.461 C58.5619469,8.475 57.8469469,8.995 56.9889469,8.995 L56.5469469,8.995 L56.4039469,9.918 L57.0539469,9.918 C58.1069469,9.918 58.7829469,10.282 58.7829469,11.478 C58.7829469,12.505 58.1199469,13.181 57.0279469,13.181 C56.3259469,13.181 55.7279469,12.921 55.1819469,12.31 L54.4539469,12.986 C55.1169469,13.779 56.0269469,14.156 57.0669469,14.156 C58.8739469,14.156 60.0309469,13.012 60.0309469,11.491 C60.0309469,10.178 59.1599469,9.489 58.0679469,9.385 C59.0429469,9.151 59.7579469,8.488 59.7579469,7.383 C59.7579469,6.213 58.8479469,5.173 57.1839469,5.173 Z M65.1269469,6.993 C66.9469469,6.993 67.6619469,8.41 67.6619469,10.568 C67.6619469,12.648 66.7389469,14.156 64.9709469,14.156 C64.2299469,14.156 63.6189469,13.909 63.1769469,13.376 L63.1769469,16.626 L61.9809469,16.769 L61.9809469,7.149 L63.0079469,7.149 L63.0989469,8.072 C63.6059469,7.37 64.3469469,6.993 65.1269469,6.993 Z M64.6849469,13.181 C65.7769469,13.181 66.3749469,12.362 66.3749469,10.568 C66.3749469,8.787 65.8549469,7.942 64.8279469,7.942 C64.0999469,7.942 63.5409469,8.462 63.1769469,9.008 L63.1769469,12.349 C63.5279469,12.882 64.0609469,13.181 64.6849469,13.181 Z M74.4479469,14 L72.0689469,10.334 L74.1749469,7.149 L72.8229469,7.149 L71.3799469,9.658 L69.9499469,7.149 L68.5459469,7.149 L70.6649469,10.386 L68.2729469,14 L69.6249469,14 L71.3279469,11.101 L73.0049469,14 L74.4479469,14 Z" transform="translate(100 204)"/>
    <g fill="#FFF" transform="translate(100 235)">
      <path d="M4.19594694 10.204L2.80494694 10.204 2.80494694 14 1.56994694 14 1.56994694 5.043 3.92294694 5.043C6.15894694 5.043 7.32894694 5.901 7.32894694 7.578 7.32894694 8.839 6.67894694 9.593 5.39194694 9.983L7.80994694 14 6.34094694 14 4.19594694 10.204zM4.05294694 9.255C5.30094694 9.255 6.01594694 8.787 6.01594694 7.578 6.01594694 6.46 5.37894694 6.005 3.90994694 6.005L2.80494694 6.005 2.80494694 9.255 4.05294694 9.255zM14.2189469 10.373C14.2189469 10.607 14.2059469 10.828 14.1929469 10.984L9.82494694 10.984C9.94194694 12.57 10.6829469 13.181 11.6709469 13.181 12.3469469 13.181 12.8539469 12.999 13.4519469 12.583L13.9719469 13.298C13.2959469 13.831 12.5289469 14.156 11.5799469 14.156 9.66894694 14.156 8.55094694 12.817 8.55094694 10.646 8.55094694 8.514 9.62994694 6.993 11.3979469 6.993 13.2439469 6.993 14.2189469 8.28 14.2189469 10.373zM13.0359469 10.1L13.0359469 10.022C13.0359469 8.683 12.5029469 7.942 11.4239469 7.942 10.5139469 7.942 9.91594694 8.579 9.82494694 10.1L13.0359469 10.1zM21.7199469 7.461C21.1479469 7.643 20.4979469 7.669 19.7179469 7.669 20.5239469 8.033 20.9269469 8.605 20.9269469 9.398 20.9269469 10.75 19.9519469 11.725 18.3139469 11.725 18.0019469 11.725 17.7289469 11.686 17.4429469 11.595 17.2479469 11.738 17.1049469 11.985 17.1049469 12.232 17.1049469 12.544 17.2999469 12.791 18.0019469 12.791L19.0939469 12.791C20.4979469 12.791 21.4339469 13.597 21.4339469 14.689 21.4339469 16.015 20.3419469 16.769 18.2229469 16.769 15.9869469 16.769 15.2849469 16.08 15.2849469 14.689L16.3639469 14.689C16.3639469 15.469 16.7149469 15.833 18.2229469 15.833 19.7049469 15.833 20.2249469 15.456 20.2249469 14.767 20.2249469 14.117 19.7049469 13.792 18.8469469 13.792L17.7679469 13.792C16.5459469 13.792 15.9999469 13.181 15.9999469 12.492 15.9999469 12.05 16.2599469 11.608 16.7539469 11.283 15.9609469 10.867 15.5969469 10.269 15.5969469 9.385 15.5969469 7.981 16.7279469 6.993 18.2359469 6.993 19.9389469 7.032 20.5629469 6.746 21.3689469 6.382L21.7199469 7.461zM18.2359469 7.851C17.3129469 7.851 16.8189469 8.488 16.8189469 9.385 16.8189469 10.295 17.3259469 10.932 18.2619469 10.932 19.1979469 10.932 19.7049469 10.36 19.7049469 9.372 19.7049469 8.371 19.2109469 7.851 18.2359469 7.851zM28.0509469 14L28.0509469 7.149 26.8549469 7.149 26.8549469 12.037C26.4389469 12.726 25.8799469 13.22 25.1389469 13.22 24.3979469 13.22 24.0859469 12.869 24.0859469 11.933L24.0859469 7.149 22.8899469 7.149 22.8899469 12.063C22.8899469 13.402 23.6049469 14.156 24.8009469 14.156 25.7759469 14.156 26.4129469 13.766 26.9329469 12.934L27.0239469 14 28.0509469 14zM31.6519469 12.622L31.6519469 4.25 30.4559469 4.393 30.4559469 12.648C30.4559469 13.636 30.9499469 14.156 31.8209469 14.156 32.1719469 14.156 32.5099469 14.078 32.8349469 13.922L32.5229469 13.09C32.3929469 13.142 32.2499469 13.168 32.0809469 13.168 31.7689469 13.168 31.6519469 12.986 31.6519469 12.622zM38.9449469 12.401C38.9449469 12.999 39.1659469 13.194 39.5169469 13.324L39.2439469 14.156C38.5549469 14.078 38.1129469 13.805 37.9049469 13.129 37.4239469 13.844 36.6959469 14.156 35.8639469 14.156 34.4989469 14.156 33.6799469 13.311 33.6799469 12.089 33.6799469 10.62 34.7849469 9.827 36.6959469 9.827L37.7489469 9.827 37.7489469 9.32C37.7489469 8.332 37.2679469 7.968 36.3189469 7.968 35.8119469 7.968 35.1749469 8.098 34.4729469 8.332L34.1739469 7.461C35.0189469 7.149 35.7729469 6.993 36.5399469 6.993 38.1909469 6.993 38.9449469 7.838 38.9449469 9.268L38.9449469 12.401zM36.1369469 13.259C36.8389469 13.259 37.3589469 12.908 37.7489469 12.193L37.7489469 10.62 36.8519469 10.62C35.5909469 10.62 34.9539469 11.088 34.9539469 12.024 34.9539469 12.83 35.3569469 13.259 36.1369469 13.259zM44.3789469 6.993C43.5469469 6.993 42.9099469 7.513 42.5459469 8.54L42.4289469 7.149 41.4019469 7.149 41.4019469 14 42.5979469 14 42.5979469 10.087C42.8839469 8.774 43.3779469 8.163 44.2359469 8.163 44.4829469 8.163 44.6259469 8.189 44.8339469 8.241L45.0549469 7.071C44.8469469 7.019 44.5999469 6.993 44.3789469 6.993zM52.8289469 14L52.8289469 5.303 51.7759469 5.303 49.0849469 6.967 49.6049469 7.812 51.6329469 6.577 51.6329469 14 52.8289469 14zM57.1839469 5.173C56.2479469 5.173 55.4419469 5.511 54.7009469 6.2L55.3249469 6.915C55.9099469 6.369 56.4299469 6.135 57.1189469 6.135 57.9899469 6.135 58.5619469 6.642 58.5619469 7.461 58.5619469 8.475 57.8469469 8.995 56.9889469 8.995L56.5469469 8.995 56.4039469 9.918 57.0539469 9.918C58.1069469 9.918 58.7829469 10.282 58.7829469 11.478 58.7829469 12.505 58.1199469 13.181 57.0279469 13.181 56.3259469 13.181 55.7279469 12.921 55.1819469 12.31L54.4539469 12.986C55.1169469 13.779 56.0269469 14.156 57.0669469 14.156 58.8739469 14.156 60.0309469 13.012 60.0309469 11.491 60.0309469 10.178 59.1599469 9.489 58.0679469 9.385 59.0429469 9.151 59.7579469 8.488 59.7579469 7.383 59.7579469 6.213 58.8479469 5.173 57.1839469 5.173zM65.1269469 6.993C66.9469469 6.993 67.6619469 8.41 67.6619469 10.568 67.6619469 12.648 66.7389469 14.156 64.9709469 14.156 64.2299469 14.156 63.6189469 13.909 63.1769469 13.376L63.1769469 16.626 61.9809469 16.769 61.9809469 7.149 63.0079469 7.149 63.0989469 8.072C63.6059469 7.37 64.3469469 6.993 65.1269469 6.993zM64.6849469 13.181C65.7769469 13.181 66.3749469 12.362 66.3749469 10.568 66.3749469 8.787 65.8549469 7.942 64.8279469 7.942 64.0999469 7.942 63.5409469 8.462 63.1769469 9.008L63.1769469 12.349C63.5279469 12.882 64.0609469 13.181 64.6849469 13.181zM74.4479469 14L72.0689469 10.334 74.1749469 7.149 72.8229469 7.149 71.3799469 9.658 69.9499469 7.149 68.5459469 7.149 70.6649469 10.386 68.2729469 14 69.6249469 14 71.3279469 11.101 73.0049469 14 74.4479469 14zM3.59194694 33.788L2.41494694 33.788 2.41494694 37 1.36994694 37 1.36994694 29.421 3.36094694 29.421C5.25294694 29.421 6.24294694 30.147 6.24294694 31.566 6.24294694 32.633 5.69294694 33.271 4.60394694 33.601L6.64994694 37 5.40694694 37 3.59194694 33.788zM3.47094694 32.985C4.52694694 32.985 5.13194694 32.589 5.13194694 31.566 5.13194694 30.62 4.59294694 30.235 3.34994694 30.235L2.41494694 30.235 2.41494694 32.985 3.47094694 32.985zM12.0729469 33.931C12.0729469 34.129 12.0619469 34.316 12.0509469 34.448L8.35494694 34.448C8.45394694 35.79 9.08094694 36.307 9.91694694 36.307 10.4889469 36.307 10.9179469 36.153 11.4239469 35.801L11.8639469 36.406C11.2919469 36.857 10.6429469 37.132 9.83994694 37.132 8.22294694 37.132 7.27694694 35.999 7.27694694 34.162 7.27694694 32.358 8.18994694 31.071 9.68594694 31.071 11.2479469 31.071 12.0729469 32.16 12.0729469 33.931zM11.0719469 33.7L11.0719469 33.634C11.0719469 32.501 10.6209469 31.874 9.70794694 31.874 8.93794694 31.874 8.43194694 32.413 8.35494694 33.7L11.0719469 33.7zM18.4199469 31.467C17.9359469 31.621 17.3859469 31.643 16.7259469 31.643 17.4079469 31.951 17.7489469 32.435 17.7489469 33.106 17.7489469 34.25 16.9239469 35.075 15.5379469 35.075 15.2739469 35.075 15.0429469 35.042 14.8009469 34.965 14.6359469 35.086 14.5149469 35.295 14.5149469 35.504 14.5149469 35.768 14.6799469 35.977 15.2739469 35.977L16.1979469 35.977C17.3859469 35.977 18.1779469 36.659 18.1779469 37.583 18.1779469 38.705 17.2539469 39.343 15.4609469 39.343 13.5689469 39.343 12.9749469 38.76 12.9749469 37.583L13.8879469 37.583C13.8879469 38.243 14.1849469 38.551 15.4609469 38.551 16.7149469 38.551 17.1549469 38.232 17.1549469 37.649 17.1549469 37.099 16.7149469 36.824 15.9889469 36.824L15.0759469 36.824C14.0419469 36.824 13.5799469 36.307 13.5799469 35.724 13.5799469 35.35 13.7999469 34.976 14.2179469 34.701 13.5469469 34.349 13.2389469 33.843 13.2389469 33.095 13.2389469 31.907 14.1959469 31.071 15.4719469 31.071 16.9129469 31.104 17.4409469 30.862 18.1229469 30.554L18.4199469 31.467zM15.4719469 31.797C14.6909469 31.797 14.2729469 32.336 14.2729469 33.095 14.2729469 33.865 14.7019469 34.404 15.4939469 34.404 16.2859469 34.404 16.7149469 33.92 16.7149469 33.084 16.7149469 32.237 16.2969469 31.797 15.4719469 31.797zM23.7769469 37L23.7769469 31.203 22.7649469 31.203 22.7649469 35.339C22.4129469 35.922 21.9399469 36.34 21.3129469 36.34 20.6859469 36.34 20.4219469 36.043 20.4219469 35.251L20.4219469 31.203 19.4099469 31.203 19.4099469 35.361C19.4099469 36.494 20.0149469 37.132 21.0269469 37.132 21.8519469 37.132 22.3909469 36.802 22.8309469 36.098L22.9079469 37 23.7769469 37zM26.8239469 35.834L26.8239469 28.75 25.8119469 28.871 25.8119469 35.856C25.8119469 36.692 26.2299469 37.132 26.9669469 37.132 27.2639469 37.132 27.5499469 37.066 27.8249469 36.934L27.5609469 36.23C27.4509469 36.274 27.3299469 36.296 27.1869469 36.296 26.9229469 36.296 26.8239469 36.142 26.8239469 35.834zM32.9949469 35.647C32.9949469 36.153 33.1819469 36.318 33.4789469 36.428L33.2479469 37.132C32.6649469 37.066 32.2909469 36.835 32.1149469 36.263 31.7079469 36.868 31.0919469 37.132 30.3879469 37.132 29.2329469 37.132 28.5399469 36.417 28.5399469 35.383 28.5399469 34.14 29.4749469 33.469 31.0919469 33.469L31.9829469 33.469 31.9829469 33.04C31.9829469 32.204 31.5759469 31.896 30.7729469 31.896 30.3439469 31.896 29.8049469 32.006 29.2109469 32.204L28.9579469 31.467C29.6729469 31.203 30.3109469 31.071 30.9599469 31.071 32.3569469 31.071 32.9949469 31.786 32.9949469 32.996L32.9949469 35.647zM30.6189469 36.373C31.2129469 36.373 31.6529469 36.076 31.9829469 35.471L31.9829469 34.14 31.2239469 34.14C30.1569469 34.14 29.6179469 34.536 29.6179469 35.328 29.6179469 36.01 29.9589469 36.373 30.6189469 36.373zM37.5929469 31.071C36.8889469 31.071 36.3499469 31.511 36.0419469 32.38L35.9429469 31.203 35.0739469 31.203 35.0739469 37 36.0859469 37 36.0859469 33.689C36.3279469 32.578 36.7459469 32.061 37.4719469 32.061 37.6809469 32.061 37.8019469 32.083 37.9779469 32.127L38.1649469 31.137C37.9889469 31.093 37.7799469 31.071 37.5929469 31.071zM44.7429469 37L44.7429469 29.641 43.8519469 29.641 41.5749469 31.049 42.0149469 31.764 43.7309469 30.719 43.7309469 37 44.7429469 37zM49.5059469 37L49.5059469 29.641 48.6149469 29.641 46.3379469 31.049 46.7779469 31.764 48.4939469 30.719 48.4939469 37 49.5059469 37zM54.4229469 31.071C55.9629469 31.071 56.5679469 32.27 56.5679469 34.096 56.5679469 35.856 55.7869469 37.132 54.2909469 37.132 53.6639469 37.132 53.1469469 36.923 52.7729469 36.472L52.7729469 39.222 51.7609469 39.343 51.7609469 31.203 52.6299469 31.203 52.7069469 31.984C53.1359469 31.39 53.7629469 31.071 54.4229469 31.071zM54.0489469 36.307C54.9729469 36.307 55.4789469 35.614 55.4789469 34.096 55.4789469 32.589 55.0389469 31.874 54.1699469 31.874 53.5539469 31.874 53.0809469 32.314 52.7729469 32.776L52.7729469 35.603C53.0699469 36.054 53.5209469 36.307 54.0489469 36.307zM62.3099469 37L60.2969469 33.898 62.0789469 31.203 60.9349469 31.203 59.7139469 33.326 58.5039469 31.203 57.3159469 31.203 59.1089469 33.942 57.0849469 37 58.2289469 37 59.6699469 34.547 61.0889469 37 62.3099469 37z"/>
    </g>
    <path fill="#FFF" d="M105.642,152.229 C106.643,152.424 107.67,152.918 107.67,154.374 C107.67,156.428 106.006,157 103.744,157 L100.845,157 L100.845,147.991 L103.393,147.991 C105.811,147.991 107.293,148.602 107.293,150.292 C107.293,151.436 106.474,152.034 105.642,152.229 Z M102.977,149.499 L102.977,151.592 L103.77,151.592 C104.654,151.592 105.122,151.254 105.122,150.5 C105.122,149.746 104.628,149.499 103.601,149.499 L102.977,149.499 Z M103.757,155.453 C104.758,155.453 105.473,155.245 105.473,154.257 C105.473,153.347 104.836,153.009 103.913,153.009 L102.977,153.009 L102.977,155.453 L103.757,155.453 Z M111.817,149.876 C113.923,149.876 115.197,151.228 115.197,153.555 C115.197,155.765 113.923,157.221 111.817,157.221 C109.724,157.221 108.437,155.869 108.437,153.542 C108.437,151.332 109.711,149.876 111.817,149.876 Z M111.817,151.384 C110.985,151.384 110.569,152.047 110.569,153.542 C110.569,155.076 110.985,155.713 111.817,155.713 C112.649,155.713 113.065,155.05 113.065,153.555 C113.065,152.021 112.649,151.384 111.817,151.384 Z M118.408,155.063 L118.408,147.133 L116.354,147.354 L116.354,155.271 C116.354,156.545 117.03,157.221 118.174,157.221 C118.655,157.221 119.149,157.13 119.5,156.987 L119.097,155.531 C119.006,155.57 118.863,155.596 118.759,155.596 C118.538,155.596 118.408,155.453 118.408,155.063 Z M126.338,147.354 L126.338,157 L124.518,157 L124.414,156.194 C124.011,156.766 123.387,157.221 122.451,157.221 C120.696,157.221 119.825,155.765 119.825,153.529 C119.825,151.397 120.904,149.876 122.685,149.876 C123.322,149.876 123.881,150.123 124.284,150.526 L124.284,147.133 L126.338,147.354 Z M123.101,155.713 C123.582,155.713 123.959,155.453 124.284,154.933 L124.284,151.956 C123.972,151.592 123.673,151.371 123.218,151.371 C122.477,151.371 121.957,151.995 121.957,153.542 C121.957,155.258 122.425,155.713 123.101,155.713 Z M135.191,157 L135.191,148.212 L133.358,148.212 L130.394,150.006 L131.291,151.371 L133.176,150.214 L133.176,157 L135.191,157 Z M139.364,148.03 C138.194,148.03 137.219,148.433 136.4,149.213 L137.414,150.318 C137.934,149.811 138.48,149.551 139.13,149.551 C139.845,149.551 140.3,149.928 140.3,150.565 C140.3,151.293 139.819,151.709 139.039,151.709 L138.532,151.709 L138.311,153.126 L139.039,153.126 C139.962,153.126 140.469,153.464 140.469,154.387 C140.469,155.193 139.91,155.661 139.104,155.661 C138.415,155.661 137.882,155.401 137.336,154.803 L136.205,155.895 C136.894,156.727 137.895,157.221 139.221,157.221 C141.392,157.221 142.575,155.986 142.575,154.517 C142.575,153.126 141.665,152.476 140.573,152.359 C141.652,152.047 142.289,151.332 142.289,150.266 C142.289,149.031 141.262,148.03 139.364,148.03 Z M147.684,149.876 C149.504,149.876 150.297,151.293 150.297,153.529 C150.297,155.661 149.257,157.221 147.554,157.221 C146.878,157.221 146.306,156.987 145.877,156.506 L145.877,159.665 L143.823,159.886 L143.823,150.097 L145.63,150.097 L145.734,150.864 C146.306,150.149 147.047,149.876 147.684,149.876 Z M146.93,155.713 C147.697,155.713 148.165,155.102 148.165,153.555 C148.165,151.839 147.749,151.384 147.034,151.384 C146.579,151.384 146.176,151.683 145.877,152.19 L145.877,155.102 C146.163,155.518 146.501,155.713 146.93,155.713 Z M157.304,157 L155.081,153.308 L156.966,150.097 L154.782,150.097 L153.859,152.307 L152.897,150.097 L150.596,150.097 L152.598,153.373 L150.375,157 L152.611,157 L153.781,154.413 L154.977,157 L157.304,157 Z"/>
  </g>
</svg>
