<svg xmlns="http://www.w3.org/2000/svg" width="316" height="215" viewBox="0 0 316 215">
  <g fill="none" fill-rule="evenodd">
    <rect width="316" height="321" fill="#0A84FF"/>
    <path fill="#FFF" d="M33.9433594 44L31.9453125 44 30.3125 39.6816406 23.78125 39.6816406 22.2451172 44 20.2363281 44 26.1445312 28.5957031 28.0136719 28.5957031 33.9433594 44zM29.7216797 38.0595703L27.3046875 31.4960938C27.2259111 31.2812489 27.1471358 30.9375024 27.0683594 30.4648438L27.0253906 30.4648438C26.9537757 30.9016949 26.8714197 31.2454415 26.7783203 31.4960938L24.3828125 38.0595703 29.7216797 38.0595703zM42.2363281 44L42.2363281 28.5957031 46.6191406 28.5957031C47.9511785 28.5957031 49.0074831 28.9215462 49.7880859 29.5732422 50.5686888 30.2249382 50.9589844 31.0735625 50.9589844 32.1191406 50.9589844 32.9928429 50.7226586 33.7519499 50.25 34.3964844 49.7773414 35.0410188 49.1256552 35.4993476 48.2949219 35.7714844L48.2949219 35.8144531C49.3333385 35.9361985 50.1640594 36.3282844 50.7871094 36.9907227 51.4101594 37.6531609 51.7216797 38.5143176 51.7216797 39.5742188 51.7216797 40.8919337 51.2490282 41.9589803 50.3037109 42.7753906 49.3583937 43.591801 48.1660228 44 46.7265625 44L42.2363281 44zM44.0410156 30.2285156L44.0410156 35.2021484 45.8886719 35.2021484C46.8769581 35.2021484 47.6539685 34.9640323 48.2197266 34.487793 48.7854846 34.0115536 49.0683594 33.3401736 49.0683594 32.4736328 49.0683594 30.9768805 48.0836687 30.2285156 46.1142578 30.2285156L44.0410156 30.2285156zM44.0410156 36.8242188L44.0410156 42.3671875 46.4902344 42.3671875C47.5501355 42.3671875 48.3719046 42.116539 48.9555664 41.6152344 49.5392282 41.1139298 49.8310547 40.4264367 49.8310547 39.5527344 49.8310547 37.7337149 48.5921348 36.8242188 46.1142578 36.8242188L44.0410156 36.8242188zM71.3583984 43.3554688C70.2197209 43.9570343 68.8017663 44.2578125 67.1044922 44.2578125 64.913075 44.2578125 63.1585352 43.5524159 61.8408203 42.1416016 60.5231054 40.7307872 59.8642578 38.8795688 59.8642578 36.5878906 59.8642578 34.1243366 60.6054613 32.1334711 62.0878906 30.6152344 63.5703199 29.0969976 65.4501839 28.3378906 67.7275391 28.3378906 69.1884839 28.3378906 70.3987582 28.5491515 71.3583984 28.9716797L71.3583984 30.8945312C70.2555283 30.2786428 69.0380926 29.9707031 67.7060547 29.9707031 65.9371656 29.9707031 64.5030979 30.5615175 63.4038086 31.7431641 62.3045192 32.9248106 61.7548828 34.5038964 61.7548828 36.4804688 61.7548828 38.3567802 62.2687123 39.8517197 63.2963867 40.965332 64.3240611 42.0789444 65.6721922 42.6357422 67.3408203 42.6357422 68.887703 42.6357422 70.2268824 42.2919956 71.3583984 41.6044922L71.3583984 43.3554688zM80.5214844 44L80.5214844 28.5957031 84.7753906 28.5957031C90.2038032 28.5957031 92.9179688 31.0986078 92.9179688 36.1044922 92.9179688 38.4821082 92.1642328 40.3924081 90.6567383 41.8354492 89.1492438 43.2784903 87.1315231 44 84.6035156 44L80.5214844 44zM82.3261719 30.2285156L82.3261719 42.3671875 84.625 42.3671875C86.6445413 42.3671875 88.2164657 41.8265028 89.3408203 40.7451172 90.4651749 39.6637316 91.0273438 38.1311948 91.0273438 36.1474609 91.0273438 32.2014777 88.9290574 30.2285156 84.7324219 30.2285156L82.3261719 30.2285156zM110.137695 44L101.973633 44 101.973633 28.5957031 109.793945 28.5957031 109.793945 30.2285156 103.77832 30.2285156 103.77832 35.3525391 109.342773 35.3525391 109.342773 36.9746094 103.77832 36.9746094 103.77832 42.3671875 110.137695 42.3671875 110.137695 44zM126.949219 30.2285156L120.933594 30.2285156 120.933594 35.5566406 126.498047 35.5566406 126.498047 37.1787109 120.933594 37.1787109 120.933594 44 119.128906 44 119.128906 28.5957031 126.949219 28.5957031 126.949219 30.2285156zM147.413086 42.9472656C145.866203 43.8209679 144.14747 44.2578125 142.256836 44.2578125 140.058257 44.2578125 138.280443 43.5488352 136.92334 42.1308594 135.566237 40.7128835 134.887695 38.8366002 134.887695 36.5019531 134.887695 34.1171756 135.641431 32.1603267 137.148926 30.6313477 138.65642 29.1023687 140.56672 28.3378906 142.879883 28.3378906 144.555672 28.3378906 145.962885 28.6100233 147.101562 29.1542969L147.101562 31.1523438C145.855463 30.3645794 144.380217 29.9707031 142.675781 29.9707031 140.949861 29.9707031 139.535487 30.5650982 138.432617 31.7539062 137.329747 32.9427143 136.77832 34.4824124 136.77832 36.3730469 136.77832 38.3209733 137.290359 39.8517197 138.314453 40.965332 139.338547 42.0789444 140.727856 42.6357422 142.482422 42.6357422 143.685553 42.6357422 144.727535 42.3958357 145.608398 41.9160156L145.608398 37.5976562 142.235352 37.5976562 142.235352 35.9648438 147.413086 35.9648438 147.413086 42.9472656zM168.59668 44L166.791992 44 166.791992 36.9746094 158.821289 36.9746094 158.821289 44 157.016602 44 157.016602 28.5957031 158.821289 28.5957031 158.821289 35.3525391 166.791992 35.3525391 166.791992 28.5957031 168.59668 28.5957031 168.59668 44zM180.466797 44L178.662109 44 178.662109 28.5957031 180.466797 28.5957031 180.466797 44zM194.485352 38.4785156C194.485352 40.3046966 194.098637 41.7244415 193.325195 42.737793 192.551754 43.7511444 191.516934 44.2578125 190.220703 44.2578125 189.619138 44.2578125 189.125002 44.1718759 188.738281 44L188.738281 42.2167969C189.125002 42.4960951 189.626299 42.6357422 190.242188 42.6357422 191.867847 42.6357422 192.680664 41.2571752 192.680664 38.5L192.680664 28.5957031 194.485352 28.5957031 194.485352 38.4785156zM215.142578 44L212.628906 44 206.677734 36.953125C206.455728 36.6881497 206.319662 36.509115 206.269531 36.4160156L206.226562 36.4160156 206.226562 44 204.421875 44 204.421875 28.5957031 206.226562 28.5957031 206.226562 35.8359375 206.269531 35.8359375C206.369792 35.6783846 206.505859 35.5029307 206.677734 35.3095703L212.435547 28.5957031 214.680664 28.5957031 208.074219 35.9863281 215.142578 44zM231.202148 44L223.209961 44 223.209961 28.5957031 225.014648 28.5957031 225.014648 42.3671875 231.202148 42.3671875 231.202148 44zM255.296875 44L253.50293 44 253.50293 33.6660156C253.50293 32.8496053 253.553059 31.8505918 253.65332 30.6689453L253.610352 30.6689453C253.438476 31.3636102 253.284506 31.8613266 253.148438 32.1621094L247.884766 44 247.003906 44 241.750977 32.2480469C241.600585 31.9042952 241.446615 31.3779332 241.289062 30.6689453L241.246094 30.6689453C241.303386 31.2848338 241.332031 32.2910086 241.332031 33.6875L241.332031 44 239.591797 44 239.591797 28.5957031 241.976562 28.5957031 246.703125 39.3378906C247.068361 40.1614625 247.304687 40.7773417 247.412109 41.1855469L247.476562 41.1855469C247.784507 40.3404906 248.031575 39.7102885 248.217773 39.2949219L253.041016 28.5957031 255.296875 28.5957031 255.296875 44zM277.791016 44L275.578125 44 267.650391 31.7216797C267.449869 31.4137354 267.285157 31.091473 267.15625 30.7548828L267.091797 30.7548828C267.149089 31.0843115 267.177734 31.7897081 267.177734 32.8710938L267.177734 44 265.373047 44 265.373047 28.5957031 267.714844 28.5957031 275.427734 40.6806641C275.750002 41.1819687 275.957682 41.5257152 276.050781 41.7119141L276.09375 41.7119141C276.022135 41.2679014 275.986328 40.5123751 275.986328 39.4453125L275.986328 28.5957031 277.791016 28.5957031 277.791016 44zM28.2285156 74.2578125C26.0442599 74.2578125 24.2950912 73.5380931 22.980957 72.0986328 21.6668229 70.6591725 21.0097656 68.7864699 21.0097656 66.4804688 21.0097656 64.0025918 21.6793553 62.026049 23.0185547 60.5507812 24.3577541 59.0755135 26.180327 58.3378906 28.4863281 58.3378906 30.6132919 58.3378906 32.3266537 59.0540293 33.6264648 60.4863281 34.926276 61.918627 35.5761719 63.7913296 35.5761719 66.1044922 35.5761719 68.6181766 34.9101629 70.6054614 33.578125 72.0664062 32.2460871 73.5273511 30.4629018 74.2578125 28.2285156 74.2578125zM28.3574219 59.9707031C26.7389242 59.9707031 25.4248097 60.5543561 24.4150391 61.7216797 23.4052684 62.8890032 22.9003906 64.42154 22.9003906 66.3193359 22.9003906 68.2171319 23.392736 69.7442976 24.3774414 70.9008789 25.3621469 72.0574602 26.6458254 72.6357422 28.2285156 72.6357422 29.9186282 72.6357422 31.2506462 72.0843154 32.2246094 70.9814453 33.1985726 69.8785752 33.6855469 68.3352964 33.6855469 66.3515625 33.6855469 64.3176982 33.2128954 62.7457738 32.2675781 61.6357422 31.3222609 60.5257106 30.0188885 59.9707031 28.3574219 59.9707031zM46.4365234 68.1777344L46.4365234 74 44.6318359 74 44.6318359 58.5957031 48.8642578 58.5957031C50.5114015 58.5957031 51.7879186 58.9967408 52.6938477 59.7988281 53.5997767 60.6009155 54.0527344 61.7324146 54.0527344 63.1933594 54.0527344 64.6543042 53.549647 65.8502558 52.543457 66.78125 51.5372671 67.7122442 50.178394 68.1777344 48.4667969 68.1777344L46.4365234 68.1777344zM46.4365234 60.2285156L46.4365234 66.5449219 48.3271484 66.5449219C49.5732484 66.5449219 50.5239225 66.2602568 51.1791992 65.690918 51.8344759 65.1215792 52.1621094 64.3177135 52.1621094 63.2792969 52.1621094 61.2454325 50.9589964 60.2285156 48.5527344 60.2285156L46.4365234 60.2285156zM69.1884766 74.2578125C67.0113823 74.2578125 65.2604233 73.5380931 63.9355469 72.0986328 62.6249934 70.6591725 61.9697266 68.7864699 61.9697266 66.4804688 61.9697266 63.9954303 62.6393162 62.0188875 63.9785156 60.5507812 65.3248765 59.0755135 67.1474494 58.3378906 69.4462891 58.3378906 71.5660913 58.3378906 73.2776628 59.0540293 74.5810547 60.4863281 75.8844466 61.918627 76.5361328 63.7913296 76.5361328 66.1044922 76.5361328 68.6181766 75.8701238 70.6054614 74.5380859 72.0664062 74.2229802 72.4173195 73.886395 72.7180977 73.5283203 72.96875L77.8574219 76.0732422 74.5810547 76.0732422 71.6806641 73.9033203C70.9215457 74.1396496 70.0908248 74.2578125 69.1884766 74.2578125zM69.3173828 59.9707031C67.6988851 59.9707031 66.3847707 60.5543561 65.375 61.7216797 64.3652293 62.8890032 63.8603516 64.42154 63.8603516 66.3193359 63.8603516 68.2099704 64.3509066 69.7389265 65.3320312 70.90625 66.3203174 72.0592506 67.6057864 72.6357422 69.1884766 72.6357422 70.8785892 72.6357422 72.2106071 72.0843154 73.1845703 70.9814453 74.1585335 69.8785752 74.6455078 68.3352964 74.6455078 66.3515625 74.6455078 64.3105367 74.1728563 62.7386123 73.2275391 61.6357422 72.2822218 60.5257106 70.9788495 59.9707031 69.3173828 59.9707031zM96.6347656 74L94.4863281 74 91.9082031 69.6816406C91.6718738 69.280597 91.4427094 68.9386407 91.2207031 68.6557617 90.9986968 68.3728827 90.7713228 68.141928 90.5385742 67.9628906 90.3058257 67.7838533 90.0551771 67.653158 89.7866211 67.5708008 89.5180651 67.4884436 89.2154965 67.4472656 88.8789062 67.4472656L87.3964844 67.4472656 87.3964844 74 85.5917969 74 85.5917969 58.5957031 90.1894531 58.5957031C90.8626336 58.5957031 91.4838839 58.6798494 92.0532227 58.8481445 92.6225614 59.0164396 93.1166971 59.2724592 93.5356445 59.6162109 93.9545919 59.9599627 94.2822254 60.3878555 94.5185547 60.8999023 94.754884 61.4119492 94.8730469 62.0117153 94.8730469 62.6992188 94.8730469 63.2363308 94.7924813 63.7286761 94.6313477 64.1762695 94.470214 64.6238629 94.2410497 65.0231102 93.9438477 65.3740234 93.6466456 65.7249367 93.2885763 66.0239245 92.8696289 66.2709961 92.4506815 66.5180676 91.9798203 66.7096347 91.4570312 66.8457031L91.4570312 66.8886719C91.714845 67.0032558 91.9386384 67.1339511 92.128418 67.2807617 92.3181976 67.4275723 92.4990226 67.601236 92.6708984 67.8017578 92.8427743 68.0022796 93.0128572 68.2296537 93.1811523 68.4838867 93.3494475 68.7381198 93.5374339 69.033527 93.7451172 69.3701172L96.6347656 74zM87.3964844 60.2285156L87.3964844 65.8144531 89.8457031 65.8144531C90.2968773 65.8144531 90.714028 65.74642 91.097168 65.6103516 91.4803079 65.4742832 91.811522 65.2791354 92.0908203 65.0249023 92.3701186 64.7706693 92.5885409 64.459149 92.7460938 64.090332 92.9036466 63.7215151 92.9824219 63.307945 92.9824219 62.8496094 92.9824219 62.0260375 92.7156602 61.3833031 92.1821289 60.9213867 91.6485976 60.4594703 90.8769582 60.2285156 89.8671875 60.2285156L87.3964844 60.2285156zM104.057617 73.3769531L104.057617 71.25C104.301108 71.4648448 104.592934 71.6582023 104.933105 71.8300781 105.273276 72.001954 105.631346 72.1469721 106.007324 72.2651367 106.383303 72.3833014 106.761066 72.4746091 107.140625 72.5390625 107.520184 72.6035159 107.871092 72.6357422 108.193359 72.6357422 109.303391 72.6357422 110.132321 72.4298523 110.680176 72.0180664 111.22803 71.6062805 111.501953 71.0136757 111.501953 70.2402344 111.501953 69.8248677 111.410645 69.4632177 111.228027 69.1552734 111.045409 68.8473292 110.79297 68.5662448 110.470703 68.3120117 110.148436 68.0577787 109.767092 67.8142915 109.32666 67.581543 108.886228 67.3487944 108.411786 67.1035169 107.90332 66.8457031 107.366208 66.5735663 106.864911 66.297853 106.399414 66.0185547 105.933917 65.7392564 105.529299 65.4313168 105.185547 65.0947266 104.841795 64.7581363 104.571453 64.3767925 104.374512 63.9506836 104.177571 63.5245747 104.079102 63.025068 104.079102 62.4521484 104.079102 61.750322 104.233071 61.1398138 104.541016 60.6206055 104.84896 60.1013971 105.253578 59.6735043 105.754883 59.3369141 106.256187 59.0003238 106.827308 58.7496753 107.468262 58.5849609 108.109215 58.4202466 108.762692 58.3378906 109.428711 58.3378906 110.946948 58.3378906 112.053382 58.520506 112.748047 58.8857422L112.748047 60.9160156C111.838537 60.2858041 110.671231 59.9707031 109.246094 59.9707031 108.852212 59.9707031 108.458335 60.0118811 108.064453 60.0942383 107.670571 60.1765955 107.319663 60.3108715 107.011719 60.4970703 106.703775 60.6832692 106.453126 60.9231756 106.259766 61.2167969 106.066405 61.5104181 105.969727 61.8684875 105.969727 62.2910156 105.969727 62.6848978 106.043131 63.0250637 106.189941 63.3115234 106.336752 63.5979832 106.553384 63.8593738 106.839844 64.0957031 107.126304 64.3320324 107.475421 64.5611968 107.887207 64.7832031 108.298993 65.0052094 108.773435 65.2486966 109.310547 65.5136719 109.861982 65.7858087 110.384763 66.0722641 110.878906 66.3730469 111.373049 66.6738296 111.806313 67.0068341 112.178711 67.3720703 112.551109 67.7373065 112.846516 68.1419249 113.064941 68.5859375 113.283367 69.0299501 113.392578 69.5384086 113.392578 70.1113281 113.392578 70.8704465 113.243979 71.513181 112.946777 72.0395508 112.649575 72.5659206 112.248538 72.9938135 111.743652 73.3232422 111.238767 73.6526709 110.656904 73.890787 109.998047 74.0375977 109.339189 74.1844083 108.644535 74.2578125 107.914062 74.2578125 107.670572 74.2578125 107.369793 74.2381187 107.011719 74.1987305 106.653644 74.1593423 106.288413 74.1020512 105.916016 74.0268555 105.543618 73.9516598 105.19092 73.8585618 104.85791 73.7475586 104.524901 73.6365554 104.258139 73.5130215 104.057617 73.3769531zM131.600586 60.2285156L127.15332 60.2285156 127.15332 74 125.348633 74 125.348633 60.2285156 120.912109 60.2285156 120.912109 58.5957031 131.600586 58.5957031 131.600586 60.2285156zM151.3125 67.7695312C151.3125 72.0950737 149.361022 74.2578125 145.458008 74.2578125 141.719708 74.2578125 139.850586 72.1774297 139.850586 68.0166016L139.850586 58.5957031 141.655273 58.5957031 141.655273 67.8984375C141.655273 71.0566564 142.987291 72.6357422 145.651367 72.6357422 148.222344 72.6357422 149.507812 71.1103668 149.507812 68.0595703L149.507812 58.5957031 151.3125 58.5957031 151.3125 67.7695312zM172.635742 58.5957031L166.931641 74 164.944336 74 159.358398 58.5957031 161.367188 58.5957031 165.631836 70.8095703C165.767904 71.2034525 165.871744 71.6582005 165.943359 72.1738281L165.986328 72.1738281C166.04362 71.7441385 166.161783 71.282229 166.34082 70.7880859L170.691406 58.5957031 172.635742 58.5957031zM199.136719 58.5957031L194.786133 74 192.669922 74 189.500977 62.7421875C189.364908 62.2623674 189.282552 61.7395862 189.253906 61.1738281L189.210938 61.1738281C189.167969 61.7037787 189.074871 62.2193985 188.931641 62.7207031L185.741211 74 183.646484 74 179.134766 58.5957031 181.12207 58.5957031 184.398438 70.4121094C184.534506 70.9062525 184.620443 71.4218723 184.65625 71.9589844L184.709961 71.9589844C184.745768 71.5794252 184.85677 71.0638053 185.042969 70.4121094L188.448242 58.5957031 190.177734 58.5957031 193.443359 70.4980469C193.557943 70.906252 193.64388 71.386065 193.701172 71.9375L193.744141 71.9375C193.772787 71.5651023 193.869465 71.0709666 194.03418 70.4550781L197.181641 58.5957031 199.136719 58.5957031zM218.085938 74L215.883789 74 212.338867 68.1025391C212.231445 67.9235017 212.113282 67.6692725 211.984375 67.3398438L211.941406 67.3398438C211.869791 67.5045581 211.748048 67.7587873 211.576172 68.1025391L207.923828 74 205.710938 74 210.867188 66.2548828 206.119141 58.5957031 208.332031 58.5957031 211.479492 64.0097656C211.687176 64.3678403 211.869791 64.7259097 212.027344 65.0839844L212.070312 65.0839844C212.29948 64.6113258 212.499999 64.2389337 212.671875 63.9667969L215.948242 58.5957031 218.021484 58.5957031 213.176758 66.2333984 218.085938 74zM236.46582 58.5957031L231.384766 68.3066406 231.384766 74 229.580078 74 229.580078 68.3496094 224.62793 58.5957031 226.679688 58.5957031 230.12793 65.5566406C230.170899 65.6425786 230.296223 65.9576796 230.503906 66.5019531L230.536133 66.5019531C230.607748 66.2584623 230.743814 65.9433613 230.944336 65.5566406L234.553711 58.5957031 236.46582 58.5957031zM254.695312 59.0253906L245.671875 72.3671875 254.480469 72.3671875 254.480469 74 242.975586 74 242.975586 73.4951172 251.923828 60.2285156 243.695312 60.2285156 243.695312 58.5957031 254.695312 58.5957031 254.695312 59.0253906zM29.6572266 114L27.8955078 114 27.8955078 112.28125 27.8525391 112.28125C27.0862592 113.598965 25.9583408 114.257812 24.46875 114.257812 23.3730414 114.257812 22.5154653 113.967776 21.8959961 113.387695 21.2765269 112.807614 20.9667969 112.037765 20.9667969 111.078125 20.9667969 109.022776 22.1770712 107.826825 24.5976562 107.490234L27.8955078 107.02832C27.8955078 105.15917 27.1399815 104.224609 25.6289062 104.224609 24.3040298 104.224609 23.1080783 104.675777 22.0410156 105.578125L22.0410156 103.773438C23.1224012 103.085934 24.3684825 102.742188 25.7792969 102.742188 28.3645963 102.742188 29.6572266 104.110012 29.6572266 106.845703L29.6572266 114zM27.8955078 108.435547L25.2421875 108.800781C24.4257772 108.915365 23.8098979 109.117674 23.3945312 109.407715 22.9791646 109.697755 22.7714844 110.211585 22.7714844 110.949219 22.7714844 111.486331 22.9630515 111.924966 23.3461914 112.265137 23.7293313 112.605308 24.2395801 112.775391 24.8769531 112.775391 25.7506554 112.775391 26.4721651 112.469241 27.0415039 111.856934 27.6108427 111.244626 27.8955078 110.469406 27.8955078 109.53125L27.8955078 108.435547zM40.8076172 112.410156L40.7646484 112.410156 40.7646484 114 39.0029297 114 39.0029297 97.7148438 40.7646484 97.7148438 40.7646484 104.933594 40.8076172 104.933594C41.674158 103.472649 42.9417234 102.742188 44.6103516 102.742188 46.0211659 102.742188 47.1258098 103.234533 47.9243164 104.219238 48.722823 105.203944 49.1220703 106.523429 49.1220703 108.177734 49.1220703 110.018238 48.6744836 111.491694 47.7792969 112.598145 46.8841101 113.704595 45.659513 114.257812 44.1054688 114.257812 42.6516854 114.257812 41.5524126 113.641933 40.8076172 112.410156zM40.7646484 107.973633L40.7646484 109.509766C40.7646484 110.419275 41.0600556 111.190915 41.6508789 111.824707 42.2417022 112.458499 42.9918574 112.775391 43.9013672 112.775391 44.9684298 112.775391 45.8045217 112.367192 46.409668 111.550781 47.0148142 110.734371 47.3173828 109.599291 47.3173828 108.145508 47.3173828 106.920892 47.034508 105.961266 46.46875 105.266602 45.902992 104.571937 45.1367236 104.224609 44.1699219 104.224609 43.1458282 104.224609 42.3222687 104.580888 41.6992188 105.293457 41.0761688 106.006026 40.7646484 106.899409 40.7646484 107.973633zM65.4609375 113.495117C64.6158812 114.003583 63.6132871 114.257812 62.453125 114.257812 60.8847578 114.257812 59.6189827 113.747564 58.6557617 112.727051 57.6925408 111.706538 57.2109375 110.383472 57.2109375 108.757812 57.2109375 106.945954 57.730138 105.490403 58.7685547 104.391113 59.8069713 103.291824 61.1926997 102.742188 62.9257812 102.742188 63.892583 102.742188 64.744788 102.921222 65.4824219 103.279297L65.4824219 105.083984C64.6660115 104.511065 63.7923224 104.224609 62.8613281 104.224609 61.7369735 104.224609 60.814945 104.627437 60.0952148 105.433105 59.3754847 106.238774 59.015625 107.296868 59.015625 108.607422 59.015625 109.896491 59.3540005 110.913408 60.0307617 111.658203 60.7075229 112.402999 61.6152287 112.775391 62.7539062 112.775391 63.7135465 112.775391 64.6158812 112.456709 65.4609375 111.819336L65.4609375 113.495117zM83.5400391 114L81.7783203 114 81.7783203 112.130859 81.7353516 112.130859C80.9189412 113.548835 79.6585372 114.257812 77.9541016 114.257812 76.5719332 114.257812 75.4672893 113.765467 74.6401367 112.780762 73.8129841 111.796056 73.3994141 110.455087 73.3994141 108.757812 73.3994141 106.938793 73.8577428 105.481451 74.7744141 104.385742 75.6910853 103.290034 76.9121017 102.742188 78.4375 102.742188 79.9485753 102.742188 81.0478481 103.336583 81.7353516 104.525391L81.7783203 104.525391 81.7783203 97.7148438 83.5400391 97.7148438 83.5400391 114zM81.7783203 109.026367L81.7783203 107.404297C81.7783203 106.516272 81.4847035 105.764326 80.8974609 105.148438 80.3102184 104.532549 79.5654342 104.224609 78.6630859 104.224609 77.5888618 104.224609 76.7438182 104.618486 76.1279297 105.40625 75.5120412 106.194014 75.2041016 107.282545 75.2041016 108.671875 75.2041016 109.939459 75.4995088 110.940263 76.090332 111.674316 76.6811553 112.40837 77.4742789 112.775391 78.4697266 112.775391 79.4508513 112.775391 80.2475555 112.420902 80.8598633 111.711914 81.472171 111.002926 81.7783203 110.107753 81.7783203 109.026367zM101.973633 108.94043L94.2070312 108.94043C94.2356772 110.165045 94.565101 111.110348 95.1953125 111.776367 95.825524 112.442386 96.6920518 112.775391 97.7949219 112.775391 99.0338604 112.775391 100.172521 112.367192 101.210938 111.550781L101.210938 113.205078C100.244136 113.906905 98.9658283 114.257812 97.3759766 114.257812 95.8219323 114.257812 94.6009159 113.758306 93.7128906 112.759277 92.8248654 111.760249 92.3808594 110.354827 92.3808594 108.542969 92.3808594 106.831372 92.8660433 105.436692 93.8364258 104.358887 94.8068082 103.281082 96.0117116 102.742188 97.4511719 102.742188 98.8906322 102.742188 100.004228 103.207678 100.791992 104.138672 101.579757 105.069666 101.973633 106.362296 101.973633 108.016602L101.973633 108.94043zM100.168945 107.447266C100.161784 106.430333 99.9165063 105.639 99.4331055 105.073242 98.9497046 104.507484 98.2783246 104.224609 97.4189453 104.224609 96.588212 104.224609 95.8828154 104.521807 95.3027344 105.116211 94.7226533 105.710615 94.364584 106.487625 94.2285156 107.447266L100.168945 107.447266zM116.099609 99.2617188C115.755858 99.0683584 115.365562 98.9716797 114.928711 98.9716797 113.696934 98.9716797 113.081055 99.7486901 113.081055 101.302734L113.081055 103 115.65918 103 115.65918 104.503906 113.081055 104.503906 113.081055 114 111.330078 114 111.330078 104.503906 109.450195 104.503906 109.450195 103 111.330078 103 111.330078 101.216797C111.330078 100.063796 111.663083 99.1525099 112.329102 98.4829102 112.995121 97.8133105 113.825841 97.4785156 114.821289 97.4785156 115.358401 97.4785156 115.784504 97.5429681 116.099609 97.671875L116.099609 99.2617188zM132.964844 113.119141C132.964844 117.158223 131.031269 119.177734 127.164062 119.177734 125.803379 119.177734 124.614588 118.919924 123.597656 118.404297L123.597656 116.642578C124.836595 117.330082 126.018224 117.673828 127.142578 117.673828 129.849623 117.673828 131.203125 116.234389 131.203125 113.355469L131.203125 112.152344 131.160156 112.152344C130.322261 113.555997 129.061857 114.257812 127.378906 114.257812 126.011061 114.257812 124.909998 113.769048 124.075684 112.791504 123.24137 111.81396 122.824219 110.501636 122.824219 108.854492 122.824219 106.985342 123.273596 105.499354 124.172363 104.396484 125.071131 103.293614 126.301099 102.742188 127.862305 102.742188 129.344734 102.742188 130.444007 103.336583 131.160156 104.525391L131.203125 104.525391 131.203125 103 132.964844 103 132.964844 113.119141zM131.203125 109.026367L131.203125 107.404297C131.203125 106.530595 130.907718 105.78223 130.316895 105.15918 129.726071 104.53613 128.990239 104.224609 128.109375 104.224609 127.020828 104.224609 126.168623 104.620276 125.552734 105.411621 124.936846 106.202966 124.628906 107.311191 124.628906 108.736328 124.628906 109.960944 124.924313 110.940263 125.515137 111.674316 126.10596 112.40837 126.888341 112.775391 127.862305 112.775391 128.850591 112.775391 129.654457 112.424483 130.273926 111.722656 130.893395 111.02083 131.203125 110.122076 131.203125 109.026367zM151.688477 114L149.926758 114 149.926758 107.662109C149.926758 105.370431 149.074553 104.224609 147.370117 104.224609 146.510738 104.224609 145.787438 104.555824 145.200195 105.218262 144.612953 105.8807 144.319336 106.731115 144.319336 107.769531L144.319336 114 142.557617 114 142.557617 97.7148438 144.319336 97.7148438 144.319336 104.826172 144.362305 104.826172C145.207361 103.436842 146.410474 102.742188 147.97168 102.742188 150.449557 102.742188 151.688477 104.235337 151.688477 107.22168L151.688477 114zM161.936523 100.207031C161.621418 100.207031 161.352866 100.09961 161.130859 99.8847656 160.908853 99.6699208 160.797852 99.3977881 160.797852 99.0683594 160.797852 98.7389306 160.908853 98.4650076 161.130859 98.246582 161.352866 98.0281565 161.621418 97.9189453 161.936523 97.9189453 162.258791 97.9189453 162.532714 98.0281565 162.758301 98.246582 162.983888 98.4650076 163.09668 98.7389306 163.09668 99.0683594 163.09668 99.3834651 162.983888 99.6520171 162.758301 99.8740234 162.532714 100.09603 162.258791 100.207031 161.936523 100.207031zM162.795898 114L161.03418 114 161.03418 103 162.795898 103 162.795898 114zM174.150391 113.538086C174.150391 115.342782 173.78695 116.733882 173.060059 117.711426 172.333167 118.68897 171.292976 119.177734 169.939453 119.177734 169.438149 119.177734 168.951174 119.063152 168.478516 118.833984L168.478516 117.19043C169.008466 117.512697 169.509763 117.673828 169.982422 117.673828 171.586597 117.673828 172.388672 116.39194 172.388672 113.828125L172.388672 103 174.150391 103 174.150391 113.538086zM173.291016 100.207031C172.97591 100.207031 172.707358 100.09961 172.485352 99.8847656 172.263345 99.6699208 172.152344 99.3977881 172.152344 99.0683594 172.152344 98.7389306 172.263345 98.4650076 172.485352 98.246582 172.707358 98.0281565 172.97591 97.9189453 173.291016 97.9189453 173.613283 97.9189453 173.887206 98.0281565 174.112793 98.246582 174.33838 98.4650076 174.451172 98.7389306 174.451172 99.0683594 174.451172 99.3834651 174.33838 99.6520171 174.112793 99.8740234 173.887206 100.09603 173.613283 100.207031 173.291016 100.207031zM192.874023 114L190.40332 114 185.547852 108.714844 185.504883 108.714844 185.504883 114 183.743164 114 183.743164 97.7148438 185.504883 97.7148438 185.504883 108.038086 185.547852 108.038086 190.166992 103 192.476562 103 187.374023 108.306641 192.874023 114zM202.466797 114L200.705078 114 200.705078 97.7148438 202.466797 97.7148438 202.466797 114zM227.678711 114L225.916992 114 225.916992 107.683594C225.916992 106.46614 225.729006 105.585289 225.353027 105.041016 224.977049 104.496742 224.345057 104.224609 223.457031 104.224609 222.705074 104.224609 222.065921 104.568356 221.539551 105.255859 221.013181 105.943363 220.75 106.766922 220.75 107.726562L220.75 114 218.988281 114 218.988281 107.46875C218.988281 105.305979 218.15398 104.224609 216.485352 104.224609 215.71191 104.224609 215.074547 104.548662 214.573242 105.196777 214.071938 105.844893 213.821289 106.688146 213.821289 107.726562L213.821289 114 212.05957 114 212.05957 103 213.821289 103 213.821289 104.740234 213.864258 104.740234C214.644861 103.408196 215.783521 102.742188 217.280273 102.742188 218.03223 102.742188 218.687497 102.951658 219.246094 103.370605 219.80469 103.789553 220.187824 104.339189 220.395508 105.019531 221.211918 103.501294 222.429354 102.742188 224.047852 102.742188 226.468437 102.742188 227.678711 104.235337 227.678711 107.22168L227.678711 114zM246.166016 114L244.404297 114 244.404297 107.726562C244.404297 105.391915 243.552092 104.224609 241.847656 104.224609 240.966792 104.224609 240.238121 104.555824 239.661621 105.218262 239.085121 105.8807 238.796875 106.716792 238.796875 107.726562L238.796875 114 237.035156 114 237.035156 103 238.796875 103 238.796875 104.826172 238.839844 104.826172C239.670577 103.436842 240.87369 102.742188 242.449219 102.742188 243.65235 102.742188 244.572588 103.130693 245.209961 103.907715 245.847334 104.684737 246.166016 105.807284 246.166016 107.275391L246.166016 114zM260.109375 114.257812C258.483716 114.257812 257.185714 113.743983 256.215332 112.716309 255.24495 111.688634 254.759766 110.32618 254.759766 108.628906 254.759766 106.781241 255.264643 105.338221 256.274414 104.299805 257.284185 103.261388 258.648429 102.742188 260.367188 102.742188 262.00717 102.742188 263.287268 103.247065 264.20752 104.256836 265.127772 105.266607 265.587891 106.666658 265.587891 108.457031 265.587891 110.211597 265.091965 111.617019 264.100098 112.67334 263.108231 113.72966 261.778003 114.257812 260.109375 114.257812zM260.238281 104.224609C259.106765 104.224609 258.211592 104.609534 257.552734 105.379395 256.893877 106.149255 256.564453 107.210931 256.564453 108.564453 256.564453 109.867845 256.897458 110.895504 257.563477 111.647461 258.229496 112.399418 259.121088 112.775391 260.238281 112.775391 261.376959 112.775391 262.252438 112.406579 262.864746 111.668945 263.477054 110.931311 263.783203 109.882168 263.783203 108.521484 263.783203 107.146478 263.477054 106.086592 262.864746 105.341797 262.252438 104.597001 261.376959 104.224609 260.238281 104.224609zM276.233398 112.410156L276.19043 112.410156 276.19043 119.05957 274.428711 119.05957 274.428711 103 276.19043 103 276.19043 104.933594 276.233398 104.933594C277.099939 103.472649 278.367505 102.742188 280.036133 102.742188 281.454109 102.742188 282.560543 103.234533 283.355469 104.219238 284.150395 105.203944 284.547852 106.523429 284.547852 108.177734 284.547852 110.018238 284.100265 111.491694 283.205078 112.598145 282.309891 113.704595 281.085294 114.257812 279.53125 114.257812 278.106113 114.257812 277.00684 113.641933 276.233398 112.410156zM276.19043 107.973633L276.19043 109.509766C276.19043 110.419275 276.485837 111.190915 277.07666 111.824707 277.667483 112.458499 278.417639 112.775391 279.327148 112.775391 280.394211 112.775391 281.230303 112.367192 281.835449 111.550781 282.440595 110.734371 282.743164 109.599291 282.743164 108.145508 282.743164 106.920892 282.460289 105.961266 281.894531 105.266602 281.328773 104.571937 280.562505 104.224609 279.595703 104.224609 278.571609 104.224609 277.74805 104.580888 277.125 105.293457 276.50195 106.006026 276.19043 106.899409 276.19043 107.973633zM31.171875 149.05957L29.4101562 149.05957 29.4101562 142.109375 29.3671875 142.109375C28.6009076 143.541674 27.347665 144.257812 25.6074219 144.257812 24.2252535 144.257812 23.1170289 143.765467 22.2827148 142.780762 21.4484008 141.796056 21.03125 140.455087 21.03125 138.757812 21.03125 136.931631 21.4895787 135.472499 22.40625 134.380371 23.3229213 133.288243 24.5546798 132.742188 26.1015625 132.742188 27.6054763 132.742188 28.6940071 133.336583 29.3671875 134.525391L29.4101562 134.525391 29.4101562 133 31.171875 133 31.171875 149.05957zM29.4101562 139.047852L29.4101562 137.447266C29.4101562 136.544917 29.114749 135.78223 28.5239258 135.15918 27.9331025 134.53613 27.1829473 134.224609 26.2734375 134.224609 25.2135364 134.224609 24.3756541 134.616695 23.7597656 135.400879 23.1438771 136.185063 22.8359375 137.289706 22.8359375 138.714844 22.8359375 139.982428 23.133135 140.976071 23.7275391 141.695801 24.3219431 142.415531 25.0882115 142.775391 26.0263672 142.775391 27.0576223 142.775391 27.8793915 142.422692 28.4916992 141.717285 29.104007 141.011878 29.4101562 140.122076 29.4101562 139.047852zM46.5009766 134.783203C46.1930323 134.546874 45.7490263 134.428711 45.1689453 134.428711 44.4169884 134.428711 43.7885767 134.7832 43.2836914 135.492188 42.7788061 136.201175 42.5263672 137.167963 42.5263672 138.392578L42.5263672 144 40.7646484 144 40.7646484 133 42.5263672 133 42.5263672 135.266602 42.5693359 135.266602C42.8199882 134.49316 43.2031224 133.889813 43.71875 133.456543 44.2343776 133.023273 44.8108692 132.806641 45.4482422 132.806641 45.9065778 132.806641 46.2574858 132.85677 46.5009766 132.957031L46.5009766 134.783203zM53.7734375 143.602539L53.7734375 141.711914C54.7330777 142.420902 55.7893823 142.775391 56.9423828 142.775391 58.4892655 142.775391 59.2626953 142.259771 59.2626953 141.228516 59.2626953 140.934894 59.1964525 140.686036 59.0639648 140.481934 58.9314772 140.277831 58.7524425 140.097006 58.5268555 139.939453 58.3012684 139.7819 58.0362971 139.640463 57.7319336 139.515137 57.4275701 139.389811 57.0999367 139.259115 56.7490234 139.123047 56.2620418 138.929687 55.834149 138.734539 55.465332 138.537598 55.0965151 138.340657 54.7885755 138.118654 54.5415039 137.871582 54.2944324 137.62451 54.1082363 137.343426 53.9829102 137.02832 53.857584 136.713215 53.7949219 136.344403 53.7949219 135.921875 53.7949219 135.406247 53.9130848 134.949709 54.1494141 134.552246 54.3857434 134.154783 54.7008444 133.821779 55.0947266 133.553223 55.4886087 133.284667 55.9379858 133.082357 56.4428711 132.946289 56.9477564 132.810221 57.4687473 132.742188 58.0058594 132.742188 58.9583381 132.742188 59.8105431 132.906899 60.5625 133.236328L60.5625 135.019531C59.7532512 134.489581 58.8222709 134.224609 57.7695312 134.224609 57.4401025 134.224609 57.142905 134.262207 56.8779297 134.337402 56.6129544 134.412598 56.3855804 134.518228 56.1958008 134.654297 56.0060212 134.790365 55.8592128 134.953287 55.7553711 135.143066 55.6515294 135.332846 55.5996094 135.542317 55.5996094 135.771484 55.5996094 136.057944 55.6515294 136.297851 55.7553711 136.491211 55.8592128 136.684571 56.0113922 136.856445 56.2119141 137.006836 56.4124359 137.157227 56.655923 137.293294 56.9423828 137.415039 57.2288426 137.536784 57.5546857 137.66927 57.9199219 137.8125 58.4069035 137.998699 58.8437481 138.190266 59.2304688 138.387207 59.6171894 138.584148 59.9466132 138.806151 60.21875 139.053223 60.4908868 139.300294 60.7003573 139.584959 60.847168 139.907227 60.9939786 140.229494 61.0673828 140.612628 61.0673828 141.056641 61.0673828 141.600914 60.9474296 142.073566 60.7075195 142.474609 60.4676095 142.875653 60.1471374 143.208658 59.7460938 143.473633 59.3450501 143.738608 58.8831406 143.935546 58.3603516 144.064453 57.8375625 144.19336 57.2897164 144.257812 56.7167969 144.257812 55.5852808 144.257812 54.6041708 144.03939 53.7734375 143.602539zM74.9033203 143.892578C74.4879537 144.121746 73.9401076 144.236328 73.2597656 144.236328 71.3333237 144.236328 70.3701172 143.16212 70.3701172 141.013672L70.3701172 134.503906 68.4794922 134.503906 68.4794922 133 70.3701172 133 70.3701172 130.314453 72.1318359 129.745117 72.1318359 133 74.9033203 133 74.9033203 134.503906 72.1318359 134.503906 72.1318359 140.702148C72.1318359 141.439782 72.2571602 141.966144 72.5078125 142.28125 72.7584648 142.596356 73.1738252 142.753906 73.7539062 142.753906 74.1979189 142.753906 74.5810531 142.632163 74.9033203 142.388672L74.9033203 143.892578zM92.1767578 144L90.4150391 144 90.4150391 142.259766 90.3720703 142.259766C89.6415979 143.591804 88.5100988 144.257812 86.9775391 144.257812 84.3564322 144.257812 83.0458984 142.69663 83.0458984 139.574219L83.0458984 133 84.796875 133 84.796875 139.294922C84.796875 141.615246 85.684887 142.775391 87.4609375 142.775391 88.3203168 142.775391 89.0275037 142.458499 89.5825195 141.824707 90.1375353 141.190915 90.4150391 140.361984 90.4150391 139.337891L90.4150391 133 92.1767578 133 92.1767578 144zM110.40625 133L106.023438 144 104.293945 144 100.125977 133 102.05957 133 104.852539 140.992188C105.060222 141.57943 105.189127 142.091469 105.239258 142.52832L105.282227 142.52832C105.353842 141.976885 105.468424 141.479169 105.625977 141.035156L108.547852 133 110.40625 133zM132.180664 133L128.882812 144 127.056641 144 124.790039 136.125977C124.704101 135.825194 124.64681 135.485028 124.618164 135.105469L124.575195 135.105469C124.553711 135.363283 124.478516 135.696287 124.349609 136.104492L121.889648 144 120.12793 144 116.797852 133 118.645508 133 120.922852 141.271484C120.994467 141.522137 121.044596 141.85156 121.073242 142.259766L121.15918 142.259766C121.180664 141.94466 121.245117 141.608075 121.352539 141.25L123.887695 133 125.499023 133 127.776367 141.292969C127.847982 141.557944 127.901693 141.887368 127.9375 142.28125L128.023438 142.28125C128.03776 142.001952 128.098632 141.672528 128.206055 141.292969L130.44043 133 132.180664 133zM148.283203 133L144.587891 138.564453 148.21875 144 146.166992 144 144.007812 140.433594C143.871744 140.211587 143.710613 139.932293 143.524414 139.595703L143.481445 139.595703C143.445638 139.660157 143.277345 139.939451 142.976562 140.433594L140.774414 144 138.744141 144 142.493164 138.607422 138.905273 133 140.957031 133 143.083984 136.759766C143.241537 137.039064 143.395507 137.325519 143.545898 137.619141L143.588867 137.619141 146.338867 133 148.283203 133zM165.126953 133L160.067383 145.761719C159.165035 148.039074 157.897469 149.177734 156.264648 149.177734 155.806313 149.177734 155.423179 149.131185 155.115234 149.038086L155.115234 147.458984C155.494794 147.587891 155.842121 147.652344 156.157227 147.652344 157.045252 147.652344 157.711261 147.122401 158.155273 146.0625L159.036133 143.978516 154.739258 133 156.694336 133 159.669922 141.464844C159.705729 141.572266 159.780924 141.85156 159.895508 142.302734L159.959961 142.302734C159.995768 142.130859 160.067382 141.858726 160.174805 141.486328L163.300781 133 165.126953 133zM180.713867 133.504883L174.204102 142.496094 180.649414 142.496094 180.649414 144 171.615234 144 171.615234 143.452148 178.125 134.503906 172.227539 134.503906 172.227539 133 180.713867 133 180.713867 133.504883zM27.7773438 184L26.015625 184 26.015625 170.69043C25.8795566 170.826498 25.6808281 170.982258 25.4194336 171.157715 25.1580391 171.333171 24.8644222 171.506835 24.5385742 171.678711 24.2127262 171.850587 23.8689797 172.011718 23.5073242 172.162109 23.1456688 172.312501 22.7929705 172.430664 22.4492188 172.516602L22.4492188 170.733398C22.8359394 170.625976 23.2459288 170.480958 23.6791992 170.29834 24.1124696 170.115722 24.5385721 169.911622 24.9575195 169.686035 25.3764669 169.460448 25.7721336 169.224122 26.1445312 168.977051 26.5169289 168.729979 26.8391913 168.488282 27.1113281 168.251953L27.7773438 168.251953 27.7773438 184zM46.1787109 172.634766C46.1787109 172.162107 46.1053067 171.750327 45.9584961 171.399414 45.8116855 171.048501 45.6111666 170.756674 45.3569336 170.523926 45.1027006 170.291177 44.8037127 170.117514 44.4599609 170.00293 44.1162092 169.888346 43.7438171 169.831055 43.3427734 169.831055 42.9990217 169.831055 42.6624365 169.877604 42.3330078 169.970703 42.0035791 170.063803 41.683107 170.192708 41.371582 170.357422 41.060057 170.522136 40.7592788 170.719074 40.4692383 170.948242 40.1791978 171.17741 39.9088554 171.431639 39.6582031 171.710938L39.6582031 169.820312C40.1523462 169.340492 40.7055633 168.973471 41.3178711 168.719238 41.9301788 168.465005 42.6767534 168.337891 43.5576172 168.337891 44.1878287 168.337891 44.7714817 168.429198 45.3085938 168.611816 45.8457058 168.794435 46.3111959 169.061196 46.7050781 169.412109 47.0989603 169.763023 47.4086903 170.196286 47.6342773 170.711914 47.8598644 171.227542 47.9726562 171.818356 47.9726562 172.484375 47.9726562 173.093102 47.9028327 173.644529 47.7631836 174.138672 47.6235345 174.632815 47.4122735 175.098305 47.1293945 175.535156 46.8465155 175.972007 46.4902365 176.390949 46.0605469 176.791992 45.6308572 177.193036 45.1259795 177.601235 44.5458984 178.016602 43.8225875 178.532229 43.2264021 178.972654 42.7573242 179.337891 42.2882464 179.703127 41.9158542 180.045083 41.6401367 180.36377 41.3644192 180.682456 41.1710618 181.001138 41.0600586 181.319824 40.9490554 181.638511 40.8935547 182.005532 40.8935547 182.420898L48.5634766 182.420898 48.5634766 184 39.0566406 184 39.0566406 183.237305C39.0566406 182.578447 39.1282545 181.998375 39.2714844 181.49707 39.4147143 180.995766 39.65104 180.519534 39.9804688 180.068359 40.3098975 179.617185 40.741371 179.166018 41.2749023 178.714844 41.8084337 178.26367 42.4619102 177.755211 43.2353516 177.189453 43.7939481 176.788409 44.2612286 176.405275 44.637207 176.040039 45.0131855 175.674803 45.3157541 175.309572 45.5449219 174.944336 45.7740897 174.5791 45.9370112 174.208498 46.0336914 173.83252 46.1303716 173.456541 46.1787109 173.057294 46.1787109 172.634766zM66.0087891 179.638672C66.0087891 180.333337 65.8780938 180.965329 65.6166992 181.534668 65.3553047 182.104007 64.9864933 182.590981 64.5102539 182.995605 64.0340145 183.40023 63.462894 183.713541 62.796875 183.935547 62.130856 184.157553 61.3968139 184.268555 60.5947266 184.268555 59.1266203 184.268555 57.9593142 183.989261 57.0927734 183.430664L57.0927734 181.540039C58.1311901 182.356449 59.3199803 182.764648 60.6591797 182.764648 61.1962917 182.764648 61.6814757 182.696615 62.1147461 182.560547 62.5480165 182.424478 62.9204086 182.22754 63.2319336 181.969727 63.5434586 181.711913 63.783365 181.400392 63.9516602 181.035156 64.1199553 180.66992 64.2041016 180.25814 64.2041016 179.799805 64.2041016 177.787425 62.7718242 176.78125 59.9072266 176.78125L58.6289062 176.78125 58.6289062 175.288086 59.8427734 175.288086C62.3779424 175.288086 63.6455078 174.342783 63.6455078 172.452148 63.6455078 170.704744 62.6787206 169.831055 60.7451172 169.831055 59.6565701 169.831055 58.6360725 170.196285 57.6835938 170.926758L57.6835938 169.21875C58.6647184 168.631507 59.8320245 168.337891 61.1855469 168.337891 61.8300813 168.337891 62.4137344 168.427408 62.9365234 168.606445 63.4593125 168.785483 63.9068992 169.036131 64.2792969 169.358398 64.6516946 169.680666 64.9399404 170.067381 65.144043 170.518555 65.3481456 170.969729 65.4501953 171.467445 65.4501953 172.011719 65.4501953 174.038422 64.426117 175.341794 62.3779297 175.921875L62.3779297 175.964844C62.9007188 176.022136 63.3841124 176.14925 63.828125 176.346191 64.2721376 176.543132 64.6552718 176.799152 64.9775391 177.114258 65.2998063 177.429364 65.5522452 177.799965 65.7348633 178.226074 65.9174814 178.652183 66.0087891 179.123044 66.0087891 179.638672zM82.7880859 168.595703L82.7880859 178.768555 84.7646484 178.768555 84.7646484 180.379883 82.7880859 180.379883 82.7880859 184 81.0478516 184 81.0478516 180.379883 73.8076172 180.379883 73.8076172 178.854492C74.4807976 178.095374 75.1611294 177.284347 75.8486328 176.421387 76.5361362 175.558427 77.1931935 174.682947 77.8198242 173.794922 78.446455 172.906897 79.0265273 172.020675 79.5600586 171.13623 80.0935899 170.251786 80.5429669 169.404952 80.9082031 168.595703L82.7880859 168.595703zM75.7949219 178.768555L81.0478516 178.768555 81.0478516 171.227539C80.5107395 172.165695 80.002281 173.003577 79.5224609 173.741211 79.0426408 174.478845 78.5861024 175.148434 78.152832 175.75 77.7195616 176.351566 77.3059916 176.895831 76.9121094 177.382812 76.5182272 177.869794 76.1458351 178.331704 75.7949219 178.768555zM101.952148 179.294922C101.952148 180.046879 101.823243 180.72721 101.56543 181.335938 101.307616 181.944665 100.940595 182.467446 100.464355 182.904297 99.9881161 183.341148 99.4134148 183.677733 98.7402344 183.914062 98.0670539 184.150392 97.318689 184.268555 96.4951172 184.268555 95.0628184 184.268555 93.9993524 184.053713 93.3046875 183.624023L93.3046875 181.754883C94.3502656 182.428063 95.420893 182.764648 96.5166016 182.764648 97.0751981 182.764648 97.5782855 182.682292 98.0258789 182.517578 98.4734723 182.352864 98.8548161 182.123699 99.1699219 181.830078 99.4850276 181.536457 99.7267244 181.181968 99.8950195 180.766602 100.063315 180.351235 100.147461 179.896487 100.147461 179.402344 100.147461 178.399735 99.8108758 177.613772 99.1376953 177.044434 98.4645149 176.475095 97.4869856 176.19043 96.2050781 176.19043 95.9973948 176.19043 95.7789725 176.19401 95.5498047 176.201172 95.3206369 176.208333 95.0914725 176.217285 94.8623047 176.228027 94.6331369 176.23877 94.4093435 176.251302 94.190918 176.265625 93.9724924 176.279948 93.7737639 176.297851 93.5947266 176.319336L94.1210938 168.595703 101.243164 168.595703 101.243164 170.185547 95.6464844 170.185547 95.3349609 174.708008C95.5641288 174.693685 95.8076159 174.681152 96.0654297 174.67041 96.3232435 174.659668 96.5524079 174.654297 96.7529297 174.654297 97.56934 174.654297 98.2998015 174.761718 98.9443359 174.976562 99.5888704 175.191407 100.134926 175.497557 100.58252 175.89502 101.030113 176.292482 101.370279 176.779457 101.603027 177.355957 101.835776 177.932457 101.952148 178.578772 101.952148 179.294922zM120.407227 179.112305C120.407227 179.864262 120.285483 180.555335 120.041992 181.185547 119.798501 181.815758 119.461916 182.360024 119.032227 182.818359 118.602537 183.276695 118.090498 183.632974 117.496094 183.887207 116.90169 184.14144 116.257165 184.268555 115.5625 184.268555 114.789059 184.268555 114.096194 184.107423 113.483887 183.785156 112.871579 183.462889 112.352378 182.999189 111.92627 182.394043 111.500161 181.788897 111.176108 181.049484 110.954102 180.175781 110.732095 179.302079 110.621094 178.317388 110.621094 177.22168 110.621094 175.88248 110.769693 174.666835 111.066895 173.574707 111.364097 172.482579 111.786618 171.548018 112.334473 170.770996 112.882327 169.993974 113.542965 169.394208 114.316406 168.97168 115.089848 168.549152 115.952795 168.337891 116.905273 168.337891 117.965175 168.337891 118.81738 168.484699 119.461914 168.77832L119.461914 170.443359C118.666988 170.035154 117.829106 169.831055 116.948242 169.831055 116.260739 169.831055 115.641279 169.985025 115.089844 170.292969 114.538409 170.600913 114.065757 171.035967 113.671875 171.598145 113.277993 172.160322 112.975424 172.838863 112.76416 173.633789 112.552896 174.428715 112.447266 175.313146 112.447266 176.287109L112.490234 176.287109C113.199222 175.005202 114.370109 174.364258 116.00293 174.364258 116.67611 174.364258 117.283038 174.47884 117.82373 174.708008 118.364423 174.937176 118.826333 175.261228 119.209473 175.680176 119.592613 176.099123 119.88802 176.59863 120.095703 177.178711 120.303386 177.758792 120.407227 178.403317 120.407227 179.112305zM118.602539 179.337891C118.602539 178.800779 118.534506 178.317385 118.398438 177.887695 118.262369 177.458006 118.067221 177.092775 117.812988 176.791992 117.558755 176.491209 117.245445 176.260255 116.873047 176.099121 116.500649 175.937987 116.078127 175.857422 115.605469 175.857422 115.168618 175.857422 114.763999 175.939778 114.391602 176.104492 114.019204 176.269207 113.696941 176.493 113.424805 176.775879 113.152668 177.058758 112.939617 177.388182 112.785645 177.76416 112.631672 178.140139 112.554688 178.539386 112.554688 178.961914 112.554688 179.491865 112.629882 179.987791 112.780273 180.449707 112.930665 180.911623 113.141926 181.314451 113.414062 181.658203 113.686199 182.001955 114.010252 182.272297 114.38623 182.469238 114.762209 182.666179 115.17936 182.764648 115.637695 182.764648 116.081708 182.764648 116.486326 182.680502 116.851562 182.512207 117.216799 182.343912 117.528319 182.109377 117.786133 181.808594 118.043947 181.507811 118.244465 181.147951 118.387695 180.729004 118.530925 180.310056 118.602539 179.846357 118.602539 179.337891zM138.164062 169.616211C137.927733 170.024416 137.643068 170.532875 137.310059 171.141602 136.977049 171.750329 136.624351 172.434241 136.251953 173.193359 135.879555 173.952478 135.500002 174.768876 135.113281 175.642578 134.726561 176.51628 134.364911 177.418615 134.02832 178.349609 133.69173 179.280604 133.396323 180.224116 133.14209 181.180176 132.887857 182.136235 132.703451 183.076167 132.588867 184L130.698242 184C130.827149 183.083329 131.025878 182.146977 131.294434 181.190918 131.56299 180.234859 131.867349 179.296717 132.20752 178.376465 132.547691 177.456213 132.90755 176.569991 133.287109 175.717773 133.666669 174.865556 134.03548 174.081384 134.393555 173.365234 134.751629 172.649085 135.079263 172.017093 135.376465 171.469238 135.673667 170.921384 135.911783 170.493491 136.09082 170.185547L128.367188 170.185547 128.367188 168.595703 138.164062 168.595703 138.164062 169.616211zM146.166992 179.703125C146.166992 179.29492 146.231445 178.88493 146.360352 178.473145 146.489258 178.061359 146.673664 177.676434 146.913574 177.318359 147.153484 176.960285 147.450682 176.634442 147.805176 176.34082 148.15967 176.047199 148.562498 175.814454 149.013672 175.642578 148.347653 175.27018 147.81771 174.792158 147.423828 174.208496 147.029946 173.624834 146.833008 172.978519 146.833008 172.269531 146.833008 171.703773 146.942219 171.180992 147.160645 170.701172 147.37907 170.221352 147.681639 169.805991 148.068359 169.455078 148.45508 169.104165 148.913409 168.830242 149.443359 168.633301 149.97331 168.43636 150.546221 168.337891 151.162109 168.337891 151.785159 168.337891 152.361651 168.43815 152.891602 168.638672 153.421552 168.839194 153.879881 169.114907 154.266602 169.46582 154.653322 169.816734 154.9541 170.232094 155.168945 170.711914 155.38379 171.191734 155.491211 171.710935 155.491211 172.269531 155.491211 172.978519 155.294273 173.624834 154.900391 174.208496 154.506508 174.792158 153.983727 175.27018 153.332031 175.642578 153.776044 175.814454 154.173501 176.047199 154.524414 176.34082 154.875327 176.634442 155.170734 176.960285 155.410645 177.318359 155.650555 177.676434 155.83496 178.061359 155.963867 178.473145 156.092774 178.88493 156.157227 179.29492 156.157227 179.703125 156.157227 180.376305 156.035483 180.992185 155.791992 181.550781 155.548501 182.109378 155.206545 182.5874 154.766113 182.984863 154.325681 183.382326 153.799319 183.692056 153.187012 183.914062 152.574704 184.136069 151.899743 184.24707 151.162109 184.24707 150.431637 184.24707 149.762047 184.136069 149.15332 183.914062 148.544593 183.692056 148.018231 183.382326 147.574219 182.984863 147.130206 182.5874 146.784669 182.109378 146.537598 181.550781 146.290526 180.992185 146.166992 180.376305 146.166992 179.703125zM148.079102 179.552734C148.079102 180.032554 148.152506 180.465818 148.299316 180.852539 148.446127 181.23926 148.653807 181.568684 148.922363 181.84082 149.190919 182.112957 149.516762 182.322428 149.899902 182.469238 150.283042 182.616049 150.707354 182.689453 151.172852 182.689453 151.624026 182.689453 152.039386 182.614259 152.418945 182.463867 152.798505 182.313476 153.126138 182.102215 153.401855 181.830078 153.677573 181.557941 153.892415 181.228518 154.046387 180.841797 154.200359 180.455076 154.277344 180.025393 154.277344 179.552734 154.277344 179.123045 154.20394 178.720217 154.057129 178.344238 153.910318 177.96826 153.700848 177.637046 153.428711 177.350586 153.156574 177.064126 152.830731 176.838542 152.451172 176.673828 152.071613 176.509114 151.64551 176.426758 151.172852 176.426758 150.728839 176.426758 150.31885 176.503743 149.942871 176.657715 149.566893 176.811687 149.24105 177.026529 148.965332 177.302246 148.689615 177.577964 148.472983 177.907387 148.31543 178.290527 148.157877 178.673667 148.079102 179.094399 148.079102 179.552734zM148.626953 172.40918C148.626953 172.774416 148.693196 173.112791 148.825684 173.424316 148.958171 173.735841 149.140787 174.007974 149.373535 174.240723 149.606284 174.473471 149.876626 174.656087 150.18457 174.788574 150.492515 174.921062 150.821938 174.987305 151.172852 174.987305 151.523765 174.987305 151.854979 174.919272 152.166504 174.783203 152.478029 174.647135 152.748371 174.462729 152.977539 174.22998 153.206707 173.997232 153.389322 173.725099 153.525391 173.413574 153.661459 173.102049 153.729492 172.767254 153.729492 172.40918 153.729492 172.036782 153.663249 171.693035 153.530762 171.37793 153.398274 171.062824 153.217449 170.790691 152.988281 170.561523 152.759113 170.332356 152.488771 170.151531 152.177246 170.019043 151.865721 169.886555 151.530926 169.820312 151.172852 169.820312 150.793292 169.820312 150.447755 169.888346 150.13623 170.024414 149.824705 170.160482 149.556153 170.344888 149.330566 170.577637 149.104979 170.810385 148.931316 171.084308 148.80957 171.399414 148.687825 171.71452 148.626953 172.051105 148.626953 172.40918zM173.871094 175.374023C173.871094 176.784838 173.731447 178.039871 173.452148 179.13916 173.17285 180.23845 172.764651 181.16943 172.227539 181.932129 171.690427 182.694828 171.03516 183.2749 170.261719 183.672363 169.488277 184.069826 168.607427 184.268555 167.619141 184.268555 166.602208 184.268555 165.707035 184.08952 164.933594 183.731445L164.933594 182.044922C165.785812 182.524742 166.695308 182.764648 167.662109 182.764648 168.356774 182.764648 168.978025 182.621421 169.525879 182.334961 170.073733 182.048501 170.537433 181.63135 170.916992 181.083496 171.296551 180.535642 171.586588 179.860681 171.787109 179.058594 171.987631 178.256506 172.087891 177.336268 172.087891 176.297852L172.044922 176.297852C171.386064 177.622728 170.240243 178.285156 168.607422 178.285156 167.948564 178.285156 167.343427 178.168784 166.791992 177.936035 166.240557 177.703287 165.764325 177.373863 165.363281 176.947754 164.962238 176.521645 164.650717 176.014977 164.428711 175.427734 164.206705 174.840492 164.095703 174.192386 164.095703 173.483398 164.095703 172.72428 164.219237 172.029626 164.466309 171.399414 164.71338 170.769203 165.057127 170.226728 165.497559 169.771973 165.93799 169.317218 166.460772 168.964519 167.065918 168.713867 167.671064 168.463215 168.331702 168.337891 169.047852 168.337891 169.821293 168.337891 170.506996 168.493651 171.10498 168.805176 171.702965 169.116701 172.206053 169.571449 172.614258 170.169434 173.022463 170.767418 173.333983 171.503251 173.548828 172.376953 173.763673 173.250655 173.871094 174.249669 173.871094 175.374023zM171.969727 173.794922C171.969727 173.200518 171.892742 172.659833 171.73877 172.172852 171.584797 171.68587 171.371746 171.268719 171.099609 170.921387 170.827473 170.574054 170.50342 170.305502 170.127441 170.115723 169.751463 169.925943 169.341474 169.831055 168.897461 169.831055 168.474933 169.831055 168.081057 169.915201 167.71582 170.083496 167.350584 170.251791 167.033693 170.488117 166.765137 170.79248 166.496581 171.096844 166.28532 171.458494 166.131348 171.877441 165.977376 172.296389 165.900391 172.752927 165.900391 173.24707 165.900391 173.791344 165.973795 174.278318 166.120605 174.708008 166.267416 175.137697 166.476887 175.501138 166.749023 175.79834 167.02116 176.095542 167.348794 176.322916 167.731934 176.480469 168.115074 176.638022 168.539386 176.716797 169.004883 176.716797 169.413088 176.716797 169.798013 176.639812 170.159668 176.48584 170.521323 176.331868 170.836424 176.124188 171.10498 175.862793 171.373536 175.601398 171.584797 175.293459 171.73877 174.938965 171.892742 174.584471 171.969727 174.203127 171.969727 173.794922zM191.928711 176.233398C191.928711 177.522467 191.812338 178.664709 191.57959 179.660156 191.346841 180.655604 191.010256 181.495277 190.569824 182.179199 190.129392 182.863122 189.588708 183.382322 188.947754 183.736816 188.3068 184.09131 187.578129 184.268555 186.761719 184.268555 185.988277 184.268555 185.298994 184.098472 184.693848 183.758301 184.088701 183.41813 183.578453 182.922204 183.163086 182.270508 182.747719 181.618812 182.432618 180.818527 182.217773 179.869629 182.002929 178.920731 181.895508 177.83399 181.895508 176.609375 181.895508 175.263014 182.0083 174.074224 182.233887 173.042969 182.459474 172.011714 182.790688 171.146976 183.227539 170.44873 183.66439 169.750485 184.206865 169.224123 184.85498 168.869629 185.503096 168.515135 186.24609 168.337891 187.083984 168.337891 190.313818 168.337891 191.928711 170.9697 191.928711 176.233398zM190.124023 176.405273C190.124023 172.022439 189.082042 169.831055 186.998047 169.831055 184.799468 169.831055 183.700195 172.061827 183.700195 176.523438 183.700195 180.684266 184.777984 182.764648 186.933594 182.764648 189.060558 182.764648 190.124023 180.644878 190.124023 176.405273z"/>
  </g>
</svg>
