<svg xmlns="http://www.w3.org/2000/svg" width="316" height="215" viewBox="0 0 316 215">
  <g fill="none" fill-rule="evenodd">
    <rect width="316" height="321" fill="#003EAA"/>
    <path fill="#FFF" d="M32.078 44C31.8286654 43.3399967 31.5940011 42.6910032 31.374 42.053 31.1539989 41.4149968 30.9266678 40.7660033 30.692 40.106L23.784 40.106 22.398 44 20.176 44C20.7626696 42.3866586 21.3126641 40.8943402 21.826 39.523 22.3393359 38.1516598 22.8416642 36.8500062 23.333 35.618 23.8243358 34.3859938 24.3119976 33.2090056 24.796 32.087 25.2800024 30.9649944 25.7859974 29.8540055 26.314 28.754L28.272 28.754C28.8000026 29.8540055 29.3059976 30.9649944 29.79 32.087 30.2740024 33.2090056 30.7616642 34.3859938 31.253 35.618 31.7443358 36.8500062 32.2466641 38.1516598 32.76 39.523 33.2733359 40.8943402 33.8233304 42.3866586 34.41 44L32.078 44zM30.076 38.346C29.6066643 37.0699936 29.1410023 35.8343393 28.679 34.639 28.2169977 33.4436607 27.7366692 32.2960055 27.238 31.196 26.7246641 32.2960055 26.2370023 33.4436607 25.775 34.639 25.3129977 35.8343393 24.8546689 37.0699936 24.4 38.346L30.076 38.346zM45.674 44.132C45.3659985 44.132 45.0323351 44.1246667 44.673 44.11 44.3136649 44.0953333 43.9543351 44.0733335 43.595 44.044 43.2356649 44.0146665 42.8800018 43.9780002 42.528 43.934 42.1759982 43.8899998 41.8533348 43.8313337 41.56 43.758L41.56 28.974C41.8533348 28.9006663 42.1759982 28.8420002 42.528 28.798 42.8800018 28.7539998 43.2356649 28.7173335 43.595 28.688 43.9543351 28.6586665 44.3099982 28.6366667 44.662 28.622 45.0140018 28.6073333 45.3439985 28.6 45.652 28.6 46.5320044 28.6 47.3569962 28.6659993 48.127 28.798 48.8970038 28.9300007 49.5643305 29.1536651 50.129 29.469 50.6936695 29.7843349 51.1373317 30.1986641 51.46 30.712 51.7826683 31.2253359 51.944 31.8559963 51.944 32.604 51.944 33.4400042 51.746002 34.125664 51.35 34.661 50.953998 35.196336 50.4260033 35.5959987 49.766 35.86 50.6606711 36.1240013 51.3719974 36.5419971 51.9 37.114 52.4280026 37.6860029 52.692 38.4926615 52.692 39.534 52.692 41.059341 52.1310056 42.2069962 51.009 42.977 49.8869944 43.7470038 48.1086788 44.132 45.674 44.132zM43.672 36.894L43.672 42.262C43.8333341 42.2766667 44.0239989 42.2913333 44.244 42.306 44.4346676 42.3206667 44.658332 42.3316666 44.915 42.339 45.1716679 42.3463334 45.468665 42.35 45.806 42.35 46.4366698 42.35 47.0343305 42.3096671 47.599 42.229 48.1636695 42.1483329 48.6586645 42.0053344 49.084 41.8 49.5093355 41.5946656 49.8503321 41.3086685 50.107 40.942 50.3636679 40.5753315 50.492 40.1133361 50.492 39.556 50.492 39.0573308 50.3966676 38.6356684 50.206 38.291 50.0153324 37.9463316 49.7403351 37.6713344 49.381 37.466 49.0216649 37.2606656 48.5926692 37.1140004 48.094 37.026 47.5953308 36.9379996 47.0380031 36.894 46.422 36.894L43.672 36.894zM43.672 35.178L45.916 35.178C46.4440026 35.178 46.9426643 35.1413337 47.412 35.068 47.8813357 34.9946663 48.2883316 34.8626676 48.633 34.672 48.9776684 34.4813324 49.248999 34.2320015 49.447 33.924 49.645001 33.6159985 49.744 33.2273357 49.744 32.758 49.744 32.3179978 49.6413344 31.9476682 49.436 31.647 49.2306656 31.3463318 48.9483351 31.1043342 48.589 30.921 48.2296649 30.7376657 47.8080024 30.6020004 47.324 30.514 46.8399976 30.4259996 46.3266694 30.382 45.784 30.382 45.2413306 30.382 44.8160015 30.3893333 44.508 30.404 44.1999985 30.4186667 43.9213346 30.4406665 43.672 30.47L43.672 35.178zM67.344 44.33C66.273328 44.33 65.2980044 44.1540018 64.418 43.802 63.5379956 43.4499982 62.7826698 42.93667 62.152 42.262 61.5213302 41.58733 61.0336684 40.755005 60.689 39.765 60.3443316 38.7749951 60.172 37.6420064 60.172 36.366 60.172 35.0899936 60.3663314 33.9570049 60.755 32.967 61.1436686 31.976995 61.6679967 31.14467 62.328 30.47 62.9880033 29.79533 63.7579956 29.2820018 64.638 28.93 65.5180044 28.5779982 66.4566617 28.402 67.454 28.402 68.0846698 28.402 68.6529975 28.4459996 69.159 28.534 69.6650025 28.6220004 70.1049981 28.7246661 70.479 28.842 70.8530019 28.9593339 71.1573322 29.0766661 71.392 29.194 71.6266678 29.3113339 71.7879996 29.399333 71.876 29.458L71.26 31.218C71.1279993 31.1299996 70.9373346 31.0346672 70.688 30.932 70.4386654 30.8293328 70.1563349 30.7266672 69.841 30.624 69.5256651 30.5213328 69.1810019 30.4370003 68.807 30.371 68.4329981 30.3049997 68.0553352 30.272 67.674 30.272 66.8673293 30.272 66.1413366 30.4113319 65.496 30.69 64.8506634 30.9686681 64.3006689 31.3719974 63.846 31.9 63.3913311 32.4280026 63.0430012 33.0696629 62.801 33.825 62.5589988 34.5803371 62.438 35.4273286 62.438 36.366 62.438 37.2753379 62.5443323 38.1039963 62.757 38.852 62.9696677 39.6000037 63.2886645 40.241664 63.714 40.777 64.1393355 41.312336 64.6709968 41.7266652 65.309 42.02 65.9470032 42.3133348 66.6913291 42.46 67.542 42.46 68.5246716 42.46 69.3386634 42.3573344 69.984 42.152 70.6293366 41.9466656 71.1133317 41.7633341 71.436 41.602L71.986 43.362C71.8833328 43.4353337 71.7000013 43.5269994 71.436 43.637 71.1719987 43.7470006 70.842002 43.8533328 70.446 43.956 70.049998 44.0586672 69.5880026 44.1466663 69.06 44.22 68.5319974 44.2933337 67.9600031 44.33 67.344 44.33zM92.028 36.366C92.028 37.6860066 91.8226687 38.8336618 91.412 39.809 91.0013313 40.7843382 90.4220037 41.5909968 89.674 42.229 88.9259963 42.8670032 88.0313385 43.3436651 86.99 43.659 85.9486615 43.9743349 84.8046729 44.132 83.558 44.132 82.9419969 44.132 82.2636704 44.1063336 81.523 44.055 80.7823296 44.0036664 80.1113363 43.9046674 79.51 43.758L79.51 28.974C80.1113363 28.8273326 80.7823296 28.7283336 81.523 28.677 82.2636704 28.6256664 82.9419969 28.6 83.558 28.6 84.8046729 28.6 85.9486615 28.7576651 86.99 29.073 88.0313385 29.3883349 88.9259963 29.8649968 89.674 30.503 90.4220037 31.1410032 91.0013313 31.9476618 91.412 32.923 91.8226687 33.8983382 92.028 35.0459934 92.028 36.366zM83.734 42.262C85.7580101 42.262 87.2686617 41.7450052 88.266 40.711 89.2633383 39.6769948 89.762 38.228676 89.762 36.366 89.762 34.503324 89.2633383 33.0550052 88.266 32.021 87.2686617 30.9869948 85.7580101 30.47 83.734 30.47 83.1326637 30.47 82.6670016 30.4773333 82.337 30.492 82.0069983 30.5066667 81.7760007 30.5213333 81.644 30.536L81.644 42.196C81.7760007 42.2106667 82.0069983 42.2253333 82.337 42.24 82.6670016 42.2546667 83.1326637 42.262 83.734 42.262zM100.278 44L100.278 28.754 109.584 28.754 109.584 30.58 102.412 30.58 102.412 35.112 108.792 35.112 108.792 36.894 102.412 36.894 102.412 42.174 110.134 42.174 110.134 44 100.278 44zM117.922 44L117.922 28.754 127.118 28.754 127.118 30.58 120.056 30.58 120.056 35.178 126.326 35.178 126.326 36.982 120.056 36.982 120.056 44 117.922 44zM144.124 36.498L146.258 36.498 146.258 43.626C146.081999 43.684667 145.829002 43.7506663 145.499 43.824 145.168998 43.8973337 144.787669 43.9706663 144.355 44.044 143.922331 44.1173337 143.449336 44.1796664 142.936 44.231 142.422664 44.2823336 141.902003 44.308 141.374 44.308 140.303328 44.308 139.328004 44.1320018 138.448 43.78 137.567996 43.4279982 136.81267 42.91467 136.182 42.24 135.55133 41.56533 135.063668 40.7366716 134.719 39.754 134.374332 38.7713284 134.202 37.6420064 134.202 36.366 134.202 35.0899936 134.396331 33.9570049 134.785 32.967 135.173669 31.976995 135.697997 31.14467 136.358 30.47 137.018003 29.79533 137.791662 29.2820018 138.679 28.93 139.566338 28.5779982 140.515995 28.402 141.528 28.402 142.217337 28.402 142.829664 28.4459996 143.365 28.534 143.900336 28.6220004 144.358665 28.7246661 144.74 28.842 145.121335 28.9593339 145.432999 29.0766661 145.675 29.194 145.917001 29.3113339 146.082 29.399333 146.17 29.458L145.488 31.24C145.062665 30.9613319 144.498004 30.7303342 143.794 30.547 143.089996 30.3636657 142.371337 30.272 141.638 30.272 140.860663 30.272 140.153003 30.4113319 139.515 30.69 138.876997 30.9686681 138.334336 31.3719974 137.887 31.9 137.439664 32.4280026 137.091335 33.0696629 136.842 33.825 136.592665 34.5803371 136.468 35.4273286 136.468 36.366 136.468 37.2753379 136.574332 38.1039963 136.787 38.852 136.999668 39.6000037 137.322331 40.241664 137.755 40.777 138.187669 41.312336 138.722997 41.7266652 139.361 42.02 139.999003 42.3133348 140.750662 42.46 141.616 42.46 142.232003 42.46 142.756331 42.4270003 143.189 42.361 143.621669 42.2949997 143.933332 42.232667 144.124 42.174L144.124 36.498zM164.276 28.754L166.41 28.754 166.41 44 164.276 44 164.276 36.96 156.818 36.96 156.818 44 154.684 44 154.684 28.754 156.818 28.754 156.818 35.112 164.276 35.112 164.276 28.754zM175.276 28.754L177.41 28.754 177.41 44 175.276 44 175.276 28.754zM193.602 39.094C193.602 39.827337 193.525001 40.5093302 193.371 41.14 193.216999 41.7706698 192.945669 42.3243309 192.557 42.801 192.168331 43.2776691 191.64767 43.6516653 190.995 43.923 190.34233 44.1943347 189.524672 44.33 188.542 44.33 188.043331 44.33 187.585002 44.2896671 187.167 44.209 186.748998 44.1283329 186.371335 44.0256673 186.034 43.901 185.696665 43.7763327 185.403335 43.644334 185.154 43.505 184.904665 43.365666 184.706667 43.2300007 184.56 43.098L185.396 41.404C185.704002 41.6240011 186.103664 41.8549988 186.595 42.097 187.086336 42.3390012 187.698663 42.46 188.432 42.46 189.488005 42.46 190.257998 42.192336 190.742 41.657 191.226002 41.121664 191.468 40.2013399 191.468 38.896L191.468 28.754 193.602 28.754 193.602 39.094zM213.644 28.754C213.189331 29.2526692 212.676003 29.8063303 212.104 30.415 211.531997 31.0236697 210.934336 31.6469968 210.311 32.285 209.687664 32.9230032 209.068003 33.5499969 208.452 34.166 207.835997 34.7820031 207.256669 35.3539974 206.714 35.882 207.34467 36.3220022 208.011996 36.8646634 208.716 37.51 209.420004 38.1553366 210.10933 38.844663 210.784 39.578 211.45867 40.311337 212.092997 41.0593295 212.687 41.822 213.281003 42.5846705 213.775998 43.3106632 214.172 44L211.664 44C211.223998 43.3106632 210.718003 42.6176701 210.146 41.921 209.573997 41.2243298 208.969003 40.5570032 208.331 39.919 207.692997 39.2809968 207.04767 38.6906694 206.395 38.148 205.74233 37.6053306 205.108003 37.1433352 204.492 36.762L204.492 44 202.358 44 202.358 28.754 204.492 28.754 204.492 35.486C205.005336 35.0019976 205.569997 34.4556697 206.186 33.847 206.802003 33.2383303 207.410664 32.6260031 208.012 32.01 208.613336 31.3939969 209.181664 30.8036695 209.717 30.239 210.252336 29.6743305 210.703331 29.1793355 211.07 28.754L213.644 28.754zM230.452 42.152L230.452 44 221.278 44 221.278 28.754 223.412 28.754 223.412 42.152 230.452 42.152zM244.62 41.888C244.473333 41.5359982 244.279001 41.0886694 244.037 40.546 243.794999 40.0033306 243.534668 39.4166698 243.256 38.786 242.977332 38.1553302 242.680335 37.5063367 242.365 36.839 242.049665 36.1716633 241.752668 35.541003 241.474 34.947 241.195332 34.352997 240.935001 33.8213357 240.693 33.352 240.450999 32.8826643 240.256667 32.5233346 240.11 32.274 239.948666 34.0046753 239.816667 35.8783233 239.714 37.895 239.611333 39.9116768 239.523334 41.9466564 239.45 44L237.36 44C237.418667 42.6799934 237.484666 41.3490067 237.558 40.007 237.631334 38.6649933 237.715666 37.3450065 237.811 36.047 237.906334 34.7489935 238.008999 33.4840062 238.119 32.252 238.229001 31.0199938 238.349999 29.8540055 238.482 28.754L240.352 28.754C240.748002 29.3993366 241.173331 30.1619956 241.628 31.042 242.082669 31.9220044 242.537331 32.8423285 242.992 33.803 243.446669 34.7636715 243.886665 35.7243285 244.312 36.685 244.737335 37.6456715 245.125998 38.521996 245.478 39.314 245.830002 38.521996 246.218665 37.6456715 246.644 36.685 247.069335 35.7243285 247.509331 34.7636715 247.964 33.803 248.418669 32.8423285 248.873331 31.9220044 249.328 31.042 249.782669 30.1619956 250.207998 29.3993366 250.604 28.754L252.474 28.754C252.972669 33.6673579 253.346665 38.7493071 253.596 44L251.506 44C251.432666 41.9466564 251.344667 39.9116768 251.242 37.895 251.139333 35.8783233 251.007334 34.0046753 250.846 32.274 250.699333 32.5233346 250.505001 32.8826643 250.263 33.352 250.020999 33.8213357 249.760668 34.352997 249.482 34.947 249.203332 35.541003 248.906335 36.1716633 248.591 36.839 248.275665 37.5063367 247.978668 38.1553302 247.7 38.786 247.421332 39.4166698 247.161001 40.0033306 246.919 40.546 246.676999 41.0886694 246.482667 41.5359982 246.336 41.888L244.62 41.888zM272.472 44C272.149332 43.4573306 271.779002 42.84867 271.361 42.174 270.942998 41.49933 270.492002 40.7990036 270.008 40.073 269.523998 39.3469964 269.021669 38.6100037 268.501 37.862 267.980331 37.1139963 267.463336 36.3916702 266.95 35.695 266.436664 34.9983298 265.938002 34.3420031 265.454 33.726 264.969998 33.1099969 264.522669 32.5673357 264.112 32.098L264.112 44 262.022 44 262.022 28.754 263.716 28.754C264.405337 29.487337 265.142329 30.3416618 265.927 31.317 266.711671 32.2923382 267.488996 33.2969948 268.259 34.331 269.029004 35.3650052 269.754997 36.3806617 270.437 37.378 271.119003 38.3753383 271.694664 39.2626628 272.164 40.04L272.164 28.754 274.254 28.754 274.254 44 272.472 44zM21.276 66.366C21.276 65.0606601 21.4703314 63.9093383 21.859 62.912 22.2476686 61.9146617 22.7756633 61.0823367 23.443 60.415 24.1103367 59.7476633 24.8876622 59.245335 25.775 58.908 26.6623378 58.570665 27.6046617 58.402 28.602 58.402 29.5846716 58.402 30.512329 58.570665 31.385 58.908 32.257671 59.245335 33.0239967 59.7476633 33.684 60.415 34.3440033 61.0823367 34.8683314 61.9146617 35.257 62.912 35.6456686 63.9093383 35.84 65.0606601 35.84 66.366 35.84 67.6713399 35.6456686 68.8226617 35.257 69.82 34.8683314 70.8173383 34.3440033 71.6496633 33.684 72.317 33.0239967 72.9843367 32.257671 73.486665 31.385 73.824 30.512329 74.161335 29.5846716 74.33 28.602 74.33 27.6046617 74.33 26.6623378 74.161335 25.775 73.824 24.8876622 73.486665 24.1103367 72.9843367 23.443 72.317 22.7756633 71.6496633 22.2476686 70.8173383 21.859 69.82 21.4703314 68.8226617 21.276 67.6713399 21.276 66.366zM23.52 66.366C23.52 67.2900046 23.6373322 68.1296629 23.872 68.885 24.1066678 69.6403371 24.4403312 70.2819974 24.873 70.81 25.3056688 71.3380026 25.8336635 71.7449986 26.457 72.031 27.0803364 72.3170014 27.7806628 72.46 28.558 72.46 29.3353372 72.46 30.0319969 72.3170014 30.648 72.031 31.2640031 71.7449986 31.7883312 71.3380026 32.221 70.81 32.6536688 70.2819974 32.9873322 69.6403371 33.222 68.885 33.4566678 68.1296629 33.574 67.2900046 33.574 66.366 33.574 65.4419954 33.4566678 64.6023371 33.222 63.847 32.9873322 63.0916629 32.6536688 62.4500026 32.221 61.922 31.7883312 61.3939974 31.2640031 60.9870014 30.648 60.701 30.0319969 60.4149986 29.3353372 60.272 28.558 60.272 27.7806628 60.272 27.0803364 60.4149986 26.457 60.701 25.8336635 60.9870014 25.3056688 61.3939974 24.873 61.922 24.4403312 62.4500026 24.1066678 63.0916629 23.872 63.847 23.6373322 64.6023371 23.52 65.4419954 23.52 66.366zM48.138 58.6C50.279344 58.6 51.9256609 59.0069959 53.077 59.821 54.2283391 60.6350041 54.804 61.8486586 54.804 63.462 54.804 64.3420044 54.6463349 65.0936636 54.331 65.717 54.0156651 66.3403364 53.561003 66.8463314 52.967 67.235 52.372997 67.6236686 51.6506709 67.9059991 50.8 68.082 49.9493291 68.2580009 48.988672 68.346 47.918 68.346L46.224 68.346 46.224 74 44.09 74 44.09 58.974C44.6913363 58.8273326 45.3623296 58.7283336 46.103 58.677 46.8436704 58.6256664 47.5219969 58.6 48.138 58.6zM48.314 60.47C47.4046621 60.47 46.7080024 60.4919998 46.224 60.536L46.224 66.52 47.83 66.52C48.563337 66.52 49.2233304 66.4723338 49.81 66.377 50.3966696 66.2816662 50.8916646 66.1203345 51.295 65.893 51.6983353 65.6656655 52.0099989 65.354002 52.23 64.958 52.4500011 64.561998 52.56 64.0560031 52.56 63.44 52.56 62.8533304 52.4463345 62.3693352 52.219 61.988 51.9916655 61.6066648 51.6836686 61.3023345 51.295 61.075 50.9063314 60.8476655 50.4553359 60.6900004 49.942 60.602 49.4286641 60.5139996 48.8860029 60.47 48.314 60.47zM61.932 66.366C61.932 65.0606601 62.1263314 63.9093383 62.515 62.912 62.9036686 61.9146617 63.4316633 61.0823367 64.099 60.415 64.7663367 59.7476633 65.5436622 59.245335 66.431 58.908 67.3183378 58.570665 68.2606617 58.402 69.258 58.402 70.2406716 58.402 71.168329 58.570665 72.041 58.908 72.913671 59.245335 73.6799967 59.7476633 74.34 60.415 75.0000033 61.0823367 75.5243314 61.9146617 75.913 62.912 76.3016686 63.9093383 76.496 65.0606601 76.496 66.366 76.496 67.5100057 76.3493348 68.5293289 76.056 69.424 75.7626652 70.3186711 75.3556693 71.0923301 74.835 71.745 74.3143307 72.3976699 73.7056702 72.9256647 73.009 73.329 72.3123298 73.7323353 71.568004 74.0073326 70.776 74.154 70.7906667 74.491335 70.9409986 74.7883321 71.227 75.045 71.5130014 75.3016679 71.8759978 75.5179991 72.316 75.694 72.7560022 75.8700009 73.2473306 76.0166661 73.79 76.134 74.3326694 76.2513339 74.8753306 76.339333 75.418 76.398L74.912 78.07C74.1493295 77.9673328 73.4196702 77.8316675 72.723 77.663 72.0263298 77.4943325 71.3956695 77.2706681 70.831 76.992 70.2663305 76.7133319 69.7933352 76.3576688 69.412 75.925 69.0306648 75.4923312 68.7740007 74.9533366 68.642 74.308 67.7179954 74.249333 66.8453374 74.0330019 66.024 73.659 65.2026626 73.2849981 64.4913363 72.7643367 63.89 72.097 63.2886637 71.4296633 62.8120018 70.6193381 62.46 69.666 62.1079982 68.7126619 61.932 67.6126729 61.932 66.366zM64.176 66.366C64.176 67.2900046 64.2933322 68.1296629 64.528 68.885 64.7626678 69.6403371 65.0963312 70.2819974 65.529 70.81 65.9616688 71.3380026 66.4896635 71.7449986 67.113 72.031 67.7363365 72.3170014 68.4366628 72.46 69.214 72.46 69.9913372 72.46 70.6879969 72.3170014 71.304 72.031 71.9200031 71.7449986 72.4443312 71.3380026 72.877 70.81 73.3096688 70.2819974 73.6433322 69.6403371 73.878 68.885 74.1126678 68.1296629 74.23 67.2900046 74.23 66.366 74.23 65.4419954 74.1126678 64.6023371 73.878 63.847 73.6433322 63.0916629 73.3096688 62.4500026 72.877 61.922 72.4443312 61.3939974 71.9200031 60.9870014 71.304 60.701 70.6879969 60.4149986 69.9913372 60.272 69.214 60.272 68.4366628 60.272 67.7363365 60.4149986 67.113 60.701 66.4896635 60.9870014 65.9616688 61.3939974 65.529 61.922 65.0963312 62.4500026 64.7626678 63.0916629 64.528 63.847 64.2933322 64.6023371 64.176 65.4419954 64.176 66.366zM92.204 67.62C92.4386678 67.9133348 92.7356649 68.298331 93.095 68.775 93.4543351 69.2516691 93.8246648 69.7796638 94.206 70.359 94.5873352 70.9383362 94.9649981 71.5433302 95.339 72.174 95.7130019 72.8046698 96.0319987 73.4133304 96.296 74L93.964 74C93.6706652 73.4426639 93.3516684 72.8780029 93.007 72.306 92.6623316 71.7339971 92.3140018 71.1876693 91.962 70.667 91.6099982 70.1463307 91.2616684 69.6586689 90.917 69.204 90.5723316 68.7493311 90.2606681 68.353335 89.982 68.016 89.7913324 68.0306667 89.597001 68.038 89.399 68.038L86.88 68.038 86.88 74 84.746 74 84.746 58.974C85.3473363 58.8273326 86.0183296 58.7283336 86.759 58.677 87.4996704 58.6256664 88.1779969 58.6 88.794 58.6 90.935344 58.6 92.5669944 59.0033293 93.689 59.81 94.8110056 60.6166707 95.372 61.8193253 95.372 63.418 95.372 64.4300051 95.104336 65.2953297 94.569 66.014 94.033664 66.7326703 93.2453385 67.2679982 92.204 67.62zM88.97 60.47C88.0606621 60.47 87.3640024 60.4919998 86.88 60.536L86.88 66.278 88.398 66.278C89.131337 66.278 89.7913304 66.2413337 90.378 66.168 90.9646696 66.0946663 91.4596646 65.9553344 91.863 65.75 92.2663353 65.5446656 92.5779989 65.2550019 92.798 64.881 93.0180011 64.5069981 93.128 64.0120031 93.128 63.396 93.128 62.8239971 93.0180011 62.3473352 92.798 61.966 92.5779989 61.5846648 92.2810019 61.2840011 91.907 61.064 91.5329981 60.8439989 91.0930025 60.6900004 90.587 60.602 90.0809975 60.5139996 89.5420029 60.47 88.97 60.47zM107.208 72.482C109.437344 72.482 110.552 71.719341 110.552 70.194 110.552 69.7246643 110.453001 69.3250017 110.255 68.995 110.056999 68.6649984 109.789335 68.3790012 109.452 68.137 109.114665 67.8949988 108.729669 67.6860009 108.297 67.51 107.864331 67.3339991 107.406002 67.1580009 106.922 66.982 106.364664 66.7913324 105.836669 66.5750012 105.338 66.333 104.839331 66.0909988 104.406668 65.8050017 104.04 65.475 103.673331 65.1449984 103.383668 64.7526689 103.171 64.298 102.958332 63.8433311 102.852 63.2933366 102.852 62.648 102.852 61.3133267 103.306662 60.2720037 104.216 59.524 105.125338 58.7759963 106.379325 58.402 107.978 58.402 108.902005 58.402 109.741663 58.500999 110.497 58.699 111.252337 58.897001 111.805998 59.1133322 112.158 59.348L111.476 61.086C111.167998 60.8953324 110.70967 60.7083343 110.101 60.525 109.49233 60.3416657 108.784671 60.25 107.978 60.25 107.567331 60.25 107.186002 60.2939996 106.834 60.382 106.481998 60.4700004 106.174001 60.6019991 105.91 60.778 105.645999 60.9540009 105.437001 61.1776653 105.283 61.449 105.128999 61.7203347 105.052 62.0393315 105.052 62.406 105.052 62.8166687 105.132666 63.1613319 105.294 63.44 105.455334 63.7186681 105.682665 63.9643323 105.976 64.177 106.269335 64.3896677 106.610331 64.5839991 106.999 64.76 107.387669 64.9360009 107.816664 65.1119991 108.286 65.288 108.946003 65.5520013 109.550997 65.8159987 110.101 66.08 110.651003 66.3440013 111.127665 66.6593315 111.531 67.026 111.934335 67.3926685 112.245999 67.8289975 112.466 68.335 112.686001 68.8410025 112.796 69.4533297 112.796 70.172 112.796 71.5066733 112.308338 72.5333297 111.333 73.252 110.357662 73.9706703 108.982676 74.33 107.208 74.33 106.606664 74.33 106.053003 74.2896671 105.547 74.209 105.040997 74.1283329 104.590002 74.0330005 104.194 73.923 103.797998 73.8129995 103.457001 73.6956673 103.171 73.571 102.884999 73.4463327 102.661334 73.3400004 102.5 73.252L103.138 71.492C103.475335 71.6826676 103.988663 71.8953322 104.678 72.13 105.367337 72.3646678 106.210662 72.482 107.208 72.482zM130.638 58.754L130.638 60.602 125.842 60.602 125.842 74 123.708 74 123.708 60.602 118.912 60.602 118.912 58.754 130.638 58.754zM143.64 74.33C142.642662 74.33 141.777337 74.1760015 141.044 73.868 140.310663 73.5599985 139.709336 73.138336 139.24 72.603 138.770664 72.067664 138.422334 71.433337 138.195 70.7 137.967666 69.966663 137.854 69.1746709 137.854 68.324L137.854 58.754 139.988 58.754 139.988 68.082C139.988 69.607341 140.32533 70.7146632 141 71.404 141.67467 72.0933368 142.554661 72.438 143.64 72.438 144.182669 72.438 144.677664 72.3536675 145.125 72.185 145.572336 72.0163325 145.957332 71.7560018 146.28 71.404 146.602668 71.0519982 146.851999 70.6010027 147.028 70.051 147.204001 69.5009972 147.292 68.8446705 147.292 68.082L147.292 58.754 149.426 58.754 149.426 68.324C149.426 69.1746709 149.312334 69.966663 149.085 70.7 148.857666 71.433337 148.505669 72.067664 148.029 72.603 147.552331 73.138336 146.951004 73.5599985 146.225 73.868 145.498996 74.1760015 144.637338 74.33 143.64 74.33zM170.502 58.754C169.944664 60.3673414 169.413003 61.8596598 168.907 63.231 168.400997 64.6023402 167.906002 65.9039938 167.422 67.136 166.937998 68.3680062 166.457669 69.5449944 165.981 70.667 165.504331 71.7890056 165.016669 72.8999945 164.518 74L162.516 74C162.017331 72.8999945 161.529669 71.7890056 161.053 70.667 160.576331 69.5449944 160.092336 68.3680062 159.601 67.136 159.109664 65.9039938 158.607336 64.6023402 158.094 63.231 157.580664 61.8596598 157.052669 60.3673414 156.51 58.754L158.864 58.754C159.656004 61.0713449 160.43333 63.300656 161.196 65.442 161.95867 67.583344 162.743329 69.5926573 163.55 71.47 164.356671 69.607324 165.14133 67.6016774 165.904 65.453 166.66667 63.3043226 167.436663 61.0713449 168.214 58.754L170.502 58.754zM186.034 63.66C185.417997 65.6253432 184.79467 67.4439916 184.164 69.116 183.53333 70.7880084 182.90267 72.4159921 182.272 74L180.138 74C179.360663 71.7559888 178.675003 69.3873458 178.081 66.894 177.486997 64.4006542 176.933336 61.687348 176.42 58.754L178.664 58.754C178.869334 59.8980057 179.081999 61.0419943 179.302 62.186 179.522001 63.3300057 179.749332 64.4409946 179.984 65.519 180.218668 66.5970054 180.453332 67.6273284 180.688 68.61 180.922668 69.5926716 181.164665 70.5019958 181.414 71.338 182.00067 69.7979923 182.623997 68.1076759 183.284 66.267 183.944003 64.4263241 184.559997 62.5233432 185.132 60.558L186.98 60.558C187.552003 62.5233432 188.17533 64.4263241 188.85 66.267 189.52467 68.1076759 190.15533 69.7979923 190.742 71.338 190.976668 70.5166626 191.211332 69.6146716 191.446 68.632 191.680668 67.6493284 191.911666 66.6190054 192.139 65.541 192.366334 64.4629946 192.589999 63.3483391 192.81 62.197 193.030001 61.0456609 193.242666 59.8980057 193.448 58.754L195.626 58.754C195.097997 61.687348 194.537003 64.4006542 193.943 66.894 193.348997 69.3873458 192.67067 71.7559888 191.908 74L189.774 74C189.128663 72.4159921 188.498003 70.7880084 187.882 69.116 187.265997 67.4439916 186.650003 65.6253432 186.034 63.66zM212.368 74C212.147999 73.5599978 211.884002 73.072336 211.576 72.537 211.267998 72.001664 210.930668 71.4443362 210.564 70.865 210.197331 70.2856638 209.816002 69.7063362 209.42 69.127 209.023998 68.5476638 208.642668 68.0013359 208.276 67.488 207.909331 68.0013359 207.528002 68.5476638 207.132 69.127 206.735998 69.7063362 206.358335 70.2856638 205.999 70.865 205.639665 71.4443362 205.302335 72.001664 204.987 72.537 204.671665 73.072336 204.404001 73.5599978 204.184 74L201.83 74C202.490003 72.7093269 203.256329 71.3966733 204.129 70.062 205.001671 68.7273267 205.929328 67.356007 206.912 65.948L202.028 58.754 204.492 58.754 208.254 64.43 211.972 58.754 214.414 58.754 209.618 65.86C210.615338 67.2826738 211.553996 68.6686599 212.434 70.018 213.314004 71.3673401 214.09133 72.6946601 214.766 74L212.368 74zM225.81 74L225.81 67.884C224.797995 66.3146588 223.844671 64.767341 222.95 63.242 222.055329 61.716659 221.212004 60.220674 220.42 58.754L222.928 58.754C223.485336 59.9566727 224.108663 61.1776605 224.798 62.417 225.487337 63.6563395 226.198663 64.8479943 226.932 65.992 227.65067 64.8479943 228.354663 63.6563395 229.044 62.417 229.733337 61.1776605 230.363997 59.9566727 230.936 58.754L233.312 58.754C232.519996 60.220674 231.676671 61.7129924 230.782 63.231 229.887329 64.7490076 228.941338 66.2853256 227.944 67.84L227.944 74 225.81 74zM250.098 60.448C249.760665 60.8293352 249.368336 61.287664 248.921 61.823 248.473664 62.358336 248.000669 62.9523301 247.502 63.605 247.003331 64.2576699 246.490003 64.9469964 245.962 65.673 245.433997 66.3990036 244.917003 67.1323296 244.411 67.873 243.904997 68.6136704 243.424669 69.350663 242.97 70.084 242.515331 70.817337 242.104668 71.5139967 241.738 72.174L250.318 72.174 250.318 74 239.252 74 239.252 72.57C239.560002 71.9833304 239.922998 71.3380035 240.341 70.634 240.759002 69.9299965 241.206331 69.211337 241.683 68.478 242.159669 67.744663 242.654664 67.0040037 243.168 66.256 243.681336 65.5079963 244.190997 64.7893368 244.697 64.1 245.203003 63.4106632 245.694331 62.7653363 246.171 62.164 246.647669 61.5626637 247.083998 61.0346689 247.48 60.58L239.648 60.58 239.648 58.754 250.098 58.754 250.098 60.448zM25.632 112.526C26.1160024 112.526 26.5449981 112.515 26.919 112.493 27.2930019 112.471 27.6046654 112.430667 27.854 112.372L27.854 108.962C27.7073326 108.888666 27.4690016 108.826334 27.139 108.775 26.8089983 108.723666 26.4093357 108.698 25.94 108.698 25.6319985 108.698 25.3056684 108.72 24.961 108.764 24.6163316 108.808 24.3010014 108.899666 24.015 109.039 23.7289986 109.178334 23.4906676 109.368999 23.3 109.611 23.1093324 109.853001 23.014 110.171998 23.014 110.568 23.014 111.301337 23.2486643 111.810999 23.718 112.097 24.1873357 112.383001 24.8253293 112.526 25.632 112.526zM25.456 102.274C26.2773374 102.274 26.9703305 102.380332 27.535 102.593 28.0996695 102.805668 28.5543316 103.106331 28.899 103.495 29.2436684 103.883669 29.4893326 104.345664 29.636 104.881 29.7826674 105.416336 29.856 106.006663 29.856 106.652L29.856 113.802C29.6799991 113.831333 29.4343349 113.871666 29.119 113.923 28.8036651 113.974334 28.448002 114.022 28.052 114.066 27.655998 114.11 27.2270023 114.150333 26.765 114.187 26.3029977 114.223667 25.8446689 114.242 25.39 114.242 24.7446634 114.242 24.1506694 114.176001 23.608 114.044 23.0653306 113.911999 22.596002 113.703001 22.2 113.417 21.803998 113.130999 21.4960011 112.753336 21.276 112.284 21.0559989 111.814664 20.946 111.250003 20.946 110.59 20.946 109.95933 21.074332 109.416669 21.331 108.962 21.587668 108.507331 21.9359978 108.140668 22.376 107.862 22.8160022 107.583332 23.3293304 107.378001 23.916 107.246 24.5026696 107.113999 25.1186634 107.048 25.764 107.048 25.9693344 107.048 26.1819989 107.059 26.402 107.081 26.6220011 107.103 26.830999 107.132333 27.029 107.169 27.227001 107.205667 27.3993326 107.238667 27.546 107.268 27.6926674 107.297333 27.795333 107.319333 27.854 107.334L27.854 106.762C27.854 106.424665 27.8173337 106.091002 27.744 105.761 27.6706663 105.430998 27.5386676 105.137668 27.348 104.881 27.1573324 104.624332 26.8970016 104.419001 26.567 104.265 26.2369984 104.110999 25.8080026 104.034 25.28 104.034 24.60533 104.034 24.0150025 104.081666 23.509 104.177 23.0029975 104.272334 22.6253346 104.371333 22.376 104.474L22.134 102.78C22.3980013 102.662666 22.8379969 102.549001 23.454 102.439 24.0700031 102.328999 24.7373297 102.274 25.456 102.274zM40.372 103.066C40.6213346 102.904666 40.9989975 102.736001 41.505 102.56 42.0110025 102.383999 42.5939967 102.296 43.254 102.296 44.0753374 102.296 44.8049968 102.442665 45.443 102.736 46.0810032 103.029335 46.6199978 103.439997 47.06 103.968 47.5000022 104.496003 47.8336655 105.126663 48.061 105.86 48.2883345 106.593337 48.402 107.399996 48.402 108.28 48.402 109.204005 48.2663347 110.03633 47.995 110.777 47.7236653 111.51767 47.3386692 112.144664 46.84 112.658 46.3413308 113.171336 45.7400035 113.567332 45.036 113.846 44.3319965 114.124668 43.5400044 114.264 42.66 114.264 41.7066619 114.264 40.863337 114.198001 40.13 114.066 39.396663 113.933999 38.7953357 113.802001 38.326 113.67L38.326 97.28 40.372 96.928 40.372 103.066zM40.372 112.218C40.5773344 112.276667 40.8669981 112.331666 41.241 112.383 41.6150019 112.434334 42.0806639 112.46 42.638 112.46 43.7380055 112.46 44.6179967 112.097004 45.278 111.371 45.9380033 110.644996 46.268 109.614673 46.268 108.28 46.268 107.69333 46.2093339 107.143336 46.092 106.63 45.9746661 106.116664 45.7840013 105.673002 45.52 105.299 45.2559987 104.924998 44.9150021 104.631668 44.497 104.419 44.0789979 104.206332 43.5766696 104.1 42.99 104.1 42.4326639 104.1 41.9193357 104.195332 41.45 104.386 40.9806643 104.576668 40.6213346 104.774666 40.372 104.98L40.372 112.218zM61.338 114.264C60.4139954 114.264 59.6036701 114.117335 58.907 113.824 58.2103298 113.530665 57.623669 113.120003 57.147 112.592 56.6703309 112.063997 56.3146678 111.437004 56.08 110.711 55.8453322 109.984996 55.728 109.182004 55.728 108.302 55.728 107.421996 55.856332 106.615337 56.113 105.882 56.3696679 105.148663 56.7326643 104.514336 57.202 103.979 57.6713357 103.443664 58.2469966 103.025668 58.929 102.725 59.6110034 102.424332 60.3699958 102.274 61.206 102.274 61.7193359 102.274 62.2326641 102.318 62.746 102.406 63.2593359 102.494 63.7506643 102.633332 64.22 102.824L63.758 104.562C63.4499985 104.415333 63.0943353 104.298 62.691 104.21 62.2876646 104.122 61.8586689 104.078 61.404 104.078 60.2599943 104.078 59.3836697 104.43733 58.775 105.156 58.1663303 105.87467 57.862 106.923326 57.862 108.302 57.862 108.918003 57.931666 109.482664 58.071 109.996 58.210334 110.509336 58.4303318 110.949331 58.731 111.316 59.0316682 111.682669 59.4166643 111.964999 59.886 112.163 60.3553357 112.361001 60.92733 112.46 61.602 112.46 62.1446694 112.46 62.6359978 112.408667 63.076 112.306 63.5160022 112.203333 63.8606654 112.093334 64.11 111.976L64.396 113.692C64.2786661 113.765334 64.1100011 113.835 63.89 113.901 63.6699989 113.967 63.4206681 114.025666 63.142 114.077 62.8633319 114.128334 62.5663349 114.172333 62.251 114.209 61.9356651 114.245667 61.6313348 114.264 61.338 114.264zM79.07 104.98C78.8206654 104.774666 78.4613357 104.576668 77.992 104.386 77.5226643 104.195332 77.0093361 104.1 76.452 104.1 75.8653304 104.1 75.3630021 104.206332 74.945 104.419 74.5269979 104.631668 74.1860013 104.924998 73.922 105.299 73.6579987 105.673002 73.4673339 106.116664 73.35 106.63 73.2326661 107.143336 73.174 107.69333 73.174 108.28 73.174 109.614673 73.5039967 110.644996 74.164 111.371 74.8240033 112.097004 75.7039945 112.46 76.804 112.46 77.3613361 112.46 77.8269981 112.434334 78.201 112.383 78.5750019 112.331666 78.8646656 112.276667 79.07 112.218L79.07 104.98zM79.07 97.28L81.116 96.928 81.116 113.67C80.6466643 113.802001 80.045337 113.933999 79.312 114.066 78.578663 114.198001 77.7353381 114.264 76.782 114.264 75.9019956 114.264 75.1100035 114.124668 74.406 113.846 73.7019965 113.567332 73.1006692 113.171336 72.602 112.658 72.1033308 112.144664 71.7183347 111.51767 71.447 110.777 71.1756653 110.03633 71.04 109.204005 71.04 108.28 71.04 107.399996 71.1536655 106.593337 71.381 105.86 71.6083345 105.126663 71.9419978 104.496003 72.382 103.968 72.8220022 103.439997 73.3609968 103.029335 73.999 102.736 74.6370032 102.442665 75.3666626 102.296 76.188 102.296 76.8480033 102.296 77.4309975 102.383999 77.937 102.56 78.4430025 102.736001 78.8206654 102.904666 79.07 103.066L79.07 97.28zM89.08 108.302C89.08 107.289995 89.2266652 106.406337 89.52 105.651 89.8133348 104.895663 90.2019976 104.268669 90.686 103.77 91.1700024 103.271331 91.7273302 102.897335 92.358 102.648 92.9886698 102.398665 93.6339967 102.274 94.294 102.274 95.8340077 102.274 97.0146626 102.754329 97.836 103.715 98.6573374 104.675671 99.068 106.138657 99.068 108.104L99.068 108.445C99.068 108.584334 99.0606667 108.712666 99.046 108.83L91.214 108.83C91.3020004 110.018006 91.6466637 110.919997 92.248 111.536 92.8493363 112.152003 93.7879936 112.46 95.064 112.46 95.7826703 112.46 96.3876642 112.397667 96.879 112.273 97.3703358 112.148333 97.7406654 112.027334 97.99 111.91L98.276 113.626C98.0266654 113.758001 97.5903364 113.897333 96.967 114.044 96.3436635 114.190667 95.636004 114.264 94.844 114.264 93.8466617 114.264 92.9850036 114.113668 92.259 113.813 91.5329964 113.512332 90.9353357 113.098003 90.466 112.57 89.9966643 112.041997 89.6483345 111.415004 89.421 110.689 89.1936655 109.962996 89.08 109.167338 89.08 108.302zM96.934 107.18C96.9486667 106.255995 96.717669 105.497003 96.241 104.903 95.7643309 104.308997 95.1080042 104.012 94.272 104.012 93.8026643 104.012 93.3883351 104.103666 93.029 104.287 92.6696649 104.470334 92.3653346 104.708665 92.116 105.002 91.8666654 105.295335 91.672334 105.632665 91.533 106.014 91.393666 106.395335 91.3020002 106.783998 91.258 107.18L96.934 107.18zM111.564 96.928C112.165336 96.928 112.682331 96.9719996 113.115 97.06 113.547669 97.1480004 113.851999 97.2286663 114.028 97.302L113.654 99.062C113.477999 98.9739996 113.228668 98.8896671 112.906 98.809 112.583332 98.7283329 112.187336 98.688 111.718 98.688 110.764662 98.688 110.097335 98.9483307 109.716 99.469 109.334665 99.9896693 109.144 100.689996 109.144 101.57L109.144 102.56 113.544 102.56 113.544 104.276 109.144 104.276 109.144 114 107.098 114 107.098 101.526C107.098 100.059326 107.45733 98.9263373 108.176 98.127 108.89467 97.3276627 110.023992 96.928 111.564 96.928zM127.844 112.856C127.667999 112.973334 127.327003 113.123666 126.821 113.307 126.314997 113.490334 125.72467 113.582 125.05 113.582 124.360663 113.582 123.71167 113.472001 123.103 113.252 122.49433 113.031999 121.962669 112.691002 121.508 112.229 121.053331 111.766998 120.694001 111.191337 120.43 110.502 120.165999 109.812663 120.034 108.991338 120.034 108.038 120.034 107.201996 120.158665 106.43567 120.408 105.739 120.657335 105.04233 121.020331 104.441003 121.497 103.935 121.973669 103.428997 122.556663 103.033001 123.246 102.747 123.935337 102.460999 124.712662 102.318 125.578 102.318 126.531338 102.318 127.363663 102.387666 128.075 102.527 128.786337 102.666334 129.383998 102.794666 129.868 102.912L129.868 113.12C129.868 114.880009 129.413338 116.155996 128.504 116.948 127.594662 117.740004 126.216009 118.136 124.368 118.136 123.64933 118.136 122.971003 118.077334 122.333 117.96 121.694997 117.842666 121.141336 117.703334 120.672 117.542L121.046 115.76C121.456669 115.921334 121.958997 116.064333 122.553 116.189 123.147003 116.313667 123.766663 116.376 124.412 116.376 125.629339 116.376 126.505664 116.134002 127.041 115.65 127.576336 115.165998 127.844 114.396005 127.844 113.34L127.844 112.856zM127.822 104.364C127.616666 104.305333 127.341668 104.250334 126.997 104.199 126.652332 104.147666 126.18667 104.122 125.6 104.122 124.499994 104.122 123.653003 104.48133 123.059 105.2 122.464997 105.91867 122.168 106.871994 122.168 108.06 122.168 108.720003 122.252332 109.284664 122.421 109.754 122.589668 110.223336 122.816999 110.611998 123.103 110.92 123.389001 111.228002 123.718998 111.455333 124.093 111.602 124.467002 111.748667 124.851998 111.822 125.248 111.822 125.790669 111.822 126.289331 111.745001 126.744 111.591 127.198669 111.436999 127.557999 111.257334 127.822 111.052L127.822 104.364zM138.47 114L138.47 97.28 140.516 96.928 140.516 102.78C140.897335 102.633333 141.304331 102.519667 141.737 102.439 142.169669 102.358333 142.598665 102.318 143.024 102.318 143.933338 102.318 144.688664 102.446332 145.29 102.703 145.891336 102.959668 146.371665 103.318998 146.731 103.781 147.090335 104.243002 147.343333 104.796663 147.49 105.442 147.636667 106.087337 147.71 106.798663 147.71 107.576L147.71 114 145.664 114 145.664 108.016C145.664 107.311996 145.616334 106.710669 145.521 106.212 145.425666 105.713331 145.268001 105.310002 145.048 105.002 144.827999 104.693998 144.534668 104.470334 144.168 104.331 143.801331 104.191666 143.346669 104.122 142.804 104.122 142.583999 104.122 142.356668 104.136667 142.122 104.166 141.887332 104.195333 141.663668 104.228333 141.451 104.265 141.238332 104.301667 141.047668 104.342 140.879 104.386 140.710332 104.43 140.589334 104.466667 140.516 104.496L140.516 114 138.47 114zM158.16 114L156.114 114 156.114 102.56 158.16 102.56 158.16 114zM157.126 100.492C156.759331 100.492 156.447668 100.371001 156.191 100.129 155.934332 99.8869988 155.806 99.5606687 155.806 99.15 155.806 98.7393313 155.934332 98.4130012 156.191 98.171 156.447668 97.9289988 156.759331 97.808 157.126 97.808 157.492668 97.808 157.804332 97.9289988 158.061 98.171 158.317668 98.4130012 158.446 98.7393313 158.446 99.15 158.446 99.5606687 158.317668 99.8869988 158.061 100.129 157.804332 100.371001 157.492668 100.492 157.126 100.492zM164.892 118.114C164.715999 118.114 164.488668 118.092 164.21 118.048 163.931332 118.004 163.696668 117.945334 163.506 117.872L163.77 116.2C163.916667 116.244 164.085332 116.280667 164.276 116.31 164.466668 116.339333 164.642666 116.354 164.804 116.354 165.508004 116.354 166.010332 116.137669 166.311 115.705 166.611668 115.272331 166.762 114.638004 166.762 113.802L166.762 102.56 168.808 102.56 168.808 113.78C168.808 115.246674 168.474337 116.335663 167.807 117.047 167.139663 117.758337 166.168006 118.114 164.892 118.114zM167.774 100.492C167.407331 100.492 167.095668 100.371001 166.839 100.129 166.582332 99.8869988 166.454 99.5606687 166.454 99.15 166.454 98.7393313 166.582332 98.4130012 166.839 98.171 167.095668 97.9289988 167.407331 97.808 167.774 97.808 168.140669 97.808 168.452332 97.9289988 168.709 98.171 168.965668 98.4130012 169.094 98.7393313 169.094 99.15 169.094 99.5606687 168.965668 99.8869988 168.709 100.129 168.452332 100.371001 168.140669 100.492 167.774 100.492zM181.546 107.708C181.986002 108.045335 182.451664 108.463331 182.943 108.962 183.434336 109.460669 183.918331 109.999664 184.395 110.579 184.871669 111.158336 185.322665 111.744997 185.748 112.339 186.173335 112.933003 186.532665 113.486664 186.826 114L184.428 114C184.119998 113.486664 183.764335 112.962336 183.361 112.427 182.957665 111.891664 182.536002 111.378336 182.096 110.887 181.655998 110.395664 181.208669 109.944669 180.754 109.534 180.299331 109.123331 179.866669 108.778668 179.456 108.5L179.456 114 177.41 114 177.41 97.28 179.456 96.928 179.456 107.356 180.622 106.19C181.047335 105.764665 181.465331 105.332002 181.876 104.892 182.286669 104.451998 182.675332 104.030335 183.042 103.627 183.408669 103.223665 183.723999 102.868002 183.988 102.56L186.386 102.56C186.048665 102.926669 185.682002 103.329998 185.286 103.77 184.889998 104.210002 184.479335 104.653664 184.054 105.101 183.628665 105.548336 183.199669 105.995664 182.767 106.443 182.334331 106.890336 181.927335 107.311998 181.546 107.708zM197.408 114.22C196.14666 114.190667 195.252003 113.919336 194.724 113.406 194.195997 112.892664 193.932 112.093339 193.932 111.008L193.932 97.28 195.978 96.928 195.978 110.678C195.978 111.015335 196.007333 111.293999 196.066 111.514 196.124667 111.734001 196.219999 111.909999 196.352 112.042 196.484001 112.174001 196.659999 112.273 196.88 112.339 197.100001 112.405 197.371332 112.46 197.694 112.504L197.408 114.22zM205.064 102.89C205.533336 102.772666 206.152996 102.648001 206.923 102.516 207.693004 102.383999 208.583995 102.318 209.596 102.318 210.329337 102.318 210.945331 102.416999 211.444 102.615 211.942669 102.813001 212.360665 103.102665 212.698 103.484 212.800667 103.410666 212.961999 103.308001 213.182 103.176 213.402001 103.043999 213.673332 102.915667 213.996 102.791 214.318668 102.666333 214.677998 102.556334 215.074 102.461 215.470002 102.365666 215.895331 102.318 216.35 102.318 217.230004 102.318 217.948664 102.446332 218.506 102.703 219.063336 102.959668 219.499665 103.322664 219.815 103.792 220.130335 104.261336 220.342999 104.818663 220.453 105.464 220.563001 106.109337 220.618 106.81333 220.618 107.576L220.618 114 218.572 114 218.572 108.016C218.572 107.34133 218.539 106.762002 218.473 106.278 218.407 105.793998 218.282334 105.390668 218.099 105.068 217.915666 104.745332 217.666335 104.507001 217.351 104.353 217.035665 104.198999 216.628669 104.122 216.13 104.122 215.440663 104.122 214.872336 104.213666 214.425 104.397 213.977664 104.580334 213.673334 104.745333 213.512 104.892 213.629334 105.273335 213.717333 105.691331 213.776 106.146 213.834667 106.600669 213.864 107.077331 213.864 107.576L213.864 114 211.818 114 211.818 108.016C211.818 107.34133 211.781334 106.762002 211.708 106.278 211.634666 105.793998 211.506334 105.390668 211.323 105.068 211.139666 104.745332 210.890335 104.507001 210.575 104.353 210.259665 104.198999 209.860002 104.122 209.376 104.122 209.170666 104.122 208.950668 104.129333 208.716 104.144 208.481332 104.158667 208.257668 104.177 208.045 104.199 207.832332 104.221 207.638001 104.246667 207.462 104.276 207.285999 104.305333 207.168667 104.327333 207.11 104.342L207.11 114 205.064 114 205.064 102.89zM229.088 102.89C229.557336 102.772666 230.180663 102.648001 230.958 102.516 231.735337 102.383999 232.629995 102.318 233.642 102.318 234.551338 102.318 235.306664 102.446332 235.908 102.703 236.509336 102.959668 236.989665 103.318998 237.349 103.781 237.708335 104.243002 237.961333 104.796663 238.108 105.442 238.254667 106.087337 238.328 106.798663 238.328 107.576L238.328 114 236.282 114 236.282 108.016C236.282 107.311996 236.234334 106.710669 236.139 106.212 236.043666 105.713331 235.886001 105.310002 235.666 105.002 235.445999 104.693998 235.152669 104.470334 234.786 104.331 234.419331 104.191666 233.964669 104.122 233.422 104.122 233.201999 104.122 232.974668 104.129333 232.74 104.144 232.505332 104.158667 232.281668 104.177 232.069 104.199 231.856332 104.221 231.665668 104.246667 231.497 104.276 231.328332 104.305333 231.207334 104.327333 231.134 104.342L231.134 114 229.088 114 229.088 102.89zM256.896 108.28C256.896 109.189338 256.764001 110.010663 256.5 110.744 256.235999 111.477337 255.865669 112.107997 255.389 112.636 254.912331 113.164003 254.344003 113.570999 253.684 113.857 253.023997 114.143001 252.305337 114.286 251.528 114.286 250.750663 114.286 250.032003 114.143001 249.372 113.857 248.711997 113.570999 248.143669 113.164003 247.667 112.636 247.190331 112.107997 246.820001 111.477337 246.556 110.744 246.291999 110.010663 246.16 109.189338 246.16 108.28 246.16 107.385329 246.291999 106.56767 246.556 105.827 246.820001 105.08633 247.190331 104.452003 247.667 103.924 248.143669 103.395997 248.711997 102.989001 249.372 102.703 250.032003 102.416999 250.750663 102.274 251.528 102.274 252.305337 102.274 253.023997 102.416999 253.684 102.703 254.344003 102.989001 254.912331 103.395997 255.389 103.924 255.865669 104.452003 256.235999 105.08633 256.5 105.827 256.764001 106.56767 256.896 107.385329 256.896 108.28zM254.762 108.28C254.762 106.989327 254.472336 105.966337 253.893 105.211 253.313664 104.455663 252.525338 104.078 251.528 104.078 250.530662 104.078 249.742336 104.455663 249.163 105.211 248.583664 105.966337 248.294 106.989327 248.294 108.28 248.294 109.570673 248.583664 110.593663 249.163 111.349 249.742336 112.104337 250.530662 112.482 251.528 112.482 252.525338 112.482 253.313664 112.104337 253.893 111.349 254.472336 110.593663 254.762 109.570673 254.762 108.28zM272.802 108.302C272.802 106.967327 272.472003 105.94067 271.812 105.222 271.151997 104.50333 270.272005 104.144 269.172 104.144 268.555997 104.144 268.075668 104.166 267.731 104.21 267.386332 104.254 267.111334 104.305333 266.906 104.364L266.906 111.58C267.155335 111.785334 267.514664 111.983332 267.984 112.174 268.453336 112.364668 268.966664 112.46 269.524 112.46 270.11067 112.46 270.612998 112.353668 271.031 112.141 271.449002 111.928332 271.789999 111.635002 272.054 111.261 272.318001 110.886998 272.508666 110.447003 272.626 109.941 272.743334 109.434997 272.802 108.88867 272.802 108.302zM274.936 108.302C274.936 109.167338 274.822334 109.966663 274.595 110.7 274.367666 111.433337 274.034002 112.063997 273.594 112.592 273.153998 113.120003 272.615003 113.530665 271.977 113.824 271.338997 114.117335 270.609337 114.264 269.788 114.264 269.127997 114.264 268.545003 114.176001 268.039 114 267.532997 113.823999 267.155335 113.655334 266.906 113.494L266.906 118.07 264.86 118.07 264.86 102.912C265.344002 102.794666 265.948996 102.666334 266.675 102.527 267.401004 102.387666 268.240662 102.318 269.194 102.318 270.074004 102.318 270.865996 102.457332 271.57 102.736 272.274004 103.014668 272.875331 103.410664 273.374 103.924 273.872669 104.437336 274.257665 105.06433 274.529 105.805 274.800335 106.54567 274.936 107.377995 274.936 108.302zM23.256 138.302C23.256 138.88867 23.3146661 139.434997 23.432 139.941 23.5493339 140.447003 23.7399987 140.886998 24.004 141.261 24.2680013 141.635002 24.6089979 141.928332 25.027 142.141 25.4450021 142.353668 25.9473304 142.46 26.534 142.46 27.0913361 142.46 27.6046643 142.364668 28.074 142.174 28.5433357 141.983332 28.9026654 141.785334 29.152 141.58L29.152 134.364C28.9466656 134.305333 28.6716684 134.254 28.327 134.21 27.9823316 134.166 27.5020031 134.144 26.886 134.144 25.7859945 134.144 24.9060033 134.50333 24.246 135.222 23.5859967 135.94067 23.256 136.967327 23.256 138.302zM21.122 138.302C21.122 137.377995 21.2576653 136.54567 21.529 135.805 21.8003347 135.06433 22.1853308 134.437336 22.684 133.924 23.1826692 133.410664 23.7839965 133.014668 24.488 132.736 25.1920035 132.457332 25.9839956 132.318 26.864 132.318 27.8173381 132.318 28.6569964 132.387666 29.383 132.527 30.1090036 132.666334 30.7139976 132.794666 31.198 132.912L31.198 148.07 29.152 148.07 29.152 143.494C28.9026654 143.655334 28.5250025 143.823999 28.019 144 27.5129975 144.176001 26.9300033 144.264 26.27 144.264 25.4486626 144.264 24.7190032 144.117335 24.081 143.824 23.4429968 143.530665 22.9040022 143.120003 22.464 142.592 22.0239978 142.063997 21.6903345 141.433337 21.463 140.7 21.2356655 139.966663 21.122 139.167338 21.122 138.302zM44.024 132.318C44.2000009 132.318 44.4016655 132.329 44.629 132.351 44.8563345 132.373 45.0799989 132.402333 45.3 132.439 45.5200011 132.475667 45.7216657 132.512333 45.905 132.549 46.0883343 132.585667 46.2239996 132.618667 46.312 132.648L45.96 134.43C45.7986659 134.371333 45.5310019 134.301667 45.157 134.221 44.7829981 134.140333 44.3026696 134.1 43.716 134.1 43.3346648 134.1 42.9570019 134.140333 42.583 134.221 42.2089981 134.301667 41.9633339 134.356667 41.846 134.386L41.846 144 39.8 144 39.8 133.044C40.2840024 132.867999 40.8853297 132.703001 41.604 132.549 42.3226703 132.394999 43.1293289 132.318 44.024 132.318zM56.036 142.526C56.8720042 142.526 57.4916646 142.416001 57.895 142.196 58.2983354 141.975999 58.5 141.624002 58.5 141.14 58.5 140.641331 58.302002 140.245335 57.906 139.952 57.509998 139.658665 56.8573379 139.328668 55.948 138.962 55.5079978 138.785999 55.0863353 138.606334 54.683 138.423 54.2796646 138.239666 53.9313348 138.023335 53.638 137.774 53.3446652 137.524665 53.1100009 137.224002 52.934 136.872 52.7579991 136.519998 52.67 136.087336 52.67 135.574 52.67 134.561995 53.0439963 133.759003 53.792 133.165 54.5400037 132.570997 55.5593269 132.274 56.85 132.274 57.1726683 132.274 57.4953317 132.292333 57.818 132.329 58.1406683 132.365667 58.4413319 132.409666 58.72 132.461 58.9986681 132.512334 59.2443323 132.567333 59.457 132.626 59.6696677 132.684667 59.8346661 132.736 59.952 132.78L59.578 134.54C59.3579989 134.422666 59.0133357 134.301667 58.544 134.177 58.0746643 134.052333 57.5100033 133.99 56.85 133.99 56.2779971 133.99 55.7793355 134.103666 55.354 134.331 54.9286645 134.558334 54.716 134.913998 54.716 135.398 54.716 135.647335 54.7636662 135.867332 54.859 136.058 54.9543338 136.248668 55.100999 136.420999 55.299 136.575 55.497001 136.729001 55.7426652 136.871999 56.036 137.004 56.3293348 137.136001 56.6813313 137.275333 57.092 137.422 57.6346694 137.627334 58.1186645 137.828999 58.544 138.027 58.9693355 138.225001 59.3323318 138.455999 59.633 138.72 59.9336682 138.984001 60.1646659 139.302998 60.326 139.677 60.4873341 140.051002 60.568 140.509331 60.568 141.052 60.568 142.108005 60.1756706 142.907331 59.391 143.45 58.6063294 143.992669 57.4880073 144.264 56.036 144.264 55.0239949 144.264 54.2320029 144.179668 53.66 144.011 53.0879971 143.842332 52.6993344 143.714 52.494 143.626L52.868 141.866C53.1026678 141.954 53.4766641 142.085999 53.99 142.262 54.5033359 142.438001 55.1853291 142.526 56.036 142.526zM70.182 132.56L74.516 132.56 74.516 134.276 70.182 134.276 70.182 139.556C70.182 140.128003 70.2259996 140.600998 70.314 140.975 70.4020004 141.349002 70.5339991 141.642332 70.71 141.855 70.8860009 142.067668 71.1059987 142.218 71.37 142.306 71.6340013 142.394 71.9419982 142.438 72.294 142.438 72.9100031 142.438 73.4049981 142.368334 73.779 142.229 74.1530019 142.089666 74.4133326 141.990667 74.56 141.932L74.956 143.626C74.7506656 143.728667 74.3913359 143.856999 73.878 144.011 73.3646641 144.165001 72.7780033 144.242 72.118 144.242 71.3406628 144.242 70.6990025 144.143001 70.193 143.945 69.6869975 143.746999 69.2800015 143.450002 68.972 143.054 68.6639985 142.657998 68.4476673 142.170336 68.323 141.591 68.1983327 141.011664 68.136 140.34067 68.136 139.578L68.136 129.37 70.182 129.018 70.182 132.56zM91.302 143.67C90.8326643 143.787334 90.2130039 143.911999 89.443 144.044 88.6729962 144.176001 87.7820051 144.242 86.77 144.242 85.8899956 144.242 85.1493363 144.113668 84.548 143.857 83.9466637 143.600332 83.4626685 143.237336 83.096 142.768 82.7293315 142.298664 82.4653341 141.745003 82.304 141.107 82.1426659 140.468997 82.062 139.761337 82.062 138.984L82.062 132.56 84.108 132.56 84.108 138.544C84.108 139.93734 84.3279978 140.934664 84.768 141.536 85.2080022 142.137336 85.9486615 142.438 86.99 142.438 87.2100011 142.438 87.4373322 142.430667 87.672 142.416 87.9066678 142.401333 88.1266656 142.383 88.332 142.361 88.5373344 142.339 88.7243325 142.317 88.893 142.295 89.0616675 142.273 89.1826663 142.247333 89.256 142.218L89.256 132.56 91.302 132.56 91.302 143.67zM108.836 132.56C108.263997 134.701344 107.593004 136.754657 106.823 138.72 106.052996 140.685343 105.30867 142.445326 104.59 144L102.742 144C102.02333 142.445326 101.279004 140.685343 100.509 138.72 99.7389962 136.754657 99.0680029 134.701344 98.496 132.56L100.696 132.56C100.872001 133.27867 101.080999 134.044996 101.323 134.859 101.565001 135.673004 101.821665 136.479663 102.093 137.279 102.364335 138.078337 102.639332 138.851996 102.918 139.6 103.196668 140.348004 103.460665 141.01533 103.71 141.602 103.959335 141.01533 104.223332 140.348004 104.502 139.6 104.780668 138.851996 105.055665 138.078337 105.327 137.279 105.598335 136.479663 105.854999 135.673004 106.097 134.859 106.339001 134.044996 106.547999 133.27867 106.724 132.56L108.836 132.56zM125.38 144C124.969331 142.943995 124.533002 141.737673 124.071 140.381 123.608998 139.024327 123.187335 137.612674 122.806 136.146 122.424665 137.612674 122.006669 139.024327 121.552 140.381 121.097331 141.737673 120.664669 142.943995 120.254 144L118.472 144C117.79733 142.489326 117.137337 140.76601 116.492 138.83 115.846663 136.89399 115.238003 134.804011 114.666 132.56L116.866 132.56C117.012667 133.249337 117.188666 133.997329 117.394 134.804 117.599334 135.610671 117.815666 136.417329 118.043 137.224 118.270334 138.030671 118.508665 138.807996 118.758 139.556 119.007335 140.304004 119.241999 140.956664 119.462 141.514 119.711335 140.824663 119.956999 140.095004 120.199 139.325 120.441001 138.554996 120.671999 137.777671 120.892 136.993 121.112001 136.208329 121.320999 135.438337 121.519 134.683 121.717001 133.927663 121.889333 133.220003 122.036 132.56L123.73 132.56C123.862001 133.220003 124.023332 133.927663 124.214 134.683 124.404668 135.438337 124.609999 136.208329 124.83 136.993 125.050001 137.777671 125.280999 138.554996 125.523 139.325 125.765001 140.095004 126.010665 140.824663 126.26 141.514 126.480001 140.956664 126.710999 140.304004 126.953 139.556 127.195001 138.807996 127.433332 138.030671 127.668 137.224 127.902668 136.417329 128.122666 135.610671 128.328 134.804 128.533334 133.997329 128.709333 133.249337 128.856 132.56L130.968 132.56C130.395997 134.804011 129.787337 136.89399 129.142 138.83 128.496663 140.76601 127.83667 142.489326 127.162 144L125.38 144zM145.048 144C144.886666 143.677332 144.688668 143.318002 144.454 142.922 144.219332 142.525998 143.962668 142.119002 143.684 141.701 143.405332 141.282998 143.119335 140.868669 142.826 140.458 142.532665 140.047331 142.246668 139.658669 141.968 139.292 141.689332 139.658669 141.403335 140.050998 141.11 140.469 140.816665 140.887002 140.534335 141.304998 140.263 141.723 139.991665 142.141002 139.738668 142.547998 139.504 142.944 139.269332 143.340002 139.071334 143.691998 138.91 144L136.798 144C137.311336 143.002662 137.923663 141.987005 138.635 140.953 139.346337 139.918995 140.053996 138.932671 140.758 137.994L136.974 132.56 139.284 132.56 142.012 136.564 144.762 132.56 146.94 132.56 143.244 137.862C143.948004 138.815338 144.67033 139.823661 145.411 140.887 146.15167 141.950339 146.778664 142.987995 147.292 144L145.048 144zM153.188 146.134C153.349334 146.207334 153.558332 146.277 153.815 146.343 154.071668 146.409 154.324665 146.442 154.574 146.442 155.380671 146.442 156.011331 146.262335 156.466 145.903 156.920669 145.543665 157.331331 144.960671 157.698 144.154 156.773995 142.393991 155.912337 140.527677 155.113 138.555 154.313663 136.582323 153.650003 134.58401 153.122 132.56L155.322 132.56C155.483334 133.220003 155.677666 133.93133 155.905 134.694 156.132334 135.45667 156.385332 136.241329 156.664 137.048 156.942668 137.854671 157.243332 138.661329 157.566 139.468 157.888668 140.274671 158.225998 141.051996 158.578 141.8 159.135336 140.259992 159.619331 138.734674 160.03 137.224 160.440669 135.713326 160.829331 134.158675 161.196 132.56L163.308 132.56C162.779997 134.716011 162.193337 136.787657 161.548 138.775 160.902663 140.762343 160.206004 142.621325 159.458 144.352 159.164665 145.012003 158.860335 145.580331 158.545 146.057 158.229665 146.533669 157.881335 146.925998 157.5 147.234 157.118665 147.542002 156.689669 147.769333 156.213 147.916 155.736331 148.062667 155.197336 148.136 154.596 148.136 154.434666 148.136 154.266001 148.125 154.09 148.103 153.913999 148.081 153.741668 148.051667 153.573 148.015 153.404332 147.978333 153.250334 147.938 153.111 147.894 152.971666 147.85 152.872667 147.813333 152.814 147.784L153.188 146.134zM178.136 134.1C177.827998 134.437335 177.421003 134.913997 176.915 135.53 176.408997 136.146003 175.866336 136.827996 175.287 137.576 174.707664 138.324004 174.128336 139.108663 173.549 139.93 172.969664 140.751337 172.460002 141.535996 172.02 142.284L178.312 142.284 178.312 144 169.578 144 169.578 142.636C169.930002 141.990663 170.362664 141.279337 170.876 140.502 171.389336 139.724663 171.928331 138.951004 172.493 138.181 173.057669 137.410996 173.607664 136.685003 174.143 136.003 174.678336 135.320997 175.143998 134.745336 175.54 134.276L169.886 134.276 169.886 132.56 178.136 132.56 178.136 134.1zM22.046 169.9C22.8820042 169.577332 23.695996 169.163003 24.488 168.657 25.280004 168.150997 26.0059967 167.51667 26.666 166.754L28.118 166.754 28.118 182 26.072 182 26.072 169.592C25.8959991 169.753334 25.6796679 169.921999 25.423 170.098 25.1663321 170.274001 24.8876682 170.442666 24.587 170.604 24.2863318 170.765334 23.9710016 170.919333 23.641 171.066 23.3109983 171.212667 22.9920015 171.337333 22.684 171.44L22.046 169.9zM47.764 170.648C47.764 171.176003 47.6576677 171.685664 47.445 172.177 47.2323323 172.668336 46.9500018 173.152331 46.598 173.629 46.2459982 174.105669 45.8500022 174.574998 45.41 175.037 44.9699978 175.499002 44.5300022 175.949998 44.09 176.39 43.8406654 176.639335 43.5510016 176.932665 43.221 177.27 42.8909983 177.607335 42.5793348 177.959331 42.286 178.326 41.9926652 178.692668 41.747001 179.044665 41.549 179.382 41.350999 179.719335 41.252 180.012665 41.252 180.262L48.27 180.262 48.27 182 39.03 182C39.0153333 181.912 39.008 181.824 39.008 181.736L39.008 181.494C39.008 180.804663 39.1216655 180.163003 39.349 179.569 39.5763345 178.974997 39.8733315 178.414003 40.24 177.886 40.6066685 177.357997 41.0173311 176.859336 41.472 176.39 41.9266689 175.920664 42.3739978 175.466002 42.814 175.026 43.1806685 174.673998 43.5289983 174.325668 43.859 173.981 44.1890016 173.636332 44.482332 173.291668 44.739 172.947 44.9956679 172.602332 45.2009992 172.246668 45.355 171.88 45.5090008 171.513331 45.586 171.124669 45.586 170.714 45.586 170.273998 45.516334 169.900002 45.377 169.592 45.237666 169.283998 45.0506678 169.027334 44.816 168.822 44.5813322 168.616666 44.3063349 168.466334 43.991 168.371 43.6756651 168.275666 43.3420018 168.228 42.99 168.228 42.5646645 168.228 42.1760018 168.286666 41.824 168.404 41.4719982 168.521334 41.1566681 168.656999 40.878 168.811 40.5993319 168.965001 40.3646676 169.126332 40.174 169.295 39.9833324 169.463668 39.8366672 169.592 39.734 169.68L38.722 168.228C38.8540007 168.081333 39.0519987 167.901668 39.316 167.689 39.5800013 167.476332 39.8953315 167.274668 40.262 167.084 40.6286685 166.893332 41.0393311 166.732001 41.494 166.6 41.9486689 166.467999 42.4399974 166.402 42.968 166.402 44.5666747 166.402 45.7656627 166.77233 46.565 167.513 47.3643373 168.25367 47.764 169.29866 47.764 170.648zM59.952 180.504C61.2573399 180.504 62.1923305 180.247336 62.757 179.734 63.3216695 179.220664 63.604 178.531338 63.604 177.666 63.604 177.108664 63.4866678 176.639335 63.252 176.258 63.0173322 175.876665 62.7093352 175.572334 62.328 175.345 61.9466648 175.117666 61.5030025 174.956334 60.997 174.861 60.4909975 174.765666 59.9740026 174.718 59.446 174.718L58.918 174.718 58.918 173.046 59.644 173.046C60.0106685 173.046 60.3883314 173.009334 60.777 172.936 61.1656686 172.862666 61.5213317 172.730668 61.844 172.54 62.1666683 172.349332 62.4306656 172.089002 62.636 171.759 62.8413344 171.428998 62.944 171.014669 62.944 170.516 62.944 170.105331 62.8706674 169.753335 62.724 169.46 62.5773326 169.166665 62.3830012 168.924668 62.141 168.734 61.8989988 168.543332 61.6203349 168.407667 61.305 168.327 60.9896651 168.246333 60.6560018 168.206 60.304 168.206 59.5999965 168.206 59.0023358 168.308666 58.511 168.514 58.0196642 168.719334 57.605335 168.931999 57.268 169.152L56.476 167.59C56.6520009 167.472666 56.8756653 167.344334 57.147 167.205 57.4183347 167.065666 57.722665 166.937334 58.06 166.82 58.397335 166.702666 58.7603314 166.603667 59.149 166.523 59.5376686 166.442333 59.9446645 166.402 60.37 166.402 61.1766707 166.402 61.8733304 166.500999 62.46 166.699 63.0466696 166.897001 63.5306648 167.175665 63.912 167.535 64.2933352 167.894335 64.5793324 168.319664 64.77 168.811 64.9606676 169.302336 65.056 169.833997 65.056 170.406 65.056 171.198004 64.8286689 171.876331 64.374 172.441 63.9193311 173.005669 63.3693366 173.434665 62.724 173.728 63.120002 173.845334 63.5013315 174.013999 63.868 174.234 64.2346685 174.454001 64.5536653 174.732665 64.825 175.07 65.0963347 175.407335 65.3163325 175.795998 65.485 176.236 65.6536675 176.676002 65.738 177.167331 65.738 177.71 65.738 178.370003 65.6243345 178.982331 65.397 179.547 65.1696655 180.111669 64.8176691 180.599331 64.341 181.01 63.864331 181.420669 63.2666703 181.743332 62.548 181.978 61.8293297 182.212668 60.9786716 182.33 59.996 182.33 59.6146648 182.33 59.2223354 182.300667 58.819 182.242 58.4156647 182.183333 58.0380018 182.11 57.686 182.022 57.3339982 181.934 57.0260013 181.846 56.762 181.758 56.4979987 181.67 56.3073339 181.596667 56.19 181.538L56.586 179.756C56.8353346 179.873334 57.2496638 180.027332 57.829 180.218 58.4083362 180.408668 59.1159958 180.504 59.952 180.504zM73.35 176.72C73.6286681 176.074663 74.0099976 175.323004 74.494 174.465 74.9780024 173.606996 75.5243303 172.723338 76.133 171.814 76.7416697 170.904662 77.3943298 170.010004 78.091 169.13 78.7876701 168.249996 79.4879965 167.458004 80.192 166.754L82.15 166.754 82.15 176.434 83.954 176.434 83.954 178.106 82.15 178.106 82.15 182 80.17 182 80.17 178.106 73.35 178.106 73.35 176.72zM80.17 169.174C79.7299978 169.643336 79.2863356 170.167664 78.839 170.747 78.3916644 171.326336 77.9553355 171.93133 77.53 172.562 77.1046645 173.19267 76.7050019 173.837997 76.331 174.498 75.9569981 175.158003 75.6233348 175.80333 75.33 176.434L80.17 176.434 80.17 169.174zM94.338 172.628C96.5526777 172.716 98.1769948 173.199996 99.211 174.08 100.245005 174.960004 100.762 176.155326 100.762 177.666 100.762 178.34067 100.648334 178.963997 100.421 179.536 100.193666 180.108003 99.8490023 180.599331 99.387 181.01 98.9249977 181.420669 98.3420035 181.743332 97.638 181.978 96.9339965 182.212668 96.0980048 182.33 95.13 182.33 94.7486648 182.33 94.360002 182.300667 93.964 182.242 93.567998 182.183333 93.201335 182.11 92.864 182.022 92.526665 181.934 92.2260013 181.846 91.962 181.758 91.6979987 181.67 91.5073339 181.596667 91.39 181.538L91.786 179.756C92.0353346 179.873334 92.4423305 180.027332 93.007 180.218 93.5716695 180.408668 94.2646626 180.504 95.086 180.504 95.7460033 180.504 96.2996644 180.430667 96.747 180.284 97.1943356 180.137333 97.5573319 179.939335 97.836 179.69 98.1146681 179.440665 98.3163327 179.151002 98.441 178.821 98.5656673 178.490998 98.628 178.142669 98.628 177.776 98.628 177.218664 98.5326676 176.723669 98.342 176.291 98.1513324 175.858331 97.8140024 175.495335 97.33 175.202 96.8459976 174.908665 96.2006707 174.685001 95.394 174.531 94.5873293 174.376999 93.5680062 174.3 92.336 174.3 92.4240004 173.58133 92.4936664 172.90667 92.545 172.276 92.5963336 171.64533 92.6439998 171.029336 92.688 170.428 92.7320002 169.826664 92.7686665 169.229003 92.798 168.635 92.8273335 168.040997 92.8566665 167.414003 92.886 166.754L100.234 166.754 100.234 168.492 94.668 168.492C94.6533333 168.712001 94.6313335 169.008998 94.602 169.383 94.5726665 169.757002 94.5433335 170.145665 94.514 170.549 94.4846665 170.952335 94.4553335 171.344665 94.426 171.726 94.3966665 172.107335 94.3673335 172.407999 94.338 172.628zM108.836 175.884C108.836 174.402659 109.041331 173.093672 109.452 171.957 109.862669 170.820328 110.445663 169.863337 111.201 169.086 111.956337 168.308663 112.872995 167.718335 113.951 167.315 115.029005 166.911665 116.24266 166.702667 117.592 166.688L117.746 168.404C116.880662 168.418667 116.092337 168.513999 115.381 168.69 114.669663 168.866001 114.035336 169.144665 113.478 169.526 112.920664 169.907335 112.451335 170.40233 112.07 171.011 111.688665 171.61967 111.402668 172.371329 111.212 173.266 111.593335 173.089999 112.022331 172.943334 112.499 172.826 112.975669 172.708666 113.470664 172.65 113.984 172.65 114.849338 172.65 115.582664 172.781999 116.184 173.046 116.785336 173.310001 117.276665 173.658331 117.658 174.091 118.039335 174.523669 118.314332 175.022331 118.483 175.587 118.651668 176.151669 118.736 176.741997 118.736 177.358 118.736 177.915336 118.640668 178.48733 118.45 179.074 118.259332 179.66067 117.969669 180.195998 117.581 180.68 117.192331 181.164002 116.697336 181.559998 116.096 181.868 115.494664 182.176002 114.783337 182.33 113.962 182.33 112.289992 182.33 111.017671 181.758006 110.145 180.614 109.272329 179.469994 108.836 177.893343 108.836 175.884zM113.764 174.322C113.250664 174.322 112.774002 174.369666 112.334 174.465 111.893998 174.560334 111.454002 174.703332 111.014 174.894 110.999333 175.055334 110.988333 175.220332 110.981 175.389 110.973667 175.557668 110.97 175.722666 110.97 175.884 110.97 176.529337 111.014 177.137997 111.102 177.71 111.19 178.282003 111.347666 178.784331 111.575 179.217 111.802334 179.649669 112.106665 179.994332 112.488 180.251 112.869335 180.507668 113.35333 180.636 113.94 180.636 114.424002 180.636 114.834665 180.533334 115.172 180.328 115.509335 180.122666 115.787999 179.858668 116.008 179.536 116.228001 179.213332 116.385666 178.865002 116.481 178.491 116.576334 178.116998 116.624 177.754002 116.624 177.402 116.624 176.404662 116.385669 175.642003 115.909 175.114 115.432331 174.585997 114.717338 174.322 113.764 174.322zM128.526 182C128.614 180.826661 128.822998 179.591006 129.153 178.293 129.483002 176.994994 129.889998 175.733673 130.374 174.509 130.858002 173.284327 131.389664 172.147672 131.969 171.099 132.548336 170.050328 133.116664 169.196003 133.674 168.536L126.26 168.536 126.26 166.754 135.962 166.754 135.962 168.448C135.477998 169.005336 134.94267 169.771662 134.356 170.747 133.76933 171.722338 133.215669 172.814994 132.695 174.025 132.174331 175.235006 131.727002 176.52566 131.353 177.897 130.978998 179.26834 130.748 180.635993 130.66 182L128.526 182zM153.628 178.04C153.628 178.656003 153.521668 179.224331 153.309 179.745 153.096332 180.265669 152.781002 180.720331 152.363 181.109 151.944998 181.497669 151.42067 181.798332 150.79 182.011 150.15933 182.223668 149.433337 182.33 148.612 182.33 147.658662 182.33 146.863003 182.194335 146.225 181.923 145.586997 181.651665 145.077335 181.310669 144.696 180.9 144.314665 180.489331 144.043334 180.038336 143.882 179.547 143.720666 179.055664 143.64 178.590002 143.64 178.15 143.64 177.724665 143.709666 177.317669 143.849 176.929 143.988334 176.540331 144.171666 176.177335 144.399 175.84 144.626334 175.502665 144.890332 175.198335 145.191 174.927 145.491668 174.655665 145.810665 174.417334 146.148 174.212 144.710659 173.390663 143.992 172.180675 143.992 170.582 143.992 170.024664 144.101999 169.493003 144.322 168.987 144.542001 168.480997 144.853665 168.037335 145.257 167.656 145.660335 167.274665 146.147997 166.970334 146.72 166.743 147.292003 166.515666 147.929996 166.402 148.634 166.402 149.455337 166.402 150.15933 166.526665 150.746 166.776 151.33267 167.025335 151.812998 167.344331 152.187 167.733 152.561002 168.121669 152.832332 168.550664 153.001 169.02 153.169668 169.489336 153.254 169.943998 153.254 170.384 153.254 170.809335 153.191667 171.208998 153.067 171.583 152.942333 171.957002 152.773668 172.305332 152.561 172.628 152.348332 172.950668 152.106335 173.236665 151.835 173.486 151.563665 173.735335 151.281335 173.955332 150.988 174.146 152.718675 174.967337 153.598667 176.265324 153.628 178.04zM145.708 178.172C145.708 178.436001 145.755666 178.710999 145.851 178.997 145.946334 179.283001 146.111332 179.546999 146.346 179.789 146.580668 180.031001 146.881332 180.232666 147.248 180.394 147.614668 180.555334 148.076664 180.636 148.634 180.636 149.132669 180.636 149.568998 180.562667 149.943 180.416 150.317002 180.269333 150.621332 180.082334 150.856 179.855 151.090668 179.627666 151.266666 179.367335 151.384 179.074 151.501334 178.780665 151.56 178.480002 151.56 178.172 151.56 177.702664 151.472001 177.292002 151.296 176.94 151.119999 176.587998 150.867002 176.280001 150.537 176.016 150.206998 175.751999 149.811002 175.528334 149.349 175.345 148.886998 175.161666 148.36267 175.004001 147.776 174.872 147.115997 175.238668 146.606335 175.693331 146.247 176.236 145.887665 176.778669 145.708 177.423996 145.708 178.172zM151.208 170.362C151.208 170.141999 151.160334 169.900001 151.065 169.636 150.969666 169.371999 150.819334 169.126334 150.614 168.899 150.408666 168.671666 150.144668 168.481001 149.822 168.327 149.499332 168.172999 149.103336 168.096 148.634 168.096 148.164664 168.096 147.765002 168.169333 147.435 168.316 147.104998 168.462667 146.837334 168.649666 146.632 168.877 146.426666 169.104334 146.276334 169.353665 146.181 169.625 146.085666 169.896335 146.038 170.163999 146.038 170.428 146.038 170.750668 146.096666 171.073332 146.214 171.396 146.331334 171.718668 146.514665 172.019332 146.764 172.298 147.013335 172.576668 147.339665 172.825999 147.743 173.046 148.146335 173.266001 148.626664 173.441999 149.184 173.574 149.800003 173.207332 150.291332 172.778336 150.658 172.287 151.024668 171.795664 151.208 171.154004 151.208 170.362zM170.942 172.848C170.942 175.869348 170.190341 178.153659 168.687 179.701 167.183659 181.248341 164.950681 182.029333 161.988 182.044L161.922 180.328C162.846005 180.328 163.67833 180.240001 164.419 180.064 165.15967 179.887999 165.808664 179.605669 166.366 179.217 166.923336 178.828331 167.388998 178.326003 167.763 177.71 168.137002 177.093997 168.411999 176.338671 168.588 175.444 168.206665 175.620001 167.774002 175.762999 167.29 175.873 166.805998 175.983001 166.307336 176.038 165.794 176.038 164.928662 176.038 164.195336 175.909668 163.594 175.653 162.992664 175.396332 162.501335 175.051669 162.12 174.619 161.738665 174.186331 161.463668 173.687669 161.295 173.123 161.126332 172.558331 161.042 171.968003 161.042 171.352 161.042 170.809331 161.137332 170.24467 161.328 169.658 161.518668 169.07133 161.808331 168.536002 162.197 168.052 162.585669 167.567998 163.080664 167.172002 163.682 166.864 164.283336 166.555998 164.994663 166.402 165.816 166.402 166.652004 166.402 167.388997 166.548665 168.027 166.842 168.665003 167.135335 169.200331 167.560664 169.633 168.118 170.065669 168.675336 170.391999 169.353663 170.612 170.153 170.832001 170.952337 170.942 171.850662 170.942 172.848zM166.014 174.366C166.527336 174.366 167.011331 174.318334 167.466 174.223 167.920669 174.127666 168.360665 173.984668 168.786 173.794 168.800667 173.632666 168.808 173.475001 168.808 173.321L168.808 172.848C168.808 172.21733 168.764 171.612336 168.676 171.033 168.588 170.453664 168.430334 169.947669 168.203 169.515 167.975666 169.082331 167.671335 168.737668 167.29 168.481 166.908665 168.224332 166.42467 168.096 165.838 168.096 165.353998 168.096 164.943335 168.198666 164.606 168.404 164.268665 168.609334 163.990001 168.869665 163.77 169.185 163.549999 169.500335 163.392334 169.844998 163.297 170.219 163.201666 170.593002 163.154 170.955998 163.154 171.308 163.154 172.305338 163.392331 173.064331 163.869 173.585 164.345669 174.105669 165.060662 174.366 166.014 174.366zM178.51 174.366C178.51 171.813987 178.960995 169.848674 179.863 168.47 180.765005 167.091326 182.015325 166.402 183.614 166.402 185.212675 166.402 186.462995 167.091326 187.365 168.47 188.267005 169.848674 188.718 171.813987 188.718 174.366 188.718 176.918013 188.267005 178.883326 187.365 180.262 186.462995 181.640674 185.212675 182.33 183.614 182.33 182.015325 182.33 180.765005 181.640674 179.863 180.262 178.960995 178.883326 178.51 176.918013 178.51 174.366zM186.562 174.366C186.562 173.529996 186.514334 172.738004 186.419 171.99 186.323666 171.241996 186.162334 170.589336 185.935 170.032 185.707666 169.474664 185.403335 169.031002 185.022 168.701 184.640665 168.370998 184.171336 168.206 183.614 168.206 183.056664 168.206 182.587335 168.370998 182.206 168.701 181.824665 169.031002 181.520334 169.474664 181.293 170.032 181.065666 170.589336 180.904334 171.241996 180.809 171.99 180.713666 172.738004 180.666 173.529996 180.666 174.366 180.666 175.202004 180.713666 175.993996 180.809 176.742 180.904334 177.490004 181.065666 178.142664 181.293 178.7 181.520334 179.257336 181.824665 179.700998 182.206 180.031 182.587335 180.361002 183.056664 180.526 183.614 180.526 184.171336 180.526 184.640665 180.361002 185.022 180.031 185.403335 179.700998 185.707666 179.257336 185.935 178.7 186.162334 178.142664 186.323666 177.490004 186.419 176.742 186.514334 175.993996 186.562 175.202004 186.562 174.366z"/>
  </g>
</svg>
