<svg xmlns="http://www.w3.org/2000/svg" viewBox="0 0 360 240"><g fill="none" fill-rule="evenodd"><rect width="180" height="240" fill="#D7D7DB"/><rect width="180" height="240" x="180" fill="#0C0C0D"/><path fill="#0C0C0D" d="M57 99.84v41.97h-3.06V99.84H41V97h28.94v2.84H57zm10.56 26.1c0 4.4 1.02 7.83 3.05 10.31 2.03 2.48 4.82 3.72 8.36 3.72 3.58 0 7.08-1.32 10.5-3.97v3.06a18.7 18.7 0 0 1-11.1 3.53c-4.12 0-7.45-1.48-10-4.43-2.54-2.96-3.8-7.14-3.8-12.53 0-4.67 1.32-8.6 3.98-11.8 2.65-3.2 6.1-4.8 10.36-4.8 3.98 0 7.03 1.4 9.15 4.19 2.13 2.79 3.19 6.6 3.19 11.44v1.28H67.56zm20.69-2.63c-.13-3.69-1.01-6.55-2.66-8.6-1.64-2.03-3.91-3.05-6.8-3.05-3 0-5.5 1-7.46 3.01-1.97 2.01-3.18 4.9-3.64 8.64h20.56zm20.84 2.81l10.44 15.7h-3.66l-8.43-13.5h-.13l-1.12 1.77-.53.85-7.07 10.87h-3.5l10.7-15.62-10.5-16.38h3.37l7.12 11.47a70.1 70.1 0 0 1 1.66 2.75h.12l1.6-2.62 7.43-11.6h3.38l-10.88 16.31zm29.7 15.25c-1.5.71-2.91 1.07-4.23 1.07-4.73 0-7.1-2.84-7.1-8.5v-21.5h-5.74v-2.63h5.75v-8.31a56.39 56.39 0 0 1 2.87-.97v9.28h8.44v2.63h-8.44v21.12c0 2.21.35 3.81 1.05 4.8.7.99 1.88 1.48 3.55 1.48 1.19 0 2.47-.38 3.84-1.15v2.69z"/><path fill="#FFFFFF" d="M237 99.84v41.97h-3.06V99.84H221V97h28.94v2.84H237zm10.56 26.1c0 4.4 1.02 7.83 3.05 10.31 2.03 2.48 4.82 3.72 8.36 3.72 3.58 0 7.08-1.32 10.5-3.97v3.06a18.7 18.7 0 0 1-11.1 3.53c-4.12 0-7.45-1.48-10-4.43-2.54-2.96-3.8-7.14-3.8-12.53 0-4.67 1.32-8.6 3.98-11.8 2.65-3.2 6.1-4.8 10.36-4.8 3.98 0 7.03 1.4 9.15 4.19 2.13 2.79 3.19 6.6 3.19 11.44v1.28h-23.69zm20.69-2.63c-.13-3.69-1.01-6.55-2.66-8.6-1.64-2.03-3.91-3.05-6.8-3.05-3 0-5.5 1-7.46 3.01-1.97 2.01-3.18 4.9-3.64 8.64h20.56zm20.84 2.81l10.44 15.7h-3.65l-8.44-13.5h-.13l-1.12 1.77-.53.85-7.07 10.87h-3.5l10.7-15.62-10.5-16.38h3.37l7.12 11.47a70.1 70.1 0 0 1 1.66 2.75h.12l1.6-2.62 7.43-11.6h3.38l-10.88 16.31zm29.7 15.25c-1.5.71-2.91 1.07-4.23 1.07-4.73 0-7.1-2.84-7.1-8.5v-21.5h-5.74v-2.63h5.75v-8.31a56.39 56.39 0 0 1 2.87-.97v9.28h8.44v2.63h-8.44v21.12c0 2.21.35 3.81 1.05 4.8.7.99 1.88 1.48 3.55 1.48 1.19 0 2.47-.38 3.84-1.15v2.69z"/></g></svg>