<svg xmlns="http://www.w3.org/2000/svg" width="360" height="240" viewBox="0 0 360 240">
  <g fill="none" fill-rule="evenodd">
    <path fill="#4A4A4F" d="M37.3574219 81.5019531L37.3574219 80.3984375C38.3600311 81.0364615 39.3756459 81.3554688 40.4042969 81.3554688 41.4980523 81.3554688 42.3281222 81.129234 42.8945312 80.6767578 43.4609403 80.2242816 43.7441406 79.5911499 43.7441406 78.7773438 43.7441406 78.0611943 43.5537128 77.489911 43.1728516 77.0634766 42.7919903 76.6370421 41.9668032 76.0559933 40.6972656 75.3203125 39.2779877 74.4934854 38.3795592 73.8017606 38.0019531 73.2451172 37.6243471 72.6884738 37.4355469 72.0455766 37.4355469 71.3164062 37.4355469 70.326818 37.8196576 69.4869826 38.5878906 68.796875 39.3561236 68.1067674 40.381504 67.7617188 41.6640625 67.7617188 42.4974 67.7617188 43.330725 67.9016913 44.1640625 68.1816406L44.1640625 69.1972656C43.3437459 68.82617 42.4681036 68.640625 41.5371094 68.640625 40.5865838 68.640625 39.8330106 68.881508 39.2763672 69.3632812 38.7197238 69.8450545 38.4414062 70.4570275 38.4414062 71.1992188 38.4414062 71.9153682 38.631834 72.4850239 39.0126953 72.9082031 39.3935566 73.3313823 40.2154885 73.9075484 41.4785156 74.6367188 42.7871159 75.37891 43.6578754 76.0380831 44.0908203 76.6142578 44.5237652 77.1904326 44.7402344 77.8528608 44.7402344 78.6015625 44.7402344 79.6757866 44.3675167 80.5514289 43.6220703 81.2285156 42.8766239 81.9056023 41.8235745 82.2441406 40.4628906 82.2441406 39.9811174 82.2441406 39.4261099 82.1692716 38.7978516 82.0195312 38.1695932 81.8697909 37.6894548 81.6972666 37.3574219 81.5019531zM47.7578125 77.0390625C47.7578125 78.4127673 48.0751921 79.4869753 48.7099609 80.2617188 49.3447297 81.0364622 50.2154893 81.4238281 51.3222656 81.4238281 52.4420629 81.4238281 53.535802 81.0104208 54.6035156 80.1835938L54.6035156 81.140625C53.5683542 81.8763058 52.4127668 82.2441406 51.1367188 82.2441406 49.8476498 82.2441406 48.8059936 81.7819057 48.0117188 80.8574219 47.2174439 79.9329381 46.8203125 78.6276126 46.8203125 76.9414062 46.8203125 75.4830656 47.2353474 74.2542368 48.0654297 73.2548828 48.895512 72.2555289 49.9746027 71.7558594 51.3027344 71.7558594 52.5462302 71.7558594 53.4999967 72.1920529 54.1640625 73.0644531 54.8281283 73.9368533 55.1601562 75.1282477 55.1601562 76.6386719L55.1601562 77.0390625 47.7578125 77.0390625zM54.2226562 76.21875C54.1835936 75.0664005 53.9069036 74.1712271 53.3925781 73.5332031 52.8782526 72.8951791 52.1686243 72.5761719 51.2636719 72.5761719 50.3261672 72.5761719 49.5498078 72.8902963 48.9345703 73.5185547 48.3193329 74.146813 47.9401049 75.0468691 47.796875 76.21875L54.2226562 76.21875zM65.6386719 81.2578125C65.6386719 83.1393323 65.2285197 84.5162717 64.4082031 85.3886719 63.5878865 86.2610721 62.3118576 86.6972656 60.5800781 86.6972656 59.6165316 86.6972656 58.623703 86.4433619 57.6015625 85.9355469L57.6015625 84.9980469C58.6562553 85.5839873 59.6555942 85.8769531 60.5996094 85.8769531 63.3600398 85.8769531 64.7402344 84.4186344 64.7402344 81.5019531L64.7402344 80.203125 64.7011719 80.203125C63.9134075 81.5638089 62.7122477 82.2441406 61.0976562 82.2441406 59.8671813 82.2441406 58.8629596 81.7981815 58.0849609 80.90625 57.3069623 80.0143185 56.9179688 78.7708413 56.9179688 77.1757812 56.9179688 75.5807212 57.3378864 74.2786509 58.1777344 73.2695312 59.0175823 72.2604116 60.1243421 71.7558594 61.4980469 71.7558594 62.9694084 71.7558594 64.0371061 72.3645772 64.7011719 73.5820312L64.7402344 73.5820312 64.7402344 72 65.6386719 72 65.6386719 81.2578125zM64.7402344 75.8378906C64.7402344 74.9524695 64.4423858 74.1875032 63.8466797 73.5429688 63.2509736 72.8984343 62.4746142 72.5761719 61.5175781 72.5761719 60.4173122 72.5761719 59.5319044 72.9895792 58.8613281 73.8164062 58.1907519 74.6432333 57.8554688 75.7369724 57.8554688 77.0976562 57.8554688 78.4648506 58.1630829 79.5276655 58.7783203 80.2861328 59.3935578 81.0446001 60.2057241 81.4238281 61.2148438 81.4238281 62.2890679 81.4238281 63.1451791 81.0755243 63.7832031 80.3789062 64.4212271 79.6822882 64.7402344 78.8294321 64.7402344 77.8203125L64.7402344 75.8378906zM72.8554688 82.2441406C71.3971281 82.2441406 70.2431683 81.7640022 69.3935547 80.8037109 68.5439411 79.8434197 68.1191406 78.5950598 68.1191406 77.0585938 68.1191406 75.3984292 68.5634721 74.0996141 69.4521484 73.1621094 70.3408248 72.2246047 71.5110604 71.7558594 72.9628906 71.7558594 74.388679 71.7558594 75.5149698 72.2213495 76.3417969 73.1523438 77.1686239 74.083338 77.5820312 75.3723876 77.5820312 77.0195312 77.5820312 78.5755286 77.160486 79.8352816 76.3173828 80.7988281 75.4742796 81.7623746 74.3203198 82.2441406 72.8554688 82.2441406zM72.9238281 72.5761719C71.7454368 72.5761719 70.8063186 72.9733033 70.1064453 73.7675781 69.406572 74.5618529 69.0566406 75.6653575 69.0566406 77.078125 69.0566406 78.3867253 69.3984341 79.4381471 70.0820312 80.2324219 70.7656284 81.0266967 71.6998639 81.4238281 72.8847656 81.4238281 74.0891987 81.4238281 75.0169238 81.033207 75.6679688 80.2519531 76.3190137 79.4706992 76.6445312 78.3867257 76.6445312 77 76.6445312 75.5742116 76.3206413 74.4804726 75.6728516 73.71875 75.0250619 72.9570274 74.1087299 72.5761719 72.9238281 72.5761719zM80.2773438 77.0390625C80.2773438 78.4127673 80.5947234 79.4869753 81.2294922 80.2617188 81.864261 81.0364622 82.7350205 81.4238281 83.8417969 81.4238281 84.9615941 81.4238281 86.0553332 81.0104208 87.1230469 80.1835938L87.1230469 81.140625C86.0878854 81.8763058 84.932298 82.2441406 83.65625 82.2441406 82.3671811 82.2441406 81.3255248 81.7819057 80.53125 80.8574219 79.7369752 79.9329381 79.3398438 78.6276126 79.3398438 76.9414062 79.3398438 75.4830656 79.7548787 74.2542368 80.5849609 73.2548828 81.4150432 72.2555289 82.494134 71.7558594 83.8222656 71.7558594 85.0657614 71.7558594 86.0195279 72.1920529 86.6835938 73.0644531 87.3476596 73.9368533 87.6796875 75.1282477 87.6796875 76.6386719L87.6796875 77.0390625 80.2773438 77.0390625zM86.7421875 76.21875C86.7031248 75.0664005 86.4264349 74.1712271 85.9121094 73.5332031 85.3977839 72.8951791 84.6881556 72.5761719 83.7832031 72.5761719 82.8456984 72.5761719 82.069339 72.8902963 81.4541016 73.5185547 80.8388641 74.146813 80.4596361 75.0468691 80.3164062 76.21875L86.7421875 76.21875zM105.375 76.4042969C105.375 80.2975455 103.71486 82.2441406 100.394531 82.2441406 97.2369634 82.2441406 95.6582031 80.3691594 95.6582031 76.6191406L95.6582031 67.9960938 96.6152344 67.9960938 96.6152344 76.4824219C96.6152344 79.731136 97.9368357 81.3554688 100.580078 81.3554688 103.138685 81.3554688 104.417969 79.7767085 104.417969 76.6191406L104.417969 67.9960938 105.375 67.9960938 105.375 76.4042969zM111.107422 67.9960938L111.107422 68.875 109.740234 68.875 109.740234 81.1210938 111.107422 81.1210938 111.107422 82 107.40625 82 107.40625 81.1210938 108.773438 81.1210938 108.773438 68.875 107.40625 68.875 107.40625 67.9960938 111.107422 67.9960938zM118.792969 82L118.792969 67.9960938 119.759766 67.9960938 119.759766 81.1210938 125.375 81.1210938 125.375 82 118.792969 82zM128.197266 69.4804688C128.001952 69.4804688 127.829428 69.4088549 127.679688 69.265625 127.529947 69.1223951 127.455078 68.9401053 127.455078 68.71875 127.455078 68.5039052 127.531575 68.3297533 127.68457 68.1962891 127.837566 68.0628249 128.008463 67.9960938 128.197266 67.9960938 128.39909 67.9960938 128.576497 68.0611973 128.729492 68.1914062 128.882488 68.3216152 128.958984 68.4973947 128.958984 68.71875 128.958984 68.9270844 128.884115 69.106119 128.734375 69.2558594 128.584635 69.4055997 128.4056 69.4804688 128.197266 69.4804688zM127.757812 82L127.757812 72 128.65625 72 128.65625 82 127.757812 82zM139.857422 81.2578125C139.857422 83.1393323 139.44727 84.5162717 138.626953 85.3886719 137.806637 86.2610721 136.530608 86.6972656 134.798828 86.6972656 133.835282 86.6972656 132.842453 86.4433619 131.820312 85.9355469L131.820312 84.9980469C132.875005 85.5839873 133.874344 85.8769531 134.818359 85.8769531 137.57879 85.8769531 138.958984 84.4186344 138.958984 81.5019531L138.958984 80.203125 138.919922 80.203125C138.132158 81.5638089 136.930998 82.2441406 135.316406 82.2441406 134.085931 82.2441406 133.08171 81.7981815 132.303711 80.90625 131.525712 80.0143185 131.136719 78.7708413 131.136719 77.1757812 131.136719 75.5807212 131.556636 74.2786509 132.396484 73.2695312 133.236332 72.2604116 134.343092 71.7558594 135.716797 71.7558594 137.188158 71.7558594 138.255856 72.3645772 138.919922 73.5820312L138.958984 73.5820312 138.958984 72 139.857422 72 139.857422 81.2578125zM138.958984 75.8378906C138.958984 74.9524695 138.661136 74.1875032 138.06543 73.5429688 137.469724 72.8984343 136.693364 72.5761719 135.736328 72.5761719 134.636062 72.5761719 133.750654 72.9895792 133.080078 73.8164062 132.409502 74.6432333 132.074219 75.7369724 132.074219 77.0976562 132.074219 78.4648506 132.381833 79.5276655 132.99707 80.2861328 133.612308 81.0446001 134.424474 81.4238281 135.433594 81.4238281 136.507818 81.4238281 137.363929 81.0755243 138.001953 80.3789062 138.639977 79.6822882 138.958984 78.8294321 138.958984 77.8203125L138.958984 75.8378906zM149.857422 82L149.857422 76.0039062C149.857422 74.8190045 149.64258 73.9515001 149.212891 73.4013672 148.783201 72.8512342 148.112635 72.5761719 147.201172 72.5761719 146.341793 72.5761719 145.586592 72.911455 144.935547 73.5820312 144.284502 74.2526075 143.958984 75.2128844 143.958984 76.4628906L143.958984 82 143.060547 82 143.060547 67.1953125 143.958984 67.1953125 143.958984 73.796875 143.998047 73.796875C144.785811 72.4361911 145.931633 71.7558594 147.435547 71.7558594 148.516281 71.7558594 149.339841 72.1041632 149.90625 72.8007812 150.472659 73.4973993 150.755859 74.4967383 150.755859 75.7988281L150.755859 82 149.857422 82zM157.71875 81.8632812C157.249998 82.0846365 156.810549 82.1953125 156.400391 82.1953125 154.922519 82.1953125 154.183594 81.3099047 154.183594 79.5390625L154.183594 72.8203125 152.386719 72.8203125 152.386719 72 154.183594 72 154.183594 69.4023438C154.326824 69.3502602 154.476562 69.2981773 154.632812 69.2460938 154.789063 69.2005206 154.938801 69.151693 155.082031 69.0996094L155.082031 72 157.71875 72 157.71875 72.8203125 155.082031 72.8203125 155.082031 79.421875C155.082031 80.1119826 155.19108 80.6116521 155.40918 80.9208984 155.62728 81.2301448 155.996742 81.3847656 156.517578 81.3847656 156.888674 81.3847656 157.28906 81.2643241 157.71875 81.0234375L157.71875 81.8632812zM37.2695312 110.949219C37.5039074 111.125001 37.7626939 111.282877 38.0458984 111.422852 38.329103 111.562826 38.6188136 111.680013 38.9150391 111.774414 39.2112645 111.868816 39.5091131 111.940429 39.8085938 111.989258 40.1080744 112.038086 40.3945299 112.0625 40.6679688 112.0625 41.729172 112.0625 42.5234349 111.857424 43.0507812 111.447266 43.5781276 111.037107 43.8417969 110.447921 43.8417969 109.679688 43.8417969 109.308592 43.7799485 108.984702 43.65625 108.708008 43.5325515 108.431314 43.3404961 108.172527 43.0800781 107.931641 42.8196602 107.690754 42.4908874 107.451499 42.09375 107.213867 41.6966126 106.976236 41.2278673 106.707684 40.6875 106.408203 40.0885387 106.082681 39.5758485 105.775067 39.1494141 105.485352 38.7229796 105.195637 38.3746758 104.899416 38.1044922 104.59668 37.8343085 104.293944 37.6357428 103.966799 37.5087891 103.615234 37.3818353 103.26367 37.3183594 102.863283 37.3183594 102.414062 37.3183594 101.847653 37.4388009 101.339846 37.6796875 100.890625 37.9205741 100.441404 38.2460917 100.058921 38.65625 99.7431641 39.0664083 99.4274073 39.5465467 99.1848967 40.0966797 99.015625 40.6468126 98.8463533 41.2343719 98.7617188 41.859375 98.7617188 42.9596409 98.7617188 43.8808557 98.914712 44.6230469 99.2207031L44.6230469 100.65625C43.7962198 100.180987 42.8261774 99.9433594 41.7128906 99.9433594 41.2962219 99.9433594 40.9039732 99.9938146 40.5361328 100.094727 40.1682924 100.195639 39.84603 100.343749 39.5693359 100.539062 39.2926418 100.734376 39.0745451 100.976887 38.9150391 101.266602 38.7555331 101.556317 38.6757812 101.893227 38.6757812 102.277344 38.6757812 102.641929 38.7294917 102.956053 38.8369141 103.219727 38.9443365 103.4834 39.1168608 103.732421 39.3544922 103.966797 39.5921236 104.201173 39.9046205 104.433918 40.2919922 104.665039 40.6793639 104.89616 41.152992 105.161457 41.7128906 105.460938 42.2988311 105.773439 42.8098937 106.077798 43.2460938 106.374023 43.6822938 106.670249 44.0452459 106.979491 44.3349609 107.301758 44.6246759 107.624025 44.8411451 107.965819 44.984375 108.327148 45.1276049 108.688478 45.1992188 109.090493 45.1992188 109.533203 45.1992188 110.145185 45.0852876 110.683917 44.8574219 111.149414 44.6295562 111.614911 44.3105489 112.00065 43.9003906 112.306641 43.4902323 112.612632 43.001956 112.843749 42.4355469 113 41.8691378 113.156251 41.2473992 113.234375 40.5703125 113.234375 40.3489572 113.234375 40.085288 113.216472 39.7792969 113.180664 39.4733058 113.144857 39.1640641 113.092774 38.8515625 113.024414 38.5390609 112.956054 38.2412124 112.874675 37.9580078 112.780273 37.6748033 112.685872 37.4453134 112.583334 37.2695312 112.472656L37.2695312 110.949219zM48.4902344 108.224609C48.4967448 108.836592 48.5781242 109.386716 48.734375 109.875 48.8906258 110.363284 49.1152329 110.776691 49.4082031 111.115234 49.7011733 111.453778 50.0576151 111.712564 50.4775391 111.891602 50.897463 112.070639 51.3710911 112.160156 51.8984375 112.160156 53.0247452 112.160156 54.0891877 111.76628 55.0917969 110.978516L55.0917969 112.208984C54.1347608 112.892582 52.9759183 113.234375 51.6152344 113.234375 50.9446581 113.234375 50.3359402 113.117189 49.7890625 112.882812 49.2421848 112.648436 48.7766946 112.30827 48.3925781 111.862305 48.0084616 111.416339 47.7122406 110.867842 47.5039062 110.216797 47.2955719 109.565752 47.1914062 108.823572 47.1914062 107.990234 47.1914062 107.241533 47.3053374 106.54818 47.5332031 105.910156 47.7610688 105.272132 48.0768209 104.72038 48.4804688 104.254883 48.8841166 103.789386 49.3626274 103.424806 49.9160156 103.161133 50.4694038 102.89746 51.0748665 102.765625 51.7324219 102.765625 52.3769563 102.765625 52.9466121 102.877929 53.4414062 103.102539 53.9362004 103.32715 54.3512353 103.647784 54.6865234 104.064453 55.0218116 104.481122 55.2773429 104.988929 55.453125 105.587891 55.6289071 106.186852 55.7167969 106.857418 55.7167969 107.599609L55.7167969 108.224609 48.4902344 108.224609zM54.4277344 107.130859C54.408203 106.089187 54.1608097 105.281904 53.6855469 104.708984 53.2102841 104.136065 52.5494834 103.849609 51.703125 103.849609 51.2799458 103.849609 50.8876971 103.924478 50.5263672 104.074219 50.1650373 104.223959 49.8476576 104.440428 49.5742188 104.723633 49.3007799 105.006837 49.0745452 105.351886 48.8955078 105.758789 48.7164705 106.165692 48.5911462 106.623044 48.5195312 107.130859L54.4277344 107.130859zM66.4296875 112.228516C66.4296875 114.083994 66.0081422 115.459305 65.1650391 116.354492 64.3219359 117.249679 63.0214932 117.697266 61.2636719 117.697266 60.1699164 117.697266 59.1347705 117.453127 58.1582031 116.964844L58.1582031 115.695312C59.2454481 116.300784 60.280594 116.603516 61.2636719 116.603516 63.874362 116.603516 65.1796875 115.223321 65.1796875 112.462891L65.1796875 111.261719 65.140625 111.261719C64.372392 112.576829 63.2005287 113.234375 61.625 113.234375 61.0065073 113.234375 60.4417343 113.120444 59.9306641 112.892578 59.4195938 112.664712 58.9817727 112.33594 58.6171875 111.90625 58.2526023 111.47656 57.9694021 110.954105 57.7675781 110.338867 57.5657542 109.72363 57.4648438 109.02865 57.4648438 108.253906 57.4648438 107.43359 57.5722646 106.686527 57.7871094 106.012695 58.0019542 105.338864 58.3079407 104.76107 58.7050781 104.279297 59.1022155 103.797524 59.582354 103.424806 60.1455078 103.161133 60.7086617 102.89746 61.3417934 102.765625 62.0449219 102.765625 63.4576894 102.765625 64.4895801 103.338536 65.140625 104.484375L65.1796875 104.484375 65.1796875 103 66.4296875 103 66.4296875 112.228516zM65.1796875 106.925781C65.1796875 106.509113 65.1048185 106.115236 64.9550781 105.744141 64.8053378 105.373045 64.5970065 105.047527 64.3300781 104.767578 64.0631497 104.487629 63.7457701 104.264649 63.3779297 104.098633 63.0100893 103.932616 62.6048199 103.849609 62.1621094 103.849609 61.6412734 103.849609 61.1709005 103.95052 60.7509766 104.152344 60.3310526 104.354168 59.9729833 104.640623 59.6767578 105.011719 59.3805324 105.382814 59.1526701 105.833656 58.9931641 106.364258 58.8336581 106.894859 58.7539062 107.492184 58.7539062 108.15625 58.7539062 108.768232 58.8287753 109.321612 58.9785156 109.816406 59.128256 110.3112 59.3398424 110.731118 59.6132812 111.076172 59.8867201 111.421226 60.2171205 111.68815 60.6044922 111.876953 60.9918639 112.065756 61.4231747 112.160156 61.8984375 112.160156 62.3932316 112.160156 62.8424459 112.070639 63.2460938 111.891602 63.6497416 111.712564 63.9947902 111.465171 64.28125 111.149414 64.5677098 110.833657 64.7890617 110.462567 64.9453125 110.036133 65.1015633 109.609698 65.1796875 109.149091 65.1796875 108.654297L65.1796875 106.925781zM73.7441406 113.234375C73.0019494 113.234375 72.336266 113.110678 71.7470703 112.863281 71.1578747 112.615884 70.65495 112.265953 70.2382812 111.813477 69.8216125 111.361 69.5026053 110.819014 69.28125 110.1875 69.0598947 109.555986 68.9492188 108.856124 68.9492188 108.087891 68.9492188 107.254553 69.0664051 106.509118 69.3007812 105.851562 69.5351574 105.194007 69.8688129 104.635744 70.3017578 104.176758 70.7347027 103.717771 71.2571584 103.36784 71.8691406 103.126953 72.4811229 102.886067 73.1647098 102.765625 73.9199219 102.765625 74.6425817 102.765625 75.2936169 102.884439 75.8730469 103.12207 76.4524769 103.359702 76.9440084 103.703123 77.3476562 104.152344 77.7513041 104.601565 78.0605458 105.148434 78.2753906 105.792969 78.4902354 106.437503 78.5976562 107.169918 78.5976562 107.990234 78.5976562 108.771488 78.4853527 109.482744 78.2607422 110.124023 78.0361317 110.765303 77.7154969 111.317055 77.2988281 111.779297 76.8821594 112.241539 76.374352 112.599608 75.7753906 112.853516 75.1764293 113.107423 74.4993527 113.234375 73.7441406 113.234375zM73.8417969 103.849609C73.2949191 103.849609 72.8001324 103.944009 72.3574219 104.132812 71.9147113 104.321616 71.5354833 104.596678 71.2197266 104.958008 70.9039698 105.319338 70.6614592 105.762042 70.4921875 106.286133 70.3229158 106.810224 70.2382812 107.404294 70.2382812 108.068359 70.2382812 108.693363 70.3229158 109.256508 70.4921875 109.757812 70.6614592 110.259117 70.9007146 110.6888 71.2099609 111.046875 71.5192073 111.40495 71.8951801 111.680012 72.3378906 111.87207 72.7806012 112.064129 73.2753879 112.160156 73.8222656 112.160156 74.3821643 112.160156 74.876951 112.067384 75.3066406 111.881836 75.7363303 111.696288 76.10091 111.426109 76.4003906 111.071289 76.6998713 110.71647 76.926106 110.281904 77.0791016 109.767578 77.2320971 109.253253 77.3085938 108.667321 77.3085938 108.009766 77.3085938 106.662103 77.0091176 105.63184 76.4101562 104.918945 75.8111949 104.206051 74.9550837 103.849609 73.8417969 103.849609zM81.7128906 108.224609C81.7194011 108.836592 81.8007805 109.386716 81.9570312 109.875 82.113282 110.363284 82.3378892 110.776691 82.6308594 111.115234 82.9238296 111.453778 83.2802713 111.712564 83.7001953 111.891602 84.1201193 112.070639 84.5937474 112.160156 85.1210938 112.160156 86.2474015 112.160156 87.3118439 111.76628 88.3144531 110.978516L88.3144531 112.208984C87.3574171 112.892582 86.1985745 113.234375 84.8378906 113.234375 84.1673144 113.234375 83.5585965 113.117189 83.0117188 112.882812 82.464841 112.648436 81.9993509 112.30827 81.6152344 111.862305 81.2311179 111.416339 80.9348969 110.867842 80.7265625 110.216797 80.5182281 109.565752 80.4140625 108.823572 80.4140625 107.990234 80.4140625 107.241533 80.5279937 106.54818 80.7558594 105.910156 80.9837251 105.272132 81.2994771 104.72038 81.703125 104.254883 82.1067729 103.789386 82.5852837 103.424806 83.1386719 103.161133 83.6920601 102.89746 84.2975228 102.765625 84.9550781 102.765625 85.5996126 102.765625 86.1692684 102.877929 86.6640625 103.102539 87.1588566 103.32715 87.5738916 103.647784 87.9091797 104.064453 88.2444678 104.481122 88.4999991 104.988929 88.6757812 105.587891 88.8515634 106.186852 88.9394531 106.857418 88.9394531 107.599609L88.9394531 108.224609 81.7128906 108.224609zM87.6503906 107.130859C87.6308593 106.089187 87.3834659 105.281904 86.9082031 104.708984 86.4329403 104.136065 85.7721396 103.849609 84.9257812 103.849609 84.5026021 103.849609 84.1103534 103.924478 83.7490234 104.074219 83.3876935 104.223959 83.0703139 104.440428 82.796875 104.723633 82.5234361 105.006837 82.2972014 105.351886 82.1181641 105.758789 81.9391267 106.165692 81.8138024 106.623044 81.7421875 107.130859L87.6503906 107.130859zM106.966797 107.375C106.966797 111.28778 105.248064 113.244141 101.810547 113.244141 98.5357909 113.244141 96.8984375 111.359394 96.8984375 107.589844L96.8984375 98.9960938 98.1972656 98.9960938 98.1972656 107.472656C98.1972656 109.009122 98.5065073 110.158199 99.125 110.919922 99.7434927 111.681644 100.700514 112.0625 101.996094 112.0625 104.444023 112.0625 105.667969 110.57814 105.667969 107.609375L105.667969 98.9960938 106.966797 98.9960938 106.966797 107.375zM111.722656 113L110.423828 113 110.423828 98.9960938 111.722656 98.9960938 111.722656 113zM120.296875 110.949219C120.531251 111.125001 120.790038 111.282877 121.073242 111.422852 121.356447 111.562826 121.646157 111.680013 121.942383 111.774414 122.238608 111.868816 122.536457 111.940429 122.835938 111.989258 123.135418 112.038086 123.421874 112.0625 123.695312 112.0625 124.756516 112.0625 125.550779 111.857424 126.078125 111.447266 126.605471 111.037107 126.869141 110.447921 126.869141 109.679688 126.869141 109.308592 126.807292 108.984702 126.683594 108.708008 126.559895 108.431314 126.36784 108.172527 126.107422 107.931641 125.847004 107.690754 125.518231 107.451499 125.121094 107.213867 124.723956 106.976236 124.255211 106.707684 123.714844 106.408203 123.115882 106.082681 122.603192 105.775067 122.176758 105.485352 121.750323 105.195637 121.40202 104.899416 121.131836 104.59668 120.861652 104.293944 120.663087 103.966799 120.536133 103.615234 120.409179 103.26367 120.345703 102.863283 120.345703 102.414062 120.345703 101.847653 120.466145 101.339846 120.707031 100.890625 120.947918 100.441404 121.273435 100.058921 121.683594 99.7431641 122.093752 99.4274073 122.57389 99.1848967 123.124023 99.015625 123.674156 98.8463533 124.261716 98.7617188 124.886719 98.7617188 125.986985 98.7617188 126.908199 98.914712 127.650391 99.2207031L127.650391 100.65625C126.823564 100.180987 125.853521 99.9433594 124.740234 99.9433594 124.323566 99.9433594 123.931317 99.9938146 123.563477 100.094727 123.195636 100.195639 122.873374 100.343749 122.59668 100.539062 122.319986 100.734376 122.101889 100.976887 121.942383 101.266602 121.782877 101.556317 121.703125 101.893227 121.703125 102.277344 121.703125 102.641929 121.756835 102.956053 121.864258 103.219727 121.97168 103.4834 122.144205 103.732421 122.381836 103.966797 122.619467 104.201173 122.931964 104.433918 123.319336 104.665039 123.706708 104.89616 124.180336 105.161457 124.740234 105.460938 125.326175 105.773439 125.837237 106.077798 126.273438 106.374023 126.709638 106.670249 127.07259 106.979491 127.362305 107.301758 127.65202 107.624025 127.868489 107.965819 128.011719 108.327148 128.154949 108.688478 128.226562 109.090493 128.226562 109.533203 128.226562 110.145185 128.112631 110.683917 127.884766 111.149414 127.6569 111.614911 127.337893 112.00065 126.927734 112.306641 126.517576 112.612632 126.0293 112.843749 125.462891 113 124.896482 113.156251 124.274743 113.234375 123.597656 113.234375 123.376301 113.234375 123.112632 113.216472 122.806641 113.180664 122.50065 113.144857 122.191408 113.092774 121.878906 113.024414 121.566405 112.956054 121.268556 112.874675 120.985352 112.780273 120.702147 112.685872 120.472657 112.583334 120.296875 112.472656L120.296875 110.949219zM131.517578 108.224609C131.524089 108.836592 131.605468 109.386716 131.761719 109.875 131.91797 110.363284 132.142577 110.776691 132.435547 111.115234 132.728517 111.453778 133.084959 111.712564 133.504883 111.891602 133.924807 112.070639 134.398435 112.160156 134.925781 112.160156 136.052089 112.160156 137.116531 111.76628 138.119141 110.978516L138.119141 112.208984C137.162105 112.892582 136.003262 113.234375 134.642578 113.234375 133.972002 113.234375 133.363284 113.117189 132.816406 112.882812 132.269529 112.648436 131.804038 112.30827 131.419922 111.862305 131.035805 111.416339 130.739584 110.867842 130.53125 110.216797 130.322916 109.565752 130.21875 108.823572 130.21875 107.990234 130.21875 107.241533 130.332681 106.54818 130.560547 105.910156 130.788413 105.272132 131.104165 104.72038 131.507812 104.254883 131.91146 103.789386 132.389971 103.424806 132.943359 103.161133 133.496748 102.89746 134.10221 102.765625 134.759766 102.765625 135.4043 102.765625 135.973956 102.877929 136.46875 103.102539 136.963544 103.32715 137.378579 103.647784 137.713867 104.064453 138.049155 104.481122 138.304687 104.988929 138.480469 105.587891 138.656251 106.186852 138.744141 106.857418 138.744141 107.599609L138.744141 108.224609 131.517578 108.224609zM137.455078 107.130859C137.435547 106.089187 137.188153 105.281904 136.712891 104.708984 136.237628 104.136065 135.576827 103.849609 134.730469 103.849609 134.30729 103.849609 133.915041 103.924478 133.553711 104.074219 133.192381 104.223959 132.875001 104.440428 132.601562 104.723633 132.328124 105.006837 132.101889 105.351886 131.922852 105.758789 131.743814 106.165692 131.61849 106.623044 131.546875 107.130859L137.455078 107.130859zM153.763672 113L153.763672 107.121094C153.763672 106.522132 153.718099 106.015953 153.626953 105.602539 153.535807 105.189126 153.394207 104.852215 153.202148 104.591797 153.01009 104.331379 152.765952 104.142579 152.469727 104.025391 152.173501 103.908203 151.820315 103.849609 151.410156 103.849609 151.045571 103.849609 150.700522 103.935872 150.375 104.108398 150.049478 104.280925 149.76465 104.518553 149.520508 104.821289 149.276366 105.124025 149.084311 105.480467 148.944336 105.890625 148.804361 106.300783 148.734375 106.743487 148.734375 107.21875L148.734375 113 147.484375 113 147.484375 106.994141C147.484375 104.897776 146.680347 103.849609 145.072266 103.849609 144.70117 103.849609 144.356121 103.932616 144.037109 104.098633 143.718097 104.264649 143.43978 104.497394 143.202148 104.796875 142.964517 105.096356 142.778972 105.456053 142.645508 105.875977 142.512044 106.295901 142.445312 106.759763 142.445312 107.267578L142.445312 113 141.195312 113 141.195312 103 142.445312 103 142.445312 104.621094 142.484375 104.621094C143.187504 103.384108 144.212884 102.765625 145.560547 102.765625 145.912111 102.765625 146.244139 102.819335 146.556641 102.926758 146.869142 103.03418 147.149087 103.183918 147.396484 103.375977 147.643881 103.568035 147.857095 103.797525 148.036133 104.064453 148.21517 104.331382 148.35026 104.624347 148.441406 104.943359 148.792971 104.23372 149.250323 103.693361 149.813477 103.322266 150.37663 102.95117 151.013017 102.765625 151.722656 102.765625 153.916678 102.765625 155.013672 104.119778 155.013672 106.828125L155.013672 113 153.763672 113zM158.021484 113L158.021484 98.1953125 159.271484 98.1953125 159.271484 113 158.021484 113zM163.109375 100.470703C162.868488 100.470703 162.660157 100.386069 162.484375 100.216797 162.308593 100.047525 162.220703 99.8326836 162.220703 99.5722656 162.220703 99.3183581 162.308593 99.1083993 162.484375 98.9423828 162.660157 98.7763664 162.868488 98.6933594 163.109375 98.6933594 163.233074 98.6933594 163.35026 98.714518 163.460938 98.7568359 163.571615 98.7991539 163.667643 98.8593746 163.749023 98.9375 163.830404 99.0156254 163.895508 99.1083979 163.944336 99.2158203 163.993164 99.3232427 164.017578 99.4420566 164.017578 99.5722656 164.017578 99.6959642 163.994792 99.8131505 163.949219 99.9238281 163.903646 100.034506 163.838542 100.130533 163.753906 100.211914 163.66927 100.293295 163.573243 100.356771 163.46582 100.402344 163.358398 100.447917 163.239584 100.470703 163.109375 100.470703zM162.494141 113L162.494141 103 163.744141 103 163.744141 113 162.494141 113zM175.228516 112.228516C175.228516 114.083994 174.80697 115.459305 173.963867 116.354492 173.120764 117.249679 171.820321 117.697266 170.0625 117.697266 168.968745 117.697266 167.933599 117.453127 166.957031 116.964844L166.957031 115.695312C168.044276 116.300784 169.079422 116.603516 170.0625 116.603516 172.67319 116.603516 173.978516 115.223321 173.978516 112.462891L173.978516 111.261719 173.939453 111.261719C173.17122 112.576829 171.999357 113.234375 170.423828 113.234375 169.805335 113.234375 169.240562 113.120444 168.729492 112.892578 168.218422 112.664712 167.780601 112.33594 167.416016 111.90625 167.05143 111.47656 166.76823 110.954105 166.566406 110.338867 166.364582 109.72363 166.263672 109.02865 166.263672 108.253906 166.263672 107.43359 166.371093 106.686527 166.585938 106.012695 166.800782 105.338864 167.106769 104.76107 167.503906 104.279297 167.901044 103.797524 168.381182 103.424806 168.944336 103.161133 169.50749 102.89746 170.140621 102.765625 170.84375 102.765625 172.256517 102.765625 173.288408 103.338536 173.939453 104.484375L173.978516 104.484375 173.978516 103 175.228516 103 175.228516 112.228516zM173.978516 106.925781C173.978516 106.509113 173.903647 106.115236 173.753906 105.744141 173.604166 105.373045 173.395835 105.047527 173.128906 104.767578 172.861978 104.487629 172.544598 104.264649 172.176758 104.098633 171.808917 103.932616 171.403648 103.849609 170.960938 103.849609 170.440102 103.849609 169.969729 103.95052 169.549805 104.152344 169.129881 104.354168 168.771811 104.640623 168.475586 105.011719 168.17936 105.382814 167.951498 105.833656 167.791992 106.364258 167.632486 106.894859 167.552734 107.492184 167.552734 108.15625 167.552734 108.768232 167.627603 109.321612 167.777344 109.816406 167.927084 110.3112 168.138671 110.731118 168.412109 111.076172 168.685548 111.421226 169.015949 111.68815 169.40332 111.876953 169.790692 112.065756 170.222003 112.160156 170.697266 112.160156 171.19206 112.160156 171.641274 112.070639 172.044922 111.891602 172.44857 111.712564 172.793618 111.465171 173.080078 111.149414 173.366538 110.833657 173.58789 110.462567 173.744141 110.036133 173.900391 109.609698 173.978516 109.149091 173.978516 108.654297L173.978516 106.925781zM185.199219 113L185.199219 107.121094C185.199219 106.001296 184.997398 105.176109 184.59375 104.645508 184.190102 104.114906 183.561853 103.849609 182.708984 103.849609 182.305337 103.849609 181.921226 103.930989 181.556641 104.09375 181.192055 104.256511 180.873048 104.490884 180.599609 104.796875 180.326171 105.102866 180.108074 105.475584 179.945312 105.915039 179.782551 106.354494 179.701172 106.850909 179.701172 107.404297L179.701172 113 178.451172 113 178.451172 98.1953125 179.701172 98.1953125 179.701172 104.728516 179.740234 104.728516C180.521488 103.419915 181.641269 102.765625 183.099609 102.765625 184.212896 102.765625 185.049476 103.107418 185.609375 103.791016 186.169274 104.474613 186.449219 105.483717 186.449219 106.818359L186.449219 113 185.199219 113zM193.753906 112.882812C193.324217 113.097657 192.855471 113.205078 192.347656 113.205078 190.733065 113.205078 189.925781 112.274098 189.925781 110.412109L189.925781 104.09375 188.167969 104.09375 188.167969 103 189.925781 103 189.925781 100.480469 191.175781 100.070312 191.175781 103 193.753906 103 193.753906 104.09375 191.175781 104.09375 191.175781 110.216797C191.175781 110.893884 191.286457 111.38216 191.507812 111.681641 191.729168 111.981121 192.103513 112.130859 192.630859 112.130859 193.021486 112.130859 193.395832 112.013673 193.753906 111.779297L193.753906 112.882812zM37.1816406 143.433594L37.1816406 141.5C37.4029959 141.695313 37.6682927 141.871093 37.9775391 142.027344 38.2867854 142.183595 38.612303 142.315429 38.9541016 142.422852 39.2959001 142.530274 39.6393212 142.613281 39.984375 142.671875 40.3294288 142.730469 40.648436 142.759766 40.9414062 142.759766 41.9505259 142.759766 42.7040991 142.572593 43.2021484 142.198242 43.7001978 141.823891 43.9492188 141.28516 43.9492188 140.582031 43.9492188 140.204425 43.8662118 139.875652 43.7001953 139.595703 43.5341789 139.315754 43.304689 139.060223 43.0117188 138.829102 42.7187485 138.597981 42.3720723 138.376629 41.9716797 138.165039 41.5712871 137.953449 41.1399763 137.73047 40.6777344 137.496094 40.1894507 137.248697 39.7337261 136.998048 39.3105469 136.744141 38.8873677 136.490233 38.5195328 136.210288 38.2070312 135.904297 37.8945297 135.598306 37.6487639 135.25163 37.4697266 134.864258 37.2906892 134.476886 37.2011719 134.022789 37.2011719 133.501953 37.2011719 132.863929 37.3411444 132.308922 37.6210938 131.836914 37.9010431 131.364906 38.2688779 130.975913 38.7246094 130.669922 39.1803408 130.363931 39.6995414 130.136068 40.2822266 129.986328 40.8649118 129.836588 41.4589813 129.761719 42.0644531 129.761719 43.4446684 129.761719 44.4505177 129.927733 45.0820312 130.259766L45.0820312 132.105469C44.2552042 131.532549 43.1940169 131.246094 41.8984375 131.246094 41.5403628 131.246094 41.1822935 131.283528 40.8242188 131.358398 40.466144 131.433269 40.1471368 131.555338 39.8671875 131.724609 39.5872382 131.893881 39.3593759 132.111978 39.1835938 132.378906 39.0078116 132.645835 38.9199219 132.971352 38.9199219 133.355469 38.9199219 133.713543 38.986653 134.022785 39.1201172 134.283203 39.2535814 134.543621 39.4505195 134.781249 39.7109375 134.996094 39.9713555 135.210939 40.2887351 135.41927 40.6630859 135.621094 41.0374368 135.822918 41.4687476 136.04427 41.9570312 136.285156 42.4583358 136.532553 42.9335915 136.792967 43.3828125 137.066406 43.8320335 137.339845 44.2259098 137.642576 44.5644531 137.974609 44.9029965 138.306642 45.1715485 138.674477 45.3701172 139.078125 45.5686859 139.481773 45.6679688 139.944008 45.6679688 140.464844 45.6679688 141.154951 45.532879 141.739255 45.2626953 142.217773 44.9925117 142.696291 44.627932 143.085285 44.1689453 143.384766 43.7099586 143.684246 43.1809926 143.900715 42.5820312 144.03418 41.9830699 144.167644 41.3515658 144.234375 40.6875 144.234375 40.4661447 144.234375 40.19271 144.216472 39.8671875 144.180664 39.541665 144.144857 39.2096371 144.092774 38.8710938 144.024414 38.5325504 143.956054 38.2119156 143.87142 37.9091797 143.770508 37.6064438 143.669596 37.3639332 143.557292 37.1816406 143.433594zM56.2832031 139.400391L49.2226562 139.400391C49.248698 140.513677 49.5481742 141.373044 50.1210938 141.978516 50.6940133 142.583987 51.4817658 142.886719 52.484375 142.886719 53.6106827 142.886719 54.6458286 142.515629 55.5898438 141.773438L55.5898438 143.277344C54.7109331 143.915368 53.5488354 144.234375 52.1035156 144.234375 50.6907481 144.234375 49.5807332 143.780278 48.7734375 142.87207 47.9661418 141.963863 47.5625 140.686206 47.5625 139.039062 47.5625 137.483065 48.0035763 136.215174 48.8857422 135.235352 49.7679081 134.255529 50.8632747 133.765625 52.171875 133.765625 53.4804753 133.765625 54.492835 134.188798 55.2089844 135.035156 55.9251338 135.881515 56.2832031 137.056633 56.2832031 138.560547L56.2832031 139.400391zM54.6425781 138.042969C54.6360677 137.118485 54.4130881 136.399091 53.9736328 135.884766 53.5341775 135.37044 52.923832 135.113281 52.1425781 135.113281 51.387366 135.113281 50.7460964 135.383461 50.21875 135.923828 49.6914036 136.464195 49.365886 137.170569 49.2421875 138.042969L54.6425781 138.042969zM67.2402344 143.199219C67.2402344 146.871112 65.4824395 148.707031 61.9667969 148.707031 60.7298115 148.707031 59.6490932 148.472659 58.7246094 148.003906L58.7246094 146.402344C59.8509171 147.027347 60.9251251 147.339844 61.9472656 147.339844 64.4082154 147.339844 65.6386719 146.031263 65.6386719 143.414062L65.6386719 142.320312 65.5996094 142.320312C64.8378868 143.596361 63.6920649 144.234375 62.1621094 144.234375 60.9186136 144.234375 59.917647 143.790044 59.1591797 142.901367 58.4007124 142.012691 58.0214844 140.819669 58.0214844 139.322266 58.0214844 137.623038 58.4300089 136.27214 59.2470703 135.269531 60.0641317 134.266922 61.1822846 133.765625 62.6015625 133.765625 63.9492255 133.765625 64.9485645 134.305984 65.5996094 135.386719L65.6386719 135.386719 65.6386719 134 67.2402344 134 67.2402344 143.199219zM65.6386719 139.478516L65.6386719 138.003906C65.6386719 137.209631 65.3701199 136.5293 64.8330078 135.962891 64.2958958 135.396482 63.6269571 135.113281 62.8261719 135.113281 61.8365836 135.113281 61.0618518 135.472978 60.5019531 136.192383 59.9420545 136.911787 59.6621094 137.919264 59.6621094 139.214844 59.6621094 140.328131 59.9306614 141.218421 60.4677734 141.885742 61.0048855 142.553063 61.7161414 142.886719 62.6015625 142.886719 63.5000045 142.886719 64.2307915 142.567712 64.7939453 141.929688 65.3570992 141.291663 65.6386719 140.474614 65.6386719 139.478516zM74.6621094 144.234375C73.1842374 144.234375 72.0042362 143.767257 71.1220703 142.833008 70.2399044 141.898758 69.7988281 140.660164 69.7988281 139.117188 69.7988281 137.437492 70.2578079 136.125656 71.1757812 135.181641 72.0937546 134.237625 73.3339766 133.765625 74.8964844 133.765625 76.3873772 133.765625 77.5511026 134.224605 78.3876953 135.142578 79.224288 136.060551 79.6425781 137.333325 79.6425781 138.960938 79.6425781 140.555998 79.1917363 141.833654 78.2900391 142.793945 77.3883418 143.754237 76.179044 144.234375 74.6621094 144.234375zM74.7792969 135.113281C73.7506459 135.113281 72.936852 135.463213 72.3378906 136.163086 71.7389293 136.862959 71.4394531 137.828119 71.4394531 139.058594 71.4394531 140.243496 71.7421845 141.177731 72.3476562 141.861328 72.953128 142.544925 73.7636668 142.886719 74.7792969 142.886719 75.8144583 142.886719 76.6103488 142.551436 77.1669922 141.880859 77.7236356 141.210283 78.0019531 140.256517 78.0019531 139.019531 78.0019531 137.769525 77.7236356 136.805993 77.1669922 136.128906 76.6103488 135.45182 75.8144583 135.113281 74.7792969 135.113281zM90.2382812 139.400391L83.1777344 139.400391C83.2037762 140.513677 83.5032523 141.373044 84.0761719 141.978516 84.6490914 142.583987 85.4368439 142.886719 86.4394531 142.886719 87.5657608 142.886719 88.6009067 142.515629 89.5449219 141.773438L89.5449219 143.277344C88.6660112 143.915368 87.5039135 144.234375 86.0585938 144.234375 84.6458263 144.234375 83.5358113 143.780278 82.7285156 142.87207 81.9212199 141.963863 81.5175781 140.686206 81.5175781 139.039062 81.5175781 137.483065 81.9586544 136.215174 82.8408203 135.235352 83.7229862 134.255529 84.8183528 133.765625 86.1269531 133.765625 87.4355534 133.765625 88.4479131 134.188798 89.1640625 135.035156 89.8802119 135.881515 90.2382812 137.056633 90.2382812 138.560547L90.2382812 139.400391zM88.5976562 138.042969C88.5911458 137.118485 88.3681663 136.399091 87.9287109 135.884766 87.4892556 135.37044 86.8789102 135.113281 86.0976562 135.113281 85.3424441 135.113281 84.7011745 135.383461 84.1738281 135.923828 83.6464817 136.464195 83.3209642 137.170569 83.1972656 138.042969L88.5976562 138.042969zM108.597656 138.335938C108.597656 142.268249 106.823585 144.234375 103.275391 144.234375 99.8769361 144.234375 98.1777344 142.343118 98.1777344 138.560547L98.1777344 129.996094 99.8183594 129.996094 99.8183594 138.453125C99.8183594 141.324233 101.029285 142.759766 103.451172 142.759766 105.788423 142.759766 106.957031 141.373061 106.957031 138.599609L106.957031 129.996094 108.597656 129.996094 108.597656 138.335938zM115.101562 129.996094L115.101562 131.402344 113.734375 131.402344 113.734375 142.59375 115.101562 142.59375 115.101562 144 110.726562 144 110.726562 142.59375 112.09375 142.59375 112.09375 131.402344 110.726562 131.402344 110.726562 129.996094 115.101562 129.996094zM134.183594 144L132.171875 144 124.964844 132.837891C124.782551 132.557941 124.632813 132.264975 124.515625 131.958984L124.457031 131.958984C124.509115 132.258465 124.535156 132.899735 124.535156 133.882812L124.535156 144 122.894531 144 122.894531 129.996094 125.023438 129.996094 132.035156 140.982422C132.328126 141.438153 132.516927 141.75065 132.601562 141.919922L132.640625 141.919922C132.575521 141.516274 132.542969 140.829432 132.542969 139.859375L132.542969 129.996094 134.183594 129.996094 134.183594 144zM141.820312 144.234375C140.342441 144.234375 139.162439 143.767257 138.280273 142.833008 137.398108 141.898758 136.957031 140.660164 136.957031 139.117188 136.957031 137.437492 137.416011 136.125656 138.333984 135.181641 139.251958 134.237625 140.49218 133.765625 142.054688 133.765625 143.54558 133.765625 144.709306 134.224605 145.545898 135.142578 146.382491 136.060551 146.800781 137.333325 146.800781 138.960938 146.800781 140.555998 146.349939 141.833654 145.448242 142.793945 144.546545 143.754237 143.337247 144.234375 141.820312 144.234375zM141.9375 135.113281C140.908849 135.113281 140.095055 135.463213 139.496094 136.163086 138.897132 136.862959 138.597656 137.828119 138.597656 139.058594 138.597656 140.243496 138.900388 141.177731 139.505859 141.861328 140.111331 142.544925 140.92187 142.886719 141.9375 142.886719 142.972661 142.886719 143.768552 142.551436 144.325195 141.880859 144.881839 141.210283 145.160156 140.256517 145.160156 139.019531 145.160156 137.769525 144.881839 136.805993 144.325195 136.128906 143.768552 135.45182 142.972661 135.113281 141.9375 135.113281zM154.574219 135.621094C154.294269 135.406249 153.890628 135.298828 153.363281 135.298828 152.679684 135.298828 152.108401 135.621091 151.649414 136.265625 151.190427 136.910159 150.960938 137.789057 150.960938 138.902344L150.960938 144 149.359375 144 149.359375 134 150.960938 134 150.960938 136.060547 151 136.060547C151.227866 135.357418 151.57617 134.808921 152.044922 134.415039 152.513674 134.021157 153.037758 133.824219 153.617188 133.824219 154.033856 133.824219 154.352863 133.869791 154.574219 133.960938L154.574219 135.621094zM170.472656 144L168.871094 144 168.871094 138.257812C168.871094 137.151036 168.700197 136.350263 168.358398 135.855469 168.0166 135.360675 167.442061 135.113281 166.634766 135.113281 165.951168 135.113281 165.37012 135.425778 164.891602 136.050781 164.413084 136.675784 164.173828 137.424475 164.173828 138.296875L164.173828 144 162.572266 144 162.572266 138.0625C162.572266 136.096344 161.81381 135.113281 160.296875 135.113281 159.593746 135.113281 159.014325 135.407875 158.558594 135.99707 158.102862 136.586266 157.875 137.35286 157.875 138.296875L157.875 144 156.273438 144 156.273438 134 157.875 134 157.875 135.582031 157.914062 135.582031C158.623701 134.371088 159.658847 133.765625 161.019531 133.765625 161.703128 133.765625 162.298826 133.956053 162.806641 134.336914 163.314456 134.717775 163.662759 135.217445 163.851562 135.835938 164.593754 134.455722 165.700513 133.765625 167.171875 133.765625 169.372407 133.765625 170.472656 135.123033 170.472656 137.837891L170.472656 144zM180.658203 144L179.056641 144 179.056641 142.4375 179.017578 142.4375C178.32096 143.635423 177.29558 144.234375 175.941406 144.234375 174.945308 144.234375 174.165693 143.970706 173.602539 143.443359 173.039385 142.916013 172.757812 142.21615 172.757812 141.34375 172.757812 139.475251 173.858062 138.388022 176.058594 138.082031L179.056641 137.662109C179.056641 135.962882 178.369799 135.113281 176.996094 135.113281 175.791661 135.113281 174.704432 135.523433 173.734375 136.34375L173.734375 134.703125C174.717453 134.078122 175.850254 133.765625 177.132812 133.765625 179.483085 133.765625 180.658203 135.009102 180.658203 137.496094L180.658203 144zM179.056641 138.941406L176.644531 139.273438C175.90234 139.377605 175.34245 139.561522 174.964844 139.825195 174.587238 140.088869 174.398438 140.555986 174.398438 141.226562 174.398438 141.714846 174.572589 142.113605 174.920898 142.422852 175.269207 142.732098 175.73307 142.886719 176.3125 142.886719 177.106775 142.886719 177.762693 142.608401 178.280273 142.051758 178.797854 141.495114 179.056641 140.790369 179.056641 139.9375L179.056641 138.941406zM185.277344 144L183.675781 144 183.675781 129.195312 185.277344 129.195312 185.277344 144zM36.9570312 174.462891L36.9570312 171.337891C37.5234403 171.813153 38.1386686 172.169595 38.8027344 172.407227 39.4668002 172.644858 40.1373664 172.763672 40.8144531 172.763672 41.2115905 172.763672 41.5582667 172.727865 41.8544922 172.65625 42.1507176 172.584635 42.398111 172.485352 42.5966797 172.358398 42.7952484 172.231445 42.9433589 172.081707 43.0410156 171.90918 43.1386724 171.736653 43.1875 171.54948 43.1875 171.347656 43.1875 171.074217 43.1093758 170.830079 42.953125 170.615234 42.7968742 170.40039 42.5836602 170.201824 42.3134766 170.019531 42.0432929 169.837239 41.7226581 169.661459 41.3515625 169.492188 40.9804669 169.322916 40.5800803 169.150392 40.1503906 168.974609 39.0566352 168.518878 38.2412136 167.962243 37.7041016 167.304688 37.1669895 166.647132 36.8984375 165.852869 36.8984375 164.921875 36.8984375 164.192705 37.0449204 163.566083 37.3378906 163.041992 37.6308608 162.517901 38.0296199 162.08659 38.5341797 161.748047 39.0387395 161.409504 39.6230436 161.160483 40.2871094 161.000977 40.9511752 160.841471 41.6542932 160.761719 42.3964844 160.761719 43.1256547 160.761719 43.7718071 160.805664 44.3349609 160.893555 44.8981148 160.981446 45.4173153 161.116536 45.8925781 161.298828L45.8925781 164.21875C45.658202 164.055989 45.4026707 163.912761 45.1259766 163.789062 44.8492825 163.665364 44.5644546 163.562826 44.2714844 163.481445 43.9785142 163.400065 43.6871759 163.339844 43.3974609 163.300781 43.1077459 163.261719 42.8326836 163.242188 42.5722656 163.242188 42.2141909 163.242188 41.8886733 163.276367 41.5957031 163.344727 41.3027329 163.413086 41.0553396 163.509114 40.8535156 163.632812 40.6516917 163.756511 40.4954433 163.904622 40.3847656 164.077148 40.274088 164.249675 40.21875 164.443358 40.21875 164.658203 40.21875 164.892579 40.2805983 165.102538 40.4042969 165.288086 40.5279954 165.473634 40.7037749 165.649413 40.9316406 165.81543 41.1595063 165.981446 41.4361963 166.144205 41.7617188 166.303711 42.0872412 166.463217 42.4550761 166.627603 42.8652344 166.796875 43.425133 167.031251 43.9280577 167.280272 44.3740234 167.543945 44.8199892 167.807619 45.2024724 168.105467 45.5214844 168.4375 45.8404964 168.769533 46.0846346 169.148761 46.2539062 169.575195 46.4231779 170.00163 46.5078125 170.498044 46.5078125 171.064453 46.5078125 171.845707 46.359702 172.501625 46.0634766 173.032227 45.7672511 173.562828 45.3652369 173.992511 44.8574219 174.321289 44.3496068 174.650067 43.7587924 174.886067 43.0849609 175.029297 42.4111294 175.172527 41.6998735 175.244141 40.9511719 175.244141 40.1829389 175.244141 39.4521519 175.179037 38.7587891 175.048828 38.0654262 174.918619 37.4648463 174.723309 36.9570312 174.462891zM57.4941406 170.878906L50.9707031 170.878906C51.0748703 172.330736 51.9895747 173.056641 53.7148438 173.056641 54.8151097 173.056641 55.7818969 172.796227 56.6152344 172.275391L56.6152344 174.501953C55.6907506 174.996747 54.4895907 175.244141 53.0117188 175.244141 51.3971273 175.244141 50.1438847 174.796554 49.2519531 173.901367 48.3600216 173.00618 47.9140625 171.757821 47.9140625 170.15625 47.9140625 168.496085 48.3958285 167.180994 49.359375 166.210938 50.3229215 165.240881 51.5078055 164.755859 52.9140625 164.755859 54.3724031 164.755859 55.5003215 165.188798 56.2978516 166.054688 57.0953816 166.920577 57.4941406 168.095696 57.4941406 169.580078L57.4941406 170.878906zM54.6328125 168.984375C54.6328125 167.552076 54.0533912 166.835938 52.8945312 166.835938 52.3997371 166.835938 51.9716815 167.041014 51.6103516 167.451172 51.2490216 167.86133 51.0292973 168.372393 50.9511719 168.984375L54.6328125 168.984375zM69.1347656 173.857422C69.1347656 175.7129 68.5976616 177.15006 67.5234375 178.168945 66.4492134 179.187831 64.8932394 179.697266 62.8554688 179.697266 61.5078058 179.697266 60.4401081 179.50521 59.6523438 179.121094L59.6523438 176.523438C60.6809947 177.122399 61.7193958 177.421875 62.7675781 177.421875 63.80925 177.421875 64.6165336 177.146813 65.1894531 176.59668 65.7623727 176.046547 66.0488281 175.299484 66.0488281 174.355469L66.0488281 173.564453 66.0097656 173.564453C65.3066371 174.68425 64.268236 175.244141 62.8945312 175.244141 61.6184832 175.244141 60.6061235 174.794926 59.8574219 173.896484 59.1087202 172.998042 58.734375 171.793627 58.734375 170.283203 58.734375 168.590486 59.1510375 167.246099 59.984375 166.25 60.8177125 165.253901 61.9147067 164.755859 63.2753906 164.755859 64.4928446 164.755859 65.4042938 165.224605 66.0097656 166.162109L66.0488281 166.162109 66.0488281 165 69.1347656 165 69.1347656 173.857422zM66.0878906 170.195312L66.0878906 169.404297C66.0878906 168.772783 65.900718 168.234052 65.5263672 167.788086 65.1520164 167.34212 64.6653676 167.119141 64.0664062 167.119141 63.3828091 167.119141 62.8457051 167.386065 62.4550781 167.919922 62.0644512 168.453779 61.8691406 169.205724 61.8691406 170.175781 61.8691406 171.009119 62.0546856 171.668292 62.4257812 172.15332 62.7968769 172.638349 63.3046843 172.880859 63.9492188 172.880859 64.5872428 172.880859 65.1031881 172.635094 65.4970703 172.143555 65.8909525 171.652016 66.0878906 171.002608 66.0878906 170.195312zM76.4785156 175.244141C74.8118406 175.244141 73.5016324 174.777023 72.5478516 173.842773 71.5940708 172.908524 71.1171875 171.640633 71.1171875 170.039062 71.1171875 168.385408 71.6119742 167.091476 72.6015625 166.157227 73.5911508 165.222977 74.929028 164.755859 76.6152344 164.755859 78.2753989 164.755859 79.5774692 165.222977 80.5214844 166.157227 81.4654995 167.091476 81.9375 168.326815 81.9375 169.863281 81.9375 171.523446 81.4508512 172.835282 80.4775391 173.798828 79.5042269 174.762375 78.1712324 175.244141 76.4785156 175.244141zM76.5566406 167.119141C75.8274703 167.119141 75.2610697 167.369789 74.8574219 167.871094 74.453774 168.372398 74.2519531 169.082027 74.2519531 170 74.2519531 171.920583 75.026685 172.880859 76.5761719 172.880859 78.0540438 172.880859 78.7929688 171.894541 78.7929688 169.921875 78.7929688 168.053376 78.0475335 167.119141 76.5566406 167.119141zM92.9238281 170.878906L86.4003906 170.878906C86.5045578 172.330736 87.4192622 173.056641 89.1445312 173.056641 90.2447972 173.056641 91.2115844 172.796227 92.0449219 172.275391L92.0449219 174.501953C91.1204381 174.996747 89.9192782 175.244141 88.4414062 175.244141 86.8268148 175.244141 85.5735722 174.796554 84.6816406 173.901367 83.7897091 173.00618 83.34375 171.757821 83.34375 170.15625 83.34375 168.496085 83.825516 167.180994 84.7890625 166.210938 85.752609 165.240881 86.937493 164.755859 88.34375 164.755859 89.8020906 164.755859 90.930009 165.188798 91.7275391 166.054688 92.5250691 166.920577 92.9238281 168.095696 92.9238281 169.580078L92.9238281 170.878906zM90.0625 168.984375C90.0625 167.552076 89.4830787 166.835938 88.3242188 166.835938 87.8294246 166.835938 87.401369 167.041014 87.0400391 167.451172 86.6787091 167.86133 86.4589848 168.372393 86.3808594 168.984375L90.0625 168.984375zM111.996094 168.935547C111.996094 173.141297 110.036478 175.244141 106.117188 175.244141 102.315085 175.244141 100.414062 173.190125 100.414062 169.082031L100.414062 160.996094 103.578125 160.996094 103.578125 169.121094C103.578125 171.38673 104.463533 172.519531 106.234375 172.519531 107.972665 172.519531 108.841797 171.425792 108.841797 169.238281L108.841797 160.996094 111.996094 160.996094 111.996094 168.935547zM119.369141 160.996094L119.369141 163.4375 118.197266 163.4375 118.197266 172.558594 119.369141 172.558594 119.369141 175 113.871094 175 113.871094 172.558594 115.042969 172.558594 115.042969 163.4375 113.871094 163.4375 113.871094 160.996094 119.369141 160.996094zM126.898438 175L126.898438 160.996094 131.996094 160.996094C133.558602 160.996094 134.759761 161.282549 135.599609 161.855469 136.439457 162.428388 136.859375 163.235672 136.859375 164.277344 136.859375 165.032556 136.603844 165.693357 136.092773 166.259766 135.581703 166.826175 134.92904 167.220051 134.134766 167.441406L134.134766 167.480469C135.130864 167.604167 135.926755 167.972002 136.522461 168.583984 137.118167 169.195967 137.416016 169.941402 137.416016 170.820312 137.416016 172.102871 136.957036 173.120113 136.039062 173.87207 135.121089 174.624027 133.867846 175 132.279297 175L126.898438 175zM130.052734 163.320312L130.052734 166.640625 131.439453 166.640625C132.090498 166.640625 132.603188 166.482749 132.977539 166.166992 133.35189 165.851235 133.539062 165.416669 133.539062 164.863281 133.539062 163.83463 132.770841 163.320312 131.234375 163.320312L130.052734 163.320312zM130.052734 168.984375L130.052734 172.675781 131.761719 172.675781C132.490889 172.675781 133.062172 172.506512 133.475586 172.167969 133.888999 171.829425 134.095703 171.36719 134.095703 170.78125 134.095703 170.221351 133.892255 169.781903 133.485352 169.462891 133.078448 169.143879 132.51042 168.984375 131.78125 168.984375L130.052734 168.984375zM144.183594 175.244141C142.516919 175.244141 141.20671 174.777023 140.25293 173.842773 139.299149 172.908524 138.822266 171.640633 138.822266 170.039062 138.822266 168.385408 139.317052 167.091476 140.306641 166.157227 141.296229 165.222977 142.634106 164.755859 144.320312 164.755859 145.980477 164.755859 147.282547 165.222977 148.226562 166.157227 149.170578 167.091476 149.642578 168.326815 149.642578 169.863281 149.642578 171.523446 149.155929 172.835282 148.182617 173.798828 147.209305 174.762375 145.876311 175.244141 144.183594 175.244141zM144.261719 167.119141C143.532548 167.119141 142.966148 167.369789 142.5625 167.871094 142.158852 168.372398 141.957031 169.082027 141.957031 170 141.957031 171.920583 142.731763 172.880859 144.28125 172.880859 145.759122 172.880859 146.498047 171.894541 146.498047 169.921875 146.498047 168.053376 145.752612 167.119141 144.261719 167.119141zM154.730469 175L151.644531 175 151.644531 160.195312 154.730469 160.195312 154.730469 175zM167.113281 175L164.027344 175 164.027344 173.623047 163.988281 173.623047C163.285153 174.703781 162.253262 175.244141 160.892578 175.244141 159.642572 175.244141 158.636723 174.803064 157.875 173.920898 157.113277 173.038733 156.732422 171.806649 156.732422 170.224609 156.732422 168.570955 157.15234 167.246099 157.992188 166.25 158.832035 165.253901 159.932285 164.755859 161.292969 164.755859 162.582038 164.755859 163.480466 165.218094 163.988281 166.142578L164.027344 166.142578 164.027344 160.195312 167.113281 160.195312 167.113281 175zM164.085938 170.136719L164.085938 169.384766C164.085938 168.733721 163.897137 168.193362 163.519531 167.763672 163.141925 167.333982 162.650394 167.119141 162.044922 167.119141 161.361325 167.119141 160.827476 167.387693 160.443359 167.924805 160.059243 168.461917 159.867188 169.199214 159.867188 170.136719 159.867188 171.015629 160.052733 171.692706 160.423828 172.167969 160.794924 172.643232 161.309242 172.880859 161.966797 172.880859 162.5918 172.880859 163.101235 172.630211 163.495117 172.128906 163.888999 171.627602 164.085938 170.963546 164.085938 170.136719z"/>
  </g>
</svg>
