<svg xmlns="http://www.w3.org/2000/svg" width="360" height="240" viewBox="0 0 360 240">
  <g fill="none" fill-rule="evenodd">
    <path fill="#4A4A4F" d="M38.9589844 74.5742188L38.9589844 81 37.7871094 81 37.7871094 66.7910156 42.5234375 66.7910156C44.0468826 66.7910156 45.2154907 67.1246711 46.0292969 67.7919922 46.843103 68.4593132 47.25 69.4342384 47.25 70.7167969 47.25 71.472009 47.0335308 72.147458 46.6005859 72.7431641 46.1676411 73.3388702 45.5540404 73.7734361 44.7597656 74.046875 45.6386763 74.2682303 46.271808 74.6637341 46.6591797 75.2333984 47.0465514 75.8030627 47.2402344 76.5175738 47.2402344 77.3769531L47.2402344 78.7148438C47.2402344 79.1575543 47.2923172 79.5546857 47.3964844 79.90625 47.5006516 80.2578143 47.6731759 80.5442697 47.9140625 80.765625L47.9140625 81 46.7226562 81C46.4817696 80.7656238 46.3125005 80.4368511 46.2148438 80.0136719 46.117187 79.5904927 46.0683594 79.1510439 46.0683594 78.6953125L46.0683594 77.3964844C46.0683594 76.5240842 45.7867867 75.8356145 45.2236328 75.3310547 44.660479 74.8264949 43.874354 74.5742188 42.8652344 74.5742188L38.9589844 74.5742188zM38.9589844 73.578125L42.3867188 73.578125C43.6692772 73.578125 44.6067679 73.3193385 45.1992188 72.8017578 45.7916696 72.2841771 46.0878906 71.5859419 46.0878906 70.7070312 46.0878906 69.7695266 45.7932972 69.0485051 45.2041016 68.5439453 44.6149059 68.0393855 43.7213602 67.7871094 42.5234375 67.7871094L38.9589844 67.7871094 38.9589844 73.578125zM49.9355469 75.5605469C49.9355469 74.0045495 50.3619749 72.7285206 51.2148438 71.7324219 52.0677126 70.7363231 53.1972586 70.2382812 54.6035156 70.2382812 56.0162831 70.2382812 57.1490843 70.7363231 58.0019531 71.7324219 58.854822 72.7285206 59.28125 74.0045495 59.28125 75.5605469L59.28125 75.8828125C59.28125 77.4453203 58.8564496 78.7229768 58.0068359 79.7158203 57.1572223 80.7086638 56.0293039 81.2050781 54.6230469 81.2050781 53.2037689 81.2050781 52.0677126 80.7086638 51.2148438 79.7158203 50.3619749 78.7229768 49.9355469 77.4453203 49.9355469 75.8828125L49.9355469 75.5605469zM51.1074219 75.8828125C51.1074219 77.106777 51.4166636 78.1354125 52.0351562 78.96875 52.6536489 79.8020875 53.5162705 80.21875 54.6230469 80.21875 55.7102919 80.21875 56.5647755 79.8020875 57.1865234 78.96875 57.8082713 78.1354125 58.1191406 77.106777 58.1191406 75.8828125L58.1191406 75.5605469C58.1191406 74.3561138 57.8066437 73.3339886 57.1816406 72.4941406 56.5566375 71.6542927 55.6972711 71.234375 54.6035156 71.234375 53.5097602 71.234375 52.6536489 71.6542927 52.0351562 72.4941406 51.4166636 73.3339886 51.1074219 74.3561138 51.1074219 75.5605469L51.1074219 75.8828125zM70.2382812 76.0097656C70.2382812 77.5918048 69.8802119 78.8531854 69.1640625 79.7939453 68.4479131 80.7347052 67.4615948 81.2050781 66.2050781 81.2050781 65.4368451 81.2050781 64.7711617 81.0504573 64.2080078 80.7412109 63.644854 80.4319646 63.1875018 79.9908883 62.8359375 79.4179688L62.640625 81 61.7226562 81 61.7226562 65.765625 62.8945312 65.765625 62.8945312 72.0546875C63.2460955 71.4752575 63.6953098 71.0276708 64.2421875 70.7119141 64.7890652 70.3961573 65.4368452 70.2382812 66.1855469 70.2382812 67.4550845 70.2382812 68.4479131 70.7444611 69.1640625 71.7568359 69.8802119 72.7692108 70.2382812 74.1184812 70.2382812 75.8046875L70.2382812 76.0097656zM69.0566406 75.8046875C69.0566406 74.4570245 68.7962266 73.3616579 68.2753906 72.5185547 67.7545547 71.6754515 66.983078 71.2539062 65.9609375 71.2539062 65.1536418 71.2539062 64.5026066 71.4508444 64.0078125 71.8447266 63.5130184 72.2386087 63.1419283 72.7480437 62.8945312 73.3730469L62.8945312 78.2070312C63.1549492 78.8190135 63.5406875 79.3024071 64.0517578 79.6572266 64.5628281 80.012046 65.2057253 80.1894531 65.9804688 80.1894531 67.0026093 80.1894531 67.7708308 79.8118527 68.2851562 79.0566406 68.7994817 78.3014285 69.0566406 77.2858137 69.0566406 76.0097656L69.0566406 75.8046875zM72.2011719 75.5605469C72.2011719 74.0045495 72.6275999 72.7285206 73.4804688 71.7324219 74.3333376 70.7363231 75.4628836 70.2382812 76.8691406 70.2382812 78.2819081 70.2382812 79.4147093 70.7363231 80.2675781 71.7324219 81.120447 72.7285206 81.546875 74.0045495 81.546875 75.5605469L81.546875 75.8828125C81.546875 77.4453203 81.1220746 78.7229768 80.2724609 79.7158203 79.4228473 80.7086638 78.2949289 81.2050781 76.8886719 81.2050781 75.4693939 81.2050781 74.3333376 80.7086638 73.4804688 79.7158203 72.6275999 78.7229768 72.2011719 77.4453203 72.2011719 75.8828125L72.2011719 75.5605469zM73.3730469 75.8828125C73.3730469 77.106777 73.6822886 78.1354125 74.3007812 78.96875 74.9192739 79.8020875 75.7818955 80.21875 76.8886719 80.21875 77.9759169 80.21875 78.8304005 79.8020875 79.4521484 78.96875 80.0738963 78.1354125 80.3847656 77.106777 80.3847656 75.8828125L80.3847656 75.5605469C80.3847656 74.3561138 80.0722688 73.3339886 79.4472656 72.4941406 78.8222625 71.6542927 77.9628961 71.234375 76.8691406 71.234375 75.7753852 71.234375 74.9192739 71.6542927 74.3007812 72.4941406 73.6822886 73.3339886 73.3730469 74.3561138 73.3730469 75.5605469L73.3730469 75.8828125zM85.8144531 67.7285156L85.8144531 70.4335938 88.1386719 70.4335938 88.1386719 71.390625 85.8144531 71.390625 85.8144531 78.2753906C85.8144531 78.9654982 85.9397774 79.4554022 86.1904297 79.7451172 86.441082 80.0348322 86.7747375 80.1796875 87.1914062 80.1796875 87.3346361 80.1796875 87.4729811 80.1715496 87.6064453 80.1552734 87.7399095 80.1389973 87.8977855 80.1113283 88.0800781 80.0722656L88.2558594 80.9414062C88.0996086 81.0195316 87.9059256 81.0830076 87.6748047 81.1318359 87.4436837 81.1806643 87.2141938 81.2050781 86.9863281 81.2050781 86.2441369 81.2050781 85.6663432 80.9707055 85.2529297 80.5019531 84.8395162 80.0332008 84.6328125 79.2910207 84.6328125 78.2753906L84.6328125 71.390625 82.8066406 71.390625 82.8066406 70.4335938 84.6328125 70.4335938 84.6328125 67.7285156 85.8144531 67.7285156zM89.7695312 75.5605469C89.7695312 74.0045495 90.1959593 72.7285206 91.0488281 71.7324219 91.901697 70.7363231 93.031243 70.2382812 94.4375 70.2382812 95.8502675 70.2382812 96.9830687 70.7363231 97.8359375 71.7324219 98.6888063 72.7285206 99.1152344 74.0045495 99.1152344 75.5605469L99.1152344 75.8828125C99.1152344 77.4453203 98.6904339 78.7229768 97.8408203 79.7158203 96.9912067 80.7086638 95.8632883 81.2050781 94.4570312 81.2050781 93.0377533 81.2050781 91.901697 80.7086638 91.0488281 79.7158203 90.1959593 78.7229768 89.7695312 77.4453203 89.7695312 75.8828125L89.7695312 75.5605469zM90.9414062 75.8828125C90.9414062 77.106777 91.2506479 78.1354125 91.8691406 78.96875 92.4876333 79.8020875 93.3502549 80.21875 94.4570312 80.21875 95.5442763 80.21875 96.3987599 79.8020875 97.0205078 78.96875 97.6422557 78.1354125 97.953125 77.106777 97.953125 75.8828125L97.953125 75.5605469C97.953125 74.3561138 97.6406281 73.3339886 97.015625 72.4941406 96.3906219 71.6542927 95.5312555 71.234375 94.4375 71.234375 93.3437445 71.234375 92.4876333 71.6542927 91.8691406 72.4941406 91.2506479 73.3339886 90.9414062 74.3561138 90.9414062 75.5605469L90.9414062 75.8828125zM107.865234 80.0136719L115.208984 80.0136719 115.208984 81 106.693359 81 106.693359 66.78125 107.865234 66.78125 107.865234 80.0136719zM118.744141 81L117.582031 81 117.582031 70.4335938 118.744141 70.4335938 118.744141 81zM118.744141 67.40625L117.582031 67.40625 117.582031 65.765625 118.744141 65.765625 118.744141 67.40625zM121.556641 75.8046875C121.556641 74.1184812 121.913082 72.7692108 122.625977 71.7568359 123.338871 70.7444611 124.333327 70.2382812 125.609375 70.2382812 126.358077 70.2382812 127.009112 70.3994125 127.5625 70.7216797 128.115888 71.0439469 128.571613 71.5012991 128.929688 72.09375L129.095703 70.4335938 130.042969 70.4335938 130.042969 81.0585938C130.042969 82.4062567 129.671879 83.4446578 128.929688 84.1738281 128.187496 84.9029984 127.136075 85.2675781 125.775391 85.2675781 125.267576 85.2675781 124.725589 85.2057298 124.149414 85.0820312 123.573239 84.9583327 123.070315 84.7890636 122.640625 84.5742188L122.865234 83.5878906C123.288414 83.796225 123.739255 83.954101 124.217773 84.0615234 124.696291 84.1689458 125.208982 84.2226562 125.755859 84.2226562 126.797531 84.2226562 127.575518 83.9557318 128.089844 83.421875 128.604169 82.8880182 128.861328 82.1002656 128.861328 81.0585938L128.861328 79.5644531C128.503253 80.0917995 128.049156 80.4970689 127.499023 80.7802734 126.94889 81.063478 126.312504 81.2050781 125.589844 81.2050781 124.326817 81.2050781 123.338871 80.7330776 122.625977 79.7890625 121.913082 78.8450474 121.556641 77.5852943 121.556641 76.0097656L121.556641 75.8046875zM122.728516 76.0097656C122.728516 77.2858137 122.985675 78.3014285 123.5 79.0566406 124.014325 79.8118527 124.785802 80.1894531 125.814453 80.1894531 126.556644 80.1894531 127.18001 80.0218116 127.68457 79.6865234 128.18913 79.3512353 128.581379 78.8906279 128.861328 78.3046875L128.861328 73.265625C128.5944 72.6731741 128.215172 72.1897805 127.723633 71.8154297 127.232094 71.4410789 126.602217 71.2539062 125.833984 71.2539062 124.805333 71.2539062 124.030602 71.6770791 123.509766 72.5234375 122.98893 73.3697959 122.728516 74.463535 122.728516 75.8046875L122.728516 76.0097656zM134.28125 72.2304688C134.639325 71.5989552 135.109698 71.1090512 135.692383 70.7607422 136.275068 70.4124332 136.957027 70.2382812 137.738281 70.2382812 138.851568 70.2382812 139.706052 70.5833299 140.301758 71.2734375 140.897464 71.9635451 141.195312 73.0344979 141.195312 74.4863281L141.195312 81 140.023438 81 140.023438 74.4667969C140.023438 73.3209578 139.797203 72.4990259 139.344727 72.0009766 138.89225 71.5029272 138.268884 71.2539062 137.474609 71.2539062 136.654293 71.2539062 135.978844 71.4540996 135.448242 71.8544922 134.917641 72.2548848 134.528647 72.7903612 134.28125 73.4609375L134.28125 81 133.109375 81 133.109375 65.765625 134.28125 65.765625 134.28125 72.2304688zM146.068359 67.7285156L146.068359 70.4335938 148.392578 70.4335938 148.392578 71.390625 146.068359 71.390625 146.068359 78.2753906C146.068359 78.9654982 146.193684 79.4554022 146.444336 79.7451172 146.694988 80.0348322 147.028644 80.1796875 147.445312 80.1796875 147.588542 80.1796875 147.726887 80.1715496 147.860352 80.1552734 147.993816 80.1389973 148.151692 80.1113283 148.333984 80.0722656L148.509766 80.9414062C148.353515 81.0195316 148.159832 81.0830076 147.928711 81.1318359 147.69759 81.1806643 147.4681 81.2050781 147.240234 81.2050781 146.498043 81.2050781 145.920249 80.9707055 145.506836 80.5019531 145.093422 80.0332008 144.886719 79.2910207 144.886719 78.2753906L144.886719 71.390625 143.060547 71.390625 143.060547 70.4335938 144.886719 70.4335938 144.886719 67.7285156 146.068359 67.7285156zM39.5839844 105.837891L39.5839844 112 37.6601562 112 37.6601562 97.7910156 42.5234375 97.7910156C44.0794349 97.7910156 45.267574 98.1360643 46.0878906 98.8261719 46.9082072 99.5162795 47.3183594 100.518874 47.3183594 101.833984 47.3183594 102.563155 47.1279316 103.197914 46.7470703 103.738281 46.366209 104.278649 45.8112016 104.708332 45.0820312 105.027344 45.8632852 105.281251 46.424803 105.693031 46.7666016 106.262695 47.1084001 106.83236 47.2792969 107.537105 47.2792969 108.376953L47.2792969 109.714844C47.2792969 110.157554 47.3281245 110.554686 47.4257812 110.90625 47.523438 111.257814 47.6927071 111.54427 47.9335938 111.765625L47.9335938 112 45.9511719 112C45.6972644 111.778645 45.5345056 111.453127 45.4628906 111.023438 45.3912757 110.593748 45.3554688 110.151044 45.3554688 109.695312L45.3554688 108.396484C45.3554688 107.628251 45.1308616 107.009768 44.6816406 106.541016 44.2324196 106.072263 43.6302121 105.837891 42.875 105.837891L39.5839844 105.837891zM39.5839844 104.324219L42.328125 104.324219C43.41537 104.324219 44.1982398 104.117515 44.6767578 103.704102 45.1552758 103.290688 45.3945312 102.660812 45.3945312 101.814453 45.3945312 101.013668 45.1617862 100.393557 44.6962891 99.9541016 44.2307919 99.5146462 43.5065153 99.2949219 42.5234375 99.2949219L39.5839844 99.2949219 39.5839844 104.324219zM49.671875 106.619141C49.671875 105.056633 50.0950479 103.769211 50.9414062 102.756836 51.7877646 101.744461 52.9368417 101.238281 54.3886719 101.238281 55.8535229 101.238281 57.0107379 101.742833 57.8603516 102.751953 58.7099652 103.761073 59.1347656 105.050122 59.1347656 106.619141L59.1347656 106.833984C59.1347656 108.409513 58.7115928 109.698563 57.8652344 110.701172 57.018876 111.703781 55.8665437 112.205078 54.4082031 112.205078 52.9498625 112.205078 51.7959027 111.702153 50.9462891 110.696289 50.0966754 109.690425 49.671875 108.403003 49.671875 106.833984L49.671875 106.619141zM51.5957031 106.833984C51.5957031 107.953782 51.8317034 108.878252 52.3037109 109.607422 52.7757185 110.336592 53.4772089 110.701172 54.4082031 110.701172 55.3261765 110.701172 56.0227841 110.336592 56.4980469 109.607422 56.9733097 108.878252 57.2109375 107.953782 57.2109375 106.833984L57.2109375 106.619141C57.2109375 105.512364 56.9716821 104.59115 56.4931641 103.855469 56.014646 103.119788 55.3131557 102.751953 54.3886719 102.751953 53.4706985 102.751953 52.7757185 103.119788 52.3037109 103.855469 51.8317034 104.59115 51.5957031 105.512364 51.5957031 106.619141L51.5957031 106.833984zM70.5117188 107.117188C70.5117188 108.640633 70.1455115 109.869461 69.4130859 110.803711 68.6806604 111.73796 67.6731835 112.205078 66.390625 112.205078 65.6874965 112.205078 65.077151 112.066733 64.5595703 111.790039 64.0419896 111.513345 63.613934 111.10482 63.2753906 110.564453L62.9628906 112 61.4882812 112 61.4882812 96.765625 63.4121094 96.765625 63.4121094 102.683594C63.7441423 102.214841 64.155922 101.856772 64.6474609 101.609375 65.1389999 101.361978 65.7135384 101.238281 66.3710938 101.238281 67.6731836 101.238281 68.6887984 101.759109 69.4179688 102.800781 70.1471391 103.842453 70.5117188 105.212882 70.5117188 106.912109L70.5117188 107.117188zM68.5878906 106.912109C68.5878906 105.701166 68.3649111 104.71322 67.9189453 103.948242 67.4729795 103.183264 66.7942754 102.800781 65.8828125 102.800781 65.2903616 102.800781 64.7906921 102.945637 64.3837891 103.235352 63.976886 103.525067 63.652996 103.91406 63.4121094 104.402344L63.4121094 108.982422C63.6595064 109.503258 63.9833964 109.910155 64.3837891 110.203125 64.7841817 110.496095 65.2903615 110.642578 65.9023438 110.642578 66.8072962 110.642578 67.4811176 110.320316 67.9238281 109.675781 68.3665387 109.031247 68.5878906 108.178391 68.5878906 107.117188L68.5878906 106.912109zM72.40625 106.619141C72.40625 105.056633 72.8294229 103.769211 73.6757812 102.756836 74.5221396 101.744461 75.6712167 101.238281 77.1230469 101.238281 78.5878979 101.238281 79.7451129 101.742833 80.5947266 102.751953 81.4443402 103.761073 81.8691406 105.050122 81.8691406 106.619141L81.8691406 106.833984C81.8691406 108.409513 81.4459678 109.698563 80.5996094 110.701172 79.753251 111.703781 78.6009188 112.205078 77.1425781 112.205078 75.6842375 112.205078 74.5302777 111.702153 73.6806641 110.696289 72.8310504 109.690425 72.40625 108.403003 72.40625 106.833984L72.40625 106.619141zM74.3300781 106.833984C74.3300781 107.953782 74.5660784 108.878252 75.0380859 109.607422 75.5100935 110.336592 76.2115839 110.701172 77.1425781 110.701172 78.0605515 110.701172 78.7571591 110.336592 79.2324219 109.607422 79.7076847 108.878252 79.9453125 107.953782 79.9453125 106.833984L79.9453125 106.619141C79.9453125 105.512364 79.7060571 104.59115 79.2275391 103.855469 78.749021 103.119788 78.0475307 102.751953 77.1230469 102.751953 76.2050735 102.751953 75.5100935 103.119788 75.0380859 103.855469 74.5660784 104.59115 74.3300781 105.512364 74.3300781 106.619141L74.3300781 106.833984zM86.8984375 98.8847656L86.8984375 101.433594 88.9003906 101.433594 88.9003906 102.859375 86.8984375 102.859375 86.8984375 109.275391C86.8984375 109.770185 87.0009755 110.118489 87.2060547 110.320312 87.4111338 110.522136 87.682941 110.623047 88.0214844 110.623047 88.132162 110.623047 88.2558587 110.608399 88.3925781 110.579102 88.5292976 110.549805 88.6432287 110.51888 88.734375 110.486328L88.9980469 111.804688C88.854817 111.921876 88.6432306 112.017903 88.3632812 112.092773 88.0833319 112.167644 87.806642 112.205078 87.5332031 112.205078 86.7519492 112.205078 86.1302106 111.969078 85.6679688 111.49707 85.2057269 111.025063 84.9746094 110.28451 84.9746094 109.275391L84.9746094 102.859375 83.2949219 102.859375 83.2949219 101.433594 84.9746094 101.433594 84.9746094 98.8847656 86.8984375 98.8847656zM90.5117188 106.619141C90.5117188 105.056633 90.9348916 103.769211 91.78125 102.756836 92.6276084 101.744461 93.7766854 101.238281 95.2285156 101.238281 96.6933667 101.238281 97.8505817 101.742833 98.7001953 102.751953 99.5498089 103.761073 99.9746094 105.050122 99.9746094 106.619141L99.9746094 106.833984C99.9746094 108.409513 99.5514365 109.698563 98.7050781 110.701172 97.8587197 111.703781 96.7063875 112.205078 95.2480469 112.205078 93.7897062 112.205078 92.6357464 111.702153 91.7861328 110.696289 90.9365192 109.690425 90.5117188 108.403003 90.5117188 106.833984L90.5117188 106.619141zM92.4355469 106.833984C92.4355469 107.953782 92.6715471 108.878252 93.1435547 109.607422 93.6155623 110.336592 94.3170526 110.701172 95.2480469 110.701172 96.1660202 110.701172 96.8626278 110.336592 97.3378906 109.607422 97.8131534 108.878252 98.0507812 107.953782 98.0507812 106.833984L98.0507812 106.619141C98.0507812 105.512364 97.8115258 104.59115 97.3330078 103.855469 96.8544898 103.119788 96.1529994 102.751953 95.2285156 102.751953 94.3105423 102.751953 93.6155623 103.119788 93.1435547 103.855469 92.6715471 104.59115 92.4355469 105.512364 92.4355469 106.619141L92.4355469 106.833984zM109.486328 105.837891L109.486328 112 107.5625 112 107.5625 97.7910156 112.425781 97.7910156C113.981779 97.7910156 115.169918 98.1360643 115.990234 98.8261719 116.810551 99.5162795 117.220703 100.518874 117.220703 101.833984 117.220703 102.563155 117.030275 103.197914 116.649414 103.738281 116.268553 104.278649 115.713545 104.708332 114.984375 105.027344 115.765629 105.281251 116.327147 105.693031 116.668945 106.262695 117.010744 106.83236 117.181641 107.537105 117.181641 108.376953L117.181641 109.714844C117.181641 110.157554 117.230468 110.554686 117.328125 110.90625 117.425782 111.257814 117.595051 111.54427 117.835938 111.765625L117.835938 112 115.853516 112C115.599608 111.778645 115.436849 111.453127 115.365234 111.023438 115.293619 110.593748 115.257812 110.151044 115.257812 109.695312L115.257812 108.396484C115.257812 107.628251 115.033205 107.009768 114.583984 106.541016 114.134763 106.072263 113.532556 105.837891 112.777344 105.837891L109.486328 105.837891zM109.486328 104.324219L112.230469 104.324219C113.317714 104.324219 114.100584 104.117515 114.579102 103.704102 115.05762 103.290688 115.296875 102.660812 115.296875 101.814453 115.296875 101.013668 115.06413 100.393557 114.598633 99.9541016 114.133136 99.5146462 113.408859 99.2949219 112.425781 99.2949219L109.486328 99.2949219 109.486328 104.324219zM124.398438 112.205078C122.881503 112.205078 121.698246 111.720057 120.848633 110.75 119.999019 109.779943 119.574219 108.503914 119.574219 106.921875L119.574219 106.492188C119.574219 104.975253 120.01204 103.720383 120.887695 102.727539 121.763351 101.734696 122.832676 101.238281 124.095703 101.238281 125.508471 101.238281 126.56803 101.67773 127.274414 102.556641 127.980798 103.435551 128.333984 104.604159 128.333984 106.0625L128.333984 107.078125 121.576172 107.078125 121.546875 107.126953C121.546875 108.188156 121.781248 109.04915 122.25 109.709961 122.718752 110.370772 123.434891 110.701172 124.398438 110.701172 125.049482 110.701172 125.620766 110.608399 126.112305 110.422852 126.603844 110.237304 127.025389 109.981772 127.376953 109.65625L128.128906 110.90625C127.7513 111.270835 127.253258 111.578449 126.634766 111.829102 126.016273 112.079754 125.270838 112.205078 124.398438 112.205078zM124.095703 102.751953C123.425127 102.751953 122.870119 103.01074 122.430664 103.52832 121.991209 104.045901 121.722657 104.708329 121.625 105.515625L121.644531 105.564453 126.410156 105.564453 126.410156 105.408203C126.410156 104.63997 126.221356 104.005211 125.84375 103.503906 125.466144 103.002602 124.883467 102.751953 124.095703 102.751953zM130.150391 106.912109C130.150391 105.212882 130.513343 103.842453 131.239258 102.800781 131.965173 101.759109 132.97916 101.238281 134.28125 101.238281 134.951826 101.238281 135.541013 101.373371 136.048828 101.643555 136.556643 101.913738 136.983071 102.302732 137.328125 102.810547L137.5625 101.433594 139.095703 101.433594 139.095703 112.058594C139.095703 113.412767 138.701827 114.452796 137.914062 115.178711 137.126298 115.904626 135.990242 116.267578 134.505859 116.267578 133.998044 116.267578 133.449547 116.197592 132.860352 116.057617 132.271156 115.917643 131.751955 115.727215 131.302734 115.486328L131.595703 113.992188C131.966799 114.187501 132.414385 114.345377 132.938477 114.46582 133.462568 114.586264 133.978513 114.646484 134.486328 114.646484 135.423833 114.646484 136.105792 114.43327 136.532227 114.006836 136.958661 113.580402 137.171875 112.930994 137.171875 112.058594L137.171875 110.857422C136.826821 111.300132 136.413414 111.635416 135.931641 111.863281 135.449867 112.091147 134.893232 112.205078 134.261719 112.205078 132.97265 112.205078 131.965173 111.73796 131.239258 110.803711 130.513343 109.869461 130.150391 108.640633 130.150391 107.117188L130.150391 106.912109zM132.074219 107.117188C132.074219 108.178391 132.292316 109.031247 132.728516 109.675781 133.164716 110.320316 133.838537 110.642578 134.75 110.642578 135.32943 110.642578 135.814451 110.510744 136.205078 110.24707 136.595705 109.983397 136.917967 109.610679 137.171875 109.128906L137.171875 104.265625C136.924478 103.816404 136.602216 103.459962 136.205078 103.196289 135.807941 102.932616 135.32943 102.800781 134.769531 102.800781 133.851558 102.800781 133.172854 103.181637 132.733398 103.943359 132.293943 104.705082 132.074219 105.694655 132.074219 106.912109L132.074219 107.117188zM148.568359 110.4375C148.236326 111.003909 147.809898 111.440103 147.289062 111.746094 146.768227 112.052085 146.166019 112.205078 145.482422 112.205078 144.330072 112.205078 143.431644 111.837243 142.787109 111.101562 142.142575 110.365882 141.820312 109.22006 141.820312 107.664062L141.820312 101.433594 143.744141 101.433594 143.744141 107.683594C143.744141 108.809901 143.910155 109.584633 144.242188 110.007812 144.57422 110.430992 145.091793 110.642578 145.794922 110.642578 146.478519 110.642578 147.043292 110.504233 147.489258 110.227539 147.935224 109.950845 148.272134 109.558596 148.5 109.050781L148.5 101.433594 150.423828 101.433594 150.423828 112 148.695312 112 148.568359 110.4375zM155.306641 112L153.382812 112 153.382812 96.765625 155.306641 96.765625 155.306641 112zM164.759766 112C164.694661 111.680988 164.644206 111.399415 164.608398 111.155273 164.572591 110.911132 164.551432 110.665366 164.544922 110.417969 164.186847 110.925784 163.719729 111.350584 163.143555 111.692383 162.56738 112.034181 161.947269 112.205078 161.283203 112.205078 160.182937 112.205078 159.344729 111.923505 158.768555 111.360352 158.19238 110.797198 157.904297 110.020838 157.904297 109.03125 157.904297 108.02213 158.312821 107.23275 159.129883 106.663086 159.946944 106.093422 161.055332 105.808594 162.455078 105.808594L164.544922 105.808594 164.544922 104.763672C164.544922 104.145179 164.356122 103.655275 163.978516 103.293945 163.60091 102.932615 163.067061 102.751953 162.376953 102.751953 161.75195 102.751953 161.247398 102.908202 160.863281 103.220703 160.479165 103.533205 160.287109 103.90755 160.287109 104.34375L158.460938 104.363281 158.441406 104.304688C158.395833 103.536454 158.75553 102.833337 159.520508 102.195312 160.285486 101.557288 161.273431 101.238281 162.484375 101.238281 163.682298 101.238281 164.64583 101.54264 165.375 102.151367 166.10417 102.760094 166.46875 103.637364 166.46875 104.783203L166.46875 109.871094C166.46875 110.2487 166.488281 110.613279 166.527344 110.964844 166.566406 111.316408 166.63802 111.661457 166.742188 112L164.759766 112zM161.566406 110.59375C162.263024 110.59375 162.891273 110.414715 163.451172 110.056641 164.011071 109.698566 164.37565 109.288414 164.544922 108.826172L164.544922 107.107422 162.386719 107.107422C161.611975 107.107422 160.991864 107.302732 160.526367 107.693359 160.06087 108.083986 159.828125 108.542966 159.828125 109.070312 159.828125 109.539065 159.974608 109.910155 160.267578 110.183594 160.560548 110.457033 160.993487 110.59375 161.566406 110.59375zM174.261719 103.132812L173.275391 103.074219C172.767576 103.074219 172.33952 103.19466 171.991211 103.435547 171.642902 103.676433 171.37435 104.014972 171.185547 104.451172L171.185547 112 169.261719 112 169.261719 101.433594 170.980469 101.433594 171.166016 102.976562C171.465496 102.429685 171.834959 102.003257 172.274414 101.697266 172.713869 101.391275 173.220049 101.238281 173.792969 101.238281 173.936199 101.238281 174.072916 101.249674 174.203125 101.272461 174.333334 101.295248 174.440755 101.319661 174.525391 101.345703L174.261719 103.132812zM39.8671875 137.101562L39.8671875 143 37.4941406 143 37.4941406 128.78125 42.3867188 128.78125C43.9687579 128.78125 45.192704 129.139319 46.0585938 129.855469 46.9244835 130.571618 47.3574219 131.593743 47.3574219 132.921875 47.3574219 133.657556 47.1669941 134.290687 46.7861328 134.821289 46.4052715 135.351891 45.8502641 135.776691 45.1210938 136.095703 45.921879 136.349611 46.4996727 136.763018 46.8544922 137.335938 47.2093117 137.908857 47.3867188 138.618485 47.3867188 139.464844L47.3867188 140.646484C47.3867188 141.063153 47.4388016 141.47005 47.5429688 141.867188 47.6471359 142.264325 47.8196603 142.567056 48.0605469 142.775391L48.0605469 143 45.6191406 143C45.3587227 142.785155 45.1927087 142.449872 45.1210938 141.994141 45.0494788 141.538409 45.0136719 141.082685 45.0136719 140.626953L45.0136719 139.484375C45.0136719 138.755205 44.803713 138.175783 44.3837891 137.746094 43.9638651 137.316404 43.3925817 137.101562 42.6699219 137.101562L39.8671875 137.101562zM39.8671875 135.197266L42.2597656 135.197266C43.2102912 135.197266 43.9036437 135.014976 44.3398438 134.650391 44.7760438 134.285805 44.9941406 133.72917 44.9941406 132.980469 44.9941406 132.264319 44.779299 131.702802 44.3496094 131.295898 43.9199197 130.888995 43.2656294 130.685547 42.3867188 130.685547L39.8671875 130.685547 39.8671875 135.197266zM49.5351562 137.619141C49.5351562 136.043612 49.966467 134.752935 50.8291016 133.74707 51.6917361 132.741206 52.8717373 132.238281 54.3691406 132.238281 55.8860753 132.238281 57.075842 132.741206 57.9384766 133.74707 58.8011111 134.752935 59.2324219 136.043612 59.2324219 137.619141L59.2324219 137.824219C59.2324219 139.412768 58.8011111 140.706701 57.9384766 141.706055 57.075842 142.705409 55.8925856 143.205078 54.3886719 143.205078 52.8782477 143.205078 51.6917361 142.703781 50.8291016 141.701172 49.966467 140.698563 49.5351562 139.406258 49.5351562 137.824219L49.5351562 137.619141zM51.9082031 137.824219C51.9082031 138.85938 52.110024 139.699216 52.5136719 140.34375 52.9173197 140.988284 53.5423135 141.310547 54.3886719 141.310547 55.2154989 141.310547 55.8356099 140.986657 56.2490234 140.338867 56.662437 139.691077 56.8691406 138.85287 56.8691406 137.824219L56.8691406 137.619141C56.8691406 136.610021 56.662437 135.778324 56.2490234 135.124023 55.8356099 134.469723 55.2089886 134.142578 54.3691406 134.142578 53.5423136 134.142578 52.9254578 134.469723 52.5185547 135.124023 52.1116516 135.778324 51.9082031 136.610021 51.9082031 137.619141L51.9082031 137.824219zM70.5800781 138.068359C70.5800781 139.611336 70.2203812 140.853185 69.5009766 141.793945 68.7815719 142.734705 67.7675847 143.205078 66.4589844 143.205078 65.7949186 143.205078 65.2187524 143.068361 64.7304688 142.794922 64.2421851 142.521483 63.8352881 142.124352 63.5097656 141.603516L63.2265625 143 61.3027344 143 61.3027344 127.765625 63.6757812 127.765625 63.6757812 133.634766C64.0013037 133.185545 64.3919248 132.840496 64.8476562 132.599609 65.3033877 132.358723 65.8339813 132.238281 66.4394531 132.238281 67.7610743 132.238281 68.7815719 132.752599 69.5009766 133.78125 70.2203812 134.809901 70.5800781 136.170564 70.5800781 137.863281L70.5800781 138.068359zM68.2070312 137.863281C68.2070312 136.763015 68.0182311 135.874352 67.640625 135.197266 67.2630189 134.520179 66.6640666 134.181641 65.84375 134.181641 65.3164036 134.181641 64.8753273 134.298827 64.5205078 134.533203 64.1656883 134.767579 63.8841156 135.093097 63.6757812 135.509766L63.6757812 139.943359C63.8776052 140.366539 64.1575503 140.693684 64.515625 140.924805 64.8736997 141.155926 65.322914 141.271484 65.8632812 141.271484 66.6835979 141.271484 67.279295 140.983401 67.6503906 140.407227 68.0214862 139.831052 68.2070312 139.051437 68.2070312 138.068359L68.2070312 137.863281zM72.1914062 137.619141C72.1914062 136.043612 72.622717 134.752935 73.4853516 133.74707 74.3479861 132.741206 75.5279873 132.238281 77.0253906 132.238281 78.5423253 132.238281 79.732092 132.741206 80.5947266 133.74707 81.4573611 134.752935 81.8886719 136.043612 81.8886719 137.619141L81.8886719 137.824219C81.8886719 139.412768 81.4573611 140.706701 80.5947266 141.706055 79.732092 142.705409 78.5488356 143.205078 77.0449219 143.205078 75.5344977 143.205078 74.3479861 142.703781 73.4853516 141.701172 72.622717 140.698563 72.1914062 139.406258 72.1914062 137.824219L72.1914062 137.619141zM74.5644531 137.824219C74.5644531 138.85938 74.766274 139.699216 75.1699219 140.34375 75.5735697 140.988284 76.1985635 141.310547 77.0449219 141.310547 77.8717489 141.310547 78.4918599 140.986657 78.9052734 140.338867 79.318687 139.691077 79.5253906 138.85287 79.5253906 137.824219L79.5253906 137.619141C79.5253906 136.610021 79.318687 135.778324 78.9052734 135.124023 78.4918599 134.469723 77.8652386 134.142578 77.0253906 134.142578 76.1985636 134.142578 75.5817078 134.469723 75.1748047 135.124023 74.7679016 135.778324 74.5644531 136.610021 74.5644531 137.619141L74.5644531 137.824219zM86.9960938 129.865234L86.9960938 132.433594 88.890625 132.433594 88.890625 134.191406 86.9960938 134.191406 86.9960938 140.03125C86.9960938 140.46745 87.0904938 140.778319 87.2792969 140.963867 87.4680999 141.149415 87.7187484 141.242188 88.03125 141.242188 88.161459 141.242188 88.2884108 141.230794 88.4121094 141.208008 88.5358079 141.185221 88.6529942 141.154297 88.7636719 141.115234L89.0175781 142.853516C88.8157542 142.964193 88.5764988 143.050455 88.2998047 143.112305 88.0231106 143.174154 87.7350275 143.205078 87.4355469 143.205078 86.5631467 143.205078 85.8779322 142.949547 85.3798828 142.438477 84.8818334 141.927406 84.6328125 141.125005 84.6328125 140.03125L84.6328125 134.191406 83.0214844 134.191406 83.0214844 132.433594 84.6328125 132.433594 84.6328125 129.865234 86.9960938 129.865234zM90.3652344 137.619141C90.3652344 136.043612 90.7965452 134.752935 91.6591797 133.74707 92.5218142 132.741206 93.7018154 132.238281 95.1992188 132.238281 96.7161534 132.238281 97.9059202 132.741206 98.7685547 133.74707 99.6311892 134.752935 100.0625 136.043612 100.0625 137.619141L100.0625 137.824219C100.0625 139.412768 99.6311892 140.706701 98.7685547 141.706055 97.9059202 142.705409 96.7226638 143.205078 95.21875 143.205078 93.7083258 143.205078 92.5218142 142.703781 91.6591797 141.701172 90.7965452 140.698563 90.3652344 139.406258 90.3652344 137.824219L90.3652344 137.619141zM92.7382812 137.824219C92.7382812 138.85938 92.9401021 139.699216 93.34375 140.34375 93.7473979 140.988284 94.3723916 141.310547 95.21875 141.310547 96.0455771 141.310547 96.665688 140.986657 97.0791016 140.338867 97.4925151 139.691077 97.6992188 138.85287 97.6992188 137.824219L97.6992188 137.619141C97.6992188 136.610021 97.4925151 135.778324 97.0791016 135.124023 96.665688 134.469723 96.0390667 134.142578 95.1992188 134.142578 94.3723917 134.142578 93.7555359 134.469723 93.3486328 135.124023 92.9417297 135.778324 92.7382812 136.610021 92.7382812 137.619141L92.7382812 137.824219zM114.554688 139.71875L114.613281 139.71875 118.724609 128.78125 121.751953 128.78125 121.751953 143 119.378906 143 119.378906 132.785156 119.320312 132.775391 115.404297 143 113.773438 143 109.789062 132.580078 109.730469 132.599609 109.730469 143 107.357422 143 107.357422 128.78125 110.472656 128.78125 114.554688 139.71875zM128.988281 143.205078C127.445305 143.205078 126.239262 142.718429 125.370117 141.745117 124.500972 140.771805 124.066406 139.510424 124.066406 137.960938L124.066406 137.570312C124.066406 136.020826 124.500972 134.743169 125.370117 133.737305 126.239262 132.73144 127.36067 132.231771 128.734375 132.238281 130.153653 132.238281 131.227861 132.676102 131.957031 133.551758 132.686202 134.427413 133.050781 135.597649 133.050781 137.0625L133.050781 138.341797 126.517578 138.341797 126.498047 138.390625C126.524089 139.256515 126.751951 139.959633 127.181641 140.5 127.61133 141.040367 128.25911 141.310547 129.125 141.310547 129.769534 141.310547 130.327797 141.232423 130.799805 141.076172 131.271812 140.919921 131.709633 140.695314 132.113281 140.402344L132.884766 141.955078C132.481118 142.306642 131.947269 142.602863 131.283203 142.84375 130.619137 143.084637 129.854171 143.205078 128.988281 143.205078zM128.734375 134.142578C128.115882 134.142578 127.621096 134.365558 127.25 134.811523 126.878904 135.257489 126.647787 135.838538 126.556641 136.554688L126.576172 136.603516 130.707031 136.603516 130.707031 136.417969C130.707031 135.740882 130.549155 135.192385 130.233398 134.772461 129.917642 134.352537 129.417972 134.142578 128.734375 134.142578zM134.535156 137.863281C134.535156 136.177075 134.896481 134.818039 135.619141 133.786133 136.3418 132.754227 137.357415 132.238281 138.666016 132.238281 139.238935 132.238281 139.751625 132.35384 140.204102 132.584961 140.656578 132.816082 141.048826 133.146482 141.380859 133.576172L141.380859 127.765625 143.753906 127.765625 143.753906 143 141.830078 143 141.546875 141.662109C141.208332 142.163414 140.798179 142.545897 140.316406 142.80957 139.834633 143.073244 139.277998 143.205078 138.646484 143.205078 137.350905 143.205078 136.3418 142.733078 135.619141 141.789062 134.896481 140.845047 134.535156 139.604825 134.535156 138.068359L134.535156 137.863281zM136.908203 138.068359C136.908203 139.044927 137.095376 139.822914 137.469727 140.402344 137.844077 140.981774 138.438147 141.271484 139.251953 141.271484 139.753258 141.271484 140.178058 141.164064 140.526367 140.949219 140.874676 140.734374 141.159504 140.428387 141.380859 140.03125L141.380859 135.421875C141.159504 135.031248 140.873049 134.726889 140.521484 134.508789 140.16992 134.290689 139.753258 134.181641 139.271484 134.181641 138.464189 134.181641 137.868492 134.521806 137.484375 135.202148 137.100258 135.88249 136.908203 136.769526 136.908203 137.863281L136.908203 138.068359zM148.832031 143L146.458984 143 146.458984 132.433594 148.832031 132.433594 148.832031 143zM148.832031 129.845703L146.458984 129.845703 146.458984 127.765625 148.832031 127.765625 148.832031 129.845703zM158.080078 141.4375C157.754556 142.003909 157.336266 142.440103 156.825195 142.746094 156.314125 143.052085 155.723311 143.205078 155.052734 143.205078 153.919916 143.205078 153.034508 142.83236 152.396484 142.086914 151.75846 141.341468 151.439453 140.184253 151.439453 138.615234L151.439453 132.433594 153.802734 132.433594 153.802734 138.634766C153.802734 139.643885 153.949217 140.33561 154.242188 140.709961 154.535158 141.084312 154.990882 141.271484 155.609375 141.271484 156.182295 141.271484 156.662433 141.168946 157.049805 140.963867 157.437176 140.758788 157.741535 140.460939 157.962891 140.070312L157.962891 132.433594 160.335938 132.433594 160.335938 143 158.294922 143 158.080078 141.4375zM164.984375 132.433594L165.111328 133.810547C165.456382 133.309242 165.88932 132.921876 166.410156 132.648438 166.930992 132.374999 167.5332 132.238281 168.216797 132.238281 168.906904 132.238281 169.499346 132.39453 169.994141 132.707031 170.488935 133.019533 170.860025 133.488278 171.107422 134.113281 171.432944 133.527341 171.862628 133.068361 172.396484 132.736328 172.930341 132.404295 173.555335 132.238281 174.271484 132.238281 175.332688 132.238281 176.170895 132.607744 176.786133 133.34668 177.40137 134.085616 177.708984 135.203769 177.708984 136.701172L177.708984 143 175.335938 143 175.335938 136.691406C175.335938 135.766922 175.181317 135.117515 174.87207 134.743164 174.562824 134.368813 174.098961 134.181641 173.480469 134.181641 172.972654 134.181641 172.542971 134.318358 172.191406 134.591797 171.839842 134.865236 171.585938 135.233071 171.429688 135.695312 171.429688 135.792969 171.432943 135.877604 171.439453 135.949219 171.445964 136.020834 171.449219 136.089192 171.449219 136.154297L171.449219 143 169.076172 143 169.076172 136.691406C169.076172 135.799475 168.918296 135.158205 168.602539 134.767578 168.286782 134.376951 167.82292 134.181641 167.210938 134.181641 166.729164 134.181641 166.32064 134.274413 165.985352 134.459961 165.650063 134.645509 165.384767 134.90755 165.189453 135.246094L165.189453 143 162.816406 143 162.816406 132.433594 164.984375 132.433594zM40.1601562 168.316406L40.1601562 174 37.3085938 174 37.3085938 159.78125 42.2304688 159.78125C43.8515706 159.78125 45.1194616 160.150712 46.0341797 160.889648 46.9488978 161.628584 47.40625 162.658848 47.40625 163.980469 47.40625 164.709639 47.212567 165.339516 46.8251953 165.870117 46.4378236 166.400719 45.8730506 166.828774 45.1308594 167.154297 45.9707073 167.401694 46.5745424 167.815101 46.9423828 168.394531 47.3102232 168.973961 47.4941406 169.6901 47.4941406 170.542969L47.4941406 171.587891C47.4941406 171.985028 47.547851 172.400063 47.6552734 172.833008 47.7626958 173.265953 47.9466133 173.586588 48.2070312 173.794922L48.2070312 174 45.2675781 174C45.0071602 173.791666 44.8395186 173.446617 44.7646484 172.964844 44.6897783 172.483071 44.6523438 172.01758 44.6523438 171.568359L44.6523438 170.5625C44.6523438 169.852861 44.4586608 169.301109 44.0712891 168.907227 43.6839173 168.513344 43.1354202 168.316406 42.4257812 168.316406L40.1601562 168.316406zM40.1601562 166.119141L42.1816406 166.119141C42.9824259 166.119141 43.578123 165.949871 43.96875 165.611328 44.359377 165.272785 44.5546875 164.771488 44.5546875 164.107422 44.5546875 163.456377 44.3577494 162.938804 43.9638672 162.554688 43.569985 162.170571 42.9921913 161.978516 42.2304688 161.978516L40.1601562 161.978516 40.1601562 166.119141zM49.3984375 168.619141C49.3984375 167.043612 49.8378862 165.752935 50.7167969 164.74707 51.5957075 163.741206 52.8131433 163.238281 54.3691406 163.238281 55.9316484 163.238281 57.1555945 163.739578 58.0410156 164.742188 58.9264367 165.744797 59.3691406 167.037101 59.3691406 168.619141L59.3691406 168.824219C59.3691406 170.412768 58.9280643 171.706701 58.0458984 172.706055 57.1637326 173.705409 55.9446692 174.205078 54.3886719 174.205078 52.8261641 174.205078 51.6038456 173.705409 50.7216797 172.706055 49.8395138 171.706701 49.3984375 170.412768 49.3984375 168.824219L49.3984375 168.619141zM52.2402344 168.824219C52.2402344 169.787765 52.4095035 170.560869 52.7480469 171.143555 53.0865902 171.72624 53.6334598 172.017578 54.3886719 172.017578 55.1243526 172.017578 55.6630842 171.724612 56.0048828 171.138672 56.3466814 170.552731 56.5175781 169.781255 56.5175781 168.824219L56.5175781 168.619141C56.5175781 167.681636 56.3450538 166.91667 56 166.324219 55.6549462 165.731768 55.1113318 165.435547 54.3691406 165.435547 53.6334599 165.435547 53.0947283 165.733395 52.7529297 166.329102 52.4111311 166.924808 52.2402344 167.688146 52.2402344 168.619141L52.2402344 168.824219zM70.6582031 169.009766C70.6582031 170.585294 70.3066441 171.845047 69.6035156 172.789062 68.9003871 173.733078 67.8847723 174.205078 66.5566406 174.205078 65.9381479 174.205078 65.3994164 174.074871 64.9404297 173.814453 64.481443 173.554035 64.0924495 173.17318 63.7734375 172.671875L63.5390625 174 61.1269531 174 61.1269531 158.765625 63.96875 158.765625 63.96875 164.556641C64.2747411 164.133461 64.6409484 163.807944 65.0673828 163.580078 65.4938172 163.352212 65.9837212 163.238281 66.5371094 163.238281 67.8782619 163.238281 68.9003871 163.744461 69.6035156 164.756836 70.3066441 165.769211 70.6582031 167.118481 70.6582031 168.804688L70.6582031 169.009766zM67.8164062 168.804688C67.8164062 167.776037 67.6650406 166.960615 67.3623047 166.358398 67.0595688 165.756182 66.5436234 165.455078 65.8144531 165.455078 65.3717426 165.455078 64.9973974 165.547851 64.6914062 165.733398 64.3854151 165.918946 64.1445321 166.184243 63.96875 166.529297L63.96875 171.001953C64.1445321 171.320965 64.3870427 171.565103 64.6962891 171.734375 65.0055354 171.903647 65.3847634 171.988281 65.8339844 171.988281 66.5696651 171.988281 67.0839829 171.729495 67.3769531 171.211914 67.6699233 170.694333 67.8164062 169.960291 67.8164062 169.009766L67.8164062 168.804688zM71.9765625 168.619141C71.9765625 167.043612 72.4160112 165.752935 73.2949219 164.74707 74.1738325 163.741206 75.3912683 163.238281 76.9472656 163.238281 78.5097734 163.238281 79.7337195 163.739578 80.6191406 164.742188 81.5045617 165.744797 81.9472656 167.037101 81.9472656 168.619141L81.9472656 168.824219C81.9472656 170.412768 81.5061893 171.706701 80.6240234 172.706055 79.7418576 173.705409 78.5227942 174.205078 76.9667969 174.205078 75.4042891 174.205078 74.1819706 173.705409 73.2998047 172.706055 72.4176388 171.706701 71.9765625 170.412768 71.9765625 168.824219L71.9765625 168.619141zM74.8183594 168.824219C74.8183594 169.787765 74.9876285 170.560869 75.3261719 171.143555 75.6647152 171.72624 76.2115848 172.017578 76.9667969 172.017578 77.7024776 172.017578 78.2412092 171.724612 78.5830078 171.138672 78.9248064 170.552731 79.0957031 169.781255 79.0957031 168.824219L79.0957031 168.619141C79.0957031 167.681636 78.9231788 166.91667 78.578125 166.324219 78.2330712 165.731768 77.6894568 165.435547 76.9472656 165.435547 76.2115849 165.435547 75.6728533 165.733395 75.3310547 166.329102 74.9892561 166.924808 74.8183594 167.688146 74.8183594 168.619141L74.8183594 168.824219zM87.1230469 160.845703L87.1230469 163.433594 88.9101562 163.433594 88.9101562 165.435547 87.1230469 165.435547 87.1230469 170.816406C87.1230469 171.226565 87.209309 171.51953 87.3818359 171.695312 87.5543628 171.871095 87.7805976 171.958984 88.0605469 171.958984 88.2102872 171.958984 88.3404942 171.950846 88.4511719 171.93457 88.5618495 171.918294 88.6888014 171.890625 88.8320312 171.851562L89.0664062 173.912109C88.7799465 174.009766 88.501629 174.083008 88.2314453 174.131836 87.9612617 174.180664 87.6666683 174.205078 87.3476562 174.205078 86.3645784 174.205078 85.60775 173.934899 85.0771484 173.394531 84.5465468 172.854164 84.28125 171.998053 84.28125 170.826172L84.28125 165.435547 82.7382812 165.435547 82.7382812 163.433594 84.28125 163.433594 84.28125 160.845703 87.1230469 160.845703zM90.2285156 168.619141C90.2285156 167.043612 90.6679644 165.752935 91.546875 164.74707 92.4257856 163.741206 93.6432214 163.238281 95.1992188 163.238281 96.7617266 163.238281 97.9856727 163.739578 98.8710938 164.742188 99.7565148 165.744797 100.199219 167.037101 100.199219 168.619141L100.199219 168.824219C100.199219 170.412768 99.7581424 171.706701 98.8759766 172.706055 97.9938107 173.705409 96.7747474 174.205078 95.21875 174.205078 93.6562422 174.205078 92.4339237 173.705409 91.5517578 172.706055 90.6695919 171.706701 90.2285156 170.412768 90.2285156 168.824219L90.2285156 168.619141zM93.0703125 168.824219C93.0703125 169.787765 93.2395816 170.560869 93.578125 171.143555 93.9166684 171.72624 94.4635379 172.017578 95.21875 172.017578 95.9544308 172.017578 96.4931624 171.724612 96.8349609 171.138672 97.1767595 170.552731 97.3476562 169.781255 97.3476562 168.824219L97.3476562 168.619141C97.3476562 167.681636 97.1751319 166.91667 96.8300781 166.324219 96.4850243 165.731768 95.94141 165.435547 95.1992188 165.435547 94.463538 165.435547 93.9248064 165.733395 93.5830078 166.329102 93.2412092 166.924808 93.0703125 167.688146 93.0703125 168.619141L93.0703125 168.824219zM107.152344 174L107.152344 159.78125 111.810547 159.78125C113.483732 159.78125 114.789058 160.108395 115.726562 160.762695 116.664067 161.416995 117.132812 162.388665 117.132812 163.677734 117.132812 164.328779 116.963543 164.911456 116.625 165.425781 116.286457 165.940107 115.79167 166.327473 115.140625 166.587891 116.026046 166.750652 116.693357 167.134763 117.142578 167.740234 117.591799 168.345706 117.816406 169.052079 117.816406 169.859375 117.816406 171.220059 117.367192 172.250322 116.46875 172.950195 115.570308 173.650069 114.297534 174 112.650391 174L107.152344 174zM110.003906 167.710938L110.003906 171.8125 112.650391 171.8125C113.405603 171.8125 113.981769 171.648114 114.378906 171.319336 114.776044 170.990558 114.974609 170.503909 114.974609 169.859375 114.974609 169.169267 114.779299 168.638674 114.388672 168.267578 113.998045 167.896483 113.408858 167.710938 112.621094 167.710938L110.003906 167.710938zM110.003906 165.738281L111.908203 165.738281C112.669926 165.738281 113.255857 165.582033 113.666016 165.269531 114.076174 164.95703 114.28125 164.501305 114.28125 163.902344 114.28125 163.244788 114.074546 162.759767 113.661133 162.447266 113.247719 162.134764 112.630863 161.978516 111.810547 161.978516L110.003906 161.978516 110.003906 165.738281zM119.242188 168.619141C119.242188 167.043612 119.681636 165.752935 120.560547 164.74707 121.439458 163.741206 122.656893 163.238281 124.212891 163.238281 125.775398 163.238281 126.999345 163.739578 127.884766 164.742188 128.770187 165.744797 129.212891 167.037101 129.212891 168.619141L129.212891 168.824219C129.212891 170.412768 128.771814 171.706701 127.889648 172.706055 127.007483 173.705409 125.788419 174.205078 124.232422 174.205078 122.669914 174.205078 121.447596 173.705409 120.56543 172.706055 119.683264 171.706701 119.242188 170.412768 119.242188 168.824219L119.242188 168.619141zM122.083984 168.824219C122.083984 169.787765 122.253254 170.560869 122.591797 171.143555 122.93034 171.72624 123.47721 172.017578 124.232422 172.017578 124.968103 172.017578 125.506834 171.724612 125.848633 171.138672 126.190431 170.552731 126.361328 169.781255 126.361328 168.824219L126.361328 168.619141C126.361328 167.681636 126.188804 166.91667 125.84375 166.324219 125.498696 165.731768 124.955082 165.435547 124.212891 165.435547 123.47721 165.435547 122.938478 165.733395 122.59668 166.329102 122.254881 166.924808 122.083984 167.688146 122.083984 168.619141L122.083984 168.824219zM133.96875 174L131.117188 174 131.117188 158.765625 133.96875 158.765625 133.96875 174zM135.873047 168.804688C135.873047 167.138013 136.232744 165.793625 136.952148 164.771484 137.671553 163.749344 138.68554 163.238281 139.994141 163.238281 140.521487 163.238281 140.996743 163.352212 141.419922 163.580078 141.843101 163.807944 142.214191 164.133461 142.533203 164.556641L142.533203 158.765625 145.394531 158.765625 145.394531 174 142.962891 174 142.71875 172.701172C142.386717 173.189456 141.992841 173.562173 141.537109 173.819336 141.081378 174.076499 140.56055 174.205078 139.974609 174.205078 138.67903 174.205078 137.671553 173.729822 136.952148 172.779297 136.232744 171.828771 135.873047 170.572273 135.873047 169.009766L135.873047 168.804688zM138.714844 169.009766C138.714844 169.934249 138.871092 170.661781 139.183594 171.192383 139.496095 171.722984 140.003903 171.988281 140.707031 171.988281 141.11719 171.988281 141.475259 171.905274 141.78125 171.739258 142.087241 171.573241 142.33789 171.330731 142.533203 171.011719L142.533203 166.509766C142.33789 166.177733 142.088869 165.918946 141.786133 165.733398 141.483397 165.547851 141.13021 165.455078 140.726562 165.455078 140.029944 165.455078 139.520509 165.76432 139.198242 166.382812 138.875975 167.001305 138.714844 167.808589 138.714844 168.804688L138.714844 169.009766z"/>
  </g>
</svg>
