<svg xmlns="http://www.w3.org/2000/svg" width="360" height="240" viewBox="0 0 360 240"><g fill="#4A4A4F" fill-rule="evenodd"><path d="M43.36 74.92h-4.93V81h-.53V66.78h4.54c.67 0 1.3.1 1.87.27.57.18 1.07.44 1.48.8.41.34.74.77.97 1.28.23.5.34 1.09.34 1.75a3.95 3.95 0 0 1-3.2 3.9l3.8 6.08V81h-.56l-3.78-6.08zm-4.93-.53h4.48a4 4 0 0 0 1.6-.3 3.37 3.37 0 0 0 1.84-1.91c.15-.42.23-.85.23-1.3 0-.56-.1-1.06-.3-1.5-.2-.44-.47-.82-.83-1.12-.36-.31-.8-.54-1.3-.7a5.58 5.58 0 0 0-1.71-.25h-4v7.08zm11.53 1.12c0-.77.12-1.48.34-2.13a5 5 0 0 1 .95-1.66 4.3 4.3 0 0 1 3.33-1.48 4.24 4.24 0 0 1 3.35 1.48c.4.46.72 1.02.95 1.66.22.65.33 1.36.33 2.13v.41c0 .78-.1 1.49-.33 2.13-.22.65-.53 1.2-.94 1.67a4.3 4.3 0 0 1-3.34 1.48 4.3 4.3 0 0 1-3.35-1.48 5 5 0 0 1-.95-1.67 6.43 6.43 0 0 1-.34-2.13v-.4zm.53.41c0 .63.1 1.24.28 1.8.19.58.45 1.09.8 1.52a3.8 3.8 0 0 0 3.03 1.43 3.74 3.74 0 0 0 3-1.43c.35-.43.62-.94.8-1.51.2-.57.29-1.18.29-1.8v-.42c0-.62-.1-1.21-.28-1.78a4.76 4.76 0 0 0-.8-1.51c-.36-.44-.79-.8-1.3-1.06a3.7 3.7 0 0 0-1.73-.4 3.7 3.7 0 0 0-3 1.46c-.36.44-.62.94-.8 1.5a5.72 5.72 0 0 0-.29 1.8v.4zm19.36-.1c0 .8-.1 1.54-.27 2.2a5.24 5.24 0 0 1-.78 1.7c-.34.47-.75.83-1.24 1.09-.5.26-1.05.39-1.68.39a4.85 4.85 0 0 1-2.2-.54 3.75 3.75 0 0 1-1.4-1.33V81h-.53V66h.53v6.36c.17-.32.37-.61.6-.87a3.58 3.58 0 0 1 1.8-1.1c.36-.1.75-.15 1.18-.15a3.48 3.48 0 0 1 2.93 1.44 5 5 0 0 1 .79 1.68c.18.67.27 1.42.27 2.25v.2zm-.55-.21c0-.7-.07-1.35-.2-1.94-.15-.6-.36-1.1-.64-1.54a3.06 3.06 0 0 0-1.07-1 3.9 3.9 0 0 0-2.98-.11 3.35 3.35 0 0 0-1.73 1.51c-.17.32-.3.64-.4.95v4.84c.12.34.29.65.5.93a3.3 3.3 0 0 0 1.79 1.24c.4.12.83.18 1.32.18.58 0 1.08-.12 1.5-.36a3 3 0 0 0 1.07-1.01c.28-.44.5-.95.63-1.54.14-.6.21-1.24.21-1.95v-.2zm2.62-.1c0-.77.11-1.48.33-2.13a5 5 0 0 1 .95-1.66 4.3 4.3 0 0 1 3.34-1.48 4.24 4.24 0 0 1 3.35 1.48c.4.46.71 1.02.94 1.66.22.65.34 1.36.34 2.13v.41c0 .78-.11 1.49-.34 2.13-.22.65-.53 1.2-.94 1.67a4.3 4.3 0 0 1-3.33 1.48 4.3 4.3 0 0 1-3.35-1.48 5 5 0 0 1-.96-1.67 6.43 6.43 0 0 1-.33-2.13v-.4zm.53.41c0 .63.09 1.24.27 1.8.19.58.46 1.09.8 1.52a3.8 3.8 0 0 0 3.03 1.43 3.74 3.74 0 0 0 3.01-1.43c.35-.43.61-.94.8-1.51.19-.57.28-1.18.28-1.8v-.42c0-.62-.1-1.21-.28-1.78a4.76 4.76 0 0 0-.8-1.51c-.36-.44-.79-.8-1.3-1.06a3.7 3.7 0 0 0-1.72-.4 3.7 3.7 0 0 0-3.02 1.46c-.34.44-.61.94-.8 1.5a5.72 5.72 0 0 0-.27 1.8v.4zm12.46-8.34v2.85h2.4v.54h-2.4v7.5c0 .46.04.84.12 1.12.09.29.2.51.35.67.15.16.32.27.5.32.2.06.4.09.62.09a5.24 5.24 0 0 0 1.04-.09l.1.5-.26.06a7.8 7.8 0 0 1-.85.06 3 3 0 0 1-.91-.13 1.5 1.5 0 0 1-.68-.44c-.19-.2-.33-.49-.42-.84-.1-.35-.15-.8-.15-1.32v-7.5h-1.95v-.54h1.95v-2.85h.54zm4.15 7.93c0-.77.1-1.48.33-2.13a5 5 0 0 1 .95-1.66 4.3 4.3 0 0 1 3.34-1.48 4.24 4.24 0 0 1 3.35 1.48c.4.46.71 1.02.94 1.66.22.65.33 1.36.33 2.13v.41c0 .78-.1 1.49-.33 2.13-.22.65-.53 1.2-.94 1.67a4.3 4.3 0 0 1-3.33 1.48 4.3 4.3 0 0 1-3.35-1.48 5 5 0 0 1-.96-1.67 6.43 6.43 0 0 1-.33-2.13v-.4zm.52.41c0 .63.1 1.24.28 1.8.19.58.46 1.09.8 1.52a3.8 3.8 0 0 0 3.03 1.43 3.74 3.74 0 0 0 3-1.43c.36-.43.62-.94.8-1.51.2-.57.29-1.18.29-1.8v-.42c0-.62-.1-1.21-.28-1.78a4.76 4.76 0 0 0-.8-1.51c-.36-.44-.79-.8-1.3-1.06a3.7 3.7 0 0 0-1.72-.4 3.7 3.7 0 0 0-3.02 1.46c-.35.44-.61.94-.8 1.5a5.72 5.72 0 0 0-.28 1.8v.4zm16.88 4.55h7.3V81h-7.84V66.78h.54v13.7zm10.17.53h-.53V70.43h.53V81zm-.8-13.87c0-.15.05-.28.15-.38.1-.11.23-.16.38-.16s.28.05.39.16c.1.1.16.23.16.38s-.06.28-.16.38c-.11.1-.24.16-.39.16a.52.52 0 0 1-.38-.16.52.52 0 0 1-.16-.38zm3.76 8.48c0-.83.1-1.58.27-2.25a5 5 0 0 1 .78-1.69 3.48 3.48 0 0 1 2.94-1.43 4.32 4.32 0 0 1 2.18.59c.3.18.56.4.8.67.22.26.42.55.6.87v-1.94h.53v10.42c0 .68-.1 1.3-.27 1.83-.19.55-.45 1.01-.8 1.4-.34.37-.76.67-1.25.87-.5.2-1.05.3-1.67.3a4.3 4.3 0 0 1-2.03-.49 4.1 4.1 0 0 1-1.43-1.28l.37-.35c.41.52.86.92 1.35 1.2.49.27 1.06.41 1.72.41.57 0 1.07-.1 1.5-.27.44-.19.8-.45 1.1-.78.29-.34.5-.75.65-1.23.15-.48.22-1.01.22-1.6v-1.53a3.87 3.87 0 0 1-2.39 1.72c-.36.1-.77.15-1.2.15a3.54 3.54 0 0 1-2.92-1.48 5.24 5.24 0 0 1-.78-1.7 8.42 8.42 0 0 1-.27-2.2v-.21zm.54.2c0 .7.07 1.36.21 1.95.14.59.35 1.1.64 1.54.28.43.63.77 1.06 1 .43.25.93.37 1.5.37.5 0 .95-.06 1.34-.18.39-.12.73-.29 1.03-.5.3-.21.55-.46.76-.75.2-.28.37-.6.48-.94v-4.79c-.1-.31-.23-.63-.4-.96a3.3 3.3 0 0 0-1.7-1.53 3.86 3.86 0 0 0-3 .1c-.43.25-.8.58-1.07 1.01-.29.43-.5.94-.64 1.54-.14.59-.2 1.24-.2 1.94v.2zm11.46-2.92a4.91 4.91 0 0 1 1.44-1.89 3.98 3.98 0 0 1 3.73-.54c.42.14.77.38 1.06.7.28.3.5.71.65 1.2.15.5.23 1.1.23 1.8V81h-.53v-6.84c0-.67-.07-1.22-.21-1.66a2.57 2.57 0 0 0-.6-1.05 2.09 2.09 0 0 0-.9-.54 4.04 4.04 0 0 0-2.2 0 3.31 3.31 0 0 0-1.56 1.07 4.57 4.57 0 0 0-.89 1.52c-.1.26-.17.5-.22.73V81h-.53V66h.53v6.9zm11.6-5.3v2.84h2.4v.54h-2.4v7.5c0 .46.04.84.12 1.12.09.29.2.51.35.67.15.16.32.27.5.32.2.06.4.09.62.09a5.24 5.24 0 0 0 1.04-.09l.1.5-.26.06a7.8 7.8 0 0 1-.85.06 3 3 0 0 1-.91-.13 1.5 1.5 0 0 1-.68-.44c-.18-.2-.33-.49-.42-.84-.1-.35-.15-.8-.15-1.32v-7.5h-1.95v-.54h1.95v-2.85h.54zM42.87 106.24h-3.34V112h-1.89V97.78h4.7c1.6 0 2.84.37 3.7 1.1.87.72 1.3 1.79 1.3 3.18 0 .88-.24 1.66-.72 2.31a4.28 4.28 0 0 1-2 1.48l3.34 6.03v.12h-2l-3.1-5.75zm-3.34-1.54h2.88c.5 0 .95-.07 1.33-.2.38-.15.7-.33.95-.57.26-.24.45-.52.57-.84a3.29 3.29 0 0 0 .01-2.16 2.2 2.2 0 0 0-.56-.86 2.55 2.55 0 0 0-.97-.56c-.39-.13-.85-.2-1.4-.2h-2.81v5.4zm9.67 1.9c0-.76.12-1.47.34-2.12.22-.66.54-1.23.96-1.7a4.38 4.38 0 0 1 3.5-1.55 4.42 4.42 0 0 1 3.54 1.54c.41.48.73 1.05.95 1.7.22.66.33 1.37.33 2.14v.21c0 .77-.1 1.48-.33 2.14a4.99 4.99 0 0 1-.96 1.7 4.4 4.4 0 0 1-1.51 1.12c-.6.27-1.26.4-2 .4s-1.41-.13-2-.4a4.4 4.4 0 0 1-1.52-1.12 5.05 5.05 0 0 1-.96-1.7 6.53 6.53 0 0 1-.34-2.14v-.21zm1.82.22c0 .53.06 1.03.19 1.5.12.47.3.88.56 1.23a2.66 2.66 0 0 0 2.25 1.16 2.66 2.66 0 0 0 2.24-1.16c.25-.35.44-.76.57-1.23.12-.47.19-.97.19-1.5v-.21c0-.52-.07-1.02-.2-1.49a3.87 3.87 0 0 0-.56-1.24 2.65 2.65 0 0 0-2.26-1.17 2.58 2.58 0 0 0-2.23 1.17 3.8 3.8 0 0 0-.56 1.24c-.13.47-.19.97-.19 1.49v.21zm19.01 0c0 .78-.09 1.5-.27 2.15a5.2 5.2 0 0 1-.8 1.7 3.68 3.68 0 0 1-3.03 1.52c-.7 0-1.3-.13-1.8-.37-.51-.25-.94-.6-1.3-1.05l-.08 1.22h-1.66V97h1.8v5.6a3.58 3.58 0 0 1 3.02-1.36 3.64 3.64 0 0 1 3.05 1.49c.35.47.62 1.04.8 1.7.18.66.27 1.4.27 2.2v.2zm-1.8-.2c0-.53-.05-1.02-.15-1.49-.1-.47-.26-.87-.47-1.23-.22-.35-.5-.63-.86-.83-.35-.2-.78-.3-1.29-.3a2.59 2.59 0 0 0-2.17 1c-.15.2-.28.42-.4.65V109c.12.24.26.45.42.66a2.68 2.68 0 0 0 1.27.88 2.97 2.97 0 0 0 2.15-.18c.35-.2.63-.48.85-.82.22-.35.39-.75.49-1.22.1-.46.16-.96.16-1.49v-.2zm3.6-.01c0-.77.11-1.48.34-2.13.22-.66.54-1.23.95-1.7a4.38 4.38 0 0 1 3.5-1.55 4.42 4.42 0 0 1 3.54 1.54c.42.48.74 1.05.96 1.7.22.66.33 1.37.33 2.14v.21c0 .77-.11 1.48-.33 2.14a4.99 4.99 0 0 1-.96 1.7 4.4 4.4 0 0 1-1.51 1.12c-.6.27-1.26.4-2 .4a4.4 4.4 0 0 1-3.52-1.53 5.05 5.05 0 0 1-.96-1.7 6.53 6.53 0 0 1-.34-2.13v-.21zm1.82.21c0 .53.06 1.03.18 1.5.13.47.31.88.56 1.23a2.66 2.66 0 0 0 2.25 1.16 2.66 2.66 0 0 0 2.25-1.16c.25-.35.44-.76.56-1.23.13-.47.2-.97.2-1.5v-.21c0-.52-.07-1.02-.2-1.49a3.87 3.87 0 0 0-.56-1.24 2.65 2.65 0 0 0-2.26-1.17 2.58 2.58 0 0 0-2.24 1.17 3.8 3.8 0 0 0-.56 1.24c-.12.47-.18.97-.18 1.49v.21zm12.52-7.95v2.55h1.97v1.4h-1.97v6.55c0 .28.03.5.1.66.06.17.15.3.25.39.11.09.23.15.37.18a2.73 2.73 0 0 0 .9 0l.4-.07V112a4.3 4.3 0 0 1-1.39.2c-.33 0-.65-.05-.94-.15a1.9 1.9 0 0 1-.78-.47c-.22-.22-.4-.51-.53-.87-.13-.37-.2-.81-.2-1.34v-6.54h-1.91v-1.4h1.92v-2.56h1.8zm3.4 7.74c0-.77.12-1.48.34-2.13.23-.66.54-1.23.96-1.7a4.38 4.38 0 0 1 3.5-1.55 4.42 4.42 0 0 1 3.54 1.54c.41.48.73 1.05.95 1.7.22.66.33 1.37.33 2.14v.21c0 .77-.1 1.48-.33 2.14a4.99 4.99 0 0 1-.96 1.7 4.4 4.4 0 0 1-1.5 1.12c-.6.27-1.27.4-2.01.4a4.4 4.4 0 0 1-3.52-1.53 5.05 5.05 0 0 1-.96-1.7 6.53 6.53 0 0 1-.34-2.13v-.21zm1.82.21c0 .53.06 1.03.19 1.5.12.47.3.88.56 1.23a2.66 2.66 0 0 0 2.25 1.16 2.66 2.66 0 0 0 2.24-1.16c.25-.35.44-.76.57-1.23.12-.47.19-.97.19-1.5v-.21c0-.52-.07-1.02-.2-1.49a3.87 3.87 0 0 0-.56-1.24 2.65 2.65 0 0 0-2.26-1.17 2.58 2.58 0 0 0-2.23 1.17 3.8 3.8 0 0 0-.56 1.24c-.13.47-.19.97-.19 1.49v.21zm20.52-.58h-3.34V112h-1.89V97.78h4.71c1.6 0 2.83.37 3.7 1.1.86.72 1.3 1.79 1.3 3.18 0 .88-.25 1.66-.73 2.31a4.28 4.28 0 0 1-2 1.48l3.35 6.03v.12h-2.02l-3.08-5.75zm-3.34-1.54h2.88c.5 0 .95-.07 1.33-.2.38-.15.7-.33.95-.57.26-.24.45-.52.58-.84a3.29 3.29 0 0 0 .01-2.16 2.2 2.2 0 0 0-.57-.86 2.55 2.55 0 0 0-.96-.56c-.4-.13-.86-.2-1.4-.2h-2.82v5.4zm14.54 7.49c-.74 0-1.4-.13-2-.39a4.46 4.46 0 0 1-2.5-2.67 5.95 5.95 0 0 1-.34-2.05v-.41c0-.86.12-1.63.38-2.3.26-.68.6-1.25 1.03-1.72a4.45 4.45 0 0 1 5.16-1.03c.54.27 1 .63 1.35 1.1.36.45.62 1 .79 1.63.17.63.25 1.32.25 2.06v.81h-7.16c.02.5.1.95.24 1.37.15.42.36.8.63 1.1a2.97 2.97 0 0 0 2.27 1.02c.64 0 1.18-.13 1.62-.39.44-.26.83-.6 1.16-1.04l1.1.86a4.83 4.83 0 0 1-1.46 1.42c-.32.19-.69.34-1.1.45-.42.12-.9.18-1.42.18zm-.23-9.48a2.49 2.49 0 0 0-1.82.78c-.24.26-.44.57-.6.95a4.8 4.8 0 0 0-.33 1.3h5.3v-.14a5 5 0 0 0-.18-1.04c-.1-.35-.24-.66-.44-.93s-.45-.5-.76-.66c-.32-.17-.7-.26-1.17-.26zm6.01 3.9c0-.8.1-1.53.29-2.2.2-.65.47-1.22.83-1.7.36-.46.8-.83 1.31-1.1a3.8 3.8 0 0 1 1.74-.38 3.54 3.54 0 0 1 3.02 1.37l.09-1.18h1.65v10.35c0 .7-.11 1.31-.33 1.86a3.81 3.81 0 0 1-2.34 2.23 5.37 5.37 0 0 1-3.83-.1c-.36-.15-.71-.33-1.04-.57a3.37 3.37 0 0 1-.85-.87l.94-1.08a4.24 4.24 0 0 0 1.39 1.12 3.19 3.19 0 0 0 1.45.32c.42 0 .8-.06 1.15-.19a2.33 2.33 0 0 0 1.44-1.42c.13-.35.2-.75.2-1.22v-.91c-.35.4-.77.7-1.25.92a4.18 4.18 0 0 1-3.42-.08 3.87 3.87 0 0 1-1.31-1.11 5.31 5.31 0 0 1-.84-1.7c-.2-.66-.29-1.37-.29-2.15v-.2zm1.82.21c0 .53.05 1.03.16 1.5.1.46.27.86.5 1.2.22.35.5.63.86.83a2.97 2.97 0 0 0 2.12.19 2.6 2.6 0 0 0 1.65-1.44v-4.82a3.62 3.62 0 0 0-.41-.6 2.56 2.56 0 0 0-2.08-.92c-.5 0-.92.1-1.27.3-.35.21-.64.5-.87.84-.23.36-.4.76-.5 1.23-.1.47-.16.96-.16 1.49v.2zm16.35 4.13c-.33.39-.75.69-1.26.9-.5.23-1.12.34-1.83.34-.52 0-1-.08-1.42-.22a2.76 2.76 0 0 1-1.1-.7c-.3-.31-.53-.72-.7-1.22-.17-.5-.25-1.1-.25-1.8v-6.83h1.8v6.85c0 .47.06.87.17 1.18.12.3.26.55.44.73.19.18.4.3.63.37a3.3 3.3 0 0 0 2.5-.32c.44-.28.77-.65.98-1.12v-7.69h1.8V112h-1.72l-.04-1.04zm6.47 1.04h-1.8V97h1.8v15zm9.41 0c-.06-.13-.11-.3-.15-.5l-.1-.61a4.81 4.81 0 0 1-1.27.92 3.95 3.95 0 0 1-1.74.39 4.2 4.2 0 0 1-1.47-.25 3.42 3.42 0 0 1-1.12-.66 2.93 2.93 0 0 1-.97-2.22 2.99 2.99 0 0 1 1.28-2.59c.41-.3.91-.51 1.5-.66a7.93 7.93 0 0 1 1.96-.23h1.8v-.83c0-.63-.19-1.13-.57-1.5-.37-.38-.93-.57-1.67-.57-.33 0-.64.05-.92.14-.28.1-.52.21-.72.37-.2.15-.35.33-.47.53-.1.2-.16.41-.16.63h-1.82c0-.37.1-.75.3-1.12.2-.37.48-.7.84-1a5.1 5.1 0 0 1 3.06-1c.57 0 1.1.07 1.59.22a3.07 3.07 0 0 1 2.06 1.77c.19.44.29.96.29 1.55v4.92c0 .35.03.73.09 1.12.06.4.15.74.28 1.02v.16h-1.9zm-3-1.38a3.01 3.01 0 0 0 1.7-.49 2.9 2.9 0 0 0 1.02-1.09v-2.17h-1.5c-1.04 0-1.84.16-2.4.49-.56.32-.84.8-.84 1.46 0 .25.05.49.13.7.09.23.21.42.39.58.17.16.38.29.63.38.25.1.54.14.88.14zm12.47-7.57a4.78 4.78 0 0 0-.9-.06c-.62 0-1.13.13-1.52.4-.4.28-.69.65-.88 1.11v7.5h-1.81v-10.57h1.76l.03 1.22a2.78 2.78 0 0 1 3.32-1.28v1.68zM42.67 136.52h-2.75V142h-2.47v-14.22h5c.8 0 1.54.1 2.17.28.64.19 1.18.46 1.62.82.44.36.77.8 1 1.34.23.54.34 1.15.34 1.86a4 4 0 0 1-.69 2.39 4.38 4.38 0 0 1-1.92 1.48l3.2 5.92v.13h-2.65l-2.85-5.48zm-2.75-1.98h2.54c.44 0 .83-.06 1.16-.18.33-.11.6-.28.83-.49a2 2 0 0 0 .5-.74 2.97 2.97 0 0 0 .01-1.94 1.97 1.97 0 0 0-1.3-1.25 3.77 3.77 0 0 0-1.21-.17h-2.53v4.77zm9.33 2.08c0-.77.11-1.48.34-2.13.22-.66.55-1.23.97-1.7.42-.5.93-.87 1.53-1.14.6-.28 1.3-.41 2.06-.41.78 0 1.47.13 2.08.4a4.4 4.4 0 0 1 1.55 1.14 5 5 0 0 1 .96 1.7c.23.66.34 1.37.34 2.14v.2c0 .77-.11 1.49-.34 2.14a4.94 4.94 0 0 1-.96 1.7 4.4 4.4 0 0 1-1.54 1.13c-.6.27-1.3.4-2.07.4-.77 0-1.46-.13-2.07-.4a4.4 4.4 0 0 1-1.54-1.12 5 5 0 0 1-.97-1.7 6.58 6.58 0 0 1-.34-2.15v-.2zm2.38.2c0 .48.04.93.14 1.35.1.43.25.8.46 1.11.2.32.47.57.8.75.32.18.7.27 1.14.27.44 0 .82-.09 1.14-.27.32-.18.59-.43.8-.75.2-.32.35-.68.45-1.1.1-.43.15-.88.15-1.36v-.2c0-.47-.05-.91-.15-1.33-.1-.42-.25-.8-.46-1.1a2.23 2.23 0 0 0-1.94-1.04 2.18 2.18 0 0 0-1.93 1.03c-.2.32-.36.69-.46 1.1-.1.43-.15.87-.15 1.34v.2zm18.73 0c0 .79-.1 1.5-.27 2.16a5.18 5.18 0 0 1-.79 1.7 3.65 3.65 0 0 1-3.07 1.52 3.39 3.39 0 0 1-2.9-1.34l-.1 1.14h-2.15v-15h2.37v5.45a3.4 3.4 0 0 1 2.76-1.21 3.65 3.65 0 0 1 3.1 1.5c.34.48.6 1.05.78 1.7.18.67.27 1.4.27 2.18v.2zm-2.38-.2c0-.46-.04-.9-.11-1.32-.07-.42-.2-.78-.39-1.1a2.1 2.1 0 0 0-.72-.74c-.3-.19-.69-.28-1.14-.28-.55 0-1 .12-1.36.37-.35.24-.62.57-.8.98v4.35c.18.41.45.75.8 1 .36.25.82.38 1.38.38.43 0 .8-.09 1.1-.27.3-.18.54-.42.73-.73.19-.3.32-.67.4-1.09.07-.41.11-.86.11-1.35v-.2zm3.92 0c0-.77.11-1.48.34-2.13.22-.66.54-1.23.96-1.7.42-.5.93-.87 1.54-1.14.6-.28 1.3-.41 2.06-.41.78 0 1.47.13 2.08.4a4.4 4.4 0 0 1 1.55 1.14 5 5 0 0 1 .96 1.7c.22.66.33 1.37.33 2.14v.2c0 .77-.1 1.49-.33 2.14a4.94 4.94 0 0 1-.96 1.7 4.4 4.4 0 0 1-1.54 1.13c-.61.27-1.3.4-2.07.4-.77 0-1.47-.13-2.07-.4a4.4 4.4 0 0 1-1.55-1.12 5 5 0 0 1-.96-1.7 6.58 6.58 0 0 1-.34-2.15v-.2zm2.37.2c0 .48.05.93.15 1.35.1.43.25.8.46 1.11.2.32.47.57.8.75.32.18.7.27 1.14.27.44 0 .82-.09 1.14-.27.32-.18.58-.43.79-.75.2-.32.36-.68.46-1.1.1-.43.15-.88.15-1.36v-.2c0-.47-.05-.91-.15-1.33-.1-.42-.26-.8-.47-1.1a2.23 2.23 0 0 0-1.94-1.04 2.18 2.18 0 0 0-1.92 1.03c-.21.32-.36.69-.46 1.1-.1.43-.15.87-.15 1.34v.2zm12.43-7.95v2.56h1.87v1.76H86.7v5.9c0 .24.03.44.08.59.05.15.13.26.23.34.1.08.2.14.34.17s.28.04.45.04a3.21 3.21 0 0 0 .83-.1v1.84l-.66.15a4.8 4.8 0 0 1-2-.08 2.16 2.16 0 0 1-1.43-1.43 4.1 4.1 0 0 1-.21-1.38v-6.04h-1.74v-1.76h1.74v-2.56h2.37zm2.94 7.75c0-.77.11-1.48.34-2.13.22-.66.55-1.23.97-1.7.42-.5.93-.87 1.53-1.14.61-.28 1.3-.41 2.06-.41.78 0 1.47.13 2.08.4a4.4 4.4 0 0 1 1.55 1.14 5 5 0 0 1 .96 1.7c.23.66.34 1.37.34 2.14v.2c0 .77-.11 1.49-.34 2.14a4.94 4.94 0 0 1-.96 1.7 4.4 4.4 0 0 1-1.54 1.13c-.6.27-1.3.4-2.07.4-.77 0-1.46-.13-2.07-.4a4.4 4.4 0 0 1-1.54-1.12 5 5 0 0 1-.97-1.7 6.58 6.58 0 0 1-.34-2.15v-.2zm2.38.2c0 .48.04.93.14 1.35.1.43.25.8.46 1.11.2.32.47.57.8.75.32.18.7.27 1.14.27.44 0 .82-.09 1.14-.27.32-.18.59-.43.8-.75.2-.32.35-.68.45-1.1.1-.43.15-.88.15-1.36v-.2c0-.47-.05-.91-.15-1.33-.1-.42-.25-.8-.46-1.1a2.23 2.23 0 0 0-1.94-1.04 2.18 2.18 0 0 0-1.93 1.03c-.2.32-.36.69-.46 1.1-.1.43-.14.87-.14 1.34v.2zm17.87-9.04l4.1 10.9 4.09-10.9h3.2V142h-2.47v-4.69l.25-6.27-4.2 10.96h-1.77l-4.19-10.95.24 6.26V142h-2.46v-14.22h3.2zm18.73 14.42c-.78 0-1.49-.13-2.11-.4a4.64 4.64 0 0 1-2.6-2.7 5.71 5.71 0 0 1-.35-2.01v-.4c0-.83.12-1.58.37-2.25.25-.68.59-1.25 1.02-1.72a4.48 4.48 0 0 1 3.4-1.48c.76 0 1.43.13 2 .38.56.26 1.03.62 1.4 1.08.37.47.65 1.02.83 1.65.18.64.28 1.34.28 2.1v1.02h-6.9c.02.4.11.79.25 1.13a2.63 2.63 0 0 0 2.54 1.7 3.16 3.16 0 0 0 2.66-1.32l1.28 1.22a4.34 4.34 0 0 1-2.65 1.82c-.42.12-.9.18-1.42.18zm-.29-9.06a2 2 0 0 0-1.57.69c-.4.45-.66 1.09-.77 1.9h4.52v-.18a4.33 4.33 0 0 0-.15-.9 2.3 2.3 0 0 0-.38-.77c-.16-.22-.38-.4-.65-.54-.27-.13-.6-.2-1-.2zm5.92 3.5c0-.8.1-1.53.29-2.2.2-.66.47-1.23.83-1.7.36-.48.8-.85 1.31-1.11a3.8 3.8 0 0 1 1.74-.4 3.42 3.42 0 0 1 2.71 1.17v-5.4h2.38v15h-2.15l-.12-1.1c-.33.42-.74.73-1.2.96-.47.22-1.01.34-1.64.34a3.63 3.63 0 0 1-3.03-1.53 5.31 5.31 0 0 1-.83-1.7c-.19-.65-.29-1.36-.29-2.13v-.2zm2.38.2c0 .47.04.91.13 1.33.08.41.22.77.42 1.09.19.3.43.55.73.73.3.18.67.27 1.1.27.53 0 .97-.12 1.31-.35.34-.24.61-.56.82-.95v-4.5c-.2-.4-.48-.7-.82-.94a2.3 2.3 0 0 0-1.3-.34c-.42 0-.79.1-1.1.28-.3.18-.54.42-.73.74-.2.31-.34.68-.43 1.1-.09.42-.13.86-.13 1.34v.2zM148.5 142h-2.37v-10.57h2.37V142zm-2.52-13.31c0-.37.12-.67.35-.9.23-.25.56-.37.99-.37.43 0 .76.12 1 .36.23.24.35.54.35.9 0 .37-.12.67-.36.9-.23.24-.56.36-1 .36-.42 0-.75-.12-.98-.36a1.23 1.23 0 0 1-.35-.9zm11.5 12.27c-.33.4-.74.7-1.23.91a4.3 4.3 0 0 1-1.73.33c-.53 0-1-.08-1.43-.22-.42-.15-.79-.38-1.1-.7a3.2 3.2 0 0 1-.7-1.22 5.6 5.6 0 0 1-.26-1.79v-6.84h2.37v6.86c0 .38.05.7.14.95.09.25.21.45.37.6.15.16.33.27.53.33s.41.1.63.1c.61 0 1.1-.12 1.49-.34.37-.22.66-.52.85-.9v-7.6h2.37V142h-2.24l-.06-1.04zm6.95-9.53l.07 1.1c.35-.4.78-.72 1.28-.95.5-.23 1.1-.34 1.76-.34.65 0 1.22.13 1.73.38.5.26.9.67 1.17 1.24.35-.5.8-.89 1.34-1.18.53-.3 1.17-.44 1.9-.44.55 0 1.04.07 1.47.22.43.14.8.38 1.09.7.3.3.52.71.68 1.2.16.5.24 1.1.24 1.8V142h-2.37v-6.86c0-.39-.05-.7-.13-.96a1.42 1.42 0 0 0-.38-.6 1.38 1.38 0 0 0-.6-.31 3.2 3.2 0 0 0-.79-.09c-.54 0-.98.15-1.32.44a2.3 2.3 0 0 0-.72 1.13v.1l.01.1V142h-2.37v-6.83c0-.37-.04-.68-.13-.93a1.5 1.5 0 0 0-.38-.62 1.46 1.46 0 0 0-.6-.34c-.24-.06-.5-.1-.8-.1-.5 0-.92.1-1.25.31-.33.21-.58.5-.77.85V142h-2.37v-10.57h2.24zM42.54 167.8H40.2V173h-2.93v-14.22h5.28c.82 0 1.56.1 2.21.28.65.19 1.2.46 1.65.82.45.36.8.8 1.04 1.34s.36 1.15.36 1.86c0 .52-.06.99-.18 1.4a3.73 3.73 0 0 1-1.3 1.95c-.32.24-.67.45-1.06.62l3.07 5.81v.14H45.2l-2.67-5.2zm-2.34-2.37h2.36c.39 0 .72-.05 1.01-.15a1.8 1.8 0 0 0 1.16-1.1c.1-.25.15-.54.15-.86 0-.67-.2-1.2-.57-1.58-.39-.38-.97-.58-1.76-.58H40.2v4.27zm9.2 2.2c0-.77.12-1.48.34-2.14a4.45 4.45 0 0 1 2.53-2.83 5.23 5.23 0 0 1 2.13-.41c.8 0 1.51.13 2.14.4a4.5 4.5 0 0 1 2.55 2.84c.22.66.33 1.37.33 2.14v.2c0 .78-.11 1.5-.33 2.15a4.46 4.46 0 0 1-2.54 2.82c-.62.27-1.33.4-2.13.4a5.3 5.3 0 0 1-2.14-.4 4.45 4.45 0 0 1-2.54-2.82 6.65 6.65 0 0 1-.33-2.15v-.2zm2.83.2c0 .43.04.84.12 1.22.08.37.2.7.37.98.18.27.4.5.68.66.27.16.61.24 1.02.24.39 0 .72-.08 1-.24a2 2 0 0 0 .68-.66c.17-.28.3-.6.38-.98.08-.38.12-.79.12-1.22v-.2c0-.42-.04-.81-.12-1.19-.08-.37-.2-.7-.38-.98a2 2 0 0 0-.69-.68 1.96 1.96 0 0 0-1.01-.25c-.4 0-.73.09-1 .25-.28.17-.5.4-.68.68-.17.28-.3.6-.37.98a5.8 5.8 0 0 0-.12 1.19v.2zm18.45 0c0 .79-.09 1.51-.26 2.17a5.02 5.02 0 0 1-.76 1.7 3.57 3.57 0 0 1-3.1 1.5 3.4 3.4 0 0 1-1.58-.34 3.5 3.5 0 0 1-1.16-.97L63.7 173h-2.54v-15h2.82v5.38c.31-.36.68-.65 1.1-.84.42-.2.9-.3 1.47-.3a3.64 3.64 0 0 1 3.1 1.51c.35.48.6 1.04.77 1.7.17.66.26 1.38.26 2.16v.2zm-2.82-.21c0-.42-.03-.81-.1-1.19a3 3 0 0 0-.31-.98c-.15-.28-.36-.5-.62-.66-.26-.17-.6-.25-1-.25-.47 0-.86.1-1.16.3-.3.18-.53.46-.7.8v4.18c.17.35.4.62.7.82.3.2.7.29 1.18.29.4 0 .73-.08.98-.23.26-.16.47-.38.62-.65.15-.27.26-.6.32-.98s.09-.8.09-1.25v-.2zm4.12 0c0-.76.1-1.47.33-2.13a4.45 4.45 0 0 1 2.53-2.83 5.23 5.23 0 0 1 2.13-.41c.8 0 1.51.13 2.14.4a4.5 4.5 0 0 1 2.54 2.84c.23.66.34 1.37.34 2.14v.2c0 .78-.11 1.5-.34 2.15a4.46 4.46 0 0 1-2.54 2.82c-.61.27-1.32.4-2.12.4a5.3 5.3 0 0 1-2.14-.4 4.45 4.45 0 0 1-2.54-2.82 6.65 6.65 0 0 1-.33-2.15v-.2zm2.82.21c0 .43.04.84.12 1.22.07.37.2.7.37.98.17.27.4.5.68.66.27.16.61.24 1.02.24.39 0 .72-.08 1-.24a2 2 0 0 0 .68-.66c.17-.28.3-.6.38-.98.08-.38.11-.79.11-1.22v-.2c0-.42-.03-.81-.11-1.19-.08-.37-.2-.7-.38-.98a2 2 0 0 0-.69-.68 1.96 1.96 0 0 0-1.01-.25c-.4 0-.73.09-1 .25-.28.17-.5.4-.68.68-.17.28-.3.6-.37.98a5.8 5.8 0 0 0-.12 1.19v.2zm12.3-7.98v2.6h1.81v2.06h-1.8v5.28c0 .22.02.4.06.54.05.15.12.26.2.34.1.08.21.14.34.17a5.04 5.04 0 0 0 1.3-.02v2.13a6.48 6.48 0 0 1-1.7.26c-.46 0-.88-.06-1.25-.18a2.4 2.4 0 0 1-.95-.54 2.43 2.43 0 0 1-.61-.96c-.15-.4-.22-.88-.22-1.44v-5.58h-1.54v-2.07h1.54v-2.6h2.82zm2.65 7.78c0-.77.11-1.48.33-2.14a4.45 4.45 0 0 1 2.53-2.83 5.23 5.23 0 0 1 2.13-.41c.8 0 1.51.13 2.14.4a4.5 4.5 0 0 1 2.55 2.84c.22.66.33 1.37.33 2.14v.2c0 .78-.11 1.5-.33 2.15a4.46 4.46 0 0 1-2.54 2.82c-.62.27-1.33.4-2.13.4a5.3 5.3 0 0 1-2.13-.4 4.45 4.45 0 0 1-2.55-2.82 6.65 6.65 0 0 1-.33-2.15v-.2zm2.82.2c0 .43.04.84.12 1.22.08.37.2.7.38.98.17.27.4.5.67.66.28.16.62.24 1.02.24.39 0 .72-.08 1-.24a2 2 0 0 0 .68-.66c.18-.28.3-.6.38-.98.08-.38.12-.79.12-1.22v-.2c0-.42-.04-.81-.12-1.19-.08-.37-.2-.7-.38-.98a2 2 0 0 0-.68-.68 1.96 1.96 0 0 0-1.02-.25c-.39 0-.72.09-1 .25-.28.17-.5.4-.67.68-.18.28-.3.6-.38.98a5.8 5.8 0 0 0-.12 1.19v.2zm14.1 5.18v-14.22h4.97c.83 0 1.57.08 2.22.24.65.15 1.2.4 1.66.71.45.33.8.73 1.03 1.22a3.91 3.91 0 0 1-.13 3.5 3.07 3.07 0 0 1-1.54 1.24 2.97 2.97 0 0 1 2.22 2.12c.09.33.13.67.13 1.01 0 1.38-.44 2.42-1.33 3.13-.9.7-2.16 1.05-3.8 1.05h-5.44zm2.92-6.2v3.85h2.51a3 3 0 0 0 .98-.15c.27-.09.5-.22.68-.39.19-.16.32-.36.4-.58a2 2 0 0 0 .14-.74c0-.3-.04-.58-.12-.82-.07-.25-.2-.46-.36-.63a1.6 1.6 0 0 0-.65-.4c-.27-.09-.59-.13-.96-.13h-2.62zm0-2.06h2.17c.75-.01 1.3-.17 1.67-.48.37-.3.55-.73.55-1.29 0-.64-.19-1.1-.56-1.4-.38-.27-.97-.42-1.78-.42h-2.05v3.59zm9.21 2.88c0-.77.11-1.48.33-2.14a4.45 4.45 0 0 1 2.53-2.83 5.23 5.23 0 0 1 2.13-.41c.8 0 1.52.13 2.14.4a4.5 4.5 0 0 1 2.55 2.84c.22.66.33 1.37.33 2.14v.2c0 .78-.1 1.5-.33 2.15a4.46 4.46 0 0 1-2.54 2.82c-.62.27-1.33.4-2.13.4a5.3 5.3 0 0 1-2.13-.4 4.45 4.45 0 0 1-2.55-2.82 6.65 6.65 0 0 1-.33-2.15v-.2zm2.83.2c0 .43.03.84.11 1.22.08.37.2.7.38.98.17.27.4.5.67.66.28.16.62.24 1.02.24s.73-.08 1-.24a2 2 0 0 0 .68-.66c.18-.28.3-.6.38-.98.08-.38.12-.79.12-1.22v-.2c0-.42-.04-.81-.12-1.19-.08-.37-.2-.7-.38-.98a2 2 0 0 0-.68-.68 1.96 1.96 0 0 0-1.02-.25c-.39 0-.72.09-1 .25-.27.17-.5.4-.67.68-.17.28-.3.6-.38.98a5.8 5.8 0 0 0-.11 1.19v.2zm11.9 5.18h-2.83v-15h2.83v15zm1.88-5.36c0-.8.1-1.53.28-2.2a5.2 5.2 0 0 1 .8-1.7 3.65 3.65 0 0 1 3.06-1.5 3.29 3.29 0 0 1 2.55 1.15V158h2.84v15h-2.55l-.14-1.12a3.31 3.31 0 0 1-2.71 1.32 3.67 3.67 0 0 1-3.04-1.53 5.2 5.2 0 0 1-.8-1.7 7.8 7.8 0 0 1-.29-2.13v-.2zm2.83.2c0 .43.03.83.1 1.2.08.38.2.7.35.98.16.27.37.5.63.65.25.16.57.24.94.24.45 0 .83-.1 1.14-.3.3-.19.53-.46.7-.8v-4.17c-.17-.35-.4-.63-.7-.82-.3-.2-.68-.29-1.12-.29-.37 0-.69.08-.95.24a1.8 1.8 0 0 0-.63.66c-.16.28-.28.61-.35.99-.08.38-.11.78-.11 1.22v.2z"/></g></svg>