<svg xmlns="http://www.w3.org/2000/svg" style="background:#f9f9fa" viewBox="0 0 764 508"><g fill="none" fill-rule="evenodd"><g transform="translate(26 155)"><path fill="#EAEAEE" d="M52 186c0-4.42 23.06-8 51.5-8s51.5 3.58 51.5 8-23.06 8-51.5 8-51.5-3.58-51.5-8"/><path fill="#C8C8CC" d="M208 69v4"/><path stroke="#EAEAEE" stroke-linecap="round" stroke-linejoin="round" stroke-width="1.8" d="M118 84h74M26 69h40"/><path stroke="#EAEAEE" stroke-dasharray="10.8 7.2 2.7 3.6 .9 8.1" stroke-linecap="round" stroke-linejoin="round" stroke-width=".9" d="M35 64h11"/><path stroke="#EAEAEE" stroke-linecap="round" stroke-linejoin="round" stroke-width="1.8" d="M0 119h74"/><path stroke="#EAEAEE" stroke-dasharray="10.8 7.2 2.7 3.6 .9 8.1" stroke-linecap="round" stroke-linejoin="round" stroke-width=".9" d="M23 114h38"/><path stroke="#EAEAEE" stroke-linecap="round" stroke-linejoin="round" stroke-width=".9" d="M149 78h33"/><path fill="#FFFFFF" d="M163 12.1l.05-.1c-.05.02-.06.05-.04.1"/><path stroke="#EAEAEE" stroke-dasharray="10.8 7.2 2.7 3.6 .9 8.1" stroke-linecap="round" stroke-linejoin="round" stroke-width=".9" d="M99 89h113"/><path fill="#F9F9FA" d="M78.39 89s-.41 23.33-10.62 39.7C57.2 145.68 49 144.27 49 150c0 5.31 36.33 19.64 50.61 3.68C113.9 137.7 78.4 89 78.4 89"/><path fill="#FFFFFF" d="M134.95 186c-.7 0-1.35-.23-1.89-.67-.94-.77-1.64-1.34-1.14-10.55a80.93 80.93 0 0 1-16.22 1.93c-8.67 0-14.82-1.15-18.3-2.04.1 9.39-.57 9.93-1.46 10.66-.54.44-1.19.67-1.88.67-4.56 0-8.85-11.57-9.66-13.89a75.16 75.16 0 0 1-2.1-7.47c-.94.06-1.91.09-2.9.09a62.59 62.59 0 0 1-22-4.36c-5.2-2.04-11.4-5.28-11.4-9.05 0-3.63 2.3-5.39 5.02-7.35l.2-2.45a3.61 3.61 0 0 1 3.88-3.3l2.62.2c.91-.93 1.8-1.91 2.69-2.97l-.95-3.1a3.6 3.6 0 0 1 2.38-4.49l4.75-1.46c.6-1.11 1.2-2.3 1.77-3.55l-2.09-3.45a3.6 3.6 0 0 1 1.21-4.94l4.86-2.95c.74-2.77 1.37-5.7 1.87-8.69.02-10.63.97-18.49 2.83-23.4l-.09-.28a2.36 2.36 0 0 1 1.55-2.96l.1-.03a40.8 40.8 0 0 1 6.02-8.16l.06-2.62a2.37 2.37 0 0 1 2.36-2.3l2.85.06a62.48 62.48 0 0 1 8.63-5.83l1.17-4.3a2.36 2.36 0 0 1 2.9-1.65l5.54 1.52C113.3 50.99 118.2 50 122.35 50c.55 0 1.1.02 1.62.05 9.6.67 24.24 13.96 29.7 19.24.64.08 1.23.35 1.7.8.17.17 4.65 4.38 8.2 9.22 3.7 4 6.05 7.86 6.98 11.48 1.74 6.8-1.92 15.5-5.08 19.5-4.01 5.07-8.08 7.38-14.5 8.23-.36.05-.72.1-1.1.12a4.82 4.82 0 0 1-.3 5.93c.5 6.32.68 12.71.52 19-.33 13.14-3.22 22-4.5 25.3a47.7 47.7 0 0 1-1 3.24c-.81 2.32-5.1 13.89-9.64 13.89"/><path fill="#FFFFFF" d="M122.87 48c-4.23 0-9.16.95-14.33 2.76l-4.84-1.33a4.75 4.75 0 0 0-5.82 3.32l-.91 3.36a65 65 0 0 0-7.43 5.02l-1.94-.04h-.1a4.73 4.73 0 0 0-4.74 4.63l-.04 1.73a43.13 43.13 0 0 0-5.35 7.25A4.72 4.72 0 0 0 75 79.75c-1.78 5.19-2.7 13.02-2.72 23.34a95.33 95.33 0 0 1-1.56 7.38l-4.05 2.46a5.98 5.98 0 0 0-2 8.2l1.43 2.37-.72 1.44-3.82 1.17a5.98 5.98 0 0 0-3.96 7.47l.57 1.85c-.32.37-.65.73-.98 1.08l-1.53-.12a6 6 0 0 0-6.42 5.48l-.1 1.38c-2.6 1.94-5.13 4.3-5.13 8.64 0 6.18 9.72 10.01 12.92 11.27a65.2 65.2 0 0 0 23.99 4.52 68.42 68.42 0 0 0 1.7 5.82 52.13 52.13 0 0 0 4.5 9.72c1.65 2.7 3.98 5.78 7.41 5.78 1.23 0 2.44-.43 3.39-1.2 1.65-1.35 2.3-2.91 2.34-9.56 3.78.75 9.14 1.45 15.96 1.45 4.15 0 8.76-.46 13.76-1.38-.2 6.46.44 8.1 2.15 9.49.95.77 2.15 1.2 3.38 1.2 5.34 0 9.42-8.43 11.9-15.5.34-.97.68-2.07 1-3.29 1.36-3.53 4.3-12.65 4.64-26.03.15-6.1 0-12.27-.46-18.4a7.17 7.17 0 0 0 1.07-4.69c6.11-1.13 10.23-3.71 14.29-8.85 3.23-4.08 7.59-13.56 5.53-21.59-1.02-3.98-3.53-8.16-7.46-12.43a79.85 79.85 0 0 0-8.44-9.46c-.61-.58-1.35-1-2.14-1.23-6.8-6.53-20.8-18.78-30.77-19.47a26.1 26.1 0 0 0-1.79-.06m0 4.74c.5 0 1 .01 1.47.05 7.33.5 19.5 9.96 29.13 19.44a.62.62 0 0 1 .44-.18c.15 0 .3.05.42.16.24.23 4.64 4.4 8.03 9.04 2.5 2.68 5.49 6.55 6.52 10.58 1.55 6.04-2 14.12-4.65 17.47-3.69 4.66-7.18 6.6-13 7.38a24.86 24.86 0 0 1-4.33.18c.1.7.22 1.61.34 2.72a2.46 2.46 0 0 1 .45 4.5c.44 5.1.82 12.06.62 19.98-.32 12.98-3.2 21.59-4.4 24.67a46.03 46.03 0 0 1-.98 3.2c-2.47 7.05-5.84 12.33-7.43 12.33a.6.6 0 0 1-.4-.14c-.67-.54-.46-6.2-.07-11.74-5.24 1.27-12.23 2.58-18.82 2.58-13.17 0-20.34-2.73-20.76-2.9.14 5.85.1 11.54-.53 12.06a.6.6 0 0 1-.4.14c-1.59 0-4.97-5.28-7.44-12.33a84.23 84.23 0 0 1-2.48-9.25c-1.56.19-3.15.27-4.76.27-15.04 0-31.1-7.51-31.1-11.06 0-2.73 1.85-3.85 4.93-6.09l.28-3.55a1.24 1.24 0 0 1 1.33-1.14l3.72.3a48.7 48.7 0 0 0 4.44-4.92l-1.32-4.3c-.2-.65.16-1.35.82-1.55l5.66-1.74c1.05-1.84 2-3.76 2.83-5.71l-2.73-4.51a1.24 1.24 0 0 1 .42-1.7l5.68-3.45A98.92 98.92 0 0 0 77 103.5c0-10.03.87-18.66 2.98-23.54l-.34-1.09 1.03-.32c1.7-3.3 4.02-6.38 6.74-9.17l.08-3.54 3.68.08a60.4 60.4 0 0 1 9.84-6.64l1.44-5.27 6.29 1.73c5.12-1.94 10.08-3 14.13-3"/><path stroke="#EAEAEE" stroke-linecap="round" stroke-linejoin="round" stroke-width="1.8" d="M6 155h35"/><path fill="#FAFAFA" d="M168.62 90.93c-1.02-4-4.01-7.87-6.5-10.54a74.38 74.38 0 0 0-7.99-9 .61.61 0 0 0-.85.03c-9.59-9.45-21.7-18.87-29-19.37-4.28-.3-9.8.76-15.54 2.93l-6.26-1.72-1.43 5.25a60.09 60.09 0 0 0-9.8 6.61l-3.66-.08-.08 3.53a38.22 38.22 0 0 0-6.72 9.13l-1.02.32.34 1.09c-2.1 4.85-2.96 13.45-2.96 23.44a98.3 98.3 0 0 1-2.2 10L69.3 116c-.58.35-1 1.15-.65 1.73l2.84 4.7a51.87 51.87 0 0 1-2.71 5.44l-5.64 1.73c-.65.2-1.01.9-.81 1.54l1.31 4.29a48.52 48.52 0 0 1-4.42 4.9l-3.7-.3a1.23 1.23 0 0 0-1.32 1.13l-.28 3.54c-3.07 2.23-4.92 3.35-4.92 6.07 0 3.9 19.6 12.66 35.71 10.74a83.97 83.97 0 0 0 2.46 9.22c2.7 7.66 6.47 13.24 7.81 12.14.64-.52.67-6.18.53-12.01.42.16 7.56 2.88 20.68 2.88 6.55 0 13.5-1.3 18.73-2.56-.38 5.51-.6 11.15.08 11.7 1.34 1.09 5.1-4.49 7.79-12.15.33-.96.66-2.04.97-3.2 1.2-3.06 4.06-11.63 4.38-24.56.2-7.9-.17-14.83-.61-19.9a2.46 2.46 0 0 0-.45-4.49c-.13-1.1-.24-2-.34-2.7 1.5.04 2.97 0 4.31-.18 5.8-.78 9.27-2.71 12.94-7.35 2.64-3.34 6.18-11.39 4.63-17.4"/><path fill="#D9ECFF" d="M75.68 106c-1.55 7.47-4.18 16.4-8.64 23.92C56.84 147.1 48 145.38 48 151.08c0 3.86 14.88 13 35 11.81-2.12-8.53-5.05-29.34-6-36.57A201.24 201.24 0 0 1 75.68 106m47.32 7s7.42 2.75 10.5 6.08c2.19 2.35 2.29 3.92 2.29 3.92l10.18-3.9.03-1.5s-11.9-.29-23-4.6m29.65-43s10.82 10.97 12.48 19.5c1.56 8.02-2.5 17.27-9.06 20.66-9.28 4.8-32.07.72-32.07.72s21.14 7.32 30.8 4.45c14.5-4.3 15.7-19.2 15.07-23.51-.62-4.29-10.23-19.04-17.22-21.82"/><path stroke="#EAEAEE" stroke-linecap="round" stroke-linejoin="round" stroke-width="1.8" d="M154 155h58"/><path fill="#F9F9FA" d="M147 148s-1.95 15.51-4.67 23.38c-2.72 7.88-6.53 13.6-7.89 12.48-1.36-1.13.87-23.28.87-23.28L147 148z"/><path fill="#D9EBFF" d="M95 163.86s11.68 6.12 26.21 3.29c14.85-2.9 20.37-13.99 21.04-21.5 1.13-12.72-1.35-18.92-1.35-18.92l6.27-2.73s1.08.46.77 18.14c-.28 16.54-4.87 27.9-4.87 27.9S128.7 175 115.85 175c-13.6 0-20.85-2.92-20.85-2.92v-8.22z"/><path fill="#59ACFF" d="M120.5 79c.83 0 1.5.63 1.5 1.41v3.18c0 .78-.67 1.41-1.5 1.41s-1.5-.63-1.5-1.41V80.4c0-.78.67-1.41 1.5-1.41m30 0c.83 0 1.5.63 1.5 1.41v3.18c0 .78-.67 1.41-1.5 1.41s-1.5-.63-1.5-1.41V80.4c0-.78.67-1.41 1.5-1.41"/><path stroke="#59ACFF" stroke-linecap="round" stroke-linejoin="round" stroke-width=".9" d="M100 96s.8-1.62 1.88-2.32c1.47-.95 3.12-.63 3.12-.63m-.54 6.95s-.67-1.55-.39-2.88C104.46 95.31 106 94 106 94"/><path stroke="#F9F9FA" stroke-linecap="round" stroke-linejoin="round" stroke-width="2.7" d="M124 87s-1.17-2-3.5-2-3.5 2-3.5 2"/><path stroke="#59ACFF" stroke-linecap="round" stroke-linejoin="round" stroke-width="1.8" d="M147 86s1.17 2 3.5 2 3.5-2 3.5-2m-30 1s-1.17-2-3.5-2-3.5 2-3.5 2"/><polygon fill="#FFFFFF" points="104 90 105.797 94 109 92.055"/><polygon stroke="#FFFFFF" stroke-linecap="round" stroke-linejoin="round" stroke-width="1.8" points="104 90 105.797 94 109 92.055"/><path fill="#D9EBFF" d="M147 148s-1.95 15.5-4.67 23.38c-2.72 7.88-6.53 13.6-7.89 12.48-1.36-1.13.87-23.28.87-23.28L147 148z"/><path stroke="#59ACFF" stroke-linecap="round" stroke-linejoin="round" stroke-width="1.8" d="M99 88s6.6-.31 11.1 4.42c3 3.16 3.9 7.58 3.9 7.58"/><polygon fill="#D9ECFF" points="62 142.022 54 141 54.349 148"/><polygon stroke="#D9EBFF" stroke-linecap="round" stroke-linejoin="round" stroke-width="1.8" points="62 142.022 54 141 54.349 148"/><polygon fill="#D9ECFF" points="69 129 62 130.939 64.564 137"/><polygon stroke="#D9EBFF" stroke-linecap="round" stroke-linejoin="round" stroke-width="1.8" points="69 129 62 130.939 64.564 137"/><polygon fill="#D9ECFF" points="75 114 68 117.617 72.271 123"/><polygon stroke="#D9EBFF" stroke-linecap="round" stroke-linejoin="round" stroke-width="1.8" points="75 114 68 117.617 72.271 123"/><path stroke="#59ACFF" stroke-linecap="round" stroke-linejoin="round" stroke-width=".9" d="M1 149.98c17.7 0 31.1.3 30.18 3.73-.61 2.28-15.14 4.99-14.65 9.04.61 4.99 16.88 10.67 28.07 7.17 8.16-2.55 5.18-10.3 16.18-22.14 2.8-3.02 12.26-12.92 26.85-15.27 4.25-.69 7.88-.56 10.37-.31m25-.2c19.88 2.3 27.5 8.95 30.74 14.71 2.3 4.1 3.38 9.48 9.13 14.72 1.74 1.6 5.8 5.2 11.87 6.26 9.5 1.65 19.77-3.7 19.48-6.89-.45-4.92-29.23-9.9-29.22-13.13.01-1.91 6.4-3.77 15.22-4.07 9.13-.32 24.34-.31 40.78-.31"/><path fill="#59ACFF" d="M101.2 127s-5.8.96-5.15 4.82c.64 3.86 5.46 4.18 5.46 4.18s1.29-3.21-.32-9"/><path stroke="#59ACFF" stroke-linecap="round" stroke-linejoin="round" stroke-width=".9" d="M101.2 127s-5.8.96-5.15 4.82c.64 3.86 5.46 4.18 5.46 4.18s1.29-3.21-.32-9zm-2.2 2h5m-5 4h5"/><path fill="#59ACFF" d="M121.2 127.25s-2.2 1.28-2.2 3.82c0 2.25 1.23 4.63 2.8 4.88 2.6.4 4.2-1.68 4.2-3.93s-1.2-6.02-4.8-4.77"/><path stroke="#59ACFF" stroke-linecap="round" stroke-linejoin="round" stroke-width=".9" d="M121.2 127.25s-2.2 1.28-2.2 3.82c0 2.25 1.23 4.63 2.8 4.88 2.6.4 4.2-1.68 4.2-3.93s-1.2-6.02-4.8-4.77z"/><path stroke="#F9F9FA" stroke-linecap="round" stroke-linejoin="round" stroke-width=".9" d="M121 129l-1 2m2 1l-1 2"/><path stroke="#59ACFF" stroke-linecap="round" stroke-linejoin="round" stroke-width="1.8" d="M151 61l2-2m4 4l3-1"/><path stroke="#59ACFF" stroke-linecap="round" stroke-linejoin="round" stroke-width=".9" d="M151 127s1.96-.48 2.74-2.81c.77-2.34-.41-4.19-.41-4.19m-.33 9s3.27-.69 4.56-4.02c1.3-3.33-.68-5.98-.68-5.98M85 138s.6 2.1 2.94 2.8c2.33.7 4.06-.68 4.06-.68"/><path stroke="#59ACFF" stroke-linecap="round" stroke-linejoin="round" stroke-width=".9" d="M83 139s.86 3.5 4.2 4.67c3.33 1.17 5.8-1.14 5.8-1.14"/><path stroke="#59ACFF" stroke-linecap="round" stroke-linejoin="round" stroke-width="1.8" d="M117 73s1.17 2 3.5 2 3.5-2 3.5-2"/><path stroke="#59ACFF" stroke-linecap="round" stroke-linejoin="round" stroke-width=".9" d="M79 141s2.5 13.48 5 23m11 3l.44 10"/><path stroke="#59ACFF" stroke-linecap="round" stroke-linejoin="round" stroke-width="1.8" d="M123 112s11.26 4.8 25 5"/><path stroke="#59ACFF" stroke-linecap="round" stroke-linejoin="round" stroke-width=".9" d="M104 56l4-2m-42 78l2-4m5-12l1-4"/><path fill="#F9F9FA" d="M84 125s.16 10.84 5.17 11c5.02.14 3.66-1.52 3.66-1.52l-2.56-5.08 1.25-2.64L84 125z"/><path stroke="#59ACFF" stroke-linecap="round" stroke-linejoin="round" stroke-width=".9" d="M102 89s.82 4.7 2.46 5.77c1.64 1.07 5.54-1.93 5.54-1.93"/><path fill="#F9F9FA" d="M137 130s-.06 5.18-3.02 6.36c-4.47 1.79-3.32-.74-3.32-.74l.6-3.25-2.26-1.04 8-1.33z"/><path stroke="#59ACFF" stroke-linecap="round" stroke-linejoin="round" stroke-width=".9" d="M141.29 121s-9.06 3.5-10.22 4.38c-2.83 2.13-1.94 6.3-1.94 6.3l2.74.6-.86 4.68c7.9.76 6.84-10.21 6.84-10.21l2.05-1.03s6.28-1.43 8.1-3.05M139 169s-2.92 3.15-10 5M86.65 71c-.22-.56-.65-6-.65-6"/><path fill="#F9F9FA" d="M76.07 114s-4.55 4.92-2.57 7.67c1.98 2.76 7.12 4.33 7.12 4.33l1.38-4.52s-6.13-4.14-5.93-7.48"/><path stroke="#59ACFF" stroke-linecap="round" stroke-linejoin="round" stroke-width=".9" d="M80 82l-2-4m-22 64c3.46-2.54 4-5 4-5m20.79-17.45s9.22 3.76 10.74 4.65c2.58 1.51 2.47 5.79 2.47 5.79l-3.38.35 2.24 3.98c-.82 1-2.44 2.67-5.22.91-3.57-2.26-2.95-9.08-2.95-9.08s-1.2-.81-6.16-2.83c-4.97-2.01-4.52-4.32-4.52-4.32"/><path stroke="#59ACFF" stroke-linecap="round" stroke-linejoin="round" stroke-width="1.8" d="M147 125l-9 3m-65-8s.42 2.68 3.94 4.12L84 127"/><path fill="#FFFFFF" d="M25 12.91h13.25s-4.15-9.57 4.66-10.8C50.76 1 53.86 9.32 53.86 9.32s.93-4.8 5.6-3.89c4.6.91 8 8.56 8 8.56H79"/><path stroke="#EAEAEE" stroke-dasharray="10.8 7.2 2.7 3.6 .9 8.1" stroke-linecap="round" stroke-linejoin="round" stroke-width=".9" d="M25 10h13.25S34.1 1.23 42.91.1c7.85-1.02 10.95 6.62 10.95 6.62s.93-4.4 5.6-3.56c4.6.83 8 6.68 8 6.68H79"/><path stroke="#FFFFFF" stroke-linecap="round" stroke-linejoin="round" stroke-width="1.8" d="M25 14h55"/><path fill="#FFFFFF" d="M124 35.1h23.8s-7.45-16.76 8.37-18.92c14.1-1.94 19.67 12.65 19.67 12.65s1.67-8.41 10.06-6.8C194.17 23.6 200.27 37 200.27 37H221"/><path stroke="#EAEAEE" stroke-dasharray="10.8 7.2 2.7 3.6 .9 8.1" stroke-linecap="round" stroke-linejoin="round" stroke-width=".9" d="M125 32.32h23.8s-7.45-16.95 8.37-19.14c14.1-1.96 19.67 12.8 19.67 12.8s1.67-8.51 10.06-6.88c8.27 1.6 14.37 13.9 14.37 13.9H222"/><path stroke="#FFFFFF" stroke-linecap="round" stroke-linejoin="round" stroke-width="1.8" d="M124 37h98"/><path fill="#59ACFF" d="M122.84 50c-4.13 0-9.02 1-14.19 2.89l-5.68-1.56a1.89 1.89 0 0 0-2.32 1.32l-1.23 4.5a61.94 61.94 0 0 0-8.86 5.98l-2.97-.07h-.04a1.89 1.89 0 0 0-1.89 1.84l-.06 2.8a40.31 40.31 0 0 0-6.16 8.36l-.28.09a1.89 1.89 0 0 0-1.24 2.37l.13.44c-1.88 4.84-2.84 12.7-2.85 23.4-.52 3.1-1.17 6.1-1.94 8.96l-5.02 3.05a3.13 3.13 0 0 0-1.05 4.29l2.22 3.66c-.64 1.4-1.3 2.73-1.98 3.97l-4.93 1.52a3.13 3.13 0 0 0-2.07 3.9l1.03 3.33c-1 1.2-2.01 2.33-3.04 3.36l-2.85-.22-.26-.01a3.13 3.13 0 0 0-3.1 2.87l-.21 2.68c-2.8 2.01-5 3.62-5 7.1 0 3.68 6.95 6.96 11.09 8.6a62.08 62.08 0 0 0 21.83 4.32c1.11 0 2.2-.04 3.27-.12a76.5 76.5 0 0 0 2.16 7.81c.49 1.4 4.88 13.57 9.21 13.57.59 0 1.14-.2 1.59-.56.78-.64 1.42-1.16 1.27-10.9 3.31.9 9.62 2.18 18.78 2.18 5.84 0 11.98-1.02 16.72-2.05-.56 9.56.14 10.12.93 10.77.45.37 1 .56 1.58.56 4.32 0 8.71-12.18 9.2-13.57.33-.93.66-2.02.99-3.22 1.27-3.27 4.15-12.07 4.48-25.16.16-6.34-.02-12.78-.54-19.15a4.34 4.34 0 0 0-.2-6.17c.72-.03 1.39-.09 2.02-.17 6.37-.85 10.22-3.04 14.19-8.06 3.1-3.92 6.7-12.43 5-19.08-1.14-4.4-4.36-8.56-6.9-11.3-3.51-4.8-7.98-9-8.16-9.18-.43-.4-.98-.64-1.56-.67a125.8 125.8 0 0 0-14.9-12.54c-5.96-4.17-10.88-6.42-14.62-6.68-.51-.03-1.05-.05-1.6-.05m0 1.9c.51 0 1 0 1.47.04 7.32.5 19.45 9.94 29.06 19.4a.62.62 0 0 1 .85-.02c.25.23 4.63 4.38 8.01 9.01 2.49 2.68 5.48 6.54 6.51 10.56 1.55 6.03-2 14.09-4.64 17.43-3.68 4.65-7.16 6.59-12.96 7.36a24.78 24.78 0 0 1-4.32.18c.1.7.21 1.62.34 2.72a2.45 2.45 0 0 1 .45 4.48c.44 5.09.8 12.04.61 19.94-.32 12.95-3.18 21.54-4.39 24.61a46.63 46.63 0 0 1-.97 3.2c-2.47 7.03-5.83 12.3-7.42 12.3a.6.6 0 0 1-.39-.14c-.67-.54-.46-6.19-.08-11.71-5.22 1.26-12.2 2.57-18.76 2.57-13.14 0-20.3-2.73-20.71-2.9.14 5.85.1 11.52-.53 12.04a.6.6 0 0 1-.4.14c-1.58 0-4.96-5.27-7.43-12.3a84.1 84.1 0 0 1-2.47-9.23 40.4 40.4 0 0 1-4.74.27c-15 0-31.03-7.5-31.03-11.04 0-2.72 1.85-3.84 4.92-6.07l.28-3.55a1.23 1.23 0 0 1 1.33-1.13l3.7.3a48.8 48.8 0 0 0 4.44-4.91l-1.32-4.3c-.2-.64.17-1.33.82-1.54l5.64-1.73a56.35 56.35 0 0 0 2.83-5.7l-2.72-4.5a1.23 1.23 0 0 1 .41-1.7l5.67-3.44a98.45 98.45 0 0 0 2.2-10.02c0-10 .87-18.61 2.97-23.48l-.34-1.09 1.02-.32c1.7-3.3 4-6.36 6.73-9.14l.08-3.54 3.66.08a60.3 60.3 0 0 1 9.82-6.62l1.44-5.26 6.27 1.72c5.11-1.93 10.06-2.98 14.1-2.98"/></g><path fill="#0C0C0D" d="M289.63 229.5v1.05h-1.02v8.4h1.02V240h-3.28v-1.05h1.03v-8.4h-1.03v-1.05h3.28zm5.06 10.43c-.29.15-.66.23-1.12.23-1.32 0-1.97-.73-1.97-2.2v-4.43h-1.3v-1.03h1.3v-1.83l1.2-.39v2.22h1.89v1.03h-1.9v4.22c0 .5.1.86.26 1.08.17.21.46.32.85.32.3 0 .57-.08.79-.25v1.03zm11.08.07h-1.2v-1.17h-.03c-.52.9-1.3 1.35-2.31 1.35-.75 0-1.33-.2-1.75-.6-.43-.4-.64-.92-.64-1.57 0-1.4.83-2.22 2.48-2.45l2.25-.31c0-1.28-.52-1.92-1.55-1.92-.9 0-1.72.31-2.44.93v-1.23c.73-.47 1.58-.7 2.54-.7 1.77 0 2.65.93 2.65 2.8V240zm-1.2-3.8l-1.81.26c-.56.07-.98.21-1.26.4-.29.2-.43.56-.43 1.06 0 .37.13.67.4.9.26.23.6.35 1.04.35.6 0 1.09-.21 1.47-.63.4-.42.59-.95.59-1.59v-.74zm4.7 2.72h-.04v4.53h-1.2V232.5h1.2v1.32h.03c.6-1 1.46-1.5 2.6-1.5.96 0 1.72.34 2.26 1.01.54.67.81 1.57.81 2.7 0 1.26-.3 2.26-.91 3.01a3.05 3.05 0 0 1-2.51 1.14 2.5 2.5 0 0 1-2.25-1.26zm-.04-3.03v1.05c0 .62.2 1.14.6 1.58a2 2 0 0 0 1.54.65c.73 0 1.3-.28 1.71-.84.41-.56.62-1.33.62-2.32 0-.84-.2-1.5-.58-1.96-.38-.48-.9-.72-1.57-.72-.7 0-1.26.25-1.68.73-.43.49-.64 1.1-.64 1.83zm8.85 3.03h-.03v4.53h-1.2V232.5h1.2v1.32h.03c.6-1 1.46-1.5 2.6-1.5.96 0 1.71.34 2.26 1.01.54.67.8 1.57.8 2.7 0 1.26-.3 2.26-.9 3.01a3.05 3.05 0 0 1-2.51 1.14 2.5 2.5 0 0 1-2.25-1.26zm-.03-3.03v1.05c0 .62.2 1.14.6 1.58a2 2 0 0 0 1.54.65c.73 0 1.3-.28 1.71-.84.41-.56.62-1.33.62-2.32 0-.84-.2-1.5-.58-1.96-.39-.48-.9-.72-1.57-.72-.7 0-1.26.25-1.68.73-.43.49-.64 1.1-.64 1.83zm13.65.66h-5.3c.02.84.24 1.48.67 1.93.43.46 1.02.69 1.78.69.84 0 1.62-.28 2.33-.84v1.13c-.66.48-1.53.72-2.62.72-1.06 0-1.9-.34-2.5-1.03-.6-.68-.9-1.64-.9-2.87a4.1 4.1 0 0 1 .99-2.85 3.18 3.18 0 0 1 2.46-1.1c.98 0 1.74.31 2.28.95.54.63.8 1.51.8 2.64v.63zm-1.23-1.02c-.01-.7-.18-1.23-.5-1.62a1.7 1.7 0 0 0-1.38-.58c-.57 0-1.05.2-1.44.61-.4.4-.64.94-.73 1.6h4.05zm8.41 4.47h-1.2v-1.17h-.03c-.52.9-1.3 1.35-2.3 1.35-.75 0-1.34-.2-1.76-.6-.42-.4-.63-.92-.63-1.57 0-1.4.82-2.22 2.47-2.45l2.25-.31c0-1.28-.52-1.92-1.55-1.92-.9 0-1.71.31-2.44.93v-1.23c.74-.47 1.58-.7 2.55-.7 1.76 0 2.64.93 2.64 2.8V240zm-1.2-3.8l-1.8.26c-.57.07-.99.21-1.27.4-.28.2-.42.56-.42 1.06 0 .37.13.67.39.9.26.23.6.35 1.04.35.6 0 1.09-.21 1.48-.63.39-.42.58-.95.58-1.59v-.74zm7.38-2.48a1.47 1.47 0 0 0-.91-.25c-.52 0-.94.25-1.29.73a3.35 3.35 0 0 0-.51 1.98V240h-1.2v-7.5h1.2v1.55h.02c.18-.53.44-.94.79-1.24.35-.3.74-.44 1.18-.44.31 0 .55.03.72.1v1.25zm.95 6v-1.28c.65.48 1.37.73 2.16.73 1.05 0 1.58-.36 1.58-1.06 0-.2-.05-.37-.14-.5a1.35 1.35 0 0 0-.36-.38c-.16-.1-.34-.2-.54-.29l-.67-.27a8.63 8.63 0 0 1-.88-.4 2.64 2.64 0 0 1-.63-.45c-.17-.17-.3-.36-.38-.57a2.03 2.03 0 0 1-.13-.76c0-.35.08-.66.24-.93.16-.27.38-.5.65-.68a3 3 0 0 1 .92-.42 4.3 4.3 0 0 1 2.8.2v1.22a3.4 3.4 0 0 0-2.5-.47c-.19.05-.34.13-.47.22a1 1 0 0 0-.3.33.88.88 0 0 0-.1.43c0 .2.03.36.1.49s.17.25.31.35c.14.1.3.2.5.28l.66.27c.34.13.63.26.9.4.26.13.49.28.67.45.19.17.33.36.43.58.1.22.15.48.15.78 0 .37-.08.7-.24.97-.17.27-.39.5-.66.68a3 3 0 0 1-.95.4c-.35.1-.73.14-1.12.14-.77 0-1.44-.15-2-.45zm14.4.2c-.28.16-.65.24-1.12.24-1.31 0-1.97-.73-1.97-2.2v-4.43h-1.29v-1.03h1.3v-1.83l1.2-.39v2.22h1.88v1.03h-1.89v4.22c0 .5.09.86.26 1.08.17.21.45.32.85.32.3 0 .56-.08.78-.25v1.03zm7.83.08h-1.2v-4.32c0-1.56-.58-2.35-1.74-2.35a1.9 1.9 0 0 0-1.48.68c-.4.45-.6 1.03-.6 1.74V240h-1.2v-11.1h1.2v4.85h.03a2.73 2.73 0 0 1 2.46-1.43c1.69 0 2.53 1.02 2.53 3.06V240zm7.64 0h-1.2v-1.17h-.03c-.53.9-1.3 1.35-2.31 1.35-.75 0-1.33-.2-1.76-.6-.42-.4-.63-.92-.63-1.57 0-1.4.83-2.22 2.48-2.45l2.24-.31c0-1.28-.51-1.92-1.54-1.92-.9 0-1.72.31-2.45.93v-1.23c.74-.47 1.59-.7 2.55-.7 1.76 0 2.65.93 2.65 2.8V240zm-1.2-3.8l-1.81.26c-.56.07-.98.21-1.26.4-.29.2-.43.56-.43 1.06 0 .37.13.67.4.9.25.23.6.35 1.04.35.6 0 1.08-.21 1.47-.63.39-.42.58-.95.58-1.59v-.74zm6.94 3.73c-.29.15-.66.23-1.12.23-1.32 0-1.97-.73-1.97-2.2v-4.43h-1.3v-1.03h1.3v-1.83l1.2-.39v2.22h1.89v1.03h-1.9v4.22c0 .5.1.86.26 1.08.18.21.46.32.85.32.3 0 .57-.08.79-.25v1.03zm11.68-7.43l-3.45 8.7c-.62 1.55-1.48 2.33-2.6 2.33-.3 0-.57-.03-.78-.1v-1.07c.26.09.5.13.71.13.61 0 1.06-.36 1.37-1.08l.6-1.42-2.93-7.49h1.33l2.03 5.77.15.57h.05l.14-.55 2.13-5.79h1.25zm4.35 7.68c-1.1 0-2-.35-2.65-1.06a3.9 3.9 0 0 1-1-2.78c0-1.26.35-2.25 1.04-2.95a3.71 3.71 0 0 1 2.79-1.07c1.11 0 1.99.35 2.61 1.04.63.69.95 1.64.95 2.86 0 1.2-.34 2.16-1.02 2.88a3.55 3.55 0 0 1-2.72 1.08zm.09-6.85c-.77 0-1.38.27-1.83.8a3.23 3.23 0 0 0-.68 2.16c0 .9.23 1.6.68 2.1.46.52 1.07.78 1.83.78a2.2 2.2 0 0 0 1.79-.76c.42-.5.63-1.22.63-2.15 0-.93-.21-1.66-.63-2.16a2.19 2.19 0 0 0-1.8-.77zm11.63 6.67h-1.2v-1.19h-.03c-.5.91-1.27 1.37-2.32 1.37-1.78 0-2.68-1.07-2.68-3.2v-4.48h1.2v4.3c0 1.57.6 2.37 1.81 2.37.59 0 1.07-.22 1.45-.65.38-.44.57-1 .57-1.7v-4.32h1.2v7.5zm11.9 0h-1.2v-1.17h-.03c-.52.9-1.3 1.35-2.3 1.35-.75 0-1.34-.2-1.76-.6-.42-.4-.63-.92-.63-1.57 0-1.4.82-2.22 2.47-2.45l2.25-.31c0-1.28-.52-1.92-1.55-1.92-.9 0-1.71.31-2.44.93v-1.23c.74-.47 1.59-.7 2.55-.7 1.76 0 2.64.93 2.64 2.8V240zm-1.2-3.8l-1.8.26c-.57.07-.99.21-1.27.4-.28.2-.42.56-.42 1.06 0 .37.13.67.39.9.26.23.6.35 1.04.35.6 0 1.09-.21 1.48-.63.39-.42.58-.95.58-1.59v-.74zm7.38-2.48a1.47 1.47 0 0 0-.91-.25c-.52 0-.94.25-1.29.73a3.35 3.35 0 0 0-.51 1.98V240h-1.2v-7.5h1.2v1.55h.02c.18-.53.44-.94.79-1.24.35-.3.74-.44 1.18-.44.31 0 .55.03.72.1v1.25zm7.13 2.83h-5.3c.02.84.25 1.48.68 1.93.43.46 1.02.69 1.77.69.84 0 1.62-.28 2.33-.84v1.13c-.66.48-1.53.72-2.62.72-1.06 0-1.89-.34-2.5-1.03-.6-.68-.9-1.64-.9-2.87a4.1 4.1 0 0 1 1-2.85 3.18 3.18 0 0 1 2.46-1.1c.98 0 1.74.31 2.27.95.54.63.8 1.51.8 2.64v.63zm-1.23-1.02c0-.7-.17-1.23-.5-1.62a1.7 1.7 0 0 0-1.38-.58c-.56 0-1.04.2-1.44.61-.4.4-.64.94-.73 1.6h4.05zm13.38 4.47h-1.2v-4.28c0-1.59-.58-2.39-1.74-2.39-.6 0-1.1.23-1.5.68-.39.45-.58 1.02-.58 1.71V240h-1.2v-7.5h1.2v1.25h.02a2.7 2.7 0 0 1 2.47-1.43c.82 0 1.44.27 1.88.8.43.53.65 1.3.65 2.3V240zm5.4.18c-1.11 0-2-.35-2.66-1.06a3.9 3.9 0 0 1-.99-2.78c0-1.26.34-2.25 1.03-2.95a3.71 3.71 0 0 1 2.8-1.07c1.11 0 1.98.35 2.61 1.04.63.69.94 1.64.94 2.86 0 1.2-.33 2.16-1.01 2.88a3.55 3.55 0 0 1-2.72 1.08zm.09-6.85c-.78 0-1.39.27-1.84.8a3.23 3.23 0 0 0-.67 2.16c0 .9.23 1.6.68 2.1.46.52 1.06.78 1.83.78a2.2 2.2 0 0 0 1.79-.76c.41-.5.62-1.22.62-2.15 0-.93-.2-1.66-.62-2.16a2.19 2.19 0 0 0-1.8-.77zm9.04 6.6c-.28.15-.66.23-1.12.23-1.31 0-1.97-.73-1.97-2.2v-4.43h-1.29v-1.03h1.29v-1.83l1.2-.39v2.22h1.9v1.03h-1.9v4.22c0 .5.09.86.26 1.08.17.21.45.32.85.32.3 0 .56-.08.78-.25v1.03zm10.83-.27a3.9 3.9 0 0 1-2.05.52 3.4 3.4 0 0 1-2.6-1.05c-.65-.7-.98-1.6-.98-2.7 0-1.24.36-2.23 1.06-2.98a3.72 3.72 0 0 1 2.84-1.13c.66 0 1.24.13 1.74.37v1.23a3.05 3.05 0 0 0-1.79-.59c-.76 0-1.4.28-1.88.83-.5.55-.74 1.27-.74 2.16 0 .88.23 1.58.7 2.08.46.51 1.07.77 1.85.77.66 0 1.27-.22 1.85-.66v1.15zm4.95.52c-1.11 0-2-.35-2.66-1.06a3.9 3.9 0 0 1-.99-2.78c0-1.26.34-2.25 1.03-2.95a3.71 3.71 0 0 1 2.8-1.07c1.11 0 1.98.35 2.61 1.04.63.69.94 1.64.94 2.86 0 1.2-.34 2.16-1.01 2.88a3.55 3.55 0 0 1-2.72 1.08zm.09-6.85c-.78 0-1.39.27-1.84.8a3.23 3.23 0 0 0-.67 2.16c0 .9.23 1.6.68 2.1.46.52 1.06.78 1.83.78a2.2 2.2 0 0 0 1.79-.76c.41-.5.62-1.22.62-2.15 0-.93-.2-1.66-.62-2.16a2.19 2.19 0 0 0-1.8-.77zm11.79 6.67h-1.2v-4.28c0-1.59-.58-2.39-1.75-2.39-.6 0-1.1.23-1.49.68-.39.45-.59 1.02-.59 1.71V240h-1.2v-7.5h1.2v1.25h.03a2.7 2.7 0 0 1 2.46-1.43c.82 0 1.45.27 1.89.8.43.53.65 1.3.65 2.3V240zm8.49 0h-1.2v-4.28c0-1.59-.59-2.39-1.75-2.39-.6 0-1.1.23-1.49.68-.4.45-.59 1.02-.59 1.71V240h-1.2v-7.5h1.2v1.25h.03a2.7 2.7 0 0 1 2.46-1.43c.82 0 1.45.27 1.88.8.44.53.66 1.3.66 2.3V240zm8.29-3.45h-5.3c.02.84.25 1.48.68 1.93.43.46 1.02.69 1.77.69.84 0 1.62-.28 2.33-.84v1.13c-.66.48-1.53.72-2.62.72-1.06 0-1.89-.34-2.5-1.03-.6-.68-.9-1.64-.9-2.87a4.1 4.1 0 0 1 .99-2.85 3.18 3.18 0 0 1 2.46-1.1c.99 0 1.74.31 2.28.95.54.63.8 1.51.8 2.64v.63zm-1.23-1.02c0-.7-.18-1.23-.5-1.62a1.7 1.7 0 0 0-1.38-.58c-.56 0-1.05.2-1.44.61-.4.4-.64.94-.73 1.6h4.05zm8.16 4.13a3.9 3.9 0 0 1-2.05.52 3.4 3.4 0 0 1-2.6-1.05c-.65-.7-.98-1.6-.98-2.7 0-1.24.35-2.23 1.06-2.98a3.72 3.72 0 0 1 2.84-1.13c.66 0 1.24.13 1.74.37v1.23a3.05 3.05 0 0 0-1.79-.59c-.76 0-1.4.28-1.88.83-.5.55-.74 1.27-.74 2.16 0 .88.23 1.58.7 2.08.46.51 1.07.77 1.85.77.65 0 1.27-.22 1.85-.66v1.15zm5.3.27c-.3.15-.67.23-1.13.23-1.31 0-1.97-.73-1.97-2.2v-4.43h-1.29v-1.03h1.3v-1.83l1.2-.39v2.22h1.88v1.03h-1.89v4.22c0 .5.09.86.26 1.08.17.21.45.32.85.32.3 0 .56-.08.78-.25v1.03zm7.5-3.38h-5.29c.02.84.24 1.48.67 1.93.43.46 1.02.69 1.78.69.84 0 1.62-.28 2.33-.84v1.13c-.66.48-1.53.72-2.62.72-1.06 0-1.9-.34-2.5-1.03-.6-.68-.9-1.64-.9-2.87a4.1 4.1 0 0 1 .99-2.85 3.18 3.18 0 0 1 2.46-1.1c.98 0 1.74.31 2.28.95.54.63.8 1.51.8 2.64v.63zm-1.22-1.02c0-.7-.18-1.23-.5-1.62a1.7 1.7 0 0 0-1.38-.58c-.57 0-1.05.2-1.44.61-.4.4-.64.94-.73 1.6h4.05zm9.44 4.47h-1.2v-1.27h-.03a2.77 2.77 0 0 1-2.57 1.45 2.8 2.8 0 0 1-2.26-1.01 4.13 4.13 0 0 1-.85-2.74c0-1.24.31-2.24.94-2.99a3.1 3.1 0 0 1 2.5-1.12c1.03 0 1.77.4 2.24 1.22h.03v-4.64h1.2V240zm-1.2-3.4v-1.1c0-.6-.2-1.12-.6-1.54-.4-.42-.9-.63-1.52-.63-.73 0-1.31.27-1.73.81a3.53 3.53 0 0 0-.63 2.23c0 .86.2 1.54.6 2.04.4.5.95.76 1.63.76.67 0 1.2-.25 1.63-.73.41-.48.62-1.1.62-1.83zm11.22 3.33c-.28.15-.65.23-1.12.23-1.31 0-1.97-.73-1.97-2.2v-4.43h-1.29v-1.03h1.3v-1.83l1.2-.39v2.22h1.88v1.03h-1.89v4.22c0 .5.09.86.26 1.08.17.21.45.32.85.32.3 0 .56-.08.78-.25v1.03zm4.62.25c-1.1 0-1.99-.35-2.65-1.06a3.9 3.9 0 0 1-1-2.78c0-1.26.35-2.25 1.04-2.95a3.71 3.71 0 0 1 2.8-1.07c1.1 0 1.98.35 2.6 1.04.64.69.95 1.64.95 2.86 0 1.2-.34 2.16-1.01 2.88a3.55 3.55 0 0 1-2.73 1.08zm.1-6.85c-.78 0-1.39.27-1.84.8a3.23 3.23 0 0 0-.67 2.16c0 .9.22 1.6.68 2.1.45.52 1.06.78 1.82.78a2.2 2.2 0 0 0 1.8-.76c.41-.5.62-1.22.62-2.15 0-.93-.2-1.66-.63-2.16a2.19 2.19 0 0 0-1.79-.77zm13.15 6.6c-.29.15-.66.23-1.12.23-1.32 0-1.97-.73-1.97-2.2v-4.43h-1.3v-1.03h1.3v-1.83l1.2-.39v2.22h1.89v1.03h-1.9v4.22c0 .5.1.86.26 1.08.17.21.46.32.85.32.3 0 .57-.08.79-.25v1.03zm7.83.07h-1.2v-4.32c0-1.56-.59-2.35-1.75-2.35a1.9 1.9 0 0 0-1.48.68c-.4.45-.6 1.03-.6 1.74V240h-1.2v-11.1h1.2v4.85h.03a2.73 2.73 0 0 1 2.46-1.43c1.7 0 2.54 1.02 2.54 3.06V240zm8.29-3.45h-5.3c.02.84.25 1.48.68 1.93.43.46 1.02.69 1.77.69.84 0 1.62-.28 2.33-.84v1.13c-.66.48-1.53.72-2.62.72-1.06 0-1.89-.34-2.5-1.03-.6-.68-.9-1.64-.9-2.87a4.1 4.1 0 0 1 .99-2.85 3.18 3.18 0 0 1 2.46-1.1c.99 0 1.74.31 2.28.95.54.63.8 1.51.8 2.64v.63zm-1.23-1.02c0-.7-.17-1.23-.5-1.62a1.7 1.7 0 0 0-1.38-.58c-.56 0-1.05.2-1.44.61-.4.4-.64.94-.73 1.6h4.05zm9.57-6.03v1.05h-1.03v8.4H586V240h-3.28v-1.05h1.02v-8.4h-1.02v-1.05H586zm7.8 10.5h-1.2v-4.28c0-1.59-.58-2.39-1.74-2.39-.6 0-1.1.23-1.5.68-.39.45-.58 1.02-.58 1.71V240h-1.2v-7.5h1.2v1.25h.03a2.7 2.7 0 0 1 2.46-1.43c.82 0 1.44.27 1.88.8.43.53.65 1.3.65 2.3V240zm5.74-.07c-.28.15-.65.23-1.12.23-1.31 0-1.97-.73-1.97-2.2v-4.43h-1.29v-1.03h1.3v-1.83l1.2-.39v2.22h1.88v1.03h-1.89v4.22c0 .5.09.86.26 1.08.17.21.45.32.85.32.3 0 .56-.08.78-.25v1.03zm7.52-3.38h-5.3c.02.84.25 1.48.68 1.93.43.46 1.02.69 1.77.69.84 0 1.62-.28 2.33-.84v1.13c-.66.48-1.53.72-2.62.72-1.06 0-1.89-.34-2.5-1.03-.6-.68-.9-1.64-.9-2.87a4.1 4.1 0 0 1 .99-2.85 3.18 3.18 0 0 1 2.46-1.1c.99 0 1.74.31 2.28.95.54.63.8 1.51.8 2.64v.63zm-1.23-1.02c0-.7-.18-1.23-.5-1.62a1.7 1.7 0 0 0-1.38-.58c-.56 0-1.05.2-1.44.61-.4.4-.64.94-.73 1.6h4.05zm6.95-1.81a1.47 1.47 0 0 0-.9-.25c-.52 0-.94.25-1.29.73a3.35 3.35 0 0 0-.52 1.98V240h-1.2v-7.5h1.2v1.55h.03c.17-.53.44-.94.79-1.24.35-.3.74-.44 1.18-.44.3 0 .55.03.71.1v1.25zm7.5 6.28h-1.2v-4.28c0-1.59-.58-2.39-1.74-2.39-.6 0-1.1.23-1.49.68-.4.45-.59 1.02-.59 1.71V240h-1.2v-7.5h1.2v1.25h.03a2.7 2.7 0 0 1 2.46-1.43c.82 0 1.45.27 1.88.8.44.53.65 1.3.65 2.3V240zm8.3-3.45h-5.3c.02.84.24 1.48.67 1.93.43.46 1.02.69 1.78.69.84 0 1.62-.28 2.33-.84v1.13c-.66.48-1.54.72-2.62.72-1.06 0-1.9-.34-2.5-1.03-.6-.68-.9-1.64-.9-2.87a4.1 4.1 0 0 1 .99-2.85 3.18 3.18 0 0 1 2.46-1.1c.98 0 1.74.31 2.28.95.54.63.8 1.51.8 2.64v.63zm-1.23-1.02c-.01-.7-.18-1.23-.5-1.62a1.7 1.7 0 0 0-1.38-.58c-.57 0-1.05.2-1.44.61-.4.4-.64.94-.74 1.6h4.06zm6.52 4.4c-.28.15-.66.23-1.12.23-1.31 0-1.97-.73-1.97-2.2v-4.43h-1.29v-1.03h1.29v-1.83l1.2-.39v2.22h1.9v1.03h-1.9v4.22c0 .5.09.86.26 1.08.17.21.45.32.85.32.3 0 .56-.08.78-.25v1.03zm2.02.23a.78.78 0 0 1-.57-.24.8.8 0 0 1-.24-.58.8.8 0 0 1 .24-.58.77.77 0 0 1 .57-.25.8.8 0 0 1 .59.25.8.8 0 0 1 .24.58c0 .23-.08.42-.24.58a.8.8 0 0 1-.59.24zM295.73 278h-1.75v-4.56h-4.94V278h-1.74v-10.5h1.74v4.41h4.94v-4.41h1.75V278zm8.56-3.29h-5.12c.02.7.24 1.23.64 1.6.41.38.97.57 1.69.57.8 0 1.53-.24 2.2-.72v1.37c-.68.43-1.59.65-2.71.65-1.1 0-1.97-.34-2.6-1.03a4.09 4.09 0 0 1-.94-2.87 4 4 0 0 1 1.04-2.85c.69-.74 1.55-1.1 2.57-1.1 1.03 0 1.82.32 2.38.98.57.66.85 1.58.85 2.75v.65zm-1.64-1.2c0-.61-.15-1.08-.44-1.42-.28-.34-.67-.51-1.17-.51-.49 0-.9.17-1.24.53-.34.36-.55.82-.63 1.4h3.48zm7.4-1.4a1.4 1.4 0 0 0-.88-.23c-.5 0-.92.22-1.26.68-.34.45-.5 1.07-.5 1.85V278h-1.7v-7.5h1.7v1.55h.02c.17-.53.42-.94.77-1.24.34-.3.73-.44 1.15-.44.31 0 .54.04.7.14v1.6zm7.22 2.6h-5.1c.01.7.23 1.23.63 1.6.41.38.97.57 1.68.57.8 0 1.54-.24 2.2-.72v1.37c-.67.43-1.58.65-2.7.65-1.1 0-1.97-.34-2.6-1.03a4.09 4.09 0 0 1-.94-2.87 4 4 0 0 1 1.04-2.85c.69-.74 1.55-1.1 2.57-1.1 1.03 0 1.82.32 2.38.98.56.66.84 1.58.84 2.75v.65zm-1.64-1.2c0-.61-.14-1.08-.43-1.42-.28-.34-.67-.51-1.17-.51-.49 0-.9.17-1.24.53-.34.36-.55.82-.63 1.4h3.47zm12.74 4.49h-1.64v-1.17h-.03a2.48 2.48 0 0 1-2.28 1.35 2.4 2.4 0 0 1-1.73-.6 2.1 2.1 0 0 1-.63-1.6c0-1.41.82-2.24 2.45-2.47l2.22-.31c0-1.07-.5-1.6-1.52-1.6-.9 0-1.7.3-2.42.91v-1.48c.8-.47 1.7-.7 2.74-.7 1.9 0 2.84.93 2.84 2.8V278zm-1.64-3.68l-1.57.22a2.5 2.5 0 0 0-1.1.35c-.25.17-.37.48-.37.91a1 1 0 0 0 .34.78c.22.2.53.3.9.3.53 0 .96-.18 1.3-.54.33-.36.5-.82.5-1.37v-.65zm7.87-2.2a1.4 1.4 0 0 0-.89-.24c-.5 0-.92.22-1.26.68-.34.45-.5 1.07-.5 1.85V278h-1.7v-7.5h1.7v1.55h.03c.16-.53.42-.94.76-1.24.34-.3.73-.44 1.15-.44.31 0 .55.04.7.14v1.6zm7.22 2.6h-5.12c.02.68.24 1.22.65 1.6.4.37.96.56 1.68.56.8 0 1.53-.24 2.2-.72v1.37c-.68.43-1.59.65-2.7.65s-1.98-.34-2.6-1.03a4.09 4.09 0 0 1-.95-2.87 4 4 0 0 1 1.04-2.85c.7-.74 1.55-1.1 2.57-1.1 1.03 0 1.82.32 2.38.98.57.66.85 1.58.85 2.75v.65zm-1.64-1.21c0-.61-.15-1.08-.44-1.42-.28-.34-.67-.51-1.17-.51-.49 0-.9.17-1.24.53-.34.36-.55.82-.63 1.4h3.48zm10.93 4.4c-.33.18-.76.26-1.3.26-1.46 0-2.19-.7-2.19-2.1v-4.24h-1.25v-1.33h1.25v-1.74l1.7-.48v2.22h1.8v1.33h-1.8v3.75c0 .45.08.76.24.96.16.19.43.28.8.28.3 0 .54-.08.75-.25v1.35zm11.35-7.41l-2.2 7.5h-1.79l-1.36-5.08c-.05-.2-.09-.42-.1-.66h-.03a3 3 0 0 1-.13.64l-1.48 5.1h-1.75l-2.2-7.5h1.76l1.36 5.4c.04.17.07.38.09.65h.05c.01-.2.05-.42.12-.66l1.51-5.39h1.6l1.35 5.43c.04.17.07.38.1.64h.04c.01-.18.05-.4.11-.64l1.34-5.43h1.61zm4.33 7.68a3.72 3.72 0 0 1-2.77-1.06 3.8 3.8 0 0 1-1.04-2.78c0-1.26.36-2.25 1.08-2.95.72-.71 1.7-1.07 2.91-1.07a3.6 3.6 0 0 1 2.74 1.04c.66.69.98 1.64.98 2.86 0 1.2-.35 2.16-1.05 2.88a3.8 3.8 0 0 1-2.85 1.08zm.08-6.5c-.66 0-1.19.23-1.57.7-.39.46-.58 1.1-.58 1.91 0 .79.2 1.4.58 1.86.4.45.92.68 1.57.68.67 0 1.18-.22 1.54-.67.36-.44.54-1.08.54-1.9a3 3 0 0 0-.54-1.9 1.86 1.86 0 0 0-1.54-.68zm13.23 6.24c-.33.17-.77.25-1.3.25-1.46 0-2.2-.7-2.2-2.1v-4.24h-1.24v-1.33h1.25v-1.74l1.7-.48v2.22h1.8v1.33h-1.8v3.75c0 .45.08.76.24.96.16.19.43.28.8.28.3 0 .54-.08.75-.25v1.35zm7.93.08h-1.7v-4.1c0-1.49-.5-2.23-1.48-2.23-.5 0-.92.22-1.26.65-.35.43-.52.98-.52 1.64V278h-1.7v-11.1h1.7v4.85h.03a2.68 2.68 0 0 1 2.43-1.43c1.67 0 2.5 1.02 2.5 3.06V278zm2.72-9.07c-.27 0-.51-.1-.71-.28a.9.9 0 0 1-.3-.68c0-.28.1-.51.3-.7a1 1 0 0 1 .71-.28c.3 0 .54.1.74.28.2.19.3.42.3.7a.9.9 0 0 1-.3.67c-.2.2-.45.29-.74.29zm.85 9.07h-1.7v-7.5h1.7v7.5zm8.7 0h-1.7v-4.23c0-1.4-.5-2.1-1.5-2.1-.5 0-.94.2-1.27.58-.34.4-.5.88-.5 1.47V278h-1.71v-7.5h1.7v1.25h.03a2.67 2.67 0 0 1 2.43-1.43c.82 0 1.44.27 1.87.8.43.53.65 1.3.65 2.3V278zm8.7-.6c0 2.75-1.39 4.13-4.16 4.13-.98 0-1.83-.16-2.55-.49v-1.55c.82.47 1.6.7 2.33.7 1.78 0 2.67-.88 2.67-2.63v-.82h-.02a2.75 2.75 0 0 1-2.54 1.44c-.91 0-1.65-.34-2.2-1a4.04 4.04 0 0 1-.85-2.69c0-1.27.3-2.29.9-3.04a3 3 0 0 1 2.48-1.13c1 0 1.73.4 2.2 1.22h.03v-1.04h1.7v6.9zm-1.7-2.84v-.97c0-.53-.17-.98-.51-1.35a1.72 1.72 0 0 0-1.31-.56 1.8 1.8 0 0 0-1.51.71 3.22 3.22 0 0 0-.55 2c0 .74.17 1.33.52 1.77.35.44.82.66 1.4.66a1.8 1.8 0 0 0 1.42-.63c.37-.43.55-.97.55-1.63zm3.24 3.2v-1.57c.63.48 1.33.73 2.1.73 1.02 0 1.54-.3 1.54-.91a.72.72 0 0 0-.13-.44c-.1-.12-.21-.22-.36-.32a2.8 2.8 0 0 0-.53-.25l-.67-.24c-.31-.13-.59-.26-.84-.4-.24-.13-.45-.28-.61-.46a1.76 1.76 0 0 1-.37-.59 2.17 2.17 0 0 1-.13-.77c0-.36.09-.68.26-.95.17-.28.4-.51.69-.7.29-.19.61-.33.98-.42a5.16 5.16 0 0 1 3 .17v1.49a3.14 3.14 0 0 0-2.4-.48c-.18.04-.32.1-.45.18a.9.9 0 0 0-.28.28.67.67 0 0 0-.1.37c0 .16.03.3.1.4.07.12.17.22.3.3.14.09.3.17.49.24l.64.23c.33.13.62.27.87.4.26.14.48.3.66.47a1.82 1.82 0 0 1 .56 1.4c0 .39-.09.72-.26 1a2.2 2.2 0 0 1-.7.7c-.3.2-.64.33-1.02.42-.38.1-.79.14-1.21.14a5.1 5.1 0 0 1-2.13-.41zm17.15-7.26l-3.38 8.7c-.7 1.55-1.69 2.33-2.96 2.33-.36 0-.65-.03-.9-.1v-1.4c.28.08.52.12.74.12.63 0 1.1-.3 1.42-.93l.5-1.23-2.98-7.49h1.89l1.78 5.45.14.54h.03l.13-.53 1.88-5.46h1.71zm4.15 7.68a3.72 3.72 0 0 1-2.78-1.06 3.8 3.8 0 0 1-1.03-2.78c0-1.26.36-2.25 1.08-2.95.72-.71 1.69-1.07 2.91-1.07a3.6 3.6 0 0 1 2.74 1.04c.65.69.98 1.64.98 2.86 0 1.2-.35 2.16-1.06 2.88a3.8 3.8 0 0 1-2.84 1.08zm.08-6.5c-.67 0-1.2.23-1.58.7-.38.46-.58 1.1-.58 1.91 0 .79.2 1.4.59 1.86.39.45.91.68 1.57.68.67 0 1.18-.22 1.54-.67.36-.44.54-1.08.54-1.9a3 3 0 0 0-.54-1.9 1.86 1.86 0 0 0-1.54-.68zM443.8 278h-1.7v-1.19h-.03c-.5.91-1.26 1.37-2.3 1.37-1.77 0-2.66-1.07-2.66-3.2v-4.48h1.7v4.3c0 1.35.52 2.03 1.56 2.03.5 0 .92-.19 1.24-.56.33-.37.49-.86.49-1.46v-4.31h1.7v7.5zm11.3-.34c-.6.34-1.3.52-2.13.52a3.6 3.6 0 0 1-2.7-1.05 3.7 3.7 0 0 1-1.02-2.7c0-1.24.37-2.23 1.1-2.98a3.94 3.94 0 0 1 2.95-1.13c.69 0 1.29.12 1.81.36v1.59a2.74 2.74 0 0 0-1.67-.6c-.72 0-1.3.25-1.76.74a2.66 2.66 0 0 0-.7 1.9c0 .78.22 1.4.66 1.84a2.3 2.3 0 0 0 1.74.68c.6 0 1.18-.22 1.72-.65v1.48zm7.24.34h-1.64v-1.17h-.03a2.48 2.48 0 0 1-2.28 1.35 2.4 2.4 0 0 1-1.73-.6 2.1 2.1 0 0 1-.63-1.6c0-1.41.82-2.24 2.45-2.47l2.22-.31c0-1.07-.5-1.6-1.52-1.6-.9 0-1.7.3-2.42.91v-1.48c.8-.47 1.7-.7 2.74-.7 1.9 0 2.84.93 2.84 2.8V278zm-1.64-3.68l-1.57.22a2.5 2.5 0 0 0-1.1.35c-.25.17-.37.48-.37.91a1 1 0 0 0 .34.78c.23.2.53.3.91.3.52 0 .95-.18 1.29-.54.33-.36.5-.82.5-1.37v-.65zm10.2 3.68h-1.7v-4.23c0-1.4-.5-2.1-1.49-2.1-.52 0-.94.2-1.28.58-.34.4-.5.88-.5 1.47V278h-1.71v-7.5h1.7v1.25h.03a2.67 2.67 0 0 1 2.44-1.43c.81 0 1.43.27 1.86.8.43.53.65 1.3.65 2.3V278zm9.75-.08c-.33.17-.77.25-1.31.25-1.46 0-2.18-.7-2.18-2.1v-4.24h-1.26v-1.33h1.26v-1.74l1.7-.48v2.22h1.79v1.33h-1.8v3.75c0 .45.08.76.25.96.16.19.43.28.8.28.29 0 .54-.08.75-.25v1.35zm5.61-5.8a1.4 1.4 0 0 0-.88-.24c-.5 0-.92.22-1.26.68-.34.45-.5 1.07-.5 1.85V278h-1.7v-7.5h1.7v1.55h.02c.17-.53.42-.94.77-1.24.34-.3.73-.44 1.15-.44.3 0 .54.04.7.14v1.6zm8.1-1.62l-3.38 8.7c-.7 1.55-1.7 2.33-2.96 2.33-.36 0-.65-.03-.9-.1v-1.4c.27.08.52.12.74.12.63 0 1.1-.3 1.42-.93l.5-1.23-2.98-7.49h1.89l1.78 5.45.14.54h.03l.13-.53 1.88-5.46h1.71zm1.63 7.66c-.29 0-.54-.1-.74-.29a.92.92 0 0 1-.31-.69c0-.27.1-.5.3-.7.21-.2.46-.3.75-.3.3 0 .55.1.76.3a.93.93 0 0 1 0 1.4c-.2.18-.46.28-.76.28zm0-5.8c-.29 0-.54-.09-.74-.28a.92.92 0 0 1-.31-.7c0-.27.1-.5.3-.7.21-.2.46-.29.75-.29.3 0 .55.1.76.3a.93.93 0 0 1 0 1.39c-.2.2-.46.29-.76.29zm-157.47 37.2c-.78.41-1.75.62-2.9.62-1.5 0-2.7-.49-3.6-1.45a5.32 5.32 0 0 1-1.34-3.78c0-1.68.5-3.04 1.51-4.08a5.15 5.15 0 0 1 3.85-1.55c1 0 1.82.15 2.48.43v1.31a5.02 5.02 0 0 0-2.5-.63c-1.2 0-2.18.4-2.93 1.21a4.55 4.55 0 0 0-1.12 3.23c0 1.28.35 2.3 1.05 3.06.7.76 1.62 1.14 2.76 1.14 1.05 0 1.96-.23 2.74-.7v1.2zm7.9.44h-1.2v-4.32c0-1.56-.58-2.35-1.75-2.35a1.9 1.9 0 0 0-1.48.68c-.4.45-.6 1.03-.6 1.74V310h-1.2v-11.1h1.2v4.85h.03a2.73 2.73 0 0 1 2.46-1.43c1.7 0 2.54 1.02 2.54 3.06V310zm7.99-3.45h-5.3c.02.84.25 1.48.68 1.93.43.46 1.02.69 1.77.69.85 0 1.62-.28 2.33-.84v1.13c-.66.48-1.53.72-2.62.72-1.05 0-1.89-.34-2.5-1.03-.6-.68-.9-1.64-.9-2.87a4.1 4.1 0 0 1 1-2.85 3.18 3.18 0 0 1 2.46-1.1c.98 0 1.74.31 2.27.95.54.63.81 1.51.81 2.64v.63zm-1.23-1.02c0-.7-.17-1.23-.5-1.62a1.7 1.7 0 0 0-1.38-.58c-.56 0-1.04.2-1.44.61-.4.4-.64.94-.73 1.6h4.05zm7.86 4.13a3.9 3.9 0 0 1-2.05.52 3.4 3.4 0 0 1-2.6-1.05c-.65-.7-.98-1.6-.98-2.7 0-1.24.36-2.23 1.07-2.98a3.72 3.72 0 0 1 2.83-1.13c.66 0 1.24.13 1.74.37v1.23a3.05 3.05 0 0 0-1.78-.59c-.77 0-1.4.28-1.89.83-.5.55-.74 1.27-.74 2.16 0 .88.23 1.58.7 2.08.46.51 1.08.77 1.85.77.66 0 1.27-.22 1.85-.66v1.15zm7.74.34h-1.68l-3.31-3.6h-.03v3.6h-1.2v-11.1h1.2v7.04h.03l3.14-3.44h1.58l-3.48 3.62 3.75 3.88zm10.7-7.5l-3.44 8.7c-.62 1.55-1.48 2.33-2.6 2.33-.3 0-.57-.03-.78-.1v-1.07c.26.09.5.13.71.13.6 0 1.06-.36 1.37-1.08l.6-1.42-2.93-7.49h1.33l2.03 5.77.15.57h.05l.14-.55 2.13-5.79h1.25zm4.06 7.68c-1.1 0-2-.35-2.66-1.06a3.9 3.9 0 0 1-.99-2.78c0-1.26.35-2.25 1.03-2.95a3.71 3.71 0 0 1 2.8-1.07c1.11 0 1.99.35 2.61 1.04.63.69.94 1.64.94 2.86 0 1.2-.33 2.16-1.01 2.88a3.55 3.55 0 0 1-2.72 1.08zm.09-6.85c-.77 0-1.38.27-1.83.8a3.23 3.23 0 0 0-.68 2.16c0 .9.23 1.6.68 2.1.46.52 1.07.78 1.83.78a2.2 2.2 0 0 0 1.79-.76c.42-.5.62-1.22.62-2.15 0-.93-.2-1.66-.62-2.16a2.19 2.19 0 0 0-1.8-.77zm11.33 6.67h-1.2v-1.19h-.03c-.5.91-1.27 1.37-2.32 1.37-1.78 0-2.68-1.07-2.68-3.2v-4.48h1.2v4.3c0 1.57.6 2.37 1.81 2.37.59 0 1.07-.22 1.45-.65.38-.44.57-1 .57-1.7v-4.32h1.2v7.5zm6.03-6.28a1.47 1.47 0 0 0-.9-.25c-.52 0-.95.25-1.29.73a3.35 3.35 0 0 0-.52 1.98V310h-1.2v-7.5h1.2v1.55h.03c.17-.53.44-.94.79-1.24.35-.3.74-.44 1.18-.44.3 0 .55.03.71.1v1.25zm11.04 6.28h-1.2v-4.28c0-1.59-.58-2.39-1.74-2.39-.6 0-1.1.23-1.5.68-.39.45-.58 1.02-.58 1.71V310h-1.2v-7.5h1.2v1.25h.03a2.7 2.7 0 0 1 2.46-1.43c.82 0 1.45.27 1.88.8.43.53.65 1.3.65 2.3V310zm8-3.45h-5.3c.02.84.24 1.48.67 1.93.43.46 1.02.69 1.77.69.85 0 1.62-.28 2.33-.84v1.13c-.66.48-1.53.72-2.61.72-1.06 0-1.9-.34-2.5-1.03-.6-.68-.9-1.64-.9-2.87a4.1 4.1 0 0 1 .98-2.85 3.18 3.18 0 0 1 2.47-1.1c.98 0 1.74.31 2.28.95.53.63.8 1.51.8 2.64v.63zm-1.24-1.02c0-.7-.17-1.23-.5-1.62a1.7 1.7 0 0 0-1.37-.58c-.57 0-1.05.2-1.45.61-.4.4-.64.94-.73 1.6h4.05zm6.23 4.4c-.28.15-.66.23-1.12.23-1.32 0-1.97-.73-1.97-2.2v-4.43h-1.3v-1.03h1.3v-1.83l1.2-.39v2.22h1.89v1.03h-1.9v4.22c0 .5.1.86.26 1.08.18.21.46.32.85.32.3 0 .57-.08.79-.25v1.03zm10.75-7.43l-2.25 7.5h-1.24l-1.55-5.37a3.5 3.5 0 0 1-.12-.7h-.03c-.01.18-.06.4-.15.69l-1.68 5.38h-1.2l-2.27-7.5h1.26l1.55 5.64c.05.17.09.4.1.67h.07c.01-.21.05-.44.13-.69l1.73-5.62h1.1l1.55 5.65c.05.18.08.41.1.68h.07c0-.2.05-.42.12-.68l1.52-5.65h1.19zm4.18 7.68c-1.1 0-2-.35-2.65-1.06a3.9 3.9 0 0 1-1-2.78c0-1.26.35-2.25 1.04-2.95a3.71 3.71 0 0 1 2.79-1.07c1.12 0 1.99.35 2.62 1.04.62.69.94 1.64.94 2.86 0 1.2-.34 2.16-1.02 2.88a3.55 3.55 0 0 1-2.72 1.08zm.1-6.85c-.78 0-1.4.27-1.84.8a3.23 3.23 0 0 0-.67 2.16c0 .9.22 1.6.68 2.1.45.52 1.06.78 1.82.78a2.2 2.2 0 0 0 1.8-.76c.4-.5.62-1.22.62-2.15 0-.93-.21-1.66-.63-2.16a2.19 2.19 0 0 0-1.79-.77zm9.17.39a1.47 1.47 0 0 0-.91-.25c-.51 0-.94.25-1.29.73a3.35 3.35 0 0 0-.51 1.98V310h-1.2v-7.5h1.2v1.55h.03c.17-.53.43-.94.78-1.24.35-.3.75-.44 1.18-.44.31 0 .55.03.72.1v1.25zm7.23 6.28h-1.69l-3.3-3.6h-.04v3.6h-1.2v-11.1h1.2v7.04h.03l3.15-3.44h1.58l-3.48 3.62 3.75 3.88zm9.85-.34a3.9 3.9 0 0 1-2.05.52 3.4 3.4 0 0 1-2.6-1.05c-.65-.7-.98-1.6-.98-2.7 0-1.24.36-2.23 1.07-2.98a3.72 3.72 0 0 1 2.83-1.13c.66 0 1.24.13 1.74.37v1.23a3.05 3.05 0 0 0-1.78-.59c-.77 0-1.4.28-1.89.83-.49.55-.74 1.27-.74 2.16 0 .88.24 1.58.7 2.08.46.51 1.08.77 1.85.77.66 0 1.27-.22 1.85-.66v1.15zm4.65.52c-1.1 0-2-.35-2.65-1.06a3.9 3.9 0 0 1-1-2.78c0-1.26.35-2.25 1.04-2.95a3.71 3.71 0 0 1 2.79-1.07c1.11 0 1.99.35 2.61 1.04.63.69.95 1.64.95 2.86 0 1.2-.34 2.16-1.02 2.88a3.55 3.55 0 0 1-2.72 1.08zm.09-6.85c-.77 0-1.38.27-1.83.8a3.23 3.23 0 0 0-.68 2.16c0 .9.23 1.6.68 2.1.46.52 1.07.78 1.83.78a2.2 2.2 0 0 0 1.79-.76c.42-.5.63-1.22.63-2.15 0-.93-.21-1.66-.63-2.16a2.19 2.19 0 0 0-1.8-.77zm11.49 6.67h-1.2v-4.28c0-1.59-.58-2.39-1.74-2.39-.6 0-1.1.23-1.5.68-.39.45-.58 1.02-.58 1.71V310h-1.2v-7.5h1.2v1.25h.03a2.7 2.7 0 0 1 2.46-1.43c.82 0 1.44.27 1.88.8.43.53.65 1.3.65 2.3V310zm8.19 0h-1.2v-4.28c0-1.59-.58-2.39-1.75-2.39-.6 0-1.1.23-1.49.68-.39.45-.59 1.02-.59 1.71V310h-1.2v-7.5h1.2v1.25h.03a2.7 2.7 0 0 1 2.46-1.43c.83 0 1.45.27 1.89.8.43.53.65 1.3.65 2.3V310zm7.99-3.45h-5.3c.02.84.25 1.48.68 1.93.43.46 1.02.69 1.77.69.85 0 1.62-.28 2.33-.84v1.13c-.66.48-1.53.72-2.61.72-1.06 0-1.9-.34-2.5-1.03-.6-.68-.91-1.64-.91-2.87a4.1 4.1 0 0 1 1-2.85 3.18 3.18 0 0 1 2.46-1.1c.98 0 1.74.31 2.27.95.54.63.81 1.51.81 2.64v.63zm-1.23-1.02c0-.7-.17-1.23-.5-1.62a1.7 1.7 0 0 0-1.38-.58c-.56 0-1.04.2-1.44.61-.4.4-.64.94-.73 1.6h4.05zm7.86 4.13a3.9 3.9 0 0 1-2.05.52 3.4 3.4 0 0 1-2.6-1.05c-.65-.7-.98-1.6-.98-2.7 0-1.24.36-2.23 1.07-2.98a3.72 3.72 0 0 1 2.83-1.13c.66 0 1.24.13 1.74.37v1.23a3.05 3.05 0 0 0-1.78-.59c-.77 0-1.4.28-1.89.83-.49.55-.74 1.27-.74 2.16 0 .88.24 1.58.7 2.08.46.51 1.08.77 1.85.77.66 0 1.27-.22 1.85-.66v1.15zm5 .27c-.29.15-.66.23-1.13.23-1.31 0-1.97-.73-1.97-2.2v-4.43h-1.29v-1.03h1.3v-1.83l1.2-.39v2.22h1.88v1.03h-1.89v4.22c0 .5.09.86.26 1.08.17.21.46.32.85.32.3 0 .56-.08.78-.25v1.03zm1.91-9.33a.76.76 0 0 1-.77-.78.75.75 0 0 1 .78-.78.78.78 0 0 1 .78.78c0 .21-.07.4-.23.55a.77.77 0 0 1-.56.23zm.59 9.4h-1.2v-7.5h1.2v7.5zm5.27.18c-1.11 0-2-.35-2.66-1.06a3.9 3.9 0 0 1-1-2.78c0-1.26.35-2.25 1.04-2.95a3.71 3.71 0 0 1 2.8-1.07c1.11 0 1.98.35 2.61 1.04.63.69.94 1.64.94 2.86 0 1.2-.34 2.16-1.01 2.88a3.55 3.55 0 0 1-2.72 1.08zm.08-6.85c-.77 0-1.38.27-1.83.8a3.23 3.23 0 0 0-.67 2.16c0 .9.23 1.6.68 2.1.45.52 1.06.78 1.82.78a2.2 2.2 0 0 0 1.8-.76c.41-.5.62-1.22.62-2.15 0-.93-.2-1.66-.63-2.16a2.19 2.19 0 0 0-1.79-.77zm11.5 6.67h-1.2v-4.28c0-1.59-.59-2.39-1.75-2.39-.6 0-1.1.23-1.49.68-.4.45-.59 1.02-.59 1.71V310h-1.2v-7.5h1.2v1.25h.03a2.7 2.7 0 0 1 2.46-1.43c.82 0 1.45.27 1.88.8.44.53.66 1.3.66 2.3V310zm2.38.16a.78.78 0 0 1-.58-.24.8.8 0 0 1-.24-.58.8.8 0 0 1 .24-.58.77.77 0 0 1 .58-.25.8.8 0 0 1 .58.25.8.8 0 0 1 .24.58c0 .23-.08.42-.24.58a.8.8 0 0 1-.58.24zM333.63 331.5v1.05h-1.02v8.4h1.02V342h-3.28v-1.05h1.03v-8.4h-1.03v-1.05h3.28zm4.98.45a1.6 1.6 0 0 0-.8-.2c-.83 0-1.25.53-1.25 1.6v1.15h1.75v1.03h-1.75V342h-1.2v-6.47h-1.28v-1.03h1.28v-1.22c0-.78.23-1.4.68-1.86a2.3 2.3 0 0 1 1.7-.68c.37 0 .66.04.87.13v1.08zm10.47 2.55l-3.45 8.7c-.61 1.55-1.48 2.33-2.6 2.33-.3 0-.57-.03-.78-.1v-1.07c.26.09.5.13.71.13.61 0 1.06-.36 1.37-1.08l.6-1.42-2.93-7.49h1.33l2.03 5.77.15.57h.05l.14-.55 2.14-5.79h1.24zm4.05 7.68c-1.1 0-2-.35-2.65-1.06a3.9 3.9 0 0 1-1-2.78c0-1.26.35-2.25 1.04-2.95a3.71 3.71 0 0 1 2.79-1.07c1.12 0 1.99.35 2.62 1.04.62.69.94 1.64.94 2.86 0 1.2-.34 2.16-1.02 2.88a3.55 3.55 0 0 1-2.72 1.08zm.09-6.85c-.77 0-1.38.27-1.83.8a3.23 3.23 0 0 0-.68 2.16c0 .9.23 1.6.69 2.1.45.52 1.06.78 1.82.78a2.2 2.2 0 0 0 1.79-.76c.42-.5.63-1.22.63-2.15 0-.93-.21-1.66-.63-2.16a2.19 2.19 0 0 0-1.8-.77zm11.33 6.67h-1.2v-1.19h-.03c-.5.91-1.27 1.37-2.32 1.37-1.78 0-2.68-1.07-2.68-3.2v-4.48h1.2v4.3c0 1.57.6 2.37 1.81 2.37.59 0 1.07-.22 1.45-.65.38-.44.57-1 .57-1.7v-4.32h1.2v7.5zm11.3 0h-1.2v-1.17h-.03c-.52.9-1.29 1.35-2.3 1.35-.75 0-1.34-.2-1.76-.6-.42-.4-.63-.92-.63-1.57 0-1.4.82-2.22 2.47-2.45l2.25-.31c0-1.28-.51-1.92-1.54-1.92-.9 0-1.72.31-2.45.93v-1.23c.74-.47 1.59-.7 2.55-.7 1.76 0 2.64.93 2.64 2.8V342zm-1.2-3.8l-1.8.26c-.57.07-.99.21-1.27.4-.28.2-.42.56-.42 1.06 0 .37.13.67.39.9.26.23.6.35 1.04.35.6 0 1.09-.21 1.48-.63.39-.42.58-.95.58-1.59v-.74zm7.08-2.48a1.47 1.47 0 0 0-.91-.25c-.51 0-.94.25-1.29.73a3.35 3.35 0 0 0-.51 1.98V342h-1.2v-7.5h1.2v1.55h.03c.17-.53.43-.94.78-1.24.35-.3.74-.44 1.18-.44.31 0 .55.03.72.1v1.25zm6.83 2.83h-5.3c.02.84.25 1.48.68 1.93.43.46 1.02.69 1.77.69.85 0 1.62-.28 2.33-.84v1.13c-.66.48-1.53.72-2.62.72-1.05 0-1.89-.34-2.5-1.03-.6-.68-.9-1.64-.9-2.87a4.1 4.1 0 0 1 1-2.85 3.18 3.18 0 0 1 2.46-1.1c.98 0 1.74.31 2.27.95.54.63.81 1.51.81 2.64v.63zm-1.23-1.02c0-.7-.17-1.23-.5-1.62a1.7 1.7 0 0 0-1.38-.58c-.56 0-1.04.2-1.44.61-.4.4-.64.94-.73 1.6h4.05zm11.67 4.13a3.9 3.9 0 0 1-2.05.52 3.4 3.4 0 0 1-2.6-1.05c-.65-.7-.98-1.6-.98-2.7 0-1.24.36-2.23 1.06-2.98a3.72 3.72 0 0 1 2.84-1.13c.66 0 1.24.13 1.74.37v1.23a3.05 3.05 0 0 0-1.79-.59c-.76 0-1.39.28-1.88.83-.5.55-.74 1.27-.74 2.16 0 .88.23 1.58.7 2.08.46.51 1.08.77 1.85.77.66 0 1.27-.22 1.85-.66v1.15zm4.65.52c-1.11 0-2-.35-2.66-1.06a3.9 3.9 0 0 1-.99-2.78c0-1.26.35-2.25 1.03-2.95a3.71 3.71 0 0 1 2.8-1.07c1.11 0 1.99.35 2.61 1.04.63.69.94 1.64.94 2.86 0 1.2-.33 2.16-1.01 2.88a3.55 3.55 0 0 1-2.72 1.08zm.09-6.85c-.78 0-1.39.27-1.83.8a3.23 3.23 0 0 0-.68 2.16c0 .9.23 1.6.68 2.1.46.52 1.06.78 1.83.78a2.2 2.2 0 0 0 1.79-.76c.41-.5.62-1.22.62-2.15 0-.93-.2-1.66-.62-2.16a2.19 2.19 0 0 0-1.8-.77zm11.49 6.67h-1.2v-4.28c0-1.59-.58-2.39-1.75-2.39-.6 0-1.1.23-1.49.68-.39.45-.59 1.02-.59 1.71V342H409v-7.5h1.2v1.25h.03a2.7 2.7 0 0 1 2.46-1.43c.82 0 1.45.27 1.89.8.43.53.65 1.3.65 2.3V342zm8.19 0h-1.2v-4.28c0-1.59-.59-2.39-1.75-2.39-.6 0-1.1.23-1.49.68-.4.45-.59 1.02-.59 1.71V342h-1.2v-7.5h1.2v1.25h.03a2.7 2.7 0 0 1 2.46-1.43c.82 0 1.45.27 1.89.8.43.53.65 1.3.65 2.3V342zm7.99-3.45h-5.3c.02.84.25 1.48.68 1.93.43.46 1.02.69 1.77.69.84 0 1.62-.28 2.33-.84v1.13c-.66.48-1.53.72-2.62.72-1.06 0-1.89-.34-2.5-1.03-.6-.68-.9-1.64-.9-2.87a4.1 4.1 0 0 1 .99-2.85 3.18 3.18 0 0 1 2.46-1.1c.99 0 1.75.31 2.28.95.54.63.8 1.51.8 2.64v.63zm-1.23-1.02c0-.7-.17-1.23-.5-1.62a1.7 1.7 0 0 0-1.38-.58c-.56 0-1.04.2-1.44.61-.4.4-.64.94-.73 1.6h4.05zm7.86 4.13a3.9 3.9 0 0 1-2.05.52 3.4 3.4 0 0 1-2.6-1.05c-.65-.7-.98-1.6-.98-2.7 0-1.24.36-2.23 1.06-2.98a3.72 3.72 0 0 1 2.84-1.13c.66 0 1.24.13 1.74.37v1.23a3.05 3.05 0 0 0-1.79-.59c-.76 0-1.4.28-1.88.83-.5.55-.74 1.27-.74 2.16 0 .88.23 1.58.7 2.08.46.51 1.07.77 1.85.77.66 0 1.27-.22 1.85-.66v1.15zm5 .27c-.3.15-.66.23-1.13.23-1.31 0-1.97-.73-1.97-2.2v-4.43h-1.29v-1.03h1.3v-1.83l1.2-.39v2.22h1.88v1.03h-1.89v4.22c0 .5.09.86.26 1.08.17.21.45.32.85.32.3 0 .56-.08.78-.25v1.03zm7.2-3.38h-5.29c.02.84.25 1.48.68 1.93.43.46 1.02.69 1.77.69.84 0 1.62-.28 2.33-.84v1.13c-.66.48-1.53.72-2.62.72-1.06 0-1.89-.34-2.5-1.03-.6-.68-.9-1.64-.9-2.87a4.1 4.1 0 0 1 .99-2.85 3.18 3.18 0 0 1 2.46-1.1c.98 0 1.74.31 2.28.95.54.63.8 1.51.8 2.64v.63zm-1.22-1.02c0-.7-.18-1.23-.5-1.62a1.7 1.7 0 0 0-1.38-.58c-.56 0-1.05.2-1.44.61-.4.4-.64.94-.73 1.6h4.05zm9.14 4.47h-1.2v-1.27h-.03a2.77 2.77 0 0 1-2.57 1.45 2.8 2.8 0 0 1-2.26-1.01 4.13 4.13 0 0 1-.85-2.74c0-1.24.31-2.24.94-2.99a3.1 3.1 0 0 1 2.5-1.12c1.03 0 1.78.4 2.24 1.22h.03v-4.64h1.2V342zm-1.2-3.4v-1.1c0-.6-.2-1.12-.6-1.54-.4-.42-.9-.63-1.52-.63-.73 0-1.3.27-1.73.81a3.53 3.53 0 0 0-.63 2.23c0 .86.2 1.54.6 2.04.4.5.95.76 1.63.76.67 0 1.21-.25 1.63-.73.41-.48.62-1.1.62-1.83zm8.38 2.32h-.03V342h-1.2v-11.1h1.2v4.92h.03c.59-1 1.45-1.5 2.59-1.5.96 0 1.71.34 2.26 1.01.54.67.81 1.57.81 2.7 0 1.26-.3 2.26-.91 3.01a3.05 3.05 0 0 1-2.5 1.14c-1 0-1.75-.42-2.25-1.26zm-.03-3.03v1.05c0 .62.2 1.14.6 1.58a2 2 0 0 0 1.54.65c.72 0 1.3-.28 1.7-.84.42-.56.62-1.33.62-2.32 0-.84-.19-1.5-.57-1.96-.39-.48-.91-.72-1.57-.72-.7 0-1.26.25-1.69.73-.42.49-.63 1.1-.63 1.83zm13.38 4.11h-1.2v-1.19h-.03c-.5.91-1.27 1.37-2.32 1.37-1.78 0-2.68-1.07-2.68-3.2v-4.48h1.2v4.3c0 1.57.6 2.37 1.81 2.37.59 0 1.07-.22 1.45-.65.38-.44.57-1 .57-1.7v-4.32h1.2v7.5zm5.6-.07c-.28.15-.66.23-1.12.23-1.31 0-1.97-.73-1.97-2.2v-4.43h-1.29v-1.03h1.3v-1.83l1.2-.39v2.22h1.88v1.03h-1.89v4.22c0 .5.09.86.26 1.08.17.21.45.32.85.32.3 0 .56-.08.78-.25v1.03zm6.34-1.01h-.02V342h-1.2v-11.1h1.2v4.92h.02c.6-1 1.46-1.5 2.6-1.5.96 0 1.71.34 2.26 1.01.54.67.81 1.57.81 2.7 0 1.26-.3 2.26-.91 3.01a3.05 3.05 0 0 1-2.5 1.14c-1 0-1.75-.42-2.26-1.26zm-.02-3.03v1.05c0 .62.2 1.14.6 1.58a2 2 0 0 0 1.53.65c.73 0 1.3-.28 1.71-.84.42-.56.62-1.33.62-2.32 0-.84-.19-1.5-.58-1.96-.38-.48-.9-.72-1.56-.72-.7 0-1.26.25-1.69.73-.42.49-.63 1.1-.63 1.83zm13.34.66h-5.3c.02.84.25 1.48.68 1.93.43.46 1.02.69 1.77.69.85 0 1.62-.28 2.33-.84v1.13c-.66.48-1.53.72-2.61.72-1.06 0-1.9-.34-2.5-1.03-.6-.68-.91-1.64-.91-2.87a4.1 4.1 0 0 1 1-2.85 3.18 3.18 0 0 1 2.46-1.1c.98 0 1.74.31 2.27.95.54.63.81 1.51.81 2.64v.63zm-1.23-1.02c0-.7-.17-1.23-.5-1.62a1.7 1.7 0 0 0-1.37-.58c-.57 0-1.05.2-1.45.61-.4.4-.64.94-.73 1.6h4.05zm8.97 4.47h-1.2v-4.32c0-1.56-.58-2.35-1.74-2.35a1.9 1.9 0 0 0-1.48.68c-.4.45-.6 1.03-.6 1.74V342h-1.2v-11.1h1.2v4.85h.03a2.73 2.73 0 0 1 2.46-1.43c1.69 0 2.53 1.02 2.53 3.06V342zm2.58-9.4a.76.76 0 0 1-.78-.78c0-.23.08-.41.23-.56a.75.75 0 0 1 .55-.22.78.78 0 0 1 .8.78c0 .21-.08.4-.24.55a.77.77 0 0 1-.56.23zm.59 9.4h-1.2v-7.5h1.2v7.5zm8.35 0h-1.2v-4.28c0-1.59-.58-2.39-1.74-2.39-.6 0-1.1.23-1.5.68-.38.45-.58 1.02-.58 1.71V342h-1.2v-7.5h1.2v1.25h.03a2.7 2.7 0 0 1 2.46-1.43c.82 0 1.45.27 1.88.8.44.53.65 1.3.65 2.3V342zm8.37 0h-1.2v-1.27h-.03a2.77 2.77 0 0 1-2.58 1.45 2.8 2.8 0 0 1-2.26-1.01 4.13 4.13 0 0 1-.85-2.74c0-1.24.32-2.24.94-2.99a3.1 3.1 0 0 1 2.5-1.12c1.03 0 1.78.4 2.25 1.22h.03v-4.64h1.2V342zm-1.2-3.4v-1.1c0-.6-.2-1.12-.6-1.54-.4-.42-.91-.63-1.53-.63-.73 0-1.3.27-1.73.81a3.53 3.53 0 0 0-.62 2.23c0 .86.2 1.54.6 2.04.4.5.94.76 1.62.76.67 0 1.21-.25 1.63-.73.42-.48.63-1.1.63-1.83zm12.5 3.4h-1.2v-1.17h-.02c-.53.9-1.3 1.35-2.31 1.35-.75 0-1.33-.2-1.75-.6-.43-.4-.64-.92-.64-1.57 0-1.4.83-2.22 2.48-2.45l2.25-.31c0-1.28-.52-1.92-1.55-1.92-.9 0-1.72.31-2.45.93v-1.23c.74-.47 1.6-.7 2.55-.7 1.77 0 2.65.93 2.65 2.8V342zm-1.2-3.8l-1.8.26c-.56.07-.98.21-1.26.4-.29.2-.43.56-.43 1.06 0 .37.13.67.4.9.26.23.6.35 1.04.35.6 0 1.09-.21 1.47-.63.4-.42.59-.95.59-1.59v-.74zm10.69-6.25a1.6 1.6 0 0 0-.8-.2c-.84 0-1.26.53-1.26 1.6v1.15h1.76v1.03h-1.76V342h-1.2v-6.47h-1.28v-1.03h1.28v-1.22c0-.78.23-1.4.69-1.86a2.3 2.3 0 0 1 1.7-.68c.36 0 .65.04.87.13v1.08zm1.3.65a.76.76 0 0 1-.78-.78c0-.23.08-.41.23-.56a.75.75 0 0 1 .55-.22.78.78 0 0 1 .8.78c0 .21-.09.4-.24.55a.77.77 0 0 1-.56.23zm.59 9.4h-1.2v-7.5h1.2v7.5zm6.04-6.28a1.47 1.47 0 0 0-.91-.25c-.51 0-.94.25-1.28.73a3.35 3.35 0 0 0-.52 1.98V342h-1.2v-7.5h1.2v1.55h.03c.17-.53.43-.94.78-1.24.35-.3.75-.44 1.18-.44.31 0 .55.03.72.1v1.25zm6.83 2.83h-5.3c.03.84.25 1.48.68 1.93.43.46 1.02.69 1.77.69.85 0 1.62-.28 2.33-.84v1.13c-.66.48-1.53.72-2.61.72-1.06 0-1.9-.34-2.5-1.03-.6-.68-.9-1.64-.9-2.87a4.1 4.1 0 0 1 .98-2.85 3.18 3.18 0 0 1 2.47-1.1c.98 0 1.74.31 2.28.95.53.63.8 1.51.8 2.64v.63zm-1.23-1.02c0-.7-.17-1.23-.5-1.62a1.7 1.7 0 0 0-1.37-.58c-.57 0-1.05.2-1.45.61-.4.4-.64.94-.73 1.6h4.05zm12.2-3.03l-2.25 7.5h-1.25l-1.54-5.37a3.5 3.5 0 0 1-.12-.7h-.03c-.01.18-.06.4-.15.69l-1.68 5.38h-1.2l-2.27-7.5h1.26l1.55 5.64c.05.17.08.4.1.67h.06c.02-.21.06-.44.13-.69l1.73-5.62h1.1l1.55 5.65c.05.18.09.41.11.68h.06c.01-.2.05-.42.13-.68l1.52-5.65h1.19zm6.46 7.5h-1.2v-1.17h-.03c-.53.9-1.3 1.35-2.31 1.35-.75 0-1.33-.2-1.75-.6-.43-.4-.64-.92-.64-1.57 0-1.4.83-2.22 2.48-2.45l2.25-.31c0-1.28-.52-1.92-1.55-1.92-.9 0-1.72.31-2.45.93v-1.23c.74-.47 1.6-.7 2.55-.7 1.77 0 2.65.93 2.65 2.8V342zm-1.2-3.8l-1.81.26c-.56.07-.98.21-1.26.4-.29.2-.43.56-.43 1.06 0 .37.13.67.4.9.26.23.6.35 1.04.35.6 0 1.09-.21 1.47-.63.4-.42.59-.95.59-1.59v-.74zm4.36 3.8h-1.2v-11.1h1.2V342zm3.33 0h-1.2v-11.1h1.2V342zm3.23-1.67l-1.17 3.6h-.85l.85-3.6h1.17zm10.78 1.33a3.9 3.9 0 0 1-2.05.52 3.4 3.4 0 0 1-2.6-1.05c-.65-.7-.98-1.6-.98-2.7 0-1.24.36-2.23 1.07-2.98a3.72 3.72 0 0 1 2.83-1.13c.66 0 1.24.13 1.74.37v1.23a3.05 3.05 0 0 0-1.78-.59c-.77 0-1.4.28-1.89.83-.49.55-.74 1.27-.74 2.16 0 .88.24 1.58.7 2.08.46.51 1.08.77 1.85.77.66 0 1.27-.22 1.85-.66v1.15zm7.74.34h-1.2v-4.32c0-1.56-.58-2.35-1.74-2.35a1.9 1.9 0 0 0-1.48.68c-.4.45-.6 1.03-.6 1.74V342h-1.2v-11.1h1.2v4.85h.03a2.73 2.73 0 0 1 2.46-1.43c1.69 0 2.53 1.02 2.53 3.06V342zm8-3.45h-5.3c.02.84.24 1.48.67 1.93.43.46 1.02.69 1.77.69.85 0 1.62-.28 2.33-.84v1.13c-.66.48-1.53.72-2.61.72-1.06 0-1.9-.34-2.5-1.03-.6-.68-.9-1.64-.9-2.87a4.1 4.1 0 0 1 .98-2.85 3.18 3.18 0 0 1 2.47-1.1c.98 0 1.74.31 2.28.95.53.63.8 1.51.8 2.64v.63zm-1.24-1.02c0-.7-.17-1.23-.5-1.62a1.7 1.7 0 0 0-1.37-.58c-.57 0-1.05.2-1.45.61-.4.4-.64.94-.73 1.6h4.05zm7.86 4.13a3.9 3.9 0 0 1-2.05.52 3.4 3.4 0 0 1-2.59-1.05c-.66-.7-.98-1.6-.98-2.7 0-1.24.35-2.23 1.06-2.98a3.72 3.72 0 0 1 2.83-1.13c.66 0 1.24.13 1.75.37v1.23a3.05 3.05 0 0 0-1.8-.59c-.76 0-1.39.28-1.88.83-.49.55-.73 1.27-.73 2.16 0 .88.23 1.58.69 2.08.46.51 1.08.77 1.86.77.65 0 1.26-.22 1.84-.66v1.15zm7.74.34h-1.68l-3.31-3.6h-.03v3.6h-1.2v-11.1h1.2v7.04h.03l3.15-3.44h1.57l-3.48 3.62 3.75 3.88zm8.22-.07c-.28.15-.66.23-1.12.23-1.31 0-1.97-.73-1.97-2.2v-4.43H639v-1.03h1.3v-1.83l1.2-.39v2.22h1.88v1.03h-1.89v4.22c0 .5.09.86.26 1.08.17.21.45.32.85.32.3 0 .56-.08.78-.25v1.03zm7.53.07h-1.2v-4.32c0-1.56-.58-2.35-1.74-2.35a1.9 1.9 0 0 0-1.48.68c-.4.45-.6 1.03-.6 1.74V342h-1.2v-11.1h1.2v4.85h.03a2.73 2.73 0 0 1 2.46-1.43c1.69 0 2.53 1.02 2.53 3.06V342zm7.33 0h-1.2v-1.17h-.03c-.52.9-1.29 1.35-2.3 1.35-.75 0-1.34-.2-1.76-.6-.42-.4-.63-.92-.63-1.57 0-1.4.82-2.22 2.47-2.45l2.25-.31c0-1.28-.51-1.92-1.54-1.92-.9 0-1.72.31-2.45.93v-1.23c.74-.47 1.59-.7 2.55-.7 1.76 0 2.64.93 2.64 2.8V342zm-1.2-3.8l-1.8.26c-.56.07-.98.21-1.27.4-.28.2-.42.56-.42 1.06 0 .37.13.67.39.9.26.23.6.35 1.04.35.6 0 1.1-.21 1.48-.63.39-.42.58-.95.58-1.59v-.74zm6.64 3.73c-.28.15-.65.23-1.12.23-1.3 0-1.97-.73-1.97-2.2v-4.43h-1.28v-1.03h1.28v-1.83l1.2-.39v2.22h1.9v1.03h-1.9v4.22c0 .5.1.86.26 1.08.17.21.46.32.85.32.3 0 .57-.08.78-.25v1.03zm10.61-9.32h-4.1v3.63h3.8v1.1h-3.8V342h-1.23v-10.5h5.33v1.11zm2.15-.01a.76.76 0 0 1-.78-.78c0-.23.08-.41.23-.56a.75.75 0 0 1 .55-.22.78.78 0 0 1 .79.78c0 .21-.08.4-.23.55a.77.77 0 0 1-.56.23zm.58 9.4h-1.2v-7.5h1.2v7.5zm6.05-6.28a1.47 1.47 0 0 0-.91-.25c-.51 0-.94.25-1.29.73a3.35 3.35 0 0 0-.51 1.98V342h-1.2v-7.5h1.2v1.55h.03c.17-.53.43-.94.78-1.24.35-.3.74-.44 1.18-.44.31 0 .55.03.72.1v1.25zm6.83 2.83h-5.3c.02.84.25 1.48.68 1.93.43.46 1.02.69 1.77.69.85 0 1.62-.28 2.33-.84v1.13c-.66.48-1.53.72-2.61.72-1.06 0-1.9-.34-2.5-1.03-.6-.68-.91-1.64-.91-2.87a4.1 4.1 0 0 1 1-2.85 3.18 3.18 0 0 1 2.46-1.1c.98 0 1.74.31 2.27.95.54.63.81 1.51.81 2.64v.63zm-1.23-1.02c0-.7-.17-1.23-.5-1.62a1.7 1.7 0 0 0-1.38-.58c-.56 0-1.04.2-1.44.61-.4.4-.64.94-.73 1.6h4.05zm6.45-5.58a1.6 1.6 0 0 0-.8-.2c-.84 0-1.26.53-1.26 1.6v1.15h1.76v1.03h-1.76V342h-1.19v-6.47h-1.28v-1.03h1.28v-1.22c0-.78.23-1.4.68-1.86a2.3 2.3 0 0 1 1.7-.68c.37 0 .66.04.87.13v1.08zm3.83 10.23c-1.11 0-2-.35-2.66-1.06a3.9 3.9 0 0 1-1-2.78c0-1.26.35-2.25 1.04-2.95a3.71 3.71 0 0 1 2.8-1.07c1.11 0 1.98.35 2.61 1.04.63.69.94 1.64.94 2.86 0 1.2-.34 2.16-1.01 2.88a3.55 3.55 0 0 1-2.72 1.08zm.08-6.85c-.77 0-1.38.27-1.83.8a3.23 3.23 0 0 0-.67 2.16c0 .9.23 1.6.68 2.1.45.52 1.06.78 1.82.78a2.2 2.2 0 0 0 1.8-.76c.41-.5.62-1.22.62-2.15 0-.93-.2-1.66-.63-2.16a2.19 2.19 0 0 0-1.79-.77zm10.57-.83l-2.52 3.8 2.47 3.7h-1.4l-1.47-2.43c-.1-.15-.2-.34-.33-.57h-.03l-.34.57-1.5 2.43h-1.39l2.56-3.68-2.45-3.82h1.4l1.45 2.56.32.59h.02l1.88-3.15h1.33zM337.44 364h-1.2v-4.32c0-1.56-.58-2.35-1.74-2.35a1.9 1.9 0 0 0-1.48.68c-.4.45-.6 1.03-.6 1.74V364h-1.2v-11.1h1.2v4.85h.03a2.73 2.73 0 0 1 2.46-1.43c1.69 0 2.53 1.02 2.53 3.06V364zm7.33 0h-1.2v-1.17h-.03c-.52.9-1.29 1.35-2.3 1.35-.75 0-1.34-.2-1.76-.6-.42-.4-.63-.92-.63-1.57 0-1.4.82-2.22 2.47-2.45l2.25-.31c0-1.28-.51-1.92-1.54-1.92-.9 0-1.72.31-2.45.93v-1.23c.74-.47 1.59-.7 2.55-.7 1.76 0 2.64.93 2.64 2.8V364zm-1.2-3.8l-1.8.26c-.56.07-.98.21-1.27.4-.28.2-.42.56-.42 1.06 0 .37.13.67.39.9.26.23.6.35 1.04.35.6 0 1.1-.21 1.48-.63.39-.42.58-.95.58-1.59v-.74zm2.71 3.53v-1.29c.66.48 1.38.73 2.16.73 1.06 0 1.58-.36 1.58-1.06 0-.2-.04-.37-.13-.5a1.35 1.35 0 0 0-.37-.38c-.15-.1-.33-.2-.54-.29l-.67-.27a8.63 8.63 0 0 1-.87-.4 2.64 2.64 0 0 1-.63-.45c-.17-.17-.3-.36-.38-.57a2.03 2.03 0 0 1-.13-.76c0-.35.08-.66.24-.93.16-.27.37-.5.64-.68a3 3 0 0 1 .92-.42 4.3 4.3 0 0 1 2.8.2l.01 1.22a3.4 3.4 0 0 0-2.51-.47c-.18.05-.34.13-.47.22a1 1 0 0 0-.3.33.88.88 0 0 0-.1.43c0 .2.03.36.1.49s.18.25.31.35c.14.1.3.2.5.28l.67.27c.33.13.63.26.9.4.26.13.48.28.67.45.18.17.33.36.43.58.1.22.15.48.15.78 0 .37-.09.7-.25.97s-.38.5-.66.68a3 3 0 0 1-.94.4c-.36.1-.73.14-1.12.14-.77 0-1.44-.15-2-.45zm11.56-.81h-.03v4.53h-1.2V356.5h1.2v1.32h.03c.6-1 1.46-1.5 2.6-1.5.96 0 1.71.34 2.26 1.01.54.67.8 1.57.8 2.7 0 1.26-.3 2.26-.9 3.01a3.05 3.05 0 0 1-2.51 1.14 2.5 2.5 0 0 1-2.25-1.26zm-.03-3.03v1.05c0 .62.2 1.14.6 1.58a2 2 0 0 0 1.54.65c.73 0 1.3-.28 1.71-.84.41-.56.62-1.33.62-2.32 0-.84-.2-1.5-.58-1.96-.39-.48-.9-.72-1.57-.72-.7 0-1.26.25-1.68.73-.43.49-.64 1.1-.64 1.83zm13.35.66h-5.3c.02.84.24 1.48.67 1.93.43.46 1.03.69 1.78.69.84 0 1.62-.28 2.33-.84v1.13c-.66.48-1.53.72-2.62.72-1.06 0-1.9-.34-2.5-1.03-.6-.68-.9-1.64-.9-2.87a4.1 4.1 0 0 1 .99-2.85 3.18 3.18 0 0 1 2.46-1.1c.98 0 1.74.31 2.28.95.54.63.8 1.51.8 2.64v.63zm-1.23-1.02c0-.7-.18-1.23-.5-1.62a1.7 1.7 0 0 0-1.38-.58c-.57 0-1.05.2-1.44.61-.4.4-.64.94-.73 1.6h4.05zm6.65-1.81a1.47 1.47 0 0 0-.9-.25c-.52 0-.95.25-1.29.73a3.35 3.35 0 0 0-.52 1.98V364h-1.2v-7.5h1.2v1.55h.03c.17-.53.44-.94.79-1.24.35-.3.74-.44 1.18-.44.3 0 .55.03.71.1v1.25zm11.63 6.28H387v-4.3c0-.84-.13-1.44-.39-1.8-.25-.38-.69-.57-1.3-.57-.5 0-.94.24-1.3.7a2.69 2.69 0 0 0-.54 1.7V364h-1.2v-4.45c0-1.48-.57-2.22-1.7-2.22-.53 0-.97.23-1.3.67a2.74 2.74 0 0 0-.52 1.72V364h-1.2v-7.5h1.2v1.19h.03c.53-.91 1.3-1.37 2.33-1.37a2.17 2.17 0 0 1 2.12 1.56 2.68 2.68 0 0 1 2.5-1.56c1.64 0 2.47 1.02 2.47 3.06V364zm2.58-9.4a.76.76 0 0 1-.77-.78.75.75 0 0 1 .78-.78.78.78 0 0 1 .78.78c0 .21-.07.4-.23.55a.77.77 0 0 1-.56.23zm.59 9.4h-1.2v-7.5h1.2v7.5zm1.68-.27v-1.29c.65.48 1.37.73 2.16.73 1.05 0 1.58-.36 1.58-1.06 0-.2-.05-.37-.14-.5a1.35 1.35 0 0 0-.36-.38c-.16-.1-.34-.2-.54-.29l-.67-.27a8.63 8.63 0 0 1-.88-.4 2.64 2.64 0 0 1-.63-.45c-.17-.17-.3-.36-.38-.57a2.03 2.03 0 0 1-.13-.76c0-.35.08-.66.24-.93.16-.27.38-.5.65-.68a3 3 0 0 1 .92-.42 4.3 4.3 0 0 1 2.8.2v1.22a3.4 3.4 0 0 0-2.5-.47c-.19.05-.34.13-.47.22a1 1 0 0 0-.3.33.88.88 0 0 0-.1.43c0 .2.03.36.1.49s.17.25.3.35c.15.1.31.2.5.28l.67.27c.34.13.63.26.9.4.26.13.49.28.67.45.19.17.33.36.43.58.1.22.15.48.15.78 0 .37-.08.7-.25.97-.16.27-.38.5-.65.68a3 3 0 0 1-.95.4c-.35.1-.73.14-1.12.14-.77 0-1.44-.15-2-.45zm6.06 0v-1.29c.66.48 1.38.73 2.16.73 1.06 0 1.58-.36 1.58-1.06 0-.2-.04-.37-.13-.5a1.35 1.35 0 0 0-.37-.38c-.15-.1-.33-.2-.54-.29l-.67-.27a8.63 8.63 0 0 1-.87-.4 2.64 2.64 0 0 1-.63-.45c-.17-.17-.3-.36-.39-.57a2.03 2.03 0 0 1-.12-.76c0-.35.08-.66.24-.93.16-.27.37-.5.64-.68a3 3 0 0 1 .92-.42 4.3 4.3 0 0 1 2.8.2l.01 1.22a3.4 3.4 0 0 0-2.51-.47c-.18.05-.34.13-.47.22a1 1 0 0 0-.3.33.88.88 0 0 0-.1.43c0 .2.03.36.1.49s.18.25.31.35c.14.1.3.2.5.28l.67.27c.33.13.63.26.9.4.26.13.48.28.67.45.18.17.32.36.42.58.1.22.15.48.15.78 0 .37-.08.7-.24.97-.16.27-.38.5-.66.68a3 3 0 0 1-.94.4c-.36.1-.73.14-1.12.14-.77 0-1.44-.15-2-.45zm7.14-9.13a.76.76 0 0 1-.78-.78c0-.23.07-.41.23-.56a.75.75 0 0 1 .55-.22.78.78 0 0 1 .79.78c0 .21-.08.4-.23.55a.77.77 0 0 1-.56.23zm.58 9.4h-1.2v-7.5h1.2v7.5zm5.27.18c-1.11 0-2-.35-2.66-1.06a3.9 3.9 0 0 1-.99-2.78c0-1.26.34-2.25 1.03-2.95a3.71 3.71 0 0 1 2.8-1.07c1.11 0 1.98.35 2.61 1.04.63.69.94 1.64.94 2.86 0 1.2-.33 2.16-1.01 2.88a3.55 3.55 0 0 1-2.72 1.08zm.09-6.85c-.78 0-1.39.27-1.84.8a3.23 3.23 0 0 0-.67 2.16c0 .9.23 1.6.68 2.1.46.52 1.06.78 1.83.78a2.2 2.2 0 0 0 1.79-.76c.41-.5.62-1.22.62-2.15 0-.93-.2-1.66-.62-2.16a2.19 2.19 0 0 0-1.8-.77zm11.49 6.67h-1.2v-4.28c0-1.59-.58-2.39-1.75-2.39-.6 0-1.1.23-1.49.68-.39.45-.59 1.02-.59 1.71V364h-1.2v-7.5h1.2v1.25h.03a2.7 2.7 0 0 1 2.46-1.43c.82 0 1.45.27 1.89.8.43.53.65 1.3.65 2.3V364zm9.25-.07c-.28.15-.66.23-1.12.23-1.32 0-1.97-.73-1.97-2.2v-4.43h-1.3v-1.03h1.3v-1.83l1.2-.39v2.22h1.89v1.03h-1.9v4.22c0 .5.1.86.27 1.08.17.21.45.32.85.32.3 0 .56-.08.78-.25v1.03zm4.32.25c-1.1 0-2-.35-2.65-1.06a3.9 3.9 0 0 1-1-2.78c0-1.26.35-2.25 1.04-2.95a3.71 3.71 0 0 1 2.79-1.07c1.11 0 1.99.35 2.61 1.04.63.69.95 1.64.95 2.86 0 1.2-.34 2.16-1.02 2.88a3.55 3.55 0 0 1-2.72 1.08zm.09-6.85c-.77 0-1.38.27-1.83.8a3.23 3.23 0 0 0-.68 2.16c0 .9.23 1.6.68 2.1.46.52 1.07.78 1.83.78a2.2 2.2 0 0 0 1.79-.76c.42-.5.63-1.22.63-2.15 0-.93-.21-1.66-.63-2.16a2.19 2.19 0 0 0-1.8-.77zm14.44 6.67h-1.2v-1.17h-.03c-.52.9-1.29 1.35-2.3 1.35-.75 0-1.34-.2-1.76-.6-.42-.4-.63-.92-.63-1.57 0-1.4.82-2.22 2.47-2.45l2.25-.31c0-1.28-.51-1.92-1.54-1.92-.9 0-1.72.31-2.45.93v-1.23c.74-.47 1.59-.7 2.55-.7 1.76 0 2.64.93 2.64 2.8V364zm-1.2-3.8l-1.8.26c-.56.07-.98.21-1.27.4-.28.2-.42.56-.42 1.06 0 .37.13.67.39.9.26.23.6.35 1.04.35.6 0 1.1-.21 1.48-.63.39-.42.58-.95.58-1.59v-.74zm8.28 3.46a3.9 3.9 0 0 1-2.05.52 3.4 3.4 0 0 1-2.6-1.05c-.65-.7-.98-1.6-.98-2.7 0-1.24.36-2.23 1.06-2.98a3.72 3.72 0 0 1 2.84-1.13c.66 0 1.24.13 1.74.37v1.23a3.05 3.05 0 0 0-1.78-.59c-.77 0-1.4.28-1.9.83-.48.55-.73 1.27-.73 2.16 0 .88.23 1.58.7 2.08.46.51 1.08.77 1.85.77.66 0 1.27-.22 1.85-.66v1.15zm6.63 0a3.9 3.9 0 0 1-2.05.52 3.4 3.4 0 0 1-2.6-1.05c-.65-.7-.98-1.6-.98-2.7 0-1.24.36-2.23 1.06-2.98a3.72 3.72 0 0 1 2.84-1.13c.66 0 1.24.13 1.74.37v1.23a3.05 3.05 0 0 0-1.79-.59c-.76 0-1.4.28-1.88.83-.5.55-.74 1.27-.74 2.16 0 .88.23 1.58.7 2.08.46.51 1.07.77 1.85.77.66 0 1.27-.22 1.85-.66v1.15zm7.54-3.11h-5.3c.02.84.25 1.48.68 1.93.43.46 1.02.69 1.77.69.85 0 1.62-.28 2.33-.84v1.13c-.66.48-1.53.72-2.61.72-1.06 0-1.9-.34-2.5-1.03-.6-.68-.91-1.64-.91-2.87a4.1 4.1 0 0 1 1-2.85 3.18 3.18 0 0 1 2.46-1.1c.98 0 1.74.31 2.28.95.53.63.8 1.51.8 2.64v.63zm-1.23-1.02c0-.7-.17-1.23-.5-1.62a1.7 1.7 0 0 0-1.37-.58c-.57 0-1.05.2-1.45.61-.4.4-.64.94-.73 1.6h4.05zm2.3 4.2v-1.29c.65.48 1.37.73 2.15.73 1.06 0 1.59-.36 1.59-1.06 0-.2-.05-.37-.14-.5a1.35 1.35 0 0 0-.37-.38c-.15-.1-.33-.2-.54-.29l-.67-.27a8.63 8.63 0 0 1-.87-.4 2.64 2.64 0 0 1-.63-.45c-.17-.17-.3-.36-.38-.57a2.03 2.03 0 0 1-.13-.76c0-.35.08-.66.24-.93.16-.27.38-.5.64-.68a3 3 0 0 1 .92-.42 4.3 4.3 0 0 1 2.8.2l.01 1.22a3.4 3.4 0 0 0-2.51-.47c-.18.05-.34.13-.47.22a1 1 0 0 0-.3.33.88.88 0 0 0-.1.43c0 .2.03.36.1.49.08.13.18.25.32.35.13.1.3.2.5.28l.66.27c.33.13.63.26.9.4.26.13.48.28.67.45.18.17.33.36.43.58.1.22.15.48.15.78 0 .37-.09.7-.25.97s-.38.5-.65.68a3 3 0 0 1-.95.4c-.36.1-.73.14-1.12.14-.77 0-1.44-.15-2-.45zm6.06 0v-1.29c.65.48 1.37.73 2.16.73 1.05 0 1.58-.36 1.58-1.06 0-.2-.04-.37-.13-.5a1.35 1.35 0 0 0-.37-.38c-.15-.1-.34-.2-.54-.29l-.67-.27a8.63 8.63 0 0 1-.88-.4 2.64 2.64 0 0 1-.63-.45c-.17-.17-.3-.36-.38-.57a2.03 2.03 0 0 1-.13-.76c0-.35.08-.66.24-.93.17-.27.38-.5.65-.68a3 3 0 0 1 .92-.42 4.3 4.3 0 0 1 2.8.2v1.22a3.4 3.4 0 0 0-2.5-.47c-.19.05-.34.13-.47.22a1 1 0 0 0-.3.33.88.88 0 0 0-.1.43c0 .2.03.36.1.49s.17.25.31.35c.14.1.3.2.5.28l.67.27c.33.13.62.26.89.4.26.13.49.28.67.45.19.17.33.36.43.58.1.22.15.48.15.78 0 .37-.08.7-.24.97-.17.27-.39.5-.66.68a3 3 0 0 1-.94.4c-.36.1-.73.14-1.13.14-.77 0-1.44-.15-2-.45zm13.8.2c-.28.15-.65.23-1.12.23-1.3 0-1.97-.73-1.97-2.2v-4.43h-1.29v-1.03h1.3v-1.83l1.2-.39v2.22h1.88v1.03h-1.89v4.22c0 .5.09.86.26 1.08.17.21.46.32.85.32.3 0 .56-.08.78-.25v1.03zm7.53.07h-1.2v-4.32c0-1.56-.58-2.35-1.74-2.35a1.9 1.9 0 0 0-1.48.68c-.4.45-.6 1.03-.6 1.74V364h-1.2v-11.1h1.2v4.85h.03a2.73 2.73 0 0 1 2.46-1.43c1.69 0 2.53 1.02 2.53 3.06V364zm8-3.45h-5.3c.02.84.24 1.48.67 1.93.43.46 1.02.69 1.78.69.84 0 1.62-.28 2.33-.84v1.13c-.66.48-1.54.72-2.62.72-1.06 0-1.9-.34-2.5-1.03-.6-.68-.9-1.64-.9-2.87a4.1 4.1 0 0 1 .99-2.85 3.18 3.18 0 0 1 2.46-1.1c.98 0 1.74.31 2.28.95.54.63.8 1.51.8 2.64v.63zm-1.24-1.02c0-.7-.17-1.23-.5-1.62a1.7 1.7 0 0 0-1.37-.58c-.57 0-1.05.2-1.44.61-.4.4-.64.94-.74 1.6h4.05zm19.17-6.03l-2.96 10.5h-1.45l-2.16-7.68a4.8 4.8 0 0 1-.17-1.07h-.02c-.03.37-.1.72-.2 1.06L518.3 364h-1.43l-3.07-10.5h1.35l2.23 8.05c.1.34.16.7.18 1.06h.04c.02-.26.1-.61.22-1.06l2.33-8.05h1.17l2.23 8.11c.08.28.14.6.18.98h.03c.02-.25.08-.59.2-1l2.14-8.1h1.33zm6.77 7.05h-5.3c.02.84.25 1.48.68 1.93.43.46 1.02.69 1.77.69.85 0 1.62-.28 2.33-.84v1.13c-.66.48-1.53.72-2.61.72-1.06 0-1.9-.34-2.5-1.03-.6-.68-.91-1.64-.91-2.87a4.1 4.1 0 0 1 1-2.85 3.18 3.18 0 0 1 2.46-1.1c.98 0 1.74.31 2.28.95.53.63.8 1.51.8 2.64v.63zm-1.23-1.02c0-.7-.17-1.23-.5-1.62a1.7 1.7 0 0 0-1.37-.58c-.57 0-1.05.2-1.45.61-.4.4-.64.94-.73 1.6h4.05zm3.98 3.39h-.03V364h-1.2v-11.1h1.2v4.92h.03c.59-1 1.45-1.5 2.59-1.5.96 0 1.72.34 2.26 1.01.54.67.82 1.57.82 2.7 0 1.26-.3 2.26-.92 3.01a3.05 3.05 0 0 1-2.5 1.14c-1 0-1.74-.42-2.25-1.26zm-.03-3.03v1.05c0 .62.2 1.14.6 1.58a2 2 0 0 0 1.54.65c.72 0 1.3-.28 1.7-.84.42-.56.63-1.33.63-2.32 0-.84-.2-1.5-.58-1.96-.39-.48-.91-.72-1.57-.72-.7 0-1.26.25-1.68.73-.43.49-.64 1.1-.64 1.83zm7.73 4.27a.78.78 0 0 1-.57-.24.8.8 0 0 1-.24-.58.8.8 0 0 1 .24-.58.77.77 0 0 1 .57-.25.8.8 0 0 1 .59.25.8.8 0 0 1 .24.58c0 .23-.08.42-.24.58a.8.8 0 0 1-.59.24zM303.8 170v-11.09h-13.23V170h-1.6v-23.1h1.6v10.56h13.23V146.9h1.58V170h-1.58zm27.88 0v-9.93c0-2.07-.33-3.52-.98-4.36-.65-.84-1.68-1.26-3.09-1.26-1.3 0-2.42.56-3.36 1.68a6.29 6.29 0 0 0-1.42 4.2V170h-1.48v-10.04c0-3.67-1.4-5.5-4.2-5.5-1.34 0-2.45.55-3.34 1.67a6.8 6.8 0 0 0-1.34 4.36V170h-1.48v-16.5h1.48v2.74h.06c1.15-2.1 2.83-3.14 5.05-3.14 1.2 0 2.23.34 3.08 1.04a5.1 5.1 0 0 1 1.73 2.73 6.32 6.32 0 0 1 2.22-2.78c.96-.66 2-1 3.13-1 3.61 0 5.42 2.24 5.42 6.71V170h-1.48zm27.11 0v-9.93c0-2.07-.32-3.52-.97-4.36-.65-.84-1.68-1.26-3.09-1.26-1.3 0-2.42.56-3.36 1.68a6.29 6.29 0 0 0-1.42 4.2V170h-1.48v-10.04c0-3.67-1.4-5.5-4.2-5.5-1.34 0-2.45.55-3.35 1.67a6.8 6.8 0 0 0-1.33 4.36V170h-1.49v-16.5h1.49v2.74h.06c1.15-2.1 2.83-3.14 5.04-3.14 1.2 0 2.24.34 3.09 1.04a5.1 5.1 0 0 1 1.73 2.73 6.32 6.32 0 0 1 2.22-2.78c.96-.66 2-1 3.13-1 3.61 0 5.42 2.24 5.42 6.71V170h-1.49zm7.45.29a1.27 1.27 0 0 1-1.29-1.3 1.26 1.26 0 0 1 1.29-1.29c.36 0 .67.12.93.36s.39.55.39.92-.13.68-.39.93-.57.38-.93.38zm34.66-.29h-1.32l-5.14-17.39c-.26-.89-.4-1.61-.44-2.17h-.06c-.04.47-.2 1.19-.5 2.14L387.95 170h-1.32l-6.87-23.1h1.8l5.26 18.5c.24.85.4 1.53.5 2.05h.06c.07-.4.26-1.08.57-2.04l5.7-18.52h.8l5.25 18.52c.24.86.4 1.54.5 2.04h.06a9 9 0 0 1 .26-1.03l5.41-19.53h1.73L400.89 170zm9.4-8.19c0 2.27.52 4.04 1.56 5.32a5.27 5.27 0 0 0 4.31 1.92c1.85 0 3.66-.68 5.42-2.05v1.58a9.64 9.64 0 0 1-5.72 1.82 6.47 6.47 0 0 1-5.16-2.29c-1.31-1.52-1.97-3.67-1.97-6.46 0-2.4.69-4.43 2.06-6.08a6.62 6.62 0 0 1 5.34-2.47c2.05 0 3.63.72 4.72 2.16 1.1 1.44 1.65 3.4 1.65 5.9v.65h-12.22zm10.66-1.35c-.07-1.9-.52-3.38-1.37-4.43a4.26 4.26 0 0 0-3.51-1.58c-1.55 0-2.83.52-3.85 1.56-1.01 1.03-1.64 2.52-1.87 4.45h10.6zm25.36 8.81a8.21 8.21 0 0 1-4.38 1.13 6.93 6.93 0 0 1-5.43-2.3c-1.38-1.55-2.06-3.57-2.06-6.06a9.1 9.1 0 0 1 2.32-6.44 7.76 7.76 0 0 1 5.96-2.5c1.25 0 2.47.25 3.66.77v1.68a7.24 7.24 0 0 0-3.89-1.1c-1.93 0-3.5.7-4.7 2.09a7.97 7.97 0 0 0-1.8 5.4c0 2.14.54 3.86 1.64 5.16a5.43 5.43 0 0 0 4.36 1.95 7.2 7.2 0 0 0 4.32-1.32v1.54zm13.83.73v-3.3h-.07a6.47 6.47 0 0 1-2.3 2.7c-1 .67-2.11 1-3.34 1-1.57 0-2.8-.44-3.72-1.32-.91-.88-1.37-2-1.37-3.33 0-2.88 1.9-4.62 5.72-5.22l5.08-.76c0-3.55-1.34-5.32-4-5.32-1.82 0-3.58.73-5.3 2.2v-1.8c.61-.48 1.44-.9 2.49-1.24a9.5 9.5 0 0 1 2.96-.51c1.7 0 3 .52 3.93 1.58.93 1.05 1.4 2.58 1.4 4.59V170h-1.48zm-4.55-8.22c-1.73.25-2.94.65-3.64 1.2-.7.56-1.05 1.46-1.05 2.7 0 .98.33 1.78.98 2.42.65.63 1.55.95 2.71.95a5.1 5.1 0 0 0 3.97-1.77 6.57 6.57 0 0 0 1.58-4.55v-1.6l-4.55.65zm22.2 8.22v-9.6c0-3.97-1.42-5.95-4.28-5.95-1.59 0-2.9.58-3.92 1.75a6.33 6.33 0 0 0-1.53 4.33V170h-1.48v-16.5h1.48v3h.07a5.97 5.97 0 0 1 5.64-3.4c1.78 0 3.15.6 4.1 1.78.94 1.18 1.4 2.88 1.4 5.08V170h-1.47zm6.8-15.87h-1.17l2.01-7.24h1.68l-2.51 7.24zm13.24 15.64c-.78.37-1.5.55-2.18.55-2.44 0-3.66-1.46-3.66-4.38v-11.09h-2.96v-1.35h2.96v-4.29a29.08 29.08 0 0 1 1.48-.5v4.79h4.36v1.35h-4.36v10.9c0 1.13.18 1.96.54 2.47.36.51.97.76 1.83.76.62 0 1.28-.2 1.99-.6v1.4zm22.99-.5a8.21 8.21 0 0 1-4.38 1.13 6.93 6.93 0 0 1-5.43-2.3c-1.38-1.55-2.07-3.57-2.07-6.06a9.1 9.1 0 0 1 2.32-6.44 7.76 7.76 0 0 1 5.97-2.5c1.25 0 2.47.25 3.65.77v1.68a7.24 7.24 0 0 0-3.88-1.1c-1.93 0-3.5.7-4.7 2.09a7.97 7.97 0 0 0-1.81 5.4c0 2.14.55 3.86 1.65 5.16a5.43 5.43 0 0 0 4.36 1.95 7.2 7.2 0 0 0 4.32-1.32v1.54zm10.59 1.13c-2.41 0-4.32-.79-5.72-2.37-1.4-1.59-2.1-3.65-2.1-6.18 0-2.74.73-4.89 2.2-6.43a7.61 7.61 0 0 1 5.8-2.32c2.35 0 4.2.77 5.57 2.3 1.36 1.54 2.04 3.66 2.04 6.38 0 2.57-.7 4.65-2.08 6.24-1.4 1.59-3.3 2.38-5.71 2.38zm.1-15.95c-1.94 0-3.49.66-4.64 1.97-1.16 1.3-1.73 3.13-1.73 5.46 0 2.16.56 3.9 1.69 5.2a5.78 5.78 0 0 0 4.62 1.97c2 0 3.52-.65 4.6-1.93 1.07-1.3 1.6-3.08 1.6-5.37 0-2.35-.53-4.16-1.6-5.41-1.06-1.26-2.58-1.89-4.53-1.89zm23 15.55v-9.6c0-3.97-1.43-5.95-4.28-5.95-1.6 0-2.9.58-3.92 1.75a6.33 6.33 0 0 0-1.53 4.33V170h-1.48v-16.5h1.48v3h.06a5.97 5.97 0 0 1 5.64-3.4c1.79 0 3.15.6 4.1 1.78.94 1.18 1.41 2.88 1.41 5.08V170h-1.48zm17.66 0v-9.6c0-3.97-1.43-5.95-4.28-5.95-1.6 0-2.9.58-3.92 1.75a6.33 6.33 0 0 0-1.53 4.33V170h-1.48v-16.5h1.48v3h.06a5.97 5.97 0 0 1 5.64-3.4c1.79 0 3.15.6 4.1 1.78.94 1.18 1.41 2.88 1.41 5.08V170h-1.48zm6.8-8.19c0 2.27.53 4.04 1.57 5.32a5.27 5.27 0 0 0 4.31 1.92c1.85 0 3.66-.68 5.42-2.05v1.58a9.64 9.64 0 0 1-5.72 1.82 6.47 6.47 0 0 1-5.16-2.29c-1.31-1.52-1.97-3.67-1.97-6.46 0-2.4.69-4.43 2.06-6.08a6.62 6.62 0 0 1 5.34-2.47c2.05 0 3.63.72 4.72 2.16 1.1 1.44 1.65 3.4 1.65 5.9v.65h-12.22zm10.67-1.35c-.07-1.9-.52-3.38-1.37-4.43a4.26 4.26 0 0 0-3.51-1.58c-1.55 0-2.83.52-3.85 1.56-1.01 1.03-1.64 2.52-1.87 4.45h10.6zm16.32 8.81a8.21 8.21 0 0 1-4.38 1.13 6.93 6.93 0 0 1-5.43-2.3c-1.38-1.55-2.06-3.57-2.06-6.06a9.1 9.1 0 0 1 2.32-6.44 7.76 7.76 0 0 1 5.96-2.5c1.26 0 2.47.25 3.66.77v1.68a7.24 7.24 0 0 0-3.89-1.1c-1.93 0-3.5.7-4.7 2.09a7.97 7.97 0 0 0-1.8 5.4c0 2.14.54 3.86 1.64 5.16a5.43 5.43 0 0 0 4.36 1.95 7.2 7.2 0 0 0 4.32-1.32v1.54zm10.5.5c-.78.37-1.5.55-2.18.55-2.44 0-3.66-1.46-3.66-4.38v-11.09h-2.97v-1.35h2.97v-4.29a29.08 29.08 0 0 1 1.48-.5v4.79h4.35v1.35h-4.35v10.9c0 1.13.18 1.96.54 2.47.36.51.97.76 1.83.76.61 0 1.27-.2 1.98-.6v1.4zm18.83 0c-.78.37-1.5.55-2.18.55-2.44 0-3.66-1.46-3.66-4.38v-11.09h-2.96v-1.35h2.96v-4.29a29.08 29.08 0 0 1 1.49-.5v4.79h4.35v1.35h-4.35v10.9c0 1.13.18 1.96.54 2.47.36.51.97.76 1.83.76.6 0 1.27-.2 1.98-.6v1.4zm9.9.63c-2.42 0-4.32-.79-5.72-2.37-1.4-1.59-2.1-3.65-2.1-6.18 0-2.74.73-4.89 2.2-6.43a7.61 7.61 0 0 1 5.79-2.32c2.35 0 4.2.77 5.57 2.3 1.37 1.54 2.05 3.66 2.05 6.38 0 2.57-.7 4.65-2.09 6.24-1.39 1.59-3.3 2.38-5.7 2.38zm.1-15.95c-1.94 0-3.49.66-4.64 1.97-1.16 1.3-1.74 3.13-1.74 5.46 0 2.16.57 3.9 1.7 5.2a5.78 5.78 0 0 0 4.62 1.97c1.99 0 3.52-.65 4.6-1.93 1.07-1.3 1.6-3.08 1.6-5.37 0-2.35-.53-4.16-1.6-5.41-1.07-1.26-2.58-1.89-4.54-1.89zm27.35 15.32c-.78.37-1.5.55-2.18.55-2.44 0-3.65-1.46-3.65-4.38v-11.09h-2.97v-1.35h2.97v-4.29a29.08 29.08 0 0 1 1.48-.5v4.79h4.35v1.35h-4.35v10.9c0 1.13.18 1.96.54 2.47.36.51.97.76 1.83.76.6 0 1.27-.2 1.98-.6v1.4zm14.48.23v-9.9c0-1.95-.35-3.38-1.06-4.29-.7-.9-1.81-1.36-3.32-1.36-1.42 0-2.66.55-3.74 1.66-1.07 1.1-1.6 2.7-1.6 4.75V170h-1.5v-24.43h1.5v10.9h.06a6.2 6.2 0 0 1 5.67-3.37c1.78 0 3.14.57 4.07 1.72.94 1.15 1.4 2.8 1.4 4.95V170h-1.48zm16.31 0v-3.3h-.06a6.47 6.47 0 0 1-2.3 2.7c-1 .67-2.12 1-3.34 1-1.57 0-2.81-.44-3.73-1.32-.9-.88-1.37-2-1.37-3.33 0-2.88 1.91-4.62 5.72-5.22l5.08-.76c0-3.55-1.33-5.32-4-5.32-1.81 0-3.58.73-5.3 2.2v-1.8c.62-.48 1.45-.9 2.5-1.24a9.5 9.5 0 0 1 2.95-.51c1.7 0 3.01.52 3.94 1.58.93 1.05 1.4 2.58 1.4 4.59V170h-1.49zm-4.54-8.22c-1.73.25-2.95.65-3.64 1.2-.7.56-1.05 1.46-1.05 2.7 0 .98.32 1.78.97 2.42.65.63 1.56.95 2.72.95a5.1 5.1 0 0 0 3.96-1.77 6.57 6.57 0 0 0 1.58-4.55v-1.6l-4.54.65zm17.51 8c-.77.36-1.5.54-2.17.54-2.44 0-3.66-1.46-3.66-4.38v-11.09h-2.97v-1.35h2.97v-4.29a29.08 29.08 0 0 1 1.48-.5v4.79h4.35v1.35h-4.35v10.9c0 1.13.18 1.96.54 2.47.36.51.97.76 1.83.76.61 0 1.27-.2 1.98-.6v1.4zm-428.61 32.5v-1.8a6.2 6.2 0 0 0 2.03 1.15c.8.28 1.48.42 2.06.42 2.59 0 3.88-1.06 3.88-3.18 0-.73-.28-1.35-.85-1.86a10.3 10.3 0 0 0-2.77-1.6 9.4 9.4 0 0 1-3.33-2.13 3.95 3.95 0 0 1-.96-2.69c0-1.34.52-2.42 1.54-3.25a5.85 5.85 0 0 1 3.8-1.24 7.2 7.2 0 0 1 3.64.87v1.67a6.9 6.9 0 0 0-3.8-1.19c-1.09 0-1.97.28-2.63.85-.67.56-1 1.3-1 2.2 0 .78.2 1.42.63 1.9.42.5 1.34 1.06 2.77 1.69 1.72.77 2.9 1.49 3.54 2.15.65.66.97 1.54.97 2.63 0 1.32-.49 2.4-1.47 3.25-.99.86-2.34 1.28-4.07 1.28a6.72 6.72 0 0 1-3.98-1.13zm14.39-19.94c-.32 0-.6-.12-.86-.35a1.2 1.2 0 0 1-.37-.9c0-.36.13-.65.38-.87a1.31 1.31 0 0 1 1.72 0c.26.21.38.5.38.87 0 .34-.12.64-.37.88a1.2 1.2 0 0 1-.88.37zm-.73 20.66v-16.5h1.49V203h-1.49zm13.3-.23c-.78.37-1.5.55-2.18.55-2.44 0-3.66-1.46-3.66-4.38v-11.09h-2.96v-1.35h2.96v-4.29a29.08 29.08 0 0 1 1.49-.5v4.79h4.35v1.35h-4.35v10.9c0 1.13.18 1.96.54 2.47.36.51.96.76 1.82.76.62 0 1.28-.2 1.99-.6v1.4zm3.62-7.96c0 2.27.53 4.04 1.57 5.32a5.27 5.27 0 0 0 4.31 1.92c1.85 0 3.66-.68 5.42-2.05v1.58a9.64 9.64 0 0 1-5.72 1.82 6.47 6.47 0 0 1-5.16-2.29c-1.31-1.52-1.97-3.67-1.97-6.46 0-2.4.69-4.43 2.06-6.08a6.62 6.62 0 0 1 5.34-2.47c2.05 0 3.63.72 4.72 2.16 1.1 1.44 1.65 3.4 1.65 5.9v.65h-12.22zm10.67-1.35c-.07-1.9-.52-3.38-1.37-4.43a4.26 4.26 0 0 0-3.51-1.58c-1.55 0-2.83.52-3.85 1.56-1.01 1.03-1.64 2.52-1.87 4.45h10.6zm6.65 9.83a1.27 1.27 0 0 1-1.29-1.3c0-.38.13-.69.37-.93.25-.24.56-.36.92-.36.37 0 .68.12.94.36.26.24.38.55.38.92s-.12.68-.38.93-.57.38-.94.38z"/><circle cx="314" cy="305" r="4" fill="#0C0C0D"/><circle cx="314" cy="337" r="4" fill="#0C0C0D"/><g fill="#ED00B5" transform="translate(189 154)"><path d="M5.56 10.09c-.72.6-1.61.91-2.67.91H1V2.73h1.77c1.16 0 2.1.3 2.8.88.72.58 1.08 1.65 1.08 3.21 0 1.57-.36 2.66-1.08 3.27zm-.4-5.32c-.25-.48-.55-.8-.91-.95A3.08 3.08 0 0 0 3 3.58h-.97v6.58h.98c.72 0 1.31-.25 1.79-.74.47-.49.71-1.36.71-2.6 0-.9-.12-1.58-.37-2.05zm5.68-2.85c.14.13.2.3.2.51 0 .21-.06.38-.2.51a.74.74 0 0 1-.54.2.7.7 0 0 1-.52-.2.69.69 0 0 1-.2-.5c0-.22.07-.39.2-.52a.7.7 0 0 1 .52-.2c.22 0 .4.07.54.2zm.26 8.28h1.78v.8H8.15v-.8h1.95V5.48H8.2v-.8h2.9v5.52zm6.8-.17a.84.84 0 0 0 .42-.73c0-.21-.04-.38-.1-.51a.96.96 0 0 0-.44-.36c-.22-.11-.54-.22-.98-.33a4.76 4.76 0 0 1-1.64-.67c-.35-.26-.52-.65-.52-1.16 0-.53.22-.95.66-1.26a2.95 2.95 0 0 1 1.74-.47c.88 0 1.64.24 2.3.7l-.46.7a3.03 3.03 0 0 0-1.82-.58c-.91 0-1.37.28-1.37.83 0 .19.05.35.15.47.1.12.27.22.5.31.22.1.56.2 1.02.33.69.19 1.2.42 1.54.7.34.29.51.7.51 1.25 0 .63-.25 1.1-.77 1.41-.5.32-1.14.47-1.88.47-1 0-1.82-.28-2.47-.85l.56-.66a3.14 3.14 0 0 0 1.91.68c.48 0 .86-.09 1.14-.27zm8.52-2.2c0 1-.2 1.8-.62 2.4-.42.6-1.02.9-1.81.9-.69 0-1.25-.24-1.68-.72v3.01l-1.01.12V4.68h.86l.09.88c.23-.32.5-.58.83-.75.33-.18.68-.27 1.05-.27 1.53 0 2.3 1.1 2.3 3.3zm-3.41-2.18c-.27.19-.5.43-.7.72V9.5c.17.25.38.44.63.58.25.14.52.21.82.21.53 0 .92-.2 1.18-.6.26-.4.4-1.03.4-1.86 0-.83-.12-1.45-.36-1.86-.23-.4-.6-.61-1.09-.61-.32 0-.61.1-.88.29zm7.46 3.79c0 .57.35.85 1.05.85.32 0 .68-.07 1.05-.21l.27.73c-.4.21-.9.32-1.5.32-.57 0-1.03-.15-1.37-.47a1.64 1.64 0 0 1-.5-1.27V2.94h-1.95v-.8h2.95v7.3zm8.89.73c.08.11.2.2.4.25l-.26.72c-.62-.08-1-.38-1.15-.9-.23.3-.5.51-.85.66-.34.16-.72.23-1.13.23-.63 0-1.13-.17-1.5-.53a1.88 1.88 0 0 1-.54-1.41c0-.65.25-1.15.76-1.5.5-.35 1.24-.53 2.19-.53h.94v-.52c0-.44-.13-.77-.39-.96-.25-.2-.63-.3-1.11-.3-.48 0-1.03.11-1.65.33l-.27-.77c.74-.26 1.43-.4 2.07-.4.77 0 1.36.18 1.76.54.4.36.6.86.6 1.5v3.04c0 .25.05.43.13.55zm-1.85-.03c.29-.16.52-.38.7-.66V7.86h-.9c-.68 0-1.16.1-1.46.33-.3.23-.44.55-.44.99 0 .8.4 1.2 1.21 1.2.31 0 .61-.08.9-.24zm6.94.9c-.25.72-.59 1.3-1.02 1.74-.43.43-1.04.68-1.81.76l-.15-.8c.43-.07.76-.18 1.02-.33.25-.15.45-.33.59-.55.14-.22.28-.5.4-.86h-.34l-2.2-6.32h1.07l1.81 5.55 1.8-5.55h1.04l-2.21 6.36zm13.7-8.14c.38.2.67.47.87.82.2.35.3.74.3 1.18 0 .52-.11 1.01-.35 1.5-.24.47-.61 1-1.13 1.57-.52.57-1.26 1.3-2.21 2.17h3.89l-.12.86h-4.92v-.82a48.03 48.03 0 0 0 2.4-2.42c.53-.58.89-1.08 1.09-1.5a3 3 0 0 0 .3-1.32c0-.46-.13-.83-.4-1.1-.26-.26-.63-.39-1.09-.39-.4 0-.72.07-.98.2a2.7 2.7 0 0 0-.8.68l-.7-.54c.34-.41.7-.71 1.1-.9.41-.2.88-.29 1.43-.29.5 0 .94.1 1.32.3zm7.76.8c.46.73.69 1.78.69 3.16a6 6 0 0 1-.69 3.17 2.23 2.23 0 0 1-2.01 1.1c-.88 0-1.55-.36-2.01-1.1a6 6 0 0 1-.69-3.17c0-1.38.23-2.43.69-3.16a2.23 2.23 0 0 1 2.01-1.1c.88 0 1.55.37 2.01 1.1zm-3.65 3.16c0 2.3.54 3.46 1.64 3.46 1.1 0 1.64-1.16 1.64-3.46S65 3.42 63.9 3.42c-1.1 0-1.64 1.14-1.64 3.44zm2.2-.55c.16.15.23.33.23.55 0 .22-.07.41-.23.56a.77.77 0 0 1-.56.23.75.75 0 0 1-.56-.23.78.78 0 0 1-.22-.56c0-.22.07-.4.22-.55a.75.75 0 0 1 .56-.23c.22 0 .41.08.56.23z"/><rect width="27" height="1" x="72" y="6"/></g><rect width="430" height="30" x="288" y="143" fill="#FC2DD7" fill-opacity=".25"/><rect width="54" height="30" x="288" y="176" fill="#FC2DD7" fill-opacity=".25"/></g></svg>