<svg xmlns="http://www.w3.org/2000/svg" style="background:#f9f9fa" viewBox="0 0 360 122"><g fill="none" fill-rule="evenodd"><path fill="#0060DF" d="M156.23 66.28c-1.06.6-2.23.9-3.52.9a4.8 4.8 0 0 1-3.63-1.45 5.32 5.32 0 0 1-1.4-3.84c0-1.63.52-2.96 1.55-4a5.26 5.26 0 0 1 3.9-1.57c1.15 0 2.11.19 2.89.56v1.36a5.53 5.53 0 0 0-3.02-.8c-1.18 0-2.14.4-2.9 1.21a4.45 4.45 0 0 0-1.12 3.15c0 1.33.35 2.37 1.04 3.13.7.76 1.65 1.14 2.85 1.14a4.4 4.4 0 0 0 2.13-.5v-2.94h-2.3v-1.1h3.53v4.75zm2.9-8.68a.76.76 0 0 1-.78-.78.75.75 0 0 1 .78-.78.78.78 0 0 1 .78.78c0 .21-.07.4-.23.55a.77.77 0 0 1-.56.23zm.58 9.4h-1.2v-7.5h1.2V67zm5.9-.07c-.28.15-.65.23-1.11.23-1.32 0-1.97-.73-1.97-2.2v-4.43h-1.3V59.5h1.3v-1.83l1.2-.39v2.22h1.89v1.03h-1.9v4.22c0 .5.1.86.26 1.08.18.21.46.32.85.32.3 0 .57-.08.79-.25v1.03zm7.84.07h-1.2v-4.32c0-1.56-.58-2.35-1.75-2.35a1.9 1.9 0 0 0-1.48.68c-.4.45-.6 1.03-.6 1.74V67h-1.2V55.9h1.2v4.85h.03a2.73 2.73 0 0 1 2.46-1.43c1.7 0 2.54 1.02 2.54 3.06V67zm8.33 0h-1.2v-1.19h-.04c-.5.91-1.26 1.37-2.31 1.37-1.79 0-2.68-1.07-2.68-3.2V59.5h1.2v4.3c0 1.57.6 2.37 1.81 2.37.59 0 1.07-.22 1.45-.65.38-.44.56-1 .56-1.7V59.5h1.2V67zm3.65-1.08h-.03V67h-1.2V55.9h1.2v4.92h.03c.6-1 1.46-1.5 2.6-1.5.95 0 1.7.34 2.25 1.01.55.67.82 1.57.82 2.7 0 1.26-.3 2.26-.92 3.01a3.05 3.05 0 0 1-2.5 1.14c-1 0-1.74-.42-2.25-1.26zm-.03-3.03v1.05c0 .62.2 1.14.6 1.58a2 2 0 0 0 1.54.65c.73 0 1.3-.28 1.71-.84.41-.56.62-1.33.62-2.32 0-.84-.2-1.5-.58-1.96-.39-.48-.9-.72-1.57-.72-.7 0-1.26.25-1.68.73-.43.49-.64 1.1-.64 1.83z"/><g transform="translate(200 54)"><path fill="#0060DF" fill-rule="nonzero" d="M4 0H3a3 3 0 0 0-3 3v8a3 3 0 0 0 3 3h8a3 3 0 0 0 3-3v-1a1 1 0 0 0-2 0v1a1 1 0 0 1-1 1H3a1 1 0 0 1-1-1V3a1 1 0 0 1 1-1h1a1 1 0 1 0 0-2z"/><path fill="#0060DF" fill-rule="nonzero" d="M13.01 0h-5a1 1 0 1 0 0 2h2.59L7.3 5.3a1 1 0 1 0 1.42 1.4l3.3-3.29V6a1 1 0 1 0 2 0V1a1 1 0 0 0-1-1z"/></g></g></svg>