<svg xmlns="http://www.w3.org/2000/svg" style="background:#f9f9fa" viewBox="0 0 360 122"><g fill="none" fill-rule="evenodd"><path fill="#0060DF" d="M157.22 62.91v-1.29h-4.29v1.16h2.98v.26c0 1.78-1.29 3-3.18 3-2.12 0-3.44-1.66-3.44-4.33 0-2.63 1.34-4.31 3.44-4.31 1.56 0 2.63.75 3.08 2.18h1.34c-.38-2.1-2.08-3.4-4.42-3.4-2.9 0-4.8 2.2-4.8 5.53 0 3.39 1.88 5.54 4.8 5.54 2.7 0 4.49-1.73 4.49-4.34zm2.2 4.09h1.25v-7.9h-1.26V67zm.62-9.5a.88.88 0 0 0 0-1.76.88.88 0 0 0 0 1.76zm3.56-.44v2.04h-1.27v1.06h1.27v4.79c0 1.5.66 2.1 2.28 2.1.25 0 .5-.02.74-.06v-1.07c-.23.03-.36.03-.58.03-.82 0-1.18-.4-1.18-1.32v-4.47h1.76V59.1h-1.76v-2.04h-1.26zm5 9.94h1.26v-4.67c0-1.34.78-2.23 2.19-2.23 1.2 0 1.82.7 1.82 2.1V67h1.26v-5.11c0-1.86-1.05-2.92-2.72-2.92-1.21 0-2.04.5-2.43 1.38h-.12v-4.38h-1.26V67zm15.22-7.9h-1.26v4.68c0 1.38-.76 2.2-2.15 2.2-1.26 0-1.8-.65-1.8-2.07v-4.8h-1.25v5.1c0 1.87.92 2.93 2.7 2.93 1.2 0 2.04-.5 2.44-1.38h.12V67h1.2v-7.9zm6.3 8.04c-1.1 0-2.04-.52-2.54-1.4h-.11V67h-1.2V55.97h1.25v4.38h.12a2.73 2.73 0 0 1 2.48-1.38c2 0 3.3 1.6 3.3 4.08 0 2.47-1.3 4.09-3.3 4.09zm-.3-7.04c-1.43 0-2.32 1.13-2.32 2.95 0 1.83.89 2.95 2.32 2.95 1.45 0 2.3-1.1 2.3-2.95 0-1.84-.85-2.95-2.3-2.95z"/><g transform="translate(200 54)"><path fill="#0060DF" fill-rule="nonzero" d="M4 0H3a3 3 0 0 0-3 3v8a3 3 0 0 0 3 3h8a3 3 0 0 0 3-3v-1a1 1 0 0 0-2 0v1a1 1 0 0 1-1 1H3a1 1 0 0 1-1-1V3a1 1 0 0 1 1-1h1a1 1 0 1 0 0-2z"/><path fill="#0060DF" fill-rule="nonzero" d="M13.01 0h-5a1 1 0 1 0 0 2h2.59L7.3 5.3a1 1 0 1 0 1.42 1.4l3.3-3.29V6a1 1 0 1 0 2 0V1a1 1 0 0 0-1-1z"/></g></g></svg>