<svg xmlns="http://www.w3.org/2000/svg" style="background:#f9f9fa" viewBox="0 0 360 122"><g fill="none" fill-rule="evenodd"><text fill="#0060DF" font-family="SFUIText-Regular, SF UI Text" font-size="15"><tspan x="147" y="64">Github</tspan></text><g transform="translate(200 54)"><path fill="#0060DF" fill-rule="nonzero" d="M4 0H3a3 3 0 0 0-3 3v8a3 3 0 0 0 3 3h8a3 3 0 0 0 3-3v-1a1 1 0 0 0-2 0v1a1 1 0 0 1-1 1H3a1 1 0 0 1-1-1V3a1 1 0 0 1 1-1h1a1 1 0 1 0 0-2z"/><path fill="#0060DF" fill-rule="nonzero" d="M13.01 0h-5a1 1 0 1 0 0 2h2.59L7.3 5.3a1 1 0 1 0 1.42 1.4l3.3-3.29V6a1 1 0 1 0 2 0V1a1 1 0 0 0-1-1z"/></g></g></svg>