<svg xmlns="http://www.w3.org/2000/svg" width="360" height="122" viewBox="0 0 360 122">
  <path fill="#0060DF" fill-rule="evenodd" d="M146.763672,63.8134766 L141.666016,63.8134766 L141.666016,54.4311523 L140.347656,54.4311523 L140.347656,65 L146.763672,65 L146.763672,63.8134766 Z M151.854004,58.0786133 C150.594238,58.0786133 149.715332,59.0014648 149.620117,60.4003906 L153.970703,60.4003906 C153.941406,59.0014648 153.106445,58.0786133 151.854004,58.0786133 Z M153.934082,62.956543 L155.193848,62.956543 C154.812988,64.3115234 153.597168,65.1391602 151.868652,65.1391602 C149.678711,65.1391602 148.309082,63.5571289 148.309082,61.0595703 C148.309082,58.5766602 149.700684,56.965332 151.868652,56.965332 C154,56.965332 155.296387,58.4814453 155.296387,60.9350586 L155.296387,61.418457 L149.620117,61.418457 L149.620117,61.4770508 C149.686035,63.0371094 150.557617,64.0258789 151.897949,64.0258789 C152.916016,64.0258789 153.604492,63.6523438 153.934082,62.956543 Z M159.705566,64.0332031 C161.001953,64.0332031 161.961426,63.1835938 161.961426,62.0556641 L161.961426,61.3305664 L159.837402,61.4697266 C158.63623,61.550293 158.108887,61.9677734 158.108887,62.7587891 C158.108887,63.5644531 158.790039,64.0332031 159.705566,64.0332031 Z M159.471191,65.1391602 C157.94043,65.1391602 156.805176,64.230957 156.805176,62.7880859 C156.805176,61.3745117 157.845215,60.5615234 159.683594,60.4516602 L161.961426,60.3125 L161.961426,59.5947266 C161.961426,58.6206055 161.353516,58.0859375 160.174316,58.0859375 C159.229492,58.0859375 158.570312,58.4448242 158.394531,59.0673828 L157.120117,59.0673828 C157.288574,57.800293 158.533691,56.965332 160.218262,56.965332 C162.144531,56.965332 163.221191,57.9541016 163.221191,59.5947266 L163.221191,65 L162.02002,65 L162.02002,63.8354492 L161.902832,63.8354492 C161.390137,64.6777344 160.525879,65.1391602 159.471191,65.1391602 Z M165.550293,65 L166.810059,65 L166.810059,60.1074219 C166.810059,58.9941406 167.681641,58.1884766 168.882812,58.1884766 C169.131836,58.1884766 169.585938,58.2324219 169.688477,58.2617188 L169.688477,57.0019531 C169.527344,56.9799805 169.263672,56.965332 169.058594,56.965332 C168.01123,56.965332 167.103027,57.5073242 166.868652,58.2763672 L166.751465,58.2763672 L166.751465,57.1044922 L165.550293,57.1044922 L165.550293,65 Z M171.263184,65 L172.522949,65 L172.522949,60.3271484 C172.522949,58.9428711 173.335938,58.1005859 174.595703,58.1005859 C175.855469,58.1005859 176.456055,58.7744141 176.456055,60.1953125 L176.456055,65 L177.71582,65 L177.71582,59.8876953 C177.71582,58.0126953 176.727051,56.965332 174.95459,56.965332 C173.746094,56.965332 172.977051,57.4780273 172.581543,58.3496094 L172.464355,58.3496094 L172.464355,57.1044922 L171.263184,57.1044922 L171.263184,65 Z M184.249023,65 L185.508789,65 L185.508789,60.1074219 C185.508789,58.9941406 186.307129,58.1005859 187.339844,58.1005859 C188.335938,58.1005859 188.987793,58.7011719 188.987793,59.6386719 L188.987793,65 L190.247559,65 L190.247559,59.9243164 C190.247559,58.9208984 190.97998,58.1005859 192.078613,58.1005859 C193.191895,58.1005859 193.741211,58.671875 193.741211,59.8364258 L193.741211,65 L195.000977,65 L195.000977,59.543457 C195.000977,57.8881836 194.100098,56.965332 192.48877,56.965332 C191.397461,56.965332 190.496582,57.5146484 190.071777,58.3496094 L189.95459,58.3496094 C189.588379,57.5292969 188.841309,56.965332 187.771973,56.965332 C186.717285,56.965332 185.92627,57.4707031 185.567383,58.3496094 L185.450195,58.3496094 L185.450195,57.1044922 L184.249023,57.1044922 L184.249023,65 Z M200.54541,65.1391602 C198.296875,65.1391602 196.905273,63.5864258 196.905273,61.0522461 C196.905273,58.5107422 198.296875,56.965332 200.54541,56.965332 C202.793945,56.965332 204.185547,58.5107422 204.185547,61.0522461 C204.185547,63.5864258 202.793945,65.1391602 200.54541,65.1391602 Z M200.54541,64.0039062 C202.039551,64.0039062 202.881836,62.9199219 202.881836,61.0522461 C202.881836,59.1772461 202.039551,58.1005859 200.54541,58.1005859 C199.05127,58.1005859 198.208984,59.1772461 198.208984,61.0522461 C198.208984,62.9199219 199.05127,64.0039062 200.54541,64.0039062 Z M206.163086,65 L207.422852,65 L207.422852,60.1074219 C207.422852,58.9941406 208.294434,58.1884766 209.495605,58.1884766 C209.744629,58.1884766 210.19873,58.2324219 210.30127,58.2617188 L210.30127,57.0019531 C210.140137,56.9799805 209.876465,56.965332 209.671387,56.965332 C208.624023,56.965332 207.71582,57.5073242 207.481445,58.2763672 L207.364258,58.2763672 L207.364258,57.1044922 L206.163086,57.1044922 L206.163086,65 Z M215.025391,58.0786133 C213.765625,58.0786133 212.886719,59.0014648 212.791504,60.4003906 L217.14209,60.4003906 C217.112793,59.0014648 216.277832,58.0786133 215.025391,58.0786133 Z M217.105469,62.956543 L218.365234,62.956543 C217.984375,64.3115234 216.768555,65.1391602 215.040039,65.1391602 C212.850098,65.1391602 211.480469,63.5571289 211.480469,61.0595703 C211.480469,58.5766602 212.87207,56.965332 215.040039,56.965332 C217.171387,56.965332 218.467773,58.4814453 218.467773,60.9350586 L218.467773,61.418457 L212.791504,61.418457 L212.791504,61.4770508 C212.857422,63.0371094 213.729004,64.0258789 215.069336,64.0258789 C216.087402,64.0258789 216.775879,63.6523438 217.105469,62.956543 Z"/>
</svg>
