<svg xmlns="http://www.w3.org/2000/svg" style="background:#f9f9fa" viewBox="0 0 504 100"><g fill="none" fill-rule="evenodd"><text fill="#0060DF" font-family="SFUIText-Regular, SF UI Text" font-size="15"><tspan x="202.87" y="54">Learn more</tspan></text><rect width="81" height="14" x="202.5" y="43.5" stroke="#00BDDF" rx="4"/><rect width="83" height="16" x="201.5" y="42.5" stroke="#B1EDF6" opacity=".52" rx="4"/><rect width="85" height="18" x="200.5" y="41.5" stroke="#DFF8FB" stroke-width="3" opacity=".52" rx="4"/><text fill="#0060DF" font-family="SFUIText-Regular, SF UI Text" font-size="15"><tspan x="338" y="53">Github</tspan></text><g transform="translate(391 43)"><path fill="#0060DF" fill-rule="nonzero" d="M4 0H3a3 3 0 0 0-3 3v8a3 3 0 0 0 3 3h8a3 3 0 0 0 3-3v-1a1 1 0 0 0-2 0v1a1 1 0 0 1-1 1H3a1 1 0 0 1-1-1V3a1 1 0 0 1 1-1h1a1 1 0 1 0 0-2z"/><path fill="#0060DF" fill-rule="nonzero" d="M13.01 0h-5a1 1 0 1 0 0 2h2.59L7.3 5.3a1 1 0 1 0 1.42 1.4l3.3-3.29V6a1 1 0 1 0 2 0V1a1 1 0 0 0-1-1z"/></g><rect width="69" height="14" x="337.5" y="43.5" stroke="#00BDDF" rx="4"/><rect width="71" height="16" x="336.5" y="42.5" stroke="#B1EDF6" opacity=".52" rx="4"/><rect width="73" height="18" x="335.5" y="41.5" stroke="#DFF8FB" stroke-width="3" opacity=".52" rx="4"/><g transform="translate(66 40)"><rect width="58" height="22" fill="#0A84FF" rx="2"/><polygon fill="#0A84FF" points="54 11 58 7 62 11 58 15"/><text fill="#FFFFFF" font-family="FiraMono-Medium, Fira Mono" font-size="12" font-weight="400"><tspan x="3.8" y="13">Focused</tspan></text></g></g></svg>