<svg xmlns="http://www.w3.org/2000/svg" width="504" height="100" style="background:#38383d" viewBox="0 0 504 100">
  <g fill="none" fill-rule="evenodd">
    <path fill="#FFF" d="M208.634277,54.8134766 L203.536621,54.8134766 L203.536621,45.4311523 L202.218262,45.4311523 L202.218262,56 L208.634277,56 L208.634277,54.8134766 Z M213.724609,49.0786133 C212.464844,49.0786133 211.585938,50.0014648 211.490723,51.4003906 L215.841309,51.4003906 C215.812012,50.0014648 214.977051,49.0786133 213.724609,49.0786133 Z M215.804688,53.956543 L217.064453,53.956543 C216.683594,55.3115234 215.467773,56.1391602 213.739258,56.1391602 C211.549316,56.1391602 210.179688,54.5571289 210.179688,52.0595703 C210.179688,49.5766602 211.571289,47.965332 213.739258,47.965332 C215.870605,47.965332 217.166992,49.4814453 217.166992,51.9350586 L217.166992,52.418457 L211.490723,52.418457 L211.490723,52.4770508 C211.556641,54.0371094 212.428223,55.0258789 213.768555,55.0258789 C214.786621,55.0258789 215.475098,54.6523438 215.804688,53.956543 Z M221.576172,55.0332031 C222.872559,55.0332031 223.832031,54.1835938 223.832031,53.0556641 L223.832031,52.3305664 L221.708008,52.4697266 C220.506836,52.550293 219.979492,52.9677734 219.979492,53.7587891 C219.979492,54.5644531 220.660645,55.0332031 221.576172,55.0332031 Z M221.341797,56.1391602 C219.811035,56.1391602 218.675781,55.230957 218.675781,53.7880859 C218.675781,52.3745117 219.71582,51.5615234 221.554199,51.4516602 L223.832031,51.3125 L223.832031,50.5947266 C223.832031,49.6206055 223.224121,49.0859375 222.044922,49.0859375 C221.100098,49.0859375 220.440918,49.4448242 220.265137,50.0673828 L218.990723,50.0673828 C219.15918,48.800293 220.404297,47.965332 222.088867,47.965332 C224.015137,47.965332 225.091797,48.9541016 225.091797,50.5947266 L225.091797,56 L223.890625,56 L223.890625,54.8354492 L223.773438,54.8354492 C223.260742,55.6777344 222.396484,56.1391602 221.341797,56.1391602 Z M227.420898,56 L228.680664,56 L228.680664,51.1074219 C228.680664,49.9941406 229.552246,49.1884766 230.753418,49.1884766 C231.002441,49.1884766 231.456543,49.2324219 231.559082,49.2617188 L231.559082,48.0019531 C231.397949,47.9799805 231.134277,47.965332 230.929199,47.965332 C229.881836,47.965332 228.973633,48.5073242 228.739258,49.2763672 L228.62207,49.2763672 L228.62207,48.1044922 L227.420898,48.1044922 L227.420898,56 Z M233.133789,56 L234.393555,56 L234.393555,51.3271484 C234.393555,49.9428711 235.206543,49.1005859 236.466309,49.1005859 C237.726074,49.1005859 238.32666,49.7744141 238.32666,51.1953125 L238.32666,56 L239.586426,56 L239.586426,50.8876953 C239.586426,49.0126953 238.597656,47.965332 236.825195,47.965332 C235.616699,47.965332 234.847656,48.4780273 234.452148,49.3496094 L234.334961,49.3496094 L234.334961,48.1044922 L233.133789,48.1044922 L233.133789,56 Z M246.119629,56 L247.379395,56 L247.379395,51.1074219 C247.379395,49.9941406 248.177734,49.1005859 249.210449,49.1005859 C250.206543,49.1005859 250.858398,49.7011719 250.858398,50.6386719 L250.858398,56 L252.118164,56 L252.118164,50.9243164 C252.118164,49.9208984 252.850586,49.1005859 253.949219,49.1005859 C255.0625,49.1005859 255.611816,49.671875 255.611816,50.8364258 L255.611816,56 L256.871582,56 L256.871582,50.543457 C256.871582,48.8881836 255.970703,47.965332 254.359375,47.965332 C253.268066,47.965332 252.367188,48.5146484 251.942383,49.3496094 L251.825195,49.3496094 C251.458984,48.5292969 250.711914,47.965332 249.642578,47.965332 C248.587891,47.965332 247.796875,48.4707031 247.437988,49.3496094 L247.320801,49.3496094 L247.320801,48.1044922 L246.119629,48.1044922 L246.119629,56 Z M262.416016,56.1391602 C260.16748,56.1391602 258.775879,54.5864258 258.775879,52.0522461 C258.775879,49.5107422 260.16748,47.965332 262.416016,47.965332 C264.664551,47.965332 266.056152,49.5107422 266.056152,52.0522461 C266.056152,54.5864258 264.664551,56.1391602 262.416016,56.1391602 Z M262.416016,55.0039062 C263.910156,55.0039062 264.752441,53.9199219 264.752441,52.0522461 C264.752441,50.1772461 263.910156,49.1005859 262.416016,49.1005859 C260.921875,49.1005859 260.07959,50.1772461 260.07959,52.0522461 C260.07959,53.9199219 260.921875,55.0039062 262.416016,55.0039062 Z M268.033691,56 L269.293457,56 L269.293457,51.1074219 C269.293457,49.9941406 270.165039,49.1884766 271.366211,49.1884766 C271.615234,49.1884766 272.069336,49.2324219 272.171875,49.2617188 L272.171875,48.0019531 C272.010742,47.9799805 271.74707,47.965332 271.541992,47.965332 C270.494629,47.965332 269.586426,48.5073242 269.352051,49.2763672 L269.234863,49.2763672 L269.234863,48.1044922 L268.033691,48.1044922 L268.033691,56 Z M276.895996,49.0786133 C275.63623,49.0786133 274.757324,50.0014648 274.662109,51.4003906 L279.012695,51.4003906 C278.983398,50.0014648 278.148438,49.0786133 276.895996,49.0786133 Z M278.976074,53.956543 L280.23584,53.956543 C279.85498,55.3115234 278.63916,56.1391602 276.910645,56.1391602 C274.720703,56.1391602 273.351074,54.5571289 273.351074,52.0595703 C273.351074,49.5766602 274.742676,47.965332 276.910645,47.965332 C279.041992,47.965332 280.338379,49.4814453 280.338379,51.9350586 L280.338379,52.418457 L274.662109,52.418457 L274.662109,52.4770508 C274.728027,54.0371094 275.599609,55.0258789 276.939941,55.0258789 C277.958008,55.0258789 278.646484,54.6523438 278.976074,53.956543 Z"/>
    <text fill="#B1B1B3" font-family="FiraSans-Regular, Fira Sans" font-size="12">
      <tspan x="81.696" y="54">Hover</tspan>
    </text>
    <path fill="#FFF" d="M348.217285,51.9130859 L348.217285,50.6240234 L343.932617,50.6240234 L343.932617,51.78125 L346.90625,51.78125 L346.90625,52.0375977 C346.90625,53.824707 345.624512,55.0332031 343.734863,55.0332031 C341.61084,55.0332031 340.29248,53.3779297 340.29248,50.7119141 C340.29248,48.0825195 341.632812,46.3979492 343.727539,46.3979492 C345.294922,46.3979492 346.356934,47.1523438 346.811035,48.5805664 L348.151367,48.5805664 C347.770508,46.4858398 346.071289,45.1821289 343.727539,45.1821289 C340.834473,45.1821289 338.9375,47.3720703 338.9375,50.7119141 C338.9375,54.0957031 340.805176,56.2490234 343.727539,56.2490234 C346.430176,56.2490234 348.217285,54.5205078 348.217285,51.9130859 Z M350.414551,56 L351.674316,56 L351.674316,48.1044922 L350.414551,48.1044922 L350.414551,56 Z M351.044434,46.5004883 C351.527832,46.5004883 351.92334,46.1049805 351.92334,45.621582 C351.92334,45.1381836 351.527832,44.7426758 351.044434,44.7426758 C350.561035,44.7426758 350.165527,45.1381836 350.165527,45.621582 C350.165527,46.1049805 350.561035,46.5004883 351.044434,46.5004883 Z M354.604004,46.0610352 L354.604004,48.1044922 L353.32959,48.1044922 L353.32959,49.1591797 L354.604004,49.1591797 L354.604004,53.9492188 C354.604004,55.4580078 355.255859,56.0585938 356.881836,56.0585938 C357.130859,56.0585938 357.372559,56.0292969 357.621582,55.9853516 L357.621582,54.9233398 C357.387207,54.9453125 357.262695,54.9526367 357.035645,54.9526367 C356.215332,54.9526367 355.86377,54.5571289 355.86377,53.6269531 L355.86377,49.1591797 L357.621582,49.1591797 L357.621582,48.1044922 L355.86377,48.1044922 L355.86377,46.0610352 L354.604004,46.0610352 Z M359.599121,56 L360.858887,56 L360.858887,51.3271484 C360.858887,49.9941406 361.635254,49.1005859 363.048828,49.1005859 C364.242676,49.1005859 364.872559,49.7963867 364.872559,51.1953125 L364.872559,56 L366.132324,56 L366.132324,50.8876953 C366.132324,49.034668 365.077637,47.965332 363.407715,47.965332 C362.199219,47.965332 361.371582,48.4780273 360.976074,49.3496094 L360.858887,49.3496094 L360.858887,44.9697266 L359.599121,44.9697266 L359.599121,56 Z M374.818848,48.1044922 L373.559082,48.1044922 L373.559082,52.7773438 C373.559082,54.1616211 372.797363,54.9892578 371.405762,54.9892578 C370.145996,54.9892578 369.618652,54.3300781 369.618652,52.9091797 L369.618652,48.1044922 L368.358887,48.1044922 L368.358887,53.2167969 C368.358887,55.0844727 369.281738,56.1391602 371.054199,56.1391602 C372.262695,56.1391602 373.10498,55.6411133 373.500488,54.762207 L373.617676,54.762207 L373.617676,56 L374.818848,56 L374.818848,48.1044922 Z M381.117676,56.1391602 C380.019043,56.1391602 379.081543,55.6191406 378.583496,54.7402344 L378.466309,54.7402344 L378.466309,56 L377.265137,56 L377.265137,44.9697266 L378.524902,44.9697266 L378.524902,49.3496094 L378.64209,49.3496094 C379.074219,48.5 380.033691,47.965332 381.117676,47.965332 C383.124512,47.965332 384.428223,49.5693359 384.428223,52.0522461 C384.428223,54.5205078 383.117188,56.1391602 381.117676,56.1391602 Z M380.824707,49.1005859 C379.38916,49.1005859 378.495605,50.2285156 378.495605,52.0522461 C378.495605,53.8759766 379.38916,55.0039062 380.824707,55.0039062 C382.267578,55.0039062 383.124512,53.8979492 383.124512,52.0522461 C383.124512,50.206543 382.267578,49.1005859 380.824707,49.1005859 Z"/>
    <path fill="#FFF" fill-rule="nonzero" d="M404.923135,43.6169148 C404.768961,43.2439241 404.405354,43.0004692 404.001756,43 L399.010535,43 C398.45922,43 398.012291,43.4469291 398.012291,43.9982441 C398.012291,44.5495591 398.45922,44.9964882 399.010535,44.9964882 L401.591995,44.9964882 L398.304777,48.283706 C398.045277,48.5343396 397.941204,48.9054901 398.032559,49.2545057 C398.123913,49.6035212 398.396479,49.8760867 398.745494,49.9674414 C399.09451,50.0587962 399.46566,49.9547232 399.716294,49.6952231 L403.003512,46.4080053 L403.003512,48.9894645 C403.003512,49.5407795 403.450441,49.9877086 404.001756,49.9877086 C404.553071,49.9877086 405,49.5407795 405,48.9894645 L405,43.9982441 C404.999632,43.8673237 404.973515,43.7377543 404.923135,43.6169148 L404.923135,43.6169148 Z"/>
    <path fill="#FFF" fill-rule="nonzero" d="M404,52 C403.447715,52 403,52.4477153 403,53 L403,55 L393,55 L393,45 L395,45 C395.552285,45 396,44.5522847 396,44 C396,43.4477153 395.552285,43 395,43 L392,43 C391.447715,43 391,43.4477153 391,44 L391,56 C391,56.5522847 391.447715,57 392,57 L404,57 C404.552285,57 405,56.5522847 405,56 L405,53 C405,52.4477153 404.552285,52 404,52 Z"/>
    <rect width="44" height="22" x="77" y="40" fill="#0A84FF" rx="2"/>
    <polygon fill="#0A84FF" points="117 51 121 47 125 51 121 55"/>
    <path fill="#FFF" d="M85.944,51.244 L85.944,55 L87.348,55 L87.348,46.72 L85.944,46.72 L85.944,50.08 L83.256,50.08 L83.256,46.72 L81.852,46.72 L81.852,55 L83.256,55 L83.256,51.244 L85.944,51.244 Z M91.812,48.496 C93.66,48.496 94.668,49.804 94.668,51.82 C94.668,53.836 93.636,55.156 91.8,55.156 C89.952,55.156 88.932,53.884 88.932,51.832 C88.932,49.852 89.964,48.496 91.812,48.496 Z M91.812,49.54 C90.84,49.54 90.348,50.26 90.348,51.832 C90.348,53.404 90.828,54.124 91.8,54.124 C92.772,54.124 93.252,53.404 93.252,51.82 C93.252,50.26 92.772,49.54 91.812,49.54 Z M99.792,55 L102.024,48.664 L100.644,48.664 L99.024,53.884 L97.428,48.664 L95.976,48.664 L98.208,55 L99.792,55 Z M108.984,52.264 L104.784,52.264 C104.868,53.56 105.6,54.112 106.512,54.112 C107.088,54.112 107.652,53.956 108.168,53.524 L108.756,54.364 C108.168,54.856 107.34,55.156 106.452,55.156 C104.472,55.156 103.392,53.812 103.392,51.832 C103.392,49.936 104.484,48.496 106.248,48.496 C107.964,48.496 109.02,49.696 109.02,51.664 C109.02,51.88 109.008,52.108 108.984,52.264 Z M106.272,49.492 C105.456,49.492 104.868,50.08 104.784,51.34 L107.712,51.34 C107.688,50.152 107.196,49.492 106.272,49.492 Z M110.844,55 L115.32,55 L115.32,54.016 L113.604,54.016 L113.604,51.448 C113.808,50.572 114.396,49.816 115.212,49.816 C115.5,49.816 115.692,49.852 115.944,49.924 L116.184,48.604 C115.896,48.532 115.68,48.508 115.368,48.508 C114.6,48.508 113.916,48.988 113.58,49.864 L113.436,48.664 L110.844,48.664 L110.844,49.648 L112.248,49.648 L112.248,54.016 L110.844,54.016 L110.844,55 Z"/>
  </g>
</svg>
