<svg xmlns="http://www.w3.org/2000/svg" width="338" height="94" viewBox="0 0 338 94">
  <g fill="none">
    <path fill="#0A84FF" d="M132.5,39.5 C131.947715,39.5 131.5,39.9477153 131.5,40.5 L131.5,54.5 C131.5,55.0522847 131.947715,55.5 132.5,55.5 L205.5,55.5 C206.052285,55.5 206.5,55.0522847 206.5,54.5 L206.5,40.5 C206.5,39.9477153 206.052285,39.5 205.5,39.5 L132.5,39.5 Z M132.5,37.5 L205.5,37.5 C207.156854,37.5 208.5,38.8431458 208.5,40.5 L208.5,54.5 C208.5,56.1568542 207.156854,57.5 205.5,57.5 L132.5,57.5 C130.843146,57.5 129.5,56.1568542 129.5,54.5 L129.5,40.5 C129.5,38.8431458 130.843146,37.5 132.5,37.5 Z"/>
    <path fill="#0A84FF" fill-opacity=".4" d="M132.5,38.5 C131.395431,38.5 130.5,39.3954305 130.5,40.5 L130.5,54.5 C130.5,55.6045695 131.395431,56.5 132.5,56.5 L205.5,56.5 C206.604569,56.5 207.5,55.6045695 207.5,54.5 L207.5,40.5 C207.5,39.3954305 206.604569,38.5 205.5,38.5 L132.5,38.5 Z M132.5,34.5 L205.5,34.5 C208.813708,34.5 211.5,37.1862915 211.5,40.5 L211.5,54.5 C211.5,57.8137085 208.813708,60.5 205.5,60.5 L132.5,60.5 C129.186292,60.5 126.5,57.8137085 126.5,54.5 L126.5,40.5 C126.5,37.1862915 129.186292,34.5 132.5,34.5 Z"/>
    <path fill="#0060DF" d="M138.27,52 L132.82,52 L132.82,41.5 L134.05,41.5 L134.05,50.89 L138.27,50.89 L138.27,52 Z M145.75,48.55 L140.45,48.55 C140.47,49.39 140.69,50.03 141.12,50.48 C141.55,50.94 142.14,51.17 142.9,51.17 C143.74,51.17 144.52,50.89 145.23,50.33 L145.23,51.46 C144.57,51.94 143.69,52.18 142.61,52.18 C141.55,52.18 140.71,51.84 140.11,51.15 C139.51,50.47 139.21,49.51 139.21,48.28 C139.165763,47.2387 139.519753,46.2196374 140.2,45.43 C140.816434,44.7168495 141.717494,44.3139365 142.66,44.33 C143.64,44.33 144.4,44.64 144.94,45.28 C145.48,45.91 145.74,46.79 145.74,47.92 L145.74,48.55 L145.75,48.55 Z M144.52,47.53 C144.51,46.83 144.34,46.3 144.02,45.91 C143.674456,45.5136461 143.164945,45.2995037 142.64,45.33 C142.07,45.33 141.59,45.53 141.2,45.94 C140.8,46.34 140.56,46.88 140.46,47.54 L144.52,47.54 L144.52,47.53 Z M152.93,52 L151.73,52 L151.73,50.83 L151.7,50.83 C151.18,51.73 150.4,52.18 149.4,52.18 C148.65,52.18 148.06,51.98 147.64,51.58 C147.22,51.18 147.01,50.66 147.01,50.01 C147.01,48.61 147.83,47.79 149.48,47.56 L151.73,47.25 C151.73,45.97 151.21,45.33 150.18,45.33 C149.28,45.33 148.47,45.64 147.74,46.26 L147.74,45.03 C148.48,44.56 149.32,44.33 150.29,44.33 C152.05,44.33 152.93,45.26 152.93,47.13 L152.93,52 Z M151.73,48.2 L149.92,48.46 C149.36,48.53 148.94,48.67 148.66,48.86 C148.38,49.06 148.24,49.42 148.24,49.92 C148.24,50.29 148.37,50.59 148.63,50.82 C148.89,51.05 149.23,51.17 149.67,51.17 C150.27,51.17 150.76,50.96 151.15,50.54 C151.54,50.12 151.73,49.59 151.73,48.95 L151.73,48.21 L151.73,48.2 Z M159.1,45.72 C158.835159,45.541034 158.519202,45.4532681 158.2,45.47 C157.68,45.47 157.26,45.72 156.91,46.2 C156.537821,46.7907277 156.359514,47.48298 156.4,48.18 L156.4,52 L155.2,52 L155.2,44.5 L156.4,44.5 L156.4,46.05 L156.42,46.05 C156.6,45.52 156.86,45.11 157.21,44.81 C157.56,44.51 157.95,44.37 158.39,44.37 C158.7,44.37 158.94,44.4 159.1,44.47 L159.1,45.72 Z M166.63,52 L165.43,52 L165.43,47.72 C165.43,46.13 164.85,45.33 163.69,45.33 C163.09,45.33 162.59,45.56 162.19,46.01 C161.81,46.46 161.61,47.03 161.61,47.72 L161.61,52 L160.41,52 L160.41,44.5 L161.61,44.5 L161.61,45.75 L161.64,45.75 C162.121919,44.844866 163.074981,44.2908503 164.1,44.32 C164.92,44.32 165.55,44.59 165.98,45.12 C166.42,45.65 166.63,46.42 166.63,47.42 L166.63,52 Z M183.66,52 L182.46,52 L182.46,47.7 C182.46,46.86 182.33,46.26 182.07,45.9 C181.81,45.52 181.38,45.33 180.77,45.33 C180.27,45.33 179.83,45.57 179.47,46.03 C179.101896,46.5187603 178.911419,47.1184104 178.93,47.73 L178.93,52 L177.73,52 L177.73,47.55 C177.73,46.07 177.16,45.33 176.03,45.33 C175.5,45.33 175.06,45.56 174.72,46 C174.361803,46.4998581 174.18217,47.1056805 174.21,47.72 L174.21,52 L173,52 L173,44.5 L174.2,44.5 L174.2,45.69 L174.23,45.69 C174.76,44.78 175.53,44.32 176.56,44.32 C177.53737,44.3031493 178.40536,44.9418584 178.68,45.88 C179.12557,44.9107921 180.103502,44.2981115 181.17,44.32 C182.82,44.32 183.65,45.34 183.65,47.38 L183.65,52 L183.66,52 Z M189.06,52.18 C187.96,52.18 187.06,51.83 186.41,51.12 C185.724992,50.3603327 185.365862,49.3619501 185.41,48.34 C185.41,47.08 185.76,46.09 186.45,45.39 C187.188901,44.6580192 188.201129,44.2698168 189.24,44.32 C190.35,44.32 191.23,44.67 191.86,45.36 C192.48,46.05 192.8,47 192.8,48.22 C192.8,49.42 192.46,50.38 191.78,51.1 C191.070803,51.8343597 190.079781,52.2278537 189.06,52.18 Z M189.15,45.33 C188.38,45.33 187.77,45.6 187.32,46.13 C186.840099,46.7443483 186.598579,47.5115318 186.64,48.29 C186.64,49.19 186.87,49.89 187.33,50.39 C187.78,50.91 188.39,51.17 189.15,51.17 C189.832323,51.2084388 190.493762,50.927604 190.94,50.41 C191.36,49.91 191.57,49.19 191.57,48.26 C191.57,47.33 191.36,46.6 190.94,46.1 C190.494509,45.574503 189.827713,45.2892624 189.14,45.33 L189.15,45.33 Z M198.63,45.72 C198.362387,45.5389177 198.042566,45.4510547 197.72,45.47 C197.21,45.47 196.78,45.72 196.43,46.2 C196.057821,46.7907277 195.879514,47.48298 195.92,48.18 L195.92,52 L194.72,52 L194.72,44.5 L195.92,44.5 L195.92,46.05 L195.95,46.05 C196.12,45.52 196.38,45.11 196.73,44.81 C197.08,44.51 197.47,44.37 197.91,44.37 C198.22,44.37 198.46,44.4 198.63,44.47 L198.63,45.72 Z M205.96,48.55 L200.66,48.55 C200.68,49.39 200.91,50.03 201.34,50.48 C201.77,50.94 202.36,51.17 203.11,51.17 C203.95,51.17 204.73,50.89 205.44,50.33 L205.44,51.46 C204.78,51.94 203.91,52.18 202.82,52.18 C201.76,52.18 200.93,51.84 200.32,51.15 C199.72,50.47 199.42,49.51 199.42,48.28 C199.375763,47.2387 199.729753,46.2196374 200.41,45.43 C201.026434,44.7168495 201.927494,44.3139365 202.87,44.33 C203.86,44.33 204.62,44.64 205.15,45.28 C205.69,45.91 205.95,46.79 205.95,47.92 L205.95,48.55 L205.96,48.55 Z M204.73,47.53 C204.73,46.83 204.56,46.3 204.23,45.91 C203.884456,45.5136461 203.374945,45.2995037 202.85,45.33 C202.29,45.33 201.81,45.53 201.41,45.94 C201.01,46.34 200.77,46.88 200.68,47.54 L204.73,47.54 L204.73,47.53 Z"/>
  </g>
</svg>
