<svg xmlns="http://www.w3.org/2000/svg" width="504" height="100" style="background:#38383d" viewBox="0 0 504 100">
  <g fill="none" fill-rule="evenodd">
    <text fill="#B1B1B3" font-family="FiraSans-Regular, Fira Sans" font-size="12">
      <tspan x="69" y="54">Focused</tspan>
    </text>
    <path fill="#FFF" d="M210.267578,56 L204.818359,56 L204.818359,45.4970703 L206.048828,45.4970703 L206.048828,54.8867188 L210.267578,54.8867188 L210.267578,56 Z M217.745605,52.550293 L212.450195,52.550293 C212.469727,53.3852581 212.694334,54.0297829 213.124023,54.4838867 C213.553713,54.9379906 214.144527,55.1650391 214.896484,55.1650391 C215.741215,55.1650391 216.517575,54.8867215 217.225586,54.3300781 L217.225586,55.4580078 C216.566403,55.9365258 215.69483,56.1757812 214.61084,56.1757812 C213.551264,56.1757812 212.718753,55.8352085 212.113281,55.1540527 C211.507809,54.472897 211.205078,53.5146546 211.205078,52.2792969 C211.205078,51.1122989 211.535885,50.1613806 212.19751,49.4265137 C212.859134,48.6916467 213.680659,48.3242188 214.662109,48.3242188 C215.64356,48.3242188 216.402829,48.6415984 216.939941,49.2763672 C217.477053,49.911136 217.745605,50.7924748 217.745605,51.9204102 L217.745605,52.550293 Z M216.515137,51.5322266 C216.510254,50.8388637 216.343019,50.2993183 216.013428,49.9135742 C215.683836,49.5278301 215.226077,49.3349609 214.640137,49.3349609 C214.073728,49.3349609 213.592775,49.5375956 213.197266,49.9428711 C212.801756,50.3481466 212.557618,50.8779264 212.464844,51.5322266 L216.515137,51.5322266 Z M224.930664,56 L223.729492,56 L223.729492,54.828125 L223.700195,54.828125 C223.177732,55.726567 222.408696,56.1757812 221.393066,56.1757812 C220.645992,56.1757812 220.061281,55.9780293 219.638916,55.5825195 C219.216551,55.1870097 219.005371,54.6621126 219.005371,54.0078125 C219.005371,52.6064383 219.830558,51.7910168 221.480957,51.5615234 L223.729492,51.246582 C223.729492,49.9721616 223.214361,49.3349609 222.184082,49.3349609 C221.280757,49.3349609 220.465336,49.642575 219.737793,50.2578125 L219.737793,49.0273438 C220.475101,48.5585914 221.324702,48.3242188 222.286621,48.3242188 C224.049325,48.3242188 224.930664,49.2568266 224.930664,51.1220703 L224.930664,56 Z M223.729492,52.2060547 L221.92041,52.4550781 C221.363767,52.5332035 220.943849,52.6711416 220.660645,52.8688965 C220.37744,53.0666514 220.23584,53.4169897 220.23584,53.9199219 C220.23584,54.2861346 220.366454,54.5852039 220.627686,54.8171387 C220.888917,55.0490734 221.236814,55.1650391 221.671387,55.1650391 C222.267093,55.1650391 222.759031,54.9563009 223.147217,54.5388184 C223.535402,54.1213358 223.729492,53.5927766 223.729492,52.953125 L223.729492,52.2060547 Z M231.10498,49.7158203 C230.895018,49.5546867 230.592287,49.4741211 230.196777,49.4741211 C229.684079,49.4741211 229.255617,49.7158179 228.911377,50.1992188 C228.567137,50.6826196 228.39502,51.3417927 228.39502,52.1767578 L228.39502,56 L227.193848,56 L227.193848,48.5 L228.39502,48.5 L228.39502,50.0454102 L228.424316,50.0454102 C228.595216,49.5180638 228.856444,49.1066909 229.208008,48.8112793 C229.559572,48.5158677 229.952635,48.3681641 230.387207,48.3681641 C230.699709,48.3681641 230.938964,48.4023434 231.10498,48.4707031 L231.10498,49.7158203 Z M238.634277,56 L237.433105,56 L237.433105,51.7226562 C237.433105,50.1308514 236.852057,49.3349609 235.689941,49.3349609 C235.089352,49.3349609 234.592531,49.5607888 234.199463,50.0124512 C233.806395,50.4641136 233.609863,51.0341762 233.609863,51.7226562 L233.609863,56 L232.408691,56 L232.408691,48.5 L233.609863,48.5 L233.609863,49.7451172 L233.63916,49.7451172 C234.205569,48.7978468 235.025874,48.3242188 236.100098,48.3242188 C236.920414,48.3242188 237.547849,48.5891087 237.982422,49.1188965 C238.416994,49.6486843 238.634277,50.4140575 238.634277,51.4150391 L238.634277,56 Z M255.655762,56 L254.45459,56 L254.45459,51.6933594 C254.45459,50.8632771 254.326417,50.2626972 254.070068,49.8916016 C253.813719,49.520506 253.382816,49.3349609 252.777344,49.3349609 C252.264646,49.3349609 251.828859,49.5693336 251.469971,50.0380859 C251.111082,50.5068383 250.931641,51.0683561 250.931641,51.7226562 L250.931641,56 L249.730469,56 L249.730469,51.546875 C249.730469,50.0722583 249.161627,49.3349609 248.023926,49.3349609 C247.496579,49.3349609 247.062013,49.555906 246.720215,49.9978027 C246.378416,50.4396995 246.20752,51.0146449 246.20752,51.7226562 L246.20752,56 L245.006348,56 L245.006348,48.5 L246.20752,48.5 L246.20752,49.6865234 L246.236816,49.6865234 C246.769046,48.7783158 247.545405,48.3242188 248.565918,48.3242188 C249.078616,48.3242188 249.525389,48.4670396 249.90625,48.7526855 C250.287111,49.0383315 250.548339,49.4130836 250.689941,49.8769531 C251.246585,48.8417917 252.076655,48.3242188 253.180176,48.3242188 C254.830575,48.3242188 255.655762,49.342275 255.655762,51.378418 L255.655762,56 Z M261.061035,56.1757812 C259.952631,56.1757812 259.06763,55.825443 258.406006,55.1247559 C257.744381,54.4240688 257.413574,53.495123 257.413574,52.3378906 C257.413574,51.0781187 257.757809,50.0942418 258.446289,49.3862305 C259.134769,48.6782191 260.064936,48.3242188 261.236816,48.3242188 C262.354986,48.3242188 263.22778,48.6684536 263.855225,49.3569336 C264.482669,50.0454136 264.796387,50.9999939 264.796387,52.2207031 C264.796387,53.4169982 264.458255,54.3752405 263.781982,55.095459 C263.10571,55.8156774 262.198736,56.1757812 261.061035,56.1757812 Z M261.148926,49.3349609 C260.377438,49.3349609 259.767092,49.5974095 259.317871,50.1223145 C258.86865,50.6472194 258.644043,51.3710891 258.644043,52.2939453 C258.644043,53.1826216 258.871091,53.8832982 259.325195,54.3959961 C259.779299,54.908694 260.387203,55.1650391 261.148926,55.1650391 C261.925297,55.1650391 262.522215,54.9135767 262.939697,54.4106445 C263.35718,53.9077123 263.565918,53.1923875 263.565918,52.2646484 C263.565918,51.3271437 263.35718,50.6044947 262.939697,50.0966797 C262.522215,49.5888646 261.925297,49.3349609 261.148926,49.3349609 Z M270.626465,49.7158203 C270.416503,49.5546867 270.113772,49.4741211 269.718262,49.4741211 C269.205564,49.4741211 268.777101,49.7158179 268.432861,50.1992188 C268.088621,50.6826196 267.916504,51.3417927 267.916504,52.1767578 L267.916504,56 L266.715332,56 L266.715332,48.5 L267.916504,48.5 L267.916504,50.0454102 L267.945801,50.0454102 C268.1167,49.5180638 268.377928,49.1066909 268.729492,48.8112793 C269.081056,48.5158677 269.474119,48.3681641 269.908691,48.3681641 C270.221193,48.3681641 270.460448,48.4023434 270.626465,48.4707031 L270.626465,49.7158203 Z M277.958008,52.550293 L272.662598,52.550293 C272.682129,53.3852581 272.906736,54.0297829 273.336426,54.4838867 C273.766115,54.9379906 274.35693,55.1650391 275.108887,55.1650391 C275.953618,55.1650391 276.729977,54.8867215 277.437988,54.3300781 L277.437988,55.4580078 C276.778805,55.9365258 275.907232,56.1757812 274.823242,56.1757812 C273.763667,56.1757812 272.931155,55.8352085 272.325684,55.1540527 C271.720212,54.472897 271.41748,53.5146546 271.41748,52.2792969 C271.41748,51.1122989 271.748288,50.1613806 272.409912,49.4265137 C273.071537,48.6916467 273.893061,48.3242188 274.874512,48.3242188 C275.855962,48.3242188 276.615232,48.6415984 277.152344,49.2763672 C277.689456,49.911136 277.958008,50.7924748 277.958008,51.9204102 L277.958008,52.550293 Z M276.727539,51.5322266 C276.722656,50.8388637 276.555422,50.2993183 276.22583,49.9135742 C275.896239,49.5278301 275.438479,49.3349609 274.852539,49.3349609 C274.28613,49.3349609 273.805178,49.5375956 273.409668,49.9428711 C273.014158,50.3481466 272.77002,50.8779264 272.677246,51.5322266 L276.727539,51.5322266 Z"/>
    <rect width="77" height="14" x="202.5" y="43.5" stroke="#00BDDF" rx="4"/>
    <rect width="79" height="16" x="201.5" y="42.5" stroke="#B1EDF6" opacity=".523" rx="4"/>
    <rect width="81" height="18" x="200.5" y="41.5" stroke="#DFF8FB" stroke-width="3" opacity=".523" rx="4"/>
    <path fill="#FFF" d="M348.217285,51.9130859 L348.217285,50.6240234 L343.932617,50.6240234 L343.932617,51.78125 L346.90625,51.78125 L346.90625,52.0375977 C346.90625,53.824707 345.624512,55.0332031 343.734863,55.0332031 C341.61084,55.0332031 340.29248,53.3779297 340.29248,50.7119141 C340.29248,48.0825195 341.632812,46.3979492 343.727539,46.3979492 C345.294922,46.3979492 346.356934,47.1523438 346.811035,48.5805664 L348.151367,48.5805664 C347.770508,46.4858398 346.071289,45.1821289 343.727539,45.1821289 C340.834473,45.1821289 338.9375,47.3720703 338.9375,50.7119141 C338.9375,54.0957031 340.805176,56.2490234 343.727539,56.2490234 C346.430176,56.2490234 348.217285,54.5205078 348.217285,51.9130859 Z M350.414551,56 L351.674316,56 L351.674316,48.1044922 L350.414551,48.1044922 L350.414551,56 Z M351.044434,46.5004883 C351.527832,46.5004883 351.92334,46.1049805 351.92334,45.621582 C351.92334,45.1381836 351.527832,44.7426758 351.044434,44.7426758 C350.561035,44.7426758 350.165527,45.1381836 350.165527,45.621582 C350.165527,46.1049805 350.561035,46.5004883 351.044434,46.5004883 Z M354.604004,46.0610352 L354.604004,48.1044922 L353.32959,48.1044922 L353.32959,49.1591797 L354.604004,49.1591797 L354.604004,53.9492188 C354.604004,55.4580078 355.255859,56.0585938 356.881836,56.0585938 C357.130859,56.0585938 357.372559,56.0292969 357.621582,55.9853516 L357.621582,54.9233398 C357.387207,54.9453125 357.262695,54.9526367 357.035645,54.9526367 C356.215332,54.9526367 355.86377,54.5571289 355.86377,53.6269531 L355.86377,49.1591797 L357.621582,49.1591797 L357.621582,48.1044922 L355.86377,48.1044922 L355.86377,46.0610352 L354.604004,46.0610352 Z M359.599121,56 L360.858887,56 L360.858887,51.3271484 C360.858887,49.9941406 361.635254,49.1005859 363.048828,49.1005859 C364.242676,49.1005859 364.872559,49.7963867 364.872559,51.1953125 L364.872559,56 L366.132324,56 L366.132324,50.8876953 C366.132324,49.034668 365.077637,47.965332 363.407715,47.965332 C362.199219,47.965332 361.371582,48.4780273 360.976074,49.3496094 L360.858887,49.3496094 L360.858887,44.9697266 L359.599121,44.9697266 L359.599121,56 Z M374.818848,48.1044922 L373.559082,48.1044922 L373.559082,52.7773438 C373.559082,54.1616211 372.797363,54.9892578 371.405762,54.9892578 C370.145996,54.9892578 369.618652,54.3300781 369.618652,52.9091797 L369.618652,48.1044922 L368.358887,48.1044922 L368.358887,53.2167969 C368.358887,55.0844727 369.281738,56.1391602 371.054199,56.1391602 C372.262695,56.1391602 373.10498,55.6411133 373.500488,54.762207 L373.617676,54.762207 L373.617676,56 L374.818848,56 L374.818848,48.1044922 Z M381.117676,56.1391602 C380.019043,56.1391602 379.081543,55.6191406 378.583496,54.7402344 L378.466309,54.7402344 L378.466309,56 L377.265137,56 L377.265137,44.9697266 L378.524902,44.9697266 L378.524902,49.3496094 L378.64209,49.3496094 C379.074219,48.5 380.033691,47.965332 381.117676,47.965332 C383.124512,47.965332 384.428223,49.5693359 384.428223,52.0522461 C384.428223,54.5205078 383.117188,56.1391602 381.117676,56.1391602 Z M380.824707,49.1005859 C379.38916,49.1005859 378.495605,50.2285156 378.495605,52.0522461 C378.495605,53.8759766 379.38916,55.0039062 380.824707,55.0039062 C382.267578,55.0039062 383.124512,53.8979492 383.124512,52.0522461 C383.124512,50.206543 382.267578,49.1005859 380.824707,49.1005859 Z"/>
    <path fill="#FFF" fill-rule="nonzero" d="M404.923135,43.6169148 C404.768961,43.2439241 404.405354,43.0004692 404.001756,43 L399.010535,43 C398.45922,43 398.012291,43.4469291 398.012291,43.9982441 C398.012291,44.5495591 398.45922,44.9964882 399.010535,44.9964882 L401.591995,44.9964882 L398.304777,48.283706 C398.045277,48.5343396 397.941204,48.9054901 398.032559,49.2545057 C398.123913,49.6035212 398.396479,49.8760867 398.745494,49.9674414 C399.09451,50.0587962 399.46566,49.9547232 399.716294,49.6952231 L403.003512,46.4080053 L403.003512,48.9894645 C403.003512,49.5407795 403.450441,49.9877086 404.001756,49.9877086 C404.553071,49.9877086 405,49.5407795 405,48.9894645 L405,43.9982441 C404.999632,43.8673237 404.973515,43.7377543 404.923135,43.6169148 L404.923135,43.6169148 Z"/>
    <path fill="#FFF" fill-rule="nonzero" d="M404,52 C403.447715,52 403,52.4477153 403,53 L403,55 L393,55 L393,45 L395,45 C395.552285,45 396,44.5522847 396,44 C396,43.4477153 395.552285,43 395,43 L392,43 C391.447715,43 391,43.4477153 391,44 L391,56 C391,56.5522847 391.447715,57 392,57 L404,57 C404.552285,57 405,56.5522847 405,56 L405,53 C405,52.4477153 404.552285,52 404,52 Z"/>
    <rect width="69" height="14" x="337.5" y="43.5" stroke="#00BDDF" rx="4"/>
    <rect width="71" height="16" x="336.5" y="42.5" stroke="#B1EDF6" opacity=".523" rx="4"/>
    <rect width="73" height="18" x="335.5" y="41.5" stroke="#DFF8FB" stroke-width="3" opacity=".523" rx="4"/>
    <rect width="58" height="22" x="63" y="40" fill="#0A84FF" rx="2"/>
    <polygon fill="#0A84FF" points="117 51 121 47 125 51 121 55"/>
    <path fill="#FFF" d="M69.716,50.416 L69.716,47.776 L73.268,47.776 L73.412,46.72 L68.324,46.72 L68.324,55 L69.716,55 L69.716,51.472 L72.836,51.472 L72.836,50.416 L69.716,50.416 Z M77.612,48.496 C79.46,48.496 80.468,49.804 80.468,51.82 C80.468,53.836 79.436,55.156 77.6,55.156 C75.752,55.156 74.732,53.884 74.732,51.832 C74.732,49.852 75.764,48.496 77.612,48.496 Z M77.612,49.54 C76.64,49.54 76.148,50.26 76.148,51.832 C76.148,53.404 76.628,54.124 77.6,54.124 C78.572,54.124 79.052,53.404 79.052,51.82 C79.052,50.26 78.572,49.54 77.612,49.54 Z M85.328,54.052 C84.344,54.052 83.624,53.44 83.624,51.868 C83.624,50.284 84.32,49.576 85.328,49.576 C85.868,49.576 86.384,49.768 86.876,50.128 L87.5,49.252 C86.888,48.76 86.168,48.496 85.304,48.496 C83.348,48.496 82.196,49.936 82.196,51.868 C82.196,53.848 83.324,55.156 85.28,55.156 C86.12,55.156 86.948,54.844 87.512,54.376 L86.888,53.476 C86.42,53.824 85.916,54.052 85.328,54.052 Z M90.812,48.664 L89.468,48.664 L89.468,53.26 C89.468,54.448 90.056,55.156 91.292,55.156 C92.036,55.156 92.816,54.82 93.284,54.184 L93.368,55 L94.532,55 L94.532,48.664 L93.188,48.664 L93.188,53.248 C92.876,53.74 92.3,54.136 91.712,54.136 C91.112,54.136 90.812,53.836 90.812,53.092 L90.812,48.664 Z M98.972,54.124 C98.228,54.124 97.58,53.848 97.088,53.452 L96.368,54.268 C96.944,54.772 97.796,55.156 98.972,55.156 C100.436,55.156 101.768,54.568 101.768,53.188 C101.768,51.988 100.964,51.556 99.728,51.22 C98.456,50.872 98.12,50.692 98.12,50.212 C98.12,49.792 98.456,49.516 99.308,49.516 C100.052,49.516 100.616,49.756 101.12,50.08 L101.684,49.228 C101.12,48.808 100.34,48.496 99.272,48.496 C97.712,48.496 96.74,49.228 96.74,50.32 C96.74,51.424 97.568,51.868 98.828,52.192 C100.136,52.528 100.34,52.768 100.34,53.284 C100.34,53.812 99.812,54.124 98.972,54.124 Z M109.184,52.264 L104.984,52.264 C105.068,53.56 105.8,54.112 106.712,54.112 C107.288,54.112 107.852,53.956 108.368,53.524 L108.956,54.364 C108.368,54.856 107.54,55.156 106.652,55.156 C104.672,55.156 103.592,53.812 103.592,51.832 C103.592,49.936 104.684,48.496 106.448,48.496 C108.164,48.496 109.22,49.696 109.22,51.664 C109.22,51.88 109.208,52.108 109.184,52.264 Z M106.472,49.492 C105.656,49.492 105.068,50.08 104.984,51.34 L107.912,51.34 C107.888,50.152 107.396,49.492 106.472,49.492 Z M116.132,46.12 L116.132,55 L114.944,55 L114.848,54.22 C114.428,54.82 113.816,55.156 113.072,55.156 C111.44,55.156 110.684,53.824 110.684,51.832 C110.684,49.9 111.62,48.496 113.192,48.496 C113.852,48.496 114.38,48.736 114.788,49.18 L114.788,45.964 L116.132,46.12 Z M113.54,49.528 C112.64,49.528 112.112,50.248 112.112,51.832 C112.112,53.452 112.592,54.124 113.432,54.124 C114.032,54.124 114.464,53.728 114.788,53.224 L114.788,50.236 C114.476,49.792 114.056,49.528 113.54,49.528 Z"/>
  </g>
</svg>
