<svg xmlns="http://www.w3.org/2000/svg" xmlns:xlink="http://www.w3.org/1999/xlink" style="background:#f9f9fa" viewBox="0 0 360 100"><defs><rect id="a" width="80" height="15" rx="2"/></defs><g fill="none" fill-rule="evenodd"><g transform="translate(142 43)"><use fill="#FFFFFF" xlink:href="#a"/><rect width="81" height="16" x="-.5" y="-.5" stroke="#0A84FF" rx="2"/><rect width="84" height="19" x="-2" y="-2" stroke="#0A84FF" stroke-opacity=".3" stroke-width="4" opacity=".52" rx="2"/></g><path fill="#0060DF" d="M149.63 54.81h-5.1v-9.38h-1.31V56h6.41v-1.19zm5.1-5.73c-1.27 0-2.14.92-2.24 2.32h4.35c-.03-1.4-.86-2.32-2.12-2.32zm2.07 4.88h1.26c-.38 1.35-1.6 2.18-3.32 2.18-2.2 0-3.56-1.58-3.56-4.08 0-2.48 1.4-4.1 3.56-4.1 2.13 0 3.43 1.52 3.43 3.98v.48h-5.68v.06c.07 1.56.94 2.55 2.28 2.55 1.02 0 1.7-.38 2.03-1.07zm5.78 1.07c1.3 0 2.25-.85 2.25-1.97v-.73l-2.12.14c-1.2.08-1.73.5-1.73 1.29 0 .8.68 1.27 1.6 1.27zm-.24 1.1c-1.53 0-2.66-.9-2.66-2.34 0-1.42 1.04-2.23 2.87-2.34l2.28-.14v-.72c0-.97-.6-1.5-1.79-1.5-.94 0-1.6.35-1.77.98h-1.28c.17-1.27 1.41-2.1 3.1-2.1 1.93 0 3 .98 3 2.62V56h-1.2v-1.16h-.12a2.73 2.73 0 0 1-2.43 1.3zm6.08-.13h1.26v-4.9c0-1.1.87-1.91 2.07-1.91.25 0 .7.04.8.07V48a5.41 5.41 0 0 0-.62-.03c-1.05 0-1.96.54-2.2 1.3h-.1V48.1h-1.2V56zm5.71 0h1.26v-4.67c0-1.39.82-2.23 2.08-2.23 1.26 0 1.86.67 1.86 2.1V56h1.26v-5.11c0-1.88-1-2.92-2.76-2.92-1.21 0-1.98.5-2.38 1.38h-.12V48.1h-1.2V56zm12.99 0h1.26v-4.9c0-1.1.8-2 1.83-2 1 0 1.65.6 1.65 1.54V56h1.26v-5.08c0-1 .73-1.82 1.83-1.82 1.11 0 1.66.57 1.66 1.74V56h1.26v-5.46c0-1.65-.9-2.57-2.51-2.57-1.1 0-2 .54-2.42 1.38h-.11a2.28 2.28 0 0 0-2.19-1.38c-1.05 0-1.84.5-2.2 1.38h-.12V48.1h-1.2V56zm16.3.14c-2.25 0-3.64-1.55-3.64-4.09s1.39-4.08 3.64-4.08c2.24 0 3.64 1.54 3.64 4.08s-1.4 4.09-3.64 4.09zm0-1.14c1.49 0 2.33-1.08 2.33-2.95s-.84-2.95-2.33-2.95c-1.5 0-2.34 1.08-2.34 2.95s.84 2.95 2.34 2.95zm5.61 1h1.26v-4.9c0-1.1.88-1.91 2.08-1.91.25 0 .7.04.8.07V48a5.41 5.41 0 0 0-.63-.03c-1.05 0-1.95.54-2.19 1.3h-.12V48.1h-1.2V56zm8.87-6.92c-1.26 0-2.14.92-2.24 2.32h4.35c-.03-1.4-.86-2.32-2.11-2.32zm2.08 4.88h1.26c-.39 1.35-1.6 2.18-3.33 2.18-2.19 0-3.56-1.58-3.56-4.08 0-2.48 1.4-4.1 3.56-4.1 2.13 0 3.43 1.52 3.43 3.98v.48h-5.68v.06c.07 1.56.94 2.55 2.28 2.55 1.02 0 1.7-.38 2.04-1.07z"/></g></svg>