<svg xmlns="http://www.w3.org/2000/svg" style="background:#f9f9fa" viewBox="0 0 504 100"><g fill="none" fill-rule="evenodd"><path fill="#003EAA" d="M208.63 54.81h-5.1v-9.38h-1.31V56h6.41v-1.19zm5.1-5.73c-1.27 0-2.14.92-2.24 2.32h4.35c-.03-1.4-.86-2.32-2.12-2.32zm2.07 4.88h1.26c-.38 1.35-1.6 2.18-3.32 2.18-2.2 0-3.56-1.58-3.56-4.08 0-2.48 1.4-4.1 3.56-4.1 2.13 0 3.43 1.52 3.43 3.98v.48h-5.68v.06c.07 1.56.94 2.55 2.28 2.55 1.02 0 1.7-.38 2.03-1.07zm5.78 1.07c1.3 0 2.25-.85 2.25-1.97v-.73l-2.12.14c-1.2.08-1.73.5-1.73 1.29 0 .8.68 1.27 1.6 1.27zm-.24 1.1c-1.53 0-2.66-.9-2.66-2.34 0-1.42 1.04-2.23 2.87-2.34l2.28-.14v-.72c0-.97-.6-1.5-1.79-1.5-.94 0-1.6.35-1.77.98h-1.28c.17-1.27 1.41-2.1 3.1-2.1 1.93 0 3 .98 3 2.62V56h-1.2v-1.16h-.12a2.73 2.73 0 0 1-2.43 1.3zm6.08-.13h1.26v-4.9c0-1.1.87-1.91 2.07-1.91.25 0 .7.04.8.07V48a5.41 5.41 0 0 0-.62-.03c-1.05 0-1.96.54-2.2 1.3h-.1V48.1h-1.2V56zm5.71 0h1.26v-4.67c0-1.39.82-2.23 2.08-2.23 1.26 0 1.86.67 1.86 2.1V56h1.26v-5.11c0-1.88-1-2.92-2.76-2.92-1.21 0-1.98.5-2.38 1.38h-.12V48.1h-1.2V56zm12.99 0h1.26v-4.9c0-1.1.8-2 1.83-2 1 0 1.65.6 1.65 1.54V56h1.26v-5.08c0-1 .73-1.82 1.83-1.82 1.11 0 1.66.57 1.66 1.74V56h1.26v-5.46c0-1.65-.9-2.57-2.51-2.57-1.1 0-2 .54-2.42 1.38h-.11a2.28 2.28 0 0 0-2.19-1.38c-1.05 0-1.84.5-2.2 1.38h-.12V48.1h-1.2V56zm16.3.14c-2.25 0-3.64-1.55-3.64-4.09s1.39-4.08 3.64-4.08c2.24 0 3.64 1.54 3.64 4.08s-1.4 4.09-3.64 4.09zm0-1.14c1.49 0 2.33-1.08 2.33-2.95s-.84-2.95-2.33-2.95c-1.5 0-2.34 1.08-2.34 2.95s.84 2.95 2.34 2.95zm5.61 1h1.26v-4.9c0-1.1.88-1.91 2.08-1.91.25 0 .7.04.8.07V48a5.41 5.41 0 0 0-.63-.03c-1.05 0-1.95.54-2.19 1.3h-.12V48.1h-1.2V56zm8.87-6.92c-1.26 0-2.14.92-2.24 2.32h4.35c-.03-1.4-.86-2.32-2.11-2.32zm2.08 4.88h1.26c-.39 1.35-1.6 2.18-3.33 2.18-2.19 0-3.56-1.58-3.56-4.08 0-2.48 1.4-4.1 3.56-4.1 2.13 0 3.43 1.52 3.43 3.98v.48h-5.68v.06c.07 1.56.94 2.55 2.28 2.55 1.02 0 1.7-.38 2.04-1.07zm69.24-2.05v-1.29h-4.29v1.16h2.98v.26c0 1.78-1.29 3-3.18 3-2.12 0-3.44-1.66-3.44-4.33 0-2.63 1.34-4.31 3.44-4.31 1.56 0 2.63.75 3.08 2.18h1.34c-.38-2.1-2.08-3.4-4.42-3.4-2.9 0-4.8 2.2-4.8 5.53 0 3.39 1.88 5.54 4.8 5.54 2.7 0 4.49-1.73 4.49-4.34zm2.2 4.09h1.25v-7.9h-1.26V56zm.62-9.5a.88.88 0 0 0 0-1.76.88.88 0 0 0 0 1.76zm3.56-.44v2.04h-1.27v1.06h1.27v4.79c0 1.5.66 2.1 2.28 2.1.25 0 .5-.02.74-.06v-1.07c-.23.03-.36.03-.58.03-.82 0-1.18-.4-1.18-1.32v-4.47h1.76V48.1h-1.76v-2.04h-1.26zm5 9.94h1.26v-4.67c0-1.34.78-2.23 2.19-2.23 1.2 0 1.82.7 1.82 2.1V56h1.26v-5.11c0-1.86-1.05-2.92-2.72-2.92-1.21 0-2.04.5-2.43 1.38h-.12v-4.38h-1.26V56zm15.22-7.9h-1.26v4.68c0 1.38-.76 2.2-2.15 2.2-1.26 0-1.8-.65-1.8-2.07v-4.8h-1.25v5.1c0 1.87.92 2.93 2.7 2.93 1.2 0 2.04-.5 2.44-1.38h.12V56h1.2v-7.9zm6.3 8.04c-1.1 0-2.04-.52-2.54-1.4h-.11V56h-1.2V44.97h1.25v4.38h.12a2.73 2.73 0 0 1 2.48-1.38c2 0 3.3 1.6 3.3 4.08 0 2.47-1.3 4.09-3.3 4.09zm-.3-7.04c-1.43 0-2.32 1.13-2.32 2.95 0 1.83.89 2.95 2.32 2.95 1.45 0 2.3-1.1 2.3-2.95 0-1.84-.85-2.95-2.3-2.95z"/><g transform="translate(391 44)"><path fill="#003EAA" fill-rule="nonzero" d="M4 0H3a3 3 0 0 0-3 3v8a3 3 0 0 0 3 3h8a3 3 0 0 0 3-3v-1a1 1 0 0 0-2 0v1a1 1 0 0 1-1 1H3a1 1 0 0 1-1-1V3a1 1 0 0 1 1-1h1a1 1 0 1 0 0-2z"/><path fill="#003EAA" fill-rule="nonzero" d="M13.01 0h-5a1 1 0 1 0 0 2h2.59L7.3 5.3a1 1 0 1 0 1.42 1.4l3.3-3.29V6a1 1 0 1 0 2 0V1a1 1 0 0 0-1-1z"/></g><g transform="translate(66 40)"><rect width="58" height="22" fill="#0A84FF" rx="2"/><polygon fill="#0A84FF" points="54 11 58 7 62 11 58 15"/><path fill="#FFFFFF" d="M9.7 9.38c-.57.45-1.36.67-2.36.67h-1V13H4.94V4.72h2.3c1.06 0 1.88.22 2.45.65.58.44.87 1.09.87 1.95 0 .93-.29 1.62-.87 2.06zM7.34 5.76h-1V9h1.01c.56 0 1-.13 1.3-.38.31-.26.47-.69.47-1.29 0-1.04-.6-1.56-1.78-1.56zm10.18.9L17.29 9h-.96V7.7c-.44.02-.82.2-1.15.54-.32.34-.58.82-.77 1.45v2.35h1.27V13h-3.55v-.96h.93V7.62h-.93v-.96h1.95l.24 1.47c.25-.55.55-.95.91-1.22s.8-.4 1.33-.4c.32 0 .64.05.96.15zm3.4 4.99c.31.3.71.46 1.2.46.29 0 .57-.04.84-.14.27-.09.54-.23.82-.41l.58.82c-.3.24-.65.44-1.05.57-.4.14-.82.2-1.26.2-.97 0-1.72-.3-2.25-.9a3.5 3.5 0 0 1-.8-2.42c0-.63.1-1.2.34-1.7.23-.52.57-.91 1-1.2.45-.29.96-.43 1.54-.43.84 0 1.51.28 2 .84.5.57.74 1.34.74 2.32 0 .24-.01.44-.04.6h-4.2c.04.62.22 1.08.54 1.39zm-.08-3.69a2.3 2.3 0 0 0-.47 1.4h2.94a2.38 2.38 0 0 0-.38-1.39 1.21 1.21 0 0 0-1.03-.48c-.44 0-.79.16-1.06.47zm8.93 3.95a.7.7 0 0 0 .37-.63.84.84 0 0 0-.1-.45.98.98 0 0 0-.44-.32c-.22-.1-.54-.2-.97-.32a4.2 4.2 0 0 1-1.57-.68 1.43 1.43 0 0 1-.52-1.19c0-.55.23-1 .68-1.33.46-.33 1.08-.5 1.85-.5a4 4 0 0 1 2.41.74l-.57.85a3.2 3.2 0 0 0-1.8-.56c-.8 0-1.2.23-1.2.7 0 .15.04.28.14.39.09.1.25.2.47.3.22.08.56.19 1 .31.68.2 1.2.43 1.54.7.34.29.5.7.5 1.27 0 .65-.26 1.14-.8 1.47-.53.33-1.2.5-1.99.5-1.05 0-1.91-.3-2.6-.9l.7-.8c.27.2.56.37.89.49.32.12.66.19 1.01.19.43 0 .76-.08 1-.23zm7.2 0a.7.7 0 0 0 .37-.63.84.84 0 0 0-.1-.45.98.98 0 0 0-.44-.32c-.22-.1-.54-.2-.97-.32a4.2 4.2 0 0 1-1.57-.68 1.43 1.43 0 0 1-.52-1.19c0-.55.23-1 .68-1.33.46-.33 1.08-.5 1.85-.5a4 4 0 0 1 2.41.74l-.57.85a3.2 3.2 0 0 0-1.8-.56c-.8 0-1.2.23-1.2.7 0 .15.04.28.14.39.09.1.25.2.47.3.22.08.56.19 1 .31.68.2 1.2.43 1.54.7.34.29.5.7.5 1.27 0 .65-.26 1.14-.8 1.47-.53.33-1.2.5-1.99.5-1.05 0-1.91-.3-2.6-.9l.7-.8c.27.2.56.37.89.49.32.12.66.19 1.01.19.43 0 .76-.08 1-.23zm5.55-.26c.31.3.71.46 1.2.46.29 0 .57-.04.84-.14.27-.09.54-.23.82-.41l.58.82c-.3.24-.65.44-1.05.57-.4.14-.82.2-1.26.2-.97 0-1.72-.3-2.25-.9a3.5 3.5 0 0 1-.8-2.42c0-.63.1-1.2.34-1.7.23-.52.57-.91 1-1.2.45-.29.96-.43 1.54-.43.84 0 1.51.28 2 .84.5.57.74 1.34.74 2.32 0 .24-.01.44-.04.6h-4.2c.04.62.22 1.08.54 1.39zm-.08-3.69a2.3 2.3 0 0 0-.47 1.4h2.94a2.38 2.38 0 0 0-.38-1.39 1.21 1.21 0 0 0-1.03-.48c-.44 0-.79.16-1.06.47zm10.7-3.84V13h-1.2l-.1-.78a2.12 2.12 0 0 1-1.77.94c-.79 0-1.39-.3-1.79-.9-.4-.58-.6-1.4-.6-2.43 0-.65.1-1.22.31-1.73.2-.5.5-.9.87-1.18.38-.28.82-.42 1.33-.42.65 0 1.18.23 1.6.7V3.95l1.34.16zM49.47 8.1c-.25.38-.37.96-.37 1.73 0 1.54.44 2.3 1.32 2.3.53 0 .98-.3 1.36-.9v-3c-.33-.47-.75-.7-1.25-.7-.46 0-.82.19-1.06.57z"/></g></g></svg>