<svg xmlns="http://www.w3.org/2000/svg" style="background:#f9f9fa" viewBox="0 0 504 100"><g fill="none" fill-rule="evenodd"><text fill="#003EAA" font-family="SFUIText-Regular, SF UI Text" font-size="15" text-decoration="underline"><tspan x="200.87" y="54">Learn more</tspan></text><text fill="#003EAA" font-family="SFUIText-Regular, SF UI Text" font-size="15" text-decoration="underline"><tspan x="338" y="53">Github</tspan></text><g transform="translate(391 44)"><path fill="#003EAA" fill-rule="nonzero" d="M4 0H3a3 3 0 0 0-3 3v8a3 3 0 0 0 3 3h8a3 3 0 0 0 3-3v-1a1 1 0 0 0-2 0v1a1 1 0 0 1-1 1H3a1 1 0 0 1-1-1V3a1 1 0 0 1 1-1h1a1 1 0 1 0 0-2z"/><path fill="#003EAA" fill-rule="nonzero" d="M13.01 0h-5a1 1 0 1 0 0 2h2.59L7.3 5.3a1 1 0 1 0 1.42 1.4l3.3-3.29V6a1 1 0 1 0 2 0V1a1 1 0 0 0-1-1z"/></g><g transform="translate(66 40)"><rect width="58" height="22" fill="#0A84FF" rx="2"/><polygon fill="#0A84FF" points="54 11 58 7 62 11 58 15"/><text fill="#FFFFFF" font-family="FiraMono-Medium, Fira Mono" font-size="12" font-weight="400"><tspan x="3.8" y="13">Pressed</tspan></text></g></g></svg>