<svg xmlns="http://www.w3.org/2000/svg" width="360" height="122" viewBox="0 0 360 122">
  <g fill="none" fill-rule="evenodd">
    <path fill="#0C0C0D" d="M23.7055664,67 L27.6020508,56.4311523 L26.2177734,56.4311523 L23.1123047,65.293457 L22.9951172,65.293457 L19.8896484,56.4311523 L18.5053711,56.4311523 L22.4018555,67 L23.7055664,67 Z M32.4433594,60.0786133 C31.1835938,60.0786133 30.3046875,61.0014648 30.2094727,62.4003906 L34.5600586,62.4003906 C34.5307617,61.0014648 33.6958008,60.0786133 32.4433594,60.0786133 Z M34.5234375,64.956543 L35.7832031,64.956543 C35.4023438,66.3115234 34.1865234,67.1391602 32.4580078,67.1391602 C30.2680664,67.1391602 28.8984375,65.5571289 28.8984375,63.0595703 C28.8984375,60.5766602 30.2900391,58.965332 32.4580078,58.965332 C34.5893555,58.965332 35.8857422,60.4814453 35.8857422,62.9350586 L35.8857422,63.418457 L30.2094727,63.418457 L30.2094727,63.4770508 C30.2753906,65.0371094 31.1469727,66.0258789 32.4873047,66.0258789 C33.5053711,66.0258789 34.1938477,65.6523438 34.5234375,64.956543 Z M37.8632812,67 L39.1230469,67 L39.1230469,62.1074219 C39.1230469,60.9941406 39.9946289,60.1884766 41.1958008,60.1884766 C41.4448242,60.1884766 41.8989258,60.2324219 42.0014648,60.2617188 L42.0014648,59.0019531 C41.840332,58.9799805 41.5766602,58.965332 41.371582,58.965332 C40.3242188,58.965332 39.4160156,59.5073242 39.1816406,60.2763672 L39.0644531,60.2763672 L39.0644531,59.1044922 L37.8632812,59.1044922 L37.8632812,67 Z M43.3930664,61.2651367 C43.3930664,62.4077148 44.0668945,63.0449219 45.5463867,63.4038086 L46.9013672,63.7333984 C47.7436523,63.9384766 48.1538086,64.3046875 48.1538086,64.8466797 C48.1538086,65.5717773 47.3920898,66.0771484 46.3300781,66.0771484 C45.3193359,66.0771484 44.6894531,65.6523438 44.4770508,64.9858398 L43.1806641,64.9858398 C43.3198242,66.296875 44.5283203,67.1391602 46.2861328,67.1391602 C48.0805664,67.1391602 49.4501953,66.1650391 49.4501953,64.7514648 C49.4501953,63.6162109 48.7324219,62.9716797 47.2456055,62.612793 L46.0297852,62.3198242 C45.0996094,62.0927734 44.6601562,61.7558594 44.6601562,61.2138672 C44.6601562,60.5107422 45.3925781,60.034668 46.3300781,60.034668 C47.2822266,60.034668 47.8974609,60.4521484 48.065918,61.0820312 L49.3110352,61.0820312 C49.1425781,59.7856445 47.9926758,58.965332 46.3374023,58.965332 C44.6601562,58.965332 43.3930664,59.9541016 43.3930664,61.2651367 Z M51.4570312,67 L52.7167969,67 L52.7167969,59.1044922 L51.4570312,59.1044922 L51.4570312,67 Z M52.0869141,57.5004883 C52.5703125,57.5004883 52.9658203,57.1049805 52.9658203,56.621582 C52.9658203,56.1381836 52.5703125,55.7426758 52.0869141,55.7426758 C51.6035156,55.7426758 51.2080078,56.1381836 51.2080078,56.621582 C51.2080078,57.1049805 51.6035156,57.5004883 52.0869141,57.5004883 Z M58.3637695,67.1391602 C56.1152344,67.1391602 54.7236328,65.5864258 54.7236328,63.0522461 C54.7236328,60.5107422 56.1152344,58.965332 58.3637695,58.965332 C60.6123047,58.965332 62.0039062,60.5107422 62.0039062,63.0522461 C62.0039062,65.5864258 60.6123047,67.1391602 58.3637695,67.1391602 Z M58.3637695,66.0039062 C59.8579102,66.0039062 60.7001953,64.9199219 60.7001953,63.0522461 C60.7001953,61.1772461 59.8579102,60.1005859 58.3637695,60.1005859 C56.8696289,60.1005859 56.0273438,61.1772461 56.0273438,63.0522461 C56.0273438,64.9199219 56.8696289,66.0039062 58.3637695,66.0039062 Z M63.9814453,67 L65.2412109,67 L65.2412109,62.3271484 C65.2412109,60.9428711 66.0541992,60.1005859 67.3139648,60.1005859 C68.5737305,60.1005859 69.1743164,60.7744141 69.1743164,62.1953125 L69.1743164,67 L70.434082,67 L70.434082,61.8876953 C70.434082,60.0126953 69.4453125,58.965332 67.6728516,58.965332 C66.4643555,58.965332 65.6953125,59.4780273 65.2998047,60.3496094 L65.1826172,60.3496094 L65.1826172,59.1044922 L63.9814453,59.1044922 L63.9814453,67 Z M73.7739258,67.0732422 C74.3012695,67.0732422 74.7260742,66.6411133 74.7260742,66.1210938 C74.7260742,65.59375 74.3012695,65.1689453 73.7739258,65.1689453 C73.2539062,65.1689453 72.8217773,65.59375 72.8217773,66.1210938 C72.8217773,66.6411133 73.2539062,67.0732422 73.7739258,67.0732422 Z M73.7739258,61.440918 C74.3012695,61.440918 74.7260742,61.0087891 74.7260742,60.4887695 C74.7260742,59.9614258 74.3012695,59.5366211 73.7739258,59.5366211 C73.2539062,59.5366211 72.8217773,59.9614258 72.8217773,60.4887695 C72.8217773,61.0087891 73.2539062,61.440918 73.7739258,61.440918 Z M84.8994141,67.2490234 C87.0893555,67.2490234 88.5908203,65.7841797 88.5908203,63.6381836 C88.5908203,61.5581055 87.1845703,60.1005859 85.1777344,60.1005859 C84.2036133,60.1005859 83.456543,60.4008789 82.9438477,61.0014648 L82.8266602,61.0014648 L83.1269531,57.6103516 L87.9902344,57.6103516 L87.9902344,56.4311523 L82.0942383,56.4311523 L81.515625,62.4223633 L82.753418,62.4223633 C83.1855469,61.6679688 83.9765625,61.2358398 84.9360352,61.2358398 C86.3203125,61.2358398 87.2724609,62.2246094 87.2724609,63.6748047 C87.2724609,65.125 86.3276367,66.0917969 84.9140625,66.0917969 C83.6689453,66.0917969 82.7607422,65.3300781 82.6435547,64.1875 L81.347168,64.1875 C81.4643555,66.0112305 82.8999023,67.2490234 84.8994141,67.2490234 Z M92.8535156,62.1293945 L94.1938477,62.1293945 C95.6953125,62.1293945 96.6254883,62.8911133 96.6254883,64.1142578 C96.6254883,65.2714844 95.6367188,66.0991211 94.2451172,66.0991211 C92.8828125,66.0991211 91.9306641,65.3740234 91.8134766,64.2460938 L90.5390625,64.2460938 C90.6342773,66.0551758 92.1137695,67.2490234 94.2597656,67.2490234 C96.347168,67.2490234 97.9804688,65.894043 97.9804688,64.1508789 C97.9804688,62.7080078 97.1088867,61.7119141 95.6733398,61.5288086 L95.6733398,61.4116211 C96.8305664,61.1333008 97.5263672,60.2104492 97.5263672,58.9506836 C97.5263672,57.4125977 96.0541992,56.1821289 94.2084961,56.1821289 C92.1943359,56.1821289 90.8833008,57.3100586 90.7514648,59.1411133 L92.0332031,59.1411133 C92.1430664,58.0058594 92.9414062,57.3320312 94.1572266,57.3320312 C95.3730469,57.3320312 96.1860352,58.0498047 96.1860352,59.1264648 C96.1860352,60.2250977 95.3364258,61.0014648 94.1352539,61.0014648 L92.8535156,61.0014648 L92.8535156,62.1293945 Z M101.144531,67.0732422 C101.671875,67.0732422 102.09668,66.6411133 102.09668,66.1210938 C102.09668,65.59375 101.671875,65.1689453 101.144531,65.1689453 C100.624512,65.1689453 100.192383,65.59375 100.192383,66.1210938 C100.192383,66.6411133 100.624512,67.0732422 101.144531,67.0732422 Z M108.102539,67.2490234 C105.722168,67.2490234 104.352539,65.2275391 104.352539,61.7119141 C104.352539,58.2255859 105.736816,56.1821289 108.102539,56.1821289 C110.453613,56.1821289 111.837891,58.2329102 111.837891,61.7338867 C111.837891,65.2421875 110.475586,67.2490234 108.102539,67.2490234 Z M108.102539,66.0991211 C109.662598,66.0991211 110.512207,64.5463867 110.512207,61.7119141 C110.512207,58.9067383 109.647949,57.3393555 108.102539,57.3393555 C106.557129,57.3393555 105.678223,58.9213867 105.678223,61.7119141 C105.678223,64.5390625 106.54248,66.0991211 108.102539,66.0991211 Z M121.45459,69.0288086 C120.209473,66.8461914 119.660156,64.890625 119.660156,62.6054688 C119.660156,60.2397461 120.414551,57.6835938 121.476562,56.4384766 L120.414551,56.4384766 C118.97168,58.2841797 118.36377,60.1005859 118.36377,62.6054688 C118.36377,65.1176758 119.081543,67.4541016 120.341309,69.0288086 L121.45459,69.0288086 Z M127.299316,67.2416992 C125.709961,67.2416992 124.494141,66.3920898 123.834961,64.8393555 C123.490723,64.0336914 123.322266,63.0595703 123.322266,61.8950195 C123.322266,58.262207 124.801758,56.1821289 127.387207,56.1821289 C129.181641,56.1821289 130.514648,57.2441406 130.851562,58.9433594 L129.496582,58.9433594 C129.210938,57.9545898 128.412598,57.3540039 127.372559,57.3540039 C125.651367,57.3540039 124.677246,58.8774414 124.604004,61.6899414 L124.721191,61.6899414 C125.241211,60.6645508 126.273926,60.0639648 127.533691,60.0639648 C129.547852,60.0639648 131.005371,61.5507812 131.005371,63.6015625 C131.005371,65.7255859 129.467285,67.2416992 127.299316,67.2416992 Z M127.284668,66.0844727 C128.639648,66.0844727 129.672363,65.0297852 129.672363,63.6455078 C129.672363,62.2026367 128.698242,61.206543 127.299316,61.206543 C125.900391,61.206543 124.896973,62.2026367 124.896973,63.6015625 C124.896973,65.0151367 125.929688,66.0844727 127.284668,66.0844727 Z M137.94873,67 L137.94873,64.8100586 L132.799805,64.8100586 L132.799805,63.6088867 C133.744629,61.9316406 135.421875,59.2802734 137.326172,56.4311523 L139.237793,56.4311523 L139.237793,63.6308594 L140.739258,63.6308594 L140.739258,64.8100586 L139.237793,64.8100586 L139.237793,67 L137.94873,67 Z M134.147461,63.550293 L134.147461,63.6381836 L137.956055,63.6381836 L137.956055,57.6542969 L137.868164,57.6542969 C136.78418,59.2290039 135.407227,61.4116211 134.147461,63.550293 Z M147.536133,63.3452148 L147.536133,62.1513672 L142.731445,62.1513672 L142.731445,63.3452148 L147.536133,63.3452148 Z M153.783691,67.1391602 C152.685059,67.1391602 151.747559,66.6191406 151.249512,65.7402344 L151.132324,65.7402344 L151.132324,67 L149.931152,67 L149.931152,55.9697266 L151.190918,55.9697266 L151.190918,60.3496094 L151.308105,60.3496094 C151.740234,59.5 152.699707,58.965332 153.783691,58.965332 C155.790527,58.965332 157.094238,60.5693359 157.094238,63.0522461 C157.094238,65.5205078 155.783203,67.1391602 153.783691,67.1391602 Z M153.490723,60.1005859 C152.055176,60.1005859 151.161621,61.2285156 151.161621,63.0522461 C151.161621,64.8759766 152.055176,66.0039062 153.490723,66.0039062 C154.933594,66.0039062 155.790527,64.8979492 155.790527,63.0522461 C155.790527,61.206543 154.933594,60.1005859 153.490723,60.1005859 Z M159.101074,67 L160.36084,67 L160.36084,59.1044922 L159.101074,59.1044922 L159.101074,67 Z M159.730957,57.5004883 C160.214355,57.5004883 160.609863,57.1049805 160.609863,56.621582 C160.609863,56.1381836 160.214355,55.7426758 159.730957,55.7426758 C159.247559,55.7426758 158.852051,56.1381836 158.852051,56.621582 C158.852051,57.1049805 159.247559,57.5004883 159.730957,57.5004883 Z M163.290527,57.0610352 L163.290527,59.1044922 L162.016113,59.1044922 L162.016113,60.1591797 L163.290527,60.1591797 L163.290527,64.9492188 C163.290527,66.4580078 163.942383,67.0585938 165.568359,67.0585938 C165.817383,67.0585938 166.059082,67.0292969 166.308105,66.9853516 L166.308105,65.9233398 C166.07373,65.9453125 165.949219,65.9526367 165.722168,65.9526367 C164.901855,65.9526367 164.550293,65.5571289 164.550293,64.6269531 L164.550293,60.1591797 L166.308105,60.1591797 L166.308105,59.1044922 L164.550293,59.1044922 L164.550293,57.0610352 L163.290527,57.0610352 Z M167.94873,69.0288086 L169.069336,69.0288086 C170.329102,67.4394531 171.046875,65.1030273 171.046875,62.6054688 C171.046875,60.1005859 170.446289,58.2841797 169.003418,56.4384766 L167.934082,56.4384766 C168.996094,57.6762695 169.743164,60.2250977 169.743164,62.6054688 C169.743164,64.890625 169.193848,66.8461914 167.94873,69.0288086 Z"/>
    <path fill="#0060DF" d="M186.214355,58.6577148 L186.302246,58.6577148 L188.733887,67 L189.979004,67 L192.857422,56.4311523 L191.480469,56.4311523 L189.378418,65.0224609 L189.290527,65.0224609 L186.924805,56.4311523 L185.591797,56.4311523 L183.226074,65.0224609 L183.138184,65.0224609 L181.036133,56.4311523 L179.65918,56.4311523 L182.537598,67 L183.782715,67 L186.214355,58.6577148 Z M194.776367,67 L196.036133,67 L196.036133,62.3271484 C196.036133,60.9941406 196.8125,60.1005859 198.226074,60.1005859 C199.419922,60.1005859 200.049805,60.7963867 200.049805,62.1953125 L200.049805,67 L201.30957,67 L201.30957,61.8876953 C201.30957,60.034668 200.254883,58.965332 198.584961,58.965332 C197.376465,58.965332 196.548828,59.4780273 196.15332,60.3496094 L196.036133,60.3496094 L196.036133,55.9697266 L194.776367,55.9697266 L194.776367,67 Z M206.041016,66.0332031 C207.337402,66.0332031 208.296875,65.1835938 208.296875,64.0556641 L208.296875,63.3305664 L206.172852,63.4697266 C204.97168,63.550293 204.444336,63.9677734 204.444336,64.7587891 C204.444336,65.5644531 205.125488,66.0332031 206.041016,66.0332031 Z M205.806641,67.1391602 C204.275879,67.1391602 203.140625,66.230957 203.140625,64.7880859 C203.140625,63.3745117 204.180664,62.5615234 206.019043,62.4516602 L208.296875,62.3125 L208.296875,61.5947266 C208.296875,60.6206055 207.688965,60.0859375 206.509766,60.0859375 C205.564941,60.0859375 204.905762,60.4448242 204.72998,61.0673828 L203.455566,61.0673828 C203.624023,59.800293 204.869141,58.965332 206.553711,58.965332 C208.47998,58.965332 209.556641,59.9541016 209.556641,61.5947266 L209.556641,67 L208.355469,67 L208.355469,65.8354492 L208.238281,65.8354492 C207.725586,66.6777344 206.861328,67.1391602 205.806641,67.1391602 Z M212.413086,57.0610352 L212.413086,59.1044922 L211.138672,59.1044922 L211.138672,60.1591797 L212.413086,60.1591797 L212.413086,64.9492188 C212.413086,66.4580078 213.064941,67.0585938 214.690918,67.0585938 C214.939941,67.0585938 215.181641,67.0292969 215.430664,66.9853516 L215.430664,65.9233398 C215.196289,65.9453125 215.071777,65.9526367 214.844727,65.9526367 C214.024414,65.9526367 213.672852,65.5571289 213.672852,64.6269531 L213.672852,60.1591797 L215.430664,60.1591797 L215.430664,59.1044922 L213.672852,59.1044922 L213.672852,57.0610352 L212.413086,57.0610352 Z M218.265137,60.3789062 L219.561523,56.4311523 L218.169922,56.4311523 L217.166504,60.3789062 L218.265137,60.3789062 Z M221.583008,61.2651367 C221.583008,62.4077148 222.256836,63.0449219 223.736328,63.4038086 L225.091309,63.7333984 C225.933594,63.9384766 226.34375,64.3046875 226.34375,64.8466797 C226.34375,65.5717773 225.582031,66.0771484 224.52002,66.0771484 C223.509277,66.0771484 222.879395,65.6523438 222.666992,64.9858398 L221.370605,64.9858398 C221.509766,66.296875 222.718262,67.1391602 224.476074,67.1391602 C226.270508,67.1391602 227.640137,66.1650391 227.640137,64.7514648 C227.640137,63.6162109 226.922363,62.9716797 225.435547,62.612793 L224.219727,62.3198242 C223.289551,62.0927734 222.850098,61.7558594 222.850098,61.2138672 C222.850098,60.5107422 223.58252,60.034668 224.52002,60.034668 C225.472168,60.034668 226.087402,60.4521484 226.255859,61.0820312 L227.500977,61.0820312 C227.33252,59.7856445 226.182617,58.965332 224.527344,58.965332 C222.850098,58.965332 221.583008,59.9541016 221.583008,61.2651367 Z M233.851074,67 L235.11084,67 L235.11084,62.3271484 C235.11084,60.9428711 235.923828,60.1005859 237.183594,60.1005859 C238.443359,60.1005859 239.043945,60.7744141 239.043945,62.1953125 L239.043945,67 L240.303711,67 L240.303711,61.8876953 C240.303711,60.0126953 239.314941,58.965332 237.54248,58.965332 C236.333984,58.965332 235.564941,59.4780273 235.169434,60.3496094 L235.052246,60.3496094 L235.052246,59.1044922 L233.851074,59.1044922 L233.851074,67 Z M245.75293,60.0786133 C244.493164,60.0786133 243.614258,61.0014648 243.519043,62.4003906 L247.869629,62.4003906 C247.840332,61.0014648 247.005371,60.0786133 245.75293,60.0786133 Z M247.833008,64.956543 L249.092773,64.956543 C248.711914,66.3115234 247.496094,67.1391602 245.767578,67.1391602 C243.577637,67.1391602 242.208008,65.5571289 242.208008,63.0595703 C242.208008,60.5766602 243.599609,58.965332 245.767578,58.965332 C247.898926,58.965332 249.195312,60.4814453 249.195312,62.9350586 L249.195312,63.418457 L243.519043,63.418457 L243.519043,63.4770508 C243.584961,65.0371094 244.456543,66.0258789 245.796875,66.0258789 C246.814941,66.0258789 247.503418,65.6523438 247.833008,64.956543 Z M261.104492,59.1044922 L259.837402,59.1044922 L258.284668,65.4179688 L258.16748,65.4179688 L256.402344,59.1044922 L255.193848,59.1044922 L253.428711,65.4179688 L253.311523,65.4179688 L251.758789,59.1044922 L250.484375,59.1044922 L252.696289,67 L253.970703,67 L255.728516,60.8916016 L255.845703,60.8916016 L257.61084,67 L258.892578,67 L261.104492,59.1044922 Z"/>
    <g transform="translate(171 56)">
      <rect width="8" height="12" fill="#C0DFFF" opacity=".667"/>
      <path stroke="#3DC1FF" stroke-linecap="square" d="M.5.142857143L.5 11.8606267M7.5.142857143L7.5 11.8606267"/>
    </g>
    <path fill="#0A84FF" d="M171.16,76.74 C171.16,77.41 170.76,77.86 170.01,78.28 C170.92,78.69 171.43,79.32 171.43,80.14 C171.43,81.25 170.53,82.13 168.98,82.13 C167.42,82.13 166.57,81.25 166.57,80.17 C166.57,79.34 167.09,78.76 167.91,78.39 C167.18,78.01 166.84,77.57 166.84,76.8 C166.84,75.57 167.94,74.96 169,74.96 C170.14,74.96 171.16,75.56 171.16,76.74 Z M167.93,76.81 C167.93,77.49 168.41,77.71 169.25,78 C169.82,77.65 170.07,77.33 170.07,76.8 C170.07,76.18 169.69,75.78 169,75.78 C168.33,75.78 167.93,76.15 167.93,76.81 Z M170.28,80.15 C170.28,79.31 169.66,79.06 168.64,78.71 C168.13,78.97 167.72,79.39 167.72,80.13 C167.72,80.83 168.15,81.28 168.99,81.28 C169.84,81.28 170.28,80.78 170.28,80.15 Z M175.47,76.58 C176.86,76.58 177.39,77.67 177.39,79.35 C177.39,80.96 176.69,82.13 175.35,82.13 C174.8,82.13 174.35,81.94 174.01,81.55 L174.01,84.03 L172.89,84.16 L172.89,76.72 L173.87,76.72 L173.94,77.4 C174.34,76.86 174.88,76.58 175.47,76.58 Z M175.16,77.44 C174.66,77.44 174.27,77.79 174.01,78.2 L174.01,80.67 C174.27,81.05 174.62,81.26 175.05,81.26 C175.81,81.26 176.21,80.68 176.21,79.36 C176.21,78 175.86,77.44 175.16,77.44 Z M178.43,82 L179.67,82 L180.96,79.84 L182.25,82 L183.57,82 L181.67,79.17 L183.32,76.72 L182.09,76.72 L181.01,78.58 L179.93,76.72 L178.64,76.72 L180.32,79.22 L178.43,82 Z"/>
  </g>
</svg>
