<svg xmlns="http://www.w3.org/2000/svg" width="378" height="122" viewBox="0 0 378 122">
  <g fill="none" fill-rule="evenodd">
    <path fill="#0C0C0D" d="M23.7055664,67 L27.6020508,56.4311523 L26.2177734,56.4311523 L23.1123047,65.293457 L22.9951172,65.293457 L19.8896484,56.4311523 L18.5053711,56.4311523 L22.4018555,67 L23.7055664,67 Z M32.4433594,60.0786133 C31.1835938,60.0786133 30.3046875,61.0014648 30.2094727,62.4003906 L34.5600586,62.4003906 C34.5307617,61.0014648 33.6958008,60.0786133 32.4433594,60.0786133 Z M34.5234375,64.956543 L35.7832031,64.956543 C35.4023438,66.3115234 34.1865234,67.1391602 32.4580078,67.1391602 C30.2680664,67.1391602 28.8984375,65.5571289 28.8984375,63.0595703 C28.8984375,60.5766602 30.2900391,58.965332 32.4580078,58.965332 C34.5893555,58.965332 35.8857422,60.4814453 35.8857422,62.9350586 L35.8857422,63.418457 L30.2094727,63.418457 L30.2094727,63.4770508 C30.2753906,65.0371094 31.1469727,66.0258789 32.4873047,66.0258789 C33.5053711,66.0258789 34.1938477,65.6523438 34.5234375,64.956543 Z M37.8632812,67 L39.1230469,67 L39.1230469,62.1074219 C39.1230469,60.9941406 39.9946289,60.1884766 41.1958008,60.1884766 C41.4448242,60.1884766 41.8989258,60.2324219 42.0014648,60.2617188 L42.0014648,59.0019531 C41.840332,58.9799805 41.5766602,58.965332 41.371582,58.965332 C40.3242188,58.965332 39.4160156,59.5073242 39.1816406,60.2763672 L39.0644531,60.2763672 L39.0644531,59.1044922 L37.8632812,59.1044922 L37.8632812,67 Z M43.3930664,61.2651367 C43.3930664,62.4077148 44.0668945,63.0449219 45.5463867,63.4038086 L46.9013672,63.7333984 C47.7436523,63.9384766 48.1538086,64.3046875 48.1538086,64.8466797 C48.1538086,65.5717773 47.3920898,66.0771484 46.3300781,66.0771484 C45.3193359,66.0771484 44.6894531,65.6523438 44.4770508,64.9858398 L43.1806641,64.9858398 C43.3198242,66.296875 44.5283203,67.1391602 46.2861328,67.1391602 C48.0805664,67.1391602 49.4501953,66.1650391 49.4501953,64.7514648 C49.4501953,63.6162109 48.7324219,62.9716797 47.2456055,62.612793 L46.0297852,62.3198242 C45.0996094,62.0927734 44.6601562,61.7558594 44.6601562,61.2138672 C44.6601562,60.5107422 45.3925781,60.034668 46.3300781,60.034668 C47.2822266,60.034668 47.8974609,60.4521484 48.065918,61.0820312 L49.3110352,61.0820312 C49.1425781,59.7856445 47.9926758,58.965332 46.3374023,58.965332 C44.6601562,58.965332 43.3930664,59.9541016 43.3930664,61.2651367 Z M51.4570312,67 L52.7167969,67 L52.7167969,59.1044922 L51.4570312,59.1044922 L51.4570312,67 Z M52.0869141,57.5004883 C52.5703125,57.5004883 52.9658203,57.1049805 52.9658203,56.621582 C52.9658203,56.1381836 52.5703125,55.7426758 52.0869141,55.7426758 C51.6035156,55.7426758 51.2080078,56.1381836 51.2080078,56.621582 C51.2080078,57.1049805 51.6035156,57.5004883 52.0869141,57.5004883 Z M58.3637695,67.1391602 C56.1152344,67.1391602 54.7236328,65.5864258 54.7236328,63.0522461 C54.7236328,60.5107422 56.1152344,58.965332 58.3637695,58.965332 C60.6123047,58.965332 62.0039062,60.5107422 62.0039062,63.0522461 C62.0039062,65.5864258 60.6123047,67.1391602 58.3637695,67.1391602 Z M58.3637695,66.0039062 C59.8579102,66.0039062 60.7001953,64.9199219 60.7001953,63.0522461 C60.7001953,61.1772461 59.8579102,60.1005859 58.3637695,60.1005859 C56.8696289,60.1005859 56.0273438,61.1772461 56.0273438,63.0522461 C56.0273438,64.9199219 56.8696289,66.0039062 58.3637695,66.0039062 Z M63.9814453,67 L65.2412109,67 L65.2412109,62.3271484 C65.2412109,60.9428711 66.0541992,60.1005859 67.3139648,60.1005859 C68.5737305,60.1005859 69.1743164,60.7744141 69.1743164,62.1953125 L69.1743164,67 L70.434082,67 L70.434082,61.8876953 C70.434082,60.0126953 69.4453125,58.965332 67.6728516,58.965332 C66.4643555,58.965332 65.6953125,59.4780273 65.2998047,60.3496094 L65.1826172,60.3496094 L65.1826172,59.1044922 L63.9814453,59.1044922 L63.9814453,67 Z M73.7739258,67.0732422 C74.3012695,67.0732422 74.7260742,66.6411133 74.7260742,66.1210938 C74.7260742,65.59375 74.3012695,65.1689453 73.7739258,65.1689453 C73.2539062,65.1689453 72.8217773,65.59375 72.8217773,66.1210938 C72.8217773,66.6411133 73.2539062,67.0732422 73.7739258,67.0732422 Z M73.7739258,61.440918 C74.3012695,61.440918 74.7260742,61.0087891 74.7260742,60.4887695 C74.7260742,59.9614258 74.3012695,59.5366211 73.7739258,59.5366211 C73.2539062,59.5366211 72.8217773,59.9614258 72.8217773,60.4887695 C72.8217773,61.0087891 73.2539062,61.440918 73.7739258,61.440918 Z M84.8994141,67.2490234 C87.0893555,67.2490234 88.5908203,65.7841797 88.5908203,63.6381836 C88.5908203,61.5581055 87.1845703,60.1005859 85.1777344,60.1005859 C84.2036133,60.1005859 83.456543,60.4008789 82.9438477,61.0014648 L82.8266602,61.0014648 L83.1269531,57.6103516 L87.9902344,57.6103516 L87.9902344,56.4311523 L82.0942383,56.4311523 L81.515625,62.4223633 L82.753418,62.4223633 C83.1855469,61.6679688 83.9765625,61.2358398 84.9360352,61.2358398 C86.3203125,61.2358398 87.2724609,62.2246094 87.2724609,63.6748047 C87.2724609,65.125 86.3276367,66.0917969 84.9140625,66.0917969 C83.6689453,66.0917969 82.7607422,65.3300781 82.6435547,64.1875 L81.347168,64.1875 C81.4643555,66.0112305 82.8999023,67.2490234 84.8994141,67.2490234 Z M92.8535156,62.1293945 L94.1938477,62.1293945 C95.6953125,62.1293945 96.6254883,62.8911133 96.6254883,64.1142578 C96.6254883,65.2714844 95.6367188,66.0991211 94.2451172,66.0991211 C92.8828125,66.0991211 91.9306641,65.3740234 91.8134766,64.2460938 L90.5390625,64.2460938 C90.6342773,66.0551758 92.1137695,67.2490234 94.2597656,67.2490234 C96.347168,67.2490234 97.9804688,65.894043 97.9804688,64.1508789 C97.9804688,62.7080078 97.1088867,61.7119141 95.6733398,61.5288086 L95.6733398,61.4116211 C96.8305664,61.1333008 97.5263672,60.2104492 97.5263672,58.9506836 C97.5263672,57.4125977 96.0541992,56.1821289 94.2084961,56.1821289 C92.1943359,56.1821289 90.8833008,57.3100586 90.7514648,59.1411133 L92.0332031,59.1411133 C92.1430664,58.0058594 92.9414062,57.3320312 94.1572266,57.3320312 C95.3730469,57.3320312 96.1860352,58.0498047 96.1860352,59.1264648 C96.1860352,60.2250977 95.3364258,61.0014648 94.1352539,61.0014648 L92.8535156,61.0014648 L92.8535156,62.1293945 Z M101.144531,67.0732422 C101.671875,67.0732422 102.09668,66.6411133 102.09668,66.1210938 C102.09668,65.59375 101.671875,65.1689453 101.144531,65.1689453 C100.624512,65.1689453 100.192383,65.59375 100.192383,66.1210938 C100.192383,66.6411133 100.624512,67.0732422 101.144531,67.0732422 Z M108.102539,67.2490234 C105.722168,67.2490234 104.352539,65.2275391 104.352539,61.7119141 C104.352539,58.2255859 105.736816,56.1821289 108.102539,56.1821289 C110.453613,56.1821289 111.837891,58.2329102 111.837891,61.7338867 C111.837891,65.2421875 110.475586,67.2490234 108.102539,67.2490234 Z M108.102539,66.0991211 C109.662598,66.0991211 110.512207,64.5463867 110.512207,61.7119141 C110.512207,58.9067383 109.647949,57.3393555 108.102539,57.3393555 C106.557129,57.3393555 105.678223,58.9213867 105.678223,61.7119141 C105.678223,64.5390625 106.54248,66.0991211 108.102539,66.0991211 Z M121.45459,69.0288086 C120.209473,66.8461914 119.660156,64.890625 119.660156,62.6054688 C119.660156,60.2397461 120.414551,57.6835938 121.476562,56.4384766 L120.414551,56.4384766 C118.97168,58.2841797 118.36377,60.1005859 118.36377,62.6054688 C118.36377,65.1176758 119.081543,67.4541016 120.341309,69.0288086 L121.45459,69.0288086 Z M127.299316,67.2416992 C125.709961,67.2416992 124.494141,66.3920898 123.834961,64.8393555 C123.490723,64.0336914 123.322266,63.0595703 123.322266,61.8950195 C123.322266,58.262207 124.801758,56.1821289 127.387207,56.1821289 C129.181641,56.1821289 130.514648,57.2441406 130.851562,58.9433594 L129.496582,58.9433594 C129.210938,57.9545898 128.412598,57.3540039 127.372559,57.3540039 C125.651367,57.3540039 124.677246,58.8774414 124.604004,61.6899414 L124.721191,61.6899414 C125.241211,60.6645508 126.273926,60.0639648 127.533691,60.0639648 C129.547852,60.0639648 131.005371,61.5507812 131.005371,63.6015625 C131.005371,65.7255859 129.467285,67.2416992 127.299316,67.2416992 Z M127.284668,66.0844727 C128.639648,66.0844727 129.672363,65.0297852 129.672363,63.6455078 C129.672363,62.2026367 128.698242,61.206543 127.299316,61.206543 C125.900391,61.206543 124.896973,62.2026367 124.896973,63.6015625 C124.896973,65.0151367 125.929688,66.0844727 127.284668,66.0844727 Z M137.94873,67 L137.94873,64.8100586 L132.799805,64.8100586 L132.799805,63.6088867 C133.744629,61.9316406 135.421875,59.2802734 137.326172,56.4311523 L139.237793,56.4311523 L139.237793,63.6308594 L140.739258,63.6308594 L140.739258,64.8100586 L139.237793,64.8100586 L139.237793,67 L137.94873,67 Z M134.147461,63.550293 L134.147461,63.6381836 L137.956055,63.6381836 L137.956055,57.6542969 L137.868164,57.6542969 C136.78418,59.2290039 135.407227,61.4116211 134.147461,63.550293 Z M147.536133,63.3452148 L147.536133,62.1513672 L142.731445,62.1513672 L142.731445,63.3452148 L147.536133,63.3452148 Z M153.783691,67.1391602 C152.685059,67.1391602 151.747559,66.6191406 151.249512,65.7402344 L151.132324,65.7402344 L151.132324,67 L149.931152,67 L149.931152,55.9697266 L151.190918,55.9697266 L151.190918,60.3496094 L151.308105,60.3496094 C151.740234,59.5 152.699707,58.965332 153.783691,58.965332 C155.790527,58.965332 157.094238,60.5693359 157.094238,63.0522461 C157.094238,65.5205078 155.783203,67.1391602 153.783691,67.1391602 Z M153.490723,60.1005859 C152.055176,60.1005859 151.161621,61.2285156 151.161621,63.0522461 C151.161621,64.8759766 152.055176,66.0039062 153.490723,66.0039062 C154.933594,66.0039062 155.790527,64.8979492 155.790527,63.0522461 C155.790527,61.206543 154.933594,60.1005859 153.490723,60.1005859 Z M159.101074,67 L160.36084,67 L160.36084,59.1044922 L159.101074,59.1044922 L159.101074,67 Z M159.730957,57.5004883 C160.214355,57.5004883 160.609863,57.1049805 160.609863,56.621582 C160.609863,56.1381836 160.214355,55.7426758 159.730957,55.7426758 C159.247559,55.7426758 158.852051,56.1381836 158.852051,56.621582 C158.852051,57.1049805 159.247559,57.5004883 159.730957,57.5004883 Z M163.290527,57.0610352 L163.290527,59.1044922 L162.016113,59.1044922 L162.016113,60.1591797 L163.290527,60.1591797 L163.290527,64.9492188 C163.290527,66.4580078 163.942383,67.0585938 165.568359,67.0585938 C165.817383,67.0585938 166.059082,67.0292969 166.308105,66.9853516 L166.308105,65.9233398 C166.07373,65.9453125 165.949219,65.9526367 165.722168,65.9526367 C164.901855,65.9526367 164.550293,65.5571289 164.550293,64.6269531 L164.550293,60.1591797 L166.308105,60.1591797 L166.308105,59.1044922 L164.550293,59.1044922 L164.550293,57.0610352 L163.290527,57.0610352 Z M167.94873,69.0288086 L169.069336,69.0288086 C170.329102,67.4394531 171.046875,65.1030273 171.046875,62.6054688 C171.046875,60.1005859 170.446289,58.2841797 169.003418,56.4384766 L167.934082,56.4384766 C168.996094,57.6762695 169.743164,60.2250977 169.743164,62.6054688 C169.743164,64.890625 169.193848,66.8461914 167.94873,69.0288086 Z"/>
    <path fill="#0060DF" d="M284.214355,58.6577148 L284.302246,58.6577148 L286.733887,67 L287.979004,67 L290.857422,56.4311523 L289.480469,56.4311523 L287.378418,65.0224609 L287.290527,65.0224609 L284.924805,56.4311523 L283.591797,56.4311523 L281.226074,65.0224609 L281.138184,65.0224609 L279.036133,56.4311523 L277.65918,56.4311523 L280.537598,67 L281.782715,67 L284.214355,58.6577148 Z M292.776367,67 L294.036133,67 L294.036133,62.3271484 C294.036133,60.9941406 294.8125,60.1005859 296.226074,60.1005859 C297.419922,60.1005859 298.049805,60.7963867 298.049805,62.1953125 L298.049805,67 L299.30957,67 L299.30957,61.8876953 C299.30957,60.034668 298.254883,58.965332 296.584961,58.965332 C295.376465,58.965332 294.548828,59.4780273 294.15332,60.3496094 L294.036133,60.3496094 L294.036133,55.9697266 L292.776367,55.9697266 L292.776367,67 Z M304.041016,66.0332031 C305.337402,66.0332031 306.296875,65.1835938 306.296875,64.0556641 L306.296875,63.3305664 L304.172852,63.4697266 C302.97168,63.550293 302.444336,63.9677734 302.444336,64.7587891 C302.444336,65.5644531 303.125488,66.0332031 304.041016,66.0332031 Z M303.806641,67.1391602 C302.275879,67.1391602 301.140625,66.230957 301.140625,64.7880859 C301.140625,63.3745117 302.180664,62.5615234 304.019043,62.4516602 L306.296875,62.3125 L306.296875,61.5947266 C306.296875,60.6206055 305.688965,60.0859375 304.509766,60.0859375 C303.564941,60.0859375 302.905762,60.4448242 302.72998,61.0673828 L301.455566,61.0673828 C301.624023,59.800293 302.869141,58.965332 304.553711,58.965332 C306.47998,58.965332 307.556641,59.9541016 307.556641,61.5947266 L307.556641,67 L306.355469,67 L306.355469,65.8354492 L306.238281,65.8354492 C305.725586,66.6777344 304.861328,67.1391602 303.806641,67.1391602 Z M310.413086,57.0610352 L310.413086,59.1044922 L309.138672,59.1044922 L309.138672,60.1591797 L310.413086,60.1591797 L310.413086,64.9492188 C310.413086,66.4580078 311.064941,67.0585938 312.690918,67.0585938 C312.939941,67.0585938 313.181641,67.0292969 313.430664,66.9853516 L313.430664,65.9233398 C313.196289,65.9453125 313.071777,65.9526367 312.844727,65.9526367 C312.024414,65.9526367 311.672852,65.5571289 311.672852,64.6269531 L311.672852,60.1591797 L313.430664,60.1591797 L313.430664,59.1044922 L311.672852,59.1044922 L311.672852,57.0610352 L310.413086,57.0610352 Z M316.265137,60.3789062 L317.561523,56.4311523 L316.169922,56.4311523 L315.166504,60.3789062 L316.265137,60.3789062 Z M319.583008,61.2651367 C319.583008,62.4077148 320.256836,63.0449219 321.736328,63.4038086 L323.091309,63.7333984 C323.933594,63.9384766 324.34375,64.3046875 324.34375,64.8466797 C324.34375,65.5717773 323.582031,66.0771484 322.52002,66.0771484 C321.509277,66.0771484 320.879395,65.6523438 320.666992,64.9858398 L319.370605,64.9858398 C319.509766,66.296875 320.718262,67.1391602 322.476074,67.1391602 C324.270508,67.1391602 325.640137,66.1650391 325.640137,64.7514648 C325.640137,63.6162109 324.922363,62.9716797 323.435547,62.612793 L322.219727,62.3198242 C321.289551,62.0927734 320.850098,61.7558594 320.850098,61.2138672 C320.850098,60.5107422 321.58252,60.034668 322.52002,60.034668 C323.472168,60.034668 324.087402,60.4521484 324.255859,61.0820312 L325.500977,61.0820312 C325.33252,59.7856445 324.182617,58.965332 322.527344,58.965332 C320.850098,58.965332 319.583008,59.9541016 319.583008,61.2651367 Z M331.851074,67 L333.11084,67 L333.11084,62.3271484 C333.11084,60.9428711 333.923828,60.1005859 335.183594,60.1005859 C336.443359,60.1005859 337.043945,60.7744141 337.043945,62.1953125 L337.043945,67 L338.303711,67 L338.303711,61.8876953 C338.303711,60.0126953 337.314941,58.965332 335.54248,58.965332 C334.333984,58.965332 333.564941,59.4780273 333.169434,60.3496094 L333.052246,60.3496094 L333.052246,59.1044922 L331.851074,59.1044922 L331.851074,67 Z M343.75293,60.0786133 C342.493164,60.0786133 341.614258,61.0014648 341.519043,62.4003906 L345.869629,62.4003906 C345.840332,61.0014648 345.005371,60.0786133 343.75293,60.0786133 Z M345.833008,64.956543 L347.092773,64.956543 C346.711914,66.3115234 345.496094,67.1391602 343.767578,67.1391602 C341.577637,67.1391602 340.208008,65.5571289 340.208008,63.0595703 C340.208008,60.5766602 341.599609,58.965332 343.767578,58.965332 C345.898926,58.965332 347.195312,60.4814453 347.195312,62.9350586 L347.195312,63.418457 L341.519043,63.418457 L341.519043,63.4770508 C341.584961,65.0371094 342.456543,66.0258789 343.796875,66.0258789 C344.814941,66.0258789 345.503418,65.6523438 345.833008,64.956543 Z M359.104492,59.1044922 L357.837402,59.1044922 L356.284668,65.4179688 L356.16748,65.4179688 L354.402344,59.1044922 L353.193848,59.1044922 L351.428711,65.4179688 L351.311523,65.4179688 L349.758789,59.1044922 L348.484375,59.1044922 L350.696289,67 L351.970703,67 L353.728516,60.8916016 L353.845703,60.8916016 L355.61084,67 L356.892578,67 L359.104492,59.1044922 Z"/>
    <g transform="translate(171 56)">
      <rect width="105" height="12" fill="#C0DFFF" opacity=".667"/>
      <g stroke="#3DC1FF" stroke-linecap="square">
        <path d="M.481818182.142857143L.481818182 11.8606267M105.518182.142857143L105.518182 11.8606267"/>
      </g>
    </g>
    <path fill="#0A84FF" d="M218.2,78.38 L214.33,75.99 L213.81,76.82 L217.23,78.87 L213.81,80.94 L214.36,81.74 L218.2,79.35 L218.2,78.38 Z M224.16,76.74 C224.16,77.41 223.76,77.86 223.01,78.28 C223.92,78.69 224.43,79.32 224.43,80.14 C224.43,81.25 223.53,82.13 221.98,82.13 C220.42,82.13 219.57,81.25 219.57,80.17 C219.57,79.34 220.09,78.76 220.91,78.39 C220.18,78.01 219.84,77.57 219.84,76.8 C219.84,75.57 220.94,74.96 222,74.96 C223.14,74.96 224.16,75.56 224.16,76.74 Z M220.93,76.81 C220.93,77.49 221.41,77.71 222.25,78 C222.82,77.65 223.07,77.33 223.07,76.8 C223.07,76.18 222.69,75.78 222,75.78 C221.33,75.78 220.93,76.15 220.93,76.81 Z M223.28,80.15 C223.28,79.31 222.66,79.06 221.64,78.71 C221.13,78.97 220.72,79.39 220.72,80.13 C220.72,80.83 221.15,81.28 221.99,81.28 C222.84,81.28 223.28,80.78 223.28,80.15 Z M228.47,76.58 C229.86,76.58 230.39,77.67 230.39,79.35 C230.39,80.96 229.69,82.13 228.35,82.13 C227.8,82.13 227.35,81.94 227.01,81.55 L227.01,84.03 L225.89,84.16 L225.89,76.72 L226.87,76.72 L226.94,77.4 C227.34,76.86 227.88,76.58 228.47,76.58 Z M228.16,77.44 C227.66,77.44 227.27,77.79 227.01,78.2 L227.01,80.67 C227.27,81.05 227.62,81.26 228.05,81.26 C228.81,81.26 229.21,80.68 229.21,79.36 C229.21,78 228.86,77.44 228.16,77.44 Z M231.43,82 L232.67,82 L233.96,79.84 L235.25,82 L236.57,82 L234.67,79.17 L236.32,76.72 L235.09,76.72 L234.01,78.58 L232.93,76.72 L231.64,76.72 L233.32,79.22 L231.43,82 Z"/>
  </g>
</svg>
