<svg xmlns="http://www.w3.org/2000/svg" xmlns:xlink="http://www.w3.org/1999/xlink" style="background:#f9f9fa" viewBox="0 0 360 100"><defs><rect id="a" width="360" height="69"/></defs><g fill="none" fill-rule="evenodd"><path fill="#0060DF" d="M165.63 54.81h-5.1v-9.38h-1.31V56h6.41v-1.19zm5.1-5.73c-1.27 0-2.14.92-2.24 2.32h4.35c-.03-1.4-.86-2.32-2.12-2.32zm2.07 4.88h1.26c-.38 1.35-1.6 2.18-3.32 2.18-2.2 0-3.56-1.58-3.56-4.08 0-2.48 1.4-4.1 3.56-4.1 2.13 0 3.43 1.52 3.43 3.98v.48h-5.68v.06c.07 1.56.94 2.55 2.28 2.55 1.02 0 1.7-.38 2.03-1.07zm5.78 1.07c1.3 0 2.25-.85 2.25-1.97v-.73l-2.12.14c-1.2.08-1.73.5-1.73 1.29 0 .8.68 1.27 1.6 1.27zm-.24 1.1c-1.53 0-2.66-.9-2.66-2.34 0-1.42 1.04-2.23 2.87-2.34l2.28-.14v-.72c0-.97-.6-1.5-1.79-1.5-.94 0-1.6.35-1.77.98h-1.28c.17-1.27 1.41-2.1 3.1-2.1 1.93 0 3 .98 3 2.62V56h-1.2v-1.16h-.12a2.73 2.73 0 0 1-2.43 1.3zm6.08-.13h1.26v-4.9c0-1.1.87-1.91 2.07-1.91.25 0 .7.04.8.07V48a5.41 5.41 0 0 0-.62-.03c-1.05 0-1.96.54-2.2 1.3h-.1V48.1h-1.2V56zm5.71 0h1.26v-4.67c0-1.39.82-2.23 2.08-2.23 1.26 0 1.86.67 1.86 2.1V56h1.26v-5.11c0-1.88-1-2.92-2.76-2.92-1.21 0-1.98.5-2.38 1.38h-.12V48.1h-1.2V56zm12.99 0h1.26v-4.9c0-1.1.8-2 1.83-2 1 0 1.65.6 1.65 1.54V56h1.26v-5.08c0-1 .73-1.82 1.83-1.82 1.11 0 1.66.57 1.66 1.74V56h1.26v-5.46c0-1.65-.9-2.57-2.51-2.57-1.1 0-2 .54-2.42 1.38h-.11a2.28 2.28 0 0 0-2.19-1.38c-1.05 0-1.84.5-2.2 1.38h-.12V48.1h-1.2V56zm16.3.14c-2.25 0-3.64-1.55-3.64-4.09s1.39-4.08 3.64-4.08c2.24 0 3.64 1.54 3.64 4.08s-1.4 4.09-3.64 4.09zm0-1.14c1.49 0 2.33-1.08 2.33-2.95s-.84-2.95-2.33-2.95c-1.5 0-2.34 1.08-2.34 2.95s.84 2.95 2.34 2.95zm5.61 1h1.26v-4.9c0-1.1.88-1.91 2.08-1.91.25 0 .7.04.8.07V48a5.41 5.41 0 0 0-.63-.03c-1.05 0-1.95.54-2.19 1.3h-.12V48.1h-1.2V56zm8.87-6.92c-1.26 0-2.14.92-2.24 2.32h4.35c-.03-1.4-.86-2.32-2.11-2.32zm2.08 4.88h1.26c-.39 1.35-1.6 2.18-3.33 2.18-2.19 0-3.56-1.58-3.56-4.08 0-2.48 1.4-4.1 3.56-4.1 2.13 0 3.43 1.52 3.43 3.98v.48h-5.68v.06c.07 1.56.94 2.55 2.28 2.55 1.02 0 1.7-.38 2.04-1.07z"/><g transform="translate(248 40)"><rect width="55" height="22" x="4" fill="#0A84FF" rx="2"/><polygon fill="#0A84FF" points="0 11 4 7 8 11 4 15"/><path fill="#FFFFFF" d="M12.3 7.96c.12 1.3.19 2.4.19 3.28V15h-1.24V6.72h1.81l2.64 7.04-.13-1.6c-.04-.47-.06-1.03-.06-1.67V6.72h1.24V15h-1.81L12.3 7.96zm11.02 1.43c.5.6.75 1.4.75 2.43 0 1.02-.25 1.84-.76 2.44-.5.6-1.2.9-2.11.9-.91 0-1.62-.3-2.12-.89-.5-.58-.75-1.4-.75-2.44 0-1 .26-1.81.76-2.42a2.6 2.6 0 0 1 2.12-.91c.91 0 1.62.3 2.11.89zm-3.2.71c-.25.38-.37.96-.37 1.73 0 .79.12 1.36.36 1.74.24.37.6.55 1.09.55.49 0 .85-.18 1.1-.56.23-.38.35-.96.35-1.74s-.12-1.35-.36-1.72a1.2 1.2 0 0 0-1.08-.56c-.49 0-.85.19-1.1.56zm11.2-1.44L31.09 11h-.96V9.7c-.44.02-.82.2-1.15.54-.32.34-.58.82-.77 1.45v2.35h1.27V15h-3.55v-.96h.93V9.62h-.93v-.96h1.95l.24 1.47c.25-.55.55-.95.91-1.22s.8-.4 1.33-.4c.32 0 .64.05.96.15zm7.04.24c.22.28.34.74.34 1.4V15h-1.2v-4.52c0-.36-.02-.6-.07-.74-.05-.13-.17-.2-.34-.2-.34 0-.65.21-.94.64V15h-1.09v-4.52c0-.36-.03-.6-.08-.74-.05-.13-.16-.2-.34-.2-.34 0-.65.21-.94.64V15h-1.2V8.66h1.01l.1.69c.2-.28.4-.5.61-.64.2-.14.46-.21.74-.21.56 0 .92.26 1.08.8.2-.26.4-.45.63-.6.22-.13.48-.2.77-.2.39 0 .7.13.92.4zM45.22 14c.08.11.2.2.38.25l-.32.92c-.66-.08-1.1-.38-1.3-.88-.24.29-.53.5-.87.65a2.9 2.9 0 0 1-1.15.23c-.64 0-1.15-.18-1.52-.54a1.89 1.89 0 0 1-.57-1.43c0-.67.26-1.18.79-1.54a3.9 3.9 0 0 1 2.22-.54h.9v-.4c0-.4-.12-.7-.36-.88a1.7 1.7 0 0 0-1.04-.28 6.53 6.53 0 0 0-1.68.32l-.34-.94c.76-.29 1.5-.43 2.22-.43.84 0 1.48.18 1.9.55.42.37.64.89.64 1.57v2.83c0 .24.03.42.1.54zm-2.05-.03c.26-.15.46-.35.61-.6v-1.4h-.74c-.6 0-1.05.1-1.33.3-.28.2-.42.5-.42.88 0 .34.09.6.27.77.18.17.44.26.8.26.28 0 .55-.07.8-.21zm7.08-.69c0 .54.32.8.96.8.32 0 .66-.07 1.01-.21l.34.94c-.44.24-.99.36-1.64.36a2 2 0 0 1-1.48-.54 1.99 1.99 0 0 1-.53-1.47V7.1H47v-.98h3.25v7.15z"/></g><g transform="translate(99 62)"><rect width="104" height="22" y="4" fill="#0A84FF" rx="2"/><polygon fill="#0A84FF" points="15 4 19 0 23 4 19 8"/><polygon fill="#0A84FF" points="81 4 85 0 89 4 85 8"/><path fill="#FFFFFF" d="M33.01 18.45c-.6.37-1.38.55-2.31.55h-2.43v-8.28h2.27c.88 0 1.6.16 2.17.49.57.32.85.86.85 1.61 0 .48-.14.87-.43 1.18-.3.31-.66.51-1.1.6.54.1 1 .3 1.35.61.36.31.54.78.54 1.4 0 .86-.3 1.47-.9 1.84zm-1.24-6.41a1.87 1.87 0 0 0-1.11-.28h-1v2.4h1.08c.48 0 .83-.1 1.06-.3.23-.2.35-.5.35-.93 0-.41-.13-.7-.38-.89zm.27 3.47a1.99 1.99 0 0 0-1.2-.31h-1.18v2.72h1.13c1.12 0 1.68-.44 1.68-1.3 0-.53-.14-.9-.43-1.1zm8.18-2.12c.5.6.75 1.4.75 2.43 0 1.02-.25 1.84-.76 2.44-.5.6-1.2.9-2.11.9-.91 0-1.62-.3-2.12-.89-.5-.58-.75-1.4-.75-2.44 0-1 .26-1.81.76-2.42a2.6 2.6 0 0 1 2.12-.91c.91 0 1.62.3 2.11.89zm-3.2.71c-.25.38-.37.96-.37 1.73 0 .79.12 1.36.36 1.74.24.37.6.55 1.09.55.49 0 .85-.18 1.1-.56.23-.38.35-.96.35-1.74s-.12-1.35-.36-1.72a1.2 1.2 0 0 0-1.08-.56c-.49 0-.85.19-1.1.56zm10.81-3.98V19h-1.19l-.1-.78a2.12 2.12 0 0 1-1.77.94c-.79 0-1.39-.3-1.79-.9-.4-.58-.6-1.4-.6-2.43 0-.65.1-1.22.31-1.73.2-.5.5-.9.87-1.18.38-.28.82-.42 1.33-.42.65 0 1.18.23 1.6.7V9.95l1.34.16zm-3.65 3.98c-.25.38-.37.96-.37 1.73 0 1.54.44 2.3 1.32 2.3.53 0 .98-.3 1.36-.9v-3c-.33-.47-.75-.7-1.25-.7-.46 0-.82.19-1.06.57zm9.15 4.92a4.13 4.13 0 0 1-1.11 1.81c-.49.44-1.15.69-2 .76l-.17-1c.42-.07.75-.17 1.01-.3.26-.13.46-.3.61-.5.15-.2.29-.46.41-.79h-.46l-2.13-6.34h1.43l1.6 5.4 1.61-5.4h1.38l-2.18 6.36zm14.64-8.16a2.22 2.22 0 0 1 1.22 2.03c0 .49-.11.96-.33 1.42a6.8 6.8 0 0 1-1.1 1.53c-.5.55-1.21 1.25-2.13 2.08h3.75L69.24 19h-5.15v-1.02c1.04-1 1.82-1.78 2.33-2.35.51-.56.87-1.04 1.08-1.44.2-.4.31-.8.31-1.21 0-.42-.12-.75-.36-.99a1.33 1.33 0 0 0-.98-.36c-.36 0-.67.07-.92.2s-.5.35-.76.67l-.87-.68c.33-.42.7-.74 1.13-.95.43-.21.93-.32 1.51-.32a3 3 0 0 1 1.41.31zm8.23.8c.48.74.72 1.8.72 3.19a5.9 5.9 0 0 1-.72 3.19 2.34 2.34 0 0 1-2.1 1.12c-.92 0-1.62-.38-2.1-1.12a5.9 5.9 0 0 1-.72-3.2c0-1.38.24-2.44.72-3.18a2.35 2.35 0 0 1 2.1-1.1c.92 0 1.62.36 2.1 1.1zm-3.2.7a6.13 6.13 0 0 0-.36 2.49c0 1.15.12 1.99.37 2.5.25.53.61.79 1.09.79.48 0 .84-.26 1.1-.78.24-.52.36-1.36.36-2.51 0-1.15-.12-1.98-.37-2.5-.25-.5-.61-.77-1.09-.77-.48 0-.84.26-1.1.78zm1.66 1.95c.16.15.23.33.23.55 0 .22-.07.41-.23.56a.77.77 0 0 1-.56.23.75.75 0 0 1-.56-.23.78.78 0 0 1-.22-.56c0-.22.07-.4.22-.55a.75.75 0 0 1 .56-.23c.22 0 .41.08.56.23z"/></g><g transform="translate(0 37)"><mask id="b" fill="white"><use xlink:href="#a"/></mask><path fill="#0C0C0D" d="M-194.59-47v-9.38h3.4v-1.19h-8.12v1.19h3.4V-47h1.32zm5.28 0h1.26v-4.9c0-1.1.87-1.91 2.08-1.91.24 0 .7.04.8.07V-55a5.41 5.41 0 0 0-.63-.03c-1.05 0-1.95.54-2.19 1.3h-.12v-1.17h-1.2v7.9zm8.15-.97c1.3 0 2.25-.85 2.25-1.97v-.73l-2.12.14c-1.2.08-1.73.5-1.73 1.29 0 .8.68 1.27 1.6 1.27zm-.24 1.1c-1.53 0-2.66-.9-2.66-2.34 0-1.42 1.04-2.23 2.88-2.34l2.27-.14v-.72c0-.97-.6-1.5-1.78-1.5-.95 0-1.6.35-1.78.98h-1.28c.17-1.27 1.42-2.1 3.1-2.1 1.93 0 3 .98 3 2.62V-47h-1.2v-1.16h-.11a2.73 2.73 0 0 1-2.44 1.3zm12.62-5.6c-.22-1.41-1.4-2.56-3.31-2.56-2.22 0-3.62 1.6-3.62 4.05 0 2.52 1.41 4.12 3.62 4.12 1.9 0 3.08-1.07 3.3-2.52h-1.27c-.23.9-.97 1.38-2.03 1.38-1.41 0-2.32-1.15-2.32-2.98 0-1.78.9-2.92 2.32-2.92 1.13 0 1.83.64 2.03 1.42h1.28zm3.3 1.02h-.11v-6.58h-1.26V-47h1.26v-3l.75-.7 2.96 3.7h1.6l-3.62-4.51 3.4-3.39h-1.55l-3.42 3.45zm6.73 4.45h1.26v-7.9h-1.26v7.9zm.63-9.5c.48 0 .88-.4.88-.88s-.4-.88-.88-.88-.88.4-.88.88.4.88.88.88zm3.03 9.5h1.26v-4.67c0-1.39.81-2.23 2.07-2.23 1.26 0 1.86.67 1.86 2.1v4.8h1.26v-5.11c0-1.88-.98-2.92-2.76-2.92-1.2 0-1.97.5-2.37 1.38h-.12v-1.25h-1.2v7.9zm11.95-1.23c1.46 0 2.34-1.11 2.34-2.83 0-1.73-.88-2.84-2.34-2.84-1.47 0-2.29 1.11-2.29 2.84 0 1.72.82 2.83 2.29 2.83zm.06 4.26c-1.9 0-3.12-.85-3.31-2.16h1.33c.14.65.84 1.06 1.98 1.06 1.41 0 2.25-.7 2.25-1.86v-1.55h-.11c-.5.87-1.4 1.36-2.48 1.36-2.04 0-3.31-1.58-3.31-3.94 0-2.37 1.28-3.97 3.31-3.97 1.1 0 2.08.54 2.53 1.39h.12v-1.26h1.2v8.04c0 1.76-1.36 2.9-3.51 2.9zm10.15-3.03h1.26v-7.9h-1.26v7.9zm.63-9.5c.48 0 .88-.4.88-.88s-.4-.88-.88-.88a.88.88 0 0 0 0 1.76zm2.85 3.77c0 1.14.67 1.77 2.15 2.13l1.36.33c.84.2 1.25.57 1.25 1.12 0 .72-.76 1.23-1.83 1.23-1 0-1.64-.43-1.85-1.1h-1.3c.14 1.32 1.35 2.16 3.11 2.16 1.8 0 3.16-.97 3.16-2.39 0-1.13-.71-1.78-2.2-2.14l-1.22-.29c-.93-.23-1.37-.56-1.37-1.1 0-.7.74-1.19 1.67-1.19.96 0 1.57.42 1.74 1.05h1.24c-.16-1.3-1.31-2.11-2.97-2.11-1.68 0-2.94.98-2.94 2.3zm12.8-4.2v2.03h-1.28v1.06h1.27v4.79c0 1.5.65 2.1 2.28 2.1.25 0 .5-.02.74-.06v-1.07c-.23.03-.36.03-.59.03-.82 0-1.17-.4-1.17-1.32v-4.47h1.76v-1.06h-1.76v-2.04h-1.26zm4.99 9.93h1.26v-4.67c0-1.34.77-2.23 2.19-2.23 1.2 0 1.82.7 1.82 2.1v4.8h1.26v-5.11c0-1.86-1.05-2.92-2.72-2.92-1.21 0-2.04.5-2.44 1.38h-.11v-4.38h-1.26V-47zm11.98-6.92c-1.26 0-2.14.92-2.23 2.32h4.35c-.03-1.4-.87-2.32-2.12-2.32zm2.08 4.88h1.26c-.38 1.35-1.6 2.18-3.33 2.18-2.19 0-3.56-1.58-3.56-4.08 0-2.48 1.4-4.1 3.56-4.1 2.14 0 3.43 1.52 3.43 3.98v.48h-5.67v.06c.06 1.56.93 2.55 2.27 2.55 1.02 0 1.71-.38 2.04-1.07zm14.1-3.44c-.21-1.4-1.39-2.55-3.3-2.55-2.22 0-3.62 1.6-3.62 4.05 0 2.52 1.41 4.12 3.62 4.12 1.9 0 3.08-1.07 3.3-2.52h-1.27c-.23.9-.97 1.38-2.03 1.38-1.41 0-2.32-1.15-2.32-2.98 0-1.78.9-2.92 2.32-2.92 1.13 0 1.83.64 2.03 1.42h1.28zm5.11 5.62c-2.25 0-3.64-1.55-3.64-4.09s1.4-4.08 3.64-4.08c2.25 0 3.64 1.54 3.64 4.08s-1.39 4.09-3.64 4.09zm0-1.14c1.5 0 2.34-1.08 2.34-2.95s-.84-2.95-2.34-2.95-2.34 1.08-2.34 2.95.85 2.95 2.34 2.95zm5.7 1h1.25v-11.03h-1.26V-47zm3.77 0h1.26v-11.03h-1.26V-47zm6.86-6.92c-1.26 0-2.14.92-2.24 2.32h4.35c-.03-1.4-.86-2.32-2.11-2.32zm2.08 4.88h1.26c-.38 1.35-1.6 2.18-3.33 2.18-2.19 0-3.56-1.58-3.56-4.08 0-2.48 1.4-4.1 3.56-4.1 2.13 0 3.43 1.52 3.43 3.98v.48h-5.68v.06c.07 1.56.94 2.55 2.28 2.55 1.02 0 1.7-.38 2.04-1.07zm9.87-3.44c-.22-1.4-1.4-2.55-3.31-2.55-2.21 0-3.62 1.6-3.62 4.05 0 2.52 1.41 4.12 3.63 4.12 1.9 0 3.07-1.07 3.3-2.52h-1.27c-.24.9-.98 1.38-2.04 1.38-1.4 0-2.31-1.15-2.31-2.98 0-1.78.89-2.92 2.31-2.92 1.13 0 1.83.64 2.04 1.42h1.27zm2.39-4.46v2.04H-49v1.06h1.28v4.79c0 1.5.65 2.1 2.28 2.1.24 0 .49-.02.74-.06v-1.07c-.24.03-.36.03-.6.03-.81 0-1.16-.4-1.16-1.32v-4.47h1.76v-1.06h-1.76v-2.04h-1.26zm4.95 9.94h1.26v-7.9h-1.26v7.9zm.63-9.5c.48 0 .88-.4.88-.88s-.4-.88-.88-.88-.88.4-.88.88.4.88.88.88zm6.28 9.64c-2.25 0-3.64-1.55-3.64-4.09s1.39-4.08 3.64-4.08c2.24 0 3.64 1.54 3.64 4.08s-1.4 4.09-3.64 4.09zm0-1.14c1.49 0 2.33-1.08 2.33-2.95s-.84-2.95-2.33-2.95c-1.5 0-2.34 1.08-2.34 2.95s.84 2.95 2.34 2.95zm5.61 1h1.26v-4.67c0-1.39.82-2.23 2.08-2.23 1.26 0 1.86.67 1.86 2.1v4.8h1.26v-5.11c0-1.88-1-2.92-2.77-2.92-1.2 0-1.97.5-2.37 1.38h-.12v-1.25h-1.2v7.9zm16.23.14c-2.24 0-3.64-1.55-3.64-4.09s1.4-4.08 3.64-4.08c2.25 0 3.64 1.54 3.64 4.08s-1.39 4.09-3.64 4.09zm0-1.14c1.5 0 2.34-1.08 2.34-2.95s-.84-2.95-2.34-2.95c-1.49 0-2.33 1.08-2.33 2.95s.84 2.95 2.33 2.95zm6.15 1h1.26v-6.84h1.8v-1.06h-1.8v-.73c0-.88.42-1.27 1.18-1.27.25 0 .53.03.7.07v-1.05c-.3-.06-.53-.08-.78-.08-1.52 0-2.36.68-2.36 2.3v.76h-1.31v1.06h1.3V-47zm9.8 2.86c1.4 0 2.03-.55 2.7-2.38l3.1-8.38H6.37l-2.16 6.5H4.1l-2.16-6.5H.57L3.5-47l-.15.48c-.33.95-.73 1.3-1.45 1.3-.18 0-.37-.01-.53-.04v1.07c.18.03.4.05.57.05zm10.72-2.72c-2.25 0-3.64-1.55-3.64-4.09s1.4-4.08 3.64-4.08c2.25 0 3.64 1.54 3.64 4.08s-1.39 4.09-3.64 4.09zm0-1.14c1.5 0 2.34-1.08 2.34-2.95s-.84-2.95-2.34-2.95-2.34 1.08-2.34 2.95.85 2.95 2.34 2.95zm12-6.9H23.4v4.68c0 1.38-.77 2.2-2.16 2.2-1.26 0-1.78-.65-1.78-2.07v-4.8H18.2v5.1c0 1.87.92 2.93 2.7 2.93 1.2 0 2.04-.5 2.44-1.38h.11V-47h1.2v-7.9zm2.38 7.9h1.26v-4.9c0-1.1.87-1.91 2.07-1.91.25 0 .7.04.8.07V-55a5.41 5.41 0 0 0-.62-.03c-1.05 0-1.96.54-2.2 1.3h-.11v-1.17h-1.2v7.9zm13.87.14c-1.1 0-2.04-.52-2.53-1.4h-.12V-47h-1.2v-11.03h1.26v4.38h.12a2.73 2.73 0 0 1 2.47-1.38c2 0 3.31 1.6 3.31 4.08 0 2.47-1.31 4.09-3.3 4.09zm-.3-7.04c-1.43 0-2.32 1.13-2.32 2.95 0 1.83.9 2.95 2.33 2.95 1.44 0 2.3-1.1 2.3-2.95 0-1.84-.86-2.95-2.3-2.95zM46.2-47h1.26v-4.9c0-1.1.87-1.91 2.07-1.91.25 0 .7.04.8.07V-55a5.41 5.41 0 0 0-.62-.03c-1.05 0-1.96.54-2.2 1.3h-.11v-1.17h-1.2v7.9zm8.96.14c-2.25 0-3.64-1.55-3.64-4.09s1.39-4.08 3.64-4.08 3.64 1.54 3.64 4.08-1.4 4.09-3.64 4.09zm0-1.14c1.5 0 2.33-1.08 2.33-2.95s-.84-2.95-2.33-2.95c-1.5 0-2.34 1.08-2.34 2.95S53.65-48 55.15-48zm15.55-6.9h-1.27l-1.55 6.32h-.12l-1.77-6.32h-1.2l-1.77 6.32h-.12l-1.55-6.32h-1.27l2.2 7.9h1.28l1.76-6.1h.12L67.2-47h1.28l2.22-7.9zm1.5 2.17c0 1.14.67 1.77 2.15 2.13l1.36.33c.84.2 1.25.57 1.25 1.12 0 .72-.76 1.23-1.83 1.23-1 0-1.64-.43-1.85-1.1h-1.3c.14 1.32 1.35 2.16 3.11 2.16 1.8 0 3.16-.97 3.16-2.39 0-1.13-.71-1.78-2.2-2.14l-1.22-.29c-.93-.23-1.37-.56-1.37-1.1 0-.7.74-1.19 1.67-1.19.96 0 1.57.42 1.74 1.05h1.25c-.17-1.3-1.32-2.11-2.98-2.11-1.68 0-2.94.98-2.94 2.3zM80.26-47h1.26v-7.9h-1.26v7.9zm.63-9.5c.48 0 .88-.4.88-.88s-.4-.88-.88-.88-.88.4-.88.88.4.88.88.88zm3.03 9.5h1.26v-4.67c0-1.39.82-2.23 2.08-2.23 1.26 0 1.86.67 1.86 2.1v4.8h1.26v-5.11c0-1.88-1-2.92-2.77-2.92-1.2 0-1.97.5-2.37 1.38h-.12v-1.25h-1.2v7.9zm11.95-1.23c1.46 0 2.34-1.11 2.34-2.83 0-1.73-.88-2.84-2.34-2.84-1.47 0-2.29 1.11-2.29 2.84 0 1.72.82 2.83 2.29 2.83zm.06 4.26c-1.9 0-3.12-.85-3.31-2.16h1.33c.14.65.84 1.06 1.98 1.06 1.41 0 2.25-.7 2.25-1.86v-1.55h-.11c-.5.87-1.4 1.36-2.48 1.36-2.04 0-3.31-1.58-3.31-3.94 0-2.37 1.28-3.97 3.31-3.97 1.1 0 2.08.54 2.53 1.39h.12v-1.26h1.2v8.04c0 1.76-1.36 2.9-3.51 2.9zm13.04-2.9c-2.02 0-3.32-1.6-3.32-4.08 0-2.47 1.32-4.08 3.32-4.08 1.1 0 2.03.52 2.48 1.38h.1v-4.38h1.27V-47h-1.2v-1.26h-.12c-.5.88-1.44 1.4-2.53 1.4zm.3-7.03c-1.44 0-2.31 1.11-2.31 2.95 0 1.85.86 2.95 2.3 2.95s2.33-1.12 2.33-2.95c0-1.8-.9-2.95-2.32-2.95zm8.43 5.93c1.3 0 2.25-.85 2.25-1.97v-.73l-2.12.14c-1.2.08-1.73.5-1.73 1.29 0 .8.68 1.27 1.6 1.27zm-.24 1.1c-1.53 0-2.67-.9-2.67-2.34 0-1.42 1.04-2.23 2.88-2.34l2.28-.14v-.72c0-.97-.6-1.5-1.79-1.5-.94 0-1.6.35-1.78.98h-1.27c.17-1.27 1.41-2.1 3.1-2.1 1.92 0 3 .98 3 2.62V-47h-1.2v-1.16h-.12a2.73 2.73 0 0 1-2.43 1.3zm6.6-10.07v2.04h-1.27v1.06h1.28v4.79c0 1.5.65 2.1 2.28 2.1.24 0 .49-.02.73-.06v-1.07c-.23.03-.35.03-.58.03-.82 0-1.17-.4-1.17-1.32v-4.47h1.75v-1.06h-1.75v-2.04h-1.26zm7.36 8.97c1.3 0 2.26-.85 2.26-1.97v-.73l-2.13.14c-1.2.08-1.73.5-1.73 1.29 0 .8.69 1.27 1.6 1.27zm-.23 1.1c-1.53 0-2.67-.9-2.67-2.34 0-1.42 1.04-2.23 2.88-2.34l2.28-.14v-.72c0-.97-.61-1.5-1.79-1.5-.95 0-1.6.35-1.78.98h-1.27c.16-1.27 1.4-2.1 3.1-2.1 1.92 0 3 .98 3 2.62V-47h-1.2v-1.16h-.12a2.73 2.73 0 0 1-2.43 1.3zm12.74-1.1c1.3 0 2.26-.85 2.26-1.97v-.73l-2.13.14c-1.2.08-1.73.5-1.73 1.29 0 .8.69 1.27 1.6 1.27zm-.23 1.1c-1.53 0-2.67-.9-2.67-2.34 0-1.42 1.04-2.23 2.88-2.34l2.28-.14v-.72c0-.97-.61-1.5-1.8-1.5-.94 0-1.6.35-1.77.98h-1.27c.16-1.27 1.4-2.1 3.1-2.1 1.92 0 3 .98 3 2.62V-47h-1.2v-1.16h-.12a2.73 2.73 0 0 1-2.43 1.3zm12.6-5.6c-.21-1.41-1.38-2.56-3.3-2.56-2.21 0-3.62 1.6-3.62 4.05 0 2.52 1.41 4.12 3.63 4.12 1.9 0 3.07-1.07 3.3-2.52h-1.28c-.23.9-.97 1.38-2.03 1.38-1.4 0-2.32-1.15-2.32-2.98 0-1.78.9-2.92 2.32-2.92 1.13 0 1.83.64 2.03 1.42h1.28zm1.87 5.47h1.26v-4.9c0-1.1.87-1.91 2.07-1.91.25 0 .7.04.8.07V-55a5.41 5.41 0 0 0-.62-.03c-1.05 0-1.96.54-2.2 1.3h-.11v-1.17h-1.2v7.9zm8.96.14c-2.25 0-3.64-1.55-3.64-4.09s1.39-4.08 3.64-4.08 3.64 1.54 3.64 4.08-1.4 4.09-3.64 4.09zm0-1.14c1.5 0 2.33-1.08 2.33-2.95s-.84-2.95-2.33-2.95c-1.5 0-2.34 1.08-2.34 2.95s.84 2.95 2.34 2.95zm5.43-4.73c0 1.14.67 1.77 2.15 2.13l1.36.33c.84.2 1.25.57 1.25 1.12 0 .72-.76 1.23-1.82 1.23-1.01 0-1.64-.43-1.85-1.1h-1.3c.14 1.32 1.35 2.16 3.1 2.16 1.8 0 3.17-.97 3.17-2.39 0-1.13-.72-1.78-2.2-2.14l-1.22-.29c-.93-.23-1.37-.56-1.37-1.1 0-.7.73-1.19 1.67-1.19.95 0 1.57.42 1.73 1.05h1.25c-.17-1.3-1.32-2.11-2.97-2.11-1.68 0-2.95.98-2.95 2.3zm7.85 0c0 1.14.68 1.77 2.16 2.13l1.35.33c.84.2 1.25.57 1.25 1.12 0 .72-.76 1.23-1.82 1.23-1.01 0-1.64-.43-1.85-1.1h-1.3c.14 1.32 1.35 2.16 3.1 2.16 1.8 0 3.17-.97 3.17-2.39 0-1.13-.72-1.78-2.2-2.14l-1.22-.29c-.93-.23-1.37-.56-1.37-1.1 0-.7.73-1.19 1.67-1.19.95 0 1.57.42 1.74 1.05h1.24c-.17-1.3-1.32-2.11-2.97-2.11-1.68 0-2.95.98-2.95 2.3zM192.68-47h1.26v-4.9c0-1.1.8-2 1.83-2 1 0 1.65.6 1.65 1.54V-47h1.26v-5.08c0-1 .73-1.82 1.83-1.82 1.11 0 1.66.57 1.66 1.74V-47h1.26v-5.46c0-1.65-.9-2.57-2.51-2.57-1.1 0-2 .54-2.42 1.38h-.11a2.28 2.28 0 0 0-2.19-1.38c-1.05 0-1.84.5-2.2 1.38h-.12v-1.25h-1.2v7.9zm19.44-7.9h-1.26v4.68c0 1.38-.76 2.2-2.15 2.2-1.26 0-1.8-.65-1.8-2.07v-4.8h-1.25v5.1c0 1.87.92 2.93 2.7 2.93 1.2 0 2.05-.5 2.44-1.38h.12V-47h1.2v-7.9zm2.45 7.9h1.26v-11.03h-1.26V-47zm4.23-9.94v2.04h-1.28v1.06h1.28v4.79c0 1.5.65 2.1 2.28 2.1.25 0 .49-.02.74-.06v-1.07c-.24.03-.36.03-.59.03-.82 0-1.17-.4-1.17-1.32v-4.47h1.76v-1.06h-1.76v-2.04h-1.26zm4.95 9.94h1.26v-7.9h-1.26v7.9zm.63-9.5c.48 0 .88-.4.88-.88s-.4-.88-.88-.88-.88.4-.88.88.4.88.88.88zm6.88 1.47c2.01 0 3.32 1.6 3.32 4.08 0 2.47-1.32 4.09-3.32 4.09-1.13 0-2.04-.5-2.47-1.33h-.12v3.83h-1.26V-54.9h1.2v1.32h.12c.5-.9 1.45-1.45 2.53-1.45zm-.3 7.03c1.45 0 2.31-1.1 2.31-2.95 0-1.84-.86-2.95-2.3-2.95-1.43 0-2.33 1.14-2.33 2.95 0 1.81.9 2.95 2.32 2.95zm5.67 1h1.26v-11.03h-1.26V-47zm6.85-6.92c-1.26 0-2.14.92-2.23 2.32h4.35c-.03-1.4-.87-2.32-2.12-2.32zm2.08 4.88h1.26c-.38 1.35-1.6 2.18-3.32 2.18-2.2 0-3.56-1.58-3.56-4.08 0-2.48 1.39-4.1 3.56-4.1 2.13 0 3.42 1.52 3.42 3.98v.48h-5.67v.06c.06 1.56.94 2.55 2.28 2.55 1.01 0 1.7-.38 2.03-1.07zM-188.88-32.9h-1.27l-1.55 6.32h-.12l-1.76-6.32h-1.21l-1.77 6.32h-.11l-1.56-6.32h-1.27l2.21 7.9h1.27l1.76-6.1h.12l1.76 6.1h1.29l2.2-7.9zm4.83.98c-1.26 0-2.14.92-2.23 2.32h4.35c-.03-1.4-.87-2.32-2.12-2.32zm2.08 4.88h1.26c-.38 1.35-1.6 2.18-3.32 2.18-2.2 0-3.56-1.58-3.56-4.08 0-2.48 1.39-4.1 3.56-4.1 2.13 0 3.42 1.52 3.42 3.98v.48h-5.67v.06c.06 1.56.94 2.55 2.28 2.55 1.01 0 1.7-.38 2.03-1.07zm7.27 2.18c-1.1 0-2.04-.52-2.54-1.4h-.11V-25h-1.2v-11.03h1.26v4.38h.11a2.73 2.73 0 0 1 2.48-1.38c2 0 3.3 1.6 3.3 4.08 0 2.47-1.3 4.09-3.3 4.09zm-.3-7.04c-1.43 0-2.32 1.13-2.32 2.95 0 1.83.89 2.95 2.32 2.95 1.45 0 2.3-1.1 2.3-2.95 0-1.84-.85-2.95-2.3-2.95zm5.4 1.17c0 1.14.68 1.77 2.16 2.13l1.35.33c.84.2 1.25.57 1.25 1.12 0 .72-.76 1.23-1.82 1.23-1.01 0-1.64-.43-1.85-1.1h-1.3c.14 1.32 1.35 2.16 3.1 2.16 1.8 0 3.17-.97 3.17-2.39 0-1.13-.72-1.78-2.2-2.14l-1.22-.29c-.93-.23-1.37-.56-1.37-1.1 0-.7.73-1.19 1.67-1.19.95 0 1.57.42 1.74 1.05h1.24c-.17-1.3-1.32-2.11-2.97-2.11-1.68 0-2.95.98-2.95 2.3zm8.07 5.73h1.26v-7.9h-1.26v7.9zm.63-9.5c.48 0 .88-.4.88-.88s-.4-.88-.88-.88a.88.88 0 0 0 0 1.76zm3.56-.44v2.04h-1.28v1.06h1.28v4.79c0 1.5.65 2.1 2.27 2.1.25 0 .5-.02.74-.06v-1.07c-.23.03-.36.03-.58.03-.82 0-1.17-.4-1.17-1.32v-4.47h1.75v-1.06h-1.75v-2.04h-1.26zm8.07 3.02c-1.26 0-2.14.92-2.24 2.32h4.35c-.03-1.4-.86-2.32-2.11-2.32zm2.08 4.88h1.26c-.38 1.35-1.6 2.18-3.33 2.18-2.19 0-3.56-1.58-3.56-4.08 0-2.48 1.4-4.1 3.56-4.1 2.13 0 3.43 1.52 3.43 3.98v.48h-5.68v.06c.07 1.56.94 2.55 2.28 2.55 1.02 0 1.7-.38 2.04-1.07zm3.15-3.7c0 1.15.68 1.78 2.16 2.14l1.35.33c.84.2 1.26.57 1.26 1.12 0 .72-.77 1.23-1.83 1.23-1 0-1.64-.43-1.85-1.1h-1.3c.14 1.32 1.35 2.16 3.1 2.16 1.8 0 3.17-.97 3.17-2.39 0-1.13-.72-1.78-2.2-2.14l-1.22-.29c-.93-.23-1.37-.56-1.37-1.1 0-.7.73-1.19 1.67-1.19.95 0 1.57.42 1.74 1.05h1.24c-.17-1.3-1.32-2.11-2.97-2.11-1.68 0-2.95.98-2.95 2.3zm9.08 5.81a.95.95 0 1 0 0 0zm11.87-.07v-9.38h3.4v-1.19h-8.12v1.19h3.4V-25h1.32zm5.28 0h1.26v-4.9c0-1.1.87-1.91 2.07-1.91.25 0 .7.04.81.07V-33a5.41 5.41 0 0 0-.63-.03c-1.05 0-1.95.54-2.19 1.3h-.12v-1.17h-1.2v7.9zm8.15-.97c1.3 0 2.25-.85 2.25-1.97v-.73l-2.12.14c-1.2.08-1.73.5-1.73 1.29 0 .8.68 1.27 1.6 1.27zm-.24 1.1c-1.53 0-2.66-.9-2.66-2.34 0-1.42 1.04-2.23 2.87-2.34l2.28-.14v-.72c0-.97-.6-1.5-1.78-1.5-.95 0-1.6.35-1.78.98h-1.28c.17-1.27 1.42-2.1 3.1-2.1 1.93 0 3 .98 3 2.62V-25h-1.2v-1.16h-.12a2.73 2.73 0 0 1-2.43 1.3zm12.61-5.6c-.21-1.41-1.39-2.56-3.3-2.56-2.22 0-3.62 1.6-3.62 4.05 0 2.52 1.41 4.12 3.62 4.12 1.9 0 3.08-1.07 3.3-2.52h-1.27c-.23.9-.97 1.38-2.04 1.38-1.4 0-2.31-1.15-2.31-2.98 0-1.78.9-2.92 2.31-2.92 1.14 0 1.84.64 2.04 1.42h1.27zm3.32 1.02h-.12v-6.58h-1.26V-25h1.26v-3l.75-.7 2.96 3.7h1.6l-3.62-4.51 3.4-3.39h-1.55l-3.42 3.45zm6.72 4.45H-86v-7.9h-1.26v7.9zm.63-9.5c.48 0 .88-.4.88-.88s-.4-.88-.88-.88-.88.4-.88.88.4.88.88.88zm3.03 9.5h1.26v-4.67c0-1.39.81-2.23 2.07-2.23 1.26 0 1.86.67 1.86 2.1v4.8h1.26v-5.11c0-1.88-.98-2.92-2.76-2.92-1.2 0-1.97.5-2.37 1.38h-.12v-1.25h-1.2v7.9zm11.95-1.23c1.46 0 2.34-1.11 2.34-2.83 0-1.73-.89-2.84-2.34-2.84-1.47 0-2.29 1.11-2.29 2.84 0 1.72.82 2.83 2.29 2.83zm.06 4.26c-1.9 0-3.12-.85-3.32-2.16h1.34c.14.65.84 1.06 1.98 1.06 1.4 0 2.25-.7 2.25-1.86v-1.55h-.12c-.5.87-1.39 1.36-2.47 1.36-2.04 0-3.31-1.58-3.31-3.94 0-2.37 1.28-3.97 3.3-3.97 1.11 0 2.09.54 2.54 1.39h.12v-1.26h1.2v8.04c0 1.76-1.36 2.9-3.51 2.9zm16.65-8.5c-.22-1.41-1.4-2.56-3.31-2.56-2.21 0-3.62 1.6-3.62 4.05 0 2.52 1.42 4.12 3.63 4.12 1.9 0 3.07-1.07 3.3-2.52h-1.27c-.24.9-.98 1.38-2.04 1.38-1.4 0-2.31-1.15-2.31-2.98 0-1.78.89-2.92 2.31-2.92 1.14 0 1.83.64 2.04 1.42h1.27zm4.3 4.5c1.29 0 2.25-.85 2.25-1.97v-.73l-2.13.14c-1.2.08-1.72.5-1.72 1.29 0 .8.68 1.27 1.6 1.27zm-.24 1.1c-1.53 0-2.67-.9-2.67-2.34 0-1.42 1.04-2.23 2.88-2.34l2.28-.14v-.72c0-.97-.6-1.5-1.79-1.5-.94 0-1.6.35-1.78.98h-1.27c.17-1.27 1.41-2.1 3.1-2.1 1.92 0 3 .98 3 2.62V-25h-1.2v-1.16h-.12a2.73 2.73 0 0 1-2.43 1.3zm6.08-.13h1.26v-4.67c0-1.39.81-2.23 2.07-2.23 1.26 0 1.86.67 1.86 2.1v4.8h1.26v-5.11c0-1.88-.99-2.92-2.76-2.92-1.21 0-1.98.5-2.37 1.38h-.12v-1.25h-1.2v7.9zm16.9.14c-1.09 0-2.03-.52-2.53-1.4h-.11V-25h-1.2v-11.03h1.26v4.38h.11a2.73 2.73 0 0 1 2.48-1.38c2 0 3.31 1.6 3.31 4.08 0 2.47-1.31 4.09-3.31 4.09zm-.28-7.04c-1.44 0-2.33 1.13-2.33 2.95 0 1.83.9 2.95 2.33 2.95 1.44 0 2.3-1.1 2.3-2.95 0-1.84-.86-2.95-2.3-2.95zm8.73-.02c-1.26 0-2.14.92-2.24 2.32h4.35c-.03-1.4-.86-2.32-2.11-2.32zm2.08 4.88h1.26c-.38 1.35-1.6 2.18-3.33 2.18-2.19 0-3.56-1.58-3.56-4.08 0-2.48 1.4-4.1 3.56-4.1 2.13 0 3.43 1.52 3.43 3.98v.48h-5.68v.06c.07 1.56.94 2.55 2.28 2.55 1.02 0 1.7-.38 2.04-1.07zM-3.4-32.9h-1.26v4.68c0 1.38-.76 2.2-2.16 2.2-1.26 0-1.78-.65-1.78-2.07v-4.8h-1.26v5.1c0 1.87.92 2.93 2.7 2.93 1.2 0 2.04-.5 2.44-1.38h.12V-25h1.2v-7.9zm2.19 2.17c0 1.14.67 1.77 2.15 2.13l1.35.33c.85.2 1.26.57 1.26 1.12 0 .72-.76 1.23-1.83 1.23-1 0-1.64-.43-1.85-1.1h-1.3c.14 1.32 1.35 2.16 3.11 2.16 1.8 0 3.16-.97 3.16-2.39 0-1.13-.71-1.78-2.2-2.14l-1.22-.29c-.93-.23-1.37-.56-1.37-1.1 0-.7.74-1.19 1.67-1.19.96 0 1.57.42 1.74 1.05H4.7c-.16-1.3-1.31-2.11-2.97-2.11-1.68 0-2.94.98-2.94 2.3zm11.18-1.2c-1.26 0-2.14.93-2.23 2.33h4.35c-.03-1.4-.87-2.32-2.12-2.32zm2.08 4.89h1.26c-.38 1.35-1.6 2.18-3.32 2.18-2.2 0-3.56-1.58-3.56-4.08 0-2.48 1.39-4.1 3.56-4.1 2.13 0 3.42 1.52 3.42 3.98v.48H7.74v.06c.06 1.56.93 2.55 2.27 2.55 1.02 0 1.71-.38 2.04-1.07zm6.26 2.18c-2.02 0-3.31-1.6-3.31-4.09 0-2.47 1.3-4.08 3.31-4.08 1.1 0 2.03.52 2.48 1.38h.1v-4.38h1.27V-25h-1.2v-1.26h-.12c-.5.88-1.44 1.4-2.53 1.4zm.3-7.04c-1.44 0-2.31 1.11-2.31 2.95 0 1.85.86 2.95 2.3 2.95s2.33-1.12 2.33-2.95c0-1.8-.9-2.95-2.32-2.95zm10.76-3.04v2.04h-1.28v1.06h1.28v4.79c0 1.5.65 2.1 2.27 2.1.25 0 .5-.02.74-.06v-1.07c-.23.03-.36.03-.58.03-.82 0-1.18-.4-1.18-1.32v-4.47h1.76v-1.06h-1.76v-2.04h-1.25zm8.16 10.08c-2.25 0-3.64-1.55-3.64-4.09s1.4-4.08 3.64-4.08c2.25 0 3.64 1.54 3.64 4.08s-1.39 4.09-3.64 4.09zm0-1.14c1.5 0 2.34-1.08 2.34-2.95s-.84-2.95-2.34-2.95-2.33 1.08-2.33 2.95.84 2.95 2.33 2.95zm13.78 1.14c-1.1 0-2.04-.52-2.54-1.4h-.11V-25h-1.2v-11.03h1.26v4.38h.11a2.73 2.73 0 0 1 2.48-1.38c2 0 3.3 1.6 3.3 4.08 0 2.47-1.3 4.09-3.3 4.09zM51-31.9c-1.43 0-2.32 1.13-2.32 2.95 0 1.83.89 2.95 2.33 2.95s2.3-1.1 2.3-2.95c0-1.84-.86-2.95-2.3-2.95zm11.97-1h-1.26v4.68c0 1.38-.76 2.2-2.15 2.2-1.26 0-1.79-.65-1.79-2.07v-4.8h-1.26v5.1c0 1.87.93 2.93 2.7 2.93 1.2 0 2.05-.5 2.45-1.38h.11V-25h1.2v-7.9zm2.4 7.9h1.27v-7.9h-1.26v7.9zm.64-9.5a.88.88 0 0 0 0-1.76.88.88 0 0 0 0 1.76zm3.1 9.5h1.26v-11.03h-1.26V-25zm6.63.14c-2.02 0-3.32-1.6-3.32-4.09 0-2.47 1.31-4.08 3.32-4.08 1.1 0 2.03.52 2.48 1.38h.1v-4.38h1.26V-25h-1.2v-1.26h-.11c-.5.88-1.44 1.4-2.53 1.4zm.3-7.04c-1.44 0-2.31 1.11-2.31 2.95 0 1.85.86 2.95 2.3 2.95s2.32-1.12 2.32-2.95c0-1.8-.89-2.95-2.32-2.95zm12.66 5.93c1.3 0 2.25-.85 2.25-1.97v-.73l-2.12.14c-1.2.08-1.73.5-1.73 1.29 0 .8.68 1.27 1.6 1.27zm-.24 1.1c-1.53 0-2.66-.9-2.66-2.34 0-1.42 1.04-2.23 2.87-2.34l2.28-.14v-.72c0-.97-.6-1.5-1.79-1.5-.94 0-1.6.35-1.77.98h-1.28c.17-1.27 1.41-2.1 3.1-2.1 1.93 0 3 .98 3 2.62V-25h-1.2v-1.16h-.12a2.73 2.73 0 0 1-2.43 1.3zm14.16-8.16c2.01 0 3.32 1.6 3.32 4.08 0 2.47-1.31 4.09-3.32 4.09-1.13 0-2.04-.5-2.47-1.33h-.12v3.83h-1.26V-32.9h1.2v1.32h.12c.5-.9 1.45-1.45 2.53-1.45zm-.3 7.03c1.45 0 2.31-1.1 2.31-2.95 0-1.84-.86-2.95-2.3-2.95-1.43 0-2.33 1.14-2.33 2.95 0 1.81.9 2.95 2.32 2.95zm5.6 1h1.25v-4.9c0-1.1.88-1.91 2.08-1.91.25 0 .7.04.8.07V-33a5.41 5.41 0 0 0-.63-.03c-1.04 0-1.95.54-2.19 1.3h-.11v-1.17h-1.2v7.9zm8.95.14c-2.25 0-3.64-1.55-3.64-4.09s1.4-4.08 3.64-4.08c2.25 0 3.64 1.54 3.64 4.08s-1.39 4.09-3.64 4.09zm0-1.14c1.5 0 2.34-1.08 2.34-2.95s-.84-2.95-2.34-2.95-2.33 1.08-2.33 2.95.84 2.95 2.33 2.95zm6.15 1h1.26v-6.84h1.8v-1.06h-1.8v-.73c0-.88.42-1.27 1.18-1.27.25 0 .53.03.7.07v-1.05c-.3-.06-.53-.08-.78-.08-1.52 0-2.36.68-2.36 2.3v.76h-1.31v1.06h1.3V-25zm4.93 0h1.26v-7.9h-1.26v7.9zm.63-9.5c.48 0 .88-.4.88-.88s-.4-.88-.88-.88a.88.88 0 0 0 0 1.76zm3.1 9.5h1.26v-11.03h-1.26V-25zm6.86-6.92c-1.26 0-2.14.92-2.24 2.32h4.35c-.03-1.4-.86-2.32-2.11-2.32zm2.08 4.88h1.26c-.38 1.35-1.6 2.18-3.33 2.18-2.19 0-3.56-1.58-3.56-4.08 0-2.48 1.4-4.1 3.56-4.1 2.13 0 3.43 1.52 3.43 3.98v.48h-5.68v.06c.07 1.56.94 2.55 2.28 2.55 1.02 0 1.7-.38 2.04-1.07zm10 1.07c1.3 0 2.26-.85 2.26-1.97v-.73l-2.13.14c-1.2.08-1.72.5-1.72 1.29 0 .8.68 1.27 1.6 1.27zm-.23 1.1c-1.53 0-2.67-.9-2.67-2.34 0-1.42 1.04-2.23 2.88-2.34l2.28-.14v-.72c0-.97-.61-1.5-1.79-1.5-.94 0-1.6.35-1.78.98h-1.27c.17-1.27 1.41-2.1 3.1-2.1 1.92 0 3 .98 3 2.62V-25h-1.2v-1.16h-.12a2.73 2.73 0 0 1-2.43 1.3zm6.08-.13h1.26v-4.67c0-1.39.81-2.23 2.07-2.23 1.26 0 1.86.67 1.86 2.1v4.8h1.26v-5.11c0-1.88-.99-2.92-2.76-2.92-1.21 0-1.98.5-2.37 1.38h-.12v-1.25h-1.2v7.9zm11.67.14c-2.02 0-3.32-1.6-3.32-4.09 0-2.47 1.32-4.08 3.32-4.08 1.1 0 2.03.52 2.48 1.38h.1v-4.38H172V-25h-1.2v-1.26h-.12c-.5.88-1.44 1.4-2.53 1.4zm.3-7.04c-1.44 0-2.31 1.11-2.31 2.95 0 1.85.86 2.95 2.3 2.95s2.33-1.12 2.33-2.95c0-1.8-.9-2.95-2.33-2.95zm13.15 7.04c-2.02 0-3.32-1.6-3.32-4.09 0-2.47 1.31-4.08 3.32-4.08 1.1 0 2.03.52 2.47 1.38h.11v-4.38h1.26V-25h-1.2v-1.26h-.11c-.5.88-1.44 1.4-2.53 1.4zm.3-7.04c-1.44 0-2.32 1.11-2.32 2.95 0 1.85.87 2.95 2.31 2.95s2.32-1.12 2.32-2.95c0-1.8-.89-2.95-2.32-2.95zm6.02 6.9h1.26v-7.9h-1.26v7.9zm.63-9.5c.48 0 .88-.4.88-.88s-.4-.88-.88-.88-.88.4-.88.88.4.88.88.88zm2.85 3.77c0 1.14.67 1.77 2.15 2.13l1.36.33c.84.2 1.25.57 1.25 1.12 0 .72-.76 1.23-1.82 1.23-1.01 0-1.64-.43-1.86-1.1h-1.3c.15 1.32 1.35 2.16 3.11 2.16 1.8 0 3.17-.97 3.17-2.39 0-1.13-.72-1.78-2.2-2.14l-1.22-.29c-.93-.23-1.37-.56-1.37-1.1 0-.7.73-1.19 1.67-1.19.95 0 1.56.42 1.73 1.05h1.25c-.17-1.3-1.32-2.11-2.98-2.11-1.67 0-2.94.98-2.94 2.3zm11.88-2.3c2.01 0 3.32 1.6 3.32 4.08 0 2.47-1.31 4.09-3.32 4.09-1.13 0-2.04-.5-2.47-1.33h-.12v3.83h-1.26V-32.9h1.2v1.32h.12c.5-.9 1.45-1.45 2.53-1.45zm-.3 7.03c1.45 0 2.31-1.1 2.31-2.95 0-1.84-.86-2.95-2.3-2.95-1.43 0-2.33 1.14-2.33 2.95 0 1.81.9 2.95 2.32 2.95zm5.67 1h1.26v-11.03h-1.26V-25zm6.14-.97c1.3 0 2.25-.85 2.25-1.97v-.73l-2.12.14c-1.2.08-1.73.5-1.73 1.29 0 .8.68 1.27 1.6 1.27zm-.24 1.1c-1.53 0-2.67-.9-2.67-2.34 0-1.42 1.04-2.23 2.88-2.34l2.28-.14v-.72c0-.97-.6-1.5-1.79-1.5-.94 0-1.6.35-1.78.98h-1.27c.17-1.27 1.41-2.1 3.1-2.1 1.92 0 3 .98 3 2.62V-25h-1.2v-1.16h-.12a2.73 2.73 0 0 1-2.43 1.3zm6.75 2.73c1.4 0 2.03-.55 2.7-2.38l3.09-8.38h-1.34l-2.16 6.5h-.12l-2.17-6.5h-1.36l2.92 7.9-.14.48c-.33.95-.73 1.3-1.45 1.3-.18 0-.38-.01-.53-.04v1.07c.18.03.4.05.56.05zm18.24-8.34c-.22-1.4-1.4-2.55-3.31-2.55-2.21 0-3.62 1.6-3.62 4.05 0 2.52 1.42 4.12 3.63 4.12 1.9 0 3.07-1.07 3.3-2.52h-1.27c-.24.9-.98 1.38-2.04 1.38-1.4 0-2.31-1.15-2.31-2.98 0-1.78.89-2.92 2.31-2.92 1.14 0 1.83.64 2.04 1.42h1.27zm5.1 5.62c-2.24 0-3.63-1.55-3.63-4.09s1.39-4.08 3.64-4.08c2.24 0 3.64 1.54 3.64 4.08s-1.4 4.09-3.64 4.09zm0-1.14c1.5 0 2.34-1.08 2.34-2.95s-.84-2.95-2.33-2.95c-1.5 0-2.34 1.08-2.34 2.95s.84 2.95 2.34 2.95zm5.62 1h1.26v-4.67c0-1.39.82-2.23 2.08-2.23 1.26 0 1.86.67 1.86 2.1v4.8h1.26v-5.11c0-1.88-1-2.92-2.76-2.92-1.21 0-1.98.5-2.38 1.38h-.12v-1.25h-1.2v7.9zm9.28-9.94v2.04h-1.27v1.06h1.27v4.79c0 1.5.66 2.1 2.28 2.1.25 0 .5-.02.74-.06v-1.07c-.23.03-.36.03-.58.03-.83 0-1.18-.4-1.18-1.32v-4.47h1.76v-1.06h-1.76v-2.04h-1.26zm8.07 3.02c-1.26 0-2.13.92-2.23 2.32h4.35c-.03-1.4-.86-2.32-2.12-2.32zm2.08 4.88h1.26c-.38 1.35-1.6 2.18-3.32 2.18-2.2 0-3.56-1.58-3.56-4.08 0-2.48 1.4-4.1 3.56-4.1 2.13 0 3.43 1.52 3.43 3.98v.48h-5.68v.06c.07 1.56.94 2.55 2.28 2.55 1.02 0 1.7-.38 2.03-1.07zm3.34 2.04h1.26v-4.67c0-1.39.82-2.23 2.08-2.23 1.26 0 1.86.67 1.86 2.1v4.8h1.26v-5.11c0-1.88-1-2.92-2.76-2.92-1.21 0-1.98.5-2.38 1.38h-.11v-1.25h-1.2v7.9zm9.28-9.94v2.04h-1.27v1.06h1.27v4.79c0 1.5.66 2.1 2.28 2.1.25 0 .5-.02.74-.06v-1.07c-.23.03-.36.03-.58.03-.82 0-1.18-.4-1.18-1.32v-4.47h1.76v-1.06h-1.76v-2.04h-1.26zm-477.2 32.08c-1.1 0-2.03-.52-2.53-1.4h-.12V-3h-1.2v-11.03h1.26v4.38h.12a2.73 2.73 0 0 1 2.47-1.38c2 0 3.31 1.6 3.31 4.08 0 2.47-1.3 4.09-3.3 4.09zm-.3-7.04c-1.43 0-2.32 1.13-2.32 2.95 0 1.83.9 2.95 2.33 2.95 1.44 0 2.3-1.1 2.3-2.95 0-1.84-.86-2.95-2.3-2.95zm8.02 5.93c1.3 0 2.26-.85 2.26-1.97v-.73l-2.13.14c-1.2.08-1.72.5-1.72 1.29 0 .8.68 1.27 1.6 1.27zm-.23 1.1c-1.53 0-2.67-.9-2.67-2.34 0-1.42 1.04-2.23 2.88-2.34l2.28-.14v-.72c0-.97-.61-1.5-1.79-1.5-.94 0-1.6.35-1.78.98h-1.27c.17-1.27 1.41-2.1 3.1-2.1 1.92 0 3 .98 3 2.62V-3h-1.2v-1.16h-.12a2.73 2.73 0 0 1-2.43 1.3zm5.9-5.86c0 1.14.67 1.77 2.15 2.13l1.35.33c.84.2 1.25.57 1.25 1.12 0 .72-.76 1.23-1.82 1.23-1.01 0-1.64-.43-1.85-1.1h-1.3c.14 1.32 1.35 2.16 3.1 2.16 1.8 0 3.17-.97 3.17-2.39 0-1.13-.72-1.78-2.2-2.14l-1.22-.29c-.93-.23-1.37-.56-1.37-1.1 0-.7.73-1.19 1.67-1.19.95 0 1.57.42 1.74 1.05h1.24c-.17-1.3-1.32-2.11-2.97-2.11-1.68 0-2.95.98-2.95 2.3zm11.18-1.2c-1.26 0-2.14.93-2.24 2.33h4.35c-.02-1.4-.86-2.32-2.11-2.32zm2.08 4.89h1.26c-.38 1.35-1.6 2.18-3.33 2.18-2.19 0-3.56-1.58-3.56-4.08 0-2.48 1.4-4.1 3.56-4.1 2.13 0 3.43 1.52 3.43 3.98v.48h-5.68v.06c.07 1.56.94 2.55 2.28 2.55 1.02 0 1.7-.38 2.04-1.07zm6.26 2.18c-2.02 0-3.32-1.6-3.32-4.09 0-2.47 1.31-4.08 3.32-4.08 1.1 0 2.03.52 2.48 1.38h.1v-4.38h1.27V-3h-1.2v-1.26h-.12c-.5.88-1.44 1.4-2.53 1.4zm.3-7.04c-1.44 0-2.31 1.11-2.31 2.95 0 1.85.86 2.95 2.3 2.95s2.32-1.12 2.32-2.95c0-1.8-.89-2.95-2.32-2.95zm13.47 7.04c-2.25 0-3.64-1.55-3.64-4.09s1.4-4.08 3.64-4.08c2.25 0 3.64 1.54 3.64 4.08s-1.4 4.09-3.64 4.09zm0-1.14c1.5 0 2.34-1.08 2.34-2.95s-.85-2.95-2.34-2.95c-1.5 0-2.34 1.08-2.34 2.95S-149.7-4-148.2-4zm5.62 1h1.26v-4.67c0-1.39.81-2.23 2.07-2.23 1.26 0 1.86.67 1.86 2.1V-3h1.26v-5.11c0-1.88-.99-2.92-2.76-2.92-1.21 0-1.98.5-2.37 1.38h-.12v-1.25h-1.2V-3zm13.66 2.86c1.4 0 2.03-.55 2.7-2.38l3.08-8.38h-1.34l-2.16 6.5h-.12l-2.16-6.5h-1.37l2.93 7.9-.15.48c-.33.95-.72 1.3-1.45 1.3-.18 0-.37-.01-.53-.04V-.2c.18.03.4.05.57.05zm10.71-2.72c-2.25 0-3.64-1.55-3.64-4.09s1.4-4.08 3.64-4.08c2.25 0 3.64 1.54 3.64 4.08s-1.39 4.09-3.64 4.09zm0-1.14c1.5 0 2.34-1.08 2.34-2.95s-.84-2.95-2.34-2.95-2.33 1.08-2.33 2.95.84 2.95 2.33 2.95zm12-6.9h-1.25v4.68c0 1.38-.76 2.2-2.16 2.2-1.26 0-1.78-.65-1.78-2.07v-4.8h-1.26v5.1c0 1.87.92 2.93 2.7 2.93 1.2 0 2.04-.5 2.44-1.38h.12V-3h1.2v-7.9zm2.38 7.9h1.26v-4.9c0-1.1.87-1.91 2.07-1.91.25 0 .7.04.8.07V-11a5.41 5.41 0 0 0-.62-.03c-1.05 0-1.96.54-2.2 1.3h-.1v-1.17h-1.21V-3zm13.87.14c-1.1 0-2.03-.52-2.53-1.4h-.12V-3h-1.2v-11.03h1.26v4.38h.12a2.73 2.73 0 0 1 2.47-1.38c2 0 3.31 1.6 3.31 4.08 0 2.47-1.3 4.09-3.3 4.09zm-.3-7.04c-1.43 0-2.32 1.13-2.32 2.95 0 1.83.9 2.95 2.33 2.95 1.44 0 2.3-1.1 2.3-2.95 0-1.84-.86-2.95-2.3-2.95zm5.59 6.9h1.26v-4.9c0-1.1.87-1.91 2.07-1.91.25 0 .7.04.8.07V-11a5.41 5.41 0 0 0-.62-.03c-1.05 0-1.96.54-2.2 1.3h-.1v-1.17h-1.21V-3zm8.96.14c-2.25 0-3.64-1.55-3.64-4.09s1.39-4.08 3.64-4.08 3.64 1.54 3.64 4.08-1.4 4.09-3.64 4.09zm0-1.14c1.5 0 2.33-1.08 2.33-2.95s-.84-2.95-2.33-2.95c-1.5 0-2.34 1.08-2.34 2.95S-77.22-4-75.72-4zm15.55-6.9h-1.27l-1.55 6.32h-.12l-1.77-6.32h-1.2l-1.77 6.32h-.12l-1.55-6.32h-1.27l2.2 7.9h1.28l1.76-6.1h.12l1.76 6.1h1.28l2.22-7.9zm1.5 2.17c0 1.14.67 1.77 2.15 2.13l1.36.33c.84.2 1.25.57 1.25 1.12 0 .72-.76 1.23-1.82 1.23-1.02 0-1.65-.43-1.86-1.1h-1.3c.14 1.32 1.35 2.16 3.11 2.16 1.8 0 3.17-.97 3.17-2.39 0-1.13-.72-1.78-2.2-2.14l-1.23-.29c-.93-.23-1.36-.56-1.36-1.1 0-.7.73-1.19 1.67-1.19.95 0 1.56.42 1.73 1.05h1.25c-.17-1.3-1.32-2.11-2.98-2.11-1.67 0-2.94.98-2.94 2.3zM-50.61-3h1.26v-7.9h-1.26V-3zm.63-9.5a.88.88 0 0 0 0-1.76c-.48 0-.88.4-.88.88s.4.88.88.88zm3.03 9.5h1.26v-4.67c0-1.39.82-2.23 2.08-2.23 1.26 0 1.86.67 1.86 2.1V-3h1.26v-5.11c0-1.88-1-2.92-2.76-2.92-1.21 0-1.98.5-2.38 1.38h-.11v-1.25h-1.2V-3zM-35-4.23c1.46 0 2.34-1.11 2.34-2.83 0-1.73-.88-2.84-2.34-2.84s-2.29 1.11-2.29 2.84c0 1.72.83 2.83 2.29 2.83zm.06 4.26c-1.9 0-3.12-.85-3.31-2.16h1.33c.14.65.84 1.06 1.98 1.06 1.41 0 2.25-.7 2.25-1.86v-1.55h-.11c-.5.87-1.4 1.36-2.48 1.36-2.04 0-3.3-1.58-3.3-3.94 0-2.37 1.27-3.97 3.3-3.97 1.1 0 2.08.54 2.54 1.39h.11v-1.26h1.2v8.04c0 1.76-1.36 2.9-3.51 2.9zm12.55-4c1.3 0 2.26-.85 2.26-1.97v-.73l-2.13.14c-1.2.08-1.72.5-1.72 1.29 0 .8.68 1.27 1.6 1.27zm-.23 1.1c-1.53 0-2.67-.9-2.67-2.34 0-1.42 1.04-2.23 2.88-2.34l2.28-.14v-.72c0-.97-.61-1.5-1.79-1.5-.94 0-1.6.35-1.78.98h-1.27c.17-1.27 1.41-2.1 3.1-2.1 1.92 0 3 .98 3 2.62V-3h-1.2v-1.16h-.12a2.73 2.73 0 0 1-2.43 1.3zm6.08-.13h1.26v-4.67c0-1.39.81-2.23 2.07-2.23 1.26 0 1.86.67 1.86 2.1V-3h1.26v-5.11c0-1.88-.99-2.92-2.76-2.92-1.21 0-1.98.5-2.37 1.38h-.12v-1.25h-1.2V-3zm11.67.14c-2.02 0-3.32-1.6-3.32-4.09 0-2.47 1.31-4.08 3.32-4.08 1.1 0 2.03.52 2.48 1.38h.1v-4.38h1.27V-3h-1.2v-1.26h-.12c-.5.88-1.44 1.4-2.53 1.4zm.3-7.04c-1.44 0-2.31 1.11-2.31 2.95 0 1.85.86 2.95 2.3 2.95s2.33-1.12 2.33-2.95c0-1.8-.9-2.95-2.33-2.95zM9.5-11.03c2.02 0 3.32 1.6 3.32 4.08 0 2.47-1.31 4.09-3.32 4.09-1.13 0-2.03-.5-2.47-1.33h-.11v3.83H5.66V-10.9h1.2v1.32h.12c.5-.9 1.45-1.45 2.52-1.45zM9.2-4c1.45 0 2.32-1.1 2.32-2.95 0-1.84-.87-2.95-2.31-2.95-1.43 0-2.33 1.14-2.33 2.95C6.88-5.14 7.78-4 9.2-4zm8.75-5.92c-1.26 0-2.14.92-2.24 2.32h4.35c-.03-1.4-.86-2.32-2.11-2.32zm2.08 4.88h1.26c-.38 1.35-1.6 2.18-3.33 2.18-2.19 0-3.56-1.58-3.56-4.08 0-2.48 1.4-4.1 3.56-4.1 2.13 0 3.43 1.52 3.43 3.98v.48H15.7v.06c.07 1.56.94 2.55 2.28 2.55 1.02 0 1.7-.38 2.04-1.07zM23.37-3h1.26v-4.9c0-1.1.87-1.91 2.07-1.91.25 0 .7.04.8.07V-11a5.41 5.41 0 0 0-.63-.03c-1.04 0-1.95.54-2.18 1.3h-.12v-1.17h-1.2V-3zm5.53-5.73c0 1.14.67 1.77 2.15 2.13l1.35.33c.85.2 1.26.57 1.26 1.12 0 .72-.76 1.23-1.83 1.23-1 0-1.64-.43-1.85-1.1h-1.3c.14 1.32 1.35 2.16 3.11 2.16 1.8 0 3.16-.97 3.16-2.39 0-1.13-.71-1.78-2.2-2.14l-1.22-.29c-.93-.23-1.37-.56-1.37-1.1 0-.7.74-1.19 1.67-1.19.96 0 1.57.42 1.74 1.05h1.24c-.16-1.3-1.31-2.11-2.97-2.11-1.68 0-2.94.98-2.94 2.3zm11.28 5.87c-2.25 0-3.64-1.55-3.64-4.09s1.39-4.08 3.64-4.08c2.24 0 3.64 1.54 3.64 4.08s-1.4 4.09-3.64 4.09zm0-1.14c1.49 0 2.33-1.08 2.33-2.95s-.84-2.95-2.33-2.95c-1.5 0-2.34 1.08-2.34 2.95S38.68-4 40.18-4zm5.61 1h1.26v-4.67c0-1.39.82-2.23 2.08-2.23 1.26 0 1.86.67 1.86 2.1V-3h1.26v-5.11c0-1.88-1-2.92-2.77-2.92-1.2 0-1.97.5-2.37 1.38H47v-1.25h-1.2V-3zm11.19-.97c1.3 0 2.25-.85 2.25-1.97v-.73l-2.12.14c-1.2.08-1.73.5-1.73 1.29 0 .8.68 1.27 1.6 1.27zm-.24 1.1c-1.53 0-2.66-.9-2.66-2.34 0-1.42 1.04-2.23 2.88-2.34l2.27-.14v-.72c0-.97-.6-1.5-1.78-1.5-.95 0-1.6.35-1.78.98h-1.28c.17-1.27 1.42-2.1 3.1-2.1 1.93 0 3 .98 3 2.62V-3h-1.2v-1.16h-.12a2.73 2.73 0 0 1-2.43 1.3zM62.9-3h1.26v-11.03H62.9V-3zm7.96 0h1.26v-7.9h-1.26V-3zm.63-9.5a.88.88 0 0 0 0-1.76.88.88 0 0 0 0 1.76zM74.53-3h1.26v-4.67c0-1.39.8-2.23 2.07-2.23 1.26 0 1.86.67 1.86 2.1V-3h1.26v-5.11c0-1.88-.99-2.92-2.76-2.92-1.21 0-1.98.5-2.38 1.38h-.11v-1.25h-1.2V-3zm9.28 0h1.26v-6.84h1.8v-1.06h-1.8v-.73c0-.88.42-1.27 1.18-1.27.24 0 .53.03.7.07v-1.05c-.3-.06-.53-.08-.78-.08-1.52 0-2.36.68-2.36 2.3v.76H82.5v1.06h1.3V-3zm8.14.14c-2.25 0-3.64-1.55-3.64-4.09s1.4-4.08 3.64-4.08c2.25 0 3.64 1.54 3.64 4.08s-1.4 4.09-3.64 4.09zm0-1.14c1.5 0 2.34-1.08 2.34-2.95s-.85-2.95-2.34-2.95c-1.5 0-2.34 1.08-2.34 2.95S90.46-4 91.95-4zm5.62 1h1.26v-4.9c0-1.1.87-1.91 2.07-1.91.25 0 .7.04.8.07V-11a5.41 5.41 0 0 0-.62-.03c-1.05 0-1.96.54-2.2 1.3h-.11v-1.17h-1.2V-3zm5.71 0h1.26v-4.9c0-1.1.8-2 1.83-2 1 0 1.65.6 1.65 1.54V-3h1.26v-5.08c0-1 .73-1.82 1.83-1.82 1.11 0 1.66.57 1.66 1.74V-3h1.26v-5.46c0-1.65-.9-2.57-2.5-2.57-1.1 0-2 .54-2.43 1.38H109a2.28 2.28 0 0 0-2.19-1.38c-1.05 0-1.84.5-2.2 1.38h-.12v-1.25h-1.2V-3zm15.48-.97c1.3 0 2.26-.85 2.26-1.97v-.73l-2.12.14c-1.2.08-1.73.5-1.73 1.29 0 .8.68 1.27 1.6 1.27zm-.23 1.1c-1.53 0-2.67-.9-2.67-2.34 0-1.42 1.04-2.23 2.88-2.34l2.28-.14v-.72c0-.97-.6-1.5-1.79-1.5-.94 0-1.6.35-1.78.98h-1.27c.17-1.27 1.41-2.1 3.1-2.1 1.92 0 3 .98 3 2.62V-3h-1.2v-1.16h-.12a2.73 2.73 0 0 1-2.43 1.3zm6.6-10.07v2.04h-1.27v1.06h1.28v4.79c0 1.5.65 2.1 2.27 2.1.25 0 .5-.02.74-.06v-1.07c-.23.03-.35.03-.58.03-.82 0-1.17-.4-1.17-1.32v-4.47h1.75v-1.06h-1.75v-2.04h-1.26zM130.1-3h1.26v-7.9h-1.26V-3zm.63-9.5c.48 0 .88-.4.88-.88s-.4-.88-.88-.88a.88.88 0 0 0 0 1.76zm6.27 9.64c-2.24 0-3.64-1.55-3.64-4.09s1.4-4.08 3.64-4.08c2.25 0 3.64 1.54 3.64 4.08s-1.39 4.09-3.64 4.09zM137-4c1.5 0 2.34-1.08 2.34-2.95S138.5-9.9 137-9.9c-1.49 0-2.33 1.08-2.33 2.95S135.5-4 136.99-4zm5.62 1h1.26v-4.67c0-1.39.82-2.23 2.07-2.23 1.26 0 1.87.67 1.87 2.1V-3h1.25v-5.11c0-1.88-.98-2.92-2.76-2.92-1.2 0-1.97.5-2.37 1.38h-.12v-1.25h-1.2V-3zm9.8.07a.95.95 0 1 0 0 0zM-197.3 8.43h-1.33v6.94c0 2.25 1.58 3.88 4.2 3.88s4.2-1.63 4.2-3.88V8.43h-1.32v6.85c0 1.6-1.05 2.75-2.88 2.75-1.83 0-2.88-1.15-2.88-2.75V8.43zm9.46 4.84c0 1.14.67 1.77 2.15 2.13l1.35.33c.85.2 1.26.57 1.26 1.12 0 .72-.77 1.23-1.83 1.23-1 0-1.64-.43-1.85-1.1h-1.3c.14 1.32 1.35 2.16 3.1 2.16 1.8 0 3.17-.97 3.17-2.39 0-1.13-.72-1.78-2.2-2.14l-1.22-.29c-.93-.23-1.37-.56-1.37-1.1 0-.7.74-1.19 1.67-1.19.95 0 1.57.42 1.74 1.05h1.24c-.16-1.3-1.31-2.11-2.97-2.11-1.68 0-2.94.98-2.94 2.3zm11.18-1.2c-1.26 0-2.14.93-2.23 2.33h4.35c-.03-1.4-.87-2.32-2.12-2.32zm2.08 4.89h1.26c-.38 1.35-1.6 2.18-3.33 2.18-2.19 0-3.56-1.58-3.56-4.08 0-2.48 1.4-4.1 3.56-4.1 2.14 0 3.43 1.52 3.43 3.98v.48h-5.67v.06c.06 1.56.93 2.55 2.27 2.55 1.02 0 1.71-.38 2.04-1.07zm11.8 2.04V9.62h3.4V8.43h-8.13v1.19h3.41V19h1.32zm5.28 0h1.26v-4.9c0-1.1.87-1.91 2.07-1.91.25 0 .7.04.8.07V11a5.41 5.41 0 0 0-.62-.03c-1.05 0-1.96.54-2.2 1.3h-.1V11.1h-1.21V19zm8.14-.97c1.3 0 2.26-.85 2.26-1.97v-.73l-2.12.14c-1.2.08-1.73.5-1.73 1.29 0 .8.68 1.27 1.6 1.27zm-.23 1.1c-1.53 0-2.67-.9-2.67-2.34 0-1.42 1.04-2.23 2.88-2.34l2.28-.14v-.72c0-.97-.6-1.5-1.79-1.5-.94 0-1.6.35-1.78.98h-1.27c.17-1.27 1.41-2.1 3.1-2.1 1.92 0 3 .98 3 2.62V19h-1.2v-1.16h-.12a2.73 2.73 0 0 1-2.43 1.3zm12.61-5.6c-.22-1.41-1.39-2.56-3.3-2.56-2.22 0-3.63 1.6-3.63 4.05 0 2.52 1.42 4.12 3.63 4.12 1.9 0 3.08-1.07 3.3-2.52h-1.27c-.24.9-.98 1.38-2.04 1.38-1.4 0-2.31-1.15-2.31-2.98 0-1.78.9-2.92 2.31-2.92 1.14 0 1.83.64 2.04 1.42h1.27zm3.31 1.02h-.11V7.97h-1.26V19h1.26v-3l.75-.7 2.96 3.7h1.6l-3.62-4.51 3.4-3.39h-1.55l-3.43 3.45zm6.73 4.45h1.26v-7.9h-1.26V19zm.63-9.5c.48 0 .88-.4.88-.88s-.4-.88-.88-.88a.88.88 0 0 0 0 1.76zm3.03 9.5h1.26v-4.67c0-1.39.81-2.23 2.07-2.23 1.26 0 1.86.67 1.86 2.1V19h1.26v-5.11c0-1.88-.99-2.92-2.76-2.92-1.2 0-1.98.5-2.37 1.38h-.12V11.1h-1.2V19zm11.94-1.23c1.47 0 2.35-1.11 2.35-2.83 0-1.73-.89-2.84-2.35-2.84s-2.28 1.11-2.28 2.84c0 1.72.82 2.83 2.28 2.83zm.06 4.26c-1.9 0-3.12-.85-3.3-2.16h1.33c.13.65.84 1.06 1.97 1.06 1.42 0 2.26-.7 2.26-1.86v-1.55h-.12c-.5.87-1.39 1.36-2.47 1.36-2.05 0-3.31-1.58-3.31-3.94 0-2.37 1.28-3.97 3.3-3.97 1.11 0 2.09.54 2.54 1.39h.12V11.1h1.2v8.04c0 1.76-1.36 2.9-3.52 2.9zm10.29-13.6H-97c2 0 3.38 1.4 3.38 3.42a3.26 3.26 0 0 1-3.4 3.38h-2.66V19h-1.31V8.43zm1.31 1.17v4.46h2.33c1.5 0 2.38-.81 2.38-2.2 0-1.46-.85-2.26-2.38-2.26h-2.33zm8.05 9.4h1.26v-4.9c0-1.1.88-1.91 2.08-1.91.25 0 .7.04.8.07V11a5.41 5.41 0 0 0-.63-.03c-1.05 0-1.95.54-2.19 1.3h-.12V11.1h-1.2V19zm8.96.14c-2.25 0-3.64-1.55-3.64-4.09s1.4-4.08 3.64-4.08c2.25 0 3.64 1.54 3.64 4.08s-1.39 4.09-3.64 4.09zm0-1.14c1.5 0 2.34-1.08 2.34-2.95s-.84-2.95-2.34-2.95S-85 13.18-85 15.05s.85 2.95 2.34 2.95zm6.15-8.94v2.04h-1.28v1.06h1.28v4.79c0 1.5.65 2.1 2.27 2.1.25 0 .5-.02.74-.06v-1.07c-.23.03-.35.03-.58.03-.82 0-1.17-.4-1.17-1.32v-4.47h1.75V11.1h-1.75V9.06h-1.26zm8.07 3.02c-1.26 0-2.14.92-2.24 2.32h4.35c-.02-1.4-.86-2.32-2.11-2.32zm2.08 4.88h1.26c-.38 1.35-1.6 2.18-3.33 2.18-2.19 0-3.56-1.58-3.56-4.08 0-2.48 1.4-4.1 3.56-4.1 2.13 0 3.43 1.52 3.43 3.98v.48h-5.68v.06c.07 1.56.94 2.55 2.28 2.55 1.02 0 1.7-.38 2.04-1.07zm9.87-3.44c-.22-1.4-1.4-2.55-3.31-2.55-2.21 0-3.62 1.6-3.62 4.05 0 2.52 1.42 4.12 3.63 4.12 1.9 0 3.07-1.07 3.3-2.52h-1.27c-.24.9-.98 1.38-2.04 1.38-1.4 0-2.31-1.15-2.31-2.98 0-1.78.89-2.92 2.31-2.92 1.14 0 1.83.64 2.04 1.42h1.27zm2.39-4.46v2.04h-1.28v1.06h1.28v4.79c0 1.5.65 2.1 2.28 2.1.25 0 .49-.02.74-.06v-1.07c-.24.03-.36.03-.59.03-.82 0-1.17-.4-1.17-1.32v-4.47h1.76V11.1h-1.76V9.06h-1.26zm4.95 9.94h1.26v-7.9h-1.26V19zm.63-9.5c.48 0 .88-.4.88-.88s-.4-.88-.88-.88-.88.4-.88.88.4.88.88.88zm6.28 9.64c-2.25 0-3.64-1.55-3.64-4.09s1.39-4.08 3.64-4.08c2.24 0 3.64 1.54 3.64 4.08s-1.4 4.09-3.64 4.09zm0-1.14c1.49 0 2.33-1.08 2.33-2.95s-.84-2.95-2.33-2.95c-1.5 0-2.34 1.08-2.34 2.95s.84 2.95 2.34 2.95zm5.61 1h1.26v-4.67c0-1.39.82-2.23 2.08-2.23 1.26 0 1.86.67 1.86 2.1V19h1.26v-5.11c0-1.88-1-2.92-2.76-2.92-1.21 0-1.98.5-2.38 1.38h-.11V11.1h-1.2V19zm13.52-9.94v2.04h-1.28v1.06h1.28v4.79c0 1.5.65 2.1 2.28 2.1.24 0 .49-.02.73-.06v-1.07c-.23.03-.35.03-.58.03-.82 0-1.17-.4-1.17-1.32v-4.47h1.75V11.1h-1.75V9.06h-1.26zm8.16 10.08c-2.24 0-3.64-1.55-3.64-4.09s1.4-4.08 3.64-4.08c2.25 0 3.64 1.54 3.64 4.08s-1.39 4.09-3.64 4.09zm0-1.14c1.5 0 2.34-1.08 2.34-2.95s-.84-2.95-2.34-2.95c-1.49 0-2.33 1.08-2.33 2.95s.84 2.95 2.33 2.95zm13.78 1.14c-1.1 0-2.04-.52-2.53-1.4h-.12V19h-1.2V7.97h1.26v4.38h.11a2.73 2.73 0 0 1 2.48-1.38c2 0 3.31 1.6 3.31 4.08 0 2.47-1.31 4.09-3.3 4.09zm-.3-7.04c-1.43 0-2.32 1.13-2.32 2.95 0 1.83.9 2.95 2.33 2.95 1.44 0 2.3-1.1 2.3-2.95 0-1.84-.86-2.95-2.3-2.95zM4.2 19h1.26V7.97H4.2V19zm6.95.14c-2.25 0-3.64-1.55-3.64-4.09s1.4-4.08 3.64-4.08c2.25 0 3.64 1.54 3.64 4.08s-1.39 4.09-3.64 4.09zm0-1.14c1.5 0 2.34-1.08 2.34-2.95s-.84-2.95-2.34-2.95-2.33 1.08-2.33 2.95S9.65 18 11.14 18zm12.15-4.48c-.22-1.4-1.39-2.55-3.3-2.55-2.22 0-3.63 1.6-3.63 4.05 0 2.52 1.42 4.12 3.63 4.12 1.9 0 3.08-1.07 3.3-2.52h-1.27c-.24.9-.98 1.38-2.04 1.38-1.4 0-2.31-1.15-2.31-2.98 0-1.78.9-2.92 2.31-2.92 1.14 0 1.83.64 2.04 1.42h1.27zm3.31 1.03h-.11V7.97h-1.26V19h1.26v-3l.75-.7L30.2 19h1.6l-3.62-4.51 3.4-3.39h-1.55l-3.43 3.45zm12.38 0h-.12V7.97H37.6V19h1.26v-3l.76-.7 2.96 3.7h1.6l-3.62-4.51 3.4-3.39H42.4l-3.43 3.45zm6.7 4.45h1.26v-4.67c0-1.39.8-2.23 2.07-2.23 1.26 0 1.86.67 1.86 2.1V19h1.26v-5.11c0-1.88-.99-2.92-2.76-2.92-1.21 0-1.98.5-2.38 1.38h-.11V11.1h-1.2V19zm12 .14c-2.26 0-3.65-1.55-3.65-4.09s1.4-4.08 3.64-4.08c2.25 0 3.64 1.54 3.64 4.08s-1.39 4.09-3.64 4.09zm0-1.14c1.49 0 2.33-1.08 2.33-2.95s-.84-2.95-2.34-2.95-2.33 1.08-2.33 2.95.84 2.95 2.33 2.95zm15.54-6.9h-1.26l-1.56 6.32h-.11l-1.77-6.32h-1.2l-1.77 6.32h-.12l-1.55-6.32H62.6l2.21 7.9h1.28l1.76-6.1h.11l1.77 6.1H71l2.21-7.9zm1.69 7.9h1.26v-4.67c0-1.39.81-2.23 2.07-2.23 1.26 0 1.86.67 1.86 2.1V19h1.26v-5.11c0-1.88-.99-2.92-2.76-2.92-1.21 0-1.98.5-2.37 1.38h-.12V11.1h-1.2V19zm13.51-9.94v2.04h-1.27v1.06h1.27v4.79c0 1.5.65 2.1 2.28 2.1.25 0 .49-.02.74-.06v-1.07c-.24.03-.36.03-.59.03-.82 0-1.17-.4-1.17-1.32v-4.47h1.76V11.1h-1.76V9.06h-1.26zM93.34 19h1.26v-4.9c0-1.1.87-1.91 2.07-1.91.25 0 .7.04.81.07V11a5.41 5.41 0 0 0-.63-.03c-1.05 0-1.95.54-2.19 1.3h-.12V11.1h-1.2V19zm8.15-.97c1.3 0 2.25-.85 2.25-1.97v-.73l-2.12.14c-1.2.08-1.73.5-1.73 1.29 0 .8.68 1.27 1.6 1.27zm-.24 1.1c-1.53 0-2.66-.9-2.66-2.34 0-1.42 1.04-2.23 2.87-2.34l2.28-.14v-.72c0-.97-.6-1.5-1.78-1.5-.95 0-1.6.35-1.78.98H98.9c.17-1.27 1.41-2.1 3.1-2.1 1.93 0 3 .98 3 2.62V19h-1.2v-1.16h-.12a2.73 2.73 0 0 1-2.43 1.3zm12.61-5.6c-.21-1.41-1.39-2.56-3.3-2.56-2.22 0-3.62 1.6-3.62 4.05 0 2.52 1.41 4.12 3.62 4.12 1.9 0 3.08-1.07 3.3-2.52h-1.27c-.23.9-.97 1.38-2.04 1.38-1.4 0-2.31-1.15-2.31-2.98 0-1.78.9-2.92 2.31-2.92 1.14 0 1.84.64 2.04 1.42h1.27zm3.32 1.02h-.12V7.97h-1.26V19h1.26v-3l.75-.7 2.96 3.7h1.6l-3.62-4.51 3.4-3.39h-1.55l-3.42 3.45zm9.84-2.47c-1.26 0-2.14.92-2.23 2.32h4.35c-.03-1.4-.87-2.32-2.12-2.32zm2.08 4.88h1.26c-.38 1.35-1.6 2.18-3.33 2.18-2.19 0-3.56-1.58-3.56-4.08 0-2.48 1.4-4.1 3.56-4.1 2.14 0 3.43 1.52 3.43 3.98v.48h-5.67v.06c.06 1.56.93 2.55 2.27 2.55 1.02 0 1.71-.38 2.04-1.07zm3.34 2.04h1.26v-4.9c0-1.1.87-1.91 2.07-1.91.25 0 .7.04.8.07V11a5.41 5.41 0 0 0-.62-.03c-1.05 0-1.96.54-2.2 1.3h-.11V11.1h-1.2V19zm5.53-5.73c0 1.14.67 1.77 2.15 2.13l1.36.33c.84.2 1.25.57 1.25 1.12 0 .72-.76 1.23-1.82 1.23-1.01 0-1.64-.43-1.86-1.1h-1.3c.15 1.32 1.35 2.16 3.11 2.16 1.8 0 3.17-.97 3.17-2.39 0-1.13-.72-1.78-2.2-2.14l-1.22-.29c-.93-.23-1.37-.56-1.37-1.1 0-.7.73-1.19 1.67-1.19.95 0 1.56.42 1.73 1.05h1.25c-.17-1.3-1.32-2.11-2.98-2.11-1.67 0-2.94.98-2.94 2.3z" mask="url(#b)"/></g></g></svg>