<svg xmlns="http://www.w3.org/2000/svg" xmlns:xlink="http://www.w3.org/1999/xlink" width="300" height="180" style="background:#f9f9fa" viewBox="0 0 300 180">
  <defs>
    <rect id="radiobutton-interaction-checked-b" width="16" height="16" x="110" y="128" rx="8"/>
    <filter id="radiobutton-interaction-checked-a" width="187.5%" height="187.5%" x="-43.7%" y="-43.8%" filterUnits="objectBoundingBox">
      <feMorphology in="SourceAlpha" operator="dilate" radius=".5" result="shadowSpreadOuter1"/>
      <feOffset in="shadowSpreadOuter1" result="shadowOffsetOuter1"/>
      <feColorMatrix in="shadowOffsetOuter1" result="shadowMatrixOuter1" values="0 0 0 0 0.0392156863   0 0 0 0 0.517647059   0 0 0 0 1  0 0 0 1 0"/>
      <feMorphology in="SourceAlpha" operator="dilate" radius="2" result="shadowSpreadOuter2"/>
      <feOffset in="shadowSpreadOuter2" result="shadowOffsetOuter2"/>
      <feColorMatrix in="shadowOffsetOuter2" result="shadowMatrixOuter2" values="0 0 0 0 0.0392156863   0 0 0 0 0.517647059   0 0 0 0 1  0 0 0 0.3 0"/>
      <feMerge>
        <feMergeNode in="shadowMatrixOuter1"/>
        <feMergeNode in="shadowMatrixOuter2"/>
      </feMerge>
    </filter>
    <filter id="radiobutton-interaction-checked-c" width="168.7%" height="168.8%" x="-34.4%" y="-34.4%" filterUnits="objectBoundingBox">
      <feMorphology in="SourceAlpha" radius="1" result="shadowSpreadInner1"/>
      <feOffset in="shadowSpreadInner1" result="shadowOffsetInner1"/>
      <feComposite in="shadowOffsetInner1" in2="SourceAlpha" k2="-1" k3="1" operator="arithmetic" result="shadowInnerInner1"/>
      <feColorMatrix in="shadowInnerInner1" values="0 0 0 0 0.0392156863   0 0 0 0 0.517647059   0 0 0 0 1  0 0 0 1 0"/>
    </filter>
  </defs>
  <g fill="none" fill-rule="evenodd">
    <path fill="#000" d="M131.193359,45 L131.193359,35.8974609 L133.707031,35.8974609 C136.91473,35.8974609 138.518555,37.3764501 138.518555,40.3344727 C138.518555,41.7394276 138.073165,42.8682412 137.182373,43.7209473 C136.291581,44.5736534 135.099291,45 133.605469,45 L131.193359,45 Z M132.259766,36.8623047 L132.259766,44.0351562 L133.618164,44.0351562 C134.811529,44.0351562 135.740394,43.7156607 136.404785,43.0766602 C137.069176,42.4376596 137.401367,41.5320697 137.401367,40.3598633 C137.401367,38.0281459 136.161471,36.8623047 133.681641,36.8623047 L132.259766,36.8623047 Z M145.393066,42.0102539 L140.803711,42.0102539 C140.820638,42.7338903 141.015298,43.2924785 141.387695,43.6860352 C141.760093,44.0795918 142.272132,44.2763672 142.923828,44.2763672 C143.655928,44.2763672 144.328773,44.0351587 144.942383,43.5527344 L144.942383,44.5302734 C144.371091,44.9449891 143.615727,45.1523438 142.67627,45.1523438 C141.757971,45.1523438 141.036461,44.8571807 140.511719,44.2668457 C139.986977,43.6765107 139.724609,42.846034 139.724609,41.7753906 C139.724609,40.7639923 140.011309,39.9398632 140.584717,39.3029785 C141.158125,38.6660938 141.870113,38.3476562 142.720703,38.3476562 C143.571293,38.3476562 144.229327,38.6227186 144.694824,39.1728516 C145.160321,39.7229845 145.393066,40.4868115 145.393066,41.4643555 L145.393066,42.0102539 Z M144.32666,41.1279297 C144.322428,40.5270152 144.177492,40.0594092 143.891846,39.7250977 C143.6062,39.3907861 143.209475,39.2236328 142.70166,39.2236328 C142.210772,39.2236328 141.793947,39.3992495 141.451172,39.7504883 C141.108397,40.101727 140.89681,40.5608696 140.816406,41.1279297 L144.32666,41.1279297 Z M150.179199,36.2910156 C149.976073,36.1767572 149.745444,36.1196289 149.487305,36.1196289 C148.759436,36.1196289 148.395508,36.5787715 148.395508,37.4970703 L148.395508,38.5 L149.918945,38.5 L149.918945,39.3886719 L148.395508,39.3886719 L148.395508,45 L147.36084,45 L147.36084,39.3886719 L146.25,39.3886719 L146.25,38.5 L147.36084,38.5 L147.36084,37.4462891 C147.36084,36.7649706 147.557615,36.2264831 147.951172,35.8308105 C148.344729,35.435138 148.835609,35.2373047 149.423828,35.2373047 C149.741213,35.2373047 149.993,35.2753902 150.179199,35.3515625 L150.179199,36.2910156 Z M155.688965,45 L154.647949,45 L154.647949,43.984375 L154.622559,43.984375 C154.169757,44.7630247 153.50326,45.1523438 152.623047,45.1523438 C151.975583,45.1523438 151.468833,44.9809587 151.102783,44.6381836 C150.736733,44.2954084 150.553711,43.8404976 150.553711,43.2734375 C150.553711,42.0589132 151.268873,41.3522145 152.699219,41.1533203 L154.647949,40.8803711 C154.647949,39.7758734 154.201502,39.2236328 153.308594,39.2236328 C152.525712,39.2236328 151.819014,39.4902317 151.188477,40.0234375 L151.188477,38.9570312 C151.827477,38.5507792 152.563798,38.3476562 153.397461,38.3476562 C154.925138,38.3476562 155.688965,39.1559164 155.688965,40.7724609 L155.688965,45 Z M154.647949,41.7119141 L153.080078,41.9277344 C152.597654,41.995443 152.233725,42.1149894 151.988281,42.286377 C151.742837,42.4577645 151.620117,42.761391 151.620117,43.1972656 C151.620117,43.51465 151.733316,43.7738434 151.959717,43.9748535 C152.186118,44.1758636 152.487628,44.2763672 152.864258,44.2763672 C153.380536,44.2763672 153.806883,44.0954608 154.143311,43.7336426 C154.479738,43.3718244 154.647949,42.9137398 154.647949,42.359375 L154.647949,41.7119141 Z M162.90625,45 L161.865234,45 L161.865234,43.9716797 L161.839844,43.9716797 C161.408201,44.758793 160.739588,45.1523438 159.833984,45.1523438 C158.285149,45.1523438 157.510742,44.2298269 157.510742,42.3847656 L157.510742,38.5 L158.54541,38.5 L158.54541,42.2197266 C158.54541,43.5908272 159.070144,44.2763672 160.119629,44.2763672 C160.627444,44.2763672 161.045327,44.0891132 161.373291,43.7145996 C161.701255,43.340086 161.865234,42.8502634 161.865234,42.2451172 L161.865234,38.5 L162.90625,38.5 L162.90625,45 Z M166.04834,45 L165.007324,45 L165.007324,35.3769531 L166.04834,35.3769531 L166.04834,45 Z M171.170898,44.9365234 C170.925455,45.0719408 170.601727,45.1396484 170.199707,45.1396484 C169.061355,45.1396484 168.492188,44.5048892 168.492188,43.2353516 L168.492188,39.3886719 L167.375,39.3886719 L167.375,38.5 L168.492188,38.5 L168.492188,36.9130859 L169.533203,36.5766602 L169.533203,38.5 L171.170898,38.5 L171.170898,39.3886719 L169.533203,39.3886719 L169.533203,43.0512695 C169.533203,43.4871441 169.607258,43.7981762 169.755371,43.984375 C169.903484,44.1705738 170.148924,44.2636719 170.491699,44.2636719 C170.75407,44.2636719 170.980468,44.1917325 171.170898,44.0478516 L171.170898,44.9365234 Z"/>
    <rect width="16" height="16" x="110" y="32" fill="#0060DF" rx="8"/>
    <circle cx="118" cy="40" r="4" fill="#FFF" fill-rule="nonzero"/>
    <path fill="#000" d="M138.036133,77 L136.969727,77 L136.969727,72.8486328 L132.259766,72.8486328 L132.259766,77 L131.193359,77 L131.193359,67.8974609 L132.259766,67.8974609 L132.259766,71.8901367 L136.969727,71.8901367 L136.969727,67.8974609 L138.036133,67.8974609 L138.036133,77 Z M143,77.1523438 C142.039383,77.1523438 141.272382,76.8487172 140.698975,76.2414551 C140.125567,75.6341929 139.838867,74.8291066 139.838867,73.8261719 C139.838867,72.7343695 140.137204,71.8816762 140.733887,71.2680664 C141.330569,70.6544566 142.136714,70.3476562 143.152344,70.3476562 C144.121424,70.3476562 144.877846,70.6459931 145.421631,71.2426758 C145.965416,71.8393585 146.237305,72.6666614 146.237305,73.7246094 C146.237305,74.7613984 145.944257,75.5918751 145.358154,76.2160645 C144.772051,76.8402538 143.986008,77.1523438 143,77.1523438 Z M143.076172,71.2236328 C142.407549,71.2236328 141.878583,71.4510882 141.489258,71.9060059 C141.099933,72.3609235 140.905273,72.9882773 140.905273,73.7880859 C140.905273,74.5582721 141.102049,75.1655251 141.495605,75.6098633 C141.889162,76.0542014 142.416012,76.2763672 143.076172,76.2763672 C143.749027,76.2763672 144.266356,76.0584332 144.628174,75.6225586 C144.989992,75.186684 145.170898,74.5667358 145.170898,73.7626953 C145.170898,72.9501913 144.989992,72.3238954 144.628174,71.8837891 C144.266356,71.4436827 143.749027,71.2236328 143.076172,71.2236328 Z M153.010254,70.5 L150.42041,77 L149.398438,77 L146.935547,70.5 L148.078125,70.5 L149.728516,75.2226562 C149.851238,75.5696632 149.927409,75.8722318 149.957031,76.1303711 L149.982422,76.1303711 C150.02474,75.8045231 150.092447,75.510418 150.185547,75.2480469 L151.912109,70.5 L153.010254,70.5 Z M159.351562,74.0102539 L154.762207,74.0102539 C154.779134,74.7338903 154.973794,75.2924785 155.346191,75.6860352 C155.718589,76.0795918 156.230628,76.2763672 156.882324,76.2763672 C157.614424,76.2763672 158.287269,76.0351587 158.900879,75.5527344 L158.900879,76.5302734 C158.329587,76.9449891 157.574223,77.1523438 156.634766,77.1523438 C155.716467,77.1523438 154.994957,76.8571807 154.470215,76.2668457 C153.945473,75.6765107 153.683105,74.846034 153.683105,73.7753906 C153.683105,72.7639923 153.969805,71.9398632 154.543213,71.3029785 C155.116621,70.6660938 155.828609,70.3476562 156.679199,70.3476562 C157.529789,70.3476562 158.187823,70.6227186 158.65332,71.1728516 C159.118817,71.7229845 159.351562,72.4868115 159.351562,73.4643555 L159.351562,74.0102539 Z M158.285156,73.1279297 C158.280924,72.5270152 158.135988,72.0594092 157.850342,71.7250977 C157.564696,71.3907861 157.167971,71.2236328 156.660156,71.2236328 C156.169268,71.2236328 155.752443,71.3992495 155.409668,71.7504883 C155.066893,72.101727 154.855306,72.5608696 154.774902,73.1279297 L158.285156,73.1279297 Z M164.31543,71.5537109 C164.133463,71.4140618 163.871095,71.3442383 163.52832,71.3442383 C163.083982,71.3442383 162.712648,71.5537088 162.414307,71.9726562 C162.115965,72.3916037 161.966797,72.962887 161.966797,73.6865234 L161.966797,77 L160.925781,77 L160.925781,70.5 L161.966797,70.5 L161.966797,71.8393555 L161.992188,71.8393555 C162.1403,71.3823219 162.366698,71.0257988 162.671387,70.7697754 C162.976076,70.513752 163.31673,70.3857422 163.693359,70.3857422 C163.964194,70.3857422 164.171549,70.4153643 164.31543,70.4746094 L164.31543,71.5537109 Z"/>
    <rect width="16" height="16" x="110" y="64" fill="#003EAA" rx="8"/>
    <circle cx="118" cy="72" r="4" fill="#FFF" fill-rule="nonzero"/>
    <path fill="#000" d="M132.259766,105.55957 L132.259766,109 L131.193359,109 L131.193359,99.8974609 L133.694336,99.8974609 C134.667648,99.8974609 135.421954,100.134438 135.957275,100.608398 C136.492597,101.082359 136.760254,101.750972 136.760254,102.614258 C136.760254,103.477543 136.462975,104.184242 135.868408,104.734375 C135.273841,105.284508 134.470871,105.55957 133.459473,105.55957 L132.259766,105.55957 Z M132.259766,100.862305 L132.259766,104.594727 L133.376953,104.594727 C134.113285,104.594727 134.675047,104.426515 135.062256,104.090088 C135.449465,103.75366 135.643066,103.278649 135.643066,102.665039 C135.643066,101.46321 134.932136,100.862305 133.510254,100.862305 L132.259766,100.862305 Z M141.724121,103.553711 C141.542154,103.414062 141.279787,103.344238 140.937012,103.344238 C140.492674,103.344238 140.121339,103.553709 139.822998,103.972656 C139.524657,104.391604 139.375488,104.962887 139.375488,105.686523 L139.375488,109 L138.334473,109 L138.334473,102.5 L139.375488,102.5 L139.375488,103.839355 L139.400879,103.839355 C139.548992,103.382322 139.775389,103.025799 140.080078,102.769775 C140.384767,102.513752 140.725421,102.385742 141.102051,102.385742 C141.372885,102.385742 141.58024,102.415364 141.724121,102.474609 L141.724121,103.553711 Z M148.078125,106.010254 L143.48877,106.010254 C143.505697,106.73389 143.700356,107.292479 144.072754,107.686035 C144.445152,108.079592 144.957191,108.276367 145.608887,108.276367 C146.340987,108.276367 147.013832,108.035159 147.627441,107.552734 L147.627441,108.530273 C147.056149,108.944989 146.300786,109.152344 145.361328,109.152344 C144.443029,109.152344 143.72152,108.857181 143.196777,108.266846 C142.672035,107.676511 142.409668,106.846034 142.409668,105.775391 C142.409668,104.763992 142.696368,103.939863 143.269775,103.302979 C143.843183,102.666094 144.555172,102.347656 145.405762,102.347656 C146.256352,102.347656 146.914386,102.622719 147.379883,103.172852 C147.84538,103.722985 148.078125,104.486812 148.078125,105.464355 L148.078125,106.010254 Z M147.011719,105.12793 C147.007487,104.527015 146.86255,104.059409 146.576904,103.725098 C146.291258,103.390786 145.894534,103.223633 145.386719,103.223633 C144.895831,103.223633 144.479006,103.39925 144.13623,103.750488 C143.793455,104.101727 143.581869,104.56087 143.501465,105.12793 L147.011719,105.12793 Z M149.258789,108.765137 L149.258789,107.647949 C149.825849,108.066897 150.450029,108.276367 151.131348,108.276367 C152.045415,108.276367 152.502441,107.971683 152.502441,107.362305 C152.502441,107.188801 152.463298,107.041749 152.38501,106.921143 C152.306722,106.800537 152.200928,106.693685 152.067627,106.600586 C151.934326,106.507487 151.777752,106.42391 151.5979,106.349854 C151.418049,106.275797 151.224448,106.198568 151.01709,106.118164 C150.729328,106.003906 150.476482,105.888591 150.258545,105.772217 C150.040608,105.655843 149.858643,105.524659 149.712646,105.378662 C149.56665,105.232665 149.456625,105.06657 149.382568,104.880371 C149.308512,104.694172 149.271484,104.476238 149.271484,104.226562 C149.271484,103.921873 149.341308,103.652101 149.480957,103.417236 C149.620606,103.182372 149.806802,102.985596 150.039551,102.826904 C150.272299,102.668212 150.53784,102.548666 150.836182,102.468262 C151.134523,102.387858 151.442381,102.347656 151.759766,102.347656 C152.322594,102.347656 152.82617,102.444986 153.270508,102.639648 L153.270508,103.693359 C152.792315,103.380207 152.242191,103.223633 151.620117,103.223633 C151.425455,103.223633 151.249838,103.245849 151.093262,103.290283 C150.936685,103.334717 150.802328,103.397135 150.690186,103.477539 C150.578043,103.557943 150.491293,103.654215 150.429932,103.766357 C150.368571,103.8785 150.337891,104.002278 150.337891,104.137695 C150.337891,104.306967 150.368571,104.44873 150.429932,104.562988 C150.491293,104.677247 150.581217,104.778808 150.699707,104.867676 C150.818197,104.956543 150.962076,105.036946 151.131348,105.108887 C151.300619,105.180827 151.493163,105.259114 151.708984,105.34375 C151.996746,105.453777 152.254882,105.566975 152.483398,105.68335 C152.711915,105.799724 152.906575,105.930907 153.067383,106.076904 C153.228191,106.222901 153.351969,106.391112 153.438721,106.581543 C153.525472,106.771974 153.568848,106.998371 153.568848,107.260742 C153.568848,107.582358 153.497966,107.861652 153.356201,108.098633 C153.214436,108.335613 153.025066,108.532389 152.788086,108.688965 C152.551106,108.845541 152.278159,108.961914 151.969238,109.038086 C151.660317,109.114258 151.33659,109.152344 150.998047,109.152344 C150.329424,109.152344 149.749677,109.023276 149.258789,108.765137 Z M154.774902,108.765137 L154.774902,107.647949 C155.341962,108.066897 155.966142,108.276367 156.647461,108.276367 C157.561528,108.276367 158.018555,107.971683 158.018555,107.362305 C158.018555,107.188801 157.979411,107.041749 157.901123,106.921143 C157.822835,106.800537 157.717042,106.693685 157.58374,106.600586 C157.450439,106.507487 157.293865,106.42391 157.114014,106.349854 C156.934163,106.275797 156.740561,106.198568 156.533203,106.118164 C156.245441,106.003906 155.992595,105.888591 155.774658,105.772217 C155.556721,105.655843 155.374757,105.524659 155.22876,105.378662 C155.082763,105.232665 154.972738,105.06657 154.898682,104.880371 C154.824625,104.694172 154.787598,104.476238 154.787598,104.226562 C154.787598,103.921873 154.857421,103.652101 154.99707,103.417236 C155.136719,103.182372 155.322916,102.985596 155.555664,102.826904 C155.788413,102.668212 156.053954,102.548666 156.352295,102.468262 C156.650636,102.387858 156.958495,102.347656 157.275879,102.347656 C157.838707,102.347656 158.342283,102.444986 158.786621,102.639648 L158.786621,103.693359 C158.308429,103.380207 157.758304,103.223633 157.13623,103.223633 C156.941568,103.223633 156.765951,103.245849 156.609375,103.290283 C156.452799,103.334717 156.318441,103.397135 156.206299,103.477539 C156.094156,103.557943 156.007406,103.654215 155.946045,103.766357 C155.884684,103.8785 155.854004,104.002278 155.854004,104.137695 C155.854004,104.306967 155.884684,104.44873 155.946045,104.562988 C156.007406,104.677247 156.09733,104.778808 156.21582,104.867676 C156.33431,104.956543 156.478189,105.036946 156.647461,105.108887 C156.816733,105.180827 157.009276,105.259114 157.225098,105.34375 C157.51286,105.453777 157.770995,105.566975 157.999512,105.68335 C158.228028,105.799724 158.422688,105.930907 158.583496,106.076904 C158.744304,106.222901 158.868082,106.391112 158.954834,106.581543 C159.041586,106.771974 159.084961,106.998371 159.084961,107.260742 C159.084961,107.582358 159.014079,107.861652 158.872314,108.098633 C158.730549,108.335613 158.54118,108.532389 158.304199,108.688965 C158.067219,108.845541 157.794272,108.961914 157.485352,109.038086 C157.176431,109.114258 156.852704,109.152344 156.51416,109.152344 C155.845537,109.152344 155.26579,109.023276 154.774902,108.765137 Z M165.908691,106.010254 L161.319336,106.010254 C161.336263,106.73389 161.530923,107.292479 161.90332,107.686035 C162.275718,108.079592 162.787757,108.276367 163.439453,108.276367 C164.171553,108.276367 164.844398,108.035159 165.458008,107.552734 L165.458008,108.530273 C164.886716,108.944989 164.131352,109.152344 163.191895,109.152344 C162.273596,109.152344 161.552086,108.857181 161.027344,108.266846 C160.502602,107.676511 160.240234,106.846034 160.240234,105.775391 C160.240234,104.763992 160.526934,103.939863 161.100342,103.302979 C161.67375,102.666094 162.385738,102.347656 163.236328,102.347656 C164.086918,102.347656 164.744952,102.622719 165.210449,103.172852 C165.675946,103.722985 165.908691,104.486812 165.908691,105.464355 L165.908691,106.010254 Z M164.842285,105.12793 C164.838053,104.527015 164.693117,104.059409 164.407471,103.725098 C164.121825,103.390786 163.7251,103.223633 163.217285,103.223633 C162.726397,103.223633 162.309572,103.39925 161.966797,103.750488 C161.624022,104.101727 161.412435,104.56087 161.332031,105.12793 L164.842285,105.12793 Z M173.030762,109 L171.989746,109 L171.989746,107.895508 L171.964355,107.895508 C171.481931,108.733403 170.737147,109.152344 169.72998,109.152344 C168.913245,109.152344 168.2605,108.861412 167.771729,108.279541 C167.282957,107.69767 167.038574,106.905278 167.038574,105.902344 C167.038574,104.827469 167.309405,103.966312 167.851074,103.318848 C168.392744,102.671383 169.114253,102.347656 170.015625,102.347656 C170.908533,102.347656 171.558103,102.69889 171.964355,103.401367 L171.989746,103.401367 L171.989746,99.3769531 L173.030762,99.3769531 L173.030762,109 Z M171.989746,106.061035 L171.989746,105.102539 C171.989746,104.577797 171.816245,104.133465 171.469238,103.769531 C171.122231,103.405597 170.682132,103.223633 170.148926,103.223633 C169.514157,103.223633 169.014813,103.456378 168.650879,103.921875 C168.286945,104.387372 168.10498,105.030595 168.10498,105.851562 C168.10498,106.60059 168.279539,107.191974 168.628662,107.625732 C168.977785,108.059491 169.446449,108.276367 170.034668,108.276367 C170.614423,108.276367 171.085203,108.066897 171.447021,107.647949 C171.80884,107.229002 171.989746,106.700036 171.989746,106.061035 Z"/>
    <rect width="16" height="16" x="110" y="96" fill="#002275" rx="8"/>
    <circle cx="118" cy="104" r="4" fill="#FFF" fill-rule="nonzero"/>
    <path fill="#000" d="M135.814453,132.862305 L132.259766,132.862305 L132.259766,136.010742 L135.547852,136.010742 L135.547852,136.969238 L132.259766,136.969238 L132.259766,141 L131.193359,141 L131.193359,131.897461 L135.814453,131.897461 L135.814453,132.862305 Z M140.118164,141.152344 C139.157547,141.152344 138.390546,140.848717 137.817139,140.241455 C137.243731,139.634193 136.957031,138.829107 136.957031,137.826172 C136.957031,136.73437 137.255368,135.881676 137.852051,135.268066 C138.448733,134.654457 139.254878,134.347656 140.270508,134.347656 C141.239588,134.347656 141.99601,134.645993 142.539795,135.242676 C143.08358,135.839358 143.355469,136.666661 143.355469,137.724609 C143.355469,138.761398 143.062422,139.591875 142.476318,140.216064 C141.890215,140.840254 141.104172,141.152344 140.118164,141.152344 Z M140.194336,135.223633 C139.525713,135.223633 138.996747,135.451088 138.607422,135.906006 C138.218097,136.360923 138.023438,136.988277 138.023438,137.788086 C138.023438,138.558272 138.220213,139.165525 138.61377,139.609863 C139.007326,140.054201 139.534176,140.276367 140.194336,140.276367 C140.867191,140.276367 141.38452,140.058433 141.746338,139.622559 C142.108156,139.186684 142.289062,138.566736 142.289062,137.762695 C142.289062,136.950191 142.108156,136.323895 141.746338,135.883789 C141.38452,135.443683 140.867191,135.223633 140.194336,135.223633 Z M149.449219,140.70166 C148.949867,141.002117 148.357425,141.152344 147.671875,141.152344 C146.745113,141.152344 145.997155,140.850833 145.427979,140.247803 C144.858802,139.644772 144.574219,138.862961 144.574219,137.902344 C144.574219,136.8317 144.881019,135.971602 145.494629,135.322021 C146.108239,134.672441 146.927078,134.347656 147.951172,134.347656 C148.522464,134.347656 149.026039,134.453449 149.461914,134.665039 L149.461914,135.731445 C148.97949,135.392902 148.463219,135.223633 147.913086,135.223633 C147.248695,135.223633 146.70386,135.461668 146.278564,135.937744 C145.853269,136.413821 145.640625,137.039059 145.640625,137.813477 C145.640625,138.575199 145.840574,139.176105 146.240479,139.616211 C146.640383,140.056317 147.176754,140.276367 147.849609,140.276367 C148.41667,140.276367 148.949867,140.088055 149.449219,139.711426 L149.449219,140.70166 Z M156.279297,141 L155.238281,141 L155.238281,139.97168 L155.212891,139.97168 C154.781248,140.758793 154.112635,141.152344 153.207031,141.152344 C151.658195,141.152344 150.883789,140.229827 150.883789,138.384766 L150.883789,134.5 L151.918457,134.5 L151.918457,138.219727 C151.918457,139.590827 152.443191,140.276367 153.492676,140.276367 C154.000491,140.276367 154.418374,140.089113 154.746338,139.7146 C155.074302,139.340086 155.238281,138.850263 155.238281,138.245117 L155.238281,134.5 L156.279297,134.5 L156.279297,141 Z M157.986816,140.765137 L157.986816,139.647949 C158.553877,140.066897 159.178056,140.276367 159.859375,140.276367 C160.773442,140.276367 161.230469,139.971683 161.230469,139.362305 C161.230469,139.188801 161.191325,139.041749 161.113037,138.921143 C161.034749,138.800537 160.928956,138.693685 160.795654,138.600586 C160.662353,138.507487 160.505779,138.42391 160.325928,138.349854 C160.146077,138.275797 159.952475,138.198568 159.745117,138.118164 C159.457355,138.003906 159.20451,137.888591 158.986572,137.772217 C158.768635,137.655843 158.586671,137.524659 158.440674,137.378662 C158.294677,137.232665 158.184652,137.06657 158.110596,136.880371 C158.036539,136.694172 157.999512,136.476238 157.999512,136.226562 C157.999512,135.921873 158.069335,135.652101 158.208984,135.417236 C158.348634,135.182372 158.53483,134.985596 158.767578,134.826904 C159.000327,134.668212 159.265868,134.548666 159.564209,134.468262 C159.86255,134.387858 160.170409,134.347656 160.487793,134.347656 C161.050621,134.347656 161.554197,134.444986 161.998535,134.639648 L161.998535,135.693359 C161.520343,135.380207 160.970218,135.223633 160.348145,135.223633 C160.153482,135.223633 159.977865,135.245849 159.821289,135.290283 C159.664713,135.334717 159.530355,135.397135 159.418213,135.477539 C159.30607,135.557943 159.21932,135.654215 159.157959,135.766357 C159.096598,135.8785 159.065918,136.002278 159.065918,136.137695 C159.065918,136.306967 159.096598,136.44873 159.157959,136.562988 C159.21932,136.677247 159.309244,136.778808 159.427734,136.867676 C159.546225,136.956543 159.690103,137.036946 159.859375,137.108887 C160.028647,137.180827 160.22119,137.259114 160.437012,137.34375 C160.724774,137.453777 160.982909,137.566975 161.211426,137.68335 C161.439943,137.799724 161.634602,137.930907 161.79541,138.076904 C161.956218,138.222901 162.079996,138.391112 162.166748,138.581543 C162.2535,138.771974 162.296875,138.998371 162.296875,139.260742 C162.296875,139.582358 162.225994,139.861652 162.084229,140.098633 C161.942463,140.335613 161.753094,140.532389 161.516113,140.688965 C161.279133,140.845541 161.006186,140.961914 160.697266,141.038086 C160.388345,141.114258 160.064618,141.152344 159.726074,141.152344 C159.057451,141.152344 158.477704,141.023276 157.986816,140.765137 Z M169.120605,138.010254 L164.53125,138.010254 C164.548177,138.73389 164.742837,139.292479 165.115234,139.686035 C165.487632,140.079592 165.999671,140.276367 166.651367,140.276367 C167.383467,140.276367 168.056312,140.035159 168.669922,139.552734 L168.669922,140.530273 C168.09863,140.944989 167.343266,141.152344 166.403809,141.152344 C165.48551,141.152344 164.764,140.857181 164.239258,140.266846 C163.714516,139.676511 163.452148,138.846034 163.452148,137.775391 C163.452148,136.763992 163.738848,135.939863 164.312256,135.302979 C164.885664,134.666094 165.597652,134.347656 166.448242,134.347656 C167.298832,134.347656 167.956866,134.622719 168.422363,135.172852 C168.88786,135.722985 169.120605,136.486812 169.120605,137.464355 L169.120605,138.010254 Z M168.054199,137.12793 C168.049967,136.527015 167.905031,136.059409 167.619385,135.725098 C167.333739,135.390786 166.937014,135.223633 166.429199,135.223633 C165.938311,135.223633 165.521486,135.39925 165.178711,135.750488 C164.835936,136.101727 164.624349,136.56087 164.543945,137.12793 L168.054199,137.12793 Z M176.242676,141 L175.20166,141 L175.20166,139.895508 L175.17627,139.895508 C174.693845,140.733403 173.949061,141.152344 172.941895,141.152344 C172.125159,141.152344 171.472415,140.861412 170.983643,140.279541 C170.494871,139.69767 170.250488,138.905278 170.250488,137.902344 C170.250488,136.827469 170.521319,135.966312 171.062988,135.318848 C171.604658,134.671383 172.326167,134.347656 173.227539,134.347656 C174.120447,134.347656 174.770017,134.69889 175.17627,135.401367 L175.20166,135.401367 L175.20166,131.376953 L176.242676,131.376953 L176.242676,141 Z M175.20166,138.061035 L175.20166,137.102539 C175.20166,136.577797 175.028159,136.133465 174.681152,135.769531 C174.334145,135.405597 173.894046,135.223633 173.36084,135.223633 C172.726071,135.223633 172.226727,135.456378 171.862793,135.921875 C171.498859,136.387372 171.316895,137.030595 171.316895,137.851562 C171.316895,138.60059 171.491453,139.191974 171.840576,139.625732 C172.189699,140.059491 172.658363,140.276367 173.246582,140.276367 C173.826338,140.276367 174.297117,140.066897 174.658936,139.647949 C175.020754,139.229002 175.20166,138.700036 175.20166,138.061035 Z"/>
    <use fill="#000" filter="url(#radiobutton-interaction-checked-a)" xlink:href="#radiobutton-interaction-checked-b"/>
    <use fill="#0060DF" xlink:href="#radiobutton-interaction-checked-b"/>
    <use fill="#000" filter="url(#radiobutton-interaction-checked-c)" xlink:href="#radiobutton-interaction-checked-b"/>
    <circle cx="118" cy="136" r="4" fill="#FFF" fill-rule="nonzero"/>
  </g>
</svg>
