<svg xmlns="http://www.w3.org/2000/svg" xmlns:xlink="http://www.w3.org/1999/xlink" width="300" height="180" style="background:#f9f9fa" viewBox="0 0 300 120">
  <defs>
    <rect id="radiobutton-single-dont-a" width="14" height="14" x="16" y="61" rx="7"/>
  </defs>
  <g fill="none" fill-rule="evenodd">
    <path fill="#000" d="M35.7680664,72.6318359 L35.7680664,71.375 C35.9119473,71.5019538 36.0843903,71.6162104 36.2854004,71.7177734 C36.4864105,71.8193364 36.6979969,71.9050289 36.920166,71.9748535 C37.1423351,72.0446781 37.3655588,72.0986326 37.5898438,72.1367188 C37.8141287,72.1748049 38.0214834,72.1938477 38.2119141,72.1938477 C38.8678418,72.1938477 39.3576644,72.0721855 39.6813965,71.8288574 C40.0051286,71.5855294 40.1669922,71.2353538 40.1669922,70.7783203 C40.1669922,70.5328764 40.1130376,70.3191741 40.005127,70.137207 C39.8972163,69.95524 39.7480478,69.7891446 39.5576172,69.638916 C39.3671865,69.4886874 39.141847,69.3448086 38.8815918,69.2072754 C38.6213366,69.0697422 38.3409846,68.9248054 38.0405273,68.7724609 C37.7231429,68.6116528 37.4269219,68.4487313 37.1518555,68.2836914 C36.876789,68.1186515 36.6376963,67.9366872 36.4345703,67.737793 C36.2314443,67.5388987 36.0716965,67.3135592 35.9553223,67.0617676 C35.838948,66.809976 35.7807617,66.5148129 35.7807617,66.1762695 C35.7807617,65.7615539 35.8717439,65.4007991 36.0537109,65.0939941 C36.235678,64.7871892 36.4747707,64.5343434 36.7709961,64.3354492 C37.0672215,64.136555 37.4047019,63.9884445 37.7834473,63.8911133 C38.1621926,63.7937821 38.5483379,63.7451172 38.9418945,63.7451172 C39.8390344,63.7451172 40.4928365,63.8530263 40.9033203,64.0688477 L40.9033203,65.2685547 C40.3658827,64.896157 39.676111,64.7099609 38.8339844,64.7099609 C38.6012358,64.7099609 38.3684907,64.7342934 38.1357422,64.782959 C37.9029936,64.8316246 37.6956389,64.9109695 37.5136719,65.0209961 C37.3317048,65.1310227 37.1835943,65.2727856 37.0693359,65.4462891 C36.9550776,65.6197925 36.8979492,65.831379 36.8979492,66.0810547 C36.8979492,66.3138032 36.9413244,66.5148104 37.0280762,66.684082 C37.1148279,66.8533537 37.2428377,67.0078118 37.4121094,67.1474609 C37.5813811,67.2871101 37.7876778,67.4225254 38.0310059,67.5537109 C38.2743339,67.6848965 38.5546859,67.8287753 38.8720703,67.9853516 C39.1979183,68.1461597 39.5068345,68.3154288 39.7988281,68.4931641 C40.0908218,68.6708993 40.3468413,68.8676747 40.5668945,69.0834961 C40.7869477,69.2993175 40.9615065,69.5384101 41.0905762,69.8007812 C41.2196458,70.0631524 41.2841797,70.3636051 41.2841797,70.7021484 C41.2841797,71.1507184 41.1963713,71.530516 41.020752,71.8415527 C40.8451326,72.1525894 40.6081558,72.4054352 40.3098145,72.6000977 C40.0114731,72.7947601 39.6676452,72.9354651 39.2783203,73.0222168 C38.8889954,73.1089685 38.4785178,73.1523438 38.046875,73.1523438 C37.9029941,73.1523438 37.7252615,73.1407065 37.5136719,73.1174316 C37.3020823,73.0941568 37.0862641,73.060303 36.8662109,73.0158691 C36.6461578,72.9714353 36.4377451,72.9164229 36.2409668,72.8508301 C36.0441885,72.7852373 35.8865566,72.71224 35.7680664,72.6318359 Z M48.3554688,73 L47.3144531,73 L47.3144531,69.2548828 C47.3144531,67.9007094 46.8108774,67.2236328 45.8037109,67.2236328 C45.2958959,67.2236328 44.8684913,67.4193503 44.5214844,67.810791 C44.1744774,68.2022318 44.0009766,68.7047495 44.0009766,69.3183594 L44.0009766,73 L42.9599609,73 L42.9599609,63.3769531 L44.0009766,63.3769531 L44.0009766,67.5791016 L44.0263672,67.5791016 C44.5257186,66.7581339 45.236649,66.3476562 46.1591797,66.3476562 C47.6233797,66.3476562 48.3554688,67.2299716 48.3554688,68.9946289 L48.3554688,73 Z M53.0336914,73.1523438 C52.0730746,73.1523438 51.3060738,72.8487172 50.732666,72.2414551 C50.1592582,71.6341929 49.8725586,70.8291066 49.8725586,69.8261719 C49.8725586,68.7343695 50.1708955,67.8816762 50.7675781,67.2680664 C51.3642608,66.6544566 52.1704051,66.3476562 53.1860352,66.3476562 C54.1551155,66.3476562 54.911537,66.6459931 55.4553223,67.2426758 C55.9991075,67.8393585 56.2709961,68.6666614 56.2709961,69.7246094 C56.2709961,70.7613984 55.9779489,71.5918751 55.3918457,72.2160645 C54.8057425,72.8402538 54.0196989,73.1523438 53.0336914,73.1523438 Z M53.1098633,67.2236328 C52.4412401,67.2236328 51.9122741,67.4510882 51.5229492,67.9060059 C51.1336244,68.3609235 50.9389648,68.9882773 50.9389648,69.7880859 C50.9389648,70.5582721 51.1357402,71.1655251 51.5292969,71.6098633 C51.9228535,72.0542014 52.4497037,72.2763672 53.1098633,72.2763672 C53.7827182,72.2763672 54.300047,72.0584332 54.6618652,71.6225586 C55.0236834,71.186684 55.2045898,70.5667358 55.2045898,69.7626953 C55.2045898,68.9501913 55.0236834,68.3238954 54.6618652,67.8837891 C54.300047,67.4436827 53.7827182,67.2236328 53.1098633,67.2236328 Z M66.1225586,66.5 L64.1738281,73 L63.0947266,73 L61.7553711,68.347168 C61.7045896,68.1694327 61.6707358,67.9684256 61.6538086,67.7441406 L61.628418,67.7441406 C61.6157226,67.8964851 61.5712894,68.0932605 61.4951172,68.3344727 L60.0415039,73 L59.0004883,73 L57.0327148,66.5 L58.1245117,66.5 L59.4702148,71.3876953 C59.5125328,71.535808 59.5421549,71.7304675 59.559082,71.9716797 L59.6098633,71.9716797 C59.6225587,71.7854808 59.6606442,71.5865896 59.7241211,71.375 L61.222168,66.5 L62.1743164,66.5 L63.5200195,71.4003906 C63.5623375,71.5569669 63.5940754,71.7516264 63.6152344,71.984375 L63.6660156,71.984375 C63.6744792,71.8193351 63.7104489,71.6246756 63.7739258,71.4003906 L65.0942383,66.5 L66.1225586,66.5 Z M76.0629883,66.5 L73.0732422,74.0410156 C72.5400364,75.3867255 71.7910204,76.0595703 70.8261719,76.0595703 C70.5553372,76.0595703 70.3289397,76.0320641 70.1469727,75.9770508 L70.1469727,75.0439453 C70.3712576,75.1201176 70.5764965,75.1582031 70.7626953,75.1582031 C71.2874375,75.1582031 71.6809883,74.8450552 71.9433594,74.21875 L72.4638672,72.9873047 L69.9248047,66.5 L71.0800781,66.5 L72.8383789,71.5019531 C72.8595379,71.56543 72.903971,71.7304674 72.9716797,71.9970703 L73.0097656,71.9970703 C73.0309246,71.8955073 73.0732419,71.7347016 73.1367188,71.5146484 L74.9838867,66.5 L76.0629883,66.5 Z M79.8969727,73.1523438 C78.9363559,73.1523438 78.1693551,72.8487172 77.5959473,72.2414551 C77.0225395,71.6341929 76.7358398,70.8291066 76.7358398,69.8261719 C76.7358398,68.7343695 77.0341767,67.8816762 77.6308594,67.2680664 C78.227542,66.6544566 79.0336863,66.3476562 80.0493164,66.3476562 C81.0183968,66.3476562 81.7748182,66.6459931 82.3186035,67.2426758 C82.8623888,67.8393585 83.1342773,68.6666614 83.1342773,69.7246094 C83.1342773,70.7613984 82.8412301,71.5918751 82.255127,72.2160645 C81.6690238,72.8402538 80.8829802,73.1523438 79.8969727,73.1523438 Z M79.9731445,67.2236328 C79.3045214,67.2236328 78.7755553,67.4510882 78.3862305,67.9060059 C77.9969056,68.3609235 77.8022461,68.9882773 77.8022461,69.7880859 C77.8022461,70.5582721 77.9990215,71.1655251 78.3925781,71.6098633 C78.7861348,72.0542014 79.312985,72.2763672 79.9731445,72.2763672 C80.6459995,72.2763672 81.1633283,72.0584332 81.5251465,71.6225586 C81.8869647,71.186684 82.0678711,70.5667358 82.0678711,69.7626953 C82.0678711,68.9501913 81.8869647,68.3238954 81.5251465,67.8837891 C81.1633283,67.4436827 80.6459995,67.2236328 79.9731445,67.2236328 Z M90.0532227,73 L89.012207,73 L89.012207,71.9716797 L88.9868164,71.9716797 C88.5551736,72.758793 87.8865605,73.1523438 86.980957,73.1523438 C85.4321212,73.1523438 84.6577148,72.2298269 84.6577148,70.3847656 L84.6577148,66.5 L85.6923828,66.5 L85.6923828,70.2197266 C85.6923828,71.5908272 86.2171171,72.2763672 87.2666016,72.2763672 C87.7744166,72.2763672 88.1922998,72.0891132 88.5202637,71.7145996 C88.8482276,71.340086 89.012207,70.8502634 89.012207,70.2451172 L89.012207,66.5 L90.0532227,66.5 L90.0532227,73 Z M95.5439453,67.5537109 C95.3619783,67.4140618 95.0996111,67.3442383 94.7568359,67.3442383 C94.3124978,67.3442383 93.9411636,67.5537088 93.6428223,67.9726562 C93.3444809,68.3916037 93.1953125,68.962887 93.1953125,69.6865234 L93.1953125,73 L92.1542969,73 L92.1542969,66.5 L93.1953125,66.5 L93.1953125,67.8393555 L93.2207031,67.8393555 C93.3688158,67.3823219 93.5952133,67.0257988 93.8999023,66.7697754 C94.2045914,66.513752 94.5452455,66.3857422 94.921875,66.3857422 C95.1927097,66.3857422 95.4000644,66.4153643 95.5439453,66.4746094 L95.5439453,67.5537109 Z M108.42334,66.5 L106.474609,73 L105.395508,73 L104.056152,68.347168 C104.005371,68.1694327 103.971517,67.9684256 103.95459,67.7441406 L103.929199,67.7441406 C103.916504,67.8964851 103.872071,68.0932605 103.795898,68.3344727 L102.342285,73 L101.30127,73 L99.3334961,66.5 L100.425293,66.5 L101.770996,71.3876953 C101.813314,71.535808 101.842936,71.7304675 101.859863,71.9716797 L101.910645,71.9716797 C101.92334,71.7854808 101.961425,71.5865896 102.024902,71.375 L103.522949,66.5 L104.475098,66.5 L105.820801,71.4003906 C105.863119,71.5569669 105.894857,71.7516264 105.916016,71.984375 L105.966797,71.984375 C105.97526,71.8193351 106.01123,71.6246756 106.074707,71.4003906 L107.39502,66.5 L108.42334,66.5 Z M110.162598,64.8496094 C109.976399,64.8496094 109.817709,64.7861334 109.686523,64.6591797 C109.555338,64.5322259 109.489746,64.3714202 109.489746,64.1767578 C109.489746,63.9820954 109.555338,63.8202318 109.686523,63.6911621 C109.817709,63.5620925 109.976399,63.4975586 110.162598,63.4975586 C110.353028,63.4975586 110.514892,63.5620925 110.648193,63.6911621 C110.781495,63.8202318 110.848145,63.9820954 110.848145,64.1767578 C110.848145,64.3629567 110.781495,64.5216465 110.648193,64.652832 C110.514892,64.7840176 110.353028,64.8496094 110.162598,64.8496094 Z M110.67041,73 L109.629395,73 L109.629395,66.5 L110.67041,66.5 L110.67041,73 Z M118.17334,73 L117.132324,73 L117.132324,69.2929688 C117.132324,67.9134046 116.628749,67.2236328 115.621582,67.2236328 C115.101072,67.2236328 114.670493,67.4193503 114.329834,67.810791 C113.989175,68.2022318 113.818848,68.6962861 113.818848,69.2929688 L113.818848,73 L112.777832,73 L112.777832,66.5 L113.818848,66.5 L113.818848,67.5791016 L113.844238,67.5791016 C114.335126,66.7581339 115.046057,66.3476562 115.977051,66.3476562 C116.687992,66.3476562 117.231769,66.5772275 117.608398,67.036377 C117.985028,67.4955264 118.17334,68.1588498 118.17334,69.0263672 L118.17334,73 Z M125.682617,73 L124.641602,73 L124.641602,71.8955078 L124.616211,71.8955078 C124.133787,72.7334026 123.389002,73.1523438 122.381836,73.1523438 C121.5651,73.1523438 120.912356,72.8614124 120.423584,72.279541 C119.934812,71.6976696 119.69043,70.9052785 119.69043,69.9023438 C119.69043,68.8274686 119.96126,67.9663118 120.50293,67.3188477 C121.044599,66.6713835 121.766109,66.3476562 122.66748,66.3476562 C123.560389,66.3476562 124.209959,66.6988897 124.616211,67.4013672 L124.641602,67.4013672 L124.641602,63.3769531 L125.682617,63.3769531 L125.682617,73 Z M124.641602,70.0610352 L124.641602,69.1025391 C124.641602,68.5777969 124.468101,68.1334654 124.121094,67.7695312 C123.774087,67.4055971 123.333987,67.2236328 122.800781,67.2236328 C122.166012,67.2236328 121.666668,67.4563779 121.302734,67.921875 C120.9388,68.3873721 120.756836,69.0305949 120.756836,69.8515625 C120.756836,70.6005897 120.931395,71.1919737 121.280518,71.6257324 C121.62964,72.0594911 122.098304,72.2763672 122.686523,72.2763672 C123.266279,72.2763672 123.737059,72.0668966 124.098877,71.6479492 C124.460695,71.2290018 124.641602,70.7000357 124.641602,70.0610352 Z M130.506836,73.1523438 C129.546219,73.1523438 128.779218,72.8487172 128.205811,72.2414551 C127.632403,71.6341929 127.345703,70.8291066 127.345703,69.8261719 C127.345703,68.7343695 127.64404,67.8816762 128.240723,67.2680664 C128.837405,66.6544566 129.64355,66.3476562 130.65918,66.3476562 C131.62826,66.3476562 132.384682,66.6459931 132.928467,67.2426758 C133.472252,67.8393585 133.744141,68.6666614 133.744141,69.7246094 C133.744141,70.7613984 133.451093,71.5918751 132.86499,72.2160645 C132.278887,72.8402538 131.492843,73.1523438 130.506836,73.1523438 Z M130.583008,67.2236328 C129.914385,67.2236328 129.385419,67.4510882 128.996094,67.9060059 C128.606769,68.3609235 128.412109,68.9882773 128.412109,69.7880859 C128.412109,70.5582721 128.608885,71.1655251 129.002441,71.6098633 C129.395998,72.0542014 129.922848,72.2763672 130.583008,72.2763672 C131.255863,72.2763672 131.773192,72.0584332 132.13501,71.6225586 C132.496828,71.186684 132.677734,70.5667358 132.677734,69.7626953 C132.677734,68.9501913 132.496828,68.3238954 132.13501,67.8837891 C131.773192,67.4436827 131.255863,67.2236328 130.583008,67.2236328 Z M143.595703,66.5 L141.646973,73 L140.567871,73 L139.228516,68.347168 C139.177734,68.1694327 139.14388,67.9684256 139.126953,67.7441406 L139.101562,67.7441406 C139.088867,67.8964851 139.044434,68.0932605 138.968262,68.3344727 L137.514648,73 L136.473633,73 L134.505859,66.5 L135.597656,66.5 L136.943359,71.3876953 C136.985677,71.535808 137.015299,71.7304675 137.032227,71.9716797 L137.083008,71.9716797 C137.095703,71.7854808 137.133789,71.5865896 137.197266,71.375 L138.695312,66.5 L139.647461,66.5 L140.993164,71.4003906 C141.035482,71.5569669 141.06722,71.7516264 141.088379,71.984375 L141.13916,71.984375 C141.147624,71.8193351 141.183593,71.6246756 141.24707,71.4003906 L142.567383,66.5 L143.595703,66.5 Z M144.408203,72.7651367 L144.408203,71.6479492 C144.975263,72.0668966 145.599443,72.2763672 146.280762,72.2763672 C147.194829,72.2763672 147.651855,71.9716827 147.651855,71.3623047 C147.651855,71.1888012 147.612712,71.0417486 147.534424,70.9211426 C147.456136,70.8005365 147.350342,70.6936854 147.217041,70.6005859 C147.08374,70.5074865 146.927166,70.4239099 146.747314,70.3498535 C146.567463,70.2757972 146.373862,70.1985681 146.166504,70.1181641 C145.878742,70.0039057 145.625896,69.8885911 145.407959,69.7722168 C145.190022,69.6558425 145.008057,69.5246589 144.862061,69.3786621 C144.716064,69.2326653 144.606039,69.0665699 144.531982,68.8803711 C144.457926,68.6941722 144.420898,68.4762382 144.420898,68.2265625 C144.420898,67.9218735 144.490722,67.6521008 144.630371,67.4172363 C144.77002,67.1823719 144.956216,66.9855965 145.188965,66.8269043 C145.421713,66.6682121 145.687254,66.5486658 145.985596,66.4682617 C146.283937,66.3878577 146.591795,66.3476562 146.90918,66.3476562 C147.472008,66.3476562 147.975584,66.444986 148.419922,66.6396484 L148.419922,67.6933594 C147.941729,67.3802068 147.391605,67.2236328 146.769531,67.2236328 C146.574869,67.2236328 146.399252,67.2458494 146.242676,67.2902832 C146.086099,67.334717 145.951742,67.397135 145.8396,67.4775391 C145.727457,67.5579431 145.640707,67.6542149 145.579346,67.7663574 C145.517985,67.8784999 145.487305,68.002278 145.487305,68.1376953 C145.487305,68.306967 145.517985,68.4487299 145.579346,68.5629883 C145.640707,68.6772467 145.730631,68.7788081 145.849121,68.8676758 C145.967611,68.9565434 146.11149,69.0369463 146.280762,69.1088867 C146.450033,69.1808272 146.642577,69.2591142 146.858398,69.34375 C147.14616,69.4537766 147.404296,69.5669753 147.632812,69.6833496 C147.861329,69.7997239 148.055989,69.9309075 148.216797,70.0769043 C148.377605,70.2229011 148.501383,70.3911123 148.588135,70.581543 C148.674887,70.7719736 148.718262,70.9983711 148.718262,71.2607422 C148.718262,71.5823584 148.64738,71.8616525 148.505615,72.0986328 C148.36385,72.3356132 148.17448,72.5323885 147.9375,72.6889648 C147.70052,72.8455411 147.427573,72.9619137 147.118652,73.0380859 C146.809732,73.1142582 146.486004,73.1523438 146.147461,73.1523438 C145.478838,73.1523438 144.899091,73.023276 144.408203,72.7651367 Z M158.531738,73 L157.490723,73 L157.490723,71.984375 L157.465332,71.984375 C157.01253,72.7630247 156.346033,73.1523438 155.46582,73.1523438 C154.818356,73.1523438 154.311607,72.9809587 153.945557,72.6381836 C153.579507,72.2954084 153.396484,71.8404976 153.396484,71.2734375 C153.396484,70.0589132 154.111646,69.3522145 155.541992,69.1533203 L157.490723,68.8803711 C157.490723,67.7758734 157.044275,67.2236328 156.151367,67.2236328 C155.368486,67.2236328 154.661787,67.4902317 154.03125,68.0234375 L154.03125,66.9570312 C154.670251,66.5507792 155.406571,66.3476562 156.240234,66.3476562 C157.767911,66.3476562 158.531738,67.1559164 158.531738,68.7724609 L158.531738,73 Z M157.490723,69.7119141 L155.922852,69.9277344 C155.440427,69.995443 155.076499,70.1149894 154.831055,70.286377 C154.585611,70.4577645 154.462891,70.761391 154.462891,71.1972656 C154.462891,71.51465 154.576089,71.7738434 154.80249,71.9748535 C155.028891,72.1758636 155.330402,72.2763672 155.707031,72.2763672 C156.22331,72.2763672 156.649657,72.0954608 156.986084,71.7336426 C157.322511,71.3718244 157.490723,70.9137398 157.490723,70.359375 L157.490723,69.7119141 Z M165.888672,73 L164.847656,73 L164.847656,69.2929688 C164.847656,67.9134046 164.344081,67.2236328 163.336914,67.2236328 C162.816404,67.2236328 162.385825,67.4193503 162.045166,67.810791 C161.704507,68.2022318 161.53418,68.6962861 161.53418,69.2929688 L161.53418,73 L160.493164,73 L160.493164,66.5 L161.53418,66.5 L161.53418,67.5791016 L161.55957,67.5791016 C162.050458,66.7581339 162.761389,66.3476562 163.692383,66.3476562 C164.403324,66.3476562 164.947101,66.5772275 165.32373,67.036377 C165.70036,67.4955264 165.888672,68.1588498 165.888672,69.0263672 L165.888672,73 Z M173.397949,73 L172.356934,73 L172.356934,71.8955078 L172.331543,71.8955078 C171.849119,72.7334026 171.104334,73.1523438 170.097168,73.1523438 C169.280432,73.1523438 168.627688,72.8614124 168.138916,72.279541 C167.650144,71.6976696 167.405762,70.9052785 167.405762,69.9023438 C167.405762,68.8274686 167.676592,67.9663118 168.218262,67.3188477 C168.759931,66.6713835 169.481441,66.3476562 170.382812,66.3476562 C171.275721,66.3476562 171.925291,66.6988897 172.331543,67.4013672 L172.356934,67.4013672 L172.356934,63.3769531 L173.397949,63.3769531 L173.397949,73 Z M172.356934,70.0610352 L172.356934,69.1025391 C172.356934,68.5777969 172.183433,68.1334654 171.836426,67.7695312 C171.489419,67.4055971 171.049319,67.2236328 170.516113,67.2236328 C169.881344,67.2236328 169.382001,67.4563779 169.018066,67.921875 C168.654132,68.3873721 168.472168,69.0305949 168.472168,69.8515625 C168.472168,70.6005897 168.646727,71.1919737 168.99585,71.6257324 C169.344972,72.0594911 169.813636,72.2763672 170.401855,72.2763672 C170.981611,72.2763672 171.452391,72.0668966 171.814209,71.6479492 C172.176027,71.2290018 172.356934,70.7000357 172.356934,70.0610352 Z M182.081543,72.9365234 C181.836099,73.0719408 181.512372,73.1396484 181.110352,73.1396484 C179.972,73.1396484 179.402832,72.5048892 179.402832,71.2353516 L179.402832,67.3886719 L178.285645,67.3886719 L178.285645,66.5 L179.402832,66.5 L179.402832,64.9130859 L180.443848,64.5766602 L180.443848,66.5 L182.081543,66.5 L182.081543,67.3886719 L180.443848,67.3886719 L180.443848,71.0512695 C180.443848,71.4871441 180.517903,71.7981762 180.666016,71.984375 C180.814128,72.1705738 181.059569,72.2636719 181.402344,72.2636719 C181.664715,72.2636719 181.891112,72.1917325 182.081543,72.0478516 L182.081543,72.9365234 Z M188.124512,73 L187.083496,73 L187.083496,71.984375 L187.058105,71.984375 C186.605304,72.7630247 185.938806,73.1523438 185.058594,73.1523438 C184.41113,73.1523438 183.90438,72.9809587 183.53833,72.6381836 C183.17228,72.2954084 182.989258,71.8404976 182.989258,71.2734375 C182.989258,70.0589132 183.70442,69.3522145 185.134766,69.1533203 L187.083496,68.8803711 C187.083496,67.7758734 186.637049,67.2236328 185.744141,67.2236328 C184.961259,67.2236328 184.25456,67.4902317 183.624023,68.0234375 L183.624023,66.9570312 C184.263024,66.5507792 184.999345,66.3476562 185.833008,66.3476562 C187.360685,66.3476562 188.124512,67.1559164 188.124512,68.7724609 L188.124512,73 Z M187.083496,69.7119141 L185.515625,69.9277344 C185.033201,69.995443 184.669272,70.1149894 184.423828,70.286377 C184.178384,70.4577645 184.055664,70.761391 184.055664,71.1972656 C184.055664,71.51465 184.168863,71.7738434 184.395264,71.9748535 C184.621665,72.1758636 184.923175,72.2763672 185.299805,72.2763672 C185.816083,72.2763672 186.24243,72.0954608 186.578857,71.7336426 C186.915285,71.3718244 187.083496,70.9137398 187.083496,70.359375 L187.083496,69.7119141 Z M191.152344,72.0605469 L191.126953,72.0605469 L191.126953,73 L190.085938,73 L190.085938,63.3769531 L191.126953,63.3769531 L191.126953,67.6425781 L191.152344,67.6425781 C191.664391,66.7792926 192.413407,66.3476562 193.399414,66.3476562 C194.233077,66.3476562 194.885821,66.6385876 195.357666,67.220459 C195.829511,67.8023304 196.06543,68.5820264 196.06543,69.5595703 C196.06543,70.6471409 195.800947,71.517819 195.271973,72.1716309 C194.742999,72.8254427 194.019373,73.1523438 193.101074,73.1523438 C192.24202,73.1523438 191.59245,72.7884151 191.152344,72.0605469 Z M191.126953,69.4389648 L191.126953,70.3466797 C191.126953,70.8841173 191.301512,71.340086 191.650635,71.7145996 C191.999758,72.0891132 192.443031,72.2763672 192.980469,72.2763672 C193.611006,72.2763672 194.10506,72.0351587 194.462646,71.5527344 C194.820233,71.0703101 194.999023,70.3995811 194.999023,69.5405273 C194.999023,68.8168909 194.83187,68.2498393 194.497559,67.8393555 C194.163247,67.4288716 193.710452,67.2236328 193.13916,67.2236328 C192.534014,67.2236328 192.047365,67.4341613 191.679199,67.8552246 C191.311033,68.2762879 191.126953,68.804196 191.126953,69.4389648 Z M197.334961,72.7651367 L197.334961,71.6479492 C197.902021,72.0668966 198.526201,72.2763672 199.20752,72.2763672 C200.121587,72.2763672 200.578613,71.9716827 200.578613,71.3623047 C200.578613,71.1888012 200.53947,71.0417486 200.461182,70.9211426 C200.382893,70.8005365 200.2771,70.6936854 200.143799,70.6005859 C200.010497,70.5074865 199.853923,70.4239099 199.674072,70.3498535 C199.494221,70.2757972 199.30062,70.1985681 199.093262,70.1181641 C198.8055,70.0039057 198.552654,69.8885911 198.334717,69.7722168 C198.11678,69.6558425 197.934815,69.5246589 197.788818,69.3786621 C197.642822,69.2326653 197.532797,69.0665699 197.45874,68.8803711 C197.384684,68.6941722 197.347656,68.4762382 197.347656,68.2265625 C197.347656,67.9218735 197.41748,67.6521008 197.557129,67.4172363 C197.696778,67.1823719 197.882974,66.9855965 198.115723,66.8269043 C198.348471,66.6682121 198.614012,66.5486658 198.912354,66.4682617 C199.210695,66.3878577 199.518553,66.3476562 199.835938,66.3476562 C200.398766,66.3476562 200.902342,66.444986 201.34668,66.6396484 L201.34668,67.6933594 C200.868487,67.3802068 200.318362,67.2236328 199.696289,67.2236328 C199.501627,67.2236328 199.32601,67.2458494 199.169434,67.2902832 C199.012857,67.334717 198.8785,67.397135 198.766357,67.4775391 C198.654215,67.5579431 198.567464,67.6542149 198.506104,67.7663574 C198.444743,67.8784999 198.414063,68.002278 198.414063,68.1376953 C198.414063,68.306967 198.444743,68.4487299 198.506104,68.5629883 C198.567464,68.6772467 198.657389,68.7788081 198.775879,68.8676758 C198.894369,68.9565434 199.038248,69.0369463 199.20752,69.1088867 C199.376791,69.1808272 199.569335,69.2591142 199.785156,69.34375 C200.072918,69.4537766 200.331054,69.5669753 200.55957,69.6833496 C200.788087,69.7997239 200.982747,69.9309075 201.143555,70.0769043 C201.304363,70.2229011 201.428141,70.3911123 201.514893,70.581543 C201.601644,70.7719736 201.64502,70.9983711 201.64502,71.2607422 C201.64502,71.5823584 201.574138,71.8616525 201.432373,72.0986328 C201.290608,72.3356132 201.101238,72.5323885 200.864258,72.6889648 C200.627277,72.8455411 200.354331,72.9619137 200.04541,73.0380859 C199.736489,73.1142582 199.412762,73.1523438 199.074219,73.1523438 C198.405596,73.1523438 197.825849,73.023276 197.334961,72.7651367 Z M210.017578,64.2910156 C209.814452,64.1767572 209.583823,64.1196289 209.325684,64.1196289 C208.597815,64.1196289 208.233887,64.5787715 208.233887,65.4970703 L208.233887,66.5 L209.757324,66.5 L209.757324,67.3886719 L208.233887,67.3886719 L208.233887,73 L207.199219,73 L207.199219,67.3886719 L206.088379,67.3886719 L206.088379,66.5 L207.199219,66.5 L207.199219,65.4462891 C207.199219,64.7649706 207.395994,64.2264831 207.789551,63.8308105 C208.183107,63.435138 208.673988,63.2373047 209.262207,63.2373047 C209.579591,63.2373047 209.831379,63.2753902 210.017578,63.3515625 L210.017578,64.2910156 Z M214.26416,67.5537109 C214.082193,67.4140618 213.819826,67.3442383 213.477051,67.3442383 C213.032713,67.3442383 212.661378,67.5537088 212.363037,67.9726562 C212.064696,68.3916037 211.915527,68.962887 211.915527,69.6865234 L211.915527,73 L210.874512,73 L210.874512,66.5 L211.915527,66.5 L211.915527,67.8393555 L211.940918,67.8393555 C212.089031,67.3823219 212.315428,67.0257988 212.620117,66.7697754 C212.924806,66.513752 213.26546,66.3857422 213.64209,66.3857422 C213.912925,66.3857422 214.120279,66.4153643 214.26416,66.4746094 L214.26416,67.5537109 Z M218.11084,73.1523438 C217.150223,73.1523438 216.383222,72.8487172 215.809814,72.2414551 C215.236407,71.6341929 214.949707,70.8291066 214.949707,69.8261719 C214.949707,68.7343695 215.248044,67.8816762 215.844727,67.2680664 C216.441409,66.6544566 217.247554,66.3476562 218.263184,66.3476562 C219.232264,66.3476562 219.988685,66.6459931 220.532471,67.2426758 C221.076256,67.8393585 221.348145,68.6666614 221.348145,69.7246094 C221.348145,70.7613984 221.055097,71.5918751 220.468994,72.2160645 C219.882891,72.8402538 219.096847,73.1523438 218.11084,73.1523438 Z M218.187012,67.2236328 C217.518389,67.2236328 216.989423,67.4510882 216.600098,67.9060059 C216.210773,68.3609235 216.016113,68.9882773 216.016113,69.7880859 C216.016113,70.5582721 216.212889,71.1655251 216.606445,71.6098633 C217.000002,72.0542014 217.526852,72.2763672 218.187012,72.2763672 C218.859867,72.2763672 219.377195,72.0584332 219.739014,71.6225586 C220.100832,71.186684 220.281738,70.5667358 220.281738,69.7626953 C220.281738,68.9501913 220.100832,68.3238954 219.739014,67.8837891 C219.377195,67.4436827 218.859867,67.2236328 218.187012,67.2236328 Z M232.240723,73 L231.199707,73 L231.199707,69.2675781 C231.199707,68.5481735 231.088624,68.0276709 230.866455,67.7060547 C230.644286,67.3844385 230.270836,67.2236328 229.746094,67.2236328 C229.301756,67.2236328 228.924074,67.4267558 228.613037,67.8330078 C228.302,68.2392598 228.146484,68.7259086 228.146484,69.2929688 L228.146484,73 L227.105469,73 L227.105469,69.140625 C227.105469,67.8626238 226.612472,67.2236328 225.626465,67.2236328 C225.169431,67.2236328 224.792807,67.4151185 224.496582,67.7980957 C224.200357,68.1810729 224.052246,68.6793589 224.052246,69.2929688 L224.052246,73 L223.01123,73 L223.01123,66.5 L224.052246,66.5 L224.052246,67.5283203 L224.077637,67.5283203 C224.538902,66.741207 225.211747,66.3476562 226.096191,66.3476562 C226.54053,66.3476562 226.927733,66.4714343 227.257813,66.7189941 C227.587892,66.966554 227.81429,67.2913391 227.937012,67.6933594 C228.419436,66.7962195 229.13883,66.3476562 230.095215,66.3476562 C231.525561,66.3476562 232.240723,67.2299716 232.240723,68.9946289 L232.240723,73 Z M238.810547,73 L237.769531,73 L237.769531,63.3769531 L238.810547,63.3769531 L238.810547,73 Z M245.570801,73 L244.529785,73 L244.529785,71.984375 L244.504395,71.984375 C244.051593,72.7630247 243.385096,73.1523438 242.504883,73.1523438 C241.857419,73.1523438 241.350669,72.9809587 240.984619,72.6381836 C240.618569,72.2954084 240.435547,71.8404976 240.435547,71.2734375 C240.435547,70.0589132 241.150709,69.3522145 242.581055,69.1533203 L244.529785,68.8803711 C244.529785,67.7758734 244.083338,67.2236328 243.19043,67.2236328 C242.407548,67.2236328 241.70085,67.4902317 241.070313,68.0234375 L241.070313,66.9570312 C241.709313,66.5507792 242.445634,66.3476562 243.279297,66.3476562 C244.806974,66.3476562 245.570801,67.1559164 245.570801,68.7724609 L245.570801,73 Z M244.529785,69.7119141 L242.961914,69.9277344 C242.47949,69.995443 242.115561,70.1149894 241.870117,70.286377 C241.624673,70.4577645 241.501953,70.761391 241.501953,71.1972656 C241.501953,71.51465 241.615152,71.7738434 241.841553,71.9748535 C242.067954,72.1758636 242.369464,72.2763672 242.746094,72.2763672 C243.262372,72.2763672 243.688719,72.0954608 244.025146,71.7336426 C244.361574,71.3718244 244.529785,70.9137398 244.529785,70.359375 L244.529785,69.7119141 Z M247.138672,72.7651367 L247.138672,71.6479492 C247.705732,72.0668966 248.329912,72.2763672 249.01123,72.2763672 C249.925298,72.2763672 250.382324,71.9716827 250.382324,71.3623047 C250.382324,71.1888012 250.343181,71.0417486 250.264893,70.9211426 C250.186604,70.8005365 250.080811,70.6936854 249.94751,70.6005859 C249.814208,70.5074865 249.657634,70.4239099 249.477783,70.3498535 C249.297932,70.2757972 249.10433,70.1985681 248.896973,70.1181641 C248.609211,70.0039057 248.356365,69.8885911 248.138428,69.7722168 C247.92049,69.6558425 247.738526,69.5246589 247.592529,69.3786621 C247.446532,69.2326653 247.336508,69.0665699 247.262451,68.8803711 C247.188395,68.6941722 247.151367,68.4762382 247.151367,68.2265625 C247.151367,67.9218735 247.221191,67.6521008 247.36084,67.4172363 C247.500489,67.1823719 247.686685,66.9855965 247.919434,66.8269043 C248.152182,66.6682121 248.417723,66.5486658 248.716064,66.4682617 C249.014406,66.3878577 249.322264,66.3476562 249.639648,66.3476562 C250.202477,66.3476562 250.706052,66.444986 251.150391,66.6396484 L251.150391,67.6933594 C250.672198,67.3802068 250.122073,67.2236328 249.5,67.2236328 C249.305338,67.2236328 249.129721,67.2458494 248.973145,67.2902832 C248.816568,67.334717 248.682211,67.397135 248.570068,67.4775391 C248.457926,67.5579431 248.371175,67.6542149 248.309814,67.7663574 C248.248453,67.8784999 248.217773,68.002278 248.217773,68.1376953 C248.217773,68.306967 248.248453,68.4487299 248.309814,68.5629883 C248.371175,68.6772467 248.4611,68.7788081 248.57959,68.8676758 C248.69808,68.9565434 248.841959,69.0369463 249.01123,69.1088867 C249.180502,69.1808272 249.373046,69.2591142 249.588867,69.34375 C249.876629,69.4537766 250.134764,69.5669753 250.363281,69.6833496 C250.591798,69.7997239 250.786458,69.9309075 250.947266,70.0769043 C251.108074,70.2229011 251.231852,70.3911123 251.318604,70.581543 C251.405355,70.7719736 251.44873,70.9983711 251.44873,71.2607422 C251.44873,71.5823584 251.377849,71.8616525 251.236084,72.0986328 C251.094319,72.3356132 250.904949,72.5323885 250.667969,72.6889648 C250.430988,72.8455411 250.158042,72.9619137 249.849121,73.0380859 C249.5402,73.1142582 249.216473,73.1523438 248.87793,73.1523438 C248.209307,73.1523438 247.62956,73.023276 247.138672,72.7651367 Z M256.063477,72.9365234 C255.818033,73.0719408 255.494305,73.1396484 255.092285,73.1396484 C253.953933,73.1396484 253.384766,72.5048892 253.384766,71.2353516 L253.384766,67.3886719 L252.267578,67.3886719 L252.267578,66.5 L253.384766,66.5 L253.384766,64.9130859 L254.425781,64.5766602 L254.425781,66.5 L256.063477,66.5 L256.063477,67.3886719 L254.425781,67.3886719 L254.425781,71.0512695 C254.425781,71.4871441 254.499836,71.7981762 254.647949,71.984375 C254.796062,72.1705738 255.041502,72.2636719 255.384277,72.2636719 C255.646648,72.2636719 255.873046,72.1917325 256.063477,72.0478516 L256.063477,72.9365234 Z M264.029785,72.9365234 C263.784341,73.0719408 263.460614,73.1396484 263.058594,73.1396484 C261.920242,73.1396484 261.351074,72.5048892 261.351074,71.2353516 L261.351074,67.3886719 L260.233887,67.3886719 L260.233887,66.5 L261.351074,66.5 L261.351074,64.9130859 L262.39209,64.5766602 L262.39209,66.5 L264.029785,66.5 L264.029785,67.3886719 L262.39209,67.3886719 L262.39209,71.0512695 C262.39209,71.4871441 262.466145,71.7981762 262.614258,71.984375 C262.762371,72.1705738 263.007811,72.2636719 263.350586,72.2636719 C263.612957,72.2636719 263.839355,72.1917325 264.029785,72.0478516 L264.029785,72.9365234 Z M265.953125,64.8496094 C265.766926,64.8496094 265.608236,64.7861334 265.477051,64.6591797 C265.345865,64.5322259 265.280273,64.3714202 265.280273,64.1767578 C265.280273,63.9820954 265.345865,63.8202318 265.477051,63.6911621 C265.608236,63.5620925 265.766926,63.4975586 265.953125,63.4975586 C266.143556,63.4975586 266.305419,63.5620925 266.438721,63.6911621 C266.572022,63.8202318 266.638672,63.9820954 266.638672,64.1767578 C266.638672,64.3629567 266.572022,64.5216465 266.438721,64.652832 C266.305419,64.7840176 266.143556,64.8496094 265.953125,64.8496094 Z M266.460938,73 L265.419922,73 L265.419922,66.5 L266.460938,66.5 L266.460938,73 Z M277.797852,73 L276.756836,73 L276.756836,69.2675781 C276.756836,68.5481735 276.645753,68.0276709 276.423584,67.7060547 C276.201415,67.3844385 275.827965,67.2236328 275.303223,67.2236328 C274.858884,67.2236328 274.481203,67.4267558 274.170166,67.8330078 C273.859129,68.2392598 273.703613,68.7259086 273.703613,69.2929688 L273.703613,73 L272.662598,73 L272.662598,69.140625 C272.662598,67.8626238 272.169601,67.2236328 271.183594,67.2236328 C270.72656,67.2236328 270.349936,67.4151185 270.053711,67.7980957 C269.757485,68.1810729 269.609375,68.6793589 269.609375,69.2929688 L269.609375,73 L268.568359,73 L268.568359,66.5 L269.609375,66.5 L269.609375,67.5283203 L269.634766,67.5283203 C270.096031,66.741207 270.768876,66.3476562 271.65332,66.3476562 C272.097658,66.3476562 272.484862,66.4714343 272.814941,66.7189941 C273.145021,66.966554 273.371419,67.2913391 273.494141,67.6933594 C273.976565,66.7962195 274.695959,66.3476562 275.652344,66.3476562 C277.082689,66.3476562 277.797852,67.2299716 277.797852,68.9946289 L277.797852,73 Z M284.989746,70.0102539 L280.400391,70.0102539 C280.417318,70.7338903 280.611977,71.2924785 280.984375,71.6860352 C281.356773,72.0795918 281.868812,72.2763672 282.520508,72.2763672 C283.252608,72.2763672 283.925453,72.0351587 284.539062,71.5527344 L284.539062,72.5302734 C283.967771,72.9449891 283.212407,73.1523438 282.272949,73.1523438 C281.35465,73.1523438 280.633141,72.8571807 280.108398,72.2668457 C279.583656,71.6765107 279.321289,70.846034 279.321289,69.7753906 C279.321289,68.7639923 279.607989,67.9398632 280.181396,67.3029785 C280.754804,66.6660938 281.466793,66.3476562 282.317383,66.3476562 C283.167973,66.3476562 283.826007,66.6227186 284.291504,67.1728516 C284.757001,67.7229845 284.989746,68.4868115 284.989746,69.4643555 L284.989746,70.0102539 Z M283.92334,69.1279297 C283.919108,68.5270152 283.774171,68.0594092 283.488525,67.7250977 C283.202879,67.3907861 282.806155,67.2236328 282.29834,67.2236328 C281.807452,67.2236328 281.390627,67.3992495 281.047852,67.7504883 C280.705076,68.101727 280.49349,68.5608696 280.413086,69.1279297 L283.92334,69.1279297 Z"/>
    <use fill="#0C0C0D" fill-opacity=".1" xlink:href="#radiobutton-single-dont-a"/>
    <rect width="19" height="19" x="13.5" y="58.5" rx="7"/>
    <rect width="15" height="15" x="15.5" y="60.5" stroke="#0C0C0D" stroke-opacity=".3" rx="7"/>
    <path fill="#000" d="M26.984375,39.8974609 L24.4135742,49 L23.1630859,49 L21.2905273,42.3476562 C21.2101233,42.0641262 21.1614584,41.75521 21.1445312,41.4208984 L21.1191406,41.4208984 C21.0937499,41.734051 21.0387374,42.0387355 20.9541016,42.3349609 L19.0688477,49 L17.8310547,49 L15.1650391,39.8974609 L16.3393555,39.8974609 L18.2753906,46.8798828 C18.3557947,47.1718765 18.4065754,47.4765609 18.4277344,47.7939453 L18.4594727,47.7939453 C18.4806316,47.5696603 18.5462234,47.2649759 18.65625,46.8798828 L20.668457,39.8974609 L21.6904297,39.8974609 L23.6201172,46.9306641 C23.6878259,47.1718762 23.7386066,47.455402 23.7724609,47.78125 L23.7978516,47.78125 C23.8147787,47.5611968 23.8719071,47.2692075 23.9692383,46.9052734 L25.8291016,39.8974609 L26.984375,39.8974609 Z M33.5922852,49 L32.5512695,49 L32.5512695,45.2548828 C32.5512695,43.9007094 32.0476938,43.2236328 31.0405273,43.2236328 C30.5327123,43.2236328 30.1053077,43.4193503 29.7583008,43.810791 C29.4112938,44.2022318 29.237793,44.7047495 29.237793,45.3183594 L29.237793,49 L28.1967773,49 L28.1967773,39.3769531 L29.237793,39.3769531 L29.237793,43.5791016 L29.2631836,43.5791016 C29.762535,42.7581339 30.4734654,42.3476562 31.3959961,42.3476562 C32.8601961,42.3476562 33.5922852,43.2299716 33.5922852,44.9946289 L33.5922852,49 Z M40.777832,46.0102539 L36.1884766,46.0102539 C36.2054037,46.7338903 36.4000632,47.2924785 36.7724609,47.6860352 C37.1448586,48.0795918 37.6568978,48.2763672 38.3085938,48.2763672 C39.0406938,48.2763672 39.7135386,48.0351587 40.3271484,47.5527344 L40.3271484,48.5302734 C39.7558565,48.9449891 39.000493,49.1523438 38.0610352,49.1523438 C37.1427363,49.1523438 36.4212266,48.8571807 35.8964844,48.2668457 C35.3717422,47.6765107 35.109375,46.846034 35.109375,45.7753906 C35.109375,44.7639923 35.3960746,43.9398632 35.9694824,43.3029785 C36.5428902,42.6660938 37.2548786,42.3476562 38.1054688,42.3476562 C38.9560589,42.3476562 39.6140927,42.6227186 40.0795898,43.1728516 C40.545087,43.7229845 40.777832,44.4868115 40.777832,45.4643555 L40.777832,46.0102539 Z M39.7114258,45.1279297 C39.707194,44.5270152 39.5622573,44.0594092 39.2766113,43.7250977 C38.9909654,43.3907861 38.5942408,43.2236328 38.0864258,43.2236328 C37.5955379,43.2236328 37.1787127,43.3992495 36.8359375,43.7504883 C36.4931623,44.101727 36.2815759,44.5608696 36.2011719,45.1279297 L39.7114258,45.1279297 Z M47.7475586,49 L46.706543,49 L46.706543,45.2929688 C46.706543,43.9134046 46.2029673,43.2236328 45.1958008,43.2236328 C44.6752904,43.2236328 44.244712,43.4193503 43.9040527,43.810791 C43.5633935,44.2022318 43.3930664,44.6962861 43.3930664,45.2929688 L43.3930664,49 L42.3520508,49 L42.3520508,42.5 L43.3930664,42.5 L43.3930664,43.5791016 L43.418457,43.5791016 C43.9093449,42.7581339 44.6202753,42.3476562 45.5512695,42.3476562 C46.2622106,42.3476562 46.8059877,42.5772275 47.1826172,43.036377 C47.5592467,43.4955264 47.7475586,44.1588498 47.7475586,45.0263672 L47.7475586,49 Z M58.0307617,40.8623047 L54.4760742,40.8623047 L54.4760742,44.0107422 L57.7641602,44.0107422 L57.7641602,44.9692383 L54.4760742,44.9692383 L54.4760742,49 L53.409668,49 L53.409668,39.8974609 L58.0307617,39.8974609 L58.0307617,40.8623047 Z M60.1508789,40.8496094 C59.9646801,40.8496094 59.8059902,40.7861334 59.6748047,40.6591797 C59.5436191,40.5322259 59.4780273,40.3714202 59.4780273,40.1767578 C59.4780273,39.9820954 59.5436191,39.8202318 59.6748047,39.6911621 C59.8059902,39.5620925 59.9646801,39.4975586 60.1508789,39.4975586 C60.3413095,39.4975586 60.5031732,39.5620925 60.6364746,39.6911621 C60.7697761,39.8202318 60.8364258,39.9820954 60.8364258,40.1767578 C60.8364258,40.3629567 60.7697761,40.5216465 60.6364746,40.652832 C60.5031732,40.7840176 60.3413095,40.8496094 60.1508789,40.8496094 Z M60.6586914,49 L59.6176758,49 L59.6176758,42.5 L60.6586914,42.5 L60.6586914,49 Z M66.1557617,43.5537109 C65.9737947,43.4140618 65.7114275,43.3442383 65.3686523,43.3442383 C64.9243142,43.3442383 64.55298,43.5537088 64.2546387,43.9726562 C63.9562973,44.3916037 63.8071289,44.962887 63.8071289,45.6865234 L63.8071289,49 L62.7661133,49 L62.7661133,42.5 L63.8071289,42.5 L63.8071289,43.8393555 L63.8325195,43.8393555 C63.9806323,43.3823219 64.2070297,43.0257988 64.5117188,42.7697754 C64.8164078,42.513752 65.1570619,42.3857422 65.5336914,42.3857422 C65.8045261,42.3857422 66.0118808,42.4153643 66.1557617,42.4746094 L66.1557617,43.5537109 Z M72.5097656,46.0102539 L67.9204102,46.0102539 C67.9373373,46.7338903 68.1319968,47.2924785 68.5043945,47.6860352 C68.8767922,48.0795918 69.3888314,48.2763672 70.0405273,48.2763672 C70.7726274,48.2763672 71.4454722,48.0351587 72.059082,47.5527344 L72.059082,48.5302734 C71.4877901,48.9449891 70.7324266,49.1523438 69.7929688,49.1523438 C68.8746699,49.1523438 68.1531602,48.8571807 67.628418,48.2668457 C67.1036758,47.6765107 66.8413086,46.846034 66.8413086,45.7753906 C66.8413086,44.7639923 67.1280082,43.9398632 67.701416,43.3029785 C68.2748238,42.6660938 68.9868122,42.3476562 69.8374023,42.3476562 C70.6879925,42.3476562 71.3460263,42.6227186 71.8115234,43.1728516 C72.2770206,43.7229845 72.5097656,44.4868115 72.5097656,45.4643555 L72.5097656,46.0102539 Z M71.4433594,45.1279297 C71.4391276,44.5270152 71.2941909,44.0594092 71.0085449,43.7250977 C70.722899,43.3907861 70.3261744,43.2236328 69.8183594,43.2236328 C69.3274715,43.2236328 68.9106462,43.3992495 68.5678711,43.7504883 C68.2250959,44.101727 68.0135095,44.5608696 67.9331055,45.1279297 L71.4433594,45.1279297 Z M77.2958984,40.2910156 C77.0927724,40.1767572 76.8621432,40.1196289 76.6040039,40.1196289 C75.8761357,40.1196289 75.512207,40.5787715 75.512207,41.4970703 L75.512207,42.5 L77.0356445,42.5 L77.0356445,43.3886719 L75.512207,43.3886719 L75.512207,49 L74.4775391,49 L74.4775391,43.3886719 L73.3666992,43.3886719 L73.3666992,42.5 L74.4775391,42.5 L74.4775391,41.4462891 C74.4775391,40.7649706 74.6743144,40.2264831 75.0678711,39.8308105 C75.4614277,39.435138 75.9523083,39.2373047 76.5405273,39.2373047 C76.8579117,39.2373047 77.1096996,39.2753902 77.2958984,39.3515625 L77.2958984,40.2910156 Z M80.8696289,49.1523438 C79.9090121,49.1523438 79.1420113,48.8487172 78.5686035,48.2414551 C77.9951957,47.6341929 77.7084961,46.8291066 77.7084961,45.8261719 C77.7084961,44.7343695 78.006833,43.8816762 78.6035156,43.2680664 C79.2001983,42.6544566 80.0063426,42.3476562 81.0219727,42.3476562 C81.991053,42.3476562 82.7474745,42.6459931 83.2912598,43.2426758 C83.835045,43.8393585 84.1069336,44.6666614 84.1069336,45.7246094 C84.1069336,46.7613984 83.8138864,47.5918751 83.2277832,48.2160645 C82.64168,48.8402538 81.8556364,49.1523438 80.8696289,49.1523438 Z M80.9458008,43.2236328 C80.2771776,43.2236328 79.7482116,43.4510882 79.3588867,43.9060059 C78.9695619,44.3609235 78.7749023,44.9882773 78.7749023,45.7880859 C78.7749023,46.5582721 78.9716777,47.1655251 79.3652344,47.6098633 C79.758791,48.0542014 80.2856412,48.2763672 80.9458008,48.2763672 C81.6186557,48.2763672 82.1359845,48.0584332 82.4978027,47.6225586 C82.8596209,47.186684 83.0405273,46.5667358 83.0405273,45.7626953 C83.0405273,44.9501913 82.8596209,44.3238954 82.4978027,43.8837891 C82.1359845,43.4436827 81.6186557,43.2236328 80.9458008,43.2236328 Z M90.5180664,42.5 L88.3344727,45.7880859 L90.4799805,49 L89.2675781,49 L87.9916992,46.8925781 C87.9112952,46.7613926 87.8160813,46.5963552 87.7060547,46.3974609 L87.6806641,46.3974609 C87.6595051,46.4355471 87.5600595,46.6005845 87.3823242,46.8925781 L86.0810547,49 L84.8813477,49 L87.0966797,45.8134766 L84.9765625,42.5 L86.1889648,42.5 L87.4458008,44.7216797 C87.5389002,44.8867196 87.6298824,45.0559887 87.71875,45.2294922 L87.7441406,45.2294922 L89.3691406,42.5 L90.5180664,42.5 Z M94.9042969,48.7651367 L94.9042969,47.6479492 C95.471357,48.0668966 96.095537,48.2763672 96.7768555,48.2763672 C97.6909225,48.2763672 98.1479492,47.9716827 98.1479492,47.3623047 C98.1479492,47.1888012 98.1088057,47.0417486 98.0305176,46.9211426 C97.9522294,46.8005365 97.8464362,46.6936854 97.7131348,46.6005859 C97.5798333,46.5074865 97.4232594,46.4239099 97.2434082,46.3498535 C97.063557,46.2757972 96.8699555,46.1985681 96.6625977,46.1181641 C96.3748358,46.0039057 96.12199,45.8885911 95.9040527,45.7722168 C95.6861154,45.6558425 95.5041511,45.5246589 95.3581543,45.3786621 C95.2121575,45.2326653 95.1021325,45.0665699 95.0280762,44.8803711 C94.9540198,44.6941722 94.9169922,44.4762382 94.9169922,44.2265625 C94.9169922,43.9218735 94.9868157,43.6521008 95.1264648,43.4172363 C95.266114,43.1823719 95.45231,42.9855965 95.6850586,42.8269043 C95.9178072,42.6682121 96.1833481,42.5486658 96.4816895,42.4682617 C96.7800308,42.3878577 97.087889,42.3476562 97.4052734,42.3476562 C97.9681018,42.3476562 98.4716775,42.444986 98.9160156,42.6396484 L98.9160156,43.6933594 C98.4378231,43.3802068 97.8876984,43.2236328 97.265625,43.2236328 C97.0709626,43.2236328 96.8953458,43.2458494 96.7387695,43.2902832 C96.5821932,43.334717 96.4478358,43.397135 96.3356934,43.4775391 C96.2235509,43.5579431 96.1368004,43.6542149 96.0754395,43.7663574 C96.0140785,43.8784999 95.9833984,44.002278 95.9833984,44.1376953 C95.9833984,44.306967 96.0140785,44.4487299 96.0754395,44.5629883 C96.1368004,44.6772467 96.2267247,44.7788081 96.3452148,44.8676758 C96.463705,44.9565434 96.6075838,45.0369463 96.7768555,45.1088867 C96.9461271,45.1808272 97.1386708,45.2591142 97.3544922,45.34375 C97.642254,45.4537766 97.9003895,45.5669753 98.1289062,45.6833496 C98.357423,45.7997239 98.5520825,45.9309075 98.7128906,46.0769043 C98.8736987,46.2229011 98.9974768,46.3911123 99.0842285,46.581543 C99.1709803,46.7719736 99.2143555,46.9983711 99.2143555,47.2607422 C99.2143555,47.5823584 99.143474,47.8616525 99.001709,48.0986328 C98.859944,48.3356132 98.6705741,48.5323885 98.4335938,48.6889648 C98.1966134,48.8455411 97.9236669,48.9619137 97.6147461,49.0380859 C97.3058253,49.1142582 96.982098,49.1523438 96.6435547,49.1523438 C95.9749316,49.1523438 95.3951847,49.023276 94.9042969,48.7651367 Z M103.829102,48.9365234 C103.583658,49.0719408 103.25993,49.1396484 102.85791,49.1396484 C101.719558,49.1396484 101.150391,48.5048892 101.150391,47.2353516 L101.150391,43.3886719 L100.033203,43.3886719 L100.033203,42.5 L101.150391,42.5 L101.150391,40.9130859 L102.191406,40.5766602 L102.191406,42.5 L103.829102,42.5 L103.829102,43.3886719 L102.191406,43.3886719 L102.191406,47.0512695 C102.191406,47.4871441 102.265461,47.7981762 102.413574,47.984375 C102.561687,48.1705738 102.807127,48.2636719 103.149902,48.2636719 C103.412273,48.2636719 103.638671,48.1917325 103.829102,48.0478516 L103.829102,48.9365234 Z M109.87207,49 L108.831055,49 L108.831055,47.984375 L108.805664,47.984375 C108.352862,48.7630247 107.686365,49.1523438 106.806152,49.1523438 C106.158688,49.1523438 105.651939,48.9809587 105.285889,48.6381836 C104.919839,48.2954084 104.736816,47.8404976 104.736816,47.2734375 C104.736816,46.0589132 105.451979,45.3522145 106.882324,45.1533203 L108.831055,44.8803711 C108.831055,43.7758734 108.384607,43.2236328 107.491699,43.2236328 C106.708818,43.2236328 106.002119,43.4902317 105.371582,44.0234375 L105.371582,42.9570312 C106.010583,42.5507792 106.746903,42.3476562 107.580566,42.3476562 C109.108243,42.3476562 109.87207,43.1559164 109.87207,44.7724609 L109.87207,49 Z M108.831055,45.7119141 L107.263184,45.9277344 C106.780759,45.995443 106.416831,46.1149894 106.171387,46.286377 C105.925943,46.4577645 105.803223,46.761391 105.803223,47.1972656 C105.803223,47.51465 105.916421,47.7738434 106.142822,47.9748535 C106.369223,48.1758636 106.670734,48.2763672 107.047363,48.2763672 C107.563642,48.2763672 107.989989,48.0954608 108.326416,47.7336426 C108.662843,47.3718244 108.831055,46.9137398 108.831055,46.359375 L108.831055,45.7119141 Z M115.223145,43.5537109 C115.041177,43.4140618 114.77881,43.3442383 114.436035,43.3442383 C113.991697,43.3442383 113.620363,43.5537088 113.322021,43.9726562 C113.02368,44.3916037 112.874512,44.962887 112.874512,45.6865234 L112.874512,49 L111.833496,49 L111.833496,42.5 L112.874512,42.5 L112.874512,43.8393555 L112.899902,43.8393555 C113.048015,43.3823219 113.274413,43.0257988 113.579102,42.7697754 C113.883791,42.513752 114.224445,42.3857422 114.601074,42.3857422 C114.871909,42.3857422 115.079264,42.4153643 115.223145,42.4746094 L115.223145,43.5537109 Z M119.368164,48.9365234 C119.12272,49.0719408 118.798993,49.1396484 118.396973,49.1396484 C117.258621,49.1396484 116.689453,48.5048892 116.689453,47.2353516 L116.689453,43.3886719 L115.572266,43.3886719 L115.572266,42.5 L116.689453,42.5 L116.689453,40.9130859 L117.730469,40.5766602 L117.730469,42.5 L119.368164,42.5 L119.368164,43.3886719 L117.730469,43.3886719 L117.730469,47.0512695 C117.730469,47.4871441 117.804524,47.7981762 117.952637,47.984375 C118.100749,48.1705738 118.34619,48.2636719 118.688965,48.2636719 C118.951336,48.2636719 119.177733,48.1917325 119.368164,48.0478516 L119.368164,48.9365234 Z M120.364746,48.7651367 L120.364746,47.6479492 C120.931806,48.0668966 121.555986,48.2763672 122.237305,48.2763672 C123.151372,48.2763672 123.608398,47.9716827 123.608398,47.3623047 C123.608398,47.1888012 123.569255,47.0417486 123.490967,46.9211426 C123.412679,46.8005365 123.306885,46.6936854 123.173584,46.6005859 C123.040283,46.5074865 122.883709,46.4239099 122.703857,46.3498535 C122.524006,46.2757972 122.330405,46.1985681 122.123047,46.1181641 C121.835285,46.0039057 121.582439,45.8885911 121.364502,45.7722168 C121.146565,45.6558425 120.9646,45.5246589 120.818604,45.3786621 C120.672607,45.2326653 120.562582,45.0665699 120.488525,44.8803711 C120.414469,44.6941722 120.377441,44.4762382 120.377441,44.2265625 C120.377441,43.9218735 120.447265,43.6521008 120.586914,43.4172363 C120.726563,43.1823719 120.912759,42.9855965 121.145508,42.8269043 C121.378256,42.6682121 121.643797,42.5486658 121.942139,42.4682617 C122.24048,42.3878577 122.548338,42.3476562 122.865723,42.3476562 C123.428551,42.3476562 123.932127,42.444986 124.376465,42.6396484 L124.376465,43.6933594 C123.898272,43.3802068 123.348148,43.2236328 122.726074,43.2236328 C122.531412,43.2236328 122.355795,43.2458494 122.199219,43.2902832 C122.042642,43.334717 121.908285,43.397135 121.796143,43.4775391 C121.684,43.5579431 121.59725,43.6542149 121.535889,43.7663574 C121.474528,43.8784999 121.443848,44.002278 121.443848,44.1376953 C121.443848,44.306967 121.474528,44.4487299 121.535889,44.5629883 C121.59725,44.6772467 121.687174,44.7788081 121.805664,44.8676758 C121.924154,44.9565434 122.068033,45.0369463 122.237305,45.1088867 C122.406576,45.1808272 122.59912,45.2591142 122.814941,45.34375 C123.102703,45.4537766 123.360839,45.5669753 123.589355,45.6833496 C123.817872,45.7997239 124.012532,45.9309075 124.17334,46.0769043 C124.334148,46.2229011 124.457926,46.3911123 124.544678,46.581543 C124.631429,46.7719736 124.674805,46.9983711 124.674805,47.2607422 C124.674805,47.5823584 124.603923,47.8616525 124.462158,48.0986328 C124.320393,48.3356132 124.131023,48.5323885 123.894043,48.6889648 C123.657063,48.8455411 123.384116,48.9619137 123.075195,49.0380859 C122.766274,49.1142582 122.442547,49.1523438 122.104004,49.1523438 C121.435381,49.1523438 120.855634,49.023276 120.364746,48.7651367 Z"/>
  </g>
</svg>
