<svg xmlns="http://www.w3.org/2000/svg" width="360" height="240" viewBox="0 0 360 240">
  <g fill="#737373">
    <path d="M151.880906 83.307874L168.458071 83.307874 168.458071 129.768307C168.458071 150.708268 158.424803 158.015748 142.392323 158.015748 138.466339 158.015748 133.449606 157.361417 130.177362 156.270866L132.031496 142.856299C134.32185 143.619685 137.266535 144.164961 140.538189 144.164961 147.51811 144.164961 151.880906 141.001969 151.880906 129.659646L151.880906 83.307874zM182.851181 139.801969C187.213583 142.092323 194.193701 144.382677 201.282677 144.382677 208.917126 144.382677 212.952362 141.220079 212.952362 136.312205 212.952362 131.840748 209.462402 129.11437 200.628346 126.060433 188.413189 121.697835 180.342913 114.936024 180.342913 104.139173 180.342913 91.5968504 190.92185 82.1082677 208.153543 82.1082677 216.551575 82.1082677 222.549606 83.744685 226.912402 85.8165354L223.203937 99.1220472C220.368504 97.7045276 215.024213 95.6320866 207.935827 95.6320866 200.737598 95.6320866 197.247441 99.0129921 197.247441 102.72126 197.247441 107.411024 201.282677 109.482874 210.880512 113.191339 223.858465 117.990157 229.85689 124.751969 229.85689 135.22185 229.85689 147.545866 220.477559 158.015945 200.301181 158.015945 191.90315 158.015945 183.614173 155.725394 179.470472 153.435236L182.851181 139.801969z"/>
  </g>
</svg>
