<svg xmlns="http://www.w3.org/2000/svg" width="360" height="240" viewBox="0 0 360 240">
  <g fill="none" transform="translate(120 60)">
    <rect width="120" height="120" fill="#F7DF1E"/>
    <path fill="#000" d="M31.5523529 100.280784L40.7356863 94.7231373C42.507451 97.8643137 44.1190196 100.521961 47.9847059 100.521961 51.6901961 100.521961 54.0262745 99.0723529 54.0262745 93.4343137L54.0262745 55.0913725 65.3031373 55.0913725 65.3031373 93.5937255C65.3031373 105.273725 58.4566667 110.590196 48.4678431 110.590196 39.4466667 110.590196 34.2101961 105.918235 31.5521569 100.279804M71.4286275 99.072549L80.6105882 93.7560784C83.0278431 97.7035294 86.1692157 100.603333 91.7270588 100.603333 96.3996078 100.603333 99.3790196 98.2670588 99.3790196 95.044902 99.3790196 91.1784314 96.3184314 89.8090196 91.1629412 87.5541176L88.3443137 86.345098C80.2082353 82.8819608 74.8109804 78.5321569 74.8109804 69.3494118 74.8109804 60.8915686 81.254902 54.4470588 91.3243137 54.4470588 98.4933333 54.4470588 103.648627 56.9445098 107.353725 63.4692157L98.5735294 69.107451C96.6401961 65.6441176 94.5462745 64.274902 91.3243137 64.274902 88.0217647 64.274902 85.9272549 66.3694118 85.9272549 69.107451 85.9272549 72.4909804 88.0219608 73.8603922 92.8545098 75.954902L95.6735294 77.1629412C105.259216 81.2713725 110.656275 85.4596078 110.656275 94.8837255 110.656275 105.033725 102.681765 110.591176 91.9686275 110.591176 81.4972549 110.591176 74.7307843 105.597451 71.4286275 99.072549"/>
  </g>
</svg>
