<svg xmlns="http://www.w3.org/2000/svg" width="360" height="240" viewBox="0 0 360 240">
  <g fill="none" transform="translate(103 90)">
    <path fill="#C62E2E" d="M0,0 L154.285714,0 L154.285714,51.4285714 L77.1428571,51.4285714 L77.1428571,60 L42.8571429,60 L42.8571429,51.4285714 L0,51.4285714 L0,0 Z M8.57142857,42.8571429 L25.7142857,42.8571429 L25.7142857,17.1428571 L34.2857143,17.1428571 L34.2857143,42.8571429 L42.8571429,42.8571429 L42.8571429,8.57142857 L8.57142857,8.57142857 L8.57142857,42.8571429 Z M51.4285714,8.57142857 L51.4285714,51.4285714 L68.5714286,51.4285714 L68.5714286,42.8571429 L85.7142857,42.8571429 L85.7142857,8.57142857 L51.4285714,8.57142857 Z M68.5714286,17.1428571 L77.1428571,17.1428571 L77.1428571,34.2857143 L68.5714286,34.2857143 L68.5714286,17.1428571 Z M94.2857143,8.57142857 L94.2857143,42.8571429 L111.428571,42.8571429 L111.428571,17.1428571 L120,17.1428571 L120,42.8571429 L128.571429,42.8571429 L128.571429,17.1428571 L137.142857,17.1428571 L137.142857,42.8571429 L145.714286,42.8571429 L145.714286,8.57142857 L94.2857143,8.57142857 Z"/>
    <polygon fill="#FFF" points="8.571 42.857 25.714 42.857 25.714 17.143 34.286 17.143 34.286 42.857 42.857 42.857 42.857 8.571 8.571 8.571"/>
    <path fill="#FFF" d="M51.4285714,8.57142857 L51.4285714,51.4285714 L68.5714286,51.4285714 L68.5714286,42.8571429 L85.7142857,42.8571429 L85.7142857,8.57142857 L51.4285714,8.57142857 Z M77.1428571,34.2857143 L68.5714286,34.2857143 L68.5714286,17.1428571 L77.1428571,17.1428571 L77.1428571,34.2857143 Z"/>
    <polygon fill="#FFF" points="94.286 8.571 94.286 42.857 111.429 42.857 111.429 17.143 120 17.143 120 42.857 128.571 42.857 128.571 17.143 137.143 17.143 137.143 42.857 145.714 42.857 145.714 8.571"/>
  </g>
</svg>
